{
  "jsonPath": "Ultima Online/combat2.json",
  "path": "Ultima Online\\combat2.mid",
  "name": "combat2",
  "difficulty": "Advanced",
  "bpm": 140.00014000014,
  "notes": [
    {
      "midi": 45,
      "hit": false,
      "t": 17.857125000000003,
      "d": 71.42850000000001,
      "v": 80
    },
    {
      "midi": 33,
      "hit": false,
      "t": 17.857125000000003,
      "d": 71.42850000000001,
      "v": 80
    },
    {
      "midi": 48,
      "hit": false,
      "t": 17.857125000000003,
      "d": 585.7137000000001,
      "v": 125
    },
    {
      "midi": 63,
      "hit": false,
      "t": 17.857125000000003,
      "d": 71.42850000000001,
      "v": 119
    },
    {
      "midi": 57,
      "hit": false,
      "t": 17.857125000000003,
      "d": 89.28562500000001,
      "v": 101
    },
    {
      "midi": 45,
      "hit": false,
      "t": 232.14262500000004,
      "d": 71.42850000000001,
      "v": 80
    },
    {
      "midi": 33,
      "hit": false,
      "t": 232.14262500000004,
      "d": 71.42850000000001,
      "v": 80
    },
    {
      "midi": 45,
      "hit": false,
      "t": 446.4281250000001,
      "d": 71.42850000000004,
      "v": 80
    },
    {
      "midi": 33,
      "hit": false,
      "t": 446.4281250000001,
      "d": 71.42850000000004,
      "v": 80
    },
    {
      "midi": 48,
      "hit": false,
      "t": 660.7136250000001,
      "d": 178.57124999999996,
      "v": 95
    },
    {
      "midi": 36,
      "hit": false,
      "t": 660.7136250000001,
      "d": 178.57124999999996,
      "v": 95
    },
    {
      "midi": 45,
      "hit": false,
      "t": 660.7136250000001,
      "d": 599.9993999999999,
      "v": 115
    },
    {
      "midi": 46,
      "hit": false,
      "t": 660.7136250000001,
      "d": 2903.5685250000006,
      "v": 127
    },
    {
      "midi": 66,
      "hit": false,
      "t": 660.7136250000001,
      "d": 60.714225000000056,
      "v": 117
    },
    {
      "midi": 60,
      "hit": false,
      "t": 660.7136250000001,
      "d": 74.99992500000008,
      "v": 99
    },
    {
      "midi": 45,
      "hit": false,
      "t": 874.999125,
      "d": 71.42849999999999,
      "v": 80
    },
    {
      "midi": 33,
      "hit": false,
      "t": 874.999125,
      "d": 71.42849999999999,
      "v": 80
    },
    {
      "midi": 45,
      "hit": false,
      "t": 1089.284625,
      "d": 71.42849999999999,
      "v": 80
    },
    {
      "midi": 33,
      "hit": false,
      "t": 1089.284625,
      "d": 71.42849999999999,
      "v": 80
    },
    {
      "midi": 45,
      "hit": false,
      "t": 1303.570125,
      "d": 71.42849999999999,
      "v": 80
    },
    {
      "midi": 33,
      "hit": false,
      "t": 1303.570125,
      "d": 71.42849999999999,
      "v": 80
    },
    {
      "midi": 48,
      "hit": false,
      "t": 1303.570125,
      "d": 514.2852,
      "v": 119
    },
    {
      "midi": 57,
      "hit": false,
      "t": 1303.5701250000002,
      "d": 67.8570749999999,
      "v": 95
    },
    {
      "midi": 63,
      "hit": false,
      "t": 1303.5701250000002,
      "d": 71.42849999999999,
      "v": 113
    },
    {
      "midi": 45,
      "hit": false,
      "t": 1517.855625,
      "d": 71.42849999999999,
      "v": 80
    },
    {
      "midi": 33,
      "hit": false,
      "t": 1517.855625,
      "d": 71.42849999999999,
      "v": 80
    },
    {
      "midi": 45,
      "hit": false,
      "t": 1732.1411249999999,
      "d": 71.42849999999999,
      "v": 80
    },
    {
      "midi": 33,
      "hit": false,
      "t": 1732.1411249999999,
      "d": 71.42849999999999,
      "v": 80
    },
    {
      "midi": 48,
      "hit": false,
      "t": 1946.4266249999998,
      "d": 178.5712500000002,
      "v": 95
    },
    {
      "midi": 36,
      "hit": false,
      "t": 1946.4266249999998,
      "d": 178.5712500000002,
      "v": 95
    },
    {
      "midi": 48,
      "hit": false,
      "t": 1946.426625,
      "d": 196.42837499999996,
      "v": 117
    },
    {
      "midi": 66,
      "hit": false,
      "t": 1946.4266250000003,
      "d": 57.14280000000008,
      "v": 113
    },
    {
      "midi": 60,
      "hit": false,
      "t": 1946.4266250000003,
      "d": 67.85707500000012,
      "v": 93
    },
    {
      "midi": 45,
      "hit": false,
      "t": 2160.712125,
      "d": 71.42849999999999,
      "v": 80
    },
    {
      "midi": 33,
      "hit": false,
      "t": 2160.712125,
      "d": 71.42849999999999,
      "v": 80
    },
    {
      "midi": 45,
      "hit": false,
      "t": 2160.712125,
      "d": 374.9996249999999,
      "v": 115
    },
    {
      "midi": 45,
      "hit": false,
      "t": 2374.997625,
      "d": 71.42849999999999,
      "v": 80
    },
    {
      "midi": 33,
      "hit": false,
      "t": 2374.997625,
      "d": 71.42849999999999,
      "v": 80
    },
    {
      "midi": 48,
      "hit": false,
      "t": 2589.283125,
      "d": 178.57124999999996,
      "v": 95
    },
    {
      "midi": 36,
      "hit": false,
      "t": 2589.283125,
      "d": 178.57124999999996,
      "v": 95
    },
    {
      "midi": 48,
      "hit": false,
      "t": 2589.283125,
      "d": 403.5710250000002,
      "v": 121
    },
    {
      "midi": 60,
      "hit": false,
      "t": 2589.2831250000004,
      "d": 64.2856499999998,
      "v": 87
    },
    {
      "midi": 66,
      "hit": false,
      "t": 2589.2831250000004,
      "d": 64.2856499999998,
      "v": 121
    },
    {
      "midi": 45,
      "hit": false,
      "t": 2803.568625,
      "d": 71.42849999999999,
      "v": 80
    },
    {
      "midi": 33,
      "hit": false,
      "t": 2803.568625,
      "d": 71.42849999999999,
      "v": 80
    },
    {
      "midi": 45,
      "hit": false,
      "t": 3017.854125,
      "d": 71.42849999999999,
      "v": 80
    },
    {
      "midi": 33,
      "hit": false,
      "t": 3017.854125,
      "d": 71.42849999999999,
      "v": 80
    },
    {
      "midi": 57,
      "hit": false,
      "t": 3017.8541250000003,
      "d": 117.8570249999998,
      "v": 100
    },
    {
      "midi": 64,
      "hit": false,
      "t": 3017.8541250000003,
      "d": 117.8570249999998,
      "v": 100
    },
    {
      "midi": 45,
      "hit": false,
      "t": 3017.8541250000003,
      "d": 432.142425,
      "v": 117
    },
    {
      "midi": 63,
      "hit": false,
      "t": 3017.8541250000003,
      "d": 53.57137499999999,
      "v": 113
    },
    {
      "midi": 57,
      "hit": false,
      "t": 3017.8541250000003,
      "d": 74.99992500000008,
      "v": 92
    },
    {
      "midi": 59,
      "hit": false,
      "t": 3124.9968750000003,
      "d": 85.71419999999989,
      "v": 80
    },
    {
      "midi": 66,
      "hit": false,
      "t": 3124.9968750000003,
      "d": 85.71419999999989,
      "v": 80
    },
    {
      "midi": 45,
      "hit": false,
      "t": 3232.139625,
      "d": 71.42849999999999,
      "v": 80
    },
    {
      "midi": 33,
      "hit": false,
      "t": 3232.139625,
      "d": 71.42849999999999,
      "v": 80
    },
    {
      "midi": 60,
      "hit": false,
      "t": 3232.1396250000003,
      "d": 92.85705000000007,
      "v": 80
    },
    {
      "midi": 67,
      "hit": false,
      "t": 3232.1396250000003,
      "d": 92.85705000000007,
      "v": 80
    },
    {
      "midi": 62,
      "hit": false,
      "t": 3339.2823750000002,
      "d": 117.8570249999998,
      "v": 90
    },
    {
      "midi": 69,
      "hit": false,
      "t": 3339.2823750000002,
      "d": 117.8570249999998,
      "v": 90
    },
    {
      "midi": 33,
      "hit": false,
      "t": 3446.4251249999998,
      "d": 71.42849999999999,
      "v": 80
    },
    {
      "midi": 63,
      "hit": false,
      "t": 3446.425125,
      "d": 1378.5700499999998,
      "v": 100
    },
    {
      "midi": 70,
      "hit": false,
      "t": 3446.425125,
      "d": 1378.5700499999998,
      "v": 80
    },
    {
      "midi": 48,
      "hit": false,
      "t": 3446.425125,
      "d": 592.85655,
      "v": 123
    },
    {
      "midi": 63,
      "hit": false,
      "t": 3446.4251250000007,
      "d": 67.8570749999999,
      "v": 111
    },
    {
      "midi": 57,
      "hit": false,
      "t": 3446.4251250000007,
      "d": 82.1427749999998,
      "v": 95
    },
    {
      "midi": 33,
      "hit": false,
      "t": 3660.7106249999997,
      "d": 71.42849999999999,
      "v": 80
    },
    {
      "midi": 33,
      "hit": false,
      "t": 3874.9961249999997,
      "d": 71.42849999999999,
      "v": 80
    },
    {
      "midi": 36,
      "hit": false,
      "t": 4089.2816249999996,
      "d": 178.57124999999996,
      "v": 95
    },
    {
      "midi": 45,
      "hit": false,
      "t": 4089.281625,
      "d": 578.5708499999996,
      "v": 121
    },
    {
      "midi": 66,
      "hit": false,
      "t": 4089.2816250000005,
      "d": 53.571375000000444,
      "v": 117
    },
    {
      "midi": 60,
      "hit": false,
      "t": 4089.2816250000005,
      "d": 82.14277500000026,
      "v": 101
    },
    {
      "midi": 46,
      "hit": false,
      "t": 4089.281625000001,
      "d": 2503.568925,
      "v": 127
    },
    {
      "midi": 33,
      "hit": false,
      "t": 4303.567125,
      "d": 71.42849999999999,
      "v": 80
    },
    {
      "midi": 33,
      "hit": false,
      "t": 4517.8526249999995,
      "d": 71.42849999999999,
      "v": 80
    },
    {
      "midi": 33,
      "hit": false,
      "t": 4732.1381249999995,
      "d": 71.42849999999999,
      "v": 80
    },
    {
      "midi": 48,
      "hit": false,
      "t": 4732.1381249999995,
      "d": 457.1423999999997,
      "v": 121
    },
    {
      "midi": 63,
      "hit": false,
      "t": 4732.138125000001,
      "d": 74.99992500000008,
      "v": 109
    },
    {
      "midi": 57,
      "hit": false,
      "t": 4732.138125000001,
      "d": 89.28562500000044,
      "v": 93
    },
    {
      "midi": 33,
      "hit": false,
      "t": 4946.423624999999,
      "d": 71.42849999999999,
      "v": 80
    },
    {
      "midi": 63,
      "hit": false,
      "t": 4946.423625,
      "d": 53.571375000000444,
      "v": 110
    },
    {
      "midi": 70,
      "hit": false,
      "t": 4946.423625,
      "d": 53.571375000000444,
      "v": 110
    },
    {
      "midi": 33,
      "hit": false,
      "t": 5160.709124999999,
      "d": 71.42849999999999,
      "v": 80
    },
    {
      "midi": 62,
      "hit": false,
      "t": 5160.709125000001,
      "d": 160.71412500000042,
      "v": 110
    },
    {
      "midi": 69,
      "hit": false,
      "t": 5160.709125000001,
      "d": 160.71412500000042,
      "v": 110
    },
    {
      "midi": 36,
      "hit": false,
      "t": 5374.994624999999,
      "d": 178.57124999999996,
      "v": 95
    },
    {
      "midi": 48,
      "hit": false,
      "t": 5374.994624999999,
      "d": 182.14267500000005,
      "v": 117
    },
    {
      "midi": 60,
      "hit": false,
      "t": 5374.994625000002,
      "d": 110.71417500000007,
      "v": 90
    },
    {
      "midi": 67,
      "hit": false,
      "t": 5374.994625000002,
      "d": 110.71417500000007,
      "v": 90
    },
    {
      "midi": 66,
      "hit": false,
      "t": 5374.994625000002,
      "d": 53.571375000000444,
      "v": 119
    },
    {
      "midi": 60,
      "hit": false,
      "t": 5374.994625000002,
      "d": 71.4285000000009,
      "v": 95
    },
    {
      "midi": 33,
      "hit": false,
      "t": 5589.280124999999,
      "d": 71.42849999999999,
      "v": 80
    },
    {
      "midi": 45,
      "hit": false,
      "t": 5589.280124999999,
      "d": 417.85672499999964,
      "v": 117
    },
    {
      "midi": 33,
      "hit": false,
      "t": 5803.565624999999,
      "d": 71.42849999999999,
      "v": 80
    },
    {
      "midi": 36,
      "hit": false,
      "t": 6017.851124999999,
      "d": 178.57124999999996,
      "v": 95
    },
    {
      "midi": 48,
      "hit": false,
      "t": 6017.851124999999,
      "d": 439.2852750000002,
      "v": 117
    },
    {
      "midi": 66,
      "hit": false,
      "t": 6017.851125000003,
      "d": 71.42849999999999,
      "v": 117
    },
    {
      "midi": 60,
      "hit": false,
      "t": 6017.851125000003,
      "d": 82.14277500000026,
      "v": 93
    },
    {
      "midi": 33,
      "hit": false,
      "t": 6232.136624999999,
      "d": 71.42849999999999,
      "v": 80
    },
    {
      "midi": 33,
      "hit": false,
      "t": 6446.422124999999,
      "d": 71.42849999999999,
      "v": 80
    },
    {
      "midi": 45,
      "hit": false,
      "t": 6446.422124999999,
      "d": 378.57105000000047,
      "v": 119
    },
    {
      "midi": 63,
      "hit": false,
      "t": 6446.422125000003,
      "d": 67.8570749999999,
      "v": 111
    },
    {
      "midi": 57,
      "hit": false,
      "t": 6446.422125000003,
      "d": 82.14277500000026,
      "v": 87
    },
    {
      "midi": 33,
      "hit": false,
      "t": 6660.707624999999,
      "d": 71.42849999999999,
      "v": 80
    },
    {
      "midi": 34,
      "hit": false,
      "t": 6874.993124999999,
      "d": 71.42849999999999,
      "v": 80
    },
    {
      "midi": 49,
      "hit": false,
      "t": 6874.993125,
      "d": 564.2851499999997,
      "v": 125
    },
    {
      "midi": 46,
      "hit": false,
      "t": 6874.993125000001,
      "d": 71.42849999999999,
      "v": 80
    },
    {
      "midi": 65,
      "hit": false,
      "t": 6874.993125000003,
      "d": 71.42849999999999,
      "v": 101
    },
    {
      "midi": 58,
      "hit": false,
      "t": 6874.993125000003,
      "d": 78.57135000000017,
      "v": 93
    },
    {
      "midi": 34,
      "hit": false,
      "t": 7089.278624999999,
      "d": 71.42849999999999,
      "v": 80
    },
    {
      "midi": 46,
      "hit": false,
      "t": 7089.278625000001,
      "d": 71.42849999999999,
      "v": 80
    },
    {
      "midi": 34,
      "hit": false,
      "t": 7303.564124999999,
      "d": 71.42849999999999,
      "v": 80
    },
    {
      "midi": 46,
      "hit": false,
      "t": 7303.564125000001,
      "d": 71.42849999999999,
      "v": 80
    },
    {
      "midi": 37,
      "hit": false,
      "t": 7517.849624999999,
      "d": 178.57124999999996,
      "v": 95
    },
    {
      "midi": 46,
      "hit": false,
      "t": 7517.849625,
      "d": 592.8565500000004,
      "v": 125
    },
    {
      "midi": 49,
      "hit": false,
      "t": 7517.849625000001,
      "d": 178.57124999999996,
      "v": 95
    },
    {
      "midi": 46,
      "hit": false,
      "t": 7517.849625000001,
      "d": 471.4281000000001,
      "v": 127
    },
    {
      "midi": 61,
      "hit": false,
      "t": 7517.849625000003,
      "d": 71.42849999999999,
      "v": 97
    },
    {
      "midi": 68,
      "hit": false,
      "t": 7517.849625000003,
      "d": 78.57135000000017,
      "v": 115
    },
    {
      "midi": 34,
      "hit": false,
      "t": 7732.135124999999,
      "d": 71.42849999999999,
      "v": 80
    },
    {
      "midi": 46,
      "hit": false,
      "t": 7732.135125000001,
      "d": 71.42849999999999,
      "v": 80
    },
    {
      "midi": 34,
      "hit": false,
      "t": 7946.420624999999,
      "d": 71.42849999999999,
      "v": 80
    },
    {
      "midi": 46,
      "hit": false,
      "t": 7946.420625000001,
      "d": 71.42849999999999,
      "v": 80
    },
    {
      "midi": 34,
      "hit": false,
      "t": 8160.706124999999,
      "d": 71.42849999999999,
      "v": 80
    },
    {
      "midi": 46,
      "hit": false,
      "t": 8160.706125000001,
      "d": 71.42849999999999,
      "v": 80
    },
    {
      "midi": 49,
      "hit": false,
      "t": 8160.706125000001,
      "d": 474.99952499999927,
      "v": 127
    },
    {
      "midi": 58,
      "hit": false,
      "t": 8160.706125000002,
      "d": 64.2856499999998,
      "v": 109
    },
    {
      "midi": 65,
      "hit": false,
      "t": 8160.706125000002,
      "d": 74.99992500000008,
      "v": 107
    },
    {
      "midi": 34,
      "hit": false,
      "t": 8374.991624999999,
      "d": 71.42849999999999,
      "v": 80
    },
    {
      "midi": 46,
      "hit": false,
      "t": 8374.991625,
      "d": 71.42849999999999,
      "v": 80
    },
    {
      "midi": 34,
      "hit": false,
      "t": 8589.277124999999,
      "d": 71.42849999999999,
      "v": 80
    },
    {
      "midi": 46,
      "hit": false,
      "t": 8589.277125,
      "d": 71.42849999999999,
      "v": 80
    },
    {
      "midi": 37,
      "hit": false,
      "t": 8803.562624999999,
      "d": 178.57125000000087,
      "v": 95
    },
    {
      "midi": 49,
      "hit": false,
      "t": 8803.562625,
      "d": 178.57125000000087,
      "v": 95
    },
    {
      "midi": 49,
      "hit": false,
      "t": 8803.562625,
      "d": 114.28559999999925,
      "v": 127
    },
    {
      "midi": 68,
      "hit": false,
      "t": 8803.562625000002,
      "d": 53.571374999999534,
      "v": 113
    },
    {
      "midi": 61,
      "hit": false,
      "t": 8803.562625000002,
      "d": 67.8570749999999,
      "v": 107
    },
    {
      "midi": 34,
      "hit": false,
      "t": 9017.848125,
      "d": 71.42849999999999,
      "v": 80
    },
    {
      "midi": 46,
      "hit": false,
      "t": 9017.848125,
      "d": 428.5709999999999,
      "v": 113
    },
    {
      "midi": 46,
      "hit": false,
      "t": 9017.848125000002,
      "d": 71.42849999999999,
      "v": 80
    },
    {
      "midi": 34,
      "hit": false,
      "t": 9232.133625,
      "d": 71.42849999999999,
      "v": 80
    },
    {
      "midi": 46,
      "hit": false,
      "t": 9232.133625000002,
      "d": 71.42849999999999,
      "v": 80
    },
    {
      "midi": 37,
      "hit": false,
      "t": 9446.419125,
      "d": 178.57125000000087,
      "v": 95
    },
    {
      "midi": 49,
      "hit": false,
      "t": 9446.419125,
      "d": 417.85672499999964,
      "v": 127
    },
    {
      "midi": 49,
      "hit": false,
      "t": 9446.419125000002,
      "d": 178.57125000000087,
      "v": 95
    },
    {
      "midi": 61,
      "hit": false,
      "t": 9446.419125000002,
      "d": 60.714224999999715,
      "v": 107
    },
    {
      "midi": 68,
      "hit": false,
      "t": 9446.419125000002,
      "d": 60.714224999999715,
      "v": 119
    },
    {
      "midi": 34,
      "hit": false,
      "t": 9660.704625000002,
      "d": 71.42849999999999,
      "v": 80
    },
    {
      "midi": 46,
      "hit": false,
      "t": 9660.704625000004,
      "d": 71.42849999999999,
      "v": 80
    },
    {
      "midi": 46,
      "hit": false,
      "t": 9874.990125,
      "d": 417.85672499999964,
      "v": 126
    },
    {
      "midi": 34,
      "hit": false,
      "t": 9874.990125000002,
      "d": 71.42849999999999,
      "v": 80
    },
    {
      "midi": 65,
      "hit": false,
      "t": 9874.990125000002,
      "d": 60.714224999999715,
      "v": 89
    },
    {
      "midi": 58,
      "hit": false,
      "t": 9874.990125000002,
      "d": 64.2856499999998,
      "v": 97
    },
    {
      "midi": 46,
      "hit": false,
      "t": 9874.990125000004,
      "d": 71.42849999999999,
      "v": 80
    },
    {
      "midi": 58,
      "hit": false,
      "t": 9874.990125000004,
      "d": 117.85702500000116,
      "v": 100
    },
    {
      "midi": 65,
      "hit": false,
      "t": 9874.990125000004,
      "d": 117.85702500000116,
      "v": 100
    },
    {
      "midi": 60,
      "hit": false,
      "t": 9982.132875000005,
      "d": 85.71420000000035,
      "v": 80
    },
    {
      "midi": 67,
      "hit": false,
      "t": 9982.132875000005,
      "d": 85.71420000000035,
      "v": 80
    },
    {
      "midi": 34,
      "hit": false,
      "t": 10089.275625000002,
      "d": 71.42849999999999,
      "v": 80
    },
    {
      "midi": 46,
      "hit": false,
      "t": 10089.275625000004,
      "d": 71.42849999999999,
      "v": 80
    },
    {
      "midi": 61,
      "hit": false,
      "t": 10089.275625000006,
      "d": 92.85705000000053,
      "v": 80
    },
    {
      "midi": 68,
      "hit": false,
      "t": 10089.275625000006,
      "d": 92.85705000000053,
      "v": 80
    },
    {
      "midi": 63,
      "hit": false,
      "t": 10196.418375000007,
      "d": 117.85702500000116,
      "v": 90
    },
    {
      "midi": 70,
      "hit": false,
      "t": 10196.418375000007,
      "d": 117.85702500000116,
      "v": 90
    },
    {
      "midi": 49,
      "hit": false,
      "t": 10303.561125,
      "d": 603.5708250000007,
      "v": 127
    },
    {
      "midi": 34,
      "hit": false,
      "t": 10303.561125000002,
      "d": 71.42849999999999,
      "v": 80
    },
    {
      "midi": 65,
      "hit": false,
      "t": 10303.561125000002,
      "d": 53.571374999999534,
      "v": 111
    },
    {
      "midi": 58,
      "hit": false,
      "t": 10303.561125000002,
      "d": 74.99992500000008,
      "v": 115
    },
    {
      "midi": 64,
      "hit": false,
      "t": 10303.561125000007,
      "d": 1378.5700500000003,
      "v": 100
    },
    {
      "midi": 71,
      "hit": false,
      "t": 10303.561125000007,
      "d": 1378.5700500000003,
      "v": 80
    },
    {
      "midi": 34,
      "hit": false,
      "t": 10517.846625000002,
      "d": 71.42849999999999,
      "v": 80
    },
    {
      "midi": 34,
      "hit": false,
      "t": 10732.132125000002,
      "d": 71.42849999999999,
      "v": 80
    },
    {
      "midi": 46,
      "hit": false,
      "t": 10946.417625,
      "d": 524.9994750000005,
      "v": 126
    },
    {
      "midi": 37,
      "hit": false,
      "t": 10946.417625000002,
      "d": 178.57125000000087,
      "v": 95
    },
    {
      "midi": 46,
      "hit": false,
      "t": 10946.417625000002,
      "d": 796.4277750000001,
      "v": 127
    },
    {
      "midi": 68,
      "hit": false,
      "t": 10946.417625000002,
      "d": 53.571374999999534,
      "v": 123
    },
    {
      "midi": 61,
      "hit": false,
      "t": 10946.417625000002,
      "d": 67.8570749999999,
      "v": 115
    },
    {
      "midi": 34,
      "hit": false,
      "t": 11160.703125000004,
      "d": 71.42849999999999,
      "v": 80
    },
    {
      "midi": 34,
      "hit": false,
      "t": 11374.988625000004,
      "d": 71.42849999999999,
      "v": 80
    },
    {
      "midi": 49,
      "hit": false,
      "t": 11589.274125,
      "d": 474.99952499999927,
      "v": 127
    },
    {
      "midi": 65,
      "hit": false,
      "t": 11589.274125000002,
      "d": 74.99992500000008,
      "v": 103
    },
    {
      "midi": 58,
      "hit": false,
      "t": 11589.274125000002,
      "d": 74.99992500000008,
      "v": 99
    },
    {
      "midi": 34,
      "hit": false,
      "t": 11589.274125000004,
      "d": 71.42849999999999,
      "v": 80
    },
    {
      "midi": 34,
      "hit": false,
      "t": 11803.559625000004,
      "d": 71.42849999999999,
      "v": 80
    },
    {
      "midi": 64,
      "hit": false,
      "t": 11803.559625000007,
      "d": 53.571374999999534,
      "v": 110
    },
    {
      "midi": 71,
      "hit": false,
      "t": 11803.559625000007,
      "d": 53.571374999999534,
      "v": 110
    },
    {
      "midi": 34,
      "hit": false,
      "t": 12017.845125000003,
      "d": 71.42849999999999,
      "v": 80
    },
    {
      "midi": 63,
      "hit": false,
      "t": 12017.845125000007,
      "d": 160.71412500000042,
      "v": 110
    },
    {
      "midi": 70,
      "hit": false,
      "t": 12017.845125000007,
      "d": 160.71412500000042,
      "v": 110
    },
    {
      "midi": 49,
      "hit": false,
      "t": 12232.130625,
      "d": 114.28559999999925,
      "v": 127
    },
    {
      "midi": 68,
      "hit": false,
      "t": 12232.130625000002,
      "d": 42.857099999999264,
      "v": 105
    },
    {
      "midi": 61,
      "hit": false,
      "t": 12232.130625000002,
      "d": 64.2856499999998,
      "v": 105
    },
    {
      "midi": 37,
      "hit": false,
      "t": 12232.130625000003,
      "d": 178.57125000000087,
      "v": 95
    },
    {
      "midi": 61,
      "hit": false,
      "t": 12232.130625000007,
      "d": 110.71417499999916,
      "v": 90
    },
    {
      "midi": 68,
      "hit": false,
      "t": 12232.130625000007,
      "d": 110.71417499999916,
      "v": 90
    },
    {
      "midi": 46,
      "hit": false,
      "t": 12446.416125,
      "d": 385.71390000000065,
      "v": 115
    },
    {
      "midi": 34,
      "hit": false,
      "t": 12446.416125000005,
      "d": 71.42849999999999,
      "v": 80
    },
    {
      "midi": 34,
      "hit": false,
      "t": 12660.701625000005,
      "d": 71.42849999999999,
      "v": 80
    },
    {
      "midi": 49,
      "hit": false,
      "t": 12874.987125,
      "d": 364.2853500000001,
      "v": 127
    },
    {
      "midi": 61,
      "hit": false,
      "t": 12874.987125000001,
      "d": 78.57135000000017,
      "v": 105
    },
    {
      "midi": 68,
      "hit": false,
      "t": 12874.987125000001,
      "d": 82.14277500000026,
      "v": 117
    },
    {
      "midi": 37,
      "hit": false,
      "t": 12874.987125000005,
      "d": 178.57125000000087,
      "v": 95
    },
    {
      "midi": 34,
      "hit": false,
      "t": 13089.272625000007,
      "d": 71.42849999999999,
      "v": 80
    },
    {
      "midi": 46,
      "hit": false,
      "t": 13303.558125,
      "d": 335.7139499999994,
      "v": 125
    },
    {
      "midi": 65,
      "hit": false,
      "t": 13303.558125000001,
      "d": 67.8570749999999,
      "v": 103
    },
    {
      "midi": 58,
      "hit": false,
      "t": 13303.558125000001,
      "d": 78.57135000000017,
      "v": 95
    },
    {
      "midi": 34,
      "hit": false,
      "t": 13303.558125000007,
      "d": 71.42849999999999,
      "v": 80
    },
    {
      "midi": 34,
      "hit": false,
      "t": 13517.843625000007,
      "d": 71.42849999999999,
      "v": 80
    },
    {
      "midi": 48,
      "hit": false,
      "t": 13732.129125,
      "d": 585.7137000000002,
      "v": 121
    },
    {
      "midi": 63,
      "hit": false,
      "t": 13732.129125000001,
      "d": 71.42849999999999,
      "v": 119
    },
    {
      "midi": 57,
      "hit": false,
      "t": 13732.129125000001,
      "d": 89.28562500000044,
      "v": 101
    },
    {
      "midi": 45,
      "hit": false,
      "t": 13732.129125000005,
      "d": 71.42849999999999,
      "v": 80
    },
    {
      "midi": 33,
      "hit": false,
      "t": 13732.129125000007,
      "d": 71.42849999999999,
      "v": 80
    },
    {
      "midi": 63,
      "hit": false,
      "t": 13946.414625000001,
      "d": 49.999949999999444,
      "v": 107
    },
    {
      "midi": 45,
      "hit": false,
      "t": 13946.414625000005,
      "d": 71.42849999999999,
      "v": 80
    },
    {
      "midi": 33,
      "hit": false,
      "t": 13946.414625000007,
      "d": 71.42849999999999,
      "v": 80
    },
    {
      "midi": 63,
      "hit": false,
      "t": 14160.700125000001,
      "d": 49.999949999999444,
      "v": 99
    },
    {
      "midi": 45,
      "hit": false,
      "t": 14160.700125000005,
      "d": 71.42849999999999,
      "v": 80
    },
    {
      "midi": 33,
      "hit": false,
      "t": 14160.700125000007,
      "d": 71.42849999999999,
      "v": 80
    },
    {
      "midi": 45,
      "hit": false,
      "t": 14374.985625,
      "d": 628.5707999999995,
      "v": 121
    },
    {
      "midi": 63,
      "hit": false,
      "t": 14374.985625000001,
      "d": 57.142799999999625,
      "v": 101
    },
    {
      "midi": 66,
      "hit": false,
      "t": 14374.985625000001,
      "d": 60.714224999999715,
      "v": 117
    },
    {
      "midi": 60,
      "hit": false,
      "t": 14374.985625000001,
      "d": 74.99992500000008,
      "v": 99
    },
    {
      "midi": 46,
      "hit": false,
      "t": 14374.985625000003,
      "d": 692.8564499999993,
      "v": 127
    },
    {
      "midi": 48,
      "hit": false,
      "t": 14374.985625000005,
      "d": 178.57125000000087,
      "v": 95
    },
    {
      "midi": 36,
      "hit": false,
      "t": 14374.985625000007,
      "d": 178.57125000000087,
      "v": 95
    },
    {
      "midi": 63,
      "hit": false,
      "t": 14589.271125000001,
      "d": 210.71407499999987,
      "v": 115
    },
    {
      "midi": 45,
      "hit": false,
      "t": 14589.271125000007,
      "d": 71.42849999999999,
      "v": 80
    },
    {
      "midi": 33,
      "hit": false,
      "t": 14589.271125000008,
      "d": 71.42849999999999,
      "v": 80
    },
    {
      "midi": 62,
      "hit": false,
      "t": 14803.556625000001,
      "d": 96.42847500000062,
      "v": 90
    },
    {
      "midi": 45,
      "hit": false,
      "t": 14803.556625000007,
      "d": 71.42849999999999,
      "v": 80
    },
    {
      "midi": 33,
      "hit": false,
      "t": 14803.556625000008,
      "d": 71.42849999999999,
      "v": 80
    },
    {
      "midi": 48,
      "hit": false,
      "t": 15017.842125,
      "d": 449.99955000000045,
      "v": 119
    },
    {
      "midi": 57,
      "hit": false,
      "t": 15017.842125000001,
      "d": 67.8570749999999,
      "v": 95
    },
    {
      "midi": 63,
      "hit": false,
      "t": 15017.842125000001,
      "d": 71.42849999999999,
      "v": 113
    },
    {
      "midi": 45,
      "hit": false,
      "t": 15017.842125000006,
      "d": 71.42849999999999,
      "v": 80
    },
    {
      "midi": 33,
      "hit": false,
      "t": 15017.842125000008,
      "d": 71.42849999999999,
      "v": 80
    },
    {
      "midi": 45,
      "hit": false,
      "t": 15232.127625000006,
      "d": 71.42849999999999,
      "v": 80
    },
    {
      "midi": 33,
      "hit": false,
      "t": 15232.127625000008,
      "d": 71.42849999999999,
      "v": 80
    },
    {
      "midi": 45,
      "hit": false,
      "t": 15446.413125000006,
      "d": 71.42849999999999,
      "v": 80
    },
    {
      "midi": 33,
      "hit": false,
      "t": 15446.413125000008,
      "d": 71.42849999999999,
      "v": 80
    },
    {
      "midi": 48,
      "hit": false,
      "t": 15660.698624999999,
      "d": 189.28552499999932,
      "v": 119
    },
    {
      "midi": 66,
      "hit": false,
      "t": 15660.698625,
      "d": 57.142799999999625,
      "v": 113
    },
    {
      "midi": 60,
      "hit": false,
      "t": 15660.698625,
      "d": 67.8570749999999,
      "v": 93
    },
    {
      "midi": 48,
      "hit": false,
      "t": 15660.698625000006,
      "d": 178.57125000000087,
      "v": 95
    },
    {
      "midi": 36,
      "hit": false,
      "t": 15660.698625000008,
      "d": 178.57125000000087,
      "v": 95
    },
    {
      "midi": 45,
      "hit": false,
      "t": 15874.984124999999,
      "d": 410.71387499999946,
      "v": 109
    },
    {
      "midi": 45,
      "hit": false,
      "t": 15874.984125000008,
      "d": 71.42849999999999,
      "v": 80
    },
    {
      "midi": 33,
      "hit": false,
      "t": 15874.98412500001,
      "d": 71.42849999999999,
      "v": 80
    },
    {
      "midi": 45,
      "hit": false,
      "t": 16089.269625000008,
      "d": 71.42849999999999,
      "v": 80
    },
    {
      "midi": 33,
      "hit": false,
      "t": 16089.26962500001,
      "d": 71.42849999999999,
      "v": 80
    },
    {
      "midi": 48,
      "hit": false,
      "t": 16303.555124999999,
      "d": 378.57104999999865,
      "v": 119
    },
    {
      "midi": 60,
      "hit": false,
      "t": 16303.555125,
      "d": 64.2856499999998,
      "v": 87
    },
    {
      "midi": 66,
      "hit": false,
      "t": 16303.555125,
      "d": 64.2856499999998,
      "v": 121
    },
    {
      "midi": 48,
      "hit": false,
      "t": 16303.555125000008,
      "d": 178.57124999999905,
      "v": 95
    },
    {
      "midi": 36,
      "hit": false,
      "t": 16303.55512500001,
      "d": 178.57125000000087,
      "v": 95
    },
    {
      "midi": 45,
      "hit": false,
      "t": 16517.840625000008,
      "d": 71.4285000000018,
      "v": 80
    },
    {
      "midi": 33,
      "hit": false,
      "t": 16517.84062500001,
      "d": 71.4285000000018,
      "v": 80
    },
    {
      "midi": 45,
      "hit": false,
      "t": 16732.126125,
      "d": 421.42814999999973,
      "v": 121
    },
    {
      "midi": 63,
      "hit": false,
      "t": 16732.126125,
      "d": 53.571374999999534,
      "v": 113
    },
    {
      "midi": 57,
      "hit": false,
      "t": 16732.126125,
      "d": 74.99992500000008,
      "v": 92
    },
    {
      "midi": 45,
      "hit": false,
      "t": 16732.12612500001,
      "d": 71.4285000000018,
      "v": 80
    },
    {
      "midi": 33,
      "hit": false,
      "t": 16732.126125000013,
      "d": 71.4285000000018,
      "v": 80
    },
    {
      "midi": 45,
      "hit": false,
      "t": 16946.41162500001,
      "d": 71.4285000000018,
      "v": 80
    },
    {
      "midi": 33,
      "hit": false,
      "t": 16946.411625000015,
      "d": 71.4285000000018,
      "v": 80
    },
    {
      "midi": 48,
      "hit": false,
      "t": 17160.697125,
      "d": 617.8565249999992,
      "v": 121
    },
    {
      "midi": 63,
      "hit": false,
      "t": 17160.697125,
      "d": 67.8570749999999,
      "v": 111
    },
    {
      "midi": 57,
      "hit": false,
      "t": 17160.697125,
      "d": 82.14277500000026,
      "v": 95
    },
    {
      "midi": 45,
      "hit": false,
      "t": 17160.697125000013,
      "d": 71.4285000000018,
      "v": 80
    },
    {
      "midi": 33,
      "hit": false,
      "t": 17160.697125000017,
      "d": 71.4285000000018,
      "v": 80
    },
    {
      "midi": 63,
      "hit": false,
      "t": 17374.982625,
      "d": 64.28565000000162,
      "v": 101
    },
    {
      "midi": 45,
      "hit": false,
      "t": 17374.982625000015,
      "d": 71.4285000000018,
      "v": 80
    },
    {
      "midi": 33,
      "hit": false,
      "t": 17374.98262500002,
      "d": 71.4285000000018,
      "v": 80
    },
    {
      "midi": 63,
      "hit": false,
      "t": 17589.268125000002,
      "d": 57.14280000000144,
      "v": 105
    },
    {
      "midi": 45,
      "hit": false,
      "t": 17589.268125000017,
      "d": 71.4285000000018,
      "v": 80
    },
    {
      "midi": 33,
      "hit": false,
      "t": 17589.26812500002,
      "d": 71.4285000000018,
      "v": 80
    },
    {
      "midi": 45,
      "hit": false,
      "t": 17803.553624999997,
      "d": 614.285100000001,
      "v": 117
    },
    {
      "midi": 66,
      "hit": false,
      "t": 17803.553625,
      "d": 53.571374999999534,
      "v": 117
    },
    {
      "midi": 60,
      "hit": false,
      "t": 17803.553625,
      "d": 82.14277500000026,
      "v": 101
    },
    {
      "midi": 46,
      "hit": false,
      "t": 17803.553625000004,
      "d": 753.570674999999,
      "v": 127
    },
    {
      "midi": 63,
      "hit": false,
      "t": 17803.553625000004,
      "d": 57.14280000000144,
      "v": 111
    },
    {
      "midi": 48,
      "hit": false,
      "t": 17803.55362500002,
      "d": 178.57125000000087,
      "v": 95
    },
    {
      "midi": 36,
      "hit": false,
      "t": 17803.553625000022,
      "d": 178.57125000000087,
      "v": 95
    },
    {
      "midi": 63,
      "hit": false,
      "t": 18017.839125000006,
      "d": 196.4283749999995,
      "v": 111
    },
    {
      "midi": 45,
      "hit": false,
      "t": 18017.83912500002,
      "d": 71.4285000000018,
      "v": 80
    },
    {
      "midi": 33,
      "hit": false,
      "t": 18017.839125000024,
      "d": 71.4285000000018,
      "v": 80
    },
    {
      "midi": 62,
      "hit": false,
      "t": 18232.124625000004,
      "d": 114.28559999999925,
      "v": 99
    },
    {
      "midi": 45,
      "hit": false,
      "t": 18232.124625000022,
      "d": 71.4285000000018,
      "v": 80
    },
    {
      "midi": 33,
      "hit": false,
      "t": 18232.124625000026,
      "d": 71.4285000000018,
      "v": 80
    },
    {
      "midi": 48,
      "hit": false,
      "t": 18446.410125,
      "d": 460.7138249999989,
      "v": 119
    },
    {
      "midi": 63,
      "hit": false,
      "t": 18446.410125000002,
      "d": 74.99992500000008,
      "v": 109
    },
    {
      "midi": 57,
      "hit": false,
      "t": 18446.410125000002,
      "d": 89.28562500000044,
      "v": 93
    },
    {
      "midi": 45,
      "hit": false,
      "t": 18446.410125000024,
      "d": 71.4285000000018,
      "v": 80
    },
    {
      "midi": 33,
      "hit": false,
      "t": 18446.410125000028,
      "d": 71.4285000000018,
      "v": 80
    },
    {
      "midi": 45,
      "hit": false,
      "t": 18660.695625000026,
      "d": 71.4285000000018,
      "v": 80
    },
    {
      "midi": 33,
      "hit": false,
      "t": 18660.69562500003,
      "d": 71.4285000000018,
      "v": 80
    },
    {
      "midi": 45,
      "hit": false,
      "t": 18874.981125000028,
      "d": 71.4285000000018,
      "v": 80
    },
    {
      "midi": 33,
      "hit": false,
      "t": 18874.98112500003,
      "d": 71.4285000000018,
      "v": 80
    },
    {
      "midi": 48,
      "hit": false,
      "t": 19089.266624999997,
      "d": 153.57127499999842,
      "v": 111
    },
    {
      "midi": 66,
      "hit": false,
      "t": 19089.266625000004,
      "d": 53.571374999999534,
      "v": 119
    },
    {
      "midi": 60,
      "hit": false,
      "t": 19089.266625000004,
      "d": 71.42849999999817,
      "v": 95
    },
    {
      "midi": 48,
      "hit": false,
      "t": 19089.26662500003,
      "d": 178.57125000000087,
      "v": 95
    },
    {
      "midi": 36,
      "hit": false,
      "t": 19089.266625000033,
      "d": 178.57125000000087,
      "v": 95
    },
    {
      "midi": 45,
      "hit": false,
      "t": 19303.552124999995,
      "d": 382.14247500000056,
      "v": 121
    },
    {
      "midi": 45,
      "hit": false,
      "t": 19303.55212500003,
      "d": 71.4285000000018,
      "v": 80
    },
    {
      "midi": 33,
      "hit": false,
      "t": 19303.552125000035,
      "d": 71.4285000000018,
      "v": 80
    },
    {
      "midi": 45,
      "hit": false,
      "t": 19517.837625000033,
      "d": 71.4285000000018,
      "v": 80
    },
    {
      "midi": 33,
      "hit": false,
      "t": 19517.837625000036,
      "d": 71.4285000000018,
      "v": 80
    },
    {
      "midi": 48,
      "hit": false,
      "t": 19732.123124999995,
      "d": 392.856749999999,
      "v": 119
    },
    {
      "midi": 66,
      "hit": false,
      "t": 19732.123125000002,
      "d": 71.4285000000018,
      "v": 117
    },
    {
      "midi": 60,
      "hit": false,
      "t": 19732.123125000002,
      "d": 82.14277500000026,
      "v": 93
    },
    {
      "midi": 48,
      "hit": false,
      "t": 19732.123125000035,
      "d": 178.57125000000087,
      "v": 95
    },
    {
      "midi": 36,
      "hit": false,
      "t": 19732.12312500004,
      "d": 178.57125000000087,
      "v": 95
    },
    {
      "midi": 45,
      "hit": false,
      "t": 19946.408625000036,
      "d": 71.4285000000018,
      "v": 80
    },
    {
      "midi": 33,
      "hit": false,
      "t": 19946.40862500004,
      "d": 71.4285000000018,
      "v": 80
    },
    {
      "midi": 45,
      "hit": false,
      "t": 20160.694124999995,
      "d": 332.1425249999993,
      "v": 121
    },
    {
      "midi": 63,
      "hit": false,
      "t": 20160.694125,
      "d": 67.8570749999999,
      "v": 111
    },
    {
      "midi": 57,
      "hit": false,
      "t": 20160.694125,
      "d": 82.14277500000026,
      "v": 87
    },
    {
      "midi": 45,
      "hit": false,
      "t": 20160.69412500004,
      "d": 71.4285000000018,
      "v": 80
    },
    {
      "midi": 33,
      "hit": false,
      "t": 20160.694125000042,
      "d": 71.4285000000018,
      "v": 80
    },
    {
      "midi": 45,
      "hit": false,
      "t": 20374.97962500004,
      "d": 71.4285000000018,
      "v": 80
    },
    {
      "midi": 33,
      "hit": false,
      "t": 20374.979625000044,
      "d": 71.4285000000018,
      "v": 80
    },
    {
      "midi": 49,
      "hit": false,
      "t": 20589.265124999994,
      "d": 585.7137000000002,
      "v": 127
    },
    {
      "midi": 65,
      "hit": false,
      "t": 20589.265125,
      "d": 71.4285000000018,
      "v": 101
    },
    {
      "midi": 58,
      "hit": false,
      "t": 20589.265125,
      "d": 78.57135000000198,
      "v": 93
    },
    {
      "midi": 46,
      "hit": false,
      "t": 20589.26512500004,
      "d": 71.4285000000018,
      "v": 80
    },
    {
      "midi": 34,
      "hit": false,
      "t": 20589.265125000045,
      "d": 71.4285000000018,
      "v": 80
    },
    {
      "midi": 64,
      "hit": false,
      "t": 20803.550625000003,
      "d": 46.428524999999354,
      "v": 90
    },
    {
      "midi": 46,
      "hit": false,
      "t": 20803.550625000044,
      "d": 71.4285000000018,
      "v": 80
    },
    {
      "midi": 34,
      "hit": false,
      "t": 20803.550625000047,
      "d": 71.4285000000018,
      "v": 80
    },
    {
      "midi": 64,
      "hit": false,
      "t": 21017.836125,
      "d": 46.428524999999354,
      "v": 97
    },
    {
      "midi": 46,
      "hit": false,
      "t": 21017.836125000045,
      "d": 71.4285000000018,
      "v": 80
    },
    {
      "midi": 34,
      "hit": false,
      "t": 21017.83612500005,
      "d": 71.4285000000018,
      "v": 80
    },
    {
      "midi": 46,
      "hit": false,
      "t": 21232.121624999996,
      "d": 574.9994250000018,
      "v": 125
    },
    {
      "midi": 64,
      "hit": false,
      "t": 21232.121625,
      "d": 53.571374999999534,
      "v": 95
    },
    {
      "midi": 46,
      "hit": false,
      "t": 21232.121625000003,
      "d": 839.2848750000012,
      "v": 127
    },
    {
      "midi": 61,
      "hit": false,
      "t": 21232.121625000003,
      "d": 71.4285000000018,
      "v": 97
    },
    {
      "midi": 68,
      "hit": false,
      "t": 21232.121625000003,
      "d": 78.57135000000198,
      "v": 115
    },
    {
      "midi": 49,
      "hit": false,
      "t": 21232.121625000047,
      "d": 178.57125000000087,
      "v": 95
    },
    {
      "midi": 37,
      "hit": false,
      "t": 21232.12162500005,
      "d": 178.57125000000087,
      "v": 95
    },
    {
      "midi": 64,
      "hit": false,
      "t": 21446.407124999998,
      "d": 210.71407499999987,
      "v": 113
    },
    {
      "midi": 46,
      "hit": false,
      "t": 21446.40712500005,
      "d": 71.4285000000018,
      "v": 80
    },
    {
      "midi": 34,
      "hit": false,
      "t": 21446.407125000052,
      "d": 71.4285000000018,
      "v": 80
    },
    {
      "midi": 63,
      "hit": false,
      "t": 21660.692624999996,
      "d": 142.85699999999997,
      "v": 109
    },
    {
      "midi": 46,
      "hit": false,
      "t": 21660.69262500005,
      "d": 71.4285000000018,
      "v": 80
    },
    {
      "midi": 34,
      "hit": false,
      "t": 21660.692625000054,
      "d": 71.4285000000018,
      "v": 80
    },
    {
      "midi": 49,
      "hit": false,
      "t": 21874.978124999998,
      "d": 482.14237499999945,
      "v": 127
    },
    {
      "midi": 58,
      "hit": false,
      "t": 21874.978125000005,
      "d": 64.28565000000162,
      "v": 109
    },
    {
      "midi": 65,
      "hit": false,
      "t": 21874.978125000005,
      "d": 74.99992500000008,
      "v": 107
    },
    {
      "midi": 46,
      "hit": false,
      "t": 21874.978125000052,
      "d": 71.4285000000018,
      "v": 80
    },
    {
      "midi": 34,
      "hit": false,
      "t": 21874.978125000056,
      "d": 71.4285000000018,
      "v": 80
    },
    {
      "midi": 46,
      "hit": false,
      "t": 22089.263625000054,
      "d": 71.4285000000018,
      "v": 80
    },
    {
      "midi": 34,
      "hit": false,
      "t": 22089.263625000058,
      "d": 71.4285000000018,
      "v": 80
    },
    {
      "midi": 46,
      "hit": false,
      "t": 22303.549125000056,
      "d": 71.4285000000018,
      "v": 80
    },
    {
      "midi": 34,
      "hit": false,
      "t": 22303.54912500006,
      "d": 71.4285000000018,
      "v": 80
    },
    {
      "midi": 49,
      "hit": false,
      "t": 22517.834624999996,
      "d": 121.42844999999943,
      "v": 126
    },
    {
      "midi": 68,
      "hit": false,
      "t": 22517.834625000007,
      "d": 53.571374999999534,
      "v": 113
    },
    {
      "midi": 61,
      "hit": false,
      "t": 22517.834625000007,
      "d": 67.8570749999999,
      "v": 107
    },
    {
      "midi": 49,
      "hit": false,
      "t": 22517.834625000058,
      "d": 178.57125000000087,
      "v": 95
    },
    {
      "midi": 37,
      "hit": false,
      "t": 22517.83462500006,
      "d": 178.57125000000087,
      "v": 95
    },
    {
      "midi": 46,
      "hit": false,
      "t": 22732.120124999994,
      "d": 353.57107499999984,
      "v": 127
    },
    {
      "midi": 46,
      "hit": false,
      "t": 22732.12012500006,
      "d": 71.4285000000018,
      "v": 80
    },
    {
      "midi": 34,
      "hit": false,
      "t": 22732.120125000063,
      "d": 71.4285000000018,
      "v": 80
    },
    {
      "midi": 46,
      "hit": false,
      "t": 22946.40562500006,
      "d": 71.4285000000018,
      "v": 80
    },
    {
      "midi": 34,
      "hit": false,
      "t": 22946.405625000065,
      "d": 71.4285000000018,
      "v": 80
    },
    {
      "midi": 49,
      "hit": false,
      "t": 23160.691124999994,
      "d": 432.1424249999982,
      "v": 127
    },
    {
      "midi": 61,
      "hit": false,
      "t": 23160.69112500001,
      "d": 60.714224999999715,
      "v": 107
    },
    {
      "midi": 68,
      "hit": false,
      "t": 23160.69112500001,
      "d": 60.714224999999715,
      "v": 119
    },
    {
      "midi": 49,
      "hit": false,
      "t": 23160.691125000063,
      "d": 178.57125000000087,
      "v": 95
    },
    {
      "midi": 37,
      "hit": false,
      "t": 23160.691125000067,
      "d": 178.57125000000087,
      "v": 95
    },
    {
      "midi": 46,
      "hit": false,
      "t": 23374.976625000065,
      "d": 71.4285000000018,
      "v": 80
    },
    {
      "midi": 34,
      "hit": false,
      "t": 23374.97662500007,
      "d": 71.4285000000018,
      "v": 80
    },
    {
      "midi": 46,
      "hit": false,
      "t": 23589.262124999994,
      "d": 396.4281749999973,
      "v": 127
    },
    {
      "midi": 65,
      "hit": false,
      "t": 23589.26212500001,
      "d": 60.714224999999715,
      "v": 89
    },
    {
      "midi": 58,
      "hit": false,
      "t": 23589.26212500001,
      "d": 64.28564999999799,
      "v": 97
    },
    {
      "midi": 46,
      "hit": false,
      "t": 23589.262125000067,
      "d": 71.4285000000018,
      "v": 80
    },
    {
      "midi": 34,
      "hit": false,
      "t": 23589.26212500007,
      "d": 71.4285000000018,
      "v": 80
    },
    {
      "midi": 46,
      "hit": false,
      "t": 23803.54762500007,
      "d": 71.4285000000018,
      "v": 80
    },
    {
      "midi": 34,
      "hit": false,
      "t": 23803.547625000072,
      "d": 71.4285000000018,
      "v": 80
    },
    {
      "midi": 49,
      "hit": false,
      "t": 24017.83312499999,
      "d": 660.7136250000003,
      "v": 127
    },
    {
      "midi": 65,
      "hit": false,
      "t": 24017.833125000005,
      "d": 53.571374999999534,
      "v": 111
    },
    {
      "midi": 58,
      "hit": false,
      "t": 24017.833125000005,
      "d": 74.99992500000008,
      "v": 115
    },
    {
      "midi": 46,
      "hit": false,
      "t": 24017.83312500007,
      "d": 71.4285000000018,
      "v": 80
    },
    {
      "midi": 34,
      "hit": false,
      "t": 24017.833125000074,
      "d": 71.4285000000018,
      "v": 80
    },
    {
      "midi": 64,
      "hit": false,
      "t": 24232.118624999996,
      "d": 57.14280000000144,
      "v": 93
    },
    {
      "midi": 46,
      "hit": false,
      "t": 24232.118625000072,
      "d": 71.4285000000018,
      "v": 80
    },
    {
      "midi": 34,
      "hit": false,
      "t": 24232.118625000076,
      "d": 71.4285000000018,
      "v": 80
    },
    {
      "midi": 64,
      "hit": false,
      "t": 24446.404124999997,
      "d": 53.571374999999534,
      "v": 95
    },
    {
      "midi": 46,
      "hit": false,
      "t": 24446.404125000074,
      "d": 71.4285000000018,
      "v": 80
    },
    {
      "midi": 34,
      "hit": false,
      "t": 24446.404125000077,
      "d": 71.4285000000018,
      "v": 80
    },
    {
      "midi": 46,
      "hit": false,
      "t": 24660.68962499999,
      "d": 610.7136749999991,
      "v": 127
    },
    {
      "midi": 64,
      "hit": false,
      "t": 24660.689624999995,
      "d": 53.571374999999534,
      "v": 101
    },
    {
      "midi": 49,
      "hit": false,
      "t": 24660.689625000006,
      "d": 3.5714249999982712,
      "v": 101
    },
    {
      "midi": 46,
      "hit": false,
      "t": 24660.689625000006,
      "d": 832.1420249999974,
      "v": 127
    },
    {
      "midi": 68,
      "hit": false,
      "t": 24660.689625000006,
      "d": 53.571374999999534,
      "v": 123
    },
    {
      "midi": 61,
      "hit": false,
      "t": 24660.689625000006,
      "d": 67.8570749999999,
      "v": 115
    },
    {
      "midi": 49,
      "hit": false,
      "t": 24660.689625000075,
      "d": 178.57125000000087,
      "v": 95
    },
    {
      "midi": 37,
      "hit": false,
      "t": 24660.68962500008,
      "d": 178.57125000000087,
      "v": 95
    },
    {
      "midi": 64,
      "hit": false,
      "t": 24874.975124999994,
      "d": 171.4284000000007,
      "v": 109
    },
    {
      "midi": 46,
      "hit": false,
      "t": 24874.975125000077,
      "d": 71.4285000000018,
      "v": 80
    },
    {
      "midi": 34,
      "hit": false,
      "t": 24874.97512500008,
      "d": 71.4285000000018,
      "v": 80
    },
    {
      "midi": 63,
      "hit": false,
      "t": 25089.260624999995,
      "d": 114.28559999999925,
      "v": 117
    },
    {
      "midi": 46,
      "hit": false,
      "t": 25089.26062500008,
      "d": 71.4285000000018,
      "v": 80
    },
    {
      "midi": 34,
      "hit": false,
      "t": 25089.260625000083,
      "d": 71.4285000000018,
      "v": 80
    },
    {
      "midi": 49,
      "hit": false,
      "t": 25303.54612499999,
      "d": 507.14234999999826,
      "v": 126
    },
    {
      "midi": 65,
      "hit": false,
      "t": 25303.546125000008,
      "d": 74.99992500000008,
      "v": 103
    },
    {
      "midi": 58,
      "hit": false,
      "t": 25303.546125000008,
      "d": 74.99992500000008,
      "v": 99
    },
    {
      "midi": 46,
      "hit": false,
      "t": 25303.54612500008,
      "d": 71.4285000000018,
      "v": 80
    },
    {
      "midi": 34,
      "hit": false,
      "t": 25303.546125000084,
      "d": 71.4285000000018,
      "v": 80
    },
    {
      "midi": 46,
      "hit": false,
      "t": 25517.831625000083,
      "d": 71.4285000000018,
      "v": 80
    },
    {
      "midi": 34,
      "hit": false,
      "t": 25517.831625000086,
      "d": 71.4285000000018,
      "v": 80
    },
    {
      "midi": 46,
      "hit": false,
      "t": 25732.117125000084,
      "d": 71.4285000000018,
      "v": 80
    },
    {
      "midi": 34,
      "hit": false,
      "t": 25732.117125000088,
      "d": 71.4285000000018,
      "v": 80
    },
    {
      "midi": 49,
      "hit": false,
      "t": 25946.402624999988,
      "d": 149.99985000000015,
      "v": 123
    },
    {
      "midi": 64,
      "hit": false,
      "t": 25946.402624999995,
      "d": 114.28559999999925,
      "v": 111
    },
    {
      "midi": 68,
      "hit": false,
      "t": 25946.40262500001,
      "d": 42.85710000000108,
      "v": 105
    },
    {
      "midi": 61,
      "hit": false,
      "t": 25946.40262500001,
      "d": 64.28565000000162,
      "v": 105
    },
    {
      "midi": 49,
      "hit": false,
      "t": 25946.402625000086,
      "d": 178.57125000000087,
      "v": 95
    },
    {
      "midi": 37,
      "hit": false,
      "t": 25946.40262500009,
      "d": 178.57125000000087,
      "v": 95
    },
    {
      "midi": 46,
      "hit": false,
      "t": 26160.68812499999,
      "d": 353.57107499999984,
      "v": 127
    },
    {
      "midi": 63,
      "hit": false,
      "t": 26160.688124999993,
      "d": 71.4285000000018,
      "v": 117
    },
    {
      "midi": 46,
      "hit": false,
      "t": 26160.688125000088,
      "d": 71.4285000000018,
      "v": 80
    },
    {
      "midi": 34,
      "hit": false,
      "t": 26160.68812500009,
      "d": 71.4285000000018,
      "v": 80
    },
    {
      "midi": 62,
      "hit": false,
      "t": 26374.973624999995,
      "d": 78.57134999999835,
      "v": 92
    },
    {
      "midi": 46,
      "hit": false,
      "t": 26374.97362500009,
      "d": 71.4285000000018,
      "v": 80
    },
    {
      "midi": 34,
      "hit": false,
      "t": 26374.973625000093,
      "d": 71.4285000000018,
      "v": 80
    },
    {
      "midi": 49,
      "hit": false,
      "t": 26589.25912499999,
      "d": 321.42825000000084,
      "v": 127
    },
    {
      "midi": 61,
      "hit": false,
      "t": 26589.259124999993,
      "d": 96.42847500000062,
      "v": 117
    },
    {
      "midi": 61,
      "hit": false,
      "t": 26589.25912500001,
      "d": 78.57134999999835,
      "v": 105
    },
    {
      "midi": 68,
      "hit": false,
      "t": 26589.25912500001,
      "d": 82.14277499999662,
      "v": 117
    },
    {
      "midi": 49,
      "hit": false,
      "t": 26589.25912500009,
      "d": 178.57125000000087,
      "v": 95
    },
    {
      "midi": 37,
      "hit": false,
      "t": 26589.259125000095,
      "d": 178.57125000000087,
      "v": 95
    },
    {
      "midi": 60,
      "hit": false,
      "t": 26803.544624999995,
      "d": 117.85702500000116,
      "v": 93
    },
    {
      "midi": 46,
      "hit": false,
      "t": 26803.544625000093,
      "d": 71.4285000000018,
      "v": 80
    },
    {
      "midi": 34,
      "hit": false,
      "t": 26803.544625000097,
      "d": 71.4285000000018,
      "v": 80
    },
    {
      "midi": 46,
      "hit": false,
      "t": 27017.83012499999,
      "d": 235.71404999999868,
      "v": 127
    },
    {
      "midi": 59,
      "hit": false,
      "t": 27017.830124999997,
      "d": 117.85702500000116,
      "v": 92
    },
    {
      "midi": 65,
      "hit": false,
      "t": 27017.830125000008,
      "d": 67.8570749999999,
      "v": 103
    },
    {
      "midi": 58,
      "hit": false,
      "t": 27017.830125000008,
      "d": 78.57134999999835,
      "v": 95
    },
    {
      "midi": 46,
      "hit": false,
      "t": 27017.830125000095,
      "d": 71.4285000000018,
      "v": 80
    },
    {
      "midi": 34,
      "hit": false,
      "t": 27017.8301250001,
      "d": 71.4285000000018,
      "v": 80
    },
    {
      "midi": 58,
      "hit": false,
      "t": 27232.115625,
      "d": 74.99992500000008,
      "v": 115
    },
    {
      "midi": 46,
      "hit": false,
      "t": 27232.115625000097,
      "d": 71.4285000000018,
      "v": 80
    },
    {
      "midi": 34,
      "hit": false,
      "t": 27232.1156250001,
      "d": 71.4285000000018,
      "v": 80
    },
    {
      "midi": 47,
      "hit": false,
      "t": 27446.40112499999,
      "d": 510.71377500000017,
      "v": 126
    },
    {
      "midi": 71,
      "hit": false,
      "t": 27446.401125000008,
      "d": 117.85702500000116,
      "v": 113
    },
    {
      "midi": 83,
      "hit": false,
      "t": 27446.401125000008,
      "d": 132.14272500000152,
      "v": 113
    },
    {
      "midi": 47,
      "hit": false,
      "t": 27446.4011250001,
      "d": 178.57125000000087,
      "v": 63
    },
    {
      "midi": 35,
      "hit": false,
      "t": 27446.401125000102,
      "d": 178.57125000000087,
      "v": 63
    },
    {
      "midi": 44,
      "hit": false,
      "t": 27660.6866250001,
      "d": 53.571374999999534,
      "v": 77
    },
    {
      "midi": 32,
      "hit": false,
      "t": 27660.686625000104,
      "d": 53.571374999999534,
      "v": 77
    },
    {
      "midi": 44,
      "hit": false,
      "t": 27874.9721250001,
      "d": 64.28565000000162,
      "v": 71
    },
    {
      "midi": 32,
      "hit": false,
      "t": 27874.972125000102,
      "d": 64.28565000000162,
      "v": 71
    },
    {
      "midi": 44,
      "hit": false,
      "t": 28089.25762499999,
      "d": 492.85665000000154,
      "v": 127
    },
    {
      "midi": 70,
      "hit": false,
      "t": 28089.25762500001,
      "d": 99.99989999999889,
      "v": 125
    },
    {
      "midi": 82,
      "hit": false,
      "t": 28089.25762500001,
      "d": 107.14274999999907,
      "v": 126
    },
    {
      "midi": 46,
      "hit": false,
      "t": 28089.2576250001,
      "d": 185.71410000000105,
      "v": 76
    },
    {
      "midi": 34,
      "hit": false,
      "t": 28089.257625000104,
      "d": 185.71410000000105,
      "v": 76
    },
    {
      "midi": 43,
      "hit": false,
      "t": 28303.543125000102,
      "d": 49.99995000000126,
      "v": 85
    },
    {
      "midi": 31,
      "hit": false,
      "t": 28303.543125000106,
      "d": 49.99995000000126,
      "v": 85
    },
    {
      "midi": 43,
      "hit": false,
      "t": 28517.828625000104,
      "d": 67.8570749999999,
      "v": 77
    },
    {
      "midi": 31,
      "hit": false,
      "t": 28517.828625000107,
      "d": 67.8570749999999,
      "v": 77
    },
    {
      "midi": 46,
      "hit": false,
      "t": 28732.114124999993,
      "d": 74.99992500000008,
      "v": 127
    },
    {
      "midi": 69,
      "hit": false,
      "t": 28732.114125000007,
      "d": 92.85704999999871,
      "v": 113
    },
    {
      "midi": 81,
      "hit": false,
      "t": 28732.114125000007,
      "d": 99.99989999999889,
      "v": 113
    },
    {
      "midi": 45,
      "hit": false,
      "t": 28732.114125000102,
      "d": 185.71410000000105,
      "v": 75
    },
    {
      "midi": 33,
      "hit": false,
      "t": 28732.114125000106,
      "d": 185.71410000000105,
      "v": 75
    },
    {
      "midi": 45,
      "hit": false,
      "t": 28946.399624999995,
      "d": 428.5709999999999,
      "v": 123
    },
    {
      "midi": 68,
      "hit": false,
      "t": 28946.399625000005,
      "d": 78.57134999999835,
      "v": 121
    },
    {
      "midi": 80,
      "hit": false,
      "t": 28946.399625000005,
      "d": 89.2856249999968,
      "v": 127
    },
    {
      "midi": 42,
      "hit": false,
      "t": 28946.399625000104,
      "d": 103.5713250000008,
      "v": 85
    },
    {
      "midi": 30,
      "hit": false,
      "t": 28946.399625000107,
      "d": 103.5713250000008,
      "v": 85
    },
    {
      "midi": 47,
      "hit": false,
      "t": 29160.685125000105,
      "d": 178.57125000000087,
      "v": 63
    },
    {
      "midi": 35,
      "hit": false,
      "t": 29160.68512500011,
      "d": 178.57125000000087,
      "v": 63
    },
    {
      "midi": 44,
      "hit": false,
      "t": 29374.970625000107,
      "d": 53.571374999999534,
      "v": 77
    },
    {
      "midi": 32,
      "hit": false,
      "t": 29374.97062500011,
      "d": 53.571374999999534,
      "v": 77
    },
    {
      "midi": 47,
      "hit": false,
      "t": 29589.256124999996,
      "d": 92.85704999999871,
      "v": 127
    },
    {
      "midi": 83,
      "hit": false,
      "t": 29589.256125000004,
      "d": 110.71417500000098,
      "v": 113
    },
    {
      "midi": 71,
      "hit": false,
      "t": 29589.256125000004,
      "d": 114.28559999999925,
      "v": 115
    },
    {
      "midi": 44,
      "hit": false,
      "t": 29589.256125000105,
      "d": 64.28565000000162,
      "v": 71
    },
    {
      "midi": 32,
      "hit": false,
      "t": 29589.25612500011,
      "d": 64.28565000000162,
      "v": 71
    },
    {
      "midi": 46,
      "hit": false,
      "t": 29803.541625000107,
      "d": 185.71410000000105,
      "v": 76
    },
    {
      "midi": 34,
      "hit": false,
      "t": 29803.54162500011,
      "d": 185.71410000000105,
      "v": 76
    },
    {
      "midi": 46,
      "hit": false,
      "t": 30017.827124999996,
      "d": 64.28565000000162,
      "v": 127
    },
    {
      "midi": 70,
      "hit": false,
      "t": 30017.827125000003,
      "d": 74.99992500000008,
      "v": 117
    },
    {
      "midi": 82,
      "hit": false,
      "t": 30017.827125000003,
      "d": 78.57134999999835,
      "v": 126
    },
    {
      "midi": 43,
      "hit": false,
      "t": 30017.82712500011,
      "d": 49.99995000000126,
      "v": 85
    },
    {
      "midi": 31,
      "hit": false,
      "t": 30017.827125000113,
      "d": 49.99995000000126,
      "v": 85
    },
    {
      "midi": 45,
      "hit": false,
      "t": 30232.112624999998,
      "d": 99.99989999999889,
      "v": 119
    },
    {
      "midi": 69,
      "hit": false,
      "t": 30232.112625,
      "d": 103.5713250000008,
      "v": 89
    },
    {
      "midi": 81,
      "hit": false,
      "t": 30232.112625,
      "d": 103.5713250000008,
      "v": 97
    },
    {
      "midi": 43,
      "hit": false,
      "t": 30232.11262500011,
      "d": 67.8570749999999,
      "v": 77
    },
    {
      "midi": 31,
      "hit": false,
      "t": 30232.112625000114,
      "d": 67.8570749999999,
      "v": 77
    },
    {
      "midi": 44,
      "hit": false,
      "t": 30446.398124999996,
      "d": 60.714224999999715,
      "v": 127
    },
    {
      "midi": 80,
      "hit": false,
      "t": 30446.398125000003,
      "d": 85.71419999999853,
      "v": 125
    },
    {
      "midi": 68,
      "hit": false,
      "t": 30446.398125000003,
      "d": 89.2856249999968,
      "v": 109
    },
    {
      "midi": 45,
      "hit": false,
      "t": 30446.39812500011,
      "d": 185.71410000000105,
      "v": 75
    },
    {
      "midi": 33,
      "hit": false,
      "t": 30446.398125000112,
      "d": 185.71410000000105,
      "v": 75
    },
    {
      "midi": 43,
      "hit": false,
      "t": 30660.683624999994,
      "d": 89.28562500000044,
      "v": 127
    },
    {
      "midi": 67,
      "hit": false,
      "t": 30660.683625,
      "d": 96.42847500000062,
      "v": 113
    },
    {
      "midi": 79,
      "hit": false,
      "t": 30660.683625,
      "d": 99.99989999999889,
      "v": 115
    },
    {
      "midi": 42,
      "hit": false,
      "t": 30660.68362500011,
      "d": 103.5713250000008,
      "v": 85
    },
    {
      "midi": 30,
      "hit": false,
      "t": 30660.683625000114,
      "d": 103.5713250000008,
      "v": 85
    },
    {
      "midi": 45,
      "hit": false,
      "t": 31085.683199999996,
      "d": 428.57100000000355,
      "v": 123
    },
    {
      "midi": 68,
      "hit": false,
      "t": 31085.6832,
      "d": 78.57134999999835,
      "v": 121
    },
    {
      "midi": 80,
      "hit": false,
      "t": 31085.6832,
      "d": 89.2856249999968,
      "v": 127
    },
    {
      "midi": 42,
      "hit": false,
      "t": 31085.683200000112,
      "d": 103.5713250000008,
      "v": 85
    },
    {
      "midi": 30,
      "hit": false,
      "t": 31085.683200000116,
      "d": 103.5713250000008,
      "v": 85
    },
    {
      "midi": 46,
      "hit": false,
      "t": 31299.968699999998,
      "d": 74.99992500000008,
      "v": 127
    },
    {
      "midi": 69,
      "hit": false,
      "t": 31299.968699999998,
      "d": 92.85704999999871,
      "v": 113
    },
    {
      "midi": 81,
      "hit": false,
      "t": 31299.968699999998,
      "d": 99.99989999999889,
      "v": 113
    },
    {
      "midi": 45,
      "hit": false,
      "t": 31299.968700000114,
      "d": 185.71410000000105,
      "v": 75
    },
    {
      "midi": 33,
      "hit": false,
      "t": 31299.968700000118,
      "d": 185.71410000000105,
      "v": 75
    },
    {
      "midi": 43,
      "hit": false,
      "t": 31514.254200000116,
      "d": 67.8570749999999,
      "v": 77
    },
    {
      "midi": 31,
      "hit": false,
      "t": 31514.25420000012,
      "d": 67.8570749999999,
      "v": 77
    },
    {
      "midi": 43,
      "hit": false,
      "t": 31728.539700000114,
      "d": 49.99995000000126,
      "v": 85
    },
    {
      "midi": 31,
      "hit": false,
      "t": 31728.539700000118,
      "d": 49.99995000000126,
      "v": 85
    },
    {
      "midi": 70,
      "hit": false,
      "t": 31942.825199999996,
      "d": 99.99989999999889,
      "v": 125
    },
    {
      "midi": 82,
      "hit": false,
      "t": 31942.825199999996,
      "d": 107.14274999999907,
      "v": 126
    },
    {
      "midi": 44,
      "hit": false,
      "t": 31942.8252,
      "d": 492.85665000000154,
      "v": 127
    },
    {
      "midi": 46,
      "hit": false,
      "t": 31942.825200000116,
      "d": 185.71410000000105,
      "v": 76
    },
    {
      "midi": 34,
      "hit": false,
      "t": 31942.82520000012,
      "d": 185.71410000000105,
      "v": 76
    },
    {
      "midi": 44,
      "hit": false,
      "t": 32157.110700000118,
      "d": 64.28565000000162,
      "v": 71
    },
    {
      "midi": 32,
      "hit": false,
      "t": 32157.11070000012,
      "d": 64.28565000000162,
      "v": 71
    },
    {
      "midi": 44,
      "hit": false,
      "t": 32371.39620000012,
      "d": 53.571374999999534,
      "v": 77
    },
    {
      "midi": 32,
      "hit": false,
      "t": 32371.396200000123,
      "d": 53.571374999999534,
      "v": 77
    },
    {
      "midi": 71,
      "hit": false,
      "t": 32585.681699999994,
      "d": 117.85702500000116,
      "v": 113
    },
    {
      "midi": 83,
      "hit": false,
      "t": 32585.681699999994,
      "d": 132.14272500000152,
      "v": 113
    },
    {
      "midi": 47,
      "hit": false,
      "t": 32589.253125000116,
      "d": 174.99982499999896,
      "v": 63
    },
    {
      "midi": 35,
      "hit": false,
      "t": 32589.25312500012,
      "d": 174.99982499999896,
      "v": 63
    },
    {
      "midi": 44,
      "hit": false,
      "t": 32803.53862500011,
      "d": 53.571374999999534,
      "v": 77
    },
    {
      "midi": 32,
      "hit": false,
      "t": 32803.53862500012,
      "d": 53.571374999999534,
      "v": 77
    },
    {
      "midi": 83,
      "hit": false,
      "t": 33017.82412499999,
      "d": 110.71417500000098,
      "v": 113
    },
    {
      "midi": 71,
      "hit": false,
      "t": 33017.82412499999,
      "d": 114.28560000000289,
      "v": 115
    },
    {
      "midi": 47,
      "hit": false,
      "t": 33017.824125,
      "d": 78.57134999999835,
      "v": 127
    },
    {
      "midi": 44,
      "hit": false,
      "t": 33017.82412500011,
      "d": 64.28564999999799,
      "v": 71
    },
    {
      "midi": 32,
      "hit": false,
      "t": 33017.824125000116,
      "d": 64.28564999999799,
      "v": 71
    },
    {
      "midi": 46,
      "hit": false,
      "t": 33232.10962500011,
      "d": 185.71409999999742,
      "v": 76
    },
    {
      "midi": 34,
      "hit": false,
      "t": 33232.109625000114,
      "d": 185.71409999999742,
      "v": 76
    },
    {
      "midi": 46,
      "hit": false,
      "t": 33446.395124999995,
      "d": 64.28564999999799,
      "v": 127
    },
    {
      "midi": 70,
      "hit": false,
      "t": 33446.395124999995,
      "d": 74.99992499999644,
      "v": 117
    },
    {
      "midi": 82,
      "hit": false,
      "t": 33446.395124999995,
      "d": 78.57134999999835,
      "v": 126
    },
    {
      "midi": 43,
      "hit": false,
      "t": 33446.395125000105,
      "d": 49.999949999997625,
      "v": 85
    },
    {
      "midi": 31,
      "hit": false,
      "t": 33446.39512500011,
      "d": 49.999949999997625,
      "v": 85
    },
    {
      "midi": 45,
      "hit": false,
      "t": 33660.68062499999,
      "d": 99.99990000000253,
      "v": 119
    },
    {
      "midi": 69,
      "hit": false,
      "t": 33660.68062499999,
      "d": 103.57132499999716,
      "v": 89
    },
    {
      "midi": 81,
      "hit": false,
      "t": 33660.68062499999,
      "d": 103.57132499999716,
      "v": 97
    },
    {
      "midi": 43,
      "hit": false,
      "t": 33660.6806250001,
      "d": 67.8570749999999,
      "v": 77
    },
    {
      "midi": 31,
      "hit": false,
      "t": 33660.68062500011,
      "d": 67.8570749999999,
      "v": 77
    },
    {
      "midi": 80,
      "hit": false,
      "t": 33874.96612499999,
      "d": 85.71420000000217,
      "v": 125
    },
    {
      "midi": 68,
      "hit": false,
      "t": 33874.96612499999,
      "d": 89.28562500000407,
      "v": 109
    },
    {
      "midi": 44,
      "hit": false,
      "t": 33874.966125,
      "d": 60.71422500000335,
      "v": 127
    },
    {
      "midi": 45,
      "hit": false,
      "t": 33874.9661250001,
      "d": 185.71409999999742,
      "v": 75
    },
    {
      "midi": 33,
      "hit": false,
      "t": 33874.96612500011,
      "d": 185.71409999999742,
      "v": 75
    },
    {
      "midi": 67,
      "hit": false,
      "t": 34089.251625,
      "d": 96.42847500000062,
      "v": 113
    },
    {
      "midi": 79,
      "hit": false,
      "t": 34089.251625,
      "d": 99.99990000000253,
      "v": 115
    },
    {
      "midi": 43,
      "hit": false,
      "t": 34089.251625000004,
      "d": 89.2856249999968,
      "v": 127
    },
    {
      "midi": 42,
      "hit": false,
      "t": 34089.2516250001,
      "d": 103.57132499999716,
      "v": 85
    },
    {
      "midi": 30,
      "hit": false,
      "t": 34089.251625000106,
      "d": 103.57132499999716,
      "v": 85
    },
    {
      "midi": 43,
      "hit": false,
      "t": 34514.2512,
      "d": 89.2856249999968,
      "v": 127
    },
    {
      "midi": 67,
      "hit": false,
      "t": 34514.2512,
      "d": 96.42847500000062,
      "v": 113
    },
    {
      "midi": 79,
      "hit": false,
      "t": 34514.2512,
      "d": 99.99990000000253,
      "v": 115
    },
    {
      "midi": 42,
      "hit": false,
      "t": 34514.25120000009,
      "d": 103.57132499999716,
      "v": 85
    },
    {
      "midi": 30,
      "hit": false,
      "t": 34514.2512000001,
      "d": 103.57132499999716,
      "v": 85
    },
    {
      "midi": 44,
      "hit": false,
      "t": 34728.5367,
      "d": 60.71422500000335,
      "v": 127
    },
    {
      "midi": 80,
      "hit": false,
      "t": 34728.536700000004,
      "d": 85.71420000000217,
      "v": 125
    },
    {
      "midi": 68,
      "hit": false,
      "t": 34728.536700000004,
      "d": 89.28562500000407,
      "v": 109
    },
    {
      "midi": 45,
      "hit": false,
      "t": 34728.53670000009,
      "d": 185.71409999999742,
      "v": 75
    },
    {
      "midi": 33,
      "hit": false,
      "t": 34728.5367000001,
      "d": 185.71409999999742,
      "v": 75
    },
    {
      "midi": 45,
      "hit": false,
      "t": 34942.8222,
      "d": 99.99990000000253,
      "v": 119
    },
    {
      "midi": 81,
      "hit": false,
      "t": 34942.82220000001,
      "d": 103.57132499999716,
      "v": 97
    },
    {
      "midi": 69,
      "hit": false,
      "t": 34942.82220000001,
      "d": 103.57132499999716,
      "v": 89
    },
    {
      "midi": 43,
      "hit": false,
      "t": 34942.82220000009,
      "d": 67.8570749999999,
      "v": 77
    },
    {
      "midi": 31,
      "hit": false,
      "t": 34942.8222000001,
      "d": 67.8570749999999,
      "v": 77
    },
    {
      "midi": 46,
      "hit": false,
      "t": 35157.10770000001,
      "d": 64.28564999999799,
      "v": 127
    },
    {
      "midi": 70,
      "hit": false,
      "t": 35157.10770000001,
      "d": 74.99992499999644,
      "v": 117
    },
    {
      "midi": 82,
      "hit": false,
      "t": 35157.10770000001,
      "d": 78.57134999999835,
      "v": 126
    },
    {
      "midi": 43,
      "hit": false,
      "t": 35157.10770000009,
      "d": 49.999949999997625,
      "v": 85
    },
    {
      "midi": 31,
      "hit": false,
      "t": 35157.107700000095,
      "d": 49.999949999997625,
      "v": 85
    },
    {
      "midi": 46,
      "hit": false,
      "t": 35371.393200000086,
      "d": 185.71409999999742,
      "v": 76
    },
    {
      "midi": 34,
      "hit": false,
      "t": 35371.39320000009,
      "d": 185.71409999999742,
      "v": 76
    },
    {
      "midi": 47,
      "hit": false,
      "t": 35585.678700000004,
      "d": 92.85704999999871,
      "v": 127
    },
    {
      "midi": 83,
      "hit": false,
      "t": 35585.678700000004,
      "d": 110.71417500000098,
      "v": 113
    },
    {
      "midi": 71,
      "hit": false,
      "t": 35585.678700000004,
      "d": 114.28560000000289,
      "v": 115
    },
    {
      "midi": 44,
      "hit": false,
      "t": 35585.678700000084,
      "d": 64.28564999999799,
      "v": 71
    },
    {
      "midi": 32,
      "hit": false,
      "t": 35585.67870000009,
      "d": 64.28564999999799,
      "v": 71
    },
    {
      "midi": 44,
      "hit": false,
      "t": 35799.96420000008,
      "d": 53.571374999999534,
      "v": 77
    },
    {
      "midi": 32,
      "hit": false,
      "t": 35799.96420000009,
      "d": 53.571374999999534,
      "v": 77
    },
    {
      "midi": 47,
      "hit": false,
      "t": 36017.821125,
      "d": 510.71377499999653,
      "v": 126
    },
    {
      "midi": 71,
      "hit": false,
      "t": 36017.82112500001,
      "d": 117.85702499999752,
      "v": 113
    },
    {
      "midi": 83,
      "hit": false,
      "t": 36017.82112500001,
      "d": 132.14272499999788,
      "v": 113
    },
    {
      "midi": 47,
      "hit": false,
      "t": 36017.82112500008,
      "d": 174.99982499999896,
      "v": 63
    },
    {
      "midi": 35,
      "hit": false,
      "t": 36017.82112500009,
      "d": 174.99982499999896,
      "v": 63
    },
    {
      "midi": 44,
      "hit": false,
      "t": 36232.10662500008,
      "d": 53.571374999999534,
      "v": 77
    },
    {
      "midi": 32,
      "hit": false,
      "t": 36232.10662500009,
      "d": 53.571374999999534,
      "v": 77
    },
    {
      "midi": 44,
      "hit": false,
      "t": 36446.39212500008,
      "d": 64.28564999999799,
      "v": 71
    },
    {
      "midi": 32,
      "hit": false,
      "t": 36446.392125000086,
      "d": 64.28564999999799,
      "v": 71
    },
    {
      "midi": 44,
      "hit": false,
      "t": 36660.677625,
      "d": 492.85665000000154,
      "v": 127
    },
    {
      "midi": 70,
      "hit": false,
      "t": 36660.677625000004,
      "d": 99.99990000000253,
      "v": 125
    },
    {
      "midi": 82,
      "hit": false,
      "t": 36660.677625000004,
      "d": 107.14274999999907,
      "v": 126
    },
    {
      "midi": 46,
      "hit": false,
      "t": 36660.67762500008,
      "d": 185.71409999999742,
      "v": 76
    },
    {
      "midi": 34,
      "hit": false,
      "t": 36660.677625000084,
      "d": 185.71409999999742,
      "v": 76
    },
    {
      "midi": 43,
      "hit": false,
      "t": 36874.963125000075,
      "d": 49.999949999997625,
      "v": 85
    },
    {
      "midi": 31,
      "hit": false,
      "t": 36874.96312500008,
      "d": 49.999949999997625,
      "v": 85
    },
    {
      "midi": 43,
      "hit": false,
      "t": 37089.24862500007,
      "d": 67.8570749999999,
      "v": 77
    },
    {
      "midi": 31,
      "hit": false,
      "t": 37089.24862500008,
      "d": 67.8570749999999,
      "v": 77
    },
    {
      "midi": 46,
      "hit": false,
      "t": 37303.534125,
      "d": 74.99992499999644,
      "v": 127
    },
    {
      "midi": 69,
      "hit": false,
      "t": 37303.534125000006,
      "d": 92.85704999999871,
      "v": 113
    },
    {
      "midi": 81,
      "hit": false,
      "t": 37303.534125000006,
      "d": 99.99989999999525,
      "v": 113
    },
    {
      "midi": 45,
      "hit": false,
      "t": 37303.53412500007,
      "d": 185.71409999999742,
      "v": 75
    },
    {
      "midi": 33,
      "hit": false,
      "t": 37303.53412500008,
      "d": 185.71409999999742,
      "v": 75
    },
    {
      "midi": 45,
      "hit": false,
      "t": 37517.819625,
      "d": 428.57100000000355,
      "v": 123
    },
    {
      "midi": 68,
      "hit": false,
      "t": 37517.819625000004,
      "d": 78.57134999999835,
      "v": 121
    },
    {
      "midi": 80,
      "hit": false,
      "t": 37517.819625000004,
      "d": 89.2856249999968,
      "v": 127
    },
    {
      "midi": 42,
      "hit": false,
      "t": 37517.81962500007,
      "d": 103.57132499999716,
      "v": 85
    },
    {
      "midi": 30,
      "hit": false,
      "t": 37517.81962500008,
      "d": 103.57132499999716,
      "v": 85
    },
    {
      "midi": 47,
      "hit": false,
      "t": 37732.10512500007,
      "d": 178.57125000000087,
      "v": 63
    },
    {
      "midi": 35,
      "hit": false,
      "t": 37732.105125000075,
      "d": 178.57125000000087,
      "v": 63
    },
    {
      "midi": 44,
      "hit": false,
      "t": 37946.390625000065,
      "d": 53.571374999999534,
      "v": 77
    },
    {
      "midi": 32,
      "hit": false,
      "t": 37946.39062500007,
      "d": 53.571374999999534,
      "v": 77
    },
    {
      "midi": 47,
      "hit": false,
      "t": 38160.676125,
      "d": 92.85704999999871,
      "v": 127
    },
    {
      "midi": 83,
      "hit": false,
      "t": 38160.676125,
      "d": 110.71417500000098,
      "v": 113
    },
    {
      "midi": 71,
      "hit": false,
      "t": 38160.676125,
      "d": 114.28560000000289,
      "v": 115
    },
    {
      "midi": 44,
      "hit": false,
      "t": 38160.67612500006,
      "d": 64.28564999999799,
      "v": 71
    },
    {
      "midi": 32,
      "hit": false,
      "t": 38160.67612500007,
      "d": 64.28564999999799,
      "v": 71
    },
    {
      "midi": 46,
      "hit": false,
      "t": 38374.96162500006,
      "d": 185.71409999999742,
      "v": 76
    },
    {
      "midi": 34,
      "hit": false,
      "t": 38374.96162500007,
      "d": 185.71409999999742,
      "v": 76
    },
    {
      "midi": 46,
      "hit": false,
      "t": 38589.247124999994,
      "d": 64.28564999999799,
      "v": 127
    },
    {
      "midi": 70,
      "hit": false,
      "t": 38589.247125,
      "d": 74.99992499999644,
      "v": 117
    },
    {
      "midi": 82,
      "hit": false,
      "t": 38589.247125,
      "d": 78.57134999999835,
      "v": 126
    },
    {
      "midi": 43,
      "hit": false,
      "t": 38589.24712500006,
      "d": 49.999949999997625,
      "v": 85
    },
    {
      "midi": 31,
      "hit": false,
      "t": 38589.24712500007,
      "d": 49.999949999997625,
      "v": 85
    },
    {
      "midi": 45,
      "hit": false,
      "t": 38803.53262499999,
      "d": 99.99990000000253,
      "v": 119
    },
    {
      "midi": 69,
      "hit": false,
      "t": 38803.532625,
      "d": 103.57132499999716,
      "v": 89
    },
    {
      "midi": 81,
      "hit": false,
      "t": 38803.532625,
      "d": 103.57132499999716,
      "v": 97
    },
    {
      "midi": 43,
      "hit": false,
      "t": 38803.53262500006,
      "d": 67.8570749999999,
      "v": 77
    },
    {
      "midi": 31,
      "hit": false,
      "t": 38803.532625000065,
      "d": 67.8570749999999,
      "v": 77
    },
    {
      "midi": 44,
      "hit": false,
      "t": 39017.818125,
      "d": 60.71422500000335,
      "v": 127
    },
    {
      "midi": 80,
      "hit": false,
      "t": 39017.818125,
      "d": 85.71420000000217,
      "v": 125
    },
    {
      "midi": 68,
      "hit": false,
      "t": 39017.818125,
      "d": 89.28562500000407,
      "v": 109
    },
    {
      "midi": 45,
      "hit": false,
      "t": 39017.818125000056,
      "d": 185.71409999999742,
      "v": 75
    },
    {
      "midi": 33,
      "hit": false,
      "t": 39017.81812500006,
      "d": 185.71409999999742,
      "v": 75
    },
    {
      "midi": 43,
      "hit": false,
      "t": 39232.103625,
      "d": 89.2856249999968,
      "v": 127
    },
    {
      "midi": 67,
      "hit": false,
      "t": 39232.103625,
      "d": 96.42847500000062,
      "v": 113
    },
    {
      "midi": 79,
      "hit": false,
      "t": 39232.103625,
      "d": 99.99990000000253,
      "v": 115
    },
    {
      "midi": 42,
      "hit": false,
      "t": 39232.103625000054,
      "d": 103.57132499999716,
      "v": 85
    },
    {
      "midi": 30,
      "hit": false,
      "t": 39232.10362500006,
      "d": 103.57132499999716,
      "v": 85
    },
    {
      "midi": 45,
      "hit": false,
      "t": 39446.38912500005,
      "d": 71.4285000000018,
      "v": 80
    },
    {
      "midi": 33,
      "hit": false,
      "t": 39446.38912500006,
      "d": 71.4285000000018,
      "v": 80
    },
    {
      "midi": 45,
      "hit": false,
      "t": 39660.67462500006,
      "d": 71.4285000000018,
      "v": 80
    },
    {
      "midi": 33,
      "hit": false,
      "t": 39660.674625000065,
      "d": 71.4285000000018,
      "v": 80
    },
    {
      "midi": 45,
      "hit": false,
      "t": 39871.3887,
      "d": 332.14252500000293,
      "v": 121
    },
    {
      "midi": 63,
      "hit": false,
      "t": 39871.3887,
      "d": 67.8570749999999,
      "v": 111
    },
    {
      "midi": 57,
      "hit": false,
      "t": 39871.3887,
      "d": 82.14277500000026,
      "v": 87
    },
    {
      "midi": 45,
      "hit": false,
      "t": 39874.96012500006,
      "d": 71.4285000000018,
      "v": 80
    },
    {
      "midi": 33,
      "hit": false,
      "t": 39874.96012500007,
      "d": 71.4285000000018,
      "v": 80
    },
    {
      "midi": 48,
      "hit": false,
      "t": 40089.24562500007,
      "d": 178.57125000000087,
      "v": 95
    },
    {
      "midi": 36,
      "hit": false,
      "t": 40089.245625000076,
      "d": 178.57125000000087,
      "v": 95
    },
    {
      "midi": 48,
      "hit": false,
      "t": 40299.95970000001,
      "d": 392.856749999999,
      "v": 119
    },
    {
      "midi": 66,
      "hit": false,
      "t": 40299.95970000001,
      "d": 71.4285000000018,
      "v": 117
    },
    {
      "midi": 60,
      "hit": false,
      "t": 40299.95970000001,
      "d": 82.14277500000026,
      "v": 93
    },
    {
      "midi": 45,
      "hit": false,
      "t": 40303.53112500007,
      "d": 71.4285000000018,
      "v": 80
    },
    {
      "midi": 33,
      "hit": false,
      "t": 40303.531125000074,
      "d": 71.4285000000018,
      "v": 80
    },
    {
      "midi": 45,
      "hit": false,
      "t": 40517.81662500007,
      "d": 71.4285000000018,
      "v": 80
    },
    {
      "midi": 33,
      "hit": false,
      "t": 40517.81662500008,
      "d": 71.4285000000018,
      "v": 80
    },
    {
      "midi": 45,
      "hit": false,
      "t": 40728.5307,
      "d": 382.14247500000056,
      "v": 121
    },
    {
      "midi": 45,
      "hit": false,
      "t": 40732.10212500008,
      "d": 71.4285000000018,
      "v": 80
    },
    {
      "midi": 33,
      "hit": false,
      "t": 40732.102125000085,
      "d": 71.4285000000018,
      "v": 80
    },
    {
      "midi": 48,
      "hit": false,
      "t": 40942.8162,
      "d": 153.57127500000206,
      "v": 111
    },
    {
      "midi": 66,
      "hit": false,
      "t": 40942.81620000001,
      "d": 53.571374999999534,
      "v": 119
    },
    {
      "midi": 60,
      "hit": false,
      "t": 40942.81620000001,
      "d": 71.4285000000018,
      "v": 95
    },
    {
      "midi": 45,
      "hit": false,
      "t": 40946.38762500008,
      "d": 71.4285000000018,
      "v": 80
    },
    {
      "midi": 33,
      "hit": false,
      "t": 40946.38762500009,
      "d": 71.4285000000018,
      "v": 80
    },
    {
      "midi": 45,
      "hit": false,
      "t": 41160.67312500009,
      "d": 71.4285000000018,
      "v": 80
    },
    {
      "midi": 33,
      "hit": false,
      "t": 41160.673125000096,
      "d": 71.4285000000018,
      "v": 80
    },
    {
      "midi": 48,
      "hit": false,
      "t": 41374.958625000094,
      "d": 178.57125000000087,
      "v": 95
    },
    {
      "midi": 36,
      "hit": false,
      "t": 41374.9586250001,
      "d": 178.57125000000087,
      "v": 95
    },
    {
      "midi": 48,
      "hit": false,
      "t": 41585.6727,
      "d": 460.7138249999989,
      "v": 119
    },
    {
      "midi": 63,
      "hit": false,
      "t": 41585.67270000001,
      "d": 74.99992499999644,
      "v": 109
    },
    {
      "midi": 57,
      "hit": false,
      "t": 41585.67270000001,
      "d": 89.2856249999968,
      "v": 93
    },
    {
      "midi": 45,
      "hit": false,
      "t": 41589.24412500009,
      "d": 71.4285000000018,
      "v": 80
    },
    {
      "midi": 33,
      "hit": false,
      "t": 41589.2441250001,
      "d": 71.4285000000018,
      "v": 80
    },
    {
      "midi": 45,
      "hit": false,
      "t": 41803.5296250001,
      "d": 71.4285000000018,
      "v": 80
    },
    {
      "midi": 33,
      "hit": false,
      "t": 41803.529625000105,
      "d": 71.4285000000018,
      "v": 80
    },
    {
      "midi": 48,
      "hit": false,
      "t": 42017.8151250001,
      "d": 178.57125000000087,
      "v": 95
    },
    {
      "midi": 36,
      "hit": false,
      "t": 42017.81512500011,
      "d": 178.57125000000087,
      "v": 95
    },
    {
      "midi": 45,
      "hit": false,
      "t": 42228.529200000004,
      "d": 614.285100000001,
      "v": 117
    },
    {
      "midi": 46,
      "hit": false,
      "t": 42228.529200000004,
      "d": 753.5706750000027,
      "v": 127
    },
    {
      "midi": 66,
      "hit": false,
      "t": 42228.529200000004,
      "d": 53.571374999999534,
      "v": 117
    },
    {
      "midi": 60,
      "hit": false,
      "t": 42228.529200000004,
      "d": 82.14277500000026,
      "v": 101
    },
    {
      "midi": 45,
      "hit": false,
      "t": 42232.1006250001,
      "d": 71.4285000000018,
      "v": 80
    },
    {
      "midi": 33,
      "hit": false,
      "t": 42232.10062500011,
      "d": 71.4285000000018,
      "v": 80
    },
    {
      "midi": 45,
      "hit": false,
      "t": 42446.38612500011,
      "d": 71.4285000000018,
      "v": 80
    },
    {
      "midi": 33,
      "hit": false,
      "t": 42446.386125000114,
      "d": 71.4285000000018,
      "v": 80
    },
    {
      "midi": 45,
      "hit": false,
      "t": 42660.67162500011,
      "d": 71.4285000000018,
      "v": 80
    },
    {
      "midi": 33,
      "hit": false,
      "t": 42660.67162500012,
      "d": 71.4285000000018,
      "v": 80
    },
    {
      "midi": 48,
      "hit": false,
      "t": 42871.385700000006,
      "d": 617.8565250000029,
      "v": 121
    },
    {
      "midi": 63,
      "hit": false,
      "t": 42871.385700000006,
      "d": 67.8570749999999,
      "v": 111
    },
    {
      "midi": 57,
      "hit": false,
      "t": 42871.385700000006,
      "d": 82.14277500000026,
      "v": 95
    },
    {
      "midi": 63,
      "hit": false,
      "t": 42978.52845000001,
      "d": 117.85702499999752,
      "v": 90
    },
    {
      "midi": 70,
      "hit": false,
      "t": 42978.52845000001,
      "d": 117.85702499999752,
      "v": 90
    },
    {
      "midi": 61,
      "hit": false,
      "t": 43085.67120000001,
      "d": 92.85704999999871,
      "v": 80
    },
    {
      "midi": 68,
      "hit": false,
      "t": 43085.67120000001,
      "d": 92.85704999999871,
      "v": 80
    },
    {
      "midi": 46,
      "hit": false,
      "t": 43085.67120000011,
      "d": 71.4285000000018,
      "v": 80
    },
    {
      "midi": 34,
      "hit": false,
      "t": 43085.67120000012,
      "d": 71.4285000000018,
      "v": 80
    },
    {
      "midi": 60,
      "hit": false,
      "t": 43192.81395000001,
      "d": 85.71420000000217,
      "v": 80
    },
    {
      "midi": 67,
      "hit": false,
      "t": 43192.81395000001,
      "d": 85.71420000000217,
      "v": 80
    },
    {
      "midi": 58,
      "hit": false,
      "t": 43299.95670000001,
      "d": 117.85702499999752,
      "v": 100
    },
    {
      "midi": 65,
      "hit": false,
      "t": 43299.95670000001,
      "d": 117.85702499999752,
      "v": 100
    },
    {
      "midi": 46,
      "hit": false,
      "t": 43299.95670000001,
      "d": 417.8567249999978,
      "v": 126
    },
    {
      "midi": 65,
      "hit": false,
      "t": 43299.95670000001,
      "d": 60.71422500000335,
      "v": 89
    },
    {
      "midi": 58,
      "hit": false,
      "t": 43299.95670000001,
      "d": 64.28565000000526,
      "v": 97
    },
    {
      "midi": 46,
      "hit": false,
      "t": 43299.95670000012,
      "d": 71.4285000000018,
      "v": 80
    },
    {
      "midi": 34,
      "hit": false,
      "t": 43299.956700000126,
      "d": 71.4285000000018,
      "v": 80
    },
    {
      "midi": 46,
      "hit": false,
      "t": 43514.242200000124,
      "d": 71.4285000000018,
      "v": 80
    },
    {
      "midi": 34,
      "hit": false,
      "t": 43514.24220000013,
      "d": 71.4285000000018,
      "v": 80
    },
    {
      "midi": 49,
      "hit": false,
      "t": 43728.527700000006,
      "d": 417.8567249999978,
      "v": 127
    },
    {
      "midi": 68,
      "hit": false,
      "t": 43728.52770000001,
      "d": 60.71422500000335,
      "v": 119
    },
    {
      "midi": 61,
      "hit": false,
      "t": 43728.52770000001,
      "d": 60.71422500000335,
      "v": 107
    },
    {
      "midi": 49,
      "hit": false,
      "t": 43728.52770000013,
      "d": 178.57125000000087,
      "v": 95
    },
    {
      "midi": 37,
      "hit": false,
      "t": 43728.52770000014,
      "d": 178.57125000000087,
      "v": 95
    },
    {
      "midi": 46,
      "hit": false,
      "t": 43942.81320000013,
      "d": 71.4285000000018,
      "v": 80
    },
    {
      "midi": 34,
      "hit": false,
      "t": 43942.813200000135,
      "d": 71.4285000000018,
      "v": 80
    },
    {
      "midi": 46,
      "hit": false,
      "t": 44157.0987,
      "d": 428.57100000000355,
      "v": 113
    },
    {
      "midi": 46,
      "hit": false,
      "t": 44157.09870000013,
      "d": 71.4285000000018,
      "v": 80
    },
    {
      "midi": 34,
      "hit": false,
      "t": 44157.09870000014,
      "d": 71.4285000000018,
      "v": 80
    },
    {
      "midi": 49,
      "hit": false,
      "t": 44371.3842,
      "d": 114.28560000000289,
      "v": 127
    },
    {
      "midi": 68,
      "hit": false,
      "t": 44371.384200000015,
      "d": 53.571374999999534,
      "v": 113
    },
    {
      "midi": 61,
      "hit": false,
      "t": 44371.384200000015,
      "d": 67.8570749999999,
      "v": 107
    },
    {
      "midi": 49,
      "hit": false,
      "t": 44371.38420000014,
      "d": 178.57125000000087,
      "v": 95
    },
    {
      "midi": 37,
      "hit": false,
      "t": 44371.384200000146,
      "d": 178.57125000000087,
      "v": 95
    },
    {
      "midi": 46,
      "hit": false,
      "t": 44585.66970000014,
      "d": 71.4285000000018,
      "v": 80
    },
    {
      "midi": 34,
      "hit": false,
      "t": 44585.669700000144,
      "d": 71.4285000000018,
      "v": 80
    },
    {
      "midi": 46,
      "hit": false,
      "t": 44799.95520000014,
      "d": 71.4285000000018,
      "v": 80
    },
    {
      "midi": 34,
      "hit": false,
      "t": 44799.95520000015,
      "d": 71.4285000000018,
      "v": 80
    },
    {
      "midi": 49,
      "hit": false,
      "t": 45014.24070000001,
      "d": 474.99952499999927,
      "v": 127
    },
    {
      "midi": 58,
      "hit": false,
      "t": 45014.24070000002,
      "d": 64.28564999999799,
      "v": 109
    },
    {
      "midi": 65,
      "hit": false,
      "t": 45014.24070000002,
      "d": 74.99992499999644,
      "v": 107
    },
    {
      "midi": 46,
      "hit": false,
      "t": 45014.24070000015,
      "d": 71.4285000000018,
      "v": 80
    },
    {
      "midi": 34,
      "hit": false,
      "t": 45014.240700000155,
      "d": 71.4285000000018,
      "v": 80
    },
    {
      "midi": 46,
      "hit": false,
      "t": 45228.52620000015,
      "d": 71.4285000000018,
      "v": 80
    },
    {
      "midi": 34,
      "hit": false,
      "t": 45228.52620000016,
      "d": 71.4285000000018,
      "v": 80
    },
    {
      "midi": 46,
      "hit": false,
      "t": 45442.81170000016,
      "d": 71.4285000000018,
      "v": 80
    },
    {
      "midi": 34,
      "hit": false,
      "t": 45442.811700000166,
      "d": 71.4285000000018,
      "v": 80
    },
    {
      "midi": 46,
      "hit": false,
      "t": 45657.097200000004,
      "d": 471.42809999999736,
      "v": 127
    },
    {
      "midi": 46,
      "hit": false,
      "t": 45657.09720000001,
      "d": 592.8565499999968,
      "v": 125
    },
    {
      "midi": 61,
      "hit": false,
      "t": 45657.09720000001,
      "d": 71.4285000000018,
      "v": 97
    },
    {
      "midi": 68,
      "hit": false,
      "t": 45657.09720000001,
      "d": 78.57134999999835,
      "v": 115
    },
    {
      "midi": 49,
      "hit": false,
      "t": 45657.097200000164,
      "d": 178.57125000000087,
      "v": 95
    },
    {
      "midi": 37,
      "hit": false,
      "t": 45657.09720000017,
      "d": 178.57125000000087,
      "v": 95
    },
    {
      "midi": 46,
      "hit": false,
      "t": 45871.38270000016,
      "d": 71.4285000000018,
      "v": 80
    },
    {
      "midi": 34,
      "hit": false,
      "t": 45871.38270000017,
      "d": 71.4285000000018,
      "v": 80
    },
    {
      "midi": 46,
      "hit": false,
      "t": 46085.66820000017,
      "d": 71.4285000000018,
      "v": 80
    },
    {
      "midi": 34,
      "hit": false,
      "t": 46085.668200000175,
      "d": 71.4285000000018,
      "v": 80
    },
    {
      "midi": 48,
      "hit": false,
      "t": 46303.52512500001,
      "d": 585.7137000000002,
      "v": 121
    },
    {
      "midi": 63,
      "hit": false,
      "t": 46303.52512500001,
      "d": 71.4285000000018,
      "v": 119
    },
    {
      "midi": 57,
      "hit": false,
      "t": 46303.52512500001,
      "d": 89.28562500000407,
      "v": 101
    },
    {
      "midi": 45,
      "hit": false,
      "t": 46303.52512500017,
      "d": 71.4285000000018,
      "v": 80
    },
    {
      "midi": 33,
      "hit": false,
      "t": 46303.525125000175,
      "d": 71.4285000000018,
      "v": 80
    },
    {
      "midi": 63,
      "hit": false,
      "t": 46517.810625,
      "d": 49.999949999997625,
      "v": 107
    },
    {
      "midi": 45,
      "hit": false,
      "t": 46517.81062500017,
      "d": 71.4285000000018,
      "v": 80
    },
    {
      "midi": 33,
      "hit": false,
      "t": 46517.81062500018,
      "d": 71.4285000000018,
      "v": 80
    },
    {
      "midi": 63,
      "hit": false,
      "t": 46732.096125,
      "d": 49.999949999997625,
      "v": 99
    },
    {
      "midi": 45,
      "hit": false,
      "t": 46732.09612500018,
      "d": 71.4285000000018,
      "v": 80
    },
    {
      "midi": 33,
      "hit": false,
      "t": 46732.096125000186,
      "d": 71.4285000000018,
      "v": 80
    },
    {
      "midi": 63,
      "hit": false,
      "t": 46946.381624999995,
      "d": 57.14280000000144,
      "v": 101
    },
    {
      "midi": 46,
      "hit": false,
      "t": 46946.381625,
      "d": 692.8564499999993,
      "v": 127
    },
    {
      "midi": 45,
      "hit": false,
      "t": 46946.38162500001,
      "d": 628.5708000000013,
      "v": 121
    },
    {
      "midi": 66,
      "hit": false,
      "t": 46946.38162500001,
      "d": 60.71422500000335,
      "v": 117
    },
    {
      "midi": 60,
      "hit": false,
      "t": 46946.38162500001,
      "d": 74.99992500000371,
      "v": 99
    },
    {
      "midi": 48,
      "hit": false,
      "t": 46946.381625000184,
      "d": 178.57125000000087,
      "v": 95
    },
    {
      "midi": 36,
      "hit": false,
      "t": 46946.38162500019,
      "d": 178.57125000000087,
      "v": 95
    },
    {
      "midi": 63,
      "hit": false,
      "t": 47160.66712499999,
      "d": 210.7140750000035,
      "v": 115
    },
    {
      "midi": 45,
      "hit": false,
      "t": 47160.66712500018,
      "d": 71.4285000000018,
      "v": 80
    },
    {
      "midi": 33,
      "hit": false,
      "t": 47160.66712500019,
      "d": 71.4285000000018,
      "v": 80
    },
    {
      "midi": 62,
      "hit": false,
      "t": 47374.952625,
      "d": 96.42847500000062,
      "v": 90
    },
    {
      "midi": 45,
      "hit": false,
      "t": 47374.95262500019,
      "d": 71.4285000000018,
      "v": 80
    },
    {
      "midi": 33,
      "hit": false,
      "t": 47374.952625000195,
      "d": 71.4285000000018,
      "v": 80
    },
    {
      "midi": 48,
      "hit": false,
      "t": 47589.23812500001,
      "d": 449.99955000000045,
      "v": 119
    },
    {
      "midi": 57,
      "hit": false,
      "t": 47589.23812500001,
      "d": 67.8570749999999,
      "v": 95
    },
    {
      "midi": 63,
      "hit": false,
      "t": 47589.23812500001,
      "d": 71.4285000000018,
      "v": 113
    },
    {
      "midi": 45,
      "hit": false,
      "t": 47589.23812500019,
      "d": 71.4285000000018,
      "v": 80
    },
    {
      "midi": 33,
      "hit": false,
      "t": 47589.2381250002,
      "d": 71.4285000000018,
      "v": 80
    },
    {
      "midi": 45,
      "hit": false,
      "t": 47803.5236250002,
      "d": 71.4285000000018,
      "v": 80
    },
    {
      "midi": 33,
      "hit": false,
      "t": 47803.523625000205,
      "d": 71.4285000000018,
      "v": 80
    },
    {
      "midi": 45,
      "hit": false,
      "t": 48017.8091250002,
      "d": 71.4285000000018,
      "v": 80
    },
    {
      "midi": 33,
      "hit": false,
      "t": 48017.80912500021,
      "d": 71.4285000000018,
      "v": 80
    },
    {
      "midi": 48,
      "hit": false,
      "t": 48232.09462500001,
      "d": 189.28552499999932,
      "v": 119
    },
    {
      "midi": 66,
      "hit": false,
      "t": 48232.09462500001,
      "d": 57.14280000000144,
      "v": 113
    },
    {
      "midi": 60,
      "hit": false,
      "t": 48232.09462500001,
      "d": 67.8570749999999,
      "v": 93
    },
    {
      "midi": 48,
      "hit": false,
      "t": 48232.09462500021,
      "d": 178.57125000000087,
      "v": 95
    },
    {
      "midi": 36,
      "hit": false,
      "t": 48232.094625000216,
      "d": 178.57125000000087,
      "v": 95
    },
    {
      "midi": 45,
      "hit": false,
      "t": 48446.38012500001,
      "d": 410.7138750000013,
      "v": 109
    },
    {
      "midi": 45,
      "hit": false,
      "t": 48446.38012500021,
      "d": 71.4285000000018,
      "v": 80
    },
    {
      "midi": 33,
      "hit": false,
      "t": 48446.380125000214,
      "d": 71.4285000000018,
      "v": 80
    },
    {
      "midi": 45,
      "hit": false,
      "t": 48660.66562500021,
      "d": 71.4285000000018,
      "v": 80
    },
    {
      "midi": 33,
      "hit": false,
      "t": 48660.66562500022,
      "d": 71.4285000000018,
      "v": 80
    },
    {
      "midi": 48,
      "hit": false,
      "t": 48874.951125000014,
      "d": 378.57104999999865,
      "v": 119
    },
    {
      "midi": 60,
      "hit": false,
      "t": 48874.951125000014,
      "d": 64.28564999999799,
      "v": 87
    },
    {
      "midi": 66,
      "hit": false,
      "t": 48874.951125000014,
      "d": 64.28564999999799,
      "v": 121
    },
    {
      "midi": 48,
      "hit": false,
      "t": 48874.95112500022,
      "d": 178.57125000000087,
      "v": 95
    },
    {
      "midi": 36,
      "hit": false,
      "t": 48874.951125000225,
      "d": 178.57125000000087,
      "v": 95
    },
    {
      "midi": 45,
      "hit": false,
      "t": 49089.236625000216,
      "d": 71.4285000000018,
      "v": 80
    },
    {
      "midi": 33,
      "hit": false,
      "t": 49089.23662500022,
      "d": 71.4285000000018,
      "v": 80
    },
    {
      "midi": 45,
      "hit": false,
      "t": 49303.52212500001,
      "d": 421.42814999999973,
      "v": 121
    },
    {
      "midi": 63,
      "hit": false,
      "t": 49303.52212500001,
      "d": 53.571374999999534,
      "v": 113
    },
    {
      "midi": 57,
      "hit": false,
      "t": 49303.52212500001,
      "d": 74.99992499999644,
      "v": 92
    },
    {
      "midi": 45,
      "hit": false,
      "t": 49303.52212500022,
      "d": 71.4285000000018,
      "v": 80
    },
    {
      "midi": 33,
      "hit": false,
      "t": 49303.52212500023,
      "d": 71.4285000000018,
      "v": 80
    },
    {
      "midi": 45,
      "hit": false,
      "t": 49517.80762500023,
      "d": 71.4285000000018,
      "v": 80
    },
    {
      "midi": 33,
      "hit": false,
      "t": 49517.807625000234,
      "d": 71.4285000000018,
      "v": 80
    },
    {
      "midi": 48,
      "hit": false,
      "t": 49732.09312500001,
      "d": 617.8565250000029,
      "v": 121
    },
    {
      "midi": 63,
      "hit": false,
      "t": 49732.09312500001,
      "d": 67.8570749999999,
      "v": 111
    },
    {
      "midi": 57,
      "hit": false,
      "t": 49732.09312500001,
      "d": 82.14277500000026,
      "v": 95
    },
    {
      "midi": 45,
      "hit": false,
      "t": 49732.09312500023,
      "d": 71.4285000000018,
      "v": 80
    },
    {
      "midi": 33,
      "hit": false,
      "t": 49732.09312500024,
      "d": 71.4285000000018,
      "v": 80
    },
    {
      "midi": 63,
      "hit": false,
      "t": 49946.378625,
      "d": 64.28564999999799,
      "v": 101
    },
    {
      "midi": 45,
      "hit": false,
      "t": 49946.37862500024,
      "d": 71.4285000000018,
      "v": 80
    },
    {
      "midi": 33,
      "hit": false,
      "t": 49946.378625000245,
      "d": 71.4285000000018,
      "v": 80
    },
    {
      "midi": 63,
      "hit": false,
      "t": 50160.664124999996,
      "d": 57.14280000000144,
      "v": 105
    },
    {
      "midi": 45,
      "hit": false,
      "t": 50160.66412500024,
      "d": 71.4285000000018,
      "v": 80
    },
    {
      "midi": 33,
      "hit": false,
      "t": 50160.66412500025,
      "d": 71.4285000000018,
      "v": 80
    },
    {
      "midi": 63,
      "hit": false,
      "t": 50374.949624999994,
      "d": 57.14280000000144,
      "v": 111
    },
    {
      "midi": 46,
      "hit": false,
      "t": 50374.949625,
      "d": 753.5706750000027,
      "v": 127
    },
    {
      "midi": 45,
      "hit": false,
      "t": 50374.94962500001,
      "d": 614.285100000001,
      "v": 117
    },
    {
      "midi": 66,
      "hit": false,
      "t": 50374.94962500001,
      "d": 53.571374999999534,
      "v": 117
    },
    {
      "midi": 60,
      "hit": false,
      "t": 50374.94962500001,
      "d": 82.14277500000026,
      "v": 101
    },
    {
      "midi": 48,
      "hit": false,
      "t": 50374.94962500025,
      "d": 178.57125000000087,
      "v": 95
    },
    {
      "midi": 36,
      "hit": false,
      "t": 50374.949625000256,
      "d": 178.57125000000087,
      "v": 95
    },
    {
      "midi": 63,
      "hit": false,
      "t": 50589.23512499999,
      "d": 196.42837500000314,
      "v": 111
    },
    {
      "midi": 45,
      "hit": false,
      "t": 50589.23512500025,
      "d": 71.4285000000018,
      "v": 80
    },
    {
      "midi": 33,
      "hit": false,
      "t": 50589.235125000254,
      "d": 71.4285000000018,
      "v": 80
    },
    {
      "midi": 62,
      "hit": false,
      "t": 50803.520625,
      "d": 114.28560000000289,
      "v": 99
    },
    {
      "midi": 45,
      "hit": false,
      "t": 50803.52062500025,
      "d": 71.4285000000018,
      "v": 80
    },
    {
      "midi": 33,
      "hit": false,
      "t": 50803.52062500026,
      "d": 71.4285000000018,
      "v": 80
    },
    {
      "midi": 48,
      "hit": false,
      "t": 51017.80612500001,
      "d": 460.7138249999989,
      "v": 119
    },
    {
      "midi": 63,
      "hit": false,
      "t": 51017.80612500001,
      "d": 74.99992499999644,
      "v": 109
    },
    {
      "midi": 57,
      "hit": false,
      "t": 51017.80612500001,
      "d": 89.2856249999968,
      "v": 93
    },
    {
      "midi": 45,
      "hit": false,
      "t": 51017.80612500026,
      "d": 71.4285000000018,
      "v": 80
    },
    {
      "midi": 33,
      "hit": false,
      "t": 51017.806125000265,
      "d": 71.4285000000018,
      "v": 80
    },
    {
      "midi": 45,
      "hit": false,
      "t": 51232.09162500026,
      "d": 71.4285000000018,
      "v": 80
    },
    {
      "midi": 33,
      "hit": false,
      "t": 51232.09162500027,
      "d": 71.4285000000018,
      "v": 80
    },
    {
      "midi": 45,
      "hit": false,
      "t": 51446.37712500027,
      "d": 71.4285000000018,
      "v": 80
    },
    {
      "midi": 33,
      "hit": false,
      "t": 51446.377125000276,
      "d": 71.4285000000018,
      "v": 80
    },
    {
      "midi": 66,
      "hit": false,
      "t": 51660.662625000004,
      "d": 53.571374999999534,
      "v": 119
    },
    {
      "midi": 60,
      "hit": false,
      "t": 51660.662625000004,
      "d": 71.4285000000018,
      "v": 95
    },
    {
      "midi": 48,
      "hit": false,
      "t": 51660.66262500001,
      "d": 153.57127500000206,
      "v": 111
    },
    {
      "midi": 48,
      "hit": false,
      "t": 51660.662625000274,
      "d": 178.57125000000087,
      "v": 95
    },
    {
      "midi": 36,
      "hit": false,
      "t": 51660.66262500028,
      "d": 178.57125000000087,
      "v": 95
    },
    {
      "midi": 45,
      "hit": false,
      "t": 51874.94812500002,
      "d": 382.14247500000056,
      "v": 121
    },
    {
      "midi": 45,
      "hit": false,
      "t": 51874.94812500027,
      "d": 71.4285000000018,
      "v": 80
    },
    {
      "midi": 33,
      "hit": false,
      "t": 51874.94812500028,
      "d": 71.4285000000018,
      "v": 80
    },
    {
      "midi": 45,
      "hit": false,
      "t": 52089.23362500028,
      "d": 71.4285000000018,
      "v": 80
    },
    {
      "midi": 33,
      "hit": false,
      "t": 52089.233625000285,
      "d": 71.4285000000018,
      "v": 80
    },
    {
      "midi": 66,
      "hit": false,
      "t": 52303.519125000006,
      "d": 71.4285000000018,
      "v": 117
    },
    {
      "midi": 60,
      "hit": false,
      "t": 52303.519125000006,
      "d": 82.14277500000026,
      "v": 93
    },
    {
      "midi": 48,
      "hit": false,
      "t": 52303.51912500002,
      "d": 392.856749999999,
      "v": 119
    },
    {
      "midi": 48,
      "hit": false,
      "t": 52303.51912500028,
      "d": 178.57125000000087,
      "v": 95
    },
    {
      "midi": 36,
      "hit": false,
      "t": 52303.51912500029,
      "d": 178.57125000000087,
      "v": 95
    },
    {
      "midi": 45,
      "hit": false,
      "t": 52517.80462500028,
      "d": 71.4285000000018,
      "v": 80
    },
    {
      "midi": 33,
      "hit": false,
      "t": 52517.80462500029,
      "d": 71.4285000000018,
      "v": 80
    },
    {
      "midi": 63,
      "hit": false,
      "t": 52732.09012500001,
      "d": 67.8570749999999,
      "v": 111
    },
    {
      "midi": 57,
      "hit": false,
      "t": 52732.09012500001,
      "d": 82.14277500000026,
      "v": 87
    },
    {
      "midi": 45,
      "hit": false,
      "t": 52732.09012500002,
      "d": 332.14252500000293,
      "v": 121
    },
    {
      "midi": 45,
      "hit": false,
      "t": 52732.090125000286,
      "d": 71.4285000000018,
      "v": 80
    },
    {
      "midi": 33,
      "hit": false,
      "t": 52732.09012500029,
      "d": 71.4285000000018,
      "v": 80
    },
    {
      "midi": 45,
      "hit": false,
      "t": 52946.37562500029,
      "d": 71.4285000000018,
      "v": 80
    },
    {
      "midi": 33,
      "hit": false,
      "t": 52946.3756250003,
      "d": 71.4285000000018,
      "v": 80
    },
    {
      "midi": 59,
      "hit": false,
      "t": 53160.66112500001,
      "d": 117.85702499999752,
      "v": 113
    },
    {
      "midi": 71,
      "hit": false,
      "t": 53160.66112500001,
      "d": 132.14272499999788,
      "v": 113
    },
    {
      "midi": 47,
      "hit": false,
      "t": 53160.66112500002,
      "d": 510.71377499999653,
      "v": 126
    },
    {
      "midi": 47,
      "hit": false,
      "t": 53160.6611250003,
      "d": 178.57125000000087,
      "v": 63
    },
    {
      "midi": 35,
      "hit": false,
      "t": 53160.661125000304,
      "d": 178.57125000000087,
      "v": 63
    },
    {
      "midi": 44,
      "hit": false,
      "t": 53374.946625000295,
      "d": 53.571374999999534,
      "v": 77
    },
    {
      "midi": 32,
      "hit": false,
      "t": 53374.9466250003,
      "d": 53.571374999999534,
      "v": 77
    },
    {
      "midi": 44,
      "hit": false,
      "t": 53589.23212500029,
      "d": 64.28564999999799,
      "v": 71
    },
    {
      "midi": 32,
      "hit": false,
      "t": 53589.2321250003,
      "d": 64.28564999999799,
      "v": 71
    },
    {
      "midi": 58,
      "hit": false,
      "t": 53803.51762500001,
      "d": 99.99990000000253,
      "v": 125
    },
    {
      "midi": 70,
      "hit": false,
      "t": 53803.51762500001,
      "d": 107.14274999999907,
      "v": 126
    },
    {
      "midi": 44,
      "hit": false,
      "t": 53803.517625000015,
      "d": 492.85665000000154,
      "v": 127
    },
    {
      "midi": 46,
      "hit": false,
      "t": 53803.51762500029,
      "d": 185.71409999999742,
      "v": 76
    },
    {
      "midi": 34,
      "hit": false,
      "t": 53803.5176250003,
      "d": 185.71409999999742,
      "v": 76
    },
    {
      "midi": 43,
      "hit": false,
      "t": 54017.80312500029,
      "d": 49.999949999997625,
      "v": 85
    },
    {
      "midi": 31,
      "hit": false,
      "t": 54017.8031250003,
      "d": 49.999949999997625,
      "v": 85
    },
    {
      "midi": 43,
      "hit": false,
      "t": 54232.08862500029,
      "d": 67.8570749999999,
      "v": 77
    },
    {
      "midi": 31,
      "hit": false,
      "t": 54232.088625000295,
      "d": 67.8570749999999,
      "v": 77
    },
    {
      "midi": 57,
      "hit": false,
      "t": 54446.37412500001,
      "d": 92.85704999999871,
      "v": 113
    },
    {
      "midi": 69,
      "hit": false,
      "t": 54446.37412500001,
      "d": 99.99989999999525,
      "v": 113
    },
    {
      "midi": 46,
      "hit": false,
      "t": 54446.37412500002,
      "d": 74.99992499999644,
      "v": 127
    },
    {
      "midi": 45,
      "hit": false,
      "t": 54446.374125000286,
      "d": 185.71409999999742,
      "v": 75
    },
    {
      "midi": 33,
      "hit": false,
      "t": 54446.37412500029,
      "d": 185.71409999999742,
      "v": 75
    },
    {
      "midi": 56,
      "hit": false,
      "t": 54660.65962500001,
      "d": 78.57134999999835,
      "v": 121
    },
    {
      "midi": 68,
      "hit": false,
      "t": 54660.65962500001,
      "d": 89.2856249999968,
      "v": 127
    },
    {
      "midi": 45,
      "hit": false,
      "t": 54660.659625000015,
      "d": 428.57100000000355,
      "v": 123
    },
    {
      "midi": 42,
      "hit": false,
      "t": 54660.659625000284,
      "d": 103.57132499999716,
      "v": 85
    },
    {
      "midi": 30,
      "hit": false,
      "t": 54660.65962500029,
      "d": 103.57132499999716,
      "v": 85
    },
    {
      "midi": 47,
      "hit": false,
      "t": 54874.94512500028,
      "d": 178.57125000000087,
      "v": 63
    },
    {
      "midi": 35,
      "hit": false,
      "t": 54874.94512500029,
      "d": 178.57125000000087,
      "v": 63
    },
    {
      "midi": 44,
      "hit": false,
      "t": 55089.23062500028,
      "d": 53.571374999999534,
      "v": 77
    },
    {
      "midi": 32,
      "hit": false,
      "t": 55089.23062500029,
      "d": 53.571374999999534,
      "v": 77
    },
    {
      "midi": 71,
      "hit": false,
      "t": 55303.516125,
      "d": 110.71417500000098,
      "v": 113
    },
    {
      "midi": 59,
      "hit": false,
      "t": 55303.516125,
      "d": 114.28560000000289,
      "v": 115
    },
    {
      "midi": 47,
      "hit": false,
      "t": 55303.51612500002,
      "d": 92.85704999999871,
      "v": 127
    },
    {
      "midi": 44,
      "hit": false,
      "t": 55303.51612500028,
      "d": 64.28564999999799,
      "v": 71
    },
    {
      "midi": 32,
      "hit": false,
      "t": 55303.516125000286,
      "d": 64.28564999999799,
      "v": 71
    },
    {
      "midi": 46,
      "hit": false,
      "t": 55517.80162500028,
      "d": 185.71409999999742,
      "v": 76
    },
    {
      "midi": 34,
      "hit": false,
      "t": 55517.801625000284,
      "d": 185.71409999999742,
      "v": 76
    },
    {
      "midi": 58,
      "hit": false,
      "t": 55732.087125000005,
      "d": 74.99992499999644,
      "v": 117
    },
    {
      "midi": 70,
      "hit": false,
      "t": 55732.087125000005,
      "d": 78.57134999999835,
      "v": 126
    },
    {
      "midi": 46,
      "hit": false,
      "t": 55732.08712500001,
      "d": 64.28564999999799,
      "v": 127
    },
    {
      "midi": 43,
      "hit": false,
      "t": 55732.087125000275,
      "d": 49.999949999997625,
      "v": 85
    },
    {
      "midi": 31,
      "hit": false,
      "t": 55732.08712500028,
      "d": 49.999949999997625,
      "v": 85
    },
    {
      "midi": 57,
      "hit": false,
      "t": 55946.372625,
      "d": 103.57132499999716,
      "v": 89
    },
    {
      "midi": 69,
      "hit": false,
      "t": 55946.372625,
      "d": 103.57132499999716,
      "v": 97
    },
    {
      "midi": 45,
      "hit": false,
      "t": 55946.37262500001,
      "d": 99.99990000000253,
      "v": 119
    },
    {
      "midi": 43,
      "hit": false,
      "t": 55946.37262500027,
      "d": 67.8570749999999,
      "v": 77
    },
    {
      "midi": 31,
      "hit": false,
      "t": 55946.37262500028,
      "d": 67.8570749999999,
      "v": 77
    },
    {
      "midi": 68,
      "hit": false,
      "t": 56160.658125,
      "d": 85.71420000000217,
      "v": 125
    },
    {
      "midi": 56,
      "hit": false,
      "t": 56160.658125,
      "d": 89.28562500000407,
      "v": 109
    },
    {
      "midi": 44,
      "hit": false,
      "t": 56160.658125000016,
      "d": 60.71422500000335,
      "v": 127
    },
    {
      "midi": 45,
      "hit": false,
      "t": 56160.65812500027,
      "d": 185.71409999999742,
      "v": 75
    },
    {
      "midi": 33,
      "hit": false,
      "t": 56160.65812500028,
      "d": 185.71409999999742,
      "v": 75
    },
    {
      "midi": 55,
      "hit": false,
      "t": 56374.94362500001,
      "d": 96.42847500000062,
      "v": 113
    },
    {
      "midi": 67,
      "hit": false,
      "t": 56374.94362500001,
      "d": 99.99990000000253,
      "v": 115
    },
    {
      "midi": 43,
      "hit": false,
      "t": 56374.94362500002,
      "d": 89.2856249999968,
      "v": 127
    },
    {
      "midi": 42,
      "hit": false,
      "t": 56374.94362500027,
      "d": 103.57132499999716,
      "v": 85
    },
    {
      "midi": 30,
      "hit": false,
      "t": 56374.94362500028,
      "d": 103.57132499999716,
      "v": 85
    },
    {
      "midi": 55,
      "hit": false,
      "t": 56799.94320000001,
      "d": 96.42847500000062,
      "v": 113
    },
    {
      "midi": 67,
      "hit": false,
      "t": 56799.94320000001,
      "d": 99.99990000000253,
      "v": 115
    },
    {
      "midi": 43,
      "hit": false,
      "t": 56799.943200000016,
      "d": 89.2856249999968,
      "v": 127
    },
    {
      "midi": 42,
      "hit": false,
      "t": 56799.94320000026,
      "d": 103.57132499999716,
      "v": 85
    },
    {
      "midi": 30,
      "hit": false,
      "t": 56799.94320000027,
      "d": 103.57132499999716,
      "v": 85
    },
    {
      "midi": 44,
      "hit": false,
      "t": 57014.228700000014,
      "d": 60.71422500000335,
      "v": 127
    },
    {
      "midi": 68,
      "hit": false,
      "t": 57014.228700000014,
      "d": 85.71420000000217,
      "v": 125
    },
    {
      "midi": 56,
      "hit": false,
      "t": 57014.228700000014,
      "d": 89.28562500000407,
      "v": 109
    },
    {
      "midi": 45,
      "hit": false,
      "t": 57014.22870000026,
      "d": 185.71409999999742,
      "v": 75
    },
    {
      "midi": 33,
      "hit": false,
      "t": 57014.22870000027,
      "d": 185.71409999999742,
      "v": 75
    },
    {
      "midi": 45,
      "hit": false,
      "t": 57228.51420000002,
      "d": 99.99990000000253,
      "v": 119
    },
    {
      "midi": 69,
      "hit": false,
      "t": 57228.51420000002,
      "d": 103.57132499999716,
      "v": 97
    },
    {
      "midi": 57,
      "hit": false,
      "t": 57228.51420000002,
      "d": 103.57132499999716,
      "v": 89
    },
    {
      "midi": 43,
      "hit": false,
      "t": 57228.51420000026,
      "d": 67.8570749999999,
      "v": 77
    },
    {
      "midi": 31,
      "hit": false,
      "t": 57228.51420000027,
      "d": 67.8570749999999,
      "v": 77
    },
    {
      "midi": 58,
      "hit": false,
      "t": 57442.79970000002,
      "d": 74.99992499999644,
      "v": 117
    },
    {
      "midi": 70,
      "hit": false,
      "t": 57442.79970000002,
      "d": 78.57134999999835,
      "v": 126
    },
    {
      "midi": 46,
      "hit": false,
      "t": 57442.799700000025,
      "d": 64.28564999999799,
      "v": 127
    },
    {
      "midi": 43,
      "hit": false,
      "t": 57442.79970000026,
      "d": 49.999949999997625,
      "v": 85
    },
    {
      "midi": 31,
      "hit": false,
      "t": 57442.799700000265,
      "d": 49.999949999997625,
      "v": 85
    },
    {
      "midi": 46,
      "hit": false,
      "t": 57657.085200000256,
      "d": 185.71409999999742,
      "v": 76
    },
    {
      "midi": 34,
      "hit": false,
      "t": 57657.08520000026,
      "d": 185.71409999999742,
      "v": 76
    },
    {
      "midi": 71,
      "hit": false,
      "t": 57871.370700000014,
      "d": 110.71417500000098,
      "v": 113
    },
    {
      "midi": 59,
      "hit": false,
      "t": 57871.370700000014,
      "d": 114.28560000000289,
      "v": 115
    },
    {
      "midi": 47,
      "hit": false,
      "t": 57871.37070000002,
      "d": 92.85704999999871,
      "v": 127
    },
    {
      "midi": 44,
      "hit": false,
      "t": 57871.370700000254,
      "d": 64.28564999999799,
      "v": 71
    },
    {
      "midi": 32,
      "hit": false,
      "t": 57871.37070000026,
      "d": 64.28564999999799,
      "v": 71
    },
    {
      "midi": 44,
      "hit": false,
      "t": 58085.65620000025,
      "d": 53.571374999999534,
      "v": 77
    },
    {
      "midi": 32,
      "hit": false,
      "t": 58085.65620000026,
      "d": 53.571374999999534,
      "v": 77
    },
    {
      "midi": 45,
      "hit": false,
      "t": 58303.51312500025,
      "d": 71.4285000000018,
      "v": 80
    },
    {
      "midi": 33,
      "hit": false,
      "t": 58303.51312500026,
      "d": 71.4285000000018,
      "v": 80
    },
    {
      "midi": 45,
      "hit": false,
      "t": 58517.79862500026,
      "d": 71.4285000000018,
      "v": 80
    },
    {
      "midi": 33,
      "hit": false,
      "t": 58517.798625000265,
      "d": 71.4285000000018,
      "v": 80
    },
    {
      "midi": 63,
      "hit": false,
      "t": 58728.512700000014,
      "d": 53.571374999999534,
      "v": 113
    },
    {
      "midi": 57,
      "hit": false,
      "t": 58728.512700000014,
      "d": 74.99992499999644,
      "v": 92
    },
    {
      "midi": 45,
      "hit": false,
      "t": 58728.51270000002,
      "d": 432.14242500000546,
      "v": 117
    },
    {
      "midi": 45,
      "hit": false,
      "t": 58732.08412500026,
      "d": 71.4285000000018,
      "v": 80
    },
    {
      "midi": 33,
      "hit": false,
      "t": 58732.08412500027,
      "d": 71.4285000000018,
      "v": 80
    },
    {
      "midi": 48,
      "hit": false,
      "t": 58946.36962500027,
      "d": 71.4285000000018,
      "v": 95
    },
    {
      "midi": 36,
      "hit": false,
      "t": 58946.369625000276,
      "d": 178.57125000000087,
      "v": 95
    },
    {
      "midi": 66,
      "hit": false,
      "t": 59157.08370000001,
      "d": 64.28564999999799,
      "v": 121
    },
    {
      "midi": 60,
      "hit": false,
      "t": 59157.08370000001,
      "d": 64.28564999999799,
      "v": 87
    },
    {
      "midi": 48,
      "hit": false,
      "t": 59157.083700000025,
      "d": 403.57102500000474,
      "v": 121
    },
    {
      "midi": 45,
      "hit": false,
      "t": 59160.655125000274,
      "d": 71.4285000000018,
      "v": 80
    },
    {
      "midi": 33,
      "hit": false,
      "t": 59160.655125000274,
      "d": 71.4285000000018,
      "v": 80
    },
    {
      "midi": 45,
      "hit": false,
      "t": 59374.94062500028,
      "d": 71.4285000000018,
      "v": 80
    },
    {
      "midi": 33,
      "hit": false,
      "t": 59374.94062500028,
      "d": 71.4285000000018,
      "v": 80
    },
    {
      "midi": 45,
      "hit": false,
      "t": 59585.65470000003,
      "d": 374.99962499999674,
      "v": 115
    },
    {
      "midi": 45,
      "hit": false,
      "t": 59589.226125000285,
      "d": 71.4285000000018,
      "v": 80
    },
    {
      "midi": 33,
      "hit": false,
      "t": 59589.226125000285,
      "d": 71.4285000000018,
      "v": 80
    },
    {
      "midi": 66,
      "hit": false,
      "t": 59799.94020000001,
      "d": 57.14280000000144,
      "v": 113
    },
    {
      "midi": 60,
      "hit": false,
      "t": 59799.94020000001,
      "d": 67.8570749999999,
      "v": 93
    },
    {
      "midi": 48,
      "hit": false,
      "t": 59799.94020000003,
      "d": 196.42837499999587,
      "v": 117
    },
    {
      "midi": 45,
      "hit": false,
      "t": 59803.51162500029,
      "d": 71.4285000000018,
      "v": 80
    },
    {
      "midi": 33,
      "hit": false,
      "t": 59803.51162500029,
      "d": 71.4285000000018,
      "v": 80
    },
    {
      "midi": 45,
      "hit": false,
      "t": 60017.797125000296,
      "d": 71.4285000000018,
      "v": 80
    },
    {
      "midi": 33,
      "hit": false,
      "t": 60017.797125000296,
      "d": 71.4285000000018,
      "v": 80
    },
    {
      "midi": 48,
      "hit": false,
      "t": 60232.0826250003,
      "d": 71.4285000000018,
      "v": 95
    },
    {
      "midi": 36,
      "hit": false,
      "t": 60232.0826250003,
      "d": 178.57125000000087,
      "v": 95
    },
    {
      "midi": 57,
      "hit": false,
      "t": 60442.79670000001,
      "d": 67.8570749999999,
      "v": 95
    },
    {
      "midi": 63,
      "hit": false,
      "t": 60442.79670000001,
      "d": 71.4285000000018,
      "v": 113
    },
    {
      "midi": 48,
      "hit": false,
      "t": 60442.79670000002,
      "d": 514.2851999999984,
      "v": 119
    },
    {
      "midi": 33,
      "hit": false,
      "t": 60446.3681250003,
      "d": 71.4285000000018,
      "v": 80
    },
    {
      "midi": 45,
      "hit": false,
      "t": 60446.36812500031,
      "d": 71.4285000000018,
      "v": 80
    },
    {
      "midi": 33,
      "hit": false,
      "t": 60660.653625000305,
      "d": 71.4285000000018,
      "v": 80
    },
    {
      "midi": 45,
      "hit": false,
      "t": 60660.65362500031,
      "d": 71.4285000000018,
      "v": 80
    },
    {
      "midi": 36,
      "hit": false,
      "t": 60874.93912500031,
      "d": 178.57125000000087,
      "v": 95
    },
    {
      "midi": 48,
      "hit": false,
      "t": 60874.93912500032,
      "d": 71.4285000000018,
      "v": 95
    },
    {
      "midi": 46,
      "hit": false,
      "t": 61085.6532,
      "d": 53.571374999999534,
      "v": 127
    },
    {
      "midi": 66,
      "hit": false,
      "t": 61085.653200000015,
      "d": 60.71422500000335,
      "v": 117
    },
    {
      "midi": 60,
      "hit": false,
      "t": 61085.653200000015,
      "d": 74.99992500000371,
      "v": 99
    },
    {
      "midi": 45,
      "hit": false,
      "t": 61085.65320000002,
      "d": 599.9994000000006,
      "v": 115
    },
    {
      "midi": 33,
      "hit": false,
      "t": 61089.22462500031,
      "d": 71.4285000000018,
      "v": 80
    },
    {
      "midi": 45,
      "hit": false,
      "t": 61089.22462500032,
      "d": 71.4285000000018,
      "v": 80
    },
    {
      "midi": 33,
      "hit": false,
      "t": 61303.51012500031,
      "d": 71.4285000000018,
      "v": 80
    },
    {
      "midi": 45,
      "hit": false,
      "t": 61303.51012500033,
      "d": 71.4285000000018,
      "v": 80
    },
    {
      "midi": 33,
      "hit": false,
      "t": 61517.79562500032,
      "d": 71.4285000000018,
      "v": 80
    },
    {
      "midi": 45,
      "hit": false,
      "t": 61517.79562500033,
      "d": 71.4285000000018,
      "v": 80
    }
  ]
}