{
  "jsonPath": "Ultima Online/dungeon9.json",
  "path": "Ultima Online\\dungeon9.mid",
  "name": "dungeon9",
  "difficulty": "Advanced",
  "bpm": 130.00013000013,
  "notes": [
    {
      "midi": 84,
      "hit": false,
      "t": 461.5379999999999,
      "d": 14769.216000000004,
      "v": 30
    },
    {
      "midi": 67,
      "hit": false,
      "t": 461.5379999999999,
      "d": 14769.216000000004,
      "v": 50
    },
    {
      "midi": 36,
      "hit": false,
      "t": 461.5379999999999,
      "d": 14769.216000000004,
      "v": 90
    },
    {
      "midi": 48,
      "hit": false,
      "t": 461.5379999999999,
      "d": 14769.216000000004,
      "v": 80
    },
    {
      "midi": 72,
      "hit": false,
      "t": 461.5379999999999,
      "d": 14769.216000000004,
      "v": 40
    },
    {
      "midi": 36,
      "hit": false,
      "t": 461.5379999999999,
      "d": 14769.215999999995,
      "v": 120
    },
    {
      "midi": 60,
      "hit": false,
      "t": 461.53799999999995,
      "d": 2326.9207499999998,
      "v": 93
    },
    {
      "midi": 48,
      "hit": false,
      "t": 461.53799999999995,
      "d": 80.76915000000002,
      "v": 101
    },
    {
      "midi": 36,
      "hit": false,
      "t": 461.53799999999995,
      "d": 80.76915000000002,
      "v": 101
    },
    {
      "midi": 36,
      "hit": false,
      "t": 461.53799999999995,
      "d": 111.53834999999998,
      "v": 127
    },
    {
      "midi": 48,
      "hit": false,
      "t": 673.07625,
      "d": 73.07685000000004,
      "v": 69
    },
    {
      "midi": 36,
      "hit": false,
      "t": 673.07625,
      "d": 73.07685000000004,
      "v": 69
    },
    {
      "midi": 48,
      "hit": false,
      "t": 884.6144999999999,
      "d": 76.923,
      "v": 77
    },
    {
      "midi": 36,
      "hit": false,
      "t": 884.6144999999999,
      "d": 76.923,
      "v": 77
    },
    {
      "midi": 48,
      "hit": false,
      "t": 1142.3065499999998,
      "d": 80.76915000000008,
      "v": 111
    },
    {
      "midi": 36,
      "hit": false,
      "t": 1142.3065499999998,
      "d": 80.76915000000008,
      "v": 111
    },
    {
      "midi": 36,
      "hit": false,
      "t": 1176.9218999999998,
      "d": 92.3076000000001,
      "v": 127
    },
    {
      "midi": 48,
      "hit": false,
      "t": 1365.3832499999999,
      "d": 73.07684999999992,
      "v": 77
    },
    {
      "midi": 36,
      "hit": false,
      "t": 1365.3832499999999,
      "d": 73.07684999999992,
      "v": 78
    },
    {
      "midi": 48,
      "hit": false,
      "t": 1588.4599499999997,
      "d": 65.38454999999999,
      "v": 71
    },
    {
      "midi": 36,
      "hit": false,
      "t": 1588.4599499999997,
      "d": 65.38454999999999,
      "v": 71
    },
    {
      "midi": 48,
      "hit": false,
      "t": 1838.4596999999997,
      "d": 73.07684999999992,
      "v": 111
    },
    {
      "midi": 36,
      "hit": false,
      "t": 1838.4596999999997,
      "d": 73.07684999999992,
      "v": 111
    },
    {
      "midi": 36,
      "hit": false,
      "t": 1842.3058499999997,
      "d": 92.3076000000001,
      "v": 127
    },
    {
      "midi": 48,
      "hit": false,
      "t": 2069.2286999999997,
      "d": 69.23070000000007,
      "v": 79
    },
    {
      "midi": 36,
      "hit": false,
      "t": 2069.2286999999997,
      "d": 69.23070000000007,
      "v": 79
    },
    {
      "midi": 48,
      "hit": false,
      "t": 2276.9208,
      "d": 69.23070000000007,
      "v": 75
    },
    {
      "midi": 36,
      "hit": false,
      "t": 2276.9208,
      "d": 69.23070000000007,
      "v": 75
    },
    {
      "midi": 48,
      "hit": false,
      "t": 2530.7667,
      "d": 76.92299999999977,
      "v": 106
    },
    {
      "midi": 36,
      "hit": false,
      "t": 2530.7667,
      "d": 76.92299999999977,
      "v": 106
    },
    {
      "midi": 36,
      "hit": false,
      "t": 2553.8435999999997,
      "d": 96.15374999999995,
      "v": 127
    },
    {
      "midi": 58,
      "hit": false,
      "t": 2738.4588,
      "d": 511.5379499999999,
      "v": 85
    },
    {
      "midi": 48,
      "hit": false,
      "t": 2749.99725,
      "d": 76.92299999999977,
      "v": 79
    },
    {
      "midi": 36,
      "hit": false,
      "t": 2749.99725,
      "d": 76.92299999999977,
      "v": 79
    },
    {
      "midi": 48,
      "hit": false,
      "t": 2973.0739499999995,
      "d": 65.38455000000022,
      "v": 79
    },
    {
      "midi": 36,
      "hit": false,
      "t": 2973.0739499999995,
      "d": 65.38455000000022,
      "v": 79
    },
    {
      "midi": 48,
      "hit": false,
      "t": 3215.3813999999998,
      "d": 76.92299999999977,
      "v": 103
    },
    {
      "midi": 36,
      "hit": false,
      "t": 3215.3813999999998,
      "d": 76.92299999999977,
      "v": 103
    },
    {
      "midi": 36,
      "hit": false,
      "t": 3219.2275499999996,
      "d": 80.76915000000008,
      "v": 127
    },
    {
      "midi": 61,
      "hit": false,
      "t": 3234.61215,
      "d": 419.2303499999998,
      "v": 78
    },
    {
      "midi": 48,
      "hit": false,
      "t": 3446.1503999999995,
      "d": 76.92299999999977,
      "v": 78
    },
    {
      "midi": 36,
      "hit": false,
      "t": 3446.1503999999995,
      "d": 76.92299999999977,
      "v": 78
    },
    {
      "midi": 39,
      "hit": false,
      "t": 3453.8426999999997,
      "d": 65.38455000000022,
      "v": 127
    },
    {
      "midi": 58,
      "hit": false,
      "t": 3665.3809499999998,
      "d": 469.23029999999926,
      "v": 75
    },
    {
      "midi": 41,
      "hit": false,
      "t": 3673.07325,
      "d": 76.92299999999977,
      "v": 127
    },
    {
      "midi": 48,
      "hit": false,
      "t": 3676.9193999999993,
      "d": 80.76915000000008,
      "v": 87
    },
    {
      "midi": 36,
      "hit": false,
      "t": 3676.9193999999993,
      "d": 80.76915000000008,
      "v": 87
    },
    {
      "midi": 43,
      "hit": false,
      "t": 3907.6883999999995,
      "d": 73.07684999999992,
      "v": 127
    },
    {
      "midi": 48,
      "hit": false,
      "t": 3911.5345499999994,
      "d": 61.53839999999991,
      "v": 77
    },
    {
      "midi": 36,
      "hit": false,
      "t": 3911.5345499999994,
      "d": 61.53839999999991,
      "v": 77
    },
    {
      "midi": 36,
      "hit": false,
      "t": 3923.0729999999994,
      "d": 115.38450000000012,
      "v": 110
    },
    {
      "midi": 24,
      "hit": false,
      "t": 3923.0729999999994,
      "d": 115.38450000000012,
      "v": 110
    },
    {
      "midi": 60,
      "hit": false,
      "t": 4126.918949999999,
      "d": 2334.61305,
      "v": 82
    },
    {
      "midi": 48,
      "hit": false,
      "t": 4149.995849999999,
      "d": 76.92299999999977,
      "v": 106
    },
    {
      "midi": 36,
      "hit": false,
      "t": 4149.995849999999,
      "d": 76.92299999999977,
      "v": 106
    },
    {
      "midi": 48,
      "hit": false,
      "t": 4153.842,
      "d": 11999.987999999994,
      "v": 100
    },
    {
      "midi": 36,
      "hit": false,
      "t": 4153.842,
      "d": 115.38450000000012,
      "v": 110
    },
    {
      "midi": 24,
      "hit": false,
      "t": 4153.842,
      "d": 115.38450000000012,
      "v": 110
    },
    {
      "midi": 36,
      "hit": false,
      "t": 4153.842,
      "d": 84.61530000000039,
      "v": 127
    },
    {
      "midi": 48,
      "hit": false,
      "t": 4376.918699999999,
      "d": 73.07685000000038,
      "v": 78
    },
    {
      "midi": 36,
      "hit": false,
      "t": 4376.918699999999,
      "d": 73.07685000000038,
      "v": 78
    },
    {
      "midi": 48,
      "hit": false,
      "t": 4596.1492499999995,
      "d": 61.538400000000365,
      "v": 72
    },
    {
      "midi": 36,
      "hit": false,
      "t": 4596.1492499999995,
      "d": 61.538400000000365,
      "v": 72
    },
    {
      "midi": 48,
      "hit": false,
      "t": 4846.148999999999,
      "d": 76.92299999999977,
      "v": 103
    },
    {
      "midi": 36,
      "hit": false,
      "t": 4846.148999999999,
      "d": 76.92299999999977,
      "v": 103
    },
    {
      "midi": 36,
      "hit": false,
      "t": 4846.149,
      "d": 84.61530000000039,
      "v": 127
    },
    {
      "midi": 48,
      "hit": false,
      "t": 5053.8411,
      "d": 69.23070000000007,
      "v": 77
    },
    {
      "midi": 36,
      "hit": false,
      "t": 5053.8411,
      "d": 69.23070000000007,
      "v": 77
    },
    {
      "midi": 48,
      "hit": false,
      "t": 5265.379349999999,
      "d": 73.07685000000038,
      "v": 74
    },
    {
      "midi": 36,
      "hit": false,
      "t": 5265.379349999999,
      "d": 73.07685000000038,
      "v": 74
    },
    {
      "midi": 48,
      "hit": false,
      "t": 5526.917549999999,
      "d": 76.92299999999977,
      "v": 103
    },
    {
      "midi": 36,
      "hit": false,
      "t": 5526.917549999999,
      "d": 76.92299999999977,
      "v": 103
    },
    {
      "midi": 36,
      "hit": false,
      "t": 5530.7637,
      "d": 84.61530000000039,
      "v": 127
    },
    {
      "midi": 48,
      "hit": false,
      "t": 5742.301949999999,
      "d": 65.38454999999976,
      "v": 74
    },
    {
      "midi": 36,
      "hit": false,
      "t": 5742.301949999999,
      "d": 65.38454999999976,
      "v": 74
    },
    {
      "midi": 48,
      "hit": false,
      "t": 5965.378649999999,
      "d": 65.38454999999976,
      "v": 77
    },
    {
      "midi": 36,
      "hit": false,
      "t": 5965.378649999999,
      "d": 65.38454999999976,
      "v": 77
    },
    {
      "midi": 48,
      "hit": false,
      "t": 6215.378399999999,
      "d": 73.07685000000038,
      "v": 109
    },
    {
      "midi": 36,
      "hit": false,
      "t": 6215.378399999999,
      "d": 73.07685000000038,
      "v": 109
    },
    {
      "midi": 36,
      "hit": false,
      "t": 6226.9168500000005,
      "d": 88.46144999999979,
      "v": 127
    },
    {
      "midi": 48,
      "hit": false,
      "t": 6423.070499999999,
      "d": 69.23070000000007,
      "v": 66
    },
    {
      "midi": 36,
      "hit": false,
      "t": 6423.070499999999,
      "d": 69.23070000000007,
      "v": 66
    },
    {
      "midi": 61,
      "hit": false,
      "t": 6438.455099999999,
      "d": 465.38414999999986,
      "v": 82
    },
    {
      "midi": 48,
      "hit": false,
      "t": 6646.1471999999985,
      "d": 73.07685000000038,
      "v": 78
    },
    {
      "midi": 36,
      "hit": false,
      "t": 6646.1471999999985,
      "d": 73.07685000000038,
      "v": 78
    },
    {
      "midi": 43,
      "hit": false,
      "t": 6888.454650000001,
      "d": 80.76915000000008,
      "v": 127
    },
    {
      "midi": 48,
      "hit": false,
      "t": 6903.839249999999,
      "d": 69.23070000000007,
      "v": 101
    },
    {
      "midi": 36,
      "hit": false,
      "t": 6903.839249999999,
      "d": 69.23070000000007,
      "v": 101
    },
    {
      "midi": 58,
      "hit": false,
      "t": 6907.685399999999,
      "d": 465.38414999999986,
      "v": 79
    },
    {
      "midi": 42,
      "hit": false,
      "t": 7099.992900000001,
      "d": 65.38454999999976,
      "v": 127
    },
    {
      "midi": 48,
      "hit": false,
      "t": 7119.223649999999,
      "d": 69.23070000000007,
      "v": 77
    },
    {
      "midi": 36,
      "hit": false,
      "t": 7119.223649999999,
      "d": 69.23070000000007,
      "v": 77
    },
    {
      "midi": 41,
      "hit": false,
      "t": 7323.069600000001,
      "d": 69.23070000000007,
      "v": 127
    },
    {
      "midi": 48,
      "hit": false,
      "t": 7338.454199999999,
      "d": 69.23070000000007,
      "v": 87
    },
    {
      "midi": 36,
      "hit": false,
      "t": 7338.454199999999,
      "d": 69.23070000000007,
      "v": 87
    },
    {
      "midi": 61,
      "hit": false,
      "t": 7349.992649999999,
      "d": 488.4610499999999,
      "v": 78
    },
    {
      "midi": 48,
      "hit": false,
      "t": 7565.377049999999,
      "d": 61.538400000000365,
      "v": 78
    },
    {
      "midi": 36,
      "hit": false,
      "t": 7565.377049999999,
      "d": 61.538400000000365,
      "v": 78
    },
    {
      "midi": 39,
      "hit": false,
      "t": 7565.377050000001,
      "d": 76.92299999999977,
      "v": 127
    },
    {
      "midi": 48,
      "hit": false,
      "t": 7819.222949999999,
      "d": 73.07685000000038,
      "v": 111
    },
    {
      "midi": 36,
      "hit": false,
      "t": 7819.222949999999,
      "d": 73.07685000000038,
      "v": 111
    },
    {
      "midi": 36,
      "hit": false,
      "t": 7819.22295,
      "d": 80.76915000000008,
      "v": 127
    },
    {
      "midi": 72,
      "hit": false,
      "t": 7834.607549999999,
      "d": 7269.223500000022,
      "v": 95
    },
    {
      "midi": 60,
      "hit": false,
      "t": 7842.299849999999,
      "d": 2284.6131000000005,
      "v": 82
    },
    {
      "midi": 36,
      "hit": false,
      "t": 7846.145999999999,
      "d": 115.38450000000012,
      "v": 110
    },
    {
      "midi": 24,
      "hit": false,
      "t": 7846.145999999999,
      "d": 115.38450000000012,
      "v": 110
    },
    {
      "midi": 84,
      "hit": false,
      "t": 7846.146000000001,
      "d": 8307.683999999994,
      "v": 70
    },
    {
      "midi": 48,
      "hit": false,
      "t": 8046.145799999999,
      "d": 69.23070000000007,
      "v": 79
    },
    {
      "midi": 36,
      "hit": false,
      "t": 8046.145799999999,
      "d": 69.23070000000007,
      "v": 79
    },
    {
      "midi": 48,
      "hit": false,
      "t": 8269.2225,
      "d": 61.538399999999456,
      "v": 79
    },
    {
      "midi": 36,
      "hit": false,
      "t": 8269.2225,
      "d": 61.538399999999456,
      "v": 79
    },
    {
      "midi": 48,
      "hit": false,
      "t": 8515.3761,
      "d": 76.92300000000068,
      "v": 101
    },
    {
      "midi": 36,
      "hit": false,
      "t": 8515.3761,
      "d": 76.92300000000068,
      "v": 101
    },
    {
      "midi": 36,
      "hit": false,
      "t": 8519.22225,
      "d": 88.4614500000007,
      "v": 127
    },
    {
      "midi": 48,
      "hit": false,
      "t": 8734.60665,
      "d": 73.07684999999947,
      "v": 78
    },
    {
      "midi": 36,
      "hit": false,
      "t": 8734.60665,
      "d": 73.07684999999947,
      "v": 78
    },
    {
      "midi": 48,
      "hit": false,
      "t": 8957.68335,
      "d": 61.538399999999456,
      "v": 77
    },
    {
      "midi": 36,
      "hit": false,
      "t": 8957.68335,
      "d": 61.538399999999456,
      "v": 77
    },
    {
      "midi": 48,
      "hit": false,
      "t": 9199.9908,
      "d": 73.07684999999947,
      "v": 103
    },
    {
      "midi": 36,
      "hit": false,
      "t": 9199.9908,
      "d": 73.07684999999947,
      "v": 103
    },
    {
      "midi": 36,
      "hit": false,
      "t": 9211.529250000001,
      "d": 88.4614500000007,
      "v": 127
    },
    {
      "midi": 48,
      "hit": false,
      "t": 9426.913649999999,
      "d": 69.23070000000007,
      "v": 74
    },
    {
      "midi": 36,
      "hit": false,
      "t": 9426.913649999999,
      "d": 69.23070000000007,
      "v": 74
    },
    {
      "midi": 48,
      "hit": false,
      "t": 9653.8365,
      "d": 65.38455000000067,
      "v": 78
    },
    {
      "midi": 36,
      "hit": false,
      "t": 9653.8365,
      "d": 65.38455000000067,
      "v": 78
    },
    {
      "midi": 48,
      "hit": false,
      "t": 9911.52855,
      "d": 69.23070000000007,
      "v": 106
    },
    {
      "midi": 36,
      "hit": false,
      "t": 9911.52855,
      "d": 69.23070000000007,
      "v": 106
    },
    {
      "midi": 36,
      "hit": false,
      "t": 9911.528550000003,
      "d": 80.76915000000008,
      "v": 127
    },
    {
      "midi": 58,
      "hit": false,
      "t": 10119.22065,
      "d": 449.99955000000045,
      "v": 77
    },
    {
      "midi": 48,
      "hit": false,
      "t": 10119.220650000001,
      "d": 73.07684999999947,
      "v": 78
    },
    {
      "midi": 36,
      "hit": false,
      "t": 10119.220650000001,
      "d": 73.07684999999947,
      "v": 78
    },
    {
      "midi": 48,
      "hit": false,
      "t": 10334.60505,
      "d": 61.538399999999456,
      "v": 75
    },
    {
      "midi": 36,
      "hit": false,
      "t": 10334.60505,
      "d": 61.538399999999456,
      "v": 75
    },
    {
      "midi": 61,
      "hit": false,
      "t": 10546.1433,
      "d": 511.5379499999999,
      "v": 65
    },
    {
      "midi": 48,
      "hit": false,
      "t": 10569.2202,
      "d": 76.92300000000068,
      "v": 101
    },
    {
      "midi": 36,
      "hit": false,
      "t": 10569.2202,
      "d": 76.92300000000068,
      "v": 101
    },
    {
      "midi": 36,
      "hit": false,
      "t": 10592.297100000003,
      "d": 80.76915000000008,
      "v": 127
    },
    {
      "midi": 39,
      "hit": false,
      "t": 10792.296900000003,
      "d": 65.38455000000067,
      "v": 127
    },
    {
      "midi": 48,
      "hit": false,
      "t": 10799.9892,
      "d": 69.23070000000007,
      "v": 78
    },
    {
      "midi": 36,
      "hit": false,
      "t": 10799.9892,
      "d": 69.23070000000007,
      "v": 78
    },
    {
      "midi": 41,
      "hit": false,
      "t": 11007.681300000004,
      "d": 84.61529999999948,
      "v": 127
    },
    {
      "midi": 48,
      "hit": false,
      "t": 11019.21975,
      "d": 76.92300000000068,
      "v": 87
    },
    {
      "midi": 36,
      "hit": false,
      "t": 11019.21975,
      "d": 76.92300000000068,
      "v": 87
    },
    {
      "midi": 58,
      "hit": false,
      "t": 11053.8351,
      "d": 461.53799999999865,
      "v": 77
    },
    {
      "midi": 43,
      "hit": false,
      "t": 11223.065700000003,
      "d": 76.92300000000068,
      "v": 127
    },
    {
      "midi": 48,
      "hit": false,
      "t": 11253.834900000002,
      "d": 61.538399999999456,
      "v": 82
    },
    {
      "midi": 36,
      "hit": false,
      "t": 11253.834900000002,
      "d": 61.538399999999456,
      "v": 82
    },
    {
      "midi": 36,
      "hit": false,
      "t": 11269.2195,
      "d": 115.38450000000012,
      "v": 110
    },
    {
      "midi": 24,
      "hit": false,
      "t": 11269.2195,
      "d": 115.38450000000012,
      "v": 110
    },
    {
      "midi": 61,
      "hit": false,
      "t": 11492.296199999999,
      "d": 242.30744999999843,
      "v": 125
    },
    {
      "midi": 36,
      "hit": false,
      "t": 11492.296200000004,
      "d": 92.3076000000001,
      "v": 127
    },
    {
      "midi": 60,
      "hit": false,
      "t": 11499.9885,
      "d": 3492.3041999999987,
      "v": 72
    },
    {
      "midi": 24,
      "hit": false,
      "t": 11499.9885,
      "d": 115.38450000000012,
      "v": 110
    },
    {
      "midi": 36,
      "hit": false,
      "t": 11499.9885,
      "d": 115.38450000000012,
      "v": 110
    },
    {
      "midi": 73,
      "hit": false,
      "t": 11507.680799999998,
      "d": 215.384399999999,
      "v": 125
    },
    {
      "midi": 48,
      "hit": false,
      "t": 11507.680800000002,
      "d": 73.07684999999947,
      "v": 103
    },
    {
      "midi": 36,
      "hit": false,
      "t": 11507.680800000002,
      "d": 73.07684999999947,
      "v": 103
    },
    {
      "midi": 36,
      "hit": false,
      "t": 11546.1423,
      "d": 3723.073199999999,
      "v": 100
    },
    {
      "midi": 43,
      "hit": false,
      "t": 11546.1423,
      "d": 3723.073199999999,
      "v": 100
    },
    {
      "midi": 60,
      "hit": false,
      "t": 11715.372899999998,
      "d": 207.6920999999984,
      "v": 125
    },
    {
      "midi": 72,
      "hit": false,
      "t": 11719.219049999998,
      "d": 180.76904999999897,
      "v": 125
    },
    {
      "midi": 48,
      "hit": false,
      "t": 11734.603650000001,
      "d": 69.23070000000007,
      "v": 77
    },
    {
      "midi": 36,
      "hit": false,
      "t": 11734.603650000001,
      "d": 69.23070000000007,
      "v": 77
    },
    {
      "midi": 48,
      "hit": false,
      "t": 11961.526500000002,
      "d": 69.23070000000007,
      "v": 85
    },
    {
      "midi": 36,
      "hit": false,
      "t": 11961.526500000002,
      "d": 69.23070000000007,
      "v": 85
    },
    {
      "midi": 48,
      "hit": false,
      "t": 12219.218550000001,
      "d": 73.07684999999947,
      "v": 111
    },
    {
      "midi": 36,
      "hit": false,
      "t": 12219.218550000001,
      "d": 73.07684999999947,
      "v": 111
    },
    {
      "midi": 36,
      "hit": false,
      "t": 12226.910850000004,
      "d": 134.61525000000074,
      "v": 127
    },
    {
      "midi": 48,
      "hit": false,
      "t": 12434.60295,
      "d": 73.07684999999947,
      "v": 77
    },
    {
      "midi": 36,
      "hit": false,
      "t": 12434.60295,
      "d": 73.07684999999947,
      "v": 77
    },
    {
      "midi": 48,
      "hit": false,
      "t": 12665.37195,
      "d": 65.38455000000067,
      "v": 77
    },
    {
      "midi": 36,
      "hit": false,
      "t": 12665.37195,
      "d": 65.38455000000067,
      "v": 77
    },
    {
      "midi": 36,
      "hit": false,
      "t": 12903.833250000005,
      "d": 119.23064999999951,
      "v": 127
    },
    {
      "midi": 48,
      "hit": false,
      "t": 12919.21785,
      "d": 76.92300000000068,
      "v": 111
    },
    {
      "midi": 36,
      "hit": false,
      "t": 12919.21785,
      "d": 76.92300000000068,
      "v": 111
    },
    {
      "midi": 48,
      "hit": false,
      "t": 13134.602250000002,
      "d": 73.07684999999947,
      "v": 72
    },
    {
      "midi": 36,
      "hit": false,
      "t": 13134.602250000002,
      "d": 73.07684999999947,
      "v": 72
    },
    {
      "midi": 48,
      "hit": false,
      "t": 13361.5251,
      "d": 69.23070000000007,
      "v": 77
    },
    {
      "midi": 36,
      "hit": false,
      "t": 13361.5251,
      "d": 69.23070000000007,
      "v": 77
    },
    {
      "midi": 48,
      "hit": false,
      "t": 13611.524850000002,
      "d": 73.07684999999947,
      "v": 109
    },
    {
      "midi": 36,
      "hit": false,
      "t": 13611.524850000002,
      "d": 73.07684999999947,
      "v": 109
    },
    {
      "midi": 36,
      "hit": false,
      "t": 13626.909450000005,
      "d": 103.8460500000001,
      "v": 127
    },
    {
      "midi": 36,
      "hit": false,
      "t": 13730.755499999997,
      "d": 1384.6139999999996,
      "v": 125
    },
    {
      "midi": 0,
      "hit": false,
      "t": 13730.755499999997,
      "d": 1384.6139999999996,
      "v": 125
    },
    {
      "midi": 12,
      "hit": false,
      "t": 13730.755499999997,
      "d": 1384.6139999999996,
      "v": 125
    },
    {
      "midi": 24,
      "hit": false,
      "t": 13730.755499999997,
      "d": 1384.6139999999996,
      "v": 125
    },
    {
      "midi": 48,
      "hit": false,
      "t": 13819.216950000002,
      "d": 73.07684999999947,
      "v": 69
    },
    {
      "midi": 36,
      "hit": false,
      "t": 13819.216950000002,
      "d": 73.07684999999947,
      "v": 69
    },
    {
      "midi": 48,
      "hit": false,
      "t": 14057.67825,
      "d": 61.538399999999456,
      "v": 77
    },
    {
      "midi": 36,
      "hit": false,
      "t": 14057.67825,
      "d": 61.538399999999456,
      "v": 77
    },
    {
      "midi": 43,
      "hit": false,
      "t": 14280.754950000004,
      "d": 69.23070000000007,
      "v": 127
    },
    {
      "midi": 48,
      "hit": false,
      "t": 14288.447250000001,
      "d": 73.07684999999947,
      "v": 103
    },
    {
      "midi": 36,
      "hit": false,
      "t": 14288.447250000001,
      "d": 73.07684999999947,
      "v": 103
    },
    {
      "midi": 48,
      "hit": false,
      "t": 14503.83165,
      "d": 73.07684999999947,
      "v": 72
    },
    {
      "midi": 36,
      "hit": false,
      "t": 14503.83165,
      "d": 73.07684999999947,
      "v": 72
    },
    {
      "midi": 41,
      "hit": false,
      "t": 14503.831650000004,
      "d": 69.23070000000007,
      "v": 127
    },
    {
      "midi": 39,
      "hit": false,
      "t": 14723.062200000004,
      "d": 69.23070000000007,
      "v": 127
    },
    {
      "midi": 48,
      "hit": false,
      "t": 14730.7545,
      "d": 73.07684999999947,
      "v": 79
    },
    {
      "midi": 36,
      "hit": false,
      "t": 14730.7545,
      "d": 73.07684999999947,
      "v": 79
    },
    {
      "midi": 48,
      "hit": false,
      "t": 14946.138899999998,
      "d": 61.538399999999456,
      "v": 72
    },
    {
      "midi": 36,
      "hit": false,
      "t": 14946.138899999998,
      "d": 61.538399999999456,
      "v": 72
    },
    {
      "midi": 36,
      "hit": false,
      "t": 14953.831200000004,
      "d": 73.07684999999947,
      "v": 127
    },
    {
      "midi": 41,
      "hit": false,
      "t": 15184.600199999999,
      "d": 115.38450000000012,
      "v": 110
    },
    {
      "midi": 29,
      "hit": false,
      "t": 15184.600199999999,
      "d": 115.38450000000012,
      "v": 110
    },
    {
      "midi": 65,
      "hit": false,
      "t": 15196.138649999999,
      "d": 2280.7669499999993,
      "v": 93
    },
    {
      "midi": 53,
      "hit": false,
      "t": 15199.984799999998,
      "d": 73.07684999999947,
      "v": 106
    },
    {
      "midi": 41,
      "hit": false,
      "t": 15199.984799999998,
      "d": 73.07684999999947,
      "v": 106
    },
    {
      "midi": 41,
      "hit": false,
      "t": 15226.907850000003,
      "d": 92.3076000000001,
      "v": 127
    },
    {
      "midi": 65,
      "hit": false,
      "t": 15230.753999999995,
      "d": 14380.754849999996,
      "v": 105
    },
    {
      "midi": 53,
      "hit": false,
      "t": 15230.753999999995,
      "d": 14396.139449999997,
      "v": 103
    },
    {
      "midi": 41,
      "hit": false,
      "t": 15230.753999999995,
      "d": 14446.139399999998,
      "v": 106
    },
    {
      "midi": 65,
      "hit": false,
      "t": 15230.753999999999,
      "d": 14769.215999999999,
      "v": 80
    },
    {
      "midi": 41,
      "hit": false,
      "t": 15230.753999999999,
      "d": 14769.215999999999,
      "v": 80
    },
    {
      "midi": 53,
      "hit": false,
      "t": 15230.753999999999,
      "d": 14769.215999999999,
      "v": 80
    },
    {
      "midi": 12,
      "hit": false,
      "t": 15230.754,
      "d": 3692.304,
      "v": 127
    },
    {
      "midi": 24,
      "hit": false,
      "t": 15230.754,
      "d": 3692.304,
      "v": 127
    },
    {
      "midi": 48,
      "hit": false,
      "t": 15230.754,
      "d": 3692.304,
      "v": 127
    },
    {
      "midi": 36,
      "hit": false,
      "t": 15230.754,
      "d": 3692.304,
      "v": 127
    },
    {
      "midi": 43,
      "hit": false,
      "t": 15230.754000000003,
      "d": 80.76915000000008,
      "v": 127
    },
    {
      "midi": 65,
      "hit": false,
      "t": 15230.754000000004,
      "d": 14380.754849999998,
      "v": 70
    },
    {
      "midi": 53,
      "hit": false,
      "t": 15230.754000000004,
      "d": 14396.139449999999,
      "v": 70
    },
    {
      "midi": 41,
      "hit": false,
      "t": 15230.754000000004,
      "d": 14446.1394,
      "v": 80
    },
    {
      "midi": 53,
      "hit": false,
      "t": 15423.061499999998,
      "d": 61.538399999999456,
      "v": 61
    },
    {
      "midi": 41,
      "hit": false,
      "t": 15423.061499999998,
      "d": 61.538399999999456,
      "v": 61
    },
    {
      "midi": 53,
      "hit": false,
      "t": 15649.984349999997,
      "d": 42.30765000000065,
      "v": 33
    },
    {
      "midi": 41,
      "hit": false,
      "t": 15649.984349999997,
      "d": 42.30765000000065,
      "v": 33
    },
    {
      "midi": 53,
      "hit": false,
      "t": 15865.368749999998,
      "d": 73.07684999999947,
      "v": 87
    },
    {
      "midi": 41,
      "hit": false,
      "t": 15865.368749999998,
      "d": 73.07684999999947,
      "v": 87
    },
    {
      "midi": 41,
      "hit": false,
      "t": 15896.137950000004,
      "d": 96.15374999999949,
      "v": 127
    },
    {
      "midi": 53,
      "hit": false,
      "t": 16099.983899999997,
      "d": 53.84610000000066,
      "v": 66
    },
    {
      "midi": 41,
      "hit": false,
      "t": 16099.983899999997,
      "d": 53.84610000000066,
      "v": 66
    },
    {
      "midi": 53,
      "hit": false,
      "t": 16307.675999999998,
      "d": 57.69225000000006,
      "v": 66
    },
    {
      "midi": 41,
      "hit": false,
      "t": 16307.675999999998,
      "d": 57.69225000000006,
      "v": 66
    },
    {
      "midi": 53,
      "hit": false,
      "t": 16584.598799999996,
      "d": 76.92299999999886,
      "v": 106
    },
    {
      "midi": 41,
      "hit": false,
      "t": 16584.598799999996,
      "d": 76.92299999999886,
      "v": 106
    },
    {
      "midi": 41,
      "hit": false,
      "t": 16584.598800000003,
      "d": 88.46144999999888,
      "v": 127
    },
    {
      "midi": 53,
      "hit": false,
      "t": 16807.675499999994,
      "d": 57.69225000000006,
      "v": 55
    },
    {
      "midi": 41,
      "hit": false,
      "t": 16807.675499999994,
      "d": 57.69225000000006,
      "v": 55
    },
    {
      "midi": 53,
      "hit": false,
      "t": 17015.367599999994,
      "d": 57.69225000000006,
      "v": 74
    },
    {
      "midi": 41,
      "hit": false,
      "t": 17015.367599999994,
      "d": 57.69225000000006,
      "v": 74
    },
    {
      "midi": 53,
      "hit": false,
      "t": 17261.521199999996,
      "d": 69.23070000000007,
      "v": 95
    },
    {
      "midi": 41,
      "hit": false,
      "t": 17261.521199999996,
      "d": 69.23070000000007,
      "v": 95
    },
    {
      "midi": 41,
      "hit": false,
      "t": 17284.598100000003,
      "d": 88.46144999999888,
      "v": 127
    },
    {
      "midi": 53,
      "hit": false,
      "t": 17484.597899999997,
      "d": 57.69225000000006,
      "v": 72
    },
    {
      "midi": 41,
      "hit": false,
      "t": 17484.597899999997,
      "d": 57.69225000000006,
      "v": 72
    },
    {
      "midi": 63,
      "hit": false,
      "t": 17492.2902,
      "d": 503.8456499999993,
      "v": 77
    },
    {
      "midi": 53,
      "hit": false,
      "t": 17696.13615,
      "d": 61.538400000001275,
      "v": 74
    },
    {
      "midi": 41,
      "hit": false,
      "t": 17696.13615,
      "d": 61.538400000001275,
      "v": 74
    },
    {
      "midi": 53,
      "hit": false,
      "t": 17946.1359,
      "d": 76.92299999999886,
      "v": 103
    },
    {
      "midi": 41,
      "hit": false,
      "t": 17946.1359,
      "d": 76.92299999999886,
      "v": 103
    },
    {
      "midi": 41,
      "hit": false,
      "t": 17957.67435,
      "d": 76.92299999999886,
      "v": 127
    },
    {
      "midi": 66,
      "hit": false,
      "t": 17976.9051,
      "d": 434.6149499999992,
      "v": 87
    },
    {
      "midi": 53,
      "hit": false,
      "t": 18165.36645,
      "d": 65.38454999999885,
      "v": 69
    },
    {
      "midi": 41,
      "hit": false,
      "t": 18165.36645,
      "d": 65.38454999999885,
      "v": 69
    },
    {
      "midi": 43,
      "hit": false,
      "t": 18176.9049,
      "d": 65.38454999999885,
      "v": 127
    },
    {
      "midi": 44,
      "hit": false,
      "t": 18388.44315,
      "d": 69.23070000000007,
      "v": 127
    },
    {
      "midi": 53,
      "hit": false,
      "t": 18396.13545,
      "d": 69.23070000000007,
      "v": 85
    },
    {
      "midi": 41,
      "hit": false,
      "t": 18396.13545,
      "d": 69.23070000000007,
      "v": 85
    },
    {
      "midi": 63,
      "hit": false,
      "t": 18415.3662,
      "d": 465.38414999999804,
      "v": 87
    },
    {
      "midi": 45,
      "hit": false,
      "t": 18423.0585,
      "d": 61.538400000001275,
      "v": 127
    },
    {
      "midi": 53,
      "hit": false,
      "t": 18611.51985,
      "d": 49.99995000000126,
      "v": 68
    },
    {
      "midi": 41,
      "hit": false,
      "t": 18611.51985,
      "d": 49.99995000000126,
      "v": 68
    },
    {
      "midi": 48,
      "hit": false,
      "t": 18615.366,
      "d": 80.76915000000008,
      "v": 127
    },
    {
      "midi": 41,
      "hit": false,
      "t": 18649.98135,
      "d": 115.38450000000012,
      "v": 110
    },
    {
      "midi": 29,
      "hit": false,
      "t": 18649.98135,
      "d": 115.38450000000012,
      "v": 110
    },
    {
      "midi": 65,
      "hit": false,
      "t": 18873.05805,
      "d": 2353.8437999999987,
      "v": 90
    },
    {
      "midi": 53,
      "hit": false,
      "t": 18873.058050000003,
      "d": 73.07685000000129,
      "v": 103
    },
    {
      "midi": 41,
      "hit": false,
      "t": 18873.058050000003,
      "d": 73.07685000000129,
      "v": 103
    },
    {
      "midi": 41,
      "hit": false,
      "t": 18876.9042,
      "d": 92.3076000000001,
      "v": 127
    },
    {
      "midi": 41,
      "hit": false,
      "t": 18903.82725,
      "d": 115.38450000000012,
      "v": 110
    },
    {
      "midi": 29,
      "hit": false,
      "t": 18903.82725,
      "d": 115.38450000000012,
      "v": 110
    },
    {
      "midi": 53,
      "hit": false,
      "t": 19096.134750000005,
      "d": 61.538400000001275,
      "v": 66
    },
    {
      "midi": 41,
      "hit": false,
      "t": 19096.134750000005,
      "d": 61.538400000001275,
      "v": 66
    },
    {
      "midi": 53,
      "hit": false,
      "t": 19326.903750000005,
      "d": 61.538400000001275,
      "v": 82
    },
    {
      "midi": 41,
      "hit": false,
      "t": 19326.903750000005,
      "d": 61.538400000001275,
      "v": 82
    },
    {
      "midi": 53,
      "hit": false,
      "t": 19576.903500000008,
      "d": 69.23070000000007,
      "v": 103
    },
    {
      "midi": 41,
      "hit": false,
      "t": 19576.903500000008,
      "d": 69.23070000000007,
      "v": 103
    },
    {
      "midi": 41,
      "hit": false,
      "t": 19580.74965,
      "d": 84.6153000000013,
      "v": 127
    },
    {
      "midi": 53,
      "hit": false,
      "t": 19823.05710000001,
      "d": 61.538400000001275,
      "v": 75
    },
    {
      "midi": 41,
      "hit": false,
      "t": 19823.05710000001,
      "d": 61.538400000001275,
      "v": 75
    },
    {
      "midi": 53,
      "hit": false,
      "t": 20042.28765000001,
      "d": 53.84609999999884,
      "v": 72
    },
    {
      "midi": 41,
      "hit": false,
      "t": 20042.28765000001,
      "d": 53.84609999999884,
      "v": 72
    },
    {
      "midi": 41,
      "hit": false,
      "t": 20284.595100000002,
      "d": 84.6153000000013,
      "v": 127
    },
    {
      "midi": 53,
      "hit": false,
      "t": 20303.82585000001,
      "d": 73.07685000000129,
      "v": 103
    },
    {
      "midi": 41,
      "hit": false,
      "t": 20303.82585000001,
      "d": 73.07685000000129,
      "v": 103
    },
    {
      "midi": 53,
      "hit": false,
      "t": 20523.05640000001,
      "d": 61.538400000001275,
      "v": 69
    },
    {
      "midi": 41,
      "hit": false,
      "t": 20523.05640000001,
      "d": 61.538400000001275,
      "v": 69
    },
    {
      "midi": 53,
      "hit": false,
      "t": 20738.44080000001,
      "d": 49.99995000000126,
      "v": 66
    },
    {
      "midi": 41,
      "hit": false,
      "t": 20738.44080000001,
      "d": 49.99995000000126,
      "v": 66
    },
    {
      "midi": 53,
      "hit": false,
      "t": 20984.594400000013,
      "d": 69.23070000000007,
      "v": 103
    },
    {
      "midi": 41,
      "hit": false,
      "t": 20984.594400000013,
      "d": 69.23070000000007,
      "v": 103
    },
    {
      "midi": 41,
      "hit": false,
      "t": 21015.363600000004,
      "d": 84.6153000000013,
      "v": 127
    },
    {
      "midi": 53,
      "hit": false,
      "t": 21199.97880000001,
      "d": 65.38454999999885,
      "v": 77
    },
    {
      "midi": 41,
      "hit": false,
      "t": 21199.97880000001,
      "d": 65.38454999999885,
      "v": 77
    },
    {
      "midi": 66,
      "hit": false,
      "t": 21215.3634,
      "d": 457.6918500000029,
      "v": 74
    },
    {
      "midi": 53,
      "hit": false,
      "t": 21419.209350000012,
      "d": 57.69225000000006,
      "v": 74
    },
    {
      "midi": 41,
      "hit": false,
      "t": 21419.209350000012,
      "d": 57.69225000000006,
      "v": 74
    },
    {
      "midi": 53,
      "hit": false,
      "t": 21661.516800000012,
      "d": 65.38454999999885,
      "v": 101
    },
    {
      "midi": 41,
      "hit": false,
      "t": 21661.516800000012,
      "d": 65.38454999999885,
      "v": 101
    },
    {
      "midi": 63,
      "hit": false,
      "t": 21669.2091,
      "d": 434.61495000000286,
      "v": 79
    },
    {
      "midi": 48,
      "hit": false,
      "t": 21676.901400000006,
      "d": 69.23070000000007,
      "v": 127
    },
    {
      "midi": 53,
      "hit": false,
      "t": 21876.90120000001,
      "d": 57.69225000000006,
      "v": 66
    },
    {
      "midi": 41,
      "hit": false,
      "t": 21876.90120000001,
      "d": 57.69225000000006,
      "v": 66
    },
    {
      "midi": 46,
      "hit": false,
      "t": 21888.439650000008,
      "d": 73.07685000000129,
      "v": 127
    },
    {
      "midi": 44,
      "hit": false,
      "t": 22092.28560000001,
      "d": 69.23070000000007,
      "v": 127
    },
    {
      "midi": 53,
      "hit": false,
      "t": 22099.977900000013,
      "d": 61.538400000001275,
      "v": 79
    },
    {
      "midi": 41,
      "hit": false,
      "t": 22099.977900000013,
      "d": 61.538400000001275,
      "v": 79
    },
    {
      "midi": 66,
      "hit": false,
      "t": 22103.824050000003,
      "d": 442.30725000000166,
      "v": 85
    },
    {
      "midi": 53,
      "hit": false,
      "t": 22334.593050000014,
      "d": 46.15380000000005,
      "v": 61
    },
    {
      "midi": 41,
      "hit": false,
      "t": 22334.593050000014,
      "d": 46.15380000000005,
      "v": 61
    },
    {
      "midi": 43,
      "hit": false,
      "t": 22346.13150000001,
      "d": 65.38454999999885,
      "v": 127
    },
    {
      "midi": 54,
      "hit": false,
      "t": 22569.208199999994,
      "d": 280.76894999999786,
      "v": 125
    },
    {
      "midi": 65,
      "hit": false,
      "t": 22573.054350000006,
      "d": 2288.45925,
      "v": 95
    },
    {
      "midi": 41,
      "hit": false,
      "t": 22580.746649999997,
      "d": 115.38450000000012,
      "v": 110
    },
    {
      "midi": 29,
      "hit": false,
      "t": 22580.746649999997,
      "d": 115.38450000000012,
      "v": 110
    },
    {
      "midi": 53,
      "hit": false,
      "t": 22580.746650000016,
      "d": 65.38454999999885,
      "v": 95
    },
    {
      "midi": 41,
      "hit": false,
      "t": 22580.746650000016,
      "d": 65.38454999999885,
      "v": 95
    },
    {
      "midi": 66,
      "hit": false,
      "t": 22592.285099999994,
      "d": 207.6921000000002,
      "v": 125
    },
    {
      "midi": 41,
      "hit": false,
      "t": 22596.13125000001,
      "d": 88.46144999999888,
      "v": 127
    },
    {
      "midi": 53,
      "hit": false,
      "t": 22619.20815000002,
      "d": 7246.146599999942,
      "v": 116
    },
    {
      "midi": 53,
      "hit": false,
      "t": 22799.977199999994,
      "d": 207.6921000000002,
      "v": 125
    },
    {
      "midi": 65,
      "hit": false,
      "t": 22807.669499999993,
      "d": 173.07675000000017,
      "v": 125
    },
    {
      "midi": 53,
      "hit": false,
      "t": 22815.361800000013,
      "d": 49.99995000000126,
      "v": 63
    },
    {
      "midi": 41,
      "hit": false,
      "t": 22815.361800000013,
      "d": 49.99995000000126,
      "v": 63
    },
    {
      "midi": 53,
      "hit": false,
      "t": 23023.053900000014,
      "d": 53.84609999999884,
      "v": 72
    },
    {
      "midi": 41,
      "hit": false,
      "t": 23023.053900000014,
      "d": 53.84609999999884,
      "v": 72
    },
    {
      "midi": 53,
      "hit": false,
      "t": 23276.899800000014,
      "d": 73.07685000000129,
      "v": 106
    },
    {
      "midi": 41,
      "hit": false,
      "t": 23276.899800000014,
      "d": 73.07685000000129,
      "v": 106
    },
    {
      "midi": 41,
      "hit": false,
      "t": 23303.822850000008,
      "d": 92.3076000000001,
      "v": 127
    },
    {
      "midi": 53,
      "hit": false,
      "t": 23511.514950000015,
      "d": 61.538400000001275,
      "v": 68
    },
    {
      "midi": 41,
      "hit": false,
      "t": 23511.514950000015,
      "d": 61.538400000001275,
      "v": 68
    },
    {
      "midi": 53,
      "hit": false,
      "t": 23723.053200000017,
      "d": 57.69225000000006,
      "v": 69
    },
    {
      "midi": 41,
      "hit": false,
      "t": 23723.053200000017,
      "d": 57.69225000000006,
      "v": 69
    },
    {
      "midi": 53,
      "hit": false,
      "t": 23973.052950000016,
      "d": 73.07685000000129,
      "v": 101
    },
    {
      "midi": 41,
      "hit": false,
      "t": 23973.052950000016,
      "d": 73.07685000000129,
      "v": 101
    },
    {
      "midi": 41,
      "hit": false,
      "t": 23984.59140000001,
      "d": 84.6153000000013,
      "v": 127
    },
    {
      "midi": 53,
      "hit": false,
      "t": 24196.129650000017,
      "d": 61.538400000001275,
      "v": 63
    },
    {
      "midi": 41,
      "hit": false,
      "t": 24196.129650000017,
      "d": 61.538400000001275,
      "v": 63
    },
    {
      "midi": 53,
      "hit": false,
      "t": 24423.05250000002,
      "d": 49.99995000000126,
      "v": 53
    },
    {
      "midi": 41,
      "hit": false,
      "t": 24423.05250000002,
      "d": 49.99995000000126,
      "v": 53
    },
    {
      "midi": 53,
      "hit": false,
      "t": 24665.35995000002,
      "d": 73.07685000000129,
      "v": 101
    },
    {
      "midi": 41,
      "hit": false,
      "t": 24665.35995000002,
      "d": 73.07685000000129,
      "v": 101
    },
    {
      "midi": 41,
      "hit": false,
      "t": 24680.74455000001,
      "d": 92.3076000000001,
      "v": 127
    },
    {
      "midi": 63,
      "hit": false,
      "t": 24861.513600000006,
      "d": 496.1533500000005,
      "v": 78
    },
    {
      "midi": 53,
      "hit": false,
      "t": 24880.744350000023,
      "d": 61.538400000001275,
      "v": 72
    },
    {
      "midi": 41,
      "hit": false,
      "t": 24880.744350000023,
      "d": 61.538400000001275,
      "v": 72
    },
    {
      "midi": 53,
      "hit": false,
      "t": 25107.667200000025,
      "d": 46.15380000000005,
      "v": 55
    },
    {
      "midi": 41,
      "hit": false,
      "t": 25107.667200000025,
      "d": 46.15380000000005,
      "v": 55
    },
    {
      "midi": 66,
      "hit": false,
      "t": 25342.282350000005,
      "d": 457.6918500000029,
      "v": 85
    },
    {
      "midi": 53,
      "hit": false,
      "t": 25342.282350000027,
      "d": 73.07685000000129,
      "v": 98
    },
    {
      "midi": 41,
      "hit": false,
      "t": 25342.282350000027,
      "d": 73.07685000000129,
      "v": 98
    },
    {
      "midi": 41,
      "hit": false,
      "t": 25369.20540000001,
      "d": 69.23070000000007,
      "v": 127
    },
    {
      "midi": 53,
      "hit": false,
      "t": 25549.974450000027,
      "d": 65.38454999999885,
      "v": 72
    },
    {
      "midi": 41,
      "hit": false,
      "t": 25549.974450000027,
      "d": 65.38454999999885,
      "v": 72
    },
    {
      "midi": 44,
      "hit": false,
      "t": 25588.43595000001,
      "d": 73.07685000000129,
      "v": 127
    },
    {
      "midi": 53,
      "hit": false,
      "t": 25792.281900000027,
      "d": 65.38454999999885,
      "v": 77
    },
    {
      "midi": 41,
      "hit": false,
      "t": 25792.281900000027,
      "d": 65.38454999999885,
      "v": 77
    },
    {
      "midi": 46,
      "hit": false,
      "t": 25796.12805000001,
      "d": 80.76915000000008,
      "v": 127
    },
    {
      "midi": 63,
      "hit": false,
      "t": 25799.974200000008,
      "d": 480.7687500000029,
      "v": 85
    },
    {
      "midi": 53,
      "hit": false,
      "t": 26011.512450000027,
      "d": 53.84609999999884,
      "v": 66
    },
    {
      "midi": 41,
      "hit": false,
      "t": 26011.512450000027,
      "d": 53.84609999999884,
      "v": 66
    },
    {
      "midi": 41,
      "hit": false,
      "t": 26015.358599999996,
      "d": 115.38450000000012,
      "v": 110
    },
    {
      "midi": 29,
      "hit": false,
      "t": 26015.358599999996,
      "d": 115.38450000000012,
      "v": 110
    },
    {
      "midi": 48,
      "hit": false,
      "t": 26023.05090000001,
      "d": 73.07685000000129,
      "v": 127
    },
    {
      "midi": 54,
      "hit": false,
      "t": 26226.896849999994,
      "d": 280.7689500000015,
      "v": 125
    },
    {
      "midi": 66,
      "hit": false,
      "t": 26261.512199999994,
      "d": 230.76900000000023,
      "v": 125
    },
    {
      "midi": 53,
      "hit": false,
      "t": 26261.512200000026,
      "d": 73.07685000000129,
      "v": 106
    },
    {
      "midi": 41,
      "hit": false,
      "t": 26261.512200000026,
      "d": 73.07685000000129,
      "v": 106
    },
    {
      "midi": 41,
      "hit": false,
      "t": 26265.358349999995,
      "d": 115.38450000000012,
      "v": 110
    },
    {
      "midi": 29,
      "hit": false,
      "t": 26265.358349999995,
      "d": 115.38450000000012,
      "v": 110
    },
    {
      "midi": 41,
      "hit": false,
      "t": 26265.35835000001,
      "d": 88.46144999999888,
      "v": 127
    },
    {
      "midi": 65,
      "hit": false,
      "t": 26276.89680000001,
      "d": 3676.919399999999,
      "v": 79
    },
    {
      "midi": 53,
      "hit": false,
      "t": 26476.896599999993,
      "d": 230.76900000000023,
      "v": 125
    },
    {
      "midi": 65,
      "hit": false,
      "t": 26492.281199999994,
      "d": 196.1536500000002,
      "v": 125
    },
    {
      "midi": 53,
      "hit": false,
      "t": 26492.281200000027,
      "d": 57.69225000000006,
      "v": 65
    },
    {
      "midi": 41,
      "hit": false,
      "t": 26492.281200000027,
      "d": 57.69225000000006,
      "v": 65
    },
    {
      "midi": 53,
      "hit": false,
      "t": 26703.819450000028,
      "d": 49.99995000000126,
      "v": 68
    },
    {
      "midi": 41,
      "hit": false,
      "t": 26703.819450000028,
      "d": 49.99995000000126,
      "v": 68
    },
    {
      "midi": 53,
      "hit": false,
      "t": 26953.81920000003,
      "d": 76.92299999999886,
      "v": 103
    },
    {
      "midi": 41,
      "hit": false,
      "t": 26953.81920000003,
      "d": 76.92299999999886,
      "v": 103
    },
    {
      "midi": 41,
      "hit": false,
      "t": 26969.203800000007,
      "d": 103.8460500000001,
      "v": 127
    },
    {
      "midi": 53,
      "hit": false,
      "t": 27184.58820000003,
      "d": 57.69225000000006,
      "v": 69
    },
    {
      "midi": 41,
      "hit": false,
      "t": 27184.58820000003,
      "d": 57.69225000000006,
      "v": 69
    },
    {
      "midi": 53,
      "hit": false,
      "t": 27392.28030000003,
      "d": 57.69225000000006,
      "v": 69
    },
    {
      "midi": 41,
      "hit": false,
      "t": 27392.28030000003,
      "d": 57.69225000000006,
      "v": 69
    },
    {
      "midi": 53,
      "hit": false,
      "t": 27653.81850000003,
      "d": 76.92299999999886,
      "v": 101
    },
    {
      "midi": 41,
      "hit": false,
      "t": 27653.81850000003,
      "d": 76.92299999999886,
      "v": 101
    },
    {
      "midi": 41,
      "hit": false,
      "t": 27680.741550000006,
      "d": 84.6153000000013,
      "v": 127
    },
    {
      "midi": 53,
      "hit": false,
      "t": 27876.895200000028,
      "d": 61.538400000001275,
      "v": 61
    },
    {
      "midi": 41,
      "hit": false,
      "t": 27876.895200000028,
      "d": 61.538400000001275,
      "v": 61
    },
    {
      "midi": 53,
      "hit": false,
      "t": 28103.81805000003,
      "d": 42.30764999999883,
      "v": 41
    },
    {
      "midi": 41,
      "hit": false,
      "t": 28103.81805000003,
      "d": 42.30764999999883,
      "v": 41
    },
    {
      "midi": 53,
      "hit": false,
      "t": 28361.51010000003,
      "d": 69.23070000000007,
      "v": 103
    },
    {
      "midi": 41,
      "hit": false,
      "t": 28361.51010000003,
      "d": 69.23070000000007,
      "v": 103
    },
    {
      "midi": 41,
      "hit": false,
      "t": 28380.740850000006,
      "d": 92.3076000000001,
      "v": 127
    },
    {
      "midi": 53,
      "hit": false,
      "t": 28588.432950000028,
      "d": 61.538400000001275,
      "v": 74
    },
    {
      "midi": 41,
      "hit": false,
      "t": 28588.432950000028,
      "d": 61.538400000001275,
      "v": 74
    },
    {
      "midi": 53,
      "hit": false,
      "t": 28803.81735000003,
      "d": 61.538400000001275,
      "v": 69
    },
    {
      "midi": 41,
      "hit": false,
      "t": 28803.81735000003,
      "d": 61.538400000001275,
      "v": 69
    },
    {
      "midi": 53,
      "hit": false,
      "t": 29030.740200000033,
      "d": 73.07685000000129,
      "v": 79
    },
    {
      "midi": 41,
      "hit": false,
      "t": 29030.740200000033,
      "d": 73.07685000000129,
      "v": 79
    },
    {
      "midi": 48,
      "hit": false,
      "t": 29042.278650000007,
      "d": 73.07685000000129,
      "v": 127
    },
    {
      "midi": 53,
      "hit": false,
      "t": 29257.663050000036,
      "d": 61.538400000001275,
      "v": 63
    },
    {
      "midi": 41,
      "hit": false,
      "t": 29257.663050000036,
      "d": 61.538400000001275,
      "v": 63
    },
    {
      "midi": 46,
      "hit": false,
      "t": 29269.20150000001,
      "d": 73.07685000000129,
      "v": 127
    },
    {
      "midi": 44,
      "hit": false,
      "t": 29465.35515000001,
      "d": 73.07685000000129,
      "v": 127
    },
    {
      "midi": 53,
      "hit": false,
      "t": 29484.58590000004,
      "d": 61.538400000001275,
      "v": 72
    },
    {
      "midi": 41,
      "hit": false,
      "t": 29484.58590000004,
      "d": 61.538400000001275,
      "v": 72
    },
    {
      "midi": 53,
      "hit": false,
      "t": 29696.12415000004,
      "d": 61.538400000001275,
      "v": 68
    },
    {
      "midi": 41,
      "hit": false,
      "t": 29696.12415000004,
      "d": 61.538400000001275,
      "v": 68
    },
    {
      "midi": 43,
      "hit": false,
      "t": 29711.50875000001,
      "d": 65.38454999999885,
      "v": 127
    },
    {
      "midi": 36,
      "hit": false,
      "t": 29926.893149999996,
      "d": 115.38450000000012,
      "v": 110
    },
    {
      "midi": 24,
      "hit": false,
      "t": 29926.893149999996,
      "d": 115.38450000000012,
      "v": 110
    },
    {
      "midi": 48,
      "hit": false,
      "t": 29942.27775000004,
      "d": 69.23070000000007,
      "v": 103
    },
    {
      "midi": 36,
      "hit": false,
      "t": 29942.27775000004,
      "d": 69.23070000000007,
      "v": 103
    },
    {
      "midi": 60,
      "hit": false,
      "t": 29957.66235000001,
      "d": 2330.7669000000024,
      "v": 85
    },
    {
      "midi": 36,
      "hit": false,
      "t": 29969.20080000001,
      "d": 76.92299999999886,
      "v": 127
    },
    {
      "midi": 60,
      "hit": false,
      "t": 29999.969999999994,
      "d": 18461.519999999997,
      "v": 108
    },
    {
      "midi": 48,
      "hit": false,
      "t": 29999.969999999994,
      "d": 18461.519999999997,
      "v": 106
    },
    {
      "midi": 36,
      "hit": false,
      "t": 29999.969999999994,
      "d": 18461.519999999997,
      "v": 107
    },
    {
      "midi": 48,
      "hit": false,
      "t": 29999.970000000005,
      "d": 14684.600699999999,
      "v": 70
    },
    {
      "midi": 36,
      "hit": false,
      "t": 29999.970000000005,
      "d": 14696.139149999999,
      "v": 80
    },
    {
      "midi": 60,
      "hit": false,
      "t": 29999.970000000005,
      "d": 14707.677599999999,
      "v": 70
    },
    {
      "midi": 48,
      "hit": false,
      "t": 30169.20060000004,
      "d": 53.84609999999884,
      "v": 57
    },
    {
      "midi": 36,
      "hit": false,
      "t": 30169.20060000004,
      "d": 53.84609999999884,
      "v": 57
    },
    {
      "midi": 48,
      "hit": false,
      "t": 30380.738850000038,
      "d": 61.538400000001275,
      "v": 69
    },
    {
      "midi": 36,
      "hit": false,
      "t": 30380.738850000038,
      "d": 61.538400000001275,
      "v": 69
    },
    {
      "midi": 48,
      "hit": false,
      "t": 30665.35395000004,
      "d": 73.07685000000129,
      "v": 98
    },
    {
      "midi": 36,
      "hit": false,
      "t": 30665.35395000004,
      "d": 73.07685000000129,
      "v": 98
    },
    {
      "midi": 36,
      "hit": false,
      "t": 30680.73855000001,
      "d": 84.6153000000013,
      "v": 127
    },
    {
      "midi": 48,
      "hit": false,
      "t": 30896.12295000004,
      "d": 61.538400000001275,
      "v": 69
    },
    {
      "midi": 36,
      "hit": false,
      "t": 30896.12295000004,
      "d": 61.538400000001275,
      "v": 69
    },
    {
      "midi": 48,
      "hit": false,
      "t": 31119.199650000042,
      "d": 53.84609999999884,
      "v": 65
    },
    {
      "midi": 36,
      "hit": false,
      "t": 31119.199650000042,
      "d": 53.84609999999884,
      "v": 65
    },
    {
      "midi": 36,
      "hit": false,
      "t": 31369.19940000001,
      "d": 88.46144999999888,
      "v": 127
    },
    {
      "midi": 48,
      "hit": false,
      "t": 31384.584000000043,
      "d": 69.23070000000007,
      "v": 103
    },
    {
      "midi": 36,
      "hit": false,
      "t": 31384.584000000043,
      "d": 69.23070000000007,
      "v": 103
    },
    {
      "midi": 48,
      "hit": false,
      "t": 31619.199150000044,
      "d": 57.69225000000006,
      "v": 66
    },
    {
      "midi": 36,
      "hit": false,
      "t": 31619.199150000044,
      "d": 57.69225000000006,
      "v": 66
    },
    {
      "midi": 48,
      "hit": false,
      "t": 31861.506600000044,
      "d": 46.15380000000005,
      "v": 66
    },
    {
      "midi": 36,
      "hit": false,
      "t": 31861.506600000044,
      "d": 46.15380000000005,
      "v": 66
    },
    {
      "midi": 48,
      "hit": false,
      "t": 32111.506350000043,
      "d": 69.23070000000007,
      "v": 101
    },
    {
      "midi": 36,
      "hit": false,
      "t": 32111.506350000043,
      "d": 69.23070000000007,
      "v": 101
    },
    {
      "midi": 36,
      "hit": false,
      "t": 32115.352500000008,
      "d": 80.76915000000008,
      "v": 127
    },
    {
      "midi": 58,
      "hit": false,
      "t": 32273.04465000001,
      "d": 549.9994499999957,
      "v": 78
    },
    {
      "midi": 48,
      "hit": false,
      "t": 32338.429200000042,
      "d": 69.23070000000007,
      "v": 77
    },
    {
      "midi": 36,
      "hit": false,
      "t": 32338.429200000042,
      "d": 69.23070000000007,
      "v": 77
    },
    {
      "midi": 48,
      "hit": false,
      "t": 32561.505900000044,
      "d": 53.84609999999884,
      "v": 71
    },
    {
      "midi": 36,
      "hit": false,
      "t": 32561.505900000044,
      "d": 53.84609999999884,
      "v": 71
    },
    {
      "midi": 48,
      "hit": false,
      "t": 32796.121050000045,
      "d": 69.23070000000007,
      "v": 95
    },
    {
      "midi": 36,
      "hit": false,
      "t": 32796.121050000045,
      "d": 69.23070000000007,
      "v": 95
    },
    {
      "midi": 36,
      "hit": false,
      "t": 32811.50565000001,
      "d": 73.07684999999765,
      "v": 127
    },
    {
      "midi": 61,
      "hit": false,
      "t": 32819.19795000001,
      "d": 442.307249999998,
      "v": 90
    },
    {
      "midi": 48,
      "hit": false,
      "t": 33023.04390000005,
      "d": 65.38455000000249,
      "v": 72
    },
    {
      "midi": 36,
      "hit": false,
      "t": 33023.04390000005,
      "d": 65.38455000000249,
      "v": 72
    },
    {
      "midi": 39,
      "hit": false,
      "t": 33034.582350000004,
      "d": 69.23070000000007,
      "v": 127
    },
    {
      "midi": 48,
      "hit": false,
      "t": 33249.96675000005,
      "d": 69.23070000000007,
      "v": 74
    },
    {
      "midi": 36,
      "hit": false,
      "t": 33249.96675000005,
      "d": 69.23070000000007,
      "v": 74
    },
    {
      "midi": 58,
      "hit": false,
      "t": 33253.812900000004,
      "d": 461.53800000000047,
      "v": 75
    },
    {
      "midi": 41,
      "hit": false,
      "t": 33265.351350000004,
      "d": 80.76915000000008,
      "v": 127
    },
    {
      "midi": 48,
      "hit": false,
      "t": 33461.50500000005,
      "d": 61.53839999999764,
      "v": 72
    },
    {
      "midi": 36,
      "hit": false,
      "t": 33461.50500000005,
      "d": 61.53839999999764,
      "v": 72
    },
    {
      "midi": 43,
      "hit": false,
      "t": 33480.73575000001,
      "d": 73.07684999999765,
      "v": 127
    },
    {
      "midi": 36,
      "hit": false,
      "t": 33499.966499999995,
      "d": 115.38450000000012,
      "v": 110
    },
    {
      "midi": 24,
      "hit": false,
      "t": 33499.966499999995,
      "d": 115.38450000000012,
      "v": 110
    },
    {
      "midi": 60,
      "hit": false,
      "t": 33692.274000000005,
      "d": 2292.3053999999975,
      "v": 87
    },
    {
      "midi": 36,
      "hit": false,
      "t": 33703.812450000005,
      "d": 88.46145000000251,
      "v": 127
    },
    {
      "midi": 48,
      "hit": false,
      "t": 33707.658600000046,
      "d": 73.07684999999765,
      "v": 101
    },
    {
      "midi": 36,
      "hit": false,
      "t": 33707.658600000046,
      "d": 73.07684999999765,
      "v": 101
    },
    {
      "midi": 36,
      "hit": false,
      "t": 33746.12009999999,
      "d": 115.38450000000012,
      "v": 110
    },
    {
      "midi": 24,
      "hit": false,
      "t": 33746.12009999999,
      "d": 115.38450000000012,
      "v": 110
    },
    {
      "midi": 48,
      "hit": false,
      "t": 33930.735300000044,
      "d": 65.38455000000249,
      "v": 75
    },
    {
      "midi": 36,
      "hit": false,
      "t": 33930.735300000044,
      "d": 65.38455000000249,
      "v": 75
    },
    {
      "midi": 48,
      "hit": false,
      "t": 34157.65815000005,
      "d": 57.69225000000006,
      "v": 65
    },
    {
      "midi": 36,
      "hit": false,
      "t": 34157.65815000005,
      "d": 57.69225000000006,
      "v": 65
    },
    {
      "midi": 48,
      "hit": false,
      "t": 34388.42715000005,
      "d": 76.9230000000025,
      "v": 95
    },
    {
      "midi": 36,
      "hit": false,
      "t": 34388.42715000005,
      "d": 76.9230000000025,
      "v": 95
    },
    {
      "midi": 36,
      "hit": false,
      "t": 34419.196350000006,
      "d": 84.61529999999766,
      "v": 127
    },
    {
      "midi": 48,
      "hit": false,
      "t": 34611.50385000005,
      "d": 61.53839999999764,
      "v": 72
    },
    {
      "midi": 36,
      "hit": false,
      "t": 34611.50385000005,
      "d": 61.53839999999764,
      "v": 72
    },
    {
      "midi": 48,
      "hit": false,
      "t": 34823.04210000005,
      "d": 57.69225000000006,
      "v": 71
    },
    {
      "midi": 36,
      "hit": false,
      "t": 34823.04210000005,
      "d": 57.69225000000006,
      "v": 71
    },
    {
      "midi": 36,
      "hit": false,
      "t": 35061.5034,
      "d": 84.61529999999766,
      "v": 127
    },
    {
      "midi": 48,
      "hit": false,
      "t": 35073.04185000005,
      "d": 69.23070000000007,
      "v": 101
    },
    {
      "midi": 36,
      "hit": false,
      "t": 35073.04185000005,
      "d": 69.23070000000007,
      "v": 101
    },
    {
      "midi": 48,
      "hit": false,
      "t": 35296.11855000005,
      "d": 61.53839999999764,
      "v": 55
    },
    {
      "midi": 36,
      "hit": false,
      "t": 35296.11855000005,
      "d": 61.53839999999764,
      "v": 55
    },
    {
      "midi": 61,
      "hit": false,
      "t": 35507.65679999999,
      "d": 249.99975000000268,
      "v": 125
    },
    {
      "midi": 48,
      "hit": false,
      "t": 35515.34910000005,
      "d": 57.69225000000006,
      "v": 63
    },
    {
      "midi": 36,
      "hit": false,
      "t": 35515.34910000005,
      "d": 57.69225000000006,
      "v": 63
    },
    {
      "midi": 73,
      "hit": false,
      "t": 35538.42599999999,
      "d": 219.23055000000022,
      "v": 125
    },
    {
      "midi": 60,
      "hit": false,
      "t": 35742.271949999995,
      "d": 215.38440000000264,
      "v": 125
    },
    {
      "midi": 72,
      "hit": false,
      "t": 35757.65654999999,
      "d": 157.69215000000258,
      "v": 125
    },
    {
      "midi": 36,
      "hit": false,
      "t": 35765.34885,
      "d": 92.3076000000001,
      "v": 127
    },
    {
      "midi": 48,
      "hit": false,
      "t": 35769.19500000005,
      "d": 69.23070000000007,
      "v": 93
    },
    {
      "midi": 36,
      "hit": false,
      "t": 35769.19500000005,
      "d": 69.23070000000007,
      "v": 93
    },
    {
      "midi": 61,
      "hit": false,
      "t": 35961.5025,
      "d": 480.7687500000029,
      "v": 90
    },
    {
      "midi": 48,
      "hit": false,
      "t": 35980.73325000005,
      "d": 65.38455000000249,
      "v": 74
    },
    {
      "midi": 36,
      "hit": false,
      "t": 35980.73325000005,
      "d": 65.38455000000249,
      "v": 74
    },
    {
      "midi": 48,
      "hit": false,
      "t": 36199.96380000005,
      "d": 65.38455000000249,
      "v": 69
    },
    {
      "midi": 36,
      "hit": false,
      "t": 36199.96380000005,
      "d": 65.38455000000249,
      "v": 69
    },
    {
      "midi": 43,
      "hit": false,
      "t": 36423.0405,
      "d": 84.61529999999766,
      "v": 127
    },
    {
      "midi": 48,
      "hit": false,
      "t": 36442.27125000005,
      "d": 73.07684999999765,
      "v": 90
    },
    {
      "midi": 36,
      "hit": false,
      "t": 36442.27125000005,
      "d": 73.07684999999765,
      "v": 90
    },
    {
      "midi": 58,
      "hit": false,
      "t": 36449.96355000001,
      "d": 426.92265000000043,
      "v": 79
    },
    {
      "midi": 42,
      "hit": false,
      "t": 36646.1172,
      "d": 73.07684999999765,
      "v": 127
    },
    {
      "midi": 48,
      "hit": false,
      "t": 36649.96335000005,
      "d": 69.23070000000007,
      "v": 71
    },
    {
      "midi": 36,
      "hit": false,
      "t": 36649.96335000005,
      "d": 69.23070000000007,
      "v": 71
    },
    {
      "midi": 61,
      "hit": false,
      "t": 36857.655450000006,
      "d": 480.7687500000029,
      "v": 79
    },
    {
      "midi": 41,
      "hit": false,
      "t": 36876.8862,
      "d": 88.46145000000251,
      "v": 127
    },
    {
      "midi": 48,
      "hit": false,
      "t": 36880.73235000005,
      "d": 76.9230000000025,
      "v": 85
    },
    {
      "midi": 36,
      "hit": false,
      "t": 36880.73235000005,
      "d": 76.9230000000025,
      "v": 85
    },
    {
      "midi": 48,
      "hit": false,
      "t": 37107.65520000005,
      "d": 57.69225000000006,
      "v": 72
    },
    {
      "midi": 36,
      "hit": false,
      "t": 37107.65520000005,
      "d": 57.69225000000006,
      "v": 72
    },
    {
      "midi": 39,
      "hit": false,
      "t": 37130.7321,
      "d": 65.38455000000249,
      "v": 127
    },
    {
      "midi": 36,
      "hit": false,
      "t": 37349.962649999994,
      "d": 115.38450000000012,
      "v": 110
    },
    {
      "midi": 24,
      "hit": false,
      "t": 37349.962649999994,
      "d": 115.38450000000012,
      "v": 110
    },
    {
      "midi": 60,
      "hit": false,
      "t": 37353.808800000006,
      "d": 2338.459200000005,
      "v": 95
    },
    {
      "midi": 48,
      "hit": false,
      "t": 37365.34725000005,
      "d": 69.23070000000007,
      "v": 103
    },
    {
      "midi": 36,
      "hit": false,
      "t": 37365.34725000005,
      "d": 69.23070000000007,
      "v": 103
    },
    {
      "midi": 36,
      "hit": false,
      "t": 37373.03955,
      "d": 88.46145000000251,
      "v": 127
    },
    {
      "midi": 67,
      "hit": false,
      "t": 37384.577999999994,
      "d": 12923.063999999998,
      "v": 105
    },
    {
      "midi": 48,
      "hit": false,
      "t": 37584.57780000005,
      "d": 65.38455000000249,
      "v": 71
    },
    {
      "midi": 36,
      "hit": false,
      "t": 37584.57780000005,
      "d": 65.38455000000249,
      "v": 71
    },
    {
      "midi": 48,
      "hit": false,
      "t": 37803.80835000005,
      "d": 57.69225000000006,
      "v": 72
    },
    {
      "midi": 36,
      "hit": false,
      "t": 37803.80835000005,
      "d": 57.69225000000006,
      "v": 72
    },
    {
      "midi": 48,
      "hit": false,
      "t": 38049.96195000005,
      "d": 73.07684999999765,
      "v": 98
    },
    {
      "midi": 36,
      "hit": false,
      "t": 38049.96195000005,
      "d": 73.07684999999765,
      "v": 98
    },
    {
      "midi": 36,
      "hit": false,
      "t": 38080.73115000001,
      "d": 88.46145000000251,
      "v": 127
    },
    {
      "midi": 48,
      "hit": false,
      "t": 38273.038650000046,
      "d": 65.38455000000249,
      "v": 77
    },
    {
      "midi": 36,
      "hit": false,
      "t": 38273.038650000046,
      "d": 65.38455000000249,
      "v": 77
    },
    {
      "midi": 48,
      "hit": false,
      "t": 38492.269200000046,
      "d": 53.84610000000248,
      "v": 71
    },
    {
      "midi": 36,
      "hit": false,
      "t": 38492.269200000046,
      "d": 53.84610000000248,
      "v": 71
    },
    {
      "midi": 48,
      "hit": false,
      "t": 38730.73050000005,
      "d": 73.07684999999765,
      "v": 103
    },
    {
      "midi": 36,
      "hit": false,
      "t": 38730.73050000005,
      "d": 73.07684999999765,
      "v": 103
    },
    {
      "midi": 36,
      "hit": false,
      "t": 38749.96125000001,
      "d": 88.46145000000251,
      "v": 127
    },
    {
      "midi": 48,
      "hit": false,
      "t": 38957.653350000044,
      "d": 65.38455000000249,
      "v": 68
    },
    {
      "midi": 36,
      "hit": false,
      "t": 38957.653350000044,
      "d": 65.38455000000249,
      "v": 68
    },
    {
      "midi": 48,
      "hit": false,
      "t": 39180.73005000005,
      "d": 57.69225000000006,
      "v": 66
    },
    {
      "midi": 36,
      "hit": false,
      "t": 39180.73005000005,
      "d": 57.69225000000006,
      "v": 66
    },
    {
      "midi": 48,
      "hit": false,
      "t": 39423.03750000005,
      "d": 73.07684999999765,
      "v": 85
    },
    {
      "midi": 36,
      "hit": false,
      "t": 39423.03750000005,
      "d": 73.07684999999765,
      "v": 85
    },
    {
      "midi": 36,
      "hit": false,
      "t": 39453.80670000001,
      "d": 84.61529999999766,
      "v": 127
    },
    {
      "midi": 48,
      "hit": false,
      "t": 39661.498800000045,
      "d": 65.38455000000249,
      "v": 71
    },
    {
      "midi": 36,
      "hit": false,
      "t": 39661.498800000045,
      "d": 65.38455000000249,
      "v": 71
    },
    {
      "midi": 58,
      "hit": false,
      "t": 39673.03725000001,
      "d": 476.92259999999806,
      "v": 87
    },
    {
      "midi": 48,
      "hit": false,
      "t": 39876.88320000005,
      "d": 49.999949999997625,
      "v": 65
    },
    {
      "midi": 36,
      "hit": false,
      "t": 39876.88320000005,
      "d": 49.999949999997625,
      "v": 65
    },
    {
      "midi": 48,
      "hit": false,
      "t": 40123.036800000045,
      "d": 73.07684999999765,
      "v": 98
    },
    {
      "midi": 36,
      "hit": false,
      "t": 40123.036800000045,
      "d": 73.07684999999765,
      "v": 98
    },
    {
      "midi": 36,
      "hit": false,
      "t": 40142.267550000004,
      "d": 80.76915000000008,
      "v": 127
    },
    {
      "midi": 61,
      "hit": false,
      "t": 40146.11370000001,
      "d": 438.46110000000044,
      "v": 90
    },
    {
      "midi": 72,
      "hit": false,
      "t": 40184.575199999956,
      "d": 3534.611850000052,
      "v": 87
    },
    {
      "midi": 48,
      "hit": false,
      "t": 40353.805800000046,
      "d": 69.23070000000007,
      "v": 75
    },
    {
      "midi": 36,
      "hit": false,
      "t": 40353.805800000046,
      "d": 69.23070000000007,
      "v": 75
    },
    {
      "midi": 39,
      "hit": false,
      "t": 40357.65195000001,
      "d": 69.23070000000007,
      "v": 127
    },
    {
      "midi": 48,
      "hit": false,
      "t": 40588.42095000004,
      "d": 69.23070000000007,
      "v": 79
    },
    {
      "midi": 36,
      "hit": false,
      "t": 40588.42095000004,
      "d": 69.23070000000007,
      "v": 79
    },
    {
      "midi": 41,
      "hit": false,
      "t": 40592.267100000005,
      "d": 80.76915000000008,
      "v": 127
    },
    {
      "midi": 58,
      "hit": false,
      "t": 40596.11325000001,
      "d": 465.38414999999804,
      "v": 87
    },
    {
      "midi": 48,
      "hit": false,
      "t": 40815.343800000046,
      "d": 57.69225000000006,
      "v": 66
    },
    {
      "midi": 36,
      "hit": false,
      "t": 40815.343800000046,
      "d": 57.69225000000006,
      "v": 66
    },
    {
      "midi": 46,
      "hit": false,
      "t": 40819.18994999999,
      "d": 115.38450000000012,
      "v": 110
    },
    {
      "midi": 34,
      "hit": false,
      "t": 40819.18994999999,
      "d": 115.38450000000012,
      "v": 110
    },
    {
      "midi": 36,
      "hit": false,
      "t": 40823.03609999999,
      "d": 115.38450000000012,
      "v": 110
    },
    {
      "midi": 43,
      "hit": false,
      "t": 40830.72840000001,
      "d": 73.07684999999765,
      "v": 127
    },
    {
      "midi": 36,
      "hit": false,
      "t": 41049.95894999999,
      "d": 115.38450000000012,
      "v": 110
    },
    {
      "midi": 24,
      "hit": false,
      "t": 41049.95894999999,
      "d": 115.38450000000012,
      "v": 110
    },
    {
      "midi": 60,
      "hit": false,
      "t": 41057.65125000001,
      "d": 3599.9963999999964,
      "v": 87
    },
    {
      "midi": 48,
      "hit": false,
      "t": 41061.497400000044,
      "d": 69.23070000000007,
      "v": 103
    },
    {
      "midi": 36,
      "hit": false,
      "t": 41061.497400000044,
      "d": 69.23070000000007,
      "v": 103
    },
    {
      "midi": 36,
      "hit": false,
      "t": 41069.1897,
      "d": 84.61529999999766,
      "v": 127
    },
    {
      "midi": 43,
      "hit": false,
      "t": 41084.574300000015,
      "d": 3723.073200000028,
      "v": 110
    },
    {
      "midi": 36,
      "hit": false,
      "t": 41084.574300000015,
      "d": 3723.073200000028,
      "v": 110
    },
    {
      "midi": 48,
      "hit": false,
      "t": 41296.11255000004,
      "d": 57.69225000000006,
      "v": 71
    },
    {
      "midi": 36,
      "hit": false,
      "t": 41296.11255000004,
      "d": 57.69225000000006,
      "v": 71
    },
    {
      "midi": 48,
      "hit": false,
      "t": 41503.80465000004,
      "d": 57.69225000000006,
      "v": 69
    },
    {
      "midi": 36,
      "hit": false,
      "t": 41503.80465000004,
      "d": 57.69225000000006,
      "v": 69
    },
    {
      "midi": 48,
      "hit": false,
      "t": 41753.804400000045,
      "d": 76.9230000000025,
      "v": 98
    },
    {
      "midi": 36,
      "hit": false,
      "t": 41753.804400000045,
      "d": 76.9230000000025,
      "v": 98
    },
    {
      "midi": 36,
      "hit": false,
      "t": 41765.34285,
      "d": 92.3076000000001,
      "v": 127
    },
    {
      "midi": 48,
      "hit": false,
      "t": 41980.72725000005,
      "d": 65.38455000000249,
      "v": 71
    },
    {
      "midi": 36,
      "hit": false,
      "t": 41980.72725000005,
      "d": 65.38455000000249,
      "v": 71
    },
    {
      "midi": 72,
      "hit": false,
      "t": 41999.95800000001,
      "d": 1153.8450000000084,
      "v": 80
    },
    {
      "midi": 96,
      "hit": false,
      "t": 41999.95800000001,
      "d": 1153.8450000000084,
      "v": 80
    },
    {
      "midi": 84,
      "hit": false,
      "t": 41999.95800000001,
      "d": 1153.8450000000084,
      "v": 85
    },
    {
      "midi": 91,
      "hit": false,
      "t": 41999.95800000001,
      "d": 1153.8450000000084,
      "v": 85
    },
    {
      "midi": 48,
      "hit": false,
      "t": 42196.11165000005,
      "d": 57.69225000000006,
      "v": 68
    },
    {
      "midi": 36,
      "hit": false,
      "t": 42196.11165000005,
      "d": 57.69225000000006,
      "v": 68
    },
    {
      "midi": 48,
      "hit": false,
      "t": 42434.57295000005,
      "d": 76.9230000000025,
      "v": 101
    },
    {
      "midi": 36,
      "hit": false,
      "t": 42434.57295000005,
      "d": 76.9230000000025,
      "v": 101
    },
    {
      "midi": 36,
      "hit": false,
      "t": 42457.64985,
      "d": 84.61529999999766,
      "v": 127
    },
    {
      "midi": 48,
      "hit": false,
      "t": 42653.80350000005,
      "d": 69.23070000000007,
      "v": 66
    },
    {
      "midi": 36,
      "hit": false,
      "t": 42653.80350000005,
      "d": 69.23070000000007,
      "v": 66
    },
    {
      "midi": 48,
      "hit": false,
      "t": 42880.726350000055,
      "d": 65.38455000000249,
      "v": 66
    },
    {
      "midi": 36,
      "hit": false,
      "t": 42880.726350000055,
      "d": 65.38455000000249,
      "v": 66
    },
    {
      "midi": 36,
      "hit": false,
      "t": 43130.7261,
      "d": 88.46145000000251,
      "v": 127
    },
    {
      "midi": 48,
      "hit": false,
      "t": 43134.572250000056,
      "d": 69.23070000000007,
      "v": 87
    },
    {
      "midi": 36,
      "hit": false,
      "t": 43134.572250000056,
      "d": 69.23070000000007,
      "v": 87
    },
    {
      "midi": 48,
      "hit": false,
      "t": 43353.802800000056,
      "d": 65.38455000000249,
      "v": 77
    },
    {
      "midi": 36,
      "hit": false,
      "t": 43353.802800000056,
      "d": 65.38455000000249,
      "v": 77
    },
    {
      "midi": 48,
      "hit": false,
      "t": 43569.18720000006,
      "d": 53.84610000000248,
      "v": 66
    },
    {
      "midi": 36,
      "hit": false,
      "t": 43569.18720000006,
      "d": 53.84610000000248,
      "v": 66
    },
    {
      "midi": 48,
      "hit": false,
      "t": 43803.80235000006,
      "d": 73.07684999999765,
      "v": 98
    },
    {
      "midi": 36,
      "hit": false,
      "t": 43803.80235000006,
      "d": 73.07684999999765,
      "v": 98
    },
    {
      "midi": 61,
      "hit": false,
      "t": 43807.648499999996,
      "d": 261.5382000000027,
      "v": 125
    },
    {
      "midi": 73,
      "hit": false,
      "t": 43826.87925,
      "d": 196.1536500000002,
      "v": 125
    },
    {
      "midi": 43,
      "hit": false,
      "t": 43826.879250000005,
      "d": 80.76915000000008,
      "v": 127
    },
    {
      "midi": 60,
      "hit": false,
      "t": 44011.49445,
      "d": 219.23055000000022,
      "v": 125
    },
    {
      "midi": 72,
      "hit": false,
      "t": 44015.340599999996,
      "d": 199.99980000000505,
      "v": 125
    },
    {
      "midi": 42,
      "hit": false,
      "t": 44030.72520000001,
      "d": 73.07684999999765,
      "v": 127
    },
    {
      "midi": 48,
      "hit": false,
      "t": 44034.571350000064,
      "d": 61.53839999999764,
      "v": 72
    },
    {
      "midi": 36,
      "hit": false,
      "t": 44034.571350000064,
      "d": 61.53839999999764,
      "v": 72
    },
    {
      "midi": 41,
      "hit": false,
      "t": 44246.1096,
      "d": 92.3076000000001,
      "v": 127
    },
    {
      "midi": 48,
      "hit": false,
      "t": 44261.49420000006,
      "d": 73.07684999999765,
      "v": 85
    },
    {
      "midi": 36,
      "hit": false,
      "t": 44261.49420000006,
      "d": 73.07684999999765,
      "v": 85
    },
    {
      "midi": 48,
      "hit": false,
      "t": 44476.878600000055,
      "d": 69.23070000000007,
      "v": 75
    },
    {
      "midi": 36,
      "hit": false,
      "t": 44476.878600000055,
      "d": 69.23070000000007,
      "v": 75
    },
    {
      "midi": 39,
      "hit": false,
      "t": 44492.2632,
      "d": 69.23070000000007,
      "v": 127
    },
    {
      "midi": 73,
      "hit": false,
      "t": 44730.724500000004,
      "d": 223.0766999999978,
      "v": 115
    },
    {
      "midi": 61,
      "hit": false,
      "t": 44730.724500000004,
      "d": 242.30745000000024,
      "v": 115
    },
    {
      "midi": 72,
      "hit": false,
      "t": 44953.8012,
      "d": 142.307550000005,
      "v": 115
    },
    {
      "midi": 60,
      "hit": false,
      "t": 44961.493500000004,
      "d": 165.38445000000502,
      "v": 115
    },
    {
      "midi": 61,
      "hit": false,
      "t": 45607.64670000001,
      "d": 234.6151500000051,
      "v": 105
    },
    {
      "midi": 73,
      "hit": false,
      "t": 45623.03130000001,
      "d": 180.7690500000026,
      "v": 105
    },
    {
      "midi": 72,
      "hit": false,
      "t": 45834.569550000015,
      "d": 134.61525000000256,
      "v": 105
    },
    {
      "midi": 60,
      "hit": false,
      "t": 45834.569550000015,
      "d": 184.6152000000002,
      "v": 105
    },
    {
      "midi": 61,
      "hit": false,
      "t": 46569.18420000002,
      "d": 223.0766999999978,
      "v": 95
    },
    {
      "midi": 73,
      "hit": false,
      "t": 46599.95340000002,
      "d": 165.38444999999774,
      "v": 95
    },
    {
      "midi": 60,
      "hit": false,
      "t": 46811.49165000002,
      "d": 176.92289999999775,
      "v": 95
    },
    {
      "midi": 72,
      "hit": false,
      "t": 46834.56855000002,
      "d": 115.38450000000012,
      "v": 95
    },
    {
      "midi": 61,
      "hit": false,
      "t": 47523.02940000002,
      "d": 238.4612999999954,
      "v": 75
    },
    {
      "midi": 73,
      "hit": false,
      "t": 47546.10630000002,
      "d": 176.92289999999775,
      "v": 75
    },
    {
      "midi": 72,
      "hit": false,
      "t": 47765.336850000014,
      "d": 161.53830000000016,
      "v": 75
    },
    {
      "midi": 60,
      "hit": false,
      "t": 47769.18300000001,
      "d": 188.46135000000504,
      "v": 75
    },
    {
      "midi": 73,
      "hit": false,
      "t": 48534.56685000002,
      "d": 165.38444999999774,
      "v": 65
    },
    {
      "midi": 61,
      "hit": false,
      "t": 48534.56685000002,
      "d": 211.5382499999978,
      "v": 65
    },
    {
      "midi": 72,
      "hit": false,
      "t": 48761.48970000001,
      "d": 165.38444999999774,
      "v": 65
    },
    {
      "midi": 60,
      "hit": false,
      "t": 48761.48970000001,
      "d": 184.6152000000002,
      "v": 65
    }
  ]
}