{
  "jsonPath": "Ultima Online/jungle-a.json",
  "path": "Ultima Online\\jungle_a.mid",
  "name": "jungle_a",
  "difficulty": "Advanced",
  "bpm": 140.00014000014,
  "notes": [
    {
      "midi": 45,
      "hit": false,
      "t": 21.428550000000005,
      "d": 78.57135000000001,
      "v": 80
    },
    {
      "midi": 61,
      "hit": false,
      "t": 21.428550000000005,
      "d": 99.99990000000001,
      "v": 80
    },
    {
      "midi": 36,
      "hit": false,
      "t": 21.428550000000005,
      "d": 121.42845000000003,
      "v": 70
    },
    {
      "midi": 45,
      "hit": false,
      "t": 307.14255,
      "d": 89.28562499999998,
      "v": 80
    },
    {
      "midi": 64,
      "hit": false,
      "t": 307.14255,
      "d": 121.42845,
      "v": 60
    },
    {
      "midi": 43,
      "hit": false,
      "t": 449.99955,
      "d": 89.28562499999998,
      "v": 50
    },
    {
      "midi": 61,
      "hit": false,
      "t": 449.99955,
      "d": 121.42845,
      "v": 80
    },
    {
      "midi": 47,
      "hit": false,
      "t": 592.85655,
      "d": 78.57135000000005,
      "v": 50
    },
    {
      "midi": 43,
      "hit": false,
      "t": 735.71355,
      "d": 121.42845,
      "v": 50
    },
    {
      "midi": 64,
      "hit": false,
      "t": 735.71355,
      "d": 121.42845,
      "v": 50
    },
    {
      "midi": 45,
      "hit": false,
      "t": 878.57055,
      "d": 78.57134999999994,
      "v": 80
    },
    {
      "midi": 36,
      "hit": false,
      "t": 878.57055,
      "d": 121.42845,
      "v": 80
    },
    {
      "midi": 61,
      "hit": false,
      "t": 878.57055,
      "d": 121.42845,
      "v": 60
    },
    {
      "midi": 45,
      "hit": false,
      "t": 1164.28455,
      "d": 78.57134999999994,
      "v": 80
    },
    {
      "midi": 64,
      "hit": false,
      "t": 1164.28455,
      "d": 121.42845000000011,
      "v": 60
    },
    {
      "midi": 43,
      "hit": false,
      "t": 1307.1415500000003,
      "d": 89.28562499999998,
      "v": 50
    },
    {
      "midi": 61,
      "hit": false,
      "t": 1307.1415500000003,
      "d": 121.42844999999988,
      "v": 50
    },
    {
      "midi": 47,
      "hit": false,
      "t": 1449.9985500000003,
      "d": 78.57134999999994,
      "v": 50
    },
    {
      "midi": 43,
      "hit": false,
      "t": 1592.8555500000002,
      "d": 121.42845000000011,
      "v": 50
    },
    {
      "midi": 64,
      "hit": false,
      "t": 1592.8555500000002,
      "d": 121.42845000000011,
      "v": 50
    },
    {
      "midi": 45,
      "hit": false,
      "t": 1735.7125500000004,
      "d": 89.28562499999998,
      "v": 80
    },
    {
      "midi": 61,
      "hit": false,
      "t": 1735.7125500000004,
      "d": 121.42844999999988,
      "v": 50
    },
    {
      "midi": 36,
      "hit": false,
      "t": 1735.7125500000004,
      "d": 135.7141499999998,
      "v": 80
    },
    {
      "midi": 45,
      "hit": false,
      "t": 2021.4265500000001,
      "d": 89.28562499999998,
      "v": 80
    },
    {
      "midi": 64,
      "hit": false,
      "t": 2021.4265500000001,
      "d": 121.42844999999988,
      "v": 60
    },
    {
      "midi": 43,
      "hit": false,
      "t": 2164.28355,
      "d": 89.28562499999998,
      "v": 50
    },
    {
      "midi": 61,
      "hit": false,
      "t": 2164.28355,
      "d": 121.42844999999988,
      "v": 60
    },
    {
      "midi": 47,
      "hit": false,
      "t": 2307.14055,
      "d": 78.57135000000017,
      "v": 50
    },
    {
      "midi": 43,
      "hit": false,
      "t": 2449.99755,
      "d": 121.42845000000034,
      "v": 50
    },
    {
      "midi": 64,
      "hit": false,
      "t": 2449.99755,
      "d": 121.42845000000034,
      "v": 60
    },
    {
      "midi": 45,
      "hit": false,
      "t": 2592.8545500000005,
      "d": 89.28562499999998,
      "v": 80
    },
    {
      "midi": 36,
      "hit": false,
      "t": 2592.8545500000005,
      "d": 121.42844999999988,
      "v": 80
    },
    {
      "midi": 61,
      "hit": false,
      "t": 2592.8545500000005,
      "d": 121.42844999999988,
      "v": 60
    },
    {
      "midi": 45,
      "hit": false,
      "t": 2878.5685500000004,
      "d": 78.57135000000017,
      "v": 80
    },
    {
      "midi": 64,
      "hit": false,
      "t": 2878.5685500000004,
      "d": 121.42845000000034,
      "v": 50
    },
    {
      "midi": 43,
      "hit": false,
      "t": 3021.425550000001,
      "d": 78.57135000000017,
      "v": 50
    },
    {
      "midi": 61,
      "hit": false,
      "t": 3021.425550000001,
      "d": 121.42844999999988,
      "v": 60
    },
    {
      "midi": 47,
      "hit": false,
      "t": 3164.282550000001,
      "d": 78.57135000000017,
      "v": 50
    },
    {
      "midi": 43,
      "hit": false,
      "t": 3307.139550000001,
      "d": 121.42844999999988,
      "v": 50
    },
    {
      "midi": 64,
      "hit": false,
      "t": 3307.139550000001,
      "d": 121.42844999999988,
      "v": 60
    },
    {
      "midi": 45,
      "hit": false,
      "t": 3449.9965500000008,
      "d": 78.57135000000017,
      "v": 80
    },
    {
      "midi": 36,
      "hit": false,
      "t": 3449.9965500000008,
      "d": 121.42845000000034,
      "v": 80
    },
    {
      "midi": 61,
      "hit": false,
      "t": 3449.9965500000008,
      "d": 121.42845000000034,
      "v": 70
    },
    {
      "midi": 45,
      "hit": false,
      "t": 3735.710550000001,
      "d": 78.57135000000017,
      "v": 80
    },
    {
      "midi": 64,
      "hit": false,
      "t": 3735.710550000001,
      "d": 121.42845000000034,
      "v": 60
    },
    {
      "midi": 43,
      "hit": false,
      "t": 3878.5675500000016,
      "d": 78.57135000000017,
      "v": 50
    },
    {
      "midi": 61,
      "hit": false,
      "t": 3878.5675500000016,
      "d": 121.42845000000034,
      "v": 70
    },
    {
      "midi": 47,
      "hit": false,
      "t": 4021.424550000002,
      "d": 78.57135000000062,
      "v": 50
    },
    {
      "midi": 43,
      "hit": false,
      "t": 4164.281550000002,
      "d": 121.42845000000034,
      "v": 50
    },
    {
      "midi": 64,
      "hit": false,
      "t": 4164.281550000002,
      "d": 121.42845000000034,
      "v": 50
    },
    {
      "midi": 45,
      "hit": false,
      "t": 4307.138550000002,
      "d": 78.57135000000017,
      "v": 80
    },
    {
      "midi": 36,
      "hit": false,
      "t": 4307.138550000002,
      "d": 121.42845000000034,
      "v": 80
    },
    {
      "midi": 61,
      "hit": false,
      "t": 4307.138550000002,
      "d": 121.42845000000034,
      "v": 70
    },
    {
      "midi": 45,
      "hit": false,
      "t": 4592.852550000002,
      "d": 89.28562500000044,
      "v": 80
    },
    {
      "midi": 64,
      "hit": false,
      "t": 4592.852550000002,
      "d": 121.42845000000034,
      "v": 60
    },
    {
      "midi": 43,
      "hit": false,
      "t": 4735.709550000002,
      "d": 78.57135000000017,
      "v": 50
    },
    {
      "midi": 61,
      "hit": false,
      "t": 4735.709550000002,
      "d": 121.42845000000034,
      "v": 60
    },
    {
      "midi": 47,
      "hit": false,
      "t": 4878.566550000002,
      "d": 78.57135000000017,
      "v": 60
    },
    {
      "midi": 43,
      "hit": false,
      "t": 5021.423550000002,
      "d": 121.42845000000034,
      "v": 70
    },
    {
      "midi": 64,
      "hit": false,
      "t": 5021.423550000002,
      "d": 121.42845000000034,
      "v": 70
    },
    {
      "midi": 45,
      "hit": false,
      "t": 5164.280550000002,
      "d": 78.57135000000017,
      "v": 85
    },
    {
      "midi": 61,
      "hit": false,
      "t": 5164.280550000002,
      "d": 121.42845000000034,
      "v": 70
    },
    {
      "midi": 36,
      "hit": false,
      "t": 5164.280550000002,
      "d": 146.42842500000006,
      "v": 95
    },
    {
      "midi": 45,
      "hit": false,
      "t": 5449.994550000002,
      "d": 74.99992500000008,
      "v": 63
    },
    {
      "midi": 64,
      "hit": false,
      "t": 5449.994550000002,
      "d": 182.14267500000005,
      "v": 57
    },
    {
      "midi": 43,
      "hit": false,
      "t": 5592.851550000002,
      "d": 71.42849999999999,
      "v": 37
    },
    {
      "midi": 61,
      "hit": false,
      "t": 5592.851550000002,
      "d": 160.71412500000042,
      "v": 64
    },
    {
      "midi": 47,
      "hit": false,
      "t": 5735.708550000002,
      "d": 82.14277500000026,
      "v": 39
    },
    {
      "midi": 43,
      "hit": false,
      "t": 5878.565550000002,
      "d": 107.14275000000089,
      "v": 48
    },
    {
      "midi": 64,
      "hit": false,
      "t": 5878.565550000002,
      "d": 171.4284000000007,
      "v": 38
    },
    {
      "midi": 45,
      "hit": false,
      "t": 6021.422550000003,
      "d": 78.57135000000017,
      "v": 73
    },
    {
      "midi": 36,
      "hit": false,
      "t": 6021.422550000003,
      "d": 128.57130000000052,
      "v": 97
    },
    {
      "midi": 61,
      "hit": false,
      "t": 6021.422550000003,
      "d": 153.57127500000024,
      "v": 63
    },
    {
      "midi": 45,
      "hit": false,
      "t": 6307.136550000003,
      "d": 67.8570749999999,
      "v": 61
    },
    {
      "midi": 64,
      "hit": false,
      "t": 6307.136550000003,
      "d": 153.57127500000024,
      "v": 49
    },
    {
      "midi": 43,
      "hit": false,
      "t": 6449.993550000003,
      "d": 82.14277500000026,
      "v": 50
    },
    {
      "midi": 61,
      "hit": false,
      "t": 6449.993550000003,
      "d": 135.7141499999998,
      "v": 59
    },
    {
      "midi": 47,
      "hit": false,
      "t": 6592.850550000003,
      "d": 71.42849999999999,
      "v": 45
    },
    {
      "midi": 43,
      "hit": false,
      "t": 6735.707550000003,
      "d": 74.99992500000008,
      "v": 59
    },
    {
      "midi": 64,
      "hit": false,
      "t": 6735.707550000003,
      "d": 92.85705000000053,
      "v": 75
    },
    {
      "midi": 57,
      "hit": false,
      "t": 6857.136000000001,
      "d": 3410.710874999998,
      "v": 102
    },
    {
      "midi": 55,
      "hit": false,
      "t": 6857.136000000001,
      "d": 139.28557499999988,
      "v": 80
    },
    {
      "midi": 43,
      "hit": false,
      "t": 6857.136000000001,
      "d": 74.99992500000008,
      "v": 76
    },
    {
      "midi": 45,
      "hit": false,
      "t": 6878.564550000004,
      "d": 78.57135000000017,
      "v": 77
    },
    {
      "midi": 61,
      "hit": false,
      "t": 6878.564550000004,
      "d": 107.14274999999998,
      "v": 90
    },
    {
      "midi": 36,
      "hit": false,
      "t": 6878.564550000004,
      "d": 167.8569749999997,
      "v": 95
    },
    {
      "midi": 43,
      "hit": false,
      "t": 7139.278575000001,
      "d": 71.42849999999999,
      "v": 63
    },
    {
      "midi": 55,
      "hit": false,
      "t": 7142.850000000001,
      "d": 139.28557499999988,
      "v": 68
    },
    {
      "midi": 45,
      "hit": false,
      "t": 7164.278550000004,
      "d": 82.14277500000026,
      "v": 61
    },
    {
      "midi": 64,
      "hit": false,
      "t": 7164.278550000004,
      "d": 185.71410000000014,
      "v": 55
    },
    {
      "midi": 41,
      "hit": false,
      "t": 7278.564150000001,
      "d": 82.14277500000026,
      "v": 52
    },
    {
      "midi": 50,
      "hit": false,
      "t": 7285.707000000001,
      "d": 139.28557499999988,
      "v": 62
    },
    {
      "midi": 43,
      "hit": false,
      "t": 7307.135550000004,
      "d": 82.14277500000026,
      "v": 40
    },
    {
      "midi": 61,
      "hit": false,
      "t": 7307.135550000004,
      "d": 139.28557499999988,
      "v": 57
    },
    {
      "midi": 43,
      "hit": false,
      "t": 7421.421150000001,
      "d": 82.14277500000026,
      "v": 39
    },
    {
      "midi": 55,
      "hit": false,
      "t": 7428.564000000001,
      "d": 139.28557499999988,
      "v": 62
    },
    {
      "midi": 47,
      "hit": false,
      "t": 7449.992550000004,
      "d": 71.42849999999999,
      "v": 48
    },
    {
      "midi": 41,
      "hit": false,
      "t": 7560.706725000001,
      "d": 149.99985000000015,
      "v": 65
    },
    {
      "midi": 50,
      "hit": false,
      "t": 7571.421000000001,
      "d": 139.28557499999988,
      "v": 72
    },
    {
      "midi": 43,
      "hit": false,
      "t": 7592.849550000004,
      "d": 110.71417500000007,
      "v": 55
    },
    {
      "midi": 64,
      "hit": false,
      "t": 7592.849550000004,
      "d": 167.8569749999997,
      "v": 47
    },
    {
      "midi": 55,
      "hit": false,
      "t": 7714.278000000001,
      "d": 139.28557499999988,
      "v": 89
    },
    {
      "midi": 43,
      "hit": false,
      "t": 7732.135125000001,
      "d": 74.99992500000008,
      "v": 67
    },
    {
      "midi": 45,
      "hit": false,
      "t": 7735.7065500000035,
      "d": 74.99992500000008,
      "v": 73
    },
    {
      "midi": 61,
      "hit": false,
      "t": 7735.7065500000035,
      "d": 128.57130000000052,
      "v": 64
    },
    {
      "midi": 36,
      "hit": false,
      "t": 7735.7065500000035,
      "d": 171.4284000000007,
      "v": 79
    },
    {
      "midi": 55,
      "hit": false,
      "t": 7999.992000000001,
      "d": 139.28557499999988,
      "v": 76
    },
    {
      "midi": 43,
      "hit": false,
      "t": 8010.7062750000005,
      "d": 78.57135000000017,
      "v": 58
    },
    {
      "midi": 45,
      "hit": false,
      "t": 8021.420550000004,
      "d": 78.57135000000017,
      "v": 46
    },
    {
      "midi": 64,
      "hit": false,
      "t": 8021.420550000004,
      "d": 164.2855500000005,
      "v": 60
    },
    {
      "midi": 50,
      "hit": false,
      "t": 8142.849000000001,
      "d": 139.2855750000008,
      "v": 76
    },
    {
      "midi": 41,
      "hit": false,
      "t": 8149.99185,
      "d": 82.14277500000026,
      "v": 46
    },
    {
      "midi": 43,
      "hit": false,
      "t": 8164.277550000005,
      "d": 85.71419999999944,
      "v": 45
    },
    {
      "midi": 61,
      "hit": false,
      "t": 8164.277550000005,
      "d": 121.42845000000034,
      "v": 48
    },
    {
      "midi": 55,
      "hit": false,
      "t": 8285.706000000002,
      "d": 139.28557499999988,
      "v": 60
    },
    {
      "midi": 43,
      "hit": false,
      "t": 8292.84885,
      "d": 85.71420000000035,
      "v": 45
    },
    {
      "midi": 47,
      "hit": false,
      "t": 8307.134550000006,
      "d": 67.8570749999999,
      "v": 49
    },
    {
      "midi": 50,
      "hit": false,
      "t": 8428.563000000002,
      "d": 139.28557499999988,
      "v": 64
    },
    {
      "midi": 41,
      "hit": false,
      "t": 8446.420125,
      "d": 135.7141499999998,
      "v": 58
    },
    {
      "midi": 43,
      "hit": false,
      "t": 8449.991550000006,
      "d": 110.71417499999916,
      "v": 49
    },
    {
      "midi": 64,
      "hit": false,
      "t": 8449.991550000006,
      "d": 142.85699999999997,
      "v": 48
    },
    {
      "midi": 55,
      "hit": false,
      "t": 8571.420000000002,
      "d": 139.28557499999988,
      "v": 80
    },
    {
      "midi": 45,
      "hit": false,
      "t": 8592.848550000006,
      "d": 85.71420000000035,
      "v": 77
    },
    {
      "midi": 61,
      "hit": false,
      "t": 8592.848550000006,
      "d": 135.7141499999998,
      "v": 54
    },
    {
      "midi": 36,
      "hit": false,
      "t": 8592.848550000006,
      "d": 153.57127500000024,
      "v": 89
    },
    {
      "midi": 43,
      "hit": false,
      "t": 8599.9914,
      "d": 82.14277500000026,
      "v": 71
    },
    {
      "midi": 55,
      "hit": false,
      "t": 8857.134000000002,
      "d": 139.28557499999988,
      "v": 68
    },
    {
      "midi": 45,
      "hit": false,
      "t": 8878.562550000006,
      "d": 82.14277500000026,
      "v": 53
    },
    {
      "midi": 64,
      "hit": false,
      "t": 8878.562550000006,
      "d": 182.14267500000096,
      "v": 60
    },
    {
      "midi": 43,
      "hit": false,
      "t": 8885.7054,
      "d": 82.14277500000026,
      "v": 55
    },
    {
      "midi": 50,
      "hit": false,
      "t": 8999.991000000002,
      "d": 139.28557499999988,
      "v": 62
    },
    {
      "midi": 43,
      "hit": false,
      "t": 9021.419550000006,
      "d": 85.71420000000035,
      "v": 48
    },
    {
      "midi": 61,
      "hit": false,
      "t": 9021.419550000006,
      "d": 124.99987499999952,
      "v": 58
    },
    {
      "midi": 41,
      "hit": false,
      "t": 9028.5624,
      "d": 82.14277500000026,
      "v": 53
    },
    {
      "midi": 55,
      "hit": false,
      "t": 9142.848000000002,
      "d": 139.28557499999988,
      "v": 62
    },
    {
      "midi": 47,
      "hit": false,
      "t": 9164.276550000006,
      "d": 71.42849999999999,
      "v": 40
    },
    {
      "midi": 43,
      "hit": false,
      "t": 9167.847975,
      "d": 82.14277500000026,
      "v": 39
    },
    {
      "midi": 50,
      "hit": false,
      "t": 9285.705000000002,
      "d": 139.28557499999988,
      "v": 72
    },
    {
      "midi": 43,
      "hit": false,
      "t": 9307.133550000006,
      "d": 121.42844999999943,
      "v": 49
    },
    {
      "midi": 64,
      "hit": false,
      "t": 9307.133550000006,
      "d": 171.4284000000007,
      "v": 59
    },
    {
      "midi": 41,
      "hit": false,
      "t": 9310.704975,
      "d": 132.1427249999997,
      "v": 56
    },
    {
      "midi": 55,
      "hit": false,
      "t": 9428.562000000002,
      "d": 139.28557499999988,
      "v": 89
    },
    {
      "midi": 45,
      "hit": false,
      "t": 9449.990550000006,
      "d": 82.14277500000026,
      "v": 75
    },
    {
      "midi": 36,
      "hit": false,
      "t": 9449.990550000006,
      "d": 128.5712999999996,
      "v": 88
    },
    {
      "midi": 61,
      "hit": false,
      "t": 9449.990550000006,
      "d": 132.1427249999997,
      "v": 57
    },
    {
      "midi": 43,
      "hit": false,
      "t": 9464.27625,
      "d": 82.14277500000026,
      "v": 78
    },
    {
      "midi": 55,
      "hit": false,
      "t": 9714.276000000002,
      "d": 139.28557499999988,
      "v": 76
    },
    {
      "midi": 45,
      "hit": false,
      "t": 9735.704550000006,
      "d": 82.14277500000026,
      "v": 49
    },
    {
      "midi": 64,
      "hit": false,
      "t": 9735.704550000006,
      "d": 164.2855500000005,
      "v": 50
    },
    {
      "midi": 43,
      "hit": false,
      "t": 9749.99025,
      "d": 74.99992500000008,
      "v": 53
    },
    {
      "midi": 50,
      "hit": false,
      "t": 9857.133000000002,
      "d": 139.28557499999988,
      "v": 76
    },
    {
      "midi": 43,
      "hit": false,
      "t": 9878.561550000006,
      "d": 82.14277500000026,
      "v": 46
    },
    {
      "midi": 61,
      "hit": false,
      "t": 9878.561550000006,
      "d": 132.14272500000152,
      "v": 60
    },
    {
      "midi": 41,
      "hit": false,
      "t": 9882.132975,
      "d": 92.85705000000053,
      "v": 60
    },
    {
      "midi": 55,
      "hit": false,
      "t": 9999.990000000002,
      "d": 139.28557499999988,
      "v": 60
    },
    {
      "midi": 47,
      "hit": false,
      "t": 10021.418550000008,
      "d": 64.2856499999998,
      "v": 34
    },
    {
      "midi": 43,
      "hit": false,
      "t": 10032.132825,
      "d": 82.14277500000026,
      "v": 37
    },
    {
      "midi": 50,
      "hit": false,
      "t": 10142.847000000002,
      "d": 139.28557499999988,
      "v": 64
    },
    {
      "midi": 43,
      "hit": false,
      "t": 10164.275550000008,
      "d": 110.71417499999916,
      "v": 49
    },
    {
      "midi": 64,
      "hit": false,
      "t": 10164.275550000008,
      "d": 171.4284000000007,
      "v": 57
    },
    {
      "midi": 41,
      "hit": false,
      "t": 10167.846975,
      "d": 117.85702499999934,
      "v": 46
    },
    {
      "midi": 58,
      "hit": false,
      "t": 10285.704,
      "d": 3435.710849999996,
      "v": 103
    },
    {
      "midi": 55,
      "hit": false,
      "t": 10285.704000000002,
      "d": 139.28557499999988,
      "v": 80
    },
    {
      "midi": 45,
      "hit": false,
      "t": 10307.132550000008,
      "d": 78.57135000000017,
      "v": 73
    },
    {
      "midi": 61,
      "hit": false,
      "t": 10307.132550000008,
      "d": 132.1427249999997,
      "v": 68
    },
    {
      "midi": 36,
      "hit": false,
      "t": 10307.132550000008,
      "d": 146.42842500000006,
      "v": 95
    },
    {
      "midi": 43,
      "hit": false,
      "t": 10317.846825,
      "d": 85.71420000000035,
      "v": 71
    },
    {
      "midi": 55,
      "hit": false,
      "t": 10571.418000000001,
      "d": 139.28557499999988,
      "v": 68
    },
    {
      "midi": 45,
      "hit": false,
      "t": 10592.846550000007,
      "d": 71.42849999999999,
      "v": 55
    },
    {
      "midi": 64,
      "hit": false,
      "t": 10592.846550000007,
      "d": 182.14267499999914,
      "v": 54
    },
    {
      "midi": 43,
      "hit": false,
      "t": 10596.417975,
      "d": 82.14277500000026,
      "v": 52
    },
    {
      "midi": 50,
      "hit": false,
      "t": 10714.275000000001,
      "d": 139.28557499999988,
      "v": 62
    },
    {
      "midi": 41,
      "hit": false,
      "t": 10721.41785,
      "d": 82.14277500000026,
      "v": 52
    },
    {
      "midi": 43,
      "hit": false,
      "t": 10735.703550000007,
      "d": 82.14277499999844,
      "v": 40
    },
    {
      "midi": 61,
      "hit": false,
      "t": 10735.703550000007,
      "d": 142.85699999999815,
      "v": 68
    },
    {
      "midi": 55,
      "hit": false,
      "t": 10857.132000000001,
      "d": 139.28557499999988,
      "v": 62
    },
    {
      "midi": 43,
      "hit": false,
      "t": 10871.4177,
      "d": 82.14277500000026,
      "v": 41
    },
    {
      "midi": 47,
      "hit": false,
      "t": 10878.560550000006,
      "d": 67.85707500000171,
      "v": 37
    },
    {
      "midi": 50,
      "hit": false,
      "t": 10999.989000000001,
      "d": 139.28557499999988,
      "v": 72
    },
    {
      "midi": 41,
      "hit": false,
      "t": 11014.2747,
      "d": 121.42844999999943,
      "v": 55
    },
    {
      "midi": 43,
      "hit": false,
      "t": 11021.417550000007,
      "d": 117.85702499999934,
      "v": 45
    },
    {
      "midi": 64,
      "hit": false,
      "t": 11021.417550000007,
      "d": 160.71412500000042,
      "v": 47
    },
    {
      "midi": 55,
      "hit": false,
      "t": 11142.846000000001,
      "d": 139.28557499999988,
      "v": 89
    },
    {
      "midi": 43,
      "hit": false,
      "t": 11160.703125,
      "d": 82.14277500000026,
      "v": 63
    },
    {
      "midi": 45,
      "hit": false,
      "t": 11164.274550000007,
      "d": 71.42849999999999,
      "v": 71
    },
    {
      "midi": 36,
      "hit": false,
      "t": 11164.274550000007,
      "d": 128.5712999999996,
      "v": 97
    },
    {
      "midi": 61,
      "hit": false,
      "t": 11164.274550000007,
      "d": 153.57127500000024,
      "v": 60
    },
    {
      "midi": 55,
      "hit": false,
      "t": 11428.560000000001,
      "d": 139.28557499999988,
      "v": 76
    },
    {
      "midi": 43,
      "hit": false,
      "t": 11442.8457,
      "d": 82.14277500000026,
      "v": 55
    },
    {
      "midi": 45,
      "hit": false,
      "t": 11449.988550000007,
      "d": 78.57135000000017,
      "v": 55
    },
    {
      "midi": 64,
      "hit": false,
      "t": 11449.988550000007,
      "d": 167.8569750000006,
      "v": 57
    },
    {
      "midi": 50,
      "hit": false,
      "t": 11571.417000000001,
      "d": 139.28557499999988,
      "v": 76
    },
    {
      "midi": 41,
      "hit": false,
      "t": 11585.7027,
      "d": 78.57135000000017,
      "v": 52
    },
    {
      "midi": 43,
      "hit": false,
      "t": 11592.845550000007,
      "d": 78.57135000000017,
      "v": 45
    },
    {
      "midi": 61,
      "hit": false,
      "t": 11592.845550000007,
      "d": 139.28557499999988,
      "v": 55
    },
    {
      "midi": 55,
      "hit": false,
      "t": 11714.274000000001,
      "d": 139.28557499999988,
      "v": 60
    },
    {
      "midi": 43,
      "hit": false,
      "t": 11721.41685,
      "d": 89.28562500000044,
      "v": 44
    },
    {
      "midi": 47,
      "hit": false,
      "t": 11735.702550000007,
      "d": 71.42849999999999,
      "v": 36
    },
    {
      "midi": 50,
      "hit": false,
      "t": 11857.131000000001,
      "d": 139.28557499999988,
      "v": 64
    },
    {
      "midi": 41,
      "hit": false,
      "t": 11874.988125,
      "d": 103.5713250000008,
      "v": 56
    },
    {
      "midi": 43,
      "hit": false,
      "t": 11878.559550000007,
      "d": 117.85702499999934,
      "v": 48
    },
    {
      "midi": 64,
      "hit": false,
      "t": 11878.559550000007,
      "d": 157.14270000000033,
      "v": 43
    },
    {
      "midi": 55,
      "hit": false,
      "t": 11999.988000000001,
      "d": 139.28557499999988,
      "v": 80
    },
    {
      "midi": 43,
      "hit": false,
      "t": 12003.559425000001,
      "d": 89.28562500000044,
      "v": 69
    },
    {
      "midi": 45,
      "hit": false,
      "t": 12021.416550000007,
      "d": 78.57135000000017,
      "v": 75
    },
    {
      "midi": 61,
      "hit": false,
      "t": 12021.416550000007,
      "d": 135.7141499999998,
      "v": 54
    },
    {
      "midi": 36,
      "hit": false,
      "t": 12021.416550000007,
      "d": 146.42842500000006,
      "v": 95
    },
    {
      "midi": 55,
      "hit": false,
      "t": 12285.702000000001,
      "d": 139.28557499999988,
      "v": 68
    },
    {
      "midi": 43,
      "hit": false,
      "t": 12299.987700000001,
      "d": 82.14277500000026,
      "v": 53
    },
    {
      "midi": 45,
      "hit": false,
      "t": 12307.130550000007,
      "d": 74.99992500000008,
      "v": 63
    },
    {
      "midi": 64,
      "hit": false,
      "t": 12307.130550000007,
      "d": 182.14267500000096,
      "v": 57
    },
    {
      "midi": 50,
      "hit": false,
      "t": 12428.559000000001,
      "d": 139.28557499999988,
      "v": 62
    },
    {
      "midi": 41,
      "hit": false,
      "t": 12435.701850000001,
      "d": 74.99992500000008,
      "v": 58
    },
    {
      "midi": 43,
      "hit": false,
      "t": 12449.987550000007,
      "d": 71.4285000000018,
      "v": 37
    },
    {
      "midi": 61,
      "hit": false,
      "t": 12449.987550000007,
      "d": 160.71412500000224,
      "v": 64
    },
    {
      "midi": 55,
      "hit": false,
      "t": 12571.416000000001,
      "d": 139.28557499999988,
      "v": 62
    },
    {
      "midi": 43,
      "hit": false,
      "t": 12571.416000000001,
      "d": 82.14277500000026,
      "v": 44
    },
    {
      "midi": 47,
      "hit": false,
      "t": 12592.844550000009,
      "d": 82.14277500000026,
      "v": 39
    },
    {
      "midi": 50,
      "hit": false,
      "t": 12714.273000000001,
      "d": 139.28557499999988,
      "v": 72
    },
    {
      "midi": 41,
      "hit": false,
      "t": 12717.844425000001,
      "d": 121.42844999999943,
      "v": 60
    },
    {
      "midi": 43,
      "hit": false,
      "t": 12735.701550000009,
      "d": 107.14274999999907,
      "v": 48
    },
    {
      "midi": 64,
      "hit": false,
      "t": 12735.701550000009,
      "d": 171.4284000000007,
      "v": 38
    },
    {
      "midi": 55,
      "hit": false,
      "t": 12857.130000000001,
      "d": 139.28557499999988,
      "v": 89
    },
    {
      "midi": 43,
      "hit": false,
      "t": 12867.844275000001,
      "d": 85.71420000000035,
      "v": 65
    },
    {
      "midi": 45,
      "hit": false,
      "t": 12878.558550000009,
      "d": 78.57135000000017,
      "v": 73
    },
    {
      "midi": 36,
      "hit": false,
      "t": 12878.558550000009,
      "d": 128.5712999999996,
      "v": 97
    },
    {
      "midi": 61,
      "hit": false,
      "t": 12878.558550000009,
      "d": 153.57127500000024,
      "v": 63
    },
    {
      "midi": 55,
      "hit": false,
      "t": 13142.844000000001,
      "d": 139.28557499999988,
      "v": 76
    },
    {
      "midi": 45,
      "hit": false,
      "t": 13164.272550000009,
      "d": 67.8570749999999,
      "v": 61
    },
    {
      "midi": 64,
      "hit": false,
      "t": 13164.272550000009,
      "d": 153.57127500000024,
      "v": 49
    },
    {
      "midi": 43,
      "hit": false,
      "t": 13167.843975000002,
      "d": 89.28562500000044,
      "v": 59
    },
    {
      "midi": 50,
      "hit": false,
      "t": 13285.701000000001,
      "d": 139.28557499999988,
      "v": 76
    },
    {
      "midi": 43,
      "hit": false,
      "t": 13307.129550000009,
      "d": 82.14277500000026,
      "v": 50
    },
    {
      "midi": 61,
      "hit": false,
      "t": 13307.129550000009,
      "d": 135.7141499999998,
      "v": 59
    },
    {
      "midi": 41,
      "hit": false,
      "t": 13339.272375000002,
      "d": 64.2856499999998,
      "v": 47
    },
    {
      "midi": 55,
      "hit": false,
      "t": 13428.558,
      "d": 139.28557499999988,
      "v": 60
    },
    {
      "midi": 47,
      "hit": false,
      "t": 13449.986550000009,
      "d": 71.42849999999999,
      "v": 45
    },
    {
      "midi": 43,
      "hit": false,
      "t": 13471.415100000002,
      "d": 82.14277500000026,
      "v": 45
    },
    {
      "midi": 50,
      "hit": false,
      "t": 13571.415,
      "d": 139.28557499999988,
      "v": 64
    },
    {
      "midi": 43,
      "hit": false,
      "t": 13592.843550000009,
      "d": 74.99992500000008,
      "v": 59
    },
    {
      "midi": 64,
      "hit": false,
      "t": 13592.843550000009,
      "d": 92.85705000000053,
      "v": 75
    },
    {
      "midi": 41,
      "hit": false,
      "t": 13614.272100000002,
      "d": 107.14275000000089,
      "v": 53
    },
    {
      "midi": 55,
      "hit": false,
      "t": 13714.271999999995,
      "d": 2589.2831250000017,
      "v": 104
    },
    {
      "midi": 55,
      "hit": false,
      "t": 13714.272,
      "d": 139.28557499999988,
      "v": 80
    },
    {
      "midi": 62,
      "hit": false,
      "t": 13714.272000000003,
      "d": 521.4280500000023,
      "v": 82
    },
    {
      "midi": 55,
      "hit": false,
      "t": 13714.272000000003,
      "d": 524.9994750000023,
      "v": 87
    },
    {
      "midi": 50,
      "hit": false,
      "t": 13714.272000000003,
      "d": 546.4280250000029,
      "v": 98
    },
    {
      "midi": 45,
      "hit": false,
      "t": 13735.70055000001,
      "d": 78.57135000000017,
      "v": 77
    },
    {
      "midi": 61,
      "hit": false,
      "t": 13735.70055000001,
      "d": 107.14275000000089,
      "v": 90
    },
    {
      "midi": 36,
      "hit": false,
      "t": 13735.70055000001,
      "d": 167.8569750000006,
      "v": 95
    },
    {
      "midi": 43,
      "hit": false,
      "t": 13760.700525000002,
      "d": 85.71420000000035,
      "v": 69
    },
    {
      "midi": 55,
      "hit": false,
      "t": 13999.986,
      "d": 139.28557499999988,
      "v": 68
    },
    {
      "midi": 45,
      "hit": false,
      "t": 14021.41455000001,
      "d": 82.14277500000026,
      "v": 61
    },
    {
      "midi": 64,
      "hit": false,
      "t": 14021.41455000001,
      "d": 185.71409999999923,
      "v": 55
    },
    {
      "midi": 43,
      "hit": false,
      "t": 14028.557400000002,
      "d": 78.57135000000017,
      "v": 53
    },
    {
      "midi": 50,
      "hit": false,
      "t": 14142.843,
      "d": 139.28557499999988,
      "v": 62
    },
    {
      "midi": 43,
      "hit": false,
      "t": 14164.27155000001,
      "d": 82.14277499999844,
      "v": 40
    },
    {
      "midi": 61,
      "hit": false,
      "t": 14164.27155000001,
      "d": 139.28557499999806,
      "v": 57
    },
    {
      "midi": 41,
      "hit": false,
      "t": 14167.842975000001,
      "d": 74.99992500000008,
      "v": 53
    },
    {
      "midi": 55,
      "hit": false,
      "t": 14285.7,
      "d": 139.28557499999988,
      "v": 62
    },
    {
      "midi": 43,
      "hit": false,
      "t": 14303.557125000001,
      "d": 74.99992500000008,
      "v": 39
    },
    {
      "midi": 47,
      "hit": false,
      "t": 14307.128550000009,
      "d": 71.42849999999999,
      "v": 48
    },
    {
      "midi": 50,
      "hit": false,
      "t": 14428.557,
      "d": 139.28557499999988,
      "v": 72
    },
    {
      "midi": 43,
      "hit": false,
      "t": 14449.985550000009,
      "d": 110.71417499999916,
      "v": 55
    },
    {
      "midi": 64,
      "hit": false,
      "t": 14449.985550000009,
      "d": 167.8569750000006,
      "v": 47
    },
    {
      "midi": 41,
      "hit": false,
      "t": 14457.128400000001,
      "d": 110.71417499999916,
      "v": 50
    },
    {
      "midi": 55,
      "hit": false,
      "t": 14571.414,
      "d": 139.28557499999988,
      "v": 89
    },
    {
      "midi": 62,
      "hit": false,
      "t": 14571.414000000006,
      "d": 542.8566000000028,
      "v": 90
    },
    {
      "midi": 55,
      "hit": false,
      "t": 14571.414000000006,
      "d": 546.4280250000029,
      "v": 90
    },
    {
      "midi": 50,
      "hit": false,
      "t": 14571.414000000006,
      "d": 574.9994250000036,
      "v": 98
    },
    {
      "midi": 43,
      "hit": false,
      "t": 14585.699700000001,
      "d": 82.14277500000026,
      "v": 65
    },
    {
      "midi": 45,
      "hit": false,
      "t": 14592.842550000008,
      "d": 74.9999250000019,
      "v": 73
    },
    {
      "midi": 61,
      "hit": false,
      "t": 14592.842550000008,
      "d": 128.57130000000143,
      "v": 64
    },
    {
      "midi": 36,
      "hit": false,
      "t": 14592.842550000008,
      "d": 171.4284000000007,
      "v": 79
    },
    {
      "midi": 55,
      "hit": false,
      "t": 14857.128,
      "d": 139.28557499999988,
      "v": 76
    },
    {
      "midi": 43,
      "hit": false,
      "t": 14864.27085,
      "d": 82.14277500000026,
      "v": 58
    },
    {
      "midi": 45,
      "hit": false,
      "t": 14878.556550000008,
      "d": 78.57135000000017,
      "v": 46
    },
    {
      "midi": 64,
      "hit": false,
      "t": 14878.556550000008,
      "d": 164.2855500000005,
      "v": 60
    },
    {
      "midi": 50,
      "hit": false,
      "t": 14999.985,
      "d": 139.28557499999988,
      "v": 76
    },
    {
      "midi": 41,
      "hit": false,
      "t": 15003.556425,
      "d": 82.14277500000026,
      "v": 50
    },
    {
      "midi": 43,
      "hit": false,
      "t": 15021.413550000008,
      "d": 85.71420000000035,
      "v": 45
    },
    {
      "midi": 61,
      "hit": false,
      "t": 15021.413550000008,
      "d": 121.42845000000125,
      "v": 48
    },
    {
      "midi": 55,
      "hit": false,
      "t": 15142.842,
      "d": 139.28557499999988,
      "v": 60
    },
    {
      "midi": 43,
      "hit": false,
      "t": 15149.98485,
      "d": 78.57135000000017,
      "v": 41
    },
    {
      "midi": 47,
      "hit": false,
      "t": 15164.27055000001,
      "d": 67.8570749999999,
      "v": 49
    },
    {
      "midi": 50,
      "hit": false,
      "t": 15285.699,
      "d": 139.28557499999988,
      "v": 64
    },
    {
      "midi": 41,
      "hit": false,
      "t": 15307.127550000001,
      "d": 110.71417499999916,
      "v": 58
    },
    {
      "midi": 43,
      "hit": false,
      "t": 15307.12755000001,
      "d": 110.71417499999916,
      "v": 49
    },
    {
      "midi": 64,
      "hit": false,
      "t": 15307.12755000001,
      "d": 142.85699999999997,
      "v": 48
    },
    {
      "midi": 55,
      "hit": false,
      "t": 15428.556,
      "d": 139.28557499999988,
      "v": 80
    },
    {
      "midi": 62,
      "hit": false,
      "t": 15428.556000000011,
      "d": 535.7137500000026,
      "v": 90
    },
    {
      "midi": 55,
      "hit": false,
      "t": 15428.556000000011,
      "d": 535.7137500000026,
      "v": 93
    },
    {
      "midi": 50,
      "hit": false,
      "t": 15428.556000000011,
      "d": 560.7137250000033,
      "v": 103
    },
    {
      "midi": 43,
      "hit": false,
      "t": 15449.984550000001,
      "d": 82.14277500000026,
      "v": 60
    },
    {
      "midi": 45,
      "hit": false,
      "t": 15449.98455000001,
      "d": 85.71420000000035,
      "v": 77
    },
    {
      "midi": 61,
      "hit": false,
      "t": 15449.98455000001,
      "d": 135.7141499999998,
      "v": 54
    },
    {
      "midi": 36,
      "hit": false,
      "t": 15449.98455000001,
      "d": 153.57127500000024,
      "v": 89
    },
    {
      "midi": 55,
      "hit": false,
      "t": 15714.27,
      "d": 139.28557499999988,
      "v": 68
    },
    {
      "midi": 43,
      "hit": false,
      "t": 15721.41285,
      "d": 85.71420000000035,
      "v": 56
    },
    {
      "midi": 45,
      "hit": false,
      "t": 15735.69855000001,
      "d": 82.14277500000026,
      "v": 53
    },
    {
      "midi": 64,
      "hit": false,
      "t": 15735.69855000001,
      "d": 182.14267499999914,
      "v": 60
    },
    {
      "midi": 50,
      "hit": false,
      "t": 15857.127,
      "d": 139.28557499999988,
      "v": 62
    },
    {
      "midi": 41,
      "hit": false,
      "t": 15878.555550000001,
      "d": 74.99992500000008,
      "v": 53
    },
    {
      "midi": 43,
      "hit": false,
      "t": 15878.55555000001,
      "d": 85.71419999999853,
      "v": 48
    },
    {
      "midi": 61,
      "hit": false,
      "t": 15878.55555000001,
      "d": 124.9998749999977,
      "v": 58
    },
    {
      "midi": 55,
      "hit": false,
      "t": 15999.984,
      "d": 139.28557499999988,
      "v": 62
    },
    {
      "midi": 43,
      "hit": false,
      "t": 16014.2697,
      "d": 74.99992500000008,
      "v": 42
    },
    {
      "midi": 47,
      "hit": false,
      "t": 16021.412550000008,
      "d": 71.42849999999999,
      "v": 40
    },
    {
      "midi": 50,
      "hit": false,
      "t": 16142.841,
      "d": 139.28557499999988,
      "v": 72
    },
    {
      "midi": 43,
      "hit": false,
      "t": 16164.269550000008,
      "d": 121.42844999999943,
      "v": 49
    },
    {
      "midi": 64,
      "hit": false,
      "t": 16164.269550000008,
      "d": 171.4284000000007,
      "v": 59
    },
    {
      "midi": 41,
      "hit": false,
      "t": 16171.412400000001,
      "d": 99.99990000000071,
      "v": 55
    },
    {
      "midi": 53,
      "hit": false,
      "t": 16285.697999999997,
      "d": 803.5706250000003,
      "v": 105
    },
    {
      "midi": 55,
      "hit": false,
      "t": 16285.698,
      "d": 139.2855750000017,
      "v": 89
    },
    {
      "midi": 62,
      "hit": false,
      "t": 16285.698000000015,
      "d": 99.99989999999889,
      "v": 90
    },
    {
      "midi": 50,
      "hit": false,
      "t": 16285.698000000015,
      "d": 132.14272499999788,
      "v": 101
    },
    {
      "midi": 55,
      "hit": false,
      "t": 16285.698000000015,
      "d": 139.28557499999806,
      "v": 93
    },
    {
      "midi": 45,
      "hit": false,
      "t": 16307.126550000008,
      "d": 82.14277500000026,
      "v": 75
    },
    {
      "midi": 36,
      "hit": false,
      "t": 16307.126550000008,
      "d": 128.5712999999996,
      "v": 88
    },
    {
      "midi": 61,
      "hit": false,
      "t": 16307.126550000008,
      "d": 132.14272499999788,
      "v": 57
    },
    {
      "midi": 43,
      "hit": false,
      "t": 16314.269400000001,
      "d": 78.57134999999835,
      "v": 67
    },
    {
      "midi": 55,
      "hit": false,
      "t": 16571.412,
      "d": 139.2855750000017,
      "v": 76
    },
    {
      "midi": 62,
      "hit": false,
      "t": 16571.41200000001,
      "d": 71.4285000000018,
      "v": 95
    },
    {
      "midi": 55,
      "hit": false,
      "t": 16571.41200000001,
      "d": 92.85705000000235,
      "v": 93
    },
    {
      "midi": 50,
      "hit": false,
      "t": 16571.41200000001,
      "d": 96.42847500000062,
      "v": 101
    },
    {
      "midi": 43,
      "hit": false,
      "t": 16582.126275,
      "d": 82.14277500000026,
      "v": 53
    },
    {
      "midi": 45,
      "hit": false,
      "t": 16592.840550000004,
      "d": 82.14277500000026,
      "v": 49
    },
    {
      "midi": 64,
      "hit": false,
      "t": 16592.840550000004,
      "d": 164.2855500000005,
      "v": 50
    },
    {
      "midi": 50,
      "hit": false,
      "t": 16714.269,
      "d": 139.2855750000017,
      "v": 76
    },
    {
      "midi": 41,
      "hit": false,
      "t": 16732.126125,
      "d": 60.714224999999715,
      "v": 41
    },
    {
      "midi": 43,
      "hit": false,
      "t": 16735.697550000004,
      "d": 82.14277500000026,
      "v": 46
    },
    {
      "midi": 61,
      "hit": false,
      "t": 16735.697550000004,
      "d": 132.14272500000152,
      "v": 60
    },
    {
      "midi": 55,
      "hit": false,
      "t": 16857.126,
      "d": 139.2855750000017,
      "v": 60
    },
    {
      "midi": 43,
      "hit": false,
      "t": 16857.126,
      "d": 82.14277500000026,
      "v": 45
    },
    {
      "midi": 62,
      "hit": false,
      "t": 16857.126000000015,
      "d": 71.4285000000018,
      "v": 90
    },
    {
      "midi": 55,
      "hit": false,
      "t": 16857.126000000015,
      "d": 89.28562500000044,
      "v": 85
    },
    {
      "midi": 50,
      "hit": false,
      "t": 16857.126000000015,
      "d": 103.5713250000008,
      "v": 98
    },
    {
      "midi": 47,
      "hit": false,
      "t": 16878.554550000004,
      "d": 64.28565000000162,
      "v": 34
    },
    {
      "midi": 62,
      "hit": false,
      "t": 16878.554550000004,
      "d": 135.71415000000343,
      "v": 53
    },
    {
      "midi": 50,
      "hit": false,
      "t": 16999.983,
      "d": 139.2855750000017,
      "v": 64
    },
    {
      "midi": 41,
      "hit": false,
      "t": 17010.697275000002,
      "d": 96.42847500000062,
      "v": 55
    },
    {
      "midi": 43,
      "hit": false,
      "t": 17021.411550000008,
      "d": 110.71417500000098,
      "v": 49
    },
    {
      "midi": 64,
      "hit": false,
      "t": 17021.411550000008,
      "d": 171.4284000000007,
      "v": 57
    },
    {
      "midi": 55,
      "hit": false,
      "t": 17142.839999999997,
      "d": 3392.853750000002,
      "v": 100
    },
    {
      "midi": 55,
      "hit": false,
      "t": 17142.84,
      "d": 139.2855750000017,
      "v": 80
    },
    {
      "midi": 55,
      "hit": false,
      "t": 17142.840000000015,
      "d": 521.4280500000023,
      "v": 95
    },
    {
      "midi": 62,
      "hit": false,
      "t": 17142.840000000015,
      "d": 524.9994750000005,
      "v": 101
    },
    {
      "midi": 50,
      "hit": false,
      "t": 17142.840000000015,
      "d": 553.5708750000013,
      "v": 103
    },
    {
      "midi": 43,
      "hit": false,
      "t": 17160.697125000002,
      "d": 89.28562500000044,
      "v": 73
    },
    {
      "midi": 45,
      "hit": false,
      "t": 17164.268550000008,
      "d": 78.57135000000198,
      "v": 73
    },
    {
      "midi": 61,
      "hit": false,
      "t": 17164.268550000008,
      "d": 132.14272500000152,
      "v": 68
    },
    {
      "midi": 36,
      "hit": false,
      "t": 17164.268550000008,
      "d": 146.42842500000188,
      "v": 95
    },
    {
      "midi": 55,
      "hit": false,
      "t": 17428.554,
      "d": 139.2855750000017,
      "v": 68
    },
    {
      "midi": 43,
      "hit": false,
      "t": 17432.125425000002,
      "d": 74.99992500000008,
      "v": 50
    },
    {
      "midi": 45,
      "hit": false,
      "t": 17449.98255000001,
      "d": 71.4285000000018,
      "v": 55
    },
    {
      "midi": 64,
      "hit": false,
      "t": 17449.98255000001,
      "d": 182.14267500000278,
      "v": 54
    },
    {
      "midi": 50,
      "hit": false,
      "t": 17571.411,
      "d": 139.2855750000017,
      "v": 62
    },
    {
      "midi": 41,
      "hit": false,
      "t": 17571.411000000004,
      "d": 82.14277500000026,
      "v": 58
    },
    {
      "midi": 43,
      "hit": false,
      "t": 17592.839550000015,
      "d": 82.14277500000026,
      "v": 40
    },
    {
      "midi": 61,
      "hit": false,
      "t": 17592.839550000015,
      "d": 142.85699999999997,
      "v": 68
    },
    {
      "midi": 55,
      "hit": false,
      "t": 17714.268,
      "d": 139.2855750000017,
      "v": 62
    },
    {
      "midi": 43,
      "hit": false,
      "t": 17721.410850000004,
      "d": 78.57134999999835,
      "v": 42
    },
    {
      "midi": 47,
      "hit": false,
      "t": 17735.696550000015,
      "d": 67.8570749999999,
      "v": 37
    },
    {
      "midi": 50,
      "hit": false,
      "t": 17857.125,
      "d": 139.2855750000017,
      "v": 72
    },
    {
      "midi": 41,
      "hit": false,
      "t": 17871.410700000004,
      "d": 107.14274999999907,
      "v": 59
    },
    {
      "midi": 43,
      "hit": false,
      "t": 17878.553550000015,
      "d": 117.85702500000116,
      "v": 45
    },
    {
      "midi": 64,
      "hit": false,
      "t": 17878.553550000015,
      "d": 160.7141249999986,
      "v": 47
    },
    {
      "midi": 55,
      "hit": false,
      "t": 17999.982,
      "d": 139.2855750000017,
      "v": 89
    },
    {
      "midi": 55,
      "hit": false,
      "t": 17999.982000000015,
      "d": 514.2851999999984,
      "v": 93
    },
    {
      "midi": 62,
      "hit": false,
      "t": 17999.982000000015,
      "d": 532.1423249999971,
      "v": 95
    },
    {
      "midi": 50,
      "hit": false,
      "t": 17999.982000000015,
      "d": 553.5708749999976,
      "v": 103
    },
    {
      "midi": 43,
      "hit": false,
      "t": 18014.267700000004,
      "d": 85.71419999999853,
      "v": 73
    },
    {
      "midi": 45,
      "hit": false,
      "t": 18021.410550000015,
      "d": 71.42849999999817,
      "v": 71
    },
    {
      "midi": 36,
      "hit": false,
      "t": 18021.410550000015,
      "d": 128.5712999999996,
      "v": 97
    },
    {
      "midi": 61,
      "hit": false,
      "t": 18021.410550000015,
      "d": 153.57127499999842,
      "v": 60
    },
    {
      "midi": 55,
      "hit": false,
      "t": 18285.696,
      "d": 139.2855750000017,
      "v": 76
    },
    {
      "midi": 43,
      "hit": false,
      "t": 18296.410275000002,
      "d": 82.14277500000026,
      "v": 55
    },
    {
      "midi": 45,
      "hit": false,
      "t": 18307.124550000015,
      "d": 78.57134999999835,
      "v": 55
    },
    {
      "midi": 64,
      "hit": false,
      "t": 18307.124550000015,
      "d": 167.85697499999878,
      "v": 57
    },
    {
      "midi": 50,
      "hit": false,
      "t": 18428.553,
      "d": 139.2855750000017,
      "v": 76
    },
    {
      "midi": 41,
      "hit": false,
      "t": 18442.838700000004,
      "d": 82.14277500000026,
      "v": 56
    },
    {
      "midi": 43,
      "hit": false,
      "t": 18449.981550000015,
      "d": 78.57134999999835,
      "v": 45
    },
    {
      "midi": 61,
      "hit": false,
      "t": 18449.981550000015,
      "d": 139.28557499999806,
      "v": 55
    },
    {
      "midi": 55,
      "hit": false,
      "t": 18571.41,
      "d": 139.2855750000017,
      "v": 60
    },
    {
      "midi": 43,
      "hit": false,
      "t": 18589.267125000006,
      "d": 74.99992500000008,
      "v": 49
    },
    {
      "midi": 47,
      "hit": false,
      "t": 18592.83855000001,
      "d": 71.4285000000018,
      "v": 36
    },
    {
      "midi": 50,
      "hit": false,
      "t": 18714.267,
      "d": 139.2855750000017,
      "v": 64
    },
    {
      "midi": 43,
      "hit": false,
      "t": 18735.695550000015,
      "d": 117.85702500000116,
      "v": 48
    },
    {
      "midi": 64,
      "hit": false,
      "t": 18735.695550000015,
      "d": 157.14270000000033,
      "v": 43
    },
    {
      "midi": 41,
      "hit": false,
      "t": 18739.266975000006,
      "d": 107.14274999999907,
      "v": 52
    },
    {
      "midi": 55,
      "hit": false,
      "t": 18857.124,
      "d": 139.2855750000017,
      "v": 80
    },
    {
      "midi": 55,
      "hit": false,
      "t": 18857.12400000001,
      "d": 514.2851999999984,
      "v": 95
    },
    {
      "midi": 50,
      "hit": false,
      "t": 18857.12400000001,
      "d": 521.4280499999986,
      "v": 103
    },
    {
      "midi": 62,
      "hit": false,
      "t": 18857.12400000001,
      "d": 528.5708999999988,
      "v": 98
    },
    {
      "midi": 43,
      "hit": false,
      "t": 18874.981125000006,
      "d": 82.14277500000026,
      "v": 69
    },
    {
      "midi": 45,
      "hit": false,
      "t": 18878.552550000015,
      "d": 78.57135000000198,
      "v": 75
    },
    {
      "midi": 61,
      "hit": false,
      "t": 18878.552550000015,
      "d": 135.71415000000343,
      "v": 54
    },
    {
      "midi": 36,
      "hit": false,
      "t": 18878.552550000015,
      "d": 146.42842500000188,
      "v": 95
    },
    {
      "midi": 55,
      "hit": false,
      "t": 19142.838,
      "d": 139.2855750000017,
      "v": 68
    },
    {
      "midi": 43,
      "hit": false,
      "t": 19146.409425000005,
      "d": 82.14277500000026,
      "v": 59
    },
    {
      "midi": 45,
      "hit": false,
      "t": 19164.26655000002,
      "d": 74.99992500000008,
      "v": 63
    },
    {
      "midi": 64,
      "hit": false,
      "t": 19164.26655000002,
      "d": 182.14267499999914,
      "v": 57
    },
    {
      "midi": 50,
      "hit": false,
      "t": 19285.695,
      "d": 139.2855750000017,
      "v": 62
    },
    {
      "midi": 41,
      "hit": false,
      "t": 19303.552125000006,
      "d": 74.99992500000008,
      "v": 52
    },
    {
      "midi": 43,
      "hit": false,
      "t": 19307.12355000002,
      "d": 71.42849999999817,
      "v": 37
    },
    {
      "midi": 61,
      "hit": false,
      "t": 19307.12355000002,
      "d": 160.7141249999986,
      "v": 64
    },
    {
      "midi": 55,
      "hit": false,
      "t": 19428.552,
      "d": 139.2855750000017,
      "v": 62
    },
    {
      "midi": 43,
      "hit": false,
      "t": 19435.694850000007,
      "d": 74.99992500000008,
      "v": 49
    },
    {
      "midi": 47,
      "hit": false,
      "t": 19449.98055000002,
      "d": 82.14277500000026,
      "v": 39
    },
    {
      "midi": 50,
      "hit": false,
      "t": 19571.409,
      "d": 139.2855750000017,
      "v": 72
    },
    {
      "midi": 41,
      "hit": false,
      "t": 19589.266125000006,
      "d": 117.85702500000116,
      "v": 49
    },
    {
      "midi": 43,
      "hit": false,
      "t": 19592.83755000002,
      "d": 107.14274999999907,
      "v": 48
    },
    {
      "midi": 64,
      "hit": false,
      "t": 19592.83755000002,
      "d": 171.4284000000007,
      "v": 38
    },
    {
      "midi": 55,
      "hit": false,
      "t": 19714.266,
      "d": 139.2855750000017,
      "v": 89
    },
    {
      "midi": 62,
      "hit": false,
      "t": 19714.26600000001,
      "d": 89.28562500000044,
      "v": 90
    },
    {
      "midi": 55,
      "hit": false,
      "t": 19714.26600000001,
      "d": 99.99989999999889,
      "v": 90
    },
    {
      "midi": 50,
      "hit": false,
      "t": 19714.26600000001,
      "d": 99.99989999999889,
      "v": 103
    },
    {
      "midi": 43,
      "hit": false,
      "t": 19735.694550000007,
      "d": 74.99992500000008,
      "v": 69
    },
    {
      "midi": 45,
      "hit": false,
      "t": 19735.69455000002,
      "d": 78.57135000000198,
      "v": 73
    },
    {
      "midi": 36,
      "hit": false,
      "t": 19735.69455000002,
      "d": 128.57130000000325,
      "v": 97
    },
    {
      "midi": 61,
      "hit": false,
      "t": 19735.69455000002,
      "d": 153.57127500000206,
      "v": 63
    },
    {
      "midi": 55,
      "hit": false,
      "t": 19999.98,
      "d": 139.2855750000017,
      "v": 76
    },
    {
      "midi": 62,
      "hit": false,
      "t": 19999.98000000001,
      "d": 74.99992500000008,
      "v": 93
    },
    {
      "midi": 55,
      "hit": false,
      "t": 19999.98000000001,
      "d": 78.57134999999835,
      "v": 87
    },
    {
      "midi": 50,
      "hit": false,
      "t": 19999.98000000001,
      "d": 92.85704999999871,
      "v": 101
    },
    {
      "midi": 43,
      "hit": false,
      "t": 20021.408550000007,
      "d": 78.57134999999835,
      "v": 63
    },
    {
      "midi": 45,
      "hit": false,
      "t": 20021.408550000022,
      "d": 67.8570749999999,
      "v": 61
    },
    {
      "midi": 64,
      "hit": false,
      "t": 20021.408550000022,
      "d": 153.57127499999842,
      "v": 49
    },
    {
      "midi": 50,
      "hit": false,
      "t": 20142.837,
      "d": 139.2855750000017,
      "v": 76
    },
    {
      "midi": 41,
      "hit": false,
      "t": 20157.122700000007,
      "d": 67.8570749999999,
      "v": 55
    },
    {
      "midi": 43,
      "hit": false,
      "t": 20164.265550000022,
      "d": 82.14277500000026,
      "v": 50
    },
    {
      "midi": 61,
      "hit": false,
      "t": 20164.265550000022,
      "d": 135.7141499999998,
      "v": 59
    },
    {
      "midi": 55,
      "hit": false,
      "t": 20285.694,
      "d": 139.2855750000017,
      "v": 60
    },
    {
      "midi": 62,
      "hit": false,
      "t": 20285.69400000001,
      "d": 78.57134999999835,
      "v": 90
    },
    {
      "midi": 55,
      "hit": false,
      "t": 20285.69400000001,
      "d": 85.71419999999853,
      "v": 85
    },
    {
      "midi": 50,
      "hit": false,
      "t": 20285.69400000001,
      "d": 99.99989999999889,
      "v": 103
    },
    {
      "midi": 43,
      "hit": false,
      "t": 20292.836850000007,
      "d": 82.14277500000026,
      "v": 49
    },
    {
      "midi": 47,
      "hit": false,
      "t": 20307.122550000022,
      "d": 71.4285000000018,
      "v": 45
    },
    {
      "midi": 41,
      "hit": false,
      "t": 20417.83672500001,
      "d": 74.99992500000008,
      "v": 73
    },
    {
      "midi": 50,
      "hit": false,
      "t": 20428.551,
      "d": 139.2855750000017,
      "v": 64
    },
    {
      "midi": 43,
      "hit": false,
      "t": 20449.979550000025,
      "d": 74.99992500000008,
      "v": 59
    },
    {
      "midi": 64,
      "hit": false,
      "t": 20449.979550000025,
      "d": 92.85704999999871,
      "v": 75
    },
    {
      "midi": 57,
      "hit": false,
      "t": 20571.408,
      "d": 6857.136000000024,
      "v": 90
    },
    {
      "midi": 55,
      "hit": false,
      "t": 20571.408,
      "d": 139.2855750000017,
      "v": 80
    },
    {
      "midi": 43,
      "hit": false,
      "t": 20571.408000000007,
      "d": 74.99992500000008,
      "v": 76
    },
    {
      "midi": 55,
      "hit": false,
      "t": 20571.40800000001,
      "d": 524.9994750000005,
      "v": 95
    },
    {
      "midi": 62,
      "hit": false,
      "t": 20571.40800000001,
      "d": 524.9994750000005,
      "v": 95
    },
    {
      "midi": 50,
      "hit": false,
      "t": 20571.40800000001,
      "d": 549.9994499999993,
      "v": 103
    },
    {
      "midi": 45,
      "hit": false,
      "t": 20592.836550000025,
      "d": 78.57134999999835,
      "v": 77
    },
    {
      "midi": 61,
      "hit": false,
      "t": 20592.836550000025,
      "d": 107.14274999999907,
      "v": 90
    },
    {
      "midi": 36,
      "hit": false,
      "t": 20592.836550000025,
      "d": 167.85697499999878,
      "v": 95
    },
    {
      "midi": 43,
      "hit": false,
      "t": 20853.55057500001,
      "d": 71.4285000000018,
      "v": 63
    },
    {
      "midi": 55,
      "hit": false,
      "t": 20857.122,
      "d": 139.2855750000017,
      "v": 68
    },
    {
      "midi": 45,
      "hit": false,
      "t": 20878.550550000025,
      "d": 82.14277500000026,
      "v": 61
    },
    {
      "midi": 64,
      "hit": false,
      "t": 20878.550550000025,
      "d": 185.71410000000105,
      "v": 55
    },
    {
      "midi": 41,
      "hit": false,
      "t": 20992.83615000001,
      "d": 82.14277500000026,
      "v": 52
    },
    {
      "midi": 50,
      "hit": false,
      "t": 20999.979,
      "d": 139.2855750000017,
      "v": 62
    },
    {
      "midi": 43,
      "hit": false,
      "t": 21021.407550000025,
      "d": 82.14277500000026,
      "v": 40
    },
    {
      "midi": 61,
      "hit": false,
      "t": 21021.407550000025,
      "d": 139.2855750000017,
      "v": 57
    },
    {
      "midi": 43,
      "hit": false,
      "t": 21135.69315000001,
      "d": 82.14277500000026,
      "v": 39
    },
    {
      "midi": 55,
      "hit": false,
      "t": 21142.836,
      "d": 139.2855750000017,
      "v": 62
    },
    {
      "midi": 47,
      "hit": false,
      "t": 21164.264550000025,
      "d": 71.4285000000018,
      "v": 48
    },
    {
      "midi": 41,
      "hit": false,
      "t": 21274.97872500001,
      "d": 149.99985000000015,
      "v": 65
    },
    {
      "midi": 50,
      "hit": false,
      "t": 21285.693,
      "d": 139.2855750000017,
      "v": 72
    },
    {
      "midi": 43,
      "hit": false,
      "t": 21307.12155000003,
      "d": 110.71417500000098,
      "v": 55
    },
    {
      "midi": 64,
      "hit": false,
      "t": 21307.12155000003,
      "d": 167.85697499999878,
      "v": 47
    },
    {
      "midi": 55,
      "hit": false,
      "t": 21428.55,
      "d": 139.2855750000017,
      "v": 89
    },
    {
      "midi": 55,
      "hit": false,
      "t": 21428.55000000001,
      "d": 503.570925,
      "v": 95
    },
    {
      "midi": 50,
      "hit": false,
      "t": 21428.55000000001,
      "d": 510.71377500000017,
      "v": 101
    },
    {
      "midi": 62,
      "hit": false,
      "t": 21428.55000000001,
      "d": 510.71377500000017,
      "v": 95
    },
    {
      "midi": 43,
      "hit": false,
      "t": 21446.407125000012,
      "d": 74.99992500000008,
      "v": 67
    },
    {
      "midi": 45,
      "hit": false,
      "t": 21449.97855000003,
      "d": 74.99992500000008,
      "v": 73
    },
    {
      "midi": 61,
      "hit": false,
      "t": 21449.97855000003,
      "d": 128.5712999999996,
      "v": 64
    },
    {
      "midi": 36,
      "hit": false,
      "t": 21449.97855000003,
      "d": 171.4284000000007,
      "v": 79
    },
    {
      "midi": 55,
      "hit": false,
      "t": 21714.264,
      "d": 139.2855750000017,
      "v": 76
    },
    {
      "midi": 43,
      "hit": false,
      "t": 21724.978275000012,
      "d": 78.57134999999835,
      "v": 58
    },
    {
      "midi": 45,
      "hit": false,
      "t": 21735.69255000003,
      "d": 78.57134999999835,
      "v": 46
    },
    {
      "midi": 64,
      "hit": false,
      "t": 21735.69255000003,
      "d": 164.2855500000005,
      "v": 60
    },
    {
      "midi": 50,
      "hit": false,
      "t": 21857.121,
      "d": 139.2855750000017,
      "v": 76
    },
    {
      "midi": 41,
      "hit": false,
      "t": 21864.26385000001,
      "d": 82.14277500000026,
      "v": 46
    },
    {
      "midi": 43,
      "hit": false,
      "t": 21878.54955000003,
      "d": 85.71420000000217,
      "v": 45
    },
    {
      "midi": 61,
      "hit": false,
      "t": 21878.54955000003,
      "d": 121.42845000000307,
      "v": 48
    },
    {
      "midi": 55,
      "hit": false,
      "t": 21999.978,
      "d": 139.2855750000017,
      "v": 60
    },
    {
      "midi": 43,
      "hit": false,
      "t": 22007.12085000001,
      "d": 85.71419999999853,
      "v": 45
    },
    {
      "midi": 47,
      "hit": false,
      "t": 22021.406550000032,
      "d": 67.8570749999999,
      "v": 49
    },
    {
      "midi": 50,
      "hit": false,
      "t": 22142.835,
      "d": 139.2855750000017,
      "v": 64
    },
    {
      "midi": 41,
      "hit": false,
      "t": 22160.69212500001,
      "d": 135.7141499999998,
      "v": 58
    },
    {
      "midi": 43,
      "hit": false,
      "t": 22164.263550000032,
      "d": 110.71417500000098,
      "v": 49
    },
    {
      "midi": 64,
      "hit": false,
      "t": 22164.263550000032,
      "d": 142.85699999999997,
      "v": 48
    },
    {
      "midi": 55,
      "hit": false,
      "t": 22285.692,
      "d": 139.2855750000017,
      "v": 80
    },
    {
      "midi": 55,
      "hit": false,
      "t": 22285.69200000001,
      "d": 528.5708999999988,
      "v": 95
    },
    {
      "midi": 50,
      "hit": false,
      "t": 22285.69200000001,
      "d": 532.1423249999971,
      "v": 101
    },
    {
      "midi": 62,
      "hit": false,
      "t": 22285.69200000001,
      "d": 539.2851749999973,
      "v": 95
    },
    {
      "midi": 45,
      "hit": false,
      "t": 22307.120550000032,
      "d": 85.71419999999853,
      "v": 77
    },
    {
      "midi": 61,
      "hit": false,
      "t": 22307.120550000032,
      "d": 135.7141499999998,
      "v": 54
    },
    {
      "midi": 36,
      "hit": false,
      "t": 22307.120550000032,
      "d": 153.57127499999842,
      "v": 89
    },
    {
      "midi": 43,
      "hit": false,
      "t": 22314.263400000007,
      "d": 82.14277500000026,
      "v": 71
    },
    {
      "midi": 55,
      "hit": false,
      "t": 22571.406,
      "d": 139.2855750000017,
      "v": 68
    },
    {
      "midi": 45,
      "hit": false,
      "t": 22592.834550000032,
      "d": 82.14277500000026,
      "v": 53
    },
    {
      "midi": 64,
      "hit": false,
      "t": 22592.834550000032,
      "d": 182.14267499999914,
      "v": 60
    },
    {
      "midi": 43,
      "hit": false,
      "t": 22599.977400000007,
      "d": 82.14277500000026,
      "v": 55
    },
    {
      "midi": 50,
      "hit": false,
      "t": 22714.263,
      "d": 139.2855750000017,
      "v": 62
    },
    {
      "midi": 43,
      "hit": false,
      "t": 22735.691550000032,
      "d": 85.71419999999853,
      "v": 48
    },
    {
      "midi": 61,
      "hit": false,
      "t": 22735.691550000032,
      "d": 124.9998749999977,
      "v": 58
    },
    {
      "midi": 41,
      "hit": false,
      "t": 22742.834400000007,
      "d": 82.14277500000026,
      "v": 53
    },
    {
      "midi": 55,
      "hit": false,
      "t": 22857.12,
      "d": 139.2855750000017,
      "v": 62
    },
    {
      "midi": 47,
      "hit": false,
      "t": 22878.54855000003,
      "d": 71.4285000000018,
      "v": 40
    },
    {
      "midi": 43,
      "hit": false,
      "t": 22882.11997500001,
      "d": 82.14277500000026,
      "v": 39
    },
    {
      "midi": 50,
      "hit": false,
      "t": 22999.977,
      "d": 139.2855750000017,
      "v": 72
    },
    {
      "midi": 43,
      "hit": false,
      "t": 23021.405550000032,
      "d": 121.42844999999943,
      "v": 49
    },
    {
      "midi": 64,
      "hit": false,
      "t": 23021.405550000032,
      "d": 171.4284000000007,
      "v": 59
    },
    {
      "midi": 41,
      "hit": false,
      "t": 23024.97697500001,
      "d": 132.14272500000152,
      "v": 56
    },
    {
      "midi": 55,
      "hit": false,
      "t": 23142.834,
      "d": 139.2855750000017,
      "v": 89
    },
    {
      "midi": 62,
      "hit": false,
      "t": 23142.834000000006,
      "d": 85.71419999999853,
      "v": 95
    },
    {
      "midi": 55,
      "hit": false,
      "t": 23142.834000000006,
      "d": 107.14274999999907,
      "v": 98
    },
    {
      "midi": 50,
      "hit": false,
      "t": 23142.834000000006,
      "d": 114.28559999999925,
      "v": 103
    },
    {
      "midi": 45,
      "hit": false,
      "t": 23164.262550000032,
      "d": 82.14277500000026,
      "v": 75
    },
    {
      "midi": 36,
      "hit": false,
      "t": 23164.262550000032,
      "d": 128.5712999999996,
      "v": 88
    },
    {
      "midi": 61,
      "hit": false,
      "t": 23164.262550000032,
      "d": 132.14272499999788,
      "v": 57
    },
    {
      "midi": 43,
      "hit": false,
      "t": 23178.54825000001,
      "d": 82.14277500000026,
      "v": 78
    },
    {
      "midi": 55,
      "hit": false,
      "t": 23428.548,
      "d": 139.2855750000017,
      "v": 76
    },
    {
      "midi": 62,
      "hit": false,
      "t": 23428.548000000006,
      "d": 74.99992500000008,
      "v": 98
    },
    {
      "midi": 55,
      "hit": false,
      "t": 23428.548000000006,
      "d": 78.57134999999835,
      "v": 93
    },
    {
      "midi": 50,
      "hit": false,
      "t": 23428.548000000006,
      "d": 96.42847499999698,
      "v": 103
    },
    {
      "midi": 45,
      "hit": false,
      "t": 23449.97655000003,
      "d": 82.14277500000026,
      "v": 49
    },
    {
      "midi": 64,
      "hit": false,
      "t": 23449.97655000003,
      "d": 164.2855500000005,
      "v": 50
    },
    {
      "midi": 43,
      "hit": false,
      "t": 23464.26225000001,
      "d": 74.99992500000008,
      "v": 53
    },
    {
      "midi": 50,
      "hit": false,
      "t": 23571.405,
      "d": 139.2855750000017,
      "v": 76
    },
    {
      "midi": 43,
      "hit": false,
      "t": 23592.83355000003,
      "d": 82.14277500000026,
      "v": 46
    },
    {
      "midi": 61,
      "hit": false,
      "t": 23592.83355000003,
      "d": 132.14272500000152,
      "v": 60
    },
    {
      "midi": 41,
      "hit": false,
      "t": 23596.404975000012,
      "d": 92.85704999999871,
      "v": 60
    },
    {
      "midi": 55,
      "hit": false,
      "t": 23714.262,
      "d": 139.2855750000017,
      "v": 60
    },
    {
      "midi": 62,
      "hit": false,
      "t": 23714.262000000002,
      "d": 71.4285000000018,
      "v": 98
    },
    {
      "midi": 55,
      "hit": false,
      "t": 23714.262000000002,
      "d": 74.99992500000008,
      "v": 95
    },
    {
      "midi": 50,
      "hit": false,
      "t": 23714.262000000002,
      "d": 96.42847500000062,
      "v": 101
    },
    {
      "midi": 47,
      "hit": false,
      "t": 23735.69055000003,
      "d": 64.28565000000162,
      "v": 34
    },
    {
      "midi": 43,
      "hit": false,
      "t": 23746.404825000012,
      "d": 82.14277500000026,
      "v": 37
    },
    {
      "midi": 50,
      "hit": false,
      "t": 23857.119,
      "d": 139.2855750000017,
      "v": 64
    },
    {
      "midi": 43,
      "hit": false,
      "t": 23878.54755000003,
      "d": 110.71417500000098,
      "v": 49
    },
    {
      "midi": 64,
      "hit": false,
      "t": 23878.54755000003,
      "d": 171.4284000000007,
      "v": 57
    },
    {
      "midi": 41,
      "hit": false,
      "t": 23882.118975000012,
      "d": 117.85702500000116,
      "v": 46
    },
    {
      "midi": 55,
      "hit": false,
      "t": 23999.976,
      "d": 139.2855750000017,
      "v": 80
    },
    {
      "midi": 55,
      "hit": false,
      "t": 23999.976000000002,
      "d": 489.2852249999996,
      "v": 101
    },
    {
      "midi": 62,
      "hit": false,
      "t": 23999.976000000002,
      "d": 496.4280749999998,
      "v": 103
    },
    {
      "midi": 50,
      "hit": false,
      "t": 23999.976000000002,
      "d": 510.71377500000017,
      "v": 101
    },
    {
      "midi": 45,
      "hit": false,
      "t": 24021.40455000003,
      "d": 78.57135000000198,
      "v": 73
    },
    {
      "midi": 61,
      "hit": false,
      "t": 24021.40455000003,
      "d": 132.14272500000152,
      "v": 68
    },
    {
      "midi": 36,
      "hit": false,
      "t": 24021.40455000003,
      "d": 146.42842500000188,
      "v": 95
    },
    {
      "midi": 43,
      "hit": false,
      "t": 24032.118825000012,
      "d": 85.71419999999853,
      "v": 71
    },
    {
      "midi": 55,
      "hit": false,
      "t": 24285.69,
      "d": 139.2855750000017,
      "v": 68
    },
    {
      "midi": 45,
      "hit": false,
      "t": 24307.118550000032,
      "d": 71.4285000000018,
      "v": 55
    },
    {
      "midi": 64,
      "hit": false,
      "t": 24307.118550000032,
      "d": 182.14267500000278,
      "v": 54
    },
    {
      "midi": 43,
      "hit": false,
      "t": 24310.689975000012,
      "d": 82.14277500000026,
      "v": 52
    },
    {
      "midi": 50,
      "hit": false,
      "t": 24428.547,
      "d": 139.2855750000017,
      "v": 62
    },
    {
      "midi": 41,
      "hit": false,
      "t": 24435.689850000013,
      "d": 82.14277500000026,
      "v": 52
    },
    {
      "midi": 43,
      "hit": false,
      "t": 24449.975550000036,
      "d": 82.14277500000026,
      "v": 40
    },
    {
      "midi": 61,
      "hit": false,
      "t": 24449.975550000036,
      "d": 142.85699999999997,
      "v": 68
    },
    {
      "midi": 55,
      "hit": false,
      "t": 24571.404,
      "d": 139.2855750000017,
      "v": 62
    },
    {
      "midi": 43,
      "hit": false,
      "t": 24585.689700000014,
      "d": 82.14277500000026,
      "v": 41
    },
    {
      "midi": 47,
      "hit": false,
      "t": 24592.832550000036,
      "d": 67.8570749999999,
      "v": 37
    },
    {
      "midi": 50,
      "hit": false,
      "t": 24714.261,
      "d": 139.2855750000017,
      "v": 72
    },
    {
      "midi": 41,
      "hit": false,
      "t": 24728.546700000014,
      "d": 121.42844999999943,
      "v": 55
    },
    {
      "midi": 43,
      "hit": false,
      "t": 24735.689550000036,
      "d": 117.85702500000116,
      "v": 45
    },
    {
      "midi": 64,
      "hit": false,
      "t": 24735.689550000036,
      "d": 160.7141249999986,
      "v": 47
    },
    {
      "midi": 55,
      "hit": false,
      "t": 24857.118,
      "d": 139.2855750000017,
      "v": 89
    },
    {
      "midi": 55,
      "hit": false,
      "t": 24857.118000000002,
      "d": 532.1423250000007,
      "v": 95
    },
    {
      "midi": 62,
      "hit": false,
      "t": 24857.118000000002,
      "d": 535.713749999999,
      "v": 95
    },
    {
      "midi": 50,
      "hit": false,
      "t": 24857.118000000002,
      "d": 542.8565999999992,
      "v": 103
    },
    {
      "midi": 43,
      "hit": false,
      "t": 24874.97512500001,
      "d": 82.14277500000026,
      "v": 63
    },
    {
      "midi": 45,
      "hit": false,
      "t": 24878.546550000035,
      "d": 71.42849999999817,
      "v": 71
    },
    {
      "midi": 36,
      "hit": false,
      "t": 24878.546550000035,
      "d": 128.5712999999996,
      "v": 97
    },
    {
      "midi": 61,
      "hit": false,
      "t": 24878.546550000035,
      "d": 153.57127499999842,
      "v": 60
    },
    {
      "midi": 55,
      "hit": false,
      "t": 25142.832,
      "d": 139.2855750000017,
      "v": 76
    },
    {
      "midi": 43,
      "hit": false,
      "t": 25157.117700000013,
      "d": 82.14277500000026,
      "v": 55
    },
    {
      "midi": 45,
      "hit": false,
      "t": 25164.260550000035,
      "d": 78.57134999999835,
      "v": 55
    },
    {
      "midi": 64,
      "hit": false,
      "t": 25164.260550000035,
      "d": 167.85697499999878,
      "v": 57
    },
    {
      "midi": 50,
      "hit": false,
      "t": 25285.689,
      "d": 139.2855750000017,
      "v": 76
    },
    {
      "midi": 41,
      "hit": false,
      "t": 25299.974700000013,
      "d": 78.57134999999835,
      "v": 52
    },
    {
      "midi": 43,
      "hit": false,
      "t": 25307.117550000035,
      "d": 78.57134999999835,
      "v": 45
    },
    {
      "midi": 61,
      "hit": false,
      "t": 25307.117550000035,
      "d": 139.28557499999806,
      "v": 55
    },
    {
      "midi": 55,
      "hit": false,
      "t": 25428.546,
      "d": 139.2855750000017,
      "v": 60
    },
    {
      "midi": 43,
      "hit": false,
      "t": 25435.688850000013,
      "d": 89.28562500000044,
      "v": 44
    },
    {
      "midi": 47,
      "hit": false,
      "t": 25449.97455000003,
      "d": 71.4285000000018,
      "v": 36
    },
    {
      "midi": 50,
      "hit": false,
      "t": 25571.403,
      "d": 139.2855750000017,
      "v": 64
    },
    {
      "midi": 41,
      "hit": false,
      "t": 25589.260125000015,
      "d": 103.5713250000008,
      "v": 56
    },
    {
      "midi": 43,
      "hit": false,
      "t": 25592.831550000035,
      "d": 117.85702500000116,
      "v": 48
    },
    {
      "midi": 64,
      "hit": false,
      "t": 25592.831550000035,
      "d": 157.14270000000033,
      "v": 43
    },
    {
      "midi": 55,
      "hit": false,
      "t": 25714.26,
      "d": 139.2855750000017,
      "v": 80
    },
    {
      "midi": 62,
      "hit": false,
      "t": 25714.260000000002,
      "d": 478.5709500000012,
      "v": 98
    },
    {
      "midi": 50,
      "hit": false,
      "t": 25714.260000000002,
      "d": 478.5709500000012,
      "v": 101
    },
    {
      "midi": 55,
      "hit": false,
      "t": 25714.260000000002,
      "d": 482.14237499999945,
      "v": 95
    },
    {
      "midi": 43,
      "hit": false,
      "t": 25717.831425000015,
      "d": 89.28562500000044,
      "v": 69
    },
    {
      "midi": 45,
      "hit": false,
      "t": 25735.688550000035,
      "d": 78.57135000000198,
      "v": 75
    },
    {
      "midi": 61,
      "hit": false,
      "t": 25735.688550000035,
      "d": 135.71415000000343,
      "v": 54
    },
    {
      "midi": 36,
      "hit": false,
      "t": 25735.688550000035,
      "d": 146.42842500000188,
      "v": 95
    },
    {
      "midi": 55,
      "hit": false,
      "t": 25999.974,
      "d": 139.2855750000017,
      "v": 68
    },
    {
      "midi": 43,
      "hit": false,
      "t": 26014.259700000017,
      "d": 82.14277500000026,
      "v": 53
    },
    {
      "midi": 45,
      "hit": false,
      "t": 26021.40255000004,
      "d": 74.99992500000008,
      "v": 63
    },
    {
      "midi": 64,
      "hit": false,
      "t": 26021.40255000004,
      "d": 182.14267499999914,
      "v": 57
    },
    {
      "midi": 50,
      "hit": false,
      "t": 26142.831,
      "d": 139.2855750000017,
      "v": 62
    },
    {
      "midi": 41,
      "hit": false,
      "t": 26149.973850000017,
      "d": 74.99992500000008,
      "v": 58
    },
    {
      "midi": 43,
      "hit": false,
      "t": 26164.25955000004,
      "d": 71.42849999999817,
      "v": 37
    },
    {
      "midi": 61,
      "hit": false,
      "t": 26164.25955000004,
      "d": 160.7141249999986,
      "v": 64
    },
    {
      "midi": 55,
      "hit": false,
      "t": 26285.688,
      "d": 139.2855750000017,
      "v": 62
    },
    {
      "midi": 43,
      "hit": false,
      "t": 26285.688000000016,
      "d": 82.14277500000026,
      "v": 44
    },
    {
      "midi": 47,
      "hit": false,
      "t": 26307.11655000004,
      "d": 82.14277500000026,
      "v": 39
    },
    {
      "midi": 50,
      "hit": false,
      "t": 26428.545,
      "d": 139.2855750000017,
      "v": 72
    },
    {
      "midi": 41,
      "hit": false,
      "t": 26432.11642500002,
      "d": 121.42844999999943,
      "v": 60
    },
    {
      "midi": 43,
      "hit": false,
      "t": 26449.97355000004,
      "d": 107.14274999999907,
      "v": 48
    },
    {
      "midi": 64,
      "hit": false,
      "t": 26449.97355000004,
      "d": 171.4284000000007,
      "v": 38
    },
    {
      "midi": 55,
      "hit": false,
      "t": 26571.402,
      "d": 139.2855750000017,
      "v": 89
    },
    {
      "midi": 62,
      "hit": false,
      "t": 26571.402000000002,
      "d": 89.28562500000044,
      "v": 93
    },
    {
      "midi": 55,
      "hit": false,
      "t": 26571.402000000002,
      "d": 107.14274999999907,
      "v": 93
    },
    {
      "midi": 50,
      "hit": false,
      "t": 26571.402000000002,
      "d": 110.71417499999734,
      "v": 103
    },
    {
      "midi": 43,
      "hit": false,
      "t": 26582.11627500002,
      "d": 85.71419999999853,
      "v": 65
    },
    {
      "midi": 45,
      "hit": false,
      "t": 26592.83055000004,
      "d": 78.57135000000198,
      "v": 73
    },
    {
      "midi": 36,
      "hit": false,
      "t": 26592.83055000004,
      "d": 128.57130000000325,
      "v": 97
    },
    {
      "midi": 61,
      "hit": false,
      "t": 26592.83055000004,
      "d": 153.57127500000206,
      "v": 63
    },
    {
      "midi": 55,
      "hit": false,
      "t": 26857.115999999998,
      "d": 139.2855750000017,
      "v": 76
    },
    {
      "midi": 62,
      "hit": false,
      "t": 26857.115999999998,
      "d": 67.8570749999999,
      "v": 95
    },
    {
      "midi": 55,
      "hit": false,
      "t": 26857.115999999998,
      "d": 78.57134999999835,
      "v": 90
    },
    {
      "midi": 50,
      "hit": false,
      "t": 26857.115999999998,
      "d": 89.2856249999968,
      "v": 98
    },
    {
      "midi": 45,
      "hit": false,
      "t": 26878.544550000042,
      "d": 67.8570749999999,
      "v": 61
    },
    {
      "midi": 64,
      "hit": false,
      "t": 26878.544550000042,
      "d": 153.57127499999842,
      "v": 49
    },
    {
      "midi": 43,
      "hit": false,
      "t": 26882.11597500002,
      "d": 89.28562500000044,
      "v": 59
    },
    {
      "midi": 50,
      "hit": false,
      "t": 26999.972999999998,
      "d": 139.2855750000017,
      "v": 76
    },
    {
      "midi": 43,
      "hit": false,
      "t": 27021.401550000042,
      "d": 82.14277500000026,
      "v": 50
    },
    {
      "midi": 61,
      "hit": false,
      "t": 27021.401550000042,
      "d": 135.7141499999998,
      "v": 59
    },
    {
      "midi": 41,
      "hit": false,
      "t": 27053.54437500002,
      "d": 64.28565000000162,
      "v": 47
    },
    {
      "midi": 62,
      "hit": false,
      "t": 27142.829999999994,
      "d": 60.714224999999715,
      "v": 93
    },
    {
      "midi": 55,
      "hit": false,
      "t": 27142.829999999994,
      "d": 74.99992500000008,
      "v": 93
    },
    {
      "midi": 50,
      "hit": false,
      "t": 27142.829999999994,
      "d": 96.42847500000062,
      "v": 101
    },
    {
      "midi": 55,
      "hit": false,
      "t": 27142.829999999998,
      "d": 139.2855750000017,
      "v": 60
    },
    {
      "midi": 47,
      "hit": false,
      "t": 27164.258550000042,
      "d": 71.4285000000018,
      "v": 45
    },
    {
      "midi": 43,
      "hit": false,
      "t": 27185.68710000002,
      "d": 82.14277500000026,
      "v": 45
    },
    {
      "midi": 50,
      "hit": false,
      "t": 27285.686999999998,
      "d": 139.2855750000017,
      "v": 64
    },
    {
      "midi": 43,
      "hit": false,
      "t": 27307.115550000046,
      "d": 74.99992500000008,
      "v": 59
    },
    {
      "midi": 64,
      "hit": false,
      "t": 27307.115550000046,
      "d": 92.85704999999871,
      "v": 75
    },
    {
      "midi": 41,
      "hit": false,
      "t": 27328.54410000002,
      "d": 107.14274999999907,
      "v": 53
    },
    {
      "midi": 67,
      "hit": false,
      "t": 27342.829800000003,
      "d": 49.999949999997625,
      "v": 111
    },
    {
      "midi": 70,
      "hit": false,
      "t": 27353.544075,
      "d": 2135.712149999985,
      "v": 112
    },
    {
      "midi": 69,
      "hit": false,
      "t": 27367.829775000002,
      "d": 78.57134999999835,
      "v": 115
    },
    {
      "midi": 62,
      "hit": false,
      "t": 27428.543999999994,
      "d": 285.71399999999994,
      "v": 103
    },
    {
      "midi": 50,
      "hit": false,
      "t": 27428.543999999994,
      "d": 292.8568500000001,
      "v": 106
    },
    {
      "midi": 55,
      "hit": false,
      "t": 27428.543999999994,
      "d": 299.9997000000003,
      "v": 98
    },
    {
      "midi": 55,
      "hit": false,
      "t": 27428.543999999998,
      "d": 139.2855750000017,
      "v": 80
    },
    {
      "midi": 58,
      "hit": false,
      "t": 27428.544000000024,
      "d": 3457.1394,
      "v": 100
    },
    {
      "midi": 45,
      "hit": false,
      "t": 27449.972550000046,
      "d": 78.57134999999835,
      "v": 77
    },
    {
      "midi": 61,
      "hit": false,
      "t": 27449.972550000046,
      "d": 107.14274999999907,
      "v": 90
    },
    {
      "midi": 36,
      "hit": false,
      "t": 27449.972550000046,
      "d": 167.85697499999878,
      "v": 95
    },
    {
      "midi": 43,
      "hit": false,
      "t": 27474.97252500002,
      "d": 85.71419999999853,
      "v": 69
    },
    {
      "midi": 67,
      "hit": false,
      "t": 27535.68675,
      "d": 49.999949999997625,
      "v": 99
    },
    {
      "midi": 69,
      "hit": false,
      "t": 27546.401025,
      "d": 78.57134999999835,
      "v": 95
    },
    {
      "midi": 70,
      "hit": false,
      "t": 27589.258124999997,
      "d": 2135.712149999981,
      "v": 92
    },
    {
      "midi": 55,
      "hit": false,
      "t": 27714.257999999998,
      "d": 139.2855750000017,
      "v": 68
    },
    {
      "midi": 45,
      "hit": false,
      "t": 27735.686550000046,
      "d": 82.14277500000026,
      "v": 61
    },
    {
      "midi": 64,
      "hit": false,
      "t": 27735.686550000046,
      "d": 185.71410000000105,
      "v": 55
    },
    {
      "midi": 43,
      "hit": false,
      "t": 27742.829400000017,
      "d": 78.57134999999835,
      "v": 53
    },
    {
      "midi": 67,
      "hit": false,
      "t": 27749.972250000003,
      "d": 49.999949999997625,
      "v": 92
    },
    {
      "midi": 69,
      "hit": false,
      "t": 27760.686525,
      "d": 78.57134999999835,
      "v": 95
    },
    {
      "midi": 70,
      "hit": false,
      "t": 27803.543625,
      "d": 2135.712149999981,
      "v": 92
    },
    {
      "midi": 50,
      "hit": false,
      "t": 27857.114999999998,
      "d": 139.2855750000017,
      "v": 62
    },
    {
      "midi": 43,
      "hit": false,
      "t": 27878.543550000046,
      "d": 82.14277500000026,
      "v": 40
    },
    {
      "midi": 61,
      "hit": false,
      "t": 27878.543550000046,
      "d": 139.2855750000017,
      "v": 57
    },
    {
      "midi": 41,
      "hit": false,
      "t": 27882.114975000015,
      "d": 74.99992500000008,
      "v": 53
    },
    {
      "midi": 55,
      "hit": false,
      "t": 27999.971999999998,
      "d": 139.2855750000017,
      "v": 62
    },
    {
      "midi": 43,
      "hit": false,
      "t": 28017.829125000015,
      "d": 74.99992500000008,
      "v": 39
    },
    {
      "midi": 47,
      "hit": false,
      "t": 28021.400550000046,
      "d": 71.4285000000018,
      "v": 48
    },
    {
      "midi": 50,
      "hit": false,
      "t": 28142.828999999998,
      "d": 139.2855750000017,
      "v": 72
    },
    {
      "midi": 43,
      "hit": false,
      "t": 28164.25755000005,
      "d": 110.71417500000098,
      "v": 55
    },
    {
      "midi": 64,
      "hit": false,
      "t": 28164.25755000005,
      "d": 167.85697499999878,
      "v": 47
    },
    {
      "midi": 41,
      "hit": false,
      "t": 28171.400400000013,
      "d": 110.71417500000098,
      "v": 50
    },
    {
      "midi": 55,
      "hit": false,
      "t": 28285.685999999994,
      "d": 503.570925,
      "v": 95
    },
    {
      "midi": 50,
      "hit": false,
      "t": 28285.685999999994,
      "d": 510.71377500000017,
      "v": 101
    },
    {
      "midi": 62,
      "hit": false,
      "t": 28285.685999999994,
      "d": 510.71377500000017,
      "v": 95
    },
    {
      "midi": 55,
      "hit": false,
      "t": 28285.685999999998,
      "d": 139.2855750000017,
      "v": 89
    },
    {
      "midi": 43,
      "hit": false,
      "t": 28299.971700000013,
      "d": 82.14277500000026,
      "v": 65
    },
    {
      "midi": 45,
      "hit": false,
      "t": 28307.11455000005,
      "d": 74.99992500000008,
      "v": 73
    },
    {
      "midi": 61,
      "hit": false,
      "t": 28307.11455000005,
      "d": 128.5712999999996,
      "v": 64
    },
    {
      "midi": 36,
      "hit": false,
      "t": 28307.11455000005,
      "d": 171.4284000000007,
      "v": 79
    },
    {
      "midi": 55,
      "hit": false,
      "t": 28571.399999999998,
      "d": 139.2855750000017,
      "v": 76
    },
    {
      "midi": 43,
      "hit": false,
      "t": 28578.542850000013,
      "d": 82.14277500000026,
      "v": 58
    },
    {
      "midi": 45,
      "hit": false,
      "t": 28592.82855000005,
      "d": 78.57134999999835,
      "v": 46
    },
    {
      "midi": 64,
      "hit": false,
      "t": 28592.82855000005,
      "d": 164.2855500000005,
      "v": 60
    },
    {
      "midi": 50,
      "hit": false,
      "t": 28714.256999999998,
      "d": 139.2855750000017,
      "v": 76
    },
    {
      "midi": 41,
      "hit": false,
      "t": 28717.828425000014,
      "d": 82.14277500000026,
      "v": 50
    },
    {
      "midi": 43,
      "hit": false,
      "t": 28735.68555000005,
      "d": 85.71420000000217,
      "v": 45
    },
    {
      "midi": 61,
      "hit": false,
      "t": 28735.68555000005,
      "d": 121.42845000000307,
      "v": 48
    },
    {
      "midi": 55,
      "hit": false,
      "t": 28857.113999999998,
      "d": 139.2855750000017,
      "v": 60
    },
    {
      "midi": 43,
      "hit": false,
      "t": 28864.256850000016,
      "d": 78.57134999999835,
      "v": 41
    },
    {
      "midi": 47,
      "hit": false,
      "t": 28878.542550000053,
      "d": 67.8570749999999,
      "v": 49
    },
    {
      "midi": 50,
      "hit": false,
      "t": 28999.970999999998,
      "d": 139.2855750000017,
      "v": 64
    },
    {
      "midi": 41,
      "hit": false,
      "t": 29021.399550000013,
      "d": 110.71417500000098,
      "v": 58
    },
    {
      "midi": 43,
      "hit": false,
      "t": 29021.399550000053,
      "d": 110.71417500000098,
      "v": 49
    },
    {
      "midi": 64,
      "hit": false,
      "t": 29021.399550000053,
      "d": 142.85699999999997,
      "v": 48
    },
    {
      "midi": 55,
      "hit": false,
      "t": 29142.827999999994,
      "d": 528.5708999999988,
      "v": 95
    },
    {
      "midi": 50,
      "hit": false,
      "t": 29142.827999999994,
      "d": 532.1423249999971,
      "v": 101
    },
    {
      "midi": 62,
      "hit": false,
      "t": 29142.827999999994,
      "d": 539.2851749999973,
      "v": 95
    },
    {
      "midi": 55,
      "hit": false,
      "t": 29142.827999999998,
      "d": 139.2855750000017,
      "v": 80
    },
    {
      "midi": 43,
      "hit": false,
      "t": 29164.256550000013,
      "d": 82.14277500000026,
      "v": 60
    },
    {
      "midi": 45,
      "hit": false,
      "t": 29164.256550000053,
      "d": 85.71419999999853,
      "v": 77
    },
    {
      "midi": 61,
      "hit": false,
      "t": 29164.256550000053,
      "d": 135.7141499999998,
      "v": 54
    },
    {
      "midi": 36,
      "hit": false,
      "t": 29164.256550000053,
      "d": 153.57127499999842,
      "v": 89
    },
    {
      "midi": 55,
      "hit": false,
      "t": 29428.541999999998,
      "d": 139.2855750000017,
      "v": 68
    },
    {
      "midi": 43,
      "hit": false,
      "t": 29435.684850000012,
      "d": 85.71419999999853,
      "v": 56
    },
    {
      "midi": 45,
      "hit": false,
      "t": 29449.970550000053,
      "d": 82.14277500000026,
      "v": 53
    },
    {
      "midi": 64,
      "hit": false,
      "t": 29449.970550000053,
      "d": 182.14267499999914,
      "v": 60
    },
    {
      "midi": 50,
      "hit": false,
      "t": 29571.398999999998,
      "d": 139.2855750000017,
      "v": 62
    },
    {
      "midi": 41,
      "hit": false,
      "t": 29592.827550000013,
      "d": 74.99992500000008,
      "v": 53
    },
    {
      "midi": 43,
      "hit": false,
      "t": 29592.827550000053,
      "d": 85.71419999999853,
      "v": 48
    },
    {
      "midi": 61,
      "hit": false,
      "t": 29592.827550000053,
      "d": 124.9998749999977,
      "v": 58
    },
    {
      "midi": 55,
      "hit": false,
      "t": 29714.255999999998,
      "d": 139.2855750000017,
      "v": 62
    },
    {
      "midi": 43,
      "hit": false,
      "t": 29728.541700000012,
      "d": 74.99992500000008,
      "v": 42
    },
    {
      "midi": 47,
      "hit": false,
      "t": 29735.68455000005,
      "d": 71.4285000000018,
      "v": 40
    },
    {
      "midi": 50,
      "hit": false,
      "t": 29857.112999999998,
      "d": 139.2855750000017,
      "v": 72
    },
    {
      "midi": 43,
      "hit": false,
      "t": 29878.541550000053,
      "d": 121.42844999999943,
      "v": 49
    },
    {
      "midi": 64,
      "hit": false,
      "t": 29878.541550000053,
      "d": 171.4284000000007,
      "v": 59
    },
    {
      "midi": 41,
      "hit": false,
      "t": 29885.684400000013,
      "d": 99.99989999999889,
      "v": 55
    },
    {
      "midi": 70,
      "hit": false,
      "t": 29921.398649999977,
      "d": 103.57132499999716,
      "v": 111
    },
    {
      "midi": 72,
      "hit": false,
      "t": 29999.969999999976,
      "d": 182.14267499999914,
      "v": 112
    },
    {
      "midi": 62,
      "hit": false,
      "t": 29999.96999999999,
      "d": 85.71419999999853,
      "v": 95
    },
    {
      "midi": 55,
      "hit": false,
      "t": 29999.96999999999,
      "d": 107.14274999999907,
      "v": 98
    },
    {
      "midi": 50,
      "hit": false,
      "t": 29999.96999999999,
      "d": 114.28559999999925,
      "v": 103
    },
    {
      "midi": 55,
      "hit": false,
      "t": 29999.969999999998,
      "d": 139.2855750000017,
      "v": 89
    },
    {
      "midi": 45,
      "hit": false,
      "t": 30021.398550000053,
      "d": 82.14277500000026,
      "v": 75
    },
    {
      "midi": 36,
      "hit": false,
      "t": 30021.398550000053,
      "d": 128.5712999999996,
      "v": 88
    },
    {
      "midi": 61,
      "hit": false,
      "t": 30021.398550000053,
      "d": 132.14272499999788,
      "v": 57
    },
    {
      "midi": 43,
      "hit": false,
      "t": 30028.541400000013,
      "d": 78.57134999999835,
      "v": 67
    },
    {
      "midi": 70,
      "hit": false,
      "t": 30114.255599999975,
      "d": 103.57132499999716,
      "v": 108
    },
    {
      "midi": 72,
      "hit": false,
      "t": 30192.826949999973,
      "d": 182.14267499999914,
      "v": 107
    },
    {
      "midi": 62,
      "hit": false,
      "t": 30285.68399999999,
      "d": 74.99992500000008,
      "v": 98
    },
    {
      "midi": 55,
      "hit": false,
      "t": 30285.68399999999,
      "d": 78.57134999999835,
      "v": 93
    },
    {
      "midi": 50,
      "hit": false,
      "t": 30285.68399999999,
      "d": 96.42847499999698,
      "v": 103
    },
    {
      "midi": 55,
      "hit": false,
      "t": 30285.683999999997,
      "d": 139.2855750000017,
      "v": 76
    },
    {
      "midi": 43,
      "hit": false,
      "t": 30296.39827500001,
      "d": 82.14277500000026,
      "v": 53
    },
    {
      "midi": 70,
      "hit": false,
      "t": 30299.969699999976,
      "d": 171.4284000000007,
      "v": 115
    },
    {
      "midi": 45,
      "hit": false,
      "t": 30307.11255000005,
      "d": 82.14277500000026,
      "v": 49
    },
    {
      "midi": 64,
      "hit": false,
      "t": 30307.11255000005,
      "d": 164.2855500000005,
      "v": 50
    },
    {
      "midi": 70,
      "hit": false,
      "t": 30328.541099999977,
      "d": 103.57132499999716,
      "v": 91
    },
    {
      "midi": 72,
      "hit": false,
      "t": 30407.112449999975,
      "d": 182.14267499999914,
      "v": 91
    },
    {
      "midi": 50,
      "hit": false,
      "t": 30428.540999999997,
      "d": 139.2855750000017,
      "v": 76
    },
    {
      "midi": 41,
      "hit": false,
      "t": 30446.39812500001,
      "d": 60.714224999999715,
      "v": 41
    },
    {
      "midi": 43,
      "hit": false,
      "t": 30449.96955000005,
      "d": 82.14277500000026,
      "v": 46
    },
    {
      "midi": 61,
      "hit": false,
      "t": 30449.96955000005,
      "d": 132.14272500000152,
      "v": 60
    },
    {
      "midi": 70,
      "hit": false,
      "t": 30492.826649999974,
      "d": 171.4284000000007,
      "v": 108
    },
    {
      "midi": 62,
      "hit": false,
      "t": 30571.397999999986,
      "d": 71.4285000000018,
      "v": 98
    },
    {
      "midi": 55,
      "hit": false,
      "t": 30571.397999999986,
      "d": 74.99992500000008,
      "v": 95
    },
    {
      "midi": 50,
      "hit": false,
      "t": 30571.397999999986,
      "d": 96.42847500000062,
      "v": 101
    },
    {
      "midi": 55,
      "hit": false,
      "t": 30571.397999999997,
      "d": 139.2855750000017,
      "v": 60
    },
    {
      "midi": 43,
      "hit": false,
      "t": 30571.398000000012,
      "d": 82.14277500000026,
      "v": 45
    },
    {
      "midi": 47,
      "hit": false,
      "t": 30592.82655000005,
      "d": 64.28565000000162,
      "v": 34
    },
    {
      "midi": 67,
      "hit": false,
      "t": 30610.68367499998,
      "d": 107.14274999999907,
      "v": 116
    },
    {
      "midi": 70,
      "hit": false,
      "t": 30707.112149999975,
      "d": 171.4284000000007,
      "v": 91
    },
    {
      "midi": 50,
      "hit": false,
      "t": 30714.254999999997,
      "d": 139.2855750000017,
      "v": 64
    },
    {
      "midi": 41,
      "hit": false,
      "t": 30724.969275000014,
      "d": 96.42847500000062,
      "v": 55
    },
    {
      "midi": 43,
      "hit": false,
      "t": 30735.68355000005,
      "d": 110.71417500000098,
      "v": 49
    },
    {
      "midi": 64,
      "hit": false,
      "t": 30735.68355000005,
      "d": 171.4284000000007,
      "v": 57
    },
    {
      "midi": 67,
      "hit": false,
      "t": 30803.540624999976,
      "d": 107.14274999999907,
      "v": 106
    },
    {
      "midi": 55,
      "hit": false,
      "t": 30857.111999999986,
      "d": 489.2852249999996,
      "v": 101
    },
    {
      "midi": 62,
      "hit": false,
      "t": 30857.111999999986,
      "d": 496.4280749999998,
      "v": 103
    },
    {
      "midi": 50,
      "hit": false,
      "t": 30857.111999999986,
      "d": 510.71377500000017,
      "v": 101
    },
    {
      "midi": 55,
      "hit": false,
      "t": 30857.111999999997,
      "d": 139.2855750000017,
      "v": 80
    },
    {
      "midi": 57,
      "hit": false,
      "t": 30857.112000000023,
      "d": 3428.5679999999993,
      "v": 100
    },
    {
      "midi": 67,
      "hit": false,
      "t": 30860.683424999977,
      "d": 139.2855750000017,
      "v": 112
    },
    {
      "midi": 43,
      "hit": false,
      "t": 30874.969125000014,
      "d": 89.28562500000044,
      "v": 73
    },
    {
      "midi": 45,
      "hit": false,
      "t": 30878.54055000005,
      "d": 78.57135000000198,
      "v": 73
    },
    {
      "midi": 61,
      "hit": false,
      "t": 30878.54055000005,
      "d": 132.14272500000152,
      "v": 68
    },
    {
      "midi": 36,
      "hit": false,
      "t": 30878.54055000005,
      "d": 146.42842500000188,
      "v": 95
    },
    {
      "midi": 69,
      "hit": false,
      "t": 31017.826124999978,
      "d": 2603.5688249999657,
      "v": 115
    },
    {
      "midi": 67,
      "hit": false,
      "t": 31017.826124999978,
      "d": 107.14274999999907,
      "v": 92
    },
    {
      "midi": 67,
      "hit": false,
      "t": 31053.540374999975,
      "d": 139.2855750000017,
      "v": 102
    },
    {
      "midi": 55,
      "hit": false,
      "t": 31142.825999999997,
      "d": 139.2855750000017,
      "v": 68
    },
    {
      "midi": 43,
      "hit": false,
      "t": 31146.397425000014,
      "d": 74.99992500000008,
      "v": 50
    },
    {
      "midi": 45,
      "hit": false,
      "t": 31164.254550000052,
      "d": 71.4285000000018,
      "v": 55
    },
    {
      "midi": 64,
      "hit": false,
      "t": 31164.254550000052,
      "d": 182.14267500000278,
      "v": 54
    },
    {
      "midi": 69,
      "hit": false,
      "t": 31210.683074999975,
      "d": 2603.5688249999694,
      "v": 105
    },
    {
      "midi": 67,
      "hit": false,
      "t": 31267.825874999977,
      "d": 139.2855750000017,
      "v": 92
    },
    {
      "midi": 50,
      "hit": false,
      "t": 31285.682999999997,
      "d": 139.2855750000017,
      "v": 62
    },
    {
      "midi": 41,
      "hit": false,
      "t": 31285.683000000015,
      "d": 82.14277500000026,
      "v": 58
    },
    {
      "midi": 43,
      "hit": false,
      "t": 31307.111550000056,
      "d": 82.14277500000026,
      "v": 40
    },
    {
      "midi": 61,
      "hit": false,
      "t": 31307.111550000056,
      "d": 142.85699999999997,
      "v": 68
    },
    {
      "midi": 69,
      "hit": false,
      "t": 31424.968574999977,
      "d": 2603.5688249999657,
      "v": 92
    },
    {
      "midi": 55,
      "hit": false,
      "t": 31428.539999999997,
      "d": 139.2855750000017,
      "v": 62
    },
    {
      "midi": 43,
      "hit": false,
      "t": 31435.682850000016,
      "d": 78.57134999999835,
      "v": 42
    },
    {
      "midi": 47,
      "hit": false,
      "t": 31449.968550000056,
      "d": 67.8570749999999,
      "v": 37
    },
    {
      "midi": 50,
      "hit": false,
      "t": 31571.396999999997,
      "d": 139.2855750000017,
      "v": 72
    },
    {
      "midi": 41,
      "hit": false,
      "t": 31585.682700000016,
      "d": 107.14274999999907,
      "v": 59
    },
    {
      "midi": 43,
      "hit": false,
      "t": 31592.825550000056,
      "d": 117.85702500000116,
      "v": 45
    },
    {
      "midi": 64,
      "hit": false,
      "t": 31592.825550000056,
      "d": 160.7141249999986,
      "v": 47
    },
    {
      "midi": 55,
      "hit": false,
      "t": 31714.253999999986,
      "d": 532.1423250000007,
      "v": 95
    },
    {
      "midi": 62,
      "hit": false,
      "t": 31714.253999999986,
      "d": 535.713749999999,
      "v": 95
    },
    {
      "midi": 50,
      "hit": false,
      "t": 31714.253999999986,
      "d": 542.8565999999992,
      "v": 103
    },
    {
      "midi": 55,
      "hit": false,
      "t": 31714.253999999997,
      "d": 139.2855750000017,
      "v": 89
    },
    {
      "midi": 43,
      "hit": false,
      "t": 31728.539700000016,
      "d": 85.71419999999853,
      "v": 73
    },
    {
      "midi": 45,
      "hit": false,
      "t": 31735.682550000056,
      "d": 71.42849999999817,
      "v": 71
    },
    {
      "midi": 36,
      "hit": false,
      "t": 31735.682550000056,
      "d": 128.5712999999996,
      "v": 97
    },
    {
      "midi": 61,
      "hit": false,
      "t": 31735.682550000056,
      "d": 153.57127499999842,
      "v": 60
    },
    {
      "midi": 55,
      "hit": false,
      "t": 31999.967999999997,
      "d": 139.2855750000017,
      "v": 76
    },
    {
      "midi": 43,
      "hit": false,
      "t": 32010.682275000014,
      "d": 82.14277500000026,
      "v": 55
    },
    {
      "midi": 45,
      "hit": false,
      "t": 32021.396550000056,
      "d": 78.57134999999835,
      "v": 55
    },
    {
      "midi": 64,
      "hit": false,
      "t": 32021.396550000056,
      "d": 167.85697499999878,
      "v": 57
    },
    {
      "midi": 50,
      "hit": false,
      "t": 32142.824999999997,
      "d": 139.2855750000017,
      "v": 76
    },
    {
      "midi": 41,
      "hit": false,
      "t": 32157.110700000016,
      "d": 82.14277500000026,
      "v": 56
    },
    {
      "midi": 43,
      "hit": false,
      "t": 32164.253550000056,
      "d": 78.57134999999835,
      "v": 45
    },
    {
      "midi": 61,
      "hit": false,
      "t": 32164.253550000056,
      "d": 139.28557499999806,
      "v": 55
    },
    {
      "midi": 55,
      "hit": false,
      "t": 32285.681999999997,
      "d": 139.2855750000017,
      "v": 60
    },
    {
      "midi": 43,
      "hit": false,
      "t": 32303.539125000018,
      "d": 74.99992500000008,
      "v": 49
    },
    {
      "midi": 47,
      "hit": false,
      "t": 32307.110550000052,
      "d": 71.4285000000018,
      "v": 36
    },
    {
      "midi": 50,
      "hit": false,
      "t": 32428.538999999997,
      "d": 139.2855750000017,
      "v": 64
    },
    {
      "midi": 43,
      "hit": false,
      "t": 32449.967550000056,
      "d": 117.85702500000116,
      "v": 48
    },
    {
      "midi": 64,
      "hit": false,
      "t": 32449.967550000056,
      "d": 157.14270000000033,
      "v": 43
    },
    {
      "midi": 41,
      "hit": false,
      "t": 32453.538975000018,
      "d": 107.14274999999907,
      "v": 52
    },
    {
      "midi": 62,
      "hit": false,
      "t": 32571.395999999986,
      "d": 478.5709500000012,
      "v": 98
    },
    {
      "midi": 50,
      "hit": false,
      "t": 32571.395999999986,
      "d": 478.5709500000012,
      "v": 101
    },
    {
      "midi": 55,
      "hit": false,
      "t": 32571.395999999986,
      "d": 482.1423750000031,
      "v": 95
    },
    {
      "midi": 55,
      "hit": false,
      "t": 32571.395999999997,
      "d": 139.2855750000017,
      "v": 80
    },
    {
      "midi": 43,
      "hit": false,
      "t": 32589.253125000017,
      "d": 82.14277500000026,
      "v": 69
    },
    {
      "midi": 45,
      "hit": false,
      "t": 32592.824550000056,
      "d": 78.57135000000198,
      "v": 75
    },
    {
      "midi": 61,
      "hit": false,
      "t": 32592.824550000056,
      "d": 135.71415000000343,
      "v": 54
    },
    {
      "midi": 36,
      "hit": false,
      "t": 32592.824550000056,
      "d": 146.42842500000188,
      "v": 95
    },
    {
      "midi": 55,
      "hit": false,
      "t": 32857.11,
      "d": 139.2855750000017,
      "v": 68
    },
    {
      "midi": 43,
      "hit": false,
      "t": 32860.68142500002,
      "d": 82.14277500000026,
      "v": 59
    },
    {
      "midi": 45,
      "hit": false,
      "t": 32878.538550000056,
      "d": 74.99992499999644,
      "v": 63
    },
    {
      "midi": 64,
      "hit": false,
      "t": 32878.538550000056,
      "d": 182.1426749999955,
      "v": 57
    },
    {
      "midi": 50,
      "hit": false,
      "t": 32999.967000000004,
      "d": 139.2855750000017,
      "v": 62
    },
    {
      "midi": 41,
      "hit": false,
      "t": 33017.824125000014,
      "d": 74.99992499999644,
      "v": 52
    },
    {
      "midi": 43,
      "hit": false,
      "t": 33021.39555000005,
      "d": 71.4285000000018,
      "v": 37
    },
    {
      "midi": 61,
      "hit": false,
      "t": 33021.39555000005,
      "d": 160.71412500000588,
      "v": 64
    },
    {
      "midi": 55,
      "hit": false,
      "t": 33142.82400000001,
      "d": 139.2855750000017,
      "v": 62
    },
    {
      "midi": 43,
      "hit": false,
      "t": 33149.96685000001,
      "d": 74.99992499999644,
      "v": 49
    },
    {
      "midi": 47,
      "hit": false,
      "t": 33164.252550000056,
      "d": 82.14277500000026,
      "v": 39
    },
    {
      "midi": 50,
      "hit": false,
      "t": 33285.68100000001,
      "d": 139.2855750000017,
      "v": 72
    },
    {
      "midi": 41,
      "hit": false,
      "t": 33303.53812500001,
      "d": 117.85702499999752,
      "v": 49
    },
    {
      "midi": 43,
      "hit": false,
      "t": 33307.10955000006,
      "d": 107.14274999999907,
      "v": 48
    },
    {
      "midi": 64,
      "hit": false,
      "t": 33307.10955000006,
      "d": 171.42839999999705,
      "v": 38
    },
    {
      "midi": 62,
      "hit": false,
      "t": 33428.537999999986,
      "d": 89.2856249999968,
      "v": 93
    },
    {
      "midi": 55,
      "hit": false,
      "t": 33428.537999999986,
      "d": 107.14274999999907,
      "v": 93
    },
    {
      "midi": 50,
      "hit": false,
      "t": 33428.537999999986,
      "d": 110.71417500000098,
      "v": 103
    },
    {
      "midi": 55,
      "hit": false,
      "t": 33428.538000000015,
      "d": 139.2855750000017,
      "v": 89
    },
    {
      "midi": 43,
      "hit": false,
      "t": 33449.966550000005,
      "d": 74.99992499999644,
      "v": 69
    },
    {
      "midi": 45,
      "hit": false,
      "t": 33449.966550000056,
      "d": 78.57134999999835,
      "v": 73
    },
    {
      "midi": 36,
      "hit": false,
      "t": 33449.966550000056,
      "d": 128.57129999999597,
      "v": 97
    },
    {
      "midi": 61,
      "hit": false,
      "t": 33449.966550000056,
      "d": 153.57127499999478,
      "v": 63
    },
    {
      "midi": 62,
      "hit": false,
      "t": 33714.251999999986,
      "d": 67.8570749999999,
      "v": 95
    },
    {
      "midi": 55,
      "hit": false,
      "t": 33714.251999999986,
      "d": 78.57134999999835,
      "v": 90
    },
    {
      "midi": 50,
      "hit": false,
      "t": 33714.251999999986,
      "d": 89.2856249999968,
      "v": 98
    },
    {
      "midi": 55,
      "hit": false,
      "t": 33714.252000000015,
      "d": 139.2855750000017,
      "v": 76
    },
    {
      "midi": 43,
      "hit": false,
      "t": 33735.680550000005,
      "d": 78.57134999999835,
      "v": 63
    },
    {
      "midi": 45,
      "hit": false,
      "t": 33735.68055000005,
      "d": 67.8570749999999,
      "v": 61
    },
    {
      "midi": 64,
      "hit": false,
      "t": 33735.68055000005,
      "d": 153.57127499999478,
      "v": 49
    },
    {
      "midi": 50,
      "hit": false,
      "t": 33857.10900000002,
      "d": 139.2855750000017,
      "v": 76
    },
    {
      "midi": 41,
      "hit": false,
      "t": 33871.394700000004,
      "d": 67.8570749999999,
      "v": 55
    },
    {
      "midi": 43,
      "hit": false,
      "t": 33878.537550000045,
      "d": 82.14277500000026,
      "v": 50
    },
    {
      "midi": 61,
      "hit": false,
      "t": 33878.537550000045,
      "d": 135.7141499999998,
      "v": 59
    },
    {
      "midi": 62,
      "hit": false,
      "t": 33999.965999999986,
      "d": 60.71422500000335,
      "v": 93
    },
    {
      "midi": 55,
      "hit": false,
      "t": 33999.965999999986,
      "d": 74.99992500000371,
      "v": 93
    },
    {
      "midi": 50,
      "hit": false,
      "t": 33999.965999999986,
      "d": 96.42847500000062,
      "v": 101
    },
    {
      "midi": 55,
      "hit": false,
      "t": 33999.96600000002,
      "d": 139.2855750000017,
      "v": 60
    },
    {
      "midi": 43,
      "hit": false,
      "t": 34007.108850000004,
      "d": 82.14277500000026,
      "v": 49
    },
    {
      "midi": 47,
      "hit": false,
      "t": 34021.39455000004,
      "d": 71.4285000000018,
      "v": 45
    },
    {
      "midi": 41,
      "hit": false,
      "t": 34132.108725000006,
      "d": 74.99992499999644,
      "v": 73
    },
    {
      "midi": 50,
      "hit": false,
      "t": 34142.823000000026,
      "d": 139.2855750000017,
      "v": 64
    },
    {
      "midi": 43,
      "hit": false,
      "t": 34164.251550000045,
      "d": 74.99992499999644,
      "v": 59
    },
    {
      "midi": 64,
      "hit": false,
      "t": 34164.251550000045,
      "d": 92.85704999999871,
      "v": 75
    },
    {
      "midi": 65,
      "hit": false,
      "t": 34217.822924999935,
      "d": 64.28564999999799,
      "v": 115
    },
    {
      "midi": 67,
      "hit": false,
      "t": 34242.822899999934,
      "d": 2014.2836999999417,
      "v": 117
    },
    {
      "midi": 62,
      "hit": false,
      "t": 34285.679999999986,
      "d": 285.71399999999994,
      "v": 103
    },
    {
      "midi": 50,
      "hit": false,
      "t": 34285.679999999986,
      "d": 292.8568499999965,
      "v": 106
    },
    {
      "midi": 55,
      "hit": false,
      "t": 34285.679999999986,
      "d": 299.999699999993,
      "v": 98
    },
    {
      "midi": 43,
      "hit": false,
      "t": 34285.68,
      "d": 74.99992499999644,
      "v": 76
    },
    {
      "midi": 55,
      "hit": false,
      "t": 34285.68000000002,
      "d": 3446.4251250000016,
      "v": 100
    },
    {
      "midi": 55,
      "hit": false,
      "t": 34285.68000000003,
      "d": 139.2855750000017,
      "v": 80
    },
    {
      "midi": 45,
      "hit": false,
      "t": 34307.10855000004,
      "d": 78.57134999999835,
      "v": 77
    },
    {
      "midi": 61,
      "hit": false,
      "t": 34307.10855000004,
      "d": 107.14274999999907,
      "v": 90
    },
    {
      "midi": 36,
      "hit": false,
      "t": 34307.10855000004,
      "d": 167.85697500000242,
      "v": 95
    },
    {
      "midi": 65,
      "hit": false,
      "t": 34424.96557499994,
      "d": 64.28564999999799,
      "v": 106
    },
    {
      "midi": 67,
      "hit": false,
      "t": 34435.679849999935,
      "d": 2014.2836999999417,
      "v": 103
    },
    {
      "midi": 43,
      "hit": false,
      "t": 34567.822575,
      "d": 71.4285000000018,
      "v": 63
    },
    {
      "midi": 55,
      "hit": false,
      "t": 34571.39400000003,
      "d": 139.2855750000017,
      "v": 68
    },
    {
      "midi": 45,
      "hit": false,
      "t": 34592.82255000004,
      "d": 82.14277500000026,
      "v": 61
    },
    {
      "midi": 64,
      "hit": false,
      "t": 34592.82255000004,
      "d": 185.7141000000047,
      "v": 55
    },
    {
      "midi": 65,
      "hit": false,
      "t": 34639.251074999935,
      "d": 64.28564999999799,
      "v": 90
    },
    {
      "midi": 67,
      "hit": false,
      "t": 34649.96534999993,
      "d": 2014.2836999999417,
      "v": 90
    },
    {
      "midi": 41,
      "hit": false,
      "t": 34707.10815,
      "d": 82.14277500000026,
      "v": 52
    },
    {
      "midi": 50,
      "hit": false,
      "t": 34714.25100000003,
      "d": 139.2855750000017,
      "v": 62
    },
    {
      "midi": 43,
      "hit": false,
      "t": 34735.679550000044,
      "d": 82.14277500000026,
      "v": 40
    },
    {
      "midi": 61,
      "hit": false,
      "t": 34735.679550000044,
      "d": 139.2855750000017,
      "v": 57
    },
    {
      "midi": 43,
      "hit": false,
      "t": 34849.96515,
      "d": 82.14277500000026,
      "v": 39
    },
    {
      "midi": 55,
      "hit": false,
      "t": 34857.10800000004,
      "d": 139.2855750000017,
      "v": 62
    },
    {
      "midi": 47,
      "hit": false,
      "t": 34878.53655000005,
      "d": 71.4285000000018,
      "v": 48
    },
    {
      "midi": 41,
      "hit": false,
      "t": 34989.250725000005,
      "d": 149.99985000000015,
      "v": 65
    },
    {
      "midi": 50,
      "hit": false,
      "t": 34999.96500000004,
      "d": 139.2855750000017,
      "v": 72
    },
    {
      "midi": 43,
      "hit": false,
      "t": 35021.39355000005,
      "d": 110.71417500000098,
      "v": 55
    },
    {
      "midi": 64,
      "hit": false,
      "t": 35021.39355000005,
      "d": 167.85697500000242,
      "v": 47
    },
    {
      "midi": 55,
      "hit": false,
      "t": 35142.82199999998,
      "d": 503.570925,
      "v": 95
    },
    {
      "midi": 50,
      "hit": false,
      "t": 35142.82199999998,
      "d": 510.71377499999653,
      "v": 101
    },
    {
      "midi": 62,
      "hit": false,
      "t": 35142.82199999998,
      "d": 510.71377499999653,
      "v": 95
    },
    {
      "midi": 55,
      "hit": false,
      "t": 35142.822000000044,
      "d": 139.2855750000017,
      "v": 89
    },
    {
      "midi": 43,
      "hit": false,
      "t": 35160.679125,
      "d": 74.99992499999644,
      "v": 67
    },
    {
      "midi": 45,
      "hit": false,
      "t": 35164.250550000055,
      "d": 74.99992499999644,
      "v": 73
    },
    {
      "midi": 61,
      "hit": false,
      "t": 35164.250550000055,
      "d": 128.57129999999597,
      "v": 64
    },
    {
      "midi": 36,
      "hit": false,
      "t": 35164.250550000055,
      "d": 171.42839999999705,
      "v": 79
    },
    {
      "midi": 55,
      "hit": false,
      "t": 35428.536000000044,
      "d": 139.2855750000017,
      "v": 76
    },
    {
      "midi": 43,
      "hit": false,
      "t": 35439.250275,
      "d": 78.57134999999835,
      "v": 58
    },
    {
      "midi": 45,
      "hit": false,
      "t": 35449.964550000055,
      "d": 78.57134999999835,
      "v": 46
    },
    {
      "midi": 64,
      "hit": false,
      "t": 35449.964550000055,
      "d": 164.28554999999324,
      "v": 60
    },
    {
      "midi": 50,
      "hit": false,
      "t": 35571.39300000005,
      "d": 139.2855750000017,
      "v": 76
    },
    {
      "midi": 41,
      "hit": false,
      "t": 35578.53585,
      "d": 82.14277500000026,
      "v": 46
    },
    {
      "midi": 43,
      "hit": false,
      "t": 35592.82155000005,
      "d": 85.71419999999489,
      "v": 45
    },
    {
      "midi": 61,
      "hit": false,
      "t": 35592.82155000005,
      "d": 121.42844999999215,
      "v": 48
    },
    {
      "midi": 55,
      "hit": false,
      "t": 35714.25000000005,
      "d": 139.2855750000017,
      "v": 60
    },
    {
      "midi": 43,
      "hit": false,
      "t": 35721.392850000004,
      "d": 85.71420000000217,
      "v": 45
    },
    {
      "midi": 47,
      "hit": false,
      "t": 35735.67855000004,
      "d": 67.8570749999999,
      "v": 49
    },
    {
      "midi": 50,
      "hit": false,
      "t": 35857.107000000055,
      "d": 139.2855750000017,
      "v": 64
    },
    {
      "midi": 41,
      "hit": false,
      "t": 35874.964125000006,
      "d": 135.7141499999998,
      "v": 58
    },
    {
      "midi": 43,
      "hit": false,
      "t": 35878.53555000004,
      "d": 110.71417500000098,
      "v": 49
    },
    {
      "midi": 64,
      "hit": false,
      "t": 35878.53555000004,
      "d": 142.8570000000036,
      "v": 48
    },
    {
      "midi": 55,
      "hit": false,
      "t": 35999.96399999998,
      "d": 528.5708999999988,
      "v": 95
    },
    {
      "midi": 50,
      "hit": false,
      "t": 35999.96399999998,
      "d": 532.1423250000007,
      "v": 101
    },
    {
      "midi": 62,
      "hit": false,
      "t": 35999.96399999998,
      "d": 539.2851749999973,
      "v": 95
    },
    {
      "midi": 55,
      "hit": false,
      "t": 35999.96400000006,
      "d": 139.2855750000017,
      "v": 80
    },
    {
      "midi": 45,
      "hit": false,
      "t": 36021.39255000004,
      "d": 85.71420000000217,
      "v": 77
    },
    {
      "midi": 61,
      "hit": false,
      "t": 36021.39255000004,
      "d": 135.7141499999998,
      "v": 54
    },
    {
      "midi": 36,
      "hit": false,
      "t": 36021.39255000004,
      "d": 153.57127500000206,
      "v": 89
    },
    {
      "midi": 43,
      "hit": false,
      "t": 36028.53540000001,
      "d": 82.14277500000026,
      "v": 71
    },
    {
      "midi": 55,
      "hit": false,
      "t": 36285.67800000006,
      "d": 139.2855750000017,
      "v": 68
    },
    {
      "midi": 45,
      "hit": false,
      "t": 36307.10655000004,
      "d": 82.14277500000026,
      "v": 53
    },
    {
      "midi": 64,
      "hit": false,
      "t": 36307.10655000004,
      "d": 182.14267500000278,
      "v": 60
    },
    {
      "midi": 43,
      "hit": false,
      "t": 36314.24940000001,
      "d": 82.14277500000026,
      "v": 55
    },
    {
      "midi": 50,
      "hit": false,
      "t": 36428.53500000006,
      "d": 139.2855750000017,
      "v": 62
    },
    {
      "midi": 43,
      "hit": false,
      "t": 36449.963550000044,
      "d": 85.71420000000217,
      "v": 48
    },
    {
      "midi": 61,
      "hit": false,
      "t": 36449.963550000044,
      "d": 124.99987500000134,
      "v": 58
    },
    {
      "midi": 41,
      "hit": false,
      "t": 36457.10640000001,
      "d": 82.14277500000026,
      "v": 53
    },
    {
      "midi": 55,
      "hit": false,
      "t": 36571.392000000065,
      "d": 139.2855750000017,
      "v": 62
    },
    {
      "midi": 47,
      "hit": false,
      "t": 36592.82055000005,
      "d": 71.4285000000018,
      "v": 40
    },
    {
      "midi": 43,
      "hit": false,
      "t": 36596.39197500001,
      "d": 82.14277500000026,
      "v": 39
    },
    {
      "midi": 50,
      "hit": false,
      "t": 36714.24900000007,
      "d": 139.2855750000017,
      "v": 72
    },
    {
      "midi": 43,
      "hit": false,
      "t": 36735.67755000005,
      "d": 121.42844999999943,
      "v": 49
    },
    {
      "midi": 64,
      "hit": false,
      "t": 36735.67755000005,
      "d": 171.42839999999705,
      "v": 59
    },
    {
      "midi": 41,
      "hit": false,
      "t": 36739.24897500002,
      "d": 132.14272499999788,
      "v": 56
    },
    {
      "midi": 65,
      "hit": false,
      "t": 36771.39179999985,
      "d": 71.4285000000018,
      "v": 115
    },
    {
      "midi": 67,
      "hit": false,
      "t": 36796.39177499985,
      "d": 214.2855000000054,
      "v": 119
    },
    {
      "midi": 62,
      "hit": false,
      "t": 36857.10599999998,
      "d": 85.71420000000217,
      "v": 95
    },
    {
      "midi": 55,
      "hit": false,
      "t": 36857.10599999998,
      "d": 107.14274999999907,
      "v": 98
    },
    {
      "midi": 50,
      "hit": false,
      "t": 36857.10599999998,
      "d": 114.28559999999561,
      "v": 103
    },
    {
      "midi": 55,
      "hit": false,
      "t": 36857.10600000007,
      "d": 139.2855750000017,
      "v": 89
    },
    {
      "midi": 45,
      "hit": false,
      "t": 36878.53455000005,
      "d": 82.14277500000026,
      "v": 75
    },
    {
      "midi": 36,
      "hit": false,
      "t": 36878.53455000005,
      "d": 128.57130000000325,
      "v": 88
    },
    {
      "midi": 61,
      "hit": false,
      "t": 36878.53455000005,
      "d": 132.14272500000516,
      "v": 57
    },
    {
      "midi": 43,
      "hit": false,
      "t": 36892.82025000001,
      "d": 82.14277500000026,
      "v": 78
    },
    {
      "midi": 65,
      "hit": false,
      "t": 36964.24874999985,
      "d": 71.4285000000018,
      "v": 105
    },
    {
      "midi": 67,
      "hit": false,
      "t": 36989.24872499985,
      "d": 214.2855000000054,
      "v": 105
    },
    {
      "midi": 65,
      "hit": false,
      "t": 37142.819999999854,
      "d": 224.9997749999966,
      "v": 111
    },
    {
      "midi": 62,
      "hit": false,
      "t": 37142.81999999997,
      "d": 74.99992499999644,
      "v": 98
    },
    {
      "midi": 55,
      "hit": false,
      "t": 37142.81999999997,
      "d": 78.57134999999835,
      "v": 93
    },
    {
      "midi": 50,
      "hit": false,
      "t": 37142.81999999997,
      "d": 96.42847500000062,
      "v": 103
    },
    {
      "midi": 55,
      "hit": false,
      "t": 37142.82000000007,
      "d": 139.2855750000017,
      "v": 76
    },
    {
      "midi": 45,
      "hit": false,
      "t": 37164.248550000055,
      "d": 82.14277500000026,
      "v": 49
    },
    {
      "midi": 64,
      "hit": false,
      "t": 37164.248550000055,
      "d": 164.2855500000005,
      "v": 50
    },
    {
      "midi": 65,
      "hit": false,
      "t": 37178.53424999985,
      "d": 71.4285000000018,
      "v": 92
    },
    {
      "midi": 43,
      "hit": false,
      "t": 37178.53425000001,
      "d": 74.99992499999644,
      "v": 53
    },
    {
      "midi": 67,
      "hit": false,
      "t": 37203.53422499985,
      "d": 214.2855000000054,
      "v": 91
    },
    {
      "midi": 50,
      "hit": false,
      "t": 37285.677000000076,
      "d": 139.2855750000017,
      "v": 76
    },
    {
      "midi": 43,
      "hit": false,
      "t": 37307.10555000006,
      "d": 82.14277500000026,
      "v": 46
    },
    {
      "midi": 61,
      "hit": false,
      "t": 37307.10555000006,
      "d": 132.14272499999788,
      "v": 60
    },
    {
      "midi": 41,
      "hit": false,
      "t": 37310.67697500001,
      "d": 92.85704999999871,
      "v": 60
    },
    {
      "midi": 65,
      "hit": false,
      "t": 37335.676949999855,
      "d": 224.9997749999966,
      "v": 101
    },
    {
      "midi": 62,
      "hit": false,
      "t": 37428.53399999997,
      "d": 71.4285000000018,
      "v": 98
    },
    {
      "midi": 55,
      "hit": false,
      "t": 37428.53399999997,
      "d": 74.99992500000371,
      "v": 95
    },
    {
      "midi": 50,
      "hit": false,
      "t": 37428.53399999997,
      "d": 96.42847500000062,
      "v": 101
    },
    {
      "midi": 55,
      "hit": false,
      "t": 37428.53400000008,
      "d": 139.2855750000017,
      "v": 60
    },
    {
      "midi": 47,
      "hit": false,
      "t": 37449.962550000055,
      "d": 64.28564999999799,
      "v": 34
    },
    {
      "midi": 64,
      "hit": false,
      "t": 37453.53397499985,
      "d": 103.57132499999716,
      "v": 120
    },
    {
      "midi": 43,
      "hit": false,
      "t": 37460.67682500001,
      "d": 82.14277500000026,
      "v": 37
    },
    {
      "midi": 65,
      "hit": false,
      "t": 37549.96244999985,
      "d": 224.9997749999966,
      "v": 91
    },
    {
      "midi": 50,
      "hit": false,
      "t": 37571.39100000008,
      "d": 139.2855750000017,
      "v": 64
    },
    {
      "midi": 43,
      "hit": false,
      "t": 37592.81955000005,
      "d": 110.71417500000098,
      "v": 49
    },
    {
      "midi": 64,
      "hit": false,
      "t": 37592.81955000005,
      "d": 171.42839999999705,
      "v": 57
    },
    {
      "midi": 41,
      "hit": false,
      "t": 37596.39097500001,
      "d": 117.85702499999752,
      "v": 46
    },
    {
      "midi": 64,
      "hit": false,
      "t": 37646.390924999854,
      "d": 103.57132499999716,
      "v": 103
    },
    {
      "midi": 64,
      "hit": false,
      "t": 37674.96232499985,
      "d": 107.14274999999907,
      "v": 112
    },
    {
      "midi": 55,
      "hit": false,
      "t": 37714.24799999997,
      "d": 489.2852249999996,
      "v": 101
    },
    {
      "midi": 62,
      "hit": false,
      "t": 37714.24799999997,
      "d": 496.42807499999617,
      "v": 103
    },
    {
      "midi": 50,
      "hit": false,
      "t": 37714.24799999997,
      "d": 510.71377499999653,
      "v": 101
    },
    {
      "midi": 50,
      "hit": false,
      "t": 37714.24800000002,
      "d": 6428.565000000046,
      "v": 100
    },
    {
      "midi": 55,
      "hit": false,
      "t": 37714.24800000009,
      "d": 139.2855750000017,
      "v": 80
    },
    {
      "midi": 45,
      "hit": false,
      "t": 37735.67655000005,
      "d": 78.57134999999835,
      "v": 73
    },
    {
      "midi": 61,
      "hit": false,
      "t": 37735.67655000005,
      "d": 132.14272499999788,
      "v": 68
    },
    {
      "midi": 36,
      "hit": false,
      "t": 37735.67655000005,
      "d": 146.42842499999824,
      "v": 95
    },
    {
      "midi": 43,
      "hit": false,
      "t": 37746.39082500001,
      "d": 85.71420000000217,
      "v": 71
    },
    {
      "midi": 65,
      "hit": false,
      "t": 37767.819374999846,
      "d": 85.71420000000217,
      "v": 115
    },
    {
      "midi": 64,
      "hit": false,
      "t": 37807.105049999846,
      "d": 146.42842500000552,
      "v": 113
    },
    {
      "midi": 64,
      "hit": false,
      "t": 37860.67642499985,
      "d": 103.57132499999716,
      "v": 90
    },
    {
      "midi": 64,
      "hit": false,
      "t": 37867.81927499985,
      "d": 107.14274999999907,
      "v": 102
    },
    {
      "midi": 62,
      "hit": false,
      "t": 37949.96204999985,
      "d": 3439.2822749999686,
      "v": 119
    },
    {
      "midi": 65,
      "hit": false,
      "t": 37960.67632499985,
      "d": 85.71420000000217,
      "v": 105
    },
    {
      "midi": 64,
      "hit": false,
      "t": 37999.96199999985,
      "d": 146.42842500000552,
      "v": 103
    },
    {
      "midi": 55,
      "hit": false,
      "t": 37999.96200000009,
      "d": 139.2855750000017,
      "v": 68
    },
    {
      "midi": 45,
      "hit": false,
      "t": 38021.39055000005,
      "d": 71.4285000000018,
      "v": 55
    },
    {
      "midi": 64,
      "hit": false,
      "t": 38021.39055000005,
      "d": 182.14267500000278,
      "v": 54
    },
    {
      "midi": 43,
      "hit": false,
      "t": 38024.96197500001,
      "d": 82.14277500000026,
      "v": 52
    },
    {
      "midi": 64,
      "hit": false,
      "t": 38082.10477499985,
      "d": 107.14274999999907,
      "v": 92
    },
    {
      "midi": 62,
      "hit": false,
      "t": 38142.81899999985,
      "d": 3439.2822749999686,
      "v": 105
    },
    {
      "midi": 50,
      "hit": false,
      "t": 38142.81900000009,
      "d": 139.2855750000017,
      "v": 62
    },
    {
      "midi": 41,
      "hit": false,
      "t": 38149.961850000014,
      "d": 82.14277500000026,
      "v": 52
    },
    {
      "midi": 43,
      "hit": false,
      "t": 38164.24755000005,
      "d": 82.14277500000026,
      "v": 40
    },
    {
      "midi": 61,
      "hit": false,
      "t": 38164.24755000005,
      "d": 142.8570000000036,
      "v": 68
    },
    {
      "midi": 65,
      "hit": false,
      "t": 38174.961824999846,
      "d": 85.71420000000217,
      "v": 92
    },
    {
      "midi": 64,
      "hit": false,
      "t": 38214.247499999845,
      "d": 146.42842500000552,
      "v": 93
    },
    {
      "midi": 55,
      "hit": false,
      "t": 38285.676000000094,
      "d": 139.2855750000017,
      "v": 62
    },
    {
      "midi": 43,
      "hit": false,
      "t": 38299.961700000014,
      "d": 82.14277500000026,
      "v": 41
    },
    {
      "midi": 47,
      "hit": false,
      "t": 38307.104550000055,
      "d": 67.8570749999999,
      "v": 37
    },
    {
      "midi": 62,
      "hit": false,
      "t": 38357.10449999985,
      "d": 3439.2822749999686,
      "v": 91
    },
    {
      "midi": 50,
      "hit": false,
      "t": 38428.5330000001,
      "d": 139.2855750000017,
      "v": 72
    },
    {
      "midi": 41,
      "hit": false,
      "t": 38442.81870000002,
      "d": 121.42844999999943,
      "v": 55
    },
    {
      "midi": 43,
      "hit": false,
      "t": 38449.96155000005,
      "d": 117.85702499999752,
      "v": 45
    },
    {
      "midi": 64,
      "hit": false,
      "t": 38449.96155000005,
      "d": 160.7141249999986,
      "v": 47
    },
    {
      "midi": 55,
      "hit": false,
      "t": 38571.38999999997,
      "d": 532.1423250000007,
      "v": 95
    },
    {
      "midi": 62,
      "hit": false,
      "t": 38571.38999999997,
      "d": 535.7137500000026,
      "v": 95
    },
    {
      "midi": 50,
      "hit": false,
      "t": 38571.38999999997,
      "d": 542.8565999999992,
      "v": 103
    },
    {
      "midi": 55,
      "hit": false,
      "t": 38571.3900000001,
      "d": 139.2855750000017,
      "v": 89
    },
    {
      "midi": 43,
      "hit": false,
      "t": 38589.247125000016,
      "d": 82.14277500000026,
      "v": 63
    },
    {
      "midi": 45,
      "hit": false,
      "t": 38592.81855000005,
      "d": 71.4285000000018,
      "v": 71
    },
    {
      "midi": 36,
      "hit": false,
      "t": 38592.81855000005,
      "d": 128.57130000000325,
      "v": 97
    },
    {
      "midi": 61,
      "hit": false,
      "t": 38592.81855000005,
      "d": 153.57127500000206,
      "v": 60
    },
    {
      "midi": 55,
      "hit": false,
      "t": 38857.1040000001,
      "d": 139.2855750000017,
      "v": 76
    },
    {
      "midi": 43,
      "hit": false,
      "t": 38871.389700000014,
      "d": 82.14277500000026,
      "v": 55
    },
    {
      "midi": 45,
      "hit": false,
      "t": 38878.532550000054,
      "d": 78.57134999999835,
      "v": 55
    },
    {
      "midi": 64,
      "hit": false,
      "t": 38878.532550000054,
      "d": 167.85697500000242,
      "v": 57
    },
    {
      "midi": 50,
      "hit": false,
      "t": 38999.961000000105,
      "d": 139.2855750000017,
      "v": 76
    },
    {
      "midi": 41,
      "hit": false,
      "t": 39014.24670000002,
      "d": 78.57134999999835,
      "v": 52
    },
    {
      "midi": 43,
      "hit": false,
      "t": 39021.38955000006,
      "d": 78.57134999999835,
      "v": 45
    },
    {
      "midi": 61,
      "hit": false,
      "t": 39021.38955000006,
      "d": 139.2855750000017,
      "v": 55
    },
    {
      "midi": 55,
      "hit": false,
      "t": 39142.81800000011,
      "d": 139.2855750000017,
      "v": 60
    },
    {
      "midi": 43,
      "hit": false,
      "t": 39149.96085000002,
      "d": 89.2856249999968,
      "v": 44
    },
    {
      "midi": 47,
      "hit": false,
      "t": 39164.24655000006,
      "d": 71.4285000000018,
      "v": 36
    },
    {
      "midi": 50,
      "hit": false,
      "t": 39285.67500000011,
      "d": 139.2855750000017,
      "v": 64
    },
    {
      "midi": 41,
      "hit": false,
      "t": 39303.53212500001,
      "d": 103.57132499999716,
      "v": 56
    },
    {
      "midi": 43,
      "hit": false,
      "t": 39307.103550000065,
      "d": 117.85702499999752,
      "v": 48
    },
    {
      "midi": 64,
      "hit": false,
      "t": 39307.103550000065,
      "d": 157.1426999999967,
      "v": 43
    },
    {
      "midi": 50,
      "hit": false,
      "t": 39428.53199999997,
      "d": 478.5709500000012,
      "v": 101
    },
    {
      "midi": 62,
      "hit": false,
      "t": 39428.53199999997,
      "d": 478.5709500000012,
      "v": 98
    },
    {
      "midi": 55,
      "hit": false,
      "t": 39428.53199999997,
      "d": 482.1423750000031,
      "v": 95
    },
    {
      "midi": 55,
      "hit": false,
      "t": 39428.532000000116,
      "d": 139.2855750000017,
      "v": 80
    },
    {
      "midi": 43,
      "hit": false,
      "t": 39432.10342500001,
      "d": 89.2856249999968,
      "v": 69
    },
    {
      "midi": 45,
      "hit": false,
      "t": 39449.96055000006,
      "d": 78.57134999999835,
      "v": 75
    },
    {
      "midi": 61,
      "hit": false,
      "t": 39449.96055000006,
      "d": 135.7141499999998,
      "v": 54
    },
    {
      "midi": 36,
      "hit": false,
      "t": 39449.96055000006,
      "d": 146.42842499999824,
      "v": 95
    },
    {
      "midi": 55,
      "hit": false,
      "t": 39714.246000000116,
      "d": 139.2855750000017,
      "v": 68
    },
    {
      "midi": 43,
      "hit": false,
      "t": 39728.53170000001,
      "d": 82.14277500000026,
      "v": 53
    },
    {
      "midi": 45,
      "hit": false,
      "t": 39735.67455000006,
      "d": 74.99992499999644,
      "v": 63
    },
    {
      "midi": 64,
      "hit": false,
      "t": 39735.67455000006,
      "d": 182.1426749999955,
      "v": 57
    },
    {
      "midi": 50,
      "hit": false,
      "t": 39857.10300000012,
      "d": 139.2855750000017,
      "v": 62
    },
    {
      "midi": 41,
      "hit": false,
      "t": 39864.24585000001,
      "d": 74.99992499999644,
      "v": 58
    },
    {
      "midi": 43,
      "hit": false,
      "t": 39878.53155000006,
      "d": 71.4285000000018,
      "v": 37
    },
    {
      "midi": 61,
      "hit": false,
      "t": 39878.53155000006,
      "d": 160.71412500000588,
      "v": 64
    },
    {
      "midi": 43,
      "hit": false,
      "t": 39999.96000000001,
      "d": 82.14277500000026,
      "v": 44
    },
    {
      "midi": 55,
      "hit": false,
      "t": 39999.96000000012,
      "d": 139.2855750000017,
      "v": 62
    },
    {
      "midi": 47,
      "hit": false,
      "t": 40021.38855000006,
      "d": 82.14277500000753,
      "v": 39
    },
    {
      "midi": 50,
      "hit": false,
      "t": 40142.81700000013,
      "d": 139.2855750000017,
      "v": 72
    },
    {
      "midi": 41,
      "hit": false,
      "t": 40146.388425000005,
      "d": 121.42844999999943,
      "v": 60
    },
    {
      "midi": 43,
      "hit": false,
      "t": 40164.24555000007,
      "d": 107.14274999999907,
      "v": 48
    },
    {
      "midi": 64,
      "hit": false,
      "t": 40164.24555000007,
      "d": 171.42839999999705,
      "v": 38
    },
    {
      "midi": 62,
      "hit": false,
      "t": 40285.67399999997,
      "d": 89.2856249999968,
      "v": 93
    },
    {
      "midi": 55,
      "hit": false,
      "t": 40285.67399999997,
      "d": 107.14274999999907,
      "v": 93
    },
    {
      "midi": 50,
      "hit": false,
      "t": 40285.67399999997,
      "d": 110.71417500000098,
      "v": 103
    },
    {
      "midi": 55,
      "hit": false,
      "t": 40285.67400000013,
      "d": 139.2855750000017,
      "v": 89
    },
    {
      "midi": 43,
      "hit": false,
      "t": 40296.388275000005,
      "d": 85.71420000000217,
      "v": 65
    },
    {
      "midi": 45,
      "hit": false,
      "t": 40307.10255000007,
      "d": 78.57134999999835,
      "v": 73
    },
    {
      "midi": 36,
      "hit": false,
      "t": 40307.10255000007,
      "d": 128.57129999999597,
      "v": 97
    },
    {
      "midi": 61,
      "hit": false,
      "t": 40307.10255000007,
      "d": 153.57127499999478,
      "v": 63
    },
    {
      "midi": 62,
      "hit": false,
      "t": 40571.38799999997,
      "d": 67.8570749999999,
      "v": 95
    },
    {
      "midi": 55,
      "hit": false,
      "t": 40571.38799999997,
      "d": 78.57134999999835,
      "v": 90
    },
    {
      "midi": 50,
      "hit": false,
      "t": 40571.38799999997,
      "d": 89.2856249999968,
      "v": 98
    },
    {
      "midi": 55,
      "hit": false,
      "t": 40571.38800000013,
      "d": 139.2855750000017,
      "v": 76
    },
    {
      "midi": 45,
      "hit": false,
      "t": 40592.81655000006,
      "d": 67.8570749999999,
      "v": 61
    },
    {
      "midi": 64,
      "hit": false,
      "t": 40592.81655000006,
      "d": 153.57127499999478,
      "v": 49
    },
    {
      "midi": 43,
      "hit": false,
      "t": 40596.387975000005,
      "d": 89.2856249999968,
      "v": 59
    },
    {
      "midi": 50,
      "hit": false,
      "t": 40714.24500000013,
      "d": 139.2855750000017,
      "v": 76
    },
    {
      "midi": 43,
      "hit": false,
      "t": 40735.67355000006,
      "d": 82.14277500000026,
      "v": 50
    },
    {
      "midi": 61,
      "hit": false,
      "t": 40735.67355000006,
      "d": 135.7141499999998,
      "v": 59
    },
    {
      "midi": 41,
      "hit": false,
      "t": 40767.816375,
      "d": 64.28564999999799,
      "v": 47
    },
    {
      "midi": 62,
      "hit": false,
      "t": 40857.10199999997,
      "d": 60.71422500000335,
      "v": 93
    },
    {
      "midi": 55,
      "hit": false,
      "t": 40857.10199999997,
      "d": 74.99992500000371,
      "v": 93
    },
    {
      "midi": 50,
      "hit": false,
      "t": 40857.10199999997,
      "d": 96.42847500000062,
      "v": 101
    },
    {
      "midi": 55,
      "hit": false,
      "t": 40857.10200000014,
      "d": 139.2855750000017,
      "v": 60
    },
    {
      "midi": 47,
      "hit": false,
      "t": 40878.530550000054,
      "d": 71.4285000000018,
      "v": 45
    },
    {
      "midi": 43,
      "hit": false,
      "t": 40899.9591,
      "d": 82.14277500000026,
      "v": 45
    },
    {
      "midi": 50,
      "hit": false,
      "t": 40999.95900000014,
      "d": 139.2855750000017,
      "v": 64
    },
    {
      "midi": 43,
      "hit": false,
      "t": 41021.38755000005,
      "d": 74.99992499999644,
      "v": 59
    },
    {
      "midi": 64,
      "hit": false,
      "t": 41021.38755000005,
      "d": 92.85704999999871,
      "v": 75
    },
    {
      "midi": 41,
      "hit": false,
      "t": 41042.816100000004,
      "d": 107.14274999999907,
      "v": 53
    },
    {
      "midi": 62,
      "hit": false,
      "t": 41142.81599999997,
      "d": 285.71399999999994,
      "v": 103
    },
    {
      "midi": 50,
      "hit": false,
      "t": 41142.81599999997,
      "d": 292.8568499999965,
      "v": 106
    },
    {
      "midi": 55,
      "hit": false,
      "t": 41142.81599999997,
      "d": 299.999699999993,
      "v": 98
    },
    {
      "midi": 55,
      "hit": false,
      "t": 41142.816000000144,
      "d": 139.2855750000017,
      "v": 80
    },
    {
      "midi": 45,
      "hit": false,
      "t": 41164.24455000005,
      "d": 78.57135000000562,
      "v": 77
    },
    {
      "midi": 61,
      "hit": false,
      "t": 41164.24455000005,
      "d": 107.14275000000634,
      "v": 90
    },
    {
      "midi": 36,
      "hit": false,
      "t": 41164.24455000005,
      "d": 167.8569750000097,
      "v": 95
    },
    {
      "midi": 43,
      "hit": false,
      "t": 41189.244525,
      "d": 85.71420000000217,
      "v": 69
    },
    {
      "midi": 55,
      "hit": false,
      "t": 41428.530000000144,
      "d": 139.2855750000017,
      "v": 68
    },
    {
      "midi": 45,
      "hit": false,
      "t": 41449.958550000054,
      "d": 82.14277500000026,
      "v": 61
    },
    {
      "midi": 64,
      "hit": false,
      "t": 41449.958550000054,
      "d": 185.7141000000047,
      "v": 55
    },
    {
      "midi": 43,
      "hit": false,
      "t": 41457.10140000001,
      "d": 78.57134999999835,
      "v": 53
    },
    {
      "midi": 50,
      "hit": false,
      "t": 41571.38700000015,
      "d": 139.2855750000017,
      "v": 62
    },
    {
      "midi": 43,
      "hit": false,
      "t": 41592.81555000006,
      "d": 82.14277500000026,
      "v": 40
    },
    {
      "midi": 61,
      "hit": false,
      "t": 41592.81555000006,
      "d": 139.2855750000017,
      "v": 57
    },
    {
      "midi": 41,
      "hit": false,
      "t": 41596.38697500001,
      "d": 74.99992499999644,
      "v": 53
    },
    {
      "midi": 55,
      "hit": false,
      "t": 41714.24400000015,
      "d": 139.2855750000017,
      "v": 62
    },
    {
      "midi": 43,
      "hit": false,
      "t": 41732.10112500001,
      "d": 74.99992499999644,
      "v": 39
    },
    {
      "midi": 47,
      "hit": false,
      "t": 41735.67255000006,
      "d": 71.4285000000018,
      "v": 48
    },
    {
      "midi": 50,
      "hit": false,
      "t": 41857.101000000155,
      "d": 139.2855750000017,
      "v": 72
    },
    {
      "midi": 43,
      "hit": false,
      "t": 41878.529550000065,
      "d": 110.7141749999937,
      "v": 55
    },
    {
      "midi": 64,
      "hit": false,
      "t": 41878.529550000065,
      "d": 167.85697499999515,
      "v": 47
    },
    {
      "midi": 41,
      "hit": false,
      "t": 41885.6724,
      "d": 110.71417500000098,
      "v": 50
    },
    {
      "midi": 55,
      "hit": false,
      "t": 41999.95799999996,
      "d": 503.570925,
      "v": 95
    },
    {
      "midi": 62,
      "hit": false,
      "t": 41999.95799999996,
      "d": 510.71377499999653,
      "v": 95
    },
    {
      "midi": 50,
      "hit": false,
      "t": 41999.95799999996,
      "d": 510.71377499999653,
      "v": 101
    },
    {
      "midi": 55,
      "hit": false,
      "t": 41999.95800000016,
      "d": 139.2855750000017,
      "v": 89
    },
    {
      "midi": 43,
      "hit": false,
      "t": 42014.243700000006,
      "d": 82.14277500000026,
      "v": 65
    },
    {
      "midi": 45,
      "hit": false,
      "t": 42021.38655000006,
      "d": 74.99992499999644,
      "v": 73
    },
    {
      "midi": 61,
      "hit": false,
      "t": 42021.38655000006,
      "d": 128.57129999999597,
      "v": 64
    },
    {
      "midi": 36,
      "hit": false,
      "t": 42021.38655000006,
      "d": 171.42839999999705,
      "v": 79
    },
    {
      "midi": 55,
      "hit": false,
      "t": 42285.67200000016,
      "d": 139.2855750000017,
      "v": 76
    },
    {
      "midi": 43,
      "hit": false,
      "t": 42292.81485000001,
      "d": 82.14277500000026,
      "v": 58
    },
    {
      "midi": 45,
      "hit": false,
      "t": 42307.10055000006,
      "d": 78.57134999999835,
      "v": 46
    },
    {
      "midi": 64,
      "hit": false,
      "t": 42307.10055000006,
      "d": 164.28554999999324,
      "v": 60
    },
    {
      "midi": 50,
      "hit": false,
      "t": 42428.52900000016,
      "d": 139.2855750000017,
      "v": 76
    },
    {
      "midi": 41,
      "hit": false,
      "t": 42432.10042500001,
      "d": 82.14277500000026,
      "v": 50
    },
    {
      "midi": 43,
      "hit": false,
      "t": 42449.95755000006,
      "d": 85.71419999999489,
      "v": 45
    },
    {
      "midi": 61,
      "hit": false,
      "t": 42449.95755000006,
      "d": 121.42844999999215,
      "v": 48
    },
    {
      "midi": 55,
      "hit": false,
      "t": 42571.386000000166,
      "d": 139.2855750000017,
      "v": 60
    },
    {
      "midi": 43,
      "hit": false,
      "t": 42578.52885000001,
      "d": 78.57134999999835,
      "v": 41
    },
    {
      "midi": 47,
      "hit": false,
      "t": 42592.81455000005,
      "d": 67.8570749999999,
      "v": 49
    },
    {
      "midi": 50,
      "hit": false,
      "t": 42714.24300000017,
      "d": 139.2855750000017,
      "v": 64
    },
    {
      "midi": 41,
      "hit": false,
      "t": 42735.67155000001,
      "d": 110.71417500000098,
      "v": 58
    },
    {
      "midi": 43,
      "hit": false,
      "t": 42735.67155000004,
      "d": 110.7141749999937,
      "v": 49
    },
    {
      "midi": 64,
      "hit": false,
      "t": 42735.67155000004,
      "d": 142.85699999999633,
      "v": 48
    },
    {
      "midi": 55,
      "hit": false,
      "t": 42857.09999999996,
      "d": 528.5708999999988,
      "v": 95
    },
    {
      "midi": 50,
      "hit": false,
      "t": 42857.09999999996,
      "d": 532.1423250000007,
      "v": 101
    },
    {
      "midi": 62,
      "hit": false,
      "t": 42857.09999999996,
      "d": 539.2851749999973,
      "v": 95
    },
    {
      "midi": 55,
      "hit": false,
      "t": 42857.10000000017,
      "d": 139.2855750000017,
      "v": 80
    },
    {
      "midi": 43,
      "hit": false,
      "t": 42878.52855000001,
      "d": 82.14277500000026,
      "v": 60
    },
    {
      "midi": 45,
      "hit": false,
      "t": 42878.52855000004,
      "d": 85.71420000000217,
      "v": 77
    },
    {
      "midi": 61,
      "hit": false,
      "t": 42878.52855000004,
      "d": 135.71415000000707,
      "v": 54
    },
    {
      "midi": 36,
      "hit": false,
      "t": 42878.52855000004,
      "d": 153.57127500000934,
      "v": 89
    },
    {
      "midi": 55,
      "hit": false,
      "t": 43142.81400000017,
      "d": 139.2855750000017,
      "v": 68
    },
    {
      "midi": 43,
      "hit": false,
      "t": 43149.95685000001,
      "d": 85.71420000000217,
      "v": 56
    },
    {
      "midi": 45,
      "hit": false,
      "t": 43164.242550000046,
      "d": 82.14277500000026,
      "v": 53
    },
    {
      "midi": 64,
      "hit": false,
      "t": 43164.242550000046,
      "d": 182.14267500000278,
      "v": 60
    },
    {
      "midi": 50,
      "hit": false,
      "t": 43285.67100000018,
      "d": 139.2855750000017,
      "v": 62
    },
    {
      "midi": 41,
      "hit": false,
      "t": 43307.09955000001,
      "d": 74.99992499999644,
      "v": 53
    },
    {
      "midi": 43,
      "hit": false,
      "t": 43307.09955000005,
      "d": 85.71420000000217,
      "v": 48
    },
    {
      "midi": 61,
      "hit": false,
      "t": 43307.09955000005,
      "d": 124.99987500000134,
      "v": 58
    },
    {
      "midi": 55,
      "hit": false,
      "t": 43428.52800000018,
      "d": 139.2855750000017,
      "v": 62
    },
    {
      "midi": 43,
      "hit": false,
      "t": 43442.81370000001,
      "d": 74.99992499999644,
      "v": 42
    },
    {
      "midi": 47,
      "hit": false,
      "t": 43449.95655000005,
      "d": 71.4285000000018,
      "v": 40
    },
    {
      "midi": 50,
      "hit": false,
      "t": 43571.385000000184,
      "d": 139.2855750000017,
      "v": 72
    },
    {
      "midi": 43,
      "hit": false,
      "t": 43592.81355000006,
      "d": 121.42844999999943,
      "v": 49
    },
    {
      "midi": 64,
      "hit": false,
      "t": 43592.81355000006,
      "d": 171.42839999999705,
      "v": 59
    },
    {
      "midi": 41,
      "hit": false,
      "t": 43599.95640000001,
      "d": 99.99990000000253,
      "v": 55
    },
    {
      "midi": 62,
      "hit": false,
      "t": 43714.24199999996,
      "d": 85.71420000000217,
      "v": 95
    },
    {
      "midi": 55,
      "hit": false,
      "t": 43714.24199999996,
      "d": 107.14274999999907,
      "v": 98
    },
    {
      "midi": 50,
      "hit": false,
      "t": 43714.24199999996,
      "d": 114.28559999999561,
      "v": 103
    },
    {
      "midi": 55,
      "hit": false,
      "t": 43714.24200000019,
      "d": 139.2855750000017,
      "v": 89
    },
    {
      "midi": 45,
      "hit": false,
      "t": 43735.67055000005,
      "d": 82.14277500000026,
      "v": 75
    },
    {
      "midi": 36,
      "hit": false,
      "t": 43735.67055000005,
      "d": 128.57130000000325,
      "v": 88
    },
    {
      "midi": 61,
      "hit": false,
      "t": 43735.67055000005,
      "d": 132.14272500000516,
      "v": 57
    },
    {
      "midi": 43,
      "hit": false,
      "t": 43742.813400000014,
      "d": 78.57134999999835,
      "v": 67
    },
    {
      "midi": 62,
      "hit": false,
      "t": 43999.955999999955,
      "d": 74.99992499999644,
      "v": 98
    },
    {
      "midi": 55,
      "hit": false,
      "t": 43999.955999999955,
      "d": 78.57134999999835,
      "v": 93
    },
    {
      "midi": 50,
      "hit": false,
      "t": 43999.955999999955,
      "d": 96.42847500000062,
      "v": 103
    },
    {
      "midi": 55,
      "hit": false,
      "t": 43999.95600000019,
      "d": 139.2855750000017,
      "v": 76
    },
    {
      "midi": 43,
      "hit": false,
      "t": 44010.67027500001,
      "d": 82.14277500000026,
      "v": 53
    },
    {
      "midi": 45,
      "hit": false,
      "t": 44021.38455000006,
      "d": 82.14277500000026,
      "v": 49
    },
    {
      "midi": 64,
      "hit": false,
      "t": 44021.38455000006,
      "d": 164.2855500000005,
      "v": 50
    },
    {
      "midi": 50,
      "hit": false,
      "t": 44142.81300000019,
      "d": 139.2855750000017,
      "v": 76
    },
    {
      "midi": 41,
      "hit": false,
      "t": 44160.67012500001,
      "d": 60.71422500000335,
      "v": 41
    },
    {
      "midi": 43,
      "hit": false,
      "t": 44164.241550000064,
      "d": 82.14277500000026,
      "v": 46
    },
    {
      "midi": 61,
      "hit": false,
      "t": 44164.241550000064,
      "d": 132.14272499999788,
      "v": 60
    },
    {
      "midi": 62,
      "hit": false,
      "t": 44285.669999999955,
      "d": 71.4285000000018,
      "v": 98
    },
    {
      "midi": 55,
      "hit": false,
      "t": 44285.669999999955,
      "d": 74.99992500000371,
      "v": 95
    },
    {
      "midi": 50,
      "hit": false,
      "t": 44285.669999999955,
      "d": 96.42847500000062,
      "v": 101
    },
    {
      "midi": 43,
      "hit": false,
      "t": 44285.67000000001,
      "d": 82.14277500000026,
      "v": 45
    },
    {
      "midi": 55,
      "hit": false,
      "t": 44285.670000000195,
      "d": 139.2855750000017,
      "v": 60
    },
    {
      "midi": 47,
      "hit": false,
      "t": 44307.09855000006,
      "d": 64.28564999999799,
      "v": 34
    },
    {
      "midi": 50,
      "hit": false,
      "t": 44428.5270000002,
      "d": 139.2855750000017,
      "v": 84
    },
    {
      "midi": 41,
      "hit": false,
      "t": 44439.241275000015,
      "d": 96.42847500000062,
      "v": 55
    },
    {
      "midi": 43,
      "hit": false,
      "t": 44449.95555000006,
      "d": 110.71417500000098,
      "v": 49
    },
    {
      "midi": 64,
      "hit": false,
      "t": 44449.95555000006,
      "d": 171.42840000000433,
      "v": 57
    },
    {
      "midi": 55,
      "hit": false,
      "t": 44571.38399999996,
      "d": 489.2852249999996,
      "v": 101
    },
    {
      "midi": 62,
      "hit": false,
      "t": 44571.38399999996,
      "d": 496.42807499999617,
      "v": 103
    },
    {
      "midi": 50,
      "hit": false,
      "t": 44571.38399999996,
      "d": 510.71377499999653,
      "v": 101
    },
    {
      "midi": 48,
      "hit": false,
      "t": 44571.38399999996,
      "d": 1239.284474999993,
      "v": 120
    },
    {
      "midi": 36,
      "hit": false,
      "t": 44571.38399999996,
      "d": 1314.2843999999895,
      "v": 120
    },
    {
      "midi": 55,
      "hit": false,
      "t": 44571.3840000002,
      "d": 139.2855750000017,
      "v": 90
    },
    {
      "midi": 43,
      "hit": false,
      "t": 44589.241125000015,
      "d": 89.2856249999968,
      "v": 73
    },
    {
      "midi": 49,
      "hit": false,
      "t": 46442.8107,
      "d": 67.8570749999999,
      "v": 89
    },
    {
      "midi": 49,
      "hit": false,
      "t": 46603.524825,
      "d": 74.99992499999644,
      "v": 89
    },
    {
      "midi": 49,
      "hit": false,
      "t": 46778.52465,
      "d": 67.8570749999999,
      "v": 72
    },
    {
      "midi": 49,
      "hit": false,
      "t": 46949.95305,
      "d": 71.4285000000018,
      "v": 76
    },
    {
      "midi": 49,
      "hit": false,
      "t": 47135.667149999994,
      "d": 67.8570749999999,
      "v": 68
    },
    {
      "midi": 49,
      "hit": false,
      "t": 47328.524099999995,
      "d": 71.4285000000018,
      "v": 76
    },
    {
      "midi": 49,
      "hit": false,
      "t": 47528.5239,
      "d": 78.57134999999835,
      "v": 72
    },
    {
      "midi": 49,
      "hit": false,
      "t": 47746.380825,
      "d": 82.14277500000026,
      "v": 76
    },
    {
      "midi": 49,
      "hit": false,
      "t": 47967.809175,
      "d": 85.71419999999489,
      "v": 68
    },
    {
      "midi": 49,
      "hit": false,
      "t": 48224.951774999994,
      "d": 78.57134999999835,
      "v": 60
    },
    {
      "midi": 49,
      "hit": false,
      "t": 48507.09434999999,
      "d": 60.71422500000335,
      "v": 49
    },
    {
      "midi": 49,
      "hit": false,
      "t": 48792.80834999999,
      "d": 67.8570749999999,
      "v": 55
    },
    {
      "midi": 49,
      "hit": false,
      "t": 49128.5223,
      "d": 57.14280000000144,
      "v": 46
    },
    {
      "midi": 49,
      "hit": false,
      "t": 49489.23622499999,
      "d": 71.42849999999453,
      "v": 53
    },
    {
      "midi": 49,
      "hit": false,
      "t": 49892.80724999999,
      "d": 89.28562500000407,
      "v": 49
    },
    {
      "midi": 49,
      "hit": false,
      "t": 50332.09252499999,
      "d": 89.2856249999968,
      "v": 50
    },
    {
      "midi": 60,
      "hit": false,
      "t": 53717.803425000064,
      "d": 49.999949999997625,
      "v": 92
    },
    {
      "midi": 60,
      "hit": false,
      "t": 53771.37480000006,
      "d": 49.999949999997625,
      "v": 96
    },
    {
      "midi": 60,
      "hit": false,
      "t": 53824.94617500006,
      "d": 49.999949999997625,
      "v": 99
    },
    {
      "midi": 60,
      "hit": false,
      "t": 53878.51755000006,
      "d": 49.999949999997625,
      "v": 92
    },
    {
      "midi": 60,
      "hit": false,
      "t": 53932.08892500006,
      "d": 49.999949999997625,
      "v": 96
    },
    {
      "midi": 60,
      "hit": false,
      "t": 53985.66030000006,
      "d": 49.999949999997625,
      "v": 92
    },
    {
      "midi": 60,
      "hit": false,
      "t": 54039.23167500006,
      "d": 49.999949999997625,
      "v": 92
    },
    {
      "midi": 60,
      "hit": false,
      "t": 54092.80305000006,
      "d": 49.999949999997625,
      "v": 98
    },
    {
      "midi": 60,
      "hit": false,
      "t": 54146.37442500006,
      "d": 49.999949999997625,
      "v": 96
    },
    {
      "midi": 60,
      "hit": false,
      "t": 54199.94580000006,
      "d": 49.999949999997625,
      "v": 94
    },
    {
      "midi": 60,
      "hit": false,
      "t": 54253.51717500006,
      "d": 49.999949999997625,
      "v": 92
    },
    {
      "midi": 60,
      "hit": false,
      "t": 54307.08855000006,
      "d": 49.999949999997625,
      "v": 97
    },
    {
      "midi": 60,
      "hit": false,
      "t": 54360.65992500006,
      "d": 49.999949999997625,
      "v": 98
    },
    {
      "midi": 60,
      "hit": false,
      "t": 54414.23130000006,
      "d": 49.999949999997625,
      "v": 82
    },
    {
      "midi": 60,
      "hit": false,
      "t": 54467.80267500006,
      "d": 49.999949999997625,
      "v": 88
    },
    {
      "midi": 60,
      "hit": false,
      "t": 54521.37405000006,
      "d": 49.999949999997625,
      "v": 82
    },
    {
      "midi": 60,
      "hit": false,
      "t": 54574.945425000056,
      "d": 49.999949999997625,
      "v": 72
    },
    {
      "midi": 60,
      "hit": false,
      "t": 54628.516800000056,
      "d": 49.999949999997625,
      "v": 72
    },
    {
      "midi": 60,
      "hit": false,
      "t": 54682.088175000055,
      "d": 49.999949999997625,
      "v": 70
    },
    {
      "midi": 60,
      "hit": false,
      "t": 54735.659550000055,
      "d": 49.999949999997625,
      "v": 72
    },
    {
      "midi": 60,
      "hit": false,
      "t": 54789.230925000054,
      "d": 49.999949999997625,
      "v": 72
    },
    {
      "midi": 60,
      "hit": false,
      "t": 54842.802300000054,
      "d": 49.999949999997625,
      "v": 71
    },
    {
      "midi": 60,
      "hit": false,
      "t": 54896.37367500005,
      "d": 49.999949999997625,
      "v": 79
    },
    {
      "midi": 60,
      "hit": false,
      "t": 54949.94505000005,
      "d": 49.999949999997625,
      "v": 76
    },
    {
      "midi": 60,
      "hit": false,
      "t": 55003.51642500005,
      "d": 4071.4244999999937,
      "v": 67
    },
    {
      "midi": 36,
      "hit": false,
      "t": 61685.65259999997,
      "d": 6889.278825000001,
      "v": 90
    },
    {
      "midi": 36,
      "hit": false,
      "t": 61714.223999999944,
      "d": 667.8564750000005,
      "v": 92
    },
    {
      "midi": 43,
      "hit": false,
      "t": 61714.223999999944,
      "d": 717.8564249999981,
      "v": 95
    },
    {
      "midi": 48,
      "hit": false,
      "t": 61714.223999999944,
      "d": 764.2849500000011,
      "v": 94
    },
    {
      "midi": 28,
      "hit": false,
      "t": 61714.22400000021,
      "d": 107.14274999999907,
      "v": 51
    },
    {
      "midi": 28,
      "hit": false,
      "t": 62142.79500000021,
      "d": 107.14274999999907,
      "v": 56
    },
    {
      "midi": 28,
      "hit": false,
      "t": 62571.366000000206,
      "d": 107.14274999999907,
      "v": 52
    },
    {
      "midi": 28,
      "hit": false,
      "t": 62999.9370000002,
      "d": 107.14274999999907,
      "v": 50
    },
    {
      "midi": 37,
      "hit": false,
      "t": 63285.6510000002,
      "d": 107.14274999999907,
      "v": 54
    },
    {
      "midi": 28,
      "hit": false,
      "t": 63428.5080000002,
      "d": 107.14274999999907,
      "v": 56
    },
    {
      "midi": 28,
      "hit": false,
      "t": 63857.079000000194,
      "d": 107.14274999999907,
      "v": 52
    },
    {
      "midi": 28,
      "hit": false,
      "t": 64285.65000000019,
      "d": 107.14274999999907,
      "v": 50
    },
    {
      "midi": 28,
      "hit": false,
      "t": 64714.22100000019,
      "d": 107.14274999999907,
      "v": 56
    },
    {
      "midi": 37,
      "hit": false,
      "t": 64999.93500000019,
      "d": 107.14274999999907,
      "v": 50
    },
    {
      "midi": 36,
      "hit": false,
      "t": 65142.79199999994,
      "d": 532.1423249999934,
      "v": 94
    },
    {
      "midi": 43,
      "hit": false,
      "t": 65142.79199999994,
      "d": 646.4279249999963,
      "v": 92
    },
    {
      "midi": 48,
      "hit": false,
      "t": 65142.79199999994,
      "d": 667.8564749999932,
      "v": 90
    },
    {
      "midi": 28,
      "hit": false,
      "t": 65142.79200000018,
      "d": 107.14274999999907,
      "v": 52
    },
    {
      "midi": 28,
      "hit": false,
      "t": 65571.36300000019,
      "d": 107.14274999999907,
      "v": 60
    },
    {
      "midi": 28,
      "hit": false,
      "t": 65999.93400000018,
      "d": 107.14274999999907,
      "v": 66
    },
    {
      "midi": 28,
      "hit": false,
      "t": 66428.50500000018,
      "d": 107.14274999999907,
      "v": 72
    },
    {
      "midi": 37,
      "hit": false,
      "t": 66714.21900000017,
      "d": 107.14274999999907,
      "v": 77
    },
    {
      "midi": 28,
      "hit": false,
      "t": 66857.07600000018,
      "d": 107.14274999999907,
      "v": 80
    },
    {
      "midi": 28,
      "hit": false,
      "t": 67285.64700000017,
      "d": 107.14274999999907,
      "v": 80
    },
    {
      "midi": 28,
      "hit": false,
      "t": 67714.21800000017,
      "d": 107.14274999999907,
      "v": 80
    },
    {
      "midi": 28,
      "hit": false,
      "t": 68142.78900000016,
      "d": 107.14274999999907,
      "v": 80
    },
    {
      "midi": 37,
      "hit": false,
      "t": 68428.50300000016,
      "d": 107.14274999999907,
      "v": 80
    },
    {
      "midi": 37,
      "hit": false,
      "t": 68542.78859999997,
      "d": 6903.564524999994,
      "v": 90
    },
    {
      "midi": 36,
      "hit": false,
      "t": 68571.35999999993,
      "d": 249.99975000000268,
      "v": 95
    },
    {
      "midi": 43,
      "hit": false,
      "t": 68571.35999999993,
      "d": 271.4282999999996,
      "v": 90
    },
    {
      "midi": 48,
      "hit": false,
      "t": 68571.35999999993,
      "d": 321.4282499999972,
      "v": 90
    },
    {
      "midi": 28,
      "hit": false,
      "t": 68571.36000000016,
      "d": 107.14274999999907,
      "v": 80
    },
    {
      "midi": 28,
      "hit": false,
      "t": 68999.93100000016,
      "d": 107.14274999999907,
      "v": 80
    },
    {
      "midi": 28,
      "hit": false,
      "t": 69428.50200000015,
      "d": 107.14274999999907,
      "v": 80
    },
    {
      "midi": 28,
      "hit": false,
      "t": 69857.07300000015,
      "d": 107.14274999999907,
      "v": 80
    },
    {
      "midi": 37,
      "hit": false,
      "t": 70142.78700000014,
      "d": 107.14274999999907,
      "v": 80
    },
    {
      "midi": 28,
      "hit": false,
      "t": 70285.64400000015,
      "d": 107.14274999999907,
      "v": 80
    },
    {
      "midi": 28,
      "hit": false,
      "t": 70714.21500000014,
      "d": 107.14274999999907,
      "v": 80
    },
    {
      "midi": 28,
      "hit": false,
      "t": 71142.78600000014,
      "d": 107.14274999999907,
      "v": 80
    },
    {
      "midi": 28,
      "hit": false,
      "t": 71571.35700000013,
      "d": 107.14274999999907,
      "v": 80
    },
    {
      "midi": 37,
      "hit": false,
      "t": 71857.07100000013,
      "d": 107.14274999999907,
      "v": 80
    },
    {
      "midi": 43,
      "hit": false,
      "t": 71999.92799999994,
      "d": 610.7136750000063,
      "v": 94
    },
    {
      "midi": 36,
      "hit": false,
      "t": 71999.92799999994,
      "d": 621.4279500000121,
      "v": 94
    },
    {
      "midi": 48,
      "hit": false,
      "t": 71999.92799999994,
      "d": 714.285000000018,
      "v": 92
    },
    {
      "midi": 28,
      "hit": false,
      "t": 71999.92800000013,
      "d": 107.14274999999907,
      "v": 80
    },
    {
      "midi": 28,
      "hit": false,
      "t": 72428.49900000013,
      "d": 107.14274999999907,
      "v": 80
    },
    {
      "midi": 28,
      "hit": false,
      "t": 72857.07000000012,
      "d": 107.14274999999907,
      "v": 80
    },
    {
      "midi": 28,
      "hit": false,
      "t": 73285.64100000012,
      "d": 107.14274999999907,
      "v": 80
    },
    {
      "midi": 37,
      "hit": false,
      "t": 73571.35500000011,
      "d": 107.14274999999907,
      "v": 80
    },
    {
      "midi": 28,
      "hit": false,
      "t": 73714.21200000012,
      "d": 107.14274999999907,
      "v": 80
    },
    {
      "midi": 28,
      "hit": false,
      "t": 74142.78300000011,
      "d": 107.14274999999907,
      "v": 80
    },
    {
      "midi": 28,
      "hit": false,
      "t": 74571.35400000011,
      "d": 107.14274999999907,
      "v": 80
    },
    {
      "midi": 28,
      "hit": false,
      "t": 74999.9250000001,
      "d": 107.14274999999907,
      "v": 80
    },
    {
      "midi": 37,
      "hit": false,
      "t": 75285.6390000001,
      "d": 107.14274999999907,
      "v": 80
    },
    {
      "midi": 39,
      "hit": false,
      "t": 75424.92457499997,
      "d": 6846.421724999993,
      "v": 90
    },
    {
      "midi": 36,
      "hit": false,
      "t": 75428.49599999996,
      "d": 242.85689999999886,
      "v": 97
    },
    {
      "midi": 43,
      "hit": false,
      "t": 75428.49599999996,
      "d": 253.5711750000046,
      "v": 97
    },
    {
      "midi": 48,
      "hit": false,
      "t": 75428.49599999996,
      "d": 253.5711750000046,
      "v": 97
    },
    {
      "midi": 28,
      "hit": false,
      "t": 75428.4960000001,
      "d": 107.14274999999907,
      "v": 80
    },
    {
      "midi": 28,
      "hit": false,
      "t": 75857.0670000001,
      "d": 107.14274999999907,
      "v": 80
    },
    {
      "midi": 28,
      "hit": false,
      "t": 76285.6380000001,
      "d": 107.14274999999907,
      "v": 80
    },
    {
      "midi": 28,
      "hit": false,
      "t": 76714.20900000009,
      "d": 107.14274999999907,
      "v": 80
    },
    {
      "midi": 37,
      "hit": false,
      "t": 76999.92300000008,
      "d": 107.14274999999907,
      "v": 80
    },
    {
      "midi": 28,
      "hit": false,
      "t": 77142.78000000009,
      "d": 107.14274999999907,
      "v": 80
    },
    {
      "midi": 72,
      "hit": false,
      "t": 77342.77980000006,
      "d": 49.999949999997625,
      "v": 88
    },
    {
      "midi": 72,
      "hit": false,
      "t": 77396.35117500006,
      "d": 49.999949999997625,
      "v": 86
    },
    {
      "midi": 72,
      "hit": false,
      "t": 77449.92255000006,
      "d": 49.999949999997625,
      "v": 84
    },
    {
      "midi": 72,
      "hit": false,
      "t": 77503.49392500006,
      "d": 49.999949999997625,
      "v": 82
    },
    {
      "midi": 72,
      "hit": false,
      "t": 77557.06530000006,
      "d": 49.999949999997625,
      "v": 87
    },
    {
      "midi": 28,
      "hit": false,
      "t": 77571.35100000008,
      "d": 107.14274999999907,
      "v": 80
    },
    {
      "midi": 72,
      "hit": false,
      "t": 77610.63667500006,
      "d": 49.999949999997625,
      "v": 88
    },
    {
      "midi": 72,
      "hit": false,
      "t": 77664.20805000006,
      "d": 49.999949999997625,
      "v": 72
    },
    {
      "midi": 72,
      "hit": false,
      "t": 77717.77942500006,
      "d": 49.999949999997625,
      "v": 78
    },
    {
      "midi": 72,
      "hit": false,
      "t": 77771.35080000006,
      "d": 49.999949999997625,
      "v": 72
    },
    {
      "midi": 72,
      "hit": false,
      "t": 77824.92217500006,
      "d": 49.999949999997625,
      "v": 62
    },
    {
      "midi": 72,
      "hit": false,
      "t": 77878.49355000006,
      "d": 49.999949999997625,
      "v": 62
    },
    {
      "midi": 72,
      "hit": false,
      "t": 77932.06492500006,
      "d": 49.999949999997625,
      "v": 60
    },
    {
      "midi": 72,
      "hit": false,
      "t": 77985.63630000006,
      "d": 49.999949999997625,
      "v": 62
    },
    {
      "midi": 28,
      "hit": false,
      "t": 77999.92200000008,
      "d": 107.14274999999907,
      "v": 80
    },
    {
      "midi": 72,
      "hit": false,
      "t": 78039.20767500006,
      "d": 49.999949999997625,
      "v": 62
    },
    {
      "midi": 72,
      "hit": false,
      "t": 78092.77905000006,
      "d": 49.999949999997625,
      "v": 61
    },
    {
      "midi": 72,
      "hit": false,
      "t": 78146.35042500006,
      "d": 21.428549999996903,
      "v": 69
    },
    {
      "midi": 72,
      "hit": false,
      "t": 78199.92180000005,
      "d": 17.857124999994994,
      "v": 66
    },
    {
      "midi": 72,
      "hit": false,
      "t": 78271.35030000005,
      "d": 4071.4245000000083,
      "v": 68
    },
    {
      "midi": 28,
      "hit": false,
      "t": 78428.49300000007,
      "d": 107.14274999999907,
      "v": 80
    },
    {
      "midi": 37,
      "hit": false,
      "t": 78714.20700000007,
      "d": 107.14274999999907,
      "v": 80
    },
    {
      "midi": 43,
      "hit": false,
      "t": 78857.06399999997,
      "d": 678.570749999999,
      "v": 90
    },
    {
      "midi": 36,
      "hit": false,
      "t": 78857.06399999997,
      "d": 678.570749999999,
      "v": 95
    },
    {
      "midi": 48,
      "hit": false,
      "t": 78857.06399999997,
      "d": 696.427874999994,
      "v": 90
    },
    {
      "midi": 28,
      "hit": false,
      "t": 78857.06400000007,
      "d": 107.14274999999907,
      "v": 80
    },
    {
      "midi": 28,
      "hit": false,
      "t": 79285.63500000007,
      "d": 107.14274999999907,
      "v": 80
    },
    {
      "midi": 28,
      "hit": false,
      "t": 79714.20600000006,
      "d": 107.14274999999907,
      "v": 80
    },
    {
      "midi": 28,
      "hit": false,
      "t": 80142.77700000006,
      "d": 107.14274999999907,
      "v": 120
    },
    {
      "midi": 37,
      "hit": false,
      "t": 80428.49100000005,
      "d": 107.14274999999907,
      "v": 120
    },
    {
      "midi": 28,
      "hit": false,
      "t": 80571.34800000006,
      "d": 107.14274999999907,
      "v": 120
    },
    {
      "midi": 25,
      "hit": false,
      "t": 80857.06200000005,
      "d": 107.14274999999907,
      "v": 80
    },
    {
      "midi": 28,
      "hit": false,
      "t": 80999.91900000005,
      "d": 107.14274999999907,
      "v": 90
    },
    {
      "midi": 25,
      "hit": false,
      "t": 81285.63300000005,
      "d": 107.14274999999907,
      "v": 80
    },
    {
      "midi": 28,
      "hit": false,
      "t": 81428.49000000005,
      "d": 107.14274999999907,
      "v": 90
    },
    {
      "midi": 27,
      "hit": false,
      "t": 81428.49000000005,
      "d": 107.14274999999907,
      "v": 80
    },
    {
      "midi": 25,
      "hit": false,
      "t": 81714.20400000004,
      "d": 107.14274999999907,
      "v": 80
    },
    {
      "midi": 28,
      "hit": false,
      "t": 81857.06100000005,
      "d": 107.14274999999907,
      "v": 120
    },
    {
      "midi": 25,
      "hit": false,
      "t": 82142.77500000004,
      "d": 107.14274999999907,
      "v": 120
    },
    {
      "midi": 36,
      "hit": false,
      "t": 82274.91772499996,
      "d": 10267.846875000003,
      "v": 90
    },
    {
      "midi": 43,
      "hit": false,
      "t": 82285.63199999997,
      "d": 646.4279249999963,
      "v": 98
    },
    {
      "midi": 48,
      "hit": false,
      "t": 82285.63199999997,
      "d": 657.142200000002,
      "v": 90
    },
    {
      "midi": 36,
      "hit": false,
      "t": 82285.63199999997,
      "d": 742.8564000000042,
      "v": 97
    },
    {
      "midi": 28,
      "hit": false,
      "t": 82285.63200000004,
      "d": 107.14274999999907,
      "v": 120
    },
    {
      "midi": 25,
      "hit": false,
      "t": 82571.34600000003,
      "d": 107.14274999999907,
      "v": 80
    },
    {
      "midi": 28,
      "hit": false,
      "t": 82714.20300000004,
      "d": 107.14274999999907,
      "v": 90
    },
    {
      "midi": 25,
      "hit": false,
      "t": 82999.91700000003,
      "d": 107.14274999999907,
      "v": 80
    },
    {
      "midi": 28,
      "hit": false,
      "t": 83142.77400000003,
      "d": 107.14274999999907,
      "v": 90
    },
    {
      "midi": 25,
      "hit": false,
      "t": 83428.48800000003,
      "d": 107.14274999999907,
      "v": 80
    },
    {
      "midi": 28,
      "hit": false,
      "t": 83571.34500000003,
      "d": 107.14274999999907,
      "v": 90
    },
    {
      "midi": 13,
      "hit": false,
      "t": 83857.05900000002,
      "d": 107.14274999999907,
      "v": 120
    },
    {
      "midi": 28,
      "hit": false,
      "t": 83999.91600000003,
      "d": 107.14274999999907,
      "v": 120
    },
    {
      "midi": 46,
      "hit": false,
      "t": 84142.77300000003,
      "d": 107.14274999999907,
      "v": 80
    },
    {
      "midi": 46,
      "hit": false,
      "t": 84285.63000000003,
      "d": 107.14274999999907,
      "v": 80
    },
    {
      "midi": 28,
      "hit": false,
      "t": 84428.48700000004,
      "d": 107.14274999999907,
      "v": 120
    },
    {
      "midi": 48,
      "hit": false,
      "t": 84428.48700000004,
      "d": 107.14274999999907,
      "v": 80
    },
    {
      "midi": 46,
      "hit": false,
      "t": 84571.34400000004,
      "d": 107.14274999999907,
      "v": 80
    },
    {
      "midi": 46,
      "hit": false,
      "t": 84714.20100000004,
      "d": 107.14274999999907,
      "v": 80
    },
    {
      "midi": 28,
      "hit": false,
      "t": 84857.05800000005,
      "d": 107.14274999999907,
      "v": 120
    },
    {
      "midi": 48,
      "hit": false,
      "t": 84857.05800000005,
      "d": 107.14274999999907,
      "v": 80
    },
    {
      "midi": 46,
      "hit": false,
      "t": 84999.91500000005,
      "d": 107.14274999999907,
      "v": 80
    },
    {
      "midi": 46,
      "hit": false,
      "t": 85142.77200000006,
      "d": 107.14274999999907,
      "v": 80
    },
    {
      "midi": 28,
      "hit": false,
      "t": 85285.62900000006,
      "d": 107.14274999999907,
      "v": 120
    },
    {
      "midi": 48,
      "hit": false,
      "t": 85285.62900000006,
      "d": 107.14274999999907,
      "v": 80
    },
    {
      "midi": 46,
      "hit": false,
      "t": 85428.48600000006,
      "d": 107.14274999999907,
      "v": 80
    },
    {
      "midi": 39,
      "hit": false,
      "t": 85571.34300000007,
      "d": 107.14274999999907,
      "v": 120
    },
    {
      "midi": 46,
      "hit": false,
      "t": 85571.34300000007,
      "d": 107.14274999999907,
      "v": 80
    },
    {
      "midi": 48,
      "hit": false,
      "t": 85714.19999999997,
      "d": 664.2850500000059,
      "v": 92
    },
    {
      "midi": 36,
      "hit": false,
      "t": 85714.19999999997,
      "d": 746.4278250000061,
      "v": 97
    },
    {
      "midi": 43,
      "hit": false,
      "t": 85714.19999999997,
      "d": 760.7135249999992,
      "v": 96
    },
    {
      "midi": 28,
      "hit": false,
      "t": 85714.20000000007,
      "d": 107.14274999999907,
      "v": 120
    },
    {
      "midi": 48,
      "hit": false,
      "t": 85714.20000000007,
      "d": 107.14274999999907,
      "v": 80
    },
    {
      "midi": 46,
      "hit": false,
      "t": 85857.05700000007,
      "d": 107.14274999999907,
      "v": 80
    },
    {
      "midi": 46,
      "hit": false,
      "t": 85999.91400000008,
      "d": 107.14274999999907,
      "v": 80
    },
    {
      "midi": 28,
      "hit": false,
      "t": 86142.77100000008,
      "d": 107.14274999999907,
      "v": 90
    },
    {
      "midi": 48,
      "hit": false,
      "t": 86142.77100000008,
      "d": 107.14274999999907,
      "v": 80
    },
    {
      "midi": 46,
      "hit": false,
      "t": 86285.62800000008,
      "d": 107.14274999999907,
      "v": 80
    },
    {
      "midi": 46,
      "hit": false,
      "t": 86428.48500000009,
      "d": 107.14274999999907,
      "v": 80
    },
    {
      "midi": 28,
      "hit": false,
      "t": 86571.34200000009,
      "d": 107.14274999999907,
      "v": 90
    },
    {
      "midi": 48,
      "hit": false,
      "t": 86571.34200000009,
      "d": 107.14274999999907,
      "v": 80
    },
    {
      "midi": 46,
      "hit": false,
      "t": 86714.1990000001,
      "d": 107.14274999999907,
      "v": 80
    },
    {
      "midi": 46,
      "hit": false,
      "t": 86857.0560000001,
      "d": 107.14274999999907,
      "v": 80
    },
    {
      "midi": 28,
      "hit": false,
      "t": 86999.9130000001,
      "d": 107.14274999999907,
      "v": 120
    },
    {
      "midi": 48,
      "hit": false,
      "t": 86999.9130000001,
      "d": 107.14274999999907,
      "v": 80
    },
    {
      "midi": 46,
      "hit": false,
      "t": 87142.7700000001,
      "d": 107.14274999999907,
      "v": 80
    },
    {
      "midi": 39,
      "hit": false,
      "t": 87285.62700000011,
      "d": 107.14274999999907,
      "v": 120
    },
    {
      "midi": 46,
      "hit": false,
      "t": 87285.62700000011,
      "d": 107.14274999999907,
      "v": 80
    },
    {
      "midi": 28,
      "hit": false,
      "t": 87428.48400000011,
      "d": 107.14274999999907,
      "v": 120
    },
    {
      "midi": 48,
      "hit": false,
      "t": 87428.48400000011,
      "d": 107.14274999999907,
      "v": 80
    },
    {
      "midi": 46,
      "hit": false,
      "t": 87571.34100000012,
      "d": 107.14274999999907,
      "v": 80
    },
    {
      "midi": 46,
      "hit": false,
      "t": 87714.19800000012,
      "d": 107.14274999999907,
      "v": 80
    },
    {
      "midi": 28,
      "hit": false,
      "t": 87857.05500000012,
      "d": 107.14274999999907,
      "v": 90
    },
    {
      "midi": 48,
      "hit": false,
      "t": 87857.05500000012,
      "d": 107.14274999999907,
      "v": 80
    },
    {
      "midi": 46,
      "hit": false,
      "t": 87999.91200000013,
      "d": 107.14274999999907,
      "v": 80
    },
    {
      "midi": 46,
      "hit": false,
      "t": 88142.76900000013,
      "d": 107.14274999999907,
      "v": 80
    },
    {
      "midi": 28,
      "hit": false,
      "t": 88285.62600000013,
      "d": 107.14274999999907,
      "v": 90
    },
    {
      "midi": 48,
      "hit": false,
      "t": 88285.62600000013,
      "d": 107.14274999999907,
      "v": 80
    },
    {
      "midi": 46,
      "hit": false,
      "t": 88428.48300000014,
      "d": 107.14274999999907,
      "v": 80
    },
    {
      "midi": 46,
      "hit": false,
      "t": 88571.34000000014,
      "d": 107.14274999999907,
      "v": 80
    },
    {
      "midi": 28,
      "hit": false,
      "t": 88714.19700000015,
      "d": 107.14274999999907,
      "v": 120
    },
    {
      "midi": 48,
      "hit": false,
      "t": 88714.19700000015,
      "d": 107.14274999999907,
      "v": 80
    },
    {
      "midi": 46,
      "hit": false,
      "t": 88857.05400000015,
      "d": 107.14274999999907,
      "v": 80
    },
    {
      "midi": 39,
      "hit": false,
      "t": 88999.91100000015,
      "d": 107.14274999999907,
      "v": 120
    },
    {
      "midi": 46,
      "hit": false,
      "t": 88999.91100000015,
      "d": 107.14274999999907,
      "v": 80
    },
    {
      "midi": 36,
      "hit": false,
      "t": 89142.76799999997,
      "d": 203.57122500000696,
      "v": 97
    },
    {
      "midi": 48,
      "hit": false,
      "t": 89142.76799999997,
      "d": 321.42825000001176,
      "v": 97
    },
    {
      "midi": 43,
      "hit": false,
      "t": 89142.76799999997,
      "d": 414.28530000001774,
      "v": 90
    },
    {
      "midi": 28,
      "hit": false,
      "t": 89142.76800000016,
      "d": 107.14274999999907,
      "v": 120
    },
    {
      "midi": 48,
      "hit": false,
      "t": 89142.76800000016,
      "d": 107.14274999999907,
      "v": 80
    },
    {
      "midi": 46,
      "hit": false,
      "t": 89285.62500000016,
      "d": 107.14274999999907,
      "v": 80
    },
    {
      "midi": 46,
      "hit": false,
      "t": 89428.48200000016,
      "d": 107.14274999999907,
      "v": 80
    },
    {
      "midi": 28,
      "hit": false,
      "t": 89571.33900000017,
      "d": 107.14274999999907,
      "v": 120
    },
    {
      "midi": 48,
      "hit": false,
      "t": 89571.33900000017,
      "d": 107.14274999999907,
      "v": 80
    },
    {
      "midi": 46,
      "hit": false,
      "t": 89714.19600000017,
      "d": 107.14274999999907,
      "v": 80
    },
    {
      "midi": 46,
      "hit": false,
      "t": 89857.05300000017,
      "d": 107.14274999999907,
      "v": 80
    },
    {
      "midi": 28,
      "hit": false,
      "t": 89999.91000000018,
      "d": 107.14274999999907,
      "v": 120
    },
    {
      "midi": 48,
      "hit": false,
      "t": 89999.91000000018,
      "d": 107.14274999999907,
      "v": 80
    },
    {
      "midi": 46,
      "hit": false,
      "t": 90142.76700000018,
      "d": 107.14274999999907,
      "v": 80
    },
    {
      "midi": 46,
      "hit": false,
      "t": 90285.62400000019,
      "d": 107.14274999999907,
      "v": 80
    },
    {
      "midi": 28,
      "hit": false,
      "t": 90428.48100000019,
      "d": 107.14274999999907,
      "v": 120
    },
    {
      "midi": 48,
      "hit": false,
      "t": 90428.48100000019,
      "d": 107.14274999999907,
      "v": 80
    },
    {
      "midi": 46,
      "hit": false,
      "t": 90571.33800000019,
      "d": 107.14274999999907,
      "v": 80
    },
    {
      "midi": 39,
      "hit": false,
      "t": 90714.1950000002,
      "d": 107.14274999999907,
      "v": 120
    },
    {
      "midi": 46,
      "hit": false,
      "t": 90714.1950000002,
      "d": 107.14274999999907,
      "v": 80
    },
    {
      "midi": 28,
      "hit": false,
      "t": 90857.0520000002,
      "d": 107.14274999999907,
      "v": 120
    },
    {
      "midi": 48,
      "hit": false,
      "t": 90857.0520000002,
      "d": 107.14274999999907,
      "v": 80
    },
    {
      "midi": 46,
      "hit": false,
      "t": 90999.9090000002,
      "d": 107.14274999999907,
      "v": 80
    },
    {
      "midi": 46,
      "hit": false,
      "t": 91142.7660000002,
      "d": 107.14274999999907,
      "v": 80
    },
    {
      "midi": 28,
      "hit": false,
      "t": 91285.62300000021,
      "d": 107.14274999999907,
      "v": 120
    },
    {
      "midi": 48,
      "hit": false,
      "t": 91285.62300000021,
      "d": 107.14274999999907,
      "v": 80
    },
    {
      "midi": 46,
      "hit": false,
      "t": 91428.48000000021,
      "d": 107.14274999999907,
      "v": 80
    },
    {
      "midi": 46,
      "hit": false,
      "t": 91571.33700000022,
      "d": 107.14274999999907,
      "v": 80
    },
    {
      "midi": 28,
      "hit": false,
      "t": 91714.19400000022,
      "d": 107.14274999999907,
      "v": 120
    },
    {
      "midi": 48,
      "hit": false,
      "t": 91714.19400000022,
      "d": 107.14274999999907,
      "v": 80
    },
    {
      "midi": 46,
      "hit": false,
      "t": 91857.05100000023,
      "d": 107.14274999999907,
      "v": 80
    },
    {
      "midi": 46,
      "hit": false,
      "t": 91999.90800000023,
      "d": 107.14274999999907,
      "v": 80
    },
    {
      "midi": 28,
      "hit": false,
      "t": 92142.76500000023,
      "d": 107.14274999999907,
      "v": 120
    },
    {
      "midi": 48,
      "hit": false,
      "t": 92142.76500000023,
      "d": 107.14274999999907,
      "v": 80
    },
    {
      "midi": 46,
      "hit": false,
      "t": 92285.62200000024,
      "d": 107.14274999999907,
      "v": 80
    },
    {
      "midi": 39,
      "hit": false,
      "t": 92428.47900000024,
      "d": 107.14274999999907,
      "v": 120
    },
    {
      "midi": 46,
      "hit": false,
      "t": 92428.47900000024,
      "d": 107.14274999999907,
      "v": 80
    },
    {
      "midi": 37,
      "hit": false,
      "t": 92546.33602499997,
      "d": 6839.278875000004,
      "v": 90
    },
    {
      "midi": 43,
      "hit": false,
      "t": 92571.33599999998,
      "d": 721.4278500000073,
      "v": 98
    },
    {
      "midi": 36,
      "hit": false,
      "t": 92571.33599999998,
      "d": 721.4278500000073,
      "v": 92
    },
    {
      "midi": 48,
      "hit": false,
      "t": 92571.33599999998,
      "d": 728.5707000000111,
      "v": 94
    },
    {
      "midi": 28,
      "hit": false,
      "t": 92571.33600000024,
      "d": 107.14274999999907,
      "v": 120
    },
    {
      "midi": 48,
      "hit": false,
      "t": 92571.33600000024,
      "d": 107.14274999999907,
      "v": 80
    },
    {
      "midi": 46,
      "hit": false,
      "t": 92714.19300000025,
      "d": 107.14274999999907,
      "v": 80
    },
    {
      "midi": 46,
      "hit": false,
      "t": 92857.05000000025,
      "d": 107.14274999999907,
      "v": 80
    },
    {
      "midi": 28,
      "hit": false,
      "t": 92999.90700000025,
      "d": 107.14274999999907,
      "v": 120
    },
    {
      "midi": 48,
      "hit": false,
      "t": 92999.90700000025,
      "d": 107.14274999999907,
      "v": 80
    },
    {
      "midi": 46,
      "hit": false,
      "t": 93142.76400000026,
      "d": 107.14274999999907,
      "v": 80
    },
    {
      "midi": 46,
      "hit": false,
      "t": 93285.62100000026,
      "d": 107.14274999999907,
      "v": 80
    },
    {
      "midi": 28,
      "hit": false,
      "t": 93428.47800000026,
      "d": 107.14274999999907,
      "v": 120
    },
    {
      "midi": 48,
      "hit": false,
      "t": 93428.47800000026,
      "d": 107.14274999999907,
      "v": 80
    },
    {
      "midi": 46,
      "hit": false,
      "t": 93571.33500000027,
      "d": 107.14274999999907,
      "v": 80
    },
    {
      "midi": 46,
      "hit": false,
      "t": 93714.19200000027,
      "d": 107.14274999999907,
      "v": 80
    },
    {
      "midi": 28,
      "hit": false,
      "t": 93857.04900000028,
      "d": 107.14274999999907,
      "v": 120
    },
    {
      "midi": 48,
      "hit": false,
      "t": 93857.04900000028,
      "d": 107.14274999999907,
      "v": 80
    },
    {
      "midi": 46,
      "hit": false,
      "t": 93999.90600000028,
      "d": 107.14274999999907,
      "v": 80
    },
    {
      "midi": 39,
      "hit": false,
      "t": 94142.76300000028,
      "d": 107.14274999999907,
      "v": 120
    },
    {
      "midi": 46,
      "hit": false,
      "t": 94142.76300000028,
      "d": 107.14274999999907,
      "v": 80
    },
    {
      "midi": 28,
      "hit": false,
      "t": 94285.62000000029,
      "d": 107.14274999999907,
      "v": 120
    },
    {
      "midi": 48,
      "hit": false,
      "t": 94285.62000000029,
      "d": 107.14274999999907,
      "v": 80
    },
    {
      "midi": 46,
      "hit": false,
      "t": 94428.47700000029,
      "d": 107.14274999999907,
      "v": 80
    },
    {
      "midi": 46,
      "hit": false,
      "t": 94571.3340000003,
      "d": 107.14274999999907,
      "v": 80
    },
    {
      "midi": 28,
      "hit": false,
      "t": 94714.1910000003,
      "d": 107.14274999999907,
      "v": 120
    },
    {
      "midi": 48,
      "hit": false,
      "t": 94714.1910000003,
      "d": 107.14274999999907,
      "v": 80
    },
    {
      "midi": 46,
      "hit": false,
      "t": 94857.0480000003,
      "d": 107.14274999999907,
      "v": 80
    },
    {
      "midi": 46,
      "hit": false,
      "t": 94999.9050000003,
      "d": 107.14274999999907,
      "v": 80
    },
    {
      "midi": 28,
      "hit": false,
      "t": 95142.76200000031,
      "d": 107.14274999999907,
      "v": 120
    },
    {
      "midi": 48,
      "hit": false,
      "t": 95142.76200000031,
      "d": 107.14274999999907,
      "v": 80
    },
    {
      "midi": 46,
      "hit": false,
      "t": 95285.61900000031,
      "d": 107.14274999999907,
      "v": 80
    },
    {
      "midi": 46,
      "hit": false,
      "t": 95428.47600000032,
      "d": 107.14274999999907,
      "v": 80
    },
    {
      "midi": 28,
      "hit": false,
      "t": 95571.33300000032,
      "d": 107.14274999999907,
      "v": 120
    },
    {
      "midi": 48,
      "hit": false,
      "t": 95571.33300000032,
      "d": 107.14274999999907,
      "v": 80
    },
    {
      "midi": 46,
      "hit": false,
      "t": 95714.19000000032,
      "d": 107.14274999999907,
      "v": 80
    },
    {
      "midi": 39,
      "hit": false,
      "t": 95857.04700000033,
      "d": 107.14274999999907,
      "v": 120
    },
    {
      "midi": 46,
      "hit": false,
      "t": 95857.04700000033,
      "d": 107.14274999999907,
      "v": 80
    },
    {
      "midi": 36,
      "hit": false,
      "t": 95999.904,
      "d": 274.9997250000015,
      "v": 97
    },
    {
      "midi": 43,
      "hit": false,
      "t": 95999.904,
      "d": 292.8568499999965,
      "v": 92
    },
    {
      "midi": 48,
      "hit": false,
      "t": 95999.904,
      "d": 292.8568499999965,
      "v": 97
    },
    {
      "midi": 28,
      "hit": false,
      "t": 95999.90400000033,
      "d": 107.14274999999907,
      "v": 120
    },
    {
      "midi": 48,
      "hit": false,
      "t": 95999.90400000033,
      "d": 107.14274999999907,
      "v": 80
    },
    {
      "midi": 46,
      "hit": false,
      "t": 96142.76100000033,
      "d": 107.14274999999907,
      "v": 80
    },
    {
      "midi": 46,
      "hit": false,
      "t": 96285.61800000034,
      "d": 107.14274999999907,
      "v": 80
    },
    {
      "midi": 28,
      "hit": false,
      "t": 96428.47500000034,
      "d": 107.14274999999907,
      "v": 120
    },
    {
      "midi": 48,
      "hit": false,
      "t": 96428.47500000034,
      "d": 107.14274999999907,
      "v": 80
    },
    {
      "midi": 46,
      "hit": false,
      "t": 96571.33200000034,
      "d": 107.14274999999907,
      "v": 80
    },
    {
      "midi": 46,
      "hit": false,
      "t": 96714.18900000035,
      "d": 107.14274999999907,
      "v": 80
    },
    {
      "midi": 28,
      "hit": false,
      "t": 96857.04600000035,
      "d": 107.14274999999907,
      "v": 120
    },
    {
      "midi": 48,
      "hit": false,
      "t": 96857.04600000035,
      "d": 107.14274999999907,
      "v": 80
    },
    {
      "midi": 46,
      "hit": false,
      "t": 96999.90300000035,
      "d": 107.14274999999907,
      "v": 80
    },
    {
      "midi": 46,
      "hit": false,
      "t": 97142.76000000036,
      "d": 107.14274999999907,
      "v": 80
    },
    {
      "midi": 28,
      "hit": false,
      "t": 97285.61700000036,
      "d": 107.14274999999907,
      "v": 120
    },
    {
      "midi": 48,
      "hit": false,
      "t": 97285.61700000036,
      "d": 107.14274999999907,
      "v": 80
    },
    {
      "midi": 46,
      "hit": false,
      "t": 97428.47400000037,
      "d": 107.14274999999907,
      "v": 80
    },
    {
      "midi": 39,
      "hit": false,
      "t": 97571.33100000037,
      "d": 107.14274999999907,
      "v": 120
    },
    {
      "midi": 46,
      "hit": false,
      "t": 97571.33100000037,
      "d": 107.14274999999907,
      "v": 80
    },
    {
      "midi": 28,
      "hit": false,
      "t": 97714.18800000037,
      "d": 107.14274999999907,
      "v": 120
    },
    {
      "midi": 48,
      "hit": false,
      "t": 97714.18800000037,
      "d": 107.14274999999907,
      "v": 80
    },
    {
      "midi": 46,
      "hit": false,
      "t": 97857.04500000038,
      "d": 107.14274999999907,
      "v": 80
    },
    {
      "midi": 46,
      "hit": false,
      "t": 97999.90200000038,
      "d": 107.14274999999907,
      "v": 80
    },
    {
      "midi": 28,
      "hit": false,
      "t": 98142.75900000038,
      "d": 107.14274999999907,
      "v": 120
    },
    {
      "midi": 48,
      "hit": false,
      "t": 98142.75900000038,
      "d": 107.14274999999907,
      "v": 80
    },
    {
      "midi": 46,
      "hit": false,
      "t": 98285.61600000039,
      "d": 107.14274999999907,
      "v": 80
    },
    {
      "midi": 46,
      "hit": false,
      "t": 98428.47300000039,
      "d": 107.14274999999907,
      "v": 80
    },
    {
      "midi": 28,
      "hit": false,
      "t": 98571.3300000004,
      "d": 107.14274999999907,
      "v": 120
    },
    {
      "midi": 48,
      "hit": false,
      "t": 98571.3300000004,
      "d": 107.14274999999907,
      "v": 80
    },
    {
      "midi": 46,
      "hit": false,
      "t": 98714.1870000004,
      "d": 107.14274999999907,
      "v": 80
    },
    {
      "midi": 46,
      "hit": false,
      "t": 98857.0440000004,
      "d": 107.14274999999907,
      "v": 80
    },
    {
      "midi": 28,
      "hit": false,
      "t": 98999.9010000004,
      "d": 107.14274999999907,
      "v": 120
    },
    {
      "midi": 48,
      "hit": false,
      "t": 98999.9010000004,
      "d": 107.14274999999907,
      "v": 80
    },
    {
      "midi": 46,
      "hit": false,
      "t": 99142.75800000041,
      "d": 107.14274999999907,
      "v": 80
    },
    {
      "midi": 39,
      "hit": false,
      "t": 99285.61500000041,
      "d": 107.14274999999907,
      "v": 120
    },
    {
      "midi": 46,
      "hit": false,
      "t": 99285.61500000041,
      "d": 107.14274999999907,
      "v": 80
    },
    {
      "midi": 39,
      "hit": false,
      "t": 99378.47204999997,
      "d": 6882.135974999997,
      "v": 90
    },
    {
      "midi": 36,
      "hit": false,
      "t": 99428.472,
      "d": 696.427874999994,
      "v": 97
    },
    {
      "midi": 43,
      "hit": false,
      "t": 99428.472,
      "d": 707.1421499999997,
      "v": 90
    },
    {
      "midi": 48,
      "hit": false,
      "t": 99428.472,
      "d": 717.8564250000054,
      "v": 92
    },
    {
      "midi": 28,
      "hit": false,
      "t": 99428.47200000042,
      "d": 107.14274999999907,
      "v": 120
    },
    {
      "midi": 48,
      "hit": false,
      "t": 99428.47200000042,
      "d": 107.14274999999907,
      "v": 80
    },
    {
      "midi": 46,
      "hit": false,
      "t": 99571.32900000042,
      "d": 107.14274999999907,
      "v": 80
    },
    {
      "midi": 46,
      "hit": false,
      "t": 99714.18600000042,
      "d": 107.14274999999907,
      "v": 80
    },
    {
      "midi": 28,
      "hit": false,
      "t": 99857.04300000043,
      "d": 107.14274999999907,
      "v": 120
    },
    {
      "midi": 48,
      "hit": false,
      "t": 99857.04300000043,
      "d": 107.14274999999907,
      "v": 80
    },
    {
      "midi": 46,
      "hit": false,
      "t": 99999.90000000043,
      "d": 107.14274999999907,
      "v": 80
    },
    {
      "midi": 46,
      "hit": false,
      "t": 100142.75700000043,
      "d": 107.14274999999907,
      "v": 80
    },
    {
      "midi": 28,
      "hit": false,
      "t": 100285.61400000044,
      "d": 107.14274999999907,
      "v": 120
    },
    {
      "midi": 48,
      "hit": false,
      "t": 100285.61400000044,
      "d": 107.14274999999907,
      "v": 80
    },
    {
      "midi": 46,
      "hit": false,
      "t": 100428.47100000044,
      "d": 107.14274999999907,
      "v": 80
    },
    {
      "midi": 46,
      "hit": false,
      "t": 100571.32800000045,
      "d": 107.14274999999907,
      "v": 80
    },
    {
      "midi": 28,
      "hit": false,
      "t": 100714.18500000045,
      "d": 107.14274999999907,
      "v": 120
    },
    {
      "midi": 48,
      "hit": false,
      "t": 100714.18500000045,
      "d": 107.14274999999907,
      "v": 80
    },
    {
      "midi": 46,
      "hit": false,
      "t": 100857.04200000045,
      "d": 107.14274999999907,
      "v": 80
    },
    {
      "midi": 39,
      "hit": false,
      "t": 100999.89900000046,
      "d": 107.14274999999907,
      "v": 120
    },
    {
      "midi": 46,
      "hit": false,
      "t": 100999.89900000046,
      "d": 107.14274999999907,
      "v": 80
    },
    {
      "midi": 28,
      "hit": false,
      "t": 101142.75600000046,
      "d": 107.14274999999907,
      "v": 120
    },
    {
      "midi": 48,
      "hit": false,
      "t": 101142.75600000046,
      "d": 107.14274999999907,
      "v": 80
    },
    {
      "midi": 46,
      "hit": false,
      "t": 101285.61300000046,
      "d": 107.14274999999907,
      "v": 80
    },
    {
      "midi": 46,
      "hit": false,
      "t": 101428.47000000047,
      "d": 107.14274999999907,
      "v": 80
    },
    {
      "midi": 28,
      "hit": false,
      "t": 101571.32700000047,
      "d": 107.14274999999907,
      "v": 120
    },
    {
      "midi": 48,
      "hit": false,
      "t": 101571.32700000047,
      "d": 107.14274999999907,
      "v": 80
    },
    {
      "midi": 46,
      "hit": false,
      "t": 101714.18400000047,
      "d": 107.14274999999907,
      "v": 80
    },
    {
      "midi": 46,
      "hit": false,
      "t": 101857.04100000048,
      "d": 107.14274999999907,
      "v": 80
    },
    {
      "midi": 28,
      "hit": false,
      "t": 101999.89800000048,
      "d": 107.14274999999907,
      "v": 120
    },
    {
      "midi": 48,
      "hit": false,
      "t": 101999.89800000048,
      "d": 107.14274999999907,
      "v": 80
    },
    {
      "midi": 46,
      "hit": false,
      "t": 102142.75500000048,
      "d": 107.14274999999907,
      "v": 80
    },
    {
      "midi": 46,
      "hit": false,
      "t": 102285.61200000049,
      "d": 107.14274999999907,
      "v": 80
    },
    {
      "midi": 28,
      "hit": false,
      "t": 102428.46900000049,
      "d": 107.14274999999907,
      "v": 120
    },
    {
      "midi": 48,
      "hit": false,
      "t": 102428.46900000049,
      "d": 107.14274999999907,
      "v": 80
    },
    {
      "midi": 46,
      "hit": false,
      "t": 102571.3260000005,
      "d": 107.14274999999907,
      "v": 80
    },
    {
      "midi": 39,
      "hit": false,
      "t": 102714.1830000005,
      "d": 107.14274999999907,
      "v": 120
    },
    {
      "midi": 46,
      "hit": false,
      "t": 102714.1830000005,
      "d": 107.14274999999907,
      "v": 80
    },
    {
      "midi": 36,
      "hit": false,
      "t": 102857.04,
      "d": 282.1425750000053,
      "v": 97
    },
    {
      "midi": 43,
      "hit": false,
      "t": 102857.04,
      "d": 296.4282749999984,
      "v": 90
    },
    {
      "midi": 48,
      "hit": false,
      "t": 102857.04,
      "d": 314.2853999999934,
      "v": 97
    },
    {
      "midi": 28,
      "hit": false,
      "t": 102857.0400000005,
      "d": 107.14274999999907,
      "v": 120
    },
    {
      "midi": 48,
      "hit": false,
      "t": 102857.0400000005,
      "d": 107.14274999999907,
      "v": 80
    },
    {
      "midi": 46,
      "hit": false,
      "t": 102999.8970000005,
      "d": 107.14274999999907,
      "v": 80
    },
    {
      "midi": 46,
      "hit": false,
      "t": 103142.75400000051,
      "d": 107.14274999999907,
      "v": 80
    },
    {
      "midi": 28,
      "hit": false,
      "t": 103285.61100000051,
      "d": 107.14274999999907,
      "v": 120
    },
    {
      "midi": 48,
      "hit": false,
      "t": 103285.61100000051,
      "d": 107.14274999999907,
      "v": 80
    },
    {
      "midi": 46,
      "hit": false,
      "t": 103428.46800000052,
      "d": 107.14274999999907,
      "v": 80
    },
    {
      "midi": 46,
      "hit": false,
      "t": 103571.32500000052,
      "d": 107.14274999999907,
      "v": 80
    },
    {
      "midi": 28,
      "hit": false,
      "t": 103714.18200000052,
      "d": 107.14274999999907,
      "v": 120
    },
    {
      "midi": 48,
      "hit": false,
      "t": 103714.18200000052,
      "d": 107.14274999999907,
      "v": 80
    },
    {
      "midi": 46,
      "hit": false,
      "t": 103857.03900000053,
      "d": 107.14274999999907,
      "v": 80
    },
    {
      "midi": 46,
      "hit": false,
      "t": 103999.89600000053,
      "d": 107.14274999999907,
      "v": 80
    },
    {
      "midi": 28,
      "hit": false,
      "t": 104142.75300000054,
      "d": 107.14274999999907,
      "v": 120
    },
    {
      "midi": 48,
      "hit": false,
      "t": 104142.75300000054,
      "d": 107.14274999999907,
      "v": 80
    },
    {
      "midi": 46,
      "hit": false,
      "t": 104285.61000000054,
      "d": 107.14274999999907,
      "v": 80
    },
    {
      "midi": 39,
      "hit": false,
      "t": 104428.46700000054,
      "d": 107.14274999999907,
      "v": 120
    },
    {
      "midi": 46,
      "hit": false,
      "t": 104428.46700000054,
      "d": 107.14274999999907,
      "v": 80
    },
    {
      "midi": 28,
      "hit": false,
      "t": 104571.32400000055,
      "d": 107.14274999999907,
      "v": 120
    },
    {
      "midi": 48,
      "hit": false,
      "t": 104571.32400000055,
      "d": 107.14274999999907,
      "v": 80
    },
    {
      "midi": 46,
      "hit": false,
      "t": 104714.18100000055,
      "d": 107.14274999999907,
      "v": 80
    },
    {
      "midi": 46,
      "hit": false,
      "t": 104857.03800000055,
      "d": 107.14274999999907,
      "v": 80
    },
    {
      "midi": 28,
      "hit": false,
      "t": 104999.89500000056,
      "d": 107.14274999999907,
      "v": 120
    },
    {
      "midi": 48,
      "hit": false,
      "t": 104999.89500000056,
      "d": 107.14274999999907,
      "v": 80
    },
    {
      "midi": 46,
      "hit": false,
      "t": 105142.75200000056,
      "d": 107.14274999999907,
      "v": 80
    },
    {
      "midi": 46,
      "hit": false,
      "t": 105285.60900000056,
      "d": 107.14274999999907,
      "v": 80
    },
    {
      "midi": 28,
      "hit": false,
      "t": 105428.46600000057,
      "d": 107.14274999999907,
      "v": 120
    },
    {
      "midi": 48,
      "hit": false,
      "t": 105428.46600000057,
      "d": 107.14274999999907,
      "v": 80
    },
    {
      "midi": 46,
      "hit": false,
      "t": 105571.32300000057,
      "d": 107.14274999999907,
      "v": 80
    },
    {
      "midi": 46,
      "hit": false,
      "t": 105714.18000000058,
      "d": 107.14274999999907,
      "v": 80
    },
    {
      "midi": 28,
      "hit": false,
      "t": 105857.03700000058,
      "d": 107.14274999999907,
      "v": 120
    },
    {
      "midi": 48,
      "hit": false,
      "t": 105857.03700000058,
      "d": 107.14274999999907,
      "v": 80
    },
    {
      "midi": 46,
      "hit": false,
      "t": 105999.89400000058,
      "d": 107.14274999999907,
      "v": 80
    },
    {
      "midi": 39,
      "hit": false,
      "t": 106142.75100000059,
      "d": 107.14274999999907,
      "v": 120
    },
    {
      "midi": 46,
      "hit": false,
      "t": 106142.75100000059,
      "d": 107.14274999999907,
      "v": 80
    },
    {
      "midi": 36,
      "hit": false,
      "t": 106267.75087499997,
      "d": 13732.129125000007,
      "v": 90
    },
    {
      "midi": 43,
      "hit": false,
      "t": 106285.60799999998,
      "d": 649.9993499999982,
      "v": 97
    },
    {
      "midi": 48,
      "hit": false,
      "t": 106285.60799999998,
      "d": 660.713625000004,
      "v": 97
    },
    {
      "midi": 36,
      "hit": false,
      "t": 106285.60799999998,
      "d": 732.1421249999985,
      "v": 97
    },
    {
      "midi": 28,
      "hit": false,
      "t": 106285.60800000059,
      "d": 107.14274999999907,
      "v": 120
    },
    {
      "midi": 48,
      "hit": false,
      "t": 106285.60800000059,
      "d": 107.14274999999907,
      "v": 80
    },
    {
      "midi": 46,
      "hit": false,
      "t": 106428.4650000006,
      "d": 107.14274999999907,
      "v": 80
    },
    {
      "midi": 46,
      "hit": false,
      "t": 106571.3220000006,
      "d": 107.14274999999907,
      "v": 80
    },
    {
      "midi": 28,
      "hit": false,
      "t": 106714.1790000006,
      "d": 107.14274999999907,
      "v": 120
    },
    {
      "midi": 48,
      "hit": false,
      "t": 106714.1790000006,
      "d": 107.14274999999907,
      "v": 80
    },
    {
      "midi": 46,
      "hit": false,
      "t": 106857.0360000006,
      "d": 107.14274999999907,
      "v": 80
    },
    {
      "midi": 46,
      "hit": false,
      "t": 106999.89300000061,
      "d": 107.14274999999907,
      "v": 80
    },
    {
      "midi": 28,
      "hit": false,
      "t": 107142.75000000061,
      "d": 107.14274999999907,
      "v": 120
    },
    {
      "midi": 48,
      "hit": false,
      "t": 107142.75000000061,
      "d": 107.14274999999907,
      "v": 80
    },
    {
      "midi": 46,
      "hit": false,
      "t": 107285.60700000061,
      "d": 107.14274999999907,
      "v": 80
    },
    {
      "midi": 46,
      "hit": false,
      "t": 107428.46400000062,
      "d": 107.14274999999907,
      "v": 80
    },
    {
      "midi": 28,
      "hit": false,
      "t": 107571.32100000062,
      "d": 107.14274999999907,
      "v": 120
    },
    {
      "midi": 48,
      "hit": false,
      "t": 107571.32100000062,
      "d": 107.14274999999907,
      "v": 80
    },
    {
      "midi": 46,
      "hit": false,
      "t": 107714.17800000063,
      "d": 107.14274999999907,
      "v": 80
    },
    {
      "midi": 39,
      "hit": false,
      "t": 107857.03500000063,
      "d": 107.14274999999907,
      "v": 120
    },
    {
      "midi": 46,
      "hit": false,
      "t": 107857.03500000063,
      "d": 107.14274999999907,
      "v": 80
    },
    {
      "midi": 28,
      "hit": false,
      "t": 107999.89200000063,
      "d": 107.14274999999907,
      "v": 120
    },
    {
      "midi": 48,
      "hit": false,
      "t": 107999.89200000063,
      "d": 107.14274999999907,
      "v": 80
    },
    {
      "midi": 46,
      "hit": false,
      "t": 108142.74900000064,
      "d": 107.14274999999907,
      "v": 80
    },
    {
      "midi": 46,
      "hit": false,
      "t": 108285.60600000064,
      "d": 107.14274999999907,
      "v": 80
    },
    {
      "midi": 28,
      "hit": false,
      "t": 108428.46300000064,
      "d": 107.14274999999907,
      "v": 120
    },
    {
      "midi": 48,
      "hit": false,
      "t": 108428.46300000064,
      "d": 107.14274999999907,
      "v": 80
    },
    {
      "midi": 46,
      "hit": false,
      "t": 108571.32000000065,
      "d": 107.14274999999907,
      "v": 80
    },
    {
      "midi": 46,
      "hit": false,
      "t": 108714.17700000065,
      "d": 107.14274999999907,
      "v": 80
    },
    {
      "midi": 28,
      "hit": false,
      "t": 108857.03400000065,
      "d": 107.14274999999907,
      "v": 120
    },
    {
      "midi": 48,
      "hit": false,
      "t": 108857.03400000065,
      "d": 107.14274999999907,
      "v": 80
    },
    {
      "midi": 46,
      "hit": false,
      "t": 108999.89100000066,
      "d": 107.14274999999907,
      "v": 80
    },
    {
      "midi": 46,
      "hit": false,
      "t": 109142.74800000066,
      "d": 107.14274999999907,
      "v": 80
    },
    {
      "midi": 28,
      "hit": false,
      "t": 109285.60500000067,
      "d": 107.14274999999907,
      "v": 120
    },
    {
      "midi": 48,
      "hit": false,
      "t": 109285.60500000067,
      "d": 107.14274999999907,
      "v": 80
    },
    {
      "midi": 46,
      "hit": false,
      "t": 109428.46200000067,
      "d": 107.14274999999907,
      "v": 80
    },
    {
      "midi": 39,
      "hit": false,
      "t": 109571.31900000067,
      "d": 107.14274999999907,
      "v": 120
    },
    {
      "midi": 46,
      "hit": false,
      "t": 109571.31900000067,
      "d": 107.14274999999907,
      "v": 80
    },
    {
      "midi": 36,
      "hit": false,
      "t": 109714.17599999998,
      "d": 264.28544999999576,
      "v": 87
    },
    {
      "midi": 43,
      "hit": false,
      "t": 109714.17599999998,
      "d": 292.8568499999965,
      "v": 80
    },
    {
      "midi": 48,
      "hit": false,
      "t": 109714.17599999998,
      "d": 299.9997000000003,
      "v": 87
    },
    {
      "midi": 28,
      "hit": false,
      "t": 109714.17600000068,
      "d": 107.14274999999907,
      "v": 120
    },
    {
      "midi": 48,
      "hit": false,
      "t": 109714.17600000068,
      "d": 107.14274999999907,
      "v": 80
    },
    {
      "midi": 46,
      "hit": false,
      "t": 109857.03300000068,
      "d": 107.14274999999907,
      "v": 80
    },
    {
      "midi": 46,
      "hit": false,
      "t": 109999.89000000068,
      "d": 107.14274999999907,
      "v": 80
    },
    {
      "midi": 28,
      "hit": false,
      "t": 110142.74700000069,
      "d": 107.14274999999907,
      "v": 120
    },
    {
      "midi": 48,
      "hit": false,
      "t": 110142.74700000069,
      "d": 107.14274999999907,
      "v": 80
    },
    {
      "midi": 46,
      "hit": false,
      "t": 110285.60400000069,
      "d": 107.14274999999907,
      "v": 80
    },
    {
      "midi": 46,
      "hit": false,
      "t": 110428.4610000007,
      "d": 107.14274999999907,
      "v": 80
    },
    {
      "midi": 28,
      "hit": false,
      "t": 110571.3180000007,
      "d": 107.14274999999907,
      "v": 120
    },
    {
      "midi": 48,
      "hit": false,
      "t": 110571.3180000007,
      "d": 107.14274999999907,
      "v": 80
    },
    {
      "midi": 46,
      "hit": false,
      "t": 110714.1750000007,
      "d": 107.14274999999907,
      "v": 80
    },
    {
      "midi": 46,
      "hit": false,
      "t": 110857.0320000007,
      "d": 107.14274999999907,
      "v": 80
    },
    {
      "midi": 28,
      "hit": false,
      "t": 110999.88900000071,
      "d": 107.14274999999907,
      "v": 120
    },
    {
      "midi": 48,
      "hit": false,
      "t": 110999.88900000071,
      "d": 107.14274999999907,
      "v": 80
    },
    {
      "midi": 46,
      "hit": false,
      "t": 111142.74600000071,
      "d": 107.14274999999907,
      "v": 80
    },
    {
      "midi": 39,
      "hit": false,
      "t": 111285.60300000072,
      "d": 107.14274999999907,
      "v": 120
    },
    {
      "midi": 46,
      "hit": false,
      "t": 111285.60300000072,
      "d": 107.14274999999907,
      "v": 80
    },
    {
      "midi": 28,
      "hit": false,
      "t": 111428.46000000072,
      "d": 107.14274999999907,
      "v": 120
    },
    {
      "midi": 48,
      "hit": false,
      "t": 111428.46000000072,
      "d": 107.14274999999907,
      "v": 80
    },
    {
      "midi": 46,
      "hit": false,
      "t": 111571.31700000072,
      "d": 107.14274999999907,
      "v": 80
    },
    {
      "midi": 46,
      "hit": false,
      "t": 111714.17400000073,
      "d": 107.14274999999907,
      "v": 80
    },
    {
      "midi": 28,
      "hit": false,
      "t": 111857.03100000073,
      "d": 107.14274999999907,
      "v": 120
    },
    {
      "midi": 48,
      "hit": false,
      "t": 111857.03100000073,
      "d": 107.14274999999907,
      "v": 80
    },
    {
      "midi": 46,
      "hit": false,
      "t": 111999.88800000073,
      "d": 107.14274999999907,
      "v": 80
    },
    {
      "midi": 46,
      "hit": false,
      "t": 112142.74500000074,
      "d": 107.14274999999907,
      "v": 80
    },
    {
      "midi": 28,
      "hit": false,
      "t": 112285.60200000074,
      "d": 107.14274999999907,
      "v": 120
    },
    {
      "midi": 48,
      "hit": false,
      "t": 112285.60200000074,
      "d": 107.14274999999907,
      "v": 80
    },
    {
      "midi": 46,
      "hit": false,
      "t": 112428.45900000074,
      "d": 107.14274999999907,
      "v": 80
    },
    {
      "midi": 46,
      "hit": false,
      "t": 112571.31600000075,
      "d": 107.14274999999907,
      "v": 80
    },
    {
      "midi": 28,
      "hit": false,
      "t": 112714.17300000075,
      "d": 107.14274999999907,
      "v": 120
    },
    {
      "midi": 48,
      "hit": false,
      "t": 112714.17300000075,
      "d": 107.14274999999907,
      "v": 80
    },
    {
      "midi": 46,
      "hit": false,
      "t": 112857.03000000076,
      "d": 107.14274999999907,
      "v": 80
    },
    {
      "midi": 39,
      "hit": false,
      "t": 112999.88700000076,
      "d": 107.14274999999907,
      "v": 120
    },
    {
      "midi": 46,
      "hit": false,
      "t": 112999.88700000076,
      "d": 107.14274999999907,
      "v": 80
    },
    {
      "midi": 36,
      "hit": false,
      "t": 113142.74399999999,
      "d": 682.1421750000009,
      "v": 87
    },
    {
      "midi": 43,
      "hit": false,
      "t": 113142.74399999999,
      "d": 696.427874999994,
      "v": 80
    },
    {
      "midi": 48,
      "hit": false,
      "t": 113142.74399999999,
      "d": 714.2849999999889,
      "v": 85
    },
    {
      "midi": 28,
      "hit": false,
      "t": 113142.74400000076,
      "d": 107.14274999999907,
      "v": 120
    },
    {
      "midi": 48,
      "hit": false,
      "t": 113142.74400000076,
      "d": 107.14274999999907,
      "v": 80
    },
    {
      "midi": 46,
      "hit": false,
      "t": 113285.60100000077,
      "d": 107.14274999999907,
      "v": 80
    },
    {
      "midi": 46,
      "hit": false,
      "t": 113428.45800000077,
      "d": 107.14274999999907,
      "v": 80
    },
    {
      "midi": 28,
      "hit": false,
      "t": 113571.31500000077,
      "d": 107.14274999999907,
      "v": 120
    },
    {
      "midi": 48,
      "hit": false,
      "t": 113571.31500000077,
      "d": 107.14274999999907,
      "v": 80
    },
    {
      "midi": 46,
      "hit": false,
      "t": 113714.17200000078,
      "d": 107.14274999999907,
      "v": 80
    },
    {
      "midi": 46,
      "hit": false,
      "t": 113857.02900000078,
      "d": 107.14274999999907,
      "v": 80
    },
    {
      "midi": 28,
      "hit": false,
      "t": 113999.88600000078,
      "d": 107.14274999999907,
      "v": 120
    },
    {
      "midi": 48,
      "hit": false,
      "t": 113999.88600000078,
      "d": 107.14274999999907,
      "v": 80
    },
    {
      "midi": 46,
      "hit": false,
      "t": 114142.74300000079,
      "d": 107.14274999999907,
      "v": 80
    },
    {
      "midi": 46,
      "hit": false,
      "t": 114285.60000000079,
      "d": 107.14274999999907,
      "v": 80
    },
    {
      "midi": 28,
      "hit": false,
      "t": 114428.4570000008,
      "d": 107.14274999999907,
      "v": 120
    },
    {
      "midi": 48,
      "hit": false,
      "t": 114428.4570000008,
      "d": 107.14274999999907,
      "v": 80
    },
    {
      "midi": 46,
      "hit": false,
      "t": 114571.3140000008,
      "d": 107.14274999999907,
      "v": 80
    },
    {
      "midi": 39,
      "hit": false,
      "t": 114714.1710000008,
      "d": 107.14274999999907,
      "v": 120
    },
    {
      "midi": 46,
      "hit": false,
      "t": 114714.1710000008,
      "d": 107.14274999999907,
      "v": 80
    },
    {
      "midi": 28,
      "hit": false,
      "t": 114857.0280000008,
      "d": 107.14274999999907,
      "v": 120
    },
    {
      "midi": 48,
      "hit": false,
      "t": 114857.0280000008,
      "d": 107.14274999999907,
      "v": 80
    },
    {
      "midi": 46,
      "hit": false,
      "t": 114999.88500000081,
      "d": 107.14274999999907,
      "v": 80
    },
    {
      "midi": 46,
      "hit": false,
      "t": 115142.74200000081,
      "d": 107.14274999999907,
      "v": 80
    },
    {
      "midi": 28,
      "hit": false,
      "t": 115285.59900000082,
      "d": 107.14274999999907,
      "v": 120
    },
    {
      "midi": 48,
      "hit": false,
      "t": 115285.59900000082,
      "d": 107.14274999999907,
      "v": 80
    },
    {
      "midi": 46,
      "hit": false,
      "t": 115428.45600000082,
      "d": 107.14274999999907,
      "v": 80
    },
    {
      "midi": 46,
      "hit": false,
      "t": 115571.31300000082,
      "d": 107.14274999999907,
      "v": 80
    },
    {
      "midi": 28,
      "hit": false,
      "t": 115714.17000000083,
      "d": 107.14274999999907,
      "v": 120
    },
    {
      "midi": 48,
      "hit": false,
      "t": 115714.17000000083,
      "d": 107.14274999999907,
      "v": 80
    },
    {
      "midi": 46,
      "hit": false,
      "t": 115857.02700000083,
      "d": 107.14274999999907,
      "v": 80
    },
    {
      "midi": 46,
      "hit": false,
      "t": 115999.88400000083,
      "d": 107.14274999999907,
      "v": 80
    },
    {
      "midi": 28,
      "hit": false,
      "t": 116142.74100000084,
      "d": 107.14274999999907,
      "v": 120
    },
    {
      "midi": 48,
      "hit": false,
      "t": 116142.74100000084,
      "d": 107.14274999999907,
      "v": 80
    },
    {
      "midi": 46,
      "hit": false,
      "t": 116285.59800000084,
      "d": 107.14274999999907,
      "v": 80
    },
    {
      "midi": 39,
      "hit": false,
      "t": 116428.45500000085,
      "d": 107.14274999999907,
      "v": 120
    },
    {
      "midi": 46,
      "hit": false,
      "t": 116428.45500000085,
      "d": 107.14274999999907,
      "v": 80
    },
    {
      "midi": 43,
      "hit": false,
      "t": 116571.31199999998,
      "d": 717.8564250000054,
      "v": 72
    },
    {
      "midi": 36,
      "hit": false,
      "t": 116571.31199999998,
      "d": 717.8564250000054,
      "v": 77
    },
    {
      "midi": 48,
      "hit": false,
      "t": 116571.31199999998,
      "d": 742.8564000000042,
      "v": 85
    },
    {
      "midi": 28,
      "hit": false,
      "t": 116571.31200000085,
      "d": 107.14274999999907,
      "v": 120
    },
    {
      "midi": 48,
      "hit": false,
      "t": 116571.31200000085,
      "d": 107.14274999999907,
      "v": 80
    },
    {
      "midi": 46,
      "hit": false,
      "t": 116714.16900000085,
      "d": 107.14274999999907,
      "v": 80
    },
    {
      "midi": 46,
      "hit": false,
      "t": 116857.02600000086,
      "d": 107.14274999999907,
      "v": 80
    },
    {
      "midi": 28,
      "hit": false,
      "t": 116999.88300000086,
      "d": 107.14274999999907,
      "v": 120
    },
    {
      "midi": 48,
      "hit": false,
      "t": 116999.88300000086,
      "d": 107.14274999999907,
      "v": 80
    },
    {
      "midi": 46,
      "hit": false,
      "t": 117142.74000000086,
      "d": 107.14274999999907,
      "v": 80
    },
    {
      "midi": 46,
      "hit": false,
      "t": 117285.59700000087,
      "d": 107.14274999999907,
      "v": 80
    },
    {
      "midi": 28,
      "hit": false,
      "t": 117428.45400000087,
      "d": 107.14274999999907,
      "v": 120
    },
    {
      "midi": 48,
      "hit": false,
      "t": 117428.45400000087,
      "d": 107.14274999999907,
      "v": 80
    },
    {
      "midi": 46,
      "hit": false,
      "t": 117571.31100000087,
      "d": 107.14274999999907,
      "v": 80
    },
    {
      "midi": 46,
      "hit": false,
      "t": 117714.16800000088,
      "d": 107.14274999999907,
      "v": 80
    },
    {
      "midi": 28,
      "hit": false,
      "t": 117857.02500000088,
      "d": 107.14274999999907,
      "v": 120
    },
    {
      "midi": 48,
      "hit": false,
      "t": 117857.02500000088,
      "d": 107.14274999999907,
      "v": 80
    },
    {
      "midi": 46,
      "hit": false,
      "t": 117999.88200000089,
      "d": 107.14274999999907,
      "v": 80
    },
    {
      "midi": 39,
      "hit": false,
      "t": 118142.73900000089,
      "d": 107.14274999999907,
      "v": 120
    },
    {
      "midi": 46,
      "hit": false,
      "t": 118142.73900000089,
      "d": 107.14274999999907,
      "v": 80
    },
    {
      "midi": 28,
      "hit": false,
      "t": 118285.59600000089,
      "d": 107.14274999999907,
      "v": 120
    },
    {
      "midi": 48,
      "hit": false,
      "t": 118285.59600000089,
      "d": 107.14274999999907,
      "v": 80
    },
    {
      "midi": 46,
      "hit": false,
      "t": 118428.4530000009,
      "d": 107.14274999999907,
      "v": 80
    },
    {
      "midi": 46,
      "hit": false,
      "t": 118571.3100000009,
      "d": 107.14274999999907,
      "v": 80
    },
    {
      "midi": 28,
      "hit": false,
      "t": 118714.1670000009,
      "d": 107.14274999999907,
      "v": 120
    },
    {
      "midi": 48,
      "hit": false,
      "t": 118714.1670000009,
      "d": 107.14274999999907,
      "v": 80
    },
    {
      "midi": 46,
      "hit": false,
      "t": 118857.0240000009,
      "d": 107.14274999999907,
      "v": 80
    },
    {
      "midi": 46,
      "hit": false,
      "t": 118999.88100000091,
      "d": 107.14274999999907,
      "v": 80
    },
    {
      "midi": 28,
      "hit": false,
      "t": 119142.73800000091,
      "d": 107.14274999999907,
      "v": 120
    },
    {
      "midi": 48,
      "hit": false,
      "t": 119142.73800000091,
      "d": 107.14274999999907,
      "v": 80
    },
    {
      "midi": 46,
      "hit": false,
      "t": 119285.59500000092,
      "d": 107.14274999999907,
      "v": 80
    },
    {
      "midi": 46,
      "hit": false,
      "t": 119428.45200000092,
      "d": 107.14274999999907,
      "v": 80
    },
    {
      "midi": 28,
      "hit": false,
      "t": 119571.30900000093,
      "d": 107.14274999999907,
      "v": 120
    },
    {
      "midi": 48,
      "hit": false,
      "t": 119571.30900000093,
      "d": 107.14274999999907,
      "v": 80
    },
    {
      "midi": 46,
      "hit": false,
      "t": 119714.16600000093,
      "d": 107.14274999999907,
      "v": 80
    },
    {
      "midi": 39,
      "hit": false,
      "t": 119857.02300000093,
      "d": 107.14274999999907,
      "v": 120
    },
    {
      "midi": 46,
      "hit": false,
      "t": 119857.02300000093,
      "d": 107.14274999999907,
      "v": 80
    },
    {
      "midi": 48,
      "hit": false,
      "t": 119974.88002499998,
      "d": 6867.850275000004,
      "v": 90
    },
    {
      "midi": 43,
      "hit": false,
      "t": 119999.87999999998,
      "d": 678.570749999999,
      "v": 68
    },
    {
      "midi": 36,
      "hit": false,
      "t": 119999.87999999998,
      "d": 678.570749999999,
      "v": 87
    },
    {
      "midi": 48,
      "hit": false,
      "t": 119999.87999999998,
      "d": 685.7136000000028,
      "v": 85
    },
    {
      "midi": 39,
      "hit": false,
      "t": 119999.88000000002,
      "d": 107.14274999999907,
      "v": 60
    },
    {
      "midi": 63,
      "hit": false,
      "t": 119999.88000000002,
      "d": 139.2855750000017,
      "v": 82
    },
    {
      "midi": 47,
      "hit": false,
      "t": 119999.88000000002,
      "d": 103.57132499999716,
      "v": 82
    },
    {
      "midi": 28,
      "hit": false,
      "t": 119999.88000000094,
      "d": 107.14274999999907,
      "v": 120
    },
    {
      "midi": 48,
      "hit": false,
      "t": 119999.88000000094,
      "d": 107.14274999999907,
      "v": 80
    },
    {
      "midi": 46,
      "hit": false,
      "t": 120142.73700000094,
      "d": 107.14274999999907,
      "v": 80
    },
    {
      "midi": 46,
      "hit": false,
      "t": 120285.59400000094,
      "d": 107.14274999999907,
      "v": 80
    },
    {
      "midi": 64,
      "hit": false,
      "t": 120321.30825000002,
      "d": 142.8570000000036,
      "v": 78
    },
    {
      "midi": 41,
      "hit": false,
      "t": 120357.02250000002,
      "d": 135.7141499999998,
      "v": 78
    },
    {
      "midi": 39,
      "hit": false,
      "t": 120428.45100000002,
      "d": 124.99987499999406,
      "v": 60
    },
    {
      "midi": 87,
      "hit": false,
      "t": 120642.73650000001,
      "d": 67.85707500000717,
      "v": 72
    },
    {
      "midi": 87,
      "hit": false,
      "t": 120749.87925000003,
      "d": 67.85707500000717,
      "v": 80
    },
    {
      "midi": 39,
      "hit": false,
      "t": 120857.02200000001,
      "d": 117.8570250000048,
      "v": 60
    },
    {
      "midi": 41,
      "hit": false,
      "t": 120857.02200000003,
      "d": 103.57132499999716,
      "v": 78
    },
    {
      "midi": 87,
      "hit": false,
      "t": 120857.02200000004,
      "d": 71.42849999999453,
      "v": 92
    },
    {
      "midi": 87,
      "hit": false,
      "t": 120964.16475000004,
      "d": 60.71422500000335,
      "v": 90
    },
    {
      "midi": 87,
      "hit": false,
      "t": 121071.30750000004,
      "d": 67.85707500000717,
      "v": 92
    },
    {
      "midi": 87,
      "hit": false,
      "t": 121178.45025000005,
      "d": 53.571374999999534,
      "v": 96
    },
    {
      "midi": 39,
      "hit": false,
      "t": 121285.59300000002,
      "d": 114.28560000000289,
      "v": 60
    },
    {
      "midi": 87,
      "hit": false,
      "t": 121285.59300000005,
      "d": 82.14277500000026,
      "v": 96
    },
    {
      "midi": 41,
      "hit": false,
      "t": 121464.16425000003,
      "d": 117.8570250000048,
      "v": 78
    },
    {
      "midi": 39,
      "hit": false,
      "t": 121714.16400000002,
      "d": 121.4284500000067,
      "v": 60
    },
    {
      "midi": 63,
      "hit": false,
      "t": 121714.16400000002,
      "d": 107.14274999999907,
      "v": 82
    },
    {
      "midi": 47,
      "hit": false,
      "t": 121714.16400000003,
      "d": 107.14274999999907,
      "v": 87
    },
    {
      "midi": 64,
      "hit": false,
      "t": 122035.59225000002,
      "d": 121.4284500000067,
      "v": 87
    },
    {
      "midi": 41,
      "hit": false,
      "t": 122071.30650000004,
      "d": 114.28560000000289,
      "v": 82
    },
    {
      "midi": 39,
      "hit": false,
      "t": 122142.73500000003,
      "d": 103.57132499999716,
      "v": 60
    },
    {
      "midi": 87,
      "hit": false,
      "t": 122357.02050000006,
      "d": 67.85707500000717,
      "v": 72
    },
    {
      "midi": 87,
      "hit": false,
      "t": 122464.16325000007,
      "d": 67.85707500000717,
      "v": 80
    },
    {
      "midi": 39,
      "hit": false,
      "t": 122571.30600000003,
      "d": 114.28560000000289,
      "v": 60
    },
    {
      "midi": 41,
      "hit": false,
      "t": 122571.30600000004,
      "d": 117.8570250000048,
      "v": 73
    },
    {
      "midi": 87,
      "hit": false,
      "t": 122571.30600000008,
      "d": 71.42849999999453,
      "v": 92
    },
    {
      "midi": 87,
      "hit": false,
      "t": 122678.44875000008,
      "d": 60.71422500000335,
      "v": 80
    },
    {
      "midi": 87,
      "hit": false,
      "t": 122785.59150000008,
      "d": 67.85707500000717,
      "v": 82
    },
    {
      "midi": 87,
      "hit": false,
      "t": 122892.7342500001,
      "d": 53.571374999999534,
      "v": 96
    },
    {
      "midi": 39,
      "hit": false,
      "t": 122999.87700000002,
      "d": 114.28560000000289,
      "v": 60
    },
    {
      "midi": 87,
      "hit": false,
      "t": 122999.8770000001,
      "d": 82.14277500000026,
      "v": 96
    },
    {
      "midi": 41,
      "hit": false,
      "t": 123178.44825000004,
      "d": 96.42847499999334,
      "v": 82
    },
    {
      "midi": 39,
      "hit": false,
      "t": 123428.44800000002,
      "d": 114.28560000000289,
      "v": 60
    },
    {
      "midi": 63,
      "hit": false,
      "t": 123428.44800000002,
      "d": 103.57132499999716,
      "v": 87
    },
    {
      "midi": 47,
      "hit": false,
      "t": 123428.44800000003,
      "d": 103.57132499999716,
      "v": 82
    },
    {
      "midi": 64,
      "hit": false,
      "t": 123749.87625000002,
      "d": 121.4284500000067,
      "v": 78
    },
    {
      "midi": 41,
      "hit": false,
      "t": 123785.59050000003,
      "d": 153.57127499999478,
      "v": 72
    },
    {
      "midi": 39,
      "hit": false,
      "t": 123857.01900000001,
      "d": 103.57132499999716,
      "v": 60
    },
    {
      "midi": 87,
      "hit": false,
      "t": 124071.3045000001,
      "d": 67.85707500000717,
      "v": 72
    },
    {
      "midi": 87,
      "hit": false,
      "t": 124178.44725000011,
      "d": 67.85707500000717,
      "v": 80
    },
    {
      "midi": 39,
      "hit": false,
      "t": 124285.59000000001,
      "d": 107.14274999999907,
      "v": 60
    },
    {
      "midi": 41,
      "hit": false,
      "t": 124285.59000000003,
      "d": 103.57132499999716,
      "v": 87
    },
    {
      "midi": 87,
      "hit": false,
      "t": 124285.59000000013,
      "d": 71.42849999999453,
      "v": 92
    },
    {
      "midi": 87,
      "hit": false,
      "t": 124392.73275000013,
      "d": 60.71422500000335,
      "v": 80
    },
    {
      "midi": 87,
      "hit": false,
      "t": 124499.87550000013,
      "d": 67.85707500000717,
      "v": 92
    },
    {
      "midi": 87,
      "hit": false,
      "t": 124607.01825000014,
      "d": 53.571374999999534,
      "v": 96
    },
    {
      "midi": 39,
      "hit": false,
      "t": 124714.16100000001,
      "d": 103.57132499999716,
      "v": 60
    },
    {
      "midi": 87,
      "hit": false,
      "t": 124714.16100000014,
      "d": 82.14277500000026,
      "v": 96
    },
    {
      "midi": 41,
      "hit": false,
      "t": 124892.73225000003,
      "d": 99.99989999999525,
      "v": 87
    },
    {
      "midi": 39,
      "hit": false,
      "t": 125142.732,
      "d": 99.99989999999525,
      "v": 60
    },
    {
      "midi": 63,
      "hit": false,
      "t": 125142.73200000002,
      "d": 96.42847499999334,
      "v": 87
    },
    {
      "midi": 47,
      "hit": false,
      "t": 125142.73200000002,
      "d": 89.28562500000407,
      "v": 78
    },
    {
      "midi": 64,
      "hit": false,
      "t": 125464.16025000002,
      "d": 124.99987499999406,
      "v": 78
    },
    {
      "midi": 41,
      "hit": false,
      "t": 125499.87450000002,
      "d": 114.28560000000289,
      "v": 93
    },
    {
      "midi": 39,
      "hit": false,
      "t": 125571.303,
      "d": 110.71417500000098,
      "v": 60
    },
    {
      "midi": 87,
      "hit": false,
      "t": 125785.58850000014,
      "d": 67.85707500000717,
      "v": 72
    },
    {
      "midi": 87,
      "hit": false,
      "t": 125892.73125000016,
      "d": 67.85707500000717,
      "v": 80
    },
    {
      "midi": 39,
      "hit": false,
      "t": 125999.874,
      "d": 92.85705000000598,
      "v": 60
    },
    {
      "midi": 41,
      "hit": false,
      "t": 125999.87400000003,
      "d": 103.57132499999716,
      "v": 87
    },
    {
      "midi": 87,
      "hit": false,
      "t": 125999.87400000017,
      "d": 71.42849999999453,
      "v": 92
    },
    {
      "midi": 87,
      "hit": false,
      "t": 126107.01675000017,
      "d": 60.71422500000335,
      "v": 80
    },
    {
      "midi": 87,
      "hit": false,
      "t": 126214.15950000017,
      "d": 67.85707500000717,
      "v": 92
    },
    {
      "midi": 87,
      "hit": false,
      "t": 126321.30225000018,
      "d": 53.571374999999534,
      "v": 96
    },
    {
      "midi": 39,
      "hit": false,
      "t": 126428.445,
      "d": 103.57132499999716,
      "v": 60
    },
    {
      "midi": 87,
      "hit": false,
      "t": 126428.44500000018,
      "d": 82.14277500000026,
      "v": 96
    },
    {
      "midi": 41,
      "hit": false,
      "t": 126607.01625000003,
      "d": 96.42847499999334,
      "v": 82
    },
    {
      "midi": 49,
      "hit": false,
      "t": 126814.15889999998,
      "d": 6871.421700000006,
      "v": 90
    },
    {
      "midi": 39,
      "hit": false,
      "t": 126857.016,
      "d": 99.99989999999525,
      "v": 60
    },
    {
      "midi": 63,
      "hit": false,
      "t": 126857.016,
      "d": 96.42847499999334,
      "v": 87
    },
    {
      "midi": 47,
      "hit": false,
      "t": 126857.01600000002,
      "d": 107.14274999999907,
      "v": 87
    },
    {
      "midi": 64,
      "hit": false,
      "t": 127178.44425,
      "d": 121.4284500000067,
      "v": 82
    },
    {
      "midi": 41,
      "hit": false,
      "t": 127214.15850000002,
      "d": 110.71417500000098,
      "v": 82
    },
    {
      "midi": 39,
      "hit": false,
      "t": 127285.587,
      "d": 96.42847499999334,
      "v": 60
    },
    {
      "midi": 87,
      "hit": false,
      "t": 127499.87250000019,
      "d": 67.85707500000717,
      "v": 72
    },
    {
      "midi": 87,
      "hit": false,
      "t": 127607.0152500002,
      "d": 67.85707500000717,
      "v": 80
    },
    {
      "midi": 39,
      "hit": false,
      "t": 127714.158,
      "d": 99.99989999999525,
      "v": 60
    },
    {
      "midi": 41,
      "hit": false,
      "t": 127714.15800000002,
      "d": 99.99989999999525,
      "v": 93
    },
    {
      "midi": 87,
      "hit": false,
      "t": 127714.15800000021,
      "d": 71.42849999999453,
      "v": 92
    },
    {
      "midi": 87,
      "hit": false,
      "t": 127821.30075000021,
      "d": 60.71422500000335,
      "v": 80
    },
    {
      "midi": 87,
      "hit": false,
      "t": 127928.44350000021,
      "d": 67.85707500000717,
      "v": 92
    },
    {
      "midi": 87,
      "hit": false,
      "t": 128035.58625000023,
      "d": 53.571374999999534,
      "v": 96
    },
    {
      "midi": 39,
      "hit": false,
      "t": 128142.72899999999,
      "d": 99.99989999999525,
      "v": 60
    },
    {
      "midi": 87,
      "hit": false,
      "t": 128142.72900000022,
      "d": 82.14277500000026,
      "v": 96
    },
    {
      "midi": 41,
      "hit": false,
      "t": 128321.30025000001,
      "d": 96.42847499999334,
      "v": 87
    },
    {
      "midi": 39,
      "hit": false,
      "t": 128571.29999999999,
      "d": 99.99989999999525,
      "v": 60
    },
    {
      "midi": 63,
      "hit": false,
      "t": 128571.3,
      "d": 89.28562500000407,
      "v": 78
    },
    {
      "midi": 47,
      "hit": false,
      "t": 128571.3,
      "d": 96.42847499999334,
      "v": 87
    },
    {
      "midi": 64,
      "hit": false,
      "t": 128892.72825,
      "d": 128.57129999999597,
      "v": 73
    },
    {
      "midi": 41,
      "hit": false,
      "t": 128928.44249999999,
      "d": 103.57132499999716,
      "v": 87
    },
    {
      "midi": 39,
      "hit": false,
      "t": 128999.87099999998,
      "d": 103.57132499999716,
      "v": 60
    },
    {
      "midi": 87,
      "hit": false,
      "t": 129214.15650000023,
      "d": 67.85707500000717,
      "v": 72
    },
    {
      "midi": 87,
      "hit": false,
      "t": 129321.29925000024,
      "d": 67.85707500000717,
      "v": 80
    },
    {
      "midi": 39,
      "hit": false,
      "t": 129428.44199999998,
      "d": 92.85705000000598,
      "v": 60
    },
    {
      "midi": 41,
      "hit": false,
      "t": 129428.44199999998,
      "d": 96.42847499999334,
      "v": 93
    },
    {
      "midi": 87,
      "hit": false,
      "t": 129428.44200000026,
      "d": 71.42849999999453,
      "v": 92
    },
    {
      "midi": 87,
      "hit": false,
      "t": 129535.58475000026,
      "d": 60.71422500000335,
      "v": 80
    },
    {
      "midi": 87,
      "hit": false,
      "t": 129642.72750000026,
      "d": 67.85707500000717,
      "v": 92
    },
    {
      "midi": 87,
      "hit": false,
      "t": 129749.87025000027,
      "d": 53.571374999999534,
      "v": 96
    },
    {
      "midi": 39,
      "hit": false,
      "t": 129857.01299999999,
      "d": 103.57132499999716,
      "v": 60
    },
    {
      "midi": 87,
      "hit": false,
      "t": 129857.01300000027,
      "d": 82.14277500000026,
      "v": 96
    },
    {
      "midi": 41,
      "hit": false,
      "t": 130035.58424999997,
      "d": 99.99989999999525,
      "v": 87
    },
    {
      "midi": 47,
      "hit": false,
      "t": 130285.58399999996,
      "d": 85.71420000000217,
      "v": 82
    },
    {
      "midi": 39,
      "hit": false,
      "t": 130285.58399999999,
      "d": 99.99989999999525,
      "v": 60
    },
    {
      "midi": 63,
      "hit": false,
      "t": 130285.584,
      "d": 85.71420000000217,
      "v": 82
    },
    {
      "midi": 64,
      "hit": false,
      "t": 130607.01225,
      "d": 124.99987499999406,
      "v": 69
    },
    {
      "midi": 41,
      "hit": false,
      "t": 130642.72649999996,
      "d": 114.28560000000289,
      "v": 87
    },
    {
      "midi": 39,
      "hit": false,
      "t": 130714.15499999998,
      "d": 103.57132499999716,
      "v": 60
    },
    {
      "midi": 87,
      "hit": false,
      "t": 130928.44050000027,
      "d": 67.85707500000717,
      "v": 72
    },
    {
      "midi": 87,
      "hit": false,
      "t": 131035.58325000029,
      "d": 67.85707500000717,
      "v": 80
    },
    {
      "midi": 41,
      "hit": false,
      "t": 131142.72599999997,
      "d": 103.57132499999716,
      "v": 93
    },
    {
      "midi": 39,
      "hit": false,
      "t": 131142.726,
      "d": 107.14274999999907,
      "v": 60
    },
    {
      "midi": 87,
      "hit": false,
      "t": 131142.7260000003,
      "d": 71.42850000000908,
      "v": 92
    },
    {
      "midi": 87,
      "hit": false,
      "t": 131249.86875000029,
      "d": 60.71422500000335,
      "v": 80
    },
    {
      "midi": 87,
      "hit": false,
      "t": 131357.01150000028,
      "d": 67.85707500000717,
      "v": 92
    },
    {
      "midi": 87,
      "hit": false,
      "t": 131464.15425000028,
      "d": 53.571374999999534,
      "v": 96
    },
    {
      "midi": 39,
      "hit": false,
      "t": 131571.297,
      "d": 96.42847499999334,
      "v": 60
    },
    {
      "midi": 87,
      "hit": false,
      "t": 131571.29700000028,
      "d": 82.1427749999857,
      "v": 96
    },
    {
      "midi": 41,
      "hit": false,
      "t": 131749.86824999997,
      "d": 99.99989999999525,
      "v": 87
    },
    {
      "midi": 47,
      "hit": false,
      "t": 131999.86799999996,
      "d": 89.28562499998952,
      "v": 87
    },
    {
      "midi": 39,
      "hit": false,
      "t": 131999.868,
      "d": 96.42847499999334,
      "v": 60
    },
    {
      "midi": 63,
      "hit": false,
      "t": 131999.868,
      "d": 85.71419999998761,
      "v": 87
    },
    {
      "midi": 64,
      "hit": false,
      "t": 132321.29624999998,
      "d": 132.14272500001243,
      "v": 65
    },
    {
      "midi": 41,
      "hit": false,
      "t": 132357.01049999995,
      "d": 110.71417500000098,
      "v": 87
    },
    {
      "midi": 39,
      "hit": false,
      "t": 132428.43899999998,
      "d": 92.85704999999143,
      "v": 60
    },
    {
      "midi": 87,
      "hit": false,
      "t": 132642.72450000027,
      "d": 67.85707500000717,
      "v": 72
    },
    {
      "midi": 87,
      "hit": false,
      "t": 132749.86725000027,
      "d": 67.85707500000717,
      "v": 80
    },
    {
      "midi": 41,
      "hit": false,
      "t": 132857.00999999995,
      "d": 103.57132499999716,
      "v": 93
    },
    {
      "midi": 39,
      "hit": false,
      "t": 132857.00999999998,
      "d": 85.71419999998761,
      "v": 60
    },
    {
      "midi": 87,
      "hit": false,
      "t": 132857.01000000027,
      "d": 71.42850000000908,
      "v": 92
    },
    {
      "midi": 87,
      "hit": false,
      "t": 132964.15275000027,
      "d": 60.71422500000335,
      "v": 90
    },
    {
      "midi": 87,
      "hit": false,
      "t": 133071.29550000027,
      "d": 67.85707500000717,
      "v": 92
    },
    {
      "midi": 87,
      "hit": false,
      "t": 133178.43825000027,
      "d": 53.571374999999534,
      "v": 96
    },
    {
      "midi": 39,
      "hit": false,
      "t": 133285.58099999998,
      "d": 107.14274999999907,
      "v": 60
    },
    {
      "midi": 87,
      "hit": false,
      "t": 133285.58100000027,
      "d": 82.1427749999857,
      "v": 96
    },
    {
      "midi": 41,
      "hit": false,
      "t": 133464.15224999996,
      "d": 89.28562499998952,
      "v": 93
    },
    {
      "midi": 51,
      "hit": false,
      "t": 133678.43774999998,
      "d": 6867.850275000004,
      "v": 90
    },
    {
      "midi": 47,
      "hit": false,
      "t": 133714.15199999994,
      "d": 89.28562499998952,
      "v": 87
    },
    {
      "midi": 48,
      "hit": false,
      "t": 133714.15199999997,
      "d": 724.9992750000092,
      "v": 70
    },
    {
      "midi": 39,
      "hit": false,
      "t": 133714.15199999997,
      "d": 99.99989999999525,
      "v": 60
    },
    {
      "midi": 63,
      "hit": false,
      "t": 133714.152,
      "d": 139.28557499998715,
      "v": 82
    },
    {
      "midi": 64,
      "hit": false,
      "t": 134035.58025,
      "d": 142.85699999998906,
      "v": 78
    },
    {
      "midi": 41,
      "hit": false,
      "t": 134071.29449999993,
      "d": 110.71417500000098,
      "v": 93
    },
    {
      "midi": 39,
      "hit": false,
      "t": 134142.72299999997,
      "d": 89.28562499998952,
      "v": 60
    },
    {
      "midi": 87,
      "hit": false,
      "t": 134357.00850000026,
      "d": 67.85707500000717,
      "v": 72
    },
    {
      "midi": 87,
      "hit": false,
      "t": 134464.15125000026,
      "d": 67.85707500000717,
      "v": 80
    },
    {
      "midi": 41,
      "hit": false,
      "t": 134571.29399999994,
      "d": 92.85704999999143,
      "v": 93
    },
    {
      "midi": 39,
      "hit": false,
      "t": 134571.29399999997,
      "d": 92.85704999999143,
      "v": 60
    },
    {
      "midi": 87,
      "hit": false,
      "t": 134571.29400000026,
      "d": 71.42850000000908,
      "v": 92
    },
    {
      "midi": 87,
      "hit": false,
      "t": 134678.43675000026,
      "d": 60.71422500000335,
      "v": 70
    },
    {
      "midi": 87,
      "hit": false,
      "t": 134785.57950000025,
      "d": 67.85707500000717,
      "v": 82
    },
    {
      "midi": 87,
      "hit": false,
      "t": 134892.72225000025,
      "d": 53.571374999999534,
      "v": 86
    },
    {
      "midi": 39,
      "hit": false,
      "t": 134999.86499999996,
      "d": 89.28562499998952,
      "v": 60
    },
    {
      "midi": 87,
      "hit": false,
      "t": 134999.86500000025,
      "d": 82.1427749999857,
      "v": 86
    },
    {
      "midi": 41,
      "hit": false,
      "t": 135178.43624999994,
      "d": 117.8570250000048,
      "v": 78
    },
    {
      "midi": 39,
      "hit": false,
      "t": 135428.43599999996,
      "d": 89.28562499998952,
      "v": 60
    },
    {
      "midi": 47,
      "hit": false,
      "t": 135428.43599999996,
      "d": 107.14274999999907,
      "v": 87
    },
    {
      "midi": 63,
      "hit": false,
      "t": 135428.436,
      "d": 107.14274999999907,
      "v": 82
    },
    {
      "midi": 64,
      "hit": false,
      "t": 135749.86424999998,
      "d": 121.4284500000067,
      "v": 87
    },
    {
      "midi": 41,
      "hit": false,
      "t": 135785.57849999995,
      "d": 114.28560000000289,
      "v": 82
    },
    {
      "midi": 39,
      "hit": false,
      "t": 135857.00699999995,
      "d": 89.28562499998952,
      "v": 60
    },
    {
      "midi": 87,
      "hit": false,
      "t": 136071.29250000024,
      "d": 67.85707500000717,
      "v": 72
    },
    {
      "midi": 87,
      "hit": false,
      "t": 136178.43525000024,
      "d": 67.85707500000717,
      "v": 80
    },
    {
      "midi": 39,
      "hit": false,
      "t": 136285.57799999995,
      "d": 85.71419999998761,
      "v": 60
    },
    {
      "midi": 41,
      "hit": false,
      "t": 136285.57799999995,
      "d": 117.8570250000048,
      "v": 73
    },
    {
      "midi": 87,
      "hit": false,
      "t": 136285.57800000024,
      "d": 71.42850000000908,
      "v": 92
    },
    {
      "midi": 87,
      "hit": false,
      "t": 136392.72075000024,
      "d": 60.71422500000335,
      "v": 80
    },
    {
      "midi": 87,
      "hit": false,
      "t": 136499.86350000024,
      "d": 67.85707500000717,
      "v": 92
    },
    {
      "midi": 87,
      "hit": false,
      "t": 136607.00625000024,
      "d": 53.571374999999534,
      "v": 86
    },
    {
      "midi": 39,
      "hit": false,
      "t": 136714.14899999995,
      "d": 89.28562499998952,
      "v": 50
    },
    {
      "midi": 87,
      "hit": false,
      "t": 136714.14900000024,
      "d": 82.1427749999857,
      "v": 96
    },
    {
      "midi": 41,
      "hit": false,
      "t": 136892.72024999995,
      "d": 96.42847499999334,
      "v": 82
    },
    {
      "midi": 36,
      "hit": false,
      "t": 136928.43449999997,
      "d": 742.8563999999897,
      "v": 84
    },
    {
      "midi": 39,
      "hit": false,
      "t": 137142.71999999994,
      "d": 96.42847499999334,
      "v": 60
    },
    {
      "midi": 47,
      "hit": false,
      "t": 137142.71999999994,
      "d": 103.57132499999716,
      "v": 82
    },
    {
      "midi": 48,
      "hit": false,
      "t": 137142.71999999997,
      "d": 735.7135499999858,
      "v": 87
    },
    {
      "midi": 63,
      "hit": false,
      "t": 137142.72,
      "d": 103.57132499999716,
      "v": 87
    },
    {
      "midi": 64,
      "hit": false,
      "t": 137464.14825,
      "d": 121.4284500000067,
      "v": 78
    },
    {
      "midi": 41,
      "hit": false,
      "t": 137499.86249999993,
      "d": 153.57127499999478,
      "v": 82
    },
    {
      "midi": 39,
      "hit": false,
      "t": 137571.29099999994,
      "d": 89.28562499998952,
      "v": 60
    },
    {
      "midi": 87,
      "hit": false,
      "t": 137785.57650000023,
      "d": 67.85707500000717,
      "v": 72
    },
    {
      "midi": 87,
      "hit": false,
      "t": 137892.71925000023,
      "d": 67.85707500000717,
      "v": 80
    },
    {
      "midi": 39,
      "hit": false,
      "t": 137999.86199999994,
      "d": 85.71419999998761,
      "v": 60
    },
    {
      "midi": 41,
      "hit": false,
      "t": 137999.86199999994,
      "d": 103.57132499999716,
      "v": 87
    },
    {
      "midi": 87,
      "hit": false,
      "t": 137999.86200000023,
      "d": 71.42850000000908,
      "v": 92
    },
    {
      "midi": 87,
      "hit": false,
      "t": 138107.00475000023,
      "d": 60.71422500000335,
      "v": 70
    },
    {
      "midi": 87,
      "hit": false,
      "t": 138214.14750000022,
      "d": 67.85707500000717,
      "v": 82
    },
    {
      "midi": 87,
      "hit": false,
      "t": 138321.29025000022,
      "d": 53.571374999999534,
      "v": 96
    },
    {
      "midi": 39,
      "hit": false,
      "t": 138428.43299999993,
      "d": 82.1427749999857,
      "v": 60
    },
    {
      "midi": 87,
      "hit": false,
      "t": 138428.43300000022,
      "d": 82.1427749999857,
      "v": 86
    },
    {
      "midi": 41,
      "hit": false,
      "t": 138607.00424999994,
      "d": 99.99989999999525,
      "v": 87
    },
    {
      "midi": 39,
      "hit": false,
      "t": 138857.00399999993,
      "d": 85.71419999998761,
      "v": 60
    },
    {
      "midi": 47,
      "hit": false,
      "t": 138857.00399999993,
      "d": 89.28562499998952,
      "v": 78
    },
    {
      "midi": 63,
      "hit": false,
      "t": 138857.00400000002,
      "d": 96.42847499999334,
      "v": 87
    },
    {
      "midi": 64,
      "hit": false,
      "t": 139178.43225,
      "d": 124.99987500000861,
      "v": 78
    },
    {
      "midi": 41,
      "hit": false,
      "t": 139214.14649999992,
      "d": 114.28560000000289,
      "v": 93
    },
    {
      "midi": 39,
      "hit": false,
      "t": 139285.57499999992,
      "d": 78.5713500000129,
      "v": 60
    },
    {
      "midi": 87,
      "hit": false,
      "t": 139499.8605000002,
      "d": 67.85707500000717,
      "v": 72
    },
    {
      "midi": 87,
      "hit": false,
      "t": 139607.0032500002,
      "d": 67.85707500000717,
      "v": 80
    },
    {
      "midi": 41,
      "hit": false,
      "t": 139714.14599999992,
      "d": 103.57132499999716,
      "v": 87
    },
    {
      "midi": 39,
      "hit": false,
      "t": 139714.14599999995,
      "d": 85.71419999998761,
      "v": 60
    },
    {
      "midi": 87,
      "hit": false,
      "t": 139714.1460000002,
      "d": 71.42850000000908,
      "v": 92
    },
    {
      "midi": 87,
      "hit": false,
      "t": 139821.2887500002,
      "d": 60.71422500000335,
      "v": 70
    },
    {
      "midi": 87,
      "hit": false,
      "t": 139928.4315000002,
      "d": 67.85707500000717,
      "v": 92
    },
    {
      "midi": 87,
      "hit": false,
      "t": 140035.5742500002,
      "d": 53.571374999999534,
      "v": 96
    },
    {
      "midi": 39,
      "hit": false,
      "t": 140142.71699999995,
      "d": 78.5713500000129,
      "v": 60
    },
    {
      "midi": 87,
      "hit": false,
      "t": 140142.7170000002,
      "d": 82.1427749999857,
      "v": 96
    },
    {
      "midi": 41,
      "hit": false,
      "t": 140321.28824999993,
      "d": 96.42847499999334,
      "v": 82
    },
    {
      "midi": 48,
      "hit": false,
      "t": 140542.71659999999,
      "d": 13678.557750000007,
      "v": 90
    },
    {
      "midi": 47,
      "hit": false,
      "t": 140571.2879999999,
      "d": 107.14274999999907,
      "v": 87
    },
    {
      "midi": 48,
      "hit": false,
      "t": 140571.28799999997,
      "d": 735.7135499999858,
      "v": 85
    },
    {
      "midi": 39,
      "hit": false,
      "t": 140571.28799999997,
      "d": 107.14274999999907,
      "v": 60
    },
    {
      "midi": 63,
      "hit": false,
      "t": 140571.28800000003,
      "d": 96.42847499999334,
      "v": 87
    },
    {
      "midi": 64,
      "hit": false,
      "t": 140892.71625000003,
      "d": 121.4284500000067,
      "v": 82
    },
    {
      "midi": 41,
      "hit": false,
      "t": 140928.4304999999,
      "d": 110.71417500000098,
      "v": 82
    },
    {
      "midi": 39,
      "hit": false,
      "t": 140999.85899999997,
      "d": 124.99987500000861,
      "v": 60
    },
    {
      "midi": 87,
      "hit": false,
      "t": 141214.1445000002,
      "d": 67.85707500000717,
      "v": 72
    },
    {
      "midi": 87,
      "hit": false,
      "t": 141321.2872500002,
      "d": 67.85707500000717,
      "v": 80
    },
    {
      "midi": 41,
      "hit": false,
      "t": 141428.4299999999,
      "d": 99.99989999999525,
      "v": 93
    },
    {
      "midi": 39,
      "hit": false,
      "t": 141428.42999999996,
      "d": 117.8570250000048,
      "v": 60
    },
    {
      "midi": 87,
      "hit": false,
      "t": 141428.4300000002,
      "d": 71.42850000000908,
      "v": 92
    },
    {
      "midi": 87,
      "hit": false,
      "t": 141535.5727500002,
      "d": 60.71422500000335,
      "v": 70
    },
    {
      "midi": 87,
      "hit": false,
      "t": 141642.7155000002,
      "d": 67.85707500000717,
      "v": 92
    },
    {
      "midi": 87,
      "hit": false,
      "t": 141749.8582500002,
      "d": 53.571374999999534,
      "v": 86
    },
    {
      "midi": 39,
      "hit": false,
      "t": 141857.00099999996,
      "d": 114.28560000000289,
      "v": 60
    },
    {
      "midi": 87,
      "hit": false,
      "t": 141857.0010000002,
      "d": 82.1427749999857,
      "v": 96
    },
    {
      "midi": 41,
      "hit": false,
      "t": 142035.5722499999,
      "d": 96.42847499999334,
      "v": 87
    },
    {
      "midi": 47,
      "hit": false,
      "t": 142285.5719999999,
      "d": 96.42847499999334,
      "v": 87
    },
    {
      "midi": 39,
      "hit": false,
      "t": 142285.57199999996,
      "d": 121.4284500000067,
      "v": 60
    },
    {
      "midi": 63,
      "hit": false,
      "t": 142285.57200000004,
      "d": 89.28562499998952,
      "v": 78
    },
    {
      "midi": 64,
      "hit": false,
      "t": 142607.00025000004,
      "d": 128.57130000001052,
      "v": 73
    },
    {
      "midi": 41,
      "hit": false,
      "t": 142642.71449999989,
      "d": 103.57132499999716,
      "v": 87
    },
    {
      "midi": 39,
      "hit": false,
      "t": 142714.14299999995,
      "d": 103.57132499999716,
      "v": 60
    },
    {
      "midi": 87,
      "hit": false,
      "t": 142928.42850000018,
      "d": 67.85707500000717,
      "v": 72
    },
    {
      "midi": 87,
      "hit": false,
      "t": 143035.57125000018,
      "d": 67.85707500000717,
      "v": 80
    },
    {
      "midi": 41,
      "hit": false,
      "t": 143142.7139999999,
      "d": 96.42847499999334,
      "v": 93
    },
    {
      "midi": 39,
      "hit": false,
      "t": 143142.71399999995,
      "d": 114.28560000000289,
      "v": 60
    },
    {
      "midi": 87,
      "hit": false,
      "t": 143142.71400000018,
      "d": 71.42850000000908,
      "v": 92
    },
    {
      "midi": 87,
      "hit": false,
      "t": 143249.85675000018,
      "d": 60.71422500000335,
      "v": 80
    },
    {
      "midi": 87,
      "hit": false,
      "t": 143356.99950000018,
      "d": 67.85707500000717,
      "v": 82
    },
    {
      "midi": 87,
      "hit": false,
      "t": 143464.14225000018,
      "d": 53.571374999999534,
      "v": 96
    },
    {
      "midi": 39,
      "hit": false,
      "t": 143571.28499999995,
      "d": 114.28560000000289,
      "v": 60
    },
    {
      "midi": 87,
      "hit": false,
      "t": 143571.28500000018,
      "d": 82.1427749999857,
      "v": 86
    },
    {
      "midi": 41,
      "hit": false,
      "t": 143749.8562499999,
      "d": 99.99989999999525,
      "v": 87
    },
    {
      "midi": 36,
      "hit": false,
      "t": 143785.57049999994,
      "d": 749.9992499999935,
      "v": 84
    },
    {
      "midi": 47,
      "hit": false,
      "t": 143999.85599999988,
      "d": 85.71419999998761,
      "v": 82
    },
    {
      "midi": 48,
      "hit": false,
      "t": 143999.85599999994,
      "d": 749.9992499999935,
      "v": 92
    },
    {
      "midi": 39,
      "hit": false,
      "t": 143999.85599999994,
      "d": 114.28560000000289,
      "v": 60
    },
    {
      "midi": 63,
      "hit": false,
      "t": 143999.85600000006,
      "d": 85.71419999998761,
      "v": 82
    },
    {
      "midi": 64,
      "hit": false,
      "t": 144321.28425000006,
      "d": 124.99987500000861,
      "v": 69
    },
    {
      "midi": 41,
      "hit": false,
      "t": 144356.99849999987,
      "d": 114.28560000000289,
      "v": 87
    },
    {
      "midi": 39,
      "hit": false,
      "t": 144428.42699999994,
      "d": 103.57132499999716,
      "v": 60
    },
    {
      "midi": 87,
      "hit": false,
      "t": 144642.71250000017,
      "d": 67.85707500000717,
      "v": 72
    },
    {
      "midi": 87,
      "hit": false,
      "t": 144749.85525000017,
      "d": 67.85707500000717,
      "v": 80
    },
    {
      "midi": 41,
      "hit": false,
      "t": 144856.99799999988,
      "d": 103.57132499999716,
      "v": 93
    },
    {
      "midi": 39,
      "hit": false,
      "t": 144856.99799999993,
      "d": 107.14274999999907,
      "v": 60
    },
    {
      "midi": 87,
      "hit": false,
      "t": 144856.99800000017,
      "d": 71.42850000000908,
      "v": 92
    },
    {
      "midi": 87,
      "hit": false,
      "t": 144964.14075000017,
      "d": 60.71422500000335,
      "v": 80
    },
    {
      "midi": 87,
      "hit": false,
      "t": 145071.28350000017,
      "d": 67.85707500000717,
      "v": 72
    },
    {
      "midi": 87,
      "hit": false,
      "t": 145178.42625000016,
      "d": 53.571374999999534,
      "v": 86
    },
    {
      "midi": 39,
      "hit": false,
      "t": 145285.56899999993,
      "d": 103.57132499999716,
      "v": 60
    },
    {
      "midi": 87,
      "hit": false,
      "t": 145285.56900000016,
      "d": 82.1427749999857,
      "v": 76
    },
    {
      "midi": 41,
      "hit": false,
      "t": 145464.14024999988,
      "d": 99.99989999999525,
      "v": 87
    },
    {
      "midi": 47,
      "hit": false,
      "t": 145714.13999999987,
      "d": 89.28562499998952,
      "v": 87
    },
    {
      "midi": 39,
      "hit": false,
      "t": 145714.13999999993,
      "d": 99.99989999999525,
      "v": 60
    },
    {
      "midi": 63,
      "hit": false,
      "t": 145714.14000000007,
      "d": 85.71419999998761,
      "v": 87
    },
    {
      "midi": 64,
      "hit": false,
      "t": 146035.56825000007,
      "d": 132.14272500001243,
      "v": 65
    },
    {
      "midi": 41,
      "hit": false,
      "t": 146071.28249999986,
      "d": 110.71417500000098,
      "v": 87
    },
    {
      "midi": 39,
      "hit": false,
      "t": 146142.71099999992,
      "d": 110.71417500000098,
      "v": 60
    },
    {
      "midi": 87,
      "hit": false,
      "t": 146356.99650000015,
      "d": 67.85707500000717,
      "v": 72
    },
    {
      "midi": 87,
      "hit": false,
      "t": 146464.13925000015,
      "d": 67.85707500000717,
      "v": 80
    },
    {
      "midi": 41,
      "hit": false,
      "t": 146571.28199999986,
      "d": 103.57132499999716,
      "v": 93
    },
    {
      "midi": 39,
      "hit": false,
      "t": 146571.28199999992,
      "d": 92.85704999999143,
      "v": 60
    },
    {
      "midi": 87,
      "hit": false,
      "t": 146571.28200000015,
      "d": 71.42850000000908,
      "v": 92
    },
    {
      "midi": 87,
      "hit": false,
      "t": 146678.42475000015,
      "d": 60.71422500000335,
      "v": 80
    },
    {
      "midi": 87,
      "hit": false,
      "t": 146785.56750000015,
      "d": 67.85707500000717,
      "v": 82
    },
    {
      "midi": 87,
      "hit": false,
      "t": 146892.71025000015,
      "d": 53.571374999999534,
      "v": 76
    },
    {
      "midi": 39,
      "hit": false,
      "t": 146999.85299999992,
      "d": 103.57132499999716,
      "v": 60
    },
    {
      "midi": 87,
      "hit": false,
      "t": 146999.85300000015,
      "d": 82.1427749999857,
      "v": 76
    },
    {
      "midi": 41,
      "hit": false,
      "t": 147178.42424999987,
      "d": 89.28562499998952,
      "v": 93
    },
    {
      "midi": 47,
      "hit": false,
      "t": 147428.42399999985,
      "d": 89.28562499998952,
      "v": 87
    },
    {
      "midi": 39,
      "hit": false,
      "t": 147428.4239999999,
      "d": 99.99989999999525,
      "v": 60
    },
    {
      "midi": 48,
      "hit": false,
      "t": 147428.42399999994,
      "d": 746.4278249999916,
      "v": 97
    },
    {
      "midi": 63,
      "hit": false,
      "t": 147428.4240000001,
      "d": 139.28557499998715,
      "v": 82
    },
    {
      "midi": 36,
      "hit": false,
      "t": 147449.85254999998,
      "d": 6782.136075000017,
      "v": 90
    },
    {
      "midi": 64,
      "hit": false,
      "t": 147749.85225000008,
      "d": 142.85699999998906,
      "v": 78
    },
    {
      "midi": 41,
      "hit": false,
      "t": 147785.56649999984,
      "d": 110.71417500000098,
      "v": 93
    },
    {
      "midi": 39,
      "hit": false,
      "t": 147856.9949999999,
      "d": 96.42847499999334,
      "v": 60
    },
    {
      "midi": 41,
      "hit": false,
      "t": 148285.56599999985,
      "d": 92.85704999999143,
      "v": 93
    },
    {
      "midi": 39,
      "hit": false,
      "t": 148285.5659999999,
      "d": 99.99989999999525,
      "v": 60
    },
    {
      "midi": 39,
      "hit": false,
      "t": 148714.1369999999,
      "d": 99.99989999999525,
      "v": 60
    },
    {
      "midi": 41,
      "hit": false,
      "t": 148892.70824999985,
      "d": 117.8570250000048,
      "v": 78
    },
    {
      "midi": 47,
      "hit": false,
      "t": 149142.70799999987,
      "d": 107.14274999999907,
      "v": 87
    },
    {
      "midi": 39,
      "hit": false,
      "t": 149142.7079999999,
      "d": 99.99989999999525,
      "v": 60
    },
    {
      "midi": 63,
      "hit": false,
      "t": 149142.70800000007,
      "d": 107.14274999999907,
      "v": 82
    },
    {
      "midi": 64,
      "hit": false,
      "t": 149464.13625000007,
      "d": 121.4284500000067,
      "v": 87
    },
    {
      "midi": 41,
      "hit": false,
      "t": 149499.85049999985,
      "d": 114.28560000000289,
      "v": 82
    },
    {
      "midi": 39,
      "hit": false,
      "t": 149571.2789999999,
      "d": 103.57132499999716,
      "v": 60
    },
    {
      "midi": 41,
      "hit": false,
      "t": 149999.84999999986,
      "d": 117.8570250000048,
      "v": 73
    },
    {
      "midi": 39,
      "hit": false,
      "t": 149999.8499999999,
      "d": 92.85704999999143,
      "v": 60
    },
    {
      "midi": 39,
      "hit": false,
      "t": 150428.4209999999,
      "d": 103.57132499999716,
      "v": 60
    },
    {
      "midi": 41,
      "hit": false,
      "t": 150606.99224999986,
      "d": 96.42847499999334,
      "v": 82
    },
    {
      "midi": 36,
      "hit": false,
      "t": 150642.70649999994,
      "d": 646.4279249999963,
      "v": 84
    },
    {
      "midi": 47,
      "hit": false,
      "t": 150856.99199999985,
      "d": 103.57132499999716,
      "v": 82
    },
    {
      "midi": 39,
      "hit": false,
      "t": 150856.99199999988,
      "d": 99.99989999999525,
      "v": 60
    },
    {
      "midi": 48,
      "hit": false,
      "t": 150856.99199999994,
      "d": 667.8564750000078,
      "v": 97
    },
    {
      "midi": 63,
      "hit": false,
      "t": 150856.9920000001,
      "d": 103.57132499999716,
      "v": 87
    },
    {
      "midi": 64,
      "hit": false,
      "t": 151178.42025000008,
      "d": 121.4284500000067,
      "v": 78
    },
    {
      "midi": 41,
      "hit": false,
      "t": 151214.13449999984,
      "d": 153.57127499999478,
      "v": 82
    },
    {
      "midi": 39,
      "hit": false,
      "t": 151285.56299999988,
      "d": 103.57132499999716,
      "v": 60
    },
    {
      "midi": 41,
      "hit": false,
      "t": 151714.13399999985,
      "d": 103.57132499999716,
      "v": 87
    },
    {
      "midi": 39,
      "hit": false,
      "t": 151714.13399999987,
      "d": 107.14274999999907,
      "v": 60
    },
    {
      "midi": 39,
      "hit": false,
      "t": 152142.70499999987,
      "d": 96.42847499999334,
      "v": 60
    },
    {
      "midi": 41,
      "hit": false,
      "t": 152321.27624999985,
      "d": 99.99989999999525,
      "v": 87
    },
    {
      "midi": 47,
      "hit": false,
      "t": 152571.27599999984,
      "d": 89.28562499998952,
      "v": 78
    },
    {
      "midi": 39,
      "hit": false,
      "t": 152571.27599999987,
      "d": 96.42847499999334,
      "v": 60
    },
    {
      "midi": 63,
      "hit": false,
      "t": 152571.2760000001,
      "d": 96.42847499999334,
      "v": 87
    },
    {
      "midi": 64,
      "hit": false,
      "t": 152892.7042500001,
      "d": 124.99987500000861,
      "v": 78
    },
    {
      "midi": 41,
      "hit": false,
      "t": 152928.41849999983,
      "d": 114.28560000000289,
      "v": 93
    },
    {
      "midi": 39,
      "hit": false,
      "t": 152999.84699999986,
      "d": 92.85704999999143,
      "v": 60
    },
    {
      "midi": 41,
      "hit": false,
      "t": 153428.41799999983,
      "d": 103.57132499999716,
      "v": 87
    },
    {
      "midi": 39,
      "hit": false,
      "t": 153428.41799999986,
      "d": 85.71419999998761,
      "v": 60
    },
    {
      "midi": 39,
      "hit": false,
      "t": 153856.98899999986,
      "d": 107.14274999999907,
      "v": 60
    },
    {
      "midi": 41,
      "hit": false,
      "t": 154035.56024999983,
      "d": 96.42847499999334,
      "v": 82
    },
    {
      "midi": 36,
      "hit": false,
      "t": 154071.27449999994,
      "d": 746.4278249999916,
      "v": 87
    },
    {
      "midi": 37,
      "hit": false,
      "t": 154199.84579999998,
      "d": 6914.278800000029,
      "v": 90
    },
    {
      "midi": 49,
      "hit": false,
      "t": 154214.1315,
      "d": 6903.564525000023,
      "v": 90
    },
    {
      "midi": 47,
      "hit": false,
      "t": 154285.55999999982,
      "d": 107.14274999999907,
      "v": 87
    },
    {
      "midi": 39,
      "hit": false,
      "t": 154285.55999999985,
      "d": 99.99989999999525,
      "v": 60
    },
    {
      "midi": 48,
      "hit": false,
      "t": 154285.55999999994,
      "d": 660.713625000004,
      "v": 97
    },
    {
      "midi": 63,
      "hit": false,
      "t": 154285.5600000001,
      "d": 96.42847499999334,
      "v": 87
    },
    {
      "midi": 64,
      "hit": false,
      "t": 154606.9882500001,
      "d": 121.4284500000067,
      "v": 82
    },
    {
      "midi": 41,
      "hit": false,
      "t": 154642.7024999998,
      "d": 110.71417500000098,
      "v": 82
    },
    {
      "midi": 39,
      "hit": false,
      "t": 154714.13099999985,
      "d": 89.28562499998952,
      "v": 60
    },
    {
      "midi": 41,
      "hit": false,
      "t": 155142.70199999982,
      "d": 99.99989999999525,
      "v": 93
    },
    {
      "midi": 39,
      "hit": false,
      "t": 155142.70199999984,
      "d": 92.85704999999143,
      "v": 60
    },
    {
      "midi": 39,
      "hit": false,
      "t": 155571.27299999984,
      "d": 89.28562499998952,
      "v": 60
    },
    {
      "midi": 41,
      "hit": false,
      "t": 155749.84424999982,
      "d": 96.42847499999334,
      "v": 87
    },
    {
      "midi": 47,
      "hit": false,
      "t": 155999.8439999998,
      "d": 96.42847499999334,
      "v": 87
    },
    {
      "midi": 39,
      "hit": false,
      "t": 155999.84399999984,
      "d": 89.28562499998952,
      "v": 60
    },
    {
      "midi": 63,
      "hit": false,
      "t": 155999.84400000013,
      "d": 89.28562499998952,
      "v": 78
    },
    {
      "midi": 64,
      "hit": false,
      "t": 156321.27225000013,
      "d": 128.57130000001052,
      "v": 73
    },
    {
      "midi": 41,
      "hit": false,
      "t": 156356.9864999998,
      "d": 103.57132499999716,
      "v": 87
    },
    {
      "midi": 39,
      "hit": false,
      "t": 156428.41499999983,
      "d": 89.28562499998952,
      "v": 60
    },
    {
      "midi": 41,
      "hit": false,
      "t": 156856.9859999998,
      "d": 96.42847499999334,
      "v": 93
    },
    {
      "midi": 39,
      "hit": false,
      "t": 156856.98599999983,
      "d": 85.71419999998761,
      "v": 60
    },
    {
      "midi": 39,
      "hit": false,
      "t": 157285.55699999983,
      "d": 89.28562499998952,
      "v": 60
    },
    {
      "midi": 41,
      "hit": false,
      "t": 157464.1282499998,
      "d": 99.99989999999525,
      "v": 87
    },
    {
      "midi": 36,
      "hit": false,
      "t": 157499.84249999994,
      "d": 657.1422000000312,
      "v": 87
    },
    {
      "midi": 60,
      "hit": false,
      "t": 157506.98534999994,
      "d": 74.99992500001099,
      "v": 75
    },
    {
      "midi": 47,
      "hit": false,
      "t": 157714.1279999998,
      "d": 85.71419999998761,
      "v": 82
    },
    {
      "midi": 39,
      "hit": false,
      "t": 157714.12799999982,
      "d": 96.42847499999334,
      "v": 60
    },
    {
      "midi": 48,
      "hit": false,
      "t": 157714.12799999997,
      "d": 674.9993250000116,
      "v": 77
    },
    {
      "midi": 63,
      "hit": false,
      "t": 157714.12800000014,
      "d": 85.71419999998761,
      "v": 82
    },
    {
      "midi": 60,
      "hit": false,
      "t": 157724.84227499997,
      "d": 114.28560000000289,
      "v": 74
    },
    {
      "midi": 64,
      "hit": false,
      "t": 158035.55625000014,
      "d": 124.99987500000861,
      "v": 69
    },
    {
      "midi": 41,
      "hit": false,
      "t": 158071.27049999978,
      "d": 114.28560000000289,
      "v": 87
    },
    {
      "midi": 39,
      "hit": false,
      "t": 158142.69899999982,
      "d": 89.28562499998952,
      "v": 60
    },
    {
      "midi": 41,
      "hit": false,
      "t": 158571.2699999998,
      "d": 103.57132499999716,
      "v": 93
    },
    {
      "midi": 39,
      "hit": false,
      "t": 158571.26999999981,
      "d": 85.71419999998761,
      "v": 60
    },
    {
      "midi": 39,
      "hit": false,
      "t": 158999.8409999998,
      "d": 82.1427749999857,
      "v": 60
    },
    {
      "midi": 41,
      "hit": false,
      "t": 159178.4122499998,
      "d": 99.99989999999525,
      "v": 87
    },
    {
      "midi": 60,
      "hit": false,
      "t": 159185.55509999997,
      "d": 82.1427749999857,
      "v": 76
    },
    {
      "midi": 60,
      "hit": false,
      "t": 159399.84059999997,
      "d": 107.14274999999907,
      "v": 72
    },
    {
      "midi": 47,
      "hit": false,
      "t": 159428.41199999978,
      "d": 89.28562499998952,
      "v": 87
    },
    {
      "midi": 39,
      "hit": false,
      "t": 159428.4119999998,
      "d": 85.71419999998761,
      "v": 60
    },
    {
      "midi": 63,
      "hit": false,
      "t": 159428.41200000016,
      "d": 85.71419999998761,
      "v": 87
    },
    {
      "midi": 64,
      "hit": false,
      "t": 159749.84025000015,
      "d": 132.14272500001243,
      "v": 65
    },
    {
      "midi": 41,
      "hit": false,
      "t": 159785.55449999977,
      "d": 110.71417500000098,
      "v": 87
    },
    {
      "midi": 39,
      "hit": false,
      "t": 159856.9829999998,
      "d": 78.5713500000129,
      "v": 60
    },
    {
      "midi": 60,
      "hit": false,
      "t": 160035.55424999996,
      "d": 71.42850000000908,
      "v": 68
    },
    {
      "midi": 60,
      "hit": false,
      "t": 160242.69689999998,
      "d": 124.99987500000861,
      "v": 62
    },
    {
      "midi": 41,
      "hit": false,
      "t": 160285.55399999977,
      "d": 103.57132499999716,
      "v": 93
    },
    {
      "midi": 39,
      "hit": false,
      "t": 160285.55399999983,
      "d": 85.71419999998761,
      "v": 60
    },
    {
      "midi": 39,
      "hit": false,
      "t": 160714.12499999983,
      "d": 78.5713500000129,
      "v": 60
    },
    {
      "midi": 60,
      "hit": false,
      "t": 160864.12485,
      "d": 78.5713500000129,
      "v": 62
    },
    {
      "midi": 41,
      "hit": false,
      "t": 160892.69624999978,
      "d": 89.28562499998952,
      "v": 83
    },
    {
      "midi": 48,
      "hit": false,
      "t": 160928.4105,
      "d": 689.2850249999901,
      "v": 77
    },
    {
      "midi": 60,
      "hit": false,
      "t": 161089.124625,
      "d": 117.8570250000048,
      "v": 58
    },
    {
      "midi": 51,
      "hit": false,
      "t": 161114.1246,
      "d": 6899.9931000000215,
      "v": 90
    },
    {
      "midi": 39,
      "hit": false,
      "t": 161114.1246,
      "d": 6907.135950000025,
      "v": 90
    },
    {
      "midi": 47,
      "hit": false,
      "t": 161142.69599999976,
      "d": 89.28562499998952,
      "v": 87
    },
    {
      "midi": 39,
      "hit": false,
      "t": 161142.69599999985,
      "d": 107.14274999999907,
      "v": 60
    },
    {
      "midi": 36,
      "hit": false,
      "t": 161142.696,
      "d": 682.1421750000154,
      "v": 77
    },
    {
      "midi": 41,
      "hit": false,
      "t": 161499.83849999975,
      "d": 110.71417500000098,
      "v": 93
    },
    {
      "midi": 39,
      "hit": false,
      "t": 161571.26699999985,
      "d": 124.99987500000861,
      "v": 60
    },
    {
      "midi": 60,
      "hit": false,
      "t": 161746.266825,
      "d": 78.5713500000129,
      "v": 62
    },
    {
      "midi": 60,
      "hit": false,
      "t": 161960.55232500003,
      "d": 110.71417500000098,
      "v": 60
    },
    {
      "midi": 41,
      "hit": false,
      "t": 161999.83799999976,
      "d": 92.85704999999143,
      "v": 93
    },
    {
      "midi": 39,
      "hit": false,
      "t": 161999.83799999984,
      "d": 117.8570250000048,
      "v": 60
    },
    {
      "midi": 60,
      "hit": false,
      "t": 162592.69455000001,
      "d": 82.1427749999857,
      "v": 68
    },
    {
      "midi": 60,
      "hit": false,
      "t": 162828.4086,
      "d": 92.85705000002054,
      "v": 80
    },
    {
      "midi": 36,
      "hit": false,
      "t": 162831.980025,
      "d": 503.57092500000726,
      "v": 82
    },
    {
      "midi": 48,
      "hit": false,
      "t": 162846.265725,
      "d": 560.7137250000087,
      "v": 82
    },
    {
      "midi": 60,
      "hit": false,
      "t": 163517.693625,
      "d": 78.5713500000129,
      "v": 65
    },
    {
      "midi": 60,
      "hit": false,
      "t": 163717.69342500003,
      "d": 96.42847499999334,
      "v": 66
    },
    {
      "midi": 60,
      "hit": false,
      "t": 164410.54987500003,
      "d": 74.99992500001099,
      "v": 60
    },
    {
      "midi": 60,
      "hit": false,
      "t": 164635.54965000003,
      "d": 85.71419999998761,
      "v": 72
    },
    {
      "midi": 60,
      "hit": false,
      "t": 166092.69105000002,
      "d": 78.5713500000129,
      "v": 58
    },
    {
      "midi": 60,
      "hit": false,
      "t": 166324.83367500003,
      "d": 82.1427749999857,
      "v": 60
    },
    {
      "midi": 60,
      "hit": false,
      "t": 167792.68935000003,
      "d": 78.5713500000129,
      "v": 66
    },
    {
      "midi": 41,
      "hit": false,
      "t": 167989.11772500002,
      "d": 29374.97062499955,
      "v": 90
    },
    {
      "midi": 53,
      "hit": false,
      "t": 167992.68915000002,
      "d": 29353.54207499954,
      "v": 90
    },
    {
      "midi": 60,
      "hit": false,
      "t": 168006.97485000006,
      "d": 92.85704999999143,
      "v": 72
    },
    {
      "midi": 60,
      "hit": false,
      "t": 169521.25905000005,
      "d": 71.42850000000908,
      "v": 50
    },
    {
      "midi": 60,
      "hit": false,
      "t": 169724.83027500007,
      "d": 99.99989999999525,
      "v": 62
    },
    {
      "midi": 60,
      "hit": false,
      "t": 171253.40017500008,
      "d": 78.5713500000129,
      "v": 40
    },
    {
      "midi": 60,
      "hit": false,
      "t": 171460.5428250001,
      "d": 110.71417500000098,
      "v": 60
    },
    {
      "midi": 60,
      "hit": false,
      "t": 173024.8269750001,
      "d": 78.5713500000129,
      "v": 60
    },
    {
      "midi": 60,
      "hit": false,
      "t": 173239.11247500012,
      "d": 96.42847499999334,
      "v": 74
    },
    {
      "midi": 60,
      "hit": false,
      "t": 174699.8253000001,
      "d": 67.85707500000717,
      "v": 75
    },
    {
      "midi": 43,
      "hit": false,
      "t": 174874.82512500003,
      "d": 82.1427749999857,
      "v": 79
    },
    {
      "midi": 45,
      "hit": false,
      "t": 174878.39655000006,
      "d": 78.5713500000129,
      "v": 95
    },
    {
      "midi": 61,
      "hit": false,
      "t": 174878.39655000006,
      "d": 135.71415000001434,
      "v": 74
    },
    {
      "midi": 36,
      "hit": false,
      "t": 174878.39655000006,
      "d": 146.42842500002007,
      "v": 115
    },
    {
      "midi": 60,
      "hit": false,
      "t": 174878.39655000012,
      "d": 96.42847499999334,
      "v": 77
    },
    {
      "midi": 62,
      "hit": false,
      "t": 175021.25355000008,
      "d": 135.71415000001434,
      "v": 78
    },
    {
      "midi": 43,
      "hit": false,
      "t": 175146.25342500003,
      "d": 82.1427749999857,
      "v": 69
    },
    {
      "midi": 45,
      "hit": false,
      "t": 175164.1105500001,
      "d": 74.99992500001099,
      "v": 83
    },
    {
      "midi": 64,
      "hit": false,
      "t": 175164.1105500001,
      "d": 182.14267500001006,
      "v": 77
    },
    {
      "midi": 41,
      "hit": false,
      "t": 175303.39612500003,
      "d": 74.99992500001099,
      "v": 62
    },
    {
      "midi": 43,
      "hit": false,
      "t": 175306.96755000012,
      "d": 71.42849999997998,
      "v": 57
    },
    {
      "midi": 61,
      "hit": false,
      "t": 175306.96755000012,
      "d": 160.7141249999986,
      "v": 84
    },
    {
      "midi": 43,
      "hit": false,
      "t": 175435.53885000004,
      "d": 74.99992500001099,
      "v": 59
    },
    {
      "midi": 47,
      "hit": false,
      "t": 175449.8245500001,
      "d": 82.14277500001481,
      "v": 59
    },
    {
      "midi": 62,
      "hit": false,
      "t": 175449.8245500001,
      "d": 146.42842500002007,
      "v": 77
    },
    {
      "midi": 41,
      "hit": false,
      "t": 175589.11012500006,
      "d": 117.8570250000048,
      "v": 59
    },
    {
      "midi": 43,
      "hit": false,
      "t": 175592.68155000012,
      "d": 107.14274999999907,
      "v": 68
    },
    {
      "midi": 64,
      "hit": false,
      "t": 175592.68155000012,
      "d": 171.42839999997523,
      "v": 58
    },
    {
      "midi": 43,
      "hit": false,
      "t": 175735.53855000006,
      "d": 74.99992500001099,
      "v": 79
    },
    {
      "midi": 45,
      "hit": false,
      "t": 175735.5385500001,
      "d": 78.5713499999838,
      "v": 93
    },
    {
      "midi": 36,
      "hit": false,
      "t": 175735.5385500001,
      "d": 128.57129999998142,
      "v": 117
    },
    {
      "midi": 61,
      "hit": false,
      "t": 175735.5385500001,
      "d": 153.57127499999478,
      "v": 83
    },
    {
      "midi": 62,
      "hit": false,
      "t": 175878.3955500001,
      "d": 164.28555000002962,
      "v": 85
    },
    {
      "midi": 43,
      "hit": false,
      "t": 176021.25255000006,
      "d": 78.5713500000129,
      "v": 73
    },
    {
      "midi": 45,
      "hit": false,
      "t": 176021.25255000012,
      "d": 67.85707500000717,
      "v": 81
    },
    {
      "midi": 64,
      "hit": false,
      "t": 176021.25255000012,
      "d": 153.5712750000239,
      "v": 69
    },
    {
      "midi": 41,
      "hit": false,
      "t": 176156.96670000008,
      "d": 67.85707500000717,
      "v": 65
    },
    {
      "midi": 43,
      "hit": false,
      "t": 176164.10955000014,
      "d": 82.14277500001481,
      "v": 70
    },
    {
      "midi": 61,
      "hit": false,
      "t": 176164.10955000014,
      "d": 135.71415000001434,
      "v": 79
    },
    {
      "midi": 43,
      "hit": false,
      "t": 176292.6808500001,
      "d": 82.1427749999857,
      "v": 59
    },
    {
      "midi": 47,
      "hit": false,
      "t": 176306.96655000016,
      "d": 71.42850000000908,
      "v": 65
    },
    {
      "midi": 62,
      "hit": false,
      "t": 176306.96655000016,
      "d": 117.8570250000048,
      "v": 81
    },
    {
      "midi": 60,
      "hit": false,
      "t": 176399.82360000012,
      "d": 78.5713499999838,
      "v": 67
    },
    {
      "midi": 41,
      "hit": false,
      "t": 176417.68072500007,
      "d": 74.99992500001099,
      "v": 83
    },
    {
      "midi": 36,
      "hit": false,
      "t": 176442.6807000001,
      "d": 2746.425825000013,
      "v": 70
    },
    {
      "midi": 43,
      "hit": false,
      "t": 176449.82355000018,
      "d": 74.99992500001099,
      "v": 79
    },
    {
      "midi": 64,
      "hit": false,
      "t": 176449.82355000018,
      "d": 92.85705000002054,
      "v": 95
    },
    {
      "midi": 43,
      "hit": false,
      "t": 176571.2520000001,
      "d": 74.99992500001099,
      "v": 86
    },
    {
      "midi": 45,
      "hit": false,
      "t": 176592.6805500002,
      "d": 78.5713500000129,
      "v": 97
    },
    {
      "midi": 61,
      "hit": false,
      "t": 176592.6805500002,
      "d": 107.14274999999907,
      "v": 110
    },
    {
      "midi": 36,
      "hit": false,
      "t": 176592.6805500002,
      "d": 167.85697500000242,
      "v": 115
    },
    {
      "midi": 48,
      "hit": false,
      "t": 176610.53767500012,
      "d": 2685.7116000000096,
      "v": 70
    },
    {
      "midi": 60,
      "hit": false,
      "t": 176617.68052500012,
      "d": 99.99989999999525,
      "v": 60
    },
    {
      "midi": 62,
      "hit": false,
      "t": 176735.53755000018,
      "d": 153.5712750000239,
      "v": 69
    },
    {
      "midi": 43,
      "hit": false,
      "t": 176853.3945750001,
      "d": 71.42850000000908,
      "v": 73
    },
    {
      "midi": 45,
      "hit": false,
      "t": 176878.3945500002,
      "d": 82.14277500001481,
      "v": 81
    },
    {
      "midi": 64,
      "hit": false,
      "t": 176878.3945500002,
      "d": 185.71410000001197,
      "v": 75
    },
    {
      "midi": 41,
      "hit": false,
      "t": 176992.68015000012,
      "d": 82.1427749999857,
      "v": 62
    },
    {
      "midi": 43,
      "hit": false,
      "t": 177021.25155000022,
      "d": 82.1427749999857,
      "v": 60
    },
    {
      "midi": 61,
      "hit": false,
      "t": 177021.25155000022,
      "d": 139.28557499998715,
      "v": 77
    },
    {
      "midi": 43,
      "hit": false,
      "t": 177135.5371500001,
      "d": 82.1427749999857,
      "v": 49
    },
    {
      "midi": 47,
      "hit": false,
      "t": 177164.1085500002,
      "d": 71.42850000000908,
      "v": 68
    },
    {
      "midi": 62,
      "hit": false,
      "t": 177164.1085500002,
      "d": 171.42840000000433,
      "v": 72
    },
    {
      "midi": 41,
      "hit": false,
      "t": 177274.8227250001,
      "d": 149.99984999999288,
      "v": 75
    },
    {
      "midi": 43,
      "hit": false,
      "t": 177306.96555000023,
      "d": 110.71417499997187,
      "v": 75
    },
    {
      "midi": 64,
      "hit": false,
      "t": 177306.96555000023,
      "d": 167.85697499997332,
      "v": 67
    },
    {
      "midi": 43,
      "hit": false,
      "t": 177446.2511250001,
      "d": 74.99992500001099,
      "v": 77
    },
    {
      "midi": 45,
      "hit": false,
      "t": 177449.8225500002,
      "d": 74.99992500001099,
      "v": 93
    },
    {
      "midi": 61,
      "hit": false,
      "t": 177449.8225500002,
      "d": 128.57130000001052,
      "v": 84
    },
    {
      "midi": 36,
      "hit": false,
      "t": 177449.8225500002,
      "d": 171.42840000000433,
      "v": 99
    },
    {
      "midi": 62,
      "hit": false,
      "t": 177592.6795500002,
      "d": 135.71414999998524,
      "v": 70
    },
    {
      "midi": 43,
      "hit": false,
      "t": 177724.8222750001,
      "d": 78.5713500000129,
      "v": 68
    },
    {
      "midi": 45,
      "hit": false,
      "t": 177735.5365500002,
      "d": 78.5713500000129,
      "v": 66
    },
    {
      "midi": 64,
      "hit": false,
      "t": 177735.5365500002,
      "d": 164.28555000002962,
      "v": 80
    },
    {
      "midi": 41,
      "hit": false,
      "t": 177864.10785000012,
      "d": 82.1427749999857,
      "v": 56
    },
    {
      "midi": 43,
      "hit": false,
      "t": 177878.3935500002,
      "d": 85.71420000001672,
      "v": 65
    },
    {
      "midi": 61,
      "hit": false,
      "t": 177878.3935500002,
      "d": 121.4284500000067,
      "v": 68
    },
    {
      "midi": 43,
      "hit": false,
      "t": 178006.9648500001,
      "d": 85.71419999998761,
      "v": 55
    },
    {
      "midi": 47,
      "hit": false,
      "t": 178021.25055000023,
      "d": 67.85707500000717,
      "v": 69
    },
    {
      "midi": 62,
      "hit": false,
      "t": 178021.25055000023,
      "d": 153.5712750000239,
      "v": 74
    },
    {
      "midi": 41,
      "hit": false,
      "t": 178160.5361250001,
      "d": 135.71415000001434,
      "v": 68
    },
    {
      "midi": 43,
      "hit": false,
      "t": 178164.10755000025,
      "d": 110.71417500000098,
      "v": 69
    },
    {
      "midi": 64,
      "hit": false,
      "t": 178164.10755000025,
      "d": 142.85699999998906,
      "v": 68
    },
    {
      "midi": 45,
      "hit": false,
      "t": 178306.96455000024,
      "d": 85.71419999998761,
      "v": 97
    },
    {
      "midi": 61,
      "hit": false,
      "t": 178306.96455000024,
      "d": 135.71414999998524,
      "v": 74
    },
    {
      "midi": 36,
      "hit": false,
      "t": 178306.96455000024,
      "d": 153.57127499999478,
      "v": 109
    },
    {
      "midi": 43,
      "hit": false,
      "t": 178314.10740000012,
      "d": 82.1427749999857,
      "v": 81
    },
    {
      "midi": 62,
      "hit": false,
      "t": 178449.82155000023,
      "d": 139.28557500001625,
      "v": 76
    },
    {
      "midi": 45,
      "hit": false,
      "t": 178592.67855000024,
      "d": 82.1427749999857,
      "v": 73
    },
    {
      "midi": 64,
      "hit": false,
      "t": 178592.67855000024,
      "d": 182.14267499998095,
      "v": 80
    },
    {
      "midi": 43,
      "hit": false,
      "t": 178599.8214000001,
      "d": 82.1427749999857,
      "v": 65
    },
    {
      "midi": 43,
      "hit": false,
      "t": 178735.53555000023,
      "d": 85.71419999998761,
      "v": 68
    },
    {
      "midi": 61,
      "hit": false,
      "t": 178735.53555000023,
      "d": 124.99987499997951,
      "v": 78
    },
    {
      "midi": 41,
      "hit": false,
      "t": 178742.6784000001,
      "d": 82.1427749999857,
      "v": 63
    },
    {
      "midi": 47,
      "hit": false,
      "t": 178878.39255000022,
      "d": 71.42850000000908,
      "v": 60
    },
    {
      "midi": 62,
      "hit": false,
      "t": 178878.39255000022,
      "d": 139.28557500001625,
      "v": 70
    },
    {
      "midi": 43,
      "hit": false,
      "t": 178881.96397500008,
      "d": 82.1427749999857,
      "v": 49
    },
    {
      "midi": 43,
      "hit": false,
      "t": 179021.24955000024,
      "d": 121.4284500000067,
      "v": 69
    },
    {
      "midi": 64,
      "hit": false,
      "t": 179021.24955000024,
      "d": 171.42840000000433,
      "v": 79
    },
    {
      "midi": 41,
      "hit": false,
      "t": 179024.82097500007,
      "d": 132.14272500001243,
      "v": 66
    },
    {
      "midi": 45,
      "hit": false,
      "t": 179164.10655000026,
      "d": 82.1427749999857,
      "v": 95
    },
    {
      "midi": 36,
      "hit": false,
      "t": 179164.10655000026,
      "d": 128.57129999998142,
      "v": 108
    },
    {
      "midi": 61,
      "hit": false,
      "t": 179164.10655000026,
      "d": 132.14272499998333,
      "v": 77
    },
    {
      "midi": 43,
      "hit": false,
      "t": 179178.3922500001,
      "d": 82.1427749999857,
      "v": 88
    },
    {
      "midi": 62,
      "hit": false,
      "t": 179306.96355000025,
      "d": 153.57127499999478,
      "v": 73
    },
    {
      "midi": 36,
      "hit": false,
      "t": 179449.82055000012,
      "d": 103.57132499999716,
      "v": 74
    },
    {
      "midi": 45,
      "hit": false,
      "t": 179449.82055000024,
      "d": 82.14277500001481,
      "v": 69
    },
    {
      "midi": 64,
      "hit": false,
      "t": 179449.82055000024,
      "d": 164.28555000002962,
      "v": 70
    },
    {
      "midi": 43,
      "hit": false,
      "t": 179464.10625000007,
      "d": 74.99992500001099,
      "v": 63
    },
    {
      "midi": 43,
      "hit": false,
      "t": 179592.67755000025,
      "d": 82.14277500001481,
      "v": 66
    },
    {
      "midi": 61,
      "hit": false,
      "t": 179592.67755000025,
      "d": 132.14272500001243,
      "v": 80
    },
    {
      "midi": 41,
      "hit": false,
      "t": 179596.24897500008,
      "d": 92.85704999999143,
      "v": 70
    },
    {
      "midi": 47,
      "hit": false,
      "t": 179735.53455000027,
      "d": 64.28565000000526,
      "v": 54
    },
    {
      "midi": 62,
      "hit": false,
      "t": 179735.53455000027,
      "d": 135.71415000001434,
      "v": 73
    },
    {
      "midi": 43,
      "hit": false,
      "t": 179746.24882500008,
      "d": 82.1427749999857,
      "v": 47
    },
    {
      "midi": 36,
      "hit": false,
      "t": 179771.24880000012,
      "d": 89.28562499998952,
      "v": 77
    },
    {
      "midi": 43,
      "hit": false,
      "t": 179878.3915500003,
      "d": 110.71417500000098,
      "v": 69
    },
    {
      "midi": 64,
      "hit": false,
      "t": 179878.3915500003,
      "d": 171.42839999997523,
      "v": 77
    },
    {
      "midi": 41,
      "hit": false,
      "t": 179881.96297500006,
      "d": 117.8570250000048,
      "v": 56
    },
    {
      "midi": 45,
      "hit": false,
      "t": 180021.24855000028,
      "d": 78.5713499999838,
      "v": 93
    },
    {
      "midi": 61,
      "hit": false,
      "t": 180021.24855000028,
      "d": 132.14272499998333,
      "v": 88
    },
    {
      "midi": 36,
      "hit": false,
      "t": 180021.24855000028,
      "d": 146.42842499999097,
      "v": 115
    },
    {
      "midi": 43,
      "hit": false,
      "t": 180031.96282500005,
      "d": 85.71419999998761,
      "v": 81
    },
    {
      "midi": 36,
      "hit": false,
      "t": 180031.9628250001,
      "d": 2024.9979750000057,
      "v": 67
    },
    {
      "midi": 48,
      "hit": false,
      "t": 180049.81995000012,
      "d": 2060.7122249999957,
      "v": 68
    },
    {
      "midi": 62,
      "hit": false,
      "t": 180164.10555000027,
      "d": 146.42842499999097,
      "v": 85
    },
    {
      "midi": 45,
      "hit": false,
      "t": 180306.96255000026,
      "d": 71.42850000000908,
      "v": 75
    },
    {
      "midi": 64,
      "hit": false,
      "t": 180306.96255000026,
      "d": 182.14267500001006,
      "v": 74
    },
    {
      "midi": 43,
      "hit": false,
      "t": 180310.53397500003,
      "d": 82.1427749999857,
      "v": 62
    },
    {
      "midi": 41,
      "hit": false,
      "t": 180435.53385,
      "d": 82.1427749999857,
      "v": 62
    },
    {
      "midi": 43,
      "hit": false,
      "t": 180449.81955000028,
      "d": 82.1427749999857,
      "v": 60
    },
    {
      "midi": 61,
      "hit": false,
      "t": 180449.81955000028,
      "d": 142.85699999998906,
      "v": 88
    },
    {
      "midi": 43,
      "hit": false,
      "t": 180585.5337,
      "d": 82.1427749999857,
      "v": 51
    },
    {
      "midi": 47,
      "hit": false,
      "t": 180592.67655000027,
      "d": 67.85707500000717,
      "v": 57
    },
    {
      "midi": 62,
      "hit": false,
      "t": 180592.67655000027,
      "d": 142.85700000001816,
      "v": 66
    },
    {
      "midi": 41,
      "hit": false,
      "t": 180728.3907,
      "d": 121.4284500000067,
      "v": 65
    },
    {
      "midi": 43,
      "hit": false,
      "t": 180735.53355000028,
      "d": 117.8570250000048,
      "v": 65
    },
    {
      "midi": 64,
      "hit": false,
      "t": 180735.53355000028,
      "d": 160.7141250000277,
      "v": 67
    },
    {
      "midi": 43,
      "hit": false,
      "t": 180874.819125,
      "d": 82.1427749999857,
      "v": 73
    },
    {
      "midi": 45,
      "hit": false,
      "t": 180878.3905500003,
      "d": 71.42850000000908,
      "v": 91
    },
    {
      "midi": 36,
      "hit": false,
      "t": 180878.3905500003,
      "d": 128.57130000001052,
      "v": 117
    },
    {
      "midi": 61,
      "hit": false,
      "t": 180878.3905500003,
      "d": 153.5712750000239,
      "v": 80
    },
    {
      "midi": 62,
      "hit": false,
      "t": 181021.24755000032,
      "d": 142.85700000001816,
      "v": 84
    },
    {
      "midi": 43,
      "hit": false,
      "t": 181156.96169999999,
      "d": 82.1427749999857,
      "v": 65
    },
    {
      "midi": 45,
      "hit": false,
      "t": 181164.10455000034,
      "d": 78.5713500000129,
      "v": 75
    },
    {
      "midi": 64,
      "hit": false,
      "t": 181164.10455000034,
      "d": 167.85697500003153,
      "v": 77
    },
    {
      "midi": 41,
      "hit": false,
      "t": 181299.81869999997,
      "d": 78.5713500000129,
      "v": 62
    },
    {
      "midi": 43,
      "hit": false,
      "t": 181306.96155000036,
      "d": 78.5713500000129,
      "v": 65
    },
    {
      "midi": 61,
      "hit": false,
      "t": 181306.96155000036,
      "d": 139.28557500001625,
      "v": 75
    },
    {
      "midi": 43,
      "hit": false,
      "t": 181435.53285,
      "d": 89.28562499998952,
      "v": 54
    },
    {
      "midi": 47,
      "hit": false,
      "t": 181449.81855000037,
      "d": 71.42850000000908,
      "v": 56
    },
    {
      "midi": 62,
      "hit": false,
      "t": 181449.81855000037,
      "d": 139.28557500001625,
      "v": 73
    },
    {
      "midi": 41,
      "hit": false,
      "t": 181589.10412499998,
      "d": 103.57132499999716,
      "v": 66
    },
    {
      "midi": 43,
      "hit": false,
      "t": 181592.6755500004,
      "d": 117.8570250000048,
      "v": 68
    },
    {
      "midi": 64,
      "hit": false,
      "t": 181592.6755500004,
      "d": 157.1427000000258,
      "v": 63
    },
    {
      "midi": 43,
      "hit": false,
      "t": 181717.675425,
      "d": 89.28562499998952,
      "v": 79
    },
    {
      "midi": 45,
      "hit": false,
      "t": 181735.5325500004,
      "d": 78.5713500000129,
      "v": 95
    },
    {
      "midi": 61,
      "hit": false,
      "t": 181735.5325500004,
      "d": 135.71415000001434,
      "v": 74
    },
    {
      "midi": 36,
      "hit": false,
      "t": 181735.5325500004,
      "d": 146.42842500002007,
      "v": 115
    },
    {
      "midi": 62,
      "hit": false,
      "t": 181878.38955000043,
      "d": 135.71415000001434,
      "v": 78
    },
    {
      "midi": 43,
      "hit": false,
      "t": 182014.10369999998,
      "d": 82.1427749999857,
      "v": 63
    },
    {
      "midi": 45,
      "hit": false,
      "t": 182021.24655000045,
      "d": 74.99992500001099,
      "v": 83
    },
    {
      "midi": 64,
      "hit": false,
      "t": 182021.24655000045,
      "d": 182.14267500001006,
      "v": 77
    },
    {
      "midi": 41,
      "hit": false,
      "t": 182149.81784999996,
      "d": 74.99992500001099,
      "v": 68
    },
    {
      "midi": 43,
      "hit": false,
      "t": 182164.10355000047,
      "d": 71.42849999997998,
      "v": 57
    },
    {
      "midi": 61,
      "hit": false,
      "t": 182164.10355000047,
      "d": 160.7141249999986,
      "v": 84
    },
    {
      "midi": 43,
      "hit": false,
      "t": 182285.53199999998,
      "d": 82.1427749999857,
      "v": 54
    },
    {
      "midi": 47,
      "hit": false,
      "t": 182306.96055000045,
      "d": 82.14277500001481,
      "v": 59
    },
    {
      "midi": 62,
      "hit": false,
      "t": 182306.96055000045,
      "d": 146.42842500002007,
      "v": 77
    },
    {
      "midi": 41,
      "hit": false,
      "t": 182431.96042499997,
      "d": 121.4284500000067,
      "v": 70
    },
    {
      "midi": 43,
      "hit": false,
      "t": 182449.81755000047,
      "d": 107.14274999999907,
      "v": 68
    },
    {
      "midi": 64,
      "hit": false,
      "t": 182449.81755000047,
      "d": 171.42839999997523,
      "v": 58
    },
    {
      "midi": 43,
      "hit": false,
      "t": 182581.96027499996,
      "d": 85.71419999998761,
      "v": 75
    },
    {
      "midi": 45,
      "hit": false,
      "t": 182592.67455000046,
      "d": 78.5713499999838,
      "v": 93
    },
    {
      "midi": 36,
      "hit": false,
      "t": 182592.67455000046,
      "d": 128.57129999998142,
      "v": 117
    },
    {
      "midi": 61,
      "hit": false,
      "t": 182592.67455000046,
      "d": 153.57127499999478,
      "v": 83
    },
    {
      "midi": 62,
      "hit": false,
      "t": 182735.53155000045,
      "d": 164.28555000002962,
      "v": 85
    },
    {
      "midi": 45,
      "hit": false,
      "t": 182878.38855000047,
      "d": 67.85707500000717,
      "v": 81
    },
    {
      "midi": 64,
      "hit": false,
      "t": 182878.38855000047,
      "d": 153.5712750000239,
      "v": 69
    },
    {
      "midi": 43,
      "hit": false,
      "t": 182881.95997499995,
      "d": 89.28562499998952,
      "v": 69
    },
    {
      "midi": 43,
      "hit": false,
      "t": 183021.2455500005,
      "d": 82.14277500001481,
      "v": 70
    },
    {
      "midi": 61,
      "hit": false,
      "t": 183021.2455500005,
      "d": 135.71415000001434,
      "v": 79
    },
    {
      "midi": 41,
      "hit": false,
      "t": 183053.38837499992,
      "d": 64.28565000000526,
      "v": 57
    },
    {
      "midi": 47,
      "hit": false,
      "t": 183164.1025500005,
      "d": 71.42850000000908,
      "v": 65
    },
    {
      "midi": 62,
      "hit": false,
      "t": 183164.1025500005,
      "d": 117.8570250000048,
      "v": 81
    },
    {
      "midi": 43,
      "hit": false,
      "t": 183185.53109999993,
      "d": 82.1427749999857,
      "v": 55
    },
    {
      "midi": 36,
      "hit": false,
      "t": 183256.95960000012,
      "d": 2835.7114500000025,
      "v": 68
    },
    {
      "midi": 43,
      "hit": false,
      "t": 183306.95955000052,
      "d": 74.99992500001099,
      "v": 79
    },
    {
      "midi": 64,
      "hit": false,
      "t": 183306.95955000052,
      "d": 92.85705000002054,
      "v": 95
    },
    {
      "midi": 41,
      "hit": false,
      "t": 183328.38809999992,
      "d": 107.14274999999907,
      "v": 63
    },
    {
      "midi": 48,
      "hit": false,
      "t": 183421.24515000012,
      "d": 2710.711574999994,
      "v": 58
    },
    {
      "midi": 45,
      "hit": false,
      "t": 183449.81655000054,
      "d": 78.5713500000129,
      "v": 97
    },
    {
      "midi": 61,
      "hit": false,
      "t": 183449.81655000054,
      "d": 107.14274999999907,
      "v": 110
    },
    {
      "midi": 36,
      "hit": false,
      "t": 183449.81655000054,
      "d": 167.85697500000242,
      "v": 115
    },
    {
      "midi": 43,
      "hit": false,
      "t": 183474.81652499991,
      "d": 85.71419999998761,
      "v": 79
    },
    {
      "midi": 62,
      "hit": false,
      "t": 183592.67355000053,
      "d": 153.5712750000239,
      "v": 69
    },
    {
      "midi": 45,
      "hit": false,
      "t": 183735.53055000055,
      "d": 82.14277500001481,
      "v": 81
    },
    {
      "midi": 64,
      "hit": false,
      "t": 183735.53055000055,
      "d": 185.71410000001197,
      "v": 75
    },
    {
      "midi": 43,
      "hit": false,
      "t": 183742.6733999999,
      "d": 78.5713500000129,
      "v": 63
    },
    {
      "midi": 43,
      "hit": false,
      "t": 183878.38755000057,
      "d": 82.1427749999857,
      "v": 60
    },
    {
      "midi": 61,
      "hit": false,
      "t": 183878.38755000057,
      "d": 139.28557499998715,
      "v": 77
    },
    {
      "midi": 41,
      "hit": false,
      "t": 183881.95897499993,
      "d": 74.99992500001099,
      "v": 63
    },
    {
      "midi": 43,
      "hit": false,
      "t": 184017.67312499994,
      "d": 74.99992500001099,
      "v": 49
    },
    {
      "midi": 47,
      "hit": false,
      "t": 184021.24455000056,
      "d": 71.42850000000908,
      "v": 68
    },
    {
      "midi": 62,
      "hit": false,
      "t": 184021.24455000056,
      "d": 171.42840000000433,
      "v": 72
    },
    {
      "midi": 43,
      "hit": false,
      "t": 184164.10155000057,
      "d": 110.71417499997187,
      "v": 75
    },
    {
      "midi": 64,
      "hit": false,
      "t": 184164.10155000057,
      "d": 167.85697499997332,
      "v": 67
    },
    {
      "midi": 41,
      "hit": false,
      "t": 184171.24439999997,
      "d": 110.71417500000098,
      "v": 60
    },
    {
      "midi": 43,
      "hit": false,
      "t": 184299.81569999998,
      "d": 82.1427749999857,
      "v": 75
    },
    {
      "midi": 45,
      "hit": false,
      "t": 184306.95855000053,
      "d": 74.99992500001099,
      "v": 93
    },
    {
      "midi": 61,
      "hit": false,
      "t": 184306.95855000053,
      "d": 128.57130000001052,
      "v": 84
    },
    {
      "midi": 36,
      "hit": false,
      "t": 184306.95855000053,
      "d": 171.42840000000433,
      "v": 99
    },
    {
      "midi": 62,
      "hit": false,
      "t": 184449.81555000055,
      "d": 135.71414999998524,
      "v": 70
    },
    {
      "midi": 43,
      "hit": false,
      "t": 184578.38684999995,
      "d": 82.1427749999857,
      "v": 68
    },
    {
      "midi": 45,
      "hit": false,
      "t": 184592.67255000054,
      "d": 78.5713500000129,
      "v": 66
    },
    {
      "midi": 64,
      "hit": false,
      "t": 184592.67255000054,
      "d": 164.28555000002962,
      "v": 80
    },
    {
      "midi": 41,
      "hit": false,
      "t": 184717.67242499994,
      "d": 82.1427749999857,
      "v": 60
    },
    {
      "midi": 43,
      "hit": false,
      "t": 184735.52955000056,
      "d": 85.71420000001672,
      "v": 65
    },
    {
      "midi": 61,
      "hit": false,
      "t": 184735.52955000056,
      "d": 121.4284500000067,
      "v": 68
    },
    {
      "midi": 43,
      "hit": false,
      "t": 184864.10084999993,
      "d": 78.5713500000129,
      "v": 51
    },
    {
      "midi": 47,
      "hit": false,
      "t": 184878.38655000058,
      "d": 67.85707500000717,
      "v": 69
    },
    {
      "midi": 62,
      "hit": false,
      "t": 184878.38655000058,
      "d": 153.5712750000239,
      "v": 74
    },
    {
      "midi": 41,
      "hit": false,
      "t": 185021.24354999996,
      "d": 110.71417500000098,
      "v": 68
    },
    {
      "midi": 43,
      "hit": false,
      "t": 185021.2435500006,
      "d": 110.71417500000098,
      "v": 69
    },
    {
      "midi": 64,
      "hit": false,
      "t": 185021.2435500006,
      "d": 142.85699999998906,
      "v": 68
    },
    {
      "midi": 43,
      "hit": false,
      "t": 185164.10054999994,
      "d": 82.1427749999857,
      "v": 70
    },
    {
      "midi": 45,
      "hit": false,
      "t": 185164.10055000058,
      "d": 85.71419999998761,
      "v": 97
    },
    {
      "midi": 61,
      "hit": false,
      "t": 185164.10055000058,
      "d": 135.71414999998524,
      "v": 74
    },
    {
      "midi": 36,
      "hit": false,
      "t": 185164.10055000058,
      "d": 153.57127499999478,
      "v": 109
    },
    {
      "midi": 62,
      "hit": false,
      "t": 185306.95755000057,
      "d": 139.28557500001625,
      "v": 76
    },
    {
      "midi": 43,
      "hit": false,
      "t": 185435.52884999994,
      "d": 85.71419999998761,
      "v": 66
    },
    {
      "midi": 45,
      "hit": false,
      "t": 185449.8145500006,
      "d": 82.1427749999857,
      "v": 73
    },
    {
      "midi": 64,
      "hit": false,
      "t": 185449.8145500006,
      "d": 182.14267499998095,
      "v": 80
    },
    {
      "midi": 41,
      "hit": false,
      "t": 185592.67154999994,
      "d": 74.99992500001099,
      "v": 63
    },
    {
      "midi": 43,
      "hit": false,
      "t": 185592.67155000058,
      "d": 85.71419999998761,
      "v": 68
    },
    {
      "midi": 61,
      "hit": false,
      "t": 185592.67155000058,
      "d": 124.99987499997951,
      "v": 78
    },
    {
      "midi": 43,
      "hit": false,
      "t": 185728.38569999996,
      "d": 74.99992500001099,
      "v": 52
    },
    {
      "midi": 47,
      "hit": false,
      "t": 185735.52855000057,
      "d": 71.42850000000908,
      "v": 60
    },
    {
      "midi": 62,
      "hit": false,
      "t": 185735.52855000057,
      "d": 139.28557500001625,
      "v": 70
    },
    {
      "midi": 43,
      "hit": false,
      "t": 185878.3855500006,
      "d": 121.4284500000067,
      "v": 69
    },
    {
      "midi": 64,
      "hit": false,
      "t": 185878.3855500006,
      "d": 171.42840000000433,
      "v": 79
    },
    {
      "midi": 41,
      "hit": false,
      "t": 185885.52839999995,
      "d": 99.99989999999525,
      "v": 65
    },
    {
      "midi": 45,
      "hit": false,
      "t": 186021.2425500006,
      "d": 82.1427749999857,
      "v": 95
    },
    {
      "midi": 36,
      "hit": false,
      "t": 186021.2425500006,
      "d": 128.57129999998142,
      "v": 108
    },
    {
      "midi": 61,
      "hit": false,
      "t": 186021.2425500006,
      "d": 132.14272499998333,
      "v": 77
    },
    {
      "midi": 43,
      "hit": false,
      "t": 186028.38539999994,
      "d": 78.5713500000129,
      "v": 77
    },
    {
      "midi": 62,
      "hit": false,
      "t": 186164.0995500006,
      "d": 153.57127499999478,
      "v": 73
    },
    {
      "midi": 36,
      "hit": false,
      "t": 186289.0994250001,
      "d": 132.14272500001243,
      "v": 60
    },
    {
      "midi": 43,
      "hit": false,
      "t": 186296.24227499997,
      "d": 82.1427749999857,
      "v": 63
    },
    {
      "midi": 45,
      "hit": false,
      "t": 186306.95655000058,
      "d": 82.14277500001481,
      "v": 69
    },
    {
      "midi": 64,
      "hit": false,
      "t": 186306.95655000058,
      "d": 164.28555000002962,
      "v": 70
    },
    {
      "midi": 41,
      "hit": false,
      "t": 186446.24212499996,
      "d": 60.71422500000335,
      "v": 51
    },
    {
      "midi": 43,
      "hit": false,
      "t": 186449.8135500006,
      "d": 82.14277500001481,
      "v": 66
    },
    {
      "midi": 61,
      "hit": false,
      "t": 186449.8135500006,
      "d": 132.14272500001243,
      "v": 80
    },
    {
      "midi": 43,
      "hit": false,
      "t": 186571.24199999997,
      "d": 82.1427749999857,
      "v": 55
    },
    {
      "midi": 47,
      "hit": false,
      "t": 186592.67055000062,
      "d": 64.28565000000526,
      "v": 54
    },
    {
      "midi": 62,
      "hit": false,
      "t": 186592.67055000062,
      "d": 135.71415000001434,
      "v": 73
    },
    {
      "midi": 36,
      "hit": false,
      "t": 186639.09907500012,
      "d": 2857.139999999985,
      "v": 74
    },
    {
      "midi": 41,
      "hit": false,
      "t": 186724.81327499996,
      "d": 96.42847499999334,
      "v": 65
    },
    {
      "midi": 43,
      "hit": false,
      "t": 186735.52755000064,
      "d": 110.71417500000098,
      "v": 69
    },
    {
      "midi": 64,
      "hit": false,
      "t": 186735.52755000064,
      "d": 171.42839999997523,
      "v": 77
    },
    {
      "midi": 43,
      "hit": false,
      "t": 186874.81312499996,
      "d": 89.28562499998952,
      "v": 83
    },
    {
      "midi": 45,
      "hit": false,
      "t": 186878.38455000063,
      "d": 78.5713499999838,
      "v": 93
    },
    {
      "midi": 61,
      "hit": false,
      "t": 186878.38455000063,
      "d": 132.14272499998333,
      "v": 88
    },
    {
      "midi": 36,
      "hit": false,
      "t": 186878.38455000063,
      "d": 146.42842499999097,
      "v": 115
    },
    {
      "midi": 48,
      "hit": false,
      "t": 186903.38452500012,
      "d": 2664.283049999998,
      "v": 41
    },
    {
      "midi": 62,
      "hit": false,
      "t": 187021.24155000062,
      "d": 146.42842499999097,
      "v": 85
    },
    {
      "midi": 43,
      "hit": false,
      "t": 187146.24142499996,
      "d": 74.99992500001099,
      "v": 60
    },
    {
      "midi": 45,
      "hit": false,
      "t": 187164.0985500006,
      "d": 71.42850000000908,
      "v": 75
    },
    {
      "midi": 64,
      "hit": false,
      "t": 187164.0985500006,
      "d": 182.14267500001006,
      "v": 74
    },
    {
      "midi": 41,
      "hit": false,
      "t": 187285.52699999997,
      "d": 82.1427749999857,
      "v": 68
    },
    {
      "midi": 43,
      "hit": false,
      "t": 187306.95555000062,
      "d": 82.1427749999857,
      "v": 60
    },
    {
      "midi": 61,
      "hit": false,
      "t": 187306.95555000062,
      "d": 142.85699999998906,
      "v": 88
    },
    {
      "midi": 43,
      "hit": false,
      "t": 187435.52684999997,
      "d": 78.5713500000129,
      "v": 52
    },
    {
      "midi": 47,
      "hit": false,
      "t": 187449.8125500006,
      "d": 67.85707500000717,
      "v": 57
    },
    {
      "midi": 62,
      "hit": false,
      "t": 187449.8125500006,
      "d": 142.85700000001816,
      "v": 66
    },
    {
      "midi": 41,
      "hit": false,
      "t": 187585.5267,
      "d": 107.14274999999907,
      "v": 69
    },
    {
      "midi": 43,
      "hit": false,
      "t": 187592.66955000063,
      "d": 117.8570250000048,
      "v": 65
    },
    {
      "midi": 64,
      "hit": false,
      "t": 187592.66955000063,
      "d": 160.7141250000277,
      "v": 67
    },
    {
      "midi": 43,
      "hit": false,
      "t": 187728.38369999998,
      "d": 85.71419999998761,
      "v": 83
    },
    {
      "midi": 45,
      "hit": false,
      "t": 187735.52655000065,
      "d": 71.42850000000908,
      "v": 91
    },
    {
      "midi": 36,
      "hit": false,
      "t": 187735.52655000065,
      "d": 128.57130000001052,
      "v": 117
    },
    {
      "midi": 61,
      "hit": false,
      "t": 187735.52655000065,
      "d": 153.5712750000239,
      "v": 80
    },
    {
      "midi": 62,
      "hit": false,
      "t": 187878.38355000067,
      "d": 142.85700000001816,
      "v": 84
    },
    {
      "midi": 43,
      "hit": false,
      "t": 188010.52627499995,
      "d": 82.1427749999857,
      "v": 65
    },
    {
      "midi": 45,
      "hit": false,
      "t": 188021.2405500007,
      "d": 78.5713500000129,
      "v": 75
    },
    {
      "midi": 64,
      "hit": false,
      "t": 188021.2405500007,
      "d": 167.85697500003153,
      "v": 77
    },
    {
      "midi": 41,
      "hit": false,
      "t": 188156.95469999994,
      "d": 82.1427749999857,
      "v": 66
    },
    {
      "midi": 43,
      "hit": false,
      "t": 188164.0975500007,
      "d": 78.5713500000129,
      "v": 65
    },
    {
      "midi": 61,
      "hit": false,
      "t": 188164.0975500007,
      "d": 139.28557500001625,
      "v": 75
    },
    {
      "midi": 43,
      "hit": false,
      "t": 188303.38312499993,
      "d": 74.99992500001099,
      "v": 59
    },
    {
      "midi": 47,
      "hit": false,
      "t": 188306.95455000072,
      "d": 71.42850000000908,
      "v": 56
    },
    {
      "midi": 62,
      "hit": false,
      "t": 188306.95455000072,
      "d": 139.28557500001625,
      "v": 73
    },
    {
      "midi": 43,
      "hit": false,
      "t": 188449.81155000074,
      "d": 117.8570250000048,
      "v": 68
    },
    {
      "midi": 64,
      "hit": false,
      "t": 188449.81155000074,
      "d": 157.1427000000258,
      "v": 63
    },
    {
      "midi": 41,
      "hit": false,
      "t": 188453.38297499996,
      "d": 107.14274999999907,
      "v": 62
    },
    {
      "midi": 43,
      "hit": false,
      "t": 188589.09712499994,
      "d": 82.1427749999857,
      "v": 79
    },
    {
      "midi": 45,
      "hit": false,
      "t": 188592.66855000076,
      "d": 78.5713500000129,
      "v": 95
    },
    {
      "midi": 61,
      "hit": false,
      "t": 188592.66855000076,
      "d": 135.71415000001434,
      "v": 74
    },
    {
      "midi": 36,
      "hit": false,
      "t": 188592.66855000076,
      "d": 146.42842500002007,
      "v": 115
    },
    {
      "midi": 62,
      "hit": false,
      "t": 188735.52555000078,
      "d": 135.71415000001434,
      "v": 78
    },
    {
      "midi": 43,
      "hit": false,
      "t": 188860.52542499994,
      "d": 82.1427749999857,
      "v": 69
    },
    {
      "midi": 45,
      "hit": false,
      "t": 188878.3825500008,
      "d": 74.99992500001099,
      "v": 83
    },
    {
      "midi": 64,
      "hit": false,
      "t": 188878.3825500008,
      "d": 182.14267500001006,
      "v": 77
    },
    {
      "midi": 41,
      "hit": false,
      "t": 189017.66812499994,
      "d": 74.99992500001099,
      "v": 62
    },
    {
      "midi": 43,
      "hit": false,
      "t": 189021.2395500008,
      "d": 71.42849999997998,
      "v": 57
    },
    {
      "midi": 61,
      "hit": false,
      "t": 189021.2395500008,
      "d": 160.7141249999986,
      "v": 84
    },
    {
      "midi": 43,
      "hit": false,
      "t": 189149.81084999995,
      "d": 74.99992500001099,
      "v": 59
    },
    {
      "midi": 47,
      "hit": false,
      "t": 189164.0965500008,
      "d": 82.14277500001481,
      "v": 59
    },
    {
      "midi": 62,
      "hit": false,
      "t": 189164.0965500008,
      "d": 146.42842500002007,
      "v": 77
    },
    {
      "midi": 41,
      "hit": false,
      "t": 189303.38212499997,
      "d": 117.8570250000048,
      "v": 59
    },
    {
      "midi": 43,
      "hit": false,
      "t": 189306.95355000082,
      "d": 107.14274999999907,
      "v": 68
    },
    {
      "midi": 64,
      "hit": false,
      "t": 189306.95355000082,
      "d": 171.42839999997523,
      "v": 58
    },
    {
      "midi": 43,
      "hit": false,
      "t": 189449.81054999997,
      "d": 74.99992500001099,
      "v": 79
    },
    {
      "midi": 45,
      "hit": false,
      "t": 189449.8105500008,
      "d": 78.5713499999838,
      "v": 93
    },
    {
      "midi": 36,
      "hit": false,
      "t": 189449.8105500008,
      "d": 128.57129999998142,
      "v": 117
    },
    {
      "midi": 61,
      "hit": false,
      "t": 189449.8105500008,
      "d": 153.57127499999478,
      "v": 83
    },
    {
      "midi": 62,
      "hit": false,
      "t": 189592.6675500008,
      "d": 164.28555000002962,
      "v": 85
    },
    {
      "midi": 36,
      "hit": false,
      "t": 189706.9531500001,
      "d": 482.1423749999667,
      "v": 60
    },
    {
      "midi": 43,
      "hit": false,
      "t": 189735.52454999997,
      "d": 78.5713500000129,
      "v": 73
    },
    {
      "midi": 45,
      "hit": false,
      "t": 189735.52455000082,
      "d": 67.85707500000717,
      "v": 81
    },
    {
      "midi": 64,
      "hit": false,
      "t": 189735.52455000082,
      "d": 153.5712750000239,
      "v": 69
    },
    {
      "midi": 41,
      "hit": false,
      "t": 189871.2387,
      "d": 67.85707500000717,
      "v": 65
    },
    {
      "midi": 43,
      "hit": false,
      "t": 189878.38155000083,
      "d": 82.14277500001481,
      "v": 70
    },
    {
      "midi": 61,
      "hit": false,
      "t": 189878.38155000083,
      "d": 135.71415000001434,
      "v": 79
    },
    {
      "midi": 43,
      "hit": false,
      "t": 190006.95285,
      "d": 82.1427749999857,
      "v": 59
    },
    {
      "midi": 48,
      "hit": false,
      "t": 190014.0957000001,
      "d": 89.28562499998952,
      "v": 47
    },
    {
      "midi": 47,
      "hit": false,
      "t": 190021.23855000085,
      "d": 71.42850000000908,
      "v": 65
    },
    {
      "midi": 62,
      "hit": false,
      "t": 190021.23855000085,
      "d": 117.8570250000048,
      "v": 81
    },
    {
      "midi": 41,
      "hit": false,
      "t": 190131.95272499998,
      "d": 74.99992500001099,
      "v": 83
    },
    {
      "midi": 43,
      "hit": false,
      "t": 190164.09555000087,
      "d": 74.99992500001099,
      "v": 79
    },
    {
      "midi": 64,
      "hit": false,
      "t": 190164.09555000087,
      "d": 92.85705000002054,
      "v": 95
    },
    {
      "midi": 43,
      "hit": false,
      "t": 190285.524,
      "d": 74.99992500001099,
      "v": 86
    },
    {
      "midi": 45,
      "hit": false,
      "t": 190306.9525500009,
      "d": 78.5713500000129,
      "v": 97
    },
    {
      "midi": 61,
      "hit": false,
      "t": 190306.9525500009,
      "d": 107.14274999999907,
      "v": 110
    },
    {
      "midi": 36,
      "hit": false,
      "t": 190306.9525500009,
      "d": 167.85697500000242,
      "v": 115
    },
    {
      "midi": 48,
      "hit": false,
      "t": 190317.66682500008,
      "d": 2589.2831250000163,
      "v": 80
    },
    {
      "midi": 36,
      "hit": false,
      "t": 190335.5239500001,
      "d": 2578.5688500000106,
      "v": 67
    },
    {
      "midi": 62,
      "hit": false,
      "t": 190449.80955000088,
      "d": 153.5712750000239,
      "v": 69
    },
    {
      "midi": 43,
      "hit": false,
      "t": 190567.666575,
      "d": 71.42850000000908,
      "v": 73
    },
    {
      "midi": 45,
      "hit": false,
      "t": 190592.6665500009,
      "d": 82.14277500001481,
      "v": 81
    },
    {
      "midi": 64,
      "hit": false,
      "t": 190592.6665500009,
      "d": 185.71410000001197,
      "v": 75
    },
    {
      "midi": 41,
      "hit": false,
      "t": 190706.95215000003,
      "d": 82.1427749999857,
      "v": 62
    },
    {
      "midi": 43,
      "hit": false,
      "t": 190735.52355000091,
      "d": 82.1427749999857,
      "v": 60
    },
    {
      "midi": 61,
      "hit": false,
      "t": 190735.52355000091,
      "d": 139.28557499998715,
      "v": 77
    },
    {
      "midi": 43,
      "hit": false,
      "t": 190849.80915000002,
      "d": 82.1427749999857,
      "v": 49
    },
    {
      "midi": 47,
      "hit": false,
      "t": 190878.3805500009,
      "d": 71.42850000000908,
      "v": 68
    },
    {
      "midi": 62,
      "hit": false,
      "t": 190878.3805500009,
      "d": 171.42840000000433,
      "v": 72
    },
    {
      "midi": 41,
      "hit": false,
      "t": 190989.094725,
      "d": 149.99984999999288,
      "v": 75
    },
    {
      "midi": 43,
      "hit": false,
      "t": 191021.23755000092,
      "d": 110.71417499997187,
      "v": 75
    },
    {
      "midi": 64,
      "hit": false,
      "t": 191021.23755000092,
      "d": 167.85697499997332,
      "v": 67
    },
    {
      "midi": 43,
      "hit": false,
      "t": 191160.523125,
      "d": 74.99992500001099,
      "v": 77
    },
    {
      "midi": 45,
      "hit": false,
      "t": 191164.09455000088,
      "d": 74.99992500001099,
      "v": 93
    },
    {
      "midi": 61,
      "hit": false,
      "t": 191164.09455000088,
      "d": 128.57130000001052,
      "v": 84
    },
    {
      "midi": 36,
      "hit": false,
      "t": 191164.09455000088,
      "d": 171.42840000000433,
      "v": 99
    },
    {
      "midi": 62,
      "hit": false,
      "t": 191306.9515500009,
      "d": 135.71414999998524,
      "v": 70
    },
    {
      "midi": 43,
      "hit": false,
      "t": 191439.094275,
      "d": 78.5713500000129,
      "v": 68
    },
    {
      "midi": 45,
      "hit": false,
      "t": 191449.8085500009,
      "d": 78.5713500000129,
      "v": 66
    },
    {
      "midi": 64,
      "hit": false,
      "t": 191449.8085500009,
      "d": 164.28555000002962,
      "v": 80
    },
    {
      "midi": 41,
      "hit": false,
      "t": 191578.37985000003,
      "d": 82.1427749999857,
      "v": 56
    },
    {
      "midi": 43,
      "hit": false,
      "t": 191592.6655500009,
      "d": 85.71420000001672,
      "v": 65
    },
    {
      "midi": 61,
      "hit": false,
      "t": 191592.6655500009,
      "d": 121.4284500000067,
      "v": 68
    },
    {
      "midi": 43,
      "hit": false,
      "t": 191721.23685000002,
      "d": 85.71419999998761,
      "v": 55
    },
    {
      "midi": 47,
      "hit": false,
      "t": 191735.52255000093,
      "d": 67.85707500000717,
      "v": 69
    },
    {
      "midi": 62,
      "hit": false,
      "t": 191735.52255000093,
      "d": 153.5712750000239,
      "v": 74
    },
    {
      "midi": 41,
      "hit": false,
      "t": 191874.808125,
      "d": 135.71415000001434,
      "v": 68
    },
    {
      "midi": 43,
      "hit": false,
      "t": 191878.37955000094,
      "d": 110.71417500000098,
      "v": 69
    },
    {
      "midi": 64,
      "hit": false,
      "t": 191878.37955000094,
      "d": 142.85699999998906,
      "v": 68
    },
    {
      "midi": 45,
      "hit": false,
      "t": 192021.23655000093,
      "d": 85.71419999998761,
      "v": 97
    },
    {
      "midi": 61,
      "hit": false,
      "t": 192021.23655000093,
      "d": 135.71414999998524,
      "v": 74
    },
    {
      "midi": 36,
      "hit": false,
      "t": 192021.23655000093,
      "d": 153.57127499999478,
      "v": 109
    },
    {
      "midi": 43,
      "hit": false,
      "t": 192028.37940000003,
      "d": 82.1427749999857,
      "v": 81
    },
    {
      "midi": 62,
      "hit": false,
      "t": 192164.09355000092,
      "d": 139.28557500001625,
      "v": 76
    },
    {
      "midi": 45,
      "hit": false,
      "t": 192306.95055000094,
      "d": 82.1427749999857,
      "v": 73
    },
    {
      "midi": 64,
      "hit": false,
      "t": 192306.95055000094,
      "d": 182.14267499998095,
      "v": 80
    },
    {
      "midi": 43,
      "hit": false,
      "t": 192314.0934,
      "d": 82.1427749999857,
      "v": 65
    },
    {
      "midi": 43,
      "hit": false,
      "t": 192449.80755000093,
      "d": 85.71419999998761,
      "v": 68
    },
    {
      "midi": 61,
      "hit": false,
      "t": 192449.80755000093,
      "d": 124.99987499997951,
      "v": 78
    },
    {
      "midi": 41,
      "hit": false,
      "t": 192456.9504,
      "d": 82.1427749999857,
      "v": 63
    },
    {
      "midi": 47,
      "hit": false,
      "t": 192592.66455000092,
      "d": 71.42850000000908,
      "v": 60
    },
    {
      "midi": 62,
      "hit": false,
      "t": 192592.66455000092,
      "d": 139.28557500001625,
      "v": 70
    },
    {
      "midi": 43,
      "hit": false,
      "t": 192596.235975,
      "d": 82.1427749999857,
      "v": 49
    },
    {
      "midi": 43,
      "hit": false,
      "t": 192735.52155000094,
      "d": 121.4284500000067,
      "v": 69
    },
    {
      "midi": 64,
      "hit": false,
      "t": 192735.52155000094,
      "d": 171.42840000000433,
      "v": 79
    },
    {
      "midi": 41,
      "hit": false,
      "t": 192739.09297499998,
      "d": 132.14272500001243,
      "v": 66
    },
    {
      "midi": 45,
      "hit": false,
      "t": 192878.37855000095,
      "d": 82.1427749999857,
      "v": 95
    },
    {
      "midi": 36,
      "hit": false,
      "t": 192878.37855000095,
      "d": 128.57129999998142,
      "v": 108
    },
    {
      "midi": 61,
      "hit": false,
      "t": 192878.37855000095,
      "d": 132.14272499998333,
      "v": 77
    },
    {
      "midi": 43,
      "hit": false,
      "t": 192892.66425,
      "d": 82.1427749999857,
      "v": 88
    },
    {
      "midi": 62,
      "hit": false,
      "t": 193021.23555000094,
      "d": 153.57127499999478,
      "v": 73
    },
    {
      "midi": 48,
      "hit": false,
      "t": 193131.9497250001,
      "d": 99.99989999999525,
      "v": 68
    },
    {
      "midi": 36,
      "hit": false,
      "t": 193139.0925750001,
      "d": 96.42847499999334,
      "v": 70
    },
    {
      "midi": 45,
      "hit": false,
      "t": 193164.09255000093,
      "d": 82.14277500001481,
      "v": 69
    },
    {
      "midi": 64,
      "hit": false,
      "t": 193164.09255000093,
      "d": 164.28555000002962,
      "v": 70
    },
    {
      "midi": 43,
      "hit": false,
      "t": 193178.37824999998,
      "d": 74.99992500001099,
      "v": 63
    },
    {
      "midi": 43,
      "hit": false,
      "t": 193306.94955000095,
      "d": 82.14277500001481,
      "v": 66
    },
    {
      "midi": 61,
      "hit": false,
      "t": 193306.94955000095,
      "d": 132.14272500001243,
      "v": 80
    },
    {
      "midi": 41,
      "hit": false,
      "t": 193310.520975,
      "d": 92.85704999999143,
      "v": 70
    },
    {
      "midi": 36,
      "hit": false,
      "t": 193406.9494500001,
      "d": 92.85704999999143,
      "v": 58
    },
    {
      "midi": 48,
      "hit": false,
      "t": 193417.6637250001,
      "d": 96.42847499999334,
      "v": 68
    },
    {
      "midi": 47,
      "hit": false,
      "t": 193449.80655000097,
      "d": 64.28565000000526,
      "v": 54
    },
    {
      "midi": 62,
      "hit": false,
      "t": 193449.80655000097,
      "d": 135.71415000001434,
      "v": 73
    },
    {
      "midi": 43,
      "hit": false,
      "t": 193460.52082499999,
      "d": 82.1427749999857,
      "v": 47
    },
    {
      "midi": 43,
      "hit": false,
      "t": 193592.663550001,
      "d": 110.71417500000098,
      "v": 69
    },
    {
      "midi": 64,
      "hit": false,
      "t": 193592.663550001,
      "d": 171.42839999997523,
      "v": 77
    },
    {
      "midi": 41,
      "hit": false,
      "t": 193596.23497499997,
      "d": 117.8570250000048,
      "v": 56
    },
    {
      "midi": 48,
      "hit": false,
      "t": 193689.0920250001,
      "d": 2657.1401999999944,
      "v": 80
    },
    {
      "midi": 36,
      "hit": false,
      "t": 193689.0920250001,
      "d": 2657.1401999999944,
      "v": 82
    },
    {
      "midi": 45,
      "hit": false,
      "t": 193735.52055000098,
      "d": 78.5713499999838,
      "v": 93
    },
    {
      "midi": 61,
      "hit": false,
      "t": 193735.52055000098,
      "d": 132.14272499998333,
      "v": 88
    },
    {
      "midi": 36,
      "hit": false,
      "t": 193735.52055000098,
      "d": 146.42842499999097,
      "v": 115
    },
    {
      "midi": 43,
      "hit": false,
      "t": 193746.23482499996,
      "d": 85.71419999998761,
      "v": 81
    },
    {
      "midi": 62,
      "hit": false,
      "t": 193878.37755000097,
      "d": 146.42842499999097,
      "v": 85
    },
    {
      "midi": 45,
      "hit": false,
      "t": 194021.23455000095,
      "d": 71.42850000000908,
      "v": 75
    },
    {
      "midi": 64,
      "hit": false,
      "t": 194021.23455000095,
      "d": 182.14267500001006,
      "v": 74
    },
    {
      "midi": 43,
      "hit": false,
      "t": 194024.80597499994,
      "d": 82.1427749999857,
      "v": 62
    },
    {
      "midi": 41,
      "hit": false,
      "t": 194149.80584999992,
      "d": 82.1427749999857,
      "v": 62
    },
    {
      "midi": 43,
      "hit": false,
      "t": 194164.09155000097,
      "d": 82.1427749999857,
      "v": 60
    },
    {
      "midi": 61,
      "hit": false,
      "t": 194164.09155000097,
      "d": 142.85699999998906,
      "v": 88
    },
    {
      "midi": 43,
      "hit": false,
      "t": 194299.8056999999,
      "d": 82.1427749999857,
      "v": 51
    },
    {
      "midi": 47,
      "hit": false,
      "t": 194306.94855000096,
      "d": 67.85707500000717,
      "v": 57
    },
    {
      "midi": 62,
      "hit": false,
      "t": 194306.94855000096,
      "d": 142.85700000001816,
      "v": 66
    },
    {
      "midi": 41,
      "hit": false,
      "t": 194442.6626999999,
      "d": 121.4284500000067,
      "v": 65
    },
    {
      "midi": 43,
      "hit": false,
      "t": 194449.80555000098,
      "d": 117.8570250000048,
      "v": 65
    },
    {
      "midi": 64,
      "hit": false,
      "t": 194449.80555000098,
      "d": 160.7141250000277,
      "v": 67
    },
    {
      "midi": 43,
      "hit": false,
      "t": 194589.09112499992,
      "d": 82.1427749999857,
      "v": 73
    },
    {
      "midi": 45,
      "hit": false,
      "t": 194592.662550001,
      "d": 71.42850000000908,
      "v": 91
    },
    {
      "midi": 36,
      "hit": false,
      "t": 194592.662550001,
      "d": 128.57130000001052,
      "v": 117
    },
    {
      "midi": 61,
      "hit": false,
      "t": 194592.662550001,
      "d": 153.5712750000239,
      "v": 80
    },
    {
      "midi": 62,
      "hit": false,
      "t": 194735.51955000102,
      "d": 142.85700000001816,
      "v": 84
    },
    {
      "midi": 43,
      "hit": false,
      "t": 194871.2336999999,
      "d": 82.1427749999857,
      "v": 65
    },
    {
      "midi": 45,
      "hit": false,
      "t": 194878.37655000103,
      "d": 78.5713500000129,
      "v": 75
    },
    {
      "midi": 64,
      "hit": false,
      "t": 194878.37655000103,
      "d": 167.85697500003153,
      "v": 77
    },
    {
      "midi": 41,
      "hit": false,
      "t": 195014.09069999988,
      "d": 78.5713500000129,
      "v": 62
    },
    {
      "midi": 43,
      "hit": false,
      "t": 195021.23355000105,
      "d": 78.5713500000129,
      "v": 65
    },
    {
      "midi": 61,
      "hit": false,
      "t": 195021.23355000105,
      "d": 139.28557500001625,
      "v": 75
    },
    {
      "midi": 43,
      "hit": false,
      "t": 195149.8048499999,
      "d": 89.28562499998952,
      "v": 54
    },
    {
      "midi": 47,
      "hit": false,
      "t": 195164.09055000107,
      "d": 71.42850000000908,
      "v": 56
    },
    {
      "midi": 62,
      "hit": false,
      "t": 195164.09055000107,
      "d": 139.28557500001625,
      "v": 73
    },
    {
      "midi": 41,
      "hit": false,
      "t": 195303.3761249999,
      "d": 103.57132499999716,
      "v": 66
    },
    {
      "midi": 43,
      "hit": false,
      "t": 195306.9475500011,
      "d": 117.8570250000048,
      "v": 68
    },
    {
      "midi": 64,
      "hit": false,
      "t": 195306.9475500011,
      "d": 157.1427000000258,
      "v": 63
    },
    {
      "midi": 43,
      "hit": false,
      "t": 195431.9474249999,
      "d": 89.28562499998952,
      "v": 79
    },
    {
      "midi": 45,
      "hit": false,
      "t": 195449.8045500011,
      "d": 78.5713500000129,
      "v": 95
    },
    {
      "midi": 61,
      "hit": false,
      "t": 195449.8045500011,
      "d": 135.71415000001434,
      "v": 74
    },
    {
      "midi": 36,
      "hit": false,
      "t": 195449.8045500011,
      "d": 146.42842500002007,
      "v": 115
    },
    {
      "midi": 62,
      "hit": false,
      "t": 195592.66155000112,
      "d": 135.71415000001434,
      "v": 78
    },
    {
      "midi": 43,
      "hit": false,
      "t": 195728.3756999999,
      "d": 82.1427749999857,
      "v": 63
    },
    {
      "midi": 45,
      "hit": false,
      "t": 195735.51855000114,
      "d": 74.99992500001099,
      "v": 83
    },
    {
      "midi": 64,
      "hit": false,
      "t": 195735.51855000114,
      "d": 182.14267500001006,
      "v": 77
    },
    {
      "midi": 41,
      "hit": false,
      "t": 195864.08984999987,
      "d": 74.99992500001099,
      "v": 68
    },
    {
      "midi": 43,
      "hit": false,
      "t": 195878.37555000116,
      "d": 71.42849999997998,
      "v": 57
    },
    {
      "midi": 61,
      "hit": false,
      "t": 195878.37555000116,
      "d": 160.7141249999986,
      "v": 84
    },
    {
      "midi": 43,
      "hit": false,
      "t": 195999.8039999999,
      "d": 82.1427749999857,
      "v": 54
    },
    {
      "midi": 47,
      "hit": false,
      "t": 196021.23255000115,
      "d": 82.14277500001481,
      "v": 59
    },
    {
      "midi": 62,
      "hit": false,
      "t": 196021.23255000115,
      "d": 146.42842500002007,
      "v": 77
    },
    {
      "midi": 41,
      "hit": false,
      "t": 196146.23242499988,
      "d": 121.4284500000067,
      "v": 70
    },
    {
      "midi": 43,
      "hit": false,
      "t": 196164.08955000117,
      "d": 107.14274999999907,
      "v": 68
    },
    {
      "midi": 64,
      "hit": false,
      "t": 196164.08955000117,
      "d": 171.42839999997523,
      "v": 58
    },
    {
      "midi": 43,
      "hit": false,
      "t": 196296.23227499987,
      "d": 85.71419999998761,
      "v": 75
    },
    {
      "midi": 45,
      "hit": false,
      "t": 196306.94655000116,
      "d": 78.5713499999838,
      "v": 93
    },
    {
      "midi": 36,
      "hit": false,
      "t": 196306.94655000116,
      "d": 128.57129999998142,
      "v": 117
    },
    {
      "midi": 61,
      "hit": false,
      "t": 196306.94655000116,
      "d": 153.57127499999478,
      "v": 83
    },
    {
      "midi": 62,
      "hit": false,
      "t": 196449.80355000115,
      "d": 164.28555000002962,
      "v": 85
    },
    {
      "midi": 48,
      "hit": false,
      "t": 196542.6606000001,
      "d": 110.71417500000098,
      "v": 77
    },
    {
      "midi": 36,
      "hit": false,
      "t": 196546.2320250001,
      "d": 103.57132499999716,
      "v": 75
    },
    {
      "midi": 45,
      "hit": false,
      "t": 196592.66055000116,
      "d": 67.85707500000717,
      "v": 81
    },
    {
      "midi": 64,
      "hit": false,
      "t": 196592.66055000116,
      "d": 153.5712750000239,
      "v": 69
    },
    {
      "midi": 43,
      "hit": false,
      "t": 196596.23197499986,
      "d": 89.28562499998952,
      "v": 69
    },
    {
      "midi": 43,
      "hit": false,
      "t": 196735.51755000118,
      "d": 82.14277500001481,
      "v": 70
    },
    {
      "midi": 61,
      "hit": false,
      "t": 196735.51755000118,
      "d": 135.71415000001434,
      "v": 79
    },
    {
      "midi": 41,
      "hit": false,
      "t": 196767.66037499983,
      "d": 64.28565000000526,
      "v": 57
    },
    {
      "midi": 36,
      "hit": false,
      "t": 196831.9460250001,
      "d": 96.42847499999334,
      "v": 70
    },
    {
      "midi": 48,
      "hit": false,
      "t": 196839.0888750001,
      "d": 99.99989999999525,
      "v": 50
    },
    {
      "midi": 47,
      "hit": false,
      "t": 196878.3745500012,
      "d": 71.42850000000908,
      "v": 65
    },
    {
      "midi": 62,
      "hit": false,
      "t": 196878.3745500012,
      "d": 117.8570250000048,
      "v": 81
    },
    {
      "midi": 43,
      "hit": false,
      "t": 196899.80309999984,
      "d": 82.1427749999857,
      "v": 55
    },
    {
      "midi": 43,
      "hit": false,
      "t": 197021.23155000122,
      "d": 74.99992500001099,
      "v": 79
    },
    {
      "midi": 64,
      "hit": false,
      "t": 197021.23155000122,
      "d": 92.85705000002054,
      "v": 95
    },
    {
      "midi": 41,
      "hit": false,
      "t": 197042.66009999983,
      "d": 107.14274999999907,
      "v": 63
    },
    {
      "midi": 36,
      "hit": false,
      "t": 197099.8029000001,
      "d": 1571.426999999996,
      "v": 57
    },
    {
      "midi": 48,
      "hit": false,
      "t": 197114.0886000001,
      "d": 1578.5698499999999,
      "v": 47
    },
    {
      "midi": 43,
      "hit": false,
      "t": 197164.08854999984,
      "d": 82.1427749999857,
      "v": 90
    },
    {
      "midi": 43,
      "hit": false,
      "t": 197435.51684999984,
      "d": 85.71419999998761,
      "v": 86
    },
    {
      "midi": 41,
      "hit": false,
      "t": 197592.65954999984,
      "d": 74.99992500001099,
      "v": 83
    },
    {
      "midi": 43,
      "hit": false,
      "t": 197728.37369999985,
      "d": 74.99992500001099,
      "v": 72
    },
    {
      "midi": 41,
      "hit": false,
      "t": 197885.51639999985,
      "d": 99.99989999999525,
      "v": 85
    },
    {
      "midi": 43,
      "hit": false,
      "t": 198028.37339999984,
      "d": 78.5713500000129,
      "v": 97
    },
    {
      "midi": 43,
      "hit": false,
      "t": 198296.23027499986,
      "d": 82.1427749999857,
      "v": 83
    },
    {
      "midi": 41,
      "hit": false,
      "t": 198446.23012499986,
      "d": 60.71422500000335,
      "v": 71
    },
    {
      "midi": 43,
      "hit": false,
      "t": 198571.22999999986,
      "d": 82.1427749999857,
      "v": 75
    },
    {
      "midi": 41,
      "hit": false,
      "t": 198724.80127499986,
      "d": 96.42847499999334,
      "v": 85
    },
    {
      "midi": 43,
      "hit": false,
      "t": 198874.80112499985,
      "d": 89.28562499998952,
      "v": 103
    },
    {
      "midi": 43,
      "hit": false,
      "t": 199146.22942499985,
      "d": 74.99992500001099,
      "v": 80
    },
    {
      "midi": 41,
      "hit": false,
      "t": 199285.51499999987,
      "d": 82.1427749999857,
      "v": 88
    },
    {
      "midi": 43,
      "hit": false,
      "t": 199435.51484999986,
      "d": 78.5713500000129,
      "v": 72
    },
    {
      "midi": 41,
      "hit": false,
      "t": 199585.51469999988,
      "d": 107.14274999999907,
      "v": 89
    },
    {
      "midi": 43,
      "hit": false,
      "t": 199728.37169999987,
      "d": 85.71419999998761,
      "v": 103
    },
    {
      "midi": 43,
      "hit": false,
      "t": 200010.51427499985,
      "d": 82.1427749999857,
      "v": 85
    },
    {
      "midi": 41,
      "hit": false,
      "t": 200156.94269999984,
      "d": 82.1427749999857,
      "v": 86
    },
    {
      "midi": 43,
      "hit": false,
      "t": 200303.37112499983,
      "d": 74.99992500001099,
      "v": 79
    },
    {
      "midi": 41,
      "hit": false,
      "t": 200453.37097499985,
      "d": 107.14274999999907,
      "v": 82
    },
    {
      "midi": 43,
      "hit": false,
      "t": 200589.08512499984,
      "d": 82.1427749999857,
      "v": 99
    },
    {
      "midi": 43,
      "hit": false,
      "t": 200860.51342499984,
      "d": 82.1427749999857,
      "v": 89
    },
    {
      "midi": 41,
      "hit": false,
      "t": 201017.65612499983,
      "d": 74.99992500001099,
      "v": 82
    },
    {
      "midi": 43,
      "hit": false,
      "t": 201149.79884999985,
      "d": 74.99992500001099,
      "v": 79
    },
    {
      "midi": 41,
      "hit": false,
      "t": 201303.37012499987,
      "d": 117.8570250000048,
      "v": 79
    },
    {
      "midi": 43,
      "hit": false,
      "t": 201449.79854999986,
      "d": 74.99992500001099,
      "v": 99
    },
    {
      "midi": 43,
      "hit": false,
      "t": 201735.51254999987,
      "d": 78.5713500000129,
      "v": 93
    },
    {
      "midi": 41,
      "hit": false,
      "t": 201871.22669999988,
      "d": 67.85707500000717,
      "v": 85
    },
    {
      "midi": 43,
      "hit": false,
      "t": 202006.9408499999,
      "d": 82.1427749999857,
      "v": 79
    },
    {
      "midi": 41,
      "hit": false,
      "t": 202131.94072499988,
      "d": 74.99992500001099,
      "v": 103
    },
    {
      "midi": 43,
      "hit": false,
      "t": 202285.5119999999,
      "d": 74.99992500001099,
      "v": 106
    },
    {
      "midi": 43,
      "hit": false,
      "t": 202567.6545749999,
      "d": 71.42850000000908,
      "v": 93
    },
    {
      "midi": 41,
      "hit": false,
      "t": 202706.94014999992,
      "d": 82.1427749999857,
      "v": 82
    },
    {
      "midi": 43,
      "hit": false,
      "t": 202849.7971499999,
      "d": 82.1427749999857,
      "v": 69
    },
    {
      "midi": 41,
      "hit": false,
      "t": 202989.0827249999,
      "d": 149.99984999999288,
      "v": 95
    },
    {
      "midi": 43,
      "hit": false,
      "t": 203160.5111249999,
      "d": 74.99992500001099,
      "v": 97
    },
    {
      "midi": 43,
      "hit": false,
      "t": 203439.0822749999,
      "d": 78.5713500000129,
      "v": 88
    },
    {
      "midi": 41,
      "hit": false,
      "t": 203578.36784999992,
      "d": 82.1427749999857,
      "v": 76
    },
    {
      "midi": 43,
      "hit": false,
      "t": 203721.2248499999,
      "d": 85.71419999998761,
      "v": 75
    },
    {
      "midi": 41,
      "hit": false,
      "t": 203874.7961249999,
      "d": 135.71415000001434,
      "v": 88
    },
    {
      "midi": 43,
      "hit": false,
      "t": 204028.36739999993,
      "d": 82.1427749999857,
      "v": 101
    },
    {
      "midi": 43,
      "hit": false,
      "t": 204314.0813999999,
      "d": 82.1427749999857,
      "v": 85
    },
    {
      "midi": 41,
      "hit": false,
      "t": 204456.9383999999,
      "d": 82.1427749999857,
      "v": 83
    },
    {
      "midi": 43,
      "hit": false,
      "t": 204596.22397499988,
      "d": 82.1427749999857,
      "v": 69
    },
    {
      "midi": 41,
      "hit": false,
      "t": 204739.08097499987,
      "d": 132.14272500001243,
      "v": 86
    },
    {
      "midi": 43,
      "hit": false,
      "t": 204892.6522499999,
      "d": 82.1427749999857,
      "v": 108
    },
    {
      "midi": 43,
      "hit": false,
      "t": 205178.36624999988,
      "d": 74.99992500001099,
      "v": 83
    },
    {
      "midi": 41,
      "hit": false,
      "t": 205310.5089749999,
      "d": 92.85704999999143,
      "v": 90
    },
    {
      "midi": 43,
      "hit": false,
      "t": 205460.50882499988,
      "d": 82.1427749999857,
      "v": 67
    },
    {
      "midi": 41,
      "hit": false,
      "t": 205596.22297499987,
      "d": 117.8570250000048,
      "v": 76
    },
    {
      "midi": 43,
      "hit": false,
      "t": 205746.2228249999,
      "d": 85.71419999998761,
      "v": 101
    },
    {
      "midi": 43,
      "hit": false,
      "t": 206024.79397499986,
      "d": 82.1427749999857,
      "v": 82
    },
    {
      "midi": 41,
      "hit": false,
      "t": 206149.79384999984,
      "d": 82.1427749999857,
      "v": 82
    },
    {
      "midi": 43,
      "hit": false,
      "t": 206299.79369999983,
      "d": 82.1427749999857,
      "v": 71
    },
    {
      "midi": 41,
      "hit": false,
      "t": 206442.65069999982,
      "d": 121.4284500000067,
      "v": 85
    },
    {
      "midi": 43,
      "hit": false,
      "t": 206589.07912499984,
      "d": 82.1427749999857,
      "v": 93
    },
    {
      "midi": 43,
      "hit": false,
      "t": 206871.22169999982,
      "d": 82.1427749999857,
      "v": 85
    },
    {
      "midi": 41,
      "hit": false,
      "t": 207014.0786999998,
      "d": 78.5713500000129,
      "v": 82
    },
    {
      "midi": 43,
      "hit": false,
      "t": 207149.79284999982,
      "d": 89.28562499998952,
      "v": 74
    },
    {
      "midi": 41,
      "hit": false,
      "t": 207303.36412499982,
      "d": 103.57132499999716,
      "v": 86
    },
    {
      "midi": 43,
      "hit": false,
      "t": 207431.93542499983,
      "d": 89.28562499998952,
      "v": 99
    },
    {
      "midi": 43,
      "hit": false,
      "t": 207728.3636999998,
      "d": 82.1427749999857,
      "v": 83
    },
    {
      "midi": 41,
      "hit": false,
      "t": 207864.0778499998,
      "d": 74.99992500001099,
      "v": 88
    },
    {
      "midi": 43,
      "hit": false,
      "t": 207999.7919999998,
      "d": 82.1427749999857,
      "v": 74
    },
    {
      "midi": 41,
      "hit": false,
      "t": 208146.2204249998,
      "d": 121.4284500000067,
      "v": 90
    },
    {
      "midi": 43,
      "hit": false,
      "t": 208296.2202749998,
      "d": 85.71419999998761,
      "v": 95
    },
    {
      "midi": 43,
      "hit": false,
      "t": 208596.21997499978,
      "d": 89.28562499998952,
      "v": 89
    },
    {
      "midi": 41,
      "hit": false,
      "t": 208767.64837499976,
      "d": 64.28565000000526,
      "v": 77
    },
    {
      "midi": 43,
      "hit": false,
      "t": 208899.79109999977,
      "d": 82.1427749999857,
      "v": 75
    },
    {
      "midi": 41,
      "hit": false,
      "t": 209042.64809999976,
      "d": 107.14274999999907,
      "v": 83
    },
    {
      "midi": 43,
      "hit": false,
      "t": 209189.07652499975,
      "d": 85.71419999998761,
      "v": 99
    },
    {
      "midi": 43,
      "hit": false,
      "t": 209456.93339999975,
      "d": 78.5713499999838,
      "v": 83
    },
    {
      "midi": 41,
      "hit": false,
      "t": 209596.21897499973,
      "d": 74.99992500001099,
      "v": 83
    },
    {
      "midi": 43,
      "hit": false,
      "t": 209731.93312499975,
      "d": 74.99992500001099,
      "v": 69
    },
    {
      "midi": 41,
      "hit": false,
      "t": 209885.50439999977,
      "d": 110.71417500000098,
      "v": 80
    },
    {
      "midi": 43,
      "hit": false,
      "t": 210014.07569999978,
      "d": 82.1427749999857,
      "v": 95
    },
    {
      "midi": 43,
      "hit": false,
      "t": 210292.64684999976,
      "d": 82.1427749999857,
      "v": 88
    },
    {
      "midi": 41,
      "hit": false,
      "t": 210431.93242499974,
      "d": 82.14277500001481,
      "v": 80
    },
    {
      "midi": 43,
      "hit": false,
      "t": 210578.36084999976,
      "d": 78.5713500000129,
      "v": 71
    },
    {
      "midi": 41,
      "hit": false,
      "t": 210735.5035499998,
      "d": 110.71417500000098,
      "v": 88
    },
    {
      "midi": 43,
      "hit": false,
      "t": 210878.36054999978,
      "d": 82.1427749999857,
      "v": 90
    },
    {
      "midi": 43,
      "hit": false,
      "t": 211149.78884999978,
      "d": 85.71419999998761,
      "v": 86
    },
    {
      "midi": 41,
      "hit": false,
      "t": 211306.93154999978,
      "d": 74.99992500001099,
      "v": 83
    },
    {
      "midi": 43,
      "hit": false,
      "t": 211442.6456999998,
      "d": 74.99992500001099,
      "v": 72
    },
    {
      "midi": 41,
      "hit": false,
      "t": 211599.7883999998,
      "d": 99.99989999999525,
      "v": 85
    },
    {
      "midi": 43,
      "hit": false,
      "t": 211742.64539999978,
      "d": 78.5713500000129,
      "v": 97
    },
    {
      "midi": 43,
      "hit": false,
      "t": 212010.5022749998,
      "d": 82.1427749999857,
      "v": 83
    },
    {
      "midi": 41,
      "hit": false,
      "t": 212160.5021249998,
      "d": 60.71422500000335,
      "v": 71
    },
    {
      "midi": 43,
      "hit": false,
      "t": 212285.5019999998,
      "d": 82.1427749999857,
      "v": 75
    },
    {
      "midi": 41,
      "hit": false,
      "t": 212439.0732749998,
      "d": 96.42847499999334,
      "v": 85
    },
    {
      "midi": 43,
      "hit": false,
      "t": 212589.0731249998,
      "d": 89.28562499998952,
      "v": 103
    },
    {
      "midi": 43,
      "hit": false,
      "t": 212860.5014249998,
      "d": 74.99992500001099,
      "v": 80
    },
    {
      "midi": 41,
      "hit": false,
      "t": 212999.7869999998,
      "d": 82.1427749999857,
      "v": 88
    },
    {
      "midi": 43,
      "hit": false,
      "t": 213149.7868499998,
      "d": 78.5713500000129,
      "v": 72
    },
    {
      "midi": 41,
      "hit": false,
      "t": 213299.7866999998,
      "d": 107.14274999999907,
      "v": 89
    },
    {
      "midi": 43,
      "hit": false,
      "t": 213442.64369999978,
      "d": 85.71419999998761,
      "v": 103
    },
    {
      "midi": 43,
      "hit": false,
      "t": 213724.78627499976,
      "d": 82.1427749999857,
      "v": 85
    },
    {
      "midi": 41,
      "hit": false,
      "t": 213871.21469999975,
      "d": 82.1427749999857,
      "v": 86
    },
    {
      "midi": 43,
      "hit": false,
      "t": 214017.64312499974,
      "d": 74.99992500001099,
      "v": 79
    },
    {
      "midi": 41,
      "hit": false,
      "t": 214167.64297499976,
      "d": 107.14274999999907,
      "v": 82
    },
    {
      "midi": 43,
      "hit": false,
      "t": 214303.35712499975,
      "d": 82.1427749999857,
      "v": 99
    },
    {
      "midi": 43,
      "hit": false,
      "t": 214574.78542499975,
      "d": 82.1427749999857,
      "v": 89
    },
    {
      "midi": 41,
      "hit": false,
      "t": 214731.92812499974,
      "d": 74.99992500001099,
      "v": 82
    },
    {
      "midi": 43,
      "hit": false,
      "t": 214864.07084999976,
      "d": 74.99992500001099,
      "v": 79
    },
    {
      "midi": 41,
      "hit": false,
      "t": 215017.64212499978,
      "d": 117.8570250000048,
      "v": 79
    },
    {
      "midi": 43,
      "hit": false,
      "t": 215164.0705499998,
      "d": 74.99992500001099,
      "v": 99
    },
    {
      "midi": 43,
      "hit": false,
      "t": 215449.7845499998,
      "d": 78.5713500000129,
      "v": 93
    },
    {
      "midi": 41,
      "hit": false,
      "t": 215585.49869999982,
      "d": 67.85707500000717,
      "v": 85
    },
    {
      "midi": 43,
      "hit": false,
      "t": 215721.21284999984,
      "d": 82.1427749999857,
      "v": 79
    },
    {
      "midi": 41,
      "hit": false,
      "t": 215846.21272499982,
      "d": 74.99992500001099,
      "v": 103
    },
    {
      "midi": 43,
      "hit": false,
      "t": 215999.78399999984,
      "d": 74.99992500001099,
      "v": 106
    },
    {
      "midi": 43,
      "hit": false,
      "t": 216281.92657499984,
      "d": 71.42850000000908,
      "v": 93
    },
    {
      "midi": 41,
      "hit": false,
      "t": 216421.21214999986,
      "d": 82.1427749999857,
      "v": 82
    },
    {
      "midi": 43,
      "hit": false,
      "t": 216564.06914999985,
      "d": 82.1427749999857,
      "v": 69
    },
    {
      "midi": 41,
      "hit": false,
      "t": 216703.35472499984,
      "d": 149.99984999999288,
      "v": 95
    },
    {
      "midi": 43,
      "hit": false,
      "t": 216874.78312499984,
      "d": 74.99992500001099,
      "v": 97
    },
    {
      "midi": 43,
      "hit": false,
      "t": 217153.35427499987,
      "d": 78.5713500000129,
      "v": 88
    },
    {
      "midi": 41,
      "hit": false,
      "t": 217292.6398499999,
      "d": 82.1427749999857,
      "v": 76
    },
    {
      "midi": 43,
      "hit": false,
      "t": 217435.49684999988,
      "d": 85.71419999998761,
      "v": 75
    },
    {
      "midi": 41,
      "hit": false,
      "t": 217589.06812499987,
      "d": 135.71415000001434,
      "v": 88
    },
    {
      "midi": 43,
      "hit": false,
      "t": 217742.6393999999,
      "d": 82.1427749999857,
      "v": 101
    },
    {
      "midi": 43,
      "hit": false,
      "t": 218028.3533999999,
      "d": 82.1427749999857,
      "v": 85
    },
    {
      "midi": 41,
      "hit": false,
      "t": 218171.2103999999,
      "d": 82.1427749999857,
      "v": 83
    },
    {
      "midi": 43,
      "hit": false,
      "t": 218310.49597499988,
      "d": 82.1427749999857,
      "v": 69
    },
    {
      "midi": 41,
      "hit": false,
      "t": 218453.35297499987,
      "d": 132.14272500001243,
      "v": 86
    },
    {
      "midi": 43,
      "hit": false,
      "t": 218606.9242499999,
      "d": 82.1427749999857,
      "v": 108
    },
    {
      "midi": 43,
      "hit": false,
      "t": 218892.63824999987,
      "d": 74.99992500001099,
      "v": 83
    },
    {
      "midi": 41,
      "hit": false,
      "t": 219024.78097499989,
      "d": 92.85704999999143,
      "v": 90
    },
    {
      "midi": 43,
      "hit": false,
      "t": 219174.78082499988,
      "d": 82.1427749999857,
      "v": 67
    },
    {
      "midi": 41,
      "hit": false,
      "t": 219310.49497499986,
      "d": 117.8570250000048,
      "v": 76
    }
  ]
}