{
  "jsonPath": "Ultima Online/linelle.json",
  "path": "Ultima Online\\linelle.mid",
  "name": "linelle",
  "difficulty": "Advanced",
  "bpm": 250,
  "notes": [
    {
      "midi": 62,
      "hit": false,
      "t": 1757.8125,
      "d": 234.375,
      "v": 61
    },
    {
      "midi": 50,
      "hit": false,
      "t": 1875,
      "d": 476.5625,
      "v": 80
    },
    {
      "midi": 81,
      "hit": false,
      "t": 1875,
      "d": 144.53125,
      "v": 76
    },
    {
      "midi": 69,
      "hit": false,
      "t": 1875,
      "d": 480.46875,
      "v": 80
    },
    {
      "midi": 62,
      "hit": false,
      "t": 2109.375,
      "d": 11.71875,
      "v": 15
    },
    {
      "midi": 57,
      "hit": false,
      "t": 2343.75,
      "d": 109.375,
      "v": 77
    },
    {
      "midi": 74,
      "hit": false,
      "t": 2343.75,
      "d": 175.78125,
      "v": 76
    },
    {
      "midi": 74,
      "hit": false,
      "t": 2343.75,
      "d": 144.53125,
      "v": 70
    },
    {
      "midi": 72,
      "hit": false,
      "t": 2500,
      "d": 171.875,
      "v": 52
    },
    {
      "midi": 67,
      "hit": false,
      "t": 2500,
      "d": 148.4375,
      "v": 79
    },
    {
      "midi": 70,
      "hit": false,
      "t": 2656.25,
      "d": 152.34375,
      "v": 64
    },
    {
      "midi": 69,
      "hit": false,
      "t": 2656.25,
      "d": 207.03125,
      "v": 71
    },
    {
      "midi": 50,
      "hit": false,
      "t": 2812.5,
      "d": 417.96875,
      "v": 80
    },
    {
      "midi": 69,
      "hit": false,
      "t": 2812.5,
      "d": 113.28125,
      "v": 72
    },
    {
      "midi": 77,
      "hit": false,
      "t": 2812.5,
      "d": 101.5625,
      "v": 80
    },
    {
      "midi": 70,
      "hit": false,
      "t": 2812.5,
      "d": 425.78125,
      "v": 71
    },
    {
      "midi": 55,
      "hit": false,
      "t": 3281.25,
      "d": 355.46875,
      "v": 77
    },
    {
      "midi": 74,
      "hit": false,
      "t": 3281.25,
      "d": 136.71875,
      "v": 76
    },
    {
      "midi": 69,
      "hit": false,
      "t": 3281.25,
      "d": 125,
      "v": 71
    },
    {
      "midi": 67,
      "hit": false,
      "t": 3593.75,
      "d": 109.375,
      "v": 64
    },
    {
      "midi": 50,
      "hit": false,
      "t": 3750,
      "d": 472.65625,
      "v": 68
    },
    {
      "midi": 81,
      "hit": false,
      "t": 3750,
      "d": 113.28125,
      "v": 80
    },
    {
      "midi": 69,
      "hit": false,
      "t": 3750,
      "d": 460.9375,
      "v": 88
    },
    {
      "midi": 57,
      "hit": false,
      "t": 4218.75,
      "d": 472.65625,
      "v": 70
    },
    {
      "midi": 74,
      "hit": false,
      "t": 4218.75,
      "d": 136.71875,
      "v": 44
    },
    {
      "midi": 74,
      "hit": false,
      "t": 4218.75,
      "d": 144.53125,
      "v": 72
    },
    {
      "midi": 62,
      "hit": false,
      "t": 4218.75,
      "d": 1378.90625,
      "v": 76
    },
    {
      "midi": 72,
      "hit": false,
      "t": 4375,
      "d": 265.625,
      "v": 41
    },
    {
      "midi": 70,
      "hit": false,
      "t": 4531.25,
      "d": 125,
      "v": 76
    },
    {
      "midi": 50,
      "hit": false,
      "t": 4687.5,
      "d": 484.375,
      "v": 68
    },
    {
      "midi": 69,
      "hit": false,
      "t": 4687.5,
      "d": 117.1875,
      "v": 70
    },
    {
      "midi": 77,
      "hit": false,
      "t": 4687.5,
      "d": 93.75,
      "v": 79
    },
    {
      "midi": 57,
      "hit": false,
      "t": 5156.25,
      "d": 480.46875,
      "v": 68
    },
    {
      "midi": 74,
      "hit": false,
      "t": 5156.25,
      "d": 121.09375,
      "v": 62
    },
    {
      "midi": 46,
      "hit": false,
      "t": 5625,
      "d": 457.03125,
      "v": 72
    },
    {
      "midi": 77,
      "hit": false,
      "t": 5625,
      "d": 132.8125,
      "v": 72
    },
    {
      "midi": 65,
      "hit": false,
      "t": 5625,
      "d": 589.84375,
      "v": 80
    },
    {
      "midi": 53,
      "hit": false,
      "t": 6093.75,
      "d": 390.625,
      "v": 76
    },
    {
      "midi": 69,
      "hit": false,
      "t": 6093.75,
      "d": 183.59375,
      "v": 72
    },
    {
      "midi": 70,
      "hit": false,
      "t": 6093.75,
      "d": 105.46875,
      "v": 79
    },
    {
      "midi": 67,
      "hit": false,
      "t": 6250,
      "d": 125,
      "v": 56
    },
    {
      "midi": 62,
      "hit": false,
      "t": 6250,
      "d": 148.4375,
      "v": 58
    },
    {
      "midi": 65,
      "hit": false,
      "t": 6406.25,
      "d": 121.09375,
      "v": 54
    },
    {
      "midi": 65,
      "hit": false,
      "t": 6406.25,
      "d": 128.90625,
      "v": 60
    },
    {
      "midi": 46,
      "hit": false,
      "t": 6562.5,
      "d": 437.5,
      "v": 80
    },
    {
      "midi": 62,
      "hit": false,
      "t": 6562.5,
      "d": 148.4375,
      "v": 71
    },
    {
      "midi": 74,
      "hit": false,
      "t": 6562.5,
      "d": 132.8125,
      "v": 79
    },
    {
      "midi": 67,
      "hit": false,
      "t": 6562.5,
      "d": 441.40625,
      "v": 80
    },
    {
      "midi": 53,
      "hit": false,
      "t": 7031.25,
      "d": 445.3125,
      "v": 76
    },
    {
      "midi": 72,
      "hit": false,
      "t": 7031.25,
      "d": 101.5625,
      "v": 80
    },
    {
      "midi": 65,
      "hit": false,
      "t": 7031.25,
      "d": 113.28125,
      "v": 80
    },
    {
      "midi": 67,
      "hit": false,
      "t": 7343.75,
      "d": 113.28125,
      "v": 76
    },
    {
      "midi": 50,
      "hit": false,
      "t": 7500,
      "d": 441.40625,
      "v": 70
    },
    {
      "midi": 81,
      "hit": false,
      "t": 7500,
      "d": 109.375,
      "v": 80
    },
    {
      "midi": 69,
      "hit": false,
      "t": 7500,
      "d": 1703.125,
      "v": 80
    },
    {
      "midi": 57,
      "hit": false,
      "t": 7968.75,
      "d": 441.40625,
      "v": 68
    },
    {
      "midi": 74,
      "hit": false,
      "t": 7968.75,
      "d": 148.4375,
      "v": 72
    },
    {
      "midi": 74,
      "hit": false,
      "t": 7968.75,
      "d": 144.53125,
      "v": 68
    },
    {
      "midi": 72,
      "hit": false,
      "t": 8125,
      "d": 160.15625,
      "v": 47
    },
    {
      "midi": 70,
      "hit": false,
      "t": 8281.25,
      "d": 183.59375,
      "v": 68
    },
    {
      "midi": 50,
      "hit": false,
      "t": 8437.5,
      "d": 371.09375,
      "v": 72
    },
    {
      "midi": 69,
      "hit": false,
      "t": 8437.5,
      "d": 117.1875,
      "v": 79
    },
    {
      "midi": 77,
      "hit": false,
      "t": 8437.5,
      "d": 97.65625,
      "v": 79
    },
    {
      "midi": 57,
      "hit": false,
      "t": 8906.25,
      "d": 503.90625,
      "v": 68
    },
    {
      "midi": 74,
      "hit": false,
      "t": 8906.25,
      "d": 125,
      "v": 68
    },
    {
      "midi": 62,
      "hit": false,
      "t": 9257.8125,
      "d": 234.375,
      "v": 61
    },
    {
      "midi": 50,
      "hit": false,
      "t": 9375,
      "d": 433.59375,
      "v": 80
    },
    {
      "midi": 81,
      "hit": false,
      "t": 9375,
      "d": 121.09375,
      "v": 77
    },
    {
      "midi": 69,
      "hit": false,
      "t": 9375,
      "d": 539.0625,
      "v": 88
    },
    {
      "midi": 62,
      "hit": false,
      "t": 9609.375,
      "d": 11.71875,
      "v": 15
    },
    {
      "midi": 57,
      "hit": false,
      "t": 9843.75,
      "d": 109.375,
      "v": 77
    },
    {
      "midi": 74,
      "hit": false,
      "t": 9843.75,
      "d": 160.15625,
      "v": 80
    },
    {
      "midi": 74,
      "hit": false,
      "t": 9843.75,
      "d": 152.34375,
      "v": 72
    },
    {
      "midi": 72,
      "hit": false,
      "t": 10000,
      "d": 183.59375,
      "v": 47
    },
    {
      "midi": 67,
      "hit": false,
      "t": 10000,
      "d": 171.875,
      "v": 79
    },
    {
      "midi": 70,
      "hit": false,
      "t": 10156.25,
      "d": 148.4375,
      "v": 64
    },
    {
      "midi": 69,
      "hit": false,
      "t": 10156.25,
      "d": 148.4375,
      "v": 70
    },
    {
      "midi": 50,
      "hit": false,
      "t": 10312.5,
      "d": 417.96875,
      "v": 80
    },
    {
      "midi": 69,
      "hit": false,
      "t": 10312.5,
      "d": 117.1875,
      "v": 79
    },
    {
      "midi": 77,
      "hit": false,
      "t": 10312.5,
      "d": 101.5625,
      "v": 80
    },
    {
      "midi": 70,
      "hit": false,
      "t": 10312.5,
      "d": 433.59375,
      "v": 88
    },
    {
      "midi": 55,
      "hit": false,
      "t": 10781.25,
      "d": 355.46875,
      "v": 77
    },
    {
      "midi": 74,
      "hit": false,
      "t": 10781.25,
      "d": 140.625,
      "v": 68
    },
    {
      "midi": 69,
      "hit": false,
      "t": 10781.25,
      "d": 121.09375,
      "v": 76
    },
    {
      "midi": 67,
      "hit": false,
      "t": 11093.75,
      "d": 113.28125,
      "v": 76
    },
    {
      "midi": 50,
      "hit": false,
      "t": 11250,
      "d": 472.65625,
      "v": 68
    },
    {
      "midi": 81,
      "hit": false,
      "t": 11250,
      "d": 140.625,
      "v": 72
    },
    {
      "midi": 69,
      "hit": false,
      "t": 11250,
      "d": 457.03125,
      "v": 88
    },
    {
      "midi": 57,
      "hit": false,
      "t": 11718.75,
      "d": 472.65625,
      "v": 70
    },
    {
      "midi": 74,
      "hit": false,
      "t": 11718.75,
      "d": 175.78125,
      "v": 76
    },
    {
      "midi": 74,
      "hit": false,
      "t": 11718.75,
      "d": 152.34375,
      "v": 76
    },
    {
      "midi": 62,
      "hit": false,
      "t": 11718.75,
      "d": 1226.5625,
      "v": 88
    },
    {
      "midi": 72,
      "hit": false,
      "t": 11875,
      "d": 179.6875,
      "v": 57
    },
    {
      "midi": 70,
      "hit": false,
      "t": 12031.25,
      "d": 136.71875,
      "v": 76
    },
    {
      "midi": 50,
      "hit": false,
      "t": 12187.5,
      "d": 484.375,
      "v": 68
    },
    {
      "midi": 69,
      "hit": false,
      "t": 12187.5,
      "d": 109.375,
      "v": 78
    },
    {
      "midi": 77,
      "hit": false,
      "t": 12187.5,
      "d": 113.28125,
      "v": 84
    },
    {
      "midi": 57,
      "hit": false,
      "t": 12656.25,
      "d": 480.46875,
      "v": 68
    },
    {
      "midi": 74,
      "hit": false,
      "t": 12656.25,
      "d": 144.53125,
      "v": 64
    },
    {
      "midi": 46,
      "hit": false,
      "t": 13125,
      "d": 449.21875,
      "v": 72
    },
    {
      "midi": 77,
      "hit": false,
      "t": 13125,
      "d": 191.40625,
      "v": 72
    },
    {
      "midi": 60,
      "hit": false,
      "t": 13125,
      "d": 679.6875,
      "v": 80
    },
    {
      "midi": 65,
      "hit": false,
      "t": 13125,
      "d": 722.65625,
      "v": 79
    },
    {
      "midi": 53,
      "hit": false,
      "t": 13593.75,
      "d": 515.625,
      "v": 61
    },
    {
      "midi": 69,
      "hit": false,
      "t": 13593.75,
      "d": 164.0625,
      "v": 70
    },
    {
      "midi": 74,
      "hit": false,
      "t": 13593.75,
      "d": 140.625,
      "v": 76
    },
    {
      "midi": 67,
      "hit": false,
      "t": 13750,
      "d": 160.15625,
      "v": 49
    },
    {
      "midi": 64,
      "hit": false,
      "t": 13750,
      "d": 140.625,
      "v": 62
    },
    {
      "midi": 65,
      "hit": false,
      "t": 13906.25,
      "d": 148.4375,
      "v": 60
    },
    {
      "midi": 62,
      "hit": false,
      "t": 13906.25,
      "d": 152.34375,
      "v": 76
    },
    {
      "midi": 48,
      "hit": false,
      "t": 14062.5,
      "d": 503.90625,
      "v": 68
    },
    {
      "midi": 60,
      "hit": false,
      "t": 14062.5,
      "d": 148.4375,
      "v": 71
    },
    {
      "midi": 79,
      "hit": false,
      "t": 14062.5,
      "d": 195.3125,
      "v": 80
    },
    {
      "midi": 60,
      "hit": false,
      "t": 14062.5,
      "d": 484.375,
      "v": 88
    },
    {
      "midi": 55,
      "hit": false,
      "t": 14531.25,
      "d": 507.8125,
      "v": 68
    },
    {
      "midi": 76,
      "hit": false,
      "t": 14531.25,
      "d": 128.90625,
      "v": 72
    },
    {
      "midi": 57,
      "hit": false,
      "t": 14531.25,
      "d": 113.28125,
      "v": 80
    },
    {
      "midi": 60,
      "hit": false,
      "t": 14843.75,
      "d": 85.9375,
      "v": 80
    },
    {
      "midi": 50,
      "hit": false,
      "t": 15000,
      "d": 433.59375,
      "v": 72
    },
    {
      "midi": 81,
      "hit": false,
      "t": 15000,
      "d": 117.1875,
      "v": 68
    },
    {
      "midi": 62,
      "hit": false,
      "t": 15000,
      "d": 1386.71875,
      "v": 80
    },
    {
      "midi": 57,
      "hit": false,
      "t": 15468.75,
      "d": 496.09375,
      "v": 63
    },
    {
      "midi": 74,
      "hit": false,
      "t": 15468.75,
      "d": 199.21875,
      "v": 68
    },
    {
      "midi": 74,
      "hit": false,
      "t": 15468.75,
      "d": 136.71875,
      "v": 68
    },
    {
      "midi": 72,
      "hit": false,
      "t": 15625,
      "d": 187.5,
      "v": 68
    },
    {
      "midi": 70,
      "hit": false,
      "t": 15781.25,
      "d": 148.4375,
      "v": 71
    },
    {
      "midi": 50,
      "hit": false,
      "t": 15937.5,
      "d": 472.65625,
      "v": 76
    },
    {
      "midi": 69,
      "hit": false,
      "t": 15937.5,
      "d": 85.9375,
      "v": 72
    },
    {
      "midi": 77,
      "hit": false,
      "t": 15937.5,
      "d": 105.46875,
      "v": 79
    },
    {
      "midi": 57,
      "hit": false,
      "t": 16406.25,
      "d": 453.125,
      "v": 72
    },
    {
      "midi": 74,
      "hit": false,
      "t": 16406.25,
      "d": 132.8125,
      "v": 76
    },
    {
      "midi": 62,
      "hit": false,
      "t": 16406.25,
      "d": 117.1875,
      "v": 88
    },
    {
      "midi": 67,
      "hit": false,
      "t": 16640.625,
      "d": 62.5,
      "v": 79
    },
    {
      "midi": 51,
      "hit": false,
      "t": 16875,
      "d": 347.65625,
      "v": 88
    },
    {
      "midi": 70,
      "hit": false,
      "t": 16875,
      "d": 734.375,
      "v": 80
    },
    {
      "midi": 63,
      "hit": false,
      "t": 16875,
      "d": 1640.625,
      "v": 104
    },
    {
      "midi": 67,
      "hit": false,
      "t": 16914.0625,
      "d": 527.34375,
      "v": 77
    },
    {
      "midi": 75,
      "hit": false,
      "t": 16953.125,
      "d": 378.90625,
      "v": 78
    },
    {
      "midi": 63,
      "hit": false,
      "t": 17343.75,
      "d": 191.40625,
      "v": 80
    },
    {
      "midi": 70,
      "hit": false,
      "t": 17343.75,
      "d": 222.65625,
      "v": 76
    },
    {
      "midi": 69,
      "hit": false,
      "t": 17578.125,
      "d": 187.5,
      "v": 80
    },
    {
      "midi": 69,
      "hit": false,
      "t": 17656.25,
      "d": 101.5625,
      "v": 76
    },
    {
      "midi": 51,
      "hit": false,
      "t": 17812.5,
      "d": 253.90625,
      "v": 76
    },
    {
      "midi": 67,
      "hit": false,
      "t": 17812.5,
      "d": 460.9375,
      "v": 88
    },
    {
      "midi": 67,
      "hit": false,
      "t": 17812.5,
      "d": 460.9375,
      "v": 76
    },
    {
      "midi": 58,
      "hit": false,
      "t": 18281.25,
      "d": 109.375,
      "v": 84
    },
    {
      "midi": 65,
      "hit": false,
      "t": 18281.25,
      "d": 85.9375,
      "v": 72
    },
    {
      "midi": 69,
      "hit": false,
      "t": 18281.25,
      "d": 230.46875,
      "v": 88
    },
    {
      "midi": 67,
      "hit": false,
      "t": 18593.75,
      "d": 105.46875,
      "v": 84
    },
    {
      "midi": 50,
      "hit": false,
      "t": 18750,
      "d": 273.4375,
      "v": 80
    },
    {
      "midi": 69,
      "hit": false,
      "t": 18750,
      "d": 703.125,
      "v": 88
    },
    {
      "midi": 62,
      "hit": false,
      "t": 18750,
      "d": 1699.21875,
      "v": 94
    },
    {
      "midi": 67,
      "hit": false,
      "t": 18789.0625,
      "d": 433.59375,
      "v": 72
    },
    {
      "midi": 74,
      "hit": false,
      "t": 18828.125,
      "d": 613.28125,
      "v": 80
    },
    {
      "midi": 62,
      "hit": false,
      "t": 19218.75,
      "d": 175.78125,
      "v": 88
    },
    {
      "midi": 69,
      "hit": false,
      "t": 19218.75,
      "d": 246.09375,
      "v": 70
    },
    {
      "midi": 67,
      "hit": false,
      "t": 19378.90625,
      "d": 132.8125,
      "v": 78
    },
    {
      "midi": 67,
      "hit": false,
      "t": 19453.125,
      "d": 234.375,
      "v": 77
    },
    {
      "midi": 65,
      "hit": false,
      "t": 19531.25,
      "d": 164.0625,
      "v": 79
    },
    {
      "midi": 50,
      "hit": false,
      "t": 19687.5,
      "d": 234.375,
      "v": 84
    },
    {
      "midi": 62,
      "hit": false,
      "t": 19687.5,
      "d": 539.0625,
      "v": 80
    },
    {
      "midi": 65,
      "hit": false,
      "t": 19687.5,
      "d": 503.90625,
      "v": 72
    },
    {
      "midi": 57,
      "hit": false,
      "t": 20156.25,
      "d": 148.4375,
      "v": 88
    },
    {
      "midi": 67,
      "hit": false,
      "t": 20156.25,
      "d": 218.75,
      "v": 80
    },
    {
      "midi": 60,
      "hit": false,
      "t": 20312.5,
      "d": 140.625,
      "v": 68
    },
    {
      "midi": 62,
      "hit": false,
      "t": 20468.75,
      "d": 148.4375,
      "v": 80
    },
    {
      "midi": 48,
      "hit": false,
      "t": 20625,
      "d": 226.5625,
      "v": 84
    },
    {
      "midi": 63,
      "hit": false,
      "t": 20625,
      "d": 726.5625,
      "v": 88
    },
    {
      "midi": 60,
      "hit": false,
      "t": 20625,
      "d": 1703.125,
      "v": 84
    },
    {
      "midi": 67,
      "hit": false,
      "t": 20664.0625,
      "d": 527.34375,
      "v": 72
    },
    {
      "midi": 72,
      "hit": false,
      "t": 20703.125,
      "d": 621.09375,
      "v": 88
    },
    {
      "midi": 60,
      "hit": false,
      "t": 21093.75,
      "d": 171.875,
      "v": 72
    },
    {
      "midi": 67,
      "hit": false,
      "t": 21328.125,
      "d": 292.96875,
      "v": 71
    },
    {
      "midi": 62,
      "hit": false,
      "t": 21406.25,
      "d": 167.96875,
      "v": 61
    },
    {
      "midi": 48,
      "hit": false,
      "t": 21562.5,
      "d": 242.1875,
      "v": 79
    },
    {
      "midi": 60,
      "hit": false,
      "t": 21562.5,
      "d": 359.375,
      "v": 84
    },
    {
      "midi": 72,
      "hit": false,
      "t": 21562.5,
      "d": 507.8125,
      "v": 80
    },
    {
      "midi": 55,
      "hit": false,
      "t": 22031.25,
      "d": 132.8125,
      "v": 88
    },
    {
      "midi": 58,
      "hit": false,
      "t": 22031.25,
      "d": 121.09375,
      "v": 76
    },
    {
      "midi": 74,
      "hit": false,
      "t": 22031.25,
      "d": 292.96875,
      "v": 84
    },
    {
      "midi": 60,
      "hit": false,
      "t": 22343.75,
      "d": 121.09375,
      "v": 76
    },
    {
      "midi": 43,
      "hit": false,
      "t": 22500,
      "d": 203.125,
      "v": 80
    },
    {
      "midi": 62,
      "hit": false,
      "t": 22500,
      "d": 1292.96875,
      "v": 80
    },
    {
      "midi": 58,
      "hit": false,
      "t": 22500,
      "d": 1785.15625,
      "v": 104
    },
    {
      "midi": 62,
      "hit": false,
      "t": 22539.0625,
      "d": 1718.75,
      "v": 88
    },
    {
      "midi": 67,
      "hit": false,
      "t": 22578.125,
      "d": 503.90625,
      "v": 88
    },
    {
      "midi": 55,
      "hit": false,
      "t": 22968.75,
      "d": 140.625,
      "v": 79
    },
    {
      "midi": 67,
      "hit": false,
      "t": 23203.125,
      "d": 199.21875,
      "v": 72
    },
    {
      "midi": 43,
      "hit": false,
      "t": 23437.5,
      "d": 167.96875,
      "v": 80
    },
    {
      "midi": 70,
      "hit": false,
      "t": 23437.5,
      "d": 449.21875,
      "v": 68
    },
    {
      "midi": 50,
      "hit": false,
      "t": 23906.25,
      "d": 140.625,
      "v": 72
    },
    {
      "midi": 62,
      "hit": false,
      "t": 23906.25,
      "d": 148.4375,
      "v": 71
    },
    {
      "midi": 67,
      "hit": false,
      "t": 23906.25,
      "d": 238.28125,
      "v": 80
    },
    {
      "midi": 67,
      "hit": false,
      "t": 24140.625,
      "d": 74.21875,
      "v": 68
    },
    {
      "midi": 51,
      "hit": false,
      "t": 24375,
      "d": 347.65625,
      "v": 88
    },
    {
      "midi": 70,
      "hit": false,
      "t": 24375,
      "d": 691.40625,
      "v": 72
    },
    {
      "midi": 63,
      "hit": false,
      "t": 24375,
      "d": 1640.625,
      "v": 104
    },
    {
      "midi": 67,
      "hit": false,
      "t": 24414.0625,
      "d": 527.34375,
      "v": 77
    },
    {
      "midi": 75,
      "hit": false,
      "t": 24453.125,
      "d": 378.90625,
      "v": 78
    },
    {
      "midi": 63,
      "hit": false,
      "t": 24843.75,
      "d": 191.40625,
      "v": 80
    },
    {
      "midi": 70,
      "hit": false,
      "t": 24843.75,
      "d": 222.65625,
      "v": 76
    },
    {
      "midi": 69,
      "hit": false,
      "t": 25078.125,
      "d": 187.5,
      "v": 80
    },
    {
      "midi": 69,
      "hit": false,
      "t": 25156.25,
      "d": 199.21875,
      "v": 68
    },
    {
      "midi": 51,
      "hit": false,
      "t": 25312.5,
      "d": 253.90625,
      "v": 76
    },
    {
      "midi": 67,
      "hit": false,
      "t": 25312.5,
      "d": 417.96875,
      "v": 84
    },
    {
      "midi": 67,
      "hit": false,
      "t": 25312.5,
      "d": 460.9375,
      "v": 76
    },
    {
      "midi": 58,
      "hit": false,
      "t": 25781.25,
      "d": 109.375,
      "v": 84
    },
    {
      "midi": 65,
      "hit": false,
      "t": 25781.25,
      "d": 136.71875,
      "v": 80
    },
    {
      "midi": 69,
      "hit": false,
      "t": 25781.25,
      "d": 230.46875,
      "v": 88
    },
    {
      "midi": 67,
      "hit": false,
      "t": 26093.75,
      "d": 117.1875,
      "v": 79
    },
    {
      "midi": 50,
      "hit": false,
      "t": 26250,
      "d": 273.4375,
      "v": 80
    },
    {
      "midi": 69,
      "hit": false,
      "t": 26250,
      "d": 667.96875,
      "v": 77
    },
    {
      "midi": 62,
      "hit": false,
      "t": 26250,
      "d": 1699.21875,
      "v": 94
    },
    {
      "midi": 67,
      "hit": false,
      "t": 26289.0625,
      "d": 433.59375,
      "v": 72
    },
    {
      "midi": 74,
      "hit": false,
      "t": 26328.125,
      "d": 613.28125,
      "v": 80
    },
    {
      "midi": 62,
      "hit": false,
      "t": 26718.75,
      "d": 175.78125,
      "v": 88
    },
    {
      "midi": 69,
      "hit": false,
      "t": 26718.75,
      "d": 246.09375,
      "v": 70
    },
    {
      "midi": 67,
      "hit": false,
      "t": 26875,
      "d": 144.53125,
      "v": 57
    },
    {
      "midi": 67,
      "hit": false,
      "t": 26953.125,
      "d": 234.375,
      "v": 77
    },
    {
      "midi": 65,
      "hit": false,
      "t": 27031.25,
      "d": 164.0625,
      "v": 70
    },
    {
      "midi": 50,
      "hit": false,
      "t": 27187.5,
      "d": 234.375,
      "v": 84
    },
    {
      "midi": 62,
      "hit": false,
      "t": 27187.5,
      "d": 703.125,
      "v": 88
    },
    {
      "midi": 65,
      "hit": false,
      "t": 27187.5,
      "d": 503.90625,
      "v": 72
    },
    {
      "midi": 57,
      "hit": false,
      "t": 27656.25,
      "d": 148.4375,
      "v": 88
    },
    {
      "midi": 67,
      "hit": false,
      "t": 27656.25,
      "d": 218.75,
      "v": 80
    },
    {
      "midi": 48,
      "hit": false,
      "t": 28125,
      "d": 226.5625,
      "v": 84
    },
    {
      "midi": 63,
      "hit": false,
      "t": 28125,
      "d": 765.625,
      "v": 88
    },
    {
      "midi": 60,
      "hit": false,
      "t": 28125,
      "d": 1703.125,
      "v": 84
    },
    {
      "midi": 67,
      "hit": false,
      "t": 28164.0625,
      "d": 527.34375,
      "v": 72
    },
    {
      "midi": 72,
      "hit": false,
      "t": 28203.125,
      "d": 621.09375,
      "v": 88
    },
    {
      "midi": 60,
      "hit": false,
      "t": 28593.75,
      "d": 171.875,
      "v": 72
    },
    {
      "midi": 67,
      "hit": false,
      "t": 28828.125,
      "d": 292.96875,
      "v": 71
    },
    {
      "midi": 62,
      "hit": false,
      "t": 28906.25,
      "d": 179.6875,
      "v": 80
    },
    {
      "midi": 48,
      "hit": false,
      "t": 29062.5,
      "d": 242.1875,
      "v": 79
    },
    {
      "midi": 60,
      "hit": false,
      "t": 29062.5,
      "d": 394.53125,
      "v": 80
    },
    {
      "midi": 72,
      "hit": false,
      "t": 29062.5,
      "d": 507.8125,
      "v": 80
    },
    {
      "midi": 55,
      "hit": false,
      "t": 29531.25,
      "d": 132.8125,
      "v": 88
    },
    {
      "midi": 58,
      "hit": false,
      "t": 29531.25,
      "d": 402.34375,
      "v": 88
    },
    {
      "midi": 74,
      "hit": false,
      "t": 29531.25,
      "d": 292.96875,
      "v": 84
    },
    {
      "midi": 38,
      "hit": false,
      "t": 30000,
      "d": 242.1875,
      "v": 80
    },
    {
      "midi": 79,
      "hit": false,
      "t": 30000,
      "d": 246.09375,
      "v": 88
    },
    {
      "midi": 79,
      "hit": false,
      "t": 30000,
      "d": 246.09375,
      "v": 88
    },
    {
      "midi": 62,
      "hit": false,
      "t": 30000,
      "d": 1863.28125,
      "v": 84
    },
    {
      "midi": 38,
      "hit": false,
      "t": 30027.34375,
      "d": 3597.65625,
      "v": 88
    },
    {
      "midi": 50,
      "hit": false,
      "t": 30257.8125,
      "d": 3367.1875,
      "v": 88
    },
    {
      "midi": 74,
      "hit": false,
      "t": 30464.84375,
      "d": 152.34375,
      "v": 76
    },
    {
      "midi": 74,
      "hit": false,
      "t": 30464.84375,
      "d": 152.34375,
      "v": 76
    },
    {
      "midi": 50,
      "hit": false,
      "t": 30468.75,
      "d": 183.59375,
      "v": 80
    },
    {
      "midi": 55,
      "hit": false,
      "t": 30496.09375,
      "d": 3167.96875,
      "v": 76
    },
    {
      "midi": 57,
      "hit": false,
      "t": 30730.46875,
      "d": 285.15625,
      "v": 80
    },
    {
      "midi": 81,
      "hit": false,
      "t": 30925.78125,
      "d": 164.0625,
      "v": 80
    },
    {
      "midi": 81,
      "hit": false,
      "t": 30925.78125,
      "d": 164.0625,
      "v": 80
    },
    {
      "midi": 38,
      "hit": false,
      "t": 30937.5,
      "d": 250,
      "v": 79
    },
    {
      "midi": 62,
      "hit": false,
      "t": 30976.5625,
      "d": 2679.6875,
      "v": 88
    },
    {
      "midi": 74,
      "hit": false,
      "t": 31390.625,
      "d": 125,
      "v": 68
    },
    {
      "midi": 74,
      "hit": false,
      "t": 31390.625,
      "d": 125,
      "v": 68
    },
    {
      "midi": 45,
      "hit": false,
      "t": 31406.25,
      "d": 222.65625,
      "v": 80
    },
    {
      "midi": 79,
      "hit": false,
      "t": 31863.28125,
      "d": 132.8125,
      "v": 88
    },
    {
      "midi": 79,
      "hit": false,
      "t": 31863.28125,
      "d": 132.8125,
      "v": 88
    },
    {
      "midi": 69,
      "hit": false,
      "t": 31863.28125,
      "d": 1859.375,
      "v": 64
    },
    {
      "midi": 38,
      "hit": false,
      "t": 31875,
      "d": 250,
      "v": 72
    },
    {
      "midi": 74,
      "hit": false,
      "t": 32339.84375,
      "d": 132.8125,
      "v": 72
    },
    {
      "midi": 74,
      "hit": false,
      "t": 32339.84375,
      "d": 132.8125,
      "v": 72
    },
    {
      "midi": 50,
      "hit": false,
      "t": 32343.75,
      "d": 179.6875,
      "v": 71
    },
    {
      "midi": 81,
      "hit": false,
      "t": 32800.78125,
      "d": 152.34375,
      "v": 72
    },
    {
      "midi": 81,
      "hit": false,
      "t": 32800.78125,
      "d": 152.34375,
      "v": 72
    },
    {
      "midi": 38,
      "hit": false,
      "t": 32812.5,
      "d": 234.375,
      "v": 76
    },
    {
      "midi": 74,
      "hit": false,
      "t": 33273.4375,
      "d": 125,
      "v": 64
    },
    {
      "midi": 74,
      "hit": false,
      "t": 33273.4375,
      "d": 125,
      "v": 64
    },
    {
      "midi": 45,
      "hit": false,
      "t": 33281.25,
      "d": 210.9375,
      "v": 76
    },
    {
      "midi": 74,
      "hit": false,
      "t": 33722.65625,
      "d": 2031.25,
      "v": 79
    },
    {
      "midi": 79,
      "hit": false,
      "t": 33742.1875,
      "d": 128.90625,
      "v": 80
    },
    {
      "midi": 79,
      "hit": false,
      "t": 33742.1875,
      "d": 128.90625,
      "v": 80
    },
    {
      "midi": 38,
      "hit": false,
      "t": 33750,
      "d": 210.9375,
      "v": 76
    },
    {
      "midi": 38,
      "hit": false,
      "t": 33777.34375,
      "d": 3597.65625,
      "v": 88
    },
    {
      "midi": 50,
      "hit": false,
      "t": 34007.8125,
      "d": 3367.1875,
      "v": 88
    },
    {
      "midi": 50,
      "hit": false,
      "t": 34218.75,
      "d": 167.96875,
      "v": 79
    },
    {
      "midi": 74,
      "hit": false,
      "t": 34226.5625,
      "d": 136.71875,
      "v": 68
    },
    {
      "midi": 74,
      "hit": false,
      "t": 34226.5625,
      "d": 136.71875,
      "v": 68
    },
    {
      "midi": 55,
      "hit": false,
      "t": 34246.09375,
      "d": 3167.96875,
      "v": 76
    },
    {
      "midi": 57,
      "hit": false,
      "t": 34480.46875,
      "d": 285.15625,
      "v": 80
    },
    {
      "midi": 38,
      "hit": false,
      "t": 34687.5,
      "d": 222.65625,
      "v": 58
    },
    {
      "midi": 81,
      "hit": false,
      "t": 34695.3125,
      "d": 125,
      "v": 77
    },
    {
      "midi": 81,
      "hit": false,
      "t": 34695.3125,
      "d": 125,
      "v": 77
    },
    {
      "midi": 62,
      "hit": false,
      "t": 34726.5625,
      "d": 2679.6875,
      "v": 88
    },
    {
      "midi": 45,
      "hit": false,
      "t": 35156.25,
      "d": 222.65625,
      "v": 71
    },
    {
      "midi": 74,
      "hit": false,
      "t": 35160.15625,
      "d": 128.90625,
      "v": 72
    },
    {
      "midi": 74,
      "hit": false,
      "t": 35160.15625,
      "d": 128.90625,
      "v": 72
    },
    {
      "midi": 79,
      "hit": false,
      "t": 35621.09375,
      "d": 136.71875,
      "v": 80
    },
    {
      "midi": 79,
      "hit": false,
      "t": 35621.09375,
      "d": 136.71875,
      "v": 80
    },
    {
      "midi": 38,
      "hit": false,
      "t": 35625,
      "d": 222.65625,
      "v": 68
    },
    {
      "midi": 74,
      "hit": false,
      "t": 36074.21875,
      "d": 140.625,
      "v": 68
    },
    {
      "midi": 74,
      "hit": false,
      "t": 36074.21875,
      "d": 140.625,
      "v": 68
    },
    {
      "midi": 50,
      "hit": false,
      "t": 36093.75,
      "d": 187.5,
      "v": 71
    },
    {
      "midi": 81,
      "hit": false,
      "t": 36554.6875,
      "d": 152.34375,
      "v": 79
    },
    {
      "midi": 81,
      "hit": false,
      "t": 36554.6875,
      "d": 152.34375,
      "v": 79
    },
    {
      "midi": 38,
      "hit": false,
      "t": 36562.5,
      "d": 257.8125,
      "v": 71
    },
    {
      "midi": 74,
      "hit": false,
      "t": 37019.53125,
      "d": 128.90625,
      "v": 76
    },
    {
      "midi": 74,
      "hit": false,
      "t": 37019.53125,
      "d": 128.90625,
      "v": 76
    },
    {
      "midi": 45,
      "hit": false,
      "t": 37031.25,
      "d": 187.5,
      "v": 62
    },
    {
      "midi": 50,
      "hit": false,
      "t": 37500,
      "d": 285.15625,
      "v": 94
    },
    {
      "midi": 74,
      "hit": false,
      "t": 37500,
      "d": 386.71875,
      "v": 88
    },
    {
      "midi": 38,
      "hit": false,
      "t": 37527.34375,
      "d": 3597.65625,
      "v": 88
    },
    {
      "midi": 57,
      "hit": false,
      "t": 37734.375,
      "d": 246.09375,
      "v": 80
    },
    {
      "midi": 50,
      "hit": false,
      "t": 37757.8125,
      "d": 3367.1875,
      "v": 88
    },
    {
      "midi": 62,
      "hit": false,
      "t": 37968.75,
      "d": 179.6875,
      "v": 88
    },
    {
      "midi": 74,
      "hit": false,
      "t": 37968.75,
      "d": 85.9375,
      "v": 76
    },
    {
      "midi": 62,
      "hit": false,
      "t": 37968.75,
      "d": 93.75,
      "v": 80
    },
    {
      "midi": 55,
      "hit": false,
      "t": 37996.09375,
      "d": 3167.96875,
      "v": 76
    },
    {
      "midi": 67,
      "hit": false,
      "t": 38203.125,
      "d": 175.78125,
      "v": 59
    },
    {
      "midi": 74,
      "hit": false,
      "t": 38203.125,
      "d": 74.21875,
      "v": 80
    },
    {
      "midi": 62,
      "hit": false,
      "t": 38203.125,
      "d": 105.46875,
      "v": 76
    },
    {
      "midi": 57,
      "hit": false,
      "t": 38230.46875,
      "d": 285.15625,
      "v": 80
    },
    {
      "midi": 74,
      "hit": false,
      "t": 38437.5,
      "d": 464.84375,
      "v": 80
    },
    {
      "midi": 74,
      "hit": false,
      "t": 38437.5,
      "d": 433.59375,
      "v": 80
    },
    {
      "midi": 62,
      "hit": false,
      "t": 38476.5625,
      "d": 2679.6875,
      "v": 88
    },
    {
      "midi": 72,
      "hit": false,
      "t": 38906.25,
      "d": 156.25,
      "v": 68
    },
    {
      "midi": 72,
      "hit": false,
      "t": 38906.25,
      "d": 89.84375,
      "v": 80
    },
    {
      "midi": 62,
      "hit": false,
      "t": 38906.25,
      "d": 82.03125,
      "v": 80
    },
    {
      "midi": 69,
      "hit": false,
      "t": 39140.625,
      "d": 148.4375,
      "v": 64
    },
    {
      "midi": 74,
      "hit": false,
      "t": 39140.625,
      "d": 93.75,
      "v": 72
    },
    {
      "midi": 62,
      "hit": false,
      "t": 39140.625,
      "d": 89.84375,
      "v": 80
    },
    {
      "midi": 72,
      "hit": false,
      "t": 39375,
      "d": 261.71875,
      "v": 80
    },
    {
      "midi": 77,
      "hit": false,
      "t": 39375,
      "d": 433.59375,
      "v": 80
    },
    {
      "midi": 69,
      "hit": false,
      "t": 39843.75,
      "d": 160.15625,
      "v": 76
    },
    {
      "midi": 74,
      "hit": false,
      "t": 39843.75,
      "d": 97.65625,
      "v": 59
    },
    {
      "midi": 62,
      "hit": false,
      "t": 39843.75,
      "d": 78.125,
      "v": 80
    },
    {
      "midi": 67,
      "hit": false,
      "t": 40078.125,
      "d": 144.53125,
      "v": 59
    },
    {
      "midi": 77,
      "hit": false,
      "t": 40078.125,
      "d": 113.28125,
      "v": 68
    },
    {
      "midi": 62,
      "hit": false,
      "t": 40078.125,
      "d": 93.75,
      "v": 88
    },
    {
      "midi": 69,
      "hit": false,
      "t": 40312.5,
      "d": 425.78125,
      "v": 80
    },
    {
      "midi": 79,
      "hit": false,
      "t": 40312.5,
      "d": 453.125,
      "v": 77
    },
    {
      "midi": 67,
      "hit": false,
      "t": 40781.25,
      "d": 210.9375,
      "v": 72
    },
    {
      "midi": 81,
      "hit": false,
      "t": 40781.25,
      "d": 464.84375,
      "v": 78
    },
    {
      "midi": 62,
      "hit": false,
      "t": 40781.25,
      "d": 85.9375,
      "v": 79
    },
    {
      "midi": 62,
      "hit": false,
      "t": 41015.625,
      "d": 187.5,
      "v": 80
    },
    {
      "midi": 62,
      "hit": false,
      "t": 41015.625,
      "d": 93.75,
      "v": 80
    },
    {
      "midi": 50,
      "hit": false,
      "t": 41250,
      "d": 257.8125,
      "v": 88
    },
    {
      "midi": 74,
      "hit": false,
      "t": 41250,
      "d": 562.5,
      "v": 88
    },
    {
      "midi": 38,
      "hit": false,
      "t": 41277.34375,
      "d": 3597.65625,
      "v": 88
    },
    {
      "midi": 57,
      "hit": false,
      "t": 41484.375,
      "d": 226.5625,
      "v": 84
    },
    {
      "midi": 50,
      "hit": false,
      "t": 41507.8125,
      "d": 3367.1875,
      "v": 88
    },
    {
      "midi": 62,
      "hit": false,
      "t": 41718.75,
      "d": 187.5,
      "v": 88
    },
    {
      "midi": 62,
      "hit": false,
      "t": 41718.75,
      "d": 85.9375,
      "v": 71
    },
    {
      "midi": 55,
      "hit": false,
      "t": 41746.09375,
      "d": 3167.96875,
      "v": 76
    },
    {
      "midi": 69,
      "hit": false,
      "t": 41953.125,
      "d": 156.25,
      "v": 80
    },
    {
      "midi": 74,
      "hit": false,
      "t": 41953.125,
      "d": 74.21875,
      "v": 76
    },
    {
      "midi": 62,
      "hit": false,
      "t": 41953.125,
      "d": 97.65625,
      "v": 76
    },
    {
      "midi": 57,
      "hit": false,
      "t": 41980.46875,
      "d": 285.15625,
      "v": 80
    },
    {
      "midi": 74,
      "hit": false,
      "t": 42187.5,
      "d": 433.59375,
      "v": 80
    },
    {
      "midi": 74,
      "hit": false,
      "t": 42187.5,
      "d": 417.96875,
      "v": 80
    },
    {
      "midi": 62,
      "hit": false,
      "t": 42226.5625,
      "d": 2679.6875,
      "v": 88
    },
    {
      "midi": 72,
      "hit": false,
      "t": 42656.25,
      "d": 105.46875,
      "v": 50
    },
    {
      "midi": 72,
      "hit": false,
      "t": 42656.25,
      "d": 128.90625,
      "v": 64
    },
    {
      "midi": 62,
      "hit": false,
      "t": 42656.25,
      "d": 82.03125,
      "v": 80
    },
    {
      "midi": 69,
      "hit": false,
      "t": 42890.625,
      "d": 125,
      "v": 54
    },
    {
      "midi": 74,
      "hit": false,
      "t": 42890.625,
      "d": 109.375,
      "v": 80
    },
    {
      "midi": 62,
      "hit": false,
      "t": 42890.625,
      "d": 93.75,
      "v": 80
    },
    {
      "midi": 72,
      "hit": false,
      "t": 43125,
      "d": 324.21875,
      "v": 79
    },
    {
      "midi": 77,
      "hit": false,
      "t": 43125,
      "d": 429.6875,
      "v": 79
    },
    {
      "midi": 69,
      "hit": false,
      "t": 43593.75,
      "d": 171.875,
      "v": 62
    },
    {
      "midi": 79,
      "hit": false,
      "t": 43593.75,
      "d": 203.125,
      "v": 68
    },
    {
      "midi": 62,
      "hit": false,
      "t": 43593.75,
      "d": 93.75,
      "v": 80
    },
    {
      "midi": 67,
      "hit": false,
      "t": 43828.125,
      "d": 152.34375,
      "v": 64
    },
    {
      "midi": 74,
      "hit": false,
      "t": 43828.125,
      "d": 148.4375,
      "v": 79
    },
    {
      "midi": 62,
      "hit": false,
      "t": 43828.125,
      "d": 93.75,
      "v": 76
    },
    {
      "midi": 69,
      "hit": false,
      "t": 44062.5,
      "d": 421.875,
      "v": 80
    },
    {
      "midi": 72,
      "hit": false,
      "t": 44062.5,
      "d": 804.6875,
      "v": 79
    },
    {
      "midi": 67,
      "hit": false,
      "t": 44531.25,
      "d": 187.5,
      "v": 70
    },
    {
      "midi": 62,
      "hit": false,
      "t": 44531.25,
      "d": 89.84375,
      "v": 84
    },
    {
      "midi": 62,
      "hit": false,
      "t": 44765.625,
      "d": 156.25,
      "v": 79
    },
    {
      "midi": 62,
      "hit": false,
      "t": 44765.625,
      "d": 89.84375,
      "v": 80
    },
    {
      "midi": 50,
      "hit": false,
      "t": 45000,
      "d": 285.15625,
      "v": 94
    },
    {
      "midi": 74,
      "hit": false,
      "t": 45000,
      "d": 414.0625,
      "v": 80
    },
    {
      "midi": 38,
      "hit": false,
      "t": 45027.34375,
      "d": 3597.65625,
      "v": 88
    },
    {
      "midi": 57,
      "hit": false,
      "t": 45234.375,
      "d": 246.09375,
      "v": 80
    },
    {
      "midi": 50,
      "hit": false,
      "t": 45257.8125,
      "d": 3367.1875,
      "v": 88
    },
    {
      "midi": 62,
      "hit": false,
      "t": 45468.75,
      "d": 179.6875,
      "v": 88
    },
    {
      "midi": 72,
      "hit": false,
      "t": 45468.75,
      "d": 66.40625,
      "v": 55
    },
    {
      "midi": 62,
      "hit": false,
      "t": 45468.75,
      "d": 62.5,
      "v": 76
    },
    {
      "midi": 55,
      "hit": false,
      "t": 45496.09375,
      "d": 3167.96875,
      "v": 76
    },
    {
      "midi": 67,
      "hit": false,
      "t": 45703.125,
      "d": 175.78125,
      "v": 59
    },
    {
      "midi": 74,
      "hit": false,
      "t": 45703.125,
      "d": 117.1875,
      "v": 80
    },
    {
      "midi": 62,
      "hit": false,
      "t": 45703.125,
      "d": 82.03125,
      "v": 80
    },
    {
      "midi": 57,
      "hit": false,
      "t": 45730.46875,
      "d": 285.15625,
      "v": 80
    },
    {
      "midi": 74,
      "hit": false,
      "t": 45937.5,
      "d": 464.84375,
      "v": 80
    },
    {
      "midi": 74,
      "hit": false,
      "t": 45937.5,
      "d": 472.65625,
      "v": 80
    },
    {
      "midi": 62,
      "hit": false,
      "t": 45976.5625,
      "d": 2679.6875,
      "v": 88
    },
    {
      "midi": 72,
      "hit": false,
      "t": 46406.25,
      "d": 156.25,
      "v": 68
    },
    {
      "midi": 72,
      "hit": false,
      "t": 46406.25,
      "d": 105.46875,
      "v": 64
    },
    {
      "midi": 62,
      "hit": false,
      "t": 46406.25,
      "d": 66.40625,
      "v": 76
    },
    {
      "midi": 69,
      "hit": false,
      "t": 46640.625,
      "d": 148.4375,
      "v": 64
    },
    {
      "midi": 74,
      "hit": false,
      "t": 46640.625,
      "d": 121.09375,
      "v": 71
    },
    {
      "midi": 62,
      "hit": false,
      "t": 46640.625,
      "d": 74.21875,
      "v": 80
    },
    {
      "midi": 72,
      "hit": false,
      "t": 46875,
      "d": 261.71875,
      "v": 80
    },
    {
      "midi": 77,
      "hit": false,
      "t": 46875,
      "d": 386.71875,
      "v": 80
    },
    {
      "midi": 69,
      "hit": false,
      "t": 47343.75,
      "d": 160.15625,
      "v": 76
    },
    {
      "midi": 74,
      "hit": false,
      "t": 47343.75,
      "d": 121.09375,
      "v": 60
    },
    {
      "midi": 62,
      "hit": false,
      "t": 47343.75,
      "d": 54.6875,
      "v": 72
    },
    {
      "midi": 67,
      "hit": false,
      "t": 47578.125,
      "d": 144.53125,
      "v": 59
    },
    {
      "midi": 77,
      "hit": false,
      "t": 47578.125,
      "d": 132.8125,
      "v": 72
    },
    {
      "midi": 62,
      "hit": false,
      "t": 47578.125,
      "d": 70.3125,
      "v": 76
    },
    {
      "midi": 69,
      "hit": false,
      "t": 47812.5,
      "d": 425.78125,
      "v": 80
    },
    {
      "midi": 79,
      "hit": false,
      "t": 47812.5,
      "d": 429.6875,
      "v": 80
    },
    {
      "midi": 67,
      "hit": false,
      "t": 48281.25,
      "d": 210.9375,
      "v": 72
    },
    {
      "midi": 81,
      "hit": false,
      "t": 48281.25,
      "d": 460.9375,
      "v": 76
    },
    {
      "midi": 62,
      "hit": false,
      "t": 48281.25,
      "d": 58.59375,
      "v": 71
    },
    {
      "midi": 62,
      "hit": false,
      "t": 48515.625,
      "d": 187.5,
      "v": 80
    },
    {
      "midi": 62,
      "hit": false,
      "t": 48515.625,
      "d": 82.03125,
      "v": 80
    },
    {
      "midi": 50,
      "hit": false,
      "t": 48750,
      "d": 257.8125,
      "v": 88
    },
    {
      "midi": 79,
      "hit": false,
      "t": 48750,
      "d": 648.4375,
      "v": 80
    },
    {
      "midi": 38,
      "hit": false,
      "t": 48777.34375,
      "d": 3597.65625,
      "v": 88
    },
    {
      "midi": 57,
      "hit": false,
      "t": 48984.375,
      "d": 226.5625,
      "v": 84
    },
    {
      "midi": 50,
      "hit": false,
      "t": 49007.8125,
      "d": 3367.1875,
      "v": 88
    },
    {
      "midi": 62,
      "hit": false,
      "t": 49218.75,
      "d": 187.5,
      "v": 88
    },
    {
      "midi": 62,
      "hit": false,
      "t": 49218.75,
      "d": 70.3125,
      "v": 68
    },
    {
      "midi": 55,
      "hit": false,
      "t": 49246.09375,
      "d": 3167.96875,
      "v": 76
    },
    {
      "midi": 77,
      "hit": false,
      "t": 49375,
      "d": 125,
      "v": 56
    },
    {
      "midi": 69,
      "hit": false,
      "t": 49453.125,
      "d": 156.25,
      "v": 80
    },
    {
      "midi": 62,
      "hit": false,
      "t": 49453.125,
      "d": 78.125,
      "v": 80
    },
    {
      "midi": 57,
      "hit": false,
      "t": 49480.46875,
      "d": 285.15625,
      "v": 80
    },
    {
      "midi": 74,
      "hit": false,
      "t": 49500,
      "d": 164.0625,
      "v": 79
    },
    {
      "midi": 77,
      "hit": false,
      "t": 49652.34375,
      "d": 484.375,
      "v": 84
    },
    {
      "midi": 74,
      "hit": false,
      "t": 49687.5,
      "d": 433.59375,
      "v": 80
    },
    {
      "midi": 62,
      "hit": false,
      "t": 49726.5625,
      "d": 2679.6875,
      "v": 88
    },
    {
      "midi": 74,
      "hit": false,
      "t": 50132.8125,
      "d": 97.65625,
      "v": 79
    },
    {
      "midi": 72,
      "hit": false,
      "t": 50156.25,
      "d": 105.46875,
      "v": 50
    },
    {
      "midi": 62,
      "hit": false,
      "t": 50156.25,
      "d": 62.5,
      "v": 76
    },
    {
      "midi": 72,
      "hit": false,
      "t": 50355.46875,
      "d": 105.46875,
      "v": 80
    },
    {
      "midi": 69,
      "hit": false,
      "t": 50390.625,
      "d": 125,
      "v": 54
    },
    {
      "midi": 62,
      "hit": false,
      "t": 50390.625,
      "d": 78.125,
      "v": 76
    },
    {
      "midi": 74,
      "hit": false,
      "t": 50621.09375,
      "d": 1480.46875,
      "v": 88
    },
    {
      "midi": 72,
      "hit": false,
      "t": 50625,
      "d": 324.21875,
      "v": 79
    },
    {
      "midi": 69,
      "hit": false,
      "t": 51093.75,
      "d": 171.875,
      "v": 62
    },
    {
      "midi": 62,
      "hit": false,
      "t": 51093.75,
      "d": 62.5,
      "v": 70
    },
    {
      "midi": 67,
      "hit": false,
      "t": 51328.125,
      "d": 152.34375,
      "v": 64
    },
    {
      "midi": 62,
      "hit": false,
      "t": 51328.125,
      "d": 89.84375,
      "v": 80
    },
    {
      "midi": 69,
      "hit": false,
      "t": 51562.5,
      "d": 421.875,
      "v": 80
    },
    {
      "midi": 67,
      "hit": false,
      "t": 52031.25,
      "d": 187.5,
      "v": 70
    },
    {
      "midi": 62,
      "hit": false,
      "t": 52031.25,
      "d": 82.03125,
      "v": 76
    },
    {
      "midi": 62,
      "hit": false,
      "t": 52265.625,
      "d": 156.25,
      "v": 79
    },
    {
      "midi": 62,
      "hit": false,
      "t": 52265.625,
      "d": 85.9375,
      "v": 84
    },
    {
      "midi": 50,
      "hit": false,
      "t": 52500,
      "d": 285.15625,
      "v": 94
    },
    {
      "midi": 74,
      "hit": false,
      "t": 52500,
      "d": 386.71875,
      "v": 88
    },
    {
      "midi": 38,
      "hit": false,
      "t": 52527.34375,
      "d": 3597.65625,
      "v": 88
    },
    {
      "midi": 57,
      "hit": false,
      "t": 52734.375,
      "d": 246.09375,
      "v": 80
    },
    {
      "midi": 50,
      "hit": false,
      "t": 52757.8125,
      "d": 3367.1875,
      "v": 88
    },
    {
      "midi": 62,
      "hit": false,
      "t": 52968.75,
      "d": 179.6875,
      "v": 88
    },
    {
      "midi": 74,
      "hit": false,
      "t": 52968.75,
      "d": 85.9375,
      "v": 76
    },
    {
      "midi": 62,
      "hit": false,
      "t": 52968.75,
      "d": 93.75,
      "v": 80
    },
    {
      "midi": 55,
      "hit": false,
      "t": 52996.09375,
      "d": 3167.96875,
      "v": 76
    },
    {
      "midi": 67,
      "hit": false,
      "t": 53203.125,
      "d": 175.78125,
      "v": 59
    },
    {
      "midi": 74,
      "hit": false,
      "t": 53203.125,
      "d": 74.21875,
      "v": 80
    },
    {
      "midi": 62,
      "hit": false,
      "t": 53203.125,
      "d": 105.46875,
      "v": 76
    },
    {
      "midi": 57,
      "hit": false,
      "t": 53230.46875,
      "d": 285.15625,
      "v": 80
    },
    {
      "midi": 74,
      "hit": false,
      "t": 53437.5,
      "d": 464.84375,
      "v": 80
    },
    {
      "midi": 74,
      "hit": false,
      "t": 53437.5,
      "d": 433.59375,
      "v": 80
    },
    {
      "midi": 62,
      "hit": false,
      "t": 53476.5625,
      "d": 2679.6875,
      "v": 88
    },
    {
      "midi": 72,
      "hit": false,
      "t": 53906.25,
      "d": 156.25,
      "v": 68
    },
    {
      "midi": 72,
      "hit": false,
      "t": 53906.25,
      "d": 89.84375,
      "v": 80
    },
    {
      "midi": 62,
      "hit": false,
      "t": 53906.25,
      "d": 82.03125,
      "v": 80
    },
    {
      "midi": 69,
      "hit": false,
      "t": 54140.625,
      "d": 148.4375,
      "v": 64
    },
    {
      "midi": 74,
      "hit": false,
      "t": 54140.625,
      "d": 93.75,
      "v": 72
    },
    {
      "midi": 62,
      "hit": false,
      "t": 54140.625,
      "d": 89.84375,
      "v": 80
    },
    {
      "midi": 72,
      "hit": false,
      "t": 54375,
      "d": 261.71875,
      "v": 80
    },
    {
      "midi": 77,
      "hit": false,
      "t": 54375,
      "d": 433.59375,
      "v": 80
    },
    {
      "midi": 69,
      "hit": false,
      "t": 54843.75,
      "d": 160.15625,
      "v": 76
    },
    {
      "midi": 74,
      "hit": false,
      "t": 54843.75,
      "d": 97.65625,
      "v": 59
    },
    {
      "midi": 62,
      "hit": false,
      "t": 54843.75,
      "d": 78.125,
      "v": 80
    },
    {
      "midi": 67,
      "hit": false,
      "t": 55078.125,
      "d": 144.53125,
      "v": 59
    },
    {
      "midi": 77,
      "hit": false,
      "t": 55078.125,
      "d": 113.28125,
      "v": 68
    },
    {
      "midi": 62,
      "hit": false,
      "t": 55078.125,
      "d": 93.75,
      "v": 88
    },
    {
      "midi": 69,
      "hit": false,
      "t": 55312.5,
      "d": 425.78125,
      "v": 80
    },
    {
      "midi": 79,
      "hit": false,
      "t": 55312.5,
      "d": 453.125,
      "v": 77
    },
    {
      "midi": 67,
      "hit": false,
      "t": 55781.25,
      "d": 210.9375,
      "v": 72
    },
    {
      "midi": 81,
      "hit": false,
      "t": 55781.25,
      "d": 464.84375,
      "v": 78
    },
    {
      "midi": 62,
      "hit": false,
      "t": 55781.25,
      "d": 85.9375,
      "v": 79
    },
    {
      "midi": 62,
      "hit": false,
      "t": 56015.625,
      "d": 187.5,
      "v": 80
    },
    {
      "midi": 62,
      "hit": false,
      "t": 56015.625,
      "d": 93.75,
      "v": 80
    },
    {
      "midi": 50,
      "hit": false,
      "t": 56250,
      "d": 257.8125,
      "v": 88
    },
    {
      "midi": 74,
      "hit": false,
      "t": 56250,
      "d": 562.5,
      "v": 88
    },
    {
      "midi": 38,
      "hit": false,
      "t": 56277.34375,
      "d": 3597.65625,
      "v": 88
    },
    {
      "midi": 57,
      "hit": false,
      "t": 56484.375,
      "d": 226.5625,
      "v": 84
    },
    {
      "midi": 50,
      "hit": false,
      "t": 56507.8125,
      "d": 3367.1875,
      "v": 88
    },
    {
      "midi": 62,
      "hit": false,
      "t": 56718.75,
      "d": 187.5,
      "v": 88
    },
    {
      "midi": 62,
      "hit": false,
      "t": 56718.75,
      "d": 85.9375,
      "v": 71
    },
    {
      "midi": 55,
      "hit": false,
      "t": 56746.09375,
      "d": 3167.96875,
      "v": 76
    },
    {
      "midi": 69,
      "hit": false,
      "t": 56953.125,
      "d": 156.25,
      "v": 80
    },
    {
      "midi": 74,
      "hit": false,
      "t": 56953.125,
      "d": 74.21875,
      "v": 76
    },
    {
      "midi": 62,
      "hit": false,
      "t": 56953.125,
      "d": 97.65625,
      "v": 76
    },
    {
      "midi": 57,
      "hit": false,
      "t": 56980.46875,
      "d": 285.15625,
      "v": 80
    },
    {
      "midi": 74,
      "hit": false,
      "t": 57187.5,
      "d": 433.59375,
      "v": 80
    },
    {
      "midi": 74,
      "hit": false,
      "t": 57187.5,
      "d": 417.96875,
      "v": 80
    },
    {
      "midi": 62,
      "hit": false,
      "t": 57226.5625,
      "d": 2679.6875,
      "v": 88
    },
    {
      "midi": 72,
      "hit": false,
      "t": 57656.25,
      "d": 105.46875,
      "v": 50
    },
    {
      "midi": 72,
      "hit": false,
      "t": 57656.25,
      "d": 128.90625,
      "v": 64
    },
    {
      "midi": 62,
      "hit": false,
      "t": 57656.25,
      "d": 82.03125,
      "v": 80
    },
    {
      "midi": 69,
      "hit": false,
      "t": 57890.625,
      "d": 125,
      "v": 54
    },
    {
      "midi": 74,
      "hit": false,
      "t": 57890.625,
      "d": 109.375,
      "v": 80
    },
    {
      "midi": 62,
      "hit": false,
      "t": 57890.625,
      "d": 93.75,
      "v": 80
    },
    {
      "midi": 72,
      "hit": false,
      "t": 58125,
      "d": 324.21875,
      "v": 79
    },
    {
      "midi": 77,
      "hit": false,
      "t": 58125,
      "d": 429.6875,
      "v": 79
    },
    {
      "midi": 69,
      "hit": false,
      "t": 58593.75,
      "d": 171.875,
      "v": 62
    },
    {
      "midi": 79,
      "hit": false,
      "t": 58593.75,
      "d": 203.125,
      "v": 68
    },
    {
      "midi": 62,
      "hit": false,
      "t": 58593.75,
      "d": 93.75,
      "v": 80
    },
    {
      "midi": 67,
      "hit": false,
      "t": 58828.125,
      "d": 152.34375,
      "v": 64
    },
    {
      "midi": 74,
      "hit": false,
      "t": 58828.125,
      "d": 148.4375,
      "v": 79
    },
    {
      "midi": 62,
      "hit": false,
      "t": 58828.125,
      "d": 93.75,
      "v": 76
    },
    {
      "midi": 69,
      "hit": false,
      "t": 59062.5,
      "d": 421.875,
      "v": 80
    },
    {
      "midi": 72,
      "hit": false,
      "t": 59062.5,
      "d": 804.6875,
      "v": 79
    },
    {
      "midi": 67,
      "hit": false,
      "t": 59531.25,
      "d": 187.5,
      "v": 70
    },
    {
      "midi": 62,
      "hit": false,
      "t": 59531.25,
      "d": 89.84375,
      "v": 84
    },
    {
      "midi": 62,
      "hit": false,
      "t": 59765.625,
      "d": 156.25,
      "v": 79
    },
    {
      "midi": 62,
      "hit": false,
      "t": 59765.625,
      "d": 89.84375,
      "v": 80
    },
    {
      "midi": 50,
      "hit": false,
      "t": 60000,
      "d": 285.15625,
      "v": 94
    },
    {
      "midi": 74,
      "hit": false,
      "t": 60000,
      "d": 414.0625,
      "v": 80
    },
    {
      "midi": 38,
      "hit": false,
      "t": 60027.34375,
      "d": 3597.65625,
      "v": 88
    },
    {
      "midi": 57,
      "hit": false,
      "t": 60234.375,
      "d": 246.09375,
      "v": 80
    },
    {
      "midi": 50,
      "hit": false,
      "t": 60257.8125,
      "d": 3367.1875,
      "v": 88
    },
    {
      "midi": 62,
      "hit": false,
      "t": 60468.75,
      "d": 179.6875,
      "v": 88
    },
    {
      "midi": 72,
      "hit": false,
      "t": 60468.75,
      "d": 66.40625,
      "v": 55
    },
    {
      "midi": 62,
      "hit": false,
      "t": 60468.75,
      "d": 62.5,
      "v": 76
    },
    {
      "midi": 55,
      "hit": false,
      "t": 60496.09375,
      "d": 3167.96875,
      "v": 76
    },
    {
      "midi": 67,
      "hit": false,
      "t": 60703.125,
      "d": 175.78125,
      "v": 59
    },
    {
      "midi": 74,
      "hit": false,
      "t": 60703.125,
      "d": 117.1875,
      "v": 80
    },
    {
      "midi": 62,
      "hit": false,
      "t": 60703.125,
      "d": 82.03125,
      "v": 80
    },
    {
      "midi": 57,
      "hit": false,
      "t": 60730.46875,
      "d": 285.15625,
      "v": 80
    },
    {
      "midi": 74,
      "hit": false,
      "t": 60937.5,
      "d": 464.84375,
      "v": 80
    },
    {
      "midi": 74,
      "hit": false,
      "t": 60937.5,
      "d": 472.65625,
      "v": 80
    },
    {
      "midi": 62,
      "hit": false,
      "t": 60976.5625,
      "d": 2679.6875,
      "v": 88
    },
    {
      "midi": 72,
      "hit": false,
      "t": 61406.25,
      "d": 156.25,
      "v": 68
    },
    {
      "midi": 72,
      "hit": false,
      "t": 61406.25,
      "d": 105.46875,
      "v": 64
    },
    {
      "midi": 62,
      "hit": false,
      "t": 61406.25,
      "d": 66.40625,
      "v": 76
    },
    {
      "midi": 69,
      "hit": false,
      "t": 61640.625,
      "d": 148.4375,
      "v": 64
    },
    {
      "midi": 74,
      "hit": false,
      "t": 61640.625,
      "d": 121.09375,
      "v": 71
    },
    {
      "midi": 62,
      "hit": false,
      "t": 61640.625,
      "d": 74.21875,
      "v": 80
    },
    {
      "midi": 72,
      "hit": false,
      "t": 61875,
      "d": 261.71875,
      "v": 80
    },
    {
      "midi": 77,
      "hit": false,
      "t": 61875,
      "d": 386.71875,
      "v": 80
    },
    {
      "midi": 69,
      "hit": false,
      "t": 62343.75,
      "d": 160.15625,
      "v": 76
    },
    {
      "midi": 74,
      "hit": false,
      "t": 62343.75,
      "d": 121.09375,
      "v": 60
    },
    {
      "midi": 62,
      "hit": false,
      "t": 62343.75,
      "d": 54.6875,
      "v": 72
    },
    {
      "midi": 67,
      "hit": false,
      "t": 62578.125,
      "d": 144.53125,
      "v": 59
    },
    {
      "midi": 77,
      "hit": false,
      "t": 62578.125,
      "d": 132.8125,
      "v": 72
    },
    {
      "midi": 62,
      "hit": false,
      "t": 62578.125,
      "d": 70.3125,
      "v": 76
    },
    {
      "midi": 69,
      "hit": false,
      "t": 62812.5,
      "d": 425.78125,
      "v": 80
    },
    {
      "midi": 79,
      "hit": false,
      "t": 62812.5,
      "d": 429.6875,
      "v": 80
    },
    {
      "midi": 67,
      "hit": false,
      "t": 63281.25,
      "d": 210.9375,
      "v": 72
    },
    {
      "midi": 81,
      "hit": false,
      "t": 63281.25,
      "d": 460.9375,
      "v": 76
    },
    {
      "midi": 62,
      "hit": false,
      "t": 63281.25,
      "d": 58.59375,
      "v": 71
    },
    {
      "midi": 62,
      "hit": false,
      "t": 63515.625,
      "d": 187.5,
      "v": 80
    },
    {
      "midi": 62,
      "hit": false,
      "t": 63515.625,
      "d": 82.03125,
      "v": 80
    },
    {
      "midi": 50,
      "hit": false,
      "t": 63750,
      "d": 257.8125,
      "v": 88
    },
    {
      "midi": 79,
      "hit": false,
      "t": 63750,
      "d": 648.4375,
      "v": 80
    },
    {
      "midi": 38,
      "hit": false,
      "t": 63777.34375,
      "d": 3597.65625,
      "v": 88
    },
    {
      "midi": 57,
      "hit": false,
      "t": 63984.375,
      "d": 226.5625,
      "v": 84
    },
    {
      "midi": 50,
      "hit": false,
      "t": 64007.8125,
      "d": 3367.1875,
      "v": 88
    },
    {
      "midi": 62,
      "hit": false,
      "t": 64218.75,
      "d": 187.5,
      "v": 88
    },
    {
      "midi": 62,
      "hit": false,
      "t": 64218.75,
      "d": 70.3125,
      "v": 68
    },
    {
      "midi": 55,
      "hit": false,
      "t": 64246.09375,
      "d": 3167.96875,
      "v": 76
    },
    {
      "midi": 77,
      "hit": false,
      "t": 64375,
      "d": 125,
      "v": 56
    },
    {
      "midi": 69,
      "hit": false,
      "t": 64453.125,
      "d": 156.25,
      "v": 80
    },
    {
      "midi": 62,
      "hit": false,
      "t": 64453.125,
      "d": 78.125,
      "v": 80
    },
    {
      "midi": 57,
      "hit": false,
      "t": 64480.46875,
      "d": 285.15625,
      "v": 80
    },
    {
      "midi": 74,
      "hit": false,
      "t": 64500,
      "d": 164.0625,
      "v": 79
    },
    {
      "midi": 77,
      "hit": false,
      "t": 64652.34375,
      "d": 484.375,
      "v": 84
    },
    {
      "midi": 74,
      "hit": false,
      "t": 64687.5,
      "d": 433.59375,
      "v": 80
    },
    {
      "midi": 62,
      "hit": false,
      "t": 64726.5625,
      "d": 2679.6875,
      "v": 88
    },
    {
      "midi": 74,
      "hit": false,
      "t": 65132.8125,
      "d": 97.65625,
      "v": 79
    },
    {
      "midi": 72,
      "hit": false,
      "t": 65156.25,
      "d": 105.46875,
      "v": 50
    },
    {
      "midi": 62,
      "hit": false,
      "t": 65156.25,
      "d": 62.5,
      "v": 76
    },
    {
      "midi": 72,
      "hit": false,
      "t": 65355.46875,
      "d": 105.46875,
      "v": 80
    },
    {
      "midi": 69,
      "hit": false,
      "t": 65390.625,
      "d": 125,
      "v": 54
    },
    {
      "midi": 62,
      "hit": false,
      "t": 65390.625,
      "d": 78.125,
      "v": 76
    },
    {
      "midi": 74,
      "hit": false,
      "t": 65621.09375,
      "d": 1480.46875,
      "v": 88
    },
    {
      "midi": 72,
      "hit": false,
      "t": 65625,
      "d": 324.21875,
      "v": 79
    },
    {
      "midi": 69,
      "hit": false,
      "t": 66093.75,
      "d": 171.875,
      "v": 62
    },
    {
      "midi": 62,
      "hit": false,
      "t": 66093.75,
      "d": 62.5,
      "v": 70
    },
    {
      "midi": 67,
      "hit": false,
      "t": 66328.125,
      "d": 152.34375,
      "v": 64
    },
    {
      "midi": 62,
      "hit": false,
      "t": 66328.125,
      "d": 89.84375,
      "v": 80
    },
    {
      "midi": 69,
      "hit": false,
      "t": 66562.5,
      "d": 421.875,
      "v": 80
    },
    {
      "midi": 67,
      "hit": false,
      "t": 67031.25,
      "d": 187.5,
      "v": 70
    },
    {
      "midi": 62,
      "hit": false,
      "t": 67031.25,
      "d": 82.03125,
      "v": 76
    },
    {
      "midi": 62,
      "hit": false,
      "t": 67265.625,
      "d": 156.25,
      "v": 79
    },
    {
      "midi": 62,
      "hit": false,
      "t": 67265.625,
      "d": 85.9375,
      "v": 84
    },
    {
      "midi": 55,
      "hit": false,
      "t": 67500,
      "d": 289.0625,
      "v": 91
    },
    {
      "midi": 31,
      "hit": false,
      "t": 67500,
      "d": 410.15625,
      "v": 94
    },
    {
      "midi": 43,
      "hit": false,
      "t": 67500,
      "d": 468.75,
      "v": 95
    },
    {
      "midi": 67,
      "hit": false,
      "t": 67500,
      "d": 125,
      "v": 91
    },
    {
      "midi": 86,
      "hit": false,
      "t": 67500,
      "d": 417.96875,
      "v": 80
    },
    {
      "midi": 55,
      "hit": false,
      "t": 67500,
      "d": 289.0625,
      "v": 91
    },
    {
      "midi": 31,
      "hit": false,
      "t": 67500,
      "d": 410.15625,
      "v": 94
    },
    {
      "midi": 43,
      "hit": false,
      "t": 67500,
      "d": 468.75,
      "v": 95
    },
    {
      "midi": 57,
      "hit": false,
      "t": 67734.375,
      "d": 281.25,
      "v": 88
    },
    {
      "midi": 57,
      "hit": false,
      "t": 67734.375,
      "d": 281.25,
      "v": 88
    },
    {
      "midi": 58,
      "hit": false,
      "t": 67968.75,
      "d": 183.59375,
      "v": 80
    },
    {
      "midi": 84,
      "hit": false,
      "t": 67968.75,
      "d": 140.625,
      "v": 64
    },
    {
      "midi": 58,
      "hit": false,
      "t": 67968.75,
      "d": 183.59375,
      "v": 80
    },
    {
      "midi": 34,
      "hit": false,
      "t": 68203.125,
      "d": 429.6875,
      "v": 84
    },
    {
      "midi": 46,
      "hit": false,
      "t": 68203.125,
      "d": 484.375,
      "v": 110
    },
    {
      "midi": 55,
      "hit": false,
      "t": 68203.125,
      "d": 3441.40625,
      "v": 91
    },
    {
      "midi": 70,
      "hit": false,
      "t": 68203.125,
      "d": 85.9375,
      "v": 104
    },
    {
      "midi": 82,
      "hit": false,
      "t": 68203.125,
      "d": 464.84375,
      "v": 88
    },
    {
      "midi": 34,
      "hit": false,
      "t": 68203.125,
      "d": 429.6875,
      "v": 84
    },
    {
      "midi": 46,
      "hit": false,
      "t": 68203.125,
      "d": 484.375,
      "v": 110
    },
    {
      "midi": 55,
      "hit": false,
      "t": 68203.125,
      "d": 3441.40625,
      "v": 91
    },
    {
      "midi": 58,
      "hit": false,
      "t": 68671.875,
      "d": 121.09375,
      "v": 79
    },
    {
      "midi": 81,
      "hit": false,
      "t": 68671.875,
      "d": 105.46875,
      "v": 64
    },
    {
      "midi": 58,
      "hit": false,
      "t": 68671.875,
      "d": 121.09375,
      "v": 79
    },
    {
      "midi": 36,
      "hit": false,
      "t": 68906.25,
      "d": 1335.9375,
      "v": 94
    },
    {
      "midi": 48,
      "hit": false,
      "t": 68906.25,
      "d": 1406.25,
      "v": 94
    },
    {
      "midi": 63,
      "hit": false,
      "t": 68906.25,
      "d": 1644.53125,
      "v": 88
    },
    {
      "midi": 72,
      "hit": false,
      "t": 68906.25,
      "d": 82.03125,
      "v": 92
    },
    {
      "midi": 79,
      "hit": false,
      "t": 68906.25,
      "d": 1945.3125,
      "v": 88
    },
    {
      "midi": 36,
      "hit": false,
      "t": 68906.25,
      "d": 1335.9375,
      "v": 94
    },
    {
      "midi": 48,
      "hit": false,
      "t": 68906.25,
      "d": 1406.25,
      "v": 94
    },
    {
      "midi": 63,
      "hit": false,
      "t": 68906.25,
      "d": 1644.53125,
      "v": 88
    },
    {
      "midi": 63,
      "hit": false,
      "t": 70781.25,
      "d": 476.5625,
      "v": 88
    },
    {
      "midi": 51,
      "hit": false,
      "t": 70781.25,
      "d": 1519.53125,
      "v": 80
    },
    {
      "midi": 39,
      "hit": false,
      "t": 70781.25,
      "d": 1625,
      "v": 88
    },
    {
      "midi": 75,
      "hit": false,
      "t": 70781.25,
      "d": 89.84375,
      "v": 110
    },
    {
      "midi": 82,
      "hit": false,
      "t": 70781.25,
      "d": 1609.375,
      "v": 76
    },
    {
      "midi": 63,
      "hit": false,
      "t": 70781.25,
      "d": 476.5625,
      "v": 88
    },
    {
      "midi": 51,
      "hit": false,
      "t": 70781.25,
      "d": 1519.53125,
      "v": 80
    },
    {
      "midi": 39,
      "hit": false,
      "t": 70781.25,
      "d": 1625,
      "v": 88
    },
    {
      "midi": 62,
      "hit": false,
      "t": 71250,
      "d": 148.4375,
      "v": 43
    },
    {
      "midi": 62,
      "hit": false,
      "t": 71250,
      "d": 148.4375,
      "v": 43
    },
    {
      "midi": 60,
      "hit": false,
      "t": 71484.375,
      "d": 542.96875,
      "v": 80
    },
    {
      "midi": 60,
      "hit": false,
      "t": 71484.375,
      "d": 542.96875,
      "v": 80
    },
    {
      "midi": 58,
      "hit": false,
      "t": 71953.125,
      "d": 503.90625,
      "v": 88
    },
    {
      "midi": 58,
      "hit": false,
      "t": 71953.125,
      "d": 503.90625,
      "v": 88
    },
    {
      "midi": 38,
      "hit": false,
      "t": 72421.875,
      "d": 3437.5,
      "v": 88
    },
    {
      "midi": 74,
      "hit": false,
      "t": 72421.875,
      "d": 97.65625,
      "v": 104
    },
    {
      "midi": 81,
      "hit": false,
      "t": 72421.875,
      "d": 1640.625,
      "v": 70
    },
    {
      "midi": 38,
      "hit": false,
      "t": 72421.875,
      "d": 3437.5,
      "v": 88
    },
    {
      "midi": 50,
      "hit": false,
      "t": 72421.875,
      "d": 3558.59375,
      "v": 88
    },
    {
      "midi": 57,
      "hit": false,
      "t": 72421.875,
      "d": 3621.09375,
      "v": 80
    },
    {
      "midi": 50,
      "hit": false,
      "t": 73125,
      "d": 476.5625,
      "v": 80
    },
    {
      "midi": 81,
      "hit": false,
      "t": 73125,
      "d": 144.53125,
      "v": 76
    },
    {
      "midi": 62,
      "hit": false,
      "t": 73359.375,
      "d": 11.71875,
      "v": 15
    },
    {
      "midi": 57,
      "hit": false,
      "t": 73593.75,
      "d": 109.375,
      "v": 77
    },
    {
      "midi": 74,
      "hit": false,
      "t": 73593.75,
      "d": 175.78125,
      "v": 76
    },
    {
      "midi": 74,
      "hit": false,
      "t": 73593.75,
      "d": 144.53125,
      "v": 70
    },
    {
      "midi": 72,
      "hit": false,
      "t": 73750,
      "d": 171.875,
      "v": 52
    },
    {
      "midi": 70,
      "hit": false,
      "t": 73906.25,
      "d": 152.34375,
      "v": 64
    },
    {
      "midi": 50,
      "hit": false,
      "t": 74062.5,
      "d": 417.96875,
      "v": 80
    },
    {
      "midi": 69,
      "hit": false,
      "t": 74062.5,
      "d": 113.28125,
      "v": 72
    },
    {
      "midi": 77,
      "hit": false,
      "t": 74062.5,
      "d": 101.5625,
      "v": 80
    },
    {
      "midi": 55,
      "hit": false,
      "t": 74531.25,
      "d": 355.46875,
      "v": 77
    },
    {
      "midi": 74,
      "hit": false,
      "t": 74531.25,
      "d": 136.71875,
      "v": 76
    },
    {
      "midi": 50,
      "hit": false,
      "t": 75000,
      "d": 472.65625,
      "v": 68
    },
    {
      "midi": 81,
      "hit": false,
      "t": 75000,
      "d": 113.28125,
      "v": 80
    },
    {
      "midi": 57,
      "hit": false,
      "t": 75468.75,
      "d": 472.65625,
      "v": 70
    },
    {
      "midi": 74,
      "hit": false,
      "t": 75468.75,
      "d": 136.71875,
      "v": 44
    },
    {
      "midi": 74,
      "hit": false,
      "t": 75468.75,
      "d": 144.53125,
      "v": 72
    },
    {
      "midi": 72,
      "hit": false,
      "t": 75625,
      "d": 265.625,
      "v": 41
    },
    {
      "midi": 70,
      "hit": false,
      "t": 75781.25,
      "d": 125,
      "v": 76
    },
    {
      "midi": 50,
      "hit": false,
      "t": 75937.5,
      "d": 42.96875,
      "v": 68
    },
    {
      "midi": 69,
      "hit": false,
      "t": 75937.5,
      "d": 117.1875,
      "v": 70
    },
    {
      "midi": 77,
      "hit": false,
      "t": 75937.5,
      "d": 93.75,
      "v": 79
    },
    {
      "midi": 57,
      "hit": false,
      "t": 76406.25,
      "d": 480.46875,
      "v": 68
    },
    {
      "midi": 74,
      "hit": false,
      "t": 76406.25,
      "d": 121.09375,
      "v": 62
    },
    {
      "midi": 46,
      "hit": false,
      "t": 76875,
      "d": 457.03125,
      "v": 72
    },
    {
      "midi": 77,
      "hit": false,
      "t": 76875,
      "d": 132.8125,
      "v": 72
    },
    {
      "midi": 53,
      "hit": false,
      "t": 77343.75,
      "d": 390.625,
      "v": 76
    },
    {
      "midi": 69,
      "hit": false,
      "t": 77343.75,
      "d": 183.59375,
      "v": 72
    },
    {
      "midi": 70,
      "hit": false,
      "t": 77343.75,
      "d": 105.46875,
      "v": 79
    },
    {
      "midi": 67,
      "hit": false,
      "t": 77500,
      "d": 125,
      "v": 56
    },
    {
      "midi": 65,
      "hit": false,
      "t": 77656.25,
      "d": 121.09375,
      "v": 54
    },
    {
      "midi": 46,
      "hit": false,
      "t": 77812.5,
      "d": 437.5,
      "v": 80
    },
    {
      "midi": 62,
      "hit": false,
      "t": 77812.5,
      "d": 148.4375,
      "v": 71
    },
    {
      "midi": 74,
      "hit": false,
      "t": 77812.5,
      "d": 132.8125,
      "v": 79
    },
    {
      "midi": 53,
      "hit": false,
      "t": 78281.25,
      "d": 445.3125,
      "v": 76
    },
    {
      "midi": 72,
      "hit": false,
      "t": 78281.25,
      "d": 101.5625,
      "v": 80
    },
    {
      "midi": 50,
      "hit": false,
      "t": 78750,
      "d": 441.40625,
      "v": 70
    },
    {
      "midi": 81,
      "hit": false,
      "t": 78750,
      "d": 109.375,
      "v": 80
    },
    {
      "midi": 57,
      "hit": false,
      "t": 79218.75,
      "d": 441.40625,
      "v": 68
    },
    {
      "midi": 74,
      "hit": false,
      "t": 79218.75,
      "d": 148.4375,
      "v": 72
    },
    {
      "midi": 74,
      "hit": false,
      "t": 79218.75,
      "d": 144.53125,
      "v": 68
    },
    {
      "midi": 72,
      "hit": false,
      "t": 79375,
      "d": 160.15625,
      "v": 47
    },
    {
      "midi": 70,
      "hit": false,
      "t": 79531.25,
      "d": 183.59375,
      "v": 68
    },
    {
      "midi": 50,
      "hit": false,
      "t": 79687.5,
      "d": 371.09375,
      "v": 72
    },
    {
      "midi": 69,
      "hit": false,
      "t": 79687.5,
      "d": 117.1875,
      "v": 79
    },
    {
      "midi": 77,
      "hit": false,
      "t": 79687.5,
      "d": 97.65625,
      "v": 79
    },
    {
      "midi": 57,
      "hit": false,
      "t": 80156.25,
      "d": 503.90625,
      "v": 68
    },
    {
      "midi": 74,
      "hit": false,
      "t": 80156.25,
      "d": 125,
      "v": 68
    },
    {
      "midi": 62,
      "hit": false,
      "t": 80507.8125,
      "d": 234.375,
      "v": 61
    },
    {
      "midi": 50,
      "hit": false,
      "t": 80625,
      "d": 476.5625,
      "v": 80
    },
    {
      "midi": 81,
      "hit": false,
      "t": 80625,
      "d": 144.53125,
      "v": 76
    },
    {
      "midi": 69,
      "hit": false,
      "t": 80625,
      "d": 480.46875,
      "v": 80
    },
    {
      "midi": 62,
      "hit": false,
      "t": 80859.375,
      "d": 11.71875,
      "v": 15
    },
    {
      "midi": 57,
      "hit": false,
      "t": 81093.75,
      "d": 109.375,
      "v": 77
    },
    {
      "midi": 74,
      "hit": false,
      "t": 81093.75,
      "d": 175.78125,
      "v": 76
    },
    {
      "midi": 74,
      "hit": false,
      "t": 81093.75,
      "d": 144.53125,
      "v": 70
    },
    {
      "midi": 72,
      "hit": false,
      "t": 81250,
      "d": 171.875,
      "v": 52
    },
    {
      "midi": 67,
      "hit": false,
      "t": 81250,
      "d": 148.4375,
      "v": 79
    },
    {
      "midi": 70,
      "hit": false,
      "t": 81406.25,
      "d": 152.34375,
      "v": 64
    },
    {
      "midi": 69,
      "hit": false,
      "t": 81406.25,
      "d": 207.03125,
      "v": 71
    },
    {
      "midi": 50,
      "hit": false,
      "t": 81562.5,
      "d": 417.96875,
      "v": 80
    },
    {
      "midi": 69,
      "hit": false,
      "t": 81562.5,
      "d": 113.28125,
      "v": 72
    },
    {
      "midi": 77,
      "hit": false,
      "t": 81562.5,
      "d": 101.5625,
      "v": 80
    },
    {
      "midi": 70,
      "hit": false,
      "t": 81562.5,
      "d": 425.78125,
      "v": 71
    },
    {
      "midi": 55,
      "hit": false,
      "t": 82031.25,
      "d": 355.46875,
      "v": 77
    },
    {
      "midi": 74,
      "hit": false,
      "t": 82031.25,
      "d": 136.71875,
      "v": 76
    },
    {
      "midi": 69,
      "hit": false,
      "t": 82031.25,
      "d": 125,
      "v": 71
    },
    {
      "midi": 67,
      "hit": false,
      "t": 82343.75,
      "d": 109.375,
      "v": 64
    },
    {
      "midi": 50,
      "hit": false,
      "t": 82500,
      "d": 472.65625,
      "v": 68
    },
    {
      "midi": 81,
      "hit": false,
      "t": 82500,
      "d": 113.28125,
      "v": 80
    },
    {
      "midi": 69,
      "hit": false,
      "t": 82500,
      "d": 460.9375,
      "v": 88
    },
    {
      "midi": 57,
      "hit": false,
      "t": 82968.75,
      "d": 472.65625,
      "v": 70
    },
    {
      "midi": 74,
      "hit": false,
      "t": 82968.75,
      "d": 136.71875,
      "v": 44
    },
    {
      "midi": 74,
      "hit": false,
      "t": 82968.75,
      "d": 144.53125,
      "v": 72
    },
    {
      "midi": 62,
      "hit": false,
      "t": 82968.75,
      "d": 1378.90625,
      "v": 76
    },
    {
      "midi": 72,
      "hit": false,
      "t": 83125,
      "d": 265.625,
      "v": 41
    },
    {
      "midi": 70,
      "hit": false,
      "t": 83281.25,
      "d": 125,
      "v": 76
    },
    {
      "midi": 50,
      "hit": false,
      "t": 83437.5,
      "d": 484.375,
      "v": 68
    },
    {
      "midi": 69,
      "hit": false,
      "t": 83437.5,
      "d": 117.1875,
      "v": 70
    },
    {
      "midi": 77,
      "hit": false,
      "t": 83437.5,
      "d": 93.75,
      "v": 79
    },
    {
      "midi": 57,
      "hit": false,
      "t": 83906.25,
      "d": 480.46875,
      "v": 68
    },
    {
      "midi": 74,
      "hit": false,
      "t": 83906.25,
      "d": 121.09375,
      "v": 62
    },
    {
      "midi": 46,
      "hit": false,
      "t": 84375,
      "d": 457.03125,
      "v": 72
    },
    {
      "midi": 77,
      "hit": false,
      "t": 84375,
      "d": 132.8125,
      "v": 72
    },
    {
      "midi": 65,
      "hit": false,
      "t": 84375,
      "d": 589.84375,
      "v": 80
    },
    {
      "midi": 53,
      "hit": false,
      "t": 84843.75,
      "d": 390.625,
      "v": 76
    },
    {
      "midi": 69,
      "hit": false,
      "t": 84843.75,
      "d": 183.59375,
      "v": 72
    },
    {
      "midi": 70,
      "hit": false,
      "t": 84843.75,
      "d": 105.46875,
      "v": 79
    },
    {
      "midi": 67,
      "hit": false,
      "t": 85000,
      "d": 125,
      "v": 56
    },
    {
      "midi": 62,
      "hit": false,
      "t": 85000,
      "d": 148.4375,
      "v": 58
    },
    {
      "midi": 65,
      "hit": false,
      "t": 85156.25,
      "d": 121.09375,
      "v": 54
    },
    {
      "midi": 65,
      "hit": false,
      "t": 85156.25,
      "d": 128.90625,
      "v": 60
    },
    {
      "midi": 46,
      "hit": false,
      "t": 85312.5,
      "d": 437.5,
      "v": 80
    },
    {
      "midi": 62,
      "hit": false,
      "t": 85312.5,
      "d": 148.4375,
      "v": 71
    },
    {
      "midi": 74,
      "hit": false,
      "t": 85312.5,
      "d": 132.8125,
      "v": 79
    },
    {
      "midi": 67,
      "hit": false,
      "t": 85312.5,
      "d": 441.40625,
      "v": 80
    },
    {
      "midi": 53,
      "hit": false,
      "t": 85781.25,
      "d": 445.3125,
      "v": 76
    },
    {
      "midi": 72,
      "hit": false,
      "t": 85781.25,
      "d": 101.5625,
      "v": 80
    },
    {
      "midi": 65,
      "hit": false,
      "t": 85781.25,
      "d": 113.28125,
      "v": 80
    },
    {
      "midi": 67,
      "hit": false,
      "t": 86093.75,
      "d": 113.28125,
      "v": 76
    },
    {
      "midi": 50,
      "hit": false,
      "t": 86250,
      "d": 441.40625,
      "v": 70
    },
    {
      "midi": 81,
      "hit": false,
      "t": 86250,
      "d": 109.375,
      "v": 80
    },
    {
      "midi": 69,
      "hit": false,
      "t": 86250,
      "d": 1703.125,
      "v": 80
    },
    {
      "midi": 57,
      "hit": false,
      "t": 86718.75,
      "d": 441.40625,
      "v": 68
    },
    {
      "midi": 74,
      "hit": false,
      "t": 86718.75,
      "d": 148.4375,
      "v": 72
    },
    {
      "midi": 74,
      "hit": false,
      "t": 86718.75,
      "d": 144.53125,
      "v": 68
    },
    {
      "midi": 72,
      "hit": false,
      "t": 86875,
      "d": 160.15625,
      "v": 47
    },
    {
      "midi": 70,
      "hit": false,
      "t": 87031.25,
      "d": 183.59375,
      "v": 68
    },
    {
      "midi": 50,
      "hit": false,
      "t": 87187.5,
      "d": 371.09375,
      "v": 72
    },
    {
      "midi": 69,
      "hit": false,
      "t": 87187.5,
      "d": 117.1875,
      "v": 79
    },
    {
      "midi": 77,
      "hit": false,
      "t": 87187.5,
      "d": 97.65625,
      "v": 79
    },
    {
      "midi": 57,
      "hit": false,
      "t": 87656.25,
      "d": 503.90625,
      "v": 68
    },
    {
      "midi": 74,
      "hit": false,
      "t": 87656.25,
      "d": 125,
      "v": 68
    },
    {
      "midi": 62,
      "hit": false,
      "t": 88007.8125,
      "d": 234.375,
      "v": 61
    },
    {
      "midi": 50,
      "hit": false,
      "t": 88125,
      "d": 433.59375,
      "v": 80
    },
    {
      "midi": 81,
      "hit": false,
      "t": 88125,
      "d": 121.09375,
      "v": 77
    },
    {
      "midi": 69,
      "hit": false,
      "t": 88125,
      "d": 539.0625,
      "v": 88
    },
    {
      "midi": 62,
      "hit": false,
      "t": 88359.375,
      "d": 11.71875,
      "v": 15
    },
    {
      "midi": 57,
      "hit": false,
      "t": 88593.75,
      "d": 109.375,
      "v": 77
    },
    {
      "midi": 74,
      "hit": false,
      "t": 88593.75,
      "d": 160.15625,
      "v": 80
    },
    {
      "midi": 74,
      "hit": false,
      "t": 88593.75,
      "d": 152.34375,
      "v": 72
    },
    {
      "midi": 72,
      "hit": false,
      "t": 88750,
      "d": 183.59375,
      "v": 47
    },
    {
      "midi": 67,
      "hit": false,
      "t": 88750,
      "d": 171.875,
      "v": 79
    },
    {
      "midi": 70,
      "hit": false,
      "t": 88906.25,
      "d": 148.4375,
      "v": 64
    },
    {
      "midi": 69,
      "hit": false,
      "t": 88906.25,
      "d": 148.4375,
      "v": 70
    },
    {
      "midi": 50,
      "hit": false,
      "t": 89062.5,
      "d": 417.96875,
      "v": 80
    },
    {
      "midi": 69,
      "hit": false,
      "t": 89062.5,
      "d": 117.1875,
      "v": 79
    },
    {
      "midi": 77,
      "hit": false,
      "t": 89062.5,
      "d": 101.5625,
      "v": 80
    },
    {
      "midi": 70,
      "hit": false,
      "t": 89062.5,
      "d": 433.59375,
      "v": 88
    },
    {
      "midi": 55,
      "hit": false,
      "t": 89531.25,
      "d": 355.46875,
      "v": 77
    },
    {
      "midi": 74,
      "hit": false,
      "t": 89531.25,
      "d": 140.625,
      "v": 68
    },
    {
      "midi": 69,
      "hit": false,
      "t": 89531.25,
      "d": 121.09375,
      "v": 76
    },
    {
      "midi": 67,
      "hit": false,
      "t": 89843.75,
      "d": 113.28125,
      "v": 76
    },
    {
      "midi": 50,
      "hit": false,
      "t": 90000,
      "d": 472.65625,
      "v": 68
    },
    {
      "midi": 81,
      "hit": false,
      "t": 90000,
      "d": 140.625,
      "v": 72
    },
    {
      "midi": 69,
      "hit": false,
      "t": 90000,
      "d": 457.03125,
      "v": 88
    },
    {
      "midi": 57,
      "hit": false,
      "t": 90468.75,
      "d": 472.65625,
      "v": 70
    },
    {
      "midi": 74,
      "hit": false,
      "t": 90468.75,
      "d": 175.78125,
      "v": 76
    },
    {
      "midi": 74,
      "hit": false,
      "t": 90468.75,
      "d": 152.34375,
      "v": 76
    },
    {
      "midi": 62,
      "hit": false,
      "t": 90468.75,
      "d": 1226.5625,
      "v": 88
    },
    {
      "midi": 72,
      "hit": false,
      "t": 90625,
      "d": 179.6875,
      "v": 57
    },
    {
      "midi": 70,
      "hit": false,
      "t": 90781.25,
      "d": 136.71875,
      "v": 76
    },
    {
      "midi": 50,
      "hit": false,
      "t": 90937.5,
      "d": 484.375,
      "v": 68
    },
    {
      "midi": 69,
      "hit": false,
      "t": 90937.5,
      "d": 109.375,
      "v": 78
    },
    {
      "midi": 77,
      "hit": false,
      "t": 90937.5,
      "d": 113.28125,
      "v": 84
    },
    {
      "midi": 57,
      "hit": false,
      "t": 91406.25,
      "d": 480.46875,
      "v": 68
    },
    {
      "midi": 74,
      "hit": false,
      "t": 91406.25,
      "d": 144.53125,
      "v": 64
    },
    {
      "midi": 46,
      "hit": false,
      "t": 91875,
      "d": 449.21875,
      "v": 72
    },
    {
      "midi": 77,
      "hit": false,
      "t": 91875,
      "d": 191.40625,
      "v": 72
    },
    {
      "midi": 60,
      "hit": false,
      "t": 91875,
      "d": 679.6875,
      "v": 80
    },
    {
      "midi": 65,
      "hit": false,
      "t": 91875,
      "d": 722.65625,
      "v": 79
    },
    {
      "midi": 53,
      "hit": false,
      "t": 92343.75,
      "d": 515.625,
      "v": 61
    },
    {
      "midi": 69,
      "hit": false,
      "t": 92343.75,
      "d": 164.0625,
      "v": 70
    },
    {
      "midi": 74,
      "hit": false,
      "t": 92343.75,
      "d": 140.625,
      "v": 76
    },
    {
      "midi": 67,
      "hit": false,
      "t": 92500,
      "d": 160.15625,
      "v": 49
    },
    {
      "midi": 64,
      "hit": false,
      "t": 92500,
      "d": 140.625,
      "v": 62
    },
    {
      "midi": 65,
      "hit": false,
      "t": 92656.25,
      "d": 148.4375,
      "v": 60
    },
    {
      "midi": 62,
      "hit": false,
      "t": 92656.25,
      "d": 152.34375,
      "v": 76
    },
    {
      "midi": 48,
      "hit": false,
      "t": 92812.5,
      "d": 503.90625,
      "v": 68
    },
    {
      "midi": 60,
      "hit": false,
      "t": 92812.5,
      "d": 148.4375,
      "v": 71
    },
    {
      "midi": 79,
      "hit": false,
      "t": 92812.5,
      "d": 195.3125,
      "v": 80
    },
    {
      "midi": 60,
      "hit": false,
      "t": 92812.5,
      "d": 484.375,
      "v": 88
    },
    {
      "midi": 55,
      "hit": false,
      "t": 93281.25,
      "d": 507.8125,
      "v": 68
    },
    {
      "midi": 76,
      "hit": false,
      "t": 93281.25,
      "d": 128.90625,
      "v": 72
    },
    {
      "midi": 57,
      "hit": false,
      "t": 93281.25,
      "d": 113.28125,
      "v": 80
    },
    {
      "midi": 60,
      "hit": false,
      "t": 93593.75,
      "d": 85.9375,
      "v": 80
    },
    {
      "midi": 50,
      "hit": false,
      "t": 93750,
      "d": 433.59375,
      "v": 72
    },
    {
      "midi": 81,
      "hit": false,
      "t": 93750,
      "d": 117.1875,
      "v": 68
    },
    {
      "midi": 62,
      "hit": false,
      "t": 93750,
      "d": 1386.71875,
      "v": 80
    },
    {
      "midi": 57,
      "hit": false,
      "t": 94218.75,
      "d": 496.09375,
      "v": 63
    },
    {
      "midi": 74,
      "hit": false,
      "t": 94218.75,
      "d": 199.21875,
      "v": 68
    },
    {
      "midi": 74,
      "hit": false,
      "t": 94218.75,
      "d": 136.71875,
      "v": 68
    },
    {
      "midi": 72,
      "hit": false,
      "t": 94375,
      "d": 187.5,
      "v": 68
    },
    {
      "midi": 70,
      "hit": false,
      "t": 94531.25,
      "d": 148.4375,
      "v": 71
    },
    {
      "midi": 50,
      "hit": false,
      "t": 94687.5,
      "d": 472.65625,
      "v": 76
    },
    {
      "midi": 69,
      "hit": false,
      "t": 94687.5,
      "d": 85.9375,
      "v": 72
    },
    {
      "midi": 77,
      "hit": false,
      "t": 94687.5,
      "d": 105.46875,
      "v": 79
    },
    {
      "midi": 57,
      "hit": false,
      "t": 95156.25,
      "d": 453.125,
      "v": 72
    },
    {
      "midi": 74,
      "hit": false,
      "t": 95156.25,
      "d": 132.8125,
      "v": 76
    },
    {
      "midi": 81,
      "hit": false,
      "t": 95312.5,
      "d": 156.25,
      "v": 100
    },
    {
      "midi": 79,
      "hit": false,
      "t": 95468.75,
      "d": 156.25,
      "v": 100
    },
    {
      "midi": 46,
      "hit": false,
      "t": 95625,
      "d": 152.34375,
      "v": 72
    },
    {
      "midi": 81,
      "hit": false,
      "t": 95625,
      "d": 156.25,
      "v": 100
    },
    {
      "midi": 77,
      "hit": false,
      "t": 95777.34375,
      "d": 152.34375,
      "v": 68
    },
    {
      "midi": 53,
      "hit": false,
      "t": 95781.25,
      "d": 152.34375,
      "v": 72
    },
    {
      "midi": 79,
      "hit": false,
      "t": 95933.59375,
      "d": 152.34375,
      "v": 79
    },
    {
      "midi": 58,
      "hit": false,
      "t": 95937.5,
      "d": 152.34375,
      "v": 63
    },
    {
      "midi": 72,
      "hit": false,
      "t": 96089.84375,
      "d": 152.34375,
      "v": 68
    },
    {
      "midi": 60,
      "hit": false,
      "t": 96093.75,
      "d": 152.34375,
      "v": 72
    },
    {
      "midi": 70,
      "hit": false,
      "t": 96246.09375,
      "d": 152.34375,
      "v": 64
    },
    {
      "midi": 67,
      "hit": false,
      "t": 96250,
      "d": 152.34375,
      "v": 79
    },
    {
      "midi": 81,
      "hit": false,
      "t": 96250,
      "d": 156.25,
      "v": 75
    },
    {
      "midi": 62,
      "hit": false,
      "t": 96250,
      "d": 144.53125,
      "v": 88
    },
    {
      "midi": 65,
      "hit": false,
      "t": 96402.34375,
      "d": 152.34375,
      "v": 64
    },
    {
      "midi": 65,
      "hit": false,
      "t": 96406.25,
      "d": 152.34375,
      "v": 71
    },
    {
      "midi": 79,
      "hit": false,
      "t": 96406.25,
      "d": 156.25,
      "v": 75
    },
    {
      "midi": 67,
      "hit": false,
      "t": 96406.25,
      "d": 113.28125,
      "v": 104
    },
    {
      "midi": 58,
      "hit": false,
      "t": 96558.59375,
      "d": 152.34375,
      "v": 71
    },
    {
      "midi": 46,
      "hit": false,
      "t": 96562.5,
      "d": 152.34375,
      "v": 71
    },
    {
      "midi": 81,
      "hit": false,
      "t": 96562.5,
      "d": 156.25,
      "v": 75
    },
    {
      "midi": 69,
      "hit": false,
      "t": 96562.5,
      "d": 613.28125,
      "v": 104
    },
    {
      "midi": 77,
      "hit": false,
      "t": 96714.84375,
      "d": 152.34375,
      "v": 71
    },
    {
      "midi": 53,
      "hit": false,
      "t": 96718.75,
      "d": 152.34375,
      "v": 64
    },
    {
      "midi": 79,
      "hit": false,
      "t": 96871.09375,
      "d": 152.34375,
      "v": 79
    },
    {
      "midi": 58,
      "hit": false,
      "t": 96875,
      "d": 152.34375,
      "v": 64
    },
    {
      "midi": 72,
      "hit": false,
      "t": 97027.34375,
      "d": 152.34375,
      "v": 72
    },
    {
      "midi": 60,
      "hit": false,
      "t": 97031.25,
      "d": 152.34375,
      "v": 68
    },
    {
      "midi": 70,
      "hit": false,
      "t": 97183.59375,
      "d": 152.34375,
      "v": 63
    },
    {
      "midi": 67,
      "hit": false,
      "t": 97187.5,
      "d": 152.34375,
      "v": 79
    },
    {
      "midi": 81,
      "hit": false,
      "t": 97187.5,
      "d": 156.25,
      "v": 50
    },
    {
      "midi": 67,
      "hit": false,
      "t": 97187.5,
      "d": 109.375,
      "v": 72
    },
    {
      "midi": 65,
      "hit": false,
      "t": 97339.84375,
      "d": 152.34375,
      "v": 72
    },
    {
      "midi": 65,
      "hit": false,
      "t": 97343.75,
      "d": 152.34375,
      "v": 68
    },
    {
      "midi": 79,
      "hit": false,
      "t": 97343.75,
      "d": 156.25,
      "v": 50
    },
    {
      "midi": 65,
      "hit": false,
      "t": 97343.75,
      "d": 89.84375,
      "v": 80
    },
    {
      "midi": 58,
      "hit": false,
      "t": 97496.09375,
      "d": 152.34375,
      "v": 72
    },
    {
      "midi": 50,
      "hit": false,
      "t": 97500,
      "d": 152.34375,
      "v": 72
    },
    {
      "midi": 81,
      "hit": false,
      "t": 97500,
      "d": 156.25,
      "v": 50
    },
    {
      "midi": 67,
      "hit": false,
      "t": 97500,
      "d": 925.78125,
      "v": 104
    },
    {
      "midi": 77,
      "hit": false,
      "t": 97652.34375,
      "d": 152.34375,
      "v": 68
    },
    {
      "midi": 57,
      "hit": false,
      "t": 97656.25,
      "d": 152.34375,
      "v": 72
    },
    {
      "midi": 79,
      "hit": false,
      "t": 97808.59375,
      "d": 152.34375,
      "v": 64
    },
    {
      "midi": 62,
      "hit": false,
      "t": 97812.5,
      "d": 152.34375,
      "v": 64
    },
    {
      "midi": 77,
      "hit": false,
      "t": 97964.84375,
      "d": 152.34375,
      "v": 54
    },
    {
      "midi": 65,
      "hit": false,
      "t": 97968.75,
      "d": 152.34375,
      "v": 68
    },
    {
      "midi": 74,
      "hit": false,
      "t": 98121.09375,
      "d": 152.34375,
      "v": 68
    },
    {
      "midi": 67,
      "hit": false,
      "t": 98125,
      "d": 152.34375,
      "v": 61
    },
    {
      "midi": 81,
      "hit": false,
      "t": 98125,
      "d": 156.25,
      "v": 25
    },
    {
      "midi": 69,
      "hit": false,
      "t": 98277.34375,
      "d": 152.34375,
      "v": 68
    },
    {
      "midi": 65,
      "hit": false,
      "t": 98281.25,
      "d": 152.34375,
      "v": 71
    },
    {
      "midi": 79,
      "hit": false,
      "t": 98281.25,
      "d": 156.25,
      "v": 25
    },
    {
      "midi": 62,
      "hit": false,
      "t": 98433.59375,
      "d": 152.34375,
      "v": 71
    },
    {
      "midi": 50,
      "hit": false,
      "t": 98437.5,
      "d": 152.34375,
      "v": 71
    },
    {
      "midi": 81,
      "hit": false,
      "t": 98437.5,
      "d": 156.25,
      "v": 25
    },
    {
      "midi": 62,
      "hit": false,
      "t": 98437.5,
      "d": 1437.5,
      "v": 92
    },
    {
      "midi": 77,
      "hit": false,
      "t": 98589.84375,
      "d": 152.34375,
      "v": 71
    },
    {
      "midi": 57,
      "hit": false,
      "t": 98593.75,
      "d": 152.34375,
      "v": 68
    },
    {
      "midi": 79,
      "hit": false,
      "t": 98746.09375,
      "d": 152.34375,
      "v": 61
    },
    {
      "midi": 62,
      "hit": false,
      "t": 98750,
      "d": 152.34375,
      "v": 68
    },
    {
      "midi": 77,
      "hit": false,
      "t": 98902.34375,
      "d": 152.34375,
      "v": 68
    },
    {
      "midi": 65,
      "hit": false,
      "t": 98906.25,
      "d": 152.34375,
      "v": 54
    },
    {
      "midi": 74,
      "hit": false,
      "t": 99058.59375,
      "d": 152.34375,
      "v": 64
    },
    {
      "midi": 67,
      "hit": false,
      "t": 99062.5,
      "d": 152.34375,
      "v": 64
    },
    {
      "midi": 79,
      "hit": false,
      "t": 99062.5,
      "d": 156.25,
      "v": 100
    },
    {
      "midi": 69,
      "hit": false,
      "t": 99214.84375,
      "d": 152.34375,
      "v": 72
    },
    {
      "midi": 65,
      "hit": false,
      "t": 99218.75,
      "d": 152.34375,
      "v": 68
    },
    {
      "midi": 77,
      "hit": false,
      "t": 99218.75,
      "d": 156.25,
      "v": 100
    },
    {
      "midi": 62,
      "hit": false,
      "t": 99371.09375,
      "d": 152.34375,
      "v": 72
    },
    {
      "midi": 46,
      "hit": false,
      "t": 99375,
      "d": 152.34375,
      "v": 72
    },
    {
      "midi": 79,
      "hit": false,
      "t": 99375,
      "d": 156.25,
      "v": 100
    },
    {
      "midi": 77,
      "hit": false,
      "t": 99527.34375,
      "d": 152.34375,
      "v": 68
    },
    {
      "midi": 53,
      "hit": false,
      "t": 99531.25,
      "d": 152.34375,
      "v": 72
    },
    {
      "midi": 79,
      "hit": false,
      "t": 99683.59375,
      "d": 152.34375,
      "v": 79
    },
    {
      "midi": 58,
      "hit": false,
      "t": 99687.5,
      "d": 152.34375,
      "v": 63
    },
    {
      "midi": 72,
      "hit": false,
      "t": 99839.84375,
      "d": 152.34375,
      "v": 68
    },
    {
      "midi": 60,
      "hit": false,
      "t": 99843.75,
      "d": 152.34375,
      "v": 72
    },
    {
      "midi": 70,
      "hit": false,
      "t": 99996.09375,
      "d": 152.34375,
      "v": 64
    },
    {
      "midi": 67,
      "hit": false,
      "t": 100000,
      "d": 152.34375,
      "v": 79
    },
    {
      "midi": 79,
      "hit": false,
      "t": 100000,
      "d": 156.25,
      "v": 75
    },
    {
      "midi": 62,
      "hit": false,
      "t": 100000,
      "d": 117.1875,
      "v": 88
    },
    {
      "midi": 65,
      "hit": false,
      "t": 100152.34375,
      "d": 152.34375,
      "v": 64
    },
    {
      "midi": 65,
      "hit": false,
      "t": 100156.25,
      "d": 152.34375,
      "v": 71
    },
    {
      "midi": 77,
      "hit": false,
      "t": 100156.25,
      "d": 156.25,
      "v": 75
    },
    {
      "midi": 64,
      "hit": false,
      "t": 100156.25,
      "d": 82.03125,
      "v": 92
    },
    {
      "midi": 58,
      "hit": false,
      "t": 100308.59375,
      "d": 152.34375,
      "v": 71
    },
    {
      "midi": 46,
      "hit": false,
      "t": 100312.5,
      "d": 152.34375,
      "v": 71
    },
    {
      "midi": 79,
      "hit": false,
      "t": 100312.5,
      "d": 156.25,
      "v": 75
    },
    {
      "midi": 65,
      "hit": false,
      "t": 100312.5,
      "d": 613.28125,
      "v": 104
    },
    {
      "midi": 77,
      "hit": false,
      "t": 100464.84375,
      "d": 152.34375,
      "v": 71
    },
    {
      "midi": 53,
      "hit": false,
      "t": 100468.75,
      "d": 152.34375,
      "v": 64
    },
    {
      "midi": 79,
      "hit": false,
      "t": 100621.09375,
      "d": 152.34375,
      "v": 79
    },
    {
      "midi": 58,
      "hit": false,
      "t": 100625,
      "d": 152.34375,
      "v": 64
    },
    {
      "midi": 72,
      "hit": false,
      "t": 100777.34375,
      "d": 152.34375,
      "v": 72
    },
    {
      "midi": 60,
      "hit": false,
      "t": 100781.25,
      "d": 152.34375,
      "v": 68
    },
    {
      "midi": 70,
      "hit": false,
      "t": 100933.59375,
      "d": 152.34375,
      "v": 63
    },
    {
      "midi": 67,
      "hit": false,
      "t": 100937.5,
      "d": 152.34375,
      "v": 79
    },
    {
      "midi": 79,
      "hit": false,
      "t": 100937.5,
      "d": 156.25,
      "v": 50
    },
    {
      "midi": 64,
      "hit": false,
      "t": 100937.5,
      "d": 93.75,
      "v": 80
    },
    {
      "midi": 65,
      "hit": false,
      "t": 101089.84375,
      "d": 152.34375,
      "v": 72
    },
    {
      "midi": 65,
      "hit": false,
      "t": 101093.75,
      "d": 152.34375,
      "v": 68
    },
    {
      "midi": 77,
      "hit": false,
      "t": 101093.75,
      "d": 156.25,
      "v": 50
    },
    {
      "midi": 62,
      "hit": false,
      "t": 101093.75,
      "d": 101.5625,
      "v": 80
    },
    {
      "midi": 58,
      "hit": false,
      "t": 101246.09375,
      "d": 152.34375,
      "v": 72
    },
    {
      "midi": 50,
      "hit": false,
      "t": 101250,
      "d": 152.34375,
      "v": 72
    },
    {
      "midi": 79,
      "hit": false,
      "t": 101250,
      "d": 156.25,
      "v": 50
    },
    {
      "midi": 57,
      "hit": false,
      "t": 101250,
      "d": 2335.9375,
      "v": 110
    },
    {
      "midi": 77,
      "hit": false,
      "t": 101402.34375,
      "d": 152.34375,
      "v": 68
    },
    {
      "midi": 57,
      "hit": false,
      "t": 101406.25,
      "d": 152.34375,
      "v": 72
    },
    {
      "midi": 79,
      "hit": false,
      "t": 101558.59375,
      "d": 152.34375,
      "v": 64
    },
    {
      "midi": 62,
      "hit": false,
      "t": 101562.5,
      "d": 152.34375,
      "v": 64
    },
    {
      "midi": 77,
      "hit": false,
      "t": 101714.84375,
      "d": 152.34375,
      "v": 54
    },
    {
      "midi": 65,
      "hit": false,
      "t": 101718.75,
      "d": 152.34375,
      "v": 68
    },
    {
      "midi": 74,
      "hit": false,
      "t": 101871.09375,
      "d": 152.34375,
      "v": 68
    },
    {
      "midi": 67,
      "hit": false,
      "t": 101875,
      "d": 152.34375,
      "v": 61
    },
    {
      "midi": 79,
      "hit": false,
      "t": 101875,
      "d": 156.25,
      "v": 25
    },
    {
      "midi": 69,
      "hit": false,
      "t": 102027.34375,
      "d": 152.34375,
      "v": 68
    },
    {
      "midi": 65,
      "hit": false,
      "t": 102031.25,
      "d": 152.34375,
      "v": 71
    },
    {
      "midi": 77,
      "hit": false,
      "t": 102031.25,
      "d": 156.25,
      "v": 25
    },
    {
      "midi": 62,
      "hit": false,
      "t": 102183.59375,
      "d": 152.34375,
      "v": 71
    },
    {
      "midi": 50,
      "hit": false,
      "t": 102187.5,
      "d": 152.34375,
      "v": 71
    },
    {
      "midi": 79,
      "hit": false,
      "t": 102187.5,
      "d": 156.25,
      "v": 25
    },
    {
      "midi": 77,
      "hit": false,
      "t": 102339.84375,
      "d": 152.34375,
      "v": 71
    },
    {
      "midi": 57,
      "hit": false,
      "t": 102343.75,
      "d": 152.34375,
      "v": 68
    },
    {
      "midi": 79,
      "hit": false,
      "t": 102496.09375,
      "d": 152.34375,
      "v": 61
    },
    {
      "midi": 62,
      "hit": false,
      "t": 102500,
      "d": 152.34375,
      "v": 68
    },
    {
      "midi": 77,
      "hit": false,
      "t": 102652.34375,
      "d": 152.34375,
      "v": 68
    },
    {
      "midi": 65,
      "hit": false,
      "t": 102656.25,
      "d": 152.34375,
      "v": 54
    },
    {
      "midi": 74,
      "hit": false,
      "t": 102808.59375,
      "d": 152.34375,
      "v": 64
    },
    {
      "midi": 67,
      "hit": false,
      "t": 102812.5,
      "d": 152.34375,
      "v": 64
    },
    {
      "midi": 81,
      "hit": false,
      "t": 102812.5,
      "d": 156.25,
      "v": 100
    },
    {
      "midi": 69,
      "hit": false,
      "t": 102964.84375,
      "d": 152.34375,
      "v": 72
    },
    {
      "midi": 65,
      "hit": false,
      "t": 102968.75,
      "d": 152.34375,
      "v": 68
    },
    {
      "midi": 79,
      "hit": false,
      "t": 102968.75,
      "d": 156.25,
      "v": 100
    },
    {
      "midi": 62,
      "hit": false,
      "t": 103121.09375,
      "d": 152.34375,
      "v": 72
    },
    {
      "midi": 46,
      "hit": false,
      "t": 103125,
      "d": 152.34375,
      "v": 72
    },
    {
      "midi": 81,
      "hit": false,
      "t": 103125,
      "d": 156.25,
      "v": 100
    },
    {
      "midi": 77,
      "hit": false,
      "t": 103277.34375,
      "d": 152.34375,
      "v": 68
    },
    {
      "midi": 53,
      "hit": false,
      "t": 103281.25,
      "d": 152.34375,
      "v": 72
    },
    {
      "midi": 79,
      "hit": false,
      "t": 103433.59375,
      "d": 152.34375,
      "v": 79
    },
    {
      "midi": 58,
      "hit": false,
      "t": 103437.5,
      "d": 152.34375,
      "v": 63
    },
    {
      "midi": 72,
      "hit": false,
      "t": 103589.84375,
      "d": 152.34375,
      "v": 68
    },
    {
      "midi": 60,
      "hit": false,
      "t": 103593.75,
      "d": 152.34375,
      "v": 72
    },
    {
      "midi": 70,
      "hit": false,
      "t": 103746.09375,
      "d": 152.34375,
      "v": 64
    },
    {
      "midi": 67,
      "hit": false,
      "t": 103750,
      "d": 152.34375,
      "v": 79
    },
    {
      "midi": 81,
      "hit": false,
      "t": 103750,
      "d": 156.25,
      "v": 75
    },
    {
      "midi": 62,
      "hit": false,
      "t": 103750,
      "d": 144.53125,
      "v": 88
    },
    {
      "midi": 65,
      "hit": false,
      "t": 103902.34375,
      "d": 152.34375,
      "v": 64
    },
    {
      "midi": 65,
      "hit": false,
      "t": 103906.25,
      "d": 152.34375,
      "v": 71
    },
    {
      "midi": 79,
      "hit": false,
      "t": 103906.25,
      "d": 156.25,
      "v": 75
    },
    {
      "midi": 67,
      "hit": false,
      "t": 103906.25,
      "d": 113.28125,
      "v": 104
    },
    {
      "midi": 58,
      "hit": false,
      "t": 104058.59375,
      "d": 152.34375,
      "v": 71
    },
    {
      "midi": 46,
      "hit": false,
      "t": 104062.5,
      "d": 152.34375,
      "v": 71
    },
    {
      "midi": 81,
      "hit": false,
      "t": 104062.5,
      "d": 156.25,
      "v": 75
    },
    {
      "midi": 69,
      "hit": false,
      "t": 104062.5,
      "d": 613.28125,
      "v": 104
    },
    {
      "midi": 77,
      "hit": false,
      "t": 104214.84375,
      "d": 152.34375,
      "v": 71
    },
    {
      "midi": 53,
      "hit": false,
      "t": 104218.75,
      "d": 152.34375,
      "v": 64
    },
    {
      "midi": 79,
      "hit": false,
      "t": 104371.09375,
      "d": 152.34375,
      "v": 79
    },
    {
      "midi": 58,
      "hit": false,
      "t": 104375,
      "d": 152.34375,
      "v": 64
    },
    {
      "midi": 72,
      "hit": false,
      "t": 104527.34375,
      "d": 152.34375,
      "v": 72
    },
    {
      "midi": 60,
      "hit": false,
      "t": 104531.25,
      "d": 152.34375,
      "v": 68
    },
    {
      "midi": 70,
      "hit": false,
      "t": 104683.59375,
      "d": 152.34375,
      "v": 63
    },
    {
      "midi": 67,
      "hit": false,
      "t": 104687.5,
      "d": 152.34375,
      "v": 79
    },
    {
      "midi": 81,
      "hit": false,
      "t": 104687.5,
      "d": 156.25,
      "v": 50
    },
    {
      "midi": 67,
      "hit": false,
      "t": 104687.5,
      "d": 109.375,
      "v": 72
    },
    {
      "midi": 65,
      "hit": false,
      "t": 104839.84375,
      "d": 152.34375,
      "v": 72
    },
    {
      "midi": 65,
      "hit": false,
      "t": 104843.75,
      "d": 152.34375,
      "v": 68
    },
    {
      "midi": 79,
      "hit": false,
      "t": 104843.75,
      "d": 156.25,
      "v": 50
    },
    {
      "midi": 65,
      "hit": false,
      "t": 104843.75,
      "d": 89.84375,
      "v": 80
    },
    {
      "midi": 58,
      "hit": false,
      "t": 104996.09375,
      "d": 152.34375,
      "v": 72
    },
    {
      "midi": 50,
      "hit": false,
      "t": 105000,
      "d": 152.34375,
      "v": 72
    },
    {
      "midi": 81,
      "hit": false,
      "t": 105000,
      "d": 156.25,
      "v": 50
    },
    {
      "midi": 67,
      "hit": false,
      "t": 105000,
      "d": 925.78125,
      "v": 104
    },
    {
      "midi": 77,
      "hit": false,
      "t": 105152.34375,
      "d": 152.34375,
      "v": 68
    },
    {
      "midi": 57,
      "hit": false,
      "t": 105156.25,
      "d": 152.34375,
      "v": 72
    },
    {
      "midi": 79,
      "hit": false,
      "t": 105308.59375,
      "d": 152.34375,
      "v": 64
    },
    {
      "midi": 62,
      "hit": false,
      "t": 105312.5,
      "d": 152.34375,
      "v": 64
    },
    {
      "midi": 77,
      "hit": false,
      "t": 105464.84375,
      "d": 152.34375,
      "v": 54
    },
    {
      "midi": 65,
      "hit": false,
      "t": 105468.75,
      "d": 152.34375,
      "v": 68
    },
    {
      "midi": 74,
      "hit": false,
      "t": 105621.09375,
      "d": 152.34375,
      "v": 68
    },
    {
      "midi": 67,
      "hit": false,
      "t": 105625,
      "d": 152.34375,
      "v": 61
    },
    {
      "midi": 81,
      "hit": false,
      "t": 105625,
      "d": 156.25,
      "v": 25
    },
    {
      "midi": 69,
      "hit": false,
      "t": 105777.34375,
      "d": 152.34375,
      "v": 68
    },
    {
      "midi": 65,
      "hit": false,
      "t": 105781.25,
      "d": 152.34375,
      "v": 71
    },
    {
      "midi": 79,
      "hit": false,
      "t": 105781.25,
      "d": 156.25,
      "v": 25
    },
    {
      "midi": 62,
      "hit": false,
      "t": 105933.59375,
      "d": 152.34375,
      "v": 71
    },
    {
      "midi": 50,
      "hit": false,
      "t": 105937.5,
      "d": 152.34375,
      "v": 71
    },
    {
      "midi": 81,
      "hit": false,
      "t": 105937.5,
      "d": 156.25,
      "v": 25
    },
    {
      "midi": 62,
      "hit": false,
      "t": 105937.5,
      "d": 1437.5,
      "v": 92
    },
    {
      "midi": 77,
      "hit": false,
      "t": 106089.84375,
      "d": 152.34375,
      "v": 71
    },
    {
      "midi": 57,
      "hit": false,
      "t": 106093.75,
      "d": 152.34375,
      "v": 68
    },
    {
      "midi": 79,
      "hit": false,
      "t": 106246.09375,
      "d": 152.34375,
      "v": 61
    },
    {
      "midi": 62,
      "hit": false,
      "t": 106250,
      "d": 152.34375,
      "v": 68
    },
    {
      "midi": 77,
      "hit": false,
      "t": 106402.34375,
      "d": 152.34375,
      "v": 68
    },
    {
      "midi": 65,
      "hit": false,
      "t": 106406.25,
      "d": 152.34375,
      "v": 54
    },
    {
      "midi": 74,
      "hit": false,
      "t": 106558.59375,
      "d": 152.34375,
      "v": 64
    },
    {
      "midi": 67,
      "hit": false,
      "t": 106562.5,
      "d": 152.34375,
      "v": 64
    },
    {
      "midi": 84,
      "hit": false,
      "t": 106562.5,
      "d": 156.25,
      "v": 100
    },
    {
      "midi": 69,
      "hit": false,
      "t": 106714.84375,
      "d": 152.34375,
      "v": 72
    },
    {
      "midi": 65,
      "hit": false,
      "t": 106718.75,
      "d": 152.34375,
      "v": 68
    },
    {
      "midi": 82,
      "hit": false,
      "t": 106718.75,
      "d": 156.25,
      "v": 100
    },
    {
      "midi": 62,
      "hit": false,
      "t": 106871.09375,
      "d": 152.34375,
      "v": 72
    },
    {
      "midi": 43,
      "hit": false,
      "t": 106875,
      "d": 152.34375,
      "v": 79
    },
    {
      "midi": 81,
      "hit": false,
      "t": 106875,
      "d": 156.25,
      "v": 100
    },
    {
      "midi": 77,
      "hit": false,
      "t": 107027.34375,
      "d": 152.34375,
      "v": 68
    },
    {
      "midi": 50,
      "hit": false,
      "t": 107031.25,
      "d": 152.34375,
      "v": 72
    },
    {
      "midi": 79,
      "hit": false,
      "t": 107183.59375,
      "d": 152.34375,
      "v": 79
    },
    {
      "midi": 55,
      "hit": false,
      "t": 107187.5,
      "d": 152.34375,
      "v": 68
    },
    {
      "midi": 72,
      "hit": false,
      "t": 107339.84375,
      "d": 152.34375,
      "v": 68
    },
    {
      "midi": 60,
      "hit": false,
      "t": 107343.75,
      "d": 152.34375,
      "v": 64
    },
    {
      "midi": 70,
      "hit": false,
      "t": 107496.09375,
      "d": 152.34375,
      "v": 64
    },
    {
      "midi": 62,
      "hit": false,
      "t": 107500,
      "d": 152.34375,
      "v": 63
    },
    {
      "midi": 84,
      "hit": false,
      "t": 107500,
      "d": 156.25,
      "v": 75
    },
    {
      "midi": 65,
      "hit": false,
      "t": 107652.34375,
      "d": 152.34375,
      "v": 64
    },
    {
      "midi": 60,
      "hit": false,
      "t": 107656.25,
      "d": 152.34375,
      "v": 71
    },
    {
      "midi": 82,
      "hit": false,
      "t": 107656.25,
      "d": 156.25,
      "v": 75
    },
    {
      "midi": 58,
      "hit": false,
      "t": 107808.59375,
      "d": 152.34375,
      "v": 71
    },
    {
      "midi": 43,
      "hit": false,
      "t": 107812.5,
      "d": 152.34375,
      "v": 72
    },
    {
      "midi": 81,
      "hit": false,
      "t": 107812.5,
      "d": 156.25,
      "v": 75
    },
    {
      "midi": 77,
      "hit": false,
      "t": 107964.84375,
      "d": 152.34375,
      "v": 71
    },
    {
      "midi": 50,
      "hit": false,
      "t": 107968.75,
      "d": 152.34375,
      "v": 71
    },
    {
      "midi": 79,
      "hit": false,
      "t": 108121.09375,
      "d": 152.34375,
      "v": 79
    },
    {
      "midi": 55,
      "hit": false,
      "t": 108125,
      "d": 152.34375,
      "v": 61
    },
    {
      "midi": 72,
      "hit": false,
      "t": 108277.34375,
      "d": 152.34375,
      "v": 72
    },
    {
      "midi": 60,
      "hit": false,
      "t": 108281.25,
      "d": 152.34375,
      "v": 64
    },
    {
      "midi": 70,
      "hit": false,
      "t": 108433.59375,
      "d": 152.34375,
      "v": 63
    },
    {
      "midi": 62,
      "hit": false,
      "t": 108437.5,
      "d": 152.34375,
      "v": 64
    },
    {
      "midi": 84,
      "hit": false,
      "t": 108437.5,
      "d": 156.25,
      "v": 50
    },
    {
      "midi": 65,
      "hit": false,
      "t": 108589.84375,
      "d": 152.34375,
      "v": 72
    },
    {
      "midi": 60,
      "hit": false,
      "t": 108593.75,
      "d": 152.34375,
      "v": 68
    },
    {
      "midi": 82,
      "hit": false,
      "t": 108593.75,
      "d": 156.25,
      "v": 50
    },
    {
      "midi": 58,
      "hit": false,
      "t": 108746.09375,
      "d": 152.34375,
      "v": 72
    },
    {
      "midi": 45,
      "hit": false,
      "t": 108750,
      "d": 152.34375,
      "v": 72
    },
    {
      "midi": 81,
      "hit": false,
      "t": 108750,
      "d": 156.25,
      "v": 50
    },
    {
      "midi": 77,
      "hit": false,
      "t": 108902.34375,
      "d": 152.34375,
      "v": 68
    },
    {
      "midi": 52,
      "hit": false,
      "t": 108906.25,
      "d": 152.34375,
      "v": 71
    },
    {
      "midi": 79,
      "hit": false,
      "t": 109058.59375,
      "d": 152.34375,
      "v": 64
    },
    {
      "midi": 57,
      "hit": false,
      "t": 109062.5,
      "d": 152.34375,
      "v": 64
    },
    {
      "midi": 77,
      "hit": false,
      "t": 109214.84375,
      "d": 152.34375,
      "v": 54
    },
    {
      "midi": 62,
      "hit": false,
      "t": 109218.75,
      "d": 152.34375,
      "v": 72
    },
    {
      "midi": 74,
      "hit": false,
      "t": 109371.09375,
      "d": 152.34375,
      "v": 68
    },
    {
      "midi": 64,
      "hit": false,
      "t": 109375,
      "d": 152.34375,
      "v": 61
    },
    {
      "midi": 84,
      "hit": false,
      "t": 109375,
      "d": 156.25,
      "v": 25
    },
    {
      "midi": 69,
      "hit": false,
      "t": 109527.34375,
      "d": 152.34375,
      "v": 68
    },
    {
      "midi": 62,
      "hit": false,
      "t": 109531.25,
      "d": 152.34375,
      "v": 71
    },
    {
      "midi": 82,
      "hit": false,
      "t": 109531.25,
      "d": 156.25,
      "v": 25
    },
    {
      "midi": 62,
      "hit": false,
      "t": 109683.59375,
      "d": 152.34375,
      "v": 71
    },
    {
      "midi": 45,
      "hit": false,
      "t": 109687.5,
      "d": 152.34375,
      "v": 68
    },
    {
      "midi": 81,
      "hit": false,
      "t": 109687.5,
      "d": 156.25,
      "v": 25
    },
    {
      "midi": 77,
      "hit": false,
      "t": 109839.84375,
      "d": 152.34375,
      "v": 71
    },
    {
      "midi": 52,
      "hit": false,
      "t": 109843.75,
      "d": 152.34375,
      "v": 64
    },
    {
      "midi": 79,
      "hit": false,
      "t": 109996.09375,
      "d": 152.34375,
      "v": 61
    },
    {
      "midi": 57,
      "hit": false,
      "t": 110000,
      "d": 152.34375,
      "v": 64
    },
    {
      "midi": 77,
      "hit": false,
      "t": 110152.34375,
      "d": 152.34375,
      "v": 68
    },
    {
      "midi": 62,
      "hit": false,
      "t": 110156.25,
      "d": 152.34375,
      "v": 72
    },
    {
      "midi": 74,
      "hit": false,
      "t": 110308.59375,
      "d": 152.34375,
      "v": 64
    },
    {
      "midi": 64,
      "hit": false,
      "t": 110312.5,
      "d": 152.34375,
      "v": 61
    },
    {
      "midi": 69,
      "hit": false,
      "t": 110464.84375,
      "d": 152.34375,
      "v": 72
    },
    {
      "midi": 62,
      "hit": false,
      "t": 110468.75,
      "d": 152.34375,
      "v": 79
    },
    {
      "midi": 62,
      "hit": false,
      "t": 110621.09375,
      "d": 152.34375,
      "v": 72
    },
    {
      "midi": 50,
      "hit": false,
      "t": 110625,
      "d": 476.5625,
      "v": 80
    },
    {
      "midi": 81,
      "hit": false,
      "t": 110625,
      "d": 144.53125,
      "v": 76
    },
    {
      "midi": 62,
      "hit": false,
      "t": 110859.375,
      "d": 11.71875,
      "v": 15
    },
    {
      "midi": 57,
      "hit": false,
      "t": 111093.75,
      "d": 109.375,
      "v": 77
    },
    {
      "midi": 74,
      "hit": false,
      "t": 111093.75,
      "d": 175.78125,
      "v": 76
    },
    {
      "midi": 74,
      "hit": false,
      "t": 111093.75,
      "d": 144.53125,
      "v": 70
    },
    {
      "midi": 72,
      "hit": false,
      "t": 111250,
      "d": 171.875,
      "v": 52
    },
    {
      "midi": 70,
      "hit": false,
      "t": 111406.25,
      "d": 152.34375,
      "v": 64
    },
    {
      "midi": 50,
      "hit": false,
      "t": 111562.5,
      "d": 417.96875,
      "v": 80
    },
    {
      "midi": 69,
      "hit": false,
      "t": 111562.5,
      "d": 113.28125,
      "v": 72
    },
    {
      "midi": 77,
      "hit": false,
      "t": 111562.5,
      "d": 101.5625,
      "v": 80
    },
    {
      "midi": 55,
      "hit": false,
      "t": 112031.25,
      "d": 355.46875,
      "v": 77
    },
    {
      "midi": 74,
      "hit": false,
      "t": 112031.25,
      "d": 136.71875,
      "v": 76
    },
    {
      "midi": 50,
      "hit": false,
      "t": 112500,
      "d": 472.65625,
      "v": 68
    },
    {
      "midi": 81,
      "hit": false,
      "t": 112500,
      "d": 113.28125,
      "v": 80
    },
    {
      "midi": 57,
      "hit": false,
      "t": 112968.75,
      "d": 472.65625,
      "v": 70
    },
    {
      "midi": 74,
      "hit": false,
      "t": 112968.75,
      "d": 136.71875,
      "v": 44
    },
    {
      "midi": 74,
      "hit": false,
      "t": 112968.75,
      "d": 144.53125,
      "v": 72
    },
    {
      "midi": 72,
      "hit": false,
      "t": 113125,
      "d": 265.625,
      "v": 41
    },
    {
      "midi": 70,
      "hit": false,
      "t": 113281.25,
      "d": 125,
      "v": 76
    },
    {
      "midi": 50,
      "hit": false,
      "t": 113437.5,
      "d": 484.375,
      "v": 68
    },
    {
      "midi": 69,
      "hit": false,
      "t": 113437.5,
      "d": 117.1875,
      "v": 70
    },
    {
      "midi": 77,
      "hit": false,
      "t": 113437.5,
      "d": 93.75,
      "v": 79
    },
    {
      "midi": 57,
      "hit": false,
      "t": 113906.25,
      "d": 480.46875,
      "v": 68
    },
    {
      "midi": 74,
      "hit": false,
      "t": 113906.25,
      "d": 121.09375,
      "v": 62
    },
    {
      "midi": 46,
      "hit": false,
      "t": 114375,
      "d": 457.03125,
      "v": 72
    },
    {
      "midi": 77,
      "hit": false,
      "t": 114375,
      "d": 132.8125,
      "v": 72
    },
    {
      "midi": 53,
      "hit": false,
      "t": 114843.75,
      "d": 390.625,
      "v": 76
    },
    {
      "midi": 69,
      "hit": false,
      "t": 114843.75,
      "d": 183.59375,
      "v": 72
    },
    {
      "midi": 70,
      "hit": false,
      "t": 114843.75,
      "d": 105.46875,
      "v": 79
    },
    {
      "midi": 67,
      "hit": false,
      "t": 115000,
      "d": 125,
      "v": 56
    },
    {
      "midi": 65,
      "hit": false,
      "t": 115156.25,
      "d": 121.09375,
      "v": 54
    },
    {
      "midi": 46,
      "hit": false,
      "t": 115312.5,
      "d": 437.5,
      "v": 80
    },
    {
      "midi": 62,
      "hit": false,
      "t": 115312.5,
      "d": 148.4375,
      "v": 71
    },
    {
      "midi": 74,
      "hit": false,
      "t": 115312.5,
      "d": 132.8125,
      "v": 79
    },
    {
      "midi": 53,
      "hit": false,
      "t": 115781.25,
      "d": 445.3125,
      "v": 76
    },
    {
      "midi": 72,
      "hit": false,
      "t": 115781.25,
      "d": 101.5625,
      "v": 80
    },
    {
      "midi": 50,
      "hit": false,
      "t": 116250,
      "d": 441.40625,
      "v": 70
    },
    {
      "midi": 81,
      "hit": false,
      "t": 116250,
      "d": 109.375,
      "v": 80
    },
    {
      "midi": 57,
      "hit": false,
      "t": 116718.75,
      "d": 441.40625,
      "v": 68
    },
    {
      "midi": 74,
      "hit": false,
      "t": 116718.75,
      "d": 148.4375,
      "v": 72
    },
    {
      "midi": 74,
      "hit": false,
      "t": 116718.75,
      "d": 144.53125,
      "v": 68
    },
    {
      "midi": 72,
      "hit": false,
      "t": 116875,
      "d": 160.15625,
      "v": 47
    },
    {
      "midi": 70,
      "hit": false,
      "t": 117031.25,
      "d": 183.59375,
      "v": 68
    },
    {
      "midi": 50,
      "hit": false,
      "t": 117187.5,
      "d": 371.09375,
      "v": 72
    },
    {
      "midi": 69,
      "hit": false,
      "t": 117187.5,
      "d": 117.1875,
      "v": 79
    },
    {
      "midi": 77,
      "hit": false,
      "t": 117187.5,
      "d": 97.65625,
      "v": 79
    },
    {
      "midi": 57,
      "hit": false,
      "t": 117656.25,
      "d": 503.90625,
      "v": 68
    },
    {
      "midi": 74,
      "hit": false,
      "t": 117656.25,
      "d": 125,
      "v": 68
    },
    {
      "midi": 62,
      "hit": false,
      "t": 118007.8125,
      "d": 234.375,
      "v": 61
    }
  ]
}