{
  "jsonPath": "Ultima Online/samlethe.json",
  "path": "Ultima Online\\samlethe.mid",
  "name": "samlethe",
  "difficulty": "Advanced",
  "bpm": 130.00013000013,
  "notes": [
    {
      "midi": 24,
      "hit": false,
      "t": 15.384599999999997,
      "d": 1788.4597500000023,
      "v": 115
    },
    {
      "midi": 36,
      "hit": false,
      "t": 15.384599999999997,
      "d": 1788.4597500000023,
      "v": 115
    },
    {
      "midi": 69,
      "hit": false,
      "t": 19.230749999999997,
      "d": 14749.985250000012,
      "v": 70
    },
    {
      "midi": 61,
      "hit": false,
      "t": 19.230749999999997,
      "d": 14749.985250000007,
      "v": 65
    },
    {
      "midi": 50,
      "hit": false,
      "t": 19.230749999999997,
      "d": 14749.985250000022,
      "v": 95
    },
    {
      "midi": 83,
      "hit": false,
      "t": 80.76914999999998,
      "d": 76.92299999999999,
      "v": 10
    },
    {
      "midi": 82,
      "hit": false,
      "t": 157.69214999999997,
      "d": 76.923,
      "v": 15
    },
    {
      "midi": 81,
      "hit": false,
      "t": 234.61514999999997,
      "d": 76.923,
      "v": 15
    },
    {
      "midi": 80,
      "hit": false,
      "t": 311.53815,
      "d": 76.923,
      "v": 20
    },
    {
      "midi": 79,
      "hit": false,
      "t": 388.46115,
      "d": 76.923,
      "v": 20
    },
    {
      "midi": 80,
      "hit": false,
      "t": 465.38415,
      "d": 76.923,
      "v": 25
    },
    {
      "midi": 79,
      "hit": false,
      "t": 542.30715,
      "d": 76.923,
      "v": 25
    },
    {
      "midi": 78,
      "hit": false,
      "t": 619.23015,
      "d": 76.923,
      "v": 30
    },
    {
      "midi": 77,
      "hit": false,
      "t": 696.15315,
      "d": 76.923,
      "v": 30
    },
    {
      "midi": 76,
      "hit": false,
      "t": 773.07615,
      "d": 76.923,
      "v": 35
    },
    {
      "midi": 75,
      "hit": false,
      "t": 849.99915,
      "d": 76.923,
      "v": 35
    },
    {
      "midi": 74,
      "hit": false,
      "t": 926.92215,
      "d": 76.923,
      "v": 40
    },
    {
      "midi": 75,
      "hit": false,
      "t": 1003.84515,
      "d": 76.92299999999989,
      "v": 40
    },
    {
      "midi": 74,
      "hit": false,
      "t": 1080.7681499999999,
      "d": 76.923,
      "v": 45
    },
    {
      "midi": 73,
      "hit": false,
      "t": 1157.6911499999999,
      "d": 76.923,
      "v": 45
    },
    {
      "midi": 72,
      "hit": false,
      "t": 1234.6141499999999,
      "d": 76.923,
      "v": 50
    },
    {
      "midi": 71,
      "hit": false,
      "t": 1311.5371499999999,
      "d": 76.923,
      "v": 50
    },
    {
      "midi": 70,
      "hit": false,
      "t": 1388.4601499999999,
      "d": 76.923,
      "v": 55
    },
    {
      "midi": 69,
      "hit": false,
      "t": 1465.38315,
      "d": 76.923,
      "v": 55
    },
    {
      "midi": 68,
      "hit": false,
      "t": 1542.30615,
      "d": 76.923,
      "v": 60
    },
    {
      "midi": 67,
      "hit": false,
      "t": 1619.22915,
      "d": 76.923,
      "v": 60
    },
    {
      "midi": 68,
      "hit": false,
      "t": 1696.15215,
      "d": 76.923,
      "v": 65
    },
    {
      "midi": 69,
      "hit": false,
      "t": 1773.07515,
      "d": 76.923,
      "v": 65
    },
    {
      "midi": 70,
      "hit": false,
      "t": 1861.5366,
      "d": 65.38454999999999,
      "v": 70
    },
    {
      "midi": 25,
      "hit": false,
      "t": 1861.5366000000024,
      "d": 1788.4597499999998,
      "v": 115
    },
    {
      "midi": 37,
      "hit": false,
      "t": 1861.5366000000024,
      "d": 1788.4597499999998,
      "v": 115
    },
    {
      "midi": 71,
      "hit": false,
      "t": 1926.92115,
      "d": 76.923,
      "v": 70
    },
    {
      "midi": 72,
      "hit": false,
      "t": 2003.84415,
      "d": 76.92299999999977,
      "v": 70
    },
    {
      "midi": 73,
      "hit": false,
      "t": 2080.7671499999997,
      "d": 76.92299999999977,
      "v": 70
    },
    {
      "midi": 74,
      "hit": false,
      "t": 2157.6901499999994,
      "d": 76.92299999999977,
      "v": 70
    },
    {
      "midi": 75,
      "hit": false,
      "t": 2234.613149999999,
      "d": 76.92299999999977,
      "v": 70
    },
    {
      "midi": 76,
      "hit": false,
      "t": 2311.536149999999,
      "d": 76.92299999999977,
      "v": 70
    },
    {
      "midi": 77,
      "hit": false,
      "t": 2388.4591499999988,
      "d": 76.92299999999977,
      "v": 70
    },
    {
      "midi": 78,
      "hit": false,
      "t": 2465.3821499999985,
      "d": 76.92299999999977,
      "v": 70
    },
    {
      "midi": 79,
      "hit": false,
      "t": 2542.3051499999983,
      "d": 76.92299999999977,
      "v": 70
    },
    {
      "midi": 80,
      "hit": false,
      "t": 2619.228149999998,
      "d": 76.92299999999977,
      "v": 70
    },
    {
      "midi": 81,
      "hit": false,
      "t": 2696.151149999998,
      "d": 76.92299999999977,
      "v": 70
    },
    {
      "midi": 82,
      "hit": false,
      "t": 2773.0741499999976,
      "d": 76.92299999999977,
      "v": 70
    },
    {
      "midi": 81,
      "hit": false,
      "t": 2849.9971499999974,
      "d": 76.92299999999977,
      "v": 70
    },
    {
      "midi": 80,
      "hit": false,
      "t": 2926.920149999997,
      "d": 76.92299999999977,
      "v": 70
    },
    {
      "midi": 79,
      "hit": false,
      "t": 3003.843149999997,
      "d": 76.92299999999977,
      "v": 70
    },
    {
      "midi": 78,
      "hit": false,
      "t": 3080.7661499999967,
      "d": 76.92299999999977,
      "v": 70
    },
    {
      "midi": 77,
      "hit": false,
      "t": 3157.6891499999965,
      "d": 76.92299999999977,
      "v": 70
    },
    {
      "midi": 78,
      "hit": false,
      "t": 3234.6121499999963,
      "d": 76.92299999999977,
      "v": 70
    },
    {
      "midi": 77,
      "hit": false,
      "t": 3311.535149999996,
      "d": 76.92299999999977,
      "v": 70
    },
    {
      "midi": 76,
      "hit": false,
      "t": 3388.458149999996,
      "d": 76.92299999999977,
      "v": 70
    },
    {
      "midi": 75,
      "hit": false,
      "t": 3465.3811499999956,
      "d": 76.92299999999977,
      "v": 70
    },
    {
      "midi": 74,
      "hit": false,
      "t": 3542.3041499999954,
      "d": 76.92299999999977,
      "v": 70
    },
    {
      "midi": 75,
      "hit": false,
      "t": 3619.227149999995,
      "d": 76.92299999999977,
      "v": 70
    },
    {
      "midi": 74,
      "hit": false,
      "t": 3707.688599999995,
      "d": 65.38454999999976,
      "v": 70
    },
    {
      "midi": 41,
      "hit": false,
      "t": 3707.688600000002,
      "d": 1788.45975,
      "v": 115
    },
    {
      "midi": 29,
      "hit": false,
      "t": 3707.688600000002,
      "d": 1788.45975,
      "v": 115
    },
    {
      "midi": 75,
      "hit": false,
      "t": 3773.0731499999947,
      "d": 76.92299999999977,
      "v": 70
    },
    {
      "midi": 74,
      "hit": false,
      "t": 3849.9961499999945,
      "d": 76.92299999999977,
      "v": 70
    },
    {
      "midi": 75,
      "hit": false,
      "t": 3926.9191499999943,
      "d": 76.92299999999977,
      "v": 70
    },
    {
      "midi": 76,
      "hit": false,
      "t": 4003.842149999994,
      "d": 76.92299999999977,
      "v": 70
    },
    {
      "midi": 77,
      "hit": false,
      "t": 4080.765149999994,
      "d": 76.92299999999977,
      "v": 70
    },
    {
      "midi": 78,
      "hit": false,
      "t": 4157.688149999994,
      "d": 76.92299999999977,
      "v": 70
    },
    {
      "midi": 79,
      "hit": false,
      "t": 4234.611149999993,
      "d": 76.92299999999977,
      "v": 70
    },
    {
      "midi": 80,
      "hit": false,
      "t": 4311.534149999993,
      "d": 76.92299999999977,
      "v": 70
    },
    {
      "midi": 81,
      "hit": false,
      "t": 4388.457149999993,
      "d": 76.92299999999977,
      "v": 70
    },
    {
      "midi": 82,
      "hit": false,
      "t": 4465.380149999993,
      "d": 76.92299999999977,
      "v": 70
    },
    {
      "midi": 83,
      "hit": false,
      "t": 4542.3031499999925,
      "d": 76.92299999999977,
      "v": 70
    },
    {
      "midi": 84,
      "hit": false,
      "t": 4619.226149999992,
      "d": 76.92299999999977,
      "v": 70
    },
    {
      "midi": 83,
      "hit": false,
      "t": 4696.149149999992,
      "d": 76.92299999999977,
      "v": 70
    },
    {
      "midi": 82,
      "hit": false,
      "t": 4773.072149999992,
      "d": 76.92299999999977,
      "v": 70
    },
    {
      "midi": 81,
      "hit": false,
      "t": 4849.995149999992,
      "d": 76.92299999999977,
      "v": 70
    },
    {
      "midi": 80,
      "hit": false,
      "t": 4926.918149999991,
      "d": 76.92299999999977,
      "v": 70
    },
    {
      "midi": 79,
      "hit": false,
      "t": 5003.841149999991,
      "d": 76.92299999999977,
      "v": 70
    },
    {
      "midi": 78,
      "hit": false,
      "t": 5080.764149999991,
      "d": 76.92299999999977,
      "v": 70
    },
    {
      "midi": 77,
      "hit": false,
      "t": 5157.687149999991,
      "d": 76.92299999999977,
      "v": 70
    },
    {
      "midi": 76,
      "hit": false,
      "t": 5234.61014999999,
      "d": 76.92299999999977,
      "v": 70
    },
    {
      "midi": 75,
      "hit": false,
      "t": 5311.53314999999,
      "d": 76.92299999999977,
      "v": 70
    },
    {
      "midi": 74,
      "hit": false,
      "t": 5388.45614999999,
      "d": 76.92299999999977,
      "v": 70
    },
    {
      "midi": 73,
      "hit": false,
      "t": 5465.37914999999,
      "d": 76.92299999999977,
      "v": 70
    },
    {
      "midi": 72,
      "hit": false,
      "t": 5553.8405999999895,
      "d": 65.38454999999976,
      "v": 70
    },
    {
      "midi": 40,
      "hit": false,
      "t": 5553.840600000002,
      "d": 1788.45975,
      "v": 115
    },
    {
      "midi": 28,
      "hit": false,
      "t": 5553.840600000002,
      "d": 1788.45975,
      "v": 115
    },
    {
      "midi": 73,
      "hit": false,
      "t": 5619.225149999989,
      "d": 76.92299999999977,
      "v": 70
    },
    {
      "midi": 72,
      "hit": false,
      "t": 5696.148149999989,
      "d": 76.92299999999977,
      "v": 70
    },
    {
      "midi": 71,
      "hit": false,
      "t": 5773.071149999989,
      "d": 76.92299999999977,
      "v": 70
    },
    {
      "midi": 70,
      "hit": false,
      "t": 5849.994149999989,
      "d": 76.92299999999977,
      "v": 70
    },
    {
      "midi": 69,
      "hit": false,
      "t": 5926.917149999988,
      "d": 76.92299999999977,
      "v": 70
    },
    {
      "midi": 68,
      "hit": false,
      "t": 6003.840149999988,
      "d": 76.92299999999977,
      "v": 70
    },
    {
      "midi": 67,
      "hit": false,
      "t": 6080.763149999988,
      "d": 76.92299999999977,
      "v": 70
    },
    {
      "midi": 66,
      "hit": false,
      "t": 6157.686149999988,
      "d": 76.92299999999977,
      "v": 70
    },
    {
      "midi": 65,
      "hit": false,
      "t": 6234.6091499999875,
      "d": 76.92299999999977,
      "v": 70
    },
    {
      "midi": 64,
      "hit": false,
      "t": 6311.532149999987,
      "d": 76.92299999999977,
      "v": 70
    },
    {
      "midi": 65,
      "hit": false,
      "t": 6388.455149999987,
      "d": 76.92299999999977,
      "v": 70
    },
    {
      "midi": 66,
      "hit": false,
      "t": 6465.378149999987,
      "d": 76.92299999999977,
      "v": 70
    },
    {
      "midi": 67,
      "hit": false,
      "t": 6542.301149999987,
      "d": 76.92299999999977,
      "v": 70
    },
    {
      "midi": 68,
      "hit": false,
      "t": 6619.224149999986,
      "d": 76.92299999999977,
      "v": 70
    },
    {
      "midi": 69,
      "hit": false,
      "t": 6696.147149999986,
      "d": 76.92299999999977,
      "v": 70
    },
    {
      "midi": 70,
      "hit": false,
      "t": 6773.070149999986,
      "d": 76.92299999999977,
      "v": 70
    },
    {
      "midi": 71,
      "hit": false,
      "t": 6849.993149999986,
      "d": 76.92299999999977,
      "v": 70
    },
    {
      "midi": 72,
      "hit": false,
      "t": 6926.9161499999855,
      "d": 76.92299999999977,
      "v": 70
    },
    {
      "midi": 73,
      "hit": false,
      "t": 7003.839149999985,
      "d": 76.92299999999977,
      "v": 70
    },
    {
      "midi": 74,
      "hit": false,
      "t": 7080.762149999985,
      "d": 76.92299999999977,
      "v": 70
    },
    {
      "midi": 75,
      "hit": false,
      "t": 7157.685149999985,
      "d": 76.92299999999977,
      "v": 70
    },
    {
      "midi": 76,
      "hit": false,
      "t": 7234.608149999985,
      "d": 76.92299999999977,
      "v": 70
    },
    {
      "midi": 77,
      "hit": false,
      "t": 7311.531149999984,
      "d": 76.92299999999977,
      "v": 70
    },
    {
      "midi": 78,
      "hit": false,
      "t": 7399.992599999984,
      "d": 65.38454999999976,
      "v": 70
    },
    {
      "midi": 44,
      "hit": false,
      "t": 7399.992600000002,
      "d": 1788.459749999999,
      "v": 115
    },
    {
      "midi": 32,
      "hit": false,
      "t": 7399.992600000002,
      "d": 1788.459749999999,
      "v": 115
    },
    {
      "midi": 79,
      "hit": false,
      "t": 7465.377149999984,
      "d": 76.92299999999977,
      "v": 70
    },
    {
      "midi": 80,
      "hit": false,
      "t": 7542.300149999984,
      "d": 76.92299999999977,
      "v": 70
    },
    {
      "midi": 81,
      "hit": false,
      "t": 7619.223149999983,
      "d": 76.92299999999977,
      "v": 70
    },
    {
      "midi": 80,
      "hit": false,
      "t": 7696.146149999983,
      "d": 76.92299999999977,
      "v": 70
    },
    {
      "midi": 79,
      "hit": false,
      "t": 7773.069149999983,
      "d": 76.92299999999977,
      "v": 70
    },
    {
      "midi": 80,
      "hit": false,
      "t": 7849.992149999983,
      "d": 76.92299999999977,
      "v": 70
    },
    {
      "midi": 79,
      "hit": false,
      "t": 7926.9151499999825,
      "d": 76.92299999999977,
      "v": 70
    },
    {
      "midi": 78,
      "hit": false,
      "t": 8003.838149999982,
      "d": 76.92299999999977,
      "v": 70
    },
    {
      "midi": 77,
      "hit": false,
      "t": 8080.761149999982,
      "d": 76.92299999999977,
      "v": 70
    },
    {
      "midi": 76,
      "hit": false,
      "t": 8157.684149999982,
      "d": 76.92299999999977,
      "v": 70
    },
    {
      "midi": 75,
      "hit": false,
      "t": 8234.607149999982,
      "d": 76.92300000000068,
      "v": 70
    },
    {
      "midi": 74,
      "hit": false,
      "t": 8311.530149999982,
      "d": 76.92300000000068,
      "v": 70
    },
    {
      "midi": 75,
      "hit": false,
      "t": 8388.453149999983,
      "d": 76.92300000000068,
      "v": 70
    },
    {
      "midi": 74,
      "hit": false,
      "t": 8465.376149999984,
      "d": 76.92300000000068,
      "v": 70
    },
    {
      "midi": 73,
      "hit": false,
      "t": 8542.299149999984,
      "d": 76.92300000000068,
      "v": 70
    },
    {
      "midi": 72,
      "hit": false,
      "t": 8619.222149999985,
      "d": 76.92300000000068,
      "v": 70
    },
    {
      "midi": 71,
      "hit": false,
      "t": 8696.145149999986,
      "d": 76.92300000000068,
      "v": 70
    },
    {
      "midi": 70,
      "hit": false,
      "t": 8773.068149999986,
      "d": 76.92300000000068,
      "v": 70
    },
    {
      "midi": 69,
      "hit": false,
      "t": 8849.991149999987,
      "d": 76.92300000000068,
      "v": 70
    },
    {
      "midi": 68,
      "hit": false,
      "t": 8926.914149999988,
      "d": 76.92300000000068,
      "v": 70
    },
    {
      "midi": 67,
      "hit": false,
      "t": 9003.837149999988,
      "d": 76.92300000000068,
      "v": 70
    },
    {
      "midi": 68,
      "hit": false,
      "t": 9080.76014999999,
      "d": 76.92300000000068,
      "v": 70
    },
    {
      "midi": 69,
      "hit": false,
      "t": 9157.68314999999,
      "d": 76.92300000000068,
      "v": 70
    },
    {
      "midi": 70,
      "hit": false,
      "t": 9246.14459999999,
      "d": 65.38455000000067,
      "v": 70
    },
    {
      "midi": 43,
      "hit": false,
      "t": 9246.144600000001,
      "d": 1788.45975,
      "v": 115
    },
    {
      "midi": 31,
      "hit": false,
      "t": 9246.144600000001,
      "d": 1788.45975,
      "v": 115
    },
    {
      "midi": 71,
      "hit": false,
      "t": 9311.529149999991,
      "d": 76.92300000000068,
      "v": 70
    },
    {
      "midi": 72,
      "hit": false,
      "t": 9388.452149999992,
      "d": 76.92300000000068,
      "v": 70
    },
    {
      "midi": 73,
      "hit": false,
      "t": 9465.375149999993,
      "d": 76.92300000000068,
      "v": 70
    },
    {
      "midi": 74,
      "hit": false,
      "t": 9542.298149999993,
      "d": 76.92300000000068,
      "v": 70
    },
    {
      "midi": 75,
      "hit": false,
      "t": 9619.221149999994,
      "d": 76.92300000000068,
      "v": 70
    },
    {
      "midi": 76,
      "hit": false,
      "t": 9696.144149999995,
      "d": 76.92300000000068,
      "v": 70
    },
    {
      "midi": 77,
      "hit": false,
      "t": 9773.067149999995,
      "d": 76.92300000000068,
      "v": 70
    },
    {
      "midi": 78,
      "hit": false,
      "t": 9849.990149999996,
      "d": 76.92300000000068,
      "v": 70
    },
    {
      "midi": 79,
      "hit": false,
      "t": 9926.913149999997,
      "d": 76.92300000000068,
      "v": 70
    },
    {
      "midi": 80,
      "hit": false,
      "t": 10003.836149999997,
      "d": 76.92300000000068,
      "v": 70
    },
    {
      "midi": 81,
      "hit": false,
      "t": 10080.759149999998,
      "d": 76.92300000000068,
      "v": 70
    },
    {
      "midi": 82,
      "hit": false,
      "t": 10157.682149999999,
      "d": 76.92300000000068,
      "v": 70
    },
    {
      "midi": 81,
      "hit": false,
      "t": 10234.60515,
      "d": 76.92300000000068,
      "v": 70
    },
    {
      "midi": 80,
      "hit": false,
      "t": 10311.52815,
      "d": 76.92300000000068,
      "v": 70
    },
    {
      "midi": 79,
      "hit": false,
      "t": 10388.45115,
      "d": 76.92300000000068,
      "v": 70
    },
    {
      "midi": 78,
      "hit": false,
      "t": 10465.374150000001,
      "d": 76.92300000000068,
      "v": 70
    },
    {
      "midi": 77,
      "hit": false,
      "t": 10542.297150000002,
      "d": 76.92300000000068,
      "v": 70
    },
    {
      "midi": 78,
      "hit": false,
      "t": 10619.220150000003,
      "d": 76.92300000000068,
      "v": 70
    },
    {
      "midi": 77,
      "hit": false,
      "t": 10696.143150000004,
      "d": 76.92300000000068,
      "v": 70
    },
    {
      "midi": 76,
      "hit": false,
      "t": 10773.066150000004,
      "d": 76.92300000000068,
      "v": 70
    },
    {
      "midi": 75,
      "hit": false,
      "t": 10849.989150000005,
      "d": 76.92300000000068,
      "v": 70
    },
    {
      "midi": 74,
      "hit": false,
      "t": 10926.912150000006,
      "d": 76.92300000000068,
      "v": 70
    },
    {
      "midi": 75,
      "hit": false,
      "t": 11003.835150000006,
      "d": 76.92300000000068,
      "v": 70
    },
    {
      "midi": 47,
      "hit": false,
      "t": 11092.296600000001,
      "d": 1788.45975,
      "v": 115
    },
    {
      "midi": 35,
      "hit": false,
      "t": 11092.296600000001,
      "d": 1788.45975,
      "v": 115
    },
    {
      "midi": 74,
      "hit": false,
      "t": 11092.296600000007,
      "d": 65.38455000000067,
      "v": 70
    },
    {
      "midi": 75,
      "hit": false,
      "t": 11157.681150000008,
      "d": 76.92300000000068,
      "v": 70
    },
    {
      "midi": 74,
      "hit": false,
      "t": 11234.604150000008,
      "d": 76.92300000000068,
      "v": 70
    },
    {
      "midi": 75,
      "hit": false,
      "t": 11311.527150000009,
      "d": 76.92300000000068,
      "v": 70
    },
    {
      "midi": 76,
      "hit": false,
      "t": 11388.45015000001,
      "d": 76.92300000000068,
      "v": 70
    },
    {
      "midi": 77,
      "hit": false,
      "t": 11465.37315000001,
      "d": 76.92300000000068,
      "v": 70
    },
    {
      "midi": 78,
      "hit": false,
      "t": 11542.296150000011,
      "d": 76.92300000000068,
      "v": 70
    },
    {
      "midi": 79,
      "hit": false,
      "t": 11619.219150000012,
      "d": 76.92300000000068,
      "v": 70
    },
    {
      "midi": 80,
      "hit": false,
      "t": 11696.142150000012,
      "d": 76.92300000000068,
      "v": 70
    },
    {
      "midi": 81,
      "hit": false,
      "t": 11773.065150000013,
      "d": 76.92300000000068,
      "v": 70
    },
    {
      "midi": 82,
      "hit": false,
      "t": 11849.988150000014,
      "d": 76.92300000000068,
      "v": 70
    },
    {
      "midi": 83,
      "hit": false,
      "t": 11926.911150000014,
      "d": 76.92300000000068,
      "v": 70
    },
    {
      "midi": 84,
      "hit": false,
      "t": 12003.834150000015,
      "d": 76.92300000000068,
      "v": 70
    },
    {
      "midi": 83,
      "hit": false,
      "t": 12080.757150000016,
      "d": 76.92300000000068,
      "v": 70
    },
    {
      "midi": 82,
      "hit": false,
      "t": 12157.680150000017,
      "d": 76.92300000000068,
      "v": 70
    },
    {
      "midi": 81,
      "hit": false,
      "t": 12234.603150000017,
      "d": 76.92300000000068,
      "v": 70
    },
    {
      "midi": 80,
      "hit": false,
      "t": 12311.526150000018,
      "d": 76.92300000000068,
      "v": 70
    },
    {
      "midi": 79,
      "hit": false,
      "t": 12388.449150000019,
      "d": 76.92300000000068,
      "v": 70
    },
    {
      "midi": 78,
      "hit": false,
      "t": 12465.37215000002,
      "d": 76.92300000000068,
      "v": 70
    },
    {
      "midi": 77,
      "hit": false,
      "t": 12542.29515000002,
      "d": 76.92300000000068,
      "v": 70
    },
    {
      "midi": 76,
      "hit": false,
      "t": 12619.21815000002,
      "d": 76.92300000000068,
      "v": 70
    },
    {
      "midi": 75,
      "hit": false,
      "t": 12696.141150000021,
      "d": 76.92300000000068,
      "v": 70
    },
    {
      "midi": 74,
      "hit": false,
      "t": 12773.064150000022,
      "d": 76.92300000000068,
      "v": 70
    },
    {
      "midi": 73,
      "hit": false,
      "t": 12849.987150000023,
      "d": 76.92300000000068,
      "v": 70
    },
    {
      "midi": 46,
      "hit": false,
      "t": 12938.448600000002,
      "d": 1788.45975,
      "v": 115
    },
    {
      "midi": 34,
      "hit": false,
      "t": 12938.448600000002,
      "d": 1788.45975,
      "v": 115
    },
    {
      "midi": 72,
      "hit": false,
      "t": 12938.448600000023,
      "d": 65.38455000000067,
      "v": 70
    },
    {
      "midi": 73,
      "hit": false,
      "t": 13003.833150000024,
      "d": 76.92300000000068,
      "v": 70
    },
    {
      "midi": 72,
      "hit": false,
      "t": 13080.756150000025,
      "d": 76.92300000000068,
      "v": 70
    },
    {
      "midi": 71,
      "hit": false,
      "t": 13157.679150000025,
      "d": 76.92300000000068,
      "v": 70
    },
    {
      "midi": 70,
      "hit": false,
      "t": 13234.602150000026,
      "d": 76.92300000000068,
      "v": 70
    },
    {
      "midi": 69,
      "hit": false,
      "t": 13311.525150000027,
      "d": 76.92300000000068,
      "v": 70
    },
    {
      "midi": 68,
      "hit": false,
      "t": 13388.448150000027,
      "d": 76.92300000000068,
      "v": 70
    },
    {
      "midi": 67,
      "hit": false,
      "t": 13465.371150000028,
      "d": 76.92300000000068,
      "v": 70
    },
    {
      "midi": 66,
      "hit": false,
      "t": 13542.294150000029,
      "d": 76.92300000000068,
      "v": 70
    },
    {
      "midi": 65,
      "hit": false,
      "t": 13619.21715000003,
      "d": 76.92300000000068,
      "v": 70
    },
    {
      "midi": 64,
      "hit": false,
      "t": 13696.14015000003,
      "d": 76.92300000000068,
      "v": 70
    },
    {
      "midi": 65,
      "hit": false,
      "t": 13773.06315000003,
      "d": 76.92300000000068,
      "v": 70
    },
    {
      "midi": 66,
      "hit": false,
      "t": 13849.986150000032,
      "d": 76.92300000000068,
      "v": 70
    },
    {
      "midi": 67,
      "hit": false,
      "t": 13926.909150000032,
      "d": 76.92300000000068,
      "v": 70
    },
    {
      "midi": 68,
      "hit": false,
      "t": 14003.832150000033,
      "d": 76.92300000000068,
      "v": 70
    },
    {
      "midi": 69,
      "hit": false,
      "t": 14080.755150000034,
      "d": 76.92300000000068,
      "v": 70
    },
    {
      "midi": 70,
      "hit": false,
      "t": 14157.678150000034,
      "d": 76.92300000000068,
      "v": 70
    },
    {
      "midi": 71,
      "hit": false,
      "t": 14234.601150000035,
      "d": 76.92300000000068,
      "v": 70
    },
    {
      "midi": 72,
      "hit": false,
      "t": 14311.524150000036,
      "d": 76.92300000000068,
      "v": 70
    },
    {
      "midi": 73,
      "hit": false,
      "t": 14388.447150000036,
      "d": 76.92300000000068,
      "v": 70
    },
    {
      "midi": 74,
      "hit": false,
      "t": 14465.370150000037,
      "d": 76.92300000000068,
      "v": 70
    },
    {
      "midi": 75,
      "hit": false,
      "t": 14542.293150000038,
      "d": 76.92300000000068,
      "v": 70
    },
    {
      "midi": 76,
      "hit": false,
      "t": 14619.216150000038,
      "d": 76.92300000000068,
      "v": 70
    },
    {
      "midi": 77,
      "hit": false,
      "t": 14696.139150000039,
      "d": 76.92300000000068,
      "v": 70
    },
    {
      "midi": 53,
      "hit": false,
      "t": 14784.600599999998,
      "d": 115.38450000000012,
      "v": 127
    },
    {
      "midi": 29,
      "hit": false,
      "t": 14784.600600000002,
      "d": 1788.4597499999982,
      "v": 115
    },
    {
      "midi": 41,
      "hit": false,
      "t": 14784.600600000002,
      "d": 1788.4597499999982,
      "v": 115
    },
    {
      "midi": 61,
      "hit": false,
      "t": 14784.600600000009,
      "d": 5519.225249999992,
      "v": 65
    },
    {
      "midi": 69,
      "hit": false,
      "t": 14784.600600000012,
      "d": 5519.2252499999995,
      "v": 70
    },
    {
      "midi": 78,
      "hit": false,
      "t": 14784.60060000004,
      "d": 65.38455000000067,
      "v": 70
    },
    {
      "midi": 50,
      "hit": false,
      "t": 14788.446750000023,
      "d": 5519.225249999998,
      "v": 95
    },
    {
      "midi": 79,
      "hit": false,
      "t": 14849.98515000004,
      "d": 76.92300000000068,
      "v": 70
    },
    {
      "midi": 80,
      "hit": false,
      "t": 14926.908150000041,
      "d": 76.92300000000068,
      "v": 70
    },
    {
      "midi": 81,
      "hit": false,
      "t": 15003.831150000042,
      "d": 76.92300000000068,
      "v": 70
    },
    {
      "midi": 80,
      "hit": false,
      "t": 15080.754150000043,
      "d": 76.92300000000068,
      "v": 70
    },
    {
      "midi": 79,
      "hit": false,
      "t": 15157.677150000043,
      "d": 76.92300000000068,
      "v": 70
    },
    {
      "midi": 53,
      "hit": false,
      "t": 15234.600149999998,
      "d": 115.38450000000012,
      "v": 110
    },
    {
      "midi": 80,
      "hit": false,
      "t": 15234.600150000044,
      "d": 76.92300000000068,
      "v": 70
    },
    {
      "midi": 79,
      "hit": false,
      "t": 15311.523150000045,
      "d": 76.92300000000068,
      "v": 70
    },
    {
      "midi": 78,
      "hit": false,
      "t": 15388.446150000045,
      "d": 76.92300000000068,
      "v": 70
    },
    {
      "midi": 77,
      "hit": false,
      "t": 15465.369150000046,
      "d": 76.92300000000068,
      "v": 70
    },
    {
      "midi": 76,
      "hit": false,
      "t": 15542.292150000047,
      "d": 76.92300000000068,
      "v": 70
    },
    {
      "midi": 75,
      "hit": false,
      "t": 15619.215150000047,
      "d": 76.92300000000068,
      "v": 70
    },
    {
      "midi": 53,
      "hit": false,
      "t": 15696.138149999999,
      "d": 115.38450000000012,
      "v": 90
    },
    {
      "midi": 74,
      "hit": false,
      "t": 15696.138150000048,
      "d": 76.92300000000068,
      "v": 70
    },
    {
      "midi": 75,
      "hit": false,
      "t": 15773.061150000049,
      "d": 76.92300000000068,
      "v": 70
    },
    {
      "midi": 74,
      "hit": false,
      "t": 15849.98415000005,
      "d": 76.92300000000068,
      "v": 70
    },
    {
      "midi": 73,
      "hit": false,
      "t": 15926.90715000005,
      "d": 76.92300000000068,
      "v": 70
    },
    {
      "midi": 72,
      "hit": false,
      "t": 16003.83015000005,
      "d": 76.92300000000068,
      "v": 70
    },
    {
      "midi": 71,
      "hit": false,
      "t": 16080.753150000051,
      "d": 76.92300000000068,
      "v": 70
    },
    {
      "midi": 53,
      "hit": false,
      "t": 16157.67615,
      "d": 115.38450000000012,
      "v": 70
    },
    {
      "midi": 70,
      "hit": false,
      "t": 16157.676150000052,
      "d": 76.92300000000068,
      "v": 70
    },
    {
      "midi": 69,
      "hit": false,
      "t": 16234.599150000053,
      "d": 76.92300000000068,
      "v": 70
    },
    {
      "midi": 68,
      "hit": false,
      "t": 16311.522150000053,
      "d": 76.92300000000068,
      "v": 70
    },
    {
      "midi": 67,
      "hit": false,
      "t": 16388.445150000054,
      "d": 76.92299999999886,
      "v": 70
    },
    {
      "midi": 68,
      "hit": false,
      "t": 16465.368150000053,
      "d": 76.92299999999886,
      "v": 70
    },
    {
      "midi": 69,
      "hit": false,
      "t": 16542.291150000052,
      "d": 76.92299999999886,
      "v": 70
    },
    {
      "midi": 42,
      "hit": false,
      "t": 16630.7526,
      "d": 1788.4597499999982,
      "v": 115
    },
    {
      "midi": 30,
      "hit": false,
      "t": 16630.7526,
      "d": 1788.4597499999982,
      "v": 115
    },
    {
      "midi": 53,
      "hit": false,
      "t": 16630.7526,
      "d": 115.38450000000012,
      "v": 50
    },
    {
      "midi": 70,
      "hit": false,
      "t": 16630.75260000005,
      "d": 65.38454999999885,
      "v": 70
    },
    {
      "midi": 71,
      "hit": false,
      "t": 16696.13715000005,
      "d": 76.92299999999886,
      "v": 70
    },
    {
      "midi": 72,
      "hit": false,
      "t": 16773.06015000005,
      "d": 76.92299999999886,
      "v": 70
    },
    {
      "midi": 73,
      "hit": false,
      "t": 16849.983150000047,
      "d": 76.92299999999886,
      "v": 70
    },
    {
      "midi": 74,
      "hit": false,
      "t": 16926.906150000046,
      "d": 76.92299999999886,
      "v": 70
    },
    {
      "midi": 75,
      "hit": false,
      "t": 17003.829150000045,
      "d": 76.92299999999886,
      "v": 70
    },
    {
      "midi": 76,
      "hit": false,
      "t": 17080.752150000044,
      "d": 76.92299999999886,
      "v": 70
    },
    {
      "midi": 77,
      "hit": false,
      "t": 17157.675150000043,
      "d": 76.92299999999886,
      "v": 70
    },
    {
      "midi": 78,
      "hit": false,
      "t": 17234.59815000004,
      "d": 76.92299999999886,
      "v": 70
    },
    {
      "midi": 79,
      "hit": false,
      "t": 17311.52115000004,
      "d": 76.92299999999886,
      "v": 70
    },
    {
      "midi": 80,
      "hit": false,
      "t": 17388.44415000004,
      "d": 76.92299999999886,
      "v": 70
    },
    {
      "midi": 81,
      "hit": false,
      "t": 17465.36715000004,
      "d": 76.92299999999886,
      "v": 70
    },
    {
      "midi": 82,
      "hit": false,
      "t": 17542.290150000037,
      "d": 76.92299999999886,
      "v": 70
    },
    {
      "midi": 81,
      "hit": false,
      "t": 17619.213150000036,
      "d": 76.92299999999886,
      "v": 70
    },
    {
      "midi": 80,
      "hit": false,
      "t": 17696.136150000035,
      "d": 76.92299999999886,
      "v": 70
    },
    {
      "midi": 79,
      "hit": false,
      "t": 17773.059150000034,
      "d": 76.92299999999886,
      "v": 70
    },
    {
      "midi": 78,
      "hit": false,
      "t": 17849.982150000033,
      "d": 76.92299999999886,
      "v": 70
    },
    {
      "midi": 77,
      "hit": false,
      "t": 17926.90515000003,
      "d": 76.92299999999886,
      "v": 70
    },
    {
      "midi": 78,
      "hit": false,
      "t": 18003.82815000003,
      "d": 76.92299999999886,
      "v": 70
    },
    {
      "midi": 77,
      "hit": false,
      "t": 18080.75115000003,
      "d": 76.92299999999886,
      "v": 70
    },
    {
      "midi": 76,
      "hit": false,
      "t": 18157.674150000028,
      "d": 76.92299999999886,
      "v": 70
    },
    {
      "midi": 75,
      "hit": false,
      "t": 18234.597150000027,
      "d": 76.92299999999886,
      "v": 70
    },
    {
      "midi": 74,
      "hit": false,
      "t": 18311.520150000026,
      "d": 76.92299999999886,
      "v": 70
    },
    {
      "midi": 75,
      "hit": false,
      "t": 18388.443150000025,
      "d": 76.92299999999886,
      "v": 70
    },
    {
      "midi": 34,
      "hit": false,
      "t": 18476.904599999998,
      "d": 1788.4597499999982,
      "v": 115
    },
    {
      "midi": 46,
      "hit": false,
      "t": 18476.904599999998,
      "d": 1788.4597499999982,
      "v": 115
    },
    {
      "midi": 74,
      "hit": false,
      "t": 18476.904600000023,
      "d": 65.38454999999885,
      "v": 70
    },
    {
      "midi": 75,
      "hit": false,
      "t": 18542.289150000022,
      "d": 76.92299999999886,
      "v": 70
    },
    {
      "midi": 74,
      "hit": false,
      "t": 18619.21215000002,
      "d": 76.92299999999886,
      "v": 70
    },
    {
      "midi": 75,
      "hit": false,
      "t": 18696.13515000002,
      "d": 76.92299999999886,
      "v": 70
    },
    {
      "midi": 76,
      "hit": false,
      "t": 18773.05815000002,
      "d": 76.92299999999886,
      "v": 70
    },
    {
      "midi": 77,
      "hit": false,
      "t": 18849.981150000018,
      "d": 76.92299999999886,
      "v": 70
    },
    {
      "midi": 78,
      "hit": false,
      "t": 18926.904150000017,
      "d": 76.92299999999886,
      "v": 70
    },
    {
      "midi": 79,
      "hit": false,
      "t": 19003.827150000016,
      "d": 76.92299999999886,
      "v": 70
    },
    {
      "midi": 80,
      "hit": false,
      "t": 19080.750150000014,
      "d": 76.92299999999886,
      "v": 70
    },
    {
      "midi": 81,
      "hit": false,
      "t": 19157.673150000013,
      "d": 76.92299999999886,
      "v": 70
    },
    {
      "midi": 82,
      "hit": false,
      "t": 19234.596150000012,
      "d": 76.92299999999886,
      "v": 70
    },
    {
      "midi": 83,
      "hit": false,
      "t": 19311.51915000001,
      "d": 76.92299999999886,
      "v": 70
    },
    {
      "midi": 84,
      "hit": false,
      "t": 19388.44215000001,
      "d": 76.92299999999886,
      "v": 70
    },
    {
      "midi": 83,
      "hit": false,
      "t": 19465.36515000001,
      "d": 76.92299999999886,
      "v": 70
    },
    {
      "midi": 82,
      "hit": false,
      "t": 19542.288150000008,
      "d": 76.92299999999886,
      "v": 70
    },
    {
      "midi": 81,
      "hit": false,
      "t": 19619.211150000006,
      "d": 76.92299999999886,
      "v": 70
    },
    {
      "midi": 80,
      "hit": false,
      "t": 19696.134150000005,
      "d": 76.92299999999886,
      "v": 70
    },
    {
      "midi": 79,
      "hit": false,
      "t": 19773.057150000004,
      "d": 76.92299999999886,
      "v": 70
    },
    {
      "midi": 78,
      "hit": false,
      "t": 19849.980150000003,
      "d": 76.92299999999886,
      "v": 70
    },
    {
      "midi": 77,
      "hit": false,
      "t": 19926.903150000002,
      "d": 76.92299999999886,
      "v": 70
    },
    {
      "midi": 76,
      "hit": false,
      "t": 20003.82615,
      "d": 76.92299999999886,
      "v": 70
    },
    {
      "midi": 75,
      "hit": false,
      "t": 20080.74915,
      "d": 76.92299999999886,
      "v": 70
    },
    {
      "midi": 74,
      "hit": false,
      "t": 20157.67215,
      "d": 76.92299999999886,
      "v": 70
    },
    {
      "midi": 73,
      "hit": false,
      "t": 20234.595149999997,
      "d": 76.92299999999886,
      "v": 70
    },
    {
      "midi": 72,
      "hit": false,
      "t": 20323.056599999996,
      "d": 65.38454999999885,
      "v": 70
    },
    {
      "midi": 33,
      "hit": false,
      "t": 20323.056599999996,
      "d": 1788.4597499999982,
      "v": 115
    },
    {
      "midi": 45,
      "hit": false,
      "t": 20323.056599999996,
      "d": 1788.4597499999982,
      "v": 115
    },
    {
      "midi": 73,
      "hit": false,
      "t": 20388.441149999995,
      "d": 76.92299999999886,
      "v": 70
    },
    {
      "midi": 72,
      "hit": false,
      "t": 20465.364149999994,
      "d": 76.92299999999886,
      "v": 70
    },
    {
      "midi": 71,
      "hit": false,
      "t": 20542.287149999993,
      "d": 76.92299999999886,
      "v": 70
    },
    {
      "midi": 70,
      "hit": false,
      "t": 20619.21014999999,
      "d": 76.92299999999886,
      "v": 70
    },
    {
      "midi": 69,
      "hit": false,
      "t": 20696.13314999999,
      "d": 76.92299999999886,
      "v": 70
    },
    {
      "midi": 68,
      "hit": false,
      "t": 20773.05614999999,
      "d": 76.92299999999886,
      "v": 70
    },
    {
      "midi": 67,
      "hit": false,
      "t": 20849.97914999999,
      "d": 76.92299999999886,
      "v": 70
    },
    {
      "midi": 66,
      "hit": false,
      "t": 20926.902149999987,
      "d": 76.92299999999886,
      "v": 70
    },
    {
      "midi": 65,
      "hit": false,
      "t": 21003.825149999986,
      "d": 76.92299999999886,
      "v": 70
    },
    {
      "midi": 64,
      "hit": false,
      "t": 21080.748149999985,
      "d": 76.92299999999886,
      "v": 70
    },
    {
      "midi": 65,
      "hit": false,
      "t": 21157.671149999984,
      "d": 76.92299999999886,
      "v": 70
    },
    {
      "midi": 66,
      "hit": false,
      "t": 21234.594149999983,
      "d": 76.92299999999886,
      "v": 70
    },
    {
      "midi": 67,
      "hit": false,
      "t": 21311.51714999998,
      "d": 76.92299999999886,
      "v": 70
    },
    {
      "midi": 68,
      "hit": false,
      "t": 21388.44014999998,
      "d": 76.92299999999886,
      "v": 70
    },
    {
      "midi": 69,
      "hit": false,
      "t": 21465.36314999998,
      "d": 76.92299999999886,
      "v": 70
    },
    {
      "midi": 70,
      "hit": false,
      "t": 21542.286149999978,
      "d": 76.92299999999886,
      "v": 70
    },
    {
      "midi": 71,
      "hit": false,
      "t": 21619.209149999977,
      "d": 76.92299999999886,
      "v": 70
    },
    {
      "midi": 72,
      "hit": false,
      "t": 21696.132149999976,
      "d": 76.92299999999886,
      "v": 70
    },
    {
      "midi": 73,
      "hit": false,
      "t": 21773.055149999975,
      "d": 76.92299999999886,
      "v": 70
    },
    {
      "midi": 74,
      "hit": false,
      "t": 21849.978149999974,
      "d": 76.92299999999886,
      "v": 70
    },
    {
      "midi": 75,
      "hit": false,
      "t": 21926.901149999972,
      "d": 76.92299999999886,
      "v": 70
    },
    {
      "midi": 76,
      "hit": false,
      "t": 22003.82414999997,
      "d": 76.92299999999886,
      "v": 70
    },
    {
      "midi": 77,
      "hit": false,
      "t": 22080.74714999997,
      "d": 76.92299999999886,
      "v": 70
    },
    {
      "midi": 79,
      "hit": false,
      "t": 22169.20859999997,
      "d": 65.38454999999885,
      "v": 70
    },
    {
      "midi": 61,
      "hit": false,
      "t": 22169.20859999999,
      "d": 5519.2252499999595,
      "v": 65
    },
    {
      "midi": 49,
      "hit": false,
      "t": 22169.208599999994,
      "d": 1788.4597499999982,
      "v": 110
    },
    {
      "midi": 37,
      "hit": false,
      "t": 22169.208599999994,
      "d": 1788.4597499999982,
      "v": 110
    },
    {
      "midi": 69,
      "hit": false,
      "t": 22169.20860000002,
      "d": 5519.225249999996,
      "v": 70
    },
    {
      "midi": 50,
      "hit": false,
      "t": 22173.05475000002,
      "d": 5519.225250000007,
      "v": 95
    },
    {
      "midi": 81,
      "hit": false,
      "t": 22234.593149999968,
      "d": 76.92299999999886,
      "v": 70
    },
    {
      "midi": 82,
      "hit": false,
      "t": 22311.516149999967,
      "d": 76.92299999999886,
      "v": 70
    },
    {
      "midi": 81,
      "hit": false,
      "t": 22388.439149999966,
      "d": 76.92299999999886,
      "v": 70
    },
    {
      "midi": 80,
      "hit": false,
      "t": 22465.362149999964,
      "d": 76.92299999999886,
      "v": 70
    },
    {
      "midi": 79,
      "hit": false,
      "t": 22542.285149999963,
      "d": 76.92299999999886,
      "v": 70
    },
    {
      "midi": 80,
      "hit": false,
      "t": 22619.208149999962,
      "d": 76.92299999999886,
      "v": 70
    },
    {
      "midi": 79,
      "hit": false,
      "t": 22696.13114999996,
      "d": 76.92299999999886,
      "v": 70
    },
    {
      "midi": 78,
      "hit": false,
      "t": 22773.05414999996,
      "d": 76.92299999999886,
      "v": 70
    },
    {
      "midi": 77,
      "hit": false,
      "t": 22849.97714999996,
      "d": 76.92299999999886,
      "v": 70
    },
    {
      "midi": 76,
      "hit": false,
      "t": 22926.900149999958,
      "d": 76.92299999999886,
      "v": 70
    },
    {
      "midi": 75,
      "hit": false,
      "t": 23003.823149999957,
      "d": 76.92299999999886,
      "v": 70
    },
    {
      "midi": 74,
      "hit": false,
      "t": 23080.746149999955,
      "d": 76.92299999999886,
      "v": 70
    },
    {
      "midi": 75,
      "hit": false,
      "t": 23157.669149999954,
      "d": 76.92299999999886,
      "v": 70
    },
    {
      "midi": 74,
      "hit": false,
      "t": 23234.592149999953,
      "d": 76.92299999999886,
      "v": 70
    },
    {
      "midi": 73,
      "hit": false,
      "t": 23311.515149999952,
      "d": 76.92299999999886,
      "v": 70
    },
    {
      "midi": 72,
      "hit": false,
      "t": 23388.43814999995,
      "d": 76.92299999999886,
      "v": 70
    },
    {
      "midi": 71,
      "hit": false,
      "t": 23465.36114999995,
      "d": 76.92299999999886,
      "v": 70
    },
    {
      "midi": 70,
      "hit": false,
      "t": 23542.28414999995,
      "d": 76.92299999999886,
      "v": 70
    },
    {
      "midi": 69,
      "hit": false,
      "t": 23619.207149999947,
      "d": 76.92299999999886,
      "v": 70
    },
    {
      "midi": 68,
      "hit": false,
      "t": 23696.130149999946,
      "d": 76.92299999999886,
      "v": 70
    },
    {
      "midi": 67,
      "hit": false,
      "t": 23773.053149999945,
      "d": 76.92299999999886,
      "v": 70
    },
    {
      "midi": 68,
      "hit": false,
      "t": 23849.976149999944,
      "d": 76.92299999999886,
      "v": 70
    },
    {
      "midi": 69,
      "hit": false,
      "t": 23926.899149999943,
      "d": 76.92299999999886,
      "v": 70
    },
    {
      "midi": 70,
      "hit": false,
      "t": 24015.36059999994,
      "d": 65.38454999999885,
      "v": 70
    },
    {
      "midi": 48,
      "hit": false,
      "t": 24015.360599999993,
      "d": 1788.4597499999982,
      "v": 110
    },
    {
      "midi": 36,
      "hit": false,
      "t": 24015.360599999993,
      "d": 1788.4597499999982,
      "v": 110
    },
    {
      "midi": 71,
      "hit": false,
      "t": 24080.74514999994,
      "d": 76.92299999999886,
      "v": 70
    },
    {
      "midi": 72,
      "hit": false,
      "t": 24157.66814999994,
      "d": 76.92299999999886,
      "v": 70
    },
    {
      "midi": 73,
      "hit": false,
      "t": 24234.59114999994,
      "d": 76.92299999999886,
      "v": 70
    },
    {
      "midi": 74,
      "hit": false,
      "t": 24311.514149999937,
      "d": 76.92299999999886,
      "v": 70
    },
    {
      "midi": 75,
      "hit": false,
      "t": 24388.437149999936,
      "d": 76.92299999999886,
      "v": 70
    },
    {
      "midi": 76,
      "hit": false,
      "t": 24465.360149999935,
      "d": 76.92299999999886,
      "v": 70
    },
    {
      "midi": 77,
      "hit": false,
      "t": 24542.283149999934,
      "d": 76.92299999999886,
      "v": 70
    },
    {
      "midi": 78,
      "hit": false,
      "t": 24619.206149999933,
      "d": 76.92299999999886,
      "v": 70
    },
    {
      "midi": 79,
      "hit": false,
      "t": 24696.12914999993,
      "d": 76.92299999999886,
      "v": 70
    },
    {
      "midi": 80,
      "hit": false,
      "t": 24773.05214999993,
      "d": 76.92299999999886,
      "v": 70
    },
    {
      "midi": 81,
      "hit": false,
      "t": 24849.97514999993,
      "d": 76.92299999999886,
      "v": 70
    },
    {
      "midi": 82,
      "hit": false,
      "t": 24926.898149999928,
      "d": 76.92299999999886,
      "v": 70
    },
    {
      "midi": 81,
      "hit": false,
      "t": 25003.821149999927,
      "d": 76.92299999999886,
      "v": 70
    },
    {
      "midi": 80,
      "hit": false,
      "t": 25080.744149999926,
      "d": 76.92299999999886,
      "v": 70
    },
    {
      "midi": 79,
      "hit": false,
      "t": 25157.667149999925,
      "d": 76.92299999999886,
      "v": 70
    },
    {
      "midi": 78,
      "hit": false,
      "t": 25234.590149999924,
      "d": 76.92299999999886,
      "v": 70
    },
    {
      "midi": 77,
      "hit": false,
      "t": 25311.513149999922,
      "d": 76.92299999999886,
      "v": 70
    },
    {
      "midi": 78,
      "hit": false,
      "t": 25388.43614999992,
      "d": 76.92299999999886,
      "v": 70
    },
    {
      "midi": 77,
      "hit": false,
      "t": 25465.35914999992,
      "d": 76.92299999999886,
      "v": 70
    },
    {
      "midi": 76,
      "hit": false,
      "t": 25542.28214999992,
      "d": 76.92299999999886,
      "v": 70
    },
    {
      "midi": 75,
      "hit": false,
      "t": 25619.205149999918,
      "d": 76.92299999999886,
      "v": 70
    },
    {
      "midi": 74,
      "hit": false,
      "t": 25696.128149999917,
      "d": 76.92299999999886,
      "v": 70
    },
    {
      "midi": 75,
      "hit": false,
      "t": 25773.051149999916,
      "d": 76.92299999999886,
      "v": 70
    },
    {
      "midi": 74,
      "hit": false,
      "t": 25861.512599999915,
      "d": 65.38454999999885,
      "v": 70
    },
    {
      "midi": 52,
      "hit": false,
      "t": 25861.51259999999,
      "d": 1788.4597499999982,
      "v": 115
    },
    {
      "midi": 40,
      "hit": false,
      "t": 25861.51259999999,
      "d": 1788.4597499999982,
      "v": 115
    },
    {
      "midi": 75,
      "hit": false,
      "t": 25926.897149999913,
      "d": 76.92299999999886,
      "v": 70
    },
    {
      "midi": 74,
      "hit": false,
      "t": 26003.820149999912,
      "d": 76.92299999999886,
      "v": 70
    },
    {
      "midi": 75,
      "hit": false,
      "t": 26080.74314999991,
      "d": 76.92299999999886,
      "v": 70
    },
    {
      "midi": 76,
      "hit": false,
      "t": 26157.66614999991,
      "d": 76.92299999999886,
      "v": 70
    },
    {
      "midi": 77,
      "hit": false,
      "t": 26234.58914999991,
      "d": 76.92299999999886,
      "v": 70
    },
    {
      "midi": 78,
      "hit": false,
      "t": 26311.512149999908,
      "d": 76.92299999999886,
      "v": 70
    },
    {
      "midi": 79,
      "hit": false,
      "t": 26388.435149999907,
      "d": 76.92299999999886,
      "v": 70
    },
    {
      "midi": 80,
      "hit": false,
      "t": 26465.358149999905,
      "d": 76.92299999999886,
      "v": 70
    },
    {
      "midi": 81,
      "hit": false,
      "t": 26542.281149999904,
      "d": 76.92299999999886,
      "v": 70
    },
    {
      "midi": 82,
      "hit": false,
      "t": 26619.204149999903,
      "d": 76.92299999999886,
      "v": 70
    },
    {
      "midi": 83,
      "hit": false,
      "t": 26696.127149999902,
      "d": 76.92299999999886,
      "v": 70
    },
    {
      "midi": 84,
      "hit": false,
      "t": 26773.0501499999,
      "d": 76.92299999999886,
      "v": 70
    },
    {
      "midi": 83,
      "hit": false,
      "t": 26849.9731499999,
      "d": 76.92299999999886,
      "v": 70
    },
    {
      "midi": 82,
      "hit": false,
      "t": 26926.8961499999,
      "d": 76.92299999999886,
      "v": 70
    },
    {
      "midi": 81,
      "hit": false,
      "t": 27003.819149999897,
      "d": 76.92299999999886,
      "v": 70
    },
    {
      "midi": 80,
      "hit": false,
      "t": 27080.742149999896,
      "d": 76.92299999999886,
      "v": 70
    },
    {
      "midi": 79,
      "hit": false,
      "t": 27157.665149999895,
      "d": 76.92299999999886,
      "v": 70
    },
    {
      "midi": 78,
      "hit": false,
      "t": 27234.588149999894,
      "d": 76.92299999999886,
      "v": 70
    },
    {
      "midi": 77,
      "hit": false,
      "t": 27311.511149999893,
      "d": 76.92299999999886,
      "v": 70
    },
    {
      "midi": 76,
      "hit": false,
      "t": 27388.43414999989,
      "d": 76.92299999999886,
      "v": 70
    },
    {
      "midi": 75,
      "hit": false,
      "t": 27465.35714999989,
      "d": 76.92299999999886,
      "v": 70
    },
    {
      "midi": 74,
      "hit": false,
      "t": 27542.28014999989,
      "d": 76.92299999999886,
      "v": 70
    },
    {
      "midi": 73,
      "hit": false,
      "t": 27619.20314999989,
      "d": 76.92299999999886,
      "v": 70
    },
    {
      "midi": 72,
      "hit": false,
      "t": 27707.664599999887,
      "d": 65.38454999999885,
      "v": 70
    },
    {
      "midi": 39,
      "hit": false,
      "t": 27707.66459999999,
      "d": 1788.4597499999982,
      "v": 115
    },
    {
      "midi": 51,
      "hit": false,
      "t": 27707.66459999999,
      "d": 1788.4597499999982,
      "v": 115
    },
    {
      "midi": 73,
      "hit": false,
      "t": 27773.049149999886,
      "d": 76.92299999999886,
      "v": 70
    },
    {
      "midi": 72,
      "hit": false,
      "t": 27849.972149999885,
      "d": 76.92299999999886,
      "v": 70
    },
    {
      "midi": 71,
      "hit": false,
      "t": 27926.895149999884,
      "d": 76.92299999999886,
      "v": 70
    },
    {
      "midi": 70,
      "hit": false,
      "t": 28003.818149999883,
      "d": 76.92299999999886,
      "v": 70
    },
    {
      "midi": 69,
      "hit": false,
      "t": 28080.74114999988,
      "d": 76.92299999999886,
      "v": 70
    },
    {
      "midi": 68,
      "hit": false,
      "t": 28157.66414999988,
      "d": 76.92299999999886,
      "v": 70
    },
    {
      "midi": 67,
      "hit": false,
      "t": 28234.58714999988,
      "d": 76.92299999999886,
      "v": 70
    },
    {
      "midi": 66,
      "hit": false,
      "t": 28311.51014999988,
      "d": 76.92299999999886,
      "v": 70
    },
    {
      "midi": 65,
      "hit": false,
      "t": 28388.433149999877,
      "d": 76.92299999999886,
      "v": 70
    },
    {
      "midi": 64,
      "hit": false,
      "t": 28465.356149999876,
      "d": 76.92299999999886,
      "v": 70
    },
    {
      "midi": 65,
      "hit": false,
      "t": 28542.279149999875,
      "d": 76.92299999999886,
      "v": 70
    },
    {
      "midi": 66,
      "hit": false,
      "t": 28619.202149999874,
      "d": 76.92299999999886,
      "v": 70
    },
    {
      "midi": 67,
      "hit": false,
      "t": 28696.125149999873,
      "d": 76.92299999999886,
      "v": 70
    },
    {
      "midi": 68,
      "hit": false,
      "t": 28773.04814999987,
      "d": 76.92299999999886,
      "v": 70
    },
    {
      "midi": 69,
      "hit": false,
      "t": 28849.97114999987,
      "d": 76.92299999999886,
      "v": 70
    },
    {
      "midi": 70,
      "hit": false,
      "t": 28926.89414999987,
      "d": 76.92299999999886,
      "v": 70
    },
    {
      "midi": 71,
      "hit": false,
      "t": 29003.817149999868,
      "d": 76.92299999999886,
      "v": 70
    },
    {
      "midi": 72,
      "hit": false,
      "t": 29080.740149999867,
      "d": 76.92299999999886,
      "v": 70
    },
    {
      "midi": 73,
      "hit": false,
      "t": 29157.663149999866,
      "d": 76.92299999999886,
      "v": 70
    },
    {
      "midi": 74,
      "hit": false,
      "t": 29234.586149999865,
      "d": 76.92299999999886,
      "v": 70
    },
    {
      "midi": 75,
      "hit": false,
      "t": 29311.509149999863,
      "d": 76.92299999999886,
      "v": 70
    },
    {
      "midi": 76,
      "hit": false,
      "t": 29388.432149999862,
      "d": 76.92299999999886,
      "v": 70
    },
    {
      "midi": 77,
      "hit": false,
      "t": 29465.35514999986,
      "d": 76.92299999999886,
      "v": 70
    },
    {
      "midi": 78,
      "hit": false,
      "t": 29553.81659999986,
      "d": 65.38454999999885,
      "v": 70
    },
    {
      "midi": 44,
      "hit": false,
      "t": 29553.816599999987,
      "d": 3634.61175,
      "v": 110
    },
    {
      "midi": 32,
      "hit": false,
      "t": 29553.816599999987,
      "d": 3634.61175,
      "v": 110
    },
    {
      "midi": 56,
      "hit": false,
      "t": 29553.8166,
      "d": 115.38450000000012,
      "v": 127
    },
    {
      "midi": 79,
      "hit": false,
      "t": 29619.20114999986,
      "d": 76.92299999999886,
      "v": 70
    },
    {
      "midi": 80,
      "hit": false,
      "t": 29696.124149999858,
      "d": 76.92299999999886,
      "v": 70
    },
    {
      "midi": 81,
      "hit": false,
      "t": 29773.047149999857,
      "d": 76.92299999999886,
      "v": 70
    },
    {
      "midi": 80,
      "hit": false,
      "t": 29849.970149999855,
      "d": 76.92299999999886,
      "v": 70
    },
    {
      "midi": 79,
      "hit": false,
      "t": 29926.893149999854,
      "d": 76.92299999999886,
      "v": 70
    },
    {
      "midi": 80,
      "hit": false,
      "t": 30003.816149999853,
      "d": 76.92299999999886,
      "v": 70
    },
    {
      "midi": 56,
      "hit": false,
      "t": 30003.81615,
      "d": 115.38450000000012,
      "v": 110
    },
    {
      "midi": 79,
      "hit": false,
      "t": 30080.739149999852,
      "d": 76.92299999999886,
      "v": 70
    },
    {
      "midi": 78,
      "hit": false,
      "t": 30157.66214999985,
      "d": 76.92299999999886,
      "v": 70
    },
    {
      "midi": 77,
      "hit": false,
      "t": 30234.58514999985,
      "d": 76.92299999999886,
      "v": 70
    },
    {
      "midi": 76,
      "hit": false,
      "t": 30311.50814999985,
      "d": 76.92299999999886,
      "v": 70
    },
    {
      "midi": 75,
      "hit": false,
      "t": 30388.431149999848,
      "d": 76.92299999999886,
      "v": 70
    },
    {
      "midi": 74,
      "hit": false,
      "t": 30465.354149999846,
      "d": 76.92299999999886,
      "v": 70
    },
    {
      "midi": 56,
      "hit": false,
      "t": 30465.35415,
      "d": 115.38450000000012,
      "v": 90
    },
    {
      "midi": 51,
      "hit": false,
      "t": 30465.35415000002,
      "d": 2730.7664999999542,
      "v": 90
    },
    {
      "midi": 75,
      "hit": false,
      "t": 30542.277149999845,
      "d": 76.92299999999886,
      "v": 70
    },
    {
      "midi": 74,
      "hit": false,
      "t": 30619.200149999844,
      "d": 76.92299999999886,
      "v": 70
    },
    {
      "midi": 73,
      "hit": false,
      "t": 30696.123149999843,
      "d": 76.92299999999886,
      "v": 70
    },
    {
      "midi": 72,
      "hit": false,
      "t": 30773.046149999842,
      "d": 76.92299999999886,
      "v": 70
    },
    {
      "midi": 71,
      "hit": false,
      "t": 30849.96914999984,
      "d": 76.92299999999886,
      "v": 70
    },
    {
      "midi": 70,
      "hit": false,
      "t": 30926.89214999984,
      "d": 76.92299999999886,
      "v": 70
    },
    {
      "midi": 56,
      "hit": false,
      "t": 30926.89215,
      "d": 115.38450000000012,
      "v": 70
    },
    {
      "midi": 69,
      "hit": false,
      "t": 31003.81514999984,
      "d": 76.92299999999886,
      "v": 70
    },
    {
      "midi": 68,
      "hit": false,
      "t": 31080.738149999837,
      "d": 76.92299999999886,
      "v": 70
    },
    {
      "midi": 67,
      "hit": false,
      "t": 31157.661149999836,
      "d": 76.92299999999886,
      "v": 70
    },
    {
      "midi": 68,
      "hit": false,
      "t": 31234.584149999835,
      "d": 76.92299999999886,
      "v": 70
    },
    {
      "midi": 69,
      "hit": false,
      "t": 31311.507149999834,
      "d": 76.92299999999886,
      "v": 70
    },
    {
      "midi": 56,
      "hit": false,
      "t": 31388.43015,
      "d": 1346.1524999999783,
      "v": 80
    },
    {
      "midi": 70,
      "hit": false,
      "t": 31399.968599999833,
      "d": 65.38454999999885,
      "v": 70
    },
    {
      "midi": 56,
      "hit": false,
      "t": 31399.9686,
      "d": 115.38450000000012,
      "v": 50
    },
    {
      "midi": 71,
      "hit": false,
      "t": 31465.35314999983,
      "d": 76.92299999999886,
      "v": 70
    },
    {
      "midi": 72,
      "hit": false,
      "t": 31542.27614999983,
      "d": 76.92299999999886,
      "v": 70
    },
    {
      "midi": 73,
      "hit": false,
      "t": 31619.19914999983,
      "d": 76.92299999999886,
      "v": 70
    },
    {
      "midi": 74,
      "hit": false,
      "t": 31696.12214999983,
      "d": 76.92299999999886,
      "v": 70
    },
    {
      "midi": 75,
      "hit": false,
      "t": 31773.045149999827,
      "d": 76.92299999999886,
      "v": 70
    },
    {
      "midi": 76,
      "hit": false,
      "t": 31849.968149999826,
      "d": 76.92299999999886,
      "v": 70
    },
    {
      "midi": 77,
      "hit": false,
      "t": 31926.891149999825,
      "d": 76.92299999999886,
      "v": 70
    },
    {
      "midi": 78,
      "hit": false,
      "t": 32003.814149999824,
      "d": 76.92299999999886,
      "v": 70
    },
    {
      "midi": 79,
      "hit": false,
      "t": 32080.737149999823,
      "d": 76.92299999999886,
      "v": 70
    },
    {
      "midi": 80,
      "hit": false,
      "t": 32157.66014999982,
      "d": 76.92299999999886,
      "v": 70
    },
    {
      "midi": 81,
      "hit": false,
      "t": 32234.58314999982,
      "d": 76.92299999999886,
      "v": 70
    },
    {
      "midi": 82,
      "hit": false,
      "t": 32311.50614999982,
      "d": 76.92299999999886,
      "v": 70
    },
    {
      "midi": 63,
      "hit": false,
      "t": 32311.50614999998,
      "d": 884.614499999996,
      "v": 70
    },
    {
      "midi": 81,
      "hit": false,
      "t": 32388.429149999818,
      "d": 76.92299999999886,
      "v": 70
    },
    {
      "midi": 80,
      "hit": false,
      "t": 32465.352149999817,
      "d": 76.92299999999886,
      "v": 70
    },
    {
      "midi": 79,
      "hit": false,
      "t": 32542.275149999816,
      "d": 76.92299999999886,
      "v": 70
    },
    {
      "midi": 78,
      "hit": false,
      "t": 32619.198149999815,
      "d": 76.92299999999886,
      "v": 70
    },
    {
      "midi": 77,
      "hit": false,
      "t": 32696.121149999813,
      "d": 76.92299999999886,
      "v": 70
    },
    {
      "midi": 78,
      "hit": false,
      "t": 32773.04414999981,
      "d": 76.9230000000025,
      "v": 70
    },
    {
      "midi": 77,
      "hit": false,
      "t": 32849.967149999815,
      "d": 76.9230000000025,
      "v": 70
    },
    {
      "midi": 76,
      "hit": false,
      "t": 32926.89014999982,
      "d": 76.9230000000025,
      "v": 70
    },
    {
      "midi": 75,
      "hit": false,
      "t": 33003.81314999982,
      "d": 76.9230000000025,
      "v": 70
    },
    {
      "midi": 74,
      "hit": false,
      "t": 33080.73614999982,
      "d": 76.9230000000025,
      "v": 70
    },
    {
      "midi": 75,
      "hit": false,
      "t": 33157.659149999825,
      "d": 76.9230000000025,
      "v": 70
    },
    {
      "midi": 74,
      "hit": false,
      "t": 33246.12059999983,
      "d": 65.38455000000249,
      "v": 70
    },
    {
      "midi": 52,
      "hit": false,
      "t": 33246.12059999997,
      "d": 3653.8425000000934,
      "v": 60
    },
    {
      "midi": 57,
      "hit": false,
      "t": 33246.12059999997,
      "d": 3653.8425000000934,
      "v": 60
    },
    {
      "midi": 64,
      "hit": false,
      "t": 33246.12059999997,
      "d": 3653.8425000000934,
      "v": 60
    },
    {
      "midi": 45,
      "hit": false,
      "t": 33246.12059999999,
      "d": 3634.6117499999964,
      "v": 110
    },
    {
      "midi": 33,
      "hit": false,
      "t": 33246.12059999999,
      "d": 3634.6117499999964,
      "v": 110
    },
    {
      "midi": 57,
      "hit": false,
      "t": 33246.1206,
      "d": 115.38450000000012,
      "v": 127
    },
    {
      "midi": 75,
      "hit": false,
      "t": 33311.50514999983,
      "d": 76.9230000000025,
      "v": 70
    },
    {
      "midi": 74,
      "hit": false,
      "t": 33388.42814999983,
      "d": 76.9230000000025,
      "v": 70
    },
    {
      "midi": 75,
      "hit": false,
      "t": 33465.351149999835,
      "d": 76.9230000000025,
      "v": 70
    },
    {
      "midi": 76,
      "hit": false,
      "t": 33542.27414999984,
      "d": 76.9230000000025,
      "v": 70
    },
    {
      "midi": 77,
      "hit": false,
      "t": 33619.19714999984,
      "d": 76.9230000000025,
      "v": 70
    },
    {
      "midi": 78,
      "hit": false,
      "t": 33696.12014999984,
      "d": 76.9230000000025,
      "v": 70
    },
    {
      "midi": 57,
      "hit": false,
      "t": 33696.12015,
      "d": 115.38450000000012,
      "v": 110
    },
    {
      "midi": 79,
      "hit": false,
      "t": 33773.043149999845,
      "d": 76.9230000000025,
      "v": 70
    },
    {
      "midi": 80,
      "hit": false,
      "t": 33849.96614999985,
      "d": 76.9230000000025,
      "v": 70
    },
    {
      "midi": 81,
      "hit": false,
      "t": 33926.88914999985,
      "d": 76.9230000000025,
      "v": 70
    },
    {
      "midi": 82,
      "hit": false,
      "t": 34003.81214999985,
      "d": 76.9230000000025,
      "v": 70
    },
    {
      "midi": 83,
      "hit": false,
      "t": 34080.735149999855,
      "d": 76.9230000000025,
      "v": 70
    },
    {
      "midi": 84,
      "hit": false,
      "t": 34157.65814999986,
      "d": 76.9230000000025,
      "v": 70
    },
    {
      "midi": 57,
      "hit": false,
      "t": 34157.65815,
      "d": 115.38450000000012,
      "v": 90
    },
    {
      "midi": 83,
      "hit": false,
      "t": 34234.58114999986,
      "d": 76.9230000000025,
      "v": 70
    },
    {
      "midi": 82,
      "hit": false,
      "t": 34311.50414999986,
      "d": 76.9230000000025,
      "v": 70
    },
    {
      "midi": 81,
      "hit": false,
      "t": 34388.427149999865,
      "d": 76.9230000000025,
      "v": 70
    },
    {
      "midi": 80,
      "hit": false,
      "t": 34465.35014999987,
      "d": 76.9230000000025,
      "v": 70
    },
    {
      "midi": 79,
      "hit": false,
      "t": 34542.27314999987,
      "d": 76.9230000000025,
      "v": 70
    },
    {
      "midi": 78,
      "hit": false,
      "t": 34619.19614999987,
      "d": 76.9230000000025,
      "v": 70
    },
    {
      "midi": 57,
      "hit": false,
      "t": 34619.19615,
      "d": 115.38450000000012,
      "v": 70
    },
    {
      "midi": 77,
      "hit": false,
      "t": 34696.119149999875,
      "d": 76.9230000000025,
      "v": 70
    },
    {
      "midi": 76,
      "hit": false,
      "t": 34773.04214999988,
      "d": 76.9230000000025,
      "v": 70
    },
    {
      "midi": 75,
      "hit": false,
      "t": 34849.96514999988,
      "d": 76.9230000000025,
      "v": 70
    },
    {
      "midi": 74,
      "hit": false,
      "t": 34926.88814999988,
      "d": 76.9230000000025,
      "v": 70
    },
    {
      "midi": 73,
      "hit": false,
      "t": 35003.811149999885,
      "d": 76.9230000000025,
      "v": 70
    },
    {
      "midi": 72,
      "hit": false,
      "t": 35092.27259999989,
      "d": 65.38455000000249,
      "v": 70
    },
    {
      "midi": 57,
      "hit": false,
      "t": 35092.272600000004,
      "d": 115.38450000000012,
      "v": 50
    },
    {
      "midi": 73,
      "hit": false,
      "t": 35157.65714999989,
      "d": 76.9230000000025,
      "v": 70
    },
    {
      "midi": 72,
      "hit": false,
      "t": 35234.58014999989,
      "d": 76.9230000000025,
      "v": 70
    },
    {
      "midi": 71,
      "hit": false,
      "t": 35311.503149999895,
      "d": 76.9230000000025,
      "v": 70
    },
    {
      "midi": 70,
      "hit": false,
      "t": 35388.4261499999,
      "d": 76.9230000000025,
      "v": 70
    },
    {
      "midi": 69,
      "hit": false,
      "t": 35465.3491499999,
      "d": 76.9230000000025,
      "v": 70
    },
    {
      "midi": 68,
      "hit": false,
      "t": 35542.2721499999,
      "d": 76.9230000000025,
      "v": 70
    },
    {
      "midi": 67,
      "hit": false,
      "t": 35619.195149999905,
      "d": 76.9230000000025,
      "v": 70
    },
    {
      "midi": 66,
      "hit": false,
      "t": 35696.11814999991,
      "d": 76.9230000000025,
      "v": 70
    },
    {
      "midi": 65,
      "hit": false,
      "t": 35773.04114999991,
      "d": 76.9230000000025,
      "v": 70
    },
    {
      "midi": 64,
      "hit": false,
      "t": 35849.96414999991,
      "d": 76.9230000000025,
      "v": 70
    },
    {
      "midi": 65,
      "hit": false,
      "t": 35926.887149999915,
      "d": 76.9230000000025,
      "v": 70
    },
    {
      "midi": 66,
      "hit": false,
      "t": 36003.81014999992,
      "d": 76.9230000000025,
      "v": 70
    },
    {
      "midi": 67,
      "hit": false,
      "t": 36080.73314999992,
      "d": 76.9230000000025,
      "v": 70
    },
    {
      "midi": 68,
      "hit": false,
      "t": 36157.65614999992,
      "d": 76.9230000000025,
      "v": 70
    },
    {
      "midi": 69,
      "hit": false,
      "t": 36234.579149999925,
      "d": 76.9230000000025,
      "v": 70
    },
    {
      "midi": 70,
      "hit": false,
      "t": 36311.50214999993,
      "d": 76.9230000000025,
      "v": 70
    },
    {
      "midi": 71,
      "hit": false,
      "t": 36388.42514999993,
      "d": 76.9230000000025,
      "v": 70
    },
    {
      "midi": 72,
      "hit": false,
      "t": 36465.34814999993,
      "d": 76.9230000000025,
      "v": 70
    },
    {
      "midi": 73,
      "hit": false,
      "t": 36542.271149999935,
      "d": 76.9230000000025,
      "v": 70
    },
    {
      "midi": 74,
      "hit": false,
      "t": 36619.19414999994,
      "d": 76.9230000000025,
      "v": 70
    },
    {
      "midi": 75,
      "hit": false,
      "t": 36696.11714999994,
      "d": 76.9230000000025,
      "v": 70
    },
    {
      "midi": 76,
      "hit": false,
      "t": 36773.04014999994,
      "d": 76.9230000000025,
      "v": 70
    },
    {
      "midi": 77,
      "hit": false,
      "t": 36849.963149999945,
      "d": 76.9230000000025,
      "v": 70
    },
    {
      "midi": 79,
      "hit": false,
      "t": 36938.42459999995,
      "d": 65.38455000000249,
      "v": 70
    },
    {
      "midi": 44,
      "hit": false,
      "t": 36938.424599999984,
      "d": 3634.6117499999964,
      "v": 110
    },
    {
      "midi": 32,
      "hit": false,
      "t": 36938.424599999984,
      "d": 3634.6117499999964,
      "v": 110
    },
    {
      "midi": 56,
      "hit": false,
      "t": 36938.424600000006,
      "d": 115.38450000000012,
      "v": 127
    },
    {
      "midi": 81,
      "hit": false,
      "t": 37003.80914999995,
      "d": 76.9230000000025,
      "v": 70
    },
    {
      "midi": 82,
      "hit": false,
      "t": 37080.73214999995,
      "d": 76.9230000000025,
      "v": 70
    },
    {
      "midi": 81,
      "hit": false,
      "t": 37157.655149999955,
      "d": 76.9230000000025,
      "v": 70
    },
    {
      "midi": 80,
      "hit": false,
      "t": 37234.57814999996,
      "d": 76.9230000000025,
      "v": 70
    },
    {
      "midi": 79,
      "hit": false,
      "t": 37311.50114999996,
      "d": 76.9230000000025,
      "v": 70
    },
    {
      "midi": 80,
      "hit": false,
      "t": 37388.42414999996,
      "d": 76.9230000000025,
      "v": 70
    },
    {
      "midi": 56,
      "hit": false,
      "t": 37388.424150000006,
      "d": 115.38450000000012,
      "v": 110
    },
    {
      "midi": 79,
      "hit": false,
      "t": 37465.347149999965,
      "d": 76.9230000000025,
      "v": 70
    },
    {
      "midi": 78,
      "hit": false,
      "t": 37542.27014999997,
      "d": 76.9230000000025,
      "v": 70
    },
    {
      "midi": 77,
      "hit": false,
      "t": 37619.19314999997,
      "d": 76.9230000000025,
      "v": 70
    },
    {
      "midi": 76,
      "hit": false,
      "t": 37696.11614999997,
      "d": 76.9230000000025,
      "v": 70
    },
    {
      "midi": 75,
      "hit": false,
      "t": 37773.039149999975,
      "d": 76.9230000000025,
      "v": 70
    },
    {
      "midi": 74,
      "hit": false,
      "t": 37849.96214999998,
      "d": 76.9230000000025,
      "v": 70
    },
    {
      "midi": 56,
      "hit": false,
      "t": 37849.96215000001,
      "d": 115.38450000000012,
      "v": 90
    },
    {
      "midi": 51,
      "hit": false,
      "t": 37849.96215000013,
      "d": 2730.766500000136,
      "v": 90
    },
    {
      "midi": 75,
      "hit": false,
      "t": 37926.88514999998,
      "d": 76.9230000000025,
      "v": 70
    },
    {
      "midi": 74,
      "hit": false,
      "t": 38003.80814999998,
      "d": 76.9230000000025,
      "v": 70
    },
    {
      "midi": 73,
      "hit": false,
      "t": 38080.731149999985,
      "d": 76.9230000000025,
      "v": 70
    },
    {
      "midi": 72,
      "hit": false,
      "t": 38157.65414999999,
      "d": 76.9230000000025,
      "v": 70
    },
    {
      "midi": 71,
      "hit": false,
      "t": 38234.57714999999,
      "d": 76.9230000000025,
      "v": 70
    },
    {
      "midi": 70,
      "hit": false,
      "t": 38311.50014999999,
      "d": 76.9230000000025,
      "v": 70
    },
    {
      "midi": 56,
      "hit": false,
      "t": 38311.50015000001,
      "d": 115.38450000000012,
      "v": 70
    },
    {
      "midi": 69,
      "hit": false,
      "t": 38388.423149999995,
      "d": 76.9230000000025,
      "v": 70
    },
    {
      "midi": 68,
      "hit": false,
      "t": 38465.34615,
      "d": 76.9230000000025,
      "v": 70
    },
    {
      "midi": 67,
      "hit": false,
      "t": 38542.26915,
      "d": 76.9230000000025,
      "v": 70
    },
    {
      "midi": 68,
      "hit": false,
      "t": 38619.19215,
      "d": 76.9230000000025,
      "v": 70
    },
    {
      "midi": 69,
      "hit": false,
      "t": 38696.115150000005,
      "d": 76.9230000000025,
      "v": 70
    },
    {
      "midi": 70,
      "hit": false,
      "t": 38784.57660000001,
      "d": 65.38455000000249,
      "v": 70
    },
    {
      "midi": 56,
      "hit": false,
      "t": 38784.57660000001,
      "d": 115.38450000000012,
      "v": 50
    },
    {
      "midi": 56,
      "hit": false,
      "t": 38784.576600000175,
      "d": 1346.1525000000693,
      "v": 80
    },
    {
      "midi": 71,
      "hit": false,
      "t": 38849.96115000001,
      "d": 76.9230000000025,
      "v": 70
    },
    {
      "midi": 72,
      "hit": false,
      "t": 38926.88415000001,
      "d": 76.9230000000025,
      "v": 70
    },
    {
      "midi": 73,
      "hit": false,
      "t": 39003.807150000015,
      "d": 76.9230000000025,
      "v": 70
    },
    {
      "midi": 74,
      "hit": false,
      "t": 39080.73015000002,
      "d": 76.9230000000025,
      "v": 70
    },
    {
      "midi": 75,
      "hit": false,
      "t": 39157.65315000002,
      "d": 76.9230000000025,
      "v": 70
    },
    {
      "midi": 76,
      "hit": false,
      "t": 39234.57615000002,
      "d": 76.9230000000025,
      "v": 70
    },
    {
      "midi": 77,
      "hit": false,
      "t": 39311.499150000025,
      "d": 76.9230000000025,
      "v": 70
    },
    {
      "midi": 78,
      "hit": false,
      "t": 39388.42215000003,
      "d": 76.9230000000025,
      "v": 70
    },
    {
      "midi": 79,
      "hit": false,
      "t": 39465.34515000003,
      "d": 76.9230000000025,
      "v": 70
    },
    {
      "midi": 80,
      "hit": false,
      "t": 39542.26815000003,
      "d": 76.9230000000025,
      "v": 70
    },
    {
      "midi": 81,
      "hit": false,
      "t": 39619.191150000035,
      "d": 76.9230000000025,
      "v": 70
    },
    {
      "midi": 82,
      "hit": false,
      "t": 39696.11415000004,
      "d": 76.9230000000025,
      "v": 70
    },
    {
      "midi": 63,
      "hit": false,
      "t": 39696.11415000023,
      "d": 884.6145000000397,
      "v": 70
    },
    {
      "midi": 81,
      "hit": false,
      "t": 39773.03715000004,
      "d": 76.9230000000025,
      "v": 70
    },
    {
      "midi": 80,
      "hit": false,
      "t": 39849.96015000004,
      "d": 76.9230000000025,
      "v": 70
    },
    {
      "midi": 79,
      "hit": false,
      "t": 39926.883150000045,
      "d": 76.9230000000025,
      "v": 70
    },
    {
      "midi": 78,
      "hit": false,
      "t": 40003.80615000005,
      "d": 76.9230000000025,
      "v": 70
    },
    {
      "midi": 77,
      "hit": false,
      "t": 40080.72915000005,
      "d": 76.9230000000025,
      "v": 70
    },
    {
      "midi": 78,
      "hit": false,
      "t": 40157.65215000005,
      "d": 76.9230000000025,
      "v": 70
    },
    {
      "midi": 77,
      "hit": false,
      "t": 40234.575150000055,
      "d": 76.9230000000025,
      "v": 70
    },
    {
      "midi": 76,
      "hit": false,
      "t": 40311.49815000006,
      "d": 76.9230000000025,
      "v": 70
    },
    {
      "midi": 75,
      "hit": false,
      "t": 40388.42115000006,
      "d": 76.9230000000025,
      "v": 70
    },
    {
      "midi": 74,
      "hit": false,
      "t": 40465.34415000006,
      "d": 76.9230000000025,
      "v": 70
    },
    {
      "midi": 75,
      "hit": false,
      "t": 40542.267150000065,
      "d": 76.9230000000025,
      "v": 70
    },
    {
      "midi": 45,
      "hit": false,
      "t": 40630.72859999998,
      "d": 1788.4597500000018,
      "v": 110
    },
    {
      "midi": 33,
      "hit": false,
      "t": 40630.72859999998,
      "d": 1788.4597500000018,
      "v": 110
    },
    {
      "midi": 57,
      "hit": false,
      "t": 40630.72860000001,
      "d": 115.38450000000012,
      "v": 127
    },
    {
      "midi": 74,
      "hit": false,
      "t": 40630.72860000007,
      "d": 65.38455000000249,
      "v": 70
    },
    {
      "midi": 52,
      "hit": false,
      "t": 40630.728600000264,
      "d": 3653.8425000001007,
      "v": 60
    },
    {
      "midi": 64,
      "hit": false,
      "t": 40630.728600000264,
      "d": 3653.8425000001007,
      "v": 60
    },
    {
      "midi": 57,
      "hit": false,
      "t": 40630.728600000264,
      "d": 3653.8425000001007,
      "v": 60
    },
    {
      "midi": 75,
      "hit": false,
      "t": 40696.11315000007,
      "d": 76.9230000000025,
      "v": 70
    },
    {
      "midi": 74,
      "hit": false,
      "t": 40773.03615000007,
      "d": 76.9230000000025,
      "v": 70
    },
    {
      "midi": 75,
      "hit": false,
      "t": 40849.959150000075,
      "d": 76.9230000000025,
      "v": 70
    },
    {
      "midi": 76,
      "hit": false,
      "t": 40926.88215000008,
      "d": 76.9230000000025,
      "v": 70
    },
    {
      "midi": 77,
      "hit": false,
      "t": 41003.80515000008,
      "d": 76.9230000000025,
      "v": 70
    },
    {
      "midi": 57,
      "hit": false,
      "t": 41080.72815000001,
      "d": 115.38450000000012,
      "v": 110
    },
    {
      "midi": 78,
      "hit": false,
      "t": 41080.72815000008,
      "d": 76.9230000000025,
      "v": 70
    },
    {
      "midi": 79,
      "hit": false,
      "t": 41157.651150000085,
      "d": 76.9230000000025,
      "v": 70
    },
    {
      "midi": 80,
      "hit": false,
      "t": 41234.57415000009,
      "d": 76.9230000000025,
      "v": 70
    },
    {
      "midi": 81,
      "hit": false,
      "t": 41311.49715000009,
      "d": 76.9230000000025,
      "v": 70
    },
    {
      "midi": 82,
      "hit": false,
      "t": 41388.42015000009,
      "d": 76.9230000000025,
      "v": 70
    },
    {
      "midi": 83,
      "hit": false,
      "t": 41465.343150000095,
      "d": 76.9230000000025,
      "v": 70
    },
    {
      "midi": 57,
      "hit": false,
      "t": 41542.26615000001,
      "d": 115.38450000000012,
      "v": 90
    },
    {
      "midi": 84,
      "hit": false,
      "t": 41542.2661500001,
      "d": 76.9230000000025,
      "v": 70
    },
    {
      "midi": 83,
      "hit": false,
      "t": 41619.1891500001,
      "d": 76.9230000000025,
      "v": 70
    },
    {
      "midi": 82,
      "hit": false,
      "t": 41696.1121500001,
      "d": 76.9230000000025,
      "v": 70
    },
    {
      "midi": 81,
      "hit": false,
      "t": 41773.035150000105,
      "d": 76.9230000000025,
      "v": 70
    },
    {
      "midi": 80,
      "hit": false,
      "t": 41849.95815000011,
      "d": 76.9230000000025,
      "v": 70
    },
    {
      "midi": 79,
      "hit": false,
      "t": 41926.88115000011,
      "d": 76.9230000000025,
      "v": 70
    },
    {
      "midi": 57,
      "hit": false,
      "t": 42003.80415000001,
      "d": 115.38450000000012,
      "v": 70
    },
    {
      "midi": 78,
      "hit": false,
      "t": 42003.80415000011,
      "d": 76.9230000000025,
      "v": 70
    },
    {
      "midi": 77,
      "hit": false,
      "t": 42080.727150000115,
      "d": 76.9230000000025,
      "v": 70
    },
    {
      "midi": 76,
      "hit": false,
      "t": 42157.65015000012,
      "d": 76.9230000000025,
      "v": 70
    },
    {
      "midi": 75,
      "hit": false,
      "t": 42234.57315000012,
      "d": 76.9230000000025,
      "v": 70
    },
    {
      "midi": 74,
      "hit": false,
      "t": 42311.49615000012,
      "d": 76.9230000000025,
      "v": 65
    },
    {
      "midi": 73,
      "hit": false,
      "t": 42388.419150000125,
      "d": 76.9230000000025,
      "v": 65
    },
    {
      "midi": 42,
      "hit": false,
      "t": 42476.88059999998,
      "d": 1788.4597500000018,
      "v": 110
    },
    {
      "midi": 30,
      "hit": false,
      "t": 42476.88059999998,
      "d": 1788.4597500000018,
      "v": 110
    },
    {
      "midi": 57,
      "hit": false,
      "t": 42476.88060000001,
      "d": 115.38450000000012,
      "v": 50
    },
    {
      "midi": 72,
      "hit": false,
      "t": 42476.88060000013,
      "d": 65.38455000000249,
      "v": 60
    },
    {
      "midi": 73,
      "hit": false,
      "t": 42542.26515000013,
      "d": 76.9230000000025,
      "v": 60
    },
    {
      "midi": 72,
      "hit": false,
      "t": 42619.18815000013,
      "d": 76.9230000000025,
      "v": 55
    },
    {
      "midi": 71,
      "hit": false,
      "t": 42696.111150000135,
      "d": 76.9230000000025,
      "v": 55
    },
    {
      "midi": 70,
      "hit": false,
      "t": 42773.03415000014,
      "d": 76.9230000000025,
      "v": 50
    },
    {
      "midi": 69,
      "hit": false,
      "t": 42849.95715000014,
      "d": 76.9230000000025,
      "v": 50
    },
    {
      "midi": 68,
      "hit": false,
      "t": 42926.88015000014,
      "d": 76.9230000000025,
      "v": 45
    },
    {
      "midi": 67,
      "hit": false,
      "t": 43003.803150000145,
      "d": 76.9230000000025,
      "v": 45
    },
    {
      "midi": 66,
      "hit": false,
      "t": 43080.72615000015,
      "d": 76.9230000000025,
      "v": 40
    },
    {
      "midi": 65,
      "hit": false,
      "t": 43157.64915000015,
      "d": 76.9230000000025,
      "v": 40
    },
    {
      "midi": 64,
      "hit": false,
      "t": 43234.57215000015,
      "d": 76.9230000000025,
      "v": 35
    },
    {
      "midi": 65,
      "hit": false,
      "t": 43311.495150000155,
      "d": 76.9230000000025,
      "v": 35
    },
    {
      "midi": 66,
      "hit": false,
      "t": 43388.41815000016,
      "d": 76.9230000000025,
      "v": 30
    },
    {
      "midi": 67,
      "hit": false,
      "t": 43465.34115000016,
      "d": 76.9230000000025,
      "v": 30
    },
    {
      "midi": 68,
      "hit": false,
      "t": 43542.26415000016,
      "d": 76.9230000000025,
      "v": 25
    },
    {
      "midi": 69,
      "hit": false,
      "t": 43619.187150000165,
      "d": 76.9230000000025,
      "v": 25
    },
    {
      "midi": 70,
      "hit": false,
      "t": 43696.11015000017,
      "d": 76.9230000000025,
      "v": 20
    },
    {
      "midi": 71,
      "hit": false,
      "t": 43773.03315000017,
      "d": 76.9230000000025,
      "v": 20
    },
    {
      "midi": 72,
      "hit": false,
      "t": 43849.95615000017,
      "d": 76.9230000000025,
      "v": 15
    },
    {
      "midi": 73,
      "hit": false,
      "t": 43926.879150000175,
      "d": 76.9230000000025,
      "v": 15
    },
    {
      "midi": 74,
      "hit": false,
      "t": 44003.80215000018,
      "d": 76.9230000000025,
      "v": 10
    },
    {
      "midi": 75,
      "hit": false,
      "t": 44080.72515000018,
      "d": 76.9230000000025,
      "v": 10
    },
    {
      "midi": 76,
      "hit": false,
      "t": 44157.64815000018,
      "d": 76.9230000000025,
      "v": 5
    },
    {
      "midi": 77,
      "hit": false,
      "t": 44234.571150000185,
      "d": 76.9230000000025,
      "v": 5
    },
    {
      "midi": 37,
      "hit": false,
      "t": 44323.03259999998,
      "d": 3634.6117499999527,
      "v": 110
    },
    {
      "midi": 25,
      "hit": false,
      "t": 44323.03259999998,
      "d": 3634.6117499999527,
      "v": 110
    },
    {
      "midi": 49,
      "hit": false,
      "t": 44323.03260000001,
      "d": 115.38450000000012,
      "v": 117
    },
    {
      "midi": 78,
      "hit": false,
      "t": 44323.03260000019,
      "d": 65.38455000000249,
      "v": 5
    },
    {
      "midi": 79,
      "hit": false,
      "t": 44388.41715000019,
      "d": 76.9230000000025,
      "v": 5
    },
    {
      "midi": 80,
      "hit": false,
      "t": 44465.34015000019,
      "d": 76.9230000000025,
      "v": 10
    },
    {
      "midi": 81,
      "hit": false,
      "t": 44542.263150000195,
      "d": 76.9230000000025,
      "v": 10
    },
    {
      "midi": 80,
      "hit": false,
      "t": 44619.1861500002,
      "d": 76.9230000000025,
      "v": 15
    },
    {
      "midi": 79,
      "hit": false,
      "t": 44696.1091500002,
      "d": 76.9230000000025,
      "v": 15
    },
    {
      "midi": 49,
      "hit": false,
      "t": 44773.032150000014,
      "d": 115.38450000000012,
      "v": 100
    },
    {
      "midi": 80,
      "hit": false,
      "t": 44773.0321500002,
      "d": 76.9230000000025,
      "v": 20
    },
    {
      "midi": 79,
      "hit": false,
      "t": 44849.955150000205,
      "d": 76.9230000000025,
      "v": 20
    },
    {
      "midi": 78,
      "hit": false,
      "t": 44926.87815000021,
      "d": 76.9230000000025,
      "v": 25
    },
    {
      "midi": 77,
      "hit": false,
      "t": 45003.80115000021,
      "d": 76.9230000000025,
      "v": 25
    },
    {
      "midi": 76,
      "hit": false,
      "t": 45080.72415000021,
      "d": 76.9230000000025,
      "v": 30
    },
    {
      "midi": 75,
      "hit": false,
      "t": 45157.647150000215,
      "d": 76.9230000000025,
      "v": 30
    },
    {
      "midi": 49,
      "hit": false,
      "t": 45234.570150000014,
      "d": 115.38450000000012,
      "v": 80
    },
    {
      "midi": 74,
      "hit": false,
      "t": 45234.57015000022,
      "d": 76.9230000000025,
      "v": 35
    },
    {
      "midi": 56,
      "hit": false,
      "t": 45234.57015000036,
      "d": 2730.7665000000925,
      "v": 100
    },
    {
      "midi": 75,
      "hit": false,
      "t": 45311.49315000022,
      "d": 76.9230000000025,
      "v": 35
    },
    {
      "midi": 74,
      "hit": false,
      "t": 45388.41615000022,
      "d": 76.9230000000025,
      "v": 40
    },
    {
      "midi": 73,
      "hit": false,
      "t": 45465.339150000225,
      "d": 76.9230000000025,
      "v": 40
    },
    {
      "midi": 72,
      "hit": false,
      "t": 45542.26215000023,
      "d": 76.9230000000025,
      "v": 45
    },
    {
      "midi": 71,
      "hit": false,
      "t": 45619.18515000023,
      "d": 76.9230000000025,
      "v": 45
    },
    {
      "midi": 49,
      "hit": false,
      "t": 45696.108150000015,
      "d": 115.38450000000012,
      "v": 60
    },
    {
      "midi": 70,
      "hit": false,
      "t": 45696.10815000023,
      "d": 76.9230000000025,
      "v": 50
    },
    {
      "midi": 69,
      "hit": false,
      "t": 45773.031150000235,
      "d": 76.9230000000025,
      "v": 50
    },
    {
      "midi": 68,
      "hit": false,
      "t": 45849.95415000024,
      "d": 76.9230000000025,
      "v": 55
    },
    {
      "midi": 67,
      "hit": false,
      "t": 45926.87715000024,
      "d": 76.9230000000025,
      "v": 55
    },
    {
      "midi": 68,
      "hit": false,
      "t": 46003.80015000024,
      "d": 76.9230000000025,
      "v": 60
    },
    {
      "midi": 69,
      "hit": false,
      "t": 46080.723150000245,
      "d": 76.9230000000025,
      "v": 60
    },
    {
      "midi": 61,
      "hit": false,
      "t": 46157.64615000041,
      "d": 1346.1525000000474,
      "v": 75
    },
    {
      "midi": 61,
      "hit": false,
      "t": 46169.184600000015,
      "d": 115.38450000000012,
      "v": 40
    },
    {
      "midi": 70,
      "hit": false,
      "t": 46169.18460000025,
      "d": 65.38455000000249,
      "v": 65
    },
    {
      "midi": 71,
      "hit": false,
      "t": 46234.56915000025,
      "d": 76.9230000000025,
      "v": 65
    },
    {
      "midi": 72,
      "hit": false,
      "t": 46311.49215000025,
      "d": 76.9230000000025,
      "v": 70
    },
    {
      "midi": 73,
      "hit": false,
      "t": 46388.415150000255,
      "d": 76.9230000000025,
      "v": 70
    },
    {
      "midi": 74,
      "hit": false,
      "t": 46465.33815000026,
      "d": 76.9230000000025,
      "v": 70
    },
    {
      "midi": 75,
      "hit": false,
      "t": 46542.26115000026,
      "d": 76.9230000000025,
      "v": 70
    },
    {
      "midi": 76,
      "hit": false,
      "t": 46619.18415000026,
      "d": 76.9230000000025,
      "v": 70
    },
    {
      "midi": 77,
      "hit": false,
      "t": 46696.107150000265,
      "d": 76.9230000000025,
      "v": 70
    },
    {
      "midi": 78,
      "hit": false,
      "t": 46773.03015000027,
      "d": 76.9230000000025,
      "v": 70
    },
    {
      "midi": 79,
      "hit": false,
      "t": 46849.95315000027,
      "d": 76.9230000000025,
      "v": 70
    },
    {
      "midi": 80,
      "hit": false,
      "t": 46926.87615000027,
      "d": 76.9230000000025,
      "v": 70
    },
    {
      "midi": 81,
      "hit": false,
      "t": 47003.799150000275,
      "d": 76.9230000000025,
      "v": 70
    },
    {
      "midi": 82,
      "hit": false,
      "t": 47080.72215000028,
      "d": 76.9230000000025,
      "v": 70
    },
    {
      "midi": 68,
      "hit": false,
      "t": 47080.72215000045,
      "d": 884.6145000000033,
      "v": 70
    },
    {
      "midi": 81,
      "hit": false,
      "t": 47157.64515000028,
      "d": 76.9230000000025,
      "v": 70
    },
    {
      "midi": 80,
      "hit": false,
      "t": 47234.56815000028,
      "d": 76.9230000000025,
      "v": 70
    },
    {
      "midi": 79,
      "hit": false,
      "t": 47311.491150000285,
      "d": 76.9230000000025,
      "v": 70
    },
    {
      "midi": 78,
      "hit": false,
      "t": 47388.41415000029,
      "d": 76.9230000000025,
      "v": 70
    },
    {
      "midi": 77,
      "hit": false,
      "t": 47465.33715000029,
      "d": 76.9230000000025,
      "v": 70
    },
    {
      "midi": 78,
      "hit": false,
      "t": 47542.26015000029,
      "d": 76.9230000000025,
      "v": 70
    },
    {
      "midi": 77,
      "hit": false,
      "t": 47619.183150000295,
      "d": 76.9230000000025,
      "v": 70
    },
    {
      "midi": 76,
      "hit": false,
      "t": 47696.1061500003,
      "d": 76.9230000000025,
      "v": 70
    },
    {
      "midi": 75,
      "hit": false,
      "t": 47773.0291500003,
      "d": 76.9230000000025,
      "v": 70
    },
    {
      "midi": 74,
      "hit": false,
      "t": 47849.9521500003,
      "d": 76.9230000000025,
      "v": 70
    },
    {
      "midi": 75,
      "hit": false,
      "t": 47926.875150000305,
      "d": 76.9230000000025,
      "v": 70
    },
    {
      "midi": 50,
      "hit": false,
      "t": 48015.33659999993,
      "d": 3634.6117499999964,
      "v": 105
    },
    {
      "midi": 38,
      "hit": false,
      "t": 48015.33659999993,
      "d": 3634.6117499999964,
      "v": 105
    },
    {
      "midi": 62,
      "hit": false,
      "t": 48015.33660000002,
      "d": 115.38450000000012,
      "v": 117
    },
    {
      "midi": 74,
      "hit": false,
      "t": 48015.33660000031,
      "d": 65.38455000000249,
      "v": 70
    },
    {
      "midi": 57,
      "hit": false,
      "t": 48015.33660000045,
      "d": 3653.8425000000934,
      "v": 60
    },
    {
      "midi": 62,
      "hit": false,
      "t": 48015.33660000045,
      "d": 3653.8425000000934,
      "v": 60
    },
    {
      "midi": 69,
      "hit": false,
      "t": 48015.33660000045,
      "d": 3653.8425000000934,
      "v": 60
    },
    {
      "midi": 75,
      "hit": false,
      "t": 48080.72115000031,
      "d": 76.9230000000025,
      "v": 70
    },
    {
      "midi": 74,
      "hit": false,
      "t": 48157.64415000031,
      "d": 76.9230000000025,
      "v": 70
    },
    {
      "midi": 75,
      "hit": false,
      "t": 48234.567150000315,
      "d": 76.9230000000025,
      "v": 70
    },
    {
      "midi": 76,
      "hit": false,
      "t": 48311.49015000032,
      "d": 76.9230000000025,
      "v": 70
    },
    {
      "midi": 77,
      "hit": false,
      "t": 48388.41315000032,
      "d": 76.9230000000025,
      "v": 70
    },
    {
      "midi": 62,
      "hit": false,
      "t": 48465.33615000002,
      "d": 115.38450000000012,
      "v": 100
    },
    {
      "midi": 78,
      "hit": false,
      "t": 48465.33615000032,
      "d": 76.9230000000025,
      "v": 70
    },
    {
      "midi": 79,
      "hit": false,
      "t": 48542.259150000325,
      "d": 76.9230000000025,
      "v": 70
    },
    {
      "midi": 80,
      "hit": false,
      "t": 48619.18215000033,
      "d": 76.9230000000025,
      "v": 70
    },
    {
      "midi": 81,
      "hit": false,
      "t": 48696.10515000033,
      "d": 76.9230000000025,
      "v": 70
    },
    {
      "midi": 82,
      "hit": false,
      "t": 48773.02815000033,
      "d": 76.9230000000025,
      "v": 70
    },
    {
      "midi": 83,
      "hit": false,
      "t": 48849.951150000335,
      "d": 76.9230000000025,
      "v": 70
    },
    {
      "midi": 62,
      "hit": false,
      "t": 48926.87415000002,
      "d": 115.38450000000012,
      "v": 80
    },
    {
      "midi": 84,
      "hit": false,
      "t": 48926.87415000034,
      "d": 76.9230000000025,
      "v": 70
    },
    {
      "midi": 83,
      "hit": false,
      "t": 49003.79715000034,
      "d": 76.9230000000025,
      "v": 70
    },
    {
      "midi": 82,
      "hit": false,
      "t": 49080.72015000034,
      "d": 76.9230000000025,
      "v": 70
    },
    {
      "midi": 81,
      "hit": false,
      "t": 49157.643150000345,
      "d": 76.9230000000025,
      "v": 70
    },
    {
      "midi": 80,
      "hit": false,
      "t": 49234.56615000035,
      "d": 76.9230000000025,
      "v": 70
    },
    {
      "midi": 79,
      "hit": false,
      "t": 49311.48915000035,
      "d": 76.9230000000025,
      "v": 70
    },
    {
      "midi": 62,
      "hit": false,
      "t": 49388.41215000002,
      "d": 115.38450000000012,
      "v": 60
    },
    {
      "midi": 78,
      "hit": false,
      "t": 49388.41215000035,
      "d": 76.9230000000025,
      "v": 70
    },
    {
      "midi": 77,
      "hit": false,
      "t": 49465.335150000355,
      "d": 76.9230000000025,
      "v": 70
    },
    {
      "midi": 76,
      "hit": false,
      "t": 49542.25815000036,
      "d": 76.9230000000025,
      "v": 70
    },
    {
      "midi": 75,
      "hit": false,
      "t": 49619.18115000036,
      "d": 76.9230000000025,
      "v": 70
    },
    {
      "midi": 74,
      "hit": false,
      "t": 49696.10415000036,
      "d": 76.9230000000025,
      "v": 70
    },
    {
      "midi": 73,
      "hit": false,
      "t": 49773.027150000366,
      "d": 76.9230000000025,
      "v": 70
    },
    {
      "midi": 62,
      "hit": false,
      "t": 49861.48860000002,
      "d": 115.38450000000012,
      "v": 50
    },
    {
      "midi": 72,
      "hit": false,
      "t": 49861.48860000037,
      "d": 65.38455000000249,
      "v": 70
    },
    {
      "midi": 73,
      "hit": false,
      "t": 49926.87315000037,
      "d": 76.9230000000025,
      "v": 70
    },
    {
      "midi": 72,
      "hit": false,
      "t": 50003.79615000037,
      "d": 76.9230000000025,
      "v": 70
    },
    {
      "midi": 71,
      "hit": false,
      "t": 50080.719150000376,
      "d": 76.9230000000025,
      "v": 70
    },
    {
      "midi": 70,
      "hit": false,
      "t": 50157.64215000038,
      "d": 76.9230000000025,
      "v": 70
    },
    {
      "midi": 69,
      "hit": false,
      "t": 50234.56515000038,
      "d": 76.9230000000025,
      "v": 70
    },
    {
      "midi": 68,
      "hit": false,
      "t": 50311.48815000038,
      "d": 76.9230000000025,
      "v": 70
    },
    {
      "midi": 67,
      "hit": false,
      "t": 50388.411150000386,
      "d": 76.9230000000025,
      "v": 70
    },
    {
      "midi": 66,
      "hit": false,
      "t": 50465.33415000039,
      "d": 76.9230000000025,
      "v": 70
    },
    {
      "midi": 65,
      "hit": false,
      "t": 50542.25715000039,
      "d": 76.9230000000025,
      "v": 70
    },
    {
      "midi": 64,
      "hit": false,
      "t": 50619.18015000039,
      "d": 76.9230000000025,
      "v": 70
    },
    {
      "midi": 65,
      "hit": false,
      "t": 50696.103150000396,
      "d": 76.9230000000025,
      "v": 70
    },
    {
      "midi": 66,
      "hit": false,
      "t": 50773.0261500004,
      "d": 76.9230000000025,
      "v": 70
    },
    {
      "midi": 67,
      "hit": false,
      "t": 50849.9491500004,
      "d": 76.9230000000025,
      "v": 70
    },
    {
      "midi": 68,
      "hit": false,
      "t": 50926.8721500004,
      "d": 76.9230000000025,
      "v": 70
    },
    {
      "midi": 69,
      "hit": false,
      "t": 51003.795150000406,
      "d": 76.9230000000025,
      "v": 70
    },
    {
      "midi": 70,
      "hit": false,
      "t": 51080.71815000041,
      "d": 76.9230000000025,
      "v": 70
    },
    {
      "midi": 71,
      "hit": false,
      "t": 51157.64115000041,
      "d": 76.9230000000025,
      "v": 70
    },
    {
      "midi": 72,
      "hit": false,
      "t": 51234.56415000041,
      "d": 76.9230000000025,
      "v": 70
    },
    {
      "midi": 73,
      "hit": false,
      "t": 51311.487150000416,
      "d": 76.9230000000025,
      "v": 70
    },
    {
      "midi": 74,
      "hit": false,
      "t": 51388.41015000042,
      "d": 76.9230000000025,
      "v": 70
    },
    {
      "midi": 75,
      "hit": false,
      "t": 51465.33315000042,
      "d": 76.9230000000025,
      "v": 70
    },
    {
      "midi": 76,
      "hit": false,
      "t": 51542.25615000042,
      "d": 76.9230000000025,
      "v": 70
    },
    {
      "midi": 77,
      "hit": false,
      "t": 51619.179150000426,
      "d": 76.9230000000025,
      "v": 70
    },
    {
      "midi": 37,
      "hit": false,
      "t": 51707.640599999926,
      "d": 3634.6117499999964,
      "v": 110
    },
    {
      "midi": 25,
      "hit": false,
      "t": 51707.640599999926,
      "d": 3634.6117499999964,
      "v": 110
    },
    {
      "midi": 61,
      "hit": false,
      "t": 51707.64060000002,
      "d": 115.38450000000012,
      "v": 117
    },
    {
      "midi": 79,
      "hit": false,
      "t": 51707.64060000043,
      "d": 65.38455000000249,
      "v": 70
    },
    {
      "midi": 81,
      "hit": false,
      "t": 51773.02515000043,
      "d": 76.9230000000025,
      "v": 70
    },
    {
      "midi": 82,
      "hit": false,
      "t": 51849.94815000043,
      "d": 76.9230000000025,
      "v": 70
    },
    {
      "midi": 81,
      "hit": false,
      "t": 51926.871150000436,
      "d": 76.9230000000025,
      "v": 70
    },
    {
      "midi": 80,
      "hit": false,
      "t": 52003.79415000044,
      "d": 76.9230000000025,
      "v": 70
    },
    {
      "midi": 79,
      "hit": false,
      "t": 52080.71715000044,
      "d": 76.9230000000025,
      "v": 70
    },
    {
      "midi": 61,
      "hit": false,
      "t": 52157.64015000002,
      "d": 115.38450000000012,
      "v": 100
    },
    {
      "midi": 80,
      "hit": false,
      "t": 52157.64015000044,
      "d": 76.9230000000025,
      "v": 70
    },
    {
      "midi": 79,
      "hit": false,
      "t": 52234.563150000446,
      "d": 76.9230000000025,
      "v": 70
    },
    {
      "midi": 78,
      "hit": false,
      "t": 52311.48615000045,
      "d": 76.9230000000025,
      "v": 70
    },
    {
      "midi": 77,
      "hit": false,
      "t": 52388.40915000045,
      "d": 76.9230000000025,
      "v": 70
    },
    {
      "midi": 76,
      "hit": false,
      "t": 52465.33215000045,
      "d": 76.9230000000025,
      "v": 70
    },
    {
      "midi": 75,
      "hit": false,
      "t": 52542.255150000456,
      "d": 76.9230000000025,
      "v": 70
    },
    {
      "midi": 61,
      "hit": false,
      "t": 52619.17815000002,
      "d": 115.38450000000012,
      "v": 80
    },
    {
      "midi": 74,
      "hit": false,
      "t": 52619.17815000046,
      "d": 76.9230000000025,
      "v": 70
    },
    {
      "midi": 56,
      "hit": false,
      "t": 52619.17815000061,
      "d": 2730.766500000136,
      "v": 105
    },
    {
      "midi": 75,
      "hit": false,
      "t": 52696.10115000046,
      "d": 76.9230000000025,
      "v": 70
    },
    {
      "midi": 74,
      "hit": false,
      "t": 52773.02415000046,
      "d": 76.9230000000025,
      "v": 70
    },
    {
      "midi": 73,
      "hit": false,
      "t": 52849.947150000466,
      "d": 76.9230000000025,
      "v": 70
    },
    {
      "midi": 72,
      "hit": false,
      "t": 52926.87015000047,
      "d": 76.9230000000025,
      "v": 70
    },
    {
      "midi": 71,
      "hit": false,
      "t": 53003.79315000047,
      "d": 76.9230000000025,
      "v": 70
    },
    {
      "midi": 61,
      "hit": false,
      "t": 53080.71615000002,
      "d": 115.38450000000012,
      "v": 60
    },
    {
      "midi": 70,
      "hit": false,
      "t": 53080.71615000047,
      "d": 76.9230000000025,
      "v": 70
    },
    {
      "midi": 69,
      "hit": false,
      "t": 53157.639150000476,
      "d": 76.9230000000025,
      "v": 70
    },
    {
      "midi": 68,
      "hit": false,
      "t": 53234.56215000048,
      "d": 76.9230000000025,
      "v": 70
    },
    {
      "midi": 67,
      "hit": false,
      "t": 53311.48515000048,
      "d": 76.9230000000025,
      "v": 70
    },
    {
      "midi": 68,
      "hit": false,
      "t": 53388.40815000048,
      "d": 76.9230000000025,
      "v": 70
    },
    {
      "midi": 69,
      "hit": false,
      "t": 53465.331150000486,
      "d": 76.9230000000025,
      "v": 70
    },
    {
      "midi": 61,
      "hit": false,
      "t": 53553.79260000002,
      "d": 115.38450000000012,
      "v": 40
    },
    {
      "midi": 70,
      "hit": false,
      "t": 53553.79260000049,
      "d": 65.38455000000249,
      "v": 70
    },
    {
      "midi": 61,
      "hit": false,
      "t": 53553.792600000656,
      "d": 1346.1525000000693,
      "v": 75
    },
    {
      "midi": 71,
      "hit": false,
      "t": 53619.17715000049,
      "d": 76.9230000000025,
      "v": 70
    },
    {
      "midi": 72,
      "hit": false,
      "t": 53696.10015000049,
      "d": 76.9230000000025,
      "v": 70
    },
    {
      "midi": 73,
      "hit": false,
      "t": 53773.023150000496,
      "d": 76.9230000000025,
      "v": 70
    },
    {
      "midi": 74,
      "hit": false,
      "t": 53849.9461500005,
      "d": 76.9230000000025,
      "v": 70
    },
    {
      "midi": 75,
      "hit": false,
      "t": 53926.8691500005,
      "d": 76.9230000000025,
      "v": 70
    },
    {
      "midi": 76,
      "hit": false,
      "t": 54003.7921500005,
      "d": 76.9230000000025,
      "v": 70
    },
    {
      "midi": 77,
      "hit": false,
      "t": 54080.715150000506,
      "d": 76.9230000000025,
      "v": 70
    },
    {
      "midi": 78,
      "hit": false,
      "t": 54157.63815000051,
      "d": 76.9230000000025,
      "v": 70
    },
    {
      "midi": 79,
      "hit": false,
      "t": 54234.56115000051,
      "d": 76.9230000000025,
      "v": 70
    },
    {
      "midi": 80,
      "hit": false,
      "t": 54311.48415000051,
      "d": 76.9230000000025,
      "v": 70
    },
    {
      "midi": 81,
      "hit": false,
      "t": 54388.407150000516,
      "d": 76.9230000000025,
      "v": 70
    },
    {
      "midi": 82,
      "hit": false,
      "t": 54465.33015000052,
      "d": 76.9230000000025,
      "v": 70
    },
    {
      "midi": 68,
      "hit": false,
      "t": 54465.33015000071,
      "d": 884.6145000000397,
      "v": 70
    },
    {
      "midi": 81,
      "hit": false,
      "t": 54542.25315000052,
      "d": 76.9230000000025,
      "v": 70
    },
    {
      "midi": 80,
      "hit": false,
      "t": 54619.17615000052,
      "d": 76.9230000000025,
      "v": 70
    },
    {
      "midi": 79,
      "hit": false,
      "t": 54696.099150000526,
      "d": 76.9230000000025,
      "v": 70
    },
    {
      "midi": 78,
      "hit": false,
      "t": 54773.02215000053,
      "d": 76.9230000000025,
      "v": 70
    },
    {
      "midi": 77,
      "hit": false,
      "t": 54849.94515000053,
      "d": 76.9230000000025,
      "v": 70
    },
    {
      "midi": 78,
      "hit": false,
      "t": 54926.86815000053,
      "d": 76.9230000000025,
      "v": 70
    },
    {
      "midi": 77,
      "hit": false,
      "t": 55003.791150000536,
      "d": 76.9230000000025,
      "v": 70
    },
    {
      "midi": 76,
      "hit": false,
      "t": 55080.71415000054,
      "d": 76.9230000000025,
      "v": 70
    },
    {
      "midi": 75,
      "hit": false,
      "t": 55157.63715000054,
      "d": 76.9230000000025,
      "v": 70
    },
    {
      "midi": 74,
      "hit": false,
      "t": 55234.56015000054,
      "d": 76.9230000000025,
      "v": 70
    },
    {
      "midi": 75,
      "hit": false,
      "t": 55311.483150000546,
      "d": 76.9230000000025,
      "v": 70
    },
    {
      "midi": 50,
      "hit": false,
      "t": 55399.94459999992,
      "d": 1788.4597500000018,
      "v": 106
    },
    {
      "midi": 38,
      "hit": false,
      "t": 55399.94459999992,
      "d": 1788.4597500000018,
      "v": 105
    },
    {
      "midi": 62,
      "hit": false,
      "t": 55399.944600000024,
      "d": 115.38450000000012,
      "v": 117
    },
    {
      "midi": 74,
      "hit": false,
      "t": 55399.94460000055,
      "d": 65.38455000000249,
      "v": 70
    },
    {
      "midi": 57,
      "hit": false,
      "t": 55399.944600000745,
      "d": 3653.8425000001007,
      "v": 60
    },
    {
      "midi": 69,
      "hit": false,
      "t": 55399.944600000745,
      "d": 3653.8425000001007,
      "v": 60
    },
    {
      "midi": 62,
      "hit": false,
      "t": 55399.944600000745,
      "d": 3653.8425000001007,
      "v": 60
    },
    {
      "midi": 75,
      "hit": false,
      "t": 55465.32915000055,
      "d": 76.9230000000025,
      "v": 70
    },
    {
      "midi": 74,
      "hit": false,
      "t": 55542.25215000055,
      "d": 76.9230000000025,
      "v": 70
    },
    {
      "midi": 75,
      "hit": false,
      "t": 55619.175150000556,
      "d": 76.9230000000025,
      "v": 70
    },
    {
      "midi": 76,
      "hit": false,
      "t": 55696.09815000056,
      "d": 76.9230000000025,
      "v": 70
    },
    {
      "midi": 77,
      "hit": false,
      "t": 55773.02115000056,
      "d": 76.9230000000025,
      "v": 70
    },
    {
      "midi": 62,
      "hit": false,
      "t": 55849.944150000025,
      "d": 115.38450000000012,
      "v": 100
    },
    {
      "midi": 78,
      "hit": false,
      "t": 55849.94415000056,
      "d": 76.9230000000025,
      "v": 70
    },
    {
      "midi": 79,
      "hit": false,
      "t": 55926.867150000566,
      "d": 76.9230000000025,
      "v": 70
    },
    {
      "midi": 80,
      "hit": false,
      "t": 56003.79015000057,
      "d": 76.9230000000025,
      "v": 70
    },
    {
      "midi": 81,
      "hit": false,
      "t": 56080.71315000057,
      "d": 76.9230000000025,
      "v": 70
    },
    {
      "midi": 82,
      "hit": false,
      "t": 56157.63615000057,
      "d": 76.9230000000025,
      "v": 70
    },
    {
      "midi": 83,
      "hit": false,
      "t": 56234.559150000576,
      "d": 76.9230000000025,
      "v": 70
    },
    {
      "midi": 62,
      "hit": false,
      "t": 56311.482150000025,
      "d": 115.38450000000012,
      "v": 80
    },
    {
      "midi": 84,
      "hit": false,
      "t": 56311.48215000058,
      "d": 76.9230000000025,
      "v": 70
    },
    {
      "midi": 83,
      "hit": false,
      "t": 56388.40515000058,
      "d": 76.9230000000025,
      "v": 70
    },
    {
      "midi": 82,
      "hit": false,
      "t": 56465.32815000058,
      "d": 76.9230000000025,
      "v": 70
    },
    {
      "midi": 81,
      "hit": false,
      "t": 56542.251150000586,
      "d": 76.9230000000025,
      "v": 70
    },
    {
      "midi": 80,
      "hit": false,
      "t": 56619.17415000059,
      "d": 76.9230000000025,
      "v": 70
    },
    {
      "midi": 79,
      "hit": false,
      "t": 56696.09715000059,
      "d": 76.9230000000025,
      "v": 70
    },
    {
      "midi": 62,
      "hit": false,
      "t": 56773.020150000026,
      "d": 115.38450000000012,
      "v": 60
    },
    {
      "midi": 78,
      "hit": false,
      "t": 56773.02015000059,
      "d": 76.9230000000025,
      "v": 70
    },
    {
      "midi": 77,
      "hit": false,
      "t": 56849.943150000596,
      "d": 76.9230000000025,
      "v": 70
    },
    {
      "midi": 76,
      "hit": false,
      "t": 56926.8661500006,
      "d": 76.9230000000025,
      "v": 70
    },
    {
      "midi": 75,
      "hit": false,
      "t": 57003.7891500006,
      "d": 76.9230000000025,
      "v": 70
    },
    {
      "midi": 74,
      "hit": false,
      "t": 57080.7121500006,
      "d": 76.9230000000025,
      "v": 65
    },
    {
      "midi": 73,
      "hit": false,
      "t": 57157.635150000606,
      "d": 76.9230000000025,
      "v": 65
    },
    {
      "midi": 47,
      "hit": false,
      "t": 57246.096599999924,
      "d": 1788.4597500000018,
      "v": 110
    },
    {
      "midi": 35,
      "hit": false,
      "t": 57246.096599999924,
      "d": 1788.4597500000018,
      "v": 110
    },
    {
      "midi": 62,
      "hit": false,
      "t": 57246.096600000026,
      "d": 115.38450000000012,
      "v": 40
    },
    {
      "midi": 72,
      "hit": false,
      "t": 57246.09660000061,
      "d": 65.38455000000249,
      "v": 60
    },
    {
      "midi": 73,
      "hit": false,
      "t": 57311.48115000061,
      "d": 76.9230000000025,
      "v": 60
    },
    {
      "midi": 72,
      "hit": false,
      "t": 57388.40415000061,
      "d": 76.9230000000025,
      "v": 55
    },
    {
      "midi": 71,
      "hit": false,
      "t": 57465.327150000616,
      "d": 76.9230000000025,
      "v": 55
    },
    {
      "midi": 70,
      "hit": false,
      "t": 57542.25015000062,
      "d": 76.9230000000025,
      "v": 50
    },
    {
      "midi": 69,
      "hit": false,
      "t": 57619.17315000062,
      "d": 76.9230000000025,
      "v": 50
    },
    {
      "midi": 68,
      "hit": false,
      "t": 57696.09615000062,
      "d": 76.9230000000025,
      "v": 45
    },
    {
      "midi": 67,
      "hit": false,
      "t": 57773.019150000626,
      "d": 76.9230000000025,
      "v": 45
    },
    {
      "midi": 66,
      "hit": false,
      "t": 57849.94215000063,
      "d": 76.9230000000025,
      "v": 40
    },
    {
      "midi": 65,
      "hit": false,
      "t": 57926.86515000063,
      "d": 76.9230000000025,
      "v": 40
    },
    {
      "midi": 64,
      "hit": false,
      "t": 58003.78815000063,
      "d": 76.9230000000025,
      "v": 35
    },
    {
      "midi": 65,
      "hit": false,
      "t": 58080.711150000636,
      "d": 76.9230000000025,
      "v": 35
    },
    {
      "midi": 66,
      "hit": false,
      "t": 58157.63415000064,
      "d": 76.9230000000025,
      "v": 30
    },
    {
      "midi": 67,
      "hit": false,
      "t": 58234.55715000064,
      "d": 76.9230000000025,
      "v": 30
    },
    {
      "midi": 68,
      "hit": false,
      "t": 58311.48015000064,
      "d": 76.9230000000025,
      "v": 25
    },
    {
      "midi": 69,
      "hit": false,
      "t": 58388.403150000646,
      "d": 76.9230000000025,
      "v": 25
    },
    {
      "midi": 70,
      "hit": false,
      "t": 58465.32615000065,
      "d": 76.9230000000025,
      "v": 20
    },
    {
      "midi": 71,
      "hit": false,
      "t": 58542.24915000065,
      "d": 76.9230000000025,
      "v": 20
    },
    {
      "midi": 72,
      "hit": false,
      "t": 58619.17215000065,
      "d": 76.9230000000025,
      "v": 15
    },
    {
      "midi": 73,
      "hit": false,
      "t": 58696.095150000656,
      "d": 76.9230000000025,
      "v": 15
    },
    {
      "midi": 74,
      "hit": false,
      "t": 58773.01815000066,
      "d": 76.9230000000025,
      "v": 10
    },
    {
      "midi": 75,
      "hit": false,
      "t": 58849.94115000066,
      "d": 76.9230000000025,
      "v": 10
    },
    {
      "midi": 76,
      "hit": false,
      "t": 58926.86415000066,
      "d": 76.9230000000025,
      "v": 5
    },
    {
      "midi": 77,
      "hit": false,
      "t": 59003.787150000666,
      "d": 76.9230000000025,
      "v": 5
    },
    {
      "midi": 32,
      "hit": false,
      "t": 59092.24859999992,
      "d": 3634.611749999989,
      "v": 120
    },
    {
      "midi": 80,
      "hit": false,
      "t": 59092.24859999992,
      "d": 3634.611749999989,
      "v": 40
    },
    {
      "midi": 56,
      "hit": false,
      "t": 59092.24860000003,
      "d": 115.38450000000012,
      "v": 95
    },
    {
      "midi": 61,
      "hit": false,
      "t": 59092.24860000084,
      "d": 1826.9212499999994,
      "v": 100
    },
    {
      "midi": 73,
      "hit": false,
      "t": 59092.24860000084,
      "d": 1826.9212499999994,
      "v": 90
    },
    {
      "midi": 66,
      "hit": false,
      "t": 59092.24860000084,
      "d": 3634.6117500000037,
      "v": 75
    },
    {
      "midi": 68,
      "hit": false,
      "t": 59092.24860000084,
      "d": 3634.6117500000037,
      "v": 65
    },
    {
      "midi": 56,
      "hit": false,
      "t": 59542.24815000003,
      "d": 115.38450000000012,
      "v": 80
    },
    {
      "midi": 56,
      "hit": false,
      "t": 60003.78615000003,
      "d": 115.38450000000012,
      "v": 60
    },
    {
      "midi": 56,
      "hit": false,
      "t": 60465.32415000003,
      "d": 115.38450000000012,
      "v": 40
    },
    {
      "midi": 56,
      "hit": false,
      "t": 60938.40060000003,
      "d": 115.38450000000012,
      "v": 20
    },
    {
      "midi": 72,
      "hit": false,
      "t": 60938.400600000845,
      "d": 1826.9212499999994,
      "v": 100
    },
    {
      "midi": 60,
      "hit": false,
      "t": 60938.400600000845,
      "d": 1826.9212499999994,
      "v": 100
    },
    {
      "midi": 72,
      "hit": false,
      "t": 62780.70645000085,
      "d": 3634.611749999989,
      "v": 65
    },
    {
      "midi": 67,
      "hit": false,
      "t": 62780.70645000085,
      "d": 3634.611749999989,
      "v": 65
    },
    {
      "midi": 63,
      "hit": false,
      "t": 62780.70645000085,
      "d": 3634.611749999989,
      "v": 65
    },
    {
      "midi": 24,
      "hit": false,
      "t": 62784.55259999991,
      "d": 1788.4597499999873,
      "v": 110
    },
    {
      "midi": 36,
      "hit": false,
      "t": 62784.55259999991,
      "d": 1788.4597499999873,
      "v": 110
    },
    {
      "midi": 27,
      "hit": false,
      "t": 64630.704599999895,
      "d": 1788.45974999998,
      "v": 100
    },
    {
      "midi": 39,
      "hit": false,
      "t": 64630.704599999895,
      "d": 1788.45974999998,
      "v": 100
    },
    {
      "midi": 73,
      "hit": false,
      "t": 66473.01045000083,
      "d": 1788.4597500001255,
      "v": 50
    },
    {
      "midi": 68,
      "hit": false,
      "t": 66473.01045000083,
      "d": 1788.4597500001255,
      "v": 50
    },
    {
      "midi": 25,
      "hit": false,
      "t": 66476.85659999987,
      "d": 1788.45974999998,
      "v": 115
    },
    {
      "midi": 37,
      "hit": false,
      "t": 66476.85659999987,
      "d": 1788.45974999998,
      "v": 115
    },
    {
      "midi": 62,
      "hit": false,
      "t": 66480.70274999994,
      "d": 22249.977749999307,
      "v": 65
    },
    {
      "midi": 51,
      "hit": false,
      "t": 66480.70275000001,
      "d": 22249.97774999948,
      "v": 95
    },
    {
      "midi": 84,
      "hit": false,
      "t": 66542.24115000067,
      "d": 76.92299999999523,
      "v": 10
    },
    {
      "midi": 83,
      "hit": false,
      "t": 66619.16415000067,
      "d": 76.92299999999523,
      "v": 15
    },
    {
      "midi": 82,
      "hit": false,
      "t": 66696.08715000066,
      "d": 76.92299999999523,
      "v": 15
    },
    {
      "midi": 81,
      "hit": false,
      "t": 66773.01015000066,
      "d": 76.92299999999523,
      "v": 20
    },
    {
      "midi": 80,
      "hit": false,
      "t": 66849.93315000065,
      "d": 76.92299999999523,
      "v": 20
    },
    {
      "midi": 81,
      "hit": false,
      "t": 66926.85615000065,
      "d": 76.92299999999523,
      "v": 25
    },
    {
      "midi": 80,
      "hit": false,
      "t": 67003.77915000064,
      "d": 76.92299999999523,
      "v": 25
    },
    {
      "midi": 79,
      "hit": false,
      "t": 67080.70215000064,
      "d": 76.92299999999523,
      "v": 30
    },
    {
      "midi": 78,
      "hit": false,
      "t": 67157.62515000063,
      "d": 76.92299999999523,
      "v": 30
    },
    {
      "midi": 77,
      "hit": false,
      "t": 67234.54815000063,
      "d": 76.92299999999523,
      "v": 35
    },
    {
      "midi": 76,
      "hit": false,
      "t": 67311.47115000062,
      "d": 76.92299999999523,
      "v": 35
    },
    {
      "midi": 75,
      "hit": false,
      "t": 67388.39415000062,
      "d": 76.92299999999523,
      "v": 40
    },
    {
      "midi": 76,
      "hit": false,
      "t": 67465.31715000061,
      "d": 76.92299999999523,
      "v": 40
    },
    {
      "midi": 75,
      "hit": false,
      "t": 67542.24015000061,
      "d": 76.92299999999523,
      "v": 45
    },
    {
      "midi": 74,
      "hit": false,
      "t": 67619.1631500006,
      "d": 76.92299999999523,
      "v": 45
    },
    {
      "midi": 73,
      "hit": false,
      "t": 67696.0861500006,
      "d": 76.92299999999523,
      "v": 50
    },
    {
      "midi": 72,
      "hit": false,
      "t": 67773.0091500006,
      "d": 76.92299999999523,
      "v": 50
    },
    {
      "midi": 71,
      "hit": false,
      "t": 67849.93215000059,
      "d": 76.92299999999523,
      "v": 55
    },
    {
      "midi": 70,
      "hit": false,
      "t": 67926.85515000059,
      "d": 76.92299999999523,
      "v": 55
    },
    {
      "midi": 69,
      "hit": false,
      "t": 68003.77815000058,
      "d": 76.92299999999523,
      "v": 60
    },
    {
      "midi": 68,
      "hit": false,
      "t": 68080.70115000058,
      "d": 76.92299999999523,
      "v": 60
    },
    {
      "midi": 69,
      "hit": false,
      "t": 68157.62415000057,
      "d": 76.92299999999523,
      "v": 65
    },
    {
      "midi": 70,
      "hit": false,
      "t": 68234.54715000057,
      "d": 76.92299999999523,
      "v": 65
    },
    {
      "midi": 26,
      "hit": false,
      "t": 68323.00859999986,
      "d": 1788.4597499999945,
      "v": 115
    },
    {
      "midi": 38,
      "hit": false,
      "t": 68323.00859999986,
      "d": 1788.4597499999945,
      "v": 115
    },
    {
      "midi": 71,
      "hit": false,
      "t": 68323.00860000055,
      "d": 65.38455000000249,
      "v": 70
    },
    {
      "midi": 70,
      "hit": false,
      "t": 68326.85475000094,
      "d": 20403.825749999727,
      "v": 70
    },
    {
      "midi": 72,
      "hit": false,
      "t": 68388.39315000056,
      "d": 76.92299999999523,
      "v": 70
    },
    {
      "midi": 73,
      "hit": false,
      "t": 68465.31615000055,
      "d": 76.92299999999523,
      "v": 70
    },
    {
      "midi": 74,
      "hit": false,
      "t": 68542.23915000055,
      "d": 76.92299999999523,
      "v": 70
    },
    {
      "midi": 75,
      "hit": false,
      "t": 68619.16215000054,
      "d": 76.92299999999523,
      "v": 70
    },
    {
      "midi": 76,
      "hit": false,
      "t": 68696.08515000054,
      "d": 76.92299999999523,
      "v": 70
    },
    {
      "midi": 77,
      "hit": false,
      "t": 68773.00815000053,
      "d": 76.92299999999523,
      "v": 70
    },
    {
      "midi": 78,
      "hit": false,
      "t": 68849.93115000053,
      "d": 76.92299999999523,
      "v": 70
    },
    {
      "midi": 79,
      "hit": false,
      "t": 68926.85415000052,
      "d": 76.92299999999523,
      "v": 70
    },
    {
      "midi": 80,
      "hit": false,
      "t": 69003.77715000052,
      "d": 76.92299999999523,
      "v": 70
    },
    {
      "midi": 81,
      "hit": false,
      "t": 69080.70015000051,
      "d": 76.92299999999523,
      "v": 70
    },
    {
      "midi": 82,
      "hit": false,
      "t": 69157.62315000051,
      "d": 76.92299999999523,
      "v": 70
    },
    {
      "midi": 83,
      "hit": false,
      "t": 69234.5461500005,
      "d": 76.92299999999523,
      "v": 70
    },
    {
      "midi": 82,
      "hit": false,
      "t": 69311.4691500005,
      "d": 76.92299999999523,
      "v": 70
    },
    {
      "midi": 81,
      "hit": false,
      "t": 69388.3921500005,
      "d": 76.92299999999523,
      "v": 70
    },
    {
      "midi": 80,
      "hit": false,
      "t": 69465.31515000049,
      "d": 76.92299999999523,
      "v": 70
    },
    {
      "midi": 79,
      "hit": false,
      "t": 69542.23815000048,
      "d": 76.92299999999523,
      "v": 70
    },
    {
      "midi": 78,
      "hit": false,
      "t": 69619.16115000048,
      "d": 76.92299999999523,
      "v": 70
    },
    {
      "midi": 79,
      "hit": false,
      "t": 69696.08415000048,
      "d": 76.92299999999523,
      "v": 70
    },
    {
      "midi": 78,
      "hit": false,
      "t": 69773.00715000047,
      "d": 76.92299999999523,
      "v": 70
    },
    {
      "midi": 77,
      "hit": false,
      "t": 69849.93015000047,
      "d": 76.92299999999523,
      "v": 70
    },
    {
      "midi": 76,
      "hit": false,
      "t": 69926.85315000046,
      "d": 76.92299999999523,
      "v": 70
    },
    {
      "midi": 75,
      "hit": false,
      "t": 70003.77615000046,
      "d": 76.92299999999523,
      "v": 70
    },
    {
      "midi": 76,
      "hit": false,
      "t": 70080.69915000045,
      "d": 76.92299999999523,
      "v": 70
    },
    {
      "midi": 42,
      "hit": false,
      "t": 70169.16059999984,
      "d": 1788.4597499999945,
      "v": 115
    },
    {
      "midi": 30,
      "hit": false,
      "t": 70169.16059999984,
      "d": 1788.4597499999945,
      "v": 115
    },
    {
      "midi": 75,
      "hit": false,
      "t": 70169.16060000044,
      "d": 65.38455000000249,
      "v": 70
    },
    {
      "midi": 76,
      "hit": false,
      "t": 70234.54515000044,
      "d": 76.92299999999523,
      "v": 70
    },
    {
      "midi": 75,
      "hit": false,
      "t": 70311.46815000044,
      "d": 76.92299999999523,
      "v": 70
    },
    {
      "midi": 76,
      "hit": false,
      "t": 70388.39115000043,
      "d": 76.92299999999523,
      "v": 70
    },
    {
      "midi": 77,
      "hit": false,
      "t": 70465.31415000043,
      "d": 76.92299999999523,
      "v": 70
    },
    {
      "midi": 78,
      "hit": false,
      "t": 70542.23715000042,
      "d": 76.92299999999523,
      "v": 70
    },
    {
      "midi": 79,
      "hit": false,
      "t": 70619.16015000042,
      "d": 76.92299999999523,
      "v": 70
    },
    {
      "midi": 80,
      "hit": false,
      "t": 70696.08315000041,
      "d": 76.92299999999523,
      "v": 70
    },
    {
      "midi": 81,
      "hit": false,
      "t": 70773.00615000041,
      "d": 76.92299999999523,
      "v": 70
    },
    {
      "midi": 82,
      "hit": false,
      "t": 70849.9291500004,
      "d": 76.92299999999523,
      "v": 70
    },
    {
      "midi": 83,
      "hit": false,
      "t": 70926.8521500004,
      "d": 76.92299999999523,
      "v": 70
    },
    {
      "midi": 84,
      "hit": false,
      "t": 71003.7751500004,
      "d": 76.92299999999523,
      "v": 70
    },
    {
      "midi": 85,
      "hit": false,
      "t": 71080.69815000039,
      "d": 76.92299999999523,
      "v": 70
    },
    {
      "midi": 84,
      "hit": false,
      "t": 71157.62115000038,
      "d": 76.92299999999523,
      "v": 70
    },
    {
      "midi": 83,
      "hit": false,
      "t": 71234.54415000038,
      "d": 76.92299999999523,
      "v": 70
    },
    {
      "midi": 82,
      "hit": false,
      "t": 71311.46715000038,
      "d": 76.92299999999523,
      "v": 70
    },
    {
      "midi": 81,
      "hit": false,
      "t": 71388.39015000037,
      "d": 76.92299999999523,
      "v": 70
    },
    {
      "midi": 80,
      "hit": false,
      "t": 71465.31315000037,
      "d": 76.92299999999523,
      "v": 70
    },
    {
      "midi": 79,
      "hit": false,
      "t": 71542.23615000036,
      "d": 76.92299999999523,
      "v": 70
    },
    {
      "midi": 78,
      "hit": false,
      "t": 71619.15915000036,
      "d": 76.92299999999523,
      "v": 70
    },
    {
      "midi": 77,
      "hit": false,
      "t": 71696.08215000035,
      "d": 76.92299999999523,
      "v": 70
    },
    {
      "midi": 76,
      "hit": false,
      "t": 71773.00515000035,
      "d": 76.92299999999523,
      "v": 70
    },
    {
      "midi": 75,
      "hit": false,
      "t": 71849.92815000034,
      "d": 76.92299999999523,
      "v": 70
    },
    {
      "midi": 74,
      "hit": false,
      "t": 71926.85115000034,
      "d": 76.92299999999523,
      "v": 70
    },
    {
      "midi": 41,
      "hit": false,
      "t": 72015.31259999983,
      "d": 1788.4597499999945,
      "v": 115
    },
    {
      "midi": 29,
      "hit": false,
      "t": 72015.31259999983,
      "d": 1788.4597499999945,
      "v": 115
    },
    {
      "midi": 73,
      "hit": false,
      "t": 72015.31260000032,
      "d": 65.38455000000249,
      "v": 70
    },
    {
      "midi": 74,
      "hit": false,
      "t": 72080.69715000033,
      "d": 76.92299999999523,
      "v": 70
    },
    {
      "midi": 73,
      "hit": false,
      "t": 72157.62015000032,
      "d": 76.92299999999523,
      "v": 70
    },
    {
      "midi": 72,
      "hit": false,
      "t": 72234.54315000032,
      "d": 76.92299999999523,
      "v": 70
    },
    {
      "midi": 71,
      "hit": false,
      "t": 72311.46615000031,
      "d": 76.92299999999523,
      "v": 70
    },
    {
      "midi": 70,
      "hit": false,
      "t": 72388.38915000031,
      "d": 76.92299999999523,
      "v": 70
    },
    {
      "midi": 69,
      "hit": false,
      "t": 72465.3121500003,
      "d": 76.92299999999523,
      "v": 70
    },
    {
      "midi": 68,
      "hit": false,
      "t": 72542.2351500003,
      "d": 76.92299999999523,
      "v": 70
    },
    {
      "midi": 67,
      "hit": false,
      "t": 72619.1581500003,
      "d": 76.92299999999523,
      "v": 70
    },
    {
      "midi": 66,
      "hit": false,
      "t": 72696.08115000029,
      "d": 76.92299999999523,
      "v": 70
    },
    {
      "midi": 65,
      "hit": false,
      "t": 72773.00415000028,
      "d": 76.92299999999523,
      "v": 70
    },
    {
      "midi": 66,
      "hit": false,
      "t": 72849.92715000028,
      "d": 76.92299999999523,
      "v": 70
    },
    {
      "midi": 67,
      "hit": false,
      "t": 72926.85015000027,
      "d": 76.92299999999523,
      "v": 70
    },
    {
      "midi": 68,
      "hit": false,
      "t": 73003.77315000027,
      "d": 76.92299999999523,
      "v": 70
    },
    {
      "midi": 69,
      "hit": false,
      "t": 73080.69615000027,
      "d": 76.92299999999523,
      "v": 70
    },
    {
      "midi": 70,
      "hit": false,
      "t": 73157.61915000026,
      "d": 76.92299999999523,
      "v": 70
    },
    {
      "midi": 71,
      "hit": false,
      "t": 73234.54215000026,
      "d": 76.92299999999523,
      "v": 70
    },
    {
      "midi": 72,
      "hit": false,
      "t": 73311.46515000025,
      "d": 76.92299999999523,
      "v": 70
    },
    {
      "midi": 73,
      "hit": false,
      "t": 73388.38815000025,
      "d": 76.92299999999523,
      "v": 70
    },
    {
      "midi": 74,
      "hit": false,
      "t": 73465.31115000024,
      "d": 76.92299999999523,
      "v": 70
    },
    {
      "midi": 75,
      "hit": false,
      "t": 73542.23415000024,
      "d": 76.92299999999523,
      "v": 70
    },
    {
      "midi": 76,
      "hit": false,
      "t": 73619.15715000023,
      "d": 76.92299999999523,
      "v": 70
    },
    {
      "midi": 77,
      "hit": false,
      "t": 73696.08015000023,
      "d": 76.92299999999523,
      "v": 70
    },
    {
      "midi": 78,
      "hit": false,
      "t": 73773.00315000022,
      "d": 76.92299999999523,
      "v": 70
    }
  ]
}