{
  "jsonPath": "Ultima Online/vesper.json",
  "path": "Ultima Online\\vesper.mid",
  "name": "vesper",
  "difficulty": "Advanced",
  "bpm": 250,
  "notes": [
    {
      "midi": 41,
      "hit": false,
      "t": 2376.236,
      "d": 193.0691750000001,
      "v": 76
    },
    {
      "midi": 94,
      "hit": false,
      "t": 2376.236,
      "d": 69.30688333333319,
      "v": 104
    },
    {
      "midi": 94,
      "hit": false,
      "t": 2539.6022249999996,
      "d": 69.30688333333319,
      "v": 72
    },
    {
      "midi": 58,
      "hit": false,
      "t": 2569.305175,
      "d": 193.0691750000001,
      "v": 80
    },
    {
      "midi": 49,
      "hit": false,
      "t": 2574.2556666666665,
      "d": 193.0691750000001,
      "v": 71
    },
    {
      "midi": 94,
      "hit": false,
      "t": 2673.2655,
      "d": 69.30688333333319,
      "v": 72
    },
    {
      "midi": 56,
      "hit": false,
      "t": 2767.3248416666665,
      "d": 193.0691750000001,
      "v": 72
    },
    {
      "midi": 53,
      "hit": false,
      "t": 2772.275333333333,
      "d": 193.0691750000001,
      "v": 64
    },
    {
      "midi": 55,
      "hit": false,
      "t": 2965.344508333333,
      "d": 193.0691750000001,
      "v": 63
    },
    {
      "midi": 55,
      "hit": false,
      "t": 2970.2949999999996,
      "d": 193.0691750000001,
      "v": 62
    },
    {
      "midi": 53,
      "hit": false,
      "t": 3163.3641749999997,
      "d": 193.0691750000001,
      "v": 72
    },
    {
      "midi": 56,
      "hit": false,
      "t": 3168.314666666666,
      "d": 193.0691750000001,
      "v": 76
    },
    {
      "midi": 49,
      "hit": false,
      "t": 3361.3838416666663,
      "d": 193.0691750000001,
      "v": 72
    },
    {
      "midi": 58,
      "hit": false,
      "t": 3366.334333333333,
      "d": 193.0691750000001,
      "v": 72
    },
    {
      "midi": 41,
      "hit": false,
      "t": 3559.403508333333,
      "d": 193.0691750000001,
      "v": 79
    },
    {
      "midi": 41,
      "hit": false,
      "t": 3564.3539999999994,
      "d": 193.0691750000001,
      "v": 79
    },
    {
      "midi": 58,
      "hit": false,
      "t": 3757.4231749999994,
      "d": 193.0691750000001,
      "v": 72
    },
    {
      "midi": 49,
      "hit": false,
      "t": 3762.373666666666,
      "d": 193.0691750000001,
      "v": 72
    },
    {
      "midi": 56,
      "hit": false,
      "t": 3955.442841666666,
      "d": 193.06917499999963,
      "v": 76
    },
    {
      "midi": 53,
      "hit": false,
      "t": 3960.3933333333325,
      "d": 193.06917499999963,
      "v": 72
    },
    {
      "midi": 92,
      "hit": false,
      "t": 3960.393333333333,
      "d": 89.10885000000007,
      "v": 79
    },
    {
      "midi": 55,
      "hit": false,
      "t": 4153.462508333332,
      "d": 193.06917499999963,
      "v": 62
    },
    {
      "midi": 55,
      "hit": false,
      "t": 4158.412999999999,
      "d": 193.06917499999963,
      "v": 63
    },
    {
      "midi": 94,
      "hit": false,
      "t": 4158.413,
      "d": 84.15835833333313,
      "v": 78
    },
    {
      "midi": 92,
      "hit": false,
      "t": 4257.422833333333,
      "d": 89.10884999999962,
      "v": 55
    },
    {
      "midi": 53,
      "hit": false,
      "t": 4351.482174999998,
      "d": 193.06917499999963,
      "v": 64
    },
    {
      "midi": 56,
      "hit": false,
      "t": 4356.432666666665,
      "d": 193.06917499999963,
      "v": 72
    },
    {
      "midi": 96,
      "hit": false,
      "t": 4356.432666666666,
      "d": 113.861308333333,
      "v": 88
    },
    {
      "midi": 94,
      "hit": false,
      "t": 4455.442499999999,
      "d": 84.15835833333313,
      "v": 54
    },
    {
      "midi": 49,
      "hit": false,
      "t": 4549.501841666664,
      "d": 193.06917499999963,
      "v": 71
    },
    {
      "midi": 58,
      "hit": false,
      "t": 4554.452333333331,
      "d": 193.06917499999963,
      "v": 80
    },
    {
      "midi": 96,
      "hit": false,
      "t": 4653.462166666665,
      "d": 113.861308333333,
      "v": 61
    },
    {
      "midi": 41,
      "hit": false,
      "t": 4747.5215083333305,
      "d": 193.06917499999963,
      "v": 76
    },
    {
      "midi": 39,
      "hit": false,
      "t": 4752.471999999997,
      "d": 193.06917499999963,
      "v": 76
    },
    {
      "midi": 94,
      "hit": false,
      "t": 4752.471999999999,
      "d": 79.20786666666663,
      "v": 84
    },
    {
      "midi": 63,
      "hit": false,
      "t": 4945.541174999997,
      "d": 193.06917499999963,
      "v": 68
    },
    {
      "midi": 46,
      "hit": false,
      "t": 4950.491666666663,
      "d": 193.06917499999963,
      "v": 76
    },
    {
      "midi": 94,
      "hit": false,
      "t": 5049.5014999999985,
      "d": 79.20786666666663,
      "v": 58
    },
    {
      "midi": 58,
      "hit": false,
      "t": 5143.560841666663,
      "d": 193.06917499999963,
      "v": 76
    },
    {
      "midi": 51,
      "hit": false,
      "t": 5148.511333333329,
      "d": 193.06917499999963,
      "v": 88
    },
    {
      "midi": 55,
      "hit": false,
      "t": 5341.580508333329,
      "d": 193.06917499999963,
      "v": 62
    },
    {
      "midi": 87,
      "hit": false,
      "t": 5341.580508333333,
      "d": 79.20786666666663,
      "v": 56
    },
    {
      "midi": 55,
      "hit": false,
      "t": 5346.530999999995,
      "d": 193.06917499999963,
      "v": 73
    },
    {
      "midi": 51,
      "hit": false,
      "t": 5539.600174999995,
      "d": 193.06917499999963,
      "v": 68
    },
    {
      "midi": 89,
      "hit": false,
      "t": 5539.600175,
      "d": 89.10884999999962,
      "v": 55
    },
    {
      "midi": 58,
      "hit": false,
      "t": 5544.5506666666615,
      "d": 193.06917499999963,
      "v": 80
    },
    {
      "midi": 46,
      "hit": false,
      "t": 5737.619841666661,
      "d": 193.06917499999963,
      "v": 62
    },
    {
      "midi": 91,
      "hit": false,
      "t": 5737.619841666666,
      "d": 108.9108166666665,
      "v": 58
    },
    {
      "midi": 63,
      "hit": false,
      "t": 5742.570333333328,
      "d": 193.06917499999963,
      "v": 72
    },
    {
      "midi": 39,
      "hit": false,
      "t": 5935.639508333327,
      "d": 193.06917499999963,
      "v": 72
    },
    {
      "midi": 39,
      "hit": false,
      "t": 5940.589999999994,
      "d": 193.06917499999963,
      "v": 72
    },
    {
      "midi": 87,
      "hit": false,
      "t": 5940.589999999998,
      "d": 89.10884999999962,
      "v": 80
    },
    {
      "midi": 63,
      "hit": false,
      "t": 6133.659174999993,
      "d": 193.06917499999963,
      "v": 72
    },
    {
      "midi": 46,
      "hit": false,
      "t": 6138.60966666666,
      "d": 193.06917499999963,
      "v": 62
    },
    {
      "midi": 87,
      "hit": false,
      "t": 6237.619499999999,
      "d": 89.10884999999962,
      "v": 56
    },
    {
      "midi": 58,
      "hit": false,
      "t": 6331.6788416666595,
      "d": 193.06917499999963,
      "v": 80
    },
    {
      "midi": 51,
      "hit": false,
      "t": 6336.629333333326,
      "d": 193.06917499999963,
      "v": 68
    },
    {
      "midi": 55,
      "hit": false,
      "t": 6529.698508333326,
      "d": 193.06917499999963,
      "v": 73
    },
    {
      "midi": 55,
      "hit": false,
      "t": 6534.648999999992,
      "d": 193.06917499999963,
      "v": 62
    },
    {
      "midi": 51,
      "hit": false,
      "t": 6727.718174999992,
      "d": 193.06917499999963,
      "v": 88
    },
    {
      "midi": 58,
      "hit": false,
      "t": 6732.668666666658,
      "d": 193.06917499999963,
      "v": 76
    },
    {
      "midi": 46,
      "hit": false,
      "t": 6925.737841666658,
      "d": 193.06917499999963,
      "v": 76
    },
    {
      "midi": 63,
      "hit": false,
      "t": 6930.688333333324,
      "d": 193.06917499999963,
      "v": 68
    },
    {
      "midi": 39,
      "hit": false,
      "t": 7123.757508333324,
      "d": 193.06917499999963,
      "v": 76
    },
    {
      "midi": 41,
      "hit": false,
      "t": 7128.7079999999905,
      "d": 193.06917499999963,
      "v": 76
    },
    {
      "midi": 92,
      "hit": false,
      "t": 7128.707999999998,
      "d": 74.25737500000014,
      "v": 94
    },
    {
      "midi": 58,
      "hit": false,
      "t": 7321.77717499999,
      "d": 193.06917499999963,
      "v": 80
    },
    {
      "midi": 49,
      "hit": false,
      "t": 7326.727666666657,
      "d": 193.06917499999963,
      "v": 71
    },
    {
      "midi": 92,
      "hit": false,
      "t": 7425.737499999998,
      "d": 74.25737500000014,
      "v": 65
    },
    {
      "midi": 56,
      "hit": false,
      "t": 7519.796841666656,
      "d": 193.06917499999963,
      "v": 72
    },
    {
      "midi": 53,
      "hit": false,
      "t": 7524.747333333323,
      "d": 193.06917499999963,
      "v": 64
    },
    {
      "midi": 55,
      "hit": false,
      "t": 7717.816508333322,
      "d": 193.06917499999963,
      "v": 63
    },
    {
      "midi": 92,
      "hit": false,
      "t": 7717.816508333332,
      "d": 99.00983333333352,
      "v": 56
    },
    {
      "midi": 55,
      "hit": false,
      "t": 7722.766999999989,
      "d": 193.06917499999963,
      "v": 62
    },
    {
      "midi": 53,
      "hit": false,
      "t": 7915.8361749999885,
      "d": 193.06917499999963,
      "v": 72
    },
    {
      "midi": 56,
      "hit": false,
      "t": 7920.786666666655,
      "d": 193.06917499999963,
      "v": 76
    },
    {
      "midi": 49,
      "hit": false,
      "t": 8113.855841666655,
      "d": 193.06917500000054,
      "v": 72
    },
    {
      "midi": 58,
      "hit": false,
      "t": 8118.806333333321,
      "d": 193.06917500000054,
      "v": 72
    },
    {
      "midi": 41,
      "hit": false,
      "t": 8311.875508333322,
      "d": 193.06917500000054,
      "v": 79
    },
    {
      "midi": 41,
      "hit": false,
      "t": 8316.825999999988,
      "d": 193.06917500000054,
      "v": 79
    },
    {
      "midi": 58,
      "hit": false,
      "t": 8509.895174999989,
      "d": 193.06917500000054,
      "v": 72
    },
    {
      "midi": 49,
      "hit": false,
      "t": 8514.845666666655,
      "d": 193.06917500000054,
      "v": 72
    },
    {
      "midi": 56,
      "hit": false,
      "t": 8707.914841666656,
      "d": 193.06917500000054,
      "v": 76
    },
    {
      "midi": 53,
      "hit": false,
      "t": 8712.865333333322,
      "d": 193.06917500000054,
      "v": 72
    },
    {
      "midi": 89,
      "hit": false,
      "t": 8712.865333333331,
      "d": 118.8117999999995,
      "v": 80
    },
    {
      "midi": 55,
      "hit": false,
      "t": 8905.934508333323,
      "d": 193.06917500000054,
      "v": 62
    },
    {
      "midi": 87,
      "hit": false,
      "t": 8905.934508333332,
      "d": 103.96032500000001,
      "v": 58
    },
    {
      "midi": 55,
      "hit": false,
      "t": 8910.88499999999,
      "d": 193.06917500000054,
      "v": 63
    },
    {
      "midi": 91,
      "hit": false,
      "t": 8910.884999999998,
      "d": 94.05934166666702,
      "v": 79
    },
    {
      "midi": 53,
      "hit": false,
      "t": 9103.95417499999,
      "d": 193.06917500000054,
      "v": 64
    },
    {
      "midi": 56,
      "hit": false,
      "t": 9108.904666666656,
      "d": 193.06917500000054,
      "v": 72
    },
    {
      "midi": 92,
      "hit": false,
      "t": 9108.904666666665,
      "d": 94.05934166666702,
      "v": 80
    },
    {
      "midi": 91,
      "hit": false,
      "t": 9207.914499999999,
      "d": 94.05934166666702,
      "v": 55
    },
    {
      "midi": 49,
      "hit": false,
      "t": 9301.973841666657,
      "d": 193.06917500000054,
      "v": 71
    },
    {
      "midi": 58,
      "hit": false,
      "t": 9306.924333333323,
      "d": 193.06917500000054,
      "v": 80
    },
    {
      "midi": 92,
      "hit": false,
      "t": 9405.934166666666,
      "d": 94.05934166666702,
      "v": 56
    },
    {
      "midi": 41,
      "hit": false,
      "t": 9499.993508333324,
      "d": 193.06917500000054,
      "v": 76
    },
    {
      "midi": 39,
      "hit": false,
      "t": 9504.94399999999,
      "d": 193.06917500000054,
      "v": 76
    },
    {
      "midi": 94,
      "hit": false,
      "t": 9504.944,
      "d": 74.25737499999923,
      "v": 88
    },
    {
      "midi": 63,
      "hit": false,
      "t": 9698.013174999991,
      "d": 193.06917500000054,
      "v": 68
    },
    {
      "midi": 46,
      "hit": false,
      "t": 9702.963666666657,
      "d": 193.06917500000054,
      "v": 76
    },
    {
      "midi": 94,
      "hit": false,
      "t": 9801.9735,
      "d": 74.25737499999923,
      "v": 61
    },
    {
      "midi": 58,
      "hit": false,
      "t": 9896.032841666658,
      "d": 193.06917500000054,
      "v": 76
    },
    {
      "midi": 51,
      "hit": false,
      "t": 9900.983333333324,
      "d": 193.06917500000054,
      "v": 88
    },
    {
      "midi": 55,
      "hit": false,
      "t": 10094.052508333325,
      "d": 193.06917500000054,
      "v": 62
    },
    {
      "midi": 94,
      "hit": false,
      "t": 10094.052508333332,
      "d": 79.20786666666754,
      "v": 58
    },
    {
      "midi": 55,
      "hit": false,
      "t": 10099.002999999992,
      "d": 193.06917500000054,
      "v": 73
    },
    {
      "midi": 51,
      "hit": false,
      "t": 10292.072174999992,
      "d": 193.06917500000054,
      "v": 68
    },
    {
      "midi": 58,
      "hit": false,
      "t": 10297.022666666659,
      "d": 193.06917500000054,
      "v": 80
    },
    {
      "midi": 46,
      "hit": false,
      "t": 10490.09184166666,
      "d": 193.06917500000054,
      "v": 62
    },
    {
      "midi": 96,
      "hit": false,
      "t": 10490.091841666666,
      "d": 113.861308333333,
      "v": 47
    },
    {
      "midi": 63,
      "hit": false,
      "t": 10495.042333333326,
      "d": 193.06917500000054,
      "v": 72
    },
    {
      "midi": 39,
      "hit": false,
      "t": 10688.111508333326,
      "d": 193.06917500000054,
      "v": 72
    },
    {
      "midi": 94,
      "hit": false,
      "t": 10688.111508333333,
      "d": 64.35639166666624,
      "v": 50
    },
    {
      "midi": 39,
      "hit": false,
      "t": 10693.061999999993,
      "d": 193.06917500000054,
      "v": 72
    },
    {
      "midi": 63,
      "hit": false,
      "t": 10886.131174999993,
      "d": 193.06917500000054,
      "v": 72
    },
    {
      "midi": 92,
      "hit": false,
      "t": 10886.131175,
      "d": 84.15835833333404,
      "v": 53
    },
    {
      "midi": 46,
      "hit": false,
      "t": 10891.08166666666,
      "d": 193.06917500000054,
      "v": 62
    },
    {
      "midi": 58,
      "hit": false,
      "t": 11084.15084166666,
      "d": 193.06917500000054,
      "v": 80
    },
    {
      "midi": 51,
      "hit": false,
      "t": 11089.101333333327,
      "d": 193.06917500000054,
      "v": 68
    },
    {
      "midi": 55,
      "hit": false,
      "t": 11282.170508333327,
      "d": 193.06917500000054,
      "v": 73
    },
    {
      "midi": 55,
      "hit": false,
      "t": 11287.120999999994,
      "d": 193.06917500000054,
      "v": 62
    },
    {
      "midi": 51,
      "hit": false,
      "t": 11480.190174999994,
      "d": 193.06917500000054,
      "v": 88
    },
    {
      "midi": 58,
      "hit": false,
      "t": 11485.14066666666,
      "d": 193.06917500000054,
      "v": 76
    },
    {
      "midi": 46,
      "hit": false,
      "t": 11678.209841666661,
      "d": 193.06917500000054,
      "v": 76
    },
    {
      "midi": 63,
      "hit": false,
      "t": 11683.160333333328,
      "d": 193.06917500000054,
      "v": 68
    },
    {
      "midi": 39,
      "hit": false,
      "t": 11876.229508333328,
      "d": 193.06917500000054,
      "v": 76
    },
    {
      "midi": 41,
      "hit": false,
      "t": 11881.179999999995,
      "d": 193.06917500000054,
      "v": 76
    },
    {
      "midi": 94,
      "hit": false,
      "t": 11881.179999999998,
      "d": 69.30688333333273,
      "v": 88
    },
    {
      "midi": 58,
      "hit": false,
      "t": 12074.249174999995,
      "d": 193.06917500000054,
      "v": 80
    },
    {
      "midi": 49,
      "hit": false,
      "t": 12079.199666666662,
      "d": 193.06917500000054,
      "v": 71
    },
    {
      "midi": 94,
      "hit": false,
      "t": 12178.209499999999,
      "d": 69.30688333333273,
      "v": 61
    },
    {
      "midi": 56,
      "hit": false,
      "t": 12272.268841666662,
      "d": 193.06917500000054,
      "v": 72
    },
    {
      "midi": 53,
      "hit": false,
      "t": 12277.219333333329,
      "d": 193.06917500000054,
      "v": 64
    },
    {
      "midi": 55,
      "hit": false,
      "t": 12470.28850833333,
      "d": 193.06917500000054,
      "v": 63
    },
    {
      "midi": 94,
      "hit": false,
      "t": 12470.288508333335,
      "d": 69.30688333333273,
      "v": 61
    },
    {
      "midi": 55,
      "hit": false,
      "t": 12475.238999999996,
      "d": 193.06917500000054,
      "v": 62
    },
    {
      "midi": 53,
      "hit": false,
      "t": 12668.308174999996,
      "d": 193.06917500000054,
      "v": 72
    },
    {
      "midi": 56,
      "hit": false,
      "t": 12673.258666666663,
      "d": 193.06917500000054,
      "v": 76
    },
    {
      "midi": 49,
      "hit": false,
      "t": 12866.327841666664,
      "d": 193.06917500000054,
      "v": 72
    },
    {
      "midi": 58,
      "hit": false,
      "t": 12871.27833333333,
      "d": 193.06917500000054,
      "v": 72
    },
    {
      "midi": 41,
      "hit": false,
      "t": 13064.34750833333,
      "d": 193.06917500000054,
      "v": 79
    },
    {
      "midi": 41,
      "hit": false,
      "t": 13069.297999999997,
      "d": 193.06917500000054,
      "v": 79
    },
    {
      "midi": 58,
      "hit": false,
      "t": 13262.367174999998,
      "d": 193.06917500000054,
      "v": 72
    },
    {
      "midi": 49,
      "hit": false,
      "t": 13267.317666666664,
      "d": 193.06917500000054,
      "v": 72
    },
    {
      "midi": 56,
      "hit": false,
      "t": 13460.386841666665,
      "d": 193.06917500000054,
      "v": 76
    },
    {
      "midi": 53,
      "hit": false,
      "t": 13465.337333333331,
      "d": 193.06917500000054,
      "v": 72
    },
    {
      "midi": 92,
      "hit": false,
      "t": 13465.337333333331,
      "d": 84.15835833333404,
      "v": 76
    },
    {
      "midi": 55,
      "hit": false,
      "t": 13658.406508333332,
      "d": 193.06917500000054,
      "v": 62
    },
    {
      "midi": 55,
      "hit": false,
      "t": 13663.356999999998,
      "d": 193.06917500000054,
      "v": 63
    },
    {
      "midi": 94,
      "hit": false,
      "t": 13663.356999999998,
      "d": 64.35639166666624,
      "v": 72
    },
    {
      "midi": 92,
      "hit": false,
      "t": 13762.366833333332,
      "d": 84.15835833333404,
      "v": 53
    },
    {
      "midi": 53,
      "hit": false,
      "t": 13856.426174999999,
      "d": 193.06917500000054,
      "v": 64
    },
    {
      "midi": 56,
      "hit": false,
      "t": 13861.376666666665,
      "d": 193.06917500000054,
      "v": 72
    },
    {
      "midi": 96,
      "hit": false,
      "t": 13861.376666666665,
      "d": 113.861308333333,
      "v": 68
    },
    {
      "midi": 94,
      "hit": false,
      "t": 13960.386499999999,
      "d": 64.35639166666624,
      "v": 50
    },
    {
      "midi": 49,
      "hit": false,
      "t": 14054.445841666666,
      "d": 193.06917500000054,
      "v": 71
    },
    {
      "midi": 58,
      "hit": false,
      "t": 14059.396333333332,
      "d": 193.06917500000054,
      "v": 80
    },
    {
      "midi": 96,
      "hit": false,
      "t": 14158.406166666666,
      "d": 113.861308333333,
      "v": 47
    },
    {
      "midi": 41,
      "hit": false,
      "t": 14252.465508333333,
      "d": 193.06917500000054,
      "v": 76
    },
    {
      "midi": 94,
      "hit": false,
      "t": 14257.415999999997,
      "d": 79.20786666666754,
      "v": 84
    },
    {
      "midi": 39,
      "hit": false,
      "t": 14257.416,
      "d": 193.06917500000054,
      "v": 76
    },
    {
      "midi": 63,
      "hit": false,
      "t": 14450.485175,
      "d": 193.06917500000054,
      "v": 68
    },
    {
      "midi": 46,
      "hit": false,
      "t": 14455.435666666666,
      "d": 193.06917500000054,
      "v": 76
    },
    {
      "midi": 94,
      "hit": false,
      "t": 14554.445499999998,
      "d": 79.20786666666754,
      "v": 58
    },
    {
      "midi": 58,
      "hit": false,
      "t": 14648.504841666667,
      "d": 193.06917500000054,
      "v": 76
    },
    {
      "midi": 51,
      "hit": false,
      "t": 14653.455333333333,
      "d": 193.06917500000054,
      "v": 88
    },
    {
      "midi": 55,
      "hit": false,
      "t": 14846.524508333334,
      "d": 193.06917500000054,
      "v": 62
    },
    {
      "midi": 94,
      "hit": false,
      "t": 14846.524508333334,
      "d": 74.25737499999923,
      "v": 61
    },
    {
      "midi": 55,
      "hit": false,
      "t": 14851.475,
      "d": 193.06917500000054,
      "v": 73
    },
    {
      "midi": 51,
      "hit": false,
      "t": 15044.544175,
      "d": 193.06917500000054,
      "v": 68
    },
    {
      "midi": 58,
      "hit": false,
      "t": 15049.494666666667,
      "d": 193.06917500000054,
      "v": 80
    },
    {
      "midi": 92,
      "hit": false,
      "t": 15242.563841666666,
      "d": 94.05934166666702,
      "v": 56
    },
    {
      "midi": 46,
      "hit": false,
      "t": 15242.563841666668,
      "d": 193.06917500000054,
      "v": 62
    },
    {
      "midi": 63,
      "hit": false,
      "t": 15247.514333333334,
      "d": 193.06917500000054,
      "v": 72
    },
    {
      "midi": 91,
      "hit": false,
      "t": 15440.583508333333,
      "d": 94.05934166666702,
      "v": 55
    },
    {
      "midi": 39,
      "hit": false,
      "t": 15440.583508333335,
      "d": 193.06917500000054,
      "v": 72
    },
    {
      "midi": 87,
      "hit": false,
      "t": 15445.533999999998,
      "d": 103.96032500000001,
      "v": 84
    },
    {
      "midi": 39,
      "hit": false,
      "t": 15445.534000000001,
      "d": 193.06917500000054,
      "v": 72
    },
    {
      "midi": 63,
      "hit": false,
      "t": 15638.603175000002,
      "d": 193.06917500000054,
      "v": 72
    },
    {
      "midi": 46,
      "hit": false,
      "t": 15643.553666666669,
      "d": 193.06917500000054,
      "v": 62
    },
    {
      "midi": 87,
      "hit": false,
      "t": 15742.563499999998,
      "d": 103.96032500000001,
      "v": 58
    },
    {
      "midi": 58,
      "hit": false,
      "t": 15836.622841666669,
      "d": 193.06917500000054,
      "v": 80
    },
    {
      "midi": 51,
      "hit": false,
      "t": 15841.573333333336,
      "d": 193.06917500000054,
      "v": 68
    },
    {
      "midi": 55,
      "hit": false,
      "t": 16034.642508333336,
      "d": 193.06917500000054,
      "v": 73
    },
    {
      "midi": 55,
      "hit": false,
      "t": 16039.593000000003,
      "d": 193.06917500000054,
      "v": 62
    },
    {
      "midi": 51,
      "hit": false,
      "t": 16232.662175000003,
      "d": 193.06917499999872,
      "v": 88
    },
    {
      "midi": 58,
      "hit": false,
      "t": 16237.61266666667,
      "d": 193.06917499999872,
      "v": 76
    },
    {
      "midi": 46,
      "hit": false,
      "t": 16430.68184166667,
      "d": 193.06917500000054,
      "v": 76
    },
    {
      "midi": 63,
      "hit": false,
      "t": 16435.632333333335,
      "d": 193.06917500000054,
      "v": 68
    },
    {
      "midi": 39,
      "hit": false,
      "t": 16628.701508333335,
      "d": 193.06917500000054,
      "v": 76
    },
    {
      "midi": 92,
      "hit": false,
      "t": 16633.652,
      "d": 99.00983333333352,
      "v": 80
    },
    {
      "midi": 41,
      "hit": false,
      "t": 16633.652000000002,
      "d": 193.06917500000054,
      "v": 76
    },
    {
      "midi": 58,
      "hit": false,
      "t": 16826.721175000002,
      "d": 193.06917500000054,
      "v": 80
    },
    {
      "midi": 49,
      "hit": false,
      "t": 16831.67166666667,
      "d": 193.06917500000054,
      "v": 71
    },
    {
      "midi": 92,
      "hit": false,
      "t": 16930.6815,
      "d": 99.00983333333352,
      "v": 56
    },
    {
      "midi": 56,
      "hit": false,
      "t": 17024.74084166667,
      "d": 193.06917500000054,
      "v": 72
    },
    {
      "midi": 53,
      "hit": false,
      "t": 17029.691333333336,
      "d": 193.06917500000054,
      "v": 64
    },
    {
      "midi": 92,
      "hit": false,
      "t": 17222.760508333333,
      "d": 74.25737500000105,
      "v": 65
    },
    {
      "midi": 55,
      "hit": false,
      "t": 17222.760508333336,
      "d": 193.06917500000054,
      "v": 63
    },
    {
      "midi": 55,
      "hit": false,
      "t": 17227.711000000003,
      "d": 193.06917500000054,
      "v": 62
    },
    {
      "midi": 53,
      "hit": false,
      "t": 17420.780175000004,
      "d": 193.06917500000054,
      "v": 72
    },
    {
      "midi": 56,
      "hit": false,
      "t": 17425.73066666667,
      "d": 193.06917500000054,
      "v": 76
    },
    {
      "midi": 49,
      "hit": false,
      "t": 17618.79984166667,
      "d": 193.06917500000054,
      "v": 72
    },
    {
      "midi": 58,
      "hit": false,
      "t": 17623.750333333337,
      "d": 193.06917500000054,
      "v": 72
    },
    {
      "midi": 41,
      "hit": false,
      "t": 17816.819508333338,
      "d": 193.06917500000054,
      "v": 79
    },
    {
      "midi": 41,
      "hit": false,
      "t": 17821.770000000004,
      "d": 193.06917500000054,
      "v": 79
    },
    {
      "midi": 58,
      "hit": false,
      "t": 18014.839175000005,
      "d": 193.06917500000054,
      "v": 72
    },
    {
      "midi": 49,
      "hit": false,
      "t": 18019.78966666667,
      "d": 193.06917500000054,
      "v": 72
    },
    {
      "midi": 56,
      "hit": false,
      "t": 18212.85884166667,
      "d": 193.06917500000054,
      "v": 76
    },
    {
      "midi": 53,
      "hit": false,
      "t": 18217.809333333338,
      "d": 193.06917500000054,
      "v": 72
    },
    {
      "midi": 87,
      "hit": false,
      "t": 18410.878508333335,
      "d": 89.10885000000053,
      "v": 56
    },
    {
      "midi": 55,
      "hit": false,
      "t": 18410.87850833334,
      "d": 193.06917500000054,
      "v": 62
    },
    {
      "midi": 55,
      "hit": false,
      "t": 18415.829000000005,
      "d": 193.06917500000054,
      "v": 63
    },
    {
      "midi": 53,
      "hit": false,
      "t": 18608.898175000006,
      "d": 193.06917500000054,
      "v": 64
    },
    {
      "midi": 91,
      "hit": false,
      "t": 18613.848666666665,
      "d": 108.9108166666665,
      "v": 84
    },
    {
      "midi": 56,
      "hit": false,
      "t": 18613.848666666672,
      "d": 193.06917500000054,
      "v": 72
    },
    {
      "midi": 49,
      "hit": false,
      "t": 18806.917841666673,
      "d": 193.06917500000054,
      "v": 71
    },
    {
      "midi": 89,
      "hit": false,
      "t": 18811.868333333332,
      "d": 89.10885000000053,
      "v": 79
    },
    {
      "midi": 58,
      "hit": false,
      "t": 18811.86833333334,
      "d": 193.06917500000054,
      "v": 80
    },
    {
      "midi": 91,
      "hit": false,
      "t": 18910.878166666665,
      "d": 108.9108166666665,
      "v": 58
    },
    {
      "midi": 41,
      "hit": false,
      "t": 19004.93750833334,
      "d": 193.06917500000054,
      "v": 76
    },
    {
      "midi": 87,
      "hit": false,
      "t": 19009.888,
      "d": 79.20786666666754,
      "v": 80
    },
    {
      "midi": 39,
      "hit": false,
      "t": 19009.888000000006,
      "d": 193.06917500000054,
      "v": 76
    },
    {
      "midi": 91,
      "hit": false,
      "t": 19108.897833333333,
      "d": 89.10885000000053,
      "v": 55
    },
    {
      "midi": 63,
      "hit": false,
      "t": 19202.957175000007,
      "d": 193.06917500000054,
      "v": 68
    },
    {
      "midi": 46,
      "hit": false,
      "t": 19207.907666666673,
      "d": 193.06917500000054,
      "v": 76
    },
    {
      "midi": 87,
      "hit": false,
      "t": 19306.9175,
      "d": 79.20786666666754,
      "v": 56
    },
    {
      "midi": 58,
      "hit": false,
      "t": 19400.976841666674,
      "d": 193.06917500000054,
      "v": 76
    },
    {
      "midi": 51,
      "hit": false,
      "t": 19405.92733333334,
      "d": 193.06917500000054,
      "v": 88
    },
    {
      "midi": 55,
      "hit": false,
      "t": 19598.99650833334,
      "d": 193.06917500000054,
      "v": 62
    },
    {
      "midi": 55,
      "hit": false,
      "t": 19603.947000000007,
      "d": 193.06917500000054,
      "v": 73
    },
    {
      "midi": 51,
      "hit": false,
      "t": 19797.016175000008,
      "d": 193.06917500000054,
      "v": 68
    },
    {
      "midi": 58,
      "hit": false,
      "t": 19801.966666666674,
      "d": 193.06917500000054,
      "v": 80
    },
    {
      "midi": 46,
      "hit": false,
      "t": 19995.035841666675,
      "d": 193.06917500000054,
      "v": 62
    },
    {
      "midi": 63,
      "hit": false,
      "t": 19999.98633333334,
      "d": 193.06917500000054,
      "v": 72
    },
    {
      "midi": 39,
      "hit": false,
      "t": 20193.055508333342,
      "d": 193.06917500000054,
      "v": 72
    },
    {
      "midi": 39,
      "hit": false,
      "t": 20198.00600000001,
      "d": 193.06917500000054,
      "v": 72
    },
    {
      "midi": 63,
      "hit": false,
      "t": 20391.07517500001,
      "d": 193.06917500000054,
      "v": 72
    },
    {
      "midi": 46,
      "hit": false,
      "t": 20396.025666666676,
      "d": 193.06917500000054,
      "v": 62
    },
    {
      "midi": 58,
      "hit": false,
      "t": 20589.094841666676,
      "d": 193.06917500000054,
      "v": 80
    },
    {
      "midi": 51,
      "hit": false,
      "t": 20594.045333333343,
      "d": 193.06917500000054,
      "v": 68
    },
    {
      "midi": 55,
      "hit": false,
      "t": 20787.114508333343,
      "d": 193.06917500000054,
      "v": 73
    },
    {
      "midi": 55,
      "hit": false,
      "t": 20792.06500000001,
      "d": 193.06917500000054,
      "v": 62
    },
    {
      "midi": 51,
      "hit": false,
      "t": 20985.13417500001,
      "d": 193.06917500000054,
      "v": 88
    },
    {
      "midi": 58,
      "hit": false,
      "t": 20990.084666666677,
      "d": 193.06917500000054,
      "v": 76
    },
    {
      "midi": 46,
      "hit": false,
      "t": 21183.153841666677,
      "d": 193.06917500000054,
      "v": 76
    },
    {
      "midi": 63,
      "hit": false,
      "t": 21188.104333333344,
      "d": 193.06917500000054,
      "v": 68
    },
    {
      "midi": 39,
      "hit": false,
      "t": 21381.173508333344,
      "d": 193.06917500000054,
      "v": 76
    },
    {
      "midi": 70,
      "hit": false,
      "t": 21386.124,
      "d": 1480.1970083333326,
      "v": 94
    },
    {
      "midi": 70,
      "hit": false,
      "t": 21386.124,
      "d": 1103.9596416666282,
      "v": 50
    },
    {
      "midi": 58,
      "hit": false,
      "t": 21386.124,
      "d": 1103.9596416666282,
      "v": 94
    },
    {
      "midi": 41,
      "hit": false,
      "t": 21386.12400000001,
      "d": 193.06917500000054,
      "v": 76
    },
    {
      "midi": 58,
      "hit": false,
      "t": 21579.19317500001,
      "d": 193.06917500000054,
      "v": 80
    },
    {
      "midi": 49,
      "hit": false,
      "t": 21584.143666666678,
      "d": 193.06917500000054,
      "v": 71
    },
    {
      "midi": 94,
      "hit": false,
      "t": 21777.212841666667,
      "d": 108.9108166666665,
      "v": 72
    },
    {
      "midi": 56,
      "hit": false,
      "t": 21777.21284166668,
      "d": 193.06917500000054,
      "v": 72
    },
    {
      "midi": 53,
      "hit": false,
      "t": 21782.163333333345,
      "d": 193.06917500000054,
      "v": 64
    },
    {
      "midi": 92,
      "hit": false,
      "t": 21975.232508333334,
      "d": 74.25737500000105,
      "v": 72
    },
    {
      "midi": 55,
      "hit": false,
      "t": 21975.232508333345,
      "d": 193.06917500000054,
      "v": 63
    },
    {
      "midi": 55,
      "hit": false,
      "t": 21980.18300000001,
      "d": 193.06917500000054,
      "v": 62
    },
    {
      "midi": 94,
      "hit": false,
      "t": 22173.252175,
      "d": 69.30688333333455,
      "v": 71
    },
    {
      "midi": 53,
      "hit": false,
      "t": 22173.252175000012,
      "d": 193.06917500000054,
      "v": 72
    },
    {
      "midi": 56,
      "hit": false,
      "t": 22178.20266666668,
      "d": 193.06917500000054,
      "v": 76
    },
    {
      "midi": 96,
      "hit": false,
      "t": 22371.27184166667,
      "d": 103.96032500000001,
      "v": 71
    },
    {
      "midi": 49,
      "hit": false,
      "t": 22371.27184166668,
      "d": 193.06917500000054,
      "v": 72
    },
    {
      "midi": 58,
      "hit": false,
      "t": 22376.222333333346,
      "d": 193.06917500000054,
      "v": 72
    },
    {
      "midi": 94,
      "hit": false,
      "t": 22569.291508333336,
      "d": 376.2373666666681,
      "v": 80
    },
    {
      "midi": 41,
      "hit": false,
      "t": 22569.291508333346,
      "d": 193.06917500000054,
      "v": 79
    },
    {
      "midi": 51,
      "hit": false,
      "t": 22574.24199999996,
      "d": 1212.870458333291,
      "v": 104
    },
    {
      "midi": 63,
      "hit": false,
      "t": 22574.24199999996,
      "d": 1212.870458333291,
      "v": 60
    },
    {
      "midi": 41,
      "hit": false,
      "t": 22574.242000000013,
      "d": 193.06917500000054,
      "v": 79
    },
    {
      "midi": 58,
      "hit": false,
      "t": 22767.311175000013,
      "d": 193.06917500000054,
      "v": 72
    },
    {
      "midi": 49,
      "hit": false,
      "t": 22772.26166666668,
      "d": 193.06917500000054,
      "v": 72
    },
    {
      "midi": 87,
      "hit": false,
      "t": 22965.33084166667,
      "d": 653.464899999999,
      "v": 84
    },
    {
      "midi": 56,
      "hit": false,
      "t": 22965.33084166668,
      "d": 193.06917500000054,
      "v": 76
    },
    {
      "midi": 68,
      "hit": false,
      "t": 22970.281333333332,
      "d": 108.9108166666665,
      "v": 68
    },
    {
      "midi": 53,
      "hit": false,
      "t": 22970.281333333347,
      "d": 193.06917500000054,
      "v": 72
    },
    {
      "midi": 55,
      "hit": false,
      "t": 23163.350508333348,
      "d": 193.06917500000054,
      "v": 62
    },
    {
      "midi": 70,
      "hit": false,
      "t": 23168.301,
      "d": 103.96032500000001,
      "v": 72
    },
    {
      "midi": 55,
      "hit": false,
      "t": 23168.301000000014,
      "d": 193.06917500000054,
      "v": 63
    },
    {
      "midi": 53,
      "hit": false,
      "t": 23361.370175000015,
      "d": 193.06917500000054,
      "v": 64
    },
    {
      "midi": 72,
      "hit": false,
      "t": 23366.320666666667,
      "d": 376.2373666666681,
      "v": 78
    },
    {
      "midi": 56,
      "hit": false,
      "t": 23366.32066666668,
      "d": 193.06917500000054,
      "v": 72
    },
    {
      "midi": 49,
      "hit": false,
      "t": 23559.38984166668,
      "d": 193.06917500000054,
      "v": 71
    },
    {
      "midi": 58,
      "hit": false,
      "t": 23564.340333333348,
      "d": 193.06917500000054,
      "v": 80
    },
    {
      "midi": 41,
      "hit": false,
      "t": 23757.40950833335,
      "d": 193.06917500000054,
      "v": 76
    },
    {
      "midi": 55,
      "hit": false,
      "t": 23762.359999999917,
      "d": 1242.57340833329,
      "v": 88
    },
    {
      "midi": 67,
      "hit": false,
      "t": 23762.359999999917,
      "d": 1242.57340833329,
      "v": 44
    },
    {
      "midi": 70,
      "hit": false,
      "t": 23762.36,
      "d": 1153.4645583333331,
      "v": 80
    },
    {
      "midi": 39,
      "hit": false,
      "t": 23762.360000000015,
      "d": 193.06917500000054,
      "v": 76
    },
    {
      "midi": 63,
      "hit": false,
      "t": 23955.429175000016,
      "d": 193.06917500000054,
      "v": 68
    },
    {
      "midi": 46,
      "hit": false,
      "t": 23960.379666666682,
      "d": 193.06917500000054,
      "v": 76
    },
    {
      "midi": 94,
      "hit": false,
      "t": 24153.448841666668,
      "d": 103.96032500000001,
      "v": 71
    },
    {
      "midi": 58,
      "hit": false,
      "t": 24153.448841666683,
      "d": 193.06917500000054,
      "v": 76
    },
    {
      "midi": 51,
      "hit": false,
      "t": 24158.39933333335,
      "d": 193.06917500000054,
      "v": 88
    },
    {
      "midi": 92,
      "hit": false,
      "t": 24351.468508333335,
      "d": 84.15835833333404,
      "v": 68
    },
    {
      "midi": 55,
      "hit": false,
      "t": 24351.46850833335,
      "d": 193.06917500000054,
      "v": 62
    },
    {
      "midi": 55,
      "hit": false,
      "t": 24356.419000000016,
      "d": 193.06917500000054,
      "v": 73
    },
    {
      "midi": 91,
      "hit": false,
      "t": 24549.488175000002,
      "d": 108.9108166666665,
      "v": 64
    },
    {
      "midi": 51,
      "hit": false,
      "t": 24549.488175000017,
      "d": 193.06917500000054,
      "v": 68
    },
    {
      "midi": 58,
      "hit": false,
      "t": 24554.438666666683,
      "d": 193.06917500000054,
      "v": 80
    },
    {
      "midi": 92,
      "hit": false,
      "t": 24747.50784166667,
      "d": 99.00983333333352,
      "v": 76
    },
    {
      "midi": 46,
      "hit": false,
      "t": 24747.507841666684,
      "d": 193.06917500000054,
      "v": 62
    },
    {
      "midi": 63,
      "hit": false,
      "t": 24752.45833333335,
      "d": 193.06917500000054,
      "v": 72
    },
    {
      "midi": 91,
      "hit": false,
      "t": 24945.527508333336,
      "d": 386.1383500000011,
      "v": 72
    },
    {
      "midi": 39,
      "hit": false,
      "t": 24945.52750833335,
      "d": 193.06917500000054,
      "v": 72
    },
    {
      "midi": 51,
      "hit": false,
      "t": 24950.477999999875,
      "d": 1193.068491666625,
      "v": 94
    },
    {
      "midi": 63,
      "hit": false,
      "t": 24950.477999999875,
      "d": 1193.068491666625,
      "v": 50
    },
    {
      "midi": 63,
      "hit": false,
      "t": 24950.478,
      "d": 1168.3160333333326,
      "v": 84
    },
    {
      "midi": 39,
      "hit": false,
      "t": 24950.478000000017,
      "d": 193.06917500000054,
      "v": 72
    },
    {
      "midi": 63,
      "hit": false,
      "t": 25143.547175000018,
      "d": 193.06917500000054,
      "v": 72
    },
    {
      "midi": 46,
      "hit": false,
      "t": 25148.497666666684,
      "d": 193.06917500000054,
      "v": 62
    },
    {
      "midi": 87,
      "hit": false,
      "t": 25341.56684166667,
      "d": 415.84130000000005,
      "v": 71
    },
    {
      "midi": 58,
      "hit": false,
      "t": 25341.566841666685,
      "d": 193.06917500000054,
      "v": 80
    },
    {
      "midi": 51,
      "hit": false,
      "t": 25346.51733333335,
      "d": 193.06917500000054,
      "v": 68
    },
    {
      "midi": 55,
      "hit": false,
      "t": 25539.586508333352,
      "d": 193.06917500000054,
      "v": 73
    },
    {
      "midi": 55,
      "hit": false,
      "t": 25544.53700000002,
      "d": 193.06917500000054,
      "v": 62
    },
    {
      "midi": 51,
      "hit": false,
      "t": 25737.60617500002,
      "d": 193.06917500000054,
      "v": 88
    },
    {
      "midi": 58,
      "hit": false,
      "t": 25742.556666666685,
      "d": 193.06917500000054,
      "v": 76
    },
    {
      "midi": 46,
      "hit": false,
      "t": 25935.625841666686,
      "d": 193.06917500000054,
      "v": 76
    },
    {
      "midi": 63,
      "hit": false,
      "t": 25940.576333333353,
      "d": 193.06917500000054,
      "v": 68
    },
    {
      "midi": 39,
      "hit": false,
      "t": 26133.645508333353,
      "d": 193.06917500000054,
      "v": 76
    },
    {
      "midi": 68,
      "hit": false,
      "t": 26138.595999999834,
      "d": 1188.1179999999586,
      "v": 46
    },
    {
      "midi": 56,
      "hit": false,
      "t": 26138.595999999834,
      "d": 1188.1179999999586,
      "v": 90
    },
    {
      "midi": 68,
      "hit": false,
      "t": 26138.595999999998,
      "d": 1499.9989749999986,
      "v": 94
    },
    {
      "midi": 41,
      "hit": false,
      "t": 26138.59600000002,
      "d": 193.06917500000054,
      "v": 76
    },
    {
      "midi": 58,
      "hit": false,
      "t": 26331.66517500002,
      "d": 193.06917500000054,
      "v": 80
    },
    {
      "midi": 49,
      "hit": false,
      "t": 26336.615666666687,
      "d": 193.06917500000054,
      "v": 71
    },
    {
      "midi": 56,
      "hit": false,
      "t": 26529.684841666687,
      "d": 193.06917500000054,
      "v": 72
    },
    {
      "midi": 53,
      "hit": false,
      "t": 26534.635333333354,
      "d": 193.06917500000054,
      "v": 64
    },
    {
      "midi": 92,
      "hit": false,
      "t": 26539.585825000002,
      "d": 89.10885000000053,
      "v": 84
    },
    {
      "midi": 55,
      "hit": false,
      "t": 26727.704508333354,
      "d": 193.06917500000054,
      "v": 63
    },
    {
      "midi": 55,
      "hit": false,
      "t": 26732.65500000002,
      "d": 193.06917500000054,
      "v": 62
    },
    {
      "midi": 91,
      "hit": false,
      "t": 26737.60549166667,
      "d": 103.96032500000001,
      "v": 72
    },
    {
      "midi": 53,
      "hit": false,
      "t": 26925.72417500002,
      "d": 193.06917500000054,
      "v": 72
    },
    {
      "midi": 56,
      "hit": false,
      "t": 26930.674666666688,
      "d": 193.06917500000054,
      "v": 76
    },
    {
      "midi": 89,
      "hit": false,
      "t": 26935.625158333336,
      "d": 69.30688333333455,
      "v": 72
    },
    {
      "midi": 49,
      "hit": false,
      "t": 27123.74384166669,
      "d": 193.06917500000054,
      "v": 72
    },
    {
      "midi": 91,
      "hit": false,
      "t": 27128.694333333337,
      "d": 99.00983333333352,
      "v": 76
    },
    {
      "midi": 58,
      "hit": false,
      "t": 27128.694333333355,
      "d": 193.06917500000054,
      "v": 72
    },
    {
      "midi": 41,
      "hit": false,
      "t": 27321.763508333355,
      "d": 193.06917500000054,
      "v": 79
    },
    {
      "midi": 53,
      "hit": false,
      "t": 27326.713999999793,
      "d": 1232.672424999957,
      "v": 104
    },
    {
      "midi": 65,
      "hit": false,
      "t": 27326.713999999793,
      "d": 1232.672424999957,
      "v": 60
    },
    {
      "midi": 41,
      "hit": false,
      "t": 27326.71400000002,
      "d": 193.06917500000054,
      "v": 79
    },
    {
      "midi": 89,
      "hit": false,
      "t": 27331.66449166667,
      "d": 811.8806333333341,
      "v": 80
    },
    {
      "midi": 58,
      "hit": false,
      "t": 27519.783175000022,
      "d": 193.06917500000054,
      "v": 72
    },
    {
      "midi": 49,
      "hit": false,
      "t": 27524.73366666669,
      "d": 193.06917500000054,
      "v": 72
    },
    {
      "midi": 56,
      "hit": false,
      "t": 27717.80284166669,
      "d": 193.06917500000054,
      "v": 76
    },
    {
      "midi": 65,
      "hit": false,
      "t": 27722.75333333333,
      "d": 113.861308333333,
      "v": 88
    },
    {
      "midi": 53,
      "hit": false,
      "t": 27722.753333333356,
      "d": 193.06917500000054,
      "v": 72
    },
    {
      "midi": 55,
      "hit": false,
      "t": 27915.822508333356,
      "d": 193.06917500000054,
      "v": 62
    },
    {
      "midi": 67,
      "hit": false,
      "t": 27920.772999999997,
      "d": 94.05934166666702,
      "v": 80
    },
    {
      "midi": 55,
      "hit": false,
      "t": 27920.773000000023,
      "d": 193.06917500000054,
      "v": 63
    },
    {
      "midi": 53,
      "hit": false,
      "t": 28113.842175000023,
      "d": 193.06917500000054,
      "v": 64
    },
    {
      "midi": 68,
      "hit": false,
      "t": 28118.792666666664,
      "d": 297.02950000000055,
      "v": 88
    },
    {
      "midi": 56,
      "hit": false,
      "t": 28118.79266666669,
      "d": 193.06917500000054,
      "v": 72
    },
    {
      "midi": 49,
      "hit": false,
      "t": 28311.86184166669,
      "d": 193.06917500000054,
      "v": 71
    },
    {
      "midi": 58,
      "hit": false,
      "t": 28316.812333333357,
      "d": 193.06917500000054,
      "v": 80
    },
    {
      "midi": 41,
      "hit": false,
      "t": 28509.881508333357,
      "d": 193.06917500000054,
      "v": 76
    },
    {
      "midi": 51,
      "hit": false,
      "t": 28514.83199999975,
      "d": 2405.938949999916,
      "v": 104
    },
    {
      "midi": 63,
      "hit": false,
      "t": 28514.83199999975,
      "d": 2405.938949999916,
      "v": 60
    },
    {
      "midi": 70,
      "hit": false,
      "t": 28514.832,
      "d": 2128.711416666665,
      "v": 88
    },
    {
      "midi": 39,
      "hit": false,
      "t": 28514.832000000024,
      "d": 193.06917500000054,
      "v": 76
    },
    {
      "midi": 63,
      "hit": false,
      "t": 28707.901175000025,
      "d": 193.06917500000054,
      "v": 68
    },
    {
      "midi": 46,
      "hit": false,
      "t": 28712.85166666669,
      "d": 193.06917500000054,
      "v": 76
    },
    {
      "midi": 58,
      "hit": false,
      "t": 28905.92084166669,
      "d": 193.06917500000054,
      "v": 76
    },
    {
      "midi": 51,
      "hit": false,
      "t": 28910.871333333358,
      "d": 193.06917500000054,
      "v": 88
    },
    {
      "midi": 92,
      "hit": false,
      "t": 28915.821825000003,
      "d": 89.10885000000053,
      "v": 80
    },
    {
      "midi": 91,
      "hit": false,
      "t": 29103.940508333337,
      "d": 103.96032500000001,
      "v": 76
    },
    {
      "midi": 55,
      "hit": false,
      "t": 29103.94050833336,
      "d": 193.06917500000054,
      "v": 62
    },
    {
      "midi": 55,
      "hit": false,
      "t": 29108.891000000025,
      "d": 193.06917500000054,
      "v": 73
    },
    {
      "midi": 89,
      "hit": false,
      "t": 29301.960175000004,
      "d": 94.05934166666702,
      "v": 76
    },
    {
      "midi": 51,
      "hit": false,
      "t": 29301.960175000026,
      "d": 193.06917500000054,
      "v": 68
    },
    {
      "midi": 58,
      "hit": false,
      "t": 29306.910666666692,
      "d": 193.06917500000054,
      "v": 80
    },
    {
      "midi": 91,
      "hit": false,
      "t": 29499.97984166667,
      "d": 118.8117999999995,
      "v": 80
    },
    {
      "midi": 46,
      "hit": false,
      "t": 29499.979841666693,
      "d": 193.06917500000054,
      "v": 62
    },
    {
      "midi": 63,
      "hit": false,
      "t": 29504.93033333336,
      "d": 193.06917500000054,
      "v": 72
    },
    {
      "midi": 39,
      "hit": false,
      "t": 29697.99950833336,
      "d": 193.06917500000054,
      "v": 72
    },
    {
      "midi": 39,
      "hit": false,
      "t": 29702.950000000026,
      "d": 193.06917500000054,
      "v": 72
    },
    {
      "midi": 87,
      "hit": false,
      "t": 29707.90049166667,
      "d": 960.3953833333326,
      "v": 76
    },
    {
      "midi": 63,
      "hit": false,
      "t": 29896.019175000027,
      "d": 193.06917500000054,
      "v": 72
    },
    {
      "midi": 46,
      "hit": false,
      "t": 29900.969666666693,
      "d": 193.06917500000054,
      "v": 62
    },
    {
      "midi": 58,
      "hit": false,
      "t": 30094.038841666694,
      "d": 193.06917500000054,
      "v": 80
    },
    {
      "midi": 51,
      "hit": false,
      "t": 30098.98933333336,
      "d": 193.06917500000054,
      "v": 68
    },
    {
      "midi": 55,
      "hit": false,
      "t": 30292.05850833336,
      "d": 193.06917500000054,
      "v": 73
    },
    {
      "midi": 55,
      "hit": false,
      "t": 30297.009000000027,
      "d": 193.06917500000054,
      "v": 62
    },
    {
      "midi": 51,
      "hit": false,
      "t": 30490.078175000028,
      "d": 193.06917500000054,
      "v": 88
    },
    {
      "midi": 58,
      "hit": false,
      "t": 30495.028666666694,
      "d": 193.06917500000054,
      "v": 76
    },
    {
      "midi": 46,
      "hit": false,
      "t": 30688.097841666695,
      "d": 193.06917500000054,
      "v": 76
    },
    {
      "midi": 63,
      "hit": false,
      "t": 30693.04833333336,
      "d": 193.06917500000054,
      "v": 68
    },
    {
      "midi": 39,
      "hit": false,
      "t": 30886.117508333362,
      "d": 193.06917500000054,
      "v": 76
    },
    {
      "midi": 70,
      "hit": false,
      "t": 30891.06799999967,
      "d": 1217.8209499999575,
      "v": 60
    },
    {
      "midi": 58,
      "hit": false,
      "t": 30891.06799999967,
      "d": 1217.8209499999575,
      "v": 104
    },
    {
      "midi": 70,
      "hit": false,
      "t": 30891.067999999996,
      "d": 1480.1970083333326,
      "v": 94
    },
    {
      "midi": 41,
      "hit": false,
      "t": 30891.06800000003,
      "d": 193.06917500000054,
      "v": 76
    },
    {
      "midi": 58,
      "hit": false,
      "t": 31084.13717500003,
      "d": 193.06917500000054,
      "v": 80
    },
    {
      "midi": 49,
      "hit": false,
      "t": 31089.087666666695,
      "d": 193.06917500000054,
      "v": 71
    },
    {
      "midi": 94,
      "hit": false,
      "t": 31282.15684166667,
      "d": 108.9108166666665,
      "v": 72
    },
    {
      "midi": 56,
      "hit": false,
      "t": 31282.156841666696,
      "d": 193.06917500000054,
      "v": 72
    },
    {
      "midi": 53,
      "hit": false,
      "t": 31287.107333333362,
      "d": 193.06917500000054,
      "v": 64
    },
    {
      "midi": 92,
      "hit": false,
      "t": 31480.176508333338,
      "d": 74.25737500000105,
      "v": 72
    },
    {
      "midi": 55,
      "hit": false,
      "t": 31480.176508333363,
      "d": 193.06917500000054,
      "v": 63
    },
    {
      "midi": 55,
      "hit": false,
      "t": 31485.12700000003,
      "d": 193.06917500000054,
      "v": 62
    },
    {
      "midi": 94,
      "hit": false,
      "t": 31678.196175000005,
      "d": 69.30688333333455,
      "v": 71
    },
    {
      "midi": 53,
      "hit": false,
      "t": 31678.19617500003,
      "d": 193.06917500000054,
      "v": 72
    },
    {
      "midi": 56,
      "hit": false,
      "t": 31683.146666666697,
      "d": 193.06917500000054,
      "v": 76
    },
    {
      "midi": 96,
      "hit": false,
      "t": 31876.21584166667,
      "d": 103.96032500000001,
      "v": 71
    },
    {
      "midi": 49,
      "hit": false,
      "t": 31876.215841666697,
      "d": 193.06917500000054,
      "v": 72
    },
    {
      "midi": 58,
      "hit": false,
      "t": 31881.166333333364,
      "d": 193.06917500000054,
      "v": 72
    },
    {
      "midi": 94,
      "hit": false,
      "t": 32074.23550833334,
      "d": 376.2373666666681,
      "v": 80
    },
    {
      "midi": 41,
      "hit": false,
      "t": 32074.235508333364,
      "d": 193.06917500000054,
      "v": 79
    },
    {
      "midi": 51,
      "hit": false,
      "t": 32079.185999999627,
      "d": 1163.365541666648,
      "v": 104
    },
    {
      "midi": 63,
      "hit": false,
      "t": 32079.185999999627,
      "d": 1163.365541666648,
      "v": 60
    },
    {
      "midi": 41,
      "hit": false,
      "t": 32079.18600000003,
      "d": 193.06917500000054,
      "v": 79
    },
    {
      "midi": 58,
      "hit": false,
      "t": 32272.25517500003,
      "d": 193.06917500000054,
      "v": 72
    },
    {
      "midi": 49,
      "hit": false,
      "t": 32277.205666666698,
      "d": 193.06917500000054,
      "v": 72
    },
    {
      "midi": 87,
      "hit": false,
      "t": 32470.274841666673,
      "d": 653.464899999999,
      "v": 84
    },
    {
      "midi": 56,
      "hit": false,
      "t": 32470.2748416667,
      "d": 193.06917500000054,
      "v": 76
    },
    {
      "midi": 68,
      "hit": false,
      "t": 32475.22533333333,
      "d": 108.9108166666665,
      "v": 68
    },
    {
      "midi": 53,
      "hit": false,
      "t": 32475.225333333365,
      "d": 193.06917500000054,
      "v": 72
    },
    {
      "midi": 55,
      "hit": false,
      "t": 32668.294508333365,
      "d": 193.06917500000054,
      "v": 62
    },
    {
      "midi": 70,
      "hit": false,
      "t": 32673.244999999995,
      "d": 103.96032500000001,
      "v": 72
    },
    {
      "midi": 55,
      "hit": false,
      "t": 32673.24500000003,
      "d": 193.0691749999969,
      "v": 63
    },
    {
      "midi": 53,
      "hit": false,
      "t": 32866.314175000036,
      "d": 193.0691749999969,
      "v": 64
    },
    {
      "midi": 72,
      "hit": false,
      "t": 32871.26466666666,
      "d": 351.484908333332,
      "v": 78
    },
    {
      "midi": 56,
      "hit": false,
      "t": 32871.2646666667,
      "d": 193.0691749999969,
      "v": 72
    },
    {
      "midi": 49,
      "hit": false,
      "t": 33064.3338416667,
      "d": 193.0691749999969,
      "v": 71
    },
    {
      "midi": 58,
      "hit": false,
      "t": 33069.284333333366,
      "d": 193.0691749999969,
      "v": 80
    },
    {
      "midi": 41,
      "hit": false,
      "t": 33262.35350833337,
      "d": 193.0691749999969,
      "v": 76
    },
    {
      "midi": 55,
      "hit": false,
      "t": 33267.30399999961,
      "d": 1232.6724250000188,
      "v": 92
    },
    {
      "midi": 67,
      "hit": false,
      "t": 33267.30399999961,
      "d": 1232.6724250000188,
      "v": 48
    },
    {
      "midi": 70,
      "hit": false,
      "t": 33267.304,
      "d": 1153.4645583333331,
      "v": 80
    },
    {
      "midi": 39,
      "hit": false,
      "t": 33267.30400000003,
      "d": 193.0691749999969,
      "v": 76
    },
    {
      "midi": 63,
      "hit": false,
      "t": 33460.37317500004,
      "d": 193.0691749999969,
      "v": 68
    },
    {
      "midi": 46,
      "hit": false,
      "t": 33465.3236666667,
      "d": 193.0691749999969,
      "v": 76
    },
    {
      "midi": 94,
      "hit": false,
      "t": 33658.392841666675,
      "d": 103.96032500000001,
      "v": 71
    },
    {
      "midi": 58,
      "hit": false,
      "t": 33658.392841666704,
      "d": 193.0691749999969,
      "v": 76
    },
    {
      "midi": 51,
      "hit": false,
      "t": 33663.34333333337,
      "d": 193.0691749999969,
      "v": 88
    },
    {
      "midi": 92,
      "hit": false,
      "t": 33856.41250833334,
      "d": 84.15835833333404,
      "v": 68
    },
    {
      "midi": 55,
      "hit": false,
      "t": 33856.41250833337,
      "d": 193.0691749999969,
      "v": 62
    },
    {
      "midi": 55,
      "hit": false,
      "t": 33861.363000000034,
      "d": 193.0691749999969,
      "v": 73
    },
    {
      "midi": 91,
      "hit": false,
      "t": 34054.43217500001,
      "d": 108.91081666667014,
      "v": 64
    },
    {
      "midi": 51,
      "hit": false,
      "t": 34054.43217500004,
      "d": 193.0691749999969,
      "v": 68
    },
    {
      "midi": 58,
      "hit": false,
      "t": 34059.3826666667,
      "d": 193.0691749999969,
      "v": 80
    },
    {
      "midi": 92,
      "hit": false,
      "t": 34252.451841666676,
      "d": 99.00983333332988,
      "v": 76
    },
    {
      "midi": 46,
      "hit": false,
      "t": 34252.451841666705,
      "d": 193.0691749999969,
      "v": 62
    },
    {
      "midi": 63,
      "hit": false,
      "t": 34257.40233333337,
      "d": 193.0691749999969,
      "v": 72
    },
    {
      "midi": 91,
      "hit": false,
      "t": 34450.471508333336,
      "d": 386.1383500000011,
      "v": 72
    },
    {
      "midi": 39,
      "hit": false,
      "t": 34450.47150833337,
      "d": 193.0691749999969,
      "v": 72
    },
    {
      "midi": 51,
      "hit": false,
      "t": 34455.42199999963,
      "d": 1242.5734083333518,
      "v": 80
    },
    {
      "midi": 63,
      "hit": false,
      "t": 34455.42199999963,
      "d": 1242.5734083333518,
      "v": 36
    },
    {
      "midi": 63,
      "hit": false,
      "t": 34455.422,
      "d": 1168.3160333333362,
      "v": 84
    },
    {
      "midi": 39,
      "hit": false,
      "t": 34455.422000000035,
      "d": 193.0691749999969,
      "v": 72
    },
    {
      "midi": 63,
      "hit": false,
      "t": 34648.49117500004,
      "d": 193.0691749999969,
      "v": 72
    },
    {
      "midi": 46,
      "hit": false,
      "t": 34653.4416666667,
      "d": 193.0691749999969,
      "v": 62
    },
    {
      "midi": 87,
      "hit": false,
      "t": 34846.51084166668,
      "d": 415.84130000000005,
      "v": 71
    },
    {
      "midi": 58,
      "hit": false,
      "t": 34846.510841666706,
      "d": 193.0691749999969,
      "v": 80
    },
    {
      "midi": 51,
      "hit": false,
      "t": 34851.46133333337,
      "d": 193.0691749999969,
      "v": 68
    },
    {
      "midi": 55,
      "hit": false,
      "t": 35044.53050833337,
      "d": 193.0691749999969,
      "v": 73
    },
    {
      "midi": 55,
      "hit": false,
      "t": 35049.481000000036,
      "d": 193.0691749999969,
      "v": 62
    },
    {
      "midi": 51,
      "hit": false,
      "t": 35242.55017500004,
      "d": 193.0691749999969,
      "v": 88
    },
    {
      "midi": 58,
      "hit": false,
      "t": 35247.5006666667,
      "d": 193.0691749999969,
      "v": 76
    },
    {
      "midi": 46,
      "hit": false,
      "t": 35440.56984166671,
      "d": 193.0691749999969,
      "v": 76
    },
    {
      "midi": 63,
      "hit": false,
      "t": 35445.52033333337,
      "d": 193.0691749999969,
      "v": 68
    },
    {
      "midi": 39,
      "hit": false,
      "t": 35638.589508333374,
      "d": 193.0691749999969,
      "v": 76
    },
    {
      "midi": 56,
      "hit": false,
      "t": 35643.539999999644,
      "d": 1168.3160333333435,
      "v": 88
    },
    {
      "midi": 68,
      "hit": false,
      "t": 35643.539999999644,
      "d": 1168.3160333333435,
      "v": 44
    },
    {
      "midi": 68,
      "hit": false,
      "t": 35643.54,
      "d": 1881.1868333333332,
      "v": 92
    },
    {
      "midi": 41,
      "hit": false,
      "t": 35643.54000000004,
      "d": 193.0691749999969,
      "v": 76
    },
    {
      "midi": 58,
      "hit": false,
      "t": 35836.60917500004,
      "d": 193.0691749999969,
      "v": 80
    },
    {
      "midi": 49,
      "hit": false,
      "t": 35841.559666666704,
      "d": 193.0691749999969,
      "v": 71
    },
    {
      "midi": 56,
      "hit": false,
      "t": 36034.62884166671,
      "d": 193.0691749999969,
      "v": 72
    },
    {
      "midi": 53,
      "hit": false,
      "t": 36039.57933333337,
      "d": 193.0691749999969,
      "v": 64
    },
    {
      "midi": 92,
      "hit": false,
      "t": 36044.52982500001,
      "d": 89.10884999999689,
      "v": 84
    },
    {
      "midi": 55,
      "hit": false,
      "t": 36232.648508333376,
      "d": 193.0691749999969,
      "v": 63
    },
    {
      "midi": 55,
      "hit": false,
      "t": 36237.59900000004,
      "d": 193.0691749999969,
      "v": 62
    },
    {
      "midi": 91,
      "hit": false,
      "t": 36242.54949166668,
      "d": 103.96032500000001,
      "v": 72
    },
    {
      "midi": 53,
      "hit": false,
      "t": 36430.66817500004,
      "d": 193.0691749999969,
      "v": 72
    },
    {
      "midi": 56,
      "hit": false,
      "t": 36435.618666666705,
      "d": 193.0691749999969,
      "v": 76
    },
    {
      "midi": 89,
      "hit": false,
      "t": 36440.56915833335,
      "d": 69.30688333333092,
      "v": 72
    },
    {
      "midi": 49,
      "hit": false,
      "t": 36628.68784166671,
      "d": 193.0691749999969,
      "v": 72
    },
    {
      "midi": 91,
      "hit": false,
      "t": 36633.63833333334,
      "d": 99.00983333332988,
      "v": 76
    },
    {
      "midi": 58,
      "hit": false,
      "t": 36633.63833333337,
      "d": 193.0691749999969,
      "v": 72
    },
    {
      "midi": 41,
      "hit": false,
      "t": 36826.70750833338,
      "d": 193.0691749999969,
      "v": 79
    },
    {
      "midi": 53,
      "hit": false,
      "t": 36831.657999999654,
      "d": 1242.573408333359,
      "v": 104
    },
    {
      "midi": 65,
      "hit": false,
      "t": 36831.657999999654,
      "d": 1242.573408333359,
      "v": 60
    },
    {
      "midi": 41,
      "hit": false,
      "t": 36831.65800000004,
      "d": 193.0691749999969,
      "v": 79
    },
    {
      "midi": 89,
      "hit": false,
      "t": 36836.60849166667,
      "d": 811.8806333333341,
      "v": 80
    },
    {
      "midi": 58,
      "hit": false,
      "t": 37024.727175000044,
      "d": 193.0691749999969,
      "v": 72
    },
    {
      "midi": 49,
      "hit": false,
      "t": 37029.67766666671,
      "d": 193.0691749999969,
      "v": 72
    },
    {
      "midi": 56,
      "hit": false,
      "t": 37222.74684166671,
      "d": 193.0691749999969,
      "v": 76
    },
    {
      "midi": 53,
      "hit": false,
      "t": 37227.69733333337,
      "d": 193.0691749999969,
      "v": 72
    },
    {
      "midi": 55,
      "hit": false,
      "t": 37420.76650833338,
      "d": 193.0691749999969,
      "v": 62
    },
    {
      "midi": 55,
      "hit": false,
      "t": 37425.71700000004,
      "d": 193.0691749999969,
      "v": 63
    },
    {
      "midi": 53,
      "hit": false,
      "t": 37618.786175000045,
      "d": 193.0691749999969,
      "v": 64
    },
    {
      "midi": 67,
      "hit": false,
      "t": 37623.736666666664,
      "d": 123.76229166666599,
      "v": 84
    },
    {
      "midi": 56,
      "hit": false,
      "t": 37623.73666666671,
      "d": 193.0691749999969,
      "v": 72
    },
    {
      "midi": 49,
      "hit": false,
      "t": 37816.80584166671,
      "d": 193.0691749999969,
      "v": 71
    },
    {
      "midi": 65,
      "hit": false,
      "t": 37821.75633333333,
      "d": 123.76229166666599,
      "v": 96
    },
    {
      "midi": 58,
      "hit": false,
      "t": 37821.756333333375,
      "d": 193.0691749999969,
      "v": 80
    },
    {
      "midi": 41,
      "hit": false,
      "t": 38014.82550833338,
      "d": 193.0691749999969,
      "v": 76
    },
    {
      "midi": 51,
      "hit": false,
      "t": 38019.77599999967,
      "d": 2242.5727250000346,
      "v": 92
    },
    {
      "midi": 63,
      "hit": false,
      "t": 38019.77599999967,
      "d": 2242.5727250000346,
      "v": 48
    },
    {
      "midi": 63,
      "hit": false,
      "t": 38019.776,
      "d": 2118.810433333332,
      "v": 94
    },
    {
      "midi": 39,
      "hit": false,
      "t": 38019.77600000004,
      "d": 193.0691749999969,
      "v": 76
    },
    {
      "midi": 63,
      "hit": false,
      "t": 38212.845175000046,
      "d": 193.0691749999969,
      "v": 68
    },
    {
      "midi": 46,
      "hit": false,
      "t": 38217.79566666671,
      "d": 193.0691749999969,
      "v": 76
    },
    {
      "midi": 58,
      "hit": false,
      "t": 38410.86484166671,
      "d": 193.0691749999969,
      "v": 76
    },
    {
      "midi": 51,
      "hit": false,
      "t": 38415.815333333376,
      "d": 193.0691749999969,
      "v": 88
    },
    {
      "midi": 92,
      "hit": false,
      "t": 38420.76582500001,
      "d": 89.10884999999689,
      "v": 80
    },
    {
      "midi": 91,
      "hit": false,
      "t": 38608.884508333336,
      "d": 103.96032500000001,
      "v": 76
    },
    {
      "midi": 55,
      "hit": false,
      "t": 38608.88450833338,
      "d": 193.0691749999969,
      "v": 62
    },
    {
      "midi": 55,
      "hit": false,
      "t": 38613.83500000004,
      "d": 193.0691749999969,
      "v": 73
    },
    {
      "midi": 89,
      "hit": false,
      "t": 38806.904175,
      "d": 94.05934166666702,
      "v": 76
    },
    {
      "midi": 51,
      "hit": false,
      "t": 38806.90417500005,
      "d": 193.0691749999969,
      "v": 68
    },
    {
      "midi": 58,
      "hit": false,
      "t": 38811.85466666671,
      "d": 193.0691749999969,
      "v": 80
    },
    {
      "midi": 91,
      "hit": false,
      "t": 39004.92384166667,
      "d": 118.81180000000313,
      "v": 80
    },
    {
      "midi": 46,
      "hit": false,
      "t": 39004.923841666714,
      "d": 193.0691749999969,
      "v": 62
    },
    {
      "midi": 63,
      "hit": false,
      "t": 39009.87433333338,
      "d": 193.0691749999969,
      "v": 72
    },
    {
      "midi": 39,
      "hit": false,
      "t": 39202.94350833338,
      "d": 193.0691749999969,
      "v": 72
    },
    {
      "midi": 39,
      "hit": false,
      "t": 39207.894000000044,
      "d": 193.0691749999969,
      "v": 72
    },
    {
      "midi": 87,
      "hit": false,
      "t": 39212.84449166668,
      "d": 960.3953833333362,
      "v": 76
    },
    {
      "midi": 63,
      "hit": false,
      "t": 39400.96317500005,
      "d": 193.0691749999969,
      "v": 72
    },
    {
      "midi": 46,
      "hit": false,
      "t": 39405.91366666671,
      "d": 193.0691749999969,
      "v": 62
    },
    {
      "midi": 58,
      "hit": false,
      "t": 39598.982841666715,
      "d": 193.0691749999969,
      "v": 80
    },
    {
      "midi": 51,
      "hit": false,
      "t": 39603.93333333338,
      "d": 193.0691749999969,
      "v": 68
    },
    {
      "midi": 55,
      "hit": false,
      "t": 39797.00250833338,
      "d": 193.0691749999969,
      "v": 73
    },
    {
      "midi": 55,
      "hit": false,
      "t": 39801.953000000045,
      "d": 193.0691749999969,
      "v": 62
    },
    {
      "midi": 51,
      "hit": false,
      "t": 39995.02217500005,
      "d": 193.0691749999969,
      "v": 88
    },
    {
      "midi": 58,
      "hit": false,
      "t": 39999.97266666671,
      "d": 193.0691749999969,
      "v": 76
    },
    {
      "midi": 46,
      "hit": false,
      "t": 40193.041841666716,
      "d": 193.0691749999969,
      "v": 76
    },
    {
      "midi": 63,
      "hit": false,
      "t": 40197.99233333338,
      "d": 193.0691749999969,
      "v": 68
    },
    {
      "midi": 39,
      "hit": false,
      "t": 40391.06150833338,
      "d": 193.06917500000418,
      "v": 76
    },
    {
      "midi": 70,
      "hit": false,
      "t": 40396.012,
      "d": 767.326208333332,
      "v": 92
    },
    {
      "midi": 46,
      "hit": false,
      "t": 40396.012000000046,
      "d": 193.0691749999969,
      "v": 80
    },
    {
      "midi": 84,
      "hit": false,
      "t": 40396.01200000005,
      "d": 193.06917500000418,
      "v": 68
    },
    {
      "midi": 94,
      "hit": false,
      "t": 40400.96249166667,
      "d": 74.25737500000105,
      "v": 80
    },
    {
      "midi": 58,
      "hit": false,
      "t": 40594.03166666671,
      "d": 193.0691749999969,
      "v": 79
    },
    {
      "midi": 82,
      "hit": false,
      "t": 40594.03166666673,
      "d": 193.0691749999969,
      "v": 46
    },
    {
      "midi": 70,
      "hit": false,
      "t": 40772.24936666666,
      "d": 297.0294999999969,
      "v": 100
    },
    {
      "midi": 60,
      "hit": false,
      "t": 40792.05133333338,
      "d": 193.0691749999969,
      "v": 64
    },
    {
      "midi": 87,
      "hit": false,
      "t": 40792.051333333395,
      "d": 193.0691749999969,
      "v": 72
    },
    {
      "midi": 61,
      "hit": false,
      "t": 40990.07100000005,
      "d": 193.0691749999969,
      "v": 64
    },
    {
      "midi": 85,
      "hit": false,
      "t": 40990.07100000006,
      "d": 193.0691749999969,
      "v": 72
    },
    {
      "midi": 68,
      "hit": false,
      "t": 41188.09066666667,
      "d": 118.81180000000313,
      "v": 71
    },
    {
      "midi": 63,
      "hit": false,
      "t": 41188.090666666714,
      "d": 193.0691749999969,
      "v": 64
    },
    {
      "midi": 84,
      "hit": false,
      "t": 41188.09066666673,
      "d": 193.0691749999969,
      "v": 88
    },
    {
      "midi": 70,
      "hit": false,
      "t": 41386.11033333334,
      "d": 99.00983333332988,
      "v": 80
    },
    {
      "midi": 61,
      "hit": false,
      "t": 41386.11033333338,
      "d": 193.0691749999969,
      "v": 68
    },
    {
      "midi": 82,
      "hit": false,
      "t": 41386.110333333396,
      "d": 193.0691749999969,
      "v": 76
    },
    {
      "midi": 92,
      "hit": false,
      "t": 41579.17950833334,
      "d": 84.15835833333404,
      "v": 88
    },
    {
      "midi": 72,
      "hit": false,
      "t": 41584.13,
      "d": 722.77178333333,
      "v": 88
    },
    {
      "midi": 44,
      "hit": false,
      "t": 41584.13000000005,
      "d": 193.0691749999969,
      "v": 64
    },
    {
      "midi": 80,
      "hit": false,
      "t": 41584.13000000006,
      "d": 193.0691749999969,
      "v": 64
    },
    {
      "midi": 56,
      "hit": false,
      "t": 41782.149666666715,
      "d": 193.0691749999969,
      "v": 72
    },
    {
      "midi": 82,
      "hit": false,
      "t": 41782.14966666673,
      "d": 193.0691749999969,
      "v": 79
    },
    {
      "midi": 60,
      "hit": false,
      "t": 41980.16933333338,
      "d": 193.0691749999969,
      "v": 64
    },
    {
      "midi": 85,
      "hit": false,
      "t": 41980.1693333334,
      "d": 193.0691749999969,
      "v": 79
    },
    {
      "midi": 68,
      "hit": false,
      "t": 41985.119824999994,
      "d": 297.0294999999969,
      "v": 104
    },
    {
      "midi": 61,
      "hit": false,
      "t": 42178.18900000005,
      "d": 193.0691749999969,
      "v": 71
    },
    {
      "midi": 84,
      "hit": false,
      "t": 42178.189000000064,
      "d": 193.0691749999969,
      "v": 64
    },
    {
      "midi": 70,
      "hit": false,
      "t": 42376.20866666666,
      "d": 118.81180000000313,
      "v": 64
    },
    {
      "midi": 63,
      "hit": false,
      "t": 42376.20866666672,
      "d": 193.0691749999969,
      "v": 71
    },
    {
      "midi": 82,
      "hit": false,
      "t": 42376.20866666673,
      "d": 193.0691749999969,
      "v": 64
    },
    {
      "midi": 72,
      "hit": false,
      "t": 42574.228333333325,
      "d": 89.10884999999689,
      "v": 80
    },
    {
      "midi": 61,
      "hit": false,
      "t": 42574.22833333338,
      "d": 193.0691749999969,
      "v": 72
    },
    {
      "midi": 80,
      "hit": false,
      "t": 42574.2283333334,
      "d": 193.0691749999969,
      "v": 59
    },
    {
      "midi": 90,
      "hit": false,
      "t": 42767.297508333344,
      "d": 84.15835833333404,
      "v": 79
    },
    {
      "midi": 73,
      "hit": false,
      "t": 42772.24799999999,
      "d": 782.1776833333352,
      "v": 88
    },
    {
      "midi": 42,
      "hit": false,
      "t": 42772.24800000005,
      "d": 193.0691749999969,
      "v": 76
    },
    {
      "midi": 78,
      "hit": false,
      "t": 42772.248000000065,
      "d": 193.0691749999969,
      "v": 55
    },
    {
      "midi": 54,
      "hit": false,
      "t": 42970.26766666672,
      "d": 193.0691749999969,
      "v": 84
    },
    {
      "midi": 80,
      "hit": false,
      "t": 42970.26766666673,
      "d": 193.0691749999969,
      "v": 72
    },
    {
      "midi": 60,
      "hit": false,
      "t": 43168.287333333385,
      "d": 193.0691749999969,
      "v": 68
    },
    {
      "midi": 82,
      "hit": false,
      "t": 43168.2873333334,
      "d": 193.0691749999969,
      "v": 71
    },
    {
      "midi": 66,
      "hit": false,
      "t": 43188.08929999999,
      "d": 297.0294999999969,
      "v": 104
    },
    {
      "midi": 61,
      "hit": false,
      "t": 43366.30700000005,
      "d": 193.0691749999969,
      "v": 76
    },
    {
      "midi": 84,
      "hit": false,
      "t": 43366.307000000066,
      "d": 193.0691749999969,
      "v": 63
    },
    {
      "midi": 72,
      "hit": false,
      "t": 43564.32666666666,
      "d": 128.71278333333612,
      "v": 76
    },
    {
      "midi": 63,
      "hit": false,
      "t": 43564.32666666672,
      "d": 193.0691749999969,
      "v": 70
    },
    {
      "midi": 85,
      "hit": false,
      "t": 43564.32666666673,
      "d": 193.0691749999969,
      "v": 71
    },
    {
      "midi": 73,
      "hit": false,
      "t": 43762.34633333333,
      "d": 94.05934166666702,
      "v": 76
    },
    {
      "midi": 61,
      "hit": false,
      "t": 43762.346333333386,
      "d": 193.0691749999969,
      "v": 80
    },
    {
      "midi": 82,
      "hit": false,
      "t": 43762.3463333334,
      "d": 193.0691749999969,
      "v": 72
    },
    {
      "midi": 75,
      "hit": false,
      "t": 43960.365999999995,
      "d": 386.1383500000011,
      "v": 94
    },
    {
      "midi": 42,
      "hit": false,
      "t": 43960.36600000005,
      "d": 193.0691749999969,
      "v": 79
    },
    {
      "midi": 87,
      "hit": false,
      "t": 43960.36600000007,
      "d": 193.0691749999969,
      "v": 68
    },
    {
      "midi": 54,
      "hit": false,
      "t": 44158.38566666672,
      "d": 193.0691749999969,
      "v": 79
    },
    {
      "midi": 85,
      "hit": false,
      "t": 44158.385666666734,
      "d": 193.0691749999969,
      "v": 71
    },
    {
      "midi": 77,
      "hit": false,
      "t": 44356.40533333333,
      "d": 707.9203083333341,
      "v": 79
    },
    {
      "midi": 60,
      "hit": false,
      "t": 44356.40533333339,
      "d": 193.0691749999969,
      "v": 76
    },
    {
      "midi": 84,
      "hit": false,
      "t": 44356.4053333334,
      "d": 193.0691749999969,
      "v": 68
    },
    {
      "midi": 61,
      "hit": false,
      "t": 44554.425000000054,
      "d": 193.0691749999969,
      "v": 72
    },
    {
      "midi": 82,
      "hit": false,
      "t": 44554.42500000007,
      "d": 193.0691749999969,
      "v": 71
    },
    {
      "midi": 63,
      "hit": false,
      "t": 44752.44466666672,
      "d": 193.0691749999969,
      "v": 80
    },
    {
      "midi": 80,
      "hit": false,
      "t": 44752.444666666735,
      "d": 193.0691749999969,
      "v": 71
    },
    {
      "midi": 61,
      "hit": false,
      "t": 44950.46433333339,
      "d": 193.0691749999969,
      "v": 84
    },
    {
      "midi": 78,
      "hit": false,
      "t": 44950.4643333334,
      "d": 193.0691749999969,
      "v": 59
    },
    {
      "midi": 70,
      "hit": false,
      "t": 45148.484,
      "d": 737.6232583333331,
      "v": 92
    },
    {
      "midi": 46,
      "hit": false,
      "t": 45148.484000000055,
      "d": 193.0691749999969,
      "v": 80
    },
    {
      "midi": 84,
      "hit": false,
      "t": 45148.48400000007,
      "d": 193.0691749999969,
      "v": 68
    },
    {
      "midi": 94,
      "hit": false,
      "t": 45153.434491666674,
      "d": 89.10884999999689,
      "v": 80
    },
    {
      "midi": 58,
      "hit": false,
      "t": 45346.50366666672,
      "d": 193.0691749999969,
      "v": 79
    },
    {
      "midi": 82,
      "hit": false,
      "t": 45346.50366666674,
      "d": 193.0691749999969,
      "v": 46
    },
    {
      "midi": 70,
      "hit": false,
      "t": 45524.72136666666,
      "d": 297.0294999999969,
      "v": 100
    },
    {
      "midi": 60,
      "hit": false,
      "t": 45544.52333333339,
      "d": 193.0691749999969,
      "v": 64
    },
    {
      "midi": 87,
      "hit": false,
      "t": 45544.5233333334,
      "d": 193.0691749999969,
      "v": 72
    },
    {
      "midi": 61,
      "hit": false,
      "t": 45742.543000000056,
      "d": 193.0691749999969,
      "v": 64
    },
    {
      "midi": 85,
      "hit": false,
      "t": 45742.54300000007,
      "d": 193.0691749999969,
      "v": 72
    },
    {
      "midi": 68,
      "hit": false,
      "t": 45940.562666666665,
      "d": 108.91081666667014,
      "v": 80
    },
    {
      "midi": 63,
      "hit": false,
      "t": 45940.56266666672,
      "d": 193.0691749999969,
      "v": 64
    },
    {
      "midi": 84,
      "hit": false,
      "t": 45940.56266666674,
      "d": 193.0691749999969,
      "v": 88
    },
    {
      "midi": 70,
      "hit": false,
      "t": 46138.58233333333,
      "d": 99.00983333332988,
      "v": 80
    },
    {
      "midi": 61,
      "hit": false,
      "t": 46138.58233333339,
      "d": 193.0691749999969,
      "v": 68
    },
    {
      "midi": 82,
      "hit": false,
      "t": 46138.582333333405,
      "d": 193.0691749999969,
      "v": 76
    },
    {
      "midi": 92,
      "hit": false,
      "t": 46331.651508333336,
      "d": 84.15835833333404,
      "v": 80
    },
    {
      "midi": 72,
      "hit": false,
      "t": 46336.60199999999,
      "d": 727.7222750000001,
      "v": 80
    },
    {
      "midi": 44,
      "hit": false,
      "t": 46336.60200000006,
      "d": 193.0691749999969,
      "v": 64
    },
    {
      "midi": 80,
      "hit": false,
      "t": 46336.60200000007,
      "d": 193.0691749999969,
      "v": 64
    },
    {
      "midi": 56,
      "hit": false,
      "t": 46534.621666666724,
      "d": 193.0691749999969,
      "v": 72
    },
    {
      "midi": 82,
      "hit": false,
      "t": 46534.62166666674,
      "d": 193.0691749999969,
      "v": 79
    },
    {
      "midi": 60,
      "hit": false,
      "t": 46732.64133333339,
      "d": 193.0691749999969,
      "v": 64
    },
    {
      "midi": 85,
      "hit": false,
      "t": 46732.641333333406,
      "d": 193.0691749999969,
      "v": 79
    },
    {
      "midi": 68,
      "hit": false,
      "t": 46737.59182499999,
      "d": 297.0294999999969,
      "v": 104
    },
    {
      "midi": 61,
      "hit": false,
      "t": 46930.66100000006,
      "d": 193.0691749999969,
      "v": 71
    },
    {
      "midi": 84,
      "hit": false,
      "t": 46930.66100000007,
      "d": 193.0691749999969,
      "v": 64
    },
    {
      "midi": 73,
      "hit": false,
      "t": 47128.68066666666,
      "d": 99.00983333332988,
      "v": 80
    },
    {
      "midi": 63,
      "hit": false,
      "t": 47128.680666666725,
      "d": 193.0691749999969,
      "v": 71
    },
    {
      "midi": 82,
      "hit": false,
      "t": 47128.68066666674,
      "d": 193.0691749999969,
      "v": 64
    },
    {
      "midi": 72,
      "hit": false,
      "t": 47326.70033333332,
      "d": 123.76229166666599,
      "v": 84
    },
    {
      "midi": 61,
      "hit": false,
      "t": 47326.70033333339,
      "d": 193.0691749999969,
      "v": 72
    },
    {
      "midi": 80,
      "hit": false,
      "t": 47326.70033333341,
      "d": 193.0691749999969,
      "v": 59
    },
    {
      "midi": 90,
      "hit": false,
      "t": 47519.76950833334,
      "d": 89.10884999999689,
      "v": 80
    },
    {
      "midi": 70,
      "hit": false,
      "t": 47524.71999999999,
      "d": 2183.1668250000002,
      "v": 94
    },
    {
      "midi": 42,
      "hit": false,
      "t": 47524.72000000006,
      "d": 193.0691749999969,
      "v": 76
    },
    {
      "midi": 78,
      "hit": false,
      "t": 47524.720000000074,
      "d": 193.0691749999969,
      "v": 55
    },
    {
      "midi": 54,
      "hit": false,
      "t": 47722.73966666673,
      "d": 193.0691749999969,
      "v": 84
    },
    {
      "midi": 80,
      "hit": false,
      "t": 47722.73966666674,
      "d": 193.0691749999969,
      "v": 72
    },
    {
      "midi": 60,
      "hit": false,
      "t": 47920.75933333339,
      "d": 193.0691749999969,
      "v": 68
    },
    {
      "midi": 82,
      "hit": false,
      "t": 47920.75933333341,
      "d": 193.0691749999969,
      "v": 71
    },
    {
      "midi": 66,
      "hit": false,
      "t": 47940.56129999999,
      "d": 297.0294999999969,
      "v": 104
    },
    {
      "midi": 61,
      "hit": false,
      "t": 48118.77900000006,
      "d": 193.0691749999969,
      "v": 76
    },
    {
      "midi": 84,
      "hit": false,
      "t": 48118.779000000075,
      "d": 193.0691749999969,
      "v": 63
    },
    {
      "midi": 63,
      "hit": false,
      "t": 48316.79866666673,
      "d": 193.0691749999969,
      "v": 70
    },
    {
      "midi": 85,
      "hit": false,
      "t": 48316.79866666674,
      "d": 193.0691749999969,
      "v": 71
    },
    {
      "midi": 61,
      "hit": false,
      "t": 48514.818333333395,
      "d": 193.0691749999969,
      "v": 80
    },
    {
      "midi": 82,
      "hit": false,
      "t": 48514.81833333341,
      "d": 193.0691749999969,
      "v": 72
    },
    {
      "midi": 94,
      "hit": false,
      "t": 48707.88750833335,
      "d": 193.0691749999969,
      "v": 80
    },
    {
      "midi": 42,
      "hit": false,
      "t": 48712.83800000006,
      "d": 193.0691749999969,
      "v": 79
    },
    {
      "midi": 87,
      "hit": false,
      "t": 48712.838000000076,
      "d": 193.0691749999969,
      "v": 68
    },
    {
      "midi": 92,
      "hit": false,
      "t": 48905.907175000015,
      "d": 143.56425833333196,
      "v": 80
    },
    {
      "midi": 54,
      "hit": false,
      "t": 48910.85766666673,
      "d": 193.0691749999969,
      "v": 79
    },
    {
      "midi": 85,
      "hit": false,
      "t": 48910.85766666674,
      "d": 193.0691749999969,
      "v": 71
    },
    {
      "midi": 94,
      "hit": false,
      "t": 49098.97635000002,
      "d": 113.861308333333,
      "v": 79
    },
    {
      "midi": 60,
      "hit": false,
      "t": 49108.877333333396,
      "d": 193.0691749999969,
      "v": 76
    },
    {
      "midi": 84,
      "hit": false,
      "t": 49108.87733333341,
      "d": 193.0691749999969,
      "v": 68
    },
    {
      "midi": 96,
      "hit": false,
      "t": 49292.04552500002,
      "d": 123.76229166666599,
      "v": 70
    },
    {
      "midi": 61,
      "hit": false,
      "t": 49306.89700000006,
      "d": 193.0691749999969,
      "v": 72
    },
    {
      "midi": 82,
      "hit": false,
      "t": 49306.89700000008,
      "d": 193.0691749999969,
      "v": 71
    },
    {
      "midi": 94,
      "hit": false,
      "t": 49485.11470000003,
      "d": 158.41573333333508,
      "v": 80
    },
    {
      "midi": 63,
      "hit": false,
      "t": 49504.91666666673,
      "d": 193.0691749999969,
      "v": 80
    },
    {
      "midi": 80,
      "hit": false,
      "t": 49504.916666666744,
      "d": 193.0691749999969,
      "v": 71
    },
    {
      "midi": 92,
      "hit": false,
      "t": 49653.431416666695,
      "d": 143.56425833333196,
      "v": 72
    },
    {
      "midi": 61,
      "hit": false,
      "t": 49702.9363333334,
      "d": 193.0691749999969,
      "v": 84
    },
    {
      "midi": 78,
      "hit": false,
      "t": 49702.93633333341,
      "d": 193.0691749999969,
      "v": 59
    },
    {
      "midi": 70,
      "hit": false,
      "t": 49900.955999999984,
      "d": 767.326208333332,
      "v": 92
    },
    {
      "midi": 94,
      "hit": false,
      "t": 49900.956000000006,
      "d": 84.15835833333404,
      "v": 80
    },
    {
      "midi": 46,
      "hit": false,
      "t": 49900.956000000064,
      "d": 193.0691749999969,
      "v": 80
    },
    {
      "midi": 84,
      "hit": false,
      "t": 49900.95600000008,
      "d": 193.0691749999969,
      "v": 68
    },
    {
      "midi": 58,
      "hit": false,
      "t": 50098.97566666673,
      "d": 193.0691749999969,
      "v": 79
    },
    {
      "midi": 82,
      "hit": false,
      "t": 50098.975666666745,
      "d": 193.0691749999969,
      "v": 46
    },
    {
      "midi": 94,
      "hit": false,
      "t": 50103.926158333365,
      "d": 99.00983333333716,
      "v": 70
    },
    {
      "midi": 70,
      "hit": false,
      "t": 50277.19336666665,
      "d": 297.0294999999969,
      "v": 100
    },
    {
      "midi": 60,
      "hit": false,
      "t": 50296.9953333334,
      "d": 193.0691749999969,
      "v": 64
    },
    {
      "midi": 87,
      "hit": false,
      "t": 50296.99533333341,
      "d": 193.0691749999969,
      "v": 72
    },
    {
      "midi": 94,
      "hit": false,
      "t": 50301.94582500003,
      "d": 99.00983333333716,
      "v": 60
    },
    {
      "midi": 61,
      "hit": false,
      "t": 50495.015000000065,
      "d": 193.0691749999969,
      "v": 64
    },
    {
      "midi": 85,
      "hit": false,
      "t": 50495.01500000008,
      "d": 193.0691749999969,
      "v": 72
    },
    {
      "midi": 94,
      "hit": false,
      "t": 50499.965491666706,
      "d": 99.00983333333716,
      "v": 50
    },
    {
      "midi": 68,
      "hit": false,
      "t": 50693.03466666665,
      "d": 118.81180000000313,
      "v": 71
    },
    {
      "midi": 63,
      "hit": false,
      "t": 50693.03466666673,
      "d": 193.0691749999969,
      "v": 64
    },
    {
      "midi": 84,
      "hit": false,
      "t": 50693.03466666675,
      "d": 193.0691749999969,
      "v": 88
    },
    {
      "midi": 94,
      "hit": false,
      "t": 50697.98515833337,
      "d": 99.00983333333716,
      "v": 40
    },
    {
      "midi": 70,
      "hit": false,
      "t": 50891.05433333332,
      "d": 99.00983333332988,
      "v": 80
    },
    {
      "midi": 61,
      "hit": false,
      "t": 50891.0543333334,
      "d": 193.0691749999969,
      "v": 68
    },
    {
      "midi": 82,
      "hit": false,
      "t": 50891.05433333341,
      "d": 193.0691749999969,
      "v": 76
    },
    {
      "midi": 94,
      "hit": false,
      "t": 50896.00482500005,
      "d": 99.00983333333716,
      "v": 30
    },
    {
      "midi": 72,
      "hit": false,
      "t": 51089.07399999998,
      "d": 722.77178333333,
      "v": 88
    },
    {
      "midi": 44,
      "hit": false,
      "t": 51089.074000000066,
      "d": 193.0691749999969,
      "v": 64
    },
    {
      "midi": 80,
      "hit": false,
      "t": 51089.07400000008,
      "d": 193.0691749999969,
      "v": 64
    },
    {
      "midi": 92,
      "hit": false,
      "t": 51094.02449166667,
      "d": 84.15835833333404,
      "v": 80
    },
    {
      "midi": 94,
      "hit": false,
      "t": 51094.024491666714,
      "d": 99.00983333333716,
      "v": 20
    },
    {
      "midi": 56,
      "hit": false,
      "t": 51287.09366666673,
      "d": 193.0691749999969,
      "v": 72
    },
    {
      "midi": 82,
      "hit": false,
      "t": 51287.09366666675,
      "d": 193.0691749999969,
      "v": 79
    },
    {
      "midi": 94,
      "hit": false,
      "t": 51292.04415833339,
      "d": 99.00983333332988,
      "v": 10
    },
    {
      "midi": 60,
      "hit": false,
      "t": 51485.1133333334,
      "d": 193.0691749999969,
      "v": 64
    },
    {
      "midi": 85,
      "hit": false,
      "t": 51485.113333333415,
      "d": 193.0691749999969,
      "v": 79
    },
    {
      "midi": 68,
      "hit": false,
      "t": 51490.06382499998,
      "d": 297.0294999999969,
      "v": 104
    },
    {
      "midi": 61,
      "hit": false,
      "t": 51683.13300000007,
      "d": 193.0691749999969,
      "v": 71
    },
    {
      "midi": 84,
      "hit": false,
      "t": 51683.13300000008,
      "d": 193.0691749999969,
      "v": 64
    },
    {
      "midi": 70,
      "hit": false,
      "t": 51881.15266666664,
      "d": 118.81180000000313,
      "v": 64
    },
    {
      "midi": 63,
      "hit": false,
      "t": 51881.152666666734,
      "d": 193.0691749999969,
      "v": 71
    },
    {
      "midi": 82,
      "hit": false,
      "t": 51881.15266666675,
      "d": 193.0691749999969,
      "v": 64
    },
    {
      "midi": 72,
      "hit": false,
      "t": 52079.17233333331,
      "d": 89.10884999999689,
      "v": 80
    },
    {
      "midi": 61,
      "hit": false,
      "t": 52079.1723333334,
      "d": 193.0691749999969,
      "v": 72
    },
    {
      "midi": 80,
      "hit": false,
      "t": 52079.172333333416,
      "d": 193.0691749999969,
      "v": 59
    },
    {
      "midi": 90,
      "hit": false,
      "t": 52272.24150833334,
      "d": 99.00983333332988,
      "v": 80
    },
    {
      "midi": 73,
      "hit": false,
      "t": 52277.19199999997,
      "d": 782.1776833333352,
      "v": 88
    },
    {
      "midi": 42,
      "hit": false,
      "t": 52277.19200000007,
      "d": 193.0691749999969,
      "v": 76
    },
    {
      "midi": 78,
      "hit": false,
      "t": 52277.19200000008,
      "d": 193.0691749999969,
      "v": 55
    },
    {
      "midi": 54,
      "hit": false,
      "t": 52475.211666666735,
      "d": 193.0691749999969,
      "v": 84
    },
    {
      "midi": 80,
      "hit": false,
      "t": 52475.21166666675,
      "d": 193.0691749999969,
      "v": 72
    },
    {
      "midi": 60,
      "hit": false,
      "t": 52673.2313333334,
      "d": 193.0691749999969,
      "v": 68
    },
    {
      "midi": 82,
      "hit": false,
      "t": 52673.23133333342,
      "d": 193.0691749999969,
      "v": 71
    },
    {
      "midi": 66,
      "hit": false,
      "t": 52693.03329999998,
      "d": 297.0294999999969,
      "v": 104
    },
    {
      "midi": 61,
      "hit": false,
      "t": 52871.25100000007,
      "d": 193.0691749999969,
      "v": 76
    },
    {
      "midi": 84,
      "hit": false,
      "t": 52871.251000000084,
      "d": 193.0691749999969,
      "v": 63
    },
    {
      "midi": 72,
      "hit": false,
      "t": 53069.27066666664,
      "d": 128.71278333333612,
      "v": 76
    },
    {
      "midi": 63,
      "hit": false,
      "t": 53069.270666666736,
      "d": 193.0691749999969,
      "v": 70
    },
    {
      "midi": 85,
      "hit": false,
      "t": 53069.27066666675,
      "d": 193.0691749999969,
      "v": 71
    },
    {
      "midi": 73,
      "hit": false,
      "t": 53267.29033333331,
      "d": 94.05934166666702,
      "v": 76
    },
    {
      "midi": 61,
      "hit": false,
      "t": 53267.2903333334,
      "d": 193.0691749999969,
      "v": 80
    },
    {
      "midi": 82,
      "hit": false,
      "t": 53267.29033333342,
      "d": 193.0691749999969,
      "v": 72
    },
    {
      "midi": 75,
      "hit": false,
      "t": 53465.309999999976,
      "d": 386.1383500000011,
      "v": 94
    },
    {
      "midi": 42,
      "hit": false,
      "t": 53465.31000000007,
      "d": 193.0691749999969,
      "v": 79
    },
    {
      "midi": 87,
      "hit": false,
      "t": 53465.310000000085,
      "d": 193.0691749999969,
      "v": 68
    },
    {
      "midi": 54,
      "hit": false,
      "t": 53663.32966666674,
      "d": 193.0691749999969,
      "v": 79
    },
    {
      "midi": 85,
      "hit": false,
      "t": 53663.32966666675,
      "d": 193.0691749999969,
      "v": 71
    },
    {
      "midi": 77,
      "hit": false,
      "t": 53861.34933333331,
      "d": 707.9203083333341,
      "v": 79
    },
    {
      "midi": 60,
      "hit": false,
      "t": 53861.349333333405,
      "d": 193.0691749999969,
      "v": 76
    },
    {
      "midi": 84,
      "hit": false,
      "t": 53861.34933333342,
      "d": 193.0691749999969,
      "v": 68
    },
    {
      "midi": 61,
      "hit": false,
      "t": 54059.36900000007,
      "d": 193.0691749999969,
      "v": 72
    },
    {
      "midi": 82,
      "hit": false,
      "t": 54059.369000000086,
      "d": 193.0691749999969,
      "v": 71
    },
    {
      "midi": 63,
      "hit": false,
      "t": 54257.38866666674,
      "d": 193.0691749999969,
      "v": 80
    },
    {
      "midi": 80,
      "hit": false,
      "t": 54257.38866666675,
      "d": 193.0691749999969,
      "v": 71
    },
    {
      "midi": 61,
      "hit": false,
      "t": 54455.408333333406,
      "d": 193.0691749999969,
      "v": 84
    },
    {
      "midi": 78,
      "hit": false,
      "t": 54455.40833333342,
      "d": 193.0691749999969,
      "v": 59
    },
    {
      "midi": 94,
      "hit": false,
      "t": 54648.47750833334,
      "d": 89.10884999999689,
      "v": 80
    },
    {
      "midi": 70,
      "hit": false,
      "t": 54653.42799999998,
      "d": 737.6232583333331,
      "v": 92
    },
    {
      "midi": 46,
      "hit": false,
      "t": 54653.42800000007,
      "d": 193.0691749999969,
      "v": 80
    },
    {
      "midi": 84,
      "hit": false,
      "t": 54653.42800000009,
      "d": 193.0691749999969,
      "v": 68
    },
    {
      "midi": 58,
      "hit": false,
      "t": 54851.44766666674,
      "d": 193.0691749999969,
      "v": 79
    },
    {
      "midi": 82,
      "hit": false,
      "t": 54851.447666666754,
      "d": 193.0691749999969,
      "v": 46
    },
    {
      "midi": 70,
      "hit": false,
      "t": 55029.665366666646,
      "d": 297.0294999999969,
      "v": 100
    },
    {
      "midi": 60,
      "hit": false,
      "t": 55049.46733333341,
      "d": 193.0691749999969,
      "v": 64
    },
    {
      "midi": 87,
      "hit": false,
      "t": 55049.46733333342,
      "d": 193.0691749999969,
      "v": 72
    },
    {
      "midi": 61,
      "hit": false,
      "t": 55247.487000000074,
      "d": 193.0691749999969,
      "v": 64
    },
    {
      "midi": 85,
      "hit": false,
      "t": 55247.48700000009,
      "d": 193.0691749999969,
      "v": 72
    },
    {
      "midi": 68,
      "hit": false,
      "t": 55445.506666666646,
      "d": 108.91081666667014,
      "v": 80
    },
    {
      "midi": 63,
      "hit": false,
      "t": 55445.50666666674,
      "d": 193.0691749999969,
      "v": 64
    },
    {
      "midi": 84,
      "hit": false,
      "t": 55445.506666666755,
      "d": 193.0691749999969,
      "v": 88
    },
    {
      "midi": 70,
      "hit": false,
      "t": 55643.52633333331,
      "d": 99.00983333332988,
      "v": 80
    },
    {
      "midi": 61,
      "hit": false,
      "t": 55643.52633333341,
      "d": 193.0691749999969,
      "v": 68
    },
    {
      "midi": 82,
      "hit": false,
      "t": 55643.52633333342,
      "d": 193.0691749999969,
      "v": 76
    },
    {
      "midi": 72,
      "hit": false,
      "t": 55841.54599999997,
      "d": 727.7222750000001,
      "v": 80
    },
    {
      "midi": 44,
      "hit": false,
      "t": 55841.546000000075,
      "d": 193.0691749999969,
      "v": 64
    },
    {
      "midi": 80,
      "hit": false,
      "t": 55841.54600000009,
      "d": 193.0691749999969,
      "v": 64
    },
    {
      "midi": 92,
      "hit": false,
      "t": 55846.496491666665,
      "d": 89.10884999999689,
      "v": 80
    },
    {
      "midi": 56,
      "hit": false,
      "t": 56039.56566666674,
      "d": 193.0691749999969,
      "v": 72
    },
    {
      "midi": 82,
      "hit": false,
      "t": 56039.56566666676,
      "d": 193.0691749999969,
      "v": 79
    },
    {
      "midi": 60,
      "hit": false,
      "t": 56237.58533333341,
      "d": 193.0691749999969,
      "v": 64
    },
    {
      "midi": 85,
      "hit": false,
      "t": 56237.58533333342,
      "d": 193.0691749999969,
      "v": 79
    },
    {
      "midi": 68,
      "hit": false,
      "t": 56242.53582499998,
      "d": 297.0294999999969,
      "v": 104
    },
    {
      "midi": 61,
      "hit": false,
      "t": 56435.605000000076,
      "d": 193.0691749999969,
      "v": 71
    },
    {
      "midi": 84,
      "hit": false,
      "t": 56435.60500000009,
      "d": 193.0691749999969,
      "v": 64
    },
    {
      "midi": 70,
      "hit": false,
      "t": 56633.62466666664,
      "d": 99.00983333332988,
      "v": 80
    },
    {
      "midi": 63,
      "hit": false,
      "t": 56633.62466666674,
      "d": 193.0691749999969,
      "v": 71
    },
    {
      "midi": 82,
      "hit": false,
      "t": 56633.62466666676,
      "d": 193.0691749999969,
      "v": 64
    },
    {
      "midi": 72,
      "hit": false,
      "t": 56831.6443333333,
      "d": 123.76229166666599,
      "v": 84
    },
    {
      "midi": 61,
      "hit": false,
      "t": 56831.64433333341,
      "d": 193.0691749999969,
      "v": 72
    },
    {
      "midi": 80,
      "hit": false,
      "t": 56831.644333333425,
      "d": 193.0691749999969,
      "v": 59
    },
    {
      "midi": 90,
      "hit": false,
      "t": 57024.71350833333,
      "d": 89.10884999999689,
      "v": 80
    },
    {
      "midi": 73,
      "hit": false,
      "t": 57029.66399999997,
      "d": 1168.3160333333362,
      "v": 94
    },
    {
      "midi": 42,
      "hit": false,
      "t": 57029.66400000008,
      "d": 193.0691749999969,
      "v": 76
    },
    {
      "midi": 78,
      "hit": false,
      "t": 57029.66400000009,
      "d": 193.0691749999969,
      "v": 55
    },
    {
      "midi": 54,
      "hit": false,
      "t": 57227.683666666744,
      "d": 193.0691749999969,
      "v": 84
    },
    {
      "midi": 80,
      "hit": false,
      "t": 57227.68366666676,
      "d": 193.0691749999969,
      "v": 72
    },
    {
      "midi": 60,
      "hit": false,
      "t": 57425.70333333341,
      "d": 193.0691749999969,
      "v": 68
    },
    {
      "midi": 82,
      "hit": false,
      "t": 57425.703333333426,
      "d": 193.0691749999969,
      "v": 71
    },
    {
      "midi": 66,
      "hit": false,
      "t": 57445.505299999975,
      "d": 297.0294999999969,
      "v": 104
    },
    {
      "midi": 61,
      "hit": false,
      "t": 57623.72300000008,
      "d": 193.0691749999969,
      "v": 76
    },
    {
      "midi": 84,
      "hit": false,
      "t": 57623.72300000009,
      "d": 193.0691749999969,
      "v": 63
    },
    {
      "midi": 63,
      "hit": false,
      "t": 57821.742666666745,
      "d": 193.0691749999969,
      "v": 70
    },
    {
      "midi": 85,
      "hit": false,
      "t": 57821.74266666676,
      "d": 193.0691749999969,
      "v": 71
    },
    {
      "midi": 61,
      "hit": false,
      "t": 58019.76233333341,
      "d": 193.0691749999969,
      "v": 80
    },
    {
      "midi": 82,
      "hit": false,
      "t": 58019.76233333343,
      "d": 193.0691749999969,
      "v": 72
    },
    {
      "midi": 42,
      "hit": false,
      "t": 58217.78200000008,
      "d": 193.0691749999969,
      "v": 79
    },
    {
      "midi": 87,
      "hit": false,
      "t": 58217.782000000094,
      "d": 193.0691749999969,
      "v": 68
    },
    {
      "midi": 75,
      "hit": false,
      "t": 58222.73249166664,
      "d": 1153.4645583333331,
      "v": 104
    },
    {
      "midi": 54,
      "hit": false,
      "t": 58415.801666666746,
      "d": 193.0691749999969,
      "v": 79
    },
    {
      "midi": 85,
      "hit": false,
      "t": 58415.80166666676,
      "d": 193.0691749999969,
      "v": 71
    },
    {
      "midi": 60,
      "hit": false,
      "t": 58613.82133333341,
      "d": 193.0691749999969,
      "v": 76
    },
    {
      "midi": 84,
      "hit": false,
      "t": 58613.82133333343,
      "d": 193.0691749999969,
      "v": 68
    },
    {
      "midi": 61,
      "hit": false,
      "t": 58811.84100000008,
      "d": 193.0691749999969,
      "v": 72
    },
    {
      "midi": 82,
      "hit": false,
      "t": 58811.841000000095,
      "d": 193.0691749999969,
      "v": 71
    },
    {
      "midi": 63,
      "hit": false,
      "t": 59009.86066666675,
      "d": 193.0691749999969,
      "v": 80
    },
    {
      "midi": 80,
      "hit": false,
      "t": 59009.86066666676,
      "d": 193.0691749999969,
      "v": 71
    },
    {
      "midi": 61,
      "hit": false,
      "t": 59207.880333333414,
      "d": 193.0691749999969,
      "v": 84
    },
    {
      "midi": 78,
      "hit": false,
      "t": 59207.88033333343,
      "d": 193.0691749999969,
      "v": 59
    },
    {
      "midi": 77,
      "hit": false,
      "t": 59405.90000000005,
      "d": 3564.353999999992,
      "v": 104
    },
    {
      "midi": 41,
      "hit": false,
      "t": 59405.90000000008,
      "d": 193.0691749999969,
      "v": 80
    },
    {
      "midi": 79,
      "hit": false,
      "t": 59405.900000000096,
      "d": 193.0691749999969,
      "v": 68
    },
    {
      "midi": 82,
      "hit": false,
      "t": 59603.919666666654,
      "d": 94.0593416666743,
      "v": 100
    },
    {
      "midi": 48,
      "hit": false,
      "t": 59603.91966666675,
      "d": 193.0691749999969,
      "v": 79
    },
    {
      "midi": 77,
      "hit": false,
      "t": 59603.91966666676,
      "d": 193.0691749999969,
      "v": 46
    },
    {
      "midi": 82,
      "hit": false,
      "t": 59801.939333333336,
      "d": 94.05934166666702,
      "v": 90
    },
    {
      "midi": 53,
      "hit": false,
      "t": 59801.939333333416,
      "d": 193.0691749999969,
      "v": 64
    },
    {
      "midi": 82,
      "hit": false,
      "t": 59801.93933333343,
      "d": 193.0691749999969,
      "v": 72
    },
    {
      "midi": 82,
      "hit": false,
      "t": 59999.959,
      "d": 94.05934166666702,
      "v": 80
    },
    {
      "midi": 55,
      "hit": false,
      "t": 59999.95900000008,
      "d": 193.0691749999969,
      "v": 64
    },
    {
      "midi": 80,
      "hit": false,
      "t": 59999.9590000001,
      "d": 193.0691749999969,
      "v": 72
    },
    {
      "midi": 82,
      "hit": false,
      "t": 60197.97866666667,
      "d": 94.05934166666702,
      "v": 70
    },
    {
      "midi": 56,
      "hit": false,
      "t": 60197.97866666675,
      "d": 193.0691749999969,
      "v": 64
    },
    {
      "midi": 79,
      "hit": false,
      "t": 60197.978666666764,
      "d": 193.0691749999969,
      "v": 88
    },
    {
      "midi": 82,
      "hit": false,
      "t": 60395.998333333344,
      "d": 94.0593416666743,
      "v": 60
    },
    {
      "midi": 58,
      "hit": false,
      "t": 60395.99833333342,
      "d": 193.0691749999969,
      "v": 68
    },
    {
      "midi": 77,
      "hit": false,
      "t": 60395.99833333343,
      "d": 193.0691749999969,
      "v": 76
    },
    {
      "midi": 82,
      "hit": false,
      "t": 60594.018000000025,
      "d": 94.0593416666743,
      "v": 50
    },
    {
      "midi": 39,
      "hit": false,
      "t": 60594.018000000084,
      "d": 193.0691749999969,
      "v": 64
    },
    {
      "midi": 75,
      "hit": false,
      "t": 60594.0180000001,
      "d": 193.0691749999969,
      "v": 64
    },
    {
      "midi": 82,
      "hit": false,
      "t": 60792.03766666671,
      "d": 94.05934166666702,
      "v": 40
    },
    {
      "midi": 46,
      "hit": false,
      "t": 60792.03766666675,
      "d": 193.0691749999969,
      "v": 72
    },
    {
      "midi": 77,
      "hit": false,
      "t": 60792.037666666765,
      "d": 193.0691749999969,
      "v": 79
    },
    {
      "midi": 82,
      "hit": false,
      "t": 60990.057333333374,
      "d": 94.05934166666702,
      "v": 30
    },
    {
      "midi": 51,
      "hit": false,
      "t": 60990.05733333342,
      "d": 193.0691749999969,
      "v": 64
    },
    {
      "midi": 80,
      "hit": false,
      "t": 60990.05733333343,
      "d": 193.0691749999969,
      "v": 79
    },
    {
      "midi": 82,
      "hit": false,
      "t": 61188.07700000004,
      "d": 94.05934166666702,
      "v": 20
    },
    {
      "midi": 55,
      "hit": false,
      "t": 61188.077000000085,
      "d": 193.0691749999969,
      "v": 71
    },
    {
      "midi": 79,
      "hit": false,
      "t": 61188.0770000001,
      "d": 193.0691749999969,
      "v": 64
    },
    {
      "midi": 56,
      "hit": false,
      "t": 61386.09666666675,
      "d": 193.0691749999969,
      "v": 71
    },
    {
      "midi": 77,
      "hit": false,
      "t": 61386.09666666677,
      "d": 193.0691749999969,
      "v": 64
    },
    {
      "midi": 58,
      "hit": false,
      "t": 61584.11633333342,
      "d": 193.0691749999969,
      "v": 72
    },
    {
      "midi": 75,
      "hit": false,
      "t": 61584.11633333343,
      "d": 193.0691749999969,
      "v": 59
    },
    {
      "midi": 37,
      "hit": false,
      "t": 61782.136000000086,
      "d": 193.0691749999969,
      "v": 76
    },
    {
      "midi": 73,
      "hit": false,
      "t": 61782.1360000001,
      "d": 193.0691749999969,
      "v": 55
    },
    {
      "midi": 80,
      "hit": false,
      "t": 61980.15566666673,
      "d": 94.0593416666743,
      "v": 100
    },
    {
      "midi": 44,
      "hit": false,
      "t": 61980.15566666675,
      "d": 193.0691749999969,
      "v": 84
    },
    {
      "midi": 75,
      "hit": false,
      "t": 61980.15566666677,
      "d": 193.0691749999969,
      "v": 72
    },
    {
      "midi": 80,
      "hit": false,
      "t": 62178.17533333341,
      "d": 94.05934166666702,
      "v": 90
    },
    {
      "midi": 49,
      "hit": false,
      "t": 62178.17533333342,
      "d": 193.0691749999969,
      "v": 68
    },
    {
      "midi": 77,
      "hit": false,
      "t": 62178.175333333435,
      "d": 193.0691749999969,
      "v": 71
    },
    {
      "midi": 80,
      "hit": false,
      "t": 62376.19500000008,
      "d": 94.05934166666702,
      "v": 80
    },
    {
      "midi": 55,
      "hit": false,
      "t": 62376.19500000009,
      "d": 193.0691749999969,
      "v": 76
    },
    {
      "midi": 79,
      "hit": false,
      "t": 62376.1950000001,
      "d": 193.0691749999969,
      "v": 63
    },
    {
      "midi": 80,
      "hit": false,
      "t": 62574.21466666675,
      "d": 94.05934166666702,
      "v": 70
    },
    {
      "midi": 56,
      "hit": false,
      "t": 62574.214666666754,
      "d": 193.0691749999969,
      "v": 70
    },
    {
      "midi": 80,
      "hit": false,
      "t": 62574.21466666677,
      "d": 193.0691749999969,
      "v": 71
    },
    {
      "midi": 58,
      "hit": false,
      "t": 62772.23433333342,
      "d": 193.0691749999969,
      "v": 80
    },
    {
      "midi": 80,
      "hit": false,
      "t": 62772.23433333342,
      "d": 94.0593416666743,
      "v": 60
    },
    {
      "midi": 77,
      "hit": false,
      "t": 62772.234333333436,
      "d": 193.0691749999969,
      "v": 72
    },
    {
      "midi": 37,
      "hit": false,
      "t": 62970.25400000009,
      "d": 193.0691749999969,
      "v": 79
    },
    {
      "midi": 82,
      "hit": false,
      "t": 62970.2540000001,
      "d": 193.0691749999969,
      "v": 68
    },
    {
      "midi": 80,
      "hit": false,
      "t": 62970.2540000001,
      "d": 94.0593416666743,
      "v": 50
    },
    {
      "midi": 44,
      "hit": false,
      "t": 63168.273666666755,
      "d": 193.0691749999969,
      "v": 79
    },
    {
      "midi": 80,
      "hit": false,
      "t": 63168.27366666677,
      "d": 193.0691749999969,
      "v": 71
    },
    {
      "midi": 80,
      "hit": false,
      "t": 63168.273666666784,
      "d": 94.05934166666702,
      "v": 40
    },
    {
      "midi": 49,
      "hit": false,
      "t": 63366.29333333342,
      "d": 193.0691749999969,
      "v": 76
    },
    {
      "midi": 79,
      "hit": false,
      "t": 63366.29333333344,
      "d": 193.0691749999969,
      "v": 68
    },
    {
      "midi": 80,
      "hit": false,
      "t": 63366.29333333345,
      "d": 94.05934166666702,
      "v": 30
    },
    {
      "midi": 55,
      "hit": false,
      "t": 63564.31300000009,
      "d": 193.0691749999969,
      "v": 72
    },
    {
      "midi": 77,
      "hit": false,
      "t": 63564.313000000104,
      "d": 193.0691749999969,
      "v": 71
    },
    {
      "midi": 80,
      "hit": false,
      "t": 63564.31300000012,
      "d": 94.05934166666702,
      "v": 20
    },
    {
      "midi": 56,
      "hit": false,
      "t": 63762.332666666756,
      "d": 193.0691749999969,
      "v": 80
    },
    {
      "midi": 75,
      "hit": false,
      "t": 63762.33266666677,
      "d": 193.0691749999969,
      "v": 71
    },
    {
      "midi": 58,
      "hit": false,
      "t": 63960.35233333342,
      "d": 193.0691749999969,
      "v": 84
    },
    {
      "midi": 73,
      "hit": false,
      "t": 63960.35233333344,
      "d": 193.0691749999969,
      "v": 59
    },
    {
      "midi": 41,
      "hit": false,
      "t": 64158.37200000009,
      "d": 193.0691749999969,
      "v": 80
    },
    {
      "midi": 79,
      "hit": false,
      "t": 64158.372000000105,
      "d": 193.0691749999969,
      "v": 68
    },
    {
      "midi": 48,
      "hit": false,
      "t": 64356.39166666676,
      "d": 193.0691749999969,
      "v": 79
    },
    {
      "midi": 77,
      "hit": false,
      "t": 64356.39166666677,
      "d": 193.0691749999969,
      "v": 46
    },
    {
      "midi": 79,
      "hit": false,
      "t": 64356.39166666681,
      "d": 94.0593416666743,
      "v": 100
    },
    {
      "midi": 53,
      "hit": false,
      "t": 64554.411333333424,
      "d": 193.0691749999969,
      "v": 64
    },
    {
      "midi": 82,
      "hit": false,
      "t": 64554.41133333344,
      "d": 193.0691749999969,
      "v": 72
    },
    {
      "midi": 79,
      "hit": false,
      "t": 64554.41133333349,
      "d": 94.05934166666702,
      "v": 90
    },
    {
      "midi": 55,
      "hit": false,
      "t": 64752.43100000009,
      "d": 193.0691749999969,
      "v": 64
    },
    {
      "midi": 80,
      "hit": false,
      "t": 64752.431000000106,
      "d": 193.0691749999969,
      "v": 72
    },
    {
      "midi": 79,
      "hit": false,
      "t": 64752.43100000016,
      "d": 94.05934166666702,
      "v": 80
    },
    {
      "midi": 56,
      "hit": false,
      "t": 64950.45066666676,
      "d": 193.0691749999969,
      "v": 64
    },
    {
      "midi": 79,
      "hit": false,
      "t": 64950.45066666677,
      "d": 193.0691749999969,
      "v": 88
    },
    {
      "midi": 79,
      "hit": false,
      "t": 64950.450666666824,
      "d": 94.05934166666702,
      "v": 70
    },
    {
      "midi": 58,
      "hit": false,
      "t": 65148.470333333426,
      "d": 193.0691749999969,
      "v": 68
    },
    {
      "midi": 77,
      "hit": false,
      "t": 65148.47033333344,
      "d": 193.0691749999969,
      "v": 76
    },
    {
      "midi": 79,
      "hit": false,
      "t": 65148.4703333335,
      "d": 94.0593416666743,
      "v": 60
    },
    {
      "midi": 39,
      "hit": false,
      "t": 65346.49000000009,
      "d": 193.0691749999969,
      "v": 64
    },
    {
      "midi": 75,
      "hit": false,
      "t": 65346.49000000011,
      "d": 193.0691749999969,
      "v": 64
    },
    {
      "midi": 79,
      "hit": false,
      "t": 65346.49000000018,
      "d": 94.0593416666743,
      "v": 50
    },
    {
      "midi": 46,
      "hit": false,
      "t": 65544.50966666675,
      "d": 193.0691749999969,
      "v": 72
    },
    {
      "midi": 77,
      "hit": false,
      "t": 65544.50966666677,
      "d": 193.0691749999969,
      "v": 79
    },
    {
      "midi": 79,
      "hit": false,
      "t": 65544.50966666685,
      "d": 94.05934166668158,
      "v": 40
    },
    {
      "midi": 51,
      "hit": false,
      "t": 65742.52933333341,
      "d": 193.0691749999969,
      "v": 64
    },
    {
      "midi": 80,
      "hit": false,
      "t": 65742.52933333343,
      "d": 193.0691749999969,
      "v": 79
    },
    {
      "midi": 79,
      "hit": false,
      "t": 65742.52933333354,
      "d": 94.05934166666702,
      "v": 30
    },
    {
      "midi": 55,
      "hit": false,
      "t": 65940.54900000007,
      "d": 193.0691749999969,
      "v": 71
    },
    {
      "midi": 79,
      "hit": false,
      "t": 65940.54900000009,
      "d": 193.0691749999969,
      "v": 64
    },
    {
      "midi": 79,
      "hit": false,
      "t": 65940.54900000022,
      "d": 94.05934166668158,
      "v": 20
    },
    {
      "midi": 56,
      "hit": false,
      "t": 66138.56866666673,
      "d": 193.0691749999969,
      "v": 71
    },
    {
      "midi": 77,
      "hit": false,
      "t": 66138.56866666675,
      "d": 193.0691749999969,
      "v": 64
    },
    {
      "midi": 58,
      "hit": false,
      "t": 66336.58833333339,
      "d": 193.0691749999969,
      "v": 72
    },
    {
      "midi": 75,
      "hit": false,
      "t": 66336.5883333334,
      "d": 193.0691749999969,
      "v": 59
    },
    {
      "midi": 37,
      "hit": false,
      "t": 66534.60800000005,
      "d": 193.0691749999969,
      "v": 76
    },
    {
      "midi": 73,
      "hit": false,
      "t": 66534.60800000007,
      "d": 193.0691749999969,
      "v": 55
    },
    {
      "midi": 44,
      "hit": false,
      "t": 66732.62766666671,
      "d": 193.0691749999969,
      "v": 84
    },
    {
      "midi": 75,
      "hit": false,
      "t": 66732.62766666673,
      "d": 193.0691749999969,
      "v": 72
    },
    {
      "midi": 77,
      "hit": false,
      "t": 66732.6276666669,
      "d": 94.05934166666702,
      "v": 100
    },
    {
      "midi": 49,
      "hit": false,
      "t": 66930.64733333337,
      "d": 193.0691749999969,
      "v": 68
    },
    {
      "midi": 77,
      "hit": false,
      "t": 66930.64733333339,
      "d": 193.0691749999969,
      "v": 71
    },
    {
      "midi": 77,
      "hit": false,
      "t": 66930.64733333356,
      "d": 94.05934166666702,
      "v": 90
    },
    {
      "midi": 55,
      "hit": false,
      "t": 67128.66700000003,
      "d": 193.0691749999969,
      "v": 76
    },
    {
      "midi": 79,
      "hit": false,
      "t": 67128.66700000004,
      "d": 193.0691749999969,
      "v": 63
    },
    {
      "midi": 77,
      "hit": false,
      "t": 67128.66700000023,
      "d": 94.05934166666702,
      "v": 80
    },
    {
      "midi": 56,
      "hit": false,
      "t": 67326.68666666669,
      "d": 193.0691749999969,
      "v": 70
    },
    {
      "midi": 80,
      "hit": false,
      "t": 67326.6866666667,
      "d": 193.0691749999969,
      "v": 71
    },
    {
      "midi": 77,
      "hit": false,
      "t": 67326.68666666691,
      "d": 94.05934166668158,
      "v": 70
    },
    {
      "midi": 58,
      "hit": false,
      "t": 67524.70633333335,
      "d": 193.0691749999969,
      "v": 80
    },
    {
      "midi": 77,
      "hit": false,
      "t": 67524.70633333336,
      "d": 193.0691749999969,
      "v": 72
    },
    {
      "midi": 77,
      "hit": false,
      "t": 67524.7063333336,
      "d": 94.05934166666702,
      "v": 60
    },
    {
      "midi": 37,
      "hit": false,
      "t": 67722.72600000001,
      "d": 193.0691749999969,
      "v": 79
    },
    {
      "midi": 82,
      "hit": false,
      "t": 67722.72600000002,
      "d": 193.0691749999969,
      "v": 68
    },
    {
      "midi": 77,
      "hit": false,
      "t": 67722.72600000027,
      "d": 94.05934166666702,
      "v": 50
    },
    {
      "midi": 79,
      "hit": false,
      "t": 67727.6764916667,
      "d": 178.21769999999378,
      "v": 76
    },
    {
      "midi": 44,
      "hit": false,
      "t": 67920.74566666667,
      "d": 193.0691749999969,
      "v": 79
    },
    {
      "midi": 80,
      "hit": false,
      "t": 67920.74566666668,
      "d": 193.0691749999969,
      "v": 71
    },
    {
      "midi": 80,
      "hit": false,
      "t": 67920.7456666667,
      "d": 193.0691749999969,
      "v": 64
    },
    {
      "midi": 77,
      "hit": false,
      "t": 67920.74566666693,
      "d": 94.05934166668158,
      "v": 40
    },
    {
      "midi": 49,
      "hit": false,
      "t": 68118.76533333333,
      "d": 193.0691749999969,
      "v": 76
    },
    {
      "midi": 79,
      "hit": false,
      "t": 68118.76533333334,
      "d": 193.0691749999969,
      "v": 68
    },
    {
      "midi": 77,
      "hit": false,
      "t": 68118.76533333362,
      "d": 94.05934166666702,
      "v": 30
    },
    {
      "midi": 82,
      "hit": false,
      "t": 68123.71582500004,
      "d": 148.5147500000021,
      "v": 64
    },
    {
      "midi": 55,
      "hit": false,
      "t": 68316.78499999999,
      "d": 193.0691749999969,
      "v": 72
    },
    {
      "midi": 77,
      "hit": false,
      "t": 68316.785,
      "d": 193.0691749999969,
      "v": 71
    },
    {
      "midi": 77,
      "hit": false,
      "t": 68316.7850000003,
      "d": 94.05934166668158,
      "v": 20
    },
    {
      "midi": 80,
      "hit": false,
      "t": 68321.73549166671,
      "d": 158.4157333333278,
      "v": 70
    },
    {
      "midi": 56,
      "hit": false,
      "t": 68514.80466666665,
      "d": 193.0691749999969,
      "v": 80
    },
    {
      "midi": 75,
      "hit": false,
      "t": 68514.80466666666,
      "d": 193.0691749999969,
      "v": 71
    },
    {
      "midi": 82,
      "hit": false,
      "t": 68519.75515833337,
      "d": 148.5147500000021,
      "v": 62
    },
    {
      "midi": 58,
      "hit": false,
      "t": 68712.82433333331,
      "d": 193.0691749999969,
      "v": 84
    },
    {
      "midi": 73,
      "hit": false,
      "t": 68712.82433333332,
      "d": 193.0691749999969,
      "v": 59
    },
    {
      "midi": 80,
      "hit": false,
      "t": 68712.82433333337,
      "d": 158.4157333333278,
      "v": 76
    },
    {
      "midi": 41,
      "hit": false,
      "t": 68910.84399999997,
      "d": 193.0691749999969,
      "v": 80
    },
    {
      "midi": 79,
      "hit": false,
      "t": 68910.84399999998,
      "d": 193.0691749999969,
      "v": 68
    },
    {
      "midi": 84,
      "hit": false,
      "t": 68915.79449166669,
      "d": 1554.45438333333,
      "v": 52
    },
    {
      "midi": 48,
      "hit": false,
      "t": 69108.86366666663,
      "d": 193.0691749999969,
      "v": 79
    },
    {
      "midi": 77,
      "hit": false,
      "t": 69108.86366666664,
      "d": 193.0691749999969,
      "v": 46
    },
    {
      "midi": 82,
      "hit": false,
      "t": 69108.86366666698,
      "d": 94.05934166666702,
      "v": 100
    },
    {
      "midi": 53,
      "hit": false,
      "t": 69306.88333333329,
      "d": 193.0691749999969,
      "v": 64
    },
    {
      "midi": 82,
      "hit": false,
      "t": 69306.8833333333,
      "d": 193.0691749999969,
      "v": 72
    },
    {
      "midi": 82,
      "hit": false,
      "t": 69306.88333333364,
      "d": 94.05934166666702,
      "v": 90
    },
    {
      "midi": 55,
      "hit": false,
      "t": 69504.90299999995,
      "d": 193.0691749999969,
      "v": 64
    },
    {
      "midi": 80,
      "hit": false,
      "t": 69504.90299999996,
      "d": 193.0691749999969,
      "v": 72
    },
    {
      "midi": 82,
      "hit": false,
      "t": 69504.90300000031,
      "d": 94.05934166666702,
      "v": 80
    },
    {
      "midi": 56,
      "hit": false,
      "t": 69702.9226666666,
      "d": 193.0691749999969,
      "v": 64
    },
    {
      "midi": 79,
      "hit": false,
      "t": 69702.92266666662,
      "d": 193.0691749999969,
      "v": 88
    },
    {
      "midi": 82,
      "hit": false,
      "t": 69702.92266666699,
      "d": 94.05934166668158,
      "v": 70
    },
    {
      "midi": 58,
      "hit": false,
      "t": 69900.94233333327,
      "d": 193.0691749999969,
      "v": 68
    },
    {
      "midi": 77,
      "hit": false,
      "t": 69900.94233333328,
      "d": 193.0691749999969,
      "v": 76
    },
    {
      "midi": 82,
      "hit": false,
      "t": 69900.94233333367,
      "d": 94.05934166666702,
      "v": 60
    },
    {
      "midi": 39,
      "hit": false,
      "t": 70098.96199999993,
      "d": 193.0691749999969,
      "v": 64
    },
    {
      "midi": 75,
      "hit": false,
      "t": 70098.96199999994,
      "d": 193.0691749999969,
      "v": 64
    },
    {
      "midi": 82,
      "hit": false,
      "t": 70098.96200000035,
      "d": 94.05934166666702,
      "v": 50
    },
    {
      "midi": 46,
      "hit": false,
      "t": 70296.98166666659,
      "d": 193.0691749999969,
      "v": 72
    },
    {
      "midi": 77,
      "hit": false,
      "t": 70296.9816666666,
      "d": 193.0691749999969,
      "v": 79
    },
    {
      "midi": 82,
      "hit": false,
      "t": 70296.98166666701,
      "d": 94.05934166668158,
      "v": 40
    },
    {
      "midi": 51,
      "hit": false,
      "t": 70495.00133333325,
      "d": 193.0691749999969,
      "v": 64
    },
    {
      "midi": 80,
      "hit": false,
      "t": 70495.00133333326,
      "d": 193.0691749999969,
      "v": 79
    },
    {
      "midi": 82,
      "hit": false,
      "t": 70495.0013333337,
      "d": 94.05934166666702,
      "v": 30
    },
    {
      "midi": 87,
      "hit": false,
      "t": 70499.95182500003,
      "d": 173.26720833333093,
      "v": 94
    },
    {
      "midi": 55,
      "hit": false,
      "t": 70693.0209999999,
      "d": 193.0691749999969,
      "v": 71
    },
    {
      "midi": 79,
      "hit": false,
      "t": 70693.02099999992,
      "d": 193.0691749999969,
      "v": 64
    },
    {
      "midi": 82,
      "hit": false,
      "t": 70693.02100000037,
      "d": 94.05934166668158,
      "v": 20
    },
    {
      "midi": 85,
      "hit": false,
      "t": 70697.97149166669,
      "d": 178.21769999999378,
      "v": 80
    },
    {
      "midi": 56,
      "hit": false,
      "t": 70891.04066666657,
      "d": 193.0691749999969,
      "v": 71
    },
    {
      "midi": 77,
      "hit": false,
      "t": 70891.04066666658,
      "d": 193.0691749999969,
      "v": 64
    },
    {
      "midi": 84,
      "hit": false,
      "t": 70895.99115833335,
      "d": 193.0691749999969,
      "v": 64
    },
    {
      "midi": 58,
      "hit": false,
      "t": 71089.06033333323,
      "d": 193.0691749999969,
      "v": 72
    },
    {
      "midi": 75,
      "hit": false,
      "t": 71089.06033333324,
      "d": 193.0691749999969,
      "v": 59
    },
    {
      "midi": 82,
      "hit": false,
      "t": 71094.010825,
      "d": 202.97015833332262,
      "v": 79
    },
    {
      "midi": 37,
      "hit": false,
      "t": 71287.07999999989,
      "d": 193.0691749999969,
      "v": 76
    },
    {
      "midi": 73,
      "hit": false,
      "t": 71287.0799999999,
      "d": 193.0691749999969,
      "v": 55
    },
    {
      "midi": 84,
      "hit": false,
      "t": 71292.03049166666,
      "d": 1138.61308333333,
      "v": 88
    },
    {
      "midi": 44,
      "hit": false,
      "t": 71485.09966666655,
      "d": 193.0691749999969,
      "v": 84
    },
    {
      "midi": 75,
      "hit": false,
      "t": 71485.09966666656,
      "d": 193.0691749999969,
      "v": 72
    },
    {
      "midi": 80,
      "hit": false,
      "t": 71485.09966666705,
      "d": 94.05934166666702,
      "v": 100
    },
    {
      "midi": 49,
      "hit": false,
      "t": 71683.1193333332,
      "d": 193.0691749999969,
      "v": 68
    },
    {
      "midi": 77,
      "hit": false,
      "t": 71683.11933333322,
      "d": 193.0691749999969,
      "v": 71
    },
    {
      "midi": 80,
      "hit": false,
      "t": 71683.11933333371,
      "d": 94.05934166666702,
      "v": 90
    },
    {
      "midi": 55,
      "hit": false,
      "t": 71881.13899999986,
      "d": 193.0691749999969,
      "v": 76
    },
    {
      "midi": 79,
      "hit": false,
      "t": 71881.13899999988,
      "d": 193.0691749999969,
      "v": 63
    },
    {
      "midi": 80,
      "hit": false,
      "t": 71881.13900000039,
      "d": 94.05934166666702,
      "v": 80
    },
    {
      "midi": 56,
      "hit": false,
      "t": 72079.15866666652,
      "d": 193.0691749999969,
      "v": 70
    },
    {
      "midi": 80,
      "hit": false,
      "t": 72079.15866666654,
      "d": 193.0691749999969,
      "v": 71
    },
    {
      "midi": 80,
      "hit": false,
      "t": 72079.15866666706,
      "d": 94.05934166668158,
      "v": 70
    },
    {
      "midi": 58,
      "hit": false,
      "t": 72277.17833333318,
      "d": 193.0691749999969,
      "v": 80
    },
    {
      "midi": 77,
      "hit": false,
      "t": 72277.1783333332,
      "d": 193.0691749999969,
      "v": 72
    },
    {
      "midi": 80,
      "hit": false,
      "t": 72277.17833333375,
      "d": 94.05934166666702,
      "v": 60
    },
    {
      "midi": 77,
      "hit": false,
      "t": 72470.24750833333,
      "d": 1183.1675083333394,
      "v": 72
    },
    {
      "midi": 37,
      "hit": false,
      "t": 72475.19799999984,
      "d": 193.0691749999969,
      "v": 79
    },
    {
      "midi": 82,
      "hit": false,
      "t": 72475.19799999986,
      "d": 193.0691749999969,
      "v": 68
    },
    {
      "midi": 80,
      "hit": false,
      "t": 72475.19800000043,
      "d": 94.05934166666702,
      "v": 50
    },
    {
      "midi": 44,
      "hit": false,
      "t": 72673.2176666665,
      "d": 193.0691749999969,
      "v": 79
    },
    {
      "midi": 80,
      "hit": false,
      "t": 72673.21766666652,
      "d": 193.0691749999969,
      "v": 71
    },
    {
      "midi": 80,
      "hit": false,
      "t": 72673.21766666709,
      "d": 94.05934166668158,
      "v": 40
    },
    {
      "midi": 49,
      "hit": false,
      "t": 72871.23733333316,
      "d": 193.0691749999969,
      "v": 76
    },
    {
      "midi": 79,
      "hit": false,
      "t": 72871.23733333318,
      "d": 193.0691749999969,
      "v": 68
    },
    {
      "midi": 80,
      "hit": false,
      "t": 72871.23733333377,
      "d": 94.05934166666702,
      "v": 30
    },
    {
      "midi": 55,
      "hit": false,
      "t": 73069.25699999982,
      "d": 193.0691749999969,
      "v": 72
    },
    {
      "midi": 77,
      "hit": false,
      "t": 73069.25699999984,
      "d": 193.0691749999969,
      "v": 71
    },
    {
      "midi": 80,
      "hit": false,
      "t": 73069.25700000045,
      "d": 94.05934166668158,
      "v": 20
    },
    {
      "midi": 56,
      "hit": false,
      "t": 73267.27666666648,
      "d": 193.0691749999969,
      "v": 80
    },
    {
      "midi": 75,
      "hit": false,
      "t": 73267.2766666665,
      "d": 193.0691749999969,
      "v": 71
    },
    {
      "midi": 58,
      "hit": false,
      "t": 73465.29633333314,
      "d": 193.0691749999969,
      "v": 84
    },
    {
      "midi": 73,
      "hit": false,
      "t": 73465.29633333316,
      "d": 193.0691749999969,
      "v": 59
    },
    {
      "midi": 80,
      "hit": false,
      "t": 73658.36550833333,
      "d": 1257.4248833333404,
      "v": 71
    },
    {
      "midi": 41,
      "hit": false,
      "t": 73663.3159999998,
      "d": 193.0691749999969,
      "v": 80
    },
    {
      "midi": 79,
      "hit": false,
      "t": 73663.31599999982,
      "d": 193.0691749999969,
      "v": 68
    },
    {
      "midi": 48,
      "hit": false,
      "t": 73861.33566666646,
      "d": 193.0691749999969,
      "v": 79
    },
    {
      "midi": 77,
      "hit": false,
      "t": 73861.33566666648,
      "d": 193.0691749999969,
      "v": 46
    },
    {
      "midi": 79,
      "hit": false,
      "t": 73861.33566666713,
      "d": 94.05934166666702,
      "v": 100
    },
    {
      "midi": 53,
      "hit": false,
      "t": 74059.35533333312,
      "d": 193.0691749999969,
      "v": 64
    },
    {
      "midi": 82,
      "hit": false,
      "t": 74059.35533333314,
      "d": 193.0691749999969,
      "v": 72
    },
    {
      "midi": 79,
      "hit": false,
      "t": 74059.35533333379,
      "d": 94.05934166666702,
      "v": 90
    },
    {
      "midi": 55,
      "hit": false,
      "t": 74257.37499999978,
      "d": 193.0691749999969,
      "v": 64
    },
    {
      "midi": 80,
      "hit": false,
      "t": 74257.3749999998,
      "d": 193.0691749999969,
      "v": 72
    },
    {
      "midi": 79,
      "hit": false,
      "t": 74257.37500000047,
      "d": 94.05934166666702,
      "v": 80
    },
    {
      "midi": 56,
      "hit": false,
      "t": 74455.39466666644,
      "d": 193.0691749999969,
      "v": 64
    },
    {
      "midi": 79,
      "hit": false,
      "t": 74455.39466666646,
      "d": 193.0691749999969,
      "v": 88
    },
    {
      "midi": 79,
      "hit": false,
      "t": 74455.39466666714,
      "d": 94.05934166668158,
      "v": 70
    },
    {
      "midi": 58,
      "hit": false,
      "t": 74653.4143333331,
      "d": 193.0691749999969,
      "v": 68
    },
    {
      "midi": 77,
      "hit": false,
      "t": 74653.41433333312,
      "d": 193.0691749999969,
      "v": 76
    },
    {
      "midi": 79,
      "hit": false,
      "t": 74653.41433333383,
      "d": 94.05934166666702,
      "v": 60
    },
    {
      "midi": 82,
      "hit": false,
      "t": 74846.48350833333,
      "d": 1188.1180000000022,
      "v": 80
    },
    {
      "midi": 39,
      "hit": false,
      "t": 74851.43399999976,
      "d": 193.0691749999969,
      "v": 64
    },
    {
      "midi": 75,
      "hit": false,
      "t": 74851.43399999978,
      "d": 193.0691749999969,
      "v": 64
    },
    {
      "midi": 79,
      "hit": false,
      "t": 74851.4340000005,
      "d": 94.05934166666702,
      "v": 50
    },
    {
      "midi": 46,
      "hit": false,
      "t": 75049.45366666642,
      "d": 193.0691749999969,
      "v": 72
    },
    {
      "midi": 77,
      "hit": false,
      "t": 75049.45366666644,
      "d": 193.0691749999969,
      "v": 79
    },
    {
      "midi": 79,
      "hit": false,
      "t": 75049.45366666716,
      "d": 94.05934166668158,
      "v": 40
    },
    {
      "midi": 51,
      "hit": false,
      "t": 75247.47333333308,
      "d": 193.0691749999969,
      "v": 64
    },
    {
      "midi": 80,
      "hit": false,
      "t": 75247.4733333331,
      "d": 193.0691749999969,
      "v": 79
    },
    {
      "midi": 79,
      "hit": false,
      "t": 75247.47333333385,
      "d": 94.05934166666702,
      "v": 30
    },
    {
      "midi": 55,
      "hit": false,
      "t": 75445.49299999974,
      "d": 193.0691749999969,
      "v": 71
    },
    {
      "midi": 79,
      "hit": false,
      "t": 75445.49299999975,
      "d": 193.0691749999969,
      "v": 64
    },
    {
      "midi": 79,
      "hit": false,
      "t": 75445.49300000053,
      "d": 94.05934166668158,
      "v": 20
    },
    {
      "midi": 56,
      "hit": false,
      "t": 75643.5126666664,
      "d": 193.0691749999969,
      "v": 71
    },
    {
      "midi": 77,
      "hit": false,
      "t": 75643.51266666641,
      "d": 193.0691749999969,
      "v": 64
    },
    {
      "midi": 58,
      "hit": false,
      "t": 75841.53233333306,
      "d": 193.0691749999969,
      "v": 72
    },
    {
      "midi": 75,
      "hit": false,
      "t": 75841.53233333307,
      "d": 193.0691749999969,
      "v": 59
    },
    {
      "midi": 37,
      "hit": false,
      "t": 76039.55199999972,
      "d": 193.0691749999969,
      "v": 76
    },
    {
      "midi": 73,
      "hit": false,
      "t": 76039.55199999973,
      "d": 193.0691749999969,
      "v": 55
    },
    {
      "midi": 44,
      "hit": false,
      "t": 76237.57166666638,
      "d": 193.0691749999969,
      "v": 84
    },
    {
      "midi": 75,
      "hit": false,
      "t": 76237.5716666664,
      "d": 193.0691749999969,
      "v": 72
    },
    {
      "midi": 77,
      "hit": false,
      "t": 76237.57166666721,
      "d": 94.05934166666702,
      "v": 100
    },
    {
      "midi": 77,
      "hit": false,
      "t": 76430.64084166667,
      "d": 143.56425833333924,
      "v": 79
    },
    {
      "midi": 49,
      "hit": false,
      "t": 76435.59133333304,
      "d": 193.0691749999969,
      "v": 68
    },
    {
      "midi": 77,
      "hit": false,
      "t": 76435.59133333305,
      "d": 193.0691749999969,
      "v": 71
    },
    {
      "midi": 77,
      "hit": false,
      "t": 76435.59133333387,
      "d": 94.05934166666702,
      "v": 90
    },
    {
      "midi": 55,
      "hit": false,
      "t": 76633.6109999997,
      "d": 193.0691749999969,
      "v": 76
    },
    {
      "midi": 79,
      "hit": false,
      "t": 76633.61099999971,
      "d": 193.0691749999969,
      "v": 63
    },
    {
      "midi": 75,
      "hit": false,
      "t": 76633.611,
      "d": 118.81179999999586,
      "v": 76
    },
    {
      "midi": 77,
      "hit": false,
      "t": 76633.61100000054,
      "d": 94.05934166666702,
      "v": 80
    },
    {
      "midi": 56,
      "hit": false,
      "t": 76831.63066666636,
      "d": 193.0691749999969,
      "v": 70
    },
    {
      "midi": 80,
      "hit": false,
      "t": 76831.63066666637,
      "d": 193.0691749999969,
      "v": 71
    },
    {
      "midi": 77,
      "hit": false,
      "t": 76831.63066666722,
      "d": 94.05934166668158,
      "v": 70
    },
    {
      "midi": 77,
      "hit": false,
      "t": 76836.58115833333,
      "d": 410.8908083333372,
      "v": 88
    },
    {
      "midi": 58,
      "hit": false,
      "t": 77029.65033333302,
      "d": 193.0691749999969,
      "v": 80
    },
    {
      "midi": 77,
      "hit": false,
      "t": 77029.65033333303,
      "d": 193.0691749999969,
      "v": 72
    },
    {
      "midi": 77,
      "hit": false,
      "t": 77029.6503333339,
      "d": 94.05934166666702,
      "v": 60
    },
    {
      "midi": 37,
      "hit": false,
      "t": 77227.66999999968,
      "d": 193.0691749999969,
      "v": 79
    },
    {
      "midi": 82,
      "hit": false,
      "t": 77227.66999999969,
      "d": 193.0691749999969,
      "v": 68
    },
    {
      "midi": 77,
      "hit": false,
      "t": 77227.67000000058,
      "d": 94.05934166666702,
      "v": 50
    },
    {
      "midi": 75,
      "hit": false,
      "t": 77232.62049166666,
      "d": 133.66327499999898,
      "v": 80
    },
    {
      "midi": 44,
      "hit": false,
      "t": 77425.68966666634,
      "d": 193.0691749999969,
      "v": 79
    },
    {
      "midi": 80,
      "hit": false,
      "t": 77425.68966666635,
      "d": 193.0691749999969,
      "v": 71
    },
    {
      "midi": 77,
      "hit": false,
      "t": 77425.68966666724,
      "d": 94.05934166668158,
      "v": 40
    },
    {
      "midi": 77,
      "hit": false,
      "t": 77430.64015833332,
      "d": 113.861308333333,
      "v": 80
    },
    {
      "midi": 49,
      "hit": false,
      "t": 77623.709333333,
      "d": 193.0691749999969,
      "v": 76
    },
    {
      "midi": 79,
      "hit": false,
      "t": 77623.70933333301,
      "d": 193.0691749999969,
      "v": 68
    },
    {
      "midi": 77,
      "hit": false,
      "t": 77623.70933333393,
      "d": 94.05934166666702,
      "v": 30
    },
    {
      "midi": 75,
      "hit": false,
      "t": 77628.65982499998,
      "d": 128.71278333333612,
      "v": 72
    },
    {
      "midi": 55,
      "hit": false,
      "t": 77821.72899999966,
      "d": 193.0691749999969,
      "v": 72
    },
    {
      "midi": 77,
      "hit": false,
      "t": 77821.72899999967,
      "d": 193.0691749999969,
      "v": 71
    },
    {
      "midi": 77,
      "hit": false,
      "t": 77821.7290000006,
      "d": 94.05934166668158,
      "v": 20
    },
    {
      "midi": 77,
      "hit": false,
      "t": 77826.67949166665,
      "d": 133.66327499999898,
      "v": 79
    },
    {
      "midi": 56,
      "hit": false,
      "t": 78019.74866666632,
      "d": 193.0691749999969,
      "v": 80
    },
    {
      "midi": 75,
      "hit": false,
      "t": 78019.74866666633,
      "d": 193.0691749999969,
      "v": 71
    },
    {
      "midi": 75,
      "hit": false,
      "t": 78024.69915833331,
      "d": 128.71278333333612,
      "v": 88
    },
    {
      "midi": 58,
      "hit": false,
      "t": 78217.76833333298,
      "d": 193.0691749999969,
      "v": 84
    },
    {
      "midi": 73,
      "hit": false,
      "t": 78217.76833333299,
      "d": 193.0691749999969,
      "v": 59
    },
    {
      "midi": 46,
      "hit": false,
      "t": 78415.78799999964,
      "d": 193.0691749999969,
      "v": 80
    },
    {
      "midi": 84,
      "hit": false,
      "t": 78415.78799999965,
      "d": 193.0691749999969,
      "v": 68
    },
    {
      "midi": 94,
      "hit": false,
      "t": 78420.73849166665,
      "d": 74.25737500000105,
      "v": 80
    },
    {
      "midi": 82,
      "hit": false,
      "t": 78420.73849166665,
      "d": 777.227191666665,
      "v": 84
    },
    {
      "midi": 58,
      "hit": false,
      "t": 78613.8076666663,
      "d": 193.0691749999969,
      "v": 79
    },
    {
      "midi": 82,
      "hit": false,
      "t": 78613.80766666631,
      "d": 193.0691749999969,
      "v": 46
    },
    {
      "midi": 70,
      "hit": false,
      "t": 78792.02536666664,
      "d": 297.0295000000042,
      "v": 100
    },
    {
      "midi": 60,
      "hit": false,
      "t": 78811.82733333296,
      "d": 193.0691749999969,
      "v": 64
    },
    {
      "midi": 87,
      "hit": false,
      "t": 78811.82733333297,
      "d": 193.0691749999969,
      "v": 72
    },
    {
      "midi": 61,
      "hit": false,
      "t": 79009.84699999962,
      "d": 193.0691749999969,
      "v": 64
    },
    {
      "midi": 85,
      "hit": false,
      "t": 79009.84699999963,
      "d": 193.0691749999969,
      "v": 72
    },
    {
      "midi": 84,
      "hit": false,
      "t": 79202.91617499998,
      "d": 430.69277500000317,
      "v": 72
    },
    {
      "midi": 63,
      "hit": false,
      "t": 79207.86666666628,
      "d": 193.0691749999969,
      "v": 64
    },
    {
      "midi": 84,
      "hit": false,
      "t": 79207.86666666629,
      "d": 193.0691749999969,
      "v": 88
    },
    {
      "midi": 61,
      "hit": false,
      "t": 79405.88633333294,
      "d": 193.0691749999969,
      "v": 68
    },
    {
      "midi": 82,
      "hit": false,
      "t": 79405.88633333295,
      "d": 193.0691749999969,
      "v": 76
    },
    {
      "midi": 92,
      "hit": false,
      "t": 79598.95550833331,
      "d": 84.15835833332676,
      "v": 88
    },
    {
      "midi": 85,
      "hit": false,
      "t": 79598.95550833331,
      "d": 742.5737499999959,
      "v": 88
    },
    {
      "midi": 44,
      "hit": false,
      "t": 79603.9059999996,
      "d": 193.0691749999969,
      "v": 64
    },
    {
      "midi": 80,
      "hit": false,
      "t": 79603.90599999961,
      "d": 193.0691749999969,
      "v": 64
    },
    {
      "midi": 56,
      "hit": false,
      "t": 79801.92566666625,
      "d": 193.0691749999969,
      "v": 72
    },
    {
      "midi": 82,
      "hit": false,
      "t": 79801.92566666627,
      "d": 193.0691749999969,
      "v": 79
    },
    {
      "midi": 60,
      "hit": false,
      "t": 79999.94533333291,
      "d": 193.0691749999969,
      "v": 64
    },
    {
      "midi": 85,
      "hit": false,
      "t": 79999.94533333293,
      "d": 193.0691749999969,
      "v": 79
    },
    {
      "midi": 68,
      "hit": false,
      "t": 80004.89582499997,
      "d": 297.0295000000042,
      "v": 104
    },
    {
      "midi": 61,
      "hit": false,
      "t": 80197.96499999957,
      "d": 193.0691749999969,
      "v": 71
    },
    {
      "midi": 84,
      "hit": false,
      "t": 80197.96499999959,
      "d": 193.0691749999969,
      "v": 64
    },
    {
      "midi": 87,
      "hit": false,
      "t": 80391.03417499998,
      "d": 440.5937583333289,
      "v": 88
    },
    {
      "midi": 63,
      "hit": false,
      "t": 80395.98466666623,
      "d": 193.0691749999969,
      "v": 71
    },
    {
      "midi": 82,
      "hit": false,
      "t": 80395.98466666625,
      "d": 193.0691749999969,
      "v": 64
    },
    {
      "midi": 61,
      "hit": false,
      "t": 80594.0043333329,
      "d": 193.0691749999969,
      "v": 72
    },
    {
      "midi": 80,
      "hit": false,
      "t": 80594.00433333291,
      "d": 193.0691749999969,
      "v": 59
    },
    {
      "midi": 90,
      "hit": false,
      "t": 80787.0735083333,
      "d": 84.15835833332676,
      "v": 79
    },
    {
      "midi": 89,
      "hit": false,
      "t": 80787.07350833331,
      "d": 1232.672424999997,
      "v": 80
    },
    {
      "midi": 42,
      "hit": false,
      "t": 80792.02399999955,
      "d": 193.0691749999969,
      "v": 76
    },
    {
      "midi": 78,
      "hit": false,
      "t": 80792.02399999957,
      "d": 193.0691749999969,
      "v": 55
    },
    {
      "midi": 54,
      "hit": false,
      "t": 80990.04366666621,
      "d": 193.0691749999969,
      "v": 84
    },
    {
      "midi": 80,
      "hit": false,
      "t": 80990.04366666623,
      "d": 193.0691749999969,
      "v": 72
    },
    {
      "midi": 60,
      "hit": false,
      "t": 81188.06333333287,
      "d": 193.0691749999969,
      "v": 68
    },
    {
      "midi": 82,
      "hit": false,
      "t": 81188.06333333289,
      "d": 193.0691749999969,
      "v": 71
    },
    {
      "midi": 66,
      "hit": false,
      "t": 81207.86529999998,
      "d": 297.0295000000042,
      "v": 104
    },
    {
      "midi": 61,
      "hit": false,
      "t": 81386.08299999953,
      "d": 193.0691749999969,
      "v": 76
    },
    {
      "midi": 84,
      "hit": false,
      "t": 81386.08299999955,
      "d": 193.0691749999969,
      "v": 63
    },
    {
      "midi": 63,
      "hit": false,
      "t": 81584.1026666662,
      "d": 193.0691749999969,
      "v": 70
    },
    {
      "midi": 85,
      "hit": false,
      "t": 81584.10266666621,
      "d": 193.0691749999969,
      "v": 71
    },
    {
      "midi": 61,
      "hit": false,
      "t": 81782.12233333285,
      "d": 193.0691749999969,
      "v": 80
    },
    {
      "midi": 82,
      "hit": false,
      "t": 81782.12233333287,
      "d": 193.0691749999969,
      "v": 72
    },
    {
      "midi": 42,
      "hit": false,
      "t": 81980.14199999951,
      "d": 193.0691749999969,
      "v": 79
    },
    {
      "midi": 87,
      "hit": false,
      "t": 81980.14199999953,
      "d": 193.0691749999969,
      "v": 68
    },
    {
      "midi": 82,
      "hit": false,
      "t": 81985.09249166664,
      "d": 1207.9199666666682,
      "v": 79
    },
    {
      "midi": 54,
      "hit": false,
      "t": 82178.16166666617,
      "d": 193.0691749999969,
      "v": 79
    },
    {
      "midi": 85,
      "hit": false,
      "t": 82178.16166666619,
      "d": 193.0691749999969,
      "v": 71
    },
    {
      "midi": 60,
      "hit": false,
      "t": 82376.18133333283,
      "d": 193.0691749999969,
      "v": 76
    },
    {
      "midi": 84,
      "hit": false,
      "t": 82376.18133333285,
      "d": 193.0691749999969,
      "v": 68
    },
    {
      "midi": 61,
      "hit": false,
      "t": 82574.20099999949,
      "d": 193.0691749999969,
      "v": 72
    },
    {
      "midi": 82,
      "hit": false,
      "t": 82574.2009999995,
      "d": 193.0691749999969,
      "v": 71
    },
    {
      "midi": 63,
      "hit": false,
      "t": 82772.22066666615,
      "d": 193.0691749999969,
      "v": 80
    },
    {
      "midi": 80,
      "hit": false,
      "t": 82772.22066666617,
      "d": 193.0691749999969,
      "v": 71
    },
    {
      "midi": 61,
      "hit": false,
      "t": 82970.24033333281,
      "d": 193.0691749999969,
      "v": 84
    },
    {
      "midi": 78,
      "hit": false,
      "t": 82970.24033333283,
      "d": 193.0691749999969,
      "v": 59
    },
    {
      "midi": 46,
      "hit": false,
      "t": 83168.25999999947,
      "d": 193.0691749999969,
      "v": 80
    },
    {
      "midi": 84,
      "hit": false,
      "t": 83168.25999999949,
      "d": 193.0691749999969,
      "v": 68
    },
    {
      "midi": 94,
      "hit": false,
      "t": 83173.21049166663,
      "d": 89.10885000000417,
      "v": 80
    },
    {
      "midi": 58,
      "hit": false,
      "t": 83366.27966666613,
      "d": 193.0691749999969,
      "v": 79
    },
    {
      "midi": 82,
      "hit": false,
      "t": 83366.27966666615,
      "d": 193.0691749999969,
      "v": 46
    },
    {
      "midi": 70,
      "hit": false,
      "t": 83544.49736666665,
      "d": 297.0295000000042,
      "v": 100
    },
    {
      "midi": 60,
      "hit": false,
      "t": 83564.29933333279,
      "d": 193.0691749999969,
      "v": 64
    },
    {
      "midi": 87,
      "hit": false,
      "t": 83564.2993333328,
      "d": 193.0691749999969,
      "v": 72
    },
    {
      "midi": 85,
      "hit": false,
      "t": 83569.24982499998,
      "d": 178.21769999999378,
      "v": 88
    },
    {
      "midi": 84,
      "hit": false,
      "t": 83757.36850833331,
      "d": 193.0691749999969,
      "v": 80
    },
    {
      "midi": 61,
      "hit": false,
      "t": 83762.31899999945,
      "d": 193.0691749999969,
      "v": 64
    },
    {
      "midi": 85,
      "hit": false,
      "t": 83762.31899999946,
      "d": 193.0691749999969,
      "v": 72
    },
    {
      "midi": 63,
      "hit": false,
      "t": 83960.33866666611,
      "d": 193.0691749999969,
      "v": 64
    },
    {
      "midi": 84,
      "hit": false,
      "t": 83960.33866666612,
      "d": 193.0691749999969,
      "v": 88
    },
    {
      "midi": 82,
      "hit": false,
      "t": 83960.33866666665,
      "d": 183.1681916666712,
      "v": 72
    },
    {
      "midi": 84,
      "hit": false,
      "t": 84153.40784166666,
      "d": 217.82163333332574,
      "v": 79
    },
    {
      "midi": 61,
      "hit": false,
      "t": 84158.35833333277,
      "d": 193.0691749999969,
      "v": 68
    },
    {
      "midi": 82,
      "hit": false,
      "t": 84158.35833333278,
      "d": 193.0691749999969,
      "v": 76
    },
    {
      "midi": 92,
      "hit": false,
      "t": 84351.4275083333,
      "d": 84.15835833332676,
      "v": 80
    },
    {
      "midi": 82,
      "hit": false,
      "t": 84351.42750833332,
      "d": 668.3163749999949,
      "v": 88
    },
    {
      "midi": 44,
      "hit": false,
      "t": 84356.37799999943,
      "d": 193.0691749999969,
      "v": 64
    },
    {
      "midi": 80,
      "hit": false,
      "t": 84356.37799999944,
      "d": 193.0691749999969,
      "v": 64
    },
    {
      "midi": 56,
      "hit": false,
      "t": 84554.39766666609,
      "d": 193.0691749999969,
      "v": 72
    },
    {
      "midi": 82,
      "hit": false,
      "t": 84554.3976666661,
      "d": 193.0691749999969,
      "v": 79
    },
    {
      "midi": 60,
      "hit": false,
      "t": 84752.41733333275,
      "d": 193.0691749999969,
      "v": 64
    },
    {
      "midi": 85,
      "hit": false,
      "t": 84752.41733333276,
      "d": 193.0691749999969,
      "v": 79
    },
    {
      "midi": 68,
      "hit": false,
      "t": 84757.36782499998,
      "d": 297.0295000000042,
      "v": 104
    },
    {
      "midi": 61,
      "hit": false,
      "t": 84950.43699999941,
      "d": 193.0691749999969,
      "v": 71
    },
    {
      "midi": 84,
      "hit": false,
      "t": 84950.43699999942,
      "d": 193.0691749999969,
      "v": 64
    },
    {
      "midi": 80,
      "hit": false,
      "t": 85143.50617499999,
      "d": 232.67310833332886,
      "v": 80
    },
    {
      "midi": 63,
      "hit": false,
      "t": 85148.45666666607,
      "d": 193.0691749999969,
      "v": 71
    },
    {
      "midi": 82,
      "hit": false,
      "t": 85148.45666666608,
      "d": 193.0691749999969,
      "v": 64
    },
    {
      "midi": 61,
      "hit": false,
      "t": 85346.47633333273,
      "d": 193.0691749999969,
      "v": 72
    },
    {
      "midi": 80,
      "hit": false,
      "t": 85346.47633333274,
      "d": 193.0691749999969,
      "v": 59
    },
    {
      "midi": 90,
      "hit": false,
      "t": 85539.54550833329,
      "d": 89.10885000000417,
      "v": 80
    },
    {
      "midi": 42,
      "hit": false,
      "t": 85544.49599999939,
      "d": 193.0691749999969,
      "v": 76
    },
    {
      "midi": 78,
      "hit": false,
      "t": 85544.4959999994,
      "d": 193.0691749999969,
      "v": 55
    },
    {
      "midi": 82,
      "hit": false,
      "t": 85549.44649166665,
      "d": 173.26720833333093,
      "v": 76
    },
    {
      "midi": 80,
      "hit": false,
      "t": 85737.56517499998,
      "d": 178.21769999999378,
      "v": 64
    },
    {
      "midi": 54,
      "hit": false,
      "t": 85742.51566666605,
      "d": 193.0691749999969,
      "v": 84
    },
    {
      "midi": 80,
      "hit": false,
      "t": 85742.51566666606,
      "d": 193.0691749999969,
      "v": 72
    },
    {
      "midi": 82,
      "hit": false,
      "t": 85935.58484166664,
      "d": 207.92065000000002,
      "v": 64
    },
    {
      "midi": 60,
      "hit": false,
      "t": 85940.53533333271,
      "d": 193.0691749999969,
      "v": 68
    },
    {
      "midi": 82,
      "hit": false,
      "t": 85940.53533333272,
      "d": 193.0691749999969,
      "v": 71
    },
    {
      "midi": 66,
      "hit": false,
      "t": 85960.33729999998,
      "d": 297.0295000000042,
      "v": 104
    },
    {
      "midi": 80,
      "hit": false,
      "t": 86133.6045083333,
      "d": 207.92065000000002,
      "v": 72
    },
    {
      "midi": 61,
      "hit": false,
      "t": 86138.55499999937,
      "d": 193.0691749999969,
      "v": 76
    },
    {
      "midi": 84,
      "hit": false,
      "t": 86138.55499999938,
      "d": 193.0691749999969,
      "v": 63
    },
    {
      "midi": 63,
      "hit": false,
      "t": 86336.57466666603,
      "d": 193.0691749999969,
      "v": 70
    },
    {
      "midi": 85,
      "hit": false,
      "t": 86336.57466666604,
      "d": 193.0691749999969,
      "v": 71
    },
    {
      "midi": 77,
      "hit": false,
      "t": 86341.5251583333,
      "d": 1267.3258666666661,
      "v": 88
    },
    {
      "midi": 61,
      "hit": false,
      "t": 86534.59433333269,
      "d": 193.0691749999969,
      "v": 80
    },
    {
      "midi": 82,
      "hit": false,
      "t": 86534.5943333327,
      "d": 193.0691749999969,
      "v": 72
    },
    {
      "midi": 42,
      "hit": false,
      "t": 86732.61399999935,
      "d": 193.0691749999969,
      "v": 79
    },
    {
      "midi": 87,
      "hit": false,
      "t": 86732.61399999936,
      "d": 193.0691749999969,
      "v": 68
    },
    {
      "midi": 54,
      "hit": false,
      "t": 86930.633666666,
      "d": 193.0691749999969,
      "v": 79
    },
    {
      "midi": 85,
      "hit": false,
      "t": 86930.63366666602,
      "d": 193.0691749999969,
      "v": 71
    },
    {
      "midi": 60,
      "hit": false,
      "t": 87128.65333333267,
      "d": 193.0691749999969,
      "v": 76
    },
    {
      "midi": 84,
      "hit": false,
      "t": 87128.65333333268,
      "d": 193.0691749999969,
      "v": 68
    },
    {
      "midi": 61,
      "hit": false,
      "t": 87326.67299999933,
      "d": 193.0691749999969,
      "v": 72
    },
    {
      "midi": 82,
      "hit": false,
      "t": 87326.67299999934,
      "d": 193.0691749999969,
      "v": 71
    },
    {
      "midi": 63,
      "hit": false,
      "t": 87524.69266666599,
      "d": 193.0691749999969,
      "v": 80
    },
    {
      "midi": 80,
      "hit": false,
      "t": 87524.692666666,
      "d": 193.0691749999969,
      "v": 71
    },
    {
      "midi": 61,
      "hit": false,
      "t": 87722.71233333265,
      "d": 193.0691749999969,
      "v": 84
    },
    {
      "midi": 78,
      "hit": false,
      "t": 87722.71233333266,
      "d": 193.0691749999969,
      "v": 59
    },
    {
      "midi": 46,
      "hit": false,
      "t": 87920.7319999993,
      "d": 193.0691749999969,
      "v": 80
    },
    {
      "midi": 84,
      "hit": false,
      "t": 87920.73199999932,
      "d": 193.0691749999969,
      "v": 68
    },
    {
      "midi": 94,
      "hit": false,
      "t": 87920.73199999996,
      "d": 84.15835833332676,
      "v": 80
    },
    {
      "midi": 82,
      "hit": false,
      "t": 87925.68249166664,
      "d": 183.1681916666712,
      "v": 80
    },
    {
      "midi": 58,
      "hit": false,
      "t": 88118.75166666596,
      "d": 193.0691749999969,
      "v": 79
    },
    {
      "midi": 82,
      "hit": false,
      "t": 88118.75166666598,
      "d": 193.0691749999969,
      "v": 46
    },
    {
      "midi": 80,
      "hit": false,
      "t": 88123.70215833331,
      "d": 222.77212500000314,
      "v": 70
    },
    {
      "midi": 70,
      "hit": false,
      "t": 88296.96936666666,
      "d": 297.0295000000042,
      "v": 100
    },
    {
      "midi": 82,
      "hit": false,
      "t": 88311.82084166665,
      "d": 153.46524166666495,
      "v": 68
    },
    {
      "midi": 60,
      "hit": false,
      "t": 88316.77133333262,
      "d": 193.0691749999969,
      "v": 64
    },
    {
      "midi": 87,
      "hit": false,
      "t": 88316.77133333264,
      "d": 193.0691749999969,
      "v": 72
    },
    {
      "midi": 84,
      "hit": false,
      "t": 88509.8405083333,
      "d": 198.01966666665976,
      "v": 62
    },
    {
      "midi": 61,
      "hit": false,
      "t": 88514.79099999928,
      "d": 193.0691749999969,
      "v": 64
    },
    {
      "midi": 85,
      "hit": false,
      "t": 88514.7909999993,
      "d": 193.0691749999969,
      "v": 72
    },
    {
      "midi": 82,
      "hit": false,
      "t": 88707.86017499997,
      "d": 183.1681916666712,
      "v": 68
    },
    {
      "midi": 63,
      "hit": false,
      "t": 88712.81066666594,
      "d": 193.0691749999969,
      "v": 64
    },
    {
      "midi": 84,
      "hit": false,
      "t": 88712.81066666596,
      "d": 193.0691749999969,
      "v": 88
    },
    {
      "midi": 80,
      "hit": false,
      "t": 88905.87984166664,
      "d": 178.21769999999378,
      "v": 71
    },
    {
      "midi": 61,
      "hit": false,
      "t": 88910.8303333326,
      "d": 193.0691749999969,
      "v": 68
    },
    {
      "midi": 82,
      "hit": false,
      "t": 88910.83033333262,
      "d": 193.0691749999969,
      "v": 76
    },
    {
      "midi": 82,
      "hit": false,
      "t": 89103.8995083333,
      "d": 1009.9002999999939,
      "v": 76
    },
    {
      "midi": 44,
      "hit": false,
      "t": 89108.84999999926,
      "d": 193.0691749999969,
      "v": 64
    },
    {
      "midi": 80,
      "hit": false,
      "t": 89108.84999999928,
      "d": 193.0691749999969,
      "v": 64
    },
    {
      "midi": 92,
      "hit": false,
      "t": 89113.80049166663,
      "d": 84.15835833332676,
      "v": 80
    },
    {
      "midi": 56,
      "hit": false,
      "t": 89306.86966666592,
      "d": 193.0691749999969,
      "v": 72
    },
    {
      "midi": 82,
      "hit": false,
      "t": 89306.86966666594,
      "d": 193.0691749999969,
      "v": 79
    },
    {
      "midi": 60,
      "hit": false,
      "t": 89504.88933333258,
      "d": 193.0691749999969,
      "v": 64
    },
    {
      "midi": 85,
      "hit": false,
      "t": 89504.8893333326,
      "d": 193.0691749999969,
      "v": 79
    },
    {
      "midi": 68,
      "hit": false,
      "t": 89509.83982499999,
      "d": 297.0295000000042,
      "v": 104
    },
    {
      "midi": 61,
      "hit": false,
      "t": 89702.90899999924,
      "d": 193.0691749999969,
      "v": 71
    },
    {
      "midi": 84,
      "hit": false,
      "t": 89702.90899999926,
      "d": 193.0691749999969,
      "v": 64
    },
    {
      "midi": 63,
      "hit": false,
      "t": 89900.9286666659,
      "d": 193.0691749999969,
      "v": 71
    },
    {
      "midi": 82,
      "hit": false,
      "t": 89900.92866666592,
      "d": 193.0691749999969,
      "v": 64
    },
    {
      "midi": 61,
      "hit": false,
      "t": 90098.94833333256,
      "d": 193.0691749999969,
      "v": 72
    },
    {
      "midi": 80,
      "hit": false,
      "t": 90098.94833333258,
      "d": 193.0691749999969,
      "v": 59
    },
    {
      "midi": 90,
      "hit": false,
      "t": 90292.01750833329,
      "d": 99.00983333332988,
      "v": 80
    },
    {
      "midi": 82,
      "hit": false,
      "t": 90292.01750833329,
      "d": 178.21769999999378,
      "v": 88
    },
    {
      "midi": 42,
      "hit": false,
      "t": 90296.96799999922,
      "d": 193.0691749999969,
      "v": 76
    },
    {
      "midi": 78,
      "hit": false,
      "t": 90296.96799999924,
      "d": 193.0691749999969,
      "v": 55
    },
    {
      "midi": 80,
      "hit": false,
      "t": 90490.03717499995,
      "d": 222.7721249999886,
      "v": 68
    },
    {
      "midi": 54,
      "hit": false,
      "t": 90494.98766666588,
      "d": 193.0691749999969,
      "v": 84
    },
    {
      "midi": 80,
      "hit": false,
      "t": 90494.9876666659,
      "d": 193.0691749999969,
      "v": 72
    },
    {
      "midi": 82,
      "hit": false,
      "t": 90688.0568416666,
      "d": 188.11868333333405,
      "v": 64
    },
    {
      "midi": 60,
      "hit": false,
      "t": 90693.00733333254,
      "d": 193.0691749999969,
      "v": 68
    },
    {
      "midi": 82,
      "hit": false,
      "t": 90693.00733333256,
      "d": 193.0691749999969,
      "v": 71
    },
    {
      "midi": 66,
      "hit": false,
      "t": 90712.8093,
      "d": 297.0295000000042,
      "v": 104
    },
    {
      "midi": 84,
      "hit": false,
      "t": 90886.07650833328,
      "d": 232.67310833332886,
      "v": 64
    },
    {
      "midi": 61,
      "hit": false,
      "t": 90891.0269999992,
      "d": 193.0691749999969,
      "v": 76
    },
    {
      "midi": 84,
      "hit": false,
      "t": 90891.02699999922,
      "d": 193.0691749999969,
      "v": 63
    },
    {
      "midi": 82,
      "hit": false,
      "t": 91084.09617499994,
      "d": 202.97015833333717,
      "v": 76
    },
    {
      "midi": 63,
      "hit": false,
      "t": 91089.04666666586,
      "d": 193.0691749999969,
      "v": 70
    },
    {
      "midi": 85,
      "hit": false,
      "t": 91089.04666666588,
      "d": 193.0691749999969,
      "v": 71
    },
    {
      "midi": 80,
      "hit": false,
      "t": 91282.11584166661,
      "d": 198.01966666665976,
      "v": 68
    },
    {
      "midi": 61,
      "hit": false,
      "t": 91287.06633333252,
      "d": 193.0691749999969,
      "v": 80
    },
    {
      "midi": 82,
      "hit": false,
      "t": 91287.06633333254,
      "d": 193.0691749999969,
      "v": 72
    },
    {
      "midi": 77,
      "hit": false,
      "t": 91480.13550833327,
      "d": 1257.4248833333404,
      "v": 88
    },
    {
      "midi": 42,
      "hit": false,
      "t": 91485.08599999918,
      "d": 193.0691749999969,
      "v": 79
    },
    {
      "midi": 87,
      "hit": false,
      "t": 91485.0859999992,
      "d": 193.0691749999969,
      "v": 68
    },
    {
      "midi": 54,
      "hit": false,
      "t": 91683.10566666584,
      "d": 193.0691749999969,
      "v": 79
    },
    {
      "midi": 85,
      "hit": false,
      "t": 91683.10566666586,
      "d": 193.0691749999969,
      "v": 71
    },
    {
      "midi": 60,
      "hit": false,
      "t": 91881.1253333325,
      "d": 193.0691749999969,
      "v": 76
    },
    {
      "midi": 84,
      "hit": false,
      "t": 91881.12533333251,
      "d": 193.0691749999969,
      "v": 68
    },
    {
      "midi": 61,
      "hit": false,
      "t": 92079.14499999916,
      "d": 193.0691749999969,
      "v": 72
    },
    {
      "midi": 82,
      "hit": false,
      "t": 92079.14499999917,
      "d": 193.0691749999969,
      "v": 71
    },
    {
      "midi": 63,
      "hit": false,
      "t": 92277.16466666582,
      "d": 193.0691749999969,
      "v": 80
    },
    {
      "midi": 80,
      "hit": false,
      "t": 92277.16466666583,
      "d": 193.0691749999969,
      "v": 71
    },
    {
      "midi": 61,
      "hit": false,
      "t": 92475.18433333248,
      "d": 193.0691749999969,
      "v": 84
    },
    {
      "midi": 78,
      "hit": false,
      "t": 92475.1843333325,
      "d": 193.0691749999969,
      "v": 59
    },
    {
      "midi": 94,
      "hit": false,
      "t": 92668.25350833328,
      "d": 89.10885000000417,
      "v": 80
    },
    {
      "midi": 46,
      "hit": false,
      "t": 92673.20399999914,
      "d": 193.0691749999969,
      "v": 80
    },
    {
      "midi": 84,
      "hit": false,
      "t": 92673.20399999915,
      "d": 193.0691749999969,
      "v": 68
    },
    {
      "midi": 58,
      "hit": false,
      "t": 92871.2236666658,
      "d": 193.0691749999969,
      "v": 79
    },
    {
      "midi": 82,
      "hit": false,
      "t": 92871.22366666581,
      "d": 193.0691749999969,
      "v": 46
    },
    {
      "midi": 70,
      "hit": false,
      "t": 93049.44136666667,
      "d": 297.0295000000042,
      "v": 100
    },
    {
      "midi": 77,
      "hit": false,
      "t": 93064.29284166661,
      "d": 222.7721249999886,
      "v": 68
    },
    {
      "midi": 60,
      "hit": false,
      "t": 93069.24333333246,
      "d": 193.0691749999969,
      "v": 64
    },
    {
      "midi": 87,
      "hit": false,
      "t": 93069.24333333247,
      "d": 193.0691749999969,
      "v": 72
    },
    {
      "midi": 80,
      "hit": false,
      "t": 93262.31250833327,
      "d": 237.6235999999917,
      "v": 54
    },
    {
      "midi": 61,
      "hit": false,
      "t": 93267.26299999912,
      "d": 193.0691749999969,
      "v": 64
    },
    {
      "midi": 85,
      "hit": false,
      "t": 93267.26299999913,
      "d": 193.0691749999969,
      "v": 72
    },
    {
      "midi": 82,
      "hit": false,
      "t": 93460.33217499993,
      "d": 400.9898249999969,
      "v": 64
    },
    {
      "midi": 63,
      "hit": false,
      "t": 93465.28266666578,
      "d": 193.0691749999969,
      "v": 64
    },
    {
      "midi": 84,
      "hit": false,
      "t": 93465.2826666658,
      "d": 193.0691749999969,
      "v": 88
    },
    {
      "midi": 61,
      "hit": false,
      "t": 93663.30233333244,
      "d": 193.0691749999969,
      "v": 68
    },
    {
      "midi": 82,
      "hit": false,
      "t": 93663.30233333245,
      "d": 193.0691749999969,
      "v": 76
    },
    {
      "midi": 44,
      "hit": false,
      "t": 93861.3219999991,
      "d": 193.0691749999969,
      "v": 64
    },
    {
      "midi": 80,
      "hit": false,
      "t": 93861.32199999911,
      "d": 193.0691749999969,
      "v": 64
    },
    {
      "midi": 77,
      "hit": false,
      "t": 93866.27249166659,
      "d": 178.21769999999378,
      "v": 72
    },
    {
      "midi": 92,
      "hit": false,
      "t": 93866.27249166662,
      "d": 89.10885000000417,
      "v": 80
    },
    {
      "midi": 56,
      "hit": false,
      "t": 94059.34166666576,
      "d": 193.0691749999969,
      "v": 72
    },
    {
      "midi": 82,
      "hit": false,
      "t": 94059.34166666577,
      "d": 193.0691749999969,
      "v": 79
    },
    {
      "midi": 80,
      "hit": false,
      "t": 94059.34166666659,
      "d": 193.0691749999969,
      "v": 61
    },
    {
      "midi": 82,
      "hit": false,
      "t": 94252.41084166658,
      "d": 396.03933333333407,
      "v": 72
    },
    {
      "midi": 60,
      "hit": false,
      "t": 94257.36133333242,
      "d": 193.0691749999969,
      "v": 64
    },
    {
      "midi": 85,
      "hit": false,
      "t": 94257.36133333243,
      "d": 193.0691749999969,
      "v": 79
    },
    {
      "midi": 68,
      "hit": false,
      "t": 94262.311825,
      "d": 297.0295000000042,
      "v": 104
    },
    {
      "midi": 61,
      "hit": false,
      "t": 94455.38099999908,
      "d": 193.0691749999969,
      "v": 71
    },
    {
      "midi": 84,
      "hit": false,
      "t": 94455.38099999909,
      "d": 193.0691749999969,
      "v": 64
    },
    {
      "midi": 77,
      "hit": false,
      "t": 94648.45017499992,
      "d": 460.39572499999485,
      "v": 76
    },
    {
      "midi": 63,
      "hit": false,
      "t": 94653.40066666574,
      "d": 193.0691749999969,
      "v": 71
    },
    {
      "midi": 82,
      "hit": false,
      "t": 94653.40066666575,
      "d": 193.0691749999969,
      "v": 64
    },
    {
      "midi": 61,
      "hit": false,
      "t": 94851.4203333324,
      "d": 193.0691749999969,
      "v": 72
    },
    {
      "midi": 80,
      "hit": false,
      "t": 94851.42033333241,
      "d": 193.0691749999969,
      "v": 59
    },
    {
      "midi": 90,
      "hit": false,
      "t": 95044.4895083333,
      "d": 89.10885000000417,
      "v": 80
    },
    {
      "midi": 42,
      "hit": false,
      "t": 95049.43999999906,
      "d": 193.0691749999969,
      "v": 76
    },
    {
      "midi": 78,
      "hit": false,
      "t": 95049.43999999907,
      "d": 193.0691749999969,
      "v": 55
    },
    {
      "midi": 75,
      "hit": false,
      "t": 95054.39049166658,
      "d": 1648.513724999997,
      "v": 72
    },
    {
      "midi": 54,
      "hit": false,
      "t": 95247.45966666572,
      "d": 193.0691749999969,
      "v": 84
    },
    {
      "midi": 80,
      "hit": false,
      "t": 95247.45966666573,
      "d": 193.0691749999969,
      "v": 72
    },
    {
      "midi": 60,
      "hit": false,
      "t": 95445.47933333238,
      "d": 193.0691749999969,
      "v": 68
    },
    {
      "midi": 82,
      "hit": false,
      "t": 95445.47933333239,
      "d": 193.0691749999969,
      "v": 71
    },
    {
      "midi": 66,
      "hit": false,
      "t": 95465.2813,
      "d": 297.0295000000042,
      "v": 104
    },
    {
      "midi": 61,
      "hit": false,
      "t": 95643.49899999904,
      "d": 193.0691749999969,
      "v": 76
    },
    {
      "midi": 84,
      "hit": false,
      "t": 95643.49899999905,
      "d": 193.0691749999969,
      "v": 63
    },
    {
      "midi": 63,
      "hit": false,
      "t": 95841.5186666657,
      "d": 193.0691749999969,
      "v": 70
    },
    {
      "midi": 85,
      "hit": false,
      "t": 95841.51866666571,
      "d": 193.0691749999969,
      "v": 71
    },
    {
      "midi": 61,
      "hit": false,
      "t": 96039.53833333236,
      "d": 193.0691749999969,
      "v": 80
    },
    {
      "midi": 82,
      "hit": false,
      "t": 96039.53833333237,
      "d": 193.0691749999969,
      "v": 72
    },
    {
      "midi": 42,
      "hit": false,
      "t": 96237.55799999902,
      "d": 193.0691749999969,
      "v": 79
    },
    {
      "midi": 87,
      "hit": false,
      "t": 96237.55799999903,
      "d": 193.0691749999969,
      "v": 68
    },
    {
      "midi": 70,
      "hit": false,
      "t": 96237.558,
      "d": 193.0691750000551,
      "v": 80
    },
    {
      "midi": 54,
      "hit": false,
      "t": 96435.57766666567,
      "d": 193.0691749999969,
      "v": 79
    },
    {
      "midi": 85,
      "hit": false,
      "t": 96435.57766666569,
      "d": 193.0691749999969,
      "v": 71
    },
    {
      "midi": 70,
      "hit": false,
      "t": 96435.57766666672,
      "d": 193.0691750000551,
      "v": 80
    },
    {
      "midi": 60,
      "hit": false,
      "t": 96633.59733333233,
      "d": 193.0691749999969,
      "v": 76
    },
    {
      "midi": 84,
      "hit": false,
      "t": 96633.59733333235,
      "d": 193.0691749999969,
      "v": 68
    },
    {
      "midi": 70,
      "hit": false,
      "t": 96633.59733333344,
      "d": 193.0691750000551,
      "v": 80
    },
    {
      "midi": 61,
      "hit": false,
      "t": 96831.616999999,
      "d": 193.0691749999969,
      "v": 72
    },
    {
      "midi": 82,
      "hit": false,
      "t": 96831.61699999901,
      "d": 193.0691749999969,
      "v": 71
    },
    {
      "midi": 70,
      "hit": false,
      "t": 96831.61700000016,
      "d": 193.0691750000551,
      "v": 84
    },
    {
      "midi": 63,
      "hit": false,
      "t": 97029.63666666565,
      "d": 193.0691749999969,
      "v": 80
    },
    {
      "midi": 80,
      "hit": false,
      "t": 97029.63666666567,
      "d": 193.0691749999969,
      "v": 71
    },
    {
      "midi": 70,
      "hit": false,
      "t": 97029.63666666688,
      "d": 193.0691750000551,
      "v": 80
    },
    {
      "midi": 61,
      "hit": false,
      "t": 97227.65633333231,
      "d": 193.0691749999969,
      "v": 84
    },
    {
      "midi": 78,
      "hit": false,
      "t": 97227.65633333233,
      "d": 193.0691749999969,
      "v": 59
    },
    {
      "midi": 70,
      "hit": false,
      "t": 97227.6563333336,
      "d": 193.0691749999969,
      "v": 80
    },
    {
      "midi": 87,
      "hit": false,
      "t": 97405.87403333334,
      "d": 9465.340066666773,
      "v": 70
    },
    {
      "midi": 41,
      "hit": false,
      "t": 97425.67599999897,
      "d": 193.0691749999969,
      "v": 76
    },
    {
      "midi": 70,
      "hit": false,
      "t": 97425.67599999972,
      "d": 1103.9596416666755,
      "v": 50
    },
    {
      "midi": 58,
      "hit": false,
      "t": 97425.67599999972,
      "d": 1103.9596416666755,
      "v": 94
    },
    {
      "midi": 70,
      "hit": false,
      "t": 97425.67600000025,
      "d": 193.069175000026,
      "v": 80
    },
    {
      "midi": 58,
      "hit": false,
      "t": 97618.74517499899,
      "d": 193.0691749999969,
      "v": 80
    },
    {
      "midi": 49,
      "hit": false,
      "t": 97623.69566666563,
      "d": 193.0691749999969,
      "v": 71
    },
    {
      "midi": 70,
      "hit": false,
      "t": 97623.69566666694,
      "d": 193.06917500004056,
      "v": 80
    },
    {
      "midi": 56,
      "hit": false,
      "t": 97816.76484166564,
      "d": 193.0691749999969,
      "v": 72
    },
    {
      "midi": 94,
      "hit": false,
      "t": 97816.76484166658,
      "d": 108.91081666667014,
      "v": 72
    },
    {
      "midi": 53,
      "hit": false,
      "t": 97821.7153333323,
      "d": 193.0691749999969,
      "v": 64
    },
    {
      "midi": 70,
      "hit": false,
      "t": 97821.71533333365,
      "d": 193.06917500004056,
      "v": 80
    },
    {
      "midi": 55,
      "hit": false,
      "t": 98014.7845083323,
      "d": 193.0691749999969,
      "v": 63
    },
    {
      "midi": 92,
      "hit": false,
      "t": 98014.78450833325,
      "d": 74.25737500000105,
      "v": 72
    },
    {
      "midi": 55,
      "hit": false,
      "t": 98019.73499999895,
      "d": 193.0691749999969,
      "v": 62
    },
    {
      "midi": 70,
      "hit": false,
      "t": 98019.73500000035,
      "d": 193.069175000026,
      "v": 84
    },
    {
      "midi": 53,
      "hit": false,
      "t": 98212.80417499896,
      "d": 193.0691749999969,
      "v": 72
    },
    {
      "midi": 94,
      "hit": false,
      "t": 98212.80417499992,
      "d": 69.30688333333819,
      "v": 71
    },
    {
      "midi": 56,
      "hit": false,
      "t": 98217.75466666561,
      "d": 193.0691749999969,
      "v": 76
    },
    {
      "midi": 70,
      "hit": false,
      "t": 98217.75466666704,
      "d": 193.06917500004056,
      "v": 80
    },
    {
      "midi": 49,
      "hit": false,
      "t": 98410.82384166562,
      "d": 193.0691749999969,
      "v": 72
    },
    {
      "midi": 96,
      "hit": false,
      "t": 98410.8238416666,
      "d": 103.96032499999274,
      "v": 71
    },
    {
      "midi": 58,
      "hit": false,
      "t": 98415.77433333227,
      "d": 193.0691749999969,
      "v": 72
    },
    {
      "midi": 70,
      "hit": false,
      "t": 98415.77433333374,
      "d": 193.06917500004056,
      "v": 80
    },
    {
      "midi": 41,
      "hit": false,
      "t": 98608.84350833228,
      "d": 193.0691749999969,
      "v": 79
    },
    {
      "midi": 94,
      "hit": false,
      "t": 98608.84350833326,
      "d": 376.2373666666681,
      "v": 80
    },
    {
      "midi": 41,
      "hit": false,
      "t": 98613.79399999893,
      "d": 193.0691749999969,
      "v": 79
    },
    {
      "midi": 51,
      "hit": false,
      "t": 98613.79399999973,
      "d": 1212.8704583333456,
      "v": 104
    },
    {
      "midi": 63,
      "hit": false,
      "t": 98613.79399999973,
      "d": 1212.8704583333456,
      "v": 60
    },
    {
      "midi": 58,
      "hit": false,
      "t": 98806.86317499894,
      "d": 193.0691749999969,
      "v": 72
    },
    {
      "midi": 49,
      "hit": false,
      "t": 98811.81366666559,
      "d": 193.0691749999969,
      "v": 72
    },
    {
      "midi": 56,
      "hit": false,
      "t": 99004.8828416656,
      "d": 193.0691749999969,
      "v": 76
    },
    {
      "midi": 87,
      "hit": false,
      "t": 99004.8828416666,
      "d": 653.4649000000063,
      "v": 84
    },
    {
      "midi": 53,
      "hit": false,
      "t": 99009.83333333225,
      "d": 193.0691749999969,
      "v": 72
    },
    {
      "midi": 55,
      "hit": false,
      "t": 99202.90250833226,
      "d": 193.0691749999969,
      "v": 62
    },
    {
      "midi": 55,
      "hit": false,
      "t": 99207.85299999891,
      "d": 193.0691749999969,
      "v": 63
    },
    {
      "midi": 53,
      "hit": false,
      "t": 99400.92217499892,
      "d": 193.0691749999969,
      "v": 64
    },
    {
      "midi": 56,
      "hit": false,
      "t": 99405.87266666557,
      "d": 193.0691749999969,
      "v": 72
    },
    {
      "midi": 49,
      "hit": false,
      "t": 99598.94184166558,
      "d": 193.0691749999969,
      "v": 71
    },
    {
      "midi": 58,
      "hit": false,
      "t": 99603.89233333223,
      "d": 193.0691749999969,
      "v": 80
    },
    {
      "midi": 41,
      "hit": false,
      "t": 99796.96150833224,
      "d": 193.0691749999969,
      "v": 76
    },
    {
      "midi": 39,
      "hit": false,
      "t": 99801.91199999889,
      "d": 193.0691749999969,
      "v": 76
    },
    {
      "midi": 55,
      "hit": false,
      "t": 99801.91199999973,
      "d": 1242.5734083333518,
      "v": 88
    },
    {
      "midi": 67,
      "hit": false,
      "t": 99801.91199999973,
      "d": 1242.5734083333518,
      "v": 44
    },
    {
      "midi": 63,
      "hit": false,
      "t": 99994.9811749989,
      "d": 193.0691749999969,
      "v": 68
    },
    {
      "midi": 46,
      "hit": false,
      "t": 99999.93166666555,
      "d": 193.0691749999969,
      "v": 76
    },
    {
      "midi": 58,
      "hit": false,
      "t": 100193.00084166556,
      "d": 193.0691749999969,
      "v": 76
    },
    {
      "midi": 94,
      "hit": false,
      "t": 100193.0008416666,
      "d": 103.96032499999274,
      "v": 71
    },
    {
      "midi": 51,
      "hit": false,
      "t": 100197.95133333221,
      "d": 193.0691749999969,
      "v": 88
    },
    {
      "midi": 55,
      "hit": false,
      "t": 100391.02050833222,
      "d": 193.0691749999969,
      "v": 62
    },
    {
      "midi": 92,
      "hit": false,
      "t": 100391.02050833325,
      "d": 84.15835833332676,
      "v": 68
    },
    {
      "midi": 55,
      "hit": false,
      "t": 100395.97099999887,
      "d": 193.0691749999969,
      "v": 73
    },
    {
      "midi": 51,
      "hit": false,
      "t": 100589.04017499888,
      "d": 193.0691749999969,
      "v": 68
    },
    {
      "midi": 91,
      "hit": false,
      "t": 100589.04017499991,
      "d": 108.91081666667014,
      "v": 64
    },
    {
      "midi": 58,
      "hit": false,
      "t": 100593.99066666553,
      "d": 193.0691749999969,
      "v": 80
    },
    {
      "midi": 46,
      "hit": false,
      "t": 100787.05984166554,
      "d": 193.0691749999969,
      "v": 62
    },
    {
      "midi": 92,
      "hit": false,
      "t": 100787.05984166659,
      "d": 99.00983333332988,
      "v": 76
    },
    {
      "midi": 63,
      "hit": false,
      "t": 100792.01033333219,
      "d": 193.0691749999969,
      "v": 72
    },
    {
      "midi": 39,
      "hit": false,
      "t": 100985.0795083322,
      "d": 193.0691749999969,
      "v": 72
    },
    {
      "midi": 91,
      "hit": false,
      "t": 100985.07950833325,
      "d": 386.1383499999938,
      "v": 72
    },
    {
      "midi": 39,
      "hit": false,
      "t": 100990.02999999885,
      "d": 193.0691749999969,
      "v": 72
    },
    {
      "midi": 51,
      "hit": false,
      "t": 100990.02999999975,
      "d": 1193.068491666665,
      "v": 94
    },
    {
      "midi": 63,
      "hit": false,
      "t": 100990.02999999975,
      "d": 1193.068491666665,
      "v": 50
    },
    {
      "midi": 63,
      "hit": false,
      "t": 101183.09917499886,
      "d": 193.0691749999969,
      "v": 72
    },
    {
      "midi": 46,
      "hit": false,
      "t": 101188.04966666551,
      "d": 193.0691749999969,
      "v": 62
    },
    {
      "midi": 58,
      "hit": false,
      "t": 101381.11884166552,
      "d": 193.0691749999969,
      "v": 80
    },
    {
      "midi": 87,
      "hit": false,
      "t": 101381.11884166657,
      "d": 415.84130000000005,
      "v": 71
    },
    {
      "midi": 51,
      "hit": false,
      "t": 101386.06933333217,
      "d": 193.0691749999969,
      "v": 68
    },
    {
      "midi": 55,
      "hit": false,
      "t": 101579.13850833218,
      "d": 193.0691749999969,
      "v": 73
    },
    {
      "midi": 55,
      "hit": false,
      "t": 101584.08899999883,
      "d": 193.0691749999969,
      "v": 62
    },
    {
      "midi": 51,
      "hit": false,
      "t": 101777.15817499884,
      "d": 193.0691749999969,
      "v": 88
    },
    {
      "midi": 58,
      "hit": false,
      "t": 101782.10866666549,
      "d": 193.0691749999969,
      "v": 76
    },
    {
      "midi": 46,
      "hit": false,
      "t": 101975.1778416655,
      "d": 193.0691749999969,
      "v": 76
    },
    {
      "midi": 63,
      "hit": false,
      "t": 101980.12833333215,
      "d": 193.0691749999969,
      "v": 68
    },
    {
      "midi": 39,
      "hit": false,
      "t": 102173.19750833216,
      "d": 193.0691749999969,
      "v": 76
    },
    {
      "midi": 41,
      "hit": false,
      "t": 102178.14799999881,
      "d": 193.0691749999969,
      "v": 76
    },
    {
      "midi": 68,
      "hit": false,
      "t": 102178.14799999975,
      "d": 1188.1180000000168,
      "v": 46
    },
    {
      "midi": 56,
      "hit": false,
      "t": 102178.14799999975,
      "d": 1188.1180000000168,
      "v": 90
    },
    {
      "midi": 58,
      "hit": false,
      "t": 102371.21717499882,
      "d": 193.0691749999969,
      "v": 80
    },
    {
      "midi": 49,
      "hit": false,
      "t": 102376.16766666547,
      "d": 193.0691749999969,
      "v": 71
    },
    {
      "midi": 56,
      "hit": false,
      "t": 102569.23684166548,
      "d": 193.0691749999969,
      "v": 72
    },
    {
      "midi": 53,
      "hit": false,
      "t": 102574.18733333213,
      "d": 193.0691749999969,
      "v": 64
    },
    {
      "midi": 92,
      "hit": false,
      "t": 102579.1378249999,
      "d": 89.10885000000417,
      "v": 84
    },
    {
      "midi": 55,
      "hit": false,
      "t": 102767.25650833214,
      "d": 193.0691749999969,
      "v": 63
    },
    {
      "midi": 55,
      "hit": false,
      "t": 102772.20699999879,
      "d": 193.0691749999969,
      "v": 62
    },
    {
      "midi": 91,
      "hit": false,
      "t": 102777.15749166657,
      "d": 103.96032499999274,
      "v": 72
    },
    {
      "midi": 53,
      "hit": false,
      "t": 102965.2761749988,
      "d": 193.0691749999969,
      "v": 72
    },
    {
      "midi": 56,
      "hit": false,
      "t": 102970.22666666545,
      "d": 193.0691749999969,
      "v": 76
    },
    {
      "midi": 89,
      "hit": false,
      "t": 102975.17715833323,
      "d": 69.30688333333819,
      "v": 72
    },
    {
      "midi": 49,
      "hit": false,
      "t": 103163.29584166546,
      "d": 193.0691749999969,
      "v": 72
    },
    {
      "midi": 58,
      "hit": false,
      "t": 103168.2463333321,
      "d": 193.0691749999969,
      "v": 72
    },
    {
      "midi": 91,
      "hit": false,
      "t": 103168.24633333324,
      "d": 99.00983333332988,
      "v": 76
    },
    {
      "midi": 41,
      "hit": false,
      "t": 103361.31550833212,
      "d": 193.0691749999969,
      "v": 79
    },
    {
      "midi": 41,
      "hit": false,
      "t": 103366.26599999877,
      "d": 193.0691749999969,
      "v": 79
    },
    {
      "midi": 53,
      "hit": false,
      "t": 103366.26599999977,
      "d": 1232.6724250000116,
      "v": 104
    },
    {
      "midi": 65,
      "hit": false,
      "t": 103366.26599999977,
      "d": 1232.6724250000116,
      "v": 60
    },
    {
      "midi": 89,
      "hit": false,
      "t": 103371.21649166656,
      "d": 811.8806333333341,
      "v": 80
    },
    {
      "midi": 58,
      "hit": false,
      "t": 103559.33517499878,
      "d": 193.0691749999969,
      "v": 72
    },
    {
      "midi": 49,
      "hit": false,
      "t": 103564.28566666543,
      "d": 193.0691749999969,
      "v": 72
    },
    {
      "midi": 56,
      "hit": false,
      "t": 103757.35484166544,
      "d": 193.0691749999969,
      "v": 76
    },
    {
      "midi": 53,
      "hit": false,
      "t": 103762.30533333209,
      "d": 193.0691749999969,
      "v": 72
    },
    {
      "midi": 55,
      "hit": false,
      "t": 103955.3745083321,
      "d": 193.0691749999969,
      "v": 62
    },
    {
      "midi": 55,
      "hit": false,
      "t": 103960.32499999875,
      "d": 193.0691749999969,
      "v": 63
    },
    {
      "midi": 53,
      "hit": false,
      "t": 104153.39417499876,
      "d": 193.0691749999969,
      "v": 64
    },
    {
      "midi": 56,
      "hit": false,
      "t": 104158.3446666654,
      "d": 193.0691749999969,
      "v": 72
    },
    {
      "midi": 49,
      "hit": false,
      "t": 104351.41384166542,
      "d": 193.0691749999969,
      "v": 71
    },
    {
      "midi": 58,
      "hit": false,
      "t": 104356.36433333207,
      "d": 193.0691749999969,
      "v": 80
    },
    {
      "midi": 41,
      "hit": false,
      "t": 104549.43350833208,
      "d": 193.0691749999969,
      "v": 76
    },
    {
      "midi": 39,
      "hit": false,
      "t": 104554.38399999872,
      "d": 193.0691749999969,
      "v": 76
    },
    {
      "midi": 51,
      "hit": false,
      "t": 104554.38399999977,
      "d": 2405.938950000025,
      "v": 104
    },
    {
      "midi": 63,
      "hit": false,
      "t": 104554.38399999977,
      "d": 2405.938950000025,
      "v": 60
    },
    {
      "midi": 63,
      "hit": false,
      "t": 104747.45317499874,
      "d": 193.0691749999969,
      "v": 68
    },
    {
      "midi": 46,
      "hit": false,
      "t": 104752.40366666538,
      "d": 193.0691749999969,
      "v": 76
    },
    {
      "midi": 58,
      "hit": false,
      "t": 104945.4728416654,
      "d": 193.0691749999969,
      "v": 76
    },
    {
      "midi": 51,
      "hit": false,
      "t": 104950.42333333204,
      "d": 193.0691749999969,
      "v": 88
    },
    {
      "midi": 92,
      "hit": false,
      "t": 104955.3738249999,
      "d": 89.10885000000417,
      "v": 80
    },
    {
      "midi": 55,
      "hit": false,
      "t": 105143.49250833206,
      "d": 193.0691749999969,
      "v": 62
    },
    {
      "midi": 91,
      "hit": false,
      "t": 105143.49250833323,
      "d": 103.96032499999274,
      "v": 76
    },
    {
      "midi": 55,
      "hit": false,
      "t": 105148.4429999987,
      "d": 193.0691749999969,
      "v": 73
    },
    {
      "midi": 51,
      "hit": false,
      "t": 105341.51217499872,
      "d": 193.0691749999969,
      "v": 68
    },
    {
      "midi": 89,
      "hit": false,
      "t": 105341.5121749999,
      "d": 94.05934166666702,
      "v": 76
    },
    {
      "midi": 58,
      "hit": false,
      "t": 105346.46266666536,
      "d": 193.0691749999969,
      "v": 80
    },
    {
      "midi": 46,
      "hit": false,
      "t": 105539.53184166538,
      "d": 193.0691749999969,
      "v": 62
    },
    {
      "midi": 91,
      "hit": false,
      "t": 105539.53184166655,
      "d": 118.81179999999586,
      "v": 80
    },
    {
      "midi": 63,
      "hit": false,
      "t": 105544.48233333202,
      "d": 193.0691749999969,
      "v": 72
    },
    {
      "midi": 39,
      "hit": false,
      "t": 105737.55150833204,
      "d": 193.0691749999969,
      "v": 72
    },
    {
      "midi": 39,
      "hit": false,
      "t": 105742.50199999868,
      "d": 193.0691749999969,
      "v": 72
    },
    {
      "midi": 87,
      "hit": false,
      "t": 105747.45249166654,
      "d": 960.3953833333362,
      "v": 76
    },
    {
      "midi": 63,
      "hit": false,
      "t": 105935.5711749987,
      "d": 193.0691749999969,
      "v": 72
    },
    {
      "midi": 46,
      "hit": false,
      "t": 105940.52166666534,
      "d": 193.0691749999969,
      "v": 62
    },
    {
      "midi": 58,
      "hit": false,
      "t": 106133.59084166535,
      "d": 193.0691749999969,
      "v": 80
    },
    {
      "midi": 51,
      "hit": false,
      "t": 106138.541333332,
      "d": 193.0691749999969,
      "v": 68
    },
    {
      "midi": 55,
      "hit": false,
      "t": 106331.61050833201,
      "d": 193.0691749999969,
      "v": 73
    },
    {
      "midi": 55,
      "hit": false,
      "t": 106336.56099999866,
      "d": 193.0691749999969,
      "v": 62
    },
    {
      "midi": 51,
      "hit": false,
      "t": 106529.63017499867,
      "d": 193.0691749999969,
      "v": 88
    },
    {
      "midi": 58,
      "hit": false,
      "t": 106534.58066666532,
      "d": 193.0691749999969,
      "v": 76
    },
    {
      "midi": 46,
      "hit": false,
      "t": 106727.64984166533,
      "d": 193.0691749999969,
      "v": 76
    },
    {
      "midi": 63,
      "hit": false,
      "t": 106732.60033333198,
      "d": 193.0691749999969,
      "v": 68
    },
    {
      "midi": 39,
      "hit": false,
      "t": 106925.669508332,
      "d": 193.0691749999969,
      "v": 76
    },
    {
      "midi": 41,
      "hit": false,
      "t": 106930.61999999864,
      "d": 193.0691749999969,
      "v": 76
    },
    {
      "midi": 70,
      "hit": false,
      "t": 106930.61999999979,
      "d": 1217.8209500000085,
      "v": 60
    },
    {
      "midi": 58,
      "hit": false,
      "t": 106930.61999999979,
      "d": 1217.8209500000085,
      "v": 104
    },
    {
      "midi": 58,
      "hit": false,
      "t": 107123.68917499865,
      "d": 193.0691749999969,
      "v": 80
    },
    {
      "midi": 49,
      "hit": false,
      "t": 107128.6396666653,
      "d": 193.0691749999969,
      "v": 71
    },
    {
      "midi": 56,
      "hit": false,
      "t": 107321.70884166531,
      "d": 193.0691749999969,
      "v": 72
    },
    {
      "midi": 94,
      "hit": false,
      "t": 107321.70884166654,
      "d": 108.91081666667014,
      "v": 72
    },
    {
      "midi": 53,
      "hit": false,
      "t": 107326.65933333196,
      "d": 193.0691749999969,
      "v": 64
    },
    {
      "midi": 55,
      "hit": false,
      "t": 107519.72850833197,
      "d": 193.0691749999969,
      "v": 63
    },
    {
      "midi": 92,
      "hit": false,
      "t": 107519.72850833321,
      "d": 74.25737500000105,
      "v": 72
    },
    {
      "midi": 55,
      "hit": false,
      "t": 107524.67899999862,
      "d": 193.0691749999969,
      "v": 62
    },
    {
      "midi": 53,
      "hit": false,
      "t": 107717.74817499863,
      "d": 193.0691749999969,
      "v": 72
    },
    {
      "midi": 94,
      "hit": false,
      "t": 107717.74817499988,
      "d": 69.30688333333819,
      "v": 71
    },
    {
      "midi": 56,
      "hit": false,
      "t": 107722.69866666528,
      "d": 193.0691749999969,
      "v": 76
    },
    {
      "midi": 49,
      "hit": false,
      "t": 107915.76784166529,
      "d": 193.0691749999969,
      "v": 72
    },
    {
      "midi": 96,
      "hit": false,
      "t": 107915.76784166656,
      "d": 103.96032499999274,
      "v": 71
    },
    {
      "midi": 58,
      "hit": false,
      "t": 107920.71833333194,
      "d": 193.0691749999969,
      "v": 72
    },
    {
      "midi": 41,
      "hit": false,
      "t": 108113.78750833195,
      "d": 193.0691749999969,
      "v": 79
    },
    {
      "midi": 94,
      "hit": false,
      "t": 108113.78750833322,
      "d": 376.2373666666681,
      "v": 80
    },
    {
      "midi": 41,
      "hit": false,
      "t": 108118.7379999986,
      "d": 193.0691749999969,
      "v": 79
    },
    {
      "midi": 51,
      "hit": false,
      "t": 108118.73799999981,
      "d": 1163.3655416666734,
      "v": 104
    },
    {
      "midi": 63,
      "hit": false,
      "t": 108118.73799999981,
      "d": 1163.3655416666734,
      "v": 60
    },
    {
      "midi": 58,
      "hit": false,
      "t": 108311.80717499861,
      "d": 193.0691749999969,
      "v": 72
    },
    {
      "midi": 49,
      "hit": false,
      "t": 108316.75766666526,
      "d": 193.0691749999969,
      "v": 72
    },
    {
      "midi": 56,
      "hit": false,
      "t": 108509.82684166527,
      "d": 193.0691749999969,
      "v": 76
    },
    {
      "midi": 87,
      "hit": false,
      "t": 108509.82684166655,
      "d": 653.4649000000063,
      "v": 84
    },
    {
      "midi": 53,
      "hit": false,
      "t": 108514.77733333192,
      "d": 193.0691749999969,
      "v": 72
    },
    {
      "midi": 55,
      "hit": false,
      "t": 108707.84650833193,
      "d": 193.0691749999969,
      "v": 62
    },
    {
      "midi": 55,
      "hit": false,
      "t": 108712.79699999858,
      "d": 193.0691749999969,
      "v": 63
    },
    {
      "midi": 53,
      "hit": false,
      "t": 108905.86617499859,
      "d": 193.0691749999969,
      "v": 64
    },
    {
      "midi": 56,
      "hit": false,
      "t": 108910.81666666524,
      "d": 193.0691749999969,
      "v": 72
    },
    {
      "midi": 49,
      "hit": false,
      "t": 109103.88584166525,
      "d": 193.0691749999969,
      "v": 71
    },
    {
      "midi": 58,
      "hit": false,
      "t": 109108.8363333319,
      "d": 193.0691749999969,
      "v": 80
    },
    {
      "midi": 41,
      "hit": false,
      "t": 109301.90550833191,
      "d": 193.0691749999969,
      "v": 76
    },
    {
      "midi": 39,
      "hit": false,
      "t": 109306.85599999856,
      "d": 193.0691749999969,
      "v": 76
    },
    {
      "midi": 55,
      "hit": false,
      "t": 109306.85599999981,
      "d": 1232.6724250000116,
      "v": 92
    },
    {
      "midi": 67,
      "hit": false,
      "t": 109306.85599999981,
      "d": 1232.6724250000116,
      "v": 48
    },
    {
      "midi": 63,
      "hit": false,
      "t": 109499.92517499857,
      "d": 193.0691749999969,
      "v": 68
    },
    {
      "midi": 46,
      "hit": false,
      "t": 109504.87566666522,
      "d": 193.0691749999969,
      "v": 76
    },
    {
      "midi": 58,
      "hit": false,
      "t": 109697.94484166523,
      "d": 193.0691749999969,
      "v": 76
    },
    {
      "midi": 94,
      "hit": false,
      "t": 109697.94484166655,
      "d": 103.96032499999274,
      "v": 71
    },
    {
      "midi": 51,
      "hit": false,
      "t": 109702.89533333188,
      "d": 193.0691749999969,
      "v": 88
    },
    {
      "midi": 55,
      "hit": false,
      "t": 109895.96450833189,
      "d": 193.0691749999969,
      "v": 62
    },
    {
      "midi": 92,
      "hit": false,
      "t": 109895.96450833321,
      "d": 84.15835833332676,
      "v": 68
    },
    {
      "midi": 55,
      "hit": false,
      "t": 109900.91499999854,
      "d": 193.0691749999969,
      "v": 73
    },
    {
      "midi": 51,
      "hit": false,
      "t": 110093.98417499855,
      "d": 193.0691749999969,
      "v": 68
    },
    {
      "midi": 91,
      "hit": false,
      "t": 110093.98417499987,
      "d": 108.91081666667014,
      "v": 64
    },
    {
      "midi": 58,
      "hit": false,
      "t": 110098.9346666652,
      "d": 193.0691749999969,
      "v": 80
    },
    {
      "midi": 46,
      "hit": false,
      "t": 110292.00384166521,
      "d": 193.0691749999969,
      "v": 62
    },
    {
      "midi": 92,
      "hit": false,
      "t": 110292.00384166655,
      "d": 99.00983333332988,
      "v": 76
    },
    {
      "midi": 63,
      "hit": false,
      "t": 110296.95433333186,
      "d": 193.0691749999969,
      "v": 72
    },
    {
      "midi": 39,
      "hit": false,
      "t": 110490.02350833187,
      "d": 193.0691749999969,
      "v": 72
    },
    {
      "midi": 91,
      "hit": false,
      "t": 110490.02350833321,
      "d": 386.1383499999938,
      "v": 72
    },
    {
      "midi": 39,
      "hit": false,
      "t": 110494.97399999852,
      "d": 193.0691749999969,
      "v": 72
    },
    {
      "midi": 51,
      "hit": false,
      "t": 110494.97399999983,
      "d": 1242.5734083333373,
      "v": 80
    },
    {
      "midi": 63,
      "hit": false,
      "t": 110494.97399999983,
      "d": 1242.5734083333373,
      "v": 36
    },
    {
      "midi": 63,
      "hit": false,
      "t": 110688.04317499853,
      "d": 193.0691749999969,
      "v": 72
    },
    {
      "midi": 46,
      "hit": false,
      "t": 110692.99366666518,
      "d": 193.0691749999969,
      "v": 62
    },
    {
      "midi": 58,
      "hit": false,
      "t": 110886.06284166519,
      "d": 193.0691749999969,
      "v": 80
    },
    {
      "midi": 87,
      "hit": false,
      "t": 110886.06284166653,
      "d": 415.84130000000005,
      "v": 71
    },
    {
      "midi": 51,
      "hit": false,
      "t": 110891.01333333184,
      "d": 193.0691749999969,
      "v": 68
    },
    {
      "midi": 55,
      "hit": false,
      "t": 111084.08250833185,
      "d": 193.0691749999969,
      "v": 73
    },
    {
      "midi": 55,
      "hit": false,
      "t": 111089.0329999985,
      "d": 193.0691749999969,
      "v": 62
    },
    {
      "midi": 51,
      "hit": false,
      "t": 111282.10217499851,
      "d": 193.0691749999969,
      "v": 88
    },
    {
      "midi": 58,
      "hit": false,
      "t": 111287.05266666516,
      "d": 193.0691749999969,
      "v": 76
    },
    {
      "midi": 46,
      "hit": false,
      "t": 111480.12184166517,
      "d": 193.0691749999969,
      "v": 76
    },
    {
      "midi": 63,
      "hit": false,
      "t": 111485.07233333182,
      "d": 193.0691749999969,
      "v": 68
    },
    {
      "midi": 39,
      "hit": false,
      "t": 111678.14150833183,
      "d": 193.0691749999969,
      "v": 76
    },
    {
      "midi": 41,
      "hit": false,
      "t": 111683.09199999848,
      "d": 193.0691749999969,
      "v": 76
    },
    {
      "midi": 56,
      "hit": false,
      "t": 111683.09199999983,
      "d": 1168.3160333333508,
      "v": 88
    },
    {
      "midi": 68,
      "hit": false,
      "t": 111683.09199999983,
      "d": 1168.3160333333508,
      "v": 44
    },
    {
      "midi": 58,
      "hit": false,
      "t": 111876.16117499849,
      "d": 193.0691749999969,
      "v": 80
    },
    {
      "midi": 49,
      "hit": false,
      "t": 111881.11166666514,
      "d": 193.0691749999969,
      "v": 71
    },
    {
      "midi": 56,
      "hit": false,
      "t": 112074.18084166515,
      "d": 193.0691749999969,
      "v": 72
    },
    {
      "midi": 53,
      "hit": false,
      "t": 112079.1313333318,
      "d": 193.0691749999969,
      "v": 64
    },
    {
      "midi": 92,
      "hit": false,
      "t": 112084.08182499986,
      "d": 89.10885000000417,
      "v": 84
    },
    {
      "midi": 55,
      "hit": false,
      "t": 112272.2005083318,
      "d": 193.0691749999969,
      "v": 63
    },
    {
      "midi": 55,
      "hit": false,
      "t": 112277.15099999846,
      "d": 193.0691749999969,
      "v": 62
    },
    {
      "midi": 91,
      "hit": false,
      "t": 112282.10149166653,
      "d": 103.96032499999274,
      "v": 72
    },
    {
      "midi": 53,
      "hit": false,
      "t": 112470.22017499847,
      "d": 193.0691749999969,
      "v": 72
    },
    {
      "midi": 56,
      "hit": false,
      "t": 112475.17066666512,
      "d": 193.0691749999969,
      "v": 76
    },
    {
      "midi": 89,
      "hit": false,
      "t": 112480.12115833319,
      "d": 69.30688333333819,
      "v": 72
    },
    {
      "midi": 49,
      "hit": false,
      "t": 112668.23984166513,
      "d": 193.0691749999969,
      "v": 72
    },
    {
      "midi": 58,
      "hit": false,
      "t": 112673.19033333178,
      "d": 193.0691749999969,
      "v": 72
    },
    {
      "midi": 91,
      "hit": false,
      "t": 112673.1903333332,
      "d": 99.00983333332988,
      "v": 76
    },
    {
      "midi": 41,
      "hit": false,
      "t": 112866.25950833179,
      "d": 193.0691749999969,
      "v": 79
    },
    {
      "midi": 41,
      "hit": false,
      "t": 112871.20999999843,
      "d": 193.0691749999969,
      "v": 79
    },
    {
      "midi": 53,
      "hit": false,
      "t": 112871.20999999985,
      "d": 1242.5734083333373,
      "v": 104
    },
    {
      "midi": 65,
      "hit": false,
      "t": 112871.20999999985,
      "d": 1242.5734083333373,
      "v": 60
    },
    {
      "midi": 89,
      "hit": false,
      "t": 112876.16049166652,
      "d": 811.8806333333341,
      "v": 80
    },
    {
      "midi": 58,
      "hit": false,
      "t": 113064.27917499845,
      "d": 193.0691749999969,
      "v": 72
    },
    {
      "midi": 49,
      "hit": false,
      "t": 113069.2296666651,
      "d": 193.0691749999969,
      "v": 72
    },
    {
      "midi": 56,
      "hit": false,
      "t": 113262.2988416651,
      "d": 193.0691749999969,
      "v": 76
    },
    {
      "midi": 53,
      "hit": false,
      "t": 113267.24933333175,
      "d": 193.0691749999969,
      "v": 72
    },
    {
      "midi": 55,
      "hit": false,
      "t": 113460.31850833177,
      "d": 193.0691749999969,
      "v": 62
    },
    {
      "midi": 55,
      "hit": false,
      "t": 113465.26899999841,
      "d": 193.0691749999969,
      "v": 63
    },
    {
      "midi": 53,
      "hit": false,
      "t": 113658.33817499843,
      "d": 193.0691749999969,
      "v": 64
    },
    {
      "midi": 56,
      "hit": false,
      "t": 113663.28866666507,
      "d": 193.0691749999969,
      "v": 72
    },
    {
      "midi": 49,
      "hit": false,
      "t": 113856.35784166509,
      "d": 193.0691749999969,
      "v": 71
    },
    {
      "midi": 58,
      "hit": false,
      "t": 113861.30833333173,
      "d": 193.0691749999969,
      "v": 80
    },
    {
      "midi": 41,
      "hit": false,
      "t": 114054.37750833175,
      "d": 193.0691749999969,
      "v": 76
    },
    {
      "midi": 39,
      "hit": false,
      "t": 114059.3279999984,
      "d": 193.0691749999969,
      "v": 76
    },
    {
      "midi": 51,
      "hit": false,
      "t": 114059.32799999985,
      "d": 2242.57272500002,
      "v": 92
    },
    {
      "midi": 63,
      "hit": false,
      "t": 114059.32799999985,
      "d": 2242.57272500002,
      "v": 48
    },
    {
      "midi": 63,
      "hit": false,
      "t": 114252.3971749984,
      "d": 193.0691749999969,
      "v": 68
    },
    {
      "midi": 46,
      "hit": false,
      "t": 114257.34766666505,
      "d": 193.0691749999969,
      "v": 76
    },
    {
      "midi": 58,
      "hit": false,
      "t": 114450.41684166506,
      "d": 193.0691749999969,
      "v": 76
    },
    {
      "midi": 51,
      "hit": false,
      "t": 114455.36733333171,
      "d": 193.0691749999969,
      "v": 88
    },
    {
      "midi": 92,
      "hit": false,
      "t": 114460.31782499986,
      "d": 89.10885000000417,
      "v": 80
    },
    {
      "midi": 55,
      "hit": false,
      "t": 114648.43650833172,
      "d": 193.0691749999969,
      "v": 62
    },
    {
      "midi": 91,
      "hit": false,
      "t": 114648.4365083332,
      "d": 103.96032499999274,
      "v": 76
    },
    {
      "midi": 55,
      "hit": false,
      "t": 114653.38699999837,
      "d": 193.0691749999969,
      "v": 73
    },
    {
      "midi": 51,
      "hit": false,
      "t": 114846.45617499838,
      "d": 193.0691749999969,
      "v": 68
    },
    {
      "midi": 89,
      "hit": false,
      "t": 114846.45617499985,
      "d": 94.05934166666702,
      "v": 76
    },
    {
      "midi": 58,
      "hit": false,
      "t": 114851.40666666503,
      "d": 193.0691749999969,
      "v": 80
    },
    {
      "midi": 46,
      "hit": false,
      "t": 115044.47584166504,
      "d": 193.0691749999969,
      "v": 62
    },
    {
      "midi": 91,
      "hit": false,
      "t": 115044.47584166651,
      "d": 118.81179999999586,
      "v": 80
    },
    {
      "midi": 63,
      "hit": false,
      "t": 115049.42633333169,
      "d": 193.0691749999969,
      "v": 72
    },
    {
      "midi": 39,
      "hit": false,
      "t": 115242.4955083317,
      "d": 193.0691749999969,
      "v": 72
    },
    {
      "midi": 39,
      "hit": false,
      "t": 115247.44599999835,
      "d": 193.0691749999969,
      "v": 72
    },
    {
      "midi": 87,
      "hit": false,
      "t": 115252.3964916665,
      "d": 960.3953833333362,
      "v": 76
    },
    {
      "midi": 63,
      "hit": false,
      "t": 115440.51517499836,
      "d": 193.0691749999969,
      "v": 72
    },
    {
      "midi": 46,
      "hit": false,
      "t": 115445.46566666501,
      "d": 193.0691749999969,
      "v": 62
    },
    {
      "midi": 58,
      "hit": false,
      "t": 115638.53484166502,
      "d": 193.0691749999969,
      "v": 80
    },
    {
      "midi": 51,
      "hit": false,
      "t": 115643.48533333167,
      "d": 193.0691749999969,
      "v": 68
    },
    {
      "midi": 55,
      "hit": false,
      "t": 115836.55450833168,
      "d": 193.0691749999969,
      "v": 73
    },
    {
      "midi": 55,
      "hit": false,
      "t": 115841.50499999833,
      "d": 193.0691749999969,
      "v": 62
    },
    {
      "midi": 51,
      "hit": false,
      "t": 116034.57417499834,
      "d": 193.0691749999969,
      "v": 88
    },
    {
      "midi": 58,
      "hit": false,
      "t": 116039.52466666499,
      "d": 193.0691749999969,
      "v": 76
    },
    {
      "midi": 46,
      "hit": false,
      "t": 116232.593841665,
      "d": 193.0691749999969,
      "v": 76
    },
    {
      "midi": 63,
      "hit": false,
      "t": 116237.54433333165,
      "d": 193.0691749999969,
      "v": 68
    },
    {
      "midi": 39,
      "hit": false,
      "t": 116430.61350833166,
      "d": 193.0691749999969,
      "v": 76
    },
    {
      "midi": 39,
      "hit": false,
      "t": 116435.56399999831,
      "d": 391.0888416666712,
      "v": 88
    },
    {
      "midi": 82,
      "hit": false,
      "t": 116435.56399999833,
      "d": 193.0691749999969,
      "v": 72
    },
    {
      "midi": 89,
      "hit": false,
      "t": 116435.56399999984,
      "d": 94.05934166666702,
      "v": 76
    },
    {
      "midi": 63,
      "hit": false,
      "t": 116435.56400000001,
      "d": 297.0295000000042,
      "v": 88
    },
    {
      "midi": 51,
      "hit": false,
      "t": 116440.51449166654,
      "d": 485.14818333333824,
      "v": 80
    },
    {
      "midi": 87,
      "hit": false,
      "t": 116534.57383333317,
      "d": 94.05934166666702,
      "v": 72
    },
    {
      "midi": 80,
      "hit": false,
      "t": 116633.58366666498,
      "d": 193.0691749999969,
      "v": 63
    },
    {
      "midi": 89,
      "hit": false,
      "t": 116633.5836666665,
      "d": 94.05934166666702,
      "v": 64
    },
    {
      "midi": 87,
      "hit": false,
      "t": 116732.59349999983,
      "d": 94.05934166666702,
      "v": 68
    },
    {
      "midi": 79,
      "hit": false,
      "t": 116831.60333333164,
      "d": 193.0691749999969,
      "v": 60
    },
    {
      "midi": 89,
      "hit": false,
      "t": 116831.60333333316,
      "d": 94.05934166666702,
      "v": 62
    },
    {
      "midi": 55,
      "hit": false,
      "t": 116836.55382499988,
      "d": 559.4055583333393,
      "v": 79
    },
    {
      "midi": 87,
      "hit": false,
      "t": 116930.61316666649,
      "d": 594.0589999999938,
      "v": 68
    },
    {
      "midi": 75,
      "hit": false,
      "t": 117029.6229999983,
      "d": 193.0691749999969,
      "v": 71
    },
    {
      "midi": 82,
      "hit": false,
      "t": 117227.64266666496,
      "d": 193.0691749999969,
      "v": 62
    },
    {
      "midi": 80,
      "hit": false,
      "t": 117425.66233333162,
      "d": 193.0691749999969,
      "v": 62
    },
    {
      "midi": 58,
      "hit": false,
      "t": 117430.61282499989,
      "d": 534.6530999999959,
      "v": 72
    },
    {
      "midi": 79,
      "hit": false,
      "t": 117623.68199999828,
      "d": 193.0691749999969,
      "v": 68
    },
    {
      "midi": 89,
      "hit": false,
      "t": 117816.75117499981,
      "d": 158.4157333333569,
      "v": 68
    },
    {
      "midi": 75,
      "hit": false,
      "t": 117821.70166666494,
      "d": 193.0691749999969,
      "v": 64
    },
    {
      "midi": 87,
      "hit": false,
      "t": 117925.6619916665,
      "d": 128.71278333335067,
      "v": 68
    },
    {
      "midi": 56,
      "hit": false,
      "t": 118014.77084166656,
      "d": 514.8511333333299,
      "v": 79
    },
    {
      "midi": 82,
      "hit": false,
      "t": 118019.7213333316,
      "d": 193.0691749999969,
      "v": 58
    },
    {
      "midi": 39,
      "hit": false,
      "t": 118019.72133333165,
      "d": 391.0888416666712,
      "v": 88
    },
    {
      "midi": 63,
      "hit": false,
      "t": 118019.72133333335,
      "d": 297.0295000000042,
      "v": 88
    },
    {
      "midi": 80,
      "hit": false,
      "t": 118217.74099999826,
      "d": 193.0691749999969,
      "v": 63
    },
    {
      "midi": 79,
      "hit": false,
      "t": 118415.76066666492,
      "d": 193.0691749999969,
      "v": 61
    },
    {
      "midi": 55,
      "hit": false,
      "t": 118420.71115833322,
      "d": 613.8609666666744,
      "v": 72
    },
    {
      "midi": 89,
      "hit": false,
      "t": 118509.82000833322,
      "d": 173.26720833336003,
      "v": 68
    },
    {
      "midi": 75,
      "hit": false,
      "t": 118613.78033333158,
      "d": 193.0691749999969,
      "v": 68
    },
    {
      "midi": 87,
      "hit": false,
      "t": 118618.73082499992,
      "d": 168.31671666666807,
      "v": 68
    },
    {
      "midi": 82,
      "hit": false,
      "t": 118811.79999999824,
      "d": 193.0691749999969,
      "v": 58
    },
    {
      "midi": 80,
      "hit": false,
      "t": 119009.8196666649,
      "d": 193.0691749999969,
      "v": 68
    },
    {
      "midi": 53,
      "hit": false,
      "t": 119014.77015833322,
      "d": 633.6629333333258,
      "v": 72
    },
    {
      "midi": 89,
      "hit": false,
      "t": 119202.88884166665,
      "d": 168.31671666668262,
      "v": 68
    },
    {
      "midi": 79,
      "hit": false,
      "t": 119207.83933333156,
      "d": 193.0691749999969,
      "v": 71
    },
    {
      "midi": 87,
      "hit": false,
      "t": 119306.84916666667,
      "d": 188.11868333333405,
      "v": 68
    },
    {
      "midi": 75,
      "hit": false,
      "t": 119405.85899999822,
      "d": 193.0691749999969,
      "v": 68
    },
    {
      "midi": 82,
      "hit": false,
      "t": 119603.87866666488,
      "d": 193.0691749999969,
      "v": 72
    },
    {
      "midi": 39,
      "hit": false,
      "t": 119603.87866666498,
      "d": 391.0888416666712,
      "v": 88
    },
    {
      "midi": 63,
      "hit": false,
      "t": 119603.87866666669,
      "d": 297.0295000000042,
      "v": 88
    },
    {
      "midi": 51,
      "hit": false,
      "t": 119608.82915833322,
      "d": 1564.3553666666703,
      "v": 76
    },
    {
      "midi": 80,
      "hit": false,
      "t": 119801.89833333154,
      "d": 193.0691749999969,
      "v": 68
    },
    {
      "midi": 89,
      "hit": false,
      "t": 119895.95767500004,
      "d": 168.31671666666807,
      "v": 68
    },
    {
      "midi": 79,
      "hit": false,
      "t": 119999.9179999982,
      "d": 193.0691749999969,
      "v": 68
    },
    {
      "midi": 87,
      "hit": false,
      "t": 120004.86849166671,
      "d": 178.21769999999378,
      "v": 68
    },
    {
      "midi": 75,
      "hit": false,
      "t": 120197.93766666486,
      "d": 193.0691749999969,
      "v": 64
    },
    {
      "midi": 82,
      "hit": false,
      "t": 120395.95733333152,
      "d": 193.0691749999969,
      "v": 63
    },
    {
      "midi": 80,
      "hit": false,
      "t": 120593.97699999818,
      "d": 193.0691749999969,
      "v": 64
    },
    {
      "midi": 79,
      "hit": false,
      "t": 120791.99666666484,
      "d": 193.0691749999969,
      "v": 51
    },
    {
      "midi": 75,
      "hit": false,
      "t": 120990.0163333315,
      "d": 193.0691749999969,
      "v": 71
    }
  ]
}