{
  "jsonPath": "Ultima Online/wind.json",
  "path": "Ultima Online\\wind.mid",
  "name": "wind",
  "difficulty": "Advanced",
  "bpm": 250,
  "notes": [
    {
      "midi": 45,
      "hit": false,
      "t": 1920,
      "d": 88,
      "v": 90
    },
    {
      "midi": 62,
      "hit": false,
      "t": 1924,
      "d": 1900,
      "v": 90
    },
    {
      "midi": 62,
      "hit": false,
      "t": 1944,
      "d": 1920,
      "v": 80
    },
    {
      "midi": 38,
      "hit": false,
      "t": 1948,
      "d": 572,
      "v": 104
    },
    {
      "midi": 38,
      "hit": false,
      "t": 1948,
      "d": 572,
      "v": 104
    },
    {
      "midi": 21,
      "hit": false,
      "t": 2160,
      "d": 80,
      "v": 88
    },
    {
      "midi": 38,
      "hit": false,
      "t": 2164,
      "d": 116,
      "v": 68
    },
    {
      "midi": 50,
      "hit": false,
      "t": 2396,
      "d": 100,
      "v": 78
    },
    {
      "midi": 38,
      "hit": false,
      "t": 2636,
      "d": 132,
      "v": 64
    },
    {
      "midi": 45,
      "hit": false,
      "t": 2640,
      "d": 100,
      "v": 104
    },
    {
      "midi": 38,
      "hit": false,
      "t": 2664,
      "d": 312,
      "v": 110
    },
    {
      "midi": 38,
      "hit": false,
      "t": 2664,
      "d": 312,
      "v": 110
    },
    {
      "midi": 21,
      "hit": false,
      "t": 2880,
      "d": 104,
      "v": 88
    },
    {
      "midi": 50,
      "hit": false,
      "t": 2884,
      "d": 104,
      "v": 76
    },
    {
      "midi": 27,
      "hit": false,
      "t": 2884,
      "d": 156,
      "v": 92
    },
    {
      "midi": 45,
      "hit": false,
      "t": 3840,
      "d": 100,
      "v": 92
    },
    {
      "midi": 69,
      "hit": false,
      "t": 3844,
      "d": 1900,
      "v": 92
    },
    {
      "midi": 38,
      "hit": false,
      "t": 3872,
      "d": 572,
      "v": 120
    },
    {
      "midi": 38,
      "hit": false,
      "t": 3872,
      "d": 572,
      "v": 120
    },
    {
      "midi": 86,
      "hit": false,
      "t": 4076,
      "d": 56,
      "v": 80
    },
    {
      "midi": 21,
      "hit": false,
      "t": 4080,
      "d": 108,
      "v": 94
    },
    {
      "midi": 38,
      "hit": false,
      "t": 4084,
      "d": 112,
      "v": 88
    },
    {
      "midi": 86,
      "hit": false,
      "t": 4316,
      "d": 56,
      "v": 84
    },
    {
      "midi": 50,
      "hit": false,
      "t": 4324,
      "d": 128,
      "v": 64
    },
    {
      "midi": 86,
      "hit": false,
      "t": 4556,
      "d": 56,
      "v": 80
    },
    {
      "midi": 45,
      "hit": false,
      "t": 4560,
      "d": 92,
      "v": 104
    },
    {
      "midi": 38,
      "hit": false,
      "t": 4560,
      "d": 116,
      "v": 84
    },
    {
      "midi": 38,
      "hit": false,
      "t": 4592,
      "d": 388,
      "v": 122
    },
    {
      "midi": 38,
      "hit": false,
      "t": 4592,
      "d": 388,
      "v": 122
    },
    {
      "midi": 86,
      "hit": false,
      "t": 4796,
      "d": 56,
      "v": 88
    },
    {
      "midi": 21,
      "hit": false,
      "t": 4800,
      "d": 136,
      "v": 92
    },
    {
      "midi": 50,
      "hit": false,
      "t": 4804,
      "d": 108,
      "v": 54
    },
    {
      "midi": 27,
      "hit": false,
      "t": 4804,
      "d": 120,
      "v": 80
    },
    {
      "midi": 86,
      "hit": false,
      "t": 5036,
      "d": 56,
      "v": 88
    },
    {
      "midi": 86,
      "hit": false,
      "t": 5276,
      "d": 56,
      "v": 88
    },
    {
      "midi": 39,
      "hit": false,
      "t": 5304,
      "d": 464,
      "v": 110
    },
    {
      "midi": 39,
      "hit": false,
      "t": 5304,
      "d": 464,
      "v": 110
    },
    {
      "midi": 86,
      "hit": false,
      "t": 5516,
      "d": 56,
      "v": 88
    },
    {
      "midi": 86,
      "hit": false,
      "t": 5756,
      "d": 56,
      "v": 76
    },
    {
      "midi": 45,
      "hit": false,
      "t": 5760,
      "d": 112,
      "v": 92
    },
    {
      "midi": 86,
      "hit": false,
      "t": 5760,
      "d": 56,
      "v": 76
    },
    {
      "midi": 70,
      "hit": false,
      "t": 5764,
      "d": 1900,
      "v": 88
    },
    {
      "midi": 38,
      "hit": false,
      "t": 5788,
      "d": 572,
      "v": 104
    },
    {
      "midi": 38,
      "hit": false,
      "t": 5788,
      "d": 572,
      "v": 104
    },
    {
      "midi": 21,
      "hit": false,
      "t": 6000,
      "d": 124,
      "v": 92
    },
    {
      "midi": 86,
      "hit": false,
      "t": 6000,
      "d": 56,
      "v": 88
    },
    {
      "midi": 38,
      "hit": false,
      "t": 6004,
      "d": 116,
      "v": 80
    },
    {
      "midi": 86,
      "hit": false,
      "t": 6240,
      "d": 56,
      "v": 88
    },
    {
      "midi": 45,
      "hit": false,
      "t": 6244,
      "d": 100,
      "v": 68
    },
    {
      "midi": 38,
      "hit": false,
      "t": 6476,
      "d": 136,
      "v": 88
    },
    {
      "midi": 45,
      "hit": false,
      "t": 6480,
      "d": 100,
      "v": 94
    },
    {
      "midi": 86,
      "hit": false,
      "t": 6480,
      "d": 56,
      "v": 88
    },
    {
      "midi": 38,
      "hit": false,
      "t": 6504,
      "d": 312,
      "v": 110
    },
    {
      "midi": 38,
      "hit": false,
      "t": 6504,
      "d": 312,
      "v": 110
    },
    {
      "midi": 21,
      "hit": false,
      "t": 6720,
      "d": 144,
      "v": 88
    },
    {
      "midi": 86,
      "hit": false,
      "t": 6720,
      "d": 56,
      "v": 88
    },
    {
      "midi": 45,
      "hit": false,
      "t": 6724,
      "d": 96,
      "v": 68
    },
    {
      "midi": 27,
      "hit": false,
      "t": 6724,
      "d": 124,
      "v": 80
    },
    {
      "midi": 86,
      "hit": false,
      "t": 6960,
      "d": 56,
      "v": 80
    },
    {
      "midi": 86,
      "hit": false,
      "t": 7200,
      "d": 56,
      "v": 84
    },
    {
      "midi": 86,
      "hit": false,
      "t": 7440,
      "d": 56,
      "v": 80
    },
    {
      "midi": 45,
      "hit": false,
      "t": 7680,
      "d": 116,
      "v": 104
    },
    {
      "midi": 67,
      "hit": false,
      "t": 7684,
      "d": 1900,
      "v": 104
    },
    {
      "midi": 38,
      "hit": false,
      "t": 7712,
      "d": 572,
      "v": 120
    },
    {
      "midi": 38,
      "hit": false,
      "t": 7712,
      "d": 572,
      "v": 120
    },
    {
      "midi": 21,
      "hit": false,
      "t": 7920,
      "d": 120,
      "v": 94
    },
    {
      "midi": 38,
      "hit": false,
      "t": 7924,
      "d": 112,
      "v": 92
    },
    {
      "midi": 62,
      "hit": false,
      "t": 8164,
      "d": 96,
      "v": 71
    },
    {
      "midi": 38,
      "hit": false,
      "t": 8396,
      "d": 124,
      "v": 84
    },
    {
      "midi": 45,
      "hit": false,
      "t": 8400,
      "d": 92,
      "v": 104
    },
    {
      "midi": 38,
      "hit": false,
      "t": 8432,
      "d": 388,
      "v": 122
    },
    {
      "midi": 38,
      "hit": false,
      "t": 8432,
      "d": 388,
      "v": 122
    },
    {
      "midi": 21,
      "hit": false,
      "t": 8640,
      "d": 116,
      "v": 80
    },
    {
      "midi": 62,
      "hit": false,
      "t": 8644,
      "d": 88,
      "v": 66
    },
    {
      "midi": 27,
      "hit": false,
      "t": 8644,
      "d": 124,
      "v": 80
    },
    {
      "midi": 39,
      "hit": false,
      "t": 9144,
      "d": 464,
      "v": 110
    },
    {
      "midi": 39,
      "hit": false,
      "t": 9144,
      "d": 464,
      "v": 110
    },
    {
      "midi": 45,
      "hit": false,
      "t": 9600,
      "d": 88,
      "v": 90
    },
    {
      "midi": 62,
      "hit": false,
      "t": 9604,
      "d": 1780,
      "v": 88
    },
    {
      "midi": 62,
      "hit": false,
      "t": 9624,
      "d": 1920,
      "v": 80
    },
    {
      "midi": 38,
      "hit": false,
      "t": 9628,
      "d": 572,
      "v": 104
    },
    {
      "midi": 38,
      "hit": false,
      "t": 9628,
      "d": 572,
      "v": 104
    },
    {
      "midi": 21,
      "hit": false,
      "t": 9840,
      "d": 80,
      "v": 88
    },
    {
      "midi": 38,
      "hit": false,
      "t": 9844,
      "d": 120,
      "v": 80
    },
    {
      "midi": 38,
      "hit": false,
      "t": 10084,
      "d": 92,
      "v": 74
    },
    {
      "midi": 38,
      "hit": false,
      "t": 10316,
      "d": 124,
      "v": 76
    },
    {
      "midi": 45,
      "hit": false,
      "t": 10320,
      "d": 100,
      "v": 104
    },
    {
      "midi": 38,
      "hit": false,
      "t": 10344,
      "d": 312,
      "v": 110
    },
    {
      "midi": 38,
      "hit": false,
      "t": 10344,
      "d": 312,
      "v": 110
    },
    {
      "midi": 21,
      "hit": false,
      "t": 10560,
      "d": 104,
      "v": 88
    },
    {
      "midi": 38,
      "hit": false,
      "t": 10564,
      "d": 92,
      "v": 74
    },
    {
      "midi": 27,
      "hit": false,
      "t": 10564,
      "d": 120,
      "v": 88
    },
    {
      "midi": 45,
      "hit": false,
      "t": 11520,
      "d": 100,
      "v": 92
    },
    {
      "midi": 69,
      "hit": false,
      "t": 11524,
      "d": 1876,
      "v": 104
    },
    {
      "midi": 38,
      "hit": false,
      "t": 11552,
      "d": 572,
      "v": 120
    },
    {
      "midi": 38,
      "hit": false,
      "t": 11552,
      "d": 572,
      "v": 120
    },
    {
      "midi": 86,
      "hit": false,
      "t": 11756,
      "d": 56,
      "v": 80
    },
    {
      "midi": 21,
      "hit": false,
      "t": 11760,
      "d": 108,
      "v": 94
    },
    {
      "midi": 38,
      "hit": false,
      "t": 11764,
      "d": 120,
      "v": 88
    },
    {
      "midi": 50,
      "hit": false,
      "t": 11996,
      "d": 100,
      "v": 78
    },
    {
      "midi": 86,
      "hit": false,
      "t": 11996,
      "d": 56,
      "v": 84
    },
    {
      "midi": 86,
      "hit": false,
      "t": 12236,
      "d": 56,
      "v": 80
    },
    {
      "midi": 45,
      "hit": false,
      "t": 12240,
      "d": 92,
      "v": 104
    },
    {
      "midi": 38,
      "hit": false,
      "t": 12240,
      "d": 104,
      "v": 79
    },
    {
      "midi": 38,
      "hit": false,
      "t": 12272,
      "d": 388,
      "v": 122
    },
    {
      "midi": 38,
      "hit": false,
      "t": 12272,
      "d": 388,
      "v": 122
    },
    {
      "midi": 86,
      "hit": false,
      "t": 12476,
      "d": 56,
      "v": 88
    },
    {
      "midi": 21,
      "hit": false,
      "t": 12480,
      "d": 136,
      "v": 92
    },
    {
      "midi": 50,
      "hit": false,
      "t": 12484,
      "d": 104,
      "v": 76
    },
    {
      "midi": 27,
      "hit": false,
      "t": 12484,
      "d": 112,
      "v": 79
    },
    {
      "midi": 86,
      "hit": false,
      "t": 12716,
      "d": 56,
      "v": 88
    },
    {
      "midi": 86,
      "hit": false,
      "t": 12956,
      "d": 56,
      "v": 88
    },
    {
      "midi": 39,
      "hit": false,
      "t": 12984,
      "d": 464,
      "v": 110
    },
    {
      "midi": 39,
      "hit": false,
      "t": 12984,
      "d": 464,
      "v": 110
    },
    {
      "midi": 86,
      "hit": false,
      "t": 13196,
      "d": 56,
      "v": 88
    },
    {
      "midi": 86,
      "hit": false,
      "t": 13436,
      "d": 56,
      "v": 76
    },
    {
      "midi": 45,
      "hit": false,
      "t": 13440,
      "d": 112,
      "v": 92
    },
    {
      "midi": 86,
      "hit": false,
      "t": 13440,
      "d": 56,
      "v": 76
    },
    {
      "midi": 70,
      "hit": false,
      "t": 13444,
      "d": 2020,
      "v": 91
    },
    {
      "midi": 38,
      "hit": false,
      "t": 13468,
      "d": 572,
      "v": 104
    },
    {
      "midi": 38,
      "hit": false,
      "t": 13468,
      "d": 572,
      "v": 104
    },
    {
      "midi": 21,
      "hit": false,
      "t": 13680,
      "d": 124,
      "v": 92
    },
    {
      "midi": 86,
      "hit": false,
      "t": 13680,
      "d": 56,
      "v": 88
    },
    {
      "midi": 38,
      "hit": false,
      "t": 13684,
      "d": 120,
      "v": 84
    },
    {
      "midi": 86,
      "hit": false,
      "t": 13920,
      "d": 56,
      "v": 88
    },
    {
      "midi": 50,
      "hit": false,
      "t": 13924,
      "d": 128,
      "v": 64
    },
    {
      "midi": 38,
      "hit": false,
      "t": 14156,
      "d": 112,
      "v": 80
    },
    {
      "midi": 45,
      "hit": false,
      "t": 14160,
      "d": 100,
      "v": 94
    },
    {
      "midi": 86,
      "hit": false,
      "t": 14160,
      "d": 56,
      "v": 88
    },
    {
      "midi": 38,
      "hit": false,
      "t": 14184,
      "d": 312,
      "v": 110
    },
    {
      "midi": 38,
      "hit": false,
      "t": 14184,
      "d": 312,
      "v": 110
    },
    {
      "midi": 21,
      "hit": false,
      "t": 14400,
      "d": 144,
      "v": 88
    },
    {
      "midi": 86,
      "hit": false,
      "t": 14400,
      "d": 56,
      "v": 88
    },
    {
      "midi": 50,
      "hit": false,
      "t": 14404,
      "d": 108,
      "v": 54
    },
    {
      "midi": 27,
      "hit": false,
      "t": 14404,
      "d": 112,
      "v": 76
    },
    {
      "midi": 86,
      "hit": false,
      "t": 14640,
      "d": 56,
      "v": 80
    },
    {
      "midi": 86,
      "hit": false,
      "t": 14880,
      "d": 56,
      "v": 84
    },
    {
      "midi": 86,
      "hit": false,
      "t": 15120,
      "d": 56,
      "v": 80
    },
    {
      "midi": 45,
      "hit": false,
      "t": 15360,
      "d": 116,
      "v": 104
    },
    {
      "midi": 74,
      "hit": false,
      "t": 15364,
      "d": 1864,
      "v": 88
    },
    {
      "midi": 38,
      "hit": false,
      "t": 15392,
      "d": 572,
      "v": 120
    },
    {
      "midi": 38,
      "hit": false,
      "t": 15392,
      "d": 572,
      "v": 120
    },
    {
      "midi": 21,
      "hit": false,
      "t": 15600,
      "d": 120,
      "v": 94
    },
    {
      "midi": 38,
      "hit": false,
      "t": 15604,
      "d": 116,
      "v": 88
    },
    {
      "midi": 45,
      "hit": false,
      "t": 15844,
      "d": 100,
      "v": 68
    },
    {
      "midi": 45,
      "hit": false,
      "t": 16080,
      "d": 92,
      "v": 104
    },
    {
      "midi": 38,
      "hit": false,
      "t": 16080,
      "d": 104,
      "v": 77
    },
    {
      "midi": 38,
      "hit": false,
      "t": 16112,
      "d": 388,
      "v": 122
    },
    {
      "midi": 38,
      "hit": false,
      "t": 16112,
      "d": 388,
      "v": 122
    },
    {
      "midi": 21,
      "hit": false,
      "t": 16320,
      "d": 116,
      "v": 80
    },
    {
      "midi": 45,
      "hit": false,
      "t": 16324,
      "d": 96,
      "v": 68
    },
    {
      "midi": 27,
      "hit": false,
      "t": 16324,
      "d": 124,
      "v": 80
    },
    {
      "midi": 39,
      "hit": false,
      "t": 16824,
      "d": 464,
      "v": 110
    },
    {
      "midi": 39,
      "hit": false,
      "t": 16824,
      "d": 464,
      "v": 110
    },
    {
      "midi": 74,
      "hit": false,
      "t": 17044,
      "d": 144,
      "v": 100
    },
    {
      "midi": 75,
      "hit": false,
      "t": 17156,
      "d": 144,
      "v": 100
    },
    {
      "midi": 81,
      "hit": false,
      "t": 17276,
      "d": 144,
      "v": 100
    },
    {
      "midi": 45,
      "hit": false,
      "t": 17280,
      "d": 88,
      "v": 90
    },
    {
      "midi": 38,
      "hit": false,
      "t": 17308,
      "d": 572,
      "v": 104
    },
    {
      "midi": 38,
      "hit": false,
      "t": 17308,
      "d": 572,
      "v": 104
    },
    {
      "midi": 21,
      "hit": false,
      "t": 17520,
      "d": 80,
      "v": 88
    },
    {
      "midi": 74,
      "hit": false,
      "t": 17524,
      "d": 140,
      "v": 100
    },
    {
      "midi": 38,
      "hit": false,
      "t": 17524,
      "d": 116,
      "v": 88
    },
    {
      "midi": 74,
      "hit": false,
      "t": 17524,
      "d": 128,
      "v": 80
    },
    {
      "midi": 75,
      "hit": false,
      "t": 17644,
      "d": 136,
      "v": 100
    },
    {
      "midi": 81,
      "hit": false,
      "t": 17756,
      "d": 120,
      "v": 80
    },
    {
      "midi": 62,
      "hit": false,
      "t": 17764,
      "d": 96,
      "v": 71
    },
    {
      "midi": 81,
      "hit": false,
      "t": 17764,
      "d": 108,
      "v": 100
    },
    {
      "midi": 79,
      "hit": false,
      "t": 17996,
      "d": 96,
      "v": 84
    },
    {
      "midi": 45,
      "hit": false,
      "t": 18000,
      "d": 100,
      "v": 104
    },
    {
      "midi": 74,
      "hit": false,
      "t": 18004,
      "d": 160,
      "v": 100
    },
    {
      "midi": 38,
      "hit": false,
      "t": 18004,
      "d": 120,
      "v": 88
    },
    {
      "midi": 38,
      "hit": false,
      "t": 18024,
      "d": 312,
      "v": 110
    },
    {
      "midi": 38,
      "hit": false,
      "t": 18024,
      "d": 312,
      "v": 110
    },
    {
      "midi": 75,
      "hit": false,
      "t": 18124,
      "d": 148,
      "v": 100
    },
    {
      "midi": 21,
      "hit": false,
      "t": 18240,
      "d": 104,
      "v": 88
    },
    {
      "midi": 62,
      "hit": false,
      "t": 18244,
      "d": 88,
      "v": 66
    },
    {
      "midi": 81,
      "hit": false,
      "t": 18244,
      "d": 148,
      "v": 100
    },
    {
      "midi": 27,
      "hit": false,
      "t": 18244,
      "d": 124,
      "v": 80
    },
    {
      "midi": 81,
      "hit": false,
      "t": 18244,
      "d": 1596,
      "v": 94
    },
    {
      "midi": 74,
      "hit": false,
      "t": 18492,
      "d": 140,
      "v": 100
    },
    {
      "midi": 75,
      "hit": false,
      "t": 18612,
      "d": 136,
      "v": 100
    },
    {
      "midi": 81,
      "hit": false,
      "t": 18732,
      "d": 108,
      "v": 100
    },
    {
      "midi": 45,
      "hit": false,
      "t": 19200,
      "d": 100,
      "v": 92
    },
    {
      "midi": 38,
      "hit": false,
      "t": 19232,
      "d": 572,
      "v": 120
    },
    {
      "midi": 38,
      "hit": false,
      "t": 19232,
      "d": 572,
      "v": 120
    },
    {
      "midi": 21,
      "hit": false,
      "t": 19440,
      "d": 108,
      "v": 94
    },
    {
      "midi": 38,
      "hit": false,
      "t": 19444,
      "d": 124,
      "v": 80
    },
    {
      "midi": 38,
      "hit": false,
      "t": 19684,
      "d": 92,
      "v": 74
    },
    {
      "midi": 38,
      "hit": false,
      "t": 19916,
      "d": 108,
      "v": 80
    },
    {
      "midi": 45,
      "hit": false,
      "t": 19920,
      "d": 92,
      "v": 104
    },
    {
      "midi": 79,
      "hit": false,
      "t": 19924,
      "d": 120,
      "v": 80
    },
    {
      "midi": 38,
      "hit": false,
      "t": 19952,
      "d": 388,
      "v": 122
    },
    {
      "midi": 38,
      "hit": false,
      "t": 19952,
      "d": 388,
      "v": 122
    },
    {
      "midi": 81,
      "hit": false,
      "t": 20044,
      "d": 136,
      "v": 79
    },
    {
      "midi": 21,
      "hit": false,
      "t": 20160,
      "d": 136,
      "v": 92
    },
    {
      "midi": 38,
      "hit": false,
      "t": 20164,
      "d": 92,
      "v": 74
    },
    {
      "midi": 27,
      "hit": false,
      "t": 20164,
      "d": 116,
      "v": 80
    },
    {
      "midi": 82,
      "hit": false,
      "t": 20164,
      "d": 448,
      "v": 94
    },
    {
      "midi": 81,
      "hit": false,
      "t": 20636,
      "d": 244,
      "v": 104
    },
    {
      "midi": 39,
      "hit": false,
      "t": 20664,
      "d": 464,
      "v": 110
    },
    {
      "midi": 39,
      "hit": false,
      "t": 20664,
      "d": 464,
      "v": 110
    },
    {
      "midi": 79,
      "hit": false,
      "t": 20876,
      "d": 96,
      "v": 88
    },
    {
      "midi": 45,
      "hit": false,
      "t": 21120,
      "d": 112,
      "v": 92
    },
    {
      "midi": 81,
      "hit": false,
      "t": 21124,
      "d": 1596,
      "v": 94
    },
    {
      "midi": 38,
      "hit": false,
      "t": 21148,
      "d": 572,
      "v": 104
    },
    {
      "midi": 38,
      "hit": false,
      "t": 21148,
      "d": 572,
      "v": 104
    },
    {
      "midi": 38,
      "hit": false,
      "t": 21356,
      "d": 136,
      "v": 88
    },
    {
      "midi": 21,
      "hit": false,
      "t": 21360,
      "d": 124,
      "v": 92
    },
    {
      "midi": 38,
      "hit": false,
      "t": 21596,
      "d": 96,
      "v": 74
    },
    {
      "midi": 45,
      "hit": false,
      "t": 21840,
      "d": 100,
      "v": 94
    },
    {
      "midi": 38,
      "hit": false,
      "t": 21844,
      "d": 120,
      "v": 79
    },
    {
      "midi": 38,
      "hit": false,
      "t": 21864,
      "d": 312,
      "v": 110
    },
    {
      "midi": 38,
      "hit": false,
      "t": 21864,
      "d": 312,
      "v": 110
    },
    {
      "midi": 38,
      "hit": false,
      "t": 22076,
      "d": 88,
      "v": 74
    },
    {
      "midi": 21,
      "hit": false,
      "t": 22080,
      "d": 144,
      "v": 88
    },
    {
      "midi": 27,
      "hit": false,
      "t": 22084,
      "d": 144,
      "v": 84
    },
    {
      "midi": 79,
      "hit": false,
      "t": 22684,
      "d": 124,
      "v": 80
    },
    {
      "midi": 75,
      "hit": false,
      "t": 22804,
      "d": 112,
      "v": 80
    },
    {
      "midi": 74,
      "hit": false,
      "t": 22924,
      "d": 1932,
      "v": 94
    },
    {
      "midi": 45,
      "hit": false,
      "t": 23040,
      "d": 116,
      "v": 104
    },
    {
      "midi": 38,
      "hit": false,
      "t": 23072,
      "d": 572,
      "v": 120
    },
    {
      "midi": 38,
      "hit": false,
      "t": 23072,
      "d": 572,
      "v": 120
    },
    {
      "midi": 21,
      "hit": false,
      "t": 23280,
      "d": 120,
      "v": 94
    },
    {
      "midi": 38,
      "hit": false,
      "t": 23284,
      "d": 132,
      "v": 88
    },
    {
      "midi": 50,
      "hit": false,
      "t": 23516,
      "d": 100,
      "v": 78
    },
    {
      "midi": 38,
      "hit": false,
      "t": 23756,
      "d": 132,
      "v": 80
    },
    {
      "midi": 45,
      "hit": false,
      "t": 23760,
      "d": 92,
      "v": 104
    },
    {
      "midi": 38,
      "hit": false,
      "t": 23792,
      "d": 388,
      "v": 122
    },
    {
      "midi": 38,
      "hit": false,
      "t": 23792,
      "d": 388,
      "v": 122
    },
    {
      "midi": 21,
      "hit": false,
      "t": 24000,
      "d": 116,
      "v": 80
    },
    {
      "midi": 50,
      "hit": false,
      "t": 24004,
      "d": 104,
      "v": 76
    },
    {
      "midi": 27,
      "hit": false,
      "t": 24004,
      "d": 132,
      "v": 80
    },
    {
      "midi": 39,
      "hit": false,
      "t": 24504,
      "d": 464,
      "v": 110
    },
    {
      "midi": 39,
      "hit": false,
      "t": 24504,
      "d": 464,
      "v": 110
    },
    {
      "midi": 74,
      "hit": false,
      "t": 24724,
      "d": 144,
      "v": 100
    },
    {
      "midi": 75,
      "hit": false,
      "t": 24836,
      "d": 144,
      "v": 100
    },
    {
      "midi": 81,
      "hit": false,
      "t": 24956,
      "d": 144,
      "v": 100
    },
    {
      "midi": 45,
      "hit": false,
      "t": 24960,
      "d": 88,
      "v": 90
    },
    {
      "midi": 38,
      "hit": false,
      "t": 24988,
      "d": 572,
      "v": 104
    },
    {
      "midi": 38,
      "hit": false,
      "t": 24988,
      "d": 572,
      "v": 104
    },
    {
      "midi": 74,
      "hit": false,
      "t": 25196,
      "d": 140,
      "v": 80
    },
    {
      "midi": 21,
      "hit": false,
      "t": 25200,
      "d": 80,
      "v": 88
    },
    {
      "midi": 74,
      "hit": false,
      "t": 25204,
      "d": 140,
      "v": 100
    },
    {
      "midi": 38,
      "hit": false,
      "t": 25204,
      "d": 128,
      "v": 80
    },
    {
      "midi": 75,
      "hit": false,
      "t": 25324,
      "d": 136,
      "v": 100
    },
    {
      "midi": 81,
      "hit": false,
      "t": 25436,
      "d": 112,
      "v": 88
    },
    {
      "midi": 50,
      "hit": false,
      "t": 25444,
      "d": 128,
      "v": 64
    },
    {
      "midi": 81,
      "hit": false,
      "t": 25444,
      "d": 108,
      "v": 100
    },
    {
      "midi": 74,
      "hit": false,
      "t": 25676,
      "d": 128,
      "v": 88
    },
    {
      "midi": 45,
      "hit": false,
      "t": 25680,
      "d": 100,
      "v": 104
    },
    {
      "midi": 74,
      "hit": false,
      "t": 25684,
      "d": 160,
      "v": 100
    },
    {
      "midi": 38,
      "hit": false,
      "t": 25684,
      "d": 112,
      "v": 76
    },
    {
      "midi": 38,
      "hit": false,
      "t": 25704,
      "d": 312,
      "v": 110
    },
    {
      "midi": 38,
      "hit": false,
      "t": 25704,
      "d": 312,
      "v": 110
    },
    {
      "midi": 75,
      "hit": false,
      "t": 25804,
      "d": 148,
      "v": 100
    },
    {
      "midi": 81,
      "hit": false,
      "t": 25916,
      "d": 1580,
      "v": 92
    },
    {
      "midi": 21,
      "hit": false,
      "t": 25920,
      "d": 104,
      "v": 88
    },
    {
      "midi": 50,
      "hit": false,
      "t": 25924,
      "d": 108,
      "v": 54
    },
    {
      "midi": 81,
      "hit": false,
      "t": 25924,
      "d": 148,
      "v": 100
    },
    {
      "midi": 27,
      "hit": false,
      "t": 25924,
      "d": 136,
      "v": 88
    },
    {
      "midi": 74,
      "hit": false,
      "t": 26172,
      "d": 140,
      "v": 100
    },
    {
      "midi": 75,
      "hit": false,
      "t": 26292,
      "d": 136,
      "v": 100
    },
    {
      "midi": 81,
      "hit": false,
      "t": 26412,
      "d": 108,
      "v": 100
    },
    {
      "midi": 45,
      "hit": false,
      "t": 26880,
      "d": 100,
      "v": 92
    },
    {
      "midi": 38,
      "hit": false,
      "t": 26912,
      "d": 572,
      "v": 120
    },
    {
      "midi": 38,
      "hit": false,
      "t": 26912,
      "d": 572,
      "v": 120
    },
    {
      "midi": 21,
      "hit": false,
      "t": 27120,
      "d": 108,
      "v": 94
    },
    {
      "midi": 38,
      "hit": false,
      "t": 27124,
      "d": 104,
      "v": 80
    },
    {
      "midi": 45,
      "hit": false,
      "t": 27364,
      "d": 100,
      "v": 68
    },
    {
      "midi": 38,
      "hit": false,
      "t": 27596,
      "d": 108,
      "v": 88
    },
    {
      "midi": 79,
      "hit": false,
      "t": 27596,
      "d": 168,
      "v": 76
    },
    {
      "midi": 45,
      "hit": false,
      "t": 27600,
      "d": 92,
      "v": 104
    },
    {
      "midi": 38,
      "hit": false,
      "t": 27632,
      "d": 388,
      "v": 122
    },
    {
      "midi": 38,
      "hit": false,
      "t": 27632,
      "d": 388,
      "v": 122
    },
    {
      "midi": 81,
      "hit": false,
      "t": 27716,
      "d": 184,
      "v": 84
    },
    {
      "midi": 82,
      "hit": false,
      "t": 27836,
      "d": 128,
      "v": 94
    },
    {
      "midi": 21,
      "hit": false,
      "t": 27840,
      "d": 136,
      "v": 92
    },
    {
      "midi": 45,
      "hit": false,
      "t": 27844,
      "d": 96,
      "v": 68
    },
    {
      "midi": 27,
      "hit": false,
      "t": 27844,
      "d": 140,
      "v": 80
    },
    {
      "midi": 84,
      "hit": false,
      "t": 28084,
      "d": 112,
      "v": 80
    },
    {
      "midi": 39,
      "hit": false,
      "t": 28344,
      "d": 464,
      "v": 110
    },
    {
      "midi": 39,
      "hit": false,
      "t": 28344,
      "d": 464,
      "v": 110
    },
    {
      "midi": 82,
      "hit": false,
      "t": 28556,
      "d": 80,
      "v": 88
    },
    {
      "midi": 86,
      "hit": false,
      "t": 28796,
      "d": 1624,
      "v": 104
    },
    {
      "midi": 45,
      "hit": false,
      "t": 28800,
      "d": 112,
      "v": 92
    },
    {
      "midi": 38,
      "hit": false,
      "t": 28828,
      "d": 572,
      "v": 104
    },
    {
      "midi": 38,
      "hit": false,
      "t": 28828,
      "d": 572,
      "v": 104
    },
    {
      "midi": 38,
      "hit": false,
      "t": 29036,
      "d": 124,
      "v": 88
    },
    {
      "midi": 21,
      "hit": false,
      "t": 29040,
      "d": 124,
      "v": 92
    },
    {
      "midi": 62,
      "hit": false,
      "t": 29284,
      "d": 96,
      "v": 71
    },
    {
      "midi": 45,
      "hit": false,
      "t": 29520,
      "d": 100,
      "v": 94
    },
    {
      "midi": 38,
      "hit": false,
      "t": 29524,
      "d": 108,
      "v": 80
    },
    {
      "midi": 38,
      "hit": false,
      "t": 29544,
      "d": 312,
      "v": 110
    },
    {
      "midi": 38,
      "hit": false,
      "t": 29544,
      "d": 312,
      "v": 110
    },
    {
      "midi": 21,
      "hit": false,
      "t": 29760,
      "d": 144,
      "v": 88
    },
    {
      "midi": 62,
      "hit": false,
      "t": 29764,
      "d": 88,
      "v": 66
    },
    {
      "midi": 27,
      "hit": false,
      "t": 29764,
      "d": 104,
      "v": 79
    },
    {
      "midi": 87,
      "hit": false,
      "t": 30420,
      "d": 112,
      "v": 55
    },
    {
      "midi": 82,
      "hit": false,
      "t": 30552,
      "d": 128,
      "v": 76
    },
    {
      "midi": 87,
      "hit": false,
      "t": 30680,
      "d": 136,
      "v": 78
    },
    {
      "midi": 45,
      "hit": false,
      "t": 30720,
      "d": 116,
      "v": 104
    },
    {
      "midi": 38,
      "hit": false,
      "t": 30752,
      "d": 572,
      "v": 120
    },
    {
      "midi": 38,
      "hit": false,
      "t": 30752,
      "d": 572,
      "v": 120
    },
    {
      "midi": 82,
      "hit": false,
      "t": 30796,
      "d": 96,
      "v": 80
    },
    {
      "midi": 87,
      "hit": false,
      "t": 30884,
      "d": 88,
      "v": 68
    },
    {
      "midi": 82,
      "hit": false,
      "t": 30952,
      "d": 116,
      "v": 76
    },
    {
      "midi": 21,
      "hit": false,
      "t": 30960,
      "d": 120,
      "v": 94
    },
    {
      "midi": 38,
      "hit": false,
      "t": 30964,
      "d": 112,
      "v": 80
    },
    {
      "midi": 81,
      "hit": false,
      "t": 31056,
      "d": 1532,
      "v": 80
    },
    {
      "midi": 38,
      "hit": false,
      "t": 31204,
      "d": 92,
      "v": 74
    },
    {
      "midi": 38,
      "hit": false,
      "t": 31436,
      "d": 112,
      "v": 88
    },
    {
      "midi": 45,
      "hit": false,
      "t": 31440,
      "d": 92,
      "v": 104
    },
    {
      "midi": 38,
      "hit": false,
      "t": 31472,
      "d": 388,
      "v": 122
    },
    {
      "midi": 38,
      "hit": false,
      "t": 31472,
      "d": 388,
      "v": 122
    },
    {
      "midi": 27,
      "hit": false,
      "t": 31676,
      "d": 128,
      "v": 71
    },
    {
      "midi": 21,
      "hit": false,
      "t": 31680,
      "d": 116,
      "v": 80
    },
    {
      "midi": 38,
      "hit": false,
      "t": 31684,
      "d": 92,
      "v": 74
    },
    {
      "midi": 38,
      "hit": false,
      "t": 32156,
      "d": 28,
      "v": 104
    },
    {
      "midi": 50,
      "hit": false,
      "t": 32164,
      "d": 20,
      "v": 88
    },
    {
      "midi": 39,
      "hit": false,
      "t": 32184,
      "d": 464,
      "v": 110
    },
    {
      "midi": 39,
      "hit": false,
      "t": 32184,
      "d": 464,
      "v": 110
    },
    {
      "midi": 50,
      "hit": false,
      "t": 32384,
      "d": 24,
      "v": 99
    },
    {
      "midi": 38,
      "hit": false,
      "t": 32388,
      "d": 24,
      "v": 104
    },
    {
      "midi": 74,
      "hit": false,
      "t": 32404,
      "d": 144,
      "v": 100
    },
    {
      "midi": 75,
      "hit": false,
      "t": 32516,
      "d": 144,
      "v": 100
    },
    {
      "midi": 81,
      "hit": false,
      "t": 32636,
      "d": 144,
      "v": 100
    },
    {
      "midi": 26,
      "hit": false,
      "t": 32640,
      "d": 156,
      "v": 92
    },
    {
      "midi": 21,
      "hit": false,
      "t": 32880,
      "d": 80,
      "v": 88
    },
    {
      "midi": 33,
      "hit": false,
      "t": 32880,
      "d": 104,
      "v": 104
    },
    {
      "midi": 74,
      "hit": false,
      "t": 32884,
      "d": 140,
      "v": 100
    },
    {
      "midi": 38,
      "hit": false,
      "t": 32884,
      "d": 116,
      "v": 88
    },
    {
      "midi": 75,
      "hit": false,
      "t": 33004,
      "d": 136,
      "v": 100
    },
    {
      "midi": 38,
      "hit": false,
      "t": 33120,
      "d": 136,
      "v": 110
    },
    {
      "midi": 38,
      "hit": false,
      "t": 33124,
      "d": 24,
      "v": 95
    },
    {
      "midi": 50,
      "hit": false,
      "t": 33124,
      "d": 24,
      "v": 104
    },
    {
      "midi": 62,
      "hit": false,
      "t": 33124,
      "d": 96,
      "v": 71
    },
    {
      "midi": 81,
      "hit": false,
      "t": 33124,
      "d": 108,
      "v": 100
    },
    {
      "midi": 38,
      "hit": false,
      "t": 33364,
      "d": 24,
      "v": 104
    },
    {
      "midi": 50,
      "hit": false,
      "t": 33364,
      "d": 24,
      "v": 95
    },
    {
      "midi": 74,
      "hit": false,
      "t": 33364,
      "d": 160,
      "v": 100
    },
    {
      "midi": 38,
      "hit": false,
      "t": 33364,
      "d": 120,
      "v": 88
    },
    {
      "midi": 75,
      "hit": false,
      "t": 33484,
      "d": 148,
      "v": 100
    },
    {
      "midi": 21,
      "hit": false,
      "t": 33600,
      "d": 104,
      "v": 88
    },
    {
      "midi": 26,
      "hit": false,
      "t": 33600,
      "d": 160,
      "v": 110
    },
    {
      "midi": 62,
      "hit": false,
      "t": 33604,
      "d": 88,
      "v": 66
    },
    {
      "midi": 81,
      "hit": false,
      "t": 33604,
      "d": 148,
      "v": 100
    },
    {
      "midi": 27,
      "hit": false,
      "t": 33604,
      "d": 124,
      "v": 80
    },
    {
      "midi": 74,
      "hit": false,
      "t": 33852,
      "d": 140,
      "v": 100
    },
    {
      "midi": 75,
      "hit": false,
      "t": 33972,
      "d": 136,
      "v": 100
    },
    {
      "midi": 50,
      "hit": false,
      "t": 34076,
      "d": 28,
      "v": 99
    },
    {
      "midi": 38,
      "hit": false,
      "t": 34076,
      "d": 32,
      "v": 104
    },
    {
      "midi": 38,
      "hit": false,
      "t": 34080,
      "d": 120,
      "v": 110
    },
    {
      "midi": 81,
      "hit": false,
      "t": 34092,
      "d": 108,
      "v": 100
    },
    {
      "midi": 87,
      "hit": false,
      "t": 34320,
      "d": 140,
      "v": 100
    },
    {
      "midi": 82,
      "hit": false,
      "t": 34440,
      "d": 128,
      "v": 100
    },
    {
      "midi": 81,
      "hit": false,
      "t": 34560,
      "d": 116,
      "v": 100
    },
    {
      "midi": 26,
      "hit": false,
      "t": 34560,
      "d": 156,
      "v": 92
    },
    {
      "midi": 86,
      "hit": false,
      "t": 34796,
      "d": 56,
      "v": 80
    },
    {
      "midi": 21,
      "hit": false,
      "t": 34800,
      "d": 108,
      "v": 94
    },
    {
      "midi": 87,
      "hit": false,
      "t": 34800,
      "d": 160,
      "v": 100
    },
    {
      "midi": 33,
      "hit": false,
      "t": 34800,
      "d": 104,
      "v": 104
    },
    {
      "midi": 38,
      "hit": false,
      "t": 34804,
      "d": 124,
      "v": 80
    },
    {
      "midi": 82,
      "hit": false,
      "t": 34920,
      "d": 140,
      "v": 100
    },
    {
      "midi": 50,
      "hit": false,
      "t": 35036,
      "d": 24,
      "v": 104
    },
    {
      "midi": 38,
      "hit": false,
      "t": 35036,
      "d": 28,
      "v": 104
    },
    {
      "midi": 86,
      "hit": false,
      "t": 35036,
      "d": 56,
      "v": 84
    },
    {
      "midi": 81,
      "hit": false,
      "t": 35040,
      "d": 100,
      "v": 100
    },
    {
      "midi": 38,
      "hit": false,
      "t": 35040,
      "d": 136,
      "v": 110
    },
    {
      "midi": 38,
      "hit": false,
      "t": 35044,
      "d": 92,
      "v": 74
    },
    {
      "midi": 38,
      "hit": false,
      "t": 35276,
      "d": 24,
      "v": 99
    },
    {
      "midi": 50,
      "hit": false,
      "t": 35276,
      "d": 24,
      "v": 104
    },
    {
      "midi": 86,
      "hit": false,
      "t": 35276,
      "d": 56,
      "v": 80
    },
    {
      "midi": 38,
      "hit": false,
      "t": 35276,
      "d": 108,
      "v": 80
    },
    {
      "midi": 87,
      "hit": false,
      "t": 35280,
      "d": 116,
      "v": 100
    },
    {
      "midi": 82,
      "hit": false,
      "t": 35400,
      "d": 132,
      "v": 100
    },
    {
      "midi": 86,
      "hit": false,
      "t": 35516,
      "d": 56,
      "v": 88
    },
    {
      "midi": 21,
      "hit": false,
      "t": 35520,
      "d": 136,
      "v": 92
    },
    {
      "midi": 81,
      "hit": false,
      "t": 35520,
      "d": 132,
      "v": 100
    },
    {
      "midi": 26,
      "hit": false,
      "t": 35520,
      "d": 160,
      "v": 110
    },
    {
      "midi": 38,
      "hit": false,
      "t": 35524,
      "d": 92,
      "v": 74
    },
    {
      "midi": 27,
      "hit": false,
      "t": 35524,
      "d": 116,
      "v": 80
    },
    {
      "midi": 86,
      "hit": false,
      "t": 35756,
      "d": 56,
      "v": 88
    },
    {
      "midi": 50,
      "hit": false,
      "t": 35996,
      "d": 24,
      "v": 99
    },
    {
      "midi": 86,
      "hit": false,
      "t": 35996,
      "d": 56,
      "v": 88
    },
    {
      "midi": 38,
      "hit": false,
      "t": 36000,
      "d": 24,
      "v": 104
    },
    {
      "midi": 38,
      "hit": false,
      "t": 36000,
      "d": 120,
      "v": 110
    },
    {
      "midi": 86,
      "hit": false,
      "t": 36236,
      "d": 56,
      "v": 88
    },
    {
      "midi": 74,
      "hit": false,
      "t": 36244,
      "d": 144,
      "v": 100
    },
    {
      "midi": 75,
      "hit": false,
      "t": 36356,
      "d": 144,
      "v": 100
    },
    {
      "midi": 86,
      "hit": false,
      "t": 36476,
      "d": 56,
      "v": 76
    },
    {
      "midi": 81,
      "hit": false,
      "t": 36476,
      "d": 144,
      "v": 100
    },
    {
      "midi": 86,
      "hit": false,
      "t": 36480,
      "d": 56,
      "v": 76
    },
    {
      "midi": 26,
      "hit": false,
      "t": 36480,
      "d": 156,
      "v": 92
    },
    {
      "midi": 38,
      "hit": false,
      "t": 36716,
      "d": 136,
      "v": 88
    },
    {
      "midi": 21,
      "hit": false,
      "t": 36720,
      "d": 124,
      "v": 92
    },
    {
      "midi": 86,
      "hit": false,
      "t": 36720,
      "d": 56,
      "v": 88
    },
    {
      "midi": 33,
      "hit": false,
      "t": 36720,
      "d": 104,
      "v": 104
    },
    {
      "midi": 74,
      "hit": false,
      "t": 36724,
      "d": 140,
      "v": 100
    },
    {
      "midi": 75,
      "hit": false,
      "t": 36844,
      "d": 136,
      "v": 100
    },
    {
      "midi": 50,
      "hit": false,
      "t": 36956,
      "d": 24,
      "v": 99
    },
    {
      "midi": 38,
      "hit": false,
      "t": 36956,
      "d": 28,
      "v": 104
    },
    {
      "midi": 38,
      "hit": false,
      "t": 36956,
      "d": 96,
      "v": 74
    },
    {
      "midi": 86,
      "hit": false,
      "t": 36960,
      "d": 56,
      "v": 88
    },
    {
      "midi": 38,
      "hit": false,
      "t": 36960,
      "d": 136,
      "v": 110
    },
    {
      "midi": 81,
      "hit": false,
      "t": 36964,
      "d": 108,
      "v": 100
    },
    {
      "midi": 50,
      "hit": false,
      "t": 37200,
      "d": 24,
      "v": 99
    },
    {
      "midi": 38,
      "hit": false,
      "t": 37200,
      "d": 24,
      "v": 104
    },
    {
      "midi": 86,
      "hit": false,
      "t": 37200,
      "d": 56,
      "v": 88
    },
    {
      "midi": 74,
      "hit": false,
      "t": 37204,
      "d": 160,
      "v": 100
    },
    {
      "midi": 38,
      "hit": false,
      "t": 37204,
      "d": 120,
      "v": 79
    },
    {
      "midi": 75,
      "hit": false,
      "t": 37324,
      "d": 148,
      "v": 100
    },
    {
      "midi": 38,
      "hit": false,
      "t": 37436,
      "d": 88,
      "v": 74
    },
    {
      "midi": 21,
      "hit": false,
      "t": 37440,
      "d": 144,
      "v": 88
    },
    {
      "midi": 86,
      "hit": false,
      "t": 37440,
      "d": 56,
      "v": 88
    },
    {
      "midi": 26,
      "hit": false,
      "t": 37440,
      "d": 160,
      "v": 110
    },
    {
      "midi": 81,
      "hit": false,
      "t": 37444,
      "d": 148,
      "v": 100
    },
    {
      "midi": 27,
      "hit": false,
      "t": 37444,
      "d": 144,
      "v": 84
    },
    {
      "midi": 86,
      "hit": false,
      "t": 37680,
      "d": 56,
      "v": 80
    },
    {
      "midi": 74,
      "hit": false,
      "t": 37692,
      "d": 140,
      "v": 100
    },
    {
      "midi": 75,
      "hit": false,
      "t": 37812,
      "d": 136,
      "v": 100
    },
    {
      "midi": 50,
      "hit": false,
      "t": 37916,
      "d": 24,
      "v": 104
    },
    {
      "midi": 38,
      "hit": false,
      "t": 37916,
      "d": 32,
      "v": 95
    },
    {
      "midi": 86,
      "hit": false,
      "t": 37920,
      "d": 56,
      "v": 84
    },
    {
      "midi": 38,
      "hit": false,
      "t": 37920,
      "d": 120,
      "v": 110
    },
    {
      "midi": 81,
      "hit": false,
      "t": 37932,
      "d": 108,
      "v": 100
    },
    {
      "midi": 86,
      "hit": false,
      "t": 38160,
      "d": 56,
      "v": 80
    },
    {
      "midi": 87,
      "hit": false,
      "t": 38160,
      "d": 140,
      "v": 100
    },
    {
      "midi": 82,
      "hit": false,
      "t": 38280,
      "d": 128,
      "v": 100
    },
    {
      "midi": 81,
      "hit": false,
      "t": 38400,
      "d": 116,
      "v": 100
    },
    {
      "midi": 26,
      "hit": false,
      "t": 38400,
      "d": 156,
      "v": 92
    },
    {
      "midi": 21,
      "hit": false,
      "t": 38640,
      "d": 120,
      "v": 94
    },
    {
      "midi": 87,
      "hit": false,
      "t": 38640,
      "d": 160,
      "v": 100
    },
    {
      "midi": 33,
      "hit": false,
      "t": 38640,
      "d": 104,
      "v": 104
    },
    {
      "midi": 38,
      "hit": false,
      "t": 38644,
      "d": 132,
      "v": 88
    },
    {
      "midi": 82,
      "hit": false,
      "t": 38760,
      "d": 140,
      "v": 100
    },
    {
      "midi": 50,
      "hit": false,
      "t": 38876,
      "d": 24,
      "v": 95
    },
    {
      "midi": 38,
      "hit": false,
      "t": 38876,
      "d": 28,
      "v": 104
    },
    {
      "midi": 50,
      "hit": false,
      "t": 38876,
      "d": 100,
      "v": 78
    },
    {
      "midi": 81,
      "hit": false,
      "t": 38880,
      "d": 100,
      "v": 100
    },
    {
      "midi": 38,
      "hit": false,
      "t": 38880,
      "d": 136,
      "v": 110
    },
    {
      "midi": 50,
      "hit": false,
      "t": 39116,
      "d": 24,
      "v": 95
    },
    {
      "midi": 38,
      "hit": false,
      "t": 39116,
      "d": 28,
      "v": 104
    },
    {
      "midi": 38,
      "hit": false,
      "t": 39116,
      "d": 132,
      "v": 80
    },
    {
      "midi": 87,
      "hit": false,
      "t": 39120,
      "d": 116,
      "v": 100
    },
    {
      "midi": 82,
      "hit": false,
      "t": 39240,
      "d": 132,
      "v": 100
    },
    {
      "midi": 21,
      "hit": false,
      "t": 39360,
      "d": 116,
      "v": 80
    },
    {
      "midi": 81,
      "hit": false,
      "t": 39360,
      "d": 132,
      "v": 100
    },
    {
      "midi": 26,
      "hit": false,
      "t": 39360,
      "d": 160,
      "v": 110
    },
    {
      "midi": 50,
      "hit": false,
      "t": 39364,
      "d": 104,
      "v": 76
    },
    {
      "midi": 27,
      "hit": false,
      "t": 39364,
      "d": 132,
      "v": 80
    },
    {
      "midi": 50,
      "hit": false,
      "t": 39836,
      "d": 24,
      "v": 108
    },
    {
      "midi": 38,
      "hit": false,
      "t": 39836,
      "d": 28,
      "v": 104
    },
    {
      "midi": 38,
      "hit": false,
      "t": 39840,
      "d": 120,
      "v": 110
    },
    {
      "midi": 74,
      "hit": false,
      "t": 40084,
      "d": 144,
      "v": 100
    },
    {
      "midi": 75,
      "hit": false,
      "t": 40196,
      "d": 144,
      "v": 100
    },
    {
      "midi": 81,
      "hit": false,
      "t": 40316,
      "d": 144,
      "v": 100
    },
    {
      "midi": 26,
      "hit": false,
      "t": 40320,
      "d": 156,
      "v": 92
    },
    {
      "midi": 21,
      "hit": false,
      "t": 40560,
      "d": 80,
      "v": 88
    },
    {
      "midi": 33,
      "hit": false,
      "t": 40560,
      "d": 104,
      "v": 104
    },
    {
      "midi": 74,
      "hit": false,
      "t": 40564,
      "d": 140,
      "v": 100
    },
    {
      "midi": 38,
      "hit": false,
      "t": 40564,
      "d": 128,
      "v": 80
    },
    {
      "midi": 75,
      "hit": false,
      "t": 40684,
      "d": 136,
      "v": 100
    },
    {
      "midi": 50,
      "hit": false,
      "t": 40796,
      "d": 24,
      "v": 99
    },
    {
      "midi": 38,
      "hit": false,
      "t": 40796,
      "d": 24,
      "v": 99
    },
    {
      "midi": 38,
      "hit": false,
      "t": 40800,
      "d": 136,
      "v": 110
    },
    {
      "midi": 50,
      "hit": false,
      "t": 40804,
      "d": 128,
      "v": 64
    },
    {
      "midi": 81,
      "hit": false,
      "t": 40804,
      "d": 108,
      "v": 100
    },
    {
      "midi": 38,
      "hit": false,
      "t": 41036,
      "d": 24,
      "v": 99
    },
    {
      "midi": 50,
      "hit": false,
      "t": 41036,
      "d": 24,
      "v": 99
    },
    {
      "midi": 74,
      "hit": false,
      "t": 41044,
      "d": 160,
      "v": 100
    },
    {
      "midi": 38,
      "hit": false,
      "t": 41044,
      "d": 112,
      "v": 76
    },
    {
      "midi": 75,
      "hit": false,
      "t": 41164,
      "d": 148,
      "v": 100
    },
    {
      "midi": 21,
      "hit": false,
      "t": 41280,
      "d": 104,
      "v": 88
    },
    {
      "midi": 26,
      "hit": false,
      "t": 41280,
      "d": 160,
      "v": 110
    },
    {
      "midi": 50,
      "hit": false,
      "t": 41284,
      "d": 108,
      "v": 54
    },
    {
      "midi": 81,
      "hit": false,
      "t": 41284,
      "d": 148,
      "v": 100
    },
    {
      "midi": 27,
      "hit": false,
      "t": 41284,
      "d": 136,
      "v": 88
    },
    {
      "midi": 74,
      "hit": false,
      "t": 41532,
      "d": 140,
      "v": 100
    },
    {
      "midi": 75,
      "hit": false,
      "t": 41652,
      "d": 136,
      "v": 100
    },
    {
      "midi": 38,
      "hit": false,
      "t": 41756,
      "d": 24,
      "v": 99
    },
    {
      "midi": 50,
      "hit": false,
      "t": 41756,
      "d": 24,
      "v": 99
    },
    {
      "midi": 38,
      "hit": false,
      "t": 41760,
      "d": 120,
      "v": 110
    },
    {
      "midi": 81,
      "hit": false,
      "t": 41772,
      "d": 108,
      "v": 100
    },
    {
      "midi": 87,
      "hit": false,
      "t": 42000,
      "d": 140,
      "v": 100
    },
    {
      "midi": 82,
      "hit": false,
      "t": 42120,
      "d": 128,
      "v": 100
    },
    {
      "midi": 81,
      "hit": false,
      "t": 42240,
      "d": 116,
      "v": 100
    },
    {
      "midi": 26,
      "hit": false,
      "t": 42240,
      "d": 156,
      "v": 92
    },
    {
      "midi": 86,
      "hit": false,
      "t": 42476,
      "d": 56,
      "v": 80
    },
    {
      "midi": 21,
      "hit": false,
      "t": 42480,
      "d": 108,
      "v": 94
    },
    {
      "midi": 87,
      "hit": false,
      "t": 42480,
      "d": 160,
      "v": 100
    },
    {
      "midi": 33,
      "hit": false,
      "t": 42480,
      "d": 104,
      "v": 104
    },
    {
      "midi": 38,
      "hit": false,
      "t": 42484,
      "d": 104,
      "v": 80
    },
    {
      "midi": 82,
      "hit": false,
      "t": 42600,
      "d": 140,
      "v": 100
    },
    {
      "midi": 50,
      "hit": false,
      "t": 42716,
      "d": 24,
      "v": 99
    },
    {
      "midi": 38,
      "hit": false,
      "t": 42716,
      "d": 28,
      "v": 99
    },
    {
      "midi": 86,
      "hit": false,
      "t": 42716,
      "d": 56,
      "v": 84
    },
    {
      "midi": 81,
      "hit": false,
      "t": 42720,
      "d": 100,
      "v": 100
    },
    {
      "midi": 38,
      "hit": false,
      "t": 42720,
      "d": 136,
      "v": 110
    },
    {
      "midi": 45,
      "hit": false,
      "t": 42724,
      "d": 100,
      "v": 68
    },
    {
      "midi": 50,
      "hit": false,
      "t": 42956,
      "d": 24,
      "v": 95
    },
    {
      "midi": 38,
      "hit": false,
      "t": 42956,
      "d": 28,
      "v": 95
    },
    {
      "midi": 86,
      "hit": false,
      "t": 42956,
      "d": 56,
      "v": 80
    },
    {
      "midi": 38,
      "hit": false,
      "t": 42956,
      "d": 108,
      "v": 88
    },
    {
      "midi": 87,
      "hit": false,
      "t": 42960,
      "d": 116,
      "v": 100
    },
    {
      "midi": 82,
      "hit": false,
      "t": 43080,
      "d": 132,
      "v": 100
    },
    {
      "midi": 86,
      "hit": false,
      "t": 43196,
      "d": 56,
      "v": 88
    },
    {
      "midi": 21,
      "hit": false,
      "t": 43200,
      "d": 136,
      "v": 92
    },
    {
      "midi": 81,
      "hit": false,
      "t": 43200,
      "d": 132,
      "v": 100
    },
    {
      "midi": 26,
      "hit": false,
      "t": 43200,
      "d": 160,
      "v": 110
    },
    {
      "midi": 45,
      "hit": false,
      "t": 43204,
      "d": 96,
      "v": 68
    },
    {
      "midi": 27,
      "hit": false,
      "t": 43204,
      "d": 140,
      "v": 80
    },
    {
      "midi": 86,
      "hit": false,
      "t": 43436,
      "d": 56,
      "v": 88
    },
    {
      "midi": 38,
      "hit": false,
      "t": 43676,
      "d": 28,
      "v": 104
    },
    {
      "midi": 50,
      "hit": false,
      "t": 43676,
      "d": 28,
      "v": 100
    },
    {
      "midi": 86,
      "hit": false,
      "t": 43676,
      "d": 56,
      "v": 88
    },
    {
      "midi": 38,
      "hit": false,
      "t": 43680,
      "d": 120,
      "v": 110
    },
    {
      "midi": 86,
      "hit": false,
      "t": 43916,
      "d": 56,
      "v": 88
    },
    {
      "midi": 74,
      "hit": false,
      "t": 43924,
      "d": 144,
      "v": 100
    },
    {
      "midi": 75,
      "hit": false,
      "t": 44036,
      "d": 144,
      "v": 100
    },
    {
      "midi": 86,
      "hit": false,
      "t": 44156,
      "d": 56,
      "v": 76
    },
    {
      "midi": 81,
      "hit": false,
      "t": 44156,
      "d": 144,
      "v": 100
    },
    {
      "midi": 86,
      "hit": false,
      "t": 44160,
      "d": 56,
      "v": 76
    },
    {
      "midi": 26,
      "hit": false,
      "t": 44160,
      "d": 156,
      "v": 92
    },
    {
      "midi": 38,
      "hit": false,
      "t": 44396,
      "d": 124,
      "v": 88
    },
    {
      "midi": 21,
      "hit": false,
      "t": 44400,
      "d": 124,
      "v": 92
    },
    {
      "midi": 86,
      "hit": false,
      "t": 44400,
      "d": 56,
      "v": 88
    },
    {
      "midi": 33,
      "hit": false,
      "t": 44400,
      "d": 104,
      "v": 104
    },
    {
      "midi": 74,
      "hit": false,
      "t": 44404,
      "d": 140,
      "v": 100
    },
    {
      "midi": 75,
      "hit": false,
      "t": 44524,
      "d": 136,
      "v": 100
    },
    {
      "midi": 50,
      "hit": false,
      "t": 44636,
      "d": 24,
      "v": 99
    },
    {
      "midi": 38,
      "hit": false,
      "t": 44636,
      "d": 28,
      "v": 99
    },
    {
      "midi": 86,
      "hit": false,
      "t": 44640,
      "d": 56,
      "v": 88
    },
    {
      "midi": 38,
      "hit": false,
      "t": 44640,
      "d": 136,
      "v": 110
    },
    {
      "midi": 62,
      "hit": false,
      "t": 44644,
      "d": 96,
      "v": 71
    },
    {
      "midi": 81,
      "hit": false,
      "t": 44644,
      "d": 108,
      "v": 100
    },
    {
      "midi": 86,
      "hit": false,
      "t": 44880,
      "d": 56,
      "v": 88
    },
    {
      "midi": 38,
      "hit": false,
      "t": 44884,
      "d": 24,
      "v": 104
    },
    {
      "midi": 50,
      "hit": false,
      "t": 44884,
      "d": 24,
      "v": 104
    },
    {
      "midi": 74,
      "hit": false,
      "t": 44884,
      "d": 160,
      "v": 100
    },
    {
      "midi": 38,
      "hit": false,
      "t": 44884,
      "d": 108,
      "v": 80
    },
    {
      "midi": 75,
      "hit": false,
      "t": 45004,
      "d": 148,
      "v": 100
    },
    {
      "midi": 21,
      "hit": false,
      "t": 45120,
      "d": 144,
      "v": 88
    },
    {
      "midi": 86,
      "hit": false,
      "t": 45120,
      "d": 56,
      "v": 88
    },
    {
      "midi": 26,
      "hit": false,
      "t": 45120,
      "d": 160,
      "v": 110
    },
    {
      "midi": 62,
      "hit": false,
      "t": 45124,
      "d": 88,
      "v": 66
    },
    {
      "midi": 81,
      "hit": false,
      "t": 45124,
      "d": 148,
      "v": 100
    },
    {
      "midi": 27,
      "hit": false,
      "t": 45124,
      "d": 104,
      "v": 79
    },
    {
      "midi": 86,
      "hit": false,
      "t": 45360,
      "d": 56,
      "v": 80
    },
    {
      "midi": 74,
      "hit": false,
      "t": 45372,
      "d": 140,
      "v": 100
    },
    {
      "midi": 75,
      "hit": false,
      "t": 45492,
      "d": 136,
      "v": 100
    },
    {
      "midi": 86,
      "hit": false,
      "t": 45600,
      "d": 56,
      "v": 84
    },
    {
      "midi": 38,
      "hit": false,
      "t": 45600,
      "d": 120,
      "v": 110
    },
    {
      "midi": 50,
      "hit": false,
      "t": 45604,
      "d": 24,
      "v": 108
    },
    {
      "midi": 38,
      "hit": false,
      "t": 45604,
      "d": 32,
      "v": 99
    },
    {
      "midi": 81,
      "hit": false,
      "t": 45612,
      "d": 108,
      "v": 100
    },
    {
      "midi": 86,
      "hit": false,
      "t": 45840,
      "d": 56,
      "v": 80
    },
    {
      "midi": 87,
      "hit": false,
      "t": 45840,
      "d": 140,
      "v": 100
    },
    {
      "midi": 82,
      "hit": false,
      "t": 45960,
      "d": 128,
      "v": 100
    },
    {
      "midi": 81,
      "hit": false,
      "t": 46080,
      "d": 116,
      "v": 100
    },
    {
      "midi": 26,
      "hit": false,
      "t": 46080,
      "d": 156,
      "v": 92
    },
    {
      "midi": 21,
      "hit": false,
      "t": 46320,
      "d": 120,
      "v": 94
    },
    {
      "midi": 87,
      "hit": false,
      "t": 46320,
      "d": 160,
      "v": 100
    },
    {
      "midi": 33,
      "hit": false,
      "t": 46320,
      "d": 104,
      "v": 104
    },
    {
      "midi": 38,
      "hit": false,
      "t": 46324,
      "d": 112,
      "v": 80
    },
    {
      "midi": 82,
      "hit": false,
      "t": 46440,
      "d": 140,
      "v": 100
    },
    {
      "midi": 38,
      "hit": false,
      "t": 46560,
      "d": 24,
      "v": 104
    },
    {
      "midi": 50,
      "hit": false,
      "t": 46560,
      "d": 24,
      "v": 100
    },
    {
      "midi": 81,
      "hit": false,
      "t": 46560,
      "d": 100,
      "v": 100
    },
    {
      "midi": 38,
      "hit": false,
      "t": 46560,
      "d": 136,
      "v": 110
    },
    {
      "midi": 38,
      "hit": false,
      "t": 46564,
      "d": 92,
      "v": 74
    },
    {
      "midi": 38,
      "hit": false,
      "t": 46796,
      "d": 112,
      "v": 88
    },
    {
      "midi": 87,
      "hit": false,
      "t": 46800,
      "d": 116,
      "v": 100
    },
    {
      "midi": 38,
      "hit": false,
      "t": 46804,
      "d": 24,
      "v": 99
    },
    {
      "midi": 50,
      "hit": false,
      "t": 46804,
      "d": 28,
      "v": 99
    },
    {
      "midi": 82,
      "hit": false,
      "t": 46920,
      "d": 132,
      "v": 100
    },
    {
      "midi": 27,
      "hit": false,
      "t": 47036,
      "d": 128,
      "v": 71
    },
    {
      "midi": 21,
      "hit": false,
      "t": 47040,
      "d": 116,
      "v": 80
    },
    {
      "midi": 81,
      "hit": false,
      "t": 47040,
      "d": 132,
      "v": 100
    },
    {
      "midi": 26,
      "hit": false,
      "t": 47040,
      "d": 160,
      "v": 110
    },
    {
      "midi": 38,
      "hit": false,
      "t": 47044,
      "d": 92,
      "v": 74
    },
    {
      "midi": 38,
      "hit": false,
      "t": 47520,
      "d": 24,
      "v": 99
    },
    {
      "midi": 50,
      "hit": false,
      "t": 47520,
      "d": 24,
      "v": 108
    },
    {
      "midi": 38,
      "hit": false,
      "t": 47520,
      "d": 120,
      "v": 110
    },
    {
      "midi": 45,
      "hit": false,
      "t": 48000,
      "d": 88,
      "v": 90
    },
    {
      "midi": 50,
      "hit": false,
      "t": 48000,
      "d": 7680,
      "v": 92
    },
    {
      "midi": 62,
      "hit": false,
      "t": 48000,
      "d": 3124,
      "v": 92
    },
    {
      "midi": 38,
      "hit": false,
      "t": 48020,
      "d": 88,
      "v": 120
    },
    {
      "midi": 21,
      "hit": false,
      "t": 48240,
      "d": 80,
      "v": 88
    },
    {
      "midi": 38,
      "hit": false,
      "t": 48244,
      "d": 116,
      "v": 88
    },
    {
      "midi": 38,
      "hit": false,
      "t": 48256,
      "d": 100,
      "v": 110
    },
    {
      "midi": 62,
      "hit": false,
      "t": 48484,
      "d": 96,
      "v": 71
    },
    {
      "midi": 45,
      "hit": false,
      "t": 48720,
      "d": 100,
      "v": 104
    },
    {
      "midi": 38,
      "hit": false,
      "t": 48724,
      "d": 120,
      "v": 88
    },
    {
      "midi": 38,
      "hit": false,
      "t": 48732,
      "d": 96,
      "v": 110
    },
    {
      "midi": 21,
      "hit": false,
      "t": 48960,
      "d": 104,
      "v": 88
    },
    {
      "midi": 62,
      "hit": false,
      "t": 48964,
      "d": 88,
      "v": 66
    },
    {
      "midi": 27,
      "hit": false,
      "t": 48964,
      "d": 124,
      "v": 80
    },
    {
      "midi": 51,
      "hit": false,
      "t": 49096,
      "d": 7680,
      "v": 92
    },
    {
      "midi": 33,
      "hit": false,
      "t": 49168,
      "d": 88,
      "v": 94
    },
    {
      "midi": 39,
      "hit": false,
      "t": 49432,
      "d": 124,
      "v": 92
    },
    {
      "midi": 45,
      "hit": false,
      "t": 49920,
      "d": 100,
      "v": 92
    },
    {
      "midi": 38,
      "hit": false,
      "t": 49936,
      "d": 88,
      "v": 122
    },
    {
      "midi": 21,
      "hit": false,
      "t": 50160,
      "d": 108,
      "v": 94
    },
    {
      "midi": 38,
      "hit": false,
      "t": 50164,
      "d": 124,
      "v": 80
    },
    {
      "midi": 38,
      "hit": false,
      "t": 50176,
      "d": 92,
      "v": 110
    },
    {
      "midi": 53,
      "hit": false,
      "t": 50192,
      "d": 7680,
      "v": 92
    },
    {
      "midi": 38,
      "hit": false,
      "t": 50404,
      "d": 92,
      "v": 74
    },
    {
      "midi": 38,
      "hit": false,
      "t": 50628,
      "d": 96,
      "v": 104
    },
    {
      "midi": 38,
      "hit": false,
      "t": 50636,
      "d": 108,
      "v": 80
    },
    {
      "midi": 45,
      "hit": false,
      "t": 50640,
      "d": 92,
      "v": 104
    },
    {
      "midi": 21,
      "hit": false,
      "t": 50880,
      "d": 136,
      "v": 92
    },
    {
      "midi": 38,
      "hit": false,
      "t": 50884,
      "d": 92,
      "v": 74
    },
    {
      "midi": 27,
      "hit": false,
      "t": 50884,
      "d": 116,
      "v": 80
    },
    {
      "midi": 33,
      "hit": false,
      "t": 51084,
      "d": 96,
      "v": 92
    },
    {
      "midi": 63,
      "hit": false,
      "t": 51116,
      "d": 376,
      "v": 84
    },
    {
      "midi": 54,
      "hit": false,
      "t": 51288,
      "d": 7680,
      "v": 92
    },
    {
      "midi": 39,
      "hit": false,
      "t": 51360,
      "d": 112,
      "v": 92
    },
    {
      "midi": 67,
      "hit": false,
      "t": 51484,
      "d": 340,
      "v": 71
    },
    {
      "midi": 45,
      "hit": false,
      "t": 51840,
      "d": 112,
      "v": 92
    },
    {
      "midi": 69,
      "hit": false,
      "t": 51844,
      "d": 2536,
      "v": 80
    },
    {
      "midi": 38,
      "hit": false,
      "t": 51864,
      "d": 92,
      "v": 110
    },
    {
      "midi": 38,
      "hit": false,
      "t": 52076,
      "d": 136,
      "v": 88
    },
    {
      "midi": 21,
      "hit": false,
      "t": 52080,
      "d": 124,
      "v": 92
    },
    {
      "midi": 38,
      "hit": false,
      "t": 52084,
      "d": 108,
      "v": 104
    },
    {
      "midi": 38,
      "hit": false,
      "t": 52316,
      "d": 96,
      "v": 74
    },
    {
      "midi": 56,
      "hit": false,
      "t": 52384,
      "d": 7680,
      "v": 92
    },
    {
      "midi": 38,
      "hit": false,
      "t": 52536,
      "d": 100,
      "v": 110
    },
    {
      "midi": 45,
      "hit": false,
      "t": 52560,
      "d": 100,
      "v": 94
    },
    {
      "midi": 38,
      "hit": false,
      "t": 52564,
      "d": 120,
      "v": 79
    },
    {
      "midi": 38,
      "hit": false,
      "t": 52796,
      "d": 88,
      "v": 74
    },
    {
      "midi": 21,
      "hit": false,
      "t": 52800,
      "d": 144,
      "v": 88
    },
    {
      "midi": 27,
      "hit": false,
      "t": 52804,
      "d": 144,
      "v": 84
    },
    {
      "midi": 33,
      "hit": false,
      "t": 53012,
      "d": 100,
      "v": 94
    },
    {
      "midi": 39,
      "hit": false,
      "t": 53276,
      "d": 104,
      "v": 94
    },
    {
      "midi": 58,
      "hit": false,
      "t": 53480,
      "d": 7680,
      "v": 92
    },
    {
      "midi": 45,
      "hit": false,
      "t": 53760,
      "d": 116,
      "v": 104
    },
    {
      "midi": 38,
      "hit": false,
      "t": 53780,
      "d": 100,
      "v": 104
    },
    {
      "midi": 21,
      "hit": false,
      "t": 54000,
      "d": 120,
      "v": 94
    },
    {
      "midi": 38,
      "hit": false,
      "t": 54004,
      "d": 132,
      "v": 88
    },
    {
      "midi": 38,
      "hit": false,
      "t": 54008,
      "d": 104,
      "v": 104
    },
    {
      "midi": 50,
      "hit": false,
      "t": 54236,
      "d": 100,
      "v": 78
    },
    {
      "midi": 38,
      "hit": false,
      "t": 54476,
      "d": 132,
      "v": 80
    },
    {
      "midi": 69,
      "hit": false,
      "t": 54476,
      "d": 144,
      "v": 60
    },
    {
      "midi": 45,
      "hit": false,
      "t": 54480,
      "d": 92,
      "v": 104
    },
    {
      "midi": 38,
      "hit": false,
      "t": 54480,
      "d": 96,
      "v": 110
    },
    {
      "midi": 62,
      "hit": false,
      "t": 54576,
      "d": 7680,
      "v": 92
    },
    {
      "midi": 70,
      "hit": false,
      "t": 54596,
      "d": 160,
      "v": 64
    },
    {
      "midi": 72,
      "hit": false,
      "t": 54716,
      "d": 232,
      "v": 80
    },
    {
      "midi": 21,
      "hit": false,
      "t": 54720,
      "d": 116,
      "v": 80
    },
    {
      "midi": 50,
      "hit": false,
      "t": 54724,
      "d": 104,
      "v": 76
    },
    {
      "midi": 27,
      "hit": false,
      "t": 54724,
      "d": 132,
      "v": 80
    },
    {
      "midi": 33,
      "hit": false,
      "t": 54916,
      "d": 100,
      "v": 104
    },
    {
      "midi": 70,
      "hit": false,
      "t": 54964,
      "d": 472,
      "v": 80
    },
    {
      "midi": 39,
      "hit": false,
      "t": 55204,
      "d": 100,
      "v": 104
    },
    {
      "midi": 69,
      "hit": false,
      "t": 55436,
      "d": 216,
      "v": 88
    },
    {
      "midi": 45,
      "hit": false,
      "t": 55680,
      "d": 88,
      "v": 90
    },
    {
      "midi": 62,
      "hit": false,
      "t": 55684,
      "d": 2444,
      "v": 92
    },
    {
      "midi": 38,
      "hit": false,
      "t": 55700,
      "d": 88,
      "v": 120
    },
    {
      "midi": 21,
      "hit": false,
      "t": 55920,
      "d": 80,
      "v": 88
    },
    {
      "midi": 38,
      "hit": false,
      "t": 55924,
      "d": 128,
      "v": 80
    },
    {
      "midi": 38,
      "hit": false,
      "t": 55936,
      "d": 100,
      "v": 110
    },
    {
      "midi": 50,
      "hit": false,
      "t": 56164,
      "d": 128,
      "v": 64
    },
    {
      "midi": 45,
      "hit": false,
      "t": 56400,
      "d": 100,
      "v": 104
    },
    {
      "midi": 38,
      "hit": false,
      "t": 56404,
      "d": 112,
      "v": 76
    },
    {
      "midi": 38,
      "hit": false,
      "t": 56412,
      "d": 96,
      "v": 110
    },
    {
      "midi": 21,
      "hit": false,
      "t": 56640,
      "d": 104,
      "v": 88
    },
    {
      "midi": 50,
      "hit": false,
      "t": 56644,
      "d": 108,
      "v": 54
    },
    {
      "midi": 27,
      "hit": false,
      "t": 56644,
      "d": 136,
      "v": 88
    },
    {
      "midi": 33,
      "hit": false,
      "t": 56848,
      "d": 88,
      "v": 94
    },
    {
      "midi": 39,
      "hit": false,
      "t": 57112,
      "d": 124,
      "v": 92
    },
    {
      "midi": 45,
      "hit": false,
      "t": 57600,
      "d": 100,
      "v": 92
    },
    {
      "midi": 38,
      "hit": false,
      "t": 57616,
      "d": 88,
      "v": 122
    },
    {
      "midi": 21,
      "hit": false,
      "t": 57840,
      "d": 108,
      "v": 94
    },
    {
      "midi": 38,
      "hit": false,
      "t": 57844,
      "d": 104,
      "v": 80
    },
    {
      "midi": 38,
      "hit": false,
      "t": 57856,
      "d": 92,
      "v": 110
    },
    {
      "midi": 45,
      "hit": false,
      "t": 58084,
      "d": 100,
      "v": 68
    },
    {
      "midi": 38,
      "hit": false,
      "t": 58308,
      "d": 96,
      "v": 104
    },
    {
      "midi": 38,
      "hit": false,
      "t": 58316,
      "d": 108,
      "v": 88
    },
    {
      "midi": 62,
      "hit": false,
      "t": 58316,
      "d": 180,
      "v": 60
    },
    {
      "midi": 45,
      "hit": false,
      "t": 58320,
      "d": 92,
      "v": 104
    },
    {
      "midi": 63,
      "hit": false,
      "t": 58436,
      "d": 184,
      "v": 64
    },
    {
      "midi": 67,
      "hit": false,
      "t": 58556,
      "d": 340,
      "v": 79
    },
    {
      "midi": 21,
      "hit": false,
      "t": 58560,
      "d": 136,
      "v": 92
    },
    {
      "midi": 45,
      "hit": false,
      "t": 58564,
      "d": 96,
      "v": 68
    },
    {
      "midi": 27,
      "hit": false,
      "t": 58564,
      "d": 140,
      "v": 80
    },
    {
      "midi": 33,
      "hit": false,
      "t": 58764,
      "d": 96,
      "v": 92
    },
    {
      "midi": 70,
      "hit": false,
      "t": 58916,
      "d": 236,
      "v": 80
    },
    {
      "midi": 39,
      "hit": false,
      "t": 59040,
      "d": 112,
      "v": 92
    },
    {
      "midi": 69,
      "hit": false,
      "t": 59276,
      "d": 168,
      "v": 80
    },
    {
      "midi": 45,
      "hit": false,
      "t": 59520,
      "d": 112,
      "v": 92
    },
    {
      "midi": 74,
      "hit": false,
      "t": 59524,
      "d": 604,
      "v": 88
    },
    {
      "midi": 38,
      "hit": false,
      "t": 59544,
      "d": 92,
      "v": 110
    },
    {
      "midi": 38,
      "hit": false,
      "t": 59756,
      "d": 124,
      "v": 88
    },
    {
      "midi": 21,
      "hit": false,
      "t": 59760,
      "d": 124,
      "v": 92
    },
    {
      "midi": 38,
      "hit": false,
      "t": 59764,
      "d": 108,
      "v": 104
    },
    {
      "midi": 62,
      "hit": false,
      "t": 60004,
      "d": 96,
      "v": 71
    },
    {
      "midi": 75,
      "hit": false,
      "t": 60124,
      "d": 120,
      "v": 72
    },
    {
      "midi": 38,
      "hit": false,
      "t": 60216,
      "d": 100,
      "v": 110
    },
    {
      "midi": 45,
      "hit": false,
      "t": 60240,
      "d": 100,
      "v": 94
    },
    {
      "midi": 38,
      "hit": false,
      "t": 60244,
      "d": 108,
      "v": 80
    },
    {
      "midi": 74,
      "hit": false,
      "t": 60476,
      "d": 2508,
      "v": 80
    },
    {
      "midi": 21,
      "hit": false,
      "t": 60480,
      "d": 144,
      "v": 88
    },
    {
      "midi": 62,
      "hit": false,
      "t": 60484,
      "d": 88,
      "v": 66
    },
    {
      "midi": 27,
      "hit": false,
      "t": 60484,
      "d": 104,
      "v": 79
    },
    {
      "midi": 33,
      "hit": false,
      "t": 60692,
      "d": 100,
      "v": 94
    },
    {
      "midi": 39,
      "hit": false,
      "t": 60956,
      "d": 104,
      "v": 94
    },
    {
      "midi": 45,
      "hit": false,
      "t": 61440,
      "d": 116,
      "v": 104
    },
    {
      "midi": 38,
      "hit": false,
      "t": 61460,
      "d": 100,
      "v": 104
    },
    {
      "midi": 21,
      "hit": false,
      "t": 61680,
      "d": 120,
      "v": 94
    },
    {
      "midi": 38,
      "hit": false,
      "t": 61684,
      "d": 112,
      "v": 80
    },
    {
      "midi": 38,
      "hit": false,
      "t": 61688,
      "d": 104,
      "v": 104
    },
    {
      "midi": 38,
      "hit": false,
      "t": 61924,
      "d": 92,
      "v": 74
    },
    {
      "midi": 38,
      "hit": false,
      "t": 62156,
      "d": 112,
      "v": 88
    },
    {
      "midi": 45,
      "hit": false,
      "t": 62160,
      "d": 92,
      "v": 104
    },
    {
      "midi": 38,
      "hit": false,
      "t": 62160,
      "d": 96,
      "v": 110
    },
    {
      "midi": 27,
      "hit": false,
      "t": 62396,
      "d": 128,
      "v": 71
    },
    {
      "midi": 21,
      "hit": false,
      "t": 62400,
      "d": 116,
      "v": 80
    },
    {
      "midi": 38,
      "hit": false,
      "t": 62404,
      "d": 92,
      "v": 74
    },
    {
      "midi": 33,
      "hit": false,
      "t": 62596,
      "d": 100,
      "v": 104
    },
    {
      "midi": 38,
      "hit": false,
      "t": 62876,
      "d": 28,
      "v": 104
    },
    {
      "midi": 50,
      "hit": false,
      "t": 62884,
      "d": 20,
      "v": 88
    },
    {
      "midi": 39,
      "hit": false,
      "t": 62884,
      "d": 100,
      "v": 104
    },
    {
      "midi": 50,
      "hit": false,
      "t": 63104,
      "d": 24,
      "v": 99
    },
    {
      "midi": 38,
      "hit": false,
      "t": 63108,
      "d": 24,
      "v": 104
    },
    {
      "midi": 62,
      "hit": false,
      "t": 63384,
      "d": 1920,
      "v": 80
    },
    {
      "midi": 54,
      "hit": false,
      "t": 63420,
      "d": 56,
      "v": 64
    },
    {
      "midi": 54,
      "hit": false,
      "t": 63480,
      "d": 56,
      "v": 64
    },
    {
      "midi": 54,
      "hit": false,
      "t": 63540,
      "d": 56,
      "v": 52
    },
    {
      "midi": 54,
      "hit": false,
      "t": 63600,
      "d": 56,
      "v": 61
    },
    {
      "midi": 38,
      "hit": false,
      "t": 63604,
      "d": 116,
      "v": 88
    },
    {
      "midi": 54,
      "hit": false,
      "t": 63660,
      "d": 56,
      "v": 63
    },
    {
      "midi": 54,
      "hit": false,
      "t": 63720,
      "d": 56,
      "v": 64
    },
    {
      "midi": 54,
      "hit": false,
      "t": 63780,
      "d": 56,
      "v": 71
    },
    {
      "midi": 54,
      "hit": false,
      "t": 63840,
      "d": 56,
      "v": 79
    },
    {
      "midi": 38,
      "hit": false,
      "t": 63844,
      "d": 24,
      "v": 95
    },
    {
      "midi": 50,
      "hit": false,
      "t": 63844,
      "d": 24,
      "v": 104
    },
    {
      "midi": 62,
      "hit": false,
      "t": 63844,
      "d": 96,
      "v": 71
    },
    {
      "midi": 54,
      "hit": false,
      "t": 63900,
      "d": 56,
      "v": 54
    },
    {
      "midi": 54,
      "hit": false,
      "t": 63960,
      "d": 56,
      "v": 58
    },
    {
      "midi": 54,
      "hit": false,
      "t": 64020,
      "d": 56,
      "v": 71
    },
    {
      "midi": 54,
      "hit": false,
      "t": 64080,
      "d": 56,
      "v": 60
    },
    {
      "midi": 38,
      "hit": false,
      "t": 64084,
      "d": 24,
      "v": 104
    },
    {
      "midi": 50,
      "hit": false,
      "t": 64084,
      "d": 24,
      "v": 95
    },
    {
      "midi": 38,
      "hit": false,
      "t": 64084,
      "d": 120,
      "v": 88
    },
    {
      "midi": 54,
      "hit": false,
      "t": 64140,
      "d": 56,
      "v": 62
    },
    {
      "midi": 54,
      "hit": false,
      "t": 64200,
      "d": 56,
      "v": 61
    },
    {
      "midi": 54,
      "hit": false,
      "t": 64260,
      "d": 56,
      "v": 62
    },
    {
      "midi": 54,
      "hit": false,
      "t": 64320,
      "d": 56,
      "v": 68
    },
    {
      "midi": 62,
      "hit": false,
      "t": 64324,
      "d": 88,
      "v": 66
    },
    {
      "midi": 27,
      "hit": false,
      "t": 64324,
      "d": 124,
      "v": 80
    },
    {
      "midi": 54,
      "hit": false,
      "t": 64380,
      "d": 56,
      "v": 70
    },
    {
      "midi": 54,
      "hit": false,
      "t": 64440,
      "d": 56,
      "v": 64
    },
    {
      "midi": 54,
      "hit": false,
      "t": 64500,
      "d": 56,
      "v": 64
    },
    {
      "midi": 54,
      "hit": false,
      "t": 64560,
      "d": 56,
      "v": 79
    },
    {
      "midi": 54,
      "hit": false,
      "t": 64620,
      "d": 56,
      "v": 72
    },
    {
      "midi": 54,
      "hit": false,
      "t": 64680,
      "d": 56,
      "v": 76
    },
    {
      "midi": 54,
      "hit": false,
      "t": 64740,
      "d": 56,
      "v": 79
    },
    {
      "midi": 50,
      "hit": false,
      "t": 64796,
      "d": 28,
      "v": 99
    },
    {
      "midi": 38,
      "hit": false,
      "t": 64796,
      "d": 32,
      "v": 104
    },
    {
      "midi": 54,
      "hit": false,
      "t": 64800,
      "d": 56,
      "v": 80
    },
    {
      "midi": 54,
      "hit": false,
      "t": 64860,
      "d": 56,
      "v": 70
    },
    {
      "midi": 54,
      "hit": false,
      "t": 64920,
      "d": 56,
      "v": 79
    },
    {
      "midi": 54,
      "hit": false,
      "t": 64980,
      "d": 56,
      "v": 72
    },
    {
      "midi": 54,
      "hit": false,
      "t": 65040,
      "d": 56,
      "v": 80
    },
    {
      "midi": 54,
      "hit": false,
      "t": 65100,
      "d": 56,
      "v": 80
    },
    {
      "midi": 54,
      "hit": false,
      "t": 65160,
      "d": 56,
      "v": 79
    },
    {
      "midi": 54,
      "hit": false,
      "t": 65220,
      "d": 56,
      "v": 80
    },
    {
      "midi": 73,
      "hit": false,
      "t": 65280,
      "d": 116,
      "v": 104
    },
    {
      "midi": 73,
      "hit": false,
      "t": 65400,
      "d": 116,
      "v": 92
    },
    {
      "midi": 86,
      "hit": false,
      "t": 65516,
      "d": 56,
      "v": 80
    },
    {
      "midi": 73,
      "hit": false,
      "t": 65520,
      "d": 116,
      "v": 92
    },
    {
      "midi": 38,
      "hit": false,
      "t": 65524,
      "d": 124,
      "v": 80
    },
    {
      "midi": 73,
      "hit": false,
      "t": 65640,
      "d": 116,
      "v": 92
    },
    {
      "midi": 50,
      "hit": false,
      "t": 65756,
      "d": 24,
      "v": 104
    },
    {
      "midi": 38,
      "hit": false,
      "t": 65756,
      "d": 28,
      "v": 104
    },
    {
      "midi": 86,
      "hit": false,
      "t": 65756,
      "d": 56,
      "v": 84
    },
    {
      "midi": 73,
      "hit": false,
      "t": 65760,
      "d": 116,
      "v": 94
    },
    {
      "midi": 38,
      "hit": false,
      "t": 65764,
      "d": 92,
      "v": 74
    },
    {
      "midi": 73,
      "hit": false,
      "t": 65880,
      "d": 116,
      "v": 104
    },
    {
      "midi": 38,
      "hit": false,
      "t": 65996,
      "d": 24,
      "v": 99
    },
    {
      "midi": 50,
      "hit": false,
      "t": 65996,
      "d": 24,
      "v": 104
    },
    {
      "midi": 86,
      "hit": false,
      "t": 65996,
      "d": 56,
      "v": 80
    },
    {
      "midi": 38,
      "hit": false,
      "t": 65996,
      "d": 108,
      "v": 80
    },
    {
      "midi": 73,
      "hit": false,
      "t": 66000,
      "d": 116,
      "v": 88
    },
    {
      "midi": 73,
      "hit": false,
      "t": 66120,
      "d": 116,
      "v": 92
    },
    {
      "midi": 86,
      "hit": false,
      "t": 66236,
      "d": 56,
      "v": 88
    },
    {
      "midi": 73,
      "hit": false,
      "t": 66240,
      "d": 116,
      "v": 104
    },
    {
      "midi": 38,
      "hit": false,
      "t": 66244,
      "d": 92,
      "v": 74
    },
    {
      "midi": 27,
      "hit": false,
      "t": 66244,
      "d": 116,
      "v": 80
    },
    {
      "midi": 73,
      "hit": false,
      "t": 66360,
      "d": 116,
      "v": 88
    },
    {
      "midi": 86,
      "hit": false,
      "t": 66476,
      "d": 56,
      "v": 88
    },
    {
      "midi": 73,
      "hit": false,
      "t": 66480,
      "d": 116,
      "v": 104
    },
    {
      "midi": 73,
      "hit": false,
      "t": 66600,
      "d": 116,
      "v": 92
    },
    {
      "midi": 50,
      "hit": false,
      "t": 66716,
      "d": 24,
      "v": 99
    },
    {
      "midi": 86,
      "hit": false,
      "t": 66716,
      "d": 56,
      "v": 88
    },
    {
      "midi": 38,
      "hit": false,
      "t": 66720,
      "d": 24,
      "v": 104
    },
    {
      "midi": 73,
      "hit": false,
      "t": 66720,
      "d": 116,
      "v": 94
    },
    {
      "midi": 73,
      "hit": false,
      "t": 66840,
      "d": 116,
      "v": 88
    },
    {
      "midi": 86,
      "hit": false,
      "t": 66956,
      "d": 56,
      "v": 88
    },
    {
      "midi": 73,
      "hit": false,
      "t": 66960,
      "d": 116,
      "v": 104
    },
    {
      "midi": 73,
      "hit": false,
      "t": 67080,
      "d": 116,
      "v": 92
    },
    {
      "midi": 86,
      "hit": false,
      "t": 67196,
      "d": 56,
      "v": 76
    },
    {
      "midi": 86,
      "hit": false,
      "t": 67200,
      "d": 56,
      "v": 76
    },
    {
      "midi": 70,
      "hit": false,
      "t": 67200,
      "d": 116,
      "v": 110
    },
    {
      "midi": 38,
      "hit": false,
      "t": 67436,
      "d": 136,
      "v": 88
    },
    {
      "midi": 86,
      "hit": false,
      "t": 67440,
      "d": 56,
      "v": 88
    },
    {
      "midi": 70,
      "hit": false,
      "t": 67440,
      "d": 116,
      "v": 104
    },
    {
      "midi": 50,
      "hit": false,
      "t": 67676,
      "d": 24,
      "v": 99
    },
    {
      "midi": 38,
      "hit": false,
      "t": 67676,
      "d": 28,
      "v": 104
    },
    {
      "midi": 38,
      "hit": false,
      "t": 67676,
      "d": 96,
      "v": 74
    },
    {
      "midi": 86,
      "hit": false,
      "t": 67680,
      "d": 56,
      "v": 88
    },
    {
      "midi": 70,
      "hit": false,
      "t": 67680,
      "d": 116,
      "v": 104
    },
    {
      "midi": 50,
      "hit": false,
      "t": 67920,
      "d": 24,
      "v": 99
    },
    {
      "midi": 38,
      "hit": false,
      "t": 67920,
      "d": 24,
      "v": 104
    },
    {
      "midi": 86,
      "hit": false,
      "t": 67920,
      "d": 56,
      "v": 88
    },
    {
      "midi": 70,
      "hit": false,
      "t": 67920,
      "d": 116,
      "v": 104
    },
    {
      "midi": 38,
      "hit": false,
      "t": 67924,
      "d": 120,
      "v": 79
    },
    {
      "midi": 38,
      "hit": false,
      "t": 68156,
      "d": 88,
      "v": 74
    },
    {
      "midi": 86,
      "hit": false,
      "t": 68160,
      "d": 56,
      "v": 88
    },
    {
      "midi": 70,
      "hit": false,
      "t": 68160,
      "d": 116,
      "v": 104
    },
    {
      "midi": 27,
      "hit": false,
      "t": 68164,
      "d": 144,
      "v": 84
    },
    {
      "midi": 86,
      "hit": false,
      "t": 68400,
      "d": 56,
      "v": 80
    },
    {
      "midi": 70,
      "hit": false,
      "t": 68400,
      "d": 116,
      "v": 92
    },
    {
      "midi": 50,
      "hit": false,
      "t": 68636,
      "d": 24,
      "v": 104
    },
    {
      "midi": 38,
      "hit": false,
      "t": 68636,
      "d": 32,
      "v": 95
    },
    {
      "midi": 86,
      "hit": false,
      "t": 68640,
      "d": 56,
      "v": 84
    },
    {
      "midi": 70,
      "hit": false,
      "t": 68640,
      "d": 116,
      "v": 104
    },
    {
      "midi": 86,
      "hit": false,
      "t": 68880,
      "d": 56,
      "v": 80
    },
    {
      "midi": 70,
      "hit": false,
      "t": 68880,
      "d": 116,
      "v": 104
    },
    {
      "midi": 70,
      "hit": false,
      "t": 69120,
      "d": 116,
      "v": 110
    },
    {
      "midi": 70,
      "hit": false,
      "t": 69360,
      "d": 116,
      "v": 104
    },
    {
      "midi": 38,
      "hit": false,
      "t": 69364,
      "d": 132,
      "v": 88
    },
    {
      "midi": 50,
      "hit": false,
      "t": 69596,
      "d": 24,
      "v": 95
    },
    {
      "midi": 38,
      "hit": false,
      "t": 69596,
      "d": 28,
      "v": 104
    },
    {
      "midi": 50,
      "hit": false,
      "t": 69596,
      "d": 100,
      "v": 78
    },
    {
      "midi": 70,
      "hit": false,
      "t": 69600,
      "d": 116,
      "v": 104
    },
    {
      "midi": 50,
      "hit": false,
      "t": 69836,
      "d": 24,
      "v": 95
    },
    {
      "midi": 38,
      "hit": false,
      "t": 69836,
      "d": 28,
      "v": 104
    },
    {
      "midi": 38,
      "hit": false,
      "t": 69836,
      "d": 132,
      "v": 80
    },
    {
      "midi": 70,
      "hit": false,
      "t": 69840,
      "d": 116,
      "v": 104
    },
    {
      "midi": 70,
      "hit": false,
      "t": 70080,
      "d": 116,
      "v": 104
    },
    {
      "midi": 50,
      "hit": false,
      "t": 70084,
      "d": 104,
      "v": 76
    },
    {
      "midi": 27,
      "hit": false,
      "t": 70084,
      "d": 132,
      "v": 80
    },
    {
      "midi": 70,
      "hit": false,
      "t": 70320,
      "d": 116,
      "v": 92
    },
    {
      "midi": 50,
      "hit": false,
      "t": 70556,
      "d": 24,
      "v": 108
    },
    {
      "midi": 38,
      "hit": false,
      "t": 70556,
      "d": 28,
      "v": 104
    },
    {
      "midi": 70,
      "hit": false,
      "t": 70560,
      "d": 116,
      "v": 104
    },
    {
      "midi": 70,
      "hit": false,
      "t": 70800,
      "d": 116,
      "v": 104
    },
    {
      "midi": 62,
      "hit": false,
      "t": 71064,
      "d": 1920,
      "v": 80
    },
    {
      "midi": 54,
      "hit": false,
      "t": 71100,
      "d": 56,
      "v": 64
    },
    {
      "midi": 54,
      "hit": false,
      "t": 71160,
      "d": 56,
      "v": 64
    },
    {
      "midi": 54,
      "hit": false,
      "t": 71220,
      "d": 56,
      "v": 52
    },
    {
      "midi": 54,
      "hit": false,
      "t": 71280,
      "d": 56,
      "v": 61
    },
    {
      "midi": 38,
      "hit": false,
      "t": 71284,
      "d": 128,
      "v": 80
    },
    {
      "midi": 54,
      "hit": false,
      "t": 71340,
      "d": 56,
      "v": 63
    },
    {
      "midi": 54,
      "hit": false,
      "t": 71400,
      "d": 56,
      "v": 64
    },
    {
      "midi": 54,
      "hit": false,
      "t": 71460,
      "d": 56,
      "v": 71
    },
    {
      "midi": 50,
      "hit": false,
      "t": 71516,
      "d": 24,
      "v": 99
    },
    {
      "midi": 38,
      "hit": false,
      "t": 71516,
      "d": 24,
      "v": 99
    },
    {
      "midi": 54,
      "hit": false,
      "t": 71520,
      "d": 56,
      "v": 79
    },
    {
      "midi": 50,
      "hit": false,
      "t": 71524,
      "d": 128,
      "v": 64
    },
    {
      "midi": 54,
      "hit": false,
      "t": 71580,
      "d": 56,
      "v": 54
    },
    {
      "midi": 54,
      "hit": false,
      "t": 71640,
      "d": 56,
      "v": 58
    },
    {
      "midi": 54,
      "hit": false,
      "t": 71700,
      "d": 56,
      "v": 71
    },
    {
      "midi": 38,
      "hit": false,
      "t": 71756,
      "d": 24,
      "v": 99
    },
    {
      "midi": 50,
      "hit": false,
      "t": 71756,
      "d": 24,
      "v": 99
    },
    {
      "midi": 54,
      "hit": false,
      "t": 71760,
      "d": 56,
      "v": 60
    },
    {
      "midi": 38,
      "hit": false,
      "t": 71764,
      "d": 112,
      "v": 76
    },
    {
      "midi": 54,
      "hit": false,
      "t": 71820,
      "d": 56,
      "v": 62
    },
    {
      "midi": 54,
      "hit": false,
      "t": 71880,
      "d": 56,
      "v": 61
    },
    {
      "midi": 54,
      "hit": false,
      "t": 71940,
      "d": 56,
      "v": 62
    },
    {
      "midi": 54,
      "hit": false,
      "t": 72000,
      "d": 56,
      "v": 68
    },
    {
      "midi": 50,
      "hit": false,
      "t": 72004,
      "d": 108,
      "v": 54
    },
    {
      "midi": 27,
      "hit": false,
      "t": 72004,
      "d": 136,
      "v": 88
    },
    {
      "midi": 54,
      "hit": false,
      "t": 72060,
      "d": 56,
      "v": 70
    },
    {
      "midi": 54,
      "hit": false,
      "t": 72120,
      "d": 56,
      "v": 64
    },
    {
      "midi": 54,
      "hit": false,
      "t": 72180,
      "d": 56,
      "v": 64
    },
    {
      "midi": 54,
      "hit": false,
      "t": 72240,
      "d": 56,
      "v": 79
    },
    {
      "midi": 54,
      "hit": false,
      "t": 72300,
      "d": 56,
      "v": 72
    },
    {
      "midi": 54,
      "hit": false,
      "t": 72360,
      "d": 56,
      "v": 76
    },
    {
      "midi": 54,
      "hit": false,
      "t": 72420,
      "d": 56,
      "v": 79
    },
    {
      "midi": 38,
      "hit": false,
      "t": 72476,
      "d": 24,
      "v": 99
    },
    {
      "midi": 50,
      "hit": false,
      "t": 72476,
      "d": 24,
      "v": 99
    },
    {
      "midi": 54,
      "hit": false,
      "t": 72480,
      "d": 56,
      "v": 80
    },
    {
      "midi": 54,
      "hit": false,
      "t": 72540,
      "d": 56,
      "v": 70
    },
    {
      "midi": 54,
      "hit": false,
      "t": 72600,
      "d": 56,
      "v": 79
    },
    {
      "midi": 54,
      "hit": false,
      "t": 72660,
      "d": 56,
      "v": 72
    },
    {
      "midi": 54,
      "hit": false,
      "t": 72720,
      "d": 56,
      "v": 80
    },
    {
      "midi": 54,
      "hit": false,
      "t": 72780,
      "d": 56,
      "v": 80
    },
    {
      "midi": 54,
      "hit": false,
      "t": 72840,
      "d": 56,
      "v": 79
    },
    {
      "midi": 54,
      "hit": false,
      "t": 72900,
      "d": 56,
      "v": 80
    },
    {
      "midi": 73,
      "hit": false,
      "t": 72960,
      "d": 116,
      "v": 104
    },
    {
      "midi": 73,
      "hit": false,
      "t": 73080,
      "d": 116,
      "v": 92
    },
    {
      "midi": 86,
      "hit": false,
      "t": 73196,
      "d": 56,
      "v": 80
    },
    {
      "midi": 73,
      "hit": false,
      "t": 73200,
      "d": 116,
      "v": 92
    },
    {
      "midi": 38,
      "hit": false,
      "t": 73204,
      "d": 104,
      "v": 80
    },
    {
      "midi": 73,
      "hit": false,
      "t": 73320,
      "d": 116,
      "v": 92
    },
    {
      "midi": 50,
      "hit": false,
      "t": 73436,
      "d": 24,
      "v": 99
    },
    {
      "midi": 38,
      "hit": false,
      "t": 73436,
      "d": 28,
      "v": 99
    },
    {
      "midi": 86,
      "hit": false,
      "t": 73436,
      "d": 56,
      "v": 84
    },
    {
      "midi": 73,
      "hit": false,
      "t": 73440,
      "d": 116,
      "v": 94
    },
    {
      "midi": 45,
      "hit": false,
      "t": 73444,
      "d": 100,
      "v": 68
    },
    {
      "midi": 73,
      "hit": false,
      "t": 73560,
      "d": 116,
      "v": 104
    },
    {
      "midi": 50,
      "hit": false,
      "t": 73676,
      "d": 24,
      "v": 95
    },
    {
      "midi": 38,
      "hit": false,
      "t": 73676,
      "d": 28,
      "v": 95
    },
    {
      "midi": 86,
      "hit": false,
      "t": 73676,
      "d": 56,
      "v": 80
    },
    {
      "midi": 38,
      "hit": false,
      "t": 73676,
      "d": 108,
      "v": 88
    },
    {
      "midi": 73,
      "hit": false,
      "t": 73680,
      "d": 116,
      "v": 88
    },
    {
      "midi": 73,
      "hit": false,
      "t": 73800,
      "d": 116,
      "v": 92
    },
    {
      "midi": 86,
      "hit": false,
      "t": 73916,
      "d": 56,
      "v": 88
    },
    {
      "midi": 73,
      "hit": false,
      "t": 73920,
      "d": 116,
      "v": 104
    },
    {
      "midi": 45,
      "hit": false,
      "t": 73924,
      "d": 96,
      "v": 68
    },
    {
      "midi": 27,
      "hit": false,
      "t": 73924,
      "d": 140,
      "v": 80
    },
    {
      "midi": 73,
      "hit": false,
      "t": 74040,
      "d": 116,
      "v": 88
    },
    {
      "midi": 86,
      "hit": false,
      "t": 74156,
      "d": 56,
      "v": 88
    },
    {
      "midi": 73,
      "hit": false,
      "t": 74160,
      "d": 116,
      "v": 104
    },
    {
      "midi": 73,
      "hit": false,
      "t": 74280,
      "d": 116,
      "v": 92
    },
    {
      "midi": 38,
      "hit": false,
      "t": 74396,
      "d": 28,
      "v": 104
    },
    {
      "midi": 50,
      "hit": false,
      "t": 74396,
      "d": 28,
      "v": 100
    },
    {
      "midi": 86,
      "hit": false,
      "t": 74396,
      "d": 56,
      "v": 88
    },
    {
      "midi": 73,
      "hit": false,
      "t": 74400,
      "d": 116,
      "v": 94
    },
    {
      "midi": 73,
      "hit": false,
      "t": 74520,
      "d": 116,
      "v": 88
    },
    {
      "midi": 86,
      "hit": false,
      "t": 74636,
      "d": 56,
      "v": 88
    },
    {
      "midi": 73,
      "hit": false,
      "t": 74640,
      "d": 116,
      "v": 104
    },
    {
      "midi": 73,
      "hit": false,
      "t": 74760,
      "d": 116,
      "v": 92
    },
    {
      "midi": 86,
      "hit": false,
      "t": 74876,
      "d": 56,
      "v": 76
    },
    {
      "midi": 86,
      "hit": false,
      "t": 74880,
      "d": 56,
      "v": 76
    },
    {
      "midi": 70,
      "hit": false,
      "t": 74880,
      "d": 116,
      "v": 110
    },
    {
      "midi": 38,
      "hit": false,
      "t": 75116,
      "d": 124,
      "v": 88
    },
    {
      "midi": 86,
      "hit": false,
      "t": 75120,
      "d": 56,
      "v": 88
    },
    {
      "midi": 70,
      "hit": false,
      "t": 75120,
      "d": 116,
      "v": 104
    },
    {
      "midi": 50,
      "hit": false,
      "t": 75356,
      "d": 24,
      "v": 99
    },
    {
      "midi": 38,
      "hit": false,
      "t": 75356,
      "d": 28,
      "v": 99
    },
    {
      "midi": 86,
      "hit": false,
      "t": 75360,
      "d": 56,
      "v": 88
    },
    {
      "midi": 70,
      "hit": false,
      "t": 75360,
      "d": 116,
      "v": 104
    },
    {
      "midi": 62,
      "hit": false,
      "t": 75364,
      "d": 96,
      "v": 71
    },
    {
      "midi": 86,
      "hit": false,
      "t": 75600,
      "d": 56,
      "v": 88
    },
    {
      "midi": 70,
      "hit": false,
      "t": 75600,
      "d": 116,
      "v": 104
    },
    {
      "midi": 38,
      "hit": false,
      "t": 75604,
      "d": 24,
      "v": 104
    },
    {
      "midi": 50,
      "hit": false,
      "t": 75604,
      "d": 24,
      "v": 104
    },
    {
      "midi": 38,
      "hit": false,
      "t": 75604,
      "d": 108,
      "v": 80
    },
    {
      "midi": 86,
      "hit": false,
      "t": 75840,
      "d": 56,
      "v": 88
    },
    {
      "midi": 70,
      "hit": false,
      "t": 75840,
      "d": 116,
      "v": 104
    },
    {
      "midi": 62,
      "hit": false,
      "t": 75844,
      "d": 88,
      "v": 66
    },
    {
      "midi": 27,
      "hit": false,
      "t": 75844,
      "d": 104,
      "v": 79
    },
    {
      "midi": 86,
      "hit": false,
      "t": 76080,
      "d": 56,
      "v": 80
    },
    {
      "midi": 70,
      "hit": false,
      "t": 76080,
      "d": 116,
      "v": 92
    },
    {
      "midi": 86,
      "hit": false,
      "t": 76320,
      "d": 56,
      "v": 84
    },
    {
      "midi": 70,
      "hit": false,
      "t": 76320,
      "d": 116,
      "v": 104
    },
    {
      "midi": 50,
      "hit": false,
      "t": 76324,
      "d": 24,
      "v": 108
    },
    {
      "midi": 38,
      "hit": false,
      "t": 76324,
      "d": 32,
      "v": 99
    },
    {
      "midi": 86,
      "hit": false,
      "t": 76560,
      "d": 56,
      "v": 80
    },
    {
      "midi": 70,
      "hit": false,
      "t": 76560,
      "d": 116,
      "v": 104
    },
    {
      "midi": 70,
      "hit": false,
      "t": 76800,
      "d": 116,
      "v": 110
    },
    {
      "midi": 70,
      "hit": false,
      "t": 77040,
      "d": 116,
      "v": 104
    },
    {
      "midi": 38,
      "hit": false,
      "t": 77044,
      "d": 112,
      "v": 80
    },
    {
      "midi": 38,
      "hit": false,
      "t": 77280,
      "d": 24,
      "v": 104
    },
    {
      "midi": 50,
      "hit": false,
      "t": 77280,
      "d": 24,
      "v": 100
    },
    {
      "midi": 70,
      "hit": false,
      "t": 77280,
      "d": 116,
      "v": 104
    },
    {
      "midi": 38,
      "hit": false,
      "t": 77284,
      "d": 92,
      "v": 74
    },
    {
      "midi": 38,
      "hit": false,
      "t": 77516,
      "d": 112,
      "v": 88
    },
    {
      "midi": 70,
      "hit": false,
      "t": 77520,
      "d": 116,
      "v": 104
    },
    {
      "midi": 38,
      "hit": false,
      "t": 77524,
      "d": 24,
      "v": 99
    },
    {
      "midi": 50,
      "hit": false,
      "t": 77524,
      "d": 28,
      "v": 99
    },
    {
      "midi": 27,
      "hit": false,
      "t": 77756,
      "d": 128,
      "v": 71
    },
    {
      "midi": 70,
      "hit": false,
      "t": 77760,
      "d": 116,
      "v": 104
    },
    {
      "midi": 38,
      "hit": false,
      "t": 77764,
      "d": 92,
      "v": 74
    },
    {
      "midi": 70,
      "hit": false,
      "t": 78000,
      "d": 116,
      "v": 92
    },
    {
      "midi": 38,
      "hit": false,
      "t": 78240,
      "d": 24,
      "v": 99
    },
    {
      "midi": 50,
      "hit": false,
      "t": 78240,
      "d": 24,
      "v": 108
    },
    {
      "midi": 70,
      "hit": false,
      "t": 78240,
      "d": 116,
      "v": 104
    },
    {
      "midi": 70,
      "hit": false,
      "t": 78480,
      "d": 116,
      "v": 104
    },
    {
      "midi": 50,
      "hit": false,
      "t": 78720,
      "d": 480,
      "v": 99
    },
    {
      "midi": 38,
      "hit": false,
      "t": 78720,
      "d": 480,
      "v": 99
    },
    {
      "midi": 108,
      "hit": false,
      "t": 78720,
      "d": 48,
      "v": 80
    },
    {
      "midi": 52,
      "hit": false,
      "t": 78720,
      "d": 56,
      "v": 120
    },
    {
      "midi": 57,
      "hit": false,
      "t": 78724,
      "d": 968,
      "v": 94
    },
    {
      "midi": 108,
      "hit": false,
      "t": 78828,
      "d": 92,
      "v": 72
    },
    {
      "midi": 108,
      "hit": false,
      "t": 78948,
      "d": 344,
      "v": 72
    },
    {
      "midi": 31,
      "hit": false,
      "t": 78952,
      "d": 96,
      "v": 104
    },
    {
      "midi": 31,
      "hit": false,
      "t": 79192,
      "d": 104,
      "v": 104
    },
    {
      "midi": 108,
      "hit": false,
      "t": 79388,
      "d": 68,
      "v": 72
    },
    {
      "midi": 31,
      "hit": false,
      "t": 79432,
      "d": 100,
      "v": 88
    },
    {
      "midi": 108,
      "hit": false,
      "t": 79524,
      "d": 68,
      "v": 79
    },
    {
      "midi": 108,
      "hit": false,
      "t": 79652,
      "d": 84,
      "v": 94
    },
    {
      "midi": 31,
      "hit": false,
      "t": 79672,
      "d": 104,
      "v": 80
    },
    {
      "midi": 55,
      "hit": false,
      "t": 79684,
      "d": 940,
      "v": 92
    },
    {
      "midi": 31,
      "hit": false,
      "t": 79912,
      "d": 96,
      "v": 80
    },
    {
      "midi": 108,
      "hit": false,
      "t": 79956,
      "d": 164,
      "v": 88
    },
    {
      "midi": 31,
      "hit": false,
      "t": 80152,
      "d": 100,
      "v": 92
    },
    {
      "midi": 108,
      "hit": false,
      "t": 80272,
      "d": 120,
      "v": 80
    },
    {
      "midi": 31,
      "hit": false,
      "t": 80400,
      "d": 100,
      "v": 79
    },
    {
      "midi": 108,
      "hit": false,
      "t": 80460,
      "d": 68,
      "v": 79
    },
    {
      "midi": 108,
      "hit": false,
      "t": 80616,
      "d": 112,
      "v": 94
    },
    {
      "midi": 31,
      "hit": false,
      "t": 80632,
      "d": 100,
      "v": 110
    },
    {
      "midi": 58,
      "hit": false,
      "t": 80636,
      "d": 944,
      "v": 80
    },
    {
      "midi": 31,
      "hit": false,
      "t": 80872,
      "d": 92,
      "v": 80
    },
    {
      "midi": 108,
      "hit": false,
      "t": 80884,
      "d": 108,
      "v": 88
    },
    {
      "midi": 108,
      "hit": false,
      "t": 81112,
      "d": 88,
      "v": 80
    },
    {
      "midi": 31,
      "hit": false,
      "t": 81116,
      "d": 100,
      "v": 77
    },
    {
      "midi": 108,
      "hit": false,
      "t": 81292,
      "d": 528,
      "v": 80
    },
    {
      "midi": 31,
      "hit": false,
      "t": 81360,
      "d": 104,
      "v": 80
    },
    {
      "midi": 50,
      "hit": false,
      "t": 81596,
      "d": 956,
      "v": 92
    },
    {
      "midi": 31,
      "hit": false,
      "t": 81600,
      "d": 92,
      "v": 79
    },
    {
      "midi": 31,
      "hit": false,
      "t": 81832,
      "d": 96,
      "v": 79
    },
    {
      "midi": 31,
      "hit": false,
      "t": 82076,
      "d": 104,
      "v": 80
    },
    {
      "midi": 31,
      "hit": false,
      "t": 82320,
      "d": 100,
      "v": 76
    },
    {
      "midi": 31,
      "hit": false,
      "t": 82552,
      "d": 96,
      "v": 110
    },
    {
      "midi": 38,
      "hit": false,
      "t": 82560,
      "d": 480,
      "v": 99
    },
    {
      "midi": 50,
      "hit": false,
      "t": 82560,
      "d": 480,
      "v": 99
    },
    {
      "midi": 57,
      "hit": false,
      "t": 82564,
      "d": 968,
      "v": 94
    },
    {
      "midi": 31,
      "hit": false,
      "t": 82796,
      "d": 92,
      "v": 80
    },
    {
      "midi": 31,
      "hit": false,
      "t": 83032,
      "d": 96,
      "v": 80
    },
    {
      "midi": 31,
      "hit": false,
      "t": 83272,
      "d": 100,
      "v": 79
    },
    {
      "midi": 31,
      "hit": false,
      "t": 83512,
      "d": 100,
      "v": 80
    },
    {
      "midi": 55,
      "hit": false,
      "t": 83524,
      "d": 940,
      "v": 92
    },
    {
      "midi": 31,
      "hit": false,
      "t": 83752,
      "d": 96,
      "v": 72
    },
    {
      "midi": 31,
      "hit": false,
      "t": 83992,
      "d": 96,
      "v": 80
    },
    {
      "midi": 31,
      "hit": false,
      "t": 84236,
      "d": 100,
      "v": 80
    },
    {
      "midi": 31,
      "hit": false,
      "t": 84472,
      "d": 96,
      "v": 110
    },
    {
      "midi": 58,
      "hit": false,
      "t": 84476,
      "d": 944,
      "v": 80
    },
    {
      "midi": 76,
      "hit": false,
      "t": 84520,
      "d": 156,
      "v": 100
    },
    {
      "midi": 83,
      "hit": false,
      "t": 84676,
      "d": 120,
      "v": 100
    },
    {
      "midi": 31,
      "hit": false,
      "t": 84712,
      "d": 84,
      "v": 71
    },
    {
      "midi": 76,
      "hit": false,
      "t": 84912,
      "d": 152,
      "v": 100
    },
    {
      "midi": 31,
      "hit": false,
      "t": 84952,
      "d": 96,
      "v": 80
    },
    {
      "midi": 83,
      "hit": false,
      "t": 85112,
      "d": 152,
      "v": 100
    },
    {
      "midi": 31,
      "hit": false,
      "t": 85192,
      "d": 96,
      "v": 80
    },
    {
      "midi": 76,
      "hit": false,
      "t": 85376,
      "d": 144,
      "v": 100
    },
    {
      "midi": 31,
      "hit": false,
      "t": 85432,
      "d": 104,
      "v": 80
    },
    {
      "midi": 50,
      "hit": false,
      "t": 85436,
      "d": 956,
      "v": 92
    },
    {
      "midi": 83,
      "hit": false,
      "t": 85592,
      "d": 144,
      "v": 100
    },
    {
      "midi": 31,
      "hit": false,
      "t": 85672,
      "d": 100,
      "v": 76
    },
    {
      "midi": 76,
      "hit": false,
      "t": 85840,
      "d": 156,
      "v": 100
    },
    {
      "midi": 31,
      "hit": false,
      "t": 85912,
      "d": 100,
      "v": 79
    },
    {
      "midi": 83,
      "hit": false,
      "t": 86052,
      "d": 96,
      "v": 100
    },
    {
      "midi": 31,
      "hit": false,
      "t": 86152,
      "d": 92,
      "v": 79
    },
    {
      "midi": 76,
      "hit": false,
      "t": 86316,
      "d": 152,
      "v": 100
    },
    {
      "midi": 31,
      "hit": false,
      "t": 86392,
      "d": 92,
      "v": 104
    },
    {
      "midi": 50,
      "hit": false,
      "t": 86400,
      "d": 480,
      "v": 104
    },
    {
      "midi": 38,
      "hit": false,
      "t": 86400,
      "d": 480,
      "v": 99
    },
    {
      "midi": 52,
      "hit": false,
      "t": 86400,
      "d": 56,
      "v": 120
    },
    {
      "midi": 57,
      "hit": false,
      "t": 86404,
      "d": 968,
      "v": 94
    },
    {
      "midi": 83,
      "hit": false,
      "t": 86508,
      "d": 124,
      "v": 100
    },
    {
      "midi": 31,
      "hit": false,
      "t": 86632,
      "d": 96,
      "v": 104
    },
    {
      "midi": 76,
      "hit": false,
      "t": 86732,
      "d": 172,
      "v": 100
    },
    {
      "midi": 31,
      "hit": false,
      "t": 86872,
      "d": 104,
      "v": 104
    },
    {
      "midi": 83,
      "hit": false,
      "t": 86920,
      "d": 156,
      "v": 100
    },
    {
      "midi": 31,
      "hit": false,
      "t": 87112,
      "d": 100,
      "v": 88
    },
    {
      "midi": 76,
      "hit": false,
      "t": 87204,
      "d": 144,
      "v": 100
    },
    {
      "midi": 31,
      "hit": false,
      "t": 87352,
      "d": 104,
      "v": 80
    },
    {
      "midi": 55,
      "hit": false,
      "t": 87364,
      "d": 940,
      "v": 92
    },
    {
      "midi": 83,
      "hit": false,
      "t": 87368,
      "d": 180,
      "v": 100
    },
    {
      "midi": 31,
      "hit": false,
      "t": 87592,
      "d": 96,
      "v": 80
    },
    {
      "midi": 31,
      "hit": false,
      "t": 87832,
      "d": 100,
      "v": 92
    },
    {
      "midi": 31,
      "hit": false,
      "t": 88080,
      "d": 100,
      "v": 79
    },
    {
      "midi": 31,
      "hit": false,
      "t": 88312,
      "d": 100,
      "v": 110
    },
    {
      "midi": 58,
      "hit": false,
      "t": 88316,
      "d": 944,
      "v": 80
    },
    {
      "midi": 31,
      "hit": false,
      "t": 88552,
      "d": 92,
      "v": 80
    },
    {
      "midi": 31,
      "hit": false,
      "t": 88796,
      "d": 100,
      "v": 77
    },
    {
      "midi": 31,
      "hit": false,
      "t": 89040,
      "d": 104,
      "v": 80
    },
    {
      "midi": 50,
      "hit": false,
      "t": 89276,
      "d": 956,
      "v": 92
    },
    {
      "midi": 31,
      "hit": false,
      "t": 89280,
      "d": 92,
      "v": 79
    },
    {
      "midi": 31,
      "hit": false,
      "t": 89512,
      "d": 96,
      "v": 79
    },
    {
      "midi": 31,
      "hit": false,
      "t": 89756,
      "d": 104,
      "v": 80
    },
    {
      "midi": 31,
      "hit": false,
      "t": 90000,
      "d": 100,
      "v": 76
    },
    {
      "midi": 31,
      "hit": false,
      "t": 90232,
      "d": 96,
      "v": 110
    },
    {
      "midi": 38,
      "hit": false,
      "t": 90240,
      "d": 480,
      "v": 99
    },
    {
      "midi": 50,
      "hit": false,
      "t": 90240,
      "d": 480,
      "v": 99
    },
    {
      "midi": 76,
      "hit": false,
      "t": 90240,
      "d": 3840,
      "v": 110
    },
    {
      "midi": 57,
      "hit": false,
      "t": 90244,
      "d": 968,
      "v": 94
    },
    {
      "midi": 31,
      "hit": false,
      "t": 90476,
      "d": 92,
      "v": 80
    },
    {
      "midi": 31,
      "hit": false,
      "t": 90712,
      "d": 96,
      "v": 80
    },
    {
      "midi": 31,
      "hit": false,
      "t": 90952,
      "d": 100,
      "v": 79
    },
    {
      "midi": 31,
      "hit": false,
      "t": 91192,
      "d": 100,
      "v": 80
    },
    {
      "midi": 55,
      "hit": false,
      "t": 91204,
      "d": 940,
      "v": 92
    },
    {
      "midi": 31,
      "hit": false,
      "t": 91432,
      "d": 96,
      "v": 72
    },
    {
      "midi": 31,
      "hit": false,
      "t": 91672,
      "d": 96,
      "v": 80
    },
    {
      "midi": 31,
      "hit": false,
      "t": 91916,
      "d": 100,
      "v": 80
    },
    {
      "midi": 31,
      "hit": false,
      "t": 92152,
      "d": 96,
      "v": 110
    },
    {
      "midi": 58,
      "hit": false,
      "t": 92156,
      "d": 944,
      "v": 80
    },
    {
      "midi": 31,
      "hit": false,
      "t": 92392,
      "d": 84,
      "v": 71
    },
    {
      "midi": 31,
      "hit": false,
      "t": 92632,
      "d": 96,
      "v": 80
    },
    {
      "midi": 31,
      "hit": false,
      "t": 92872,
      "d": 96,
      "v": 80
    },
    {
      "midi": 31,
      "hit": false,
      "t": 93112,
      "d": 104,
      "v": 80
    },
    {
      "midi": 50,
      "hit": false,
      "t": 93116,
      "d": 956,
      "v": 92
    },
    {
      "midi": 31,
      "hit": false,
      "t": 93352,
      "d": 100,
      "v": 76
    },
    {
      "midi": 31,
      "hit": false,
      "t": 93592,
      "d": 100,
      "v": 79
    },
    {
      "midi": 31,
      "hit": false,
      "t": 93832,
      "d": 92,
      "v": 79
    },
    {
      "midi": 31,
      "hit": false,
      "t": 94072,
      "d": 92,
      "v": 104
    },
    {
      "midi": 50,
      "hit": false,
      "t": 94080,
      "d": 480,
      "v": 99
    },
    {
      "midi": 38,
      "hit": false,
      "t": 94080,
      "d": 480,
      "v": 99
    },
    {
      "midi": 62,
      "hit": false,
      "t": 94080,
      "d": 3124,
      "v": 92
    },
    {
      "midi": 52,
      "hit": false,
      "t": 94080,
      "d": 56,
      "v": 120
    },
    {
      "midi": 57,
      "hit": false,
      "t": 94084,
      "d": 968,
      "v": 94
    },
    {
      "midi": 31,
      "hit": false,
      "t": 94312,
      "d": 96,
      "v": 104
    },
    {
      "midi": 31,
      "hit": false,
      "t": 94552,
      "d": 104,
      "v": 104
    },
    {
      "midi": 31,
      "hit": false,
      "t": 94792,
      "d": 100,
      "v": 88
    },
    {
      "midi": 31,
      "hit": false,
      "t": 95032,
      "d": 104,
      "v": 80
    },
    {
      "midi": 55,
      "hit": false,
      "t": 95044,
      "d": 940,
      "v": 92
    },
    {
      "midi": 31,
      "hit": false,
      "t": 95272,
      "d": 96,
      "v": 80
    },
    {
      "midi": 31,
      "hit": false,
      "t": 95512,
      "d": 100,
      "v": 92
    },
    {
      "midi": 31,
      "hit": false,
      "t": 95760,
      "d": 100,
      "v": 79
    },
    {
      "midi": 31,
      "hit": false,
      "t": 95992,
      "d": 100,
      "v": 110
    },
    {
      "midi": 58,
      "hit": false,
      "t": 95996,
      "d": 944,
      "v": 80
    },
    {
      "midi": 31,
      "hit": false,
      "t": 96232,
      "d": 92,
      "v": 80
    },
    {
      "midi": 31,
      "hit": false,
      "t": 96476,
      "d": 100,
      "v": 77
    },
    {
      "midi": 31,
      "hit": false,
      "t": 96720,
      "d": 104,
      "v": 80
    },
    {
      "midi": 50,
      "hit": false,
      "t": 96956,
      "d": 956,
      "v": 92
    },
    {
      "midi": 31,
      "hit": false,
      "t": 96960,
      "d": 92,
      "v": 79
    },
    {
      "midi": 31,
      "hit": false,
      "t": 97192,
      "d": 96,
      "v": 79
    },
    {
      "midi": 63,
      "hit": false,
      "t": 97196,
      "d": 376,
      "v": 84
    },
    {
      "midi": 31,
      "hit": false,
      "t": 97436,
      "d": 104,
      "v": 80
    },
    {
      "midi": 67,
      "hit": false,
      "t": 97564,
      "d": 340,
      "v": 71
    },
    {
      "midi": 31,
      "hit": false,
      "t": 97680,
      "d": 100,
      "v": 76
    },
    {
      "midi": 31,
      "hit": false,
      "t": 97912,
      "d": 96,
      "v": 110
    },
    {
      "midi": 38,
      "hit": false,
      "t": 97920,
      "d": 480,
      "v": 99
    },
    {
      "midi": 50,
      "hit": false,
      "t": 97920,
      "d": 480,
      "v": 99
    },
    {
      "midi": 69,
      "hit": false,
      "t": 97924,
      "d": 2536,
      "v": 80
    },
    {
      "midi": 57,
      "hit": false,
      "t": 97924,
      "d": 968,
      "v": 94
    },
    {
      "midi": 31,
      "hit": false,
      "t": 98156,
      "d": 92,
      "v": 80
    },
    {
      "midi": 31,
      "hit": false,
      "t": 98392,
      "d": 96,
      "v": 80
    },
    {
      "midi": 31,
      "hit": false,
      "t": 98632,
      "d": 100,
      "v": 79
    },
    {
      "midi": 31,
      "hit": false,
      "t": 98872,
      "d": 100,
      "v": 80
    },
    {
      "midi": 55,
      "hit": false,
      "t": 98884,
      "d": 940,
      "v": 92
    },
    {
      "midi": 31,
      "hit": false,
      "t": 99112,
      "d": 96,
      "v": 72
    },
    {
      "midi": 31,
      "hit": false,
      "t": 99352,
      "d": 96,
      "v": 80
    },
    {
      "midi": 31,
      "hit": false,
      "t": 99596,
      "d": 100,
      "v": 80
    },
    {
      "midi": 31,
      "hit": false,
      "t": 99832,
      "d": 96,
      "v": 110
    },
    {
      "midi": 58,
      "hit": false,
      "t": 99836,
      "d": 944,
      "v": 80
    },
    {
      "midi": 31,
      "hit": false,
      "t": 100072,
      "d": 84,
      "v": 71
    },
    {
      "midi": 31,
      "hit": false,
      "t": 100312,
      "d": 96,
      "v": 80
    },
    {
      "midi": 31,
      "hit": false,
      "t": 100552,
      "d": 96,
      "v": 80
    },
    {
      "midi": 69,
      "hit": false,
      "t": 100556,
      "d": 144,
      "v": 60
    },
    {
      "midi": 70,
      "hit": false,
      "t": 100676,
      "d": 160,
      "v": 64
    },
    {
      "midi": 31,
      "hit": false,
      "t": 100792,
      "d": 104,
      "v": 80
    },
    {
      "midi": 72,
      "hit": false,
      "t": 100796,
      "d": 232,
      "v": 80
    },
    {
      "midi": 50,
      "hit": false,
      "t": 100796,
      "d": 956,
      "v": 92
    },
    {
      "midi": 31,
      "hit": false,
      "t": 101032,
      "d": 100,
      "v": 76
    },
    {
      "midi": 70,
      "hit": false,
      "t": 101044,
      "d": 472,
      "v": 80
    },
    {
      "midi": 31,
      "hit": false,
      "t": 101272,
      "d": 100,
      "v": 79
    },
    {
      "midi": 31,
      "hit": false,
      "t": 101512,
      "d": 92,
      "v": 79
    },
    {
      "midi": 69,
      "hit": false,
      "t": 101516,
      "d": 216,
      "v": 88
    },
    {
      "midi": 31,
      "hit": false,
      "t": 101752,
      "d": 92,
      "v": 104
    },
    {
      "midi": 50,
      "hit": false,
      "t": 101760,
      "d": 480,
      "v": 104
    },
    {
      "midi": 38,
      "hit": false,
      "t": 101760,
      "d": 480,
      "v": 99
    },
    {
      "midi": 52,
      "hit": false,
      "t": 101760,
      "d": 56,
      "v": 120
    },
    {
      "midi": 62,
      "hit": false,
      "t": 101764,
      "d": 2444,
      "v": 92
    },
    {
      "midi": 57,
      "hit": false,
      "t": 101764,
      "d": 968,
      "v": 94
    },
    {
      "midi": 31,
      "hit": false,
      "t": 101992,
      "d": 96,
      "v": 104
    },
    {
      "midi": 31,
      "hit": false,
      "t": 102232,
      "d": 104,
      "v": 104
    },
    {
      "midi": 31,
      "hit": false,
      "t": 102472,
      "d": 100,
      "v": 88
    },
    {
      "midi": 31,
      "hit": false,
      "t": 102712,
      "d": 104,
      "v": 80
    },
    {
      "midi": 55,
      "hit": false,
      "t": 102724,
      "d": 940,
      "v": 92
    },
    {
      "midi": 31,
      "hit": false,
      "t": 102952,
      "d": 96,
      "v": 80
    },
    {
      "midi": 31,
      "hit": false,
      "t": 103192,
      "d": 100,
      "v": 92
    },
    {
      "midi": 31,
      "hit": false,
      "t": 103440,
      "d": 100,
      "v": 79
    },
    {
      "midi": 31,
      "hit": false,
      "t": 103672,
      "d": 100,
      "v": 110
    },
    {
      "midi": 58,
      "hit": false,
      "t": 103676,
      "d": 944,
      "v": 80
    },
    {
      "midi": 31,
      "hit": false,
      "t": 103912,
      "d": 92,
      "v": 80
    },
    {
      "midi": 31,
      "hit": false,
      "t": 104156,
      "d": 100,
      "v": 77
    },
    {
      "midi": 62,
      "hit": false,
      "t": 104396,
      "d": 180,
      "v": 60
    },
    {
      "midi": 31,
      "hit": false,
      "t": 104400,
      "d": 104,
      "v": 80
    },
    {
      "midi": 63,
      "hit": false,
      "t": 104516,
      "d": 184,
      "v": 64
    },
    {
      "midi": 67,
      "hit": false,
      "t": 104636,
      "d": 340,
      "v": 79
    },
    {
      "midi": 50,
      "hit": false,
      "t": 104636,
      "d": 956,
      "v": 92
    },
    {
      "midi": 31,
      "hit": false,
      "t": 104640,
      "d": 92,
      "v": 79
    },
    {
      "midi": 31,
      "hit": false,
      "t": 104872,
      "d": 96,
      "v": 79
    },
    {
      "midi": 70,
      "hit": false,
      "t": 104996,
      "d": 236,
      "v": 80
    },
    {
      "midi": 31,
      "hit": false,
      "t": 105116,
      "d": 104,
      "v": 80
    },
    {
      "midi": 69,
      "hit": false,
      "t": 105356,
      "d": 168,
      "v": 80
    },
    {
      "midi": 31,
      "hit": false,
      "t": 105360,
      "d": 100,
      "v": 76
    },
    {
      "midi": 31,
      "hit": false,
      "t": 105592,
      "d": 96,
      "v": 110
    },
    {
      "midi": 38,
      "hit": false,
      "t": 105600,
      "d": 480,
      "v": 99
    },
    {
      "midi": 50,
      "hit": false,
      "t": 105600,
      "d": 480,
      "v": 99
    },
    {
      "midi": 74,
      "hit": false,
      "t": 105604,
      "d": 604,
      "v": 88
    },
    {
      "midi": 57,
      "hit": false,
      "t": 105604,
      "d": 968,
      "v": 94
    },
    {
      "midi": 31,
      "hit": false,
      "t": 105836,
      "d": 92,
      "v": 80
    },
    {
      "midi": 31,
      "hit": false,
      "t": 106072,
      "d": 96,
      "v": 80
    },
    {
      "midi": 75,
      "hit": false,
      "t": 106204,
      "d": 120,
      "v": 72
    },
    {
      "midi": 31,
      "hit": false,
      "t": 106312,
      "d": 100,
      "v": 79
    },
    {
      "midi": 31,
      "hit": false,
      "t": 106552,
      "d": 100,
      "v": 80
    },
    {
      "midi": 74,
      "hit": false,
      "t": 106556,
      "d": 2508,
      "v": 80
    },
    {
      "midi": 55,
      "hit": false,
      "t": 106564,
      "d": 940,
      "v": 92
    },
    {
      "midi": 31,
      "hit": false,
      "t": 106792,
      "d": 96,
      "v": 72
    },
    {
      "midi": 31,
      "hit": false,
      "t": 107032,
      "d": 96,
      "v": 80
    },
    {
      "midi": 31,
      "hit": false,
      "t": 107276,
      "d": 100,
      "v": 80
    },
    {
      "midi": 31,
      "hit": false,
      "t": 107512,
      "d": 96,
      "v": 110
    },
    {
      "midi": 58,
      "hit": false,
      "t": 107516,
      "d": 944,
      "v": 80
    },
    {
      "midi": 31,
      "hit": false,
      "t": 107752,
      "d": 84,
      "v": 71
    },
    {
      "midi": 31,
      "hit": false,
      "t": 107992,
      "d": 96,
      "v": 80
    },
    {
      "midi": 31,
      "hit": false,
      "t": 108232,
      "d": 96,
      "v": 80
    },
    {
      "midi": 31,
      "hit": false,
      "t": 108472,
      "d": 104,
      "v": 80
    },
    {
      "midi": 50,
      "hit": false,
      "t": 108476,
      "d": 956,
      "v": 92
    },
    {
      "midi": 31,
      "hit": false,
      "t": 108712,
      "d": 100,
      "v": 76
    },
    {
      "midi": 31,
      "hit": false,
      "t": 108952,
      "d": 100,
      "v": 79
    },
    {
      "midi": 31,
      "hit": false,
      "t": 109192,
      "d": 92,
      "v": 79
    },
    {
      "midi": 31,
      "hit": false,
      "t": 109432,
      "d": 92,
      "v": 104
    },
    {
      "midi": 50,
      "hit": false,
      "t": 109440,
      "d": 480,
      "v": 99
    },
    {
      "midi": 38,
      "hit": false,
      "t": 109440,
      "d": 480,
      "v": 99
    },
    {
      "midi": 43,
      "hit": false,
      "t": 109468,
      "d": 15384,
      "v": 80
    },
    {
      "midi": 31,
      "hit": false,
      "t": 109468,
      "d": 15396,
      "v": 104
    },
    {
      "midi": 74,
      "hit": false,
      "t": 109684,
      "d": 140,
      "v": 100
    },
    {
      "midi": 75,
      "hit": false,
      "t": 109804,
      "d": 136,
      "v": 100
    },
    {
      "midi": 50,
      "hit": false,
      "t": 109916,
      "d": 480,
      "v": 78
    },
    {
      "midi": 81,
      "hit": false,
      "t": 109924,
      "d": 108,
      "v": 100
    },
    {
      "midi": 74,
      "hit": false,
      "t": 110164,
      "d": 160,
      "v": 100
    },
    {
      "midi": 75,
      "hit": false,
      "t": 110284,
      "d": 148,
      "v": 100
    },
    {
      "midi": 69,
      "hit": false,
      "t": 110396,
      "d": 132,
      "v": 100
    },
    {
      "midi": 50,
      "hit": false,
      "t": 110404,
      "d": 480,
      "v": 76
    },
    {
      "midi": 81,
      "hit": false,
      "t": 110404,
      "d": 148,
      "v": 100
    },
    {
      "midi": 70,
      "hit": false,
      "t": 110516,
      "d": 132,
      "v": 100
    },
    {
      "midi": 75,
      "hit": false,
      "t": 110636,
      "d": 116,
      "v": 100
    },
    {
      "midi": 74,
      "hit": false,
      "t": 110652,
      "d": 140,
      "v": 100
    },
    {
      "midi": 75,
      "hit": false,
      "t": 110772,
      "d": 136,
      "v": 100
    },
    {
      "midi": 69,
      "hit": false,
      "t": 110876,
      "d": 100,
      "v": 100
    },
    {
      "midi": 81,
      "hit": false,
      "t": 110892,
      "d": 108,
      "v": 100
    },
    {
      "midi": 70,
      "hit": false,
      "t": 110996,
      "d": 140,
      "v": 100
    },
    {
      "midi": 75,
      "hit": false,
      "t": 111116,
      "d": 160,
      "v": 100
    },
    {
      "midi": 87,
      "hit": false,
      "t": 111120,
      "d": 140,
      "v": 100
    },
    {
      "midi": 82,
      "hit": false,
      "t": 111240,
      "d": 128,
      "v": 100
    },
    {
      "midi": 69,
      "hit": false,
      "t": 111356,
      "d": 116,
      "v": 100
    },
    {
      "midi": 81,
      "hit": false,
      "t": 111360,
      "d": 116,
      "v": 100
    },
    {
      "midi": 70,
      "hit": false,
      "t": 111476,
      "d": 128,
      "v": 100
    },
    {
      "midi": 75,
      "hit": false,
      "t": 111596,
      "d": 140,
      "v": 100
    },
    {
      "midi": 87,
      "hit": false,
      "t": 111600,
      "d": 160,
      "v": 100
    },
    {
      "midi": 82,
      "hit": false,
      "t": 111720,
      "d": 140,
      "v": 100
    },
    {
      "midi": 81,
      "hit": false,
      "t": 111840,
      "d": 100,
      "v": 100
    },
    {
      "midi": 87,
      "hit": false,
      "t": 112080,
      "d": 116,
      "v": 100
    },
    {
      "midi": 82,
      "hit": false,
      "t": 112200,
      "d": 132,
      "v": 100
    },
    {
      "midi": 81,
      "hit": false,
      "t": 112320,
      "d": 132,
      "v": 100
    },
    {
      "midi": 74,
      "hit": false,
      "t": 113044,
      "d": 144,
      "v": 100
    },
    {
      "midi": 75,
      "hit": false,
      "t": 113156,
      "d": 144,
      "v": 100
    },
    {
      "midi": 81,
      "hit": false,
      "t": 113276,
      "d": 144,
      "v": 100
    },
    {
      "midi": 38,
      "hit": false,
      "t": 113280,
      "d": 480,
      "v": 99
    },
    {
      "midi": 50,
      "hit": false,
      "t": 113280,
      "d": 480,
      "v": 99
    },
    {
      "midi": 74,
      "hit": false,
      "t": 113524,
      "d": 140,
      "v": 100
    },
    {
      "midi": 75,
      "hit": false,
      "t": 113644,
      "d": 136,
      "v": 100
    },
    {
      "midi": 45,
      "hit": false,
      "t": 113764,
      "d": 480,
      "v": 68
    },
    {
      "midi": 81,
      "hit": false,
      "t": 113764,
      "d": 108,
      "v": 100
    },
    {
      "midi": 74,
      "hit": false,
      "t": 114004,
      "d": 160,
      "v": 100
    },
    {
      "midi": 75,
      "hit": false,
      "t": 114124,
      "d": 148,
      "v": 100
    },
    {
      "midi": 69,
      "hit": false,
      "t": 114236,
      "d": 132,
      "v": 100
    },
    {
      "midi": 45,
      "hit": false,
      "t": 114244,
      "d": 480,
      "v": 68
    },
    {
      "midi": 81,
      "hit": false,
      "t": 114244,
      "d": 148,
      "v": 100
    },
    {
      "midi": 70,
      "hit": false,
      "t": 114356,
      "d": 132,
      "v": 100
    },
    {
      "midi": 75,
      "hit": false,
      "t": 114476,
      "d": 116,
      "v": 100
    },
    {
      "midi": 74,
      "hit": false,
      "t": 114492,
      "d": 140,
      "v": 100
    },
    {
      "midi": 75,
      "hit": false,
      "t": 114612,
      "d": 136,
      "v": 100
    },
    {
      "midi": 69,
      "hit": false,
      "t": 114716,
      "d": 100,
      "v": 100
    },
    {
      "midi": 81,
      "hit": false,
      "t": 114732,
      "d": 108,
      "v": 100
    },
    {
      "midi": 70,
      "hit": false,
      "t": 114836,
      "d": 140,
      "v": 100
    },
    {
      "midi": 75,
      "hit": false,
      "t": 114956,
      "d": 160,
      "v": 100
    },
    {
      "midi": 87,
      "hit": false,
      "t": 114960,
      "d": 140,
      "v": 100
    },
    {
      "midi": 82,
      "hit": false,
      "t": 115080,
      "d": 128,
      "v": 100
    },
    {
      "midi": 69,
      "hit": false,
      "t": 115196,
      "d": 116,
      "v": 100
    },
    {
      "midi": 81,
      "hit": false,
      "t": 115200,
      "d": 116,
      "v": 100
    },
    {
      "midi": 70,
      "hit": false,
      "t": 115316,
      "d": 128,
      "v": 100
    },
    {
      "midi": 75,
      "hit": false,
      "t": 115436,
      "d": 140,
      "v": 100
    },
    {
      "midi": 87,
      "hit": false,
      "t": 115440,
      "d": 160,
      "v": 100
    },
    {
      "midi": 82,
      "hit": false,
      "t": 115560,
      "d": 140,
      "v": 100
    },
    {
      "midi": 81,
      "hit": false,
      "t": 115680,
      "d": 100,
      "v": 100
    },
    {
      "midi": 87,
      "hit": false,
      "t": 115920,
      "d": 116,
      "v": 100
    },
    {
      "midi": 82,
      "hit": false,
      "t": 116040,
      "d": 132,
      "v": 100
    },
    {
      "midi": 81,
      "hit": false,
      "t": 116160,
      "d": 132,
      "v": 100
    },
    {
      "midi": 74,
      "hit": false,
      "t": 116884,
      "d": 144,
      "v": 100
    },
    {
      "midi": 75,
      "hit": false,
      "t": 116996,
      "d": 144,
      "v": 100
    },
    {
      "midi": 81,
      "hit": false,
      "t": 117116,
      "d": 144,
      "v": 100
    },
    {
      "midi": 50,
      "hit": false,
      "t": 117120,
      "d": 480,
      "v": 104
    },
    {
      "midi": 38,
      "hit": false,
      "t": 117120,
      "d": 480,
      "v": 99
    },
    {
      "midi": 74,
      "hit": false,
      "t": 117364,
      "d": 140,
      "v": 100
    },
    {
      "midi": 75,
      "hit": false,
      "t": 117484,
      "d": 136,
      "v": 100
    },
    {
      "midi": 38,
      "hit": false,
      "t": 117604,
      "d": 480,
      "v": 74
    },
    {
      "midi": 81,
      "hit": false,
      "t": 117604,
      "d": 108,
      "v": 100
    },
    {
      "midi": 74,
      "hit": false,
      "t": 117844,
      "d": 160,
      "v": 100
    },
    {
      "midi": 75,
      "hit": false,
      "t": 117964,
      "d": 148,
      "v": 100
    },
    {
      "midi": 69,
      "hit": false,
      "t": 118076,
      "d": 132,
      "v": 100
    },
    {
      "midi": 38,
      "hit": false,
      "t": 118084,
      "d": 480,
      "v": 74
    },
    {
      "midi": 81,
      "hit": false,
      "t": 118084,
      "d": 148,
      "v": 100
    },
    {
      "midi": 70,
      "hit": false,
      "t": 118196,
      "d": 132,
      "v": 100
    },
    {
      "midi": 75,
      "hit": false,
      "t": 118316,
      "d": 116,
      "v": 100
    },
    {
      "midi": 74,
      "hit": false,
      "t": 118332,
      "d": 140,
      "v": 100
    },
    {
      "midi": 75,
      "hit": false,
      "t": 118452,
      "d": 136,
      "v": 100
    },
    {
      "midi": 69,
      "hit": false,
      "t": 118556,
      "d": 100,
      "v": 100
    },
    {
      "midi": 81,
      "hit": false,
      "t": 118572,
      "d": 108,
      "v": 100
    },
    {
      "midi": 70,
      "hit": false,
      "t": 118676,
      "d": 140,
      "v": 100
    },
    {
      "midi": 75,
      "hit": false,
      "t": 118796,
      "d": 160,
      "v": 100
    },
    {
      "midi": 87,
      "hit": false,
      "t": 118800,
      "d": 140,
      "v": 100
    },
    {
      "midi": 82,
      "hit": false,
      "t": 118920,
      "d": 128,
      "v": 100
    },
    {
      "midi": 69,
      "hit": false,
      "t": 119036,
      "d": 116,
      "v": 100
    },
    {
      "midi": 81,
      "hit": false,
      "t": 119040,
      "d": 116,
      "v": 100
    },
    {
      "midi": 70,
      "hit": false,
      "t": 119156,
      "d": 128,
      "v": 100
    },
    {
      "midi": 75,
      "hit": false,
      "t": 119276,
      "d": 140,
      "v": 100
    },
    {
      "midi": 87,
      "hit": false,
      "t": 119280,
      "d": 160,
      "v": 100
    },
    {
      "midi": 82,
      "hit": false,
      "t": 119400,
      "d": 140,
      "v": 100
    },
    {
      "midi": 81,
      "hit": false,
      "t": 119520,
      "d": 100,
      "v": 100
    },
    {
      "midi": 87,
      "hit": false,
      "t": 119760,
      "d": 116,
      "v": 100
    },
    {
      "midi": 82,
      "hit": false,
      "t": 119880,
      "d": 132,
      "v": 100
    },
    {
      "midi": 81,
      "hit": false,
      "t": 120000,
      "d": 132,
      "v": 100
    },
    {
      "midi": 74,
      "hit": false,
      "t": 120724,
      "d": 144,
      "v": 100
    },
    {
      "midi": 75,
      "hit": false,
      "t": 120836,
      "d": 144,
      "v": 100
    },
    {
      "midi": 81,
      "hit": false,
      "t": 120956,
      "d": 144,
      "v": 100
    },
    {
      "midi": 38,
      "hit": false,
      "t": 120960,
      "d": 480,
      "v": 99
    },
    {
      "midi": 50,
      "hit": false,
      "t": 120960,
      "d": 480,
      "v": 99
    },
    {
      "midi": 74,
      "hit": false,
      "t": 121204,
      "d": 140,
      "v": 100
    },
    {
      "midi": 75,
      "hit": false,
      "t": 121324,
      "d": 136,
      "v": 100
    },
    {
      "midi": 50,
      "hit": false,
      "t": 121444,
      "d": 480,
      "v": 64
    },
    {
      "midi": 81,
      "hit": false,
      "t": 121444,
      "d": 108,
      "v": 100
    },
    {
      "midi": 74,
      "hit": false,
      "t": 121684,
      "d": 160,
      "v": 100
    },
    {
      "midi": 75,
      "hit": false,
      "t": 121804,
      "d": 148,
      "v": 100
    },
    {
      "midi": 69,
      "hit": false,
      "t": 121916,
      "d": 132,
      "v": 100
    },
    {
      "midi": 50,
      "hit": false,
      "t": 121924,
      "d": 480,
      "v": 54
    },
    {
      "midi": 81,
      "hit": false,
      "t": 121924,
      "d": 148,
      "v": 100
    },
    {
      "midi": 70,
      "hit": false,
      "t": 122036,
      "d": 132,
      "v": 100
    },
    {
      "midi": 75,
      "hit": false,
      "t": 122156,
      "d": 116,
      "v": 100
    },
    {
      "midi": 74,
      "hit": false,
      "t": 122172,
      "d": 140,
      "v": 100
    },
    {
      "midi": 75,
      "hit": false,
      "t": 122292,
      "d": 136,
      "v": 100
    },
    {
      "midi": 69,
      "hit": false,
      "t": 122396,
      "d": 100,
      "v": 100
    },
    {
      "midi": 81,
      "hit": false,
      "t": 122412,
      "d": 108,
      "v": 100
    },
    {
      "midi": 70,
      "hit": false,
      "t": 122516,
      "d": 140,
      "v": 100
    },
    {
      "midi": 75,
      "hit": false,
      "t": 122636,
      "d": 160,
      "v": 100
    },
    {
      "midi": 87,
      "hit": false,
      "t": 122640,
      "d": 140,
      "v": 100
    },
    {
      "midi": 82,
      "hit": false,
      "t": 122760,
      "d": 128,
      "v": 100
    },
    {
      "midi": 69,
      "hit": false,
      "t": 122876,
      "d": 116,
      "v": 100
    },
    {
      "midi": 81,
      "hit": false,
      "t": 122880,
      "d": 116,
      "v": 100
    },
    {
      "midi": 70,
      "hit": false,
      "t": 122996,
      "d": 128,
      "v": 100
    },
    {
      "midi": 75,
      "hit": false,
      "t": 123116,
      "d": 140,
      "v": 100
    },
    {
      "midi": 87,
      "hit": false,
      "t": 123120,
      "d": 160,
      "v": 100
    },
    {
      "midi": 82,
      "hit": false,
      "t": 123240,
      "d": 140,
      "v": 100
    },
    {
      "midi": 81,
      "hit": false,
      "t": 123360,
      "d": 100,
      "v": 100
    },
    {
      "midi": 87,
      "hit": false,
      "t": 123600,
      "d": 116,
      "v": 100
    },
    {
      "midi": 82,
      "hit": false,
      "t": 123720,
      "d": 132,
      "v": 100
    },
    {
      "midi": 81,
      "hit": false,
      "t": 123840,
      "d": 132,
      "v": 100
    }
  ]
}