{
  "jsonPath": "Electronic/Bubblegum Dance/Hot Banditoz/levantando-las-manos.json",
  "path": "Electronic\\Bubblegum Dance\\Hot Banditoz\\Levantando Las Manos.mid",
  "name": "Levantando Las Manos",
  "difficulty": "Advanced",
  "bpm": 130.00041166797027,
  "notes": [
    {
      "midi": 57,
      "hit": false,
      "t": 3692.2960000000003,
      "d": 899.9971500000001,
      "v": 89
    },
    {
      "midi": 60,
      "hit": false,
      "t": 3692.2960000000003,
      "d": 899.9971500000001,
      "v": 89
    },
    {
      "midi": 65,
      "hit": false,
      "t": 3692.2960000000003,
      "d": 899.9971500000001,
      "v": 89
    },
    {
      "midi": 65,
      "hit": false,
      "t": 4615.370000000001,
      "d": 2153.839333333335,
      "v": 57
    },
    {
      "midi": 69,
      "hit": false,
      "t": 4846.138500000001,
      "d": 1853.8402833333348,
      "v": 87
    },
    {
      "midi": 72,
      "hit": false,
      "t": 5076.907000000001,
      "d": 1611.533358333334,
      "v": 87
    },
    {
      "midi": 77,
      "hit": false,
      "t": 5307.675500000001,
      "d": 1388.4571416666677,
      "v": 87
    },
    {
      "midi": 53,
      "hit": false,
      "t": 6692.286500000002,
      "d": 253.84535000000142,
      "v": 66
    },
    {
      "midi": 77,
      "hit": false,
      "t": 6923.055000000003,
      "d": 246.15306666666675,
      "v": 72
    },
    {
      "midi": 72,
      "hit": false,
      "t": 6923.055000000003,
      "d": 257.6914916666665,
      "v": 87
    },
    {
      "midi": 69,
      "hit": false,
      "t": 6923.055000000003,
      "d": 261.53763333333336,
      "v": 85
    },
    {
      "midi": 65,
      "hit": false,
      "t": 6923.055000000003,
      "d": 265.38377500000024,
      "v": 72
    },
    {
      "midi": 57,
      "hit": false,
      "t": 7384.592000000003,
      "d": 899.9971500000001,
      "v": 89
    },
    {
      "midi": 62,
      "hit": false,
      "t": 7384.592000000003,
      "d": 899.9971500000001,
      "v": 89
    },
    {
      "midi": 65,
      "hit": false,
      "t": 7384.592000000003,
      "d": 899.9971500000001,
      "v": 89
    },
    {
      "midi": 62,
      "hit": false,
      "t": 8307.666000000003,
      "d": 2153.839333333335,
      "v": 57
    },
    {
      "midi": 65,
      "hit": false,
      "t": 8538.434500000003,
      "d": 1853.8402833333348,
      "v": 87
    },
    {
      "midi": 69,
      "hit": false,
      "t": 8769.203000000003,
      "d": 1611.533358333334,
      "v": 87
    },
    {
      "midi": 74,
      "hit": false,
      "t": 8999.971500000003,
      "d": 1388.4571416666677,
      "v": 87
    },
    {
      "midi": 50,
      "hit": false,
      "t": 10384.582500000004,
      "d": 253.8453499999996,
      "v": 66
    },
    {
      "midi": 74,
      "hit": false,
      "t": 10615.351000000004,
      "d": 246.15306666666584,
      "v": 72
    },
    {
      "midi": 69,
      "hit": false,
      "t": 10615.351000000004,
      "d": 257.6914916666665,
      "v": 87
    },
    {
      "midi": 65,
      "hit": false,
      "t": 10615.351000000004,
      "d": 261.53763333333336,
      "v": 85
    },
    {
      "midi": 62,
      "hit": false,
      "t": 10615.351000000004,
      "d": 265.38377500000024,
      "v": 72
    },
    {
      "midi": 53,
      "hit": false,
      "t": 11076.888000000004,
      "d": 2673.068458333333,
      "v": 82
    },
    {
      "midi": 58,
      "hit": false,
      "t": 11076.888000000004,
      "d": 2673.068458333333,
      "v": 82
    },
    {
      "midi": 62,
      "hit": false,
      "t": 11076.888000000004,
      "d": 2673.068458333333,
      "v": 82
    },
    {
      "midi": 62,
      "hit": false,
      "t": 13846.110000000004,
      "d": 915.3817166666668,
      "v": 102
    },
    {
      "midi": 65,
      "hit": false,
      "t": 14076.878500000004,
      "d": 657.6902250000003,
      "v": 85
    },
    {
      "midi": 70,
      "hit": false,
      "t": 14307.647000000004,
      "d": 234.614641666667,
      "v": 68
    },
    {
      "midi": 58,
      "hit": false,
      "t": 14769.184000000005,
      "d": 899.9971499999992,
      "v": 89
    },
    {
      "midi": 60,
      "hit": false,
      "t": 14769.184000000005,
      "d": 899.9971499999992,
      "v": 89
    },
    {
      "midi": 64,
      "hit": false,
      "t": 14769.184000000005,
      "d": 899.9971499999992,
      "v": 89
    },
    {
      "midi": 67,
      "hit": false,
      "t": 14769.184000000005,
      "d": 899.9971499999992,
      "v": 89
    },
    {
      "midi": 58,
      "hit": false,
      "t": 15692.258000000003,
      "d": 2153.839333333328,
      "v": 57
    },
    {
      "midi": 64,
      "hit": false,
      "t": 15923.026500000004,
      "d": 1853.8402833333275,
      "v": 87
    },
    {
      "midi": 67,
      "hit": false,
      "t": 16153.795000000004,
      "d": 1611.5333583333322,
      "v": 87
    },
    {
      "midi": 72,
      "hit": false,
      "t": 16384.563500000004,
      "d": 1388.4571416666622,
      "v": 87
    },
    {
      "midi": 48,
      "hit": false,
      "t": 17769.1745,
      "d": 253.8453499999996,
      "v": 66
    },
    {
      "midi": 72,
      "hit": false,
      "t": 17999.943,
      "d": 246.15306666666947,
      "v": 72
    },
    {
      "midi": 67,
      "hit": false,
      "t": 17999.943,
      "d": 257.6914916666683,
      "v": 87
    },
    {
      "midi": 64,
      "hit": false,
      "t": 17999.943,
      "d": 261.53763333333336,
      "v": 85
    },
    {
      "midi": 58,
      "hit": false,
      "t": 17999.943,
      "d": 265.3837749999984,
      "v": 72
    },
    {
      "midi": 57,
      "hit": false,
      "t": 18461.479999999996,
      "d": 2673.068458333335,
      "v": 82
    },
    {
      "midi": 60,
      "hit": false,
      "t": 18461.479999999996,
      "d": 2673.068458333335,
      "v": 82
    },
    {
      "midi": 65,
      "hit": false,
      "t": 18461.479999999996,
      "d": 2673.068458333335,
      "v": 82
    },
    {
      "midi": 69,
      "hit": false,
      "t": 21230.701999999997,
      "d": 915.3817166666631,
      "v": 102
    },
    {
      "midi": 72,
      "hit": false,
      "t": 21461.470499999996,
      "d": 657.6902249999985,
      "v": 85
    },
    {
      "midi": 77,
      "hit": false,
      "t": 21692.238999999994,
      "d": 234.614641666667,
      "v": 68
    },
    {
      "midi": 65,
      "hit": false,
      "t": 24772.998474999993,
      "d": 96.15354166666657,
      "v": 70
    },
    {
      "midi": 62,
      "hit": false,
      "t": 24815.306033333327,
      "d": 96.15354166666657,
      "v": 91
    },
    {
      "midi": 57,
      "hit": false,
      "t": 24915.30571666666,
      "d": 419.2294416666664,
      "v": 113
    },
    {
      "midi": 62,
      "hit": false,
      "t": 25169.151066666658,
      "d": 165.3840916666668,
      "v": 91
    },
    {
      "midi": 62,
      "hit": false,
      "t": 25384.534999999993,
      "d": 253.8453499999996,
      "v": 93
    },
    {
      "midi": 65,
      "hit": false,
      "t": 25622.995783333325,
      "d": 196.15322500000184,
      "v": 93
    },
    {
      "midi": 65,
      "hit": false,
      "t": 25853.764283333327,
      "d": 3173.0668750000004,
      "v": 98
    },
    {
      "midi": 62,
      "hit": false,
      "t": 28465.294474999995,
      "d": 96.15354166666657,
      "v": 70
    },
    {
      "midi": 58,
      "hit": false,
      "t": 28507.60203333333,
      "d": 96.15354166666657,
      "v": 91
    },
    {
      "midi": 53,
      "hit": false,
      "t": 28607.60171666666,
      "d": 446.15243333333274,
      "v": 113
    },
    {
      "midi": 58,
      "hit": false,
      "t": 28861.44706666666,
      "d": 165.3840916666668,
      "v": 91
    },
    {
      "midi": 58,
      "hit": false,
      "t": 29076.830999999995,
      "d": 253.8453499999996,
      "v": 93
    },
    {
      "midi": 62,
      "hit": false,
      "t": 29315.291783333327,
      "d": 196.15322500000184,
      "v": 93
    },
    {
      "midi": 58,
      "hit": false,
      "t": 29538.367999999995,
      "d": 2673.068458333335,
      "v": 82
    },
    {
      "midi": 60,
      "hit": false,
      "t": 29538.367999999995,
      "d": 2673.068458333335,
      "v": 82
    },
    {
      "midi": 64,
      "hit": false,
      "t": 29538.367999999995,
      "d": 2673.068458333335,
      "v": 82
    },
    {
      "midi": 67,
      "hit": false,
      "t": 29538.367999999995,
      "d": 2673.068458333335,
      "v": 82
    },
    {
      "midi": 64,
      "hit": false,
      "t": 32307.589999999997,
      "d": 915.3817166666631,
      "v": 102
    },
    {
      "midi": 67,
      "hit": false,
      "t": 32538.358499999995,
      "d": 657.6902249999985,
      "v": 85
    },
    {
      "midi": 70,
      "hit": false,
      "t": 32769.12699999999,
      "d": 234.614641666667,
      "v": 68
    },
    {
      "midi": 72,
      "hit": false,
      "t": 32999.89549999999,
      "d": 196.15322500000184,
      "v": 74
    },
    {
      "midi": 57,
      "hit": false,
      "t": 33238.35628333333,
      "d": 3173.066874999997,
      "v": 98
    },
    {
      "midi": 69,
      "hit": false,
      "t": 35849.88647499999,
      "d": 96.15354166666657,
      "v": 70
    },
    {
      "midi": 65,
      "hit": false,
      "t": 35892.194033333326,
      "d": 96.15354166666657,
      "v": 91
    },
    {
      "midi": 60,
      "hit": false,
      "t": 35992.19371666666,
      "d": 419.22944166666275,
      "v": 113
    },
    {
      "midi": 65,
      "hit": false,
      "t": 36246.03906666666,
      "d": 165.3840916666668,
      "v": 91
    },
    {
      "midi": 65,
      "hit": false,
      "t": 36461.42299999999,
      "d": 253.84535000000324,
      "v": 93
    },
    {
      "midi": 69,
      "hit": false,
      "t": 36699.883783333324,
      "d": 196.15322500000184,
      "v": 93
    },
    {
      "midi": 57,
      "hit": false,
      "t": 36922.95999999999,
      "d": 899.9971500000029,
      "v": 89
    },
    {
      "midi": 62,
      "hit": false,
      "t": 36922.95999999999,
      "d": 899.9971500000029,
      "v": 89
    },
    {
      "midi": 65,
      "hit": false,
      "t": 36922.95999999999,
      "d": 899.9971500000029,
      "v": 89
    },
    {
      "midi": 62,
      "hit": false,
      "t": 37846.03399999999,
      "d": 2153.839333333337,
      "v": 57
    },
    {
      "midi": 65,
      "hit": false,
      "t": 38076.80249999999,
      "d": 1853.8402833333384,
      "v": 87
    },
    {
      "midi": 69,
      "hit": false,
      "t": 38307.57099999999,
      "d": 1611.533358333334,
      "v": 87
    },
    {
      "midi": 74,
      "hit": false,
      "t": 38538.33949999999,
      "d": 1388.4571416666731,
      "v": 87
    },
    {
      "midi": 50,
      "hit": false,
      "t": 39922.95049999999,
      "d": 253.84535000000324,
      "v": 66
    },
    {
      "midi": 74,
      "hit": false,
      "t": 40153.719,
      "d": 246.15306666666584,
      "v": 72
    },
    {
      "midi": 69,
      "hit": false,
      "t": 40153.719,
      "d": 257.69149166666466,
      "v": 87
    },
    {
      "midi": 65,
      "hit": false,
      "t": 40153.719,
      "d": 261.53763333333336,
      "v": 85
    },
    {
      "midi": 62,
      "hit": false,
      "t": 40153.719,
      "d": 265.38377500000206,
      "v": 72
    },
    {
      "midi": 55,
      "hit": false,
      "t": 40615.256,
      "d": 776.92061666667,
      "v": 82
    },
    {
      "midi": 62,
      "hit": false,
      "t": 40615.256,
      "d": 776.92061666667,
      "v": 82
    },
    {
      "midi": 58,
      "hit": false,
      "t": 41307.5615,
      "d": 84.61511666666775,
      "v": 76
    },
    {
      "midi": 62,
      "hit": false,
      "t": 41422.945750000006,
      "d": 69.23055000000022,
      "v": 62
    },
    {
      "midi": 58,
      "hit": false,
      "t": 41538.33000000001,
      "d": 784.6129000000001,
      "v": 98
    },
    {
      "midi": 62,
      "hit": false,
      "t": 41538.33000000001,
      "d": 784.6129000000001,
      "v": 98
    },
    {
      "midi": 66,
      "hit": false,
      "t": 41538.33000000001,
      "d": 784.6129000000001,
      "v": 98
    },
    {
      "midi": 67,
      "hit": false,
      "t": 41538.33000000001,
      "d": 784.6129000000001,
      "v": 98
    },
    {
      "midi": 58,
      "hit": false,
      "t": 42461.40400000001,
      "d": 992.3045500000007,
      "v": 80
    },
    {
      "midi": 62,
      "hit": false,
      "t": 42461.40400000001,
      "d": 992.3045500000007,
      "v": 80
    },
    {
      "midi": 65,
      "hit": false,
      "t": 42461.40400000001,
      "d": 992.3045500000007,
      "v": 80
    },
    {
      "midi": 67,
      "hit": false,
      "t": 42461.40400000001,
      "d": 992.3045500000007,
      "v": 80
    },
    {
      "midi": 58,
      "hit": false,
      "t": 43615.24650000001,
      "d": 111.5381083333341,
      "v": 85
    },
    {
      "midi": 62,
      "hit": false,
      "t": 43615.24650000001,
      "d": 111.5381083333341,
      "v": 85
    },
    {
      "midi": 65,
      "hit": false,
      "t": 43615.24650000001,
      "d": 111.5381083333341,
      "v": 85
    },
    {
      "midi": 67,
      "hit": false,
      "t": 43615.24650000001,
      "d": 111.5381083333341,
      "v": 85
    },
    {
      "midi": 58,
      "hit": false,
      "t": 43961.39925000001,
      "d": 161.5379499999981,
      "v": 85
    },
    {
      "midi": 62,
      "hit": false,
      "t": 43961.39925000001,
      "d": 161.5379499999981,
      "v": 85
    },
    {
      "midi": 65,
      "hit": false,
      "t": 43961.39925000001,
      "d": 161.5379499999981,
      "v": 85
    },
    {
      "midi": 67,
      "hit": false,
      "t": 43961.39925000001,
      "d": 161.5379499999981,
      "v": 85
    },
    {
      "midi": 58,
      "hit": false,
      "t": 44307.55200000001,
      "d": 1711.5330416666693,
      "v": 89
    },
    {
      "midi": 62,
      "hit": false,
      "t": 44307.55200000001,
      "d": 1711.5330416666693,
      "v": 89
    },
    {
      "midi": 65,
      "hit": false,
      "t": 44307.55200000001,
      "d": 1711.5330416666693,
      "v": 89
    },
    {
      "midi": 67,
      "hit": false,
      "t": 44307.55200000001,
      "d": 1711.5330416666693,
      "v": 89
    },
    {
      "midi": 58,
      "hit": false,
      "t": 46153.70000000001,
      "d": 1373.0725749999983,
      "v": 87
    },
    {
      "midi": 60,
      "hit": false,
      "t": 46153.70000000001,
      "d": 1373.0725749999983,
      "v": 87
    },
    {
      "midi": 64,
      "hit": false,
      "t": 46153.70000000001,
      "d": 1373.0725749999983,
      "v": 87
    },
    {
      "midi": 67,
      "hit": false,
      "t": 46153.70000000001,
      "d": 1373.0725749999983,
      "v": 87
    },
    {
      "midi": 58,
      "hit": false,
      "t": 47538.31100000001,
      "d": 280.7683416666696,
      "v": 80
    },
    {
      "midi": 64,
      "hit": false,
      "t": 47653.69525000001,
      "d": 207.69165000000066,
      "v": 82
    },
    {
      "midi": 67,
      "hit": false,
      "t": 47769.079500000014,
      "d": 142.30724166666187,
      "v": 85
    },
    {
      "midi": 72,
      "hit": false,
      "t": 47884.46375000001,
      "d": 84.61511666666775,
      "v": 87
    },
    {
      "midi": 57,
      "hit": false,
      "t": 47999.84800000001,
      "d": 899.9971500000029,
      "v": 89
    },
    {
      "midi": 60,
      "hit": false,
      "t": 47999.84800000001,
      "d": 899.9971500000029,
      "v": 89
    },
    {
      "midi": 65,
      "hit": false,
      "t": 47999.84800000001,
      "d": 899.9971500000029,
      "v": 89
    },
    {
      "midi": 65,
      "hit": false,
      "t": 48922.92200000001,
      "d": 2153.839333333337,
      "v": 57
    },
    {
      "midi": 69,
      "hit": false,
      "t": 49153.69050000001,
      "d": 1853.8402833333384,
      "v": 87
    },
    {
      "midi": 72,
      "hit": false,
      "t": 49384.45900000001,
      "d": 1611.533358333334,
      "v": 87
    },
    {
      "midi": 77,
      "hit": false,
      "t": 49615.22750000001,
      "d": 1388.4571416666731,
      "v": 87
    },
    {
      "midi": 53,
      "hit": false,
      "t": 50999.83850000001,
      "d": 253.84535000000324,
      "v": 66
    },
    {
      "midi": 77,
      "hit": false,
      "t": 51230.60700000002,
      "d": 246.15306666666584,
      "v": 72
    },
    {
      "midi": 72,
      "hit": false,
      "t": 51230.60700000002,
      "d": 257.69149166666466,
      "v": 87
    },
    {
      "midi": 69,
      "hit": false,
      "t": 51230.60700000002,
      "d": 261.53763333333336,
      "v": 85
    },
    {
      "midi": 65,
      "hit": false,
      "t": 51230.60700000002,
      "d": 265.38377500000206,
      "v": 72
    },
    {
      "midi": 57,
      "hit": false,
      "t": 51692.14400000002,
      "d": 2673.068458333335,
      "v": 82
    },
    {
      "midi": 62,
      "hit": false,
      "t": 51692.14400000002,
      "d": 2673.068458333335,
      "v": 82
    },
    {
      "midi": 65,
      "hit": false,
      "t": 51692.14400000002,
      "d": 2673.068458333335,
      "v": 82
    },
    {
      "midi": 65,
      "hit": false,
      "t": 54461.36600000002,
      "d": 915.3817166666631,
      "v": 102
    },
    {
      "midi": 69,
      "hit": false,
      "t": 54692.13450000002,
      "d": 657.6902249999985,
      "v": 85
    },
    {
      "midi": 74,
      "hit": false,
      "t": 54922.90300000002,
      "d": 234.614641666667,
      "v": 68
    },
    {
      "midi": 65,
      "hit": false,
      "t": 55392.132283333354,
      "d": 3173.066874999997,
      "v": 98
    },
    {
      "midi": 62,
      "hit": false,
      "t": 58003.66247500002,
      "d": 96.15354166666657,
      "v": 70
    },
    {
      "midi": 58,
      "hit": false,
      "t": 58045.97003333335,
      "d": 96.15354166666657,
      "v": 91
    },
    {
      "midi": 53,
      "hit": false,
      "t": 58145.96971666669,
      "d": 446.1524333333291,
      "v": 113
    },
    {
      "midi": 58,
      "hit": false,
      "t": 58399.815066666684,
      "d": 165.3840916666668,
      "v": 91
    },
    {
      "midi": 58,
      "hit": false,
      "t": 58615.199000000015,
      "d": 253.84535000000324,
      "v": 93
    },
    {
      "midi": 62,
      "hit": false,
      "t": 58853.65978333335,
      "d": 196.15322500000184,
      "v": 93
    },
    {
      "midi": 67,
      "hit": false,
      "t": 59084.42828333335,
      "d": 3173.066874999997,
      "v": 98
    },
    {
      "midi": 64,
      "hit": false,
      "t": 61695.958475000014,
      "d": 96.15354166666657,
      "v": 70
    },
    {
      "midi": 60,
      "hit": false,
      "t": 61738.26603333335,
      "d": 96.15354166666657,
      "v": 91
    },
    {
      "midi": 58,
      "hit": false,
      "t": 61780.57359166668,
      "d": 107.6919666666654,
      "v": 105
    },
    {
      "midi": 55,
      "hit": false,
      "t": 61838.26571666668,
      "d": 446.1524333333291,
      "v": 113
    },
    {
      "midi": 58,
      "hit": false,
      "t": 62092.11106666668,
      "d": 165.3840916666668,
      "v": 91
    },
    {
      "midi": 60,
      "hit": false,
      "t": 62307.49500000001,
      "d": 253.84534999999596,
      "v": 93
    },
    {
      "midi": 64,
      "hit": false,
      "t": 62545.95578333334,
      "d": 196.15322500000184,
      "v": 93
    },
    {
      "midi": 57,
      "hit": false,
      "t": 62776.72428333334,
      "d": 3173.066874999997,
      "v": 98
    },
    {
      "midi": 69,
      "hit": false,
      "t": 65388.254475,
      "d": 96.15354166666657,
      "v": 70
    },
    {
      "midi": 65,
      "hit": false,
      "t": 65430.562033333335,
      "d": 96.15354166666657,
      "v": 91
    },
    {
      "midi": 60,
      "hit": false,
      "t": 65530.56171666667,
      "d": 419.22944166666275,
      "v": 113
    },
    {
      "midi": 65,
      "hit": false,
      "t": 65784.40706666667,
      "d": 165.3840916666668,
      "v": 91
    },
    {
      "midi": 65,
      "hit": false,
      "t": 65999.791,
      "d": 253.84534999998868,
      "v": 93
    },
    {
      "midi": 69,
      "hit": false,
      "t": 66238.25178333333,
      "d": 196.1532249999873,
      "v": 93
    },
    {
      "midi": 57,
      "hit": false,
      "t": 66461.32799999998,
      "d": 899.9971499999956,
      "v": 89
    },
    {
      "midi": 62,
      "hit": false,
      "t": 66461.32799999998,
      "d": 899.9971499999956,
      "v": 89
    },
    {
      "midi": 65,
      "hit": false,
      "t": 66461.32799999998,
      "d": 899.9971499999956,
      "v": 89
    },
    {
      "midi": 62,
      "hit": false,
      "t": 67384.40199999997,
      "d": 2153.8393333333515,
      "v": 57
    },
    {
      "midi": 65,
      "hit": false,
      "t": 67615.17049999998,
      "d": 1853.840283333353,
      "v": 87
    },
    {
      "midi": 69,
      "hit": false,
      "t": 67845.93899999998,
      "d": 1611.5333583333413,
      "v": 87
    },
    {
      "midi": 74,
      "hit": false,
      "t": 68076.70749999999,
      "d": 1388.4571416666731,
      "v": 87
    },
    {
      "midi": 50,
      "hit": false,
      "t": 69461.3185,
      "d": 253.84534999998868,
      "v": 66
    },
    {
      "midi": 74,
      "hit": false,
      "t": 69692.08699999998,
      "d": 246.15306666666584,
      "v": 72
    },
    {
      "midi": 69,
      "hit": false,
      "t": 69692.08699999998,
      "d": 257.69149166667194,
      "v": 87
    },
    {
      "midi": 65,
      "hit": false,
      "t": 69692.08699999998,
      "d": 261.53763333334064,
      "v": 85
    },
    {
      "midi": 62,
      "hit": false,
      "t": 69692.08699999998,
      "d": 265.38377500000934,
      "v": 72
    },
    {
      "midi": 53,
      "hit": false,
      "t": 70153.624,
      "d": 2673.068458333335,
      "v": 82
    },
    {
      "midi": 58,
      "hit": false,
      "t": 70153.624,
      "d": 2673.068458333335,
      "v": 82
    },
    {
      "midi": 62,
      "hit": false,
      "t": 70153.624,
      "d": 2673.068458333335,
      "v": 82
    },
    {
      "midi": 62,
      "hit": false,
      "t": 72922.846,
      "d": 915.3817166666704,
      "v": 102
    },
    {
      "midi": 65,
      "hit": false,
      "t": 73153.61450000001,
      "d": 657.6902249999985,
      "v": 85
    },
    {
      "midi": 70,
      "hit": false,
      "t": 73384.38300000002,
      "d": 234.61464166665974,
      "v": 68
    },
    {
      "midi": 58,
      "hit": false,
      "t": 73845.92000000001,
      "d": 899.9971499999956,
      "v": 89
    },
    {
      "midi": 60,
      "hit": false,
      "t": 73845.92000000001,
      "d": 899.9971499999956,
      "v": 89
    },
    {
      "midi": 64,
      "hit": false,
      "t": 73845.92000000001,
      "d": 899.9971499999956,
      "v": 89
    },
    {
      "midi": 67,
      "hit": false,
      "t": 73845.92000000001,
      "d": 899.9971499999956,
      "v": 89
    },
    {
      "midi": 58,
      "hit": false,
      "t": 74768.994,
      "d": 2153.8393333333515,
      "v": 57
    },
    {
      "midi": 64,
      "hit": false,
      "t": 74999.76250000001,
      "d": 1853.840283333353,
      "v": 87
    },
    {
      "midi": 67,
      "hit": false,
      "t": 75230.53100000002,
      "d": 1611.5333583333413,
      "v": 87
    },
    {
      "midi": 72,
      "hit": false,
      "t": 75461.29950000002,
      "d": 1388.4571416666731,
      "v": 87
    },
    {
      "midi": 48,
      "hit": false,
      "t": 76845.91050000003,
      "d": 253.84534999998868,
      "v": 66
    },
    {
      "midi": 72,
      "hit": false,
      "t": 77076.67900000002,
      "d": 246.15306666666584,
      "v": 72
    },
    {
      "midi": 67,
      "hit": false,
      "t": 77076.67900000002,
      "d": 257.69149166667194,
      "v": 87
    },
    {
      "midi": 64,
      "hit": false,
      "t": 77076.67900000002,
      "d": 261.53763333334064,
      "v": 85
    },
    {
      "midi": 58,
      "hit": false,
      "t": 77076.67900000002,
      "d": 265.38377500000934,
      "v": 72
    },
    {
      "midi": 57,
      "hit": false,
      "t": 77545.90828333337,
      "d": 3173.0668749999895,
      "v": 98
    },
    {
      "midi": 69,
      "hit": false,
      "t": 80157.43847500003,
      "d": 96.1535416666593,
      "v": 70
    },
    {
      "midi": 65,
      "hit": false,
      "t": 80199.74603333336,
      "d": 96.1535416666593,
      "v": 91
    },
    {
      "midi": 60,
      "hit": false,
      "t": 80299.74571666669,
      "d": 419.22944166667,
      "v": 113
    },
    {
      "midi": 65,
      "hit": false,
      "t": 80553.59106666669,
      "d": 165.3840916666668,
      "v": 91
    },
    {
      "midi": 65,
      "hit": false,
      "t": 80768.97500000002,
      "d": 253.84534999998868,
      "v": 93
    },
    {
      "midi": 69,
      "hit": false,
      "t": 81007.43578333335,
      "d": 196.1532249999873,
      "v": 93
    },
    {
      "midi": 57,
      "hit": false,
      "t": 81230.512,
      "d": 899.9971499999956,
      "v": 89
    },
    {
      "midi": 62,
      "hit": false,
      "t": 81230.512,
      "d": 899.9971499999956,
      "v": 89
    },
    {
      "midi": 65,
      "hit": false,
      "t": 81230.512,
      "d": 899.9971499999956,
      "v": 89
    },
    {
      "midi": 62,
      "hit": false,
      "t": 82153.586,
      "d": 2153.8393333333515,
      "v": 57
    },
    {
      "midi": 65,
      "hit": false,
      "t": 82384.3545,
      "d": 1853.840283333353,
      "v": 87
    },
    {
      "midi": 69,
      "hit": false,
      "t": 82615.123,
      "d": 1611.5333583333413,
      "v": 87
    },
    {
      "midi": 74,
      "hit": false,
      "t": 82845.89150000001,
      "d": 1388.4571416666731,
      "v": 87
    },
    {
      "midi": 50,
      "hit": false,
      "t": 84230.50250000002,
      "d": 253.84534999998868,
      "v": 66
    },
    {
      "midi": 74,
      "hit": false,
      "t": 84461.27100000001,
      "d": 246.15306666666584,
      "v": 72
    },
    {
      "midi": 69,
      "hit": false,
      "t": 84461.27100000001,
      "d": 257.69149166667194,
      "v": 87
    },
    {
      "midi": 65,
      "hit": false,
      "t": 84461.27100000001,
      "d": 261.53763333334064,
      "v": 85
    },
    {
      "midi": 62,
      "hit": false,
      "t": 84461.27100000001,
      "d": 265.38377500000934,
      "v": 72
    },
    {
      "midi": 53,
      "hit": false,
      "t": 84922.80800000002,
      "d": 899.9971499999956,
      "v": 89
    },
    {
      "midi": 58,
      "hit": false,
      "t": 84922.80800000002,
      "d": 899.9971499999956,
      "v": 89
    },
    {
      "midi": 62,
      "hit": false,
      "t": 84922.80800000002,
      "d": 899.9971499999956,
      "v": 89
    },
    {
      "midi": 58,
      "hit": false,
      "t": 85845.88200000001,
      "d": 2153.8393333333515,
      "v": 57
    },
    {
      "midi": 62,
      "hit": false,
      "t": 86076.65050000002,
      "d": 1853.840283333353,
      "v": 87
    },
    {
      "midi": 65,
      "hit": false,
      "t": 86307.41900000002,
      "d": 1611.5333583333413,
      "v": 87
    },
    {
      "midi": 70,
      "hit": false,
      "t": 86538.18750000003,
      "d": 1388.4571416666731,
      "v": 87
    },
    {
      "midi": 46,
      "hit": false,
      "t": 87922.79850000003,
      "d": 253.84534999998868,
      "v": 66
    },
    {
      "midi": 70,
      "hit": false,
      "t": 88153.56700000002,
      "d": 246.15306666666584,
      "v": 72
    },
    {
      "midi": 65,
      "hit": false,
      "t": 88153.56700000002,
      "d": 257.69149166667194,
      "v": 87
    },
    {
      "midi": 62,
      "hit": false,
      "t": 88153.56700000002,
      "d": 261.53763333334064,
      "v": 85
    },
    {
      "midi": 58,
      "hit": false,
      "t": 88153.56700000002,
      "d": 265.38377500000934,
      "v": 72
    },
    {
      "midi": 67,
      "hit": false,
      "t": 88622.79628333337,
      "d": 3173.066874999975,
      "v": 98
    },
    {
      "midi": 64,
      "hit": false,
      "t": 91234.32647500004,
      "d": 96.1535416666593,
      "v": 70
    },
    {
      "midi": 60,
      "hit": false,
      "t": 91276.63403333336,
      "d": 96.1535416666593,
      "v": 91
    },
    {
      "midi": 58,
      "hit": false,
      "t": 91318.94159166669,
      "d": 107.6919666666654,
      "v": 105
    },
    {
      "midi": 55,
      "hit": false,
      "t": 91376.63371666669,
      "d": 446.1524333333218,
      "v": 113
    },
    {
      "midi": 58,
      "hit": false,
      "t": 91630.47906666668,
      "d": 165.3840916666668,
      "v": 91
    },
    {
      "midi": 60,
      "hit": false,
      "t": 91845.86300000001,
      "d": 253.84534999998868,
      "v": 93
    },
    {
      "midi": 64,
      "hit": false,
      "t": 92084.32378333334,
      "d": 196.1532249999873,
      "v": 93
    },
    {
      "midi": 57,
      "hit": false,
      "t": 92307.4,
      "d": 899.9971499999956,
      "v": 89
    },
    {
      "midi": 60,
      "hit": false,
      "t": 92307.4,
      "d": 899.9971499999956,
      "v": 89
    },
    {
      "midi": 65,
      "hit": false,
      "t": 92307.4,
      "d": 899.9971499999956,
      "v": 89
    },
    {
      "midi": 65,
      "hit": false,
      "t": 93230.47399999999,
      "d": 2153.8393333333515,
      "v": 57
    },
    {
      "midi": 69,
      "hit": false,
      "t": 93461.2425,
      "d": 1853.840283333353,
      "v": 87
    },
    {
      "midi": 72,
      "hit": false,
      "t": 93692.011,
      "d": 1611.5333583333413,
      "v": 87
    },
    {
      "midi": 77,
      "hit": false,
      "t": 93922.7795,
      "d": 1388.4571416666731,
      "v": 87
    },
    {
      "midi": 53,
      "hit": false,
      "t": 95307.39050000001,
      "d": 253.84534999998868,
      "v": 66
    },
    {
      "midi": 77,
      "hit": false,
      "t": 95538.159,
      "d": 246.15306666666584,
      "v": 72
    },
    {
      "midi": 72,
      "hit": false,
      "t": 95538.159,
      "d": 257.69149166667194,
      "v": 87
    },
    {
      "midi": 69,
      "hit": false,
      "t": 95538.159,
      "d": 261.53763333334064,
      "v": 85
    },
    {
      "midi": 65,
      "hit": false,
      "t": 95538.159,
      "d": 265.38377500000934,
      "v": 72
    },
    {
      "midi": 65,
      "hit": false,
      "t": 98618.91847500001,
      "d": 96.1535416666593,
      "v": 70
    },
    {
      "midi": 62,
      "hit": false,
      "t": 98661.22603333334,
      "d": 96.1535416666593,
      "v": 91
    },
    {
      "midi": 57,
      "hit": false,
      "t": 98761.22571666667,
      "d": 419.22944166667,
      "v": 113
    },
    {
      "midi": 62,
      "hit": false,
      "t": 99015.07106666667,
      "d": 165.3840916666668,
      "v": 91
    },
    {
      "midi": 62,
      "hit": false,
      "t": 99230.455,
      "d": 253.84534999998868,
      "v": 93
    },
    {
      "midi": 65,
      "hit": false,
      "t": 99468.91578333333,
      "d": 196.1532249999873,
      "v": 93
    },
    {
      "midi": 62,
      "hit": false,
      "t": 99691.99199999998,
      "d": 784.6128999999928,
      "v": 98
    },
    {
      "midi": 67,
      "hit": false,
      "t": 99691.99199999998,
      "d": 784.6128999999928,
      "v": 98
    },
    {
      "midi": 70,
      "hit": false,
      "t": 99691.99199999998,
      "d": 784.6128999999928,
      "v": 98
    },
    {
      "midi": 62,
      "hit": false,
      "t": 100615.06599999998,
      "d": 776.92061666667,
      "v": 82
    },
    {
      "midi": 66,
      "hit": false,
      "t": 100615.06599999998,
      "d": 776.92061666667,
      "v": 82
    },
    {
      "midi": 67,
      "hit": false,
      "t": 100615.06599999998,
      "d": 776.92061666667,
      "v": 82
    },
    {
      "midi": 58,
      "hit": false,
      "t": 101307.37149999998,
      "d": 84.61511666666775,
      "v": 76
    },
    {
      "midi": 62,
      "hit": false,
      "t": 101422.75574999998,
      "d": 69.23054999999295,
      "v": 62
    },
    {
      "midi": 58,
      "hit": false,
      "t": 101538.13999999997,
      "d": 1188.4577750000026,
      "v": 89
    },
    {
      "midi": 62,
      "hit": false,
      "t": 101538.13999999997,
      "d": 1188.4577750000026,
      "v": 89
    },
    {
      "midi": 65,
      "hit": false,
      "t": 101538.13999999997,
      "d": 1188.4577750000026,
      "v": 89
    },
    {
      "midi": 67,
      "hit": false,
      "t": 101538.13999999997,
      "d": 1188.4577750000026,
      "v": 89
    },
    {
      "midi": 43,
      "hit": false,
      "t": 102691.98249999997,
      "d": 207.69165000000794,
      "v": 70
    },
    {
      "midi": 58,
      "hit": false,
      "t": 102922.75099999997,
      "d": 211.5377916666621,
      "v": 105
    },
    {
      "midi": 62,
      "hit": false,
      "t": 102922.75099999997,
      "d": 211.5377916666621,
      "v": 105
    },
    {
      "midi": 65,
      "hit": false,
      "t": 102922.75099999997,
      "d": 211.5377916666621,
      "v": 105
    },
    {
      "midi": 67,
      "hit": false,
      "t": 102922.75099999997,
      "d": 211.5377916666621,
      "v": 105
    },
    {
      "midi": 58,
      "hit": false,
      "t": 103384.28799999997,
      "d": 1188.4577750000026,
      "v": 89
    },
    {
      "midi": 62,
      "hit": false,
      "t": 103384.28799999997,
      "d": 1188.4577750000026,
      "v": 89
    },
    {
      "midi": 65,
      "hit": false,
      "t": 103384.28799999997,
      "d": 1188.4577750000026,
      "v": 89
    },
    {
      "midi": 67,
      "hit": false,
      "t": 103384.28799999997,
      "d": 1188.4577750000026,
      "v": 89
    },
    {
      "midi": 48,
      "hit": false,
      "t": 104538.13049999997,
      "d": 207.69165000000794,
      "v": 70
    },
    {
      "midi": 58,
      "hit": false,
      "t": 104768.89899999998,
      "d": 211.5377916666621,
      "v": 105
    },
    {
      "midi": 62,
      "hit": false,
      "t": 104768.89899999998,
      "d": 211.5377916666621,
      "v": 105
    },
    {
      "midi": 65,
      "hit": false,
      "t": 104768.89899999998,
      "d": 211.5377916666621,
      "v": 105
    },
    {
      "midi": 67,
      "hit": false,
      "t": 104768.89899999998,
      "d": 211.5377916666621,
      "v": 105
    },
    {
      "midi": 58,
      "hit": false,
      "t": 105230.43599999997,
      "d": 1711.5330416666693,
      "v": 89
    },
    {
      "midi": 60,
      "hit": false,
      "t": 105230.43599999997,
      "d": 1711.5330416666693,
      "v": 89
    },
    {
      "midi": 64,
      "hit": false,
      "t": 105230.43599999997,
      "d": 1711.5330416666693,
      "v": 89
    },
    {
      "midi": 67,
      "hit": false,
      "t": 105230.43599999997,
      "d": 1711.5330416666693,
      "v": 89
    },
    {
      "midi": 57,
      "hit": false,
      "t": 107076.58399999997,
      "d": 2673.068458333335,
      "v": 82
    },
    {
      "midi": 60,
      "hit": false,
      "t": 107076.58399999997,
      "d": 2673.068458333335,
      "v": 82
    },
    {
      "midi": 65,
      "hit": false,
      "t": 107076.58399999997,
      "d": 2673.068458333335,
      "v": 82
    },
    {
      "midi": 69,
      "hit": false,
      "t": 109845.80599999998,
      "d": 915.3817166666704,
      "v": 102
    },
    {
      "midi": 72,
      "hit": false,
      "t": 110076.57449999999,
      "d": 657.6902249999985,
      "v": 85
    },
    {
      "midi": 77,
      "hit": false,
      "t": 110307.343,
      "d": 234.61464166665974,
      "v": 68
    },
    {
      "midi": 65,
      "hit": false,
      "t": 113388.10247499998,
      "d": 96.1535416666593,
      "v": 70
    },
    {
      "midi": 62,
      "hit": false,
      "t": 113430.4100333333,
      "d": 96.1535416666593,
      "v": 91
    },
    {
      "midi": 57,
      "hit": false,
      "t": 113530.40971666663,
      "d": 419.22944166667,
      "v": 113
    },
    {
      "midi": 62,
      "hit": false,
      "t": 113784.25506666664,
      "d": 165.3840916666668,
      "v": 91
    },
    {
      "midi": 62,
      "hit": false,
      "t": 113999.63899999997,
      "d": 253.84534999998868,
      "v": 93
    },
    {
      "midi": 65,
      "hit": false,
      "t": 114238.0997833333,
      "d": 196.1532249999873,
      "v": 93
    },
    {
      "midi": 58,
      "hit": false,
      "t": 114461.17599999995,
      "d": 2673.068458333335,
      "v": 82
    },
    {
      "midi": 62,
      "hit": false,
      "t": 114461.17599999995,
      "d": 2673.068458333335,
      "v": 82
    },
    {
      "midi": 65,
      "hit": false,
      "t": 114461.17599999995,
      "d": 2673.068458333335,
      "v": 82
    },
    {
      "midi": 62,
      "hit": false,
      "t": 117230.39799999996,
      "d": 915.3817166666704,
      "v": 102
    },
    {
      "midi": 65,
      "hit": false,
      "t": 117461.16649999996,
      "d": 657.6902249999985,
      "v": 85
    },
    {
      "midi": 70,
      "hit": false,
      "t": 117691.93499999997,
      "d": 234.61464166665974,
      "v": 68
    },
    {
      "midi": 58,
      "hit": false,
      "t": 118153.47199999997,
      "d": 899.9971499999956,
      "v": 89
    },
    {
      "midi": 60,
      "hit": false,
      "t": 118153.47199999997,
      "d": 899.9971499999956,
      "v": 89
    },
    {
      "midi": 64,
      "hit": false,
      "t": 118153.47199999997,
      "d": 899.9971499999956,
      "v": 89
    },
    {
      "midi": 67,
      "hit": false,
      "t": 118153.47199999997,
      "d": 899.9971499999956,
      "v": 89
    },
    {
      "midi": 58,
      "hit": false,
      "t": 119076.54599999996,
      "d": 2153.8393333333515,
      "v": 57
    },
    {
      "midi": 64,
      "hit": false,
      "t": 119307.31449999996,
      "d": 1853.840283333353,
      "v": 87
    },
    {
      "midi": 67,
      "hit": false,
      "t": 119538.08299999997,
      "d": 1611.5333583333413,
      "v": 87
    },
    {
      "midi": 72,
      "hit": false,
      "t": 119768.85149999998,
      "d": 1388.4571416666731,
      "v": 87
    },
    {
      "midi": 48,
      "hit": false,
      "t": 121153.46249999998,
      "d": 253.84534999998868,
      "v": 66
    },
    {
      "midi": 72,
      "hit": false,
      "t": 121384.23099999997,
      "d": 246.15306666666584,
      "v": 72
    },
    {
      "midi": 67,
      "hit": false,
      "t": 121384.23099999997,
      "d": 257.69149166667194,
      "v": 87
    },
    {
      "midi": 64,
      "hit": false,
      "t": 121384.23099999997,
      "d": 261.53763333334064,
      "v": 85
    },
    {
      "midi": 58,
      "hit": false,
      "t": 121384.23099999997,
      "d": 265.38377500000934,
      "v": 72
    },
    {
      "midi": 57,
      "hit": false,
      "t": 121853.46028333332,
      "d": 3173.0668749999895,
      "v": 98
    },
    {
      "midi": 69,
      "hit": false,
      "t": 124464.99047499998,
      "d": 96.1535416666593,
      "v": 70
    },
    {
      "midi": 65,
      "hit": false,
      "t": 124507.29803333331,
      "d": 96.1535416666593,
      "v": 91
    },
    {
      "midi": 60,
      "hit": false,
      "t": 124607.29771666664,
      "d": 419.22944166667,
      "v": 113
    },
    {
      "midi": 65,
      "hit": false,
      "t": 124861.14306666664,
      "d": 165.3840916666668,
      "v": 91
    },
    {
      "midi": 65,
      "hit": false,
      "t": 125076.52699999997,
      "d": 253.84534999998868,
      "v": 93
    },
    {
      "midi": 69,
      "hit": false,
      "t": 125314.9877833333,
      "d": 196.1532249999873,
      "v": 93
    },
    {
      "midi": 57,
      "hit": false,
      "t": 125538.06399999995,
      "d": 899.9971499999956,
      "v": 89
    },
    {
      "midi": 62,
      "hit": false,
      "t": 125538.06399999995,
      "d": 899.9971499999956,
      "v": 89
    },
    {
      "midi": 65,
      "hit": false,
      "t": 125538.06399999995,
      "d": 899.9971499999956,
      "v": 89
    },
    {
      "midi": 62,
      "hit": false,
      "t": 126461.13799999995,
      "d": 2153.8393333333515,
      "v": 57
    },
    {
      "midi": 65,
      "hit": false,
      "t": 126691.90649999995,
      "d": 1853.840283333353,
      "v": 87
    },
    {
      "midi": 69,
      "hit": false,
      "t": 126922.67499999996,
      "d": 1611.5333583333413,
      "v": 87
    },
    {
      "midi": 74,
      "hit": false,
      "t": 127153.44349999996,
      "d": 1388.4571416666731,
      "v": 87
    },
    {
      "midi": 50,
      "hit": false,
      "t": 128538.05449999997,
      "d": 253.84534999998868,
      "v": 66
    },
    {
      "midi": 74,
      "hit": false,
      "t": 128768.82299999996,
      "d": 246.15306666666584,
      "v": 72
    },
    {
      "midi": 69,
      "hit": false,
      "t": 128768.82299999996,
      "d": 257.69149166667194,
      "v": 87
    },
    {
      "midi": 65,
      "hit": false,
      "t": 128768.82299999996,
      "d": 261.53763333334064,
      "v": 85
    },
    {
      "midi": 62,
      "hit": false,
      "t": 128768.82299999996,
      "d": 265.38377500000934,
      "v": 72
    },
    {
      "midi": 58,
      "hit": false,
      "t": 129230.35999999997,
      "d": 899.9971499999956,
      "v": 89
    },
    {
      "midi": 62,
      "hit": false,
      "t": 129230.35999999997,
      "d": 899.9971499999956,
      "v": 89
    },
    {
      "midi": 65,
      "hit": false,
      "t": 129230.35999999997,
      "d": 899.9971499999956,
      "v": 89
    },
    {
      "midi": 58,
      "hit": false,
      "t": 130153.43399999996,
      "d": 2153.8393333333515,
      "v": 57
    },
    {
      "midi": 62,
      "hit": false,
      "t": 130384.20249999997,
      "d": 1853.8402833333384,
      "v": 87
    },
    {
      "midi": 65,
      "hit": false,
      "t": 130614.97099999998,
      "d": 1611.5333583333268,
      "v": 87
    },
    {
      "midi": 70,
      "hit": false,
      "t": 130845.73949999998,
      "d": 1388.4571416666586,
      "v": 87
    },
    {
      "midi": 46,
      "hit": false,
      "t": 132230.35049999997,
      "d": 253.8453500000178,
      "v": 66
    },
    {
      "midi": 70,
      "hit": false,
      "t": 132461.11899999998,
      "d": 246.1530666666804,
      "v": 72
    },
    {
      "midi": 65,
      "hit": false,
      "t": 132461.11899999998,
      "d": 257.6914916666865,
      "v": 87
    },
    {
      "midi": 62,
      "hit": false,
      "t": 132461.11899999998,
      "d": 261.5376333333552,
      "v": 85
    },
    {
      "midi": 58,
      "hit": false,
      "t": 132461.11899999998,
      "d": 265.3837750000239,
      "v": 72
    },
    {
      "midi": 58,
      "hit": false,
      "t": 132922.656,
      "d": 899.9971500000102,
      "v": 89
    },
    {
      "midi": 60,
      "hit": false,
      "t": 132922.656,
      "d": 899.9971500000102,
      "v": 89
    },
    {
      "midi": 64,
      "hit": false,
      "t": 132922.656,
      "d": 899.9971500000102,
      "v": 89
    },
    {
      "midi": 67,
      "hit": false,
      "t": 132922.656,
      "d": 899.9971500000102,
      "v": 89
    },
    {
      "midi": 58,
      "hit": false,
      "t": 133845.73,
      "d": 2153.839333333366,
      "v": 57
    },
    {
      "midi": 64,
      "hit": false,
      "t": 134076.49850000002,
      "d": 1853.840283333353,
      "v": 87
    },
    {
      "midi": 67,
      "hit": false,
      "t": 134307.26700000002,
      "d": 1611.5333583333413,
      "v": 87
    },
    {
      "midi": 72,
      "hit": false,
      "t": 134538.03550000003,
      "d": 1388.4571416666731,
      "v": 87
    },
    {
      "midi": 48,
      "hit": false,
      "t": 135922.64650000003,
      "d": 253.8453500000178,
      "v": 66
    },
    {
      "midi": 72,
      "hit": false,
      "t": 136153.41500000004,
      "d": 246.1530666666804,
      "v": 72
    },
    {
      "midi": 67,
      "hit": false,
      "t": 136153.41500000004,
      "d": 257.6914916666865,
      "v": 87
    },
    {
      "midi": 64,
      "hit": false,
      "t": 136153.41500000004,
      "d": 261.5376333333552,
      "v": 85
    },
    {
      "midi": 58,
      "hit": false,
      "t": 136153.41500000004,
      "d": 265.3837750000239,
      "v": 72
    },
    {
      "midi": 57,
      "hit": false,
      "t": 136614.95200000005,
      "d": 899.9971500000102,
      "v": 89
    },
    {
      "midi": 60,
      "hit": false,
      "t": 136614.95200000005,
      "d": 899.9971500000102,
      "v": 89
    },
    {
      "midi": 65,
      "hit": false,
      "t": 136614.95200000005,
      "d": 899.9971500000102,
      "v": 89
    },
    {
      "midi": 65,
      "hit": false,
      "t": 137538.02600000007,
      "d": 2153.839333333366,
      "v": 57
    },
    {
      "midi": 69,
      "hit": false,
      "t": 137768.79450000008,
      "d": 1853.840283333353,
      "v": 87
    },
    {
      "midi": 72,
      "hit": false,
      "t": 137999.56300000008,
      "d": 1611.5333583333413,
      "v": 87
    },
    {
      "midi": 77,
      "hit": false,
      "t": 138230.3315000001,
      "d": 1388.4571416666731,
      "v": 87
    },
    {
      "midi": 53,
      "hit": false,
      "t": 139614.9425000001,
      "d": 253.8453500000178,
      "v": 66
    },
    {
      "midi": 77,
      "hit": false,
      "t": 139845.7110000001,
      "d": 246.1530666666804,
      "v": 72
    },
    {
      "midi": 72,
      "hit": false,
      "t": 139845.7110000001,
      "d": 257.6914916666865,
      "v": 87
    },
    {
      "midi": 69,
      "hit": false,
      "t": 139845.7110000001,
      "d": 261.5376333333552,
      "v": 85
    },
    {
      "midi": 65,
      "hit": false,
      "t": 139845.7110000001,
      "d": 265.3837750000239,
      "v": 72
    },
    {
      "midi": 65,
      "hit": false,
      "t": 142926.47047500013,
      "d": 96.1535416666593,
      "v": 70
    },
    {
      "midi": 62,
      "hit": false,
      "t": 142968.77803333345,
      "d": 96.1535416666593,
      "v": 91
    },
    {
      "midi": 57,
      "hit": false,
      "t": 143068.77771666678,
      "d": 419.2294416666846,
      "v": 113
    },
    {
      "midi": 62,
      "hit": false,
      "t": 143322.6230666668,
      "d": 165.3840916666668,
      "v": 91
    },
    {
      "midi": 62,
      "hit": false,
      "t": 143538.00700000013,
      "d": 253.8453500000178,
      "v": 93
    },
    {
      "midi": 65,
      "hit": false,
      "t": 143776.46778333347,
      "d": 196.1532250000164,
      "v": 93
    },
    {
      "midi": 58,
      "hit": false,
      "t": 143999.54400000017,
      "d": 899.9971500000102,
      "v": 89
    },
    {
      "midi": 62,
      "hit": false,
      "t": 143999.54400000017,
      "d": 899.9971500000102,
      "v": 89
    },
    {
      "midi": 65,
      "hit": false,
      "t": 143999.54400000017,
      "d": 899.9971500000102,
      "v": 89
    },
    {
      "midi": 58,
      "hit": false,
      "t": 144922.6180000002,
      "d": 2153.839333333366,
      "v": 57
    },
    {
      "midi": 62,
      "hit": false,
      "t": 145153.3865000002,
      "d": 1853.840283333353,
      "v": 87
    },
    {
      "midi": 65,
      "hit": false,
      "t": 145384.1550000002,
      "d": 1611.5333583333413,
      "v": 87
    },
    {
      "midi": 70,
      "hit": false,
      "t": 145614.9235000002,
      "d": 1388.4571416666731,
      "v": 87
    },
    {
      "midi": 46,
      "hit": false,
      "t": 146999.5345000002,
      "d": 253.8453500000178,
      "v": 66
    },
    {
      "midi": 70,
      "hit": false,
      "t": 147230.30300000022,
      "d": 246.1530666666804,
      "v": 72
    },
    {
      "midi": 65,
      "hit": false,
      "t": 147230.30300000022,
      "d": 257.6914916666865,
      "v": 87
    },
    {
      "midi": 62,
      "hit": false,
      "t": 147230.30300000022,
      "d": 261.5376333333552,
      "v": 85
    },
    {
      "midi": 58,
      "hit": false,
      "t": 147230.30300000022,
      "d": 265.3837750000239,
      "v": 72
    },
    {
      "midi": 67,
      "hit": false,
      "t": 147699.53228333357,
      "d": 3173.0668750000186,
      "v": 98
    },
    {
      "midi": 64,
      "hit": false,
      "t": 150311.06247500025,
      "d": 96.1535416666593,
      "v": 70
    },
    {
      "midi": 60,
      "hit": false,
      "t": 150353.37003333357,
      "d": 96.1535416666593,
      "v": 91
    },
    {
      "midi": 58,
      "hit": false,
      "t": 150395.6775916669,
      "d": 107.6919666666654,
      "v": 105
    },
    {
      "midi": 55,
      "hit": false,
      "t": 150453.3697166669,
      "d": 446.1524333333655,
      "v": 113
    },
    {
      "midi": 58,
      "hit": false,
      "t": 150707.21506666692,
      "d": 165.3840916666668,
      "v": 91
    },
    {
      "midi": 60,
      "hit": false,
      "t": 150922.59900000028,
      "d": 253.8453500000178,
      "v": 93
    },
    {
      "midi": 64,
      "hit": false,
      "t": 151161.05978333362,
      "d": 196.1532250000164,
      "v": 93
    },
    {
      "midi": 57,
      "hit": false,
      "t": 151384.13600000032,
      "d": 2673.0684583333205,
      "v": 82
    },
    {
      "midi": 60,
      "hit": false,
      "t": 151384.13600000032,
      "d": 2673.0684583333205,
      "v": 82
    },
    {
      "midi": 65,
      "hit": false,
      "t": 151384.13600000032,
      "d": 2673.0684583333205,
      "v": 82
    },
    {
      "midi": 69,
      "hit": false,
      "t": 154153.3580000003,
      "d": 915.381716666714,
      "v": 102
    },
    {
      "midi": 72,
      "hit": false,
      "t": 154384.1265000003,
      "d": 657.6902250000276,
      "v": 85
    },
    {
      "midi": 77,
      "hit": false,
      "t": 154614.8950000003,
      "d": 234.6146416666743,
      "v": 68
    },
    {
      "midi": 57,
      "hit": false,
      "t": 155076.43200000035,
      "d": 899.9971500000102,
      "v": 89
    },
    {
      "midi": 62,
      "hit": false,
      "t": 155076.43200000035,
      "d": 899.9971500000102,
      "v": 89
    },
    {
      "midi": 65,
      "hit": false,
      "t": 155076.43200000035,
      "d": 899.9971500000102,
      "v": 89
    },
    {
      "midi": 62,
      "hit": false,
      "t": 155999.50600000037,
      "d": 2153.839333333366,
      "v": 57
    },
    {
      "midi": 65,
      "hit": false,
      "t": 156230.27450000038,
      "d": 1853.840283333353,
      "v": 87
    },
    {
      "midi": 69,
      "hit": false,
      "t": 156461.04300000038,
      "d": 1611.5333583333413,
      "v": 87
    },
    {
      "midi": 74,
      "hit": false,
      "t": 156691.8115000004,
      "d": 1388.4571416666731,
      "v": 87
    },
    {
      "midi": 50,
      "hit": false,
      "t": 158076.4225000004,
      "d": 253.8453500000178,
      "v": 66
    },
    {
      "midi": 74,
      "hit": false,
      "t": 158307.1910000004,
      "d": 246.1530666666804,
      "v": 72
    },
    {
      "midi": 69,
      "hit": false,
      "t": 158307.1910000004,
      "d": 257.6914916666865,
      "v": 87
    },
    {
      "midi": 65,
      "hit": false,
      "t": 158307.1910000004,
      "d": 261.5376333333552,
      "v": 85
    },
    {
      "midi": 62,
      "hit": false,
      "t": 158307.1910000004,
      "d": 265.3837750000239,
      "v": 72
    },
    {
      "midi": 62,
      "hit": false,
      "t": 158768.7280000004,
      "d": 542.3059749999957,
      "v": 98
    },
    {
      "midi": 67,
      "hit": false,
      "t": 158768.7280000004,
      "d": 542.3059749999957,
      "v": 98
    },
    {
      "midi": 70,
      "hit": false,
      "t": 158768.7280000004,
      "d": 542.3059749999957,
      "v": 98
    },
    {
      "midi": 62,
      "hit": false,
      "t": 159345.6492500004,
      "d": 65.3844083333388,
      "v": 98
    },
    {
      "midi": 67,
      "hit": false,
      "t": 159345.6492500004,
      "d": 65.3844083333388,
      "v": 98
    },
    {
      "midi": 70,
      "hit": false,
      "t": 159345.6492500004,
      "d": 65.3844083333388,
      "v": 98
    },
    {
      "midi": 58,
      "hit": false,
      "t": 159691.8020000004,
      "d": 542.3059749999957,
      "v": 98
    },
    {
      "midi": 62,
      "hit": false,
      "t": 159691.8020000004,
      "d": 542.3059749999957,
      "v": 98
    },
    {
      "midi": 66,
      "hit": false,
      "t": 159691.8020000004,
      "d": 542.3059749999957,
      "v": 98
    },
    {
      "midi": 67,
      "hit": false,
      "t": 159691.8020000004,
      "d": 542.3059749999957,
      "v": 98
    },
    {
      "midi": 58,
      "hit": false,
      "t": 160268.7232500004,
      "d": 65.3844083333388,
      "v": 98
    },
    {
      "midi": 62,
      "hit": false,
      "t": 160268.7232500004,
      "d": 65.3844083333388,
      "v": 98
    },
    {
      "midi": 66,
      "hit": false,
      "t": 160268.7232500004,
      "d": 65.3844083333388,
      "v": 98
    },
    {
      "midi": 67,
      "hit": false,
      "t": 160268.7232500004,
      "d": 65.3844083333388,
      "v": 98
    },
    {
      "midi": 58,
      "hit": false,
      "t": 160614.8760000004,
      "d": 992.3045500000007,
      "v": 80
    },
    {
      "midi": 62,
      "hit": false,
      "t": 160614.8760000004,
      "d": 992.3045500000007,
      "v": 80
    },
    {
      "midi": 65,
      "hit": false,
      "t": 160614.8760000004,
      "d": 992.3045500000007,
      "v": 80
    },
    {
      "midi": 67,
      "hit": false,
      "t": 160614.8760000004,
      "d": 992.3045500000007,
      "v": 80
    },
    {
      "midi": 58,
      "hit": false,
      "t": 161768.7185000004,
      "d": 111.5381083333341,
      "v": 85
    },
    {
      "midi": 62,
      "hit": false,
      "t": 161768.7185000004,
      "d": 111.5381083333341,
      "v": 85
    },
    {
      "midi": 65,
      "hit": false,
      "t": 161768.7185000004,
      "d": 111.5381083333341,
      "v": 85
    },
    {
      "midi": 67,
      "hit": false,
      "t": 161768.7185000004,
      "d": 111.5381083333341,
      "v": 85
    },
    {
      "midi": 58,
      "hit": false,
      "t": 162114.8712500004,
      "d": 161.5379499999981,
      "v": 85
    },
    {
      "midi": 62,
      "hit": false,
      "t": 162114.8712500004,
      "d": 161.5379499999981,
      "v": 85
    },
    {
      "midi": 65,
      "hit": false,
      "t": 162114.8712500004,
      "d": 161.5379499999981,
      "v": 85
    },
    {
      "midi": 67,
      "hit": false,
      "t": 162114.8712500004,
      "d": 161.5379499999981,
      "v": 85
    },
    {
      "midi": 58,
      "hit": false,
      "t": 162461.0240000004,
      "d": 992.3045500000007,
      "v": 80
    },
    {
      "midi": 62,
      "hit": false,
      "t": 162461.0240000004,
      "d": 992.3045500000007,
      "v": 80
    },
    {
      "midi": 65,
      "hit": false,
      "t": 162461.0240000004,
      "d": 992.3045500000007,
      "v": 80
    },
    {
      "midi": 67,
      "hit": false,
      "t": 162461.0240000004,
      "d": 992.3045500000007,
      "v": 80
    },
    {
      "midi": 58,
      "hit": false,
      "t": 163614.8665000004,
      "d": 111.5381083333341,
      "v": 85
    },
    {
      "midi": 62,
      "hit": false,
      "t": 163614.8665000004,
      "d": 111.5381083333341,
      "v": 85
    },
    {
      "midi": 65,
      "hit": false,
      "t": 163614.8665000004,
      "d": 111.5381083333341,
      "v": 85
    },
    {
      "midi": 67,
      "hit": false,
      "t": 163614.8665000004,
      "d": 111.5381083333341,
      "v": 85
    },
    {
      "midi": 58,
      "hit": false,
      "t": 163961.01925000042,
      "d": 161.5379499999981,
      "v": 85
    },
    {
      "midi": 62,
      "hit": false,
      "t": 163961.01925000042,
      "d": 161.5379499999981,
      "v": 85
    },
    {
      "midi": 65,
      "hit": false,
      "t": 163961.01925000042,
      "d": 161.5379499999981,
      "v": 85
    },
    {
      "midi": 67,
      "hit": false,
      "t": 163961.01925000042,
      "d": 161.5379499999981,
      "v": 85
    },
    {
      "midi": 58,
      "hit": false,
      "t": 164307.17200000043,
      "d": 1188.457774999988,
      "v": 89
    },
    {
      "midi": 60,
      "hit": false,
      "t": 164307.17200000043,
      "d": 1188.457774999988,
      "v": 89
    },
    {
      "midi": 64,
      "hit": false,
      "t": 164307.17200000043,
      "d": 1188.457774999988,
      "v": 89
    },
    {
      "midi": 67,
      "hit": false,
      "t": 164307.17200000043,
      "d": 1188.457774999988,
      "v": 89
    },
    {
      "midi": 48,
      "hit": false,
      "t": 165461.01450000043,
      "d": 207.6916499999934,
      "v": 70
    },
    {
      "midi": 58,
      "hit": false,
      "t": 165691.78300000043,
      "d": 211.5377916666621,
      "v": 105
    },
    {
      "midi": 60,
      "hit": false,
      "t": 165691.78300000043,
      "d": 211.5377916666621,
      "v": 105
    },
    {
      "midi": 64,
      "hit": false,
      "t": 165691.78300000043,
      "d": 211.5377916666621,
      "v": 105
    },
    {
      "midi": 67,
      "hit": false,
      "t": 165691.78300000043,
      "d": 211.5377916666621,
      "v": 105
    },
    {
      "midi": 57,
      "hit": false,
      "t": 166161.01228333375,
      "d": 3173.0668750000186,
      "v": 98
    },
    {
      "midi": 69,
      "hit": false,
      "t": 168772.54247500043,
      "d": 96.1535416666593,
      "v": 70
    },
    {
      "midi": 65,
      "hit": false,
      "t": 168814.85003333376,
      "d": 96.1535416666593,
      "v": 91
    },
    {
      "midi": 60,
      "hit": false,
      "t": 168914.8497166671,
      "d": 419.2294416666846,
      "v": 113
    },
    {
      "midi": 65,
      "hit": false,
      "t": 169168.6950666671,
      "d": 165.3840916666668,
      "v": 91
    },
    {
      "midi": 65,
      "hit": false,
      "t": 169384.07900000043,
      "d": 253.8453500000178,
      "v": 93
    },
    {
      "midi": 69,
      "hit": false,
      "t": 169622.53978333378,
      "d": 196.1532250000164,
      "v": 93
    },
    {
      "midi": 65,
      "hit": false,
      "t": 172464.83847500046,
      "d": 96.1535416666593,
      "v": 70
    },
    {
      "midi": 62,
      "hit": false,
      "t": 172507.1460333338,
      "d": 96.1535416666593,
      "v": 91
    },
    {
      "midi": 57,
      "hit": false,
      "t": 172607.14571666712,
      "d": 419.2294416666846,
      "v": 113
    },
    {
      "midi": 62,
      "hit": false,
      "t": 172860.99106666713,
      "d": 165.3840916666668,
      "v": 91
    },
    {
      "midi": 62,
      "hit": false,
      "t": 173076.37500000047,
      "d": 253.8453500000178,
      "v": 93
    },
    {
      "midi": 65,
      "hit": false,
      "t": 173314.8357833338,
      "d": 196.1532250000164,
      "v": 93
    },
    {
      "midi": 53,
      "hit": false,
      "t": 173537.9120000005,
      "d": 899.9971500000102,
      "v": 89
    },
    {
      "midi": 58,
      "hit": false,
      "t": 173537.9120000005,
      "d": 899.9971500000102,
      "v": 89
    },
    {
      "midi": 62,
      "hit": false,
      "t": 173537.9120000005,
      "d": 899.9971500000102,
      "v": 89
    },
    {
      "midi": 58,
      "hit": false,
      "t": 174460.98600000053,
      "d": 2153.839333333366,
      "v": 57
    },
    {
      "midi": 62,
      "hit": false,
      "t": 174691.75450000053,
      "d": 1853.840283333353,
      "v": 87
    },
    {
      "midi": 65,
      "hit": false,
      "t": 174922.52300000054,
      "d": 1611.5333583333413,
      "v": 87
    },
    {
      "midi": 70,
      "hit": false,
      "t": 175153.29150000055,
      "d": 1388.4571416666731,
      "v": 87
    },
    {
      "midi": 46,
      "hit": false,
      "t": 176537.90250000055,
      "d": 253.8453500000178,
      "v": 66
    },
    {
      "midi": 70,
      "hit": false,
      "t": 176768.67100000056,
      "d": 246.1530666666804,
      "v": 72
    },
    {
      "midi": 65,
      "hit": false,
      "t": 176768.67100000056,
      "d": 257.6914916666865,
      "v": 87
    },
    {
      "midi": 62,
      "hit": false,
      "t": 176768.67100000056,
      "d": 261.5376333333552,
      "v": 85
    },
    {
      "midi": 58,
      "hit": false,
      "t": 176768.67100000056,
      "d": 265.3837750000239,
      "v": 72
    },
    {
      "midi": 58,
      "hit": false,
      "t": 177230.20800000057,
      "d": 1188.457774999988,
      "v": 89
    },
    {
      "midi": 60,
      "hit": false,
      "t": 177230.20800000057,
      "d": 1188.457774999988,
      "v": 89
    },
    {
      "midi": 64,
      "hit": false,
      "t": 177230.20800000057,
      "d": 1188.457774999988,
      "v": 89
    },
    {
      "midi": 67,
      "hit": false,
      "t": 177230.20800000057,
      "d": 1188.457774999988,
      "v": 89
    },
    {
      "midi": 48,
      "hit": false,
      "t": 178384.05050000057,
      "d": 207.6916499999934,
      "v": 70
    },
    {
      "midi": 58,
      "hit": false,
      "t": 178614.81900000057,
      "d": 211.5377916666621,
      "v": 105
    },
    {
      "midi": 60,
      "hit": false,
      "t": 178614.81900000057,
      "d": 211.5377916666621,
      "v": 105
    },
    {
      "midi": 64,
      "hit": false,
      "t": 178614.81900000057,
      "d": 211.5377916666621,
      "v": 105
    },
    {
      "midi": 67,
      "hit": false,
      "t": 178614.81900000057,
      "d": 211.5377916666621,
      "v": 105
    },
    {
      "midi": 58,
      "hit": false,
      "t": 179076.35600000055,
      "d": 1711.5330416666693,
      "v": 89
    },
    {
      "midi": 60,
      "hit": false,
      "t": 179076.35600000055,
      "d": 1711.5330416666693,
      "v": 89
    },
    {
      "midi": 64,
      "hit": false,
      "t": 179076.35600000055,
      "d": 1711.5330416666693,
      "v": 89
    },
    {
      "midi": 67,
      "hit": false,
      "t": 179076.35600000055,
      "d": 1711.5330416666693,
      "v": 89
    },
    {
      "midi": 57,
      "hit": false,
      "t": 180964.8115583339,
      "d": 2757.6835750000027,
      "v": 85
    },
    {
      "midi": 60,
      "hit": false,
      "t": 180964.8115583339,
      "d": 2757.6835750000027,
      "v": 85
    },
    {
      "midi": 65,
      "hit": false,
      "t": 180964.8115583339,
      "d": 2757.6835750000027,
      "v": 85
    }
  ]
}