{
  "jsonPath": "Rock/Rock En Espanol/Alejandro Sanz/amiga-mia-uplugged.json",
  "path": "Rock\\Rock En Espanol\\Alejandro Sanz\\Amiga mía (uplugged).mid",
  "name": "Amiga mía (uplugged)",
  "difficulty": "Advanced",
  "bpm": 69.00009660013524,
  "notes": [
    {
      "midi": 76,
      "hit": false,
      "t": 33867.70620833334,
      "d": 778.9844166666735,
      "v": 97
    },
    {
      "midi": 73,
      "hit": false,
      "t": 34556.11104166667,
      "d": 1947.4610416666765,
      "v": 91
    },
    {
      "midi": 69,
      "hit": false,
      "t": 34628.57470833334,
      "d": 1920.287166666676,
      "v": 106
    },
    {
      "midi": 66,
      "hit": false,
      "t": 34701.03837500001,
      "d": 1865.9394166666752,
      "v": 99
    },
    {
      "midi": 69,
      "hit": false,
      "t": 40498.131708333356,
      "d": 2518.1124166666705,
      "v": 106
    },
    {
      "midi": 64,
      "hit": false,
      "t": 41548.85487500002,
      "d": 1702.8961666666728,
      "v": 86
    },
    {
      "midi": 61,
      "hit": false,
      "t": 41621.31854166669,
      "d": 1594.2006666666712,
      "v": 127
    },
    {
      "midi": 59,
      "hit": false,
      "t": 41730.01404166669,
      "d": 1376.809666666668,
      "v": 106
    },
    {
      "midi": 58,
      "hit": false,
      "t": 43287.98287500002,
      "d": 2101.4463333333333,
      "v": 68
    },
    {
      "midi": 61,
      "hit": false,
      "t": 43469.14204166669,
      "d": 1920.2871666666688,
      "v": 91
    },
    {
      "midi": 64,
      "hit": false,
      "t": 43469.14204166669,
      "d": 1956.5190000000002,
      "v": 101
    },
    {
      "midi": 74,
      "hit": false,
      "t": 91766.17587500002,
      "d": 471.01383333334525,
      "v": 106
    },
    {
      "midi": 73,
      "hit": false,
      "t": 92200.95787500002,
      "d": 652.1730000000098,
      "v": 117
    },
    {
      "midi": 69,
      "hit": false,
      "t": 92853.13087500003,
      "d": 670.2889166666573,
      "v": 112
    },
    {
      "midi": 66,
      "hit": false,
      "t": 93505.30387500003,
      "d": 543.4774999999936,
      "v": 112
    },
    {
      "midi": 69,
      "hit": false,
      "t": 93940.08587500002,
      "d": 2789.8511666666745,
      "v": 106
    },
    {
      "midi": 71,
      "hit": false,
      "t": 109592.23787500002,
      "d": 869.5639999999985,
      "v": 112
    },
    {
      "midi": 69,
      "hit": false,
      "t": 110461.80187500002,
      "d": 896.7378749999916,
      "v": 112
    },
    {
      "midi": 67,
      "hit": false,
      "t": 111331.36587500002,
      "d": 1594.2006666666566,
      "v": 114
    },
    {
      "midi": 74,
      "hit": false,
      "t": 113070.49387500001,
      "d": 652.1729999999952,
      "v": 103
    },
    {
      "midi": 73,
      "hit": false,
      "t": 113722.66687500001,
      "d": 326.0865000000049,
      "v": 112
    },
    {
      "midi": 76,
      "hit": false,
      "t": 114157.44887500002,
      "d": 326.0865000000049,
      "v": 127
    },
    {
      "midi": 69,
      "hit": false,
      "t": 114809.62187500003,
      "d": 1304.346000000005,
      "v": 106
    },
    {
      "midi": 76,
      "hit": false,
      "t": 133070.46587500002,
      "d": 851.4480833333218,
      "v": 126
    },
    {
      "midi": 74,
      "hit": false,
      "t": 133940.029875,
      "d": 851.4480833333218,
      "v": 126
    },
    {
      "midi": 73,
      "hit": false,
      "t": 134809.593875,
      "d": 842.3901250000054,
      "v": 126
    },
    {
      "midi": 76,
      "hit": false,
      "t": 145244.361875,
      "d": 842.3901250000054,
      "v": 126
    },
    {
      "midi": 74,
      "hit": false,
      "t": 146113.92587500002,
      "d": 851.4480833333218,
      "v": 126
    },
    {
      "midi": 73,
      "hit": false,
      "t": 146983.489875,
      "d": 851.4480833333218,
      "v": 126
    },
    {
      "midi": 76,
      "hit": false,
      "t": 163179.11937499998,
      "d": 1485.5051666666986,
      "v": 72
    },
    {
      "midi": 73,
      "hit": false,
      "t": 163287.81487499998,
      "d": 1367.7517083333514,
      "v": 81
    },
    {
      "midi": 70,
      "hit": false,
      "t": 163396.51037499998,
      "d": 833.3321666666889,
      "v": 36
    },
    {
      "midi": 69,
      "hit": false,
      "t": 163396.51037499998,
      "d": 1231.882333333342,
      "v": 98
    },
    {
      "midi": 66,
      "hit": false,
      "t": 163468.97404166666,
      "d": 1159.4186666666646,
      "v": 106
    },
    {
      "midi": 76,
      "hit": false,
      "t": 197345.73820833335,
      "d": 778.9844166666735,
      "v": 97
    },
    {
      "midi": 73,
      "hit": false,
      "t": 198034.14304166668,
      "d": 1938.4030833333381,
      "v": 91
    },
    {
      "midi": 69,
      "hit": false,
      "t": 198106.60670833336,
      "d": 1929.3451249999925,
      "v": 106
    },
    {
      "midi": 66,
      "hit": false,
      "t": 198179.070375,
      "d": 1856.8814583333442,
      "v": 99
    },
    {
      "midi": 74,
      "hit": false,
      "t": 216983.39187500003,
      "d": 471.0138333333307,
      "v": 106
    },
    {
      "midi": 73,
      "hit": false,
      "t": 217418.17387500004,
      "d": 652.1729999999807,
      "v": 117
    },
    {
      "midi": 69,
      "hit": false,
      "t": 218070.34687500002,
      "d": 670.2889166666719,
      "v": 112
    },
    {
      "midi": 66,
      "hit": false,
      "t": 218722.51987500003,
      "d": 543.4775000000081,
      "v": 112
    },
    {
      "midi": 69,
      "hit": false,
      "t": 219157.30187500003,
      "d": 2789.85116666666,
      "v": 106
    },
    {
      "midi": 76,
      "hit": false,
      "t": 230461.63387500003,
      "d": 842.3901250000054,
      "v": 126
    },
    {
      "midi": 74,
      "hit": false,
      "t": 231331.19787500004,
      "d": 860.5060416666674,
      "v": 126
    },
    {
      "midi": 73,
      "hit": false,
      "t": 232200.76187500005,
      "d": 842.3901250000054,
      "v": 126
    },
    {
      "midi": 76,
      "hit": false,
      "t": 242635.52987500007,
      "d": 842.3901250000054,
      "v": 126
    },
    {
      "midi": 74,
      "hit": false,
      "t": 243505.09387500008,
      "d": 851.4480833333218,
      "v": 126
    },
    {
      "midi": 73,
      "hit": false,
      "t": 244374.65787500006,
      "d": 851.4480833333218,
      "v": 126
    },
    {
      "midi": 76,
      "hit": false,
      "t": 265244.19387500006,
      "d": 851.4480833333218,
      "v": 96
    },
    {
      "midi": 74,
      "hit": false,
      "t": 266113.75787500007,
      "d": 851.4480833333218,
      "v": 96
    },
    {
      "midi": 73,
      "hit": false,
      "t": 266983.3218750001,
      "d": 842.3901249999763,
      "v": 96
    },
    {
      "midi": 76,
      "hit": false,
      "t": 277418.08987500006,
      "d": 842.3901249999763,
      "v": 126
    },
    {
      "midi": 74,
      "hit": false,
      "t": 278287.653875,
      "d": 851.4480833333218,
      "v": 126
    },
    {
      "midi": 73,
      "hit": false,
      "t": 279157.21787500003,
      "d": 851.4480833333218,
      "v": 126
    },
    {
      "midi": 76,
      "hit": false,
      "t": 295352.847375,
      "d": 1485.5051666665822,
      "v": 72
    },
    {
      "midi": 73,
      "hit": false,
      "t": 295461.542875,
      "d": 434.7819999999483,
      "v": 81
    },
    {
      "midi": 70,
      "hit": false,
      "t": 295570.23837499996,
      "d": 833.3321666666307,
      "v": 36
    },
    {
      "midi": 66,
      "hit": false,
      "t": 295642.7020416666,
      "d": 434.7820000000065,
      "v": 106
    },
    {
      "midi": 66,
      "hit": false,
      "t": 296548.49787499994,
      "d": 253.62283333332743,
      "v": 93
    },
    {
      "midi": 69,
      "hit": false,
      "t": 296548.49787499994,
      "d": 253.62283333332743,
      "v": 101
    },
    {
      "midi": 73,
      "hit": false,
      "t": 296548.49787499994,
      "d": 280.796708333306,
      "v": 101
    },
    {
      "midi": 38,
      "hit": false,
      "t": 296548.49787499994,
      "d": 434.7820000000065,
      "v": 105
    },
    {
      "midi": 64,
      "hit": false,
      "t": 296548.49787499994,
      "d": 434.7820000000065,
      "v": 93
    }
  ]
}