{
  "jsonPath": "Unknown/Unknown/Thiago Derucio/non-ci-sei.json",
  "path": "Unknown\\Unknown\\Thiago Derucio\\Non Ci Sei.mid",
  "name": "Non Ci Sei",
  "difficulty": "Advanced",
  "bpm": 75,
  "notes": [
    {
      "midi": 63,
      "hit": false,
      "t": 35200,
      "d": 980,
      "v": 110
    },
    {
      "midi": 68,
      "hit": false,
      "t": 35200,
      "d": 1013.3333333333358,
      "v": 110
    },
    {
      "midi": 72,
      "hit": false,
      "t": 35200,
      "d": 1013.3333333333358,
      "v": 110
    },
    {
      "midi": 56,
      "hit": false,
      "t": 35200,
      "d": 1093.3333333333358,
      "v": 110
    },
    {
      "midi": 63,
      "hit": false,
      "t": 36400,
      "d": 893.3333333333358,
      "v": 110
    },
    {
      "midi": 68,
      "hit": false,
      "t": 36400,
      "d": 1006.6666666666715,
      "v": 110
    },
    {
      "midi": 56,
      "hit": false,
      "t": 36400,
      "d": 1060.0000000000073,
      "v": 110
    },
    {
      "midi": 72,
      "hit": false,
      "t": 36400,
      "d": 1066.6666666666715,
      "v": 110
    },
    {
      "midi": 65,
      "hit": false,
      "t": 37600.00000000001,
      "d": 426.66666666666424,
      "v": 110
    },
    {
      "midi": 73,
      "hit": false,
      "t": 37600.00000000001,
      "d": 586.6666666666642,
      "v": 110
    },
    {
      "midi": 56,
      "hit": false,
      "t": 37600.00000000001,
      "d": 593.3333333333285,
      "v": 110
    },
    {
      "midi": 68,
      "hit": false,
      "t": 37600.00000000001,
      "d": 593.3333333333285,
      "v": 110
    },
    {
      "midi": 63,
      "hit": false,
      "t": 38400,
      "d": 1006.6666666666642,
      "v": 110
    },
    {
      "midi": 72,
      "hit": false,
      "t": 38400,
      "d": 1060,
      "v": 110
    },
    {
      "midi": 68,
      "hit": false,
      "t": 38400,
      "d": 1066.6666666666642,
      "v": 110
    },
    {
      "midi": 56,
      "hit": false,
      "t": 38400,
      "d": 1113.3333333333285,
      "v": 110
    },
    {
      "midi": 68,
      "hit": false,
      "t": 39599.99999999999,
      "d": 933.3333333333358,
      "v": 110
    },
    {
      "midi": 63,
      "hit": false,
      "t": 39599.99999999999,
      "d": 1640,
      "v": 110
    },
    {
      "midi": 72,
      "hit": false,
      "t": 39599.99999999999,
      "d": 1913.3333333333358,
      "v": 110
    },
    {
      "midi": 56,
      "hit": false,
      "t": 39999.99999999999,
      "d": 693.3333333333358,
      "v": 110
    },
    {
      "midi": 67,
      "hit": false,
      "t": 40799.99999999999,
      "d": 473.33333333333576,
      "v": 110
    },
    {
      "midi": 55,
      "hit": false,
      "t": 40799.99999999999,
      "d": 660,
      "v": 110
    },
    {
      "midi": 65,
      "hit": false,
      "t": 41599.99999999999,
      "d": 900,
      "v": 110
    },
    {
      "midi": 53,
      "hit": false,
      "t": 41599.99999999999,
      "d": 926.6666666666642,
      "v": 110
    },
    {
      "midi": 72,
      "hit": false,
      "t": 41599.99999999999,
      "d": 946.6666666666642,
      "v": 110
    },
    {
      "midi": 68,
      "hit": false,
      "t": 41599.99999999999,
      "d": 960,
      "v": 110
    },
    {
      "midi": 53,
      "hit": false,
      "t": 42799.99999999999,
      "d": 1000,
      "v": 110
    },
    {
      "midi": 68,
      "hit": false,
      "t": 42799.99999999999,
      "d": 1000,
      "v": 110
    },
    {
      "midi": 72,
      "hit": false,
      "t": 42799.99999999999,
      "d": 1000,
      "v": 110
    },
    {
      "midi": 65,
      "hit": false,
      "t": 42799.99999999999,
      "d": 1106.6666666666642,
      "v": 110
    },
    {
      "midi": 73,
      "hit": false,
      "t": 43999.99999999999,
      "d": 673.3333333333358,
      "v": 110
    },
    {
      "midi": 65,
      "hit": false,
      "t": 43999.99999999999,
      "d": 680,
      "v": 110
    },
    {
      "midi": 53,
      "hit": false,
      "t": 43999.99999999999,
      "d": 706.6666666666642,
      "v": 110
    },
    {
      "midi": 68,
      "hit": false,
      "t": 43999.99999999999,
      "d": 706.6666666666642,
      "v": 110
    },
    {
      "midi": 65,
      "hit": false,
      "t": 44799.99999999999,
      "d": 1206.6666666666642,
      "v": 110
    },
    {
      "midi": 53,
      "hit": false,
      "t": 44799.99999999999,
      "d": 1333.3333333333285,
      "v": 110
    },
    {
      "midi": 72,
      "hit": false,
      "t": 44799.99999999999,
      "d": 1553.3333333333285,
      "v": 110
    },
    {
      "midi": 68,
      "hit": false,
      "t": 44799.99999999999,
      "d": 1559.9999999999927,
      "v": 110
    },
    {
      "midi": 65,
      "hit": false,
      "t": 46399.999999999985,
      "d": 453.33333333333576,
      "v": 110
    },
    {
      "midi": 68,
      "hit": false,
      "t": 46399.999999999985,
      "d": 460,
      "v": 110
    },
    {
      "midi": 72,
      "hit": false,
      "t": 46399.999999999985,
      "d": 620,
      "v": 110
    },
    {
      "midi": 53,
      "hit": false,
      "t": 46399.999999999985,
      "d": 733.3333333333358,
      "v": 110
    },
    {
      "midi": 72,
      "hit": false,
      "t": 47199.999999999985,
      "d": 386.66666666666424,
      "v": 110
    },
    {
      "midi": 67,
      "hit": false,
      "t": 47199.999999999985,
      "d": 393.3333333333285,
      "v": 110
    },
    {
      "midi": 63,
      "hit": false,
      "t": 47199.999999999985,
      "d": 399.9999999999927,
      "v": 110
    },
    {
      "midi": 51,
      "hit": false,
      "t": 47199.999999999985,
      "d": 486.66666666665697,
      "v": 110
    },
    {
      "midi": 49,
      "hit": false,
      "t": 47999.99999999998,
      "d": 1186.6666666666642,
      "v": 110
    },
    {
      "midi": 61,
      "hit": false,
      "t": 47999.99999999998,
      "d": 1506.6666666666642,
      "v": 110
    },
    {
      "midi": 65,
      "hit": false,
      "t": 47999.99999999998,
      "d": 1586.6666666666642,
      "v": 110
    },
    {
      "midi": 68,
      "hit": false,
      "t": 47999.99999999998,
      "d": 1586.6666666666642,
      "v": 110
    },
    {
      "midi": 61,
      "hit": false,
      "t": 49599.99999999998,
      "d": 1166.6666666666642,
      "v": 110
    },
    {
      "midi": 65,
      "hit": false,
      "t": 49599.99999999998,
      "d": 1193.3333333333285,
      "v": 110
    },
    {
      "midi": 68,
      "hit": false,
      "t": 49599.99999999998,
      "d": 1193.3333333333285,
      "v": 110
    },
    {
      "midi": 49,
      "hit": false,
      "t": 49599.99999999998,
      "d": 1266.6666666666642,
      "v": 110
    },
    {
      "midi": 63,
      "hit": false,
      "t": 51199.99999999998,
      "d": 846.6666666666642,
      "v": 110
    },
    {
      "midi": 67,
      "hit": false,
      "t": 51199.99999999998,
      "d": 873.3333333333285,
      "v": 110
    },
    {
      "midi": 51,
      "hit": false,
      "t": 51199.99999999998,
      "d": 913.3333333333285,
      "v": 110
    },
    {
      "midi": 70,
      "hit": false,
      "t": 51199.99999999998,
      "d": 959.9999999999927,
      "v": 110
    },
    {
      "midi": 63,
      "hit": false,
      "t": 52399.99999999997,
      "d": 1286.6666666666642,
      "v": 110
    },
    {
      "midi": 67,
      "hit": false,
      "t": 52799.99999999997,
      "d": 646.6666666666642,
      "v": 110
    },
    {
      "midi": 70,
      "hit": false,
      "t": 52799.99999999997,
      "d": 1273.3333333333358,
      "v": 110
    },
    {
      "midi": 51,
      "hit": false,
      "t": 52799.99999999997,
      "d": 1540,
      "v": 110
    },
    {
      "midi": 67,
      "hit": false,
      "t": 53599.99999999997,
      "d": 433.33333333333576,
      "v": 110
    },
    {
      "midi": 63,
      "hit": false,
      "t": 53999.99999999997,
      "d": 1486.6666666666715,
      "v": 110
    },
    {
      "midi": 56,
      "hit": false,
      "t": 54399.99999999997,
      "d": 673.3333333333358,
      "v": 110
    },
    {
      "midi": 72,
      "hit": false,
      "t": 54399.99999999997,
      "d": 1053.3333333333358,
      "v": 110
    },
    {
      "midi": 68,
      "hit": false,
      "t": 54399.99999999997,
      "d": 1066.6666666666715,
      "v": 110
    },
    {
      "midi": 56,
      "hit": false,
      "t": 55199.99999999997,
      "d": 1393.333333333343,
      "v": 110
    },
    {
      "midi": 68,
      "hit": false,
      "t": 55599.99999999998,
      "d": 820,
      "v": 110
    },
    {
      "midi": 63,
      "hit": false,
      "t": 55599.99999999998,
      "d": 853.3333333333358,
      "v": 110
    },
    {
      "midi": 72,
      "hit": false,
      "t": 55599.99999999998,
      "d": 1026.6666666666715,
      "v": 110
    },
    {
      "midi": 68,
      "hit": false,
      "t": 56799.999999999985,
      "d": 533.3333333333358,
      "v": 110
    },
    {
      "midi": 73,
      "hit": false,
      "t": 56799.999999999985,
      "d": 593.3333333333358,
      "v": 110
    },
    {
      "midi": 65,
      "hit": false,
      "t": 56799.999999999985,
      "d": 600,
      "v": 110
    },
    {
      "midi": 56,
      "hit": false,
      "t": 56799.999999999985,
      "d": 660,
      "v": 110
    },
    {
      "midi": 56,
      "hit": false,
      "t": 57599.999999999985,
      "d": 2800,
      "v": 110
    },
    {
      "midi": 63,
      "hit": false,
      "t": 57599.999999999985,
      "d": 2800,
      "v": 110
    },
    {
      "midi": 68,
      "hit": false,
      "t": 57599.999999999985,
      "d": 2800,
      "v": 110
    },
    {
      "midi": 72,
      "hit": false,
      "t": 57599.999999999985,
      "d": 2866.6666666666642,
      "v": 110
    },
    {
      "midi": 65,
      "hit": false,
      "t": 62399.999999999985,
      "d": 1066.6666666666642,
      "v": 110
    },
    {
      "midi": 58,
      "hit": false,
      "t": 62399.999999999985,
      "d": 1080,
      "v": 110
    },
    {
      "midi": 68,
      "hit": false,
      "t": 62399.999999999985,
      "d": 1080,
      "v": 110
    },
    {
      "midi": 73,
      "hit": false,
      "t": 62399.999999999985,
      "d": 1086.6666666666642,
      "v": 110
    },
    {
      "midi": 58,
      "hit": false,
      "t": 63599.999999999985,
      "d": 246.66666666666424,
      "v": 110
    },
    {
      "midi": 65,
      "hit": false,
      "t": 63599.999999999985,
      "d": 253.33333333332848,
      "v": 110
    },
    {
      "midi": 68,
      "hit": false,
      "t": 63599.999999999985,
      "d": 259.9999999999927,
      "v": 110
    },
    {
      "midi": 73,
      "hit": false,
      "t": 63599.999999999985,
      "d": 259.9999999999927,
      "v": 110
    },
    {
      "midi": 68,
      "hit": false,
      "t": 63999.99999999998,
      "d": 2093.3333333333358,
      "v": 110
    },
    {
      "midi": 63,
      "hit": false,
      "t": 63999.99999999998,
      "d": 2113.3333333333358,
      "v": 110
    },
    {
      "midi": 72,
      "hit": false,
      "t": 63999.99999999998,
      "d": 2140.0000000000073,
      "v": 110
    },
    {
      "midi": 56,
      "hit": false,
      "t": 63999.99999999998,
      "d": 2153.3333333333358,
      "v": 110
    },
    {
      "midi": 63,
      "hit": false,
      "t": 66399.99999999999,
      "d": 573.3333333333285,
      "v": 110
    },
    {
      "midi": 67,
      "hit": false,
      "t": 66399.99999999999,
      "d": 593.3333333333285,
      "v": 110
    },
    {
      "midi": 72,
      "hit": false,
      "t": 66399.99999999999,
      "d": 646.666666666657,
      "v": 110
    },
    {
      "midi": 55,
      "hit": false,
      "t": 66399.99999999999,
      "d": 666.666666666657,
      "v": 110
    },
    {
      "midi": 65,
      "hit": false,
      "t": 67199.99999999997,
      "d": 1106.6666666666715,
      "v": 110
    },
    {
      "midi": 68,
      "hit": false,
      "t": 67199.99999999997,
      "d": 1126.6666666666715,
      "v": 110
    },
    {
      "midi": 72,
      "hit": false,
      "t": 67199.99999999997,
      "d": 1160,
      "v": 110
    },
    {
      "midi": 53,
      "hit": false,
      "t": 67199.99999999997,
      "d": 1526.6666666666715,
      "v": 110
    },
    {
      "midi": 65,
      "hit": false,
      "t": 68399.99999999997,
      "d": 220,
      "v": 110
    },
    {
      "midi": 72,
      "hit": false,
      "t": 68399.99999999997,
      "d": 253.33333333332848,
      "v": 110
    },
    {
      "midi": 68,
      "hit": false,
      "t": 68399.99999999997,
      "d": 260,
      "v": 110
    },
    {
      "midi": 65,
      "hit": false,
      "t": 68799.99999999997,
      "d": 1093.3333333333285,
      "v": 110
    },
    {
      "midi": 53,
      "hit": false,
      "t": 68799.99999999997,
      "d": 1100,
      "v": 110
    },
    {
      "midi": 68,
      "hit": false,
      "t": 68799.99999999997,
      "d": 1100,
      "v": 110
    },
    {
      "midi": 73,
      "hit": false,
      "t": 68799.99999999997,
      "d": 1120,
      "v": 110
    },
    {
      "midi": 68,
      "hit": false,
      "t": 69999.99999999997,
      "d": 140,
      "v": 110
    },
    {
      "midi": 65,
      "hit": false,
      "t": 69999.99999999997,
      "d": 146.66666666667152,
      "v": 110
    },
    {
      "midi": 73,
      "hit": false,
      "t": 69999.99999999997,
      "d": 173.33333333334303,
      "v": 110
    },
    {
      "midi": 53,
      "hit": false,
      "t": 69999.99999999997,
      "d": 233.33333333334303,
      "v": 110
    },
    {
      "midi": 65,
      "hit": false,
      "t": 70399.99999999999,
      "d": 1380,
      "v": 110
    },
    {
      "midi": 53,
      "hit": false,
      "t": 70399.99999999999,
      "d": 1393.3333333333285,
      "v": 110
    },
    {
      "midi": 68,
      "hit": false,
      "t": 70399.99999999999,
      "d": 1400,
      "v": 110
    },
    {
      "midi": 72,
      "hit": false,
      "t": 70399.99999999999,
      "d": 1420,
      "v": 110
    },
    {
      "midi": 65,
      "hit": false,
      "t": 71999.99999999999,
      "d": 566.6666666666715,
      "v": 110
    },
    {
      "midi": 68,
      "hit": false,
      "t": 71999.99999999999,
      "d": 573.333333333343,
      "v": 110
    },
    {
      "midi": 72,
      "hit": false,
      "t": 71999.99999999999,
      "d": 646.6666666666715,
      "v": 110
    },
    {
      "midi": 53,
      "hit": false,
      "t": 71999.99999999999,
      "d": 666.6666666666715,
      "v": 110
    },
    {
      "midi": 72,
      "hit": false,
      "t": 72799.99999999999,
      "d": 500,
      "v": 110
    },
    {
      "midi": 67,
      "hit": false,
      "t": 72799.99999999999,
      "d": 513.3333333333285,
      "v": 110
    },
    {
      "midi": 63,
      "hit": false,
      "t": 72799.99999999999,
      "d": 520,
      "v": 110
    },
    {
      "midi": 51,
      "hit": false,
      "t": 72799.99999999999,
      "d": 566.6666666666715,
      "v": 110
    },
    {
      "midi": 61,
      "hit": false,
      "t": 73599.99999999999,
      "d": 1100,
      "v": 110
    },
    {
      "midi": 65,
      "hit": false,
      "t": 73599.99999999999,
      "d": 1126.6666666666715,
      "v": 110
    },
    {
      "midi": 49,
      "hit": false,
      "t": 73599.99999999999,
      "d": 1133.333333333343,
      "v": 110
    },
    {
      "midi": 68,
      "hit": false,
      "t": 73599.99999999999,
      "d": 1153.333333333343,
      "v": 110
    },
    {
      "midi": 61,
      "hit": false,
      "t": 74800,
      "d": 233.33333333332848,
      "v": 110
    },
    {
      "midi": 65,
      "hit": false,
      "t": 74800,
      "d": 240,
      "v": 110
    },
    {
      "midi": 68,
      "hit": false,
      "t": 74800,
      "d": 273.3333333333285,
      "v": 110
    },
    {
      "midi": 49,
      "hit": false,
      "t": 74800,
      "d": 313.3333333333285,
      "v": 110
    },
    {
      "midi": 65,
      "hit": false,
      "t": 75200,
      "d": 1046.6666666666715,
      "v": 110
    },
    {
      "midi": 61,
      "hit": false,
      "t": 75200,
      "d": 1053.333333333343,
      "v": 110
    },
    {
      "midi": 49,
      "hit": false,
      "t": 75200,
      "d": 1060.0000000000146,
      "v": 110
    },
    {
      "midi": 70,
      "hit": false,
      "t": 75200,
      "d": 1066.666666666686,
      "v": 110
    },
    {
      "midi": 65,
      "hit": false,
      "t": 76400.00000000001,
      "d": 186.66666666667152,
      "v": 110
    },
    {
      "midi": 61,
      "hit": false,
      "t": 76400.00000000001,
      "d": 200,
      "v": 110
    },
    {
      "midi": 70,
      "hit": false,
      "t": 76400.00000000001,
      "d": 220,
      "v": 110
    },
    {
      "midi": 49,
      "hit": false,
      "t": 76400.00000000001,
      "d": 260,
      "v": 110
    },
    {
      "midi": 61,
      "hit": false,
      "t": 76800.00000000001,
      "d": 1053.3333333333285,
      "v": 110
    },
    {
      "midi": 65,
      "hit": false,
      "t": 76800.00000000001,
      "d": 1193.3333333333285,
      "v": 110
    },
    {
      "midi": 68,
      "hit": false,
      "t": 76800.00000000001,
      "d": 1193.3333333333285,
      "v": 110
    },
    {
      "midi": 49,
      "hit": false,
      "t": 76800.00000000001,
      "d": 1493.3333333333285,
      "v": 110
    },
    {
      "midi": 61,
      "hit": false,
      "t": 78000.00000000001,
      "d": 320,
      "v": 110
    },
    {
      "midi": 61,
      "hit": false,
      "t": 78400.00000000001,
      "d": 653.3333333333285,
      "v": 110
    },
    {
      "midi": 65,
      "hit": false,
      "t": 78400.00000000001,
      "d": 686.666666666657,
      "v": 110
    },
    {
      "midi": 68,
      "hit": false,
      "t": 78400.00000000001,
      "d": 719.9999999999854,
      "v": 110
    },
    {
      "midi": 49,
      "hit": false,
      "t": 78400.00000000001,
      "d": 733.3333333333139,
      "v": 110
    },
    {
      "midi": 61,
      "hit": false,
      "t": 79200,
      "d": 593.3333333333285,
      "v": 110
    },
    {
      "midi": 65,
      "hit": false,
      "t": 79200,
      "d": 606.666666666657,
      "v": 110
    },
    {
      "midi": 68,
      "hit": false,
      "t": 79200,
      "d": 626.666666666657,
      "v": 110
    },
    {
      "midi": 49,
      "hit": false,
      "t": 79200,
      "d": 673.3333333333285,
      "v": 110
    },
    {
      "midi": 63,
      "hit": false,
      "t": 80000,
      "d": 1046.6666666666715,
      "v": 110
    },
    {
      "midi": 67,
      "hit": false,
      "t": 80000,
      "d": 1053.333333333343,
      "v": 110
    },
    {
      "midi": 70,
      "hit": false,
      "t": 80000,
      "d": 1073.333333333343,
      "v": 110
    },
    {
      "midi": 51,
      "hit": false,
      "t": 80000,
      "d": 1126.6666666666715,
      "v": 110
    },
    {
      "midi": 63,
      "hit": false,
      "t": 81200,
      "d": 173.33333333332848,
      "v": 110
    },
    {
      "midi": 67,
      "hit": false,
      "t": 81200,
      "d": 173.33333333332848,
      "v": 110
    },
    {
      "midi": 51,
      "hit": false,
      "t": 81200,
      "d": 206.66666666665697,
      "v": 110
    },
    {
      "midi": 70,
      "hit": false,
      "t": 81200,
      "d": 213.33333333332848,
      "v": 110
    },
    {
      "midi": 68,
      "hit": false,
      "t": 81600,
      "d": 966.6666666666715,
      "v": 110
    },
    {
      "midi": 65,
      "hit": false,
      "t": 81600,
      "d": 973.333333333343,
      "v": 110
    },
    {
      "midi": 72,
      "hit": false,
      "t": 81600,
      "d": 973.333333333343,
      "v": 110
    },
    {
      "midi": 51,
      "hit": false,
      "t": 81600,
      "d": 1033.333333333343,
      "v": 110
    },
    {
      "midi": 68,
      "hit": false,
      "t": 82800.00000000001,
      "d": 120,
      "v": 110
    },
    {
      "midi": 61,
      "hit": false,
      "t": 82800.00000000001,
      "d": 126.66666666667152,
      "v": 110
    },
    {
      "midi": 65,
      "hit": false,
      "t": 82800.00000000001,
      "d": 140,
      "v": 110
    },
    {
      "midi": 51,
      "hit": false,
      "t": 82800.00000000001,
      "d": 166.66666666667152,
      "v": 110
    },
    {
      "midi": 70,
      "hit": false,
      "t": 83200.00000000001,
      "d": 166.66666666667152,
      "v": 110
    },
    {
      "midi": 63,
      "hit": false,
      "t": 83200.00000000001,
      "d": 173.33333333334303,
      "v": 110
    },
    {
      "midi": 67,
      "hit": false,
      "t": 83200.00000000001,
      "d": 180.00000000001455,
      "v": 110
    },
    {
      "midi": 51,
      "hit": false,
      "t": 83200.00000000001,
      "d": 186.66666666668607,
      "v": 110
    },
    {
      "midi": 63,
      "hit": false,
      "t": 86400.00000000003,
      "d": 1026.6666666666715,
      "v": 110
    },
    {
      "midi": 56,
      "hit": false,
      "t": 86400.00000000003,
      "d": 1046.6666666666715,
      "v": 110
    },
    {
      "midi": 72,
      "hit": false,
      "t": 86400.00000000003,
      "d": 1060,
      "v": 110
    },
    {
      "midi": 68,
      "hit": false,
      "t": 86400.00000000003,
      "d": 1066.6666666666715,
      "v": 110
    },
    {
      "midi": 63,
      "hit": false,
      "t": 87600.00000000003,
      "d": 186.66666666667152,
      "v": 110
    },
    {
      "midi": 72,
      "hit": false,
      "t": 87600.00000000003,
      "d": 200,
      "v": 110
    },
    {
      "midi": 56,
      "hit": false,
      "t": 87600.00000000003,
      "d": 213.33333333332848,
      "v": 110
    },
    {
      "midi": 68,
      "hit": false,
      "t": 87600.00000000003,
      "d": 253.33333333332848,
      "v": 110
    },
    {
      "midi": 56,
      "hit": false,
      "t": 88000.00000000003,
      "d": 1080,
      "v": 110
    },
    {
      "midi": 65,
      "hit": false,
      "t": 88000.00000000003,
      "d": 1093.3333333333285,
      "v": 110
    },
    {
      "midi": 73,
      "hit": false,
      "t": 88000.00000000003,
      "d": 1100,
      "v": 110
    },
    {
      "midi": 68,
      "hit": false,
      "t": 88000.00000000003,
      "d": 1140,
      "v": 110
    },
    {
      "midi": 65,
      "hit": false,
      "t": 89200.00000000003,
      "d": 180,
      "v": 110
    },
    {
      "midi": 56,
      "hit": false,
      "t": 89200.00000000003,
      "d": 193.33333333332848,
      "v": 110
    },
    {
      "midi": 73,
      "hit": false,
      "t": 89200.00000000003,
      "d": 193.33333333332848,
      "v": 110
    },
    {
      "midi": 68,
      "hit": false,
      "t": 89200.00000000003,
      "d": 213.33333333332848,
      "v": 110
    },
    {
      "midi": 63,
      "hit": false,
      "t": 89600.00000000003,
      "d": 1026.6666666666715,
      "v": 110
    },
    {
      "midi": 72,
      "hit": false,
      "t": 89600.00000000003,
      "d": 1173.333333333343,
      "v": 110
    },
    {
      "midi": 68,
      "hit": false,
      "t": 89600.00000000003,
      "d": 1206.666666666686,
      "v": 110
    },
    {
      "midi": 56,
      "hit": false,
      "t": 89600.00000000003,
      "d": 1460.0000000000146,
      "v": 110
    },
    {
      "midi": 63,
      "hit": false,
      "t": 90800.00000000004,
      "d": 346.6666666666715,
      "v": 110
    },
    {
      "midi": 68,
      "hit": false,
      "t": 91200.00000000004,
      "d": 653.3333333333285,
      "v": 110
    },
    {
      "midi": 63,
      "hit": false,
      "t": 91200.00000000004,
      "d": 680,
      "v": 110
    },
    {
      "midi": 72,
      "hit": false,
      "t": 91200.00000000004,
      "d": 733.3333333333285,
      "v": 110
    },
    {
      "midi": 56,
      "hit": false,
      "t": 91200.00000000004,
      "d": 766.666666666657,
      "v": 110
    },
    {
      "midi": 63,
      "hit": false,
      "t": 92000.00000000003,
      "d": 626.6666666666715,
      "v": 110
    },
    {
      "midi": 55,
      "hit": false,
      "t": 92000.00000000003,
      "d": 680,
      "v": 110
    },
    {
      "midi": 67,
      "hit": false,
      "t": 92000.00000000003,
      "d": 680,
      "v": 110
    },
    {
      "midi": 72,
      "hit": false,
      "t": 92000.00000000003,
      "d": 726.6666666666715,
      "v": 110
    },
    {
      "midi": 65,
      "hit": false,
      "t": 92800.00000000003,
      "d": 1073.3333333333285,
      "v": 110
    },
    {
      "midi": 68,
      "hit": false,
      "t": 92800.00000000003,
      "d": 1093.3333333333285,
      "v": 110
    },
    {
      "midi": 72,
      "hit": false,
      "t": 92800.00000000003,
      "d": 1126.666666666657,
      "v": 110
    },
    {
      "midi": 53,
      "hit": false,
      "t": 92800.00000000003,
      "d": 1133.3333333333285,
      "v": 110
    },
    {
      "midi": 65,
      "hit": false,
      "t": 94000.00000000003,
      "d": 180,
      "v": 110
    },
    {
      "midi": 68,
      "hit": false,
      "t": 94000.00000000003,
      "d": 193.33333333332848,
      "v": 110
    },
    {
      "midi": 72,
      "hit": false,
      "t": 94000.00000000003,
      "d": 200,
      "v": 110
    },
    {
      "midi": 53,
      "hit": false,
      "t": 94000.00000000003,
      "d": 240,
      "v": 110
    },
    {
      "midi": 53,
      "hit": false,
      "t": 94400.00000000003,
      "d": 1046.6666666666715,
      "v": 110
    },
    {
      "midi": 65,
      "hit": false,
      "t": 94400.00000000003,
      "d": 1046.6666666666715,
      "v": 110
    },
    {
      "midi": 68,
      "hit": false,
      "t": 94400.00000000003,
      "d": 1066.6666666666715,
      "v": 110
    },
    {
      "midi": 73,
      "hit": false,
      "t": 94400.00000000003,
      "d": 1066.6666666666715,
      "v": 110
    },
    {
      "midi": 65,
      "hit": false,
      "t": 95600.00000000003,
      "d": 186.66666666667152,
      "v": 110
    },
    {
      "midi": 68,
      "hit": false,
      "t": 95600.00000000003,
      "d": 193.33333333334303,
      "v": 110
    },
    {
      "midi": 73,
      "hit": false,
      "t": 95600.00000000003,
      "d": 200.00000000001455,
      "v": 110
    },
    {
      "midi": 53,
      "hit": false,
      "t": 95600.00000000003,
      "d": 226.66666666668607,
      "v": 110
    },
    {
      "midi": 65,
      "hit": false,
      "t": 96000.00000000004,
      "d": 1086.6666666666715,
      "v": 110
    },
    {
      "midi": 72,
      "hit": false,
      "t": 96000.00000000004,
      "d": 1286.6666666666715,
      "v": 110
    },
    {
      "midi": 68,
      "hit": false,
      "t": 96000.00000000004,
      "d": 1293.333333333343,
      "v": 110
    },
    {
      "midi": 53,
      "hit": false,
      "t": 96000.00000000004,
      "d": 1533.333333333343,
      "v": 110
    },
    {
      "midi": 65,
      "hit": false,
      "t": 97200.00000000004,
      "d": 286.6666666666715,
      "v": 110
    },
    {
      "midi": 65,
      "hit": false,
      "t": 97600.00000000006,
      "d": 526.6666666666715,
      "v": 110
    },
    {
      "midi": 68,
      "hit": false,
      "t": 97600.00000000006,
      "d": 526.6666666666715,
      "v": 110
    },
    {
      "midi": 72,
      "hit": false,
      "t": 97600.00000000006,
      "d": 600,
      "v": 110
    },
    {
      "midi": 53,
      "hit": false,
      "t": 97600.00000000006,
      "d": 613.3333333333285,
      "v": 110
    },
    {
      "midi": 70,
      "hit": false,
      "t": 98400.00000000006,
      "d": 573.3333333333285,
      "v": 110
    },
    {
      "midi": 67,
      "hit": false,
      "t": 98400.00000000006,
      "d": 586.666666666657,
      "v": 110
    },
    {
      "midi": 63,
      "hit": false,
      "t": 98400.00000000006,
      "d": 593.3333333333285,
      "v": 110
    },
    {
      "midi": 51,
      "hit": false,
      "t": 98400.00000000006,
      "d": 633.3333333333285,
      "v": 110
    },
    {
      "midi": 61,
      "hit": false,
      "t": 99200.00000000006,
      "d": 1000,
      "v": 110
    },
    {
      "midi": 65,
      "hit": false,
      "t": 99200.00000000006,
      "d": 1173.3333333333285,
      "v": 110
    },
    {
      "midi": 68,
      "hit": false,
      "t": 99200.00000000006,
      "d": 1186.666666666657,
      "v": 110
    },
    {
      "midi": 49,
      "hit": false,
      "t": 99200.00000000006,
      "d": 1453.333333333314,
      "v": 110
    },
    {
      "midi": 61,
      "hit": false,
      "t": 100400.00000000004,
      "d": 293.3333333333285,
      "v": 110
    },
    {
      "midi": 61,
      "hit": false,
      "t": 100800.00000000004,
      "d": 1053.3333333333285,
      "v": 110
    },
    {
      "midi": 65,
      "hit": false,
      "t": 100800.00000000004,
      "d": 1073.3333333333285,
      "v": 110
    },
    {
      "midi": 68,
      "hit": false,
      "t": 100800.00000000004,
      "d": 1093.3333333333285,
      "v": 110
    },
    {
      "midi": 49,
      "hit": false,
      "t": 100800.00000000004,
      "d": 1113.3333333333285,
      "v": 110
    },
    {
      "midi": 61,
      "hit": false,
      "t": 102000.00000000004,
      "d": 153.33333333332848,
      "v": 110
    },
    {
      "midi": 65,
      "hit": false,
      "t": 102000.00000000004,
      "d": 166.66666666665697,
      "v": 110
    },
    {
      "midi": 68,
      "hit": false,
      "t": 102000.00000000004,
      "d": 199.99999999998545,
      "v": 110
    },
    {
      "midi": 49,
      "hit": false,
      "t": 102000.00000000004,
      "d": 253.33333333331393,
      "v": 110
    },
    {
      "midi": 63,
      "hit": false,
      "t": 102400.00000000003,
      "d": 1033.3333333333285,
      "v": 110
    },
    {
      "midi": 67,
      "hit": false,
      "t": 102400.00000000003,
      "d": 1093.3333333333285,
      "v": 110
    },
    {
      "midi": 70,
      "hit": false,
      "t": 102400.00000000003,
      "d": 1113.3333333333285,
      "v": 110
    },
    {
      "midi": 51,
      "hit": false,
      "t": 102400.00000000003,
      "d": 1133.3333333333285,
      "v": 110
    },
    {
      "midi": 63,
      "hit": false,
      "t": 103600.00000000003,
      "d": 226.66666666667152,
      "v": 110
    },
    {
      "midi": 67,
      "hit": false,
      "t": 103600.00000000003,
      "d": 246.66666666667152,
      "v": 110
    },
    {
      "midi": 51,
      "hit": false,
      "t": 103600.00000000003,
      "d": 266.6666666666715,
      "v": 110
    },
    {
      "midi": 70,
      "hit": false,
      "t": 103600.00000000003,
      "d": 280,
      "v": 110
    },
    {
      "midi": 63,
      "hit": false,
      "t": 104000.00000000003,
      "d": 633.3333333333285,
      "v": 110
    },
    {
      "midi": 67,
      "hit": false,
      "t": 104000.00000000003,
      "d": 640,
      "v": 110
    },
    {
      "midi": 73,
      "hit": false,
      "t": 104000.00000000003,
      "d": 653.3333333333285,
      "v": 110
    },
    {
      "midi": 70,
      "hit": false,
      "t": 104000.00000000003,
      "d": 693.3333333333285,
      "v": 110
    },
    {
      "midi": 51,
      "hit": false,
      "t": 104000.00000000003,
      "d": 713.3333333333285,
      "v": 110
    },
    {
      "midi": 67,
      "hit": false,
      "t": 104800.00000000003,
      "d": 413.3333333333285,
      "v": 110
    },
    {
      "midi": 70,
      "hit": false,
      "t": 104800.00000000003,
      "d": 426.66666666665697,
      "v": 110
    },
    {
      "midi": 73,
      "hit": false,
      "t": 104800.00000000003,
      "d": 426.66666666665697,
      "v": 110
    },
    {
      "midi": 51,
      "hit": false,
      "t": 104800.00000000003,
      "d": 439.99999999998545,
      "v": 110
    },
    {
      "midi": 63,
      "hit": false,
      "t": 104800.00000000003,
      "d": 479.99999999998545,
      "v": 110
    },
    {
      "midi": 63,
      "hit": false,
      "t": 105600.00000000001,
      "d": 1066.6666666666715,
      "v": 110
    },
    {
      "midi": 68,
      "hit": false,
      "t": 105600.00000000001,
      "d": 1080,
      "v": 110
    },
    {
      "midi": 56,
      "hit": false,
      "t": 105600.00000000001,
      "d": 1100,
      "v": 110
    },
    {
      "midi": 72,
      "hit": false,
      "t": 105600.00000000001,
      "d": 1100,
      "v": 110
    },
    {
      "midi": 56,
      "hit": false,
      "t": 106800.00000000001,
      "d": 266.6666666666715,
      "v": 110
    },
    {
      "midi": 63,
      "hit": false,
      "t": 106800.00000000001,
      "d": 293.33333333334303,
      "v": 110
    },
    {
      "midi": 72,
      "hit": false,
      "t": 106800.00000000001,
      "d": 320.00000000001455,
      "v": 110
    },
    {
      "midi": 68,
      "hit": false,
      "t": 107200.00000000003,
      "d": 1000,
      "v": 110
    },
    {
      "midi": 65,
      "hit": false,
      "t": 107200.00000000003,
      "d": 1060,
      "v": 110
    },
    {
      "midi": 56,
      "hit": false,
      "t": 107200.00000000003,
      "d": 1093.3333333333285,
      "v": 110
    },
    {
      "midi": 73,
      "hit": false,
      "t": 107200.00000000003,
      "d": 1093.3333333333285,
      "v": 110
    },
    {
      "midi": 65,
      "hit": false,
      "t": 108400.00000000003,
      "d": 220,
      "v": 110
    },
    {
      "midi": 68,
      "hit": false,
      "t": 108400.00000000003,
      "d": 220,
      "v": 110
    },
    {
      "midi": 73,
      "hit": false,
      "t": 108400.00000000003,
      "d": 220,
      "v": 110
    },
    {
      "midi": 56,
      "hit": false,
      "t": 108400.00000000003,
      "d": 240,
      "v": 110
    },
    {
      "midi": 56,
      "hit": false,
      "t": 108800.00000000003,
      "d": 1040,
      "v": 110
    },
    {
      "midi": 63,
      "hit": false,
      "t": 108800.00000000003,
      "d": 1206.6666666666715,
      "v": 110
    },
    {
      "midi": 72,
      "hit": false,
      "t": 108800.00000000003,
      "d": 1366.6666666666715,
      "v": 110
    },
    {
      "midi": 68,
      "hit": false,
      "t": 108800.00000000003,
      "d": 1413.3333333333285,
      "v": 110
    },
    {
      "midi": 56,
      "hit": false,
      "t": 110000.00000000003,
      "d": 1393.3333333333285,
      "v": 110
    },
    {
      "midi": 63,
      "hit": false,
      "t": 110200.00000000003,
      "d": 1240,
      "v": 110
    },
    {
      "midi": 68,
      "hit": false,
      "t": 110400.00000000003,
      "d": 1513.3333333333285,
      "v": 110
    },
    {
      "midi": 70,
      "hit": false,
      "t": 110800.00000000003,
      "d": 1100,
      "v": 110
    },
    {
      "midi": 72,
      "hit": false,
      "t": 111200.00000000003,
      "d": 713.3333333333285,
      "v": 110
    },
    {
      "midi": 63,
      "hit": false,
      "t": 111600.00000000003,
      "d": 366.66666666665697,
      "v": 110
    },
    {
      "midi": 49,
      "hit": false,
      "t": 112000.00000000001,
      "d": 1020,
      "v": 110
    },
    {
      "midi": 56,
      "hit": false,
      "t": 113200.00000000001,
      "d": 113.33333333332848,
      "v": 110
    },
    {
      "midi": 61,
      "hit": false,
      "t": 113200.00000000001,
      "d": 120,
      "v": 110
    },
    {
      "midi": 65,
      "hit": false,
      "t": 113200.00000000001,
      "d": 120,
      "v": 110
    },
    {
      "midi": 49,
      "hit": false,
      "t": 113200.00000000001,
      "d": 153.33333333332848,
      "v": 110
    },
    {
      "midi": 56,
      "hit": false,
      "t": 113600.00000000001,
      "d": 1353.3333333333285,
      "v": 110
    },
    {
      "midi": 61,
      "hit": false,
      "t": 113600.00000000001,
      "d": 1366.666666666657,
      "v": 110
    },
    {
      "midi": 65,
      "hit": false,
      "t": 113600.00000000001,
      "d": 1379.9999999999854,
      "v": 110
    },
    {
      "midi": 49,
      "hit": false,
      "t": 113600.00000000001,
      "d": 1433.333333333314,
      "v": 110
    },
    {
      "midi": 58,
      "hit": false,
      "t": 115200,
      "d": 993.3333333333285,
      "v": 110
    },
    {
      "midi": 63,
      "hit": false,
      "t": 115200,
      "d": 1000,
      "v": 110
    },
    {
      "midi": 67,
      "hit": false,
      "t": 115200,
      "d": 1000,
      "v": 110
    },
    {
      "midi": 51,
      "hit": false,
      "t": 115200,
      "d": 1006.6666666666715,
      "v": 110
    },
    {
      "midi": 58,
      "hit": false,
      "t": 116400,
      "d": 100,
      "v": 110
    },
    {
      "midi": 63,
      "hit": false,
      "t": 116400,
      "d": 100,
      "v": 110
    },
    {
      "midi": 67,
      "hit": false,
      "t": 116400,
      "d": 113.33333333332848,
      "v": 110
    },
    {
      "midi": 51,
      "hit": false,
      "t": 116400,
      "d": 126.66666666665697,
      "v": 110
    },
    {
      "midi": 58,
      "hit": false,
      "t": 116799.99999999999,
      "d": 1320,
      "v": 110
    },
    {
      "midi": 63,
      "hit": false,
      "t": 116799.99999999999,
      "d": 1326.6666666666715,
      "v": 110
    },
    {
      "midi": 67,
      "hit": false,
      "t": 116799.99999999999,
      "d": 1353.333333333343,
      "v": 110
    },
    {
      "midi": 51,
      "hit": false,
      "t": 116799.99999999999,
      "d": 1380.0000000000146,
      "v": 110
    },
    {
      "midi": 60,
      "hit": false,
      "t": 118400,
      "d": 953.3333333333285,
      "v": 110
    },
    {
      "midi": 65,
      "hit": false,
      "t": 118400,
      "d": 960,
      "v": 110
    },
    {
      "midi": 68,
      "hit": false,
      "t": 118400,
      "d": 1000,
      "v": 110
    },
    {
      "midi": 53,
      "hit": false,
      "t": 118400,
      "d": 1020,
      "v": 110
    },
    {
      "midi": 60,
      "hit": false,
      "t": 119600,
      "d": 133.33333333332848,
      "v": 110
    },
    {
      "midi": 65,
      "hit": false,
      "t": 119600,
      "d": 133.33333333332848,
      "v": 110
    },
    {
      "midi": 68,
      "hit": false,
      "t": 119600,
      "d": 140,
      "v": 110
    },
    {
      "midi": 53,
      "hit": false,
      "t": 119600,
      "d": 200,
      "v": 110
    },
    {
      "midi": 51,
      "hit": false,
      "t": 120000,
      "d": 953.3333333333285,
      "v": 110
    },
    {
      "midi": 58,
      "hit": false,
      "t": 120000,
      "d": 960,
      "v": 110
    },
    {
      "midi": 63,
      "hit": false,
      "t": 120000,
      "d": 986.6666666666715,
      "v": 110
    },
    {
      "midi": 67,
      "hit": false,
      "t": 120000,
      "d": 1000,
      "v": 110
    },
    {
      "midi": 63,
      "hit": false,
      "t": 121200,
      "d": 120,
      "v": 110
    },
    {
      "midi": 58,
      "hit": false,
      "t": 121200,
      "d": 133.33333333332848,
      "v": 110
    },
    {
      "midi": 67,
      "hit": false,
      "t": 121200,
      "d": 133.33333333332848,
      "v": 110
    },
    {
      "midi": 51,
      "hit": false,
      "t": 121200,
      "d": 200,
      "v": 110
    },
    {
      "midi": 56,
      "hit": false,
      "t": 121600,
      "d": 720,
      "v": 110
    },
    {
      "midi": 60,
      "hit": false,
      "t": 121600,
      "d": 720,
      "v": 110
    },
    {
      "midi": 63,
      "hit": false,
      "t": 121600,
      "d": 720,
      "v": 110
    },
    {
      "midi": 44,
      "hit": false,
      "t": 121600,
      "d": 800,
      "v": 110
    },
    {
      "midi": 60,
      "hit": false,
      "t": 122400,
      "d": 713.3333333333285,
      "v": 110
    },
    {
      "midi": 63,
      "hit": false,
      "t": 122400,
      "d": 726.666666666657,
      "v": 110
    },
    {
      "midi": 56,
      "hit": false,
      "t": 122400,
      "d": 733.3333333333285,
      "v": 110
    },
    {
      "midi": 44,
      "hit": false,
      "t": 122400,
      "d": 800,
      "v": 110
    },
    {
      "midi": 60,
      "hit": false,
      "t": 123200,
      "d": 646.6666666666715,
      "v": 110
    },
    {
      "midi": 56,
      "hit": false,
      "t": 123200,
      "d": 673.333333333343,
      "v": 110
    },
    {
      "midi": 63,
      "hit": false,
      "t": 123200,
      "d": 680.0000000000146,
      "v": 110
    },
    {
      "midi": 44,
      "hit": false,
      "t": 123200,
      "d": 800.0000000000146,
      "v": 110
    },
    {
      "midi": 60,
      "hit": false,
      "t": 124000.00000000001,
      "d": 580,
      "v": 110
    },
    {
      "midi": 56,
      "hit": false,
      "t": 124000.00000000001,
      "d": 593.3333333333285,
      "v": 110
    },
    {
      "midi": 63,
      "hit": false,
      "t": 124000.00000000001,
      "d": 600,
      "v": 110
    },
    {
      "midi": 44,
      "hit": false,
      "t": 124000.00000000001,
      "d": 800,
      "v": 110
    },
    {
      "midi": 49,
      "hit": false,
      "t": 124800.00000000001,
      "d": 946.6666666666715,
      "v": 110
    },
    {
      "midi": 56,
      "hit": false,
      "t": 124800.00000000001,
      "d": 946.6666666666715,
      "v": 110
    },
    {
      "midi": 61,
      "hit": false,
      "t": 124800.00000000001,
      "d": 953.333333333343,
      "v": 110
    },
    {
      "midi": 65,
      "hit": false,
      "t": 124800.00000000001,
      "d": 980.0000000000146,
      "v": 110
    },
    {
      "midi": 56,
      "hit": false,
      "t": 126000.00000000003,
      "d": 93.33333333332848,
      "v": 110
    },
    {
      "midi": 61,
      "hit": false,
      "t": 126000.00000000003,
      "d": 93.33333333332848,
      "v": 110
    },
    {
      "midi": 49,
      "hit": false,
      "t": 126000.00000000003,
      "d": 106.66666666665697,
      "v": 110
    },
    {
      "midi": 65,
      "hit": false,
      "t": 126000.00000000003,
      "d": 106.66666666665697,
      "v": 110
    },
    {
      "midi": 65,
      "hit": false,
      "t": 126400.00000000001,
      "d": 1180,
      "v": 110
    },
    {
      "midi": 56,
      "hit": false,
      "t": 126400.00000000001,
      "d": 1226.6666666666715,
      "v": 110
    },
    {
      "midi": 61,
      "hit": false,
      "t": 126400.00000000001,
      "d": 1246.6666666666715,
      "v": 110
    },
    {
      "midi": 49,
      "hit": false,
      "t": 126400.00000000001,
      "d": 1293.333333333343,
      "v": 110
    },
    {
      "midi": 64,
      "hit": false,
      "t": 128000.00000000003,
      "d": 840,
      "v": 110
    },
    {
      "midi": 61,
      "hit": false,
      "t": 128000.00000000003,
      "d": 860,
      "v": 110
    },
    {
      "midi": 49,
      "hit": false,
      "t": 128000.00000000003,
      "d": 886.6666666666715,
      "v": 110
    },
    {
      "midi": 56,
      "hit": false,
      "t": 128000.00000000003,
      "d": 933.333333333343,
      "v": 110
    },
    {
      "midi": 56,
      "hit": false,
      "t": 129200.00000000004,
      "d": 113.33333333332848,
      "v": 110
    },
    {
      "midi": 61,
      "hit": false,
      "t": 129200.00000000004,
      "d": 113.33333333332848,
      "v": 110
    },
    {
      "midi": 64,
      "hit": false,
      "t": 129200.00000000004,
      "d": 113.33333333332848,
      "v": 110
    },
    {
      "midi": 49,
      "hit": false,
      "t": 129200.00000000004,
      "d": 120,
      "v": 110
    },
    {
      "midi": 56,
      "hit": false,
      "t": 129600.00000000004,
      "d": 1213.3333333333285,
      "v": 110
    },
    {
      "midi": 61,
      "hit": false,
      "t": 129600.00000000004,
      "d": 1220,
      "v": 110
    },
    {
      "midi": 64,
      "hit": false,
      "t": 129600.00000000004,
      "d": 1233.3333333333285,
      "v": 110
    },
    {
      "midi": 49,
      "hit": false,
      "t": 129600.00000000004,
      "d": 1286.666666666657,
      "v": 110
    },
    {
      "midi": 58,
      "hit": false,
      "t": 131200.00000000003,
      "d": 1353.333333333343,
      "v": 110
    },
    {
      "midi": 70,
      "hit": false,
      "t": 131200.00000000003,
      "d": 1393.333333333343,
      "v": 110
    },
    {
      "midi": 63,
      "hit": false,
      "t": 131200.00000000003,
      "d": 1400,
      "v": 110
    },
    {
      "midi": 51,
      "hit": false,
      "t": 131200.00000000003,
      "d": 1426.666666666657,
      "v": 110
    },
    {
      "midi": 63,
      "hit": false,
      "t": 132800.00000000003,
      "d": 1466.666666666657,
      "v": 110
    },
    {
      "midi": 51,
      "hit": false,
      "t": 132800.00000000003,
      "d": 1526.666666666657,
      "v": 110
    },
    {
      "midi": 58,
      "hit": false,
      "t": 132800.00000000003,
      "d": 1533.333333333314,
      "v": 110
    },
    {
      "midi": 72,
      "hit": false,
      "t": 132800.00000000003,
      "d": 1599.999999999971,
      "v": 110
    },
    {
      "midi": 51,
      "hit": false,
      "t": 134400,
      "d": 1400,
      "v": 110
    },
    {
      "midi": 58,
      "hit": false,
      "t": 134400,
      "d": 1400,
      "v": 110
    },
    {
      "midi": 63,
      "hit": false,
      "t": 134400,
      "d": 1466.666666666657,
      "v": 110
    },
    {
      "midi": 73,
      "hit": false,
      "t": 134400,
      "d": 1466.666666666657,
      "v": 110
    },
    {
      "midi": 70,
      "hit": false,
      "t": 136006.66666666666,
      "d": 1440,
      "v": 110
    },
    {
      "midi": 67,
      "hit": false,
      "t": 136006.66666666666,
      "d": 1453.333333333343,
      "v": 110
    },
    {
      "midi": 75,
      "hit": false,
      "t": 136006.66666666666,
      "d": 1453.333333333343,
      "v": 110
    },
    {
      "midi": 51,
      "hit": false,
      "t": 136006.66666666666,
      "d": 1460,
      "v": 110
    },
    {
      "midi": 44,
      "hit": false,
      "t": 137600,
      "d": 1086.666666666657,
      "v": 110
    },
    {
      "midi": 51,
      "hit": false,
      "t": 137600,
      "d": 1280,
      "v": 110
    },
    {
      "midi": 60,
      "hit": false,
      "t": 137600,
      "d": 1566.666666666657,
      "v": 110
    },
    {
      "midi": 56,
      "hit": false,
      "t": 137600,
      "d": 1573.333333333314,
      "v": 110
    },
    {
      "midi": 44,
      "hit": false,
      "t": 138800,
      "d": 1066.666666666657,
      "v": 110
    },
    {
      "midi": 51,
      "hit": false,
      "t": 139199.99999999997,
      "d": 653.333333333343,
      "v": 110
    },
    {
      "midi": 60,
      "hit": false,
      "t": 139199.99999999997,
      "d": 673.333333333343,
      "v": 110
    },
    {
      "midi": 56,
      "hit": false,
      "t": 139199.99999999997,
      "d": 693.333333333343,
      "v": 110
    },
    {
      "midi": 44,
      "hit": false,
      "t": 139999.99999999997,
      "d": 720,
      "v": 110
    },
    {
      "midi": 51,
      "hit": false,
      "t": 139999.99999999997,
      "d": 726.666666666657,
      "v": 110
    },
    {
      "midi": 61,
      "hit": false,
      "t": 139999.99999999997,
      "d": 726.666666666657,
      "v": 110
    },
    {
      "midi": 56,
      "hit": false,
      "t": 139999.99999999997,
      "d": 753.3333333333139,
      "v": 110
    },
    {
      "midi": 44,
      "hit": false,
      "t": 140799.99999999994,
      "d": 1066.666666666657,
      "v": 110
    },
    {
      "midi": 51,
      "hit": false,
      "t": 140799.99999999994,
      "d": 1460,
      "v": 110
    },
    {
      "midi": 56,
      "hit": false,
      "t": 140799.99999999994,
      "d": 1493.333333333343,
      "v": 110
    },
    {
      "midi": 60,
      "hit": false,
      "t": 140799.99999999994,
      "d": 1500,
      "v": 110
    },
    {
      "midi": 44,
      "hit": false,
      "t": 141999.99999999994,
      "d": 260,
      "v": 110
    },
    {
      "midi": 56,
      "hit": false,
      "t": 142399.99999999994,
      "d": 633.333333333343,
      "v": 110
    },
    {
      "midi": 51,
      "hit": false,
      "t": 142399.99999999994,
      "d": 666.6666666666861,
      "v": 110
    },
    {
      "midi": 60,
      "hit": false,
      "t": 142399.99999999994,
      "d": 706.6666666666861,
      "v": 110
    },
    {
      "midi": 44,
      "hit": false,
      "t": 142399.99999999994,
      "d": 726.6666666666861,
      "v": 110
    },
    {
      "midi": 51,
      "hit": false,
      "t": 143199.99999999997,
      "d": 653.333333333343,
      "v": 110
    },
    {
      "midi": 55,
      "hit": false,
      "t": 143199.99999999997,
      "d": 686.6666666666861,
      "v": 110
    },
    {
      "midi": 43,
      "hit": false,
      "t": 143199.99999999997,
      "d": 720.0000000000291,
      "v": 110
    },
    {
      "midi": 60,
      "hit": false,
      "t": 143199.99999999997,
      "d": 720.0000000000291,
      "v": 110
    },
    {
      "midi": 41,
      "hit": false,
      "t": 144000,
      "d": 1066.666666666657,
      "v": 110
    },
    {
      "midi": 53,
      "hit": false,
      "t": 144000,
      "d": 1180,
      "v": 110
    },
    {
      "midi": 56,
      "hit": false,
      "t": 144000,
      "d": 1406.666666666657,
      "v": 110
    },
    {
      "midi": 60,
      "hit": false,
      "t": 144000,
      "d": 1413.333333333314,
      "v": 110
    },
    {
      "midi": 41,
      "hit": false,
      "t": 145200,
      "d": 1119.999999999971,
      "v": 110
    },
    {
      "midi": 53,
      "hit": false,
      "t": 145400,
      "d": 1386.6666666666279,
      "v": 110
    },
    {
      "midi": 60,
      "hit": false,
      "t": 145599.99999999997,
      "d": 1200,
      "v": 110
    },
    {
      "midi": 56,
      "hit": false,
      "t": 146799.99999999997,
      "d": 13.333333333343035,
      "v": 110
    },
    {
      "midi": 41,
      "hit": false,
      "t": 146799.99999999997,
      "d": 26.66666666668607,
      "v": 110
    },
    {
      "midi": 53,
      "hit": false,
      "t": 146799.99999999997,
      "d": 286.66666666668607,
      "v": 110
    },
    {
      "midi": 58,
      "hit": false,
      "t": 146799.99999999997,
      "d": 293.33333333334303,
      "v": 110
    },
    {
      "midi": 53,
      "hit": false,
      "t": 147199.99999999997,
      "d": 1093.333333333343,
      "v": 110
    },
    {
      "midi": 41,
      "hit": false,
      "t": 147199.99999999997,
      "d": 1106.666666666686,
      "v": 110
    },
    {
      "midi": 56,
      "hit": false,
      "t": 147199.99999999997,
      "d": 1180.000000000029,
      "v": 110
    },
    {
      "midi": 60,
      "hit": false,
      "t": 147199.99999999997,
      "d": 1186.666666666686,
      "v": 110
    },
    {
      "midi": 60,
      "hit": false,
      "t": 148400,
      "d": 260,
      "v": 110
    },
    {
      "midi": 56,
      "hit": false,
      "t": 148400,
      "d": 266.66666666665697,
      "v": 110
    },
    {
      "midi": 53,
      "hit": false,
      "t": 148400,
      "d": 293.33333333331393,
      "v": 110
    },
    {
      "midi": 41,
      "hit": false,
      "t": 148400,
      "d": 326.66666666665697,
      "v": 110
    },
    {
      "midi": 53,
      "hit": false,
      "t": 148800,
      "d": 546.666666666657,
      "v": 110
    },
    {
      "midi": 56,
      "hit": false,
      "t": 148800,
      "d": 553.3333333333139,
      "v": 110
    },
    {
      "midi": 41,
      "hit": false,
      "t": 148800,
      "d": 599.9999999999709,
      "v": 110
    },
    {
      "midi": 60,
      "hit": false,
      "t": 148800,
      "d": 673.3333333333139,
      "v": 110
    },
    {
      "midi": 55,
      "hit": false,
      "t": 149599.99999999997,
      "d": 533.333333333343,
      "v": 110
    },
    {
      "midi": 60,
      "hit": false,
      "t": 149599.99999999997,
      "d": 540,
      "v": 110
    },
    {
      "midi": 51,
      "hit": false,
      "t": 149599.99999999997,
      "d": 546.666666666657,
      "v": 110
    },
    {
      "midi": 39,
      "hit": false,
      "t": 149599.99999999997,
      "d": 640,
      "v": 110
    },
    {
      "midi": 37,
      "hit": false,
      "t": 150399.99999999997,
      "d": 1086.666666666657,
      "v": 110
    },
    {
      "midi": 49,
      "hit": false,
      "t": 150399.99999999997,
      "d": 1500,
      "v": 110
    },
    {
      "midi": 53,
      "hit": false,
      "t": 150399.99999999997,
      "d": 1526.666666666657,
      "v": 110
    },
    {
      "midi": 56,
      "hit": false,
      "t": 150399.99999999997,
      "d": 1540,
      "v": 110
    },
    {
      "midi": 37,
      "hit": false,
      "t": 151599.99999999997,
      "d": 1526.666666666657,
      "v": 110
    },
    {
      "midi": 49,
      "hit": false,
      "t": 151999.99999999997,
      "d": 1153.333333333314,
      "v": 110
    },
    {
      "midi": 56,
      "hit": false,
      "t": 151999.99999999997,
      "d": 1179.999999999971,
      "v": 110
    },
    {
      "midi": 53,
      "hit": false,
      "t": 151999.99999999997,
      "d": 1199.999999999971,
      "v": 110
    },
    {
      "midi": 58,
      "hit": false,
      "t": 153199.99999999994,
      "d": 313.33333333334303,
      "v": 110
    },
    {
      "midi": 49,
      "hit": false,
      "t": 153199.99999999994,
      "d": 333.33333333334303,
      "v": 110
    },
    {
      "midi": 37,
      "hit": false,
      "t": 153199.99999999994,
      "d": 340,
      "v": 110
    },
    {
      "midi": 53,
      "hit": false,
      "t": 153199.99999999994,
      "d": 360,
      "v": 110
    },
    {
      "midi": 49,
      "hit": false,
      "t": 153599.99999999994,
      "d": 966.666666666657,
      "v": 110
    },
    {
      "midi": 56,
      "hit": false,
      "t": 153599.99999999994,
      "d": 1300,
      "v": 110
    },
    {
      "midi": 53,
      "hit": false,
      "t": 153599.99999999994,
      "d": 1320,
      "v": 110
    },
    {
      "midi": 37,
      "hit": false,
      "t": 153599.99999999994,
      "d": 1506.666666666657,
      "v": 110
    },
    {
      "midi": 49,
      "hit": false,
      "t": 154799.99999999994,
      "d": 306.66666666665697,
      "v": 110
    },
    {
      "midi": 49,
      "hit": false,
      "t": 155199.99999999994,
      "d": 660,
      "v": 110
    },
    {
      "midi": 53,
      "hit": false,
      "t": 155199.99999999994,
      "d": 686.666666666657,
      "v": 110
    },
    {
      "midi": 37,
      "hit": false,
      "t": 155199.99999999994,
      "d": 693.3333333333139,
      "v": 110
    },
    {
      "midi": 56,
      "hit": false,
      "t": 155199.99999999994,
      "d": 693.3333333333139,
      "v": 110
    },
    {
      "midi": 49,
      "hit": false,
      "t": 155999.9999999999,
      "d": 566.666666666657,
      "v": 110
    },
    {
      "midi": 53,
      "hit": false,
      "t": 155999.9999999999,
      "d": 580,
      "v": 110
    },
    {
      "midi": 56,
      "hit": false,
      "t": 155999.9999999999,
      "d": 593.333333333343,
      "v": 110
    },
    {
      "midi": 37,
      "hit": false,
      "t": 155999.9999999999,
      "d": 673.333333333343,
      "v": 110
    },
    {
      "midi": 51,
      "hit": false,
      "t": 156799.9999999999,
      "d": 1066.666666666657,
      "v": 110
    },
    {
      "midi": 55,
      "hit": false,
      "t": 156799.9999999999,
      "d": 1080,
      "v": 110
    },
    {
      "midi": 58,
      "hit": false,
      "t": 156799.9999999999,
      "d": 1106.666666666657,
      "v": 110
    },
    {
      "midi": 39,
      "hit": false,
      "t": 156799.9999999999,
      "d": 1113.333333333314,
      "v": 110
    },
    {
      "midi": 51,
      "hit": false,
      "t": 157999.99999999988,
      "d": 253.33333333334303,
      "v": 110
    },
    {
      "midi": 55,
      "hit": false,
      "t": 157999.99999999988,
      "d": 266.66666666668607,
      "v": 110
    },
    {
      "midi": 58,
      "hit": false,
      "t": 157999.99999999988,
      "d": 280.0000000000291,
      "v": 110
    },
    {
      "midi": 39,
      "hit": false,
      "t": 157999.99999999988,
      "d": 340.0000000000291,
      "v": 110
    },
    {
      "midi": 53,
      "hit": false,
      "t": 158399.9999999999,
      "d": 1073.333333333343,
      "v": 110
    },
    {
      "midi": 56,
      "hit": false,
      "t": 158399.9999999999,
      "d": 1086.666666666686,
      "v": 110
    },
    {
      "midi": 60,
      "hit": false,
      "t": 158399.9999999999,
      "d": 1106.666666666686,
      "v": 110
    },
    {
      "midi": 41,
      "hit": false,
      "t": 158399.9999999999,
      "d": 1146.666666666686,
      "v": 110
    },
    {
      "midi": 53,
      "hit": false,
      "t": 159599.99999999994,
      "d": 260,
      "v": 110
    },
    {
      "midi": 56,
      "hit": false,
      "t": 159599.99999999994,
      "d": 286.66666666665697,
      "v": 110
    },
    {
      "midi": 60,
      "hit": false,
      "t": 159599.99999999994,
      "d": 306.66666666665697,
      "v": 110
    },
    {
      "midi": 41,
      "hit": false,
      "t": 159599.99999999994,
      "d": 326.66666666665697,
      "v": 110
    },
    {
      "midi": 55,
      "hit": false,
      "t": 159999.99999999994,
      "d": 1060,
      "v": 110
    },
    {
      "midi": 58,
      "hit": false,
      "t": 159999.99999999994,
      "d": 1066.666666666657,
      "v": 110
    },
    {
      "midi": 43,
      "hit": false,
      "t": 159999.99999999994,
      "d": 1080,
      "v": 110
    },
    {
      "midi": 61,
      "hit": false,
      "t": 159999.99999999994,
      "d": 1086.666666666657,
      "v": 110
    },
    {
      "midi": 55,
      "hit": false,
      "t": 161199.99999999994,
      "d": 226.66666666665697,
      "v": 110
    },
    {
      "midi": 58,
      "hit": false,
      "t": 161199.99999999994,
      "d": 240,
      "v": 110
    },
    {
      "midi": 61,
      "hit": false,
      "t": 161199.99999999994,
      "d": 260,
      "v": 110
    },
    {
      "midi": 43,
      "hit": false,
      "t": 161199.99999999994,
      "d": 293.33333333334303,
      "v": 110
    },
    {
      "midi": 56,
      "hit": false,
      "t": 161599.99999999994,
      "d": 593.333333333343,
      "v": 110
    },
    {
      "midi": 44,
      "hit": false,
      "t": 161599.99999999994,
      "d": 600,
      "v": 110
    },
    {
      "midi": 60,
      "hit": false,
      "t": 161599.99999999994,
      "d": 626.666666666657,
      "v": 110
    },
    {
      "midi": 63,
      "hit": false,
      "t": 161599.99999999994,
      "d": 666.666666666657,
      "v": 110
    },
    {
      "midi": 44,
      "hit": false,
      "t": 162399.99999999994,
      "d": 266.66666666665697,
      "v": 110
    },
    {
      "midi": 56,
      "hit": false,
      "t": 162399.99999999994,
      "d": 326.66666666665697,
      "v": 110
    },
    {
      "midi": 60,
      "hit": false,
      "t": 162399.99999999994,
      "d": 346.66666666665697,
      "v": 110
    },
    {
      "midi": 63,
      "hit": false,
      "t": 162399.99999999994,
      "d": 360,
      "v": 110
    },
    {
      "midi": 63,
      "hit": false,
      "t": 163199.99999999994,
      "d": 1026.666666666657,
      "v": 110
    },
    {
      "midi": 56,
      "hit": false,
      "t": 163199.99999999994,
      "d": 1086.666666666657,
      "v": 110
    },
    {
      "midi": 68,
      "hit": false,
      "t": 163199.99999999994,
      "d": 1146.666666666657,
      "v": 110
    },
    {
      "midi": 72,
      "hit": false,
      "t": 163199.99999999994,
      "d": 1153.333333333314,
      "v": 110
    },
    {
      "midi": 63,
      "hit": false,
      "t": 164399.9999999999,
      "d": 213.33333333334303,
      "v": 110
    },
    {
      "midi": 56,
      "hit": false,
      "t": 164399.9999999999,
      "d": 246.66666666668607,
      "v": 110
    },
    {
      "midi": 68,
      "hit": false,
      "t": 164399.9999999999,
      "d": 253.33333333334303,
      "v": 110
    },
    {
      "midi": 72,
      "hit": false,
      "t": 164399.9999999999,
      "d": 280,
      "v": 110
    },
    {
      "midi": 63,
      "hit": false,
      "t": 164799.9999999999,
      "d": 700,
      "v": 110
    },
    {
      "midi": 68,
      "hit": false,
      "t": 164799.9999999999,
      "d": 746.666666666657,
      "v": 110
    },
    {
      "midi": 56,
      "hit": false,
      "t": 164799.9999999999,
      "d": 753.3333333333139,
      "v": 110
    },
    {
      "midi": 72,
      "hit": false,
      "t": 164799.9999999999,
      "d": 753.3333333333139,
      "v": 110
    },
    {
      "midi": 63,
      "hit": false,
      "t": 165599.99999999988,
      "d": 700,
      "v": 110
    },
    {
      "midi": 56,
      "hit": false,
      "t": 165599.99999999988,
      "d": 706.666666666657,
      "v": 110
    },
    {
      "midi": 73,
      "hit": false,
      "t": 165599.99999999988,
      "d": 706.666666666657,
      "v": 110
    },
    {
      "midi": 68,
      "hit": false,
      "t": 165599.99999999988,
      "d": 726.666666666657,
      "v": 110
    },
    {
      "midi": 63,
      "hit": false,
      "t": 166399.99999999988,
      "d": 1033.333333333343,
      "v": 110
    },
    {
      "midi": 72,
      "hit": false,
      "t": 166399.99999999988,
      "d": 1153.333333333343,
      "v": 110
    },
    {
      "midi": 68,
      "hit": false,
      "t": 166399.99999999988,
      "d": 1160,
      "v": 110
    },
    {
      "midi": 56,
      "hit": false,
      "t": 166399.99999999988,
      "d": 1406.666666666657,
      "v": 110
    },
    {
      "midi": 63,
      "hit": false,
      "t": 167599.99999999988,
      "d": 306.66666666665697,
      "v": 110
    },
    {
      "midi": 68,
      "hit": false,
      "t": 167999.99999999988,
      "d": 626.666666666657,
      "v": 110
    },
    {
      "midi": 63,
      "hit": false,
      "t": 167999.99999999988,
      "d": 646.666666666657,
      "v": 110
    },
    {
      "midi": 72,
      "hit": false,
      "t": 167999.99999999988,
      "d": 693.3333333333139,
      "v": 110
    },
    {
      "midi": 56,
      "hit": false,
      "t": 167999.99999999988,
      "d": 726.666666666657,
      "v": 110
    },
    {
      "midi": 63,
      "hit": false,
      "t": 168799.99999999988,
      "d": 686.666666666657,
      "v": 110
    },
    {
      "midi": 67,
      "hit": false,
      "t": 168799.99999999988,
      "d": 720,
      "v": 110
    },
    {
      "midi": 55,
      "hit": false,
      "t": 168799.99999999988,
      "d": 766.666666666657,
      "v": 110
    },
    {
      "midi": 72,
      "hit": false,
      "t": 168799.99999999988,
      "d": 793.3333333333139,
      "v": 110
    },
    {
      "midi": 65,
      "hit": false,
      "t": 169599.99999999985,
      "d": 886.666666666657,
      "v": 110
    },
    {
      "midi": 68,
      "hit": false,
      "t": 169599.99999999985,
      "d": 906.666666666657,
      "v": 110
    },
    {
      "midi": 72,
      "hit": false,
      "t": 169599.99999999985,
      "d": 906.666666666657,
      "v": 110
    },
    {
      "midi": 53,
      "hit": false,
      "t": 169599.99999999985,
      "d": 946.666666666657,
      "v": 110
    },
    {
      "midi": 65,
      "hit": false,
      "t": 170799.99999999985,
      "d": 140,
      "v": 110
    },
    {
      "midi": 68,
      "hit": false,
      "t": 170799.99999999985,
      "d": 153.33333333334303,
      "v": 110
    },
    {
      "midi": 72,
      "hit": false,
      "t": 170799.99999999985,
      "d": 180,
      "v": 110
    },
    {
      "midi": 53,
      "hit": false,
      "t": 170799.99999999985,
      "d": 206.66666666665697,
      "v": 110
    },
    {
      "midi": 65,
      "hit": false,
      "t": 171199.99999999985,
      "d": 1300,
      "v": 110
    },
    {
      "midi": 68,
      "hit": false,
      "t": 171199.99999999985,
      "d": 1313.333333333343,
      "v": 110
    },
    {
      "midi": 53,
      "hit": false,
      "t": 171199.99999999985,
      "d": 1326.666666666686,
      "v": 110
    },
    {
      "midi": 72,
      "hit": false,
      "t": 171199.99999999985,
      "d": 1333.333333333343,
      "v": 110
    },
    {
      "midi": 53,
      "hit": false,
      "t": 172799.99999999985,
      "d": 880,
      "v": 110
    },
    {
      "midi": 65,
      "hit": false,
      "t": 172799.99999999985,
      "d": 906.666666666657,
      "v": 110
    },
    {
      "midi": 68,
      "hit": false,
      "t": 172799.99999999985,
      "d": 926.666666666657,
      "v": 110
    },
    {
      "midi": 72,
      "hit": false,
      "t": 172799.99999999985,
      "d": 946.666666666657,
      "v": 110
    },
    {
      "midi": 65,
      "hit": false,
      "t": 173999.99999999985,
      "d": 100,
      "v": 110
    },
    {
      "midi": 68,
      "hit": false,
      "t": 173999.99999999985,
      "d": 120,
      "v": 110
    },
    {
      "midi": 72,
      "hit": false,
      "t": 173999.99999999985,
      "d": 140,
      "v": 110
    },
    {
      "midi": 53,
      "hit": false,
      "t": 173999.99999999985,
      "d": 166.66666666665697,
      "v": 110
    },
    {
      "midi": 65,
      "hit": false,
      "t": 174399.99999999985,
      "d": 553.333333333343,
      "v": 110
    },
    {
      "midi": 68,
      "hit": false,
      "t": 174399.99999999985,
      "d": 580,
      "v": 110
    },
    {
      "midi": 72,
      "hit": false,
      "t": 174399.99999999985,
      "d": 633.333333333343,
      "v": 110
    },
    {
      "midi": 53,
      "hit": false,
      "t": 174399.99999999985,
      "d": 693.333333333343,
      "v": 110
    },
    {
      "midi": 63,
      "hit": false,
      "t": 175199.99999999985,
      "d": 553.333333333343,
      "v": 110
    },
    {
      "midi": 67,
      "hit": false,
      "t": 175199.99999999985,
      "d": 553.333333333343,
      "v": 110
    },
    {
      "midi": 72,
      "hit": false,
      "t": 175199.99999999985,
      "d": 560,
      "v": 110
    },
    {
      "midi": 51,
      "hit": false,
      "t": 175199.99999999985,
      "d": 660,
      "v": 110
    },
    {
      "midi": 61,
      "hit": false,
      "t": 175999.99999999985,
      "d": 1086.666666666657,
      "v": 110
    },
    {
      "midi": 49,
      "hit": false,
      "t": 175999.99999999985,
      "d": 1120,
      "v": 110
    },
    {
      "midi": 65,
      "hit": false,
      "t": 175999.99999999985,
      "d": 1226.666666666657,
      "v": 110
    },
    {
      "midi": 68,
      "hit": false,
      "t": 175999.99999999985,
      "d": 1226.666666666657,
      "v": 110
    },
    {
      "midi": 49,
      "hit": false,
      "t": 177199.99999999985,
      "d": 326.66666666665697,
      "v": 110
    },
    {
      "midi": 49,
      "hit": false,
      "t": 177599.99999999985,
      "d": 1133.333333333343,
      "v": 110
    },
    {
      "midi": 61,
      "hit": false,
      "t": 177599.99999999985,
      "d": 1133.333333333343,
      "v": 110
    },
    {
      "midi": 65,
      "hit": false,
      "t": 177599.99999999985,
      "d": 1160,
      "v": 110
    },
    {
      "midi": 68,
      "hit": false,
      "t": 177599.99999999985,
      "d": 1166.666666666657,
      "v": 110
    },
    {
      "midi": 61,
      "hit": false,
      "t": 178799.99999999985,
      "d": 213.33333333334303,
      "v": 110
    },
    {
      "midi": 65,
      "hit": false,
      "t": 178799.99999999985,
      "d": 213.33333333334303,
      "v": 110
    },
    {
      "midi": 68,
      "hit": false,
      "t": 178799.99999999985,
      "d": 240,
      "v": 110
    },
    {
      "midi": 49,
      "hit": false,
      "t": 178799.99999999985,
      "d": 313.33333333334303,
      "v": 110
    },
    {
      "midi": 63,
      "hit": false,
      "t": 179199.99999999985,
      "d": 953.333333333343,
      "v": 110
    },
    {
      "midi": 67,
      "hit": false,
      "t": 179199.99999999985,
      "d": 973.333333333343,
      "v": 110
    },
    {
      "midi": 70,
      "hit": false,
      "t": 179199.99999999985,
      "d": 1000,
      "v": 110
    },
    {
      "midi": 51,
      "hit": false,
      "t": 179199.99999999985,
      "d": 1013.333333333343,
      "v": 110
    },
    {
      "midi": 63,
      "hit": false,
      "t": 180399.99999999985,
      "d": 133.33333333334303,
      "v": 110
    },
    {
      "midi": 67,
      "hit": false,
      "t": 180399.99999999985,
      "d": 140,
      "v": 110
    },
    {
      "midi": 70,
      "hit": false,
      "t": 180399.99999999985,
      "d": 153.33333333334303,
      "v": 110
    },
    {
      "midi": 51,
      "hit": false,
      "t": 180399.99999999985,
      "d": 193.33333333334303,
      "v": 110
    },
    {
      "midi": 63,
      "hit": false,
      "t": 180799.99999999985,
      "d": 1326.666666666657,
      "v": 110
    },
    {
      "midi": 51,
      "hit": false,
      "t": 180799.99999999985,
      "d": 1333.333333333314,
      "v": 110
    },
    {
      "midi": 67,
      "hit": false,
      "t": 180799.99999999985,
      "d": 1333.333333333314,
      "v": 110
    },
    {
      "midi": 70,
      "hit": false,
      "t": 180799.99999999985,
      "d": 1353.333333333314,
      "v": 110
    },
    {
      "midi": 63,
      "hit": false,
      "t": 182399.99999999983,
      "d": 1020,
      "v": 110
    },
    {
      "midi": 68,
      "hit": false,
      "t": 182399.99999999983,
      "d": 1053.333333333343,
      "v": 110
    },
    {
      "midi": 72,
      "hit": false,
      "t": 182399.99999999983,
      "d": 1053.333333333343,
      "v": 110
    },
    {
      "midi": 56,
      "hit": false,
      "t": 182399.99999999983,
      "d": 1073.333333333343,
      "v": 110
    },
    {
      "midi": 63,
      "hit": false,
      "t": 183599.99999999983,
      "d": 253.33333333334303,
      "v": 110
    },
    {
      "midi": 72,
      "hit": false,
      "t": 183599.99999999983,
      "d": 273.33333333334303,
      "v": 110
    },
    {
      "midi": 56,
      "hit": false,
      "t": 183599.99999999983,
      "d": 306.66666666668607,
      "v": 110
    },
    {
      "midi": 68,
      "hit": false,
      "t": 183599.99999999983,
      "d": 320.0000000000291,
      "v": 110
    },
    {
      "midi": 65,
      "hit": false,
      "t": 183999.99999999985,
      "d": 1106.666666666657,
      "v": 110
    },
    {
      "midi": 73,
      "hit": false,
      "t": 183999.99999999985,
      "d": 1106.666666666657,
      "v": 110
    },
    {
      "midi": 56,
      "hit": false,
      "t": 183999.99999999985,
      "d": 1120,
      "v": 110
    },
    {
      "midi": 68,
      "hit": false,
      "t": 183999.99999999985,
      "d": 1133.333333333343,
      "v": 110
    },
    {
      "midi": 65,
      "hit": false,
      "t": 185199.99999999985,
      "d": 220,
      "v": 110
    },
    {
      "midi": 73,
      "hit": false,
      "t": 185199.99999999985,
      "d": 220,
      "v": 110
    },
    {
      "midi": 56,
      "hit": false,
      "t": 185199.99999999985,
      "d": 226.66666666665697,
      "v": 110
    },
    {
      "midi": 68,
      "hit": false,
      "t": 185199.99999999985,
      "d": 226.66666666665697,
      "v": 110
    },
    {
      "midi": 63,
      "hit": false,
      "t": 185599.99999999985,
      "d": 866.666666666657,
      "v": 110
    },
    {
      "midi": 68,
      "hit": false,
      "t": 185599.99999999985,
      "d": 866.666666666657,
      "v": 110
    },
    {
      "midi": 72,
      "hit": false,
      "t": 185599.99999999985,
      "d": 866.666666666657,
      "v": 110
    },
    {
      "midi": 56,
      "hit": false,
      "t": 185599.99999999985,
      "d": 913.3333333333139,
      "v": 110
    },
    {
      "midi": 65,
      "hit": false,
      "t": 187199.99999999983,
      "d": 613.333333333343,
      "v": 110
    },
    {
      "midi": 61,
      "hit": false,
      "t": 187199.99999999983,
      "d": 620,
      "v": 110
    },
    {
      "midi": 56,
      "hit": false,
      "t": 187199.99999999983,
      "d": 626.666666666657,
      "v": 110
    },
    {
      "midi": 49,
      "hit": false,
      "t": 187199.99999999983,
      "d": 653.3333333333139,
      "v": 110
    },
    {
      "midi": 56,
      "hit": false,
      "t": 187999.9999999998,
      "d": 540,
      "v": 110
    },
    {
      "midi": 60,
      "hit": false,
      "t": 187999.9999999998,
      "d": 546.666666666657,
      "v": 110
    },
    {
      "midi": 49,
      "hit": false,
      "t": 187999.9999999998,
      "d": 560,
      "v": 110
    },
    {
      "midi": 63,
      "hit": false,
      "t": 187999.9999999998,
      "d": 560,
      "v": 110
    },
    {
      "midi": 56,
      "hit": false,
      "t": 188799.9999999998,
      "d": 1053.333333333343,
      "v": 110
    },
    {
      "midi": 61,
      "hit": false,
      "t": 188799.9999999998,
      "d": 1100,
      "v": 110
    },
    {
      "midi": 65,
      "hit": false,
      "t": 188799.9999999998,
      "d": 1106.666666666657,
      "v": 110
    },
    {
      "midi": 49,
      "hit": false,
      "t": 188799.9999999998,
      "d": 1113.333333333314,
      "v": 110
    },
    {
      "midi": 56,
      "hit": false,
      "t": 189999.99999999977,
      "d": 133.33333333334303,
      "v": 110
    },
    {
      "midi": 61,
      "hit": false,
      "t": 189999.99999999977,
      "d": 133.33333333334303,
      "v": 110
    },
    {
      "midi": 65,
      "hit": false,
      "t": 189999.99999999977,
      "d": 140,
      "v": 110
    },
    {
      "midi": 49,
      "hit": false,
      "t": 189999.99999999977,
      "d": 173.33333333334303,
      "v": 110
    },
    {
      "midi": 56,
      "hit": false,
      "t": 190399.99999999977,
      "d": 1273.333333333343,
      "v": 110
    },
    {
      "midi": 61,
      "hit": false,
      "t": 190399.99999999977,
      "d": 1280,
      "v": 110
    },
    {
      "midi": 65,
      "hit": false,
      "t": 190399.99999999977,
      "d": 1293.333333333343,
      "v": 110
    },
    {
      "midi": 49,
      "hit": false,
      "t": 190399.99999999977,
      "d": 1353.333333333343,
      "v": 110
    },
    {
      "midi": 58,
      "hit": false,
      "t": 191999.99999999977,
      "d": 806.666666666657,
      "v": 110
    },
    {
      "midi": 63,
      "hit": false,
      "t": 191999.99999999977,
      "d": 820,
      "v": 110
    },
    {
      "midi": 67,
      "hit": false,
      "t": 191999.99999999977,
      "d": 820,
      "v": 110
    },
    {
      "midi": 51,
      "hit": false,
      "t": 191999.99999999977,
      "d": 846.666666666657,
      "v": 110
    },
    {
      "midi": 58,
      "hit": false,
      "t": 193199.99999999977,
      "d": 113.33333333334303,
      "v": 110
    },
    {
      "midi": 63,
      "hit": false,
      "t": 193199.99999999977,
      "d": 126.66666666668607,
      "v": 110
    },
    {
      "midi": 67,
      "hit": false,
      "t": 193199.99999999977,
      "d": 126.66666666668607,
      "v": 110
    },
    {
      "midi": 51,
      "hit": false,
      "t": 193199.99999999977,
      "d": 160.0000000000291,
      "v": 110
    },
    {
      "midi": 58,
      "hit": false,
      "t": 193599.9999999998,
      "d": 1213.333333333343,
      "v": 110
    },
    {
      "midi": 63,
      "hit": false,
      "t": 193599.9999999998,
      "d": 1213.333333333343,
      "v": 110
    },
    {
      "midi": 67,
      "hit": false,
      "t": 193599.9999999998,
      "d": 1220,
      "v": 110
    },
    {
      "midi": 51,
      "hit": false,
      "t": 193599.9999999998,
      "d": 1273.333333333343,
      "v": 110
    },
    {
      "midi": 49,
      "hit": false,
      "t": 195199.9999999998,
      "d": 1053.333333333343,
      "v": 110
    },
    {
      "midi": 56,
      "hit": false,
      "t": 195199.9999999998,
      "d": 1206.666666666657,
      "v": 110
    },
    {
      "midi": 61,
      "hit": false,
      "t": 195199.9999999998,
      "d": 1553.333333333314,
      "v": 110
    },
    {
      "midi": 65,
      "hit": false,
      "t": 195199.9999999998,
      "d": 1586.666666666657,
      "v": 110
    },
    {
      "midi": 49,
      "hit": false,
      "t": 196399.9999999998,
      "d": 1853.333333333314,
      "v": 110
    },
    {
      "midi": 56,
      "hit": false,
      "t": 196799.9999999998,
      "d": 966.666666666657,
      "v": 110
    },
    {
      "midi": 61,
      "hit": false,
      "t": 197199.9999999998,
      "d": 1046.666666666657,
      "v": 110
    },
    {
      "midi": 65,
      "hit": false,
      "t": 197599.9999999998,
      "d": 640,
      "v": 110
    },
    {
      "midi": 56,
      "hit": false,
      "t": 197999.9999999998,
      "d": 220,
      "v": 110
    },
    {
      "midi": 51,
      "hit": false,
      "t": 198399.99999999977,
      "d": 4266.666666666628,
      "v": 110
    },
    {
      "midi": 58,
      "hit": false,
      "t": 198399.99999999977,
      "d": 4266.666666666628,
      "v": 110
    },
    {
      "midi": 67,
      "hit": false,
      "t": 198399.99999999977,
      "d": 4333.333333333285,
      "v": 110
    },
    {
      "midi": 63,
      "hit": false,
      "t": 198399.99999999977,
      "d": 4399.999999999942,
      "v": 110
    },
    {
      "midi": 44,
      "hit": false,
      "t": 203199.9999999997,
      "d": 4673.333333333343,
      "v": 110
    },
    {
      "midi": 72,
      "hit": false,
      "t": 203199.9999999997,
      "d": 4706.666666666686,
      "v": 110
    },
    {
      "midi": 56,
      "hit": false,
      "t": 203199.9999999997,
      "d": 4793.333333333343,
      "v": 110
    },
    {
      "midi": 68,
      "hit": false,
      "t": 203199.9999999997,
      "d": 4833.333333333343,
      "v": 110
    },
    {
      "midi": 63,
      "hit": false,
      "t": 203199.9999999997,
      "d": 4900,
      "v": 110
    }
  ]
}