{
  "jsonPath": "Latin/Latin/Ricky Martin/popotitos.json",
  "path": "Latin\\Latin\\Ricky Martin\\Popotitos.mid",
  "name": "Popotitos",
  "difficulty": "Advanced",
  "bpm": 93.00033015117204,
  "notes": [
    {
      "midi": 57,
      "hit": false,
      "t": 13647.613541666666,
      "d": 136.36249999999927,
      "v": 44
    },
    {
      "midi": 60,
      "hit": false,
      "t": 13647.613541666666,
      "d": 136.36249999999927,
      "v": 44
    },
    {
      "midi": 64,
      "hit": false,
      "t": 13653.295312499999,
      "d": 159.08958333333248,
      "v": 44
    },
    {
      "midi": 60,
      "hit": false,
      "t": 14732.83177083333,
      "d": 136.36249999999927,
      "v": 44
    },
    {
      "midi": 57,
      "hit": false,
      "t": 14738.513541666664,
      "d": 124.99895833333358,
      "v": 44
    },
    {
      "midi": 64,
      "hit": false,
      "t": 14749.877083333331,
      "d": 159.08958333333248,
      "v": 44
    },
    {
      "midi": 55,
      "hit": false,
      "t": 15829.413541666663,
      "d": 136.36249999999927,
      "v": 54
    },
    {
      "midi": 64,
      "hit": false,
      "t": 15829.413541666663,
      "d": 147.7260416666668,
      "v": 54
    },
    {
      "midi": 59,
      "hit": false,
      "t": 15829.413541666663,
      "d": 170.453125,
      "v": 54
    },
    {
      "midi": 59,
      "hit": false,
      "t": 16920.313541666663,
      "d": 159.08958333333067,
      "v": 54
    },
    {
      "midi": 55,
      "hit": false,
      "t": 16925.995312499996,
      "d": 147.72604166666497,
      "v": 54
    },
    {
      "midi": 64,
      "hit": false,
      "t": 16925.995312499996,
      "d": 159.08958333333067,
      "v": 54
    },
    {
      "midi": 64,
      "hit": false,
      "t": 18011.21354166666,
      "d": 159.0895833333343,
      "v": 64
    },
    {
      "midi": 57,
      "hit": false,
      "t": 18011.21354166666,
      "d": 181.81666666666933,
      "v": 64
    },
    {
      "midi": 60,
      "hit": false,
      "t": 18011.21354166666,
      "d": 181.81666666666933,
      "v": 64
    },
    {
      "midi": 60,
      "hit": false,
      "t": 19102.113541666662,
      "d": 136.36249999999927,
      "v": 64
    },
    {
      "midi": 57,
      "hit": false,
      "t": 19102.113541666662,
      "d": 159.0895833333343,
      "v": 64
    },
    {
      "midi": 64,
      "hit": false,
      "t": 19102.113541666662,
      "d": 181.81666666666933,
      "v": 64
    },
    {
      "midi": 55,
      "hit": false,
      "t": 20198.695312499996,
      "d": 136.36249999999927,
      "v": 64
    },
    {
      "midi": 59,
      "hit": false,
      "t": 20198.695312499996,
      "d": 136.36249999999927,
      "v": 64
    },
    {
      "midi": 64,
      "hit": false,
      "t": 20198.695312499996,
      "d": 136.36249999999927,
      "v": 64
    },
    {
      "midi": 43,
      "hit": false,
      "t": 20727.099999999995,
      "d": 1034.0822916666657,
      "v": 97
    },
    {
      "midi": 55,
      "hit": false,
      "t": 21283.91354166666,
      "d": 136.36249999999927,
      "v": 74
    },
    {
      "midi": 59,
      "hit": false,
      "t": 21283.91354166666,
      "d": 136.36249999999927,
      "v": 74
    },
    {
      "midi": 64,
      "hit": false,
      "t": 21283.91354166666,
      "d": 136.36249999999927,
      "v": 74
    },
    {
      "midi": 45,
      "hit": false,
      "t": 21817.999999999993,
      "d": 647.7218749999993,
      "v": 100
    },
    {
      "midi": 57,
      "hit": false,
      "t": 22374.81354166666,
      "d": 181.8166666666657,
      "v": 84
    },
    {
      "midi": 60,
      "hit": false,
      "t": 22374.81354166666,
      "d": 227.27083333333212,
      "v": 84
    },
    {
      "midi": 64,
      "hit": false,
      "t": 22380.495312499992,
      "d": 181.8166666666657,
      "v": 84
    },
    {
      "midi": 57,
      "hit": false,
      "t": 23465.713541666657,
      "d": 159.0895833333343,
      "v": 84
    },
    {
      "midi": 60,
      "hit": false,
      "t": 23465.713541666657,
      "d": 159.0895833333343,
      "v": 84
    },
    {
      "midi": 64,
      "hit": false,
      "t": 23465.713541666657,
      "d": 204.54375000000073,
      "v": 84
    },
    {
      "midi": 55,
      "hit": false,
      "t": 24556.61354166666,
      "d": 124.99895833333358,
      "v": 84
    },
    {
      "midi": 64,
      "hit": false,
      "t": 24556.61354166666,
      "d": 170.453125,
      "v": 84
    },
    {
      "midi": 59,
      "hit": false,
      "t": 24556.61354166666,
      "d": 181.8166666666657,
      "v": 84
    },
    {
      "midi": 55,
      "hit": false,
      "t": 25647.513541666656,
      "d": 170.453125,
      "v": 84
    },
    {
      "midi": 59,
      "hit": false,
      "t": 25647.513541666656,
      "d": 204.54375000000073,
      "v": 84
    },
    {
      "midi": 64,
      "hit": false,
      "t": 25647.513541666656,
      "d": 249.99791666666715,
      "v": 84
    },
    {
      "midi": 60,
      "hit": false,
      "t": 26738.413541666658,
      "d": 204.5437499999971,
      "v": 84
    },
    {
      "midi": 64,
      "hit": false,
      "t": 26738.413541666658,
      "d": 204.5437499999971,
      "v": 84
    },
    {
      "midi": 57,
      "hit": false,
      "t": 26744.09531249999,
      "d": 181.8166666666657,
      "v": 84
    },
    {
      "midi": 57,
      "hit": false,
      "t": 27829.313541666656,
      "d": 147.72604166666497,
      "v": 84
    },
    {
      "midi": 60,
      "hit": false,
      "t": 27829.313541666656,
      "d": 170.453125,
      "v": 84
    },
    {
      "midi": 64,
      "hit": false,
      "t": 27829.313541666656,
      "d": 170.453125,
      "v": 84
    },
    {
      "midi": 64,
      "hit": false,
      "t": 28920.213541666657,
      "d": 159.0895833333343,
      "v": 84
    },
    {
      "midi": 55,
      "hit": false,
      "t": 28920.213541666657,
      "d": 181.81666666666933,
      "v": 84
    },
    {
      "midi": 59,
      "hit": false,
      "t": 28920.213541666657,
      "d": 204.54375000000437,
      "v": 84
    },
    {
      "midi": 59,
      "hit": false,
      "t": 30011.113541666662,
      "d": 181.81666666666206,
      "v": 84
    },
    {
      "midi": 55,
      "hit": false,
      "t": 30016.795312499995,
      "d": 147.72604166666497,
      "v": 84
    },
    {
      "midi": 64,
      "hit": false,
      "t": 30016.795312499995,
      "d": 159.08958333333067,
      "v": 84
    },
    {
      "midi": 45,
      "hit": false,
      "t": 30545.19999999999,
      "d": 556.8135416666664,
      "v": 78
    },
    {
      "midi": 64,
      "hit": false,
      "t": 31102.013541666656,
      "d": 147.72604166666497,
      "v": 90
    },
    {
      "midi": 57,
      "hit": false,
      "t": 31102.013541666656,
      "d": 159.08958333333067,
      "v": 89
    },
    {
      "midi": 60,
      "hit": false,
      "t": 31102.013541666656,
      "d": 159.08958333333067,
      "v": 87
    },
    {
      "midi": 57,
      "hit": false,
      "t": 32192.913541666654,
      "d": 136.36249999999927,
      "v": 84
    },
    {
      "midi": 60,
      "hit": false,
      "t": 32192.913541666654,
      "d": 136.36249999999927,
      "v": 84
    },
    {
      "midi": 64,
      "hit": false,
      "t": 32192.913541666654,
      "d": 136.36249999999927,
      "v": 84
    },
    {
      "midi": 40,
      "hit": false,
      "t": 32726.999999999985,
      "d": 579.5406250000015,
      "v": 71
    },
    {
      "midi": 55,
      "hit": false,
      "t": 33283.813541666656,
      "d": 136.36249999999563,
      "v": 84
    },
    {
      "midi": 59,
      "hit": false,
      "t": 33283.813541666656,
      "d": 136.36249999999563,
      "v": 84
    },
    {
      "midi": 64,
      "hit": false,
      "t": 33283.813541666656,
      "d": 136.36249999999563,
      "v": 84
    },
    {
      "midi": 43,
      "hit": false,
      "t": 33823.58177083332,
      "d": 670.448958333327,
      "v": 77
    },
    {
      "midi": 55,
      "hit": false,
      "t": 34374.71354166665,
      "d": 136.36249999999563,
      "v": 84
    },
    {
      "midi": 59,
      "hit": false,
      "t": 34374.71354166665,
      "d": 136.36249999999563,
      "v": 84
    },
    {
      "midi": 64,
      "hit": false,
      "t": 34374.71354166665,
      "d": 136.36249999999563,
      "v": 84
    },
    {
      "midi": 45,
      "hit": false,
      "t": 34908.79999999998,
      "d": 670.4489583333343,
      "v": 77
    },
    {
      "midi": 60,
      "hit": false,
      "t": 35465.61354166665,
      "d": 147.72604166666133,
      "v": 88
    },
    {
      "midi": 57,
      "hit": false,
      "t": 35465.61354166665,
      "d": 159.08958333332703,
      "v": 88
    },
    {
      "midi": 64,
      "hit": false,
      "t": 35465.61354166665,
      "d": 159.08958333332703,
      "v": 92
    },
    {
      "midi": 57,
      "hit": false,
      "t": 36556.513541666645,
      "d": 136.3625000000029,
      "v": 84
    },
    {
      "midi": 60,
      "hit": false,
      "t": 36556.513541666645,
      "d": 136.3625000000029,
      "v": 84
    },
    {
      "midi": 64,
      "hit": false,
      "t": 36556.513541666645,
      "d": 136.3625000000029,
      "v": 84
    },
    {
      "midi": 40,
      "hit": false,
      "t": 37090.599999999984,
      "d": 590.9041666666672,
      "v": 77
    },
    {
      "midi": 55,
      "hit": false,
      "t": 37647.413541666654,
      "d": 136.36249999999563,
      "v": 84
    },
    {
      "midi": 59,
      "hit": false,
      "t": 37647.413541666654,
      "d": 136.36249999999563,
      "v": 84
    },
    {
      "midi": 64,
      "hit": false,
      "t": 37647.413541666654,
      "d": 136.36249999999563,
      "v": 84
    },
    {
      "midi": 43,
      "hit": false,
      "t": 38187.18177083332,
      "d": 624.9947916666642,
      "v": 79
    },
    {
      "midi": 55,
      "hit": false,
      "t": 38732.631770833315,
      "d": 136.3625000000029,
      "v": 84
    },
    {
      "midi": 59,
      "hit": false,
      "t": 38732.631770833315,
      "d": 136.3625000000029,
      "v": 84
    },
    {
      "midi": 64,
      "hit": false,
      "t": 38732.631770833315,
      "d": 136.3625000000029,
      "v": 84
    },
    {
      "midi": 45,
      "hit": false,
      "t": 39272.39999999999,
      "d": 590.9041666666672,
      "v": 81
    },
    {
      "midi": 57,
      "hit": false,
      "t": 39829.21354166666,
      "d": 147.72604166666133,
      "v": 92
    },
    {
      "midi": 60,
      "hit": false,
      "t": 39829.21354166666,
      "d": 147.72604166666133,
      "v": 88
    },
    {
      "midi": 64,
      "hit": false,
      "t": 39829.21354166666,
      "d": 170.45312499999272,
      "v": 93
    },
    {
      "midi": 60,
      "hit": false,
      "t": 40914.43177083332,
      "d": 136.3625000000029,
      "v": 84
    },
    {
      "midi": 57,
      "hit": false,
      "t": 40920.11354166665,
      "d": 136.3625000000029,
      "v": 84
    },
    {
      "midi": 64,
      "hit": false,
      "t": 40920.11354166665,
      "d": 136.3625000000029,
      "v": 84
    },
    {
      "midi": 40,
      "hit": false,
      "t": 41459.88177083332,
      "d": 624.9947916666642,
      "v": 79
    },
    {
      "midi": 55,
      "hit": false,
      "t": 42011.01354166665,
      "d": 136.3625000000029,
      "v": 84
    },
    {
      "midi": 59,
      "hit": false,
      "t": 42011.01354166665,
      "d": 136.3625000000029,
      "v": 84
    },
    {
      "midi": 64,
      "hit": false,
      "t": 42011.01354166665,
      "d": 136.3625000000029,
      "v": 84
    },
    {
      "midi": 43,
      "hit": false,
      "t": 42545.09999999999,
      "d": 613.6312500000058,
      "v": 77
    },
    {
      "midi": 55,
      "hit": false,
      "t": 43101.91354166666,
      "d": 136.3625000000029,
      "v": 84
    },
    {
      "midi": 59,
      "hit": false,
      "t": 43101.91354166666,
      "d": 136.3625000000029,
      "v": 84
    },
    {
      "midi": 64,
      "hit": false,
      "t": 43101.91354166666,
      "d": 136.3625000000029,
      "v": 84
    },
    {
      "midi": 45,
      "hit": false,
      "t": 43636,
      "d": 693.176041666673,
      "v": 82
    },
    {
      "midi": 57,
      "hit": false,
      "t": 44198.4953125,
      "d": 170.453125,
      "v": 90
    },
    {
      "midi": 60,
      "hit": false,
      "t": 44198.4953125,
      "d": 181.8166666666657,
      "v": 93
    },
    {
      "midi": 64,
      "hit": false,
      "t": 44198.4953125,
      "d": 193.1802083333314,
      "v": 89
    },
    {
      "midi": 57,
      "hit": false,
      "t": 45289.395312500004,
      "d": 136.3625000000029,
      "v": 84
    },
    {
      "midi": 60,
      "hit": false,
      "t": 45289.395312500004,
      "d": 136.3625000000029,
      "v": 84
    },
    {
      "midi": 64,
      "hit": false,
      "t": 45289.395312500004,
      "d": 136.3625000000029,
      "v": 84
    },
    {
      "midi": 40,
      "hit": false,
      "t": 45817.80000000001,
      "d": 602.2677083333401,
      "v": 77
    },
    {
      "midi": 55,
      "hit": false,
      "t": 46374.61354166668,
      "d": 136.3625000000029,
      "v": 84
    },
    {
      "midi": 59,
      "hit": false,
      "t": 46374.61354166668,
      "d": 136.3625000000029,
      "v": 84
    },
    {
      "midi": 64,
      "hit": false,
      "t": 46374.61354166668,
      "d": 136.3625000000029,
      "v": 84
    },
    {
      "midi": 43,
      "hit": false,
      "t": 46908.70000000002,
      "d": 602.2677083333328,
      "v": 73
    },
    {
      "midi": 55,
      "hit": false,
      "t": 47465.51354166669,
      "d": 136.36249999999563,
      "v": 84
    },
    {
      "midi": 59,
      "hit": false,
      "t": 47471.19531250002,
      "d": 136.36249999999563,
      "v": 84
    },
    {
      "midi": 64,
      "hit": false,
      "t": 47471.19531250002,
      "d": 136.36249999999563,
      "v": 84
    },
    {
      "midi": 45,
      "hit": false,
      "t": 47999.60000000002,
      "d": 545.4499999999971,
      "v": 78
    },
    {
      "midi": 57,
      "hit": false,
      "t": 48556.41354166668,
      "d": 136.3625000000029,
      "v": 92
    },
    {
      "midi": 60,
      "hit": false,
      "t": 48556.41354166668,
      "d": 136.3625000000029,
      "v": 92
    },
    {
      "midi": 64,
      "hit": false,
      "t": 48556.41354166668,
      "d": 136.3625000000029,
      "v": 91
    },
    {
      "midi": 57,
      "hit": false,
      "t": 49652.99531250002,
      "d": 136.3625000000029,
      "v": 84
    },
    {
      "midi": 60,
      "hit": false,
      "t": 49652.99531250002,
      "d": 136.3625000000029,
      "v": 84
    },
    {
      "midi": 64,
      "hit": false,
      "t": 49652.99531250002,
      "d": 136.3625000000029,
      "v": 84
    },
    {
      "midi": 40,
      "hit": false,
      "t": 50187.081770833356,
      "d": 579.5406250000015,
      "v": 77
    },
    {
      "midi": 55,
      "hit": false,
      "t": 50743.895312500026,
      "d": 136.36249999999563,
      "v": 84
    },
    {
      "midi": 59,
      "hit": false,
      "t": 50743.895312500026,
      "d": 136.36249999999563,
      "v": 84
    },
    {
      "midi": 64,
      "hit": false,
      "t": 50743.895312500026,
      "d": 136.36249999999563,
      "v": 84
    },
    {
      "midi": 43,
      "hit": false,
      "t": 51272.300000000025,
      "d": 522.7229166666657,
      "v": 75
    },
    {
      "midi": 55,
      "hit": false,
      "t": 51829.11354166669,
      "d": 136.3625000000029,
      "v": 84
    },
    {
      "midi": 59,
      "hit": false,
      "t": 51829.11354166669,
      "d": 136.3625000000029,
      "v": 84
    },
    {
      "midi": 64,
      "hit": false,
      "t": 51829.11354166669,
      "d": 136.3625000000029,
      "v": 84
    },
    {
      "midi": 45,
      "hit": false,
      "t": 52363.200000000026,
      "d": 568.1770833333358,
      "v": 73
    },
    {
      "midi": 60,
      "hit": false,
      "t": 52920.013541666696,
      "d": 147.7260416666686,
      "v": 90
    },
    {
      "midi": 57,
      "hit": false,
      "t": 52920.013541666696,
      "d": 170.453125,
      "v": 90
    },
    {
      "midi": 64,
      "hit": false,
      "t": 52920.013541666696,
      "d": 170.453125,
      "v": 90
    },
    {
      "midi": 57,
      "hit": false,
      "t": 54005.231770833365,
      "d": 136.3625000000029,
      "v": 84
    },
    {
      "midi": 60,
      "hit": false,
      "t": 54005.231770833365,
      "d": 136.3625000000029,
      "v": 84
    },
    {
      "midi": 64,
      "hit": false,
      "t": 54005.231770833365,
      "d": 136.3625000000029,
      "v": 84
    },
    {
      "midi": 40,
      "hit": false,
      "t": 54545.00000000004,
      "d": 590.9041666666672,
      "v": 73
    },
    {
      "midi": 55,
      "hit": false,
      "t": 55101.81354166671,
      "d": 136.36249999999563,
      "v": 84
    },
    {
      "midi": 59,
      "hit": false,
      "t": 55101.81354166671,
      "d": 136.36249999999563,
      "v": 84
    },
    {
      "midi": 64,
      "hit": false,
      "t": 55101.81354166671,
      "d": 136.36249999999563,
      "v": 84
    },
    {
      "midi": 43,
      "hit": false,
      "t": 55635.90000000004,
      "d": 681.8125,
      "v": 72
    },
    {
      "midi": 55,
      "hit": false,
      "t": 56192.71354166671,
      "d": 136.36249999999563,
      "v": 84
    },
    {
      "midi": 59,
      "hit": false,
      "t": 56192.71354166671,
      "d": 136.36249999999563,
      "v": 84
    },
    {
      "midi": 64,
      "hit": false,
      "t": 56192.71354166671,
      "d": 136.36249999999563,
      "v": 84
    },
    {
      "midi": 45,
      "hit": false,
      "t": 56732.48177083337,
      "d": 590.9041666666599,
      "v": 74
    },
    {
      "midi": 57,
      "hit": false,
      "t": 57283.6135416667,
      "d": 136.36249999999563,
      "v": 91
    },
    {
      "midi": 60,
      "hit": false,
      "t": 57283.6135416667,
      "d": 136.36249999999563,
      "v": 87
    },
    {
      "midi": 64,
      "hit": false,
      "t": 57283.6135416667,
      "d": 136.36249999999563,
      "v": 94
    },
    {
      "midi": 57,
      "hit": false,
      "t": 58374.513541666696,
      "d": 136.3625000000029,
      "v": 84
    },
    {
      "midi": 60,
      "hit": false,
      "t": 58374.513541666696,
      "d": 136.3625000000029,
      "v": 84
    },
    {
      "midi": 64,
      "hit": false,
      "t": 58374.513541666696,
      "d": 136.3625000000029,
      "v": 84
    },
    {
      "midi": 40,
      "hit": false,
      "t": 58908.600000000035,
      "d": 602.2677083333401,
      "v": 72
    },
    {
      "midi": 55,
      "hit": false,
      "t": 59465.413541666705,
      "d": 136.3625000000029,
      "v": 84
    },
    {
      "midi": 59,
      "hit": false,
      "t": 59465.413541666705,
      "d": 136.3625000000029,
      "v": 84
    },
    {
      "midi": 64,
      "hit": false,
      "t": 59465.413541666705,
      "d": 136.3625000000029,
      "v": 84
    },
    {
      "midi": 43,
      "hit": false,
      "t": 59999.500000000044,
      "d": 568.1770833333358,
      "v": 75
    },
    {
      "midi": 55,
      "hit": false,
      "t": 60556.313541666714,
      "d": 136.36249999999563,
      "v": 84
    },
    {
      "midi": 59,
      "hit": false,
      "t": 60556.313541666714,
      "d": 136.36249999999563,
      "v": 84
    },
    {
      "midi": 64,
      "hit": false,
      "t": 60556.313541666714,
      "d": 136.36249999999563,
      "v": 84
    },
    {
      "midi": 45,
      "hit": false,
      "t": 61090.400000000045,
      "d": 613.6312500000058,
      "v": 75
    },
    {
      "midi": 57,
      "hit": false,
      "t": 61647.213541666715,
      "d": 136.3625000000029,
      "v": 88
    },
    {
      "midi": 60,
      "hit": false,
      "t": 61647.213541666715,
      "d": 136.3625000000029,
      "v": 88
    },
    {
      "midi": 64,
      "hit": false,
      "t": 61647.213541666715,
      "d": 136.3625000000029,
      "v": 91
    },
    {
      "midi": 57,
      "hit": false,
      "t": 62738.11354166672,
      "d": 136.3625000000029,
      "v": 84
    },
    {
      "midi": 60,
      "hit": false,
      "t": 62738.11354166672,
      "d": 136.3625000000029,
      "v": 84
    },
    {
      "midi": 64,
      "hit": false,
      "t": 62738.11354166672,
      "d": 136.3625000000029,
      "v": 84
    },
    {
      "midi": 45,
      "hit": false,
      "t": 63272.200000000055,
      "d": 602.2677083333401,
      "v": 80
    },
    {
      "midi": 57,
      "hit": false,
      "t": 63829.013541666725,
      "d": 136.3625000000029,
      "v": 84
    },
    {
      "midi": 60,
      "hit": false,
      "t": 63829.013541666725,
      "d": 136.3625000000029,
      "v": 84
    },
    {
      "midi": 64,
      "hit": false,
      "t": 63829.013541666725,
      "d": 136.3625000000029,
      "v": 84
    },
    {
      "midi": 45,
      "hit": false,
      "t": 64363.100000000064,
      "d": 590.9041666666672,
      "v": 73
    },
    {
      "midi": 57,
      "hit": false,
      "t": 64919.913541666734,
      "d": 136.36249999999563,
      "v": 81
    },
    {
      "midi": 60,
      "hit": false,
      "t": 64919.913541666734,
      "d": 136.36249999999563,
      "v": 84
    },
    {
      "midi": 64,
      "hit": false,
      "t": 64919.913541666734,
      "d": 136.36249999999563,
      "v": 84
    },
    {
      "midi": 38,
      "hit": false,
      "t": 65459.6817708334,
      "d": 613.6312500000058,
      "v": 74
    },
    {
      "midi": 57,
      "hit": false,
      "t": 66010.81354166674,
      "d": 136.3625000000029,
      "v": 84
    },
    {
      "midi": 62,
      "hit": false,
      "t": 66010.81354166674,
      "d": 136.3625000000029,
      "v": 84
    },
    {
      "midi": 65,
      "hit": false,
      "t": 66010.81354166674,
      "d": 136.3625000000029,
      "v": 84
    },
    {
      "midi": 40,
      "hit": false,
      "t": 66544.90000000007,
      "d": 602.2677083333256,
      "v": 77
    },
    {
      "midi": 57,
      "hit": false,
      "t": 67101.71354166673,
      "d": 136.3625000000029,
      "v": 84
    },
    {
      "midi": 60,
      "hit": false,
      "t": 67101.71354166673,
      "d": 136.3625000000029,
      "v": 84
    },
    {
      "midi": 64,
      "hit": false,
      "t": 67101.71354166673,
      "d": 136.3625000000029,
      "v": 84
    },
    {
      "midi": 41,
      "hit": false,
      "t": 67635.80000000006,
      "d": 806.8114583333372,
      "v": 78
    },
    {
      "midi": 53,
      "hit": false,
      "t": 68192.61354166672,
      "d": 136.3625000000029,
      "v": 84
    },
    {
      "midi": 57,
      "hit": false,
      "t": 68192.61354166672,
      "d": 136.3625000000029,
      "v": 84
    },
    {
      "midi": 60,
      "hit": false,
      "t": 68192.61354166672,
      "d": 136.3625000000029,
      "v": 83
    },
    {
      "midi": 45,
      "hit": false,
      "t": 68726.70000000007,
      "d": 670.4489583333343,
      "v": 77
    },
    {
      "midi": 53,
      "hit": false,
      "t": 69283.51354166673,
      "d": 136.3625000000029,
      "v": 84
    },
    {
      "midi": 57,
      "hit": false,
      "t": 69283.51354166673,
      "d": 136.3625000000029,
      "v": 84
    },
    {
      "midi": 60,
      "hit": false,
      "t": 69283.51354166673,
      "d": 136.3625000000029,
      "v": 84
    },
    {
      "midi": 43,
      "hit": false,
      "t": 69817.60000000006,
      "d": 602.2677083333401,
      "v": 71
    },
    {
      "midi": 59,
      "hit": false,
      "t": 70374.41354166673,
      "d": 136.36250000001746,
      "v": 84
    },
    {
      "midi": 55,
      "hit": false,
      "t": 70380.09531250007,
      "d": 136.36250000001746,
      "v": 84
    },
    {
      "midi": 62,
      "hit": false,
      "t": 70380.09531250007,
      "d": 136.36250000001746,
      "v": 84
    },
    {
      "midi": 55,
      "hit": false,
      "t": 71465.31354166675,
      "d": 136.3625000000029,
      "v": 84
    },
    {
      "midi": 59,
      "hit": false,
      "t": 71465.31354166675,
      "d": 136.3625000000029,
      "v": 84
    },
    {
      "midi": 62,
      "hit": false,
      "t": 71465.31354166675,
      "d": 136.3625000000029,
      "v": 84
    },
    {
      "midi": 43,
      "hit": false,
      "t": 71999.40000000008,
      "d": 602.2677083333256,
      "v": 73
    },
    {
      "midi": 55,
      "hit": false,
      "t": 72556.21354166674,
      "d": 136.3625000000029,
      "v": 82
    },
    {
      "midi": 59,
      "hit": false,
      "t": 72556.21354166674,
      "d": 136.3625000000029,
      "v": 78
    },
    {
      "midi": 62,
      "hit": false,
      "t": 72556.21354166674,
      "d": 136.3625000000029,
      "v": 84
    },
    {
      "midi": 55,
      "hit": false,
      "t": 73647.11354166675,
      "d": 136.3625000000029,
      "v": 84
    },
    {
      "midi": 59,
      "hit": false,
      "t": 73647.11354166675,
      "d": 136.3625000000029,
      "v": 84
    },
    {
      "midi": 62,
      "hit": false,
      "t": 73647.11354166675,
      "d": 136.3625000000029,
      "v": 84
    },
    {
      "midi": 38,
      "hit": false,
      "t": 74186.88177083342,
      "d": 636.3583333333227,
      "v": 69
    },
    {
      "midi": 57,
      "hit": false,
      "t": 74743.69531250009,
      "d": 136.36249999998836,
      "v": 84
    },
    {
      "midi": 62,
      "hit": false,
      "t": 74743.69531250009,
      "d": 136.36249999998836,
      "v": 84
    },
    {
      "midi": 65,
      "hit": false,
      "t": 74743.69531250009,
      "d": 136.36249999998836,
      "v": 84
    },
    {
      "midi": 40,
      "hit": false,
      "t": 75277.7817708334,
      "d": 624.9947916666715,
      "v": 69
    },
    {
      "midi": 57,
      "hit": false,
      "t": 75817.55000000008,
      "d": 136.3625000000029,
      "v": 84
    },
    {
      "midi": 60,
      "hit": false,
      "t": 75828.91354166674,
      "d": 136.3625000000029,
      "v": 84
    },
    {
      "midi": 64,
      "hit": false,
      "t": 75828.91354166674,
      "d": 136.3625000000029,
      "v": 84
    },
    {
      "midi": 41,
      "hit": false,
      "t": 76368.68177083341,
      "d": 693.1760416666802,
      "v": 75
    },
    {
      "midi": 53,
      "hit": false,
      "t": 76914.13177083341,
      "d": 136.3625000000029,
      "v": 84
    },
    {
      "midi": 57,
      "hit": false,
      "t": 76919.81354166675,
      "d": 136.3625000000029,
      "v": 84
    },
    {
      "midi": 60,
      "hit": false,
      "t": 76919.81354166675,
      "d": 136.3625000000029,
      "v": 84
    },
    {
      "midi": 45,
      "hit": false,
      "t": 77453.9000000001,
      "d": 704.5395833333314,
      "v": 71
    },
    {
      "midi": 53,
      "hit": false,
      "t": 78010.71354166676,
      "d": 136.3625000000029,
      "v": 84
    },
    {
      "midi": 57,
      "hit": false,
      "t": 78010.71354166676,
      "d": 136.3625000000029,
      "v": 83
    },
    {
      "midi": 60,
      "hit": false,
      "t": 78010.71354166676,
      "d": 136.3625000000029,
      "v": 84
    },
    {
      "midi": 43,
      "hit": false,
      "t": 78544.80000000009,
      "d": 693.1760416666657,
      "v": 71
    },
    {
      "midi": 55,
      "hit": false,
      "t": 79101.61354166675,
      "d": 136.3625000000029,
      "v": 84
    },
    {
      "midi": 59,
      "hit": false,
      "t": 79101.61354166675,
      "d": 136.3625000000029,
      "v": 82
    },
    {
      "midi": 62,
      "hit": false,
      "t": 79101.61354166675,
      "d": 136.3625000000029,
      "v": 84
    },
    {
      "midi": 55,
      "hit": false,
      "t": 80192.51354166676,
      "d": 136.3625000000029,
      "v": 84
    },
    {
      "midi": 59,
      "hit": false,
      "t": 80192.51354166676,
      "d": 136.3625000000029,
      "v": 84
    },
    {
      "midi": 62,
      "hit": false,
      "t": 80192.51354166676,
      "d": 136.3625000000029,
      "v": 84
    },
    {
      "midi": 43,
      "hit": false,
      "t": 80726.6000000001,
      "d": 261.3614583333401,
      "v": 84
    },
    {
      "midi": 45,
      "hit": false,
      "t": 82908.4000000001,
      "d": 613.6312499999913,
      "v": 78
    },
    {
      "midi": 57,
      "hit": false,
      "t": 83465.21354166676,
      "d": 136.36249999998836,
      "v": 84
    },
    {
      "midi": 60,
      "hit": false,
      "t": 83465.21354166676,
      "d": 136.36249999998836,
      "v": 84
    },
    {
      "midi": 64,
      "hit": false,
      "t": 83465.21354166676,
      "d": 136.36249999998836,
      "v": 84
    },
    {
      "midi": 57,
      "hit": false,
      "t": 84556.11354166675,
      "d": 136.3625000000029,
      "v": 84
    },
    {
      "midi": 60,
      "hit": false,
      "t": 84556.11354166675,
      "d": 136.3625000000029,
      "v": 84
    },
    {
      "midi": 64,
      "hit": false,
      "t": 84556.11354166675,
      "d": 136.3625000000029,
      "v": 84
    },
    {
      "midi": 40,
      "hit": false,
      "t": 85090.20000000008,
      "d": 556.8135416666628,
      "v": 78
    },
    {
      "midi": 55,
      "hit": false,
      "t": 85647.01354166675,
      "d": 136.3625000000029,
      "v": 84
    },
    {
      "midi": 59,
      "hit": false,
      "t": 85647.01354166675,
      "d": 136.3625000000029,
      "v": 84
    },
    {
      "midi": 64,
      "hit": false,
      "t": 85647.01354166675,
      "d": 136.3625000000029,
      "v": 84
    },
    {
      "midi": 43,
      "hit": false,
      "t": 86181.10000000008,
      "d": 568.177083333343,
      "v": 73
    },
    {
      "midi": 59,
      "hit": false,
      "t": 86737.91354166674,
      "d": 136.36250000001746,
      "v": 84
    },
    {
      "midi": 55,
      "hit": false,
      "t": 86743.59531250008,
      "d": 136.36250000001746,
      "v": 84
    },
    {
      "midi": 64,
      "hit": false,
      "t": 86743.59531250008,
      "d": 136.36250000001746,
      "v": 84
    },
    {
      "midi": 45,
      "hit": false,
      "t": 87272.0000000001,
      "d": 579.5406250000087,
      "v": 73
    },
    {
      "midi": 60,
      "hit": false,
      "t": 87828.81354166676,
      "d": 136.36250000001746,
      "v": 84
    },
    {
      "midi": 57,
      "hit": false,
      "t": 87834.4953125001,
      "d": 136.36250000001746,
      "v": 84
    },
    {
      "midi": 64,
      "hit": false,
      "t": 87834.4953125001,
      "d": 136.36250000001746,
      "v": 84
    },
    {
      "midi": 60,
      "hit": false,
      "t": 88919.71354166679,
      "d": 136.3625000000029,
      "v": 84
    },
    {
      "midi": 57,
      "hit": false,
      "t": 88925.39531250013,
      "d": 136.3625000000029,
      "v": 84
    },
    {
      "midi": 64,
      "hit": false,
      "t": 88925.39531250013,
      "d": 136.3625000000029,
      "v": 84
    },
    {
      "midi": 40,
      "hit": false,
      "t": 89459.48177083346,
      "d": 227.27083333332848,
      "v": 70
    },
    {
      "midi": 59,
      "hit": false,
      "t": 90010.61354166678,
      "d": 136.3625000000029,
      "v": 84
    },
    {
      "midi": 64,
      "hit": false,
      "t": 90010.61354166678,
      "d": 136.3625000000029,
      "v": 84
    },
    {
      "midi": 40,
      "hit": false,
      "t": 90010.61354166678,
      "d": 397.72395833334303,
      "v": 68
    },
    {
      "midi": 55,
      "hit": false,
      "t": 90016.29531250012,
      "d": 136.3625000000029,
      "v": 84
    },
    {
      "midi": 43,
      "hit": false,
      "t": 90544.70000000013,
      "d": 659.0854166666686,
      "v": 68
    },
    {
      "midi": 55,
      "hit": false,
      "t": 91101.51354166679,
      "d": 136.3625000000029,
      "v": 84
    },
    {
      "midi": 59,
      "hit": false,
      "t": 91101.51354166679,
      "d": 136.3625000000029,
      "v": 84
    },
    {
      "midi": 64,
      "hit": false,
      "t": 91101.51354166679,
      "d": 136.3625000000029,
      "v": 84
    },
    {
      "midi": 45,
      "hit": false,
      "t": 91641.28177083346,
      "d": 590.9041666666744,
      "v": 71
    },
    {
      "midi": 57,
      "hit": false,
      "t": 92192.4135416668,
      "d": 136.3625000000029,
      "v": 84
    },
    {
      "midi": 60,
      "hit": false,
      "t": 92192.4135416668,
      "d": 136.3625000000029,
      "v": 84
    },
    {
      "midi": 64,
      "hit": false,
      "t": 92192.4135416668,
      "d": 136.3625000000029,
      "v": 84
    },
    {
      "midi": 60,
      "hit": false,
      "t": 93283.31354166681,
      "d": 136.3625000000029,
      "v": 84
    },
    {
      "midi": 64,
      "hit": false,
      "t": 93283.31354166681,
      "d": 136.3625000000029,
      "v": 84
    },
    {
      "midi": 57,
      "hit": false,
      "t": 93288.99531250015,
      "d": 136.3625000000029,
      "v": 84
    },
    {
      "midi": 57,
      "hit": false,
      "t": 94374.21354166682,
      "d": 136.3625000000029,
      "v": 84
    },
    {
      "midi": 60,
      "hit": false,
      "t": 94374.21354166682,
      "d": 136.3625000000029,
      "v": 84
    },
    {
      "midi": 65,
      "hit": false,
      "t": 94374.21354166682,
      "d": 136.3625000000029,
      "v": 84
    },
    {
      "midi": 55,
      "hit": false,
      "t": 95465.11354166683,
      "d": 136.3625000000029,
      "v": 84
    },
    {
      "midi": 59,
      "hit": false,
      "t": 95465.11354166683,
      "d": 136.3625000000029,
      "v": 84
    },
    {
      "midi": 62,
      "hit": false,
      "t": 95465.11354166683,
      "d": 136.3625000000029,
      "v": 84
    },
    {
      "midi": 69,
      "hit": false,
      "t": 96556.01354166683,
      "d": 136.3625000000029,
      "v": 84
    },
    {
      "midi": 72,
      "hit": false,
      "t": 96556.01354166683,
      "d": 136.3625000000029,
      "v": 84
    },
    {
      "midi": 76,
      "hit": false,
      "t": 96561.69531250017,
      "d": 136.3625000000029,
      "v": 84
    },
    {
      "midi": 69,
      "hit": false,
      "t": 97646.91354166684,
      "d": 136.3625000000029,
      "v": 84
    },
    {
      "midi": 72,
      "hit": false,
      "t": 97646.91354166684,
      "d": 136.3625000000029,
      "v": 84
    },
    {
      "midi": 76,
      "hit": false,
      "t": 97646.91354166684,
      "d": 136.3625000000029,
      "v": 84
    },
    {
      "midi": 67,
      "hit": false,
      "t": 98737.81354166685,
      "d": 136.3625000000029,
      "v": 84
    },
    {
      "midi": 71,
      "hit": false,
      "t": 98737.81354166685,
      "d": 136.3625000000029,
      "v": 84
    },
    {
      "midi": 76,
      "hit": false,
      "t": 98743.49531250019,
      "d": 136.3625000000029,
      "v": 84
    },
    {
      "midi": 67,
      "hit": false,
      "t": 99828.71354166686,
      "d": 136.3625000000029,
      "v": 84
    },
    {
      "midi": 71,
      "hit": false,
      "t": 99828.71354166686,
      "d": 136.3625000000029,
      "v": 84
    },
    {
      "midi": 76,
      "hit": false,
      "t": 99828.71354166686,
      "d": 136.3625000000029,
      "v": 84
    },
    {
      "midi": 69,
      "hit": false,
      "t": 100919.61354166687,
      "d": 136.3625000000029,
      "v": 84
    },
    {
      "midi": 72,
      "hit": false,
      "t": 100919.61354166687,
      "d": 136.3625000000029,
      "v": 84
    },
    {
      "midi": 76,
      "hit": false,
      "t": 100919.61354166687,
      "d": 136.3625000000029,
      "v": 84
    },
    {
      "midi": 69,
      "hit": false,
      "t": 102010.51354166688,
      "d": 136.3625000000029,
      "v": 84
    },
    {
      "midi": 72,
      "hit": false,
      "t": 102010.51354166688,
      "d": 136.3625000000029,
      "v": 84
    },
    {
      "midi": 76,
      "hit": false,
      "t": 102010.51354166688,
      "d": 136.3625000000029,
      "v": 84
    },
    {
      "midi": 67,
      "hit": false,
      "t": 103101.41354166689,
      "d": 136.3625000000029,
      "v": 84
    },
    {
      "midi": 71,
      "hit": false,
      "t": 103101.41354166689,
      "d": 136.3625000000029,
      "v": 84
    },
    {
      "midi": 76,
      "hit": false,
      "t": 103101.41354166689,
      "d": 136.3625000000029,
      "v": 84
    },
    {
      "midi": 67,
      "hit": false,
      "t": 104192.3135416669,
      "d": 136.3625000000029,
      "v": 84
    },
    {
      "midi": 71,
      "hit": false,
      "t": 104192.3135416669,
      "d": 136.3625000000029,
      "v": 84
    },
    {
      "midi": 76,
      "hit": false,
      "t": 104192.3135416669,
      "d": 136.3625000000029,
      "v": 84
    },
    {
      "midi": 45,
      "hit": false,
      "t": 104726.40000000023,
      "d": 545.4499999999971,
      "v": 75
    },
    {
      "midi": 57,
      "hit": false,
      "t": 105283.21354166689,
      "d": 136.3625000000029,
      "v": 84
    },
    {
      "midi": 60,
      "hit": false,
      "t": 105283.21354166689,
      "d": 136.3625000000029,
      "v": 84
    },
    {
      "midi": 64,
      "hit": false,
      "t": 105283.21354166689,
      "d": 136.3625000000029,
      "v": 84
    },
    {
      "midi": 60,
      "hit": false,
      "t": 106368.43177083356,
      "d": 136.3625000000029,
      "v": 84
    },
    {
      "midi": 57,
      "hit": false,
      "t": 106379.79531250022,
      "d": 136.3625000000029,
      "v": 84
    },
    {
      "midi": 64,
      "hit": false,
      "t": 106379.79531250022,
      "d": 136.3625000000029,
      "v": 84
    },
    {
      "midi": 40,
      "hit": false,
      "t": 106908.20000000023,
      "d": 545.4499999999971,
      "v": 76
    },
    {
      "midi": 55,
      "hit": false,
      "t": 107465.01354166689,
      "d": 136.3625000000029,
      "v": 84
    },
    {
      "midi": 59,
      "hit": false,
      "t": 107465.01354166689,
      "d": 136.3625000000029,
      "v": 84
    },
    {
      "midi": 64,
      "hit": false,
      "t": 107465.01354166689,
      "d": 136.3625000000029,
      "v": 84
    },
    {
      "midi": 43,
      "hit": false,
      "t": 108004.78177083356,
      "d": 602.2677083333401,
      "v": 77
    },
    {
      "midi": 55,
      "hit": false,
      "t": 108555.9135416669,
      "d": 136.3625000000029,
      "v": 84
    },
    {
      "midi": 59,
      "hit": false,
      "t": 108555.9135416669,
      "d": 136.3625000000029,
      "v": 84
    },
    {
      "midi": 64,
      "hit": false,
      "t": 108555.9135416669,
      "d": 136.3625000000029,
      "v": 84
    },
    {
      "midi": 45,
      "hit": false,
      "t": 109090.00000000023,
      "d": 613.6312499999913,
      "v": 75
    },
    {
      "midi": 57,
      "hit": false,
      "t": 109646.8135416669,
      "d": 136.36249999998836,
      "v": 84
    },
    {
      "midi": 60,
      "hit": false,
      "t": 109646.8135416669,
      "d": 136.36249999998836,
      "v": 84
    },
    {
      "midi": 64,
      "hit": false,
      "t": 109646.8135416669,
      "d": 136.36249999998836,
      "v": 84
    },
    {
      "midi": 57,
      "hit": false,
      "t": 110737.71354166689,
      "d": 136.3625000000029,
      "v": 84
    },
    {
      "midi": 60,
      "hit": false,
      "t": 110737.71354166689,
      "d": 136.3625000000029,
      "v": 84
    },
    {
      "midi": 64,
      "hit": false,
      "t": 110737.71354166689,
      "d": 136.3625000000029,
      "v": 84
    },
    {
      "midi": 40,
      "hit": false,
      "t": 111271.80000000022,
      "d": 159.0895833333343,
      "v": 79
    },
    {
      "midi": 55,
      "hit": false,
      "t": 111828.61354166688,
      "d": 136.3625000000029,
      "v": 80
    },
    {
      "midi": 59,
      "hit": false,
      "t": 111828.61354166688,
      "d": 136.3625000000029,
      "v": 77
    },
    {
      "midi": 64,
      "hit": false,
      "t": 111828.61354166688,
      "d": 136.3625000000029,
      "v": 81
    },
    {
      "midi": 40,
      "hit": false,
      "t": 111828.61354166688,
      "d": 409.08750000000873,
      "v": 70
    },
    {
      "midi": 43,
      "hit": false,
      "t": 112362.70000000023,
      "d": 636.3583333333227,
      "v": 72
    },
    {
      "midi": 55,
      "hit": false,
      "t": 112919.51354166689,
      "d": 136.36249999998836,
      "v": 84
    },
    {
      "midi": 59,
      "hit": false,
      "t": 112919.51354166689,
      "d": 136.36249999998836,
      "v": 84
    },
    {
      "midi": 64,
      "hit": false,
      "t": 112919.51354166689,
      "d": 136.36249999998836,
      "v": 84
    },
    {
      "midi": 45,
      "hit": false,
      "t": 113453.60000000021,
      "d": 545.4499999999971,
      "v": 75
    },
    {
      "midi": 57,
      "hit": false,
      "t": 114010.41354166687,
      "d": 136.3625000000029,
      "v": 84
    },
    {
      "midi": 60,
      "hit": false,
      "t": 114010.41354166687,
      "d": 136.3625000000029,
      "v": 84
    },
    {
      "midi": 64,
      "hit": false,
      "t": 114010.41354166687,
      "d": 136.3625000000029,
      "v": 84
    },
    {
      "midi": 60,
      "hit": false,
      "t": 115095.63177083354,
      "d": 136.3625000000029,
      "v": 84
    },
    {
      "midi": 57,
      "hit": false,
      "t": 115106.9953125002,
      "d": 136.3625000000029,
      "v": 84
    },
    {
      "midi": 64,
      "hit": false,
      "t": 115106.9953125002,
      "d": 136.3625000000029,
      "v": 84
    },
    {
      "midi": 40,
      "hit": false,
      "t": 115635.40000000021,
      "d": 545.4499999999971,
      "v": 76
    },
    {
      "midi": 55,
      "hit": false,
      "t": 116192.21354166688,
      "d": 136.3625000000029,
      "v": 84
    },
    {
      "midi": 59,
      "hit": false,
      "t": 116192.21354166688,
      "d": 136.3625000000029,
      "v": 84
    },
    {
      "midi": 64,
      "hit": false,
      "t": 116192.21354166688,
      "d": 136.3625000000029,
      "v": 84
    },
    {
      "midi": 43,
      "hit": false,
      "t": 116731.98177083355,
      "d": 602.2677083333401,
      "v": 77
    },
    {
      "midi": 55,
      "hit": false,
      "t": 117283.11354166688,
      "d": 136.3625000000029,
      "v": 84
    },
    {
      "midi": 59,
      "hit": false,
      "t": 117283.11354166688,
      "d": 136.3625000000029,
      "v": 84
    },
    {
      "midi": 64,
      "hit": false,
      "t": 117283.11354166688,
      "d": 136.3625000000029,
      "v": 84
    },
    {
      "midi": 45,
      "hit": false,
      "t": 117817.20000000022,
      "d": 613.6312499999913,
      "v": 75
    },
    {
      "midi": 57,
      "hit": false,
      "t": 118374.01354166688,
      "d": 136.36249999998836,
      "v": 84
    },
    {
      "midi": 60,
      "hit": false,
      "t": 118374.01354166688,
      "d": 136.36249999998836,
      "v": 84
    },
    {
      "midi": 64,
      "hit": false,
      "t": 118374.01354166688,
      "d": 136.36249999998836,
      "v": 84
    },
    {
      "midi": 57,
      "hit": false,
      "t": 119464.91354166687,
      "d": 136.3625000000029,
      "v": 84
    },
    {
      "midi": 60,
      "hit": false,
      "t": 119464.91354166687,
      "d": 136.3625000000029,
      "v": 84
    },
    {
      "midi": 64,
      "hit": false,
      "t": 119464.91354166687,
      "d": 136.3625000000029,
      "v": 84
    },
    {
      "midi": 40,
      "hit": false,
      "t": 119999.0000000002,
      "d": 159.0895833333343,
      "v": 79
    },
    {
      "midi": 55,
      "hit": false,
      "t": 120555.81354166687,
      "d": 136.3625000000029,
      "v": 80
    },
    {
      "midi": 59,
      "hit": false,
      "t": 120555.81354166687,
      "d": 136.3625000000029,
      "v": 77
    },
    {
      "midi": 64,
      "hit": false,
      "t": 120555.81354166687,
      "d": 136.3625000000029,
      "v": 81
    },
    {
      "midi": 40,
      "hit": false,
      "t": 120555.81354166687,
      "d": 409.08750000000873,
      "v": 70
    },
    {
      "midi": 43,
      "hit": false,
      "t": 121089.90000000021,
      "d": 636.3583333333227,
      "v": 72
    },
    {
      "midi": 55,
      "hit": false,
      "t": 121646.71354166688,
      "d": 136.36249999998836,
      "v": 84
    },
    {
      "midi": 59,
      "hit": false,
      "t": 121646.71354166688,
      "d": 136.36249999998836,
      "v": 84
    },
    {
      "midi": 64,
      "hit": false,
      "t": 121646.71354166688,
      "d": 136.36249999998836,
      "v": 84
    },
    {
      "midi": 45,
      "hit": false,
      "t": 122180.80000000019,
      "d": 545.4499999999971,
      "v": 75
    },
    {
      "midi": 57,
      "hit": false,
      "t": 122737.61354166685,
      "d": 136.3625000000029,
      "v": 84
    },
    {
      "midi": 60,
      "hit": false,
      "t": 122737.61354166685,
      "d": 136.3625000000029,
      "v": 84
    },
    {
      "midi": 64,
      "hit": false,
      "t": 122737.61354166685,
      "d": 136.3625000000029,
      "v": 84
    },
    {
      "midi": 60,
      "hit": false,
      "t": 123822.83177083352,
      "d": 136.3625000000029,
      "v": 84
    },
    {
      "midi": 57,
      "hit": false,
      "t": 123834.19531250019,
      "d": 136.3625000000029,
      "v": 84
    },
    {
      "midi": 64,
      "hit": false,
      "t": 123834.19531250019,
      "d": 136.3625000000029,
      "v": 84
    },
    {
      "midi": 40,
      "hit": false,
      "t": 124362.6000000002,
      "d": 545.4499999999971,
      "v": 76
    },
    {
      "midi": 55,
      "hit": false,
      "t": 124919.41354166686,
      "d": 136.3625000000029,
      "v": 84
    },
    {
      "midi": 59,
      "hit": false,
      "t": 124919.41354166686,
      "d": 136.3625000000029,
      "v": 84
    },
    {
      "midi": 64,
      "hit": false,
      "t": 124919.41354166686,
      "d": 136.3625000000029,
      "v": 84
    },
    {
      "midi": 43,
      "hit": false,
      "t": 125459.18177083353,
      "d": 602.2677083333401,
      "v": 77
    },
    {
      "midi": 55,
      "hit": false,
      "t": 126010.31354166687,
      "d": 136.3625000000029,
      "v": 84
    },
    {
      "midi": 59,
      "hit": false,
      "t": 126010.31354166687,
      "d": 136.3625000000029,
      "v": 84
    },
    {
      "midi": 64,
      "hit": false,
      "t": 126010.31354166687,
      "d": 136.3625000000029,
      "v": 84
    },
    {
      "midi": 45,
      "hit": false,
      "t": 126544.4000000002,
      "d": 613.6312499999913,
      "v": 75
    },
    {
      "midi": 57,
      "hit": false,
      "t": 127101.21354166686,
      "d": 136.36249999998836,
      "v": 84
    },
    {
      "midi": 60,
      "hit": false,
      "t": 127101.21354166686,
      "d": 136.36249999998836,
      "v": 84
    },
    {
      "midi": 64,
      "hit": false,
      "t": 127101.21354166686,
      "d": 136.36249999998836,
      "v": 84
    },
    {
      "midi": 57,
      "hit": false,
      "t": 128192.11354166685,
      "d": 136.3625000000029,
      "v": 84
    },
    {
      "midi": 60,
      "hit": false,
      "t": 128192.11354166685,
      "d": 136.3625000000029,
      "v": 84
    },
    {
      "midi": 64,
      "hit": false,
      "t": 128192.11354166685,
      "d": 136.3625000000029,
      "v": 84
    },
    {
      "midi": 40,
      "hit": false,
      "t": 128726.20000000019,
      "d": 159.0895833333343,
      "v": 79
    },
    {
      "midi": 55,
      "hit": false,
      "t": 129283.01354166685,
      "d": 136.3625000000029,
      "v": 80
    },
    {
      "midi": 59,
      "hit": false,
      "t": 129283.01354166685,
      "d": 136.3625000000029,
      "v": 77
    },
    {
      "midi": 64,
      "hit": false,
      "t": 129283.01354166685,
      "d": 136.3625000000029,
      "v": 81
    },
    {
      "midi": 40,
      "hit": false,
      "t": 129283.01354166685,
      "d": 409.08750000000873,
      "v": 70
    },
    {
      "midi": 43,
      "hit": false,
      "t": 129817.1000000002,
      "d": 636.3583333333227,
      "v": 72
    },
    {
      "midi": 55,
      "hit": false,
      "t": 130373.91354166686,
      "d": 136.36249999998836,
      "v": 84
    },
    {
      "midi": 59,
      "hit": false,
      "t": 130373.91354166686,
      "d": 136.36249999998836,
      "v": 84
    },
    {
      "midi": 64,
      "hit": false,
      "t": 130373.91354166686,
      "d": 136.36249999998836,
      "v": 84
    },
    {
      "midi": 45,
      "hit": false,
      "t": 130908.00000000017,
      "d": 613.6312499999767,
      "v": 75
    },
    {
      "midi": 60,
      "hit": false,
      "t": 131464.81354166684,
      "d": 136.36249999998836,
      "v": 84
    },
    {
      "midi": 57,
      "hit": false,
      "t": 131470.49531250016,
      "d": 136.36249999998836,
      "v": 84
    },
    {
      "midi": 64,
      "hit": false,
      "t": 131470.49531250016,
      "d": 136.36249999998836,
      "v": 84
    },
    {
      "midi": 57,
      "hit": false,
      "t": 132555.71354166683,
      "d": 136.36249999998836,
      "v": 84
    },
    {
      "midi": 60,
      "hit": false,
      "t": 132555.71354166683,
      "d": 136.36249999998836,
      "v": 84
    },
    {
      "midi": 64,
      "hit": false,
      "t": 132555.71354166683,
      "d": 136.36249999998836,
      "v": 84
    },
    {
      "midi": 40,
      "hit": false,
      "t": 133095.4817708335,
      "d": 590.9041666666744,
      "v": 77
    },
    {
      "midi": 55,
      "hit": false,
      "t": 133646.61354166683,
      "d": 136.36250000001746,
      "v": 84
    },
    {
      "midi": 59,
      "hit": false,
      "t": 133646.61354166683,
      "d": 136.36250000001746,
      "v": 84
    },
    {
      "midi": 64,
      "hit": false,
      "t": 133646.61354166683,
      "d": 136.36250000001746,
      "v": 84
    },
    {
      "midi": 43,
      "hit": false,
      "t": 134186.3817708335,
      "d": 647.7218750000175,
      "v": 76
    },
    {
      "midi": 55,
      "hit": false,
      "t": 134737.51354166685,
      "d": 136.36250000001746,
      "v": 84
    },
    {
      "midi": 59,
      "hit": false,
      "t": 134737.51354166685,
      "d": 136.36250000001746,
      "v": 84
    },
    {
      "midi": 64,
      "hit": false,
      "t": 134737.51354166685,
      "d": 136.36250000001746,
      "v": 84
    },
    {
      "midi": 45,
      "hit": false,
      "t": 135271.6000000002,
      "d": 613.6312499999767,
      "v": 76
    },
    {
      "midi": 57,
      "hit": false,
      "t": 135834.0953125002,
      "d": 136.36249999998836,
      "v": 84
    },
    {
      "midi": 60,
      "hit": false,
      "t": 135834.0953125002,
      "d": 136.36249999998836,
      "v": 84
    },
    {
      "midi": 64,
      "hit": false,
      "t": 135834.0953125002,
      "d": 136.36249999998836,
      "v": 84
    },
    {
      "midi": 57,
      "hit": false,
      "t": 136919.31354166687,
      "d": 136.36249999998836,
      "v": 84
    },
    {
      "midi": 60,
      "hit": false,
      "t": 136919.31354166687,
      "d": 136.36249999998836,
      "v": 84
    },
    {
      "midi": 64,
      "hit": false,
      "t": 136924.9953125002,
      "d": 136.36249999998836,
      "v": 84
    },
    {
      "midi": 45,
      "hit": false,
      "t": 137453.40000000017,
      "d": 522.7229166666802,
      "v": 79
    },
    {
      "midi": 60,
      "hit": false,
      "t": 138004.5317708335,
      "d": 136.36249999998836,
      "v": 82
    },
    {
      "midi": 57,
      "hit": false,
      "t": 138010.21354166683,
      "d": 136.36249999998836,
      "v": 81
    },
    {
      "midi": 64,
      "hit": false,
      "t": 138010.21354166683,
      "d": 136.36249999998836,
      "v": 82
    },
    {
      "midi": 45,
      "hit": false,
      "t": 138549.9817708335,
      "d": 590.9041666666744,
      "v": 75
    },
    {
      "midi": 57,
      "hit": false,
      "t": 139101.11354166683,
      "d": 136.36250000001746,
      "v": 81
    },
    {
      "midi": 60,
      "hit": false,
      "t": 139101.11354166683,
      "d": 136.36250000001746,
      "v": 78
    },
    {
      "midi": 64,
      "hit": false,
      "t": 139101.11354166683,
      "d": 136.36250000001746,
      "v": 78
    },
    {
      "midi": 38,
      "hit": false,
      "t": 139640.8817708335,
      "d": 795.447916666657,
      "v": 75
    },
    {
      "midi": 57,
      "hit": false,
      "t": 140192.01354166685,
      "d": 136.36249999998836,
      "v": 84
    },
    {
      "midi": 62,
      "hit": false,
      "t": 140192.01354166685,
      "d": 136.36249999998836,
      "v": 84
    },
    {
      "midi": 65,
      "hit": false,
      "t": 140192.01354166685,
      "d": 136.36249999998836,
      "v": 84
    },
    {
      "midi": 40,
      "hit": false,
      "t": 140731.7817708335,
      "d": 784.0843750000349,
      "v": 75
    },
    {
      "midi": 57,
      "hit": false,
      "t": 141271.55000000016,
      "d": 136.36250000001746,
      "v": 84
    },
    {
      "midi": 60,
      "hit": false,
      "t": 141282.91354166684,
      "d": 136.36250000001746,
      "v": 84
    },
    {
      "midi": 64,
      "hit": false,
      "t": 141282.91354166684,
      "d": 136.36250000001746,
      "v": 84
    },
    {
      "midi": 41,
      "hit": false,
      "t": 141817.0000000002,
      "d": 545.4500000000116,
      "v": 71
    },
    {
      "midi": 53,
      "hit": false,
      "t": 142373.8135416669,
      "d": 136.36249999998836,
      "v": 84
    },
    {
      "midi": 57,
      "hit": false,
      "t": 142373.8135416669,
      "d": 136.36249999998836,
      "v": 84
    },
    {
      "midi": 60,
      "hit": false,
      "t": 142373.8135416669,
      "d": 136.36249999998836,
      "v": 84
    },
    {
      "midi": 45,
      "hit": false,
      "t": 142907.90000000023,
      "d": 1022.7187499999709,
      "v": 66
    },
    {
      "midi": 53,
      "hit": false,
      "t": 143464.7135416669,
      "d": 136.36249999998836,
      "v": 84
    },
    {
      "midi": 57,
      "hit": false,
      "t": 143464.7135416669,
      "d": 136.36249999998836,
      "v": 84
    },
    {
      "midi": 60,
      "hit": false,
      "t": 143464.7135416669,
      "d": 136.36249999998836,
      "v": 84
    },
    {
      "midi": 43,
      "hit": false,
      "t": 144004.48177083352,
      "d": 670.4489583333198,
      "v": 68
    },
    {
      "midi": 55,
      "hit": false,
      "t": 144561.29531250018,
      "d": 136.36249999998836,
      "v": 84
    },
    {
      "midi": 59,
      "hit": false,
      "t": 144561.29531250018,
      "d": 136.36249999998836,
      "v": 84
    },
    {
      "midi": 62,
      "hit": false,
      "t": 144561.29531250018,
      "d": 136.36249999998836,
      "v": 84
    },
    {
      "midi": 59,
      "hit": false,
      "t": 145640.8317708335,
      "d": 136.36249999998836,
      "v": 84
    },
    {
      "midi": 55,
      "hit": false,
      "t": 145646.51354166682,
      "d": 136.36249999998836,
      "v": 84
    },
    {
      "midi": 62,
      "hit": false,
      "t": 145646.51354166682,
      "d": 136.36249999998836,
      "v": 84
    },
    {
      "midi": 55,
      "hit": false,
      "t": 146737.4135416668,
      "d": 136.36249999998836,
      "v": 84
    },
    {
      "midi": 59,
      "hit": false,
      "t": 146737.4135416668,
      "d": 136.36249999998836,
      "v": 84
    },
    {
      "midi": 62,
      "hit": false,
      "t": 146737.4135416668,
      "d": 136.36249999998836,
      "v": 84
    },
    {
      "midi": 53,
      "hit": false,
      "t": 148368.08177083347,
      "d": 13295.34375,
      "v": 96
    },
    {
      "midi": 60,
      "hit": false,
      "t": 148368.08177083347,
      "d": 13306.70729166668,
      "v": 96
    },
    {
      "midi": 50,
      "hit": false,
      "t": 148368.08177083347,
      "d": 13318.07083333336,
      "v": 93
    },
    {
      "midi": 57,
      "hit": false,
      "t": 148368.08177083347,
      "d": 13329.43437500004,
      "v": 96
    },
    {
      "midi": 45,
      "hit": false,
      "t": 174544.00000000017,
      "d": 602.2677083333256,
      "v": 84
    },
    {
      "midi": 57,
      "hit": false,
      "t": 175095.1317708335,
      "d": 136.36249999998836,
      "v": 84
    },
    {
      "midi": 60,
      "hit": false,
      "t": 175095.1317708335,
      "d": 136.36249999998836,
      "v": 84
    },
    {
      "midi": 64,
      "hit": false,
      "t": 175095.1317708335,
      "d": 136.36249999998836,
      "v": 84
    },
    {
      "midi": 57,
      "hit": false,
      "t": 176186.0317708335,
      "d": 136.36249999998836,
      "v": 84
    },
    {
      "midi": 60,
      "hit": false,
      "t": 176186.0317708335,
      "d": 136.36249999998836,
      "v": 84
    },
    {
      "midi": 64,
      "hit": false,
      "t": 176186.0317708335,
      "d": 136.36249999998836,
      "v": 84
    },
    {
      "midi": 40,
      "hit": false,
      "t": 176731.4817708335,
      "d": 590.9041666666744,
      "v": 84
    },
    {
      "midi": 55,
      "hit": false,
      "t": 177276.9317708335,
      "d": 136.36249999998836,
      "v": 84
    },
    {
      "midi": 59,
      "hit": false,
      "t": 177276.9317708335,
      "d": 136.36249999998836,
      "v": 84
    },
    {
      "midi": 64,
      "hit": false,
      "t": 177276.9317708335,
      "d": 136.36249999998836,
      "v": 84
    },
    {
      "midi": 43,
      "hit": false,
      "t": 177822.38177083348,
      "d": 613.6312500000058,
      "v": 84
    },
    {
      "midi": 55,
      "hit": false,
      "t": 178367.8317708335,
      "d": 136.36249999998836,
      "v": 84
    },
    {
      "midi": 59,
      "hit": false,
      "t": 178367.8317708335,
      "d": 136.36249999998836,
      "v": 84
    },
    {
      "midi": 64,
      "hit": false,
      "t": 178367.8317708335,
      "d": 136.36249999998836,
      "v": 84
    },
    {
      "midi": 45,
      "hit": false,
      "t": 178913.28177083348,
      "d": 602.2677083333547,
      "v": 84
    },
    {
      "midi": 57,
      "hit": false,
      "t": 179458.7317708335,
      "d": 136.36250000001746,
      "v": 84
    },
    {
      "midi": 60,
      "hit": false,
      "t": 179458.7317708335,
      "d": 136.36250000001746,
      "v": 84
    },
    {
      "midi": 64,
      "hit": false,
      "t": 179458.7317708335,
      "d": 136.36250000001746,
      "v": 84
    },
    {
      "midi": 57,
      "hit": false,
      "t": 180549.6317708335,
      "d": 136.36249999998836,
      "v": 84
    },
    {
      "midi": 60,
      "hit": false,
      "t": 180549.6317708335,
      "d": 136.36249999998836,
      "v": 84
    },
    {
      "midi": 64,
      "hit": false,
      "t": 180549.6317708335,
      "d": 136.36249999998836,
      "v": 84
    },
    {
      "midi": 40,
      "hit": false,
      "t": 181089.40000000017,
      "d": 193.1802083333314,
      "v": 84
    },
    {
      "midi": 55,
      "hit": false,
      "t": 181640.5317708335,
      "d": 136.36249999998836,
      "v": 84
    },
    {
      "midi": 59,
      "hit": false,
      "t": 181640.5317708335,
      "d": 136.36249999998836,
      "v": 84
    },
    {
      "midi": 64,
      "hit": false,
      "t": 181640.5317708335,
      "d": 136.36249999998836,
      "v": 84
    },
    {
      "midi": 40,
      "hit": false,
      "t": 181640.5317708335,
      "d": 534.0864583333314,
      "v": 84
    },
    {
      "midi": 43,
      "hit": false,
      "t": 182180.30000000016,
      "d": 647.7218750000175,
      "v": 84
    },
    {
      "midi": 55,
      "hit": false,
      "t": 182731.4317708335,
      "d": 136.36250000001746,
      "v": 84
    },
    {
      "midi": 59,
      "hit": false,
      "t": 182731.4317708335,
      "d": 136.36250000001746,
      "v": 84
    },
    {
      "midi": 64,
      "hit": false,
      "t": 182731.4317708335,
      "d": 136.36250000001746,
      "v": 84
    },
    {
      "midi": 45,
      "hit": false,
      "t": 183276.8817708335,
      "d": 568.177083333343,
      "v": 84
    },
    {
      "midi": 57,
      "hit": false,
      "t": 183822.33177083352,
      "d": 136.36249999998836,
      "v": 84
    },
    {
      "midi": 60,
      "hit": false,
      "t": 183822.33177083352,
      "d": 136.36249999998836,
      "v": 84
    },
    {
      "midi": 64,
      "hit": false,
      "t": 183822.33177083352,
      "d": 136.36249999998836,
      "v": 84
    },
    {
      "midi": 57,
      "hit": false,
      "t": 184913.23177083352,
      "d": 136.36249999998836,
      "v": 84
    },
    {
      "midi": 60,
      "hit": false,
      "t": 184913.23177083352,
      "d": 136.36249999998836,
      "v": 84
    },
    {
      "midi": 64,
      "hit": false,
      "t": 184913.23177083352,
      "d": 136.36249999998836,
      "v": 84
    },
    {
      "midi": 38,
      "hit": false,
      "t": 185453.00000000017,
      "d": 659.0854166666686,
      "v": 84
    },
    {
      "midi": 50,
      "hit": false,
      "t": 186004.1317708335,
      "d": 136.36249999998836,
      "v": 84
    },
    {
      "midi": 53,
      "hit": false,
      "t": 186004.1317708335,
      "d": 136.36249999998836,
      "v": 84
    },
    {
      "midi": 57,
      "hit": false,
      "t": 186004.1317708335,
      "d": 136.36249999998836,
      "v": 84
    },
    {
      "midi": 40,
      "hit": false,
      "t": 186543.90000000017,
      "d": 636.3583333333372,
      "v": 84
    },
    {
      "midi": 52,
      "hit": false,
      "t": 187095.0317708335,
      "d": 136.36249999998836,
      "v": 84
    },
    {
      "midi": 55,
      "hit": false,
      "t": 187095.0317708335,
      "d": 136.36249999998836,
      "v": 84
    },
    {
      "midi": 59,
      "hit": false,
      "t": 187095.0317708335,
      "d": 136.36249999998836,
      "v": 84
    },
    {
      "midi": 41,
      "hit": false,
      "t": 187634.80000000016,
      "d": 681.8125,
      "v": 84
    },
    {
      "midi": 53,
      "hit": false,
      "t": 188185.9317708335,
      "d": 136.36249999998836,
      "v": 84
    },
    {
      "midi": 57,
      "hit": false,
      "t": 188185.9317708335,
      "d": 136.36249999998836,
      "v": 84
    },
    {
      "midi": 60,
      "hit": false,
      "t": 188185.9317708335,
      "d": 136.36249999998836,
      "v": 84
    },
    {
      "midi": 53,
      "hit": false,
      "t": 189276.8317708335,
      "d": 136.36249999998836,
      "v": 84
    },
    {
      "midi": 57,
      "hit": false,
      "t": 189276.8317708335,
      "d": 136.36249999998836,
      "v": 84
    },
    {
      "midi": 60,
      "hit": false,
      "t": 189276.8317708335,
      "d": 136.36249999998836,
      "v": 84
    },
    {
      "midi": 43,
      "hit": false,
      "t": 189822.28177083348,
      "d": 659.0854166666686,
      "v": 84
    },
    {
      "midi": 55,
      "hit": false,
      "t": 190367.7317708335,
      "d": 136.36249999998836,
      "v": 84
    },
    {
      "midi": 59,
      "hit": false,
      "t": 190367.7317708335,
      "d": 136.36249999998836,
      "v": 84
    },
    {
      "midi": 62,
      "hit": false,
      "t": 190367.7317708335,
      "d": 136.36249999998836,
      "v": 84
    },
    {
      "midi": 55,
      "hit": false,
      "t": 191458.63177083348,
      "d": 136.36249999998836,
      "v": 84
    },
    {
      "midi": 59,
      "hit": false,
      "t": 191458.63177083348,
      "d": 136.36249999998836,
      "v": 84
    },
    {
      "midi": 62,
      "hit": false,
      "t": 191458.63177083348,
      "d": 136.36249999998836,
      "v": 84
    },
    {
      "midi": 45,
      "hit": false,
      "t": 191998.40000000014,
      "d": 647.7218750000175,
      "v": 84
    },
    {
      "midi": 57,
      "hit": false,
      "t": 192549.53177083348,
      "d": 136.36250000001746,
      "v": 84
    },
    {
      "midi": 60,
      "hit": false,
      "t": 192549.53177083348,
      "d": 136.36250000001746,
      "v": 84
    },
    {
      "midi": 64,
      "hit": false,
      "t": 192549.53177083348,
      "d": 136.36250000001746,
      "v": 84
    },
    {
      "midi": 57,
      "hit": false,
      "t": 193640.4317708335,
      "d": 136.36249999998836,
      "v": 84
    },
    {
      "midi": 60,
      "hit": false,
      "t": 193640.4317708335,
      "d": 136.36249999998836,
      "v": 84
    },
    {
      "midi": 64,
      "hit": false,
      "t": 193640.4317708335,
      "d": 136.36249999998836,
      "v": 84
    },
    {
      "midi": 40,
      "hit": false,
      "t": 194185.88177083348,
      "d": 590.9041666666744,
      "v": 84
    },
    {
      "midi": 55,
      "hit": false,
      "t": 194731.3317708335,
      "d": 136.36249999998836,
      "v": 84
    },
    {
      "midi": 59,
      "hit": false,
      "t": 194731.3317708335,
      "d": 136.36249999998836,
      "v": 84
    },
    {
      "midi": 64,
      "hit": false,
      "t": 194731.3317708335,
      "d": 136.36249999998836,
      "v": 84
    },
    {
      "midi": 43,
      "hit": false,
      "t": 195271.10000000015,
      "d": 624.994791666657,
      "v": 84
    },
    {
      "midi": 55,
      "hit": false,
      "t": 195822.2317708335,
      "d": 136.36249999998836,
      "v": 84
    },
    {
      "midi": 59,
      "hit": false,
      "t": 195822.2317708335,
      "d": 136.36249999998836,
      "v": 84
    },
    {
      "midi": 64,
      "hit": false,
      "t": 195822.2317708335,
      "d": 136.36249999998836,
      "v": 84
    },
    {
      "midi": 45,
      "hit": false,
      "t": 196362.00000000015,
      "d": 624.994791666657,
      "v": 84
    },
    {
      "midi": 57,
      "hit": false,
      "t": 196913.13177083348,
      "d": 136.36249999998836,
      "v": 84
    },
    {
      "midi": 60,
      "hit": false,
      "t": 196913.13177083348,
      "d": 136.36249999998836,
      "v": 84
    },
    {
      "midi": 64,
      "hit": false,
      "t": 196913.13177083348,
      "d": 136.36249999998836,
      "v": 84
    },
    {
      "midi": 57,
      "hit": false,
      "t": 198004.03177083348,
      "d": 136.36249999998836,
      "v": 84
    },
    {
      "midi": 60,
      "hit": false,
      "t": 198004.03177083348,
      "d": 136.36249999998836,
      "v": 84
    },
    {
      "midi": 64,
      "hit": false,
      "t": 198004.03177083348,
      "d": 136.36249999998836,
      "v": 84
    },
    {
      "midi": 40,
      "hit": false,
      "t": 198543.80000000013,
      "d": 193.1802083333314,
      "v": 84
    },
    {
      "midi": 55,
      "hit": false,
      "t": 199094.93177083347,
      "d": 136.36249999998836,
      "v": 84
    },
    {
      "midi": 59,
      "hit": false,
      "t": 199094.93177083347,
      "d": 136.36249999998836,
      "v": 84
    },
    {
      "midi": 64,
      "hit": false,
      "t": 199094.93177083347,
      "d": 136.36249999998836,
      "v": 84
    },
    {
      "midi": 40,
      "hit": false,
      "t": 199094.93177083347,
      "d": 545.4499999999825,
      "v": 84
    },
    {
      "midi": 43,
      "hit": false,
      "t": 199634.70000000013,
      "d": 704.5395833333314,
      "v": 84
    },
    {
      "midi": 55,
      "hit": false,
      "t": 200185.83177083347,
      "d": 136.36249999998836,
      "v": 84
    },
    {
      "midi": 59,
      "hit": false,
      "t": 200185.83177083347,
      "d": 136.36249999998836,
      "v": 84
    },
    {
      "midi": 64,
      "hit": false,
      "t": 200185.83177083347,
      "d": 136.36249999998836,
      "v": 84
    },
    {
      "midi": 45,
      "hit": false,
      "t": 200731.28177083345,
      "d": 613.6312500000058,
      "v": 84
    },
    {
      "midi": 57,
      "hit": false,
      "t": 201276.73177083346,
      "d": 136.36249999998836,
      "v": 84
    },
    {
      "midi": 60,
      "hit": false,
      "t": 201276.73177083346,
      "d": 136.36249999998836,
      "v": 84
    },
    {
      "midi": 64,
      "hit": false,
      "t": 201276.73177083346,
      "d": 136.36249999998836,
      "v": 84
    },
    {
      "midi": 57,
      "hit": false,
      "t": 202367.63177083345,
      "d": 136.36249999998836,
      "v": 84
    },
    {
      "midi": 60,
      "hit": false,
      "t": 202367.63177083345,
      "d": 136.36249999998836,
      "v": 84
    },
    {
      "midi": 64,
      "hit": false,
      "t": 202367.63177083345,
      "d": 136.36249999998836,
      "v": 84
    },
    {
      "midi": 38,
      "hit": false,
      "t": 202913.08177083344,
      "d": 693.1760416666802,
      "v": 84
    },
    {
      "midi": 50,
      "hit": false,
      "t": 203458.53177083345,
      "d": 136.36249999998836,
      "v": 84
    },
    {
      "midi": 53,
      "hit": false,
      "t": 203458.53177083345,
      "d": 136.36249999998836,
      "v": 84
    },
    {
      "midi": 57,
      "hit": false,
      "t": 203458.53177083345,
      "d": 136.36249999998836,
      "v": 84
    },
    {
      "midi": 40,
      "hit": false,
      "t": 204003.98177083346,
      "d": 693.1760416666802,
      "v": 84
    },
    {
      "midi": 52,
      "hit": false,
      "t": 204549.43177083347,
      "d": 136.36249999998836,
      "v": 84
    },
    {
      "midi": 55,
      "hit": false,
      "t": 204549.43177083347,
      "d": 136.36249999998836,
      "v": 84
    },
    {
      "midi": 59,
      "hit": false,
      "t": 204549.43177083347,
      "d": 136.36249999998836,
      "v": 84
    },
    {
      "midi": 45,
      "hit": false,
      "t": 205094.88177083348,
      "d": 568.177083333343,
      "v": 84
    },
    {
      "midi": 57,
      "hit": false,
      "t": 205640.3317708335,
      "d": 136.36249999998836,
      "v": 84
    },
    {
      "midi": 60,
      "hit": false,
      "t": 205640.3317708335,
      "d": 136.36249999998836,
      "v": 84
    },
    {
      "midi": 64,
      "hit": false,
      "t": 205640.3317708335,
      "d": 136.36249999998836,
      "v": 84
    },
    {
      "midi": 57,
      "hit": false,
      "t": 206731.2317708335,
      "d": 136.36249999998836,
      "v": 84
    },
    {
      "midi": 60,
      "hit": false,
      "t": 206731.2317708335,
      "d": 136.36249999998836,
      "v": 84
    },
    {
      "midi": 64,
      "hit": false,
      "t": 206731.2317708335,
      "d": 136.36249999998836,
      "v": 84
    },
    {
      "midi": 40,
      "hit": false,
      "t": 207271.00000000015,
      "d": 556.8135416666628,
      "v": 84
    },
    {
      "midi": 55,
      "hit": false,
      "t": 207822.13177083348,
      "d": 136.36249999998836,
      "v": 84
    },
    {
      "midi": 59,
      "hit": false,
      "t": 207822.13177083348,
      "d": 136.36249999998836,
      "v": 84
    },
    {
      "midi": 64,
      "hit": false,
      "t": 207822.13177083348,
      "d": 136.36249999998836,
      "v": 84
    },
    {
      "midi": 43,
      "hit": false,
      "t": 208361.90000000014,
      "d": 579.5406249999942,
      "v": 84
    },
    {
      "midi": 55,
      "hit": false,
      "t": 208913.03177083348,
      "d": 136.36249999998836,
      "v": 84
    },
    {
      "midi": 59,
      "hit": false,
      "t": 208913.03177083348,
      "d": 136.36249999998836,
      "v": 84
    },
    {
      "midi": 64,
      "hit": false,
      "t": 208913.03177083348,
      "d": 136.36249999998836,
      "v": 84
    },
    {
      "midi": 45,
      "hit": false,
      "t": 209452.80000000013,
      "d": 545.4500000000116,
      "v": 84
    },
    {
      "midi": 57,
      "hit": false,
      "t": 210003.93177083347,
      "d": 136.36249999998836,
      "v": 84
    },
    {
      "midi": 60,
      "hit": false,
      "t": 210003.93177083347,
      "d": 136.36249999998836,
      "v": 84
    },
    {
      "midi": 64,
      "hit": false,
      "t": 210003.93177083347,
      "d": 136.36249999998836,
      "v": 84
    },
    {
      "midi": 57,
      "hit": false,
      "t": 211094.83177083347,
      "d": 136.36249999998836,
      "v": 84
    },
    {
      "midi": 60,
      "hit": false,
      "t": 211094.83177083347,
      "d": 136.36249999998836,
      "v": 84
    },
    {
      "midi": 64,
      "hit": false,
      "t": 211094.83177083347,
      "d": 136.36249999998836,
      "v": 84
    },
    {
      "midi": 40,
      "hit": false,
      "t": 211634.60000000012,
      "d": 590.9041666666744,
      "v": 84
    },
    {
      "midi": 55,
      "hit": false,
      "t": 212185.73177083346,
      "d": 136.36250000001746,
      "v": 84
    },
    {
      "midi": 59,
      "hit": false,
      "t": 212185.73177083346,
      "d": 136.36250000001746,
      "v": 84
    },
    {
      "midi": 64,
      "hit": false,
      "t": 212185.73177083346,
      "d": 136.36250000001746,
      "v": 84
    },
    {
      "midi": 43,
      "hit": false,
      "t": 212731.18177083347,
      "d": 602.2677083333547,
      "v": 84
    },
    {
      "midi": 55,
      "hit": false,
      "t": 213276.63177083348,
      "d": 136.36250000001746,
      "v": 84
    },
    {
      "midi": 59,
      "hit": false,
      "t": 213276.63177083348,
      "d": 136.36250000001746,
      "v": 84
    },
    {
      "midi": 64,
      "hit": false,
      "t": 213276.63177083348,
      "d": 136.36250000001746,
      "v": 84
    },
    {
      "midi": 45,
      "hit": false,
      "t": 213816.40000000017,
      "d": 545.4500000000116,
      "v": 75
    },
    {
      "midi": 57,
      "hit": false,
      "t": 214367.5317708335,
      "d": 136.36249999998836,
      "v": 84
    },
    {
      "midi": 60,
      "hit": false,
      "t": 214367.5317708335,
      "d": 136.36249999998836,
      "v": 84
    },
    {
      "midi": 64,
      "hit": false,
      "t": 214367.5317708335,
      "d": 136.36249999998836,
      "v": 84
    },
    {
      "midi": 57,
      "hit": false,
      "t": 215458.4317708335,
      "d": 136.36249999998836,
      "v": 84
    },
    {
      "midi": 60,
      "hit": false,
      "t": 215458.4317708335,
      "d": 136.36249999998836,
      "v": 84
    },
    {
      "midi": 64,
      "hit": false,
      "t": 215458.4317708335,
      "d": 136.36249999998836,
      "v": 84
    },
    {
      "midi": 40,
      "hit": false,
      "t": 215998.20000000016,
      "d": 545.4500000000116,
      "v": 76
    },
    {
      "midi": 55,
      "hit": false,
      "t": 216549.3317708335,
      "d": 136.36249999998836,
      "v": 84
    },
    {
      "midi": 59,
      "hit": false,
      "t": 216549.3317708335,
      "d": 136.36249999998836,
      "v": 84
    },
    {
      "midi": 64,
      "hit": false,
      "t": 216549.3317708335,
      "d": 136.36249999998836,
      "v": 84
    },
    {
      "midi": 43,
      "hit": false,
      "t": 217094.78177083348,
      "d": 602.2677083333547,
      "v": 77
    },
    {
      "midi": 55,
      "hit": false,
      "t": 217640.2317708335,
      "d": 136.36250000001746,
      "v": 84
    },
    {
      "midi": 59,
      "hit": false,
      "t": 217640.2317708335,
      "d": 136.36250000001746,
      "v": 84
    },
    {
      "midi": 64,
      "hit": false,
      "t": 217640.2317708335,
      "d": 136.36250000001746,
      "v": 84
    },
    {
      "midi": 45,
      "hit": false,
      "t": 218180.00000000017,
      "d": 613.6312500000058,
      "v": 75
    },
    {
      "midi": 57,
      "hit": false,
      "t": 218731.1317708335,
      "d": 136.36249999998836,
      "v": 84
    },
    {
      "midi": 60,
      "hit": false,
      "t": 218731.1317708335,
      "d": 136.36249999998836,
      "v": 84
    },
    {
      "midi": 64,
      "hit": false,
      "t": 218731.1317708335,
      "d": 136.36249999998836,
      "v": 84
    },
    {
      "midi": 57,
      "hit": false,
      "t": 219822.0317708335,
      "d": 136.36249999998836,
      "v": 84
    },
    {
      "midi": 60,
      "hit": false,
      "t": 219822.0317708335,
      "d": 136.36249999998836,
      "v": 84
    },
    {
      "midi": 64,
      "hit": false,
      "t": 219822.0317708335,
      "d": 136.36249999998836,
      "v": 84
    },
    {
      "midi": 40,
      "hit": false,
      "t": 220361.80000000016,
      "d": 159.08958333331975,
      "v": 79
    },
    {
      "midi": 55,
      "hit": false,
      "t": 220912.93177083347,
      "d": 136.36249999998836,
      "v": 80
    },
    {
      "midi": 59,
      "hit": false,
      "t": 220912.93177083347,
      "d": 136.36249999998836,
      "v": 77
    },
    {
      "midi": 64,
      "hit": false,
      "t": 220912.93177083347,
      "d": 136.36249999998836,
      "v": 81
    },
    {
      "midi": 40,
      "hit": false,
      "t": 220912.93177083347,
      "d": 409.0874999999942,
      "v": 70
    },
    {
      "midi": 43,
      "hit": false,
      "t": 221452.70000000013,
      "d": 636.3583333333372,
      "v": 72
    },
    {
      "midi": 55,
      "hit": false,
      "t": 222003.83177083347,
      "d": 136.36249999998836,
      "v": 84
    },
    {
      "midi": 59,
      "hit": false,
      "t": 222003.83177083347,
      "d": 136.36249999998836,
      "v": 84
    },
    {
      "midi": 64,
      "hit": false,
      "t": 222003.83177083347,
      "d": 136.36249999998836,
      "v": 84
    },
    {
      "midi": 45,
      "hit": false,
      "t": 222543.60000000012,
      "d": 545.4500000000116,
      "v": 75
    },
    {
      "midi": 57,
      "hit": false,
      "t": 223094.73177083346,
      "d": 136.36249999998836,
      "v": 84
    },
    {
      "midi": 60,
      "hit": false,
      "t": 223094.73177083346,
      "d": 136.36249999998836,
      "v": 84
    },
    {
      "midi": 64,
      "hit": false,
      "t": 223094.73177083346,
      "d": 136.36249999998836,
      "v": 84
    },
    {
      "midi": 57,
      "hit": false,
      "t": 224185.63177083345,
      "d": 136.36249999998836,
      "v": 84
    },
    {
      "midi": 60,
      "hit": false,
      "t": 224185.63177083345,
      "d": 136.36249999998836,
      "v": 84
    },
    {
      "midi": 64,
      "hit": false,
      "t": 224185.63177083345,
      "d": 136.36249999998836,
      "v": 84
    },
    {
      "midi": 40,
      "hit": false,
      "t": 224725.4000000001,
      "d": 545.4500000000116,
      "v": 76
    },
    {
      "midi": 55,
      "hit": false,
      "t": 225276.53177083345,
      "d": 136.36249999998836,
      "v": 84
    },
    {
      "midi": 59,
      "hit": false,
      "t": 225276.53177083345,
      "d": 136.36249999998836,
      "v": 84
    },
    {
      "midi": 64,
      "hit": false,
      "t": 225276.53177083345,
      "d": 136.36249999998836,
      "v": 84
    },
    {
      "midi": 43,
      "hit": false,
      "t": 225821.98177083343,
      "d": 602.2677083333547,
      "v": 77
    },
    {
      "midi": 55,
      "hit": false,
      "t": 226367.43177083344,
      "d": 136.36250000001746,
      "v": 84
    },
    {
      "midi": 59,
      "hit": false,
      "t": 226367.43177083344,
      "d": 136.36250000001746,
      "v": 84
    },
    {
      "midi": 64,
      "hit": false,
      "t": 226367.43177083344,
      "d": 136.36250000001746,
      "v": 84
    },
    {
      "midi": 45,
      "hit": false,
      "t": 226907.20000000013,
      "d": 613.6312500000058,
      "v": 75
    },
    {
      "midi": 57,
      "hit": false,
      "t": 227458.33177083347,
      "d": 136.36249999998836,
      "v": 84
    },
    {
      "midi": 60,
      "hit": false,
      "t": 227458.33177083347,
      "d": 136.36249999998836,
      "v": 84
    },
    {
      "midi": 64,
      "hit": false,
      "t": 227458.33177083347,
      "d": 136.36249999998836,
      "v": 84
    },
    {
      "midi": 57,
      "hit": false,
      "t": 228549.23177083346,
      "d": 136.36249999998836,
      "v": 84
    },
    {
      "midi": 60,
      "hit": false,
      "t": 228549.23177083346,
      "d": 136.36249999998836,
      "v": 84
    },
    {
      "midi": 64,
      "hit": false,
      "t": 228549.23177083346,
      "d": 136.36249999998836,
      "v": 84
    },
    {
      "midi": 40,
      "hit": false,
      "t": 229089.00000000012,
      "d": 159.08958333331975,
      "v": 79
    },
    {
      "midi": 55,
      "hit": false,
      "t": 229640.13177083342,
      "d": 136.36249999998836,
      "v": 80
    },
    {
      "midi": 59,
      "hit": false,
      "t": 229640.13177083342,
      "d": 136.36249999998836,
      "v": 77
    },
    {
      "midi": 64,
      "hit": false,
      "t": 229640.13177083342,
      "d": 136.36249999998836,
      "v": 81
    },
    {
      "midi": 40,
      "hit": false,
      "t": 229640.13177083342,
      "d": 409.0874999999942,
      "v": 70
    },
    {
      "midi": 43,
      "hit": false,
      "t": 230179.90000000008,
      "d": 636.3583333333372,
      "v": 72
    },
    {
      "midi": 55,
      "hit": false,
      "t": 230731.03177083342,
      "d": 136.36249999998836,
      "v": 84
    },
    {
      "midi": 59,
      "hit": false,
      "t": 230731.03177083342,
      "d": 136.36249999998836,
      "v": 84
    },
    {
      "midi": 64,
      "hit": false,
      "t": 230731.03177083342,
      "d": 136.36249999998836,
      "v": 84
    },
    {
      "midi": 45,
      "hit": false,
      "t": 231270.80000000008,
      "d": 545.4500000000116,
      "v": 75
    },
    {
      "midi": 57,
      "hit": false,
      "t": 231821.9317708334,
      "d": 136.36249999998836,
      "v": 84
    },
    {
      "midi": 60,
      "hit": false,
      "t": 231821.9317708334,
      "d": 136.36249999998836,
      "v": 84
    },
    {
      "midi": 64,
      "hit": false,
      "t": 231821.9317708334,
      "d": 136.36249999998836,
      "v": 84
    },
    {
      "midi": 57,
      "hit": false,
      "t": 232912.8317708334,
      "d": 136.36249999998836,
      "v": 84
    },
    {
      "midi": 60,
      "hit": false,
      "t": 232912.8317708334,
      "d": 136.36249999998836,
      "v": 84
    },
    {
      "midi": 64,
      "hit": false,
      "t": 232912.8317708334,
      "d": 136.36249999998836,
      "v": 84
    },
    {
      "midi": 40,
      "hit": false,
      "t": 233452.60000000006,
      "d": 545.4500000000116,
      "v": 76
    },
    {
      "midi": 55,
      "hit": false,
      "t": 234003.7317708334,
      "d": 136.36249999998836,
      "v": 84
    },
    {
      "midi": 59,
      "hit": false,
      "t": 234003.7317708334,
      "d": 136.36249999998836,
      "v": 84
    },
    {
      "midi": 64,
      "hit": false,
      "t": 234003.7317708334,
      "d": 136.36249999998836,
      "v": 84
    },
    {
      "midi": 43,
      "hit": false,
      "t": 234549.18177083338,
      "d": 602.2677083333547,
      "v": 77
    },
    {
      "midi": 55,
      "hit": false,
      "t": 235094.6317708334,
      "d": 136.36250000001746,
      "v": 84
    },
    {
      "midi": 59,
      "hit": false,
      "t": 235094.6317708334,
      "d": 136.36250000001746,
      "v": 84
    },
    {
      "midi": 64,
      "hit": false,
      "t": 235094.6317708334,
      "d": 136.36250000001746,
      "v": 84
    },
    {
      "midi": 45,
      "hit": false,
      "t": 235634.40000000008,
      "d": 613.6312500000058,
      "v": 75
    },
    {
      "midi": 57,
      "hit": false,
      "t": 236185.53177083342,
      "d": 136.36249999998836,
      "v": 84
    },
    {
      "midi": 60,
      "hit": false,
      "t": 236185.53177083342,
      "d": 136.36249999998836,
      "v": 84
    },
    {
      "midi": 64,
      "hit": false,
      "t": 236185.53177083342,
      "d": 136.36249999998836,
      "v": 84
    },
    {
      "midi": 57,
      "hit": false,
      "t": 237276.4317708334,
      "d": 136.36249999998836,
      "v": 84
    },
    {
      "midi": 60,
      "hit": false,
      "t": 237276.4317708334,
      "d": 136.36249999998836,
      "v": 84
    },
    {
      "midi": 64,
      "hit": false,
      "t": 237276.4317708334,
      "d": 136.36249999998836,
      "v": 84
    },
    {
      "midi": 40,
      "hit": false,
      "t": 237816.20000000007,
      "d": 159.08958333331975,
      "v": 79
    },
    {
      "midi": 55,
      "hit": false,
      "t": 238367.33177083338,
      "d": 136.36249999998836,
      "v": 80
    },
    {
      "midi": 59,
      "hit": false,
      "t": 238367.33177083338,
      "d": 136.36249999998836,
      "v": 77
    },
    {
      "midi": 64,
      "hit": false,
      "t": 238367.33177083338,
      "d": 136.36249999998836,
      "v": 81
    },
    {
      "midi": 40,
      "hit": false,
      "t": 238367.33177083338,
      "d": 409.0874999999942,
      "v": 70
    },
    {
      "midi": 43,
      "hit": false,
      "t": 238907.10000000003,
      "d": 636.3583333333372,
      "v": 72
    },
    {
      "midi": 55,
      "hit": false,
      "t": 239458.23177083337,
      "d": 136.36249999998836,
      "v": 84
    },
    {
      "midi": 59,
      "hit": false,
      "t": 239458.23177083337,
      "d": 136.36249999998836,
      "v": 84
    },
    {
      "midi": 64,
      "hit": false,
      "t": 239458.23177083337,
      "d": 136.36249999998836,
      "v": 84
    },
    {
      "midi": 45,
      "hit": false,
      "t": 239998.00000000003,
      "d": 613.6312500000058,
      "v": 75
    },
    {
      "midi": 57,
      "hit": false,
      "t": 240549.13177083337,
      "d": 136.36249999998836,
      "v": 84
    },
    {
      "midi": 60,
      "hit": false,
      "t": 240549.13177083337,
      "d": 136.36249999998836,
      "v": 84
    },
    {
      "midi": 64,
      "hit": false,
      "t": 240549.13177083337,
      "d": 136.36249999998836,
      "v": 84
    },
    {
      "midi": 57,
      "hit": false,
      "t": 241640.03177083336,
      "d": 136.36249999998836,
      "v": 84
    },
    {
      "midi": 60,
      "hit": false,
      "t": 241640.03177083336,
      "d": 136.36249999998836,
      "v": 84
    },
    {
      "midi": 64,
      "hit": false,
      "t": 241640.03177083336,
      "d": 136.36249999998836,
      "v": 84
    },
    {
      "midi": 40,
      "hit": false,
      "t": 242185.48177083334,
      "d": 590.9041666666744,
      "v": 77
    },
    {
      "midi": 55,
      "hit": false,
      "t": 242730.93177083335,
      "d": 136.36249999998836,
      "v": 84
    },
    {
      "midi": 59,
      "hit": false,
      "t": 242730.93177083335,
      "d": 136.36249999998836,
      "v": 84
    },
    {
      "midi": 64,
      "hit": false,
      "t": 242730.93177083335,
      "d": 136.36249999998836,
      "v": 84
    },
    {
      "midi": 43,
      "hit": false,
      "t": 243276.38177083334,
      "d": 647.7218750000175,
      "v": 76
    },
    {
      "midi": 55,
      "hit": false,
      "t": 243821.83177083335,
      "d": 136.36250000001746,
      "v": 84
    },
    {
      "midi": 59,
      "hit": false,
      "t": 243821.83177083335,
      "d": 136.36250000001746,
      "v": 84
    },
    {
      "midi": 64,
      "hit": false,
      "t": 243821.83177083335,
      "d": 136.36250000001746,
      "v": 84
    },
    {
      "midi": 45,
      "hit": false,
      "t": 244361.60000000003,
      "d": 613.6312500000058,
      "v": 76
    },
    {
      "midi": 57,
      "hit": false,
      "t": 244912.73177083337,
      "d": 136.36249999998836,
      "v": 84
    },
    {
      "midi": 60,
      "hit": false,
      "t": 244912.73177083337,
      "d": 136.36249999998836,
      "v": 84
    },
    {
      "midi": 64,
      "hit": false,
      "t": 244912.73177083337,
      "d": 136.36249999998836,
      "v": 84
    },
    {
      "midi": 57,
      "hit": false,
      "t": 246003.63177083337,
      "d": 136.36249999998836,
      "v": 84
    },
    {
      "midi": 60,
      "hit": false,
      "t": 246003.63177083337,
      "d": 136.36249999998836,
      "v": 84
    },
    {
      "midi": 64,
      "hit": false,
      "t": 246003.63177083337,
      "d": 136.36249999998836,
      "v": 84
    },
    {
      "midi": 45,
      "hit": false,
      "t": 246543.40000000002,
      "d": 522.7229166666802,
      "v": 79
    },
    {
      "midi": 57,
      "hit": false,
      "t": 247094.53177083336,
      "d": 136.36249999998836,
      "v": 81
    },
    {
      "midi": 60,
      "hit": false,
      "t": 247094.53177083336,
      "d": 136.36249999998836,
      "v": 82
    },
    {
      "midi": 64,
      "hit": false,
      "t": 247094.53177083336,
      "d": 136.36249999998836,
      "v": 82
    },
    {
      "midi": 45,
      "hit": false,
      "t": 247639.98177083334,
      "d": 590.9041666666744,
      "v": 75
    },
    {
      "midi": 57,
      "hit": false,
      "t": 248185.43177083335,
      "d": 136.36249999998836,
      "v": 81
    },
    {
      "midi": 60,
      "hit": false,
      "t": 248185.43177083335,
      "d": 136.36249999998836,
      "v": 78
    },
    {
      "midi": 64,
      "hit": false,
      "t": 248185.43177083335,
      "d": 136.36249999998836,
      "v": 78
    },
    {
      "midi": 38,
      "hit": false,
      "t": 248730.88177083334,
      "d": 613.6312500000058,
      "v": 74
    },
    {
      "midi": 57,
      "hit": false,
      "t": 249276.33177083335,
      "d": 136.36249999998836,
      "v": 84
    },
    {
      "midi": 62,
      "hit": false,
      "t": 249276.33177083335,
      "d": 136.36249999998836,
      "v": 84
    },
    {
      "midi": 65,
      "hit": false,
      "t": 249276.33177083335,
      "d": 136.36249999998836,
      "v": 84
    },
    {
      "midi": 40,
      "hit": false,
      "t": 249816.1,
      "d": 602.2677083333256,
      "v": 77
    },
    {
      "midi": 57,
      "hit": false,
      "t": 250367.23177083334,
      "d": 136.36249999998836,
      "v": 84
    },
    {
      "midi": 60,
      "hit": false,
      "t": 250367.23177083334,
      "d": 136.36249999998836,
      "v": 84
    },
    {
      "midi": 64,
      "hit": false,
      "t": 250367.23177083334,
      "d": 136.36249999998836,
      "v": 84
    },
    {
      "midi": 41,
      "hit": false,
      "t": 250907,
      "d": 806.8114583333372,
      "v": 78
    },
    {
      "midi": 53,
      "hit": false,
      "t": 251458.13177083334,
      "d": 136.36249999998836,
      "v": 84
    },
    {
      "midi": 57,
      "hit": false,
      "t": 251458.13177083334,
      "d": 136.36249999998836,
      "v": 84
    },
    {
      "midi": 60,
      "hit": false,
      "t": 251458.13177083334,
      "d": 136.36249999998836,
      "v": 83
    },
    {
      "midi": 45,
      "hit": false,
      "t": 251997.9,
      "d": 670.4489583333489,
      "v": 77
    },
    {
      "midi": 53,
      "hit": false,
      "t": 252549.03177083333,
      "d": 136.36250000001746,
      "v": 84
    },
    {
      "midi": 57,
      "hit": false,
      "t": 252549.03177083333,
      "d": 136.36250000001746,
      "v": 84
    },
    {
      "midi": 60,
      "hit": false,
      "t": 252549.03177083333,
      "d": 136.36250000001746,
      "v": 84
    },
    {
      "midi": 43,
      "hit": false,
      "t": 253088.80000000002,
      "d": 602.2677083333256,
      "v": 71
    },
    {
      "midi": 55,
      "hit": false,
      "t": 253639.93177083335,
      "d": 136.36249999998836,
      "v": 84
    },
    {
      "midi": 59,
      "hit": false,
      "t": 253639.93177083335,
      "d": 136.36249999998836,
      "v": 84
    },
    {
      "midi": 62,
      "hit": false,
      "t": 253639.93177083335,
      "d": 136.36249999998836,
      "v": 84
    },
    {
      "midi": 55,
      "hit": false,
      "t": 254730.83177083335,
      "d": 136.36249999998836,
      "v": 84
    },
    {
      "midi": 59,
      "hit": false,
      "t": 254730.83177083335,
      "d": 136.36249999998836,
      "v": 84
    },
    {
      "midi": 62,
      "hit": false,
      "t": 254730.83177083335,
      "d": 136.36249999998836,
      "v": 84
    },
    {
      "midi": 43,
      "hit": false,
      "t": 255270.6,
      "d": 602.2677083333256,
      "v": 73
    },
    {
      "midi": 55,
      "hit": false,
      "t": 255821.73177083334,
      "d": 136.36249999998836,
      "v": 82
    },
    {
      "midi": 59,
      "hit": false,
      "t": 255821.73177083334,
      "d": 136.36249999998836,
      "v": 78
    },
    {
      "midi": 62,
      "hit": false,
      "t": 255821.73177083334,
      "d": 136.36249999998836,
      "v": 84
    },
    {
      "midi": 55,
      "hit": false,
      "t": 256912.63177083334,
      "d": 136.36249999998836,
      "v": 84
    },
    {
      "midi": 59,
      "hit": false,
      "t": 256912.63177083334,
      "d": 136.36249999998836,
      "v": 84
    },
    {
      "midi": 62,
      "hit": false,
      "t": 256912.63177083334,
      "d": 136.36249999998836,
      "v": 84
    },
    {
      "midi": 38,
      "hit": false,
      "t": 257458.08177083332,
      "d": 636.3583333333372,
      "v": 69
    },
    {
      "midi": 57,
      "hit": false,
      "t": 258003.53177083333,
      "d": 136.36249999998836,
      "v": 84
    },
    {
      "midi": 62,
      "hit": false,
      "t": 258003.53177083333,
      "d": 136.36249999998836,
      "v": 84
    },
    {
      "midi": 65,
      "hit": false,
      "t": 258003.53177083333,
      "d": 136.36249999998836,
      "v": 84
    },
    {
      "midi": 40,
      "hit": false,
      "t": 258548.9817708333,
      "d": 624.994791666657,
      "v": 69
    },
    {
      "midi": 57,
      "hit": false,
      "t": 259088.74999999997,
      "d": 136.36249999998836,
      "v": 84
    },
    {
      "midi": 60,
      "hit": false,
      "t": 259094.4317708333,
      "d": 136.36249999998836,
      "v": 84
    },
    {
      "midi": 64,
      "hit": false,
      "t": 259094.4317708333,
      "d": 136.36249999998836,
      "v": 84
    },
    {
      "midi": 41,
      "hit": false,
      "t": 259639.88177083328,
      "d": 693.1760416666802,
      "v": 75
    },
    {
      "midi": 53,
      "hit": false,
      "t": 260185.3317708333,
      "d": 136.36249999998836,
      "v": 84
    },
    {
      "midi": 57,
      "hit": false,
      "t": 260185.3317708333,
      "d": 136.36249999998836,
      "v": 84
    },
    {
      "midi": 60,
      "hit": false,
      "t": 260185.3317708333,
      "d": 136.36249999998836,
      "v": 84
    },
    {
      "midi": 45,
      "hit": false,
      "t": 260725.09999999995,
      "d": 704.5395833333314,
      "v": 71
    },
    {
      "midi": 53,
      "hit": false,
      "t": 261276.23177083328,
      "d": 136.36249999998836,
      "v": 84
    },
    {
      "midi": 57,
      "hit": false,
      "t": 261276.23177083328,
      "d": 136.36249999998836,
      "v": 83
    },
    {
      "midi": 60,
      "hit": false,
      "t": 261276.23177083328,
      "d": 136.36249999998836,
      "v": 84
    },
    {
      "midi": 43,
      "hit": false,
      "t": 261815.99999999994,
      "d": 693.1760416666511,
      "v": 71
    },
    {
      "midi": 55,
      "hit": false,
      "t": 262367.1317708333,
      "d": 136.36249999998836,
      "v": 84
    },
    {
      "midi": 59,
      "hit": false,
      "t": 262367.1317708333,
      "d": 136.36249999998836,
      "v": 82
    },
    {
      "midi": 62,
      "hit": false,
      "t": 262367.1317708333,
      "d": 136.36249999998836,
      "v": 84
    },
    {
      "midi": 55,
      "hit": false,
      "t": 263458.03177083324,
      "d": 136.36249999998836,
      "v": 84
    },
    {
      "midi": 59,
      "hit": false,
      "t": 263458.03177083324,
      "d": 136.36249999998836,
      "v": 84
    },
    {
      "midi": 62,
      "hit": false,
      "t": 263458.03177083324,
      "d": 136.36249999998836,
      "v": 84
    },
    {
      "midi": 43,
      "hit": false,
      "t": 263997.7999999999,
      "d": 261.3614583333256,
      "v": 84
    },
    {
      "midi": 45,
      "hit": false,
      "t": 266179.59999999986,
      "d": 613.6312499999767,
      "v": 78
    },
    {
      "midi": 57,
      "hit": false,
      "t": 266730.7317708332,
      "d": 136.36249999998836,
      "v": 84
    },
    {
      "midi": 60,
      "hit": false,
      "t": 266730.7317708332,
      "d": 136.36249999998836,
      "v": 84
    },
    {
      "midi": 64,
      "hit": false,
      "t": 266730.7317708332,
      "d": 136.36249999998836,
      "v": 84
    },
    {
      "midi": 57,
      "hit": false,
      "t": 267821.63177083316,
      "d": 136.36249999998836,
      "v": 84
    },
    {
      "midi": 60,
      "hit": false,
      "t": 267821.63177083316,
      "d": 136.36249999998836,
      "v": 84
    },
    {
      "midi": 64,
      "hit": false,
      "t": 267821.63177083316,
      "d": 136.36249999998836,
      "v": 84
    },
    {
      "midi": 40,
      "hit": false,
      "t": 268361.3999999998,
      "d": 556.8135416666628,
      "v": 78
    },
    {
      "midi": 55,
      "hit": false,
      "t": 268912.5317708331,
      "d": 136.36249999998836,
      "v": 84
    },
    {
      "midi": 59,
      "hit": false,
      "t": 268912.5317708331,
      "d": 136.36249999998836,
      "v": 84
    },
    {
      "midi": 64,
      "hit": false,
      "t": 268912.5317708331,
      "d": 136.36249999998836,
      "v": 84
    },
    {
      "midi": 43,
      "hit": false,
      "t": 269452.29999999976,
      "d": 568.1770833333139,
      "v": 73
    },
    {
      "midi": 55,
      "hit": false,
      "t": 270003.4317708331,
      "d": 136.36249999998836,
      "v": 84
    },
    {
      "midi": 59,
      "hit": false,
      "t": 270003.4317708331,
      "d": 136.36249999998836,
      "v": 84
    },
    {
      "midi": 64,
      "hit": false,
      "t": 270003.4317708331,
      "d": 136.36249999998836,
      "v": 84
    },
    {
      "midi": 45,
      "hit": false,
      "t": 270543.1999999997,
      "d": 579.5406250000233,
      "v": 73
    },
    {
      "midi": 57,
      "hit": false,
      "t": 271094.33177083306,
      "d": 136.36250000004657,
      "v": 84
    },
    {
      "midi": 60,
      "hit": false,
      "t": 271094.33177083306,
      "d": 136.36250000004657,
      "v": 84
    },
    {
      "midi": 64,
      "hit": false,
      "t": 271094.33177083306,
      "d": 136.36250000004657,
      "v": 84
    },
    {
      "midi": 57,
      "hit": false,
      "t": 272185.2317708331,
      "d": 136.36249999998836,
      "v": 84
    },
    {
      "midi": 60,
      "hit": false,
      "t": 272185.2317708331,
      "d": 136.36249999998836,
      "v": 84
    },
    {
      "midi": 64,
      "hit": false,
      "t": 272185.2317708331,
      "d": 136.36249999998836,
      "v": 84
    },
    {
      "midi": 40,
      "hit": false,
      "t": 272730.6817708331,
      "d": 227.27083333331393,
      "v": 70
    },
    {
      "midi": 55,
      "hit": false,
      "t": 273276.13177083305,
      "d": 136.36249999998836,
      "v": 84
    },
    {
      "midi": 59,
      "hit": false,
      "t": 273276.13177083305,
      "d": 136.36249999998836,
      "v": 84
    },
    {
      "midi": 64,
      "hit": false,
      "t": 273276.13177083305,
      "d": 136.36249999998836,
      "v": 84
    },
    {
      "midi": 40,
      "hit": false,
      "t": 273276.13177083305,
      "d": 397.72395833331393,
      "v": 68
    },
    {
      "midi": 43,
      "hit": false,
      "t": 273815.8999999997,
      "d": 659.0854166666977,
      "v": 68
    },
    {
      "midi": 55,
      "hit": false,
      "t": 274367.031770833,
      "d": 136.36250000004657,
      "v": 84
    },
    {
      "midi": 59,
      "hit": false,
      "t": 274367.031770833,
      "d": 136.36250000004657,
      "v": 84
    },
    {
      "midi": 64,
      "hit": false,
      "t": 274367.031770833,
      "d": 136.36250000004657,
      "v": 84
    },
    {
      "midi": 45,
      "hit": false,
      "t": 274912.4817708331,
      "d": 590.9041666666744,
      "v": 71
    },
    {
      "midi": 57,
      "hit": false,
      "t": 275457.9317708331,
      "d": 136.36249999998836,
      "v": 84
    },
    {
      "midi": 60,
      "hit": false,
      "t": 275457.9317708331,
      "d": 136.36249999998836,
      "v": 84
    },
    {
      "midi": 64,
      "hit": false,
      "t": 275457.9317708331,
      "d": 136.36249999998836,
      "v": 84
    },
    {
      "midi": 57,
      "hit": false,
      "t": 276548.83177083306,
      "d": 136.36249999998836,
      "v": 84
    },
    {
      "midi": 60,
      "hit": false,
      "t": 276548.83177083306,
      "d": 136.36249999998836,
      "v": 84
    },
    {
      "midi": 64,
      "hit": false,
      "t": 276548.83177083306,
      "d": 136.36249999998836,
      "v": 84
    },
    {
      "midi": 57,
      "hit": false,
      "t": 277639.731770833,
      "d": 136.36249999998836,
      "v": 84
    },
    {
      "midi": 60,
      "hit": false,
      "t": 277639.731770833,
      "d": 136.36249999998836,
      "v": 84
    },
    {
      "midi": 65,
      "hit": false,
      "t": 277639.731770833,
      "d": 136.36249999998836,
      "v": 84
    },
    {
      "midi": 55,
      "hit": false,
      "t": 278730.631770833,
      "d": 136.36249999998836,
      "v": 84
    },
    {
      "midi": 59,
      "hit": false,
      "t": 278730.631770833,
      "d": 136.36249999998836,
      "v": 84
    },
    {
      "midi": 62,
      "hit": false,
      "t": 278730.631770833,
      "d": 136.36249999998836,
      "v": 84
    },
    {
      "midi": 69,
      "hit": false,
      "t": 279821.53177083295,
      "d": 136.36249999998836,
      "v": 84
    },
    {
      "midi": 72,
      "hit": false,
      "t": 279821.53177083295,
      "d": 136.36249999998836,
      "v": 84
    },
    {
      "midi": 76,
      "hit": false,
      "t": 279821.53177083295,
      "d": 136.36249999998836,
      "v": 84
    },
    {
      "midi": 69,
      "hit": false,
      "t": 280912.4317708329,
      "d": 136.36249999998836,
      "v": 84
    },
    {
      "midi": 72,
      "hit": false,
      "t": 280912.4317708329,
      "d": 136.36249999998836,
      "v": 84
    },
    {
      "midi": 76,
      "hit": false,
      "t": 280912.4317708329,
      "d": 136.36249999998836,
      "v": 84
    },
    {
      "midi": 67,
      "hit": false,
      "t": 282003.3317708329,
      "d": 136.36249999998836,
      "v": 84
    },
    {
      "midi": 71,
      "hit": false,
      "t": 282003.3317708329,
      "d": 136.36249999998836,
      "v": 84
    },
    {
      "midi": 76,
      "hit": false,
      "t": 282003.3317708329,
      "d": 136.36249999998836,
      "v": 84
    },
    {
      "midi": 67,
      "hit": false,
      "t": 283094.23177083285,
      "d": 136.36249999998836,
      "v": 84
    },
    {
      "midi": 71,
      "hit": false,
      "t": 283094.23177083285,
      "d": 136.36249999998836,
      "v": 84
    },
    {
      "midi": 76,
      "hit": false,
      "t": 283094.23177083285,
      "d": 136.36249999998836,
      "v": 84
    },
    {
      "midi": 69,
      "hit": false,
      "t": 284185.1317708328,
      "d": 136.36249999998836,
      "v": 84
    },
    {
      "midi": 72,
      "hit": false,
      "t": 284185.1317708328,
      "d": 136.36249999998836,
      "v": 84
    },
    {
      "midi": 76,
      "hit": false,
      "t": 284185.1317708328,
      "d": 136.36249999998836,
      "v": 84
    },
    {
      "midi": 69,
      "hit": false,
      "t": 285276.0317708328,
      "d": 136.36249999998836,
      "v": 84
    },
    {
      "midi": 72,
      "hit": false,
      "t": 285276.0317708328,
      "d": 136.36249999998836,
      "v": 84
    },
    {
      "midi": 76,
      "hit": false,
      "t": 285276.0317708328,
      "d": 136.36249999998836,
      "v": 84
    },
    {
      "midi": 67,
      "hit": false,
      "t": 286366.93177083274,
      "d": 136.36249999998836,
      "v": 84
    },
    {
      "midi": 71,
      "hit": false,
      "t": 286366.93177083274,
      "d": 136.36249999998836,
      "v": 84
    },
    {
      "midi": 76,
      "hit": false,
      "t": 286366.93177083274,
      "d": 136.36249999998836,
      "v": 84
    },
    {
      "midi": 67,
      "hit": false,
      "t": 287457.8317708327,
      "d": 136.36249999998836,
      "v": 84
    },
    {
      "midi": 71,
      "hit": false,
      "t": 287457.8317708327,
      "d": 136.36249999998836,
      "v": 84
    },
    {
      "midi": 76,
      "hit": false,
      "t": 287457.8317708327,
      "d": 136.36249999998836,
      "v": 84
    },
    {
      "midi": 45,
      "hit": false,
      "t": 287997.59999999934,
      "d": 545.4500000000116,
      "v": 75
    },
    {
      "midi": 57,
      "hit": false,
      "t": 288548.7317708327,
      "d": 136.36249999998836,
      "v": 84
    },
    {
      "midi": 60,
      "hit": false,
      "t": 288548.7317708327,
      "d": 136.36249999998836,
      "v": 84
    },
    {
      "midi": 64,
      "hit": false,
      "t": 288548.7317708327,
      "d": 136.36249999998836,
      "v": 84
    },
    {
      "midi": 57,
      "hit": false,
      "t": 289639.63177083264,
      "d": 136.36249999998836,
      "v": 84
    },
    {
      "midi": 60,
      "hit": false,
      "t": 289639.63177083264,
      "d": 136.36249999998836,
      "v": 84
    },
    {
      "midi": 64,
      "hit": false,
      "t": 289639.63177083264,
      "d": 136.36249999998836,
      "v": 84
    },
    {
      "midi": 40,
      "hit": false,
      "t": 290179.39999999927,
      "d": 545.4500000000116,
      "v": 76
    },
    {
      "midi": 55,
      "hit": false,
      "t": 290730.5317708326,
      "d": 136.36249999998836,
      "v": 84
    },
    {
      "midi": 59,
      "hit": false,
      "t": 290730.5317708326,
      "d": 136.36249999998836,
      "v": 84
    },
    {
      "midi": 64,
      "hit": false,
      "t": 290730.5317708326,
      "d": 136.36249999998836,
      "v": 84
    },
    {
      "midi": 43,
      "hit": false,
      "t": 291275.9817708326,
      "d": 602.2677083333256,
      "v": 77
    },
    {
      "midi": 55,
      "hit": false,
      "t": 291821.4317708326,
      "d": 136.36249999998836,
      "v": 84
    },
    {
      "midi": 59,
      "hit": false,
      "t": 291821.4317708326,
      "d": 136.36249999998836,
      "v": 84
    },
    {
      "midi": 64,
      "hit": false,
      "t": 291821.4317708326,
      "d": 136.36249999998836,
      "v": 84
    },
    {
      "midi": 45,
      "hit": false,
      "t": 292361.19999999925,
      "d": 613.6312499999767,
      "v": 75
    },
    {
      "midi": 57,
      "hit": false,
      "t": 292912.3317708326,
      "d": 136.36249999998836,
      "v": 84
    },
    {
      "midi": 60,
      "hit": false,
      "t": 292912.3317708326,
      "d": 136.36249999998836,
      "v": 84
    },
    {
      "midi": 64,
      "hit": false,
      "t": 292912.3317708326,
      "d": 136.36249999998836,
      "v": 84
    },
    {
      "midi": 57,
      "hit": false,
      "t": 294003.23177083256,
      "d": 136.36249999998836,
      "v": 84
    },
    {
      "midi": 60,
      "hit": false,
      "t": 294003.23177083256,
      "d": 136.36249999998836,
      "v": 84
    },
    {
      "midi": 64,
      "hit": false,
      "t": 294003.23177083256,
      "d": 136.36249999998836,
      "v": 84
    },
    {
      "midi": 40,
      "hit": false,
      "t": 294542.9999999992,
      "d": 159.08958333334886,
      "v": 79
    },
    {
      "midi": 55,
      "hit": false,
      "t": 295094.1317708325,
      "d": 136.36249999998836,
      "v": 80
    },
    {
      "midi": 59,
      "hit": false,
      "t": 295094.1317708325,
      "d": 136.36249999998836,
      "v": 77
    },
    {
      "midi": 64,
      "hit": false,
      "t": 295094.1317708325,
      "d": 136.36249999998836,
      "v": 81
    },
    {
      "midi": 40,
      "hit": false,
      "t": 295094.1317708325,
      "d": 409.0874999999651,
      "v": 70
    },
    {
      "midi": 43,
      "hit": false,
      "t": 295633.89999999915,
      "d": 636.3583333333372,
      "v": 72
    },
    {
      "midi": 55,
      "hit": false,
      "t": 296185.0317708325,
      "d": 136.36249999998836,
      "v": 84
    },
    {
      "midi": 59,
      "hit": false,
      "t": 296185.0317708325,
      "d": 136.36249999998836,
      "v": 84
    },
    {
      "midi": 64,
      "hit": false,
      "t": 296185.0317708325,
      "d": 136.36249999998836,
      "v": 84
    },
    {
      "midi": 45,
      "hit": false,
      "t": 296724.7999999991,
      "d": 545.4500000000116,
      "v": 75
    },
    {
      "midi": 57,
      "hit": false,
      "t": 297275.93177083245,
      "d": 136.36249999998836,
      "v": 84
    },
    {
      "midi": 60,
      "hit": false,
      "t": 297275.93177083245,
      "d": 136.36249999998836,
      "v": 84
    },
    {
      "midi": 64,
      "hit": false,
      "t": 297275.93177083245,
      "d": 136.36249999998836,
      "v": 84
    },
    {
      "midi": 57,
      "hit": false,
      "t": 298366.8317708324,
      "d": 136.36249999998836,
      "v": 84
    },
    {
      "midi": 60,
      "hit": false,
      "t": 298366.8317708324,
      "d": 136.36249999998836,
      "v": 84
    },
    {
      "midi": 64,
      "hit": false,
      "t": 298366.8317708324,
      "d": 136.36249999998836,
      "v": 84
    },
    {
      "midi": 40,
      "hit": false,
      "t": 298906.59999999905,
      "d": 545.4500000000116,
      "v": 76
    },
    {
      "midi": 55,
      "hit": false,
      "t": 299457.7317708324,
      "d": 136.36249999998836,
      "v": 84
    },
    {
      "midi": 59,
      "hit": false,
      "t": 299457.7317708324,
      "d": 136.36249999998836,
      "v": 84
    },
    {
      "midi": 64,
      "hit": false,
      "t": 299457.7317708324,
      "d": 136.36249999998836,
      "v": 84
    },
    {
      "midi": 43,
      "hit": false,
      "t": 300003.1817708324,
      "d": 602.2677083333256,
      "v": 77
    },
    {
      "midi": 55,
      "hit": false,
      "t": 300548.6317708324,
      "d": 136.36249999998836,
      "v": 84
    },
    {
      "midi": 59,
      "hit": false,
      "t": 300548.6317708324,
      "d": 136.36249999998836,
      "v": 84
    },
    {
      "midi": 64,
      "hit": false,
      "t": 300548.6317708324,
      "d": 136.36249999998836,
      "v": 84
    },
    {
      "midi": 45,
      "hit": false,
      "t": 301088.39999999903,
      "d": 613.6312499999767,
      "v": 75
    },
    {
      "midi": 57,
      "hit": false,
      "t": 301639.5317708324,
      "d": 136.36249999998836,
      "v": 84
    },
    {
      "midi": 60,
      "hit": false,
      "t": 301639.5317708324,
      "d": 136.36249999998836,
      "v": 84
    },
    {
      "midi": 64,
      "hit": false,
      "t": 301639.5317708324,
      "d": 136.36249999998836,
      "v": 84
    },
    {
      "midi": 57,
      "hit": false,
      "t": 302730.43177083234,
      "d": 136.36249999998836,
      "v": 84
    },
    {
      "midi": 60,
      "hit": false,
      "t": 302730.43177083234,
      "d": 136.36249999998836,
      "v": 84
    },
    {
      "midi": 64,
      "hit": false,
      "t": 302730.43177083234,
      "d": 136.36249999998836,
      "v": 84
    },
    {
      "midi": 40,
      "hit": false,
      "t": 303270.19999999896,
      "d": 159.08958333334886,
      "v": 79
    },
    {
      "midi": 55,
      "hit": false,
      "t": 303821.3317708323,
      "d": 136.36249999998836,
      "v": 80
    },
    {
      "midi": 59,
      "hit": false,
      "t": 303821.3317708323,
      "d": 136.36249999998836,
      "v": 77
    },
    {
      "midi": 64,
      "hit": false,
      "t": 303821.3317708323,
      "d": 136.36249999998836,
      "v": 81
    },
    {
      "midi": 40,
      "hit": false,
      "t": 303821.3317708323,
      "d": 409.0874999999651,
      "v": 70
    },
    {
      "midi": 43,
      "hit": false,
      "t": 304361.0999999989,
      "d": 636.3583333333372,
      "v": 72
    },
    {
      "midi": 55,
      "hit": false,
      "t": 304912.23177083227,
      "d": 136.36249999998836,
      "v": 84
    },
    {
      "midi": 59,
      "hit": false,
      "t": 304912.23177083227,
      "d": 136.36249999998836,
      "v": 84
    },
    {
      "midi": 64,
      "hit": false,
      "t": 304912.23177083227,
      "d": 136.36249999998836,
      "v": 84
    },
    {
      "midi": 45,
      "hit": false,
      "t": 305451.9999999989,
      "d": 545.4500000000116,
      "v": 75
    },
    {
      "midi": 57,
      "hit": false,
      "t": 306003.13177083223,
      "d": 136.36249999998836,
      "v": 84
    },
    {
      "midi": 60,
      "hit": false,
      "t": 306003.13177083223,
      "d": 136.36249999998836,
      "v": 84
    },
    {
      "midi": 64,
      "hit": false,
      "t": 306003.13177083223,
      "d": 136.36249999998836,
      "v": 84
    },
    {
      "midi": 57,
      "hit": false,
      "t": 307094.0317708322,
      "d": 136.36249999998836,
      "v": 84
    },
    {
      "midi": 60,
      "hit": false,
      "t": 307094.0317708322,
      "d": 136.36249999998836,
      "v": 84
    },
    {
      "midi": 64,
      "hit": false,
      "t": 307094.0317708322,
      "d": 136.36249999998836,
      "v": 84
    },
    {
      "midi": 40,
      "hit": false,
      "t": 307633.7999999988,
      "d": 545.4500000000116,
      "v": 76
    },
    {
      "midi": 55,
      "hit": false,
      "t": 308184.93177083216,
      "d": 136.36249999998836,
      "v": 84
    },
    {
      "midi": 59,
      "hit": false,
      "t": 308184.93177083216,
      "d": 136.36249999998836,
      "v": 84
    },
    {
      "midi": 64,
      "hit": false,
      "t": 308184.93177083216,
      "d": 136.36249999998836,
      "v": 84
    },
    {
      "midi": 43,
      "hit": false,
      "t": 308730.3817708322,
      "d": 602.2677083333256,
      "v": 77
    },
    {
      "midi": 55,
      "hit": false,
      "t": 309275.8317708322,
      "d": 136.36249999998836,
      "v": 84
    },
    {
      "midi": 59,
      "hit": false,
      "t": 309275.8317708322,
      "d": 136.36249999998836,
      "v": 84
    },
    {
      "midi": 64,
      "hit": false,
      "t": 309275.8317708322,
      "d": 136.36249999998836,
      "v": 84
    },
    {
      "midi": 45,
      "hit": false,
      "t": 309815.5999999988,
      "d": 613.6312499999767,
      "v": 75
    },
    {
      "midi": 57,
      "hit": false,
      "t": 310366.73177083215,
      "d": 136.36249999998836,
      "v": 84
    },
    {
      "midi": 60,
      "hit": false,
      "t": 310366.73177083215,
      "d": 136.36249999998836,
      "v": 84
    },
    {
      "midi": 64,
      "hit": false,
      "t": 310366.73177083215,
      "d": 136.36249999998836,
      "v": 84
    },
    {
      "midi": 57,
      "hit": false,
      "t": 311457.6317708321,
      "d": 136.36249999998836,
      "v": 84
    },
    {
      "midi": 60,
      "hit": false,
      "t": 311457.6317708321,
      "d": 136.36249999998836,
      "v": 84
    },
    {
      "midi": 64,
      "hit": false,
      "t": 311457.6317708321,
      "d": 136.36249999998836,
      "v": 84
    },
    {
      "midi": 40,
      "hit": false,
      "t": 311997.39999999874,
      "d": 159.08958333334886,
      "v": 79
    },
    {
      "midi": 55,
      "hit": false,
      "t": 312548.5317708321,
      "d": 136.36249999998836,
      "v": 80
    },
    {
      "midi": 59,
      "hit": false,
      "t": 312548.5317708321,
      "d": 136.36249999998836,
      "v": 77
    },
    {
      "midi": 64,
      "hit": false,
      "t": 312548.5317708321,
      "d": 136.36249999998836,
      "v": 81
    },
    {
      "midi": 40,
      "hit": false,
      "t": 312548.5317708321,
      "d": 409.0874999999651,
      "v": 70
    },
    {
      "midi": 43,
      "hit": false,
      "t": 313088.2999999987,
      "d": 636.3583333333372,
      "v": 72
    },
    {
      "midi": 55,
      "hit": false,
      "t": 313639.43177083205,
      "d": 136.36249999998836,
      "v": 84
    },
    {
      "midi": 59,
      "hit": false,
      "t": 313639.43177083205,
      "d": 136.36249999998836,
      "v": 84
    },
    {
      "midi": 64,
      "hit": false,
      "t": 313639.43177083205,
      "d": 136.36249999998836,
      "v": 84
    },
    {
      "midi": 45,
      "hit": false,
      "t": 314179.1999999987,
      "d": 613.6312499999767,
      "v": 75
    },
    {
      "midi": 57,
      "hit": false,
      "t": 314730.331770832,
      "d": 136.36249999998836,
      "v": 84
    },
    {
      "midi": 60,
      "hit": false,
      "t": 314730.331770832,
      "d": 136.36249999998836,
      "v": 84
    },
    {
      "midi": 64,
      "hit": false,
      "t": 314730.331770832,
      "d": 136.36249999998836,
      "v": 84
    },
    {
      "midi": 57,
      "hit": false,
      "t": 315821.231770832,
      "d": 136.36249999998836,
      "v": 84
    },
    {
      "midi": 60,
      "hit": false,
      "t": 315821.231770832,
      "d": 136.36249999998836,
      "v": 84
    },
    {
      "midi": 64,
      "hit": false,
      "t": 315821.231770832,
      "d": 136.36249999998836,
      "v": 84
    },
    {
      "midi": 40,
      "hit": false,
      "t": 316366.681770832,
      "d": 590.9041666666744,
      "v": 77
    },
    {
      "midi": 55,
      "hit": false,
      "t": 316912.131770832,
      "d": 136.36249999998836,
      "v": 84
    },
    {
      "midi": 59,
      "hit": false,
      "t": 316912.131770832,
      "d": 136.36249999998836,
      "v": 84
    },
    {
      "midi": 64,
      "hit": false,
      "t": 316912.131770832,
      "d": 136.36249999998836,
      "v": 84
    },
    {
      "midi": 43,
      "hit": false,
      "t": 317457.581770832,
      "d": 647.7218749999884,
      "v": 76
    },
    {
      "midi": 55,
      "hit": false,
      "t": 318003.031770832,
      "d": 136.36249999998836,
      "v": 84
    },
    {
      "midi": 59,
      "hit": false,
      "t": 318003.031770832,
      "d": 136.36249999998836,
      "v": 84
    },
    {
      "midi": 64,
      "hit": false,
      "t": 318003.031770832,
      "d": 136.36249999998836,
      "v": 84
    },
    {
      "midi": 45,
      "hit": false,
      "t": 318542.79999999865,
      "d": 613.6312499999767,
      "v": 76
    },
    {
      "midi": 57,
      "hit": false,
      "t": 319093.931770832,
      "d": 136.36249999998836,
      "v": 84
    },
    {
      "midi": 60,
      "hit": false,
      "t": 319093.931770832,
      "d": 136.36249999998836,
      "v": 84
    },
    {
      "midi": 64,
      "hit": false,
      "t": 319093.931770832,
      "d": 136.36249999998836,
      "v": 84
    },
    {
      "midi": 57,
      "hit": false,
      "t": 320184.83177083195,
      "d": 136.36249999998836,
      "v": 84
    },
    {
      "midi": 60,
      "hit": false,
      "t": 320184.83177083195,
      "d": 136.36249999998836,
      "v": 84
    },
    {
      "midi": 64,
      "hit": false,
      "t": 320184.83177083195,
      "d": 136.36249999998836,
      "v": 84
    },
    {
      "midi": 45,
      "hit": false,
      "t": 320724.5999999986,
      "d": 522.7229166666511,
      "v": 79
    },
    {
      "midi": 57,
      "hit": false,
      "t": 321275.7317708319,
      "d": 136.36249999998836,
      "v": 81
    },
    {
      "midi": 60,
      "hit": false,
      "t": 321275.7317708319,
      "d": 136.36249999998836,
      "v": 82
    },
    {
      "midi": 64,
      "hit": false,
      "t": 321275.7317708319,
      "d": 136.36249999998836,
      "v": 82
    },
    {
      "midi": 45,
      "hit": false,
      "t": 321821.1817708319,
      "d": 590.9041666666744,
      "v": 75
    },
    {
      "midi": 57,
      "hit": false,
      "t": 322366.63177083194,
      "d": 136.36249999998836,
      "v": 81
    },
    {
      "midi": 60,
      "hit": false,
      "t": 322366.63177083194,
      "d": 136.36249999998836,
      "v": 78
    },
    {
      "midi": 64,
      "hit": false,
      "t": 322366.63177083194,
      "d": 136.36249999998836,
      "v": 78
    },
    {
      "midi": 45,
      "hit": false,
      "t": 322906.39999999857,
      "d": 545.4500000000116,
      "v": 75
    },
    {
      "midi": 57,
      "hit": false,
      "t": 323457.5317708319,
      "d": 136.36249999998836,
      "v": 84
    },
    {
      "midi": 60,
      "hit": false,
      "t": 323457.5317708319,
      "d": 136.36249999998836,
      "v": 84
    },
    {
      "midi": 64,
      "hit": false,
      "t": 323457.5317708319,
      "d": 136.36249999998836,
      "v": 84
    },
    {
      "midi": 57,
      "hit": false,
      "t": 324548.43177083187,
      "d": 136.36249999998836,
      "v": 84
    },
    {
      "midi": 60,
      "hit": false,
      "t": 324548.43177083187,
      "d": 136.36249999998836,
      "v": 84
    },
    {
      "midi": 64,
      "hit": false,
      "t": 324548.43177083187,
      "d": 136.36249999998836,
      "v": 84
    },
    {
      "midi": 40,
      "hit": false,
      "t": 325088.1999999985,
      "d": 545.4500000000116,
      "v": 76
    },
    {
      "midi": 55,
      "hit": false,
      "t": 325639.33177083184,
      "d": 136.36249999998836,
      "v": 84
    },
    {
      "midi": 59,
      "hit": false,
      "t": 325639.33177083184,
      "d": 136.36249999998836,
      "v": 84
    },
    {
      "midi": 64,
      "hit": false,
      "t": 325639.33177083184,
      "d": 136.36249999998836,
      "v": 84
    },
    {
      "midi": 43,
      "hit": false,
      "t": 326184.78177083185,
      "d": 602.2677083333256,
      "v": 77
    },
    {
      "midi": 55,
      "hit": false,
      "t": 326730.23177083186,
      "d": 136.36249999998836,
      "v": 84
    },
    {
      "midi": 59,
      "hit": false,
      "t": 326730.23177083186,
      "d": 136.36249999998836,
      "v": 84
    },
    {
      "midi": 64,
      "hit": false,
      "t": 326730.23177083186,
      "d": 136.36249999998836,
      "v": 84
    },
    {
      "midi": 45,
      "hit": false,
      "t": 327269.9999999985,
      "d": 613.6312499999767,
      "v": 75
    },
    {
      "midi": 57,
      "hit": false,
      "t": 327821.1317708318,
      "d": 136.36249999998836,
      "v": 84
    },
    {
      "midi": 60,
      "hit": false,
      "t": 327821.1317708318,
      "d": 136.36249999998836,
      "v": 84
    },
    {
      "midi": 64,
      "hit": false,
      "t": 327821.1317708318,
      "d": 136.36249999998836,
      "v": 84
    },
    {
      "midi": 57,
      "hit": false,
      "t": 328912.0317708318,
      "d": 136.36249999998836,
      "v": 84
    },
    {
      "midi": 60,
      "hit": false,
      "t": 328912.0317708318,
      "d": 136.36249999998836,
      "v": 84
    },
    {
      "midi": 64,
      "hit": false,
      "t": 328912.0317708318,
      "d": 136.36249999998836,
      "v": 84
    },
    {
      "midi": 40,
      "hit": false,
      "t": 329451.7999999984,
      "d": 159.08958333334886,
      "v": 79
    },
    {
      "midi": 55,
      "hit": false,
      "t": 330002.93177083175,
      "d": 136.36249999998836,
      "v": 80
    },
    {
      "midi": 59,
      "hit": false,
      "t": 330002.93177083175,
      "d": 136.36249999998836,
      "v": 77
    },
    {
      "midi": 64,
      "hit": false,
      "t": 330002.93177083175,
      "d": 136.36249999998836,
      "v": 81
    },
    {
      "midi": 40,
      "hit": false,
      "t": 330002.93177083175,
      "d": 409.0874999999651,
      "v": 70
    },
    {
      "midi": 43,
      "hit": false,
      "t": 330542.6999999984,
      "d": 636.3583333333372,
      "v": 72
    },
    {
      "midi": 55,
      "hit": false,
      "t": 331093.8317708317,
      "d": 136.36249999998836,
      "v": 84
    },
    {
      "midi": 59,
      "hit": false,
      "t": 331093.8317708317,
      "d": 136.36249999998836,
      "v": 84
    },
    {
      "midi": 64,
      "hit": false,
      "t": 331093.8317708317,
      "d": 136.36249999998836,
      "v": 84
    },
    {
      "midi": 45,
      "hit": false,
      "t": 331633.59999999835,
      "d": 545.4500000000116,
      "v": 75
    },
    {
      "midi": 57,
      "hit": false,
      "t": 332184.7317708317,
      "d": 136.36249999998836,
      "v": 84
    },
    {
      "midi": 60,
      "hit": false,
      "t": 332184.7317708317,
      "d": 136.36249999998836,
      "v": 84
    },
    {
      "midi": 64,
      "hit": false,
      "t": 332184.7317708317,
      "d": 136.36249999998836,
      "v": 84
    },
    {
      "midi": 57,
      "hit": false,
      "t": 333275.63177083165,
      "d": 136.36249999998836,
      "v": 84
    },
    {
      "midi": 60,
      "hit": false,
      "t": 333275.63177083165,
      "d": 136.36249999998836,
      "v": 84
    },
    {
      "midi": 64,
      "hit": false,
      "t": 333275.63177083165,
      "d": 136.36249999998836,
      "v": 84
    },
    {
      "midi": 40,
      "hit": false,
      "t": 333815.3999999983,
      "d": 545.4500000000116,
      "v": 76
    },
    {
      "midi": 55,
      "hit": false,
      "t": 334366.5317708316,
      "d": 136.36249999998836,
      "v": 84
    },
    {
      "midi": 59,
      "hit": false,
      "t": 334366.5317708316,
      "d": 136.36249999998836,
      "v": 84
    },
    {
      "midi": 64,
      "hit": false,
      "t": 334366.5317708316,
      "d": 136.36249999998836,
      "v": 84
    },
    {
      "midi": 43,
      "hit": false,
      "t": 334911.9817708316,
      "d": 602.2677083333256,
      "v": 77
    },
    {
      "midi": 55,
      "hit": false,
      "t": 335457.43177083164,
      "d": 136.36249999998836,
      "v": 84
    },
    {
      "midi": 59,
      "hit": false,
      "t": 335457.43177083164,
      "d": 136.36249999998836,
      "v": 84
    },
    {
      "midi": 64,
      "hit": false,
      "t": 335457.43177083164,
      "d": 136.36249999998836,
      "v": 84
    },
    {
      "midi": 45,
      "hit": false,
      "t": 335997.19999999827,
      "d": 613.6312499999767,
      "v": 75
    },
    {
      "midi": 57,
      "hit": false,
      "t": 336548.3317708316,
      "d": 136.36249999998836,
      "v": 84
    },
    {
      "midi": 60,
      "hit": false,
      "t": 336548.3317708316,
      "d": 136.36249999998836,
      "v": 84
    },
    {
      "midi": 64,
      "hit": false,
      "t": 336548.3317708316,
      "d": 136.36249999998836,
      "v": 84
    },
    {
      "midi": 57,
      "hit": false,
      "t": 337639.23177083157,
      "d": 136.36249999998836,
      "v": 84
    },
    {
      "midi": 60,
      "hit": false,
      "t": 337639.23177083157,
      "d": 136.36249999998836,
      "v": 84
    },
    {
      "midi": 64,
      "hit": false,
      "t": 337639.23177083157,
      "d": 136.36249999998836,
      "v": 84
    },
    {
      "midi": 40,
      "hit": false,
      "t": 338178.9999999982,
      "d": 159.08958333334886,
      "v": 79
    },
    {
      "midi": 55,
      "hit": false,
      "t": 338730.13177083153,
      "d": 136.36249999998836,
      "v": 80
    },
    {
      "midi": 59,
      "hit": false,
      "t": 338730.13177083153,
      "d": 136.36249999998836,
      "v": 77
    },
    {
      "midi": 64,
      "hit": false,
      "t": 338730.13177083153,
      "d": 136.36249999998836,
      "v": 81
    },
    {
      "midi": 40,
      "hit": false,
      "t": 338730.13177083153,
      "d": 409.0874999999651,
      "v": 70
    },
    {
      "midi": 43,
      "hit": false,
      "t": 339269.89999999816,
      "d": 636.3583333333372,
      "v": 72
    },
    {
      "midi": 55,
      "hit": false,
      "t": 339821.0317708315,
      "d": 136.36249999998836,
      "v": 84
    },
    {
      "midi": 59,
      "hit": false,
      "t": 339821.0317708315,
      "d": 136.36249999998836,
      "v": 84
    },
    {
      "midi": 64,
      "hit": false,
      "t": 339821.0317708315,
      "d": 136.36249999998836,
      "v": 84
    },
    {
      "midi": 45,
      "hit": false,
      "t": 340360.7999999981,
      "d": 545.4500000000116,
      "v": 75
    },
    {
      "midi": 57,
      "hit": false,
      "t": 340911.93177083146,
      "d": 136.36249999998836,
      "v": 84
    },
    {
      "midi": 60,
      "hit": false,
      "t": 340911.93177083146,
      "d": 136.36249999998836,
      "v": 84
    },
    {
      "midi": 64,
      "hit": false,
      "t": 340911.93177083146,
      "d": 136.36249999998836,
      "v": 84
    },
    {
      "midi": 57,
      "hit": false,
      "t": 342002.8317708314,
      "d": 136.36249999998836,
      "v": 84
    },
    {
      "midi": 60,
      "hit": false,
      "t": 342002.8317708314,
      "d": 136.36249999998836,
      "v": 84
    },
    {
      "midi": 64,
      "hit": false,
      "t": 342002.8317708314,
      "d": 136.36249999998836,
      "v": 84
    },
    {
      "midi": 40,
      "hit": false,
      "t": 342542.59999999806,
      "d": 545.4500000000116,
      "v": 76
    },
    {
      "midi": 55,
      "hit": false,
      "t": 343093.7317708314,
      "d": 136.36249999998836,
      "v": 84
    },
    {
      "midi": 59,
      "hit": false,
      "t": 343093.7317708314,
      "d": 136.36249999998836,
      "v": 84
    },
    {
      "midi": 64,
      "hit": false,
      "t": 343093.7317708314,
      "d": 136.36249999998836,
      "v": 84
    },
    {
      "midi": 43,
      "hit": false,
      "t": 343639.1817708314,
      "d": 602.2677083333256,
      "v": 77
    },
    {
      "midi": 55,
      "hit": false,
      "t": 344184.6317708314,
      "d": 136.36249999998836,
      "v": 84
    },
    {
      "midi": 59,
      "hit": false,
      "t": 344184.6317708314,
      "d": 136.36249999998836,
      "v": 84
    },
    {
      "midi": 64,
      "hit": false,
      "t": 344184.6317708314,
      "d": 136.36249999998836,
      "v": 84
    },
    {
      "midi": 45,
      "hit": false,
      "t": 344724.39999999804,
      "d": 613.6312499999767,
      "v": 75
    },
    {
      "midi": 57,
      "hit": false,
      "t": 345275.5317708314,
      "d": 136.36249999998836,
      "v": 84
    },
    {
      "midi": 60,
      "hit": false,
      "t": 345275.5317708314,
      "d": 136.36249999998836,
      "v": 84
    },
    {
      "midi": 64,
      "hit": false,
      "t": 345275.5317708314,
      "d": 136.36249999998836,
      "v": 84
    },
    {
      "midi": 57,
      "hit": false,
      "t": 346366.43177083135,
      "d": 136.36249999998836,
      "v": 84
    },
    {
      "midi": 60,
      "hit": false,
      "t": 346366.43177083135,
      "d": 136.36249999998836,
      "v": 84
    },
    {
      "midi": 64,
      "hit": false,
      "t": 346366.43177083135,
      "d": 136.36249999998836,
      "v": 84
    },
    {
      "midi": 40,
      "hit": false,
      "t": 346906.199999998,
      "d": 159.08958333334886,
      "v": 79
    },
    {
      "midi": 55,
      "hit": false,
      "t": 347457.3317708313,
      "d": 136.36249999998836,
      "v": 80
    },
    {
      "midi": 59,
      "hit": false,
      "t": 347457.3317708313,
      "d": 136.36249999998836,
      "v": 77
    },
    {
      "midi": 64,
      "hit": false,
      "t": 347457.3317708313,
      "d": 136.36249999998836,
      "v": 81
    },
    {
      "midi": 40,
      "hit": false,
      "t": 347457.3317708313,
      "d": 409.0874999999651,
      "v": 70
    },
    {
      "midi": 43,
      "hit": false,
      "t": 347997.09999999794,
      "d": 636.3583333333372,
      "v": 72
    },
    {
      "midi": 55,
      "hit": false,
      "t": 348548.2317708313,
      "d": 136.36249999998836,
      "v": 84
    },
    {
      "midi": 59,
      "hit": false,
      "t": 348548.2317708313,
      "d": 136.36249999998836,
      "v": 84
    },
    {
      "midi": 64,
      "hit": false,
      "t": 348548.2317708313,
      "d": 136.36249999998836,
      "v": 84
    },
    {
      "midi": 45,
      "hit": false,
      "t": 349087.9999999979,
      "d": 545.4500000000116,
      "v": 75
    },
    {
      "midi": 57,
      "hit": false,
      "t": 349639.13177083124,
      "d": 136.36249999998836,
      "v": 84
    },
    {
      "midi": 60,
      "hit": false,
      "t": 349639.13177083124,
      "d": 136.36249999998836,
      "v": 84
    },
    {
      "midi": 64,
      "hit": false,
      "t": 349639.13177083124,
      "d": 136.36249999998836,
      "v": 84
    },
    {
      "midi": 57,
      "hit": false,
      "t": 350730.0317708312,
      "d": 136.36249999998836,
      "v": 84
    },
    {
      "midi": 60,
      "hit": false,
      "t": 350730.0317708312,
      "d": 136.36249999998836,
      "v": 84
    },
    {
      "midi": 64,
      "hit": false,
      "t": 350730.0317708312,
      "d": 136.36249999998836,
      "v": 84
    },
    {
      "midi": 40,
      "hit": false,
      "t": 351269.79999999783,
      "d": 545.4500000000116,
      "v": 76
    },
    {
      "midi": 55,
      "hit": false,
      "t": 351820.9317708312,
      "d": 136.36249999998836,
      "v": 84
    },
    {
      "midi": 59,
      "hit": false,
      "t": 351820.9317708312,
      "d": 136.36249999998836,
      "v": 84
    },
    {
      "midi": 64,
      "hit": false,
      "t": 351820.9317708312,
      "d": 136.36249999998836,
      "v": 84
    },
    {
      "midi": 43,
      "hit": false,
      "t": 352366.3817708312,
      "d": 602.2677083333256,
      "v": 77
    },
    {
      "midi": 55,
      "hit": false,
      "t": 352911.8317708312,
      "d": 136.36249999998836,
      "v": 84
    },
    {
      "midi": 59,
      "hit": false,
      "t": 352911.8317708312,
      "d": 136.36249999998836,
      "v": 84
    },
    {
      "midi": 64,
      "hit": false,
      "t": 352911.8317708312,
      "d": 136.36249999998836,
      "v": 84
    },
    {
      "midi": 45,
      "hit": false,
      "t": 353451.5999999978,
      "d": 613.6312499999767,
      "v": 75
    },
    {
      "midi": 57,
      "hit": false,
      "t": 354002.73177083116,
      "d": 136.36249999998836,
      "v": 84
    },
    {
      "midi": 60,
      "hit": false,
      "t": 354002.73177083116,
      "d": 136.36249999998836,
      "v": 84
    },
    {
      "midi": 64,
      "hit": false,
      "t": 354002.73177083116,
      "d": 136.36249999998836,
      "v": 84
    },
    {
      "midi": 57,
      "hit": false,
      "t": 355093.6317708311,
      "d": 136.36249999998836,
      "v": 84
    },
    {
      "midi": 60,
      "hit": false,
      "t": 355093.6317708311,
      "d": 136.36249999998836,
      "v": 84
    },
    {
      "midi": 64,
      "hit": false,
      "t": 355093.6317708311,
      "d": 136.36249999998836,
      "v": 84
    },
    {
      "midi": 40,
      "hit": false,
      "t": 355633.39999999775,
      "d": 159.08958333334886,
      "v": 79
    },
    {
      "midi": 55,
      "hit": false,
      "t": 356184.5317708311,
      "d": 136.36249999998836,
      "v": 80
    },
    {
      "midi": 59,
      "hit": false,
      "t": 356184.5317708311,
      "d": 136.36249999998836,
      "v": 77
    },
    {
      "midi": 64,
      "hit": false,
      "t": 356184.5317708311,
      "d": 136.36249999998836,
      "v": 81
    },
    {
      "midi": 40,
      "hit": false,
      "t": 356184.5317708311,
      "d": 409.0874999999651,
      "v": 70
    },
    {
      "midi": 43,
      "hit": false,
      "t": 356724.2999999977,
      "d": 636.3583333333372,
      "v": 72
    },
    {
      "midi": 55,
      "hit": false,
      "t": 357275.43177083106,
      "d": 136.36249999998836,
      "v": 84
    },
    {
      "midi": 59,
      "hit": false,
      "t": 357275.43177083106,
      "d": 136.36249999998836,
      "v": 84
    },
    {
      "midi": 64,
      "hit": false,
      "t": 357275.43177083106,
      "d": 136.36249999998836,
      "v": 84
    },
    {
      "midi": 45,
      "hit": false,
      "t": 357815.1999999977,
      "d": 545.4500000000116,
      "v": 75
    },
    {
      "midi": 57,
      "hit": false,
      "t": 358366.331770831,
      "d": 136.36249999998836,
      "v": 84
    },
    {
      "midi": 60,
      "hit": false,
      "t": 358366.331770831,
      "d": 136.36249999998836,
      "v": 84
    },
    {
      "midi": 64,
      "hit": false,
      "t": 358366.331770831,
      "d": 136.36249999998836,
      "v": 84
    },
    {
      "midi": 57,
      "hit": false,
      "t": 359457.231770831,
      "d": 136.36249999998836,
      "v": 84
    },
    {
      "midi": 60,
      "hit": false,
      "t": 359457.231770831,
      "d": 136.36249999998836,
      "v": 84
    },
    {
      "midi": 64,
      "hit": false,
      "t": 359457.231770831,
      "d": 136.36249999998836,
      "v": 84
    },
    {
      "midi": 40,
      "hit": false,
      "t": 359996.9999999976,
      "d": 545.4500000000116,
      "v": 76
    },
    {
      "midi": 55,
      "hit": false,
      "t": 360548.13177083095,
      "d": 136.36249999998836,
      "v": 84
    },
    {
      "midi": 59,
      "hit": false,
      "t": 360548.13177083095,
      "d": 136.36249999998836,
      "v": 84
    },
    {
      "midi": 64,
      "hit": false,
      "t": 360548.13177083095,
      "d": 136.36249999998836,
      "v": 84
    },
    {
      "midi": 43,
      "hit": false,
      "t": 361093.58177083096,
      "d": 602.2677083333256,
      "v": 77
    },
    {
      "midi": 55,
      "hit": false,
      "t": 361639.031770831,
      "d": 136.36249999998836,
      "v": 84
    },
    {
      "midi": 59,
      "hit": false,
      "t": 361639.031770831,
      "d": 136.36249999998836,
      "v": 84
    },
    {
      "midi": 64,
      "hit": false,
      "t": 361639.031770831,
      "d": 136.36249999998836,
      "v": 84
    },
    {
      "midi": 45,
      "hit": false,
      "t": 362178.7999999976,
      "d": 613.6312499999767,
      "v": 75
    },
    {
      "midi": 57,
      "hit": false,
      "t": 362729.93177083094,
      "d": 136.36249999998836,
      "v": 84
    },
    {
      "midi": 60,
      "hit": false,
      "t": 362729.93177083094,
      "d": 136.36249999998836,
      "v": 84
    },
    {
      "midi": 64,
      "hit": false,
      "t": 362729.93177083094,
      "d": 136.36249999998836,
      "v": 84
    },
    {
      "midi": 57,
      "hit": false,
      "t": 363820.8317708309,
      "d": 136.36249999998836,
      "v": 84
    },
    {
      "midi": 60,
      "hit": false,
      "t": 363820.8317708309,
      "d": 136.36249999998836,
      "v": 84
    },
    {
      "midi": 64,
      "hit": false,
      "t": 363820.8317708309,
      "d": 136.36249999998836,
      "v": 84
    },
    {
      "midi": 40,
      "hit": false,
      "t": 364360.59999999753,
      "d": 159.08958333334886,
      "v": 79
    },
    {
      "midi": 55,
      "hit": false,
      "t": 364911.73177083087,
      "d": 136.36249999998836,
      "v": 80
    },
    {
      "midi": 59,
      "hit": false,
      "t": 364911.73177083087,
      "d": 136.36249999998836,
      "v": 77
    },
    {
      "midi": 64,
      "hit": false,
      "t": 364911.73177083087,
      "d": 136.36249999998836,
      "v": 81
    },
    {
      "midi": 40,
      "hit": false,
      "t": 364911.73177083087,
      "d": 409.0874999999651,
      "v": 70
    },
    {
      "midi": 43,
      "hit": false,
      "t": 365451.4999999975,
      "d": 636.3583333333372,
      "v": 72
    },
    {
      "midi": 55,
      "hit": false,
      "t": 366002.63177083083,
      "d": 136.36249999998836,
      "v": 84
    },
    {
      "midi": 59,
      "hit": false,
      "t": 366002.63177083083,
      "d": 136.36249999998836,
      "v": 84
    },
    {
      "midi": 64,
      "hit": false,
      "t": 366002.63177083083,
      "d": 136.36249999998836,
      "v": 84
    },
    {
      "midi": 45,
      "hit": false,
      "t": 366542.39999999746,
      "d": 613.6312499999767,
      "v": 75
    },
    {
      "midi": 57,
      "hit": false,
      "t": 367093.5317708308,
      "d": 136.36249999998836,
      "v": 84
    },
    {
      "midi": 60,
      "hit": false,
      "t": 367093.5317708308,
      "d": 136.36249999998836,
      "v": 84
    },
    {
      "midi": 64,
      "hit": false,
      "t": 367093.5317708308,
      "d": 136.36249999998836,
      "v": 84
    },
    {
      "midi": 57,
      "hit": false,
      "t": 368184.43177083076,
      "d": 136.36249999998836,
      "v": 84
    },
    {
      "midi": 60,
      "hit": false,
      "t": 368184.43177083076,
      "d": 136.36249999998836,
      "v": 84
    },
    {
      "midi": 64,
      "hit": false,
      "t": 368184.43177083076,
      "d": 136.36249999998836,
      "v": 84
    },
    {
      "midi": 40,
      "hit": false,
      "t": 368729.8817708308,
      "d": 590.9041666666744,
      "v": 77
    },
    {
      "midi": 55,
      "hit": false,
      "t": 369275.3317708308,
      "d": 136.36249999998836,
      "v": 84
    },
    {
      "midi": 59,
      "hit": false,
      "t": 369275.3317708308,
      "d": 136.36249999998836,
      "v": 84
    },
    {
      "midi": 64,
      "hit": false,
      "t": 369275.3317708308,
      "d": 136.36249999998836,
      "v": 84
    },
    {
      "midi": 43,
      "hit": false,
      "t": 369820.7817708308,
      "d": 647.7218749999884,
      "v": 76
    },
    {
      "midi": 55,
      "hit": false,
      "t": 370366.2317708308,
      "d": 136.36249999998836,
      "v": 84
    },
    {
      "midi": 59,
      "hit": false,
      "t": 370366.2317708308,
      "d": 136.36249999998836,
      "v": 84
    },
    {
      "midi": 64,
      "hit": false,
      "t": 370366.2317708308,
      "d": 136.36249999998836,
      "v": 84
    },
    {
      "midi": 45,
      "hit": false,
      "t": 370905.99999999744,
      "d": 624.9947916666861,
      "v": 85
    },
    {
      "midi": 57,
      "hit": false,
      "t": 371457.1317708308,
      "d": 136.36249999998836,
      "v": 83
    },
    {
      "midi": 60,
      "hit": false,
      "t": 371457.1317708308,
      "d": 136.36249999998836,
      "v": 81
    },
    {
      "midi": 64,
      "hit": false,
      "t": 371457.1317708308,
      "d": 136.36249999998836,
      "v": 80
    },
    {
      "midi": 57,
      "hit": false,
      "t": 372548.03177083074,
      "d": 397.72395833331393,
      "v": 83
    },
    {
      "midi": 64,
      "hit": false,
      "t": 372548.03177083074,
      "d": 397.72395833331393,
      "v": 80
    },
    {
      "midi": 60,
      "hit": false,
      "t": 372548.03177083074,
      "d": 409.0874999999651,
      "v": 81
    },
    {
      "midi": 45,
      "hit": false,
      "t": 373093.4817708307,
      "d": 2170.436458333337,
      "v": 65
    },
    {
      "midi": 57,
      "hit": false,
      "t": 373093.4817708307,
      "d": 2170.436458333337,
      "v": 74
    },
    {
      "midi": 60,
      "hit": false,
      "t": 373093.4817708307,
      "d": 2170.436458333337,
      "v": 80
    },
    {
      "midi": 64,
      "hit": false,
      "t": 373093.4817708307,
      "d": 2170.436458333337,
      "v": 77
    },
    {
      "midi": 38,
      "hit": false,
      "t": 375269.59999999736,
      "d": 1056.8093749999534,
      "v": 91
    },
    {
      "midi": 62,
      "hit": false,
      "t": 375275.2817708307,
      "d": 1034.0822916666511,
      "v": 91
    },
    {
      "midi": 65,
      "hit": false,
      "t": 375275.2817708307,
      "d": 1090.899999999965,
      "v": 98
    },
    {
      "midi": 60,
      "hit": false,
      "t": 376360.4999999973,
      "d": 1045.4458333333023,
      "v": 88
    },
    {
      "midi": 64,
      "hit": false,
      "t": 376360.4999999973,
      "d": 1056.8093749999534,
      "v": 91
    },
    {
      "midi": 40,
      "hit": false,
      "t": 376366.18177083065,
      "d": 1113.6270833333256,
      "v": 90
    },
    {
      "midi": 57,
      "hit": false,
      "t": 377451.3999999973,
      "d": 1056.8093750000116,
      "v": 91
    },
    {
      "midi": 41,
      "hit": false,
      "t": 377451.3999999973,
      "d": 1079.5364583333721,
      "v": 90
    },
    {
      "midi": 60,
      "hit": false,
      "t": 377451.3999999973,
      "d": 1079.5364583333721,
      "v": 92
    },
    {
      "midi": 60,
      "hit": false,
      "t": 378542.2999999973,
      "d": 1170.4447916666977,
      "v": 88
    },
    {
      "midi": 57,
      "hit": false,
      "t": 378542.2999999973,
      "d": 1181.8083333333489,
      "v": 90
    },
    {
      "midi": 45,
      "hit": false,
      "t": 378547.98177083064,
      "d": 1170.4447916666977,
      "v": 90
    },
    {
      "midi": 43,
      "hit": false,
      "t": 379638.88177083066,
      "d": 5261.3197916666395,
      "v": 82
    },
    {
      "midi": 59,
      "hit": false,
      "t": 379638.88177083066,
      "d": 5272.683333333291,
      "v": 86
    },
    {
      "midi": 55,
      "hit": false,
      "t": 379638.88177083066,
      "d": 5295.410416666651,
      "v": 90
    },
    {
      "midi": 77,
      "hit": false,
      "t": 385087.69999999733,
      "d": 1034.0822916666511,
      "v": 90
    },
    {
      "midi": 74,
      "hit": false,
      "t": 385087.69999999733,
      "d": 1045.4458333333023,
      "v": 88
    },
    {
      "midi": 38,
      "hit": false,
      "t": 385087.69999999733,
      "d": 1056.8093749999534,
      "v": 92
    },
    {
      "midi": 69,
      "hit": false,
      "t": 385087.69999999733,
      "d": 1079.536458333314,
      "v": 87
    },
    {
      "midi": 72,
      "hit": false,
      "t": 386178.5999999973,
      "d": 1045.4458333333605,
      "v": 91
    },
    {
      "midi": 69,
      "hit": false,
      "t": 386178.5999999973,
      "d": 1056.8093750000116,
      "v": 87
    },
    {
      "midi": 76,
      "hit": false,
      "t": 386178.5999999973,
      "d": 1056.8093750000116,
      "v": 87
    },
    {
      "midi": 40,
      "hit": false,
      "t": 386178.5999999973,
      "d": 1090.9000000000233,
      "v": 88
    },
    {
      "midi": 69,
      "hit": false,
      "t": 387269.4999999973,
      "d": 1062.4911458333372,
      "v": 88
    },
    {
      "midi": 41,
      "hit": false,
      "t": 387275.18177083065,
      "d": 1068.1729166666628,
      "v": 87
    },
    {
      "midi": 65,
      "hit": false,
      "t": 387275.18177083065,
      "d": 1079.536458333314,
      "v": 89
    },
    {
      "midi": 72,
      "hit": false,
      "t": 387275.18177083065,
      "d": 1079.536458333314,
      "v": 86
    },
    {
      "midi": 69,
      "hit": false,
      "t": 388360.3999999973,
      "d": 1034.0822916666511,
      "v": 91
    },
    {
      "midi": 72,
      "hit": false,
      "t": 388360.3999999973,
      "d": 1034.0822916666511,
      "v": 87
    },
    {
      "midi": 65,
      "hit": false,
      "t": 388360.3999999973,
      "d": 1079.536458333314,
      "v": 87
    },
    {
      "midi": 45,
      "hit": false,
      "t": 388366.0817708306,
      "d": 1090.899999999965,
      "v": 89
    },
    {
      "midi": 67,
      "hit": false,
      "t": 389462.6635416639,
      "d": 2931.7937500000116,
      "v": 87
    },
    {
      "midi": 71,
      "hit": false,
      "t": 389462.6635416639,
      "d": 2931.7937500000116,
      "v": 87
    },
    {
      "midi": 74,
      "hit": false,
      "t": 389462.6635416639,
      "d": 2965.8843750000233,
      "v": 87
    },
    {
      "midi": 43,
      "hit": false,
      "t": 389462.6635416639,
      "d": 2977.2479166666744,
      "v": 91
    },
    {
      "midi": 45,
      "hit": false,
      "t": 392723.99999999726,
      "d": 602.2677083333256,
      "v": 84
    },
    {
      "midi": 57,
      "hit": false,
      "t": 393275.1317708306,
      "d": 136.36249999998836,
      "v": 84
    },
    {
      "midi": 60,
      "hit": false,
      "t": 393275.1317708306,
      "d": 136.36249999998836,
      "v": 84
    },
    {
      "midi": 64,
      "hit": false,
      "t": 393275.1317708306,
      "d": 136.36249999998836,
      "v": 84
    },
    {
      "midi": 57,
      "hit": false,
      "t": 394366.03177083057,
      "d": 136.36249999998836,
      "v": 84
    },
    {
      "midi": 60,
      "hit": false,
      "t": 394366.03177083057,
      "d": 136.36249999998836,
      "v": 84
    },
    {
      "midi": 64,
      "hit": false,
      "t": 394366.03177083057,
      "d": 136.36249999998836,
      "v": 84
    },
    {
      "midi": 40,
      "hit": false,
      "t": 394911.4817708306,
      "d": 590.9041666666744,
      "v": 84
    },
    {
      "midi": 55,
      "hit": false,
      "t": 395456.9317708306,
      "d": 136.36249999998836,
      "v": 84
    },
    {
      "midi": 59,
      "hit": false,
      "t": 395456.9317708306,
      "d": 136.36249999998836,
      "v": 84
    },
    {
      "midi": 64,
      "hit": false,
      "t": 395456.9317708306,
      "d": 136.36249999998836,
      "v": 84
    },
    {
      "midi": 43,
      "hit": false,
      "t": 396002.3817708306,
      "d": 613.6312500000349,
      "v": 84
    },
    {
      "midi": 55,
      "hit": false,
      "t": 396547.8317708306,
      "d": 136.36250000004657,
      "v": 84
    },
    {
      "midi": 59,
      "hit": false,
      "t": 396547.8317708306,
      "d": 136.36250000004657,
      "v": 84
    },
    {
      "midi": 64,
      "hit": false,
      "t": 396547.8317708306,
      "d": 136.36250000004657,
      "v": 84
    },
    {
      "midi": 45,
      "hit": false,
      "t": 397093.2817708307,
      "d": 602.2677083333256,
      "v": 84
    },
    {
      "midi": 57,
      "hit": false,
      "t": 397638.7317708307,
      "d": 136.36249999998836,
      "v": 84
    },
    {
      "midi": 60,
      "hit": false,
      "t": 397638.7317708307,
      "d": 136.36249999998836,
      "v": 84
    },
    {
      "midi": 64,
      "hit": false,
      "t": 397638.7317708307,
      "d": 136.36249999998836,
      "v": 84
    },
    {
      "midi": 57,
      "hit": false,
      "t": 398729.63177083066,
      "d": 136.36249999998836,
      "v": 84
    },
    {
      "midi": 60,
      "hit": false,
      "t": 398729.63177083066,
      "d": 136.36249999998836,
      "v": 84
    },
    {
      "midi": 64,
      "hit": false,
      "t": 398729.63177083066,
      "d": 136.36249999998836,
      "v": 84
    },
    {
      "midi": 40,
      "hit": false,
      "t": 399269.3999999973,
      "d": 193.1802083333605,
      "v": 84
    },
    {
      "midi": 55,
      "hit": false,
      "t": 399820.5317708306,
      "d": 136.36249999998836,
      "v": 84
    },
    {
      "midi": 59,
      "hit": false,
      "t": 399820.5317708306,
      "d": 136.36249999998836,
      "v": 84
    },
    {
      "midi": 64,
      "hit": false,
      "t": 399820.5317708306,
      "d": 136.36249999998836,
      "v": 84
    },
    {
      "midi": 40,
      "hit": false,
      "t": 399820.5317708306,
      "d": 534.0864583333023,
      "v": 84
    },
    {
      "midi": 43,
      "hit": false,
      "t": 400360.29999999725,
      "d": 647.7218749999884,
      "v": 84
    },
    {
      "midi": 55,
      "hit": false,
      "t": 400911.4317708306,
      "d": 136.36249999998836,
      "v": 84
    },
    {
      "midi": 59,
      "hit": false,
      "t": 400911.4317708306,
      "d": 136.36249999998836,
      "v": 84
    },
    {
      "midi": 64,
      "hit": false,
      "t": 400911.4317708306,
      "d": 136.36249999998836,
      "v": 84
    },
    {
      "midi": 45,
      "hit": false,
      "t": 401456.8817708306,
      "d": 568.1770833333721,
      "v": 84
    },
    {
      "midi": 57,
      "hit": false,
      "t": 402002.3317708306,
      "d": 136.36250000004657,
      "v": 84
    },
    {
      "midi": 60,
      "hit": false,
      "t": 402002.3317708306,
      "d": 136.36250000004657,
      "v": 84
    },
    {
      "midi": 64,
      "hit": false,
      "t": 402002.3317708306,
      "d": 136.36250000004657,
      "v": 84
    },
    {
      "midi": 57,
      "hit": false,
      "t": 403093.23177083064,
      "d": 136.36249999998836,
      "v": 84
    },
    {
      "midi": 60,
      "hit": false,
      "t": 403093.23177083064,
      "d": 136.36249999998836,
      "v": 84
    },
    {
      "midi": 64,
      "hit": false,
      "t": 403093.23177083064,
      "d": 136.36249999998836,
      "v": 84
    },
    {
      "midi": 38,
      "hit": false,
      "t": 403632.99999999726,
      "d": 659.0854166666977,
      "v": 84
    },
    {
      "midi": 50,
      "hit": false,
      "t": 404184.1317708306,
      "d": 136.36250000004657,
      "v": 84
    },
    {
      "midi": 53,
      "hit": false,
      "t": 404184.1317708306,
      "d": 136.36250000004657,
      "v": 84
    },
    {
      "midi": 57,
      "hit": false,
      "t": 404184.1317708306,
      "d": 136.36250000004657,
      "v": 84
    },
    {
      "midi": 40,
      "hit": false,
      "t": 404723.8999999973,
      "d": 636.3583333333372,
      "v": 84
    },
    {
      "midi": 52,
      "hit": false,
      "t": 405275.0317708306,
      "d": 136.36249999998836,
      "v": 84
    },
    {
      "midi": 55,
      "hit": false,
      "t": 405275.0317708306,
      "d": 136.36249999998836,
      "v": 84
    },
    {
      "midi": 59,
      "hit": false,
      "t": 405275.0317708306,
      "d": 136.36249999998836,
      "v": 84
    },
    {
      "midi": 41,
      "hit": false,
      "t": 405814.79999999725,
      "d": 681.8125,
      "v": 84
    },
    {
      "midi": 53,
      "hit": false,
      "t": 406365.9317708306,
      "d": 136.36249999998836,
      "v": 84
    },
    {
      "midi": 57,
      "hit": false,
      "t": 406365.9317708306,
      "d": 136.36249999998836,
      "v": 84
    },
    {
      "midi": 60,
      "hit": false,
      "t": 406365.9317708306,
      "d": 136.36249999998836,
      "v": 84
    },
    {
      "midi": 53,
      "hit": false,
      "t": 407456.83177083055,
      "d": 136.36249999998836,
      "v": 84
    },
    {
      "midi": 57,
      "hit": false,
      "t": 407456.83177083055,
      "d": 136.36249999998836,
      "v": 84
    },
    {
      "midi": 60,
      "hit": false,
      "t": 407456.83177083055,
      "d": 136.36249999998836,
      "v": 84
    },
    {
      "midi": 43,
      "hit": false,
      "t": 408002.28177083057,
      "d": 659.0854166666977,
      "v": 84
    },
    {
      "midi": 55,
      "hit": false,
      "t": 408547.7317708306,
      "d": 136.36250000004657,
      "v": 84
    },
    {
      "midi": 59,
      "hit": false,
      "t": 408547.7317708306,
      "d": 136.36250000004657,
      "v": 84
    },
    {
      "midi": 62,
      "hit": false,
      "t": 408547.7317708306,
      "d": 136.36250000004657,
      "v": 84
    },
    {
      "midi": 55,
      "hit": false,
      "t": 409638.6317708306,
      "d": 136.36249999998836,
      "v": 84
    },
    {
      "midi": 59,
      "hit": false,
      "t": 409638.6317708306,
      "d": 136.36249999998836,
      "v": 84
    },
    {
      "midi": 62,
      "hit": false,
      "t": 409638.6317708306,
      "d": 136.36249999998836,
      "v": 84
    },
    {
      "midi": 45,
      "hit": false,
      "t": 410178.39999999723,
      "d": 647.7218749999884,
      "v": 84
    },
    {
      "midi": 57,
      "hit": false,
      "t": 410729.53177083057,
      "d": 136.36249999998836,
      "v": 84
    },
    {
      "midi": 60,
      "hit": false,
      "t": 410729.53177083057,
      "d": 136.36249999998836,
      "v": 84
    },
    {
      "midi": 64,
      "hit": false,
      "t": 410729.53177083057,
      "d": 136.36249999998836,
      "v": 84
    },
    {
      "midi": 57,
      "hit": false,
      "t": 411820.43177083053,
      "d": 136.36249999998836,
      "v": 84
    },
    {
      "midi": 60,
      "hit": false,
      "t": 411820.43177083053,
      "d": 136.36249999998836,
      "v": 84
    },
    {
      "midi": 64,
      "hit": false,
      "t": 411820.43177083053,
      "d": 136.36249999998836,
      "v": 84
    },
    {
      "midi": 40,
      "hit": false,
      "t": 412365.88177083054,
      "d": 590.9041666666744,
      "v": 84
    },
    {
      "midi": 55,
      "hit": false,
      "t": 412911.33177083055,
      "d": 136.36249999998836,
      "v": 84
    },
    {
      "midi": 59,
      "hit": false,
      "t": 412911.33177083055,
      "d": 136.36249999998836,
      "v": 84
    },
    {
      "midi": 64,
      "hit": false,
      "t": 412911.33177083055,
      "d": 136.36249999998836,
      "v": 84
    },
    {
      "midi": 43,
      "hit": false,
      "t": 413451.0999999972,
      "d": 624.9947916666861,
      "v": 84
    },
    {
      "midi": 55,
      "hit": false,
      "t": 414002.2317708305,
      "d": 136.36249999998836,
      "v": 84
    },
    {
      "midi": 59,
      "hit": false,
      "t": 414002.2317708305,
      "d": 136.36249999998836,
      "v": 84
    },
    {
      "midi": 64,
      "hit": false,
      "t": 414002.2317708305,
      "d": 136.36249999998836,
      "v": 84
    },
    {
      "midi": 45,
      "hit": false,
      "t": 414541.99999999715,
      "d": 624.9947916666861,
      "v": 84
    },
    {
      "midi": 57,
      "hit": false,
      "t": 415093.1317708305,
      "d": 136.36249999998836,
      "v": 84
    },
    {
      "midi": 60,
      "hit": false,
      "t": 415093.1317708305,
      "d": 136.36249999998836,
      "v": 84
    },
    {
      "midi": 64,
      "hit": false,
      "t": 415093.1317708305,
      "d": 136.36249999998836,
      "v": 84
    },
    {
      "midi": 57,
      "hit": false,
      "t": 416184.03177083045,
      "d": 136.36249999998836,
      "v": 84
    },
    {
      "midi": 60,
      "hit": false,
      "t": 416184.03177083045,
      "d": 136.36249999998836,
      "v": 84
    },
    {
      "midi": 64,
      "hit": false,
      "t": 416184.03177083045,
      "d": 136.36249999998836,
      "v": 84
    },
    {
      "midi": 40,
      "hit": false,
      "t": 416723.7999999971,
      "d": 193.1802083333605,
      "v": 84
    },
    {
      "midi": 55,
      "hit": false,
      "t": 417274.9317708304,
      "d": 136.36249999998836,
      "v": 84
    },
    {
      "midi": 59,
      "hit": false,
      "t": 417274.9317708304,
      "d": 136.36249999998836,
      "v": 84
    },
    {
      "midi": 64,
      "hit": false,
      "t": 417274.9317708304,
      "d": 136.36249999998836,
      "v": 84
    },
    {
      "midi": 40,
      "hit": false,
      "t": 417274.9317708304,
      "d": 545.4499999999534,
      "v": 84
    },
    {
      "midi": 43,
      "hit": false,
      "t": 417814.69999999704,
      "d": 704.5395833333023,
      "v": 84
    },
    {
      "midi": 55,
      "hit": false,
      "t": 418365.8317708304,
      "d": 136.36249999998836,
      "v": 84
    },
    {
      "midi": 59,
      "hit": false,
      "t": 418365.8317708304,
      "d": 136.36249999998836,
      "v": 84
    },
    {
      "midi": 64,
      "hit": false,
      "t": 418365.8317708304,
      "d": 136.36249999998836,
      "v": 84
    },
    {
      "midi": 45,
      "hit": false,
      "t": 418911.28177083033,
      "d": 613.6312500000349,
      "v": 84
    },
    {
      "midi": 57,
      "hit": false,
      "t": 419456.73177083035,
      "d": 136.36250000004657,
      "v": 84
    },
    {
      "midi": 60,
      "hit": false,
      "t": 419456.73177083035,
      "d": 136.36250000004657,
      "v": 84
    },
    {
      "midi": 64,
      "hit": false,
      "t": 419456.73177083035,
      "d": 136.36250000004657,
      "v": 84
    },
    {
      "midi": 57,
      "hit": false,
      "t": 420547.63177083037,
      "d": 136.36249999998836,
      "v": 84
    },
    {
      "midi": 60,
      "hit": false,
      "t": 420547.63177083037,
      "d": 136.36249999998836,
      "v": 84
    },
    {
      "midi": 64,
      "hit": false,
      "t": 420547.63177083037,
      "d": 136.36249999998836,
      "v": 84
    },
    {
      "midi": 38,
      "hit": false,
      "t": 421093.0817708304,
      "d": 693.1760416666511,
      "v": 84
    },
    {
      "midi": 50,
      "hit": false,
      "t": 421638.5317708304,
      "d": 136.36249999998836,
      "v": 84
    },
    {
      "midi": 53,
      "hit": false,
      "t": 421638.5317708304,
      "d": 136.36249999998836,
      "v": 84
    },
    {
      "midi": 57,
      "hit": false,
      "t": 421638.5317708304,
      "d": 136.36249999998836,
      "v": 84
    },
    {
      "midi": 40,
      "hit": false,
      "t": 422183.98177083035,
      "d": 693.1760416666511,
      "v": 84
    },
    {
      "midi": 52,
      "hit": false,
      "t": 422729.43177083036,
      "d": 136.36249999998836,
      "v": 84
    },
    {
      "midi": 55,
      "hit": false,
      "t": 422729.43177083036,
      "d": 136.36249999998836,
      "v": 84
    },
    {
      "midi": 59,
      "hit": false,
      "t": 422729.43177083036,
      "d": 136.36249999998836,
      "v": 84
    },
    {
      "midi": 41,
      "hit": false,
      "t": 423269.199999997,
      "d": 636.3583333333372,
      "v": 84
    },
    {
      "midi": 53,
      "hit": false,
      "t": 423820.3317708303,
      "d": 136.36249999998836,
      "v": 84
    },
    {
      "midi": 57,
      "hit": false,
      "t": 423820.3317708303,
      "d": 136.36249999998836,
      "v": 84
    },
    {
      "midi": 60,
      "hit": false,
      "t": 423820.3317708303,
      "d": 136.36249999998836,
      "v": 84
    },
    {
      "midi": 53,
      "hit": false,
      "t": 424911.2317708303,
      "d": 136.36249999998836,
      "v": 84
    },
    {
      "midi": 57,
      "hit": false,
      "t": 424911.2317708303,
      "d": 136.36249999998836,
      "v": 84
    },
    {
      "midi": 60,
      "hit": false,
      "t": 424911.2317708303,
      "d": 136.36249999998836,
      "v": 84
    },
    {
      "midi": 43,
      "hit": false,
      "t": 425456.6817708303,
      "d": 602.2677083333256,
      "v": 84
    },
    {
      "midi": 55,
      "hit": false,
      "t": 426002.1317708303,
      "d": 136.36249999998836,
      "v": 84
    },
    {
      "midi": 59,
      "hit": false,
      "t": 426002.1317708303,
      "d": 136.36249999998836,
      "v": 84
    },
    {
      "midi": 62,
      "hit": false,
      "t": 426002.1317708303,
      "d": 136.36249999998836,
      "v": 84
    },
    {
      "midi": 55,
      "hit": false,
      "t": 427093.0317708303,
      "d": 136.36249999998836,
      "v": 84
    },
    {
      "midi": 59,
      "hit": false,
      "t": 427093.0317708303,
      "d": 136.36249999998836,
      "v": 84
    },
    {
      "midi": 62,
      "hit": false,
      "t": 427093.0317708303,
      "d": 136.36249999998836,
      "v": 84
    },
    {
      "midi": 45,
      "hit": false,
      "t": 427632.7999999969,
      "d": 647.7218749999884,
      "v": 84
    },
    {
      "midi": 57,
      "hit": false,
      "t": 428183.93177083024,
      "d": 136.36249999998836,
      "v": 84
    },
    {
      "midi": 60,
      "hit": false,
      "t": 428183.93177083024,
      "d": 136.36249999998836,
      "v": 84
    },
    {
      "midi": 64,
      "hit": false,
      "t": 428183.93177083024,
      "d": 136.36249999998836,
      "v": 84
    },
    {
      "midi": 57,
      "hit": false,
      "t": 429274.8317708302,
      "d": 136.36249999998836,
      "v": 84
    },
    {
      "midi": 60,
      "hit": false,
      "t": 429274.8317708302,
      "d": 136.36249999998836,
      "v": 84
    },
    {
      "midi": 64,
      "hit": false,
      "t": 429274.8317708302,
      "d": 136.36249999998836,
      "v": 84
    },
    {
      "midi": 40,
      "hit": false,
      "t": 429820.2817708302,
      "d": 590.9041666666744,
      "v": 84
    },
    {
      "midi": 55,
      "hit": false,
      "t": 430365.7317708302,
      "d": 136.36249999998836,
      "v": 84
    },
    {
      "midi": 59,
      "hit": false,
      "t": 430365.7317708302,
      "d": 136.36249999998836,
      "v": 84
    },
    {
      "midi": 64,
      "hit": false,
      "t": 430365.7317708302,
      "d": 136.36249999998836,
      "v": 84
    },
    {
      "midi": 43,
      "hit": false,
      "t": 430905.49999999686,
      "d": 624.9947916666861,
      "v": 84
    },
    {
      "midi": 55,
      "hit": false,
      "t": 431456.6317708302,
      "d": 136.36249999998836,
      "v": 84
    },
    {
      "midi": 59,
      "hit": false,
      "t": 431456.6317708302,
      "d": 136.36249999998836,
      "v": 84
    },
    {
      "midi": 64,
      "hit": false,
      "t": 431456.6317708302,
      "d": 136.36249999998836,
      "v": 84
    },
    {
      "midi": 45,
      "hit": false,
      "t": 431996.3999999968,
      "d": 624.9947916666861,
      "v": 84
    },
    {
      "midi": 57,
      "hit": false,
      "t": 432547.53177083016,
      "d": 136.36249999998836,
      "v": 84
    },
    {
      "midi": 60,
      "hit": false,
      "t": 432547.53177083016,
      "d": 136.36249999998836,
      "v": 84
    },
    {
      "midi": 64,
      "hit": false,
      "t": 432547.53177083016,
      "d": 136.36249999998836,
      "v": 84
    },
    {
      "midi": 57,
      "hit": false,
      "t": 433638.4317708301,
      "d": 136.36249999998836,
      "v": 84
    },
    {
      "midi": 60,
      "hit": false,
      "t": 433638.4317708301,
      "d": 136.36249999998836,
      "v": 84
    },
    {
      "midi": 64,
      "hit": false,
      "t": 433638.4317708301,
      "d": 136.36249999998836,
      "v": 84
    },
    {
      "midi": 40,
      "hit": false,
      "t": 434178.19999999675,
      "d": 193.1802083333605,
      "v": 84
    },
    {
      "midi": 55,
      "hit": false,
      "t": 434729.3317708301,
      "d": 136.36249999998836,
      "v": 84
    },
    {
      "midi": 59,
      "hit": false,
      "t": 434729.3317708301,
      "d": 136.36249999998836,
      "v": 84
    },
    {
      "midi": 64,
      "hit": false,
      "t": 434729.3317708301,
      "d": 136.36249999998836,
      "v": 84
    },
    {
      "midi": 40,
      "hit": false,
      "t": 434729.3317708301,
      "d": 545.4499999999534,
      "v": 84
    },
    {
      "midi": 43,
      "hit": false,
      "t": 435269.0999999967,
      "d": 704.5395833333023,
      "v": 84
    },
    {
      "midi": 55,
      "hit": false,
      "t": 435820.23177083005,
      "d": 136.36249999998836,
      "v": 84
    },
    {
      "midi": 59,
      "hit": false,
      "t": 435820.23177083005,
      "d": 136.36249999998836,
      "v": 84
    },
    {
      "midi": 64,
      "hit": false,
      "t": 435820.23177083005,
      "d": 136.36249999998836,
      "v": 84
    },
    {
      "midi": 45,
      "hit": false,
      "t": 436365.68177083,
      "d": 613.6312500000349,
      "v": 84
    },
    {
      "midi": 57,
      "hit": false,
      "t": 436911.13177083,
      "d": 136.36250000004657,
      "v": 84
    },
    {
      "midi": 60,
      "hit": false,
      "t": 436911.13177083,
      "d": 136.36250000004657,
      "v": 84
    },
    {
      "midi": 64,
      "hit": false,
      "t": 436911.13177083,
      "d": 136.36250000004657,
      "v": 84
    },
    {
      "midi": 57,
      "hit": false,
      "t": 438002.03177083004,
      "d": 136.36249999998836,
      "v": 84
    },
    {
      "midi": 60,
      "hit": false,
      "t": 438002.03177083004,
      "d": 136.36249999998836,
      "v": 84
    },
    {
      "midi": 64,
      "hit": false,
      "t": 438002.03177083004,
      "d": 136.36249999998836,
      "v": 84
    },
    {
      "midi": 38,
      "hit": false,
      "t": 438547.48177083005,
      "d": 693.1760416666511,
      "v": 84
    },
    {
      "midi": 50,
      "hit": false,
      "t": 439092.93177083007,
      "d": 136.36249999998836,
      "v": 84
    },
    {
      "midi": 53,
      "hit": false,
      "t": 439092.93177083007,
      "d": 136.36249999998836,
      "v": 84
    },
    {
      "midi": 57,
      "hit": false,
      "t": 439092.93177083007,
      "d": 136.36249999998836,
      "v": 84
    },
    {
      "midi": 40,
      "hit": false,
      "t": 439638.38177083,
      "d": 693.1760416666511,
      "v": 84
    },
    {
      "midi": 59,
      "hit": false,
      "t": 440183.83177083003,
      "d": 511.359375,
      "v": 84
    },
    {
      "midi": 52,
      "hit": false,
      "t": 440183.83177083003,
      "d": 534.0864583333605,
      "v": 84
    },
    {
      "midi": 55,
      "hit": false,
      "t": 440183.83177083003,
      "d": 534.0864583333605,
      "v": 84
    },
    {
      "midi": 41,
      "hit": false,
      "t": 440723.5999999967,
      "d": 4261.328125,
      "v": 85
    },
    {
      "midi": 53,
      "hit": false,
      "t": 440723.5999999967,
      "d": 4261.328125,
      "v": 84
    },
    {
      "midi": 57,
      "hit": false,
      "t": 440723.5999999967,
      "d": 4261.328125,
      "v": 89
    },
    {
      "midi": 60,
      "hit": false,
      "t": 440723.5999999967,
      "d": 4261.328125,
      "v": 85
    },
    {
      "midi": 57,
      "hit": false,
      "t": 445087.1999999967,
      "d": 3909.058333333349,
      "v": 91
    },
    {
      "midi": 53,
      "hit": false,
      "t": 445092.88177083,
      "d": 3852.2406249999767,
      "v": 95
    },
    {
      "midi": 60,
      "hit": false,
      "t": 445092.88177083,
      "d": 3874.967708333337,
      "v": 95
    },
    {
      "midi": 43,
      "hit": false,
      "t": 445092.88177083,
      "d": 4352.236458333384,
      "v": 106
    },
    {
      "midi": 57,
      "hit": false,
      "t": 449450.7999999967,
      "d": 8488.565624999988,
      "v": 91
    },
    {
      "midi": 64,
      "hit": false,
      "t": 449450.7999999967,
      "d": 8488.565624999988,
      "v": 100
    },
    {
      "midi": 61,
      "hit": false,
      "t": 449450.7999999967,
      "d": 8499.92916666664,
      "v": 98
    },
    {
      "midi": 45,
      "hit": false,
      "t": 449456.48177083005,
      "d": 8488.565624999988,
      "v": 104
    }
  ]
}