{
  "jsonPath": "Unknown/Unknown/The Malibooz/summer-wind.json",
  "path": "Unknown\\Unknown\\The Malibooz\\Summer Wind.mid",
  "name": "Summer Wind",
  "difficulty": "Advanced",
  "bpm": 120,
  "notes": [
    {
      "midi": 53,
      "hit": false,
      "t": 14566.666666666668,
      "d": 1983.3333333333321,
      "v": 95
    },
    {
      "midi": 60,
      "hit": false,
      "t": 14866.666666666668,
      "d": 816.6666666666661,
      "v": 53
    },
    {
      "midi": 65,
      "hit": false,
      "t": 15166.666666666668,
      "d": 850,
      "v": 75
    },
    {
      "midi": 69,
      "hit": false,
      "t": 15466.666666666668,
      "d": 2083.3333333333285,
      "v": 99
    },
    {
      "midi": 60,
      "hit": false,
      "t": 16083.333333333334,
      "d": 516.6666666666661,
      "v": 69
    },
    {
      "midi": 65,
      "hit": false,
      "t": 16383.333333333334,
      "d": 583.3333333333303,
      "v": 59
    },
    {
      "midi": 60,
      "hit": false,
      "t": 16683.333333333332,
      "d": 200,
      "v": 52
    },
    {
      "midi": 50,
      "hit": false,
      "t": 16983.333333333332,
      "d": 333.3333333333321,
      "v": 95
    },
    {
      "midi": 57,
      "hit": false,
      "t": 17283.333333333332,
      "d": 1733.3333333333321,
      "v": 92
    },
    {
      "midi": 62,
      "hit": false,
      "t": 17599.999999999996,
      "d": 1783.3333333333358,
      "v": 102
    },
    {
      "midi": 65,
      "hit": false,
      "t": 17899.999999999996,
      "d": 1483.3333333333358,
      "v": 84
    },
    {
      "midi": 55,
      "hit": false,
      "t": 19416.666666666664,
      "d": 1066.6666666666679,
      "v": 102
    },
    {
      "midi": 58,
      "hit": false,
      "t": 19716.666666666664,
      "d": 900,
      "v": 89
    },
    {
      "midi": 62,
      "hit": false,
      "t": 20016.666666666664,
      "d": 300,
      "v": 81
    },
    {
      "midi": 65,
      "hit": false,
      "t": 20316.666666666664,
      "d": 316.6666666666679,
      "v": 86
    },
    {
      "midi": 60,
      "hit": false,
      "t": 20633.333333333332,
      "d": 766.6666666666679,
      "v": 81
    },
    {
      "midi": 64,
      "hit": false,
      "t": 20633.333333333332,
      "d": 1183.3333333333321,
      "v": 79
    },
    {
      "midi": 60,
      "hit": false,
      "t": 21533.333333333332,
      "d": 183.33333333333212,
      "v": 69
    },
    {
      "midi": 65,
      "hit": false,
      "t": 21833.333333333332,
      "d": 733.3333333333358,
      "v": 78
    },
    {
      "midi": 53,
      "hit": false,
      "t": 21833.333333333332,
      "d": 2116.666666666668,
      "v": 86
    },
    {
      "midi": 60,
      "hit": false,
      "t": 22450,
      "d": 1083.3333333333321,
      "v": 78
    },
    {
      "midi": 65,
      "hit": false,
      "t": 22750,
      "d": 883.3333333333321,
      "v": 60
    },
    {
      "midi": 69,
      "hit": false,
      "t": 22750,
      "d": 1216.6666666666679,
      "v": 73
    },
    {
      "midi": 53,
      "hit": false,
      "t": 24266.666666666668,
      "d": 1950,
      "v": 70
    },
    {
      "midi": 57,
      "hit": false,
      "t": 24350,
      "d": 1916.6666666666679,
      "v": 86
    },
    {
      "midi": 60,
      "hit": false,
      "t": 24400,
      "d": 1866.6666666666679,
      "v": 77
    },
    {
      "midi": 65,
      "hit": false,
      "t": 24450,
      "d": 1883.3333333333358,
      "v": 77
    },
    {
      "midi": 55,
      "hit": false,
      "t": 26700.000000000004,
      "d": 1916.6666666666679,
      "v": 83
    },
    {
      "midi": 58,
      "hit": false,
      "t": 26800.000000000004,
      "d": 1783.3333333333358,
      "v": 69
    },
    {
      "midi": 62,
      "hit": false,
      "t": 26900.000000000004,
      "d": 1666.6666666666679,
      "v": 77
    },
    {
      "midi": 67,
      "hit": false,
      "t": 26950.000000000004,
      "d": 1600,
      "v": 75
    },
    {
      "midi": 48,
      "hit": false,
      "t": 29050.000000000004,
      "d": 1983.3333333333358,
      "v": 64
    },
    {
      "midi": 52,
      "hit": false,
      "t": 29116.66666666667,
      "d": 1900,
      "v": 80
    },
    {
      "midi": 55,
      "hit": false,
      "t": 29233.33333333334,
      "d": 1800,
      "v": 66
    },
    {
      "midi": 60,
      "hit": false,
      "t": 29266.66666666667,
      "d": 1800,
      "v": 83
    },
    {
      "midi": 50,
      "hit": false,
      "t": 31500.000000000004,
      "d": 1883.3333333333321,
      "v": 70
    },
    {
      "midi": 53,
      "hit": false,
      "t": 31550.000000000004,
      "d": 1833.3333333333321,
      "v": 80
    },
    {
      "midi": 57,
      "hit": false,
      "t": 31666.66666666667,
      "d": 1733.3333333333285,
      "v": 68
    },
    {
      "midi": 62,
      "hit": false,
      "t": 31716.66666666667,
      "d": 1716.6666666666642,
      "v": 86
    },
    {
      "midi": 57,
      "hit": false,
      "t": 33900,
      "d": 2049.9999999999927,
      "v": 72
    },
    {
      "midi": 60,
      "hit": false,
      "t": 33966.666666666664,
      "d": 1950,
      "v": 80
    },
    {
      "midi": 64,
      "hit": false,
      "t": 34066.666666666664,
      "d": 1866.6666666666642,
      "v": 68
    },
    {
      "midi": 69,
      "hit": false,
      "t": 34133.33333333333,
      "d": 1783.3333333333358,
      "v": 80
    },
    {
      "midi": 55,
      "hit": false,
      "t": 36366.66666666666,
      "d": 1566.6666666666642,
      "v": 77
    },
    {
      "midi": 58,
      "hit": false,
      "t": 36466.66666666666,
      "d": 1450,
      "v": 72
    },
    {
      "midi": 62,
      "hit": false,
      "t": 36533.33333333332,
      "d": 1400,
      "v": 75
    },
    {
      "midi": 67,
      "hit": false,
      "t": 36583.33333333332,
      "d": 1416.6666666666642,
      "v": 63
    },
    {
      "midi": 55,
      "hit": false,
      "t": 38216.66666666665,
      "d": 583.3333333333358,
      "v": 71
    },
    {
      "midi": 60,
      "hit": false,
      "t": 38833.33333333332,
      "d": 183.33333333333576,
      "v": 86
    },
    {
      "midi": 74,
      "hit": false,
      "t": 39133.33333333332,
      "d": 66.66666666666424,
      "v": 95
    },
    {
      "midi": 60,
      "hit": false,
      "t": 39133.33333333332,
      "d": 83.33333333332848,
      "v": 92
    },
    {
      "midi": 70,
      "hit": false,
      "t": 39133.33333333332,
      "d": 99.99999999999272,
      "v": 58
    },
    {
      "midi": 81,
      "hit": false,
      "t": 39133.33333333332,
      "d": 166.66666666665697,
      "v": 92
    },
    {
      "midi": 60,
      "hit": false,
      "t": 39733.333333333314,
      "d": 83.33333333333576,
      "v": 95
    },
    {
      "midi": 74,
      "hit": false,
      "t": 39733.333333333314,
      "d": 83.33333333333576,
      "v": 99
    },
    {
      "midi": 70,
      "hit": false,
      "t": 39733.333333333314,
      "d": 133.33333333333576,
      "v": 61
    },
    {
      "midi": 79,
      "hit": false,
      "t": 39733.333333333314,
      "d": 166.66666666667152,
      "v": 102
    },
    {
      "midi": 60,
      "hit": false,
      "t": 40349.999999999985,
      "d": 83.33333333333576,
      "v": 95
    },
    {
      "midi": 70,
      "hit": false,
      "t": 40349.999999999985,
      "d": 100,
      "v": 53
    },
    {
      "midi": 77,
      "hit": false,
      "t": 40349.999999999985,
      "d": 250,
      "v": 106
    },
    {
      "midi": 74,
      "hit": false,
      "t": 40649.999999999985,
      "d": 100,
      "v": 102
    },
    {
      "midi": 79,
      "hit": false,
      "t": 40649.999999999985,
      "d": 133.33333333333576,
      "v": 106
    },
    {
      "midi": 70,
      "hit": false,
      "t": 40649.999999999985,
      "d": 150,
      "v": 63
    },
    {
      "midi": 60,
      "hit": false,
      "t": 40649.999999999985,
      "d": 616.6666666666642,
      "v": 95
    },
    {
      "midi": 53,
      "hit": false,
      "t": 41249.999999999985,
      "d": 1966.6666666666642,
      "v": 70
    },
    {
      "midi": 57,
      "hit": false,
      "t": 41333.333333333314,
      "d": 1933.3333333333358,
      "v": 86
    },
    {
      "midi": 60,
      "hit": false,
      "t": 41383.333333333314,
      "d": 1866.6666666666715,
      "v": 77
    },
    {
      "midi": 65,
      "hit": false,
      "t": 41433.333333333314,
      "d": 1883.3333333333358,
      "v": 77
    },
    {
      "midi": 55,
      "hit": false,
      "t": 43683.333333333314,
      "d": 1916.6666666666642,
      "v": 83
    },
    {
      "midi": 58,
      "hit": false,
      "t": 43783.333333333314,
      "d": 1800,
      "v": 69
    },
    {
      "midi": 62,
      "hit": false,
      "t": 43883.333333333314,
      "d": 1683.3333333333358,
      "v": 77
    },
    {
      "midi": 67,
      "hit": false,
      "t": 43949.99999999998,
      "d": 1583.3333333333358,
      "v": 75
    },
    {
      "midi": 48,
      "hit": false,
      "t": 46033.333333333314,
      "d": 1999.9999999999927,
      "v": 64
    },
    {
      "midi": 52,
      "hit": false,
      "t": 46099.99999999998,
      "d": 1900,
      "v": 80
    },
    {
      "midi": 55,
      "hit": false,
      "t": 46216.66666666664,
      "d": 1800,
      "v": 66
    },
    {
      "midi": 60,
      "hit": false,
      "t": 46266.66666666664,
      "d": 1783.3333333333285,
      "v": 83
    },
    {
      "midi": 50,
      "hit": false,
      "t": 48483.33333333331,
      "d": 1883.3333333333285,
      "v": 70
    },
    {
      "midi": 53,
      "hit": false,
      "t": 48549.99999999997,
      "d": 1816.6666666666642,
      "v": 80
    },
    {
      "midi": 57,
      "hit": false,
      "t": 48666.666666666635,
      "d": 1716.6666666666642,
      "v": 68
    },
    {
      "midi": 62,
      "hit": false,
      "t": 48699.99999999997,
      "d": 1716.6666666666642,
      "v": 86
    },
    {
      "midi": 57,
      "hit": false,
      "t": 50899.99999999997,
      "d": 2050,
      "v": 72
    },
    {
      "midi": 60,
      "hit": false,
      "t": 50966.666666666635,
      "d": 1933.3333333333358,
      "v": 80
    },
    {
      "midi": 64,
      "hit": false,
      "t": 51066.666666666635,
      "d": 1850,
      "v": 68
    },
    {
      "midi": 69,
      "hit": false,
      "t": 51116.666666666635,
      "d": 1783.3333333333358,
      "v": 80
    },
    {
      "midi": 55,
      "hit": false,
      "t": 53349.99999999997,
      "d": 1566.6666666666642,
      "v": 77
    },
    {
      "midi": 58,
      "hit": false,
      "t": 53449.99999999997,
      "d": 1450,
      "v": 72
    },
    {
      "midi": 62,
      "hit": false,
      "t": 53516.666666666635,
      "d": 1400,
      "v": 75
    },
    {
      "midi": 67,
      "hit": false,
      "t": 53566.666666666635,
      "d": 1416.6666666666642,
      "v": 63
    },
    {
      "midi": 55,
      "hit": false,
      "t": 55199.99999999996,
      "d": 583.3333333333358,
      "v": 71
    },
    {
      "midi": 58,
      "hit": false,
      "t": 55816.666666666635,
      "d": 133.33333333333576,
      "v": 74
    },
    {
      "midi": 58,
      "hit": false,
      "t": 56116.666666666635,
      "d": 116.66666666666424,
      "v": 89
    },
    {
      "midi": 69,
      "hit": false,
      "t": 56116.666666666635,
      "d": 183.33333333332848,
      "v": 86
    },
    {
      "midi": 67,
      "hit": false,
      "t": 56716.66666666663,
      "d": 250,
      "v": 92
    },
    {
      "midi": 58,
      "hit": false,
      "t": 56716.66666666663,
      "d": 266.66666666666424,
      "v": 85
    },
    {
      "midi": 65,
      "hit": false,
      "t": 57333.33333333329,
      "d": 266.66666666666424,
      "v": 89
    },
    {
      "midi": 58,
      "hit": false,
      "t": 57333.33333333329,
      "d": 383.33333333333576,
      "v": 93
    },
    {
      "midi": 67,
      "hit": false,
      "t": 57633.33333333329,
      "d": 583.3333333333358,
      "v": 84
    },
    {
      "midi": 65,
      "hit": false,
      "t": 58233.33333333329,
      "d": 950,
      "v": 81
    },
    {
      "midi": 69,
      "hit": false,
      "t": 58233.33333333329,
      "d": 1483.3333333333358,
      "v": 92
    },
    {
      "midi": 53,
      "hit": false,
      "t": 58233.33333333329,
      "d": 4250,
      "v": 99
    },
    {
      "midi": 60,
      "hit": false,
      "t": 59149.999999999956,
      "d": 1100,
      "v": 89
    },
    {
      "midi": 65,
      "hit": false,
      "t": 59449.999999999956,
      "d": 133.33333333333576,
      "v": 75
    },
    {
      "midi": 67,
      "hit": false,
      "t": 59749.99999999996,
      "d": 383.3333333333285,
      "v": 86
    },
    {
      "midi": 69,
      "hit": false,
      "t": 60066.66666666663,
      "d": 316.66666666665697,
      "v": 84
    },
    {
      "midi": 72,
      "hit": false,
      "t": 60366.66666666662,
      "d": 2333.333333333343,
      "v": 95
    },
    {
      "midi": 60,
      "hit": false,
      "t": 60516.66666666662,
      "d": 1583.3333333333358,
      "v": 47
    },
    {
      "midi": 65,
      "hit": false,
      "t": 60666.66666666662,
      "d": 1683.3333333333358,
      "v": 78
    },
    {
      "midi": 69,
      "hit": false,
      "t": 60666.66666666662,
      "d": 2000.0000000000073,
      "v": 92
    },
    {
      "midi": 77,
      "hit": false,
      "t": 60666.66666666662,
      "d": 2100.0000000000073,
      "v": 95
    },
    {
      "midi": 60,
      "hit": false,
      "t": 62783.33333333329,
      "d": 333.3333333333285,
      "v": 61
    },
    {
      "midi": 69,
      "hit": false,
      "t": 63099.999999999956,
      "d": 150,
      "v": 78
    },
    {
      "midi": 72,
      "hit": false,
      "t": 63099.999999999956,
      "d": 183.33333333333576,
      "v": 89
    },
    {
      "midi": 69,
      "hit": false,
      "t": 63399.999999999956,
      "d": 233.33333333333576,
      "v": 44
    },
    {
      "midi": 72,
      "hit": false,
      "t": 63399.999999999956,
      "d": 233.33333333333576,
      "v": 49
    },
    {
      "midi": 53,
      "hit": false,
      "t": 63699.999999999956,
      "d": 1400,
      "v": 84
    },
    {
      "midi": 60,
      "hit": false,
      "t": 63999.999999999956,
      "d": 1183.3333333333358,
      "v": 86
    },
    {
      "midi": 65,
      "hit": false,
      "t": 64299.999999999956,
      "d": 1100.0000000000073,
      "v": 84
    },
    {
      "midi": 67,
      "hit": false,
      "t": 64616.66666666662,
      "d": 533.3333333333358,
      "v": 89
    },
    {
      "midi": 69,
      "hit": false,
      "t": 65216.66666666663,
      "d": 300,
      "v": 89
    },
    {
      "midi": 62,
      "hit": false,
      "t": 65516.66666666663,
      "d": 1516.6666666666715,
      "v": 99
    },
    {
      "midi": 65,
      "hit": false,
      "t": 66433.3333333333,
      "d": 200,
      "v": 95
    },
    {
      "midi": 69,
      "hit": false,
      "t": 66433.3333333333,
      "d": 333.3333333333285,
      "v": 106
    },
    {
      "midi": 67,
      "hit": false,
      "t": 66733.3333333333,
      "d": 316.6666666666715,
      "v": 86
    },
    {
      "midi": 65,
      "hit": false,
      "t": 67033.3333333333,
      "d": 900,
      "v": 92
    },
    {
      "midi": 62,
      "hit": false,
      "t": 67333.3333333333,
      "d": 583.3333333333285,
      "v": 86
    },
    {
      "midi": 55,
      "hit": false,
      "t": 67949.99999999997,
      "d": 1716.6666666666715,
      "v": 89
    },
    {
      "midi": 62,
      "hit": false,
      "t": 68249.99999999997,
      "d": 533.3333333333285,
      "v": 95
    },
    {
      "midi": 67,
      "hit": false,
      "t": 68549.99999999997,
      "d": 1750,
      "v": 84
    },
    {
      "midi": 62,
      "hit": false,
      "t": 68849.99999999997,
      "d": 1500,
      "v": 69
    },
    {
      "midi": 55,
      "hit": false,
      "t": 69766.66666666664,
      "d": 650,
      "v": 51
    },
    {
      "midi": 58,
      "hit": false,
      "t": 70366.66666666664,
      "d": 916.6666666666715,
      "v": 102
    },
    {
      "midi": 62,
      "hit": false,
      "t": 70683.33333333331,
      "d": 600,
      "v": 64
    },
    {
      "midi": 65,
      "hit": false,
      "t": 70983.33333333331,
      "d": 300,
      "v": 79
    },
    {
      "midi": 60,
      "hit": false,
      "t": 71283.33333333331,
      "d": 916.6666666666715,
      "v": 99
    },
    {
      "midi": 67,
      "hit": false,
      "t": 71283.33333333331,
      "d": 1183.333333333343,
      "v": 92
    },
    {
      "midi": 64,
      "hit": false,
      "t": 71883.33333333331,
      "d": 416.6666666666715,
      "v": 81
    },
    {
      "midi": 72,
      "hit": false,
      "t": 71883.33333333331,
      "d": 966.6666666666715,
      "v": 102
    },
    {
      "midi": 48,
      "hit": false,
      "t": 72199.99999999999,
      "d": 566.6666666666715,
      "v": 106
    },
    {
      "midi": 64,
      "hit": false,
      "t": 72499.99999999999,
      "d": 216.66666666667152,
      "v": 66
    },
    {
      "midi": 69,
      "hit": false,
      "t": 72799.99999999999,
      "d": 550,
      "v": 92
    },
    {
      "midi": 53,
      "hit": false,
      "t": 72799.99999999999,
      "d": 1849.9999999999854,
      "v": 95
    },
    {
      "midi": 65,
      "hit": false,
      "t": 73399.99999999999,
      "d": 283.3333333333285,
      "v": 79
    },
    {
      "midi": 77,
      "hit": false,
      "t": 73716.66666666664,
      "d": 2099.9999999999854,
      "v": 115
    },
    {
      "midi": 65,
      "hit": false,
      "t": 74316.66666666664,
      "d": 816.666666666657,
      "v": 78
    },
    {
      "midi": 69,
      "hit": false,
      "t": 74616.66666666664,
      "d": 533.3333333333285,
      "v": 79
    },
    {
      "midi": 62,
      "hit": false,
      "t": 75233.3333333333,
      "d": 2450,
      "v": 92
    },
    {
      "midi": 65,
      "hit": false,
      "t": 75533.3333333333,
      "d": 2116.6666666666715,
      "v": 89
    },
    {
      "midi": 69,
      "hit": false,
      "t": 75833.3333333333,
      "d": 1650,
      "v": 78
    },
    {
      "midi": 77,
      "hit": false,
      "t": 76133.3333333333,
      "d": 616.6666666666715,
      "v": 99
    },
    {
      "midi": 76,
      "hit": false,
      "t": 76749.99999999997,
      "d": 333.3333333333285,
      "v": 99
    },
    {
      "midi": 74,
      "hit": false,
      "t": 77049.99999999997,
      "d": 2450,
      "v": 89
    },
    {
      "midi": 55,
      "hit": false,
      "t": 77649.99999999997,
      "d": 1833.3333333333285,
      "v": 92
    },
    {
      "midi": 70,
      "hit": false,
      "t": 77649.99999999997,
      "d": 1950,
      "v": 79
    },
    {
      "midi": 62,
      "hit": false,
      "t": 78266.66666666663,
      "d": 950,
      "v": 92
    },
    {
      "midi": 67,
      "hit": false,
      "t": 78566.66666666663,
      "d": 1266.6666666666715,
      "v": 78
    },
    {
      "midi": 62,
      "hit": false,
      "t": 79466.66666666663,
      "d": 266.6666666666715,
      "v": 92
    },
    {
      "midi": 74,
      "hit": false,
      "t": 79783.3333333333,
      "d": 166.66666666667152,
      "v": 84
    },
    {
      "midi": 77,
      "hit": false,
      "t": 79933.3333333333,
      "d": 233.33333333332848,
      "v": 84
    },
    {
      "midi": 76,
      "hit": false,
      "t": 80083.3333333333,
      "d": 1850,
      "v": 111
    },
    {
      "midi": 53,
      "hit": false,
      "t": 80083.3333333333,
      "d": 1916.6666666666715,
      "v": 86
    },
    {
      "midi": 72,
      "hit": false,
      "t": 80683.3333333333,
      "d": 916.6666666666715,
      "v": 89
    },
    {
      "midi": 69,
      "hit": false,
      "t": 80983.3333333333,
      "d": 1566.6666666666715,
      "v": 81
    },
    {
      "midi": 64,
      "hit": false,
      "t": 81599.99999999997,
      "d": 900,
      "v": 64
    },
    {
      "midi": 72,
      "hit": false,
      "t": 81899.99999999997,
      "d": 283.3333333333285,
      "v": 95
    },
    {
      "midi": 76,
      "hit": false,
      "t": 82199.99999999997,
      "d": 283.3333333333285,
      "v": 125
    },
    {
      "midi": 55,
      "hit": false,
      "t": 82499.99999999997,
      "d": 1500,
      "v": 86
    },
    {
      "midi": 74,
      "hit": false,
      "t": 82499.99999999997,
      "d": 2200.0000000000146,
      "v": 95
    },
    {
      "midi": 62,
      "hit": false,
      "t": 83116.66666666664,
      "d": 1216.6666666666715,
      "v": 89
    },
    {
      "midi": 70,
      "hit": false,
      "t": 83416.66666666664,
      "d": 1316.6666666666715,
      "v": 67
    },
    {
      "midi": 67,
      "hit": false,
      "t": 84016.66666666664,
      "d": 716.6666666666715,
      "v": 69
    },
    {
      "midi": 55,
      "hit": false,
      "t": 84333.33333333331,
      "d": 500,
      "v": 69
    },
    {
      "midi": 60,
      "hit": false,
      "t": 84933.33333333331,
      "d": 116.66666666667152,
      "v": 89
    },
    {
      "midi": 60,
      "hit": false,
      "t": 85233.33333333331,
      "d": 100,
      "v": 99
    },
    {
      "midi": 74,
      "hit": false,
      "t": 85233.33333333331,
      "d": 133.33333333332848,
      "v": 99
    },
    {
      "midi": 70,
      "hit": false,
      "t": 85233.33333333331,
      "d": 150,
      "v": 63
    },
    {
      "midi": 60,
      "hit": false,
      "t": 85849.99999999999,
      "d": 83.33333333332848,
      "v": 89
    },
    {
      "midi": 74,
      "hit": false,
      "t": 85849.99999999999,
      "d": 200,
      "v": 95
    },
    {
      "midi": 70,
      "hit": false,
      "t": 85849.99999999999,
      "d": 250,
      "v": 61
    },
    {
      "midi": 60,
      "hit": false,
      "t": 86449.99999999999,
      "d": 316.6666666666715,
      "v": 86
    },
    {
      "midi": 70,
      "hit": false,
      "t": 86749.99999999999,
      "d": 583.333333333343,
      "v": 74
    },
    {
      "midi": 74,
      "hit": false,
      "t": 86749.99999999999,
      "d": 616.6666666666715,
      "v": 95
    },
    {
      "midi": 53,
      "hit": false,
      "t": 87366.66666666666,
      "d": 2033.333333333343,
      "v": 84
    },
    {
      "midi": 60,
      "hit": false,
      "t": 87666.66666666666,
      "d": 1750.0000000000146,
      "v": 47
    },
    {
      "midi": 65,
      "hit": false,
      "t": 87966.66666666666,
      "d": 966.6666666666715,
      "v": 66
    },
    {
      "midi": 67,
      "hit": false,
      "t": 88266.66666666666,
      "d": 1500.000000000029,
      "v": 86
    },
    {
      "midi": 69,
      "hit": false,
      "t": 88566.66666666666,
      "d": 1200.000000000029,
      "v": 92
    },
    {
      "midi": 72,
      "hit": false,
      "t": 88883.33333333333,
      "d": 883.3333333333576,
      "v": 102
    },
    {
      "midi": 77,
      "hit": false,
      "t": 89183.33333333333,
      "d": 600.0000000000291,
      "v": 99
    },
    {
      "midi": 65,
      "hit": false,
      "t": 89483.33333333334,
      "d": 266.6666666666715,
      "v": 58
    },
    {
      "midi": 55,
      "hit": false,
      "t": 89783.33333333336,
      "d": 1700,
      "v": 89
    },
    {
      "midi": 62,
      "hit": false,
      "t": 90083.33333333336,
      "d": 2133.333333333343,
      "v": 99
    },
    {
      "midi": 67,
      "hit": false,
      "t": 90400.00000000003,
      "d": 200,
      "v": 86
    },
    {
      "midi": 69,
      "hit": false,
      "t": 90700.00000000003,
      "d": 350,
      "v": 106
    },
    {
      "midi": 70,
      "hit": false,
      "t": 91000.00000000003,
      "d": 1166.6666666666715,
      "v": 79
    },
    {
      "midi": 74,
      "hit": false,
      "t": 91300.00000000003,
      "d": 916.6666666666715,
      "v": 99
    },
    {
      "midi": 79,
      "hit": false,
      "t": 91600.00000000003,
      "d": 1150,
      "v": 89
    },
    {
      "midi": 55,
      "hit": false,
      "t": 91916.6666666667,
      "d": 116.66666666667152,
      "v": 92
    },
    {
      "midi": 57,
      "hit": false,
      "t": 92216.6666666667,
      "d": 1683.333333333343,
      "v": 99
    },
    {
      "midi": 64,
      "hit": false,
      "t": 92516.6666666667,
      "d": 2116.6666666666715,
      "v": 92
    },
    {
      "midi": 69,
      "hit": false,
      "t": 92816.6666666667,
      "d": 1783.333333333343,
      "v": 75
    },
    {
      "midi": 72,
      "hit": false,
      "t": 93116.6666666667,
      "d": 350,
      "v": 86
    },
    {
      "midi": 74,
      "hit": false,
      "t": 93433.33333333337,
      "d": 300,
      "v": 92
    },
    {
      "midi": 76,
      "hit": false,
      "t": 93733.33333333337,
      "d": 600,
      "v": 79
    },
    {
      "midi": 57,
      "hit": false,
      "t": 94033.33333333337,
      "d": 266.6666666666715,
      "v": 69
    },
    {
      "midi": 72,
      "hit": false,
      "t": 94333.33333333337,
      "d": 1900.0000000000146,
      "v": 95
    },
    {
      "midi": 53,
      "hit": false,
      "t": 94633.33333333337,
      "d": 1983.333333333343,
      "v": 89
    },
    {
      "midi": 60,
      "hit": false,
      "t": 94950.00000000004,
      "d": 1233.333333333343,
      "v": 69
    },
    {
      "midi": 65,
      "hit": false,
      "t": 95250.00000000004,
      "d": 983.333333333343,
      "v": 59
    },
    {
      "midi": 69,
      "hit": false,
      "t": 95550.00000000004,
      "d": 316.6666666666715,
      "v": 73
    },
    {
      "midi": 67,
      "hit": false,
      "t": 95850.00000000004,
      "d": 316.6666666666715,
      "v": 79
    },
    {
      "midi": 69,
      "hit": false,
      "t": 96150.00000000004,
      "d": 2466.6666666666715,
      "v": 86
    },
    {
      "midi": 65,
      "hit": false,
      "t": 97066.66666666672,
      "d": 866.6666666666715,
      "v": 79
    },
    {
      "midi": 53,
      "hit": false,
      "t": 97066.66666666672,
      "d": 2016.6666666666715,
      "v": 75
    },
    {
      "midi": 60,
      "hit": false,
      "t": 97983.33333333339,
      "d": 750,
      "v": 92
    },
    {
      "midi": 72,
      "hit": false,
      "t": 98583.33333333339,
      "d": 633.3333333333285,
      "v": 99
    },
    {
      "midi": 65,
      "hit": false,
      "t": 98583.33333333339,
      "d": 916.6666666666715,
      "v": 81
    },
    {
      "midi": 60,
      "hit": false,
      "t": 98883.33333333339,
      "d": 600,
      "v": 86
    },
    {
      "midi": 69,
      "hit": false,
      "t": 99183.33333333339,
      "d": 300,
      "v": 95
    },
    {
      "midi": 77,
      "hit": false,
      "t": 99183.33333333339,
      "d": 300,
      "v": 99
    },
    {
      "midi": 55,
      "hit": false,
      "t": 99500.00000000006,
      "d": 2183.333333333343,
      "v": 81
    },
    {
      "midi": 74,
      "hit": false,
      "t": 99500.00000000006,
      "d": 2400.0000000000146,
      "v": 95
    },
    {
      "midi": 62,
      "hit": false,
      "t": 100100.00000000006,
      "d": 800,
      "v": 89
    },
    {
      "midi": 67,
      "hit": false,
      "t": 100400.00000000006,
      "d": 616.6666666666715,
      "v": 73
    },
    {
      "midi": 70,
      "hit": false,
      "t": 100400.00000000006,
      "d": 916.6666666666715,
      "v": 59
    },
    {
      "midi": 62,
      "hit": false,
      "t": 101016.66666666673,
      "d": 900.0000000000146,
      "v": 55
    },
    {
      "midi": 67,
      "hit": false,
      "t": 101316.66666666673,
      "d": 316.6666666666715,
      "v": 69
    },
    {
      "midi": 70,
      "hit": false,
      "t": 101616.66666666673,
      "d": 316.66666666668607,
      "v": 67
    },
    {
      "midi": 69,
      "hit": false,
      "t": 101916.66666666674,
      "d": 666.6666666666715,
      "v": 84
    },
    {
      "midi": 57,
      "hit": false,
      "t": 101916.66666666674,
      "d": 900,
      "v": 84
    },
    {
      "midi": 72,
      "hit": false,
      "t": 101916.66666666674,
      "d": 2433.3333333333285,
      "v": 92
    },
    {
      "midi": 64,
      "hit": false,
      "t": 102533.33333333342,
      "d": 566.666666666657,
      "v": 62
    },
    {
      "midi": 69,
      "hit": false,
      "t": 102833.33333333342,
      "d": 133.33333333332848,
      "v": 71
    },
    {
      "midi": 67,
      "hit": false,
      "t": 103133.3333333334,
      "d": 433.3333333333285,
      "v": 81
    },
    {
      "midi": 55,
      "hit": false,
      "t": 103133.3333333334,
      "d": 916.6666666666715,
      "v": 81
    },
    {
      "midi": 64,
      "hit": false,
      "t": 103433.3333333334,
      "d": 700,
      "v": 75
    },
    {
      "midi": 67,
      "hit": false,
      "t": 103733.3333333334,
      "d": 616.6666666666715,
      "v": 75
    },
    {
      "midi": 60,
      "hit": false,
      "t": 104050.00000000007,
      "d": 283.3333333333285,
      "v": 78
    },
    {
      "midi": 53,
      "hit": false,
      "t": 104350.00000000007,
      "d": 2150,
      "v": 59
    },
    {
      "midi": 60,
      "hit": false,
      "t": 104650.00000000007,
      "d": 1300,
      "v": 78
    },
    {
      "midi": 65,
      "hit": false,
      "t": 104950.00000000007,
      "d": 1216.6666666666715,
      "v": 81
    },
    {
      "midi": 67,
      "hit": false,
      "t": 105250.00000000007,
      "d": 1216.6666666666715,
      "v": 71
    },
    {
      "midi": 69,
      "hit": false,
      "t": 105866.66666666674,
      "d": 300,
      "v": 79
    },
    {
      "midi": 72,
      "hit": false,
      "t": 106166.66666666674,
      "d": 600,
      "v": 78
    },
    {
      "midi": 60,
      "hit": false,
      "t": 106466.66666666674,
      "d": 333.3333333333285,
      "v": 75
    },
    {
      "midi": 77,
      "hit": false,
      "t": 106766.66666666674,
      "d": 1366.666666666657,
      "v": 75
    },
    {
      "midi": 53,
      "hit": false,
      "t": 106766.66666666674,
      "d": 1866.666666666657,
      "v": 73
    },
    {
      "midi": 69,
      "hit": false,
      "t": 106766.66666666674,
      "d": 2199.9999999999854,
      "v": 78
    },
    {
      "midi": 53,
      "hit": false,
      "t": 111633.3333333334,
      "d": 1950.0000000000146,
      "v": 70
    },
    {
      "midi": 57,
      "hit": false,
      "t": 111700.00000000007,
      "d": 1933.333333333343,
      "v": 86
    },
    {
      "midi": 60,
      "hit": false,
      "t": 111766.66666666674,
      "d": 1850,
      "v": 77
    },
    {
      "midi": 65,
      "hit": false,
      "t": 111816.66666666674,
      "d": 1883.333333333343,
      "v": 77
    },
    {
      "midi": 55,
      "hit": false,
      "t": 114050.00000000009,
      "d": 1916.666666666686,
      "v": 83
    },
    {
      "midi": 58,
      "hit": false,
      "t": 114150.00000000009,
      "d": 1800.0000000000146,
      "v": 69
    },
    {
      "midi": 62,
      "hit": false,
      "t": 114250.00000000009,
      "d": 1683.333333333343,
      "v": 77
    },
    {
      "midi": 67,
      "hit": false,
      "t": 114316.66666666676,
      "d": 1600,
      "v": 75
    },
    {
      "midi": 48,
      "hit": false,
      "t": 116400.0000000001,
      "d": 2000,
      "v": 64
    },
    {
      "midi": 52,
      "hit": false,
      "t": 116483.33333333343,
      "d": 1900,
      "v": 80
    },
    {
      "midi": 55,
      "hit": false,
      "t": 116583.33333333343,
      "d": 1800,
      "v": 66
    },
    {
      "midi": 60,
      "hit": false,
      "t": 116633.33333333343,
      "d": 1800,
      "v": 83
    },
    {
      "midi": 50,
      "hit": false,
      "t": 118850.0000000001,
      "d": 1883.333333333343,
      "v": 70
    },
    {
      "midi": 53,
      "hit": false,
      "t": 118916.66666666677,
      "d": 1816.6666666666715,
      "v": 80
    },
    {
      "midi": 57,
      "hit": false,
      "t": 119033.33333333344,
      "d": 1716.6666666666715,
      "v": 68
    },
    {
      "midi": 62,
      "hit": false,
      "t": 119066.66666666677,
      "d": 1733.333333333343,
      "v": 86
    },
    {
      "midi": 57,
      "hit": false,
      "t": 121266.66666666679,
      "d": 2050,
      "v": 72
    },
    {
      "midi": 60,
      "hit": false,
      "t": 121333.33333333346,
      "d": 1950,
      "v": 80
    },
    {
      "midi": 64,
      "hit": false,
      "t": 121433.33333333346,
      "d": 1850,
      "v": 68
    },
    {
      "midi": 69,
      "hit": false,
      "t": 121483.33333333346,
      "d": 1800,
      "v": 80
    },
    {
      "midi": 55,
      "hit": false,
      "t": 123716.66666666679,
      "d": 1566.6666666666715,
      "v": 77
    },
    {
      "midi": 58,
      "hit": false,
      "t": 123816.66666666679,
      "d": 1450,
      "v": 72
    },
    {
      "midi": 62,
      "hit": false,
      "t": 123900.00000000012,
      "d": 1400.0000000000146,
      "v": 75
    },
    {
      "midi": 67,
      "hit": false,
      "t": 123950.00000000012,
      "d": 1416.666666666686,
      "v": 63
    },
    {
      "midi": 55,
      "hit": false,
      "t": 125583.33333333347,
      "d": 583.3333333333285,
      "v": 71
    },
    {
      "midi": 60,
      "hit": false,
      "t": 126183.33333333347,
      "d": 183.33333333332848,
      "v": 86
    },
    {
      "midi": 74,
      "hit": false,
      "t": 126483.33333333347,
      "d": 83.33333333332848,
      "v": 95
    },
    {
      "midi": 60,
      "hit": false,
      "t": 126483.33333333347,
      "d": 100,
      "v": 92
    },
    {
      "midi": 70,
      "hit": false,
      "t": 126483.33333333347,
      "d": 116.66666666667152,
      "v": 58
    },
    {
      "midi": 81,
      "hit": false,
      "t": 126483.33333333347,
      "d": 166.66666666667152,
      "v": 92
    },
    {
      "midi": 60,
      "hit": false,
      "t": 127100.00000000015,
      "d": 83.33333333332848,
      "v": 95
    },
    {
      "midi": 74,
      "hit": false,
      "t": 127100.00000000015,
      "d": 83.33333333332848,
      "v": 99
    },
    {
      "midi": 70,
      "hit": false,
      "t": 127100.00000000015,
      "d": 133.33333333332848,
      "v": 61
    },
    {
      "midi": 79,
      "hit": false,
      "t": 127100.00000000015,
      "d": 166.66666666665697,
      "v": 102
    },
    {
      "midi": 60,
      "hit": false,
      "t": 127700.00000000013,
      "d": 83.33333333332848,
      "v": 95
    },
    {
      "midi": 70,
      "hit": false,
      "t": 127700.00000000013,
      "d": 100,
      "v": 53
    },
    {
      "midi": 77,
      "hit": false,
      "t": 127700.00000000013,
      "d": 266.6666666666715,
      "v": 106
    },
    {
      "midi": 74,
      "hit": false,
      "t": 128000.00000000013,
      "d": 100,
      "v": 102
    },
    {
      "midi": 79,
      "hit": false,
      "t": 128000.00000000013,
      "d": 150,
      "v": 106
    },
    {
      "midi": 70,
      "hit": false,
      "t": 128000.00000000013,
      "d": 166.66666666667152,
      "v": 63
    },
    {
      "midi": 60,
      "hit": false,
      "t": 128000.00000000013,
      "d": 616.6666666666715,
      "v": 95
    },
    {
      "midi": 67,
      "hit": false,
      "t": 128616.6666666668,
      "d": 66.66666666667152,
      "v": 92
    },
    {
      "midi": 69,
      "hit": false,
      "t": 128616.6666666668,
      "d": 1033.333333333343,
      "v": 64
    },
    {
      "midi": 53,
      "hit": false,
      "t": 128616.6666666668,
      "d": 1966.6666666666715,
      "v": 81
    },
    {
      "midi": 72,
      "hit": false,
      "t": 128616.6666666668,
      "d": 2500,
      "v": 111
    },
    {
      "midi": 65,
      "hit": false,
      "t": 130133.33333333347,
      "d": 383.3333333333285,
      "v": 69
    },
    {
      "midi": 69,
      "hit": false,
      "t": 130433.33333333347,
      "d": 333.3333333333285,
      "v": 95
    },
    {
      "midi": 65,
      "hit": false,
      "t": 130733.33333333347,
      "d": 283.3333333333285,
      "v": 60
    },
    {
      "midi": 55,
      "hit": false,
      "t": 131033.33333333347,
      "d": 1633.3333333333285,
      "v": 89
    },
    {
      "midi": 62,
      "hit": false,
      "t": 131350.00000000015,
      "d": 1150,
      "v": 84
    },
    {
      "midi": 67,
      "hit": false,
      "t": 131650.00000000015,
      "d": 300,
      "v": 79
    },
    {
      "midi": 70,
      "hit": false,
      "t": 131950.00000000015,
      "d": 1383.333333333314,
      "v": 74
    },
    {
      "midi": 67,
      "hit": false,
      "t": 132550.00000000015,
      "d": 783.3333333333139,
      "v": 73
    },
    {
      "midi": 60,
      "hit": false,
      "t": 133466.6666666668,
      "d": 1833.333333333314,
      "v": 81
    },
    {
      "midi": 64,
      "hit": false,
      "t": 133766.6666666668,
      "d": 1916.666666666657,
      "v": 67
    },
    {
      "midi": 67,
      "hit": false,
      "t": 134066.6666666668,
      "d": 666.666666666657,
      "v": 79
    },
    {
      "midi": 72,
      "hit": false,
      "t": 134383.33333333346,
      "d": 1300,
      "v": 102
    },
    {
      "midi": 60,
      "hit": false,
      "t": 135583.33333333346,
      "d": 100,
      "v": 71
    },
    {
      "midi": 62,
      "hit": false,
      "t": 135900.00000000012,
      "d": 2016.666666666657,
      "v": 89
    },
    {
      "midi": 65,
      "hit": false,
      "t": 136200.00000000012,
      "d": 2083.333333333314,
      "v": 71
    },
    {
      "midi": 69,
      "hit": false,
      "t": 136500.00000000012,
      "d": 1749.999999999971,
      "v": 86
    },
    {
      "midi": 74,
      "hit": false,
      "t": 136800.00000000012,
      "d": 1433.333333333314,
      "v": 86
    },
    {
      "midi": 50,
      "hit": false,
      "t": 137416.66666666677,
      "d": 883.3333333333139,
      "v": 95
    },
    {
      "midi": 57,
      "hit": false,
      "t": 138316.66666666674,
      "d": 1633.333333333314,
      "v": 84
    },
    {
      "midi": 64,
      "hit": false,
      "t": 138616.66666666674,
      "d": 1616.666666666657,
      "v": 62
    },
    {
      "midi": 69,
      "hit": false,
      "t": 138933.3333333334,
      "d": 650,
      "v": 89
    },
    {
      "midi": 72,
      "hit": false,
      "t": 139233.3333333334,
      "d": 1466.666666666657,
      "v": 92
    },
    {
      "midi": 69,
      "hit": false,
      "t": 139833.3333333334,
      "d": 850,
      "v": 73
    },
    {
      "midi": 57,
      "hit": false,
      "t": 140133.3333333334,
      "d": 83.33333333334303,
      "v": 73
    },
    {
      "midi": 64,
      "hit": false,
      "t": 140450.00000000006,
      "d": 233.33333333334303,
      "v": 64
    },
    {
      "midi": 55,
      "hit": false,
      "t": 140750.00000000006,
      "d": 1683.333333333343,
      "v": 92
    },
    {
      "midi": 62,
      "hit": false,
      "t": 141050.00000000006,
      "d": 1650.000000000029,
      "v": 69
    },
    {
      "midi": 67,
      "hit": false,
      "t": 141350.00000000006,
      "d": 1566.666666666686,
      "v": 84
    },
    {
      "midi": 55,
      "hit": false,
      "t": 142566.66666666674,
      "d": 583.333333333343,
      "v": 84
    },
    {
      "midi": 62,
      "hit": false,
      "t": 142866.66666666674,
      "d": 133.33333333334303,
      "v": 56
    },
    {
      "midi": 58,
      "hit": false,
      "t": 143166.66666666674,
      "d": 150,
      "v": 74
    },
    {
      "midi": 58,
      "hit": false,
      "t": 143483.3333333334,
      "d": 100,
      "v": 89
    },
    {
      "midi": 69,
      "hit": false,
      "t": 143483.3333333334,
      "d": 183.33333333334303,
      "v": 86
    },
    {
      "midi": 67,
      "hit": false,
      "t": 144083.3333333334,
      "d": 233.33333333334303,
      "v": 92
    },
    {
      "midi": 58,
      "hit": false,
      "t": 144083.3333333334,
      "d": 266.66666666668607,
      "v": 85
    },
    {
      "midi": 65,
      "hit": false,
      "t": 144683.33333333343,
      "d": 283.33333333334303,
      "v": 89
    },
    {
      "midi": 58,
      "hit": false,
      "t": 144683.33333333343,
      "d": 400.0000000000291,
      "v": 93
    },
    {
      "midi": 67,
      "hit": false,
      "t": 145000.00000000012,
      "d": 566.6666666666861,
      "v": 84
    },
    {
      "midi": 65,
      "hit": false,
      "t": 145600.00000000015,
      "d": 933.3333333333139,
      "v": 81
    },
    {
      "midi": 69,
      "hit": false,
      "t": 145600.00000000015,
      "d": 1483.333333333343,
      "v": 92
    },
    {
      "midi": 53,
      "hit": false,
      "t": 145600.00000000015,
      "d": 4250.000000000058,
      "v": 99
    },
    {
      "midi": 60,
      "hit": false,
      "t": 146516.6666666668,
      "d": 1083.3333333333721,
      "v": 89
    },
    {
      "midi": 65,
      "hit": false,
      "t": 146816.6666666668,
      "d": 133.33333333334303,
      "v": 75
    },
    {
      "midi": 67,
      "hit": false,
      "t": 147116.66666666683,
      "d": 383.33333333334303,
      "v": 86
    },
    {
      "midi": 69,
      "hit": false,
      "t": 147416.66666666683,
      "d": 333.33333333334303,
      "v": 84
    },
    {
      "midi": 72,
      "hit": false,
      "t": 147716.66666666683,
      "d": 2350.000000000058,
      "v": 95
    },
    {
      "midi": 60,
      "hit": false,
      "t": 147883.33333333352,
      "d": 1583.333333333343,
      "v": 47
    },
    {
      "midi": 65,
      "hit": false,
      "t": 148033.33333333352,
      "d": 1666.666666666686,
      "v": 78
    },
    {
      "midi": 69,
      "hit": false,
      "t": 148033.33333333352,
      "d": 2000.000000000029,
      "v": 92
    },
    {
      "midi": 77,
      "hit": false,
      "t": 148033.33333333352,
      "d": 2083.333333333372,
      "v": 95
    },
    {
      "midi": 60,
      "hit": false,
      "t": 150150.00000000023,
      "d": 333.33333333334303,
      "v": 61
    },
    {
      "midi": 69,
      "hit": false,
      "t": 150450.00000000023,
      "d": 166.66666666668607,
      "v": 78
    },
    {
      "midi": 72,
      "hit": false,
      "t": 150450.00000000023,
      "d": 183.33333333334303,
      "v": 89
    },
    {
      "midi": 69,
      "hit": false,
      "t": 150750.00000000023,
      "d": 250,
      "v": 44
    },
    {
      "midi": 72,
      "hit": false,
      "t": 150750.00000000023,
      "d": 250,
      "v": 49
    },
    {
      "midi": 53,
      "hit": false,
      "t": 151066.6666666669,
      "d": 1400,
      "v": 84
    },
    {
      "midi": 60,
      "hit": false,
      "t": 151366.6666666669,
      "d": 1183.333333333343,
      "v": 86
    },
    {
      "midi": 65,
      "hit": false,
      "t": 151666.6666666669,
      "d": 1100.000000000029,
      "v": 84
    },
    {
      "midi": 67,
      "hit": false,
      "t": 151966.6666666669,
      "d": 550,
      "v": 89
    },
    {
      "midi": 69,
      "hit": false,
      "t": 152583.33333333358,
      "d": 300,
      "v": 89
    },
    {
      "midi": 62,
      "hit": false,
      "t": 152883.33333333358,
      "d": 1516.666666666657,
      "v": 99
    },
    {
      "midi": 65,
      "hit": false,
      "t": 153783.33333333358,
      "d": 216.66666666665697,
      "v": 95
    },
    {
      "midi": 69,
      "hit": false,
      "t": 153783.33333333358,
      "d": 333.33333333331393,
      "v": 106
    },
    {
      "midi": 67,
      "hit": false,
      "t": 154100.00000000023,
      "d": 300,
      "v": 86
    },
    {
      "midi": 65,
      "hit": false,
      "t": 154400.00000000023,
      "d": 883.333333333343,
      "v": 92
    },
    {
      "midi": 62,
      "hit": false,
      "t": 154700.00000000023,
      "d": 583.333333333343,
      "v": 86
    },
    {
      "midi": 55,
      "hit": false,
      "t": 155300.00000000023,
      "d": 1733.333333333314,
      "v": 89
    },
    {
      "midi": 62,
      "hit": false,
      "t": 155616.6666666669,
      "d": 516.666666666657,
      "v": 95
    },
    {
      "midi": 67,
      "hit": false,
      "t": 155916.6666666669,
      "d": 1733.333333333314,
      "v": 84
    },
    {
      "midi": 62,
      "hit": false,
      "t": 156216.6666666669,
      "d": 1499.999999999971,
      "v": 69
    },
    {
      "midi": 55,
      "hit": false,
      "t": 157133.33333333355,
      "d": 649.9999999999709,
      "v": 51
    },
    {
      "midi": 58,
      "hit": false,
      "t": 157733.33333333352,
      "d": 916.666666666657,
      "v": 102
    },
    {
      "midi": 62,
      "hit": false,
      "t": 158033.33333333352,
      "d": 616.666666666657,
      "v": 64
    },
    {
      "midi": 65,
      "hit": false,
      "t": 158333.33333333352,
      "d": 316.66666666665697,
      "v": 79
    },
    {
      "midi": 60,
      "hit": false,
      "t": 158650.00000000017,
      "d": 900,
      "v": 99
    },
    {
      "midi": 67,
      "hit": false,
      "t": 158650.00000000017,
      "d": 1183.333333333314,
      "v": 92
    },
    {
      "midi": 64,
      "hit": false,
      "t": 159250.00000000017,
      "d": 416.66666666665697,
      "v": 81
    },
    {
      "midi": 72,
      "hit": false,
      "t": 159250.00000000017,
      "d": 966.6666666666279,
      "v": 102
    },
    {
      "midi": 48,
      "hit": false,
      "t": 159550.00000000017,
      "d": 566.6666666666279,
      "v": 106
    },
    {
      "midi": 64,
      "hit": false,
      "t": 159850.00000000015,
      "d": 216.66666666665697,
      "v": 66
    },
    {
      "midi": 69,
      "hit": false,
      "t": 160166.6666666668,
      "d": 550,
      "v": 92
    },
    {
      "midi": 53,
      "hit": false,
      "t": 160166.6666666668,
      "d": 1833.333333333314,
      "v": 95
    },
    {
      "midi": 65,
      "hit": false,
      "t": 160766.6666666668,
      "d": 283.33333333334303,
      "v": 79
    },
    {
      "midi": 77,
      "hit": false,
      "t": 161066.6666666668,
      "d": 2116.666666666657,
      "v": 115
    },
    {
      "midi": 65,
      "hit": false,
      "t": 161683.33333333346,
      "d": 800,
      "v": 78
    },
    {
      "midi": 69,
      "hit": false,
      "t": 161983.33333333346,
      "d": 533.333333333343,
      "v": 79
    },
    {
      "midi": 62,
      "hit": false,
      "t": 162583.33333333346,
      "d": 2449.999999999971,
      "v": 92
    },
    {
      "midi": 65,
      "hit": false,
      "t": 162883.33333333346,
      "d": 2133.333333333314,
      "v": 89
    },
    {
      "midi": 69,
      "hit": false,
      "t": 163200.00000000012,
      "d": 1650,
      "v": 78
    },
    {
      "midi": 77,
      "hit": false,
      "t": 163500.00000000012,
      "d": 616.666666666657,
      "v": 99
    },
    {
      "midi": 76,
      "hit": false,
      "t": 164100.00000000012,
      "d": 350,
      "v": 99
    },
    {
      "midi": 74,
      "hit": false,
      "t": 164400.00000000012,
      "d": 2466.666666666628,
      "v": 89
    },
    {
      "midi": 55,
      "hit": false,
      "t": 165016.66666666677,
      "d": 1833.333333333314,
      "v": 92
    },
    {
      "midi": 70,
      "hit": false,
      "t": 165016.66666666677,
      "d": 1949.999999999971,
      "v": 79
    },
    {
      "midi": 62,
      "hit": false,
      "t": 165616.66666666677,
      "d": 966.666666666657,
      "v": 92
    },
    {
      "midi": 67,
      "hit": false,
      "t": 165916.66666666677,
      "d": 1266.6666666666279,
      "v": 78
    },
    {
      "midi": 62,
      "hit": false,
      "t": 166833.33333333343,
      "d": 249.9999999999709,
      "v": 92
    },
    {
      "midi": 74,
      "hit": false,
      "t": 167133.3333333334,
      "d": 183.33333333334303,
      "v": 84
    },
    {
      "midi": 77,
      "hit": false,
      "t": 167283.3333333334,
      "d": 250,
      "v": 84
    },
    {
      "midi": 76,
      "hit": false,
      "t": 167433.3333333334,
      "d": 1849.999999999971,
      "v": 111
    },
    {
      "midi": 53,
      "hit": false,
      "t": 167433.3333333334,
      "d": 1933.333333333314,
      "v": 86
    },
    {
      "midi": 72,
      "hit": false,
      "t": 168050.00000000006,
      "d": 916.666666666657,
      "v": 89
    },
    {
      "midi": 69,
      "hit": false,
      "t": 168350.00000000006,
      "d": 1566.666666666657,
      "v": 81
    },
    {
      "midi": 64,
      "hit": false,
      "t": 168950.00000000006,
      "d": 916.666666666657,
      "v": 64
    },
    {
      "midi": 72,
      "hit": false,
      "t": 169266.66666666672,
      "d": 283.33333333334303,
      "v": 95
    },
    {
      "midi": 76,
      "hit": false,
      "t": 169566.66666666672,
      "d": 283.33333333334303,
      "v": 125
    },
    {
      "midi": 55,
      "hit": false,
      "t": 169866.66666666672,
      "d": 1483.333333333314,
      "v": 86
    },
    {
      "midi": 74,
      "hit": false,
      "t": 169866.66666666672,
      "d": 2199.999999999971,
      "v": 95
    },
    {
      "midi": 62,
      "hit": false,
      "t": 170466.66666666672,
      "d": 1233.333333333314,
      "v": 89
    },
    {
      "midi": 70,
      "hit": false,
      "t": 170783.33333333337,
      "d": 1299.999999999971,
      "v": 67
    },
    {
      "midi": 67,
      "hit": false,
      "t": 171383.33333333337,
      "d": 716.6666666666279,
      "v": 69
    },
    {
      "midi": 55,
      "hit": false,
      "t": 171683.33333333337,
      "d": 516.6666666666279,
      "v": 69
    },
    {
      "midi": 60,
      "hit": false,
      "t": 172300,
      "d": 116.66666666665697,
      "v": 92
    },
    {
      "midi": 70,
      "hit": false,
      "t": 172300,
      "d": 150,
      "v": 61
    },
    {
      "midi": 74,
      "hit": false,
      "t": 172600,
      "d": 100,
      "v": 102
    },
    {
      "midi": 60,
      "hit": false,
      "t": 172600,
      "d": 116.66666666665697,
      "v": 95
    },
    {
      "midi": 70,
      "hit": false,
      "t": 172600,
      "d": 150,
      "v": 51
    },
    {
      "midi": 81,
      "hit": false,
      "t": 172600,
      "d": 266.66666666665697,
      "v": 99
    },
    {
      "midi": 60,
      "hit": false,
      "t": 173200,
      "d": 1050,
      "v": 92
    },
    {
      "midi": 70,
      "hit": false,
      "t": 173200,
      "d": 1300,
      "v": 59
    },
    {
      "midi": 74,
      "hit": false,
      "t": 173200,
      "d": 1300,
      "v": 95
    },
    {
      "midi": 79,
      "hit": false,
      "t": 173200,
      "d": 1316.666666666657,
      "v": 102
    },
    {
      "midi": 60,
      "hit": false,
      "t": 174416.66666666666,
      "d": 83.33333333334303,
      "v": 60
    },
    {
      "midi": 69,
      "hit": false,
      "t": 174716.66666666666,
      "d": 166.66666666665697,
      "v": 78
    },
    {
      "midi": 72,
      "hit": false,
      "t": 174716.66666666666,
      "d": 183.33333333331393,
      "v": 89
    },
    {
      "midi": 69,
      "hit": false,
      "t": 175016.66666666663,
      "d": 250,
      "v": 44
    },
    {
      "midi": 72,
      "hit": false,
      "t": 175016.66666666663,
      "d": 250,
      "v": 49
    },
    {
      "midi": 53,
      "hit": false,
      "t": 175333.33333333328,
      "d": 1400,
      "v": 84
    },
    {
      "midi": 60,
      "hit": false,
      "t": 175633.33333333328,
      "d": 1183.333333333343,
      "v": 86
    },
    {
      "midi": 65,
      "hit": false,
      "t": 175933.33333333328,
      "d": 1100.000000000029,
      "v": 84
    },
    {
      "midi": 67,
      "hit": false,
      "t": 176233.33333333328,
      "d": 550,
      "v": 89
    },
    {
      "midi": 69,
      "hit": false,
      "t": 176849.99999999997,
      "d": 300,
      "v": 89
    },
    {
      "midi": 62,
      "hit": false,
      "t": 177149.99999999997,
      "d": 1516.666666666657,
      "v": 99
    },
    {
      "midi": 65,
      "hit": false,
      "t": 178049.99999999997,
      "d": 216.66666666665697,
      "v": 95
    },
    {
      "midi": 69,
      "hit": false,
      "t": 178049.99999999997,
      "d": 333.33333333331393,
      "v": 106
    },
    {
      "midi": 67,
      "hit": false,
      "t": 178366.66666666663,
      "d": 300,
      "v": 86
    },
    {
      "midi": 65,
      "hit": false,
      "t": 178666.66666666663,
      "d": 883.333333333343,
      "v": 92
    },
    {
      "midi": 62,
      "hit": false,
      "t": 178966.66666666663,
      "d": 583.333333333343,
      "v": 86
    },
    {
      "midi": 55,
      "hit": false,
      "t": 179566.66666666663,
      "d": 1733.333333333314,
      "v": 89
    },
    {
      "midi": 62,
      "hit": false,
      "t": 179883.33333333328,
      "d": 516.666666666657,
      "v": 95
    },
    {
      "midi": 67,
      "hit": false,
      "t": 180183.33333333328,
      "d": 1733.333333333314,
      "v": 84
    },
    {
      "midi": 62,
      "hit": false,
      "t": 180483.33333333328,
      "d": 1499.999999999971,
      "v": 69
    },
    {
      "midi": 55,
      "hit": false,
      "t": 181399.99999999994,
      "d": 649.9999999999709,
      "v": 51
    },
    {
      "midi": 58,
      "hit": false,
      "t": 181999.9999999999,
      "d": 916.666666666657,
      "v": 102
    },
    {
      "midi": 62,
      "hit": false,
      "t": 182299.9999999999,
      "d": 616.666666666657,
      "v": 64
    },
    {
      "midi": 65,
      "hit": false,
      "t": 182599.9999999999,
      "d": 316.66666666665697,
      "v": 79
    },
    {
      "midi": 60,
      "hit": false,
      "t": 182916.66666666657,
      "d": 900,
      "v": 99
    },
    {
      "midi": 67,
      "hit": false,
      "t": 182916.66666666657,
      "d": 1183.333333333314,
      "v": 92
    },
    {
      "midi": 64,
      "hit": false,
      "t": 183516.66666666657,
      "d": 416.66666666665697,
      "v": 81
    },
    {
      "midi": 72,
      "hit": false,
      "t": 183516.66666666657,
      "d": 966.6666666666279,
      "v": 102
    },
    {
      "midi": 48,
      "hit": false,
      "t": 183816.66666666657,
      "d": 566.6666666666279,
      "v": 106
    },
    {
      "midi": 64,
      "hit": false,
      "t": 184116.66666666654,
      "d": 216.66666666665697,
      "v": 66
    },
    {
      "midi": 69,
      "hit": false,
      "t": 184433.3333333332,
      "d": 550,
      "v": 92
    },
    {
      "midi": 53,
      "hit": false,
      "t": 184433.3333333332,
      "d": 1833.333333333314,
      "v": 95
    },
    {
      "midi": 65,
      "hit": false,
      "t": 185033.3333333332,
      "d": 283.33333333334303,
      "v": 79
    },
    {
      "midi": 77,
      "hit": false,
      "t": 185333.3333333332,
      "d": 2116.666666666657,
      "v": 115
    },
    {
      "midi": 65,
      "hit": false,
      "t": 185949.99999999985,
      "d": 800,
      "v": 78
    },
    {
      "midi": 69,
      "hit": false,
      "t": 186249.99999999985,
      "d": 533.333333333343,
      "v": 79
    },
    {
      "midi": 62,
      "hit": false,
      "t": 186849.99999999985,
      "d": 2449.999999999971,
      "v": 92
    },
    {
      "midi": 65,
      "hit": false,
      "t": 187149.99999999985,
      "d": 2133.333333333314,
      "v": 89
    },
    {
      "midi": 69,
      "hit": false,
      "t": 187466.6666666665,
      "d": 1650,
      "v": 78
    },
    {
      "midi": 77,
      "hit": false,
      "t": 187766.6666666665,
      "d": 616.666666666657,
      "v": 99
    },
    {
      "midi": 76,
      "hit": false,
      "t": 188366.6666666665,
      "d": 350,
      "v": 99
    },
    {
      "midi": 74,
      "hit": false,
      "t": 188666.6666666665,
      "d": 2466.666666666628,
      "v": 89
    },
    {
      "midi": 55,
      "hit": false,
      "t": 189283.33333333317,
      "d": 1833.333333333314,
      "v": 92
    },
    {
      "midi": 70,
      "hit": false,
      "t": 189283.33333333317,
      "d": 1949.999999999971,
      "v": 79
    },
    {
      "midi": 62,
      "hit": false,
      "t": 189883.33333333317,
      "d": 966.666666666657,
      "v": 92
    },
    {
      "midi": 67,
      "hit": false,
      "t": 190183.33333333317,
      "d": 1266.6666666666279,
      "v": 78
    },
    {
      "midi": 62,
      "hit": false,
      "t": 191099.99999999983,
      "d": 249.9999999999709,
      "v": 92
    },
    {
      "midi": 74,
      "hit": false,
      "t": 191399.9999999998,
      "d": 183.33333333334303,
      "v": 84
    },
    {
      "midi": 77,
      "hit": false,
      "t": 191549.9999999998,
      "d": 250,
      "v": 84
    },
    {
      "midi": 76,
      "hit": false,
      "t": 191699.9999999998,
      "d": 1849.999999999971,
      "v": 111
    },
    {
      "midi": 53,
      "hit": false,
      "t": 191699.9999999998,
      "d": 1933.333333333314,
      "v": 86
    },
    {
      "midi": 72,
      "hit": false,
      "t": 192316.66666666645,
      "d": 916.666666666657,
      "v": 89
    },
    {
      "midi": 69,
      "hit": false,
      "t": 192616.66666666645,
      "d": 1566.666666666657,
      "v": 81
    },
    {
      "midi": 64,
      "hit": false,
      "t": 193216.66666666645,
      "d": 916.666666666657,
      "v": 64
    },
    {
      "midi": 72,
      "hit": false,
      "t": 193533.3333333331,
      "d": 283.33333333334303,
      "v": 95
    },
    {
      "midi": 76,
      "hit": false,
      "t": 193833.3333333331,
      "d": 283.33333333334303,
      "v": 125
    },
    {
      "midi": 74,
      "hit": false,
      "t": 194133.3333333331,
      "d": 1499.999999999971,
      "v": 99
    },
    {
      "midi": 55,
      "hit": false,
      "t": 194433.3333333331,
      "d": 1416.6666666666279,
      "v": 99
    },
    {
      "midi": 62,
      "hit": false,
      "t": 194733.3333333331,
      "d": 1499.999999999971,
      "v": 99
    },
    {
      "midi": 67,
      "hit": false,
      "t": 195049.99999999977,
      "d": 466.66666666665697,
      "v": 102
    },
    {
      "midi": 69,
      "hit": false,
      "t": 195349.99999999977,
      "d": 566.6666666666279,
      "v": 48
    },
    {
      "midi": 70,
      "hit": false,
      "t": 195949.99999999974,
      "d": 300,
      "v": 79
    },
    {
      "midi": 55,
      "hit": false,
      "t": 196249.99999999974,
      "d": 100,
      "v": 73
    },
    {
      "midi": 72,
      "hit": false,
      "t": 196249.99999999974,
      "d": 283.33333333334303,
      "v": 102
    },
    {
      "midi": 72,
      "hit": false,
      "t": 196566.66666666642,
      "d": 1083.333333333343,
      "v": 102
    },
    {
      "midi": 53,
      "hit": false,
      "t": 196566.66666666642,
      "d": 1983.333333333314,
      "v": 92
    },
    {
      "midi": 60,
      "hit": false,
      "t": 196866.66666666642,
      "d": 1766.666666666657,
      "v": 71
    },
    {
      "midi": 65,
      "hit": false,
      "t": 197166.66666666642,
      "d": 716.666666666657,
      "v": 69
    },
    {
      "midi": 69,
      "hit": false,
      "t": 197466.66666666642,
      "d": 1500,
      "v": 60
    },
    {
      "midi": 72,
      "hit": false,
      "t": 197766.66666666642,
      "d": 1500,
      "v": 89
    },
    {
      "midi": 65,
      "hit": false,
      "t": 198083.33333333308,
      "d": 300,
      "v": 67
    },
    {
      "midi": 55,
      "hit": false,
      "t": 198983.33333333308,
      "d": 1316.666666666657,
      "v": 86
    },
    {
      "midi": 62,
      "hit": false,
      "t": 199283.33333333308,
      "d": 1816.6666666666279,
      "v": 92
    },
    {
      "midi": 67,
      "hit": false,
      "t": 199283.33333333308,
      "d": 2183.333333333285,
      "v": 73
    },
    {
      "midi": 70,
      "hit": false,
      "t": 199599.99999999974,
      "d": 1033.333333333343,
      "v": 85
    },
    {
      "midi": 77,
      "hit": false,
      "t": 199899.99999999974,
      "d": 933.3333333333139,
      "v": 111
    },
    {
      "midi": 55,
      "hit": false,
      "t": 200499.99999999974,
      "d": 316.66666666665697,
      "v": 73
    },
    {
      "midi": 74,
      "hit": false,
      "t": 200799.99999999974,
      "d": 633.3333333332848,
      "v": 102
    },
    {
      "midi": 55,
      "hit": false,
      "t": 201116.66666666637,
      "d": 50,
      "v": 59
    },
    {
      "midi": 76,
      "hit": false,
      "t": 201416.66666666637,
      "d": 933.333333333343,
      "v": 102
    },
    {
      "midi": 53,
      "hit": false,
      "t": 201416.66666666637,
      "d": 1283.333333333343,
      "v": 75
    },
    {
      "midi": 60,
      "hit": false,
      "t": 201716.66666666637,
      "d": 2083.333333333372,
      "v": 66
    },
    {
      "midi": 65,
      "hit": false,
      "t": 202016.66666666637,
      "d": 1783.3333333333721,
      "v": 64
    },
    {
      "midi": 72,
      "hit": false,
      "t": 202316.66666666637,
      "d": 883.333333333343,
      "v": 95
    },
    {
      "midi": 53,
      "hit": false,
      "t": 202933.33333333305,
      "d": 316.66666666665697,
      "v": 73
    },
    {
      "midi": 69,
      "hit": false,
      "t": 203233.33333333305,
      "d": 616.6666666666861,
      "v": 95
    },
    {
      "midi": 53,
      "hit": false,
      "t": 203533.33333333305,
      "d": 83.33333333334303,
      "v": 75
    },
    {
      "midi": 67,
      "hit": false,
      "t": 203833.33333333308,
      "d": 1783.333333333343,
      "v": 92
    },
    {
      "midi": 55,
      "hit": false,
      "t": 203833.33333333308,
      "d": 2016.666666666686,
      "v": 81
    },
    {
      "midi": 62,
      "hit": false,
      "t": 204449.99999999974,
      "d": 716.666666666657,
      "v": 89
    },
    {
      "midi": 74,
      "hit": false,
      "t": 204749.99999999974,
      "d": 633.333333333343,
      "v": 92
    },
    {
      "midi": 62,
      "hit": false,
      "t": 205349.99999999974,
      "d": 500.0000000000291,
      "v": 95
    },
    {
      "midi": 74,
      "hit": false,
      "t": 205666.66666666642,
      "d": 150,
      "v": 119
    },
    {
      "midi": 70,
      "hit": false,
      "t": 205816.66666666642,
      "d": 116.66666666668607,
      "v": 85
    },
    {
      "midi": 67,
      "hit": false,
      "t": 205966.66666666645,
      "d": 100,
      "v": 111
    },
    {
      "midi": 60,
      "hit": false,
      "t": 206266.66666666645,
      "d": 833.333333333343,
      "v": 106
    },
    {
      "midi": 60,
      "hit": false,
      "t": 207483.33333333314,
      "d": 133.33333333334303,
      "v": 99
    },
    {
      "midi": 74,
      "hit": false,
      "t": 207483.33333333314,
      "d": 166.66666666668607,
      "v": 106
    },
    {
      "midi": 70,
      "hit": false,
      "t": 207483.33333333314,
      "d": 183.33333333334303,
      "v": 69
    },
    {
      "midi": 79,
      "hit": false,
      "t": 207483.33333333314,
      "d": 216.66666666668607,
      "v": 102
    },
    {
      "midi": 60,
      "hit": false,
      "t": 207933.33333333317,
      "d": 150,
      "v": 92
    },
    {
      "midi": 74,
      "hit": false,
      "t": 207933.33333333317,
      "d": 183.33333333334303,
      "v": 102
    },
    {
      "midi": 70,
      "hit": false,
      "t": 207933.33333333317,
      "d": 216.66666666668607,
      "v": 69
    },
    {
      "midi": 79,
      "hit": false,
      "t": 207933.33333333317,
      "d": 233.33333333334303,
      "v": 102
    },
    {
      "midi": 74,
      "hit": false,
      "t": 208383.33333333317,
      "d": 150,
      "v": 102
    },
    {
      "midi": 70,
      "hit": false,
      "t": 208383.33333333317,
      "d": 183.33333333334303,
      "v": 67
    },
    {
      "midi": 79,
      "hit": false,
      "t": 208383.33333333317,
      "d": 216.66666666668607,
      "v": 92
    },
    {
      "midi": 60,
      "hit": false,
      "t": 208383.33333333317,
      "d": 283.33333333334303,
      "v": 99
    },
    {
      "midi": 79,
      "hit": false,
      "t": 208699.99999999985,
      "d": 883.333333333343,
      "v": 81
    },
    {
      "midi": 53,
      "hit": false,
      "t": 208699.99999999985,
      "d": 1766.666666666657,
      "v": 95
    },
    {
      "midi": 60,
      "hit": false,
      "t": 208999.99999999985,
      "d": 900,
      "v": 86
    },
    {
      "midi": 69,
      "hit": false,
      "t": 209299.99999999985,
      "d": 1766.666666666657,
      "v": 62
    },
    {
      "midi": 65,
      "hit": false,
      "t": 209299.99999999985,
      "d": 1883.333333333314,
      "v": 66
    },
    {
      "midi": 77,
      "hit": false,
      "t": 209599.99999999985,
      "d": 1450,
      "v": 89
    },
    {
      "midi": 60,
      "hit": false,
      "t": 210216.6666666665,
      "d": 700,
      "v": 78
    },
    {
      "midi": 72,
      "hit": false,
      "t": 210516.6666666665,
      "d": 533.333333333343,
      "v": 78
    },
    {
      "midi": 53,
      "hit": false,
      "t": 210816.6666666665,
      "d": 100,
      "v": 78
    },
    {
      "midi": 57,
      "hit": false,
      "t": 211116.6666666665,
      "d": 1900,
      "v": 84
    },
    {
      "midi": 62,
      "hit": false,
      "t": 211416.6666666665,
      "d": 2133.333333333343,
      "v": 89
    },
    {
      "midi": 65,
      "hit": false,
      "t": 211733.33333333317,
      "d": 1016.666666666657,
      "v": 115
    },
    {
      "midi": 69,
      "hit": false,
      "t": 212033.33333333317,
      "d": 1066.666666666686,
      "v": 92
    },
    {
      "midi": 74,
      "hit": false,
      "t": 212333.33333333317,
      "d": 1250.000000000029,
      "v": 89
    },
    {
      "midi": 77,
      "hit": false,
      "t": 212633.33333333317,
      "d": 1450.000000000029,
      "v": 84
    },
    {
      "midi": 65,
      "hit": false,
      "t": 212933.33333333317,
      "d": 433.33333333334303,
      "v": 50
    },
    {
      "midi": 69,
      "hit": false,
      "t": 213249.99999999985,
      "d": 333.33333333334303,
      "v": 56
    },
    {
      "midi": 55,
      "hit": false,
      "t": 213549.99999999985,
      "d": 1583.333333333314,
      "v": 86
    },
    {
      "midi": 58,
      "hit": false,
      "t": 213849.99999999985,
      "d": 1850,
      "v": 86
    },
    {
      "midi": 62,
      "hit": false,
      "t": 214149.99999999985,
      "d": 1766.666666666657,
      "v": 75
    },
    {
      "midi": 67,
      "hit": false,
      "t": 214449.99999999985,
      "d": 1450,
      "v": 59
    },
    {
      "midi": 70,
      "hit": false,
      "t": 214766.6666666665,
      "d": 1083.333333333343,
      "v": 86
    },
    {
      "midi": 74,
      "hit": false,
      "t": 215066.6666666665,
      "d": 866.666666666657,
      "v": 78
    },
    {
      "midi": 55,
      "hit": false,
      "t": 215666.6666666665,
      "d": 233.33333333334303,
      "v": 58
    },
    {
      "midi": 60,
      "hit": false,
      "t": 215966.6666666665,
      "d": 1400,
      "v": 79
    },
    {
      "midi": 65,
      "hit": false,
      "t": 216883.33333333317,
      "d": 233.33333333334303,
      "v": 81
    },
    {
      "midi": 70,
      "hit": false,
      "t": 216883.33333333317,
      "d": 233.33333333334303,
      "v": 71
    },
    {
      "midi": 74,
      "hit": false,
      "t": 216883.33333333317,
      "d": 250,
      "v": 99
    },
    {
      "midi": 48,
      "hit": false,
      "t": 217483.33333333317,
      "d": 800,
      "v": 78
    },
    {
      "midi": 65,
      "hit": false,
      "t": 217799.99999999983,
      "d": 283.33333333334303,
      "v": 84
    },
    {
      "midi": 70,
      "hit": false,
      "t": 217799.99999999983,
      "d": 400,
      "v": 71
    },
    {
      "midi": 74,
      "hit": false,
      "t": 217799.99999999983,
      "d": 600,
      "v": 102
    },
    {
      "midi": 53,
      "hit": false,
      "t": 218399.99999999983,
      "d": 66.66666666665697,
      "v": 81
    },
    {
      "midi": 67,
      "hit": false,
      "t": 218399.99999999983,
      "d": 133.33333333331393,
      "v": 57
    },
    {
      "midi": 65,
      "hit": false,
      "t": 218999.9999999998,
      "d": 166.66666666665697,
      "v": 99
    },
    {
      "midi": 69,
      "hit": false,
      "t": 218999.9999999998,
      "d": 183.33333333331393,
      "v": 106
    },
    {
      "midi": 72,
      "hit": false,
      "t": 218999.9999999998,
      "d": 216.66666666665697,
      "v": 111
    },
    {
      "midi": 77,
      "hit": false,
      "t": 218999.9999999998,
      "d": 216.66666666665697,
      "v": 115
    },
    {
      "midi": 53,
      "hit": false,
      "t": 219316.66666666645,
      "d": 633.333333333343,
      "v": 89
    },
    {
      "midi": 65,
      "hit": false,
      "t": 219316.66666666645,
      "d": 1183.333333333343,
      "v": 75
    },
    {
      "midi": 69,
      "hit": false,
      "t": 219316.66666666645,
      "d": 1183.333333333343,
      "v": 84
    },
    {
      "midi": 72,
      "hit": false,
      "t": 219316.66666666645,
      "d": 1183.333333333343,
      "v": 95
    }
  ]
}