{
  "jsonPath": "Latin/Zouk/Harry Diboula/je-peux-tattendre-acoustique.json",
  "path": "Latin\\Zouk\\Harry Diboula\\Je peux tattendre (acoustique).mid",
  "name": "Je peux tattendre (acoustique)",
  "difficulty": "Advanced",
  "bpm": 120,
  "notes": [
    {
      "midi": 64,
      "hit": false,
      "t": 3999.9999999999995,
      "d": 1067.7083333333335,
      "v": 87
    },
    {
      "midi": 60,
      "hit": false,
      "t": 3999.9999999999995,
      "d": 1109.3750000000005,
      "v": 96
    },
    {
      "midi": 55,
      "hit": false,
      "t": 3999.9999999999995,
      "d": 1122.3958333333335,
      "v": 91
    },
    {
      "midi": 48,
      "hit": false,
      "t": 3999.9999999999995,
      "d": 5723.958333333334,
      "v": 79
    },
    {
      "midi": 36,
      "hit": false,
      "t": 3999.9999999999995,
      "d": 7773.4375,
      "v": 83
    },
    {
      "midi": 67,
      "hit": false,
      "t": 5502.604166666666,
      "d": 1322.916666666667,
      "v": 83
    },
    {
      "midi": 55,
      "hit": false,
      "t": 5755.208333333333,
      "d": 968.75,
      "v": 75
    },
    {
      "midi": 59,
      "hit": false,
      "t": 5755.208333333333,
      "d": 1031.25,
      "v": 91
    },
    {
      "midi": 62,
      "hit": false,
      "t": 5755.208333333333,
      "d": 1046.875,
      "v": 87
    },
    {
      "midi": 72,
      "hit": false,
      "t": 7500,
      "d": 75.52083333333303,
      "v": 91
    },
    {
      "midi": 57,
      "hit": false,
      "t": 7763.020833333333,
      "d": 1265.625000000001,
      "v": 96
    },
    {
      "midi": 53,
      "hit": false,
      "t": 7765.625,
      "d": 1200.520833333334,
      "v": 91
    },
    {
      "midi": 60,
      "hit": false,
      "t": 7765.625,
      "d": 1244.7916666666679,
      "v": 83
    },
    {
      "midi": 53,
      "hit": false,
      "t": 9244.791666666668,
      "d": 317.7083333333321,
      "v": 100
    },
    {
      "midi": 57,
      "hit": false,
      "t": 9497.395833333334,
      "d": 302.0833333333321,
      "v": 91
    },
    {
      "midi": 60,
      "hit": false,
      "t": 9750,
      "d": 117.1875,
      "v": 87
    },
    {
      "midi": 55,
      "hit": false,
      "t": 9997.395833333334,
      "d": 580.7291666666661,
      "v": 87
    },
    {
      "midi": 48,
      "hit": false,
      "t": 9997.395833333334,
      "d": 640.625,
      "v": 49
    },
    {
      "midi": 64,
      "hit": false,
      "t": 9997.395833333334,
      "d": 643.2291666666661,
      "v": 83
    },
    {
      "midi": 60,
      "hit": false,
      "t": 9997.395833333334,
      "d": 656.25,
      "v": 87
    },
    {
      "midi": 48,
      "hit": false,
      "t": 10739.583333333334,
      "d": 651.0416666666661,
      "v": 41
    },
    {
      "midi": 62,
      "hit": false,
      "t": 10747.395833333334,
      "d": 1010.4166666666661,
      "v": 96
    },
    {
      "midi": 55,
      "hit": false,
      "t": 10747.395833333334,
      "d": 1023.4375,
      "v": 96
    },
    {
      "midi": 59,
      "hit": false,
      "t": 10747.395833333334,
      "d": 1028.6458333333321,
      "v": 96
    },
    {
      "midi": 48,
      "hit": false,
      "t": 11523.4375,
      "d": 210.9375,
      "v": 64
    },
    {
      "midi": 36,
      "hit": false,
      "t": 12015.625,
      "d": 5776.041666666668,
      "v": 91
    },
    {
      "midi": 55,
      "hit": false,
      "t": 12018.229166666666,
      "d": 1559.895833333334,
      "v": 83
    },
    {
      "midi": 64,
      "hit": false,
      "t": 12020.833333333332,
      "d": 1445.3125,
      "v": 96
    },
    {
      "midi": 60,
      "hit": false,
      "t": 12023.437499999998,
      "d": 1518.2291666666679,
      "v": 83
    },
    {
      "midi": 48,
      "hit": false,
      "t": 12747.395833333332,
      "d": 140.625,
      "v": 83
    },
    {
      "midi": 48,
      "hit": false,
      "t": 12994.791666666666,
      "d": 1453.1250000000018,
      "v": 96
    },
    {
      "midi": 67,
      "hit": false,
      "t": 13505.208333333332,
      "d": 1479.1666666666697,
      "v": 87
    },
    {
      "midi": 59,
      "hit": false,
      "t": 13747.395833333334,
      "d": 1213.5416666666679,
      "v": 71
    },
    {
      "midi": 62,
      "hit": false,
      "t": 13747.395833333334,
      "d": 1226.5625000000018,
      "v": 83
    },
    {
      "midi": 55,
      "hit": false,
      "t": 13752.604166666668,
      "d": 1187.5,
      "v": 79
    },
    {
      "midi": 48,
      "hit": false,
      "t": 14723.958333333334,
      "d": 161.45833333333394,
      "v": 71
    },
    {
      "midi": 48,
      "hit": false,
      "t": 14989.583333333336,
      "d": 802.0833333333321,
      "v": 86
    },
    {
      "midi": 72,
      "hit": false,
      "t": 15481.770833333336,
      "d": 72.91666666666606,
      "v": 91
    },
    {
      "midi": 53,
      "hit": false,
      "t": 15736.979166666668,
      "d": 1364.5833333333321,
      "v": 91
    },
    {
      "midi": 57,
      "hit": false,
      "t": 15736.979166666668,
      "d": 1424.4791666666642,
      "v": 100
    },
    {
      "midi": 60,
      "hit": false,
      "t": 15736.979166666668,
      "d": 1497.3958333333321,
      "v": 96
    },
    {
      "midi": 48,
      "hit": false,
      "t": 16005.208333333334,
      "d": 549.4791666666661,
      "v": 64
    },
    {
      "midi": 48,
      "hit": false,
      "t": 16734.375,
      "d": 109.375,
      "v": 83
    },
    {
      "midi": 48,
      "hit": false,
      "t": 17002.604166666668,
      "d": 760.4166666666679,
      "v": 91
    },
    {
      "midi": 53,
      "hit": false,
      "t": 17247.395833333332,
      "d": 361.9791666666679,
      "v": 96
    },
    {
      "midi": 57,
      "hit": false,
      "t": 17500,
      "d": 315.1041666666679,
      "v": 83
    },
    {
      "midi": 60,
      "hit": false,
      "t": 17736.979166666668,
      "d": 151.04166666666788,
      "v": 91
    },
    {
      "midi": 43,
      "hit": false,
      "t": 17981.770833333336,
      "d": 523.4375000000036,
      "v": 96
    },
    {
      "midi": 60,
      "hit": false,
      "t": 17984.375000000004,
      "d": 580.7291666666715,
      "v": 91
    },
    {
      "midi": 53,
      "hit": false,
      "t": 17986.97916666667,
      "d": 559.8958333333358,
      "v": 91
    },
    {
      "midi": 57,
      "hit": false,
      "t": 17986.97916666667,
      "d": 567.7083333333358,
      "v": 87
    },
    {
      "midi": 43,
      "hit": false,
      "t": 18734.375000000007,
      "d": 1135.4166666666715,
      "v": 91
    },
    {
      "midi": 53,
      "hit": false,
      "t": 18736.979166666675,
      "d": 367.1875,
      "v": 91
    },
    {
      "midi": 60,
      "hit": false,
      "t": 18736.979166666675,
      "d": 403.6458333333321,
      "v": 91
    },
    {
      "midi": 57,
      "hit": false,
      "t": 18736.979166666675,
      "d": 549.4791666666642,
      "v": 87
    },
    {
      "midi": 62,
      "hit": false,
      "t": 19505.20833333334,
      "d": 283.8541666666715,
      "v": 96
    },
    {
      "midi": 55,
      "hit": false,
      "t": 19507.812500000007,
      "d": 268.2291666666679,
      "v": 79
    },
    {
      "midi": 59,
      "hit": false,
      "t": 19510.416666666675,
      "d": 268.2291666666679,
      "v": 83
    },
    {
      "midi": 64,
      "hit": false,
      "t": 20005.208333333347,
      "d": 1268.2291666666679,
      "v": 87
    },
    {
      "midi": 36,
      "hit": false,
      "t": 20007.812500000015,
      "d": 593.75,
      "v": 87
    },
    {
      "midi": 48,
      "hit": false,
      "t": 20007.812500000015,
      "d": 1166.6666666666679,
      "v": 71
    },
    {
      "midi": 60,
      "hit": false,
      "t": 20007.812500000015,
      "d": 1307.2916666666679,
      "v": 87
    },
    {
      "midi": 55,
      "hit": false,
      "t": 20007.812500000015,
      "d": 1447.9166666666679,
      "v": 79
    },
    {
      "midi": 36,
      "hit": false,
      "t": 20721.354166666682,
      "d": 1627.6041666666679,
      "v": 67
    },
    {
      "midi": 48,
      "hit": false,
      "t": 21268.229166666682,
      "d": 570.3125,
      "v": 44
    },
    {
      "midi": 67,
      "hit": false,
      "t": 21494.791666666682,
      "d": 1304.6875,
      "v": 91
    },
    {
      "midi": 59,
      "hit": false,
      "t": 21752.604166666682,
      "d": 1000,
      "v": 87
    },
    {
      "midi": 55,
      "hit": false,
      "t": 21755.20833333335,
      "d": 976.5625,
      "v": 75
    },
    {
      "midi": 62,
      "hit": false,
      "t": 21755.20833333335,
      "d": 1002.6041666666642,
      "v": 87
    },
    {
      "midi": 48,
      "hit": false,
      "t": 22010.416666666682,
      "d": 1000,
      "v": 35
    },
    {
      "midi": 36,
      "hit": false,
      "t": 22747.39583333335,
      "d": 1776.0416666666679,
      "v": 61
    },
    {
      "midi": 48,
      "hit": false,
      "t": 23247.39583333335,
      "d": 2481.770833333332,
      "v": 44
    },
    {
      "midi": 72,
      "hit": false,
      "t": 23476.56250000002,
      "d": 75.52083333333212,
      "v": 79
    },
    {
      "midi": 53,
      "hit": false,
      "t": 23739.58333333335,
      "d": 1234.375,
      "v": 91
    },
    {
      "midi": 57,
      "hit": false,
      "t": 23739.58333333335,
      "d": 1455.7291666666679,
      "v": 91
    },
    {
      "midi": 60,
      "hit": false,
      "t": 23739.58333333335,
      "d": 1460.9375,
      "v": 91
    },
    {
      "midi": 36,
      "hit": false,
      "t": 24750.00000000002,
      "d": 947.9166666666642,
      "v": 54
    },
    {
      "midi": 53,
      "hit": false,
      "t": 25229.166666666682,
      "d": 536.4583333333321,
      "v": 71
    },
    {
      "midi": 57,
      "hit": false,
      "t": 25481.77083333335,
      "d": 309.8958333333321,
      "v": 75
    },
    {
      "midi": 60,
      "hit": false,
      "t": 25734.375000000015,
      "d": 135.41666666666788,
      "v": 87
    },
    {
      "midi": 57,
      "hit": false,
      "t": 25981.77083333335,
      "d": 455.7291666666679,
      "v": 87
    },
    {
      "midi": 60,
      "hit": false,
      "t": 25981.77083333335,
      "d": 619.7916666666679,
      "v": 96
    },
    {
      "midi": 45,
      "hit": false,
      "t": 25984.37500000002,
      "d": 481.7708333333321,
      "v": 75
    },
    {
      "midi": 64,
      "hit": false,
      "t": 25984.37500000002,
      "d": 539.0625,
      "v": 96
    },
    {
      "midi": 43,
      "hit": false,
      "t": 26742.18750000002,
      "d": 976.5625000000036,
      "v": 75
    },
    {
      "midi": 55,
      "hit": false,
      "t": 26744.791666666686,
      "d": 348.9583333333321,
      "v": 83
    },
    {
      "midi": 62,
      "hit": false,
      "t": 26744.791666666686,
      "d": 359.375,
      "v": 87
    },
    {
      "midi": 59,
      "hit": false,
      "t": 26744.791666666686,
      "d": 401.0416666666679,
      "v": 87
    },
    {
      "midi": 36,
      "hit": false,
      "t": 28010.41666666669,
      "d": 539.0625000000036,
      "v": 67
    },
    {
      "midi": 55,
      "hit": false,
      "t": 28015.625000000022,
      "d": 994.7916666666715,
      "v": 75
    },
    {
      "midi": 64,
      "hit": false,
      "t": 28015.625000000022,
      "d": 1078.1250000000036,
      "v": 83
    },
    {
      "midi": 60,
      "hit": false,
      "t": 28018.22916666669,
      "d": 1130.2083333333358,
      "v": 79
    },
    {
      "midi": 48,
      "hit": false,
      "t": 28018.22916666669,
      "d": 1716.1458333333321,
      "v": 46
    },
    {
      "midi": 36,
      "hit": false,
      "t": 28750.000000000025,
      "d": 1752.6041666666606,
      "v": 58
    },
    {
      "midi": 55,
      "hit": false,
      "t": 29255.208333333358,
      "d": 114.58333333333212,
      "v": 22
    },
    {
      "midi": 67,
      "hit": false,
      "t": 29500.000000000022,
      "d": 1304.6875,
      "v": 91
    },
    {
      "midi": 59,
      "hit": false,
      "t": 29750.000000000022,
      "d": 861.9791666666642,
      "v": 91
    },
    {
      "midi": 62,
      "hit": false,
      "t": 29750.000000000022,
      "d": 893.2291666666642,
      "v": 87
    },
    {
      "midi": 55,
      "hit": false,
      "t": 29755.208333333354,
      "d": 828.125,
      "v": 83
    },
    {
      "midi": 48,
      "hit": false,
      "t": 29755.208333333354,
      "d": 1864.5833333333358,
      "v": 44
    },
    {
      "midi": 36,
      "hit": false,
      "t": 30747.395833333354,
      "d": 1236.9791666666679,
      "v": 67
    },
    {
      "midi": 72,
      "hit": false,
      "t": 31484.375000000022,
      "d": 85.9375,
      "v": 91
    },
    {
      "midi": 60,
      "hit": false,
      "t": 31744.79166666669,
      "d": 651.0416666666642,
      "v": 83
    },
    {
      "midi": 57,
      "hit": false,
      "t": 31744.79166666669,
      "d": 661.4583333333321,
      "v": 87
    },
    {
      "midi": 53,
      "hit": false,
      "t": 31744.79166666669,
      "d": 669.2708333333321,
      "v": 71
    },
    {
      "midi": 41,
      "hit": false,
      "t": 31750.000000000022,
      "d": 403.6458333333321,
      "v": 91
    },
    {
      "midi": 57,
      "hit": false,
      "t": 32744.79166666669,
      "d": 880.2083333333321,
      "v": 83
    },
    {
      "midi": 41,
      "hit": false,
      "t": 32747.395833333358,
      "d": 1007.8125,
      "v": 71
    },
    {
      "midi": 53,
      "hit": false,
      "t": 32750.000000000025,
      "d": 828.1249999999964,
      "v": 71
    },
    {
      "midi": 60,
      "hit": false,
      "t": 32750.000000000025,
      "d": 872.3958333333321,
      "v": 75
    },
    {
      "midi": 57,
      "hit": false,
      "t": 33994.79166666669,
      "d": 322.9166666666715,
      "v": 87
    },
    {
      "midi": 60,
      "hit": false,
      "t": 33994.79166666669,
      "d": 403.64583333333576,
      "v": 100
    },
    {
      "midi": 64,
      "hit": false,
      "t": 33994.79166666669,
      "d": 414.0625,
      "v": 91
    },
    {
      "midi": 45,
      "hit": false,
      "t": 33994.79166666669,
      "d": 447.91666666666424,
      "v": 87
    },
    {
      "midi": 55,
      "hit": false,
      "t": 34747.39583333336,
      "d": 317.70833333333576,
      "v": 91
    },
    {
      "midi": 59,
      "hit": false,
      "t": 34747.39583333336,
      "d": 317.70833333333576,
      "v": 87
    },
    {
      "midi": 62,
      "hit": false,
      "t": 34747.39583333336,
      "d": 330.7291666666715,
      "v": 87
    },
    {
      "midi": 43,
      "hit": false,
      "t": 34747.39583333336,
      "d": 382.8125000000073,
      "v": 87
    },
    {
      "midi": 55,
      "hit": false,
      "t": 35494.7916666667,
      "d": 184.89583333332848,
      "v": 91
    },
    {
      "midi": 59,
      "hit": false,
      "t": 35494.7916666667,
      "d": 200.52083333332848,
      "v": 83
    },
    {
      "midi": 64,
      "hit": false,
      "t": 35494.7916666667,
      "d": 216.14583333332848,
      "v": 100
    },
    {
      "midi": 40,
      "hit": false,
      "t": 35494.7916666667,
      "d": 294.2708333333285,
      "v": 75
    },
    {
      "midi": 41,
      "hit": false,
      "t": 36000.00000000003,
      "d": 1179.6875,
      "v": 71
    },
    {
      "midi": 60,
      "hit": false,
      "t": 36000.00000000003,
      "d": 1239.5833333333358,
      "v": 71
    },
    {
      "midi": 53,
      "hit": false,
      "t": 36000.00000000003,
      "d": 1257.8125,
      "v": 75
    },
    {
      "midi": 57,
      "hit": false,
      "t": 36000.00000000003,
      "d": 1257.8125,
      "v": 79
    },
    {
      "midi": 55,
      "hit": false,
      "t": 37992.18750000003,
      "d": 578.1249999999927,
      "v": 49
    },
    {
      "midi": 40,
      "hit": false,
      "t": 37992.18750000003,
      "d": 1796.8749999999927,
      "v": 52
    },
    {
      "midi": 60,
      "hit": false,
      "t": 37994.79166666669,
      "d": 486.97916666666424,
      "v": 67
    },
    {
      "midi": 64,
      "hit": false,
      "t": 37994.79166666669,
      "d": 536.4583333333285,
      "v": 64
    },
    {
      "midi": 55,
      "hit": false,
      "t": 38752.604166666686,
      "d": 1096.3541666666715,
      "v": 83
    },
    {
      "midi": 60,
      "hit": false,
      "t": 39005.20833333335,
      "d": 294.2708333333285,
      "v": 100
    },
    {
      "midi": 62,
      "hit": false,
      "t": 39260.41666666668,
      "d": 265.625,
      "v": 96
    },
    {
      "midi": 64,
      "hit": false,
      "t": 39497.39583333334,
      "d": 278.64583333334303,
      "v": 96
    },
    {
      "midi": 67,
      "hit": false,
      "t": 39747.39583333335,
      "d": 210.93750000000728,
      "v": 100
    },
    {
      "midi": 67,
      "hit": false,
      "t": 39997.39583333336,
      "d": 1377.604166666657,
      "v": 79
    },
    {
      "midi": 55,
      "hit": false,
      "t": 40000.00000000002,
      "d": 1359.3749999999927,
      "v": 87
    },
    {
      "midi": 60,
      "hit": false,
      "t": 40000.00000000002,
      "d": 1359.3749999999927,
      "v": 91
    },
    {
      "midi": 39,
      "hit": false,
      "t": 40000.00000000002,
      "d": 1476.5624999999927,
      "v": 79
    },
    {
      "midi": 63,
      "hit": false,
      "t": 40002.604166666686,
      "d": 1361.9791666666642,
      "v": 87
    },
    {
      "midi": 57,
      "hit": false,
      "t": 41986.97916666668,
      "d": 492.1874999999927,
      "v": 87
    },
    {
      "midi": 62,
      "hit": false,
      "t": 41986.97916666668,
      "d": 619.791666666657,
      "v": 75
    },
    {
      "midi": 53,
      "hit": false,
      "t": 41989.58333333334,
      "d": 507.8124999999927,
      "v": 79
    },
    {
      "midi": 38,
      "hit": false,
      "t": 41989.58333333334,
      "d": 541.666666666657,
      "v": 79
    },
    {
      "midi": 43,
      "hit": false,
      "t": 42739.583333333336,
      "d": 398.43749999998545,
      "v": 83
    },
    {
      "midi": 53,
      "hit": false,
      "t": 42742.1875,
      "d": 294.2708333333285,
      "v": 91
    },
    {
      "midi": 60,
      "hit": false,
      "t": 42742.1875,
      "d": 351.5624999999927,
      "v": 100
    },
    {
      "midi": 57,
      "hit": false,
      "t": 42742.1875,
      "d": 377.60416666665697,
      "v": 96
    },
    {
      "midi": 59,
      "hit": false,
      "t": 43481.77083333332,
      "d": 158.85416666666424,
      "v": 87
    },
    {
      "midi": 55,
      "hit": false,
      "t": 43481.77083333332,
      "d": 161.45833333332848,
      "v": 91
    },
    {
      "midi": 62,
      "hit": false,
      "t": 43481.77083333332,
      "d": 174.47916666666424,
      "v": 96
    },
    {
      "midi": 43,
      "hit": false,
      "t": 43481.77083333332,
      "d": 268.22916666666424,
      "v": 87
    },
    {
      "midi": 64,
      "hit": false,
      "t": 43992.187499999985,
      "d": 1145.833333333343,
      "v": 87
    },
    {
      "midi": 52,
      "hit": false,
      "t": 43994.79166666665,
      "d": 1023.4375000000073,
      "v": 83
    },
    {
      "midi": 55,
      "hit": false,
      "t": 43994.79166666665,
      "d": 1106.770833333343,
      "v": 87
    },
    {
      "midi": 60,
      "hit": false,
      "t": 43994.79166666665,
      "d": 1127.6041666666788,
      "v": 91
    },
    {
      "midi": 36,
      "hit": false,
      "t": 43994.79166666665,
      "d": 2945.3125000000073,
      "v": 67
    },
    {
      "midi": 48,
      "hit": false,
      "t": 43999.999999999985,
      "d": 2518.2291666666715,
      "v": 61
    },
    {
      "midi": 67,
      "hit": false,
      "t": 45507.81249999999,
      "d": 1617.1875,
      "v": 91
    },
    {
      "midi": 55,
      "hit": false,
      "t": 45757.81249999999,
      "d": 1307.2916666666642,
      "v": 83
    },
    {
      "midi": 59,
      "hit": false,
      "t": 45757.81249999999,
      "d": 1328.125,
      "v": 87
    },
    {
      "midi": 62,
      "hit": false,
      "t": 45760.41666666666,
      "d": 1325.5208333333358,
      "v": 87
    },
    {
      "midi": 48,
      "hit": false,
      "t": 46747.39583333332,
      "d": 1075.5208333333358,
      "v": 61
    },
    {
      "midi": 36,
      "hit": false,
      "t": 46992.18749999999,
      "d": 1559.8958333333285,
      "v": 79
    },
    {
      "midi": 72,
      "hit": false,
      "t": 47513.02083333333,
      "d": 72.91666666666424,
      "v": 87
    },
    {
      "midi": 53,
      "hit": false,
      "t": 48002.60416666666,
      "d": 494.79166666666424,
      "v": 87
    },
    {
      "midi": 57,
      "hit": false,
      "t": 48002.60416666666,
      "d": 494.79166666666424,
      "v": 91
    },
    {
      "midi": 60,
      "hit": false,
      "t": 48002.60416666666,
      "d": 502.60416666666424,
      "v": 91
    },
    {
      "midi": 60,
      "hit": false,
      "t": 48981.77083333332,
      "d": 533.8541666666715,
      "v": 91
    },
    {
      "midi": 50,
      "hit": false,
      "t": 48981.77083333332,
      "d": 593.7500000000073,
      "v": 79
    },
    {
      "midi": 55,
      "hit": false,
      "t": 48981.77083333332,
      "d": 619.7916666666715,
      "v": 79
    },
    {
      "midi": 43,
      "hit": false,
      "t": 48994.79166666666,
      "d": 697.9166666666715,
      "v": 58
    },
    {
      "midi": 59,
      "hit": false,
      "t": 49492.18749999999,
      "d": 132.8125,
      "v": 79
    },
    {
      "midi": 36,
      "hit": false,
      "t": 49989.58333333333,
      "d": 1838.541666666657,
      "v": 44
    },
    {
      "midi": 55,
      "hit": false,
      "t": 49997.39583333333,
      "d": 1585.9374999999927,
      "v": 75
    },
    {
      "midi": 60,
      "hit": false,
      "t": 49999.99999999999,
      "d": 1869.791666666657,
      "v": 83
    },
    {
      "midi": 52,
      "hit": false,
      "t": 50002.60416666666,
      "d": 1354.1666666666642,
      "v": 71
    },
    {
      "midi": 48,
      "hit": false,
      "t": 50731.77083333332,
      "d": 390.625,
      "v": 44
    },
    {
      "midi": 48,
      "hit": false,
      "t": 51265.624999999985,
      "d": 1057.2916666666642,
      "v": 39
    },
    {
      "midi": 52,
      "hit": false,
      "t": 51513.02083333332,
      "d": 791.6666666666642,
      "v": 54
    },
    {
      "midi": 55,
      "hit": false,
      "t": 51755.20833333332,
      "d": 638.0208333333285,
      "v": 37
    },
    {
      "midi": 60,
      "hit": false,
      "t": 51999.999999999985,
      "d": 427.0833333333285,
      "v": 67
    },
    {
      "midi": 36,
      "hit": false,
      "t": 52002.60416666665,
      "d": 1807.2916666666642,
      "v": 22
    },
    {
      "midi": 55,
      "hit": false,
      "t": 52744.79166666665,
      "d": 1002.6041666666642,
      "v": 64
    },
    {
      "midi": 60,
      "hit": false,
      "t": 53005.208333333314,
      "d": 260.4166666666715,
      "v": 96
    },
    {
      "midi": 48,
      "hit": false,
      "t": 53010.41666666665,
      "d": 763.0208333333285,
      "v": 28
    },
    {
      "midi": 62,
      "hit": false,
      "t": 53252.60416666665,
      "d": 281.25,
      "v": 96
    },
    {
      "midi": 64,
      "hit": false,
      "t": 53507.812499999985,
      "d": 236.97916666666424,
      "v": 91
    },
    {
      "midi": 57,
      "hit": false,
      "t": 53999.99999999998,
      "d": 1020.8333333333358,
      "v": 96
    },
    {
      "midi": 60,
      "hit": false,
      "t": 53999.99999999998,
      "d": 1031.25,
      "v": 96
    },
    {
      "midi": 65,
      "hit": false,
      "t": 53999.99999999998,
      "d": 1036.4583333333358,
      "v": 96
    },
    {
      "midi": 41,
      "hit": false,
      "t": 53999.99999999998,
      "d": 1796.875,
      "v": 96
    },
    {
      "midi": 53,
      "hit": false,
      "t": 53999.99999999998,
      "d": 1799.4791666666642,
      "v": 96
    },
    {
      "midi": 57,
      "hit": false,
      "t": 55497.395833333314,
      "d": 130.20833333333576,
      "v": 93
    },
    {
      "midi": 65,
      "hit": false,
      "t": 55497.395833333314,
      "d": 164.0625,
      "v": 93
    },
    {
      "midi": 60,
      "hit": false,
      "t": 55497.395833333314,
      "d": 166.66666666666424,
      "v": 93
    },
    {
      "midi": 43,
      "hit": false,
      "t": 55749.99999999998,
      "d": 1585.9374999999927,
      "v": 87
    },
    {
      "midi": 55,
      "hit": false,
      "t": 55752.60416666664,
      "d": 786.4583333333285,
      "v": 88
    },
    {
      "midi": 59,
      "hit": false,
      "t": 55752.60416666664,
      "d": 817.7083333333285,
      "v": 88
    },
    {
      "midi": 62,
      "hit": false,
      "t": 55752.60416666664,
      "d": 843.7499999999927,
      "v": 88
    },
    {
      "midi": 67,
      "hit": false,
      "t": 56903.6458333333,
      "d": 356.77083333333576,
      "v": 83
    },
    {
      "midi": 55,
      "hit": false,
      "t": 57247.3958333333,
      "d": 122.39583333333576,
      "v": 69
    },
    {
      "midi": 59,
      "hit": false,
      "t": 57497.3958333333,
      "d": 187.5,
      "v": 58
    },
    {
      "midi": 62,
      "hit": false,
      "t": 57497.3958333333,
      "d": 205.72916666666424,
      "v": 83
    },
    {
      "midi": 55,
      "hit": false,
      "t": 57505.2083333333,
      "d": 54.6875,
      "v": 61
    },
    {
      "midi": 55,
      "hit": false,
      "t": 57749.99999999996,
      "d": 442.7083333333285,
      "v": 91
    },
    {
      "midi": 52,
      "hit": false,
      "t": 57749.99999999996,
      "d": 489.5833333333285,
      "v": 79
    },
    {
      "midi": 48,
      "hit": false,
      "t": 57749.99999999996,
      "d": 1604.1666666666642,
      "v": 91
    },
    {
      "midi": 60,
      "hit": false,
      "t": 57752.60416666663,
      "d": 447.91666666666424,
      "v": 82
    },
    {
      "midi": 60,
      "hit": false,
      "t": 58736.97916666663,
      "d": 182.29166666666424,
      "v": 61
    },
    {
      "midi": 52,
      "hit": false,
      "t": 58739.58333333329,
      "d": 127.60416666666424,
      "v": 52
    },
    {
      "midi": 55,
      "hit": false,
      "t": 58742.187499999956,
      "d": 111.97916666666424,
      "v": 61
    },
    {
      "midi": 55,
      "hit": false,
      "t": 59502.60416666663,
      "d": 145.83333333332848,
      "v": 87
    },
    {
      "midi": 60,
      "hit": false,
      "t": 59505.20833333329,
      "d": 151.04166666666424,
      "v": 91
    },
    {
      "midi": 64,
      "hit": false,
      "t": 59505.20833333329,
      "d": 187.5,
      "v": 87
    },
    {
      "midi": 41,
      "hit": false,
      "t": 59749.999999999956,
      "d": 1617.1875,
      "v": 83
    },
    {
      "midi": 53,
      "hit": false,
      "t": 59752.60416666662,
      "d": 583.3333333333358,
      "v": 67
    },
    {
      "midi": 57,
      "hit": false,
      "t": 59752.60416666662,
      "d": 682.2916666666715,
      "v": 79
    },
    {
      "midi": 60,
      "hit": false,
      "t": 59752.60416666662,
      "d": 765.6250000000073,
      "v": 87
    },
    {
      "midi": 65,
      "hit": false,
      "t": 59752.60416666662,
      "d": 1656.25,
      "v": 87
    },
    {
      "midi": 53,
      "hit": false,
      "t": 60502.60416666663,
      "d": 65.10416666666424,
      "v": 53
    },
    {
      "midi": 53,
      "hit": false,
      "t": 60744.79166666663,
      "d": 273.4375,
      "v": 50
    },
    {
      "midi": 48,
      "hit": false,
      "t": 61007.81249999996,
      "d": 177.08333333332848,
      "v": 46
    },
    {
      "midi": 53,
      "hit": false,
      "t": 61263.02083333329,
      "d": 62.5,
      "v": 44
    },
    {
      "midi": 62,
      "hit": false,
      "t": 61994.79166666662,
      "d": 502.6041666666715,
      "v": 87
    },
    {
      "midi": 53,
      "hit": false,
      "t": 61994.79166666662,
      "d": 520.8333333333358,
      "v": 71
    },
    {
      "midi": 57,
      "hit": false,
      "t": 61994.79166666662,
      "d": 520.8333333333358,
      "v": 79
    },
    {
      "midi": 50,
      "hit": false,
      "t": 61994.79166666662,
      "d": 1690.1041666666715,
      "v": 54
    },
    {
      "midi": 38,
      "hit": false,
      "t": 61994.79166666662,
      "d": 1765.625,
      "v": 83
    },
    {
      "midi": 62,
      "hit": false,
      "t": 62739.58333333329,
      "d": 197.91666666666424,
      "v": 71
    },
    {
      "midi": 57,
      "hit": false,
      "t": 62739.58333333329,
      "d": 208.33333333332848,
      "v": 54
    },
    {
      "midi": 53,
      "hit": false,
      "t": 62739.58333333329,
      "d": 249.99999999999272,
      "v": 49
    },
    {
      "midi": 62,
      "hit": false,
      "t": 63244.79166666662,
      "d": 505.20833333333576,
      "v": 100
    },
    {
      "midi": 55,
      "hit": false,
      "t": 63749.999999999956,
      "d": 1018.2291666666642,
      "v": 75
    },
    {
      "midi": 59,
      "hit": false,
      "t": 63749.999999999956,
      "d": 1111.9791666666642,
      "v": 87
    },
    {
      "midi": 62,
      "hit": false,
      "t": 63749.999999999956,
      "d": 1125,
      "v": 68
    },
    {
      "midi": 43,
      "hit": false,
      "t": 63749.999999999956,
      "d": 1632.8125,
      "v": 91
    },
    {
      "midi": 55,
      "hit": false,
      "t": 64976.562499999956,
      "d": 169.27083333333576,
      "v": 87
    },
    {
      "midi": 59,
      "hit": false,
      "t": 64979.16666666662,
      "d": 161.45833333333576,
      "v": 88
    },
    {
      "midi": 62,
      "hit": false,
      "t": 64979.16666666662,
      "d": 171.87500000000728,
      "v": 88
    },
    {
      "midi": 53,
      "hit": false,
      "t": 65252.60416666663,
      "d": 354.16666666665697,
      "v": 93
    },
    {
      "midi": 57,
      "hit": false,
      "t": 65252.60416666663,
      "d": 356.7708333333285,
      "v": 93
    },
    {
      "midi": 60,
      "hit": false,
      "t": 65252.60416666663,
      "d": 380.2083333333285,
      "v": 93
    },
    {
      "midi": 55,
      "hit": false,
      "t": 66002.60416666663,
      "d": 518.229166666657,
      "v": 96
    },
    {
      "midi": 60,
      "hit": false,
      "t": 66002.60416666663,
      "d": 544.2708333333285,
      "v": 100
    },
    {
      "midi": 64,
      "hit": false,
      "t": 66002.60416666663,
      "d": 562.5,
      "v": 91
    },
    {
      "midi": 48,
      "hit": false,
      "t": 66002.60416666663,
      "d": 934.8958333333285,
      "v": 96
    },
    {
      "midi": 55,
      "hit": false,
      "t": 66747.3958333333,
      "d": 122.39583333332848,
      "v": 75
    },
    {
      "midi": 64,
      "hit": false,
      "t": 66747.3958333333,
      "d": 151.04166666665697,
      "v": 91
    },
    {
      "midi": 60,
      "hit": false,
      "t": 66747.3958333333,
      "d": 174.47916666665697,
      "v": 83
    },
    {
      "midi": 36,
      "hit": false,
      "t": 66747.3958333333,
      "d": 184.89583333332848,
      "v": 71
    },
    {
      "midi": 39,
      "hit": false,
      "t": 66760.41666666663,
      "d": 88.54166666667152,
      "v": 25
    },
    {
      "midi": 53,
      "hit": false,
      "t": 67249.99999999996,
      "d": 268.2291666666715,
      "v": 83
    },
    {
      "midi": 62,
      "hit": false,
      "t": 67252.60416666663,
      "d": 278.6458333333285,
      "v": 99
    },
    {
      "midi": 57,
      "hit": false,
      "t": 67252.60416666663,
      "d": 291.66666666665697,
      "v": 99
    },
    {
      "midi": 38,
      "hit": false,
      "t": 67252.60416666663,
      "d": 307.29166666665697,
      "v": 99
    },
    {
      "midi": 50,
      "hit": false,
      "t": 67252.60416666663,
      "d": 312.49999999998545,
      "v": 99
    },
    {
      "midi": 40,
      "hit": false,
      "t": 67749.99999999994,
      "d": 1190.1041666666715,
      "v": 83
    },
    {
      "midi": 55,
      "hit": false,
      "t": 67752.60416666661,
      "d": 500,
      "v": 102
    },
    {
      "midi": 64,
      "hit": false,
      "t": 67752.60416666661,
      "d": 671.875,
      "v": 102
    },
    {
      "midi": 60,
      "hit": false,
      "t": 67752.60416666661,
      "d": 679.6875,
      "v": 102
    },
    {
      "midi": 52,
      "hit": false,
      "t": 67752.60416666661,
      "d": 1677.083333333343,
      "v": 102
    },
    {
      "midi": 55,
      "hit": false,
      "t": 68744.79166666661,
      "d": 268.2291666666715,
      "v": 71
    },
    {
      "midi": 60,
      "hit": false,
      "t": 68744.79166666661,
      "d": 643.2291666666715,
      "v": 87
    },
    {
      "midi": 64,
      "hit": false,
      "t": 68744.79166666661,
      "d": 940.1041666666715,
      "v": 91
    },
    {
      "midi": 55,
      "hit": false,
      "t": 69244.79166666661,
      "d": 390.625,
      "v": 67
    },
    {
      "midi": 40,
      "hit": false,
      "t": 69497.39583333328,
      "d": 210.9375,
      "v": 91
    },
    {
      "midi": 57,
      "hit": false,
      "t": 69999.99999999996,
      "d": 1020.8333333333285,
      "v": 96
    },
    {
      "midi": 60,
      "hit": false,
      "t": 69999.99999999996,
      "d": 1031.25,
      "v": 96
    },
    {
      "midi": 65,
      "hit": false,
      "t": 69999.99999999996,
      "d": 1036.4583333333285,
      "v": 96
    },
    {
      "midi": 41,
      "hit": false,
      "t": 69999.99999999996,
      "d": 1796.875,
      "v": 96
    },
    {
      "midi": 53,
      "hit": false,
      "t": 69999.99999999996,
      "d": 1799.4791666666715,
      "v": 96
    },
    {
      "midi": 57,
      "hit": false,
      "t": 71497.39583333328,
      "d": 130.20833333332848,
      "v": 93
    },
    {
      "midi": 65,
      "hit": false,
      "t": 71497.39583333328,
      "d": 164.0625,
      "v": 93
    },
    {
      "midi": 60,
      "hit": false,
      "t": 71497.39583333328,
      "d": 166.66666666667152,
      "v": 93
    },
    {
      "midi": 43,
      "hit": false,
      "t": 71749.99999999996,
      "d": 1585.9375000000146,
      "v": 87
    },
    {
      "midi": 55,
      "hit": false,
      "t": 71752.60416666663,
      "d": 786.458333333343,
      "v": 88
    },
    {
      "midi": 59,
      "hit": false,
      "t": 71752.60416666663,
      "d": 817.708333333343,
      "v": 88
    },
    {
      "midi": 62,
      "hit": false,
      "t": 71752.60416666663,
      "d": 843.7500000000146,
      "v": 88
    },
    {
      "midi": 67,
      "hit": false,
      "t": 72903.64583333331,
      "d": 356.7708333333285,
      "v": 83
    },
    {
      "midi": 55,
      "hit": false,
      "t": 73247.39583333331,
      "d": 122.39583333332848,
      "v": 69
    },
    {
      "midi": 59,
      "hit": false,
      "t": 73497.39583333331,
      "d": 187.5,
      "v": 58
    },
    {
      "midi": 62,
      "hit": false,
      "t": 73497.39583333331,
      "d": 205.72916666667152,
      "v": 83
    },
    {
      "midi": 55,
      "hit": false,
      "t": 73505.20833333331,
      "d": 54.6875,
      "v": 61
    },
    {
      "midi": 55,
      "hit": false,
      "t": 73749.99999999999,
      "d": 442.70833333334303,
      "v": 91
    },
    {
      "midi": 52,
      "hit": false,
      "t": 73749.99999999999,
      "d": 489.58333333334303,
      "v": 79
    },
    {
      "midi": 48,
      "hit": false,
      "t": 73749.99999999999,
      "d": 1604.1666666666715,
      "v": 91
    },
    {
      "midi": 60,
      "hit": false,
      "t": 73752.60416666666,
      "d": 447.9166666666715,
      "v": 82
    },
    {
      "midi": 60,
      "hit": false,
      "t": 74736.97916666666,
      "d": 182.29166666667152,
      "v": 61
    },
    {
      "midi": 52,
      "hit": false,
      "t": 74739.58333333333,
      "d": 127.60416666667152,
      "v": 52
    },
    {
      "midi": 55,
      "hit": false,
      "t": 74742.1875,
      "d": 111.97916666667152,
      "v": 61
    },
    {
      "midi": 55,
      "hit": false,
      "t": 75502.60416666666,
      "d": 145.83333333334303,
      "v": 87
    },
    {
      "midi": 60,
      "hit": false,
      "t": 75505.20833333333,
      "d": 151.04166666667152,
      "v": 91
    },
    {
      "midi": 64,
      "hit": false,
      "t": 75505.20833333333,
      "d": 187.5,
      "v": 87
    },
    {
      "midi": 41,
      "hit": false,
      "t": 75750,
      "d": 1617.1875,
      "v": 83
    },
    {
      "midi": 53,
      "hit": false,
      "t": 75752.60416666667,
      "d": 583.3333333333285,
      "v": 67
    },
    {
      "midi": 57,
      "hit": false,
      "t": 75752.60416666667,
      "d": 682.291666666657,
      "v": 79
    },
    {
      "midi": 60,
      "hit": false,
      "t": 75752.60416666667,
      "d": 765.6249999999854,
      "v": 87
    },
    {
      "midi": 65,
      "hit": false,
      "t": 75752.60416666667,
      "d": 1656.25,
      "v": 87
    },
    {
      "midi": 53,
      "hit": false,
      "t": 76502.60416666666,
      "d": 65.10416666667152,
      "v": 53
    },
    {
      "midi": 53,
      "hit": false,
      "t": 76744.79166666666,
      "d": 273.4375,
      "v": 50
    },
    {
      "midi": 48,
      "hit": false,
      "t": 77007.81249999999,
      "d": 177.08333333334303,
      "v": 46
    },
    {
      "midi": 53,
      "hit": false,
      "t": 77263.02083333333,
      "d": 62.5,
      "v": 44
    },
    {
      "midi": 62,
      "hit": false,
      "t": 77994.79166666667,
      "d": 502.60416666665697,
      "v": 87
    },
    {
      "midi": 53,
      "hit": false,
      "t": 77994.79166666667,
      "d": 520.8333333333285,
      "v": 71
    },
    {
      "midi": 57,
      "hit": false,
      "t": 77994.79166666667,
      "d": 520.8333333333285,
      "v": 79
    },
    {
      "midi": 50,
      "hit": false,
      "t": 77994.79166666667,
      "d": 1690.104166666657,
      "v": 54
    },
    {
      "midi": 38,
      "hit": false,
      "t": 77994.79166666667,
      "d": 1765.625,
      "v": 83
    },
    {
      "midi": 62,
      "hit": false,
      "t": 78739.58333333333,
      "d": 197.91666666667152,
      "v": 71
    },
    {
      "midi": 57,
      "hit": false,
      "t": 78739.58333333333,
      "d": 208.33333333334303,
      "v": 54
    },
    {
      "midi": 53,
      "hit": false,
      "t": 78739.58333333333,
      "d": 250.00000000001455,
      "v": 49
    },
    {
      "midi": 62,
      "hit": false,
      "t": 79244.79166666667,
      "d": 505.2083333333285,
      "v": 100
    },
    {
      "midi": 55,
      "hit": false,
      "t": 79750,
      "d": 1018.2291666666715,
      "v": 75
    },
    {
      "midi": 59,
      "hit": false,
      "t": 79750,
      "d": 1111.9791666666715,
      "v": 87
    },
    {
      "midi": 62,
      "hit": false,
      "t": 79750,
      "d": 1125,
      "v": 68
    },
    {
      "midi": 43,
      "hit": false,
      "t": 79750,
      "d": 1632.8125,
      "v": 91
    },
    {
      "midi": 55,
      "hit": false,
      "t": 80976.5625,
      "d": 169.27083333332848,
      "v": 87
    },
    {
      "midi": 59,
      "hit": false,
      "t": 80979.16666666667,
      "d": 161.45833333332848,
      "v": 88
    },
    {
      "midi": 62,
      "hit": false,
      "t": 80979.16666666667,
      "d": 171.87499999998545,
      "v": 88
    },
    {
      "midi": 53,
      "hit": false,
      "t": 81252.60416666666,
      "d": 354.1666666666715,
      "v": 93
    },
    {
      "midi": 57,
      "hit": false,
      "t": 81252.60416666666,
      "d": 356.77083333334303,
      "v": 93
    },
    {
      "midi": 60,
      "hit": false,
      "t": 81252.60416666666,
      "d": 380.20833333334303,
      "v": 93
    },
    {
      "midi": 48,
      "hit": false,
      "t": 82000,
      "d": 2518.2291666666715,
      "v": 61
    },
    {
      "midi": 67,
      "hit": false,
      "t": 83507.8125,
      "d": 1617.1875000000146,
      "v": 91
    },
    {
      "midi": 55,
      "hit": false,
      "t": 83757.8125,
      "d": 1307.291666666686,
      "v": 83
    },
    {
      "midi": 59,
      "hit": false,
      "t": 83757.8125,
      "d": 1328.1250000000146,
      "v": 87
    },
    {
      "midi": 62,
      "hit": false,
      "t": 83760.41666666667,
      "d": 1325.520833333343,
      "v": 87
    },
    {
      "midi": 48,
      "hit": false,
      "t": 84747.39583333334,
      "d": 1075.520833333343,
      "v": 61
    },
    {
      "midi": 36,
      "hit": false,
      "t": 84992.18750000001,
      "d": 1559.895833333343,
      "v": 79
    },
    {
      "midi": 72,
      "hit": false,
      "t": 85513.02083333334,
      "d": 72.91666666667152,
      "v": 87
    },
    {
      "midi": 53,
      "hit": false,
      "t": 86002.60416666669,
      "d": 494.7916666666715,
      "v": 87
    },
    {
      "midi": 57,
      "hit": false,
      "t": 86002.60416666669,
      "d": 494.7916666666715,
      "v": 91
    },
    {
      "midi": 60,
      "hit": false,
      "t": 86002.60416666669,
      "d": 502.6041666666715,
      "v": 91
    },
    {
      "midi": 60,
      "hit": false,
      "t": 86981.77083333336,
      "d": 533.854166666657,
      "v": 91
    },
    {
      "midi": 50,
      "hit": false,
      "t": 86981.77083333336,
      "d": 593.7499999999854,
      "v": 79
    },
    {
      "midi": 55,
      "hit": false,
      "t": 86981.77083333336,
      "d": 619.791666666657,
      "v": 79
    },
    {
      "midi": 43,
      "hit": false,
      "t": 86994.79166666669,
      "d": 697.916666666657,
      "v": 58
    },
    {
      "midi": 59,
      "hit": false,
      "t": 87492.18750000001,
      "d": 132.8125,
      "v": 79
    },
    {
      "midi": 64,
      "hit": false,
      "t": 88005.20833333334,
      "d": 1268.2291666666715,
      "v": 82
    },
    {
      "midi": 36,
      "hit": false,
      "t": 88007.81250000001,
      "d": 593.75,
      "v": 82
    },
    {
      "midi": 48,
      "hit": false,
      "t": 88007.81250000001,
      "d": 1166.6666666666715,
      "v": 66
    },
    {
      "midi": 60,
      "hit": false,
      "t": 88007.81250000001,
      "d": 1307.2916666666715,
      "v": 82
    },
    {
      "midi": 55,
      "hit": false,
      "t": 88007.81250000001,
      "d": 1447.9166666666715,
      "v": 74
    },
    {
      "midi": 36,
      "hit": false,
      "t": 88721.35416666669,
      "d": 1627.6041666666715,
      "v": 62
    },
    {
      "midi": 48,
      "hit": false,
      "t": 89268.22916666669,
      "d": 570.3125,
      "v": 39
    },
    {
      "midi": 67,
      "hit": false,
      "t": 89494.79166666669,
      "d": 1304.6875,
      "v": 86
    },
    {
      "midi": 59,
      "hit": false,
      "t": 89752.60416666669,
      "d": 1000,
      "v": 82
    },
    {
      "midi": 55,
      "hit": false,
      "t": 89755.20833333336,
      "d": 976.5625,
      "v": 70
    },
    {
      "midi": 62,
      "hit": false,
      "t": 89755.20833333336,
      "d": 1002.604166666657,
      "v": 82
    },
    {
      "midi": 48,
      "hit": false,
      "t": 90010.41666666669,
      "d": 1000,
      "v": 30
    },
    {
      "midi": 36,
      "hit": false,
      "t": 90747.39583333336,
      "d": 1776.0416666666715,
      "v": 56
    },
    {
      "midi": 48,
      "hit": false,
      "t": 91247.39583333336,
      "d": 2481.7708333333285,
      "v": 39
    },
    {
      "midi": 72,
      "hit": false,
      "t": 91476.56250000003,
      "d": 75.52083333332848,
      "v": 74
    },
    {
      "midi": 53,
      "hit": false,
      "t": 91739.58333333336,
      "d": 1234.375,
      "v": 86
    },
    {
      "midi": 57,
      "hit": false,
      "t": 91739.58333333336,
      "d": 1455.7291666666715,
      "v": 86
    },
    {
      "midi": 60,
      "hit": false,
      "t": 91739.58333333336,
      "d": 1460.9375,
      "v": 86
    },
    {
      "midi": 36,
      "hit": false,
      "t": 92750.00000000003,
      "d": 947.916666666657,
      "v": 49
    },
    {
      "midi": 53,
      "hit": false,
      "t": 93229.16666666669,
      "d": 536.4583333333285,
      "v": 66
    },
    {
      "midi": 57,
      "hit": false,
      "t": 93481.77083333336,
      "d": 309.8958333333285,
      "v": 70
    },
    {
      "midi": 60,
      "hit": false,
      "t": 93734.37500000001,
      "d": 135.41666666667152,
      "v": 82
    },
    {
      "midi": 57,
      "hit": false,
      "t": 93981.77083333336,
      "d": 455.7291666666715,
      "v": 82
    },
    {
      "midi": 60,
      "hit": false,
      "t": 93981.77083333336,
      "d": 619.7916666666715,
      "v": 91
    },
    {
      "midi": 45,
      "hit": false,
      "t": 93984.37500000003,
      "d": 481.7708333333285,
      "v": 70
    },
    {
      "midi": 64,
      "hit": false,
      "t": 93984.37500000003,
      "d": 539.0625,
      "v": 91
    },
    {
      "midi": 43,
      "hit": false,
      "t": 94742.18750000003,
      "d": 976.5625000000146,
      "v": 70
    },
    {
      "midi": 55,
      "hit": false,
      "t": 94744.7916666667,
      "d": 348.9583333333285,
      "v": 78
    },
    {
      "midi": 62,
      "hit": false,
      "t": 94744.7916666667,
      "d": 359.375,
      "v": 82
    },
    {
      "midi": 59,
      "hit": false,
      "t": 94744.7916666667,
      "d": 401.0416666666715,
      "v": 82
    },
    {
      "midi": 36,
      "hit": false,
      "t": 96010.41666666672,
      "d": 539.0625000000146,
      "v": 62
    },
    {
      "midi": 55,
      "hit": false,
      "t": 96015.62500000004,
      "d": 994.7916666666861,
      "v": 70
    },
    {
      "midi": 64,
      "hit": false,
      "t": 96015.62500000004,
      "d": 1078.1250000000146,
      "v": 78
    },
    {
      "midi": 60,
      "hit": false,
      "t": 96018.22916666672,
      "d": 1130.208333333343,
      "v": 74
    },
    {
      "midi": 48,
      "hit": false,
      "t": 96018.22916666672,
      "d": 1716.1458333333285,
      "v": 41
    },
    {
      "midi": 36,
      "hit": false,
      "t": 96750.00000000006,
      "d": 1752.6041666666424,
      "v": 53
    },
    {
      "midi": 55,
      "hit": false,
      "t": 97255.20833333339,
      "d": 114.58333333332848,
      "v": 17
    },
    {
      "midi": 67,
      "hit": false,
      "t": 97500.00000000004,
      "d": 1304.6875,
      "v": 86
    },
    {
      "midi": 59,
      "hit": false,
      "t": 97750.00000000004,
      "d": 861.979166666657,
      "v": 86
    },
    {
      "midi": 62,
      "hit": false,
      "t": 97750.00000000004,
      "d": 893.229166666657,
      "v": 82
    },
    {
      "midi": 55,
      "hit": false,
      "t": 97755.20833333337,
      "d": 828.125,
      "v": 78
    },
    {
      "midi": 48,
      "hit": false,
      "t": 97755.20833333337,
      "d": 1864.583333333343,
      "v": 39
    },
    {
      "midi": 36,
      "hit": false,
      "t": 98747.39583333337,
      "d": 1236.9791666666715,
      "v": 62
    },
    {
      "midi": 72,
      "hit": false,
      "t": 99484.37500000004,
      "d": 85.9375,
      "v": 86
    },
    {
      "midi": 60,
      "hit": false,
      "t": 99744.79166666672,
      "d": 651.041666666657,
      "v": 78
    },
    {
      "midi": 57,
      "hit": false,
      "t": 99744.79166666672,
      "d": 661.4583333333285,
      "v": 82
    },
    {
      "midi": 53,
      "hit": false,
      "t": 99744.79166666672,
      "d": 669.2708333333285,
      "v": 66
    },
    {
      "midi": 41,
      "hit": false,
      "t": 99750.00000000004,
      "d": 403.6458333333285,
      "v": 86
    },
    {
      "midi": 57,
      "hit": false,
      "t": 100744.79166666672,
      "d": 880.2083333333576,
      "v": 78
    },
    {
      "midi": 41,
      "hit": false,
      "t": 100747.39583333339,
      "d": 1007.8125000000146,
      "v": 66
    },
    {
      "midi": 53,
      "hit": false,
      "t": 100750.00000000006,
      "d": 828.1250000000146,
      "v": 66
    },
    {
      "midi": 60,
      "hit": false,
      "t": 100750.00000000006,
      "d": 872.395833333343,
      "v": 70
    },
    {
      "midi": 57,
      "hit": false,
      "t": 101994.79166666673,
      "d": 322.91666666665697,
      "v": 82
    },
    {
      "midi": 60,
      "hit": false,
      "t": 101994.79166666673,
      "d": 403.6458333333285,
      "v": 95
    },
    {
      "midi": 64,
      "hit": false,
      "t": 101994.79166666673,
      "d": 414.0625,
      "v": 86
    },
    {
      "midi": 45,
      "hit": false,
      "t": 101994.79166666673,
      "d": 447.9166666666715,
      "v": 82
    },
    {
      "midi": 55,
      "hit": false,
      "t": 102747.3958333334,
      "d": 317.7083333333285,
      "v": 86
    },
    {
      "midi": 59,
      "hit": false,
      "t": 102747.3958333334,
      "d": 317.7083333333285,
      "v": 82
    },
    {
      "midi": 62,
      "hit": false,
      "t": 102747.3958333334,
      "d": 330.72916666665697,
      "v": 82
    },
    {
      "midi": 43,
      "hit": false,
      "t": 102747.3958333334,
      "d": 382.81249999998545,
      "v": 82
    },
    {
      "midi": 55,
      "hit": false,
      "t": 103494.79166666672,
      "d": 184.89583333334303,
      "v": 86
    },
    {
      "midi": 59,
      "hit": false,
      "t": 103494.79166666672,
      "d": 200.52083333334303,
      "v": 78
    },
    {
      "midi": 64,
      "hit": false,
      "t": 103494.79166666672,
      "d": 216.14583333334303,
      "v": 95
    },
    {
      "midi": 40,
      "hit": false,
      "t": 103494.79166666672,
      "d": 294.27083333334303,
      "v": 70
    },
    {
      "midi": 41,
      "hit": false,
      "t": 104000.00000000006,
      "d": 1179.6875,
      "v": 66
    },
    {
      "midi": 60,
      "hit": false,
      "t": 104000.00000000006,
      "d": 1239.5833333333285,
      "v": 66
    },
    {
      "midi": 53,
      "hit": false,
      "t": 104000.00000000006,
      "d": 1257.8125,
      "v": 70
    },
    {
      "midi": 57,
      "hit": false,
      "t": 104000.00000000006,
      "d": 1257.8125,
      "v": 74
    },
    {
      "midi": 55,
      "hit": false,
      "t": 105992.18750000006,
      "d": 578.1250000000146,
      "v": 44
    },
    {
      "midi": 40,
      "hit": false,
      "t": 105992.18750000006,
      "d": 1796.8750000000146,
      "v": 47
    },
    {
      "midi": 60,
      "hit": false,
      "t": 105994.79166666673,
      "d": 486.9791666666715,
      "v": 62
    },
    {
      "midi": 64,
      "hit": false,
      "t": 105994.79166666673,
      "d": 536.458333333343,
      "v": 59
    },
    {
      "midi": 55,
      "hit": false,
      "t": 106752.60416666674,
      "d": 1096.354166666657,
      "v": 78
    },
    {
      "midi": 60,
      "hit": false,
      "t": 107005.20833333342,
      "d": 294.27083333334303,
      "v": 95
    },
    {
      "midi": 62,
      "hit": false,
      "t": 107260.41666666676,
      "d": 265.625,
      "v": 91
    },
    {
      "midi": 64,
      "hit": false,
      "t": 107497.39583333343,
      "d": 278.64583333331393,
      "v": 91
    },
    {
      "midi": 67,
      "hit": false,
      "t": 107747.39583333342,
      "d": 210.93749999998545,
      "v": 95
    },
    {
      "midi": 67,
      "hit": false,
      "t": 107997.3958333334,
      "d": 1377.604166666686,
      "v": 74
    },
    {
      "midi": 55,
      "hit": false,
      "t": 108000.00000000007,
      "d": 1359.3750000000146,
      "v": 82
    },
    {
      "midi": 60,
      "hit": false,
      "t": 108000.00000000007,
      "d": 1359.3750000000146,
      "v": 86
    },
    {
      "midi": 39,
      "hit": false,
      "t": 108000.00000000007,
      "d": 1476.5625000000146,
      "v": 74
    },
    {
      "midi": 63,
      "hit": false,
      "t": 108002.60416666674,
      "d": 1361.9791666666715,
      "v": 82
    },
    {
      "midi": 57,
      "hit": false,
      "t": 109986.97916666676,
      "d": 492.18750000001455,
      "v": 82
    },
    {
      "midi": 62,
      "hit": false,
      "t": 109986.97916666676,
      "d": 619.7916666666861,
      "v": 70
    },
    {
      "midi": 53,
      "hit": false,
      "t": 109989.58333333343,
      "d": 507.81250000001455,
      "v": 74
    },
    {
      "midi": 38,
      "hit": false,
      "t": 109989.58333333343,
      "d": 541.6666666666861,
      "v": 74
    },
    {
      "midi": 43,
      "hit": false,
      "t": 110739.58333333344,
      "d": 398.4375000000291,
      "v": 78
    },
    {
      "midi": 53,
      "hit": false,
      "t": 110742.18750000012,
      "d": 294.27083333334303,
      "v": 86
    },
    {
      "midi": 60,
      "hit": false,
      "t": 110742.18750000012,
      "d": 351.56250000001455,
      "v": 95
    },
    {
      "midi": 57,
      "hit": false,
      "t": 110742.18750000012,
      "d": 377.60416666668607,
      "v": 91
    },
    {
      "midi": 59,
      "hit": false,
      "t": 111481.77083333347,
      "d": 158.85416666667152,
      "v": 82
    },
    {
      "midi": 55,
      "hit": false,
      "t": 111481.77083333347,
      "d": 161.45833333334303,
      "v": 86
    },
    {
      "midi": 62,
      "hit": false,
      "t": 111481.77083333347,
      "d": 174.47916666667152,
      "v": 91
    },
    {
      "midi": 43,
      "hit": false,
      "t": 111481.77083333347,
      "d": 268.2291666666715,
      "v": 82
    },
    {
      "midi": 64,
      "hit": false,
      "t": 111992.18750000015,
      "d": 1145.833333333314,
      "v": 82
    },
    {
      "midi": 52,
      "hit": false,
      "t": 111994.79166666682,
      "d": 1023.4374999999854,
      "v": 78
    },
    {
      "midi": 55,
      "hit": false,
      "t": 111994.79166666682,
      "d": 1106.770833333314,
      "v": 82
    },
    {
      "midi": 60,
      "hit": false,
      "t": 111994.79166666682,
      "d": 1127.6041666666424,
      "v": 86
    },
    {
      "midi": 36,
      "hit": false,
      "t": 111994.79166666682,
      "d": 2945.3124999999854,
      "v": 62
    },
    {
      "midi": 48,
      "hit": false,
      "t": 112000.00000000015,
      "d": 2518.229166666657,
      "v": 56
    },
    {
      "midi": 67,
      "hit": false,
      "t": 113507.81250000013,
      "d": 1617.1875,
      "v": 86
    },
    {
      "midi": 55,
      "hit": false,
      "t": 113757.81250000013,
      "d": 1307.2916666666715,
      "v": 78
    },
    {
      "midi": 59,
      "hit": false,
      "t": 113757.81250000013,
      "d": 1328.125,
      "v": 82
    },
    {
      "midi": 62,
      "hit": false,
      "t": 113760.4166666668,
      "d": 1325.5208333333285,
      "v": 82
    },
    {
      "midi": 48,
      "hit": false,
      "t": 114747.39583333347,
      "d": 1075.5208333333285,
      "v": 56
    },
    {
      "midi": 36,
      "hit": false,
      "t": 114992.18750000013,
      "d": 1559.895833333343,
      "v": 74
    },
    {
      "midi": 72,
      "hit": false,
      "t": 115513.02083333346,
      "d": 72.91666666667152,
      "v": 82
    },
    {
      "midi": 53,
      "hit": false,
      "t": 116002.6041666668,
      "d": 494.7916666666715,
      "v": 82
    },
    {
      "midi": 57,
      "hit": false,
      "t": 116002.6041666668,
      "d": 494.7916666666715,
      "v": 86
    },
    {
      "midi": 60,
      "hit": false,
      "t": 116002.6041666668,
      "d": 502.6041666666715,
      "v": 86
    },
    {
      "midi": 60,
      "hit": false,
      "t": 116981.77083333347,
      "d": 533.854166666657,
      "v": 86
    },
    {
      "midi": 50,
      "hit": false,
      "t": 116981.77083333347,
      "d": 593.7499999999854,
      "v": 74
    },
    {
      "midi": 55,
      "hit": false,
      "t": 116981.77083333347,
      "d": 619.791666666657,
      "v": 74
    },
    {
      "midi": 43,
      "hit": false,
      "t": 116994.7916666668,
      "d": 697.916666666657,
      "v": 53
    },
    {
      "midi": 59,
      "hit": false,
      "t": 117492.18750000013,
      "d": 132.8125,
      "v": 74
    },
    {
      "midi": 36,
      "hit": false,
      "t": 117989.58333333346,
      "d": 1838.541666666686,
      "v": 39
    },
    {
      "midi": 55,
      "hit": false,
      "t": 117997.39583333346,
      "d": 1585.9375000000146,
      "v": 70
    },
    {
      "midi": 60,
      "hit": false,
      "t": 118000.00000000013,
      "d": 1869.791666666686,
      "v": 78
    },
    {
      "midi": 52,
      "hit": false,
      "t": 118002.6041666668,
      "d": 1354.1666666666715,
      "v": 66
    },
    {
      "midi": 48,
      "hit": false,
      "t": 118731.77083333347,
      "d": 390.625,
      "v": 39
    },
    {
      "midi": 48,
      "hit": false,
      "t": 119265.62500000015,
      "d": 1057.2916666666715,
      "v": 34
    },
    {
      "midi": 52,
      "hit": false,
      "t": 119513.02083333347,
      "d": 791.6666666666715,
      "v": 49
    },
    {
      "midi": 55,
      "hit": false,
      "t": 119755.20833333347,
      "d": 638.020833333343,
      "v": 32
    },
    {
      "midi": 60,
      "hit": false,
      "t": 120000.00000000015,
      "d": 427.08333333334303,
      "v": 62
    },
    {
      "midi": 36,
      "hit": false,
      "t": 120002.60416666682,
      "d": 1807.2916666666715,
      "v": 17
    },
    {
      "midi": 55,
      "hit": false,
      "t": 120744.79166666682,
      "d": 1002.6041666666715,
      "v": 59
    },
    {
      "midi": 60,
      "hit": false,
      "t": 121005.20833333349,
      "d": 260.41666666665697,
      "v": 91
    },
    {
      "midi": 48,
      "hit": false,
      "t": 121010.41666666682,
      "d": 763.020833333343,
      "v": 23
    },
    {
      "midi": 62,
      "hit": false,
      "t": 121252.60416666682,
      "d": 281.25,
      "v": 91
    },
    {
      "midi": 64,
      "hit": false,
      "t": 121507.81250000015,
      "d": 236.97916666667152,
      "v": 86
    },
    {
      "midi": 57,
      "hit": false,
      "t": 122000.00000000016,
      "d": 1020.8333333333285,
      "v": 91
    },
    {
      "midi": 60,
      "hit": false,
      "t": 122000.00000000016,
      "d": 1031.25,
      "v": 91
    },
    {
      "midi": 65,
      "hit": false,
      "t": 122000.00000000016,
      "d": 1036.4583333333285,
      "v": 91
    },
    {
      "midi": 41,
      "hit": false,
      "t": 122000.00000000016,
      "d": 1796.875,
      "v": 91
    },
    {
      "midi": 53,
      "hit": false,
      "t": 122000.00000000016,
      "d": 1799.4791666666715,
      "v": 91
    },
    {
      "midi": 57,
      "hit": false,
      "t": 123497.39583333349,
      "d": 130.20833333332848,
      "v": 88
    },
    {
      "midi": 65,
      "hit": false,
      "t": 123497.39583333349,
      "d": 164.0625,
      "v": 88
    },
    {
      "midi": 60,
      "hit": false,
      "t": 123497.39583333349,
      "d": 166.66666666667152,
      "v": 88
    },
    {
      "midi": 43,
      "hit": false,
      "t": 123750.00000000016,
      "d": 1585.9375000000146,
      "v": 82
    },
    {
      "midi": 55,
      "hit": false,
      "t": 123752.60416666683,
      "d": 786.458333333343,
      "v": 83
    },
    {
      "midi": 59,
      "hit": false,
      "t": 123752.60416666683,
      "d": 817.708333333343,
      "v": 83
    },
    {
      "midi": 62,
      "hit": false,
      "t": 123752.60416666683,
      "d": 843.7500000000146,
      "v": 83
    },
    {
      "midi": 67,
      "hit": false,
      "t": 124903.64583333352,
      "d": 356.7708333333285,
      "v": 88
    },
    {
      "midi": 55,
      "hit": false,
      "t": 125247.39583333352,
      "d": 122.39583333332848,
      "v": 74
    },
    {
      "midi": 59,
      "hit": false,
      "t": 125497.39583333352,
      "d": 187.5,
      "v": 63
    },
    {
      "midi": 62,
      "hit": false,
      "t": 125497.39583333352,
      "d": 205.72916666667152,
      "v": 88
    },
    {
      "midi": 55,
      "hit": false,
      "t": 125505.20833333352,
      "d": 54.6875,
      "v": 66
    },
    {
      "midi": 55,
      "hit": false,
      "t": 125750.00000000019,
      "d": 442.70833333334303,
      "v": 96
    },
    {
      "midi": 52,
      "hit": false,
      "t": 125750.00000000019,
      "d": 489.58333333334303,
      "v": 84
    },
    {
      "midi": 48,
      "hit": false,
      "t": 125750.00000000019,
      "d": 1604.1666666666715,
      "v": 96
    },
    {
      "midi": 60,
      "hit": false,
      "t": 125752.60416666686,
      "d": 447.9166666666715,
      "v": 87
    },
    {
      "midi": 60,
      "hit": false,
      "t": 126736.97916666686,
      "d": 182.29166666667152,
      "v": 66
    },
    {
      "midi": 52,
      "hit": false,
      "t": 126739.58333333353,
      "d": 127.60416666667152,
      "v": 57
    },
    {
      "midi": 55,
      "hit": false,
      "t": 126742.1875000002,
      "d": 111.97916666667152,
      "v": 66
    },
    {
      "midi": 55,
      "hit": false,
      "t": 127502.60416666686,
      "d": 145.83333333334303,
      "v": 92
    },
    {
      "midi": 60,
      "hit": false,
      "t": 127505.20833333353,
      "d": 151.04166666667152,
      "v": 96
    },
    {
      "midi": 64,
      "hit": false,
      "t": 127505.20833333353,
      "d": 187.5,
      "v": 92
    },
    {
      "midi": 41,
      "hit": false,
      "t": 127750.0000000002,
      "d": 1617.1875,
      "v": 88
    },
    {
      "midi": 53,
      "hit": false,
      "t": 127752.60416666688,
      "d": 583.3333333333285,
      "v": 72
    },
    {
      "midi": 57,
      "hit": false,
      "t": 127752.60416666688,
      "d": 682.291666666657,
      "v": 84
    },
    {
      "midi": 60,
      "hit": false,
      "t": 127752.60416666688,
      "d": 765.6249999999854,
      "v": 92
    },
    {
      "midi": 65,
      "hit": false,
      "t": 127752.60416666688,
      "d": 1656.25,
      "v": 92
    },
    {
      "midi": 53,
      "hit": false,
      "t": 128502.60416666686,
      "d": 65.10416666667152,
      "v": 58
    },
    {
      "midi": 53,
      "hit": false,
      "t": 128744.79166666686,
      "d": 273.4375,
      "v": 55
    },
    {
      "midi": 48,
      "hit": false,
      "t": 129007.81250000019,
      "d": 177.08333333334303,
      "v": 51
    },
    {
      "midi": 53,
      "hit": false,
      "t": 129263.02083333353,
      "d": 62.5,
      "v": 49
    },
    {
      "midi": 62,
      "hit": false,
      "t": 129994.79166666688,
      "d": 502.60416666665697,
      "v": 92
    },
    {
      "midi": 53,
      "hit": false,
      "t": 129994.79166666688,
      "d": 520.8333333333285,
      "v": 76
    },
    {
      "midi": 57,
      "hit": false,
      "t": 129994.79166666688,
      "d": 520.8333333333285,
      "v": 84
    },
    {
      "midi": 50,
      "hit": false,
      "t": 129994.79166666688,
      "d": 1690.1041666667006,
      "v": 59
    },
    {
      "midi": 38,
      "hit": false,
      "t": 129994.79166666688,
      "d": 1765.6250000000146,
      "v": 88
    },
    {
      "midi": 62,
      "hit": false,
      "t": 130739.58333333353,
      "d": 197.91666666667152,
      "v": 76
    },
    {
      "midi": 57,
      "hit": false,
      "t": 130739.58333333353,
      "d": 208.33333333334303,
      "v": 59
    },
    {
      "midi": 53,
      "hit": false,
      "t": 130739.58333333353,
      "d": 250.00000000001455,
      "v": 54
    },
    {
      "midi": 62,
      "hit": false,
      "t": 131244.7916666669,
      "d": 505.20833333334303,
      "v": 105
    },
    {
      "midi": 55,
      "hit": false,
      "t": 131750.00000000023,
      "d": 1018.229166666657,
      "v": 80
    },
    {
      "midi": 59,
      "hit": false,
      "t": 131750.00000000023,
      "d": 1111.979166666657,
      "v": 92
    },
    {
      "midi": 62,
      "hit": false,
      "t": 131750.00000000023,
      "d": 1125,
      "v": 73
    },
    {
      "midi": 43,
      "hit": false,
      "t": 131750.00000000023,
      "d": 1632.8125,
      "v": 96
    },
    {
      "midi": 55,
      "hit": false,
      "t": 132976.56250000023,
      "d": 169.27083333334303,
      "v": 92
    },
    {
      "midi": 59,
      "hit": false,
      "t": 132979.1666666669,
      "d": 161.45833333334303,
      "v": 93
    },
    {
      "midi": 62,
      "hit": false,
      "t": 132979.1666666669,
      "d": 171.8750000000291,
      "v": 93
    },
    {
      "midi": 53,
      "hit": false,
      "t": 133252.60416666692,
      "d": 354.16666666665697,
      "v": 98
    },
    {
      "midi": 57,
      "hit": false,
      "t": 133252.60416666692,
      "d": 356.77083333331393,
      "v": 98
    },
    {
      "midi": 60,
      "hit": false,
      "t": 133252.60416666692,
      "d": 380.20833333331393,
      "v": 98
    },
    {
      "midi": 55,
      "hit": false,
      "t": 134002.6041666669,
      "d": 518.2291666666861,
      "v": 101
    },
    {
      "midi": 60,
      "hit": false,
      "t": 134002.6041666669,
      "d": 544.270833333343,
      "v": 105
    },
    {
      "midi": 64,
      "hit": false,
      "t": 134002.6041666669,
      "d": 562.5,
      "v": 96
    },
    {
      "midi": 48,
      "hit": false,
      "t": 134002.6041666669,
      "d": 934.895833333343,
      "v": 101
    },
    {
      "midi": 55,
      "hit": false,
      "t": 134747.39583333355,
      "d": 122.39583333334303,
      "v": 80
    },
    {
      "midi": 64,
      "hit": false,
      "t": 134747.39583333355,
      "d": 151.04166666668607,
      "v": 96
    },
    {
      "midi": 60,
      "hit": false,
      "t": 134747.39583333355,
      "d": 174.47916666668607,
      "v": 88
    },
    {
      "midi": 36,
      "hit": false,
      "t": 134747.39583333355,
      "d": 184.89583333334303,
      "v": 76
    },
    {
      "midi": 39,
      "hit": false,
      "t": 134760.4166666669,
      "d": 88.54166666665697,
      "v": 30
    },
    {
      "midi": 53,
      "hit": false,
      "t": 135250.00000000023,
      "d": 268.22916666665697,
      "v": 88
    },
    {
      "midi": 62,
      "hit": false,
      "t": 135252.6041666669,
      "d": 278.64583333334303,
      "v": 104
    },
    {
      "midi": 57,
      "hit": false,
      "t": 135252.6041666669,
      "d": 291.66666666668607,
      "v": 104
    },
    {
      "midi": 38,
      "hit": false,
      "t": 135252.6041666669,
      "d": 307.29166666668607,
      "v": 104
    },
    {
      "midi": 50,
      "hit": false,
      "t": 135252.6041666669,
      "d": 312.5000000000291,
      "v": 104
    },
    {
      "midi": 40,
      "hit": false,
      "t": 135750.00000000026,
      "d": 1190.104166666657,
      "v": 88
    },
    {
      "midi": 55,
      "hit": false,
      "t": 135752.60416666692,
      "d": 500,
      "v": 107
    },
    {
      "midi": 64,
      "hit": false,
      "t": 135752.60416666692,
      "d": 671.875,
      "v": 107
    },
    {
      "midi": 60,
      "hit": false,
      "t": 135752.60416666692,
      "d": 679.6875,
      "v": 107
    },
    {
      "midi": 52,
      "hit": false,
      "t": 135752.60416666692,
      "d": 1677.083333333314,
      "v": 107
    },
    {
      "midi": 55,
      "hit": false,
      "t": 136744.79166666692,
      "d": 268.22916666665697,
      "v": 76
    },
    {
      "midi": 60,
      "hit": false,
      "t": 136744.79166666692,
      "d": 643.229166666657,
      "v": 92
    },
    {
      "midi": 64,
      "hit": false,
      "t": 136744.79166666692,
      "d": 940.104166666657,
      "v": 96
    },
    {
      "midi": 55,
      "hit": false,
      "t": 137244.79166666692,
      "d": 390.625,
      "v": 72
    },
    {
      "midi": 40,
      "hit": false,
      "t": 137497.39583333358,
      "d": 210.9375,
      "v": 96
    },
    {
      "midi": 57,
      "hit": false,
      "t": 138000.00000000023,
      "d": 1020.833333333343,
      "v": 101
    },
    {
      "midi": 60,
      "hit": false,
      "t": 138000.00000000023,
      "d": 1031.25,
      "v": 101
    },
    {
      "midi": 65,
      "hit": false,
      "t": 138000.00000000023,
      "d": 1036.458333333343,
      "v": 101
    },
    {
      "midi": 41,
      "hit": false,
      "t": 138000.00000000023,
      "d": 1796.875,
      "v": 101
    },
    {
      "midi": 53,
      "hit": false,
      "t": 138000.00000000023,
      "d": 1799.479166666657,
      "v": 101
    },
    {
      "midi": 57,
      "hit": false,
      "t": 139497.39583333358,
      "d": 130.20833333334303,
      "v": 98
    },
    {
      "midi": 65,
      "hit": false,
      "t": 139497.39583333358,
      "d": 164.0625,
      "v": 98
    },
    {
      "midi": 60,
      "hit": false,
      "t": 139497.39583333358,
      "d": 166.66666666665697,
      "v": 98
    },
    {
      "midi": 43,
      "hit": false,
      "t": 139750.00000000023,
      "d": 1585.937499999971,
      "v": 92
    },
    {
      "midi": 55,
      "hit": false,
      "t": 139752.6041666669,
      "d": 786.4583333333139,
      "v": 93
    },
    {
      "midi": 59,
      "hit": false,
      "t": 139752.6041666669,
      "d": 817.7083333333139,
      "v": 93
    },
    {
      "midi": 62,
      "hit": false,
      "t": 139752.6041666669,
      "d": 843.7499999999709,
      "v": 93
    },
    {
      "midi": 67,
      "hit": false,
      "t": 140903.64583333352,
      "d": 356.77083333334303,
      "v": 88
    },
    {
      "midi": 55,
      "hit": false,
      "t": 141247.39583333352,
      "d": 122.39583333334303,
      "v": 74
    },
    {
      "midi": 59,
      "hit": false,
      "t": 141497.39583333352,
      "d": 187.5,
      "v": 63
    },
    {
      "midi": 62,
      "hit": false,
      "t": 141497.39583333352,
      "d": 205.72916666665697,
      "v": 88
    },
    {
      "midi": 55,
      "hit": false,
      "t": 141505.20833333352,
      "d": 54.6875,
      "v": 66
    },
    {
      "midi": 55,
      "hit": false,
      "t": 141750.00000000017,
      "d": 442.70833333331393,
      "v": 96
    },
    {
      "midi": 52,
      "hit": false,
      "t": 141750.00000000017,
      "d": 489.58333333331393,
      "v": 84
    },
    {
      "midi": 48,
      "hit": false,
      "t": 141750.00000000017,
      "d": 1604.166666666657,
      "v": 96
    },
    {
      "midi": 60,
      "hit": false,
      "t": 141752.60416666683,
      "d": 447.91666666665697,
      "v": 87
    },
    {
      "midi": 60,
      "hit": false,
      "t": 142736.97916666683,
      "d": 182.29166666665697,
      "v": 66
    },
    {
      "midi": 52,
      "hit": false,
      "t": 142739.5833333335,
      "d": 127.60416666665697,
      "v": 57
    },
    {
      "midi": 55,
      "hit": false,
      "t": 142742.18750000015,
      "d": 111.97916666665697,
      "v": 66
    },
    {
      "midi": 55,
      "hit": false,
      "t": 143502.60416666683,
      "d": 145.83333333331393,
      "v": 92
    },
    {
      "midi": 60,
      "hit": false,
      "t": 143505.2083333335,
      "d": 151.04166666665697,
      "v": 96
    },
    {
      "midi": 64,
      "hit": false,
      "t": 143505.2083333335,
      "d": 187.5,
      "v": 92
    },
    {
      "midi": 41,
      "hit": false,
      "t": 143750.00000000015,
      "d": 1617.1875,
      "v": 88
    },
    {
      "midi": 53,
      "hit": false,
      "t": 143752.6041666668,
      "d": 583.333333333343,
      "v": 72
    },
    {
      "midi": 57,
      "hit": false,
      "t": 143752.6041666668,
      "d": 682.2916666666861,
      "v": 84
    },
    {
      "midi": 60,
      "hit": false,
      "t": 143752.6041666668,
      "d": 765.6250000000291,
      "v": 92
    },
    {
      "midi": 65,
      "hit": false,
      "t": 143752.6041666668,
      "d": 1656.25,
      "v": 92
    },
    {
      "midi": 53,
      "hit": false,
      "t": 144502.60416666683,
      "d": 65.10416666665697,
      "v": 58
    },
    {
      "midi": 53,
      "hit": false,
      "t": 144744.79166666683,
      "d": 273.4375,
      "v": 55
    },
    {
      "midi": 48,
      "hit": false,
      "t": 145007.81250000017,
      "d": 177.08333333331393,
      "v": 51
    },
    {
      "midi": 53,
      "hit": false,
      "t": 145263.0208333335,
      "d": 62.5,
      "v": 49
    },
    {
      "midi": 62,
      "hit": false,
      "t": 145994.7916666668,
      "d": 502.60416666668607,
      "v": 92
    },
    {
      "midi": 53,
      "hit": false,
      "t": 145994.7916666668,
      "d": 520.833333333343,
      "v": 76
    },
    {
      "midi": 57,
      "hit": false,
      "t": 145994.7916666668,
      "d": 520.833333333343,
      "v": 84
    },
    {
      "midi": 50,
      "hit": false,
      "t": 145994.7916666668,
      "d": 1690.104166666686,
      "v": 59
    },
    {
      "midi": 38,
      "hit": false,
      "t": 145994.7916666668,
      "d": 1765.625,
      "v": 88
    },
    {
      "midi": 62,
      "hit": false,
      "t": 146739.5833333335,
      "d": 197.91666666665697,
      "v": 76
    },
    {
      "midi": 57,
      "hit": false,
      "t": 146739.5833333335,
      "d": 208.33333333331393,
      "v": 59
    },
    {
      "midi": 53,
      "hit": false,
      "t": 146739.5833333335,
      "d": 249.9999999999709,
      "v": 54
    },
    {
      "midi": 62,
      "hit": false,
      "t": 147244.7916666668,
      "d": 505.20833333334303,
      "v": 105
    },
    {
      "midi": 55,
      "hit": false,
      "t": 147750.00000000015,
      "d": 1018.229166666657,
      "v": 80
    },
    {
      "midi": 59,
      "hit": false,
      "t": 147750.00000000015,
      "d": 1111.979166666657,
      "v": 92
    },
    {
      "midi": 62,
      "hit": false,
      "t": 147750.00000000015,
      "d": 1125,
      "v": 73
    },
    {
      "midi": 43,
      "hit": false,
      "t": 147750.00000000015,
      "d": 1632.8125,
      "v": 96
    },
    {
      "midi": 55,
      "hit": false,
      "t": 148976.56250000015,
      "d": 169.27083333334303,
      "v": 92
    },
    {
      "midi": 59,
      "hit": false,
      "t": 148979.1666666668,
      "d": 161.45833333334303,
      "v": 93
    },
    {
      "midi": 62,
      "hit": false,
      "t": 148979.1666666668,
      "d": 171.8750000000291,
      "v": 93
    },
    {
      "midi": 53,
      "hit": false,
      "t": 149252.60416666683,
      "d": 354.16666666665697,
      "v": 98
    },
    {
      "midi": 57,
      "hit": false,
      "t": 149252.60416666683,
      "d": 356.77083333331393,
      "v": 98
    },
    {
      "midi": 60,
      "hit": false,
      "t": 149252.60416666683,
      "d": 380.20833333331393,
      "v": 98
    },
    {
      "midi": 55,
      "hit": false,
      "t": 150002.6041666668,
      "d": 518.2291666666861,
      "v": 101
    },
    {
      "midi": 60,
      "hit": false,
      "t": 150002.6041666668,
      "d": 544.270833333343,
      "v": 105
    },
    {
      "midi": 64,
      "hit": false,
      "t": 150002.6041666668,
      "d": 562.5,
      "v": 96
    },
    {
      "midi": 48,
      "hit": false,
      "t": 150002.6041666668,
      "d": 934.895833333343,
      "v": 101
    },
    {
      "midi": 55,
      "hit": false,
      "t": 150747.39583333346,
      "d": 122.39583333334303,
      "v": 80
    },
    {
      "midi": 64,
      "hit": false,
      "t": 150747.39583333346,
      "d": 151.04166666668607,
      "v": 96
    },
    {
      "midi": 60,
      "hit": false,
      "t": 150747.39583333346,
      "d": 174.47916666668607,
      "v": 88
    },
    {
      "midi": 36,
      "hit": false,
      "t": 150747.39583333346,
      "d": 184.89583333334303,
      "v": 76
    },
    {
      "midi": 39,
      "hit": false,
      "t": 150760.4166666668,
      "d": 88.54166666665697,
      "v": 30
    },
    {
      "midi": 53,
      "hit": false,
      "t": 151250.00000000015,
      "d": 268.22916666665697,
      "v": 88
    },
    {
      "midi": 62,
      "hit": false,
      "t": 151252.6041666668,
      "d": 278.64583333334303,
      "v": 104
    },
    {
      "midi": 57,
      "hit": false,
      "t": 151252.6041666668,
      "d": 291.66666666668607,
      "v": 104
    },
    {
      "midi": 38,
      "hit": false,
      "t": 151252.6041666668,
      "d": 307.29166666668607,
      "v": 104
    },
    {
      "midi": 50,
      "hit": false,
      "t": 151252.6041666668,
      "d": 312.5000000000291,
      "v": 104
    },
    {
      "midi": 40,
      "hit": false,
      "t": 151750.00000000017,
      "d": 1190.104166666657,
      "v": 88
    },
    {
      "midi": 55,
      "hit": false,
      "t": 151752.60416666683,
      "d": 500,
      "v": 107
    },
    {
      "midi": 64,
      "hit": false,
      "t": 151752.60416666683,
      "d": 671.875,
      "v": 107
    },
    {
      "midi": 60,
      "hit": false,
      "t": 151752.60416666683,
      "d": 679.6875,
      "v": 107
    },
    {
      "midi": 52,
      "hit": false,
      "t": 151752.60416666683,
      "d": 1677.083333333314,
      "v": 107
    },
    {
      "midi": 55,
      "hit": false,
      "t": 152744.79166666683,
      "d": 268.22916666665697,
      "v": 76
    },
    {
      "midi": 60,
      "hit": false,
      "t": 152744.79166666683,
      "d": 643.229166666657,
      "v": 92
    },
    {
      "midi": 64,
      "hit": false,
      "t": 152744.79166666683,
      "d": 940.104166666657,
      "v": 96
    },
    {
      "midi": 55,
      "hit": false,
      "t": 153244.79166666683,
      "d": 390.625,
      "v": 72
    },
    {
      "midi": 40,
      "hit": false,
      "t": 153497.3958333335,
      "d": 210.9375,
      "v": 96
    },
    {
      "midi": 57,
      "hit": false,
      "t": 154000.00000000015,
      "d": 1020.833333333343,
      "v": 96
    },
    {
      "midi": 60,
      "hit": false,
      "t": 154000.00000000015,
      "d": 1031.25,
      "v": 96
    },
    {
      "midi": 65,
      "hit": false,
      "t": 154000.00000000015,
      "d": 1036.458333333343,
      "v": 96
    },
    {
      "midi": 41,
      "hit": false,
      "t": 154000.00000000015,
      "d": 1796.875,
      "v": 96
    },
    {
      "midi": 53,
      "hit": false,
      "t": 154000.00000000015,
      "d": 1799.479166666657,
      "v": 96
    },
    {
      "midi": 57,
      "hit": false,
      "t": 155497.3958333335,
      "d": 130.20833333334303,
      "v": 93
    },
    {
      "midi": 65,
      "hit": false,
      "t": 155497.3958333335,
      "d": 164.0625,
      "v": 93
    },
    {
      "midi": 60,
      "hit": false,
      "t": 155497.3958333335,
      "d": 166.66666666665697,
      "v": 93
    },
    {
      "midi": 43,
      "hit": false,
      "t": 155750.00000000015,
      "d": 1585.937499999971,
      "v": 87
    },
    {
      "midi": 55,
      "hit": false,
      "t": 155752.6041666668,
      "d": 786.4583333333139,
      "v": 88
    },
    {
      "midi": 59,
      "hit": false,
      "t": 155752.6041666668,
      "d": 817.7083333333139,
      "v": 88
    },
    {
      "midi": 62,
      "hit": false,
      "t": 155752.6041666668,
      "d": 843.7499999999709,
      "v": 88
    },
    {
      "midi": 67,
      "hit": false,
      "t": 156903.64583333343,
      "d": 356.77083333334303,
      "v": 83
    },
    {
      "midi": 55,
      "hit": false,
      "t": 157247.39583333343,
      "d": 122.39583333334303,
      "v": 69
    },
    {
      "midi": 59,
      "hit": false,
      "t": 157497.39583333343,
      "d": 187.5,
      "v": 58
    },
    {
      "midi": 62,
      "hit": false,
      "t": 157497.39583333343,
      "d": 205.72916666665697,
      "v": 83
    },
    {
      "midi": 55,
      "hit": false,
      "t": 157505.20833333343,
      "d": 54.6875,
      "v": 61
    },
    {
      "midi": 48,
      "hit": false,
      "t": 157750.0000000001,
      "d": 247.39583333331393,
      "v": 91
    },
    {
      "midi": 55,
      "hit": false,
      "t": 157750.0000000001,
      "d": 442.70833333331393,
      "v": 91
    },
    {
      "midi": 52,
      "hit": false,
      "t": 157750.0000000001,
      "d": 489.58333333331393,
      "v": 79
    },
    {
      "midi": 60,
      "hit": false,
      "t": 157752.60416666674,
      "d": 447.91666666665697,
      "v": 82
    },
    {
      "midi": 48,
      "hit": false,
      "t": 158000.00000000006,
      "d": 250,
      "v": 61
    },
    {
      "midi": 67,
      "hit": false,
      "t": 159507.81250000006,
      "d": 1617.187499999971,
      "v": 91
    },
    {
      "midi": 55,
      "hit": false,
      "t": 159757.81250000006,
      "d": 1307.2916666666279,
      "v": 83
    },
    {
      "midi": 59,
      "hit": false,
      "t": 159757.81250000006,
      "d": 1328.124999999971,
      "v": 87
    },
    {
      "midi": 62,
      "hit": false,
      "t": 159760.41666666672,
      "d": 1325.520833333314,
      "v": 87
    },
    {
      "midi": 48,
      "hit": false,
      "t": 160747.39583333337,
      "d": 1075.520833333314,
      "v": 61
    },
    {
      "midi": 36,
      "hit": false,
      "t": 160992.18750000003,
      "d": 1559.895833333314,
      "v": 79
    },
    {
      "midi": 72,
      "hit": false,
      "t": 161513.02083333337,
      "d": 72.91666666665697,
      "v": 87
    },
    {
      "midi": 53,
      "hit": false,
      "t": 162002.6041666667,
      "d": 494.79166666665697,
      "v": 87
    },
    {
      "midi": 57,
      "hit": false,
      "t": 162002.6041666667,
      "d": 494.79166666665697,
      "v": 91
    },
    {
      "midi": 60,
      "hit": false,
      "t": 162002.6041666667,
      "d": 502.60416666665697,
      "v": 91
    },
    {
      "midi": 60,
      "hit": false,
      "t": 162981.77083333334,
      "d": 533.8541666666861,
      "v": 91
    },
    {
      "midi": 50,
      "hit": false,
      "t": 162981.77083333334,
      "d": 593.7500000000291,
      "v": 79
    },
    {
      "midi": 55,
      "hit": false,
      "t": 162981.77083333334,
      "d": 619.7916666666861,
      "v": 79
    },
    {
      "midi": 43,
      "hit": false,
      "t": 162994.7916666667,
      "d": 697.9166666666861,
      "v": 58
    },
    {
      "midi": 59,
      "hit": false,
      "t": 163492.18750000003,
      "d": 132.8125,
      "v": 79
    },
    {
      "midi": 64,
      "hit": false,
      "t": 164005.20833333337,
      "d": 1268.229166666657,
      "v": 82
    },
    {
      "midi": 36,
      "hit": false,
      "t": 164007.81250000003,
      "d": 593.75,
      "v": 82
    },
    {
      "midi": 60,
      "hit": false,
      "t": 164007.81250000003,
      "d": 1307.291666666657,
      "v": 82
    },
    {
      "midi": 55,
      "hit": false,
      "t": 164007.81250000003,
      "d": 1447.916666666657,
      "v": 74
    },
    {
      "midi": 48,
      "hit": false,
      "t": 164007.81250000003,
      "d": 2242.1875,
      "v": 66
    }
  ]
}