{
  "jsonPath": "Rock/Folk Rock/Laura Nyro/time-and-love.json",
  "path": "Rock\\Folk Rock\\Laura Nyro\\Time And Love.mid",
  "name": "Time And Love",
  "difficulty": "Advanced",
  "bpm": 120,
  "notes": [
    {
      "midi": 36,
      "hit": false,
      "t": 688.5416666666666,
      "d": 406.2500000000001,
      "v": 102
    },
    {
      "midi": 48,
      "hit": false,
      "t": 698.4375,
      "d": 371.35416666666674,
      "v": 113
    },
    {
      "midi": 55,
      "hit": false,
      "t": 1104.6875,
      "d": 459.8958333333337,
      "v": 103
    },
    {
      "midi": 59,
      "hit": false,
      "t": 1105.7291666666667,
      "d": 553.6458333333335,
      "v": 103
    },
    {
      "midi": 62,
      "hit": false,
      "t": 1106.7708333333335,
      "d": 531.7708333333335,
      "v": 106
    },
    {
      "midi": 33,
      "hit": false,
      "t": 1469.791666666667,
      "d": 519.7916666666665,
      "v": 101
    },
    {
      "midi": 55,
      "hit": false,
      "t": 1724.479166666667,
      "d": 184.89583333333326,
      "v": 79
    },
    {
      "midi": 59,
      "hit": false,
      "t": 1834.3750000000002,
      "d": 109.375,
      "v": 89
    },
    {
      "midi": 62,
      "hit": false,
      "t": 1839.5833333333335,
      "d": 118.75,
      "v": 92
    },
    {
      "midi": 57,
      "hit": false,
      "t": 2029.6875000000002,
      "d": 415.10416666666674,
      "v": 91
    },
    {
      "midi": 53,
      "hit": false,
      "t": 2034.3750000000002,
      "d": 260.41666666666674,
      "v": 91
    },
    {
      "midi": 60,
      "hit": false,
      "t": 2044.791666666667,
      "d": 400,
      "v": 100
    },
    {
      "midi": 38,
      "hit": false,
      "t": 2189.5833333333335,
      "d": 359.8958333333335,
      "v": 86
    },
    {
      "midi": 53,
      "hit": false,
      "t": 2424.479166666667,
      "d": 220.3125,
      "v": 64
    },
    {
      "midi": 57,
      "hit": false,
      "t": 2554.6875000000005,
      "d": 204.68749999999955,
      "v": 109
    },
    {
      "midi": 60,
      "hit": false,
      "t": 2559.3750000000005,
      "d": 169.27083333333303,
      "v": 107
    },
    {
      "midi": 53,
      "hit": false,
      "t": 2779.6875,
      "d": 218.74999999999955,
      "v": 39
    },
    {
      "midi": 38,
      "hit": false,
      "t": 2798.4375,
      "d": 89.0625,
      "v": 53
    },
    {
      "midi": 57,
      "hit": false,
      "t": 2888.5416666666665,
      "d": 176.04166666666606,
      "v": 80
    },
    {
      "midi": 60,
      "hit": false,
      "t": 2897.395833333333,
      "d": 166.14583333333303,
      "v": 81
    },
    {
      "midi": 31,
      "hit": false,
      "t": 2908.333333333333,
      "d": 570.3124999999995,
      "v": 75
    },
    {
      "midi": 59,
      "hit": false,
      "t": 3123.437499999999,
      "d": 209.89583333333348,
      "v": 100
    },
    {
      "midi": 55,
      "hit": false,
      "t": 3128.6458333333326,
      "d": 175,
      "v": 101
    },
    {
      "midi": 62,
      "hit": false,
      "t": 3133.3333333333326,
      "d": 210.41666666666697,
      "v": 103
    },
    {
      "midi": 43,
      "hit": false,
      "t": 3253.6458333333326,
      "d": 234.89583333333348,
      "v": 75
    },
    {
      "midi": 59,
      "hit": false,
      "t": 3468.7499999999995,
      "d": 429.68749999999955,
      "v": 94
    },
    {
      "midi": 38,
      "hit": false,
      "t": 3469.791666666666,
      "d": 88.54166666666652,
      "v": 54
    },
    {
      "midi": 62,
      "hit": false,
      "t": 3473.4374999999995,
      "d": 369.27083333333303,
      "v": 94
    },
    {
      "midi": 55,
      "hit": false,
      "t": 3474.479166666666,
      "d": 373.95833333333303,
      "v": 90
    },
    {
      "midi": 36,
      "hit": false,
      "t": 3598.437499999999,
      "d": 384.8958333333335,
      "v": 86
    },
    {
      "midi": 62,
      "hit": false,
      "t": 3993.749999999999,
      "d": 501.0416666666679,
      "v": 107
    },
    {
      "midi": 55,
      "hit": false,
      "t": 3994.7916666666656,
      "d": 383.8541666666674,
      "v": 104
    },
    {
      "midi": 59,
      "hit": false,
      "t": 3998.437499999999,
      "d": 495.3125000000009,
      "v": 106
    },
    {
      "midi": 40,
      "hit": false,
      "t": 4203.645833333332,
      "d": 104.6875,
      "v": 53
    },
    {
      "midi": 33,
      "hit": false,
      "t": 4338.541666666666,
      "d": 615.1041666666688,
      "v": 90
    },
    {
      "midi": 55,
      "hit": false,
      "t": 4583.333333333334,
      "d": 220.3125,
      "v": 84
    },
    {
      "midi": 59,
      "hit": false,
      "t": 4708.333333333334,
      "d": 160.41666666666697,
      "v": 100
    },
    {
      "midi": 62,
      "hit": false,
      "t": 4718.750000000001,
      "d": 139.58333333333303,
      "v": 103
    },
    {
      "midi": 40,
      "hit": false,
      "t": 4908.333333333334,
      "d": 105.20833333333394,
      "v": 54
    },
    {
      "midi": 53,
      "hit": false,
      "t": 4918.750000000001,
      "d": 250,
      "v": 94
    },
    {
      "midi": 57,
      "hit": false,
      "t": 4919.791666666668,
      "d": 393.7499999999991,
      "v": 88
    },
    {
      "midi": 60,
      "hit": false,
      "t": 4928.645833333335,
      "d": 379.6874999999991,
      "v": 100
    },
    {
      "midi": 38,
      "hit": false,
      "t": 5053.645833333334,
      "d": 354.6874999999991,
      "v": 82
    },
    {
      "midi": 53,
      "hit": false,
      "t": 5293.750000000001,
      "d": 264.5833333333321,
      "v": 82
    },
    {
      "midi": 57,
      "hit": false,
      "t": 5428.645833333333,
      "d": 179.6875,
      "v": 105
    },
    {
      "midi": 60,
      "hit": false,
      "t": 5429.6875,
      "d": 168.75,
      "v": 107
    },
    {
      "midi": 53,
      "hit": false,
      "t": 5633.333333333333,
      "d": 250,
      "v": 44
    },
    {
      "midi": 38,
      "hit": false,
      "t": 5653.645833333333,
      "d": 94.79166666666697,
      "v": 50
    },
    {
      "midi": 57,
      "hit": false,
      "t": 5733.333333333333,
      "d": 205.20833333333303,
      "v": 86
    },
    {
      "midi": 60,
      "hit": false,
      "t": 5743.75,
      "d": 189.58333333333303,
      "v": 84
    },
    {
      "midi": 31,
      "hit": false,
      "t": 5758.333333333333,
      "d": 520.3125,
      "v": 79
    },
    {
      "midi": 53,
      "hit": false,
      "t": 5978.645833333333,
      "d": 150,
      "v": 92
    },
    {
      "midi": 62,
      "hit": false,
      "t": 5983.333333333333,
      "d": 195.3125,
      "v": 100
    },
    {
      "midi": 59,
      "hit": false,
      "t": 5984.375,
      "d": 179.16666666666606,
      "v": 94
    },
    {
      "midi": 43,
      "hit": false,
      "t": 6098.4375,
      "d": 249.9999999999991,
      "v": 86
    },
    {
      "midi": 38,
      "hit": false,
      "t": 6308.333333333333,
      "d": 105.20833333333303,
      "v": 68
    },
    {
      "midi": 62,
      "hit": false,
      "t": 6313.541666666666,
      "d": 390.10416666666606,
      "v": 92
    },
    {
      "midi": 59,
      "hit": false,
      "t": 6318.749999999999,
      "d": 400,
      "v": 93
    },
    {
      "midi": 55,
      "hit": false,
      "t": 6328.645833333332,
      "d": 369.79166666666697,
      "v": 99
    },
    {
      "midi": 36,
      "hit": false,
      "t": 6443.749999999999,
      "d": 425.0000000000009,
      "v": 86
    },
    {
      "midi": 59,
      "hit": false,
      "t": 6848.437499999999,
      "d": 504.1666666666688,
      "v": 114
    },
    {
      "midi": 55,
      "hit": false,
      "t": 6849.479166666666,
      "d": 383.8541666666679,
      "v": 109
    },
    {
      "midi": 62,
      "hit": false,
      "t": 6850.520833333333,
      "d": 468.2291666666679,
      "v": 103
    },
    {
      "midi": 40,
      "hit": false,
      "t": 7053.645833333333,
      "d": 115.10416666666697,
      "v": 57
    },
    {
      "midi": 33,
      "hit": false,
      "t": 7188.541666666667,
      "d": 634.895833333333,
      "v": 92
    },
    {
      "midi": 55,
      "hit": false,
      "t": 7438.541666666668,
      "d": 233.85416666666606,
      "v": 84
    },
    {
      "midi": 59,
      "hit": false,
      "t": 7548.437500000001,
      "d": 180.20833333333303,
      "v": 94
    },
    {
      "midi": 62,
      "hit": false,
      "t": 7558.333333333334,
      "d": 140.10416666666697,
      "v": 94
    },
    {
      "midi": 40,
      "hit": false,
      "t": 7752.604166666667,
      "d": 100,
      "v": 43
    },
    {
      "midi": 57,
      "hit": false,
      "t": 7762.5,
      "d": 384.89583333333303,
      "v": 94
    },
    {
      "midi": 53,
      "hit": false,
      "t": 7768.75,
      "d": 218.75,
      "v": 94
    },
    {
      "midi": 60,
      "hit": false,
      "t": 7768.75,
      "d": 364.0625,
      "v": 88
    },
    {
      "midi": 38,
      "hit": false,
      "t": 7887.5,
      "d": 380.20833333333394,
      "v": 80
    },
    {
      "midi": 53,
      "hit": false,
      "t": 8127.604166666667,
      "d": 88.02083333333303,
      "v": 77
    },
    {
      "midi": 53,
      "hit": false,
      "t": 8238.541666666668,
      "d": 79.16666666666606,
      "v": 33
    },
    {
      "midi": 60,
      "hit": false,
      "t": 8263.541666666668,
      "d": 189.0625,
      "v": 102
    },
    {
      "midi": 57,
      "hit": false,
      "t": 8268.75,
      "d": 184.89583333333394,
      "v": 108
    },
    {
      "midi": 38,
      "hit": false,
      "t": 8447.395833333334,
      "d": 116.14583333333394,
      "v": 56
    },
    {
      "midi": 53,
      "hit": false,
      "t": 8497.395833333334,
      "d": 205.20833333333394,
      "v": 45
    },
    {
      "midi": 57,
      "hit": false,
      "t": 8582.812500000002,
      "d": 184.89583333333212,
      "v": 83
    },
    {
      "midi": 31,
      "hit": false,
      "t": 8592.708333333336,
      "d": 309.8958333333303,
      "v": 77
    },
    {
      "midi": 60,
      "hit": false,
      "t": 8593.750000000002,
      "d": 178.64583333333212,
      "v": 82
    },
    {
      "midi": 59,
      "hit": false,
      "t": 8812.5,
      "d": 299.9999999999982,
      "v": 96
    },
    {
      "midi": 55,
      "hit": false,
      "t": 8817.708333333334,
      "d": 184.89583333333212,
      "v": 100
    },
    {
      "midi": 62,
      "hit": false,
      "t": 8822.395833333334,
      "d": 224.99999999999818,
      "v": 102
    },
    {
      "midi": 43,
      "hit": false,
      "t": 8937.5,
      "d": 256.2499999999982,
      "v": 66
    },
    {
      "midi": 53,
      "hit": false,
      "t": 9142.708333333332,
      "d": 225,
      "v": 92
    },
    {
      "midi": 57,
      "hit": false,
      "t": 9152.604166666666,
      "d": 355.72916666666606,
      "v": 94
    },
    {
      "midi": 60,
      "hit": false,
      "t": 9153.645833333332,
      "d": 375,
      "v": 100
    },
    {
      "midi": 31,
      "hit": false,
      "t": 9167.708333333332,
      "d": 94.79166666666606,
      "v": 70
    },
    {
      "midi": 38,
      "hit": false,
      "t": 9292.708333333332,
      "d": 344.79166666666606,
      "v": 85
    },
    {
      "midi": 53,
      "hit": false,
      "t": 9513.541666666666,
      "d": 264.0624999999982,
      "v": 80
    },
    {
      "midi": 57,
      "hit": false,
      "t": 9638.541666666664,
      "d": 190.10416666666606,
      "v": 107
    },
    {
      "midi": 60,
      "hit": false,
      "t": 9642.70833333333,
      "d": 195.83333333333394,
      "v": 115
    },
    {
      "midi": 38,
      "hit": false,
      "t": 9839.58333333333,
      "d": 93.22916666666606,
      "v": 64
    },
    {
      "midi": 53,
      "hit": false,
      "t": 9843.749999999996,
      "d": 258.85416666666606,
      "v": 57
    },
    {
      "midi": 57,
      "hit": false,
      "t": 9962.499999999996,
      "d": 185.9375,
      "v": 90
    },
    {
      "midi": 31,
      "hit": false,
      "t": 9967.70833333333,
      "d": 254.6875,
      "v": 84
    },
    {
      "midi": 60,
      "hit": false,
      "t": 9968.749999999996,
      "d": 184.89583333333394,
      "v": 91
    },
    {
      "midi": 53,
      "hit": false,
      "t": 10192.70833333333,
      "d": 184.89583333333212,
      "v": 90
    },
    {
      "midi": 59,
      "hit": false,
      "t": 10193.749999999996,
      "d": 250,
      "v": 100
    },
    {
      "midi": 62,
      "hit": false,
      "t": 10197.39583333333,
      "d": 256.25,
      "v": 102
    },
    {
      "midi": 31,
      "hit": false,
      "t": 10327.604166666662,
      "d": 280.20833333333576,
      "v": 91
    },
    {
      "midi": 62,
      "hit": false,
      "t": 10517.70833333333,
      "d": 1505.729166666666,
      "v": 80
    },
    {
      "midi": 59,
      "hit": false,
      "t": 10522.39583333333,
      "d": 1485.9375,
      "v": 81
    },
    {
      "midi": 52,
      "hit": false,
      "t": 10527.604166666664,
      "d": 1455.2083333333321,
      "v": 87
    },
    {
      "midi": 55,
      "hit": false,
      "t": 10532.812499999998,
      "d": 1476.5624999999982,
      "v": 90
    },
    {
      "midi": 36,
      "hit": false,
      "t": 10657.812499999998,
      "d": 244.79166666666606,
      "v": 94
    },
    {
      "midi": 31,
      "hit": false,
      "t": 11058.33333333333,
      "d": 289.0625,
      "v": 102
    },
    {
      "midi": 33,
      "hit": false,
      "t": 11467.70833333333,
      "d": 409.89583333333394,
      "v": 107
    },
    {
      "midi": 35,
      "hit": false,
      "t": 11942.70833333333,
      "d": 504.6875,
      "v": 105
    },
    {
      "midi": 36,
      "hit": false,
      "t": 12496.354166666664,
      "d": 685.4166666666661,
      "v": 102
    },
    {
      "midi": 55,
      "hit": false,
      "t": 13147.39583333333,
      "d": 165.10416666666606,
      "v": 109
    },
    {
      "midi": 59,
      "hit": false,
      "t": 13147.39583333333,
      "d": 198.95833333333212,
      "v": 107
    },
    {
      "midi": 62,
      "hit": false,
      "t": 13151.562499999996,
      "d": 185.9375,
      "v": 118
    },
    {
      "midi": 33,
      "hit": false,
      "t": 13761.458333333328,
      "d": 645.3124999999982,
      "v": 90
    },
    {
      "midi": 55,
      "hit": false,
      "t": 14376.562499999995,
      "d": 119.79166666666606,
      "v": 105
    },
    {
      "midi": 59,
      "hit": false,
      "t": 14377.60416666666,
      "d": 169.79166666666788,
      "v": 101
    },
    {
      "midi": 62,
      "hit": false,
      "t": 14381.770833333327,
      "d": 151.04166666666788,
      "v": 115
    },
    {
      "midi": 40,
      "hit": false,
      "t": 14701.562499999995,
      "d": 115.10416666666606,
      "v": 44
    },
    {
      "midi": 38,
      "hit": false,
      "t": 14887.499999999995,
      "d": 533.8541666666661,
      "v": 83
    },
    {
      "midi": 53,
      "hit": false,
      "t": 15227.60416666666,
      "d": 339.0625,
      "v": 79
    },
    {
      "midi": 57,
      "hit": false,
      "t": 15361.458333333327,
      "d": 280.20833333333394,
      "v": 103
    },
    {
      "midi": 60,
      "hit": false,
      "t": 15362.499999999993,
      "d": 273.95833333333394,
      "v": 101
    },
    {
      "midi": 62,
      "hit": false,
      "t": 15386.458333333327,
      "d": 151.04166666666788,
      "v": 22
    },
    {
      "midi": 38,
      "hit": false,
      "t": 15616.66666666666,
      "d": 119.79166666666606,
      "v": 42
    },
    {
      "midi": 53,
      "hit": false,
      "t": 15646.35416666666,
      "d": 285.41666666666606,
      "v": 53
    },
    {
      "midi": 31,
      "hit": false,
      "t": 15756.770833333327,
      "d": 351.04166666666606,
      "v": 79
    },
    {
      "midi": 57,
      "hit": false,
      "t": 15762.499999999993,
      "d": 198.95833333333394,
      "v": 93
    },
    {
      "midi": 60,
      "hit": false,
      "t": 15767.708333333327,
      "d": 189.0625,
      "v": 85
    },
    {
      "midi": 53,
      "hit": false,
      "t": 16021.35416666666,
      "d": 401.0416666666679,
      "v": 97
    },
    {
      "midi": 59,
      "hit": false,
      "t": 16022.395833333327,
      "d": 440.1041666666697,
      "v": 100
    },
    {
      "midi": 62,
      "hit": false,
      "t": 16026.562499999993,
      "d": 416.14583333333576,
      "v": 104
    },
    {
      "midi": 43,
      "hit": false,
      "t": 16112.499999999993,
      "d": 345.31250000000364,
      "v": 72
    },
    {
      "midi": 31,
      "hit": false,
      "t": 16361.458333333327,
      "d": 121.3541666666697,
      "v": 71
    },
    {
      "midi": 36,
      "hit": false,
      "t": 16516.666666666664,
      "d": 444.7916666666679,
      "v": 94
    },
    {
      "midi": 59,
      "hit": false,
      "t": 16911.458333333332,
      "d": 201.04166666666788,
      "v": 104
    },
    {
      "midi": 62,
      "hit": false,
      "t": 16916.666666666664,
      "d": 176.04166666666788,
      "v": 113
    },
    {
      "midi": 55,
      "hit": false,
      "t": 16917.708333333332,
      "d": 159.89583333333212,
      "v": 105
    },
    {
      "midi": 40,
      "hit": false,
      "t": 17146.354166666668,
      "d": 130.20833333333212,
      "v": 54
    },
    {
      "midi": 33,
      "hit": false,
      "t": 17291.666666666668,
      "d": 625,
      "v": 87
    },
    {
      "midi": 59,
      "hit": false,
      "t": 17616.666666666668,
      "d": 316.1458333333321,
      "v": 91
    },
    {
      "midi": 55,
      "hit": false,
      "t": 17628.125,
      "d": 193.22916666666788,
      "v": 91
    },
    {
      "midi": 62,
      "hit": false,
      "t": 17645.3125,
      "d": 280.20833333333576,
      "v": 98
    },
    {
      "midi": 45,
      "hit": false,
      "t": 17702.604166666668,
      "d": 279.16666666666424,
      "v": 53
    },
    {
      "midi": 40,
      "hit": false,
      "t": 17930.729166666668,
      "d": 116.6666666666606,
      "v": 47
    },
    {
      "midi": 60,
      "hit": false,
      "t": 18013.541666666664,
      "d": 357.81249999999636,
      "v": 81
    },
    {
      "midi": 53,
      "hit": false,
      "t": 18024.999999999996,
      "d": 296.35416666666424,
      "v": 78
    },
    {
      "midi": 57,
      "hit": false,
      "t": 18024.999999999996,
      "d": 326.56249999999636,
      "v": 77
    },
    {
      "midi": 38,
      "hit": false,
      "t": 18080.72916666666,
      "d": 459.8958333333285,
      "v": 71
    },
    {
      "midi": 53,
      "hit": false,
      "t": 18465.624999999993,
      "d": 160.93749999999636,
      "v": 90
    },
    {
      "midi": 57,
      "hit": false,
      "t": 18475.520833333325,
      "d": 249.99999999999636,
      "v": 99
    },
    {
      "midi": 60,
      "hit": false,
      "t": 18485.416666666657,
      "d": 226.04166666666424,
      "v": 115
    },
    {
      "midi": 38,
      "hit": false,
      "t": 18681.77083333332,
      "d": 128.64583333333212,
      "v": 54
    },
    {
      "midi": 53,
      "hit": false,
      "t": 18735.416666666653,
      "d": 191.14583333333212,
      "v": 82
    },
    {
      "midi": 31,
      "hit": false,
      "t": 18820.83333333332,
      "d": 374.99999999999636,
      "v": 77
    },
    {
      "midi": 60,
      "hit": false,
      "t": 18830.729166666653,
      "d": 180.72916666666424,
      "v": 96
    },
    {
      "midi": 57,
      "hit": false,
      "t": 18835.416666666653,
      "d": 177.08333333333212,
      "v": 94
    },
    {
      "midi": 38,
      "hit": false,
      "t": 18951.562499999985,
      "d": 254.16666666666424,
      "v": 20
    },
    {
      "midi": 53,
      "hit": false,
      "t": 19055.729166666653,
      "d": 294.79166666666424,
      "v": 91
    },
    {
      "midi": 59,
      "hit": false,
      "t": 19065.624999999985,
      "d": 305.2083333333321,
      "v": 98
    },
    {
      "midi": 62,
      "hit": false,
      "t": 19070.833333333318,
      "d": 275.5208333333321,
      "v": 103
    },
    {
      "midi": 43,
      "hit": false,
      "t": 19196.35416666665,
      "d": 274.4791666666679,
      "v": 84
    },
    {
      "midi": 38,
      "hit": false,
      "t": 19405.72916666665,
      "d": 104.6875,
      "v": 51
    },
    {
      "midi": 62,
      "hit": false,
      "t": 19551.56249999998,
      "d": 214.06250000000364,
      "v": 93
    },
    {
      "midi": 59,
      "hit": false,
      "t": 19552.60416666665,
      "d": 178.125,
      "v": 81
    },
    {
      "midi": 52,
      "hit": false,
      "t": 19556.770833333318,
      "d": 104.6875,
      "v": 89
    },
    {
      "midi": 55,
      "hit": false,
      "t": 19557.812499999985,
      "d": 173.95833333333212,
      "v": 94
    },
    {
      "midi": 36,
      "hit": false,
      "t": 19567.708333333318,
      "d": 153.125,
      "v": 90
    },
    {
      "midi": 52,
      "hit": false,
      "t": 19745.833333333318,
      "d": 115.625,
      "v": 79
    },
    {
      "midi": 55,
      "hit": false,
      "t": 19916.66666666665,
      "d": 104.16666666666788,
      "v": 87
    },
    {
      "midi": 59,
      "hit": false,
      "t": 20100.520833333318,
      "d": 575,
      "v": 93
    },
    {
      "midi": 52,
      "hit": false,
      "t": 20105.72916666665,
      "d": 405.7291666666679,
      "v": 94
    },
    {
      "midi": 43,
      "hit": false,
      "t": 20110.41666666665,
      "d": 360.93750000000364,
      "v": 84
    },
    {
      "midi": 62,
      "hit": false,
      "t": 20111.458333333318,
      "d": 604.1666666666679,
      "v": 96
    },
    {
      "midi": 55,
      "hit": false,
      "t": 20112.499999999985,
      "d": 633.3333333333321,
      "v": 101
    },
    {
      "midi": 36,
      "hit": false,
      "t": 20115.624999999985,
      "d": 710.9375,
      "v": 87
    },
    {
      "midi": 48,
      "hit": false,
      "t": 20476.562499999985,
      "d": 344.7916666666679,
      "v": 98
    },
    {
      "midi": 52,
      "hit": false,
      "t": 20611.458333333318,
      "d": 165.10416666666788,
      "v": 101
    },
    {
      "midi": 43,
      "hit": false,
      "t": 20781.770833333318,
      "d": 119.79166666666788,
      "v": 80
    },
    {
      "midi": 41,
      "hit": false,
      "t": 20930.729166666653,
      "d": 404.6875,
      "v": 87
    },
    {
      "midi": 55,
      "hit": false,
      "t": 20931.77083333332,
      "d": 175,
      "v": 90
    },
    {
      "midi": 52,
      "hit": false,
      "t": 20936.45833333332,
      "d": 104.16666666666788,
      "v": 88
    },
    {
      "midi": 57,
      "hit": false,
      "t": 20936.45833333332,
      "d": 261.9791666666679,
      "v": 91
    },
    {
      "midi": 60,
      "hit": false,
      "t": 20945.83333333332,
      "d": 250.52083333333212,
      "v": 96
    },
    {
      "midi": 52,
      "hit": false,
      "t": 21136.45833333332,
      "d": 120.3125,
      "v": 89
    },
    {
      "midi": 55,
      "hit": false,
      "t": 21260.416666666653,
      "d": 115.10416666666788,
      "v": 90
    },
    {
      "midi": 55,
      "hit": false,
      "t": 21411.45833333332,
      "d": 655.2083333333394,
      "v": 93
    },
    {
      "midi": 59,
      "hit": false,
      "t": 21431.77083333332,
      "d": 689.5833333333394,
      "v": 94
    },
    {
      "midi": 40,
      "hit": false,
      "t": 21436.45833333332,
      "d": 625.0000000000036,
      "v": 85
    },
    {
      "midi": 50,
      "hit": false,
      "t": 21437.49999999999,
      "d": 348.95833333333576,
      "v": 97
    },
    {
      "midi": 47,
      "hit": false,
      "t": 21771.354166666657,
      "d": 335.4166666666715,
      "v": 100
    },
    {
      "midi": 50,
      "hit": false,
      "t": 21910.416666666657,
      "d": 152.08333333333576,
      "v": 100
    },
    {
      "midi": 45,
      "hit": false,
      "t": 22076.562499999993,
      "d": 133.85416666666788,
      "v": 87
    },
    {
      "midi": 57,
      "hit": false,
      "t": 22230.72916666666,
      "d": 145.83333333333576,
      "v": 85
    },
    {
      "midi": 60,
      "hit": false,
      "t": 22235.41666666666,
      "d": 151.04166666666788,
      "v": 93
    },
    {
      "midi": 53,
      "hit": false,
      "t": 22236.45833333333,
      "d": 151.04166666666788,
      "v": 79
    },
    {
      "midi": 38,
      "hit": false,
      "t": 22240.624999999996,
      "d": 191.14583333333212,
      "v": 89
    },
    {
      "midi": 48,
      "hit": false,
      "t": 22241.666666666664,
      "d": 119.79166666666788,
      "v": 88
    },
    {
      "midi": 45,
      "hit": false,
      "t": 22366.666666666664,
      "d": 178.12499999999636,
      "v": 64
    },
    {
      "midi": 38,
      "hit": false,
      "t": 22555.72916666666,
      "d": 155.72916666666788,
      "v": 85
    },
    {
      "midi": 53,
      "hit": false,
      "t": 22736.45833333333,
      "d": 620.3125,
      "v": 91
    },
    {
      "midi": 57,
      "hit": false,
      "t": 22741.66666666666,
      "d": 648.9583333333358,
      "v": 87
    },
    {
      "midi": 48,
      "hit": false,
      "t": 22746.35416666666,
      "d": 364.0625,
      "v": 90
    },
    {
      "midi": 60,
      "hit": false,
      "t": 22747.39583333333,
      "d": 609.375,
      "v": 94
    },
    {
      "midi": 43,
      "hit": false,
      "t": 22771.35416666666,
      "d": 239.0625,
      "v": 97
    },
    {
      "midi": 43,
      "hit": false,
      "t": 23085.41666666666,
      "d": 130.20833333333212,
      "v": 78
    },
    {
      "midi": 48,
      "hit": false,
      "t": 23235.41666666666,
      "d": 110.41666666666788,
      "v": 98
    },
    {
      "midi": 43,
      "hit": false,
      "t": 23400.52083333333,
      "d": 158.85416666666424,
      "v": 75
    },
    {
      "midi": 36,
      "hit": false,
      "t": 23610.41666666666,
      "d": 209.37500000000364,
      "v": 92
    },
    {
      "midi": 59,
      "hit": false,
      "t": 23615.624999999993,
      "d": 160.93750000000364,
      "v": 89
    },
    {
      "midi": 62,
      "hit": false,
      "t": 23621.35416666666,
      "d": 156.25000000000364,
      "v": 96
    },
    {
      "midi": 55,
      "hit": false,
      "t": 23621.35416666666,
      "d": 159.37500000000364,
      "v": 98
    },
    {
      "midi": 52,
      "hit": false,
      "t": 23622.39583333333,
      "d": 148.4375,
      "v": 96
    },
    {
      "midi": 48,
      "hit": false,
      "t": 23776.562499999996,
      "d": 183.85416666666788,
      "v": 96
    },
    {
      "midi": 36,
      "hit": false,
      "t": 23945.833333333332,
      "d": 139.58333333333212,
      "v": 90
    },
    {
      "midi": 56,
      "hit": false,
      "t": 24114.583333333332,
      "d": 870.8333333333358,
      "v": 91
    },
    {
      "midi": 50,
      "hit": false,
      "t": 24124.479166666664,
      "d": 370.3125,
      "v": 101
    },
    {
      "midi": 59,
      "hit": false,
      "t": 24125.520833333332,
      "d": 810.9375,
      "v": 98
    },
    {
      "midi": 40,
      "hit": false,
      "t": 24134.375,
      "d": 501.04166666666424,
      "v": 85
    },
    {
      "midi": 47,
      "hit": false,
      "t": 24464.583333333332,
      "d": 369.79166666666424,
      "v": 100
    },
    {
      "midi": 50,
      "hit": false,
      "t": 24625.520833333332,
      "d": 280.2083333333321,
      "v": 104
    },
    {
      "midi": 40,
      "hit": false,
      "t": 24784.374999999996,
      "d": 151.04166666666788,
      "v": 71
    },
    {
      "midi": 33,
      "hit": false,
      "t": 24965.625,
      "d": 479.1666666666679,
      "v": 101
    },
    {
      "midi": 52,
      "hit": false,
      "t": 25335.416666666668,
      "d": 110.41666666666788,
      "v": 101
    },
    {
      "midi": 45,
      "hit": false,
      "t": 25336.458333333336,
      "d": 223.95833333333212,
      "v": 76
    },
    {
      "midi": 57,
      "hit": false,
      "t": 25340.625000000004,
      "d": 133.85416666666424,
      "v": 96
    },
    {
      "midi": 60,
      "hit": false,
      "t": 25345.833333333336,
      "d": 139.58333333333212,
      "v": 115
    },
    {
      "midi": 55,
      "hit": false,
      "t": 25346.354166666668,
      "d": 149.47916666666788,
      "v": 103
    },
    {
      "midi": 38,
      "hit": false,
      "t": 25510.416666666668,
      "d": 125,
      "v": 77
    },
    {
      "midi": 40,
      "hit": false,
      "t": 25680.729166666668,
      "d": 319.7916666666679,
      "v": 88
    },
    {
      "midi": 55,
      "hit": false,
      "t": 25860.416666666668,
      "d": 223.95833333333212,
      "v": 101
    },
    {
      "midi": 59,
      "hit": false,
      "t": 25861.458333333336,
      "d": 243.22916666666424,
      "v": 98
    },
    {
      "midi": 50,
      "hit": false,
      "t": 25865.625000000004,
      "d": 193.74999999999636,
      "v": 98
    },
    {
      "midi": 45,
      "hit": false,
      "t": 26005.729166666668,
      "d": 209.89583333333212,
      "v": 84
    },
    {
      "midi": 40,
      "hit": false,
      "t": 26155.729166666668,
      "d": 165.10416666666424,
      "v": 64
    },
    {
      "midi": 57,
      "hit": false,
      "t": 26344.791666666664,
      "d": 364.58333333333576,
      "v": 97
    },
    {
      "midi": 33,
      "hit": false,
      "t": 26349.479166666664,
      "d": 435.9375,
      "v": 92
    },
    {
      "midi": 52,
      "hit": false,
      "t": 26350.520833333332,
      "d": 209.89583333333576,
      "v": 98
    },
    {
      "midi": 60,
      "hit": false,
      "t": 26354.6875,
      "d": 359.8958333333321,
      "v": 106
    },
    {
      "midi": 52,
      "hit": false,
      "t": 26689.583333333332,
      "d": 116.14583333333212,
      "v": 94
    },
    {
      "midi": 45,
      "hit": false,
      "t": 26690.625,
      "d": 124.99999999999636,
      "v": 84
    },
    {
      "midi": 36,
      "hit": false,
      "t": 26835.416666666664,
      "d": 134.375,
      "v": 61
    },
    {
      "midi": 53,
      "hit": false,
      "t": 27005.729166666664,
      "d": 175,
      "v": 90
    },
    {
      "midi": 57,
      "hit": false,
      "t": 27006.770833333332,
      "d": 178.64583333333212,
      "v": 86
    },
    {
      "midi": 41,
      "hit": false,
      "t": 27007.8125,
      "d": 147.91666666666424,
      "v": 71
    },
    {
      "midi": 48,
      "hit": false,
      "t": 27014.583333333332,
      "d": 126.04166666666424,
      "v": 88
    },
    {
      "midi": 29,
      "hit": false,
      "t": 27019.791666666664,
      "d": 90.625,
      "v": 59
    },
    {
      "midi": 50,
      "hit": false,
      "t": 27360.416666666664,
      "d": 95.3125,
      "v": 98
    },
    {
      "midi": 55,
      "hit": false,
      "t": 27361.458333333332,
      "d": 114.0625,
      "v": 95
    },
    {
      "midi": 59,
      "hit": false,
      "t": 27362.5,
      "d": 133.85416666666424,
      "v": 94
    },
    {
      "midi": 43,
      "hit": false,
      "t": 27370.833333333332,
      "d": 139.58333333333212,
      "v": 87
    },
    {
      "midi": 31,
      "hit": false,
      "t": 27371.354166666664,
      "d": 158.33333333333212,
      "v": 88
    },
    {
      "midi": 38,
      "hit": false,
      "t": 27495.833333333332,
      "d": 128.64583333333212,
      "v": 59
    },
    {
      "midi": 52,
      "hit": false,
      "t": 27705.729166666664,
      "d": 239.0625,
      "v": 97
    },
    {
      "midi": 55,
      "hit": false,
      "t": 27706.770833333332,
      "d": 342.7083333333321,
      "v": 98
    },
    {
      "midi": 43,
      "hit": false,
      "t": 27707.8125,
      "d": 246.87499999999636,
      "v": 89
    },
    {
      "midi": 36,
      "hit": false,
      "t": 27708.333333333332,
      "d": 1026.0416666666715,
      "v": 102
    },
    {
      "midi": 60,
      "hit": false,
      "t": 27710.416666666664,
      "d": 345.3125,
      "v": 101
    },
    {
      "midi": 52,
      "hit": false,
      "t": 28075.520833333332,
      "d": 129.16666666666788,
      "v": 98
    },
    {
      "midi": 48,
      "hit": false,
      "t": 28253.645833333336,
      "d": 340.1041666666679,
      "v": 115
    },
    {
      "midi": 52,
      "hit": false,
      "t": 28419.791666666668,
      "d": 118.75,
      "v": 93
    },
    {
      "midi": 55,
      "hit": false,
      "t": 28583.333333333336,
      "d": 106.25,
      "v": 97
    },
    {
      "midi": 48,
      "hit": false,
      "t": 28735.41666666667,
      "d": 143.22916666666424,
      "v": 91
    },
    {
      "midi": 55,
      "hit": false,
      "t": 28744.79166666667,
      "d": 119.79166666666424,
      "v": 90
    },
    {
      "midi": 52,
      "hit": false,
      "t": 28749.47916666667,
      "d": 84.89583333333212,
      "v": 101
    },
    {
      "midi": 60,
      "hit": false,
      "t": 28754.687500000004,
      "d": 118.75,
      "v": 106
    },
    {
      "midi": 36,
      "hit": false,
      "t": 28888.541666666668,
      "d": 101.04166666666788,
      "v": 77
    },
    {
      "midi": 43,
      "hit": false,
      "t": 29089.583333333336,
      "d": 365.1041666666606,
      "v": 90
    },
    {
      "midi": 53,
      "hit": false,
      "t": 29095.833333333336,
      "d": 102.60416666666424,
      "v": 99
    },
    {
      "midi": 57,
      "hit": false,
      "t": 29095.833333333336,
      "d": 122.91666666666424,
      "v": 94
    },
    {
      "midi": 31,
      "hit": false,
      "t": 29096.354166666668,
      "d": 983.3333333333321,
      "v": 79
    },
    {
      "midi": 60,
      "hit": false,
      "t": 29099.479166666668,
      "d": 129.16666666666424,
      "v": 101
    },
    {
      "midi": 53,
      "hit": false,
      "t": 29254.6875,
      "d": 104.6875,
      "v": 84
    },
    {
      "midi": 57,
      "hit": false,
      "t": 29424.479166666664,
      "d": 94.27083333333212,
      "v": 90
    },
    {
      "midi": 57,
      "hit": false,
      "t": 29574.479166666664,
      "d": 690.1041666666679,
      "v": 87
    },
    {
      "midi": 43,
      "hit": false,
      "t": 29584.374999999996,
      "d": 205.20833333333576,
      "v": 96
    },
    {
      "midi": 53,
      "hit": false,
      "t": 29585.416666666664,
      "d": 373.95833333333576,
      "v": 105
    },
    {
      "midi": 60,
      "hit": false,
      "t": 29594.791666666664,
      "d": 689.5833333333358,
      "v": 111
    },
    {
      "midi": 43,
      "hit": false,
      "t": 29924.479166666668,
      "d": 480.2083333333321,
      "v": 117
    },
    {
      "midi": 53,
      "hit": false,
      "t": 30084.375,
      "d": 140.10416666666788,
      "v": 104
    },
    {
      "midi": 40,
      "hit": false,
      "t": 30254.6875,
      "d": 140.10416666666788,
      "v": 88
    },
    {
      "midi": 33,
      "hit": false,
      "t": 30429.6875,
      "d": 540.1041666666679,
      "v": 105
    },
    {
      "midi": 57,
      "hit": false,
      "t": 30778.645833333332,
      "d": 160.93750000000364,
      "v": 20
    },
    {
      "midi": 59,
      "hit": false,
      "t": 30793.75,
      "d": 130.72916666667152,
      "v": 97
    },
    {
      "midi": 52,
      "hit": false,
      "t": 30794.791666666668,
      "d": 100.00000000000364,
      "v": 98
    },
    {
      "midi": 45,
      "hit": false,
      "t": 30795.833333333336,
      "d": 208.85416666666424,
      "v": 87
    },
    {
      "midi": 55,
      "hit": false,
      "t": 30798.437500000004,
      "d": 106.25,
      "v": 107
    },
    {
      "midi": 60,
      "hit": false,
      "t": 30799.47916666667,
      "d": 130.20833333333212,
      "v": 101
    },
    {
      "midi": 38,
      "hit": false,
      "t": 30949.479166666668,
      "d": 123.95833333333212,
      "v": 83
    },
    {
      "midi": 40,
      "hit": false,
      "t": 31129.6875,
      "d": 354.68750000000364,
      "v": 88
    },
    {
      "midi": 55,
      "hit": false,
      "t": 31324.479166666668,
      "d": 245.3125,
      "v": 100
    },
    {
      "midi": 50,
      "hit": false,
      "t": 31325.520833333336,
      "d": 214.0625,
      "v": 100
    },
    {
      "midi": 59,
      "hit": false,
      "t": 31329.687500000004,
      "d": 265.10416666666424,
      "v": 98
    },
    {
      "midi": 45,
      "hit": false,
      "t": 31489.583333333336,
      "d": 194.79166666666424,
      "v": 84
    },
    {
      "midi": 40,
      "hit": false,
      "t": 31634.375,
      "d": 125,
      "v": 65
    },
    {
      "midi": 57,
      "hit": false,
      "t": 31799.479166666668,
      "d": 258.8541666666715,
      "v": 96
    },
    {
      "midi": 45,
      "hit": false,
      "t": 31800.520833333336,
      "d": 433.8541666666715,
      "v": 81
    },
    {
      "midi": 55,
      "hit": false,
      "t": 31801.562500000004,
      "d": 332.81250000000364,
      "v": 94
    },
    {
      "midi": 60,
      "hit": false,
      "t": 31804.687500000004,
      "d": 233.85416666666788,
      "v": 102
    },
    {
      "midi": 52,
      "hit": false,
      "t": 31809.375000000004,
      "d": 125,
      "v": 95
    },
    {
      "midi": 33,
      "hit": false,
      "t": 31814.583333333336,
      "d": 425.00000000000364,
      "v": 95
    },
    {
      "midi": 52,
      "hit": false,
      "t": 32154.687500000007,
      "d": 104.6875,
      "v": 98
    },
    {
      "midi": 50,
      "hit": false,
      "t": 32444.791666666675,
      "d": 150,
      "v": 90
    },
    {
      "midi": 55,
      "hit": false,
      "t": 32454.687500000007,
      "d": 203.64583333333576,
      "v": 98
    },
    {
      "midi": 59,
      "hit": false,
      "t": 32455.729166666675,
      "d": 193.75,
      "v": 87
    },
    {
      "midi": 40,
      "hit": false,
      "t": 32504.687500000007,
      "d": 290.1041666666715,
      "v": 96
    },
    {
      "midi": 55,
      "hit": false,
      "t": 32804.687500000015,
      "d": 168.74999999999272,
      "v": 90
    },
    {
      "midi": 45,
      "hit": false,
      "t": 32805.72916666668,
      "d": 123.95833333332848,
      "v": 89
    },
    {
      "midi": 57,
      "hit": false,
      "t": 32809.375000000015,
      "d": 155.20833333332848,
      "v": 95
    },
    {
      "midi": 52,
      "hit": false,
      "t": 32810.41666666668,
      "d": 69.27083333332848,
      "v": 96
    },
    {
      "midi": 33,
      "hit": false,
      "t": 32814.58333333334,
      "d": 105.20833333332848,
      "v": 94
    },
    {
      "midi": 60,
      "hit": false,
      "t": 32815.62500000001,
      "d": 157.8125,
      "v": 98
    },
    {
      "midi": 57,
      "hit": false,
      "t": 33134.37500000001,
      "d": 215.10416666665697,
      "v": 88
    },
    {
      "midi": 60,
      "hit": false,
      "t": 33135.41666666667,
      "d": 188.02083333332848,
      "v": 93
    },
    {
      "midi": 41,
      "hit": false,
      "t": 33139.583333333336,
      "d": 233.85416666666424,
      "v": 81
    },
    {
      "midi": 48,
      "hit": false,
      "t": 33140.625,
      "d": 161.97916666666424,
      "v": 94
    },
    {
      "midi": 52,
      "hit": false,
      "t": 33141.666666666664,
      "d": 141.14583333333576,
      "v": 97
    },
    {
      "midi": 55,
      "hit": false,
      "t": 33474.47916666667,
      "d": 204.16666666666424,
      "v": 98
    },
    {
      "midi": 50,
      "hit": false,
      "t": 33475.520833333336,
      "d": 127.08333333333576,
      "v": 98
    },
    {
      "midi": 59,
      "hit": false,
      "t": 33476.5625,
      "d": 217.1875,
      "v": 89
    },
    {
      "midi": 40,
      "hit": false,
      "t": 33478.645833333336,
      "d": 216.14583333332848,
      "v": 80
    },
    {
      "midi": 47,
      "hit": false,
      "t": 33483.333333333336,
      "d": 200,
      "v": 98
    },
    {
      "midi": 38,
      "hit": false,
      "t": 33813.541666666664,
      "d": 190.10416666667152,
      "v": 82
    },
    {
      "midi": 45,
      "hit": false,
      "t": 33814.58333333333,
      "d": 268.7500000000073,
      "v": 81
    },
    {
      "midi": 53,
      "hit": false,
      "t": 33819.791666666664,
      "d": 98.95833333333576,
      "v": 92
    },
    {
      "midi": 57,
      "hit": false,
      "t": 33819.791666666664,
      "d": 113.02083333333576,
      "v": 88
    },
    {
      "midi": 60,
      "hit": false,
      "t": 33823.4375,
      "d": 120.3125,
      "v": 92
    },
    {
      "midi": 57,
      "hit": false,
      "t": 34013.54166666667,
      "d": 205.20833333333576,
      "v": 93
    },
    {
      "midi": 53,
      "hit": false,
      "t": 34014.583333333336,
      "d": 148.95833333333576,
      "v": 102
    },
    {
      "midi": 60,
      "hit": false,
      "t": 34018.75,
      "d": 175.00000000000728,
      "v": 91
    },
    {
      "midi": 43,
      "hit": false,
      "t": 34153.645833333336,
      "d": 125.00000000000728,
      "v": 97
    },
    {
      "midi": 57,
      "hit": false,
      "t": 34323.43750000001,
      "d": 209.89583333333576,
      "v": 20
    },
    {
      "midi": 52,
      "hit": false,
      "t": 34338.54166666667,
      "d": 1515.104166666686,
      "v": 97
    },
    {
      "midi": 60,
      "hit": false,
      "t": 34343.75000000001,
      "d": 1500.0000000000146,
      "v": 96
    },
    {
      "midi": 36,
      "hit": false,
      "t": 34453.64583333334,
      "d": 150,
      "v": 94
    },
    {
      "midi": 48,
      "hit": false,
      "t": 34454.68750000001,
      "d": 113.02083333333576,
      "v": 102
    },
    {
      "midi": 31,
      "hit": false,
      "t": 34813.54166666668,
      "d": 230.20833333333576,
      "v": 112
    },
    {
      "midi": 33,
      "hit": false,
      "t": 35153.64583333335,
      "d": 250,
      "v": 107
    },
    {
      "midi": 35,
      "hit": false,
      "t": 35502.604166666686,
      "d": 270.83333333333576,
      "v": 116
    },
    {
      "midi": 36,
      "hit": false,
      "t": 35858.33333333336,
      "d": 120.3125,
      "v": 115
    },
    {
      "midi": 64,
      "hit": false,
      "t": 36218.75000000002,
      "d": 179.68749999999272,
      "v": 99
    },
    {
      "midi": 52,
      "hit": false,
      "t": 36223.43750000002,
      "d": 170.31249999999272,
      "v": 103
    },
    {
      "midi": 60,
      "hit": false,
      "t": 36225.52083333335,
      "d": 238.02083333332848,
      "v": 97
    },
    {
      "midi": 55,
      "hit": false,
      "t": 36226.562500000015,
      "d": 277.0833333333285,
      "v": 104
    },
    {
      "midi": 38,
      "hit": false,
      "t": 36448.437500000015,
      "d": 140.10416666665697,
      "v": 71
    },
    {
      "midi": 31,
      "hit": false,
      "t": 36573.43750000001,
      "d": 585.9375,
      "v": 90
    },
    {
      "midi": 53,
      "hit": false,
      "t": 36788.54166666667,
      "d": 226.04166666667152,
      "v": 94
    },
    {
      "midi": 60,
      "hit": false,
      "t": 36798.43750000001,
      "d": 240.10416666667152,
      "v": 107
    },
    {
      "midi": 57,
      "hit": false,
      "t": 36803.64583333334,
      "d": 209.89583333333576,
      "v": 108
    },
    {
      "midi": 43,
      "hit": false,
      "t": 36938.54166666668,
      "d": 219.79166666666424,
      "v": 94
    },
    {
      "midi": 38,
      "hit": false,
      "t": 37113.54166666668,
      "d": 115.10416666666424,
      "v": 72
    },
    {
      "midi": 36,
      "hit": false,
      "t": 37273.43750000001,
      "d": 574.9999999999782,
      "v": 90
    },
    {
      "midi": 62,
      "hit": false,
      "t": 37274.47916666667,
      "d": 223.95833333332848,
      "v": 90
    },
    {
      "midi": 59,
      "hit": false,
      "t": 37278.645833333336,
      "d": 204.6875,
      "v": 93
    },
    {
      "midi": 55,
      "hit": false,
      "t": 37279.6875,
      "d": 158.85416666666424,
      "v": 94
    },
    {
      "midi": 64,
      "hit": false,
      "t": 37288.541666666664,
      "d": 184.89583333333576,
      "v": 88
    },
    {
      "midi": 62,
      "hit": false,
      "t": 37633.33333333333,
      "d": 206.24999999999272,
      "v": 96
    },
    {
      "midi": 55,
      "hit": false,
      "t": 37634.37499999999,
      "d": 123.95833333332848,
      "v": 99
    },
    {
      "midi": 64,
      "hit": false,
      "t": 37635.41666666666,
      "d": 178.125,
      "v": 101
    },
    {
      "midi": 59,
      "hit": false,
      "t": 37636.45833333332,
      "d": 207.29166666666424,
      "v": 98
    },
    {
      "midi": 38,
      "hit": false,
      "t": 37838.54166666666,
      "d": 115.10416666666424,
      "v": 77
    },
    {
      "midi": 31,
      "hit": false,
      "t": 37963.54166666666,
      "d": 604.1666666666715,
      "v": 90
    },
    {
      "midi": 62,
      "hit": false,
      "t": 38193.74999999999,
      "d": 264.0625,
      "v": 92
    },
    {
      "midi": 65,
      "hit": false,
      "t": 38193.74999999999,
      "d": 289.58333333333576,
      "v": 90
    },
    {
      "midi": 60,
      "hit": false,
      "t": 38198.43749999999,
      "d": 234.375,
      "v": 94
    },
    {
      "midi": 53,
      "hit": false,
      "t": 38199.47916666666,
      "d": 208.33333333333576,
      "v": 94
    },
    {
      "midi": 57,
      "hit": false,
      "t": 38200.52083333332,
      "d": 217.18750000000728,
      "v": 94
    },
    {
      "midi": 43,
      "hit": false,
      "t": 38349.47916666666,
      "d": 233.33333333333576,
      "v": 90
    },
    {
      "midi": 38,
      "hit": false,
      "t": 38518.74999999999,
      "d": 104.6875,
      "v": 67
    },
    {
      "midi": 64,
      "hit": false,
      "t": 38654.68749999999,
      "d": 198.95833333333576,
      "v": 94
    },
    {
      "midi": 55,
      "hit": false,
      "t": 38655.72916666666,
      "d": 161.97916666667152,
      "v": 94
    },
    {
      "midi": 62,
      "hit": false,
      "t": 38655.72916666666,
      "d": 197.91666666667152,
      "v": 90
    },
    {
      "midi": 59,
      "hit": false,
      "t": 38658.33333333332,
      "d": 189.06250000000728,
      "v": 94
    },
    {
      "midi": 36,
      "hit": false,
      "t": 38663.54166666666,
      "d": 583.8541666666715,
      "v": 94
    },
    {
      "midi": 67,
      "hit": false,
      "t": 39008.33333333333,
      "d": 160.41666666666424,
      "v": 98
    },
    {
      "midi": 62,
      "hit": false,
      "t": 39008.33333333333,
      "d": 189.0625,
      "v": 96
    },
    {
      "midi": 64,
      "hit": false,
      "t": 39009.37499999999,
      "d": 183.33333333333576,
      "v": 91
    },
    {
      "midi": 55,
      "hit": false,
      "t": 39013.54166666666,
      "d": 155.20833333333576,
      "v": 99
    },
    {
      "midi": 59,
      "hit": false,
      "t": 39013.54166666666,
      "d": 198.95833333333576,
      "v": 101
    },
    {
      "midi": 38,
      "hit": false,
      "t": 39207.81249999999,
      "d": 125,
      "v": 72
    },
    {
      "midi": 31,
      "hit": false,
      "t": 39337.49999999999,
      "d": 455.20833333333576,
      "v": 91
    },
    {
      "midi": 53,
      "hit": false,
      "t": 39537.49999999999,
      "d": 230.20833333333576,
      "v": 94
    },
    {
      "midi": 57,
      "hit": false,
      "t": 39542.70833333333,
      "d": 229.6875,
      "v": 97
    },
    {
      "midi": 65,
      "hit": false,
      "t": 39543.74999999999,
      "d": 229.6875,
      "v": 90
    },
    {
      "midi": 62,
      "hit": false,
      "t": 39547.39583333333,
      "d": 240.10416666666424,
      "v": 96
    },
    {
      "midi": 60,
      "hit": false,
      "t": 39548.43749999999,
      "d": 229.16666666666424,
      "v": 100
    },
    {
      "midi": 43,
      "hit": false,
      "t": 39692.70833333333,
      "d": 115.10416666666424,
      "v": 84
    },
    {
      "midi": 33,
      "hit": false,
      "t": 39877.60416666666,
      "d": 134.89583333332848,
      "v": 71
    },
    {
      "midi": 26,
      "hit": false,
      "t": 40027.60416666665,
      "d": 555.2083333333358,
      "v": 89
    },
    {
      "midi": 53,
      "hit": false,
      "t": 40032.812499999985,
      "d": 185.93750000000728,
      "v": 90
    },
    {
      "midi": 57,
      "hit": false,
      "t": 40037.499999999985,
      "d": 182.29166666667152,
      "v": 95
    },
    {
      "midi": 60,
      "hit": false,
      "t": 40042.70833333332,
      "d": 180.72916666667152,
      "v": 106
    },
    {
      "midi": 57,
      "hit": false,
      "t": 40362.49999999999,
      "d": 134.89583333332848,
      "v": 93
    },
    {
      "midi": 53,
      "hit": false,
      "t": 40363.54166666666,
      "d": 94.27083333332848,
      "v": 92
    },
    {
      "midi": 65,
      "hit": false,
      "t": 40364.58333333332,
      "d": 143.22916666667152,
      "v": 94
    },
    {
      "midi": 62,
      "hit": false,
      "t": 40367.70833333332,
      "d": 125,
      "v": 97
    },
    {
      "midi": 60,
      "hit": false,
      "t": 40368.749999999985,
      "d": 133.85416666667152,
      "v": 98
    },
    {
      "midi": 38,
      "hit": false,
      "t": 40392.70833333332,
      "d": 200,
      "v": 85
    },
    {
      "midi": 53,
      "hit": false,
      "t": 40563.54166666666,
      "d": 183.85416666665697,
      "v": 92
    },
    {
      "midi": 33,
      "hit": false,
      "t": 40567.70833333332,
      "d": 94.79166666666424,
      "v": 75
    },
    {
      "midi": 57,
      "hit": false,
      "t": 40687.499999999985,
      "d": 120.31249999999272,
      "v": 91
    },
    {
      "midi": 31,
      "hit": false,
      "t": 40688.54166666665,
      "d": 323.9583333333285,
      "v": 90
    },
    {
      "midi": 53,
      "hit": false,
      "t": 40882.81249999998,
      "d": 164.58333333333576,
      "v": 90
    },
    {
      "midi": 57,
      "hit": false,
      "t": 40883.333333333314,
      "d": 165.10416666666424,
      "v": 91
    },
    {
      "midi": 65,
      "hit": false,
      "t": 40887.49999999998,
      "d": 215.10416666667152,
      "v": 86
    },
    {
      "midi": 62,
      "hit": false,
      "t": 40889.583333333314,
      "d": 188.02083333333576,
      "v": 93
    },
    {
      "midi": 60,
      "hit": false,
      "t": 40892.708333333314,
      "d": 179.6875,
      "v": 97
    },
    {
      "midi": 43,
      "hit": false,
      "t": 41017.708333333314,
      "d": 259.89583333333576,
      "v": 86
    },
    {
      "midi": 62,
      "hit": false,
      "t": 41222.39583333332,
      "d": 295.3125,
      "v": 90
    },
    {
      "midi": 59,
      "hit": false,
      "t": 41227.60416666666,
      "d": 245.83333333332848,
      "v": 98
    },
    {
      "midi": 64,
      "hit": false,
      "t": 41228.64583333332,
      "d": 293.75,
      "v": 94
    },
    {
      "midi": 55,
      "hit": false,
      "t": 41229.687499999985,
      "d": 203.125,
      "v": 95
    },
    {
      "midi": 38,
      "hit": false,
      "t": 41232.812499999985,
      "d": 75,
      "v": 80
    },
    {
      "midi": 36,
      "hit": false,
      "t": 41367.70833333332,
      "d": 194.79166666666424,
      "v": 104
    },
    {
      "midi": 55,
      "hit": false,
      "t": 41542.70833333332,
      "d": 100,
      "v": 97
    },
    {
      "midi": 55,
      "hit": false,
      "t": 41677.60416666666,
      "d": 126.04166666666424,
      "v": 86
    },
    {
      "midi": 67,
      "hit": false,
      "t": 41687.49999999999,
      "d": 145.83333333332848,
      "v": 89
    },
    {
      "midi": 62,
      "hit": false,
      "t": 41688.54166666666,
      "d": 144.79166666666424,
      "v": 93
    },
    {
      "midi": 59,
      "hit": false,
      "t": 41692.70833333332,
      "d": 135.9375,
      "v": 100
    },
    {
      "midi": 64,
      "hit": false,
      "t": 41693.749999999985,
      "d": 135.9375,
      "v": 99
    },
    {
      "midi": 36,
      "hit": false,
      "t": 41877.60416666666,
      "d": 449.9999999999927,
      "v": 94
    },
    {
      "midi": 43,
      "hit": false,
      "t": 41878.64583333332,
      "d": 429.16666666666424,
      "v": 97
    },
    {
      "midi": 55,
      "hit": false,
      "t": 42022.39583333332,
      "d": 101.04166666666424,
      "v": 94
    },
    {
      "midi": 55,
      "hit": false,
      "t": 42182.812499999985,
      "d": 200.52083333333576,
      "v": 93
    },
    {
      "midi": 64,
      "hit": false,
      "t": 42187.499999999985,
      "d": 180.20833333333576,
      "v": 90
    },
    {
      "midi": 67,
      "hit": false,
      "t": 42188.54166666665,
      "d": 173.95833333333576,
      "v": 94
    },
    {
      "midi": 62,
      "hit": false,
      "t": 42189.583333333314,
      "d": 182.81250000000728,
      "v": 93
    },
    {
      "midi": 59,
      "hit": false,
      "t": 42192.708333333314,
      "d": 190.10416666667152,
      "v": 97
    },
    {
      "midi": 48,
      "hit": false,
      "t": 42352.60416666665,
      "d": 165.10416666667152,
      "v": 101
    },
    {
      "midi": 36,
      "hit": false,
      "t": 42518.749999999985,
      "d": 118.75,
      "v": 82
    },
    {
      "midi": 64,
      "hit": false,
      "t": 42677.60416666665,
      "d": 140.10416666667152,
      "v": 93
    },
    {
      "midi": 52,
      "hit": false,
      "t": 42682.812499999985,
      "d": 95.83333333333576,
      "v": 95
    },
    {
      "midi": 62,
      "hit": false,
      "t": 42684.374999999985,
      "d": 157.29166666666424,
      "v": 85
    },
    {
      "midi": 55,
      "hit": false,
      "t": 42685.41666666665,
      "d": 136.97916666667152,
      "v": 93
    },
    {
      "midi": 59,
      "hit": false,
      "t": 42687.499999999985,
      "d": 135.9375,
      "v": 87
    },
    {
      "midi": 40,
      "hit": false,
      "t": 42697.39583333332,
      "d": 210.41666666666424,
      "v": 93
    },
    {
      "midi": 52,
      "hit": false,
      "t": 42837.499999999985,
      "d": 123.95833333333576,
      "v": 82
    },
    {
      "midi": 47,
      "hit": false,
      "t": 42947.39583333332,
      "d": 95.3125,
      "v": 69
    },
    {
      "midi": 55,
      "hit": false,
      "t": 42982.812499999985,
      "d": 95.83333333333576,
      "v": 90
    },
    {
      "midi": 40,
      "hit": false,
      "t": 43053.64583333332,
      "d": 89.0625,
      "v": 47
    },
    {
      "midi": 52,
      "hit": false,
      "t": 43182.812499999985,
      "d": 334.8958333333285,
      "v": 93
    },
    {
      "midi": 60,
      "hit": false,
      "t": 43187.499999999985,
      "d": 670.3124999999927,
      "v": 107
    },
    {
      "midi": 57,
      "hit": false,
      "t": 43188.54166666665,
      "d": 678.1249999999927,
      "v": 94
    },
    {
      "midi": 45,
      "hit": false,
      "t": 43192.708333333314,
      "d": 234.89583333333576,
      "v": 81
    },
    {
      "midi": 33,
      "hit": false,
      "t": 43197.395833333314,
      "d": 485.41666666666424,
      "v": 95
    },
    {
      "midi": 45,
      "hit": false,
      "t": 43532.81249999998,
      "d": 108.85416666667152,
      "v": 100
    },
    {
      "midi": 52,
      "hit": false,
      "t": 43667.708333333314,
      "d": 173.95833333332848,
      "v": 98
    },
    {
      "midi": 33,
      "hit": false,
      "t": 43826.56249999998,
      "d": 140.10416666666424,
      "v": 75
    },
    {
      "midi": 26,
      "hit": false,
      "t": 43977.60416666664,
      "d": 223.95833333332848,
      "v": 93
    },
    {
      "midi": 60,
      "hit": false,
      "t": 43987.49999999998,
      "d": 1229.1666666666715,
      "v": 93
    },
    {
      "midi": 57,
      "hit": false,
      "t": 43988.54166666664,
      "d": 1258.8541666666788,
      "v": 96
    },
    {
      "midi": 53,
      "hit": false,
      "t": 43992.70833333331,
      "d": 1240.1041666666788,
      "v": 94
    },
    {
      "midi": 38,
      "hit": false,
      "t": 44176.56249999997,
      "d": 84.89583333333576,
      "v": 70
    },
    {
      "midi": 28,
      "hit": false,
      "t": 44302.60416666664,
      "d": 243.75,
      "v": 93
    },
    {
      "midi": 40,
      "hit": false,
      "t": 44526.56249999998,
      "d": 85.9375,
      "v": 63
    },
    {
      "midi": 29,
      "hit": false,
      "t": 44647.395833333314,
      "d": 244.27083333333576,
      "v": 98
    },
    {
      "midi": 41,
      "hit": false,
      "t": 44866.66666666665,
      "d": 110.9375,
      "v": 70
    },
    {
      "midi": 30,
      "hit": false,
      "t": 44972.395833333314,
      "d": 254.16666666667152,
      "v": 82
    },
    {
      "midi": 42,
      "hit": false,
      "t": 45186.458333333314,
      "d": 116.14583333334303,
      "v": 68
    },
    {
      "midi": 31,
      "hit": false,
      "t": 45307.81249999999,
      "d": 228.64583333333576,
      "v": 86
    },
    {
      "midi": 53,
      "hit": false,
      "t": 45331.77083333333,
      "d": 1364.583333333314,
      "v": 98
    },
    {
      "midi": 60,
      "hit": false,
      "t": 45336.45833333333,
      "d": 1365.1041666666497,
      "v": 106
    },
    {
      "midi": 57,
      "hit": false,
      "t": 45341.666666666664,
      "d": 1329.6874999999782,
      "v": 99
    },
    {
      "midi": 43,
      "hit": false,
      "t": 45511.45833333333,
      "d": 96.35416666666424,
      "v": 55
    },
    {
      "midi": 33,
      "hit": false,
      "t": 45636.45833333333,
      "d": 242.1875,
      "v": 95
    },
    {
      "midi": 45,
      "hit": false,
      "t": 45862.49999999999,
      "d": 89.0625,
      "v": 67
    },
    {
      "midi": 34,
      "hit": false,
      "t": 45966.66666666666,
      "d": 245.83333333332848,
      "v": 92
    },
    {
      "midi": 46,
      "hit": false,
      "t": 46192.70833333332,
      "d": 103.64583333332848,
      "v": 75
    },
    {
      "midi": 35,
      "hit": false,
      "t": 46301.562499999985,
      "d": 206.77083333332848,
      "v": 93
    },
    {
      "midi": 47,
      "hit": false,
      "t": 46502.60416666665,
      "d": 98.95833333332848,
      "v": 94
    },
    {
      "midi": 36,
      "hit": false,
      "t": 46621.35416666664,
      "d": 435.41666666666424,
      "v": 94
    },
    {
      "midi": 52,
      "hit": false,
      "t": 46966.66666666664,
      "d": 125,
      "v": 102
    },
    {
      "midi": 59,
      "hit": false,
      "t": 46971.35416666664,
      "d": 172.39583333333576,
      "v": 100
    },
    {
      "midi": 48,
      "hit": false,
      "t": 46972.39583333331,
      "d": 94.27083333333576,
      "v": 96
    },
    {
      "midi": 62,
      "hit": false,
      "t": 46976.56249999997,
      "d": 160.93750000000728,
      "v": 115
    },
    {
      "midi": 55,
      "hit": false,
      "t": 46981.77083333331,
      "d": 145.83333333333576,
      "v": 113
    },
    {
      "midi": 38,
      "hit": false,
      "t": 47142.708333333314,
      "d": 114.0625,
      "v": 74
    },
    {
      "midi": 31,
      "hit": false,
      "t": 47281.770833333314,
      "d": 584.895833333343,
      "v": 86
    },
    {
      "midi": 65,
      "hit": false,
      "t": 47502.60416666665,
      "d": 218.75000000000728,
      "v": 94
    },
    {
      "midi": 53,
      "hit": false,
      "t": 47507.812499999985,
      "d": 290.625,
      "v": 92
    },
    {
      "midi": 57,
      "hit": false,
      "t": 47508.33333333332,
      "d": 244.27083333333576,
      "v": 94
    },
    {
      "midi": 60,
      "hit": false,
      "t": 47512.499999999985,
      "d": 230.20833333333576,
      "v": 102
    },
    {
      "midi": 43,
      "hit": false,
      "t": 47656.77083333332,
      "d": 190.625,
      "v": 90
    },
    {
      "midi": 38,
      "hit": false,
      "t": 47797.39583333332,
      "d": 119.27083333333576,
      "v": 72
    },
    {
      "midi": 36,
      "hit": false,
      "t": 47961.45833333332,
      "d": 485.9374999999927,
      "v": 94
    },
    {
      "midi": 59,
      "hit": false,
      "t": 47966.66666666666,
      "d": 249.99999999999272,
      "v": 89
    },
    {
      "midi": 55,
      "hit": false,
      "t": 47967.70833333332,
      "d": 223.95833333332848,
      "v": 94
    },
    {
      "midi": 52,
      "hit": false,
      "t": 47968.749999999985,
      "d": 183.85416666666424,
      "v": 90
    },
    {
      "midi": 62,
      "hit": false,
      "t": 47971.35416666665,
      "d": 186.45833333333576,
      "v": 96
    },
    {
      "midi": 52,
      "hit": false,
      "t": 48301.562499999985,
      "d": 116.14583333332848,
      "v": 94
    },
    {
      "midi": 62,
      "hit": false,
      "t": 48305.72916666665,
      "d": 156.77083333332848,
      "v": 100
    },
    {
      "midi": 55,
      "hit": false,
      "t": 48311.458333333314,
      "d": 160.9375,
      "v": 107
    },
    {
      "midi": 59,
      "hit": false,
      "t": 48311.458333333314,
      "d": 171.875,
      "v": 100
    },
    {
      "midi": 38,
      "hit": false,
      "t": 48482.81249999998,
      "d": 102.60416666667152,
      "v": 80
    },
    {
      "midi": 31,
      "hit": false,
      "t": 48615.624999999985,
      "d": 480.72916666665697,
      "v": 88
    },
    {
      "midi": 53,
      "hit": false,
      "t": 48821.35416666665,
      "d": 280.2083333333285,
      "v": 98
    },
    {
      "midi": 60,
      "hit": false,
      "t": 48821.35416666665,
      "d": 314.0625,
      "v": 100
    },
    {
      "midi": 62,
      "hit": false,
      "t": 48825.520833333314,
      "d": 285.9375,
      "v": 99
    },
    {
      "midi": 57,
      "hit": false,
      "t": 48826.56249999998,
      "d": 265.10416666666424,
      "v": 107
    },
    {
      "midi": 43,
      "hit": false,
      "t": 48985.41666666664,
      "d": 200.00000000000728,
      "v": 90
    },
    {
      "midi": 38,
      "hit": false,
      "t": 49125.520833333314,
      "d": 120.3125,
      "v": 75
    },
    {
      "midi": 55,
      "hit": false,
      "t": 49291.66666666665,
      "d": 189.0625,
      "v": 101
    },
    {
      "midi": 59,
      "hit": false,
      "t": 49292.708333333314,
      "d": 182.8125,
      "v": 93
    },
    {
      "midi": 52,
      "hit": false,
      "t": 49293.74999999998,
      "d": 166.66666666667152,
      "v": 96
    },
    {
      "midi": 62,
      "hit": false,
      "t": 49293.74999999998,
      "d": 177.08333333333576,
      "v": 96
    },
    {
      "midi": 36,
      "hit": false,
      "t": 49295.833333333314,
      "d": 209.89583333333576,
      "v": 98
    },
    {
      "midi": 59,
      "hit": false,
      "t": 49615.624999999985,
      "d": 159.89583333332848,
      "v": 85
    },
    {
      "midi": 55,
      "hit": false,
      "t": 49621.35416666665,
      "d": 164.0625,
      "v": 91
    },
    {
      "midi": 52,
      "hit": false,
      "t": 49622.395833333314,
      "d": 114.0625,
      "v": 89
    },
    {
      "midi": 62,
      "hit": false,
      "t": 49626.56249999998,
      "d": 159.89583333333576,
      "v": 99
    },
    {
      "midi": 36,
      "hit": false,
      "t": 49800.520833333314,
      "d": 680.208333333343,
      "v": 90
    },
    {
      "midi": 43,
      "hit": false,
      "t": 49801.56249999998,
      "d": 465.1041666666788,
      "v": 90
    },
    {
      "midi": 52,
      "hit": false,
      "t": 49961.458333333314,
      "d": 120.3125,
      "v": 92
    },
    {
      "midi": 52,
      "hit": false,
      "t": 50110.41666666665,
      "d": 191.14583333334303,
      "v": 78
    },
    {
      "midi": 55,
      "hit": false,
      "t": 50130.72916666665,
      "d": 171.87500000000728,
      "v": 97
    },
    {
      "midi": 59,
      "hit": false,
      "t": 50135.41666666665,
      "d": 181.25000000000728,
      "v": 82
    },
    {
      "midi": 62,
      "hit": false,
      "t": 50140.624999999985,
      "d": 195.83333333333576,
      "v": 96
    },
    {
      "midi": 48,
      "hit": false,
      "t": 50306.77083333332,
      "d": 189.0625,
      "v": 103
    },
    {
      "midi": 43,
      "hit": false,
      "t": 50430.72916666666,
      "d": 130.72916666666424,
      "v": 80
    },
    {
      "midi": 43,
      "hit": false,
      "t": 50606.77083333332,
      "d": 253.64583333333576,
      "v": 65
    },
    {
      "midi": 48,
      "hit": false,
      "t": 50621.35416666666,
      "d": 179.16666666666424,
      "v": 110
    },
    {
      "midi": 36,
      "hit": false,
      "t": 50623.437499999985,
      "d": 211.97916666667152,
      "v": 95
    },
    {
      "midi": 62,
      "hit": false,
      "t": 50624.47916666665,
      "d": 126.04166666667152,
      "v": 92
    },
    {
      "midi": 53,
      "hit": false,
      "t": 50626.562499999985,
      "d": 80.20833333333576,
      "v": 96
    },
    {
      "midi": 60,
      "hit": false,
      "t": 50631.77083333332,
      "d": 93.75,
      "v": 93
    },
    {
      "midi": 58,
      "hit": false,
      "t": 50632.812499999985,
      "d": 107.8125,
      "v": 90
    },
    {
      "midi": 58,
      "hit": false,
      "t": 50795.83333333332,
      "d": 95.83333333333576,
      "v": 76
    },
    {
      "midi": 60,
      "hit": false,
      "t": 50961.45833333332,
      "d": 104.16666666666424,
      "v": 96
    },
    {
      "midi": 60,
      "hit": false,
      "t": 51095.83333333332,
      "d": 289.58333333333576,
      "v": 68
    },
    {
      "midi": 70,
      "hit": false,
      "t": 51105.72916666666,
      "d": 240.10416666666424,
      "v": 84
    },
    {
      "midi": 65,
      "hit": false,
      "t": 51115.62499999999,
      "d": 294.79166666666424,
      "v": 87
    },
    {
      "midi": 58,
      "hit": false,
      "t": 51120.83333333333,
      "d": 205.72916666666424,
      "v": 94
    },
    {
      "midi": 43,
      "hit": false,
      "t": 51135.416666666664,
      "d": 491.1458333333212,
      "v": 101
    },
    {
      "midi": 68,
      "hit": false,
      "t": 51136.45833333333,
      "d": 205.20833333332848,
      "v": 20
    },
    {
      "midi": 36,
      "hit": false,
      "t": 51137.49999999999,
      "d": 683.8541666666642,
      "v": 102
    },
    {
      "midi": 69,
      "hit": false,
      "t": 51450.52083333332,
      "d": 135.9375,
      "v": 90
    },
    {
      "midi": 67,
      "hit": false,
      "t": 51611.45833333332,
      "d": 109.375,
      "v": 91
    },
    {
      "midi": 48,
      "hit": false,
      "t": 51636.45833333332,
      "d": 173.95833333333576,
      "v": 103
    },
    {
      "midi": 65,
      "hit": false,
      "t": 51755.72916666666,
      "d": 105.72916666666424,
      "v": 90
    },
    {
      "midi": 43,
      "hit": false,
      "t": 51756.77083333332,
      "d": 119.79166666666424,
      "v": 90
    },
    {
      "midi": 41,
      "hit": false,
      "t": 51926.562499999985,
      "d": 444.2708333333285,
      "v": 91
    },
    {
      "midi": 48,
      "hit": false,
      "t": 51927.60416666665,
      "d": 293.75,
      "v": 104
    },
    {
      "midi": 60,
      "hit": false,
      "t": 51936.458333333314,
      "d": 220.3125,
      "v": 114
    },
    {
      "midi": 55,
      "hit": false,
      "t": 52251.562499999985,
      "d": 169.27083333333576,
      "v": 107
    },
    {
      "midi": 64,
      "hit": false,
      "t": 52252.60416666665,
      "d": 157.8125,
      "v": 109
    },
    {
      "midi": 60,
      "hit": false,
      "t": 52266.66666666665,
      "d": 154.68750000000728,
      "v": 120
    },
    {
      "midi": 48,
      "hit": false,
      "t": 52415.624999999985,
      "d": 284.8958333333285,
      "v": 94
    },
    {
      "midi": 40,
      "hit": false,
      "t": 52640.624999999985,
      "d": 400,
      "v": 80
    },
    {
      "midi": 59,
      "hit": false,
      "t": 52750.520833333314,
      "d": 385.9375,
      "v": 108
    },
    {
      "midi": 55,
      "hit": false,
      "t": 52761.458333333314,
      "d": 269.27083333333576,
      "v": 113
    },
    {
      "midi": 62,
      "hit": false,
      "t": 52762.49999999998,
      "d": 308.8541666666715,
      "v": 112
    },
    {
      "midi": 47,
      "hit": false,
      "t": 53000.520833333314,
      "d": 131.25,
      "v": 93
    },
    {
      "midi": 45,
      "hit": false,
      "t": 53186.458333333314,
      "d": 119.27083333332848,
      "v": 81
    },
    {
      "midi": 57,
      "hit": false,
      "t": 53250.520833333314,
      "d": 119.27083333332848,
      "v": 94
    },
    {
      "midi": 38,
      "hit": false,
      "t": 53255.72916666665,
      "d": 419.79166666665697,
      "v": 89
    },
    {
      "midi": 60,
      "hit": false,
      "t": 53256.770833333314,
      "d": 129.68749999999272,
      "v": 102
    },
    {
      "midi": 53,
      "hit": false,
      "t": 53257.81249999998,
      "d": 97.91666666666424,
      "v": 97
    },
    {
      "midi": 53,
      "hit": false,
      "t": 53416.66666666664,
      "d": 104.6875,
      "v": 78
    },
    {
      "midi": 57,
      "hit": false,
      "t": 53561.45833333331,
      "d": 114.0625,
      "v": 100
    },
    {
      "midi": 50,
      "hit": false,
      "t": 53590.62499999997,
      "d": 75,
      "v": 93
    },
    {
      "midi": 57,
      "hit": false,
      "t": 53721.35416666664,
      "d": 689.0625,
      "v": 87
    },
    {
      "midi": 53,
      "hit": false,
      "t": 53730.72916666664,
      "d": 334.89583333333576,
      "v": 98
    },
    {
      "midi": 60,
      "hit": false,
      "t": 53736.45833333331,
      "d": 684.3750000000073,
      "v": 98
    },
    {
      "midi": 43,
      "hit": false,
      "t": 53770.83333333331,
      "d": 339.58333333333576,
      "v": 94
    },
    {
      "midi": 50,
      "hit": false,
      "t": 54085.41666666664,
      "d": 189.0625,
      "v": 103
    },
    {
      "midi": 53,
      "hit": false,
      "t": 54204.68749999998,
      "d": 195.83333333332848,
      "v": 98
    },
    {
      "midi": 43,
      "hit": false,
      "t": 54385.41666666664,
      "d": 100.00000000000728,
      "v": 89
    },
    {
      "midi": 36,
      "hit": false,
      "t": 54534.374999999985,
      "d": 451.0416666666715,
      "v": 98
    },
    {
      "midi": 52,
      "hit": false,
      "t": 54864.58333333332,
      "d": 85.9375,
      "v": 98
    },
    {
      "midi": 59,
      "hit": false,
      "t": 54865.624999999985,
      "d": 150.00000000000728,
      "v": 98
    },
    {
      "midi": 55,
      "hit": false,
      "t": 54869.79166666665,
      "d": 105.72916666667152,
      "v": 109
    },
    {
      "midi": 62,
      "hit": false,
      "t": 54874.47916666665,
      "d": 135.93750000000728,
      "v": 106
    },
    {
      "midi": 48,
      "hit": false,
      "t": 54884.374999999985,
      "d": 102.08333333333576,
      "v": 94
    },
    {
      "midi": 38,
      "hit": false,
      "t": 55055.72916666666,
      "d": 93.75,
      "v": 84
    },
    {
      "midi": 31,
      "hit": false,
      "t": 55174.47916666666,
      "d": 501.04166666665697,
      "v": 86
    },
    {
      "midi": 57,
      "hit": false,
      "t": 55375.52083333332,
      "d": 216.14583333332848,
      "v": 94
    },
    {
      "midi": 53,
      "hit": false,
      "t": 55376.562499999985,
      "d": 214.0625,
      "v": 91
    },
    {
      "midi": 65,
      "hit": false,
      "t": 55377.60416666665,
      "d": 181.77083333333576,
      "v": 93
    },
    {
      "midi": 60,
      "hit": false,
      "t": 55380.72916666665,
      "d": 204.6875,
      "v": 98
    },
    {
      "midi": 43,
      "hit": false,
      "t": 55544.79166666665,
      "d": 180.72916666666424,
      "v": 87
    },
    {
      "midi": 38,
      "hit": false,
      "t": 55680.72916666665,
      "d": 103.64583333332848,
      "v": 67
    },
    {
      "midi": 52,
      "hit": false,
      "t": 55834.37499999998,
      "d": 121.35416666665697,
      "v": 86
    },
    {
      "midi": 59,
      "hit": false,
      "t": 55835.41666666664,
      "d": 220.31249999999272,
      "v": 84
    },
    {
      "midi": 55,
      "hit": false,
      "t": 55839.58333333331,
      "d": 176.04166666666424,
      "v": 91
    },
    {
      "midi": 62,
      "hit": false,
      "t": 55840.62499999997,
      "d": 150,
      "v": 90
    },
    {
      "midi": 36,
      "hit": false,
      "t": 55844.791666666635,
      "d": 435.9374999999927,
      "v": 90
    },
    {
      "midi": 52,
      "hit": false,
      "t": 56169.791666666635,
      "d": 85.93749999999272,
      "v": 102
    },
    {
      "midi": 55,
      "hit": false,
      "t": 56174.479166666635,
      "d": 177.0833333333212,
      "v": 107
    },
    {
      "midi": 62,
      "hit": false,
      "t": 56175.5208333333,
      "d": 145.31249999999272,
      "v": 102
    },
    {
      "midi": 59,
      "hit": false,
      "t": 56176.56249999996,
      "d": 173.95833333332848,
      "v": 103
    },
    {
      "midi": 38,
      "hit": false,
      "t": 56335.41666666663,
      "d": 114.06249999999272,
      "v": 88
    },
    {
      "midi": 31,
      "hit": false,
      "t": 56474.47916666662,
      "d": 481.25,
      "v": 86
    },
    {
      "midi": 53,
      "hit": false,
      "t": 56660.41666666662,
      "d": 251.04166666666424,
      "v": 93
    },
    {
      "midi": 60,
      "hit": false,
      "t": 56665.624999999956,
      "d": 305.20833333333576,
      "v": 106
    },
    {
      "midi": 57,
      "hit": false,
      "t": 56670.83333333329,
      "d": 239.58333333332848,
      "v": 97
    },
    {
      "midi": 43,
      "hit": false,
      "t": 56840.624999999956,
      "d": 169.79166666667152,
      "v": 87
    },
    {
      "midi": 38,
      "hit": false,
      "t": 56965.624999999956,
      "d": 118.75000000000728,
      "v": 72
    },
    {
      "midi": 55,
      "hit": false,
      "t": 57145.8333333333,
      "d": 204.6875,
      "v": 91
    },
    {
      "midi": 59,
      "hit": false,
      "t": 57146.354166666635,
      "d": 204.16666666666424,
      "v": 79
    },
    {
      "midi": 62,
      "hit": false,
      "t": 57147.3958333333,
      "d": 173.4375,
      "v": 90
    },
    {
      "midi": 52,
      "hit": false,
      "t": 57150.5208333333,
      "d": 140.10416666666424,
      "v": 80
    },
    {
      "midi": 36,
      "hit": false,
      "t": 57151.56249999996,
      "d": 479.16666666666424,
      "v": 87
    },
    {
      "midi": 62,
      "hit": false,
      "t": 57480.729166666635,
      "d": 159.89583333332848,
      "v": 100
    },
    {
      "midi": 52,
      "hit": false,
      "t": 57481.7708333333,
      "d": 98.95833333332848,
      "v": 93
    },
    {
      "midi": 59,
      "hit": false,
      "t": 57482.81249999996,
      "d": 186.97916666666424,
      "v": 93
    },
    {
      "midi": 55,
      "hit": false,
      "t": 57485.41666666663,
      "d": 180.20833333333576,
      "v": 104
    },
    {
      "midi": 38,
      "hit": false,
      "t": 57655.72916666663,
      "d": 144.79166666666424,
      "v": 82
    },
    {
      "midi": 31,
      "hit": false,
      "t": 57815.624999999956,
      "d": 475.0000000000073,
      "v": 77
    },
    {
      "midi": 57,
      "hit": false,
      "t": 57989.58333333329,
      "d": 216.14583333333576,
      "v": 93
    },
    {
      "midi": 60,
      "hit": false,
      "t": 57994.79166666663,
      "d": 220.83333333333576,
      "v": 92
    },
    {
      "midi": 53,
      "hit": false,
      "t": 57995.83333333329,
      "d": 204.6875,
      "v": 87
    },
    {
      "midi": 43,
      "hit": false,
      "t": 58160.41666666663,
      "d": 189.0625,
      "v": 80
    },
    {
      "midi": 38,
      "hit": false,
      "t": 58305.72916666663,
      "d": 115.10416666666424,
      "v": 65
    },
    {
      "midi": 59,
      "hit": false,
      "t": 58460.41666666663,
      "d": 146.35416666666424,
      "v": 73
    },
    {
      "midi": 62,
      "hit": false,
      "t": 58470.8333333333,
      "d": 148.9583333333212,
      "v": 83
    },
    {
      "midi": 52,
      "hit": false,
      "t": 58475.5208333333,
      "d": 133.85416666665697,
      "v": 64
    },
    {
      "midi": 36,
      "hit": false,
      "t": 58476.56249999996,
      "d": 471.87499999998545,
      "v": 81
    },
    {
      "midi": 55,
      "hit": false,
      "t": 58477.60416666663,
      "d": 128.125,
      "v": 77
    },
    {
      "midi": 52,
      "hit": false,
      "t": 58785.41666666662,
      "d": 129.16666666666424,
      "v": 41
    },
    {
      "midi": 59,
      "hit": false,
      "t": 58805.72916666662,
      "d": 173.95833333333576,
      "v": 93
    },
    {
      "midi": 55,
      "hit": false,
      "t": 58810.41666666662,
      "d": 159.375,
      "v": 98
    },
    {
      "midi": 62,
      "hit": false,
      "t": 58810.41666666662,
      "d": 169.27083333333576,
      "v": 96
    },
    {
      "midi": 38,
      "hit": false,
      "t": 58958.333333333285,
      "d": 116.14583333333576,
      "v": 71
    },
    {
      "midi": 31,
      "hit": false,
      "t": 59114.583333333285,
      "d": 340.10416666666424,
      "v": 80
    },
    {
      "midi": 53,
      "hit": false,
      "t": 59293.74999999995,
      "d": 126.04166666666424,
      "v": 98
    },
    {
      "midi": 57,
      "hit": false,
      "t": 59299.47916666661,
      "d": 156.25,
      "v": 108
    },
    {
      "midi": 60,
      "hit": false,
      "t": 59299.47916666661,
      "d": 165.10416666667152,
      "v": 106
    },
    {
      "midi": 43,
      "hit": false,
      "t": 59459.37499999995,
      "d": 90.10416666667152,
      "v": 81
    },
    {
      "midi": 43,
      "hit": false,
      "t": 59593.749999999956,
      "d": 105.72916666666424,
      "v": 48
    },
    {
      "midi": 36,
      "hit": false,
      "t": 59764.583333333285,
      "d": 489.06249999998545,
      "v": 90
    },
    {
      "midi": 59,
      "hit": false,
      "t": 60139.58333333328,
      "d": 520.8333333333358,
      "v": 114
    },
    {
      "midi": 62,
      "hit": false,
      "t": 60140.62499999994,
      "d": 518.7500000000073,
      "v": 116
    },
    {
      "midi": 55,
      "hit": false,
      "t": 60141.666666666606,
      "d": 328.1250000000073,
      "v": 115
    },
    {
      "midi": 48,
      "hit": false,
      "t": 60149.479166666606,
      "d": 108.85416666666424,
      "v": 94
    },
    {
      "midi": 40,
      "hit": false,
      "t": 60319.791666666606,
      "d": 109.89583333333576,
      "v": 49
    },
    {
      "midi": 33,
      "hit": false,
      "t": 60454.68749999994,
      "d": 615.1041666666788,
      "v": 78
    },
    {
      "midi": 55,
      "hit": false,
      "t": 60699.47916666661,
      "d": 209.89583333333576,
      "v": 75
    },
    {
      "midi": 45,
      "hit": false,
      "t": 60804.68749999995,
      "d": 259.89583333333576,
      "v": 56
    },
    {
      "midi": 59,
      "hit": false,
      "t": 60809.37499999995,
      "d": 156.25,
      "v": 88
    },
    {
      "midi": 62,
      "hit": false,
      "t": 60814.583333333285,
      "d": 150,
      "v": 89
    },
    {
      "midi": 40,
      "hit": false,
      "t": 61009.37499999995,
      "d": 110.41666666667152,
      "v": 56
    },
    {
      "midi": 57,
      "hit": false,
      "t": 61029.68749999995,
      "d": 369.7916666666715,
      "v": 97
    },
    {
      "midi": 53,
      "hit": false,
      "t": 61030.72916666661,
      "d": 214.06250000000728,
      "v": 94
    },
    {
      "midi": 60,
      "hit": false,
      "t": 61034.37499999995,
      "d": 367.1875,
      "v": 100
    },
    {
      "midi": 38,
      "hit": false,
      "t": 61163.54166666662,
      "d": 359.8958333333285,
      "v": 82
    },
    {
      "midi": 53,
      "hit": false,
      "t": 61400.520833333285,
      "d": 269.2708333333285,
      "v": 64
    },
    {
      "midi": 60,
      "hit": false,
      "t": 61513.54166666661,
      "d": 210.9375,
      "v": 104
    },
    {
      "midi": 57,
      "hit": false,
      "t": 61518.74999999995,
      "d": 190.625,
      "v": 115
    },
    {
      "midi": 45,
      "hit": false,
      "t": 61524.47916666661,
      "d": 245.3125,
      "v": 67
    },
    {
      "midi": 38,
      "hit": false,
      "t": 61725.52083333328,
      "d": 118.22916666667152,
      "v": 38
    },
    {
      "midi": 53,
      "hit": false,
      "t": 61774.47916666661,
      "d": 245.3125,
      "v": 62
    },
    {
      "midi": 31,
      "hit": false,
      "t": 61864.583333333285,
      "d": 593.7499999999854,
      "v": 75
    },
    {
      "midi": 57,
      "hit": false,
      "t": 61865.62499999995,
      "d": 179.16666666666424,
      "v": 85
    },
    {
      "midi": 60,
      "hit": false,
      "t": 61869.79166666661,
      "d": 189.58333333333576,
      "v": 87
    },
    {
      "midi": 53,
      "hit": false,
      "t": 62094.79166666661,
      "d": 174.99999999999272,
      "v": 84
    },
    {
      "midi": 59,
      "hit": false,
      "t": 62099.47916666661,
      "d": 205.20833333332848,
      "v": 102
    },
    {
      "midi": 62,
      "hit": false,
      "t": 62103.64583333328,
      "d": 216.14583333332848,
      "v": 102
    },
    {
      "midi": 43,
      "hit": false,
      "t": 62229.68749999994,
      "d": 274.9999999999927,
      "v": 87
    },
    {
      "midi": 38,
      "hit": false,
      "t": 62389.58333333327,
      "d": 144.79166666666424,
      "v": 36
    },
    {
      "midi": 59,
      "hit": false,
      "t": 62438.541666666606,
      "d": 441.1458333333285,
      "v": 94
    },
    {
      "midi": 62,
      "hit": false,
      "t": 62439.58333333327,
      "d": 384.8958333333285,
      "v": 98
    },
    {
      "midi": 55,
      "hit": false,
      "t": 62440.624999999935,
      "d": 317.7083333333285,
      "v": 97
    },
    {
      "midi": 36,
      "hit": false,
      "t": 62574.4791666666,
      "d": 395.3124999999927,
      "v": 90
    },
    {
      "midi": 59,
      "hit": false,
      "t": 62959.374999999935,
      "d": 195.31249999999272,
      "v": 95
    },
    {
      "midi": 55,
      "hit": false,
      "t": 62960.4166666666,
      "d": 148.95833333332848,
      "v": 100
    },
    {
      "midi": 62,
      "hit": false,
      "t": 62964.58333333326,
      "d": 191.14583333332848,
      "v": 117
    },
    {
      "midi": 48,
      "hit": false,
      "t": 62965.62499999993,
      "d": 183.85416666666424,
      "v": 90
    },
    {
      "midi": 40,
      "hit": false,
      "t": 63159.37499999993,
      "d": 140.10416666666424,
      "v": 58
    },
    {
      "midi": 33,
      "hit": false,
      "t": 63300.520833333256,
      "d": 614.0625,
      "v": 89
    },
    {
      "midi": 55,
      "hit": false,
      "t": 63559.37499999992,
      "d": 190.10416666666424,
      "v": 82
    },
    {
      "midi": 62,
      "hit": false,
      "t": 63649.479166666584,
      "d": 180.20833333333576,
      "v": 100
    },
    {
      "midi": 45,
      "hit": false,
      "t": 63649.479166666584,
      "d": 275.0000000000073,
      "v": 79
    },
    {
      "midi": 59,
      "hit": false,
      "t": 63654.68749999992,
      "d": 190.10416666666424,
      "v": 94
    },
    {
      "midi": 40,
      "hit": false,
      "t": 63873.43749999992,
      "d": 130.20833333333576,
      "v": 49
    },
    {
      "midi": 53,
      "hit": false,
      "t": 63889.583333333256,
      "d": 218.75,
      "v": 97
    },
    {
      "midi": 57,
      "hit": false,
      "t": 63889.583333333256,
      "d": 365.10416666666424,
      "v": 94
    },
    {
      "midi": 60,
      "hit": false,
      "t": 63893.74999999992,
      "d": 364.58333333333576,
      "v": 102
    },
    {
      "midi": 38,
      "hit": false,
      "t": 64017.708333333256,
      "d": 361.97916666666424,
      "v": 84
    },
    {
      "midi": 53,
      "hit": false,
      "t": 64254.68749999992,
      "d": 264.0625,
      "v": 64
    },
    {
      "midi": 45,
      "hit": false,
      "t": 64368.74999999992,
      "d": 259.89583333333576,
      "v": 76
    },
    {
      "midi": 57,
      "hit": false,
      "t": 64380.729166666584,
      "d": 197.91666666667152,
      "v": 107
    },
    {
      "midi": 60,
      "hit": false,
      "t": 64380.729166666584,
      "d": 202.60416666667152,
      "v": 104
    },
    {
      "midi": 38,
      "hit": false,
      "t": 64573.43749999992,
      "d": 130.20833333333576,
      "v": 44
    },
    {
      "midi": 53,
      "hit": false,
      "t": 64623.43749999992,
      "d": 220.3125,
      "v": 64
    },
    {
      "midi": 57,
      "hit": false,
      "t": 64718.74999999992,
      "d": 169.79166666666424,
      "v": 87
    },
    {
      "midi": 60,
      "hit": false,
      "t": 64719.791666666584,
      "d": 183.85416666666424,
      "v": 85
    },
    {
      "midi": 31,
      "hit": false,
      "t": 64728.64583333325,
      "d": 595.8333333333285,
      "v": 77
    },
    {
      "midi": 59,
      "hit": false,
      "t": 64948.43749999991,
      "d": 200,
      "v": 102
    },
    {
      "midi": 53,
      "hit": false,
      "t": 64953.64583333325,
      "d": 154.6875,
      "v": 97
    },
    {
      "midi": 62,
      "hit": false,
      "t": 64958.33333333325,
      "d": 210.41666666666424,
      "v": 104
    },
    {
      "midi": 43,
      "hit": false,
      "t": 65083.33333333325,
      "d": 240.10416666666424,
      "v": 89
    },
    {
      "midi": 38,
      "hit": false,
      "t": 65253.64583333325,
      "d": 124.99999999999272,
      "v": 65
    },
    {
      "midi": 59,
      "hit": false,
      "t": 65273.43749999991,
      "d": 409.89583333331393,
      "v": 91
    },
    {
      "midi": 55,
      "hit": false,
      "t": 65277.60416666658,
      "d": 295.8333333333212,
      "v": 97
    },
    {
      "midi": 62,
      "hit": false,
      "t": 65282.81249999991,
      "d": 360.93749999998545,
      "v": 102
    },
    {
      "midi": 36,
      "hit": false,
      "t": 65418.749999999905,
      "d": 395.83333333333576,
      "v": 90
    },
    {
      "midi": 48,
      "hit": false,
      "t": 65803.64583333323,
      "d": 169.79166666667152,
      "v": 90
    },
    {
      "midi": 59,
      "hit": false,
      "t": 65808.33333333323,
      "d": 180.20833333332848,
      "v": 115
    },
    {
      "midi": 55,
      "hit": false,
      "t": 65810.41666666657,
      "d": 153.125,
      "v": 113
    },
    {
      "midi": 62,
      "hit": false,
      "t": 65813.54166666657,
      "d": 165.10416666665697,
      "v": 118
    },
    {
      "midi": 40,
      "hit": false,
      "t": 66003.64583333323,
      "d": 140.10416666667152,
      "v": 61
    },
    {
      "midi": 33,
      "hit": false,
      "t": 66144.79166666657,
      "d": 623.9583333333721,
      "v": 88
    },
    {
      "midi": 55,
      "hit": false,
      "t": 66403.64583333324,
      "d": 234.8958333333576,
      "v": 44
    },
    {
      "midi": 45,
      "hit": false,
      "t": 66488.54166666658,
      "d": 265.10416666668607,
      "v": 78
    },
    {
      "midi": 59,
      "hit": false,
      "t": 66508.33333333326,
      "d": 185.41666666667152,
      "v": 96
    },
    {
      "midi": 62,
      "hit": false,
      "t": 66509.37499999993,
      "d": 159.375,
      "v": 104
    },
    {
      "midi": 40,
      "hit": false,
      "t": 66698.43749999993,
      "d": 134.89583333334303,
      "v": 56
    },
    {
      "midi": 60,
      "hit": false,
      "t": 66738.5416666666,
      "d": 369.79166666668607,
      "v": 100
    },
    {
      "midi": 53,
      "hit": false,
      "t": 66739.58333333327,
      "d": 208.85416666667152,
      "v": 94
    },
    {
      "midi": 57,
      "hit": false,
      "t": 66740.62499999994,
      "d": 357.8125,
      "v": 94
    },
    {
      "midi": 38,
      "hit": false,
      "t": 66858.33333333327,
      "d": 360.41666666668607,
      "v": 82
    },
    {
      "midi": 53,
      "hit": false,
      "t": 67099.47916666661,
      "d": 229.16666666668607,
      "v": 67
    },
    {
      "midi": 45,
      "hit": false,
      "t": 67219.79166666663,
      "d": 263.5416666666715,
      "v": 79
    },
    {
      "midi": 60,
      "hit": false,
      "t": 67228.6458333333,
      "d": 184.89583333332848,
      "v": 106
    },
    {
      "midi": 57,
      "hit": false,
      "t": 67229.68749999997,
      "d": 178.64583333332848,
      "v": 108
    },
    {
      "midi": 38,
      "hit": false,
      "t": 67433.3333333333,
      "d": 115.10416666667152,
      "v": 53
    },
    {
      "midi": 53,
      "hit": false,
      "t": 67468.74999999997,
      "d": 219.7916666666424,
      "v": 32
    },
    {
      "midi": 57,
      "hit": false,
      "t": 67558.3333333333,
      "d": 190.1041666666424,
      "v": 86
    },
    {
      "midi": 60,
      "hit": false,
      "t": 67563.54166666663,
      "d": 190.1041666666424,
      "v": 84
    },
    {
      "midi": 31,
      "hit": false,
      "t": 67568.74999999996,
      "d": 319.79166666665697,
      "v": 84
    },
    {
      "midi": 59,
      "hit": false,
      "t": 67798.43749999994,
      "d": 240.10416666668607,
      "v": 103
    },
    {
      "midi": 62,
      "hit": false,
      "t": 67799.47916666661,
      "d": 214.06250000001455,
      "v": 108
    },
    {
      "midi": 53,
      "hit": false,
      "t": 67801.56249999994,
      "d": 167.18750000001455,
      "v": 104
    },
    {
      "midi": 45,
      "hit": false,
      "t": 67903.64583333328,
      "d": 244.79166666668607,
      "v": 71
    },
    {
      "midi": 53,
      "hit": false,
      "t": 68113.54166666663,
      "d": 209.89583333334303,
      "v": 88
    },
    {
      "midi": 57,
      "hit": false,
      "t": 68123.43749999996,
      "d": 365.1041666666715,
      "v": 94
    },
    {
      "midi": 60,
      "hit": false,
      "t": 68124.47916666663,
      "d": 379.1666666666715,
      "v": 97
    },
    {
      "midi": 31,
      "hit": false,
      "t": 68128.6458333333,
      "d": 115.10416666667152,
      "v": 68
    },
    {
      "midi": 38,
      "hit": false,
      "t": 68273.43749999997,
      "d": 309.8958333333285,
      "v": 85
    },
    {
      "midi": 53,
      "hit": false,
      "t": 68478.6458333333,
      "d": 107.29166666667152,
      "v": 82
    },
    {
      "midi": 53,
      "hit": false,
      "t": 68603.6458333333,
      "d": 34.89583333332848,
      "v": 71
    },
    {
      "midi": 57,
      "hit": false,
      "t": 68623.43749999997,
      "d": 195.31249999998545,
      "v": 100
    },
    {
      "midi": 60,
      "hit": false,
      "t": 68633.3333333333,
      "d": 190.10416666665697,
      "v": 115
    },
    {
      "midi": 38,
      "hit": false,
      "t": 68828.64583333328,
      "d": 104.6875,
      "v": 54
    },
    {
      "midi": 53,
      "hit": false,
      "t": 68842.70833333328,
      "d": 231.77083333334303,
      "v": 74
    },
    {
      "midi": 57,
      "hit": false,
      "t": 68953.64583333328,
      "d": 168.75,
      "v": 94
    },
    {
      "midi": 60,
      "hit": false,
      "t": 68958.33333333328,
      "d": 179.16666666667152,
      "v": 89
    },
    {
      "midi": 31,
      "hit": false,
      "t": 68962.49999999996,
      "d": 240.10416666667152,
      "v": 84
    },
    {
      "midi": 59,
      "hit": false,
      "t": 69178.64583333328,
      "d": 229.16666666667152,
      "v": 96
    },
    {
      "midi": 53,
      "hit": false,
      "t": 69179.68749999996,
      "d": 182.8125,
      "v": 97
    },
    {
      "midi": 62,
      "hit": false,
      "t": 69180.72916666663,
      "d": 231.77083333332848,
      "v": 100
    },
    {
      "midi": 31,
      "hit": false,
      "t": 69317.70833333328,
      "d": 269.7916666666715,
      "v": 97
    },
    {
      "midi": 59,
      "hit": false,
      "t": 69497.39583333328,
      "d": 1720.3125000000146,
      "v": 94
    },
    {
      "midi": 62,
      "hit": false,
      "t": 69503.64583333328,
      "d": 1698.958333333343,
      "v": 100
    },
    {
      "midi": 52,
      "hit": false,
      "t": 69503.64583333328,
      "d": 1716.1458333333576,
      "v": 96
    },
    {
      "midi": 55,
      "hit": false,
      "t": 69504.68749999996,
      "d": 1714.0625000000146,
      "v": 97
    },
    {
      "midi": 36,
      "hit": false,
      "t": 69647.39583333328,
      "d": 275,
      "v": 102
    },
    {
      "midi": 31,
      "hit": false,
      "t": 70052.60416666661,
      "d": 280.7291666666715,
      "v": 108
    },
    {
      "midi": 33,
      "hit": false,
      "t": 70492.70833333328,
      "d": 365.1041666666715,
      "v": 109
    },
    {
      "midi": 35,
      "hit": false,
      "t": 71002.60416666663,
      "d": 525.0000000000146,
      "v": 113
    },
    {
      "midi": 36,
      "hit": false,
      "t": 71612.49999999997,
      "d": 734.8958333333285,
      "v": 108
    },
    {
      "midi": 59,
      "hit": false,
      "t": 72302.60416666663,
      "d": 220.83333333334303,
      "v": 112
    },
    {
      "midi": 62,
      "hit": false,
      "t": 72303.6458333333,
      "d": 225,
      "v": 115
    },
    {
      "midi": 55,
      "hit": false,
      "t": 72304.68749999997,
      "d": 192.70833333332848,
      "v": 113
    },
    {
      "midi": 33,
      "hit": false,
      "t": 72967.7083333333,
      "d": 749.9999999999854,
      "v": 89
    },
    {
      "midi": 59,
      "hit": false,
      "t": 73632.81249999996,
      "d": 175.52083333332848,
      "v": 103
    },
    {
      "midi": 62,
      "hit": false,
      "t": 73633.33333333328,
      "d": 165.10416666667152,
      "v": 108
    },
    {
      "midi": 55,
      "hit": false,
      "t": 73634.37499999996,
      "d": 148.95833333332848,
      "v": 105
    },
    {
      "midi": 38,
      "hit": false,
      "t": 74236.45833333328,
      "d": 615.104166666657,
      "v": 88
    },
    {
      "midi": 53,
      "hit": false,
      "t": 74636.45833333328,
      "d": 280.2083333333285,
      "v": 78
    },
    {
      "midi": 57,
      "hit": false,
      "t": 74763.54166666661,
      "d": 308.8541666666715,
      "v": 108
    },
    {
      "midi": 60,
      "hit": false,
      "t": 74763.54166666661,
      "d": 309.89583333334303,
      "v": 98
    },
    {
      "midi": 53,
      "hit": false,
      "t": 75052.60416666661,
      "d": 315.1041666667006,
      "v": 73
    },
    {
      "midi": 38,
      "hit": false,
      "t": 75077.60416666663,
      "d": 114.0625,
      "v": 67
    },
    {
      "midi": 60,
      "hit": false,
      "t": 75206.7708333333,
      "d": 200.00000000001455,
      "v": 96
    },
    {
      "midi": 57,
      "hit": false,
      "t": 75207.81249999997,
      "d": 189.58333333334303,
      "v": 94
    },
    {
      "midi": 31,
      "hit": false,
      "t": 75216.66666666664,
      "d": 654.6875,
      "v": 90
    },
    {
      "midi": 59,
      "hit": false,
      "t": 75461.45833333331,
      "d": 430.2083333333285,
      "v": 100
    },
    {
      "midi": 53,
      "hit": false,
      "t": 75466.66666666664,
      "d": 394.7916666666715,
      "v": 99
    },
    {
      "midi": 62,
      "hit": false,
      "t": 75471.35416666664,
      "d": 335.4166666666715,
      "v": 106
    },
    {
      "midi": 43,
      "hit": false,
      "t": 75591.66666666664,
      "d": 301.0416666666715,
      "v": 96
    },
    {
      "midi": 38,
      "hit": false,
      "t": 75836.45833333331,
      "d": 95.3125,
      "v": 70
    },
    {
      "midi": 36,
      "hit": false,
      "t": 75972.39583333331,
      "d": 384.375,
      "v": 94
    },
    {
      "midi": 52,
      "hit": false,
      "t": 76362.49999999999,
      "d": 169.27083333334303,
      "v": 99
    },
    {
      "midi": 59,
      "hit": false,
      "t": 76362.49999999999,
      "d": 183.85416666667152,
      "v": 102
    },
    {
      "midi": 55,
      "hit": false,
      "t": 76371.35416666666,
      "d": 195.3125,
      "v": 105
    },
    {
      "midi": 62,
      "hit": false,
      "t": 76372.39583333333,
      "d": 154.16666666667152,
      "v": 115
    },
    {
      "midi": 40,
      "hit": false,
      "t": 76597.39583333333,
      "d": 123.95833333332848,
      "v": 64
    },
    {
      "midi": 33,
      "hit": false,
      "t": 76736.45833333333,
      "d": 625,
      "v": 90
    },
    {
      "midi": 55,
      "hit": false,
      "t": 76991.66666666666,
      "d": 235.9375,
      "v": 100
    },
    {
      "midi": 52,
      "hit": false,
      "t": 76992.70833333333,
      "d": 198.95833333332848,
      "v": 93
    },
    {
      "midi": 59,
      "hit": false,
      "t": 76994.79166666666,
      "d": 252.60416666667152,
      "v": 95
    },
    {
      "midi": 62,
      "hit": false,
      "t": 76994.79166666666,
      "d": 263.02083333334303,
      "v": 101
    },
    {
      "midi": 45,
      "hit": false,
      "t": 77126.56249999999,
      "d": 265.1041666666715,
      "v": 79
    },
    {
      "midi": 40,
      "hit": false,
      "t": 77326.5625,
      "d": 124.99999999998545,
      "v": 57
    },
    {
      "midi": 38,
      "hit": false,
      "t": 77486.45833333331,
      "d": 381.25000000001455,
      "v": 89
    },
    {
      "midi": 45,
      "hit": false,
      "t": 77857.81249999999,
      "d": 263.5416666666715,
      "v": 71
    },
    {
      "midi": 53,
      "hit": false,
      "t": 77862.49999999999,
      "d": 119.27083333334303,
      "v": 98
    },
    {
      "midi": 57,
      "hit": false,
      "t": 77863.54166666666,
      "d": 222.91666666667152,
      "v": 102
    },
    {
      "midi": 60,
      "hit": false,
      "t": 77868.75,
      "d": 222.91666666665697,
      "v": 107
    },
    {
      "midi": 38,
      "hit": false,
      "t": 78071.35416666666,
      "d": 121.35416666667152,
      "v": 49
    },
    {
      "midi": 53,
      "hit": false,
      "t": 78106.77083333333,
      "d": 194.79166666667152,
      "v": 74
    },
    {
      "midi": 31,
      "hit": false,
      "t": 78193.75,
      "d": 593.7500000000291,
      "v": 86
    },
    {
      "midi": 57,
      "hit": false,
      "t": 78207.8125,
      "d": 158.85416666667152,
      "v": 91
    },
    {
      "midi": 60,
      "hit": false,
      "t": 78212.5,
      "d": 173.95833333334303,
      "v": 96
    },
    {
      "midi": 53,
      "hit": false,
      "t": 78431.77083333334,
      "d": 234.89583333334303,
      "v": 97
    },
    {
      "midi": 59,
      "hit": false,
      "t": 78436.45833333334,
      "d": 255.20833333334303,
      "v": 95
    },
    {
      "midi": 55,
      "hit": false,
      "t": 78437.50000000001,
      "d": 258.8541666666715,
      "v": 99
    },
    {
      "midi": 62,
      "hit": false,
      "t": 78438.54166666669,
      "d": 243.22916666667152,
      "v": 99
    },
    {
      "midi": 43,
      "hit": false,
      "t": 78567.70833333336,
      "d": 229.6875,
      "v": 90
    },
    {
      "midi": 38,
      "hit": false,
      "t": 78736.45833333336,
      "d": 131.25,
      "v": 51
    },
    {
      "midi": 55,
      "hit": false,
      "t": 78882.81250000001,
      "d": 148.95833333332848,
      "v": 94
    },
    {
      "midi": 52,
      "hit": false,
      "t": 78887.50000000001,
      "d": 94.27083333332848,
      "v": 93
    },
    {
      "midi": 59,
      "hit": false,
      "t": 78887.50000000001,
      "d": 145.3125,
      "v": 87
    },
    {
      "midi": 62,
      "hit": false,
      "t": 78891.66666666669,
      "d": 154.16666666667152,
      "v": 96
    },
    {
      "midi": 36,
      "hit": false,
      "t": 78901.56250000001,
      "d": 140.10416666667152,
      "v": 94
    },
    {
      "midi": 52,
      "hit": false,
      "t": 79066.66666666669,
      "d": 116.14583333332848,
      "v": 85
    },
    {
      "midi": 55,
      "hit": false,
      "t": 79231.77083333334,
      "d": 119.79166666667152,
      "v": 95
    },
    {
      "midi": 52,
      "hit": false,
      "t": 79412.50000000001,
      "d": 344.2708333333576,
      "v": 91
    },
    {
      "midi": 59,
      "hit": false,
      "t": 79413.54166666669,
      "d": 532.2916666666861,
      "v": 96
    },
    {
      "midi": 43,
      "hit": false,
      "t": 79414.58333333336,
      "d": 327.08333333334303,
      "v": 89
    },
    {
      "midi": 36,
      "hit": false,
      "t": 79415.62500000003,
      "d": 701.0416666666861,
      "v": 90
    },
    {
      "midi": 55,
      "hit": false,
      "t": 79416.6666666667,
      "d": 590.1041666666715,
      "v": 94
    },
    {
      "midi": 62,
      "hit": false,
      "t": 79417.70833333337,
      "d": 513.0208333333285,
      "v": 96
    },
    {
      "midi": 48,
      "hit": false,
      "t": 79746.3541666667,
      "d": 355.20833333334303,
      "v": 103
    },
    {
      "midi": 52,
      "hit": false,
      "t": 79895.83333333337,
      "d": 129.6875,
      "v": 94
    },
    {
      "midi": 43,
      "hit": false,
      "t": 80061.45833333337,
      "d": 109.89583333334303,
      "v": 84
    },
    {
      "midi": 41,
      "hit": false,
      "t": 80210.41666666672,
      "d": 320.3124999999709,
      "v": 91
    },
    {
      "midi": 57,
      "hit": false,
      "t": 80220.83333333337,
      "d": 135.9375,
      "v": 91
    },
    {
      "midi": 52,
      "hit": false,
      "t": 80225.52083333337,
      "d": 90.10416666667152,
      "v": 97
    },
    {
      "midi": 55,
      "hit": false,
      "t": 80226.56250000004,
      "d": 144.79166666665697,
      "v": 97
    },
    {
      "midi": 60,
      "hit": false,
      "t": 80230.72916666672,
      "d": 249.99999999998545,
      "v": 97
    },
    {
      "midi": 52,
      "hit": false,
      "t": 80401.56250000003,
      "d": 114.0625,
      "v": 90
    },
    {
      "midi": 55,
      "hit": false,
      "t": 80535.41666666669,
      "d": 110.41666666667152,
      "v": 94
    },
    {
      "midi": 40,
      "hit": false,
      "t": 80686.45833333336,
      "d": 615.1041666666715,
      "v": 91
    },
    {
      "midi": 55,
      "hit": false,
      "t": 80696.35416666669,
      "d": 690.1041666666715,
      "v": 91
    },
    {
      "midi": 59,
      "hit": false,
      "t": 80706.77083333336,
      "d": 664.5833333333285,
      "v": 95
    },
    {
      "midi": 50,
      "hit": false,
      "t": 80707.81250000003,
      "d": 323.95833333334303,
      "v": 100
    },
    {
      "midi": 47,
      "hit": false,
      "t": 81016.6666666667,
      "d": 355.72916666665697,
      "v": 106
    },
    {
      "midi": 50,
      "hit": false,
      "t": 81155.7291666667,
      "d": 146.875,
      "v": 107
    },
    {
      "midi": 53,
      "hit": false,
      "t": 81165.62500000003,
      "d": 185.9375,
      "v": 27
    },
    {
      "midi": 45,
      "hit": false,
      "t": 81316.6666666667,
      "d": 143.74999999998545,
      "v": 91
    },
    {
      "midi": 53,
      "hit": false,
      "t": 81470.83333333336,
      "d": 114.58333333332848,
      "v": 98
    },
    {
      "midi": 57,
      "hit": false,
      "t": 81471.35416666669,
      "d": 155.20833333332848,
      "v": 87
    },
    {
      "midi": 38,
      "hit": false,
      "t": 81480.72916666669,
      "d": 299.99999999998545,
      "v": 92
    },
    {
      "midi": 60,
      "hit": false,
      "t": 81481.77083333336,
      "d": 149.99999999998545,
      "v": 97
    },
    {
      "midi": 50,
      "hit": false,
      "t": 81656.77083333334,
      "d": 128.64583333332848,
      "v": 93
    },
    {
      "midi": 45,
      "hit": false,
      "t": 81810.41666666667,
      "d": 146.35416666667152,
      "v": 91
    },
    {
      "midi": 57,
      "hit": false,
      "t": 82006.77083333334,
      "d": 693.75,
      "v": 99
    },
    {
      "midi": 53,
      "hit": false,
      "t": 82016.66666666667,
      "d": 354.6875,
      "v": 94
    },
    {
      "midi": 43,
      "hit": false,
      "t": 82017.70833333334,
      "d": 378.125,
      "v": 96
    },
    {
      "midi": 60,
      "hit": false,
      "t": 82021.35416666667,
      "d": 620.3125,
      "v": 98
    },
    {
      "midi": 50,
      "hit": false,
      "t": 82336.45833333334,
      "d": 350,
      "v": 98
    },
    {
      "midi": 53,
      "hit": false,
      "t": 82475.52083333334,
      "d": 156.25,
      "v": 103
    },
    {
      "midi": 43,
      "hit": false,
      "t": 82636.45833333334,
      "d": 139.0625,
      "v": 86
    },
    {
      "midi": 36,
      "hit": false,
      "t": 82805.72916666667,
      "d": 240.10416666665697,
      "v": 97
    },
    {
      "midi": 59,
      "hit": false,
      "t": 82815.625,
      "d": 135.9375,
      "v": 92
    },
    {
      "midi": 52,
      "hit": false,
      "t": 82816.66666666667,
      "d": 144.79166666665697,
      "v": 99
    },
    {
      "midi": 62,
      "hit": false,
      "t": 82820.83333333334,
      "d": 135.93749999998545,
      "v": 96
    },
    {
      "midi": 55,
      "hit": false,
      "t": 82821.35416666667,
      "d": 166.14583333332848,
      "v": 103
    },
    {
      "midi": 48,
      "hit": false,
      "t": 82986.45833333333,
      "d": 209.89583333332848,
      "v": 98
    },
    {
      "midi": 43,
      "hit": false,
      "t": 83125.52083333333,
      "d": 81.25,
      "v": 60
    },
    {
      "midi": 36,
      "hit": false,
      "t": 83160.41666666666,
      "d": 135.9375,
      "v": 72
    },
    {
      "midi": 56,
      "hit": false,
      "t": 83291.66666666666,
      "d": 844.7916666666861,
      "v": 100
    },
    {
      "midi": 59,
      "hit": false,
      "t": 83297.39583333333,
      "d": 798.4375000000146,
      "v": 98
    },
    {
      "midi": 50,
      "hit": false,
      "t": 83301.5625,
      "d": 358.8541666666715,
      "v": 107
    },
    {
      "midi": 40,
      "hit": false,
      "t": 83335.41666666667,
      "d": 271.3541666666715,
      "v": 99
    },
    {
      "midi": 40,
      "hit": false,
      "t": 83636.45833333334,
      "d": 180.20833333332848,
      "v": 77
    },
    {
      "midi": 50,
      "hit": false,
      "t": 83780.72916666667,
      "d": 275,
      "v": 104
    },
    {
      "midi": 40,
      "hit": false,
      "t": 83946.35416666667,
      "d": 124.47916666667152,
      "v": 86
    },
    {
      "midi": 33,
      "hit": false,
      "t": 84121.35416666667,
      "d": 468.2291666667006,
      "v": 102
    },
    {
      "midi": 52,
      "hit": false,
      "t": 84466.66666666669,
      "d": 109.89583333334303,
      "v": 101
    },
    {
      "midi": 57,
      "hit": false,
      "t": 84471.35416666669,
      "d": 114.06250000001455,
      "v": 102
    },
    {
      "midi": 60,
      "hit": false,
      "t": 84472.39583333336,
      "d": 138.0208333333576,
      "v": 110
    },
    {
      "midi": 45,
      "hit": false,
      "t": 84473.43750000003,
      "d": 131.25000000001455,
      "v": 81
    },
    {
      "midi": 55,
      "hit": false,
      "t": 84475.52083333336,
      "d": 134.8958333333576,
      "v": 105
    },
    {
      "midi": 38,
      "hit": false,
      "t": 84624.47916666672,
      "d": 116.14583333332848,
      "v": 88
    },
    {
      "midi": 40,
      "hit": false,
      "t": 84790.62500000004,
      "d": 305.20833333334303,
      "v": 90
    },
    {
      "midi": 55,
      "hit": false,
      "t": 84954.68750000004,
      "d": 230.72916666668607,
      "v": 105
    },
    {
      "midi": 50,
      "hit": false,
      "t": 84960.41666666672,
      "d": 200.00000000001455,
      "v": 104
    },
    {
      "midi": 59,
      "hit": false,
      "t": 84960.41666666672,
      "d": 245.31250000001455,
      "v": 103
    },
    {
      "midi": 45,
      "hit": false,
      "t": 85115.62500000006,
      "d": 189.0625,
      "v": 84
    },
    {
      "midi": 40,
      "hit": false,
      "t": 85249.47916666673,
      "d": 151.04166666665697,
      "v": 70
    },
    {
      "midi": 45,
      "hit": false,
      "t": 85435.41666666672,
      "d": 144.27083333334303,
      "v": 83
    },
    {
      "midi": 52,
      "hit": false,
      "t": 85441.66666666672,
      "d": 153.12500000001455,
      "v": 102
    },
    {
      "midi": 55,
      "hit": false,
      "t": 85441.66666666672,
      "d": 283.85416666668607,
      "v": 101
    },
    {
      "midi": 33,
      "hit": false,
      "t": 85442.70833333339,
      "d": 427.08333333334303,
      "v": 98
    },
    {
      "midi": 57,
      "hit": false,
      "t": 85445.83333333339,
      "d": 294.79166666668607,
      "v": 100
    },
    {
      "midi": 60,
      "hit": false,
      "t": 85447.39583333339,
      "d": 238.02083333334303,
      "v": 110
    },
    {
      "midi": 45,
      "hit": false,
      "t": 85775.5208333334,
      "d": 119.27083333334303,
      "v": 79
    },
    {
      "midi": 52,
      "hit": false,
      "t": 85785.41666666673,
      "d": 98.95833333334303,
      "v": 98
    },
    {
      "midi": 36,
      "hit": false,
      "t": 85899.47916666674,
      "d": 177.08333333332848,
      "v": 66
    },
    {
      "midi": 41,
      "hit": false,
      "t": 86090.62500000007,
      "d": 148.95833333331393,
      "v": 84
    },
    {
      "midi": 29,
      "hit": false,
      "t": 86095.8333333334,
      "d": 103.64583333332848,
      "v": 90
    },
    {
      "midi": 57,
      "hit": false,
      "t": 86100.5208333334,
      "d": 179.16666666665697,
      "v": 94
    },
    {
      "midi": 53,
      "hit": false,
      "t": 86105.72916666673,
      "d": 164.0625,
      "v": 96
    },
    {
      "midi": 48,
      "hit": false,
      "t": 86110.41666666673,
      "d": 119.27083333332848,
      "v": 96
    },
    {
      "midi": 55,
      "hit": false,
      "t": 86435.41666666673,
      "d": 129.16666666667152,
      "v": 94
    },
    {
      "midi": 31,
      "hit": false,
      "t": 86445.8333333334,
      "d": 190.625,
      "v": 90
    },
    {
      "midi": 43,
      "hit": false,
      "t": 86446.35416666673,
      "d": 189.0625,
      "v": 91
    },
    {
      "midi": 59,
      "hit": false,
      "t": 86447.3958333334,
      "d": 136.97916666667152,
      "v": 96
    },
    {
      "midi": 50,
      "hit": false,
      "t": 86448.43750000007,
      "d": 106.25,
      "v": 104
    },
    {
      "midi": 38,
      "hit": false,
      "t": 86589.5833333334,
      "d": 116.14583333332848,
      "v": 74
    },
    {
      "midi": 43,
      "hit": false,
      "t": 86765.62500000006,
      "d": 209.89583333332848,
      "v": 107
    },
    {
      "midi": 36,
      "hit": false,
      "t": 86766.66666666673,
      "d": 958.854166666657,
      "v": 108
    },
    {
      "midi": 52,
      "hit": false,
      "t": 86925.52083333339,
      "d": 105.20833333332848,
      "v": 94
    },
    {
      "midi": 55,
      "hit": false,
      "t": 87070.83333333339,
      "d": 108.85416666665697,
      "v": 99
    },
    {
      "midi": 52,
      "hit": false,
      "t": 87275.52083333337,
      "d": 345.31250000001455,
      "v": 105
    },
    {
      "midi": 55,
      "hit": false,
      "t": 87276.56250000004,
      "d": 572.9166666666861,
      "v": 107
    },
    {
      "midi": 48,
      "hit": false,
      "t": 87280.72916666672,
      "d": 168.75000000001455,
      "v": 111
    },
    {
      "midi": 60,
      "hit": false,
      "t": 87281.77083333339,
      "d": 572.9166666666715,
      "v": 111
    },
    {
      "midi": 48,
      "hit": false,
      "t": 87590.62500000006,
      "d": 94.79166666665697,
      "v": 111
    },
    {
      "midi": 52,
      "hit": false,
      "t": 87740.62500000006,
      "d": 118.75,
      "v": 101
    },
    {
      "midi": 38,
      "hit": false,
      "t": 87895.83333333339,
      "d": 119.79166666665697,
      "v": 77
    },
    {
      "midi": 31,
      "hit": false,
      "t": 88055.72916666672,
      "d": 909.8958333333576,
      "v": 97
    },
    {
      "midi": 43,
      "hit": false,
      "t": 88056.77083333339,
      "d": 233.85416666665697,
      "v": 98
    },
    {
      "midi": 57,
      "hit": false,
      "t": 88057.81250000006,
      "d": 177.60416666665697,
      "v": 88
    },
    {
      "midi": 53,
      "hit": false,
      "t": 88060.41666666673,
      "d": 140.10416666665697,
      "v": 90
    },
    {
      "midi": 48,
      "hit": false,
      "t": 88065.62500000006,
      "d": 89.0625,
      "v": 96
    },
    {
      "midi": 48,
      "hit": false,
      "t": 88240.62500000004,
      "d": 115.10416666667152,
      "v": 90
    },
    {
      "midi": 53,
      "hit": false,
      "t": 88380.72916666672,
      "d": 125,
      "v": 93
    },
    {
      "midi": 53,
      "hit": false,
      "t": 88535.41666666672,
      "d": 746.3541666667006,
      "v": 103
    },
    {
      "midi": 48,
      "hit": false,
      "t": 88536.45833333339,
      "d": 354.16666666668607,
      "v": 86
    },
    {
      "midi": 57,
      "hit": false,
      "t": 88537.50000000006,
      "d": 721.8750000000146,
      "v": 94
    },
    {
      "midi": 43,
      "hit": false,
      "t": 88538.54166666673,
      "d": 216.14583333334303,
      "v": 101
    },
    {
      "midi": 60,
      "hit": false,
      "t": 88550.5208333334,
      "d": 730.208333333343,
      "v": 94
    },
    {
      "midi": 43,
      "hit": false,
      "t": 88885.41666666674,
      "d": 370.3125,
      "v": 120
    },
    {
      "midi": 48,
      "hit": false,
      "t": 89020.8333333334,
      "d": 204.6875,
      "v": 103
    },
    {
      "midi": 40,
      "hit": false,
      "t": 89190.62500000007,
      "d": 125.00000000001455,
      "v": 89
    },
    {
      "midi": 33,
      "hit": false,
      "t": 89335.41666666676,
      "d": 559.3750000000291,
      "v": 101
    },
    {
      "midi": 57,
      "hit": false,
      "t": 89704.6875000001,
      "d": 135.93750000001455,
      "v": 103
    },
    {
      "midi": 45,
      "hit": false,
      "t": 89705.72916666677,
      "d": 198.95833333334303,
      "v": 89
    },
    {
      "midi": 55,
      "hit": false,
      "t": 89706.77083333344,
      "d": 133.85416666667152,
      "v": 101
    },
    {
      "midi": 60,
      "hit": false,
      "t": 89707.81250000012,
      "d": 142.70833333332848,
      "v": 108
    },
    {
      "midi": 52,
      "hit": false,
      "t": 89708.33333333344,
      "d": 142.1875,
      "v": 115
    },
    {
      "midi": 38,
      "hit": false,
      "t": 89859.37500000012,
      "d": 129.16666666667152,
      "v": 90
    },
    {
      "midi": 40,
      "hit": false,
      "t": 90028.64583333346,
      "d": 329.6875,
      "v": 90
    },
    {
      "midi": 55,
      "hit": false,
      "t": 90205.72916666679,
      "d": 253.64583333332848,
      "v": 104
    },
    {
      "midi": 59,
      "hit": false,
      "t": 90205.72916666679,
      "d": 268.75,
      "v": 98
    },
    {
      "midi": 50,
      "hit": false,
      "t": 90206.77083333346,
      "d": 213.02083333332848,
      "v": 103
    },
    {
      "midi": 45,
      "hit": false,
      "t": 90363.54166666679,
      "d": 210.9375,
      "v": 90
    },
    {
      "midi": 40,
      "hit": false,
      "t": 90519.79166666679,
      "d": 123.95833333332848,
      "v": 68
    },
    {
      "midi": 57,
      "hit": false,
      "t": 90683.33333333344,
      "d": 341.14583333334303,
      "v": 102
    },
    {
      "midi": 45,
      "hit": false,
      "t": 90684.37500000012,
      "d": 450.00000000001455,
      "v": 91
    },
    {
      "midi": 52,
      "hit": false,
      "t": 90685.41666666679,
      "d": 194.27083333334303,
      "v": 102
    },
    {
      "midi": 33,
      "hit": false,
      "t": 90689.58333333346,
      "d": 455.20833333334303,
      "v": 101
    },
    {
      "midi": 55,
      "hit": false,
      "t": 90690.62500000013,
      "d": 329.16666666665697,
      "v": 105
    },
    {
      "midi": 60,
      "hit": false,
      "t": 90694.7916666668,
      "d": 314.5833333333285,
      "v": 112
    },
    {
      "midi": 52,
      "hit": false,
      "t": 91014.58333333346,
      "d": 100,
      "v": 83
    },
    {
      "midi": 59,
      "hit": false,
      "t": 91174.4791666668,
      "d": 265.1041666666715,
      "v": 94
    },
    {
      "midi": 55,
      "hit": false,
      "t": 91175.52083333347,
      "d": 265.1041666666715,
      "v": 89
    },
    {
      "midi": 50,
      "hit": false,
      "t": 91179.68750000015,
      "d": 190.10416666665697,
      "v": 104
    },
    {
      "midi": 40,
      "hit": false,
      "t": 91189.58333333347,
      "d": 393.75000000001455,
      "v": 90
    },
    {
      "midi": 57,
      "hit": false,
      "t": 91494.79166666682,
      "d": 269.79166666665697,
      "v": 108
    },
    {
      "midi": 60,
      "hit": false,
      "t": 91499.47916666682,
      "d": 274.99999999998545,
      "v": 108
    },
    {
      "midi": 52,
      "hit": false,
      "t": 91500.52083333349,
      "d": 258.85416666665697,
      "v": 104
    },
    {
      "midi": 45,
      "hit": false,
      "t": 91634.37500000015,
      "d": 195.31249999998545,
      "v": 87
    },
    {
      "midi": 40,
      "hit": false,
      "t": 91779.68750000013,
      "d": 128.64583333332848,
      "v": 80
    },
    {
      "midi": 41,
      "hit": false,
      "t": 91949.47916666679,
      "d": 269.2708333333285,
      "v": 84
    },
    {
      "midi": 60,
      "hit": false,
      "t": 91954.68750000012,
      "d": 194.79166666667152,
      "v": 100
    },
    {
      "midi": 57,
      "hit": false,
      "t": 91959.37500000012,
      "d": 210.41666666667152,
      "v": 97
    },
    {
      "midi": 52,
      "hit": false,
      "t": 91960.41666666679,
      "d": 154.16666666667152,
      "v": 98
    },
    {
      "midi": 48,
      "hit": false,
      "t": 91969.79166666679,
      "d": 184.89583333332848,
      "v": 91
    },
    {
      "midi": 55,
      "hit": false,
      "t": 92284.37500000012,
      "d": 220.3125,
      "v": 94
    },
    {
      "midi": 40,
      "hit": false,
      "t": 92289.58333333346,
      "d": 268.74999999998545,
      "v": 94
    },
    {
      "midi": 59,
      "hit": false,
      "t": 92294.79166666679,
      "d": 159.89583333332848,
      "v": 97
    },
    {
      "midi": 53,
      "hit": false,
      "t": 92634.37500000012,
      "d": 110.41666666667152,
      "v": 98
    },
    {
      "midi": 38,
      "hit": false,
      "t": 92635.41666666679,
      "d": 203.12500000001455,
      "v": 96
    },
    {
      "midi": 57,
      "hit": false,
      "t": 92644.79166666679,
      "d": 104.6875,
      "v": 102
    },
    {
      "midi": 57,
      "hit": false,
      "t": 92814.58333333346,
      "d": 230.20833333334303,
      "v": 97
    },
    {
      "midi": 53,
      "hit": false,
      "t": 92823.43750000013,
      "d": 160.9375,
      "v": 103
    },
    {
      "midi": 43,
      "hit": false,
      "t": 92959.37500000013,
      "d": 223.9583333333576,
      "v": 97
    },
    {
      "midi": 55,
      "hit": false,
      "t": 93129.68750000015,
      "d": 1564.062500000029,
      "v": 94
    },
    {
      "midi": 52,
      "hit": false,
      "t": 93134.37500000015,
      "d": 1589.062500000029,
      "v": 97
    },
    {
      "midi": 60,
      "hit": false,
      "t": 93135.41666666682,
      "d": 1588.0208333333576,
      "v": 101
    },
    {
      "midi": 36,
      "hit": false,
      "t": 93274.47916666682,
      "d": 109.89583333334303,
      "v": 97
    },
    {
      "midi": 48,
      "hit": false,
      "t": 93275.52083333349,
      "d": 89.0625,
      "v": 107
    },
    {
      "midi": 31,
      "hit": false,
      "t": 93614.5833333335,
      "d": 219.79166666667152,
      "v": 110
    },
    {
      "midi": 33,
      "hit": false,
      "t": 93959.37500000017,
      "d": 230.20833333332848,
      "v": 115
    },
    {
      "midi": 35,
      "hit": false,
      "t": 94309.37500000017,
      "d": 264.0625,
      "v": 120
    },
    {
      "midi": 36,
      "hit": false,
      "t": 94684.37500000017,
      "d": 414.0625,
      "v": 120
    },
    {
      "midi": 62,
      "hit": false,
      "t": 95088.54166666685,
      "d": 169.79166666667152,
      "v": 22
    },
    {
      "midi": 60,
      "hit": false,
      "t": 95103.6458333335,
      "d": 334.8958333333576,
      "v": 106
    },
    {
      "midi": 64,
      "hit": false,
      "t": 95108.3333333335,
      "d": 290.10416666668607,
      "v": 102
    },
    {
      "midi": 52,
      "hit": false,
      "t": 95109.37500000017,
      "d": 268.22916666668607,
      "v": 109
    },
    {
      "midi": 55,
      "hit": false,
      "t": 95113.54166666685,
      "d": 309.89583333334303,
      "v": 113
    },
    {
      "midi": 38,
      "hit": false,
      "t": 95357.81250000019,
      "d": 200.52083333332848,
      "v": 84
    },
    {
      "midi": 31,
      "hit": false,
      "t": 95493.75000000019,
      "d": 609.8958333333576,
      "v": 94
    },
    {
      "midi": 65,
      "hit": false,
      "t": 95728.64583333352,
      "d": 244.79166666668607,
      "v": 89
    },
    {
      "midi": 57,
      "hit": false,
      "t": 95734.37500000019,
      "d": 289.0625000000291,
      "v": 96
    },
    {
      "midi": 53,
      "hit": false,
      "t": 95734.37500000019,
      "d": 354.16666666668607,
      "v": 98
    },
    {
      "midi": 62,
      "hit": false,
      "t": 95735.41666666686,
      "d": 268.22916666668607,
      "v": 97
    },
    {
      "midi": 60,
      "hit": false,
      "t": 95736.45833333353,
      "d": 266.14583333334303,
      "v": 88
    },
    {
      "midi": 43,
      "hit": false,
      "t": 95888.54166666688,
      "d": 225,
      "v": 97
    },
    {
      "midi": 38,
      "hit": false,
      "t": 96058.33333333355,
      "d": 124.99999999998545,
      "v": 75
    },
    {
      "midi": 52,
      "hit": false,
      "t": 96233.33333333353,
      "d": 200.00000000001455,
      "v": 91
    },
    {
      "midi": 59,
      "hit": false,
      "t": 96234.3750000002,
      "d": 229.16666666667152,
      "v": 94
    },
    {
      "midi": 36,
      "hit": false,
      "t": 96235.41666666688,
      "d": 558.3333333333285,
      "v": 92
    },
    {
      "midi": 55,
      "hit": false,
      "t": 96238.54166666688,
      "d": 215.10416666667152,
      "v": 97
    },
    {
      "midi": 59,
      "hit": false,
      "t": 96598.4375000002,
      "d": 255.20833333332848,
      "v": 96
    },
    {
      "midi": 52,
      "hit": false,
      "t": 96603.64583333353,
      "d": 144.79166666667152,
      "v": 90
    },
    {
      "midi": 55,
      "hit": false,
      "t": 96605.72916666688,
      "d": 198.95833333332848,
      "v": 101
    },
    {
      "midi": 38,
      "hit": false,
      "t": 96803.64583333353,
      "d": 119.79166666667152,
      "v": 83
    },
    {
      "midi": 31,
      "hit": false,
      "t": 96928.64583333353,
      "d": 635.9375000000291,
      "v": 91
    },
    {
      "midi": 60,
      "hit": false,
      "t": 97173.4375000002,
      "d": 430.2083333333576,
      "v": 110
    },
    {
      "midi": 53,
      "hit": false,
      "t": 97174.47916666688,
      "d": 358.85416666668607,
      "v": 98
    },
    {
      "midi": 57,
      "hit": false,
      "t": 97178.64583333355,
      "d": 334.89583333334303,
      "v": 109
    },
    {
      "midi": 43,
      "hit": false,
      "t": 97318.75000000022,
      "d": 244.79166666667152,
      "v": 98
    },
    {
      "midi": 38,
      "hit": false,
      "t": 97498.43750000022,
      "d": 109.89583333334303,
      "v": 65
    },
    {
      "midi": 36,
      "hit": false,
      "t": 97638.54166666689,
      "d": 540.1041666667006,
      "v": 110
    },
    {
      "midi": 55,
      "hit": false,
      "t": 97983.33333333356,
      "d": 215.10416666670062,
      "v": 109
    },
    {
      "midi": 52,
      "hit": false,
      "t": 97984.37500000023,
      "d": 159.37500000001455,
      "v": 99
    },
    {
      "midi": 62,
      "hit": false,
      "t": 97988.5416666669,
      "d": 159.89583333334303,
      "v": 111
    },
    {
      "midi": 59,
      "hit": false,
      "t": 97989.58333333358,
      "d": 214.06250000001455,
      "v": 103
    },
    {
      "midi": 38,
      "hit": false,
      "t": 98163.54166666692,
      "d": 119.79166666667152,
      "v": 79
    },
    {
      "midi": 31,
      "hit": false,
      "t": 98303.64583333359,
      "d": 444.7916666666715,
      "v": 94
    },
    {
      "midi": 53,
      "hit": false,
      "t": 98513.54166666692,
      "d": 230.20833333334303,
      "v": 102
    },
    {
      "midi": 60,
      "hit": false,
      "t": 98524.47916666692,
      "d": 220.31250000001455,
      "v": 112
    },
    {
      "midi": 57,
      "hit": false,
      "t": 98524.47916666692,
      "d": 239.06250000001455,
      "v": 113
    },
    {
      "midi": 43,
      "hit": false,
      "t": 98658.33333333359,
      "d": 120.31250000001455,
      "v": 89
    },
    {
      "midi": 33,
      "hit": false,
      "t": 98818.75000000028,
      "d": 114.58333333332848,
      "v": 78
    },
    {
      "midi": 26,
      "hit": false,
      "t": 98958.3333333336,
      "d": 544.270833333343,
      "v": 93
    },
    {
      "midi": 60,
      "hit": false,
      "t": 98968.75000000028,
      "d": 154.6875,
      "v": 91
    },
    {
      "midi": 57,
      "hit": false,
      "t": 98978.6458333336,
      "d": 185.93750000001455,
      "v": 102
    },
    {
      "midi": 53,
      "hit": false,
      "t": 98979.68750000028,
      "d": 158.85416666667152,
      "v": 94
    },
    {
      "midi": 53,
      "hit": false,
      "t": 99288.54166666695,
      "d": 105.20833333332848,
      "v": 85
    },
    {
      "midi": 65,
      "hit": false,
      "t": 99293.75000000028,
      "d": 144.79166666667152,
      "v": 89
    },
    {
      "midi": 62,
      "hit": false,
      "t": 99298.43750000028,
      "d": 125,
      "v": 96
    },
    {
      "midi": 60,
      "hit": false,
      "t": 99299.47916666695,
      "d": 128.125,
      "v": 89
    },
    {
      "midi": 57,
      "hit": false,
      "t": 99300.52083333362,
      "d": 132.8125,
      "v": 97
    },
    {
      "midi": 38,
      "hit": false,
      "t": 99313.54166666695,
      "d": 144.79166666667152,
      "v": 84
    },
    {
      "midi": 33,
      "hit": false,
      "t": 99488.54166666695,
      "d": 90.10416666667152,
      "v": 84
    },
    {
      "midi": 53,
      "hit": false,
      "t": 99493.75000000028,
      "d": 114.58333333334303,
      "v": 89
    },
    {
      "midi": 31,
      "hit": false,
      "t": 99622.39583333362,
      "d": 146.35416666667152,
      "v": 90
    },
    {
      "midi": 57,
      "hit": false,
      "t": 99632.81250000029,
      "d": 119.79166666667152,
      "v": 97
    },
    {
      "midi": 57,
      "hit": false,
      "t": 99792.70833333362,
      "d": 176.04166666667152,
      "v": 75
    },
    {
      "midi": 53,
      "hit": false,
      "t": 99818.75000000029,
      "d": 144.79166666667152,
      "v": 98
    },
    {
      "midi": 65,
      "hit": false,
      "t": 99823.43750000029,
      "d": 146.35416666667152,
      "v": 88
    },
    {
      "midi": 62,
      "hit": false,
      "t": 99824.47916666696,
      "d": 145.3125,
      "v": 96
    },
    {
      "midi": 60,
      "hit": false,
      "t": 99824.47916666696,
      "d": 147.91666666667152,
      "v": 98
    },
    {
      "midi": 43,
      "hit": false,
      "t": 99963.54166666696,
      "d": 189.0625,
      "v": 86
    },
    {
      "midi": 38,
      "hit": false,
      "t": 100127.60416666696,
      "d": 94.79166666667152,
      "v": 83
    },
    {
      "midi": 52,
      "hit": false,
      "t": 100138.54166666696,
      "d": 173.95833333334303,
      "v": 94
    },
    {
      "midi": 59,
      "hit": false,
      "t": 100138.54166666696,
      "d": 276.04166666668607,
      "v": 96
    },
    {
      "midi": 55,
      "hit": false,
      "t": 100142.70833333363,
      "d": 244.79166666667152,
      "v": 100
    },
    {
      "midi": 36,
      "hit": false,
      "t": 100282.8125000003,
      "d": 130.72916666667152,
      "v": 97
    },
    {
      "midi": 43,
      "hit": false,
      "t": 100287.5000000003,
      "d": 135.93750000001455,
      "v": 90
    },
    {
      "midi": 52,
      "hit": false,
      "t": 100437.50000000032,
      "d": 109.89583333332848,
      "v": 88
    },
    {
      "midi": 52,
      "hit": false,
      "t": 100582.8125000003,
      "d": 84.89583333332848,
      "v": 92
    },
    {
      "midi": 59,
      "hit": false,
      "t": 100587.5000000003,
      "d": 125,
      "v": 88
    },
    {
      "midi": 62,
      "hit": false,
      "t": 100597.39583333363,
      "d": 131.25,
      "v": 96
    },
    {
      "midi": 55,
      "hit": false,
      "t": 100598.4375000003,
      "d": 109.375,
      "v": 105
    },
    {
      "midi": 52,
      "hit": false,
      "t": 100687.5000000003,
      "d": 180.20833333332848,
      "v": 27
    },
    {
      "midi": 36,
      "hit": false,
      "t": 100762.5000000003,
      "d": 705.2083333333139,
      "v": 94
    },
    {
      "midi": 43,
      "hit": false,
      "t": 100767.70833333363,
      "d": 444.79166666665697,
      "v": 94
    },
    {
      "midi": 52,
      "hit": false,
      "t": 100927.60416666696,
      "d": 100,
      "v": 88
    },
    {
      "midi": 52,
      "hit": false,
      "t": 101082.81250000029,
      "d": 229.6875,
      "v": 82
    },
    {
      "midi": 59,
      "hit": false,
      "t": 101092.70833333362,
      "d": 215.10416666667152,
      "v": 94
    },
    {
      "midi": 62,
      "hit": false,
      "t": 101093.75000000029,
      "d": 223.95833333332848,
      "v": 101
    },
    {
      "midi": 55,
      "hit": false,
      "t": 101094.79166666696,
      "d": 223.95833333332848,
      "v": 107
    },
    {
      "midi": 48,
      "hit": false,
      "t": 101242.70833333362,
      "d": 169.79166666667152,
      "v": 100
    },
    {
      "midi": 43,
      "hit": false,
      "t": 101363.54166666696,
      "d": 139.06249999998545,
      "v": 80
    },
    {
      "midi": 40,
      "hit": false,
      "t": 101557.81250000028,
      "d": 244.79166666667152,
      "v": 93
    },
    {
      "midi": 55,
      "hit": false,
      "t": 101562.50000000028,
      "d": 126.04166666667152,
      "v": 101
    },
    {
      "midi": 50,
      "hit": false,
      "t": 101563.54166666695,
      "d": 100,
      "v": 100
    },
    {
      "midi": 59,
      "hit": false,
      "t": 101567.70833333362,
      "d": 265.10416666665697,
      "v": 94
    },
    {
      "midi": 50,
      "hit": false,
      "t": 101722.39583333362,
      "d": 130.20833333332848,
      "v": 80
    },
    {
      "midi": 47,
      "hit": false,
      "t": 101777.60416666695,
      "d": 125,
      "v": 82
    },
    {
      "midi": 55,
      "hit": false,
      "t": 101872.39583333362,
      "d": 106.25,
      "v": 98
    },
    {
      "midi": 40,
      "hit": false,
      "t": 101912.50000000028,
      "d": 81.25000000001455,
      "v": 67
    },
    {
      "midi": 55,
      "hit": false,
      "t": 102032.81250000029,
      "d": 585.9375,
      "v": 71
    },
    {
      "midi": 45,
      "hit": false,
      "t": 102033.33333333362,
      "d": 219.27083333332848,
      "v": 89
    },
    {
      "midi": 57,
      "hit": false,
      "t": 102037.50000000029,
      "d": 570.8333333333285,
      "v": 97
    },
    {
      "midi": 52,
      "hit": false,
      "t": 102042.70833333362,
      "d": 334.8958333333285,
      "v": 97
    },
    {
      "midi": 33,
      "hit": false,
      "t": 102043.75000000029,
      "d": 473.9583333333285,
      "v": 95
    },
    {
      "midi": 60,
      "hit": false,
      "t": 102047.39583333362,
      "d": 585.9375,
      "v": 97
    },
    {
      "midi": 45,
      "hit": false,
      "t": 102367.70833333362,
      "d": 104.6875,
      "v": 95
    },
    {
      "midi": 52,
      "hit": false,
      "t": 102512.50000000029,
      "d": 121.875,
      "v": 96
    },
    {
      "midi": 33,
      "hit": false,
      "t": 102657.81250000029,
      "d": 139.58333333334303,
      "v": 74
    },
    {
      "midi": 26,
      "hit": false,
      "t": 102812.5000000003,
      "d": 230.20833333332848,
      "v": 99
    },
    {
      "midi": 53,
      "hit": false,
      "t": 102817.70833333363,
      "d": 1240.1041666666715,
      "v": 92
    },
    {
      "midi": 57,
      "hit": false,
      "t": 102822.39583333363,
      "d": 1165.1041666666715,
      "v": 96
    },
    {
      "midi": 48,
      "hit": false,
      "t": 102827.60416666696,
      "d": 1235.9375000000146,
      "v": 100
    },
    {
      "midi": 38,
      "hit": false,
      "t": 102992.70833333363,
      "d": 104.6875,
      "v": 75
    },
    {
      "midi": 28,
      "hit": false,
      "t": 103147.39583333363,
      "d": 245.3125,
      "v": 93
    },
    {
      "midi": 40,
      "hit": false,
      "t": 103352.60416666696,
      "d": 90.10416666667152,
      "v": 64
    },
    {
      "midi": 29,
      "hit": false,
      "t": 103482.8125000003,
      "d": 234.89583333334303,
      "v": 94
    },
    {
      "midi": 41,
      "hit": false,
      "t": 103677.60416666698,
      "d": 94.79166666667152,
      "v": 61
    },
    {
      "midi": 30,
      "hit": false,
      "t": 103798.4375000003,
      "d": 264.0625,
      "v": 89
    },
    {
      "midi": 42,
      "hit": false,
      "t": 104002.60416666698,
      "d": 119.79166666667152,
      "v": 69
    },
    {
      "midi": 31,
      "hit": false,
      "t": 104142.70833333365,
      "d": 228.64583333334303,
      "v": 88
    },
    {
      "midi": 57,
      "hit": false,
      "t": 104157.81250000032,
      "d": 1248.9583333333576,
      "v": 93
    },
    {
      "midi": 53,
      "hit": false,
      "t": 104162.50000000032,
      "d": 1230.2083333333576,
      "v": 100
    },
    {
      "midi": 48,
      "hit": false,
      "t": 104168.75000000032,
      "d": 1177.604166666686,
      "v": 98
    },
    {
      "midi": 43,
      "hit": false,
      "t": 104357.81250000032,
      "d": 89.58333333334303,
      "v": 68
    },
    {
      "midi": 33,
      "hit": false,
      "t": 104472.39583333366,
      "d": 240.10416666667152,
      "v": 101
    },
    {
      "midi": 45,
      "hit": false,
      "t": 104681.77083333366,
      "d": 110.9375,
      "v": 65
    },
    {
      "midi": 34,
      "hit": false,
      "t": 104792.70833333366,
      "d": 223.95833333332848,
      "v": 90
    },
    {
      "midi": 46,
      "hit": false,
      "t": 104981.77083333366,
      "d": 104.6875,
      "v": 74
    },
    {
      "midi": 35,
      "hit": false,
      "t": 105101.56250000033,
      "d": 215.10416666667152,
      "v": 92
    },
    {
      "midi": 47,
      "hit": false,
      "t": 105291.666666667,
      "d": 100,
      "v": 95
    },
    {
      "midi": 36,
      "hit": false,
      "t": 105422.39583333368,
      "d": 459.37500000001455,
      "v": 98
    },
    {
      "midi": 52,
      "hit": false,
      "t": 105767.70833333368,
      "d": 123.95833333334303,
      "v": 102
    },
    {
      "midi": 59,
      "hit": false,
      "t": 105768.75000000035,
      "d": 172.91666666667152,
      "v": 93
    },
    {
      "midi": 55,
      "hit": false,
      "t": 105772.39583333368,
      "d": 189.06250000001455,
      "v": 104
    },
    {
      "midi": 48,
      "hit": false,
      "t": 105773.43750000035,
      "d": 78.12500000001455,
      "v": 101
    },
    {
      "midi": 62,
      "hit": false,
      "t": 105777.60416666702,
      "d": 169.79166666667152,
      "v": 104
    },
    {
      "midi": 38,
      "hit": false,
      "t": 105951.56250000036,
      "d": 126.04166666665697,
      "v": 75
    },
    {
      "midi": 31,
      "hit": false,
      "t": 106097.39583333369,
      "d": 464.0625,
      "v": 90
    },
    {
      "midi": 53,
      "hit": false,
      "t": 106286.45833333369,
      "d": 220.3125,
      "v": 91
    },
    {
      "midi": 60,
      "hit": false,
      "t": 106291.66666666702,
      "d": 254.6875,
      "v": 102
    },
    {
      "midi": 57,
      "hit": false,
      "t": 106292.70833333369,
      "d": 218.75,
      "v": 99
    },
    {
      "midi": 43,
      "hit": false,
      "t": 106442.70833333369,
      "d": 108.85416666667152,
      "v": 90
    },
    {
      "midi": 38,
      "hit": false,
      "t": 106562.50000000036,
      "d": 115.10416666667152,
      "v": 65
    },
    {
      "midi": 36,
      "hit": false,
      "t": 106752.60416666704,
      "d": 489.0624999999709,
      "v": 94
    },
    {
      "midi": 52,
      "hit": false,
      "t": 106753.6458333337,
      "d": 122.91666666665697,
      "v": 89
    },
    {
      "midi": 59,
      "hit": false,
      "t": 106756.7708333337,
      "d": 219.7916666666424,
      "v": 85
    },
    {
      "midi": 55,
      "hit": false,
      "t": 106757.81250000038,
      "d": 213.5416666666424,
      "v": 93
    },
    {
      "midi": 62,
      "hit": false,
      "t": 106761.4583333337,
      "d": 170.31249999998545,
      "v": 92
    },
    {
      "midi": 59,
      "hit": false,
      "t": 107106.77083333368,
      "d": 135.9375,
      "v": 94
    },
    {
      "midi": 55,
      "hit": false,
      "t": 107107.81250000035,
      "d": 148.95833333332848,
      "v": 99
    },
    {
      "midi": 62,
      "hit": false,
      "t": 107108.33333333368,
      "d": 163.02083333332848,
      "v": 100
    },
    {
      "midi": 52,
      "hit": false,
      "t": 107111.45833333368,
      "d": 80.20833333332848,
      "v": 98
    },
    {
      "midi": 38,
      "hit": false,
      "t": 107281.77083333368,
      "d": 105.72916666667152,
      "v": 80
    },
    {
      "midi": 31,
      "hit": false,
      "t": 107416.66666666702,
      "d": 536.9791666666715,
      "v": 88
    },
    {
      "midi": 57,
      "hit": false,
      "t": 107611.45833333369,
      "d": 396.3541666666715,
      "v": 102
    },
    {
      "midi": 53,
      "hit": false,
      "t": 107617.70833333369,
      "d": 268.75,
      "v": 94
    },
    {
      "midi": 60,
      "hit": false,
      "t": 107622.39583333369,
      "d": 310.4166666666715,
      "v": 104
    },
    {
      "midi": 43,
      "hit": false,
      "t": 107771.35416666702,
      "d": 181.25,
      "v": 90
    },
    {
      "midi": 38,
      "hit": false,
      "t": 107911.45833333369,
      "d": 106.25,
      "v": 63
    },
    {
      "midi": 36,
      "hit": false,
      "t": 108071.35416666702,
      "d": 170.3125000000291,
      "v": 102
    },
    {
      "midi": 55,
      "hit": false,
      "t": 108072.39583333369,
      "d": 140.10416666668607,
      "v": 101
    },
    {
      "midi": 52,
      "hit": false,
      "t": 108073.43750000036,
      "d": 138.02083333334303,
      "v": 98
    },
    {
      "midi": 59,
      "hit": false,
      "t": 108076.56250000036,
      "d": 130.20833333334303,
      "v": 95
    },
    {
      "midi": 52,
      "hit": false,
      "t": 108401.56250000038,
      "d": 125.00000000001455,
      "v": 99
    },
    {
      "midi": 59,
      "hit": false,
      "t": 108403.64583333372,
      "d": 158.85416666667152,
      "v": 92
    },
    {
      "midi": 55,
      "hit": false,
      "t": 108406.77083333372,
      "d": 165.62500000001455,
      "v": 107
    },
    {
      "midi": 62,
      "hit": false,
      "t": 108411.45833333372,
      "d": 152.08333333334303,
      "v": 104
    },
    {
      "midi": 43,
      "hit": false,
      "t": 108582.81250000041,
      "d": 448.9583333333285,
      "v": 98
    },
    {
      "midi": 36,
      "hit": false,
      "t": 108583.33333333374,
      "d": 649.479166666657,
      "v": 94
    },
    {
      "midi": 52,
      "hit": false,
      "t": 108711.45833333374,
      "d": 108.85416666667152,
      "v": 90
    },
    {
      "midi": 52,
      "hit": false,
      "t": 108851.56250000041,
      "d": 144.79166666665697,
      "v": 75
    },
    {
      "midi": 59,
      "hit": false,
      "t": 108872.39583333374,
      "d": 160.9375,
      "v": 91
    },
    {
      "midi": 55,
      "hit": false,
      "t": 108877.60416666706,
      "d": 155.20833333334303,
      "v": 99
    },
    {
      "midi": 62,
      "hit": false,
      "t": 108882.8125000004,
      "d": 173.95833333334303,
      "v": 99
    },
    {
      "midi": 48,
      "hit": false,
      "t": 109066.66666666706,
      "d": 169.79166666665697,
      "v": 104
    },
    {
      "midi": 43,
      "hit": false,
      "t": 109181.77083333374,
      "d": 110.93749999998545,
      "v": 78
    },
    {
      "midi": 43,
      "hit": false,
      "t": 109346.35416666705,
      "d": 285.4166666666715,
      "v": 81
    },
    {
      "midi": 53,
      "hit": false,
      "t": 109356.7708333337,
      "d": 89.58333333334303,
      "v": 98
    },
    {
      "midi": 48,
      "hit": false,
      "t": 109361.4583333337,
      "d": 196.35416666667152,
      "v": 115
    },
    {
      "midi": 58,
      "hit": false,
      "t": 109362.50000000038,
      "d": 115.10416666667152,
      "v": 95
    },
    {
      "midi": 60,
      "hit": false,
      "t": 109366.66666666705,
      "d": 109.89583333332848,
      "v": 102
    },
    {
      "midi": 36,
      "hit": false,
      "t": 109367.70833333372,
      "d": 234.89583333332848,
      "v": 104
    },
    {
      "midi": 58,
      "hit": false,
      "t": 109537.50000000038,
      "d": 97.91666666667152,
      "v": 71
    },
    {
      "midi": 60,
      "hit": false,
      "t": 109691.66666666705,
      "d": 115.10416666667152,
      "v": 89
    },
    {
      "midi": 70,
      "hit": false,
      "t": 109837.5000000004,
      "d": 233.33333333331393,
      "v": 86
    },
    {
      "midi": 60,
      "hit": false,
      "t": 109837.5000000004,
      "d": 258.33333333331393,
      "v": 94
    },
    {
      "midi": 65,
      "hit": false,
      "t": 109842.70833333372,
      "d": 267.70833333331393,
      "v": 92
    },
    {
      "midi": 58,
      "hit": false,
      "t": 109852.60416666705,
      "d": 193.74999999998545,
      "v": 100
    },
    {
      "midi": 43,
      "hit": false,
      "t": 109862.50000000038,
      "d": 458.3333333333285,
      "v": 102
    },
    {
      "midi": 48,
      "hit": false,
      "t": 109867.7083333337,
      "d": 294.79166666665697,
      "v": 115
    },
    {
      "midi": 36,
      "hit": false,
      "t": 109867.7083333337,
      "d": 668.7500000000146,
      "v": 110
    },
    {
      "midi": 69,
      "hit": false,
      "t": 110162.50000000036,
      "d": 122.91666666667152,
      "v": 90
    },
    {
      "midi": 67,
      "hit": false,
      "t": 110325.5208333337,
      "d": 109.89583333334303,
      "v": 89
    },
    {
      "midi": 48,
      "hit": false,
      "t": 110340.62500000038,
      "d": 201.04166666668607,
      "v": 100
    },
    {
      "midi": 43,
      "hit": false,
      "t": 110471.35416666705,
      "d": 119.27083333334303,
      "v": 86
    },
    {
      "midi": 65,
      "hit": false,
      "t": 110481.77083333372,
      "d": 103.64583333334303,
      "v": 92
    },
    {
      "midi": 41,
      "hit": false,
      "t": 110635.41666666706,
      "d": 476.04166666668607,
      "v": 100
    },
    {
      "midi": 48,
      "hit": false,
      "t": 110650.52083333374,
      "d": 295.3125,
      "v": 115
    },
    {
      "midi": 64,
      "hit": false,
      "t": 110975.52083333374,
      "d": 201.04166666668607,
      "v": 112
    },
    {
      "midi": 60,
      "hit": false,
      "t": 110976.56250000041,
      "d": 209.8958333333576,
      "v": 115
    },
    {
      "midi": 55,
      "hit": false,
      "t": 110977.60416666708,
      "d": 200.00000000001455,
      "v": 115
    },
    {
      "midi": 48,
      "hit": false,
      "t": 111126.56250000042,
      "d": 183.85416666668607,
      "v": 93
    },
    {
      "midi": 41,
      "hit": false,
      "t": 111240.62500000044,
      "d": 269.79166666668607,
      "v": 73
    },
    {
      "midi": 52,
      "hit": false,
      "t": 111446.35416666711,
      "d": 214.06250000001455,
      "v": 102
    },
    {
      "midi": 40,
      "hit": false,
      "t": 111452.60416666711,
      "d": 193.22916666668607,
      "v": 77
    },
    {
      "midi": 55,
      "hit": false,
      "t": 111452.60416666711,
      "d": 213.02083333334303,
      "v": 98
    },
    {
      "midi": 62,
      "hit": false,
      "t": 111453.64583333378,
      "d": 238.02083333334303,
      "v": 101
    },
    {
      "midi": 59,
      "hit": false,
      "t": 111454.68750000045,
      "d": 307.81250000001455,
      "v": 97
    },
    {
      "midi": 47,
      "hit": false,
      "t": 111630.72916666712,
      "d": 180.72916666667152,
      "v": 105
    },
    {
      "midi": 45,
      "hit": false,
      "t": 111761.4583333338,
      "d": 144.27083333332848,
      "v": 87
    },
    {
      "midi": 53,
      "hit": false,
      "t": 111910.41666666712,
      "d": 106.25,
      "v": 99
    },
    {
      "midi": 57,
      "hit": false,
      "t": 111915.62500000045,
      "d": 120.83333333334303,
      "v": 94
    },
    {
      "midi": 38,
      "hit": false,
      "t": 111916.66666666712,
      "d": 364.0625,
      "v": 94
    },
    {
      "midi": 60,
      "hit": false,
      "t": 111920.8333333338,
      "d": 146.875,
      "v": 106
    },
    {
      "midi": 50,
      "hit": false,
      "t": 112066.66666666712,
      "d": 133.85416666667152,
      "v": 86
    },
    {
      "midi": 53,
      "hit": false,
      "t": 112081.7708333338,
      "d": 114.0625,
      "v": 74
    },
    {
      "midi": 57,
      "hit": false,
      "t": 112220.8333333338,
      "d": 89.58333333332848,
      "v": 93
    },
    {
      "midi": 45,
      "hit": false,
      "t": 112225.5208333338,
      "d": 106.25,
      "v": 90
    },
    {
      "midi": 53,
      "hit": false,
      "t": 112396.35416666712,
      "d": 349.99999999998545,
      "v": 98
    },
    {
      "midi": 60,
      "hit": false,
      "t": 112401.56250000045,
      "d": 684.895833333343,
      "v": 104
    },
    {
      "midi": 43,
      "hit": false,
      "t": 112406.77083333378,
      "d": 309.8958333333285,
      "v": 105
    },
    {
      "midi": 57,
      "hit": false,
      "t": 112407.81250000045,
      "d": 654.6875000000146,
      "v": 112
    },
    {
      "midi": 50,
      "hit": false,
      "t": 112721.35416666711,
      "d": 129.16666666667152,
      "v": 103
    },
    {
      "midi": 53,
      "hit": false,
      "t": 112865.62500000045,
      "d": 195.83333333334303,
      "v": 107
    },
    {
      "midi": 43,
      "hit": false,
      "t": 113016.66666666712,
      "d": 123.95833333334303,
      "v": 89
    },
    {
      "midi": 36,
      "hit": false,
      "t": 113175.5208333338,
      "d": 456.25,
      "v": 97
    },
    {
      "midi": 59,
      "hit": false,
      "t": 113515.62500000047,
      "d": 126.04166666665697,
      "v": 100
    },
    {
      "midi": 52,
      "hit": false,
      "t": 113516.66666666714,
      "d": 94.79166666667152,
      "v": 97
    },
    {
      "midi": 55,
      "hit": false,
      "t": 113520.83333333381,
      "d": 95.83333333332848,
      "v": 109
    },
    {
      "midi": 62,
      "hit": false,
      "t": 113525.52083333381,
      "d": 120.83333333331393,
      "v": 111
    },
    {
      "midi": 48,
      "hit": false,
      "t": 113526.56250000048,
      "d": 99.99999999998545,
      "v": 94
    },
    {
      "midi": 38,
      "hit": false,
      "t": 113686.4583333338,
      "d": 104.16666666667152,
      "v": 85
    },
    {
      "midi": 31,
      "hit": false,
      "t": 113815.62500000047,
      "d": 536.9791666666861,
      "v": 82
    },
    {
      "midi": 57,
      "hit": false,
      "t": 113996.35416666714,
      "d": 231.25,
      "v": 94
    },
    {
      "midi": 53,
      "hit": false,
      "t": 113997.39583333381,
      "d": 234.375,
      "v": 92
    },
    {
      "midi": 65,
      "hit": false,
      "t": 113998.43750000048,
      "d": 197.39583333332848,
      "v": 86
    },
    {
      "midi": 62,
      "hit": false,
      "t": 113999.47916666715,
      "d": 221.87499999998545,
      "v": 90
    },
    {
      "midi": 60,
      "hit": false,
      "t": 114001.56250000048,
      "d": 224.99999999998545,
      "v": 93
    },
    {
      "midi": 43,
      "hit": false,
      "t": 114170.83333333381,
      "d": 180.72916666667152,
      "v": 90
    },
    {
      "midi": 38,
      "hit": false,
      "t": 114306.77083333381,
      "d": 114.06250000001455,
      "v": 72
    },
    {
      "midi": 59,
      "hit": false,
      "t": 114460.41666666715,
      "d": 235.41666666668607,
      "v": 84
    },
    {
      "midi": 52,
      "hit": false,
      "t": 114461.45833333382,
      "d": 130.20833333334303,
      "v": 86
    },
    {
      "midi": 62,
      "hit": false,
      "t": 114465.6250000005,
      "d": 170.83333333334303,
      "v": 92
    },
    {
      "midi": 55,
      "hit": false,
      "t": 114466.66666666717,
      "d": 184.89583333334303,
      "v": 91
    },
    {
      "midi": 36,
      "hit": false,
      "t": 114475.52083333384,
      "d": 476.04166666668607,
      "v": 88
    },
    {
      "midi": 59,
      "hit": false,
      "t": 114805.72916666718,
      "d": 170.83333333334303,
      "v": 98
    },
    {
      "midi": 55,
      "hit": false,
      "t": 114810.41666666718,
      "d": 150.00000000001455,
      "v": 105
    },
    {
      "midi": 52,
      "hit": false,
      "t": 114811.45833333385,
      "d": 84.89583333334303,
      "v": 101
    },
    {
      "midi": 62,
      "hit": false,
      "t": 114812.50000000052,
      "d": 164.0625,
      "v": 103
    },
    {
      "midi": 38,
      "hit": false,
      "t": 114955.7291666672,
      "d": 190.10416666667152,
      "v": 85
    },
    {
      "midi": 31,
      "hit": false,
      "t": 115099.4791666672,
      "d": 496.3541666666715,
      "v": 85
    },
    {
      "midi": 53,
      "hit": false,
      "t": 115295.83333333387,
      "d": 289.58333333334303,
      "v": 92
    },
    {
      "midi": 62,
      "hit": false,
      "t": 115301.56250000054,
      "d": 289.0625,
      "v": 92
    },
    {
      "midi": 57,
      "hit": false,
      "t": 115302.60416666721,
      "d": 268.2291666666715,
      "v": 94
    },
    {
      "midi": 60,
      "hit": false,
      "t": 115302.60416666721,
      "d": 342.18749999998545,
      "v": 93
    },
    {
      "midi": 43,
      "hit": false,
      "t": 115460.41666666721,
      "d": 185.41666666665697,
      "v": 89
    },
    {
      "midi": 38,
      "hit": false,
      "t": 115600.52083333387,
      "d": 119.27083333332848,
      "v": 71
    },
    {
      "midi": 52,
      "hit": false,
      "t": 115764.58333333385,
      "d": 180.20833333332848,
      "v": 83
    },
    {
      "midi": 59,
      "hit": false,
      "t": 115771.35416666718,
      "d": 208.33333333332848,
      "v": 89
    },
    {
      "midi": 36,
      "hit": false,
      "t": 115771.35416666718,
      "d": 384.375,
      "v": 90
    },
    {
      "midi": 55,
      "hit": false,
      "t": 115772.39583333385,
      "d": 197.39583333332848,
      "v": 94
    },
    {
      "midi": 59,
      "hit": false,
      "t": 116100.52083333384,
      "d": 175.00000000001455,
      "v": 94
    },
    {
      "midi": 55,
      "hit": false,
      "t": 116105.72916666717,
      "d": 150.00000000001455,
      "v": 98
    },
    {
      "midi": 52,
      "hit": false,
      "t": 116106.77083333384,
      "d": 108.85416666667152,
      "v": 89
    },
    {
      "midi": 62,
      "hit": false,
      "t": 116115.62500000051,
      "d": 158.85416666667152,
      "v": 102
    },
    {
      "midi": 38,
      "hit": false,
      "t": 116269.79166666718,
      "d": 151.04166666667152,
      "v": 80
    },
    {
      "midi": 31,
      "hit": false,
      "t": 116400.52083333385,
      "d": 480.2083333333285,
      "v": 75
    },
    {
      "midi": 57,
      "hit": false,
      "t": 116599.47916666718,
      "d": 282.2916666666715,
      "v": 91
    },
    {
      "midi": 60,
      "hit": false,
      "t": 116604.68750000051,
      "d": 315.1041666666715,
      "v": 90
    },
    {
      "midi": 62,
      "hit": false,
      "t": 116605.72916666718,
      "d": 269.7916666666715,
      "v": 92
    },
    {
      "midi": 53,
      "hit": false,
      "t": 116606.77083333385,
      "d": 288.0208333333285,
      "v": 90
    },
    {
      "midi": 43,
      "hit": false,
      "t": 116760.41666666718,
      "d": 198.95833333332848,
      "v": 86
    },
    {
      "midi": 38,
      "hit": false,
      "t": 116909.37500000051,
      "d": 131.25,
      "v": 67
    },
    {
      "midi": 36,
      "hit": false,
      "t": 117085.41666666718,
      "d": 494.2708333333576,
      "v": 72
    },
    {
      "midi": 59,
      "hit": false,
      "t": 117086.45833333385,
      "d": 193.22916666667152,
      "v": 62
    },
    {
      "midi": 52,
      "hit": false,
      "t": 117090.62500000052,
      "d": 154.16666666667152,
      "v": 60
    },
    {
      "midi": 55,
      "hit": false,
      "t": 117091.6666666672,
      "d": 182.8125,
      "v": 75
    },
    {
      "midi": 62,
      "hit": false,
      "t": 117092.70833333387,
      "d": 166.66666666665697,
      "v": 79
    },
    {
      "midi": 59,
      "hit": false,
      "t": 117415.62500000052,
      "d": 179.16666666668607,
      "v": 87
    },
    {
      "midi": 52,
      "hit": false,
      "t": 117416.6666666672,
      "d": 113.02083333334303,
      "v": 86
    },
    {
      "midi": 55,
      "hit": false,
      "t": 117420.83333333387,
      "d": 164.58333333334303,
      "v": 97
    },
    {
      "midi": 62,
      "hit": false,
      "t": 117425.52083333387,
      "d": 158.85416666667152,
      "v": 96
    },
    {
      "midi": 38,
      "hit": false,
      "t": 117569.79166666721,
      "d": 185.9375,
      "v": 71
    },
    {
      "midi": 31,
      "hit": false,
      "t": 117710.41666666721,
      "d": 223.95833333334303,
      "v": 86
    },
    {
      "midi": 53,
      "hit": false,
      "t": 117875.52083333388,
      "d": 109.89583333334303,
      "v": 97
    },
    {
      "midi": 57,
      "hit": false,
      "t": 117875.52083333388,
      "d": 145.31250000001455,
      "v": 107
    },
    {
      "midi": 62,
      "hit": false,
      "t": 117879.68750000055,
      "d": 176.04166666668607,
      "v": 96
    },
    {
      "midi": 60,
      "hit": false,
      "t": 117880.72916666722,
      "d": 170.83333333334303,
      "v": 97
    },
    {
      "midi": 43,
      "hit": false,
      "t": 118050.5208333339,
      "d": 204.16666666667152,
      "v": 78
    },
    {
      "midi": 36,
      "hit": false,
      "t": 118345.8333333339,
      "d": 458.8541666666424,
      "v": 97
    },
    {
      "midi": 71,
      "hit": false,
      "t": 118690.62500000055,
      "d": 530.2083333333285,
      "v": 92
    },
    {
      "midi": 74,
      "hit": false,
      "t": 118695.83333333388,
      "d": 503.6458333333285,
      "v": 95
    },
    {
      "midi": 67,
      "hit": false,
      "t": 118700.52083333388,
      "d": 494.2708333333285,
      "v": 108
    },
    {
      "midi": 62,
      "hit": false,
      "t": 118705.72916666721,
      "d": 329.6875,
      "v": 111
    },
    {
      "midi": 48,
      "hit": false,
      "t": 118715.62500000054,
      "d": 108.85416666667152,
      "v": 102
    },
    {
      "midi": 40,
      "hit": false,
      "t": 118844.79166666721,
      "d": 115.625,
      "v": 65
    },
    {
      "midi": 33,
      "hit": false,
      "t": 119010.41666666721,
      "d": 560.9374999999854,
      "v": 94
    },
    {
      "midi": 62,
      "hit": false,
      "t": 119230.72916666721,
      "d": 218.75,
      "v": 86
    },
    {
      "midi": 71,
      "hit": false,
      "t": 119345.83333333388,
      "d": 114.58333333332848,
      "v": 84
    },
    {
      "midi": 45,
      "hit": false,
      "t": 119346.35416666721,
      "d": 224.47916666665697,
      "v": 86
    },
    {
      "midi": 74,
      "hit": false,
      "t": 119347.39583333388,
      "d": 111.97916666665697,
      "v": 80
    },
    {
      "midi": 67,
      "hit": false,
      "t": 119355.72916666721,
      "d": 98.95833333332848,
      "v": 94
    },
    {
      "midi": 40,
      "hit": false,
      "t": 119524.47916666721,
      "d": 110.93749999998545,
      "v": 28
    },
    {
      "midi": 69,
      "hit": false,
      "t": 119540.62500000054,
      "d": 359.89583333331393,
      "v": 84
    },
    {
      "midi": 65,
      "hit": false,
      "t": 119545.83333333387,
      "d": 314.5833333333285,
      "v": 93
    },
    {
      "midi": 72,
      "hit": false,
      "t": 119550.52083333387,
      "d": 333.85416666665697,
      "v": 93
    },
    {
      "midi": 60,
      "hit": false,
      "t": 119560.4166666672,
      "d": 180.20833333332848,
      "v": 104
    },
    {
      "midi": 38,
      "hit": false,
      "t": 119680.7291666672,
      "d": 354.68749999998545,
      "v": 92
    },
    {
      "midi": 60,
      "hit": false,
      "t": 119920.83333333385,
      "d": 109.89583333332848,
      "v": 78
    },
    {
      "midi": 69,
      "hit": false,
      "t": 120030.72916666718,
      "d": 179.6875000000291,
      "v": 86
    },
    {
      "midi": 72,
      "hit": false,
      "t": 120036.45833333385,
      "d": 173.9583333333576,
      "v": 91
    },
    {
      "midi": 65,
      "hit": false,
      "t": 120037.50000000052,
      "d": 167.18750000001455,
      "v": 96
    },
    {
      "midi": 45,
      "hit": false,
      "t": 120044.7916666672,
      "d": 214.58333333334303,
      "v": 83
    },
    {
      "midi": 38,
      "hit": false,
      "t": 120205.72916666721,
      "d": 123.95833333332848,
      "v": 54
    },
    {
      "midi": 60,
      "hit": false,
      "t": 120264.58333333387,
      "d": 225,
      "v": 26
    },
    {
      "midi": 69,
      "hit": false,
      "t": 120375.52083333387,
      "d": 169.27083333332848,
      "v": 72
    },
    {
      "midi": 31,
      "hit": false,
      "t": 120375.52083333387,
      "d": 589.0625000000146,
      "v": 88
    },
    {
      "midi": 65,
      "hit": false,
      "t": 120379.68750000054,
      "d": 154.68749999998545,
      "v": 80
    },
    {
      "midi": 72,
      "hit": false,
      "t": 120383.33333333387,
      "d": 141.14583333332848,
      "v": 88
    },
    {
      "midi": 65,
      "hit": false,
      "t": 120579.68750000052,
      "d": 226.04166666667152,
      "v": 77
    },
    {
      "midi": 69,
      "hit": false,
      "t": 120584.37500000052,
      "d": 265.1041666666715,
      "v": 82
    },
    {
      "midi": 74,
      "hit": false,
      "t": 120604.68750000052,
      "d": 225,
      "v": 94
    },
    {
      "midi": 62,
      "hit": false,
      "t": 120609.37500000052,
      "d": 195.3125,
      "v": 107
    },
    {
      "midi": 43,
      "hit": false,
      "t": 120743.75000000052,
      "d": 226.04166666668607,
      "v": 98
    },
    {
      "midi": 38,
      "hit": false,
      "t": 120914.58333333387,
      "d": 108.85416666667152,
      "v": 68
    },
    {
      "midi": 71,
      "hit": false,
      "t": 120934.37500000054,
      "d": 335.41666666665697,
      "v": 86
    },
    {
      "midi": 67,
      "hit": false,
      "t": 120944.79166666721,
      "d": 304.68749999998545,
      "v": 101
    },
    {
      "midi": 74,
      "hit": false,
      "t": 120945.83333333388,
      "d": 308.8541666666424,
      "v": 93
    },
    {
      "midi": 62,
      "hit": false,
      "t": 120949.47916666721,
      "d": 240.10416666665697,
      "v": 103
    },
    {
      "midi": 36,
      "hit": false,
      "t": 121073.43750000054,
      "d": 366.14583333331393,
      "v": 98
    },
    {
      "midi": 71,
      "hit": false,
      "t": 121424.4791666672,
      "d": 184.89583333331393,
      "v": 90
    },
    {
      "midi": 74,
      "hit": false,
      "t": 121429.68750000052,
      "d": 165.10416666665697,
      "v": 93
    },
    {
      "midi": 67,
      "hit": false,
      "t": 121440.62500000052,
      "d": 148.95833333332848,
      "v": 111
    },
    {
      "midi": 48,
      "hit": false,
      "t": 121444.7916666672,
      "d": 129.6875,
      "v": 98
    },
    {
      "midi": 62,
      "hit": false,
      "t": 121449.4791666672,
      "d": 130.20833333332848,
      "v": 118
    },
    {
      "midi": 40,
      "hit": false,
      "t": 121624.47916666718,
      "d": 184.89583333332848,
      "v": 63
    },
    {
      "midi": 33,
      "hit": false,
      "t": 121769.79166666718,
      "d": 619.7916666666424,
      "v": 98
    },
    {
      "midi": 40,
      "hit": false,
      "t": 121924.47916666718,
      "d": 205.20833333332848,
      "v": 20
    },
    {
      "midi": 62,
      "hit": false,
      "t": 121998.43750000051,
      "d": 196.35416666667152,
      "v": 94
    },
    {
      "midi": 74,
      "hit": false,
      "t": 122104.68750000051,
      "d": 140.10416666665697,
      "v": 75
    },
    {
      "midi": 71,
      "hit": false,
      "t": 122109.37500000051,
      "d": 140.10416666665697,
      "v": 80
    },
    {
      "midi": 67,
      "hit": false,
      "t": 122114.58333333384,
      "d": 125,
      "v": 90
    },
    {
      "midi": 45,
      "hit": false,
      "t": 122115.62500000051,
      "d": 264.06249999998545,
      "v": 91
    },
    {
      "midi": 64,
      "hit": false,
      "t": 122119.79166666718,
      "d": 114.58333333332848,
      "v": 97
    },
    {
      "midi": 40,
      "hit": false,
      "t": 122323.4375000005,
      "d": 106.25,
      "v": 74
    },
    {
      "midi": 69,
      "hit": false,
      "t": 122338.54166666717,
      "d": 351.04166666665697,
      "v": 91
    },
    {
      "midi": 65,
      "hit": false,
      "t": 122348.4375000005,
      "d": 300,
      "v": 99
    },
    {
      "midi": 72,
      "hit": false,
      "t": 122350.52083333382,
      "d": 288.02083333334303,
      "v": 96
    },
    {
      "midi": 60,
      "hit": false,
      "t": 122351.5625000005,
      "d": 203.125,
      "v": 101
    },
    {
      "midi": 38,
      "hit": false,
      "t": 122474.47916666717,
      "d": 340.1041666666715,
      "v": 97
    },
    {
      "midi": 60,
      "hit": false,
      "t": 122704.6875000005,
      "d": 190.10416666668607,
      "v": 84
    },
    {
      "midi": 65,
      "hit": false,
      "t": 122809.3750000005,
      "d": 200.00000000001455,
      "v": 98
    },
    {
      "midi": 69,
      "hit": false,
      "t": 122810.41666666717,
      "d": 214.06250000001455,
      "v": 94
    },
    {
      "midi": 72,
      "hit": false,
      "t": 122815.62500000051,
      "d": 164.0625,
      "v": 94
    },
    {
      "midi": 45,
      "hit": false,
      "t": 122829.68750000051,
      "d": 240.10416666667152,
      "v": 87
    },
    {
      "midi": 38,
      "hit": false,
      "t": 123019.79166666718,
      "d": 125,
      "v": 53
    },
    {
      "midi": 60,
      "hit": false,
      "t": 123059.37500000051,
      "d": 229.16666666667152,
      "v": 57
    },
    {
      "midi": 69,
      "hit": false,
      "t": 123149.47916666718,
      "d": 195.3125,
      "v": 74
    },
    {
      "midi": 65,
      "hit": false,
      "t": 123154.68750000052,
      "d": 191.14583333332848,
      "v": 80
    },
    {
      "midi": 31,
      "hit": false,
      "t": 123159.37500000052,
      "d": 585.4166666666424,
      "v": 90
    },
    {
      "midi": 72,
      "hit": false,
      "t": 123164.58333333385,
      "d": 144.79166666665697,
      "v": 90
    },
    {
      "midi": 69,
      "hit": false,
      "t": 123359.37500000052,
      "d": 249.99999999998545,
      "v": 88
    },
    {
      "midi": 65,
      "hit": false,
      "t": 123364.58333333385,
      "d": 214.0625,
      "v": 89
    },
    {
      "midi": 74,
      "hit": false,
      "t": 123384.37500000052,
      "d": 214.06249999998545,
      "v": 94
    },
    {
      "midi": 62,
      "hit": false,
      "t": 123389.58333333385,
      "d": 179.16666666667152,
      "v": 104
    },
    {
      "midi": 43,
      "hit": false,
      "t": 123514.58333333385,
      "d": 219.7916666666424,
      "v": 105
    },
    {
      "midi": 71,
      "hit": false,
      "t": 123709.37500000051,
      "d": 380.2083333333285,
      "v": 86
    },
    {
      "midi": 38,
      "hit": false,
      "t": 123714.58333333384,
      "d": 94.79166666665697,
      "v": 83
    },
    {
      "midi": 67,
      "hit": false,
      "t": 123719.79166666717,
      "d": 379.6875,
      "v": 101
    },
    {
      "midi": 74,
      "hit": false,
      "t": 123720.83333333384,
      "d": 298.9583333333285,
      "v": 90
    },
    {
      "midi": 62,
      "hit": false,
      "t": 123721.35416666717,
      "d": 253.125,
      "v": 81
    },
    {
      "midi": 64,
      "hit": false,
      "t": 123724.47916666717,
      "d": 195.3125,
      "v": 86
    },
    {
      "midi": 36,
      "hit": false,
      "t": 123849.47916666717,
      "d": 484.89583333334303,
      "v": 92
    },
    {
      "midi": 71,
      "hit": false,
      "t": 124218.7500000005,
      "d": 180.72916666668607,
      "v": 96
    },
    {
      "midi": 74,
      "hit": false,
      "t": 124219.79166666717,
      "d": 164.58333333334303,
      "v": 94
    },
    {
      "midi": 67,
      "hit": false,
      "t": 124228.64583333384,
      "d": 171.87500000001455,
      "v": 117
    },
    {
      "midi": 62,
      "hit": false,
      "t": 124229.68750000051,
      "d": 150,
      "v": 116
    },
    {
      "midi": 48,
      "hit": false,
      "t": 124234.37500000051,
      "d": 160.41666666667152,
      "v": 99
    },
    {
      "midi": 40,
      "hit": false,
      "t": 124419.79166666718,
      "d": 175,
      "v": 56
    },
    {
      "midi": 33,
      "hit": false,
      "t": 124569.79166666718,
      "d": 609.8958333333285,
      "v": 95
    },
    {
      "midi": 62,
      "hit": false,
      "t": 124804.68750000051,
      "d": 115.10416666667152,
      "v": 90
    },
    {
      "midi": 45,
      "hit": false,
      "t": 124904.68750000051,
      "d": 253.64583333332848,
      "v": 89
    },
    {
      "midi": 74,
      "hit": false,
      "t": 124920.83333333385,
      "d": 133.85416666665697,
      "v": 87
    },
    {
      "midi": 67,
      "hit": false,
      "t": 124921.35416666718,
      "d": 123.4375,
      "v": 102
    },
    {
      "midi": 64,
      "hit": false,
      "t": 124924.47916666718,
      "d": 120.3125,
      "v": 101
    },
    {
      "midi": 40,
      "hit": false,
      "t": 125114.58333333384,
      "d": 105.20833333334303,
      "v": 68
    },
    {
      "midi": 69,
      "hit": false,
      "t": 125138.54166666717,
      "d": 359.89583333334303,
      "v": 84
    },
    {
      "midi": 65,
      "hit": false,
      "t": 125148.4375000005,
      "d": 290.10416666668607,
      "v": 97
    },
    {
      "midi": 72,
      "hit": false,
      "t": 125149.47916666717,
      "d": 254.16666666668607,
      "v": 92
    },
    {
      "midi": 60,
      "hit": false,
      "t": 125152.60416666717,
      "d": 235.93750000001455,
      "v": 102
    },
    {
      "midi": 38,
      "hit": false,
      "t": 125268.75000000051,
      "d": 355.72916666665697,
      "v": 93
    },
    {
      "midi": 60,
      "hit": false,
      "t": 125513.54166666718,
      "d": 72.39583333332848,
      "v": 91
    },
    {
      "midi": 60,
      "hit": false,
      "t": 125608.33333333384,
      "d": 70.3125,
      "v": 35
    },
    {
      "midi": 69,
      "hit": false,
      "t": 125624.47916666717,
      "d": 214.0625,
      "v": 88
    },
    {
      "midi": 45,
      "hit": false,
      "t": 125634.3750000005,
      "d": 239.0625,
      "v": 86
    },
    {
      "midi": 65,
      "hit": false,
      "t": 125635.41666666717,
      "d": 188.02083333334303,
      "v": 99
    },
    {
      "midi": 72,
      "hit": false,
      "t": 125638.54166666717,
      "d": 165.10416666667152,
      "v": 96
    },
    {
      "midi": 38,
      "hit": false,
      "t": 125833.33333333384,
      "d": 140.1041666666424,
      "v": 56
    },
    {
      "midi": 60,
      "hit": false,
      "t": 125878.64583333382,
      "d": 184.89583333332848,
      "v": 79
    },
    {
      "midi": 72,
      "hit": false,
      "t": 125953.64583333382,
      "d": 159.89583333332848,
      "v": 82
    },
    {
      "midi": 69,
      "hit": false,
      "t": 125958.33333333382,
      "d": 171.35416666665697,
      "v": 57
    },
    {
      "midi": 65,
      "hit": false,
      "t": 125963.54166666715,
      "d": 166.14583333332848,
      "v": 68
    },
    {
      "midi": 31,
      "hit": false,
      "t": 125968.75000000048,
      "d": 309.89583333331393,
      "v": 90
    },
    {
      "midi": 69,
      "hit": false,
      "t": 126158.33333333381,
      "d": 231.24999999998545,
      "v": 68
    },
    {
      "midi": 65,
      "hit": false,
      "t": 126163.54166666714,
      "d": 224.99999999998545,
      "v": 79
    },
    {
      "midi": 74,
      "hit": false,
      "t": 126188.54166666714,
      "d": 169.79166666665697,
      "v": 95
    },
    {
      "midi": 62,
      "hit": false,
      "t": 126198.43750000047,
      "d": 180.20833333332848,
      "v": 111
    },
    {
      "midi": 43,
      "hit": false,
      "t": 126308.3333333338,
      "d": 274.99999999998545,
      "v": 94
    },
    {
      "midi": 69,
      "hit": false,
      "t": 126513.54166666712,
      "d": 350,
      "v": 83
    },
    {
      "midi": 65,
      "hit": false,
      "t": 126523.43750000045,
      "d": 320.3125,
      "v": 97
    },
    {
      "midi": 72,
      "hit": false,
      "t": 126528.64583333378,
      "d": 294.7916666666715,
      "v": 94
    },
    {
      "midi": 31,
      "hit": false,
      "t": 126533.33333333378,
      "d": 95.3125,
      "v": 82
    },
    {
      "midi": 60,
      "hit": false,
      "t": 126534.37500000045,
      "d": 214.0625,
      "v": 110
    },
    {
      "midi": 38,
      "hit": false,
      "t": 126678.64583333378,
      "d": 300,
      "v": 96
    },
    {
      "midi": 60,
      "hit": false,
      "t": 126873.43750000045,
      "d": 89.58333333332848,
      "v": 88
    },
    {
      "midi": 60,
      "hit": false,
      "t": 126988.54166666711,
      "d": 65.10416666665697,
      "v": 38
    },
    {
      "midi": 69,
      "hit": false,
      "t": 126998.43750000044,
      "d": 215.10416666667152,
      "v": 83
    },
    {
      "midi": 72,
      "hit": false,
      "t": 127008.33333333377,
      "d": 207.29166666668607,
      "v": 94
    },
    {
      "midi": 65,
      "hit": false,
      "t": 127013.5416666671,
      "d": 184.89583333334303,
      "v": 102
    },
    {
      "midi": 38,
      "hit": false,
      "t": 127214.58333333378,
      "d": 123.95833333332848,
      "v": 80
    },
    {
      "midi": 60,
      "hit": false,
      "t": 127228.64583333378,
      "d": 190.10416666667152,
      "v": 92
    },
    {
      "midi": 69,
      "hit": false,
      "t": 127342.70833333378,
      "d": 140.625,
      "v": 65
    },
    {
      "midi": 65,
      "hit": false,
      "t": 127348.43750000045,
      "d": 125,
      "v": 78
    },
    {
      "midi": 72,
      "hit": false,
      "t": 127348.43750000045,
      "d": 150,
      "v": 76
    },
    {
      "midi": 31,
      "hit": false,
      "t": 127357.81250000045,
      "d": 300.5208333333285,
      "v": 91
    },
    {
      "midi": 65,
      "hit": false,
      "t": 127548.43750000045,
      "d": 209.89583333332848,
      "v": 80
    },
    {
      "midi": 69,
      "hit": false,
      "t": 127549.47916666712,
      "d": 204.16666666665697,
      "v": 68
    },
    {
      "midi": 74,
      "hit": false,
      "t": 127558.3333333338,
      "d": 224.99999999998545,
      "v": 82
    },
    {
      "midi": 62,
      "hit": false,
      "t": 127563.54166666712,
      "d": 209.89583333332848,
      "v": 102
    },
    {
      "midi": 43,
      "hit": false,
      "t": 127698.43750000045,
      "d": 290.1041666666715,
      "v": 96
    },
    {
      "midi": 74,
      "hit": false,
      "t": 127913.54166666711,
      "d": 1465.104166666686,
      "v": 76
    },
    {
      "midi": 64,
      "hit": false,
      "t": 127918.75000000044,
      "d": 1519.791666666686,
      "v": 86
    },
    {
      "midi": 62,
      "hit": false,
      "t": 127924.47916666711,
      "d": 1533.8541666666715,
      "v": 101
    },
    {
      "midi": 67,
      "hit": false,
      "t": 127926.56250000045,
      "d": 1502.083333333343,
      "v": 87
    },
    {
      "midi": 31,
      "hit": false,
      "t": 127928.64583333378,
      "d": 104.68750000001455,
      "v": 85
    },
    {
      "midi": 71,
      "hit": false,
      "t": 127929.68750000045,
      "d": 1478.645833333343,
      "v": 74
    },
    {
      "midi": 36,
      "hit": false,
      "t": 128083.3333333338,
      "d": 285.4166666666715,
      "v": 95
    },
    {
      "midi": 31,
      "hit": false,
      "t": 128503.6458333338,
      "d": 315.1041666666715,
      "v": 106
    },
    {
      "midi": 33,
      "hit": false,
      "t": 129008.3333333338,
      "d": 435.41666666665697,
      "v": 109
    },
    {
      "midi": 35,
      "hit": false,
      "t": 129553.64583333378,
      "d": 519.7916666666715,
      "v": 110
    },
    {
      "midi": 36,
      "hit": false,
      "t": 130188.54166666712,
      "d": 229.16666666667152,
      "v": 110
    },
    {
      "midi": 62,
      "hit": false,
      "t": 130867.7083333338,
      "d": 225.00000000001455,
      "v": 27
    },
    {
      "midi": 59,
      "hit": false,
      "t": 130882.81250000047,
      "d": 219.79166666668607,
      "v": 113
    },
    {
      "midi": 55,
      "hit": false,
      "t": 130883.3333333338,
      "d": 199.47916666667152,
      "v": 116
    },
    {
      "midi": 60,
      "hit": false,
      "t": 130887.50000000047,
      "d": 220.3125000000291,
      "v": 118
    },
    {
      "midi": 64,
      "hit": false,
      "t": 130888.54166666714,
      "d": 198.95833333332848,
      "v": 120
    },
    {
      "midi": 33,
      "hit": false,
      "t": 131577.60416666715,
      "d": 730.2083333333139,
      "v": 74
    },
    {
      "midi": 64,
      "hit": false,
      "t": 132227.60416666715,
      "d": 240.10416666665697,
      "v": 94
    },
    {
      "midi": 52,
      "hit": false,
      "t": 132228.6458333338,
      "d": 248.95833333334303,
      "v": 99
    },
    {
      "midi": 57,
      "hit": false,
      "t": 132229.68750000047,
      "d": 272.91666666668607,
      "v": 93
    },
    {
      "midi": 60,
      "hit": false,
      "t": 132232.81250000047,
      "d": 264.58333333334303,
      "v": 93
    },
    {
      "midi": 55,
      "hit": false,
      "t": 132237.50000000047,
      "d": 270.3125000000291,
      "v": 103
    },
    {
      "midi": 45,
      "hit": false,
      "t": 132562.5000000005,
      "d": 180.20833333334303,
      "v": 56
    },
    {
      "midi": 40,
      "hit": false,
      "t": 132733.33333333384,
      "d": 134.375,
      "v": 20
    },
    {
      "midi": 38,
      "hit": false,
      "t": 132787.5000000005,
      "d": 551.0416666666861,
      "v": 59
    },
    {
      "midi": 53,
      "hit": false,
      "t": 133297.39583333384,
      "d": 175,
      "v": 98
    },
    {
      "midi": 57,
      "hit": false,
      "t": 133302.60416666718,
      "d": 255.72916666665697,
      "v": 102
    },
    {
      "midi": 60,
      "hit": false,
      "t": 133307.81250000052,
      "d": 249.9999999999709,
      "v": 112
    },
    {
      "midi": 38,
      "hit": false,
      "t": 133562.5000000005,
      "d": 115.10416666665697,
      "v": 56
    },
    {
      "midi": 53,
      "hit": false,
      "t": 133582.8125000005,
      "d": 269.79166666665697,
      "v": 78
    },
    {
      "midi": 31,
      "hit": false,
      "t": 133712.5000000005,
      "d": 691.1458333333721,
      "v": 80
    },
    {
      "midi": 57,
      "hit": false,
      "t": 133717.70833333384,
      "d": 194.79166666665697,
      "v": 85
    },
    {
      "midi": 60,
      "hit": false,
      "t": 133718.7500000005,
      "d": 198.95833333334303,
      "v": 92
    },
    {
      "midi": 53,
      "hit": false,
      "t": 133968.7500000005,
      "d": 433.8541666667152,
      "v": 104
    },
    {
      "midi": 59,
      "hit": false,
      "t": 133973.4375000005,
      "d": 473.95833333337214,
      "v": 106
    },
    {
      "midi": 62,
      "hit": false,
      "t": 133978.64583333384,
      "d": 418.7500000000291,
      "v": 101
    },
    {
      "midi": 43,
      "hit": false,
      "t": 134107.81250000052,
      "d": 314.58333333334303,
      "v": 94
    },
    {
      "midi": 38,
      "hit": false,
      "t": 134362.50000000052,
      "d": 115.10416666668607,
      "v": 67
    },
    {
      "midi": 36,
      "hit": false,
      "t": 134502.6041666672,
      "d": 416.1458333332848,
      "v": 90
    },
    {
      "midi": 59,
      "hit": false,
      "t": 134877.6041666672,
      "d": 165.10416666662786,
      "v": 98
    },
    {
      "midi": 52,
      "hit": false,
      "t": 134878.64583333387,
      "d": 129.16666666662786,
      "v": 97
    },
    {
      "midi": 48,
      "hit": false,
      "t": 134879.68750000052,
      "d": 167.70833333331393,
      "v": 93
    },
    {
      "midi": 55,
      "hit": false,
      "t": 134880.72916666718,
      "d": 206.77083333331393,
      "v": 100
    },
    {
      "midi": 62,
      "hit": false,
      "t": 134881.77083333384,
      "d": 170.83333333334303,
      "v": 106
    },
    {
      "midi": 40,
      "hit": false,
      "t": 135067.70833333384,
      "d": 150,
      "v": 57
    },
    {
      "midi": 33,
      "hit": false,
      "t": 135237.5000000005,
      "d": 620.3125000000291,
      "v": 88
    },
    {
      "midi": 62,
      "hit": false,
      "t": 135429.6875000005,
      "d": 247.39583333334303,
      "v": 77
    },
    {
      "midi": 55,
      "hit": false,
      "t": 135448.4375000005,
      "d": 304.16666666668607,
      "v": 94
    },
    {
      "midi": 52,
      "hit": false,
      "t": 135451.5625000005,
      "d": 201.04166666668607,
      "v": 91
    },
    {
      "midi": 59,
      "hit": false,
      "t": 135464.58333333384,
      "d": 258.85416666668607,
      "v": 77
    },
    {
      "midi": 45,
      "hit": false,
      "t": 135606.77083333384,
      "d": 245.83333333334303,
      "v": 81
    },
    {
      "midi": 40,
      "hit": false,
      "t": 135806.77083333384,
      "d": 114.58333333334303,
      "v": 58
    },
    {
      "midi": 53,
      "hit": false,
      "t": 135817.70833333384,
      "d": 193.75,
      "v": 92
    },
    {
      "midi": 57,
      "hit": false,
      "t": 135817.70833333384,
      "d": 308.85416666665697,
      "v": 99
    },
    {
      "midi": 60,
      "hit": false,
      "t": 135821.35416666718,
      "d": 290.10416666665697,
      "v": 96
    },
    {
      "midi": 38,
      "hit": false,
      "t": 135941.66666666718,
      "d": 344.79166666662786,
      "v": 85
    },
    {
      "midi": 53,
      "hit": false,
      "t": 136152.60416666715,
      "d": 72.91666666665697,
      "v": 78
    },
    {
      "midi": 53,
      "hit": false,
      "t": 136256.7708333338,
      "d": 69.79166666668607,
      "v": 45
    },
    {
      "midi": 57,
      "hit": false,
      "t": 136281.7708333338,
      "d": 226.04166666668607,
      "v": 94
    },
    {
      "midi": 60,
      "hit": false,
      "t": 136291.66666666715,
      "d": 216.66666666668607,
      "v": 93
    },
    {
      "midi": 45,
      "hit": false,
      "t": 136296.35416666715,
      "d": 236.45833333334303,
      "v": 81
    },
    {
      "midi": 38,
      "hit": false,
      "t": 136462.5000000005,
      "d": 119.27083333334303,
      "v": 43
    },
    {
      "midi": 53,
      "hit": false,
      "t": 136502.60416666715,
      "d": 214.0625,
      "v": 79
    },
    {
      "midi": 31,
      "hit": false,
      "t": 136611.45833333384,
      "d": 330.20833333334303,
      "v": 77
    },
    {
      "midi": 57,
      "hit": false,
      "t": 136621.35416666718,
      "d": 120.3124999999709,
      "v": 91
    },
    {
      "midi": 60,
      "hit": false,
      "t": 136631.77083333384,
      "d": 119.79166666665697,
      "v": 96
    },
    {
      "midi": 53,
      "hit": false,
      "t": 136822.39583333384,
      "d": 259.375,
      "v": 105
    },
    {
      "midi": 62,
      "hit": false,
      "t": 136827.60416666718,
      "d": 255.20833333331393,
      "v": 104
    },
    {
      "midi": 59,
      "hit": false,
      "t": 136828.64583333384,
      "d": 247.91666666665697,
      "v": 103
    },
    {
      "midi": 43,
      "hit": false,
      "t": 136956.77083333384,
      "d": 219.79166666662786,
      "v": 91
    },
    {
      "midi": 38,
      "hit": false,
      "t": 137102.60416666715,
      "d": 133.85416666665697,
      "v": 75
    },
    {
      "midi": 52,
      "hit": false,
      "t": 137266.66666666715,
      "d": 94.79166666665697,
      "v": 94
    },
    {
      "midi": 59,
      "hit": false,
      "t": 137267.7083333338,
      "d": 134.89583333334303,
      "v": 87
    },
    {
      "midi": 62,
      "hit": false,
      "t": 137271.35416666715,
      "d": 141.14583333334303,
      "v": 90
    },
    {
      "midi": 55,
      "hit": false,
      "t": 137272.3958333338,
      "d": 119.27083333334303,
      "v": 95
    },
    {
      "midi": 36,
      "hit": false,
      "t": 137281.7708333338,
      "d": 126.04166666668607,
      "v": 94
    },
    {
      "midi": 52,
      "hit": false,
      "t": 137422.39583333384,
      "d": 119.27083333334303,
      "v": 75
    },
    {
      "midi": 55,
      "hit": false,
      "t": 137596.35416666718,
      "d": 95.3125,
      "v": 95
    },
    {
      "midi": 36,
      "hit": false,
      "t": 137752.60416666718,
      "d": 650,
      "v": 97
    },
    {
      "midi": 43,
      "hit": false,
      "t": 137753.64583333384,
      "d": 323.95833333331393,
      "v": 90
    },
    {
      "midi": 52,
      "hit": false,
      "t": 137767.70833333384,
      "d": 350,
      "v": 98
    },
    {
      "midi": 59,
      "hit": false,
      "t": 137768.7500000005,
      "d": 463.02083333334303,
      "v": 95
    },
    {
      "midi": 55,
      "hit": false,
      "t": 137772.39583333384,
      "d": 559.375,
      "v": 97
    },
    {
      "midi": 62,
      "hit": false,
      "t": 137773.4375000005,
      "d": 472.91666666668607,
      "v": 97
    },
    {
      "midi": 48,
      "hit": false,
      "t": 138082.8125000005,
      "d": 309.89583333334303,
      "v": 103
    },
    {
      "midi": 52,
      "hit": false,
      "t": 138226.5625000005,
      "d": 135.9375,
      "v": 102
    },
    {
      "midi": 43,
      "hit": false,
      "t": 138336.45833333384,
      "d": 140.10416666668607,
      "v": 84
    },
    {
      "midi": 41,
      "hit": false,
      "t": 138506.77083333387,
      "d": 384.89583333334303,
      "v": 87
    },
    {
      "midi": 48,
      "hit": false,
      "t": 138516.6666666672,
      "d": 250,
      "v": 94
    },
    {
      "midi": 55,
      "hit": false,
      "t": 138521.3541666672,
      "d": 136.45833333334303,
      "v": 91
    },
    {
      "midi": 52,
      "hit": false,
      "t": 138522.39583333387,
      "d": 94.27083333334303,
      "v": 93
    },
    {
      "midi": 57,
      "hit": false,
      "t": 138523.43750000052,
      "d": 159.3750000000291,
      "v": 91
    },
    {
      "midi": 60,
      "hit": false,
      "t": 138531.77083333387,
      "d": 279.6875,
      "v": 94
    },
    {
      "midi": 52,
      "hit": false,
      "t": 138707.81250000055,
      "d": 113.54166666665697,
      "v": 93
    },
    {
      "midi": 55,
      "hit": false,
      "t": 138841.6666666672,
      "d": 104.6875,
      "v": 84
    },
    {
      "midi": 55,
      "hit": false,
      "t": 138956.77083333387,
      "d": 559.8958333333139,
      "v": 90
    },
    {
      "midi": 40,
      "hit": false,
      "t": 138957.81250000052,
      "d": 598.9583333333139,
      "v": 90
    },
    {
      "midi": 47,
      "hit": false,
      "t": 138967.70833333387,
      "d": 173.95833333331393,
      "v": 105
    },
    {
      "midi": 50,
      "hit": false,
      "t": 138977.6041666672,
      "d": 309.89583333331393,
      "v": 99
    },
    {
      "midi": 59,
      "hit": false,
      "t": 138978.64583333387,
      "d": 507.8124999999709,
      "v": 92
    },
    {
      "midi": 47,
      "hit": false,
      "t": 139251.56250000052,
      "d": 290.10416666665697,
      "v": 106
    },
    {
      "midi": 50,
      "hit": false,
      "t": 139391.66666666718,
      "d": 140.10416666665697,
      "v": 109
    },
    {
      "midi": 45,
      "hit": false,
      "t": 139546.35416666718,
      "d": 146.35416666665697,
      "v": 87
    },
    {
      "midi": 57,
      "hit": false,
      "t": 139701.5625000005,
      "d": 155.20833333328483,
      "v": 91
    },
    {
      "midi": 53,
      "hit": false,
      "t": 139703.6458333338,
      "d": 128.1249999999709,
      "v": 94
    },
    {
      "midi": 38,
      "hit": false,
      "t": 139706.7708333338,
      "d": 359.89583333331393,
      "v": 90
    },
    {
      "midi": 48,
      "hit": false,
      "t": 139707.81250000047,
      "d": 88.54166666665697,
      "v": 96
    },
    {
      "midi": 50,
      "hit": false,
      "t": 139881.77083333378,
      "d": 169.79166666668607,
      "v": 94
    },
    {
      "midi": 45,
      "hit": false,
      "t": 140002.60416666712,
      "d": 123.95833333334303,
      "v": 83
    },
    {
      "midi": 53,
      "hit": false,
      "t": 140176.56250000047,
      "d": 365.10416666668607,
      "v": 100
    },
    {
      "midi": 60,
      "hit": false,
      "t": 140181.7708333338,
      "d": 528.645833333343,
      "v": 100
    },
    {
      "midi": 57,
      "hit": false,
      "t": 140182.81250000047,
      "d": 613.020833333343,
      "v": 103
    },
    {
      "midi": 43,
      "hit": false,
      "t": 140186.4583333338,
      "d": 370.3125,
      "v": 98
    },
    {
      "midi": 50,
      "hit": false,
      "t": 140506.7708333338,
      "d": 273.95833333334303,
      "v": 98
    },
    {
      "midi": 53,
      "hit": false,
      "t": 140650.5208333338,
      "d": 106.25,
      "v": 105
    },
    {
      "midi": 43,
      "hit": false,
      "t": 140785.41666666715,
      "d": 210.41666666662786,
      "v": 78
    },
    {
      "midi": 36,
      "hit": false,
      "t": 140965.62500000047,
      "d": 180.20833333331393,
      "v": 92
    },
    {
      "midi": 59,
      "hit": false,
      "t": 140976.56250000047,
      "d": 133.85416666665697,
      "v": 91
    },
    {
      "midi": 55,
      "hit": false,
      "t": 140980.72916666712,
      "d": 150,
      "v": 103
    },
    {
      "midi": 52,
      "hit": false,
      "t": 140981.77083333378,
      "d": 139.0625,
      "v": 98
    },
    {
      "midi": 62,
      "hit": false,
      "t": 140985.41666666712,
      "d": 135.9375,
      "v": 90
    },
    {
      "midi": 48,
      "hit": false,
      "t": 141125.52083333378,
      "d": 220.3125,
      "v": 94
    },
    {
      "midi": 36,
      "hit": false,
      "t": 141280.72916666712,
      "d": 150,
      "v": 90
    },
    {
      "midi": 56,
      "hit": false,
      "t": 141445.83333333378,
      "d": 735.9374999999709,
      "v": 96
    },
    {
      "midi": 59,
      "hit": false,
      "t": 141450.52083333378,
      "d": 720.8333333333139,
      "v": 101
    },
    {
      "midi": 50,
      "hit": false,
      "t": 141455.72916666712,
      "d": 355.72916666665697,
      "v": 107
    },
    {
      "midi": 40,
      "hit": false,
      "t": 141460.41666666712,
      "d": 270.3125,
      "v": 101
    },
    {
      "midi": 40,
      "hit": false,
      "t": 141775.52083333378,
      "d": 145.3125,
      "v": 80
    },
    {
      "midi": 50,
      "hit": false,
      "t": 141925.52083333378,
      "d": 195.83333333331393,
      "v": 107
    },
    {
      "midi": 40,
      "hit": false,
      "t": 142070.83333333378,
      "d": 140.6249999999709,
      "v": 65
    },
    {
      "midi": 33,
      "hit": false,
      "t": 142236.45833333375,
      "d": 489.0625000000291,
      "v": 98
    },
    {
      "midi": 57,
      "hit": false,
      "t": 142585.4166666671,
      "d": 130.20833333334303,
      "v": 99
    },
    {
      "midi": 40,
      "hit": false,
      "t": 142586.45833333375,
      "d": 191.14583333337214,
      "v": 20
    },
    {
      "midi": 45,
      "hit": false,
      "t": 142587.5000000004,
      "d": 189.0625000000582,
      "v": 89
    },
    {
      "midi": 52,
      "hit": false,
      "t": 142590.6250000004,
      "d": 130.20833333337214,
      "v": 99
    },
    {
      "midi": 60,
      "hit": false,
      "t": 142595.83333333375,
      "d": 140.6250000000291,
      "v": 106
    },
    {
      "midi": 55,
      "hit": false,
      "t": 142596.3541666671,
      "d": 145.3125000000291,
      "v": 103
    },
    {
      "midi": 38,
      "hit": false,
      "t": 142751.56250000047,
      "d": 129.16666666665697,
      "v": 86
    },
    {
      "midi": 40,
      "hit": false,
      "t": 142915.62500000047,
      "d": 315.10416666665697,
      "v": 91
    },
    {
      "midi": 55,
      "hit": false,
      "t": 143086.4583333338,
      "d": 198.95833333331393,
      "v": 107
    },
    {
      "midi": 59,
      "hit": false,
      "t": 143087.50000000047,
      "d": 218.22916666665697,
      "v": 101
    },
    {
      "midi": 50,
      "hit": false,
      "t": 143091.66666666712,
      "d": 173.95833333334303,
      "v": 104
    },
    {
      "midi": 45,
      "hit": false,
      "t": 143240.62500000047,
      "d": 191.14583333331393,
      "v": 87
    },
    {
      "midi": 40,
      "hit": false,
      "t": 143371.35416666712,
      "d": 149.47916666665697,
      "v": 71
    },
    {
      "midi": 55,
      "hit": false,
      "t": 143550.52083333378,
      "d": 334.89583333331393,
      "v": 100
    },
    {
      "midi": 57,
      "hit": false,
      "t": 143552.6041666671,
      "d": 343.22916666665697,
      "v": 99
    },
    {
      "midi": 45,
      "hit": false,
      "t": 143553.64583333375,
      "d": 172.91666666665697,
      "v": 90
    },
    {
      "midi": 52,
      "hit": false,
      "t": 143555.7291666671,
      "d": 176.04166666665697,
      "v": 99
    },
    {
      "midi": 33,
      "hit": false,
      "t": 143560.4166666671,
      "d": 226.04166666665697,
      "v": 98
    },
    {
      "midi": 60,
      "hit": false,
      "t": 143561.45833333375,
      "d": 340.10416666665697,
      "v": 104
    },
    {
      "midi": 52,
      "hit": false,
      "t": 143900.52083333375,
      "d": 110.9375,
      "v": 99
    },
    {
      "midi": 36,
      "hit": false,
      "t": 144036.45833333375,
      "d": 139.0625,
      "v": 77
    },
    {
      "midi": 41,
      "hit": false,
      "t": 144210.41666666706,
      "d": 171.35416666665697,
      "v": 91
    },
    {
      "midi": 57,
      "hit": false,
      "t": 144211.45833333372,
      "d": 220.3125,
      "v": 94
    },
    {
      "midi": 29,
      "hit": false,
      "t": 144215.62500000038,
      "d": 95.83333333334303,
      "v": 98
    },
    {
      "midi": 53,
      "hit": false,
      "t": 144220.83333333372,
      "d": 195.83333333334303,
      "v": 96
    },
    {
      "midi": 48,
      "hit": false,
      "t": 144225.52083333372,
      "d": 160.9375,
      "v": 96
    },
    {
      "midi": 37,
      "hit": false,
      "t": 144356.77083333372,
      "d": 128.64583333334303,
      "v": 40
    },
    {
      "midi": 31,
      "hit": false,
      "t": 144550.52083333375,
      "d": 96.875,
      "v": 94
    },
    {
      "midi": 59,
      "hit": false,
      "t": 144555.7291666671,
      "d": 120.83333333334303,
      "v": 93
    },
    {
      "midi": 43,
      "hit": false,
      "t": 144556.77083333375,
      "d": 79.6875,
      "v": 101
    },
    {
      "midi": 50,
      "hit": false,
      "t": 144560.4166666671,
      "d": 85.9375,
      "v": 104
    },
    {
      "midi": 55,
      "hit": false,
      "t": 144561.45833333375,
      "d": 105.20833333334303,
      "v": 100
    },
    {
      "midi": 24,
      "hit": false,
      "t": 144895.83333333378,
      "d": 100.52083333334303,
      "v": 107
    },
    {
      "midi": 36,
      "hit": false,
      "t": 144896.35416666712,
      "d": 130.20833333334303,
      "v": 110
    },
    {
      "midi": 52,
      "hit": false,
      "t": 145051.56250000047,
      "d": 104.16666666665697,
      "v": 90
    },
    {
      "midi": 55,
      "hit": false,
      "t": 145204.68750000047,
      "d": 102.08333333334303,
      "v": 99
    },
    {
      "midi": 43,
      "hit": false,
      "t": 145376.56250000047,
      "d": 344.27083333331393,
      "v": 101
    },
    {
      "midi": 36,
      "hit": false,
      "t": 145386.4583333338,
      "d": 469.27083333331393,
      "v": 104
    },
    {
      "midi": 60,
      "hit": false,
      "t": 145387.50000000047,
      "d": 598.9583333333139,
      "v": 97
    },
    {
      "midi": 64,
      "hit": false,
      "t": 145391.66666666712,
      "d": 633.854166666657,
      "v": 95
    },
    {
      "midi": 52,
      "hit": false,
      "t": 145392.70833333378,
      "d": 363.02083333334303,
      "v": 97
    },
    {
      "midi": 55,
      "hit": false,
      "t": 145393.75000000044,
      "d": 566.6666666666861,
      "v": 97
    },
    {
      "midi": 48,
      "hit": false,
      "t": 145739.58333333378,
      "d": 84.89583333334303,
      "v": 113
    },
    {
      "midi": 52,
      "hit": false,
      "t": 145865.62500000047,
      "d": 120.83333333331393,
      "v": 101
    },
    {
      "midi": 38,
      "hit": false,
      "t": 146035.41666666712,
      "d": 123.95833333334303,
      "v": 83
    },
    {
      "midi": 31,
      "hit": false,
      "t": 146200.5208333338,
      "d": 330.20833333334303,
      "v": 100
    },
    {
      "midi": 43,
      "hit": false,
      "t": 146205.72916666715,
      "d": 278.64583333331393,
      "v": 108
    },
    {
      "midi": 57,
      "hit": false,
      "t": 146215.6250000005,
      "d": 119.79166666665697,
      "v": 94
    },
    {
      "midi": 53,
      "hit": false,
      "t": 146216.66666666715,
      "d": 89.0625,
      "v": 94
    },
    {
      "midi": 60,
      "hit": false,
      "t": 146221.35416666715,
      "d": 218.22916666665697,
      "v": 98
    },
    {
      "midi": 53,
      "hit": false,
      "t": 146369.79166666715,
      "d": 109.89583333331393,
      "v": 89
    },
    {
      "midi": 57,
      "hit": false,
      "t": 146500.5208333338,
      "d": 115.10416666665697,
      "v": 91
    },
    {
      "midi": 57,
      "hit": false,
      "t": 146655.72916666712,
      "d": 654.6874999999709,
      "v": 96
    },
    {
      "midi": 31,
      "hit": false,
      "t": 146664.58333333378,
      "d": 526.0416666666861,
      "v": 102
    },
    {
      "midi": 65,
      "hit": false,
      "t": 146669.79166666712,
      "d": 585.9375,
      "v": 92
    },
    {
      "midi": 43,
      "hit": false,
      "t": 146670.83333333378,
      "d": 225,
      "v": 105
    },
    {
      "midi": 60,
      "hit": false,
      "t": 146674.47916666712,
      "d": 621.354166666657,
      "v": 106
    },
    {
      "midi": 53,
      "hit": false,
      "t": 146676.56250000047,
      "d": 378.125,
      "v": 98
    },
    {
      "midi": 43,
      "hit": false,
      "t": 147019.79166666712,
      "d": 369.79166666662786,
      "v": 120
    },
    {
      "midi": 53,
      "hit": false,
      "t": 147155.72916666712,
      "d": 164.0624999999709,
      "v": 110
    },
    {
      "midi": 40,
      "hit": false,
      "t": 147309.37500000044,
      "d": 151.04166666665697,
      "v": 90
    },
    {
      "midi": 33,
      "hit": false,
      "t": 147490.62500000044,
      "d": 605.2083333332848,
      "v": 98
    },
    {
      "midi": 52,
      "hit": false,
      "t": 147880.7291666671,
      "d": 168.7499999999709,
      "v": 101
    },
    {
      "midi": 64,
      "hit": false,
      "t": 147885.4166666671,
      "d": 166.14583333328483,
      "v": 95
    },
    {
      "midi": 59,
      "hit": false,
      "t": 147886.45833333375,
      "d": 189.0624999999709,
      "v": 96
    },
    {
      "midi": 45,
      "hit": false,
      "t": 147887.5000000004,
      "d": 222.91666666665697,
      "v": 101
    },
    {
      "midi": 55,
      "hit": false,
      "t": 147888.54166666706,
      "d": 196.875,
      "v": 103
    },
    {
      "midi": 60,
      "hit": false,
      "t": 147889.58333333372,
      "d": 160.9375,
      "v": 104
    },
    {
      "midi": 38,
      "hit": false,
      "t": 148054.68750000038,
      "d": 130.72916666668607,
      "v": 88
    },
    {
      "midi": 40,
      "hit": false,
      "t": 148235.41666666706,
      "d": 345.3124999999709,
      "v": 96
    },
    {
      "midi": 59,
      "hit": false,
      "t": 148410.41666666706,
      "d": 345.3124999999709,
      "v": 102
    },
    {
      "midi": 50,
      "hit": false,
      "t": 148411.45833333372,
      "d": 268.22916666665697,
      "v": 101
    },
    {
      "midi": 55,
      "hit": false,
      "t": 148415.62500000038,
      "d": 305.20833333334303,
      "v": 107
    },
    {
      "midi": 45,
      "hit": false,
      "t": 148594.79166666704,
      "d": 220.83333333331393,
      "v": 87
    },
    {
      "midi": 40,
      "hit": false,
      "t": 148740.62500000038,
      "d": 130.20833333331393,
      "v": 64
    },
    {
      "midi": 55,
      "hit": false,
      "t": 148909.37500000035,
      "d": 375.0000000000291,
      "v": 94
    },
    {
      "midi": 45,
      "hit": false,
      "t": 148919.791666667,
      "d": 480.7291666667152,
      "v": 101
    },
    {
      "midi": 52,
      "hit": false,
      "t": 148921.354166667,
      "d": 204.16666666668607,
      "v": 101
    },
    {
      "midi": 57,
      "hit": false,
      "t": 148922.39583333366,
      "d": 342.1875000000291,
      "v": 100
    },
    {
      "midi": 33,
      "hit": false,
      "t": 148924.479166667,
      "d": 491.14583333337214,
      "v": 102
    },
    {
      "midi": 60,
      "hit": false,
      "t": 148929.68750000035,
      "d": 329.6875,
      "v": 108
    },
    {
      "midi": 52,
      "hit": false,
      "t": 149269.79166666704,
      "d": 115.6250000000291,
      "v": 82
    },
    {
      "midi": 59,
      "hit": false,
      "t": 149460.41666666704,
      "d": 320.3125000000291,
      "v": 97
    },
    {
      "midi": 50,
      "hit": false,
      "t": 149465.62500000038,
      "d": 240.10416666668607,
      "v": 107
    },
    {
      "midi": 55,
      "hit": false,
      "t": 149470.83333333372,
      "d": 319.79166666668607,
      "v": 114
    },
    {
      "midi": 40,
      "hit": false,
      "t": 149471.35416666706,
      "d": 479.16666666662786,
      "v": 102
    },
    {
      "midi": 52,
      "hit": false,
      "t": 149864.58333333372,
      "d": 330.2083333332848,
      "v": 111
    },
    {
      "midi": 57,
      "hit": false,
      "t": 149865.62500000038,
      "d": 354.16666666662786,
      "v": 113
    },
    {
      "midi": 60,
      "hit": false,
      "t": 149869.79166666704,
      "d": 334.89583333331393,
      "v": 114
    },
    {
      "midi": 45,
      "hit": false,
      "t": 149990.62500000035,
      "d": 290.10416666665697,
      "v": 98
    },
    {
      "midi": 33,
      "hit": false,
      "t": 149991.666666667,
      "d": 273.95833333334303,
      "v": 95
    },
    {
      "midi": 40,
      "hit": false,
      "t": 150229.68750000035,
      "d": 105.72916666665697,
      "v": 74
    },
    {
      "midi": 53,
      "hit": false,
      "t": 150420.83333333366,
      "d": 154.6875000000291,
      "v": 110
    },
    {
      "midi": 31,
      "hit": false,
      "t": 150421.354166667,
      "d": 127.08333333334303,
      "v": 102
    },
    {
      "midi": 57,
      "hit": false,
      "t": 150425.52083333366,
      "d": 180.20833333337214,
      "v": 112
    },
    {
      "midi": 43,
      "hit": false,
      "t": 150430.729166667,
      "d": 93.75,
      "v": 113
    },
    {
      "midi": 60,
      "hit": false,
      "t": 150431.77083333366,
      "d": 177.60416666671517,
      "v": 114
    },
    {
      "midi": 52,
      "hit": false,
      "t": 150804.68750000038,
      "d": 765.104166666657,
      "v": 102
    },
    {
      "midi": 55,
      "hit": false,
      "t": 150809.37500000038,
      "d": 830.2083333333139,
      "v": 103
    },
    {
      "midi": 59,
      "hit": false,
      "t": 150810.41666666704,
      "d": 693.229166666657,
      "v": 98
    },
    {
      "midi": 62,
      "hit": false,
      "t": 150811.4583333337,
      "d": 686.979166666657,
      "v": 100
    },
    {
      "midi": 24,
      "hit": false,
      "t": 150814.5833333337,
      "d": 494.79166666665697,
      "v": 97
    },
    {
      "midi": 36,
      "hit": false,
      "t": 150814.5833333337,
      "d": 555.2083333333139,
      "v": 108
    },
    {
      "midi": 38,
      "hit": false,
      "t": 152225.5208333337,
      "d": 923.9583333332848,
      "v": 111
    },
    {
      "midi": 50,
      "hit": false,
      "t": 152226.56250000035,
      "d": 1022.9166666666279,
      "v": 109
    },
    {
      "midi": 55,
      "hit": false,
      "t": 152226.56250000035,
      "d": 1047.9166666666279,
      "v": 105
    },
    {
      "midi": 57,
      "hit": false,
      "t": 152227.604166667,
      "d": 1036.9791666666279,
      "v": 107
    },
    {
      "midi": 62,
      "hit": false,
      "t": 152228.64583333366,
      "d": 1085.9375,
      "v": 104
    },
    {
      "midi": 45,
      "hit": false,
      "t": 152229.68750000032,
      "d": 1050,
      "v": 113
    },
    {
      "midi": 67,
      "hit": false,
      "t": 154254.68750000035,
      "d": 1084.895833333314,
      "v": 114
    },
    {
      "midi": 62,
      "hit": false,
      "t": 154259.37500000035,
      "d": 1106.249999999971,
      "v": 119
    },
    {
      "midi": 57,
      "hit": false,
      "t": 154260.416666667,
      "d": 1169.270833333314,
      "v": 118
    },
    {
      "midi": 43,
      "hit": false,
      "t": 154266.666666667,
      "d": 1003.125,
      "v": 120
    },
    {
      "midi": 50,
      "hit": false,
      "t": 154266.666666667,
      "d": 1097.916666666657,
      "v": 119
    },
    {
      "midi": 43,
      "hit": false,
      "t": 156038.54166666698,
      "d": 690.1041666666861,
      "v": 102
    },
    {
      "midi": 48,
      "hit": false,
      "t": 156044.79166666698,
      "d": 628.645833333343,
      "v": 117
    },
    {
      "midi": 36,
      "hit": false,
      "t": 156044.79166666698,
      "d": 673.958333333343,
      "v": 104
    },
    {
      "midi": 55,
      "hit": false,
      "t": 156049.47916666698,
      "d": 819.270833333343,
      "v": 113
    },
    {
      "midi": 31,
      "hit": false,
      "t": 157748.43750000032,
      "d": 574.9999999999709,
      "v": 104
    },
    {
      "midi": 43,
      "hit": false,
      "t": 157757.81250000032,
      "d": 575.5208333333139,
      "v": 111
    },
    {
      "midi": 62,
      "hit": false,
      "t": 157758.33333333366,
      "d": 465.10416666662786,
      "v": 117
    },
    {
      "midi": 67,
      "hit": false,
      "t": 157762.50000000032,
      "d": 416.14583333331393,
      "v": 114
    },
    {
      "midi": 57,
      "hit": false,
      "t": 157763.54166666698,
      "d": 505.20833333331393,
      "v": 120
    },
    {
      "midi": 31,
      "hit": false,
      "t": 158823.4375000003,
      "d": 90.10416666665697,
      "v": 98
    },
    {
      "midi": 43,
      "hit": false,
      "t": 158833.33333333363,
      "d": 70.3124999999709,
      "v": 117
    },
    {
      "midi": 65,
      "hit": false,
      "t": 158834.3750000003,
      "d": 119.27083333331393,
      "v": 99
    },
    {
      "midi": 53,
      "hit": false,
      "t": 158838.54166666695,
      "d": 94.79166666665697,
      "v": 111
    },
    {
      "midi": 57,
      "hit": false,
      "t": 158839.5833333336,
      "d": 89.0625,
      "v": 109
    },
    {
      "midi": 60,
      "hit": false,
      "t": 158843.75000000026,
      "d": 94.79166666668607,
      "v": 117
    },
    {
      "midi": 24,
      "hit": false,
      "t": 159154.6875000003,
      "d": 439.0625000000291,
      "v": 103
    },
    {
      "midi": 36,
      "hit": false,
      "t": 159158.33333333363,
      "d": 310.41666666665697,
      "v": 102
    },
    {
      "midi": 62,
      "hit": false,
      "t": 159503.64583333363,
      "d": 215.10416666668607,
      "v": 99
    },
    {
      "midi": 59,
      "hit": false,
      "t": 159504.6875000003,
      "d": 203.64583333337214,
      "v": 93
    },
    {
      "midi": 64,
      "hit": false,
      "t": 159508.33333333363,
      "d": 180.20833333334303,
      "v": 103
    },
    {
      "midi": 55,
      "hit": false,
      "t": 159513.54166666698,
      "d": 184.89583333334303,
      "v": 103
    },
    {
      "midi": 52,
      "hit": false,
      "t": 159523.43750000032,
      "d": 146.35416666665697,
      "v": 111
    },
    {
      "midi": 36,
      "hit": false,
      "t": 159568.75000000032,
      "d": 189.58333333334303,
      "v": 21
    },
    {
      "midi": 24,
      "hit": false,
      "t": 159733.33333333366,
      "d": 120.3125,
      "v": 87
    },
    {
      "midi": 31,
      "hit": false,
      "t": 159828.64583333366,
      "d": 294.79166666662786,
      "v": 90
    },
    {
      "midi": 57,
      "hit": false,
      "t": 160023.43750000032,
      "d": 215.10416666662786,
      "v": 102
    },
    {
      "midi": 53,
      "hit": false,
      "t": 160024.47916666698,
      "d": 258.3333333332848,
      "v": 99
    },
    {
      "midi": 62,
      "hit": false,
      "t": 160028.64583333363,
      "d": 215.10416666662786,
      "v": 103
    },
    {
      "midi": 65,
      "hit": false,
      "t": 160029.6875000003,
      "d": 193.75,
      "v": 88
    },
    {
      "midi": 60,
      "hit": false,
      "t": 160030.72916666695,
      "d": 208.85416666665697,
      "v": 92
    },
    {
      "midi": 31,
      "hit": false,
      "t": 160183.33333333363,
      "d": 140.10416666662786,
      "v": 77
    },
    {
      "midi": 31,
      "hit": false,
      "t": 160348.43750000026,
      "d": 130.20833333334303,
      "v": 21
    },
    {
      "midi": 62,
      "hit": false,
      "t": 160498.43750000026,
      "d": 190.10416666656965,
      "v": 90
    },
    {
      "midi": 59,
      "hit": false,
      "t": 160499.47916666692,
      "d": 169.27083333325572,
      "v": 85
    },
    {
      "midi": 55,
      "hit": false,
      "t": 160503.64583333358,
      "d": 185.9374999999127,
      "v": 91
    },
    {
      "midi": 64,
      "hit": false,
      "t": 160505.7291666669,
      "d": 157.8124999999418,
      "v": 91
    },
    {
      "midi": 52,
      "hit": false,
      "t": 160506.77083333355,
      "d": 141.66666666662786,
      "v": 93
    },
    {
      "midi": 36,
      "hit": false,
      "t": 160507.8125000002,
      "d": 209.89583333328483,
      "v": 90
    },
    {
      "midi": 24,
      "hit": false,
      "t": 160513.54166666686,
      "d": 115.10416666665697,
      "v": 94
    },
    {
      "midi": 62,
      "hit": false,
      "t": 160838.54166666683,
      "d": 189.0624999999709,
      "v": 89
    },
    {
      "midi": 55,
      "hit": false,
      "t": 160843.75000000017,
      "d": 149.9999999999709,
      "v": 94
    },
    {
      "midi": 59,
      "hit": false,
      "t": 160844.79166666683,
      "d": 157.8124999999709,
      "v": 88
    },
    {
      "midi": 64,
      "hit": false,
      "t": 160845.8333333335,
      "d": 162.4999999999709,
      "v": 90
    },
    {
      "midi": 52,
      "hit": false,
      "t": 160847.3958333335,
      "d": 126.04166666665697,
      "v": 98
    },
    {
      "midi": 38,
      "hit": false,
      "t": 161022.39583333346,
      "d": 105.20833333334303,
      "v": 80
    },
    {
      "midi": 31,
      "hit": false,
      "t": 161157.81250000015,
      "d": 579.6875,
      "v": 90
    },
    {
      "midi": 57,
      "hit": false,
      "t": 161383.3333333335,
      "d": 200,
      "v": 102
    },
    {
      "midi": 65,
      "hit": false,
      "t": 161383.3333333335,
      "d": 200,
      "v": 93
    },
    {
      "midi": 60,
      "hit": false,
      "t": 161388.54166666683,
      "d": 189.0625,
      "v": 97
    },
    {
      "midi": 53,
      "hit": false,
      "t": 161389.5833333335,
      "d": 182.8125,
      "v": 96
    },
    {
      "midi": 62,
      "hit": false,
      "t": 161389.5833333335,
      "d": 194.79166666665697,
      "v": 99
    },
    {
      "midi": 43,
      "hit": false,
      "t": 161517.7083333335,
      "d": 225,
      "v": 101
    },
    {
      "midi": 38,
      "hit": false,
      "t": 161687.50000000015,
      "d": 90.10416666668607,
      "v": 68
    },
    {
      "midi": 36,
      "hit": false,
      "t": 161827.60416666683,
      "d": 515.104166666657,
      "v": 110
    },
    {
      "midi": 62,
      "hit": false,
      "t": 162152.60416666683,
      "d": 330.72916666665697,
      "v": 98
    },
    {
      "midi": 52,
      "hit": false,
      "t": 162157.81250000017,
      "d": 189.58333333331393,
      "v": 98
    },
    {
      "midi": 64,
      "hit": false,
      "t": 162158.33333333352,
      "d": 249.47916666662786,
      "v": 101
    },
    {
      "midi": 59,
      "hit": false,
      "t": 162159.37500000017,
      "d": 283.33333333331393,
      "v": 98
    },
    {
      "midi": 55,
      "hit": false,
      "t": 162160.41666666683,
      "d": 252.08333333331393,
      "v": 100
    },
    {
      "midi": 38,
      "hit": false,
      "t": 162343.75000000015,
      "d": 178.64583333331393,
      "v": 80
    },
    {
      "midi": 31,
      "hit": false,
      "t": 162484.37500000015,
      "d": 448.4374999999709,
      "v": 94
    },
    {
      "midi": 65,
      "hit": false,
      "t": 162692.70833333346,
      "d": 219.79166666665697,
      "v": 101
    },
    {
      "midi": 53,
      "hit": false,
      "t": 162697.39583333346,
      "d": 180.20833333331393,
      "v": 94
    },
    {
      "midi": 60,
      "hit": false,
      "t": 162698.43750000012,
      "d": 204.16666666665697,
      "v": 102
    },
    {
      "midi": 57,
      "hit": false,
      "t": 162699.47916666677,
      "d": 208.33333333334303,
      "v": 96
    },
    {
      "midi": 43,
      "hit": false,
      "t": 162832.81250000012,
      "d": 100.52083333334303,
      "v": 94
    },
    {
      "midi": 31,
      "hit": false,
      "t": 163003.64583333346,
      "d": 139.0625,
      "v": 21
    },
    {
      "midi": 65,
      "hit": false,
      "t": 163137.50000000012,
      "d": 174.9999999999709,
      "v": 84
    },
    {
      "midi": 57,
      "hit": false,
      "t": 163143.75000000012,
      "d": 189.0624999999709,
      "v": 86
    },
    {
      "midi": 26,
      "hit": false,
      "t": 163147.39583333346,
      "d": 470.3124999999127,
      "v": 91
    },
    {
      "midi": 62,
      "hit": false,
      "t": 163148.43750000012,
      "d": 173.95833333331393,
      "v": 92
    },
    {
      "midi": 53,
      "hit": false,
      "t": 163152.60416666677,
      "d": 149.9999999999709,
      "v": 87
    },
    {
      "midi": 60,
      "hit": false,
      "t": 163154.6875000001,
      "d": 192.70833333334303,
      "v": 90
    },
    {
      "midi": 57,
      "hit": false,
      "t": 163472.39583333343,
      "d": 124.9999999999709,
      "v": 88
    },
    {
      "midi": 65,
      "hit": false,
      "t": 163473.4375000001,
      "d": 154.16666666662786,
      "v": 82
    },
    {
      "midi": 62,
      "hit": false,
      "t": 163477.60416666674,
      "d": 134.89583333331393,
      "v": 92
    },
    {
      "midi": 60,
      "hit": false,
      "t": 163478.6458333334,
      "d": 134.89583333331393,
      "v": 90
    },
    {
      "midi": 53,
      "hit": false,
      "t": 163479.68750000006,
      "d": 88.02083333334303,
      "v": 94
    },
    {
      "midi": 38,
      "hit": false,
      "t": 163497.3958333334,
      "d": 124.9999999999709,
      "v": 86
    },
    {
      "midi": 53,
      "hit": false,
      "t": 163692.70833333337,
      "d": 184.89583333334303,
      "v": 89
    },
    {
      "midi": 33,
      "hit": false,
      "t": 163713.54166666672,
      "d": 123.95833333334303,
      "v": 79
    },
    {
      "midi": 31,
      "hit": false,
      "t": 163792.7083333334,
      "d": 240.10416666665697,
      "v": 86
    },
    {
      "midi": 57,
      "hit": false,
      "t": 163822.3958333334,
      "d": 115.10416666665697,
      "v": 103
    },
    {
      "midi": 57,
      "hit": false,
      "t": 163997.3958333334,
      "d": 155.20833333334303,
      "v": 91
    },
    {
      "midi": 65,
      "hit": false,
      "t": 164002.60416666674,
      "d": 190.10416666665697,
      "v": 89
    },
    {
      "midi": 53,
      "hit": false,
      "t": 164003.6458333334,
      "d": 139.0625,
      "v": 97
    },
    {
      "midi": 62,
      "hit": false,
      "t": 164007.81250000006,
      "d": 175,
      "v": 96
    },
    {
      "midi": 60,
      "hit": false,
      "t": 164008.3333333334,
      "d": 159.375,
      "v": 98
    },
    {
      "midi": 43,
      "hit": false,
      "t": 164117.7083333334,
      "d": 204.6874999999418,
      "v": 87
    },
    {
      "midi": 38,
      "hit": false,
      "t": 164277.60416666672,
      "d": 95.83333333328483,
      "v": 80
    },
    {
      "midi": 62,
      "hit": false,
      "t": 164297.39583333337,
      "d": 249.9999999999709,
      "v": 97
    },
    {
      "midi": 64,
      "hit": false,
      "t": 164298.43750000003,
      "d": 239.0624999999709,
      "v": 97
    },
    {
      "midi": 59,
      "hit": false,
      "t": 164299.4791666667,
      "d": 208.33333333331393,
      "v": 97
    },
    {
      "midi": 55,
      "hit": false,
      "t": 164302.6041666667,
      "d": 184.89583333331393,
      "v": 104
    },
    {
      "midi": 43,
      "hit": false,
      "t": 164437.5,
      "d": 130.20833333334303,
      "v": 94
    },
    {
      "midi": 36,
      "hit": false,
      "t": 164438.54166666666,
      "d": 109.89583333334303,
      "v": 102
    },
    {
      "midi": 55,
      "hit": false,
      "t": 164597.39583333334,
      "d": 106.25,
      "v": 94
    },
    {
      "midi": 67,
      "hit": false,
      "t": 164752.60416666666,
      "d": 144.79166666665697,
      "v": 85
    },
    {
      "midi": 55,
      "hit": false,
      "t": 164753.6458333333,
      "d": 104.16666666665697,
      "v": 90
    },
    {
      "midi": 64,
      "hit": false,
      "t": 164757.81249999997,
      "d": 125.52083333334303,
      "v": 95
    },
    {
      "midi": 59,
      "hit": false,
      "t": 164758.3333333333,
      "d": 124.47916666665697,
      "v": 101
    },
    {
      "midi": 62,
      "hit": false,
      "t": 164762.49999999997,
      "d": 125,
      "v": 96
    },
    {
      "midi": 43,
      "hit": false,
      "t": 164942.7083333333,
      "d": 419.79166666665697,
      "v": 98
    },
    {
      "midi": 36,
      "hit": false,
      "t": 164952.60416666666,
      "d": 391.14583333331393,
      "v": 98
    },
    {
      "midi": 55,
      "hit": false,
      "t": 165107.8125,
      "d": 84.89583333334303,
      "v": 99
    },
    {
      "midi": 55,
      "hit": false,
      "t": 165242.70833333334,
      "d": 124.9999999999709,
      "v": 94
    },
    {
      "midi": 64,
      "hit": false,
      "t": 165247.39583333334,
      "d": 142.1874999999418,
      "v": 86
    },
    {
      "midi": 62,
      "hit": false,
      "t": 165248.4375,
      "d": 140.10416666662786,
      "v": 90
    },
    {
      "midi": 67,
      "hit": false,
      "t": 165252.60416666666,
      "d": 134.89583333331393,
      "v": 95
    },
    {
      "midi": 59,
      "hit": false,
      "t": 165253.6458333333,
      "d": 115.10416666665697,
      "v": 103
    },
    {
      "midi": 48,
      "hit": false,
      "t": 165402.60416666663,
      "d": 194.79166666668607,
      "v": 103
    },
    {
      "midi": 36,
      "hit": false,
      "t": 165557.81249999997,
      "d": 129.6875,
      "v": 84
    },
    {
      "midi": 62,
      "hit": false,
      "t": 165712.49999999997,
      "d": 140.10416666662786,
      "v": 89
    },
    {
      "midi": 52,
      "hit": false,
      "t": 165713.54166666663,
      "d": 98.95833333331393,
      "v": 92
    },
    {
      "midi": 55,
      "hit": false,
      "t": 165717.70833333328,
      "d": 119.79166666665697,
      "v": 97
    },
    {
      "midi": 59,
      "hit": false,
      "t": 165718.74999999994,
      "d": 119.79166666665697,
      "v": 89
    },
    {
      "midi": 64,
      "hit": false,
      "t": 165719.7916666666,
      "d": 138.02083333334303,
      "v": 90
    },
    {
      "midi": 40,
      "hit": false,
      "t": 165737.49999999994,
      "d": 191.14583333334303,
      "v": 94
    },
    {
      "midi": 52,
      "hit": false,
      "t": 165867.70833333328,
      "d": 104.6875,
      "v": 71
    },
    {
      "midi": 47,
      "hit": false,
      "t": 165897.39583333328,
      "d": 115.10416666665697,
      "v": 87
    },
    {
      "midi": 55,
      "hit": false,
      "t": 166016.6666666666,
      "d": 109.89583333331393,
      "v": 94
    },
    {
      "midi": 40,
      "hit": false,
      "t": 166042.70833333326,
      "d": 119.79166666665697,
      "v": 90
    },
    {
      "midi": 45,
      "hit": false,
      "t": 166217.70833333326,
      "d": 218.7499999999709,
      "v": 110
    },
    {
      "midi": 52,
      "hit": false,
      "t": 166218.7499999999,
      "d": 339.0624999999709,
      "v": 98
    },
    {
      "midi": 57,
      "hit": false,
      "t": 166219.79166666657,
      "d": 571.875,
      "v": 99
    },
    {
      "midi": 60,
      "hit": false,
      "t": 166221.35416666657,
      "d": 630.208333333343,
      "v": 98
    },
    {
      "midi": 55,
      "hit": false,
      "t": 166222.39583333323,
      "d": 573.958333333343,
      "v": 104
    },
    {
      "midi": 33,
      "hit": false,
      "t": 166226.56249999988,
      "d": 459.89583333334303,
      "v": 113
    },
    {
      "midi": 45,
      "hit": false,
      "t": 166551.56249999988,
      "d": 100,
      "v": 101
    },
    {
      "midi": 52,
      "hit": false,
      "t": 166676.56249999988,
      "d": 125.0000000000291,
      "v": 104
    },
    {
      "midi": 33,
      "hit": false,
      "t": 166831.77083333326,
      "d": 129.6874999999709,
      "v": 78
    },
    {
      "midi": 26,
      "hit": false,
      "t": 166991.66666666657,
      "d": 235.9374999999709,
      "v": 102
    },
    {
      "midi": 60,
      "hit": false,
      "t": 166996.35416666657,
      "d": 1126.0416666665988,
      "v": 89
    },
    {
      "midi": 57,
      "hit": false,
      "t": 166997.39583333323,
      "d": 1098.9583333332848,
      "v": 100
    },
    {
      "midi": 53,
      "hit": false,
      "t": 167001.56249999988,
      "d": 1151.0416666666279,
      "v": 105
    },
    {
      "midi": 38,
      "hit": false,
      "t": 167187.49999999988,
      "d": 89.0625,
      "v": 65
    },
    {
      "midi": 28,
      "hit": false,
      "t": 167321.35416666654,
      "d": 236.45833333331393,
      "v": 98
    },
    {
      "midi": 40,
      "hit": false,
      "t": 167522.3958333332,
      "d": 84.375,
      "v": 75
    },
    {
      "midi": 29,
      "hit": false,
      "t": 167641.66666666654,
      "d": 240.10416666665697,
      "v": 98
    },
    {
      "midi": 41,
      "hit": false,
      "t": 167867.7083333332,
      "d": 93.75,
      "v": 67
    },
    {
      "midi": 30,
      "hit": false,
      "t": 167976.56249999985,
      "d": 234.89583333331393,
      "v": 89
    },
    {
      "midi": 42,
      "hit": false,
      "t": 168167.70833333317,
      "d": 118.75,
      "v": 72
    },
    {
      "midi": 31,
      "hit": false,
      "t": 168301.56249999983,
      "d": 206.77083333337214,
      "v": 88
    },
    {
      "midi": 53,
      "hit": false,
      "t": 168306.77083333317,
      "d": 1155.7291666667152,
      "v": 89
    },
    {
      "midi": 57,
      "hit": false,
      "t": 168316.6666666665,
      "d": 1154.687500000029,
      "v": 99
    },
    {
      "midi": 60,
      "hit": false,
      "t": 168321.3541666665,
      "d": 1165.104166666686,
      "v": 97
    },
    {
      "midi": 43,
      "hit": false,
      "t": 168482.81249999985,
      "d": 93.75,
      "v": 75
    },
    {
      "midi": 33,
      "hit": false,
      "t": 168611.4583333332,
      "d": 234.89583333334303,
      "v": 95
    },
    {
      "midi": 45,
      "hit": false,
      "t": 168817.7083333332,
      "d": 98.95833333334303,
      "v": 70
    },
    {
      "midi": 34,
      "hit": false,
      "t": 168931.7708333332,
      "d": 215.625,
      "v": 97
    },
    {
      "midi": 46,
      "hit": false,
      "t": 169112.49999999985,
      "d": 114.0625000000291,
      "v": 62
    },
    {
      "midi": 35,
      "hit": false,
      "t": 169241.66666666654,
      "d": 210.9375,
      "v": 97
    },
    {
      "midi": 47,
      "hit": false,
      "t": 169437.49999999988,
      "d": 83.85416666665697,
      "v": 99
    },
    {
      "midi": 36,
      "hit": false,
      "t": 169551.56249999988,
      "d": 460.9375,
      "v": 98
    },
    {
      "midi": 67,
      "hit": false,
      "t": 169916.66666666654,
      "d": 190.10416666665697,
      "v": 102
    },
    {
      "midi": 48,
      "hit": false,
      "t": 169921.35416666654,
      "d": 81.25,
      "v": 101
    },
    {
      "midi": 55,
      "hit": false,
      "t": 169926.56249999988,
      "d": 160.9375,
      "v": 111
    },
    {
      "midi": 64,
      "hit": false,
      "t": 169927.60416666654,
      "d": 160.9375,
      "v": 105
    },
    {
      "midi": 62,
      "hit": false,
      "t": 169928.6458333332,
      "d": 164.0625,
      "v": 104
    },
    {
      "midi": 59,
      "hit": false,
      "t": 169929.68749999985,
      "d": 181.77083333334303,
      "v": 108
    },
    {
      "midi": 38,
      "hit": false,
      "t": 170097.3958333332,
      "d": 119.27083333334303,
      "v": 74
    },
    {
      "midi": 31,
      "hit": false,
      "t": 170241.66666666654,
      "d": 569.7916666666861,
      "v": 86
    },
    {
      "midi": 53,
      "hit": false,
      "t": 170431.7708333332,
      "d": 290.6250000000291,
      "v": 94
    },
    {
      "midi": 62,
      "hit": false,
      "t": 170436.4583333332,
      "d": 345.3125000000291,
      "v": 97
    },
    {
      "midi": 57,
      "hit": false,
      "t": 170441.66666666654,
      "d": 266.14583333334303,
      "v": 97
    },
    {
      "midi": 60,
      "hit": false,
      "t": 170446.35416666654,
      "d": 340.10416666668607,
      "v": 94
    },
    {
      "midi": 43,
      "hit": false,
      "t": 170601.56249999988,
      "d": 181.25,
      "v": 90
    },
    {
      "midi": 38,
      "hit": false,
      "t": 170726.56249999988,
      "d": 125,
      "v": 59
    },
    {
      "midi": 36,
      "hit": false,
      "t": 170901.56249999988,
      "d": 544.2708333332557,
      "v": 92
    },
    {
      "midi": 62,
      "hit": false,
      "t": 170926.56249999988,
      "d": 189.0624999999418,
      "v": 96
    },
    {
      "midi": 59,
      "hit": false,
      "t": 170928.6458333332,
      "d": 202.08333333328483,
      "v": 96
    },
    {
      "midi": 55,
      "hit": false,
      "t": 170929.68749999985,
      "d": 145.83333333331393,
      "v": 98
    },
    {
      "midi": 64,
      "hit": false,
      "t": 170930.7291666665,
      "d": 180.72916666665697,
      "v": 93
    },
    {
      "midi": 59,
      "hit": false,
      "t": 171262.4999999998,
      "d": 138.02083333334303,
      "v": 101
    },
    {
      "midi": 64,
      "hit": false,
      "t": 171262.4999999998,
      "d": 172.91666666668607,
      "v": 94
    },
    {
      "midi": 55,
      "hit": false,
      "t": 171267.70833333314,
      "d": 98.95833333334303,
      "v": 98
    },
    {
      "midi": 62,
      "hit": false,
      "t": 171267.70833333314,
      "d": 163.02083333334303,
      "v": 96
    },
    {
      "midi": 38,
      "hit": false,
      "t": 171416.66666666648,
      "d": 108.85416666665697,
      "v": 83
    },
    {
      "midi": 31,
      "hit": false,
      "t": 171550.52083333314,
      "d": 580.2083333333721,
      "v": 90
    },
    {
      "midi": 53,
      "hit": false,
      "t": 171756.77083333314,
      "d": 234.89583333337214,
      "v": 97
    },
    {
      "midi": 62,
      "hit": false,
      "t": 171756.77083333314,
      "d": 293.7500000000291,
      "v": 99
    },
    {
      "midi": 57,
      "hit": false,
      "t": 171760.41666666648,
      "d": 226.04166666668607,
      "v": 102
    },
    {
      "midi": 60,
      "hit": false,
      "t": 171765.62499999983,
      "d": 330.20833333334303,
      "v": 93
    },
    {
      "midi": 43,
      "hit": false,
      "t": 171926.56249999983,
      "d": 183.85416666668607,
      "v": 90
    },
    {
      "midi": 38,
      "hit": false,
      "t": 172060.4166666665,
      "d": 110.41666666665697,
      "v": 82
    },
    {
      "midi": 59,
      "hit": false,
      "t": 172211.45833333317,
      "d": 198.95833333331393,
      "v": 100
    },
    {
      "midi": 55,
      "hit": false,
      "t": 172216.6666666665,
      "d": 133.85416666665697,
      "v": 105
    },
    {
      "midi": 62,
      "hit": false,
      "t": 172217.70833333317,
      "d": 197.91666666665697,
      "v": 98
    },
    {
      "midi": 64,
      "hit": false,
      "t": 172221.3541666665,
      "d": 169.27083333331393,
      "v": 91
    },
    {
      "midi": 36,
      "hit": false,
      "t": 172226.56249999985,
      "d": 208.85416666662786,
      "v": 97
    },
    {
      "midi": 62,
      "hit": false,
      "t": 172546.35416666648,
      "d": 169.27083333331393,
      "v": 100
    },
    {
      "midi": 64,
      "hit": false,
      "t": 172547.39583333314,
      "d": 164.0625,
      "v": 93
    },
    {
      "midi": 55,
      "hit": false,
      "t": 172548.4374999998,
      "d": 111.97916666668607,
      "v": 98
    },
    {
      "midi": 59,
      "hit": false,
      "t": 172556.77083333314,
      "d": 153.64583333334303,
      "v": 112
    },
    {
      "midi": 43,
      "hit": false,
      "t": 172725.52083333314,
      "d": 409.89583333334303,
      "v": 96
    },
    {
      "midi": 36,
      "hit": false,
      "t": 172730.72916666648,
      "d": 619.7916666666861,
      "v": 94
    },
    {
      "midi": 55,
      "hit": false,
      "t": 172871.35416666648,
      "d": 119.27083333334303,
      "v": 101
    },
    {
      "midi": 55,
      "hit": false,
      "t": 173005.72916666648,
      "d": 176.04166666668607,
      "v": 72
    },
    {
      "midi": 62,
      "hit": false,
      "t": 173030.72916666648,
      "d": 166.66666666668607,
      "v": 90
    },
    {
      "midi": 59,
      "hit": false,
      "t": 173031.77083333314,
      "d": 154.6875000000291,
      "v": 96
    },
    {
      "midi": 64,
      "hit": false,
      "t": 173045.83333333314,
      "d": 150.52083333337214,
      "v": 91
    },
    {
      "midi": 48,
      "hit": false,
      "t": 173176.56249999983,
      "d": 183.85416666668607,
      "v": 103
    },
    {
      "midi": 60,
      "hit": false,
      "t": 173270.83333333317,
      "d": 180.72916666665697,
      "v": 20
    },
    {
      "midi": 43,
      "hit": false,
      "t": 173305.7291666665,
      "d": 119.79166666665697,
      "v": 80
    },
    {
      "midi": 65,
      "hit": false,
      "t": 173476.56249999983,
      "d": 108.85416666668607,
      "v": 81
    },
    {
      "midi": 43,
      "hit": false,
      "t": 173481.77083333317,
      "d": 243.75,
      "v": 85
    },
    {
      "midi": 53,
      "hit": false,
      "t": 173483.33333333317,
      "d": 63.020833333343035,
      "v": 96
    },
    {
      "midi": 58,
      "hit": false,
      "t": 173484.37499999983,
      "d": 97.39583333334303,
      "v": 94
    },
    {
      "midi": 60,
      "hit": false,
      "t": 173486.45833333317,
      "d": 80.20833333334303,
      "v": 100
    },
    {
      "midi": 36,
      "hit": false,
      "t": 173491.6666666665,
      "d": 214.0625,
      "v": 98
    },
    {
      "midi": 48,
      "hit": false,
      "t": 173496.3541666665,
      "d": 189.0625,
      "v": 112
    },
    {
      "midi": 58,
      "hit": false,
      "t": 173660.4166666665,
      "d": 100,
      "v": 85
    },
    {
      "midi": 60,
      "hit": false,
      "t": 173791.6666666665,
      "d": 123.95833333334303,
      "v": 96
    },
    {
      "midi": 60,
      "hit": false,
      "t": 173940.62499999985,
      "d": 270.83333333331393,
      "v": 84
    },
    {
      "midi": 70,
      "hit": false,
      "t": 173950.5208333332,
      "d": 210.9374999999709,
      "v": 82
    },
    {
      "midi": 65,
      "hit": false,
      "t": 173955.72916666654,
      "d": 279.6874999999709,
      "v": 87
    },
    {
      "midi": 58,
      "hit": false,
      "t": 173956.7708333332,
      "d": 199.9999999999709,
      "v": 88
    },
    {
      "midi": 43,
      "hit": false,
      "t": 173975.5208333332,
      "d": 456.25,
      "v": 94
    },
    {
      "midi": 48,
      "hit": false,
      "t": 173976.56249999985,
      "d": 289.0625,
      "v": 108
    },
    {
      "midi": 36,
      "hit": false,
      "t": 173977.6041666665,
      "d": 632.8125000000291,
      "v": 97
    },
    {
      "midi": 69,
      "hit": false,
      "t": 174270.8333333332,
      "d": 120.83333333334303,
      "v": 88
    },
    {
      "midi": 60,
      "hit": false,
      "t": 174280.72916666654,
      "d": 135.9375,
      "v": 20
    },
    {
      "midi": 67,
      "hit": false,
      "t": 174421.35416666654,
      "d": 124.47916666665697,
      "v": 88
    },
    {
      "midi": 48,
      "hit": false,
      "t": 174441.66666666654,
      "d": 189.0625,
      "v": 100
    },
    {
      "midi": 65,
      "hit": false,
      "t": 174560.41666666654,
      "d": 105.20833333331393,
      "v": 93
    },
    {
      "midi": 43,
      "hit": false,
      "t": 174565.62499999988,
      "d": 109.89583333331393,
      "v": 90
    },
    {
      "midi": 41,
      "hit": false,
      "t": 174736.4583333332,
      "d": 420.3125000000291,
      "v": 98
    },
    {
      "midi": 48,
      "hit": false,
      "t": 174746.35416666654,
      "d": 285.41666666668607,
      "v": 111
    },
    {
      "midi": 55,
      "hit": false,
      "t": 175071.35416666657,
      "d": 154.16666666665697,
      "v": 115
    },
    {
      "midi": 64,
      "hit": false,
      "t": 175076.5624999999,
      "d": 154.16666666665697,
      "v": 116
    },
    {
      "midi": 60,
      "hit": false,
      "t": 175077.60416666657,
      "d": 168.22916666665697,
      "v": 119
    },
    {
      "midi": 48,
      "hit": false,
      "t": 175215.62499999988,
      "d": 210.9375,
      "v": 95
    },
    {
      "midi": 41,
      "hit": false,
      "t": 175371.35416666657,
      "d": 219.27083333328483,
      "v": 90
    },
    {
      "midi": 40,
      "hit": false,
      "t": 175530.72916666654,
      "d": 201.04166666662786,
      "v": 64
    },
    {
      "midi": 59,
      "hit": false,
      "t": 175535.41666666654,
      "d": 340.10416666662786,
      "v": 107
    },
    {
      "midi": 62,
      "hit": false,
      "t": 175536.4583333332,
      "d": 279.16666666662786,
      "v": 108
    },
    {
      "midi": 55,
      "hit": false,
      "t": 175540.62499999985,
      "d": 245.83333333331393,
      "v": 113
    },
    {
      "midi": 47,
      "hit": false,
      "t": 175716.6666666665,
      "d": 168.75,
      "v": 106
    },
    {
      "midi": 45,
      "hit": false,
      "t": 175840.62499999983,
      "d": 151.04166666668607,
      "v": 90
    },
    {
      "midi": 57,
      "hit": false,
      "t": 176016.6666666665,
      "d": 114.0624999999709,
      "v": 93
    },
    {
      "midi": 38,
      "hit": false,
      "t": 176021.3541666665,
      "d": 365.10416666662786,
      "v": 93
    },
    {
      "midi": 53,
      "hit": false,
      "t": 176022.39583333317,
      "d": 94.27083333331393,
      "v": 93
    },
    {
      "midi": 60,
      "hit": false,
      "t": 176026.56249999983,
      "d": 122.91666666665697,
      "v": 98
    },
    {
      "midi": 53,
      "hit": false,
      "t": 176164.58333333314,
      "d": 116.14583333334303,
      "v": 79
    },
    {
      "midi": 50,
      "hit": false,
      "t": 176170.83333333314,
      "d": 139.58333333334303,
      "v": 64
    },
    {
      "midi": 45,
      "hit": false,
      "t": 176320.83333333314,
      "d": 105.72916666665697,
      "v": 89
    },
    {
      "midi": 57,
      "hit": false,
      "t": 176331.77083333314,
      "d": 89.0625,
      "v": 100
    },
    {
      "midi": 57,
      "hit": false,
      "t": 176490.6249999998,
      "d": 633.8541666667152,
      "v": 94
    },
    {
      "midi": 60,
      "hit": false,
      "t": 176491.66666666645,
      "d": 638.0208333334012,
      "v": 100
    },
    {
      "midi": 53,
      "hit": false,
      "t": 176492.7083333331,
      "d": 327.08333333334303,
      "v": 98
    },
    {
      "midi": 43,
      "hit": false,
      "t": 176499.47916666645,
      "d": 325,
      "v": 98
    },
    {
      "midi": 50,
      "hit": false,
      "t": 176834.3749999998,
      "d": 146.35416666668607,
      "v": 104
    },
    {
      "midi": 53,
      "hit": false,
      "t": 176950.52083333314,
      "d": 164.0625000000291,
      "v": 103
    },
    {
      "midi": 43,
      "hit": false,
      "t": 177104.68749999983,
      "d": 120.83333333334303,
      "v": 72
    },
    {
      "midi": 36,
      "hit": false,
      "t": 177260.4166666665,
      "d": 448.95833333331393,
      "v": 97
    },
    {
      "midi": 64,
      "hit": false,
      "t": 177595.83333333317,
      "d": 103.64583333331393,
      "v": 99
    },
    {
      "midi": 67,
      "hit": false,
      "t": 177596.3541666665,
      "d": 123.4374999999709,
      "v": 92
    },
    {
      "midi": 59,
      "hit": false,
      "t": 177600.52083333317,
      "d": 96.8749999999709,
      "v": 102
    },
    {
      "midi": 62,
      "hit": false,
      "t": 177601.56249999983,
      "d": 94.27083333331393,
      "v": 98
    },
    {
      "midi": 55,
      "hit": false,
      "t": 177602.60416666648,
      "d": 93.75,
      "v": 98
    },
    {
      "midi": 48,
      "hit": false,
      "t": 177620.83333333314,
      "d": 80.72916666668607,
      "v": 102
    },
    {
      "midi": 38,
      "hit": false,
      "t": 177774.47916666648,
      "d": 110.9375,
      "v": 82
    },
    {
      "midi": 31,
      "hit": false,
      "t": 177900.52083333314,
      "d": 520.3125,
      "v": 84
    },
    {
      "midi": 57,
      "hit": false,
      "t": 178064.58333333314,
      "d": 176.04166666665697,
      "v": 91
    },
    {
      "midi": 65,
      "hit": false,
      "t": 178065.6249999998,
      "d": 230.20833333334303,
      "v": 82
    },
    {
      "midi": 53,
      "hit": false,
      "t": 178066.66666666645,
      "d": 168.75,
      "v": 89
    },
    {
      "midi": 62,
      "hit": false,
      "t": 178067.7083333331,
      "d": 197.91666666668607,
      "v": 90
    },
    {
      "midi": 60,
      "hit": false,
      "t": 178069.79166666645,
      "d": 185.9375,
      "v": 93
    },
    {
      "midi": 43,
      "hit": false,
      "t": 178241.66666666645,
      "d": 178.1250000000291,
      "v": 91
    },
    {
      "midi": 38,
      "hit": false,
      "t": 178364.58333333314,
      "d": 110.9375,
      "v": 74
    },
    {
      "midi": 62,
      "hit": false,
      "t": 178530.72916666648,
      "d": 173.95833333331393,
      "v": 86
    },
    {
      "midi": 59,
      "hit": false,
      "t": 178535.41666666648,
      "d": 179.16666666665697,
      "v": 84
    },
    {
      "midi": 64,
      "hit": false,
      "t": 178536.45833333314,
      "d": 188.02083333334303,
      "v": 83
    },
    {
      "midi": 55,
      "hit": false,
      "t": 178537.4999999998,
      "d": 127.08333333334303,
      "v": 88
    },
    {
      "midi": 36,
      "hit": false,
      "t": 178540.6249999998,
      "d": 493.75,
      "v": 90
    },
    {
      "midi": 64,
      "hit": false,
      "t": 178875.52083333314,
      "d": 134.89583333334303,
      "v": 99
    },
    {
      "midi": 62,
      "hit": false,
      "t": 178880.72916666648,
      "d": 130.72916666665697,
      "v": 97
    },
    {
      "midi": 67,
      "hit": false,
      "t": 178885.41666666648,
      "d": 119.27083333334303,
      "v": 97
    },
    {
      "midi": 59,
      "hit": false,
      "t": 178886.45833333314,
      "d": 122.91666666668607,
      "v": 94
    },
    {
      "midi": 55,
      "hit": false,
      "t": 178887.4999999998,
      "d": 86.97916666668607,
      "v": 107
    },
    {
      "midi": 38,
      "hit": false,
      "t": 179039.58333333314,
      "d": 195.83333333334303,
      "v": 86
    },
    {
      "midi": 31,
      "hit": false,
      "t": 179175.52083333314,
      "d": 469.27083333334303,
      "v": 86
    },
    {
      "midi": 38,
      "hit": false,
      "t": 179359.37499999983,
      "d": 196.35416666665697,
      "v": 20
    },
    {
      "midi": 53,
      "hit": false,
      "t": 179369.79166666648,
      "d": 160.9375,
      "v": 91
    },
    {
      "midi": 57,
      "hit": false,
      "t": 179370.83333333314,
      "d": 179.6875,
      "v": 94
    },
    {
      "midi": 65,
      "hit": false,
      "t": 179371.35416666648,
      "d": 219.27083333334303,
      "v": 82
    },
    {
      "midi": 60,
      "hit": false,
      "t": 179374.47916666648,
      "d": 201.04166666665697,
      "v": 92
    },
    {
      "midi": 62,
      "hit": false,
      "t": 179375.52083333314,
      "d": 205.20833333334303,
      "v": 92
    },
    {
      "midi": 43,
      "hit": false,
      "t": 179531.77083333314,
      "d": 182.8125,
      "v": 87
    },
    {
      "midi": 38,
      "hit": false,
      "t": 179649.47916666648,
      "d": 121.35416666665697,
      "v": 68
    },
    {
      "midi": 36,
      "hit": false,
      "t": 179830.72916666648,
      "d": 453.6458333332557,
      "v": 90
    },
    {
      "midi": 64,
      "hit": false,
      "t": 179835.41666666648,
      "d": 220.3124999999418,
      "v": 87
    },
    {
      "midi": 55,
      "hit": false,
      "t": 179836.45833333314,
      "d": 143.22916666662786,
      "v": 90
    },
    {
      "midi": 59,
      "hit": false,
      "t": 179840.6249999998,
      "d": 183.85416666662786,
      "v": 88
    },
    {
      "midi": 62,
      "hit": false,
      "t": 179841.66666666645,
      "d": 188.02083333331393,
      "v": 90
    },
    {
      "midi": 59,
      "hit": false,
      "t": 180170.83333333308,
      "d": 143.7499999999418,
      "v": 89
    },
    {
      "midi": 64,
      "hit": false,
      "t": 180175.52083333308,
      "d": 123.95833333328483,
      "v": 101
    },
    {
      "midi": 62,
      "hit": false,
      "t": 180176.56249999974,
      "d": 114.0624999999709,
      "v": 90
    },
    {
      "midi": 67,
      "hit": false,
      "t": 180177.6041666664,
      "d": 107.8125,
      "v": 90
    },
    {
      "midi": 55,
      "hit": false,
      "t": 180178.64583333305,
      "d": 110.9375,
      "v": 98
    },
    {
      "midi": 38,
      "hit": false,
      "t": 180329.68749999968,
      "d": 191.14583333334303,
      "v": 85
    },
    {
      "midi": 31,
      "hit": false,
      "t": 180470.83333333302,
      "d": 514.5833333333721,
      "v": 86
    },
    {
      "midi": 38,
      "hit": false,
      "t": 180634.37499999968,
      "d": 196.35416666668607,
      "v": 20
    },
    {
      "midi": 53,
      "hit": false,
      "t": 180639.58333333302,
      "d": 160.9374999999709,
      "v": 93
    },
    {
      "midi": 57,
      "hit": false,
      "t": 180640.62499999968,
      "d": 175,
      "v": 94
    },
    {
      "midi": 65,
      "hit": false,
      "t": 180641.66666666634,
      "d": 229.16666666671517,
      "v": 84
    },
    {
      "midi": 62,
      "hit": false,
      "t": 180642.708333333,
      "d": 197.91666666671517,
      "v": 90
    },
    {
      "midi": 60,
      "hit": false,
      "t": 180644.79166666634,
      "d": 176.04166666668607,
      "v": 93
    },
    {
      "midi": 43,
      "hit": false,
      "t": 180805.72916666634,
      "d": 184.89583333340124,
      "v": 90
    },
    {
      "midi": 38,
      "hit": false,
      "t": 180924.4791666664,
      "d": 121.35416666668607,
      "v": 71
    },
    {
      "midi": 36,
      "hit": false,
      "t": 181105.72916666642,
      "d": 482.8124999999127,
      "v": 90
    },
    {
      "midi": 62,
      "hit": false,
      "t": 181106.77083333308,
      "d": 167.70833333331393,
      "v": 89
    },
    {
      "midi": 64,
      "hit": false,
      "t": 181110.41666666642,
      "d": 173.95833333331393,
      "v": 82
    },
    {
      "midi": 55,
      "hit": false,
      "t": 181111.45833333308,
      "d": 122.91666666665697,
      "v": 89
    },
    {
      "midi": 59,
      "hit": false,
      "t": 181112.49999999974,
      "d": 161.97916666665697,
      "v": 89
    },
    {
      "midi": 64,
      "hit": false,
      "t": 181435.4166666664,
      "d": 148.95833333328483,
      "v": 95
    },
    {
      "midi": 59,
      "hit": false,
      "t": 181436.45833333305,
      "d": 168.22916666662786,
      "v": 100
    },
    {
      "midi": 67,
      "hit": false,
      "t": 181437.4999999997,
      "d": 135.9374999999709,
      "v": 97
    },
    {
      "midi": 62,
      "hit": false,
      "t": 181438.54166666637,
      "d": 160.9374999999709,
      "v": 100
    },
    {
      "midi": 55,
      "hit": false,
      "t": 181439.58333333302,
      "d": 108.85416666665697,
      "v": 101
    },
    {
      "midi": 38,
      "hit": false,
      "t": 181599.47916666634,
      "d": 175,
      "v": 85
    },
    {
      "midi": 31,
      "hit": false,
      "t": 181724.47916666634,
      "d": 498.9583333332848,
      "v": 88
    },
    {
      "midi": 57,
      "hit": false,
      "t": 181903.645833333,
      "d": 180.72916666665697,
      "v": 94
    },
    {
      "midi": 53,
      "hit": false,
      "t": 181909.37499999965,
      "d": 165.10416666665697,
      "v": 96
    },
    {
      "midi": 65,
      "hit": false,
      "t": 181909.37499999965,
      "d": 220.3124999999709,
      "v": 90
    },
    {
      "midi": 62,
      "hit": false,
      "t": 181910.4166666663,
      "d": 204.16666666665697,
      "v": 94
    },
    {
      "midi": 60,
      "hit": false,
      "t": 181913.5416666663,
      "d": 185.9375,
      "v": 98
    },
    {
      "midi": 43,
      "hit": false,
      "t": 182064.58333333296,
      "d": 184.89583333331393,
      "v": 99
    },
    {
      "midi": 38,
      "hit": false,
      "t": 182193.74999999962,
      "d": 120.83333333331393,
      "v": 74
    },
    {
      "midi": 55,
      "hit": false,
      "t": 182369.79166666628,
      "d": 168.7499999999709,
      "v": 93
    },
    {
      "midi": 64,
      "hit": false,
      "t": 182375.52083333294,
      "d": 208.85416666665697,
      "v": 86
    },
    {
      "midi": 62,
      "hit": false,
      "t": 182377.60416666625,
      "d": 202.08333333334303,
      "v": 90
    },
    {
      "midi": 59,
      "hit": false,
      "t": 182378.6458333329,
      "d": 191.14583333334303,
      "v": 89
    },
    {
      "midi": 36,
      "hit": false,
      "t": 182378.6458333329,
      "d": 409.89583333331393,
      "v": 95
    },
    {
      "midi": 55,
      "hit": false,
      "t": 182710.41666666625,
      "d": 113.02083333331393,
      "v": 97
    },
    {
      "midi": 62,
      "hit": false,
      "t": 182710.41666666625,
      "d": 140.10416666662786,
      "v": 98
    },
    {
      "midi": 59,
      "hit": false,
      "t": 182711.4583333329,
      "d": 147.91666666662786,
      "v": 94
    },
    {
      "midi": 67,
      "hit": false,
      "t": 182714.5833333329,
      "d": 133.85416666665697,
      "v": 96
    },
    {
      "midi": 64,
      "hit": false,
      "t": 182715.62499999956,
      "d": 133.85416666665697,
      "v": 95
    },
    {
      "midi": 38,
      "hit": false,
      "t": 182838.54166666622,
      "d": 141.14583333331393,
      "v": 82
    },
    {
      "midi": 31,
      "hit": false,
      "t": 183009.37499999953,
      "d": 530.2083333333139,
      "v": 86
    },
    {
      "midi": 53,
      "hit": false,
      "t": 183204.68749999953,
      "d": 149.9999999999709,
      "v": 94
    },
    {
      "midi": 57,
      "hit": false,
      "t": 183209.37499999953,
      "d": 160.41666666662786,
      "v": 96
    },
    {
      "midi": 65,
      "hit": false,
      "t": 183210.4166666662,
      "d": 203.1249999999709,
      "v": 87
    },
    {
      "midi": 62,
      "hit": false,
      "t": 183211.45833333285,
      "d": 188.02083333331393,
      "v": 92
    },
    {
      "midi": 60,
      "hit": false,
      "t": 183214.58333333285,
      "d": 165.10416666665697,
      "v": 96
    },
    {
      "midi": 43,
      "hit": false,
      "t": 183359.3749999995,
      "d": 185.41666666668607,
      "v": 94
    },
    {
      "midi": 38,
      "hit": false,
      "t": 183478.64583333285,
      "d": 135.9375,
      "v": 64
    },
    {
      "midi": 36,
      "hit": false,
      "t": 183659.3749999995,
      "d": 505.2083333332848,
      "v": 90
    },
    {
      "midi": 59,
      "hit": false,
      "t": 183664.58333333282,
      "d": 190.10416666662786,
      "v": 85
    },
    {
      "midi": 55,
      "hit": false,
      "t": 183665.62499999948,
      "d": 148.95833333331393,
      "v": 90
    },
    {
      "midi": 62,
      "hit": false,
      "t": 183666.66666666613,
      "d": 189.0624999999709,
      "v": 90
    },
    {
      "midi": 64,
      "hit": false,
      "t": 183667.7083333328,
      "d": 211.97916666665697,
      "v": 83
    },
    {
      "midi": 64,
      "hit": false,
      "t": 184014.5833333328,
      "d": 144.79166666665697,
      "v": 94
    },
    {
      "midi": 55,
      "hit": false,
      "t": 184015.62499999945,
      "d": 108.85416666665697,
      "v": 94
    },
    {
      "midi": 62,
      "hit": false,
      "t": 184016.6666666661,
      "d": 139.0625,
      "v": 88
    },
    {
      "midi": 59,
      "hit": false,
      "t": 184017.70833333276,
      "d": 136.97916666668607,
      "v": 89
    },
    {
      "midi": 67,
      "hit": false,
      "t": 184019.7916666661,
      "d": 114.58333333334303,
      "v": 85
    },
    {
      "midi": 38,
      "hit": false,
      "t": 184189.5833333328,
      "d": 173.95833333334303,
      "v": 82
    },
    {
      "midi": 31,
      "hit": false,
      "t": 184314.5833333328,
      "d": 509.89583333334303,
      "v": 86
    },
    {
      "midi": 57,
      "hit": false,
      "t": 184499.47916666613,
      "d": 149.9999999999709,
      "v": 93
    },
    {
      "midi": 53,
      "hit": false,
      "t": 184500.5208333328,
      "d": 133.85416666665697,
      "v": 90
    },
    {
      "midi": 62,
      "hit": false,
      "t": 184501.56249999945,
      "d": 177.08333333334303,
      "v": 92
    },
    {
      "midi": 65,
      "hit": false,
      "t": 184504.68749999945,
      "d": 189.0625,
      "v": 80
    },
    {
      "midi": 60,
      "hit": false,
      "t": 184505.7291666661,
      "d": 153.64583333334303,
      "v": 94
    },
    {
      "midi": 43,
      "hit": false,
      "t": 184654.68749999945,
      "d": 194.79166666668607,
      "v": 90
    },
    {
      "midi": 38,
      "hit": false,
      "t": 184774.47916666613,
      "d": 125,
      "v": 74
    },
    {
      "midi": 36,
      "hit": false,
      "t": 184959.37499999948,
      "d": 490.10416666662786,
      "v": 94
    },
    {
      "midi": 62,
      "hit": false,
      "t": 184969.79166666613,
      "d": 164.58333333334303,
      "v": 90
    },
    {
      "midi": 64,
      "hit": false,
      "t": 184970.8333333328,
      "d": 178.64583333334303,
      "v": 85
    },
    {
      "midi": 55,
      "hit": false,
      "t": 184971.35416666613,
      "d": 133.33333333334303,
      "v": 91
    },
    {
      "midi": 59,
      "hit": false,
      "t": 184974.47916666613,
      "d": 155.20833333334303,
      "v": 89
    },
    {
      "midi": 64,
      "hit": false,
      "t": 185303.6458333328,
      "d": 141.14583333331393,
      "v": 95
    },
    {
      "midi": 67,
      "hit": false,
      "t": 185304.68749999945,
      "d": 134.89583333331393,
      "v": 94
    },
    {
      "midi": 62,
      "hit": false,
      "t": 185309.37499999945,
      "d": 145.3125,
      "v": 94
    },
    {
      "midi": 59,
      "hit": false,
      "t": 185309.37499999945,
      "d": 146.35416666665697,
      "v": 96
    },
    {
      "midi": 55,
      "hit": false,
      "t": 185310.4166666661,
      "d": 104.16666666665697,
      "v": 98
    },
    {
      "midi": 38,
      "hit": false,
      "t": 185474.4791666661,
      "d": 158.85416666665697,
      "v": 77
    },
    {
      "midi": 31,
      "hit": false,
      "t": 185614.58333333276,
      "d": 484.89583333334303,
      "v": 82
    },
    {
      "midi": 38,
      "hit": false,
      "t": 185769.7916666661,
      "d": 203.64583333331393,
      "v": 20
    },
    {
      "midi": 53,
      "hit": false,
      "t": 185799.4791666661,
      "d": 158.85416666665697,
      "v": 93
    },
    {
      "midi": 57,
      "hit": false,
      "t": 185804.68749999945,
      "d": 164.0624999999709,
      "v": 96
    },
    {
      "midi": 65,
      "hit": false,
      "t": 185805.7291666661,
      "d": 203.64583333334303,
      "v": 87
    },
    {
      "midi": 62,
      "hit": false,
      "t": 185806.77083333276,
      "d": 188.02083333334303,
      "v": 92
    },
    {
      "midi": 60,
      "hit": false,
      "t": 185807.81249999942,
      "d": 170.83333333334303,
      "v": 94
    },
    {
      "midi": 43,
      "hit": false,
      "t": 185959.37499999942,
      "d": 180.20833333334303,
      "v": 86
    },
    {
      "midi": 38,
      "hit": false,
      "t": 186084.37499999945,
      "d": 124.9999999999709,
      "v": 63
    },
    {
      "midi": 36,
      "hit": false,
      "t": 186258.33333333273,
      "d": 470.3124999999418,
      "v": 90
    },
    {
      "midi": 55,
      "hit": false,
      "t": 186273.4374999994,
      "d": 151.04166666665697,
      "v": 93
    },
    {
      "midi": 62,
      "hit": false,
      "t": 186278.64583333273,
      "d": 170.83333333331393,
      "v": 92
    },
    {
      "midi": 59,
      "hit": false,
      "t": 186279.6874999994,
      "d": 173.95833333331393,
      "v": 92
    },
    {
      "midi": 64,
      "hit": false,
      "t": 186280.72916666605,
      "d": 178.64583333331393,
      "v": 83
    },
    {
      "midi": 64,
      "hit": false,
      "t": 186603.6458333327,
      "d": 145.83333333331393,
      "v": 97
    },
    {
      "midi": 55,
      "hit": false,
      "t": 186605.72916666602,
      "d": 117.70833333331393,
      "v": 95
    },
    {
      "midi": 62,
      "hit": false,
      "t": 186606.77083333267,
      "d": 151.5625,
      "v": 98
    },
    {
      "midi": 59,
      "hit": false,
      "t": 186607.81249999933,
      "d": 155.72916666668607,
      "v": 100
    },
    {
      "midi": 67,
      "hit": false,
      "t": 186608.33333333267,
      "d": 141.14583333334303,
      "v": 95
    },
    {
      "midi": 38,
      "hit": false,
      "t": 186773.43749999936,
      "d": 180.20833333334303,
      "v": 82
    },
    {
      "midi": 31,
      "hit": false,
      "t": 186897.3958333327,
      "d": 526.041666666657,
      "v": 86
    },
    {
      "midi": 62,
      "hit": false,
      "t": 187063.54166666605,
      "d": 194.79166666665697,
      "v": 93
    },
    {
      "midi": 53,
      "hit": false,
      "t": 187069.79166666605,
      "d": 163.02083333331393,
      "v": 97
    },
    {
      "midi": 57,
      "hit": false,
      "t": 187070.8333333327,
      "d": 166.66666666665697,
      "v": 94
    },
    {
      "midi": 65,
      "hit": false,
      "t": 187070.8333333327,
      "d": 212.5,
      "v": 81
    },
    {
      "midi": 60,
      "hit": false,
      "t": 187073.43749999936,
      "d": 175,
      "v": 98
    },
    {
      "midi": 43,
      "hit": false,
      "t": 187227.60416666602,
      "d": 210.9375,
      "v": 91
    },
    {
      "midi": 38,
      "hit": false,
      "t": 187368.74999999936,
      "d": 114.58333333331393,
      "v": 80
    },
    {
      "midi": 64,
      "hit": false,
      "t": 187532.81249999933,
      "d": 220.83333333334303,
      "v": 86
    },
    {
      "midi": 62,
      "hit": false,
      "t": 187533.33333333267,
      "d": 200,
      "v": 92
    },
    {
      "midi": 55,
      "hit": false,
      "t": 187538.54166666602,
      "d": 165.10416666665697,
      "v": 91
    },
    {
      "midi": 59,
      "hit": false,
      "t": 187538.54166666602,
      "d": 205.20833333331393,
      "v": 91
    },
    {
      "midi": 36,
      "hit": false,
      "t": 187539.58333333267,
      "d": 443.7499999999709,
      "v": 90
    },
    {
      "midi": 55,
      "hit": false,
      "t": 187857.81249999933,
      "d": 115.6249999999709,
      "v": 100
    },
    {
      "midi": 59,
      "hit": false,
      "t": 187862.49999999933,
      "d": 151.04166666662786,
      "v": 102
    },
    {
      "midi": 67,
      "hit": false,
      "t": 187868.74999999933,
      "d": 134.89583333331393,
      "v": 95
    },
    {
      "midi": 62,
      "hit": false,
      "t": 187870.83333333264,
      "d": 147.91666666665697,
      "v": 102
    },
    {
      "midi": 64,
      "hit": false,
      "t": 187873.4374999993,
      "d": 131.25,
      "v": 102
    },
    {
      "midi": 38,
      "hit": false,
      "t": 188028.64583333264,
      "d": 204.6875,
      "v": 85
    },
    {
      "midi": 31,
      "hit": false,
      "t": 188167.70833333264,
      "d": 540.625,
      "v": 88
    },
    {
      "midi": 65,
      "hit": false,
      "t": 188358.33333333264,
      "d": 240.10416666665697,
      "v": 85
    },
    {
      "midi": 62,
      "hit": false,
      "t": 188363.541666666,
      "d": 209.89583333331393,
      "v": 96
    },
    {
      "midi": 57,
      "hit": false,
      "t": 188364.58333333264,
      "d": 173.95833333331393,
      "v": 93
    },
    {
      "midi": 53,
      "hit": false,
      "t": 188365.6249999993,
      "d": 167.70833333334303,
      "v": 92
    },
    {
      "midi": 60,
      "hit": false,
      "t": 188368.7499999993,
      "d": 175,
      "v": 96
    },
    {
      "midi": 43,
      "hit": false,
      "t": 188534.3749999993,
      "d": 184.375,
      "v": 94
    },
    {
      "midi": 38,
      "hit": false,
      "t": 188663.54166666596,
      "d": 119.79166666668607,
      "v": 70
    },
    {
      "midi": 64,
      "hit": false,
      "t": 188833.33333333264,
      "d": 224.9999999999709,
      "v": 86
    },
    {
      "midi": 59,
      "hit": false,
      "t": 188834.3749999993,
      "d": 194.27083333331393,
      "v": 89
    },
    {
      "midi": 36,
      "hit": false,
      "t": 188835.41666666596,
      "d": 513.0208333333139,
      "v": 90
    },
    {
      "midi": 55,
      "hit": false,
      "t": 188836.45833333262,
      "d": 161.97916666665697,
      "v": 89
    },
    {
      "midi": 62,
      "hit": false,
      "t": 188837.49999999927,
      "d": 210.9375,
      "v": 92
    },
    {
      "midi": 55,
      "hit": false,
      "t": 189193.74999999927,
      "d": 89.58333333334303,
      "v": 100
    },
    {
      "midi": 59,
      "hit": false,
      "t": 189194.79166666593,
      "d": 154.6875,
      "v": 94
    },
    {
      "midi": 62,
      "hit": false,
      "t": 189195.8333333326,
      "d": 147.91666666668607,
      "v": 88
    },
    {
      "midi": 67,
      "hit": false,
      "t": 189196.35416666593,
      "d": 122.39583333334303,
      "v": 95
    },
    {
      "midi": 64,
      "hit": false,
      "t": 189198.43749999927,
      "d": 125,
      "v": 101
    },
    {
      "midi": 38,
      "hit": false,
      "t": 189338.54166666593,
      "d": 199.9999999999709,
      "v": 83
    },
    {
      "midi": 31,
      "hit": false,
      "t": 189478.6458333326,
      "d": 329.6874999999709,
      "v": 90
    },
    {
      "midi": 65,
      "hit": false,
      "t": 189658.33333333256,
      "d": 199.9999999999709,
      "v": 84
    },
    {
      "midi": 62,
      "hit": false,
      "t": 189663.5416666659,
      "d": 174.9999999999709,
      "v": 94
    },
    {
      "midi": 60,
      "hit": false,
      "t": 189664.58333333256,
      "d": 154.16666666665697,
      "v": 94
    },
    {
      "midi": 53,
      "hit": false,
      "t": 189665.6249999992,
      "d": 132.8125,
      "v": 94
    },
    {
      "midi": 57,
      "hit": false,
      "t": 189668.7499999992,
      "d": 144.79166666665697,
      "v": 95
    },
    {
      "midi": 43,
      "hit": false,
      "t": 189809.3749999992,
      "d": 209.3749999999709,
      "v": 91
    },
    {
      "midi": 38,
      "hit": false,
      "t": 189953.64583333253,
      "d": 115.10416666665697,
      "v": 82
    },
    {
      "midi": 62,
      "hit": false,
      "t": 190123.43749999919,
      "d": 205.20833333331393,
      "v": 94
    },
    {
      "midi": 59,
      "hit": false,
      "t": 190124.47916666584,
      "d": 183.85416666665697,
      "v": 91
    },
    {
      "midi": 55,
      "hit": false,
      "t": 190125.5208333325,
      "d": 157.8125,
      "v": 91
    },
    {
      "midi": 36,
      "hit": false,
      "t": 190133.3333333325,
      "d": 490.10416666668607,
      "v": 95
    },
    {
      "midi": 55,
      "hit": false,
      "t": 190458.3333333325,
      "d": 124.9999999999709,
      "v": 98
    },
    {
      "midi": 59,
      "hit": false,
      "t": 190459.37499999916,
      "d": 165.10416666668607,
      "v": 93
    },
    {
      "midi": 67,
      "hit": false,
      "t": 190463.5416666658,
      "d": 125,
      "v": 94
    },
    {
      "midi": 64,
      "hit": false,
      "t": 190464.58333333247,
      "d": 133.85416666668607,
      "v": 99
    },
    {
      "midi": 62,
      "hit": false,
      "t": 190468.74999999913,
      "d": 139.58333333337214,
      "v": 104
    },
    {
      "midi": 38,
      "hit": false,
      "t": 190613.54166666584,
      "d": 194.79166666668607,
      "v": 85
    },
    {
      "midi": 31,
      "hit": false,
      "t": 190768.74999999919,
      "d": 514.5833333333721,
      "v": 88
    },
    {
      "midi": 34,
      "hit": false,
      "t": 190793.74999999919,
      "d": 159.89583333334303,
      "v": 21
    },
    {
      "midi": 65,
      "hit": false,
      "t": 190938.54166666587,
      "d": 209.89583333334303,
      "v": 86
    },
    {
      "midi": 53,
      "hit": false,
      "t": 190943.7499999992,
      "d": 129.6874999999709,
      "v": 97
    },
    {
      "midi": 62,
      "hit": false,
      "t": 190944.79166666587,
      "d": 178.64583333334303,
      "v": 96
    },
    {
      "midi": 57,
      "hit": false,
      "t": 190945.83333333253,
      "d": 147.91666666665697,
      "v": 95
    },
    {
      "midi": 60,
      "hit": false,
      "t": 190948.43749999919,
      "d": 165.10416666668607,
      "v": 97
    },
    {
      "midi": 43,
      "hit": false,
      "t": 191103.64583333253,
      "d": 184.89583333337214,
      "v": 97
    },
    {
      "midi": 38,
      "hit": false,
      "t": 191218.7499999992,
      "d": 123.95833333334303,
      "v": 77
    },
    {
      "midi": 64,
      "hit": false,
      "t": 191408.33333333256,
      "d": 205.20833333331393,
      "v": 86
    },
    {
      "midi": 55,
      "hit": false,
      "t": 191413.5416666659,
      "d": 164.0624999999709,
      "v": 88
    },
    {
      "midi": 36,
      "hit": false,
      "t": 191414.58333333256,
      "d": 468.22916666659876,
      "v": 95
    },
    {
      "midi": 62,
      "hit": false,
      "t": 191418.7499999992,
      "d": 195.83333333331393,
      "v": 90
    },
    {
      "midi": 59,
      "hit": false,
      "t": 191419.79166666587,
      "d": 194.79166666665697,
      "v": 87
    },
    {
      "midi": 55,
      "hit": false,
      "t": 191743.74999999919,
      "d": 114.58333333331393,
      "v": 97
    },
    {
      "midi": 64,
      "hit": false,
      "t": 191744.79166666584,
      "d": 133.85416666665697,
      "v": 101
    },
    {
      "midi": 59,
      "hit": false,
      "t": 191745.8333333325,
      "d": 146.875,
      "v": 95
    },
    {
      "midi": 67,
      "hit": false,
      "t": 191748.43749999916,
      "d": 123.95833333334303,
      "v": 95
    },
    {
      "midi": 62,
      "hit": false,
      "t": 191749.4791666658,
      "d": 129.16666666668607,
      "v": 103
    },
    {
      "midi": 38,
      "hit": false,
      "t": 191898.43749999916,
      "d": 194.27083333331393,
      "v": 80
    },
    {
      "midi": 31,
      "hit": false,
      "t": 192042.70833333247,
      "d": 546.8750000000291,
      "v": 91
    },
    {
      "midi": 38,
      "hit": false,
      "t": 192202.6041666658,
      "d": 190.10416666668607,
      "v": 20
    },
    {
      "midi": 53,
      "hit": false,
      "t": 192223.43749999916,
      "d": 150,
      "v": 98
    },
    {
      "midi": 57,
      "hit": false,
      "t": 192224.4791666658,
      "d": 183.33333333334303,
      "v": 100
    },
    {
      "midi": 62,
      "hit": false,
      "t": 192225.52083333247,
      "d": 207.29166666668607,
      "v": 97
    },
    {
      "midi": 65,
      "hit": false,
      "t": 192225.52083333247,
      "d": 217.1875000000291,
      "v": 89
    },
    {
      "midi": 60,
      "hit": false,
      "t": 192227.6041666658,
      "d": 200,
      "v": 96
    },
    {
      "midi": 43,
      "hit": false,
      "t": 192373.43749999916,
      "d": 214.0625,
      "v": 107
    },
    {
      "midi": 38,
      "hit": false,
      "t": 192517.7083333325,
      "d": 125,
      "v": 84
    },
    {
      "midi": 36,
      "hit": false,
      "t": 192677.60416666584,
      "d": 455.20833333331393,
      "v": 97
    },
    {
      "midi": 67,
      "hit": false,
      "t": 192982.81249999919,
      "d": 134.89583333331393,
      "v": 94
    },
    {
      "midi": 62,
      "hit": false,
      "t": 192988.54166666584,
      "d": 119.27083333331393,
      "v": 99
    },
    {
      "midi": 59,
      "hit": false,
      "t": 192988.54166666584,
      "d": 133.85416666665697,
      "v": 102
    },
    {
      "midi": 55,
      "hit": false,
      "t": 192989.5833333325,
      "d": 97.91666666665697,
      "v": 100
    },
    {
      "midi": 64,
      "hit": false,
      "t": 192990.62499999916,
      "d": 121.875,
      "v": 99
    },
    {
      "midi": 38,
      "hit": false,
      "t": 193142.7083333325,
      "d": 184.89583333334303,
      "v": 84
    },
    {
      "midi": 31,
      "hit": false,
      "t": 193272.3958333325,
      "d": 561.9791666666861,
      "v": 86
    },
    {
      "midi": 38,
      "hit": false,
      "t": 193447.3958333325,
      "d": 195.3125000000291,
      "v": 20
    },
    {
      "midi": 57,
      "hit": false,
      "t": 193477.60416666584,
      "d": 175,
      "v": 94
    },
    {
      "midi": 62,
      "hit": false,
      "t": 193482.81249999919,
      "d": 200,
      "v": 92
    },
    {
      "midi": 65,
      "hit": false,
      "t": 193483.33333333253,
      "d": 219.27083333331393,
      "v": 79
    },
    {
      "midi": 53,
      "hit": false,
      "t": 193484.37499999919,
      "d": 163.02083333334303,
      "v": 89
    },
    {
      "midi": 60,
      "hit": false,
      "t": 193492.70833333253,
      "d": 165.10416666665697,
      "v": 94
    },
    {
      "midi": 43,
      "hit": false,
      "t": 193648.43749999919,
      "d": 184.89583333334303,
      "v": 90
    },
    {
      "midi": 38,
      "hit": false,
      "t": 193767.70833333253,
      "d": 115.10416666665697,
      "v": 65
    },
    {
      "midi": 36,
      "hit": false,
      "t": 193932.81249999919,
      "d": 530.7291666666279,
      "v": 92
    },
    {
      "midi": 59,
      "hit": false,
      "t": 193933.33333333253,
      "d": 200,
      "v": 89
    },
    {
      "midi": 62,
      "hit": false,
      "t": 193934.37499999919,
      "d": 198.4375,
      "v": 92
    },
    {
      "midi": 55,
      "hit": false,
      "t": 193935.41666666584,
      "d": 177.08333333334303,
      "v": 91
    },
    {
      "midi": 64,
      "hit": false,
      "t": 193937.49999999919,
      "d": 200,
      "v": 87
    },
    {
      "midi": 67,
      "hit": false,
      "t": 194277.60416666584,
      "d": 141.14583333331393,
      "v": 92
    },
    {
      "midi": 64,
      "hit": false,
      "t": 194282.81249999919,
      "d": 155.72916666662786,
      "v": 105
    },
    {
      "midi": 55,
      "hit": false,
      "t": 194283.33333333253,
      "d": 134.3749999999709,
      "v": 98
    },
    {
      "midi": 62,
      "hit": false,
      "t": 194287.49999999919,
      "d": 149.9999999999709,
      "v": 103
    },
    {
      "midi": 59,
      "hit": false,
      "t": 194288.54166666584,
      "d": 164.0624999999709,
      "v": 106
    },
    {
      "midi": 38,
      "hit": false,
      "t": 194442.70833333247,
      "d": 190.10416666665697,
      "v": 85
    },
    {
      "midi": 31,
      "hit": false,
      "t": 194572.39583333247,
      "d": 531.25,
      "v": 90
    },
    {
      "midi": 38,
      "hit": false,
      "t": 194737.49999999913,
      "d": 205.20833333334303,
      "v": 20
    },
    {
      "midi": 65,
      "hit": false,
      "t": 194757.81249999913,
      "d": 225,
      "v": 85
    },
    {
      "midi": 57,
      "hit": false,
      "t": 194762.49999999913,
      "d": 181.25,
      "v": 95
    },
    {
      "midi": 53,
      "hit": false,
      "t": 194763.54166666578,
      "d": 154.16666666668607,
      "v": 92
    },
    {
      "midi": 60,
      "hit": false,
      "t": 194767.70833333244,
      "d": 184.89583333334303,
      "v": 94
    },
    {
      "midi": 62,
      "hit": false,
      "t": 194769.79166666578,
      "d": 192.70833333334303,
      "v": 94
    },
    {
      "midi": 43,
      "hit": false,
      "t": 194912.49999999913,
      "d": 201.04166666668607,
      "v": 94
    },
    {
      "midi": 38,
      "hit": false,
      "t": 195047.39583333247,
      "d": 115.10416666668607,
      "v": 71
    },
    {
      "midi": 36,
      "hit": false,
      "t": 195217.7083333325,
      "d": 501.04166666665697,
      "v": 94
    },
    {
      "midi": 55,
      "hit": false,
      "t": 195218.74999999916,
      "d": 153.64583333331393,
      "v": 93
    },
    {
      "midi": 62,
      "hit": false,
      "t": 195222.3958333325,
      "d": 181.2499999999709,
      "v": 88
    },
    {
      "midi": 59,
      "hit": false,
      "t": 195223.43749999916,
      "d": 184.89583333331393,
      "v": 92
    },
    {
      "midi": 64,
      "hit": false,
      "t": 195224.4791666658,
      "d": 204.16666666665697,
      "v": 87
    },
    {
      "midi": 55,
      "hit": false,
      "t": 195547.39583333247,
      "d": 124.9999999999709,
      "v": 95
    },
    {
      "midi": 62,
      "hit": false,
      "t": 195548.43749999913,
      "d": 144.27083333334303,
      "v": 96
    },
    {
      "midi": 67,
      "hit": false,
      "t": 195552.60416666578,
      "d": 125,
      "v": 94
    },
    {
      "midi": 59,
      "hit": false,
      "t": 195554.6874999991,
      "d": 142.70833333337214,
      "v": 104
    },
    {
      "midi": 64,
      "hit": false,
      "t": 195557.8124999991,
      "d": 129.6875000000291,
      "v": 105
    },
    {
      "midi": 38,
      "hit": false,
      "t": 195713.5416666658,
      "d": 198.95833333334303,
      "v": 88
    },
    {
      "midi": 31,
      "hit": false,
      "t": 195857.81249999916,
      "d": 529.6874999999418,
      "v": 90
    },
    {
      "midi": 57,
      "hit": false,
      "t": 196028.6458333325,
      "d": 158.85416666662786,
      "v": 95
    },
    {
      "midi": 65,
      "hit": false,
      "t": 196029.68749999916,
      "d": 213.02083333328483,
      "v": 82
    },
    {
      "midi": 53,
      "hit": false,
      "t": 196030.7291666658,
      "d": 136.97916666665697,
      "v": 92
    },
    {
      "midi": 62,
      "hit": false,
      "t": 196031.77083333247,
      "d": 180.72916666662786,
      "v": 92
    },
    {
      "midi": 60,
      "hit": false,
      "t": 196033.33333333247,
      "d": 164.0624999999709,
      "v": 94
    },
    {
      "midi": 43,
      "hit": false,
      "t": 196188.54166666578,
      "d": 194.79166666665697,
      "v": 94
    },
    {
      "midi": 38,
      "hit": false,
      "t": 196322.39583333244,
      "d": 125,
      "v": 83
    },
    {
      "midi": 36,
      "hit": false,
      "t": 196497.39583333244,
      "d": 476.04166666659876,
      "v": 95
    },
    {
      "midi": 64,
      "hit": false,
      "t": 196502.60416666578,
      "d": 199.9999999999709,
      "v": 86
    },
    {
      "midi": 62,
      "hit": false,
      "t": 196503.64583333244,
      "d": 193.7499999999709,
      "v": 92
    },
    {
      "midi": 55,
      "hit": false,
      "t": 196504.6874999991,
      "d": 158.85416666665697,
      "v": 93
    },
    {
      "midi": 59,
      "hit": false,
      "t": 196505.72916666575,
      "d": 205.72916666665697,
      "v": 92
    },
    {
      "midi": 55,
      "hit": false,
      "t": 196832.81249999907,
      "d": 113.54166666665697,
      "v": 99
    },
    {
      "midi": 62,
      "hit": false,
      "t": 196833.3333333324,
      "d": 144.27083333328483,
      "v": 98
    },
    {
      "midi": 67,
      "hit": false,
      "t": 196834.37499999907,
      "d": 127.08333333331393,
      "v": 96
    },
    {
      "midi": 64,
      "hit": false,
      "t": 196835.41666666573,
      "d": 138.02083333331393,
      "v": 99
    },
    {
      "midi": 59,
      "hit": false,
      "t": 196836.45833333238,
      "d": 151.04166666665697,
      "v": 106
    },
    {
      "midi": 38,
      "hit": false,
      "t": 196992.70833333238,
      "d": 198.95833333334303,
      "v": 86
    },
    {
      "midi": 31,
      "hit": false,
      "t": 197136.45833333238,
      "d": 521.354166666657,
      "v": 91
    },
    {
      "midi": 53,
      "hit": false,
      "t": 197303.64583333238,
      "d": 167.70833333334303,
      "v": 98
    },
    {
      "midi": 65,
      "hit": false,
      "t": 197303.64583333238,
      "d": 228.125,
      "v": 89
    },
    {
      "midi": 57,
      "hit": false,
      "t": 197308.33333333238,
      "d": 178.125,
      "v": 99
    },
    {
      "midi": 62,
      "hit": false,
      "t": 197308.33333333238,
      "d": 198.4375,
      "v": 96
    },
    {
      "midi": 60,
      "hit": false,
      "t": 197312.49999999904,
      "d": 189.0625,
      "v": 98
    },
    {
      "midi": 43,
      "hit": false,
      "t": 197461.45833333238,
      "d": 195.3125,
      "v": 109
    },
    {
      "midi": 38,
      "hit": false,
      "t": 197586.45833333238,
      "d": 130.20833333331393,
      "v": 79
    },
    {
      "midi": 64,
      "hit": false,
      "t": 197761.45833333235,
      "d": 245.3124999999418,
      "v": 86
    },
    {
      "midi": 36,
      "hit": false,
      "t": 197762.499999999,
      "d": 520.3124999998836,
      "v": 94
    },
    {
      "midi": 62,
      "hit": false,
      "t": 197766.66666666567,
      "d": 241.14583333328483,
      "v": 90
    },
    {
      "midi": 55,
      "hit": false,
      "t": 197767.70833333232,
      "d": 184.89583333331393,
      "v": 89
    },
    {
      "midi": 59,
      "hit": false,
      "t": 197768.74999999898,
      "d": 217.70833333331393,
      "v": 89
    },
    {
      "midi": 55,
      "hit": false,
      "t": 198091.6666666656,
      "d": 115.10416666665697,
      "v": 94
    },
    {
      "midi": 67,
      "hit": false,
      "t": 198096.3541666656,
      "d": 141.14583333331393,
      "v": 91
    },
    {
      "midi": 59,
      "hit": false,
      "t": 198101.56249999895,
      "d": 160.9374999999418,
      "v": 101
    },
    {
      "midi": 62,
      "hit": false,
      "t": 198106.7708333323,
      "d": 146.8749999999418,
      "v": 96
    },
    {
      "midi": 64,
      "hit": false,
      "t": 198107.81249999895,
      "d": 146.8749999999418,
      "v": 95
    },
    {
      "midi": 38,
      "hit": false,
      "t": 198252.60416666558,
      "d": 189.0624999999709,
      "v": 85
    },
    {
      "midi": 31,
      "hit": false,
      "t": 198401.5624999989,
      "d": 534.8958333333139,
      "v": 88
    },
    {
      "midi": 57,
      "hit": false,
      "t": 198582.8124999989,
      "d": 168.75,
      "v": 94
    },
    {
      "midi": 62,
      "hit": false,
      "t": 198583.33333333224,
      "d": 208.33333333331393,
      "v": 93
    },
    {
      "midi": 65,
      "hit": false,
      "t": 198587.4999999989,
      "d": 229.16666666665697,
      "v": 82
    },
    {
      "midi": 53,
      "hit": false,
      "t": 198588.54166666555,
      "d": 153.125,
      "v": 92
    },
    {
      "midi": 60,
      "hit": false,
      "t": 198592.7083333322,
      "d": 173.95833333334303,
      "v": 93
    },
    {
      "midi": 43,
      "hit": false,
      "t": 198736.4583333322,
      "d": 215.10416666665697,
      "v": 94
    },
    {
      "midi": 38,
      "hit": false,
      "t": 198877.60416666555,
      "d": 114.0624999999709,
      "v": 77
    },
    {
      "midi": 36,
      "hit": false,
      "t": 199051.56249999886,
      "d": 509.8958333332848,
      "v": 94
    },
    {
      "midi": 64,
      "hit": false,
      "t": 199056.7708333322,
      "d": 189.58333333331393,
      "v": 82
    },
    {
      "midi": 62,
      "hit": false,
      "t": 199057.81249999886,
      "d": 183.85416666665697,
      "v": 90
    },
    {
      "midi": 55,
      "hit": false,
      "t": 199058.3333333322,
      "d": 154.16666666665697,
      "v": 91
    },
    {
      "midi": 59,
      "hit": false,
      "t": 199059.37499999886,
      "d": 178.125,
      "v": 91
    },
    {
      "midi": 64,
      "hit": false,
      "t": 199386.45833333218,
      "d": 146.35416666662786,
      "v": 93
    },
    {
      "midi": 59,
      "hit": false,
      "t": 199391.66666666552,
      "d": 151.04166666662786,
      "v": 94
    },
    {
      "midi": 55,
      "hit": false,
      "t": 199392.70833333218,
      "d": 109.89583333331393,
      "v": 94
    },
    {
      "midi": 62,
      "hit": false,
      "t": 199393.74999999884,
      "d": 149.9999999999709,
      "v": 92
    },
    {
      "midi": 67,
      "hit": false,
      "t": 199396.3541666655,
      "d": 126.04166666665697,
      "v": 95
    },
    {
      "midi": 38,
      "hit": false,
      "t": 199537.4999999988,
      "d": 194.27083333334303,
      "v": 83
    },
    {
      "midi": 31,
      "hit": false,
      "t": 199686.45833333215,
      "d": 549.9999999999709,
      "v": 90
    },
    {
      "midi": 57,
      "hit": false,
      "t": 199876.5624999988,
      "d": 169.79166666662786,
      "v": 90
    },
    {
      "midi": 65,
      "hit": false,
      "t": 199877.60416666546,
      "d": 224.9999999999709,
      "v": 72
    },
    {
      "midi": 53,
      "hit": false,
      "t": 199878.64583333212,
      "d": 182.8124999999709,
      "v": 87
    },
    {
      "midi": 60,
      "hit": false,
      "t": 199879.68749999878,
      "d": 182.8124999999709,
      "v": 92
    },
    {
      "midi": 62,
      "hit": false,
      "t": 199880.72916666543,
      "d": 195.83333333331393,
      "v": 90
    },
    {
      "midi": 43,
      "hit": false,
      "t": 200021.35416666543,
      "d": 190.10416666668607,
      "v": 91
    },
    {
      "midi": 38,
      "hit": false,
      "t": 200162.49999999878,
      "d": 123.95833333334303,
      "v": 82
    },
    {
      "midi": 36,
      "hit": false,
      "t": 200326.56249999878,
      "d": 509.8958333332848,
      "v": 94
    },
    {
      "midi": 64,
      "hit": false,
      "t": 200331.77083333212,
      "d": 204.6875,
      "v": 86
    },
    {
      "midi": 62,
      "hit": false,
      "t": 200332.81249999878,
      "d": 198.95833333334303,
      "v": 88
    },
    {
      "midi": 55,
      "hit": false,
      "t": 200336.45833333212,
      "d": 156.25,
      "v": 91
    },
    {
      "midi": 59,
      "hit": false,
      "t": 200341.66666666546,
      "d": 179.6875,
      "v": 91
    },
    {
      "midi": 64,
      "hit": false,
      "t": 200676.56249999878,
      "d": 149.9999999999709,
      "v": 94
    },
    {
      "midi": 67,
      "hit": false,
      "t": 200686.45833333212,
      "d": 126.04166666662786,
      "v": 90
    },
    {
      "midi": 55,
      "hit": false,
      "t": 200687.49999999878,
      "d": 105.20833333331393,
      "v": 97
    },
    {
      "midi": 59,
      "hit": false,
      "t": 200688.54166666543,
      "d": 139.0624999999709,
      "v": 94
    },
    {
      "midi": 62,
      "hit": false,
      "t": 200689.5833333321,
      "d": 132.8125,
      "v": 104
    },
    {
      "midi": 38,
      "hit": false,
      "t": 200841.6666666654,
      "d": 190.10416666668607,
      "v": 85
    },
    {
      "midi": 31,
      "hit": false,
      "t": 200981.7708333321,
      "d": 550,
      "v": 86
    },
    {
      "midi": 53,
      "hit": false,
      "t": 201161.4583333321,
      "d": 145.3125,
      "v": 92
    },
    {
      "midi": 65,
      "hit": false,
      "t": 201166.66666666543,
      "d": 216.14583333331393,
      "v": 81
    },
    {
      "midi": 57,
      "hit": false,
      "t": 201167.7083333321,
      "d": 158.85416666665697,
      "v": 90
    },
    {
      "midi": 62,
      "hit": false,
      "t": 201171.35416666543,
      "d": 186.45833333331393,
      "v": 88
    },
    {
      "midi": 60,
      "hit": false,
      "t": 201172.3958333321,
      "d": 173.95833333331393,
      "v": 93
    },
    {
      "midi": 43,
      "hit": false,
      "t": 201327.6041666654,
      "d": 218.7500000000291,
      "v": 90
    },
    {
      "midi": 38,
      "hit": false,
      "t": 201462.49999999875,
      "d": 123.95833333334303,
      "v": 80
    },
    {
      "midi": 59,
      "hit": false,
      "t": 201631.7708333321,
      "d": 170.83333333331393,
      "v": 84
    },
    {
      "midi": 64,
      "hit": false,
      "t": 201632.81249999875,
      "d": 202.60416666665697,
      "v": 86
    },
    {
      "midi": 55,
      "hit": false,
      "t": 201633.3333333321,
      "d": 168.22916666665697,
      "v": 93
    },
    {
      "midi": 36,
      "hit": false,
      "t": 201634.37499999875,
      "d": 467.1874999999418,
      "v": 94
    },
    {
      "midi": 62,
      "hit": false,
      "t": 201635.4166666654,
      "d": 176.04166666665697,
      "v": 94
    },
    {
      "midi": 55,
      "hit": false,
      "t": 201966.6666666654,
      "d": 109.89583333328483,
      "v": 94
    },
    {
      "midi": 62,
      "hit": false,
      "t": 201971.3541666654,
      "d": 136.45833333328483,
      "v": 99
    },
    {
      "midi": 67,
      "hit": false,
      "t": 201972.39583333206,
      "d": 123.4374999999709,
      "v": 95
    },
    {
      "midi": 59,
      "hit": false,
      "t": 201973.43749999872,
      "d": 134.3749999999709,
      "v": 97
    },
    {
      "midi": 64,
      "hit": false,
      "t": 201974.47916666538,
      "d": 127.08333333331393,
      "v": 93
    },
    {
      "midi": 38,
      "hit": false,
      "t": 202106.77083333203,
      "d": 183.85416666662786,
      "v": 85
    },
    {
      "midi": 31,
      "hit": false,
      "t": 202260.41666666535,
      "d": 526.041666666657,
      "v": 90
    },
    {
      "midi": 53,
      "hit": false,
      "t": 202441.66666666532,
      "d": 133.85416666665697,
      "v": 92
    },
    {
      "midi": 57,
      "hit": false,
      "t": 202442.70833333198,
      "d": 142.70833333334303,
      "v": 91
    },
    {
      "midi": 65,
      "hit": false,
      "t": 202442.70833333198,
      "d": 198.95833333337214,
      "v": 82
    },
    {
      "midi": 62,
      "hit": false,
      "t": 202443.74999999863,
      "d": 172.91666666671517,
      "v": 90
    },
    {
      "midi": 60,
      "hit": false,
      "t": 202445.83333333198,
      "d": 150.0000000000291,
      "v": 94
    },
    {
      "midi": 43,
      "hit": false,
      "t": 202590.62499999866,
      "d": 194.79166666668607,
      "v": 90
    },
    {
      "midi": 38,
      "hit": false,
      "t": 202720.833333332,
      "d": 114.58333333334303,
      "v": 84
    },
    {
      "midi": 36,
      "hit": false,
      "t": 202900.520833332,
      "d": 490.10416666659876,
      "v": 92
    },
    {
      "midi": 62,
      "hit": false,
      "t": 202901.56249999866,
      "d": 215.10416666665697,
      "v": 90
    },
    {
      "midi": 55,
      "hit": false,
      "t": 202906.770833332,
      "d": 183.85416666665697,
      "v": 88
    },
    {
      "midi": 59,
      "hit": false,
      "t": 202906.770833332,
      "d": 193.75,
      "v": 87
    },
    {
      "midi": 64,
      "hit": false,
      "t": 202907.81249999866,
      "d": 207.8125,
      "v": 79
    },
    {
      "midi": 55,
      "hit": false,
      "t": 203236.45833333198,
      "d": 109.89583333328483,
      "v": 105
    },
    {
      "midi": 67,
      "hit": false,
      "t": 203237.49999999863,
      "d": 122.91666666662786,
      "v": 98
    },
    {
      "midi": 64,
      "hit": false,
      "t": 203241.6666666653,
      "d": 114.0624999999709,
      "v": 106
    },
    {
      "midi": 62,
      "hit": false,
      "t": 203242.70833333195,
      "d": 108.85416666665697,
      "v": 108
    },
    {
      "midi": 59,
      "hit": false,
      "t": 203243.7499999986,
      "d": 131.77083333331393,
      "v": 106
    },
    {
      "midi": 38,
      "hit": false,
      "t": 203385.41666666526,
      "d": 185.9375,
      "v": 85
    },
    {
      "midi": 31,
      "hit": false,
      "t": 203530.72916666526,
      "d": 515.1041666666279,
      "v": 85
    },
    {
      "midi": 57,
      "hit": false,
      "t": 203700.52083333192,
      "d": 134.89583333331393,
      "v": 91
    },
    {
      "midi": 53,
      "hit": false,
      "t": 203701.56249999857,
      "d": 119.27083333331393,
      "v": 91
    },
    {
      "midi": 65,
      "hit": false,
      "t": 203705.72916666523,
      "d": 176.04166666665697,
      "v": 81
    },
    {
      "midi": 60,
      "hit": false,
      "t": 203717.7083333319,
      "d": 122.91666666668607,
      "v": 93
    },
    {
      "midi": 62,
      "hit": false,
      "t": 203717.7083333319,
      "d": 143.75,
      "v": 88
    },
    {
      "midi": 43,
      "hit": false,
      "t": 203855.72916666523,
      "d": 194.79166666665697,
      "v": 87
    },
    {
      "midi": 38,
      "hit": false,
      "t": 203991.66666666523,
      "d": 108.85416666665697,
      "v": 79
    },
    {
      "midi": 36,
      "hit": false,
      "t": 204155.72916666523,
      "d": 420.83333333337214,
      "v": 86
    },
    {
      "midi": 62,
      "hit": false,
      "t": 204160.41666666523,
      "d": 151.04166666668607,
      "v": 86
    },
    {
      "midi": 59,
      "hit": false,
      "t": 204165.62499999857,
      "d": 150,
      "v": 82
    },
    {
      "midi": 55,
      "hit": false,
      "t": 204166.66666666523,
      "d": 125,
      "v": 84
    },
    {
      "midi": 64,
      "hit": false,
      "t": 204170.8333333319,
      "d": 130.72916666668607,
      "v": 69
    },
    {
      "midi": 67,
      "hit": false,
      "t": 204480.72916666526,
      "d": 120.83333333334303,
      "v": 93
    },
    {
      "midi": 62,
      "hit": false,
      "t": 204485.41666666526,
      "d": 117.1875,
      "v": 96
    },
    {
      "midi": 55,
      "hit": false,
      "t": 204487.4999999986,
      "d": 104.16666666665697,
      "v": 98
    },
    {
      "midi": 64,
      "hit": false,
      "t": 204488.54166666526,
      "d": 115.10416666665697,
      "v": 99
    },
    {
      "midi": 59,
      "hit": false,
      "t": 204491.66666666526,
      "d": 104.6875,
      "v": 97
    },
    {
      "midi": 38,
      "hit": false,
      "t": 204631.77083333192,
      "d": 189.58333333334303,
      "v": 84
    },
    {
      "midi": 31,
      "hit": false,
      "t": 204785.41666666526,
      "d": 516.1458333332848,
      "v": 79
    },
    {
      "midi": 57,
      "hit": false,
      "t": 204965.6249999986,
      "d": 155.72916666665697,
      "v": 91
    },
    {
      "midi": 53,
      "hit": false,
      "t": 204966.66666666526,
      "d": 165.10416666665697,
      "v": 90
    },
    {
      "midi": 62,
      "hit": false,
      "t": 204967.70833333192,
      "d": 183.85416666665697,
      "v": 92
    },
    {
      "midi": 65,
      "hit": false,
      "t": 204970.83333333192,
      "d": 195.83333333331393,
      "v": 77
    },
    {
      "midi": 60,
      "hit": false,
      "t": 204971.35416666526,
      "d": 151.04166666665697,
      "v": 94
    },
    {
      "midi": 43,
      "hit": false,
      "t": 205105.72916666526,
      "d": 194.79166666662786,
      "v": 90
    },
    {
      "midi": 38,
      "hit": false,
      "t": 205251.56249999854,
      "d": 94.27083333334303,
      "v": 79
    },
    {
      "midi": 36,
      "hit": false,
      "t": 205400.5208333319,
      "d": 466.14583333334303,
      "v": 90
    },
    {
      "midi": 62,
      "hit": false,
      "t": 205405.72916666523,
      "d": 165.10416666665697,
      "v": 92
    },
    {
      "midi": 55,
      "hit": false,
      "t": 205406.7708333319,
      "d": 129.6875,
      "v": 89
    },
    {
      "midi": 64,
      "hit": false,
      "t": 205410.41666666523,
      "d": 185.41666666665697,
      "v": 86
    },
    {
      "midi": 59,
      "hit": false,
      "t": 205412.49999999854,
      "d": 172.91666666668607,
      "v": 87
    },
    {
      "midi": 64,
      "hit": false,
      "t": 205725.5208333319,
      "d": 126.04166666665697,
      "v": 99
    },
    {
      "midi": 55,
      "hit": false,
      "t": 205726.56249999854,
      "d": 115.10416666665697,
      "v": 95
    },
    {
      "midi": 67,
      "hit": false,
      "t": 205727.6041666652,
      "d": 141.14583333334303,
      "v": 93
    },
    {
      "midi": 62,
      "hit": false,
      "t": 205728.64583333186,
      "d": 132.8125000000291,
      "v": 96
    },
    {
      "midi": 59,
      "hit": false,
      "t": 205730.7291666652,
      "d": 136.97916666668607,
      "v": 94
    },
    {
      "midi": 38,
      "hit": false,
      "t": 205881.7708333319,
      "d": 184.89583333331393,
      "v": 77
    },
    {
      "midi": 31,
      "hit": false,
      "t": 206015.62499999854,
      "d": 544.7916666666279,
      "v": 86
    },
    {
      "midi": 62,
      "hit": false,
      "t": 206176.56249999854,
      "d": 189.0625,
      "v": 90
    },
    {
      "midi": 53,
      "hit": false,
      "t": 206177.6041666652,
      "d": 143.22916666665697,
      "v": 89
    },
    {
      "midi": 65,
      "hit": false,
      "t": 206181.77083333186,
      "d": 209.89583333334303,
      "v": 81
    },
    {
      "midi": 57,
      "hit": false,
      "t": 206182.81249999852,
      "d": 147.91666666668607,
      "v": 88
    },
    {
      "midi": 60,
      "hit": false,
      "t": 206186.45833333186,
      "d": 164.0625,
      "v": 93
    },
    {
      "midi": 43,
      "hit": false,
      "t": 206355.7291666652,
      "d": 170.83333333331393,
      "v": 87
    },
    {
      "midi": 38,
      "hit": false,
      "t": 206476.56249999852,
      "d": 129.16666666665697,
      "v": 77
    },
    {
      "midi": 36,
      "hit": false,
      "t": 206650.52083333183,
      "d": 401.04166666662786,
      "v": 90
    },
    {
      "midi": 59,
      "hit": false,
      "t": 206651.5624999985,
      "d": 169.27083333331393,
      "v": 84
    },
    {
      "midi": 64,
      "hit": false,
      "t": 206652.60416666514,
      "d": 154.16666666665697,
      "v": 85
    },
    {
      "midi": 67,
      "hit": false,
      "t": 206655.72916666514,
      "d": 159.89583333331393,
      "v": 84
    },
    {
      "midi": 62,
      "hit": false,
      "t": 206657.81249999846,
      "d": 148.95833333334303,
      "v": 89
    },
    {
      "midi": 55,
      "hit": false,
      "t": 206658.3333333318,
      "d": 117.1875,
      "v": 90
    },
    {
      "midi": 67,
      "hit": false,
      "t": 206974.47916666514,
      "d": 141.14583333328483,
      "v": 90
    },
    {
      "midi": 59,
      "hit": false,
      "t": 206980.72916666514,
      "d": 110.9374999999709,
      "v": 95
    },
    {
      "midi": 62,
      "hit": false,
      "t": 206981.7708333318,
      "d": 109.89583333331393,
      "v": 97
    },
    {
      "midi": 64,
      "hit": false,
      "t": 206982.81249999846,
      "d": 113.02083333331393,
      "v": 90
    },
    {
      "midi": 55,
      "hit": false,
      "t": 206985.4166666651,
      "d": 100,
      "v": 99
    },
    {
      "midi": 38,
      "hit": false,
      "t": 207135.41666666509,
      "d": 140.10416666668607,
      "v": 74
    },
    {
      "midi": 31,
      "hit": false,
      "t": 207275.52083333177,
      "d": 459.89583333331393,
      "v": 90
    },
    {
      "midi": 57,
      "hit": false,
      "t": 207456.77083333177,
      "d": 142.70833333331393,
      "v": 99
    },
    {
      "midi": 65,
      "hit": false,
      "t": 207456.77083333177,
      "d": 183.85416666665697,
      "v": 87
    },
    {
      "midi": 53,
      "hit": false,
      "t": 207457.81249999843,
      "d": 136.97916666665697,
      "v": 94
    },
    {
      "midi": 60,
      "hit": false,
      "t": 207460.41666666509,
      "d": 159.375,
      "v": 98
    },
    {
      "midi": 62,
      "hit": false,
      "t": 207461.45833333174,
      "d": 169.27083333334303,
      "v": 96
    },
    {
      "midi": 43,
      "hit": false,
      "t": 207589.58333333174,
      "d": 181.25,
      "v": 94
    },
    {
      "midi": 38,
      "hit": false,
      "t": 207670.83333333174,
      "d": 148.95833333334303,
      "v": 63
    },
    {
      "midi": 64,
      "hit": false,
      "t": 207870.83333333174,
      "d": 209.89583333334303,
      "v": 90
    },
    {
      "midi": 36,
      "hit": false,
      "t": 207870.83333333174,
      "d": 504.6874999999709,
      "v": 94
    },
    {
      "midi": 59,
      "hit": false,
      "t": 207871.35416666509,
      "d": 210.41666666665697,
      "v": 85
    },
    {
      "midi": 55,
      "hit": false,
      "t": 207872.39583333174,
      "d": 173.4375,
      "v": 91
    },
    {
      "midi": 67,
      "hit": false,
      "t": 207875.52083333174,
      "d": 180.20833333334303,
      "v": 89
    },
    {
      "midi": 62,
      "hit": false,
      "t": 207876.5624999984,
      "d": 208.85416666668607,
      "v": 89
    },
    {
      "midi": 67,
      "hit": false,
      "t": 208204.68749999843,
      "d": 141.66666666665697,
      "v": 90
    },
    {
      "midi": 59,
      "hit": false,
      "t": 208205.72916666509,
      "d": 145.83333333331393,
      "v": 94
    },
    {
      "midi": 55,
      "hit": false,
      "t": 208209.37499999843,
      "d": 106.2499999999709,
      "v": 97
    },
    {
      "midi": 64,
      "hit": false,
      "t": 208210.41666666509,
      "d": 135.41666666665697,
      "v": 99
    },
    {
      "midi": 62,
      "hit": false,
      "t": 208211.45833333174,
      "d": 141.14583333331393,
      "v": 99
    },
    {
      "midi": 38,
      "hit": false,
      "t": 208350.52083333174,
      "d": 148.95833333331393,
      "v": 80
    },
    {
      "midi": 31,
      "hit": false,
      "t": 208494.79166666506,
      "d": 540.625,
      "v": 88
    },
    {
      "midi": 53,
      "hit": false,
      "t": 208680.72916666506,
      "d": 128.64583333334303,
      "v": 92
    },
    {
      "midi": 57,
      "hit": false,
      "t": 208681.7708333317,
      "d": 152.60416666668607,
      "v": 91
    },
    {
      "midi": 65,
      "hit": false,
      "t": 208682.81249999837,
      "d": 191.66666666668607,
      "v": 81
    },
    {
      "midi": 62,
      "hit": false,
      "t": 208683.3333333317,
      "d": 161.45833333334303,
      "v": 90
    },
    {
      "midi": 60,
      "hit": false,
      "t": 208685.41666666506,
      "d": 154.16666666668607,
      "v": 93
    },
    {
      "midi": 43,
      "hit": false,
      "t": 208824.47916666506,
      "d": 191.14583333334303,
      "v": 90
    },
    {
      "midi": 38,
      "hit": false,
      "t": 208955.72916666506,
      "d": 139.0625,
      "v": 75
    },
    {
      "midi": 36,
      "hit": false,
      "t": 209129.6874999984,
      "d": 480.72916666662786,
      "v": 88
    },
    {
      "midi": 62,
      "hit": false,
      "t": 209130.72916666506,
      "d": 190.625,
      "v": 80
    },
    {
      "midi": 64,
      "hit": false,
      "t": 209134.3749999984,
      "d": 186.45833333331393,
      "v": 82
    },
    {
      "midi": 59,
      "hit": false,
      "t": 209135.41666666506,
      "d": 190.10416666665697,
      "v": 84
    },
    {
      "midi": 55,
      "hit": false,
      "t": 209139.5833333317,
      "d": 145.83333333334303,
      "v": 88
    },
    {
      "midi": 67,
      "hit": false,
      "t": 209144.79166666506,
      "d": 155.72916666665697,
      "v": 79
    },
    {
      "midi": 55,
      "hit": false,
      "t": 209439.5833333317,
      "d": 145.83333333331393,
      "v": 94
    },
    {
      "midi": 67,
      "hit": false,
      "t": 209440.62499999837,
      "d": 149.9999999999709,
      "v": 89
    },
    {
      "midi": 64,
      "hit": false,
      "t": 209449.47916666503,
      "d": 138.02083333331393,
      "v": 94
    },
    {
      "midi": 59,
      "hit": false,
      "t": 209450.52083333168,
      "d": 145.3125,
      "v": 95
    },
    {
      "midi": 62,
      "hit": false,
      "t": 209454.68749999834,
      "d": 131.77083333334303,
      "v": 102
    },
    {
      "midi": 38,
      "hit": false,
      "t": 209600.52083333168,
      "d": 164.0625,
      "v": 80
    },
    {
      "midi": 31,
      "hit": false,
      "t": 209739.58333333168,
      "d": 545.8333333332848,
      "v": 86
    },
    {
      "midi": 38,
      "hit": false,
      "t": 209895.83333333168,
      "d": 198.95833333328483,
      "v": 20
    },
    {
      "midi": 65,
      "hit": false,
      "t": 209940.62499999834,
      "d": 209.89583333328483,
      "v": 86
    },
    {
      "midi": 53,
      "hit": false,
      "t": 209941.666666665,
      "d": 142.70833333331393,
      "v": 93
    },
    {
      "midi": 60,
      "hit": false,
      "t": 209945.83333333166,
      "d": 168.7499999999709,
      "v": 94
    },
    {
      "midi": 57,
      "hit": false,
      "t": 209946.354166665,
      "d": 158.33333333328483,
      "v": 94
    },
    {
      "midi": 62,
      "hit": false,
      "t": 209947.39583333166,
      "d": 177.08333333331393,
      "v": 92
    },
    {
      "midi": 43,
      "hit": false,
      "t": 210095.83333333163,
      "d": 184.89583333334303,
      "v": 89
    },
    {
      "midi": 38,
      "hit": false,
      "t": 210220.83333333163,
      "d": 128.64583333334303,
      "v": 72
    },
    {
      "midi": 62,
      "hit": false,
      "t": 210389.58333333163,
      "d": 185.9375,
      "v": 85
    },
    {
      "midi": 36,
      "hit": false,
      "t": 210394.79166666497,
      "d": 510.9374999999709,
      "v": 88
    },
    {
      "midi": 64,
      "hit": false,
      "t": 210395.83333333163,
      "d": 194.79166666668607,
      "v": 83
    },
    {
      "midi": 55,
      "hit": false,
      "t": 210396.35416666497,
      "d": 124.47916666665697,
      "v": 91
    },
    {
      "midi": 59,
      "hit": false,
      "t": 210400.52083333163,
      "d": 180.20833333334303,
      "v": 85
    },
    {
      "midi": 67,
      "hit": false,
      "t": 210401.56249999828,
      "d": 158.85416666668607,
      "v": 84
    },
    {
      "midi": 67,
      "hit": false,
      "t": 210719.79166666497,
      "d": 146.8749999999709,
      "v": 91
    },
    {
      "midi": 55,
      "hit": false,
      "t": 210724.47916666497,
      "d": 116.14583333331393,
      "v": 97
    },
    {
      "midi": 59,
      "hit": false,
      "t": 210725.52083333163,
      "d": 159.89583333331393,
      "v": 100
    },
    {
      "midi": 64,
      "hit": false,
      "t": 210726.56249999828,
      "d": 139.0625,
      "v": 99
    },
    {
      "midi": 62,
      "hit": false,
      "t": 210734.37499999828,
      "d": 136.45833333331393,
      "v": 102
    },
    {
      "midi": 38,
      "hit": false,
      "t": 210890.62499999828,
      "d": 194.79166666665697,
      "v": 80
    },
    {
      "midi": 31,
      "hit": false,
      "t": 211034.37499999828,
      "d": 524.9999999999418,
      "v": 86
    },
    {
      "midi": 53,
      "hit": false,
      "t": 211200.5208333316,
      "d": 185.9374999999709,
      "v": 91
    },
    {
      "midi": 57,
      "hit": false,
      "t": 211201.56249999825,
      "d": 163.02083333334303,
      "v": 91
    },
    {
      "midi": 65,
      "hit": false,
      "t": 211202.6041666649,
      "d": 213.02083333331393,
      "v": 84
    },
    {
      "midi": 62,
      "hit": false,
      "t": 211203.64583333157,
      "d": 181.77083333334303,
      "v": 90
    },
    {
      "midi": 60,
      "hit": false,
      "t": 211205.7291666649,
      "d": 173.95833333334303,
      "v": 93
    },
    {
      "midi": 43,
      "hit": false,
      "t": 211359.37499999825,
      "d": 216.14583333331393,
      "v": 90
    },
    {
      "midi": 38,
      "hit": false,
      "t": 211510.41666666488,
      "d": 119.27083333334303,
      "v": 82
    },
    {
      "midi": 36,
      "hit": false,
      "t": 211659.37499999822,
      "d": 480.2083333332557,
      "v": 90
    },
    {
      "midi": 55,
      "hit": false,
      "t": 211660.41666666488,
      "d": 135.41666666662786,
      "v": 94
    },
    {
      "midi": 64,
      "hit": false,
      "t": 211664.58333333154,
      "d": 160.9374999999709,
      "v": 78
    },
    {
      "midi": 67,
      "hit": false,
      "t": 211665.6249999982,
      "d": 149.9999999999709,
      "v": 89
    },
    {
      "midi": 62,
      "hit": false,
      "t": 211666.66666666485,
      "d": 164.0625,
      "v": 85
    },
    {
      "midi": 59,
      "hit": false,
      "t": 211667.7083333315,
      "d": 171.875,
      "v": 85
    },
    {
      "midi": 67,
      "hit": false,
      "t": 211963.54166666485,
      "d": 165.10416666662786,
      "v": 94
    },
    {
      "midi": 62,
      "hit": false,
      "t": 211969.79166666485,
      "d": 156.77083333331393,
      "v": 93
    },
    {
      "midi": 64,
      "hit": false,
      "t": 211969.79166666485,
      "d": 157.8124999999709,
      "v": 86
    },
    {
      "midi": 59,
      "hit": false,
      "t": 211974.47916666485,
      "d": 159.89583333328483,
      "v": 94
    },
    {
      "midi": 55,
      "hit": false,
      "t": 211975.5208333315,
      "d": 134.89583333334303,
      "v": 97
    },
    {
      "midi": 38,
      "hit": false,
      "t": 212125.5208333315,
      "d": 204.16666666665697,
      "v": 82
    },
    {
      "midi": 31,
      "hit": false,
      "t": 212263.54166666482,
      "d": 516.145833333343,
      "v": 86
    },
    {
      "midi": 53,
      "hit": false,
      "t": 212425.5208333315,
      "d": 128.1249999999709,
      "v": 89
    },
    {
      "midi": 57,
      "hit": false,
      "t": 212425.5208333315,
      "d": 138.02083333331393,
      "v": 88
    },
    {
      "midi": 65,
      "hit": false,
      "t": 212426.56249999817,
      "d": 196.875,
      "v": 80
    },
    {
      "midi": 60,
      "hit": false,
      "t": 212430.72916666482,
      "d": 138.02083333334303,
      "v": 90
    },
    {
      "midi": 62,
      "hit": false,
      "t": 212430.72916666482,
      "d": 163.02083333334303,
      "v": 88
    },
    {
      "midi": 43,
      "hit": false,
      "t": 212583.3333333315,
      "d": 206.25,
      "v": 90
    },
    {
      "midi": 38,
      "hit": false,
      "t": 212704.68749999817,
      "d": 129.6875,
      "v": 79
    },
    {
      "midi": 64,
      "hit": false,
      "t": 212884.37499999817,
      "d": 136.45833333331393,
      "v": 73
    },
    {
      "midi": 55,
      "hit": false,
      "t": 212885.41666666482,
      "d": 134.375,
      "v": 87
    },
    {
      "midi": 59,
      "hit": false,
      "t": 212885.41666666482,
      "d": 154.16666666665697,
      "v": 82
    },
    {
      "midi": 62,
      "hit": false,
      "t": 212887.49999999817,
      "d": 157.29166666665697,
      "v": 88
    },
    {
      "midi": 36,
      "hit": false,
      "t": 212888.54166666482,
      "d": 481.25,
      "v": 84
    },
    {
      "midi": 64,
      "hit": false,
      "t": 213223.43749999817,
      "d": 126.04166666662786,
      "v": 95
    },
    {
      "midi": 62,
      "hit": false,
      "t": 213224.47916666482,
      "d": 134.89583333331393,
      "v": 98
    },
    {
      "midi": 59,
      "hit": false,
      "t": 213225.52083333148,
      "d": 139.0625,
      "v": 98
    },
    {
      "midi": 67,
      "hit": false,
      "t": 213228.64583333148,
      "d": 105.72916666665697,
      "v": 94
    },
    {
      "midi": 55,
      "hit": false,
      "t": 213230.7291666648,
      "d": 98.95833333334303,
      "v": 97
    },
    {
      "midi": 38,
      "hit": false,
      "t": 213374.47916666482,
      "d": 189.0625,
      "v": 77
    },
    {
      "midi": 31,
      "hit": false,
      "t": 213508.33333333148,
      "d": 541.1458333333139,
      "v": 86
    },
    {
      "midi": 57,
      "hit": false,
      "t": 213669.79166666482,
      "d": 158.85416666665697,
      "v": 94
    },
    {
      "midi": 65,
      "hit": false,
      "t": 213670.83333333148,
      "d": 197.91666666665697,
      "v": 85
    },
    {
      "midi": 53,
      "hit": false,
      "t": 213674.47916666482,
      "d": 129.16666666665697,
      "v": 90
    },
    {
      "midi": 60,
      "hit": false,
      "t": 213675.52083333148,
      "d": 163.02083333331393,
      "v": 92
    },
    {
      "midi": 62,
      "hit": false,
      "t": 213679.68749999814,
      "d": 164.0625,
      "v": 88
    },
    {
      "midi": 43,
      "hit": false,
      "t": 213829.68749999814,
      "d": 204.6875,
      "v": 85
    },
    {
      "midi": 38,
      "hit": false,
      "t": 213969.7916666648,
      "d": 129.6875,
      "v": 77
    },
    {
      "midi": 62,
      "hit": false,
      "t": 214114.58333333145,
      "d": 144.79166666665697,
      "v": 75
    },
    {
      "midi": 64,
      "hit": false,
      "t": 214119.7916666648,
      "d": 159.89583333331393,
      "v": 74
    },
    {
      "midi": 55,
      "hit": false,
      "t": 214120.83333333145,
      "d": 128.64583333331393,
      "v": 86
    },
    {
      "midi": 59,
      "hit": false,
      "t": 214120.83333333145,
      "d": 159.89583333331393,
      "v": 79
    },
    {
      "midi": 67,
      "hit": false,
      "t": 214123.4374999981,
      "d": 141.14583333334303,
      "v": 79
    },
    {
      "midi": 36,
      "hit": false,
      "t": 214124.47916666477,
      "d": 491.1458333332848,
      "v": 90
    },
    {
      "midi": 64,
      "hit": false,
      "t": 214448.4374999981,
      "d": 128.1249999999418,
      "v": 91
    },
    {
      "midi": 59,
      "hit": false,
      "t": 214449.47916666477,
      "d": 120.3124999999709,
      "v": 91
    },
    {
      "midi": 55,
      "hit": false,
      "t": 214453.64583333142,
      "d": 95.83333333331393,
      "v": 97
    },
    {
      "midi": 62,
      "hit": false,
      "t": 214454.68749999808,
      "d": 119.79166666665697,
      "v": 101
    },
    {
      "midi": 67,
      "hit": false,
      "t": 214455.72916666474,
      "d": 119.79166666665697,
      "v": 94
    },
    {
      "midi": 38,
      "hit": false,
      "t": 214614.5833333314,
      "d": 193.75,
      "v": 80
    },
    {
      "midi": 31,
      "hit": false,
      "t": 214759.37499999805,
      "d": 524.9999999999709,
      "v": 90
    },
    {
      "midi": 53,
      "hit": false,
      "t": 214934.37499999805,
      "d": 110.41666666662786,
      "v": 84
    },
    {
      "midi": 65,
      "hit": false,
      "t": 214935.4166666647,
      "d": 178.1249999999709,
      "v": 82
    },
    {
      "midi": 57,
      "hit": false,
      "t": 214939.58333333136,
      "d": 134.89583333331393,
      "v": 94
    },
    {
      "midi": 62,
      "hit": false,
      "t": 214940.62499999802,
      "d": 157.8125,
      "v": 92
    },
    {
      "midi": 60,
      "hit": false,
      "t": 214941.66666666468,
      "d": 141.66666666668607,
      "v": 97
    },
    {
      "midi": 43,
      "hit": false,
      "t": 215079.68749999802,
      "d": 194.79166666665697,
      "v": 90
    },
    {
      "midi": 38,
      "hit": false,
      "t": 215214.58333333133,
      "d": 105.20833333334303,
      "v": 72
    },
    {
      "midi": 59,
      "hit": false,
      "t": 215364.58333333133,
      "d": 169.79166666665697,
      "v": 84
    },
    {
      "midi": 67,
      "hit": false,
      "t": 215369.79166666468,
      "d": 159.89583333331393,
      "v": 84
    },
    {
      "midi": 64,
      "hit": false,
      "t": 215370.83333333133,
      "d": 159.89583333331393,
      "v": 78
    },
    {
      "midi": 36,
      "hit": false,
      "t": 215371.35416666468,
      "d": 483.3333333332848,
      "v": 90
    },
    {
      "midi": 55,
      "hit": false,
      "t": 215372.39583333133,
      "d": 122.39583333331393,
      "v": 89
    },
    {
      "midi": 62,
      "hit": false,
      "t": 215373.437499998,
      "d": 151.04166666665697,
      "v": 88
    },
    {
      "midi": 67,
      "hit": false,
      "t": 215674.47916666465,
      "d": 145.3125,
      "v": 90
    },
    {
      "midi": 62,
      "hit": false,
      "t": 215679.687499998,
      "d": 141.14583333331393,
      "v": 97
    },
    {
      "midi": 64,
      "hit": false,
      "t": 215680.72916666465,
      "d": 128.64583333334303,
      "v": 91
    },
    {
      "midi": 59,
      "hit": false,
      "t": 215684.374999998,
      "d": 146.35416666662786,
      "v": 96
    },
    {
      "midi": 55,
      "hit": false,
      "t": 215685.41666666465,
      "d": 119.27083333334303,
      "v": 97
    },
    {
      "midi": 38,
      "hit": false,
      "t": 215829.68749999796,
      "d": 193.7499999999709,
      "v": 82
    },
    {
      "midi": 31,
      "hit": false,
      "t": 215969.79166666462,
      "d": 529.6874999999418,
      "v": 88
    },
    {
      "midi": 53,
      "hit": false,
      "t": 216124.4791666646,
      "d": 134.89583333331393,
      "v": 90
    },
    {
      "midi": 65,
      "hit": false,
      "t": 216125.52083333125,
      "d": 198.95833333331393,
      "v": 80
    },
    {
      "midi": 57,
      "hit": false,
      "t": 216126.5624999979,
      "d": 153.125,
      "v": 91
    },
    {
      "midi": 62,
      "hit": false,
      "t": 216129.6874999979,
      "d": 169.79166666665697,
      "v": 90
    },
    {
      "midi": 60,
      "hit": false,
      "t": 216134.3749999979,
      "d": 156.25,
      "v": 94
    },
    {
      "midi": 43,
      "hit": false,
      "t": 216289.58333333125,
      "d": 210.9374999999709,
      "v": 90
    },
    {
      "midi": 38,
      "hit": false,
      "t": 216424.47916666456,
      "d": 130.20833333331393,
      "v": 71
    },
    {
      "midi": 62,
      "hit": false,
      "t": 216579.68749999788,
      "d": 184.89583333325572,
      "v": 86
    },
    {
      "midi": 36,
      "hit": false,
      "t": 216584.37499999788,
      "d": 495.3124999999418,
      "v": 90
    },
    {
      "midi": 67,
      "hit": false,
      "t": 216589.5833333312,
      "d": 154.16666666662786,
      "v": 84
    },
    {
      "midi": 55,
      "hit": false,
      "t": 216590.62499999785,
      "d": 148.95833333331393,
      "v": 95
    },
    {
      "midi": 59,
      "hit": false,
      "t": 216591.6666666645,
      "d": 178.1249999999709,
      "v": 91
    },
    {
      "midi": 64,
      "hit": false,
      "t": 216592.70833333116,
      "d": 156.77083333331393,
      "v": 86
    },
    {
      "midi": 67,
      "hit": false,
      "t": 216889.58333333113,
      "d": 140.10416666668607,
      "v": 88
    },
    {
      "midi": 64,
      "hit": false,
      "t": 216889.58333333113,
      "d": 146.875,
      "v": 86
    },
    {
      "midi": 62,
      "hit": false,
      "t": 216894.79166666447,
      "d": 140.625,
      "v": 101
    },
    {
      "midi": 55,
      "hit": false,
      "t": 216895.83333333113,
      "d": 138.54166666668607,
      "v": 95
    },
    {
      "midi": 59,
      "hit": false,
      "t": 216899.47916666447,
      "d": 155.20833333334303,
      "v": 97
    },
    {
      "midi": 38,
      "hit": false,
      "t": 217049.47916666447,
      "d": 183.85416666665697,
      "v": 84
    },
    {
      "midi": 31,
      "hit": false,
      "t": 217174.47916666447,
      "d": 523.9583333332848,
      "v": 86
    },
    {
      "midi": 53,
      "hit": false,
      "t": 217349.47916666447,
      "d": 119.27083333328483,
      "v": 92
    },
    {
      "midi": 65,
      "hit": false,
      "t": 217350.52083333113,
      "d": 178.1249999999418,
      "v": 78
    },
    {
      "midi": 62,
      "hit": false,
      "t": 217351.5624999978,
      "d": 161.97916666662786,
      "v": 89
    },
    {
      "midi": 60,
      "hit": false,
      "t": 217352.60416666445,
      "d": 145.83333333331393,
      "v": 94
    },
    {
      "midi": 57,
      "hit": false,
      "t": 217353.6458333311,
      "d": 125,
      "v": 93
    },
    {
      "midi": 43,
      "hit": false,
      "t": 217493.74999999776,
      "d": 194.79166666665697,
      "v": 86
    },
    {
      "midi": 38,
      "hit": false,
      "t": 217602.60416666442,
      "d": 141.14583333334303,
      "v": 63
    },
    {
      "midi": 36,
      "hit": false,
      "t": 217778.6458333311,
      "d": 444.79166666668607,
      "v": 86
    },
    {
      "midi": 67,
      "hit": false,
      "t": 217794.79166666445,
      "d": 157.8125,
      "v": 76
    },
    {
      "midi": 62,
      "hit": false,
      "t": 217795.8333333311,
      "d": 172.91666666668607,
      "v": 86
    },
    {
      "midi": 59,
      "hit": false,
      "t": 217796.35416666445,
      "d": 186.97916666668607,
      "v": 85
    },
    {
      "midi": 55,
      "hit": false,
      "t": 217797.3958333311,
      "d": 125,
      "v": 88
    },
    {
      "midi": 64,
      "hit": false,
      "t": 217798.43749999776,
      "d": 180.20833333337214,
      "v": 79
    },
    {
      "midi": 62,
      "hit": false,
      "t": 218108.33333333113,
      "d": 130.20833333334303,
      "v": 97
    },
    {
      "midi": 67,
      "hit": false,
      "t": 218109.3749999978,
      "d": 123.95833333334303,
      "v": 89
    },
    {
      "midi": 55,
      "hit": false,
      "t": 218114.58333333113,
      "d": 98.95833333331393,
      "v": 97
    },
    {
      "midi": 59,
      "hit": false,
      "t": 218114.58333333113,
      "d": 132.8125,
      "v": 96
    },
    {
      "midi": 64,
      "hit": false,
      "t": 218115.6249999978,
      "d": 122.91666666668607,
      "v": 97
    },
    {
      "midi": 38,
      "hit": false,
      "t": 218267.70833333113,
      "d": 180.72916666665697,
      "v": 80
    },
    {
      "midi": 31,
      "hit": false,
      "t": 218393.7499999978,
      "d": 544.7916666666279,
      "v": 86
    },
    {
      "midi": 57,
      "hit": false,
      "t": 218572.3958333311,
      "d": 171.35416666665697,
      "v": 86
    },
    {
      "midi": 65,
      "hit": false,
      "t": 218577.60416666445,
      "d": 216.14583333331393,
      "v": 78
    },
    {
      "midi": 60,
      "hit": false,
      "t": 218578.6458333311,
      "d": 184.89583333331393,
      "v": 94
    },
    {
      "midi": 53,
      "hit": false,
      "t": 218579.68749999776,
      "d": 158.85416666665697,
      "v": 87
    },
    {
      "midi": 62,
      "hit": false,
      "t": 218582.81249999776,
      "d": 190.625,
      "v": 89
    },
    {
      "midi": 43,
      "hit": false,
      "t": 218744.79166666442,
      "d": 183.85416666665697,
      "v": 81
    },
    {
      "midi": 38,
      "hit": false,
      "t": 218863.54166666442,
      "d": 119.79166666665697,
      "v": 64
    },
    {
      "midi": 36,
      "hit": false,
      "t": 219033.33333333107,
      "d": 474.47916666659876,
      "v": 86
    },
    {
      "midi": 55,
      "hit": false,
      "t": 219038.54166666442,
      "d": 169.27083333331393,
      "v": 87
    },
    {
      "midi": 59,
      "hit": false,
      "t": 219039.58333333107,
      "d": 178.125,
      "v": 84
    },
    {
      "midi": 62,
      "hit": false,
      "t": 219040.62499999773,
      "d": 192.70833333334303,
      "v": 85
    },
    {
      "midi": 64,
      "hit": false,
      "t": 219043.74999999773,
      "d": 209.89583333334303,
      "v": 76
    },
    {
      "midi": 55,
      "hit": false,
      "t": 219373.43749999773,
      "d": 95.3124999999709,
      "v": 94
    },
    {
      "midi": 67,
      "hit": false,
      "t": 219374.4791666644,
      "d": 120.3124999999709,
      "v": 91
    },
    {
      "midi": 59,
      "hit": false,
      "t": 219375.52083333104,
      "d": 113.02083333331393,
      "v": 92
    },
    {
      "midi": 62,
      "hit": false,
      "t": 219378.64583333104,
      "d": 115.10416666665697,
      "v": 98
    },
    {
      "midi": 64,
      "hit": false,
      "t": 219383.33333333104,
      "d": 112.4999999999709,
      "v": 102
    },
    {
      "midi": 38,
      "hit": false,
      "t": 219503.64583333101,
      "d": 194.79166666665697,
      "v": 79
    },
    {
      "midi": 31,
      "hit": false,
      "t": 219643.74999999767,
      "d": 529.6875,
      "v": 86
    },
    {
      "midi": 53,
      "hit": false,
      "t": 219823.43749999767,
      "d": 130.20833333331393,
      "v": 92
    },
    {
      "midi": 57,
      "hit": false,
      "t": 219827.60416666433,
      "d": 135.9375,
      "v": 97
    },
    {
      "midi": 65,
      "hit": false,
      "t": 219828.645833331,
      "d": 175.0000000000291,
      "v": 79
    },
    {
      "midi": 62,
      "hit": false,
      "t": 219829.68749999764,
      "d": 154.6875000000291,
      "v": 92
    },
    {
      "midi": 60,
      "hit": false,
      "t": 219832.81249999764,
      "d": 135.9375000000291,
      "v": 94
    },
    {
      "midi": 43,
      "hit": false,
      "t": 219983.33333333101,
      "d": 185.41666666665697,
      "v": 89
    },
    {
      "midi": 38,
      "hit": false,
      "t": 220108.33333333101,
      "d": 120.3125,
      "v": 83
    },
    {
      "midi": 62,
      "hit": false,
      "t": 220278.64583333101,
      "d": 179.16666666662786,
      "v": 90
    },
    {
      "midi": 64,
      "hit": false,
      "t": 220279.68749999767,
      "d": 168.7499999999709,
      "v": 86
    },
    {
      "midi": 55,
      "hit": false,
      "t": 220280.72916666433,
      "d": 117.70833333331393,
      "v": 91
    },
    {
      "midi": 36,
      "hit": false,
      "t": 220281.770833331,
      "d": 442.7083333332848,
      "v": 90
    },
    {
      "midi": 67,
      "hit": false,
      "t": 220283.333333331,
      "d": 160.41666666665697,
      "v": 81
    },
    {
      "midi": 59,
      "hit": false,
      "t": 220284.37499999764,
      "d": 165.10416666665697,
      "v": 88
    },
    {
      "midi": 64,
      "hit": false,
      "t": 220593.74999999764,
      "d": 129.6874999999709,
      "v": 86
    },
    {
      "midi": 67,
      "hit": false,
      "t": 220594.7916666643,
      "d": 133.85416666662786,
      "v": 81
    },
    {
      "midi": 55,
      "hit": false,
      "t": 220598.43749999764,
      "d": 109.89583333331393,
      "v": 93
    },
    {
      "midi": 59,
      "hit": false,
      "t": 220599.4791666643,
      "d": 130.20833333328483,
      "v": 92
    },
    {
      "midi": 62,
      "hit": false,
      "t": 220603.64583333096,
      "d": 115.10416666665697,
      "v": 101
    },
    {
      "midi": 38,
      "hit": false,
      "t": 220753.64583333093,
      "d": 184.89583333331393,
      "v": 80
    },
    {
      "midi": 31,
      "hit": false,
      "t": 220878.64583333093,
      "d": 540.1041666665988,
      "v": 86
    },
    {
      "midi": 57,
      "hit": false,
      "t": 221053.6458333309,
      "d": 165.10416666662786,
      "v": 91
    },
    {
      "midi": 65,
      "hit": false,
      "t": 221058.3333333309,
      "d": 199.9999999999709,
      "v": 77
    },
    {
      "midi": 62,
      "hit": false,
      "t": 221059.37499999756,
      "d": 179.16666666662786,
      "v": 88
    },
    {
      "midi": 53,
      "hit": false,
      "t": 221060.4166666642,
      "d": 147.91666666665697,
      "v": 87
    },
    {
      "midi": 60,
      "hit": false,
      "t": 221061.45833333087,
      "d": 171.8749999999709,
      "v": 93
    },
    {
      "midi": 43,
      "hit": false,
      "t": 221219.79166666418,
      "d": 223.95833333334303,
      "v": 90
    },
    {
      "midi": 38,
      "hit": false,
      "t": 221348.43749999753,
      "d": 140.10416666665697,
      "v": 77
    },
    {
      "midi": 59,
      "hit": false,
      "t": 221508.33333333084,
      "d": 146.35416666659876,
      "v": 73
    },
    {
      "midi": 62,
      "hit": false,
      "t": 221509.3749999975,
      "d": 139.0624999999418,
      "v": 73
    },
    {
      "midi": 55,
      "hit": false,
      "t": 221513.54166666415,
      "d": 130.20833333328483,
      "v": 82
    },
    {
      "midi": 67,
      "hit": false,
      "t": 221518.74999999747,
      "d": 134.89583333331393,
      "v": 84
    },
    {
      "midi": 64,
      "hit": false,
      "t": 221519.79166666412,
      "d": 124.9999999999709,
      "v": 69
    },
    {
      "midi": 36,
      "hit": false,
      "t": 221528.64583333078,
      "d": 489.0624999999418,
      "v": 86
    },
    {
      "midi": 67,
      "hit": false,
      "t": 221818.74999999744,
      "d": 140.6249999999418,
      "v": 87
    },
    {
      "midi": 62,
      "hit": false,
      "t": 221823.43749999744,
      "d": 145.3124999999418,
      "v": 97
    },
    {
      "midi": 64,
      "hit": false,
      "t": 221824.4791666641,
      "d": 144.27083333328483,
      "v": 88
    },
    {
      "midi": 59,
      "hit": false,
      "t": 221828.64583333075,
      "d": 149.9999999999709,
      "v": 98
    },
    {
      "midi": 55,
      "hit": false,
      "t": 221829.6874999974,
      "d": 128.64583333331393,
      "v": 98
    },
    {
      "midi": 38,
      "hit": false,
      "t": 221978.64583333072,
      "d": 193.75,
      "v": 79
    },
    {
      "midi": 31,
      "hit": false,
      "t": 222113.54166666407,
      "d": 530.2083333333139,
      "v": 86
    },
    {
      "midi": 62,
      "hit": false,
      "t": 222258.33333333072,
      "d": 189.0624999999709,
      "v": 84
    },
    {
      "midi": 65,
      "hit": false,
      "t": 222259.37499999738,
      "d": 208.33333333331393,
      "v": 84
    },
    {
      "midi": 57,
      "hit": false,
      "t": 222260.41666666404,
      "d": 157.29166666665697,
      "v": 86
    },
    {
      "midi": 53,
      "hit": false,
      "t": 222263.54166666404,
      "d": 150,
      "v": 87
    },
    {
      "midi": 60,
      "hit": false,
      "t": 222263.54166666404,
      "d": 173.95833333331393,
      "v": 90
    },
    {
      "midi": 43,
      "hit": false,
      "t": 222433.3333333307,
      "d": 209.3750000000291,
      "v": 89
    },
    {
      "midi": 38,
      "hit": false,
      "t": 222562.49999999738,
      "d": 130.20833333334303,
      "v": 72
    },
    {
      "midi": 62,
      "hit": false,
      "t": 222707.81249999738,
      "d": 184.89583333334303,
      "v": 85
    },
    {
      "midi": 55,
      "hit": false,
      "t": 222713.54166666404,
      "d": 144.27083333334303,
      "v": 82
    },
    {
      "midi": 59,
      "hit": false,
      "t": 222713.54166666404,
      "d": 173.95833333334303,
      "v": 79
    },
    {
      "midi": 64,
      "hit": false,
      "t": 222717.7083333307,
      "d": 200.0000000000291,
      "v": 77
    },
    {
      "midi": 36,
      "hit": false,
      "t": 222722.3958333307,
      "d": 480.20833333337214,
      "v": 86
    },
    {
      "midi": 64,
      "hit": false,
      "t": 223027.60416666407,
      "d": 140.10416666662786,
      "v": 77
    },
    {
      "midi": 55,
      "hit": false,
      "t": 223033.33333333072,
      "d": 119.27083333331393,
      "v": 97
    },
    {
      "midi": 67,
      "hit": false,
      "t": 223033.33333333072,
      "d": 144.27083333331393,
      "v": 94
    },
    {
      "midi": 59,
      "hit": false,
      "t": 223034.37499999738,
      "d": 158.33333333334303,
      "v": 94
    },
    {
      "midi": 62,
      "hit": false,
      "t": 223042.70833333072,
      "d": 140.625,
      "v": 102
    },
    {
      "midi": 38,
      "hit": false,
      "t": 223182.81249999738,
      "d": 179.6875,
      "v": 72
    },
    {
      "midi": 31,
      "hit": false,
      "t": 223317.70833333072,
      "d": 535.9374999999709,
      "v": 76
    },
    {
      "midi": 60,
      "hit": false,
      "t": 223497.39583333072,
      "d": 149.9999999999709,
      "v": 85
    },
    {
      "midi": 65,
      "hit": false,
      "t": 223498.43749999738,
      "d": 189.0625,
      "v": 63
    },
    {
      "midi": 57,
      "hit": false,
      "t": 223499.47916666404,
      "d": 143.22916666665697,
      "v": 80
    },
    {
      "midi": 53,
      "hit": false,
      "t": 223502.60416666404,
      "d": 130.20833333331393,
      "v": 78
    },
    {
      "midi": 62,
      "hit": false,
      "t": 223503.6458333307,
      "d": 158.85416666668607,
      "v": 80
    },
    {
      "midi": 43,
      "hit": false,
      "t": 223652.60416666404,
      "d": 200,
      "v": 72
    },
    {
      "midi": 38,
      "hit": false,
      "t": 223782.81249999738,
      "d": 129.6874999999709,
      "v": 68
    },
    {
      "midi": 36,
      "hit": false,
      "t": 223952.604166664,
      "d": 480.20833333337214,
      "v": 79
    },
    {
      "midi": 62,
      "hit": false,
      "t": 223954.68749999732,
      "d": 138.02083333334303,
      "v": 73
    },
    {
      "midi": 67,
      "hit": false,
      "t": 223958.33333333067,
      "d": 135.41666666665697,
      "v": 72
    },
    {
      "midi": 59,
      "hit": false,
      "t": 223958.33333333067,
      "d": 144.27083333334303,
      "v": 72
    },
    {
      "midi": 55,
      "hit": false,
      "t": 223959.37499999732,
      "d": 128.125,
      "v": 80
    },
    {
      "midi": 64,
      "hit": false,
      "t": 223960.41666666398,
      "d": 136.97916666668607,
      "v": 67
    },
    {
      "midi": 62,
      "hit": false,
      "t": 224257.81249999735,
      "d": 129.6875000000291,
      "v": 85
    },
    {
      "midi": 64,
      "hit": false,
      "t": 224258.3333333307,
      "d": 130.20833333334303,
      "v": 79
    },
    {
      "midi": 59,
      "hit": false,
      "t": 224263.54166666404,
      "d": 114.0625,
      "v": 81
    },
    {
      "midi": 67,
      "hit": false,
      "t": 224263.54166666404,
      "d": 129.16666666665697,
      "v": 89
    },
    {
      "midi": 55,
      "hit": false,
      "t": 224267.7083333307,
      "d": 104.6875,
      "v": 91
    },
    {
      "midi": 38,
      "hit": false,
      "t": 224402.60416666404,
      "d": 200,
      "v": 75
    },
    {
      "midi": 31,
      "hit": false,
      "t": 224563.54166666404,
      "d": 508.85416666662786,
      "v": 82
    },
    {
      "midi": 57,
      "hit": false,
      "t": 224732.81249999738,
      "d": 155.72916666662786,
      "v": 86
    },
    {
      "midi": 53,
      "hit": false,
      "t": 224733.33333333072,
      "d": 140.10416666662786,
      "v": 84
    },
    {
      "midi": 65,
      "hit": false,
      "t": 224737.49999999738,
      "d": 190.10416666662786,
      "v": 79
    },
    {
      "midi": 60,
      "hit": false,
      "t": 224738.54166666404,
      "d": 158.85416666662786,
      "v": 91
    },
    {
      "midi": 62,
      "hit": false,
      "t": 224739.5833333307,
      "d": 168.22916666662786,
      "v": 85
    },
    {
      "midi": 43,
      "hit": false,
      "t": 224862.49999999735,
      "d": 205.20833333331393,
      "v": 78
    },
    {
      "midi": 38,
      "hit": false,
      "t": 225002.604166664,
      "d": 134.89583333331393,
      "v": 72
    },
    {
      "midi": 36,
      "hit": false,
      "t": 225172.39583333067,
      "d": 495.3124999999709,
      "v": 80
    },
    {
      "midi": 62,
      "hit": false,
      "t": 225173.43749999732,
      "d": 154.16666666665697,
      "v": 77
    },
    {
      "midi": 64,
      "hit": false,
      "t": 225174.47916666398,
      "d": 178.125,
      "v": 76
    },
    {
      "midi": 67,
      "hit": false,
      "t": 225178.64583333064,
      "d": 150,
      "v": 76
    },
    {
      "midi": 55,
      "hit": false,
      "t": 225183.33333333064,
      "d": 134.375,
      "v": 82
    },
    {
      "midi": 59,
      "hit": false,
      "t": 225184.3749999973,
      "d": 173.4375000000291,
      "v": 78
    },
    {
      "midi": 67,
      "hit": false,
      "t": 225482.81249999732,
      "d": 129.6874999999709,
      "v": 89
    },
    {
      "midi": 59,
      "hit": false,
      "t": 225487.49999999732,
      "d": 145.3124999999709,
      "v": 94
    },
    {
      "midi": 55,
      "hit": false,
      "t": 225488.54166666398,
      "d": 129.16666666665697,
      "v": 93
    },
    {
      "midi": 64,
      "hit": false,
      "t": 225489.58333333064,
      "d": 132.8125,
      "v": 93
    },
    {
      "midi": 62,
      "hit": false,
      "t": 225493.7499999973,
      "d": 129.6875,
      "v": 96
    },
    {
      "midi": 38,
      "hit": false,
      "t": 225637.4999999973,
      "d": 185.9375000000291,
      "v": 77
    },
    {
      "midi": 31,
      "hit": false,
      "t": 225777.60416666398,
      "d": 499.9999999999418,
      "v": 85
    },
    {
      "midi": 57,
      "hit": false,
      "t": 225927.60416666398,
      "d": 165.10416666662786,
      "v": 90
    },
    {
      "midi": 65,
      "hit": false,
      "t": 225928.64583333064,
      "d": 215.10416666662786,
      "v": 79
    },
    {
      "midi": 62,
      "hit": false,
      "t": 225929.6874999973,
      "d": 193.7499999999709,
      "v": 88
    },
    {
      "midi": 53,
      "hit": false,
      "t": 225930.72916666395,
      "d": 141.66666666665697,
      "v": 88
    },
    {
      "midi": 60,
      "hit": false,
      "t": 225931.7708333306,
      "d": 176.04166666665697,
      "v": 93
    },
    {
      "midi": 43,
      "hit": false,
      "t": 226093.74999999726,
      "d": 189.0625,
      "v": 85
    },
    {
      "midi": 38,
      "hit": false,
      "t": 226207.81249999726,
      "d": 125,
      "v": 67
    },
    {
      "midi": 36,
      "hit": false,
      "t": 226382.81249999726,
      "d": 474.9999999999127,
      "v": 84
    },
    {
      "midi": 64,
      "hit": false,
      "t": 226392.7083333306,
      "d": 159.89583333328483,
      "v": 79
    },
    {
      "midi": 59,
      "hit": false,
      "t": 226393.74999999726,
      "d": 164.0624999999709,
      "v": 85
    },
    {
      "midi": 55,
      "hit": false,
      "t": 226394.79166666392,
      "d": 127.60416666662786,
      "v": 91
    },
    {
      "midi": 67,
      "hit": false,
      "t": 226397.39583333058,
      "d": 145.3124999999709,
      "v": 81
    },
    {
      "midi": 62,
      "hit": false,
      "t": 226399.4791666639,
      "d": 138.02083333331393,
      "v": 88
    },
    {
      "midi": 62,
      "hit": false,
      "t": 226697.39583333058,
      "d": 152.08333333328483,
      "v": 90
    },
    {
      "midi": 64,
      "hit": false,
      "t": 226698.43749999724,
      "d": 152.08333333328483,
      "v": 85
    },
    {
      "midi": 59,
      "hit": false,
      "t": 226702.6041666639,
      "d": 155.72916666662786,
      "v": 94
    },
    {
      "midi": 67,
      "hit": false,
      "t": 226703.64583333055,
      "d": 147.91666666662786,
      "v": 89
    },
    {
      "midi": 55,
      "hit": false,
      "t": 226707.8124999972,
      "d": 139.58333333334303,
      "v": 97
    },
    {
      "midi": 38,
      "hit": false,
      "t": 226848.4374999972,
      "d": 194.27083333331393,
      "v": 68
    },
    {
      "midi": 31,
      "hit": false,
      "t": 226997.39583333052,
      "d": 519.2708333333139,
      "v": 86
    },
    {
      "midi": 57,
      "hit": false,
      "t": 227157.81249999718,
      "d": 153.64583333331393,
      "v": 86
    },
    {
      "midi": 65,
      "hit": false,
      "t": 227158.33333333052,
      "d": 198.4374999999709,
      "v": 78
    },
    {
      "midi": 53,
      "hit": false,
      "t": 227162.49999999718,
      "d": 134.89583333331393,
      "v": 88
    },
    {
      "midi": 62,
      "hit": false,
      "t": 227163.54166666383,
      "d": 172.91666666665697,
      "v": 88
    },
    {
      "midi": 60,
      "hit": false,
      "t": 227164.5833333305,
      "d": 157.8125,
      "v": 91
    },
    {
      "midi": 43,
      "hit": false,
      "t": 227322.3958333305,
      "d": 189.0625,
      "v": 86
    },
    {
      "midi": 38,
      "hit": false,
      "t": 227446.35416666383,
      "d": 110.41666666665697,
      "v": 77
    },
    {
      "midi": 36,
      "hit": false,
      "t": 227611.4583333305,
      "d": 509.8958333332557,
      "v": 90
    },
    {
      "midi": 64,
      "hit": false,
      "t": 227617.7083333305,
      "d": 173.95833333331393,
      "v": 83
    },
    {
      "midi": 59,
      "hit": false,
      "t": 227618.74999999715,
      "d": 177.60416666665697,
      "v": 85
    },
    {
      "midi": 62,
      "hit": false,
      "t": 227619.7916666638,
      "d": 172.91666666665697,
      "v": 84
    },
    {
      "midi": 55,
      "hit": false,
      "t": 227620.83333333046,
      "d": 116.66666666668607,
      "v": 91
    },
    {
      "midi": 67,
      "hit": false,
      "t": 227621.3541666638,
      "d": 150,
      "v": 84
    },
    {
      "midi": 67,
      "hit": false,
      "t": 227922.39583333046,
      "d": 146.35416666662786,
      "v": 89
    },
    {
      "midi": 59,
      "hit": false,
      "t": 227922.39583333046,
      "d": 148.95833333328483,
      "v": 94
    },
    {
      "midi": 55,
      "hit": false,
      "t": 227926.56249999712,
      "d": 134.89583333331393,
      "v": 99
    },
    {
      "midi": 64,
      "hit": false,
      "t": 227927.60416666378,
      "d": 140.10416666665697,
      "v": 94
    },
    {
      "midi": 62,
      "hit": false,
      "t": 227931.77083333043,
      "d": 135.9375,
      "v": 97
    },
    {
      "midi": 38,
      "hit": false,
      "t": 228076.5624999971,
      "d": 180.20833333331393,
      "v": 82
    },
    {
      "midi": 31,
      "hit": false,
      "t": 228221.35416666375,
      "d": 520.3124999999709,
      "v": 82
    },
    {
      "midi": 57,
      "hit": false,
      "t": 228382.81249999706,
      "d": 150,
      "v": 87
    },
    {
      "midi": 62,
      "hit": false,
      "t": 228382.81249999706,
      "d": 183.85416666665697,
      "v": 85
    },
    {
      "midi": 53,
      "hit": false,
      "t": 228383.3333333304,
      "d": 148.4375,
      "v": 86
    },
    {
      "midi": 60,
      "hit": false,
      "t": 228386.4583333304,
      "d": 170.3124999999709,
      "v": 94
    },
    {
      "midi": 65,
      "hit": false,
      "t": 228387.49999999706,
      "d": 204.16666666665697,
      "v": 77
    },
    {
      "midi": 43,
      "hit": false,
      "t": 228541.66666666372,
      "d": 209.89583333334303,
      "v": 90
    },
    {
      "midi": 38,
      "hit": false,
      "t": 228677.60416666372,
      "d": 114.0625,
      "v": 75
    },
    {
      "midi": 62,
      "hit": false,
      "t": 228826.56249999706,
      "d": 141.14583333337214,
      "v": 83
    },
    {
      "midi": 64,
      "hit": false,
      "t": 228831.7708333304,
      "d": 151.04166666668607,
      "v": 78
    },
    {
      "midi": 55,
      "hit": false,
      "t": 228832.81249999706,
      "d": 114.58333333337214,
      "v": 87
    },
    {
      "midi": 59,
      "hit": false,
      "t": 228833.3333333304,
      "d": 159.3750000000291,
      "v": 82
    },
    {
      "midi": 36,
      "hit": false,
      "t": 228836.4583333304,
      "d": 471.35416666665697,
      "v": 87
    },
    {
      "midi": 67,
      "hit": false,
      "t": 228841.66666666375,
      "d": 130.72916666668607,
      "v": 77
    },
    {
      "midi": 62,
      "hit": false,
      "t": 229136.45833333043,
      "d": 131.2499999999709,
      "v": 89
    },
    {
      "midi": 67,
      "hit": false,
      "t": 229137.4999999971,
      "d": 145.83333333331393,
      "v": 90
    },
    {
      "midi": 64,
      "hit": false,
      "t": 229138.54166666375,
      "d": 140.10416666665697,
      "v": 79
    },
    {
      "midi": 59,
      "hit": false,
      "t": 229141.66666666375,
      "d": 135.9375,
      "v": 88
    },
    {
      "midi": 55,
      "hit": false,
      "t": 229146.35416666375,
      "d": 95.3125,
      "v": 97
    },
    {
      "midi": 38,
      "hit": false,
      "t": 229282.81249999706,
      "d": 163.54166666665697,
      "v": 71
    },
    {
      "midi": 31,
      "hit": false,
      "t": 229426.56249999706,
      "d": 526.041666666657,
      "v": 84
    },
    {
      "midi": 57,
      "hit": false,
      "t": 229597.39583333037,
      "d": 154.16666666668607,
      "v": 85
    },
    {
      "midi": 53,
      "hit": false,
      "t": 229602.60416666372,
      "d": 143.75,
      "v": 87
    },
    {
      "midi": 62,
      "hit": false,
      "t": 229607.81249999706,
      "d": 173.95833333331393,
      "v": 84
    },
    {
      "midi": 60,
      "hit": false,
      "t": 229608.3333333304,
      "d": 158.33333333331393,
      "v": 88
    },
    {
      "midi": 65,
      "hit": false,
      "t": 229609.37499999706,
      "d": 192.1874999999709,
      "v": 80
    },
    {
      "midi": 43,
      "hit": false,
      "t": 229752.60416666372,
      "d": 194.79166666665697,
      "v": 83
    },
    {
      "midi": 38,
      "hit": false,
      "t": 229882.81249999703,
      "d": 133.85416666668607,
      "v": 77
    },
    {
      "midi": 36,
      "hit": false,
      "t": 230041.66666666372,
      "d": 491.1458333332557,
      "v": 86
    },
    {
      "midi": 62,
      "hit": false,
      "t": 230046.35416666372,
      "d": 181.2499999999709,
      "v": 86
    },
    {
      "midi": 64,
      "hit": false,
      "t": 230051.56249999706,
      "d": 181.2499999999709,
      "v": 79
    },
    {
      "midi": 55,
      "hit": false,
      "t": 230052.60416666372,
      "d": 118.7499999999709,
      "v": 91
    },
    {
      "midi": 67,
      "hit": false,
      "t": 230053.64583333037,
      "d": 158.85416666665697,
      "v": 84
    },
    {
      "midi": 59,
      "hit": false,
      "t": 230054.68749999703,
      "d": 182.8125,
      "v": 84
    },
    {
      "midi": 67,
      "hit": false,
      "t": 230341.6666666637,
      "d": 145.83333333331393,
      "v": 85
    },
    {
      "midi": 62,
      "hit": false,
      "t": 230351.56249999703,
      "d": 144.79166666662786,
      "v": 99
    },
    {
      "midi": 64,
      "hit": false,
      "t": 230352.6041666637,
      "d": 144.79166666662786,
      "v": 90
    },
    {
      "midi": 55,
      "hit": false,
      "t": 230353.64583333035,
      "d": 132.8125,
      "v": 93
    },
    {
      "midi": 59,
      "hit": false,
      "t": 230356.77083333035,
      "d": 149.9999999999709,
      "v": 94
    },
    {
      "midi": 38,
      "hit": false,
      "t": 230501.56249999697,
      "d": 194.79166666668607,
      "v": 77
    },
    {
      "midi": 31,
      "hit": false,
      "t": 230636.45833333032,
      "d": 531.2500000000291,
      "v": 86
    },
    {
      "midi": 53,
      "hit": false,
      "t": 230756.77083333032,
      "d": 135.9375,
      "v": 44
    },
    {
      "midi": 65,
      "hit": false,
      "t": 230786.45833333032,
      "d": 220.3125000000291,
      "v": 85
    },
    {
      "midi": 62,
      "hit": false,
      "t": 230791.66666666366,
      "d": 190.10416666668607,
      "v": 88
    },
    {
      "midi": 60,
      "hit": false,
      "t": 230792.70833333032,
      "d": 183.85416666668607,
      "v": 93
    },
    {
      "midi": 57,
      "hit": false,
      "t": 230793.74999999697,
      "d": 167.70833333334303,
      "v": 93
    },
    {
      "midi": 43,
      "hit": false,
      "t": 230971.35416666366,
      "d": 201.04166666668607,
      "v": 85
    },
    {
      "midi": 38,
      "hit": false,
      "t": 231111.45833333035,
      "d": 110.9375,
      "v": 75
    },
    {
      "midi": 67,
      "hit": false,
      "t": 231251.562499997,
      "d": 144.79166666662786,
      "v": 81
    },
    {
      "midi": 55,
      "hit": false,
      "t": 231252.60416666366,
      "d": 114.0624999999709,
      "v": 91
    },
    {
      "midi": 64,
      "hit": false,
      "t": 231253.64583333032,
      "d": 147.91666666665697,
      "v": 82
    },
    {
      "midi": 62,
      "hit": false,
      "t": 231254.68749999697,
      "d": 136.97916666665697,
      "v": 89
    },
    {
      "midi": 36,
      "hit": false,
      "t": 231256.77083333032,
      "d": 459.89583333331393,
      "v": 90
    },
    {
      "midi": 59,
      "hit": false,
      "t": 231257.81249999697,
      "d": 148.95833333334303,
      "v": 87
    },
    {
      "midi": 62,
      "hit": false,
      "t": 231546.35416666366,
      "d": 149.9999999999709,
      "v": 90
    },
    {
      "midi": 64,
      "hit": false,
      "t": 231547.39583333032,
      "d": 149.9999999999709,
      "v": 83
    },
    {
      "midi": 67,
      "hit": false,
      "t": 231548.43749999697,
      "d": 149.9999999999709,
      "v": 87
    },
    {
      "midi": 55,
      "hit": false,
      "t": 231551.56249999697,
      "d": 140.10416666665697,
      "v": 98
    },
    {
      "midi": 59,
      "hit": false,
      "t": 231552.60416666363,
      "d": 148.95833333331393,
      "v": 87
    },
    {
      "midi": 38,
      "hit": false,
      "t": 231711.4583333303,
      "d": 190.10416666668607,
      "v": 70
    },
    {
      "midi": 31,
      "hit": false,
      "t": 231837.49999999697,
      "d": 508.33333333334303,
      "v": 86
    },
    {
      "midi": 57,
      "hit": false,
      "t": 231991.66666666363,
      "d": 145.83333333331393,
      "v": 94
    },
    {
      "midi": 53,
      "hit": false,
      "t": 231992.7083333303,
      "d": 134.89583333331393,
      "v": 90
    },
    {
      "midi": 65,
      "hit": false,
      "t": 232001.56249999694,
      "d": 180.20833333337214,
      "v": 80
    },
    {
      "midi": 62,
      "hit": false,
      "t": 232002.6041666636,
      "d": 155.20833333337214,
      "v": 90
    },
    {
      "midi": 60,
      "hit": false,
      "t": 232003.64583333026,
      "d": 148.95833333337214,
      "v": 94
    },
    {
      "midi": 43,
      "hit": false,
      "t": 232142.7083333303,
      "d": 168.7500000000291,
      "v": 90
    },
    {
      "midi": 38,
      "hit": false,
      "t": 232261.45833333032,
      "d": 125,
      "v": 79
    },
    {
      "midi": 55,
      "hit": false,
      "t": 232422.39583333032,
      "d": 143.22916666662786,
      "v": 101
    },
    {
      "midi": 64,
      "hit": false,
      "t": 232422.39583333032,
      "d": 173.95833333331393,
      "v": 93
    },
    {
      "midi": 67,
      "hit": false,
      "t": 232427.60416666366,
      "d": 197.91666666662786,
      "v": 94
    },
    {
      "midi": 36,
      "hit": false,
      "t": 232428.64583333032,
      "d": 177.08333333331393,
      "v": 98
    },
    {
      "midi": 43,
      "hit": false,
      "t": 232429.68749999697,
      "d": 170.83333333331393,
      "v": 99
    },
    {
      "midi": 59,
      "hit": false,
      "t": 232430.72916666363,
      "d": 151.04166666665697,
      "v": 95
    },
    {
      "midi": 62,
      "hit": false,
      "t": 232431.7708333303,
      "d": 164.58333333334303,
      "v": 96
    }
  ]
}