{
  "jsonPath": "Pop/Classic Uk Pop/The Nolans/gotta-pull-myself-together.json",
  "path": "Pop\\Classic Uk Pop\\The Nolans\\Gotta Pull Myself Together.mid",
  "name": "Gotta Pull Myself Together",
  "difficulty": "Advanced",
  "bpm": 100,
  "notes": [
    {
      "midi": 72,
      "hit": false,
      "t": 2000,
      "d": 1500,
      "v": 80
    },
    {
      "midi": 71,
      "hit": false,
      "t": 3500,
      "d": 250,
      "v": 80
    },
    {
      "midi": 72,
      "hit": false,
      "t": 3750,
      "d": 250,
      "v": 80
    },
    {
      "midi": 74,
      "hit": false,
      "t": 4000,
      "d": 500,
      "v": 80
    },
    {
      "midi": 72,
      "hit": false,
      "t": 4500,
      "d": 500,
      "v": 80
    },
    {
      "midi": 72,
      "hit": false,
      "t": 5000,
      "d": 500,
      "v": 80
    },
    {
      "midi": 71,
      "hit": false,
      "t": 5500,
      "d": 500,
      "v": 80
    },
    {
      "midi": 72,
      "hit": false,
      "t": 6000,
      "d": 1500,
      "v": 80
    },
    {
      "midi": 71,
      "hit": false,
      "t": 7500,
      "d": 250,
      "v": 80
    },
    {
      "midi": 72,
      "hit": false,
      "t": 7750,
      "d": 250,
      "v": 80
    },
    {
      "midi": 74,
      "hit": false,
      "t": 8000,
      "d": 500,
      "v": 80
    },
    {
      "midi": 72,
      "hit": false,
      "t": 8500,
      "d": 500,
      "v": 80
    },
    {
      "midi": 72,
      "hit": false,
      "t": 9000,
      "d": 500,
      "v": 80
    },
    {
      "midi": 71,
      "hit": false,
      "t": 9500,
      "d": 500,
      "v": 80
    },
    {
      "midi": 72,
      "hit": false,
      "t": 10000,
      "d": 1500,
      "v": 80
    },
    {
      "midi": 71,
      "hit": false,
      "t": 11500,
      "d": 250,
      "v": 80
    },
    {
      "midi": 72,
      "hit": false,
      "t": 11750,
      "d": 250,
      "v": 80
    },
    {
      "midi": 74,
      "hit": false,
      "t": 12000,
      "d": 500,
      "v": 80
    },
    {
      "midi": 72,
      "hit": false,
      "t": 12500,
      "d": 500,
      "v": 80
    },
    {
      "midi": 72,
      "hit": false,
      "t": 13000,
      "d": 500,
      "v": 80
    },
    {
      "midi": 71,
      "hit": false,
      "t": 13500,
      "d": 500,
      "v": 80
    },
    {
      "midi": 72,
      "hit": false,
      "t": 14000,
      "d": 2000,
      "v": 80
    },
    {
      "midi": 60,
      "hit": false,
      "t": 18000,
      "d": 197.91666666666788,
      "v": 80
    },
    {
      "midi": 64,
      "hit": false,
      "t": 18000,
      "d": 197.91666666666788,
      "v": 80
    },
    {
      "midi": 67,
      "hit": false,
      "t": 18000,
      "d": 197.91666666666788,
      "v": 80
    },
    {
      "midi": 71,
      "hit": false,
      "t": 18000,
      "d": 197.91666666666788,
      "v": 80
    },
    {
      "midi": 60,
      "hit": false,
      "t": 18750,
      "d": 197.91666666666788,
      "v": 80
    },
    {
      "midi": 64,
      "hit": false,
      "t": 18750,
      "d": 197.91666666666788,
      "v": 80
    },
    {
      "midi": 67,
      "hit": false,
      "t": 18750,
      "d": 197.91666666666788,
      "v": 80
    },
    {
      "midi": 71,
      "hit": false,
      "t": 18750,
      "d": 197.91666666666788,
      "v": 80
    },
    {
      "midi": 60,
      "hit": false,
      "t": 20000,
      "d": 197.91666666666788,
      "v": 80
    },
    {
      "midi": 64,
      "hit": false,
      "t": 20000,
      "d": 197.91666666666788,
      "v": 80
    },
    {
      "midi": 67,
      "hit": false,
      "t": 20000,
      "d": 197.91666666666788,
      "v": 80
    },
    {
      "midi": 69,
      "hit": false,
      "t": 20000,
      "d": 197.91666666666788,
      "v": 80
    },
    {
      "midi": 60,
      "hit": false,
      "t": 20750,
      "d": 197.91666666666788,
      "v": 80
    },
    {
      "midi": 64,
      "hit": false,
      "t": 20750,
      "d": 197.91666666666788,
      "v": 80
    },
    {
      "midi": 67,
      "hit": false,
      "t": 20750,
      "d": 197.91666666666788,
      "v": 80
    },
    {
      "midi": 69,
      "hit": false,
      "t": 20750,
      "d": 197.91666666666788,
      "v": 80
    },
    {
      "midi": 62,
      "hit": false,
      "t": 22000,
      "d": 197.91666666666788,
      "v": 80
    },
    {
      "midi": 65,
      "hit": false,
      "t": 22000,
      "d": 197.91666666666788,
      "v": 80
    },
    {
      "midi": 69,
      "hit": false,
      "t": 22000,
      "d": 197.91666666666788,
      "v": 80
    },
    {
      "midi": 72,
      "hit": false,
      "t": 22000,
      "d": 197.91666666666788,
      "v": 80
    },
    {
      "midi": 62,
      "hit": false,
      "t": 22750,
      "d": 197.91666666666788,
      "v": 80
    },
    {
      "midi": 65,
      "hit": false,
      "t": 22750,
      "d": 197.91666666666788,
      "v": 80
    },
    {
      "midi": 69,
      "hit": false,
      "t": 22750,
      "d": 197.91666666666788,
      "v": 80
    },
    {
      "midi": 72,
      "hit": false,
      "t": 22750,
      "d": 197.91666666666788,
      "v": 80
    },
    {
      "midi": 62,
      "hit": false,
      "t": 24000,
      "d": 197.91666666666788,
      "v": 80
    },
    {
      "midi": 65,
      "hit": false,
      "t": 24000,
      "d": 197.91666666666788,
      "v": 80
    },
    {
      "midi": 67,
      "hit": false,
      "t": 24000,
      "d": 197.91666666666788,
      "v": 80
    },
    {
      "midi": 71,
      "hit": false,
      "t": 24000,
      "d": 197.91666666666788,
      "v": 80
    },
    {
      "midi": 62,
      "hit": false,
      "t": 24750,
      "d": 197.91666666666788,
      "v": 80
    },
    {
      "midi": 65,
      "hit": false,
      "t": 24750,
      "d": 197.91666666666788,
      "v": 80
    },
    {
      "midi": 67,
      "hit": false,
      "t": 24750,
      "d": 197.91666666666788,
      "v": 80
    },
    {
      "midi": 71,
      "hit": false,
      "t": 24750,
      "d": 197.91666666666788,
      "v": 80
    },
    {
      "midi": 60,
      "hit": false,
      "t": 26000,
      "d": 197.91666666666788,
      "v": 80
    },
    {
      "midi": 64,
      "hit": false,
      "t": 26000,
      "d": 197.91666666666788,
      "v": 80
    },
    {
      "midi": 67,
      "hit": false,
      "t": 26000,
      "d": 197.91666666666788,
      "v": 80
    },
    {
      "midi": 71,
      "hit": false,
      "t": 26000,
      "d": 197.91666666666788,
      "v": 80
    },
    {
      "midi": 60,
      "hit": false,
      "t": 26750,
      "d": 197.91666666666788,
      "v": 80
    },
    {
      "midi": 64,
      "hit": false,
      "t": 26750,
      "d": 197.91666666666788,
      "v": 80
    },
    {
      "midi": 67,
      "hit": false,
      "t": 26750,
      "d": 197.91666666666788,
      "v": 80
    },
    {
      "midi": 71,
      "hit": false,
      "t": 26750,
      "d": 197.91666666666788,
      "v": 80
    },
    {
      "midi": 60,
      "hit": false,
      "t": 28000,
      "d": 197.91666666666788,
      "v": 80
    },
    {
      "midi": 64,
      "hit": false,
      "t": 28000,
      "d": 197.91666666666788,
      "v": 80
    },
    {
      "midi": 67,
      "hit": false,
      "t": 28000,
      "d": 197.91666666666788,
      "v": 80
    },
    {
      "midi": 69,
      "hit": false,
      "t": 28000,
      "d": 197.91666666666788,
      "v": 80
    },
    {
      "midi": 60,
      "hit": false,
      "t": 28750,
      "d": 197.91666666666788,
      "v": 80
    },
    {
      "midi": 64,
      "hit": false,
      "t": 28750,
      "d": 197.91666666666788,
      "v": 80
    },
    {
      "midi": 67,
      "hit": false,
      "t": 28750,
      "d": 197.91666666666788,
      "v": 80
    },
    {
      "midi": 69,
      "hit": false,
      "t": 28750,
      "d": 197.91666666666788,
      "v": 80
    },
    {
      "midi": 62,
      "hit": false,
      "t": 30000,
      "d": 197.91666666666788,
      "v": 80
    },
    {
      "midi": 65,
      "hit": false,
      "t": 30000,
      "d": 197.91666666666788,
      "v": 80
    },
    {
      "midi": 69,
      "hit": false,
      "t": 30000,
      "d": 197.91666666666788,
      "v": 80
    },
    {
      "midi": 72,
      "hit": false,
      "t": 30000,
      "d": 197.91666666666788,
      "v": 80
    },
    {
      "midi": 62,
      "hit": false,
      "t": 30750,
      "d": 197.91666666666788,
      "v": 80
    },
    {
      "midi": 65,
      "hit": false,
      "t": 30750,
      "d": 197.91666666666788,
      "v": 80
    },
    {
      "midi": 69,
      "hit": false,
      "t": 30750,
      "d": 197.91666666666788,
      "v": 80
    },
    {
      "midi": 72,
      "hit": false,
      "t": 30750,
      "d": 197.91666666666788,
      "v": 80
    },
    {
      "midi": 62,
      "hit": false,
      "t": 32000,
      "d": 197.91666666666788,
      "v": 80
    },
    {
      "midi": 65,
      "hit": false,
      "t": 32000,
      "d": 197.91666666666788,
      "v": 80
    },
    {
      "midi": 67,
      "hit": false,
      "t": 32000,
      "d": 197.91666666666788,
      "v": 80
    },
    {
      "midi": 71,
      "hit": false,
      "t": 32000,
      "d": 197.91666666666788,
      "v": 80
    },
    {
      "midi": 62,
      "hit": false,
      "t": 32750,
      "d": 197.91666666666424,
      "v": 80
    },
    {
      "midi": 65,
      "hit": false,
      "t": 32750,
      "d": 197.91666666666424,
      "v": 80
    },
    {
      "midi": 67,
      "hit": false,
      "t": 32750,
      "d": 197.91666666666424,
      "v": 80
    },
    {
      "midi": 71,
      "hit": false,
      "t": 32750,
      "d": 197.91666666666424,
      "v": 80
    },
    {
      "midi": 62,
      "hit": false,
      "t": 33000,
      "d": 197.91666666666424,
      "v": 80
    },
    {
      "midi": 65,
      "hit": false,
      "t": 33000,
      "d": 197.91666666666424,
      "v": 80
    },
    {
      "midi": 67,
      "hit": false,
      "t": 33000,
      "d": 197.91666666666424,
      "v": 80
    },
    {
      "midi": 71,
      "hit": false,
      "t": 33000,
      "d": 197.91666666666424,
      "v": 80
    },
    {
      "midi": 62,
      "hit": false,
      "t": 33250,
      "d": 197.91666666666424,
      "v": 80
    },
    {
      "midi": 65,
      "hit": false,
      "t": 33250,
      "d": 197.91666666666424,
      "v": 80
    },
    {
      "midi": 67,
      "hit": false,
      "t": 33250,
      "d": 197.91666666666424,
      "v": 80
    },
    {
      "midi": 71,
      "hit": false,
      "t": 33250,
      "d": 197.91666666666424,
      "v": 80
    },
    {
      "midi": 62,
      "hit": false,
      "t": 33500,
      "d": 197.91666666666424,
      "v": 80
    },
    {
      "midi": 65,
      "hit": false,
      "t": 33500,
      "d": 197.91666666666424,
      "v": 80
    },
    {
      "midi": 67,
      "hit": false,
      "t": 33500,
      "d": 197.91666666666424,
      "v": 80
    },
    {
      "midi": 71,
      "hit": false,
      "t": 33500,
      "d": 197.91666666666424,
      "v": 80
    },
    {
      "midi": 60,
      "hit": false,
      "t": 34000,
      "d": 197.91666666666424,
      "v": 80
    },
    {
      "midi": 64,
      "hit": false,
      "t": 34000,
      "d": 197.91666666666424,
      "v": 80
    },
    {
      "midi": 67,
      "hit": false,
      "t": 34000,
      "d": 197.91666666666424,
      "v": 80
    },
    {
      "midi": 71,
      "hit": false,
      "t": 34000,
      "d": 197.91666666666424,
      "v": 80
    },
    {
      "midi": 60,
      "hit": false,
      "t": 34750,
      "d": 197.91666666666424,
      "v": 80
    },
    {
      "midi": 64,
      "hit": false,
      "t": 34750,
      "d": 197.91666666666424,
      "v": 80
    },
    {
      "midi": 67,
      "hit": false,
      "t": 34750,
      "d": 197.91666666666424,
      "v": 80
    },
    {
      "midi": 71,
      "hit": false,
      "t": 34750,
      "d": 197.91666666666424,
      "v": 80
    },
    {
      "midi": 60,
      "hit": false,
      "t": 36000,
      "d": 197.91666666666424,
      "v": 80
    },
    {
      "midi": 64,
      "hit": false,
      "t": 36000,
      "d": 197.91666666666424,
      "v": 80
    },
    {
      "midi": 67,
      "hit": false,
      "t": 36000,
      "d": 197.91666666666424,
      "v": 80
    },
    {
      "midi": 69,
      "hit": false,
      "t": 36000,
      "d": 197.91666666666424,
      "v": 80
    },
    {
      "midi": 60,
      "hit": false,
      "t": 36750,
      "d": 197.91666666666424,
      "v": 80
    },
    {
      "midi": 64,
      "hit": false,
      "t": 36750,
      "d": 197.91666666666424,
      "v": 80
    },
    {
      "midi": 67,
      "hit": false,
      "t": 36750,
      "d": 197.91666666666424,
      "v": 80
    },
    {
      "midi": 69,
      "hit": false,
      "t": 36750,
      "d": 197.91666666666424,
      "v": 80
    },
    {
      "midi": 62,
      "hit": false,
      "t": 38000,
      "d": 197.91666666666424,
      "v": 80
    },
    {
      "midi": 65,
      "hit": false,
      "t": 38000,
      "d": 197.91666666666424,
      "v": 80
    },
    {
      "midi": 69,
      "hit": false,
      "t": 38000,
      "d": 197.91666666666424,
      "v": 80
    },
    {
      "midi": 72,
      "hit": false,
      "t": 38000,
      "d": 197.91666666666424,
      "v": 80
    },
    {
      "midi": 62,
      "hit": false,
      "t": 38750,
      "d": 197.91666666666424,
      "v": 80
    },
    {
      "midi": 65,
      "hit": false,
      "t": 38750,
      "d": 197.91666666666424,
      "v": 80
    },
    {
      "midi": 69,
      "hit": false,
      "t": 38750,
      "d": 197.91666666666424,
      "v": 80
    },
    {
      "midi": 72,
      "hit": false,
      "t": 38750,
      "d": 197.91666666666424,
      "v": 80
    },
    {
      "midi": 62,
      "hit": false,
      "t": 40000,
      "d": 197.91666666666424,
      "v": 80
    },
    {
      "midi": 65,
      "hit": false,
      "t": 40000,
      "d": 197.91666666666424,
      "v": 80
    },
    {
      "midi": 67,
      "hit": false,
      "t": 40000,
      "d": 197.91666666666424,
      "v": 80
    },
    {
      "midi": 71,
      "hit": false,
      "t": 40000,
      "d": 197.91666666666424,
      "v": 80
    },
    {
      "midi": 62,
      "hit": false,
      "t": 40750,
      "d": 197.91666666666424,
      "v": 80
    },
    {
      "midi": 65,
      "hit": false,
      "t": 40750,
      "d": 197.91666666666424,
      "v": 80
    },
    {
      "midi": 67,
      "hit": false,
      "t": 40750,
      "d": 197.91666666666424,
      "v": 80
    },
    {
      "midi": 71,
      "hit": false,
      "t": 40750,
      "d": 197.91666666666424,
      "v": 80
    },
    {
      "midi": 60,
      "hit": false,
      "t": 42000,
      "d": 197.91666666666424,
      "v": 80
    },
    {
      "midi": 64,
      "hit": false,
      "t": 42000,
      "d": 197.91666666666424,
      "v": 80
    },
    {
      "midi": 67,
      "hit": false,
      "t": 42000,
      "d": 197.91666666666424,
      "v": 80
    },
    {
      "midi": 71,
      "hit": false,
      "t": 42000,
      "d": 197.91666666666424,
      "v": 80
    },
    {
      "midi": 60,
      "hit": false,
      "t": 42750,
      "d": 197.91666666666424,
      "v": 80
    },
    {
      "midi": 64,
      "hit": false,
      "t": 42750,
      "d": 197.91666666666424,
      "v": 80
    },
    {
      "midi": 67,
      "hit": false,
      "t": 42750,
      "d": 197.91666666666424,
      "v": 80
    },
    {
      "midi": 71,
      "hit": false,
      "t": 42750,
      "d": 197.91666666666424,
      "v": 80
    },
    {
      "midi": 60,
      "hit": false,
      "t": 44000,
      "d": 197.91666666666424,
      "v": 80
    },
    {
      "midi": 64,
      "hit": false,
      "t": 44000,
      "d": 197.91666666666424,
      "v": 80
    },
    {
      "midi": 67,
      "hit": false,
      "t": 44000,
      "d": 197.91666666666424,
      "v": 80
    },
    {
      "midi": 69,
      "hit": false,
      "t": 44000,
      "d": 197.91666666666424,
      "v": 80
    },
    {
      "midi": 60,
      "hit": false,
      "t": 44750,
      "d": 197.91666666666424,
      "v": 80
    },
    {
      "midi": 64,
      "hit": false,
      "t": 44750,
      "d": 197.91666666666424,
      "v": 80
    },
    {
      "midi": 67,
      "hit": false,
      "t": 44750,
      "d": 197.91666666666424,
      "v": 80
    },
    {
      "midi": 69,
      "hit": false,
      "t": 44750,
      "d": 197.91666666666424,
      "v": 80
    },
    {
      "midi": 62,
      "hit": false,
      "t": 46000,
      "d": 197.91666666666424,
      "v": 80
    },
    {
      "midi": 65,
      "hit": false,
      "t": 46000,
      "d": 197.91666666666424,
      "v": 80
    },
    {
      "midi": 69,
      "hit": false,
      "t": 46000,
      "d": 197.91666666666424,
      "v": 80
    },
    {
      "midi": 72,
      "hit": false,
      "t": 46000,
      "d": 197.91666666666424,
      "v": 80
    },
    {
      "midi": 62,
      "hit": false,
      "t": 46750,
      "d": 197.91666666666424,
      "v": 80
    },
    {
      "midi": 65,
      "hit": false,
      "t": 46750,
      "d": 197.91666666666424,
      "v": 80
    },
    {
      "midi": 69,
      "hit": false,
      "t": 46750,
      "d": 197.91666666666424,
      "v": 80
    },
    {
      "midi": 72,
      "hit": false,
      "t": 46750,
      "d": 197.91666666666424,
      "v": 80
    },
    {
      "midi": 62,
      "hit": false,
      "t": 48000,
      "d": 197.91666666666424,
      "v": 80
    },
    {
      "midi": 65,
      "hit": false,
      "t": 48000,
      "d": 197.91666666666424,
      "v": 80
    },
    {
      "midi": 67,
      "hit": false,
      "t": 48000,
      "d": 197.91666666666424,
      "v": 80
    },
    {
      "midi": 71,
      "hit": false,
      "t": 48000,
      "d": 197.91666666666424,
      "v": 80
    },
    {
      "midi": 62,
      "hit": false,
      "t": 48750,
      "d": 197.91666666666424,
      "v": 80
    },
    {
      "midi": 65,
      "hit": false,
      "t": 48750,
      "d": 197.91666666666424,
      "v": 80
    },
    {
      "midi": 67,
      "hit": false,
      "t": 48750,
      "d": 197.91666666666424,
      "v": 80
    },
    {
      "midi": 71,
      "hit": false,
      "t": 48750,
      "d": 197.91666666666424,
      "v": 80
    },
    {
      "midi": 60,
      "hit": false,
      "t": 66000,
      "d": 197.91666666667152,
      "v": 80
    },
    {
      "midi": 64,
      "hit": false,
      "t": 66000,
      "d": 197.91666666667152,
      "v": 80
    },
    {
      "midi": 67,
      "hit": false,
      "t": 66000,
      "d": 197.91666666667152,
      "v": 80
    },
    {
      "midi": 71,
      "hit": false,
      "t": 66000,
      "d": 197.91666666667152,
      "v": 80
    },
    {
      "midi": 60,
      "hit": false,
      "t": 66750,
      "d": 197.91666666667152,
      "v": 80
    },
    {
      "midi": 64,
      "hit": false,
      "t": 66750,
      "d": 197.91666666667152,
      "v": 80
    },
    {
      "midi": 67,
      "hit": false,
      "t": 66750,
      "d": 197.91666666667152,
      "v": 80
    },
    {
      "midi": 71,
      "hit": false,
      "t": 66750,
      "d": 197.91666666667152,
      "v": 80
    },
    {
      "midi": 60,
      "hit": false,
      "t": 68000,
      "d": 197.91666666667152,
      "v": 80
    },
    {
      "midi": 64,
      "hit": false,
      "t": 68000,
      "d": 197.91666666667152,
      "v": 80
    },
    {
      "midi": 67,
      "hit": false,
      "t": 68000,
      "d": 197.91666666667152,
      "v": 80
    },
    {
      "midi": 69,
      "hit": false,
      "t": 68000,
      "d": 197.91666666667152,
      "v": 80
    },
    {
      "midi": 60,
      "hit": false,
      "t": 68750,
      "d": 197.91666666667152,
      "v": 80
    },
    {
      "midi": 64,
      "hit": false,
      "t": 68750,
      "d": 197.91666666667152,
      "v": 80
    },
    {
      "midi": 67,
      "hit": false,
      "t": 68750,
      "d": 197.91666666667152,
      "v": 80
    },
    {
      "midi": 69,
      "hit": false,
      "t": 68750,
      "d": 197.91666666667152,
      "v": 80
    },
    {
      "midi": 62,
      "hit": false,
      "t": 70000,
      "d": 197.91666666667152,
      "v": 80
    },
    {
      "midi": 65,
      "hit": false,
      "t": 70000,
      "d": 197.91666666667152,
      "v": 80
    },
    {
      "midi": 69,
      "hit": false,
      "t": 70000,
      "d": 197.91666666667152,
      "v": 80
    },
    {
      "midi": 72,
      "hit": false,
      "t": 70000,
      "d": 197.91666666667152,
      "v": 80
    },
    {
      "midi": 62,
      "hit": false,
      "t": 70750,
      "d": 197.91666666667152,
      "v": 80
    },
    {
      "midi": 65,
      "hit": false,
      "t": 70750,
      "d": 197.91666666667152,
      "v": 80
    },
    {
      "midi": 69,
      "hit": false,
      "t": 70750,
      "d": 197.91666666667152,
      "v": 80
    },
    {
      "midi": 72,
      "hit": false,
      "t": 70750,
      "d": 197.91666666667152,
      "v": 80
    },
    {
      "midi": 62,
      "hit": false,
      "t": 72000,
      "d": 197.91666666667152,
      "v": 80
    },
    {
      "midi": 65,
      "hit": false,
      "t": 72000,
      "d": 197.91666666667152,
      "v": 80
    },
    {
      "midi": 67,
      "hit": false,
      "t": 72000,
      "d": 197.91666666667152,
      "v": 80
    },
    {
      "midi": 71,
      "hit": false,
      "t": 72000,
      "d": 197.91666666667152,
      "v": 80
    },
    {
      "midi": 62,
      "hit": false,
      "t": 72750,
      "d": 197.91666666667152,
      "v": 80
    },
    {
      "midi": 65,
      "hit": false,
      "t": 72750,
      "d": 197.91666666667152,
      "v": 80
    },
    {
      "midi": 67,
      "hit": false,
      "t": 72750,
      "d": 197.91666666667152,
      "v": 80
    },
    {
      "midi": 71,
      "hit": false,
      "t": 72750,
      "d": 197.91666666667152,
      "v": 80
    },
    {
      "midi": 60,
      "hit": false,
      "t": 74000,
      "d": 197.91666666667152,
      "v": 80
    },
    {
      "midi": 64,
      "hit": false,
      "t": 74000,
      "d": 197.91666666667152,
      "v": 80
    },
    {
      "midi": 67,
      "hit": false,
      "t": 74000,
      "d": 197.91666666667152,
      "v": 80
    },
    {
      "midi": 71,
      "hit": false,
      "t": 74000,
      "d": 197.91666666667152,
      "v": 80
    },
    {
      "midi": 60,
      "hit": false,
      "t": 74750,
      "d": 197.91666666667152,
      "v": 80
    },
    {
      "midi": 64,
      "hit": false,
      "t": 74750,
      "d": 197.91666666667152,
      "v": 80
    },
    {
      "midi": 67,
      "hit": false,
      "t": 74750,
      "d": 197.91666666667152,
      "v": 80
    },
    {
      "midi": 71,
      "hit": false,
      "t": 74750,
      "d": 197.91666666667152,
      "v": 80
    },
    {
      "midi": 60,
      "hit": false,
      "t": 76000,
      "d": 197.91666666667152,
      "v": 80
    },
    {
      "midi": 64,
      "hit": false,
      "t": 76000,
      "d": 197.91666666667152,
      "v": 80
    },
    {
      "midi": 67,
      "hit": false,
      "t": 76000,
      "d": 197.91666666667152,
      "v": 80
    },
    {
      "midi": 69,
      "hit": false,
      "t": 76000,
      "d": 197.91666666667152,
      "v": 80
    },
    {
      "midi": 60,
      "hit": false,
      "t": 76750,
      "d": 197.91666666667152,
      "v": 80
    },
    {
      "midi": 64,
      "hit": false,
      "t": 76750,
      "d": 197.91666666667152,
      "v": 80
    },
    {
      "midi": 67,
      "hit": false,
      "t": 76750,
      "d": 197.91666666667152,
      "v": 80
    },
    {
      "midi": 69,
      "hit": false,
      "t": 76750,
      "d": 197.91666666667152,
      "v": 80
    },
    {
      "midi": 62,
      "hit": false,
      "t": 78000,
      "d": 197.91666666667152,
      "v": 80
    },
    {
      "midi": 65,
      "hit": false,
      "t": 78000,
      "d": 197.91666666667152,
      "v": 80
    },
    {
      "midi": 69,
      "hit": false,
      "t": 78000,
      "d": 197.91666666667152,
      "v": 80
    },
    {
      "midi": 72,
      "hit": false,
      "t": 78000,
      "d": 197.91666666667152,
      "v": 80
    },
    {
      "midi": 62,
      "hit": false,
      "t": 78750,
      "d": 197.91666666667152,
      "v": 80
    },
    {
      "midi": 65,
      "hit": false,
      "t": 78750,
      "d": 197.91666666667152,
      "v": 80
    },
    {
      "midi": 69,
      "hit": false,
      "t": 78750,
      "d": 197.91666666667152,
      "v": 80
    },
    {
      "midi": 72,
      "hit": false,
      "t": 78750,
      "d": 197.91666666667152,
      "v": 80
    },
    {
      "midi": 62,
      "hit": false,
      "t": 80000,
      "d": 197.91666666667152,
      "v": 80
    },
    {
      "midi": 65,
      "hit": false,
      "t": 80000,
      "d": 197.91666666667152,
      "v": 80
    },
    {
      "midi": 67,
      "hit": false,
      "t": 80000,
      "d": 197.91666666667152,
      "v": 80
    },
    {
      "midi": 71,
      "hit": false,
      "t": 80000,
      "d": 197.91666666667152,
      "v": 80
    },
    {
      "midi": 62,
      "hit": false,
      "t": 80750,
      "d": 197.91666666667152,
      "v": 80
    },
    {
      "midi": 65,
      "hit": false,
      "t": 80750,
      "d": 197.91666666667152,
      "v": 80
    },
    {
      "midi": 67,
      "hit": false,
      "t": 80750,
      "d": 197.91666666667152,
      "v": 80
    },
    {
      "midi": 71,
      "hit": false,
      "t": 80750,
      "d": 197.91666666667152,
      "v": 80
    },
    {
      "midi": 67,
      "hit": false,
      "t": 100250,
      "d": 145.83333333332848,
      "v": 80
    },
    {
      "midi": 71,
      "hit": false,
      "t": 100250,
      "d": 145.83333333332848,
      "v": 80
    },
    {
      "midi": 74,
      "hit": false,
      "t": 100250,
      "d": 145.83333333332848,
      "v": 80
    },
    {
      "midi": 76,
      "hit": false,
      "t": 100250,
      "d": 145.83333333332848,
      "v": 80
    },
    {
      "midi": 67,
      "hit": false,
      "t": 100750,
      "d": 197.91666666667152,
      "v": 80
    },
    {
      "midi": 71,
      "hit": false,
      "t": 100750,
      "d": 197.91666666667152,
      "v": 80
    },
    {
      "midi": 74,
      "hit": false,
      "t": 100750,
      "d": 197.91666666667152,
      "v": 80
    },
    {
      "midi": 76,
      "hit": false,
      "t": 100750,
      "d": 197.91666666667152,
      "v": 80
    },
    {
      "midi": 67,
      "hit": false,
      "t": 101000,
      "d": 197.91666666667152,
      "v": 80
    },
    {
      "midi": 69,
      "hit": false,
      "t": 101000,
      "d": 197.91666666667152,
      "v": 80
    },
    {
      "midi": 73,
      "hit": false,
      "t": 101000,
      "d": 197.91666666667152,
      "v": 80
    },
    {
      "midi": 76,
      "hit": false,
      "t": 101000,
      "d": 197.91666666667152,
      "v": 80
    },
    {
      "midi": 67,
      "hit": false,
      "t": 101250,
      "d": 197.91666666667152,
      "v": 80
    },
    {
      "midi": 69,
      "hit": false,
      "t": 101250,
      "d": 197.91666666667152,
      "v": 80
    },
    {
      "midi": 73,
      "hit": false,
      "t": 101250,
      "d": 197.91666666667152,
      "v": 80
    },
    {
      "midi": 76,
      "hit": false,
      "t": 101250,
      "d": 197.91666666667152,
      "v": 80
    },
    {
      "midi": 67,
      "hit": false,
      "t": 101500,
      "d": 197.91666666667152,
      "v": 80
    },
    {
      "midi": 69,
      "hit": false,
      "t": 101500,
      "d": 197.91666666667152,
      "v": 80
    },
    {
      "midi": 73,
      "hit": false,
      "t": 101500,
      "d": 197.91666666667152,
      "v": 80
    },
    {
      "midi": 76,
      "hit": false,
      "t": 101500,
      "d": 197.91666666667152,
      "v": 80
    },
    {
      "midi": 67,
      "hit": false,
      "t": 101750,
      "d": 197.91666666667152,
      "v": 80
    },
    {
      "midi": 69,
      "hit": false,
      "t": 101750,
      "d": 197.91666666667152,
      "v": 80
    },
    {
      "midi": 73,
      "hit": false,
      "t": 101750,
      "d": 197.91666666667152,
      "v": 80
    },
    {
      "midi": 76,
      "hit": false,
      "t": 101750,
      "d": 197.91666666667152,
      "v": 80
    },
    {
      "midi": 69,
      "hit": false,
      "t": 102000,
      "d": 1500,
      "v": 80
    },
    {
      "midi": 81,
      "hit": false,
      "t": 102000,
      "d": 1500,
      "v": 80
    },
    {
      "midi": 71,
      "hit": false,
      "t": 103500,
      "d": 250,
      "v": 80
    },
    {
      "midi": 83,
      "hit": false,
      "t": 103500,
      "d": 250,
      "v": 80
    },
    {
      "midi": 73,
      "hit": false,
      "t": 103750,
      "d": 250,
      "v": 80
    },
    {
      "midi": 85,
      "hit": false,
      "t": 103750,
      "d": 250,
      "v": 80
    },
    {
      "midi": 74,
      "hit": false,
      "t": 104000,
      "d": 500,
      "v": 80
    },
    {
      "midi": 86,
      "hit": false,
      "t": 104000,
      "d": 500,
      "v": 80
    },
    {
      "midi": 73,
      "hit": false,
      "t": 104500,
      "d": 500,
      "v": 80
    },
    {
      "midi": 85,
      "hit": false,
      "t": 104500,
      "d": 500,
      "v": 80
    },
    {
      "midi": 74,
      "hit": false,
      "t": 105000,
      "d": 500,
      "v": 80
    },
    {
      "midi": 86,
      "hit": false,
      "t": 105000,
      "d": 500,
      "v": 80
    },
    {
      "midi": 78,
      "hit": false,
      "t": 105500,
      "d": 500,
      "v": 80
    },
    {
      "midi": 90,
      "hit": false,
      "t": 105500,
      "d": 500,
      "v": 80
    },
    {
      "midi": 67,
      "hit": false,
      "t": 106000,
      "d": 1500,
      "v": 80
    },
    {
      "midi": 79,
      "hit": false,
      "t": 106000,
      "d": 1500,
      "v": 80
    },
    {
      "midi": 78,
      "hit": false,
      "t": 107500,
      "d": 500,
      "v": 80
    },
    {
      "midi": 90,
      "hit": false,
      "t": 107500,
      "d": 500,
      "v": 80
    },
    {
      "midi": 76,
      "hit": false,
      "t": 108000,
      "d": 2000,
      "v": 80
    },
    {
      "midi": 88,
      "hit": false,
      "t": 108000,
      "d": 2000,
      "v": 80
    },
    {
      "midi": 66,
      "hit": false,
      "t": 110000,
      "d": 1500,
      "v": 80
    },
    {
      "midi": 78,
      "hit": false,
      "t": 110000,
      "d": 1500,
      "v": 80
    },
    {
      "midi": 67,
      "hit": false,
      "t": 111500,
      "d": 250,
      "v": 80
    },
    {
      "midi": 79,
      "hit": false,
      "t": 111500,
      "d": 250,
      "v": 80
    },
    {
      "midi": 69,
      "hit": false,
      "t": 111750,
      "d": 250,
      "v": 80
    },
    {
      "midi": 81,
      "hit": false,
      "t": 111750,
      "d": 250,
      "v": 80
    },
    {
      "midi": 71,
      "hit": false,
      "t": 112000,
      "d": 500,
      "v": 80
    },
    {
      "midi": 83,
      "hit": false,
      "t": 112000,
      "d": 500,
      "v": 80
    },
    {
      "midi": 70,
      "hit": false,
      "t": 112500,
      "d": 500,
      "v": 80
    },
    {
      "midi": 82,
      "hit": false,
      "t": 112500,
      "d": 500,
      "v": 80
    },
    {
      "midi": 71,
      "hit": false,
      "t": 113000,
      "d": 500,
      "v": 80
    },
    {
      "midi": 83,
      "hit": false,
      "t": 113000,
      "d": 500,
      "v": 80
    },
    {
      "midi": 74,
      "hit": false,
      "t": 113500,
      "d": 500,
      "v": 80
    },
    {
      "midi": 86,
      "hit": false,
      "t": 113500,
      "d": 500,
      "v": 80
    },
    {
      "midi": 64,
      "hit": false,
      "t": 114000,
      "d": 1500,
      "v": 80
    },
    {
      "midi": 76,
      "hit": false,
      "t": 114000,
      "d": 1500,
      "v": 80
    },
    {
      "midi": 74,
      "hit": false,
      "t": 115500,
      "d": 500,
      "v": 80
    },
    {
      "midi": 86,
      "hit": false,
      "t": 115500,
      "d": 500,
      "v": 80
    },
    {
      "midi": 73,
      "hit": false,
      "t": 116000,
      "d": 2000,
      "v": 80
    },
    {
      "midi": 85,
      "hit": false,
      "t": 116000,
      "d": 2000,
      "v": 80
    },
    {
      "midi": 69,
      "hit": false,
      "t": 118000,
      "d": 1500,
      "v": 80
    },
    {
      "midi": 81,
      "hit": false,
      "t": 118000,
      "d": 1500,
      "v": 80
    },
    {
      "midi": 71,
      "hit": false,
      "t": 119500,
      "d": 250,
      "v": 80
    },
    {
      "midi": 83,
      "hit": false,
      "t": 119500,
      "d": 250,
      "v": 80
    },
    {
      "midi": 73,
      "hit": false,
      "t": 119750,
      "d": 250,
      "v": 80
    },
    {
      "midi": 85,
      "hit": false,
      "t": 119750,
      "d": 250,
      "v": 80
    },
    {
      "midi": 74,
      "hit": false,
      "t": 120000,
      "d": 500,
      "v": 80
    },
    {
      "midi": 86,
      "hit": false,
      "t": 120000,
      "d": 500,
      "v": 80
    },
    {
      "midi": 73,
      "hit": false,
      "t": 120500,
      "d": 500,
      "v": 80
    },
    {
      "midi": 85,
      "hit": false,
      "t": 120500,
      "d": 500,
      "v": 80
    },
    {
      "midi": 74,
      "hit": false,
      "t": 121000,
      "d": 500,
      "v": 80
    },
    {
      "midi": 86,
      "hit": false,
      "t": 121000,
      "d": 500,
      "v": 80
    },
    {
      "midi": 78,
      "hit": false,
      "t": 121500,
      "d": 500,
      "v": 80
    },
    {
      "midi": 90,
      "hit": false,
      "t": 121500,
      "d": 500,
      "v": 80
    },
    {
      "midi": 67,
      "hit": false,
      "t": 122000,
      "d": 1500,
      "v": 80
    },
    {
      "midi": 79,
      "hit": false,
      "t": 122000,
      "d": 1500,
      "v": 80
    },
    {
      "midi": 78,
      "hit": false,
      "t": 123500,
      "d": 500,
      "v": 80
    },
    {
      "midi": 90,
      "hit": false,
      "t": 123500,
      "d": 500,
      "v": 80
    },
    {
      "midi": 76,
      "hit": false,
      "t": 124000,
      "d": 2000,
      "v": 80
    },
    {
      "midi": 88,
      "hit": false,
      "t": 124000,
      "d": 2000,
      "v": 80
    },
    {
      "midi": 66,
      "hit": false,
      "t": 126000,
      "d": 1500,
      "v": 80
    },
    {
      "midi": 78,
      "hit": false,
      "t": 126000,
      "d": 1500,
      "v": 80
    },
    {
      "midi": 67,
      "hit": false,
      "t": 127500,
      "d": 250,
      "v": 80
    },
    {
      "midi": 79,
      "hit": false,
      "t": 127500,
      "d": 250,
      "v": 80
    },
    {
      "midi": 69,
      "hit": false,
      "t": 127750,
      "d": 250,
      "v": 80
    },
    {
      "midi": 81,
      "hit": false,
      "t": 127750,
      "d": 250,
      "v": 80
    },
    {
      "midi": 71,
      "hit": false,
      "t": 128000,
      "d": 500,
      "v": 80
    },
    {
      "midi": 83,
      "hit": false,
      "t": 128000,
      "d": 500,
      "v": 80
    },
    {
      "midi": 70,
      "hit": false,
      "t": 128500,
      "d": 500,
      "v": 80
    },
    {
      "midi": 82,
      "hit": false,
      "t": 128500,
      "d": 500,
      "v": 80
    },
    {
      "midi": 71,
      "hit": false,
      "t": 129000,
      "d": 500,
      "v": 80
    },
    {
      "midi": 83,
      "hit": false,
      "t": 129000,
      "d": 500,
      "v": 80
    },
    {
      "midi": 74,
      "hit": false,
      "t": 129500,
      "d": 500,
      "v": 80
    },
    {
      "midi": 86,
      "hit": false,
      "t": 129500,
      "d": 500,
      "v": 80
    },
    {
      "midi": 64,
      "hit": false,
      "t": 130000,
      "d": 1500,
      "v": 80
    },
    {
      "midi": 76,
      "hit": false,
      "t": 130000,
      "d": 1500,
      "v": 80
    },
    {
      "midi": 74,
      "hit": false,
      "t": 131500,
      "d": 500,
      "v": 80
    },
    {
      "midi": 86,
      "hit": false,
      "t": 131500,
      "d": 500,
      "v": 80
    },
    {
      "midi": 73,
      "hit": false,
      "t": 132000,
      "d": 2000,
      "v": 80
    },
    {
      "midi": 85,
      "hit": false,
      "t": 132000,
      "d": 2000,
      "v": 80
    },
    {
      "midi": 86,
      "hit": false,
      "t": 134000,
      "d": 1500,
      "v": 80
    },
    {
      "midi": 71,
      "hit": false,
      "t": 134000,
      "d": 2000,
      "v": 80
    },
    {
      "midi": 85,
      "hit": false,
      "t": 135500,
      "d": 250,
      "v": 80
    },
    {
      "midi": 86,
      "hit": false,
      "t": 135750,
      "d": 250,
      "v": 80
    },
    {
      "midi": 88,
      "hit": false,
      "t": 136000,
      "d": 500,
      "v": 80
    },
    {
      "midi": 70,
      "hit": false,
      "t": 136000,
      "d": 2000,
      "v": 80
    },
    {
      "midi": 86,
      "hit": false,
      "t": 136500,
      "d": 500,
      "v": 80
    },
    {
      "midi": 86,
      "hit": false,
      "t": 137000,
      "d": 500,
      "v": 80
    },
    {
      "midi": 85,
      "hit": false,
      "t": 137500,
      "d": 500,
      "v": 80
    },
    {
      "midi": 86,
      "hit": false,
      "t": 138000,
      "d": 1500,
      "v": 80
    },
    {
      "midi": 69,
      "hit": false,
      "t": 138000,
      "d": 2000,
      "v": 80
    },
    {
      "midi": 85,
      "hit": false,
      "t": 139500,
      "d": 250,
      "v": 80
    },
    {
      "midi": 86,
      "hit": false,
      "t": 139750,
      "d": 250,
      "v": 80
    },
    {
      "midi": 88,
      "hit": false,
      "t": 140000,
      "d": 500,
      "v": 80
    },
    {
      "midi": 68,
      "hit": false,
      "t": 140000,
      "d": 2000,
      "v": 80
    },
    {
      "midi": 86,
      "hit": false,
      "t": 140500,
      "d": 500,
      "v": 80
    },
    {
      "midi": 86,
      "hit": false,
      "t": 141000,
      "d": 500,
      "v": 80
    },
    {
      "midi": 85,
      "hit": false,
      "t": 141500,
      "d": 500,
      "v": 80
    },
    {
      "midi": 86,
      "hit": false,
      "t": 142000,
      "d": 1500,
      "v": 80
    },
    {
      "midi": 67,
      "hit": false,
      "t": 142000,
      "d": 2000,
      "v": 80
    },
    {
      "midi": 85,
      "hit": false,
      "t": 143500,
      "d": 250,
      "v": 80
    },
    {
      "midi": 86,
      "hit": false,
      "t": 143750,
      "d": 250,
      "v": 80
    },
    {
      "midi": 95,
      "hit": false,
      "t": 144000,
      "d": 500,
      "v": 80
    },
    {
      "midi": 64,
      "hit": false,
      "t": 144000,
      "d": 2000,
      "v": 80
    },
    {
      "midi": 90,
      "hit": false,
      "t": 144500,
      "d": 500,
      "v": 80
    },
    {
      "midi": 88,
      "hit": false,
      "t": 145000,
      "d": 500,
      "v": 80
    },
    {
      "midi": 86,
      "hit": false,
      "t": 145500,
      "d": 500,
      "v": 80
    },
    {
      "midi": 88,
      "hit": false,
      "t": 146000,
      "d": 500,
      "v": 80
    },
    {
      "midi": 64,
      "hit": false,
      "t": 146000,
      "d": 2000,
      "v": 80
    },
    {
      "midi": 86,
      "hit": false,
      "t": 146500,
      "d": 500,
      "v": 80
    },
    {
      "midi": 86,
      "hit": false,
      "t": 147000,
      "d": 500,
      "v": 80
    },
    {
      "midi": 85,
      "hit": false,
      "t": 147500,
      "d": 500,
      "v": 80
    },
    {
      "midi": 85,
      "hit": false,
      "t": 148000,
      "d": 500,
      "v": 80
    },
    {
      "midi": 64,
      "hit": false,
      "t": 148000,
      "d": 1000,
      "v": 80
    },
    {
      "midi": 83,
      "hit": false,
      "t": 148500,
      "d": 500,
      "v": 80
    },
    {
      "midi": 83,
      "hit": false,
      "t": 149000,
      "d": 500,
      "v": 80
    },
    {
      "midi": 69,
      "hit": false,
      "t": 149000,
      "d": 1000,
      "v": 80
    },
    {
      "midi": 82,
      "hit": false,
      "t": 149500,
      "d": 500,
      "v": 80
    },
    {
      "midi": 62,
      "hit": false,
      "t": 150250,
      "d": 197.91666666665697,
      "v": 60
    },
    {
      "midi": 69,
      "hit": false,
      "t": 150500,
      "d": 197.91666666665697,
      "v": 60
    },
    {
      "midi": 74,
      "hit": false,
      "t": 150750,
      "d": 197.91666666665697,
      "v": 60
    },
    {
      "midi": 78,
      "hit": false,
      "t": 151000,
      "d": 197.91666666665697,
      "v": 60
    },
    {
      "midi": 74,
      "hit": false,
      "t": 151250,
      "d": 197.91666666665697,
      "v": 60
    },
    {
      "midi": 69,
      "hit": false,
      "t": 151500,
      "d": 197.91666666665697,
      "v": 60
    },
    {
      "midi": 66,
      "hit": false,
      "t": 151750,
      "d": 197.91666666665697,
      "v": 60
    },
    {
      "midi": 71,
      "hit": false,
      "t": 152000,
      "d": 197.91666666665697,
      "v": 60
    },
    {
      "midi": 62,
      "hit": false,
      "t": 152250,
      "d": 197.91666666665697,
      "v": 60
    },
    {
      "midi": 66,
      "hit": false,
      "t": 152500,
      "d": 197.91666666665697,
      "v": 60
    },
    {
      "midi": 71,
      "hit": false,
      "t": 152750,
      "d": 197.91666666665697,
      "v": 60
    },
    {
      "midi": 74,
      "hit": false,
      "t": 153000,
      "d": 197.91666666665697,
      "v": 60
    },
    {
      "midi": 71,
      "hit": false,
      "t": 153250,
      "d": 197.91666666665697,
      "v": 60
    },
    {
      "midi": 66,
      "hit": false,
      "t": 153500,
      "d": 197.91666666665697,
      "v": 60
    },
    {
      "midi": 62,
      "hit": false,
      "t": 153750,
      "d": 197.91666666665697,
      "v": 60
    },
    {
      "midi": 64,
      "hit": false,
      "t": 154000,
      "d": 197.91666666665697,
      "v": 60
    },
    {
      "midi": 67,
      "hit": false,
      "t": 154250,
      "d": 197.91666666665697,
      "v": 60
    },
    {
      "midi": 71,
      "hit": false,
      "t": 154500,
      "d": 197.91666666665697,
      "v": 60
    },
    {
      "midi": 74,
      "hit": false,
      "t": 154750,
      "d": 197.91666666665697,
      "v": 60
    },
    {
      "midi": 76,
      "hit": false,
      "t": 155000,
      "d": 197.91666666665697,
      "v": 60
    },
    {
      "midi": 74,
      "hit": false,
      "t": 155250,
      "d": 197.91666666665697,
      "v": 60
    },
    {
      "midi": 71,
      "hit": false,
      "t": 155500,
      "d": 197.91666666665697,
      "v": 60
    },
    {
      "midi": 67,
      "hit": false,
      "t": 155750,
      "d": 197.91666666665697,
      "v": 60
    },
    {
      "midi": 64,
      "hit": false,
      "t": 156000,
      "d": 197.91666666665697,
      "v": 60
    },
    {
      "midi": 67,
      "hit": false,
      "t": 156250,
      "d": 197.91666666665697,
      "v": 60
    },
    {
      "midi": 69,
      "hit": false,
      "t": 156500,
      "d": 197.91666666665697,
      "v": 60
    },
    {
      "midi": 73,
      "hit": false,
      "t": 156750,
      "d": 197.91666666665697,
      "v": 60
    },
    {
      "midi": 76,
      "hit": false,
      "t": 157000,
      "d": 197.91666666665697,
      "v": 60
    },
    {
      "midi": 73,
      "hit": false,
      "t": 157250,
      "d": 197.91666666665697,
      "v": 60
    },
    {
      "midi": 69,
      "hit": false,
      "t": 157500,
      "d": 197.91666666665697,
      "v": 60
    },
    {
      "midi": 67,
      "hit": false,
      "t": 157750,
      "d": 197.91666666665697,
      "v": 60
    },
    {
      "midi": 62,
      "hit": false,
      "t": 158250,
      "d": 197.91666666665697,
      "v": 60
    },
    {
      "midi": 69,
      "hit": false,
      "t": 158500,
      "d": 197.91666666665697,
      "v": 60
    },
    {
      "midi": 74,
      "hit": false,
      "t": 158750,
      "d": 197.91666666665697,
      "v": 60
    },
    {
      "midi": 78,
      "hit": false,
      "t": 159000,
      "d": 197.91666666665697,
      "v": 60
    },
    {
      "midi": 74,
      "hit": false,
      "t": 159250,
      "d": 197.91666666665697,
      "v": 60
    },
    {
      "midi": 69,
      "hit": false,
      "t": 159500,
      "d": 197.91666666665697,
      "v": 60
    },
    {
      "midi": 66,
      "hit": false,
      "t": 159750,
      "d": 197.91666666665697,
      "v": 60
    },
    {
      "midi": 71,
      "hit": false,
      "t": 160000,
      "d": 197.91666666665697,
      "v": 60
    },
    {
      "midi": 62,
      "hit": false,
      "t": 160250,
      "d": 197.91666666665697,
      "v": 60
    },
    {
      "midi": 66,
      "hit": false,
      "t": 160500,
      "d": 197.91666666665697,
      "v": 60
    },
    {
      "midi": 71,
      "hit": false,
      "t": 160750,
      "d": 197.91666666665697,
      "v": 60
    },
    {
      "midi": 74,
      "hit": false,
      "t": 161000,
      "d": 197.91666666665697,
      "v": 60
    },
    {
      "midi": 71,
      "hit": false,
      "t": 161250,
      "d": 197.91666666665697,
      "v": 60
    },
    {
      "midi": 66,
      "hit": false,
      "t": 161500,
      "d": 197.91666666665697,
      "v": 60
    },
    {
      "midi": 62,
      "hit": false,
      "t": 161750,
      "d": 197.91666666665697,
      "v": 60
    },
    {
      "midi": 64,
      "hit": false,
      "t": 162000,
      "d": 197.91666666665697,
      "v": 60
    },
    {
      "midi": 67,
      "hit": false,
      "t": 162250,
      "d": 197.91666666665697,
      "v": 60
    },
    {
      "midi": 71,
      "hit": false,
      "t": 162500,
      "d": 197.91666666665697,
      "v": 60
    },
    {
      "midi": 74,
      "hit": false,
      "t": 162750,
      "d": 197.91666666665697,
      "v": 60
    },
    {
      "midi": 76,
      "hit": false,
      "t": 163000,
      "d": 197.91666666665697,
      "v": 60
    },
    {
      "midi": 74,
      "hit": false,
      "t": 163250,
      "d": 197.91666666665697,
      "v": 60
    },
    {
      "midi": 71,
      "hit": false,
      "t": 163500,
      "d": 197.91666666665697,
      "v": 60
    },
    {
      "midi": 67,
      "hit": false,
      "t": 163750,
      "d": 197.91666666665697,
      "v": 60
    },
    {
      "midi": 66,
      "hit": false,
      "t": 164000,
      "d": 197.91666666665697,
      "v": 60
    },
    {
      "midi": 70,
      "hit": false,
      "t": 164250,
      "d": 197.91666666665697,
      "v": 60
    },
    {
      "midi": 73,
      "hit": false,
      "t": 164500,
      "d": 197.91666666665697,
      "v": 60
    },
    {
      "midi": 76,
      "hit": false,
      "t": 164750,
      "d": 197.91666666665697,
      "v": 60
    },
    {
      "midi": 78,
      "hit": false,
      "t": 165000,
      "d": 197.91666666665697,
      "v": 60
    },
    {
      "midi": 76,
      "hit": false,
      "t": 165250,
      "d": 197.91666666665697,
      "v": 60
    },
    {
      "midi": 73,
      "hit": false,
      "t": 165500,
      "d": 197.91666666665697,
      "v": 60
    },
    {
      "midi": 70,
      "hit": false,
      "t": 165750,
      "d": 197.91666666665697,
      "v": 60
    },
    {
      "midi": 67,
      "hit": false,
      "t": 166000,
      "d": 1197.916666666657,
      "v": 60
    }
  ]
}