{
  "jsonPath": "Unknown/Unknown/Granfaloon Bus/the-mission-song.json",
  "path": "Unknown\\Unknown\\Granfaloon Bus\\The Mission Song.mid",
  "name": "The Mission Song",
  "difficulty": "Advanced",
  "bpm": 100,
  "notes": [
    {
      "midi": 43,
      "hit": false,
      "t": 3600,
      "d": 1600,
      "v": 57
    },
    {
      "midi": 59,
      "hit": false,
      "t": 4000,
      "d": 1200,
      "v": 67
    },
    {
      "midi": 67,
      "hit": false,
      "t": 4200,
      "d": 1000,
      "v": 44
    },
    {
      "midi": 71,
      "hit": false,
      "t": 4200,
      "d": 1200,
      "v": 54
    },
    {
      "midi": 74,
      "hit": false,
      "t": 4200,
      "d": 1200,
      "v": 60
    },
    {
      "midi": 83,
      "hit": false,
      "t": 4200,
      "d": 1200,
      "v": 47
    },
    {
      "midi": 59,
      "hit": false,
      "t": 5200,
      "d": 225,
      "v": 74
    },
    {
      "midi": 43,
      "hit": false,
      "t": 5425,
      "d": 1775,
      "v": 70
    },
    {
      "midi": 59,
      "hit": false,
      "t": 5800,
      "d": 1400,
      "v": 47
    },
    {
      "midi": 71,
      "hit": false,
      "t": 6000,
      "d": 470,
      "v": 47
    },
    {
      "midi": 74,
      "hit": false,
      "t": 6000,
      "d": 470,
      "v": 62
    },
    {
      "midi": 83,
      "hit": false,
      "t": 6000,
      "d": 480,
      "v": 48
    },
    {
      "midi": 67,
      "hit": false,
      "t": 6000,
      "d": 1200,
      "v": 52
    },
    {
      "midi": 71,
      "hit": false,
      "t": 6600,
      "d": 200,
      "v": 47
    },
    {
      "midi": 74,
      "hit": false,
      "t": 6600,
      "d": 200,
      "v": 66
    },
    {
      "midi": 83,
      "hit": false,
      "t": 6600,
      "d": 200,
      "v": 51
    },
    {
      "midi": 43,
      "hit": false,
      "t": 7200,
      "d": 1600,
      "v": 57
    },
    {
      "midi": 59,
      "hit": false,
      "t": 7600,
      "d": 1200,
      "v": 67
    },
    {
      "midi": 67,
      "hit": false,
      "t": 7800,
      "d": 1000,
      "v": 44
    },
    {
      "midi": 71,
      "hit": false,
      "t": 7800,
      "d": 1200,
      "v": 54
    },
    {
      "midi": 74,
      "hit": false,
      "t": 7800,
      "d": 1200,
      "v": 60
    },
    {
      "midi": 83,
      "hit": false,
      "t": 7800,
      "d": 1200,
      "v": 47
    },
    {
      "midi": 59,
      "hit": false,
      "t": 8800,
      "d": 225,
      "v": 74
    },
    {
      "midi": 43,
      "hit": false,
      "t": 9025,
      "d": 1775,
      "v": 70
    },
    {
      "midi": 59,
      "hit": false,
      "t": 9400,
      "d": 1400,
      "v": 47
    },
    {
      "midi": 71,
      "hit": false,
      "t": 9600,
      "d": 470,
      "v": 47
    },
    {
      "midi": 74,
      "hit": false,
      "t": 9600,
      "d": 470,
      "v": 62
    },
    {
      "midi": 83,
      "hit": false,
      "t": 9600,
      "d": 480,
      "v": 48
    },
    {
      "midi": 67,
      "hit": false,
      "t": 9600,
      "d": 1200,
      "v": 52
    },
    {
      "midi": 71,
      "hit": false,
      "t": 10200,
      "d": 200,
      "v": 47
    },
    {
      "midi": 74,
      "hit": false,
      "t": 10200,
      "d": 200,
      "v": 66
    },
    {
      "midi": 83,
      "hit": false,
      "t": 10200,
      "d": 200,
      "v": 51
    },
    {
      "midi": 43,
      "hit": false,
      "t": 10800,
      "d": 1600,
      "v": 57
    },
    {
      "midi": 59,
      "hit": false,
      "t": 11200,
      "d": 1200,
      "v": 67
    },
    {
      "midi": 67,
      "hit": false,
      "t": 11400,
      "d": 1000,
      "v": 44
    },
    {
      "midi": 71,
      "hit": false,
      "t": 11400,
      "d": 1200,
      "v": 54
    },
    {
      "midi": 74,
      "hit": false,
      "t": 11400,
      "d": 1200,
      "v": 60
    },
    {
      "midi": 83,
      "hit": false,
      "t": 11400,
      "d": 1200,
      "v": 47
    },
    {
      "midi": 59,
      "hit": false,
      "t": 12400,
      "d": 225,
      "v": 74
    },
    {
      "midi": 43,
      "hit": false,
      "t": 12625,
      "d": 1775,
      "v": 70
    },
    {
      "midi": 59,
      "hit": false,
      "t": 13000,
      "d": 1400,
      "v": 47
    },
    {
      "midi": 71,
      "hit": false,
      "t": 13200,
      "d": 470,
      "v": 47
    },
    {
      "midi": 74,
      "hit": false,
      "t": 13200,
      "d": 470,
      "v": 62
    },
    {
      "midi": 83,
      "hit": false,
      "t": 13200,
      "d": 480,
      "v": 48
    },
    {
      "midi": 67,
      "hit": false,
      "t": 13200,
      "d": 1200,
      "v": 52
    },
    {
      "midi": 71,
      "hit": false,
      "t": 13800,
      "d": 200,
      "v": 47
    },
    {
      "midi": 74,
      "hit": false,
      "t": 13800,
      "d": 200,
      "v": 66
    },
    {
      "midi": 83,
      "hit": false,
      "t": 13800,
      "d": 200,
      "v": 51
    },
    {
      "midi": 43,
      "hit": false,
      "t": 14400,
      "d": 1600,
      "v": 57
    },
    {
      "midi": 59,
      "hit": false,
      "t": 14800,
      "d": 1200,
      "v": 67
    },
    {
      "midi": 67,
      "hit": false,
      "t": 15000,
      "d": 1000,
      "v": 44
    },
    {
      "midi": 71,
      "hit": false,
      "t": 15000,
      "d": 1200,
      "v": 54
    },
    {
      "midi": 74,
      "hit": false,
      "t": 15000,
      "d": 1200,
      "v": 60
    },
    {
      "midi": 83,
      "hit": false,
      "t": 15000,
      "d": 1200,
      "v": 47
    },
    {
      "midi": 59,
      "hit": false,
      "t": 16000,
      "d": 225,
      "v": 74
    },
    {
      "midi": 43,
      "hit": false,
      "t": 16225,
      "d": 1775,
      "v": 70
    },
    {
      "midi": 59,
      "hit": false,
      "t": 16600,
      "d": 1400,
      "v": 47
    },
    {
      "midi": 71,
      "hit": false,
      "t": 16800,
      "d": 470,
      "v": 47
    },
    {
      "midi": 74,
      "hit": false,
      "t": 16800,
      "d": 470,
      "v": 62
    },
    {
      "midi": 83,
      "hit": false,
      "t": 16800,
      "d": 480,
      "v": 48
    },
    {
      "midi": 67,
      "hit": false,
      "t": 16800,
      "d": 1200,
      "v": 52
    },
    {
      "midi": 71,
      "hit": false,
      "t": 17400,
      "d": 200,
      "v": 47
    },
    {
      "midi": 74,
      "hit": false,
      "t": 17400,
      "d": 200,
      "v": 66
    },
    {
      "midi": 83,
      "hit": false,
      "t": 17400,
      "d": 200,
      "v": 51
    },
    {
      "midi": 43,
      "hit": false,
      "t": 18000,
      "d": 1600,
      "v": 57
    },
    {
      "midi": 59,
      "hit": false,
      "t": 18400,
      "d": 1200,
      "v": 67
    },
    {
      "midi": 67,
      "hit": false,
      "t": 18600,
      "d": 1000,
      "v": 44
    },
    {
      "midi": 71,
      "hit": false,
      "t": 18600,
      "d": 1200,
      "v": 54
    },
    {
      "midi": 74,
      "hit": false,
      "t": 18600,
      "d": 1200,
      "v": 60
    },
    {
      "midi": 83,
      "hit": false,
      "t": 18600,
      "d": 1200,
      "v": 47
    },
    {
      "midi": 59,
      "hit": false,
      "t": 19600,
      "d": 225,
      "v": 74
    },
    {
      "midi": 43,
      "hit": false,
      "t": 19825,
      "d": 1775,
      "v": 70
    },
    {
      "midi": 59,
      "hit": false,
      "t": 20200,
      "d": 1400,
      "v": 47
    },
    {
      "midi": 71,
      "hit": false,
      "t": 20400,
      "d": 470,
      "v": 47
    },
    {
      "midi": 74,
      "hit": false,
      "t": 20400,
      "d": 470,
      "v": 62
    },
    {
      "midi": 83,
      "hit": false,
      "t": 20400,
      "d": 480,
      "v": 48
    },
    {
      "midi": 67,
      "hit": false,
      "t": 20400,
      "d": 1200,
      "v": 52
    },
    {
      "midi": 71,
      "hit": false,
      "t": 21000,
      "d": 200,
      "v": 47
    },
    {
      "midi": 74,
      "hit": false,
      "t": 21000,
      "d": 200,
      "v": 66
    },
    {
      "midi": 83,
      "hit": false,
      "t": 21000,
      "d": 200,
      "v": 51
    },
    {
      "midi": 45,
      "hit": false,
      "t": 21600,
      "d": 1600,
      "v": 57
    },
    {
      "midi": 52,
      "hit": false,
      "t": 22000,
      "d": 1200,
      "v": 67
    },
    {
      "midi": 60,
      "hit": false,
      "t": 22200,
      "d": 1000,
      "v": 44
    },
    {
      "midi": 64,
      "hit": false,
      "t": 22200,
      "d": 1200,
      "v": 54
    },
    {
      "midi": 69,
      "hit": false,
      "t": 22200,
      "d": 1200,
      "v": 60
    },
    {
      "midi": 76,
      "hit": false,
      "t": 22200,
      "d": 1200,
      "v": 47
    },
    {
      "midi": 52,
      "hit": false,
      "t": 23200,
      "d": 225,
      "v": 74
    },
    {
      "midi": 45,
      "hit": false,
      "t": 23425,
      "d": 1775,
      "v": 70
    },
    {
      "midi": 52,
      "hit": false,
      "t": 23800,
      "d": 1400,
      "v": 47
    },
    {
      "midi": 64,
      "hit": false,
      "t": 24000,
      "d": 470,
      "v": 47
    },
    {
      "midi": 69,
      "hit": false,
      "t": 24000,
      "d": 470,
      "v": 62
    },
    {
      "midi": 76,
      "hit": false,
      "t": 24000,
      "d": 480,
      "v": 48
    },
    {
      "midi": 60,
      "hit": false,
      "t": 24000,
      "d": 1200,
      "v": 52
    },
    {
      "midi": 64,
      "hit": false,
      "t": 24600,
      "d": 200,
      "v": 47
    },
    {
      "midi": 69,
      "hit": false,
      "t": 24600,
      "d": 200,
      "v": 66
    },
    {
      "midi": 76,
      "hit": false,
      "t": 24600,
      "d": 200,
      "v": 51
    },
    {
      "midi": 50,
      "hit": false,
      "t": 25200,
      "d": 1600,
      "v": 57
    },
    {
      "midi": 57,
      "hit": false,
      "t": 25600,
      "d": 1200,
      "v": 67
    },
    {
      "midi": 66,
      "hit": false,
      "t": 25800,
      "d": 1000,
      "v": 44
    },
    {
      "midi": 69,
      "hit": false,
      "t": 25800,
      "d": 1200,
      "v": 54
    },
    {
      "midi": 74,
      "hit": false,
      "t": 25800,
      "d": 1200,
      "v": 60
    },
    {
      "midi": 81,
      "hit": false,
      "t": 25800,
      "d": 1200,
      "v": 47
    },
    {
      "midi": 57,
      "hit": false,
      "t": 26800,
      "d": 225,
      "v": 74
    },
    {
      "midi": 50,
      "hit": false,
      "t": 27025,
      "d": 1775,
      "v": 70
    },
    {
      "midi": 57,
      "hit": false,
      "t": 27400,
      "d": 1400,
      "v": 47
    },
    {
      "midi": 69,
      "hit": false,
      "t": 27600,
      "d": 470,
      "v": 47
    },
    {
      "midi": 74,
      "hit": false,
      "t": 27600,
      "d": 470,
      "v": 62
    },
    {
      "midi": 81,
      "hit": false,
      "t": 27600,
      "d": 480,
      "v": 48
    },
    {
      "midi": 66,
      "hit": false,
      "t": 27600,
      "d": 1200,
      "v": 52
    },
    {
      "midi": 69,
      "hit": false,
      "t": 28200,
      "d": 200,
      "v": 47
    },
    {
      "midi": 74,
      "hit": false,
      "t": 28200,
      "d": 200,
      "v": 66
    },
    {
      "midi": 81,
      "hit": false,
      "t": 28200,
      "d": 200,
      "v": 51
    },
    {
      "midi": 48,
      "hit": false,
      "t": 28800,
      "d": 1800,
      "v": 66
    },
    {
      "midi": 55,
      "hit": false,
      "t": 29400,
      "d": 1200,
      "v": 75
    },
    {
      "midi": 64,
      "hit": false,
      "t": 29400,
      "d": 1200,
      "v": 58
    },
    {
      "midi": 67,
      "hit": false,
      "t": 29400,
      "d": 1200,
      "v": 44
    },
    {
      "midi": 43,
      "hit": false,
      "t": 30600,
      "d": 1800,
      "v": 66
    },
    {
      "midi": 59,
      "hit": false,
      "t": 31200,
      "d": 1200,
      "v": 75
    },
    {
      "midi": 67,
      "hit": false,
      "t": 31200,
      "d": 1200,
      "v": 58
    },
    {
      "midi": 71,
      "hit": false,
      "t": 31200,
      "d": 1200,
      "v": 44
    },
    {
      "midi": 43,
      "hit": false,
      "t": 32400,
      "d": 1600,
      "v": 57
    },
    {
      "midi": 59,
      "hit": false,
      "t": 32800,
      "d": 1200,
      "v": 67
    },
    {
      "midi": 67,
      "hit": false,
      "t": 33000,
      "d": 1000,
      "v": 44
    },
    {
      "midi": 71,
      "hit": false,
      "t": 33000,
      "d": 1200,
      "v": 54
    },
    {
      "midi": 74,
      "hit": false,
      "t": 33000,
      "d": 1200,
      "v": 60
    },
    {
      "midi": 83,
      "hit": false,
      "t": 33000,
      "d": 1200,
      "v": 47
    },
    {
      "midi": 59,
      "hit": false,
      "t": 34000,
      "d": 225,
      "v": 74
    },
    {
      "midi": 43,
      "hit": false,
      "t": 34225,
      "d": 1775,
      "v": 70
    },
    {
      "midi": 59,
      "hit": false,
      "t": 34600,
      "d": 1400,
      "v": 47
    },
    {
      "midi": 71,
      "hit": false,
      "t": 34800,
      "d": 470,
      "v": 47
    },
    {
      "midi": 74,
      "hit": false,
      "t": 34800,
      "d": 470,
      "v": 62
    },
    {
      "midi": 83,
      "hit": false,
      "t": 34800,
      "d": 480,
      "v": 48
    },
    {
      "midi": 67,
      "hit": false,
      "t": 34800,
      "d": 1200,
      "v": 52
    },
    {
      "midi": 71,
      "hit": false,
      "t": 35400,
      "d": 200,
      "v": 47
    },
    {
      "midi": 74,
      "hit": false,
      "t": 35400,
      "d": 200,
      "v": 66
    },
    {
      "midi": 83,
      "hit": false,
      "t": 35400,
      "d": 200,
      "v": 51
    },
    {
      "midi": 45,
      "hit": false,
      "t": 36000,
      "d": 1600,
      "v": 57
    },
    {
      "midi": 52,
      "hit": false,
      "t": 36400,
      "d": 1200,
      "v": 67
    },
    {
      "midi": 60,
      "hit": false,
      "t": 36600,
      "d": 1000,
      "v": 44
    },
    {
      "midi": 64,
      "hit": false,
      "t": 36600,
      "d": 1200,
      "v": 54
    },
    {
      "midi": 69,
      "hit": false,
      "t": 36600,
      "d": 1200,
      "v": 60
    },
    {
      "midi": 76,
      "hit": false,
      "t": 36600,
      "d": 1200,
      "v": 47
    },
    {
      "midi": 52,
      "hit": false,
      "t": 37600,
      "d": 225,
      "v": 74
    },
    {
      "midi": 45,
      "hit": false,
      "t": 37825,
      "d": 1775,
      "v": 70
    },
    {
      "midi": 52,
      "hit": false,
      "t": 38200,
      "d": 1400,
      "v": 47
    },
    {
      "midi": 64,
      "hit": false,
      "t": 38400,
      "d": 470,
      "v": 47
    },
    {
      "midi": 69,
      "hit": false,
      "t": 38400,
      "d": 470,
      "v": 62
    },
    {
      "midi": 76,
      "hit": false,
      "t": 38400,
      "d": 480,
      "v": 48
    },
    {
      "midi": 60,
      "hit": false,
      "t": 38400,
      "d": 1200,
      "v": 52
    },
    {
      "midi": 64,
      "hit": false,
      "t": 39000,
      "d": 200,
      "v": 47
    },
    {
      "midi": 69,
      "hit": false,
      "t": 39000,
      "d": 200,
      "v": 66
    },
    {
      "midi": 76,
      "hit": false,
      "t": 39000,
      "d": 200,
      "v": 51
    },
    {
      "midi": 50,
      "hit": false,
      "t": 39600,
      "d": 1600,
      "v": 57
    },
    {
      "midi": 57,
      "hit": false,
      "t": 40000,
      "d": 1200,
      "v": 67
    },
    {
      "midi": 66,
      "hit": false,
      "t": 40200,
      "d": 1000,
      "v": 44
    },
    {
      "midi": 69,
      "hit": false,
      "t": 40200,
      "d": 1200,
      "v": 54
    },
    {
      "midi": 74,
      "hit": false,
      "t": 40200,
      "d": 1200,
      "v": 60
    },
    {
      "midi": 81,
      "hit": false,
      "t": 40200,
      "d": 1200,
      "v": 47
    },
    {
      "midi": 57,
      "hit": false,
      "t": 41200,
      "d": 225,
      "v": 74
    },
    {
      "midi": 50,
      "hit": false,
      "t": 41425,
      "d": 1775,
      "v": 70
    },
    {
      "midi": 57,
      "hit": false,
      "t": 41800,
      "d": 1400,
      "v": 47
    },
    {
      "midi": 69,
      "hit": false,
      "t": 42000,
      "d": 470,
      "v": 47
    },
    {
      "midi": 74,
      "hit": false,
      "t": 42000,
      "d": 470,
      "v": 62
    },
    {
      "midi": 81,
      "hit": false,
      "t": 42000,
      "d": 480,
      "v": 48
    },
    {
      "midi": 66,
      "hit": false,
      "t": 42000,
      "d": 1200,
      "v": 52
    },
    {
      "midi": 69,
      "hit": false,
      "t": 42600,
      "d": 200,
      "v": 47
    },
    {
      "midi": 74,
      "hit": false,
      "t": 42600,
      "d": 200,
      "v": 66
    },
    {
      "midi": 81,
      "hit": false,
      "t": 42600,
      "d": 200,
      "v": 51
    },
    {
      "midi": 48,
      "hit": false,
      "t": 43200,
      "d": 1600,
      "v": 57
    },
    {
      "midi": 55,
      "hit": false,
      "t": 43600,
      "d": 1200,
      "v": 67
    },
    {
      "midi": 64,
      "hit": false,
      "t": 43800,
      "d": 1000,
      "v": 44
    },
    {
      "midi": 67,
      "hit": false,
      "t": 43800,
      "d": 1200,
      "v": 54
    },
    {
      "midi": 72,
      "hit": false,
      "t": 43800,
      "d": 1200,
      "v": 60
    },
    {
      "midi": 79,
      "hit": false,
      "t": 43800,
      "d": 1200,
      "v": 47
    },
    {
      "midi": 55,
      "hit": false,
      "t": 44800,
      "d": 200,
      "v": 74
    },
    {
      "midi": 50,
      "hit": false,
      "t": 45000,
      "d": 1600,
      "v": 57
    },
    {
      "midi": 57,
      "hit": false,
      "t": 45400,
      "d": 1200,
      "v": 67
    },
    {
      "midi": 66,
      "hit": false,
      "t": 45600,
      "d": 1000,
      "v": 44
    },
    {
      "midi": 69,
      "hit": false,
      "t": 45600,
      "d": 1200,
      "v": 54
    },
    {
      "midi": 74,
      "hit": false,
      "t": 45600,
      "d": 1200,
      "v": 60
    },
    {
      "midi": 81,
      "hit": false,
      "t": 45600,
      "d": 1200,
      "v": 47
    },
    {
      "midi": 57,
      "hit": false,
      "t": 46600,
      "d": 200,
      "v": 74
    },
    {
      "midi": 43,
      "hit": false,
      "t": 46800,
      "d": 1800,
      "v": 66
    },
    {
      "midi": 59,
      "hit": false,
      "t": 47400,
      "d": 1200,
      "v": 75
    },
    {
      "midi": 67,
      "hit": false,
      "t": 47400,
      "d": 1200,
      "v": 58
    },
    {
      "midi": 71,
      "hit": false,
      "t": 47400,
      "d": 1200,
      "v": 44
    },
    {
      "midi": 47,
      "hit": false,
      "t": 48600,
      "d": 1800,
      "v": 66
    },
    {
      "midi": 57,
      "hit": false,
      "t": 49200,
      "d": 1200,
      "v": 75
    },
    {
      "midi": 62,
      "hit": false,
      "t": 49200,
      "d": 1200,
      "v": 58
    },
    {
      "midi": 66,
      "hit": false,
      "t": 49200,
      "d": 1200,
      "v": 44
    },
    {
      "midi": 45,
      "hit": false,
      "t": 50400,
      "d": 1600,
      "v": 57
    },
    {
      "midi": 52,
      "hit": false,
      "t": 50800,
      "d": 1200,
      "v": 67
    },
    {
      "midi": 60,
      "hit": false,
      "t": 51000,
      "d": 1000,
      "v": 44
    },
    {
      "midi": 64,
      "hit": false,
      "t": 51000,
      "d": 1200,
      "v": 54
    },
    {
      "midi": 69,
      "hit": false,
      "t": 51000,
      "d": 1200,
      "v": 60
    },
    {
      "midi": 76,
      "hit": false,
      "t": 51000,
      "d": 1200,
      "v": 47
    },
    {
      "midi": 52,
      "hit": false,
      "t": 52000,
      "d": 225,
      "v": 74
    },
    {
      "midi": 45,
      "hit": false,
      "t": 52225,
      "d": 1775,
      "v": 70
    },
    {
      "midi": 52,
      "hit": false,
      "t": 52600,
      "d": 1400,
      "v": 47
    },
    {
      "midi": 64,
      "hit": false,
      "t": 52800,
      "d": 470,
      "v": 47
    },
    {
      "midi": 69,
      "hit": false,
      "t": 52800,
      "d": 470,
      "v": 62
    },
    {
      "midi": 76,
      "hit": false,
      "t": 52800,
      "d": 480,
      "v": 48
    },
    {
      "midi": 60,
      "hit": false,
      "t": 52800,
      "d": 1200,
      "v": 52
    },
    {
      "midi": 64,
      "hit": false,
      "t": 53400,
      "d": 200,
      "v": 47
    },
    {
      "midi": 69,
      "hit": false,
      "t": 53400,
      "d": 200,
      "v": 66
    },
    {
      "midi": 76,
      "hit": false,
      "t": 53400,
      "d": 200,
      "v": 51
    },
    {
      "midi": 50,
      "hit": false,
      "t": 54000,
      "d": 1600,
      "v": 57
    },
    {
      "midi": 57,
      "hit": false,
      "t": 54400,
      "d": 1200,
      "v": 67
    },
    {
      "midi": 66,
      "hit": false,
      "t": 54600,
      "d": 1000,
      "v": 44
    },
    {
      "midi": 69,
      "hit": false,
      "t": 54600,
      "d": 1200,
      "v": 54
    },
    {
      "midi": 74,
      "hit": false,
      "t": 54600,
      "d": 1200,
      "v": 60
    },
    {
      "midi": 81,
      "hit": false,
      "t": 54600,
      "d": 1200,
      "v": 47
    },
    {
      "midi": 57,
      "hit": false,
      "t": 55600,
      "d": 225,
      "v": 74
    },
    {
      "midi": 50,
      "hit": false,
      "t": 55825,
      "d": 1775,
      "v": 70
    },
    {
      "midi": 57,
      "hit": false,
      "t": 56200,
      "d": 1400,
      "v": 47
    },
    {
      "midi": 69,
      "hit": false,
      "t": 56400,
      "d": 470,
      "v": 47
    },
    {
      "midi": 74,
      "hit": false,
      "t": 56400,
      "d": 470,
      "v": 62
    },
    {
      "midi": 81,
      "hit": false,
      "t": 56400,
      "d": 480,
      "v": 48
    },
    {
      "midi": 66,
      "hit": false,
      "t": 56400,
      "d": 1200,
      "v": 52
    },
    {
      "midi": 69,
      "hit": false,
      "t": 57000,
      "d": 200,
      "v": 47
    },
    {
      "midi": 74,
      "hit": false,
      "t": 57000,
      "d": 200,
      "v": 66
    },
    {
      "midi": 81,
      "hit": false,
      "t": 57000,
      "d": 200,
      "v": 51
    },
    {
      "midi": 43,
      "hit": false,
      "t": 57600,
      "d": 1800,
      "v": 65
    },
    {
      "midi": 59,
      "hit": false,
      "t": 57900,
      "d": 1500,
      "v": 70
    },
    {
      "midi": 62,
      "hit": false,
      "t": 58200,
      "d": 1200,
      "v": 70
    },
    {
      "midi": 67,
      "hit": false,
      "t": 58500,
      "d": 900,
      "v": 62
    },
    {
      "midi": 71,
      "hit": false,
      "t": 58800,
      "d": 600,
      "v": 75
    },
    {
      "midi": 50,
      "hit": false,
      "t": 59400,
      "d": 1600,
      "v": 57
    },
    {
      "midi": 57,
      "hit": false,
      "t": 59800,
      "d": 1200,
      "v": 67
    },
    {
      "midi": 66,
      "hit": false,
      "t": 60000,
      "d": 1000,
      "v": 44
    },
    {
      "midi": 69,
      "hit": false,
      "t": 60000,
      "d": 1200,
      "v": 54
    },
    {
      "midi": 74,
      "hit": false,
      "t": 60000,
      "d": 1200,
      "v": 60
    },
    {
      "midi": 81,
      "hit": false,
      "t": 60000,
      "d": 1200,
      "v": 47
    },
    {
      "midi": 57,
      "hit": false,
      "t": 61000,
      "d": 200,
      "v": 74
    },
    {
      "midi": 71,
      "hit": false,
      "t": 61200,
      "d": 810,
      "v": 64
    },
    {
      "midi": 43,
      "hit": false,
      "t": 61205,
      "d": 1795,
      "v": 58
    },
    {
      "midi": 59,
      "hit": false,
      "t": 61510,
      "d": 1490,
      "v": 58
    },
    {
      "midi": 62,
      "hit": false,
      "t": 61835,
      "d": 145,
      "v": 81
    },
    {
      "midi": 71,
      "hit": false,
      "t": 62440,
      "d": 560,
      "v": 51
    },
    {
      "midi": 74,
      "hit": false,
      "t": 62440,
      "d": 560,
      "v": 63
    },
    {
      "midi": 79,
      "hit": false,
      "t": 62450,
      "d": 550,
      "v": 52
    },
    {
      "midi": 66,
      "hit": false,
      "t": 63000,
      "d": 825,
      "v": 64
    },
    {
      "midi": 47,
      "hit": false,
      "t": 63005,
      "d": 1795,
      "v": 58
    },
    {
      "midi": 62,
      "hit": false,
      "t": 63310,
      "d": 500,
      "v": 59
    },
    {
      "midi": 54,
      "hit": false,
      "t": 63310,
      "d": 1490,
      "v": 58
    },
    {
      "midi": 57,
      "hit": false,
      "t": 63635,
      "d": 145,
      "v": 81
    },
    {
      "midi": 62,
      "hit": false,
      "t": 64240,
      "d": 560,
      "v": 51
    },
    {
      "midi": 69,
      "hit": false,
      "t": 64240,
      "d": 560,
      "v": 63
    },
    {
      "midi": 71,
      "hit": false,
      "t": 64250,
      "d": 550,
      "v": 52
    },
    {
      "midi": 45,
      "hit": false,
      "t": 64800,
      "d": 1600,
      "v": 57
    },
    {
      "midi": 52,
      "hit": false,
      "t": 65200,
      "d": 1200,
      "v": 67
    },
    {
      "midi": 60,
      "hit": false,
      "t": 65400,
      "d": 1000,
      "v": 44
    },
    {
      "midi": 64,
      "hit": false,
      "t": 65400,
      "d": 1200,
      "v": 54
    },
    {
      "midi": 69,
      "hit": false,
      "t": 65400,
      "d": 1200,
      "v": 60
    },
    {
      "midi": 76,
      "hit": false,
      "t": 65400,
      "d": 1200,
      "v": 47
    },
    {
      "midi": 52,
      "hit": false,
      "t": 66400,
      "d": 225,
      "v": 74
    },
    {
      "midi": 45,
      "hit": false,
      "t": 66625,
      "d": 1775,
      "v": 70
    },
    {
      "midi": 52,
      "hit": false,
      "t": 67000,
      "d": 1400,
      "v": 47
    },
    {
      "midi": 64,
      "hit": false,
      "t": 67200,
      "d": 470,
      "v": 47
    },
    {
      "midi": 69,
      "hit": false,
      "t": 67200,
      "d": 470,
      "v": 62
    },
    {
      "midi": 76,
      "hit": false,
      "t": 67200,
      "d": 480,
      "v": 48
    },
    {
      "midi": 60,
      "hit": false,
      "t": 67200,
      "d": 1200,
      "v": 52
    },
    {
      "midi": 64,
      "hit": false,
      "t": 67800,
      "d": 200,
      "v": 47
    },
    {
      "midi": 69,
      "hit": false,
      "t": 67800,
      "d": 200,
      "v": 66
    },
    {
      "midi": 76,
      "hit": false,
      "t": 67800,
      "d": 200,
      "v": 51
    },
    {
      "midi": 50,
      "hit": false,
      "t": 68400,
      "d": 1600,
      "v": 57
    },
    {
      "midi": 57,
      "hit": false,
      "t": 68800,
      "d": 1200,
      "v": 67
    },
    {
      "midi": 66,
      "hit": false,
      "t": 69000,
      "d": 1000,
      "v": 44
    },
    {
      "midi": 69,
      "hit": false,
      "t": 69000,
      "d": 1200,
      "v": 54
    },
    {
      "midi": 74,
      "hit": false,
      "t": 69000,
      "d": 1200,
      "v": 60
    },
    {
      "midi": 81,
      "hit": false,
      "t": 69000,
      "d": 1200,
      "v": 47
    },
    {
      "midi": 57,
      "hit": false,
      "t": 70000,
      "d": 225,
      "v": 74
    },
    {
      "midi": 50,
      "hit": false,
      "t": 70225,
      "d": 1775,
      "v": 70
    },
    {
      "midi": 57,
      "hit": false,
      "t": 70600,
      "d": 1400,
      "v": 47
    },
    {
      "midi": 69,
      "hit": false,
      "t": 70800,
      "d": 470,
      "v": 47
    },
    {
      "midi": 74,
      "hit": false,
      "t": 70800,
      "d": 470,
      "v": 62
    },
    {
      "midi": 81,
      "hit": false,
      "t": 70800,
      "d": 480,
      "v": 48
    },
    {
      "midi": 66,
      "hit": false,
      "t": 70800,
      "d": 1200,
      "v": 52
    },
    {
      "midi": 69,
      "hit": false,
      "t": 71400,
      "d": 200,
      "v": 47
    },
    {
      "midi": 74,
      "hit": false,
      "t": 71400,
      "d": 200,
      "v": 66
    },
    {
      "midi": 81,
      "hit": false,
      "t": 71400,
      "d": 200,
      "v": 51
    },
    {
      "midi": 43,
      "hit": false,
      "t": 72000,
      "d": 1800,
      "v": 65
    },
    {
      "midi": 59,
      "hit": false,
      "t": 72300,
      "d": 1500,
      "v": 70
    },
    {
      "midi": 62,
      "hit": false,
      "t": 72600,
      "d": 1200,
      "v": 70
    },
    {
      "midi": 67,
      "hit": false,
      "t": 72900,
      "d": 900,
      "v": 62
    },
    {
      "midi": 71,
      "hit": false,
      "t": 73200,
      "d": 600,
      "v": 75
    },
    {
      "midi": 69,
      "hit": false,
      "t": 73800,
      "d": 810,
      "v": 64
    },
    {
      "midi": 50,
      "hit": false,
      "t": 73805,
      "d": 1795,
      "v": 58
    },
    {
      "midi": 57,
      "hit": false,
      "t": 74110,
      "d": 1490,
      "v": 58
    },
    {
      "midi": 62,
      "hit": false,
      "t": 74435,
      "d": 145,
      "v": 81
    },
    {
      "midi": 69,
      "hit": false,
      "t": 75040,
      "d": 560,
      "v": 51
    },
    {
      "midi": 74,
      "hit": false,
      "t": 75040,
      "d": 560,
      "v": 63
    },
    {
      "midi": 78,
      "hit": false,
      "t": 75050,
      "d": 550,
      "v": 52
    },
    {
      "midi": 43,
      "hit": false,
      "t": 75600,
      "d": 1600,
      "v": 57
    },
    {
      "midi": 59,
      "hit": false,
      "t": 76000,
      "d": 1200,
      "v": 67
    },
    {
      "midi": 67,
      "hit": false,
      "t": 76200,
      "d": 1000,
      "v": 44
    },
    {
      "midi": 71,
      "hit": false,
      "t": 76200,
      "d": 1200,
      "v": 54
    },
    {
      "midi": 74,
      "hit": false,
      "t": 76200,
      "d": 1200,
      "v": 60
    },
    {
      "midi": 83,
      "hit": false,
      "t": 76200,
      "d": 1200,
      "v": 47
    },
    {
      "midi": 59,
      "hit": false,
      "t": 77200,
      "d": 225,
      "v": 74
    },
    {
      "midi": 43,
      "hit": false,
      "t": 77425,
      "d": 1775,
      "v": 70
    },
    {
      "midi": 59,
      "hit": false,
      "t": 77800,
      "d": 1400,
      "v": 47
    },
    {
      "midi": 71,
      "hit": false,
      "t": 78000,
      "d": 470,
      "v": 47
    },
    {
      "midi": 74,
      "hit": false,
      "t": 78000,
      "d": 470,
      "v": 62
    },
    {
      "midi": 83,
      "hit": false,
      "t": 78000,
      "d": 480,
      "v": 48
    },
    {
      "midi": 67,
      "hit": false,
      "t": 78000,
      "d": 1200,
      "v": 52
    },
    {
      "midi": 71,
      "hit": false,
      "t": 78600,
      "d": 200,
      "v": 47
    },
    {
      "midi": 74,
      "hit": false,
      "t": 78600,
      "d": 200,
      "v": 66
    },
    {
      "midi": 83,
      "hit": false,
      "t": 78600,
      "d": 200,
      "v": 51
    },
    {
      "midi": 45,
      "hit": false,
      "t": 79200,
      "d": 1600,
      "v": 57
    },
    {
      "midi": 52,
      "hit": false,
      "t": 79600,
      "d": 1200,
      "v": 67
    },
    {
      "midi": 60,
      "hit": false,
      "t": 79800,
      "d": 1000,
      "v": 44
    },
    {
      "midi": 64,
      "hit": false,
      "t": 79800,
      "d": 1200,
      "v": 54
    },
    {
      "midi": 69,
      "hit": false,
      "t": 79800,
      "d": 1200,
      "v": 60
    },
    {
      "midi": 76,
      "hit": false,
      "t": 79800,
      "d": 1200,
      "v": 47
    },
    {
      "midi": 52,
      "hit": false,
      "t": 80800,
      "d": 225,
      "v": 74
    },
    {
      "midi": 45,
      "hit": false,
      "t": 81025,
      "d": 1775,
      "v": 70
    },
    {
      "midi": 52,
      "hit": false,
      "t": 81400,
      "d": 1400,
      "v": 47
    },
    {
      "midi": 64,
      "hit": false,
      "t": 81600,
      "d": 470,
      "v": 47
    },
    {
      "midi": 69,
      "hit": false,
      "t": 81600,
      "d": 470,
      "v": 62
    },
    {
      "midi": 76,
      "hit": false,
      "t": 81600,
      "d": 480,
      "v": 48
    },
    {
      "midi": 60,
      "hit": false,
      "t": 81600,
      "d": 1200,
      "v": 52
    },
    {
      "midi": 64,
      "hit": false,
      "t": 82200,
      "d": 200,
      "v": 47
    },
    {
      "midi": 69,
      "hit": false,
      "t": 82200,
      "d": 200,
      "v": 66
    },
    {
      "midi": 76,
      "hit": false,
      "t": 82200,
      "d": 200,
      "v": 51
    },
    {
      "midi": 50,
      "hit": false,
      "t": 82800,
      "d": 1600,
      "v": 57
    },
    {
      "midi": 57,
      "hit": false,
      "t": 83200,
      "d": 1200,
      "v": 67
    },
    {
      "midi": 66,
      "hit": false,
      "t": 83400,
      "d": 1000,
      "v": 44
    },
    {
      "midi": 69,
      "hit": false,
      "t": 83400,
      "d": 1200,
      "v": 54
    },
    {
      "midi": 74,
      "hit": false,
      "t": 83400,
      "d": 1200,
      "v": 60
    },
    {
      "midi": 81,
      "hit": false,
      "t": 83400,
      "d": 1200,
      "v": 47
    },
    {
      "midi": 57,
      "hit": false,
      "t": 84400,
      "d": 225,
      "v": 74
    },
    {
      "midi": 50,
      "hit": false,
      "t": 84625,
      "d": 1775,
      "v": 70
    },
    {
      "midi": 57,
      "hit": false,
      "t": 85000,
      "d": 1400,
      "v": 47
    },
    {
      "midi": 69,
      "hit": false,
      "t": 85200,
      "d": 470,
      "v": 47
    },
    {
      "midi": 74,
      "hit": false,
      "t": 85200,
      "d": 470,
      "v": 62
    },
    {
      "midi": 81,
      "hit": false,
      "t": 85200,
      "d": 480,
      "v": 48
    },
    {
      "midi": 66,
      "hit": false,
      "t": 85200,
      "d": 1200,
      "v": 52
    },
    {
      "midi": 69,
      "hit": false,
      "t": 85800,
      "d": 200,
      "v": 47
    },
    {
      "midi": 74,
      "hit": false,
      "t": 85800,
      "d": 200,
      "v": 66
    },
    {
      "midi": 81,
      "hit": false,
      "t": 85800,
      "d": 200,
      "v": 51
    },
    {
      "midi": 48,
      "hit": false,
      "t": 86400,
      "d": 1800,
      "v": 65
    },
    {
      "midi": 55,
      "hit": false,
      "t": 86700,
      "d": 1500,
      "v": 70
    },
    {
      "midi": 60,
      "hit": false,
      "t": 87000,
      "d": 1200,
      "v": 70
    },
    {
      "midi": 64,
      "hit": false,
      "t": 87300,
      "d": 900,
      "v": 62
    },
    {
      "midi": 67,
      "hit": false,
      "t": 87600,
      "d": 600,
      "v": 75
    },
    {
      "midi": 71,
      "hit": false,
      "t": 88200,
      "d": 810,
      "v": 64
    },
    {
      "midi": 43,
      "hit": false,
      "t": 88205,
      "d": 1795,
      "v": 58
    },
    {
      "midi": 59,
      "hit": false,
      "t": 88510,
      "d": 1490,
      "v": 58
    },
    {
      "midi": 62,
      "hit": false,
      "t": 88835,
      "d": 145,
      "v": 81
    },
    {
      "midi": 71,
      "hit": false,
      "t": 89440,
      "d": 560,
      "v": 51
    },
    {
      "midi": 74,
      "hit": false,
      "t": 89440,
      "d": 560,
      "v": 63
    },
    {
      "midi": 79,
      "hit": false,
      "t": 89450,
      "d": 550,
      "v": 52
    },
    {
      "midi": 43,
      "hit": false,
      "t": 90000,
      "d": 1600,
      "v": 57
    },
    {
      "midi": 59,
      "hit": false,
      "t": 90400,
      "d": 1200,
      "v": 67
    },
    {
      "midi": 67,
      "hit": false,
      "t": 90600,
      "d": 1000,
      "v": 44
    },
    {
      "midi": 71,
      "hit": false,
      "t": 90600,
      "d": 1200,
      "v": 54
    },
    {
      "midi": 74,
      "hit": false,
      "t": 90600,
      "d": 1200,
      "v": 60
    },
    {
      "midi": 83,
      "hit": false,
      "t": 90600,
      "d": 1200,
      "v": 47
    },
    {
      "midi": 59,
      "hit": false,
      "t": 91600,
      "d": 225,
      "v": 74
    },
    {
      "midi": 43,
      "hit": false,
      "t": 91825,
      "d": 1775,
      "v": 70
    },
    {
      "midi": 59,
      "hit": false,
      "t": 92200,
      "d": 1400,
      "v": 47
    },
    {
      "midi": 71,
      "hit": false,
      "t": 92400,
      "d": 470,
      "v": 47
    },
    {
      "midi": 74,
      "hit": false,
      "t": 92400,
      "d": 470,
      "v": 62
    },
    {
      "midi": 83,
      "hit": false,
      "t": 92400,
      "d": 480,
      "v": 48
    },
    {
      "midi": 67,
      "hit": false,
      "t": 92400,
      "d": 1200,
      "v": 52
    },
    {
      "midi": 71,
      "hit": false,
      "t": 93000,
      "d": 200,
      "v": 47
    },
    {
      "midi": 74,
      "hit": false,
      "t": 93000,
      "d": 200,
      "v": 66
    },
    {
      "midi": 83,
      "hit": false,
      "t": 93000,
      "d": 200,
      "v": 51
    },
    {
      "midi": 45,
      "hit": false,
      "t": 93600,
      "d": 1600,
      "v": 57
    },
    {
      "midi": 52,
      "hit": false,
      "t": 94000,
      "d": 1200,
      "v": 67
    },
    {
      "midi": 60,
      "hit": false,
      "t": 94200,
      "d": 1000,
      "v": 44
    },
    {
      "midi": 64,
      "hit": false,
      "t": 94200,
      "d": 1200,
      "v": 54
    },
    {
      "midi": 69,
      "hit": false,
      "t": 94200,
      "d": 1200,
      "v": 60
    },
    {
      "midi": 76,
      "hit": false,
      "t": 94200,
      "d": 1200,
      "v": 47
    },
    {
      "midi": 52,
      "hit": false,
      "t": 95200,
      "d": 225,
      "v": 74
    },
    {
      "midi": 45,
      "hit": false,
      "t": 95425,
      "d": 1775,
      "v": 70
    },
    {
      "midi": 52,
      "hit": false,
      "t": 95800,
      "d": 1400,
      "v": 47
    },
    {
      "midi": 64,
      "hit": false,
      "t": 96000,
      "d": 470,
      "v": 47
    },
    {
      "midi": 69,
      "hit": false,
      "t": 96000,
      "d": 470,
      "v": 62
    },
    {
      "midi": 76,
      "hit": false,
      "t": 96000,
      "d": 480,
      "v": 48
    },
    {
      "midi": 60,
      "hit": false,
      "t": 96000,
      "d": 1200,
      "v": 52
    },
    {
      "midi": 64,
      "hit": false,
      "t": 96600,
      "d": 200,
      "v": 47
    },
    {
      "midi": 69,
      "hit": false,
      "t": 96600,
      "d": 200,
      "v": 66
    },
    {
      "midi": 76,
      "hit": false,
      "t": 96600,
      "d": 200,
      "v": 51
    },
    {
      "midi": 50,
      "hit": false,
      "t": 97200,
      "d": 1600,
      "v": 57
    },
    {
      "midi": 57,
      "hit": false,
      "t": 97600,
      "d": 1200,
      "v": 67
    },
    {
      "midi": 66,
      "hit": false,
      "t": 97800,
      "d": 1000,
      "v": 44
    },
    {
      "midi": 69,
      "hit": false,
      "t": 97800,
      "d": 1200,
      "v": 54
    },
    {
      "midi": 74,
      "hit": false,
      "t": 97800,
      "d": 1200,
      "v": 60
    },
    {
      "midi": 81,
      "hit": false,
      "t": 97800,
      "d": 1200,
      "v": 47
    },
    {
      "midi": 57,
      "hit": false,
      "t": 98800,
      "d": 225,
      "v": 74
    },
    {
      "midi": 50,
      "hit": false,
      "t": 99025,
      "d": 1775,
      "v": 70
    },
    {
      "midi": 57,
      "hit": false,
      "t": 99400,
      "d": 1400,
      "v": 47
    },
    {
      "midi": 69,
      "hit": false,
      "t": 99600,
      "d": 470,
      "v": 47
    },
    {
      "midi": 74,
      "hit": false,
      "t": 99600,
      "d": 470,
      "v": 62
    },
    {
      "midi": 81,
      "hit": false,
      "t": 99600,
      "d": 480,
      "v": 48
    },
    {
      "midi": 66,
      "hit": false,
      "t": 99600,
      "d": 1200,
      "v": 52
    },
    {
      "midi": 69,
      "hit": false,
      "t": 100200,
      "d": 200,
      "v": 47
    },
    {
      "midi": 74,
      "hit": false,
      "t": 100200,
      "d": 200,
      "v": 66
    },
    {
      "midi": 81,
      "hit": false,
      "t": 100200,
      "d": 200,
      "v": 51
    },
    {
      "midi": 48,
      "hit": false,
      "t": 100800,
      "d": 1600,
      "v": 57
    },
    {
      "midi": 55,
      "hit": false,
      "t": 101200,
      "d": 1200,
      "v": 67
    },
    {
      "midi": 64,
      "hit": false,
      "t": 101400,
      "d": 1000,
      "v": 44
    },
    {
      "midi": 67,
      "hit": false,
      "t": 101400,
      "d": 1200,
      "v": 54
    },
    {
      "midi": 72,
      "hit": false,
      "t": 101400,
      "d": 1200,
      "v": 60
    },
    {
      "midi": 79,
      "hit": false,
      "t": 101400,
      "d": 1200,
      "v": 47
    },
    {
      "midi": 55,
      "hit": false,
      "t": 102400,
      "d": 200,
      "v": 74
    },
    {
      "midi": 69,
      "hit": false,
      "t": 102600,
      "d": 810,
      "v": 64
    },
    {
      "midi": 50,
      "hit": false,
      "t": 102605,
      "d": 1795,
      "v": 58
    },
    {
      "midi": 57,
      "hit": false,
      "t": 102910,
      "d": 1490,
      "v": 58
    },
    {
      "midi": 62,
      "hit": false,
      "t": 103235,
      "d": 145,
      "v": 81
    },
    {
      "midi": 69,
      "hit": false,
      "t": 103840,
      "d": 560,
      "v": 51
    },
    {
      "midi": 74,
      "hit": false,
      "t": 103840,
      "d": 560,
      "v": 63
    },
    {
      "midi": 78,
      "hit": false,
      "t": 103850,
      "d": 550,
      "v": 52
    },
    {
      "midi": 43,
      "hit": false,
      "t": 104400,
      "d": 1800,
      "v": 66
    },
    {
      "midi": 59,
      "hit": false,
      "t": 105000,
      "d": 1200,
      "v": 75
    },
    {
      "midi": 67,
      "hit": false,
      "t": 105000,
      "d": 1200,
      "v": 58
    },
    {
      "midi": 71,
      "hit": false,
      "t": 105000,
      "d": 1200,
      "v": 44
    },
    {
      "midi": 47,
      "hit": false,
      "t": 106200,
      "d": 1800,
      "v": 65
    },
    {
      "midi": 54,
      "hit": false,
      "t": 106500,
      "d": 1500,
      "v": 70
    },
    {
      "midi": 57,
      "hit": false,
      "t": 106800,
      "d": 1200,
      "v": 70
    },
    {
      "midi": 59,
      "hit": false,
      "t": 107100,
      "d": 900,
      "v": 62
    },
    {
      "midi": 62,
      "hit": false,
      "t": 107400,
      "d": 600,
      "v": 75
    },
    {
      "midi": 66,
      "hit": false,
      "t": 107700,
      "d": 300,
      "v": 58
    },
    {
      "midi": 45,
      "hit": false,
      "t": 108000,
      "d": 1600,
      "v": 57
    },
    {
      "midi": 52,
      "hit": false,
      "t": 108400,
      "d": 1200,
      "v": 67
    },
    {
      "midi": 60,
      "hit": false,
      "t": 108600,
      "d": 1000,
      "v": 44
    },
    {
      "midi": 64,
      "hit": false,
      "t": 108600,
      "d": 1200,
      "v": 54
    },
    {
      "midi": 69,
      "hit": false,
      "t": 108600,
      "d": 1200,
      "v": 60
    },
    {
      "midi": 76,
      "hit": false,
      "t": 108600,
      "d": 1200,
      "v": 47
    },
    {
      "midi": 52,
      "hit": false,
      "t": 109600,
      "d": 225,
      "v": 74
    },
    {
      "midi": 45,
      "hit": false,
      "t": 109825,
      "d": 1775,
      "v": 70
    },
    {
      "midi": 52,
      "hit": false,
      "t": 110200,
      "d": 1400,
      "v": 47
    },
    {
      "midi": 64,
      "hit": false,
      "t": 110400,
      "d": 470,
      "v": 47
    },
    {
      "midi": 69,
      "hit": false,
      "t": 110400,
      "d": 470,
      "v": 62
    },
    {
      "midi": 76,
      "hit": false,
      "t": 110400,
      "d": 480,
      "v": 48
    },
    {
      "midi": 60,
      "hit": false,
      "t": 110400,
      "d": 1200,
      "v": 52
    },
    {
      "midi": 64,
      "hit": false,
      "t": 111000,
      "d": 200,
      "v": 47
    },
    {
      "midi": 69,
      "hit": false,
      "t": 111000,
      "d": 200,
      "v": 66
    },
    {
      "midi": 76,
      "hit": false,
      "t": 111000,
      "d": 200,
      "v": 51
    },
    {
      "midi": 50,
      "hit": false,
      "t": 111600,
      "d": 1600,
      "v": 57
    },
    {
      "midi": 57,
      "hit": false,
      "t": 112000,
      "d": 1200,
      "v": 67
    },
    {
      "midi": 66,
      "hit": false,
      "t": 112200,
      "d": 1000,
      "v": 44
    },
    {
      "midi": 69,
      "hit": false,
      "t": 112200,
      "d": 1200,
      "v": 54
    },
    {
      "midi": 74,
      "hit": false,
      "t": 112200,
      "d": 1200,
      "v": 60
    },
    {
      "midi": 81,
      "hit": false,
      "t": 112200,
      "d": 1200,
      "v": 47
    },
    {
      "midi": 57,
      "hit": false,
      "t": 113200,
      "d": 225,
      "v": 74
    },
    {
      "midi": 50,
      "hit": false,
      "t": 113425,
      "d": 1775,
      "v": 70
    },
    {
      "midi": 57,
      "hit": false,
      "t": 113800,
      "d": 1400,
      "v": 47
    },
    {
      "midi": 69,
      "hit": false,
      "t": 114000,
      "d": 470,
      "v": 47
    },
    {
      "midi": 74,
      "hit": false,
      "t": 114000,
      "d": 470,
      "v": 62
    },
    {
      "midi": 81,
      "hit": false,
      "t": 114000,
      "d": 480,
      "v": 48
    },
    {
      "midi": 66,
      "hit": false,
      "t": 114000,
      "d": 1200,
      "v": 52
    },
    {
      "midi": 69,
      "hit": false,
      "t": 114600,
      "d": 200,
      "v": 47
    },
    {
      "midi": 74,
      "hit": false,
      "t": 114600,
      "d": 200,
      "v": 66
    },
    {
      "midi": 81,
      "hit": false,
      "t": 114600,
      "d": 200,
      "v": 51
    },
    {
      "midi": 43,
      "hit": false,
      "t": 115200,
      "d": 1600,
      "v": 57
    },
    {
      "midi": 59,
      "hit": false,
      "t": 115600,
      "d": 1200,
      "v": 67
    },
    {
      "midi": 67,
      "hit": false,
      "t": 115800,
      "d": 1000,
      "v": 44
    },
    {
      "midi": 71,
      "hit": false,
      "t": 115800,
      "d": 1200,
      "v": 54
    },
    {
      "midi": 74,
      "hit": false,
      "t": 115800,
      "d": 1200,
      "v": 60
    },
    {
      "midi": 83,
      "hit": false,
      "t": 115800,
      "d": 1200,
      "v": 47
    },
    {
      "midi": 59,
      "hit": false,
      "t": 116800,
      "d": 200,
      "v": 74
    },
    {
      "midi": 50,
      "hit": false,
      "t": 117000,
      "d": 1800,
      "v": 65
    },
    {
      "midi": 57,
      "hit": false,
      "t": 117300,
      "d": 1500,
      "v": 70
    },
    {
      "midi": 62,
      "hit": false,
      "t": 117600,
      "d": 1200,
      "v": 70
    },
    {
      "midi": 66,
      "hit": false,
      "t": 117900,
      "d": 900,
      "v": 62
    },
    {
      "midi": 69,
      "hit": false,
      "t": 118200,
      "d": 600,
      "v": 75
    },
    {
      "midi": 71,
      "hit": false,
      "t": 118800,
      "d": 810,
      "v": 64
    },
    {
      "midi": 43,
      "hit": false,
      "t": 118805,
      "d": 1795,
      "v": 58
    },
    {
      "midi": 59,
      "hit": false,
      "t": 119110,
      "d": 1490,
      "v": 58
    },
    {
      "midi": 62,
      "hit": false,
      "t": 119435,
      "d": 145,
      "v": 81
    },
    {
      "midi": 71,
      "hit": false,
      "t": 120040,
      "d": 560,
      "v": 51
    },
    {
      "midi": 74,
      "hit": false,
      "t": 120040,
      "d": 560,
      "v": 63
    },
    {
      "midi": 79,
      "hit": false,
      "t": 120050,
      "d": 550,
      "v": 52
    },
    {
      "midi": 47,
      "hit": false,
      "t": 120600,
      "d": 1800,
      "v": 66
    },
    {
      "midi": 57,
      "hit": false,
      "t": 121200,
      "d": 1200,
      "v": 75
    },
    {
      "midi": 62,
      "hit": false,
      "t": 121200,
      "d": 1200,
      "v": 58
    },
    {
      "midi": 66,
      "hit": false,
      "t": 121200,
      "d": 1200,
      "v": 44
    },
    {
      "midi": 45,
      "hit": false,
      "t": 122400,
      "d": 1600,
      "v": 57
    },
    {
      "midi": 52,
      "hit": false,
      "t": 122800,
      "d": 1200,
      "v": 67
    },
    {
      "midi": 60,
      "hit": false,
      "t": 123000,
      "d": 1000,
      "v": 44
    },
    {
      "midi": 64,
      "hit": false,
      "t": 123000,
      "d": 1200,
      "v": 54
    },
    {
      "midi": 69,
      "hit": false,
      "t": 123000,
      "d": 1200,
      "v": 60
    },
    {
      "midi": 76,
      "hit": false,
      "t": 123000,
      "d": 1200,
      "v": 47
    },
    {
      "midi": 52,
      "hit": false,
      "t": 124000,
      "d": 225,
      "v": 74
    },
    {
      "midi": 45,
      "hit": false,
      "t": 124225,
      "d": 1775,
      "v": 70
    },
    {
      "midi": 52,
      "hit": false,
      "t": 124600,
      "d": 1400,
      "v": 47
    },
    {
      "midi": 64,
      "hit": false,
      "t": 124800,
      "d": 470,
      "v": 47
    },
    {
      "midi": 69,
      "hit": false,
      "t": 124800,
      "d": 470,
      "v": 62
    },
    {
      "midi": 76,
      "hit": false,
      "t": 124800,
      "d": 480,
      "v": 48
    },
    {
      "midi": 60,
      "hit": false,
      "t": 124800,
      "d": 1200,
      "v": 52
    },
    {
      "midi": 64,
      "hit": false,
      "t": 125400,
      "d": 200,
      "v": 47
    },
    {
      "midi": 69,
      "hit": false,
      "t": 125400,
      "d": 200,
      "v": 66
    },
    {
      "midi": 76,
      "hit": false,
      "t": 125400,
      "d": 200,
      "v": 51
    },
    {
      "midi": 50,
      "hit": false,
      "t": 126000,
      "d": 1600,
      "v": 57
    },
    {
      "midi": 57,
      "hit": false,
      "t": 126400,
      "d": 1200,
      "v": 67
    },
    {
      "midi": 66,
      "hit": false,
      "t": 126600,
      "d": 1000,
      "v": 44
    },
    {
      "midi": 69,
      "hit": false,
      "t": 126600,
      "d": 1200,
      "v": 54
    },
    {
      "midi": 74,
      "hit": false,
      "t": 126600,
      "d": 1200,
      "v": 60
    },
    {
      "midi": 81,
      "hit": false,
      "t": 126600,
      "d": 1200,
      "v": 47
    },
    {
      "midi": 57,
      "hit": false,
      "t": 127600,
      "d": 225,
      "v": 74
    },
    {
      "midi": 50,
      "hit": false,
      "t": 127825,
      "d": 1775,
      "v": 70
    },
    {
      "midi": 57,
      "hit": false,
      "t": 128200,
      "d": 1400,
      "v": 47
    },
    {
      "midi": 69,
      "hit": false,
      "t": 128400,
      "d": 470,
      "v": 47
    },
    {
      "midi": 74,
      "hit": false,
      "t": 128400,
      "d": 470,
      "v": 62
    },
    {
      "midi": 81,
      "hit": false,
      "t": 128400,
      "d": 480,
      "v": 48
    },
    {
      "midi": 66,
      "hit": false,
      "t": 128400,
      "d": 1200,
      "v": 52
    },
    {
      "midi": 69,
      "hit": false,
      "t": 129000,
      "d": 200,
      "v": 47
    },
    {
      "midi": 74,
      "hit": false,
      "t": 129000,
      "d": 200,
      "v": 66
    },
    {
      "midi": 81,
      "hit": false,
      "t": 129000,
      "d": 200,
      "v": 51
    },
    {
      "midi": 71,
      "hit": false,
      "t": 129600,
      "d": 810,
      "v": 64
    },
    {
      "midi": 43,
      "hit": false,
      "t": 129605,
      "d": 1795,
      "v": 58
    },
    {
      "midi": 59,
      "hit": false,
      "t": 129910,
      "d": 1490,
      "v": 58
    },
    {
      "midi": 62,
      "hit": false,
      "t": 130235,
      "d": 145,
      "v": 81
    },
    {
      "midi": 71,
      "hit": false,
      "t": 130840,
      "d": 560,
      "v": 51
    },
    {
      "midi": 74,
      "hit": false,
      "t": 130840,
      "d": 560,
      "v": 63
    },
    {
      "midi": 79,
      "hit": false,
      "t": 130850,
      "d": 550,
      "v": 52
    },
    {
      "midi": 47,
      "hit": false,
      "t": 131400,
      "d": 1600,
      "v": 57
    },
    {
      "midi": 54,
      "hit": false,
      "t": 131800,
      "d": 1200,
      "v": 67
    },
    {
      "midi": 62,
      "hit": false,
      "t": 132000,
      "d": 1000,
      "v": 44
    },
    {
      "midi": 66,
      "hit": false,
      "t": 132000,
      "d": 1200,
      "v": 54
    },
    {
      "midi": 71,
      "hit": false,
      "t": 132000,
      "d": 1200,
      "v": 60
    },
    {
      "midi": 78,
      "hit": false,
      "t": 132000,
      "d": 1200,
      "v": 47
    },
    {
      "midi": 54,
      "hit": false,
      "t": 133000,
      "d": 200,
      "v": 74
    },
    {
      "midi": 64,
      "hit": false,
      "t": 133200,
      "d": 810,
      "v": 64
    },
    {
      "midi": 45,
      "hit": false,
      "t": 133205,
      "d": 1795,
      "v": 58
    },
    {
      "midi": 52,
      "hit": false,
      "t": 133510,
      "d": 1490,
      "v": 58
    },
    {
      "midi": 57,
      "hit": false,
      "t": 133835,
      "d": 145,
      "v": 81
    },
    {
      "midi": 64,
      "hit": false,
      "t": 134440,
      "d": 560,
      "v": 51
    },
    {
      "midi": 69,
      "hit": false,
      "t": 134440,
      "d": 560,
      "v": 63
    },
    {
      "midi": 72,
      "hit": false,
      "t": 134450,
      "d": 550,
      "v": 52
    },
    {
      "midi": 45,
      "hit": false,
      "t": 135000,
      "d": 1800,
      "v": 66
    },
    {
      "midi": 52,
      "hit": false,
      "t": 135600,
      "d": 1200,
      "v": 75
    },
    {
      "midi": 60,
      "hit": false,
      "t": 135600,
      "d": 1200,
      "v": 58
    },
    {
      "midi": 64,
      "hit": false,
      "t": 135600,
      "d": 1200,
      "v": 44
    },
    {
      "midi": 69,
      "hit": false,
      "t": 136800,
      "d": 810,
      "v": 64
    },
    {
      "midi": 50,
      "hit": false,
      "t": 136805,
      "d": 1795,
      "v": 58
    },
    {
      "midi": 57,
      "hit": false,
      "t": 137110,
      "d": 1490,
      "v": 58
    },
    {
      "midi": 62,
      "hit": false,
      "t": 137435,
      "d": 145,
      "v": 81
    },
    {
      "midi": 69,
      "hit": false,
      "t": 138040,
      "d": 560,
      "v": 51
    },
    {
      "midi": 74,
      "hit": false,
      "t": 138040,
      "d": 560,
      "v": 63
    },
    {
      "midi": 78,
      "hit": false,
      "t": 138050,
      "d": 550,
      "v": 52
    },
    {
      "midi": 69,
      "hit": false,
      "t": 138600,
      "d": 810,
      "v": 64
    },
    {
      "midi": 50,
      "hit": false,
      "t": 138605,
      "d": 1795,
      "v": 58
    },
    {
      "midi": 57,
      "hit": false,
      "t": 138910,
      "d": 1490,
      "v": 58
    },
    {
      "midi": 62,
      "hit": false,
      "t": 139235,
      "d": 145,
      "v": 81
    },
    {
      "midi": 69,
      "hit": false,
      "t": 139840,
      "d": 560,
      "v": 51
    },
    {
      "midi": 74,
      "hit": false,
      "t": 139840,
      "d": 560,
      "v": 63
    },
    {
      "midi": 78,
      "hit": false,
      "t": 139850,
      "d": 550,
      "v": 52
    },
    {
      "midi": 43,
      "hit": false,
      "t": 140400,
      "d": 1800,
      "v": 66
    },
    {
      "midi": 59,
      "hit": false,
      "t": 141000,
      "d": 1200,
      "v": 75
    },
    {
      "midi": 67,
      "hit": false,
      "t": 141000,
      "d": 1200,
      "v": 58
    },
    {
      "midi": 71,
      "hit": false,
      "t": 141000,
      "d": 1200,
      "v": 44
    },
    {
      "midi": 39,
      "hit": false,
      "t": 142200,
      "d": 1800,
      "v": 65
    },
    {
      "midi": 51,
      "hit": false,
      "t": 142500,
      "d": 1500,
      "v": 70
    },
    {
      "midi": 55,
      "hit": false,
      "t": 142800,
      "d": 1200,
      "v": 70
    },
    {
      "midi": 58,
      "hit": false,
      "t": 143100,
      "d": 900,
      "v": 62
    },
    {
      "midi": 61,
      "hit": false,
      "t": 143400,
      "d": 600,
      "v": 75
    },
    {
      "midi": 63,
      "hit": false,
      "t": 143700,
      "d": 300,
      "v": 58
    },
    {
      "midi": 72,
      "hit": false,
      "t": 144000,
      "d": 810,
      "v": 64
    },
    {
      "midi": 44,
      "hit": false,
      "t": 144005,
      "d": 1795,
      "v": 58
    },
    {
      "midi": 60,
      "hit": false,
      "t": 144310,
      "d": 1490,
      "v": 58
    },
    {
      "midi": 63,
      "hit": false,
      "t": 144635,
      "d": 145,
      "v": 81
    },
    {
      "midi": 72,
      "hit": false,
      "t": 145240,
      "d": 560,
      "v": 51
    },
    {
      "midi": 75,
      "hit": false,
      "t": 145240,
      "d": 560,
      "v": 63
    },
    {
      "midi": 80,
      "hit": false,
      "t": 145250,
      "d": 550,
      "v": 52
    },
    {
      "midi": 48,
      "hit": false,
      "t": 145800,
      "d": 1600,
      "v": 57
    },
    {
      "midi": 55,
      "hit": false,
      "t": 146200,
      "d": 1200,
      "v": 67
    },
    {
      "midi": 60,
      "hit": false,
      "t": 146400,
      "d": 1000,
      "v": 44
    },
    {
      "midi": 67,
      "hit": false,
      "t": 146400,
      "d": 1200,
      "v": 54
    },
    {
      "midi": 70,
      "hit": false,
      "t": 146400,
      "d": 1200,
      "v": 60
    },
    {
      "midi": 75,
      "hit": false,
      "t": 146400,
      "d": 1200,
      "v": 47
    },
    {
      "midi": 55,
      "hit": false,
      "t": 147400,
      "d": 200,
      "v": 74
    },
    {
      "midi": 46,
      "hit": false,
      "t": 147600,
      "d": 1600,
      "v": 57
    },
    {
      "midi": 53,
      "hit": false,
      "t": 148000,
      "d": 1200,
      "v": 67
    },
    {
      "midi": 61,
      "hit": false,
      "t": 148200,
      "d": 1000,
      "v": 44
    },
    {
      "midi": 65,
      "hit": false,
      "t": 148200,
      "d": 1200,
      "v": 54
    },
    {
      "midi": 70,
      "hit": false,
      "t": 148200,
      "d": 1200,
      "v": 60
    },
    {
      "midi": 77,
      "hit": false,
      "t": 148200,
      "d": 1200,
      "v": 47
    },
    {
      "midi": 53,
      "hit": false,
      "t": 149200,
      "d": 225,
      "v": 74
    },
    {
      "midi": 46,
      "hit": false,
      "t": 149425,
      "d": 1775,
      "v": 70
    },
    {
      "midi": 53,
      "hit": false,
      "t": 149800,
      "d": 1400,
      "v": 47
    },
    {
      "midi": 65,
      "hit": false,
      "t": 150000,
      "d": 470,
      "v": 47
    },
    {
      "midi": 70,
      "hit": false,
      "t": 150000,
      "d": 470,
      "v": 62
    },
    {
      "midi": 77,
      "hit": false,
      "t": 150000,
      "d": 480,
      "v": 48
    },
    {
      "midi": 61,
      "hit": false,
      "t": 150000,
      "d": 1200,
      "v": 52
    },
    {
      "midi": 65,
      "hit": false,
      "t": 150600,
      "d": 200,
      "v": 47
    },
    {
      "midi": 70,
      "hit": false,
      "t": 150600,
      "d": 200,
      "v": 66
    },
    {
      "midi": 77,
      "hit": false,
      "t": 150600,
      "d": 200,
      "v": 51
    },
    {
      "midi": 39,
      "hit": false,
      "t": 151200,
      "d": 1600,
      "v": 57
    },
    {
      "midi": 55,
      "hit": false,
      "t": 151600,
      "d": 1200,
      "v": 67
    },
    {
      "midi": 63,
      "hit": false,
      "t": 151800,
      "d": 1000,
      "v": 44
    },
    {
      "midi": 67,
      "hit": false,
      "t": 151800,
      "d": 1200,
      "v": 54
    },
    {
      "midi": 70,
      "hit": false,
      "t": 151800,
      "d": 1200,
      "v": 60
    },
    {
      "midi": 79,
      "hit": false,
      "t": 151800,
      "d": 1200,
      "v": 47
    },
    {
      "midi": 55,
      "hit": false,
      "t": 152800,
      "d": 225,
      "v": 74
    },
    {
      "midi": 39,
      "hit": false,
      "t": 153025,
      "d": 1775,
      "v": 70
    },
    {
      "midi": 55,
      "hit": false,
      "t": 153400,
      "d": 1400,
      "v": 47
    },
    {
      "midi": 67,
      "hit": false,
      "t": 153600,
      "d": 470,
      "v": 47
    },
    {
      "midi": 70,
      "hit": false,
      "t": 153600,
      "d": 470,
      "v": 62
    },
    {
      "midi": 79,
      "hit": false,
      "t": 153600,
      "d": 480,
      "v": 48
    },
    {
      "midi": 63,
      "hit": false,
      "t": 153600,
      "d": 1200,
      "v": 52
    },
    {
      "midi": 67,
      "hit": false,
      "t": 154200,
      "d": 200,
      "v": 47
    },
    {
      "midi": 70,
      "hit": false,
      "t": 154200,
      "d": 200,
      "v": 66
    },
    {
      "midi": 79,
      "hit": false,
      "t": 154200,
      "d": 200,
      "v": 51
    },
    {
      "midi": 44,
      "hit": false,
      "t": 154800,
      "d": 1800,
      "v": 66
    },
    {
      "midi": 60,
      "hit": false,
      "t": 155400,
      "d": 1200,
      "v": 75
    },
    {
      "midi": 68,
      "hit": false,
      "t": 155400,
      "d": 1200,
      "v": 58
    },
    {
      "midi": 72,
      "hit": false,
      "t": 155400,
      "d": 1200,
      "v": 44
    },
    {
      "midi": 39,
      "hit": false,
      "t": 156600,
      "d": 1600,
      "v": 57
    },
    {
      "midi": 55,
      "hit": false,
      "t": 157000,
      "d": 1200,
      "v": 67
    },
    {
      "midi": 63,
      "hit": false,
      "t": 157200,
      "d": 1000,
      "v": 44
    },
    {
      "midi": 67,
      "hit": false,
      "t": 157200,
      "d": 1200,
      "v": 54
    },
    {
      "midi": 70,
      "hit": false,
      "t": 157200,
      "d": 1200,
      "v": 60
    },
    {
      "midi": 79,
      "hit": false,
      "t": 157200,
      "d": 1200,
      "v": 47
    },
    {
      "midi": 55,
      "hit": false,
      "t": 158200,
      "d": 200,
      "v": 74
    },
    {
      "midi": 44,
      "hit": false,
      "t": 158400,
      "d": 1800,
      "v": 66
    },
    {
      "midi": 60,
      "hit": false,
      "t": 159000,
      "d": 1200,
      "v": 75
    },
    {
      "midi": 68,
      "hit": false,
      "t": 159000,
      "d": 1200,
      "v": 58
    },
    {
      "midi": 72,
      "hit": false,
      "t": 159000,
      "d": 1200,
      "v": 44
    },
    {
      "midi": 48,
      "hit": false,
      "t": 160200,
      "d": 1800,
      "v": 65
    },
    {
      "midi": 55,
      "hit": false,
      "t": 160500,
      "d": 1500,
      "v": 70
    },
    {
      "midi": 58,
      "hit": false,
      "t": 160800,
      "d": 1200,
      "v": 70
    },
    {
      "midi": 60,
      "hit": false,
      "t": 161100,
      "d": 900,
      "v": 62
    },
    {
      "midi": 63,
      "hit": false,
      "t": 161400,
      "d": 600,
      "v": 75
    },
    {
      "midi": 67,
      "hit": false,
      "t": 161700,
      "d": 300,
      "v": 58
    },
    {
      "midi": 46,
      "hit": false,
      "t": 162000,
      "d": 1600,
      "v": 57
    },
    {
      "midi": 53,
      "hit": false,
      "t": 162400,
      "d": 1200,
      "v": 67
    },
    {
      "midi": 61,
      "hit": false,
      "t": 162600,
      "d": 1000,
      "v": 44
    },
    {
      "midi": 65,
      "hit": false,
      "t": 162600,
      "d": 1200,
      "v": 54
    },
    {
      "midi": 70,
      "hit": false,
      "t": 162600,
      "d": 1200,
      "v": 60
    },
    {
      "midi": 77,
      "hit": false,
      "t": 162600,
      "d": 1200,
      "v": 47
    },
    {
      "midi": 53,
      "hit": false,
      "t": 163600,
      "d": 225,
      "v": 74
    },
    {
      "midi": 46,
      "hit": false,
      "t": 163825,
      "d": 1775,
      "v": 70
    },
    {
      "midi": 53,
      "hit": false,
      "t": 164200,
      "d": 1400,
      "v": 47
    },
    {
      "midi": 65,
      "hit": false,
      "t": 164400,
      "d": 470,
      "v": 47
    },
    {
      "midi": 70,
      "hit": false,
      "t": 164400,
      "d": 470,
      "v": 62
    },
    {
      "midi": 77,
      "hit": false,
      "t": 164400,
      "d": 480,
      "v": 48
    },
    {
      "midi": 61,
      "hit": false,
      "t": 164400,
      "d": 1200,
      "v": 52
    },
    {
      "midi": 65,
      "hit": false,
      "t": 165000,
      "d": 200,
      "v": 47
    },
    {
      "midi": 70,
      "hit": false,
      "t": 165000,
      "d": 200,
      "v": 66
    },
    {
      "midi": 77,
      "hit": false,
      "t": 165000,
      "d": 200,
      "v": 51
    },
    {
      "midi": 39,
      "hit": false,
      "t": 165600,
      "d": 1600,
      "v": 57
    },
    {
      "midi": 55,
      "hit": false,
      "t": 166000,
      "d": 1200,
      "v": 67
    },
    {
      "midi": 63,
      "hit": false,
      "t": 166200,
      "d": 1000,
      "v": 44
    },
    {
      "midi": 67,
      "hit": false,
      "t": 166200,
      "d": 1200,
      "v": 54
    },
    {
      "midi": 70,
      "hit": false,
      "t": 166200,
      "d": 1200,
      "v": 60
    },
    {
      "midi": 79,
      "hit": false,
      "t": 166200,
      "d": 1200,
      "v": 47
    },
    {
      "midi": 55,
      "hit": false,
      "t": 167200,
      "d": 225,
      "v": 74
    },
    {
      "midi": 39,
      "hit": false,
      "t": 167425,
      "d": 1775,
      "v": 70
    },
    {
      "midi": 55,
      "hit": false,
      "t": 167800,
      "d": 1400,
      "v": 47
    },
    {
      "midi": 67,
      "hit": false,
      "t": 168000,
      "d": 470,
      "v": 47
    },
    {
      "midi": 70,
      "hit": false,
      "t": 168000,
      "d": 470,
      "v": 62
    },
    {
      "midi": 79,
      "hit": false,
      "t": 168000,
      "d": 480,
      "v": 48
    },
    {
      "midi": 63,
      "hit": false,
      "t": 168000,
      "d": 1200,
      "v": 52
    },
    {
      "midi": 67,
      "hit": false,
      "t": 168600,
      "d": 200,
      "v": 47
    },
    {
      "midi": 70,
      "hit": false,
      "t": 168600,
      "d": 200,
      "v": 66
    },
    {
      "midi": 79,
      "hit": false,
      "t": 168600,
      "d": 200,
      "v": 51
    },
    {
      "midi": 44,
      "hit": false,
      "t": 169200,
      "d": 1800,
      "v": 65
    },
    {
      "midi": 60,
      "hit": false,
      "t": 169500,
      "d": 1500,
      "v": 70
    },
    {
      "midi": 63,
      "hit": false,
      "t": 169800,
      "d": 1200,
      "v": 70
    },
    {
      "midi": 68,
      "hit": false,
      "t": 170100,
      "d": 900,
      "v": 62
    },
    {
      "midi": 72,
      "hit": false,
      "t": 170400,
      "d": 600,
      "v": 75
    },
    {
      "midi": 39,
      "hit": false,
      "t": 171000,
      "d": 1800,
      "v": 65
    },
    {
      "midi": 55,
      "hit": false,
      "t": 171300,
      "d": 1500,
      "v": 70
    },
    {
      "midi": 58,
      "hit": false,
      "t": 171600,
      "d": 1200,
      "v": 70
    },
    {
      "midi": 63,
      "hit": false,
      "t": 171900,
      "d": 900,
      "v": 62
    },
    {
      "midi": 67,
      "hit": false,
      "t": 172200,
      "d": 600,
      "v": 75
    },
    {
      "midi": 44,
      "hit": false,
      "t": 172800,
      "d": 1800,
      "v": 66
    },
    {
      "midi": 60,
      "hit": false,
      "t": 173400,
      "d": 1200,
      "v": 75
    },
    {
      "midi": 68,
      "hit": false,
      "t": 173400,
      "d": 1200,
      "v": 58
    },
    {
      "midi": 72,
      "hit": false,
      "t": 173400,
      "d": 1200,
      "v": 44
    },
    {
      "midi": 48,
      "hit": false,
      "t": 174600,
      "d": 1800,
      "v": 66
    },
    {
      "midi": 58,
      "hit": false,
      "t": 175200,
      "d": 1200,
      "v": 75
    },
    {
      "midi": 63,
      "hit": false,
      "t": 175200,
      "d": 1200,
      "v": 58
    },
    {
      "midi": 67,
      "hit": false,
      "t": 175200,
      "d": 1200,
      "v": 44
    },
    {
      "midi": 46,
      "hit": false,
      "t": 176400,
      "d": 1600,
      "v": 57
    },
    {
      "midi": 53,
      "hit": false,
      "t": 176800,
      "d": 1200,
      "v": 67
    },
    {
      "midi": 61,
      "hit": false,
      "t": 177000,
      "d": 1000,
      "v": 44
    },
    {
      "midi": 65,
      "hit": false,
      "t": 177000,
      "d": 1200,
      "v": 54
    },
    {
      "midi": 70,
      "hit": false,
      "t": 177000,
      "d": 1200,
      "v": 60
    },
    {
      "midi": 77,
      "hit": false,
      "t": 177000,
      "d": 1200,
      "v": 47
    },
    {
      "midi": 53,
      "hit": false,
      "t": 178000,
      "d": 225,
      "v": 74
    },
    {
      "midi": 46,
      "hit": false,
      "t": 178225,
      "d": 1775,
      "v": 70
    },
    {
      "midi": 53,
      "hit": false,
      "t": 178600,
      "d": 1400,
      "v": 47
    },
    {
      "midi": 65,
      "hit": false,
      "t": 178800,
      "d": 470,
      "v": 47
    },
    {
      "midi": 70,
      "hit": false,
      "t": 178800,
      "d": 470,
      "v": 62
    },
    {
      "midi": 77,
      "hit": false,
      "t": 178800,
      "d": 480,
      "v": 48
    },
    {
      "midi": 61,
      "hit": false,
      "t": 178800,
      "d": 1200,
      "v": 52
    },
    {
      "midi": 65,
      "hit": false,
      "t": 179400,
      "d": 200,
      "v": 47
    },
    {
      "midi": 70,
      "hit": false,
      "t": 179400,
      "d": 200,
      "v": 66
    },
    {
      "midi": 77,
      "hit": false,
      "t": 179400,
      "d": 200,
      "v": 51
    },
    {
      "midi": 39,
      "hit": false,
      "t": 180000,
      "d": 1600,
      "v": 57
    },
    {
      "midi": 55,
      "hit": false,
      "t": 180400,
      "d": 1200,
      "v": 67
    },
    {
      "midi": 63,
      "hit": false,
      "t": 180600,
      "d": 1000,
      "v": 44
    },
    {
      "midi": 67,
      "hit": false,
      "t": 180600,
      "d": 1200,
      "v": 54
    },
    {
      "midi": 70,
      "hit": false,
      "t": 180600,
      "d": 1200,
      "v": 60
    },
    {
      "midi": 79,
      "hit": false,
      "t": 180600,
      "d": 1200,
      "v": 47
    },
    {
      "midi": 55,
      "hit": false,
      "t": 181600,
      "d": 225,
      "v": 74
    },
    {
      "midi": 39,
      "hit": false,
      "t": 181825,
      "d": 1775,
      "v": 70
    },
    {
      "midi": 55,
      "hit": false,
      "t": 182200,
      "d": 1400,
      "v": 47
    },
    {
      "midi": 67,
      "hit": false,
      "t": 182400,
      "d": 470,
      "v": 47
    },
    {
      "midi": 70,
      "hit": false,
      "t": 182400,
      "d": 470,
      "v": 62
    },
    {
      "midi": 79,
      "hit": false,
      "t": 182400,
      "d": 480,
      "v": 48
    },
    {
      "midi": 63,
      "hit": false,
      "t": 182400,
      "d": 1200,
      "v": 52
    },
    {
      "midi": 67,
      "hit": false,
      "t": 183000,
      "d": 200,
      "v": 47
    },
    {
      "midi": 70,
      "hit": false,
      "t": 183000,
      "d": 200,
      "v": 66
    },
    {
      "midi": 79,
      "hit": false,
      "t": 183000,
      "d": 200,
      "v": 51
    },
    {
      "midi": 44,
      "hit": false,
      "t": 183600,
      "d": 1600,
      "v": 57
    },
    {
      "midi": 60,
      "hit": false,
      "t": 184000,
      "d": 1200,
      "v": 67
    },
    {
      "midi": 68,
      "hit": false,
      "t": 184200,
      "d": 1000,
      "v": 44
    },
    {
      "midi": 72,
      "hit": false,
      "t": 184200,
      "d": 1200,
      "v": 54
    },
    {
      "midi": 75,
      "hit": false,
      "t": 184200,
      "d": 1200,
      "v": 60
    },
    {
      "midi": 84,
      "hit": false,
      "t": 184200,
      "d": 1200,
      "v": 47
    },
    {
      "midi": 60,
      "hit": false,
      "t": 185200,
      "d": 200,
      "v": 74
    },
    {
      "midi": 67,
      "hit": false,
      "t": 185400,
      "d": 810,
      "v": 64
    },
    {
      "midi": 39,
      "hit": false,
      "t": 185405,
      "d": 1795,
      "v": 58
    },
    {
      "midi": 55,
      "hit": false,
      "t": 185710,
      "d": 1490,
      "v": 58
    },
    {
      "midi": 58,
      "hit": false,
      "t": 186035,
      "d": 145,
      "v": 81
    },
    {
      "midi": 67,
      "hit": false,
      "t": 186640,
      "d": 560,
      "v": 51
    },
    {
      "midi": 70,
      "hit": false,
      "t": 186640,
      "d": 560,
      "v": 63
    },
    {
      "midi": 75,
      "hit": false,
      "t": 186650,
      "d": 550,
      "v": 52
    },
    {
      "midi": 72,
      "hit": false,
      "t": 187200,
      "d": 810,
      "v": 64
    },
    {
      "midi": 44,
      "hit": false,
      "t": 187205,
      "d": 1795,
      "v": 58
    },
    {
      "midi": 60,
      "hit": false,
      "t": 187510,
      "d": 1490,
      "v": 58
    },
    {
      "midi": 63,
      "hit": false,
      "t": 187835,
      "d": 145,
      "v": 81
    },
    {
      "midi": 72,
      "hit": false,
      "t": 188440,
      "d": 560,
      "v": 51
    },
    {
      "midi": 75,
      "hit": false,
      "t": 188440,
      "d": 560,
      "v": 63
    },
    {
      "midi": 80,
      "hit": false,
      "t": 188450,
      "d": 550,
      "v": 52
    },
    {
      "midi": 48,
      "hit": false,
      "t": 189000,
      "d": 1800,
      "v": 66
    },
    {
      "midi": 58,
      "hit": false,
      "t": 189600,
      "d": 1200,
      "v": 75
    },
    {
      "midi": 63,
      "hit": false,
      "t": 189600,
      "d": 1200,
      "v": 58
    },
    {
      "midi": 67,
      "hit": false,
      "t": 189600,
      "d": 1200,
      "v": 44
    },
    {
      "midi": 46,
      "hit": false,
      "t": 190800,
      "d": 1600,
      "v": 57
    },
    {
      "midi": 53,
      "hit": false,
      "t": 191200,
      "d": 1200,
      "v": 67
    },
    {
      "midi": 61,
      "hit": false,
      "t": 191400,
      "d": 1000,
      "v": 44
    },
    {
      "midi": 65,
      "hit": false,
      "t": 191400,
      "d": 1200,
      "v": 54
    },
    {
      "midi": 70,
      "hit": false,
      "t": 191400,
      "d": 1200,
      "v": 60
    },
    {
      "midi": 77,
      "hit": false,
      "t": 191400,
      "d": 1200,
      "v": 47
    },
    {
      "midi": 53,
      "hit": false,
      "t": 192400,
      "d": 225,
      "v": 74
    },
    {
      "midi": 46,
      "hit": false,
      "t": 192625,
      "d": 1775,
      "v": 70
    },
    {
      "midi": 53,
      "hit": false,
      "t": 193000,
      "d": 1400,
      "v": 47
    },
    {
      "midi": 65,
      "hit": false,
      "t": 193200,
      "d": 470,
      "v": 47
    },
    {
      "midi": 70,
      "hit": false,
      "t": 193200,
      "d": 470,
      "v": 62
    },
    {
      "midi": 77,
      "hit": false,
      "t": 193200,
      "d": 480,
      "v": 48
    },
    {
      "midi": 61,
      "hit": false,
      "t": 193200,
      "d": 1200,
      "v": 52
    },
    {
      "midi": 65,
      "hit": false,
      "t": 193800,
      "d": 200,
      "v": 47
    },
    {
      "midi": 70,
      "hit": false,
      "t": 193800,
      "d": 200,
      "v": 66
    },
    {
      "midi": 77,
      "hit": false,
      "t": 193800,
      "d": 200,
      "v": 51
    },
    {
      "midi": 39,
      "hit": false,
      "t": 194400,
      "d": 1600,
      "v": 57
    },
    {
      "midi": 55,
      "hit": false,
      "t": 194800,
      "d": 1200,
      "v": 67
    },
    {
      "midi": 63,
      "hit": false,
      "t": 195000,
      "d": 1000,
      "v": 44
    },
    {
      "midi": 67,
      "hit": false,
      "t": 195000,
      "d": 1200,
      "v": 54
    },
    {
      "midi": 70,
      "hit": false,
      "t": 195000,
      "d": 1200,
      "v": 60
    },
    {
      "midi": 79,
      "hit": false,
      "t": 195000,
      "d": 1200,
      "v": 47
    },
    {
      "midi": 55,
      "hit": false,
      "t": 196000,
      "d": 225,
      "v": 74
    },
    {
      "midi": 39,
      "hit": false,
      "t": 196225,
      "d": 1775,
      "v": 70
    },
    {
      "midi": 55,
      "hit": false,
      "t": 196600,
      "d": 1400,
      "v": 47
    },
    {
      "midi": 67,
      "hit": false,
      "t": 196800,
      "d": 470,
      "v": 47
    },
    {
      "midi": 70,
      "hit": false,
      "t": 196800,
      "d": 470,
      "v": 62
    },
    {
      "midi": 79,
      "hit": false,
      "t": 196800,
      "d": 480,
      "v": 48
    },
    {
      "midi": 63,
      "hit": false,
      "t": 196800,
      "d": 1200,
      "v": 52
    },
    {
      "midi": 67,
      "hit": false,
      "t": 197400,
      "d": 200,
      "v": 47
    },
    {
      "midi": 70,
      "hit": false,
      "t": 197400,
      "d": 200,
      "v": 66
    },
    {
      "midi": 79,
      "hit": false,
      "t": 197400,
      "d": 200,
      "v": 51
    },
    {
      "midi": 44,
      "hit": false,
      "t": 198000,
      "d": 1600,
      "v": 57
    },
    {
      "midi": 60,
      "hit": false,
      "t": 198400,
      "d": 1200,
      "v": 67
    },
    {
      "midi": 68,
      "hit": false,
      "t": 198600,
      "d": 1000,
      "v": 44
    },
    {
      "midi": 72,
      "hit": false,
      "t": 198600,
      "d": 1200,
      "v": 54
    },
    {
      "midi": 75,
      "hit": false,
      "t": 198600,
      "d": 1200,
      "v": 60
    },
    {
      "midi": 84,
      "hit": false,
      "t": 198600,
      "d": 1200,
      "v": 47
    },
    {
      "midi": 60,
      "hit": false,
      "t": 199600,
      "d": 200,
      "v": 74
    },
    {
      "midi": 39,
      "hit": false,
      "t": 199800,
      "d": 1800,
      "v": 65
    },
    {
      "midi": 55,
      "hit": false,
      "t": 200100,
      "d": 1500,
      "v": 70
    },
    {
      "midi": 58,
      "hit": false,
      "t": 200400,
      "d": 1200,
      "v": 70
    },
    {
      "midi": 63,
      "hit": false,
      "t": 200700,
      "d": 900,
      "v": 62
    },
    {
      "midi": 67,
      "hit": false,
      "t": 201000,
      "d": 600,
      "v": 75
    },
    {
      "midi": 44,
      "hit": false,
      "t": 201600,
      "d": 1800,
      "v": 66
    },
    {
      "midi": 60,
      "hit": false,
      "t": 202200,
      "d": 1200,
      "v": 75
    },
    {
      "midi": 68,
      "hit": false,
      "t": 202200,
      "d": 1200,
      "v": 58
    },
    {
      "midi": 72,
      "hit": false,
      "t": 202200,
      "d": 1200,
      "v": 44
    },
    {
      "midi": 48,
      "hit": false,
      "t": 203400,
      "d": 1800,
      "v": 65
    },
    {
      "midi": 55,
      "hit": false,
      "t": 203700,
      "d": 1500,
      "v": 70
    },
    {
      "midi": 58,
      "hit": false,
      "t": 204000,
      "d": 1200,
      "v": 70
    },
    {
      "midi": 60,
      "hit": false,
      "t": 204300,
      "d": 900,
      "v": 62
    },
    {
      "midi": 63,
      "hit": false,
      "t": 204600,
      "d": 600,
      "v": 75
    },
    {
      "midi": 67,
      "hit": false,
      "t": 204900,
      "d": 300,
      "v": 58
    },
    {
      "midi": 46,
      "hit": false,
      "t": 205200,
      "d": 1800,
      "v": 65
    },
    {
      "midi": 53,
      "hit": false,
      "t": 205500,
      "d": 1500,
      "v": 70
    },
    {
      "midi": 58,
      "hit": false,
      "t": 205800,
      "d": 1200,
      "v": 70
    },
    {
      "midi": 61,
      "hit": false,
      "t": 206100,
      "d": 900,
      "v": 62
    },
    {
      "midi": 65,
      "hit": false,
      "t": 206400,
      "d": 600,
      "v": 75
    },
    {
      "midi": 58,
      "hit": false,
      "t": 207635,
      "d": 375,
      "v": 92
    },
    {
      "midi": 60,
      "hit": false,
      "t": 207905,
      "d": 325,
      "v": 83
    },
    {
      "midi": 61,
      "hit": false,
      "t": 208190,
      "d": 155,
      "v": 96
    },
    {
      "midi": 65,
      "hit": false,
      "t": 208500,
      "d": 95,
      "v": 97
    },
    {
      "midi": 61,
      "hit": false,
      "t": 208795,
      "d": 1540,
      "v": 77
    },
    {
      "midi": 65,
      "hit": false,
      "t": 208820,
      "d": 1500,
      "v": 91
    },
    {
      "midi": 70,
      "hit": false,
      "t": 208910,
      "d": 1425,
      "v": 95
    }
  ]
}