{
  "jsonPath": "Rock/Progressive Rock/Dream Theater/anna-lee-lp-version.json",
  "path": "Rock\\Progressive Rock\\Dream Theater\\Anna Lee (LP Version).mid",
  "name": "Anna Lee (LP Version)",
  "difficulty": "Advanced",
  "bpm": 65.00048750365627,
  "notes": [
    {
      "midi": 61,
      "hit": false,
      "t": 0,
      "d": 826.916875,
      "v": 48
    },
    {
      "midi": 64,
      "hit": false,
      "t": 0,
      "d": 838.936015625,
      "v": 61
    },
    {
      "midi": 45,
      "hit": false,
      "t": 0,
      "d": 3382.1861718749997,
      "v": 59
    },
    {
      "midi": 61,
      "hit": false,
      "t": 923.0699999999999,
      "d": 370.1895312500001,
      "v": 49
    },
    {
      "midi": 64,
      "hit": false,
      "t": 923.0699999999999,
      "d": 394.2278125,
      "v": 63
    },
    {
      "midi": 64,
      "hit": false,
      "t": 1846.1399999999999,
      "d": 141.82585937499994,
      "v": 47
    },
    {
      "midi": 73,
      "hit": false,
      "t": 1846.1399999999999,
      "d": 161.05648437499985,
      "v": 63
    },
    {
      "midi": 65,
      "hit": false,
      "t": 2076.9075,
      "d": 74.51867187500011,
      "v": 57
    },
    {
      "midi": 74,
      "hit": false,
      "t": 2076.9075,
      "d": 79.32632812500015,
      "v": 57
    },
    {
      "midi": 76,
      "hit": false,
      "t": 2307.675,
      "d": 69.71101562500007,
      "v": 55
    },
    {
      "midi": 67,
      "hit": false,
      "t": 2307.675,
      "d": 74.51867187500011,
      "v": 47
    },
    {
      "midi": 76,
      "hit": false,
      "t": 2538.4425,
      "d": 91.34546874999978,
      "v": 57
    },
    {
      "midi": 67,
      "hit": false,
      "t": 2538.4425,
      "d": 115.38374999999996,
      "v": 60
    },
    {
      "midi": 65,
      "hit": false,
      "t": 2999.9775,
      "d": 91.34546874999978,
      "v": 50
    },
    {
      "midi": 74,
      "hit": false,
      "t": 2999.9775,
      "d": 108.17226562499991,
      "v": 46
    },
    {
      "midi": 64,
      "hit": false,
      "t": 3230.745,
      "d": 108.17226562499991,
      "v": 52
    },
    {
      "midi": 73,
      "hit": false,
      "t": 3230.745,
      "d": 170.67179687499993,
      "v": 51
    },
    {
      "midi": 74,
      "hit": false,
      "t": 3692.28,
      "d": 372.5933593750001,
      "v": 51
    },
    {
      "midi": 69,
      "hit": false,
      "t": 3692.28,
      "d": 406.24695312500035,
      "v": 59
    },
    {
      "midi": 65,
      "hit": false,
      "t": 3692.28,
      "d": 524.0345312500008,
      "v": 53
    },
    {
      "midi": 45,
      "hit": false,
      "t": 3692.28,
      "d": 3528.8196875,
      "v": 47
    },
    {
      "midi": 69,
      "hit": false,
      "t": 4615.350000000001,
      "d": 122.59523437499956,
      "v": 57
    },
    {
      "midi": 74,
      "hit": false,
      "t": 4615.350000000001,
      "d": 124.99906249999913,
      "v": 50
    },
    {
      "midi": 65,
      "hit": false,
      "t": 4615.350000000001,
      "d": 149.0373437499993,
      "v": 60
    },
    {
      "midi": 62,
      "hit": false,
      "t": 5538.420000000001,
      "d": 122.59523437499956,
      "v": 51
    },
    {
      "midi": 65,
      "hit": false,
      "t": 5538.420000000001,
      "d": 141.8258593749997,
      "v": 55
    },
    {
      "midi": 64,
      "hit": false,
      "t": 5769.187500000001,
      "d": 74.51867187500011,
      "v": 30
    },
    {
      "midi": 67,
      "hit": false,
      "t": 5769.187500000001,
      "d": 134.6143750000001,
      "v": 50
    },
    {
      "midi": 65,
      "hit": false,
      "t": 5999.955000000001,
      "d": 103.36460937500033,
      "v": 54
    },
    {
      "midi": 69,
      "hit": false,
      "t": 5999.955000000001,
      "d": 105.76843749999989,
      "v": 59
    },
    {
      "midi": 65,
      "hit": false,
      "t": 6230.722500000001,
      "d": 391.8239843749998,
      "v": 60
    },
    {
      "midi": 69,
      "hit": false,
      "t": 6230.722500000001,
      "d": 391.8239843749998,
      "v": 57
    },
    {
      "midi": 64,
      "hit": false,
      "t": 6692.257500000001,
      "d": 96.15312499999982,
      "v": 44
    },
    {
      "midi": 67,
      "hit": false,
      "t": 6692.257500000001,
      "d": 127.4028906249996,
      "v": 46
    },
    {
      "midi": 65,
      "hit": false,
      "t": 6923.025000000001,
      "d": 86.53781249999975,
      "v": 60
    },
    {
      "midi": 62,
      "hit": false,
      "t": 6923.025000000001,
      "d": 91.34546874999978,
      "v": 50
    },
    {
      "midi": 64,
      "hit": false,
      "t": 7384.56,
      "d": 394.22781250000025,
      "v": 60
    },
    {
      "midi": 61,
      "hit": false,
      "t": 7384.56,
      "d": 483.16945312499956,
      "v": 42
    },
    {
      "midi": 45,
      "hit": false,
      "t": 7384.56,
      "d": 3461.5124999999925,
      "v": 41
    },
    {
      "midi": 57,
      "hit": false,
      "t": 7846.095,
      "d": 86.53781249999975,
      "v": 23
    },
    {
      "midi": 64,
      "hit": false,
      "t": 8307.63,
      "d": 420.669921875,
      "v": 49
    },
    {
      "midi": 61,
      "hit": false,
      "t": 8307.63,
      "d": 492.78476562499964,
      "v": 40
    },
    {
      "midi": 57,
      "hit": false,
      "t": 8769.164999999999,
      "d": 43.26890624999942,
      "v": 37
    },
    {
      "midi": 64,
      "hit": false,
      "t": 9230.699999999999,
      "d": 93.74929687499935,
      "v": 52
    },
    {
      "midi": 73,
      "hit": false,
      "t": 9230.699999999999,
      "d": 137.01820312499876,
      "v": 47
    },
    {
      "midi": 74,
      "hit": false,
      "t": 9461.467499999997,
      "d": 72.11484374999964,
      "v": 50
    },
    {
      "midi": 65,
      "hit": false,
      "t": 9461.467499999997,
      "d": 81.73015624999971,
      "v": 55
    },
    {
      "midi": 76,
      "hit": false,
      "t": 9692.234999999997,
      "d": 74.5186718749992,
      "v": 54
    },
    {
      "midi": 67,
      "hit": false,
      "t": 9692.234999999997,
      "d": 76.92249999999876,
      "v": 49
    },
    {
      "midi": 76,
      "hit": false,
      "t": 9923.002499999995,
      "d": 81.73015624999971,
      "v": 38
    },
    {
      "midi": 67,
      "hit": false,
      "t": 9923.002499999995,
      "d": 96.15312499999891,
      "v": 57
    },
    {
      "midi": 65,
      "hit": false,
      "t": 10384.537499999995,
      "d": 93.74929687499935,
      "v": 43
    },
    {
      "midi": 74,
      "hit": false,
      "t": 10384.537499999995,
      "d": 105.76843749999898,
      "v": 46
    },
    {
      "midi": 64,
      "hit": false,
      "t": 10615.304999999993,
      "d": 76.92250000000058,
      "v": 46
    },
    {
      "midi": 73,
      "hit": false,
      "t": 10615.304999999993,
      "d": 98.55695312500029,
      "v": 49
    },
    {
      "midi": 69,
      "hit": false,
      "t": 11076.839999999993,
      "d": 156.24882812500073,
      "v": 52
    },
    {
      "midi": 65,
      "hit": false,
      "t": 11076.839999999993,
      "d": 158.6526562500003,
      "v": 48
    },
    {
      "midi": 74,
      "hit": false,
      "t": 11076.839999999993,
      "d": 259.61343750000015,
      "v": 43
    },
    {
      "midi": 45,
      "hit": false,
      "t": 11076.839999999993,
      "d": 3466.3201562500017,
      "v": 36
    },
    {
      "midi": 73,
      "hit": false,
      "t": 12461.444999999992,
      "d": 91.34546874999978,
      "v": 29
    },
    {
      "midi": 76,
      "hit": false,
      "t": 12461.444999999992,
      "d": 163.46031249999942,
      "v": 46
    },
    {
      "midi": 73,
      "hit": false,
      "t": 12922.979999999992,
      "d": 105.7684375000008,
      "v": 38
    },
    {
      "midi": 77,
      "hit": false,
      "t": 12922.979999999992,
      "d": 112.97992187500131,
      "v": 55
    },
    {
      "midi": 69,
      "hit": false,
      "t": 13384.514999999994,
      "d": 86.53781250000065,
      "v": 36
    },
    {
      "midi": 64,
      "hit": false,
      "t": 13384.514999999994,
      "d": 103.36460937500124,
      "v": 42
    },
    {
      "midi": 73,
      "hit": false,
      "t": 13384.514999999994,
      "d": 103.36460937500124,
      "v": 32
    },
    {
      "midi": 74,
      "hit": false,
      "t": 13846.049999999996,
      "d": 69.71101562500007,
      "v": 45
    },
    {
      "midi": 69,
      "hit": false,
      "t": 13846.049999999996,
      "d": 79.32632812500015,
      "v": 53
    },
    {
      "midi": 65,
      "hit": false,
      "t": 13846.049999999996,
      "d": 93.74929687499935,
      "v": 48
    },
    {
      "midi": 65,
      "hit": false,
      "t": 14307.584999999995,
      "d": 81.73015624999971,
      "v": 59
    },
    {
      "midi": 62,
      "hit": false,
      "t": 14307.584999999995,
      "d": 100.96078124999985,
      "v": 52
    },
    {
      "midi": 64,
      "hit": false,
      "t": 14769.119999999995,
      "d": 610.5723437500001,
      "v": 54
    },
    {
      "midi": 61,
      "hit": false,
      "t": 14769.119999999995,
      "d": 661.052734375,
      "v": 41
    },
    {
      "midi": 45,
      "hit": false,
      "t": 14769.119999999995,
      "d": 3362.955546875004,
      "v": 47
    },
    {
      "midi": 64,
      "hit": false,
      "t": 15692.189999999995,
      "d": 516.8230468750007,
      "v": 48
    },
    {
      "midi": 61,
      "hit": false,
      "t": 15692.189999999995,
      "d": 524.0345312500012,
      "v": 37
    },
    {
      "midi": 64,
      "hit": false,
      "t": 16615.259999999995,
      "d": 454.32351562500116,
      "v": 43
    },
    {
      "midi": 61,
      "hit": false,
      "t": 16615.259999999995,
      "d": 485.57328125000276,
      "v": 37
    },
    {
      "midi": 57,
      "hit": false,
      "t": 16615.259999999995,
      "d": 543.2651562500032,
      "v": 39
    },
    {
      "midi": 64,
      "hit": false,
      "t": 17538.329999999998,
      "d": 473.5541406250013,
      "v": 54
    },
    {
      "midi": 61,
      "hit": false,
      "t": 17538.329999999998,
      "d": 519.2268750000003,
      "v": 37
    },
    {
      "midi": 57,
      "hit": false,
      "t": 17999.864999999998,
      "d": 213.94070312500116,
      "v": 41
    },
    {
      "midi": 65,
      "hit": false,
      "t": 18461.4,
      "d": 629.802968750002,
      "v": 41
    },
    {
      "midi": 62,
      "hit": false,
      "t": 18461.4,
      "d": 682.6871875000033,
      "v": 41
    },
    {
      "midi": 45,
      "hit": false,
      "t": 18461.4,
      "d": 3360.5517187500045,
      "v": 28
    },
    {
      "midi": 62,
      "hit": false,
      "t": 19384.470000000005,
      "d": 591.3417187500017,
      "v": 55
    },
    {
      "midi": 65,
      "hit": false,
      "t": 19384.470000000005,
      "d": 649.0335937500022,
      "v": 52
    },
    {
      "midi": 57,
      "hit": false,
      "t": 20307.540000000008,
      "d": 264.4210937499993,
      "v": 57
    },
    {
      "midi": 62,
      "hit": false,
      "t": 20307.540000000008,
      "d": 281.24789062499985,
      "v": 60
    },
    {
      "midi": 65,
      "hit": false,
      "t": 20307.540000000008,
      "d": 362.97804687499956,
      "v": 56
    },
    {
      "midi": 62,
      "hit": false,
      "t": 21230.610000000008,
      "d": 468.74648437499854,
      "v": 59
    },
    {
      "midi": 65,
      "hit": false,
      "t": 21230.610000000008,
      "d": 492.7847656249978,
      "v": 53
    },
    {
      "midi": 57,
      "hit": false,
      "t": 21692.145000000008,
      "d": 182.69093749999956,
      "v": 45
    },
    {
      "midi": 61,
      "hit": false,
      "t": 22153.680000000008,
      "d": 687.4948437500025,
      "v": 36
    },
    {
      "midi": 64,
      "hit": false,
      "t": 22153.680000000008,
      "d": 745.1867187500029,
      "v": 47
    },
    {
      "midi": 45,
      "hit": false,
      "t": 22153.680000000008,
      "d": 1600.949531250004,
      "v": 35
    },
    {
      "midi": 61,
      "hit": false,
      "t": 23076.75000000001,
      "d": 521.6307031249999,
      "v": 35
    },
    {
      "midi": 64,
      "hit": false,
      "t": 23076.75000000001,
      "d": 576.9187500000007,
      "v": 46
    },
    {
      "midi": 61,
      "hit": false,
      "t": 23999.82000000001,
      "d": 608.1685156249987,
      "v": 37
    },
    {
      "midi": 64,
      "hit": false,
      "t": 23999.82000000001,
      "d": 644.2259374999994,
      "v": 45
    },
    {
      "midi": 43,
      "hit": false,
      "t": 23999.82000000001,
      "d": 1519.2193750000006,
      "v": 43
    },
    {
      "midi": 61,
      "hit": false,
      "t": 24922.89000000001,
      "d": 459.1311718750003,
      "v": 34
    },
    {
      "midi": 64,
      "hit": false,
      "t": 24922.89000000001,
      "d": 480.765625,
      "v": 50
    },
    {
      "midi": 57,
      "hit": false,
      "t": 25384.42500000001,
      "d": 230.76750000000175,
      "v": 45
    },
    {
      "midi": 62,
      "hit": false,
      "t": 25845.960000000014,
      "d": 639.4182812500003,
      "v": 51
    },
    {
      "midi": 65,
      "hit": false,
      "t": 25845.960000000014,
      "d": 665.8603906249991,
      "v": 55
    },
    {
      "midi": 41,
      "hit": false,
      "t": 25845.960000000014,
      "d": 2749.979374999999,
      "v": 42
    },
    {
      "midi": 65,
      "hit": false,
      "t": 26769.030000000013,
      "d": 439.90054687500015,
      "v": 52
    },
    {
      "midi": 62,
      "hit": false,
      "t": 26769.030000000013,
      "d": 461.53499999999985,
      "v": 50
    },
    {
      "midi": 65,
      "hit": false,
      "t": 27692.100000000013,
      "d": 478.36179687500044,
      "v": 60
    },
    {
      "midi": 62,
      "hit": false,
      "t": 27692.100000000013,
      "d": 499.99625000000015,
      "v": 62
    },
    {
      "midi": 57,
      "hit": false,
      "t": 28153.635000000013,
      "d": 302.88234374999956,
      "v": 37
    },
    {
      "midi": 62,
      "hit": false,
      "t": 28615.170000000013,
      "d": 504.8039062499993,
      "v": 59
    },
    {
      "midi": 65,
      "hit": false,
      "t": 28615.170000000013,
      "d": 632.206796874998,
      "v": 55
    },
    {
      "midi": 43,
      "hit": false,
      "t": 28615.170000000013,
      "d": 925.4738281249956,
      "v": 41
    },
    {
      "midi": 57,
      "hit": false,
      "t": 29076.705000000013,
      "d": 252.40195312499782,
      "v": 46
    },
    {
      "midi": 61,
      "hit": false,
      "t": 29538.24000000001,
      "d": 581.7264062499999,
      "v": 41
    },
    {
      "midi": 64,
      "hit": false,
      "t": 29538.24000000001,
      "d": 586.534062499999,
      "v": 53
    },
    {
      "midi": 33,
      "hit": false,
      "t": 29538.24000000001,
      "d": 3519.204375000005,
      "v": 30
    },
    {
      "midi": 64,
      "hit": false,
      "t": 30461.31000000001,
      "d": 490.38093749999825,
      "v": 46
    },
    {
      "midi": 61,
      "hit": false,
      "t": 30461.31000000001,
      "d": 516.8230468749971,
      "v": 34
    },
    {
      "midi": 57,
      "hit": false,
      "t": 30461.31000000001,
      "d": 634.6106249999975,
      "v": 39
    },
    {
      "midi": 64,
      "hit": false,
      "t": 31384.380000000005,
      "d": 449.5158593749984,
      "v": 57
    },
    {
      "midi": 61,
      "hit": false,
      "t": 31384.380000000005,
      "d": 521.6307031249999,
      "v": 40
    },
    {
      "midi": 57,
      "hit": false,
      "t": 31845.915000000005,
      "d": 406.246953124999,
      "v": 48
    },
    {
      "midi": 61,
      "hit": false,
      "t": 32307.450000000004,
      "d": 459.1311718750003,
      "v": 42
    },
    {
      "midi": 64,
      "hit": false,
      "t": 32307.450000000004,
      "d": 468.7464843750058,
      "v": 59
    },
    {
      "midi": 69,
      "hit": false,
      "t": 32768.98500000001,
      "d": 259.6134375000038,
      "v": 54
    },
    {
      "midi": 62,
      "hit": false,
      "t": 33230.52000000002,
      "d": 612.9761718749942,
      "v": 53
    },
    {
      "midi": 65,
      "hit": false,
      "t": 33230.52000000002,
      "d": 649.0335937499913,
      "v": 50
    },
    {
      "midi": 45,
      "hit": false,
      "t": 33230.52000000002,
      "d": 3439.8780468750047,
      "v": 40
    },
    {
      "midi": 65,
      "hit": false,
      "t": 34153.59000000001,
      "d": 567.3034374999988,
      "v": 61
    },
    {
      "midi": 62,
      "hit": false,
      "t": 34153.59000000001,
      "d": 569.707265625002,
      "v": 47
    },
    {
      "midi": 65,
      "hit": false,
      "t": 35076.66000000001,
      "d": 471.15031250000175,
      "v": 58
    },
    {
      "midi": 62,
      "hit": false,
      "t": 35076.66000000001,
      "d": 516.8230468750044,
      "v": 54
    },
    {
      "midi": 57,
      "hit": false,
      "t": 35538.195000000014,
      "d": 362.9780468750032,
      "v": 48
    },
    {
      "midi": 62,
      "hit": false,
      "t": 35999.73000000002,
      "d": 504.8039062500029,
      "v": 55
    },
    {
      "midi": 65,
      "hit": false,
      "t": 35999.73000000002,
      "d": 512.0153906250052,
      "v": 63
    },
    {
      "midi": 69,
      "hit": false,
      "t": 36461.26500000002,
      "d": 199.51773437500378,
      "v": 59
    },
    {
      "midi": 61,
      "hit": false,
      "t": 36922.800000000025,
      "d": 709.1292968749985,
      "v": 36
    },
    {
      "midi": 64,
      "hit": false,
      "t": 36922.800000000025,
      "d": 769.2249999999985,
      "v": 42
    },
    {
      "midi": 45,
      "hit": false,
      "t": 36922.800000000025,
      "d": 1521.6232031249965,
      "v": 44
    },
    {
      "midi": 64,
      "hit": false,
      "t": 37845.870000000024,
      "d": 507.20773437499884,
      "v": 53
    },
    {
      "midi": 61,
      "hit": false,
      "t": 37845.870000000024,
      "d": 538.4574999999968,
      "v": 36
    },
    {
      "midi": 64,
      "hit": false,
      "t": 38768.940000000024,
      "d": 401.4392968749962,
      "v": 59
    },
    {
      "midi": 61,
      "hit": false,
      "t": 38768.940000000024,
      "d": 475.9579687499936,
      "v": 42
    },
    {
      "midi": 43,
      "hit": false,
      "t": 38768.940000000024,
      "d": 548.072812499995,
      "v": 47
    },
    {
      "midi": 57,
      "hit": false,
      "t": 39230.47500000002,
      "d": 326.92062499999884,
      "v": 55
    },
    {
      "midi": 43,
      "hit": false,
      "t": 39461.24250000002,
      "d": 79.32632812499651,
      "v": 54
    },
    {
      "midi": 61,
      "hit": false,
      "t": 39692.010000000024,
      "d": 430.28523437499825,
      "v": 60
    },
    {
      "midi": 57,
      "hit": false,
      "t": 39692.010000000024,
      "d": 612.9761718749942,
      "v": 66
    },
    {
      "midi": 43,
      "hit": false,
      "t": 39692.010000000024,
      "d": 935.0891406250012,
      "v": 63
    },
    {
      "midi": 62,
      "hit": false,
      "t": 39922.777500000026,
      "d": 290.86320312499447,
      "v": 57
    },
    {
      "midi": 64,
      "hit": false,
      "t": 40153.54500000002,
      "d": 432.68906250000146,
      "v": 62
    },
    {
      "midi": 57,
      "hit": false,
      "t": 40615.08000000002,
      "d": 211.53687500000524,
      "v": 54
    },
    {
      "midi": 62,
      "hit": false,
      "t": 40615.08000000002,
      "d": 536.0536718750009,
      "v": 67
    },
    {
      "midi": 65,
      "hit": false,
      "t": 40615.08000000002,
      "d": 704.3216406249994,
      "v": 63
    },
    {
      "midi": 41,
      "hit": false,
      "t": 40615.08000000002,
      "d": 2670.653046875006,
      "v": 54
    },
    {
      "midi": 57,
      "hit": false,
      "t": 41076.61500000003,
      "d": 521.6307031249962,
      "v": 50
    },
    {
      "midi": 62,
      "hit": false,
      "t": 41538.15000000002,
      "d": 987.9733593750061,
      "v": 57
    },
    {
      "midi": 57,
      "hit": false,
      "t": 41999.68500000003,
      "d": 536.0536718750009,
      "v": 47
    },
    {
      "midi": 65,
      "hit": false,
      "t": 42461.22000000003,
      "d": 687.4948437499988,
      "v": 66
    },
    {
      "midi": 64,
      "hit": false,
      "t": 42922.75500000003,
      "d": 468.7464843750058,
      "v": 45
    },
    {
      "midi": 62,
      "hit": false,
      "t": 43384.29000000003,
      "d": 545.6689843750064,
      "v": 56
    },
    {
      "midi": 43,
      "hit": false,
      "t": 43384.29000000003,
      "d": 812.4939062500052,
      "v": 45
    },
    {
      "midi": 57,
      "hit": false,
      "t": 43845.82500000003,
      "d": 194.71007812500466,
      "v": 49
    },
    {
      "midi": 64,
      "hit": false,
      "t": 44307.36000000003,
      "d": 634.6106250000012,
      "v": 60
    },
    {
      "midi": 61,
      "hit": false,
      "t": 44307.36000000003,
      "d": 680.2833593750038,
      "v": 51
    },
    {
      "midi": 56,
      "hit": false,
      "t": 44307.36000000003,
      "d": 689.898671875002,
      "v": 33
    },
    {
      "midi": 49,
      "hit": false,
      "t": 44307.36000000003,
      "d": 1302.8748437499962,
      "v": 32
    },
    {
      "midi": 64,
      "hit": false,
      "t": 45230.43000000003,
      "d": 591.3417187499945,
      "v": 60
    },
    {
      "midi": 61,
      "hit": false,
      "t": 45230.43000000003,
      "d": 632.206796874998,
      "v": 49
    },
    {
      "midi": 56,
      "hit": false,
      "t": 45230.43000000003,
      "d": 740.3790624999965,
      "v": 33
    },
    {
      "midi": 64,
      "hit": false,
      "t": 46153.50000000002,
      "d": 403.8431249999994,
      "v": 63
    },
    {
      "midi": 61,
      "hit": false,
      "t": 46153.50000000002,
      "d": 454.32351562500116,
      "v": 54
    },
    {
      "midi": 56,
      "hit": false,
      "t": 46153.50000000002,
      "d": 745.1867187500029,
      "v": 37
    },
    {
      "midi": 45,
      "hit": false,
      "t": 46153.50000000002,
      "d": 865.3781250000029,
      "v": 46
    },
    {
      "midi": 59,
      "hit": false,
      "t": 47076.57000000002,
      "d": 374.99718750000466,
      "v": 64
    },
    {
      "midi": 56,
      "hit": false,
      "t": 47076.57000000002,
      "d": 403.8431250000067,
      "v": 30
    },
    {
      "midi": 63,
      "hit": false,
      "t": 47076.57000000002,
      "d": 420.6699218750073,
      "v": 47
    },
    {
      "midi": 44,
      "hit": false,
      "t": 47076.57000000002,
      "d": 980.7618750000038,
      "v": 32
    },
    {
      "midi": 66,
      "hit": false,
      "t": 47999.64000000003,
      "d": 711.5331249999945,
      "v": 49
    },
    {
      "midi": 61,
      "hit": false,
      "t": 47999.64000000003,
      "d": 730.763749999991,
      "v": 49
    },
    {
      "midi": 57,
      "hit": false,
      "t": 47999.64000000003,
      "d": 742.7828906249924,
      "v": 51
    },
    {
      "midi": 42,
      "hit": false,
      "t": 47999.64000000003,
      "d": 1187.4910937499953,
      "v": 41
    },
    {
      "midi": 61,
      "hit": false,
      "t": 48922.71000000002,
      "d": 610.5723437500055,
      "v": 52
    },
    {
      "midi": 57,
      "hit": false,
      "t": 48922.71000000002,
      "d": 663.4565625000032,
      "v": 49
    },
    {
      "midi": 66,
      "hit": false,
      "t": 48922.71000000002,
      "d": 740.3790625000038,
      "v": 49
    },
    {
      "midi": 42,
      "hit": false,
      "t": 49384.245000000024,
      "d": 420.669921875,
      "v": 45
    },
    {
      "midi": 57,
      "hit": false,
      "t": 49845.78000000003,
      "d": 365.3818749999991,
      "v": 70
    },
    {
      "midi": 62,
      "hit": false,
      "t": 49845.78000000003,
      "d": 459.1311718750003,
      "v": 83
    },
    {
      "midi": 66,
      "hit": false,
      "t": 49845.78000000003,
      "d": 615.3799999999974,
      "v": 54
    },
    {
      "midi": 50,
      "hit": false,
      "t": 49845.78000000003,
      "d": 846.1474999999991,
      "v": 56
    },
    {
      "midi": 56,
      "hit": false,
      "t": 50768.85000000003,
      "d": 334.13210937500116,
      "v": 54
    },
    {
      "midi": 61,
      "hit": false,
      "t": 50768.85000000003,
      "d": 355.7665625000009,
      "v": 63
    },
    {
      "midi": 64,
      "hit": false,
      "t": 50768.85000000003,
      "d": 377.4010156250006,
      "v": 70
    },
    {
      "midi": 49,
      "hit": false,
      "t": 50768.85000000003,
      "d": 975.9542187499974,
      "v": 42
    },
    {
      "midi": 66,
      "hit": false,
      "t": 51691.92000000003,
      "d": 610.5723437499983,
      "v": 63
    },
    {
      "midi": 62,
      "hit": false,
      "t": 51691.92000000003,
      "d": 617.7838281250006,
      "v": 72
    },
    {
      "midi": 59,
      "hit": false,
      "t": 51691.92000000003,
      "d": 624.9953125000029,
      "v": 60
    },
    {
      "midi": 47,
      "hit": false,
      "t": 51691.92000000003,
      "d": 1766.813671875003,
      "v": 53
    },
    {
      "midi": 66,
      "hit": false,
      "t": 52614.99000000003,
      "d": 514.4192187500012,
      "v": 52
    },
    {
      "midi": 62,
      "hit": false,
      "t": 52614.99000000003,
      "d": 536.0536718750009,
      "v": 60
    },
    {
      "midi": 59,
      "hit": false,
      "t": 53076.52500000003,
      "d": 377.4010156250006,
      "v": 51
    },
    {
      "midi": 66,
      "hit": false,
      "t": 53538.060000000034,
      "d": 483.1694531250032,
      "v": 61
    },
    {
      "midi": 62,
      "hit": false,
      "t": 53538.060000000034,
      "d": 557.6881250000006,
      "v": 70
    },
    {
      "midi": 45,
      "hit": false,
      "t": 53538.060000000034,
      "d": 1749.9868750000023,
      "v": 57
    },
    {
      "midi": 59,
      "hit": false,
      "t": 53999.59500000004,
      "d": 310.09382812499825,
      "v": 53
    },
    {
      "midi": 62,
      "hit": false,
      "t": 54461.130000000034,
      "d": 475.9579687500009,
      "v": 66
    },
    {
      "midi": 66,
      "hit": false,
      "t": 54461.130000000034,
      "d": 480.765625,
      "v": 60
    },
    {
      "midi": 71,
      "hit": false,
      "t": 54922.66500000004,
      "d": 228.36367187499854,
      "v": 53
    },
    {
      "midi": 68,
      "hit": false,
      "t": 55384.20000000003,
      "d": 661.052734375,
      "v": 49
    },
    {
      "midi": 64,
      "hit": false,
      "t": 55384.20000000003,
      "d": 735.5714062499974,
      "v": 63
    },
    {
      "midi": 44,
      "hit": false,
      "t": 55384.20000000003,
      "d": 1843.736171874989,
      "v": 43
    },
    {
      "midi": 59,
      "hit": false,
      "t": 56076.50250000003,
      "d": 173.07562499999767,
      "v": 47
    },
    {
      "midi": 64,
      "hit": false,
      "t": 56307.270000000026,
      "d": 399.0354687500003,
      "v": 63
    },
    {
      "midi": 68,
      "hit": false,
      "t": 56307.270000000026,
      "d": 399.0354687500003,
      "v": 72
    },
    {
      "midi": 59,
      "hit": false,
      "t": 56307.270000000026,
      "d": 425.4775781249991,
      "v": 69
    },
    {
      "midi": 69,
      "hit": false,
      "t": 56538.03750000003,
      "d": 163.46031249999942,
      "v": 63
    },
    {
      "midi": 71,
      "hit": false,
      "t": 56768.80500000002,
      "d": 262.0172656249997,
      "v": 68
    },
    {
      "midi": 59,
      "hit": false,
      "t": 57230.340000000026,
      "d": 519.2268750000003,
      "v": 75
    },
    {
      "midi": 64,
      "hit": false,
      "t": 57230.340000000026,
      "d": 612.9761718750015,
      "v": 73
    },
    {
      "midi": 71,
      "hit": false,
      "t": 57230.340000000026,
      "d": 670.6680468749983,
      "v": 67
    },
    {
      "midi": 40,
      "hit": false,
      "t": 57230.340000000026,
      "d": 1829.3132031249916,
      "v": 70
    },
    {
      "midi": 64,
      "hit": false,
      "t": 57922.64250000002,
      "d": 52.88421874999767,
      "v": 37
    },
    {
      "midi": 59,
      "hit": false,
      "t": 57922.64250000002,
      "d": 112.97992187499767,
      "v": 54
    },
    {
      "midi": 68,
      "hit": false,
      "t": 58153.41000000002,
      "d": 560.0919531250038,
      "v": 76
    },
    {
      "midi": 64,
      "hit": false,
      "t": 58153.41000000002,
      "d": 612.9761718750015,
      "v": 76
    },
    {
      "midi": 59,
      "hit": false,
      "t": 58153.41000000002,
      "d": 622.5914843749997,
      "v": 73
    },
    {
      "midi": 69,
      "hit": false,
      "t": 58614.94500000002,
      "d": 129.80671874999825,
      "v": 59
    },
    {
      "midi": 71,
      "hit": false,
      "t": 58845.712500000016,
      "d": 189.90242187499825,
      "v": 62
    },
    {
      "midi": 62,
      "hit": false,
      "t": 59076.48000000002,
      "d": 1240.3753125000003,
      "v": 64
    },
    {
      "midi": 71,
      "hit": false,
      "t": 59076.48000000002,
      "d": 1521.6232031250038,
      "v": 61
    },
    {
      "midi": 67,
      "hit": false,
      "t": 59076.48000000002,
      "d": 1735.563906250005,
      "v": 67
    },
    {
      "midi": 43,
      "hit": false,
      "t": 59076.48000000002,
      "d": 3728.337421874996,
      "v": 71
    },
    {
      "midi": 62,
      "hit": false,
      "t": 60461.08500000002,
      "d": 298.0746875000041,
      "v": 59
    },
    {
      "midi": 71,
      "hit": false,
      "t": 60922.620000000024,
      "d": 499.9962500000038,
      "v": 70
    },
    {
      "midi": 67,
      "hit": false,
      "t": 60922.620000000024,
      "d": 552.8804687500015,
      "v": 79
    },
    {
      "midi": 62,
      "hit": false,
      "t": 61384.15500000003,
      "d": 127.40289062499505,
      "v": 42
    },
    {
      "midi": 71,
      "hit": false,
      "t": 61614.92250000002,
      "d": 701.9178124999962,
      "v": 75
    },
    {
      "midi": 67,
      "hit": false,
      "t": 61614.92250000002,
      "d": 1170.6642968749948,
      "v": 78
    },
    {
      "midi": 62,
      "hit": false,
      "t": 62307.22500000002,
      "d": 346.15124999999534,
      "v": 69
    },
    {
      "midi": 69,
      "hit": false,
      "t": 62307.22500000002,
      "d": 384.61249999999563,
      "v": 66
    },
    {
      "midi": 66,
      "hit": false,
      "t": 62768.76000000002,
      "d": 749.9943749999948,
      "v": 67
    },
    {
      "midi": 69,
      "hit": false,
      "t": 62768.76000000002,
      "d": 831.7245312499945,
      "v": 68
    },
    {
      "midi": 62,
      "hit": false,
      "t": 62768.76000000002,
      "d": 841.3398437499927,
      "v": 64
    },
    {
      "midi": 38,
      "hit": false,
      "t": 62768.76000000002,
      "d": 3379.7823437499974,
      "v": 70
    },
    {
      "midi": 66,
      "hit": false,
      "t": 63691.83000000001,
      "d": 355.7665625000009,
      "v": 60
    },
    {
      "midi": 62,
      "hit": false,
      "t": 63691.83000000001,
      "d": 461.5350000000035,
      "v": 68
    },
    {
      "midi": 62,
      "hit": false,
      "t": 64153.36500000001,
      "d": 141.8258593749997,
      "v": 58
    },
    {
      "midi": 67,
      "hit": false,
      "t": 64153.36500000001,
      "d": 189.90242187499825,
      "v": 64
    },
    {
      "midi": 62,
      "hit": false,
      "t": 64384.132500000014,
      "d": 411.05460937500175,
      "v": 66
    },
    {
      "midi": 69,
      "hit": false,
      "t": 64384.132500000014,
      "d": 550.4766406250055,
      "v": 70
    },
    {
      "midi": 66,
      "hit": false,
      "t": 64384.132500000014,
      "d": 567.3034375000061,
      "v": 72
    },
    {
      "midi": 62,
      "hit": false,
      "t": 64845.66750000002,
      "d": 88.94164062500204,
      "v": 49
    },
    {
      "midi": 69,
      "hit": false,
      "t": 65076.43500000002,
      "d": 418.2660937499968,
      "v": 79
    },
    {
      "midi": 66,
      "hit": false,
      "t": 65076.43500000002,
      "d": 420.669921875,
      "v": 87
    },
    {
      "midi": 62,
      "hit": false,
      "t": 65076.43500000002,
      "d": 963.9350781249886,
      "v": 63
    },
    {
      "midi": 67,
      "hit": false,
      "t": 65537.97000000002,
      "d": 249.99812499999825,
      "v": 59
    },
    {
      "midi": 69,
      "hit": false,
      "t": 65768.73750000002,
      "d": 278.844062499993,
      "v": 87
    },
    {
      "midi": 62,
      "hit": false,
      "t": 66461.04000000001,
      "d": 435.09289062500466,
      "v": 54
    },
    {
      "midi": 71,
      "hit": false,
      "t": 66461.04000000001,
      "d": 632.2067968750052,
      "v": 61
    },
    {
      "midi": 67,
      "hit": false,
      "t": 66461.04000000001,
      "d": 675.4757031250047,
      "v": 63
    },
    {
      "midi": 43,
      "hit": false,
      "t": 66461.04000000001,
      "d": 3754.779531250024,
      "v": 59
    },
    {
      "midi": 62,
      "hit": false,
      "t": 66922.57500000001,
      "d": 305.2861718750064,
      "v": 39
    },
    {
      "midi": 71,
      "hit": false,
      "t": 67384.11000000002,
      "d": 415.8622656249936,
      "v": 56
    },
    {
      "midi": 67,
      "hit": false,
      "t": 67384.11000000002,
      "d": 463.9388281249994,
      "v": 62
    },
    {
      "midi": 62,
      "hit": false,
      "t": 68307.18000000001,
      "d": 439.9005468749965,
      "v": 71
    },
    {
      "midi": 72,
      "hit": false,
      "t": 68307.18000000001,
      "d": 612.9761718750087,
      "v": 62
    },
    {
      "midi": 67,
      "hit": false,
      "t": 68307.18000000001,
      "d": 644.225937500014,
      "v": 73
    },
    {
      "midi": 62,
      "hit": false,
      "t": 68768.71500000001,
      "d": 151.44117187500524,
      "v": 38
    },
    {
      "midi": 72,
      "hit": false,
      "t": 68999.48250000003,
      "d": 408.6507812500058,
      "v": 64
    },
    {
      "midi": 62,
      "hit": false,
      "t": 68999.48250000003,
      "d": 420.669921875,
      "v": 73
    },
    {
      "midi": 67,
      "hit": false,
      "t": 68999.48250000003,
      "d": 427.8814062500023,
      "v": 78
    },
    {
      "midi": 71,
      "hit": false,
      "t": 69461.01750000003,
      "d": 555.2842968750047,
      "v": 77
    },
    {
      "midi": 62,
      "hit": false,
      "t": 69461.01750000003,
      "d": 579.3225781250076,
      "v": 77
    },
    {
      "midi": 67,
      "hit": false,
      "t": 69461.01750000003,
      "d": 588.9378906250058,
      "v": 74
    },
    {
      "midi": 69,
      "hit": false,
      "t": 70153.32000000004,
      "d": 1067.2996874999808,
      "v": 63
    },
    {
      "midi": 66,
      "hit": false,
      "t": 70153.32000000004,
      "d": 1081.7226562499854,
      "v": 54
    },
    {
      "midi": 38,
      "hit": false,
      "t": 70845.62250000003,
      "d": 93.74929687500116,
      "v": 71
    },
    {
      "midi": 62,
      "hit": false,
      "t": 71076.39000000003,
      "d": 115.3837499999936,
      "v": 70
    },
    {
      "midi": 66,
      "hit": false,
      "t": 71307.15750000002,
      "d": 185.0947656250064,
      "v": 51
    },
    {
      "midi": 71,
      "hit": false,
      "t": 71537.92500000002,
      "d": 341.3435937500035,
      "v": 60
    },
    {
      "midi": 62,
      "hit": false,
      "t": 71537.92500000002,
      "d": 348.5550781250058,
      "v": 74
    },
    {
      "midi": 67,
      "hit": false,
      "t": 71537.92500000002,
      "d": 365.3818750000064,
      "v": 68
    },
    {
      "midi": 69,
      "hit": false,
      "t": 71999.46000000002,
      "d": 427.8814062500023,
      "v": 63
    },
    {
      "midi": 66,
      "hit": false,
      "t": 71999.46000000002,
      "d": 473.5541406249977,
      "v": 64
    },
    {
      "midi": 62,
      "hit": false,
      "t": 71999.46000000002,
      "d": 562.4957812499924,
      "v": 66
    },
    {
      "midi": 38,
      "hit": false,
      "t": 72460.99500000002,
      "d": 1269.2212500000023,
      "v": 64
    },
    {
      "midi": 59,
      "hit": false,
      "t": 72922.53000000001,
      "d": 81.73015625000698,
      "v": 59
    },
    {
      "midi": 62,
      "hit": false,
      "t": 72922.53000000001,
      "d": 91.34546875000524,
      "v": 63
    },
    {
      "midi": 57,
      "hit": false,
      "t": 73153.29750000002,
      "d": 384.6125000000029,
      "v": 59
    },
    {
      "midi": 62,
      "hit": false,
      "t": 73153.29750000002,
      "d": 396.6316406249971,
      "v": 73
    },
    {
      "midi": 50,
      "hit": false,
      "t": 73614.83250000002,
      "d": 93.74929687500116,
      "v": 56
    },
    {
      "midi": 62,
      "hit": false,
      "t": 73845.60000000002,
      "d": 752.3982031250052,
      "v": 57
    },
    {
      "midi": 66,
      "hit": false,
      "t": 73845.60000000002,
      "d": 771.6288281250017,
      "v": 61
    },
    {
      "midi": 42,
      "hit": false,
      "t": 73845.60000000002,
      "d": 2408.6357812500355,
      "v": 70
    },
    {
      "midi": 62,
      "hit": false,
      "t": 74768.67000000003,
      "d": 317.3053125000006,
      "v": 60
    },
    {
      "midi": 66,
      "hit": false,
      "t": 74768.67000000003,
      "d": 608.1685156250023,
      "v": 58
    },
    {
      "midi": 62,
      "hit": false,
      "t": 75230.20500000003,
      "d": 233.17132812499767,
      "v": 54
    },
    {
      "midi": 62,
      "hit": false,
      "t": 75691.74000000003,
      "d": 322.112968750007,
      "v": 59
    },
    {
      "midi": 66,
      "hit": false,
      "t": 75691.74000000003,
      "d": 447.1120312500134,
      "v": 52
    },
    {
      "midi": 62,
      "hit": false,
      "t": 76153.27500000005,
      "d": 298.0746875000041,
      "v": 60
    },
    {
      "midi": 42,
      "hit": false,
      "t": 76384.04250000005,
      "d": 1153.8374999999942,
      "v": 52
    },
    {
      "midi": 66,
      "hit": false,
      "t": 76614.81000000006,
      "d": 391.82398437500524,
      "v": 67
    },
    {
      "midi": 62,
      "hit": false,
      "t": 76614.81000000006,
      "d": 507.20773437499884,
      "v": 69
    },
    {
      "midi": 67,
      "hit": false,
      "t": 76845.57750000006,
      "d": 365.38187499999185,
      "v": 57
    },
    {
      "midi": 69,
      "hit": false,
      "t": 77076.34500000006,
      "d": 247.59429687498778,
      "v": 62
    },
    {
      "midi": 62,
      "hit": false,
      "t": 77307.11250000005,
      "d": 170.67179687500175,
      "v": 47
    },
    {
      "midi": 72,
      "hit": false,
      "t": 77537.88000000005,
      "d": 649.0335937500058,
      "v": 66
    },
    {
      "midi": 67,
      "hit": false,
      "t": 77537.88000000005,
      "d": 661.052734375,
      "v": 81
    },
    {
      "midi": 43,
      "hit": false,
      "t": 77537.88000000005,
      "d": 2254.7907812499907,
      "v": 70
    },
    {
      "midi": 62,
      "hit": false,
      "t": 77999.41500000005,
      "d": 129.80671874999825,
      "v": 54
    },
    {
      "midi": 67,
      "hit": false,
      "t": 78230.18250000005,
      "d": 360.57421875,
      "v": 49
    },
    {
      "midi": 72,
      "hit": false,
      "t": 78460.95000000006,
      "d": 175.4794531249936,
      "v": 55
    },
    {
      "midi": 62,
      "hit": false,
      "t": 78922.48500000004,
      "d": 1105.7609374999884,
      "v": 77
    },
    {
      "midi": 71,
      "hit": false,
      "t": 78922.48500000004,
      "d": 1175.4719531250012,
      "v": 73
    },
    {
      "midi": 67,
      "hit": false,
      "t": 78922.48500000004,
      "d": 1276.4327343750047,
      "v": 77
    },
    {
      "midi": 43,
      "hit": false,
      "t": 79845.55500000004,
      "d": 923.0700000000215,
      "v": 73
    },
    {
      "midi": 71,
      "hit": false,
      "t": 80307.09000000005,
      "d": 331.72828125000524,
      "v": 76
    },
    {
      "midi": 62,
      "hit": false,
      "t": 80537.85750000006,
      "d": 146.63351562499884,
      "v": 70
    },
    {
      "midi": 42,
      "hit": false,
      "t": 80537.85750000006,
      "d": 692.3025000000052,
      "v": 63
    },
    {
      "midi": 66,
      "hit": false,
      "t": 80537.85750000006,
      "d": 692.3025000000052,
      "v": 96
    },
    {
      "midi": 69,
      "hit": false,
      "t": 80537.85750000006,
      "d": 692.3025000000052,
      "v": 92
    },
    {
      "midi": 67,
      "hit": false,
      "t": 81230.16000000006,
      "d": 733.1675781249942,
      "v": 55
    },
    {
      "midi": 59,
      "hit": false,
      "t": 81230.16000000006,
      "d": 769.2249999999913,
      "v": 48
    },
    {
      "midi": 64,
      "hit": false,
      "t": 81230.16000000006,
      "d": 798.070937499986,
      "v": 57
    },
    {
      "midi": 40,
      "hit": false,
      "t": 81230.16000000006,
      "d": 1831.7170312499802,
      "v": 47
    },
    {
      "midi": 67,
      "hit": false,
      "t": 82153.23000000005,
      "d": 516.8230468749971,
      "v": 60
    },
    {
      "midi": 64,
      "hit": false,
      "t": 82153.23000000005,
      "d": 692.3024999999907,
      "v": 57
    },
    {
      "midi": 59,
      "hit": false,
      "t": 82614.76500000006,
      "d": 326.9206249999843,
      "v": 43
    },
    {
      "midi": 67,
      "hit": false,
      "t": 83076.30000000005,
      "d": 487.9771093750023,
      "v": 57
    },
    {
      "midi": 64,
      "hit": false,
      "t": 83076.30000000005,
      "d": 615.3800000000047,
      "v": 54
    },
    {
      "midi": 38,
      "hit": false,
      "t": 83076.30000000005,
      "d": 1817.2940625000047,
      "v": 47
    },
    {
      "midi": 59,
      "hit": false,
      "t": 83537.83500000005,
      "d": 274.03640625000116,
      "v": 47
    },
    {
      "midi": 67,
      "hit": false,
      "t": 83999.37000000005,
      "d": 473.5541406249977,
      "v": 52
    },
    {
      "midi": 64,
      "hit": false,
      "t": 83999.37000000005,
      "d": 579.322578124993,
      "v": 56
    },
    {
      "midi": 59,
      "hit": false,
      "t": 84460.90500000006,
      "d": 221.15218749998894,
      "v": 41
    },
    {
      "midi": 67,
      "hit": false,
      "t": 84922.44000000005,
      "d": 415.8622656249936,
      "v": 61
    },
    {
      "midi": 64,
      "hit": false,
      "t": 84922.44000000005,
      "d": 497.59242187498603,
      "v": 56
    },
    {
      "midi": 36,
      "hit": false,
      "t": 84922.44000000005,
      "d": 2973.53539062498,
      "v": 33
    },
    {
      "midi": 60,
      "hit": false,
      "t": 85383.97500000003,
      "d": 406.24695312499534,
      "v": 41
    },
    {
      "midi": 67,
      "hit": false,
      "t": 85845.51000000002,
      "d": 533.6498437499977,
      "v": 60
    },
    {
      "midi": 64,
      "hit": false,
      "t": 85845.51000000002,
      "d": 540.861328125,
      "v": 53
    },
    {
      "midi": 72,
      "hit": false,
      "t": 86307.04500000003,
      "d": 249.99812499999825,
      "v": 50
    },
    {
      "midi": 63,
      "hit": false,
      "t": 86722.90726562502,
      "d": 173.07562499999767,
      "v": 55
    },
    {
      "midi": 75,
      "hit": false,
      "t": 87230.11500000002,
      "d": 961.5312500000146,
      "v": 36
    },
    {
      "midi": 79,
      "hit": false,
      "t": 87280.59539062502,
      "d": 889.4164062500058,
      "v": 59
    },
    {
      "midi": 84,
      "hit": false,
      "t": 87333.47960937502,
      "d": 812.4939062500052,
      "v": 61
    },
    {
      "midi": 59,
      "hit": false,
      "t": 88614.72000000003,
      "d": 776.4364843749936,
      "v": 53
    },
    {
      "midi": 62,
      "hit": false,
      "t": 88614.72000000003,
      "d": 786.0517968749919,
      "v": 62
    },
    {
      "midi": 47,
      "hit": false,
      "t": 88614.72000000003,
      "d": 1887.005078125003,
      "v": 50
    },
    {
      "midi": 59,
      "hit": false,
      "t": 89537.79000000002,
      "d": 514.4192187500012,
      "v": 49
    },
    {
      "midi": 62,
      "hit": false,
      "t": 89537.79000000002,
      "d": 531.2460156250017,
      "v": 56
    },
    {
      "midi": 67,
      "hit": false,
      "t": 89999.32500000003,
      "d": 461.5350000000035,
      "v": 59
    },
    {
      "midi": 58,
      "hit": false,
      "t": 90460.86000000003,
      "d": 783.6479687500105,
      "v": 45
    },
    {
      "midi": 61,
      "hit": false,
      "t": 90460.86000000003,
      "d": 800.4747656250111,
      "v": 51
    },
    {
      "midi": 46,
      "hit": false,
      "t": 90460.86000000003,
      "d": 1908.63953125001,
      "v": 43
    },
    {
      "midi": 61,
      "hit": false,
      "t": 91383.93000000004,
      "d": 536.0536718750081,
      "v": 48
    },
    {
      "midi": 58,
      "hit": false,
      "t": 91383.93000000004,
      "d": 550.4766406250128,
      "v": 35
    },
    {
      "midi": 67,
      "hit": false,
      "t": 91845.46500000004,
      "d": 399.03546875000757,
      "v": 71
    },
    {
      "midi": 60,
      "hit": false,
      "t": 92307.00000000004,
      "d": 692.3024999999907,
      "v": 54
    },
    {
      "midi": 57,
      "hit": false,
      "t": 92307.00000000004,
      "d": 798.070937499986,
      "v": 47
    },
    {
      "midi": 45,
      "hit": false,
      "t": 92307.00000000004,
      "d": 1793.2557812499872,
      "v": 52
    },
    {
      "midi": 60,
      "hit": false,
      "t": 93230.07000000004,
      "d": 442.304375000007,
      "v": 63
    },
    {
      "midi": 67,
      "hit": false,
      "t": 93691.60500000004,
      "d": 353.3627343749977,
      "v": 67
    },
    {
      "midi": 67,
      "hit": false,
      "t": 94153.14000000003,
      "d": 432.6890624999942,
      "v": 63
    },
    {
      "midi": 60,
      "hit": false,
      "t": 94153.14000000003,
      "d": 1394.2203124999942,
      "v": 50
    },
    {
      "midi": 43,
      "hit": false,
      "t": 94153.14000000003,
      "d": 1829.3132031249988,
      "v": 44
    },
    {
      "midi": 66,
      "hit": false,
      "t": 94614.67500000002,
      "d": 230.76750000000175,
      "v": 54
    },
    {
      "midi": 64,
      "hit": false,
      "t": 94845.44250000002,
      "d": 461.5350000000035,
      "v": 56
    },
    {
      "midi": 66,
      "hit": false,
      "t": 95537.74500000002,
      "d": 230.76750000000175,
      "v": 44
    },
    {
      "midi": 67,
      "hit": false,
      "t": 95768.51250000003,
      "d": 2076.907500000001,
      "v": 72
    },
    {
      "midi": 43,
      "hit": false,
      "t": 95999.28000000003,
      "d": 76.92250000000058,
      "v": 37
    },
    {
      "midi": 43,
      "hit": false,
      "t": 96460.81500000003,
      "d": 115.3837499999936,
      "v": 43
    },
    {
      "midi": 62,
      "hit": false,
      "t": 96922.35000000002,
      "d": 122.59523437499593,
      "v": 56
    },
    {
      "midi": 59,
      "hit": false,
      "t": 96922.35000000002,
      "d": 127.40289062500233,
      "v": 44
    },
    {
      "midi": 43,
      "hit": false,
      "t": 96922.35000000002,
      "d": 139.4220312499965,
      "v": 55
    },
    {
      "midi": 43,
      "hit": false,
      "t": 97383.88500000002,
      "d": 334.13210937500116,
      "v": 56
    },
    {
      "midi": 63,
      "hit": false,
      "t": 97383.88500000002,
      "d": 971.1465624999983,
      "v": 49
    },
    {
      "midi": 60,
      "hit": false,
      "t": 97383.88500000002,
      "d": 1014.4154687499977,
      "v": 57
    },
    {
      "midi": 43,
      "hit": false,
      "t": 97845.42000000003,
      "d": 132.21054687499418,
      "v": 47
    },
    {
      "midi": 43,
      "hit": false,
      "t": 98306.95500000002,
      "d": 129.80671874999825,
      "v": 52
    },
    {
      "midi": 63,
      "hit": false,
      "t": 98768.49000000002,
      "d": 100.96078125000349,
      "v": 44
    },
    {
      "midi": 60,
      "hit": false,
      "t": 98768.49000000002,
      "d": 108.17226562500582,
      "v": 59
    },
    {
      "midi": 57,
      "hit": false,
      "t": 98768.49000000002,
      "d": 110.57609375000175,
      "v": 47
    },
    {
      "midi": 43,
      "hit": false,
      "t": 98768.49000000002,
      "d": 127.40289062500233,
      "v": 57
    },
    {
      "midi": 62,
      "hit": false,
      "t": 99230.02500000002,
      "d": 1105.7609374999738,
      "v": 66
    },
    {
      "midi": 59,
      "hit": false,
      "t": 99230.02500000002,
      "d": 1156.2413281249756,
      "v": 63
    },
    {
      "midi": 55,
      "hit": false,
      "t": 99230.02500000002,
      "d": 1187.4910937499808,
      "v": 59
    },
    {
      "midi": 43,
      "hit": false,
      "t": 99460.79250000003,
      "d": 12.01914062499418,
      "v": 46
    },
    {
      "midi": 43,
      "hit": false,
      "t": 99691.56000000001,
      "d": 72.11484374999418,
      "v": 59
    },
    {
      "midi": 43,
      "hit": false,
      "t": 100153.095,
      "d": 93.74929687500116,
      "v": 52
    },
    {
      "midi": 43,
      "hit": false,
      "t": 100614.63,
      "d": 115.38375000000815,
      "v": 60
    },
    {
      "midi": 59,
      "hit": false,
      "t": 100614.63,
      "d": 132.21054687500873,
      "v": 60
    },
    {
      "midi": 55,
      "hit": false,
      "t": 100614.63,
      "d": 149.0373437500093,
      "v": 66
    },
    {
      "midi": 62,
      "hit": false,
      "t": 100614.63,
      "d": 158.65265625000757,
      "v": 62
    },
    {
      "midi": 54,
      "hit": false,
      "t": 101076.16500000001,
      "d": 581.7264062500035,
      "v": 78
    },
    {
      "midi": 57,
      "hit": false,
      "t": 101076.16500000001,
      "d": 771.6288281250017,
      "v": 78
    },
    {
      "midi": 62,
      "hit": false,
      "t": 101076.16500000001,
      "d": 781.244140625,
      "v": 74
    },
    {
      "midi": 50,
      "hit": false,
      "t": 101537.70000000001,
      "d": 461.5350000000035,
      "v": 70
    },
    {
      "midi": 54,
      "hit": false,
      "t": 101999.23500000002,
      "d": 362.9780468749959,
      "v": 54
    },
    {
      "midi": 50,
      "hit": false,
      "t": 102230.00250000002,
      "d": 230.7674999999872,
      "v": 50
    },
    {
      "midi": 62,
      "hit": false,
      "t": 102460.77,
      "d": 218.74835937499302,
      "v": 66
    },
    {
      "midi": 54,
      "hit": false,
      "t": 102460.77,
      "d": 221.15218749998894,
      "v": 48
    },
    {
      "midi": 55,
      "hit": false,
      "t": 102691.53749999999,
      "d": 64.9033593750064,
      "v": 37
    },
    {
      "midi": 57,
      "hit": false,
      "t": 102922.305,
      "d": 310.09382812499825,
      "v": 78
    },
    {
      "midi": 62,
      "hit": false,
      "t": 102922.305,
      "d": 317.3053125000006,
      "v": 77
    },
    {
      "midi": 64,
      "hit": false,
      "t": 103383.84,
      "d": 610.5723437499983,
      "v": 54
    },
    {
      "midi": 61,
      "hit": false,
      "t": 103383.84,
      "d": 661.052734375,
      "v": 41
    },
    {
      "midi": 45,
      "hit": false,
      "t": 103383.84,
      "d": 3362.955546875004,
      "v": 47
    },
    {
      "midi": 64,
      "hit": false,
      "t": 104306.91,
      "d": 516.8230468749971,
      "v": 48
    },
    {
      "midi": 61,
      "hit": false,
      "t": 104306.91,
      "d": 524.0345312499994,
      "v": 37
    },
    {
      "midi": 64,
      "hit": false,
      "t": 105229.98,
      "d": 454.32351562500116,
      "v": 43
    },
    {
      "midi": 61,
      "hit": false,
      "t": 105229.98,
      "d": 485.5732812500064,
      "v": 37
    },
    {
      "midi": 57,
      "hit": false,
      "t": 105229.98,
      "d": 543.2651562500105,
      "v": 39
    },
    {
      "midi": 64,
      "hit": false,
      "t": 106153.05,
      "d": 473.5541406249977,
      "v": 54
    },
    {
      "midi": 61,
      "hit": false,
      "t": 106153.05,
      "d": 519.226874999993,
      "v": 37
    },
    {
      "midi": 57,
      "hit": false,
      "t": 106614.585,
      "d": 213.94070312500116,
      "v": 41
    },
    {
      "midi": 65,
      "hit": false,
      "t": 107076.12000000001,
      "d": 629.8029687499948,
      "v": 41
    },
    {
      "midi": 62,
      "hit": false,
      "t": 107076.12000000001,
      "d": 682.6871874999924,
      "v": 41
    },
    {
      "midi": 45,
      "hit": false,
      "t": 107076.12000000001,
      "d": 3360.551718750008,
      "v": 28
    },
    {
      "midi": 62,
      "hit": false,
      "t": 107999.19,
      "d": 591.3417187500017,
      "v": 55
    },
    {
      "midi": 65,
      "hit": false,
      "t": 107999.19,
      "d": 649.0335937500058,
      "v": 52
    },
    {
      "midi": 57,
      "hit": false,
      "t": 108922.26000000001,
      "d": 264.4210937500029,
      "v": 57
    },
    {
      "midi": 62,
      "hit": false,
      "t": 108922.26000000001,
      "d": 281.2478906250035,
      "v": 60
    },
    {
      "midi": 65,
      "hit": false,
      "t": 108922.26000000001,
      "d": 362.9780468750105,
      "v": 56
    },
    {
      "midi": 62,
      "hit": false,
      "t": 109845.33000000002,
      "d": 468.7464843750058,
      "v": 59
    },
    {
      "midi": 65,
      "hit": false,
      "t": 109845.33000000002,
      "d": 492.78476562500873,
      "v": 53
    },
    {
      "midi": 57,
      "hit": false,
      "t": 110306.86500000002,
      "d": 182.69093749999593,
      "v": 45
    },
    {
      "midi": 61,
      "hit": false,
      "t": 110768.40000000002,
      "d": 687.4948437499988,
      "v": 36
    },
    {
      "midi": 64,
      "hit": false,
      "t": 110768.40000000002,
      "d": 745.1867187500029,
      "v": 47
    },
    {
      "midi": 45,
      "hit": false,
      "t": 110768.40000000002,
      "d": 1600.9495312500076,
      "v": 35
    },
    {
      "midi": 61,
      "hit": false,
      "t": 111691.47000000003,
      "d": 521.6307031250035,
      "v": 35
    },
    {
      "midi": 64,
      "hit": false,
      "t": 111691.47000000003,
      "d": 576.9187499999971,
      "v": 46
    },
    {
      "midi": 61,
      "hit": false,
      "t": 112614.54000000004,
      "d": 608.1685156250023,
      "v": 37
    },
    {
      "midi": 64,
      "hit": false,
      "t": 112614.54000000004,
      "d": 644.2259374999994,
      "v": 45
    },
    {
      "midi": 43,
      "hit": false,
      "t": 112614.54000000004,
      "d": 1519.2193749999715,
      "v": 43
    },
    {
      "midi": 61,
      "hit": false,
      "t": 113537.61000000003,
      "d": 459.131171874993,
      "v": 34
    },
    {
      "midi": 64,
      "hit": false,
      "t": 113537.61000000003,
      "d": 480.76562499998545,
      "v": 50
    },
    {
      "midi": 57,
      "hit": false,
      "t": 113999.14500000002,
      "d": 230.7674999999872,
      "v": 45
    },
    {
      "midi": 62,
      "hit": false,
      "t": 114460.68000000001,
      "d": 639.418281249993,
      "v": 51
    },
    {
      "midi": 65,
      "hit": false,
      "t": 114460.68000000001,
      "d": 665.8603906249919,
      "v": 55
    },
    {
      "midi": 41,
      "hit": false,
      "t": 114460.68000000001,
      "d": 2749.97937500001,
      "v": 42
    },
    {
      "midi": 65,
      "hit": false,
      "t": 115383.75,
      "d": 439.9005468749965,
      "v": 52
    },
    {
      "midi": 62,
      "hit": false,
      "t": 115383.75,
      "d": 461.5350000000035,
      "v": 50
    },
    {
      "midi": 65,
      "hit": false,
      "t": 116306.82,
      "d": 478.3617968750041,
      "v": 60
    },
    {
      "midi": 62,
      "hit": false,
      "t": 116306.82,
      "d": 499.99625000001106,
      "v": 62
    },
    {
      "midi": 57,
      "hit": false,
      "t": 116768.35500000001,
      "d": 302.8823437500105,
      "v": 37
    },
    {
      "midi": 62,
      "hit": false,
      "t": 117229.89000000001,
      "d": 504.8039062500029,
      "v": 59
    },
    {
      "midi": 65,
      "hit": false,
      "t": 117229.89000000001,
      "d": 632.2067968750052,
      "v": 55
    },
    {
      "midi": 43,
      "hit": false,
      "t": 117229.89000000001,
      "d": 925.4738281250175,
      "v": 41
    },
    {
      "midi": 57,
      "hit": false,
      "t": 117691.42500000002,
      "d": 252.40195312500873,
      "v": 46
    },
    {
      "midi": 61,
      "hit": false,
      "t": 118152.96000000004,
      "d": 581.7264062500035,
      "v": 41
    },
    {
      "midi": 64,
      "hit": false,
      "t": 118152.96000000004,
      "d": 586.5340625000099,
      "v": 53
    },
    {
      "midi": 45,
      "hit": false,
      "t": 118152.96000000004,
      "d": 3519.204374999972,
      "v": 30
    },
    {
      "midi": 64,
      "hit": false,
      "t": 119076.03000000004,
      "d": 490.38093749999825,
      "v": 46
    },
    {
      "midi": 61,
      "hit": false,
      "t": 119076.03000000004,
      "d": 516.8230468749971,
      "v": 34
    },
    {
      "midi": 57,
      "hit": false,
      "t": 119076.03000000004,
      "d": 634.6106250000012,
      "v": 39
    },
    {
      "midi": 64,
      "hit": false,
      "t": 119999.10000000005,
      "d": 449.51585937499476,
      "v": 57
    },
    {
      "midi": 61,
      "hit": false,
      "t": 119999.10000000005,
      "d": 521.6307031249889,
      "v": 40
    },
    {
      "midi": 57,
      "hit": false,
      "t": 120460.63500000004,
      "d": 406.24695312499534,
      "v": 48
    },
    {
      "midi": 61,
      "hit": false,
      "t": 120922.17000000003,
      "d": 459.131171874993,
      "v": 42
    },
    {
      "midi": 64,
      "hit": false,
      "t": 120922.17000000003,
      "d": 468.74648437499127,
      "v": 59
    },
    {
      "midi": 69,
      "hit": false,
      "t": 121383.70500000002,
      "d": 259.6134374999965,
      "v": 54
    },
    {
      "midi": 62,
      "hit": false,
      "t": 121845.24,
      "d": 612.9761718749942,
      "v": 53
    },
    {
      "midi": 65,
      "hit": false,
      "t": 121845.24,
      "d": 649.0335937499913,
      "v": 50
    },
    {
      "midi": 45,
      "hit": false,
      "t": 121845.24,
      "d": 3439.8780468749756,
      "v": 40
    },
    {
      "midi": 65,
      "hit": false,
      "t": 122768.31,
      "d": 567.3034374999988,
      "v": 61
    },
    {
      "midi": 62,
      "hit": false,
      "t": 122768.31,
      "d": 569.7072656249948,
      "v": 47
    },
    {
      "midi": 65,
      "hit": false,
      "t": 123691.37999999999,
      "d": 471.15031250000175,
      "v": 58
    },
    {
      "midi": 62,
      "hit": false,
      "t": 123691.37999999999,
      "d": 516.8230468749971,
      "v": 54
    },
    {
      "midi": 57,
      "hit": false,
      "t": 124152.915,
      "d": 362.9780468749959,
      "v": 48
    },
    {
      "midi": 62,
      "hit": false,
      "t": 124614.44999999998,
      "d": 504.8039062500029,
      "v": 55
    },
    {
      "midi": 65,
      "hit": false,
      "t": 124614.44999999998,
      "d": 512.0153906250052,
      "v": 63
    },
    {
      "midi": 69,
      "hit": false,
      "t": 125075.98499999999,
      "d": 199.5177343749965,
      "v": 59
    },
    {
      "midi": 61,
      "hit": false,
      "t": 125537.51999999997,
      "d": 709.1292968749913,
      "v": 36
    },
    {
      "midi": 64,
      "hit": false,
      "t": 125537.51999999997,
      "d": 769.2249999999913,
      "v": 42
    },
    {
      "midi": 45,
      "hit": false,
      "t": 125537.51999999997,
      "d": 1521.6232031249965,
      "v": 44
    },
    {
      "midi": 64,
      "hit": false,
      "t": 126460.58999999997,
      "d": 507.20773437499884,
      "v": 53
    },
    {
      "midi": 61,
      "hit": false,
      "t": 126460.58999999997,
      "d": 538.4575000000041,
      "v": 36
    },
    {
      "midi": 64,
      "hit": false,
      "t": 127383.65999999996,
      "d": 401.4392968750035,
      "v": 59
    },
    {
      "midi": 61,
      "hit": false,
      "t": 127383.65999999996,
      "d": 475.95796875000815,
      "v": 42
    },
    {
      "midi": 43,
      "hit": false,
      "t": 127383.65999999996,
      "d": 548.0728125000023,
      "v": 47
    },
    {
      "midi": 57,
      "hit": false,
      "t": 127845.19499999996,
      "d": 326.92062499999884,
      "v": 55
    },
    {
      "midi": 43,
      "hit": false,
      "t": 128075.96249999997,
      "d": 79.32632812499651,
      "v": 54
    },
    {
      "midi": 61,
      "hit": false,
      "t": 128306.72999999995,
      "d": 430.28523437499825,
      "v": 60
    },
    {
      "midi": 57,
      "hit": false,
      "t": 128306.72999999995,
      "d": 612.9761718750087,
      "v": 66
    },
    {
      "midi": 43,
      "hit": false,
      "t": 128306.72999999995,
      "d": 935.0891406250012,
      "v": 63
    },
    {
      "midi": 62,
      "hit": false,
      "t": 128537.49749999995,
      "d": 290.86320312500175,
      "v": 57
    },
    {
      "midi": 64,
      "hit": false,
      "t": 128768.26499999996,
      "d": 432.68906250000873,
      "v": 62
    },
    {
      "midi": 57,
      "hit": false,
      "t": 129229.79999999996,
      "d": 211.5368749999907,
      "v": 54
    },
    {
      "midi": 62,
      "hit": false,
      "t": 129229.79999999996,
      "d": 536.0536718749936,
      "v": 67
    },
    {
      "midi": 65,
      "hit": false,
      "t": 129229.79999999996,
      "d": 704.3216406249994,
      "v": 63
    },
    {
      "midi": 41,
      "hit": false,
      "t": 129229.79999999996,
      "d": 2670.6530468749697,
      "v": 54
    },
    {
      "midi": 57,
      "hit": false,
      "t": 129691.33499999995,
      "d": 521.6307031250035,
      "v": 50
    },
    {
      "midi": 62,
      "hit": false,
      "t": 130152.86999999995,
      "d": 987.9733593749843,
      "v": 57
    },
    {
      "midi": 57,
      "hit": false,
      "t": 130614.40499999996,
      "d": 536.0536718749936,
      "v": 47
    },
    {
      "midi": 65,
      "hit": false,
      "t": 131075.93999999994,
      "d": 687.4948437499988,
      "v": 66
    },
    {
      "midi": 64,
      "hit": false,
      "t": 131537.47499999995,
      "d": 468.7464843749767,
      "v": 45
    },
    {
      "midi": 62,
      "hit": false,
      "t": 131999.00999999992,
      "d": 545.6689843749919,
      "v": 56
    },
    {
      "midi": 43,
      "hit": false,
      "t": 131999.00999999992,
      "d": 812.4939062499907,
      "v": 45
    },
    {
      "midi": 57,
      "hit": false,
      "t": 132460.54499999993,
      "d": 194.71007812497555,
      "v": 49
    },
    {
      "midi": 64,
      "hit": false,
      "t": 132922.0799999999,
      "d": 634.6106250000012,
      "v": 60
    },
    {
      "midi": 61,
      "hit": false,
      "t": 132922.0799999999,
      "d": 680.2833593749965,
      "v": 51
    },
    {
      "midi": 56,
      "hit": false,
      "t": 132922.0799999999,
      "d": 689.8986718750093,
      "v": 33
    },
    {
      "midi": 49,
      "hit": false,
      "t": 132922.0799999999,
      "d": 1302.8748437500035,
      "v": 32
    },
    {
      "midi": 64,
      "hit": false,
      "t": 133845.1499999999,
      "d": 591.3417187499872,
      "v": 60
    },
    {
      "midi": 61,
      "hit": false,
      "t": 133845.1499999999,
      "d": 632.2067968749907,
      "v": 49
    },
    {
      "midi": 56,
      "hit": false,
      "t": 133845.1499999999,
      "d": 740.3790624999965,
      "v": 33
    },
    {
      "midi": 64,
      "hit": false,
      "t": 134768.2199999999,
      "d": 403.84312499998487,
      "v": 63
    },
    {
      "midi": 61,
      "hit": false,
      "t": 134768.2199999999,
      "d": 454.32351562497206,
      "v": 54
    },
    {
      "midi": 56,
      "hit": false,
      "t": 134768.2199999999,
      "d": 745.1867187499593,
      "v": 37
    },
    {
      "midi": 45,
      "hit": false,
      "t": 134768.2199999999,
      "d": 865.3781249999593,
      "v": 46
    },
    {
      "midi": 59,
      "hit": false,
      "t": 135691.28999999986,
      "d": 374.99718750000466,
      "v": 64
    },
    {
      "midi": 56,
      "hit": false,
      "t": 135691.28999999986,
      "d": 403.84312500001397,
      "v": 30
    },
    {
      "midi": 63,
      "hit": false,
      "t": 135691.28999999986,
      "d": 420.669921875,
      "v": 47
    },
    {
      "midi": 44,
      "hit": false,
      "t": 135691.28999999986,
      "d": 980.7618749999965,
      "v": 32
    },
    {
      "midi": 66,
      "hit": false,
      "t": 136614.35999999987,
      "d": 711.5331249999872,
      "v": 49
    },
    {
      "midi": 61,
      "hit": false,
      "t": 136614.35999999987,
      "d": 730.7637499999837,
      "v": 49
    },
    {
      "midi": 57,
      "hit": false,
      "t": 136614.35999999987,
      "d": 742.7828906249779,
      "v": 51
    },
    {
      "midi": 42,
      "hit": false,
      "t": 136614.35999999987,
      "d": 1187.4910937499662,
      "v": 41
    },
    {
      "midi": 61,
      "hit": false,
      "t": 137537.42999999985,
      "d": 610.5723437499837,
      "v": 52
    },
    {
      "midi": 57,
      "hit": false,
      "t": 137537.42999999985,
      "d": 663.4565624999814,
      "v": 49
    },
    {
      "midi": 66,
      "hit": false,
      "t": 137537.42999999985,
      "d": 740.3790624999674,
      "v": 49
    },
    {
      "midi": 42,
      "hit": false,
      "t": 137998.96499999982,
      "d": 420.669921875,
      "v": 45
    },
    {
      "midi": 57,
      "hit": false,
      "t": 138460.49999999983,
      "d": 365.38187499999185,
      "v": 70
    },
    {
      "midi": 62,
      "hit": false,
      "t": 138460.49999999983,
      "d": 459.131171874993,
      "v": 83
    },
    {
      "midi": 66,
      "hit": false,
      "t": 138460.49999999983,
      "d": 615.3800000000047,
      "v": 54
    },
    {
      "midi": 50,
      "hit": false,
      "t": 138460.49999999983,
      "d": 846.1474999999919,
      "v": 56
    },
    {
      "midi": 56,
      "hit": false,
      "t": 139383.56999999983,
      "d": 334.13210937500116,
      "v": 54
    },
    {
      "midi": 61,
      "hit": false,
      "t": 139383.56999999983,
      "d": 355.76656250000815,
      "v": 63
    },
    {
      "midi": 64,
      "hit": false,
      "t": 139383.56999999983,
      "d": 377.40101562501513,
      "v": 70
    },
    {
      "midi": 49,
      "hit": false,
      "t": 139383.56999999983,
      "d": 975.9542187500047,
      "v": 42
    },
    {
      "midi": 66,
      "hit": false,
      "t": 140306.63999999984,
      "d": 610.5723437499837,
      "v": 63
    },
    {
      "midi": 62,
      "hit": false,
      "t": 140306.63999999984,
      "d": 617.783828124986,
      "v": 72
    },
    {
      "midi": 59,
      "hit": false,
      "t": 140306.63999999984,
      "d": 624.9953124999884,
      "v": 60
    },
    {
      "midi": 47,
      "hit": false,
      "t": 140306.63999999984,
      "d": 1766.8136718749884,
      "v": 53
    },
    {
      "midi": 66,
      "hit": false,
      "t": 141229.70999999982,
      "d": 514.4192187500012,
      "v": 52
    },
    {
      "midi": 62,
      "hit": false,
      "t": 141229.70999999982,
      "d": 536.0536718750081,
      "v": 60
    },
    {
      "midi": 59,
      "hit": false,
      "t": 141691.24499999982,
      "d": 377.40101562501513,
      "v": 51
    },
    {
      "midi": 66,
      "hit": false,
      "t": 142152.77999999982,
      "d": 483.1694531250105,
      "v": 61
    },
    {
      "midi": 62,
      "hit": false,
      "t": 142152.77999999982,
      "d": 557.6881250000151,
      "v": 70
    },
    {
      "midi": 45,
      "hit": false,
      "t": 142152.77999999982,
      "d": 1749.9868750000023,
      "v": 57
    },
    {
      "midi": 59,
      "hit": false,
      "t": 142614.31499999983,
      "d": 310.0938281250128,
      "v": 53
    },
    {
      "midi": 62,
      "hit": false,
      "t": 143075.84999999983,
      "d": 475.95796875000815,
      "v": 66
    },
    {
      "midi": 66,
      "hit": false,
      "t": 143075.84999999983,
      "d": 480.765625,
      "v": 60
    },
    {
      "midi": 71,
      "hit": false,
      "t": 143537.38499999983,
      "d": 228.36367187500582,
      "v": 53
    },
    {
      "midi": 68,
      "hit": false,
      "t": 143998.91999999984,
      "d": 661.052734375,
      "v": 49
    },
    {
      "midi": 64,
      "hit": false,
      "t": 143998.91999999984,
      "d": 735.5714062500047,
      "v": 63
    },
    {
      "midi": 44,
      "hit": false,
      "t": 143998.91999999984,
      "d": 1843.7361718750035,
      "v": 43
    },
    {
      "midi": 59,
      "hit": false,
      "t": 144691.22249999983,
      "d": 173.07562500002678,
      "v": 47
    },
    {
      "midi": 64,
      "hit": false,
      "t": 144921.98999999985,
      "d": 399.035468749993,
      "v": 63
    },
    {
      "midi": 68,
      "hit": false,
      "t": 144921.98999999985,
      "d": 399.035468749993,
      "v": 72
    },
    {
      "midi": 59,
      "hit": false,
      "t": 144921.98999999985,
      "d": 425.47757812499185,
      "v": 69
    },
    {
      "midi": 69,
      "hit": false,
      "t": 145152.75749999983,
      "d": 163.46031250001397,
      "v": 63
    },
    {
      "midi": 71,
      "hit": false,
      "t": 145383.52499999985,
      "d": 262.017265625007,
      "v": 68
    },
    {
      "midi": 59,
      "hit": false,
      "t": 145845.05999999985,
      "d": 519.226874999993,
      "v": 75
    },
    {
      "midi": 64,
      "hit": false,
      "t": 145845.05999999985,
      "d": 612.9761718749942,
      "v": 73
    },
    {
      "midi": 71,
      "hit": false,
      "t": 145845.05999999985,
      "d": 670.6680468749837,
      "v": 67
    },
    {
      "midi": 40,
      "hit": false,
      "t": 145845.05999999985,
      "d": 1829.3132031249988,
      "v": 70
    },
    {
      "midi": 64,
      "hit": false,
      "t": 146537.36249999984,
      "d": 52.88421874999767,
      "v": 37
    },
    {
      "midi": 59,
      "hit": false,
      "t": 146537.36249999984,
      "d": 112.97992187499767,
      "v": 54
    },
    {
      "midi": 68,
      "hit": false,
      "t": 146768.12999999983,
      "d": 560.0919531249965,
      "v": 76
    },
    {
      "midi": 64,
      "hit": false,
      "t": 146768.12999999983,
      "d": 612.9761718749942,
      "v": 76
    },
    {
      "midi": 59,
      "hit": false,
      "t": 146768.12999999983,
      "d": 622.591484375007,
      "v": 73
    },
    {
      "midi": 69,
      "hit": false,
      "t": 147229.66499999983,
      "d": 129.8067187499837,
      "v": 59
    },
    {
      "midi": 71,
      "hit": false,
      "t": 147460.43249999985,
      "d": 189.9024218750128,
      "v": 62
    },
    {
      "midi": 62,
      "hit": false,
      "t": 147691.19999999984,
      "d": 1240.375312499993,
      "v": 64
    },
    {
      "midi": 71,
      "hit": false,
      "t": 147691.19999999984,
      "d": 1521.6232031249674,
      "v": 61
    },
    {
      "midi": 67,
      "hit": false,
      "t": 147691.19999999984,
      "d": 1735.5639062499686,
      "v": 67
    },
    {
      "midi": 43,
      "hit": false,
      "t": 147691.19999999984,
      "d": 3728.3374218749523,
      "v": 71
    },
    {
      "midi": 62,
      "hit": false,
      "t": 149075.80499999982,
      "d": 298.0746874999895,
      "v": 59
    },
    {
      "midi": 71,
      "hit": false,
      "t": 149537.3399999998,
      "d": 499.9962499999965,
      "v": 70
    },
    {
      "midi": 67,
      "hit": false,
      "t": 149537.3399999998,
      "d": 552.8804687499942,
      "v": 79
    },
    {
      "midi": 62,
      "hit": false,
      "t": 149998.8749999998,
      "d": 127.40289062500233,
      "v": 42
    },
    {
      "midi": 71,
      "hit": false,
      "t": 150229.6424999998,
      "d": 701.9178125000035,
      "v": 75
    },
    {
      "midi": 67,
      "hit": false,
      "t": 150229.6424999998,
      "d": 1170.6642968749802,
      "v": 78
    },
    {
      "midi": 62,
      "hit": false,
      "t": 150921.9449999998,
      "d": 346.15125000002445,
      "v": 69
    },
    {
      "midi": 69,
      "hit": false,
      "t": 150921.9449999998,
      "d": 384.61250000001746,
      "v": 66
    },
    {
      "midi": 66,
      "hit": false,
      "t": 151383.4799999998,
      "d": 749.9943749999802,
      "v": 67
    },
    {
      "midi": 69,
      "hit": false,
      "t": 151383.4799999998,
      "d": 831.7245312499872,
      "v": 68
    },
    {
      "midi": 62,
      "hit": false,
      "t": 151383.4799999998,
      "d": 841.33984375,
      "v": 64
    },
    {
      "midi": 38,
      "hit": false,
      "t": 151383.4799999998,
      "d": 3379.7823437499756,
      "v": 70
    },
    {
      "midi": 66,
      "hit": false,
      "t": 152306.5499999998,
      "d": 355.76656250000815,
      "v": 60
    },
    {
      "midi": 62,
      "hit": false,
      "t": 152306.5499999998,
      "d": 461.5350000000035,
      "v": 68
    },
    {
      "midi": 62,
      "hit": false,
      "t": 152768.08499999982,
      "d": 141.82585937500698,
      "v": 58
    },
    {
      "midi": 67,
      "hit": false,
      "t": 152768.08499999982,
      "d": 189.9024218750128,
      "v": 64
    },
    {
      "midi": 62,
      "hit": false,
      "t": 152998.85249999983,
      "d": 411.0546093749872,
      "v": 66
    },
    {
      "midi": 69,
      "hit": false,
      "t": 152998.85249999983,
      "d": 550.4766406249837,
      "v": 70
    },
    {
      "midi": 66,
      "hit": false,
      "t": 152998.85249999983,
      "d": 567.3034374999697,
      "v": 72
    },
    {
      "midi": 62,
      "hit": false,
      "t": 153460.3874999998,
      "d": 88.94164062500931,
      "v": 49
    },
    {
      "midi": 69,
      "hit": false,
      "t": 153691.1549999998,
      "d": 418.2660937499895,
      "v": 79
    },
    {
      "midi": 66,
      "hit": false,
      "t": 153691.1549999998,
      "d": 420.669921875,
      "v": 87
    },
    {
      "midi": 62,
      "hit": false,
      "t": 153691.1549999998,
      "d": 963.9350781249814,
      "v": 63
    },
    {
      "midi": 67,
      "hit": false,
      "t": 154152.6899999998,
      "d": 249.9981249999837,
      "v": 59
    },
    {
      "midi": 69,
      "hit": false,
      "t": 154383.4574999998,
      "d": 278.844062499993,
      "v": 87
    },
    {
      "midi": 62,
      "hit": false,
      "t": 155075.75999999978,
      "d": 435.09289062500466,
      "v": 54
    },
    {
      "midi": 71,
      "hit": false,
      "t": 155075.75999999978,
      "d": 632.2067968749907,
      "v": 61
    },
    {
      "midi": 67,
      "hit": false,
      "t": 155075.75999999978,
      "d": 675.4757031250047,
      "v": 63
    },
    {
      "midi": 43,
      "hit": false,
      "t": 155075.75999999978,
      "d": 3754.7795312500384,
      "v": 59
    },
    {
      "midi": 62,
      "hit": false,
      "t": 155537.29499999978,
      "d": 305.28617187499185,
      "v": 39
    },
    {
      "midi": 71,
      "hit": false,
      "t": 155998.82999999978,
      "d": 415.86226562500815,
      "v": 56
    },
    {
      "midi": 67,
      "hit": false,
      "t": 155998.82999999978,
      "d": 463.93882812501397,
      "v": 62
    },
    {
      "midi": 62,
      "hit": false,
      "t": 156921.8999999998,
      "d": 439.9005468749965,
      "v": 71
    },
    {
      "midi": 72,
      "hit": false,
      "t": 156921.8999999998,
      "d": 612.9761718749942,
      "v": 62
    },
    {
      "midi": 67,
      "hit": false,
      "t": 156921.8999999998,
      "d": 644.2259374999849,
      "v": 73
    },
    {
      "midi": 62,
      "hit": false,
      "t": 157383.4349999998,
      "d": 151.4411718749907,
      "v": 38
    },
    {
      "midi": 72,
      "hit": false,
      "t": 157614.20249999978,
      "d": 408.6507812500058,
      "v": 64
    },
    {
      "midi": 62,
      "hit": false,
      "t": 157614.20249999978,
      "d": 420.669921875,
      "v": 73
    },
    {
      "midi": 67,
      "hit": false,
      "t": 157614.20249999978,
      "d": 427.8814062500023,
      "v": 78
    },
    {
      "midi": 71,
      "hit": false,
      "t": 158075.73749999978,
      "d": 555.2842968750047,
      "v": 77
    },
    {
      "midi": 62,
      "hit": false,
      "t": 158075.73749999978,
      "d": 579.322578124993,
      "v": 77
    },
    {
      "midi": 67,
      "hit": false,
      "t": 158075.73749999978,
      "d": 588.9378906250058,
      "v": 74
    },
    {
      "midi": 69,
      "hit": false,
      "t": 158768.0399999998,
      "d": 1067.2996875000244,
      "v": 63
    },
    {
      "midi": 66,
      "hit": false,
      "t": 158768.0399999998,
      "d": 1081.722656250029,
      "v": 54
    },
    {
      "midi": 38,
      "hit": false,
      "t": 159460.34249999982,
      "d": 93.74929687500116,
      "v": 71
    },
    {
      "midi": 62,
      "hit": false,
      "t": 159691.1099999998,
      "d": 115.38375000000815,
      "v": 70
    },
    {
      "midi": 66,
      "hit": false,
      "t": 159921.87749999983,
      "d": 185.09476562499185,
      "v": 51
    },
    {
      "midi": 71,
      "hit": false,
      "t": 160152.64499999981,
      "d": 341.3435937500035,
      "v": 60
    },
    {
      "midi": 62,
      "hit": false,
      "t": 160152.64499999981,
      "d": 348.5550781250058,
      "v": 74
    },
    {
      "midi": 67,
      "hit": false,
      "t": 160152.64499999981,
      "d": 365.38187499999185,
      "v": 68
    },
    {
      "midi": 69,
      "hit": false,
      "t": 160614.17999999982,
      "d": 427.8814062500023,
      "v": 63
    },
    {
      "midi": 66,
      "hit": false,
      "t": 160614.17999999982,
      "d": 473.5541406249977,
      "v": 64
    },
    {
      "midi": 62,
      "hit": false,
      "t": 160614.17999999982,
      "d": 562.495781250007,
      "v": 66
    },
    {
      "midi": 38,
      "hit": false,
      "t": 161075.71499999982,
      "d": 1269.2212500000023,
      "v": 64
    },
    {
      "midi": 59,
      "hit": false,
      "t": 161537.24999999983,
      "d": 81.73015625000698,
      "v": 59
    },
    {
      "midi": 62,
      "hit": false,
      "t": 161537.24999999983,
      "d": 91.34546875001979,
      "v": 63
    },
    {
      "midi": 57,
      "hit": false,
      "t": 161768.01749999984,
      "d": 384.61249999998836,
      "v": 59
    },
    {
      "midi": 62,
      "hit": false,
      "t": 161768.01749999984,
      "d": 396.63164062498254,
      "v": 73
    },
    {
      "midi": 50,
      "hit": false,
      "t": 162229.55249999982,
      "d": 93.74929687500116,
      "v": 56
    },
    {
      "midi": 62,
      "hit": false,
      "t": 162460.31999999983,
      "d": 752.3982031249907,
      "v": 57
    },
    {
      "midi": 66,
      "hit": false,
      "t": 162460.31999999983,
      "d": 771.6288281249872,
      "v": 61
    },
    {
      "midi": 42,
      "hit": false,
      "t": 162460.31999999983,
      "d": 2408.6357812499627,
      "v": 70
    },
    {
      "midi": 62,
      "hit": false,
      "t": 163383.3899999998,
      "d": 317.30531249998603,
      "v": 60
    },
    {
      "midi": 66,
      "hit": false,
      "t": 163383.3899999998,
      "d": 608.1685156249732,
      "v": 58
    },
    {
      "midi": 62,
      "hit": false,
      "t": 163844.92499999978,
      "d": 233.17132812499767,
      "v": 54
    },
    {
      "midi": 62,
      "hit": false,
      "t": 164306.4599999998,
      "d": 322.112968750007,
      "v": 59
    },
    {
      "midi": 66,
      "hit": false,
      "t": 164306.4599999998,
      "d": 447.11203124999884,
      "v": 52
    },
    {
      "midi": 62,
      "hit": false,
      "t": 164767.9949999998,
      "d": 298.0746875000186,
      "v": 60
    },
    {
      "midi": 42,
      "hit": false,
      "t": 164998.7624999998,
      "d": 1153.8375000000233,
      "v": 52
    },
    {
      "midi": 66,
      "hit": false,
      "t": 165229.52999999982,
      "d": 391.8239843749907,
      "v": 67
    },
    {
      "midi": 62,
      "hit": false,
      "t": 165229.52999999982,
      "d": 507.20773437499884,
      "v": 69
    },
    {
      "midi": 67,
      "hit": false,
      "t": 165460.2974999998,
      "d": 365.38187500002095,
      "v": 57
    },
    {
      "midi": 69,
      "hit": false,
      "t": 165691.06499999983,
      "d": 247.59429687500233,
      "v": 62
    },
    {
      "midi": 62,
      "hit": false,
      "t": 165921.83249999984,
      "d": 170.6717968749872,
      "v": 47
    },
    {
      "midi": 72,
      "hit": false,
      "t": 166152.59999999983,
      "d": 649.0335937500058,
      "v": 66
    },
    {
      "midi": 67,
      "hit": false,
      "t": 166152.59999999983,
      "d": 661.052734375,
      "v": 81
    },
    {
      "midi": 43,
      "hit": false,
      "t": 166152.59999999983,
      "d": 2254.7907812499907,
      "v": 70
    },
    {
      "midi": 62,
      "hit": false,
      "t": 166614.13499999983,
      "d": 129.8067187500128,
      "v": 54
    },
    {
      "midi": 67,
      "hit": false,
      "t": 166844.90249999982,
      "d": 360.57421875,
      "v": 49
    },
    {
      "midi": 72,
      "hit": false,
      "t": 167075.6699999998,
      "d": 175.47945312500815,
      "v": 55
    },
    {
      "midi": 62,
      "hit": false,
      "t": 167537.2049999998,
      "d": 1105.7609375000175,
      "v": 77
    },
    {
      "midi": 71,
      "hit": false,
      "t": 167537.2049999998,
      "d": 1175.4719531250303,
      "v": 73
    },
    {
      "midi": 67,
      "hit": false,
      "t": 167537.2049999998,
      "d": 1276.4327343750338,
      "v": 77
    },
    {
      "midi": 43,
      "hit": false,
      "t": 168460.27499999982,
      "d": 923.070000000007,
      "v": 73
    },
    {
      "midi": 71,
      "hit": false,
      "t": 168921.80999999985,
      "d": 331.7282812499907,
      "v": 76
    },
    {
      "midi": 62,
      "hit": false,
      "t": 169152.57749999984,
      "d": 146.63351562499884,
      "v": 70
    },
    {
      "midi": 42,
      "hit": false,
      "t": 169152.57749999984,
      "d": 692.3024999999907,
      "v": 63
    },
    {
      "midi": 66,
      "hit": false,
      "t": 169152.57749999984,
      "d": 692.3024999999907,
      "v": 96
    },
    {
      "midi": 69,
      "hit": false,
      "t": 169152.57749999984,
      "d": 692.3024999999907,
      "v": 92
    },
    {
      "midi": 67,
      "hit": false,
      "t": 169844.87999999983,
      "d": 733.1675781249942,
      "v": 55
    },
    {
      "midi": 59,
      "hit": false,
      "t": 169844.87999999983,
      "d": 769.2250000000058,
      "v": 48
    },
    {
      "midi": 64,
      "hit": false,
      "t": 169844.87999999983,
      "d": 798.0709375000151,
      "v": 57
    },
    {
      "midi": 40,
      "hit": false,
      "t": 169844.87999999983,
      "d": 1831.7170312500384,
      "v": 47
    },
    {
      "midi": 67,
      "hit": false,
      "t": 170767.94999999984,
      "d": 516.8230468750116,
      "v": 60
    },
    {
      "midi": 64,
      "hit": false,
      "t": 170767.94999999984,
      "d": 692.3025000000198,
      "v": 57
    },
    {
      "midi": 59,
      "hit": false,
      "t": 171229.48499999984,
      "d": 326.92062500002794,
      "v": 43
    },
    {
      "midi": 67,
      "hit": false,
      "t": 171691.01999999987,
      "d": 487.9771093750023,
      "v": 57
    },
    {
      "midi": 64,
      "hit": false,
      "t": 171691.01999999987,
      "d": 615.3800000000047,
      "v": 54
    },
    {
      "midi": 38,
      "hit": false,
      "t": 171691.01999999987,
      "d": 1817.2940625000047,
      "v": 47
    },
    {
      "midi": 59,
      "hit": false,
      "t": 172152.55499999988,
      "d": 274.03640625000116,
      "v": 47
    },
    {
      "midi": 67,
      "hit": false,
      "t": 172614.08999999988,
      "d": 473.5541406249977,
      "v": 52
    },
    {
      "midi": 64,
      "hit": false,
      "t": 172614.08999999988,
      "d": 579.322578124993,
      "v": 56
    },
    {
      "midi": 59,
      "hit": false,
      "t": 173075.62499999988,
      "d": 221.1521875000035,
      "v": 41
    },
    {
      "midi": 67,
      "hit": false,
      "t": 173537.1599999999,
      "d": 415.86226562500815,
      "v": 61
    },
    {
      "midi": 64,
      "hit": false,
      "t": 173537.1599999999,
      "d": 497.59242187501513,
      "v": 56
    },
    {
      "midi": 36,
      "hit": false,
      "t": 173537.1599999999,
      "d": 2973.5353906250093,
      "v": 33
    },
    {
      "midi": 60,
      "hit": false,
      "t": 173998.6949999999,
      "d": 406.24695312502445,
      "v": 41
    },
    {
      "midi": 67,
      "hit": false,
      "t": 174460.22999999992,
      "d": 533.6498437499977,
      "v": 60
    },
    {
      "midi": 64,
      "hit": false,
      "t": 174460.22999999992,
      "d": 540.861328125,
      "v": 53
    },
    {
      "midi": 72,
      "hit": false,
      "t": 174921.76499999993,
      "d": 249.9981249999837,
      "v": 50
    },
    {
      "midi": 63,
      "hit": false,
      "t": 175383.2999999999,
      "d": 173.07562499999767,
      "v": 55
    },
    {
      "midi": 75,
      "hit": false,
      "t": 175844.8349999999,
      "d": 961.53125,
      "v": 36
    },
    {
      "midi": 79,
      "hit": false,
      "t": 175895.3153906249,
      "d": 889.4164062500058,
      "v": 59
    },
    {
      "midi": 84,
      "hit": false,
      "t": 175948.1996093749,
      "d": 812.4939062500198,
      "v": 61
    },
    {
      "midi": 59,
      "hit": false,
      "t": 177229.43999999992,
      "d": 776.4364843750081,
      "v": 53
    },
    {
      "midi": 62,
      "hit": false,
      "t": 177229.43999999992,
      "d": 786.051796875021,
      "v": 62
    },
    {
      "midi": 47,
      "hit": false,
      "t": 177229.43999999992,
      "d": 1887.0050781249884,
      "v": 50
    },
    {
      "midi": 59,
      "hit": false,
      "t": 178152.50999999992,
      "d": 514.4192187500012,
      "v": 49
    },
    {
      "midi": 62,
      "hit": false,
      "t": 178152.50999999992,
      "d": 531.2460156249872,
      "v": 56
    },
    {
      "midi": 67,
      "hit": false,
      "t": 178614.04499999993,
      "d": 461.5349999999744,
      "v": 59
    },
    {
      "midi": 58,
      "hit": false,
      "t": 179075.5799999999,
      "d": 783.6479687500105,
      "v": 45
    },
    {
      "midi": 61,
      "hit": false,
      "t": 179075.5799999999,
      "d": 800.4747656249965,
      "v": 51
    },
    {
      "midi": 46,
      "hit": false,
      "t": 179075.5799999999,
      "d": 1908.6395312500536,
      "v": 43
    },
    {
      "midi": 61,
      "hit": false,
      "t": 179998.6499999999,
      "d": 536.0536718750081,
      "v": 48
    },
    {
      "midi": 58,
      "hit": false,
      "t": 179998.6499999999,
      "d": 550.4766406250128,
      "v": 35
    },
    {
      "midi": 67,
      "hit": false,
      "t": 180460.1849999999,
      "d": 399.0354687500221,
      "v": 71
    },
    {
      "midi": 60,
      "hit": false,
      "t": 180921.71999999994,
      "d": 692.3025000000198,
      "v": 54
    },
    {
      "midi": 57,
      "hit": false,
      "t": 180921.71999999994,
      "d": 798.0709375000151,
      "v": 47
    },
    {
      "midi": 45,
      "hit": false,
      "t": 180921.71999999994,
      "d": 1793.2557812500163,
      "v": 52
    },
    {
      "midi": 60,
      "hit": false,
      "t": 181844.78999999995,
      "d": 442.304375000007,
      "v": 63
    },
    {
      "midi": 67,
      "hit": false,
      "t": 182306.32499999995,
      "d": 353.3627343749977,
      "v": 67
    },
    {
      "midi": 67,
      "hit": false,
      "t": 182767.85999999996,
      "d": 432.6890624999942,
      "v": 63
    },
    {
      "midi": 60,
      "hit": false,
      "t": 182767.85999999996,
      "d": 1394.2203124999942,
      "v": 50
    },
    {
      "midi": 43,
      "hit": false,
      "t": 182767.85999999996,
      "d": 1829.3132031249988,
      "v": 44
    },
    {
      "midi": 66,
      "hit": false,
      "t": 183229.39499999996,
      "d": 230.7674999999872,
      "v": 54
    },
    {
      "midi": 64,
      "hit": false,
      "t": 183460.16249999995,
      "d": 461.5350000000035,
      "v": 56
    },
    {
      "midi": 66,
      "hit": false,
      "t": 184152.46499999994,
      "d": 230.7675000000163,
      "v": 44
    },
    {
      "midi": 67,
      "hit": false,
      "t": 184383.23249999995,
      "d": 230.7674999999872,
      "v": 72
    },
    {
      "midi": 62,
      "hit": false,
      "t": 184613.99999999994,
      "d": 288.4593750000058,
      "v": 60
    },
    {
      "midi": 59,
      "hit": false,
      "t": 184613.99999999994,
      "d": 290.8632031250163,
      "v": 52
    },
    {
      "midi": 55,
      "hit": false,
      "t": 184613.99999999994,
      "d": 302.8823437500105,
      "v": 49
    },
    {
      "midi": 43,
      "hit": false,
      "t": 184613.99999999994,
      "d": 317.30531250001513,
      "v": 57
    },
    {
      "midi": 62,
      "hit": false,
      "t": 185075.53499999995,
      "d": 218.74835937499302,
      "v": 50
    },
    {
      "midi": 59,
      "hit": false,
      "t": 185075.53499999995,
      "d": 233.17132812499767,
      "v": 40
    },
    {
      "midi": 55,
      "hit": false,
      "t": 185075.53499999995,
      "d": 235.57515625000815,
      "v": 43
    },
    {
      "midi": 43,
      "hit": false,
      "t": 185075.53499999995,
      "d": 326.92062499999884,
      "v": 44
    },
    {
      "midi": 62,
      "hit": false,
      "t": 185537.06999999995,
      "d": 266.82492187499884,
      "v": 55
    },
    {
      "midi": 59,
      "hit": false,
      "t": 185537.06999999995,
      "d": 271.6325781249907,
      "v": 51
    },
    {
      "midi": 55,
      "hit": false,
      "t": 185537.06999999995,
      "d": 281.2478906250035,
      "v": 45
    },
    {
      "midi": 43,
      "hit": false,
      "t": 185537.06999999995,
      "d": 326.92062499999884,
      "v": 41
    },
    {
      "midi": 62,
      "hit": false,
      "t": 185998.60499999995,
      "d": 218.74835937499302,
      "v": 45
    },
    {
      "midi": 59,
      "hit": false,
      "t": 185998.60499999995,
      "d": 225.95984374999534,
      "v": 43
    },
    {
      "midi": 55,
      "hit": false,
      "t": 185998.60499999995,
      "d": 230.7674999999872,
      "v": 40
    },
    {
      "midi": 43,
      "hit": false,
      "t": 185998.60499999995,
      "d": 269.2287499999802,
      "v": 38
    },
    {
      "midi": 62,
      "hit": false,
      "t": 186460.13999999993,
      "d": 307.6900000000023,
      "v": 46
    },
    {
      "midi": 59,
      "hit": false,
      "t": 186460.13999999993,
      "d": 314.90148437500466,
      "v": 43
    },
    {
      "midi": 55,
      "hit": false,
      "t": 186460.13999999993,
      "d": 319.7091406249965,
      "v": 37
    },
    {
      "midi": 43,
      "hit": false,
      "t": 186460.13999999993,
      "d": 341.3435937500035,
      "v": 44
    },
    {
      "midi": 62,
      "hit": false,
      "t": 186921.67499999993,
      "d": 262.017265625007,
      "v": 47
    },
    {
      "midi": 59,
      "hit": false,
      "t": 186921.67499999993,
      "d": 266.82492187499884,
      "v": 38
    },
    {
      "midi": 55,
      "hit": false,
      "t": 186921.67499999993,
      "d": 288.4593750000058,
      "v": 34
    },
    {
      "midi": 43,
      "hit": false,
      "t": 186921.67499999993,
      "d": 307.6900000000023,
      "v": 42
    },
    {
      "midi": 59,
      "hit": false,
      "t": 187383.20999999993,
      "d": 324.51679687498836,
      "v": 38
    },
    {
      "midi": 62,
      "hit": false,
      "t": 187383.20999999993,
      "d": 329.3244531249802,
      "v": 45
    },
    {
      "midi": 43,
      "hit": false,
      "t": 187383.20999999993,
      "d": 355.76656249997905,
      "v": 48
    },
    {
      "midi": 55,
      "hit": false,
      "t": 187383.20999999993,
      "d": 355.76656249997905,
      "v": 36
    },
    {
      "midi": 67,
      "hit": false,
      "t": 187844.7449999999,
      "d": 1314.8939843749977,
      "v": 62
    },
    {
      "midi": 58,
      "hit": false,
      "t": 187844.7449999999,
      "d": 1324.5092968750105,
      "v": 61
    },
    {
      "midi": 41,
      "hit": false,
      "t": 187844.7449999999,
      "d": 1329.3169531250023,
      "v": 57
    },
    {
      "midi": 63,
      "hit": false,
      "t": 187844.7449999999,
      "d": 1348.5475781249988,
      "v": 61
    },
    {
      "midi": 41,
      "hit": false,
      "t": 189229.34999999992,
      "d": 180.287109375,
      "v": 67
    },
    {
      "midi": 53,
      "hit": false,
      "t": 189229.34999999992,
      "d": 199.5177343749965,
      "v": 72
    },
    {
      "midi": 63,
      "hit": false,
      "t": 189229.34999999992,
      "d": 367.7857031250023,
      "v": 64
    },
    {
      "midi": 58,
      "hit": false,
      "t": 189229.34999999992,
      "d": 432.6890624999942,
      "v": 74
    },
    {
      "midi": 67,
      "hit": false,
      "t": 189229.34999999992,
      "d": 435.09289062500466,
      "v": 75
    },
    {
      "midi": 65,
      "hit": false,
      "t": 189690.88499999992,
      "d": 1211.5293750000128,
      "v": 78
    },
    {
      "midi": 62,
      "hit": false,
      "t": 189690.88499999992,
      "d": 1223.548515625007,
      "v": 78
    },
    {
      "midi": 53,
      "hit": false,
      "t": 189690.88499999992,
      "d": 1237.9714843750116,
      "v": 74
    },
    {
      "midi": 58,
      "hit": false,
      "t": 189690.88499999992,
      "d": 1259.6059375000186,
      "v": 78
    },
    {
      "midi": 41,
      "hit": false,
      "t": 189690.88499999992,
      "d": 1293.2595312500198,
      "v": 66
    },
    {
      "midi": 41,
      "hit": false,
      "t": 191075.48999999993,
      "d": 230.7674999999872,
      "v": 62
    },
    {
      "midi": 53,
      "hit": false,
      "t": 191075.48999999993,
      "d": 249.9981249999837,
      "v": 64
    },
    {
      "midi": 62,
      "hit": false,
      "t": 191075.48999999993,
      "d": 350.9589062499872,
      "v": 84
    },
    {
      "midi": 58,
      "hit": false,
      "t": 191075.48999999993,
      "d": 355.76656249997905,
      "v": 81
    },
    {
      "midi": 65,
      "hit": false,
      "t": 191075.48999999993,
      "d": 358.1703906249895,
      "v": 77
    },
    {
      "midi": 65,
      "hit": false,
      "t": 191537.02499999994,
      "d": 2740.3640625000116,
      "v": 71
    },
    {
      "midi": 57,
      "hit": false,
      "t": 191537.02499999994,
      "d": 2793.2482812500093,
      "v": 83
    },
    {
      "midi": 60,
      "hit": false,
      "t": 191537.02499999994,
      "d": 2798.055937500001,
      "v": 84
    },
    {
      "midi": 53,
      "hit": false,
      "t": 191537.02499999994,
      "d": 3495.166093750013,
      "v": 67
    },
    {
      "midi": 41,
      "hit": false,
      "t": 191537.02499999994,
      "d": 3516.80054687502,
      "v": 60
    },
    {
      "midi": 67,
      "hit": false,
      "t": 195229.30499999996,
      "d": 752.3982031249907,
      "v": 78
    },
    {
      "midi": 63,
      "hit": false,
      "t": 195229.30499999996,
      "d": 766.8211718749953,
      "v": 74
    },
    {
      "midi": 53,
      "hit": false,
      "t": 195229.30499999996,
      "d": 807.6862499999988,
      "v": 74
    },
    {
      "midi": 58,
      "hit": false,
      "t": 195229.30499999996,
      "d": 822.1092187500035,
      "v": 80
    },
    {
      "midi": 41,
      "hit": false,
      "t": 195229.30499999996,
      "d": 829.3207031250058,
      "v": 49
    },
    {
      "midi": 53,
      "hit": false,
      "t": 196613.90999999997,
      "d": 221.1521875000035,
      "v": 70
    },
    {
      "midi": 41,
      "hit": false,
      "t": 196613.90999999997,
      "d": 242.78664062501048,
      "v": 55
    },
    {
      "midi": 63,
      "hit": false,
      "t": 196613.90999999997,
      "d": 336.53593750001164,
      "v": 69
    },
    {
      "midi": 58,
      "hit": false,
      "t": 196613.90999999997,
      "d": 391.8239843750198,
      "v": 70
    },
    {
      "midi": 67,
      "hit": false,
      "t": 196613.90999999997,
      "d": 396.63164062501164,
      "v": 75
    },
    {
      "midi": 70,
      "hit": false,
      "t": 197075.44499999998,
      "d": 894.2240624999977,
      "v": 81
    },
    {
      "midi": 62,
      "hit": false,
      "t": 197075.44499999998,
      "d": 911.0508593749837,
      "v": 73
    },
    {
      "midi": 65,
      "hit": false,
      "t": 197075.44499999998,
      "d": 915.8585156249756,
      "v": 78
    },
    {
      "midi": 53,
      "hit": false,
      "t": 197075.44499999998,
      "d": 1319.7016406249895,
      "v": 66
    },
    {
      "midi": 41,
      "hit": false,
      "t": 197075.44499999998,
      "d": 1348.5475781249988,
      "v": 57
    },
    {
      "midi": 53,
      "hit": false,
      "t": 198460.05,
      "d": 225.95984374999534,
      "v": 66
    },
    {
      "midi": 41,
      "hit": false,
      "t": 198460.05,
      "d": 228.36367187500582,
      "v": 59
    },
    {
      "midi": 62,
      "hit": false,
      "t": 198460.05,
      "d": 278.844062499993,
      "v": 76
    },
    {
      "midi": 65,
      "hit": false,
      "t": 198460.05,
      "d": 298.0746874999895,
      "v": 79
    },
    {
      "midi": 70,
      "hit": false,
      "t": 198460.05,
      "d": 312.4976562499942,
      "v": 70
    },
    {
      "midi": 41,
      "hit": false,
      "t": 198921.585,
      "d": 737.975234374986,
      "v": 66
    },
    {
      "midi": 53,
      "hit": false,
      "t": 198921.585,
      "d": 745.1867187499884,
      "v": 76
    },
    {
      "midi": 72,
      "hit": false,
      "t": 198921.585,
      "d": 1067.2996874999953,
      "v": 70
    },
    {
      "midi": 69,
      "hit": false,
      "t": 198921.585,
      "d": 1151.4336718749837,
      "v": 87
    },
    {
      "midi": 65,
      "hit": false,
      "t": 198921.585,
      "d": 1153.8374999999942,
      "v": 81
    },
    {
      "midi": 65,
      "hit": false,
      "t": 200306.18999999997,
      "d": 372.5933593749942,
      "v": 84
    },
    {
      "midi": 77,
      "hit": false,
      "t": 200306.18999999997,
      "d": 442.304375000007,
      "v": 68
    },
    {
      "midi": 65,
      "hit": false,
      "t": 200767.72499999998,
      "d": 74.51867187500466,
      "v": 55
    },
    {
      "midi": 77,
      "hit": false,
      "t": 200767.72499999998,
      "d": 74.51867187500466,
      "v": 55
    },
    {
      "midi": 65,
      "hit": false,
      "t": 200998.4925,
      "d": 105.76843749999534,
      "v": 50
    },
    {
      "midi": 77,
      "hit": false,
      "t": 200998.4925,
      "d": 105.76843749999534,
      "v": 50
    },
    {
      "midi": 65,
      "hit": false,
      "t": 201229.25999999998,
      "d": 112.97992187499767,
      "v": 66
    },
    {
      "midi": 77,
      "hit": false,
      "t": 201229.25999999998,
      "d": 122.59523437501048,
      "v": 56
    },
    {
      "midi": 65,
      "hit": false,
      "t": 201460.0275,
      "d": 362.9780468750105,
      "v": 68
    },
    {
      "midi": 77,
      "hit": false,
      "t": 201460.0275,
      "d": 362.9780468750105,
      "v": 63
    },
    {
      "midi": 77,
      "hit": false,
      "t": 202152.33000000002,
      "d": 199.5177343749965,
      "v": 61
    },
    {
      "midi": 65,
      "hit": false,
      "t": 202152.33000000002,
      "d": 201.92156250000698,
      "v": 65
    },
    {
      "midi": 58,
      "hit": false,
      "t": 202613.86500000002,
      "d": 692.3024999999907,
      "v": 60
    },
    {
      "midi": 63,
      "hit": false,
      "t": 202613.86500000002,
      "d": 692.3024999999907,
      "v": 74
    },
    {
      "midi": 70,
      "hit": false,
      "t": 202613.86500000002,
      "d": 692.3024999999907,
      "v": 64
    },
    {
      "midi": 48,
      "hit": false,
      "t": 202613.86500000002,
      "d": 1168.2604687499988,
      "v": 74
    },
    {
      "midi": 36,
      "hit": false,
      "t": 202613.86500000002,
      "d": 1204.3178906250105,
      "v": 63
    },
    {
      "midi": 36,
      "hit": false,
      "t": 203998.47000000003,
      "d": 230.7674999999872,
      "v": 32
    },
    {
      "midi": 48,
      "hit": false,
      "t": 203998.47000000003,
      "d": 230.7674999999872,
      "v": 32
    },
    {
      "midi": 70,
      "hit": false,
      "t": 203998.47000000003,
      "d": 288.4593749999767,
      "v": 63
    },
    {
      "midi": 58,
      "hit": false,
      "t": 203998.47000000003,
      "d": 293.26703124996857,
      "v": 96
    },
    {
      "midi": 63,
      "hit": false,
      "t": 203998.47000000003,
      "d": 336.53593749998254,
      "v": 74
    },
    {
      "midi": 38,
      "hit": false,
      "t": 204460.005,
      "d": 1326.9131249999919,
      "v": 62
    },
    {
      "midi": 50,
      "hit": false,
      "t": 204460.005,
      "d": 1343.7399218749779,
      "v": 69
    },
    {
      "midi": 63,
      "hit": false,
      "t": 204460.005,
      "d": 1680.2758593749604,
      "v": 74
    },
    {
      "midi": 70,
      "hit": false,
      "t": 204460.005,
      "d": 1742.775390624971,
      "v": 63
    },
    {
      "midi": 58,
      "hit": false,
      "t": 204460.005,
      "d": 1805.2749218749814,
      "v": 93
    },
    {
      "midi": 38,
      "hit": false,
      "t": 206075.37749999997,
      "d": 692.3025000000489,
      "v": 67
    },
    {
      "midi": 50,
      "hit": false,
      "t": 206075.37749999997,
      "d": 692.3025000000489,
      "v": 72
    },
    {
      "midi": 58,
      "hit": false,
      "t": 206306.145,
      "d": 43.26890625001397,
      "v": 35
    },
    {
      "midi": 63,
      "hit": false,
      "t": 206306.145,
      "d": 233.17132812502678,
      "v": 64
    },
    {
      "midi": 70,
      "hit": false,
      "t": 206536.9125,
      "d": 137.01820312501513,
      "v": 49
    },
    {
      "midi": 39,
      "hit": false,
      "t": 206767.68000000002,
      "d": 1177.8757812500116,
      "v": 61
    },
    {
      "midi": 51,
      "hit": false,
      "t": 206767.68000000002,
      "d": 1192.2987500000163,
      "v": 80
    },
    {
      "midi": 63,
      "hit": false,
      "t": 206767.68000000002,
      "d": 1240.3753125000221,
      "v": 87
    },
    {
      "midi": 67,
      "hit": false,
      "t": 206767.68000000002,
      "d": 1264.4135937500105,
      "v": 89
    },
    {
      "midi": 70,
      "hit": false,
      "t": 206767.68000000002,
      "d": 1317.2978125000081,
      "v": 64
    },
    {
      "midi": 60,
      "hit": false,
      "t": 208152.28500000003,
      "d": 923.070000000007,
      "v": 81
    },
    {
      "midi": 65,
      "hit": false,
      "t": 208152.28500000003,
      "d": 1153.8374999999942,
      "v": 94
    },
    {
      "midi": 69,
      "hit": false,
      "t": 208152.28500000003,
      "d": 1153.8374999999942,
      "v": 74
    },
    {
      "midi": 53,
      "hit": false,
      "t": 208152.28500000003,
      "d": 1266.8174218749919,
      "v": 81
    },
    {
      "midi": 41,
      "hit": false,
      "t": 208152.28500000003,
      "d": 1281.2403906249965,
      "v": 60
    },
    {
      "midi": 60,
      "hit": false,
      "t": 209536.89000000004,
      "d": 218.74835937499302,
      "v": 73
    },
    {
      "midi": 65,
      "hit": false,
      "t": 209536.89000000004,
      "d": 218.74835937499302,
      "v": 81
    },
    {
      "midi": 53,
      "hit": false,
      "t": 209536.89000000004,
      "d": 798.070937499986,
      "v": 87
    },
    {
      "midi": 41,
      "hit": false,
      "t": 209536.89000000004,
      "d": 822.1092187499744,
      "v": 63
    },
    {
      "midi": 57,
      "hit": false,
      "t": 209767.65750000003,
      "d": 528.8421875000058,
      "v": 62
    },
    {
      "midi": 61,
      "hit": false,
      "t": 210459.96000000002,
      "d": 1033.6460937499942,
      "v": 93
    },
    {
      "midi": 65,
      "hit": false,
      "t": 210459.96000000002,
      "d": 1067.2996874999953,
      "v": 72
    },
    {
      "midi": 56,
      "hit": false,
      "t": 210459.96000000002,
      "d": 1103.357109375007,
      "v": 84
    },
    {
      "midi": 37,
      "hit": false,
      "t": 210459.96000000002,
      "d": 1512.0078906250128,
      "v": 60
    },
    {
      "midi": 49,
      "hit": false,
      "t": 210459.96000000002,
      "d": 1514.4117187500233,
      "v": 87
    },
    {
      "midi": 58,
      "hit": false,
      "t": 211844.56500000003,
      "d": 449.5158593750093,
      "v": 96
    },
    {
      "midi": 67,
      "hit": false,
      "t": 211844.56500000003,
      "d": 471.1503125000163,
      "v": 76
    },
    {
      "midi": 63,
      "hit": false,
      "t": 211844.56500000003,
      "d": 478.3617968750186,
      "v": 93
    },
    {
      "midi": 51,
      "hit": false,
      "t": 212075.33250000005,
      "d": 1495.1810937499686,
      "v": 61
    },
    {
      "midi": 39,
      "hit": false,
      "t": 212075.33250000005,
      "d": 1555.2767968749686,
      "v": 67
    },
    {
      "midi": 63,
      "hit": false,
      "t": 212767.63500000004,
      "d": 257.20960937498603,
      "v": 82
    },
    {
      "midi": 70,
      "hit": false,
      "t": 212767.63500000004,
      "d": 411.0546093749872,
      "v": 60
    },
    {
      "midi": 67,
      "hit": false,
      "t": 212767.63500000004,
      "d": 461.5349999999744,
      "v": 79
    },
    {
      "midi": 58,
      "hit": false,
      "t": 213229.17,
      "d": 237.97898437498952,
      "v": 93
    },
    {
      "midi": 65,
      "hit": false,
      "t": 213690.70500000002,
      "d": 798.070937499986,
      "v": 81
    },
    {
      "midi": 60,
      "hit": false,
      "t": 213690.70500000002,
      "d": 855.7628124999756,
      "v": 83
    },
    {
      "midi": 57,
      "hit": false,
      "t": 213690.70500000002,
      "d": 872.5896093749616,
      "v": 83
    },
    {
      "midi": 41,
      "hit": false,
      "t": 213690.70500000002,
      "d": 1187.4910937499662,
      "v": 68
    },
    {
      "midi": 53,
      "hit": false,
      "t": 213690.70500000002,
      "d": 1228.3561718749697,
      "v": 74
    },
    {
      "midi": 62,
      "hit": false,
      "t": 217844.52,
      "d": 461.5349999999744,
      "v": 59
    },
    {
      "midi": 59,
      "hit": false,
      "t": 217844.52,
      "d": 495.18859374997555,
      "v": 52
    },
    {
      "midi": 43,
      "hit": false,
      "t": 217844.52,
      "d": 3298.0521874999686,
      "v": 51
    },
    {
      "midi": 55,
      "hit": false,
      "t": 218306.05499999996,
      "d": 122.59523437501048,
      "v": 25
    },
    {
      "midi": 62,
      "hit": false,
      "t": 218767.58999999997,
      "d": 442.304375000007,
      "v": 47
    },
    {
      "midi": 59,
      "hit": false,
      "t": 218767.58999999997,
      "d": 471.1503125000163,
      "v": 41
    },
    {
      "midi": 55,
      "hit": false,
      "t": 219229.12499999997,
      "d": 173.07562500002678,
      "v": 29
    },
    {
      "midi": 62,
      "hit": false,
      "t": 219690.66,
      "d": 451.9196874999907,
      "v": 45
    },
    {
      "midi": 59,
      "hit": false,
      "t": 219690.66,
      "d": 634.6106250000012,
      "v": 45
    },
    {
      "midi": 55,
      "hit": false,
      "t": 220152.195,
      "d": 350.9589062499872,
      "v": 30
    },
    {
      "midi": 62,
      "hit": false,
      "t": 220613.72999999998,
      "d": 418.2660937499895,
      "v": 52
    },
    {
      "midi": 59,
      "hit": false,
      "t": 220613.72999999998,
      "d": 456.72734374998254,
      "v": 37
    },
    {
      "midi": 55,
      "hit": false,
      "t": 221075.26499999996,
      "d": 247.59429687500233,
      "v": 45
    },
    {
      "midi": 60,
      "hit": false,
      "t": 221536.79999999996,
      "d": 487.9771093750023,
      "v": 32
    },
    {
      "midi": 63,
      "hit": false,
      "t": 221536.79999999996,
      "d": 538.4574999999895,
      "v": 30
    },
    {
      "midi": 43,
      "hit": false,
      "t": 221536.79999999996,
      "d": 3257.187109374994,
      "v": 45
    },
    {
      "midi": 55,
      "hit": false,
      "t": 221998.33499999996,
      "d": 149.0373437499802,
      "v": 34
    },
    {
      "midi": 63,
      "hit": false,
      "t": 222459.86999999994,
      "d": 379.8048437499965,
      "v": 20
    },
    {
      "midi": 60,
      "hit": false,
      "t": 222459.86999999994,
      "d": 408.6507812500058,
      "v": 46
    },
    {
      "midi": 55,
      "hit": false,
      "t": 222921.40499999994,
      "d": 182.69093750001048,
      "v": 36
    },
    {
      "midi": 60,
      "hit": false,
      "t": 223382.93999999994,
      "d": 466.34265624999534,
      "v": 38
    },
    {
      "midi": 63,
      "hit": false,
      "t": 223382.93999999994,
      "d": 598.5532031249895,
      "v": 17
    },
    {
      "midi": 55,
      "hit": false,
      "t": 223844.47499999995,
      "d": 218.74835937499302,
      "v": 41
    },
    {
      "midi": 60,
      "hit": false,
      "t": 224306.00999999995,
      "d": 466.34265624999534,
      "v": 50
    },
    {
      "midi": 63,
      "hit": false,
      "t": 224306.00999999995,
      "d": 468.7464843750058,
      "v": 36
    },
    {
      "midi": 55,
      "hit": false,
      "t": 224767.54499999995,
      "d": 283.65171874998487,
      "v": 43
    },
    {
      "midi": 62,
      "hit": false,
      "t": 225229.07999999993,
      "d": 526.4383593749953,
      "v": 44
    },
    {
      "midi": 59,
      "hit": false,
      "t": 225229.07999999993,
      "d": 552.8804687499942,
      "v": 48
    },
    {
      "midi": 43,
      "hit": false,
      "t": 225229.07999999993,
      "d": 1865.3706249999814,
      "v": 52
    },
    {
      "midi": 55,
      "hit": false,
      "t": 225690.61499999993,
      "d": 257.20960937498603,
      "v": 44
    },
    {
      "midi": 62,
      "hit": false,
      "t": 226152.1499999999,
      "d": 468.7464843750058,
      "v": 54
    },
    {
      "midi": 59,
      "hit": false,
      "t": 226152.1499999999,
      "d": 487.9771093750023,
      "v": 49
    },
    {
      "midi": 55,
      "hit": false,
      "t": 226613.6849999999,
      "d": 314.90148437500466,
      "v": 49
    },
    {
      "midi": 62,
      "hit": false,
      "t": 227075.2199999999,
      "d": 475.95796875000815,
      "v": 63
    },
    {
      "midi": 59,
      "hit": false,
      "t": 227075.2199999999,
      "d": 528.8421875000058,
      "v": 57
    },
    {
      "midi": 41,
      "hit": false,
      "t": 227075.2199999999,
      "d": 1617.7763281250081,
      "v": 32
    },
    {
      "midi": 55,
      "hit": false,
      "t": 227536.75499999992,
      "d": 312.4976562499942,
      "v": 55
    },
    {
      "midi": 62,
      "hit": false,
      "t": 227998.28999999992,
      "d": 475.95796875000815,
      "v": 66
    },
    {
      "midi": 59,
      "hit": false,
      "t": 227998.28999999992,
      "d": 516.8230468750116,
      "v": 62
    },
    {
      "midi": 55,
      "hit": false,
      "t": 228459.82499999992,
      "d": 466.34265624999534,
      "v": 56
    },
    {
      "midi": 63,
      "hit": false,
      "t": 228921.35999999993,
      "d": 413.4584374999977,
      "v": 51
    },
    {
      "midi": 60,
      "hit": false,
      "t": 228921.35999999993,
      "d": 471.1503125000163,
      "v": 59
    },
    {
      "midi": 39,
      "hit": false,
      "t": 228921.35999999993,
      "d": 3331.7057812499406,
      "v": 34
    },
    {
      "midi": 55,
      "hit": false,
      "t": 229382.89499999993,
      "d": 341.3435937500035,
      "v": 47
    },
    {
      "midi": 63,
      "hit": false,
      "t": 229844.42999999993,
      "d": 495.18859375000466,
      "v": 38
    },
    {
      "midi": 60,
      "hit": false,
      "t": 229844.42999999993,
      "d": 524.034531250014,
      "v": 56
    },
    {
      "midi": 55,
      "hit": false,
      "t": 230305.96499999994,
      "d": 324.51679687501746,
      "v": 49
    },
    {
      "midi": 63,
      "hit": false,
      "t": 230767.49999999994,
      "d": 444.70820312498836,
      "v": 44
    },
    {
      "midi": 60,
      "hit": false,
      "t": 230767.49999999994,
      "d": 538.4574999999604,
      "v": 60
    },
    {
      "midi": 55,
      "hit": false,
      "t": 231229.03499999992,
      "d": 175.47945312497905,
      "v": 53
    },
    {
      "midi": 57,
      "hit": false,
      "t": 231690.5699999999,
      "d": 197.11390624998603,
      "v": 55
    },
    {
      "midi": 63,
      "hit": false,
      "t": 231690.5699999999,
      "d": 427.8814062499732,
      "v": 63
    },
    {
      "midi": 53,
      "hit": false,
      "t": 232152.10499999986,
      "d": 132.21054687499418,
      "v": 56
    },
    {
      "midi": 62,
      "hit": false,
      "t": 232613.63999999987,
      "d": 461.5349999999744,
      "v": 59
    },
    {
      "midi": 59,
      "hit": false,
      "t": 232613.63999999987,
      "d": 495.18859374997555,
      "v": 52
    },
    {
      "midi": 43,
      "hit": false,
      "t": 232613.63999999987,
      "d": 3298.0521874999686,
      "v": 51
    },
    {
      "midi": 55,
      "hit": false,
      "t": 233075.17499999984,
      "d": 122.59523437501048,
      "v": 25
    },
    {
      "midi": 62,
      "hit": false,
      "t": 233536.70999999985,
      "d": 442.304375000007,
      "v": 47
    },
    {
      "midi": 59,
      "hit": false,
      "t": 233536.70999999985,
      "d": 471.1503125000163,
      "v": 41
    },
    {
      "midi": 55,
      "hit": false,
      "t": 233998.24499999985,
      "d": 173.07562500002678,
      "v": 29
    },
    {
      "midi": 62,
      "hit": false,
      "t": 234459.77999999988,
      "d": 451.9196874999907,
      "v": 45
    },
    {
      "midi": 59,
      "hit": false,
      "t": 234459.77999999988,
      "d": 634.6106250000012,
      "v": 45
    },
    {
      "midi": 55,
      "hit": false,
      "t": 234921.3149999999,
      "d": 350.9589062499872,
      "v": 30
    },
    {
      "midi": 62,
      "hit": false,
      "t": 235382.84999999986,
      "d": 418.2660937499895,
      "v": 52
    },
    {
      "midi": 59,
      "hit": false,
      "t": 235382.84999999986,
      "d": 456.72734374998254,
      "v": 37
    },
    {
      "midi": 55,
      "hit": false,
      "t": 235844.38499999983,
      "d": 247.59429687500233,
      "v": 45
    },
    {
      "midi": 60,
      "hit": false,
      "t": 236305.91999999984,
      "d": 487.9771093750023,
      "v": 32
    },
    {
      "midi": 63,
      "hit": false,
      "t": 236305.91999999984,
      "d": 538.4574999999895,
      "v": 30
    },
    {
      "midi": 43,
      "hit": false,
      "t": 236305.91999999984,
      "d": 3257.187109374994,
      "v": 45
    },
    {
      "midi": 55,
      "hit": false,
      "t": 236767.45499999984,
      "d": 149.0373437499802,
      "v": 34
    },
    {
      "midi": 63,
      "hit": false,
      "t": 237228.98999999982,
      "d": 379.8048437499965,
      "v": 20
    },
    {
      "midi": 60,
      "hit": false,
      "t": 237228.98999999982,
      "d": 408.6507812500058,
      "v": 46
    },
    {
      "midi": 55,
      "hit": false,
      "t": 237690.52499999982,
      "d": 182.69093750001048,
      "v": 36
    },
    {
      "midi": 60,
      "hit": false,
      "t": 238152.05999999982,
      "d": 466.34265624999534,
      "v": 38
    },
    {
      "midi": 63,
      "hit": false,
      "t": 238152.05999999982,
      "d": 598.5532031249895,
      "v": 17
    },
    {
      "midi": 55,
      "hit": false,
      "t": 238613.59499999983,
      "d": 218.74835937499302,
      "v": 41
    },
    {
      "midi": 60,
      "hit": false,
      "t": 239075.12999999983,
      "d": 466.34265624999534,
      "v": 50
    },
    {
      "midi": 63,
      "hit": false,
      "t": 239075.12999999983,
      "d": 468.7464843750058,
      "v": 36
    },
    {
      "midi": 55,
      "hit": false,
      "t": 239536.66499999983,
      "d": 283.65171874998487,
      "v": 43
    },
    {
      "midi": 62,
      "hit": false,
      "t": 239998.1999999998,
      "d": 526.4383593749953,
      "v": 44
    },
    {
      "midi": 59,
      "hit": false,
      "t": 239998.1999999998,
      "d": 552.8804687499942,
      "v": 48
    },
    {
      "midi": 43,
      "hit": false,
      "t": 239998.1999999998,
      "d": 1865.3706249999814,
      "v": 52
    },
    {
      "midi": 55,
      "hit": false,
      "t": 240459.7349999998,
      "d": 257.20960937498603,
      "v": 44
    },
    {
      "midi": 62,
      "hit": false,
      "t": 240921.2699999998,
      "d": 468.7464843750058,
      "v": 54
    },
    {
      "midi": 59,
      "hit": false,
      "t": 240921.2699999998,
      "d": 487.9771093750023,
      "v": 49
    },
    {
      "midi": 55,
      "hit": false,
      "t": 241382.8049999998,
      "d": 314.90148437500466,
      "v": 49
    },
    {
      "midi": 62,
      "hit": false,
      "t": 241844.3399999998,
      "d": 475.95796875000815,
      "v": 63
    },
    {
      "midi": 59,
      "hit": false,
      "t": 241844.3399999998,
      "d": 528.8421875000058,
      "v": 57
    },
    {
      "midi": 41,
      "hit": false,
      "t": 241844.3399999998,
      "d": 1617.7763281250081,
      "v": 32
    },
    {
      "midi": 55,
      "hit": false,
      "t": 242305.8749999998,
      "d": 312.4976562499942,
      "v": 55
    },
    {
      "midi": 62,
      "hit": false,
      "t": 242767.4099999998,
      "d": 475.95796875000815,
      "v": 66
    },
    {
      "midi": 59,
      "hit": false,
      "t": 242767.4099999998,
      "d": 516.8230468750116,
      "v": 62
    },
    {
      "midi": 55,
      "hit": false,
      "t": 243228.9449999998,
      "d": 466.34265624999534,
      "v": 56
    },
    {
      "midi": 63,
      "hit": false,
      "t": 243690.4799999998,
      "d": 413.4584374999977,
      "v": 51
    },
    {
      "midi": 60,
      "hit": false,
      "t": 243690.4799999998,
      "d": 471.1503125000163,
      "v": 59
    },
    {
      "midi": 39,
      "hit": false,
      "t": 243690.4799999998,
      "d": 3331.7057812499406,
      "v": 34
    },
    {
      "midi": 55,
      "hit": false,
      "t": 244152.0149999998,
      "d": 341.3435937500035,
      "v": 47
    },
    {
      "midi": 63,
      "hit": false,
      "t": 244613.5499999998,
      "d": 495.18859375000466,
      "v": 38
    },
    {
      "midi": 60,
      "hit": false,
      "t": 244613.5499999998,
      "d": 524.034531250014,
      "v": 56
    },
    {
      "midi": 55,
      "hit": false,
      "t": 245075.08499999982,
      "d": 324.51679687501746,
      "v": 49
    },
    {
      "midi": 63,
      "hit": false,
      "t": 245536.61999999982,
      "d": 444.70820312498836,
      "v": 44
    },
    {
      "midi": 60,
      "hit": false,
      "t": 245536.61999999982,
      "d": 538.4574999999604,
      "v": 60
    },
    {
      "midi": 55,
      "hit": false,
      "t": 245998.1549999998,
      "d": 175.47945312497905,
      "v": 53
    },
    {
      "midi": 57,
      "hit": false,
      "t": 246459.68999999977,
      "d": 197.11390624998603,
      "v": 55
    },
    {
      "midi": 63,
      "hit": false,
      "t": 246459.68999999977,
      "d": 427.8814062499732,
      "v": 63
    },
    {
      "midi": 53,
      "hit": false,
      "t": 246921.22499999974,
      "d": 132.21054687499418,
      "v": 56
    },
    {
      "midi": 62,
      "hit": false,
      "t": 247382.75999999975,
      "d": 478.3617968749895,
      "v": 59
    },
    {
      "midi": 59,
      "hit": false,
      "t": 247382.75999999975,
      "d": 533.6498437499977,
      "v": 46
    },
    {
      "midi": 43,
      "hit": false,
      "t": 247382.75999999975,
      "d": 3449.4933593749884,
      "v": 49
    },
    {
      "midi": 55,
      "hit": false,
      "t": 247844.29499999975,
      "d": 165.86414062499534,
      "v": 38
    },
    {
      "midi": 62,
      "hit": false,
      "t": 248305.82999999975,
      "d": 415.86226562500815,
      "v": 57
    },
    {
      "midi": 59,
      "hit": false,
      "t": 248305.82999999975,
      "d": 531.2460156250163,
      "v": 50
    },
    {
      "midi": 55,
      "hit": false,
      "t": 248767.36499999976,
      "d": 168.26796875000582,
      "v": 47
    },
    {
      "midi": 62,
      "hit": false,
      "t": 249228.89999999976,
      "d": 466.34265624999534,
      "v": 53
    },
    {
      "midi": 59,
      "hit": false,
      "t": 249228.89999999976,
      "d": 516.8230468749825,
      "v": 46
    },
    {
      "midi": 55,
      "hit": false,
      "t": 249690.43499999976,
      "d": 387.01632812496973,
      "v": 53
    },
    {
      "midi": 62,
      "hit": false,
      "t": 250151.96999999974,
      "d": 504.80390625001746,
      "v": 57
    },
    {
      "midi": 59,
      "hit": false,
      "t": 250151.96999999974,
      "d": 528.8421875000058,
      "v": 54
    },
    {
      "midi": 55,
      "hit": false,
      "t": 250613.50499999974,
      "d": 206.72921874999884,
      "v": 64
    },
    {
      "midi": 48,
      "hit": false,
      "t": 251075.03999999975,
      "d": 692.3024999999907,
      "v": 72
    },
    {
      "midi": 55,
      "hit": false,
      "t": 251075.03999999975,
      "d": 692.3024999999907,
      "v": 72
    },
    {
      "midi": 60,
      "hit": false,
      "t": 251075.03999999975,
      "d": 692.3024999999907,
      "v": 72
    },
    {
      "midi": 65,
      "hit": false,
      "t": 251075.03999999975,
      "d": 692.3024999999907,
      "v": 72
    },
    {
      "midi": 48,
      "hit": false,
      "t": 251767.34249999974,
      "d": 692.3024999999907,
      "v": 73
    },
    {
      "midi": 55,
      "hit": false,
      "t": 251767.34249999974,
      "d": 692.3024999999907,
      "v": 73
    },
    {
      "midi": 60,
      "hit": false,
      "t": 251767.34249999974,
      "d": 692.3024999999907,
      "v": 73
    },
    {
      "midi": 64,
      "hit": false,
      "t": 251767.34249999974,
      "d": 692.3024999999907,
      "v": 73
    },
    {
      "midi": 48,
      "hit": false,
      "t": 252459.64499999973,
      "d": 923.070000000007,
      "v": 83
    },
    {
      "midi": 64,
      "hit": false,
      "t": 252459.64499999973,
      "d": 1382.201171875,
      "v": 83
    },
    {
      "midi": 55,
      "hit": false,
      "t": 252459.64499999973,
      "d": 1574.5074218749942,
      "v": 83
    },
    {
      "midi": 60,
      "hit": false,
      "t": 252459.64499999973,
      "d": 1586.5265624999884,
      "v": 83
    },
    {
      "midi": 48,
      "hit": false,
      "t": 253382.71499999973,
      "d": 692.3024999999907,
      "v": 82
    },
    {
      "midi": 47,
      "hit": false,
      "t": 254075.01749999973,
      "d": 692.3024999999907,
      "v": 70
    },
    {
      "midi": 54,
      "hit": false,
      "t": 254075.01749999973,
      "d": 692.3024999999907,
      "v": 70
    },
    {
      "midi": 59,
      "hit": false,
      "t": 254075.01749999973,
      "d": 692.3024999999907,
      "v": 70
    },
    {
      "midi": 62,
      "hit": false,
      "t": 254075.01749999973,
      "d": 692.3024999999907,
      "v": 70
    },
    {
      "midi": 52,
      "hit": false,
      "t": 254767.31999999972,
      "d": 170.6717968749872,
      "v": 57
    },
    {
      "midi": 57,
      "hit": false,
      "t": 254767.31999999972,
      "d": 213.94070312500116,
      "v": 67
    },
    {
      "midi": 60,
      "hit": false,
      "t": 254767.31999999972,
      "d": 225.95984374999534,
      "v": 58
    },
    {
      "midi": 45,
      "hit": false,
      "t": 254767.31999999972,
      "d": 1846.140000000014,
      "v": 62
    },
    {
      "midi": 69,
      "hit": false,
      "t": 255690.38999999972,
      "d": 490.3809375000128,
      "v": 74
    },
    {
      "midi": 72,
      "hit": false,
      "t": 255690.38999999972,
      "d": 543.2651562500105,
      "v": 64
    },
    {
      "midi": 64,
      "hit": false,
      "t": 255690.38999999972,
      "d": 569.7072656250093,
      "v": 55
    },
    {
      "midi": 71,
      "hit": false,
      "t": 256613.45999999973,
      "d": 617.783828124986,
      "v": 68
    },
    {
      "midi": 67,
      "hit": false,
      "t": 256613.45999999973,
      "d": 685.0910156249884,
      "v": 70
    },
    {
      "midi": 64,
      "hit": false,
      "t": 256613.45999999973,
      "d": 754.8020312500012,
      "v": 63
    },
    {
      "midi": 43,
      "hit": false,
      "t": 256613.45999999973,
      "d": 1826.9093750000175,
      "v": 70
    },
    {
      "midi": 71,
      "hit": false,
      "t": 257536.52999999974,
      "d": 449.5158593750093,
      "v": 63
    },
    {
      "midi": 67,
      "hit": false,
      "t": 257536.52999999974,
      "d": 490.3809375000128,
      "v": 66
    },
    {
      "midi": 64,
      "hit": false,
      "t": 257998.06499999974,
      "d": 141.82585937500698,
      "v": 53
    },
    {
      "midi": 69,
      "hit": false,
      "t": 258459.59999999974,
      "d": 800.4747656249965,
      "v": 70
    },
    {
      "midi": 66,
      "hit": false,
      "t": 258459.59999999974,
      "d": 819.705390624993,
      "v": 70
    },
    {
      "midi": 62,
      "hit": false,
      "t": 258459.59999999974,
      "d": 829.3207031250058,
      "v": 70
    },
    {
      "midi": 42,
      "hit": false,
      "t": 258459.59999999974,
      "d": 1615.3725000000268,
      "v": 70
    },
    {
      "midi": 69,
      "hit": false,
      "t": 259382.66999999975,
      "d": 596.1493750000081,
      "v": 64
    },
    {
      "midi": 66,
      "hit": false,
      "t": 259382.66999999975,
      "d": 651.4374218750163,
      "v": 64
    },
    {
      "midi": 62,
      "hit": false,
      "t": 259382.66999999975,
      "d": 704.321640625014,
      "v": 64
    },
    {
      "midi": 38,
      "hit": false,
      "t": 260074.97249999977,
      "d": 230.7674999999872,
      "v": 64
    },
    {
      "midi": 62,
      "hit": false,
      "t": 260305.73999999976,
      "d": 146.63351562499884,
      "v": 60
    },
    {
      "midi": 66,
      "hit": false,
      "t": 260305.73999999976,
      "d": 201.92156250000698,
      "v": 60
    },
    {
      "midi": 69,
      "hit": false,
      "t": 260305.73999999976,
      "d": 218.74835937499302,
      "v": 60
    },
    {
      "midi": 69,
      "hit": false,
      "t": 261228.80999999976,
      "d": 168.26796875000582,
      "v": 59
    },
    {
      "midi": 66,
      "hit": false,
      "t": 261228.80999999976,
      "d": 173.07562499999767,
      "v": 59
    },
    {
      "midi": 74,
      "hit": false,
      "t": 261228.80999999976,
      "d": 192.30624999999418,
      "v": 59
    },
    {
      "midi": 38,
      "hit": false,
      "t": 261228.80999999976,
      "d": 230.7674999999872,
      "v": 59
    },
    {
      "midi": 67,
      "hit": false,
      "t": 262151.8799999998,
      "d": 658.6489062500186,
      "v": 72
    },
    {
      "midi": 55,
      "hit": false,
      "t": 262151.8799999998,
      "d": 661.052734375,
      "v": 70
    },
    {
      "midi": 55,
      "hit": false,
      "t": 262844.18249999976,
      "d": 653.8412499999977,
      "v": 74
    },
    {
      "midi": 67,
      "hit": false,
      "t": 262844.18249999976,
      "d": 675.4757031250047,
      "v": 70
    },
    {
      "midi": 55,
      "hit": false,
      "t": 263536.48499999975,
      "d": 947.1082812499953,
      "v": 69
    },
    {
      "midi": 67,
      "hit": false,
      "t": 263536.48499999975,
      "d": 1002.3963281249744,
      "v": 70
    },
    {
      "midi": 73,
      "hit": false,
      "t": 265844.15999999974,
      "d": 637.0144531250116,
      "v": 54
    },
    {
      "midi": 64,
      "hit": false,
      "t": 265844.15999999974,
      "d": 644.225937500014,
      "v": 70
    },
    {
      "midi": 69,
      "hit": false,
      "t": 265844.15999999974,
      "d": 651.4374218750163,
      "v": 81
    },
    {
      "midi": 45,
      "hit": false,
      "t": 265844.15999999974,
      "d": 673.0718750000233,
      "v": 83
    },
    {
      "midi": 45,
      "hit": false,
      "t": 266536.4624999998,
      "d": 574.5149218749721,
      "v": 79
    },
    {
      "midi": 73,
      "hit": false,
      "t": 266536.4624999998,
      "d": 579.322578124993,
      "v": 57
    },
    {
      "midi": 64,
      "hit": false,
      "t": 266536.4624999998,
      "d": 600.95703125,
      "v": 73
    },
    {
      "midi": 69,
      "hit": false,
      "t": 266536.4624999998,
      "d": 608.1685156250023,
      "v": 82
    },
    {
      "midi": 69,
      "hit": false,
      "t": 267228.7649999998,
      "d": 1235.567656249972,
      "v": 82
    },
    {
      "midi": 64,
      "hit": false,
      "t": 267228.7649999998,
      "d": 1269.2212499999441,
      "v": 68
    },
    {
      "midi": 73,
      "hit": false,
      "t": 267228.7649999998,
      "d": 1271.6250781249255,
      "v": 57
    },
    {
      "midi": 45,
      "hit": false,
      "t": 267228.7649999998,
      "d": 1442.2968749999418,
      "v": 82
    },
    {
      "midi": 79,
      "hit": false,
      "t": 269536.4399999997,
      "d": 629.8029687500093,
      "v": 67
    },
    {
      "midi": 48,
      "hit": false,
      "t": 269536.4399999997,
      "d": 649.0335937500349,
      "v": 82
    },
    {
      "midi": 72,
      "hit": false,
      "t": 269536.4399999997,
      "d": 651.4374218750163,
      "v": 67
    },
    {
      "midi": 76,
      "hit": false,
      "t": 269536.4399999997,
      "d": 663.4565625000396,
      "v": 70
    },
    {
      "midi": 48,
      "hit": false,
      "t": 270228.74249999976,
      "d": 552.8804687500233,
      "v": 99
    },
    {
      "midi": 79,
      "hit": false,
      "t": 270228.74249999976,
      "d": 605.764687500021,
      "v": 66
    },
    {
      "midi": 72,
      "hit": false,
      "t": 270228.74249999976,
      "d": 629.8029687500093,
      "v": 66
    },
    {
      "midi": 76,
      "hit": false,
      "t": 270228.74249999976,
      "d": 639.418281249993,
      "v": 68
    },
    {
      "midi": 79,
      "hit": false,
      "t": 270921.04499999975,
      "d": 1324.5092968749814,
      "v": 60
    },
    {
      "midi": 72,
      "hit": false,
      "t": 270921.04499999975,
      "d": 1423.0662499999744,
      "v": 66
    },
    {
      "midi": 76,
      "hit": false,
      "t": 270921.04499999975,
      "d": 1423.0662499999744,
      "v": 70
    },
    {
      "midi": 48,
      "hit": false,
      "t": 270921.04499999975,
      "d": 1627.3916406249627,
      "v": 87
    },
    {
      "midi": 74,
      "hit": false,
      "t": 273228.71999999974,
      "d": 466.34265624999534,
      "v": 75
    },
    {
      "midi": 79,
      "hit": false,
      "t": 273228.71999999974,
      "d": 499.9962499999674,
      "v": 73
    },
    {
      "midi": 71,
      "hit": false,
      "t": 273228.71999999974,
      "d": 509.6115624999511,
      "v": 72
    },
    {
      "midi": 43,
      "hit": false,
      "t": 273690.2549999997,
      "d": 300.478515625,
      "v": 73
    },
    {
      "midi": 79,
      "hit": false,
      "t": 274151.7899999997,
      "d": 661.052734375,
      "v": 70
    },
    {
      "midi": 74,
      "hit": false,
      "t": 274151.7899999997,
      "d": 665.860390625021,
      "v": 79
    },
    {
      "midi": 71,
      "hit": false,
      "t": 274151.7899999997,
      "d": 668.2642187500023,
      "v": 78
    },
    {
      "midi": 43,
      "hit": false,
      "t": 274613.32499999966,
      "d": 225.95984375005355,
      "v": 78
    },
    {
      "midi": 43,
      "hit": false,
      "t": 275074.8599999997,
      "d": 461.5349999999744,
      "v": 66
    },
    {
      "midi": 74,
      "hit": false,
      "t": 275074.8599999997,
      "d": 918.262343749986,
      "v": 84
    },
    {
      "midi": 71,
      "hit": false,
      "t": 275074.8599999997,
      "d": 927.8776562500279,
      "v": 86
    },
    {
      "midi": 79,
      "hit": false,
      "t": 275074.8599999997,
      "d": 927.8776562500279,
      "v": 73
    },
    {
      "midi": 42,
      "hit": false,
      "t": 275997.9299999997,
      "d": 461.5350000000326,
      "v": 59
    },
    {
      "midi": 67,
      "hit": false,
      "t": 276920.9999999997,
      "d": 745.1867187499884,
      "v": 66
    },
    {
      "midi": 64,
      "hit": false,
      "t": 276920.9999999997,
      "d": 819.705390624993,
      "v": 72
    },
    {
      "midi": 52,
      "hit": false,
      "t": 276920.9999999997,
      "d": 1769.2174999999115,
      "v": 58
    },
    {
      "midi": 59,
      "hit": false,
      "t": 277382.5349999997,
      "d": 391.8239843749907,
      "v": 53
    },
    {
      "midi": 67,
      "hit": false,
      "t": 277844.06999999966,
      "d": 437.49671874998603,
      "v": 63
    },
    {
      "midi": 64,
      "hit": false,
      "t": 277844.06999999966,
      "d": 485.57328124996275,
      "v": 66
    },
    {
      "midi": 59,
      "hit": false,
      "t": 278305.60499999963,
      "d": 242.78664062498137,
      "v": 54
    },
    {
      "midi": 55,
      "hit": false,
      "t": 278767.1399999996,
      "d": 622.591484375007,
      "v": 70
    },
    {
      "midi": 60,
      "hit": false,
      "t": 278767.1399999996,
      "d": 677.879531249986,
      "v": 70
    },
    {
      "midi": 64,
      "hit": false,
      "t": 278767.1399999996,
      "d": 716.340781249979,
      "v": 63
    },
    {
      "midi": 48,
      "hit": false,
      "t": 278767.1399999996,
      "d": 942.3006250000326,
      "v": 66
    },
    {
      "midi": 59,
      "hit": false,
      "t": 279690.2099999996,
      "d": 622.591484375007,
      "v": 71
    },
    {
      "midi": 54,
      "hit": false,
      "t": 279690.2099999996,
      "d": 661.052734375,
      "v": 50
    },
    {
      "midi": 62,
      "hit": false,
      "t": 279690.2099999996,
      "d": 699.513984374993,
      "v": 70
    },
    {
      "midi": 47,
      "hit": false,
      "t": 279690.2099999996,
      "d": 920.6661718749674,
      "v": 73
    },
    {
      "midi": 60,
      "hit": false,
      "t": 280613.27999999956,
      "d": 502.4000781249488,
      "v": 63
    },
    {
      "midi": 64,
      "hit": false,
      "t": 280613.27999999956,
      "d": 504.80390624993015,
      "v": 63
    },
    {
      "midi": 45,
      "hit": false,
      "t": 280613.27999999956,
      "d": 1877.3897656248882,
      "v": 69
    },
    {
      "midi": 57,
      "hit": false,
      "t": 281074.81499999954,
      "d": 435.09289062494645,
      "v": 56
    },
    {
      "midi": 64,
      "hit": false,
      "t": 281536.3499999995,
      "d": 509.6115624999511,
      "v": 57
    },
    {
      "midi": 60,
      "hit": false,
      "t": 281536.3499999995,
      "d": 569.7072656249511,
      "v": 62
    },
    {
      "midi": 57,
      "hit": false,
      "t": 281997.8849999995,
      "d": 173.07562499999767,
      "v": 53
    },
    {
      "midi": 69,
      "hit": false,
      "t": 282459.41999999946,
      "d": 663.4565624999814,
      "v": 68
    },
    {
      "midi": 65,
      "hit": false,
      "t": 282459.41999999946,
      "d": 711.5331249999581,
      "v": 75
    },
    {
      "midi": 60,
      "hit": false,
      "t": 282459.41999999946,
      "d": 737.975234374986,
      "v": 62
    },
    {
      "midi": 53,
      "hit": false,
      "t": 282459.41999999946,
      "d": 978.358046874986,
      "v": 67
    },
    {
      "midi": 67,
      "hit": false,
      "t": 283382.48999999947,
      "d": 754.8020312499721,
      "v": 55
    },
    {
      "midi": 59,
      "hit": false,
      "t": 283382.48999999947,
      "d": 762.0135156249744,
      "v": 61
    },
    {
      "midi": 64,
      "hit": false,
      "t": 283382.48999999947,
      "d": 807.6862499999697,
      "v": 62
    },
    {
      "midi": 52,
      "hit": false,
      "t": 283382.48999999947,
      "d": 980.7618749999674,
      "v": 59
    },
    {
      "midi": 65,
      "hit": false,
      "t": 284305.5599999994,
      "d": 656.2450781250373,
      "v": 59
    },
    {
      "midi": 57,
      "hit": false,
      "t": 284305.5599999994,
      "d": 677.8795312500442,
      "v": 59
    },
    {
      "midi": 62,
      "hit": false,
      "t": 284305.5599999994,
      "d": 711.5331250000163,
      "v": 65
    },
    {
      "midi": 50,
      "hit": false,
      "t": 284305.5599999994,
      "d": 802.878593750007,
      "v": 66
    },
    {
      "midi": 65,
      "hit": false,
      "t": 285228.6299999994,
      "d": 718.7446093750186,
      "v": 64
    },
    {
      "midi": 57,
      "hit": false,
      "t": 285228.6299999994,
      "d": 762.0135156250326,
      "v": 56
    },
    {
      "midi": 62,
      "hit": false,
      "t": 285228.6299999994,
      "d": 778.8403125000186,
      "v": 58
    },
    {
      "midi": 50,
      "hit": false,
      "t": 285228.6299999994,
      "d": 937.4929687500116,
      "v": 65
    },
    {
      "midi": 65,
      "hit": false,
      "t": 286151.69999999943,
      "d": 730.7637499999837,
      "v": 63
    },
    {
      "midi": 48,
      "hit": false,
      "t": 286151.69999999943,
      "d": 769.2249999999767,
      "v": 63
    },
    {
      "midi": 62,
      "hit": false,
      "t": 286151.69999999943,
      "d": 786.0517968749627,
      "v": 51
    },
    {
      "midi": 57,
      "hit": false,
      "t": 286151.69999999943,
      "d": 795.6671093749464,
      "v": 52
    },
    {
      "midi": 65,
      "hit": false,
      "t": 287074.7699999994,
      "d": 579.322578124993,
      "v": 59
    },
    {
      "midi": 62,
      "hit": false,
      "t": 287074.7699999994,
      "d": 615.3800000000047,
      "v": 54
    },
    {
      "midi": 57,
      "hit": false,
      "t": 287074.7699999994,
      "d": 831.7245312500163,
      "v": 52
    },
    {
      "midi": 48,
      "hit": false,
      "t": 287074.7699999994,
      "d": 959.1274218750186,
      "v": 70
    },
    {
      "midi": 67,
      "hit": false,
      "t": 287997.8399999994,
      "d": 509.6115625000093,
      "v": 66
    },
    {
      "midi": 62,
      "hit": false,
      "t": 287997.8399999994,
      "d": 682.687187500007,
      "v": 77
    },
    {
      "midi": 47,
      "hit": false,
      "t": 287997.8399999994,
      "d": 807.6862500000279,
      "v": 74
    },
    {
      "midi": 67,
      "hit": false,
      "t": 288920.9099999994,
      "d": 341.3435937500326,
      "v": 68
    },
    {
      "midi": 62,
      "hit": false,
      "t": 288920.9099999994,
      "d": 372.5933593750233,
      "v": 66
    },
    {
      "midi": 47,
      "hit": false,
      "t": 288920.9099999994,
      "d": 975.9542187500629,
      "v": 64
    },
    {
      "midi": 69,
      "hit": false,
      "t": 289151.6774999994,
      "d": 141.82585937500698,
      "v": 44
    },
    {
      "midi": 71,
      "hit": false,
      "t": 289382.4449999994,
      "d": 329.3244531250093,
      "v": 66
    },
    {
      "midi": 62,
      "hit": false,
      "t": 289843.97999999946,
      "d": 759.609687499993,
      "v": 69
    },
    {
      "midi": 67,
      "hit": false,
      "t": 289843.97999999946,
      "d": 786.051796875021,
      "v": 71
    },
    {
      "midi": 43,
      "hit": false,
      "t": 289843.97999999946,
      "d": 807.6862500000279,
      "v": 65
    },
    {
      "midi": 62,
      "hit": false,
      "t": 290767.04999999946,
      "d": 427.8814062500023,
      "v": 62
    },
    {
      "midi": 67,
      "hit": false,
      "t": 290767.04999999946,
      "d": 471.1503124999581,
      "v": 77
    },
    {
      "midi": 43,
      "hit": false,
      "t": 290767.04999999946,
      "d": 728.3599218749441,
      "v": 67
    },
    {
      "midi": 69,
      "hit": false,
      "t": 290997.8174999995,
      "d": 197.11390624998603,
      "v": 46
    },
    {
      "midi": 71,
      "hit": false,
      "t": 291228.58499999944,
      "d": 295.67085937497905,
      "v": 66
    },
    {
      "midi": 74,
      "hit": false,
      "t": 291690.1199999994,
      "d": 740.3790625000256,
      "v": 59
    },
    {
      "midi": 70,
      "hit": false,
      "t": 291690.1199999994,
      "d": 769.2250000000349,
      "v": 51
    },
    {
      "midi": 65,
      "hit": false,
      "t": 291690.1199999994,
      "d": 783.6479687500396,
      "v": 67
    },
    {
      "midi": 46,
      "hit": false,
      "t": 291690.1199999994,
      "d": 848.5513281250605,
      "v": 54
    },
    {
      "midi": 74,
      "hit": false,
      "t": 292613.1899999995,
      "d": 509.6115624999511,
      "v": 63
    },
    {
      "midi": 70,
      "hit": false,
      "t": 292613.1899999995,
      "d": 562.4957812499488,
      "v": 54
    },
    {
      "midi": 46,
      "hit": false,
      "t": 292613.1899999995,
      "d": 790.8594531249255,
      "v": 48
    },
    {
      "midi": 65,
      "hit": false,
      "t": 293074.72499999945,
      "d": 423.07374999992317,
      "v": 59
    },
    {
      "midi": 70,
      "hit": false,
      "t": 293536.25999999937,
      "d": 576.9187499999534,
      "v": 58
    },
    {
      "midi": 74,
      "hit": false,
      "t": 293536.25999999937,
      "d": 596.149374999979,
      "v": 70
    },
    {
      "midi": 46,
      "hit": false,
      "t": 293536.25999999937,
      "d": 1665.852890625014,
      "v": 42
    },
    {
      "midi": 65,
      "hit": false,
      "t": 293997.79499999934,
      "d": 149.0373437500093,
      "v": 48
    },
    {
      "midi": 70,
      "hit": false,
      "t": 294228.56249999936,
      "d": 831.7245312500163,
      "v": 70
    },
    {
      "midi": 75,
      "hit": false,
      "t": 294228.56249999936,
      "d": 896.6278906250373,
      "v": 60
    },
    {
      "midi": 72,
      "hit": false,
      "t": 294920.86499999935,
      "d": 420.6699218750582,
      "v": 66
    },
    {
      "midi": 69,
      "hit": false,
      "t": 295382.3999999994,
      "d": 387.01632812502794,
      "v": 80
    },
    {
      "midi": 77,
      "hit": false,
      "t": 295382.3999999994,
      "d": 531.2460156250163,
      "v": 80
    },
    {
      "midi": 72,
      "hit": false,
      "t": 295382.3999999994,
      "d": 615.3800000000047,
      "v": 80
    },
    {
      "midi": 41,
      "hit": false,
      "t": 295382.3999999994,
      "d": 3307.6674999999814,
      "v": 59
    },
    {
      "midi": 53,
      "hit": false,
      "t": 295382.3999999994,
      "d": 3310.0713281249627,
      "v": 60
    },
    {
      "midi": 65,
      "hit": false,
      "t": 296074.7024999994,
      "d": 218.74835937499302,
      "v": 80
    },
    {
      "midi": 72,
      "hit": false,
      "t": 296305.4699999994,
      "d": 377.40101562498603,
      "v": 83
    },
    {
      "midi": 69,
      "hit": false,
      "t": 296305.4699999994,
      "d": 475.95796874997905,
      "v": 83
    },
    {
      "midi": 72,
      "hit": false,
      "t": 296997.7724999994,
      "d": 271.6325781249907,
      "v": 86
    },
    {
      "midi": 70,
      "hit": false,
      "t": 297228.5399999994,
      "d": 233.17132812493946,
      "v": 86
    },
    {
      "midi": 69,
      "hit": false,
      "t": 297459.30749999936,
      "d": 326.92062499996973,
      "v": 86
    },
    {
      "midi": 65,
      "hit": false,
      "t": 297690.0749999993,
      "d": 230.7675000000163,
      "v": 86
    },
    {
      "midi": 69,
      "hit": false,
      "t": 297920.84249999933,
      "d": 230.7675000000163,
      "v": 77
    },
    {
      "midi": 72,
      "hit": false,
      "t": 297920.84249999933,
      "d": 230.7675000000163,
      "v": 77
    },
    {
      "midi": 72,
      "hit": false,
      "t": 298382.37749999936,
      "d": 355.76656249997905,
      "v": 77
    },
    {
      "midi": 69,
      "hit": false,
      "t": 298382.37749999936,
      "d": 401.4392968749744,
      "v": 77
    },
    {
      "midi": 74,
      "hit": false,
      "t": 299074.67999999935,
      "d": 740.3790625000256,
      "v": 59
    },
    {
      "midi": 70,
      "hit": false,
      "t": 299074.67999999935,
      "d": 769.2250000000349,
      "v": 51
    },
    {
      "midi": 65,
      "hit": false,
      "t": 299074.67999999935,
      "d": 783.6479687500396,
      "v": 67
    },
    {
      "midi": 46,
      "hit": false,
      "t": 299074.67999999935,
      "d": 848.5513281250605,
      "v": 54
    },
    {
      "midi": 74,
      "hit": false,
      "t": 299997.7499999994,
      "d": 509.6115624999511,
      "v": 63
    },
    {
      "midi": 70,
      "hit": false,
      "t": 299997.7499999994,
      "d": 562.4957812499488,
      "v": 54
    },
    {
      "midi": 46,
      "hit": false,
      "t": 299997.7499999994,
      "d": 790.8594531249255,
      "v": 48
    },
    {
      "midi": 65,
      "hit": false,
      "t": 300459.2849999994,
      "d": 423.07374999992317,
      "v": 59
    },
    {
      "midi": 70,
      "hit": false,
      "t": 300920.8199999993,
      "d": 576.9187499999534,
      "v": 58
    },
    {
      "midi": 74,
      "hit": false,
      "t": 300920.8199999993,
      "d": 596.149374999979,
      "v": 70
    },
    {
      "midi": 46,
      "hit": false,
      "t": 300920.8199999993,
      "d": 1665.852890625014,
      "v": 42
    },
    {
      "midi": 65,
      "hit": false,
      "t": 301382.3549999993,
      "d": 149.0373437500093,
      "v": 48
    },
    {
      "midi": 70,
      "hit": false,
      "t": 301613.1224999993,
      "d": 831.7245312500163,
      "v": 70
    },
    {
      "midi": 75,
      "hit": false,
      "t": 301613.1224999993,
      "d": 896.6278906250373,
      "v": 60
    },
    {
      "midi": 72,
      "hit": false,
      "t": 302305.4249999993,
      "d": 420.6699218750582,
      "v": 66
    },
    {
      "midi": 69,
      "hit": false,
      "t": 302766.9599999993,
      "d": 762.0135156249744,
      "v": 70
    },
    {
      "midi": 72,
      "hit": false,
      "t": 302766.9599999993,
      "d": 764.4173437499558,
      "v": 62
    },
    {
      "midi": 65,
      "hit": false,
      "t": 302766.9599999993,
      "d": 769.2249999999767,
      "v": 70
    },
    {
      "midi": 53,
      "hit": false,
      "t": 302766.9599999993,
      "d": 3610.5498437499627,
      "v": 60
    },
    {
      "midi": 65,
      "hit": false,
      "t": 303690.0299999993,
      "d": 192.30625000002328,
      "v": 72
    },
    {
      "midi": 69,
      "hit": false,
      "t": 303690.0299999993,
      "d": 298.0746875000186,
      "v": 69
    },
    {
      "midi": 72,
      "hit": false,
      "t": 303690.0299999993,
      "d": 324.51679687504657,
      "v": 66
    },
    {
      "midi": 65,
      "hit": false,
      "t": 303920.7974999993,
      "d": 473.5541406250559,
      "v": 58
    },
    {
      "midi": 69,
      "hit": false,
      "t": 304151.5649999993,
      "d": 324.51679687504657,
      "v": 59
    },
    {
      "midi": 72,
      "hit": false,
      "t": 304382.3324999993,
      "d": 137.01820312504424,
      "v": 44
    },
    {
      "midi": 65,
      "hit": false,
      "t": 304613.09999999934,
      "d": 581.7264062499744,
      "v": 74
    },
    {
      "midi": 72,
      "hit": false,
      "t": 304613.09999999934,
      "d": 581.7264062499744,
      "v": 66
    },
    {
      "midi": 70,
      "hit": false,
      "t": 304613.09999999934,
      "d": 591.3417187499581,
      "v": 81
    },
    {
      "midi": 65,
      "hit": false,
      "t": 305305.40249999927,
      "d": 461.5349999999744,
      "v": 70
    },
    {
      "midi": 70,
      "hit": false,
      "t": 305305.40249999927,
      "d": 461.5349999999744,
      "v": 70
    },
    {
      "midi": 72,
      "hit": false,
      "t": 305305.40249999927,
      "d": 461.5349999999744,
      "v": 71
    },
    {
      "midi": 72,
      "hit": false,
      "t": 305766.93749999924,
      "d": 396.63164062501164,
      "v": 75
    },
    {
      "midi": 65,
      "hit": false,
      "t": 305766.93749999924,
      "d": 423.0737500000396,
      "v": 82
    },
    {
      "midi": 69,
      "hit": false,
      "t": 305766.93749999924,
      "d": 423.0737500000396,
      "v": 62
    },
    {
      "midi": 72,
      "hit": false,
      "t": 306459.2399999993,
      "d": 586.5340624999953,
      "v": 54
    },
    {
      "midi": 69,
      "hit": false,
      "t": 306459.2399999993,
      "d": 612.9761718750233,
      "v": 57
    },
    {
      "midi": 45,
      "hit": false,
      "t": 306459.2399999993,
      "d": 3538.4349999999395,
      "v": 70
    },
    {
      "midi": 65,
      "hit": false,
      "t": 306920.77499999927,
      "d": 403.8431250000722,
      "v": 54
    },
    {
      "midi": 72,
      "hit": false,
      "t": 307382.30999999936,
      "d": 495.18859374994645,
      "v": 60
    },
    {
      "midi": 69,
      "hit": false,
      "t": 307382.30999999936,
      "d": 512.0153906249325,
      "v": 62
    },
    {
      "midi": 65,
      "hit": false,
      "t": 307843.84499999933,
      "d": 161.0564843749744,
      "v": 51
    },
    {
      "midi": 77,
      "hit": false,
      "t": 308305.3799999993,
      "d": 324.51679687498836,
      "v": 57
    },
    {
      "midi": 65,
      "hit": false,
      "t": 308305.3799999993,
      "d": 331.7282812499907,
      "v": 71
    },
    {
      "midi": 69,
      "hit": false,
      "t": 308305.3799999993,
      "d": 346.15124999999534,
      "v": 71
    },
    {
      "midi": 65,
      "hit": false,
      "t": 308766.9149999993,
      "d": 76.92249999998603,
      "v": 55
    },
    {
      "midi": 69,
      "hit": false,
      "t": 308766.9149999993,
      "d": 112.97992187499767,
      "v": 65
    },
    {
      "midi": 77,
      "hit": false,
      "t": 308766.9149999993,
      "d": 117.78757812501863,
      "v": 54
    },
    {
      "midi": 77,
      "hit": false,
      "t": 308997.6824999993,
      "d": 495.18859374994645,
      "v": 62
    },
    {
      "midi": 65,
      "hit": false,
      "t": 309459.2174999993,
      "d": 24.03828124998836,
      "v": 72
    },
    {
      "midi": 69,
      "hit": false,
      "t": 309459.2174999993,
      "d": 69.7110156249837,
      "v": 82
    },
    {
      "midi": 75,
      "hit": false,
      "t": 309459.2174999993,
      "d": 692.3024999999325,
      "v": 80
    },
    {
      "midi": 46,
      "hit": false,
      "t": 310151.5199999992,
      "d": 567.3034375000279,
      "v": 90
    },
    {
      "midi": 75,
      "hit": false,
      "t": 310151.5199999992,
      "d": 641.8221093750326,
      "v": 58
    },
    {
      "midi": 70,
      "hit": false,
      "t": 310151.5199999992,
      "d": 653.8412500000559,
      "v": 74
    },
    {
      "midi": 65,
      "hit": false,
      "t": 310151.5199999992,
      "d": 663.4565625000396,
      "v": 86
    },
    {
      "midi": 46,
      "hit": false,
      "t": 310843.82249999925,
      "d": 538.4575000000186,
      "v": 90
    },
    {
      "midi": 65,
      "hit": false,
      "t": 310843.82249999925,
      "d": 624.9953125000466,
      "v": 84
    },
    {
      "midi": 75,
      "hit": false,
      "t": 310843.82249999925,
      "d": 634.6106250000303,
      "v": 64
    },
    {
      "midi": 70,
      "hit": false,
      "t": 310843.82249999925,
      "d": 651.4374218750163,
      "v": 84
    },
    {
      "midi": 46,
      "hit": false,
      "t": 311536.12499999924,
      "d": 1112.9724218749907,
      "v": 84
    },
    {
      "midi": 70,
      "hit": false,
      "t": 311536.12499999924,
      "d": 1293.2595312499907,
      "v": 69
    },
    {
      "midi": 74,
      "hit": false,
      "t": 311536.12499999924,
      "d": 1293.2595312499907,
      "v": 78
    },
    {
      "midi": 65,
      "hit": false,
      "t": 311536.12499999924,
      "d": 1295.663359374972,
      "v": 78
    },
    {
      "midi": 74,
      "hit": false,
      "t": 312920.7299999992,
      "d": 108.17226562497672,
      "v": 73
    },
    {
      "midi": 65,
      "hit": false,
      "t": 312920.7299999992,
      "d": 122.59523437498137,
      "v": 84
    },
    {
      "midi": 70,
      "hit": false,
      "t": 312920.7299999992,
      "d": 122.59523437498137,
      "v": 69
    },
    {
      "midi": 46,
      "hit": false,
      "t": 312920.7299999992,
      "d": 247.59429687494412,
      "v": 93
    },
    {
      "midi": 72,
      "hit": false,
      "t": 313151.4974999992,
      "d": 538.4574999999604,
      "v": 76
    },
    {
      "midi": 69,
      "hit": false,
      "t": 313151.4974999992,
      "d": 552.8804687499651,
      "v": 87
    },
    {
      "midi": 64,
      "hit": false,
      "t": 313151.4974999992,
      "d": 564.8996093749884,
      "v": 70
    },
    {
      "midi": 45,
      "hit": false,
      "t": 313151.4974999992,
      "d": 651.4374218750163,
      "v": 83
    },
    {
      "midi": 43,
      "hit": false,
      "t": 313843.7999999992,
      "d": 461.5349999999744,
      "v": 96
    },
    {
      "midi": 62,
      "hit": false,
      "t": 313843.7999999992,
      "d": 461.5349999999744,
      "v": 96
    },
    {
      "midi": 67,
      "hit": false,
      "t": 313843.7999999992,
      "d": 461.5349999999744,
      "v": 96
    },
    {
      "midi": 70,
      "hit": false,
      "t": 313843.7999999992,
      "d": 461.5349999999744,
      "v": 96
    },
    {
      "midi": 74,
      "hit": false,
      "t": 314766.8699999991,
      "d": 153.84499999997206,
      "v": 93
    },
    {
      "midi": 74,
      "hit": false,
      "t": 315074.55999999907,
      "d": 153.84499999997206,
      "v": 77
    },
    {
      "midi": 72,
      "hit": false,
      "t": 315228.40499999904,
      "d": 153.84499999997206,
      "v": 77
    },
    {
      "midi": 70,
      "hit": false,
      "t": 315382.249999999,
      "d": 153.84499999997206,
      "v": 78
    },
    {
      "midi": 69,
      "hit": false,
      "t": 315536.094999999,
      "d": 153.84499999997206,
      "v": 78
    },
    {
      "midi": 62,
      "hit": false,
      "t": 315689.93999999895,
      "d": 153.84499999997206,
      "v": 75
    },
    {
      "midi": 63,
      "hit": false,
      "t": 315843.7849999989,
      "d": 153.84499999997206,
      "v": 72
    },
    {
      "midi": 62,
      "hit": false,
      "t": 315997.6299999989,
      "d": 153.84499999997206,
      "v": 64
    },
    {
      "midi": 62,
      "hit": false,
      "t": 316151.47499999887,
      "d": 153.84499999997206,
      "v": 64
    },
    {
      "midi": 65,
      "hit": false,
      "t": 316305.31999999884,
      "d": 153.84499999997206,
      "v": 64
    },
    {
      "midi": 62,
      "hit": false,
      "t": 316459.1649999988,
      "d": 153.84499999997206,
      "v": 64
    },
    {
      "midi": 60,
      "hit": false,
      "t": 316613.0099999988,
      "d": 153.84499999997206,
      "v": 64
    },
    {
      "midi": 58,
      "hit": false,
      "t": 316766.85499999876,
      "d": 153.84499999997206,
      "v": 65
    },
    {
      "midi": 57,
      "hit": false,
      "t": 316920.69999999873,
      "d": 153.84499999997206,
      "v": 73
    },
    {
      "midi": 58,
      "hit": false,
      "t": 317074.5449999987,
      "d": 153.84499999997206,
      "v": 75
    },
    {
      "midi": 60,
      "hit": false,
      "t": 317228.3899999987,
      "d": 153.84499999997206,
      "v": 75
    },
    {
      "midi": 62,
      "hit": false,
      "t": 317382.23499999865,
      "d": 153.84499999997206,
      "v": 75
    },
    {
      "midi": 63,
      "hit": false,
      "t": 317536.0799999986,
      "d": 1076.914999999979,
      "v": 75
    },
    {
      "midi": 58,
      "hit": false,
      "t": 320204.3292187486,
      "d": 766.8211718749953,
      "v": 70
    },
    {
      "midi": 63,
      "hit": false,
      "t": 320254.8096093736,
      "d": 713.9369531249977,
      "v": 75
    },
    {
      "midi": 66,
      "hit": false,
      "t": 320317.3091406236,
      "d": 632.2067968749907,
      "v": 83
    },
    {
      "midi": 65,
      "hit": false,
      "t": 321228.3599999986,
      "d": 723.5522656249814,
      "v": 69
    },
    {
      "midi": 62,
      "hit": false,
      "t": 321228.3599999986,
      "d": 762.0135156249744,
      "v": 57
    },
    {
      "midi": 50,
      "hit": false,
      "t": 321228.3599999986,
      "d": 1802.8710937498836,
      "v": 53
    },
    {
      "midi": 65,
      "hit": false,
      "t": 322151.42999999854,
      "d": 478.3617968749604,
      "v": 67
    },
    {
      "midi": 62,
      "hit": false,
      "t": 322151.42999999854,
      "d": 492.7847656249651,
      "v": 52
    },
    {
      "midi": 70,
      "hit": false,
      "t": 322612.9649999985,
      "d": 312.4976562499651,
      "v": 53
    },
    {
      "midi": 64,
      "hit": false,
      "t": 323074.4999999985,
      "d": 778.8403125000186,
      "v": 70
    },
    {
      "midi": 61,
      "hit": false,
      "t": 323074.4999999985,
      "d": 798.0709375000442,
      "v": 45
    },
    {
      "midi": 49,
      "hit": false,
      "t": 323074.4999999985,
      "d": 1920.6586718750768,
      "v": 40
    },
    {
      "midi": 64,
      "hit": false,
      "t": 323997.56999999855,
      "d": 504.80390624998836,
      "v": 65
    },
    {
      "midi": 61,
      "hit": false,
      "t": 323997.56999999855,
      "d": 516.8230468750116,
      "v": 43
    },
    {
      "midi": 70,
      "hit": false,
      "t": 324459.1049999985,
      "d": 326.92062500002794,
      "v": 47
    },
    {
      "midi": 70,
      "hit": false,
      "t": 324920.63999999856,
      "d": 634.6106250000303,
      "v": 54
    },
    {
      "midi": 63,
      "hit": false,
      "t": 324920.63999999856,
      "d": 646.6297656250536,
      "v": 61
    },
    {
      "midi": 60,
      "hit": false,
      "t": 324920.63999999856,
      "d": 709.1292968750349,
      "v": 59
    },
    {
      "midi": 48,
      "hit": false,
      "t": 324920.63999999856,
      "d": 1846.140000000014,
      "v": 70
    },
    {
      "midi": 63,
      "hit": false,
      "t": 325812.4602343736,
      "d": 598.5532031250186,
      "v": 55
    },
    {
      "midi": 70,
      "hit": false,
      "t": 325812.4602343736,
      "d": 634.6106250000303,
      "v": 52
    },
    {
      "midi": 60,
      "hit": false,
      "t": 325817.2678906236,
      "d": 694.7063281250303,
      "v": 59
    },
    {
      "midi": 70,
      "hit": false,
      "t": 326747.5493749986,
      "d": 569.7072656249511,
      "v": 60
    },
    {
      "midi": 63,
      "hit": false,
      "t": 326752.3570312486,
      "d": 624.9953124999302,
      "v": 57
    },
    {
      "midi": 53,
      "hit": false,
      "t": 326754.7608593736,
      "d": 1786.0442968748976,
      "v": 57
    },
    {
      "midi": 60,
      "hit": false,
      "t": 326757.1646874986,
      "d": 795.6671093749464,
      "v": 63
    },
    {
      "midi": 69,
      "hit": false,
      "t": 327218.69968749856,
      "d": 218.74835937499302,
      "v": 63
    },
    {
      "midi": 67,
      "hit": false,
      "t": 327447.06335937354,
      "d": 812.4939062499907,
      "v": 70
    },
    {
      "midi": 69,
      "hit": false,
      "t": 328161.00031249854,
      "d": 249.9981249999837,
      "v": 68
    },
    {
      "midi": 70,
      "hit": false,
      "t": 328365.3257031235,
      "d": 158.65265624999302,
      "v": 68
    },
    {
      "midi": 65,
      "hit": false,
      "t": 328612.9199999985,
      "d": 420.669921875,
      "v": 56
    },
    {
      "midi": 62,
      "hit": false,
      "t": 328612.9199999985,
      "d": 519.226874999993,
      "v": 49
    },
    {
      "midi": 46,
      "hit": false,
      "t": 328612.9199999985,
      "d": 2137.0032031250303,
      "v": 47
    },
    {
      "midi": 62,
      "hit": false,
      "t": 329535.98999999854,
      "d": 461.5349999999744,
      "v": 55
    },
    {
      "midi": 65,
      "hit": false,
      "t": 329535.98999999854,
      "d": 461.5349999999744,
      "v": 62
    },
    {
      "midi": 65,
      "hit": false,
      "t": 330459.05999999854,
      "d": 72.11484375002328,
      "v": 51
    },
    {
      "midi": 74,
      "hit": false,
      "t": 330459.05999999854,
      "d": 110.5760937500163,
      "v": 54
    },
    {
      "midi": 66,
      "hit": false,
      "t": 330689.82749999856,
      "d": 110.5760937500163,
      "v": 45
    },
    {
      "midi": 75,
      "hit": false,
      "t": 330689.82749999856,
      "d": 141.82585937500698,
      "v": 44
    },
    {
      "midi": 68,
      "hit": false,
      "t": 330920.5949999986,
      "d": 72.11484375002328,
      "v": 39
    },
    {
      "midi": 77,
      "hit": false,
      "t": 330920.5949999986,
      "d": 110.5760937500163,
      "v": 33
    },
    {
      "midi": 77,
      "hit": false,
      "t": 331151.3624999986,
      "d": 235.57515624997905,
      "v": 52
    },
    {
      "midi": 68,
      "hit": false,
      "t": 331151.3624999986,
      "d": 252.40195312496508,
      "v": 54
    },
    {
      "midi": 66,
      "hit": false,
      "t": 331612.89749999857,
      "d": 76.92249999998603,
      "v": 54
    },
    {
      "midi": 75,
      "hit": false,
      "t": 331612.89749999857,
      "d": 88.94164062500931,
      "v": 44
    },
    {
      "midi": 65,
      "hit": false,
      "t": 331843.6649999986,
      "d": 187.49859375000233,
      "v": 74
    },
    {
      "midi": 74,
      "hit": false,
      "t": 331843.6649999986,
      "d": 187.49859375000233,
      "v": 64
    },
    {
      "midi": 75,
      "hit": false,
      "t": 332305.19999999856,
      "d": 757.2058593750116,
      "v": 47
    },
    {
      "midi": 70,
      "hit": false,
      "t": 332305.19999999856,
      "d": 759.609687499993,
      "v": 61
    },
    {
      "midi": 66,
      "hit": false,
      "t": 332305.19999999856,
      "d": 774.0326562499977,
      "v": 61
    },
    {
      "midi": 46,
      "hit": false,
      "t": 332305.19999999856,
      "d": 3552.8579687500023,
      "v": 44
    },
    {
      "midi": 75,
      "hit": false,
      "t": 333228.26999999856,
      "d": 545.668984375021,
      "v": 49
    },
    {
      "midi": 70,
      "hit": false,
      "t": 333228.26999999856,
      "d": 569.7072656250093,
      "v": 70
    },
    {
      "midi": 66,
      "hit": false,
      "t": 333228.26999999856,
      "d": 603.3608593749814,
      "v": 67
    },
    {
      "midi": 63,
      "hit": false,
      "t": 334151.3399999985,
      "d": 120.19140625,
      "v": 57
    },
    {
      "midi": 66,
      "hit": false,
      "t": 334151.3399999985,
      "d": 180.287109375,
      "v": 64
    },
    {
      "midi": 68,
      "hit": false,
      "t": 334382.1074999985,
      "d": 105.76843749999534,
      "v": 51
    },
    {
      "midi": 65,
      "hit": false,
      "t": 334382.1074999985,
      "d": 110.5760937500163,
      "v": 63
    },
    {
      "midi": 70,
      "hit": false,
      "t": 334612.87499999854,
      "d": 67.30718750000233,
      "v": 50
    },
    {
      "midi": 66,
      "hit": false,
      "t": 334612.87499999854,
      "d": 84.13398437498836,
      "v": 66
    },
    {
      "midi": 70,
      "hit": false,
      "t": 334843.64249999856,
      "d": 350.9589062500163,
      "v": 62
    },
    {
      "midi": 66,
      "hit": false,
      "t": 334843.64249999856,
      "d": 377.40101562504424,
      "v": 66
    },
    {
      "midi": 65,
      "hit": false,
      "t": 335305.1774999986,
      "d": 103.36460937501397,
      "v": 54
    },
    {
      "midi": 68,
      "hit": false,
      "t": 335305.1774999986,
      "d": 141.82585937500698,
      "v": 44
    },
    {
      "midi": 66,
      "hit": false,
      "t": 335535.9449999986,
      "d": 264.42109374998836,
      "v": 67
    },
    {
      "midi": 63,
      "hit": false,
      "t": 335535.9449999986,
      "d": 266.82492187496973,
      "v": 62
    },
    {
      "midi": 65,
      "hit": false,
      "t": 335997.4799999985,
      "d": 531.2460156250163,
      "v": 57
    },
    {
      "midi": 62,
      "hit": false,
      "t": 335997.4799999985,
      "d": 567.3034375000279,
      "v": 42
    },
    {
      "midi": 46,
      "hit": false,
      "t": 335997.4799999985,
      "d": 3653.818750000035,
      "v": 32
    },
    {
      "midi": 62,
      "hit": false,
      "t": 336920.54999999853,
      "d": 122.59523437498137,
      "v": 43
    },
    {
      "midi": 65,
      "hit": false,
      "t": 336920.54999999853,
      "d": 149.0373437500093,
      "v": 53
    },
    {
      "midi": 65,
      "hit": false,
      "t": 337843.61999999854,
      "d": 103.36460937501397,
      "v": 52
    },
    {
      "midi": 74,
      "hit": false,
      "t": 337843.61999999854,
      "d": 108.17226562503492,
      "v": 52
    },
    {
      "midi": 66,
      "hit": false,
      "t": 338074.38749999856,
      "d": 69.7110156249837,
      "v": 37
    },
    {
      "midi": 75,
      "hit": false,
      "t": 338074.38749999856,
      "d": 96.15312500001164,
      "v": 38
    },
    {
      "midi": 77,
      "hit": false,
      "t": 338305.1549999986,
      "d": 50.4803906250163,
      "v": 40
    },
    {
      "midi": 68,
      "hit": false,
      "t": 338305.1549999986,
      "d": 84.13398437498836,
      "v": 49
    },
    {
      "midi": 77,
      "hit": false,
      "t": 338535.9224999986,
      "d": 249.9981249999837,
      "v": 56
    },
    {
      "midi": 68,
      "hit": false,
      "t": 338535.9224999986,
      "d": 266.82492187496973,
      "v": 62
    },
    {
      "midi": 66,
      "hit": false,
      "t": 338997.45749999856,
      "d": 81.73015625000698,
      "v": 44
    },
    {
      "midi": 75,
      "hit": false,
      "t": 338997.45749999856,
      "d": 84.13398437498836,
      "v": 24
    },
    {
      "midi": 65,
      "hit": false,
      "t": 339228.2249999986,
      "d": 122.59523437498137,
      "v": 57
    },
    {
      "midi": 74,
      "hit": false,
      "t": 339228.2249999986,
      "d": 163.46031249995576,
      "v": 60
    },
    {
      "midi": 75,
      "hit": false,
      "t": 339689.75999999855,
      "d": 798.0709375000442,
      "v": 36
    },
    {
      "midi": 46,
      "hit": false,
      "t": 339689.75999999855,
      "d": 5038.423750000133,
      "v": 33
    },
    {
      "midi": 70,
      "hit": false,
      "t": 339696.97148437356,
      "d": 745.1867187500466,
      "v": 47
    },
    {
      "midi": 66,
      "hit": false,
      "t": 339701.7791406236,
      "d": 771.6288281250163,
      "v": 43
    },
    {
      "midi": 70,
      "hit": false,
      "t": 340843.5974999986,
      "d": 233.17132812505588,
      "v": 47
    },
    {
      "midi": 74,
      "hit": false,
      "t": 340848.4051562486,
      "d": 199.5177343750256,
      "v": 63
    },
    {
      "midi": 75,
      "hit": false,
      "t": 341535.8999999986,
      "d": 149.0373437500093,
      "v": 52
    },
    {
      "midi": 70,
      "hit": false,
      "t": 341535.8999999986,
      "d": 168.26796875003492,
      "v": 56
    },
    {
      "midi": 58,
      "hit": false,
      "t": 342228.2024999987,
      "d": 401.4392968749744,
      "v": 27
    },
    {
      "midi": 62,
      "hit": false,
      "t": 342228.2024999987,
      "d": 423.0737499999814,
      "v": 54
    },
    {
      "midi": 65,
      "hit": false,
      "t": 342228.2024999987,
      "d": 447.11203124996973,
      "v": 60
    },
    {
      "midi": 63,
      "hit": false,
      "t": 343151.2724999986,
      "d": 545.668984375021,
      "v": 54
    },
    {
      "midi": 58,
      "hit": false,
      "t": 343156.08015624864,
      "d": 550.4766406249837,
      "v": 50
    },
    {
      "midi": 66,
      "hit": false,
      "t": 343163.29164062365,
      "d": 526.4383593749953,
      "v": 61
    },
    {
      "midi": 63,
      "hit": false,
      "t": 344305.10999999865,
      "d": 858.1666406250442,
      "v": 40
    },
    {
      "midi": 66,
      "hit": false,
      "t": 344312.32148437365,
      "d": 930.2814843750675,
      "v": 37
    },
    {
      "midi": 60,
      "hit": false,
      "t": 344324.3406249987,
      "d": 865.3781250000466,
      "v": 51
    },
    {
      "midi": 58,
      "hit": false,
      "t": 346151.2499999987,
      "d": 2999.977499999979,
      "v": 12
    },
    {
      "midi": 62,
      "hit": false,
      "t": 346194.51890624873,
      "d": 2956.708593749965,
      "v": 56
    },
    {
      "midi": 46,
      "hit": false,
      "t": 346196.9227343737,
      "d": 3185.072265625,
      "v": 15
    },
    {
      "midi": 65,
      "hit": false,
      "t": 346283.46054687374,
      "d": 2867.7669531249558,
      "v": 55
    }
  ]
}