{
  "jsonPath": "Rock/Progressive Rock/Dream Theater/space-dye-vest.json",
  "path": "Rock\\Progressive Rock\\Dream Theater\\Space-Dye Vest.mid",
  "name": "Space-Dye Vest",
  "difficulty": "Advanced",
  "bpm": 104.00001386666851,
  "notes": [
    {
      "midi": 62,
      "hit": false,
      "t": 0,
      "d": 375,
      "v": 100
    },
    {
      "midi": 64,
      "hit": false,
      "t": 375,
      "d": 375,
      "v": 100
    },
    {
      "midi": 62,
      "hit": false,
      "t": 750,
      "d": 375,
      "v": 100
    },
    {
      "midi": 58,
      "hit": false,
      "t": 1125,
      "d": 375,
      "v": 100
    },
    {
      "midi": 65,
      "hit": false,
      "t": 1500,
      "d": 1125,
      "v": 100
    },
    {
      "midi": 64,
      "hit": false,
      "t": 2625,
      "d": 375,
      "v": 100
    },
    {
      "midi": 38,
      "hit": false,
      "t": 3000,
      "d": 1500,
      "v": 80
    },
    {
      "midi": 57,
      "hit": false,
      "t": 3000,
      "d": 1500,
      "v": 80
    },
    {
      "midi": 61,
      "hit": false,
      "t": 3000,
      "d": 1500,
      "v": 80
    },
    {
      "midi": 64,
      "hit": false,
      "t": 3000,
      "d": 1500,
      "v": 80
    },
    {
      "midi": 64,
      "hit": false,
      "t": 4500,
      "d": 375,
      "v": 100
    },
    {
      "midi": 49,
      "hit": false,
      "t": 4500,
      "d": 1500,
      "v": 80
    },
    {
      "midi": 55,
      "hit": false,
      "t": 4500,
      "d": 1500,
      "v": 80
    },
    {
      "midi": 65,
      "hit": false,
      "t": 4875,
      "d": 375,
      "v": 100
    },
    {
      "midi": 64,
      "hit": false,
      "t": 5250,
      "d": 375,
      "v": 100
    },
    {
      "midi": 61,
      "hit": false,
      "t": 5625,
      "d": 375,
      "v": 100
    },
    {
      "midi": 45,
      "hit": false,
      "t": 6000,
      "d": 750,
      "v": 80
    },
    {
      "midi": 57,
      "hit": false,
      "t": 6000,
      "d": 750,
      "v": 80
    },
    {
      "midi": 67,
      "hit": false,
      "t": 6000,
      "d": 1125,
      "v": 80
    },
    {
      "midi": 61,
      "hit": false,
      "t": 6750,
      "d": 750,
      "v": 100
    },
    {
      "midi": 65,
      "hit": false,
      "t": 7125,
      "d": 375,
      "v": 100
    },
    {
      "midi": 38,
      "hit": false,
      "t": 7500,
      "d": 1500,
      "v": 80
    },
    {
      "midi": 57,
      "hit": false,
      "t": 7500,
      "d": 1500,
      "v": 80
    },
    {
      "midi": 62,
      "hit": false,
      "t": 7500,
      "d": 1500,
      "v": 80
    },
    {
      "midi": 65,
      "hit": false,
      "t": 7500,
      "d": 1500,
      "v": 80
    },
    {
      "midi": 65,
      "hit": false,
      "t": 9000,
      "d": 375,
      "v": 100
    },
    {
      "midi": 50,
      "hit": false,
      "t": 9000,
      "d": 1500,
      "v": 80
    },
    {
      "midi": 57,
      "hit": false,
      "t": 9000,
      "d": 1500,
      "v": 80
    },
    {
      "midi": 67,
      "hit": false,
      "t": 9375,
      "d": 375,
      "v": 100
    },
    {
      "midi": 65,
      "hit": false,
      "t": 9750,
      "d": 375,
      "v": 100
    },
    {
      "midi": 62,
      "hit": false,
      "t": 10125,
      "d": 375,
      "v": 100
    },
    {
      "midi": 45,
      "hit": false,
      "t": 10500,
      "d": 750,
      "v": 100
    },
    {
      "midi": 69,
      "hit": false,
      "t": 10500,
      "d": 1125,
      "v": 100
    },
    {
      "midi": 62,
      "hit": false,
      "t": 11250,
      "d": 750,
      "v": 100
    },
    {
      "midi": 67,
      "hit": false,
      "t": 11625,
      "d": 375,
      "v": 100
    },
    {
      "midi": 38,
      "hit": false,
      "t": 12000,
      "d": 1500,
      "v": 80
    },
    {
      "midi": 61,
      "hit": false,
      "t": 12000,
      "d": 1500,
      "v": 80
    },
    {
      "midi": 64,
      "hit": false,
      "t": 12000,
      "d": 1500,
      "v": 80
    },
    {
      "midi": 67,
      "hit": false,
      "t": 12000,
      "d": 1500,
      "v": 80
    },
    {
      "midi": 67,
      "hit": false,
      "t": 13500,
      "d": 375,
      "v": 100
    },
    {
      "midi": 52,
      "hit": false,
      "t": 13500,
      "d": 1500,
      "v": 80
    },
    {
      "midi": 58,
      "hit": false,
      "t": 13500,
      "d": 1500,
      "v": 80
    },
    {
      "midi": 69,
      "hit": false,
      "t": 13875,
      "d": 375,
      "v": 100
    },
    {
      "midi": 67,
      "hit": false,
      "t": 14250,
      "d": 375,
      "v": 100
    },
    {
      "midi": 64,
      "hit": false,
      "t": 14625,
      "d": 375,
      "v": 100
    },
    {
      "midi": 49,
      "hit": false,
      "t": 15000,
      "d": 750,
      "v": 80
    },
    {
      "midi": 55,
      "hit": false,
      "t": 15000,
      "d": 750,
      "v": 80
    },
    {
      "midi": 70,
      "hit": false,
      "t": 15000,
      "d": 1125,
      "v": 80
    },
    {
      "midi": 64,
      "hit": false,
      "t": 15750,
      "d": 750,
      "v": 100
    },
    {
      "midi": 69,
      "hit": false,
      "t": 16125,
      "d": 375,
      "v": 100
    },
    {
      "midi": 45,
      "hit": false,
      "t": 16500,
      "d": 1500,
      "v": 80
    },
    {
      "midi": 62,
      "hit": false,
      "t": 16500,
      "d": 1500,
      "v": 80
    },
    {
      "midi": 65,
      "hit": false,
      "t": 16500,
      "d": 1500,
      "v": 80
    },
    {
      "midi": 69,
      "hit": false,
      "t": 16500,
      "d": 1500,
      "v": 80
    },
    {
      "midi": 69,
      "hit": false,
      "t": 18000,
      "d": 375,
      "v": 100
    },
    {
      "midi": 53,
      "hit": false,
      "t": 18000,
      "d": 1500,
      "v": 80
    },
    {
      "midi": 62,
      "hit": false,
      "t": 18000,
      "d": 1500,
      "v": 80
    },
    {
      "midi": 70,
      "hit": false,
      "t": 18375,
      "d": 375,
      "v": 100
    },
    {
      "midi": 69,
      "hit": false,
      "t": 18750,
      "d": 375,
      "v": 100
    },
    {
      "midi": 65,
      "hit": false,
      "t": 19125,
      "d": 375,
      "v": 100
    },
    {
      "midi": 57,
      "hit": false,
      "t": 19500,
      "d": 750,
      "v": 100
    },
    {
      "midi": 72,
      "hit": false,
      "t": 19500,
      "d": 1125,
      "v": 100
    },
    {
      "midi": 65,
      "hit": false,
      "t": 20250,
      "d": 750,
      "v": 100
    },
    {
      "midi": 70,
      "hit": false,
      "t": 20625,
      "d": 375,
      "v": 100
    },
    {
      "midi": 38,
      "hit": false,
      "t": 21000,
      "d": 750,
      "v": 100
    },
    {
      "midi": 64,
      "hit": false,
      "t": 21000,
      "d": 1500,
      "v": 80
    },
    {
      "midi": 67,
      "hit": false,
      "t": 21000,
      "d": 1500,
      "v": 80
    },
    {
      "midi": 70,
      "hit": false,
      "t": 21000,
      "d": 1500,
      "v": 80
    },
    {
      "midi": 46,
      "hit": false,
      "t": 21750,
      "d": 750,
      "v": 100
    },
    {
      "midi": 70,
      "hit": false,
      "t": 22500,
      "d": 375,
      "v": 100
    },
    {
      "midi": 43,
      "hit": false,
      "t": 22500,
      "d": 750,
      "v": 100
    },
    {
      "midi": 64,
      "hit": false,
      "t": 22500,
      "d": 1500,
      "v": 100
    },
    {
      "midi": 69,
      "hit": false,
      "t": 22875,
      "d": 375,
      "v": 100
    },
    {
      "midi": 67,
      "hit": false,
      "t": 23250,
      "d": 375,
      "v": 100
    },
    {
      "midi": 41,
      "hit": false,
      "t": 23250,
      "d": 750,
      "v": 100
    },
    {
      "midi": 69,
      "hit": false,
      "t": 23625,
      "d": 375,
      "v": 100
    },
    {
      "midi": 40,
      "hit": false,
      "t": 24000,
      "d": 750,
      "v": 100
    },
    {
      "midi": 70,
      "hit": false,
      "t": 24000,
      "d": 1125,
      "v": 100
    },
    {
      "midi": 64,
      "hit": false,
      "t": 24000,
      "d": 1500,
      "v": 100
    },
    {
      "midi": 37,
      "hit": false,
      "t": 24750,
      "d": 750,
      "v": 100
    },
    {
      "midi": 69,
      "hit": false,
      "t": 25125,
      "d": 375,
      "v": 100
    },
    {
      "midi": 38,
      "hit": false,
      "t": 25500,
      "d": 750,
      "v": 100
    },
    {
      "midi": 62,
      "hit": false,
      "t": 25500,
      "d": 1500,
      "v": 100
    },
    {
      "midi": 65,
      "hit": false,
      "t": 25500,
      "d": 1500,
      "v": 100
    },
    {
      "midi": 69,
      "hit": false,
      "t": 25500,
      "d": 1500,
      "v": 100
    },
    {
      "midi": 45,
      "hit": false,
      "t": 26250,
      "d": 750,
      "v": 100
    },
    {
      "midi": 69,
      "hit": false,
      "t": 27000,
      "d": 375,
      "v": 100
    },
    {
      "midi": 41,
      "hit": false,
      "t": 27000,
      "d": 750,
      "v": 100
    },
    {
      "midi": 62,
      "hit": false,
      "t": 27000,
      "d": 1500,
      "v": 100
    },
    {
      "midi": 67,
      "hit": false,
      "t": 27375,
      "d": 375,
      "v": 100
    },
    {
      "midi": 65,
      "hit": false,
      "t": 27750,
      "d": 375,
      "v": 100
    },
    {
      "midi": 40,
      "hit": false,
      "t": 27750,
      "d": 750,
      "v": 100
    },
    {
      "midi": 67,
      "hit": false,
      "t": 28125,
      "d": 375,
      "v": 100
    },
    {
      "midi": 38,
      "hit": false,
      "t": 28500,
      "d": 750,
      "v": 100
    },
    {
      "midi": 67,
      "hit": false,
      "t": 28500,
      "d": 1125,
      "v": 100
    },
    {
      "midi": 69,
      "hit": false,
      "t": 28500,
      "d": 1125,
      "v": 100
    },
    {
      "midi": 62,
      "hit": false,
      "t": 28500,
      "d": 1500,
      "v": 100
    },
    {
      "midi": 38,
      "hit": false,
      "t": 29250,
      "d": 750,
      "v": 100
    },
    {
      "midi": 67,
      "hit": false,
      "t": 29625,
      "d": 375,
      "v": 100
    },
    {
      "midi": 40,
      "hit": false,
      "t": 30000,
      "d": 750,
      "v": 100
    },
    {
      "midi": 61,
      "hit": false,
      "t": 30000,
      "d": 1500,
      "v": 100
    },
    {
      "midi": 64,
      "hit": false,
      "t": 30000,
      "d": 1500,
      "v": 100
    },
    {
      "midi": 67,
      "hit": false,
      "t": 30000,
      "d": 1500,
      "v": 100
    },
    {
      "midi": 46,
      "hit": false,
      "t": 30750,
      "d": 750,
      "v": 100
    },
    {
      "midi": 65,
      "hit": false,
      "t": 31500,
      "d": 375,
      "v": 100
    },
    {
      "midi": 45,
      "hit": false,
      "t": 31500,
      "d": 750,
      "v": 100
    },
    {
      "midi": 57,
      "hit": false,
      "t": 31500,
      "d": 1500,
      "v": 100
    },
    {
      "midi": 61,
      "hit": false,
      "t": 31500,
      "d": 1500,
      "v": 100
    },
    {
      "midi": 64,
      "hit": false,
      "t": 31875,
      "d": 375,
      "v": 100
    },
    {
      "midi": 62,
      "hit": false,
      "t": 32250,
      "d": 375,
      "v": 100
    },
    {
      "midi": 46,
      "hit": false,
      "t": 32250,
      "d": 750,
      "v": 100
    },
    {
      "midi": 64,
      "hit": false,
      "t": 32625,
      "d": 375,
      "v": 100
    },
    {
      "midi": 45,
      "hit": false,
      "t": 33000,
      "d": 750,
      "v": 100
    },
    {
      "midi": 55,
      "hit": false,
      "t": 33000,
      "d": 1125,
      "v": 100
    },
    {
      "midi": 61,
      "hit": false,
      "t": 33000,
      "d": 1125,
      "v": 100
    },
    {
      "midi": 65,
      "hit": false,
      "t": 33000,
      "d": 1125,
      "v": 100
    },
    {
      "midi": 49,
      "hit": false,
      "t": 33750,
      "d": 750,
      "v": 100
    },
    {
      "midi": 64,
      "hit": false,
      "t": 34125,
      "d": 375,
      "v": 100
    },
    {
      "midi": 38,
      "hit": false,
      "t": 34500,
      "d": 750,
      "v": 100
    },
    {
      "midi": 53,
      "hit": false,
      "t": 34500,
      "d": 1125,
      "v": 100
    },
    {
      "midi": 57,
      "hit": false,
      "t": 34500,
      "d": 1125,
      "v": 100
    },
    {
      "midi": 62,
      "hit": false,
      "t": 34500,
      "d": 1125,
      "v": 100
    },
    {
      "midi": 45,
      "hit": false,
      "t": 35250,
      "d": 750,
      "v": 100
    },
    {
      "midi": 57,
      "hit": false,
      "t": 35625,
      "d": 375,
      "v": 100
    },
    {
      "midi": 62,
      "hit": false,
      "t": 36000,
      "d": 375,
      "v": 100
    },
    {
      "midi": 50,
      "hit": false,
      "t": 36000,
      "d": 2250,
      "v": 100
    },
    {
      "midi": 64,
      "hit": false,
      "t": 36375,
      "d": 375,
      "v": 100
    },
    {
      "midi": 62,
      "hit": false,
      "t": 36750,
      "d": 375,
      "v": 100
    },
    {
      "midi": 58,
      "hit": false,
      "t": 37125,
      "d": 375,
      "v": 100
    },
    {
      "midi": 65,
      "hit": false,
      "t": 37500,
      "d": 1125,
      "v": 100
    },
    {
      "midi": 57,
      "hit": false,
      "t": 38250,
      "d": 750,
      "v": 100
    },
    {
      "midi": 58,
      "hit": false,
      "t": 38250,
      "d": 750,
      "v": 100
    },
    {
      "midi": 64,
      "hit": false,
      "t": 38625,
      "d": 375,
      "v": 100
    },
    {
      "midi": 38,
      "hit": false,
      "t": 39000,
      "d": 750,
      "v": 100
    },
    {
      "midi": 57,
      "hit": false,
      "t": 39000,
      "d": 1500,
      "v": 100
    },
    {
      "midi": 61,
      "hit": false,
      "t": 39000,
      "d": 1500,
      "v": 100
    },
    {
      "midi": 64,
      "hit": false,
      "t": 39000,
      "d": 1500,
      "v": 100
    },
    {
      "midi": 45,
      "hit": false,
      "t": 39750,
      "d": 750,
      "v": 100
    },
    {
      "midi": 64,
      "hit": false,
      "t": 40500,
      "d": 375,
      "v": 100
    },
    {
      "midi": 49,
      "hit": false,
      "t": 40500,
      "d": 1500,
      "v": 100
    },
    {
      "midi": 65,
      "hit": false,
      "t": 40875,
      "d": 375,
      "v": 100
    },
    {
      "midi": 64,
      "hit": false,
      "t": 41250,
      "d": 375,
      "v": 100
    },
    {
      "midi": 61,
      "hit": false,
      "t": 41625,
      "d": 375,
      "v": 100
    },
    {
      "midi": 52,
      "hit": false,
      "t": 42000,
      "d": 750,
      "v": 100
    },
    {
      "midi": 67,
      "hit": false,
      "t": 42000,
      "d": 1125,
      "v": 100
    },
    {
      "midi": 61,
      "hit": false,
      "t": 42750,
      "d": 750,
      "v": 100
    },
    {
      "midi": 65,
      "hit": false,
      "t": 43125,
      "d": 375,
      "v": 100
    },
    {
      "midi": 38,
      "hit": false,
      "t": 43500,
      "d": 750,
      "v": 100
    },
    {
      "midi": 57,
      "hit": false,
      "t": 43500,
      "d": 1500,
      "v": 100
    },
    {
      "midi": 62,
      "hit": false,
      "t": 43500,
      "d": 1500,
      "v": 100
    },
    {
      "midi": 65,
      "hit": false,
      "t": 43500,
      "d": 1500,
      "v": 100
    },
    {
      "midi": 45,
      "hit": false,
      "t": 44250,
      "d": 750,
      "v": 100
    },
    {
      "midi": 65,
      "hit": false,
      "t": 45000,
      "d": 375,
      "v": 100
    },
    {
      "midi": 50,
      "hit": false,
      "t": 45000,
      "d": 1500,
      "v": 100
    },
    {
      "midi": 67,
      "hit": false,
      "t": 45375,
      "d": 375,
      "v": 100
    },
    {
      "midi": 65,
      "hit": false,
      "t": 45750,
      "d": 375,
      "v": 100
    },
    {
      "midi": 62,
      "hit": false,
      "t": 46125,
      "d": 375,
      "v": 100
    },
    {
      "midi": 53,
      "hit": false,
      "t": 46500,
      "d": 750,
      "v": 100
    },
    {
      "midi": 69,
      "hit": false,
      "t": 46500,
      "d": 1125,
      "v": 100
    },
    {
      "midi": 62,
      "hit": false,
      "t": 47250,
      "d": 750,
      "v": 100
    },
    {
      "midi": 67,
      "hit": false,
      "t": 47625,
      "d": 375,
      "v": 100
    },
    {
      "midi": 38,
      "hit": false,
      "t": 48000,
      "d": 750,
      "v": 100
    },
    {
      "midi": 61,
      "hit": false,
      "t": 48000,
      "d": 1500,
      "v": 100
    },
    {
      "midi": 64,
      "hit": false,
      "t": 48000,
      "d": 1500,
      "v": 100
    },
    {
      "midi": 67,
      "hit": false,
      "t": 48000,
      "d": 1500,
      "v": 100
    },
    {
      "midi": 45,
      "hit": false,
      "t": 48750,
      "d": 750,
      "v": 100
    },
    {
      "midi": 67,
      "hit": false,
      "t": 49500,
      "d": 375,
      "v": 100
    },
    {
      "midi": 52,
      "hit": false,
      "t": 49500,
      "d": 1500,
      "v": 100
    },
    {
      "midi": 69,
      "hit": false,
      "t": 49875,
      "d": 375,
      "v": 100
    },
    {
      "midi": 67,
      "hit": false,
      "t": 50250,
      "d": 375,
      "v": 100
    },
    {
      "midi": 64,
      "hit": false,
      "t": 50625,
      "d": 375,
      "v": 100
    },
    {
      "midi": 55,
      "hit": false,
      "t": 51000,
      "d": 750,
      "v": 100
    },
    {
      "midi": 70,
      "hit": false,
      "t": 51000,
      "d": 1125,
      "v": 100
    },
    {
      "midi": 64,
      "hit": false,
      "t": 51750,
      "d": 750,
      "v": 100
    },
    {
      "midi": 69,
      "hit": false,
      "t": 52125,
      "d": 375,
      "v": 100
    },
    {
      "midi": 38,
      "hit": false,
      "t": 52500,
      "d": 750,
      "v": 100
    },
    {
      "midi": 62,
      "hit": false,
      "t": 52500,
      "d": 1500,
      "v": 100
    },
    {
      "midi": 65,
      "hit": false,
      "t": 52500,
      "d": 1500,
      "v": 100
    },
    {
      "midi": 69,
      "hit": false,
      "t": 52500,
      "d": 1500,
      "v": 100
    },
    {
      "midi": 45,
      "hit": false,
      "t": 53250,
      "d": 750,
      "v": 100
    },
    {
      "midi": 69,
      "hit": false,
      "t": 54000,
      "d": 375,
      "v": 100
    },
    {
      "midi": 53,
      "hit": false,
      "t": 54000,
      "d": 1500,
      "v": 100
    },
    {
      "midi": 70,
      "hit": false,
      "t": 54375,
      "d": 375,
      "v": 100
    },
    {
      "midi": 69,
      "hit": false,
      "t": 54750,
      "d": 375,
      "v": 100
    },
    {
      "midi": 65,
      "hit": false,
      "t": 55125,
      "d": 375,
      "v": 100
    },
    {
      "midi": 57,
      "hit": false,
      "t": 55500,
      "d": 750,
      "v": 100
    },
    {
      "midi": 72,
      "hit": false,
      "t": 55500,
      "d": 1125,
      "v": 100
    },
    {
      "midi": 65,
      "hit": false,
      "t": 56250,
      "d": 750,
      "v": 100
    },
    {
      "midi": 70,
      "hit": false,
      "t": 56625,
      "d": 375,
      "v": 100
    },
    {
      "midi": 43,
      "hit": false,
      "t": 57000,
      "d": 750,
      "v": 100
    },
    {
      "midi": 64,
      "hit": false,
      "t": 57000,
      "d": 1500,
      "v": 100
    },
    {
      "midi": 67,
      "hit": false,
      "t": 57000,
      "d": 1500,
      "v": 100
    },
    {
      "midi": 70,
      "hit": false,
      "t": 57000,
      "d": 1500,
      "v": 100
    },
    {
      "midi": 41,
      "hit": false,
      "t": 57750,
      "d": 750,
      "v": 100
    },
    {
      "midi": 70,
      "hit": false,
      "t": 58500,
      "d": 375,
      "v": 100
    },
    {
      "midi": 40,
      "hit": false,
      "t": 58500,
      "d": 750,
      "v": 100
    },
    {
      "midi": 64,
      "hit": false,
      "t": 58500,
      "d": 1500,
      "v": 100
    },
    {
      "midi": 69,
      "hit": false,
      "t": 58875,
      "d": 375,
      "v": 100
    },
    {
      "midi": 67,
      "hit": false,
      "t": 59250,
      "d": 375,
      "v": 100
    },
    {
      "midi": 38,
      "hit": false,
      "t": 59250,
      "d": 750,
      "v": 100
    },
    {
      "midi": 69,
      "hit": false,
      "t": 59625,
      "d": 375,
      "v": 100
    },
    {
      "midi": 37,
      "hit": false,
      "t": 60000,
      "d": 750,
      "v": 100
    },
    {
      "midi": 64,
      "hit": false,
      "t": 60000,
      "d": 1125,
      "v": 100
    },
    {
      "midi": 70,
      "hit": false,
      "t": 60000,
      "d": 1125,
      "v": 100
    },
    {
      "midi": 46,
      "hit": false,
      "t": 60750,
      "d": 750,
      "v": 100
    },
    {
      "midi": 69,
      "hit": false,
      "t": 61125,
      "d": 375,
      "v": 100
    },
    {
      "midi": 45,
      "hit": false,
      "t": 61500,
      "d": 750,
      "v": 100
    },
    {
      "midi": 62,
      "hit": false,
      "t": 61500,
      "d": 1500,
      "v": 100
    },
    {
      "midi": 65,
      "hit": false,
      "t": 61500,
      "d": 1500,
      "v": 100
    },
    {
      "midi": 69,
      "hit": false,
      "t": 61500,
      "d": 1500,
      "v": 100
    },
    {
      "midi": 50,
      "hit": false,
      "t": 62250,
      "d": 750,
      "v": 100
    },
    {
      "midi": 69,
      "hit": false,
      "t": 63000,
      "d": 375,
      "v": 100
    },
    {
      "midi": 53,
      "hit": false,
      "t": 63000,
      "d": 750,
      "v": 100
    },
    {
      "midi": 62,
      "hit": false,
      "t": 63000,
      "d": 1500,
      "v": 100
    },
    {
      "midi": 67,
      "hit": false,
      "t": 63375,
      "d": 375,
      "v": 100
    },
    {
      "midi": 65,
      "hit": false,
      "t": 63750,
      "d": 375,
      "v": 100
    },
    {
      "midi": 50,
      "hit": false,
      "t": 63750,
      "d": 750,
      "v": 100
    },
    {
      "midi": 67,
      "hit": false,
      "t": 64125,
      "d": 375,
      "v": 100
    },
    {
      "midi": 45,
      "hit": false,
      "t": 64500,
      "d": 750,
      "v": 100
    },
    {
      "midi": 62,
      "hit": false,
      "t": 64500,
      "d": 1125,
      "v": 100
    },
    {
      "midi": 64,
      "hit": false,
      "t": 64500,
      "d": 1125,
      "v": 100
    },
    {
      "midi": 69,
      "hit": false,
      "t": 64500,
      "d": 1125,
      "v": 100
    },
    {
      "midi": 50,
      "hit": false,
      "t": 65250,
      "d": 750,
      "v": 100
    },
    {
      "midi": 67,
      "hit": false,
      "t": 65625,
      "d": 375,
      "v": 100
    },
    {
      "midi": 52,
      "hit": false,
      "t": 66000,
      "d": 750,
      "v": 100
    },
    {
      "midi": 61,
      "hit": false,
      "t": 66000,
      "d": 1500,
      "v": 100
    },
    {
      "midi": 64,
      "hit": false,
      "t": 66000,
      "d": 1500,
      "v": 100
    },
    {
      "midi": 67,
      "hit": false,
      "t": 66000,
      "d": 1500,
      "v": 100
    },
    {
      "midi": 45,
      "hit": false,
      "t": 66750,
      "d": 750,
      "v": 100
    },
    {
      "midi": 65,
      "hit": false,
      "t": 67500,
      "d": 375,
      "v": 100
    },
    {
      "midi": 46,
      "hit": false,
      "t": 67500,
      "d": 750,
      "v": 100
    },
    {
      "midi": 58,
      "hit": false,
      "t": 67500,
      "d": 3000,
      "v": 100
    },
    {
      "midi": 64,
      "hit": false,
      "t": 67875,
      "d": 375,
      "v": 100
    },
    {
      "midi": 62,
      "hit": false,
      "t": 68250,
      "d": 375,
      "v": 100
    },
    {
      "midi": 43,
      "hit": false,
      "t": 68250,
      "d": 750,
      "v": 100
    },
    {
      "midi": 64,
      "hit": false,
      "t": 68625,
      "d": 375,
      "v": 100
    },
    {
      "midi": 45,
      "hit": false,
      "t": 69000,
      "d": 750,
      "v": 100
    },
    {
      "midi": 55,
      "hit": false,
      "t": 69000,
      "d": 1125,
      "v": 100
    },
    {
      "midi": 61,
      "hit": false,
      "t": 69000,
      "d": 1125,
      "v": 100
    },
    {
      "midi": 65,
      "hit": false,
      "t": 69000,
      "d": 1125,
      "v": 100
    },
    {
      "midi": 57,
      "hit": false,
      "t": 69750,
      "d": 750,
      "v": 100
    },
    {
      "midi": 64,
      "hit": false,
      "t": 70125,
      "d": 375,
      "v": 100
    },
    {
      "midi": 57,
      "hit": false,
      "t": 70500,
      "d": 750,
      "v": 100
    },
    {
      "midi": 62,
      "hit": false,
      "t": 70500,
      "d": 750,
      "v": 100
    },
    {
      "midi": 38,
      "hit": false,
      "t": 70500,
      "d": 6000,
      "v": 100
    },
    {
      "midi": 53,
      "hit": false,
      "t": 71250,
      "d": 750,
      "v": 100
    },
    {
      "midi": 57,
      "hit": false,
      "t": 72000,
      "d": 750,
      "v": 100
    },
    {
      "midi": 62,
      "hit": false,
      "t": 72000,
      "d": 750,
      "v": 100
    },
    {
      "midi": 53,
      "hit": false,
      "t": 72750,
      "d": 750,
      "v": 100
    },
    {
      "midi": 58,
      "hit": false,
      "t": 73500,
      "d": 750,
      "v": 100
    },
    {
      "midi": 62,
      "hit": false,
      "t": 73500,
      "d": 750,
      "v": 100
    },
    {
      "midi": 53,
      "hit": false,
      "t": 74250,
      "d": 750,
      "v": 100
    },
    {
      "midi": 58,
      "hit": false,
      "t": 75000,
      "d": 750,
      "v": 100
    },
    {
      "midi": 62,
      "hit": false,
      "t": 75000,
      "d": 750,
      "v": 100
    },
    {
      "midi": 53,
      "hit": false,
      "t": 75750,
      "d": 750,
      "v": 100
    },
    {
      "midi": 55,
      "hit": false,
      "t": 76500,
      "d": 750,
      "v": 100
    },
    {
      "midi": 62,
      "hit": false,
      "t": 76500,
      "d": 750,
      "v": 100
    },
    {
      "midi": 38,
      "hit": false,
      "t": 76500,
      "d": 6000,
      "v": 100
    },
    {
      "midi": 52,
      "hit": false,
      "t": 77250,
      "d": 750,
      "v": 100
    },
    {
      "midi": 55,
      "hit": false,
      "t": 78000,
      "d": 750,
      "v": 100
    },
    {
      "midi": 62,
      "hit": false,
      "t": 78000,
      "d": 750,
      "v": 100
    },
    {
      "midi": 52,
      "hit": false,
      "t": 78750,
      "d": 750,
      "v": 100
    },
    {
      "midi": 53,
      "hit": false,
      "t": 79500,
      "d": 750,
      "v": 100
    },
    {
      "midi": 60,
      "hit": false,
      "t": 79500,
      "d": 750,
      "v": 100
    },
    {
      "midi": 50,
      "hit": false,
      "t": 80250,
      "d": 750,
      "v": 100
    },
    {
      "midi": 52,
      "hit": false,
      "t": 81000,
      "d": 750,
      "v": 100
    },
    {
      "midi": 60,
      "hit": false,
      "t": 81000,
      "d": 750,
      "v": 100
    },
    {
      "midi": 48,
      "hit": false,
      "t": 81750,
      "d": 750,
      "v": 100
    },
    {
      "midi": 38,
      "hit": false,
      "t": 82500,
      "d": 375,
      "v": 100
    },
    {
      "midi": 45,
      "hit": false,
      "t": 82875,
      "d": 375,
      "v": 100
    },
    {
      "midi": 50,
      "hit": false,
      "t": 83250,
      "d": 375,
      "v": 100
    },
    {
      "midi": 55,
      "hit": false,
      "t": 83625,
      "d": 375,
      "v": 100
    },
    {
      "midi": 45,
      "hit": false,
      "t": 84000,
      "d": 375,
      "v": 100
    },
    {
      "midi": 53,
      "hit": false,
      "t": 84375,
      "d": 375,
      "v": 100
    },
    {
      "midi": 45,
      "hit": false,
      "t": 84750,
      "d": 375,
      "v": 100
    },
    {
      "midi": 52,
      "hit": false,
      "t": 85125,
      "d": 375,
      "v": 100
    },
    {
      "midi": 38,
      "hit": false,
      "t": 85500,
      "d": 375,
      "v": 100
    },
    {
      "midi": 45,
      "hit": false,
      "t": 85875,
      "d": 375,
      "v": 100
    },
    {
      "midi": 57,
      "hit": false,
      "t": 86250,
      "d": 375,
      "v": 100
    },
    {
      "midi": 45,
      "hit": false,
      "t": 86625,
      "d": 375,
      "v": 100
    },
    {
      "midi": 55,
      "hit": false,
      "t": 87000,
      "d": 375,
      "v": 100
    },
    {
      "midi": 45,
      "hit": false,
      "t": 87375,
      "d": 375,
      "v": 100
    },
    {
      "midi": 53,
      "hit": false,
      "t": 87750,
      "d": 375,
      "v": 100
    },
    {
      "midi": 45,
      "hit": false,
      "t": 88125,
      "d": 375,
      "v": 100
    },
    {
      "midi": 52,
      "hit": false,
      "t": 88500,
      "d": 375,
      "v": 100
    },
    {
      "midi": 46,
      "hit": false,
      "t": 88875,
      "d": 375,
      "v": 100
    },
    {
      "midi": 50,
      "hit": false,
      "t": 89250,
      "d": 375,
      "v": 100
    },
    {
      "midi": 55,
      "hit": false,
      "t": 89625,
      "d": 375,
      "v": 100
    },
    {
      "midi": 46,
      "hit": false,
      "t": 90000,
      "d": 375,
      "v": 100
    },
    {
      "midi": 53,
      "hit": false,
      "t": 90375,
      "d": 375,
      "v": 100
    },
    {
      "midi": 46,
      "hit": false,
      "t": 90750,
      "d": 375,
      "v": 100
    },
    {
      "midi": 52,
      "hit": false,
      "t": 91125,
      "d": 375,
      "v": 100
    },
    {
      "midi": 46,
      "hit": false,
      "t": 91500,
      "d": 375,
      "v": 100
    },
    {
      "midi": 50,
      "hit": false,
      "t": 91875,
      "d": 375,
      "v": 100
    },
    {
      "midi": 55,
      "hit": false,
      "t": 92250,
      "d": 375,
      "v": 100
    },
    {
      "midi": 46,
      "hit": false,
      "t": 92625,
      "d": 375,
      "v": 100
    },
    {
      "midi": 53,
      "hit": false,
      "t": 93000,
      "d": 375,
      "v": 100
    },
    {
      "midi": 46,
      "hit": false,
      "t": 93375,
      "d": 375,
      "v": 100
    },
    {
      "midi": 52,
      "hit": false,
      "t": 93750,
      "d": 375,
      "v": 100
    },
    {
      "midi": 46,
      "hit": false,
      "t": 94125,
      "d": 375,
      "v": 100
    },
    {
      "midi": 38,
      "hit": false,
      "t": 94500,
      "d": 375,
      "v": 100
    },
    {
      "midi": 45,
      "hit": false,
      "t": 94875,
      "d": 375,
      "v": 100
    },
    {
      "midi": 50,
      "hit": false,
      "t": 95250,
      "d": 375,
      "v": 100
    },
    {
      "midi": 55,
      "hit": false,
      "t": 95625,
      "d": 375,
      "v": 100
    },
    {
      "midi": 45,
      "hit": false,
      "t": 96000,
      "d": 375,
      "v": 100
    },
    {
      "midi": 53,
      "hit": false,
      "t": 96375,
      "d": 375,
      "v": 100
    },
    {
      "midi": 45,
      "hit": false,
      "t": 96750,
      "d": 375,
      "v": 100
    },
    {
      "midi": 52,
      "hit": false,
      "t": 97125,
      "d": 375,
      "v": 100
    },
    {
      "midi": 38,
      "hit": false,
      "t": 97500,
      "d": 375,
      "v": 100
    },
    {
      "midi": 45,
      "hit": false,
      "t": 97875,
      "d": 375,
      "v": 100
    },
    {
      "midi": 57,
      "hit": false,
      "t": 98250,
      "d": 375,
      "v": 100
    },
    {
      "midi": 45,
      "hit": false,
      "t": 98625,
      "d": 375,
      "v": 100
    },
    {
      "midi": 55,
      "hit": false,
      "t": 99000,
      "d": 375,
      "v": 100
    },
    {
      "midi": 45,
      "hit": false,
      "t": 99375,
      "d": 375,
      "v": 100
    },
    {
      "midi": 53,
      "hit": false,
      "t": 99750,
      "d": 375,
      "v": 100
    },
    {
      "midi": 45,
      "hit": false,
      "t": 100125,
      "d": 375,
      "v": 100
    },
    {
      "midi": 52,
      "hit": false,
      "t": 100500,
      "d": 375,
      "v": 100
    },
    {
      "midi": 46,
      "hit": false,
      "t": 100875,
      "d": 375,
      "v": 100
    },
    {
      "midi": 50,
      "hit": false,
      "t": 101250,
      "d": 375,
      "v": 100
    },
    {
      "midi": 55,
      "hit": false,
      "t": 101625,
      "d": 375,
      "v": 100
    },
    {
      "midi": 46,
      "hit": false,
      "t": 102000,
      "d": 375,
      "v": 100
    },
    {
      "midi": 53,
      "hit": false,
      "t": 102375,
      "d": 375,
      "v": 100
    },
    {
      "midi": 46,
      "hit": false,
      "t": 102750,
      "d": 375,
      "v": 100
    },
    {
      "midi": 52,
      "hit": false,
      "t": 103125,
      "d": 375,
      "v": 100
    },
    {
      "midi": 46,
      "hit": false,
      "t": 103500,
      "d": 375,
      "v": 100
    },
    {
      "midi": 50,
      "hit": false,
      "t": 103875,
      "d": 375,
      "v": 100
    },
    {
      "midi": 55,
      "hit": false,
      "t": 104250,
      "d": 375,
      "v": 100
    },
    {
      "midi": 46,
      "hit": false,
      "t": 104625,
      "d": 375,
      "v": 100
    },
    {
      "midi": 53,
      "hit": false,
      "t": 105000,
      "d": 375,
      "v": 100
    },
    {
      "midi": 46,
      "hit": false,
      "t": 105375,
      "d": 375,
      "v": 100
    },
    {
      "midi": 52,
      "hit": false,
      "t": 105750,
      "d": 375,
      "v": 100
    },
    {
      "midi": 46,
      "hit": false,
      "t": 106125,
      "d": 375,
      "v": 100
    },
    {
      "midi": 38,
      "hit": false,
      "t": 106500,
      "d": 375,
      "v": 100
    },
    {
      "midi": 45,
      "hit": false,
      "t": 106875,
      "d": 375,
      "v": 100
    },
    {
      "midi": 50,
      "hit": false,
      "t": 107250,
      "d": 375,
      "v": 100
    },
    {
      "midi": 55,
      "hit": false,
      "t": 107625,
      "d": 375,
      "v": 100
    },
    {
      "midi": 45,
      "hit": false,
      "t": 108000,
      "d": 375,
      "v": 100
    },
    {
      "midi": 53,
      "hit": false,
      "t": 108375,
      "d": 375,
      "v": 100
    },
    {
      "midi": 45,
      "hit": false,
      "t": 108750,
      "d": 375,
      "v": 100
    },
    {
      "midi": 52,
      "hit": false,
      "t": 109125,
      "d": 375,
      "v": 100
    },
    {
      "midi": 38,
      "hit": false,
      "t": 109500,
      "d": 375,
      "v": 100
    },
    {
      "midi": 45,
      "hit": false,
      "t": 109875,
      "d": 375,
      "v": 100
    },
    {
      "midi": 57,
      "hit": false,
      "t": 110250,
      "d": 375,
      "v": 100
    },
    {
      "midi": 45,
      "hit": false,
      "t": 110625,
      "d": 375,
      "v": 100
    },
    {
      "midi": 55,
      "hit": false,
      "t": 111000,
      "d": 375,
      "v": 100
    },
    {
      "midi": 45,
      "hit": false,
      "t": 111375,
      "d": 375,
      "v": 100
    },
    {
      "midi": 53,
      "hit": false,
      "t": 111750,
      "d": 375,
      "v": 100
    },
    {
      "midi": 45,
      "hit": false,
      "t": 112125,
      "d": 375,
      "v": 100
    },
    {
      "midi": 52,
      "hit": false,
      "t": 112500,
      "d": 375,
      "v": 100
    },
    {
      "midi": 46,
      "hit": false,
      "t": 112875,
      "d": 375,
      "v": 100
    },
    {
      "midi": 50,
      "hit": false,
      "t": 113250,
      "d": 375,
      "v": 100
    },
    {
      "midi": 55,
      "hit": false,
      "t": 113625,
      "d": 375,
      "v": 100
    },
    {
      "midi": 46,
      "hit": false,
      "t": 114000,
      "d": 375,
      "v": 100
    },
    {
      "midi": 53,
      "hit": false,
      "t": 114375,
      "d": 375,
      "v": 100
    },
    {
      "midi": 46,
      "hit": false,
      "t": 114750,
      "d": 375,
      "v": 100
    },
    {
      "midi": 52,
      "hit": false,
      "t": 115125,
      "d": 375,
      "v": 100
    },
    {
      "midi": 46,
      "hit": false,
      "t": 115500,
      "d": 375,
      "v": 100
    },
    {
      "midi": 50,
      "hit": false,
      "t": 115875,
      "d": 375,
      "v": 100
    },
    {
      "midi": 55,
      "hit": false,
      "t": 116250,
      "d": 375,
      "v": 100
    },
    {
      "midi": 46,
      "hit": false,
      "t": 116625,
      "d": 375,
      "v": 100
    },
    {
      "midi": 53,
      "hit": false,
      "t": 117000,
      "d": 375,
      "v": 100
    },
    {
      "midi": 46,
      "hit": false,
      "t": 117375,
      "d": 375,
      "v": 100
    },
    {
      "midi": 52,
      "hit": false,
      "t": 117750,
      "d": 375,
      "v": 100
    },
    {
      "midi": 46,
      "hit": false,
      "t": 118125,
      "d": 375,
      "v": 100
    },
    {
      "midi": 38,
      "hit": false,
      "t": 118500,
      "d": 375,
      "v": 100
    },
    {
      "midi": 45,
      "hit": false,
      "t": 118875,
      "d": 375,
      "v": 100
    },
    {
      "midi": 50,
      "hit": false,
      "t": 119250,
      "d": 375,
      "v": 100
    },
    {
      "midi": 55,
      "hit": false,
      "t": 119625,
      "d": 375,
      "v": 100
    },
    {
      "midi": 45,
      "hit": false,
      "t": 120000,
      "d": 375,
      "v": 100
    },
    {
      "midi": 53,
      "hit": false,
      "t": 120375,
      "d": 375,
      "v": 100
    },
    {
      "midi": 45,
      "hit": false,
      "t": 120750,
      "d": 375,
      "v": 100
    },
    {
      "midi": 52,
      "hit": false,
      "t": 121125,
      "d": 375,
      "v": 100
    },
    {
      "midi": 38,
      "hit": false,
      "t": 121500,
      "d": 375,
      "v": 100
    },
    {
      "midi": 45,
      "hit": false,
      "t": 121875,
      "d": 375,
      "v": 100
    },
    {
      "midi": 57,
      "hit": false,
      "t": 122250,
      "d": 375,
      "v": 100
    },
    {
      "midi": 45,
      "hit": false,
      "t": 122625,
      "d": 375,
      "v": 100
    },
    {
      "midi": 55,
      "hit": false,
      "t": 123000,
      "d": 375,
      "v": 100
    },
    {
      "midi": 45,
      "hit": false,
      "t": 123375,
      "d": 375,
      "v": 100
    },
    {
      "midi": 53,
      "hit": false,
      "t": 123750,
      "d": 375,
      "v": 100
    },
    {
      "midi": 45,
      "hit": false,
      "t": 124125,
      "d": 375,
      "v": 100
    },
    {
      "midi": 52,
      "hit": false,
      "t": 124500,
      "d": 375,
      "v": 100
    },
    {
      "midi": 46,
      "hit": false,
      "t": 124875,
      "d": 375,
      "v": 100
    },
    {
      "midi": 50,
      "hit": false,
      "t": 125250,
      "d": 375,
      "v": 100
    },
    {
      "midi": 55,
      "hit": false,
      "t": 125625,
      "d": 375,
      "v": 100
    },
    {
      "midi": 46,
      "hit": false,
      "t": 126000,
      "d": 375,
      "v": 100
    },
    {
      "midi": 53,
      "hit": false,
      "t": 126375,
      "d": 375,
      "v": 100
    },
    {
      "midi": 46,
      "hit": false,
      "t": 126750,
      "d": 375,
      "v": 100
    },
    {
      "midi": 52,
      "hit": false,
      "t": 127125,
      "d": 375,
      "v": 100
    },
    {
      "midi": 46,
      "hit": false,
      "t": 127500,
      "d": 375,
      "v": 100
    },
    {
      "midi": 50,
      "hit": false,
      "t": 127875,
      "d": 375,
      "v": 100
    },
    {
      "midi": 55,
      "hit": false,
      "t": 128250,
      "d": 375,
      "v": 100
    },
    {
      "midi": 46,
      "hit": false,
      "t": 128625,
      "d": 375,
      "v": 100
    },
    {
      "midi": 53,
      "hit": false,
      "t": 129000,
      "d": 375,
      "v": 100
    },
    {
      "midi": 46,
      "hit": false,
      "t": 129375,
      "d": 375,
      "v": 100
    },
    {
      "midi": 52,
      "hit": false,
      "t": 129750,
      "d": 375,
      "v": 100
    },
    {
      "midi": 46,
      "hit": false,
      "t": 130125,
      "d": 375,
      "v": 100
    },
    {
      "midi": 38,
      "hit": false,
      "t": 130500,
      "d": 375,
      "v": 100
    },
    {
      "midi": 45,
      "hit": false,
      "t": 130875,
      "d": 375,
      "v": 100
    },
    {
      "midi": 50,
      "hit": false,
      "t": 131250,
      "d": 375,
      "v": 100
    },
    {
      "midi": 55,
      "hit": false,
      "t": 131625,
      "d": 375,
      "v": 100
    },
    {
      "midi": 45,
      "hit": false,
      "t": 132000,
      "d": 375,
      "v": 100
    },
    {
      "midi": 53,
      "hit": false,
      "t": 132375,
      "d": 375,
      "v": 100
    },
    {
      "midi": 45,
      "hit": false,
      "t": 132750,
      "d": 375,
      "v": 100
    },
    {
      "midi": 52,
      "hit": false,
      "t": 133125,
      "d": 375,
      "v": 100
    },
    {
      "midi": 38,
      "hit": false,
      "t": 133500,
      "d": 375,
      "v": 100
    },
    {
      "midi": 45,
      "hit": false,
      "t": 133875,
      "d": 375,
      "v": 100
    },
    {
      "midi": 57,
      "hit": false,
      "t": 134250,
      "d": 375,
      "v": 100
    },
    {
      "midi": 45,
      "hit": false,
      "t": 134625,
      "d": 375,
      "v": 100
    },
    {
      "midi": 55,
      "hit": false,
      "t": 135000,
      "d": 375,
      "v": 100
    },
    {
      "midi": 45,
      "hit": false,
      "t": 135375,
      "d": 375,
      "v": 100
    },
    {
      "midi": 53,
      "hit": false,
      "t": 135750,
      "d": 375,
      "v": 100
    },
    {
      "midi": 45,
      "hit": false,
      "t": 136125,
      "d": 375,
      "v": 100
    },
    {
      "midi": 52,
      "hit": false,
      "t": 136500,
      "d": 375,
      "v": 100
    },
    {
      "midi": 46,
      "hit": false,
      "t": 136875,
      "d": 375,
      "v": 100
    },
    {
      "midi": 50,
      "hit": false,
      "t": 137250,
      "d": 375,
      "v": 100
    },
    {
      "midi": 55,
      "hit": false,
      "t": 137625,
      "d": 375,
      "v": 100
    },
    {
      "midi": 46,
      "hit": false,
      "t": 138000,
      "d": 375,
      "v": 100
    },
    {
      "midi": 53,
      "hit": false,
      "t": 138375,
      "d": 375,
      "v": 100
    },
    {
      "midi": 46,
      "hit": false,
      "t": 138750,
      "d": 375,
      "v": 100
    },
    {
      "midi": 52,
      "hit": false,
      "t": 139125,
      "d": 375,
      "v": 100
    },
    {
      "midi": 46,
      "hit": false,
      "t": 139500,
      "d": 375,
      "v": 100
    },
    {
      "midi": 50,
      "hit": false,
      "t": 139875,
      "d": 375,
      "v": 100
    },
    {
      "midi": 55,
      "hit": false,
      "t": 140250,
      "d": 375,
      "v": 100
    },
    {
      "midi": 46,
      "hit": false,
      "t": 140625,
      "d": 375,
      "v": 100
    },
    {
      "midi": 53,
      "hit": false,
      "t": 141000,
      "d": 375,
      "v": 100
    },
    {
      "midi": 46,
      "hit": false,
      "t": 141375,
      "d": 375,
      "v": 100
    },
    {
      "midi": 52,
      "hit": false,
      "t": 141750,
      "d": 375,
      "v": 100
    },
    {
      "midi": 46,
      "hit": false,
      "t": 142125,
      "d": 375,
      "v": 100
    },
    {
      "midi": 38,
      "hit": false,
      "t": 142500,
      "d": 375,
      "v": 100
    },
    {
      "midi": 45,
      "hit": false,
      "t": 142875,
      "d": 375,
      "v": 100
    },
    {
      "midi": 50,
      "hit": false,
      "t": 143250,
      "d": 375,
      "v": 100
    },
    {
      "midi": 55,
      "hit": false,
      "t": 143625,
      "d": 375,
      "v": 100
    },
    {
      "midi": 45,
      "hit": false,
      "t": 144000,
      "d": 375,
      "v": 100
    },
    {
      "midi": 53,
      "hit": false,
      "t": 144375,
      "d": 375,
      "v": 100
    },
    {
      "midi": 45,
      "hit": false,
      "t": 144750,
      "d": 375,
      "v": 100
    },
    {
      "midi": 52,
      "hit": false,
      "t": 145125,
      "d": 375,
      "v": 100
    },
    {
      "midi": 38,
      "hit": false,
      "t": 145500,
      "d": 375,
      "v": 100
    },
    {
      "midi": 45,
      "hit": false,
      "t": 145875,
      "d": 375,
      "v": 100
    },
    {
      "midi": 57,
      "hit": false,
      "t": 146250,
      "d": 375,
      "v": 100
    },
    {
      "midi": 45,
      "hit": false,
      "t": 146625,
      "d": 375,
      "v": 100
    },
    {
      "midi": 55,
      "hit": false,
      "t": 147000,
      "d": 375,
      "v": 100
    },
    {
      "midi": 45,
      "hit": false,
      "t": 147375,
      "d": 375,
      "v": 100
    },
    {
      "midi": 53,
      "hit": false,
      "t": 147750,
      "d": 375,
      "v": 100
    },
    {
      "midi": 45,
      "hit": false,
      "t": 148125,
      "d": 375,
      "v": 100
    },
    {
      "midi": 52,
      "hit": false,
      "t": 148500,
      "d": 375,
      "v": 100
    },
    {
      "midi": 46,
      "hit": false,
      "t": 148875,
      "d": 375,
      "v": 100
    },
    {
      "midi": 50,
      "hit": false,
      "t": 149250,
      "d": 375,
      "v": 100
    },
    {
      "midi": 55,
      "hit": false,
      "t": 149625,
      "d": 375,
      "v": 100
    },
    {
      "midi": 46,
      "hit": false,
      "t": 150000,
      "d": 375,
      "v": 100
    },
    {
      "midi": 53,
      "hit": false,
      "t": 150375,
      "d": 375,
      "v": 100
    },
    {
      "midi": 46,
      "hit": false,
      "t": 150750,
      "d": 375,
      "v": 100
    },
    {
      "midi": 52,
      "hit": false,
      "t": 151125,
      "d": 375,
      "v": 100
    },
    {
      "midi": 46,
      "hit": false,
      "t": 151500,
      "d": 375,
      "v": 100
    },
    {
      "midi": 50,
      "hit": false,
      "t": 151875,
      "d": 375,
      "v": 100
    },
    {
      "midi": 55,
      "hit": false,
      "t": 152250,
      "d": 375,
      "v": 100
    },
    {
      "midi": 46,
      "hit": false,
      "t": 152625,
      "d": 375,
      "v": 100
    },
    {
      "midi": 53,
      "hit": false,
      "t": 153000,
      "d": 375,
      "v": 100
    },
    {
      "midi": 46,
      "hit": false,
      "t": 153375,
      "d": 375,
      "v": 100
    },
    {
      "midi": 52,
      "hit": false,
      "t": 153750,
      "d": 375,
      "v": 100
    },
    {
      "midi": 46,
      "hit": false,
      "t": 154125,
      "d": 375,
      "v": 100
    },
    {
      "midi": 57,
      "hit": false,
      "t": 154500,
      "d": 750,
      "v": 100
    },
    {
      "midi": 62,
      "hit": false,
      "t": 154500,
      "d": 750,
      "v": 100
    },
    {
      "midi": 38,
      "hit": false,
      "t": 154500,
      "d": 6000,
      "v": 100
    },
    {
      "midi": 53,
      "hit": false,
      "t": 155250,
      "d": 750,
      "v": 100
    },
    {
      "midi": 57,
      "hit": false,
      "t": 156000,
      "d": 750,
      "v": 100
    },
    {
      "midi": 62,
      "hit": false,
      "t": 156000,
      "d": 750,
      "v": 100
    },
    {
      "midi": 53,
      "hit": false,
      "t": 156750,
      "d": 750,
      "v": 100
    },
    {
      "midi": 57,
      "hit": false,
      "t": 157500,
      "d": 750,
      "v": 100
    },
    {
      "midi": 62,
      "hit": false,
      "t": 157500,
      "d": 750,
      "v": 100
    },
    {
      "midi": 53,
      "hit": false,
      "t": 158250,
      "d": 750,
      "v": 100
    },
    {
      "midi": 57,
      "hit": false,
      "t": 159000,
      "d": 750,
      "v": 100
    },
    {
      "midi": 62,
      "hit": false,
      "t": 159000,
      "d": 750,
      "v": 100
    },
    {
      "midi": 53,
      "hit": false,
      "t": 159750,
      "d": 750,
      "v": 100
    },
    {
      "midi": 55,
      "hit": false,
      "t": 160500,
      "d": 750,
      "v": 100
    },
    {
      "midi": 62,
      "hit": false,
      "t": 160500,
      "d": 750,
      "v": 100
    },
    {
      "midi": 48,
      "hit": false,
      "t": 160500,
      "d": 6000,
      "v": 100
    },
    {
      "midi": 52,
      "hit": false,
      "t": 161250,
      "d": 750,
      "v": 100
    },
    {
      "midi": 55,
      "hit": false,
      "t": 162000,
      "d": 750,
      "v": 100
    },
    {
      "midi": 62,
      "hit": false,
      "t": 162000,
      "d": 750,
      "v": 100
    },
    {
      "midi": 52,
      "hit": false,
      "t": 162750,
      "d": 750,
      "v": 100
    },
    {
      "midi": 55,
      "hit": false,
      "t": 163500,
      "d": 750,
      "v": 100
    },
    {
      "midi": 60,
      "hit": false,
      "t": 163500,
      "d": 750,
      "v": 100
    },
    {
      "midi": 52,
      "hit": false,
      "t": 164250,
      "d": 750,
      "v": 100
    },
    {
      "midi": 55,
      "hit": false,
      "t": 165000,
      "d": 750,
      "v": 100
    },
    {
      "midi": 60,
      "hit": false,
      "t": 165000,
      "d": 750,
      "v": 100
    },
    {
      "midi": 52,
      "hit": false,
      "t": 165750,
      "d": 750,
      "v": 100
    },
    {
      "midi": 57,
      "hit": false,
      "t": 166500,
      "d": 750,
      "v": 100
    },
    {
      "midi": 62,
      "hit": false,
      "t": 166500,
      "d": 750,
      "v": 100
    },
    {
      "midi": 38,
      "hit": false,
      "t": 166500,
      "d": 6000,
      "v": 100
    },
    {
      "midi": 53,
      "hit": false,
      "t": 167250,
      "d": 750,
      "v": 100
    },
    {
      "midi": 57,
      "hit": false,
      "t": 168000,
      "d": 750,
      "v": 100
    },
    {
      "midi": 62,
      "hit": false,
      "t": 168000,
      "d": 750,
      "v": 100
    },
    {
      "midi": 53,
      "hit": false,
      "t": 168750,
      "d": 750,
      "v": 100
    },
    {
      "midi": 57,
      "hit": false,
      "t": 169500,
      "d": 750,
      "v": 100
    },
    {
      "midi": 62,
      "hit": false,
      "t": 169500,
      "d": 750,
      "v": 100
    },
    {
      "midi": 53,
      "hit": false,
      "t": 170250,
      "d": 750,
      "v": 100
    },
    {
      "midi": 57,
      "hit": false,
      "t": 171000,
      "d": 750,
      "v": 100
    },
    {
      "midi": 62,
      "hit": false,
      "t": 171000,
      "d": 750,
      "v": 100
    },
    {
      "midi": 53,
      "hit": false,
      "t": 171750,
      "d": 750,
      "v": 100
    },
    {
      "midi": 55,
      "hit": false,
      "t": 172500,
      "d": 750,
      "v": 100
    },
    {
      "midi": 62,
      "hit": false,
      "t": 172500,
      "d": 750,
      "v": 100
    },
    {
      "midi": 48,
      "hit": false,
      "t": 172500,
      "d": 3750,
      "v": 100
    },
    {
      "midi": 52,
      "hit": false,
      "t": 173250,
      "d": 750,
      "v": 100
    },
    {
      "midi": 55,
      "hit": false,
      "t": 174000,
      "d": 750,
      "v": 100
    },
    {
      "midi": 62,
      "hit": false,
      "t": 174000,
      "d": 750,
      "v": 100
    },
    {
      "midi": 52,
      "hit": false,
      "t": 174750,
      "d": 750,
      "v": 100
    },
    {
      "midi": 60,
      "hit": false,
      "t": 175500,
      "d": 750,
      "v": 100
    },
    {
      "midi": 64,
      "hit": false,
      "t": 175500,
      "d": 750,
      "v": 100
    },
    {
      "midi": 52,
      "hit": false,
      "t": 176250,
      "d": 750,
      "v": 100
    },
    {
      "midi": 65,
      "hit": false,
      "t": 176625,
      "d": 750,
      "v": 100
    },
    {
      "midi": 48,
      "hit": false,
      "t": 177000,
      "d": 750,
      "v": 100
    },
    {
      "midi": 67,
      "hit": false,
      "t": 177375,
      "d": 1125,
      "v": 100
    },
    {
      "midi": 55,
      "hit": false,
      "t": 177750,
      "d": 750,
      "v": 100
    },
    {
      "midi": 57,
      "hit": false,
      "t": 178500,
      "d": 750,
      "v": 100
    },
    {
      "midi": 65,
      "hit": false,
      "t": 178500,
      "d": 750,
      "v": 100
    },
    {
      "midi": 69,
      "hit": false,
      "t": 178500,
      "d": 750,
      "v": 100
    },
    {
      "midi": 46,
      "hit": false,
      "t": 178500,
      "d": 6000,
      "v": 100
    },
    {
      "midi": 57,
      "hit": false,
      "t": 179250,
      "d": 750,
      "v": 100
    },
    {
      "midi": 57,
      "hit": false,
      "t": 180000,
      "d": 750,
      "v": 100
    },
    {
      "midi": 62,
      "hit": false,
      "t": 180000,
      "d": 750,
      "v": 100
    },
    {
      "midi": 53,
      "hit": false,
      "t": 180750,
      "d": 750,
      "v": 100
    },
    {
      "midi": 57,
      "hit": false,
      "t": 181500,
      "d": 750,
      "v": 100
    },
    {
      "midi": 62,
      "hit": false,
      "t": 181500,
      "d": 750,
      "v": 100
    },
    {
      "midi": 53,
      "hit": false,
      "t": 182250,
      "d": 750,
      "v": 100
    },
    {
      "midi": 57,
      "hit": false,
      "t": 183000,
      "d": 750,
      "v": 100
    },
    {
      "midi": 62,
      "hit": false,
      "t": 183000,
      "d": 750,
      "v": 100
    },
    {
      "midi": 53,
      "hit": false,
      "t": 183750,
      "d": 750,
      "v": 100
    },
    {
      "midi": 55,
      "hit": false,
      "t": 184500,
      "d": 750,
      "v": 100
    },
    {
      "midi": 62,
      "hit": false,
      "t": 184500,
      "d": 750,
      "v": 100
    },
    {
      "midi": 48,
      "hit": false,
      "t": 184500,
      "d": 3750,
      "v": 100
    },
    {
      "midi": 52,
      "hit": false,
      "t": 185250,
      "d": 750,
      "v": 100
    },
    {
      "midi": 55,
      "hit": false,
      "t": 186000,
      "d": 750,
      "v": 100
    },
    {
      "midi": 62,
      "hit": false,
      "t": 186000,
      "d": 750,
      "v": 100
    },
    {
      "midi": 52,
      "hit": false,
      "t": 186750,
      "d": 750,
      "v": 100
    },
    {
      "midi": 60,
      "hit": false,
      "t": 187500,
      "d": 1125,
      "v": 100
    },
    {
      "midi": 64,
      "hit": false,
      "t": 187500,
      "d": 1125,
      "v": 100
    },
    {
      "midi": 52,
      "hit": false,
      "t": 188250,
      "d": 750,
      "v": 100
    },
    {
      "midi": 65,
      "hit": false,
      "t": 188625,
      "d": 750,
      "v": 100
    },
    {
      "midi": 48,
      "hit": false,
      "t": 189000,
      "d": 750,
      "v": 100
    },
    {
      "midi": 67,
      "hit": false,
      "t": 189375,
      "d": 1125,
      "v": 100
    },
    {
      "midi": 55,
      "hit": false,
      "t": 189750,
      "d": 750,
      "v": 100
    },
    {
      "midi": 57,
      "hit": false,
      "t": 190500,
      "d": 750,
      "v": 100
    },
    {
      "midi": 65,
      "hit": false,
      "t": 190500,
      "d": 750,
      "v": 100
    },
    {
      "midi": 69,
      "hit": false,
      "t": 190500,
      "d": 750,
      "v": 100
    },
    {
      "midi": 46,
      "hit": false,
      "t": 190500,
      "d": 6000,
      "v": 100
    },
    {
      "midi": 57,
      "hit": false,
      "t": 191250,
      "d": 750,
      "v": 100
    },
    {
      "midi": 57,
      "hit": false,
      "t": 192000,
      "d": 750,
      "v": 100
    },
    {
      "midi": 62,
      "hit": false,
      "t": 192000,
      "d": 750,
      "v": 100
    },
    {
      "midi": 53,
      "hit": false,
      "t": 192750,
      "d": 750,
      "v": 100
    },
    {
      "midi": 57,
      "hit": false,
      "t": 193500,
      "d": 750,
      "v": 100
    },
    {
      "midi": 62,
      "hit": false,
      "t": 193500,
      "d": 750,
      "v": 100
    },
    {
      "midi": 53,
      "hit": false,
      "t": 194250,
      "d": 750,
      "v": 100
    },
    {
      "midi": 57,
      "hit": false,
      "t": 195000,
      "d": 750,
      "v": 100
    },
    {
      "midi": 62,
      "hit": false,
      "t": 195000,
      "d": 750,
      "v": 100
    },
    {
      "midi": 53,
      "hit": false,
      "t": 195750,
      "d": 750,
      "v": 100
    },
    {
      "midi": 58,
      "hit": false,
      "t": 196500,
      "d": 750,
      "v": 100
    },
    {
      "midi": 62,
      "hit": false,
      "t": 196500,
      "d": 750,
      "v": 100
    },
    {
      "midi": 43,
      "hit": false,
      "t": 196500,
      "d": 2250,
      "v": 100
    },
    {
      "midi": 53,
      "hit": false,
      "t": 197250,
      "d": 750,
      "v": 100
    },
    {
      "midi": 53,
      "hit": false,
      "t": 198000,
      "d": 1500,
      "v": 100
    },
    {
      "midi": 58,
      "hit": false,
      "t": 198000,
      "d": 1500,
      "v": 100
    },
    {
      "midi": 62,
      "hit": false,
      "t": 198000,
      "d": 1500,
      "v": 100
    },
    {
      "midi": 41,
      "hit": false,
      "t": 198750,
      "d": 1500,
      "v": 100
    },
    {
      "midi": 60,
      "hit": false,
      "t": 199500,
      "d": 1125,
      "v": 100
    },
    {
      "midi": 64,
      "hit": false,
      "t": 199500,
      "d": 1125,
      "v": 100
    },
    {
      "midi": 53,
      "hit": false,
      "t": 200250,
      "d": 375,
      "v": 100
    },
    {
      "midi": 55,
      "hit": false,
      "t": 200625,
      "d": 750,
      "v": 100
    },
    {
      "midi": 65,
      "hit": false,
      "t": 200625,
      "d": 750,
      "v": 100
    },
    {
      "midi": 40,
      "hit": false,
      "t": 201000,
      "d": 750,
      "v": 100
    },
    {
      "midi": 60,
      "hit": false,
      "t": 201375,
      "d": 1125,
      "v": 100
    },
    {
      "midi": 67,
      "hit": false,
      "t": 201375,
      "d": 1125,
      "v": 100
    },
    {
      "midi": 55,
      "hit": false,
      "t": 201750,
      "d": 750,
      "v": 100
    },
    {
      "midi": 38,
      "hit": false,
      "t": 202500,
      "d": 375,
      "v": 100
    },
    {
      "midi": 45,
      "hit": false,
      "t": 202875,
      "d": 375,
      "v": 100
    },
    {
      "midi": 50,
      "hit": false,
      "t": 203250,
      "d": 375,
      "v": 100
    },
    {
      "midi": 55,
      "hit": false,
      "t": 203625,
      "d": 375,
      "v": 100
    },
    {
      "midi": 45,
      "hit": false,
      "t": 204000,
      "d": 375,
      "v": 100
    },
    {
      "midi": 53,
      "hit": false,
      "t": 204375,
      "d": 375,
      "v": 100
    },
    {
      "midi": 45,
      "hit": false,
      "t": 204750,
      "d": 375,
      "v": 100
    },
    {
      "midi": 52,
      "hit": false,
      "t": 205125,
      "d": 375,
      "v": 100
    },
    {
      "midi": 38,
      "hit": false,
      "t": 205500,
      "d": 375,
      "v": 100
    },
    {
      "midi": 45,
      "hit": false,
      "t": 205875,
      "d": 375,
      "v": 100
    },
    {
      "midi": 57,
      "hit": false,
      "t": 206250,
      "d": 375,
      "v": 100
    },
    {
      "midi": 45,
      "hit": false,
      "t": 206625,
      "d": 375,
      "v": 100
    },
    {
      "midi": 55,
      "hit": false,
      "t": 207000,
      "d": 375,
      "v": 100
    },
    {
      "midi": 45,
      "hit": false,
      "t": 207375,
      "d": 375,
      "v": 100
    },
    {
      "midi": 53,
      "hit": false,
      "t": 207750,
      "d": 375,
      "v": 100
    },
    {
      "midi": 45,
      "hit": false,
      "t": 208125,
      "d": 375,
      "v": 100
    },
    {
      "midi": 52,
      "hit": false,
      "t": 208500,
      "d": 375,
      "v": 100
    },
    {
      "midi": 46,
      "hit": false,
      "t": 208875,
      "d": 375,
      "v": 100
    },
    {
      "midi": 50,
      "hit": false,
      "t": 209250,
      "d": 375,
      "v": 100
    },
    {
      "midi": 55,
      "hit": false,
      "t": 209625,
      "d": 375,
      "v": 100
    },
    {
      "midi": 46,
      "hit": false,
      "t": 210000,
      "d": 375,
      "v": 100
    },
    {
      "midi": 53,
      "hit": false,
      "t": 210375,
      "d": 375,
      "v": 100
    },
    {
      "midi": 46,
      "hit": false,
      "t": 210750,
      "d": 375,
      "v": 100
    },
    {
      "midi": 52,
      "hit": false,
      "t": 211125,
      "d": 375,
      "v": 100
    },
    {
      "midi": 46,
      "hit": false,
      "t": 211500,
      "d": 375,
      "v": 100
    },
    {
      "midi": 50,
      "hit": false,
      "t": 211875,
      "d": 375,
      "v": 100
    },
    {
      "midi": 55,
      "hit": false,
      "t": 212250,
      "d": 375,
      "v": 100
    },
    {
      "midi": 46,
      "hit": false,
      "t": 212625,
      "d": 375,
      "v": 100
    },
    {
      "midi": 53,
      "hit": false,
      "t": 213000,
      "d": 375,
      "v": 100
    },
    {
      "midi": 46,
      "hit": false,
      "t": 213375,
      "d": 375,
      "v": 100
    },
    {
      "midi": 52,
      "hit": false,
      "t": 213750,
      "d": 375,
      "v": 100
    },
    {
      "midi": 46,
      "hit": false,
      "t": 214125,
      "d": 375,
      "v": 100
    },
    {
      "midi": 38,
      "hit": false,
      "t": 214500,
      "d": 375,
      "v": 100
    },
    {
      "midi": 45,
      "hit": false,
      "t": 214875,
      "d": 375,
      "v": 100
    },
    {
      "midi": 50,
      "hit": false,
      "t": 215250,
      "d": 375,
      "v": 100
    },
    {
      "midi": 55,
      "hit": false,
      "t": 215625,
      "d": 375,
      "v": 100
    },
    {
      "midi": 45,
      "hit": false,
      "t": 216000,
      "d": 375,
      "v": 100
    },
    {
      "midi": 53,
      "hit": false,
      "t": 216375,
      "d": 375,
      "v": 100
    },
    {
      "midi": 45,
      "hit": false,
      "t": 216750,
      "d": 375,
      "v": 100
    },
    {
      "midi": 52,
      "hit": false,
      "t": 217125,
      "d": 375,
      "v": 100
    },
    {
      "midi": 38,
      "hit": false,
      "t": 217500,
      "d": 375,
      "v": 100
    },
    {
      "midi": 45,
      "hit": false,
      "t": 217875,
      "d": 375,
      "v": 100
    },
    {
      "midi": 57,
      "hit": false,
      "t": 218250,
      "d": 375,
      "v": 100
    },
    {
      "midi": 45,
      "hit": false,
      "t": 218625,
      "d": 375,
      "v": 100
    },
    {
      "midi": 55,
      "hit": false,
      "t": 219000,
      "d": 375,
      "v": 100
    },
    {
      "midi": 45,
      "hit": false,
      "t": 219375,
      "d": 375,
      "v": 100
    },
    {
      "midi": 53,
      "hit": false,
      "t": 219750,
      "d": 375,
      "v": 100
    },
    {
      "midi": 45,
      "hit": false,
      "t": 220125,
      "d": 375,
      "v": 100
    },
    {
      "midi": 52,
      "hit": false,
      "t": 220500,
      "d": 375,
      "v": 100
    },
    {
      "midi": 46,
      "hit": false,
      "t": 220875,
      "d": 375,
      "v": 100
    },
    {
      "midi": 50,
      "hit": false,
      "t": 221250,
      "d": 375,
      "v": 100
    },
    {
      "midi": 55,
      "hit": false,
      "t": 221625,
      "d": 375,
      "v": 100
    },
    {
      "midi": 46,
      "hit": false,
      "t": 222000,
      "d": 375,
      "v": 100
    },
    {
      "midi": 53,
      "hit": false,
      "t": 222375,
      "d": 375,
      "v": 100
    },
    {
      "midi": 46,
      "hit": false,
      "t": 222750,
      "d": 375,
      "v": 100
    },
    {
      "midi": 52,
      "hit": false,
      "t": 223125,
      "d": 375,
      "v": 100
    },
    {
      "midi": 46,
      "hit": false,
      "t": 223500,
      "d": 375,
      "v": 100
    },
    {
      "midi": 50,
      "hit": false,
      "t": 223875,
      "d": 375,
      "v": 100
    },
    {
      "midi": 55,
      "hit": false,
      "t": 224250,
      "d": 375,
      "v": 100
    },
    {
      "midi": 46,
      "hit": false,
      "t": 224625,
      "d": 375,
      "v": 100
    },
    {
      "midi": 53,
      "hit": false,
      "t": 225000,
      "d": 375,
      "v": 100
    },
    {
      "midi": 46,
      "hit": false,
      "t": 225375,
      "d": 375,
      "v": 100
    },
    {
      "midi": 52,
      "hit": false,
      "t": 225750,
      "d": 375,
      "v": 100
    },
    {
      "midi": 46,
      "hit": false,
      "t": 226125,
      "d": 375,
      "v": 100
    },
    {
      "midi": 38,
      "hit": false,
      "t": 226500,
      "d": 375,
      "v": 100
    },
    {
      "midi": 45,
      "hit": false,
      "t": 226875,
      "d": 375,
      "v": 100
    },
    {
      "midi": 50,
      "hit": false,
      "t": 227250,
      "d": 375,
      "v": 100
    },
    {
      "midi": 55,
      "hit": false,
      "t": 227625,
      "d": 375,
      "v": 100
    },
    {
      "midi": 45,
      "hit": false,
      "t": 228000,
      "d": 375,
      "v": 100
    },
    {
      "midi": 53,
      "hit": false,
      "t": 228375,
      "d": 375,
      "v": 100
    },
    {
      "midi": 45,
      "hit": false,
      "t": 228750,
      "d": 375,
      "v": 100
    },
    {
      "midi": 52,
      "hit": false,
      "t": 229125,
      "d": 375,
      "v": 100
    },
    {
      "midi": 38,
      "hit": false,
      "t": 229500,
      "d": 375,
      "v": 100
    },
    {
      "midi": 45,
      "hit": false,
      "t": 229875,
      "d": 375,
      "v": 100
    },
    {
      "midi": 57,
      "hit": false,
      "t": 230250,
      "d": 375,
      "v": 100
    },
    {
      "midi": 45,
      "hit": false,
      "t": 230625,
      "d": 375,
      "v": 100
    },
    {
      "midi": 55,
      "hit": false,
      "t": 231000,
      "d": 375,
      "v": 100
    },
    {
      "midi": 45,
      "hit": false,
      "t": 231375,
      "d": 375,
      "v": 100
    },
    {
      "midi": 53,
      "hit": false,
      "t": 231750,
      "d": 375,
      "v": 100
    },
    {
      "midi": 45,
      "hit": false,
      "t": 232125,
      "d": 375,
      "v": 100
    },
    {
      "midi": 52,
      "hit": false,
      "t": 232500,
      "d": 375,
      "v": 100
    },
    {
      "midi": 46,
      "hit": false,
      "t": 232875,
      "d": 375,
      "v": 100
    },
    {
      "midi": 50,
      "hit": false,
      "t": 233250,
      "d": 375,
      "v": 100
    },
    {
      "midi": 55,
      "hit": false,
      "t": 233625,
      "d": 375,
      "v": 100
    },
    {
      "midi": 46,
      "hit": false,
      "t": 234000,
      "d": 375,
      "v": 100
    },
    {
      "midi": 53,
      "hit": false,
      "t": 234375,
      "d": 375,
      "v": 100
    },
    {
      "midi": 46,
      "hit": false,
      "t": 234750,
      "d": 375,
      "v": 100
    },
    {
      "midi": 52,
      "hit": false,
      "t": 235125,
      "d": 375,
      "v": 100
    },
    {
      "midi": 46,
      "hit": false,
      "t": 235500,
      "d": 375,
      "v": 100
    },
    {
      "midi": 50,
      "hit": false,
      "t": 235875,
      "d": 375,
      "v": 100
    },
    {
      "midi": 55,
      "hit": false,
      "t": 236250,
      "d": 375,
      "v": 100
    },
    {
      "midi": 46,
      "hit": false,
      "t": 236625,
      "d": 375,
      "v": 100
    },
    {
      "midi": 53,
      "hit": false,
      "t": 237000,
      "d": 375,
      "v": 100
    },
    {
      "midi": 46,
      "hit": false,
      "t": 237375,
      "d": 375,
      "v": 100
    },
    {
      "midi": 52,
      "hit": false,
      "t": 237750,
      "d": 375,
      "v": 100
    },
    {
      "midi": 46,
      "hit": false,
      "t": 238125,
      "d": 375,
      "v": 100
    },
    {
      "midi": 38,
      "hit": false,
      "t": 238500,
      "d": 375,
      "v": 100
    },
    {
      "midi": 45,
      "hit": false,
      "t": 238875,
      "d": 375,
      "v": 100
    },
    {
      "midi": 50,
      "hit": false,
      "t": 239250,
      "d": 375,
      "v": 100
    },
    {
      "midi": 55,
      "hit": false,
      "t": 239625,
      "d": 375,
      "v": 100
    },
    {
      "midi": 45,
      "hit": false,
      "t": 240000,
      "d": 375,
      "v": 100
    },
    {
      "midi": 53,
      "hit": false,
      "t": 240375,
      "d": 375,
      "v": 100
    },
    {
      "midi": 45,
      "hit": false,
      "t": 240750,
      "d": 375,
      "v": 100
    },
    {
      "midi": 52,
      "hit": false,
      "t": 241125,
      "d": 375,
      "v": 100
    },
    {
      "midi": 38,
      "hit": false,
      "t": 241500,
      "d": 375,
      "v": 100
    },
    {
      "midi": 45,
      "hit": false,
      "t": 241875,
      "d": 375,
      "v": 100
    },
    {
      "midi": 57,
      "hit": false,
      "t": 242250,
      "d": 375,
      "v": 100
    },
    {
      "midi": 45,
      "hit": false,
      "t": 242625,
      "d": 375,
      "v": 100
    },
    {
      "midi": 55,
      "hit": false,
      "t": 243000,
      "d": 375,
      "v": 100
    },
    {
      "midi": 45,
      "hit": false,
      "t": 243375,
      "d": 375,
      "v": 100
    },
    {
      "midi": 53,
      "hit": false,
      "t": 243750,
      "d": 375,
      "v": 100
    },
    {
      "midi": 45,
      "hit": false,
      "t": 244125,
      "d": 375,
      "v": 100
    },
    {
      "midi": 52,
      "hit": false,
      "t": 244500,
      "d": 375,
      "v": 100
    },
    {
      "midi": 46,
      "hit": false,
      "t": 244875,
      "d": 375,
      "v": 100
    },
    {
      "midi": 50,
      "hit": false,
      "t": 245250,
      "d": 375,
      "v": 100
    },
    {
      "midi": 55,
      "hit": false,
      "t": 245625,
      "d": 375,
      "v": 100
    },
    {
      "midi": 46,
      "hit": false,
      "t": 246000,
      "d": 375,
      "v": 100
    },
    {
      "midi": 53,
      "hit": false,
      "t": 246375,
      "d": 375,
      "v": 100
    },
    {
      "midi": 46,
      "hit": false,
      "t": 246750,
      "d": 375,
      "v": 100
    },
    {
      "midi": 52,
      "hit": false,
      "t": 247125,
      "d": 375,
      "v": 100
    },
    {
      "midi": 46,
      "hit": false,
      "t": 247500,
      "d": 375,
      "v": 100
    },
    {
      "midi": 50,
      "hit": false,
      "t": 247875,
      "d": 375,
      "v": 100
    },
    {
      "midi": 55,
      "hit": false,
      "t": 248250,
      "d": 375,
      "v": 100
    },
    {
      "midi": 46,
      "hit": false,
      "t": 248625,
      "d": 375,
      "v": 100
    },
    {
      "midi": 53,
      "hit": false,
      "t": 249000,
      "d": 375,
      "v": 100
    },
    {
      "midi": 46,
      "hit": false,
      "t": 249375,
      "d": 375,
      "v": 100
    },
    {
      "midi": 52,
      "hit": false,
      "t": 249750,
      "d": 375,
      "v": 100
    },
    {
      "midi": 46,
      "hit": false,
      "t": 250125,
      "d": 375,
      "v": 100
    },
    {
      "midi": 57,
      "hit": false,
      "t": 250500,
      "d": 750,
      "v": 100
    },
    {
      "midi": 62,
      "hit": false,
      "t": 250500,
      "d": 750,
      "v": 100
    },
    {
      "midi": 38,
      "hit": false,
      "t": 250500,
      "d": 6000,
      "v": 100
    },
    {
      "midi": 53,
      "hit": false,
      "t": 251250,
      "d": 750,
      "v": 100
    },
    {
      "midi": 57,
      "hit": false,
      "t": 252000,
      "d": 750,
      "v": 100
    },
    {
      "midi": 62,
      "hit": false,
      "t": 252000,
      "d": 750,
      "v": 100
    },
    {
      "midi": 53,
      "hit": false,
      "t": 252750,
      "d": 750,
      "v": 100
    },
    {
      "midi": 57,
      "hit": false,
      "t": 253500,
      "d": 750,
      "v": 100
    },
    {
      "midi": 62,
      "hit": false,
      "t": 253500,
      "d": 750,
      "v": 100
    },
    {
      "midi": 53,
      "hit": false,
      "t": 254250,
      "d": 750,
      "v": 100
    },
    {
      "midi": 57,
      "hit": false,
      "t": 255000,
      "d": 750,
      "v": 100
    },
    {
      "midi": 62,
      "hit": false,
      "t": 255000,
      "d": 750,
      "v": 100
    },
    {
      "midi": 53,
      "hit": false,
      "t": 255750,
      "d": 750,
      "v": 100
    },
    {
      "midi": 55,
      "hit": false,
      "t": 256500,
      "d": 750,
      "v": 100
    },
    {
      "midi": 62,
      "hit": false,
      "t": 256500,
      "d": 750,
      "v": 100
    },
    {
      "midi": 48,
      "hit": false,
      "t": 256500,
      "d": 6000,
      "v": 100
    },
    {
      "midi": 52,
      "hit": false,
      "t": 257250,
      "d": 750,
      "v": 100
    },
    {
      "midi": 55,
      "hit": false,
      "t": 258000,
      "d": 750,
      "v": 100
    },
    {
      "midi": 62,
      "hit": false,
      "t": 258000,
      "d": 750,
      "v": 100
    },
    {
      "midi": 52,
      "hit": false,
      "t": 258750,
      "d": 750,
      "v": 100
    },
    {
      "midi": 55,
      "hit": false,
      "t": 259500,
      "d": 750,
      "v": 100
    },
    {
      "midi": 60,
      "hit": false,
      "t": 259500,
      "d": 750,
      "v": 100
    },
    {
      "midi": 52,
      "hit": false,
      "t": 260250,
      "d": 750,
      "v": 100
    },
    {
      "midi": 55,
      "hit": false,
      "t": 261000,
      "d": 750,
      "v": 100
    },
    {
      "midi": 60,
      "hit": false,
      "t": 261000,
      "d": 750,
      "v": 100
    },
    {
      "midi": 52,
      "hit": false,
      "t": 261750,
      "d": 750,
      "v": 100
    },
    {
      "midi": 57,
      "hit": false,
      "t": 262500,
      "d": 750,
      "v": 100
    },
    {
      "midi": 62,
      "hit": false,
      "t": 262500,
      "d": 750,
      "v": 100
    },
    {
      "midi": 38,
      "hit": false,
      "t": 262500,
      "d": 6000,
      "v": 100
    },
    {
      "midi": 53,
      "hit": false,
      "t": 263250,
      "d": 750,
      "v": 100
    },
    {
      "midi": 57,
      "hit": false,
      "t": 264000,
      "d": 750,
      "v": 100
    },
    {
      "midi": 62,
      "hit": false,
      "t": 264000,
      "d": 750,
      "v": 100
    },
    {
      "midi": 53,
      "hit": false,
      "t": 264750,
      "d": 750,
      "v": 100
    },
    {
      "midi": 57,
      "hit": false,
      "t": 265500,
      "d": 750,
      "v": 100
    },
    {
      "midi": 62,
      "hit": false,
      "t": 265500,
      "d": 750,
      "v": 100
    },
    {
      "midi": 53,
      "hit": false,
      "t": 266250,
      "d": 750,
      "v": 100
    },
    {
      "midi": 57,
      "hit": false,
      "t": 267000,
      "d": 750,
      "v": 100
    },
    {
      "midi": 62,
      "hit": false,
      "t": 267000,
      "d": 750,
      "v": 100
    },
    {
      "midi": 53,
      "hit": false,
      "t": 267750,
      "d": 750,
      "v": 100
    },
    {
      "midi": 55,
      "hit": false,
      "t": 268500,
      "d": 750,
      "v": 100
    },
    {
      "midi": 62,
      "hit": false,
      "t": 268500,
      "d": 750,
      "v": 100
    },
    {
      "midi": 48,
      "hit": false,
      "t": 268500,
      "d": 3750,
      "v": 100
    },
    {
      "midi": 52,
      "hit": false,
      "t": 269250,
      "d": 750,
      "v": 100
    },
    {
      "midi": 55,
      "hit": false,
      "t": 270000,
      "d": 750,
      "v": 100
    },
    {
      "midi": 62,
      "hit": false,
      "t": 270000,
      "d": 750,
      "v": 100
    },
    {
      "midi": 52,
      "hit": false,
      "t": 270750,
      "d": 750,
      "v": 100
    },
    {
      "midi": 60,
      "hit": false,
      "t": 271500,
      "d": 750,
      "v": 100
    },
    {
      "midi": 64,
      "hit": false,
      "t": 271500,
      "d": 750,
      "v": 100
    },
    {
      "midi": 52,
      "hit": false,
      "t": 272250,
      "d": 750,
      "v": 100
    },
    {
      "midi": 65,
      "hit": false,
      "t": 272625,
      "d": 750,
      "v": 100
    },
    {
      "midi": 48,
      "hit": false,
      "t": 273000,
      "d": 750,
      "v": 100
    },
    {
      "midi": 67,
      "hit": false,
      "t": 273375,
      "d": 1125,
      "v": 100
    },
    {
      "midi": 55,
      "hit": false,
      "t": 273750,
      "d": 750,
      "v": 100
    },
    {
      "midi": 57,
      "hit": false,
      "t": 274500,
      "d": 750,
      "v": 100
    },
    {
      "midi": 65,
      "hit": false,
      "t": 274500,
      "d": 750,
      "v": 100
    },
    {
      "midi": 69,
      "hit": false,
      "t": 274500,
      "d": 750,
      "v": 100
    },
    {
      "midi": 46,
      "hit": false,
      "t": 274500,
      "d": 6000,
      "v": 100
    },
    {
      "midi": 57,
      "hit": false,
      "t": 275250,
      "d": 750,
      "v": 100
    },
    {
      "midi": 57,
      "hit": false,
      "t": 276000,
      "d": 750,
      "v": 100
    },
    {
      "midi": 62,
      "hit": false,
      "t": 276000,
      "d": 750,
      "v": 100
    },
    {
      "midi": 53,
      "hit": false,
      "t": 276750,
      "d": 750,
      "v": 100
    },
    {
      "midi": 57,
      "hit": false,
      "t": 277500,
      "d": 750,
      "v": 100
    },
    {
      "midi": 62,
      "hit": false,
      "t": 277500,
      "d": 750,
      "v": 100
    },
    {
      "midi": 53,
      "hit": false,
      "t": 278250,
      "d": 750,
      "v": 100
    },
    {
      "midi": 57,
      "hit": false,
      "t": 279000,
      "d": 750,
      "v": 100
    },
    {
      "midi": 62,
      "hit": false,
      "t": 279000,
      "d": 750,
      "v": 100
    },
    {
      "midi": 53,
      "hit": false,
      "t": 279750,
      "d": 750,
      "v": 100
    },
    {
      "midi": 55,
      "hit": false,
      "t": 280500,
      "d": 750,
      "v": 100
    },
    {
      "midi": 62,
      "hit": false,
      "t": 280500,
      "d": 750,
      "v": 100
    },
    {
      "midi": 48,
      "hit": false,
      "t": 280500,
      "d": 3750,
      "v": 100
    },
    {
      "midi": 52,
      "hit": false,
      "t": 281250,
      "d": 750,
      "v": 100
    },
    {
      "midi": 55,
      "hit": false,
      "t": 282000,
      "d": 750,
      "v": 100
    },
    {
      "midi": 62,
      "hit": false,
      "t": 282000,
      "d": 750,
      "v": 100
    },
    {
      "midi": 52,
      "hit": false,
      "t": 282750,
      "d": 750,
      "v": 100
    },
    {
      "midi": 60,
      "hit": false,
      "t": 283500,
      "d": 1125,
      "v": 100
    },
    {
      "midi": 64,
      "hit": false,
      "t": 283500,
      "d": 1125,
      "v": 100
    },
    {
      "midi": 52,
      "hit": false,
      "t": 284250,
      "d": 750,
      "v": 100
    },
    {
      "midi": 65,
      "hit": false,
      "t": 284625,
      "d": 750,
      "v": 100
    },
    {
      "midi": 48,
      "hit": false,
      "t": 285000,
      "d": 750,
      "v": 100
    },
    {
      "midi": 67,
      "hit": false,
      "t": 285375,
      "d": 1125,
      "v": 100
    },
    {
      "midi": 55,
      "hit": false,
      "t": 285750,
      "d": 750,
      "v": 100
    },
    {
      "midi": 57,
      "hit": false,
      "t": 286500,
      "d": 750,
      "v": 100
    },
    {
      "midi": 65,
      "hit": false,
      "t": 286500,
      "d": 750,
      "v": 100
    },
    {
      "midi": 69,
      "hit": false,
      "t": 286500,
      "d": 750,
      "v": 100
    },
    {
      "midi": 46,
      "hit": false,
      "t": 286500,
      "d": 6000,
      "v": 100
    },
    {
      "midi": 57,
      "hit": false,
      "t": 287250,
      "d": 750,
      "v": 100
    },
    {
      "midi": 57,
      "hit": false,
      "t": 288000,
      "d": 750,
      "v": 100
    },
    {
      "midi": 62,
      "hit": false,
      "t": 288000,
      "d": 750,
      "v": 100
    },
    {
      "midi": 53,
      "hit": false,
      "t": 288750,
      "d": 750,
      "v": 100
    },
    {
      "midi": 57,
      "hit": false,
      "t": 289500,
      "d": 750,
      "v": 100
    },
    {
      "midi": 62,
      "hit": false,
      "t": 289500,
      "d": 750,
      "v": 100
    },
    {
      "midi": 53,
      "hit": false,
      "t": 290250,
      "d": 750,
      "v": 100
    },
    {
      "midi": 57,
      "hit": false,
      "t": 291000,
      "d": 750,
      "v": 100
    },
    {
      "midi": 62,
      "hit": false,
      "t": 291000,
      "d": 750,
      "v": 100
    },
    {
      "midi": 53,
      "hit": false,
      "t": 291750,
      "d": 750,
      "v": 100
    },
    {
      "midi": 58,
      "hit": false,
      "t": 292500,
      "d": 750,
      "v": 100
    },
    {
      "midi": 62,
      "hit": false,
      "t": 292500,
      "d": 750,
      "v": 100
    },
    {
      "midi": 43,
      "hit": false,
      "t": 292500,
      "d": 2250,
      "v": 100
    },
    {
      "midi": 53,
      "hit": false,
      "t": 293250,
      "d": 750,
      "v": 100
    },
    {
      "midi": 53,
      "hit": false,
      "t": 294000,
      "d": 1500,
      "v": 100
    },
    {
      "midi": 58,
      "hit": false,
      "t": 294000,
      "d": 1500,
      "v": 100
    },
    {
      "midi": 62,
      "hit": false,
      "t": 294000,
      "d": 1500,
      "v": 100
    },
    {
      "midi": 41,
      "hit": false,
      "t": 294750,
      "d": 1500,
      "v": 100
    },
    {
      "midi": 60,
      "hit": false,
      "t": 295500,
      "d": 1125,
      "v": 100
    },
    {
      "midi": 64,
      "hit": false,
      "t": 295500,
      "d": 1125,
      "v": 100
    },
    {
      "midi": 53,
      "hit": false,
      "t": 296250,
      "d": 375,
      "v": 100
    },
    {
      "midi": 55,
      "hit": false,
      "t": 296625,
      "d": 750,
      "v": 100
    },
    {
      "midi": 65,
      "hit": false,
      "t": 296625,
      "d": 750,
      "v": 100
    },
    {
      "midi": 40,
      "hit": false,
      "t": 297000,
      "d": 750,
      "v": 100
    },
    {
      "midi": 60,
      "hit": false,
      "t": 297375,
      "d": 1125,
      "v": 100
    },
    {
      "midi": 67,
      "hit": false,
      "t": 297375,
      "d": 1125,
      "v": 100
    },
    {
      "midi": 55,
      "hit": false,
      "t": 297750,
      "d": 750,
      "v": 100
    },
    {
      "midi": 69,
      "hit": false,
      "t": 298500,
      "d": 750,
      "v": 100
    },
    {
      "midi": 50,
      "hit": false,
      "t": 298500,
      "d": 1125,
      "v": 100
    },
    {
      "midi": 67,
      "hit": false,
      "t": 299250,
      "d": 375,
      "v": 100
    },
    {
      "midi": 57,
      "hit": false,
      "t": 299625,
      "d": 1125,
      "v": 100
    },
    {
      "midi": 69,
      "hit": false,
      "t": 299625,
      "d": 3000,
      "v": 100
    },
    {
      "midi": 69,
      "hit": false,
      "t": 302625,
      "d": 375,
      "v": 100
    },
    {
      "midi": 67,
      "hit": false,
      "t": 303000,
      "d": 375,
      "v": 100
    },
    {
      "midi": 65,
      "hit": false,
      "t": 303375,
      "d": 375,
      "v": 100
    },
    {
      "midi": 64,
      "hit": false,
      "t": 303750,
      "d": 375,
      "v": 100
    },
    {
      "midi": 62,
      "hit": false,
      "t": 304125,
      "d": 375,
      "v": 100
    },
    {
      "midi": 65,
      "hit": false,
      "t": 304500,
      "d": 375,
      "v": 100
    },
    {
      "midi": 48,
      "hit": false,
      "t": 304500,
      "d": 1125,
      "v": 100
    },
    {
      "midi": 67,
      "hit": false,
      "t": 304875,
      "d": 375,
      "v": 100
    },
    {
      "midi": 64,
      "hit": false,
      "t": 305250,
      "d": 375,
      "v": 100
    },
    {
      "midi": 55,
      "hit": false,
      "t": 305625,
      "d": 1125,
      "v": 100
    },
    {
      "midi": 65,
      "hit": false,
      "t": 305625,
      "d": 1125,
      "v": 100
    },
    {
      "midi": 67,
      "hit": false,
      "t": 306750,
      "d": 1875,
      "v": 100
    },
    {
      "midi": 60,
      "hit": false,
      "t": 308625,
      "d": 375,
      "v": 100
    },
    {
      "midi": 62,
      "hit": false,
      "t": 309000,
      "d": 375,
      "v": 100
    },
    {
      "midi": 64,
      "hit": false,
      "t": 309375,
      "d": 375,
      "v": 100
    },
    {
      "midi": 65,
      "hit": false,
      "t": 309750,
      "d": 375,
      "v": 100
    },
    {
      "midi": 67,
      "hit": false,
      "t": 310125,
      "d": 375,
      "v": 100
    },
    {
      "midi": 67,
      "hit": false,
      "t": 310500,
      "d": 375,
      "v": 100
    },
    {
      "midi": 50,
      "hit": false,
      "t": 310500,
      "d": 1125,
      "v": 100
    },
    {
      "midi": 69,
      "hit": false,
      "t": 310875,
      "d": 375,
      "v": 100
    },
    {
      "midi": 67,
      "hit": false,
      "t": 311250,
      "d": 375,
      "v": 100
    },
    {
      "midi": 57,
      "hit": false,
      "t": 311625,
      "d": 1125,
      "v": 100
    },
    {
      "midi": 69,
      "hit": false,
      "t": 311625,
      "d": 3000,
      "v": 100
    },
    {
      "midi": 69,
      "hit": false,
      "t": 314625,
      "d": 375,
      "v": 100
    },
    {
      "midi": 67,
      "hit": false,
      "t": 315000,
      "d": 375,
      "v": 100
    },
    {
      "midi": 65,
      "hit": false,
      "t": 315375,
      "d": 375,
      "v": 100
    },
    {
      "midi": 64,
      "hit": false,
      "t": 315750,
      "d": 375,
      "v": 100
    },
    {
      "midi": 62,
      "hit": false,
      "t": 316125,
      "d": 375,
      "v": 100
    },
    {
      "midi": 65,
      "hit": false,
      "t": 316500,
      "d": 375,
      "v": 100
    },
    {
      "midi": 48,
      "hit": false,
      "t": 316500,
      "d": 1125,
      "v": 100
    },
    {
      "midi": 67,
      "hit": false,
      "t": 316875,
      "d": 375,
      "v": 100
    },
    {
      "midi": 64,
      "hit": false,
      "t": 317250,
      "d": 375,
      "v": 100
    },
    {
      "midi": 65,
      "hit": false,
      "t": 317625,
      "d": 375,
      "v": 100
    },
    {
      "midi": 55,
      "hit": false,
      "t": 317625,
      "d": 1125,
      "v": 100
    },
    {
      "midi": 64,
      "hit": false,
      "t": 318000,
      "d": 750,
      "v": 100
    },
    {
      "midi": 60,
      "hit": false,
      "t": 318750,
      "d": 1875,
      "v": 100
    },
    {
      "midi": 60,
      "hit": false,
      "t": 320625,
      "d": 375,
      "v": 100
    },
    {
      "midi": 62,
      "hit": false,
      "t": 321000,
      "d": 375,
      "v": 100
    },
    {
      "midi": 64,
      "hit": false,
      "t": 321375,
      "d": 375,
      "v": 100
    },
    {
      "midi": 65,
      "hit": false,
      "t": 321750,
      "d": 375,
      "v": 100
    },
    {
      "midi": 67,
      "hit": false,
      "t": 322125,
      "d": 375,
      "v": 100
    },
    {
      "midi": 67,
      "hit": false,
      "t": 322500,
      "d": 375,
      "v": 100
    },
    {
      "midi": 46,
      "hit": false,
      "t": 322500,
      "d": 1125,
      "v": 100
    },
    {
      "midi": 69,
      "hit": false,
      "t": 322875,
      "d": 375,
      "v": 100
    },
    {
      "midi": 67,
      "hit": false,
      "t": 323250,
      "d": 375,
      "v": 100
    },
    {
      "midi": 53,
      "hit": false,
      "t": 323625,
      "d": 1125,
      "v": 100
    },
    {
      "midi": 69,
      "hit": false,
      "t": 323625,
      "d": 3000,
      "v": 100
    },
    {
      "midi": 60,
      "hit": false,
      "t": 324750,
      "d": 750,
      "v": 100
    },
    {
      "midi": 62,
      "hit": false,
      "t": 325500,
      "d": 3000,
      "v": 100
    },
    {
      "midi": 72,
      "hit": false,
      "t": 326625,
      "d": 375,
      "v": 100
    },
    {
      "midi": 70,
      "hit": false,
      "t": 327000,
      "d": 375,
      "v": 100
    },
    {
      "midi": 69,
      "hit": false,
      "t": 327375,
      "d": 375,
      "v": 100
    },
    {
      "midi": 67,
      "hit": false,
      "t": 327750,
      "d": 375,
      "v": 100
    },
    {
      "midi": 65,
      "hit": false,
      "t": 328125,
      "d": 375,
      "v": 100
    },
    {
      "midi": 67,
      "hit": false,
      "t": 328500,
      "d": 375,
      "v": 100
    },
    {
      "midi": 48,
      "hit": false,
      "t": 328500,
      "d": 1125,
      "v": 100
    },
    {
      "midi": 69,
      "hit": false,
      "t": 328875,
      "d": 375,
      "v": 100
    },
    {
      "midi": 65,
      "hit": false,
      "t": 329250,
      "d": 375,
      "v": 100
    },
    {
      "midi": 55,
      "hit": false,
      "t": 329625,
      "d": 1125,
      "v": 100
    },
    {
      "midi": 67,
      "hit": false,
      "t": 329625,
      "d": 3000,
      "v": 100
    },
    {
      "midi": 62,
      "hit": false,
      "t": 330750,
      "d": 750,
      "v": 100
    },
    {
      "midi": 60,
      "hit": false,
      "t": 332625,
      "d": 375,
      "v": 100
    },
    {
      "midi": 62,
      "hit": false,
      "t": 333000,
      "d": 375,
      "v": 100
    },
    {
      "midi": 64,
      "hit": false,
      "t": 333375,
      "d": 375,
      "v": 100
    },
    {
      "midi": 65,
      "hit": false,
      "t": 333750,
      "d": 375,
      "v": 100
    },
    {
      "midi": 67,
      "hit": false,
      "t": 334125,
      "d": 375,
      "v": 100
    },
    {
      "midi": 62,
      "hit": false,
      "t": 334500,
      "d": 375,
      "v": 100
    },
    {
      "midi": 67,
      "hit": false,
      "t": 334500,
      "d": 375,
      "v": 100
    },
    {
      "midi": 46,
      "hit": false,
      "t": 334500,
      "d": 1125,
      "v": 100
    },
    {
      "midi": 65,
      "hit": false,
      "t": 334875,
      "d": 375,
      "v": 100
    },
    {
      "midi": 69,
      "hit": false,
      "t": 334875,
      "d": 375,
      "v": 100
    },
    {
      "midi": 64,
      "hit": false,
      "t": 335250,
      "d": 375,
      "v": 100
    },
    {
      "midi": 67,
      "hit": false,
      "t": 335250,
      "d": 375,
      "v": 100
    },
    {
      "midi": 53,
      "hit": false,
      "t": 335625,
      "d": 1125,
      "v": 100
    },
    {
      "midi": 65,
      "hit": false,
      "t": 335625,
      "d": 3000,
      "v": 100
    },
    {
      "midi": 69,
      "hit": false,
      "t": 335625,
      "d": 3000,
      "v": 100
    },
    {
      "midi": 60,
      "hit": false,
      "t": 336750,
      "d": 750,
      "v": 100
    },
    {
      "midi": 62,
      "hit": false,
      "t": 337500,
      "d": 3000,
      "v": 100
    },
    {
      "midi": 72,
      "hit": false,
      "t": 338625,
      "d": 375,
      "v": 100
    },
    {
      "midi": 70,
      "hit": false,
      "t": 339000,
      "d": 375,
      "v": 100
    },
    {
      "midi": 69,
      "hit": false,
      "t": 339375,
      "d": 375,
      "v": 100
    },
    {
      "midi": 67,
      "hit": false,
      "t": 339750,
      "d": 375,
      "v": 100
    },
    {
      "midi": 65,
      "hit": false,
      "t": 340125,
      "d": 375,
      "v": 100
    },
    {
      "midi": 67,
      "hit": false,
      "t": 340500,
      "d": 375,
      "v": 100
    },
    {
      "midi": 48,
      "hit": false,
      "t": 340500,
      "d": 4500,
      "v": 100
    },
    {
      "midi": 69,
      "hit": false,
      "t": 340875,
      "d": 375,
      "v": 100
    },
    {
      "midi": 64,
      "hit": false,
      "t": 341250,
      "d": 375,
      "v": 100
    },
    {
      "midi": 62,
      "hit": false,
      "t": 341625,
      "d": 375,
      "v": 100
    },
    {
      "midi": 65,
      "hit": false,
      "t": 341625,
      "d": 375,
      "v": 100
    },
    {
      "midi": 60,
      "hit": false,
      "t": 342000,
      "d": 750,
      "v": 100
    },
    {
      "midi": 64,
      "hit": false,
      "t": 342000,
      "d": 750,
      "v": 100
    },
    {
      "midi": 58,
      "hit": false,
      "t": 342750,
      "d": 375,
      "v": 100
    },
    {
      "midi": 57,
      "hit": false,
      "t": 343125,
      "d": 375,
      "v": 100
    },
    {
      "midi": 55,
      "hit": false,
      "t": 343500,
      "d": 375,
      "v": 100
    },
    {
      "midi": 70,
      "hit": false,
      "t": 343875,
      "d": 375,
      "v": 100
    },
    {
      "midi": 74,
      "hit": false,
      "t": 343875,
      "d": 375,
      "v": 100
    },
    {
      "midi": 69,
      "hit": false,
      "t": 344250,
      "d": 375,
      "v": 100
    },
    {
      "midi": 67,
      "hit": false,
      "t": 344625,
      "d": 375,
      "v": 100
    },
    {
      "midi": 65,
      "hit": false,
      "t": 345000,
      "d": 375,
      "v": 100
    },
    {
      "midi": 72,
      "hit": false,
      "t": 345000,
      "d": 375,
      "v": 100
    },
    {
      "midi": 60,
      "hit": false,
      "t": 345000,
      "d": 750,
      "v": 100
    },
    {
      "midi": 64,
      "hit": false,
      "t": 345375,
      "d": 375,
      "v": 100
    },
    {
      "midi": 60,
      "hit": false,
      "t": 345750,
      "d": 375,
      "v": 100
    },
    {
      "midi": 48,
      "hit": false,
      "t": 345750,
      "d": 750,
      "v": 100
    },
    {
      "midi": 64,
      "hit": false,
      "t": 346125,
      "d": 375,
      "v": 100
    },
    {
      "midi": 65,
      "hit": false,
      "t": 346500,
      "d": 375,
      "v": 100
    },
    {
      "midi": 69,
      "hit": false,
      "t": 346500,
      "d": 375,
      "v": 100
    },
    {
      "midi": 74,
      "hit": false,
      "t": 346500,
      "d": 375,
      "v": 100
    },
    {
      "midi": 67,
      "hit": false,
      "t": 346875,
      "d": 375,
      "v": 100
    },
    {
      "midi": 65,
      "hit": false,
      "t": 347250,
      "d": 375,
      "v": 100
    },
    {
      "midi": 57,
      "hit": false,
      "t": 347625,
      "d": 375,
      "v": 100
    },
    {
      "midi": 64,
      "hit": false,
      "t": 347625,
      "d": 375,
      "v": 100
    },
    {
      "midi": 65,
      "hit": false,
      "t": 347625,
      "d": 375,
      "v": 100
    },
    {
      "midi": 50,
      "hit": false,
      "t": 348000,
      "d": 375,
      "v": 100
    },
    {
      "midi": 57,
      "hit": false,
      "t": 348375,
      "d": 375,
      "v": 100
    },
    {
      "midi": 62,
      "hit": false,
      "t": 348375,
      "d": 375,
      "v": 100
    },
    {
      "midi": 65,
      "hit": false,
      "t": 348375,
      "d": 375,
      "v": 100
    },
    {
      "midi": 50,
      "hit": false,
      "t": 348750,
      "d": 375,
      "v": 100
    },
    {
      "midi": 65,
      "hit": false,
      "t": 349125,
      "d": 375,
      "v": 100
    },
    {
      "midi": 69,
      "hit": false,
      "t": 349125,
      "d": 375,
      "v": 100
    },
    {
      "midi": 74,
      "hit": false,
      "t": 349125,
      "d": 375,
      "v": 100
    },
    {
      "midi": 50,
      "hit": false,
      "t": 349500,
      "d": 375,
      "v": 100
    },
    {
      "midi": 67,
      "hit": false,
      "t": 349875,
      "d": 375,
      "v": 100
    },
    {
      "midi": 65,
      "hit": false,
      "t": 350250,
      "d": 375,
      "v": 100
    },
    {
      "midi": 57,
      "hit": false,
      "t": 350625,
      "d": 375,
      "v": 100
    },
    {
      "midi": 64,
      "hit": false,
      "t": 350625,
      "d": 375,
      "v": 100
    },
    {
      "midi": 65,
      "hit": false,
      "t": 350625,
      "d": 375,
      "v": 100
    },
    {
      "midi": 50,
      "hit": false,
      "t": 351000,
      "d": 375,
      "v": 100
    },
    {
      "midi": 57,
      "hit": false,
      "t": 351375,
      "d": 375,
      "v": 100
    },
    {
      "midi": 62,
      "hit": false,
      "t": 351375,
      "d": 375,
      "v": 100
    },
    {
      "midi": 65,
      "hit": false,
      "t": 351375,
      "d": 375,
      "v": 100
    },
    {
      "midi": 50,
      "hit": false,
      "t": 351750,
      "d": 375,
      "v": 100
    },
    {
      "midi": 65,
      "hit": false,
      "t": 352125,
      "d": 375,
      "v": 100
    },
    {
      "midi": 65,
      "hit": false,
      "t": 352500,
      "d": 375,
      "v": 100
    },
    {
      "midi": 70,
      "hit": false,
      "t": 352500,
      "d": 375,
      "v": 100
    },
    {
      "midi": 74,
      "hit": false,
      "t": 352500,
      "d": 375,
      "v": 100
    },
    {
      "midi": 69,
      "hit": false,
      "t": 352875,
      "d": 375,
      "v": 100
    },
    {
      "midi": 67,
      "hit": false,
      "t": 353250,
      "d": 375,
      "v": 100
    },
    {
      "midi": 55,
      "hit": false,
      "t": 353625,
      "d": 375,
      "v": 100
    },
    {
      "midi": 62,
      "hit": false,
      "t": 353625,
      "d": 375,
      "v": 100
    },
    {
      "midi": 65,
      "hit": false,
      "t": 353625,
      "d": 375,
      "v": 100
    },
    {
      "midi": 50,
      "hit": false,
      "t": 354000,
      "d": 375,
      "v": 100
    },
    {
      "midi": 64,
      "hit": false,
      "t": 354375,
      "d": 375,
      "v": 100
    },
    {
      "midi": 50,
      "hit": false,
      "t": 354750,
      "d": 375,
      "v": 100
    },
    {
      "midi": 58,
      "hit": false,
      "t": 355125,
      "d": 375,
      "v": 100
    },
    {
      "midi": 62,
      "hit": false,
      "t": 355125,
      "d": 375,
      "v": 100
    },
    {
      "midi": 67,
      "hit": false,
      "t": 355125,
      "d": 375,
      "v": 100
    },
    {
      "midi": 43,
      "hit": false,
      "t": 355500,
      "d": 375,
      "v": 100
    },
    {
      "midi": 58,
      "hit": false,
      "t": 355875,
      "d": 375,
      "v": 100
    },
    {
      "midi": 65,
      "hit": false,
      "t": 355875,
      "d": 375,
      "v": 100
    },
    {
      "midi": 58,
      "hit": false,
      "t": 356250,
      "d": 375,
      "v": 100
    },
    {
      "midi": 64,
      "hit": false,
      "t": 356250,
      "d": 375,
      "v": 100
    },
    {
      "midi": 58,
      "hit": false,
      "t": 356625,
      "d": 375,
      "v": 100
    },
    {
      "midi": 62,
      "hit": false,
      "t": 356625,
      "d": 375,
      "v": 100
    },
    {
      "midi": 55,
      "hit": false,
      "t": 357000,
      "d": 375,
      "v": 100
    },
    {
      "midi": 43,
      "hit": false,
      "t": 357375,
      "d": 375,
      "v": 100
    },
    {
      "midi": 60,
      "hit": false,
      "t": 357750,
      "d": 375,
      "v": 100
    },
    {
      "midi": 62,
      "hit": false,
      "t": 358125,
      "d": 375,
      "v": 100
    },
    {
      "midi": 65,
      "hit": false,
      "t": 358500,
      "d": 375,
      "v": 100
    },
    {
      "midi": 69,
      "hit": false,
      "t": 358500,
      "d": 375,
      "v": 100
    },
    {
      "midi": 74,
      "hit": false,
      "t": 358500,
      "d": 375,
      "v": 100
    },
    {
      "midi": 67,
      "hit": false,
      "t": 358875,
      "d": 375,
      "v": 100
    },
    {
      "midi": 65,
      "hit": false,
      "t": 359250,
      "d": 375,
      "v": 100
    },
    {
      "midi": 57,
      "hit": false,
      "t": 359625,
      "d": 375,
      "v": 100
    },
    {
      "midi": 64,
      "hit": false,
      "t": 359625,
      "d": 375,
      "v": 100
    },
    {
      "midi": 65,
      "hit": false,
      "t": 359625,
      "d": 375,
      "v": 100
    },
    {
      "midi": 50,
      "hit": false,
      "t": 360000,
      "d": 375,
      "v": 100
    },
    {
      "midi": 57,
      "hit": false,
      "t": 360375,
      "d": 375,
      "v": 100
    },
    {
      "midi": 62,
      "hit": false,
      "t": 360375,
      "d": 375,
      "v": 100
    },
    {
      "midi": 65,
      "hit": false,
      "t": 360375,
      "d": 375,
      "v": 100
    },
    {
      "midi": 50,
      "hit": false,
      "t": 360750,
      "d": 375,
      "v": 100
    },
    {
      "midi": 65,
      "hit": false,
      "t": 361125,
      "d": 375,
      "v": 100
    },
    {
      "midi": 69,
      "hit": false,
      "t": 361125,
      "d": 375,
      "v": 100
    },
    {
      "midi": 74,
      "hit": false,
      "t": 361125,
      "d": 375,
      "v": 100
    },
    {
      "midi": 50,
      "hit": false,
      "t": 361500,
      "d": 375,
      "v": 100
    },
    {
      "midi": 67,
      "hit": false,
      "t": 361875,
      "d": 375,
      "v": 100
    },
    {
      "midi": 65,
      "hit": false,
      "t": 362250,
      "d": 375,
      "v": 100
    },
    {
      "midi": 57,
      "hit": false,
      "t": 362625,
      "d": 375,
      "v": 100
    },
    {
      "midi": 64,
      "hit": false,
      "t": 362625,
      "d": 375,
      "v": 100
    },
    {
      "midi": 65,
      "hit": false,
      "t": 362625,
      "d": 375,
      "v": 100
    },
    {
      "midi": 50,
      "hit": false,
      "t": 363000,
      "d": 375,
      "v": 100
    },
    {
      "midi": 57,
      "hit": false,
      "t": 363375,
      "d": 375,
      "v": 100
    },
    {
      "midi": 62,
      "hit": false,
      "t": 363375,
      "d": 375,
      "v": 100
    },
    {
      "midi": 65,
      "hit": false,
      "t": 363375,
      "d": 375,
      "v": 100
    },
    {
      "midi": 50,
      "hit": false,
      "t": 363750,
      "d": 375,
      "v": 100
    },
    {
      "midi": 65,
      "hit": false,
      "t": 364125,
      "d": 375,
      "v": 100
    },
    {
      "midi": 65,
      "hit": false,
      "t": 364500,
      "d": 375,
      "v": 100
    },
    {
      "midi": 70,
      "hit": false,
      "t": 364500,
      "d": 375,
      "v": 100
    },
    {
      "midi": 74,
      "hit": false,
      "t": 364500,
      "d": 375,
      "v": 100
    },
    {
      "midi": 69,
      "hit": false,
      "t": 364875,
      "d": 375,
      "v": 100
    },
    {
      "midi": 67,
      "hit": false,
      "t": 365250,
      "d": 375,
      "v": 100
    },
    {
      "midi": 55,
      "hit": false,
      "t": 365625,
      "d": 375,
      "v": 100
    },
    {
      "midi": 62,
      "hit": false,
      "t": 365625,
      "d": 375,
      "v": 100
    },
    {
      "midi": 65,
      "hit": false,
      "t": 365625,
      "d": 375,
      "v": 100
    },
    {
      "midi": 50,
      "hit": false,
      "t": 366000,
      "d": 375,
      "v": 100
    },
    {
      "midi": 64,
      "hit": false,
      "t": 366375,
      "d": 375,
      "v": 100
    },
    {
      "midi": 50,
      "hit": false,
      "t": 366750,
      "d": 375,
      "v": 100
    },
    {
      "midi": 58,
      "hit": false,
      "t": 367125,
      "d": 375,
      "v": 100
    },
    {
      "midi": 62,
      "hit": false,
      "t": 367125,
      "d": 375,
      "v": 100
    },
    {
      "midi": 67,
      "hit": false,
      "t": 367125,
      "d": 375,
      "v": 100
    },
    {
      "midi": 43,
      "hit": false,
      "t": 367500,
      "d": 375,
      "v": 100
    },
    {
      "midi": 58,
      "hit": false,
      "t": 367875,
      "d": 375,
      "v": 100
    },
    {
      "midi": 65,
      "hit": false,
      "t": 367875,
      "d": 375,
      "v": 100
    },
    {
      "midi": 58,
      "hit": false,
      "t": 368250,
      "d": 375,
      "v": 100
    },
    {
      "midi": 64,
      "hit": false,
      "t": 368250,
      "d": 375,
      "v": 100
    },
    {
      "midi": 58,
      "hit": false,
      "t": 368625,
      "d": 375,
      "v": 100
    },
    {
      "midi": 62,
      "hit": false,
      "t": 368625,
      "d": 375,
      "v": 100
    },
    {
      "midi": 55,
      "hit": false,
      "t": 369000,
      "d": 375,
      "v": 100
    },
    {
      "midi": 43,
      "hit": false,
      "t": 369375,
      "d": 375,
      "v": 100
    },
    {
      "midi": 60,
      "hit": false,
      "t": 369750,
      "d": 375,
      "v": 100
    },
    {
      "midi": 62,
      "hit": false,
      "t": 370125,
      "d": 375,
      "v": 100
    },
    {
      "midi": 65,
      "hit": false,
      "t": 370500,
      "d": 375,
      "v": 100
    },
    {
      "midi": 69,
      "hit": false,
      "t": 370500,
      "d": 375,
      "v": 100
    },
    {
      "midi": 74,
      "hit": false,
      "t": 370500,
      "d": 375,
      "v": 100
    },
    {
      "midi": 67,
      "hit": false,
      "t": 370875,
      "d": 375,
      "v": 100
    },
    {
      "midi": 65,
      "hit": false,
      "t": 371250,
      "d": 375,
      "v": 100
    },
    {
      "midi": 57,
      "hit": false,
      "t": 371625,
      "d": 375,
      "v": 100
    },
    {
      "midi": 64,
      "hit": false,
      "t": 371625,
      "d": 375,
      "v": 100
    },
    {
      "midi": 65,
      "hit": false,
      "t": 371625,
      "d": 375,
      "v": 100
    },
    {
      "midi": 50,
      "hit": false,
      "t": 372000,
      "d": 375,
      "v": 100
    },
    {
      "midi": 57,
      "hit": false,
      "t": 372375,
      "d": 375,
      "v": 100
    },
    {
      "midi": 62,
      "hit": false,
      "t": 372375,
      "d": 375,
      "v": 100
    },
    {
      "midi": 65,
      "hit": false,
      "t": 372375,
      "d": 375,
      "v": 100
    },
    {
      "midi": 50,
      "hit": false,
      "t": 372750,
      "d": 375,
      "v": 100
    },
    {
      "midi": 65,
      "hit": false,
      "t": 373125,
      "d": 375,
      "v": 100
    },
    {
      "midi": 69,
      "hit": false,
      "t": 373125,
      "d": 375,
      "v": 100
    },
    {
      "midi": 74,
      "hit": false,
      "t": 373125,
      "d": 375,
      "v": 100
    },
    {
      "midi": 50,
      "hit": false,
      "t": 373500,
      "d": 375,
      "v": 100
    },
    {
      "midi": 67,
      "hit": false,
      "t": 373875,
      "d": 375,
      "v": 100
    },
    {
      "midi": 65,
      "hit": false,
      "t": 374250,
      "d": 375,
      "v": 100
    },
    {
      "midi": 57,
      "hit": false,
      "t": 374625,
      "d": 375,
      "v": 100
    },
    {
      "midi": 64,
      "hit": false,
      "t": 374625,
      "d": 375,
      "v": 100
    },
    {
      "midi": 65,
      "hit": false,
      "t": 374625,
      "d": 375,
      "v": 100
    },
    {
      "midi": 50,
      "hit": false,
      "t": 375000,
      "d": 375,
      "v": 100
    },
    {
      "midi": 57,
      "hit": false,
      "t": 375375,
      "d": 375,
      "v": 100
    },
    {
      "midi": 62,
      "hit": false,
      "t": 375375,
      "d": 375,
      "v": 100
    },
    {
      "midi": 65,
      "hit": false,
      "t": 375375,
      "d": 375,
      "v": 100
    },
    {
      "midi": 50,
      "hit": false,
      "t": 375750,
      "d": 375,
      "v": 100
    },
    {
      "midi": 65,
      "hit": false,
      "t": 376125,
      "d": 375,
      "v": 100
    },
    {
      "midi": 65,
      "hit": false,
      "t": 376500,
      "d": 375,
      "v": 100
    },
    {
      "midi": 70,
      "hit": false,
      "t": 376500,
      "d": 375,
      "v": 100
    },
    {
      "midi": 74,
      "hit": false,
      "t": 376500,
      "d": 375,
      "v": 100
    },
    {
      "midi": 69,
      "hit": false,
      "t": 376875,
      "d": 375,
      "v": 100
    },
    {
      "midi": 67,
      "hit": false,
      "t": 377250,
      "d": 375,
      "v": 100
    },
    {
      "midi": 55,
      "hit": false,
      "t": 377625,
      "d": 375,
      "v": 100
    },
    {
      "midi": 62,
      "hit": false,
      "t": 377625,
      "d": 375,
      "v": 100
    },
    {
      "midi": 65,
      "hit": false,
      "t": 377625,
      "d": 375,
      "v": 100
    },
    {
      "midi": 50,
      "hit": false,
      "t": 378000,
      "d": 375,
      "v": 100
    },
    {
      "midi": 64,
      "hit": false,
      "t": 378375,
      "d": 375,
      "v": 100
    },
    {
      "midi": 50,
      "hit": false,
      "t": 378750,
      "d": 375,
      "v": 100
    },
    {
      "midi": 58,
      "hit": false,
      "t": 379125,
      "d": 375,
      "v": 100
    },
    {
      "midi": 62,
      "hit": false,
      "t": 379125,
      "d": 375,
      "v": 100
    },
    {
      "midi": 67,
      "hit": false,
      "t": 379125,
      "d": 375,
      "v": 100
    },
    {
      "midi": 43,
      "hit": false,
      "t": 379500,
      "d": 375,
      "v": 100
    },
    {
      "midi": 58,
      "hit": false,
      "t": 379875,
      "d": 375,
      "v": 100
    },
    {
      "midi": 65,
      "hit": false,
      "t": 379875,
      "d": 375,
      "v": 100
    },
    {
      "midi": 58,
      "hit": false,
      "t": 380250,
      "d": 375,
      "v": 100
    },
    {
      "midi": 64,
      "hit": false,
      "t": 380250,
      "d": 375,
      "v": 100
    },
    {
      "midi": 58,
      "hit": false,
      "t": 380625,
      "d": 375,
      "v": 100
    },
    {
      "midi": 62,
      "hit": false,
      "t": 380625,
      "d": 375,
      "v": 100
    },
    {
      "midi": 55,
      "hit": false,
      "t": 381000,
      "d": 375,
      "v": 100
    },
    {
      "midi": 43,
      "hit": false,
      "t": 381375,
      "d": 375,
      "v": 100
    },
    {
      "midi": 60,
      "hit": false,
      "t": 381750,
      "d": 375,
      "v": 100
    },
    {
      "midi": 62,
      "hit": false,
      "t": 382125,
      "d": 375,
      "v": 100
    },
    {
      "midi": 65,
      "hit": false,
      "t": 382500,
      "d": 375,
      "v": 100
    },
    {
      "midi": 69,
      "hit": false,
      "t": 382500,
      "d": 375,
      "v": 100
    },
    {
      "midi": 74,
      "hit": false,
      "t": 382500,
      "d": 375,
      "v": 100
    },
    {
      "midi": 67,
      "hit": false,
      "t": 382875,
      "d": 375,
      "v": 100
    },
    {
      "midi": 65,
      "hit": false,
      "t": 383250,
      "d": 375,
      "v": 100
    },
    {
      "midi": 57,
      "hit": false,
      "t": 383625,
      "d": 375,
      "v": 100
    },
    {
      "midi": 64,
      "hit": false,
      "t": 383625,
      "d": 375,
      "v": 100
    },
    {
      "midi": 65,
      "hit": false,
      "t": 383625,
      "d": 375,
      "v": 100
    },
    {
      "midi": 50,
      "hit": false,
      "t": 384000,
      "d": 375,
      "v": 100
    },
    {
      "midi": 57,
      "hit": false,
      "t": 384375,
      "d": 375,
      "v": 100
    },
    {
      "midi": 62,
      "hit": false,
      "t": 384375,
      "d": 375,
      "v": 100
    },
    {
      "midi": 65,
      "hit": false,
      "t": 384375,
      "d": 375,
      "v": 100
    },
    {
      "midi": 50,
      "hit": false,
      "t": 384750,
      "d": 375,
      "v": 100
    },
    {
      "midi": 65,
      "hit": false,
      "t": 385125,
      "d": 375,
      "v": 100
    },
    {
      "midi": 69,
      "hit": false,
      "t": 385125,
      "d": 375,
      "v": 100
    },
    {
      "midi": 74,
      "hit": false,
      "t": 385125,
      "d": 375,
      "v": 100
    },
    {
      "midi": 50,
      "hit": false,
      "t": 385500,
      "d": 375,
      "v": 100
    },
    {
      "midi": 67,
      "hit": false,
      "t": 385875,
      "d": 375,
      "v": 100
    },
    {
      "midi": 65,
      "hit": false,
      "t": 386250,
      "d": 375,
      "v": 100
    },
    {
      "midi": 57,
      "hit": false,
      "t": 386625,
      "d": 375,
      "v": 100
    },
    {
      "midi": 64,
      "hit": false,
      "t": 386625,
      "d": 375,
      "v": 100
    },
    {
      "midi": 65,
      "hit": false,
      "t": 386625,
      "d": 375,
      "v": 100
    },
    {
      "midi": 50,
      "hit": false,
      "t": 387000,
      "d": 375,
      "v": 100
    },
    {
      "midi": 57,
      "hit": false,
      "t": 387375,
      "d": 375,
      "v": 100
    },
    {
      "midi": 62,
      "hit": false,
      "t": 387375,
      "d": 375,
      "v": 100
    },
    {
      "midi": 65,
      "hit": false,
      "t": 387375,
      "d": 375,
      "v": 100
    },
    {
      "midi": 50,
      "hit": false,
      "t": 387750,
      "d": 375,
      "v": 100
    },
    {
      "midi": 65,
      "hit": false,
      "t": 388125,
      "d": 375,
      "v": 100
    },
    {
      "midi": 65,
      "hit": false,
      "t": 388500,
      "d": 375,
      "v": 100
    },
    {
      "midi": 70,
      "hit": false,
      "t": 388500,
      "d": 375,
      "v": 100
    },
    {
      "midi": 74,
      "hit": false,
      "t": 388500,
      "d": 375,
      "v": 100
    },
    {
      "midi": 69,
      "hit": false,
      "t": 388875,
      "d": 375,
      "v": 100
    },
    {
      "midi": 67,
      "hit": false,
      "t": 389250,
      "d": 375,
      "v": 100
    },
    {
      "midi": 55,
      "hit": false,
      "t": 389625,
      "d": 375,
      "v": 100
    },
    {
      "midi": 62,
      "hit": false,
      "t": 389625,
      "d": 375,
      "v": 100
    },
    {
      "midi": 65,
      "hit": false,
      "t": 389625,
      "d": 375,
      "v": 100
    },
    {
      "midi": 50,
      "hit": false,
      "t": 390000,
      "d": 375,
      "v": 100
    },
    {
      "midi": 64,
      "hit": false,
      "t": 390375,
      "d": 375,
      "v": 100
    },
    {
      "midi": 50,
      "hit": false,
      "t": 390750,
      "d": 375,
      "v": 100
    },
    {
      "midi": 58,
      "hit": false,
      "t": 391125,
      "d": 375,
      "v": 100
    },
    {
      "midi": 62,
      "hit": false,
      "t": 391125,
      "d": 375,
      "v": 100
    },
    {
      "midi": 67,
      "hit": false,
      "t": 391125,
      "d": 375,
      "v": 100
    },
    {
      "midi": 43,
      "hit": false,
      "t": 391500,
      "d": 375,
      "v": 100
    },
    {
      "midi": 58,
      "hit": false,
      "t": 391875,
      "d": 375,
      "v": 100
    },
    {
      "midi": 65,
      "hit": false,
      "t": 391875,
      "d": 375,
      "v": 100
    },
    {
      "midi": 58,
      "hit": false,
      "t": 392250,
      "d": 375,
      "v": 100
    },
    {
      "midi": 64,
      "hit": false,
      "t": 392250,
      "d": 375,
      "v": 100
    },
    {
      "midi": 58,
      "hit": false,
      "t": 392625,
      "d": 375,
      "v": 100
    },
    {
      "midi": 62,
      "hit": false,
      "t": 392625,
      "d": 375,
      "v": 100
    },
    {
      "midi": 55,
      "hit": false,
      "t": 393000,
      "d": 375,
      "v": 100
    },
    {
      "midi": 43,
      "hit": false,
      "t": 393375,
      "d": 375,
      "v": 100
    },
    {
      "midi": 60,
      "hit": false,
      "t": 393750,
      "d": 375,
      "v": 100
    },
    {
      "midi": 62,
      "hit": false,
      "t": 394125,
      "d": 375,
      "v": 100
    },
    {
      "midi": 50,
      "hit": false,
      "t": 394500,
      "d": 375,
      "v": 100
    },
    {
      "midi": 57,
      "hit": false,
      "t": 394500,
      "d": 375,
      "v": 100
    },
    {
      "midi": 62,
      "hit": false,
      "t": 394500,
      "d": 375,
      "v": 100
    },
    {
      "midi": 57,
      "hit": false,
      "t": 394875,
      "d": 375,
      "v": 100
    },
    {
      "midi": 62,
      "hit": false,
      "t": 395250,
      "d": 375,
      "v": 100
    },
    {
      "midi": 50,
      "hit": false,
      "t": 395625,
      "d": 750,
      "v": 100
    },
    {
      "midi": 57,
      "hit": false,
      "t": 395625,
      "d": 750,
      "v": 100
    },
    {
      "midi": 62,
      "hit": false,
      "t": 395625,
      "d": 750,
      "v": 100
    },
    {
      "midi": 67,
      "hit": false,
      "t": 395625,
      "d": 750,
      "v": 100
    },
    {
      "midi": 50,
      "hit": false,
      "t": 396375,
      "d": 750,
      "v": 100
    },
    {
      "midi": 57,
      "hit": false,
      "t": 396375,
      "d": 750,
      "v": 100
    },
    {
      "midi": 62,
      "hit": false,
      "t": 396375,
      "d": 750,
      "v": 100
    },
    {
      "midi": 65,
      "hit": false,
      "t": 396375,
      "d": 750,
      "v": 100
    },
    {
      "midi": 50,
      "hit": false,
      "t": 397125,
      "d": 750,
      "v": 100
    },
    {
      "midi": 57,
      "hit": false,
      "t": 397125,
      "d": 750,
      "v": 100
    },
    {
      "midi": 62,
      "hit": false,
      "t": 397125,
      "d": 750,
      "v": 100
    },
    {
      "midi": 64,
      "hit": false,
      "t": 397125,
      "d": 750,
      "v": 100
    },
    {
      "midi": 62,
      "hit": false,
      "t": 397875,
      "d": 375,
      "v": 100
    },
    {
      "midi": 50,
      "hit": false,
      "t": 398250,
      "d": 750,
      "v": 100
    },
    {
      "midi": 62,
      "hit": false,
      "t": 398250,
      "d": 750,
      "v": 100
    },
    {
      "midi": 65,
      "hit": false,
      "t": 398250,
      "d": 750,
      "v": 100
    },
    {
      "midi": 69,
      "hit": false,
      "t": 398250,
      "d": 750,
      "v": 100
    },
    {
      "midi": 50,
      "hit": false,
      "t": 399000,
      "d": 750,
      "v": 100
    },
    {
      "midi": 62,
      "hit": false,
      "t": 399000,
      "d": 750,
      "v": 100
    },
    {
      "midi": 67,
      "hit": false,
      "t": 399000,
      "d": 750,
      "v": 100
    },
    {
      "midi": 69,
      "hit": false,
      "t": 399000,
      "d": 750,
      "v": 100
    },
    {
      "midi": 50,
      "hit": false,
      "t": 399750,
      "d": 750,
      "v": 100
    },
    {
      "midi": 62,
      "hit": false,
      "t": 399750,
      "d": 750,
      "v": 100
    },
    {
      "midi": 65,
      "hit": false,
      "t": 399750,
      "d": 750,
      "v": 100
    },
    {
      "midi": 69,
      "hit": false,
      "t": 399750,
      "d": 750,
      "v": 100
    },
    {
      "midi": 50,
      "hit": false,
      "t": 400500,
      "d": 375,
      "v": 100
    },
    {
      "midi": 58,
      "hit": false,
      "t": 400500,
      "d": 375,
      "v": 100
    },
    {
      "midi": 62,
      "hit": false,
      "t": 400500,
      "d": 375,
      "v": 100
    },
    {
      "midi": 64,
      "hit": false,
      "t": 400500,
      "d": 375,
      "v": 100
    },
    {
      "midi": 58,
      "hit": false,
      "t": 400875,
      "d": 375,
      "v": 100
    },
    {
      "midi": 62,
      "hit": false,
      "t": 401250,
      "d": 375,
      "v": 100
    },
    {
      "midi": 50,
      "hit": false,
      "t": 401625,
      "d": 750,
      "v": 100
    },
    {
      "midi": 58,
      "hit": false,
      "t": 401625,
      "d": 750,
      "v": 100
    },
    {
      "midi": 62,
      "hit": false,
      "t": 401625,
      "d": 750,
      "v": 100
    },
    {
      "midi": 67,
      "hit": false,
      "t": 401625,
      "d": 750,
      "v": 100
    },
    {
      "midi": 50,
      "hit": false,
      "t": 402375,
      "d": 750,
      "v": 100
    },
    {
      "midi": 58,
      "hit": false,
      "t": 402375,
      "d": 750,
      "v": 100
    },
    {
      "midi": 62,
      "hit": false,
      "t": 402375,
      "d": 750,
      "v": 100
    },
    {
      "midi": 65,
      "hit": false,
      "t": 402375,
      "d": 750,
      "v": 100
    },
    {
      "midi": 50,
      "hit": false,
      "t": 403125,
      "d": 750,
      "v": 100
    },
    {
      "midi": 58,
      "hit": false,
      "t": 403125,
      "d": 750,
      "v": 100
    },
    {
      "midi": 62,
      "hit": false,
      "t": 403125,
      "d": 750,
      "v": 100
    },
    {
      "midi": 64,
      "hit": false,
      "t": 403125,
      "d": 750,
      "v": 100
    },
    {
      "midi": 58,
      "hit": false,
      "t": 403875,
      "d": 375,
      "v": 100
    },
    {
      "midi": 50,
      "hit": false,
      "t": 404250,
      "d": 750,
      "v": 100
    },
    {
      "midi": 58,
      "hit": false,
      "t": 404250,
      "d": 750,
      "v": 100
    },
    {
      "midi": 62,
      "hit": false,
      "t": 404250,
      "d": 750,
      "v": 100
    },
    {
      "midi": 67,
      "hit": false,
      "t": 404250,
      "d": 750,
      "v": 100
    },
    {
      "midi": 50,
      "hit": false,
      "t": 405000,
      "d": 750,
      "v": 100
    },
    {
      "midi": 58,
      "hit": false,
      "t": 405000,
      "d": 750,
      "v": 100
    },
    {
      "midi": 62,
      "hit": false,
      "t": 405000,
      "d": 750,
      "v": 100
    },
    {
      "midi": 65,
      "hit": false,
      "t": 405000,
      "d": 750,
      "v": 100
    },
    {
      "midi": 50,
      "hit": false,
      "t": 405750,
      "d": 750,
      "v": 100
    },
    {
      "midi": 58,
      "hit": false,
      "t": 405750,
      "d": 750,
      "v": 100
    },
    {
      "midi": 62,
      "hit": false,
      "t": 405750,
      "d": 750,
      "v": 100
    },
    {
      "midi": 64,
      "hit": false,
      "t": 405750,
      "d": 750,
      "v": 100
    },
    {
      "midi": 50,
      "hit": false,
      "t": 406500,
      "d": 375,
      "v": 100
    },
    {
      "midi": 57,
      "hit": false,
      "t": 406500,
      "d": 375,
      "v": 100
    },
    {
      "midi": 62,
      "hit": false,
      "t": 406500,
      "d": 375,
      "v": 100
    },
    {
      "midi": 57,
      "hit": false,
      "t": 406875,
      "d": 375,
      "v": 100
    },
    {
      "midi": 62,
      "hit": false,
      "t": 407250,
      "d": 375,
      "v": 100
    },
    {
      "midi": 50,
      "hit": false,
      "t": 407625,
      "d": 750,
      "v": 100
    },
    {
      "midi": 57,
      "hit": false,
      "t": 407625,
      "d": 750,
      "v": 100
    },
    {
      "midi": 62,
      "hit": false,
      "t": 407625,
      "d": 750,
      "v": 100
    },
    {
      "midi": 67,
      "hit": false,
      "t": 407625,
      "d": 750,
      "v": 100
    },
    {
      "midi": 50,
      "hit": false,
      "t": 408375,
      "d": 750,
      "v": 100
    },
    {
      "midi": 57,
      "hit": false,
      "t": 408375,
      "d": 750,
      "v": 100
    },
    {
      "midi": 62,
      "hit": false,
      "t": 408375,
      "d": 750,
      "v": 100
    },
    {
      "midi": 65,
      "hit": false,
      "t": 408375,
      "d": 750,
      "v": 100
    },
    {
      "midi": 50,
      "hit": false,
      "t": 409125,
      "d": 750,
      "v": 100
    },
    {
      "midi": 57,
      "hit": false,
      "t": 409125,
      "d": 750,
      "v": 100
    },
    {
      "midi": 62,
      "hit": false,
      "t": 409125,
      "d": 750,
      "v": 100
    },
    {
      "midi": 64,
      "hit": false,
      "t": 409125,
      "d": 750,
      "v": 100
    },
    {
      "midi": 62,
      "hit": false,
      "t": 409875,
      "d": 375,
      "v": 100
    },
    {
      "midi": 50,
      "hit": false,
      "t": 410250,
      "d": 750,
      "v": 100
    },
    {
      "midi": 62,
      "hit": false,
      "t": 410250,
      "d": 750,
      "v": 100
    },
    {
      "midi": 65,
      "hit": false,
      "t": 410250,
      "d": 750,
      "v": 100
    },
    {
      "midi": 69,
      "hit": false,
      "t": 410250,
      "d": 750,
      "v": 100
    },
    {
      "midi": 50,
      "hit": false,
      "t": 411000,
      "d": 750,
      "v": 100
    },
    {
      "midi": 62,
      "hit": false,
      "t": 411000,
      "d": 750,
      "v": 100
    },
    {
      "midi": 67,
      "hit": false,
      "t": 411000,
      "d": 750,
      "v": 100
    },
    {
      "midi": 69,
      "hit": false,
      "t": 411000,
      "d": 750,
      "v": 100
    },
    {
      "midi": 50,
      "hit": false,
      "t": 411750,
      "d": 750,
      "v": 100
    },
    {
      "midi": 62,
      "hit": false,
      "t": 411750,
      "d": 750,
      "v": 100
    },
    {
      "midi": 65,
      "hit": false,
      "t": 411750,
      "d": 750,
      "v": 100
    },
    {
      "midi": 69,
      "hit": false,
      "t": 411750,
      "d": 750,
      "v": 100
    },
    {
      "midi": 50,
      "hit": false,
      "t": 412500,
      "d": 375,
      "v": 100
    },
    {
      "midi": 58,
      "hit": false,
      "t": 412500,
      "d": 375,
      "v": 100
    },
    {
      "midi": 62,
      "hit": false,
      "t": 412500,
      "d": 375,
      "v": 100
    },
    {
      "midi": 64,
      "hit": false,
      "t": 412500,
      "d": 375,
      "v": 100
    },
    {
      "midi": 58,
      "hit": false,
      "t": 412875,
      "d": 375,
      "v": 100
    },
    {
      "midi": 62,
      "hit": false,
      "t": 413250,
      "d": 375,
      "v": 100
    },
    {
      "midi": 50,
      "hit": false,
      "t": 413625,
      "d": 750,
      "v": 100
    },
    {
      "midi": 58,
      "hit": false,
      "t": 413625,
      "d": 750,
      "v": 100
    },
    {
      "midi": 62,
      "hit": false,
      "t": 413625,
      "d": 750,
      "v": 100
    },
    {
      "midi": 67,
      "hit": false,
      "t": 413625,
      "d": 750,
      "v": 100
    },
    {
      "midi": 50,
      "hit": false,
      "t": 414375,
      "d": 750,
      "v": 100
    },
    {
      "midi": 58,
      "hit": false,
      "t": 414375,
      "d": 750,
      "v": 100
    },
    {
      "midi": 62,
      "hit": false,
      "t": 414375,
      "d": 750,
      "v": 100
    },
    {
      "midi": 65,
      "hit": false,
      "t": 414375,
      "d": 750,
      "v": 100
    },
    {
      "midi": 50,
      "hit": false,
      "t": 415125,
      "d": 750,
      "v": 100
    },
    {
      "midi": 58,
      "hit": false,
      "t": 415125,
      "d": 750,
      "v": 100
    },
    {
      "midi": 62,
      "hit": false,
      "t": 415125,
      "d": 750,
      "v": 100
    },
    {
      "midi": 64,
      "hit": false,
      "t": 415125,
      "d": 750,
      "v": 100
    },
    {
      "midi": 58,
      "hit": false,
      "t": 415875,
      "d": 375,
      "v": 100
    },
    {
      "midi": 50,
      "hit": false,
      "t": 416250,
      "d": 750,
      "v": 100
    },
    {
      "midi": 58,
      "hit": false,
      "t": 416250,
      "d": 750,
      "v": 100
    },
    {
      "midi": 62,
      "hit": false,
      "t": 416250,
      "d": 750,
      "v": 100
    },
    {
      "midi": 67,
      "hit": false,
      "t": 416250,
      "d": 750,
      "v": 100
    },
    {
      "midi": 50,
      "hit": false,
      "t": 417000,
      "d": 750,
      "v": 100
    },
    {
      "midi": 58,
      "hit": false,
      "t": 417000,
      "d": 750,
      "v": 100
    },
    {
      "midi": 62,
      "hit": false,
      "t": 417000,
      "d": 750,
      "v": 100
    },
    {
      "midi": 65,
      "hit": false,
      "t": 417000,
      "d": 750,
      "v": 100
    },
    {
      "midi": 50,
      "hit": false,
      "t": 417750,
      "d": 750,
      "v": 100
    },
    {
      "midi": 58,
      "hit": false,
      "t": 417750,
      "d": 750,
      "v": 100
    },
    {
      "midi": 62,
      "hit": false,
      "t": 417750,
      "d": 750,
      "v": 100
    },
    {
      "midi": 64,
      "hit": false,
      "t": 417750,
      "d": 750,
      "v": 100
    },
    {
      "midi": 50,
      "hit": false,
      "t": 418500,
      "d": 750,
      "v": 100
    },
    {
      "midi": 57,
      "hit": false,
      "t": 418500,
      "d": 750,
      "v": 100
    },
    {
      "midi": 62,
      "hit": false,
      "t": 418500,
      "d": 750,
      "v": 100
    },
    {
      "midi": 65,
      "hit": false,
      "t": 418500,
      "d": 750,
      "v": 100
    },
    {
      "midi": 50,
      "hit": false,
      "t": 419250,
      "d": 375,
      "v": 100
    },
    {
      "midi": 57,
      "hit": false,
      "t": 419250,
      "d": 375,
      "v": 100
    },
    {
      "midi": 62,
      "hit": false,
      "t": 419250,
      "d": 375,
      "v": 100
    },
    {
      "midi": 65,
      "hit": false,
      "t": 419250,
      "d": 375,
      "v": 100
    },
    {
      "midi": 50,
      "hit": false,
      "t": 419625,
      "d": 750,
      "v": 100
    },
    {
      "midi": 57,
      "hit": false,
      "t": 419625,
      "d": 750,
      "v": 100
    },
    {
      "midi": 62,
      "hit": false,
      "t": 419625,
      "d": 750,
      "v": 100
    },
    {
      "midi": 65,
      "hit": false,
      "t": 419625,
      "d": 750,
      "v": 100
    },
    {
      "midi": 50,
      "hit": false,
      "t": 420375,
      "d": 375,
      "v": 100
    },
    {
      "midi": 62,
      "hit": false,
      "t": 420375,
      "d": 375,
      "v": 100
    },
    {
      "midi": 65,
      "hit": false,
      "t": 420375,
      "d": 375,
      "v": 100
    },
    {
      "midi": 69,
      "hit": false,
      "t": 420375,
      "d": 375,
      "v": 100
    },
    {
      "midi": 50,
      "hit": false,
      "t": 420750,
      "d": 375,
      "v": 100
    },
    {
      "midi": 62,
      "hit": false,
      "t": 420750,
      "d": 375,
      "v": 100
    },
    {
      "midi": 65,
      "hit": false,
      "t": 420750,
      "d": 375,
      "v": 100
    },
    {
      "midi": 69,
      "hit": false,
      "t": 420750,
      "d": 375,
      "v": 100
    },
    {
      "midi": 50,
      "hit": false,
      "t": 421125,
      "d": 750,
      "v": 100
    },
    {
      "midi": 62,
      "hit": false,
      "t": 421125,
      "d": 750,
      "v": 100
    },
    {
      "midi": 65,
      "hit": false,
      "t": 421125,
      "d": 750,
      "v": 100
    },
    {
      "midi": 69,
      "hit": false,
      "t": 421125,
      "d": 750,
      "v": 100
    },
    {
      "midi": 50,
      "hit": false,
      "t": 421875,
      "d": 375,
      "v": 100
    },
    {
      "midi": 57,
      "hit": false,
      "t": 421875,
      "d": 375,
      "v": 100
    },
    {
      "midi": 62,
      "hit": false,
      "t": 421875,
      "d": 375,
      "v": 100
    },
    {
      "midi": 67,
      "hit": false,
      "t": 421875,
      "d": 375,
      "v": 100
    },
    {
      "midi": 50,
      "hit": false,
      "t": 422250,
      "d": 375,
      "v": 100
    },
    {
      "midi": 57,
      "hit": false,
      "t": 422250,
      "d": 375,
      "v": 100
    },
    {
      "midi": 62,
      "hit": false,
      "t": 422250,
      "d": 375,
      "v": 100
    },
    {
      "midi": 67,
      "hit": false,
      "t": 422250,
      "d": 375,
      "v": 100
    },
    {
      "midi": 50,
      "hit": false,
      "t": 422625,
      "d": 750,
      "v": 100
    },
    {
      "midi": 57,
      "hit": false,
      "t": 422625,
      "d": 750,
      "v": 100
    },
    {
      "midi": 62,
      "hit": false,
      "t": 422625,
      "d": 750,
      "v": 100
    },
    {
      "midi": 67,
      "hit": false,
      "t": 422625,
      "d": 750,
      "v": 100
    },
    {
      "midi": 50,
      "hit": false,
      "t": 423375,
      "d": 375,
      "v": 100
    },
    {
      "midi": 57,
      "hit": false,
      "t": 423375,
      "d": 375,
      "v": 100
    },
    {
      "midi": 62,
      "hit": false,
      "t": 423375,
      "d": 375,
      "v": 100
    },
    {
      "midi": 65,
      "hit": false,
      "t": 423375,
      "d": 375,
      "v": 100
    },
    {
      "midi": 50,
      "hit": false,
      "t": 423750,
      "d": 375,
      "v": 100
    },
    {
      "midi": 57,
      "hit": false,
      "t": 423750,
      "d": 375,
      "v": 100
    },
    {
      "midi": 62,
      "hit": false,
      "t": 423750,
      "d": 375,
      "v": 100
    },
    {
      "midi": 65,
      "hit": false,
      "t": 423750,
      "d": 375,
      "v": 100
    },
    {
      "midi": 50,
      "hit": false,
      "t": 424125,
      "d": 750,
      "v": 100
    },
    {
      "midi": 58,
      "hit": false,
      "t": 424125,
      "d": 750,
      "v": 100
    },
    {
      "midi": 62,
      "hit": false,
      "t": 424125,
      "d": 750,
      "v": 100
    },
    {
      "midi": 64,
      "hit": false,
      "t": 424125,
      "d": 750,
      "v": 100
    },
    {
      "midi": 58,
      "hit": false,
      "t": 424875,
      "d": 750,
      "v": 100
    },
    {
      "midi": 62,
      "hit": false,
      "t": 424875,
      "d": 750,
      "v": 100
    },
    {
      "midi": 58,
      "hit": false,
      "t": 425625,
      "d": 375,
      "v": 100
    },
    {
      "midi": 62,
      "hit": false,
      "t": 425625,
      "d": 375,
      "v": 100
    },
    {
      "midi": 64,
      "hit": false,
      "t": 425625,
      "d": 375,
      "v": 100
    },
    {
      "midi": 58,
      "hit": false,
      "t": 426000,
      "d": 375,
      "v": 100
    },
    {
      "midi": 62,
      "hit": false,
      "t": 426000,
      "d": 375,
      "v": 100
    },
    {
      "midi": 64,
      "hit": false,
      "t": 426000,
      "d": 375,
      "v": 100
    },
    {
      "midi": 58,
      "hit": false,
      "t": 426375,
      "d": 750,
      "v": 100
    },
    {
      "midi": 62,
      "hit": false,
      "t": 426375,
      "d": 750,
      "v": 100
    },
    {
      "midi": 65,
      "hit": false,
      "t": 426375,
      "d": 750,
      "v": 100
    },
    {
      "midi": 58,
      "hit": false,
      "t": 427125,
      "d": 1125,
      "v": 100
    },
    {
      "midi": 62,
      "hit": false,
      "t": 427125,
      "d": 1125,
      "v": 100
    },
    {
      "midi": 67,
      "hit": false,
      "t": 427125,
      "d": 1125,
      "v": 100
    },
    {
      "midi": 58,
      "hit": false,
      "t": 428250,
      "d": 375,
      "v": 100
    },
    {
      "midi": 62,
      "hit": false,
      "t": 428250,
      "d": 375,
      "v": 100
    },
    {
      "midi": 67,
      "hit": false,
      "t": 428250,
      "d": 375,
      "v": 100
    },
    {
      "midi": 58,
      "hit": false,
      "t": 428625,
      "d": 750,
      "v": 100
    },
    {
      "midi": 62,
      "hit": false,
      "t": 428625,
      "d": 750,
      "v": 100
    },
    {
      "midi": 65,
      "hit": false,
      "t": 428625,
      "d": 750,
      "v": 100
    },
    {
      "midi": 58,
      "hit": false,
      "t": 429375,
      "d": 1125,
      "v": 100
    },
    {
      "midi": 62,
      "hit": false,
      "t": 429375,
      "d": 1125,
      "v": 100
    },
    {
      "midi": 64,
      "hit": false,
      "t": 429375,
      "d": 1125,
      "v": 100
    },
    {
      "midi": 50,
      "hit": false,
      "t": 430500,
      "d": 750,
      "v": 100
    },
    {
      "midi": 57,
      "hit": false,
      "t": 430500,
      "d": 750,
      "v": 100
    },
    {
      "midi": 62,
      "hit": false,
      "t": 430500,
      "d": 750,
      "v": 100
    },
    {
      "midi": 65,
      "hit": false,
      "t": 430500,
      "d": 750,
      "v": 100
    },
    {
      "midi": 50,
      "hit": false,
      "t": 431250,
      "d": 375,
      "v": 100
    },
    {
      "midi": 57,
      "hit": false,
      "t": 431250,
      "d": 375,
      "v": 100
    },
    {
      "midi": 62,
      "hit": false,
      "t": 431250,
      "d": 375,
      "v": 100
    },
    {
      "midi": 65,
      "hit": false,
      "t": 431250,
      "d": 375,
      "v": 100
    },
    {
      "midi": 50,
      "hit": false,
      "t": 431625,
      "d": 750,
      "v": 100
    },
    {
      "midi": 57,
      "hit": false,
      "t": 431625,
      "d": 750,
      "v": 100
    },
    {
      "midi": 62,
      "hit": false,
      "t": 431625,
      "d": 750,
      "v": 100
    },
    {
      "midi": 65,
      "hit": false,
      "t": 431625,
      "d": 750,
      "v": 100
    },
    {
      "midi": 50,
      "hit": false,
      "t": 432375,
      "d": 375,
      "v": 100
    },
    {
      "midi": 62,
      "hit": false,
      "t": 432375,
      "d": 375,
      "v": 100
    },
    {
      "midi": 65,
      "hit": false,
      "t": 432375,
      "d": 375,
      "v": 100
    },
    {
      "midi": 69,
      "hit": false,
      "t": 432375,
      "d": 375,
      "v": 100
    },
    {
      "midi": 50,
      "hit": false,
      "t": 432750,
      "d": 375,
      "v": 100
    },
    {
      "midi": 62,
      "hit": false,
      "t": 432750,
      "d": 375,
      "v": 100
    },
    {
      "midi": 65,
      "hit": false,
      "t": 432750,
      "d": 375,
      "v": 100
    },
    {
      "midi": 69,
      "hit": false,
      "t": 432750,
      "d": 375,
      "v": 100
    },
    {
      "midi": 50,
      "hit": false,
      "t": 433125,
      "d": 750,
      "v": 100
    },
    {
      "midi": 62,
      "hit": false,
      "t": 433125,
      "d": 750,
      "v": 100
    },
    {
      "midi": 65,
      "hit": false,
      "t": 433125,
      "d": 750,
      "v": 100
    },
    {
      "midi": 69,
      "hit": false,
      "t": 433125,
      "d": 750,
      "v": 100
    },
    {
      "midi": 50,
      "hit": false,
      "t": 433875,
      "d": 375,
      "v": 100
    },
    {
      "midi": 57,
      "hit": false,
      "t": 433875,
      "d": 375,
      "v": 100
    },
    {
      "midi": 62,
      "hit": false,
      "t": 433875,
      "d": 375,
      "v": 100
    },
    {
      "midi": 67,
      "hit": false,
      "t": 433875,
      "d": 375,
      "v": 100
    },
    {
      "midi": 50,
      "hit": false,
      "t": 434250,
      "d": 375,
      "v": 100
    },
    {
      "midi": 57,
      "hit": false,
      "t": 434250,
      "d": 375,
      "v": 100
    },
    {
      "midi": 62,
      "hit": false,
      "t": 434250,
      "d": 375,
      "v": 100
    },
    {
      "midi": 67,
      "hit": false,
      "t": 434250,
      "d": 375,
      "v": 100
    },
    {
      "midi": 50,
      "hit": false,
      "t": 434625,
      "d": 750,
      "v": 100
    },
    {
      "midi": 57,
      "hit": false,
      "t": 434625,
      "d": 750,
      "v": 100
    },
    {
      "midi": 62,
      "hit": false,
      "t": 434625,
      "d": 750,
      "v": 100
    },
    {
      "midi": 67,
      "hit": false,
      "t": 434625,
      "d": 750,
      "v": 100
    },
    {
      "midi": 50,
      "hit": false,
      "t": 435375,
      "d": 375,
      "v": 100
    },
    {
      "midi": 57,
      "hit": false,
      "t": 435375,
      "d": 375,
      "v": 100
    },
    {
      "midi": 62,
      "hit": false,
      "t": 435375,
      "d": 375,
      "v": 100
    },
    {
      "midi": 65,
      "hit": false,
      "t": 435375,
      "d": 375,
      "v": 100
    },
    {
      "midi": 50,
      "hit": false,
      "t": 435750,
      "d": 375,
      "v": 100
    },
    {
      "midi": 57,
      "hit": false,
      "t": 435750,
      "d": 375,
      "v": 100
    },
    {
      "midi": 62,
      "hit": false,
      "t": 435750,
      "d": 375,
      "v": 100
    },
    {
      "midi": 65,
      "hit": false,
      "t": 435750,
      "d": 375,
      "v": 100
    },
    {
      "midi": 50,
      "hit": false,
      "t": 436125,
      "d": 750,
      "v": 100
    },
    {
      "midi": 58,
      "hit": false,
      "t": 436125,
      "d": 750,
      "v": 100
    },
    {
      "midi": 62,
      "hit": false,
      "t": 436125,
      "d": 750,
      "v": 100
    },
    {
      "midi": 64,
      "hit": false,
      "t": 436125,
      "d": 750,
      "v": 100
    },
    {
      "midi": 58,
      "hit": false,
      "t": 436875,
      "d": 750,
      "v": 100
    },
    {
      "midi": 62,
      "hit": false,
      "t": 436875,
      "d": 750,
      "v": 100
    },
    {
      "midi": 58,
      "hit": false,
      "t": 437625,
      "d": 375,
      "v": 100
    },
    {
      "midi": 62,
      "hit": false,
      "t": 437625,
      "d": 375,
      "v": 100
    },
    {
      "midi": 64,
      "hit": false,
      "t": 437625,
      "d": 375,
      "v": 100
    },
    {
      "midi": 58,
      "hit": false,
      "t": 438000,
      "d": 375,
      "v": 100
    },
    {
      "midi": 62,
      "hit": false,
      "t": 438000,
      "d": 375,
      "v": 100
    },
    {
      "midi": 64,
      "hit": false,
      "t": 438000,
      "d": 375,
      "v": 100
    },
    {
      "midi": 58,
      "hit": false,
      "t": 438375,
      "d": 750,
      "v": 100
    },
    {
      "midi": 62,
      "hit": false,
      "t": 438375,
      "d": 750,
      "v": 100
    },
    {
      "midi": 65,
      "hit": false,
      "t": 438375,
      "d": 750,
      "v": 100
    },
    {
      "midi": 58,
      "hit": false,
      "t": 439125,
      "d": 1125,
      "v": 100
    },
    {
      "midi": 62,
      "hit": false,
      "t": 439125,
      "d": 1125,
      "v": 100
    },
    {
      "midi": 67,
      "hit": false,
      "t": 439125,
      "d": 1125,
      "v": 100
    },
    {
      "midi": 58,
      "hit": false,
      "t": 440250,
      "d": 375,
      "v": 100
    },
    {
      "midi": 62,
      "hit": false,
      "t": 440250,
      "d": 375,
      "v": 100
    },
    {
      "midi": 67,
      "hit": false,
      "t": 440250,
      "d": 375,
      "v": 100
    },
    {
      "midi": 58,
      "hit": false,
      "t": 440625,
      "d": 750,
      "v": 100
    },
    {
      "midi": 62,
      "hit": false,
      "t": 440625,
      "d": 750,
      "v": 100
    },
    {
      "midi": 65,
      "hit": false,
      "t": 440625,
      "d": 750,
      "v": 100
    },
    {
      "midi": 58,
      "hit": false,
      "t": 441375,
      "d": 1125,
      "v": 100
    },
    {
      "midi": 62,
      "hit": false,
      "t": 441375,
      "d": 1125,
      "v": 100
    },
    {
      "midi": 64,
      "hit": false,
      "t": 441375,
      "d": 1125,
      "v": 100
    },
    {
      "midi": 50,
      "hit": false,
      "t": 442500,
      "d": 750,
      "v": 100
    },
    {
      "midi": 57,
      "hit": false,
      "t": 442500,
      "d": 750,
      "v": 100
    },
    {
      "midi": 62,
      "hit": false,
      "t": 442500,
      "d": 750,
      "v": 100
    },
    {
      "midi": 65,
      "hit": false,
      "t": 442500,
      "d": 750,
      "v": 100
    },
    {
      "midi": 50,
      "hit": false,
      "t": 443250,
      "d": 375,
      "v": 100
    },
    {
      "midi": 57,
      "hit": false,
      "t": 443250,
      "d": 375,
      "v": 100
    },
    {
      "midi": 62,
      "hit": false,
      "t": 443250,
      "d": 375,
      "v": 100
    },
    {
      "midi": 65,
      "hit": false,
      "t": 443250,
      "d": 375,
      "v": 100
    },
    {
      "midi": 50,
      "hit": false,
      "t": 443625,
      "d": 750,
      "v": 100
    },
    {
      "midi": 57,
      "hit": false,
      "t": 443625,
      "d": 750,
      "v": 100
    },
    {
      "midi": 62,
      "hit": false,
      "t": 443625,
      "d": 750,
      "v": 100
    },
    {
      "midi": 65,
      "hit": false,
      "t": 443625,
      "d": 750,
      "v": 100
    },
    {
      "midi": 50,
      "hit": false,
      "t": 444375,
      "d": 375,
      "v": 100
    },
    {
      "midi": 62,
      "hit": false,
      "t": 444375,
      "d": 375,
      "v": 100
    },
    {
      "midi": 65,
      "hit": false,
      "t": 444375,
      "d": 375,
      "v": 100
    },
    {
      "midi": 69,
      "hit": false,
      "t": 444375,
      "d": 375,
      "v": 100
    },
    {
      "midi": 50,
      "hit": false,
      "t": 444750,
      "d": 375,
      "v": 100
    },
    {
      "midi": 62,
      "hit": false,
      "t": 444750,
      "d": 375,
      "v": 100
    },
    {
      "midi": 65,
      "hit": false,
      "t": 444750,
      "d": 375,
      "v": 100
    },
    {
      "midi": 69,
      "hit": false,
      "t": 444750,
      "d": 375,
      "v": 100
    },
    {
      "midi": 50,
      "hit": false,
      "t": 445125,
      "d": 750,
      "v": 100
    },
    {
      "midi": 62,
      "hit": false,
      "t": 445125,
      "d": 750,
      "v": 100
    },
    {
      "midi": 65,
      "hit": false,
      "t": 445125,
      "d": 750,
      "v": 100
    },
    {
      "midi": 69,
      "hit": false,
      "t": 445125,
      "d": 750,
      "v": 100
    },
    {
      "midi": 50,
      "hit": false,
      "t": 445875,
      "d": 375,
      "v": 100
    },
    {
      "midi": 57,
      "hit": false,
      "t": 445875,
      "d": 375,
      "v": 100
    },
    {
      "midi": 62,
      "hit": false,
      "t": 445875,
      "d": 375,
      "v": 100
    },
    {
      "midi": 67,
      "hit": false,
      "t": 445875,
      "d": 375,
      "v": 100
    },
    {
      "midi": 50,
      "hit": false,
      "t": 446250,
      "d": 375,
      "v": 100
    },
    {
      "midi": 57,
      "hit": false,
      "t": 446250,
      "d": 375,
      "v": 100
    },
    {
      "midi": 62,
      "hit": false,
      "t": 446250,
      "d": 375,
      "v": 100
    },
    {
      "midi": 67,
      "hit": false,
      "t": 446250,
      "d": 375,
      "v": 100
    },
    {
      "midi": 50,
      "hit": false,
      "t": 446625,
      "d": 750,
      "v": 100
    },
    {
      "midi": 57,
      "hit": false,
      "t": 446625,
      "d": 750,
      "v": 100
    },
    {
      "midi": 62,
      "hit": false,
      "t": 446625,
      "d": 750,
      "v": 100
    },
    {
      "midi": 67,
      "hit": false,
      "t": 446625,
      "d": 750,
      "v": 100
    },
    {
      "midi": 50,
      "hit": false,
      "t": 447375,
      "d": 375,
      "v": 100
    },
    {
      "midi": 57,
      "hit": false,
      "t": 447375,
      "d": 375,
      "v": 100
    },
    {
      "midi": 62,
      "hit": false,
      "t": 447375,
      "d": 375,
      "v": 100
    },
    {
      "midi": 65,
      "hit": false,
      "t": 447375,
      "d": 375,
      "v": 100
    },
    {
      "midi": 50,
      "hit": false,
      "t": 447750,
      "d": 375,
      "v": 100
    },
    {
      "midi": 57,
      "hit": false,
      "t": 447750,
      "d": 375,
      "v": 100
    },
    {
      "midi": 62,
      "hit": false,
      "t": 447750,
      "d": 375,
      "v": 100
    },
    {
      "midi": 65,
      "hit": false,
      "t": 447750,
      "d": 375,
      "v": 100
    },
    {
      "midi": 50,
      "hit": false,
      "t": 448125,
      "d": 750,
      "v": 100
    },
    {
      "midi": 58,
      "hit": false,
      "t": 448125,
      "d": 750,
      "v": 100
    },
    {
      "midi": 62,
      "hit": false,
      "t": 448125,
      "d": 750,
      "v": 100
    },
    {
      "midi": 64,
      "hit": false,
      "t": 448125,
      "d": 750,
      "v": 100
    },
    {
      "midi": 58,
      "hit": false,
      "t": 448875,
      "d": 750,
      "v": 100
    },
    {
      "midi": 62,
      "hit": false,
      "t": 448875,
      "d": 750,
      "v": 100
    },
    {
      "midi": 58,
      "hit": false,
      "t": 449625,
      "d": 375,
      "v": 100
    },
    {
      "midi": 62,
      "hit": false,
      "t": 449625,
      "d": 375,
      "v": 100
    },
    {
      "midi": 64,
      "hit": false,
      "t": 449625,
      "d": 375,
      "v": 100
    },
    {
      "midi": 58,
      "hit": false,
      "t": 450000,
      "d": 375,
      "v": 100
    },
    {
      "midi": 62,
      "hit": false,
      "t": 450000,
      "d": 375,
      "v": 100
    },
    {
      "midi": 64,
      "hit": false,
      "t": 450000,
      "d": 375,
      "v": 100
    },
    {
      "midi": 58,
      "hit": false,
      "t": 450375,
      "d": 750,
      "v": 100
    },
    {
      "midi": 62,
      "hit": false,
      "t": 450375,
      "d": 750,
      "v": 100
    },
    {
      "midi": 65,
      "hit": false,
      "t": 450375,
      "d": 750,
      "v": 100
    },
    {
      "midi": 58,
      "hit": false,
      "t": 451125,
      "d": 1125,
      "v": 100
    },
    {
      "midi": 62,
      "hit": false,
      "t": 451125,
      "d": 1125,
      "v": 100
    },
    {
      "midi": 67,
      "hit": false,
      "t": 451125,
      "d": 1125,
      "v": 100
    },
    {
      "midi": 58,
      "hit": false,
      "t": 452250,
      "d": 375,
      "v": 100
    },
    {
      "midi": 62,
      "hit": false,
      "t": 452250,
      "d": 375,
      "v": 100
    },
    {
      "midi": 67,
      "hit": false,
      "t": 452250,
      "d": 375,
      "v": 100
    },
    {
      "midi": 58,
      "hit": false,
      "t": 452625,
      "d": 750,
      "v": 100
    },
    {
      "midi": 62,
      "hit": false,
      "t": 452625,
      "d": 750,
      "v": 100
    },
    {
      "midi": 65,
      "hit": false,
      "t": 452625,
      "d": 750,
      "v": 100
    },
    {
      "midi": 58,
      "hit": false,
      "t": 453375,
      "d": 1125,
      "v": 100
    },
    {
      "midi": 62,
      "hit": false,
      "t": 453375,
      "d": 1125,
      "v": 100
    },
    {
      "midi": 64,
      "hit": false,
      "t": 453375,
      "d": 1125,
      "v": 100
    },
    {
      "midi": 50,
      "hit": false,
      "t": 454500,
      "d": 750,
      "v": 100
    },
    {
      "midi": 57,
      "hit": false,
      "t": 454500,
      "d": 750,
      "v": 100
    },
    {
      "midi": 62,
      "hit": false,
      "t": 454500,
      "d": 750,
      "v": 100
    },
    {
      "midi": 65,
      "hit": false,
      "t": 454500,
      "d": 750,
      "v": 100
    },
    {
      "midi": 50,
      "hit": false,
      "t": 455250,
      "d": 375,
      "v": 100
    },
    {
      "midi": 57,
      "hit": false,
      "t": 455250,
      "d": 375,
      "v": 100
    },
    {
      "midi": 62,
      "hit": false,
      "t": 455250,
      "d": 375,
      "v": 100
    },
    {
      "midi": 65,
      "hit": false,
      "t": 455250,
      "d": 375,
      "v": 100
    },
    {
      "midi": 50,
      "hit": false,
      "t": 455625,
      "d": 750,
      "v": 100
    },
    {
      "midi": 57,
      "hit": false,
      "t": 455625,
      "d": 750,
      "v": 100
    },
    {
      "midi": 62,
      "hit": false,
      "t": 455625,
      "d": 750,
      "v": 100
    },
    {
      "midi": 65,
      "hit": false,
      "t": 455625,
      "d": 750,
      "v": 100
    },
    {
      "midi": 50,
      "hit": false,
      "t": 456375,
      "d": 375,
      "v": 100
    },
    {
      "midi": 62,
      "hit": false,
      "t": 456375,
      "d": 375,
      "v": 100
    },
    {
      "midi": 65,
      "hit": false,
      "t": 456375,
      "d": 375,
      "v": 100
    },
    {
      "midi": 69,
      "hit": false,
      "t": 456375,
      "d": 375,
      "v": 100
    },
    {
      "midi": 50,
      "hit": false,
      "t": 456750,
      "d": 375,
      "v": 100
    },
    {
      "midi": 62,
      "hit": false,
      "t": 456750,
      "d": 375,
      "v": 100
    },
    {
      "midi": 65,
      "hit": false,
      "t": 456750,
      "d": 375,
      "v": 100
    },
    {
      "midi": 69,
      "hit": false,
      "t": 456750,
      "d": 375,
      "v": 100
    },
    {
      "midi": 50,
      "hit": false,
      "t": 457125,
      "d": 750,
      "v": 100
    },
    {
      "midi": 62,
      "hit": false,
      "t": 457125,
      "d": 750,
      "v": 100
    },
    {
      "midi": 65,
      "hit": false,
      "t": 457125,
      "d": 750,
      "v": 100
    },
    {
      "midi": 69,
      "hit": false,
      "t": 457125,
      "d": 750,
      "v": 100
    },
    {
      "midi": 50,
      "hit": false,
      "t": 457875,
      "d": 375,
      "v": 100
    },
    {
      "midi": 57,
      "hit": false,
      "t": 457875,
      "d": 375,
      "v": 100
    },
    {
      "midi": 62,
      "hit": false,
      "t": 457875,
      "d": 375,
      "v": 100
    },
    {
      "midi": 67,
      "hit": false,
      "t": 457875,
      "d": 375,
      "v": 100
    },
    {
      "midi": 50,
      "hit": false,
      "t": 458250,
      "d": 375,
      "v": 100
    },
    {
      "midi": 57,
      "hit": false,
      "t": 458250,
      "d": 375,
      "v": 100
    },
    {
      "midi": 62,
      "hit": false,
      "t": 458250,
      "d": 375,
      "v": 100
    },
    {
      "midi": 67,
      "hit": false,
      "t": 458250,
      "d": 375,
      "v": 100
    },
    {
      "midi": 50,
      "hit": false,
      "t": 458625,
      "d": 750,
      "v": 100
    },
    {
      "midi": 57,
      "hit": false,
      "t": 458625,
      "d": 750,
      "v": 100
    },
    {
      "midi": 62,
      "hit": false,
      "t": 458625,
      "d": 750,
      "v": 100
    },
    {
      "midi": 67,
      "hit": false,
      "t": 458625,
      "d": 750,
      "v": 100
    },
    {
      "midi": 50,
      "hit": false,
      "t": 459375,
      "d": 375,
      "v": 100
    },
    {
      "midi": 57,
      "hit": false,
      "t": 459375,
      "d": 375,
      "v": 100
    },
    {
      "midi": 62,
      "hit": false,
      "t": 459375,
      "d": 375,
      "v": 100
    },
    {
      "midi": 65,
      "hit": false,
      "t": 459375,
      "d": 375,
      "v": 100
    },
    {
      "midi": 50,
      "hit": false,
      "t": 459750,
      "d": 375,
      "v": 100
    },
    {
      "midi": 57,
      "hit": false,
      "t": 459750,
      "d": 375,
      "v": 100
    },
    {
      "midi": 62,
      "hit": false,
      "t": 459750,
      "d": 375,
      "v": 100
    },
    {
      "midi": 65,
      "hit": false,
      "t": 459750,
      "d": 375,
      "v": 100
    },
    {
      "midi": 50,
      "hit": false,
      "t": 460125,
      "d": 750,
      "v": 100
    },
    {
      "midi": 58,
      "hit": false,
      "t": 460125,
      "d": 750,
      "v": 100
    },
    {
      "midi": 62,
      "hit": false,
      "t": 460125,
      "d": 750,
      "v": 100
    },
    {
      "midi": 64,
      "hit": false,
      "t": 460125,
      "d": 750,
      "v": 100
    },
    {
      "midi": 70,
      "hit": false,
      "t": 460875,
      "d": 375,
      "v": 100
    },
    {
      "midi": 74,
      "hit": false,
      "t": 460875,
      "d": 375,
      "v": 100
    },
    {
      "midi": 76,
      "hit": false,
      "t": 460875,
      "d": 375,
      "v": 100
    },
    {
      "midi": 70,
      "hit": false,
      "t": 461250,
      "d": 368.75,
      "v": 100
    },
    {
      "midi": 74,
      "hit": false,
      "t": 461250,
      "d": 368.75,
      "v": 100
    },
    {
      "midi": 77,
      "hit": false,
      "t": 461250,
      "d": 368.75,
      "v": 100
    },
    {
      "midi": 70,
      "hit": false,
      "t": 461625,
      "d": 750,
      "v": 100
    },
    {
      "midi": 74,
      "hit": false,
      "t": 461625,
      "d": 750,
      "v": 100
    },
    {
      "midi": 77,
      "hit": false,
      "t": 461625,
      "d": 750,
      "v": 100
    },
    {
      "midi": 70,
      "hit": false,
      "t": 462375,
      "d": 368.75,
      "v": 100
    },
    {
      "midi": 76,
      "hit": false,
      "t": 462375,
      "d": 368.75,
      "v": 100
    },
    {
      "midi": 79,
      "hit": false,
      "t": 462375,
      "d": 368.75,
      "v": 100
    },
    {
      "midi": 70,
      "hit": false,
      "t": 462750,
      "d": 368.75,
      "v": 100
    },
    {
      "midi": 76,
      "hit": false,
      "t": 462750,
      "d": 368.75,
      "v": 100
    },
    {
      "midi": 79,
      "hit": false,
      "t": 462750,
      "d": 368.75,
      "v": 100
    },
    {
      "midi": 70,
      "hit": false,
      "t": 463125,
      "d": 750,
      "v": 100
    },
    {
      "midi": 76,
      "hit": false,
      "t": 463125,
      "d": 750,
      "v": 100
    },
    {
      "midi": 79,
      "hit": false,
      "t": 463125,
      "d": 750,
      "v": 100
    },
    {
      "midi": 70,
      "hit": false,
      "t": 463875,
      "d": 368.75,
      "v": 100
    },
    {
      "midi": 77,
      "hit": false,
      "t": 463875,
      "d": 368.75,
      "v": 100
    },
    {
      "midi": 81,
      "hit": false,
      "t": 463875,
      "d": 368.75,
      "v": 100
    },
    {
      "midi": 70,
      "hit": false,
      "t": 464250,
      "d": 368.75,
      "v": 100
    },
    {
      "midi": 77,
      "hit": false,
      "t": 464250,
      "d": 368.75,
      "v": 100
    },
    {
      "midi": 81,
      "hit": false,
      "t": 464250,
      "d": 368.75,
      "v": 100
    },
    {
      "midi": 70,
      "hit": false,
      "t": 464625,
      "d": 368.75,
      "v": 100
    },
    {
      "midi": 77,
      "hit": false,
      "t": 464625,
      "d": 368.75,
      "v": 100
    },
    {
      "midi": 81,
      "hit": false,
      "t": 464625,
      "d": 368.75,
      "v": 100
    },
    {
      "midi": 70,
      "hit": false,
      "t": 465000,
      "d": 368.75,
      "v": 100
    },
    {
      "midi": 77,
      "hit": false,
      "t": 465000,
      "d": 368.75,
      "v": 100
    },
    {
      "midi": 81,
      "hit": false,
      "t": 465000,
      "d": 368.75,
      "v": 100
    },
    {
      "midi": 70,
      "hit": false,
      "t": 465375,
      "d": 368.75,
      "v": 100
    },
    {
      "midi": 76,
      "hit": false,
      "t": 465375,
      "d": 368.75,
      "v": 100
    },
    {
      "midi": 79,
      "hit": false,
      "t": 465375,
      "d": 368.75,
      "v": 100
    },
    {
      "midi": 70,
      "hit": false,
      "t": 465750,
      "d": 750,
      "v": 100
    },
    {
      "midi": 76,
      "hit": false,
      "t": 465750,
      "d": 750,
      "v": 100
    },
    {
      "midi": 79,
      "hit": false,
      "t": 465750,
      "d": 750,
      "v": 100
    },
    {
      "midi": 50,
      "hit": false,
      "t": 466500,
      "d": 750,
      "v": 100
    },
    {
      "midi": 57,
      "hit": false,
      "t": 466500,
      "d": 750,
      "v": 100
    },
    {
      "midi": 62,
      "hit": false,
      "t": 466500,
      "d": 750,
      "v": 100
    },
    {
      "midi": 65,
      "hit": false,
      "t": 466500,
      "d": 750,
      "v": 100
    },
    {
      "midi": 50,
      "hit": false,
      "t": 467250,
      "d": 375,
      "v": 100
    },
    {
      "midi": 57,
      "hit": false,
      "t": 467250,
      "d": 375,
      "v": 100
    },
    {
      "midi": 62,
      "hit": false,
      "t": 467250,
      "d": 375,
      "v": 100
    },
    {
      "midi": 65,
      "hit": false,
      "t": 467250,
      "d": 375,
      "v": 100
    },
    {
      "midi": 50,
      "hit": false,
      "t": 467625,
      "d": 750,
      "v": 100
    },
    {
      "midi": 57,
      "hit": false,
      "t": 467625,
      "d": 750,
      "v": 100
    },
    {
      "midi": 62,
      "hit": false,
      "t": 467625,
      "d": 750,
      "v": 100
    },
    {
      "midi": 65,
      "hit": false,
      "t": 467625,
      "d": 750,
      "v": 100
    },
    {
      "midi": 50,
      "hit": false,
      "t": 468375,
      "d": 375,
      "v": 100
    },
    {
      "midi": 62,
      "hit": false,
      "t": 468375,
      "d": 375,
      "v": 100
    },
    {
      "midi": 65,
      "hit": false,
      "t": 468375,
      "d": 375,
      "v": 100
    },
    {
      "midi": 69,
      "hit": false,
      "t": 468375,
      "d": 375,
      "v": 100
    },
    {
      "midi": 50,
      "hit": false,
      "t": 468750,
      "d": 375,
      "v": 100
    },
    {
      "midi": 62,
      "hit": false,
      "t": 468750,
      "d": 375,
      "v": 100
    },
    {
      "midi": 65,
      "hit": false,
      "t": 468750,
      "d": 375,
      "v": 100
    },
    {
      "midi": 69,
      "hit": false,
      "t": 468750,
      "d": 375,
      "v": 100
    },
    {
      "midi": 50,
      "hit": false,
      "t": 469125,
      "d": 750,
      "v": 100
    },
    {
      "midi": 62,
      "hit": false,
      "t": 469125,
      "d": 750,
      "v": 100
    },
    {
      "midi": 65,
      "hit": false,
      "t": 469125,
      "d": 750,
      "v": 100
    },
    {
      "midi": 69,
      "hit": false,
      "t": 469125,
      "d": 750,
      "v": 100
    },
    {
      "midi": 50,
      "hit": false,
      "t": 469875,
      "d": 375,
      "v": 100
    },
    {
      "midi": 57,
      "hit": false,
      "t": 469875,
      "d": 375,
      "v": 100
    },
    {
      "midi": 62,
      "hit": false,
      "t": 469875,
      "d": 375,
      "v": 100
    },
    {
      "midi": 67,
      "hit": false,
      "t": 469875,
      "d": 375,
      "v": 100
    },
    {
      "midi": 50,
      "hit": false,
      "t": 470250,
      "d": 375,
      "v": 100
    },
    {
      "midi": 57,
      "hit": false,
      "t": 470250,
      "d": 375,
      "v": 100
    },
    {
      "midi": 62,
      "hit": false,
      "t": 470250,
      "d": 375,
      "v": 100
    },
    {
      "midi": 67,
      "hit": false,
      "t": 470250,
      "d": 375,
      "v": 100
    },
    {
      "midi": 50,
      "hit": false,
      "t": 470625,
      "d": 750,
      "v": 100
    },
    {
      "midi": 57,
      "hit": false,
      "t": 470625,
      "d": 750,
      "v": 100
    },
    {
      "midi": 62,
      "hit": false,
      "t": 470625,
      "d": 750,
      "v": 100
    },
    {
      "midi": 67,
      "hit": false,
      "t": 470625,
      "d": 750,
      "v": 100
    },
    {
      "midi": 50,
      "hit": false,
      "t": 471375,
      "d": 375,
      "v": 100
    },
    {
      "midi": 57,
      "hit": false,
      "t": 471375,
      "d": 375,
      "v": 100
    },
    {
      "midi": 62,
      "hit": false,
      "t": 471375,
      "d": 375,
      "v": 100
    },
    {
      "midi": 65,
      "hit": false,
      "t": 471375,
      "d": 375,
      "v": 100
    },
    {
      "midi": 50,
      "hit": false,
      "t": 471750,
      "d": 375,
      "v": 100
    },
    {
      "midi": 57,
      "hit": false,
      "t": 471750,
      "d": 375,
      "v": 100
    },
    {
      "midi": 62,
      "hit": false,
      "t": 471750,
      "d": 375,
      "v": 100
    },
    {
      "midi": 65,
      "hit": false,
      "t": 471750,
      "d": 375,
      "v": 100
    },
    {
      "midi": 50,
      "hit": false,
      "t": 472125,
      "d": 750,
      "v": 100
    },
    {
      "midi": 58,
      "hit": false,
      "t": 472125,
      "d": 750,
      "v": 100
    },
    {
      "midi": 62,
      "hit": false,
      "t": 472125,
      "d": 750,
      "v": 100
    },
    {
      "midi": 64,
      "hit": false,
      "t": 472125,
      "d": 750,
      "v": 100
    },
    {
      "midi": 58,
      "hit": false,
      "t": 472875,
      "d": 750,
      "v": 100
    },
    {
      "midi": 62,
      "hit": false,
      "t": 472875,
      "d": 750,
      "v": 100
    },
    {
      "midi": 58,
      "hit": false,
      "t": 473625,
      "d": 375,
      "v": 100
    },
    {
      "midi": 62,
      "hit": false,
      "t": 473625,
      "d": 375,
      "v": 100
    },
    {
      "midi": 64,
      "hit": false,
      "t": 473625,
      "d": 375,
      "v": 100
    },
    {
      "midi": 58,
      "hit": false,
      "t": 474000,
      "d": 375,
      "v": 100
    },
    {
      "midi": 62,
      "hit": false,
      "t": 474000,
      "d": 375,
      "v": 100
    },
    {
      "midi": 64,
      "hit": false,
      "t": 474000,
      "d": 375,
      "v": 100
    },
    {
      "midi": 58,
      "hit": false,
      "t": 474375,
      "d": 750,
      "v": 100
    },
    {
      "midi": 62,
      "hit": false,
      "t": 474375,
      "d": 750,
      "v": 100
    },
    {
      "midi": 65,
      "hit": false,
      "t": 474375,
      "d": 750,
      "v": 100
    },
    {
      "midi": 58,
      "hit": false,
      "t": 475125,
      "d": 1125,
      "v": 100
    },
    {
      "midi": 62,
      "hit": false,
      "t": 475125,
      "d": 1125,
      "v": 100
    },
    {
      "midi": 67,
      "hit": false,
      "t": 475125,
      "d": 1125,
      "v": 100
    },
    {
      "midi": 58,
      "hit": false,
      "t": 476250,
      "d": 375,
      "v": 100
    },
    {
      "midi": 62,
      "hit": false,
      "t": 476250,
      "d": 375,
      "v": 100
    },
    {
      "midi": 67,
      "hit": false,
      "t": 476250,
      "d": 375,
      "v": 100
    },
    {
      "midi": 58,
      "hit": false,
      "t": 476625,
      "d": 750,
      "v": 100
    },
    {
      "midi": 62,
      "hit": false,
      "t": 476625,
      "d": 750,
      "v": 100
    },
    {
      "midi": 65,
      "hit": false,
      "t": 476625,
      "d": 750,
      "v": 100
    },
    {
      "midi": 58,
      "hit": false,
      "t": 477375,
      "d": 1125,
      "v": 100
    },
    {
      "midi": 62,
      "hit": false,
      "t": 477375,
      "d": 1125,
      "v": 100
    },
    {
      "midi": 64,
      "hit": false,
      "t": 477375,
      "d": 1125,
      "v": 100
    },
    {
      "midi": 50,
      "hit": false,
      "t": 478500,
      "d": 750,
      "v": 100
    },
    {
      "midi": 57,
      "hit": false,
      "t": 478500,
      "d": 750,
      "v": 100
    },
    {
      "midi": 62,
      "hit": false,
      "t": 478500,
      "d": 750,
      "v": 100
    },
    {
      "midi": 65,
      "hit": false,
      "t": 478500,
      "d": 750,
      "v": 100
    },
    {
      "midi": 50,
      "hit": false,
      "t": 479250,
      "d": 375,
      "v": 100
    },
    {
      "midi": 57,
      "hit": false,
      "t": 479250,
      "d": 375,
      "v": 100
    },
    {
      "midi": 62,
      "hit": false,
      "t": 479250,
      "d": 375,
      "v": 100
    },
    {
      "midi": 65,
      "hit": false,
      "t": 479250,
      "d": 375,
      "v": 100
    },
    {
      "midi": 50,
      "hit": false,
      "t": 479625,
      "d": 750,
      "v": 100
    },
    {
      "midi": 57,
      "hit": false,
      "t": 479625,
      "d": 750,
      "v": 100
    },
    {
      "midi": 62,
      "hit": false,
      "t": 479625,
      "d": 750,
      "v": 100
    },
    {
      "midi": 65,
      "hit": false,
      "t": 479625,
      "d": 750,
      "v": 100
    },
    {
      "midi": 50,
      "hit": false,
      "t": 480375,
      "d": 375,
      "v": 100
    },
    {
      "midi": 62,
      "hit": false,
      "t": 480375,
      "d": 375,
      "v": 100
    },
    {
      "midi": 65,
      "hit": false,
      "t": 480375,
      "d": 375,
      "v": 100
    },
    {
      "midi": 69,
      "hit": false,
      "t": 480375,
      "d": 375,
      "v": 100
    },
    {
      "midi": 50,
      "hit": false,
      "t": 480750,
      "d": 375,
      "v": 100
    },
    {
      "midi": 62,
      "hit": false,
      "t": 480750,
      "d": 375,
      "v": 100
    },
    {
      "midi": 65,
      "hit": false,
      "t": 480750,
      "d": 375,
      "v": 100
    },
    {
      "midi": 69,
      "hit": false,
      "t": 480750,
      "d": 375,
      "v": 100
    },
    {
      "midi": 50,
      "hit": false,
      "t": 481125,
      "d": 750,
      "v": 100
    },
    {
      "midi": 62,
      "hit": false,
      "t": 481125,
      "d": 750,
      "v": 100
    },
    {
      "midi": 65,
      "hit": false,
      "t": 481125,
      "d": 750,
      "v": 100
    },
    {
      "midi": 69,
      "hit": false,
      "t": 481125,
      "d": 750,
      "v": 100
    },
    {
      "midi": 50,
      "hit": false,
      "t": 481875,
      "d": 375,
      "v": 100
    },
    {
      "midi": 57,
      "hit": false,
      "t": 481875,
      "d": 375,
      "v": 100
    },
    {
      "midi": 62,
      "hit": false,
      "t": 481875,
      "d": 375,
      "v": 100
    },
    {
      "midi": 67,
      "hit": false,
      "t": 481875,
      "d": 375,
      "v": 100
    },
    {
      "midi": 50,
      "hit": false,
      "t": 482250,
      "d": 375,
      "v": 100
    },
    {
      "midi": 57,
      "hit": false,
      "t": 482250,
      "d": 375,
      "v": 100
    },
    {
      "midi": 62,
      "hit": false,
      "t": 482250,
      "d": 375,
      "v": 100
    },
    {
      "midi": 67,
      "hit": false,
      "t": 482250,
      "d": 375,
      "v": 100
    },
    {
      "midi": 50,
      "hit": false,
      "t": 482625,
      "d": 750,
      "v": 100
    },
    {
      "midi": 57,
      "hit": false,
      "t": 482625,
      "d": 750,
      "v": 100
    },
    {
      "midi": 62,
      "hit": false,
      "t": 482625,
      "d": 750,
      "v": 100
    },
    {
      "midi": 67,
      "hit": false,
      "t": 482625,
      "d": 750,
      "v": 100
    },
    {
      "midi": 50,
      "hit": false,
      "t": 483375,
      "d": 375,
      "v": 100
    },
    {
      "midi": 57,
      "hit": false,
      "t": 483375,
      "d": 375,
      "v": 100
    },
    {
      "midi": 62,
      "hit": false,
      "t": 483375,
      "d": 375,
      "v": 100
    },
    {
      "midi": 65,
      "hit": false,
      "t": 483375,
      "d": 375,
      "v": 100
    },
    {
      "midi": 50,
      "hit": false,
      "t": 483750,
      "d": 375,
      "v": 100
    },
    {
      "midi": 57,
      "hit": false,
      "t": 483750,
      "d": 375,
      "v": 100
    },
    {
      "midi": 62,
      "hit": false,
      "t": 483750,
      "d": 375,
      "v": 100
    },
    {
      "midi": 65,
      "hit": false,
      "t": 483750,
      "d": 375,
      "v": 100
    },
    {
      "midi": 50,
      "hit": false,
      "t": 484125,
      "d": 750,
      "v": 100
    },
    {
      "midi": 58,
      "hit": false,
      "t": 484125,
      "d": 750,
      "v": 100
    },
    {
      "midi": 62,
      "hit": false,
      "t": 484125,
      "d": 750,
      "v": 100
    },
    {
      "midi": 64,
      "hit": false,
      "t": 484125,
      "d": 750,
      "v": 100
    },
    {
      "midi": 58,
      "hit": false,
      "t": 484875,
      "d": 750,
      "v": 100
    },
    {
      "midi": 62,
      "hit": false,
      "t": 484875,
      "d": 750,
      "v": 100
    },
    {
      "midi": 58,
      "hit": false,
      "t": 485625,
      "d": 375,
      "v": 100
    },
    {
      "midi": 62,
      "hit": false,
      "t": 485625,
      "d": 375,
      "v": 100
    },
    {
      "midi": 64,
      "hit": false,
      "t": 485625,
      "d": 375,
      "v": 100
    },
    {
      "midi": 58,
      "hit": false,
      "t": 486000,
      "d": 375,
      "v": 100
    },
    {
      "midi": 62,
      "hit": false,
      "t": 486000,
      "d": 375,
      "v": 100
    },
    {
      "midi": 64,
      "hit": false,
      "t": 486000,
      "d": 375,
      "v": 100
    },
    {
      "midi": 58,
      "hit": false,
      "t": 486375,
      "d": 750,
      "v": 100
    },
    {
      "midi": 62,
      "hit": false,
      "t": 486375,
      "d": 750,
      "v": 100
    },
    {
      "midi": 65,
      "hit": false,
      "t": 486375,
      "d": 750,
      "v": 100
    },
    {
      "midi": 58,
      "hit": false,
      "t": 487125,
      "d": 1125,
      "v": 100
    },
    {
      "midi": 62,
      "hit": false,
      "t": 487125,
      "d": 1125,
      "v": 100
    },
    {
      "midi": 67,
      "hit": false,
      "t": 487125,
      "d": 1125,
      "v": 100
    },
    {
      "midi": 58,
      "hit": false,
      "t": 488250,
      "d": 375,
      "v": 100
    },
    {
      "midi": 62,
      "hit": false,
      "t": 488250,
      "d": 375,
      "v": 100
    },
    {
      "midi": 67,
      "hit": false,
      "t": 488250,
      "d": 375,
      "v": 100
    },
    {
      "midi": 58,
      "hit": false,
      "t": 488625,
      "d": 750,
      "v": 100
    },
    {
      "midi": 62,
      "hit": false,
      "t": 488625,
      "d": 750,
      "v": 100
    },
    {
      "midi": 65,
      "hit": false,
      "t": 488625,
      "d": 750,
      "v": 100
    },
    {
      "midi": 58,
      "hit": false,
      "t": 489375,
      "d": 1125,
      "v": 100
    },
    {
      "midi": 62,
      "hit": false,
      "t": 489375,
      "d": 1125,
      "v": 100
    },
    {
      "midi": 64,
      "hit": false,
      "t": 489375,
      "d": 1125,
      "v": 100
    },
    {
      "midi": 50,
      "hit": false,
      "t": 490500,
      "d": 750,
      "v": 100
    },
    {
      "midi": 57,
      "hit": false,
      "t": 490500,
      "d": 750,
      "v": 100
    },
    {
      "midi": 62,
      "hit": false,
      "t": 490500,
      "d": 750,
      "v": 100
    },
    {
      "midi": 65,
      "hit": false,
      "t": 490500,
      "d": 750,
      "v": 100
    },
    {
      "midi": 50,
      "hit": false,
      "t": 491250,
      "d": 375,
      "v": 100
    },
    {
      "midi": 57,
      "hit": false,
      "t": 491250,
      "d": 375,
      "v": 100
    },
    {
      "midi": 62,
      "hit": false,
      "t": 491250,
      "d": 375,
      "v": 100
    },
    {
      "midi": 65,
      "hit": false,
      "t": 491250,
      "d": 375,
      "v": 100
    },
    {
      "midi": 50,
      "hit": false,
      "t": 491625,
      "d": 750,
      "v": 100
    },
    {
      "midi": 57,
      "hit": false,
      "t": 491625,
      "d": 750,
      "v": 100
    },
    {
      "midi": 62,
      "hit": false,
      "t": 491625,
      "d": 750,
      "v": 100
    },
    {
      "midi": 65,
      "hit": false,
      "t": 491625,
      "d": 750,
      "v": 100
    },
    {
      "midi": 50,
      "hit": false,
      "t": 492375,
      "d": 375,
      "v": 100
    },
    {
      "midi": 62,
      "hit": false,
      "t": 492375,
      "d": 375,
      "v": 100
    },
    {
      "midi": 65,
      "hit": false,
      "t": 492375,
      "d": 375,
      "v": 100
    },
    {
      "midi": 69,
      "hit": false,
      "t": 492375,
      "d": 375,
      "v": 100
    },
    {
      "midi": 50,
      "hit": false,
      "t": 492750,
      "d": 375,
      "v": 100
    },
    {
      "midi": 62,
      "hit": false,
      "t": 492750,
      "d": 375,
      "v": 100
    },
    {
      "midi": 65,
      "hit": false,
      "t": 492750,
      "d": 375,
      "v": 100
    },
    {
      "midi": 69,
      "hit": false,
      "t": 492750,
      "d": 375,
      "v": 100
    },
    {
      "midi": 50,
      "hit": false,
      "t": 493125,
      "d": 750,
      "v": 100
    },
    {
      "midi": 62,
      "hit": false,
      "t": 493125,
      "d": 750,
      "v": 100
    },
    {
      "midi": 65,
      "hit": false,
      "t": 493125,
      "d": 750,
      "v": 100
    },
    {
      "midi": 69,
      "hit": false,
      "t": 493125,
      "d": 750,
      "v": 100
    },
    {
      "midi": 50,
      "hit": false,
      "t": 493875,
      "d": 375,
      "v": 100
    },
    {
      "midi": 57,
      "hit": false,
      "t": 493875,
      "d": 375,
      "v": 100
    },
    {
      "midi": 62,
      "hit": false,
      "t": 493875,
      "d": 375,
      "v": 100
    },
    {
      "midi": 67,
      "hit": false,
      "t": 493875,
      "d": 375,
      "v": 100
    },
    {
      "midi": 50,
      "hit": false,
      "t": 494250,
      "d": 375,
      "v": 100
    },
    {
      "midi": 57,
      "hit": false,
      "t": 494250,
      "d": 375,
      "v": 100
    },
    {
      "midi": 62,
      "hit": false,
      "t": 494250,
      "d": 375,
      "v": 100
    },
    {
      "midi": 67,
      "hit": false,
      "t": 494250,
      "d": 375,
      "v": 100
    },
    {
      "midi": 50,
      "hit": false,
      "t": 494625,
      "d": 750,
      "v": 100
    },
    {
      "midi": 57,
      "hit": false,
      "t": 494625,
      "d": 750,
      "v": 100
    },
    {
      "midi": 62,
      "hit": false,
      "t": 494625,
      "d": 750,
      "v": 100
    },
    {
      "midi": 67,
      "hit": false,
      "t": 494625,
      "d": 750,
      "v": 100
    },
    {
      "midi": 50,
      "hit": false,
      "t": 495375,
      "d": 375,
      "v": 100
    },
    {
      "midi": 57,
      "hit": false,
      "t": 495375,
      "d": 375,
      "v": 100
    },
    {
      "midi": 62,
      "hit": false,
      "t": 495375,
      "d": 375,
      "v": 100
    },
    {
      "midi": 65,
      "hit": false,
      "t": 495375,
      "d": 375,
      "v": 100
    },
    {
      "midi": 50,
      "hit": false,
      "t": 495750,
      "d": 375,
      "v": 100
    },
    {
      "midi": 57,
      "hit": false,
      "t": 495750,
      "d": 375,
      "v": 100
    },
    {
      "midi": 62,
      "hit": false,
      "t": 495750,
      "d": 375,
      "v": 100
    },
    {
      "midi": 65,
      "hit": false,
      "t": 495750,
      "d": 375,
      "v": 100
    },
    {
      "midi": 50,
      "hit": false,
      "t": 496125,
      "d": 750,
      "v": 100
    },
    {
      "midi": 58,
      "hit": false,
      "t": 496125,
      "d": 750,
      "v": 100
    },
    {
      "midi": 62,
      "hit": false,
      "t": 496125,
      "d": 750,
      "v": 100
    },
    {
      "midi": 64,
      "hit": false,
      "t": 496125,
      "d": 750,
      "v": 100
    },
    {
      "midi": 58,
      "hit": false,
      "t": 496875,
      "d": 750,
      "v": 100
    },
    {
      "midi": 62,
      "hit": false,
      "t": 496875,
      "d": 750,
      "v": 100
    },
    {
      "midi": 58,
      "hit": false,
      "t": 497625,
      "d": 375,
      "v": 100
    },
    {
      "midi": 62,
      "hit": false,
      "t": 497625,
      "d": 375,
      "v": 100
    },
    {
      "midi": 64,
      "hit": false,
      "t": 497625,
      "d": 375,
      "v": 100
    },
    {
      "midi": 58,
      "hit": false,
      "t": 498000,
      "d": 375,
      "v": 100
    },
    {
      "midi": 62,
      "hit": false,
      "t": 498000,
      "d": 375,
      "v": 100
    },
    {
      "midi": 64,
      "hit": false,
      "t": 498000,
      "d": 375,
      "v": 100
    },
    {
      "midi": 58,
      "hit": false,
      "t": 498375,
      "d": 750,
      "v": 100
    },
    {
      "midi": 62,
      "hit": false,
      "t": 498375,
      "d": 750,
      "v": 100
    },
    {
      "midi": 65,
      "hit": false,
      "t": 498375,
      "d": 750,
      "v": 100
    },
    {
      "midi": 58,
      "hit": false,
      "t": 499125,
      "d": 1125,
      "v": 100
    },
    {
      "midi": 62,
      "hit": false,
      "t": 499125,
      "d": 1125,
      "v": 100
    },
    {
      "midi": 67,
      "hit": false,
      "t": 499125,
      "d": 1125,
      "v": 100
    },
    {
      "midi": 58,
      "hit": false,
      "t": 500250,
      "d": 375,
      "v": 100
    },
    {
      "midi": 62,
      "hit": false,
      "t": 500250,
      "d": 375,
      "v": 100
    },
    {
      "midi": 67,
      "hit": false,
      "t": 500250,
      "d": 375,
      "v": 100
    },
    {
      "midi": 58,
      "hit": false,
      "t": 500625,
      "d": 750,
      "v": 100
    },
    {
      "midi": 62,
      "hit": false,
      "t": 500625,
      "d": 750,
      "v": 100
    },
    {
      "midi": 65,
      "hit": false,
      "t": 500625,
      "d": 750,
      "v": 100
    },
    {
      "midi": 58,
      "hit": false,
      "t": 501375,
      "d": 1125,
      "v": 100
    },
    {
      "midi": 62,
      "hit": false,
      "t": 501375,
      "d": 1125,
      "v": 100
    },
    {
      "midi": 64,
      "hit": false,
      "t": 501375,
      "d": 1125,
      "v": 100
    },
    {
      "midi": 50,
      "hit": false,
      "t": 502500,
      "d": 750,
      "v": 100
    },
    {
      "midi": 57,
      "hit": false,
      "t": 502500,
      "d": 750,
      "v": 100
    },
    {
      "midi": 62,
      "hit": false,
      "t": 502500,
      "d": 750,
      "v": 100
    },
    {
      "midi": 65,
      "hit": false,
      "t": 502500,
      "d": 750,
      "v": 100
    },
    {
      "midi": 50,
      "hit": false,
      "t": 503250,
      "d": 375,
      "v": 100
    },
    {
      "midi": 57,
      "hit": false,
      "t": 503250,
      "d": 375,
      "v": 100
    },
    {
      "midi": 62,
      "hit": false,
      "t": 503250,
      "d": 375,
      "v": 100
    },
    {
      "midi": 65,
      "hit": false,
      "t": 503250,
      "d": 375,
      "v": 100
    },
    {
      "midi": 50,
      "hit": false,
      "t": 503625,
      "d": 750,
      "v": 100
    },
    {
      "midi": 57,
      "hit": false,
      "t": 503625,
      "d": 750,
      "v": 100
    },
    {
      "midi": 62,
      "hit": false,
      "t": 503625,
      "d": 750,
      "v": 100
    },
    {
      "midi": 65,
      "hit": false,
      "t": 503625,
      "d": 750,
      "v": 100
    },
    {
      "midi": 50,
      "hit": false,
      "t": 504375,
      "d": 375,
      "v": 100
    },
    {
      "midi": 62,
      "hit": false,
      "t": 504375,
      "d": 375,
      "v": 100
    },
    {
      "midi": 65,
      "hit": false,
      "t": 504375,
      "d": 375,
      "v": 100
    },
    {
      "midi": 69,
      "hit": false,
      "t": 504375,
      "d": 375,
      "v": 100
    },
    {
      "midi": 50,
      "hit": false,
      "t": 504750,
      "d": 375,
      "v": 100
    },
    {
      "midi": 62,
      "hit": false,
      "t": 504750,
      "d": 375,
      "v": 100
    },
    {
      "midi": 65,
      "hit": false,
      "t": 504750,
      "d": 375,
      "v": 100
    },
    {
      "midi": 69,
      "hit": false,
      "t": 504750,
      "d": 375,
      "v": 100
    },
    {
      "midi": 50,
      "hit": false,
      "t": 505125,
      "d": 750,
      "v": 100
    },
    {
      "midi": 62,
      "hit": false,
      "t": 505125,
      "d": 750,
      "v": 100
    },
    {
      "midi": 65,
      "hit": false,
      "t": 505125,
      "d": 750,
      "v": 100
    },
    {
      "midi": 69,
      "hit": false,
      "t": 505125,
      "d": 750,
      "v": 100
    },
    {
      "midi": 50,
      "hit": false,
      "t": 505875,
      "d": 375,
      "v": 100
    },
    {
      "midi": 57,
      "hit": false,
      "t": 505875,
      "d": 375,
      "v": 100
    },
    {
      "midi": 62,
      "hit": false,
      "t": 505875,
      "d": 375,
      "v": 100
    },
    {
      "midi": 67,
      "hit": false,
      "t": 505875,
      "d": 375,
      "v": 100
    },
    {
      "midi": 50,
      "hit": false,
      "t": 506250,
      "d": 375,
      "v": 100
    },
    {
      "midi": 57,
      "hit": false,
      "t": 506250,
      "d": 375,
      "v": 100
    },
    {
      "midi": 62,
      "hit": false,
      "t": 506250,
      "d": 375,
      "v": 100
    },
    {
      "midi": 67,
      "hit": false,
      "t": 506250,
      "d": 375,
      "v": 100
    },
    {
      "midi": 50,
      "hit": false,
      "t": 506625,
      "d": 750,
      "v": 100
    },
    {
      "midi": 57,
      "hit": false,
      "t": 506625,
      "d": 750,
      "v": 100
    },
    {
      "midi": 62,
      "hit": false,
      "t": 506625,
      "d": 750,
      "v": 100
    },
    {
      "midi": 67,
      "hit": false,
      "t": 506625,
      "d": 750,
      "v": 100
    },
    {
      "midi": 50,
      "hit": false,
      "t": 507375,
      "d": 375,
      "v": 100
    },
    {
      "midi": 57,
      "hit": false,
      "t": 507375,
      "d": 375,
      "v": 100
    },
    {
      "midi": 62,
      "hit": false,
      "t": 507375,
      "d": 375,
      "v": 100
    },
    {
      "midi": 65,
      "hit": false,
      "t": 507375,
      "d": 375,
      "v": 100
    },
    {
      "midi": 50,
      "hit": false,
      "t": 507750,
      "d": 375,
      "v": 100
    },
    {
      "midi": 57,
      "hit": false,
      "t": 507750,
      "d": 375,
      "v": 100
    },
    {
      "midi": 62,
      "hit": false,
      "t": 507750,
      "d": 375,
      "v": 100
    },
    {
      "midi": 65,
      "hit": false,
      "t": 507750,
      "d": 375,
      "v": 100
    },
    {
      "midi": 50,
      "hit": false,
      "t": 508125,
      "d": 750,
      "v": 100
    },
    {
      "midi": 58,
      "hit": false,
      "t": 508125,
      "d": 750,
      "v": 100
    },
    {
      "midi": 62,
      "hit": false,
      "t": 508125,
      "d": 750,
      "v": 100
    },
    {
      "midi": 64,
      "hit": false,
      "t": 508125,
      "d": 750,
      "v": 100
    },
    {
      "midi": 58,
      "hit": false,
      "t": 508875,
      "d": 750,
      "v": 100
    },
    {
      "midi": 62,
      "hit": false,
      "t": 508875,
      "d": 750,
      "v": 100
    },
    {
      "midi": 58,
      "hit": false,
      "t": 509625,
      "d": 375,
      "v": 100
    },
    {
      "midi": 62,
      "hit": false,
      "t": 509625,
      "d": 375,
      "v": 100
    },
    {
      "midi": 64,
      "hit": false,
      "t": 509625,
      "d": 375,
      "v": 100
    },
    {
      "midi": 58,
      "hit": false,
      "t": 510000,
      "d": 375,
      "v": 100
    },
    {
      "midi": 62,
      "hit": false,
      "t": 510000,
      "d": 375,
      "v": 100
    },
    {
      "midi": 64,
      "hit": false,
      "t": 510000,
      "d": 375,
      "v": 100
    },
    {
      "midi": 58,
      "hit": false,
      "t": 510375,
      "d": 750,
      "v": 100
    },
    {
      "midi": 62,
      "hit": false,
      "t": 510375,
      "d": 750,
      "v": 100
    },
    {
      "midi": 65,
      "hit": false,
      "t": 510375,
      "d": 750,
      "v": 100
    },
    {
      "midi": 58,
      "hit": false,
      "t": 511125,
      "d": 1125,
      "v": 100
    },
    {
      "midi": 62,
      "hit": false,
      "t": 511125,
      "d": 1125,
      "v": 100
    },
    {
      "midi": 67,
      "hit": false,
      "t": 511125,
      "d": 1125,
      "v": 100
    },
    {
      "midi": 58,
      "hit": false,
      "t": 512250,
      "d": 375,
      "v": 100
    },
    {
      "midi": 62,
      "hit": false,
      "t": 512250,
      "d": 375,
      "v": 100
    },
    {
      "midi": 67,
      "hit": false,
      "t": 512250,
      "d": 375,
      "v": 100
    },
    {
      "midi": 58,
      "hit": false,
      "t": 512625,
      "d": 750,
      "v": 100
    },
    {
      "midi": 62,
      "hit": false,
      "t": 512625,
      "d": 750,
      "v": 100
    },
    {
      "midi": 65,
      "hit": false,
      "t": 512625,
      "d": 750,
      "v": 100
    },
    {
      "midi": 58,
      "hit": false,
      "t": 513375,
      "d": 1125,
      "v": 100
    },
    {
      "midi": 62,
      "hit": false,
      "t": 513375,
      "d": 1125,
      "v": 100
    },
    {
      "midi": 64,
      "hit": false,
      "t": 513375,
      "d": 1125,
      "v": 100
    },
    {
      "midi": 62,
      "hit": false,
      "t": 514500,
      "d": 375,
      "v": 100
    },
    {
      "midi": 65,
      "hit": false,
      "t": 514500,
      "d": 375,
      "v": 100
    },
    {
      "midi": 38,
      "hit": false,
      "t": 514500,
      "d": 1500,
      "v": 100
    },
    {
      "midi": 64,
      "hit": false,
      "t": 514875,
      "d": 375,
      "v": 100
    },
    {
      "midi": 67,
      "hit": false,
      "t": 514875,
      "d": 375,
      "v": 100
    },
    {
      "midi": 65,
      "hit": false,
      "t": 515250,
      "d": 375,
      "v": 100
    },
    {
      "midi": 69,
      "hit": false,
      "t": 515250,
      "d": 375,
      "v": 100
    },
    {
      "midi": 62,
      "hit": false,
      "t": 515625,
      "d": 750,
      "v": 100
    },
    {
      "midi": 65,
      "hit": false,
      "t": 515625,
      "d": 750,
      "v": 100
    },
    {
      "midi": 50,
      "hit": false,
      "t": 516000,
      "d": 750,
      "v": 100
    },
    {
      "midi": 57,
      "hit": false,
      "t": 516375,
      "d": 750,
      "v": 100
    },
    {
      "midi": 62,
      "hit": false,
      "t": 516375,
      "d": 750,
      "v": 100
    },
    {
      "midi": 65,
      "hit": false,
      "t": 516375,
      "d": 750,
      "v": 100
    },
    {
      "midi": 50,
      "hit": false,
      "t": 516750,
      "d": 750,
      "v": 100
    },
    {
      "midi": 58,
      "hit": false,
      "t": 517125,
      "d": 750,
      "v": 100
    },
    {
      "midi": 62,
      "hit": false,
      "t": 517125,
      "d": 750,
      "v": 100
    },
    {
      "midi": 67,
      "hit": false,
      "t": 517125,
      "d": 750,
      "v": 100
    },
    {
      "midi": 50,
      "hit": false,
      "t": 517500,
      "d": 750,
      "v": 100
    },
    {
      "midi": 57,
      "hit": false,
      "t": 517875,
      "d": 750,
      "v": 100
    },
    {
      "midi": 62,
      "hit": false,
      "t": 517875,
      "d": 750,
      "v": 100
    },
    {
      "midi": 64,
      "hit": false,
      "t": 517875,
      "d": 750,
      "v": 100
    },
    {
      "midi": 52,
      "hit": false,
      "t": 518250,
      "d": 375,
      "v": 100
    },
    {
      "midi": 55,
      "hit": false,
      "t": 518625,
      "d": 750,
      "v": 100
    },
    {
      "midi": 60,
      "hit": false,
      "t": 518625,
      "d": 750,
      "v": 100
    },
    {
      "midi": 64,
      "hit": false,
      "t": 518625,
      "d": 750,
      "v": 100
    },
    {
      "midi": 53,
      "hit": false,
      "t": 518625,
      "d": 1500,
      "v": 100
    },
    {
      "midi": 57,
      "hit": false,
      "t": 519375,
      "d": 750,
      "v": 100
    },
    {
      "midi": 62,
      "hit": false,
      "t": 519375,
      "d": 750,
      "v": 100
    },
    {
      "midi": 65,
      "hit": false,
      "t": 519375,
      "d": 750,
      "v": 100
    },
    {
      "midi": 45,
      "hit": false,
      "t": 520125,
      "d": 3375,
      "v": 100
    },
    {
      "midi": 46,
      "hit": false,
      "t": 520125,
      "d": 3375,
      "v": 100
    },
    {
      "midi": 57,
      "hit": false,
      "t": 520125,
      "d": 3375,
      "v": 100
    },
    {
      "midi": 58,
      "hit": false,
      "t": 520125,
      "d": 3375,
      "v": 100
    },
    {
      "midi": 64,
      "hit": false,
      "t": 520125,
      "d": 3375,
      "v": 100
    },
    {
      "midi": 62,
      "hit": false,
      "t": 523500,
      "d": 375,
      "v": 100
    },
    {
      "midi": 50,
      "hit": false,
      "t": 523500,
      "d": 2250,
      "v": 100
    },
    {
      "midi": 64,
      "hit": false,
      "t": 523875,
      "d": 375,
      "v": 100
    },
    {
      "midi": 62,
      "hit": false,
      "t": 524250,
      "d": 375,
      "v": 100
    },
    {
      "midi": 58,
      "hit": false,
      "t": 524625,
      "d": 375,
      "v": 100
    },
    {
      "midi": 65,
      "hit": false,
      "t": 525000,
      "d": 1125,
      "v": 100
    },
    {
      "midi": 57,
      "hit": false,
      "t": 525750,
      "d": 750,
      "v": 100
    },
    {
      "midi": 58,
      "hit": false,
      "t": 525750,
      "d": 750,
      "v": 100
    },
    {
      "midi": 64,
      "hit": false,
      "t": 526125,
      "d": 375,
      "v": 100
    },
    {
      "midi": 38,
      "hit": false,
      "t": 526500,
      "d": 750,
      "v": 100
    },
    {
      "midi": 57,
      "hit": false,
      "t": 526500,
      "d": 1500,
      "v": 100
    },
    {
      "midi": 61,
      "hit": false,
      "t": 526500,
      "d": 1500,
      "v": 100
    },
    {
      "midi": 64,
      "hit": false,
      "t": 526500,
      "d": 1500,
      "v": 100
    },
    {
      "midi": 45,
      "hit": false,
      "t": 527250,
      "d": 750,
      "v": 100
    },
    {
      "midi": 64,
      "hit": false,
      "t": 528000,
      "d": 375,
      "v": 100
    },
    {
      "midi": 52,
      "hit": false,
      "t": 528000,
      "d": 1500,
      "v": 100
    },
    {
      "midi": 65,
      "hit": false,
      "t": 528375,
      "d": 375,
      "v": 100
    },
    {
      "midi": 64,
      "hit": false,
      "t": 528750,
      "d": 375,
      "v": 100
    },
    {
      "midi": 61,
      "hit": false,
      "t": 529125,
      "d": 375,
      "v": 100
    },
    {
      "midi": 49,
      "hit": false,
      "t": 529500,
      "d": 750,
      "v": 100
    },
    {
      "midi": 67,
      "hit": false,
      "t": 529500,
      "d": 1125,
      "v": 100
    },
    {
      "midi": 61,
      "hit": false,
      "t": 530250,
      "d": 750,
      "v": 100
    },
    {
      "midi": 65,
      "hit": false,
      "t": 530625,
      "d": 375,
      "v": 100
    },
    {
      "midi": 38,
      "hit": false,
      "t": 531000,
      "d": 750,
      "v": 100
    },
    {
      "midi": 57,
      "hit": false,
      "t": 531000,
      "d": 1500,
      "v": 100
    },
    {
      "midi": 62,
      "hit": false,
      "t": 531000,
      "d": 1500,
      "v": 100
    },
    {
      "midi": 65,
      "hit": false,
      "t": 531000,
      "d": 1500,
      "v": 100
    },
    {
      "midi": 45,
      "hit": false,
      "t": 531750,
      "d": 750,
      "v": 100
    },
    {
      "midi": 65,
      "hit": false,
      "t": 532500,
      "d": 375,
      "v": 100
    },
    {
      "midi": 50,
      "hit": false,
      "t": 532500,
      "d": 1500,
      "v": 100
    },
    {
      "midi": 67,
      "hit": false,
      "t": 532875,
      "d": 375,
      "v": 100
    },
    {
      "midi": 65,
      "hit": false,
      "t": 533250,
      "d": 375,
      "v": 100
    },
    {
      "midi": 62,
      "hit": false,
      "t": 533625,
      "d": 375,
      "v": 100
    },
    {
      "midi": 53,
      "hit": false,
      "t": 534000,
      "d": 750,
      "v": 100
    },
    {
      "midi": 69,
      "hit": false,
      "t": 534000,
      "d": 1125,
      "v": 100
    },
    {
      "midi": 62,
      "hit": false,
      "t": 534750,
      "d": 750,
      "v": 100
    },
    {
      "midi": 67,
      "hit": false,
      "t": 535125,
      "d": 375,
      "v": 100
    },
    {
      "midi": 38,
      "hit": false,
      "t": 535500,
      "d": 750,
      "v": 100
    },
    {
      "midi": 61,
      "hit": false,
      "t": 535500,
      "d": 1500,
      "v": 100
    },
    {
      "midi": 64,
      "hit": false,
      "t": 535500,
      "d": 1500,
      "v": 100
    },
    {
      "midi": 67,
      "hit": false,
      "t": 535500,
      "d": 1500,
      "v": 100
    },
    {
      "midi": 45,
      "hit": false,
      "t": 536250,
      "d": 750,
      "v": 100
    },
    {
      "midi": 67,
      "hit": false,
      "t": 537000,
      "d": 375,
      "v": 100
    },
    {
      "midi": 52,
      "hit": false,
      "t": 537000,
      "d": 1500,
      "v": 100
    },
    {
      "midi": 69,
      "hit": false,
      "t": 537375,
      "d": 375,
      "v": 100
    },
    {
      "midi": 67,
      "hit": false,
      "t": 537750,
      "d": 375,
      "v": 100
    },
    {
      "midi": 64,
      "hit": false,
      "t": 538125,
      "d": 375,
      "v": 100
    },
    {
      "midi": 55,
      "hit": false,
      "t": 538500,
      "d": 750,
      "v": 100
    },
    {
      "midi": 70,
      "hit": false,
      "t": 538500,
      "d": 1125,
      "v": 100
    },
    {
      "midi": 64,
      "hit": false,
      "t": 539250,
      "d": 750,
      "v": 100
    },
    {
      "midi": 69,
      "hit": false,
      "t": 539625,
      "d": 375,
      "v": 100
    },
    {
      "midi": 38,
      "hit": false,
      "t": 540000,
      "d": 750,
      "v": 100
    },
    {
      "midi": 62,
      "hit": false,
      "t": 540000,
      "d": 1500,
      "v": 100
    },
    {
      "midi": 65,
      "hit": false,
      "t": 540000,
      "d": 1500,
      "v": 100
    },
    {
      "midi": 69,
      "hit": false,
      "t": 540000,
      "d": 1500,
      "v": 100
    },
    {
      "midi": 45,
      "hit": false,
      "t": 540750,
      "d": 750,
      "v": 100
    },
    {
      "midi": 69,
      "hit": false,
      "t": 541500,
      "d": 375,
      "v": 100
    },
    {
      "midi": 53,
      "hit": false,
      "t": 541500,
      "d": 1500,
      "v": 100
    },
    {
      "midi": 70,
      "hit": false,
      "t": 541875,
      "d": 375,
      "v": 100
    },
    {
      "midi": 69,
      "hit": false,
      "t": 542250,
      "d": 375,
      "v": 100
    },
    {
      "midi": 65,
      "hit": false,
      "t": 542625,
      "d": 375,
      "v": 100
    },
    {
      "midi": 57,
      "hit": false,
      "t": 543000,
      "d": 750,
      "v": 100
    },
    {
      "midi": 72,
      "hit": false,
      "t": 543000,
      "d": 1125,
      "v": 100
    },
    {
      "midi": 65,
      "hit": false,
      "t": 543750,
      "d": 750,
      "v": 100
    },
    {
      "midi": 70,
      "hit": false,
      "t": 544125,
      "d": 375,
      "v": 100
    },
    {
      "midi": 43,
      "hit": false,
      "t": 544500,
      "d": 750,
      "v": 100
    },
    {
      "midi": 64,
      "hit": false,
      "t": 544500,
      "d": 1500,
      "v": 100
    },
    {
      "midi": 67,
      "hit": false,
      "t": 544500,
      "d": 1500,
      "v": 100
    },
    {
      "midi": 70,
      "hit": false,
      "t": 544500,
      "d": 1500,
      "v": 100
    },
    {
      "midi": 41,
      "hit": false,
      "t": 545250,
      "d": 750,
      "v": 100
    },
    {
      "midi": 70,
      "hit": false,
      "t": 546000,
      "d": 375,
      "v": 100
    },
    {
      "midi": 40,
      "hit": false,
      "t": 546000,
      "d": 750,
      "v": 100
    },
    {
      "midi": 64,
      "hit": false,
      "t": 546000,
      "d": 1500,
      "v": 100
    },
    {
      "midi": 69,
      "hit": false,
      "t": 546375,
      "d": 375,
      "v": 100
    },
    {
      "midi": 67,
      "hit": false,
      "t": 546750,
      "d": 375,
      "v": 100
    },
    {
      "midi": 38,
      "hit": false,
      "t": 546750,
      "d": 750,
      "v": 100
    },
    {
      "midi": 69,
      "hit": false,
      "t": 547125,
      "d": 375,
      "v": 100
    },
    {
      "midi": 37,
      "hit": false,
      "t": 547500,
      "d": 750,
      "v": 100
    },
    {
      "midi": 64,
      "hit": false,
      "t": 547500,
      "d": 1125,
      "v": 100
    },
    {
      "midi": 70,
      "hit": false,
      "t": 547500,
      "d": 1125,
      "v": 100
    },
    {
      "midi": 46,
      "hit": false,
      "t": 548250,
      "d": 750,
      "v": 100
    },
    {
      "midi": 69,
      "hit": false,
      "t": 548625,
      "d": 375,
      "v": 100
    },
    {
      "midi": 45,
      "hit": false,
      "t": 549000,
      "d": 750,
      "v": 100
    },
    {
      "midi": 62,
      "hit": false,
      "t": 549000,
      "d": 1500,
      "v": 100
    },
    {
      "midi": 65,
      "hit": false,
      "t": 549000,
      "d": 1500,
      "v": 100
    },
    {
      "midi": 69,
      "hit": false,
      "t": 549000,
      "d": 1500,
      "v": 100
    },
    {
      "midi": 50,
      "hit": false,
      "t": 549750,
      "d": 750,
      "v": 100
    },
    {
      "midi": 69,
      "hit": false,
      "t": 550500,
      "d": 375,
      "v": 100
    },
    {
      "midi": 53,
      "hit": false,
      "t": 550500,
      "d": 750,
      "v": 100
    },
    {
      "midi": 62,
      "hit": false,
      "t": 550500,
      "d": 1500,
      "v": 100
    },
    {
      "midi": 67,
      "hit": false,
      "t": 550875,
      "d": 375,
      "v": 100
    },
    {
      "midi": 65,
      "hit": false,
      "t": 551250,
      "d": 375,
      "v": 100
    },
    {
      "midi": 50,
      "hit": false,
      "t": 551250,
      "d": 750,
      "v": 100
    },
    {
      "midi": 67,
      "hit": false,
      "t": 551625,
      "d": 375,
      "v": 100
    },
    {
      "midi": 45,
      "hit": false,
      "t": 552000,
      "d": 750,
      "v": 100
    },
    {
      "midi": 62,
      "hit": false,
      "t": 552000,
      "d": 1125,
      "v": 100
    },
    {
      "midi": 64,
      "hit": false,
      "t": 552000,
      "d": 1125,
      "v": 100
    },
    {
      "midi": 69,
      "hit": false,
      "t": 552000,
      "d": 1125,
      "v": 100
    },
    {
      "midi": 50,
      "hit": false,
      "t": 552750,
      "d": 750,
      "v": 100
    },
    {
      "midi": 67,
      "hit": false,
      "t": 553125,
      "d": 375,
      "v": 100
    },
    {
      "midi": 52,
      "hit": false,
      "t": 553500,
      "d": 750,
      "v": 100
    },
    {
      "midi": 61,
      "hit": false,
      "t": 553500,
      "d": 1500,
      "v": 100
    },
    {
      "midi": 64,
      "hit": false,
      "t": 553500,
      "d": 1500,
      "v": 100
    },
    {
      "midi": 67,
      "hit": false,
      "t": 553500,
      "d": 1500,
      "v": 100
    },
    {
      "midi": 45,
      "hit": false,
      "t": 554250,
      "d": 750,
      "v": 100
    },
    {
      "midi": 65,
      "hit": false,
      "t": 555000,
      "d": 375,
      "v": 100
    },
    {
      "midi": 46,
      "hit": false,
      "t": 555000,
      "d": 750,
      "v": 100
    },
    {
      "midi": 58,
      "hit": false,
      "t": 555000,
      "d": 3000,
      "v": 100
    },
    {
      "midi": 64,
      "hit": false,
      "t": 555375,
      "d": 375,
      "v": 100
    },
    {
      "midi": 62,
      "hit": false,
      "t": 555750,
      "d": 375,
      "v": 100
    },
    {
      "midi": 43,
      "hit": false,
      "t": 555750,
      "d": 750,
      "v": 100
    },
    {
      "midi": 64,
      "hit": false,
      "t": 556125,
      "d": 375,
      "v": 100
    },
    {
      "midi": 45,
      "hit": false,
      "t": 556500,
      "d": 750,
      "v": 100
    },
    {
      "midi": 55,
      "hit": false,
      "t": 556500,
      "d": 1125,
      "v": 100
    },
    {
      "midi": 61,
      "hit": false,
      "t": 556500,
      "d": 1125,
      "v": 100
    },
    {
      "midi": 65,
      "hit": false,
      "t": 556500,
      "d": 1125,
      "v": 100
    },
    {
      "midi": 57,
      "hit": false,
      "t": 557250,
      "d": 750,
      "v": 100
    },
    {
      "midi": 64,
      "hit": false,
      "t": 557625,
      "d": 375,
      "v": 100
    },
    {
      "midi": 38,
      "hit": false,
      "t": 558000,
      "d": 6000,
      "v": 100
    },
    {
      "midi": 53,
      "hit": false,
      "t": 558000,
      "d": 6000,
      "v": 100
    },
    {
      "midi": 57,
      "hit": false,
      "t": 558000,
      "d": 6000,
      "v": 100
    },
    {
      "midi": 62,
      "hit": false,
      "t": 558000,
      "d": 6000,
      "v": 100
    }
  ]
}