{
  "jsonPath": "Rock/Progressive Rock/Dream Theater/surrounded.json",
  "path": "Rock\\Progressive Rock\\Dream Theater\\Surrounded.mid",
  "name": "Surrounded",
  "difficulty": "Advanced",
  "bpm": 66.000066000066,
  "notes": [
    {
      "midi": 43,
      "hit": false,
      "t": 7272.72,
      "d": 1515.1500000000005,
      "v": 127
    },
    {
      "midi": 50,
      "hit": false,
      "t": 7272.72,
      "d": 1526.9871093749998,
      "v": 127
    },
    {
      "midi": 57,
      "hit": false,
      "t": 7272.72,
      "d": 1550.6613281250002,
      "v": 127
    },
    {
      "midi": 55,
      "hit": false,
      "t": 10909.08,
      "d": 1472.5364062499993,
      "v": 127
    },
    {
      "midi": 62,
      "hit": false,
      "t": 10909.08,
      "d": 1477.2712499999998,
      "v": 127
    },
    {
      "midi": 48,
      "hit": false,
      "t": 10909.08,
      "d": 1491.4757812499993,
      "v": 127
    },
    {
      "midi": 43,
      "hit": false,
      "t": 14545.439999999999,
      "d": 2189.865234375,
      "v": 127
    },
    {
      "midi": 50,
      "hit": false,
      "t": 14545.439999999999,
      "d": 2206.4371874999997,
      "v": 127
    },
    {
      "midi": 57,
      "hit": false,
      "t": 14545.439999999999,
      "d": 2206.4371874999997,
      "v": 127
    },
    {
      "midi": 55,
      "hit": false,
      "t": 18181.8,
      "d": 2781.720703125,
      "v": 127
    },
    {
      "midi": 62,
      "hit": false,
      "t": 18181.8,
      "d": 2781.720703125,
      "v": 127
    },
    {
      "midi": 48,
      "hit": false,
      "t": 18181.8,
      "d": 2812.497187500001,
      "v": 127
    },
    {
      "midi": 57,
      "hit": false,
      "t": 21818.16,
      "d": 2689.391249999997,
      "v": 127
    },
    {
      "midi": 50,
      "hit": false,
      "t": 21818.16,
      "d": 2691.7586718749953,
      "v": 127
    },
    {
      "midi": 43,
      "hit": false,
      "t": 21818.16,
      "d": 2694.1260937499937,
      "v": 127
    },
    {
      "midi": 62,
      "hit": false,
      "t": 25454.519999999993,
      "d": 2227.743984375,
      "v": 127
    },
    {
      "midi": 55,
      "hit": false,
      "t": 25454.519999999993,
      "d": 2265.6227343749997,
      "v": 127
    },
    {
      "midi": 48,
      "hit": false,
      "t": 25454.519999999993,
      "d": 2294.0317968749987,
      "v": 127
    },
    {
      "midi": 50,
      "hit": false,
      "t": 29090.879999999994,
      "d": 2043.085078125001,
      "v": 127
    },
    {
      "midi": 57,
      "hit": false,
      "t": 29090.879999999994,
      "d": 2043.085078125001,
      "v": 127
    },
    {
      "midi": 43,
      "hit": false,
      "t": 29090.879999999994,
      "d": 2059.6570312500007,
      "v": 127
    },
    {
      "midi": 55,
      "hit": false,
      "t": 32727.239999999994,
      "d": 3551.1328125000036,
      "v": 127
    },
    {
      "midi": 62,
      "hit": false,
      "t": 32727.239999999994,
      "d": 3558.2350781250025,
      "v": 127
    },
    {
      "midi": 48,
      "hit": false,
      "t": 32727.239999999994,
      "d": 3565.3373437500013,
      "v": 127
    },
    {
      "midi": 72,
      "hit": false,
      "t": 36363.6,
      "d": 762.3098437499939,
      "v": 127
    },
    {
      "midi": 64,
      "hit": false,
      "t": 36363.6,
      "d": 807.2908593749962,
      "v": 127
    },
    {
      "midi": 69,
      "hit": false,
      "t": 36363.6,
      "d": 821.4953906249939,
      "v": 127
    },
    {
      "midi": 45,
      "hit": false,
      "t": 36370.702265625,
      "d": 1581.4378125000003,
      "v": 127
    },
    {
      "midi": 60,
      "hit": false,
      "t": 36841.819218749995,
      "d": 535.037343750002,
      "v": 127
    },
    {
      "midi": 71,
      "hit": false,
      "t": 37272.689999999995,
      "d": 416.66625000000204,
      "v": 127
    },
    {
      "midi": 69,
      "hit": false,
      "t": 37272.689999999995,
      "d": 440.3404687500006,
      "v": 127
    },
    {
      "midi": 64,
      "hit": false,
      "t": 37272.689999999995,
      "d": 442.7078906250026,
      "v": 127
    },
    {
      "midi": 60,
      "hit": false,
      "t": 37774.5834375,
      "d": 407.19656250000116,
      "v": 127
    },
    {
      "midi": 43,
      "hit": false,
      "t": 38179.412578125,
      "d": 1742.4225000000079,
      "v": 127
    },
    {
      "midi": 59,
      "hit": false,
      "t": 38181.78,
      "d": 821.4953906250012,
      "v": 127
    },
    {
      "midi": 69,
      "hit": false,
      "t": 38181.78,
      "d": 982.4800781250015,
      "v": 127
    },
    {
      "midi": 50,
      "hit": false,
      "t": 38671.836328125,
      "d": 542.1396093750009,
      "v": 127
    },
    {
      "midi": 67,
      "hit": false,
      "t": 39090.87,
      "d": 743.3704687499994,
      "v": 127
    },
    {
      "midi": 62,
      "hit": false,
      "t": 39090.87,
      "d": 752.8401562500003,
      "v": 127
    },
    {
      "midi": 59,
      "hit": false,
      "t": 39090.87,
      "d": 793.0863281249985,
      "v": 127
    },
    {
      "midi": 48,
      "hit": false,
      "t": 39973.918359375006,
      "d": 3217.3263281249965,
      "v": 127
    },
    {
      "midi": 55,
      "hit": false,
      "t": 39976.28578125001,
      "d": 63.9203906249968,
      "v": 127
    },
    {
      "midi": 59,
      "hit": false,
      "t": 39999.96000000001,
      "d": 2819.599453124996,
      "v": 127
    },
    {
      "midi": 62,
      "hit": false,
      "t": 39999.96000000001,
      "d": 2821.9668749999983,
      "v": 127
    },
    {
      "midi": 67,
      "hit": false,
      "t": 39999.96000000001,
      "d": 2838.538828124998,
      "v": 127
    },
    {
      "midi": 64,
      "hit": false,
      "t": 39999.96000000001,
      "d": 2848.008515624999,
      "v": 127
    },
    {
      "midi": 45,
      "hit": false,
      "t": 43617.380625000005,
      "d": 1725.8505468750081,
      "v": 127
    },
    {
      "midi": 72,
      "hit": false,
      "t": 43636.32000000001,
      "d": 762.3098437500012,
      "v": 127
    },
    {
      "midi": 64,
      "hit": false,
      "t": 43636.32000000001,
      "d": 821.4953906250012,
      "v": 127
    },
    {
      "midi": 69,
      "hit": false,
      "t": 43636.32000000001,
      "d": 847.5370312500017,
      "v": 127
    },
    {
      "midi": 60,
      "hit": false,
      "t": 44112.17179687501,
      "d": 506.6282812499994,
      "v": 127
    },
    {
      "midi": 71,
      "hit": false,
      "t": 44545.41000000001,
      "d": 440.3404687500006,
      "v": 127
    },
    {
      "midi": 69,
      "hit": false,
      "t": 44545.41000000001,
      "d": 482.9540625000009,
      "v": 127
    },
    {
      "midi": 64,
      "hit": false,
      "t": 44545.41000000001,
      "d": 485.3214843750029,
      "v": 127
    },
    {
      "midi": 60,
      "hit": false,
      "t": 45023.629218750015,
      "d": 452.1775781249962,
      "v": 127
    },
    {
      "midi": 69,
      "hit": false,
      "t": 45454.500000000015,
      "d": 724.4310937499977,
      "v": 127
    },
    {
      "midi": 59,
      "hit": false,
      "t": 45454.500000000015,
      "d": 800.1885937499974,
      "v": 127
    },
    {
      "midi": 43,
      "hit": false,
      "t": 45459.23484375001,
      "d": 1789.770937500005,
      "v": 127
    },
    {
      "midi": 50,
      "hit": false,
      "t": 45942.18890625001,
      "d": 525.5676562500012,
      "v": 127
    },
    {
      "midi": 59,
      "hit": false,
      "t": 46363.59000000001,
      "d": 459.2798437500023,
      "v": 127
    },
    {
      "midi": 62,
      "hit": false,
      "t": 46363.59000000001,
      "d": 459.2798437500023,
      "v": 127
    },
    {
      "midi": 67,
      "hit": false,
      "t": 46363.59000000001,
      "d": 471.11695312500524,
      "v": 127
    },
    {
      "midi": 55,
      "hit": false,
      "t": 46841.809218750015,
      "d": 520.8328125000116,
      "v": 127
    },
    {
      "midi": 47,
      "hit": false,
      "t": 47260.84289062502,
      "d": 1723.4831250000134,
      "v": 127
    },
    {
      "midi": 74,
      "hit": false,
      "t": 47272.68000000002,
      "d": 736.2682031250006,
      "v": 127
    },
    {
      "midi": 66,
      "hit": false,
      "t": 47272.68000000002,
      "d": 821.4953906250012,
      "v": 127
    },
    {
      "midi": 57,
      "hit": false,
      "t": 47275.047421875024,
      "d": 1096.1163281250047,
      "v": 127
    },
    {
      "midi": 62,
      "hit": false,
      "t": 47750.899218750026,
      "d": 532.669921875,
      "v": 127
    },
    {
      "midi": 71,
      "hit": false,
      "t": 48181.770000000026,
      "d": 411.93140625000524,
      "v": 127
    },
    {
      "midi": 66,
      "hit": false,
      "t": 48181.770000000026,
      "d": 487.68890625000495,
      "v": 127
    },
    {
      "midi": 62,
      "hit": false,
      "t": 48641.04984375003,
      "d": 430.870781250007,
      "v": 127
    },
    {
      "midi": 67,
      "hit": false,
      "t": 49090.86000000004,
      "d": 3032.6674218749977,
      "v": 127
    },
    {
      "midi": 60,
      "hit": false,
      "t": 49090.86000000004,
      "d": 3091.8529687499977,
      "v": 127
    },
    {
      "midi": 62,
      "hit": false,
      "t": 49090.86000000004,
      "d": 3096.5878124999945,
      "v": 127
    },
    {
      "midi": 64,
      "hit": false,
      "t": 49090.86000000004,
      "d": 3096.5878124999945,
      "v": 127
    },
    {
      "midi": 45,
      "hit": false,
      "t": 49090.86000000004,
      "d": 4981.055624999986,
      "v": 127
    },
    {
      "midi": 72,
      "hit": false,
      "t": 52549.66335937502,
      "d": 1077.1769531249956,
      "v": 127
    },
    {
      "midi": 69,
      "hit": false,
      "t": 52613.58375000002,
      "d": 982.4800781250015,
      "v": 127
    },
    {
      "midi": 64,
      "hit": false,
      "t": 52722.48515625002,
      "d": 880.6809375000012,
      "v": 127
    },
    {
      "midi": 48,
      "hit": false,
      "t": 52727.220000000016,
      "d": 3361.7390625000044,
      "v": 127
    },
    {
      "midi": 59,
      "hit": false,
      "t": 53212.54148437502,
      "d": 807.2908593750035,
      "v": 90
    },
    {
      "midi": 72,
      "hit": false,
      "t": 53636.31000000002,
      "d": 828.5976562500073,
      "v": 127
    },
    {
      "midi": 64,
      "hit": false,
      "t": 53636.31000000002,
      "d": 840.4347656250102,
      "v": 127
    },
    {
      "midi": 69,
      "hit": false,
      "t": 53636.31000000002,
      "d": 849.9044531250111,
      "v": 127
    },
    {
      "midi": 59,
      "hit": false,
      "t": 54126.36632812503,
      "d": 767.0446875000052,
      "v": 90
    },
    {
      "midi": 72,
      "hit": false,
      "t": 54545.40000000003,
      "d": 790.7189062499965,
      "v": 127
    },
    {
      "midi": 64,
      "hit": false,
      "t": 54545.40000000003,
      "d": 795.4537499999933,
      "v": 127
    },
    {
      "midi": 69,
      "hit": false,
      "t": 54545.40000000003,
      "d": 802.5560156249921,
      "v": 127
    },
    {
      "midi": 59,
      "hit": false,
      "t": 55016.51695312503,
      "d": 755.2075781249878,
      "v": 90
    },
    {
      "midi": 64,
      "hit": false,
      "t": 55454.49000000002,
      "d": 634.4690625000003,
      "v": 127
    },
    {
      "midi": 72,
      "hit": false,
      "t": 55454.49000000002,
      "d": 684.1849218749994,
      "v": 127
    },
    {
      "midi": 69,
      "hit": false,
      "t": 55454.49000000002,
      "d": 707.859140624998,
      "v": 127
    },
    {
      "midi": 59,
      "hit": false,
      "t": 55925.60695312502,
      "d": 894.8854687499988,
      "v": 90
    },
    {
      "midi": 66,
      "hit": false,
      "t": 56363.580000000016,
      "d": 774.1469531250041,
      "v": 127
    },
    {
      "midi": 62,
      "hit": false,
      "t": 56363.580000000016,
      "d": 797.8211718750026,
      "v": 127
    },
    {
      "midi": 69,
      "hit": false,
      "t": 56363.580000000016,
      "d": 816.7605468750044,
      "v": 127
    },
    {
      "midi": 48,
      "hit": false,
      "t": 56363.580000000016,
      "d": 3409.0875000000015,
      "v": 127
    },
    {
      "midi": 57,
      "hit": false,
      "t": 56822.85984375002,
      "d": 717.3288281249988,
      "v": 90
    },
    {
      "midi": 62,
      "hit": false,
      "t": 57272.67000000002,
      "d": 733.9007812499913,
      "v": 127
    },
    {
      "midi": 69,
      "hit": false,
      "t": 57272.67000000002,
      "d": 783.6166406249904,
      "v": 127
    },
    {
      "midi": 66,
      "hit": false,
      "t": 57272.67000000002,
      "d": 814.3931249999878,
      "v": 127
    },
    {
      "midi": 57,
      "hit": false,
      "t": 57765.093750000015,
      "d": 774.1469531249968,
      "v": 90
    },
    {
      "midi": 62,
      "hit": false,
      "t": 58181.76000000001,
      "d": 750.4727343750055,
      "v": 127
    },
    {
      "midi": 69,
      "hit": false,
      "t": 58181.76000000001,
      "d": 755.2075781250023,
      "v": 127
    },
    {
      "midi": 66,
      "hit": false,
      "t": 58181.76000000001,
      "d": 797.8211718750026,
      "v": 127
    },
    {
      "midi": 57,
      "hit": false,
      "t": 58650.50953125001,
      "d": 743.3704687499994,
      "v": 90
    },
    {
      "midi": 62,
      "hit": false,
      "t": 59090.85000000001,
      "d": 771.779531250002,
      "v": 127
    },
    {
      "midi": 69,
      "hit": false,
      "t": 59090.85000000001,
      "d": 774.1469531250041,
      "v": 127
    },
    {
      "midi": 66,
      "hit": false,
      "t": 59090.85000000001,
      "d": 793.0863281250058,
      "v": 127
    },
    {
      "midi": 57,
      "hit": false,
      "t": 59583.273750000015,
      "d": 743.3704687499994,
      "v": 90
    },
    {
      "midi": 69,
      "hit": false,
      "t": 59999.94000000002,
      "d": 501.8934375000026,
      "v": 127
    },
    {
      "midi": 62,
      "hit": false,
      "t": 59999.94000000002,
      "d": 565.8138281249994,
      "v": 127
    },
    {
      "midi": 66,
      "hit": false,
      "t": 59999.94000000002,
      "d": 632.1016406249983,
      "v": 127
    },
    {
      "midi": 47,
      "hit": false,
      "t": 59999.94000000002,
      "d": 3233.8982812499817,
      "v": 127
    },
    {
      "midi": 57,
      "hit": false,
      "t": 60473.42437500002,
      "d": 745.7378906249942,
      "v": 90
    },
    {
      "midi": 62,
      "hit": false,
      "t": 60909.03000000001,
      "d": 741.0030468749974,
      "v": 127
    },
    {
      "midi": 71,
      "hit": false,
      "t": 60909.03000000001,
      "d": 745.7378906249942,
      "v": 127
    },
    {
      "midi": 66,
      "hit": false,
      "t": 60909.03000000001,
      "d": 759.9424218749919,
      "v": 127
    },
    {
      "midi": 57,
      "hit": false,
      "t": 61391.984062500014,
      "d": 745.7378906249869,
      "v": 90
    },
    {
      "midi": 71,
      "hit": false,
      "t": 61818.12,
      "d": 598.9577343749988,
      "v": 127
    },
    {
      "midi": 62,
      "hit": false,
      "t": 61818.12,
      "d": 748.1053124999962,
      "v": 127
    },
    {
      "midi": 66,
      "hit": false,
      "t": 61818.12,
      "d": 783.6166406249977,
      "v": 127
    },
    {
      "midi": 57,
      "hit": false,
      "t": 62291.604375,
      "d": 688.9197656249962,
      "v": 90
    },
    {
      "midi": 62,
      "hit": false,
      "t": 62727.21,
      "d": 629.7342187499962,
      "v": 127
    },
    {
      "midi": 66,
      "hit": false,
      "t": 62727.21,
      "d": 639.2039062499971,
      "v": 127
    },
    {
      "midi": 69,
      "hit": false,
      "t": 62727.21,
      "d": 677.0826562500006,
      "v": 127
    },
    {
      "midi": 57,
      "hit": false,
      "t": 63219.63375,
      "d": 897.2528906250009,
      "v": 90
    },
    {
      "midi": 67,
      "hit": false,
      "t": 63636.3,
      "d": 3349.901953124994,
      "v": 127
    },
    {
      "midi": 40,
      "hit": false,
      "t": 63636.3,
      "d": 3577.174453124986,
      "v": 127
    },
    {
      "midi": 55,
      "hit": false,
      "t": 64102.682109375004,
      "d": 767.044687499998,
      "v": 90
    },
    {
      "midi": 62,
      "hit": false,
      "t": 64545.39,
      "d": 849.9044531250038,
      "v": 127
    },
    {
      "midi": 64,
      "hit": false,
      "t": 64545.39,
      "d": 868.8438281250055,
      "v": 127
    },
    {
      "midi": 55,
      "hit": false,
      "t": 65030.711484375,
      "d": 871.211249999993,
      "v": 90
    },
    {
      "midi": 62,
      "hit": false,
      "t": 65454.48,
      "d": 812.0257031249857,
      "v": 127
    },
    {
      "midi": 64,
      "hit": false,
      "t": 65454.48,
      "d": 828.5976562499927,
      "v": 127
    },
    {
      "midi": 59,
      "hit": false,
      "t": 65887.718203125,
      "d": 1105.5860156249983,
      "v": 75
    },
    {
      "midi": 64,
      "hit": false,
      "t": 66363.56999999999,
      "d": 624.9993749999994,
      "v": 127
    },
    {
      "midi": 62,
      "hit": false,
      "t": 66363.56999999999,
      "d": 785.9840624999924,
      "v": 127
    },
    {
      "midi": 69,
      "hit": false,
      "t": 67272.65999999999,
      "d": 1661.9301562499895,
      "v": 127
    },
    {
      "midi": 72,
      "hit": false,
      "t": 67272.65999999999,
      "d": 1695.074062499989,
      "v": 127
    },
    {
      "midi": 45,
      "hit": false,
      "t": 67293.96679687499,
      "d": 1794.5057812499872,
      "v": 127
    },
    {
      "midi": 64,
      "hit": false,
      "t": 67748.51179687498,
      "d": 445.07531250000466,
      "v": 127
    },
    {
      "midi": 67,
      "hit": false,
      "t": 68174.64773437499,
      "d": 435.6056249999965,
      "v": 127
    },
    {
      "midi": 60,
      "hit": false,
      "t": 68612.62078124998,
      "d": 954.0710156249843,
      "v": 127
    },
    {
      "midi": 62,
      "hit": false,
      "t": 69090.83999999997,
      "d": 620.2645312499953,
      "v": 127
    },
    {
      "midi": 71,
      "hit": false,
      "t": 69090.83999999997,
      "d": 658.1432812499988,
      "v": 127
    },
    {
      "midi": 67,
      "hit": false,
      "t": 69090.83999999997,
      "d": 785.9840624999924,
      "v": 127
    },
    {
      "midi": 47,
      "hit": false,
      "t": 69093.20742187496,
      "d": 1761.3618750000023,
      "v": 127
    },
    {
      "midi": 59,
      "hit": false,
      "t": 69561.95695312496,
      "d": 911.4574218750058,
      "v": 127
    },
    {
      "midi": 67,
      "hit": false,
      "t": 69999.92999999996,
      "d": 584.7532031250012,
      "v": 127
    },
    {
      "midi": 74,
      "hit": false,
      "t": 69999.92999999996,
      "d": 610.7948437500017,
      "v": 127
    },
    {
      "midi": 48,
      "hit": false,
      "t": 70868.77382812496,
      "d": 3671.8713281249948,
      "v": 127
    },
    {
      "midi": 62,
      "hit": false,
      "t": 70909.01999999996,
      "d": 2651.512499999997,
      "v": 127
    },
    {
      "midi": 64,
      "hit": false,
      "t": 70909.01999999996,
      "d": 2660.9821874999907,
      "v": 127
    },
    {
      "midi": 72,
      "hit": false,
      "t": 70909.01999999996,
      "d": 2722.5351562499854,
      "v": 127
    },
    {
      "midi": 67,
      "hit": false,
      "t": 70909.01999999996,
      "d": 2724.90257812498,
      "v": 127
    },
    {
      "midi": 45,
      "hit": false,
      "t": 74516.97093749995,
      "d": 1787.4035156250175,
      "v": 127
    },
    {
      "midi": 69,
      "hit": false,
      "t": 74545.37999999996,
      "d": 1680.8695312500058,
      "v": 127
    },
    {
      "midi": 72,
      "hit": false,
      "t": 74545.37999999996,
      "d": 1685.60437500001,
      "v": 127
    },
    {
      "midi": 64,
      "hit": false,
      "t": 74973.88335937496,
      "d": 449.81015625000873,
      "v": 127
    },
    {
      "midi": 67,
      "hit": false,
      "t": 75407.12156249996,
      "d": 454.5450000000128,
      "v": 127
    },
    {
      "midi": 60,
      "hit": false,
      "t": 75868.76882812497,
      "d": 961.1732812499977,
      "v": 127
    },
    {
      "midi": 47,
      "hit": false,
      "t": 76313.84414062496,
      "d": 1770.8315625000105,
      "v": 127
    },
    {
      "midi": 62,
      "hit": false,
      "t": 76363.55999999997,
      "d": 712.5939843749948,
      "v": 127
    },
    {
      "midi": 71,
      "hit": false,
      "t": 76363.55999999997,
      "d": 743.3704687499994,
      "v": 127
    },
    {
      "midi": 67,
      "hit": false,
      "t": 76363.55999999997,
      "d": 788.3514843750017,
      "v": 127
    },
    {
      "midi": 59,
      "hit": false,
      "t": 76829.94210937497,
      "d": 901.9877343749977,
      "v": 127
    },
    {
      "midi": 67,
      "hit": false,
      "t": 77272.64999999997,
      "d": 778.8817968750081,
      "v": 127
    },
    {
      "midi": 74,
      "hit": false,
      "t": 77272.64999999997,
      "d": 807.2908593750035,
      "v": 127
    },
    {
      "midi": 48,
      "hit": false,
      "t": 78108.34992187498,
      "d": 3664.769062499967,
      "v": 127
    },
    {
      "midi": 62,
      "hit": false,
      "t": 78181.73999999998,
      "d": 1872.630703124989,
      "v": 127
    },
    {
      "midi": 64,
      "hit": false,
      "t": 78181.73999999998,
      "d": 2743.841953124982,
      "v": 127
    },
    {
      "midi": 72,
      "hit": false,
      "t": 78181.73999999998,
      "d": 2743.841953124982,
      "v": 127
    },
    {
      "midi": 67,
      "hit": false,
      "t": 78181.73999999998,
      "d": 2746.2093749999767,
      "v": 127
    },
    {
      "midi": 45,
      "hit": false,
      "t": 81744.70992187495,
      "d": 1915.244296874982,
      "v": 127
    },
    {
      "midi": 72,
      "hit": false,
      "t": 81818.09999999995,
      "d": 840.4347656249884,
      "v": 127
    },
    {
      "midi": 69,
      "hit": false,
      "t": 81818.09999999995,
      "d": 868.8438281249837,
      "v": 127
    },
    {
      "midi": 64,
      "hit": false,
      "t": 82260.80789062494,
      "d": 400.0942968749878,
      "v": 127
    },
    {
      "midi": 67,
      "hit": false,
      "t": 82722.45515624993,
      "d": 423.76851562500815,
      "v": 127
    },
    {
      "midi": 64,
      "hit": false,
      "t": 82727.18999999993,
      "d": 771.7795312499948,
      "v": 127
    },
    {
      "midi": 72,
      "hit": false,
      "t": 82727.18999999993,
      "d": 785.9840624999924,
      "v": 127
    },
    {
      "midi": 69,
      "hit": false,
      "t": 82727.18999999993,
      "d": 800.1885937499901,
      "v": 127
    },
    {
      "midi": 60,
      "hit": false,
      "t": 83200.67437499993,
      "d": 911.4574218750058,
      "v": 127
    },
    {
      "midi": 62,
      "hit": false,
      "t": 83636.27999999993,
      "d": 603.6925781250029,
      "v": 127
    },
    {
      "midi": 71,
      "hit": false,
      "t": 83636.27999999993,
      "d": 613.1622656249965,
      "v": 127
    },
    {
      "midi": 67,
      "hit": false,
      "t": 83636.27999999993,
      "d": 748.1053125000035,
      "v": 127
    },
    {
      "midi": 47,
      "hit": false,
      "t": 83676.52617187494,
      "d": 1794.5057812499872,
      "v": 127
    },
    {
      "midi": 59,
      "hit": false,
      "t": 84119.23406249993,
      "d": 899.6203124999884,
      "v": 127
    },
    {
      "midi": 67,
      "hit": false,
      "t": 84545.36999999992,
      "d": 627.3667968749942,
      "v": 127
    },
    {
      "midi": 74,
      "hit": false,
      "t": 84545.36999999992,
      "d": 726.7985156249924,
      "v": 127
    },
    {
      "midi": 62,
      "hit": false,
      "t": 85011.75210937492,
      "d": 911.4574218750058,
      "v": 127
    },
    {
      "midi": 64,
      "hit": false,
      "t": 85454.45999999992,
      "d": 764.6772656250105,
      "v": 127
    },
    {
      "midi": 72,
      "hit": false,
      "t": 85454.45999999992,
      "d": 764.6772656250105,
      "v": 127
    },
    {
      "midi": 67,
      "hit": false,
      "t": 85454.45999999992,
      "d": 767.0446875000052,
      "v": 127
    },
    {
      "midi": 48,
      "hit": false,
      "t": 85504.17585937493,
      "d": 1867.8958593749849,
      "v": 127
    },
    {
      "midi": 60,
      "hit": false,
      "t": 85944.51632812493,
      "d": 636.8364843750023,
      "v": 127
    },
    {
      "midi": 64,
      "hit": false,
      "t": 86363.54999999993,
      "d": 549.2418749999924,
      "v": 127
    },
    {
      "midi": 72,
      "hit": false,
      "t": 86363.54999999993,
      "d": 551.6092968749872,
      "v": 127
    },
    {
      "midi": 67,
      "hit": false,
      "t": 86363.54999999993,
      "d": 572.9160937499837,
      "v": 127
    },
    {
      "midi": 60,
      "hit": false,
      "t": 86858.34117187493,
      "d": 833.3324999999895,
      "v": 127
    },
    {
      "midi": 74,
      "hit": false,
      "t": 87272.63999999991,
      "d": 705.4917187499959,
      "v": 127
    },
    {
      "midi": 66,
      "hit": false,
      "t": 87272.63999999991,
      "d": 717.3288281249988,
      "v": 127
    },
    {
      "midi": 69,
      "hit": false,
      "t": 87272.63999999991,
      "d": 769.412109375,
      "v": 127
    },
    {
      "midi": 50,
      "hit": false,
      "t": 87367.3368749999,
      "d": 1766.0967187499919,
      "v": 127
    },
    {
      "midi": 62,
      "hit": false,
      "t": 87739.02210937491,
      "d": 580.0183593749971,
      "v": 127
    },
    {
      "midi": 66,
      "hit": false,
      "t": 88181.72999999991,
      "d": 776.5143749999988,
      "v": 127
    },
    {
      "midi": 74,
      "hit": false,
      "t": 88181.72999999991,
      "d": 785.9840624999924,
      "v": 127
    },
    {
      "midi": 69,
      "hit": false,
      "t": 88181.72999999991,
      "d": 816.7605468749971,
      "v": 127
    },
    {
      "midi": 62,
      "hit": false,
      "t": 88683.6234374999,
      "d": 442.70789062499534,
      "v": 127
    },
    {
      "midi": 71,
      "hit": false,
      "t": 154483.74703124992,
      "d": 546.8744531249977,
      "v": 127
    },
    {
      "midi": 69,
      "hit": false,
      "t": 154959.59882812493,
      "d": 400.0942968750023,
      "v": 127
    },
    {
      "midi": 67,
      "hit": false,
      "t": 155442.55289062494,
      "d": 236.7421875,
      "v": 127
    },
    {
      "midi": 67,
      "hit": false,
      "t": 155828.44265624994,
      "d": 343.27617187501164,
      "v": 127
    },
    {
      "midi": 71,
      "hit": false,
      "t": 156832.22953124996,
      "d": 520.8328124999825,
      "v": 127
    },
    {
      "midi": 69,
      "hit": false,
      "t": 157251.26320312495,
      "d": 513.7305468749837,
      "v": 127
    },
    {
      "midi": 67,
      "hit": false,
      "t": 157769.72859374993,
      "d": 198.8634374999965,
      "v": 127
    },
    {
      "midi": 67,
      "hit": false,
      "t": 158184.02742187493,
      "d": 381.15492187498603,
      "v": 127
    },
    {
      "midi": 71,
      "hit": false,
      "t": 159104.9545312499,
      "d": 523.2002343749919,
      "v": 127
    },
    {
      "midi": 69,
      "hit": false,
      "t": 159557.1321093749,
      "d": 445.07531249997555,
      "v": 127
    },
    {
      "midi": 67,
      "hit": false,
      "t": 159980.9006249999,
      "d": 191.76117187499767,
      "v": 127
    },
    {
      "midi": 67,
      "hit": false,
      "t": 160399.93429687488,
      "d": 357.4807031250093,
      "v": 127
    },
    {
      "midi": 71,
      "hit": false,
      "t": 161339.80078124988,
      "d": 613.1622656249965,
      "v": 127
    },
    {
      "midi": 69,
      "hit": false,
      "t": 161799.0806249999,
      "d": 445.07531250000466,
      "v": 127
    },
    {
      "midi": 67,
      "hit": false,
      "t": 162227.58398437488,
      "d": 352.7458593750198,
      "v": 127
    },
    {
      "midi": 72,
      "hit": false,
      "t": 162712.9054687499,
      "d": 620.2645312499953,
      "v": 127
    },
    {
      "midi": 71,
      "hit": false,
      "t": 163136.6739843749,
      "d": 561.0789843749953,
      "v": 127
    },
    {
      "midi": 69,
      "hit": false,
      "t": 163584.1167187499,
      "d": 508.9957031250233,
      "v": 127
    },
    {
      "midi": 67,
      "hit": false,
      "t": 164069.4382031249,
      "d": 428.5033593749977,
      "v": 127
    },
    {
      "midi": 72,
      "hit": false,
      "t": 165009.3046874999,
      "d": 575.2835156250221,
      "v": 127
    },
    {
      "midi": 71,
      "hit": false,
      "t": 165456.74742187493,
      "d": 603.6925781249884,
      "v": 127
    },
    {
      "midi": 69,
      "hit": false,
      "t": 165958.64085937492,
      "d": 437.9730468749767,
      "v": 127
    },
    {
      "midi": 67,
      "hit": false,
      "t": 166382.4093749999,
      "d": 378.7875000000058,
      "v": 127
    },
    {
      "midi": 72,
      "hit": false,
      "t": 167279.6622656249,
      "d": 516.0979687500221,
      "v": 127
    },
    {
      "midi": 71,
      "hit": false,
      "t": 167637.14296874992,
      "d": 546.8744531249977,
      "v": 127
    },
    {
      "midi": 69,
      "hit": false,
      "t": 168112.99476562493,
      "d": 468.7495312499814,
      "v": 127
    },
    {
      "midi": 67,
      "hit": false,
      "t": 168588.8465624999,
      "d": 447.44273437501397,
      "v": 127
    },
    {
      "midi": 72,
      "hit": false,
      "t": 169516.87593749992,
      "d": 620.2645312499953,
      "v": 127
    },
    {
      "midi": 71,
      "hit": false,
      "t": 169952.48156249992,
      "d": 698.3894531250116,
      "v": 127
    },
    {
      "midi": 69,
      "hit": false,
      "t": 170440.17046874992,
      "d": 591.85546875,
      "v": 127
    },
    {
      "midi": 74,
      "hit": false,
      "t": 170899.45031249992,
      "d": 743.370468750014,
      "v": 127
    },
    {
      "midi": 72,
      "hit": false,
      "t": 171361.09757812493,
      "d": 558.711562499986,
      "v": 127
    },
    {
      "midi": 71,
      "hit": false,
      "t": 171789.60093749993,
      "d": 525.5676562499721,
      "v": 127
    },
    {
      "midi": 67,
      "hit": false,
      "t": 172192.0626562499,
      "d": 428.5033593749977,
      "v": 127
    },
    {
      "midi": 74,
      "hit": false,
      "t": 173186.37984374992,
      "d": 624.9993749999849,
      "v": 127
    },
    {
      "midi": 72,
      "hit": false,
      "t": 173621.98546874992,
      "d": 648.6735937499907,
      "v": 127
    },
    {
      "midi": 71,
      "hit": false,
      "t": 174114.4092187499,
      "d": 523.200234375021,
      "v": 127
    },
    {
      "midi": 67,
      "hit": false,
      "t": 174545.2799999999,
      "d": 336.1739062500128,
      "v": 127
    },
    {
      "midi": 74,
      "hit": false,
      "t": 175402.28671874994,
      "d": 646.3061718749814,
      "v": 127
    },
    {
      "midi": 72,
      "hit": false,
      "t": 175828.42265624992,
      "d": 591.8554687499709,
      "v": 127
    },
    {
      "midi": 71,
      "hit": false,
      "t": 176297.1721874999,
      "d": 525.5676562499721,
      "v": 127
    },
    {
      "midi": 67,
      "hit": false,
      "t": 176765.9217187499,
      "d": 383.52234374999534,
      "v": 127
    },
    {
      "midi": 74,
      "hit": false,
      "t": 177653.7049218749,
      "d": 669.9803906249872,
      "v": 127
    },
    {
      "midi": 72,
      "hit": false,
      "t": 178079.84085937488,
      "d": 546.8744531249977,
      "v": 127
    },
    {
      "midi": 71,
      "hit": false,
      "t": 178517.81390624988,
      "d": 601.3251562500081,
      "v": 127
    },
    {
      "midi": 72,
      "hit": false,
      "t": 179036.27929687488,
      "d": 622.6319531250047,
      "v": 127
    },
    {
      "midi": 71,
      "hit": false,
      "t": 179519.2333593749,
      "d": 587.1206249999814,
      "v": 127
    },
    {
      "midi": 69,
      "hit": false,
      "t": 179969.0435156249,
      "d": 490.0563281249779,
      "v": 127
    },
    {
      "midi": 67,
      "hit": false,
      "t": 180423.58851562487,
      "d": 459.2798437500023,
      "v": 127
    },
    {
      "midi": 72,
      "hit": false,
      "t": 181387.12921874988,
      "d": 523.2002343749919,
      "v": 127
    },
    {
      "midi": 71,
      "hit": false,
      "t": 181770.65156249987,
      "d": 539.7721874999988,
      "v": 127
    },
    {
      "midi": 69,
      "hit": false,
      "t": 182189.68523437486,
      "d": 539.7721874999988,
      "v": 127
    },
    {
      "midi": 67,
      "hit": false,
      "t": 182677.37414062486,
      "d": 392.9920312500035,
      "v": 127
    },
    {
      "midi": 72,
      "hit": false,
      "t": 183558.05507812486,
      "d": 551.6092968749872,
      "v": 127
    },
    {
      "midi": 71,
      "hit": false,
      "t": 183934.47515624986,
      "d": 542.139609374979,
      "v": 127
    },
    {
      "midi": 69,
      "hit": false,
      "t": 184405.59210937485,
      "d": 553.9767187499674,
      "v": 127
    },
    {
      "midi": 67,
      "hit": false,
      "t": 184850.66742187482,
      "d": 404.82914062499185,
      "v": 127
    },
    {
      "midi": 62,
      "hit": false,
      "t": 185804.73843749982,
      "d": 421.40109374999884,
      "v": 127
    },
    {
      "midi": 67,
      "hit": false,
      "t": 186261.65085937481,
      "d": 570.5486718750035,
      "v": 127
    },
    {
      "midi": 62,
      "hit": false,
      "t": 186822.7298437498,
      "d": 449.8101562499942,
      "v": 127
    },
    {
      "midi": 71,
      "hit": false,
      "t": 292658.3247656248,
      "d": 546.8744531249977,
      "v": 127
    },
    {
      "midi": 69,
      "hit": false,
      "t": 293134.17656249984,
      "d": 400.0942968750023,
      "v": 127
    },
    {
      "midi": 67,
      "hit": false,
      "t": 293617.1306249998,
      "d": 236.7421875,
      "v": 127
    },
    {
      "midi": 67,
      "hit": false,
      "t": 294003.0203906248,
      "d": 343.27617187501164,
      "v": 127
    },
    {
      "midi": 71,
      "hit": false,
      "t": 295006.8072656248,
      "d": 520.8328125000116,
      "v": 127
    },
    {
      "midi": 69,
      "hit": false,
      "t": 295425.84093749983,
      "d": 513.7305468749837,
      "v": 127
    },
    {
      "midi": 67,
      "hit": false,
      "t": 295944.30632812483,
      "d": 198.8634375000256,
      "v": 127
    },
    {
      "midi": 67,
      "hit": false,
      "t": 296358.60515624983,
      "d": 381.15492187498603,
      "v": 127
    },
    {
      "midi": 71,
      "hit": false,
      "t": 297279.53226562485,
      "d": 523.2002343749627,
      "v": 127
    },
    {
      "midi": 69,
      "hit": false,
      "t": 297731.7098437498,
      "d": 445.07531250000466,
      "v": 127
    },
    {
      "midi": 67,
      "hit": false,
      "t": 298155.4783593748,
      "d": 191.76117187499767,
      "v": 127
    },
    {
      "midi": 67,
      "hit": false,
      "t": 298574.5120312498,
      "d": 357.4807031250093,
      "v": 127
    },
    {
      "midi": 71,
      "hit": false,
      "t": 299514.37851562485,
      "d": 613.1622656250256,
      "v": 127
    },
    {
      "midi": 69,
      "hit": false,
      "t": 299973.65835937485,
      "d": 445.07531250000466,
      "v": 127
    },
    {
      "midi": 67,
      "hit": false,
      "t": 300402.16171874985,
      "d": 352.7458593749907,
      "v": 127
    },
    {
      "midi": 72,
      "hit": false,
      "t": 300887.48320312484,
      "d": 620.2645312499953,
      "v": 127
    },
    {
      "midi": 71,
      "hit": false,
      "t": 301311.2517187498,
      "d": 561.0789843749953,
      "v": 127
    },
    {
      "midi": 69,
      "hit": false,
      "t": 301758.69445312483,
      "d": 508.9957031249651,
      "v": 127
    },
    {
      "midi": 67,
      "hit": false,
      "t": 302244.0159374998,
      "d": 428.5033593749977,
      "v": 127
    },
    {
      "midi": 72,
      "hit": false,
      "t": 303183.8824218748,
      "d": 575.283515624993,
      "v": 127
    },
    {
      "midi": 71,
      "hit": false,
      "t": 303631.3251562498,
      "d": 603.6925781249884,
      "v": 127
    },
    {
      "midi": 69,
      "hit": false,
      "t": 304133.2185937498,
      "d": 437.9730468749767,
      "v": 127
    },
    {
      "midi": 67,
      "hit": false,
      "t": 304556.9871093748,
      "d": 378.7874999999767,
      "v": 127
    },
    {
      "midi": 72,
      "hit": false,
      "t": 305454.23999999976,
      "d": 516.097968749993,
      "v": 127
    },
    {
      "midi": 71,
      "hit": false,
      "t": 305811.72070312477,
      "d": 546.8744531249977,
      "v": 127
    },
    {
      "midi": 69,
      "hit": false,
      "t": 306287.5724999998,
      "d": 468.7495312499814,
      "v": 127
    },
    {
      "midi": 67,
      "hit": false,
      "t": 306763.4242968748,
      "d": 447.44273437501397,
      "v": 127
    },
    {
      "midi": 72,
      "hit": false,
      "t": 307691.4536718748,
      "d": 620.2645312500536,
      "v": 127
    },
    {
      "midi": 71,
      "hit": false,
      "t": 308127.05929687485,
      "d": 698.3894531250698,
      "v": 127
    },
    {
      "midi": 69,
      "hit": false,
      "t": 308614.7482031249,
      "d": 591.85546875,
      "v": 127
    },
    {
      "midi": 74,
      "hit": false,
      "t": 309074.0280468749,
      "d": 743.370468750014,
      "v": 127
    },
    {
      "midi": 72,
      "hit": false,
      "t": 309535.6753124999,
      "d": 558.711562499986,
      "v": 127
    },
    {
      "midi": 71,
      "hit": false,
      "t": 309964.1786718749,
      "d": 525.5676562500303,
      "v": 127
    },
    {
      "midi": 67,
      "hit": false,
      "t": 310366.64039062493,
      "d": 428.5033593749977,
      "v": 127
    },
    {
      "midi": 74,
      "hit": false,
      "t": 311360.95757812494,
      "d": 624.999375000014,
      "v": 127
    },
    {
      "midi": 72,
      "hit": false,
      "t": 311796.56320312497,
      "d": 648.6735937499907,
      "v": 127
    },
    {
      "midi": 71,
      "hit": false,
      "t": 312288.986953125,
      "d": 523.2002343749627,
      "v": 127
    },
    {
      "midi": 67,
      "hit": false,
      "t": 312719.85773437493,
      "d": 336.1739062500419,
      "v": 127
    },
    {
      "midi": 74,
      "hit": false,
      "t": 313576.864453125,
      "d": 646.3061718749814,
      "v": 127
    },
    {
      "midi": 72,
      "hit": false,
      "t": 314003.000390625,
      "d": 591.85546875,
      "v": 127
    },
    {
      "midi": 71,
      "hit": false,
      "t": 314471.74992187496,
      "d": 525.5676562500303,
      "v": 127
    },
    {
      "midi": 67,
      "hit": false,
      "t": 314940.499453125,
      "d": 383.52234374999534,
      "v": 127
    },
    {
      "midi": 74,
      "hit": false,
      "t": 315828.28265625,
      "d": 669.9803906250163,
      "v": 127
    },
    {
      "midi": 72,
      "hit": false,
      "t": 316254.41859375,
      "d": 546.8744531250559,
      "v": 127
    },
    {
      "midi": 71,
      "hit": false,
      "t": 316692.391640625,
      "d": 601.325156249979,
      "v": 127
    },
    {
      "midi": 72,
      "hit": false,
      "t": 317210.85703125,
      "d": 622.6319531250047,
      "v": 127
    },
    {
      "midi": 71,
      "hit": false,
      "t": 317693.81109375,
      "d": 587.1206250000396,
      "v": 127
    },
    {
      "midi": 69,
      "hit": false,
      "t": 318143.62125,
      "d": 490.0563281250652,
      "v": 127
    },
    {
      "midi": 67,
      "hit": false,
      "t": 318598.16625000007,
      "d": 459.2798437500023,
      "v": 127
    },
    {
      "midi": 72,
      "hit": false,
      "t": 319561.7069531251,
      "d": 523.200234375021,
      "v": 127
    },
    {
      "midi": 71,
      "hit": false,
      "t": 319945.22929687507,
      "d": 539.7721875000279,
      "v": 127
    },
    {
      "midi": 69,
      "hit": false,
      "t": 320364.2629687501,
      "d": 539.7721874999697,
      "v": 127
    },
    {
      "midi": 67,
      "hit": false,
      "t": 320851.9518750001,
      "d": 392.9920312499744,
      "v": 127
    },
    {
      "midi": 72,
      "hit": false,
      "t": 321732.63281250006,
      "d": 551.6092968750163,
      "v": 127
    },
    {
      "midi": 71,
      "hit": false,
      "t": 322109.0528906251,
      "d": 542.139609374979,
      "v": 127
    },
    {
      "midi": 69,
      "hit": false,
      "t": 322580.1698437501,
      "d": 553.9767187500256,
      "v": 127
    },
    {
      "midi": 67,
      "hit": false,
      "t": 323025.2451562501,
      "d": 404.82914062502095,
      "v": 127
    },
    {
      "midi": 62,
      "hit": false,
      "t": 323979.3161718751,
      "d": 421.40109375002794,
      "v": 127
    },
    {
      "midi": 67,
      "hit": false,
      "t": 324436.22859375016,
      "d": 570.5486718749744,
      "v": 127
    },
    {
      "midi": 62,
      "hit": false,
      "t": 324997.30757812515,
      "d": 449.8101562499651,
      "v": 127
    },
    {
      "midi": 64,
      "hit": false,
      "t": 573413.2523437503,
      "d": 880.6809375000885,
      "v": 127
    },
    {
      "midi": 48,
      "hit": false,
      "t": 573417.9871875003,
      "d": 3361.73906250007,
      "v": 127
    },
    {
      "midi": 59,
      "hit": false,
      "t": 573903.3086718754,
      "d": 807.2908593750326,
      "v": 90
    },
    {
      "midi": 69,
      "hit": false,
      "t": 574327.0771875004,
      "d": 54.45070312498137,
      "v": 127
    },
    {
      "midi": 72,
      "hit": false,
      "t": 574327.0771875004,
      "d": 828.59765625,
      "v": 127
    },
    {
      "midi": 64,
      "hit": false,
      "t": 574327.0771875004,
      "d": 840.4347656250466,
      "v": 127
    },
    {
      "midi": 59,
      "hit": false,
      "t": 574817.1335156254,
      "d": 767.0446875001071,
      "v": 90
    },
    {
      "midi": 72,
      "hit": false,
      "t": 575236.1671875005,
      "d": 790.7189062499674,
      "v": 127
    },
    {
      "midi": 64,
      "hit": false,
      "t": 575236.1671875005,
      "d": 795.453749999986,
      "v": 127
    },
    {
      "midi": 69,
      "hit": false,
      "t": 575236.1671875005,
      "d": 802.556015625014,
      "v": 127
    },
    {
      "midi": 59,
      "hit": false,
      "t": 575707.2841406255,
      "d": 755.2075781249441,
      "v": 90
    },
    {
      "midi": 64,
      "hit": false,
      "t": 576145.2571875005,
      "d": 634.4690624999348,
      "v": 127
    },
    {
      "midi": 72,
      "hit": false,
      "t": 576145.2571875005,
      "d": 684.1849218748976,
      "v": 127
    },
    {
      "midi": 69,
      "hit": false,
      "t": 576145.2571875005,
      "d": 707.8591406248743,
      "v": 127
    },
    {
      "midi": 59,
      "hit": false,
      "t": 576616.3741406255,
      "d": 894.8854687499115,
      "v": 90
    },
    {
      "midi": 66,
      "hit": false,
      "t": 577054.3471875003,
      "d": 774.1469531250186,
      "v": 127
    },
    {
      "midi": 62,
      "hit": false,
      "t": 577054.3471875003,
      "d": 797.8211718749953,
      "v": 127
    },
    {
      "midi": 69,
      "hit": false,
      "t": 577054.3471875003,
      "d": 816.7605468749534,
      "v": 127
    },
    {
      "midi": 48,
      "hit": false,
      "t": 577054.3471875003,
      "d": 3409.0875000000233,
      "v": 127
    },
    {
      "midi": 57,
      "hit": false,
      "t": 577513.6270312504,
      "d": 717.3288281249115,
      "v": 90
    },
    {
      "midi": 62,
      "hit": false,
      "t": 577963.4371875003,
      "d": 733.9007812499767,
      "v": 127
    },
    {
      "midi": 69,
      "hit": false,
      "t": 577963.4371875003,
      "d": 783.6166406249395,
      "v": 127
    },
    {
      "midi": 66,
      "hit": false,
      "t": 577963.4371875003,
      "d": 814.3931249999441,
      "v": 127
    },
    {
      "midi": 57,
      "hit": false,
      "t": 578455.8609375003,
      "d": 774.1469531250186,
      "v": 90
    },
    {
      "midi": 62,
      "hit": false,
      "t": 578872.5271875003,
      "d": 750.4727343749255,
      "v": 127
    },
    {
      "midi": 69,
      "hit": false,
      "t": 578872.5271875003,
      "d": 755.2075781249441,
      "v": 127
    },
    {
      "midi": 66,
      "hit": false,
      "t": 578872.5271875003,
      "d": 797.8211718749953,
      "v": 127
    },
    {
      "midi": 57,
      "hit": false,
      "t": 579341.2767187502,
      "d": 743.370468750014,
      "v": 90
    },
    {
      "midi": 62,
      "hit": false,
      "t": 579781.6171875002,
      "d": 771.7795312501257,
      "v": 127
    },
    {
      "midi": 69,
      "hit": false,
      "t": 579781.6171875002,
      "d": 774.146953125135,
      "v": 127
    },
    {
      "midi": 66,
      "hit": false,
      "t": 579781.6171875002,
      "d": 793.0863281250931,
      "v": 127
    },
    {
      "midi": 57,
      "hit": false,
      "t": 580274.0409375003,
      "d": 743.370468750014,
      "v": 90
    },
    {
      "midi": 69,
      "hit": false,
      "t": 580690.7071875003,
      "d": 501.89343749999534,
      "v": 127
    },
    {
      "midi": 62,
      "hit": false,
      "t": 580690.7071875003,
      "d": 565.813828125014,
      "v": 127
    },
    {
      "midi": 66,
      "hit": false,
      "t": 580690.7071875003,
      "d": 632.1016406250419,
      "v": 127
    },
    {
      "midi": 47,
      "hit": false,
      "t": 580690.7071875003,
      "d": 3233.8982812502654,
      "v": 127
    },
    {
      "midi": 57,
      "hit": false,
      "t": 581164.1915625003,
      "d": 745.7378906251397,
      "v": 90
    },
    {
      "midi": 62,
      "hit": false,
      "t": 581599.7971875004,
      "d": 741.0030468750047,
      "v": 127
    },
    {
      "midi": 71,
      "hit": false,
      "t": 581599.7971875004,
      "d": 745.7378906250233,
      "v": 127
    },
    {
      "midi": 66,
      "hit": false,
      "t": 581599.7971875004,
      "d": 759.9424218750792,
      "v": 127
    },
    {
      "midi": 57,
      "hit": false,
      "t": 582082.7512500004,
      "d": 745.7378906250233,
      "v": 90
    },
    {
      "midi": 71,
      "hit": false,
      "t": 582508.8871875005,
      "d": 598.9577343750279,
      "v": 127
    },
    {
      "midi": 62,
      "hit": false,
      "t": 582508.8871875005,
      "d": 748.1053125000326,
      "v": 127
    },
    {
      "midi": 66,
      "hit": false,
      "t": 582508.8871875005,
      "d": 783.6166406250559,
      "v": 127
    },
    {
      "midi": 57,
      "hit": false,
      "t": 582982.3715625005,
      "d": 688.9197656250326,
      "v": 90
    },
    {
      "midi": 62,
      "hit": false,
      "t": 583417.9771875006,
      "d": 629.7342187500326,
      "v": 127
    },
    {
      "midi": 66,
      "hit": false,
      "t": 583417.9771875006,
      "d": 639.2039062500698,
      "v": 127
    },
    {
      "midi": 69,
      "hit": false,
      "t": 583417.9771875006,
      "d": 677.0826562501024,
      "v": 127
    },
    {
      "midi": 57,
      "hit": false,
      "t": 583910.4009375005,
      "d": 897.2528906251537,
      "v": 90
    },
    {
      "midi": 67,
      "hit": false,
      "t": 584327.0671875007,
      "d": 3349.9019531251397,
      "v": 127
    },
    {
      "midi": 40,
      "hit": false,
      "t": 584327.0671875007,
      "d": 3577.174453125219,
      "v": 127
    },
    {
      "midi": 55,
      "hit": false,
      "t": 584793.4492968756,
      "d": 767.0446875001071,
      "v": 90
    },
    {
      "midi": 62,
      "hit": false,
      "t": 585236.1571875007,
      "d": 849.9044531250838,
      "v": 127
    },
    {
      "midi": 64,
      "hit": false,
      "t": 585236.1571875007,
      "d": 868.8438281250419,
      "v": 127
    },
    {
      "midi": 55,
      "hit": false,
      "t": 585721.4786718758,
      "d": 871.2112500000512,
      "v": 90
    },
    {
      "midi": 62,
      "hit": false,
      "t": 586145.2471875008,
      "d": 812.0257031250512,
      "v": 127
    },
    {
      "midi": 64,
      "hit": false,
      "t": 586145.2471875008,
      "d": 828.59765625,
      "v": 127
    },
    {
      "midi": 59,
      "hit": false,
      "t": 586578.4853906258,
      "d": 1105.586015625042,
      "v": 75
    },
    {
      "midi": 64,
      "hit": false,
      "t": 587054.3371875008,
      "d": 624.999375000014,
      "v": 127
    },
    {
      "midi": 62,
      "hit": false,
      "t": 587054.3371875008,
      "d": 785.9840625000652,
      "v": 127
    },
    {
      "midi": 69,
      "hit": false,
      "t": 587963.4271875009,
      "d": 1661.9301562500186,
      "v": 127
    },
    {
      "midi": 72,
      "hit": false,
      "t": 587963.4271875009,
      "d": 1695.0740625000326,
      "v": 127
    },
    {
      "midi": 45,
      "hit": false,
      "t": 587984.7339843758,
      "d": 1794.5057812500745,
      "v": 127
    },
    {
      "midi": 64,
      "hit": false,
      "t": 588439.2789843759,
      "d": 445.07531250000466,
      "v": 127
    },
    {
      "midi": 67,
      "hit": false,
      "t": 588865.4149218759,
      "d": 435.6056249999674,
      "v": 127
    },
    {
      "midi": 60,
      "hit": false,
      "t": 589303.3879687509,
      "d": 954.0710156250279,
      "v": 127
    },
    {
      "midi": 62,
      "hit": false,
      "t": 589781.6071875009,
      "d": 620.2645312499953,
      "v": 127
    },
    {
      "midi": 71,
      "hit": false,
      "t": 589781.6071875009,
      "d": 658.1432812500279,
      "v": 127
    },
    {
      "midi": 67,
      "hit": false,
      "t": 589781.6071875009,
      "d": 785.9840625000652,
      "v": 127
    },
    {
      "midi": 47,
      "hit": false,
      "t": 589783.9746093759,
      "d": 1761.3618750000605,
      "v": 127
    },
    {
      "midi": 59,
      "hit": false,
      "t": 590252.7241406259,
      "d": 911.4574218750931,
      "v": 127
    },
    {
      "midi": 67,
      "hit": false,
      "t": 590690.697187501,
      "d": 584.7532031249721,
      "v": 127
    },
    {
      "midi": 74,
      "hit": false,
      "t": 590690.697187501,
      "d": 610.7948437499581,
      "v": 127
    },
    {
      "midi": 48,
      "hit": false,
      "t": 591559.541015626,
      "d": 3671.8713281250093,
      "v": 127
    },
    {
      "midi": 62,
      "hit": false,
      "t": 591599.7871875011,
      "d": 2651.5124999999534,
      "v": 127
    },
    {
      "midi": 64,
      "hit": false,
      "t": 591599.7871875011,
      "d": 2660.9821874999907,
      "v": 127
    },
    {
      "midi": 72,
      "hit": false,
      "t": 591599.7871875011,
      "d": 2722.53515625,
      "v": 127
    },
    {
      "midi": 67,
      "hit": false,
      "t": 591599.7871875011,
      "d": 2724.9025781250093,
      "v": 127
    },
    {
      "midi": 45,
      "hit": false,
      "t": 595207.7381250011,
      "d": 1787.4035156250466,
      "v": 127
    },
    {
      "midi": 69,
      "hit": false,
      "t": 595236.1471875011,
      "d": 1680.8695312499767,
      "v": 127
    },
    {
      "midi": 72,
      "hit": false,
      "t": 595236.1471875011,
      "d": 1685.6043749999953,
      "v": 127
    },
    {
      "midi": 64,
      "hit": false,
      "t": 595664.6505468761,
      "d": 449.81015624990687,
      "v": 127
    },
    {
      "midi": 67,
      "hit": false,
      "t": 596097.8887500011,
      "d": 454.5449999999255,
      "v": 127
    },
    {
      "midi": 60,
      "hit": false,
      "t": 596559.536015626,
      "d": 961.1732812500559,
      "v": 127
    },
    {
      "midi": 47,
      "hit": false,
      "t": 597004.6113281262,
      "d": 1770.831562499865,
      "v": 127
    },
    {
      "midi": 62,
      "hit": false,
      "t": 597054.3271875011,
      "d": 712.5939843750093,
      "v": 127
    },
    {
      "midi": 71,
      "hit": false,
      "t": 597054.3271875011,
      "d": 743.370468750014,
      "v": 127
    },
    {
      "midi": 67,
      "hit": false,
      "t": 597054.3271875011,
      "d": 788.3514843749581,
      "v": 127
    },
    {
      "midi": 59,
      "hit": false,
      "t": 597520.7092968761,
      "d": 901.9877343749395,
      "v": 127
    },
    {
      "midi": 67,
      "hit": false,
      "t": 597963.4171875011,
      "d": 778.8817968749208,
      "v": 127
    },
    {
      "midi": 74,
      "hit": false,
      "t": 597963.4171875011,
      "d": 807.2908593749162,
      "v": 127
    },
    {
      "midi": 48,
      "hit": false,
      "t": 598799.117109376,
      "d": 3664.769062500214,
      "v": 127
    },
    {
      "midi": 62,
      "hit": false,
      "t": 598872.5071875011,
      "d": 1872.6307031250326,
      "v": 127
    },
    {
      "midi": 64,
      "hit": false,
      "t": 598872.5071875011,
      "d": 2743.841953125084,
      "v": 127
    },
    {
      "midi": 72,
      "hit": false,
      "t": 598872.5071875011,
      "d": 2743.841953125084,
      "v": 127
    },
    {
      "midi": 67,
      "hit": false,
      "t": 598872.5071875011,
      "d": 2746.209375000093,
      "v": 127
    },
    {
      "midi": 45,
      "hit": false,
      "t": 602435.4771093762,
      "d": 1915.2442968750838,
      "v": 127
    },
    {
      "midi": 72,
      "hit": false,
      "t": 602508.8671875012,
      "d": 840.4347656250466,
      "v": 127
    },
    {
      "midi": 69,
      "hit": false,
      "t": 602508.8671875012,
      "d": 868.8438281250419,
      "v": 127
    },
    {
      "midi": 64,
      "hit": false,
      "t": 602951.5750781262,
      "d": 400.09429687506054,
      "v": 127
    },
    {
      "midi": 67,
      "hit": false,
      "t": 603413.2223437512,
      "d": 423.76851562503725,
      "v": 127
    },
    {
      "midi": 64,
      "hit": false,
      "t": 603417.9571875012,
      "d": 771.7795312500093,
      "v": 127
    },
    {
      "midi": 72,
      "hit": false,
      "t": 603417.9571875012,
      "d": 785.9840625000652,
      "v": 127
    },
    {
      "midi": 69,
      "hit": false,
      "t": 603417.9571875012,
      "d": 800.1885937501211,
      "v": 127
    },
    {
      "midi": 60,
      "hit": false,
      "t": 603891.4415625012,
      "d": 911.4574218749767,
      "v": 127
    },
    {
      "midi": 62,
      "hit": false,
      "t": 604327.0471875013,
      "d": 603.6925781249302,
      "v": 127
    },
    {
      "midi": 71,
      "hit": false,
      "t": 604327.0471875013,
      "d": 613.1622656249674,
      "v": 127
    },
    {
      "midi": 67,
      "hit": false,
      "t": 604327.0471875013,
      "d": 748.1053124999162,
      "v": 127
    },
    {
      "midi": 47,
      "hit": false,
      "t": 604367.2933593763,
      "d": 1794.5057812500745,
      "v": 127
    },
    {
      "midi": 59,
      "hit": false,
      "t": 604810.0012500013,
      "d": 899.6203125000466,
      "v": 127
    },
    {
      "midi": 67,
      "hit": false,
      "t": 605236.1371875013,
      "d": 627.3667968750233,
      "v": 127
    },
    {
      "midi": 74,
      "hit": false,
      "t": 605236.1371875013,
      "d": 726.7985156250652,
      "v": 127
    },
    {
      "midi": 62,
      "hit": false,
      "t": 605702.5192968763,
      "d": 911.4574218750931,
      "v": 127
    },
    {
      "midi": 64,
      "hit": false,
      "t": 606145.2271875014,
      "d": 764.6772656249814,
      "v": 127
    },
    {
      "midi": 72,
      "hit": false,
      "t": 606145.2271875014,
      "d": 764.6772656249814,
      "v": 127
    },
    {
      "midi": 67,
      "hit": false,
      "t": 606145.2271875014,
      "d": 767.0446874999907,
      "v": 127
    },
    {
      "midi": 48,
      "hit": false,
      "t": 606194.9430468763,
      "d": 1867.8958593751304,
      "v": 127
    },
    {
      "midi": 60,
      "hit": false,
      "t": 606635.2835156263,
      "d": 636.8364843750605,
      "v": 127
    },
    {
      "midi": 64,
      "hit": false,
      "t": 607054.3171875014,
      "d": 549.2418750000652,
      "v": 127
    },
    {
      "midi": 72,
      "hit": false,
      "t": 607054.3171875014,
      "d": 551.6092968750745,
      "v": 127
    },
    {
      "midi": 67,
      "hit": false,
      "t": 607054.3171875014,
      "d": 572.9160937500419,
      "v": 127
    },
    {
      "midi": 60,
      "hit": false,
      "t": 607549.1083593764,
      "d": 833.3325000000186,
      "v": 127
    },
    {
      "midi": 66,
      "hit": false,
      "t": 607963.4071875014,
      "d": 717.3288281250279,
      "v": 127
    },
    {
      "midi": 69,
      "hit": false,
      "t": 607963.4071875014,
      "d": 769.412109375,
      "v": 127
    },
    {
      "midi": 50,
      "hit": false,
      "t": 608058.1040625015,
      "d": 1766.0967187500792,
      "v": 127
    },
    {
      "midi": 62,
      "hit": false,
      "t": 608429.7892968764,
      "d": 580.0183593749534,
      "v": 127
    },
    {
      "midi": 66,
      "hit": false,
      "t": 608872.4971875014,
      "d": 776.5143750000279,
      "v": 127
    },
    {
      "midi": 69,
      "hit": false,
      "t": 608872.4971875014,
      "d": 816.7605468750698,
      "v": 127
    },
    {
      "midi": 62,
      "hit": false,
      "t": 609374.3906250014,
      "d": 442.70789062511176,
      "v": 127
    },
    {
      "midi": 59,
      "hit": false,
      "t": 609999.3900000015,
      "d": 6510.41015625,
      "v": 127
    },
    {
      "midi": 50,
      "hit": false,
      "t": 609999.3900000015,
      "d": 6517.512421875028,
      "v": 127
    },
    {
      "midi": 57,
      "hit": false,
      "t": 609999.3900000015,
      "d": 6517.512421875028,
      "v": 127
    },
    {
      "midi": 62,
      "hit": false,
      "t": 609999.3900000015,
      "d": 6517.512421875028,
      "v": 127
    },
    {
      "midi": 67,
      "hit": false,
      "t": 609999.3900000015,
      "d": 6526.982109375065,
      "v": 127
    },
    {
      "midi": 43,
      "hit": false,
      "t": 609999.3900000015,
      "d": 6564.860859375098,
      "v": 127
    }
  ]
}