{
  "jsonPath": "Rock/Hard Rock/Gotthard/what-can-i-do.json",
  "path": "Rock\\Hard Rock\\Gotthard\\What Can I Do.mid",
  "name": "What Can I Do",
  "difficulty": "Advanced",
  "bpm": 70.00023333411112,
  "notes": [
    {
      "midi": 38,
      "hit": false,
      "t": 6857.119999999999,
      "d": 310.26682291666657,
      "v": 84
    },
    {
      "midi": 61,
      "hit": false,
      "t": 6857.119999999999,
      "d": 1499.994999999999,
      "v": 63
    },
    {
      "midi": 66,
      "hit": false,
      "t": 6857.119999999999,
      "d": 1607.137499999999,
      "v": 62
    },
    {
      "midi": 64,
      "hit": false,
      "t": 6857.119999999999,
      "d": 1642.8516666666656,
      "v": 67
    },
    {
      "midi": 69,
      "hit": false,
      "t": 6857.119999999999,
      "d": 1642.8516666666656,
      "v": 84
    },
    {
      "midi": 38,
      "hit": false,
      "t": 6857.119999999999,
      "d": 310.26682291666657,
      "v": 84
    },
    {
      "midi": 61,
      "hit": false,
      "t": 6857.119999999999,
      "d": 1499.994999999999,
      "v": 63
    },
    {
      "midi": 66,
      "hit": false,
      "t": 6857.119999999999,
      "d": 1607.137499999999,
      "v": 62
    },
    {
      "midi": 64,
      "hit": false,
      "t": 6857.119999999999,
      "d": 1642.8516666666656,
      "v": 67
    },
    {
      "midi": 69,
      "hit": false,
      "t": 6857.119999999999,
      "d": 1642.8516666666656,
      "v": 84
    },
    {
      "midi": 45,
      "hit": false,
      "t": 7499.9749999999985,
      "d": 178.5708333333332,
      "v": 68
    },
    {
      "midi": 45,
      "hit": false,
      "t": 7499.9749999999985,
      "d": 178.5708333333332,
      "v": 68
    },
    {
      "midi": 54,
      "hit": false,
      "t": 8142.829999999998,
      "d": 154.01734374999978,
      "v": 55
    },
    {
      "midi": 54,
      "hit": false,
      "t": 8142.829999999998,
      "d": 154.01734374999978,
      "v": 55
    },
    {
      "midi": 61,
      "hit": false,
      "t": 8571.399999999998,
      "d": 319.1953645833328,
      "v": 53
    },
    {
      "midi": 61,
      "hit": false,
      "t": 8571.399999999998,
      "d": 319.1953645833328,
      "v": 53
    },
    {
      "midi": 59,
      "hit": false,
      "t": 10176.30536458333,
      "d": 3279.006927083332,
      "v": 67
    },
    {
      "midi": 59,
      "hit": false,
      "t": 10176.30536458333,
      "d": 3279.006927083332,
      "v": 67
    },
    {
      "midi": 63,
      "hit": false,
      "t": 10245.501562499996,
      "d": 3274.5426562499997,
      "v": 62
    },
    {
      "midi": 63,
      "hit": false,
      "t": 10245.501562499996,
      "d": 3274.5426562499997,
      "v": 62
    },
    {
      "midi": 66,
      "hit": false,
      "t": 10265.590781249995,
      "d": 3252.2213020833333,
      "v": 62
    },
    {
      "midi": 66,
      "hit": false,
      "t": 10265.590781249995,
      "d": 3252.2213020833333,
      "v": 62
    },
    {
      "midi": 47,
      "hit": false,
      "t": 10310.233489583328,
      "d": 2841.508385416666,
      "v": 79
    },
    {
      "midi": 47,
      "hit": false,
      "t": 10310.233489583328,
      "d": 2841.508385416666,
      "v": 79
    },
    {
      "midi": 72,
      "hit": false,
      "t": 10321.394166666661,
      "d": 607.1408333333329,
      "v": 61
    },
    {
      "midi": 72,
      "hit": false,
      "t": 10321.394166666661,
      "d": 607.1408333333329,
      "v": 61
    },
    {
      "midi": 71,
      "hit": false,
      "t": 10866.035208333327,
      "d": 2647.3126041666674,
      "v": 58
    },
    {
      "midi": 71,
      "hit": false,
      "t": 10866.035208333327,
      "d": 2647.3126041666674,
      "v": 58
    },
    {
      "midi": 64,
      "hit": false,
      "t": 13714.239999999996,
      "d": 3281.2390625000025,
      "v": 67
    },
    {
      "midi": 59,
      "hit": false,
      "t": 13714.239999999996,
      "d": 3294.631875000001,
      "v": 68
    },
    {
      "midi": 67,
      "hit": false,
      "t": 13714.239999999996,
      "d": 3296.864010416668,
      "v": 67
    },
    {
      "midi": 66,
      "hit": false,
      "t": 13714.239999999996,
      "d": 3308.024687500003,
      "v": 67
    },
    {
      "midi": 52,
      "hit": false,
      "t": 13714.239999999996,
      "d": 3312.488958333337,
      "v": 63
    },
    {
      "midi": 40,
      "hit": false,
      "t": 13714.239999999996,
      "d": 3334.8103125000034,
      "v": 71
    },
    {
      "midi": 64,
      "hit": false,
      "t": 13714.239999999996,
      "d": 3281.2390625000025,
      "v": 67
    },
    {
      "midi": 59,
      "hit": false,
      "t": 13714.239999999996,
      "d": 3294.631875000001,
      "v": 68
    },
    {
      "midi": 67,
      "hit": false,
      "t": 13714.239999999996,
      "d": 3296.864010416668,
      "v": 67
    },
    {
      "midi": 66,
      "hit": false,
      "t": 13714.239999999996,
      "d": 3308.024687500003,
      "v": 67
    },
    {
      "midi": 52,
      "hit": false,
      "t": 13714.239999999996,
      "d": 3312.488958333337,
      "v": 63
    },
    {
      "midi": 40,
      "hit": false,
      "t": 13714.239999999996,
      "d": 3334.8103125000034,
      "v": 71
    },
    {
      "midi": 78,
      "hit": false,
      "t": 14778.968593749996,
      "d": 2212.0461979166685,
      "v": 48
    },
    {
      "midi": 78,
      "hit": false,
      "t": 14778.968593749996,
      "d": 2212.0461979166685,
      "v": 48
    },
    {
      "midi": 79,
      "hit": false,
      "t": 14993.253593749996,
      "d": 1959.8148958333331,
      "v": 36
    },
    {
      "midi": 79,
      "hit": false,
      "t": 14993.253593749996,
      "d": 1959.8148958333331,
      "v": 36
    },
    {
      "midi": 86,
      "hit": false,
      "t": 15212.00286458333,
      "d": 1738.8334895833323,
      "v": 48
    },
    {
      "midi": 86,
      "hit": false,
      "t": 15212.00286458333,
      "d": 1738.8334895833323,
      "v": 48
    },
    {
      "midi": 59,
      "hit": false,
      "t": 17142.8,
      "d": 607.1408333333311,
      "v": 84
    },
    {
      "midi": 69,
      "hit": false,
      "t": 17142.8,
      "d": 678.569166666668,
      "v": 86
    },
    {
      "midi": 57,
      "hit": false,
      "t": 17142.8,
      "d": 1107.1391666666677,
      "v": 80
    },
    {
      "midi": 62,
      "hit": false,
      "t": 17142.8,
      "d": 1249.9958333333343,
      "v": 71
    },
    {
      "midi": 59,
      "hit": false,
      "t": 17142.8,
      "d": 607.1408333333311,
      "v": 84
    },
    {
      "midi": 69,
      "hit": false,
      "t": 17142.8,
      "d": 678.569166666668,
      "v": 86
    },
    {
      "midi": 57,
      "hit": false,
      "t": 17142.8,
      "d": 1107.1391666666677,
      "v": 80
    },
    {
      "midi": 62,
      "hit": false,
      "t": 17142.8,
      "d": 1249.9958333333343,
      "v": 71
    },
    {
      "midi": 33,
      "hit": false,
      "t": 17162.88921875,
      "d": 1404.013177083336,
      "v": 95
    },
    {
      "midi": 33,
      "hit": false,
      "t": 17162.88921875,
      "d": 1404.013177083336,
      "v": 95
    },
    {
      "midi": 45,
      "hit": false,
      "t": 17176.282031249997,
      "d": 1314.7277604166702,
      "v": 82
    },
    {
      "midi": 45,
      "hit": false,
      "t": 17176.282031249997,
      "d": 1314.7277604166702,
      "v": 82
    },
    {
      "midi": 71,
      "hit": false,
      "t": 17785.655,
      "d": 535.7125000000015,
      "v": 76
    },
    {
      "midi": 59,
      "hit": false,
      "t": 17785.655,
      "d": 587.0516145833353,
      "v": 68
    },
    {
      "midi": 71,
      "hit": false,
      "t": 17785.655,
      "d": 535.7125000000015,
      "v": 76
    },
    {
      "midi": 59,
      "hit": false,
      "t": 17785.655,
      "d": 587.0516145833353,
      "v": 68
    },
    {
      "midi": 57,
      "hit": false,
      "t": 18428.510000000002,
      "d": 1962.0470312500001,
      "v": 68
    },
    {
      "midi": 59,
      "hit": false,
      "t": 18428.510000000002,
      "d": 1975.4398437499985,
      "v": 66
    },
    {
      "midi": 61,
      "hit": false,
      "t": 18428.510000000002,
      "d": 1999.993333333332,
      "v": 73
    },
    {
      "midi": 64,
      "hit": false,
      "t": 18428.510000000002,
      "d": 2002.225468749999,
      "v": 71
    },
    {
      "midi": 57,
      "hit": false,
      "t": 18428.510000000002,
      "d": 1962.0470312500001,
      "v": 68
    },
    {
      "midi": 59,
      "hit": false,
      "t": 18428.510000000002,
      "d": 1975.4398437499985,
      "v": 66
    },
    {
      "midi": 61,
      "hit": false,
      "t": 18428.510000000002,
      "d": 1999.993333333332,
      "v": 73
    },
    {
      "midi": 64,
      "hit": false,
      "t": 18428.510000000002,
      "d": 2002.225468749999,
      "v": 71
    },
    {
      "midi": 45,
      "hit": false,
      "t": 18491.009791666667,
      "d": 6.696406250001019,
      "v": 82
    },
    {
      "midi": 45,
      "hit": false,
      "t": 18491.009791666667,
      "d": 6.696406250001019,
      "v": 82
    },
    {
      "midi": 38,
      "hit": false,
      "t": 20571.360000000004,
      "d": 450.89135416666613,
      "v": 84
    },
    {
      "midi": 69,
      "hit": false,
      "t": 20571.360000000004,
      "d": 486.6055208333346,
      "v": 73
    },
    {
      "midi": 61,
      "hit": false,
      "t": 20571.360000000004,
      "d": 531.2482291666674,
      "v": 79
    },
    {
      "midi": 64,
      "hit": false,
      "t": 20571.360000000004,
      "d": 535.7125000000015,
      "v": 84
    },
    {
      "midi": 66,
      "hit": false,
      "t": 20571.360000000004,
      "d": 544.6410416666695,
      "v": 82
    },
    {
      "midi": 38,
      "hit": false,
      "t": 20571.360000000004,
      "d": 450.89135416666613,
      "v": 84
    },
    {
      "midi": 69,
      "hit": false,
      "t": 20571.360000000004,
      "d": 486.6055208333346,
      "v": 73
    },
    {
      "midi": 61,
      "hit": false,
      "t": 20571.360000000004,
      "d": 531.2482291666674,
      "v": 79
    },
    {
      "midi": 64,
      "hit": false,
      "t": 20571.360000000004,
      "d": 535.7125000000015,
      "v": 84
    },
    {
      "midi": 66,
      "hit": false,
      "t": 20571.360000000004,
      "d": 544.6410416666695,
      "v": 82
    },
    {
      "midi": 45,
      "hit": false,
      "t": 21214.215000000007,
      "d": 124.99958333333416,
      "v": 66
    },
    {
      "midi": 45,
      "hit": false,
      "t": 21214.215000000007,
      "d": 124.99958333333416,
      "v": 66
    },
    {
      "midi": 50,
      "hit": false,
      "t": 21857.070000000007,
      "d": 100.44609375000073,
      "v": 68
    },
    {
      "midi": 50,
      "hit": false,
      "t": 21857.070000000007,
      "d": 100.44609375000073,
      "v": 68
    },
    {
      "midi": 72,
      "hit": false,
      "t": 23999.92000000001,
      "d": 524.5518229166664,
      "v": 79
    },
    {
      "midi": 63,
      "hit": false,
      "t": 23999.92000000001,
      "d": 2908.472447916669,
      "v": 76
    },
    {
      "midi": 66,
      "hit": false,
      "t": 23999.92000000001,
      "d": 3024.543489583335,
      "v": 82
    },
    {
      "midi": 47,
      "hit": false,
      "t": 23999.92000000001,
      "d": 3053.561249999999,
      "v": 87
    },
    {
      "midi": 72,
      "hit": false,
      "t": 23999.92000000001,
      "d": 524.5518229166664,
      "v": 79
    },
    {
      "midi": 63,
      "hit": false,
      "t": 23999.92000000001,
      "d": 2908.472447916669,
      "v": 76
    },
    {
      "midi": 66,
      "hit": false,
      "t": 23999.92000000001,
      "d": 3024.543489583335,
      "v": 82
    },
    {
      "midi": 47,
      "hit": false,
      "t": 23999.92000000001,
      "d": 3053.561249999999,
      "v": 87
    },
    {
      "midi": 71,
      "hit": false,
      "t": 24642.77500000001,
      "d": 2395.081302083334,
      "v": 64
    },
    {
      "midi": 71,
      "hit": false,
      "t": 24642.77500000001,
      "d": 2395.081302083334,
      "v": 64
    },
    {
      "midi": 69,
      "hit": false,
      "t": 26573.572135416678,
      "d": 741.0689583333296,
      "v": 61
    },
    {
      "midi": 69,
      "hit": false,
      "t": 26573.572135416678,
      "d": 741.0689583333296,
      "v": 61
    },
    {
      "midi": 57,
      "hit": false,
      "t": 26578.036406250012,
      "d": 738.8368229166626,
      "v": 63
    },
    {
      "midi": 57,
      "hit": false,
      "t": 26578.036406250012,
      "d": 738.8368229166626,
      "v": 63
    },
    {
      "midi": 67,
      "hit": false,
      "t": 27428.480000000007,
      "d": 3029.0077604166654,
      "v": 63
    },
    {
      "midi": 71,
      "hit": false,
      "t": 27428.480000000007,
      "d": 3029.0077604166654,
      "v": 71
    },
    {
      "midi": 66,
      "hit": false,
      "t": 27428.480000000007,
      "d": 3062.489791666667,
      "v": 58
    },
    {
      "midi": 52,
      "hit": false,
      "t": 27428.480000000007,
      "d": 3066.954062500001,
      "v": 53
    },
    {
      "midi": 40,
      "hit": false,
      "t": 27428.480000000007,
      "d": 3073.650468750002,
      "v": 66
    },
    {
      "midi": 67,
      "hit": false,
      "t": 27428.480000000007,
      "d": 3029.0077604166654,
      "v": 63
    },
    {
      "midi": 71,
      "hit": false,
      "t": 27428.480000000007,
      "d": 3029.0077604166654,
      "v": 71
    },
    {
      "midi": 66,
      "hit": false,
      "t": 27428.480000000007,
      "d": 3062.489791666667,
      "v": 58
    },
    {
      "midi": 52,
      "hit": false,
      "t": 27428.480000000007,
      "d": 3066.954062500001,
      "v": 53
    },
    {
      "midi": 40,
      "hit": false,
      "t": 27428.480000000007,
      "d": 3073.650468750002,
      "v": 66
    },
    {
      "midi": 64,
      "hit": false,
      "t": 30857.04000000001,
      "d": 540.1767708333318,
      "v": 79
    },
    {
      "midi": 69,
      "hit": false,
      "t": 30857.04000000001,
      "d": 560.2659895833312,
      "v": 79
    },
    {
      "midi": 67,
      "hit": false,
      "t": 30857.04000000001,
      "d": 571.4266666666663,
      "v": 91
    },
    {
      "midi": 33,
      "hit": false,
      "t": 30857.04000000001,
      "d": 1203.1209895833308,
      "v": 79
    },
    {
      "midi": 45,
      "hit": false,
      "t": 30857.04000000001,
      "d": 1203.1209895833308,
      "v": 66
    },
    {
      "midi": 64,
      "hit": false,
      "t": 30857.04000000001,
      "d": 540.1767708333318,
      "v": 79
    },
    {
      "midi": 69,
      "hit": false,
      "t": 30857.04000000001,
      "d": 560.2659895833312,
      "v": 79
    },
    {
      "midi": 67,
      "hit": false,
      "t": 30857.04000000001,
      "d": 571.4266666666663,
      "v": 91
    },
    {
      "midi": 33,
      "hit": false,
      "t": 30857.04000000001,
      "d": 1203.1209895833308,
      "v": 79
    },
    {
      "midi": 45,
      "hit": false,
      "t": 30857.04000000001,
      "d": 1203.1209895833308,
      "v": 66
    },
    {
      "midi": 64,
      "hit": false,
      "t": 31499.89500000001,
      "d": 310.26682291666657,
      "v": 61
    },
    {
      "midi": 67,
      "hit": false,
      "t": 31499.89500000001,
      "d": 316.9632291666676,
      "v": 68
    },
    {
      "midi": 71,
      "hit": false,
      "t": 31499.89500000001,
      "d": 332.588177083333,
      "v": 66
    },
    {
      "midi": 64,
      "hit": false,
      "t": 31499.89500000001,
      "d": 310.26682291666657,
      "v": 61
    },
    {
      "midi": 67,
      "hit": false,
      "t": 31499.89500000001,
      "d": 316.9632291666676,
      "v": 68
    },
    {
      "midi": 71,
      "hit": false,
      "t": 31499.89500000001,
      "d": 332.588177083333,
      "v": 66
    },
    {
      "midi": 57,
      "hit": false,
      "t": 32142.75000000001,
      "d": 2022.3146874999984,
      "v": 66
    },
    {
      "midi": 45,
      "hit": false,
      "t": 32142.75000000001,
      "d": 2035.7075000000004,
      "v": 63
    },
    {
      "midi": 33,
      "hit": false,
      "t": 32142.75000000001,
      "d": 2037.9396354166638,
      "v": 68
    },
    {
      "midi": 59,
      "hit": false,
      "t": 32142.75000000001,
      "d": 2037.9396354166638,
      "v": 64
    },
    {
      "midi": 61,
      "hit": false,
      "t": 32142.75000000001,
      "d": 2046.8681770833318,
      "v": 76
    },
    {
      "midi": 64,
      "hit": false,
      "t": 32142.75000000001,
      "d": 2046.8681770833318,
      "v": 69
    },
    {
      "midi": 57,
      "hit": false,
      "t": 32142.75000000001,
      "d": 2022.3146874999984,
      "v": 66
    },
    {
      "midi": 45,
      "hit": false,
      "t": 32142.75000000001,
      "d": 2035.7075000000004,
      "v": 63
    },
    {
      "midi": 33,
      "hit": false,
      "t": 32142.75000000001,
      "d": 2037.9396354166638,
      "v": 68
    },
    {
      "midi": 59,
      "hit": false,
      "t": 32142.75000000001,
      "d": 2037.9396354166638,
      "v": 64
    },
    {
      "midi": 61,
      "hit": false,
      "t": 32142.75000000001,
      "d": 2046.8681770833318,
      "v": 76
    },
    {
      "midi": 64,
      "hit": false,
      "t": 32142.75000000001,
      "d": 2046.8681770833318,
      "v": 69
    },
    {
      "midi": 69,
      "hit": false,
      "t": 33428.46000000001,
      "d": 475.4448437500032,
      "v": 76
    },
    {
      "midi": 69,
      "hit": false,
      "t": 33428.46000000001,
      "d": 475.4448437500032,
      "v": 76
    },
    {
      "midi": 71,
      "hit": false,
      "t": 33857.030000000006,
      "d": 415.17718750000495,
      "v": 79
    },
    {
      "midi": 71,
      "hit": false,
      "t": 33857.030000000006,
      "d": 415.17718750000495,
      "v": 79
    },
    {
      "midi": 61,
      "hit": false,
      "t": 34216.40380208334,
      "d": 3147.310937500006,
      "v": 66
    },
    {
      "midi": 61,
      "hit": false,
      "t": 34216.40380208334,
      "d": 3147.310937500006,
      "v": 66
    },
    {
      "midi": 64,
      "hit": false,
      "t": 34258.81437500001,
      "d": 3109.3646354166704,
      "v": 67
    },
    {
      "midi": 64,
      "hit": false,
      "t": 34258.81437500001,
      "d": 3109.3646354166704,
      "v": 67
    },
    {
      "midi": 66,
      "hit": false,
      "t": 34283.36786458334,
      "d": 3093.739687500005,
      "v": 74
    },
    {
      "midi": 66,
      "hit": false,
      "t": 34283.36786458334,
      "d": 3093.739687500005,
      "v": 74
    },
    {
      "midi": 38,
      "hit": false,
      "t": 34319.08203125001,
      "d": 1363.8347395833334,
      "v": 87
    },
    {
      "midi": 38,
      "hit": false,
      "t": 34319.08203125001,
      "d": 1363.8347395833334,
      "v": 87
    },
    {
      "midi": 69,
      "hit": false,
      "t": 34328.010572916675,
      "d": 3073.6504687500055,
      "v": 65
    },
    {
      "midi": 69,
      "hit": false,
      "t": 34328.010572916675,
      "d": 3073.6504687500055,
      "v": 65
    },
    {
      "midi": 73,
      "hit": false,
      "t": 34348.099791666675,
      "d": 3049.096979166672,
      "v": 70
    },
    {
      "midi": 73,
      "hit": false,
      "t": 34348.099791666675,
      "d": 3049.096979166672,
      "v": 70
    },
    {
      "midi": 54,
      "hit": false,
      "t": 35571.310000000005,
      "d": 1734.3692187500055,
      "v": 55
    },
    {
      "midi": 54,
      "hit": false,
      "t": 35571.310000000005,
      "d": 1734.3692187500055,
      "v": 55
    },
    {
      "midi": 72,
      "hit": false,
      "t": 37714.16000000001,
      "d": 499.99833333332936,
      "v": 68
    },
    {
      "midi": 63,
      "hit": false,
      "t": 37714.16000000001,
      "d": 2607.1341666666704,
      "v": 66
    },
    {
      "midi": 66,
      "hit": false,
      "t": 37714.16000000001,
      "d": 2607.1341666666704,
      "v": 67
    },
    {
      "midi": 47,
      "hit": false,
      "t": 37714.16000000001,
      "d": 3428.560000000012,
      "v": 76
    },
    {
      "midi": 72,
      "hit": false,
      "t": 37714.16000000001,
      "d": 499.99833333332936,
      "v": 68
    },
    {
      "midi": 63,
      "hit": false,
      "t": 37714.16000000001,
      "d": 2607.1341666666704,
      "v": 66
    },
    {
      "midi": 66,
      "hit": false,
      "t": 37714.16000000001,
      "d": 2607.1341666666704,
      "v": 67
    },
    {
      "midi": 47,
      "hit": false,
      "t": 37714.16000000001,
      "d": 3428.560000000012,
      "v": 76
    },
    {
      "midi": 71,
      "hit": false,
      "t": 38357.01500000001,
      "d": 1714.280000000006,
      "v": 63
    },
    {
      "midi": 71,
      "hit": false,
      "t": 38357.01500000001,
      "d": 1714.280000000006,
      "v": 63
    },
    {
      "midi": 71,
      "hit": false,
      "t": 40285.580000000016,
      "d": 104.9103645833311,
      "v": 73
    },
    {
      "midi": 71,
      "hit": false,
      "t": 40285.580000000016,
      "d": 104.9103645833311,
      "v": 73
    },
    {
      "midi": 66,
      "hit": false,
      "t": 40714.150000000016,
      "d": 66.96406250000291,
      "v": 76
    },
    {
      "midi": 66,
      "hit": false,
      "t": 40714.150000000016,
      "d": 66.96406250000291,
      "v": 76
    },
    {
      "midi": 66,
      "hit": false,
      "t": 41158.34494791669,
      "d": 2296.8673437499892,
      "v": 68
    },
    {
      "midi": 66,
      "hit": false,
      "t": 41158.34494791669,
      "d": 2296.8673437499892,
      "v": 68
    },
    {
      "midi": 59,
      "hit": false,
      "t": 41162.80921875002,
      "d": 2270.0817187499924,
      "v": 68
    },
    {
      "midi": 59,
      "hit": false,
      "t": 41162.80921875002,
      "d": 2270.0817187499924,
      "v": 68
    },
    {
      "midi": 40,
      "hit": false,
      "t": 41169.50562500002,
      "d": 2256.6889062499977,
      "v": 68
    },
    {
      "midi": 40,
      "hit": false,
      "t": 41169.50562500002,
      "d": 2256.6889062499977,
      "v": 68
    },
    {
      "midi": 64,
      "hit": false,
      "t": 41173.969895833354,
      "d": 2276.77812499999,
      "v": 71
    },
    {
      "midi": 64,
      "hit": false,
      "t": 41173.969895833354,
      "d": 2276.77812499999,
      "v": 71
    },
    {
      "midi": 67,
      "hit": false,
      "t": 41176.20203125002,
      "d": 2265.6174479166584,
      "v": 63
    },
    {
      "midi": 67,
      "hit": false,
      "t": 41176.20203125002,
      "d": 2265.6174479166584,
      "v": 63
    },
    {
      "midi": 52,
      "hit": false,
      "t": 41180.66630208335,
      "d": 2254.456770833327,
      "v": 61
    },
    {
      "midi": 52,
      "hit": false,
      "t": 41180.66630208335,
      "d": 2254.456770833327,
      "v": 61
    },
    {
      "midi": 64,
      "hit": false,
      "t": 44571.28000000001,
      "d": 584.8194791666683,
      "v": 76
    },
    {
      "midi": 69,
      "hit": false,
      "t": 44571.28000000001,
      "d": 591.5158854166657,
      "v": 82
    },
    {
      "midi": 67,
      "hit": false,
      "t": 44571.28000000001,
      "d": 609.3729687500017,
      "v": 73
    },
    {
      "midi": 33,
      "hit": false,
      "t": 44571.28000000001,
      "d": 1285.7100000000064,
      "v": 76
    },
    {
      "midi": 45,
      "hit": false,
      "t": 44571.28000000001,
      "d": 1285.7100000000064,
      "v": 67
    },
    {
      "midi": 64,
      "hit": false,
      "t": 44571.28000000001,
      "d": 584.8194791666683,
      "v": 76
    },
    {
      "midi": 69,
      "hit": false,
      "t": 44571.28000000001,
      "d": 591.5158854166657,
      "v": 82
    },
    {
      "midi": 67,
      "hit": false,
      "t": 44571.28000000001,
      "d": 609.3729687500017,
      "v": 73
    },
    {
      "midi": 33,
      "hit": false,
      "t": 44571.28000000001,
      "d": 1285.7100000000064,
      "v": 76
    },
    {
      "midi": 45,
      "hit": false,
      "t": 44571.28000000001,
      "d": 1285.7100000000064,
      "v": 67
    },
    {
      "midi": 71,
      "hit": false,
      "t": 45214.13500000002,
      "d": 607.1408333333384,
      "v": 73
    },
    {
      "midi": 67,
      "hit": false,
      "t": 45214.13500000002,
      "d": 609.3729687500017,
      "v": 79
    },
    {
      "midi": 64,
      "hit": false,
      "t": 45214.13500000002,
      "d": 613.8372395833358,
      "v": 79
    },
    {
      "midi": 71,
      "hit": false,
      "t": 45214.13500000002,
      "d": 607.1408333333384,
      "v": 73
    },
    {
      "midi": 67,
      "hit": false,
      "t": 45214.13500000002,
      "d": 609.3729687500017,
      "v": 79
    },
    {
      "midi": 64,
      "hit": false,
      "t": 45214.13500000002,
      "d": 613.8372395833358,
      "v": 79
    },
    {
      "midi": 33,
      "hit": false,
      "t": 45856.99000000002,
      "d": 17.85708333333605,
      "v": 69
    },
    {
      "midi": 45,
      "hit": false,
      "t": 45856.99000000002,
      "d": 31.249895833338087,
      "v": 56
    },
    {
      "midi": 57,
      "hit": false,
      "t": 45856.99000000002,
      "d": 2060.2609895833375,
      "v": 71
    },
    {
      "midi": 59,
      "hit": false,
      "t": 45856.99000000002,
      "d": 2062.493125000001,
      "v": 68
    },
    {
      "midi": 64,
      "hit": false,
      "t": 45856.99000000002,
      "d": 2064.7252604166642,
      "v": 73
    },
    {
      "midi": 61,
      "hit": false,
      "t": 45856.99000000002,
      "d": 2075.8859374999956,
      "v": 71
    },
    {
      "midi": 33,
      "hit": false,
      "t": 45856.99000000002,
      "d": 17.85708333333605,
      "v": 69
    },
    {
      "midi": 45,
      "hit": false,
      "t": 45856.99000000002,
      "d": 31.249895833338087,
      "v": 56
    },
    {
      "midi": 57,
      "hit": false,
      "t": 45856.99000000002,
      "d": 2060.2609895833375,
      "v": 71
    },
    {
      "midi": 59,
      "hit": false,
      "t": 45856.99000000002,
      "d": 2062.493125000001,
      "v": 68
    },
    {
      "midi": 64,
      "hit": false,
      "t": 45856.99000000002,
      "d": 2064.7252604166642,
      "v": 73
    },
    {
      "midi": 61,
      "hit": false,
      "t": 45856.99000000002,
      "d": 2075.8859374999956,
      "v": 71
    },
    {
      "midi": 54,
      "hit": false,
      "t": 47999.84000000002,
      "d": 102.67822916666773,
      "v": 95
    },
    {
      "midi": 57,
      "hit": false,
      "t": 47999.84000000002,
      "d": 102.67822916666773,
      "v": 95
    },
    {
      "midi": 42,
      "hit": false,
      "t": 47999.84000000002,
      "d": 111.60677083333576,
      "v": 95
    },
    {
      "midi": 61,
      "hit": false,
      "t": 47999.84000000002,
      "d": 131.69598958333518,
      "v": 95
    },
    {
      "midi": 64,
      "hit": false,
      "t": 47999.84000000002,
      "d": 131.69598958333518,
      "v": 95
    },
    {
      "midi": 54,
      "hit": false,
      "t": 47999.84000000002,
      "d": 102.67822916666773,
      "v": 95
    },
    {
      "midi": 57,
      "hit": false,
      "t": 47999.84000000002,
      "d": 102.67822916666773,
      "v": 95
    },
    {
      "midi": 42,
      "hit": false,
      "t": 47999.84000000002,
      "d": 111.60677083333576,
      "v": 95
    },
    {
      "midi": 61,
      "hit": false,
      "t": 47999.84000000002,
      "d": 131.69598958333518,
      "v": 95
    },
    {
      "midi": 64,
      "hit": false,
      "t": 47999.84000000002,
      "d": 131.69598958333518,
      "v": 95
    },
    {
      "midi": 54,
      "hit": false,
      "t": 48428.41000000002,
      "d": 2609.3663020833337,
      "v": 84
    },
    {
      "midi": 57,
      "hit": false,
      "t": 48428.41000000002,
      "d": 2622.7591145833358,
      "v": 87
    },
    {
      "midi": 42,
      "hit": false,
      "t": 48428.41000000002,
      "d": 2629.455520833333,
      "v": 95
    },
    {
      "midi": 61,
      "hit": false,
      "t": 48428.41000000002,
      "d": 2647.312604166669,
      "v": 82
    },
    {
      "midi": 64,
      "hit": false,
      "t": 48428.41000000002,
      "d": 2647.312604166669,
      "v": 82
    },
    {
      "midi": 54,
      "hit": false,
      "t": 48428.41000000002,
      "d": 2609.3663020833337,
      "v": 84
    },
    {
      "midi": 57,
      "hit": false,
      "t": 48428.41000000002,
      "d": 2622.7591145833358,
      "v": 87
    },
    {
      "midi": 42,
      "hit": false,
      "t": 48428.41000000002,
      "d": 2629.455520833333,
      "v": 95
    },
    {
      "midi": 61,
      "hit": false,
      "t": 48428.41000000002,
      "d": 2647.312604166669,
      "v": 82
    },
    {
      "midi": 64,
      "hit": false,
      "t": 48428.41000000002,
      "d": 2647.312604166669,
      "v": 82
    },
    {
      "midi": 71,
      "hit": false,
      "t": 51428.40000000002,
      "d": 658.4799479166686,
      "v": 75
    },
    {
      "midi": 66,
      "hit": false,
      "t": 51428.40000000002,
      "d": 1203.120989583338,
      "v": 77
    },
    {
      "midi": 59,
      "hit": false,
      "t": 51428.40000000002,
      "d": 3194.185781250002,
      "v": 84
    },
    {
      "midi": 63,
      "hit": false,
      "t": 51428.40000000002,
      "d": 3209.8107291666674,
      "v": 84
    },
    {
      "midi": 47,
      "hit": false,
      "t": 51428.40000000002,
      "d": 3330.346041666664,
      "v": 95
    },
    {
      "midi": 71,
      "hit": false,
      "t": 51428.40000000002,
      "d": 658.4799479166686,
      "v": 75
    },
    {
      "midi": 66,
      "hit": false,
      "t": 51428.40000000002,
      "d": 1203.120989583338,
      "v": 77
    },
    {
      "midi": 59,
      "hit": false,
      "t": 51428.40000000002,
      "d": 3194.185781250002,
      "v": 84
    },
    {
      "midi": 63,
      "hit": false,
      "t": 51428.40000000002,
      "d": 3209.8107291666674,
      "v": 84
    },
    {
      "midi": 47,
      "hit": false,
      "t": 51428.40000000002,
      "d": 3330.346041666664,
      "v": 95
    },
    {
      "midi": 73,
      "hit": false,
      "t": 52071.25500000003,
      "d": 924.1040625000023,
      "v": 84
    },
    {
      "midi": 73,
      "hit": false,
      "t": 52071.25500000003,
      "d": 924.1040625000023,
      "v": 84
    },
    {
      "midi": 66,
      "hit": false,
      "t": 52714.11000000003,
      "d": 1926.3328645833244,
      "v": 81
    },
    {
      "midi": 66,
      "hit": false,
      "t": 52714.11000000003,
      "d": 1926.3328645833244,
      "v": 81
    },
    {
      "midi": 54,
      "hit": false,
      "t": 54856.96000000002,
      "d": 102.67822916666773,
      "v": 98
    },
    {
      "midi": 57,
      "hit": false,
      "t": 54856.96000000002,
      "d": 102.67822916666773,
      "v": 98
    },
    {
      "midi": 42,
      "hit": false,
      "t": 54856.96000000002,
      "d": 111.60677083333576,
      "v": 98
    },
    {
      "midi": 61,
      "hit": false,
      "t": 54856.96000000002,
      "d": 131.69598958333518,
      "v": 98
    },
    {
      "midi": 64,
      "hit": false,
      "t": 54856.96000000002,
      "d": 131.69598958333518,
      "v": 98
    },
    {
      "midi": 54,
      "hit": false,
      "t": 54856.96000000002,
      "d": 102.67822916666773,
      "v": 98
    },
    {
      "midi": 57,
      "hit": false,
      "t": 54856.96000000002,
      "d": 102.67822916666773,
      "v": 98
    },
    {
      "midi": 42,
      "hit": false,
      "t": 54856.96000000002,
      "d": 111.60677083333576,
      "v": 98
    },
    {
      "midi": 61,
      "hit": false,
      "t": 54856.96000000002,
      "d": 131.69598958333518,
      "v": 98
    },
    {
      "midi": 64,
      "hit": false,
      "t": 54856.96000000002,
      "d": 131.69598958333518,
      "v": 98
    },
    {
      "midi": 54,
      "hit": false,
      "t": 55285.53000000002,
      "d": 2609.3663020833337,
      "v": 84
    },
    {
      "midi": 57,
      "hit": false,
      "t": 55285.53000000002,
      "d": 2622.7591145833358,
      "v": 87
    },
    {
      "midi": 42,
      "hit": false,
      "t": 55285.53000000002,
      "d": 2629.455520833333,
      "v": 95
    },
    {
      "midi": 61,
      "hit": false,
      "t": 55285.53000000002,
      "d": 2647.312604166669,
      "v": 82
    },
    {
      "midi": 64,
      "hit": false,
      "t": 55285.53000000002,
      "d": 2647.312604166669,
      "v": 82
    },
    {
      "midi": 54,
      "hit": false,
      "t": 55285.53000000002,
      "d": 2609.3663020833337,
      "v": 84
    },
    {
      "midi": 57,
      "hit": false,
      "t": 55285.53000000002,
      "d": 2622.7591145833358,
      "v": 87
    },
    {
      "midi": 42,
      "hit": false,
      "t": 55285.53000000002,
      "d": 2629.455520833333,
      "v": 95
    },
    {
      "midi": 61,
      "hit": false,
      "t": 55285.53000000002,
      "d": 2647.312604166669,
      "v": 82
    },
    {
      "midi": 64,
      "hit": false,
      "t": 55285.53000000002,
      "d": 2647.312604166669,
      "v": 82
    },
    {
      "midi": 71,
      "hit": false,
      "t": 58285.520000000026,
      "d": 658.4799479166686,
      "v": 75
    },
    {
      "midi": 66,
      "hit": false,
      "t": 58285.520000000026,
      "d": 1203.120989583338,
      "v": 77
    },
    {
      "midi": 59,
      "hit": false,
      "t": 58285.520000000026,
      "d": 3194.185781250002,
      "v": 84
    },
    {
      "midi": 63,
      "hit": false,
      "t": 58285.520000000026,
      "d": 3209.8107291666674,
      "v": 84
    },
    {
      "midi": 47,
      "hit": false,
      "t": 58285.520000000026,
      "d": 3330.346041666664,
      "v": 95
    },
    {
      "midi": 71,
      "hit": false,
      "t": 58285.520000000026,
      "d": 658.4799479166686,
      "v": 75
    },
    {
      "midi": 66,
      "hit": false,
      "t": 58285.520000000026,
      "d": 1203.120989583338,
      "v": 77
    },
    {
      "midi": 59,
      "hit": false,
      "t": 58285.520000000026,
      "d": 3194.185781250002,
      "v": 84
    },
    {
      "midi": 63,
      "hit": false,
      "t": 58285.520000000026,
      "d": 3209.8107291666674,
      "v": 84
    },
    {
      "midi": 47,
      "hit": false,
      "t": 58285.520000000026,
      "d": 3330.346041666664,
      "v": 95
    },
    {
      "midi": 73,
      "hit": false,
      "t": 58928.37500000003,
      "d": 924.1040625000023,
      "v": 84
    },
    {
      "midi": 73,
      "hit": false,
      "t": 58928.37500000003,
      "d": 924.1040625000023,
      "v": 84
    },
    {
      "midi": 66,
      "hit": false,
      "t": 59571.23000000003,
      "d": 1926.3328645833244,
      "v": 81
    },
    {
      "midi": 66,
      "hit": false,
      "t": 59571.23000000003,
      "d": 1926.3328645833244,
      "v": 81
    },
    {
      "midi": 69,
      "hit": false,
      "t": 60856.94000000003,
      "d": 473.21270833333256,
      "v": 95
    },
    {
      "midi": 69,
      "hit": false,
      "t": 60856.94000000003,
      "d": 473.21270833333256,
      "v": 95
    },
    {
      "midi": 71,
      "hit": false,
      "t": 61285.51000000003,
      "d": 386.15942708332295,
      "v": 87
    },
    {
      "midi": 71,
      "hit": false,
      "t": 61285.51000000003,
      "d": 386.15942708332295,
      "v": 87
    },
    {
      "midi": 38,
      "hit": false,
      "t": 61714.08000000002,
      "d": 455.3556249999965,
      "v": 87
    },
    {
      "midi": 57,
      "hit": false,
      "t": 61714.08000000002,
      "d": 2357.135000000002,
      "v": 82
    },
    {
      "midi": 64,
      "hit": false,
      "t": 61714.08000000002,
      "d": 2357.135000000002,
      "v": 79
    },
    {
      "midi": 61,
      "hit": false,
      "t": 61714.08000000002,
      "d": 2571.4200000000055,
      "v": 87
    },
    {
      "midi": 66,
      "hit": false,
      "t": 61714.08000000002,
      "d": 2571.4200000000055,
      "v": 82
    },
    {
      "midi": 38,
      "hit": false,
      "t": 61714.08000000002,
      "d": 455.3556249999965,
      "v": 87
    },
    {
      "midi": 57,
      "hit": false,
      "t": 61714.08000000002,
      "d": 2357.135000000002,
      "v": 82
    },
    {
      "midi": 64,
      "hit": false,
      "t": 61714.08000000002,
      "d": 2357.135000000002,
      "v": 79
    },
    {
      "midi": 61,
      "hit": false,
      "t": 61714.08000000002,
      "d": 2571.4200000000055,
      "v": 87
    },
    {
      "midi": 66,
      "hit": false,
      "t": 61714.08000000002,
      "d": 2571.4200000000055,
      "v": 82
    },
    {
      "midi": 45,
      "hit": false,
      "t": 62356.93500000002,
      "d": 1285.7100000000064,
      "v": 73
    },
    {
      "midi": 45,
      "hit": false,
      "t": 62356.93500000002,
      "d": 1285.7100000000064,
      "v": 73
    },
    {
      "midi": 54,
      "hit": false,
      "t": 62999.79000000002,
      "d": 1285.7100000000064,
      "v": 84
    },
    {
      "midi": 54,
      "hit": false,
      "t": 62999.79000000002,
      "d": 1285.7100000000064,
      "v": 84
    },
    {
      "midi": 59,
      "hit": false,
      "t": 65017.6404166667,
      "d": 3368.292343749992,
      "v": 63
    },
    {
      "midi": 59,
      "hit": false,
      "t": 65017.6404166667,
      "d": 3368.292343749992,
      "v": 63
    },
    {
      "midi": 63,
      "hit": false,
      "t": 65077.908072916696,
      "d": 3323.6496354166666,
      "v": 75
    },
    {
      "midi": 63,
      "hit": false,
      "t": 65077.908072916696,
      "d": 3323.6496354166666,
      "v": 75
    },
    {
      "midi": 66,
      "hit": false,
      "t": 65120.318645833366,
      "d": 3287.9354687500017,
      "v": 60
    },
    {
      "midi": 66,
      "hit": false,
      "t": 65120.318645833366,
      "d": 3287.9354687500017,
      "v": 60
    },
    {
      "midi": 35,
      "hit": false,
      "t": 65158.2649479167,
      "d": 3138.3823958333232,
      "v": 87
    },
    {
      "midi": 35,
      "hit": false,
      "t": 65158.2649479167,
      "d": 3138.3823958333232,
      "v": 87
    },
    {
      "midi": 47,
      "hit": false,
      "t": 65160.497083333365,
      "d": 3136.15026041666,
      "v": 74
    },
    {
      "midi": 47,
      "hit": false,
      "t": 65160.497083333365,
      "d": 3136.15026041666,
      "v": 74
    },
    {
      "midi": 72,
      "hit": false,
      "t": 65191.746979166695,
      "d": 607.1408333333384,
      "v": 81
    },
    {
      "midi": 72,
      "hit": false,
      "t": 65191.746979166695,
      "d": 607.1408333333384,
      "v": 81
    },
    {
      "midi": 71,
      "hit": false,
      "t": 65798.88781250003,
      "d": 1928.5649999999878,
      "v": 72
    },
    {
      "midi": 71,
      "hit": false,
      "t": 65798.88781250003,
      "d": 1928.5649999999878,
      "v": 72
    },
    {
      "midi": 69,
      "hit": false,
      "t": 67714.06000000003,
      "d": 455.3556249999965,
      "v": 95
    },
    {
      "midi": 69,
      "hit": false,
      "t": 67714.06000000003,
      "d": 455.3556249999965,
      "v": 95
    },
    {
      "midi": 67,
      "hit": false,
      "t": 68142.63000000002,
      "d": 372.76661458335,
      "v": 87
    },
    {
      "midi": 67,
      "hit": false,
      "t": 68142.63000000002,
      "d": 372.76661458335,
      "v": 87
    },
    {
      "midi": 40,
      "hit": false,
      "t": 68571.20000000004,
      "d": 3314.7210937499913,
      "v": 107
    },
    {
      "midi": 59,
      "hit": false,
      "t": 68571.20000000004,
      "d": 3341.5067187499953,
      "v": 84
    },
    {
      "midi": 71,
      "hit": false,
      "t": 68571.20000000004,
      "d": 3343.7388541666587,
      "v": 79
    },
    {
      "midi": 67,
      "hit": false,
      "t": 68571.20000000004,
      "d": 3357.1316666666535,
      "v": 79
    },
    {
      "midi": 64,
      "hit": false,
      "t": 68571.20000000004,
      "d": 3359.363802083317,
      "v": 95
    },
    {
      "midi": 66,
      "hit": false,
      "t": 68571.20000000004,
      "d": 3370.5244791666482,
      "v": 87
    },
    {
      "midi": 40,
      "hit": false,
      "t": 68571.20000000004,
      "d": 3314.7210937499913,
      "v": 107
    },
    {
      "midi": 59,
      "hit": false,
      "t": 68571.20000000004,
      "d": 3341.5067187499953,
      "v": 84
    },
    {
      "midi": 71,
      "hit": false,
      "t": 68571.20000000004,
      "d": 3343.7388541666587,
      "v": 79
    },
    {
      "midi": 67,
      "hit": false,
      "t": 68571.20000000004,
      "d": 3357.1316666666535,
      "v": 79
    },
    {
      "midi": 64,
      "hit": false,
      "t": 68571.20000000004,
      "d": 3359.363802083317,
      "v": 95
    },
    {
      "midi": 66,
      "hit": false,
      "t": 68571.20000000004,
      "d": 3370.5244791666482,
      "v": 87
    },
    {
      "midi": 78,
      "hit": false,
      "t": 70499.76500000004,
      "d": 1412.941718749993,
      "v": 58
    },
    {
      "midi": 78,
      "hit": false,
      "t": 70499.76500000004,
      "d": 1412.941718749993,
      "v": 58
    },
    {
      "midi": 79,
      "hit": false,
      "t": 70720.74640625004,
      "d": 1180.799635416668,
      "v": 48
    },
    {
      "midi": 79,
      "hit": false,
      "t": 70720.74640625004,
      "d": 1180.799635416668,
      "v": 48
    },
    {
      "midi": 86,
      "hit": false,
      "t": 70919.40645833337,
      "d": 982.1395833333372,
      "v": 67
    },
    {
      "midi": 86,
      "hit": false,
      "t": 70919.40645833337,
      "d": 982.1395833333372,
      "v": 67
    },
    {
      "midi": 59,
      "hit": false,
      "t": 71999.76000000002,
      "d": 450.89135416666977,
      "v": 71
    },
    {
      "midi": 69,
      "hit": false,
      "t": 71999.76000000002,
      "d": 455.3556249999965,
      "v": 68
    },
    {
      "midi": 62,
      "hit": false,
      "t": 71999.76000000002,
      "d": 479.90911458332266,
      "v": 79
    },
    {
      "midi": 45,
      "hit": false,
      "t": 71999.76000000002,
      "d": 866.0685416666674,
      "v": 84
    },
    {
      "midi": 59,
      "hit": false,
      "t": 71999.76000000002,
      "d": 450.89135416666977,
      "v": 71
    },
    {
      "midi": 69,
      "hit": false,
      "t": 71999.76000000002,
      "d": 455.3556249999965,
      "v": 68
    },
    {
      "midi": 62,
      "hit": false,
      "t": 71999.76000000002,
      "d": 479.90911458332266,
      "v": 79
    },
    {
      "midi": 45,
      "hit": false,
      "t": 71999.76000000002,
      "d": 866.0685416666674,
      "v": 84
    },
    {
      "midi": 59,
      "hit": false,
      "t": 72642.61500000002,
      "d": 93.74968750000698,
      "v": 79
    },
    {
      "midi": 62,
      "hit": false,
      "t": 72642.61500000002,
      "d": 95.98182291667035,
      "v": 76
    },
    {
      "midi": 71,
      "hit": false,
      "t": 72642.61500000002,
      "d": 129.46385416666453,
      "v": 82
    },
    {
      "midi": 59,
      "hit": false,
      "t": 72642.61500000002,
      "d": 93.74968750000698,
      "v": 79
    },
    {
      "midi": 62,
      "hit": false,
      "t": 72642.61500000002,
      "d": 95.98182291667035,
      "v": 76
    },
    {
      "midi": 71,
      "hit": false,
      "t": 72642.61500000002,
      "d": 129.46385416666453,
      "v": 82
    },
    {
      "midi": 57,
      "hit": false,
      "t": 73285.47000000002,
      "d": 1725.4406770833302,
      "v": 84
    },
    {
      "midi": 64,
      "hit": false,
      "t": 73285.47000000002,
      "d": 1772.3155208333337,
      "v": 73
    },
    {
      "midi": 59,
      "hit": false,
      "t": 73285.47000000002,
      "d": 1781.2440625000017,
      "v": 79
    },
    {
      "midi": 61,
      "hit": false,
      "t": 73285.47000000002,
      "d": 1794.6368749999965,
      "v": 76
    },
    {
      "midi": 45,
      "hit": false,
      "t": 73285.47000000002,
      "d": 1796.8690104166599,
      "v": 82
    },
    {
      "midi": 57,
      "hit": false,
      "t": 73285.47000000002,
      "d": 1725.4406770833302,
      "v": 84
    },
    {
      "midi": 64,
      "hit": false,
      "t": 73285.47000000002,
      "d": 1772.3155208333337,
      "v": 73
    },
    {
      "midi": 59,
      "hit": false,
      "t": 73285.47000000002,
      "d": 1781.2440625000017,
      "v": 79
    },
    {
      "midi": 61,
      "hit": false,
      "t": 73285.47000000002,
      "d": 1794.6368749999965,
      "v": 76
    },
    {
      "midi": 45,
      "hit": false,
      "t": 73285.47000000002,
      "d": 1796.8690104166599,
      "v": 82
    },
    {
      "midi": 69,
      "hit": false,
      "t": 74568.94786458334,
      "d": 453.12348958333314,
      "v": 107
    },
    {
      "midi": 69,
      "hit": false,
      "t": 74568.94786458334,
      "d": 453.12348958333314,
      "v": 107
    },
    {
      "midi": 71,
      "hit": false,
      "t": 75004.21427083334,
      "d": 395.08796874999825,
      "v": 91
    },
    {
      "midi": 71,
      "hit": false,
      "t": 75004.21427083334,
      "d": 395.08796874999825,
      "v": 91
    },
    {
      "midi": 73,
      "hit": false,
      "t": 75421.62359375,
      "d": 446.4270833333285,
      "v": 66
    },
    {
      "midi": 73,
      "hit": false,
      "t": 75421.62359375,
      "d": 446.4270833333285,
      "v": 66
    },
    {
      "midi": 62,
      "hit": false,
      "t": 75428.32,
      "d": 3174.096562499981,
      "v": 71
    },
    {
      "midi": 61,
      "hit": false,
      "t": 75428.32,
      "d": 3180.7929687499854,
      "v": 82
    },
    {
      "midi": 66,
      "hit": false,
      "t": 75428.32,
      "d": 3216.5071354166575,
      "v": 76
    },
    {
      "midi": 69,
      "hit": false,
      "t": 75428.32,
      "d": 3218.739270833321,
      "v": 73
    },
    {
      "midi": 38,
      "hit": false,
      "t": 75428.32,
      "d": 3247.7570312499884,
      "v": 84
    },
    {
      "midi": 62,
      "hit": false,
      "t": 75428.32,
      "d": 3174.096562499981,
      "v": 71
    },
    {
      "midi": 61,
      "hit": false,
      "t": 75428.32,
      "d": 3180.7929687499854,
      "v": 82
    },
    {
      "midi": 66,
      "hit": false,
      "t": 75428.32,
      "d": 3216.5071354166575,
      "v": 76
    },
    {
      "midi": 69,
      "hit": false,
      "t": 75428.32,
      "d": 3218.739270833321,
      "v": 73
    },
    {
      "midi": 38,
      "hit": false,
      "t": 75428.32,
      "d": 3247.7570312499884,
      "v": 84
    },
    {
      "midi": 76,
      "hit": false,
      "t": 75845.72932291667,
      "d": 218.74927083333023,
      "v": 63
    },
    {
      "midi": 76,
      "hit": false,
      "t": 75845.72932291667,
      "d": 218.74927083333023,
      "v": 63
    },
    {
      "midi": 73,
      "hit": false,
      "t": 76068.94286458332,
      "d": 1966.5113020833378,
      "v": 66
    },
    {
      "midi": 73,
      "hit": false,
      "t": 76068.94286458332,
      "d": 1966.5113020833378,
      "v": 66
    },
    {
      "midi": 54,
      "hit": false,
      "t": 77142.59999999999,
      "d": 1359.3704687499994,
      "v": 43
    },
    {
      "midi": 54,
      "hit": false,
      "t": 77142.59999999999,
      "d": 1359.3704687499994,
      "v": 43
    },
    {
      "midi": 59,
      "hit": false,
      "t": 78707.32692708333,
      "d": 3281.239062499997,
      "v": 55
    },
    {
      "midi": 59,
      "hit": false,
      "t": 78707.32692708333,
      "d": 3281.239062499997,
      "v": 55
    },
    {
      "midi": 63,
      "hit": false,
      "t": 78760.89817708332,
      "d": 3252.221302083344,
      "v": 64
    },
    {
      "midi": 63,
      "hit": false,
      "t": 78760.89817708332,
      "d": 3252.221302083344,
      "v": 64
    },
    {
      "midi": 66,
      "hit": false,
      "t": 78798.84447916666,
      "d": 3216.507135416672,
      "v": 52
    },
    {
      "midi": 66,
      "hit": false,
      "t": 78798.84447916666,
      "d": 3216.507135416672,
      "v": 52
    },
    {
      "midi": 47,
      "hit": false,
      "t": 78856.87999999999,
      "d": 3256.685572916671,
      "v": 91
    },
    {
      "midi": 47,
      "hit": false,
      "t": 78856.87999999999,
      "d": 3256.685572916671,
      "v": 91
    },
    {
      "midi": 72,
      "hit": false,
      "t": 78876.96921874999,
      "d": 468.7484375000058,
      "v": 73
    },
    {
      "midi": 72,
      "hit": false,
      "t": 78876.96921874999,
      "d": 468.7484375000058,
      "v": 73
    },
    {
      "midi": 71,
      "hit": false,
      "t": 79446.16374999999,
      "d": 2551.330781249999,
      "v": 82
    },
    {
      "midi": 71,
      "hit": false,
      "t": 79446.16374999999,
      "d": 2551.330781249999,
      "v": 82
    },
    {
      "midi": 52,
      "hit": false,
      "t": 82285.43999999999,
      "d": 3305.792552083338,
      "v": 66
    },
    {
      "midi": 59,
      "hit": false,
      "t": 82285.43999999999,
      "d": 3316.953229166669,
      "v": 76
    },
    {
      "midi": 71,
      "hit": false,
      "t": 82285.43999999999,
      "d": 3319.1853645833326,
      "v": 67
    },
    {
      "midi": 67,
      "hit": false,
      "t": 82285.43999999999,
      "d": 3328.1139062500006,
      "v": 68
    },
    {
      "midi": 64,
      "hit": false,
      "t": 82285.43999999999,
      "d": 3332.5781770833273,
      "v": 76
    },
    {
      "midi": 40,
      "hit": false,
      "t": 82285.43999999999,
      "d": 3337.042447916654,
      "v": 69
    },
    {
      "midi": 66,
      "hit": false,
      "t": 82285.43999999999,
      "d": 3350.435260416649,
      "v": 73
    },
    {
      "midi": 52,
      "hit": false,
      "t": 82285.43999999999,
      "d": 3305.792552083338,
      "v": 66
    },
    {
      "midi": 59,
      "hit": false,
      "t": 82285.43999999999,
      "d": 3316.953229166669,
      "v": 76
    },
    {
      "midi": 71,
      "hit": false,
      "t": 82285.43999999999,
      "d": 3319.1853645833326,
      "v": 67
    },
    {
      "midi": 67,
      "hit": false,
      "t": 82285.43999999999,
      "d": 3328.1139062500006,
      "v": 68
    },
    {
      "midi": 64,
      "hit": false,
      "t": 82285.43999999999,
      "d": 3332.5781770833273,
      "v": 76
    },
    {
      "midi": 40,
      "hit": false,
      "t": 82285.43999999999,
      "d": 3337.042447916654,
      "v": 69
    },
    {
      "midi": 66,
      "hit": false,
      "t": 82285.43999999999,
      "d": 3350.435260416649,
      "v": 73
    },
    {
      "midi": 59,
      "hit": false,
      "t": 85713.99999999997,
      "d": 450.8913541666552,
      "v": 71
    },
    {
      "midi": 69,
      "hit": false,
      "t": 85713.99999999997,
      "d": 455.35562499998196,
      "v": 68
    },
    {
      "midi": 62,
      "hit": false,
      "t": 85713.99999999997,
      "d": 479.9091145833081,
      "v": 79
    },
    {
      "midi": 45,
      "hit": false,
      "t": 85713.99999999997,
      "d": 866.0685416666529,
      "v": 84
    },
    {
      "midi": 59,
      "hit": false,
      "t": 85713.99999999997,
      "d": 450.8913541666552,
      "v": 71
    },
    {
      "midi": 69,
      "hit": false,
      "t": 85713.99999999997,
      "d": 455.35562499998196,
      "v": 68
    },
    {
      "midi": 62,
      "hit": false,
      "t": 85713.99999999997,
      "d": 479.9091145833081,
      "v": 79
    },
    {
      "midi": 45,
      "hit": false,
      "t": 85713.99999999997,
      "d": 866.0685416666529,
      "v": 84
    },
    {
      "midi": 59,
      "hit": false,
      "t": 86356.85499999995,
      "d": 93.74968750000698,
      "v": 79
    },
    {
      "midi": 62,
      "hit": false,
      "t": 86356.85499999995,
      "d": 95.98182291667035,
      "v": 76
    },
    {
      "midi": 71,
      "hit": false,
      "t": 86356.85499999995,
      "d": 129.46385416666453,
      "v": 82
    },
    {
      "midi": 59,
      "hit": false,
      "t": 86356.85499999995,
      "d": 93.74968750000698,
      "v": 79
    },
    {
      "midi": 62,
      "hit": false,
      "t": 86356.85499999995,
      "d": 95.98182291667035,
      "v": 76
    },
    {
      "midi": 71,
      "hit": false,
      "t": 86356.85499999995,
      "d": 129.46385416666453,
      "v": 82
    },
    {
      "midi": 57,
      "hit": false,
      "t": 86999.70999999995,
      "d": 1725.4406770833302,
      "v": 84
    },
    {
      "midi": 64,
      "hit": false,
      "t": 86999.70999999995,
      "d": 1772.3155208333337,
      "v": 73
    },
    {
      "midi": 59,
      "hit": false,
      "t": 86999.70999999995,
      "d": 1781.2440625000017,
      "v": 79
    },
    {
      "midi": 61,
      "hit": false,
      "t": 86999.70999999995,
      "d": 1794.6368749999965,
      "v": 76
    },
    {
      "midi": 45,
      "hit": false,
      "t": 86999.70999999995,
      "d": 1796.8690104166599,
      "v": 82
    },
    {
      "midi": 57,
      "hit": false,
      "t": 86999.70999999995,
      "d": 1725.4406770833302,
      "v": 84
    },
    {
      "midi": 64,
      "hit": false,
      "t": 86999.70999999995,
      "d": 1772.3155208333337,
      "v": 73
    },
    {
      "midi": 59,
      "hit": false,
      "t": 86999.70999999995,
      "d": 1781.2440625000017,
      "v": 79
    },
    {
      "midi": 61,
      "hit": false,
      "t": 86999.70999999995,
      "d": 1794.6368749999965,
      "v": 76
    },
    {
      "midi": 45,
      "hit": false,
      "t": 86999.70999999995,
      "d": 1796.8690104166599,
      "v": 82
    },
    {
      "midi": 54,
      "hit": false,
      "t": 89142.55999999994,
      "d": 102.67822916666046,
      "v": 95
    },
    {
      "midi": 57,
      "hit": false,
      "t": 89142.55999999994,
      "d": 102.67822916666046,
      "v": 95
    },
    {
      "midi": 42,
      "hit": false,
      "t": 89142.55999999994,
      "d": 111.60677083332848,
      "v": 95
    },
    {
      "midi": 61,
      "hit": false,
      "t": 89142.55999999994,
      "d": 131.6959895833279,
      "v": 95
    },
    {
      "midi": 64,
      "hit": false,
      "t": 89142.55999999994,
      "d": 131.6959895833279,
      "v": 95
    },
    {
      "midi": 54,
      "hit": false,
      "t": 89142.55999999994,
      "d": 102.67822916666046,
      "v": 95
    },
    {
      "midi": 57,
      "hit": false,
      "t": 89142.55999999994,
      "d": 102.67822916666046,
      "v": 95
    },
    {
      "midi": 42,
      "hit": false,
      "t": 89142.55999999994,
      "d": 111.60677083332848,
      "v": 95
    },
    {
      "midi": 61,
      "hit": false,
      "t": 89142.55999999994,
      "d": 131.6959895833279,
      "v": 95
    },
    {
      "midi": 64,
      "hit": false,
      "t": 89142.55999999994,
      "d": 131.6959895833279,
      "v": 95
    },
    {
      "midi": 54,
      "hit": false,
      "t": 89571.12999999993,
      "d": 2609.3663020833337,
      "v": 84
    },
    {
      "midi": 57,
      "hit": false,
      "t": 89571.12999999993,
      "d": 2622.7591145833285,
      "v": 87
    },
    {
      "midi": 42,
      "hit": false,
      "t": 89571.12999999993,
      "d": 2629.455520833333,
      "v": 95
    },
    {
      "midi": 61,
      "hit": false,
      "t": 89571.12999999993,
      "d": 2647.312604166669,
      "v": 82
    },
    {
      "midi": 64,
      "hit": false,
      "t": 89571.12999999993,
      "d": 2647.312604166669,
      "v": 82
    },
    {
      "midi": 54,
      "hit": false,
      "t": 89571.12999999993,
      "d": 2609.3663020833337,
      "v": 84
    },
    {
      "midi": 57,
      "hit": false,
      "t": 89571.12999999993,
      "d": 2622.7591145833285,
      "v": 87
    },
    {
      "midi": 42,
      "hit": false,
      "t": 89571.12999999993,
      "d": 2629.455520833333,
      "v": 95
    },
    {
      "midi": 61,
      "hit": false,
      "t": 89571.12999999993,
      "d": 2647.312604166669,
      "v": 82
    },
    {
      "midi": 64,
      "hit": false,
      "t": 89571.12999999993,
      "d": 2647.312604166669,
      "v": 82
    },
    {
      "midi": 71,
      "hit": false,
      "t": 92571.11999999994,
      "d": 658.4799479166686,
      "v": 75
    },
    {
      "midi": 66,
      "hit": false,
      "t": 92571.11999999994,
      "d": 1203.1209895833308,
      "v": 77
    },
    {
      "midi": 59,
      "hit": false,
      "t": 92571.11999999994,
      "d": 3194.1857812499948,
      "v": 84
    },
    {
      "midi": 63,
      "hit": false,
      "t": 92571.11999999994,
      "d": 3209.8107291666674,
      "v": 84
    },
    {
      "midi": 47,
      "hit": false,
      "t": 92571.11999999994,
      "d": 3330.346041666664,
      "v": 95
    },
    {
      "midi": 71,
      "hit": false,
      "t": 92571.11999999994,
      "d": 658.4799479166686,
      "v": 75
    },
    {
      "midi": 66,
      "hit": false,
      "t": 92571.11999999994,
      "d": 1203.1209895833308,
      "v": 77
    },
    {
      "midi": 59,
      "hit": false,
      "t": 92571.11999999994,
      "d": 3194.1857812499948,
      "v": 84
    },
    {
      "midi": 63,
      "hit": false,
      "t": 92571.11999999994,
      "d": 3209.8107291666674,
      "v": 84
    },
    {
      "midi": 47,
      "hit": false,
      "t": 92571.11999999994,
      "d": 3330.346041666664,
      "v": 95
    },
    {
      "midi": 73,
      "hit": false,
      "t": 93213.97499999993,
      "d": 924.1040625000023,
      "v": 84
    },
    {
      "midi": 73,
      "hit": false,
      "t": 93213.97499999993,
      "d": 924.1040625000023,
      "v": 84
    },
    {
      "midi": 66,
      "hit": false,
      "t": 93856.82999999993,
      "d": 1926.332864583339,
      "v": 81
    },
    {
      "midi": 66,
      "hit": false,
      "t": 93856.82999999993,
      "d": 1926.332864583339,
      "v": 81
    },
    {
      "midi": 54,
      "hit": false,
      "t": 95999.67999999993,
      "d": 102.67822916666046,
      "v": 98
    },
    {
      "midi": 57,
      "hit": false,
      "t": 95999.67999999993,
      "d": 102.67822916666046,
      "v": 98
    },
    {
      "midi": 42,
      "hit": false,
      "t": 95999.67999999993,
      "d": 111.60677083332848,
      "v": 98
    },
    {
      "midi": 61,
      "hit": false,
      "t": 95999.67999999993,
      "d": 131.6959895833279,
      "v": 98
    },
    {
      "midi": 64,
      "hit": false,
      "t": 95999.67999999993,
      "d": 131.6959895833279,
      "v": 98
    },
    {
      "midi": 54,
      "hit": false,
      "t": 95999.67999999993,
      "d": 102.67822916666046,
      "v": 98
    },
    {
      "midi": 57,
      "hit": false,
      "t": 95999.67999999993,
      "d": 102.67822916666046,
      "v": 98
    },
    {
      "midi": 42,
      "hit": false,
      "t": 95999.67999999993,
      "d": 111.60677083332848,
      "v": 98
    },
    {
      "midi": 61,
      "hit": false,
      "t": 95999.67999999993,
      "d": 131.6959895833279,
      "v": 98
    },
    {
      "midi": 64,
      "hit": false,
      "t": 95999.67999999993,
      "d": 131.6959895833279,
      "v": 98
    },
    {
      "midi": 54,
      "hit": false,
      "t": 96428.24999999993,
      "d": 2609.3663020833337,
      "v": 84
    },
    {
      "midi": 57,
      "hit": false,
      "t": 96428.24999999993,
      "d": 2622.7591145833285,
      "v": 87
    },
    {
      "midi": 42,
      "hit": false,
      "t": 96428.24999999993,
      "d": 2629.455520833333,
      "v": 95
    },
    {
      "midi": 61,
      "hit": false,
      "t": 96428.24999999993,
      "d": 2647.312604166669,
      "v": 82
    },
    {
      "midi": 64,
      "hit": false,
      "t": 96428.24999999993,
      "d": 2647.312604166669,
      "v": 82
    },
    {
      "midi": 54,
      "hit": false,
      "t": 96428.24999999993,
      "d": 2609.3663020833337,
      "v": 84
    },
    {
      "midi": 57,
      "hit": false,
      "t": 96428.24999999993,
      "d": 2622.7591145833285,
      "v": 87
    },
    {
      "midi": 42,
      "hit": false,
      "t": 96428.24999999993,
      "d": 2629.455520833333,
      "v": 95
    },
    {
      "midi": 61,
      "hit": false,
      "t": 96428.24999999993,
      "d": 2647.312604166669,
      "v": 82
    },
    {
      "midi": 64,
      "hit": false,
      "t": 96428.24999999993,
      "d": 2647.312604166669,
      "v": 82
    },
    {
      "midi": 71,
      "hit": false,
      "t": 99428.23999999993,
      "d": 658.4799479166832,
      "v": 75
    },
    {
      "midi": 66,
      "hit": false,
      "t": 99428.23999999993,
      "d": 1203.1209895833454,
      "v": 77
    },
    {
      "midi": 59,
      "hit": false,
      "t": 99428.23999999993,
      "d": 3194.1857812500093,
      "v": 84
    },
    {
      "midi": 63,
      "hit": false,
      "t": 99428.23999999993,
      "d": 3209.810729166682,
      "v": 84
    },
    {
      "midi": 47,
      "hit": false,
      "t": 99428.23999999993,
      "d": 3330.3460416666785,
      "v": 95
    },
    {
      "midi": 71,
      "hit": false,
      "t": 99428.23999999993,
      "d": 658.4799479166832,
      "v": 75
    },
    {
      "midi": 66,
      "hit": false,
      "t": 99428.23999999993,
      "d": 1203.1209895833454,
      "v": 77
    },
    {
      "midi": 59,
      "hit": false,
      "t": 99428.23999999993,
      "d": 3194.1857812500093,
      "v": 84
    },
    {
      "midi": 63,
      "hit": false,
      "t": 99428.23999999993,
      "d": 3209.810729166682,
      "v": 84
    },
    {
      "midi": 47,
      "hit": false,
      "t": 99428.23999999993,
      "d": 3330.3460416666785,
      "v": 95
    },
    {
      "midi": 73,
      "hit": false,
      "t": 100071.09499999994,
      "d": 924.1040625000023,
      "v": 84
    },
    {
      "midi": 73,
      "hit": false,
      "t": 100071.09499999994,
      "d": 924.1040625000023,
      "v": 84
    },
    {
      "midi": 66,
      "hit": false,
      "t": 100713.94999999994,
      "d": 1926.332864583339,
      "v": 81
    },
    {
      "midi": 66,
      "hit": false,
      "t": 100713.94999999994,
      "d": 1926.332864583339,
      "v": 81
    },
    {
      "midi": 75,
      "hit": false,
      "t": 102856.79999999994,
      "d": 341.51671875000466,
      "v": 84
    },
    {
      "midi": 75,
      "hit": false,
      "t": 102856.79999999994,
      "d": 249.9991666666756,
      "v": 107
    },
    {
      "midi": 76,
      "hit": false,
      "t": 103068.85286458328,
      "d": 453.1234895833477,
      "v": 60
    },
    {
      "midi": 76,
      "hit": false,
      "t": 103071.08499999995,
      "d": 167.41015625,
      "v": 68
    },
    {
      "midi": 83,
      "hit": false,
      "t": 103285.36999999995,
      "d": 232.14208333333954,
      "v": 91
    },
    {
      "midi": 83,
      "hit": false,
      "t": 103292.06640624996,
      "d": 223.21354166667152,
      "v": 64
    },
    {
      "midi": 75,
      "hit": false,
      "t": 103495.19072916663,
      "d": 2361.599270833336,
      "v": 76
    },
    {
      "midi": 75,
      "hit": false,
      "t": 103499.65499999996,
      "d": 220.98140625000815,
      "v": 79
    },
    {
      "midi": 76,
      "hit": false,
      "t": 103713.93999999996,
      "d": 216.51713541666686,
      "v": 79
    },
    {
      "midi": 76,
      "hit": false,
      "t": 103718.4042708333,
      "d": 2104.9036979166704,
      "v": 61
    },
    {
      "midi": 83,
      "hit": false,
      "t": 103928.22499999996,
      "d": 223.21354166667152,
      "v": 91
    },
    {
      "midi": 83,
      "hit": false,
      "t": 103939.3856770833,
      "d": 1881.6901562500134,
      "v": 64
    },
    {
      "midi": 75,
      "hit": false,
      "t": 104142.50999999997,
      "d": 223.21354166667152,
      "v": 79
    },
    {
      "midi": 59,
      "hit": false,
      "t": 104356.79499999995,
      "d": 323.6596354166686,
      "v": 79
    },
    {
      "midi": 69,
      "hit": false,
      "t": 104356.79499999995,
      "d": 330.35604166667326,
      "v": 68
    },
    {
      "midi": 64,
      "hit": false,
      "t": 104356.79499999995,
      "d": 337.0524479166779,
      "v": 76
    },
    {
      "midi": 61,
      "hit": false,
      "t": 104356.79499999995,
      "d": 352.6773958333506,
      "v": 79
    },
    {
      "midi": 76,
      "hit": false,
      "t": 104356.79499999997,
      "d": 196.42791666666744,
      "v": 66
    },
    {
      "midi": 83,
      "hit": false,
      "t": 104571.07999999997,
      "d": 234.3742187500029,
      "v": 66
    },
    {
      "midi": 59,
      "hit": false,
      "t": 104785.36499999998,
      "d": 75.89260416667094,
      "v": 64
    },
    {
      "midi": 61,
      "hit": false,
      "t": 104785.36499999998,
      "d": 78.1247395833343,
      "v": 67
    },
    {
      "midi": 64,
      "hit": false,
      "t": 104785.36499999998,
      "d": 87.05328125000233,
      "v": 69
    },
    {
      "midi": 69,
      "hit": false,
      "t": 104785.36499999998,
      "d": 102.67822916667501,
      "v": 67
    },
    {
      "midi": 75,
      "hit": false,
      "t": 104785.36499999998,
      "d": 227.67781249999825,
      "v": 55
    },
    {
      "midi": 59,
      "hit": false,
      "t": 104999.64999999998,
      "d": 1212.0495312499843,
      "v": 73
    },
    {
      "midi": 64,
      "hit": false,
      "t": 104999.64999999998,
      "d": 1229.9066145833203,
      "v": 73
    },
    {
      "midi": 61,
      "hit": false,
      "t": 104999.64999999998,
      "d": 1234.370885416647,
      "v": 79
    },
    {
      "midi": 69,
      "hit": false,
      "t": 104999.64999999998,
      "d": 1258.9243749999732,
      "v": 69
    },
    {
      "midi": 76,
      "hit": false,
      "t": 104999.64999999998,
      "d": 187.49937499999942,
      "v": 56
    },
    {
      "midi": 83,
      "hit": false,
      "t": 105213.93499999998,
      "d": 247.76703124999767,
      "v": 69
    },
    {
      "midi": 75,
      "hit": false,
      "t": 105428.21999999999,
      "d": 205.35645833332092,
      "v": 30
    },
    {
      "midi": 76,
      "hit": false,
      "t": 105642.50499999998,
      "d": 189.7315104166628,
      "v": 45
    },
    {
      "midi": 83,
      "hit": false,
      "t": 105856.78999999996,
      "d": 187.49937499999942,
      "v": 56
    },
    {
      "midi": 75,
      "hit": false,
      "t": 106071.07499999997,
      "d": 93.74968750000698,
      "v": 35
    },
    {
      "midi": 75,
      "hit": false,
      "t": 106285.35999999996,
      "d": 341.51671875000466,
      "v": 84
    },
    {
      "midi": 75,
      "hit": false,
      "t": 106285.35999999997,
      "d": 212.05286458334012,
      "v": 87
    },
    {
      "midi": 76,
      "hit": false,
      "t": 106497.4128645833,
      "d": 453.1234895833477,
      "v": 60
    },
    {
      "midi": 76,
      "hit": false,
      "t": 106499.64499999997,
      "d": 200.89218749999418,
      "v": 76
    },
    {
      "midi": 83,
      "hit": false,
      "t": 106713.92999999996,
      "d": 229.90994791667617,
      "v": 87
    },
    {
      "midi": 83,
      "hit": false,
      "t": 106720.62640624997,
      "d": 223.21354166667152,
      "v": 64
    },
    {
      "midi": 75,
      "hit": false,
      "t": 106923.75072916664,
      "d": 2361.599270833307,
      "v": 76
    },
    {
      "midi": 75,
      "hit": false,
      "t": 106928.21499999997,
      "d": 236.60635416666628,
      "v": 82
    },
    {
      "midi": 76,
      "hit": false,
      "t": 107142.49999999997,
      "d": 205.35645833333547,
      "v": 73
    },
    {
      "midi": 76,
      "hit": false,
      "t": 107146.96427083331,
      "d": 2104.9036979166412,
      "v": 61
    },
    {
      "midi": 83,
      "hit": false,
      "t": 107356.78499999997,
      "d": 238.83848958332965,
      "v": 82
    },
    {
      "midi": 83,
      "hit": false,
      "t": 107367.9456770833,
      "d": 1881.6901562499843,
      "v": 64
    },
    {
      "midi": 75,
      "hit": false,
      "t": 107571.06999999998,
      "d": 232.142083333325,
      "v": 68
    },
    {
      "midi": 59,
      "hit": false,
      "t": 107785.35499999997,
      "d": 328.12390624999534,
      "v": 79
    },
    {
      "midi": 63,
      "hit": false,
      "t": 107785.35499999997,
      "d": 345.9809895833314,
      "v": 84
    },
    {
      "midi": 66,
      "hit": false,
      "t": 107785.35499999997,
      "d": 345.9809895833314,
      "v": 79
    },
    {
      "midi": 76,
      "hit": false,
      "t": 107785.35499999997,
      "d": 205.35645833333547,
      "v": 63
    },
    {
      "midi": 83,
      "hit": false,
      "t": 107999.63999999997,
      "d": 223.21354166667152,
      "v": 66
    },
    {
      "midi": 63,
      "hit": false,
      "t": 108213.92499999996,
      "d": 66.96406250000291,
      "v": 58
    },
    {
      "midi": 66,
      "hit": false,
      "t": 108213.92499999996,
      "d": 73.66046875000757,
      "v": 50
    },
    {
      "midi": 59,
      "hit": false,
      "t": 108213.92499999996,
      "d": 82.58901041667559,
      "v": 48
    },
    {
      "midi": 75,
      "hit": false,
      "t": 108213.92499999997,
      "d": 227.67781249999825,
      "v": 52
    },
    {
      "midi": 63,
      "hit": false,
      "t": 108428.20999999996,
      "d": 1203.1209895833163,
      "v": 73
    },
    {
      "midi": 59,
      "hit": false,
      "t": 108428.20999999996,
      "d": 1243.299427083315,
      "v": 67
    },
    {
      "midi": 66,
      "hit": false,
      "t": 108428.20999999996,
      "d": 1258.9243749999878,
      "v": 71
    },
    {
      "midi": 76,
      "hit": false,
      "t": 108428.20999999998,
      "d": 216.5171354166523,
      "v": 55
    },
    {
      "midi": 83,
      "hit": false,
      "t": 108642.49499999997,
      "d": 258.9277083333436,
      "v": 52
    },
    {
      "midi": 75,
      "hit": false,
      "t": 108856.77999999997,
      "d": 247.76703124999767,
      "v": 26
    },
    {
      "midi": 76,
      "hit": false,
      "t": 109071.06499999997,
      "d": 203.12432291665755,
      "v": 45
    },
    {
      "midi": 83,
      "hit": false,
      "t": 109285.34999999996,
      "d": 191.96364583332615,
      "v": 57
    },
    {
      "midi": 75,
      "hit": false,
      "t": 109499.63499999995,
      "d": 107.14250000000175,
      "v": 43
    },
    {
      "midi": 75,
      "hit": false,
      "t": 109713.91999999995,
      "d": 341.51671875000466,
      "v": 84
    },
    {
      "midi": 75,
      "hit": false,
      "t": 109713.91999999995,
      "d": 218.74927083333023,
      "v": 99
    },
    {
      "midi": 76,
      "hit": false,
      "t": 109925.9728645833,
      "d": 453.1234895833477,
      "v": 60
    },
    {
      "midi": 76,
      "hit": false,
      "t": 109928.20499999996,
      "d": 209.8207291666622,
      "v": 71
    },
    {
      "midi": 83,
      "hit": false,
      "t": 110142.48999999995,
      "d": 227.67781249999825,
      "v": 87
    },
    {
      "midi": 83,
      "hit": false,
      "t": 110149.18640624997,
      "d": 223.21354166667152,
      "v": 64
    },
    {
      "midi": 75,
      "hit": false,
      "t": 110352.31072916664,
      "d": 2361.599270833307,
      "v": 76
    },
    {
      "midi": 75,
      "hit": false,
      "t": 110356.77499999995,
      "d": 247.76703124998312,
      "v": 79
    },
    {
      "midi": 76,
      "hit": false,
      "t": 110571.05999999994,
      "d": 196.42791666666744,
      "v": 71
    },
    {
      "midi": 76,
      "hit": false,
      "t": 110575.52427083331,
      "d": 2104.9036979166412,
      "v": 61
    },
    {
      "midi": 83,
      "hit": false,
      "t": 110785.34499999994,
      "d": 227.67781249999825,
      "v": 82
    },
    {
      "midi": 83,
      "hit": false,
      "t": 110796.5056770833,
      "d": 1881.6901562499843,
      "v": 64
    },
    {
      "midi": 75,
      "hit": false,
      "t": 110999.62999999995,
      "d": 234.37421874998836,
      "v": 79
    },
    {
      "midi": 76,
      "hit": false,
      "t": 111213.91499999994,
      "d": 214.2850000000035,
      "v": 67
    },
    {
      "midi": 69,
      "hit": false,
      "t": 111213.91499999996,
      "d": 316.96322916666395,
      "v": 64
    },
    {
      "midi": 59,
      "hit": false,
      "t": 111213.91499999996,
      "d": 323.6596354166686,
      "v": 68
    },
    {
      "midi": 64,
      "hit": false,
      "t": 111213.91499999996,
      "d": 328.12390624999534,
      "v": 71
    },
    {
      "midi": 61,
      "hit": false,
      "t": 111213.91499999996,
      "d": 330.3560416666587,
      "v": 73
    },
    {
      "midi": 83,
      "hit": false,
      "t": 111428.19999999994,
      "d": 232.14208333333954,
      "v": 79
    },
    {
      "midi": 75,
      "hit": false,
      "t": 111642.48499999994,
      "d": 229.90994791667617,
      "v": 58
    },
    {
      "midi": 59,
      "hit": false,
      "t": 111642.48499999996,
      "d": 80.35687499999767,
      "v": 66
    },
    {
      "midi": 61,
      "hit": false,
      "t": 111642.48499999996,
      "d": 80.35687499999767,
      "v": 68
    },
    {
      "midi": 64,
      "hit": false,
      "t": 111642.48499999996,
      "d": 87.05328125000233,
      "v": 66
    },
    {
      "midi": 69,
      "hit": false,
      "t": 111642.48499999996,
      "d": 102.67822916667501,
      "v": 63
    },
    {
      "midi": 76,
      "hit": false,
      "t": 111856.76999999995,
      "d": 203.1243229166721,
      "v": 60
    },
    {
      "midi": 59,
      "hit": false,
      "t": 111856.76999999996,
      "d": 1227.674479166657,
      "v": 79
    },
    {
      "midi": 69,
      "hit": false,
      "t": 111856.76999999996,
      "d": 1236.603020833325,
      "v": 69
    },
    {
      "midi": 61,
      "hit": false,
      "t": 111856.76999999996,
      "d": 1243.2994270833296,
      "v": 79
    },
    {
      "midi": 64,
      "hit": false,
      "t": 111856.76999999996,
      "d": 1254.460104166661,
      "v": 79
    },
    {
      "midi": 83,
      "hit": false,
      "t": 112071.05499999995,
      "d": 205.35645833333547,
      "v": 67
    },
    {
      "midi": 75,
      "hit": false,
      "t": 112285.33999999995,
      "d": 258.9277083333436,
      "v": 50
    },
    {
      "midi": 76,
      "hit": false,
      "t": 112499.62499999996,
      "d": 200.89218750000873,
      "v": 40
    },
    {
      "midi": 83,
      "hit": false,
      "t": 112713.90999999996,
      "d": 236.60635416666628,
      "v": 55
    },
    {
      "midi": 75,
      "hit": false,
      "t": 113142.47999999995,
      "d": 341.51671875000466,
      "v": 84
    },
    {
      "midi": 75,
      "hit": false,
      "t": 113142.47999999995,
      "d": 227.67781249999825,
      "v": 87
    },
    {
      "midi": 76,
      "hit": false,
      "t": 113354.53286458329,
      "d": 453.1234895833477,
      "v": 60
    },
    {
      "midi": 76,
      "hit": false,
      "t": 113356.76499999996,
      "d": 196.42791666666744,
      "v": 73
    },
    {
      "midi": 83,
      "hit": false,
      "t": 113571.04999999996,
      "d": 218.74927083333023,
      "v": 91
    },
    {
      "midi": 83,
      "hit": false,
      "t": 113577.74640624996,
      "d": 223.21354166667152,
      "v": 64
    },
    {
      "midi": 75,
      "hit": false,
      "t": 113780.87072916664,
      "d": 2361.5992708333215,
      "v": 76
    },
    {
      "midi": 75,
      "hit": false,
      "t": 113785.33499999996,
      "d": 207.58859374999884,
      "v": 84
    },
    {
      "midi": 76,
      "hit": false,
      "t": 113999.61999999997,
      "d": 243.30276041667094,
      "v": 79
    },
    {
      "midi": 76,
      "hit": false,
      "t": 114004.08427083331,
      "d": 2104.903697916656,
      "v": 61
    },
    {
      "midi": 83,
      "hit": false,
      "t": 114213.90499999997,
      "d": 232.14208333333954,
      "v": 82
    },
    {
      "midi": 83,
      "hit": false,
      "t": 114225.0656770833,
      "d": 1881.6901562499988,
      "v": 64
    },
    {
      "midi": 75,
      "hit": false,
      "t": 114428.18999999997,
      "d": 212.05286458334012,
      "v": 76
    },
    {
      "midi": 59,
      "hit": false,
      "t": 114642.47499999996,
      "d": 323.6596354166686,
      "v": 76
    },
    {
      "midi": 63,
      "hit": false,
      "t": 114642.47499999996,
      "d": 334.8203125,
      "v": 84
    },
    {
      "midi": 66,
      "hit": false,
      "t": 114642.47499999996,
      "d": 334.8203125,
      "v": 76
    },
    {
      "midi": 76,
      "hit": false,
      "t": 114642.47499999998,
      "d": 203.1243229166721,
      "v": 73
    },
    {
      "midi": 83,
      "hit": false,
      "t": 114856.75999999998,
      "d": 229.90994791667617,
      "v": 71
    },
    {
      "midi": 63,
      "hit": false,
      "t": 115071.04499999997,
      "d": 64.73192708333954,
      "v": 57
    },
    {
      "midi": 59,
      "hit": false,
      "t": 115071.04499999997,
      "d": 66.96406250000291,
      "v": 55
    },
    {
      "midi": 66,
      "hit": false,
      "t": 115071.04499999997,
      "d": 73.66046875000757,
      "v": 58
    },
    {
      "midi": 75,
      "hit": false,
      "t": 115071.04499999998,
      "d": 245.5348958333343,
      "v": 63
    },
    {
      "midi": 63,
      "hit": false,
      "t": 115285.32999999997,
      "d": 1102.6748958333192,
      "v": 76
    },
    {
      "midi": 66,
      "hit": false,
      "t": 115285.32999999997,
      "d": 1160.710416666654,
      "v": 68
    },
    {
      "midi": 76,
      "hit": false,
      "t": 115285.32999999999,
      "d": 196.42791666666744,
      "v": 57
    },
    {
      "midi": 83,
      "hit": false,
      "t": 115499.61499999999,
      "d": 227.67781249999825,
      "v": 60
    },
    {
      "midi": 75,
      "hit": false,
      "t": 115713.9,
      "d": 225.44567708332033,
      "v": 53
    },
    {
      "midi": 76,
      "hit": false,
      "t": 115928.18499999998,
      "d": 180.80296874999476,
      "v": 42
    },
    {
      "midi": 83,
      "hit": false,
      "t": 116142.46999999997,
      "d": 209.8207291666622,
      "v": 46
    },
    {
      "midi": 75,
      "hit": false,
      "t": 116356.75499999996,
      "d": 80.35687499999767,
      "v": 38
    },
    {
      "midi": 75,
      "hit": false,
      "t": 116571.03999999996,
      "d": 341.51671875000466,
      "v": 84
    },
    {
      "midi": 75,
      "hit": false,
      "t": 116571.03999999996,
      "d": 236.60635416666628,
      "v": 87
    },
    {
      "midi": 76,
      "hit": false,
      "t": 116783.0928645833,
      "d": 453.1234895833477,
      "v": 60
    },
    {
      "midi": 76,
      "hit": false,
      "t": 116785.32499999997,
      "d": 232.142083333325,
      "v": 68
    },
    {
      "midi": 83,
      "hit": false,
      "t": 116999.60999999996,
      "d": 236.60635416666628,
      "v": 84
    },
    {
      "midi": 83,
      "hit": false,
      "t": 117006.30640624998,
      "d": 223.21354166667152,
      "v": 64
    },
    {
      "midi": 75,
      "hit": false,
      "t": 117209.43072916665,
      "d": 2361.599270833307,
      "v": 76
    },
    {
      "midi": 75,
      "hit": false,
      "t": 117213.89499999996,
      "d": 252.2313020833244,
      "v": 79
    },
    {
      "midi": 76,
      "hit": false,
      "t": 117428.17999999995,
      "d": 218.74927083333023,
      "v": 68
    },
    {
      "midi": 76,
      "hit": false,
      "t": 117432.64427083332,
      "d": 2104.9036979166412,
      "v": 61
    },
    {
      "midi": 83,
      "hit": false,
      "t": 117642.46499999995,
      "d": 229.90994791666162,
      "v": 84
    },
    {
      "midi": 83,
      "hit": false,
      "t": 117653.62567708331,
      "d": 1881.6901562499843,
      "v": 64
    },
    {
      "midi": 75,
      "hit": false,
      "t": 117856.74999999994,
      "d": 252.23130208333896,
      "v": 64
    },
    {
      "midi": 76,
      "hit": false,
      "t": 118071.03499999995,
      "d": 212.05286458334012,
      "v": 64
    },
    {
      "midi": 59,
      "hit": false,
      "t": 118071.03499999997,
      "d": 312.4989583333372,
      "v": 68
    },
    {
      "midi": 69,
      "hit": false,
      "t": 118071.03499999997,
      "d": 323.6596354166686,
      "v": 64
    },
    {
      "midi": 61,
      "hit": false,
      "t": 118071.03499999997,
      "d": 328.12390624999534,
      "v": 76
    },
    {
      "midi": 64,
      "hit": false,
      "t": 118071.03499999997,
      "d": 328.12390624999534,
      "v": 71
    },
    {
      "midi": 83,
      "hit": false,
      "t": 118285.31999999995,
      "d": 227.67781249999825,
      "v": 64
    },
    {
      "midi": 75,
      "hit": false,
      "t": 118499.60499999995,
      "d": 223.21354166665697,
      "v": 50
    },
    {
      "midi": 61,
      "hit": false,
      "t": 118499.60499999997,
      "d": 66.96406250000291,
      "v": 63
    },
    {
      "midi": 64,
      "hit": false,
      "t": 118499.60499999997,
      "d": 73.66046875000757,
      "v": 66
    },
    {
      "midi": 59,
      "hit": false,
      "t": 118499.60499999997,
      "d": 75.89260416667094,
      "v": 64
    },
    {
      "midi": 69,
      "hit": false,
      "t": 118499.60499999997,
      "d": 87.05328125000233,
      "v": 61
    },
    {
      "midi": 76,
      "hit": false,
      "t": 118713.88999999994,
      "d": 218.74927083333023,
      "v": 52
    },
    {
      "midi": 59,
      "hit": false,
      "t": 118713.88999999997,
      "d": 1162.9425520833174,
      "v": 68
    },
    {
      "midi": 64,
      "hit": false,
      "t": 118713.88999999997,
      "d": 1176.3353645833122,
      "v": 76
    },
    {
      "midi": 69,
      "hit": false,
      "t": 118713.88999999997,
      "d": 1180.799635416639,
      "v": 64
    },
    {
      "midi": 61,
      "hit": false,
      "t": 118713.88999999997,
      "d": 1185.2639062499657,
      "v": 76
    },
    {
      "midi": 83,
      "hit": false,
      "t": 118928.17499999994,
      "d": 205.35645833332092,
      "v": 66
    },
    {
      "midi": 75,
      "hit": false,
      "t": 119142.45999999993,
      "d": 263.39197916667035,
      "v": 51
    },
    {
      "midi": 76,
      "hit": false,
      "t": 119356.74499999994,
      "d": 191.9636458333407,
      "v": 43
    },
    {
      "midi": 83,
      "hit": false,
      "t": 119571.02999999994,
      "d": 180.80296874999476,
      "v": 51
    },
    {
      "midi": 75,
      "hit": false,
      "t": 119999.59999999993,
      "d": 341.51671875000466,
      "v": 84
    },
    {
      "midi": 75,
      "hit": false,
      "t": 119999.59999999993,
      "d": 218.74927083333023,
      "v": 95
    },
    {
      "midi": 76,
      "hit": false,
      "t": 120211.65286458327,
      "d": 453.1234895833477,
      "v": 60
    },
    {
      "midi": 76,
      "hit": false,
      "t": 120213.88499999994,
      "d": 209.8207291666622,
      "v": 71
    },
    {
      "midi": 83,
      "hit": false,
      "t": 120428.16999999993,
      "d": 223.21354166667152,
      "v": 87
    },
    {
      "midi": 83,
      "hit": false,
      "t": 120434.86640624994,
      "d": 223.21354166667152,
      "v": 64
    },
    {
      "midi": 75,
      "hit": false,
      "t": 120637.99072916662,
      "d": 2361.5992708333215,
      "v": 76
    },
    {
      "midi": 75,
      "hit": false,
      "t": 120642.45499999993,
      "d": 249.9991666666756,
      "v": 79
    },
    {
      "midi": 76,
      "hit": false,
      "t": 120856.73999999993,
      "d": 205.35645833333547,
      "v": 71
    },
    {
      "midi": 76,
      "hit": false,
      "t": 120861.20427083329,
      "d": 2104.903697916656,
      "v": 61
    },
    {
      "midi": 83,
      "hit": false,
      "t": 121071.02499999994,
      "d": 229.90994791667617,
      "v": 84
    },
    {
      "midi": 83,
      "hit": false,
      "t": 121082.18567708328,
      "d": 1881.6901562499988,
      "v": 64
    },
    {
      "midi": 75,
      "hit": false,
      "t": 121285.30999999994,
      "d": 234.3742187500029,
      "v": 84
    },
    {
      "midi": 59,
      "hit": false,
      "t": 121499.59499999994,
      "d": 319.1953645833273,
      "v": 82
    },
    {
      "midi": 63,
      "hit": false,
      "t": 121499.59499999994,
      "d": 328.12390624999534,
      "v": 82
    },
    {
      "midi": 66,
      "hit": false,
      "t": 121499.59499999994,
      "d": 328.12390624999534,
      "v": 76
    },
    {
      "midi": 76,
      "hit": false,
      "t": 121499.59499999994,
      "d": 207.58859374999884,
      "v": 79
    },
    {
      "midi": 83,
      "hit": false,
      "t": 121713.87999999995,
      "d": 232.14208333333954,
      "v": 95
    },
    {
      "midi": 59,
      "hit": false,
      "t": 121928.16499999994,
      "d": 58.035520833334886,
      "v": 46
    },
    {
      "midi": 63,
      "hit": false,
      "t": 121928.16499999994,
      "d": 64.73192708333954,
      "v": 55
    },
    {
      "midi": 66,
      "hit": false,
      "t": 121928.16499999994,
      "d": 71.4283333333442,
      "v": 52
    },
    {
      "midi": 75,
      "hit": false,
      "t": 121928.16499999995,
      "d": 243.30276041667094,
      "v": 67
    },
    {
      "midi": 63,
      "hit": false,
      "t": 122142.44999999995,
      "d": 1060.264322916657,
      "v": 76
    },
    {
      "midi": 59,
      "hit": false,
      "t": 122142.44999999995,
      "d": 1102.6748958333192,
      "v": 67
    },
    {
      "midi": 66,
      "hit": false,
      "t": 122142.44999999995,
      "d": 1113.8355729166506,
      "v": 71
    },
    {
      "midi": 76,
      "hit": false,
      "t": 122142.44999999995,
      "d": 183.03510416667268,
      "v": 63
    },
    {
      "midi": 83,
      "hit": false,
      "t": 122356.73499999996,
      "d": 238.83848958332965,
      "v": 71
    },
    {
      "midi": 75,
      "hit": false,
      "t": 122571.01999999996,
      "d": 241.07062499999302,
      "v": 64
    },
    {
      "midi": 76,
      "hit": false,
      "t": 122785.30499999995,
      "d": 238.83848958332965,
      "v": 52
    },
    {
      "midi": 83,
      "hit": false,
      "t": 122999.58999999995,
      "d": 325.891770833332,
      "v": 48
    },
    {
      "midi": 75,
      "hit": false,
      "t": 123428.15999999993,
      "d": 341.51671875000466,
      "v": 84
    },
    {
      "midi": 75,
      "hit": false,
      "t": 123428.15999999995,
      "d": 203.1243229166721,
      "v": 84
    },
    {
      "midi": 76,
      "hit": false,
      "t": 123640.21286458327,
      "d": 453.1234895833477,
      "v": 60
    },
    {
      "midi": 76,
      "hit": false,
      "t": 123642.44499999995,
      "d": 191.96364583332615,
      "v": 79
    },
    {
      "midi": 83,
      "hit": false,
      "t": 123856.72999999994,
      "d": 229.90994791667617,
      "v": 82
    },
    {
      "midi": 83,
      "hit": false,
      "t": 123863.42640624994,
      "d": 223.21354166667152,
      "v": 64
    },
    {
      "midi": 75,
      "hit": false,
      "t": 124066.55072916661,
      "d": 2361.5992708333215,
      "v": 76
    },
    {
      "midi": 75,
      "hit": false,
      "t": 124071.01499999994,
      "d": 214.2850000000035,
      "v": 82
    },
    {
      "midi": 76,
      "hit": false,
      "t": 124285.29999999994,
      "d": 245.5348958333343,
      "v": 79
    },
    {
      "midi": 76,
      "hit": false,
      "t": 124289.76427083329,
      "d": 2104.903697916656,
      "v": 61
    },
    {
      "midi": 83,
      "hit": false,
      "t": 124499.58499999995,
      "d": 272.3205208333384,
      "v": 84
    },
    {
      "midi": 83,
      "hit": false,
      "t": 124510.74567708328,
      "d": 1881.6901562499988,
      "v": 64
    },
    {
      "midi": 75,
      "hit": false,
      "t": 124713.86999999995,
      "d": 236.60635416666628,
      "v": 68
    },
    {
      "midi": 59,
      "hit": false,
      "t": 124928.15499999994,
      "d": 283.48119791666977,
      "v": 76
    },
    {
      "midi": 64,
      "hit": false,
      "t": 124928.15499999994,
      "d": 299.10614583334245,
      "v": 71
    },
    {
      "midi": 69,
      "hit": false,
      "t": 124928.15499999994,
      "d": 299.10614583334245,
      "v": 63
    },
    {
      "midi": 61,
      "hit": false,
      "t": 124928.15499999994,
      "d": 303.5704166666692,
      "v": 71
    },
    {
      "midi": 76,
      "hit": false,
      "t": 124928.15499999996,
      "d": 232.142083333325,
      "v": 71
    },
    {
      "midi": 83,
      "hit": false,
      "t": 125142.43999999994,
      "d": 270.088385416675,
      "v": 82
    },
    {
      "midi": 59,
      "hit": false,
      "t": 125356.72499999995,
      "d": 58.035520833334886,
      "v": 55
    },
    {
      "midi": 61,
      "hit": false,
      "t": 125356.72499999995,
      "d": 60.267656249998254,
      "v": 56
    },
    {
      "midi": 64,
      "hit": false,
      "t": 125356.72499999995,
      "d": 69.19619791666628,
      "v": 56
    },
    {
      "midi": 69,
      "hit": false,
      "t": 125356.72499999995,
      "d": 75.89260416667094,
      "v": 55
    },
    {
      "midi": 75,
      "hit": false,
      "t": 125356.72499999995,
      "d": 238.83848958332965,
      "v": 64
    },
    {
      "midi": 64,
      "hit": false,
      "t": 125571.00999999995,
      "d": 1118.2998437499919,
      "v": 76
    },
    {
      "midi": 59,
      "hit": false,
      "t": 125571.00999999995,
      "d": 1120.5319791666552,
      "v": 79
    },
    {
      "midi": 61,
      "hit": false,
      "t": 125571.00999999995,
      "d": 1131.6926562499866,
      "v": 79
    },
    {
      "midi": 69,
      "hit": false,
      "t": 125571.00999999995,
      "d": 1131.6926562499866,
      "v": 67
    },
    {
      "midi": 76,
      "hit": false,
      "t": 125571.00999999995,
      "d": 185.2672395833215,
      "v": 62
    },
    {
      "midi": 83,
      "hit": false,
      "t": 125785.29499999994,
      "d": 207.58859374999884,
      "v": 62
    },
    {
      "midi": 75,
      "hit": false,
      "t": 125999.57999999994,
      "d": 245.5348958333343,
      "v": 57
    },
    {
      "midi": 76,
      "hit": false,
      "t": 126213.86499999995,
      "d": 207.58859374999884,
      "v": 48
    },
    {
      "midi": 83,
      "hit": false,
      "t": 126428.14999999995,
      "d": 187.49937499999942,
      "v": 55
    },
    {
      "midi": 75,
      "hit": false,
      "t": 126642.43499999995,
      "d": 209.8207291666622,
      "v": 33
    },
    {
      "midi": 63,
      "hit": false,
      "t": 126856.71999999994,
      "d": 468.7484375000058,
      "v": 93
    },
    {
      "midi": 76,
      "hit": false,
      "t": 126856.71999999994,
      "d": 194.19578125000407,
      "v": 42
    },
    {
      "midi": 64,
      "hit": false,
      "t": 127071.00499999995,
      "d": 477.67697916667385,
      "v": 72
    },
    {
      "midi": 83,
      "hit": false,
      "t": 127071.00499999995,
      "d": 212.05286458334012,
      "v": 47
    },
    {
      "midi": 71,
      "hit": false,
      "t": 127285.28999999995,
      "d": 279.01692708334303,
      "v": 82
    },
    {
      "midi": 75,
      "hit": false,
      "t": 127285.28999999995,
      "d": 223.21354166667152,
      "v": 36
    },
    {
      "midi": 63,
      "hit": false,
      "t": 127499.57499999995,
      "d": 428.570000000007,
      "v": 77
    },
    {
      "midi": 76,
      "hit": false,
      "t": 127499.57499999995,
      "d": 214.2850000000035,
      "v": 38
    },
    {
      "midi": 64,
      "hit": false,
      "t": 127713.85999999996,
      "d": 428.570000000007,
      "v": 66
    },
    {
      "midi": 83,
      "hit": false,
      "t": 127713.85999999996,
      "d": 189.7315104166628,
      "v": 50
    },
    {
      "midi": 75,
      "hit": false,
      "t": 127928.14499999995,
      "d": 169.64229166666337,
      "v": 29
    },
    {
      "midi": 71,
      "hit": false,
      "t": 127928.14499999996,
      "d": 428.570000000007,
      "v": 73
    },
    {
      "midi": 76,
      "hit": false,
      "t": 128142.42999999995,
      "d": 156.2494791666686,
      "v": 22
    },
    {
      "midi": 83,
      "hit": false,
      "t": 128356.71499999995,
      "d": 189.7315104166628,
      "v": 25
    },
    {
      "midi": 75,
      "hit": false,
      "t": 128570.99999999994,
      "d": 203.1243229166721,
      "v": 22
    },
    {
      "midi": 76,
      "hit": false,
      "t": 128785.28499999995,
      "d": 200.89218749999418,
      "v": 33
    },
    {
      "midi": 83,
      "hit": false,
      "t": 128999.56999999993,
      "d": 209.8207291666622,
      "v": 35
    },
    {
      "midi": 75,
      "hit": false,
      "t": 129213.85499999992,
      "d": 194.19578125000407,
      "v": 13
    },
    {
      "midi": 76,
      "hit": false,
      "t": 129428.13999999993,
      "d": 189.7315104166628,
      "v": 19
    },
    {
      "midi": 75,
      "hit": false,
      "t": 131999.5599999999,
      "d": 245.53489583334886,
      "v": 87
    },
    {
      "midi": 63,
      "hit": false,
      "t": 131999.55999999994,
      "d": 459.81989583335235,
      "v": 84
    },
    {
      "midi": 64,
      "hit": false,
      "t": 132198.22005208328,
      "d": 486.60552083334187,
      "v": 62
    },
    {
      "midi": 76,
      "hit": false,
      "t": 132213.8449999999,
      "d": 218.74927083333023,
      "v": 66
    },
    {
      "midi": 83,
      "hit": false,
      "t": 132428.12999999992,
      "d": 220.98140625000815,
      "v": 82
    },
    {
      "midi": 71,
      "hit": false,
      "t": 132430.36213541662,
      "d": 209.82072916667676,
      "v": 73
    },
    {
      "midi": 75,
      "hit": false,
      "t": 132642.41499999992,
      "d": 229.90994791666162,
      "v": 79
    },
    {
      "midi": 63,
      "hit": false,
      "t": 132649.11140624995,
      "d": 1071.4249999999593,
      "v": 79
    },
    {
      "midi": 76,
      "hit": false,
      "t": 132856.69999999992,
      "d": 227.6778125000128,
      "v": 73
    },
    {
      "midi": 64,
      "hit": false,
      "t": 132861.16427083328,
      "d": 642.8549999999814,
      "v": 50
    },
    {
      "midi": 83,
      "hit": false,
      "t": 133070.98499999993,
      "d": 560.2659895833349,
      "v": 84
    },
    {
      "midi": 71,
      "hit": false,
      "t": 133077.68140624993,
      "d": 642.8549999999814,
      "v": 68
    },
    {
      "midi": 38,
      "hit": false,
      "t": 133713.8399999999,
      "d": 310.2668229166593,
      "v": 89
    },
    {
      "midi": 61,
      "hit": false,
      "t": 133713.8399999999,
      "d": 1499.9949999999953,
      "v": 68
    },
    {
      "midi": 66,
      "hit": false,
      "t": 133713.8399999999,
      "d": 1607.1374999999825,
      "v": 67
    },
    {
      "midi": 64,
      "hit": false,
      "t": 133713.8399999999,
      "d": 1642.8516666666546,
      "v": 72
    },
    {
      "midi": 69,
      "hit": false,
      "t": 133713.8399999999,
      "d": 1642.8516666666546,
      "v": 89
    },
    {
      "midi": 38,
      "hit": false,
      "t": 133713.83999999994,
      "d": 310.2668229166593,
      "v": 89
    },
    {
      "midi": 61,
      "hit": false,
      "t": 133713.83999999994,
      "d": 1499.9949999999953,
      "v": 68
    },
    {
      "midi": 66,
      "hit": false,
      "t": 133713.83999999994,
      "d": 1607.1374999999825,
      "v": 67
    },
    {
      "midi": 64,
      "hit": false,
      "t": 133713.83999999994,
      "d": 1642.8516666666546,
      "v": 72
    },
    {
      "midi": 69,
      "hit": false,
      "t": 133713.83999999994,
      "d": 1642.8516666666546,
      "v": 89
    },
    {
      "midi": 45,
      "hit": false,
      "t": 134356.6949999999,
      "d": 178.5708333333314,
      "v": 73
    },
    {
      "midi": 45,
      "hit": false,
      "t": 134356.69499999992,
      "d": 178.5708333333314,
      "v": 73
    },
    {
      "midi": 54,
      "hit": false,
      "t": 134999.5499999999,
      "d": 154.0173437499907,
      "v": 60
    },
    {
      "midi": 54,
      "hit": false,
      "t": 134999.54999999993,
      "d": 154.0173437499907,
      "v": 60
    },
    {
      "midi": 61,
      "hit": false,
      "t": 135428.1199999999,
      "d": 319.19536458334187,
      "v": 58
    },
    {
      "midi": 61,
      "hit": false,
      "t": 135428.11999999994,
      "d": 319.19536458334187,
      "v": 58
    },
    {
      "midi": 59,
      "hit": false,
      "t": 137033.02536458327,
      "d": 3279.0069270833046,
      "v": 72
    },
    {
      "midi": 59,
      "hit": false,
      "t": 137033.0253645833,
      "d": 3279.0069270833046,
      "v": 72
    },
    {
      "midi": 63,
      "hit": false,
      "t": 137102.22156249994,
      "d": 3274.542656249978,
      "v": 67
    },
    {
      "midi": 63,
      "hit": false,
      "t": 137102.22156249997,
      "d": 3274.542656249978,
      "v": 67
    },
    {
      "midi": 66,
      "hit": false,
      "t": 137122.31078124995,
      "d": 3252.221302083286,
      "v": 67
    },
    {
      "midi": 66,
      "hit": false,
      "t": 137122.31078124998,
      "d": 3252.221302083286,
      "v": 67
    },
    {
      "midi": 47,
      "hit": false,
      "t": 137166.95348958328,
      "d": 2841.508385416644,
      "v": 84
    },
    {
      "midi": 47,
      "hit": false,
      "t": 137166.9534895833,
      "d": 2841.508385416644,
      "v": 84
    },
    {
      "midi": 72,
      "hit": false,
      "t": 137178.1141666666,
      "d": 535.7124999999942,
      "v": 66
    },
    {
      "midi": 72,
      "hit": false,
      "t": 137178.11416666664,
      "d": 535.7124999999942,
      "v": 66
    },
    {
      "midi": 71,
      "hit": false,
      "t": 137722.75520833326,
      "d": 2647.3126041666546,
      "v": 66
    },
    {
      "midi": 71,
      "hit": false,
      "t": 137722.75520833328,
      "d": 2647.3126041666546,
      "v": 66
    },
    {
      "midi": 64,
      "hit": false,
      "t": 140570.9599999999,
      "d": 3281.2390625000407,
      "v": 72
    },
    {
      "midi": 59,
      "hit": false,
      "t": 140570.9599999999,
      "d": 3294.63187500005,
      "v": 73
    },
    {
      "midi": 67,
      "hit": false,
      "t": 140570.9599999999,
      "d": 3296.864010416728,
      "v": 72
    },
    {
      "midi": 66,
      "hit": false,
      "t": 140570.9599999999,
      "d": 3308.0246875000594,
      "v": 72
    },
    {
      "midi": 52,
      "hit": false,
      "t": 140570.9599999999,
      "d": 3312.488958333386,
      "v": 68
    },
    {
      "midi": 40,
      "hit": false,
      "t": 140570.9599999999,
      "d": 3334.810312500049,
      "v": 76
    },
    {
      "midi": 64,
      "hit": false,
      "t": 140570.95999999993,
      "d": 3281.2390625000407,
      "v": 72
    },
    {
      "midi": 59,
      "hit": false,
      "t": 140570.95999999993,
      "d": 3294.63187500005,
      "v": 73
    },
    {
      "midi": 67,
      "hit": false,
      "t": 140570.95999999993,
      "d": 3296.864010416728,
      "v": 72
    },
    {
      "midi": 66,
      "hit": false,
      "t": 140570.95999999993,
      "d": 3308.0246875000594,
      "v": 72
    },
    {
      "midi": 52,
      "hit": false,
      "t": 140570.95999999993,
      "d": 3312.488958333386,
      "v": 68
    },
    {
      "midi": 40,
      "hit": false,
      "t": 140570.95999999993,
      "d": 3334.810312500049,
      "v": 76
    },
    {
      "midi": 78,
      "hit": false,
      "t": 141635.68859374992,
      "d": 2212.046197916701,
      "v": 53
    },
    {
      "midi": 78,
      "hit": false,
      "t": 141635.68859374995,
      "d": 2212.046197916701,
      "v": 53
    },
    {
      "midi": 79,
      "hit": false,
      "t": 141849.97359374992,
      "d": 1959.8148958333477,
      "v": 41
    },
    {
      "midi": 79,
      "hit": false,
      "t": 141849.97359374995,
      "d": 1959.8148958333477,
      "v": 41
    },
    {
      "midi": 86,
      "hit": false,
      "t": 142068.72286458325,
      "d": 1738.8334895833395,
      "v": 53
    },
    {
      "midi": 86,
      "hit": false,
      "t": 142068.72286458328,
      "d": 1738.8334895833395,
      "v": 53
    },
    {
      "midi": 59,
      "hit": false,
      "t": 143999.51999999993,
      "d": 607.1408333333675,
      "v": 89
    },
    {
      "midi": 69,
      "hit": false,
      "t": 143999.51999999993,
      "d": 678.5691666667117,
      "v": 91
    },
    {
      "midi": 57,
      "hit": false,
      "t": 143999.51999999993,
      "d": 1107.1391666667187,
      "v": 85
    },
    {
      "midi": 62,
      "hit": false,
      "t": 143999.51999999993,
      "d": 1249.995833333378,
      "v": 76
    },
    {
      "midi": 59,
      "hit": false,
      "t": 143999.51999999996,
      "d": 607.1408333333675,
      "v": 89
    },
    {
      "midi": 69,
      "hit": false,
      "t": 143999.51999999996,
      "d": 678.5691666667117,
      "v": 91
    },
    {
      "midi": 57,
      "hit": false,
      "t": 143999.51999999996,
      "d": 1107.1391666667187,
      "v": 85
    },
    {
      "midi": 62,
      "hit": false,
      "t": 143999.51999999996,
      "d": 1249.995833333378,
      "v": 76
    },
    {
      "midi": 33,
      "hit": false,
      "t": 144019.60921874995,
      "d": 1404.0131770833686,
      "v": 100
    },
    {
      "midi": 33,
      "hit": false,
      "t": 144019.60921874997,
      "d": 1404.0131770833686,
      "v": 100
    },
    {
      "midi": 45,
      "hit": false,
      "t": 144033.00203124995,
      "d": 1314.7277604166884,
      "v": 87
    },
    {
      "midi": 45,
      "hit": false,
      "t": 144033.00203124998,
      "d": 1314.7277604166884,
      "v": 87
    },
    {
      "midi": 71,
      "hit": false,
      "t": 144642.37499999997,
      "d": 535.7124999999942,
      "v": 81
    },
    {
      "midi": 59,
      "hit": false,
      "t": 144642.37499999997,
      "d": 587.0516145833244,
      "v": 73
    },
    {
      "midi": 71,
      "hit": false,
      "t": 144642.375,
      "d": 535.7124999999942,
      "v": 81
    },
    {
      "midi": 59,
      "hit": false,
      "t": 144642.375,
      "d": 587.0516145833244,
      "v": 73
    },
    {
      "midi": 57,
      "hit": false,
      "t": 145285.22999999998,
      "d": 1962.0470312499965,
      "v": 73
    },
    {
      "midi": 59,
      "hit": false,
      "t": 145285.22999999998,
      "d": 1975.4398437500058,
      "v": 71
    },
    {
      "midi": 61,
      "hit": false,
      "t": 145285.22999999998,
      "d": 1999.9933333333465,
      "v": 78
    },
    {
      "midi": 64,
      "hit": false,
      "t": 145285.22999999998,
      "d": 2002.2254687500244,
      "v": 76
    },
    {
      "midi": 57,
      "hit": false,
      "t": 145285.23,
      "d": 1962.0470312499965,
      "v": 73
    },
    {
      "midi": 59,
      "hit": false,
      "t": 145285.23,
      "d": 1975.4398437500058,
      "v": 71
    },
    {
      "midi": 61,
      "hit": false,
      "t": 145285.23,
      "d": 1999.9933333333465,
      "v": 78
    },
    {
      "midi": 64,
      "hit": false,
      "t": 145285.23,
      "d": 2002.2254687500244,
      "v": 76
    },
    {
      "midi": 45,
      "hit": false,
      "t": 145347.72979166664,
      "d": 6.696406250004657,
      "v": 87
    },
    {
      "midi": 45,
      "hit": false,
      "t": 145347.72979166667,
      "d": 6.696406250004657,
      "v": 87
    },
    {
      "midi": 38,
      "hit": false,
      "t": 147428.08000000002,
      "d": 455.3556249999965,
      "v": 87
    },
    {
      "midi": 57,
      "hit": false,
      "t": 147428.08000000002,
      "d": 2357.1350000000384,
      "v": 82
    },
    {
      "midi": 64,
      "hit": false,
      "t": 147428.08000000002,
      "d": 2357.1350000000384,
      "v": 79
    },
    {
      "midi": 61,
      "hit": false,
      "t": 147428.08000000002,
      "d": 2571.420000000042,
      "v": 87
    },
    {
      "midi": 66,
      "hit": false,
      "t": 147428.08000000002,
      "d": 2571.420000000042,
      "v": 82
    },
    {
      "midi": 38,
      "hit": false,
      "t": 147428.08000000005,
      "d": 455.3556249999965,
      "v": 87
    },
    {
      "midi": 57,
      "hit": false,
      "t": 147428.08000000005,
      "d": 2357.1350000000384,
      "v": 82
    },
    {
      "midi": 64,
      "hit": false,
      "t": 147428.08000000005,
      "d": 2357.1350000000384,
      "v": 79
    },
    {
      "midi": 61,
      "hit": false,
      "t": 147428.08000000005,
      "d": 2571.420000000042,
      "v": 87
    },
    {
      "midi": 66,
      "hit": false,
      "t": 147428.08000000005,
      "d": 2571.420000000042,
      "v": 82
    },
    {
      "midi": 45,
      "hit": false,
      "t": 148070.93500000003,
      "d": 1285.710000000021,
      "v": 73
    },
    {
      "midi": 45,
      "hit": false,
      "t": 148070.93500000006,
      "d": 1285.710000000021,
      "v": 73
    },
    {
      "midi": 54,
      "hit": false,
      "t": 148713.79000000004,
      "d": 1285.710000000021,
      "v": 84
    },
    {
      "midi": 54,
      "hit": false,
      "t": 148713.79000000007,
      "d": 1285.710000000021,
      "v": 84
    },
    {
      "midi": 59,
      "hit": false,
      "t": 150731.64041666672,
      "d": 3368.292343750043,
      "v": 63
    },
    {
      "midi": 59,
      "hit": false,
      "t": 150731.64041666675,
      "d": 3368.292343750043,
      "v": 63
    },
    {
      "midi": 63,
      "hit": false,
      "t": 150791.90807291673,
      "d": 3323.6496354166884,
      "v": 75
    },
    {
      "midi": 63,
      "hit": false,
      "t": 150791.90807291676,
      "d": 3323.6496354166884,
      "v": 75
    },
    {
      "midi": 66,
      "hit": false,
      "t": 150834.3186458334,
      "d": 3287.9354687500163,
      "v": 60
    },
    {
      "midi": 66,
      "hit": false,
      "t": 150834.31864583344,
      "d": 3287.9354687500163,
      "v": 60
    },
    {
      "midi": 35,
      "hit": false,
      "t": 150872.26494791673,
      "d": 3138.3823958333523,
      "v": 87
    },
    {
      "midi": 35,
      "hit": false,
      "t": 150872.26494791676,
      "d": 3138.3823958333523,
      "v": 87
    },
    {
      "midi": 47,
      "hit": false,
      "t": 150874.4970833334,
      "d": 3136.1502604166744,
      "v": 74
    },
    {
      "midi": 47,
      "hit": false,
      "t": 150874.49708333344,
      "d": 3136.1502604166744,
      "v": 74
    },
    {
      "midi": 72,
      "hit": false,
      "t": 150905.74697916675,
      "d": 607.1408333333384,
      "v": 81
    },
    {
      "midi": 72,
      "hit": false,
      "t": 150905.74697916678,
      "d": 607.1408333333384,
      "v": 81
    },
    {
      "midi": 71,
      "hit": false,
      "t": 151512.8878125001,
      "d": 1928.5650000000023,
      "v": 72
    },
    {
      "midi": 71,
      "hit": false,
      "t": 151512.88781250012,
      "d": 1928.5650000000023,
      "v": 72
    },
    {
      "midi": 69,
      "hit": false,
      "t": 153428.06000000008,
      "d": 455.3556249999965,
      "v": 95
    },
    {
      "midi": 69,
      "hit": false,
      "t": 153428.0600000001,
      "d": 455.3556249999965,
      "v": 95
    },
    {
      "midi": 67,
      "hit": false,
      "t": 153856.6300000001,
      "d": 372.7666145833209,
      "v": 87
    },
    {
      "midi": 67,
      "hit": false,
      "t": 153856.63000000012,
      "d": 372.7666145833209,
      "v": 87
    },
    {
      "midi": 40,
      "hit": false,
      "t": 154285.20000000007,
      "d": 3314.721093750035,
      "v": 107
    },
    {
      "midi": 59,
      "hit": false,
      "t": 154285.20000000007,
      "d": 3341.5067187500244,
      "v": 84
    },
    {
      "midi": 71,
      "hit": false,
      "t": 154285.20000000007,
      "d": 3343.7388541667024,
      "v": 79
    },
    {
      "midi": 67,
      "hit": false,
      "t": 154285.20000000007,
      "d": 3357.1316666667117,
      "v": 79
    },
    {
      "midi": 64,
      "hit": false,
      "t": 154285.20000000007,
      "d": 3359.3638020833896,
      "v": 95
    },
    {
      "midi": 66,
      "hit": false,
      "t": 154285.20000000007,
      "d": 3370.524479166721,
      "v": 87
    },
    {
      "midi": 40,
      "hit": false,
      "t": 154285.2000000001,
      "d": 3314.721093750035,
      "v": 107
    },
    {
      "midi": 59,
      "hit": false,
      "t": 154285.2000000001,
      "d": 3341.5067187500244,
      "v": 84
    },
    {
      "midi": 71,
      "hit": false,
      "t": 154285.2000000001,
      "d": 3343.7388541667024,
      "v": 79
    },
    {
      "midi": 67,
      "hit": false,
      "t": 154285.2000000001,
      "d": 3357.1316666667117,
      "v": 79
    },
    {
      "midi": 64,
      "hit": false,
      "t": 154285.2000000001,
      "d": 3359.3638020833896,
      "v": 95
    },
    {
      "midi": 66,
      "hit": false,
      "t": 154285.2000000001,
      "d": 3370.524479166721,
      "v": 87
    },
    {
      "midi": 78,
      "hit": false,
      "t": 156213.76500000007,
      "d": 1412.9417187500221,
      "v": 58
    },
    {
      "midi": 78,
      "hit": false,
      "t": 156213.7650000001,
      "d": 1412.9417187500221,
      "v": 58
    },
    {
      "midi": 79,
      "hit": false,
      "t": 156434.74640625008,
      "d": 1180.7996354166826,
      "v": 48
    },
    {
      "midi": 79,
      "hit": false,
      "t": 156434.7464062501,
      "d": 1180.7996354166826,
      "v": 48
    },
    {
      "midi": 86,
      "hit": false,
      "t": 156633.40645833343,
      "d": 982.1395833333372,
      "v": 67
    },
    {
      "midi": 86,
      "hit": false,
      "t": 156633.40645833345,
      "d": 982.1395833333372,
      "v": 67
    },
    {
      "midi": 59,
      "hit": false,
      "t": 157713.76000000013,
      "d": 450.89135416666977,
      "v": 71
    },
    {
      "midi": 69,
      "hit": false,
      "t": 157713.76000000013,
      "d": 455.3556249999965,
      "v": 68
    },
    {
      "midi": 62,
      "hit": false,
      "t": 157713.76000000013,
      "d": 479.9091145833372,
      "v": 79
    },
    {
      "midi": 45,
      "hit": false,
      "t": 157713.76000000013,
      "d": 866.0685416666965,
      "v": 84
    },
    {
      "midi": 59,
      "hit": false,
      "t": 157713.76000000015,
      "d": 450.89135416666977,
      "v": 71
    },
    {
      "midi": 69,
      "hit": false,
      "t": 157713.76000000015,
      "d": 455.3556249999965,
      "v": 68
    },
    {
      "midi": 62,
      "hit": false,
      "t": 157713.76000000015,
      "d": 479.9091145833372,
      "v": 79
    },
    {
      "midi": 45,
      "hit": false,
      "t": 157713.76000000015,
      "d": 866.0685416666965,
      "v": 84
    },
    {
      "midi": 59,
      "hit": false,
      "t": 158356.61500000014,
      "d": 93.74968750000698,
      "v": 79
    },
    {
      "midi": 62,
      "hit": false,
      "t": 158356.61500000014,
      "d": 95.9818229166849,
      "v": 76
    },
    {
      "midi": 71,
      "hit": false,
      "t": 158356.61500000014,
      "d": 129.46385416667908,
      "v": 82
    },
    {
      "midi": 59,
      "hit": false,
      "t": 158356.61500000017,
      "d": 93.74968750000698,
      "v": 79
    },
    {
      "midi": 62,
      "hit": false,
      "t": 158356.61500000017,
      "d": 95.9818229166849,
      "v": 76
    },
    {
      "midi": 71,
      "hit": false,
      "t": 158356.61500000017,
      "d": 129.46385416667908,
      "v": 82
    },
    {
      "midi": 57,
      "hit": false,
      "t": 158999.47000000018,
      "d": 1725.4406770833302,
      "v": 84
    },
    {
      "midi": 64,
      "hit": false,
      "t": 158999.47000000018,
      "d": 1772.3155208333337,
      "v": 73
    },
    {
      "midi": 59,
      "hit": false,
      "t": 158999.47000000018,
      "d": 1781.2440624999872,
      "v": 79
    },
    {
      "midi": 61,
      "hit": false,
      "t": 158999.47000000018,
      "d": 1794.6368749999965,
      "v": 76
    },
    {
      "midi": 45,
      "hit": false,
      "t": 158999.47000000018,
      "d": 1796.8690104166744,
      "v": 82
    },
    {
      "midi": 57,
      "hit": false,
      "t": 158999.4700000002,
      "d": 1725.4406770833302,
      "v": 84
    },
    {
      "midi": 64,
      "hit": false,
      "t": 158999.4700000002,
      "d": 1772.3155208333337,
      "v": 73
    },
    {
      "midi": 59,
      "hit": false,
      "t": 158999.4700000002,
      "d": 1781.2440624999872,
      "v": 79
    },
    {
      "midi": 61,
      "hit": false,
      "t": 158999.4700000002,
      "d": 1794.6368749999965,
      "v": 76
    },
    {
      "midi": 45,
      "hit": false,
      "t": 158999.4700000002,
      "d": 1796.8690104166744,
      "v": 82
    },
    {
      "midi": 69,
      "hit": false,
      "t": 160282.9478645835,
      "d": 453.1234895833477,
      "v": 107
    },
    {
      "midi": 69,
      "hit": false,
      "t": 160282.94786458352,
      "d": 453.1234895833477,
      "v": 107
    },
    {
      "midi": 71,
      "hit": false,
      "t": 160718.2142708335,
      "d": 395.0879687500128,
      "v": 91
    },
    {
      "midi": 71,
      "hit": false,
      "t": 160718.21427083353,
      "d": 395.0879687500128,
      "v": 91
    },
    {
      "midi": 73,
      "hit": false,
      "t": 161135.62359375018,
      "d": 446.42708333334303,
      "v": 66
    },
    {
      "midi": 73,
      "hit": false,
      "t": 161135.6235937502,
      "d": 446.42708333334303,
      "v": 66
    },
    {
      "midi": 62,
      "hit": false,
      "t": 161142.32000000018,
      "d": 3174.0965625000244,
      "v": 71
    },
    {
      "midi": 61,
      "hit": false,
      "t": 161142.32000000018,
      "d": 3180.792968750029,
      "v": 82
    },
    {
      "midi": 66,
      "hit": false,
      "t": 161142.32000000018,
      "d": 3216.507135416701,
      "v": 76
    },
    {
      "midi": 69,
      "hit": false,
      "t": 161142.32000000018,
      "d": 3218.739270833379,
      "v": 73
    },
    {
      "midi": 38,
      "hit": false,
      "t": 161142.32000000018,
      "d": 3247.7570312500466,
      "v": 84
    },
    {
      "midi": 62,
      "hit": false,
      "t": 161142.3200000002,
      "d": 3174.0965625000244,
      "v": 71
    },
    {
      "midi": 61,
      "hit": false,
      "t": 161142.3200000002,
      "d": 3180.792968750029,
      "v": 82
    },
    {
      "midi": 66,
      "hit": false,
      "t": 161142.3200000002,
      "d": 3216.507135416701,
      "v": 76
    },
    {
      "midi": 69,
      "hit": false,
      "t": 161142.3200000002,
      "d": 3218.739270833379,
      "v": 73
    },
    {
      "midi": 38,
      "hit": false,
      "t": 161142.3200000002,
      "d": 3247.7570312500466,
      "v": 84
    },
    {
      "midi": 76,
      "hit": false,
      "t": 161559.72932291686,
      "d": 218.74927083333023,
      "v": 63
    },
    {
      "midi": 76,
      "hit": false,
      "t": 161559.7293229169,
      "d": 218.74927083333023,
      "v": 63
    },
    {
      "midi": 73,
      "hit": false,
      "t": 161782.9428645835,
      "d": 1966.5113020833232,
      "v": 66
    },
    {
      "midi": 73,
      "hit": false,
      "t": 161782.94286458354,
      "d": 1966.5113020833232,
      "v": 66
    },
    {
      "midi": 54,
      "hit": false,
      "t": 162856.60000000018,
      "d": 1359.370468750014,
      "v": 43
    },
    {
      "midi": 54,
      "hit": false,
      "t": 162856.6000000002,
      "d": 1359.370468750014,
      "v": 43
    },
    {
      "midi": 59,
      "hit": false,
      "t": 164421.32692708357,
      "d": 3281.2390625000116,
      "v": 55
    },
    {
      "midi": 59,
      "hit": false,
      "t": 164421.3269270836,
      "d": 3281.2390625000116,
      "v": 55
    },
    {
      "midi": 63,
      "hit": false,
      "t": 164474.89817708358,
      "d": 3252.221302083315,
      "v": 64
    },
    {
      "midi": 63,
      "hit": false,
      "t": 164474.8981770836,
      "d": 3252.221302083315,
      "v": 64
    },
    {
      "midi": 66,
      "hit": false,
      "t": 164512.8444791669,
      "d": 3216.507135416672,
      "v": 52
    },
    {
      "midi": 66,
      "hit": false,
      "t": 164512.84447916693,
      "d": 3216.507135416672,
      "v": 52
    },
    {
      "midi": 47,
      "hit": false,
      "t": 164570.88000000024,
      "d": 3256.685572916671,
      "v": 91
    },
    {
      "midi": 47,
      "hit": false,
      "t": 164570.88000000027,
      "d": 3256.685572916671,
      "v": 91
    },
    {
      "midi": 72,
      "hit": false,
      "t": 164590.96921875025,
      "d": 468.7484375000058,
      "v": 73
    },
    {
      "midi": 72,
      "hit": false,
      "t": 164590.96921875028,
      "d": 468.7484375000058,
      "v": 73
    },
    {
      "midi": 71,
      "hit": false,
      "t": 165160.16375000027,
      "d": 2551.3307812499697,
      "v": 82
    },
    {
      "midi": 71,
      "hit": false,
      "t": 165160.1637500003,
      "d": 2551.3307812499697,
      "v": 82
    },
    {
      "midi": 52,
      "hit": false,
      "t": 167999.44000000024,
      "d": 3305.7925520833232,
      "v": 66
    },
    {
      "midi": 59,
      "hit": false,
      "t": 167999.44000000024,
      "d": 3316.9532291666546,
      "v": 76
    },
    {
      "midi": 71,
      "hit": false,
      "t": 167999.44000000024,
      "d": 3319.1853645833326,
      "v": 67
    },
    {
      "midi": 67,
      "hit": false,
      "t": 167999.44000000024,
      "d": 3328.113906249986,
      "v": 68
    },
    {
      "midi": 64,
      "hit": false,
      "t": 167999.44000000024,
      "d": 3332.5781770833128,
      "v": 76
    },
    {
      "midi": 40,
      "hit": false,
      "t": 167999.44000000024,
      "d": 3337.0424479166395,
      "v": 69
    },
    {
      "midi": 66,
      "hit": false,
      "t": 167999.44000000024,
      "d": 3350.435260416649,
      "v": 73
    },
    {
      "midi": 52,
      "hit": false,
      "t": 167999.44000000026,
      "d": 3305.7925520833232,
      "v": 66
    },
    {
      "midi": 59,
      "hit": false,
      "t": 167999.44000000026,
      "d": 3316.9532291666546,
      "v": 76
    },
    {
      "midi": 71,
      "hit": false,
      "t": 167999.44000000026,
      "d": 3319.1853645833326,
      "v": 67
    },
    {
      "midi": 67,
      "hit": false,
      "t": 167999.44000000026,
      "d": 3328.113906249986,
      "v": 68
    },
    {
      "midi": 64,
      "hit": false,
      "t": 167999.44000000026,
      "d": 3332.5781770833128,
      "v": 76
    },
    {
      "midi": 40,
      "hit": false,
      "t": 167999.44000000026,
      "d": 3337.0424479166395,
      "v": 69
    },
    {
      "midi": 66,
      "hit": false,
      "t": 167999.44000000026,
      "d": 3350.435260416649,
      "v": 73
    },
    {
      "midi": 59,
      "hit": false,
      "t": 171428.0000000002,
      "d": 450.89135416666977,
      "v": 71
    },
    {
      "midi": 69,
      "hit": false,
      "t": 171428.0000000002,
      "d": 455.3556249999965,
      "v": 68
    },
    {
      "midi": 62,
      "hit": false,
      "t": 171428.0000000002,
      "d": 479.9091145833372,
      "v": 79
    },
    {
      "midi": 45,
      "hit": false,
      "t": 171428.0000000002,
      "d": 866.0685416666965,
      "v": 84
    },
    {
      "midi": 59,
      "hit": false,
      "t": 171428.00000000023,
      "d": 450.89135416666977,
      "v": 71
    },
    {
      "midi": 69,
      "hit": false,
      "t": 171428.00000000023,
      "d": 455.3556249999965,
      "v": 68
    },
    {
      "midi": 62,
      "hit": false,
      "t": 171428.00000000023,
      "d": 479.9091145833372,
      "v": 79
    },
    {
      "midi": 45,
      "hit": false,
      "t": 171428.00000000023,
      "d": 866.0685416666965,
      "v": 84
    },
    {
      "midi": 59,
      "hit": false,
      "t": 172070.8550000002,
      "d": 93.74968750000698,
      "v": 79
    },
    {
      "midi": 62,
      "hit": false,
      "t": 172070.8550000002,
      "d": 95.9818229166849,
      "v": 76
    },
    {
      "midi": 71,
      "hit": false,
      "t": 172070.8550000002,
      "d": 129.46385416667908,
      "v": 82
    },
    {
      "midi": 59,
      "hit": false,
      "t": 172070.85500000024,
      "d": 93.74968750000698,
      "v": 79
    },
    {
      "midi": 62,
      "hit": false,
      "t": 172070.85500000024,
      "d": 95.9818229166849,
      "v": 76
    },
    {
      "midi": 71,
      "hit": false,
      "t": 172070.85500000024,
      "d": 129.46385416667908,
      "v": 82
    },
    {
      "midi": 57,
      "hit": false,
      "t": 172713.71000000022,
      "d": 1725.4406770833302,
      "v": 84
    },
    {
      "midi": 64,
      "hit": false,
      "t": 172713.71000000022,
      "d": 1772.3155208333337,
      "v": 73
    },
    {
      "midi": 59,
      "hit": false,
      "t": 172713.71000000022,
      "d": 1781.2440624999872,
      "v": 79
    },
    {
      "midi": 61,
      "hit": false,
      "t": 172713.71000000022,
      "d": 1794.6368749999965,
      "v": 76
    },
    {
      "midi": 45,
      "hit": false,
      "t": 172713.71000000022,
      "d": 1796.8690104166744,
      "v": 82
    },
    {
      "midi": 57,
      "hit": false,
      "t": 172713.71000000025,
      "d": 1725.4406770833302,
      "v": 84
    },
    {
      "midi": 64,
      "hit": false,
      "t": 172713.71000000025,
      "d": 1772.3155208333337,
      "v": 73
    },
    {
      "midi": 59,
      "hit": false,
      "t": 172713.71000000025,
      "d": 1781.2440624999872,
      "v": 79
    },
    {
      "midi": 61,
      "hit": false,
      "t": 172713.71000000025,
      "d": 1794.6368749999965,
      "v": 76
    },
    {
      "midi": 45,
      "hit": false,
      "t": 172713.71000000025,
      "d": 1796.8690104166744,
      "v": 82
    },
    {
      "midi": 54,
      "hit": false,
      "t": 174856.56000000023,
      "d": 102.67822916666046,
      "v": 95
    },
    {
      "midi": 57,
      "hit": false,
      "t": 174856.56000000023,
      "d": 102.67822916666046,
      "v": 95
    },
    {
      "midi": 42,
      "hit": false,
      "t": 174856.56000000023,
      "d": 111.60677083331393,
      "v": 95
    },
    {
      "midi": 61,
      "hit": false,
      "t": 174856.56000000023,
      "d": 131.6959895833279,
      "v": 95
    },
    {
      "midi": 64,
      "hit": false,
      "t": 174856.56000000023,
      "d": 131.6959895833279,
      "v": 95
    },
    {
      "midi": 54,
      "hit": false,
      "t": 174856.56000000026,
      "d": 102.67822916666046,
      "v": 95
    },
    {
      "midi": 57,
      "hit": false,
      "t": 174856.56000000026,
      "d": 102.67822916666046,
      "v": 95
    },
    {
      "midi": 42,
      "hit": false,
      "t": 174856.56000000026,
      "d": 111.60677083331393,
      "v": 95
    },
    {
      "midi": 61,
      "hit": false,
      "t": 174856.56000000026,
      "d": 131.6959895833279,
      "v": 95
    },
    {
      "midi": 64,
      "hit": false,
      "t": 174856.56000000026,
      "d": 131.6959895833279,
      "v": 95
    },
    {
      "midi": 54,
      "hit": false,
      "t": 175285.13000000024,
      "d": 2609.3663020833337,
      "v": 84
    },
    {
      "midi": 57,
      "hit": false,
      "t": 175285.13000000024,
      "d": 2622.759114583343,
      "v": 87
    },
    {
      "midi": 42,
      "hit": false,
      "t": 175285.13000000024,
      "d": 2629.4555208333477,
      "v": 95
    },
    {
      "midi": 61,
      "hit": false,
      "t": 175285.13000000024,
      "d": 2647.3126041666837,
      "v": 82
    },
    {
      "midi": 64,
      "hit": false,
      "t": 175285.13000000024,
      "d": 2647.3126041666837,
      "v": 82
    },
    {
      "midi": 54,
      "hit": false,
      "t": 175285.13000000027,
      "d": 2609.3663020833337,
      "v": 84
    },
    {
      "midi": 57,
      "hit": false,
      "t": 175285.13000000027,
      "d": 2622.759114583343,
      "v": 87
    },
    {
      "midi": 42,
      "hit": false,
      "t": 175285.13000000027,
      "d": 2629.4555208333477,
      "v": 95
    },
    {
      "midi": 61,
      "hit": false,
      "t": 175285.13000000027,
      "d": 2647.3126041666837,
      "v": 82
    },
    {
      "midi": 64,
      "hit": false,
      "t": 175285.13000000027,
      "d": 2647.3126041666837,
      "v": 82
    },
    {
      "midi": 71,
      "hit": false,
      "t": 178285.12000000026,
      "d": 658.4799479166686,
      "v": 75
    },
    {
      "midi": 66,
      "hit": false,
      "t": 178285.12000000026,
      "d": 1203.1209895833454,
      "v": 77
    },
    {
      "midi": 59,
      "hit": false,
      "t": 178285.12000000026,
      "d": 3194.1857812500093,
      "v": 84
    },
    {
      "midi": 63,
      "hit": false,
      "t": 178285.12000000026,
      "d": 3209.8107291666674,
      "v": 84
    },
    {
      "midi": 47,
      "hit": false,
      "t": 178285.12000000026,
      "d": 3330.346041666693,
      "v": 95
    },
    {
      "midi": 71,
      "hit": false,
      "t": 178285.1200000003,
      "d": 658.4799479166686,
      "v": 75
    },
    {
      "midi": 66,
      "hit": false,
      "t": 178285.1200000003,
      "d": 1203.1209895833454,
      "v": 77
    },
    {
      "midi": 59,
      "hit": false,
      "t": 178285.1200000003,
      "d": 3194.1857812500093,
      "v": 84
    },
    {
      "midi": 63,
      "hit": false,
      "t": 178285.1200000003,
      "d": 3209.8107291666674,
      "v": 84
    },
    {
      "midi": 47,
      "hit": false,
      "t": 178285.1200000003,
      "d": 3330.346041666693,
      "v": 95
    },
    {
      "midi": 73,
      "hit": false,
      "t": 178927.97500000027,
      "d": 924.1040625000023,
      "v": 84
    },
    {
      "midi": 73,
      "hit": false,
      "t": 178927.9750000003,
      "d": 924.1040625000023,
      "v": 84
    },
    {
      "midi": 66,
      "hit": false,
      "t": 179570.83000000028,
      "d": 1926.3328645833244,
      "v": 81
    },
    {
      "midi": 66,
      "hit": false,
      "t": 179570.8300000003,
      "d": 1926.3328645833244,
      "v": 81
    },
    {
      "midi": 54,
      "hit": false,
      "t": 181713.68000000028,
      "d": 102.67822916666046,
      "v": 98
    },
    {
      "midi": 57,
      "hit": false,
      "t": 181713.68000000028,
      "d": 102.67822916666046,
      "v": 98
    },
    {
      "midi": 42,
      "hit": false,
      "t": 181713.68000000028,
      "d": 111.60677083331393,
      "v": 98
    },
    {
      "midi": 61,
      "hit": false,
      "t": 181713.68000000028,
      "d": 131.6959895833279,
      "v": 98
    },
    {
      "midi": 64,
      "hit": false,
      "t": 181713.68000000028,
      "d": 131.6959895833279,
      "v": 98
    },
    {
      "midi": 54,
      "hit": false,
      "t": 181713.6800000003,
      "d": 102.67822916666046,
      "v": 98
    },
    {
      "midi": 57,
      "hit": false,
      "t": 181713.6800000003,
      "d": 102.67822916666046,
      "v": 98
    },
    {
      "midi": 42,
      "hit": false,
      "t": 181713.6800000003,
      "d": 111.60677083331393,
      "v": 98
    },
    {
      "midi": 61,
      "hit": false,
      "t": 181713.6800000003,
      "d": 131.6959895833279,
      "v": 98
    },
    {
      "midi": 64,
      "hit": false,
      "t": 181713.6800000003,
      "d": 131.6959895833279,
      "v": 98
    },
    {
      "midi": 54,
      "hit": false,
      "t": 182142.2500000003,
      "d": 2609.3663020833337,
      "v": 84
    },
    {
      "midi": 57,
      "hit": false,
      "t": 182142.2500000003,
      "d": 2622.759114583343,
      "v": 87
    },
    {
      "midi": 42,
      "hit": false,
      "t": 182142.2500000003,
      "d": 2629.4555208333477,
      "v": 95
    },
    {
      "midi": 61,
      "hit": false,
      "t": 182142.2500000003,
      "d": 2647.3126041666837,
      "v": 82
    },
    {
      "midi": 64,
      "hit": false,
      "t": 182142.2500000003,
      "d": 2647.3126041666837,
      "v": 82
    },
    {
      "midi": 54,
      "hit": false,
      "t": 182142.25000000032,
      "d": 2609.3663020833337,
      "v": 84
    },
    {
      "midi": 57,
      "hit": false,
      "t": 182142.25000000032,
      "d": 2622.759114583343,
      "v": 87
    },
    {
      "midi": 42,
      "hit": false,
      "t": 182142.25000000032,
      "d": 2629.4555208333477,
      "v": 95
    },
    {
      "midi": 61,
      "hit": false,
      "t": 182142.25000000032,
      "d": 2647.3126041666837,
      "v": 82
    },
    {
      "midi": 64,
      "hit": false,
      "t": 182142.25000000032,
      "d": 2647.3126041666837,
      "v": 82
    },
    {
      "midi": 71,
      "hit": false,
      "t": 185142.2400000003,
      "d": 658.4799479166686,
      "v": 75
    },
    {
      "midi": 66,
      "hit": false,
      "t": 185142.2400000003,
      "d": 1203.1209895833454,
      "v": 77
    },
    {
      "midi": 59,
      "hit": false,
      "t": 185142.2400000003,
      "d": 3194.1857812500093,
      "v": 84
    },
    {
      "midi": 63,
      "hit": false,
      "t": 185142.2400000003,
      "d": 3209.8107291666674,
      "v": 84
    },
    {
      "midi": 47,
      "hit": false,
      "t": 185142.2400000003,
      "d": 3330.346041666693,
      "v": 95
    },
    {
      "midi": 71,
      "hit": false,
      "t": 185142.24000000034,
      "d": 658.4799479166686,
      "v": 75
    },
    {
      "midi": 66,
      "hit": false,
      "t": 185142.24000000034,
      "d": 1203.1209895833454,
      "v": 77
    },
    {
      "midi": 59,
      "hit": false,
      "t": 185142.24000000034,
      "d": 3194.1857812500093,
      "v": 84
    },
    {
      "midi": 63,
      "hit": false,
      "t": 185142.24000000034,
      "d": 3209.8107291666674,
      "v": 84
    },
    {
      "midi": 47,
      "hit": false,
      "t": 185142.24000000034,
      "d": 3330.346041666693,
      "v": 95
    },
    {
      "midi": 73,
      "hit": false,
      "t": 185785.09500000032,
      "d": 924.1040625000023,
      "v": 84
    },
    {
      "midi": 73,
      "hit": false,
      "t": 185785.09500000035,
      "d": 924.1040625000023,
      "v": 84
    },
    {
      "midi": 66,
      "hit": false,
      "t": 186427.95000000033,
      "d": 1926.3328645833244,
      "v": 81
    },
    {
      "midi": 66,
      "hit": false,
      "t": 186427.95000000036,
      "d": 1926.3328645833244,
      "v": 81
    },
    {
      "midi": 38,
      "hit": false,
      "t": 188570.80000000034,
      "d": 455.3556249999965,
      "v": 87
    },
    {
      "midi": 57,
      "hit": false,
      "t": 188570.80000000034,
      "d": 2357.1350000000384,
      "v": 82
    },
    {
      "midi": 64,
      "hit": false,
      "t": 188570.80000000034,
      "d": 2357.1350000000384,
      "v": 79
    },
    {
      "midi": 61,
      "hit": false,
      "t": 188570.80000000034,
      "d": 2571.420000000042,
      "v": 87
    },
    {
      "midi": 66,
      "hit": false,
      "t": 188570.80000000034,
      "d": 2571.420000000042,
      "v": 82
    },
    {
      "midi": 38,
      "hit": false,
      "t": 188570.80000000037,
      "d": 455.3556249999965,
      "v": 87
    },
    {
      "midi": 57,
      "hit": false,
      "t": 188570.80000000037,
      "d": 2357.1350000000384,
      "v": 82
    },
    {
      "midi": 64,
      "hit": false,
      "t": 188570.80000000037,
      "d": 2357.1350000000384,
      "v": 79
    },
    {
      "midi": 61,
      "hit": false,
      "t": 188570.80000000037,
      "d": 2571.420000000042,
      "v": 87
    },
    {
      "midi": 66,
      "hit": false,
      "t": 188570.80000000037,
      "d": 2571.420000000042,
      "v": 82
    },
    {
      "midi": 45,
      "hit": false,
      "t": 189213.65500000035,
      "d": 1285.710000000021,
      "v": 73
    },
    {
      "midi": 45,
      "hit": false,
      "t": 189213.65500000038,
      "d": 1285.710000000021,
      "v": 73
    },
    {
      "midi": 54,
      "hit": false,
      "t": 189856.51000000036,
      "d": 1285.710000000021,
      "v": 84
    },
    {
      "midi": 54,
      "hit": false,
      "t": 189856.5100000004,
      "d": 1285.710000000021,
      "v": 84
    },
    {
      "midi": 59,
      "hit": false,
      "t": 191874.36041666704,
      "d": 3368.292343750043,
      "v": 63
    },
    {
      "midi": 59,
      "hit": false,
      "t": 191874.36041666707,
      "d": 3368.292343750043,
      "v": 63
    },
    {
      "midi": 63,
      "hit": false,
      "t": 191934.62807291705,
      "d": 3323.6496354166884,
      "v": 75
    },
    {
      "midi": 63,
      "hit": false,
      "t": 191934.62807291708,
      "d": 3323.6496354166884,
      "v": 75
    },
    {
      "midi": 66,
      "hit": false,
      "t": 191977.03864583373,
      "d": 3287.9354687500163,
      "v": 60
    },
    {
      "midi": 66,
      "hit": false,
      "t": 191977.03864583376,
      "d": 3287.9354687500163,
      "v": 60
    },
    {
      "midi": 35,
      "hit": false,
      "t": 192014.98494791705,
      "d": 3138.3823958333523,
      "v": 87
    },
    {
      "midi": 35,
      "hit": false,
      "t": 192014.98494791708,
      "d": 3138.3823958333523,
      "v": 87
    },
    {
      "midi": 47,
      "hit": false,
      "t": 192017.21708333373,
      "d": 3136.1502604166744,
      "v": 74
    },
    {
      "midi": 47,
      "hit": false,
      "t": 192017.21708333376,
      "d": 3136.1502604166744,
      "v": 74
    },
    {
      "midi": 72,
      "hit": false,
      "t": 192048.46697916707,
      "d": 607.1408333333384,
      "v": 81
    },
    {
      "midi": 72,
      "hit": false,
      "t": 192048.4669791671,
      "d": 607.1408333333384,
      "v": 81
    },
    {
      "midi": 71,
      "hit": false,
      "t": 192655.6078125004,
      "d": 1928.5650000000023,
      "v": 72
    },
    {
      "midi": 71,
      "hit": false,
      "t": 192655.60781250044,
      "d": 1928.5650000000023,
      "v": 72
    },
    {
      "midi": 69,
      "hit": false,
      "t": 194570.7800000004,
      "d": 455.3556249999965,
      "v": 95
    },
    {
      "midi": 69,
      "hit": false,
      "t": 194570.78000000044,
      "d": 455.3556249999965,
      "v": 95
    },
    {
      "midi": 67,
      "hit": false,
      "t": 194999.3500000004,
      "d": 372.7666145833209,
      "v": 87
    },
    {
      "midi": 67,
      "hit": false,
      "t": 194999.35000000044,
      "d": 372.7666145833209,
      "v": 87
    },
    {
      "midi": 40,
      "hit": false,
      "t": 195427.9200000004,
      "d": 3314.721093750035,
      "v": 107
    },
    {
      "midi": 59,
      "hit": false,
      "t": 195427.9200000004,
      "d": 3341.5067187500244,
      "v": 84
    },
    {
      "midi": 71,
      "hit": false,
      "t": 195427.9200000004,
      "d": 3343.7388541667024,
      "v": 79
    },
    {
      "midi": 67,
      "hit": false,
      "t": 195427.9200000004,
      "d": 3357.1316666667117,
      "v": 79
    },
    {
      "midi": 64,
      "hit": false,
      "t": 195427.9200000004,
      "d": 3359.3638020833896,
      "v": 95
    },
    {
      "midi": 66,
      "hit": false,
      "t": 195427.9200000004,
      "d": 3370.524479166721,
      "v": 87
    },
    {
      "midi": 40,
      "hit": false,
      "t": 195427.92000000042,
      "d": 3314.721093750035,
      "v": 107
    },
    {
      "midi": 59,
      "hit": false,
      "t": 195427.92000000042,
      "d": 3341.5067187500244,
      "v": 84
    },
    {
      "midi": 71,
      "hit": false,
      "t": 195427.92000000042,
      "d": 3343.7388541667024,
      "v": 79
    },
    {
      "midi": 67,
      "hit": false,
      "t": 195427.92000000042,
      "d": 3357.1316666667117,
      "v": 79
    },
    {
      "midi": 64,
      "hit": false,
      "t": 195427.92000000042,
      "d": 3359.3638020833896,
      "v": 95
    },
    {
      "midi": 66,
      "hit": false,
      "t": 195427.92000000042,
      "d": 3370.524479166721,
      "v": 87
    },
    {
      "midi": 78,
      "hit": false,
      "t": 197356.4850000004,
      "d": 1412.9417187500221,
      "v": 58
    },
    {
      "midi": 78,
      "hit": false,
      "t": 197356.48500000042,
      "d": 1412.9417187500221,
      "v": 58
    },
    {
      "midi": 79,
      "hit": false,
      "t": 197577.4664062504,
      "d": 1180.7996354166826,
      "v": 48
    },
    {
      "midi": 79,
      "hit": false,
      "t": 197577.46640625043,
      "d": 1180.7996354166826,
      "v": 48
    },
    {
      "midi": 86,
      "hit": false,
      "t": 197776.12645833375,
      "d": 982.1395833333372,
      "v": 67
    },
    {
      "midi": 86,
      "hit": false,
      "t": 197776.12645833378,
      "d": 982.1395833333372,
      "v": 67
    },
    {
      "midi": 59,
      "hit": false,
      "t": 198856.48000000045,
      "d": 450.89135416666977,
      "v": 71
    },
    {
      "midi": 69,
      "hit": false,
      "t": 198856.48000000045,
      "d": 455.3556249999965,
      "v": 68
    },
    {
      "midi": 62,
      "hit": false,
      "t": 198856.48000000045,
      "d": 479.9091145833372,
      "v": 79
    },
    {
      "midi": 45,
      "hit": false,
      "t": 198856.48000000045,
      "d": 866.0685416666965,
      "v": 84
    },
    {
      "midi": 59,
      "hit": false,
      "t": 198856.48000000048,
      "d": 450.89135416666977,
      "v": 71
    },
    {
      "midi": 69,
      "hit": false,
      "t": 198856.48000000048,
      "d": 455.3556249999965,
      "v": 68
    },
    {
      "midi": 62,
      "hit": false,
      "t": 198856.48000000048,
      "d": 479.9091145833372,
      "v": 79
    },
    {
      "midi": 45,
      "hit": false,
      "t": 198856.48000000048,
      "d": 866.0685416666965,
      "v": 84
    },
    {
      "midi": 59,
      "hit": false,
      "t": 199499.33500000046,
      "d": 93.74968750000698,
      "v": 79
    },
    {
      "midi": 62,
      "hit": false,
      "t": 199499.33500000046,
      "d": 95.9818229166849,
      "v": 76
    },
    {
      "midi": 71,
      "hit": false,
      "t": 199499.33500000046,
      "d": 129.46385416667908,
      "v": 82
    },
    {
      "midi": 59,
      "hit": false,
      "t": 199499.3350000005,
      "d": 93.74968750000698,
      "v": 79
    },
    {
      "midi": 62,
      "hit": false,
      "t": 199499.3350000005,
      "d": 95.9818229166849,
      "v": 76
    },
    {
      "midi": 71,
      "hit": false,
      "t": 199499.3350000005,
      "d": 129.46385416667908,
      "v": 82
    },
    {
      "midi": 57,
      "hit": false,
      "t": 200142.1900000005,
      "d": 1725.4406770833302,
      "v": 84
    },
    {
      "midi": 64,
      "hit": false,
      "t": 200142.1900000005,
      "d": 1772.3155208333337,
      "v": 73
    },
    {
      "midi": 59,
      "hit": false,
      "t": 200142.1900000005,
      "d": 1781.2440624999872,
      "v": 79
    },
    {
      "midi": 61,
      "hit": false,
      "t": 200142.1900000005,
      "d": 1794.6368749999965,
      "v": 76
    },
    {
      "midi": 45,
      "hit": false,
      "t": 200142.1900000005,
      "d": 1796.8690104166744,
      "v": 82
    },
    {
      "midi": 57,
      "hit": false,
      "t": 200142.19000000053,
      "d": 1725.4406770833302,
      "v": 84
    },
    {
      "midi": 64,
      "hit": false,
      "t": 200142.19000000053,
      "d": 1772.3155208333337,
      "v": 73
    },
    {
      "midi": 59,
      "hit": false,
      "t": 200142.19000000053,
      "d": 1781.2440624999872,
      "v": 79
    },
    {
      "midi": 61,
      "hit": false,
      "t": 200142.19000000053,
      "d": 1794.6368749999965,
      "v": 76
    },
    {
      "midi": 45,
      "hit": false,
      "t": 200142.19000000053,
      "d": 1796.8690104166744,
      "v": 82
    },
    {
      "midi": 69,
      "hit": false,
      "t": 201425.6678645838,
      "d": 453.1234895833477,
      "v": 107
    },
    {
      "midi": 69,
      "hit": false,
      "t": 201425.66786458384,
      "d": 453.1234895833477,
      "v": 107
    },
    {
      "midi": 71,
      "hit": false,
      "t": 201860.93427083382,
      "d": 395.0879687500128,
      "v": 91
    },
    {
      "midi": 71,
      "hit": false,
      "t": 201860.93427083385,
      "d": 395.0879687500128,
      "v": 91
    },
    {
      "midi": 73,
      "hit": false,
      "t": 202278.3435937505,
      "d": 446.42708333334303,
      "v": 66
    },
    {
      "midi": 73,
      "hit": false,
      "t": 202278.34359375053,
      "d": 446.42708333334303,
      "v": 66
    },
    {
      "midi": 62,
      "hit": false,
      "t": 202285.0400000005,
      "d": 3174.0965625000244,
      "v": 71
    },
    {
      "midi": 61,
      "hit": false,
      "t": 202285.0400000005,
      "d": 3180.792968750029,
      "v": 82
    },
    {
      "midi": 66,
      "hit": false,
      "t": 202285.0400000005,
      "d": 3216.507135416701,
      "v": 76
    },
    {
      "midi": 69,
      "hit": false,
      "t": 202285.0400000005,
      "d": 3218.739270833379,
      "v": 73
    },
    {
      "midi": 38,
      "hit": false,
      "t": 202285.0400000005,
      "d": 3247.7570312500466,
      "v": 84
    },
    {
      "midi": 62,
      "hit": false,
      "t": 202285.04000000053,
      "d": 3174.0965625000244,
      "v": 71
    },
    {
      "midi": 61,
      "hit": false,
      "t": 202285.04000000053,
      "d": 3180.792968750029,
      "v": 82
    },
    {
      "midi": 66,
      "hit": false,
      "t": 202285.04000000053,
      "d": 3216.507135416701,
      "v": 76
    },
    {
      "midi": 69,
      "hit": false,
      "t": 202285.04000000053,
      "d": 3218.739270833379,
      "v": 73
    },
    {
      "midi": 38,
      "hit": false,
      "t": 202285.04000000053,
      "d": 3247.7570312500466,
      "v": 84
    },
    {
      "midi": 76,
      "hit": false,
      "t": 202702.44932291718,
      "d": 218.74927083333023,
      "v": 63
    },
    {
      "midi": 76,
      "hit": false,
      "t": 202702.4493229172,
      "d": 218.74927083333023,
      "v": 63
    },
    {
      "midi": 73,
      "hit": false,
      "t": 202925.66286458384,
      "d": 1966.5113020833232,
      "v": 66
    },
    {
      "midi": 73,
      "hit": false,
      "t": 202925.66286458386,
      "d": 1966.5113020833232,
      "v": 66
    },
    {
      "midi": 54,
      "hit": false,
      "t": 203999.3200000005,
      "d": 1359.370468750014,
      "v": 43
    },
    {
      "midi": 54,
      "hit": false,
      "t": 203999.32000000053,
      "d": 1359.370468750014,
      "v": 43
    },
    {
      "midi": 59,
      "hit": false,
      "t": 205564.0469270839,
      "d": 3281.2390625000116,
      "v": 55
    },
    {
      "midi": 59,
      "hit": false,
      "t": 205564.04692708392,
      "d": 3281.2390625000116,
      "v": 55
    },
    {
      "midi": 63,
      "hit": false,
      "t": 205617.6181770839,
      "d": 3252.221302083315,
      "v": 64
    },
    {
      "midi": 63,
      "hit": false,
      "t": 205617.61817708393,
      "d": 3252.221302083315,
      "v": 64
    },
    {
      "midi": 66,
      "hit": false,
      "t": 205655.56447916722,
      "d": 3216.507135416672,
      "v": 52
    },
    {
      "midi": 66,
      "hit": false,
      "t": 205655.56447916725,
      "d": 3216.507135416672,
      "v": 52
    },
    {
      "midi": 47,
      "hit": false,
      "t": 205713.60000000056,
      "d": 3256.685572916671,
      "v": 91
    },
    {
      "midi": 47,
      "hit": false,
      "t": 205713.6000000006,
      "d": 3256.685572916671,
      "v": 91
    },
    {
      "midi": 72,
      "hit": false,
      "t": 205733.68921875057,
      "d": 468.7484375000058,
      "v": 73
    },
    {
      "midi": 72,
      "hit": false,
      "t": 205733.6892187506,
      "d": 468.7484375000058,
      "v": 73
    },
    {
      "midi": 71,
      "hit": false,
      "t": 206302.8837500006,
      "d": 2551.3307812499697,
      "v": 82
    },
    {
      "midi": 71,
      "hit": false,
      "t": 206302.88375000062,
      "d": 2551.3307812499697,
      "v": 82
    },
    {
      "midi": 52,
      "hit": false,
      "t": 209142.16000000056,
      "d": 3305.7925520833232,
      "v": 66
    },
    {
      "midi": 59,
      "hit": false,
      "t": 209142.16000000056,
      "d": 3316.9532291666546,
      "v": 76
    },
    {
      "midi": 71,
      "hit": false,
      "t": 209142.16000000056,
      "d": 3319.1853645833326,
      "v": 67
    },
    {
      "midi": 67,
      "hit": false,
      "t": 209142.16000000056,
      "d": 3328.113906249986,
      "v": 68
    },
    {
      "midi": 64,
      "hit": false,
      "t": 209142.16000000056,
      "d": 3332.5781770833128,
      "v": 76
    },
    {
      "midi": 40,
      "hit": false,
      "t": 209142.16000000056,
      "d": 3337.0424479166395,
      "v": 69
    },
    {
      "midi": 66,
      "hit": false,
      "t": 209142.16000000056,
      "d": 3350.435260416649,
      "v": 73
    },
    {
      "midi": 52,
      "hit": false,
      "t": 209142.1600000006,
      "d": 3305.7925520833232,
      "v": 66
    },
    {
      "midi": 59,
      "hit": false,
      "t": 209142.1600000006,
      "d": 3316.9532291666546,
      "v": 76
    },
    {
      "midi": 71,
      "hit": false,
      "t": 209142.1600000006,
      "d": 3319.1853645833326,
      "v": 67
    },
    {
      "midi": 67,
      "hit": false,
      "t": 209142.1600000006,
      "d": 3328.113906249986,
      "v": 68
    },
    {
      "midi": 64,
      "hit": false,
      "t": 209142.1600000006,
      "d": 3332.5781770833128,
      "v": 76
    },
    {
      "midi": 40,
      "hit": false,
      "t": 209142.1600000006,
      "d": 3337.0424479166395,
      "v": 69
    },
    {
      "midi": 66,
      "hit": false,
      "t": 209142.1600000006,
      "d": 3350.435260416649,
      "v": 73
    },
    {
      "midi": 59,
      "hit": false,
      "t": 212570.72000000053,
      "d": 450.89135416666977,
      "v": 71
    },
    {
      "midi": 69,
      "hit": false,
      "t": 212570.72000000053,
      "d": 455.3556249999965,
      "v": 68
    },
    {
      "midi": 62,
      "hit": false,
      "t": 212570.72000000053,
      "d": 479.9091145833372,
      "v": 79
    },
    {
      "midi": 45,
      "hit": false,
      "t": 212570.72000000053,
      "d": 866.0685416666965,
      "v": 84
    },
    {
      "midi": 59,
      "hit": false,
      "t": 212570.72000000055,
      "d": 450.89135416666977,
      "v": 71
    },
    {
      "midi": 69,
      "hit": false,
      "t": 212570.72000000055,
      "d": 455.3556249999965,
      "v": 68
    },
    {
      "midi": 62,
      "hit": false,
      "t": 212570.72000000055,
      "d": 479.9091145833372,
      "v": 79
    },
    {
      "midi": 45,
      "hit": false,
      "t": 212570.72000000055,
      "d": 866.0685416666965,
      "v": 84
    },
    {
      "midi": 59,
      "hit": false,
      "t": 213213.57500000054,
      "d": 93.74968750000698,
      "v": 79
    },
    {
      "midi": 62,
      "hit": false,
      "t": 213213.57500000054,
      "d": 95.9818229166849,
      "v": 76
    },
    {
      "midi": 71,
      "hit": false,
      "t": 213213.57500000054,
      "d": 129.46385416667908,
      "v": 82
    },
    {
      "midi": 59,
      "hit": false,
      "t": 213213.57500000056,
      "d": 93.74968750000698,
      "v": 79
    },
    {
      "midi": 62,
      "hit": false,
      "t": 213213.57500000056,
      "d": 95.9818229166849,
      "v": 76
    },
    {
      "midi": 71,
      "hit": false,
      "t": 213213.57500000056,
      "d": 129.46385416667908,
      "v": 82
    },
    {
      "midi": 57,
      "hit": false,
      "t": 213856.43000000055,
      "d": 1725.4406770833302,
      "v": 84
    },
    {
      "midi": 64,
      "hit": false,
      "t": 213856.43000000055,
      "d": 1772.3155208333337,
      "v": 73
    },
    {
      "midi": 59,
      "hit": false,
      "t": 213856.43000000055,
      "d": 1781.2440624999872,
      "v": 79
    },
    {
      "midi": 61,
      "hit": false,
      "t": 213856.43000000055,
      "d": 1794.6368749999965,
      "v": 76
    },
    {
      "midi": 45,
      "hit": false,
      "t": 213856.43000000055,
      "d": 1796.8690104166744,
      "v": 82
    },
    {
      "midi": 57,
      "hit": false,
      "t": 213856.43000000058,
      "d": 1725.4406770833302,
      "v": 84
    },
    {
      "midi": 64,
      "hit": false,
      "t": 213856.43000000058,
      "d": 1772.3155208333337,
      "v": 73
    },
    {
      "midi": 59,
      "hit": false,
      "t": 213856.43000000058,
      "d": 1781.2440624999872,
      "v": 79
    },
    {
      "midi": 61,
      "hit": false,
      "t": 213856.43000000058,
      "d": 1794.6368749999965,
      "v": 76
    },
    {
      "midi": 45,
      "hit": false,
      "t": 213856.43000000058,
      "d": 1796.8690104166744,
      "v": 82
    },
    {
      "midi": 54,
      "hit": false,
      "t": 215999.28000000055,
      "d": 102.67822916666046,
      "v": 95
    },
    {
      "midi": 57,
      "hit": false,
      "t": 215999.28000000055,
      "d": 102.67822916666046,
      "v": 95
    },
    {
      "midi": 42,
      "hit": false,
      "t": 215999.28000000055,
      "d": 111.60677083331393,
      "v": 95
    },
    {
      "midi": 61,
      "hit": false,
      "t": 215999.28000000055,
      "d": 131.6959895833279,
      "v": 95
    },
    {
      "midi": 64,
      "hit": false,
      "t": 215999.28000000055,
      "d": 131.6959895833279,
      "v": 95
    },
    {
      "midi": 54,
      "hit": false,
      "t": 215999.28000000058,
      "d": 102.67822916666046,
      "v": 95
    },
    {
      "midi": 57,
      "hit": false,
      "t": 215999.28000000058,
      "d": 102.67822916666046,
      "v": 95
    },
    {
      "midi": 42,
      "hit": false,
      "t": 215999.28000000058,
      "d": 111.60677083331393,
      "v": 95
    },
    {
      "midi": 61,
      "hit": false,
      "t": 215999.28000000058,
      "d": 131.6959895833279,
      "v": 95
    },
    {
      "midi": 64,
      "hit": false,
      "t": 215999.28000000058,
      "d": 131.6959895833279,
      "v": 95
    },
    {
      "midi": 54,
      "hit": false,
      "t": 216427.85000000056,
      "d": 2609.3663020833337,
      "v": 84
    },
    {
      "midi": 57,
      "hit": false,
      "t": 216427.85000000056,
      "d": 2622.759114583343,
      "v": 87
    },
    {
      "midi": 42,
      "hit": false,
      "t": 216427.85000000056,
      "d": 2629.4555208333477,
      "v": 95
    },
    {
      "midi": 61,
      "hit": false,
      "t": 216427.85000000056,
      "d": 2647.3126041666837,
      "v": 82
    },
    {
      "midi": 64,
      "hit": false,
      "t": 216427.85000000056,
      "d": 2647.3126041666837,
      "v": 82
    },
    {
      "midi": 54,
      "hit": false,
      "t": 216427.8500000006,
      "d": 2609.3663020833337,
      "v": 84
    },
    {
      "midi": 57,
      "hit": false,
      "t": 216427.8500000006,
      "d": 2622.759114583343,
      "v": 87
    },
    {
      "midi": 42,
      "hit": false,
      "t": 216427.8500000006,
      "d": 2629.4555208333477,
      "v": 95
    },
    {
      "midi": 61,
      "hit": false,
      "t": 216427.8500000006,
      "d": 2647.3126041666837,
      "v": 82
    },
    {
      "midi": 64,
      "hit": false,
      "t": 216427.8500000006,
      "d": 2647.3126041666837,
      "v": 82
    },
    {
      "midi": 71,
      "hit": false,
      "t": 219427.84000000058,
      "d": 658.4799479166686,
      "v": 75
    },
    {
      "midi": 66,
      "hit": false,
      "t": 219427.84000000058,
      "d": 1203.1209895833454,
      "v": 77
    },
    {
      "midi": 59,
      "hit": false,
      "t": 219427.84000000058,
      "d": 3194.1857812500093,
      "v": 84
    },
    {
      "midi": 63,
      "hit": false,
      "t": 219427.84000000058,
      "d": 3209.8107291666674,
      "v": 84
    },
    {
      "midi": 47,
      "hit": false,
      "t": 219427.84000000058,
      "d": 3330.346041666693,
      "v": 95
    },
    {
      "midi": 71,
      "hit": false,
      "t": 219427.8400000006,
      "d": 658.4799479166686,
      "v": 75
    },
    {
      "midi": 66,
      "hit": false,
      "t": 219427.8400000006,
      "d": 1203.1209895833454,
      "v": 77
    },
    {
      "midi": 59,
      "hit": false,
      "t": 219427.8400000006,
      "d": 3194.1857812500093,
      "v": 84
    },
    {
      "midi": 63,
      "hit": false,
      "t": 219427.8400000006,
      "d": 3209.8107291666674,
      "v": 84
    },
    {
      "midi": 47,
      "hit": false,
      "t": 219427.8400000006,
      "d": 3330.346041666693,
      "v": 95
    },
    {
      "midi": 73,
      "hit": false,
      "t": 220070.6950000006,
      "d": 924.1040625000023,
      "v": 84
    },
    {
      "midi": 73,
      "hit": false,
      "t": 220070.69500000062,
      "d": 924.1040625000023,
      "v": 84
    },
    {
      "midi": 66,
      "hit": false,
      "t": 220713.5500000006,
      "d": 1926.3328645833244,
      "v": 81
    },
    {
      "midi": 66,
      "hit": false,
      "t": 220713.55000000063,
      "d": 1926.3328645833244,
      "v": 81
    },
    {
      "midi": 54,
      "hit": false,
      "t": 222856.4000000006,
      "d": 102.67822916666046,
      "v": 98
    },
    {
      "midi": 57,
      "hit": false,
      "t": 222856.4000000006,
      "d": 102.67822916666046,
      "v": 98
    },
    {
      "midi": 42,
      "hit": false,
      "t": 222856.4000000006,
      "d": 111.60677083331393,
      "v": 98
    },
    {
      "midi": 61,
      "hit": false,
      "t": 222856.4000000006,
      "d": 131.6959895833279,
      "v": 98
    },
    {
      "midi": 64,
      "hit": false,
      "t": 222856.4000000006,
      "d": 131.6959895833279,
      "v": 98
    },
    {
      "midi": 54,
      "hit": false,
      "t": 222856.40000000063,
      "d": 102.67822916666046,
      "v": 98
    },
    {
      "midi": 57,
      "hit": false,
      "t": 222856.40000000063,
      "d": 102.67822916666046,
      "v": 98
    },
    {
      "midi": 42,
      "hit": false,
      "t": 222856.40000000063,
      "d": 111.60677083331393,
      "v": 98
    },
    {
      "midi": 61,
      "hit": false,
      "t": 222856.40000000063,
      "d": 131.6959895833279,
      "v": 98
    },
    {
      "midi": 64,
      "hit": false,
      "t": 222856.40000000063,
      "d": 131.6959895833279,
      "v": 98
    },
    {
      "midi": 54,
      "hit": false,
      "t": 223284.9700000006,
      "d": 2609.3663020833337,
      "v": 84
    },
    {
      "midi": 57,
      "hit": false,
      "t": 223284.9700000006,
      "d": 2622.759114583343,
      "v": 87
    },
    {
      "midi": 42,
      "hit": false,
      "t": 223284.9700000006,
      "d": 2629.4555208333477,
      "v": 95
    },
    {
      "midi": 61,
      "hit": false,
      "t": 223284.9700000006,
      "d": 2647.3126041666837,
      "v": 82
    },
    {
      "midi": 64,
      "hit": false,
      "t": 223284.9700000006,
      "d": 2647.3126041666837,
      "v": 82
    },
    {
      "midi": 54,
      "hit": false,
      "t": 223284.97000000064,
      "d": 2609.3663020833337,
      "v": 84
    },
    {
      "midi": 57,
      "hit": false,
      "t": 223284.97000000064,
      "d": 2622.759114583343,
      "v": 87
    },
    {
      "midi": 42,
      "hit": false,
      "t": 223284.97000000064,
      "d": 2629.4555208333477,
      "v": 95
    },
    {
      "midi": 61,
      "hit": false,
      "t": 223284.97000000064,
      "d": 2647.3126041666837,
      "v": 82
    },
    {
      "midi": 64,
      "hit": false,
      "t": 223284.97000000064,
      "d": 2647.3126041666837,
      "v": 82
    },
    {
      "midi": 71,
      "hit": false,
      "t": 226284.96000000063,
      "d": 658.4799479166686,
      "v": 75
    },
    {
      "midi": 66,
      "hit": false,
      "t": 226284.96000000063,
      "d": 1203.1209895833454,
      "v": 77
    },
    {
      "midi": 59,
      "hit": false,
      "t": 226284.96000000063,
      "d": 3194.1857812500093,
      "v": 84
    },
    {
      "midi": 63,
      "hit": false,
      "t": 226284.96000000063,
      "d": 3209.8107291666674,
      "v": 84
    },
    {
      "midi": 47,
      "hit": false,
      "t": 226284.96000000063,
      "d": 3330.346041666693,
      "v": 95
    },
    {
      "midi": 71,
      "hit": false,
      "t": 226284.96000000066,
      "d": 658.4799479166686,
      "v": 75
    },
    {
      "midi": 66,
      "hit": false,
      "t": 226284.96000000066,
      "d": 1203.1209895833454,
      "v": 77
    },
    {
      "midi": 59,
      "hit": false,
      "t": 226284.96000000066,
      "d": 3194.1857812500093,
      "v": 84
    },
    {
      "midi": 63,
      "hit": false,
      "t": 226284.96000000066,
      "d": 3209.8107291666674,
      "v": 84
    },
    {
      "midi": 47,
      "hit": false,
      "t": 226284.96000000066,
      "d": 3330.346041666693,
      "v": 95
    },
    {
      "midi": 73,
      "hit": false,
      "t": 226927.81500000064,
      "d": 924.1040625000023,
      "v": 84
    },
    {
      "midi": 73,
      "hit": false,
      "t": 226927.81500000067,
      "d": 924.1040625000023,
      "v": 84
    },
    {
      "midi": 66,
      "hit": false,
      "t": 227570.67000000065,
      "d": 1926.3328645833244,
      "v": 81
    },
    {
      "midi": 66,
      "hit": false,
      "t": 227570.67000000068,
      "d": 1926.3328645833244,
      "v": 81
    },
    {
      "midi": 75,
      "hit": false,
      "t": 229713.52000000066,
      "d": 341.51671875000466,
      "v": 94
    },
    {
      "midi": 75,
      "hit": false,
      "t": 229713.5200000007,
      "d": 254.46343750000233,
      "v": 91
    },
    {
      "midi": 76,
      "hit": false,
      "t": 229925.57286458398,
      "d": 453.1234895833768,
      "v": 70
    },
    {
      "midi": 76,
      "hit": false,
      "t": 229927.8050000007,
      "d": 180.8029687500093,
      "v": 73
    },
    {
      "midi": 83,
      "hit": false,
      "t": 230142.0900000007,
      "d": 171.87442708332674,
      "v": 87
    },
    {
      "midi": 83,
      "hit": false,
      "t": 230148.78640625067,
      "d": 223.21354166668607,
      "v": 74
    },
    {
      "midi": 75,
      "hit": false,
      "t": 230351.91072916734,
      "d": 2361.5992708333943,
      "v": 86
    },
    {
      "midi": 75,
      "hit": false,
      "t": 230356.3750000007,
      "d": 243.30276041667094,
      "v": 82
    },
    {
      "midi": 76,
      "hit": false,
      "t": 230570.6600000007,
      "d": 200.89218749999418,
      "v": 79
    },
    {
      "midi": 76,
      "hit": false,
      "t": 230575.12427083403,
      "d": 2104.903697916714,
      "v": 71
    },
    {
      "midi": 83,
      "hit": false,
      "t": 230784.9450000007,
      "d": 218.74927083333023,
      "v": 84
    },
    {
      "midi": 83,
      "hit": false,
      "t": 230796.10567708404,
      "d": 1881.690156250028,
      "v": 74
    },
    {
      "midi": 75,
      "hit": false,
      "t": 230999.2300000007,
      "d": 227.6778125000128,
      "v": 79
    },
    {
      "midi": 59,
      "hit": false,
      "t": 231213.5150000007,
      "d": 323.6596354166686,
      "v": 89
    },
    {
      "midi": 69,
      "hit": false,
      "t": 231213.5150000007,
      "d": 330.35604166667326,
      "v": 78
    },
    {
      "midi": 64,
      "hit": false,
      "t": 231213.5150000007,
      "d": 337.0524479166779,
      "v": 86
    },
    {
      "midi": 61,
      "hit": false,
      "t": 231213.5150000007,
      "d": 352.67739583333605,
      "v": 89
    },
    {
      "midi": 76,
      "hit": false,
      "t": 231213.5150000007,
      "d": 205.35645833335002,
      "v": 57
    },
    {
      "midi": 83,
      "hit": false,
      "t": 231427.80000000072,
      "d": 205.35645833332092,
      "v": 66
    },
    {
      "midi": 75,
      "hit": false,
      "t": 231642.0850000007,
      "d": 229.90994791666162,
      "v": 64
    },
    {
      "midi": 59,
      "hit": false,
      "t": 231642.08500000072,
      "d": 75.89260416667094,
      "v": 74
    },
    {
      "midi": 61,
      "hit": false,
      "t": 231642.08500000072,
      "d": 78.12473958334886,
      "v": 77
    },
    {
      "midi": 64,
      "hit": false,
      "t": 231642.08500000072,
      "d": 87.05328125000233,
      "v": 79
    },
    {
      "midi": 69,
      "hit": false,
      "t": 231642.08500000072,
      "d": 102.67822916666046,
      "v": 77
    },
    {
      "midi": 76,
      "hit": false,
      "t": 231856.3700000007,
      "d": 189.7315104166628,
      "v": 55
    },
    {
      "midi": 59,
      "hit": false,
      "t": 231856.37000000072,
      "d": 1212.049531250028,
      "v": 83
    },
    {
      "midi": 64,
      "hit": false,
      "t": 231856.37000000072,
      "d": 1229.906614583364,
      "v": 83
    },
    {
      "midi": 61,
      "hit": false,
      "t": 231856.37000000072,
      "d": 1234.3708854166907,
      "v": 89
    },
    {
      "midi": 69,
      "hit": false,
      "t": 231856.37000000072,
      "d": 1258.9243750000314,
      "v": 79
    },
    {
      "midi": 83,
      "hit": false,
      "t": 232070.6550000007,
      "d": 218.74927083333023,
      "v": 68
    },
    {
      "midi": 75,
      "hit": false,
      "t": 232284.9400000007,
      "d": 234.37421875001746,
      "v": 45
    },
    {
      "midi": 76,
      "hit": false,
      "t": 232499.2250000007,
      "d": 220.98140625000815,
      "v": 48
    },
    {
      "midi": 83,
      "hit": false,
      "t": 232713.5100000007,
      "d": 189.7315104166628,
      "v": 55
    },
    {
      "midi": 76,
      "hit": false,
      "t": 232927.7950000007,
      "d": 91.51755208332906,
      "v": 50
    },
    {
      "midi": 75,
      "hit": false,
      "t": 233142.08000000071,
      "d": 220.98140625000815,
      "v": 95
    },
    {
      "midi": 75,
      "hit": false,
      "t": 233142.08000000074,
      "d": 341.51671875000466,
      "v": 94
    },
    {
      "midi": 76,
      "hit": false,
      "t": 233354.13286458407,
      "d": 453.1234895833768,
      "v": 70
    },
    {
      "midi": 76,
      "hit": false,
      "t": 233356.36500000072,
      "d": 169.64229166667792,
      "v": 79
    },
    {
      "midi": 83,
      "hit": false,
      "t": 233570.65000000072,
      "d": 171.87442708332674,
      "v": 87
    },
    {
      "midi": 83,
      "hit": false,
      "t": 233577.34640625076,
      "d": 223.21354166668607,
      "v": 74
    },
    {
      "midi": 75,
      "hit": false,
      "t": 233780.47072916743,
      "d": 2361.599270833365,
      "v": 86
    },
    {
      "midi": 75,
      "hit": false,
      "t": 233784.93500000073,
      "d": 176.33869791665347,
      "v": 84
    },
    {
      "midi": 76,
      "hit": false,
      "t": 233999.2200000007,
      "d": 167.41015625,
      "v": 76
    },
    {
      "midi": 76,
      "hit": false,
      "t": 234003.6842708341,
      "d": 2104.903697916685,
      "v": 71
    },
    {
      "midi": 83,
      "hit": false,
      "t": 234213.5050000007,
      "d": 174.10656250000466,
      "v": 84
    },
    {
      "midi": 83,
      "hit": false,
      "t": 234224.66567708412,
      "d": 1881.6901562499988,
      "v": 74
    },
    {
      "midi": 75,
      "hit": false,
      "t": 234427.7900000007,
      "d": 191.9636458333407,
      "v": 84
    },
    {
      "midi": 76,
      "hit": false,
      "t": 234642.0750000007,
      "d": 191.9636458333407,
      "v": 64
    },
    {
      "midi": 59,
      "hit": false,
      "t": 234642.0750000008,
      "d": 328.12390624999534,
      "v": 89
    },
    {
      "midi": 63,
      "hit": false,
      "t": 234642.0750000008,
      "d": 345.9809895833314,
      "v": 94
    },
    {
      "midi": 66,
      "hit": false,
      "t": 234642.0750000008,
      "d": 345.9809895833314,
      "v": 89
    },
    {
      "midi": 83,
      "hit": false,
      "t": 234856.3600000007,
      "d": 220.98140625000815,
      "v": 67
    },
    {
      "midi": 75,
      "hit": false,
      "t": 235070.64500000072,
      "d": 220.98140625000815,
      "v": 47
    },
    {
      "midi": 63,
      "hit": false,
      "t": 235070.6450000008,
      "d": 66.96406249998836,
      "v": 68
    },
    {
      "midi": 66,
      "hit": false,
      "t": 235070.6450000008,
      "d": 73.66046874999302,
      "v": 60
    },
    {
      "midi": 59,
      "hit": false,
      "t": 235070.6450000008,
      "d": 82.58901041664649,
      "v": 58
    },
    {
      "midi": 76,
      "hit": false,
      "t": 235284.93000000072,
      "d": 162.94588541667326,
      "v": 40
    },
    {
      "midi": 63,
      "hit": false,
      "t": 235284.93000000078,
      "d": 1203.1209895833454,
      "v": 83
    },
    {
      "midi": 59,
      "hit": false,
      "t": 235284.93000000078,
      "d": 1243.2994270833442,
      "v": 77
    },
    {
      "midi": 66,
      "hit": false,
      "t": 235284.93000000078,
      "d": 1258.9243750000023,
      "v": 81
    },
    {
      "midi": 83,
      "hit": false,
      "t": 235499.21500000072,
      "d": 214.2850000000035,
      "v": 60
    },
    {
      "midi": 75,
      "hit": false,
      "t": 235713.50000000073,
      "d": 209.82072916667676,
      "v": 57
    },
    {
      "midi": 76,
      "hit": false,
      "t": 235927.78500000073,
      "d": 189.7315104166628,
      "v": 48
    },
    {
      "midi": 83,
      "hit": false,
      "t": 236142.07000000073,
      "d": 236.60635416666628,
      "v": 58
    },
    {
      "midi": 75,
      "hit": false,
      "t": 236570.64000000074,
      "d": 212.05286458332557,
      "v": 91
    },
    {
      "midi": 75,
      "hit": false,
      "t": 236570.64000000077,
      "d": 341.51671875000466,
      "v": 94
    },
    {
      "midi": 76,
      "hit": false,
      "t": 236782.6928645841,
      "d": 453.1234895833768,
      "v": 70
    },
    {
      "midi": 76,
      "hit": false,
      "t": 236784.92500000075,
      "d": 171.87442708332674,
      "v": 82
    },
    {
      "midi": 83,
      "hit": false,
      "t": 236999.21000000075,
      "d": 212.05286458332557,
      "v": 84
    },
    {
      "midi": 83,
      "hit": false,
      "t": 237005.90640625078,
      "d": 223.21354166668607,
      "v": 74
    },
    {
      "midi": 75,
      "hit": false,
      "t": 237209.03072916745,
      "d": 2361.5992708333943,
      "v": 86
    },
    {
      "midi": 75,
      "hit": false,
      "t": 237213.49500000075,
      "d": 189.7315104166628,
      "v": 82
    },
    {
      "midi": 76,
      "hit": false,
      "t": 237427.78000000076,
      "d": 169.64229166667792,
      "v": 79
    },
    {
      "midi": 76,
      "hit": false,
      "t": 237432.24427083414,
      "d": 2104.903697916714,
      "v": 71
    },
    {
      "midi": 83,
      "hit": false,
      "t": 237642.06500000076,
      "d": 171.87442708332674,
      "v": 84
    },
    {
      "midi": 83,
      "hit": false,
      "t": 237653.22567708415,
      "d": 1881.690156250028,
      "v": 74
    },
    {
      "midi": 75,
      "hit": false,
      "t": 237856.35000000076,
      "d": 203.1243229166721,
      "v": 67
    },
    {
      "midi": 76,
      "hit": false,
      "t": 238070.63500000077,
      "d": 176.33869791665347,
      "v": 64
    },
    {
      "midi": 69,
      "hit": false,
      "t": 238070.63500000082,
      "d": 316.96322916666395,
      "v": 74
    },
    {
      "midi": 59,
      "hit": false,
      "t": 238070.63500000082,
      "d": 323.6596354166686,
      "v": 78
    },
    {
      "midi": 64,
      "hit": false,
      "t": 238070.63500000082,
      "d": 328.12390624999534,
      "v": 81
    },
    {
      "midi": 61,
      "hit": false,
      "t": 238070.63500000082,
      "d": 330.35604166667326,
      "v": 83
    },
    {
      "midi": 83,
      "hit": false,
      "t": 238284.92000000074,
      "d": 178.5708333333314,
      "v": 82
    },
    {
      "midi": 75,
      "hit": false,
      "t": 238499.20500000074,
      "d": 207.58859374999884,
      "v": 52
    },
    {
      "midi": 59,
      "hit": false,
      "t": 238499.20500000083,
      "d": 80.35687499999767,
      "v": 76
    },
    {
      "midi": 61,
      "hit": false,
      "t": 238499.20500000083,
      "d": 80.35687499999767,
      "v": 78
    },
    {
      "midi": 64,
      "hit": false,
      "t": 238499.20500000083,
      "d": 87.05328125000233,
      "v": 76
    },
    {
      "midi": 69,
      "hit": false,
      "t": 238499.20500000083,
      "d": 102.67822916666046,
      "v": 73
    },
    {
      "midi": 76,
      "hit": false,
      "t": 238713.49000000075,
      "d": 191.9636458333407,
      "v": 62
    },
    {
      "midi": 59,
      "hit": false,
      "t": 238713.49000000083,
      "d": 1227.674479166686,
      "v": 89
    },
    {
      "midi": 69,
      "hit": false,
      "t": 238713.49000000083,
      "d": 1236.6030208333395,
      "v": 79
    },
    {
      "midi": 61,
      "hit": false,
      "t": 238713.49000000083,
      "d": 1243.2994270833442,
      "v": 89
    },
    {
      "midi": 64,
      "hit": false,
      "t": 238713.49000000083,
      "d": 1254.4601041666756,
      "v": 89
    },
    {
      "midi": 83,
      "hit": false,
      "t": 238927.77500000075,
      "d": 205.35645833332092,
      "v": 64
    },
    {
      "midi": 75,
      "hit": false,
      "t": 239142.06000000073,
      "d": 209.82072916667676,
      "v": 40
    },
    {
      "midi": 76,
      "hit": false,
      "t": 239356.34500000073,
      "d": 214.2850000000035,
      "v": 52
    },
    {
      "midi": 83,
      "hit": false,
      "t": 239570.63000000073,
      "d": 196.42791666666744,
      "v": 45
    },
    {
      "midi": 76,
      "hit": false,
      "t": 239784.91500000074,
      "d": 82.58901041667559,
      "v": 53
    },
    {
      "midi": 75,
      "hit": false,
      "t": 239999.20000000074,
      "d": 218.74927083333023,
      "v": 87
    },
    {
      "midi": 75,
      "hit": false,
      "t": 239999.20000000086,
      "d": 341.51671875000466,
      "v": 94
    },
    {
      "midi": 76,
      "hit": false,
      "t": 240211.25286458418,
      "d": 453.1234895833768,
      "v": 70
    },
    {
      "midi": 76,
      "hit": false,
      "t": 240213.48500000074,
      "d": 160.71374999999534,
      "v": 68
    },
    {
      "midi": 83,
      "hit": false,
      "t": 240427.77000000075,
      "d": 227.6778125000128,
      "v": 79
    },
    {
      "midi": 83,
      "hit": false,
      "t": 240434.46640625087,
      "d": 223.21354166668607,
      "v": 74
    },
    {
      "midi": 75,
      "hit": false,
      "t": 240637.59072916754,
      "d": 2361.5992708334234,
      "v": 86
    },
    {
      "midi": 75,
      "hit": false,
      "t": 240642.05500000075,
      "d": 207.58859374999884,
      "v": 68
    },
    {
      "midi": 76,
      "hit": false,
      "t": 240856.34000000075,
      "d": 194.19578124998952,
      "v": 79
    },
    {
      "midi": 76,
      "hit": false,
      "t": 240860.80427083423,
      "d": 2104.903697916743,
      "v": 71
    },
    {
      "midi": 83,
      "hit": false,
      "t": 241070.62500000076,
      "d": 205.35645833332092,
      "v": 87
    },
    {
      "midi": 83,
      "hit": false,
      "t": 241081.78567708423,
      "d": 1881.690156250057,
      "v": 74
    },
    {
      "midi": 75,
      "hit": false,
      "t": 241284.91000000073,
      "d": 214.2850000000035,
      "v": 69
    },
    {
      "midi": 76,
      "hit": false,
      "t": 241499.19500000073,
      "d": 198.66005208334536,
      "v": 63
    },
    {
      "midi": 59,
      "hit": false,
      "t": 241499.1950000009,
      "d": 323.6596354166686,
      "v": 86
    },
    {
      "midi": 63,
      "hit": false,
      "t": 241499.1950000009,
      "d": 334.8203125,
      "v": 94
    },
    {
      "midi": 66,
      "hit": false,
      "t": 241499.1950000009,
      "d": 334.8203125,
      "v": 86
    },
    {
      "midi": 83,
      "hit": false,
      "t": 241713.48000000074,
      "d": 212.05286458332557,
      "v": 66
    },
    {
      "midi": 75,
      "hit": false,
      "t": 241927.76500000074,
      "d": 238.8384895833442,
      "v": 53
    },
    {
      "midi": 63,
      "hit": false,
      "t": 241927.76500000092,
      "d": 64.73192708333954,
      "v": 67
    },
    {
      "midi": 59,
      "hit": false,
      "t": 241927.76500000092,
      "d": 66.96406250001746,
      "v": 65
    },
    {
      "midi": 66,
      "hit": false,
      "t": 241927.76500000092,
      "d": 73.66046875002212,
      "v": 68
    },
    {
      "midi": 76,
      "hit": false,
      "t": 242142.05000000075,
      "d": 214.2850000000035,
      "v": 52
    },
    {
      "midi": 63,
      "hit": false,
      "t": 242142.05000000095,
      "d": 1102.6748958333337,
      "v": 86
    },
    {
      "midi": 66,
      "hit": false,
      "t": 242142.05000000095,
      "d": 1160.7104166666686,
      "v": 78
    },
    {
      "midi": 83,
      "hit": false,
      "t": 242356.33500000075,
      "d": 220.98140625000815,
      "v": 62
    },
    {
      "midi": 75,
      "hit": false,
      "t": 242570.62000000075,
      "d": 236.60635416666628,
      "v": 37
    },
    {
      "midi": 76,
      "hit": false,
      "t": 242784.90500000076,
      "d": 194.19578124998952,
      "v": 36
    },
    {
      "midi": 83,
      "hit": false,
      "t": 242999.19000000076,
      "d": 191.9636458333407,
      "v": 48
    },
    {
      "midi": 75,
      "hit": false,
      "t": 243427.76000000077,
      "d": 227.6778125000128,
      "v": 87
    },
    {
      "midi": 75,
      "hit": false,
      "t": 243427.76000000094,
      "d": 341.51671875000466,
      "v": 94
    },
    {
      "midi": 76,
      "hit": false,
      "t": 243639.81286458427,
      "d": 453.1234895833768,
      "v": 70
    },
    {
      "midi": 76,
      "hit": false,
      "t": 243642.04500000077,
      "d": 169.64229166667792,
      "v": 73
    },
    {
      "midi": 83,
      "hit": false,
      "t": 243856.33000000077,
      "d": 174.10656250000466,
      "v": 87
    },
    {
      "midi": 83,
      "hit": false,
      "t": 243863.02640625095,
      "d": 223.21354166668607,
      "v": 74
    },
    {
      "midi": 75,
      "hit": false,
      "t": 244066.15072916762,
      "d": 2361.5992708333943,
      "v": 86
    },
    {
      "midi": 75,
      "hit": false,
      "t": 244070.61500000078,
      "d": 196.42791666666744,
      "v": 79
    },
    {
      "midi": 76,
      "hit": false,
      "t": 244284.90000000078,
      "d": 189.7315104166628,
      "v": 79
    },
    {
      "midi": 76,
      "hit": false,
      "t": 244289.3642708343,
      "d": 2104.903697916714,
      "v": 71
    },
    {
      "midi": 83,
      "hit": false,
      "t": 244499.18500000078,
      "d": 220.98140625000815,
      "v": 79
    },
    {
      "midi": 83,
      "hit": false,
      "t": 244510.34567708432,
      "d": 1881.690156250028,
      "v": 74
    },
    {
      "midi": 75,
      "hit": false,
      "t": 244713.4700000008,
      "d": 209.82072916667676,
      "v": 67
    },
    {
      "midi": 76,
      "hit": false,
      "t": 244927.7550000008,
      "d": 196.42791666666744,
      "v": 66
    },
    {
      "midi": 59,
      "hit": false,
      "t": 244927.755000001,
      "d": 312.4989583333372,
      "v": 78
    },
    {
      "midi": 69,
      "hit": false,
      "t": 244927.755000001,
      "d": 323.6596354166686,
      "v": 74
    },
    {
      "midi": 61,
      "hit": false,
      "t": 244927.755000001,
      "d": 328.12390624999534,
      "v": 86
    },
    {
      "midi": 64,
      "hit": false,
      "t": 244927.755000001,
      "d": 328.12390624999534,
      "v": 81
    },
    {
      "midi": 83,
      "hit": false,
      "t": 245142.0400000008,
      "d": 200.89218749999418,
      "v": 79
    },
    {
      "midi": 75,
      "hit": false,
      "t": 245356.3250000008,
      "d": 203.1243229166721,
      "v": 58
    },
    {
      "midi": 61,
      "hit": false,
      "t": 245356.325000001,
      "d": 66.96406249998836,
      "v": 73
    },
    {
      "midi": 64,
      "hit": false,
      "t": 245356.325000001,
      "d": 73.66046874999302,
      "v": 76
    },
    {
      "midi": 59,
      "hit": false,
      "t": 245356.325000001,
      "d": 75.89260416667094,
      "v": 74
    },
    {
      "midi": 69,
      "hit": false,
      "t": 245356.325000001,
      "d": 87.05328125000233,
      "v": 71
    },
    {
      "midi": 76,
      "hit": false,
      "t": 245570.6100000008,
      "d": 212.05286458332557,
      "v": 53
    },
    {
      "midi": 59,
      "hit": false,
      "t": 245570.610000001,
      "d": 1162.9425520833465,
      "v": 78
    },
    {
      "midi": 64,
      "hit": false,
      "t": 245570.610000001,
      "d": 1176.3353645833558,
      "v": 86
    },
    {
      "midi": 69,
      "hit": false,
      "t": 245570.610000001,
      "d": 1180.7996354166826,
      "v": 74
    },
    {
      "midi": 61,
      "hit": false,
      "t": 245570.610000001,
      "d": 1185.2639062500093,
      "v": 86
    },
    {
      "midi": 83,
      "hit": false,
      "t": 245784.8950000008,
      "d": 205.35645833332092,
      "v": 56
    },
    {
      "midi": 75,
      "hit": false,
      "t": 245999.18000000078,
      "d": 209.82072916667676,
      "v": 42
    },
    {
      "midi": 76,
      "hit": false,
      "t": 246213.46500000078,
      "d": 203.1243229166721,
      "v": 52
    },
    {
      "midi": 83,
      "hit": false,
      "t": 246427.7500000008,
      "d": 169.64229166667792,
      "v": 47
    },
    {
      "midi": 75,
      "hit": false,
      "t": 246856.3200000008,
      "d": 205.35645833332092,
      "v": 87
    },
    {
      "midi": 75,
      "hit": false,
      "t": 246856.32000000103,
      "d": 341.51671875000466,
      "v": 94
    },
    {
      "midi": 76,
      "hit": false,
      "t": 247068.37286458435,
      "d": 453.1234895833768,
      "v": 70
    },
    {
      "midi": 76,
      "hit": false,
      "t": 247070.60500000077,
      "d": 169.64229166667792,
      "v": 63
    },
    {
      "midi": 83,
      "hit": false,
      "t": 247284.89000000077,
      "d": 169.64229166667792,
      "v": 82
    },
    {
      "midi": 83,
      "hit": false,
      "t": 247291.58640625104,
      "d": 223.21354166668607,
      "v": 74
    },
    {
      "midi": 75,
      "hit": false,
      "t": 247494.7107291677,
      "d": 2361.5992708333943,
      "v": 86
    },
    {
      "midi": 75,
      "hit": false,
      "t": 247499.17500000077,
      "d": 191.9636458333407,
      "v": 76
    },
    {
      "midi": 76,
      "hit": false,
      "t": 247713.46000000078,
      "d": 183.03510416665813,
      "v": 82
    },
    {
      "midi": 76,
      "hit": false,
      "t": 247717.9242708344,
      "d": 2104.903697916714,
      "v": 71
    },
    {
      "midi": 83,
      "hit": false,
      "t": 247927.74500000078,
      "d": 169.64229166667792,
      "v": 87
    },
    {
      "midi": 83,
      "hit": false,
      "t": 247938.9056770844,
      "d": 1881.690156250028,
      "v": 74
    },
    {
      "midi": 75,
      "hit": false,
      "t": 248142.03000000078,
      "d": 203.1243229166721,
      "v": 76
    },
    {
      "midi": 76,
      "hit": false,
      "t": 248356.3150000008,
      "d": 187.49937500001397,
      "v": 62
    },
    {
      "midi": 59,
      "hit": false,
      "t": 248356.31500000108,
      "d": 319.19536458334187,
      "v": 92
    },
    {
      "midi": 63,
      "hit": false,
      "t": 248356.31500000108,
      "d": 328.12390624999534,
      "v": 92
    },
    {
      "midi": 66,
      "hit": false,
      "t": 248356.31500000108,
      "d": 328.12390624999534,
      "v": 86
    },
    {
      "midi": 83,
      "hit": false,
      "t": 248570.6000000008,
      "d": 238.8384895833442,
      "v": 68
    },
    {
      "midi": 75,
      "hit": false,
      "t": 248784.8850000008,
      "d": 214.2850000000035,
      "v": 62
    },
    {
      "midi": 59,
      "hit": false,
      "t": 248784.8850000011,
      "d": 58.035520833334886,
      "v": 56
    },
    {
      "midi": 63,
      "hit": false,
      "t": 248784.8850000011,
      "d": 64.73192708333954,
      "v": 65
    },
    {
      "midi": 66,
      "hit": false,
      "t": 248784.8850000011,
      "d": 71.4283333333442,
      "v": 62
    },
    {
      "midi": 76,
      "hit": false,
      "t": 248999.1700000008,
      "d": 174.10656250000466,
      "v": 62
    },
    {
      "midi": 63,
      "hit": false,
      "t": 248999.1700000011,
      "d": 1060.264322916686,
      "v": 86
    },
    {
      "midi": 59,
      "hit": false,
      "t": 248999.1700000011,
      "d": 1102.6748958333628,
      "v": 77
    },
    {
      "midi": 66,
      "hit": false,
      "t": 248999.1700000011,
      "d": 1113.8355729166942,
      "v": 81
    },
    {
      "midi": 83,
      "hit": false,
      "t": 249213.4550000008,
      "d": 194.19578124998952,
      "v": 64
    },
    {
      "midi": 75,
      "hit": false,
      "t": 249427.7400000008,
      "d": 214.2850000000035,
      "v": 58
    },
    {
      "midi": 76,
      "hit": false,
      "t": 249642.0250000008,
      "d": 209.82072916667676,
      "v": 55
    },
    {
      "midi": 83,
      "hit": false,
      "t": 249856.3100000008,
      "d": 191.9636458333407,
      "v": 56
    },
    {
      "midi": 75,
      "hit": false,
      "t": 250284.88000000082,
      "d": 205.35645833332092,
      "v": 82
    },
    {
      "midi": 75,
      "hit": false,
      "t": 250284.8800000011,
      "d": 341.51671875000466,
      "v": 94
    },
    {
      "midi": 76,
      "hit": false,
      "t": 250496.93286458444,
      "d": 453.1234895833768,
      "v": 70
    },
    {
      "midi": 76,
      "hit": false,
      "t": 250499.1650000008,
      "d": 191.9636458333407,
      "v": 71
    },
    {
      "midi": 83,
      "hit": false,
      "t": 250713.4500000008,
      "d": 180.8029687500093,
      "v": 84
    },
    {
      "midi": 83,
      "hit": false,
      "t": 250720.14640625112,
      "d": 223.21354166668607,
      "v": 74
    },
    {
      "midi": 75,
      "hit": false,
      "t": 250923.2707291678,
      "d": 2361.599270833365,
      "v": 86
    },
    {
      "midi": 75,
      "hit": false,
      "t": 250927.7350000008,
      "d": 220.98140625000815,
      "v": 73
    },
    {
      "midi": 76,
      "hit": false,
      "t": 251142.0200000008,
      "d": 203.1243229166721,
      "v": 68
    },
    {
      "midi": 76,
      "hit": false,
      "t": 251146.48427083448,
      "d": 2104.903697916685,
      "v": 71
    },
    {
      "midi": 83,
      "hit": false,
      "t": 251356.3050000008,
      "d": 212.05286458332557,
      "v": 76
    },
    {
      "midi": 83,
      "hit": false,
      "t": 251367.4656770845,
      "d": 1881.6901562499988,
      "v": 74
    },
    {
      "midi": 75,
      "hit": false,
      "t": 251570.5900000008,
      "d": 258.92770833332906,
      "v": 66
    },
    {
      "midi": 76,
      "hit": false,
      "t": 251784.87500000081,
      "d": 214.2850000000035,
      "v": 64
    },
    {
      "midi": 59,
      "hit": false,
      "t": 251784.87500000116,
      "d": 283.48119791666977,
      "v": 86
    },
    {
      "midi": 64,
      "hit": false,
      "t": 251784.87500000116,
      "d": 299.1061458333279,
      "v": 81
    },
    {
      "midi": 69,
      "hit": false,
      "t": 251784.87500000116,
      "d": 299.1061458333279,
      "v": 73
    },
    {
      "midi": 61,
      "hit": false,
      "t": 251784.87500000116,
      "d": 303.57041666665464,
      "v": 81
    },
    {
      "midi": 83,
      "hit": false,
      "t": 251999.16000000082,
      "d": 207.58859374999884,
      "v": 71
    },
    {
      "midi": 75,
      "hit": false,
      "t": 252213.44500000082,
      "d": 229.90994791666162,
      "v": 61
    },
    {
      "midi": 59,
      "hit": false,
      "t": 252213.44500000114,
      "d": 58.035520833334886,
      "v": 65
    },
    {
      "midi": 61,
      "hit": false,
      "t": 252213.44500000114,
      "d": 60.267656250012806,
      "v": 66
    },
    {
      "midi": 64,
      "hit": false,
      "t": 252213.44500000114,
      "d": 69.19619791666628,
      "v": 66
    },
    {
      "midi": 69,
      "hit": false,
      "t": 252213.44500000114,
      "d": 75.89260416667094,
      "v": 65
    },
    {
      "midi": 76,
      "hit": false,
      "t": 252427.73000000083,
      "d": 187.49937499998487,
      "v": 37
    },
    {
      "midi": 64,
      "hit": false,
      "t": 252427.73000000115,
      "d": 1118.299843750021,
      "v": 86
    },
    {
      "midi": 59,
      "hit": false,
      "t": 252427.73000000115,
      "d": 1120.5319791666989,
      "v": 89
    },
    {
      "midi": 61,
      "hit": false,
      "t": 252427.73000000115,
      "d": 1131.6926562500303,
      "v": 89
    },
    {
      "midi": 69,
      "hit": false,
      "t": 252427.73000000115,
      "d": 1131.6926562500303,
      "v": 77
    },
    {
      "midi": 83,
      "hit": false,
      "t": 252642.0150000008,
      "d": 203.1243229166721,
      "v": 63
    },
    {
      "midi": 75,
      "hit": false,
      "t": 252856.3000000008,
      "d": 207.58859374999884,
      "v": 50
    },
    {
      "midi": 76,
      "hit": false,
      "t": 253070.5850000008,
      "d": 212.05286458332557,
      "v": 41
    },
    {
      "midi": 83,
      "hit": false,
      "t": 253284.8700000008,
      "d": 189.7315104166628,
      "v": 46
    },
    {
      "midi": 75,
      "hit": false,
      "t": 253713.44000000082,
      "d": 234.37421875001746,
      "v": 55
    },
    {
      "midi": 63,
      "hit": false,
      "t": 253713.44000000117,
      "d": 468.7484375000058,
      "v": 103
    },
    {
      "midi": 76,
      "hit": false,
      "t": 253927.72500000082,
      "d": 171.87442708335584,
      "v": 51
    },
    {
      "midi": 64,
      "hit": false,
      "t": 253927.72500000117,
      "d": 477.6769791666593,
      "v": 82
    },
    {
      "midi": 83,
      "hit": false,
      "t": 254142.01000000085,
      "d": 189.7315104166628,
      "v": 51
    },
    {
      "midi": 71,
      "hit": false,
      "t": 254142.01000000117,
      "d": 279.01692708331393,
      "v": 92
    },
    {
      "midi": 75,
      "hit": false,
      "t": 254356.29500000086,
      "d": 183.03510416665813,
      "v": 53
    },
    {
      "midi": 63,
      "hit": false,
      "t": 254356.29500000118,
      "d": 428.5699999999779,
      "v": 87
    },
    {
      "midi": 76,
      "hit": false,
      "t": 254570.58000000086,
      "d": 171.87442708332674,
      "v": 45
    },
    {
      "midi": 64,
      "hit": false,
      "t": 254570.58000000115,
      "d": 428.570000000007,
      "v": 76
    },
    {
      "midi": 83,
      "hit": false,
      "t": 254784.86500000086,
      "d": 196.42791666666744,
      "v": 46
    },
    {
      "midi": 71,
      "hit": false,
      "t": 254784.86500000115,
      "d": 428.570000000007,
      "v": 83
    },
    {
      "midi": 76,
      "hit": false,
      "t": 254999.15000000087,
      "d": 111.60677083334303,
      "v": 52
    },
    {
      "midi": 75,
      "hit": false,
      "t": 255213.43500000087,
      "d": 212.05286458332557,
      "v": 45
    },
    {
      "midi": 76,
      "hit": false,
      "t": 255427.72000000087,
      "d": 180.8029687500093,
      "v": 45
    },
    {
      "midi": 83,
      "hit": false,
      "t": 255642.00500000088,
      "d": 180.8029687500093,
      "v": 56
    },
    {
      "midi": 71,
      "hit": false,
      "t": 255856.29000000088,
      "d": 234.37421874998836,
      "v": 87
    },
    {
      "midi": 80,
      "hit": false,
      "t": 255856.29000000088,
      "d": 243.30276041664183,
      "v": 95
    },
    {
      "midi": 75,
      "hit": false,
      "t": 255856.29000000088,
      "d": 247.76703124996857,
      "v": 95
    },
    {
      "midi": 59,
      "hit": false,
      "t": 255856.29000000117,
      "d": 249.9991666666756,
      "v": 104
    },
    {
      "midi": 63,
      "hit": false,
      "t": 255856.29000000117,
      "d": 252.2313020833535,
      "v": 96
    },
    {
      "midi": 68,
      "hit": false,
      "t": 255856.29000000117,
      "d": 263.3919791666849,
      "v": 104
    },
    {
      "midi": 71,
      "hit": false,
      "t": 256284.86000000086,
      "d": 136.16026041665464,
      "v": 95
    },
    {
      "midi": 80,
      "hit": false,
      "t": 256284.86000000086,
      "d": 140.62453124998137,
      "v": 95
    },
    {
      "midi": 75,
      "hit": false,
      "t": 256284.86000000086,
      "d": 156.2494791666395,
      "v": 87
    },
    {
      "midi": 68,
      "hit": false,
      "t": 256284.86000000118,
      "d": 140.62453125001048,
      "v": 104
    },
    {
      "midi": 59,
      "hit": false,
      "t": 256284.86000000118,
      "d": 142.8566666666884,
      "v": 100
    },
    {
      "midi": 63,
      "hit": false,
      "t": 256284.86000000118,
      "d": 142.8566666666884,
      "v": 92
    },
    {
      "midi": 71,
      "hit": false,
      "t": 256499.14500000083,
      "d": 466.5163020833279,
      "v": 84
    },
    {
      "midi": 75,
      "hit": false,
      "t": 256499.14500000083,
      "d": 508.92687500000466,
      "v": 87
    },
    {
      "midi": 78,
      "hit": false,
      "t": 256499.14500000083,
      "d": 522.319687500014,
      "v": 95
    },
    {
      "midi": 59,
      "hit": false,
      "t": 256499.1450000012,
      "d": 589.2837500000023,
      "v": 87
    },
    {
      "midi": 66,
      "hit": false,
      "t": 256499.1450000012,
      "d": 607.1408333333384,
      "v": 104
    },
    {
      "midi": 63,
      "hit": false,
      "t": 256499.1450000012,
      "d": 616.0693749999919,
      "v": 92
    },
    {
      "midi": 75,
      "hit": false,
      "t": 257142.00000000084,
      "d": 254.46343750000233,
      "v": 91
    },
    {
      "midi": 75,
      "hit": false,
      "t": 257142.0000000012,
      "d": 341.51671875000466,
      "v": 94
    },
    {
      "midi": 76,
      "hit": false,
      "t": 257354.05286458452,
      "d": 453.1234895833768,
      "v": 70
    },
    {
      "midi": 76,
      "hit": false,
      "t": 257356.28500000085,
      "d": 180.8029687500093,
      "v": 73
    },
    {
      "midi": 83,
      "hit": false,
      "t": 257570.57000000085,
      "d": 171.87442708332674,
      "v": 87
    },
    {
      "midi": 83,
      "hit": false,
      "t": 257577.2664062512,
      "d": 223.21354166668607,
      "v": 74
    },
    {
      "midi": 75,
      "hit": false,
      "t": 257780.39072916788,
      "d": 2361.5992708333943,
      "v": 86
    },
    {
      "midi": 75,
      "hit": false,
      "t": 257784.85500000085,
      "d": 243.30276041667094,
      "v": 82
    },
    {
      "midi": 76,
      "hit": false,
      "t": 257999.14000000086,
      "d": 200.89218749999418,
      "v": 79
    },
    {
      "midi": 76,
      "hit": false,
      "t": 258003.60427083456,
      "d": 2104.903697916714,
      "v": 71
    },
    {
      "midi": 83,
      "hit": false,
      "t": 258213.42500000086,
      "d": 218.74927083333023,
      "v": 84
    },
    {
      "midi": 83,
      "hit": false,
      "t": 258224.58567708457,
      "d": 1881.690156250028,
      "v": 74
    },
    {
      "midi": 75,
      "hit": false,
      "t": 258427.71000000086,
      "d": 227.6778125000128,
      "v": 79
    },
    {
      "midi": 76,
      "hit": false,
      "t": 258641.99500000087,
      "d": 205.35645833335002,
      "v": 57
    },
    {
      "midi": 59,
      "hit": false,
      "t": 258641.99500000125,
      "d": 323.6596354166686,
      "v": 89
    },
    {
      "midi": 69,
      "hit": false,
      "t": 258641.99500000125,
      "d": 330.35604166667326,
      "v": 78
    },
    {
      "midi": 64,
      "hit": false,
      "t": 258641.99500000125,
      "d": 337.0524479166779,
      "v": 86
    },
    {
      "midi": 61,
      "hit": false,
      "t": 258641.99500000125,
      "d": 352.67739583333605,
      "v": 89
    },
    {
      "midi": 83,
      "hit": false,
      "t": 258856.28000000087,
      "d": 205.35645833332092,
      "v": 66
    },
    {
      "midi": 75,
      "hit": false,
      "t": 259070.56500000085,
      "d": 229.90994791666162,
      "v": 64
    },
    {
      "midi": 59,
      "hit": false,
      "t": 259070.56500000125,
      "d": 75.89260416667094,
      "v": 74
    },
    {
      "midi": 61,
      "hit": false,
      "t": 259070.56500000125,
      "d": 78.12473958334886,
      "v": 77
    },
    {
      "midi": 64,
      "hit": false,
      "t": 259070.56500000125,
      "d": 87.05328125000233,
      "v": 79
    },
    {
      "midi": 69,
      "hit": false,
      "t": 259070.56500000125,
      "d": 102.67822916666046,
      "v": 77
    },
    {
      "midi": 76,
      "hit": false,
      "t": 259284.85000000085,
      "d": 189.7315104166628,
      "v": 55
    },
    {
      "midi": 59,
      "hit": false,
      "t": 259284.85000000126,
      "d": 1212.049531250028,
      "v": 83
    },
    {
      "midi": 64,
      "hit": false,
      "t": 259284.85000000126,
      "d": 1229.906614583364,
      "v": 83
    },
    {
      "midi": 61,
      "hit": false,
      "t": 259284.85000000126,
      "d": 1234.3708854166907,
      "v": 89
    },
    {
      "midi": 69,
      "hit": false,
      "t": 259284.85000000126,
      "d": 1258.9243750000314,
      "v": 79
    },
    {
      "midi": 83,
      "hit": false,
      "t": 259499.13500000085,
      "d": 218.74927083333023,
      "v": 68
    },
    {
      "midi": 75,
      "hit": false,
      "t": 259713.42000000086,
      "d": 234.37421875001746,
      "v": 45
    },
    {
      "midi": 76,
      "hit": false,
      "t": 259927.70500000086,
      "d": 220.98140625000815,
      "v": 48
    },
    {
      "midi": 83,
      "hit": false,
      "t": 260141.99000000086,
      "d": 189.7315104166628,
      "v": 55
    },
    {
      "midi": 76,
      "hit": false,
      "t": 260356.27500000087,
      "d": 91.51755208332906,
      "v": 50
    },
    {
      "midi": 75,
      "hit": false,
      "t": 260570.56000000087,
      "d": 220.98140625000815,
      "v": 95
    },
    {
      "midi": 75,
      "hit": false,
      "t": 260570.56000000128,
      "d": 341.51671875000466,
      "v": 94
    },
    {
      "midi": 76,
      "hit": false,
      "t": 260782.6128645846,
      "d": 453.1234895833768,
      "v": 70
    },
    {
      "midi": 76,
      "hit": false,
      "t": 260784.84500000087,
      "d": 169.64229166667792,
      "v": 79
    },
    {
      "midi": 83,
      "hit": false,
      "t": 260999.13000000088,
      "d": 171.87442708332674,
      "v": 87
    },
    {
      "midi": 83,
      "hit": false,
      "t": 261005.8264062513,
      "d": 223.21354166668607,
      "v": 74
    },
    {
      "midi": 75,
      "hit": false,
      "t": 261208.95072916796,
      "d": 2361.599270833307,
      "v": 86
    },
    {
      "midi": 75,
      "hit": false,
      "t": 261213.41500000088,
      "d": 176.33869791665347,
      "v": 84
    },
    {
      "midi": 76,
      "hit": false,
      "t": 261427.70000000086,
      "d": 167.41015625,
      "v": 76
    },
    {
      "midi": 76,
      "hit": false,
      "t": 261432.16427083465,
      "d": 2104.9036979165976,
      "v": 71
    },
    {
      "midi": 83,
      "hit": false,
      "t": 261641.98500000086,
      "d": 174.10656250000466,
      "v": 84
    },
    {
      "midi": 83,
      "hit": false,
      "t": 261653.14567708466,
      "d": 1881.6901562499406,
      "v": 74
    },
    {
      "midi": 75,
      "hit": false,
      "t": 261856.27000000086,
      "d": 191.9636458333407,
      "v": 84
    },
    {
      "midi": 76,
      "hit": false,
      "t": 262070.55500000087,
      "d": 191.9636458333116,
      "v": 64
    },
    {
      "midi": 59,
      "hit": false,
      "t": 262070.55500000133,
      "d": 328.12390624999534,
      "v": 89
    },
    {
      "midi": 63,
      "hit": false,
      "t": 262070.55500000133,
      "d": 345.9809895833023,
      "v": 94
    },
    {
      "midi": 66,
      "hit": false,
      "t": 262070.55500000133,
      "d": 345.9809895833023,
      "v": 89
    },
    {
      "midi": 83,
      "hit": false,
      "t": 262284.84000000084,
      "d": 220.98140624997905,
      "v": 67
    },
    {
      "midi": 75,
      "hit": false,
      "t": 262499.1250000008,
      "d": 220.98140625003725,
      "v": 47
    },
    {
      "midi": 63,
      "hit": false,
      "t": 262499.1250000013,
      "d": 66.96406249998836,
      "v": 68
    },
    {
      "midi": 66,
      "hit": false,
      "t": 262499.1250000013,
      "d": 73.66046874999302,
      "v": 60
    },
    {
      "midi": 59,
      "hit": false,
      "t": 262499.1250000013,
      "d": 82.58901041664649,
      "v": 58
    },
    {
      "midi": 76,
      "hit": false,
      "t": 262713.41000000085,
      "d": 162.94588541664416,
      "v": 40
    },
    {
      "midi": 63,
      "hit": false,
      "t": 262713.41000000125,
      "d": 1203.1209895833745,
      "v": 83
    },
    {
      "midi": 59,
      "hit": false,
      "t": 262713.41000000125,
      "d": 1243.2994270834024,
      "v": 77
    },
    {
      "midi": 66,
      "hit": false,
      "t": 262713.41000000125,
      "d": 1258.9243750000605,
      "v": 81
    },
    {
      "midi": 83,
      "hit": false,
      "t": 262927.6950000008,
      "d": 214.2849999999744,
      "v": 60
    },
    {
      "midi": 75,
      "hit": false,
      "t": 263141.9800000008,
      "d": 209.82072916667676,
      "v": 57
    },
    {
      "midi": 76,
      "hit": false,
      "t": 263356.2650000008,
      "d": 189.7315104166628,
      "v": 48
    },
    {
      "midi": 83,
      "hit": false,
      "t": 263570.5500000008,
      "d": 236.60635416669538,
      "v": 58
    },
    {
      "midi": 75,
      "hit": false,
      "t": 263999.1200000008,
      "d": 212.05286458332557,
      "v": 91
    },
    {
      "midi": 75,
      "hit": false,
      "t": 263999.12000000133,
      "d": 341.51671875000466,
      "v": 94
    },
    {
      "midi": 76,
      "hit": false,
      "t": 264211.17286458466,
      "d": 453.1234895833768,
      "v": 70
    },
    {
      "midi": 76,
      "hit": false,
      "t": 264213.4050000008,
      "d": 171.87442708335584,
      "v": 82
    },
    {
      "midi": 83,
      "hit": false,
      "t": 264427.6900000008,
      "d": 212.05286458332557,
      "v": 84
    },
    {
      "midi": 83,
      "hit": false,
      "t": 264434.38640625135,
      "d": 223.21354166668607,
      "v": 74
    },
    {
      "midi": 75,
      "hit": false,
      "t": 264637.510729168,
      "d": 2361.599270833307,
      "v": 86
    },
    {
      "midi": 75,
      "hit": false,
      "t": 264641.9750000008,
      "d": 189.7315104166628,
      "v": 82
    },
    {
      "midi": 76,
      "hit": false,
      "t": 264856.26000000077,
      "d": 169.64229166664882,
      "v": 79
    },
    {
      "midi": 76,
      "hit": false,
      "t": 264860.7242708347,
      "d": 2104.9036979165976,
      "v": 71
    },
    {
      "midi": 83,
      "hit": false,
      "t": 265070.54500000074,
      "d": 171.87442708335584,
      "v": 84
    },
    {
      "midi": 83,
      "hit": false,
      "t": 265081.7056770847,
      "d": 1881.6901562499697,
      "v": 74
    },
    {
      "midi": 75,
      "hit": false,
      "t": 265284.8300000008,
      "d": 203.1243229166721,
      "v": 67
    },
    {
      "midi": 76,
      "hit": false,
      "t": 265499.1150000008,
      "d": 176.33869791665347,
      "v": 64
    },
    {
      "midi": 69,
      "hit": false,
      "t": 265499.11500000133,
      "d": 316.96322916669305,
      "v": 74
    },
    {
      "midi": 59,
      "hit": false,
      "t": 265499.11500000133,
      "d": 323.6596354166977,
      "v": 78
    },
    {
      "midi": 64,
      "hit": false,
      "t": 265499.11500000133,
      "d": 328.12390625005355,
      "v": 81
    },
    {
      "midi": 61,
      "hit": false,
      "t": 265499.11500000133,
      "d": 330.35604166670237,
      "v": 83
    },
    {
      "midi": 83,
      "hit": false,
      "t": 265713.4000000008,
      "d": 178.5708333333605,
      "v": 82
    },
    {
      "midi": 75,
      "hit": false,
      "t": 265927.6850000008,
      "d": 207.58859375002794,
      "v": 52
    },
    {
      "midi": 59,
      "hit": false,
      "t": 265927.68500000134,
      "d": 80.35687499999767,
      "v": 76
    },
    {
      "midi": 61,
      "hit": false,
      "t": 265927.68500000134,
      "d": 80.35687499999767,
      "v": 78
    },
    {
      "midi": 64,
      "hit": false,
      "t": 265927.68500000134,
      "d": 87.05328125000233,
      "v": 76
    },
    {
      "midi": 69,
      "hit": false,
      "t": 265927.68500000134,
      "d": 102.67822916666046,
      "v": 73
    },
    {
      "midi": 76,
      "hit": false,
      "t": 266141.97000000085,
      "d": 191.9636458333116,
      "v": 62
    },
    {
      "midi": 59,
      "hit": false,
      "t": 266141.9700000013,
      "d": 1227.674479166686,
      "v": 89
    },
    {
      "midi": 69,
      "hit": false,
      "t": 266141.9700000013,
      "d": 1236.6030208333395,
      "v": 79
    },
    {
      "midi": 61,
      "hit": false,
      "t": 266141.9700000013,
      "d": 1243.2994270833442,
      "v": 89
    },
    {
      "midi": 64,
      "hit": false,
      "t": 266141.9700000013,
      "d": 1254.4601041667047,
      "v": 89
    },
    {
      "midi": 83,
      "hit": false,
      "t": 266356.2550000008,
      "d": 205.35645833332092,
      "v": 64
    },
    {
      "midi": 75,
      "hit": false,
      "t": 266570.5400000008,
      "d": 209.82072916667676,
      "v": 40
    },
    {
      "midi": 76,
      "hit": false,
      "t": 266784.8250000008,
      "d": 214.2849999999744,
      "v": 52
    },
    {
      "midi": 83,
      "hit": false,
      "t": 266999.1100000008,
      "d": 196.42791666666744,
      "v": 45
    },
    {
      "midi": 76,
      "hit": false,
      "t": 267213.3950000008,
      "d": 82.58901041664649,
      "v": 53
    },
    {
      "midi": 75,
      "hit": false,
      "t": 267427.68000000075,
      "d": 218.74927083333023,
      "v": 87
    },
    {
      "midi": 75,
      "hit": false,
      "t": 267427.68000000133,
      "d": 341.51671875000466,
      "v": 94
    },
    {
      "midi": 76,
      "hit": false,
      "t": 267639.73286458466,
      "d": 453.1234895833768,
      "v": 70
    },
    {
      "midi": 76,
      "hit": false,
      "t": 267641.9650000007,
      "d": 160.71374999999534,
      "v": 68
    },
    {
      "midi": 83,
      "hit": false,
      "t": 267856.2500000007,
      "d": 227.6778124999837,
      "v": 79
    },
    {
      "midi": 83,
      "hit": false,
      "t": 267862.94640625134,
      "d": 223.21354166668607,
      "v": 74
    },
    {
      "midi": 75,
      "hit": false,
      "t": 268066.070729168,
      "d": 2361.599270833307,
      "v": 86
    },
    {
      "midi": 75,
      "hit": false,
      "t": 268070.5350000007,
      "d": 207.58859375002794,
      "v": 68
    },
    {
      "midi": 76,
      "hit": false,
      "t": 268284.8200000007,
      "d": 194.19578125001863,
      "v": 79
    },
    {
      "midi": 76,
      "hit": false,
      "t": 268289.2842708347,
      "d": 2104.9036979165976,
      "v": 71
    },
    {
      "midi": 83,
      "hit": false,
      "t": 268499.10500000074,
      "d": 205.35645833332092,
      "v": 87
    },
    {
      "midi": 83,
      "hit": false,
      "t": 268510.2656770847,
      "d": 1881.6901562499697,
      "v": 74
    },
    {
      "midi": 75,
      "hit": false,
      "t": 268713.3900000007,
      "d": 214.2849999999744,
      "v": 69
    },
    {
      "midi": 76,
      "hit": false,
      "t": 268927.6750000007,
      "d": 198.66005208331626,
      "v": 63
    },
    {
      "midi": 59,
      "hit": false,
      "t": 268927.6750000013,
      "d": 323.6596354166395,
      "v": 86
    },
    {
      "midi": 63,
      "hit": false,
      "t": 268927.6750000013,
      "d": 334.8203125,
      "v": 94
    },
    {
      "midi": 66,
      "hit": false,
      "t": 268927.6750000013,
      "d": 334.8203125,
      "v": 86
    },
    {
      "midi": 83,
      "hit": false,
      "t": 269141.96000000066,
      "d": 212.05286458332557,
      "v": 66
    },
    {
      "midi": 75,
      "hit": false,
      "t": 269356.24500000064,
      "d": 238.838489583286,
      "v": 53
    },
    {
      "midi": 63,
      "hit": false,
      "t": 269356.24500000133,
      "d": 64.73192708333954,
      "v": 67
    },
    {
      "midi": 59,
      "hit": false,
      "t": 269356.24500000133,
      "d": 66.96406249998836,
      "v": 65
    },
    {
      "midi": 66,
      "hit": false,
      "t": 269356.24500000133,
      "d": 73.66046874999302,
      "v": 68
    },
    {
      "midi": 76,
      "hit": false,
      "t": 269570.5300000006,
      "d": 214.2849999999744,
      "v": 52
    },
    {
      "midi": 63,
      "hit": false,
      "t": 269570.5300000013,
      "d": 1102.6748958333628,
      "v": 86
    },
    {
      "midi": 66,
      "hit": false,
      "t": 269570.5300000013,
      "d": 1160.7104166666977,
      "v": 78
    },
    {
      "midi": 83,
      "hit": false,
      "t": 269784.8150000006,
      "d": 220.98140624997905,
      "v": 62
    },
    {
      "midi": 75,
      "hit": false,
      "t": 269999.10000000056,
      "d": 236.60635416669538,
      "v": 37
    },
    {
      "midi": 76,
      "hit": false,
      "t": 270213.3850000006,
      "d": 194.19578125001863,
      "v": 36
    },
    {
      "midi": 83,
      "hit": false,
      "t": 270427.6700000006,
      "d": 191.9636458333116,
      "v": 48
    },
    {
      "midi": 75,
      "hit": false,
      "t": 270856.24000000063,
      "d": 227.6778124999837,
      "v": 87
    },
    {
      "midi": 75,
      "hit": false,
      "t": 270856.24000000133,
      "d": 341.51671875000466,
      "v": 94
    },
    {
      "midi": 76,
      "hit": false,
      "t": 271068.29286458466,
      "d": 453.1234895833768,
      "v": 70
    },
    {
      "midi": 76,
      "hit": false,
      "t": 271070.5250000006,
      "d": 169.64229166664882,
      "v": 73
    },
    {
      "midi": 83,
      "hit": false,
      "t": 271284.8100000006,
      "d": 174.10656250000466,
      "v": 87
    },
    {
      "midi": 83,
      "hit": false,
      "t": 271291.50640625134,
      "d": 223.21354166668607,
      "v": 74
    },
    {
      "midi": 75,
      "hit": false,
      "t": 271494.630729168,
      "d": 2361.599270833365,
      "v": 86
    },
    {
      "midi": 75,
      "hit": false,
      "t": 271499.0950000006,
      "d": 196.42791666666744,
      "v": 79
    },
    {
      "midi": 76,
      "hit": false,
      "t": 271713.3800000006,
      "d": 189.7315104166628,
      "v": 79
    },
    {
      "midi": 76,
      "hit": false,
      "t": 271717.8442708347,
      "d": 2104.903697916656,
      "v": 71
    },
    {
      "midi": 83,
      "hit": false,
      "t": 271927.66500000056,
      "d": 220.98140624997905,
      "v": 79
    },
    {
      "midi": 83,
      "hit": false,
      "t": 271938.8256770847,
      "d": 1881.690156250028,
      "v": 74
    },
    {
      "midi": 75,
      "hit": false,
      "t": 272141.95000000054,
      "d": 209.82072916667676,
      "v": 67
    },
    {
      "midi": 76,
      "hit": false,
      "t": 272356.23500000057,
      "d": 196.42791666666744,
      "v": 66
    },
    {
      "midi": 59,
      "hit": false,
      "t": 272356.2350000013,
      "d": 312.4989583333372,
      "v": 78
    },
    {
      "midi": 69,
      "hit": false,
      "t": 272356.2350000013,
      "d": 323.6596354166977,
      "v": 74
    },
    {
      "midi": 61,
      "hit": false,
      "t": 272356.2350000013,
      "d": 328.12390625005355,
      "v": 86
    },
    {
      "midi": 64,
      "hit": false,
      "t": 272356.2350000013,
      "d": 328.12390625005355,
      "v": 81
    },
    {
      "midi": 83,
      "hit": false,
      "t": 272570.52000000054,
      "d": 200.89218750002328,
      "v": 79
    },
    {
      "midi": 75,
      "hit": false,
      "t": 272784.8050000006,
      "d": 203.1243229166721,
      "v": 58
    },
    {
      "midi": 61,
      "hit": false,
      "t": 272784.8050000014,
      "d": 66.96406249998836,
      "v": 73
    },
    {
      "midi": 64,
      "hit": false,
      "t": 272784.8050000014,
      "d": 73.66046874999302,
      "v": 76
    },
    {
      "midi": 59,
      "hit": false,
      "t": 272784.8050000014,
      "d": 75.89260416664183,
      "v": 74
    },
    {
      "midi": 69,
      "hit": false,
      "t": 272784.8050000014,
      "d": 87.05328125000233,
      "v": 71
    },
    {
      "midi": 76,
      "hit": false,
      "t": 272999.0900000006,
      "d": 212.05286458332557,
      "v": 53
    },
    {
      "midi": 59,
      "hit": false,
      "t": 272999.09000000136,
      "d": 1162.9425520833465,
      "v": 78
    },
    {
      "midi": 64,
      "hit": false,
      "t": 272999.09000000136,
      "d": 1176.3353645833558,
      "v": 86
    },
    {
      "midi": 69,
      "hit": false,
      "t": 272999.09000000136,
      "d": 1180.7996354167117,
      "v": 74
    },
    {
      "midi": 61,
      "hit": false,
      "t": 272999.09000000136,
      "d": 1185.2639062500675,
      "v": 86
    },
    {
      "midi": 83,
      "hit": false,
      "t": 273213.3750000006,
      "d": 205.35645833332092,
      "v": 56
    },
    {
      "midi": 75,
      "hit": false,
      "t": 273427.66000000056,
      "d": 209.82072916667676,
      "v": 42
    },
    {
      "midi": 76,
      "hit": false,
      "t": 273641.9450000006,
      "d": 203.1243229166721,
      "v": 52
    },
    {
      "midi": 83,
      "hit": false,
      "t": 273856.2300000006,
      "d": 169.64229166664882,
      "v": 47
    },
    {
      "midi": 75,
      "hit": false,
      "t": 274284.8000000006,
      "d": 205.35645833332092,
      "v": 87
    },
    {
      "midi": 75,
      "hit": false,
      "t": 274284.80000000144,
      "d": 341.51671875000466,
      "v": 94
    },
    {
      "midi": 76,
      "hit": false,
      "t": 274496.85286458477,
      "d": 453.1234895833768,
      "v": 70
    },
    {
      "midi": 76,
      "hit": false,
      "t": 274499.0850000006,
      "d": 169.64229166664882,
      "v": 63
    },
    {
      "midi": 83,
      "hit": false,
      "t": 274713.3700000006,
      "d": 169.64229166664882,
      "v": 82
    },
    {
      "midi": 83,
      "hit": false,
      "t": 274720.06640625146,
      "d": 223.21354166668607,
      "v": 74
    },
    {
      "midi": 75,
      "hit": false,
      "t": 274923.1907291681,
      "d": 2361.599270833365,
      "v": 86
    },
    {
      "midi": 75,
      "hit": false,
      "t": 274927.65500000055,
      "d": 191.9636458333116,
      "v": 76
    },
    {
      "midi": 76,
      "hit": false,
      "t": 275141.9400000005,
      "d": 183.03510416665813,
      "v": 82
    },
    {
      "midi": 76,
      "hit": false,
      "t": 275146.4042708348,
      "d": 2104.903697916656,
      "v": 71
    },
    {
      "midi": 83,
      "hit": false,
      "t": 275356.2250000005,
      "d": 169.64229166664882,
      "v": 87
    },
    {
      "midi": 83,
      "hit": false,
      "t": 275367.3856770848,
      "d": 1881.690156250028,
      "v": 74
    },
    {
      "midi": 75,
      "hit": false,
      "t": 275570.5100000005,
      "d": 203.1243229166721,
      "v": 76
    },
    {
      "midi": 76,
      "hit": false,
      "t": 275784.7950000005,
      "d": 187.49937500001397,
      "v": 62
    },
    {
      "midi": 59,
      "hit": false,
      "t": 275784.79500000144,
      "d": 319.19536458334187,
      "v": 92
    },
    {
      "midi": 63,
      "hit": false,
      "t": 275784.79500000144,
      "d": 328.12390624999534,
      "v": 92
    },
    {
      "midi": 66,
      "hit": false,
      "t": 275784.79500000144,
      "d": 328.12390624999534,
      "v": 86
    },
    {
      "midi": 83,
      "hit": false,
      "t": 275999.08000000054,
      "d": 238.838489583286,
      "v": 68
    },
    {
      "midi": 75,
      "hit": false,
      "t": 276213.3650000005,
      "d": 214.2849999999744,
      "v": 62
    },
    {
      "midi": 59,
      "hit": false,
      "t": 276213.36500000145,
      "d": 58.035520833334886,
      "v": 56
    },
    {
      "midi": 63,
      "hit": false,
      "t": 276213.36500000145,
      "d": 64.73192708333954,
      "v": 65
    },
    {
      "midi": 66,
      "hit": false,
      "t": 276213.36500000145,
      "d": 71.4283333333442,
      "v": 62
    },
    {
      "midi": 76,
      "hit": false,
      "t": 276427.6500000005,
      "d": 174.10656250000466,
      "v": 62
    },
    {
      "midi": 63,
      "hit": false,
      "t": 276427.6500000015,
      "d": 1060.264322916686,
      "v": 86
    },
    {
      "midi": 59,
      "hit": false,
      "t": 276427.6500000015,
      "d": 1102.6748958333628,
      "v": 77
    },
    {
      "midi": 66,
      "hit": false,
      "t": 276427.6500000015,
      "d": 1113.8355729167233,
      "v": 81
    },
    {
      "midi": 83,
      "hit": false,
      "t": 276641.9350000005,
      "d": 194.19578125001863,
      "v": 64
    },
    {
      "midi": 75,
      "hit": false,
      "t": 276856.22000000055,
      "d": 214.2849999999744,
      "v": 58
    },
    {
      "midi": 76,
      "hit": false,
      "t": 277070.5050000005,
      "d": 209.82072916667676,
      "v": 55
    },
    {
      "midi": 83,
      "hit": false,
      "t": 277284.79000000056,
      "d": 191.9636458333116,
      "v": 56
    },
    {
      "midi": 75,
      "hit": false,
      "t": 277713.36000000057,
      "d": 205.35645833332092,
      "v": 82
    },
    {
      "midi": 75,
      "hit": false,
      "t": 277713.36000000156,
      "d": 341.51671875000466,
      "v": 94
    },
    {
      "midi": 76,
      "hit": false,
      "t": 277925.4128645849,
      "d": 453.1234895833768,
      "v": 70
    },
    {
      "midi": 76,
      "hit": false,
      "t": 277927.64500000054,
      "d": 191.9636458333116,
      "v": 71
    },
    {
      "midi": 83,
      "hit": false,
      "t": 278141.9300000005,
      "d": 180.8029687500093,
      "v": 84
    },
    {
      "midi": 83,
      "hit": false,
      "t": 278148.62640625157,
      "d": 223.21354166668607,
      "v": 74
    },
    {
      "midi": 75,
      "hit": false,
      "t": 278351.75072916824,
      "d": 2361.599270833307,
      "v": 86
    },
    {
      "midi": 75,
      "hit": false,
      "t": 278356.21500000055,
      "d": 220.98140624997905,
      "v": 73
    },
    {
      "midi": 76,
      "hit": false,
      "t": 278570.5000000005,
      "d": 203.1243229166721,
      "v": 68
    },
    {
      "midi": 76,
      "hit": false,
      "t": 278574.9642708349,
      "d": 2104.9036979165976,
      "v": 71
    },
    {
      "midi": 83,
      "hit": false,
      "t": 278784.78500000056,
      "d": 212.05286458332557,
      "v": 76
    },
    {
      "midi": 83,
      "hit": false,
      "t": 278795.9456770849,
      "d": 1881.6901562499697,
      "v": 74
    },
    {
      "midi": 75,
      "hit": false,
      "t": 278999.07000000053,
      "d": 258.92770833329996,
      "v": 66
    },
    {
      "midi": 76,
      "hit": false,
      "t": 279213.3550000005,
      "d": 214.2849999999744,
      "v": 64
    },
    {
      "midi": 59,
      "hit": false,
      "t": 279213.35500000155,
      "d": 283.48119791666977,
      "v": 86
    },
    {
      "midi": 64,
      "hit": false,
      "t": 279213.35500000155,
      "d": 299.1061458333279,
      "v": 81
    },
    {
      "midi": 69,
      "hit": false,
      "t": 279213.35500000155,
      "d": 299.1061458333279,
      "v": 73
    },
    {
      "midi": 61,
      "hit": false,
      "t": 279213.35500000155,
      "d": 303.57041666668374,
      "v": 81
    },
    {
      "midi": 83,
      "hit": false,
      "t": 279427.6400000005,
      "d": 207.58859375002794,
      "v": 71
    },
    {
      "midi": 75,
      "hit": false,
      "t": 279641.9250000005,
      "d": 229.90994791663252,
      "v": 61
    },
    {
      "midi": 59,
      "hit": false,
      "t": 279641.92500000156,
      "d": 58.035520833334886,
      "v": 65
    },
    {
      "midi": 61,
      "hit": false,
      "t": 279641.92500000156,
      "d": 60.2676562499837,
      "v": 66
    },
    {
      "midi": 64,
      "hit": false,
      "t": 279641.92500000156,
      "d": 69.19619791663717,
      "v": 66
    },
    {
      "midi": 69,
      "hit": false,
      "t": 279641.92500000156,
      "d": 75.89260416664183,
      "v": 65
    },
    {
      "midi": 76,
      "hit": false,
      "t": 279856.2100000005,
      "d": 187.49937500001397,
      "v": 37
    },
    {
      "midi": 64,
      "hit": false,
      "t": 279856.21000000153,
      "d": 1118.299843750021,
      "v": 86
    },
    {
      "midi": 59,
      "hit": false,
      "t": 279856.21000000153,
      "d": 1120.5319791666698,
      "v": 89
    },
    {
      "midi": 61,
      "hit": false,
      "t": 279856.21000000153,
      "d": 1131.6926562500303,
      "v": 89
    },
    {
      "midi": 69,
      "hit": false,
      "t": 279856.21000000153,
      "d": 1131.6926562500303,
      "v": 77
    },
    {
      "midi": 83,
      "hit": false,
      "t": 280070.4950000005,
      "d": 203.1243229166721,
      "v": 63
    },
    {
      "midi": 75,
      "hit": false,
      "t": 280284.78000000055,
      "d": 207.58859375002794,
      "v": 50
    },
    {
      "midi": 76,
      "hit": false,
      "t": 280499.0650000006,
      "d": 212.05286458332557,
      "v": 41
    },
    {
      "midi": 83,
      "hit": false,
      "t": 280713.35000000056,
      "d": 189.7315104166628,
      "v": 46
    },
    {
      "midi": 75,
      "hit": false,
      "t": 281141.92000000057,
      "d": 234.37421874998836,
      "v": 55
    },
    {
      "midi": 63,
      "hit": false,
      "t": 281141.92000000156,
      "d": 468.7484374999767,
      "v": 103
    },
    {
      "midi": 76,
      "hit": false,
      "t": 281356.20500000054,
      "d": 171.87442708335584,
      "v": 51
    },
    {
      "midi": 64,
      "hit": false,
      "t": 281356.20500000153,
      "d": 477.6769791666884,
      "v": 82
    },
    {
      "midi": 83,
      "hit": false,
      "t": 281570.4900000006,
      "d": 189.7315104166628,
      "v": 51
    },
    {
      "midi": 71,
      "hit": false,
      "t": 281570.4900000015,
      "d": 279.01692708337214,
      "v": 92
    },
    {
      "midi": 75,
      "hit": false,
      "t": 281784.77500000055,
      "d": 183.03510416665813,
      "v": 53
    },
    {
      "midi": 63,
      "hit": false,
      "t": 281784.77500000154,
      "d": 428.570000000007,
      "v": 87
    },
    {
      "midi": 76,
      "hit": false,
      "t": 281999.0600000005,
      "d": 171.87442708335584,
      "v": 45
    },
    {
      "midi": 64,
      "hit": false,
      "t": 281999.06000000157,
      "d": 428.5699999999488,
      "v": 76
    },
    {
      "midi": 83,
      "hit": false,
      "t": 282213.34500000055,
      "d": 196.42791666666744,
      "v": 46
    },
    {
      "midi": 71,
      "hit": false,
      "t": 282213.34500000154,
      "d": 428.5699999999488,
      "v": 83
    },
    {
      "midi": 76,
      "hit": false,
      "t": 282427.6300000005,
      "d": 111.60677083331393,
      "v": 52
    },
    {
      "midi": 75,
      "hit": false,
      "t": 282641.9150000005,
      "d": 212.05286458332557,
      "v": 45
    },
    {
      "midi": 76,
      "hit": false,
      "t": 282856.2000000005,
      "d": 180.8029687500093,
      "v": 45
    },
    {
      "midi": 83,
      "hit": false,
      "t": 283070.4850000005,
      "d": 180.8029687500093,
      "v": 56
    },
    {
      "midi": 71,
      "hit": false,
      "t": 283284.77000000054,
      "d": 234.37421874998836,
      "v": 87
    },
    {
      "midi": 80,
      "hit": false,
      "t": 283284.77000000054,
      "d": 243.30276041664183,
      "v": 95
    },
    {
      "midi": 75,
      "hit": false,
      "t": 283284.77000000054,
      "d": 247.76703124999767,
      "v": 95
    },
    {
      "midi": 59,
      "hit": false,
      "t": 283284.7700000015,
      "d": 249.9991666666465,
      "v": 104
    },
    {
      "midi": 63,
      "hit": false,
      "t": 283284.7700000015,
      "d": 252.2313020832953,
      "v": 96
    },
    {
      "midi": 68,
      "hit": false,
      "t": 283284.7700000015,
      "d": 263.3919791666558,
      "v": 104
    },
    {
      "midi": 71,
      "hit": false,
      "t": 283713.34000000055,
      "d": 136.16026041668374,
      "v": 95
    },
    {
      "midi": 80,
      "hit": false,
      "t": 283713.34000000055,
      "d": 140.62453125003958,
      "v": 95
    },
    {
      "midi": 75,
      "hit": false,
      "t": 283713.34000000055,
      "d": 156.2494791666977,
      "v": 87
    },
    {
      "midi": 68,
      "hit": false,
      "t": 283713.3400000015,
      "d": 140.62453124998137,
      "v": 104
    },
    {
      "midi": 59,
      "hit": false,
      "t": 283713.3400000015,
      "d": 142.8566666666302,
      "v": 100
    },
    {
      "midi": 63,
      "hit": false,
      "t": 283713.3400000015,
      "d": 142.8566666666302,
      "v": 92
    },
    {
      "midi": 71,
      "hit": false,
      "t": 283927.6250000006,
      "d": 466.5163020833279,
      "v": 84
    },
    {
      "midi": 75,
      "hit": false,
      "t": 283927.6250000006,
      "d": 508.92687500000466,
      "v": 87
    },
    {
      "midi": 78,
      "hit": false,
      "t": 283927.6250000006,
      "d": 522.319687500014,
      "v": 95
    },
    {
      "midi": 59,
      "hit": false,
      "t": 283927.62500000146,
      "d": 589.2837500000023,
      "v": 87
    },
    {
      "midi": 66,
      "hit": false,
      "t": 283927.62500000146,
      "d": 607.1408333333093,
      "v": 104
    },
    {
      "midi": 63,
      "hit": false,
      "t": 283927.62500000146,
      "d": 616.0693749999627,
      "v": 92
    },
    {
      "midi": 75,
      "hit": false,
      "t": 284570.4800000006,
      "d": 254.46343750000233,
      "v": 91
    },
    {
      "midi": 75,
      "hit": false,
      "t": 284570.48000000144,
      "d": 341.51671875000466,
      "v": 94
    },
    {
      "midi": 76,
      "hit": false,
      "t": 284782.53286458476,
      "d": 453.1234895833768,
      "v": 70
    },
    {
      "midi": 76,
      "hit": false,
      "t": 284784.7650000006,
      "d": 180.8029687500093,
      "v": 73
    },
    {
      "midi": 83,
      "hit": false,
      "t": 284999.0500000006,
      "d": 171.87442708335584,
      "v": 87
    },
    {
      "midi": 83,
      "hit": false,
      "t": 285005.74640625145,
      "d": 223.21354166668607,
      "v": 74
    },
    {
      "midi": 75,
      "hit": false,
      "t": 285208.8707291681,
      "d": 2361.5992708331905,
      "v": 86
    },
    {
      "midi": 75,
      "hit": false,
      "t": 285213.33500000066,
      "d": 243.30276041664183,
      "v": 82
    },
    {
      "midi": 76,
      "hit": false,
      "t": 285427.62000000064,
      "d": 200.89218750002328,
      "v": 79
    },
    {
      "midi": 76,
      "hit": false,
      "t": 285432.0842708348,
      "d": 2104.903697916481,
      "v": 71
    },
    {
      "midi": 83,
      "hit": false,
      "t": 285641.90500000067,
      "d": 218.74927083333023,
      "v": 84
    },
    {
      "midi": 83,
      "hit": false,
      "t": 285653.0656770848,
      "d": 1881.6901562498533,
      "v": 74
    },
    {
      "midi": 75,
      "hit": false,
      "t": 285856.19000000064,
      "d": 227.6778125000419,
      "v": 79
    },
    {
      "midi": 76,
      "hit": false,
      "t": 286070.4750000007,
      "d": 205.35645833332092,
      "v": 57
    },
    {
      "midi": 59,
      "hit": false,
      "t": 286070.47500000143,
      "d": 323.6596354166395,
      "v": 89
    },
    {
      "midi": 69,
      "hit": false,
      "t": 286070.47500000143,
      "d": 330.35604166664416,
      "v": 78
    },
    {
      "midi": 64,
      "hit": false,
      "t": 286070.47500000143,
      "d": 337.0524479166488,
      "v": 86
    },
    {
      "midi": 61,
      "hit": false,
      "t": 286070.47500000143,
      "d": 352.67739583330695,
      "v": 89
    },
    {
      "midi": 83,
      "hit": false,
      "t": 286284.76000000065,
      "d": 205.35645833332092,
      "v": 66
    },
    {
      "midi": 75,
      "hit": false,
      "t": 286499.0450000006,
      "d": 229.90994791663252,
      "v": 64
    },
    {
      "midi": 59,
      "hit": false,
      "t": 286499.0450000014,
      "d": 75.89260416664183,
      "v": 74
    },
    {
      "midi": 61,
      "hit": false,
      "t": 286499.0450000014,
      "d": 78.12473958329065,
      "v": 77
    },
    {
      "midi": 64,
      "hit": false,
      "t": 286499.0450000014,
      "d": 87.05328124994412,
      "v": 79
    },
    {
      "midi": 69,
      "hit": false,
      "t": 286499.0450000014,
      "d": 102.67822916660225,
      "v": 77
    },
    {
      "midi": 76,
      "hit": false,
      "t": 286713.3300000006,
      "d": 189.7315104166628,
      "v": 55
    },
    {
      "midi": 59,
      "hit": false,
      "t": 286713.3300000013,
      "d": 1212.049531250028,
      "v": 83
    },
    {
      "midi": 64,
      "hit": false,
      "t": 286713.3300000013,
      "d": 1229.9066145833349,
      "v": 83
    },
    {
      "midi": 61,
      "hit": false,
      "t": 286713.3300000013,
      "d": 1234.3708854166907,
      "v": 89
    },
    {
      "midi": 69,
      "hit": false,
      "t": 286713.3300000013,
      "d": 1258.9243750000023,
      "v": 79
    },
    {
      "midi": 83,
      "hit": false,
      "t": 286927.6150000006,
      "d": 218.74927083333023,
      "v": 68
    },
    {
      "midi": 75,
      "hit": false,
      "t": 287141.90000000055,
      "d": 234.37421875004657,
      "v": 45
    },
    {
      "midi": 76,
      "hit": false,
      "t": 287356.1850000006,
      "d": 220.98140625003725,
      "v": 48
    },
    {
      "midi": 83,
      "hit": false,
      "t": 287570.4700000006,
      "d": 189.7315104166628,
      "v": 55
    },
    {
      "midi": 76,
      "hit": false,
      "t": 287784.7550000006,
      "d": 91.51755208335817,
      "v": 50
    },
    {
      "midi": 75,
      "hit": false,
      "t": 287999.0400000006,
      "d": 220.98140624997905,
      "v": 95
    },
    {
      "midi": 75,
      "hit": false,
      "t": 287999.0400000013,
      "d": 341.51671875000466,
      "v": 94
    },
    {
      "midi": 76,
      "hit": false,
      "t": 288211.09286458464,
      "d": 453.1234895833768,
      "v": 70
    },
    {
      "midi": 76,
      "hit": false,
      "t": 288213.3250000006,
      "d": 169.64229166664882,
      "v": 79
    },
    {
      "midi": 83,
      "hit": false,
      "t": 288427.61000000057,
      "d": 171.87442708335584,
      "v": 87
    },
    {
      "midi": 83,
      "hit": false,
      "t": 288434.30640625133,
      "d": 223.21354166668607,
      "v": 74
    },
    {
      "midi": 75,
      "hit": false,
      "t": 288637.430729168,
      "d": 2361.5992708332487,
      "v": 86
    },
    {
      "midi": 75,
      "hit": false,
      "t": 288641.8950000006,
      "d": 176.33869791665347,
      "v": 84
    },
    {
      "midi": 76,
      "hit": false,
      "t": 288856.1800000006,
      "d": 167.41015625,
      "v": 76
    },
    {
      "midi": 76,
      "hit": false,
      "t": 288860.6442708347,
      "d": 2104.9036979165394,
      "v": 71
    },
    {
      "midi": 83,
      "hit": false,
      "t": 289070.46500000055,
      "d": 174.10656250000466,
      "v": 84
    },
    {
      "midi": 83,
      "hit": false,
      "t": 289081.62567708467,
      "d": 1881.6901562499115,
      "v": 74
    },
    {
      "midi": 75,
      "hit": false,
      "t": 289284.7500000006,
      "d": 191.9636458333116,
      "v": 84
    },
    {
      "midi": 76,
      "hit": false,
      "t": 289499.03500000056,
      "d": 191.9636458333116,
      "v": 64
    },
    {
      "midi": 59,
      "hit": false,
      "t": 289499.0350000013,
      "d": 328.12390624999534,
      "v": 89
    },
    {
      "midi": 63,
      "hit": false,
      "t": 289499.0350000013,
      "d": 345.9809895833023,
      "v": 94
    },
    {
      "midi": 66,
      "hit": false,
      "t": 289499.0350000013,
      "d": 345.9809895833023,
      "v": 89
    },
    {
      "midi": 83,
      "hit": false,
      "t": 289713.32000000053,
      "d": 220.98140624997905,
      "v": 67
    },
    {
      "midi": 75,
      "hit": false,
      "t": 289927.6050000005,
      "d": 220.98140625003725,
      "v": 47
    },
    {
      "midi": 63,
      "hit": false,
      "t": 289927.60500000126,
      "d": 66.96406249998836,
      "v": 68
    },
    {
      "midi": 66,
      "hit": false,
      "t": 289927.60500000126,
      "d": 73.66046874999302,
      "v": 60
    },
    {
      "midi": 59,
      "hit": false,
      "t": 289927.60500000126,
      "d": 82.58901041664649,
      "v": 58
    },
    {
      "midi": 76,
      "hit": false,
      "t": 290141.89000000054,
      "d": 162.94588541664416,
      "v": 40
    },
    {
      "midi": 63,
      "hit": false,
      "t": 290141.89000000124,
      "d": 1203.1209895833745,
      "v": 83
    },
    {
      "midi": 59,
      "hit": false,
      "t": 290141.89000000124,
      "d": 1243.2994270834024,
      "v": 77
    },
    {
      "midi": 66,
      "hit": false,
      "t": 290141.89000000124,
      "d": 1258.9243750000605,
      "v": 81
    },
    {
      "midi": 83,
      "hit": false,
      "t": 290356.1750000005,
      "d": 214.2849999999744,
      "v": 60
    },
    {
      "midi": 75,
      "hit": false,
      "t": 290570.4600000005,
      "d": 209.82072916667676,
      "v": 57
    },
    {
      "midi": 76,
      "hit": false,
      "t": 290784.7450000005,
      "d": 189.7315104166628,
      "v": 48
    },
    {
      "midi": 83,
      "hit": false,
      "t": 290999.0300000005,
      "d": 236.60635416669538,
      "v": 58
    },
    {
      "midi": 75,
      "hit": false,
      "t": 291427.6000000005,
      "d": 212.05286458332557,
      "v": 91
    },
    {
      "midi": 75,
      "hit": false,
      "t": 291427.6000000013,
      "d": 341.51671875000466,
      "v": 94
    },
    {
      "midi": 76,
      "hit": false,
      "t": 291639.65286458464,
      "d": 453.1234895833768,
      "v": 70
    },
    {
      "midi": 76,
      "hit": false,
      "t": 291641.8850000005,
      "d": 171.87442708335584,
      "v": 82
    },
    {
      "midi": 83,
      "hit": false,
      "t": 291856.1700000005,
      "d": 212.05286458332557,
      "v": 84
    },
    {
      "midi": 83,
      "hit": false,
      "t": 291862.8664062513,
      "d": 223.21354166668607,
      "v": 74
    },
    {
      "midi": 75,
      "hit": false,
      "t": 292065.990729168,
      "d": 2361.599270833307,
      "v": 86
    },
    {
      "midi": 75,
      "hit": false,
      "t": 292070.4550000005,
      "d": 189.7315104166628,
      "v": 82
    },
    {
      "midi": 76,
      "hit": false,
      "t": 292284.74000000046,
      "d": 169.64229166664882,
      "v": 79
    },
    {
      "midi": 76,
      "hit": false,
      "t": 292289.2042708347,
      "d": 2104.9036979165976,
      "v": 71
    },
    {
      "midi": 83,
      "hit": false,
      "t": 292499.02500000043,
      "d": 171.87442708335584,
      "v": 84
    },
    {
      "midi": 83,
      "hit": false,
      "t": 292510.18567708466,
      "d": 1881.6901562499697,
      "v": 74
    },
    {
      "midi": 75,
      "hit": false,
      "t": 292713.31000000046,
      "d": 203.1243229166721,
      "v": 67
    },
    {
      "midi": 76,
      "hit": false,
      "t": 292927.5950000005,
      "d": 176.33869791665347,
      "v": 64
    },
    {
      "midi": 69,
      "hit": false,
      "t": 292927.5950000013,
      "d": 316.96322916669305,
      "v": 74
    },
    {
      "midi": 59,
      "hit": false,
      "t": 292927.5950000013,
      "d": 323.6596354166977,
      "v": 78
    },
    {
      "midi": 64,
      "hit": false,
      "t": 292927.5950000013,
      "d": 328.12390625005355,
      "v": 81
    },
    {
      "midi": 61,
      "hit": false,
      "t": 292927.5950000013,
      "d": 330.35604166670237,
      "v": 83
    },
    {
      "midi": 83,
      "hit": false,
      "t": 293141.88000000047,
      "d": 178.5708333333605,
      "v": 82
    },
    {
      "midi": 75,
      "hit": false,
      "t": 293356.1650000005,
      "d": 207.58859375002794,
      "v": 52
    },
    {
      "midi": 59,
      "hit": false,
      "t": 293356.1650000013,
      "d": 80.35687499999767,
      "v": 76
    },
    {
      "midi": 61,
      "hit": false,
      "t": 293356.1650000013,
      "d": 80.35687499999767,
      "v": 78
    },
    {
      "midi": 64,
      "hit": false,
      "t": 293356.1650000013,
      "d": 87.05328125000233,
      "v": 76
    },
    {
      "midi": 69,
      "hit": false,
      "t": 293356.1650000013,
      "d": 102.67822916666046,
      "v": 73
    },
    {
      "midi": 76,
      "hit": false,
      "t": 293570.45000000054,
      "d": 191.9636458333116,
      "v": 62
    },
    {
      "midi": 59,
      "hit": false,
      "t": 293570.4500000013,
      "d": 1227.674479166686,
      "v": 89
    },
    {
      "midi": 69,
      "hit": false,
      "t": 293570.4500000013,
      "d": 1236.6030208333395,
      "v": 79
    },
    {
      "midi": 61,
      "hit": false,
      "t": 293570.4500000013,
      "d": 1243.2994270833442,
      "v": 89
    },
    {
      "midi": 64,
      "hit": false,
      "t": 293570.4500000013,
      "d": 1254.4601041667047,
      "v": 89
    },
    {
      "midi": 83,
      "hit": false,
      "t": 293784.7350000005,
      "d": 205.35645833332092,
      "v": 64
    },
    {
      "midi": 75,
      "hit": false,
      "t": 293999.0200000005,
      "d": 209.82072916667676,
      "v": 40
    },
    {
      "midi": 76,
      "hit": false,
      "t": 294213.3050000005,
      "d": 214.2849999999744,
      "v": 52
    },
    {
      "midi": 83,
      "hit": false,
      "t": 294427.5900000005,
      "d": 196.42791666666744,
      "v": 45
    },
    {
      "midi": 76,
      "hit": false,
      "t": 294641.87500000047,
      "d": 82.58901041664649,
      "v": 53
    },
    {
      "midi": 75,
      "hit": false,
      "t": 294856.16000000044,
      "d": 218.74927083333023,
      "v": 87
    },
    {
      "midi": 75,
      "hit": false,
      "t": 294856.1600000013,
      "d": 341.51671875000466,
      "v": 94
    },
    {
      "midi": 76,
      "hit": false,
      "t": 295068.21286458464,
      "d": 453.1234895833768,
      "v": 70
    },
    {
      "midi": 76,
      "hit": false,
      "t": 295070.4450000004,
      "d": 160.71374999999534,
      "v": 68
    },
    {
      "midi": 83,
      "hit": false,
      "t": 295284.7300000004,
      "d": 227.6778124999837,
      "v": 79
    },
    {
      "midi": 83,
      "hit": false,
      "t": 295291.4264062513,
      "d": 223.21354166668607,
      "v": 74
    },
    {
      "midi": 75,
      "hit": false,
      "t": 295494.550729168,
      "d": 2361.599270833307,
      "v": 86
    },
    {
      "midi": 75,
      "hit": false,
      "t": 295499.01500000036,
      "d": 207.58859375002794,
      "v": 68
    },
    {
      "midi": 76,
      "hit": false,
      "t": 295713.3000000004,
      "d": 194.19578125001863,
      "v": 79
    },
    {
      "midi": 76,
      "hit": false,
      "t": 295717.7642708347,
      "d": 2104.9036979165976,
      "v": 71
    },
    {
      "midi": 83,
      "hit": false,
      "t": 295927.5850000004,
      "d": 205.35645833332092,
      "v": 87
    },
    {
      "midi": 83,
      "hit": false,
      "t": 295938.74567708466,
      "d": 1881.6901562499697,
      "v": 74
    },
    {
      "midi": 75,
      "hit": false,
      "t": 296141.8700000004,
      "d": 214.2849999999744,
      "v": 69
    },
    {
      "midi": 76,
      "hit": false,
      "t": 296356.1550000004,
      "d": 198.66005208331626,
      "v": 63
    },
    {
      "midi": 59,
      "hit": false,
      "t": 296356.1550000013,
      "d": 323.6596354166395,
      "v": 86
    },
    {
      "midi": 63,
      "hit": false,
      "t": 296356.1550000013,
      "d": 334.8203125,
      "v": 94
    },
    {
      "midi": 66,
      "hit": false,
      "t": 296356.1550000013,
      "d": 334.8203125,
      "v": 86
    },
    {
      "midi": 83,
      "hit": false,
      "t": 296570.44000000035,
      "d": 212.05286458332557,
      "v": 66
    },
    {
      "midi": 75,
      "hit": false,
      "t": 296784.7250000003,
      "d": 238.838489583286,
      "v": 53
    },
    {
      "midi": 63,
      "hit": false,
      "t": 296784.7250000013,
      "d": 64.73192708333954,
      "v": 67
    },
    {
      "midi": 59,
      "hit": false,
      "t": 296784.7250000013,
      "d": 66.96406249998836,
      "v": 65
    },
    {
      "midi": 66,
      "hit": false,
      "t": 296784.7250000013,
      "d": 73.66046874999302,
      "v": 68
    },
    {
      "midi": 76,
      "hit": false,
      "t": 296999.0100000003,
      "d": 214.2849999999744,
      "v": 52
    },
    {
      "midi": 63,
      "hit": false,
      "t": 296999.0100000013,
      "d": 1102.6748958333628,
      "v": 86
    },
    {
      "midi": 66,
      "hit": false,
      "t": 296999.0100000013,
      "d": 1160.7104166666977,
      "v": 78
    },
    {
      "midi": 83,
      "hit": false,
      "t": 297213.2950000003,
      "d": 220.98140624997905,
      "v": 62
    },
    {
      "midi": 75,
      "hit": false,
      "t": 297427.58000000025,
      "d": 236.60635416669538,
      "v": 37
    },
    {
      "midi": 76,
      "hit": false,
      "t": 297641.8650000003,
      "d": 194.19578125001863,
      "v": 36
    },
    {
      "midi": 83,
      "hit": false,
      "t": 297856.1500000003,
      "d": 191.9636458333116,
      "v": 48
    },
    {
      "midi": 75,
      "hit": false,
      "t": 298284.7200000003,
      "d": 227.6778124999837,
      "v": 87
    },
    {
      "midi": 75,
      "hit": false,
      "t": 298284.7200000013,
      "d": 341.51671875000466,
      "v": 94
    },
    {
      "midi": 76,
      "hit": false,
      "t": 298496.77286458464,
      "d": 453.1234895833768,
      "v": 70
    },
    {
      "midi": 76,
      "hit": false,
      "t": 298499.0050000003,
      "d": 169.64229166664882,
      "v": 73
    },
    {
      "midi": 83,
      "hit": false,
      "t": 298713.29000000027,
      "d": 174.10656250000466,
      "v": 87
    },
    {
      "midi": 83,
      "hit": false,
      "t": 298719.9864062513,
      "d": 223.21354166668607,
      "v": 74
    },
    {
      "midi": 75,
      "hit": false,
      "t": 298923.110729168,
      "d": 2361.599270833365,
      "v": 86
    },
    {
      "midi": 75,
      "hit": false,
      "t": 298927.5750000003,
      "d": 196.42791666666744,
      "v": 79
    },
    {
      "midi": 76,
      "hit": false,
      "t": 299141.8600000003,
      "d": 189.7315104166628,
      "v": 79
    },
    {
      "midi": 76,
      "hit": false,
      "t": 299146.3242708347,
      "d": 2104.903697916656,
      "v": 71
    },
    {
      "midi": 83,
      "hit": false,
      "t": 299356.14500000025,
      "d": 220.98140624997905,
      "v": 79
    },
    {
      "midi": 83,
      "hit": false,
      "t": 299367.30567708466,
      "d": 1881.690156250028,
      "v": 74
    },
    {
      "midi": 75,
      "hit": false,
      "t": 299570.4300000002,
      "d": 209.82072916667676,
      "v": 67
    },
    {
      "midi": 76,
      "hit": false,
      "t": 299784.71500000026,
      "d": 196.42791666666744,
      "v": 66
    },
    {
      "midi": 59,
      "hit": false,
      "t": 299784.7150000013,
      "d": 312.4989583333372,
      "v": 78
    },
    {
      "midi": 69,
      "hit": false,
      "t": 299784.7150000013,
      "d": 323.6596354166977,
      "v": 74
    },
    {
      "midi": 61,
      "hit": false,
      "t": 299784.7150000013,
      "d": 328.12390625005355,
      "v": 86
    },
    {
      "midi": 64,
      "hit": false,
      "t": 299784.7150000013,
      "d": 328.12390625005355,
      "v": 81
    },
    {
      "midi": 83,
      "hit": false,
      "t": 299999.00000000023,
      "d": 200.89218750002328,
      "v": 79
    },
    {
      "midi": 75,
      "hit": false,
      "t": 300213.28500000027,
      "d": 203.1243229166721,
      "v": 58
    },
    {
      "midi": 61,
      "hit": false,
      "t": 300213.2850000014,
      "d": 66.96406249998836,
      "v": 73
    },
    {
      "midi": 64,
      "hit": false,
      "t": 300213.2850000014,
      "d": 73.66046874999302,
      "v": 76
    },
    {
      "midi": 59,
      "hit": false,
      "t": 300213.2850000014,
      "d": 75.89260416664183,
      "v": 74
    },
    {
      "midi": 69,
      "hit": false,
      "t": 300213.2850000014,
      "d": 87.05328125000233,
      "v": 71
    },
    {
      "midi": 76,
      "hit": false,
      "t": 300427.5700000003,
      "d": 212.05286458332557,
      "v": 53
    },
    {
      "midi": 59,
      "hit": false,
      "t": 300427.57000000135,
      "d": 1162.9425520833465,
      "v": 78
    },
    {
      "midi": 64,
      "hit": false,
      "t": 300427.57000000135,
      "d": 1176.3353645833558,
      "v": 86
    },
    {
      "midi": 69,
      "hit": false,
      "t": 300427.57000000135,
      "d": 1180.7996354167117,
      "v": 74
    },
    {
      "midi": 61,
      "hit": false,
      "t": 300427.57000000135,
      "d": 1185.2639062500675,
      "v": 86
    },
    {
      "midi": 83,
      "hit": false,
      "t": 300641.8550000003,
      "d": 205.35645833332092,
      "v": 56
    },
    {
      "midi": 75,
      "hit": false,
      "t": 300856.14000000025,
      "d": 209.82072916667676,
      "v": 42
    },
    {
      "midi": 76,
      "hit": false,
      "t": 301070.4250000003,
      "d": 203.1243229166721,
      "v": 52
    },
    {
      "midi": 83,
      "hit": false,
      "t": 301284.7100000003,
      "d": 169.64229166664882,
      "v": 47
    },
    {
      "midi": 75,
      "hit": false,
      "t": 301713.2800000003,
      "d": 205.35645833332092,
      "v": 87
    },
    {
      "midi": 75,
      "hit": false,
      "t": 301713.2800000014,
      "d": 341.51671875000466,
      "v": 94
    },
    {
      "midi": 76,
      "hit": false,
      "t": 301925.33286458475,
      "d": 453.1234895833768,
      "v": 70
    },
    {
      "midi": 76,
      "hit": false,
      "t": 301927.5650000003,
      "d": 169.64229166664882,
      "v": 63
    },
    {
      "midi": 83,
      "hit": false,
      "t": 302141.85000000027,
      "d": 169.64229166664882,
      "v": 82
    },
    {
      "midi": 83,
      "hit": false,
      "t": 302148.54640625144,
      "d": 223.21354166668607,
      "v": 74
    },
    {
      "midi": 75,
      "hit": false,
      "t": 302351.6707291681,
      "d": 2361.599270833365,
      "v": 86
    },
    {
      "midi": 75,
      "hit": false,
      "t": 302356.13500000024,
      "d": 191.9636458333116,
      "v": 76
    },
    {
      "midi": 76,
      "hit": false,
      "t": 302570.4200000002,
      "d": 183.03510416665813,
      "v": 82
    },
    {
      "midi": 76,
      "hit": false,
      "t": 302574.8842708348,
      "d": 2104.903697916656,
      "v": 71
    },
    {
      "midi": 83,
      "hit": false,
      "t": 302784.7050000002,
      "d": 169.64229166664882,
      "v": 87
    },
    {
      "midi": 83,
      "hit": false,
      "t": 302795.8656770848,
      "d": 1881.690156250028,
      "v": 74
    },
    {
      "midi": 75,
      "hit": false,
      "t": 302998.99000000017,
      "d": 203.1243229166721,
      "v": 76
    },
    {
      "midi": 76,
      "hit": false,
      "t": 303213.2750000002,
      "d": 187.49937500001397,
      "v": 62
    },
    {
      "midi": 59,
      "hit": false,
      "t": 303213.2750000014,
      "d": 319.19536458334187,
      "v": 92
    },
    {
      "midi": 63,
      "hit": false,
      "t": 303213.2750000014,
      "d": 328.12390624999534,
      "v": 92
    },
    {
      "midi": 66,
      "hit": false,
      "t": 303213.2750000014,
      "d": 328.12390624999534,
      "v": 86
    },
    {
      "midi": 83,
      "hit": false,
      "t": 303427.56000000023,
      "d": 238.838489583286,
      "v": 68
    },
    {
      "midi": 75,
      "hit": false,
      "t": 303641.8450000002,
      "d": 214.2849999999744,
      "v": 62
    },
    {
      "midi": 59,
      "hit": false,
      "t": 303641.8450000014,
      "d": 58.035520833334886,
      "v": 56
    },
    {
      "midi": 63,
      "hit": false,
      "t": 303641.8450000014,
      "d": 64.73192708333954,
      "v": 65
    },
    {
      "midi": 66,
      "hit": false,
      "t": 303641.8450000014,
      "d": 71.4283333333442,
      "v": 62
    },
    {
      "midi": 76,
      "hit": false,
      "t": 303856.1300000002,
      "d": 174.10656250000466,
      "v": 62
    },
    {
      "midi": 63,
      "hit": false,
      "t": 303856.13000000146,
      "d": 1060.264322916686,
      "v": 86
    },
    {
      "midi": 59,
      "hit": false,
      "t": 303856.13000000146,
      "d": 1102.6748958333628,
      "v": 77
    },
    {
      "midi": 66,
      "hit": false,
      "t": 303856.13000000146,
      "d": 1113.8355729167233,
      "v": 81
    },
    {
      "midi": 83,
      "hit": false,
      "t": 304070.4150000002,
      "d": 194.19578125001863,
      "v": 64
    },
    {
      "midi": 75,
      "hit": false,
      "t": 304284.70000000024,
      "d": 214.2849999999744,
      "v": 58
    },
    {
      "midi": 76,
      "hit": false,
      "t": 304498.9850000002,
      "d": 209.82072916667676,
      "v": 55
    },
    {
      "midi": 83,
      "hit": false,
      "t": 304713.27000000025,
      "d": 191.9636458333116,
      "v": 56
    },
    {
      "midi": 75,
      "hit": false,
      "t": 305141.84000000026,
      "d": 205.35645833332092,
      "v": 82
    },
    {
      "midi": 75,
      "hit": false,
      "t": 305141.84000000154,
      "d": 341.51671875000466,
      "v": 94
    },
    {
      "midi": 76,
      "hit": false,
      "t": 305353.89286458486,
      "d": 453.1234895833768,
      "v": 70
    },
    {
      "midi": 76,
      "hit": false,
      "t": 305356.12500000023,
      "d": 191.9636458333116,
      "v": 71
    },
    {
      "midi": 83,
      "hit": false,
      "t": 305570.4100000002,
      "d": 180.8029687500093,
      "v": 84
    },
    {
      "midi": 83,
      "hit": false,
      "t": 305577.10640625155,
      "d": 223.21354166668607,
      "v": 74
    },
    {
      "midi": 75,
      "hit": false,
      "t": 305780.2307291682,
      "d": 2361.599270833307,
      "v": 86
    },
    {
      "midi": 75,
      "hit": false,
      "t": 305784.69500000024,
      "d": 220.98140624997905,
      "v": 73
    },
    {
      "midi": 76,
      "hit": false,
      "t": 305998.9800000002,
      "d": 203.1243229166721,
      "v": 68
    },
    {
      "midi": 76,
      "hit": false,
      "t": 306003.4442708349,
      "d": 2104.9036979165976,
      "v": 71
    },
    {
      "midi": 83,
      "hit": false,
      "t": 306213.26500000025,
      "d": 212.05286458332557,
      "v": 76
    },
    {
      "midi": 83,
      "hit": false,
      "t": 306224.4256770849,
      "d": 1881.6901562499697,
      "v": 74
    },
    {
      "midi": 75,
      "hit": false,
      "t": 306427.5500000002,
      "d": 258.92770833329996,
      "v": 66
    },
    {
      "midi": 76,
      "hit": false,
      "t": 306641.8350000002,
      "d": 214.2849999999744,
      "v": 64
    },
    {
      "midi": 59,
      "hit": false,
      "t": 306641.83500000153,
      "d": 283.48119791666977,
      "v": 86
    },
    {
      "midi": 64,
      "hit": false,
      "t": 306641.83500000153,
      "d": 299.1061458333279,
      "v": 81
    },
    {
      "midi": 69,
      "hit": false,
      "t": 306641.83500000153,
      "d": 299.1061458333279,
      "v": 73
    },
    {
      "midi": 61,
      "hit": false,
      "t": 306641.83500000153,
      "d": 303.57041666668374,
      "v": 81
    },
    {
      "midi": 83,
      "hit": false,
      "t": 306856.12000000017,
      "d": 207.58859375002794,
      "v": 71
    },
    {
      "midi": 75,
      "hit": false,
      "t": 307070.4050000002,
      "d": 229.90994791663252,
      "v": 61
    },
    {
      "midi": 59,
      "hit": false,
      "t": 307070.40500000154,
      "d": 58.035520833334886,
      "v": 65
    },
    {
      "midi": 61,
      "hit": false,
      "t": 307070.40500000154,
      "d": 60.2676562499837,
      "v": 66
    },
    {
      "midi": 64,
      "hit": false,
      "t": 307070.40500000154,
      "d": 69.19619791663717,
      "v": 66
    },
    {
      "midi": 69,
      "hit": false,
      "t": 307070.40500000154,
      "d": 75.89260416664183,
      "v": 65
    },
    {
      "midi": 76,
      "hit": false,
      "t": 307284.6900000002,
      "d": 187.49937500001397,
      "v": 37
    },
    {
      "midi": 64,
      "hit": false,
      "t": 307284.6900000015,
      "d": 1118.299843750021,
      "v": 86
    },
    {
      "midi": 59,
      "hit": false,
      "t": 307284.6900000015,
      "d": 1120.5319791666698,
      "v": 89
    },
    {
      "midi": 61,
      "hit": false,
      "t": 307284.6900000015,
      "d": 1131.6926562500303,
      "v": 89
    },
    {
      "midi": 69,
      "hit": false,
      "t": 307284.6900000015,
      "d": 1131.6926562500303,
      "v": 77
    },
    {
      "midi": 83,
      "hit": false,
      "t": 307498.9750000002,
      "d": 203.1243229166721,
      "v": 63
    },
    {
      "midi": 75,
      "hit": false,
      "t": 307713.26000000024,
      "d": 207.58859375002794,
      "v": 50
    },
    {
      "midi": 76,
      "hit": false,
      "t": 307927.5450000003,
      "d": 212.05286458332557,
      "v": 41
    },
    {
      "midi": 83,
      "hit": false,
      "t": 308141.83000000025,
      "d": 189.7315104166628,
      "v": 46
    },
    {
      "midi": 75,
      "hit": false,
      "t": 308570.40000000026,
      "d": 234.37421874998836,
      "v": 55
    },
    {
      "midi": 63,
      "hit": false,
      "t": 308570.40000000154,
      "d": 468.7484374999767,
      "v": 103
    },
    {
      "midi": 76,
      "hit": false,
      "t": 308784.68500000023,
      "d": 171.87442708335584,
      "v": 51
    },
    {
      "midi": 64,
      "hit": false,
      "t": 308784.6850000015,
      "d": 477.6769791666884,
      "v": 82
    },
    {
      "midi": 83,
      "hit": false,
      "t": 308998.97000000026,
      "d": 189.7315104166628,
      "v": 51
    },
    {
      "midi": 71,
      "hit": false,
      "t": 308998.9700000015,
      "d": 279.01692708337214,
      "v": 92
    },
    {
      "midi": 75,
      "hit": false,
      "t": 309213.25500000024,
      "d": 183.03510416665813,
      "v": 53
    },
    {
      "midi": 63,
      "hit": false,
      "t": 309213.2550000015,
      "d": 428.570000000007,
      "v": 87
    },
    {
      "midi": 76,
      "hit": false,
      "t": 309427.5400000002,
      "d": 171.87442708335584,
      "v": 45
    },
    {
      "midi": 64,
      "hit": false,
      "t": 309427.54000000155,
      "d": 428.5699999999488,
      "v": 76
    },
    {
      "midi": 83,
      "hit": false,
      "t": 309641.82500000024,
      "d": 196.42791666666744,
      "v": 46
    },
    {
      "midi": 71,
      "hit": false,
      "t": 309641.8250000015,
      "d": 428.5699999999488,
      "v": 83
    },
    {
      "midi": 76,
      "hit": false,
      "t": 309856.1100000002,
      "d": 111.60677083331393,
      "v": 52
    },
    {
      "midi": 75,
      "hit": false,
      "t": 310070.3950000002,
      "d": 212.05286458332557,
      "v": 45
    },
    {
      "midi": 76,
      "hit": false,
      "t": 310284.68000000017,
      "d": 180.8029687500093,
      "v": 45
    },
    {
      "midi": 83,
      "hit": false,
      "t": 310498.9650000002,
      "d": 180.8029687500093,
      "v": 56
    },
    {
      "midi": 71,
      "hit": false,
      "t": 310713.25000000023,
      "d": 234.37421874998836,
      "v": 87
    },
    {
      "midi": 80,
      "hit": false,
      "t": 310713.25000000023,
      "d": 243.30276041664183,
      "v": 95
    },
    {
      "midi": 75,
      "hit": false,
      "t": 310713.25000000023,
      "d": 247.76703124999767,
      "v": 95
    },
    {
      "midi": 59,
      "hit": false,
      "t": 310713.25000000146,
      "d": 249.9991666666465,
      "v": 104
    },
    {
      "midi": 63,
      "hit": false,
      "t": 310713.25000000146,
      "d": 252.2313020832953,
      "v": 96
    },
    {
      "midi": 68,
      "hit": false,
      "t": 310713.25000000146,
      "d": 263.3919791666558,
      "v": 104
    },
    {
      "midi": 71,
      "hit": false,
      "t": 311141.82000000024,
      "d": 136.16026041668374,
      "v": 95
    },
    {
      "midi": 80,
      "hit": false,
      "t": 311141.82000000024,
      "d": 140.62453125003958,
      "v": 95
    },
    {
      "midi": 75,
      "hit": false,
      "t": 311141.82000000024,
      "d": 156.2494791666977,
      "v": 87
    },
    {
      "midi": 68,
      "hit": false,
      "t": 311141.82000000146,
      "d": 140.62453124998137,
      "v": 104
    },
    {
      "midi": 59,
      "hit": false,
      "t": 311141.82000000146,
      "d": 142.8566666666302,
      "v": 100
    },
    {
      "midi": 63,
      "hit": false,
      "t": 311141.82000000146,
      "d": 142.8566666666302,
      "v": 92
    },
    {
      "midi": 71,
      "hit": false,
      "t": 311356.1050000003,
      "d": 466.5163020833279,
      "v": 84
    },
    {
      "midi": 75,
      "hit": false,
      "t": 311356.1050000003,
      "d": 508.92687500000466,
      "v": 87
    },
    {
      "midi": 78,
      "hit": false,
      "t": 311356.1050000003,
      "d": 522.319687500014,
      "v": 95
    },
    {
      "midi": 59,
      "hit": false,
      "t": 311356.10500000144,
      "d": 868.3006770833163,
      "v": 87
    },
    {
      "midi": 63,
      "hit": false,
      "t": 311356.10500000144,
      "d": 868.3006770833163,
      "v": 92
    },
    {
      "midi": 66,
      "hit": false,
      "t": 311356.10500000144,
      "d": 868.3006770833163,
      "v": 104
    },
    {
      "midi": 44,
      "hit": false,
      "t": 312641.81500000035,
      "d": 254.46343750006054,
      "v": 111
    },
    {
      "midi": 56,
      "hit": false,
      "t": 312641.81500000035,
      "d": 254.46343750006054,
      "v": 111
    },
    {
      "midi": 42,
      "hit": false,
      "t": 312856.1000000004,
      "d": 198.66005208337447,
      "v": 105
    },
    {
      "midi": 54,
      "hit": false,
      "t": 312856.1000000004,
      "d": 198.66005208337447,
      "v": 105
    },
    {
      "midi": 40,
      "hit": false,
      "t": 313070.3850000004,
      "d": 241.07062499999302,
      "v": 111
    },
    {
      "midi": 52,
      "hit": false,
      "t": 313070.3850000004,
      "d": 241.07062499999302,
      "v": 111
    },
    {
      "midi": 37,
      "hit": false,
      "t": 313284.6700000004,
      "d": 131.6959895833279,
      "v": 111
    },
    {
      "midi": 49,
      "hit": false,
      "t": 313284.6700000004,
      "d": 131.6959895833279,
      "v": 111
    },
    {
      "midi": 28,
      "hit": false,
      "t": 313498.95500000037,
      "d": 2794.6335416666698,
      "v": 117
    },
    {
      "midi": 40,
      "hit": false,
      "t": 313498.95500000037,
      "d": 2794.6335416666698,
      "v": 117
    },
    {
      "midi": 54,
      "hit": false,
      "t": 313498.9550000014,
      "d": 2723.2052083333256,
      "v": 73
    },
    {
      "midi": 64,
      "hit": false,
      "t": 313498.9550000014,
      "d": 2743.2944270833395,
      "v": 91
    },
    {
      "midi": 56,
      "hit": false,
      "t": 313498.9550000014,
      "d": 2745.5265624999884,
      "v": 79
    },
    {
      "midi": 59,
      "hit": false,
      "t": 313498.9550000014,
      "d": 2745.5265624999884,
      "v": 56
    }
  ]
}