{
  "jsonPath": "Folk/Irish Folk/Christy Moore/lakes-of-pontchartrain.json",
  "path": "Folk\\Irish Folk\\Christy Moore\\Lakes Of Pontchartrain.mid",
  "name": "Lakes Of Pontchartrain",
  "difficulty": "Advanced",
  "bpm": 69.99998833333528,
  "notes": [
    {
      "midi": 60,
      "hit": false,
      "t": 3407.143425,
      "d": 3021.429074999999,
      "v": 39
    },
    {
      "midi": 67,
      "hit": false,
      "t": 3421.429141666667,
      "d": 321.42862499999956,
      "v": 32
    },
    {
      "midi": 72,
      "hit": false,
      "t": 3435.7148583333337,
      "d": 2321.428958333332,
      "v": 59
    },
    {
      "midi": 77,
      "hit": false,
      "t": 3442.857716666667,
      "d": 907.143008333333,
      "v": 63
    },
    {
      "midi": 67,
      "hit": false,
      "t": 3907.143508333333,
      "d": 614.285816666667,
      "v": 64
    },
    {
      "midi": 76,
      "hit": false,
      "t": 4342.857866666666,
      "d": 892.8572916666672,
      "v": 72
    },
    {
      "midi": 67,
      "hit": false,
      "t": 4757.14365,
      "d": 500.00008333333335,
      "v": 61
    },
    {
      "midi": 74,
      "hit": false,
      "t": 5192.858008333334,
      "d": 928.5715833333325,
      "v": 75
    },
    {
      "midi": 67,
      "hit": false,
      "t": 5585.7152166666665,
      "d": 457.1429333333326,
      "v": 62
    },
    {
      "midi": 72,
      "hit": false,
      "t": 6014.286716666666,
      "d": 507.14294166666696,
      "v": 64
    },
    {
      "midi": 67,
      "hit": false,
      "t": 6421.429641666666,
      "d": 107.14287500000046,
      "v": 63
    },
    {
      "midi": 68,
      "hit": false,
      "t": 6800.001133333333,
      "d": 307.14290833333325,
      "v": 48
    },
    {
      "midi": 72,
      "hit": false,
      "t": 6828.572566666667,
      "d": 2771.429033333331,
      "v": 55
    },
    {
      "midi": 77,
      "hit": false,
      "t": 6835.715425,
      "d": 942.8572999999997,
      "v": 59
    },
    {
      "midi": 60,
      "hit": false,
      "t": 6835.715425,
      "d": 2421.428974999997,
      "v": 44
    },
    {
      "midi": 68,
      "hit": false,
      "t": 7307.144075,
      "d": 700.0001166666661,
      "v": 55
    },
    {
      "midi": 76,
      "hit": false,
      "t": 7721.429858333334,
      "d": 835.7144249999992,
      "v": 62
    },
    {
      "midi": 68,
      "hit": false,
      "t": 8150.001358333333,
      "d": 1035.714458333332,
      "v": 55
    },
    {
      "midi": 74,
      "hit": false,
      "t": 8571.429999999998,
      "d": 971.4287333333323,
      "v": 59
    },
    {
      "midi": 48,
      "hit": false,
      "t": 10271.430283333331,
      "d": 1350.0002250000016,
      "v": 51
    },
    {
      "midi": 55,
      "hit": false,
      "t": 10735.716074999998,
      "d": 500.00008333333426,
      "v": 51
    },
    {
      "midi": 60,
      "hit": false,
      "t": 11135.716141666666,
      "d": 521.4286583333342,
      "v": 29
    },
    {
      "midi": 67,
      "hit": false,
      "t": 11135.716141666666,
      "d": 550.0000916666668,
      "v": 63
    },
    {
      "midi": 64,
      "hit": false,
      "t": 11157.144716666666,
      "d": 521.4286583333342,
      "v": 57
    },
    {
      "midi": 55,
      "hit": false,
      "t": 11585.716216666666,
      "d": 457.1429333333326,
      "v": 64
    },
    {
      "midi": 67,
      "hit": false,
      "t": 12021.430574999998,
      "d": 1107.1430416666662,
      "v": 78
    },
    {
      "midi": 47,
      "hit": false,
      "t": 12021.430574999998,
      "d": 1357.1430833333343,
      "v": 53
    },
    {
      "midi": 62,
      "hit": false,
      "t": 12035.716291666666,
      "d": 1064.2858916666664,
      "v": 54
    },
    {
      "midi": 55,
      "hit": false,
      "t": 12450.002074999999,
      "d": 521.4286583333342,
      "v": 60
    },
    {
      "midi": 59,
      "hit": false,
      "t": 12885.716433333333,
      "d": 435.7143583333327,
      "v": 59
    },
    {
      "midi": 55,
      "hit": false,
      "t": 13307.145074999999,
      "d": 100.00001666666685,
      "v": 69
    },
    {
      "midi": 45,
      "hit": false,
      "t": 13728.573716666666,
      "d": 1292.857358333331,
      "v": 55
    },
    {
      "midi": 60,
      "hit": false,
      "t": 13728.573716666666,
      "d": 1342.8573666666634,
      "v": 58
    },
    {
      "midi": 64,
      "hit": false,
      "t": 13735.716574999999,
      "d": 1335.7145083333307,
      "v": 75
    },
    {
      "midi": 52,
      "hit": false,
      "t": 14135.716641666664,
      "d": 535.7143749999996,
      "v": 63
    },
    {
      "midi": 57,
      "hit": false,
      "t": 14614.288149999997,
      "d": 457.1429333333326,
      "v": 64
    },
    {
      "midi": 52,
      "hit": false,
      "t": 15021.431074999997,
      "d": 485.7143666666652,
      "v": 69
    },
    {
      "midi": 64,
      "hit": false,
      "t": 15442.859716666662,
      "d": 871.4287166666654,
      "v": 64
    },
    {
      "midi": 60,
      "hit": false,
      "t": 15450.002574999995,
      "d": 950.0001583333324,
      "v": 49
    },
    {
      "midi": 43,
      "hit": false,
      "t": 15464.288291666662,
      "d": 1300.0002166666654,
      "v": 63
    },
    {
      "midi": 52,
      "hit": false,
      "t": 15878.574074999995,
      "d": 471.42864999999983,
      "v": 61
    },
    {
      "midi": 57,
      "hit": false,
      "t": 16285.716999999995,
      "d": 407.1429249999983,
      "v": 54
    },
    {
      "midi": 52,
      "hit": false,
      "t": 16685.71706666666,
      "d": 85.71429999999964,
      "v": 63
    },
    {
      "midi": 57,
      "hit": false,
      "t": 17135.71714166666,
      "d": 1121.428758333328,
      "v": 44
    },
    {
      "midi": 60,
      "hit": false,
      "t": 17135.71714166666,
      "d": 1135.7144749999934,
      "v": 69
    },
    {
      "midi": 41,
      "hit": false,
      "t": 17150.002858333326,
      "d": 1214.2859166666603,
      "v": 49
    },
    {
      "midi": 48,
      "hit": false,
      "t": 17578.574358333324,
      "d": 478.5715083333307,
      "v": 49
    },
    {
      "midi": 65,
      "hit": false,
      "t": 18007.145858333322,
      "d": 921.4287249999943,
      "v": 66
    },
    {
      "midi": 53,
      "hit": false,
      "t": 18014.288716666655,
      "d": 478.5715083333307,
      "v": 44
    },
    {
      "midi": 48,
      "hit": false,
      "t": 18400.003066666653,
      "d": 528.5715166666632,
      "v": 38
    },
    {
      "midi": 55,
      "hit": false,
      "t": 18871.43171666665,
      "d": 1214.285916666664,
      "v": 38
    },
    {
      "midi": 64,
      "hit": false,
      "t": 18871.43171666665,
      "d": 1250.000208333331,
      "v": 63
    },
    {
      "midi": 40,
      "hit": false,
      "t": 18871.43171666665,
      "d": 1271.4287833333328,
      "v": 39
    },
    {
      "midi": 60,
      "hit": false,
      "t": 18885.717433333317,
      "d": 1200.0001999999986,
      "v": 54
    },
    {
      "midi": 48,
      "hit": false,
      "t": 19278.574641666648,
      "d": 514.2858000000015,
      "v": 55
    },
    {
      "midi": 52,
      "hit": false,
      "t": 19728.574716666648,
      "d": 442.8572166666672,
      "v": 54
    },
    {
      "midi": 48,
      "hit": false,
      "t": 20157.14621666665,
      "d": 64.28572499999791,
      "v": 54
    },
    {
      "midi": 38,
      "hit": false,
      "t": 20614.289149999982,
      "d": 807.1429916666675,
      "v": 44
    },
    {
      "midi": 57,
      "hit": false,
      "t": 20621.432008333315,
      "d": 850.0001416666673,
      "v": 40
    },
    {
      "midi": 65,
      "hit": false,
      "t": 20642.860583333317,
      "d": 900.0001499999962,
      "v": 48
    },
    {
      "midi": 62,
      "hit": false,
      "t": 20657.146299999982,
      "d": 828.5715666666656,
      "v": 61
    },
    {
      "midi": 45,
      "hit": false,
      "t": 21050.003508333317,
      "d": 421.4286416666655,
      "v": 58
    },
    {
      "midi": 50,
      "hit": false,
      "t": 21464.28929166665,
      "d": 450.0000749999963,
      "v": 66
    },
    {
      "midi": 53,
      "hit": false,
      "t": 21885.71793333331,
      "d": 50.000008333336154,
      "v": 58
    },
    {
      "midi": 43,
      "hit": false,
      "t": 22271.432283333314,
      "d": 792.8572749999985,
      "v": 52
    },
    {
      "midi": 59,
      "hit": false,
      "t": 22300.003716666648,
      "d": 492.8572249999961,
      "v": 42
    },
    {
      "midi": 62,
      "hit": false,
      "t": 22314.289433333313,
      "d": 507.14294166666514,
      "v": 56
    },
    {
      "midi": 67,
      "hit": false,
      "t": 22328.57514999998,
      "d": 571.4286666666667,
      "v": 34
    },
    {
      "midi": 50,
      "hit": false,
      "t": 22750.003791666644,
      "d": 435.71435833333453,
      "v": 44
    },
    {
      "midi": 55,
      "hit": false,
      "t": 23207.14672499998,
      "d": 442.8572166666672,
      "v": 72
    },
    {
      "midi": 59,
      "hit": false,
      "t": 23614.28964999998,
      "d": 78.57144166666694,
      "v": 61
    },
    {
      "midi": 72,
      "hit": false,
      "t": 23628.575366666646,
      "d": 214.28575000000274,
      "v": 50
    },
    {
      "midi": 74,
      "hit": false,
      "t": 23814.289683333314,
      "d": 242.85718333333352,
      "v": 63
    },
    {
      "midi": 76,
      "hit": false,
      "t": 24035.71829166665,
      "d": 1092.8573250000009,
      "v": 75
    },
    {
      "midi": 48,
      "hit": false,
      "t": 24035.71829166665,
      "d": 1350.0002250000034,
      "v": 58
    },
    {
      "midi": 72,
      "hit": false,
      "t": 24042.861149999982,
      "d": 1342.8573666666707,
      "v": 57
    },
    {
      "midi": 67,
      "hit": false,
      "t": 24050.004008333315,
      "d": 1350.0002250000034,
      "v": 49
    },
    {
      "midi": 55,
      "hit": false,
      "t": 24464.289791666648,
      "d": 514.2858000000015,
      "v": 50
    },
    {
      "midi": 60,
      "hit": false,
      "t": 24900.004149999982,
      "d": 457.14293333333626,
      "v": 61
    },
    {
      "midi": 55,
      "hit": false,
      "t": 25321.43279166665,
      "d": 407.1429250000001,
      "v": 56
    },
    {
      "midi": 67,
      "hit": false,
      "t": 25728.57571666665,
      "d": 492.85722499999974,
      "v": 61
    },
    {
      "midi": 47,
      "hit": false,
      "t": 25735.718574999984,
      "d": 1307.1430750000036,
      "v": 50
    },
    {
      "midi": 74,
      "hit": false,
      "t": 25742.861433333317,
      "d": 442.8572166666672,
      "v": 66
    },
    {
      "midi": 55,
      "hit": false,
      "t": 26157.14721666665,
      "d": 485.71436666666705,
      "v": 62
    },
    {
      "midi": 79,
      "hit": false,
      "t": 26585.71871666665,
      "d": 364.2857750000003,
      "v": 63
    },
    {
      "midi": 67,
      "hit": false,
      "t": 26585.71871666665,
      "d": 400.0000666666674,
      "v": 64
    },
    {
      "midi": 59,
      "hit": false,
      "t": 26585.71871666665,
      "d": 464.28579166666896,
      "v": 51
    },
    {
      "midi": 55,
      "hit": false,
      "t": 27007.14735833332,
      "d": 78.57144166666694,
      "v": 75
    },
    {
      "midi": 72,
      "hit": false,
      "t": 27421.433141666654,
      "d": 1307.1430749999963,
      "v": 50
    },
    {
      "midi": 45,
      "hit": false,
      "t": 27435.71885833332,
      "d": 571.428666666663,
      "v": 44
    },
    {
      "midi": 69,
      "hit": false,
      "t": 27435.71885833332,
      "d": 1285.7144999999982,
      "v": 59
    },
    {
      "midi": 64,
      "hit": false,
      "t": 27442.86171666665,
      "d": 1242.8573499999984,
      "v": 39
    },
    {
      "midi": 52,
      "hit": false,
      "t": 27842.861783333316,
      "d": 485.71436666666705,
      "v": 53
    },
    {
      "midi": 60,
      "hit": false,
      "t": 28285.718999999983,
      "d": 371.428633333333,
      "v": 38
    },
    {
      "midi": 52,
      "hit": false,
      "t": 28685.71906666665,
      "d": 435.7143583333309,
      "v": 54
    },
    {
      "midi": 71,
      "hit": false,
      "t": 29100.004849999983,
      "d": 950.0001583333287,
      "v": 62
    },
    {
      "midi": 64,
      "hit": false,
      "t": 29114.29056666665,
      "d": 1292.857358333331,
      "v": 57
    },
    {
      "midi": 43,
      "hit": false,
      "t": 29121.43342499998,
      "d": 514.2857999999978,
      "v": 60
    },
    {
      "midi": 52,
      "hit": false,
      "t": 29528.576349999978,
      "d": 521.4286583333342,
      "v": 56
    },
    {
      "midi": 76,
      "hit": false,
      "t": 29978.576424999977,
      "d": 364.2857750000003,
      "v": 60
    },
    {
      "midi": 59,
      "hit": false,
      "t": 29985.71928333331,
      "d": 421.42864166666914,
      "v": 55
    },
    {
      "midi": 52,
      "hit": false,
      "t": 30428.57649999998,
      "d": 71.42858333333425,
      "v": 66
    },
    {
      "midi": 69,
      "hit": false,
      "t": 30828.57656666665,
      "d": 1335.714508333327,
      "v": 53
    },
    {
      "midi": 60,
      "hit": false,
      "t": 30835.71942499998,
      "d": 1307.1430749999963,
      "v": 52
    },
    {
      "midi": 41,
      "hit": false,
      "t": 30842.862283333314,
      "d": 635.7143916666646,
      "v": 60
    },
    {
      "midi": 65,
      "hit": false,
      "t": 30857.14799999998,
      "d": 1292.857358333331,
      "v": 63
    },
    {
      "midi": 48,
      "hit": false,
      "t": 31271.433783333312,
      "d": 478.57150833333435,
      "v": 59
    },
    {
      "midi": 57,
      "hit": false,
      "t": 31685.719566666645,
      "d": 357.1429166666676,
      "v": 40
    },
    {
      "midi": 48,
      "hit": false,
      "t": 32085.719633333312,
      "d": 457.142933333329,
      "v": 51
    },
    {
      "midi": 40,
      "hit": false,
      "t": 32535.71970833331,
      "d": 771.428700000004,
      "v": 58
    },
    {
      "midi": 67,
      "hit": false,
      "t": 32550.005424999974,
      "d": 435.71435833333817,
      "v": 68
    },
    {
      "midi": 60,
      "hit": false,
      "t": 32557.148283333307,
      "d": 507.1429416666724,
      "v": 46
    },
    {
      "midi": 48,
      "hit": false,
      "t": 32935.719774999976,
      "d": 457.14293333333626,
      "v": 42
    },
    {
      "midi": 52,
      "hit": false,
      "t": 33385.71984999998,
      "d": 378.5714916666693,
      "v": 61
    },
    {
      "midi": 72,
      "hit": false,
      "t": 33392.86270833331,
      "d": 314.28576666666777,
      "v": 62
    },
    {
      "midi": 60,
      "hit": false,
      "t": 33400.005566666645,
      "d": 385.714350000002,
      "v": 42
    },
    {
      "midi": 55,
      "hit": false,
      "t": 33835.71992499998,
      "d": 64.28572500000155,
      "v": 66
    },
    {
      "midi": 65,
      "hit": false,
      "t": 34271.43428333332,
      "d": 964.2858749999941,
      "v": 56
    },
    {
      "midi": 38,
      "hit": false,
      "t": 34285.71999999999,
      "d": 785.7144166666621,
      "v": 63
    },
    {
      "midi": 57,
      "hit": false,
      "t": 34285.71999999999,
      "d": 871.4287166666618,
      "v": 49
    },
    {
      "midi": 60,
      "hit": false,
      "t": 34307.148574999985,
      "d": 900.0001499999998,
      "v": 62
    },
    {
      "midi": 45,
      "hit": false,
      "t": 34707.14864166665,
      "d": 428.5714999999982,
      "v": 59
    },
    {
      "midi": 50,
      "hit": false,
      "t": 35135.72014166665,
      "d": 471.4286499999944,
      "v": 60
    },
    {
      "midi": 53,
      "hit": false,
      "t": 35571.43449999998,
      "d": 50.00000833332888,
      "v": 61
    },
    {
      "midi": 68,
      "hit": false,
      "t": 35978.577424999974,
      "d": 500.00008333333244,
      "v": 69
    },
    {
      "midi": 40,
      "hit": false,
      "t": 35985.72028333331,
      "d": 728.5715500000006,
      "v": 46
    },
    {
      "midi": 59,
      "hit": false,
      "t": 36000.00599999997,
      "d": 478.57150833333435,
      "v": 39
    },
    {
      "midi": 64,
      "hit": false,
      "t": 36007.148858333305,
      "d": 235.71432500000083,
      "v": 59
    },
    {
      "midi": 47,
      "hit": false,
      "t": 36421.43464166664,
      "d": 435.71435833333817,
      "v": 51
    },
    {
      "midi": 64,
      "hit": false,
      "t": 36435.7203583333,
      "d": 435.71435833333817,
      "v": 72
    },
    {
      "midi": 52,
      "hit": false,
      "t": 36864.29185833331,
      "d": 457.142933333329,
      "v": 61
    },
    {
      "midi": 68,
      "hit": false,
      "t": 36871.43471666664,
      "d": 478.5715083333271,
      "v": 86
    },
    {
      "midi": 56,
      "hit": false,
      "t": 37278.57764166664,
      "d": 50.00000833332888,
      "v": 55
    },
    {
      "midi": 71,
      "hit": false,
      "t": 37285.720499999974,
      "d": 114.28573333333043,
      "v": 62
    },
    {
      "midi": 45,
      "hit": false,
      "t": 37707.14914166664,
      "d": 835.714424999991,
      "v": 66
    },
    {
      "midi": 72,
      "hit": false,
      "t": 37728.57771666664,
      "d": 1385.7145166666596,
      "v": 66
    },
    {
      "midi": 69,
      "hit": false,
      "t": 37735.72057499997,
      "d": 1221.428774999993,
      "v": 75
    },
    {
      "midi": 64,
      "hit": false,
      "t": 37750.006291666636,
      "d": 942.857299999996,
      "v": 58
    },
    {
      "midi": 52,
      "hit": false,
      "t": 38121.434924999965,
      "d": 471.42865000000165,
      "v": 62
    },
    {
      "midi": 57,
      "hit": false,
      "t": 38550.00642499996,
      "d": 521.4286583333305,
      "v": 69
    },
    {
      "midi": 59,
      "hit": false,
      "t": 38957.14934999996,
      "d": 1435.7145249999958,
      "v": 64
    },
    {
      "midi": 60,
      "hit": false,
      "t": 39421.43514166663,
      "d": 964.2858749999941,
      "v": 78
    },
    {
      "midi": 76,
      "hit": false,
      "t": 39857.14949999996,
      "d": 950.0001583333287,
      "v": 72
    },
    {
      "midi": 64,
      "hit": false,
      "t": 40292.863858333294,
      "d": 100.00001666666503,
      "v": 82
    },
    {
      "midi": 81,
      "hit": false,
      "t": 40292.863858333294,
      "d": 485.71436666666705,
      "v": 78
    },
    {
      "midi": 84,
      "hit": false,
      "t": 40714.29249999996,
      "d": 114.28573333333043,
      "v": 88
    },
    {
      "midi": 40,
      "hit": false,
      "t": 41142.86399999996,
      "d": 842.857283333331,
      "v": 58
    },
    {
      "midi": 76,
      "hit": false,
      "t": 41142.86399999996,
      "d": 1371.4288000000015,
      "v": 51
    },
    {
      "midi": 83,
      "hit": false,
      "t": 41157.14971666662,
      "d": 1450.0002416666757,
      "v": 69
    },
    {
      "midi": 79,
      "hit": false,
      "t": 41171.43543333329,
      "d": 1385.7145166666742,
      "v": 75
    },
    {
      "midi": 47,
      "hit": false,
      "t": 41564.29264166662,
      "d": 457.142933333329,
      "v": 60
    },
    {
      "midi": 52,
      "hit": false,
      "t": 41985.72128333329,
      "d": 471.42865000000165,
      "v": 72
    },
    {
      "midi": 55,
      "hit": false,
      "t": 42407.149924999954,
      "d": 907.1430083333398,
      "v": 66
    },
    {
      "midi": 59,
      "hit": false,
      "t": 42842.8642833333,
      "d": 1064.2858916666592,
      "v": 63
    },
    {
      "midi": 64,
      "hit": false,
      "t": 43278.57864166663,
      "d": 978.5715916666595,
      "v": 72
    },
    {
      "midi": 67,
      "hit": false,
      "t": 43714.29299999996,
      "d": 528.5715166666632,
      "v": 88
    },
    {
      "midi": 55,
      "hit": false,
      "t": 43721.435858333294,
      "d": 364.28577499999665,
      "v": 53
    },
    {
      "midi": 71,
      "hit": false,
      "t": 44164.29307499996,
      "d": 142.8571666666685,
      "v": 64
    },
    {
      "midi": 72,
      "hit": false,
      "t": 44585.72171666662,
      "d": 1278.5716416666546,
      "v": 66
    },
    {
      "midi": 45,
      "hit": false,
      "t": 44592.864574999956,
      "d": 864.2858583333291,
      "v": 56
    },
    {
      "midi": 64,
      "hit": false,
      "t": 44607.15029166662,
      "d": 1142.857333333326,
      "v": 59
    },
    {
      "midi": 69,
      "hit": false,
      "t": 44607.15029166662,
      "d": 1157.1430499999915,
      "v": 85
    },
    {
      "midi": 52,
      "hit": false,
      "t": 45021.436074999954,
      "d": 457.142933333329,
      "v": 64
    },
    {
      "midi": 57,
      "hit": false,
      "t": 45464.29329166662,
      "d": 464.2857916666617,
      "v": 56
    },
    {
      "midi": 60,
      "hit": false,
      "t": 45885.721933333276,
      "d": 1400.0002333333323,
      "v": 61
    },
    {
      "midi": 64,
      "hit": false,
      "t": 46292.864858333276,
      "d": 964.2858750000014,
      "v": 62
    },
    {
      "midi": 76,
      "hit": false,
      "t": 46692.86492499994,
      "d": 985.7144499999995,
      "v": 61
    },
    {
      "midi": 69,
      "hit": false,
      "t": 47135.72214166661,
      "d": 71.42858333333425,
      "v": 58
    },
    {
      "midi": 81,
      "hit": false,
      "t": 47135.72214166661,
      "d": 507.1429416666724,
      "v": 66
    },
    {
      "midi": 84,
      "hit": false,
      "t": 47592.86507499994,
      "d": 107.14287499999773,
      "v": 75
    },
    {
      "midi": 76,
      "hit": false,
      "t": 48000.00799999994,
      "d": 800.0001333333421,
      "v": 48
    },
    {
      "midi": 83,
      "hit": false,
      "t": 48021.43657499994,
      "d": 857.1430000000109,
      "v": 68
    },
    {
      "midi": 79,
      "hit": false,
      "t": 48028.579433333274,
      "d": 835.7144250000129,
      "v": 68
    },
    {
      "midi": 40,
      "hit": false,
      "t": 48028.579433333274,
      "d": 850.0001416666782,
      "v": 55
    },
    {
      "midi": 47,
      "hit": false,
      "t": 48414.29378333328,
      "d": 514.2857999999978,
      "v": 56
    },
    {
      "midi": 52,
      "hit": false,
      "t": 48892.86529166662,
      "d": 450.0000749999963,
      "v": 64
    },
    {
      "midi": 55,
      "hit": false,
      "t": 49307.15107499995,
      "d": 1421.4288083333304,
      "v": 61
    },
    {
      "midi": 59,
      "hit": false,
      "t": 49742.86543333328,
      "d": 971.4287333333341,
      "v": 52
    },
    {
      "midi": 71,
      "hit": false,
      "t": 50157.151216666614,
      "d": 221.42860833333543,
      "v": 49
    },
    {
      "midi": 69,
      "hit": false,
      "t": 50364.294108333284,
      "d": 271.4286166666643,
      "v": 54
    },
    {
      "midi": 64,
      "hit": false,
      "t": 50571.43699999995,
      "d": 85.71429999999964,
      "v": 56
    },
    {
      "midi": 67,
      "hit": false,
      "t": 50585.72271666661,
      "d": 142.8571666666685,
      "v": 72
    },
    {
      "midi": 38,
      "hit": false,
      "t": 51414.29428333328,
      "d": 878.5715749999945,
      "v": 48
    },
    {
      "midi": 60,
      "hit": false,
      "t": 51414.29428333328,
      "d": 1100.0001833333226,
      "v": 46
    },
    {
      "midi": 69,
      "hit": false,
      "t": 51414.29428333328,
      "d": 1200.0001999999877,
      "v": 57
    },
    {
      "midi": 65,
      "hit": false,
      "t": 51421.43714166661,
      "d": 1128.5716166666534,
      "v": 66
    },
    {
      "midi": 45,
      "hit": false,
      "t": 51828.58006666661,
      "d": 485.71436666665977,
      "v": 63
    },
    {
      "midi": 50,
      "hit": false,
      "t": 52285.72299999994,
      "d": 457.142933333329,
      "v": 68
    },
    {
      "midi": 53,
      "hit": false,
      "t": 52685.7230666666,
      "d": 1600.0002666666696,
      "v": 72
    },
    {
      "midi": 57,
      "hit": false,
      "t": 53142.865999999936,
      "d": 1135.7144750000007,
      "v": 75
    },
    {
      "midi": 62,
      "hit": false,
      "t": 54007.15185833327,
      "d": 235.71432500000083,
      "v": 72
    },
    {
      "midi": 59,
      "hit": false,
      "t": 54800.00913333327,
      "d": 921.4287250000052,
      "v": 54
    },
    {
      "midi": 62,
      "hit": false,
      "t": 54814.29484999993,
      "d": 971.4287333333414,
      "v": 68
    },
    {
      "midi": 67,
      "hit": false,
      "t": 54814.29484999993,
      "d": 1035.714458333343,
      "v": 72
    },
    {
      "midi": 43,
      "hit": false,
      "t": 54821.437708333266,
      "d": 1771.4288666666835,
      "v": 66
    },
    {
      "midi": 50,
      "hit": false,
      "t": 55271.43778333327,
      "d": 528.5715166666705,
      "v": 57
    },
    {
      "midi": 55,
      "hit": false,
      "t": 55721.43785833327,
      "d": 471.42865000000893,
      "v": 85
    },
    {
      "midi": 50,
      "hit": false,
      "t": 56135.72364166661,
      "d": 514.2857999999978,
      "v": 63
    },
    {
      "midi": 55,
      "hit": false,
      "t": 56614.29514999995,
      "d": 407.14292499999283,
      "v": 78
    },
    {
      "midi": 59,
      "hit": false,
      "t": 56992.86664166661,
      "d": 850.0001416666637,
      "v": 56
    },
    {
      "midi": 67,
      "hit": false,
      "t": 57000.00949999994,
      "d": 435.7143583333309,
      "v": 75
    },
    {
      "midi": 62,
      "hit": false,
      "t": 57442.866716666605,
      "d": 492.85722499999974,
      "v": 60
    },
    {
      "midi": 71,
      "hit": false,
      "t": 57457.15243333327,
      "d": 435.7143583333309,
      "v": 63
    },
    {
      "midi": 74,
      "hit": false,
      "t": 57878.58107499994,
      "d": 421.4286416666655,
      "v": 69
    },
    {
      "midi": 67,
      "hit": false,
      "t": 57892.8667916666,
      "d": 492.85722499999974,
      "v": 34
    },
    {
      "midi": 55,
      "hit": false,
      "t": 58285.72399999994,
      "d": 735.7144083333405,
      "v": 64
    },
    {
      "midi": 79,
      "hit": false,
      "t": 58307.152574999935,
      "d": 128.5714500000031,
      "v": 68
    },
    {
      "midi": 62,
      "hit": false,
      "t": 58728.58121666661,
      "d": 435.7143583333309,
      "v": 42
    },
    {
      "midi": 79,
      "hit": false,
      "t": 58728.58121666661,
      "d": 478.57150833333435,
      "v": 56
    },
    {
      "midi": 67,
      "hit": false,
      "t": 59142.86699999994,
      "d": 492.85722499999974,
      "v": 54
    },
    {
      "midi": 83,
      "hit": false,
      "t": 59157.152716666606,
      "d": 907.1430083333325,
      "v": 64
    },
    {
      "midi": 71,
      "hit": false,
      "t": 59585.72421666661,
      "d": 542.8572333333286,
      "v": 53
    },
    {
      "midi": 86,
      "hit": false,
      "t": 59600.00993333328,
      "d": 435.7143583333309,
      "v": 60
    },
    {
      "midi": 74,
      "hit": false,
      "t": 60035.72429166661,
      "d": 71.42858333333425,
      "v": 63
    },
    {
      "midi": 91,
      "hit": false,
      "t": 60035.72429166661,
      "d": 92.85715833333234,
      "v": 78
    },
    {
      "midi": 55,
      "hit": false,
      "t": 60914.29586666661,
      "d": 107.14287499999773,
      "v": 69
    },
    {
      "midi": 43,
      "hit": false,
      "t": 60921.43872499994,
      "d": 100.00001666666503,
      "v": 75
    },
    {
      "midi": 76,
      "hit": false,
      "t": 61792.8674416666,
      "d": 1235.714491666673,
      "v": 88
    },
    {
      "midi": 48,
      "hit": false,
      "t": 61800.010299999936,
      "d": 557.1429500000013,
      "v": 61
    },
    {
      "midi": 72,
      "hit": false,
      "t": 61800.010299999936,
      "d": 1214.285916666675,
      "v": 69
    },
    {
      "midi": 67,
      "hit": false,
      "t": 61800.010299999936,
      "d": 1221.4287750000076,
      "v": 69
    },
    {
      "midi": 55,
      "hit": false,
      "t": 62242.86751666661,
      "d": 471.42865000000165,
      "v": 69
    },
    {
      "midi": 64,
      "hit": false,
      "t": 62650.01044166661,
      "d": 464.28579166666896,
      "v": 72
    },
    {
      "midi": 55,
      "hit": false,
      "t": 63078.58194166661,
      "d": 71.42858333332697,
      "v": 75
    },
    {
      "midi": 68,
      "hit": false,
      "t": 63492.86772499994,
      "d": 514.2857999999978,
      "v": 93
    },
    {
      "midi": 52,
      "hit": false,
      "t": 63507.1534416666,
      "d": 500.00008333333244,
      "v": 56
    },
    {
      "midi": 71,
      "hit": false,
      "t": 63928.58208333327,
      "d": 357.14291666666395,
      "v": 69
    },
    {
      "midi": 59,
      "hit": false,
      "t": 63935.7249416666,
      "d": 464.2857916666617,
      "v": 54
    },
    {
      "midi": 77,
      "hit": false,
      "t": 64357.15358333327,
      "d": 471.4286499999944,
      "v": 78
    },
    {
      "midi": 64,
      "hit": false,
      "t": 64371.43929999993,
      "d": 428.5714999999982,
      "v": 64
    },
    {
      "midi": 59,
      "hit": false,
      "t": 64792.8679416666,
      "d": 64.28572499999427,
      "v": 69
    },
    {
      "midi": 72,
      "hit": false,
      "t": 65235.72515833326,
      "d": 1414.2859499999977,
      "v": 62
    },
    {
      "midi": 45,
      "hit": false,
      "t": 65242.868016666594,
      "d": 557.1429500000013,
      "v": 66
    },
    {
      "midi": 69,
      "hit": false,
      "t": 65242.868016666594,
      "d": 1378.5716583333342,
      "v": 68
    },
    {
      "midi": 64,
      "hit": false,
      "t": 65257.15373333326,
      "d": 1314.28593333334,
      "v": 60
    },
    {
      "midi": 52,
      "hit": false,
      "t": 65650.0109416666,
      "d": 478.57150833333435,
      "v": 75
    },
    {
      "midi": 60,
      "hit": false,
      "t": 66057.1538666666,
      "d": 428.5714999999909,
      "v": 78
    },
    {
      "midi": 52,
      "hit": false,
      "t": 66464.2967916666,
      "d": 507.1429416666506,
      "v": 82
    },
    {
      "midi": 43,
      "hit": false,
      "t": 66892.86829166659,
      "d": 1421.428808333323,
      "v": 66
    },
    {
      "midi": 72,
      "hit": false,
      "t": 66914.29686666658,
      "d": 1307.143075,
      "v": 59
    },
    {
      "midi": 64,
      "hit": false,
      "t": 66921.43972499992,
      "d": 1200.0002000000095,
      "v": 59
    },
    {
      "midi": 69,
      "hit": false,
      "t": 66928.58258333325,
      "d": 1285.7145000000019,
      "v": 66
    },
    {
      "midi": 52,
      "hit": false,
      "t": 67335.72550833324,
      "d": 500.000083333347,
      "v": 64
    },
    {
      "midi": 57,
      "hit": false,
      "t": 67750.01129166658,
      "d": 507.14294166666514,
      "v": 62
    },
    {
      "midi": 52,
      "hit": false,
      "t": 68200.01136666659,
      "d": 128.57144999998854,
      "v": 75
    },
    {
      "midi": 65,
      "hit": false,
      "t": 68571.4399999999,
      "d": 1314.2859333333472,
      "v": 66
    },
    {
      "midi": 69,
      "hit": false,
      "t": 68664.29715833324,
      "d": 1335.7145083333307,
      "v": 66
    },
    {
      "midi": 60,
      "hit": false,
      "t": 68671.44001666657,
      "d": 1285.7145000000019,
      "v": 57
    },
    {
      "midi": 41,
      "hit": false,
      "t": 68678.5828749999,
      "d": 564.2858083333413,
      "v": 62
    },
    {
      "midi": 48,
      "hit": false,
      "t": 69085.72579999991,
      "d": 485.71436666666705,
      "v": 59
    },
    {
      "midi": 57,
      "hit": false,
      "t": 69492.86872499992,
      "d": 450.000074999989,
      "v": 62
    },
    {
      "midi": 48,
      "hit": false,
      "t": 69900.01164999991,
      "d": 128.57144999998854,
      "v": 69
    },
    {
      "midi": 67,
      "hit": false,
      "t": 70342.86886666657,
      "d": 757.1429833333386,
      "v": 68
    },
    {
      "midi": 59,
      "hit": false,
      "t": 70350.0117249999,
      "d": 678.571541666679,
      "v": 58
    },
    {
      "midi": 62,
      "hit": false,
      "t": 70357.15458333323,
      "d": 700.0001166666771,
      "v": 85
    },
    {
      "midi": 43,
      "hit": false,
      "t": 70357.15458333323,
      "d": 1321.4287916666653,
      "v": 68
    },
    {
      "midi": 50,
      "hit": false,
      "t": 70764.29750833324,
      "d": 457.14293333333626,
      "v": 68
    },
    {
      "midi": 55,
      "hit": false,
      "t": 71185.72614999991,
      "d": 435.7143583333236,
      "v": 85
    },
    {
      "midi": 50,
      "hit": false,
      "t": 71592.86907499991,
      "d": 78.57144166665967,
      "v": 82
    },
    {
      "midi": 48,
      "hit": false,
      "t": 72028.58343333323,
      "d": 1514.2859666666773,
      "v": 60
    },
    {
      "midi": 72,
      "hit": false,
      "t": 72028.58343333323,
      "d": 1814.286016666665,
      "v": 59
    },
    {
      "midi": 67,
      "hit": false,
      "t": 72028.58343333323,
      "d": 3214.2862499999756,
      "v": 64
    },
    {
      "midi": 77,
      "hit": false,
      "t": 72035.72629166656,
      "d": 964.285875000016,
      "v": 64
    },
    {
      "midi": 55,
      "hit": false,
      "t": 72471.4406499999,
      "d": 535.7143750000105,
      "v": 72
    },
    {
      "midi": 76,
      "hit": false,
      "t": 72900.01214999991,
      "d": 928.5715833333234,
      "v": 75
    },
    {
      "midi": 60,
      "hit": false,
      "t": 72907.15500833324,
      "d": 485.71436666666705,
      "v": 59
    },
    {
      "midi": 55,
      "hit": false,
      "t": 73321.44079166658,
      "d": 507.1429416666506,
      "v": 64
    },
    {
      "midi": 74,
      "hit": false,
      "t": 73757.1551499999,
      "d": 957.1430166666396,
      "v": 88
    },
    {
      "midi": 64,
      "hit": false,
      "t": 73764.29800833324,
      "d": 442.8572166666563,
      "v": 64
    },
    {
      "midi": 55,
      "hit": false,
      "t": 74185.7266499999,
      "d": 478.5715083333198,
      "v": 64
    },
    {
      "midi": 72,
      "hit": false,
      "t": 74614.29814999989,
      "d": 578.5715249999921,
      "v": 69
    },
    {
      "midi": 60,
      "hit": false,
      "t": 74621.44100833322,
      "d": 528.5715166666632,
      "v": 59
    },
    {
      "midi": 55,
      "hit": false,
      "t": 75035.72679166654,
      "d": 471.4286499999871,
      "v": 78
    },
    {
      "midi": 47,
      "hit": false,
      "t": 75464.29829166654,
      "d": 985.714450000014,
      "v": 66
    },
    {
      "midi": 71,
      "hit": false,
      "t": 75471.44114999987,
      "d": 2871.429050000006,
      "v": 78
    },
    {
      "midi": 65,
      "hit": false,
      "t": 75485.72686666653,
      "d": 1378.5716583333415,
      "v": 69
    },
    {
      "midi": 59,
      "hit": false,
      "t": 75914.29836666654,
      "d": 528.5715166666778,
      "v": 55
    },
    {
      "midi": 62,
      "hit": false,
      "t": 76350.01272499988,
      "d": 471.42865000000165,
      "v": 64
    },
    {
      "midi": 59,
      "hit": false,
      "t": 76757.15564999988,
      "d": 507.1429416666506,
      "v": 64
    },
    {
      "midi": 52,
      "hit": false,
      "t": 77200.01286666654,
      "d": 1342.8573666666634,
      "v": 57
    },
    {
      "midi": 68,
      "hit": false,
      "t": 77207.15572499987,
      "d": 1092.8573250000045,
      "v": 93
    },
    {
      "midi": 59,
      "hit": false,
      "t": 77650.01294166654,
      "d": 500.00008333333244,
      "v": 62
    },
    {
      "midi": 64,
      "hit": false,
      "t": 78100.01301666655,
      "d": 385.71434999999474,
      "v": 62
    },
    {
      "midi": 59,
      "hit": false,
      "t": 78500.01308333321,
      "d": 71.42858333332697,
      "v": 72
    },
    {
      "midi": 69,
      "hit": false,
      "t": 78907.1560083332,
      "d": 607.1429583333229,
      "v": 72
    },
    {
      "midi": 57,
      "hit": false,
      "t": 78914.29886666653,
      "d": 485.71436666666705,
      "v": 53
    },
    {
      "midi": 64,
      "hit": false,
      "t": 78914.29886666653,
      "d": 557.142949999994,
      "v": 69
    },
    {
      "midi": 72,
      "hit": false,
      "t": 78914.29886666653,
      "d": 585.7143833333248,
      "v": 75
    },
    {
      "midi": 45,
      "hit": false,
      "t": 78921.44172499987,
      "d": 492.85722499999974,
      "v": 53
    },
    {
      "midi": 43,
      "hit": false,
      "t": 79814.29901666653,
      "d": 442.8572166666563,
      "v": 75
    },
    {
      "midi": 55,
      "hit": false,
      "t": 79814.29901666653,
      "d": 450.000074999989,
      "v": 58
    },
    {
      "midi": 72,
      "hit": false,
      "t": 79814.29901666653,
      "d": 550.0000916666468,
      "v": 93
    },
    {
      "midi": 64,
      "hit": false,
      "t": 79821.44187499986,
      "d": 500.0000833333179,
      "v": 85
    },
    {
      "midi": 69,
      "hit": false,
      "t": 79821.44187499986,
      "d": 528.5715166666487,
      "v": 88
    },
    {
      "midi": 42,
      "hit": false,
      "t": 80678.58487499984,
      "d": 1178.5716249999969,
      "v": 50
    },
    {
      "midi": 54,
      "hit": false,
      "t": 80685.72773333317,
      "d": 1092.8573250000045,
      "v": 51
    },
    {
      "midi": 72,
      "hit": false,
      "t": 80685.72773333317,
      "d": 1135.7144750000007,
      "v": 60
    },
    {
      "midi": 69,
      "hit": false,
      "t": 80685.72773333317,
      "d": 1157.1430499999988,
      "v": 66
    },
    {
      "midi": 50,
      "hit": false,
      "t": 80692.8705916665,
      "d": 1078.571608333339,
      "v": 61
    },
    {
      "midi": 62,
      "hit": false,
      "t": 80700.01344999984,
      "d": 1157.1430499999988,
      "v": 49
    },
    {
      "midi": 65,
      "hit": false,
      "t": 82328.58514999984,
      "d": 1321.42879166668,
      "v": 82
    },
    {
      "midi": 57,
      "hit": false,
      "t": 82328.58514999984,
      "d": 1328.5716500000126,
      "v": 36
    },
    {
      "midi": 38,
      "hit": false,
      "t": 82335.72800833317,
      "d": 557.1429500000086,
      "v": 62
    },
    {
      "midi": 60,
      "hit": false,
      "t": 82350.01372499984,
      "d": 1285.7145000000164,
      "v": 85
    },
    {
      "midi": 45,
      "hit": false,
      "t": 82785.72808333318,
      "d": 535.7143750000105,
      "v": 72
    },
    {
      "midi": 53,
      "hit": false,
      "t": 83221.44244166651,
      "d": 850.0001416666637,
      "v": 88
    },
    {
      "midi": 45,
      "hit": false,
      "t": 83628.58536666652,
      "d": 92.85715833332506,
      "v": 69
    },
    {
      "midi": 43,
      "hit": false,
      "t": 84085.72829999984,
      "d": 1342.8573666666634,
      "v": 62
    },
    {
      "midi": 59,
      "hit": false,
      "t": 84100.01401666651,
      "d": 421.4286416666728,
      "v": 61
    },
    {
      "midi": 62,
      "hit": false,
      "t": 84100.01401666651,
      "d": 435.71435833333817,
      "v": 75
    },
    {
      "midi": 67,
      "hit": false,
      "t": 84100.01401666651,
      "d": 450.00007500000356,
      "v": 82
    },
    {
      "midi": 50,
      "hit": false,
      "t": 84528.58551666651,
      "d": 514.2857999999978,
      "v": 56
    },
    {
      "midi": 71,
      "hit": false,
      "t": 84964.29987499985,
      "d": 307.1429083333205,
      "v": 90
    },
    {
      "midi": 53,
      "hit": false,
      "t": 84971.44273333318,
      "d": 442.8572166666563,
      "v": 63
    },
    {
      "midi": 50,
      "hit": false,
      "t": 85407.15709166651,
      "d": 42.85714999999618,
      "v": 62
    },
    {
      "midi": 60,
      "hit": false,
      "t": 85807.15715833317,
      "d": 2835.714758333328,
      "v": 44
    },
    {
      "midi": 77,
      "hit": false,
      "t": 85828.58573333317,
      "d": 907.1430083333253,
      "v": 60
    },
    {
      "midi": 72,
      "hit": false,
      "t": 85835.7285916665,
      "d": 2214.286083333325,
      "v": 59
    },
    {
      "midi": 67,
      "hit": false,
      "t": 86235.72865833316,
      "d": 578.5715249999921,
      "v": 46
    },
    {
      "midi": 76,
      "hit": false,
      "t": 86635.72872499982,
      "d": 942.8573000000033,
      "v": 69
    },
    {
      "midi": 67,
      "hit": false,
      "t": 87085.72879999982,
      "d": 478.57150833333435,
      "v": 52
    },
    {
      "midi": 74,
      "hit": false,
      "t": 87500.01458333316,
      "d": 971.4287333333341,
      "v": 82
    },
    {
      "midi": 67,
      "hit": false,
      "t": 87921.44322499982,
      "d": 464.28579166666896,
      "v": 62
    },
    {
      "midi": 72,
      "hit": false,
      "t": 88378.58615833316,
      "d": 542.8572333333432,
      "v": 75
    },
    {
      "midi": 67,
      "hit": false,
      "t": 88792.8719416665,
      "d": 128.5714500000031,
      "v": 52
    },
    {
      "midi": 68,
      "hit": false,
      "t": 89192.87200833317,
      "d": 285.71433333332243,
      "v": 42
    },
    {
      "midi": 77,
      "hit": false,
      "t": 89214.30058333317,
      "d": 935.7144416666561,
      "v": 62
    },
    {
      "midi": 72,
      "hit": false,
      "t": 89214.30058333317,
      "d": 2071.4289166666567,
      "v": 56
    },
    {
      "midi": 60,
      "hit": false,
      "t": 89221.4434416665,
      "d": 2121.4289249999856,
      "v": 50
    },
    {
      "midi": 68,
      "hit": false,
      "t": 89657.15779999983,
      "d": 628.5715333333355,
      "v": 51
    },
    {
      "midi": 76,
      "hit": false,
      "t": 90078.5864416665,
      "d": 857.1429999999964,
      "v": 66
    },
    {
      "midi": 68,
      "hit": false,
      "t": 90464.3007916665,
      "d": 900.0001499999926,
      "v": 56
    },
    {
      "midi": 74,
      "hit": false,
      "t": 90878.58657499983,
      "d": 450.000074999989,
      "v": 60
    },
    {
      "midi": 72,
      "hit": false,
      "t": 92200.01536666648,
      "d": 214.28574999999546,
      "v": 42
    },
    {
      "midi": 74,
      "hit": false,
      "t": 92392.87254166648,
      "d": 271.42861666665704,
      "v": 64
    },
    {
      "midi": 48,
      "hit": false,
      "t": 92571.44399999981,
      "d": 1350.000224999967,
      "v": 51
    },
    {
      "midi": 76,
      "hit": false,
      "t": 92607.15829166648,
      "d": 1250.0002083333093,
      "v": 66
    },
    {
      "midi": 55,
      "hit": false,
      "t": 93035.72979166647,
      "d": 500.0000833333179,
      "v": 51
    },
    {
      "midi": 60,
      "hit": false,
      "t": 93435.72985833313,
      "d": 521.428658333316,
      "v": 29
    },
    {
      "midi": 67,
      "hit": false,
      "t": 93435.72985833313,
      "d": 550.0000916666468,
      "v": 63
    },
    {
      "midi": 64,
      "hit": false,
      "t": 93457.15843333313,
      "d": 521.428658333316,
      "v": 57
    },
    {
      "midi": 55,
      "hit": false,
      "t": 93885.72993333312,
      "d": 457.1429333333217,
      "v": 64
    },
    {
      "midi": 67,
      "hit": false,
      "t": 94321.44429166644,
      "d": 1107.14304166667,
      "v": 78
    },
    {
      "midi": 47,
      "hit": false,
      "t": 94321.44429166644,
      "d": 1357.1430833333288,
      "v": 53
    },
    {
      "midi": 62,
      "hit": false,
      "t": 94335.7300083331,
      "d": 1064.2858916666737,
      "v": 54
    },
    {
      "midi": 55,
      "hit": false,
      "t": 94750.01579166645,
      "d": 521.4286583333305,
      "v": 60
    },
    {
      "midi": 59,
      "hit": false,
      "t": 95185.73014999977,
      "d": 435.71435833333817,
      "v": 59
    },
    {
      "midi": 55,
      "hit": false,
      "t": 95607.15879166644,
      "d": 100.00001666665776,
      "v": 69
    },
    {
      "midi": 45,
      "hit": false,
      "t": 96028.5874333331,
      "d": 1292.85735833332,
      "v": 55
    },
    {
      "midi": 60,
      "hit": false,
      "t": 96028.5874333331,
      "d": 1342.8573666666489,
      "v": 58
    },
    {
      "midi": 64,
      "hit": false,
      "t": 96035.73029166643,
      "d": 1335.7145083333162,
      "v": 75
    },
    {
      "midi": 52,
      "hit": false,
      "t": 96435.7303583331,
      "d": 535.7143749999959,
      "v": 63
    },
    {
      "midi": 57,
      "hit": false,
      "t": 96914.30186666643,
      "d": 457.1429333333217,
      "v": 64
    },
    {
      "midi": 52,
      "hit": false,
      "t": 97321.44479166642,
      "d": 485.7143666666525,
      "v": 69
    },
    {
      "midi": 64,
      "hit": false,
      "t": 97742.87343333308,
      "d": 871.4287166666472,
      "v": 64
    },
    {
      "midi": 60,
      "hit": false,
      "t": 97750.01629166641,
      "d": 950.0001583333069,
      "v": 49
    },
    {
      "midi": 43,
      "hit": false,
      "t": 97764.30200833308,
      "d": 1300.0002166666382,
      "v": 63
    },
    {
      "midi": 52,
      "hit": false,
      "t": 98178.5877916664,
      "d": 471.4286499999871,
      "v": 61
    },
    {
      "midi": 57,
      "hit": false,
      "t": 98585.7307166664,
      "d": 407.14292499999283,
      "v": 54
    },
    {
      "midi": 52,
      "hit": false,
      "t": 98985.73078333306,
      "d": 85.71429999999236,
      "v": 63
    },
    {
      "midi": 57,
      "hit": false,
      "t": 99435.73085833305,
      "d": 1121.4287583333498,
      "v": 44
    },
    {
      "midi": 60,
      "hit": false,
      "t": 99435.73085833305,
      "d": 1135.7144750000152,
      "v": 69
    },
    {
      "midi": 41,
      "hit": false,
      "t": 99450.01657499971,
      "d": 1214.2859166666894,
      "v": 49
    },
    {
      "midi": 48,
      "hit": false,
      "t": 99878.58807499973,
      "d": 478.57150833333435,
      "v": 49
    },
    {
      "midi": 65,
      "hit": false,
      "t": 100307.15957499974,
      "d": 921.4287249999907,
      "v": 66
    },
    {
      "midi": 53,
      "hit": false,
      "t": 100314.30243333307,
      "d": 478.57150833333435,
      "v": 44
    },
    {
      "midi": 48,
      "hit": false,
      "t": 100700.01678333306,
      "d": 528.5715166666632,
      "v": 38
    },
    {
      "midi": 55,
      "hit": false,
      "t": 101171.44543333307,
      "d": 1214.2859166666603,
      "v": 38
    },
    {
      "midi": 64,
      "hit": false,
      "t": 101171.44543333307,
      "d": 1250.0002083333238,
      "v": 63
    },
    {
      "midi": 40,
      "hit": false,
      "t": 101171.44543333307,
      "d": 1271.428783333322,
      "v": 39
    },
    {
      "midi": 60,
      "hit": false,
      "t": 101185.73114999973,
      "d": 1200.000199999995,
      "v": 54
    },
    {
      "midi": 48,
      "hit": false,
      "t": 101578.58835833306,
      "d": 514.2857999999978,
      "v": 55
    },
    {
      "midi": 52,
      "hit": false,
      "t": 102028.58843333306,
      "d": 442.8572166666563,
      "v": 54
    },
    {
      "midi": 48,
      "hit": false,
      "t": 102457.15993333305,
      "d": 64.28572499999427,
      "v": 54
    },
    {
      "midi": 38,
      "hit": false,
      "t": 102914.30286666637,
      "d": 807.142991666653,
      "v": 44
    },
    {
      "midi": 57,
      "hit": false,
      "t": 102921.4457249997,
      "d": 850.0001416666491,
      "v": 40
    },
    {
      "midi": 65,
      "hit": false,
      "t": 102942.8742999997,
      "d": 900.000149999978,
      "v": 48
    },
    {
      "midi": 62,
      "hit": false,
      "t": 102957.16001666637,
      "d": 828.571566666651,
      "v": 61
    },
    {
      "midi": 45,
      "hit": false,
      "t": 103350.0172249997,
      "d": 421.4286416666582,
      "v": 58
    },
    {
      "midi": 50,
      "hit": false,
      "t": 103764.30300833302,
      "d": 450.000074999989,
      "v": 66
    },
    {
      "midi": 53,
      "hit": false,
      "t": 104185.73164999968,
      "d": 50.00000833332888,
      "v": 58
    },
    {
      "midi": 43,
      "hit": false,
      "t": 104571.44599999968,
      "d": 792.857274999973,
      "v": 52
    },
    {
      "midi": 59,
      "hit": false,
      "t": 104600.017433333,
      "d": 492.8572249999852,
      "v": 42
    },
    {
      "midi": 62,
      "hit": false,
      "t": 104614.30314999967,
      "d": 507.1429416666506,
      "v": 56
    },
    {
      "midi": 67,
      "hit": false,
      "t": 104628.58886666634,
      "d": 571.4286666666449,
      "v": 34
    },
    {
      "midi": 50,
      "hit": false,
      "t": 105050.017508333,
      "d": 435.7143583333236,
      "v": 44
    },
    {
      "midi": 55,
      "hit": false,
      "t": 105507.16044166632,
      "d": 442.8572166666563,
      "v": 72
    },
    {
      "midi": 59,
      "hit": false,
      "t": 105914.30336666631,
      "d": 78.57144166665967,
      "v": 61
    },
    {
      "midi": 76,
      "hit": false,
      "t": 105914.30336666631,
      "d": 221.42860833332816,
      "v": 39
    },
    {
      "midi": 84,
      "hit": false,
      "t": 105935.73194166631,
      "d": 235.71432499999355,
      "v": 63
    },
    {
      "midi": 77,
      "hit": false,
      "t": 106121.44625833297,
      "d": 250.00004166665894,
      "v": 53
    },
    {
      "midi": 86,
      "hit": false,
      "t": 106150.0176916663,
      "d": 235.71432499999355,
      "v": 63
    },
    {
      "midi": 48,
      "hit": false,
      "t": 106335.73200833297,
      "d": 1350.000224999967,
      "v": 58
    },
    {
      "midi": 76,
      "hit": false,
      "t": 106335.73200833297,
      "d": 1364.2859416666324,
      "v": 63
    },
    {
      "midi": 72,
      "hit": false,
      "t": 106342.8748666663,
      "d": 1342.8573666666343,
      "v": 57
    },
    {
      "midi": 67,
      "hit": false,
      "t": 106350.01772499963,
      "d": 1350.000224999967,
      "v": 49
    },
    {
      "midi": 79,
      "hit": false,
      "t": 106357.16058333297,
      "d": 1507.143108333301,
      "v": 53
    },
    {
      "midi": 88,
      "hit": false,
      "t": 106364.3034416663,
      "d": 1500.0002499999682,
      "v": 69
    },
    {
      "midi": 55,
      "hit": false,
      "t": 106764.30350833296,
      "d": 514.2857999999833,
      "v": 50
    },
    {
      "midi": 60,
      "hit": false,
      "t": 107200.01786666628,
      "d": 457.1429333333217,
      "v": 61
    },
    {
      "midi": 55,
      "hit": false,
      "t": 107621.44650833294,
      "d": 407.14292499999283,
      "v": 56
    },
    {
      "midi": 67,
      "hit": false,
      "t": 108028.58943333293,
      "d": 492.85722499999974,
      "v": 61
    },
    {
      "midi": 47,
      "hit": false,
      "t": 108035.73229166627,
      "d": 1307.1430749999854,
      "v": 50
    },
    {
      "midi": 74,
      "hit": false,
      "t": 108042.8751499996,
      "d": 442.85721666667087,
      "v": 66
    },
    {
      "midi": 55,
      "hit": false,
      "t": 108457.16093333294,
      "d": 485.7143666666525,
      "v": 62
    },
    {
      "midi": 79,
      "hit": false,
      "t": 108885.73243333293,
      "d": 364.28577499999665,
      "v": 63
    },
    {
      "midi": 67,
      "hit": false,
      "t": 108885.73243333293,
      "d": 400.00006666666013,
      "v": 64
    },
    {
      "midi": 59,
      "hit": false,
      "t": 108885.73243333293,
      "d": 464.2857916666544,
      "v": 51
    },
    {
      "midi": 55,
      "hit": false,
      "t": 109307.16107499959,
      "d": 78.57144166665967,
      "v": 75
    },
    {
      "midi": 72,
      "hit": false,
      "t": 109721.44685833291,
      "d": 1307.143075,
      "v": 50
    },
    {
      "midi": 45,
      "hit": false,
      "t": 109735.73257499958,
      "d": 571.428666666674,
      "v": 44
    },
    {
      "midi": 69,
      "hit": false,
      "t": 109735.73257499958,
      "d": 1285.7145000000019,
      "v": 59
    },
    {
      "midi": 64,
      "hit": false,
      "t": 109742.87543333291,
      "d": 1242.8573500000057,
      "v": 39
    },
    {
      "midi": 52,
      "hit": false,
      "t": 110142.87549999959,
      "d": 485.71436666666705,
      "v": 53
    },
    {
      "midi": 60,
      "hit": false,
      "t": 110585.73271666626,
      "d": 371.42863333332934,
      "v": 38
    },
    {
      "midi": 52,
      "hit": false,
      "t": 110985.73278333292,
      "d": 435.7143583333236,
      "v": 54
    },
    {
      "midi": 71,
      "hit": false,
      "t": 111400.01856666624,
      "d": 950.0001583333215,
      "v": 62
    },
    {
      "midi": 64,
      "hit": false,
      "t": 111414.30428333291,
      "d": 1292.85735833332,
      "v": 57
    },
    {
      "midi": 43,
      "hit": false,
      "t": 111421.44714166624,
      "d": 514.2857999999978,
      "v": 60
    },
    {
      "midi": 52,
      "hit": false,
      "t": 111828.59006666623,
      "d": 521.4286583333305,
      "v": 56
    },
    {
      "midi": 76,
      "hit": false,
      "t": 112278.59014166624,
      "d": 364.28577499999665,
      "v": 60
    },
    {
      "midi": 59,
      "hit": false,
      "t": 112285.73299999957,
      "d": 421.4286416666582,
      "v": 55
    },
    {
      "midi": 52,
      "hit": false,
      "t": 112728.59021666623,
      "d": 71.42858333332697,
      "v": 66
    },
    {
      "midi": 69,
      "hit": false,
      "t": 113128.59028333289,
      "d": 1335.7145083333162,
      "v": 53
    },
    {
      "midi": 60,
      "hit": false,
      "t": 113135.73314166622,
      "d": 1307.1430749999854,
      "v": 52
    },
    {
      "midi": 41,
      "hit": false,
      "t": 113142.87599999955,
      "d": 635.7143916666682,
      "v": 60
    },
    {
      "midi": 65,
      "hit": false,
      "t": 113142.87599999955,
      "d": 1292.85735833332,
      "v": 63
    },
    {
      "midi": 48,
      "hit": false,
      "t": 113571.44749999956,
      "d": 478.5715083333198,
      "v": 59
    },
    {
      "midi": 57,
      "hit": false,
      "t": 113985.73328333288,
      "d": 357.14291666666395,
      "v": 40
    },
    {
      "midi": 48,
      "hit": false,
      "t": 114385.73334999954,
      "d": 457.1429333333217,
      "v": 51
    },
    {
      "midi": 40,
      "hit": false,
      "t": 114835.73342499953,
      "d": 771.4286999999749,
      "v": 58
    },
    {
      "midi": 67,
      "hit": false,
      "t": 114850.0191416662,
      "d": 435.7143583333236,
      "v": 68
    },
    {
      "midi": 60,
      "hit": false,
      "t": 114857.16199999953,
      "d": 507.1429416666506,
      "v": 46
    },
    {
      "midi": 48,
      "hit": false,
      "t": 115235.7334916662,
      "d": 457.14293333330716,
      "v": 42
    },
    {
      "midi": 52,
      "hit": false,
      "t": 115685.73356666617,
      "d": 378.57149166666204,
      "v": 61
    },
    {
      "midi": 72,
      "hit": false,
      "t": 115692.8764249995,
      "d": 314.28576666666777,
      "v": 62
    },
    {
      "midi": 60,
      "hit": false,
      "t": 115700.01928333283,
      "d": 385.71434999999474,
      "v": 42
    },
    {
      "midi": 55,
      "hit": false,
      "t": 116135.73364166616,
      "d": 64.28572499999427,
      "v": 66
    },
    {
      "midi": 65,
      "hit": false,
      "t": 116571.44799999948,
      "d": 964.2858749999723,
      "v": 56
    },
    {
      "midi": 38,
      "hit": false,
      "t": 116585.73371666615,
      "d": 785.7144166666549,
      "v": 63
    },
    {
      "midi": 57,
      "hit": false,
      "t": 116585.73371666615,
      "d": 871.4287166666472,
      "v": 49
    },
    {
      "midi": 60,
      "hit": false,
      "t": 116607.16229166614,
      "d": 900.000149999978,
      "v": 62
    },
    {
      "midi": 45,
      "hit": false,
      "t": 117007.1623583328,
      "d": 428.5714999999909,
      "v": 59
    },
    {
      "midi": 50,
      "hit": false,
      "t": 117435.7338583328,
      "d": 471.4286499999871,
      "v": 60
    },
    {
      "midi": 53,
      "hit": false,
      "t": 117871.44821666612,
      "d": 50.00000833332888,
      "v": 61
    },
    {
      "midi": 68,
      "hit": false,
      "t": 118278.59114166611,
      "d": 500.0000833333179,
      "v": 69
    },
    {
      "midi": 40,
      "hit": false,
      "t": 118285.73399999944,
      "d": 728.5715499999787,
      "v": 46
    },
    {
      "midi": 59,
      "hit": false,
      "t": 118300.01971666611,
      "d": 478.5715083333198,
      "v": 39
    },
    {
      "midi": 64,
      "hit": false,
      "t": 118307.16257499944,
      "d": 235.71432499999355,
      "v": 59
    },
    {
      "midi": 47,
      "hit": false,
      "t": 118721.44835833277,
      "d": 435.7143583333236,
      "v": 51
    },
    {
      "midi": 64,
      "hit": false,
      "t": 118735.73407499943,
      "d": 435.7143583333236,
      "v": 72
    },
    {
      "midi": 52,
      "hit": false,
      "t": 119164.30557499942,
      "d": 457.1429333333217,
      "v": 61
    },
    {
      "midi": 68,
      "hit": false,
      "t": 119171.44843333276,
      "d": 478.5715083333198,
      "v": 86
    },
    {
      "midi": 56,
      "hit": false,
      "t": 119578.59135833275,
      "d": 50.00000833332888,
      "v": 55
    },
    {
      "midi": 71,
      "hit": false,
      "t": 119585.73421666608,
      "d": 114.28573333332315,
      "v": 62
    },
    {
      "midi": 45,
      "hit": false,
      "t": 120007.16285833274,
      "d": 835.7144249999983,
      "v": 66
    },
    {
      "midi": 72,
      "hit": false,
      "t": 120028.59143333274,
      "d": 1385.7145166666742,
      "v": 66
    },
    {
      "midi": 69,
      "hit": false,
      "t": 120035.73429166607,
      "d": 1221.4287750000076,
      "v": 75
    },
    {
      "midi": 64,
      "hit": false,
      "t": 120050.02000833274,
      "d": 942.8573000000033,
      "v": 58
    },
    {
      "midi": 52,
      "hit": false,
      "t": 120421.44864166607,
      "d": 471.42865000000165,
      "v": 62
    },
    {
      "midi": 57,
      "hit": false,
      "t": 120850.02014166607,
      "d": 521.4286583333451,
      "v": 69
    },
    {
      "midi": 59,
      "hit": false,
      "t": 121257.16306666608,
      "d": 1435.7145250000176,
      "v": 64
    },
    {
      "midi": 60,
      "hit": false,
      "t": 121721.44885833275,
      "d": 964.285875000016,
      "v": 78
    },
    {
      "midi": 76,
      "hit": false,
      "t": 122157.16321666609,
      "d": 950.000158333336,
      "v": 72
    },
    {
      "midi": 64,
      "hit": false,
      "t": 122592.87757499942,
      "d": 100.00001666667231,
      "v": 82
    },
    {
      "midi": 81,
      "hit": false,
      "t": 122592.87757499942,
      "d": 485.71436666666705,
      "v": 78
    },
    {
      "midi": 84,
      "hit": false,
      "t": 123014.3062166661,
      "d": 114.28573333332315,
      "v": 88
    },
    {
      "midi": 76,
      "hit": false,
      "t": 123428.59199999942,
      "d": 1371.4287999999797,
      "v": 51
    },
    {
      "midi": 79,
      "hit": false,
      "t": 123428.59199999942,
      "d": 1385.714516666645,
      "v": 75
    },
    {
      "midi": 40,
      "hit": false,
      "t": 123442.87771666609,
      "d": 842.857283333331,
      "v": 58
    },
    {
      "midi": 83,
      "hit": false,
      "t": 123457.16343333275,
      "d": 1450.000241666654,
      "v": 69
    },
    {
      "midi": 47,
      "hit": false,
      "t": 123864.30635833275,
      "d": 457.14293333333626,
      "v": 60
    },
    {
      "midi": 52,
      "hit": false,
      "t": 124285.73499999942,
      "d": 471.4286499999871,
      "v": 72
    },
    {
      "midi": 55,
      "hit": false,
      "t": 124707.16364166608,
      "d": 907.1430083333253,
      "v": 66
    },
    {
      "midi": 59,
      "hit": false,
      "t": 125142.8779999994,
      "d": 1064.2858916666592,
      "v": 63
    },
    {
      "midi": 64,
      "hit": false,
      "t": 125578.59235833274,
      "d": 978.5715916666377,
      "v": 72
    },
    {
      "midi": 67,
      "hit": false,
      "t": 126014.30671666606,
      "d": 528.5715166666487,
      "v": 88
    },
    {
      "midi": 55,
      "hit": false,
      "t": 126021.4495749994,
      "d": 364.28577499999665,
      "v": 53
    },
    {
      "midi": 71,
      "hit": false,
      "t": 126464.30679166605,
      "d": 142.85716666665394,
      "v": 64
    },
    {
      "midi": 72,
      "hit": false,
      "t": 126885.73543333271,
      "d": 1278.5716416666692,
      "v": 66
    },
    {
      "midi": 45,
      "hit": false,
      "t": 126892.87829166604,
      "d": 864.2858583333291,
      "v": 56
    },
    {
      "midi": 64,
      "hit": false,
      "t": 126907.16400833271,
      "d": 1142.8573333333334,
      "v": 59
    },
    {
      "midi": 69,
      "hit": false,
      "t": 126907.16400833271,
      "d": 1157.1430499999988,
      "v": 85
    },
    {
      "midi": 52,
      "hit": false,
      "t": 127321.44979166603,
      "d": 457.14293333333626,
      "v": 64
    },
    {
      "midi": 57,
      "hit": false,
      "t": 127764.3070083327,
      "d": 464.28579166666896,
      "v": 56
    },
    {
      "midi": 60,
      "hit": false,
      "t": 128185.73564999938,
      "d": 1400.0002333333105,
      "v": 61
    },
    {
      "midi": 64,
      "hit": false,
      "t": 128592.87857499937,
      "d": 964.2858749999868,
      "v": 62
    },
    {
      "midi": 76,
      "hit": false,
      "t": 128992.87864166603,
      "d": 985.7144499999849,
      "v": 61
    },
    {
      "midi": 69,
      "hit": false,
      "t": 129435.7358583327,
      "d": 71.42858333332697,
      "v": 58
    },
    {
      "midi": 81,
      "hit": false,
      "t": 129435.7358583327,
      "d": 507.1429416666506,
      "v": 66
    },
    {
      "midi": 84,
      "hit": false,
      "t": 129892.87879166602,
      "d": 107.14287499999045,
      "v": 75
    },
    {
      "midi": 76,
      "hit": false,
      "t": 130285.73599999935,
      "d": 800.0001333333348,
      "v": 48
    },
    {
      "midi": 83,
      "hit": false,
      "t": 130321.45029166601,
      "d": 857.1429999999964,
      "v": 68
    },
    {
      "midi": 79,
      "hit": false,
      "t": 130328.59314999935,
      "d": 835.7144249999983,
      "v": 68
    },
    {
      "midi": 40,
      "hit": false,
      "t": 130328.59314999935,
      "d": 850.0001416666637,
      "v": 55
    },
    {
      "midi": 47,
      "hit": false,
      "t": 130714.30749999934,
      "d": 514.2857999999978,
      "v": 56
    },
    {
      "midi": 52,
      "hit": false,
      "t": 131192.87900833267,
      "d": 450.000074999989,
      "v": 64
    },
    {
      "midi": 55,
      "hit": false,
      "t": 131607.164791666,
      "d": 1421.428808333323,
      "v": 61
    },
    {
      "midi": 59,
      "hit": false,
      "t": 132042.87914999932,
      "d": 971.4287333333341,
      "v": 52
    },
    {
      "midi": 71,
      "hit": false,
      "t": 132457.16493333265,
      "d": 221.4286083333427,
      "v": 49
    },
    {
      "midi": 69,
      "hit": false,
      "t": 132664.30782499933,
      "d": 271.4286166666716,
      "v": 54
    },
    {
      "midi": 64,
      "hit": false,
      "t": 132871.450716666,
      "d": 85.71429999999236,
      "v": 56
    },
    {
      "midi": 67,
      "hit": false,
      "t": 132885.73643333267,
      "d": 142.85716666665394,
      "v": 72
    },
    {
      "midi": 38,
      "hit": false,
      "t": 133714.30799999932,
      "d": 878.5715749999799,
      "v": 48
    },
    {
      "midi": 60,
      "hit": false,
      "t": 133714.30799999932,
      "d": 1100.0001833333226,
      "v": 46
    },
    {
      "midi": 69,
      "hit": false,
      "t": 133714.30799999932,
      "d": 1200.0001999999804,
      "v": 57
    },
    {
      "midi": 65,
      "hit": false,
      "t": 133721.45085833265,
      "d": 1128.5716166666534,
      "v": 66
    },
    {
      "midi": 45,
      "hit": false,
      "t": 134128.59378333265,
      "d": 485.7143666666525,
      "v": 63
    },
    {
      "midi": 50,
      "hit": false,
      "t": 134585.73671666597,
      "d": 457.1429333333217,
      "v": 68
    },
    {
      "midi": 53,
      "hit": false,
      "t": 134985.73678333263,
      "d": 1600.0002666666696,
      "v": 72
    },
    {
      "midi": 57,
      "hit": false,
      "t": 135442.87971666595,
      "d": 1135.7144750000152,
      "v": 75
    },
    {
      "midi": 62,
      "hit": false,
      "t": 136307.1655749993,
      "d": 235.7143250000081,
      "v": 72
    },
    {
      "midi": 59,
      "hit": false,
      "t": 137100.0228499993,
      "d": 921.4287249999761,
      "v": 54
    },
    {
      "midi": 62,
      "hit": false,
      "t": 137114.30856666598,
      "d": 971.428733333305,
      "v": 68
    },
    {
      "midi": 67,
      "hit": false,
      "t": 137114.30856666598,
      "d": 1035.7144583332993,
      "v": 72
    },
    {
      "midi": 43,
      "hit": false,
      "t": 137121.4514249993,
      "d": 1771.4288666666253,
      "v": 66
    },
    {
      "midi": 50,
      "hit": false,
      "t": 137571.4514999993,
      "d": 528.5715166666487,
      "v": 57
    },
    {
      "midi": 55,
      "hit": false,
      "t": 138021.4515749993,
      "d": 471.4286499999871,
      "v": 85
    },
    {
      "midi": 50,
      "hit": false,
      "t": 138435.7373583326,
      "d": 514.2857999999833,
      "v": 63
    },
    {
      "midi": 55,
      "hit": false,
      "t": 138914.30886666593,
      "d": 407.14292499999283,
      "v": 78
    },
    {
      "midi": 59,
      "hit": false,
      "t": 139292.8803583326,
      "d": 850.0001416666491,
      "v": 56
    },
    {
      "midi": 67,
      "hit": false,
      "t": 139300.02321666593,
      "d": 435.7143583333236,
      "v": 75
    },
    {
      "midi": 62,
      "hit": false,
      "t": 139742.88043333258,
      "d": 492.8572249999852,
      "v": 60
    },
    {
      "midi": 71,
      "hit": false,
      "t": 139757.16614999925,
      "d": 435.7143583333236,
      "v": 63
    },
    {
      "midi": 74,
      "hit": false,
      "t": 140178.5947916659,
      "d": 421.4286416666582,
      "v": 69
    },
    {
      "midi": 67,
      "hit": false,
      "t": 140192.88050833257,
      "d": 492.8572249999852,
      "v": 34
    },
    {
      "midi": 55,
      "hit": false,
      "t": 140585.7377166659,
      "d": 735.714408333326,
      "v": 64
    },
    {
      "midi": 79,
      "hit": false,
      "t": 140607.1662916659,
      "d": 128.57144999998854,
      "v": 68
    },
    {
      "midi": 62,
      "hit": false,
      "t": 141028.59493333256,
      "d": 435.7143583333236,
      "v": 42
    },
    {
      "midi": 79,
      "hit": false,
      "t": 141028.59493333256,
      "d": 478.5715083333198,
      "v": 56
    },
    {
      "midi": 67,
      "hit": false,
      "t": 141442.88071666588,
      "d": 492.8572249999852,
      "v": 54
    },
    {
      "midi": 83,
      "hit": false,
      "t": 141457.16643333255,
      "d": 907.1430083333107,
      "v": 64
    },
    {
      "midi": 71,
      "hit": false,
      "t": 141885.73793333254,
      "d": 542.8572333333141,
      "v": 53
    },
    {
      "midi": 86,
      "hit": false,
      "t": 141900.0236499992,
      "d": 435.7143583333236,
      "v": 60
    },
    {
      "midi": 74,
      "hit": false,
      "t": 142335.73800833253,
      "d": 71.42858333332697,
      "v": 63
    },
    {
      "midi": 91,
      "hit": false,
      "t": 142335.73800833253,
      "d": 92.85715833332506,
      "v": 78
    },
    {
      "midi": 55,
      "hit": false,
      "t": 143214.3095833325,
      "d": 107.14287499999045,
      "v": 69
    },
    {
      "midi": 43,
      "hit": false,
      "t": 143221.45244166584,
      "d": 100.00001666665776,
      "v": 75
    },
    {
      "midi": 76,
      "hit": false,
      "t": 144092.8811583325,
      "d": 1235.7144916666439,
      "v": 88
    },
    {
      "midi": 48,
      "hit": false,
      "t": 144100.02401666582,
      "d": 557.1429499999795,
      "v": 61
    },
    {
      "midi": 72,
      "hit": false,
      "t": 144100.02401666582,
      "d": 1214.2859166666458,
      "v": 69
    },
    {
      "midi": 67,
      "hit": false,
      "t": 144100.02401666582,
      "d": 1221.4287749999785,
      "v": 69
    },
    {
      "midi": 55,
      "hit": false,
      "t": 144542.88123333247,
      "d": 471.4286499999871,
      "v": 69
    },
    {
      "midi": 64,
      "hit": false,
      "t": 144950.02415833247,
      "d": 464.2857916666544,
      "v": 72
    },
    {
      "midi": 55,
      "hit": false,
      "t": 145378.59565833246,
      "d": 71.42858333332697,
      "v": 75
    },
    {
      "midi": 68,
      "hit": false,
      "t": 145792.88144166578,
      "d": 514.2858000000124,
      "v": 93
    },
    {
      "midi": 52,
      "hit": false,
      "t": 145807.16715833245,
      "d": 500.000083333347,
      "v": 56
    },
    {
      "midi": 71,
      "hit": false,
      "t": 146228.59579999914,
      "d": 357.14291666666395,
      "v": 69
    },
    {
      "midi": 59,
      "hit": false,
      "t": 146235.73865833247,
      "d": 464.2857916666544,
      "v": 54
    },
    {
      "midi": 77,
      "hit": false,
      "t": 146657.16729999913,
      "d": 471.4286499999871,
      "v": 78
    },
    {
      "midi": 64,
      "hit": false,
      "t": 146671.4530166658,
      "d": 428.5714999999909,
      "v": 64
    },
    {
      "midi": 59,
      "hit": false,
      "t": 147092.88165833245,
      "d": 64.28572499999427,
      "v": 69
    },
    {
      "midi": 72,
      "hit": false,
      "t": 147535.7388749991,
      "d": 1414.2859499999613,
      "v": 62
    },
    {
      "midi": 45,
      "hit": false,
      "t": 147542.88173333244,
      "d": 557.1429499999795,
      "v": 66
    },
    {
      "midi": 69,
      "hit": false,
      "t": 147542.88173333244,
      "d": 1378.5716583332978,
      "v": 68
    },
    {
      "midi": 64,
      "hit": false,
      "t": 147557.1674499991,
      "d": 1314.2859333333035,
      "v": 60
    },
    {
      "midi": 52,
      "hit": false,
      "t": 147950.02465833243,
      "d": 478.5715083333198,
      "v": 75
    },
    {
      "midi": 60,
      "hit": false,
      "t": 148357.16758333243,
      "d": 428.5714999999909,
      "v": 78
    },
    {
      "midi": 52,
      "hit": false,
      "t": 148764.31050833242,
      "d": 507.1429416666506,
      "v": 82
    },
    {
      "midi": 43,
      "hit": false,
      "t": 149192.8820083324,
      "d": 1421.428808333294,
      "v": 66
    },
    {
      "midi": 72,
      "hit": false,
      "t": 149214.3105833324,
      "d": 1307.1430749999708,
      "v": 59
    },
    {
      "midi": 64,
      "hit": false,
      "t": 149221.45344166574,
      "d": 1200.0001999999804,
      "v": 59
    },
    {
      "midi": 69,
      "hit": false,
      "t": 149228.59629999907,
      "d": 1285.7144999999728,
      "v": 66
    },
    {
      "midi": 52,
      "hit": false,
      "t": 149635.73922499907,
      "d": 500.0000833333179,
      "v": 64
    },
    {
      "midi": 57,
      "hit": false,
      "t": 150050.0250083324,
      "d": 507.1429416666506,
      "v": 62
    },
    {
      "midi": 52,
      "hit": false,
      "t": 150500.02508333238,
      "d": 128.57144999998854,
      "v": 75
    },
    {
      "midi": 69,
      "hit": false,
      "t": 150964.31087499904,
      "d": 1335.7145083333016,
      "v": 66
    },
    {
      "midi": 60,
      "hit": false,
      "t": 150971.45373333237,
      "d": 1285.7144999999728,
      "v": 57
    },
    {
      "midi": 41,
      "hit": false,
      "t": 150978.5965916657,
      "d": 564.2858083333122,
      "v": 62
    },
    {
      "midi": 65,
      "hit": false,
      "t": 151071.45374999903,
      "d": 1314.2859333333035,
      "v": 66
    },
    {
      "midi": 48,
      "hit": false,
      "t": 151385.7395166657,
      "d": 485.7143666666525,
      "v": 59
    },
    {
      "midi": 57,
      "hit": false,
      "t": 151792.8824416657,
      "d": 450.000074999989,
      "v": 62
    },
    {
      "midi": 48,
      "hit": false,
      "t": 152200.02536666568,
      "d": 128.57144999998854,
      "v": 69
    },
    {
      "midi": 67,
      "hit": false,
      "t": 152642.88258333234,
      "d": 757.1429833333241,
      "v": 68
    },
    {
      "midi": 59,
      "hit": false,
      "t": 152650.02544166567,
      "d": 678.5715416666644,
      "v": 58
    },
    {
      "midi": 62,
      "hit": false,
      "t": 152657.168299999,
      "d": 700.0001166666625,
      "v": 85
    },
    {
      "midi": 43,
      "hit": false,
      "t": 152657.168299999,
      "d": 1321.4287916666362,
      "v": 68
    },
    {
      "midi": 50,
      "hit": false,
      "t": 153064.311224999,
      "d": 457.1429333333217,
      "v": 68
    },
    {
      "midi": 55,
      "hit": false,
      "t": 153485.73986666565,
      "d": 435.7143583333236,
      "v": 85
    },
    {
      "midi": 50,
      "hit": false,
      "t": 153892.88279166564,
      "d": 78.57144166665967,
      "v": 82
    },
    {
      "midi": 67,
      "hit": false,
      "t": 154335.7400083323,
      "d": 3435.71485833326,
      "v": 63
    },
    {
      "midi": 77,
      "hit": false,
      "t": 154342.88286666563,
      "d": 850.0001416666491,
      "v": 72
    },
    {
      "midi": 48,
      "hit": false,
      "t": 154342.88286666563,
      "d": 1428.5716666666267,
      "v": 61
    },
    {
      "midi": 72,
      "hit": false,
      "t": 154350.02572499897,
      "d": 1742.8574333332945,
      "v": 61
    },
    {
      "midi": 55,
      "hit": false,
      "t": 154771.45436666562,
      "d": 528.5715166666487,
      "v": 66
    },
    {
      "midi": 76,
      "hit": false,
      "t": 155200.02586666562,
      "d": 892.8572916666453,
      "v": 75
    },
    {
      "midi": 60,
      "hit": false,
      "t": 155207.16872499895,
      "d": 428.5714999999909,
      "v": 55
    },
    {
      "midi": 55,
      "hit": false,
      "t": 155621.45450833227,
      "d": 464.2857916666544,
      "v": 69
    },
    {
      "midi": 74,
      "hit": false,
      "t": 156035.7402916656,
      "d": 978.5715916666377,
      "v": 85
    },
    {
      "midi": 64,
      "hit": false,
      "t": 156042.88314999893,
      "d": 414.2857833333255,
      "v": 64
    },
    {
      "midi": 55,
      "hit": false,
      "t": 156450.02607499892,
      "d": 550.0000916666468,
      "v": 82
    },
    {
      "midi": 72,
      "hit": false,
      "t": 156928.59758333224,
      "d": 850.0001416666491,
      "v": 85
    },
    {
      "midi": 60,
      "hit": false,
      "t": 156942.8832999989,
      "d": 442.8572166666563,
      "v": 75
    },
    {
      "midi": 55,
      "hit": false,
      "t": 157335.74050833224,
      "d": 464.2857916666544,
      "v": 90
    },
    {
      "midi": 47,
      "hit": false,
      "t": 157764.31200833223,
      "d": 864.2858583333145,
      "v": 64
    },
    {
      "midi": 71,
      "hit": false,
      "t": 157771.45486666556,
      "d": 2871.429049999919,
      "v": 78
    },
    {
      "midi": 65,
      "hit": false,
      "t": 157785.74058333223,
      "d": 1378.5716583332978,
      "v": 69
    },
    {
      "midi": 59,
      "hit": false,
      "t": 158214.31208333222,
      "d": 528.5715166666487,
      "v": 55
    },
    {
      "midi": 62,
      "hit": false,
      "t": 158650.02644166554,
      "d": 471.4286499999871,
      "v": 64
    },
    {
      "midi": 59,
      "hit": false,
      "t": 159057.16936666553,
      "d": 507.1429416666506,
      "v": 64
    },
    {
      "midi": 52,
      "hit": false,
      "t": 159500.0265833322,
      "d": 1342.8573666666052,
      "v": 57
    },
    {
      "midi": 68,
      "hit": false,
      "t": 159507.16944166552,
      "d": 1092.8573249999608,
      "v": 93
    },
    {
      "midi": 59,
      "hit": false,
      "t": 159950.02665833218,
      "d": 500.0000833333179,
      "v": 62
    },
    {
      "midi": 64,
      "hit": false,
      "t": 160400.02673333217,
      "d": 385.71434999996563,
      "v": 62
    },
    {
      "midi": 59,
      "hit": false,
      "t": 160800.0267999988,
      "d": 71.42858333332697,
      "v": 72
    },
    {
      "midi": 69,
      "hit": false,
      "t": 161207.1697249988,
      "d": 607.1429583333374,
      "v": 72
    },
    {
      "midi": 57,
      "hit": false,
      "t": 161214.31258333212,
      "d": 485.7143666666816,
      "v": 53
    },
    {
      "midi": 64,
      "hit": false,
      "t": 161214.31258333212,
      "d": 557.1429500000086,
      "v": 69
    },
    {
      "midi": 72,
      "hit": false,
      "t": 161214.31258333212,
      "d": 585.7143833333394,
      "v": 75
    },
    {
      "midi": 45,
      "hit": false,
      "t": 161221.45544166546,
      "d": 492.8572250000143,
      "v": 53
    },
    {
      "midi": 43,
      "hit": false,
      "t": 162114.31273333213,
      "d": 442.8572166666563,
      "v": 75
    },
    {
      "midi": 55,
      "hit": false,
      "t": 162114.31273333213,
      "d": 450.000074999989,
      "v": 58
    },
    {
      "midi": 72,
      "hit": false,
      "t": 162114.31273333213,
      "d": 550.0000916666468,
      "v": 93
    },
    {
      "midi": 64,
      "hit": false,
      "t": 162121.45559166546,
      "d": 500.0000833333179,
      "v": 85
    },
    {
      "midi": 69,
      "hit": false,
      "t": 162121.45559166546,
      "d": 528.5715166666487,
      "v": 88
    },
    {
      "midi": 42,
      "hit": false,
      "t": 162978.59859166545,
      "d": 1178.5716249999823,
      "v": 50
    },
    {
      "midi": 54,
      "hit": false,
      "t": 162985.74144999878,
      "d": 1092.85732499999,
      "v": 51
    },
    {
      "midi": 72,
      "hit": false,
      "t": 162985.74144999878,
      "d": 1135.7144749999861,
      "v": 60
    },
    {
      "midi": 69,
      "hit": false,
      "t": 162985.74144999878,
      "d": 1157.1430499999842,
      "v": 66
    },
    {
      "midi": 50,
      "hit": false,
      "t": 162992.8843083321,
      "d": 1078.5716083333245,
      "v": 61
    },
    {
      "midi": 62,
      "hit": false,
      "t": 163000.02716666544,
      "d": 1157.1430499999842,
      "v": 49
    },
    {
      "midi": 65,
      "hit": false,
      "t": 164628.59886666542,
      "d": 1321.4287916666653,
      "v": 82
    },
    {
      "midi": 57,
      "hit": false,
      "t": 164628.59886666542,
      "d": 1328.571649999998,
      "v": 36
    },
    {
      "midi": 38,
      "hit": false,
      "t": 164635.74172499875,
      "d": 557.1429500000086,
      "v": 62
    },
    {
      "midi": 60,
      "hit": false,
      "t": 164650.0274416654,
      "d": 1285.7145000000019,
      "v": 85
    },
    {
      "midi": 45,
      "hit": false,
      "t": 165085.74179999877,
      "d": 535.7143749999814,
      "v": 72
    },
    {
      "midi": 53,
      "hit": false,
      "t": 165521.4561583321,
      "d": 850.0001416666491,
      "v": 88
    },
    {
      "midi": 45,
      "hit": false,
      "t": 165928.59908333208,
      "d": 92.85715833332506,
      "v": 69
    },
    {
      "midi": 43,
      "hit": false,
      "t": 166385.7420166654,
      "d": 1342.8573666666052,
      "v": 62
    },
    {
      "midi": 59,
      "hit": false,
      "t": 166400.02773333207,
      "d": 421.4286416666582,
      "v": 61
    },
    {
      "midi": 62,
      "hit": false,
      "t": 166400.02773333207,
      "d": 435.7143583333236,
      "v": 75
    },
    {
      "midi": 67,
      "hit": false,
      "t": 166400.02773333207,
      "d": 450.000074999989,
      "v": 82
    },
    {
      "midi": 50,
      "hit": false,
      "t": 166828.59923333206,
      "d": 514.2857999999833,
      "v": 56
    },
    {
      "midi": 71,
      "hit": false,
      "t": 167264.31359166538,
      "d": 307.14290833330597,
      "v": 90
    },
    {
      "midi": 53,
      "hit": false,
      "t": 167271.45644999872,
      "d": 442.8572166666272,
      "v": 63
    },
    {
      "midi": 50,
      "hit": false,
      "t": 167707.170808332,
      "d": 42.85714999999618,
      "v": 62
    },
    {
      "midi": 76,
      "hit": false,
      "t": 168114.313733332,
      "d": 278.5714750000043,
      "v": 93
    },
    {
      "midi": 67,
      "hit": false,
      "t": 168114.313733332,
      "d": 907.1430083333107,
      "v": 98
    },
    {
      "midi": 48,
      "hit": false,
      "t": 168114.313733332,
      "d": 1292.8573583333055,
      "v": 75
    },
    {
      "midi": 72,
      "hit": false,
      "t": 168121.45659166534,
      "d": 1264.2859249999747,
      "v": 90
    },
    {
      "midi": 76,
      "hit": false,
      "t": 168535.74237499866,
      "d": 135.71430833332124,
      "v": 82
    },
    {
      "midi": 55,
      "hit": false,
      "t": 168557.17094999866,
      "d": 450.000074999989,
      "v": 72
    },
    {
      "midi": 76,
      "hit": false,
      "t": 168728.59954999865,
      "d": 642.8572500000009,
      "v": 62
    },
    {
      "midi": 60,
      "hit": false,
      "t": 168964.31387499865,
      "d": 500.0000833333179,
      "v": 69
    },
    {
      "midi": 67,
      "hit": false,
      "t": 169350.02822499865,
      "d": 100.00001666665776,
      "v": 90
    },
    {
      "midi": 55,
      "hit": false,
      "t": 169364.3139416653,
      "d": 78.57144166665967,
      "v": 82
    },
    {
      "midi": 68,
      "hit": false,
      "t": 169764.31400833197,
      "d": 450.000074999989,
      "v": 100
    },
    {
      "midi": 52,
      "hit": false,
      "t": 169778.59972499864,
      "d": 564.2858083333122,
      "v": 82
    },
    {
      "midi": 59,
      "hit": false,
      "t": 170171.45693333197,
      "d": 442.8572166666563,
      "v": 72
    },
    {
      "midi": 71,
      "hit": false,
      "t": 170185.74264999863,
      "d": 407.14292499999283,
      "v": 88
    },
    {
      "midi": 64,
      "hit": false,
      "t": 170614.31414999862,
      "d": 442.8572166666563,
      "v": 88
    },
    {
      "midi": 77,
      "hit": false,
      "t": 170614.31414999862,
      "d": 485.7143666666525,
      "v": 100
    },
    {
      "midi": 68,
      "hit": false,
      "t": 171028.59993333195,
      "d": 50.00000833332888,
      "v": 103
    },
    {
      "midi": 76,
      "hit": false,
      "t": 171050.02850833195,
      "d": 92.85715833332506,
      "v": 98
    },
    {
      "midi": 45,
      "hit": false,
      "t": 171492.8857249986,
      "d": 485.7143666666525,
      "v": 78
    },
    {
      "midi": 74,
      "hit": false,
      "t": 171500.02858333194,
      "d": 1257.143066666642,
      "v": 96
    },
    {
      "midi": 64,
      "hit": false,
      "t": 171507.17144166527,
      "d": 1435.7145249999594,
      "v": 78
    },
    {
      "midi": 52,
      "hit": false,
      "t": 171885.74293333193,
      "d": 471.4286499999871,
      "v": 78
    },
    {
      "midi": 60,
      "hit": false,
      "t": 172314.31443333192,
      "d": 371.42863333332934,
      "v": 75
    },
    {
      "midi": 72,
      "hit": false,
      "t": 172721.4573583319,
      "d": 200.0000333333155,
      "v": 78
    },
    {
      "midi": 52,
      "hit": false,
      "t": 172735.74307499858,
      "d": 435.7143583333236,
      "v": 63
    },
    {
      "midi": 71,
      "hit": false,
      "t": 172885.74309999857,
      "d": 314.28576666666777,
      "v": 75
    },
    {
      "midi": 72,
      "hit": false,
      "t": 173128.6002833319,
      "d": 1300.0002166666673,
      "v": 93
    },
    {
      "midi": 64,
      "hit": false,
      "t": 173135.74314166524,
      "d": 1350.0002249999961,
      "v": 90
    },
    {
      "midi": 43,
      "hit": false,
      "t": 173142.88599999857,
      "d": 1364.2859416666615,
      "v": 72
    },
    {
      "midi": 52,
      "hit": false,
      "t": 173585.74321666526,
      "d": 500.0000833333179,
      "v": 82
    },
    {
      "midi": 57,
      "hit": false,
      "t": 174000.02899999858,
      "d": 514.2857999999833,
      "v": 82
    },
    {
      "midi": 52,
      "hit": false,
      "t": 174450.02907499857,
      "d": 121.42859166665585,
      "v": 93
    },
    {
      "midi": 65,
      "hit": false,
      "t": 174857.17199999857,
      "d": 1207.1430583333422,
      "v": 88
    },
    {
      "midi": 41,
      "hit": false,
      "t": 174914.31486666523,
      "d": 628.5715333333355,
      "v": 90
    },
    {
      "midi": 60,
      "hit": false,
      "t": 174928.6005833319,
      "d": 1164.285908333346,
      "v": 75
    },
    {
      "midi": 69,
      "hit": false,
      "t": 174928.6005833319,
      "d": 1200.0002000000095,
      "v": 93
    },
    {
      "midi": 48,
      "hit": false,
      "t": 175342.88636666522,
      "d": 457.1429333333508,
      "v": 82
    },
    {
      "midi": 53,
      "hit": false,
      "t": 175792.88644166524,
      "d": 450.000074999989,
      "v": 88
    },
    {
      "midi": 57,
      "hit": false,
      "t": 176200.02936666523,
      "d": 64.28572499999427,
      "v": 82
    },
    {
      "midi": 43,
      "hit": false,
      "t": 176642.88658333189,
      "d": 792.8572749999876,
      "v": 88
    },
    {
      "midi": 59,
      "hit": false,
      "t": 176650.02944166522,
      "d": 721.4286916666606,
      "v": 64
    },
    {
      "midi": 67,
      "hit": false,
      "t": 176650.02944166522,
      "d": 814.2858499999857,
      "v": 78
    },
    {
      "midi": 62,
      "hit": false,
      "t": 176664.31515833188,
      "d": 764.2858416666568,
      "v": 96
    },
    {
      "midi": 50,
      "hit": false,
      "t": 177078.6009416652,
      "d": 450.000074999989,
      "v": 72
    },
    {
      "midi": 55,
      "hit": false,
      "t": 177521.45815833186,
      "d": 457.1429333333217,
      "v": 90
    },
    {
      "midi": 59,
      "hit": false,
      "t": 177928.60108333186,
      "d": 85.71429999999236,
      "v": 93
    },
    {
      "midi": 48,
      "hit": false,
      "t": 178328.60114999852,
      "d": 1485.7145333333174,
      "v": 60
    },
    {
      "midi": 67,
      "hit": false,
      "t": 178335.74400833185,
      "d": 3207.143391666643,
      "v": 63
    },
    {
      "midi": 72,
      "hit": false,
      "t": 178342.88686666518,
      "d": 1792.8574416666524,
      "v": 66
    },
    {
      "midi": 77,
      "hit": false,
      "t": 178350.02972499852,
      "d": 885.7144333333126,
      "v": 85
    },
    {
      "midi": 55,
      "hit": false,
      "t": 178757.1726499985,
      "d": 514.2857999999833,
      "v": 82
    },
    {
      "midi": 60,
      "hit": false,
      "t": 179164.3155749985,
      "d": 450.000074999989,
      "v": 62
    },
    {
      "midi": 76,
      "hit": false,
      "t": 179171.45843333183,
      "d": 914.2858666666725,
      "v": 85
    },
    {
      "midi": 55,
      "hit": false,
      "t": 179600.02993333183,
      "d": 478.5715083333489,
      "v": 75
    },
    {
      "midi": 74,
      "hit": false,
      "t": 180042.8871499985,
      "d": 942.8572999999742,
      "v": 90
    },
    {
      "midi": 64,
      "hit": false,
      "t": 180050.03000833184,
      "d": 407.14292499999283,
      "v": 69
    },
    {
      "midi": 55,
      "hit": false,
      "t": 180457.17293333184,
      "d": 507.1429416666506,
      "v": 85
    },
    {
      "midi": 72,
      "hit": false,
      "t": 180907.17300833183,
      "d": 621.4286750000028,
      "v": 85
    },
    {
      "midi": 60,
      "hit": false,
      "t": 180921.4587249985,
      "d": 414.2857833333255,
      "v": 66
    },
    {
      "midi": 55,
      "hit": false,
      "t": 181300.03021666515,
      "d": 478.5715083333489,
      "v": 85
    },
    {
      "midi": 47,
      "hit": false,
      "t": 181735.7445749985,
      "d": 1257.143066666642,
      "v": 64
    },
    {
      "midi": 71,
      "hit": false,
      "t": 181750.03029166517,
      "d": 1635.714558333304,
      "v": 72
    },
    {
      "midi": 65,
      "hit": false,
      "t": 181771.45886666517,
      "d": 1235.7144916666439,
      "v": 63
    },
    {
      "midi": 59,
      "hit": false,
      "t": 182178.60179166516,
      "d": 507.1429416666506,
      "v": 38
    },
    {
      "midi": 62,
      "hit": false,
      "t": 182607.17329166515,
      "d": 535.7143749999814,
      "v": 68
    },
    {
      "midi": 59,
      "hit": false,
      "t": 183014.31621666515,
      "d": 471.4286499999871,
      "v": 66
    },
    {
      "midi": 68,
      "hit": false,
      "t": 183442.88771666514,
      "d": 1342.8573666666343,
      "v": 97
    },
    {
      "midi": 52,
      "hit": false,
      "t": 183442.88771666514,
      "d": 1435.7145249999594,
      "v": 59
    },
    {
      "midi": 59,
      "hit": false,
      "t": 183921.45922499846,
      "d": 514.2857999999833,
      "v": 64
    },
    {
      "midi": 64,
      "hit": false,
      "t": 184350.03072499845,
      "d": 414.2857833333255,
      "v": 75
    },
    {
      "midi": 59,
      "hit": false,
      "t": 184778.60222499844,
      "d": 78.57144166665967,
      "v": 69
    },
    {
      "midi": 45,
      "hit": false,
      "t": 185214.31658333176,
      "d": 478.5715083333489,
      "v": 64
    },
    {
      "midi": 74,
      "hit": false,
      "t": 185228.60229999843,
      "d": 528.5715166666778,
      "v": 85
    },
    {
      "midi": 64,
      "hit": false,
      "t": 185228.60229999843,
      "d": 571.428666666674,
      "v": 82
    },
    {
      "midi": 72,
      "hit": false,
      "t": 185664.31665833178,
      "d": 192.85717499998282,
      "v": 85
    },
    {
      "midi": 43,
      "hit": false,
      "t": 186092.88815833177,
      "d": 407.14292499999283,
      "v": 96
    },
    {
      "midi": 72,
      "hit": false,
      "t": 186092.88815833177,
      "d": 514.2857999999833,
      "v": 90
    },
    {
      "midi": 64,
      "hit": false,
      "t": 186107.17387499844,
      "d": 492.8572249999852,
      "v": 78
    },
    {
      "midi": 71,
      "hit": false,
      "t": 186542.88823333176,
      "d": 500.0000833333179,
      "v": 98
    },
    {
      "midi": 42,
      "hit": false,
      "t": 186964.31687499842,
      "d": 892.8572916666744,
      "v": 84
    },
    {
      "midi": 54,
      "hit": false,
      "t": 186978.60259166508,
      "d": 514.2858000000124,
      "v": 63
    },
    {
      "midi": 50,
      "hit": false,
      "t": 186985.74544999842,
      "d": 471.4286500000162,
      "v": 62
    },
    {
      "midi": 72,
      "hit": false,
      "t": 186985.74544999842,
      "d": 1071.428750000021,
      "v": 96
    },
    {
      "midi": 64,
      "hit": false,
      "t": 186992.88830833175,
      "d": 1171.4287666666787,
      "v": 82
    },
    {
      "midi": 54,
      "hit": false,
      "t": 187807.17415833176,
      "d": 442.8572166666563,
      "v": 65
    },
    {
      "midi": 50,
      "hit": false,
      "t": 187821.45987499843,
      "d": 435.7143583333236,
      "v": 64
    },
    {
      "midi": 42,
      "hit": false,
      "t": 188214.31708333176,
      "d": 114.28573333332315,
      "v": 93
    },
    {
      "midi": 38,
      "hit": false,
      "t": 188657.1742999984,
      "d": 857.1429999999818,
      "v": 82
    },
    {
      "midi": 60,
      "hit": false,
      "t": 188664.31715833175,
      "d": 1042.857316666632,
      "v": 88
    },
    {
      "midi": 65,
      "hit": false,
      "t": 188671.46001666508,
      "d": 992.8573083333031,
      "v": 93
    },
    {
      "midi": 57,
      "hit": false,
      "t": 188678.6028749984,
      "d": 942.8572999999742,
      "v": 72
    },
    {
      "midi": 45,
      "hit": false,
      "t": 189071.46008333174,
      "d": 471.4286499999871,
      "v": 85
    },
    {
      "midi": 50,
      "hit": false,
      "t": 189514.3172999984,
      "d": 435.7143583333236,
      "v": 90
    },
    {
      "midi": 53,
      "hit": false,
      "t": 189892.88879166506,
      "d": 100.00001666665776,
      "v": 96
    },
    {
      "midi": 59,
      "hit": false,
      "t": 190364.31744166504,
      "d": 685.7143999999971,
      "v": 85
    },
    {
      "midi": 67,
      "hit": false,
      "t": 190364.31744166504,
      "d": 792.8572749999876,
      "v": 105
    },
    {
      "midi": 43,
      "hit": false,
      "t": 190364.31744166504,
      "d": 842.8572833333164,
      "v": 96
    },
    {
      "midi": 62,
      "hit": false,
      "t": 190371.46029999838,
      "d": 757.1429833333241,
      "v": 100
    },
    {
      "midi": 50,
      "hit": false,
      "t": 190785.7460833317,
      "d": 457.1429333333217,
      "v": 93
    },
    {
      "midi": 55,
      "hit": false,
      "t": 191214.3175833317,
      "d": 450.000074999989,
      "v": 102
    },
    {
      "midi": 59,
      "hit": false,
      "t": 191607.17479166502,
      "d": 85.71429999999236,
      "v": 90
    },
    {
      "midi": 48,
      "hit": false,
      "t": 192021.46057499835,
      "d": 571.4286666666449,
      "v": 90
    },
    {
      "midi": 76,
      "hit": false,
      "t": 192028.60343333168,
      "d": 307.1429083333351,
      "v": 96
    },
    {
      "midi": 72,
      "hit": false,
      "t": 192028.60343333168,
      "d": 1307.1430749999708,
      "v": 85
    },
    {
      "midi": 67,
      "hit": false,
      "t": 192035.746291665,
      "d": 978.5715916666377,
      "v": 93
    },
    {
      "midi": 76,
      "hit": false,
      "t": 192464.317791665,
      "d": 128.57144999998854,
      "v": 75
    },
    {
      "midi": 55,
      "hit": false,
      "t": 192464.317791665,
      "d": 464.2857916666544,
      "v": 72
    },
    {
      "midi": 76,
      "hit": false,
      "t": 192664.31782499832,
      "d": 664.285824999999,
      "v": 96
    },
    {
      "midi": 64,
      "hit": false,
      "t": 192885.74643333166,
      "d": 378.57149166666204,
      "v": 96
    },
    {
      "midi": 67,
      "hit": false,
      "t": 193292.88935833165,
      "d": 114.28573333332315,
      "v": 98
    },
    {
      "midi": 55,
      "hit": false,
      "t": 193300.032216665,
      "d": 57.142866666661575,
      "v": 88
    },
    {
      "midi": 68,
      "hit": false,
      "t": 193721.46085833164,
      "d": 492.8572250000143,
      "v": 109
    },
    {
      "midi": 40,
      "hit": false,
      "t": 193728.60371666498,
      "d": 850.0001416666782,
      "v": 93
    },
    {
      "midi": 47,
      "hit": false,
      "t": 194142.88949999833,
      "d": 450.000074999989,
      "v": 85
    },
    {
      "midi": 71,
      "hit": false,
      "t": 194150.03235833166,
      "d": 128.57144999998854,
      "v": 93
    },
    {
      "midi": 52,
      "hit": false,
      "t": 194578.60385833165,
      "d": 450.000074999989,
      "v": 90
    },
    {
      "midi": 77,
      "hit": false,
      "t": 194578.60385833165,
      "d": 485.7143666666525,
      "v": 100
    },
    {
      "midi": 56,
      "hit": false,
      "t": 195007.17535833165,
      "d": 57.142866666661575,
      "v": 88
    },
    {
      "midi": 76,
      "hit": false,
      "t": 195021.4610749983,
      "d": 85.71429999999236,
      "v": 93
    },
    {
      "midi": 45,
      "hit": false,
      "t": 195464.31829166497,
      "d": 800.0001333333494,
      "v": 98
    },
    {
      "midi": 74,
      "hit": false,
      "t": 195471.4611499983,
      "d": 464.2857916666835,
      "v": 93
    },
    {
      "midi": 64,
      "hit": false,
      "t": 195471.4611499983,
      "d": 921.4287250000052,
      "v": 93
    },
    {
      "midi": 72,
      "hit": false,
      "t": 195864.31835833166,
      "d": 492.8572249999852,
      "v": 69
    },
    {
      "midi": 52,
      "hit": false,
      "t": 195878.60407499832,
      "d": 507.1429416666506,
      "v": 82
    },
    {
      "midi": 69,
      "hit": false,
      "t": 196328.6041499983,
      "d": 457.1429333333217,
      "v": 93
    },
    {
      "midi": 60,
      "hit": false,
      "t": 196342.88986666498,
      "d": 371.42863333332934,
      "v": 62
    },
    {
      "midi": 52,
      "hit": false,
      "t": 196735.7470749983,
      "d": 442.8572166666563,
      "v": 68
    },
    {
      "midi": 64,
      "hit": false,
      "t": 196750.03279166497,
      "d": 928.5715833333379,
      "v": 85
    },
    {
      "midi": 43,
      "hit": false,
      "t": 197164.3185749983,
      "d": 607.1429583333374,
      "v": 90
    },
    {
      "midi": 72,
      "hit": false,
      "t": 197178.60429166496,
      "d": 1171.4287666666787,
      "v": 96
    },
    {
      "midi": 52,
      "hit": false,
      "t": 197607.17579166498,
      "d": 500.0000833333179,
      "v": 78
    },
    {
      "midi": 69,
      "hit": false,
      "t": 197621.46150833165,
      "d": 742.8572666666587,
      "v": 88
    },
    {
      "midi": 64,
      "hit": false,
      "t": 198050.03300833164,
      "d": 378.57149166666204,
      "v": 85
    },
    {
      "midi": 57,
      "hit": false,
      "t": 198057.17586666497,
      "d": 421.4286416666582,
      "v": 82
    },
    {
      "midi": 52,
      "hit": false,
      "t": 198457.17593333163,
      "d": 78.57144166665967,
      "v": 88
    },
    {
      "midi": 65,
      "hit": false,
      "t": 198857.1759999983,
      "d": 1021.4287416666339,
      "v": 96
    },
    {
      "midi": 60,
      "hit": false,
      "t": 198900.0331499983,
      "d": 1014.2858833333012,
      "v": 88
    },
    {
      "midi": 69,
      "hit": false,
      "t": 198900.0331499983,
      "d": 1050.0001749999647,
      "v": 93
    },
    {
      "midi": 41,
      "hit": false,
      "t": 198907.17600833162,
      "d": 785.7144166666549,
      "v": 93
    },
    {
      "midi": 48,
      "hit": false,
      "t": 199335.7475083316,
      "d": 421.4286416666582,
      "v": 85
    },
    {
      "midi": 53,
      "hit": false,
      "t": 199771.46186666493,
      "d": 464.2857916666544,
      "v": 90
    },
    {
      "midi": 57,
      "hit": false,
      "t": 200200.03336666492,
      "d": 57.142866666661575,
      "v": 88
    },
    {
      "midi": 59,
      "hit": false,
      "t": 200635.74772499825,
      "d": 150.00002499998664,
      "v": 85
    },
    {
      "midi": 67,
      "hit": false,
      "t": 200635.74772499825,
      "d": 200.0000333333155,
      "v": 102
    },
    {
      "midi": 43,
      "hit": false,
      "t": 200642.89058333158,
      "d": 514.2857999999833,
      "v": 93
    },
    {
      "midi": 62,
      "hit": false,
      "t": 200650.0334416649,
      "d": 157.14288333331933,
      "v": 100
    },
    {
      "midi": 71,
      "hit": false,
      "t": 201064.31922499824,
      "d": 78.57144166665967,
      "v": 93
    },
    {
      "midi": 50,
      "hit": false,
      "t": 201064.31922499824,
      "d": 407.14292499999283,
      "v": 68
    },
    {
      "midi": 55,
      "hit": false,
      "t": 201471.46214999823,
      "d": 478.5715083333198,
      "v": 93
    },
    {
      "midi": 74,
      "hit": false,
      "t": 201485.7478666649,
      "d": 100.00001666665776,
      "v": 100
    },
    {
      "midi": 59,
      "hit": false,
      "t": 201900.03364999822,
      "d": 64.28572499999427,
      "v": 69
    },
    {
      "midi": 79,
      "hit": false,
      "t": 201907.17650833155,
      "d": 64.28572499999427,
      "v": 96
    },
    {
      "midi": 77,
      "hit": false,
      "t": 202285.74799999822,
      "d": 671.4286833333608,
      "v": 102
    },
    {
      "midi": 48,
      "hit": false,
      "t": 202350.0337249982,
      "d": 1350.0002249999961,
      "v": 72
    },
    {
      "midi": 67,
      "hit": false,
      "t": 202357.17658333154,
      "d": 678.5715416666935,
      "v": 98
    },
    {
      "midi": 55,
      "hit": false,
      "t": 202785.74808333156,
      "d": 450.000074999989,
      "v": 69
    },
    {
      "midi": 60,
      "hit": false,
      "t": 203192.89100833156,
      "d": 435.7143583333236,
      "v": 62
    },
    {
      "midi": 76,
      "hit": false,
      "t": 203207.17672499822,
      "d": 914.2858666666434,
      "v": 93
    },
    {
      "midi": 67,
      "hit": false,
      "t": 203207.17672499822,
      "d": 2057.1431999999622,
      "v": 53
    },
    {
      "midi": 55,
      "hit": false,
      "t": 203614.31964999822,
      "d": 435.7143583333236,
      "v": 78
    },
    {
      "midi": 64,
      "hit": false,
      "t": 204035.74829166487,
      "d": 407.14292499999283,
      "v": 75
    },
    {
      "midi": 74,
      "hit": false,
      "t": 204042.8911499982,
      "d": 928.5715833333088,
      "v": 88
    },
    {
      "midi": 55,
      "hit": false,
      "t": 204457.17693333153,
      "d": 507.1429416666506,
      "v": 90
    },
    {
      "midi": 72,
      "hit": false,
      "t": 204914.31986666485,
      "d": 357.14291666666395,
      "v": 93
    },
    {
      "midi": 60,
      "hit": false,
      "t": 204914.31986666485,
      "d": 414.2857833333255,
      "v": 78
    },
    {
      "midi": 55,
      "hit": false,
      "t": 205314.3199333315,
      "d": 428.5714999999909,
      "v": 72
    },
    {
      "midi": 47,
      "hit": false,
      "t": 205735.74857499817,
      "d": 928.5715833333088,
      "v": 75
    },
    {
      "midi": 65,
      "hit": false,
      "t": 205735.74857499817,
      "d": 1400.000233333296,
      "v": 98
    },
    {
      "midi": 71,
      "hit": false,
      "t": 205735.74857499817,
      "d": 2750.000458333263,
      "v": 90
    },
    {
      "midi": 53,
      "hit": false,
      "t": 206207.17722499816,
      "d": 485.7143666666525,
      "v": 90
    },
    {
      "midi": 59,
      "hit": false,
      "t": 206571.46299999816,
      "d": 450.000074999989,
      "v": 85
    },
    {
      "midi": 53,
      "hit": false,
      "t": 207000.03449999815,
      "d": 92.85715833332506,
      "v": 78
    },
    {
      "midi": 68,
      "hit": false,
      "t": 207457.17743333147,
      "d": 1014.2858833333012,
      "v": 105
    },
    {
      "midi": 52,
      "hit": false,
      "t": 207457.17743333147,
      "d": 1321.4287916666362,
      "v": 75
    },
    {
      "midi": 59,
      "hit": false,
      "t": 207900.03464999812,
      "d": 478.5715083333198,
      "v": 85
    },
    {
      "midi": 64,
      "hit": false,
      "t": 208328.60614999812,
      "d": 428.5714999999909,
      "v": 105
    },
    {
      "midi": 59,
      "hit": false,
      "t": 208750.03479166477,
      "d": 64.28572499999427,
      "v": 93
    },
    {
      "midi": 57,
      "hit": false,
      "t": 209178.60629166476,
      "d": 407.14292499999283,
      "v": 98
    },
    {
      "midi": 45,
      "hit": false,
      "t": 209185.7491499981,
      "d": 421.4286416666582,
      "v": 102
    },
    {
      "midi": 69,
      "hit": false,
      "t": 209192.89200833143,
      "d": 492.8572249999852,
      "v": 102
    },
    {
      "midi": 72,
      "hit": false,
      "t": 209192.89200833143,
      "d": 492.8572249999852,
      "v": 102
    },
    {
      "midi": 64,
      "hit": false,
      "t": 209207.1777249981,
      "d": 464.2857916666544,
      "v": 100
    },
    {
      "midi": 43,
      "hit": false,
      "t": 210035.74929166475,
      "d": 450.0000750000181,
      "v": 105
    },
    {
      "midi": 55,
      "hit": false,
      "t": 210035.74929166475,
      "d": 457.1429333333508,
      "v": 110
    },
    {
      "midi": 72,
      "hit": false,
      "t": 210035.74929166475,
      "d": 485.7143666666816,
      "v": 107
    },
    {
      "midi": 64,
      "hit": false,
      "t": 210042.89214999808,
      "d": 471.4286500000162,
      "v": 102
    },
    {
      "midi": 69,
      "hit": false,
      "t": 210042.89214999808,
      "d": 507.1429416666797,
      "v": 100
    },
    {
      "midi": 42,
      "hit": false,
      "t": 210900.0351499981,
      "d": 964.2858749999723,
      "v": 100
    },
    {
      "midi": 69,
      "hit": false,
      "t": 210907.17800833142,
      "d": 871.4287166666472,
      "v": 96
    },
    {
      "midi": 72,
      "hit": false,
      "t": 210907.17800833142,
      "d": 871.4287166666472,
      "v": 85
    },
    {
      "midi": 54,
      "hit": false,
      "t": 210907.17800833142,
      "d": 921.4287249999761,
      "v": 107
    },
    {
      "midi": 62,
      "hit": false,
      "t": 210907.17800833142,
      "d": 942.8572999999742,
      "v": 93
    },
    {
      "midi": 50,
      "hit": false,
      "t": 210914.32086666476,
      "d": 900.000149999978,
      "v": 98
    },
    {
      "midi": 38,
      "hit": false,
      "t": 212521.46399166473,
      "d": 900.000149999978,
      "v": 56
    },
    {
      "midi": 57,
      "hit": false,
      "t": 212521.46399166473,
      "d": 1257.143066666642,
      "v": 55
    },
    {
      "midi": 65,
      "hit": false,
      "t": 212535.7497083314,
      "d": 1157.1430499999842,
      "v": 90
    },
    {
      "midi": 60,
      "hit": false,
      "t": 212535.7497083314,
      "d": 1292.8573583333055,
      "v": 88
    },
    {
      "midi": 45,
      "hit": false,
      "t": 212992.89264166472,
      "d": 471.4286499999871,
      "v": 75
    },
    {
      "midi": 50,
      "hit": false,
      "t": 213428.60699999804,
      "d": 507.1429416666506,
      "v": 78
    },
    {
      "midi": 53,
      "hit": false,
      "t": 213864.32135833136,
      "d": 121.42859166665585,
      "v": 93
    },
    {
      "midi": 43,
      "hit": false,
      "t": 214342.89286666468,
      "d": 1050.0001749999647,
      "v": 88
    },
    {
      "midi": 59,
      "hit": false,
      "t": 214342.89286666468,
      "d": 1328.571649999969,
      "v": 53
    },
    {
      "midi": 67,
      "hit": false,
      "t": 214350.03572499802,
      "d": 1471.4288166666229,
      "v": 90
    },
    {
      "midi": 62,
      "hit": false,
      "t": 214364.32144166468,
      "d": 1450.0002416666248,
      "v": 88
    },
    {
      "midi": 50,
      "hit": false,
      "t": 214857.17866666467,
      "d": 592.857241666643,
      "v": 62
    },
    {
      "midi": 53,
      "hit": false,
      "t": 215350.03589166465,
      "d": 657.1429666666372,
      "v": 68
    },
    {
      "midi": 55,
      "hit": false,
      "t": 215950.03599166463,
      "d": 235.7143250000081,
      "v": 82
    },
    {
      "midi": 72,
      "hit": false,
      "t": 216885.7504333313,
      "d": 2235.7146583332797,
      "v": 48
    },
    {
      "midi": 77,
      "hit": false,
      "t": 216892.89329166463,
      "d": 942.8572999999742,
      "v": 66
    },
    {
      "midi": 60,
      "hit": false,
      "t": 216914.32186666463,
      "d": 3085.714799999929,
      "v": 49
    },
    {
      "midi": 67,
      "hit": false,
      "t": 217350.03622499795,
      "d": 528.5715166666487,
      "v": 66
    },
    {
      "midi": 76,
      "hit": false,
      "t": 217771.4648666646,
      "d": 928.5715833333088,
      "v": 82
    },
    {
      "midi": 67,
      "hit": false,
      "t": 218200.0363666646,
      "d": 500.0000833333179,
      "v": 66
    },
    {
      "midi": 74,
      "hit": false,
      "t": 218628.6078666646,
      "d": 964.2858749999723,
      "v": 69
    },
    {
      "midi": 67,
      "hit": false,
      "t": 219064.32222499792,
      "d": 457.1429333333217,
      "v": 61
    },
    {
      "midi": 72,
      "hit": false,
      "t": 219485.75086666457,
      "d": 521.428658333316,
      "v": 75
    },
    {
      "midi": 67,
      "hit": false,
      "t": 219928.60808333123,
      "d": 128.57144999998854,
      "v": 62
    },
    {
      "midi": 68,
      "hit": false,
      "t": 220335.75100833122,
      "d": 285.714333333337,
      "v": 44
    },
    {
      "midi": 72,
      "hit": false,
      "t": 220342.89386666456,
      "d": 2435.7146916666243,
      "v": 61
    },
    {
      "midi": 77,
      "hit": false,
      "t": 220357.17958333122,
      "d": 978.5715916666668,
      "v": 60
    },
    {
      "midi": 60,
      "hit": false,
      "t": 220378.60815833122,
      "d": 2314.2860999999684,
      "v": 48
    },
    {
      "midi": 68,
      "hit": false,
      "t": 220828.60823333124,
      "d": 471.4286499999871,
      "v": 56
    },
    {
      "midi": 76,
      "hit": false,
      "t": 221235.75115833123,
      "d": 942.8572999999742,
      "v": 69
    },
    {
      "midi": 68,
      "hit": false,
      "t": 221678.6083749979,
      "d": 507.1429416666506,
      "v": 61
    },
    {
      "midi": 74,
      "hit": false,
      "t": 222121.46559166454,
      "d": 1071.4287499999627,
      "v": 85
    },
    {
      "midi": 68,
      "hit": false,
      "t": 222607.1799583312,
      "d": 107.14287499999045,
      "v": 63
    },
    {
      "midi": 72,
      "hit": false,
      "t": 223100.03718333118,
      "d": 835.7144250000129,
      "v": 78
    },
    {
      "midi": 55,
      "hit": false,
      "t": 223107.1800416645,
      "d": 1007.1430249999976,
      "v": 51
    },
    {
      "midi": 65,
      "hit": false,
      "t": 223714.32299999785,
      "d": 300.0000500000024,
      "v": 85
    },
    {
      "midi": 48,
      "hit": false,
      "t": 224542.8945666645,
      "d": 900.000149999978,
      "v": 55
    },
    {
      "midi": 72,
      "hit": false,
      "t": 224550.03742499783,
      "d": 1271.4287833333074,
      "v": 53
    },
    {
      "midi": 76,
      "hit": false,
      "t": 224557.18028333117,
      "d": 1250.0002083333093,
      "v": 64
    },
    {
      "midi": 67,
      "hit": false,
      "t": 224571.46599999783,
      "d": 1221.4287749999785,
      "v": 59
    },
    {
      "midi": 55,
      "hit": false,
      "t": 225007.18035833116,
      "d": 457.1429333333217,
      "v": 68
    },
    {
      "midi": 60,
      "hit": false,
      "t": 225378.60899166449,
      "d": 528.5715166666487,
      "v": 75
    },
    {
      "midi": 62,
      "hit": false,
      "t": 225735.75190833115,
      "d": 1278.57164166664,
      "v": 82
    },
    {
      "midi": 64,
      "hit": false,
      "t": 226150.03769166447,
      "d": 857.1429999999818,
      "v": 85
    },
    {
      "midi": 67,
      "hit": false,
      "t": 226550.03775833113,
      "d": 385.71434999999474,
      "v": 88
    },
    {
      "midi": 72,
      "hit": false,
      "t": 226985.75211666446,
      "d": 864.2858583333436,
      "v": 64
    },
    {
      "midi": 74,
      "hit": false,
      "t": 227242.89501666446,
      "d": 614.2858166666701,
      "v": 75
    },
    {
      "midi": 76,
      "hit": false,
      "t": 227521.46649166447,
      "d": 385.71434999999474,
      "v": 66
    },
    {
      "midi": 79,
      "hit": false,
      "t": 227814.32368333114,
      "d": 164.28574166665203,
      "v": 78
    },
    {
      "midi": 74,
      "hit": false,
      "t": 228307.18090833112,
      "d": 607.1429583333083,
      "v": 36
    },
    {
      "midi": 76,
      "hit": false,
      "t": 228350.03805833112,
      "d": 564.2858083333122,
      "v": 66
    },
    {
      "midi": 60,
      "hit": false,
      "t": 228378.60949166445,
      "d": 4957.143683333299,
      "v": 27
    },
    {
      "midi": 79,
      "hit": false,
      "t": 228392.89520833112,
      "d": 528.5715166666487,
      "v": 56
    },
    {
      "midi": 84,
      "hit": false,
      "t": 228450.03807499778,
      "d": 507.1429416666506,
      "v": 88
    }
  ]
}