{
  "jsonPath": "Rock/Rock-And-Roll/Sandy Posey/whos-sorry-now.json",
  "path": "Rock\\Rock-And-Roll\\Sandy Posey\\Whos Sorry Now.mid",
  "name": "Whos Sorry Now",
  "difficulty": "Advanced",
  "bpm": 80,
  "notes": [
    {
      "midi": 46,
      "hit": false,
      "t": 2746.622,
      "d": 457.7703333333334,
      "v": 70
    },
    {
      "midi": 58,
      "hit": false,
      "t": 2746.622,
      "d": 457.7703333333334,
      "v": 70
    },
    {
      "midi": 62,
      "hit": false,
      "t": 2746.622,
      "d": 457.7703333333334,
      "v": 70
    },
    {
      "midi": 65,
      "hit": false,
      "t": 2746.622,
      "d": 457.7703333333334,
      "v": 70
    },
    {
      "midi": 46,
      "hit": false,
      "t": 3204.392333333333,
      "d": 457.7703333333334,
      "v": 70
    },
    {
      "midi": 58,
      "hit": false,
      "t": 3204.392333333333,
      "d": 457.7703333333334,
      "v": 70
    },
    {
      "midi": 62,
      "hit": false,
      "t": 3204.392333333333,
      "d": 457.7703333333334,
      "v": 70
    },
    {
      "midi": 65,
      "hit": false,
      "t": 3204.392333333333,
      "d": 457.7703333333334,
      "v": 70
    },
    {
      "midi": 46,
      "hit": false,
      "t": 3662.1626666666666,
      "d": 457.7703333333334,
      "v": 70
    },
    {
      "midi": 58,
      "hit": false,
      "t": 3662.1626666666666,
      "d": 457.7703333333334,
      "v": 70
    },
    {
      "midi": 62,
      "hit": false,
      "t": 3662.1626666666666,
      "d": 457.7703333333334,
      "v": 70
    },
    {
      "midi": 65,
      "hit": false,
      "t": 3662.1626666666666,
      "d": 457.7703333333334,
      "v": 70
    },
    {
      "midi": 46,
      "hit": false,
      "t": 4119.933,
      "d": 457.7703333333329,
      "v": 70
    },
    {
      "midi": 58,
      "hit": false,
      "t": 4119.933,
      "d": 457.7703333333329,
      "v": 70
    },
    {
      "midi": 62,
      "hit": false,
      "t": 4119.933,
      "d": 457.7703333333329,
      "v": 70
    },
    {
      "midi": 65,
      "hit": false,
      "t": 4119.933,
      "d": 457.7703333333329,
      "v": 70
    },
    {
      "midi": 46,
      "hit": false,
      "t": 4577.703333333333,
      "d": 457.7703333333329,
      "v": 70
    },
    {
      "midi": 58,
      "hit": false,
      "t": 4577.703333333333,
      "d": 457.7703333333329,
      "v": 70
    },
    {
      "midi": 62,
      "hit": false,
      "t": 4577.703333333333,
      "d": 457.7703333333329,
      "v": 70
    },
    {
      "midi": 65,
      "hit": false,
      "t": 4577.703333333333,
      "d": 457.7703333333329,
      "v": 70
    },
    {
      "midi": 46,
      "hit": false,
      "t": 5035.473666666666,
      "d": 457.7703333333329,
      "v": 70
    },
    {
      "midi": 58,
      "hit": false,
      "t": 5035.473666666666,
      "d": 457.7703333333329,
      "v": 70
    },
    {
      "midi": 62,
      "hit": false,
      "t": 5035.473666666666,
      "d": 457.7703333333329,
      "v": 70
    },
    {
      "midi": 65,
      "hit": false,
      "t": 5035.473666666666,
      "d": 457.7703333333329,
      "v": 70
    },
    {
      "midi": 46,
      "hit": false,
      "t": 5493.243999999999,
      "d": 457.7703333333329,
      "v": 70
    },
    {
      "midi": 58,
      "hit": false,
      "t": 5493.243999999999,
      "d": 457.7703333333329,
      "v": 70
    },
    {
      "midi": 62,
      "hit": false,
      "t": 5493.243999999999,
      "d": 457.7703333333329,
      "v": 70
    },
    {
      "midi": 65,
      "hit": false,
      "t": 5493.243999999999,
      "d": 457.7703333333329,
      "v": 70
    },
    {
      "midi": 46,
      "hit": false,
      "t": 5951.014333333332,
      "d": 457.7703333333329,
      "v": 70
    },
    {
      "midi": 58,
      "hit": false,
      "t": 5951.014333333332,
      "d": 457.7703333333329,
      "v": 70
    },
    {
      "midi": 62,
      "hit": false,
      "t": 5951.014333333332,
      "d": 457.7703333333329,
      "v": 70
    },
    {
      "midi": 65,
      "hit": false,
      "t": 5951.014333333332,
      "d": 457.7703333333329,
      "v": 70
    },
    {
      "midi": 46,
      "hit": false,
      "t": 6408.784666666665,
      "d": 457.7703333333329,
      "v": 70
    },
    {
      "midi": 58,
      "hit": false,
      "t": 6408.784666666665,
      "d": 457.7703333333329,
      "v": 70
    },
    {
      "midi": 62,
      "hit": false,
      "t": 6408.784666666665,
      "d": 457.7703333333329,
      "v": 70
    },
    {
      "midi": 65,
      "hit": false,
      "t": 6408.784666666665,
      "d": 457.7703333333329,
      "v": 70
    },
    {
      "midi": 45,
      "hit": false,
      "t": 6866.554999999998,
      "d": 457.7703333333329,
      "v": 70
    },
    {
      "midi": 57,
      "hit": false,
      "t": 6866.554999999998,
      "d": 457.7703333333329,
      "v": 70
    },
    {
      "midi": 61,
      "hit": false,
      "t": 6866.554999999998,
      "d": 457.7703333333329,
      "v": 70
    },
    {
      "midi": 64,
      "hit": false,
      "t": 6866.554999999998,
      "d": 457.7703333333329,
      "v": 70
    },
    {
      "midi": 45,
      "hit": false,
      "t": 7324.3253333333305,
      "d": 457.7703333333329,
      "v": 70
    },
    {
      "midi": 57,
      "hit": false,
      "t": 7324.3253333333305,
      "d": 457.7703333333329,
      "v": 70
    },
    {
      "midi": 61,
      "hit": false,
      "t": 7324.3253333333305,
      "d": 457.7703333333329,
      "v": 70
    },
    {
      "midi": 64,
      "hit": false,
      "t": 7324.3253333333305,
      "d": 457.7703333333329,
      "v": 70
    },
    {
      "midi": 45,
      "hit": false,
      "t": 7782.095666666663,
      "d": 457.7703333333329,
      "v": 70
    },
    {
      "midi": 57,
      "hit": false,
      "t": 7782.095666666663,
      "d": 457.7703333333329,
      "v": 70
    },
    {
      "midi": 61,
      "hit": false,
      "t": 7782.095666666663,
      "d": 457.7703333333329,
      "v": 70
    },
    {
      "midi": 64,
      "hit": false,
      "t": 7782.095666666663,
      "d": 457.7703333333329,
      "v": 70
    },
    {
      "midi": 46,
      "hit": false,
      "t": 8239.865999999996,
      "d": 457.77033333333384,
      "v": 70
    },
    {
      "midi": 58,
      "hit": false,
      "t": 8239.865999999996,
      "d": 457.77033333333384,
      "v": 70
    },
    {
      "midi": 62,
      "hit": false,
      "t": 8239.865999999996,
      "d": 457.77033333333384,
      "v": 70
    },
    {
      "midi": 65,
      "hit": false,
      "t": 8239.865999999996,
      "d": 457.77033333333384,
      "v": 70
    },
    {
      "midi": 55,
      "hit": false,
      "t": 13733.109999999997,
      "d": 434.88181666666605,
      "v": 70
    },
    {
      "midi": 58,
      "hit": false,
      "t": 13733.109999999997,
      "d": 446.32607499999904,
      "v": 70
    },
    {
      "midi": 63,
      "hit": false,
      "t": 13733.109999999997,
      "d": 446.32607499999904,
      "v": 70
    },
    {
      "midi": 39,
      "hit": false,
      "t": 13744.55425833333,
      "d": 434.88181666666605,
      "v": 70
    },
    {
      "midi": 39,
      "hit": false,
      "t": 14202.324591666662,
      "d": 423.4375583333331,
      "v": 70
    },
    {
      "midi": 55,
      "hit": false,
      "t": 14202.324591666662,
      "d": 423.4375583333331,
      "v": 70
    },
    {
      "midi": 58,
      "hit": false,
      "t": 14202.324591666662,
      "d": 434.88181666666605,
      "v": 70
    },
    {
      "midi": 63,
      "hit": false,
      "t": 14202.324591666662,
      "d": 434.88181666666605,
      "v": 70
    },
    {
      "midi": 39,
      "hit": false,
      "t": 14637.206408333328,
      "d": 446.32607499999904,
      "v": 70
    },
    {
      "midi": 58,
      "hit": false,
      "t": 14637.206408333328,
      "d": 457.770333333332,
      "v": 70
    },
    {
      "midi": 63,
      "hit": false,
      "t": 14637.206408333328,
      "d": 457.770333333332,
      "v": 70
    },
    {
      "midi": 55,
      "hit": false,
      "t": 14648.650666666661,
      "d": 446.32607499999904,
      "v": 70
    },
    {
      "midi": 55,
      "hit": false,
      "t": 15094.97674166666,
      "d": 446.32607499999904,
      "v": 70
    },
    {
      "midi": 58,
      "hit": false,
      "t": 15094.97674166666,
      "d": 446.32607499999904,
      "v": 70
    },
    {
      "midi": 63,
      "hit": false,
      "t": 15094.97674166666,
      "d": 457.770333333332,
      "v": 70
    },
    {
      "midi": 39,
      "hit": false,
      "t": 15117.865258333326,
      "d": 434.88181666666605,
      "v": 70
    },
    {
      "midi": 55,
      "hit": false,
      "t": 15552.747074999992,
      "d": 446.32607499999904,
      "v": 70
    },
    {
      "midi": 58,
      "hit": false,
      "t": 15552.747074999992,
      "d": 457.770333333332,
      "v": 70
    },
    {
      "midi": 63,
      "hit": false,
      "t": 15552.747074999992,
      "d": 457.770333333332,
      "v": 70
    },
    {
      "midi": 39,
      "hit": false,
      "t": 15575.635591666658,
      "d": 423.4375583333331,
      "v": 70
    },
    {
      "midi": 39,
      "hit": false,
      "t": 16010.517408333324,
      "d": 446.32607499999904,
      "v": 70
    },
    {
      "midi": 55,
      "hit": false,
      "t": 16010.517408333324,
      "d": 457.770333333332,
      "v": 70
    },
    {
      "midi": 58,
      "hit": false,
      "t": 16010.517408333324,
      "d": 457.770333333332,
      "v": 70
    },
    {
      "midi": 63,
      "hit": false,
      "t": 16010.517408333324,
      "d": 457.770333333332,
      "v": 70
    },
    {
      "midi": 58,
      "hit": false,
      "t": 16479.73199999999,
      "d": 446.32607500000086,
      "v": 70
    },
    {
      "midi": 39,
      "hit": false,
      "t": 16491.176258333322,
      "d": 423.4375583333349,
      "v": 70
    },
    {
      "midi": 55,
      "hit": false,
      "t": 16491.176258333322,
      "d": 434.8818166666679,
      "v": 70
    },
    {
      "midi": 63,
      "hit": false,
      "t": 16491.176258333322,
      "d": 434.8818166666679,
      "v": 70
    },
    {
      "midi": 39,
      "hit": false,
      "t": 16948.946591666656,
      "d": 423.4375583333349,
      "v": 70
    },
    {
      "midi": 55,
      "hit": false,
      "t": 16948.946591666656,
      "d": 434.8818166666679,
      "v": 70
    },
    {
      "midi": 58,
      "hit": false,
      "t": 16948.946591666656,
      "d": 434.8818166666679,
      "v": 70
    },
    {
      "midi": 63,
      "hit": false,
      "t": 16948.946591666656,
      "d": 434.8818166666679,
      "v": 70
    },
    {
      "midi": 58,
      "hit": false,
      "t": 17383.828408333324,
      "d": 457.77033333333384,
      "v": 70
    },
    {
      "midi": 55,
      "hit": false,
      "t": 17406.71692499999,
      "d": 423.4375583333349,
      "v": 70
    },
    {
      "midi": 39,
      "hit": false,
      "t": 17406.71692499999,
      "d": 434.8818166666679,
      "v": 70
    },
    {
      "midi": 63,
      "hit": false,
      "t": 17406.71692499999,
      "d": 434.8818166666679,
      "v": 70
    },
    {
      "midi": 39,
      "hit": false,
      "t": 17864.487258333324,
      "d": 434.8818166666679,
      "v": 71
    },
    {
      "midi": 55,
      "hit": false,
      "t": 17864.487258333324,
      "d": 434.8818166666679,
      "v": 71
    },
    {
      "midi": 58,
      "hit": false,
      "t": 17864.487258333324,
      "d": 434.8818166666679,
      "v": 71
    },
    {
      "midi": 63,
      "hit": false,
      "t": 17864.487258333324,
      "d": 434.8818166666679,
      "v": 71
    },
    {
      "midi": 39,
      "hit": false,
      "t": 18322.257591666657,
      "d": 423.4375583333349,
      "v": 71
    },
    {
      "midi": 55,
      "hit": false,
      "t": 18322.257591666657,
      "d": 423.4375583333349,
      "v": 71
    },
    {
      "midi": 58,
      "hit": false,
      "t": 18322.257591666657,
      "d": 434.8818166666679,
      "v": 71
    },
    {
      "midi": 63,
      "hit": false,
      "t": 18322.257591666657,
      "d": 434.8818166666679,
      "v": 71
    },
    {
      "midi": 58,
      "hit": false,
      "t": 18768.58366666666,
      "d": 446.32607500000086,
      "v": 71
    },
    {
      "midi": 39,
      "hit": false,
      "t": 18780.02792499999,
      "d": 423.4375583333349,
      "v": 71
    },
    {
      "midi": 55,
      "hit": false,
      "t": 18780.02792499999,
      "d": 423.4375583333349,
      "v": 71
    },
    {
      "midi": 63,
      "hit": false,
      "t": 18780.02792499999,
      "d": 434.8818166666679,
      "v": 71
    },
    {
      "midi": 39,
      "hit": false,
      "t": 19237.798258333325,
      "d": 423.4375583333349,
      "v": 71
    },
    {
      "midi": 55,
      "hit": false,
      "t": 19237.798258333325,
      "d": 423.4375583333349,
      "v": 71
    },
    {
      "midi": 58,
      "hit": false,
      "t": 19237.798258333325,
      "d": 434.8818166666679,
      "v": 71
    },
    {
      "midi": 63,
      "hit": false,
      "t": 19237.798258333325,
      "d": 434.8818166666679,
      "v": 71
    },
    {
      "midi": 39,
      "hit": false,
      "t": 19695.56859166666,
      "d": 423.4375583333349,
      "v": 71
    },
    {
      "midi": 55,
      "hit": false,
      "t": 19695.56859166666,
      "d": 423.4375583333349,
      "v": 71
    },
    {
      "midi": 58,
      "hit": false,
      "t": 19695.56859166666,
      "d": 434.8818166666679,
      "v": 71
    },
    {
      "midi": 63,
      "hit": false,
      "t": 19695.56859166666,
      "d": 434.8818166666679,
      "v": 71
    },
    {
      "midi": 39,
      "hit": false,
      "t": 20130.450408333327,
      "d": 446.32607500000086,
      "v": 71
    },
    {
      "midi": 58,
      "hit": false,
      "t": 20141.89466666666,
      "d": 446.32607500000086,
      "v": 71
    },
    {
      "midi": 55,
      "hit": false,
      "t": 20153.338924999993,
      "d": 423.4375583333349,
      "v": 71
    },
    {
      "midi": 63,
      "hit": false,
      "t": 20153.338924999993,
      "d": 434.8818166666679,
      "v": 71
    },
    {
      "midi": 58,
      "hit": false,
      "t": 20599.664999999994,
      "d": 446.32607500000086,
      "v": 71
    },
    {
      "midi": 55,
      "hit": false,
      "t": 20611.109258333327,
      "d": 423.4375583333349,
      "v": 71
    },
    {
      "midi": 39,
      "hit": false,
      "t": 20611.109258333327,
      "d": 434.8818166666679,
      "v": 71
    },
    {
      "midi": 63,
      "hit": false,
      "t": 20611.109258333327,
      "d": 434.8818166666679,
      "v": 71
    },
    {
      "midi": 39,
      "hit": false,
      "t": 21068.87959166666,
      "d": 423.4375583333349,
      "v": 71
    },
    {
      "midi": 55,
      "hit": false,
      "t": 21068.87959166666,
      "d": 423.4375583333349,
      "v": 71
    },
    {
      "midi": 58,
      "hit": false,
      "t": 21068.87959166666,
      "d": 434.8818166666679,
      "v": 71
    },
    {
      "midi": 63,
      "hit": false,
      "t": 21068.87959166666,
      "d": 434.8818166666679,
      "v": 71
    },
    {
      "midi": 39,
      "hit": false,
      "t": 21526.649924999994,
      "d": 423.4375583333349,
      "v": 71
    },
    {
      "midi": 55,
      "hit": false,
      "t": 21526.649924999994,
      "d": 423.4375583333349,
      "v": 71
    },
    {
      "midi": 58,
      "hit": false,
      "t": 21526.649924999994,
      "d": 434.8818166666679,
      "v": 71
    },
    {
      "midi": 63,
      "hit": false,
      "t": 21526.649924999994,
      "d": 434.8818166666679,
      "v": 71
    },
    {
      "midi": 39,
      "hit": false,
      "t": 21984.420258333328,
      "d": 423.4375583333349,
      "v": 71
    },
    {
      "midi": 55,
      "hit": false,
      "t": 21984.420258333328,
      "d": 423.4375583333349,
      "v": 71
    },
    {
      "midi": 58,
      "hit": false,
      "t": 21984.420258333328,
      "d": 434.8818166666679,
      "v": 71
    },
    {
      "midi": 63,
      "hit": false,
      "t": 21984.420258333328,
      "d": 434.8818166666679,
      "v": 71
    },
    {
      "midi": 58,
      "hit": false,
      "t": 22430.74633333333,
      "d": 446.32607500000086,
      "v": 71
    },
    {
      "midi": 39,
      "hit": false,
      "t": 22442.190591666662,
      "d": 423.4375583333349,
      "v": 71
    },
    {
      "midi": 55,
      "hit": false,
      "t": 22442.190591666662,
      "d": 423.4375583333349,
      "v": 71
    },
    {
      "midi": 63,
      "hit": false,
      "t": 22442.190591666662,
      "d": 423.4375583333349,
      "v": 71
    },
    {
      "midi": 58,
      "hit": false,
      "t": 22877.07240833333,
      "d": 446.32607500000086,
      "v": 71
    },
    {
      "midi": 39,
      "hit": false,
      "t": 22888.516666666663,
      "d": 434.8818166666679,
      "v": 71
    },
    {
      "midi": 55,
      "hit": false,
      "t": 22888.516666666663,
      "d": 434.8818166666679,
      "v": 71
    },
    {
      "midi": 63,
      "hit": false,
      "t": 22899.960924999996,
      "d": 434.8818166666679,
      "v": 71
    },
    {
      "midi": 58,
      "hit": false,
      "t": 23334.842741666664,
      "d": 446.32607500000086,
      "v": 71
    },
    {
      "midi": 39,
      "hit": false,
      "t": 23346.286999999997,
      "d": 434.8818166666679,
      "v": 71
    },
    {
      "midi": 55,
      "hit": false,
      "t": 23346.286999999997,
      "d": 434.8818166666679,
      "v": 71
    },
    {
      "midi": 63,
      "hit": false,
      "t": 23346.286999999997,
      "d": 434.8818166666679,
      "v": 71
    },
    {
      "midi": 55,
      "hit": false,
      "t": 23804.05733333333,
      "d": 434.8818166666679,
      "v": 71
    },
    {
      "midi": 58,
      "hit": false,
      "t": 23804.05733333333,
      "d": 434.8818166666679,
      "v": 71
    },
    {
      "midi": 39,
      "hit": false,
      "t": 23815.501591666663,
      "d": 423.4375583333349,
      "v": 71
    },
    {
      "midi": 63,
      "hit": false,
      "t": 23815.501591666663,
      "d": 423.4375583333349,
      "v": 71
    },
    {
      "midi": 39,
      "hit": false,
      "t": 24250.38340833333,
      "d": 446.32607500000086,
      "v": 71
    },
    {
      "midi": 55,
      "hit": false,
      "t": 24250.38340833333,
      "d": 446.32607500000086,
      "v": 71
    },
    {
      "midi": 58,
      "hit": false,
      "t": 24250.38340833333,
      "d": 446.32607500000086,
      "v": 71
    },
    {
      "midi": 63,
      "hit": false,
      "t": 24250.38340833333,
      "d": 446.32607500000086,
      "v": 71
    },
    {
      "midi": 43,
      "hit": false,
      "t": 24731.04225833333,
      "d": 423.4375583333349,
      "v": 71
    },
    {
      "midi": 55,
      "hit": false,
      "t": 24731.04225833333,
      "d": 423.4375583333349,
      "v": 71
    },
    {
      "midi": 59,
      "hit": false,
      "t": 24731.04225833333,
      "d": 423.4375583333349,
      "v": 71
    },
    {
      "midi": 62,
      "hit": false,
      "t": 24731.04225833333,
      "d": 434.8818166666679,
      "v": 71
    },
    {
      "midi": 43,
      "hit": false,
      "t": 25165.924075,
      "d": 446.32607500000086,
      "v": 71
    },
    {
      "midi": 55,
      "hit": false,
      "t": 25188.812591666665,
      "d": 423.4375583333349,
      "v": 71
    },
    {
      "midi": 59,
      "hit": false,
      "t": 25188.812591666665,
      "d": 423.4375583333349,
      "v": 71
    },
    {
      "midi": 62,
      "hit": false,
      "t": 25188.812591666665,
      "d": 423.4375583333349,
      "v": 71
    },
    {
      "midi": 43,
      "hit": false,
      "t": 25623.694408333333,
      "d": 446.32607500000086,
      "v": 71
    },
    {
      "midi": 55,
      "hit": false,
      "t": 25646.582925,
      "d": 423.4375583333349,
      "v": 71
    },
    {
      "midi": 59,
      "hit": false,
      "t": 25646.582925,
      "d": 423.4375583333349,
      "v": 71
    },
    {
      "midi": 62,
      "hit": false,
      "t": 25646.582925,
      "d": 423.4375583333349,
      "v": 71
    },
    {
      "midi": 43,
      "hit": false,
      "t": 26081.464741666667,
      "d": 446.32607500000086,
      "v": 71
    },
    {
      "midi": 55,
      "hit": false,
      "t": 26104.353258333333,
      "d": 423.4375583333349,
      "v": 71
    },
    {
      "midi": 59,
      "hit": false,
      "t": 26104.353258333333,
      "d": 423.4375583333349,
      "v": 71
    },
    {
      "midi": 62,
      "hit": false,
      "t": 26104.353258333333,
      "d": 423.4375583333349,
      "v": 71
    },
    {
      "midi": 43,
      "hit": false,
      "t": 26550.679333333333,
      "d": 434.8818166666679,
      "v": 71
    },
    {
      "midi": 55,
      "hit": false,
      "t": 26562.123591666666,
      "d": 423.4375583333349,
      "v": 71
    },
    {
      "midi": 59,
      "hit": false,
      "t": 26562.123591666666,
      "d": 423.4375583333349,
      "v": 71
    },
    {
      "midi": 62,
      "hit": false,
      "t": 26562.123591666666,
      "d": 423.4375583333349,
      "v": 71
    },
    {
      "midi": 43,
      "hit": false,
      "t": 26997.005408333334,
      "d": 446.32607500000086,
      "v": 71
    },
    {
      "midi": 59,
      "hit": false,
      "t": 27008.449666666667,
      "d": 434.8818166666679,
      "v": 71
    },
    {
      "midi": 55,
      "hit": false,
      "t": 27019.893925,
      "d": 423.4375583333349,
      "v": 71
    },
    {
      "midi": 62,
      "hit": false,
      "t": 27019.893925,
      "d": 423.4375583333349,
      "v": 71
    },
    {
      "midi": 43,
      "hit": false,
      "t": 27454.77574166667,
      "d": 446.32607500000086,
      "v": 71
    },
    {
      "midi": 55,
      "hit": false,
      "t": 27477.664258333334,
      "d": 423.4375583333349,
      "v": 71
    },
    {
      "midi": 59,
      "hit": false,
      "t": 27477.664258333334,
      "d": 423.4375583333349,
      "v": 71
    },
    {
      "midi": 62,
      "hit": false,
      "t": 27477.664258333334,
      "d": 423.4375583333349,
      "v": 71
    },
    {
      "midi": 43,
      "hit": false,
      "t": 27923.990333333335,
      "d": 434.8818166666679,
      "v": 71
    },
    {
      "midi": 55,
      "hit": false,
      "t": 27935.434591666668,
      "d": 423.4375583333349,
      "v": 71
    },
    {
      "midi": 59,
      "hit": false,
      "t": 27935.434591666668,
      "d": 423.4375583333349,
      "v": 71
    },
    {
      "midi": 62,
      "hit": false,
      "t": 27935.434591666668,
      "d": 423.4375583333349,
      "v": 71
    },
    {
      "midi": 43,
      "hit": false,
      "t": 28370.316408333336,
      "d": 446.32607500000086,
      "v": 71
    },
    {
      "midi": 59,
      "hit": false,
      "t": 28370.316408333336,
      "d": 446.32607500000086,
      "v": 71
    },
    {
      "midi": 55,
      "hit": false,
      "t": 28381.76066666667,
      "d": 434.8818166666679,
      "v": 71
    },
    {
      "midi": 62,
      "hit": false,
      "t": 28381.76066666667,
      "d": 434.8818166666679,
      "v": 71
    },
    {
      "midi": 59,
      "hit": false,
      "t": 28828.08674166667,
      "d": 446.32607500000086,
      "v": 71
    },
    {
      "midi": 62,
      "hit": false,
      "t": 28828.08674166667,
      "d": 446.32607500000086,
      "v": 71
    },
    {
      "midi": 43,
      "hit": false,
      "t": 28839.531000000003,
      "d": 434.8818166666679,
      "v": 71
    },
    {
      "midi": 55,
      "hit": false,
      "t": 28839.531000000003,
      "d": 434.8818166666679,
      "v": 71
    },
    {
      "midi": 59,
      "hit": false,
      "t": 29285.857075000004,
      "d": 446.32607500000086,
      "v": 71
    },
    {
      "midi": 62,
      "hit": false,
      "t": 29285.857075000004,
      "d": 446.32607500000086,
      "v": 71
    },
    {
      "midi": 43,
      "hit": false,
      "t": 29297.301333333337,
      "d": 434.8818166666679,
      "v": 71
    },
    {
      "midi": 55,
      "hit": false,
      "t": 29297.301333333337,
      "d": 434.8818166666679,
      "v": 71
    },
    {
      "midi": 43,
      "hit": false,
      "t": 29743.627408333337,
      "d": 446.32607500000086,
      "v": 71
    },
    {
      "midi": 55,
      "hit": false,
      "t": 29743.627408333337,
      "d": 446.32607500000086,
      "v": 71
    },
    {
      "midi": 59,
      "hit": false,
      "t": 29743.627408333337,
      "d": 446.32607500000086,
      "v": 71
    },
    {
      "midi": 62,
      "hit": false,
      "t": 29743.627408333337,
      "d": 446.32607500000086,
      "v": 71
    },
    {
      "midi": 43,
      "hit": false,
      "t": 30201.39774166667,
      "d": 446.32607500000086,
      "v": 71
    },
    {
      "midi": 55,
      "hit": false,
      "t": 30201.39774166667,
      "d": 446.32607500000086,
      "v": 71
    },
    {
      "midi": 59,
      "hit": false,
      "t": 30201.39774166667,
      "d": 446.32607500000086,
      "v": 71
    },
    {
      "midi": 62,
      "hit": false,
      "t": 30201.39774166667,
      "d": 446.32607500000086,
      "v": 71
    },
    {
      "midi": 55,
      "hit": false,
      "t": 30659.168075000005,
      "d": 446.32607500000086,
      "v": 71
    },
    {
      "midi": 59,
      "hit": false,
      "t": 30659.168075000005,
      "d": 446.32607500000086,
      "v": 71
    },
    {
      "midi": 62,
      "hit": false,
      "t": 30659.168075000005,
      "d": 446.32607500000086,
      "v": 71
    },
    {
      "midi": 43,
      "hit": false,
      "t": 30670.612333333338,
      "d": 434.8818166666679,
      "v": 71
    },
    {
      "midi": 43,
      "hit": false,
      "t": 31116.93840833334,
      "d": 446.32607500000086,
      "v": 71
    },
    {
      "midi": 55,
      "hit": false,
      "t": 31116.93840833334,
      "d": 446.32607500000086,
      "v": 71
    },
    {
      "midi": 59,
      "hit": false,
      "t": 31116.93840833334,
      "d": 446.32607500000086,
      "v": 71
    },
    {
      "midi": 62,
      "hit": false,
      "t": 31116.93840833334,
      "d": 446.32607500000086,
      "v": 71
    },
    {
      "midi": 43,
      "hit": false,
      "t": 31574.708741666673,
      "d": 446.32607500000086,
      "v": 71
    },
    {
      "midi": 55,
      "hit": false,
      "t": 31574.708741666673,
      "d": 446.32607500000086,
      "v": 71
    },
    {
      "midi": 59,
      "hit": false,
      "t": 31574.708741666673,
      "d": 446.32607500000086,
      "v": 71
    },
    {
      "midi": 62,
      "hit": false,
      "t": 31574.708741666673,
      "d": 446.32607500000086,
      "v": 71
    },
    {
      "midi": 55,
      "hit": false,
      "t": 32032.479075000007,
      "d": 446.32607500000086,
      "v": 71
    },
    {
      "midi": 59,
      "hit": false,
      "t": 32032.479075000007,
      "d": 446.32607500000086,
      "v": 71
    },
    {
      "midi": 62,
      "hit": false,
      "t": 32032.479075000007,
      "d": 446.32607500000086,
      "v": 71
    },
    {
      "midi": 43,
      "hit": false,
      "t": 32043.92333333334,
      "d": 434.8818166666679,
      "v": 71
    },
    {
      "midi": 43,
      "hit": false,
      "t": 32490.24940833334,
      "d": 446.32607500000086,
      "v": 71
    },
    {
      "midi": 55,
      "hit": false,
      "t": 32490.24940833334,
      "d": 446.32607500000086,
      "v": 71
    },
    {
      "midi": 59,
      "hit": false,
      "t": 32490.24940833334,
      "d": 446.32607500000086,
      "v": 71
    },
    {
      "midi": 62,
      "hit": false,
      "t": 32490.24940833334,
      "d": 446.32607500000086,
      "v": 71
    },
    {
      "midi": 43,
      "hit": false,
      "t": 32948.01974166668,
      "d": 446.3260749999972,
      "v": 71
    },
    {
      "midi": 55,
      "hit": false,
      "t": 32948.01974166668,
      "d": 446.3260749999972,
      "v": 71
    },
    {
      "midi": 59,
      "hit": false,
      "t": 32948.01974166668,
      "d": 446.3260749999972,
      "v": 71
    },
    {
      "midi": 62,
      "hit": false,
      "t": 32948.01974166668,
      "d": 446.3260749999972,
      "v": 71
    },
    {
      "midi": 43,
      "hit": false,
      "t": 33405.79007500001,
      "d": 446.3260749999972,
      "v": 71
    },
    {
      "midi": 55,
      "hit": false,
      "t": 33405.79007500001,
      "d": 446.3260749999972,
      "v": 71
    },
    {
      "midi": 59,
      "hit": false,
      "t": 33405.79007500001,
      "d": 446.3260749999972,
      "v": 71
    },
    {
      "midi": 62,
      "hit": false,
      "t": 33405.79007500001,
      "d": 446.3260749999972,
      "v": 71
    },
    {
      "midi": 43,
      "hit": false,
      "t": 33863.560408333346,
      "d": 446.3260749999972,
      "v": 71
    },
    {
      "midi": 55,
      "hit": false,
      "t": 33863.560408333346,
      "d": 446.3260749999972,
      "v": 71
    },
    {
      "midi": 59,
      "hit": false,
      "t": 33863.560408333346,
      "d": 446.3260749999972,
      "v": 71
    },
    {
      "midi": 62,
      "hit": false,
      "t": 33863.560408333346,
      "d": 446.3260749999972,
      "v": 71
    },
    {
      "midi": 43,
      "hit": false,
      "t": 34332.77500000001,
      "d": 434.8818166666679,
      "v": 71
    },
    {
      "midi": 55,
      "hit": false,
      "t": 34332.77500000001,
      "d": 434.8818166666679,
      "v": 71
    },
    {
      "midi": 59,
      "hit": false,
      "t": 34332.77500000001,
      "d": 434.8818166666679,
      "v": 71
    },
    {
      "midi": 62,
      "hit": false,
      "t": 34332.77500000001,
      "d": 434.8818166666679,
      "v": 71
    },
    {
      "midi": 43,
      "hit": false,
      "t": 34790.54533333334,
      "d": 434.8818166666679,
      "v": 71
    },
    {
      "midi": 59,
      "hit": false,
      "t": 34790.54533333334,
      "d": 434.8818166666679,
      "v": 71
    },
    {
      "midi": 55,
      "hit": false,
      "t": 34801.98959166668,
      "d": 423.43755833333125,
      "v": 71
    },
    {
      "midi": 62,
      "hit": false,
      "t": 34801.98959166668,
      "d": 423.43755833333125,
      "v": 71
    },
    {
      "midi": 55,
      "hit": false,
      "t": 35248.31566666668,
      "d": 434.8818166666679,
      "v": 71
    },
    {
      "midi": 59,
      "hit": false,
      "t": 35248.31566666668,
      "d": 434.8818166666679,
      "v": 71
    },
    {
      "midi": 62,
      "hit": false,
      "t": 35248.31566666668,
      "d": 434.8818166666679,
      "v": 71
    },
    {
      "midi": 43,
      "hit": false,
      "t": 35259.75992500001,
      "d": 423.43755833333125,
      "v": 71
    },
    {
      "midi": 55,
      "hit": false,
      "t": 35717.53025833335,
      "d": 423.43755833333125,
      "v": 72
    },
    {
      "midi": 60,
      "hit": false,
      "t": 35717.53025833335,
      "d": 423.43755833333125,
      "v": 72
    },
    {
      "midi": 48,
      "hit": false,
      "t": 35717.53025833335,
      "d": 434.8818166666679,
      "v": 72
    },
    {
      "midi": 63,
      "hit": false,
      "t": 35717.53025833335,
      "d": 434.8818166666679,
      "v": 72
    },
    {
      "midi": 48,
      "hit": false,
      "t": 36175.30059166668,
      "d": 423.43755833333125,
      "v": 72
    },
    {
      "midi": 55,
      "hit": false,
      "t": 36175.30059166668,
      "d": 423.43755833333125,
      "v": 72
    },
    {
      "midi": 60,
      "hit": false,
      "t": 36175.30059166668,
      "d": 423.43755833333125,
      "v": 72
    },
    {
      "midi": 63,
      "hit": false,
      "t": 36175.30059166668,
      "d": 423.43755833333125,
      "v": 72
    },
    {
      "midi": 48,
      "hit": false,
      "t": 36621.62666666668,
      "d": 434.8818166666679,
      "v": 72
    },
    {
      "midi": 55,
      "hit": false,
      "t": 36633.070925000015,
      "d": 423.43755833333125,
      "v": 72
    },
    {
      "midi": 60,
      "hit": false,
      "t": 36633.070925000015,
      "d": 423.43755833333125,
      "v": 72
    },
    {
      "midi": 63,
      "hit": false,
      "t": 36633.070925000015,
      "d": 423.43755833333125,
      "v": 72
    },
    {
      "midi": 48,
      "hit": false,
      "t": 37090.84125833335,
      "d": 423.43755833333125,
      "v": 72
    },
    {
      "midi": 55,
      "hit": false,
      "t": 37090.84125833335,
      "d": 423.43755833333125,
      "v": 72
    },
    {
      "midi": 60,
      "hit": false,
      "t": 37090.84125833335,
      "d": 423.43755833333125,
      "v": 72
    },
    {
      "midi": 63,
      "hit": false,
      "t": 37090.84125833335,
      "d": 423.43755833333125,
      "v": 72
    },
    {
      "midi": 48,
      "hit": false,
      "t": 37548.61159166668,
      "d": 423.43755833333125,
      "v": 72
    },
    {
      "midi": 55,
      "hit": false,
      "t": 37548.61159166668,
      "d": 423.43755833333125,
      "v": 72
    },
    {
      "midi": 60,
      "hit": false,
      "t": 37548.61159166668,
      "d": 423.43755833333125,
      "v": 72
    },
    {
      "midi": 63,
      "hit": false,
      "t": 37548.61159166668,
      "d": 423.43755833333125,
      "v": 72
    },
    {
      "midi": 60,
      "hit": false,
      "t": 37994.93766666668,
      "d": 434.8818166666679,
      "v": 72
    },
    {
      "midi": 48,
      "hit": false,
      "t": 38006.381925000016,
      "d": 423.43755833333125,
      "v": 72
    },
    {
      "midi": 55,
      "hit": false,
      "t": 38006.381925000016,
      "d": 423.43755833333125,
      "v": 72
    },
    {
      "midi": 63,
      "hit": false,
      "t": 38006.381925000016,
      "d": 423.43755833333125,
      "v": 72
    },
    {
      "midi": 60,
      "hit": false,
      "t": 38441.263741666684,
      "d": 446.3260750000045,
      "v": 72
    },
    {
      "midi": 55,
      "hit": false,
      "t": 38452.70800000002,
      "d": 434.8818166666679,
      "v": 72
    },
    {
      "midi": 48,
      "hit": false,
      "t": 38464.15225833336,
      "d": 423.43755833333125,
      "v": 72
    },
    {
      "midi": 63,
      "hit": false,
      "t": 38464.15225833336,
      "d": 423.43755833333125,
      "v": 72
    },
    {
      "midi": 48,
      "hit": false,
      "t": 38910.478333333354,
      "d": 434.8818166666679,
      "v": 72
    },
    {
      "midi": 55,
      "hit": false,
      "t": 38910.478333333354,
      "d": 434.8818166666679,
      "v": 72
    },
    {
      "midi": 60,
      "hit": false,
      "t": 38910.478333333354,
      "d": 434.8818166666679,
      "v": 72
    },
    {
      "midi": 63,
      "hit": false,
      "t": 38921.92259166669,
      "d": 423.43755833333125,
      "v": 72
    },
    {
      "midi": 48,
      "hit": false,
      "t": 39356.80440833336,
      "d": 446.3260749999972,
      "v": 72
    },
    {
      "midi": 55,
      "hit": false,
      "t": 39356.80440833336,
      "d": 446.3260749999972,
      "v": 72
    },
    {
      "midi": 60,
      "hit": false,
      "t": 39356.80440833336,
      "d": 446.3260749999972,
      "v": 72
    },
    {
      "midi": 63,
      "hit": false,
      "t": 39356.80440833336,
      "d": 446.3260749999972,
      "v": 72
    },
    {
      "midi": 48,
      "hit": false,
      "t": 39814.57474166669,
      "d": 446.3260749999972,
      "v": 72
    },
    {
      "midi": 55,
      "hit": false,
      "t": 39814.57474166669,
      "d": 446.3260749999972,
      "v": 72
    },
    {
      "midi": 60,
      "hit": false,
      "t": 39814.57474166669,
      "d": 446.3260749999972,
      "v": 72
    },
    {
      "midi": 63,
      "hit": false,
      "t": 39814.57474166669,
      "d": 446.3260749999972,
      "v": 72
    },
    {
      "midi": 55,
      "hit": false,
      "t": 40272.34507500003,
      "d": 446.3260750000045,
      "v": 72
    },
    {
      "midi": 60,
      "hit": false,
      "t": 40272.34507500003,
      "d": 446.3260750000045,
      "v": 72
    },
    {
      "midi": 63,
      "hit": false,
      "t": 40272.34507500003,
      "d": 446.3260750000045,
      "v": 72
    },
    {
      "midi": 48,
      "hit": false,
      "t": 40283.78933333336,
      "d": 434.8818166666679,
      "v": 72
    },
    {
      "midi": 55,
      "hit": false,
      "t": 40730.11540833337,
      "d": 446.3260750000045,
      "v": 72
    },
    {
      "midi": 60,
      "hit": false,
      "t": 40730.11540833337,
      "d": 446.3260750000045,
      "v": 72
    },
    {
      "midi": 63,
      "hit": false,
      "t": 40730.11540833337,
      "d": 446.3260750000045,
      "v": 72
    },
    {
      "midi": 48,
      "hit": false,
      "t": 40741.559666666704,
      "d": 434.8818166666679,
      "v": 72
    },
    {
      "midi": 55,
      "hit": false,
      "t": 41187.88574166671,
      "d": 446.3260749999972,
      "v": 72
    },
    {
      "midi": 60,
      "hit": false,
      "t": 41187.88574166671,
      "d": 446.3260749999972,
      "v": 72
    },
    {
      "midi": 63,
      "hit": false,
      "t": 41187.88574166671,
      "d": 446.3260749999972,
      "v": 72
    },
    {
      "midi": 48,
      "hit": false,
      "t": 41210.774258333375,
      "d": 423.43755833333125,
      "v": 72
    },
    {
      "midi": 48,
      "hit": false,
      "t": 41645.65607500004,
      "d": 446.3260749999972,
      "v": 72
    },
    {
      "midi": 55,
      "hit": false,
      "t": 41645.65607500004,
      "d": 446.3260749999972,
      "v": 72
    },
    {
      "midi": 60,
      "hit": false,
      "t": 41645.65607500004,
      "d": 446.3260749999972,
      "v": 72
    },
    {
      "midi": 63,
      "hit": false,
      "t": 41645.65607500004,
      "d": 446.3260749999972,
      "v": 72
    },
    {
      "midi": 48,
      "hit": false,
      "t": 42103.42640833338,
      "d": 446.3260749999972,
      "v": 72
    },
    {
      "midi": 55,
      "hit": false,
      "t": 42103.42640833338,
      "d": 446.3260749999972,
      "v": 72
    },
    {
      "midi": 60,
      "hit": false,
      "t": 42103.42640833338,
      "d": 446.3260749999972,
      "v": 72
    },
    {
      "midi": 63,
      "hit": false,
      "t": 42103.42640833338,
      "d": 446.3260749999972,
      "v": 72
    },
    {
      "midi": 48,
      "hit": false,
      "t": 42561.19674166671,
      "d": 446.3260749999972,
      "v": 72
    },
    {
      "midi": 55,
      "hit": false,
      "t": 42561.19674166671,
      "d": 446.3260749999972,
      "v": 72
    },
    {
      "midi": 60,
      "hit": false,
      "t": 42561.19674166671,
      "d": 446.3260749999972,
      "v": 72
    },
    {
      "midi": 63,
      "hit": false,
      "t": 42561.19674166671,
      "d": 446.3260749999972,
      "v": 72
    },
    {
      "midi": 48,
      "hit": false,
      "t": 43018.967075000044,
      "d": 446.3260750000045,
      "v": 72
    },
    {
      "midi": 60,
      "hit": false,
      "t": 43018.967075000044,
      "d": 446.3260750000045,
      "v": 72
    },
    {
      "midi": 55,
      "hit": false,
      "t": 43030.41133333338,
      "d": 434.8818166666679,
      "v": 72
    },
    {
      "midi": 63,
      "hit": false,
      "t": 43041.85559166672,
      "d": 423.43755833333125,
      "v": 72
    },
    {
      "midi": 48,
      "hit": false,
      "t": 43476.737408333385,
      "d": 446.3260750000045,
      "v": 72
    },
    {
      "midi": 55,
      "hit": false,
      "t": 43476.737408333385,
      "d": 446.3260750000045,
      "v": 72
    },
    {
      "midi": 60,
      "hit": false,
      "t": 43476.737408333385,
      "d": 446.3260750000045,
      "v": 72
    },
    {
      "midi": 63,
      "hit": false,
      "t": 43488.18166666672,
      "d": 434.8818166666679,
      "v": 72
    },
    {
      "midi": 48,
      "hit": false,
      "t": 43934.507741666726,
      "d": 446.3260750000045,
      "v": 72
    },
    {
      "midi": 55,
      "hit": false,
      "t": 43934.507741666726,
      "d": 446.3260750000045,
      "v": 72
    },
    {
      "midi": 60,
      "hit": false,
      "t": 43934.507741666726,
      "d": 446.3260750000045,
      "v": 72
    },
    {
      "midi": 63,
      "hit": false,
      "t": 43945.95200000006,
      "d": 434.8818166666679,
      "v": 72
    },
    {
      "midi": 55,
      "hit": false,
      "t": 44403.7223333334,
      "d": 434.8818166666679,
      "v": 72
    },
    {
      "midi": 48,
      "hit": false,
      "t": 44415.16659166673,
      "d": 423.43755833333125,
      "v": 72
    },
    {
      "midi": 60,
      "hit": false,
      "t": 44415.16659166673,
      "d": 423.43755833333125,
      "v": 72
    },
    {
      "midi": 63,
      "hit": false,
      "t": 44415.16659166673,
      "d": 423.43755833333125,
      "v": 72
    },
    {
      "midi": 55,
      "hit": false,
      "t": 44850.0484083334,
      "d": 446.3260750000045,
      "v": 72
    },
    {
      "midi": 60,
      "hit": false,
      "t": 44850.0484083334,
      "d": 446.3260750000045,
      "v": 72
    },
    {
      "midi": 48,
      "hit": false,
      "t": 44861.49266666674,
      "d": 434.8818166666679,
      "v": 72
    },
    {
      "midi": 63,
      "hit": false,
      "t": 44861.49266666674,
      "d": 434.8818166666679,
      "v": 72
    },
    {
      "midi": 55,
      "hit": false,
      "t": 45330.70725833341,
      "d": 423.43755833333125,
      "v": 72
    },
    {
      "midi": 60,
      "hit": false,
      "t": 45330.70725833341,
      "d": 423.43755833333125,
      "v": 72
    },
    {
      "midi": 63,
      "hit": false,
      "t": 45330.70725833341,
      "d": 423.43755833333125,
      "v": 72
    },
    {
      "midi": 48,
      "hit": false,
      "t": 45330.70725833341,
      "d": 434.8818166666679,
      "v": 72
    },
    {
      "midi": 60,
      "hit": false,
      "t": 45777.03333333341,
      "d": 434.8818166666679,
      "v": 72
    },
    {
      "midi": 48,
      "hit": false,
      "t": 45788.47759166675,
      "d": 423.43755833333125,
      "v": 72
    },
    {
      "midi": 55,
      "hit": false,
      "t": 45788.47759166675,
      "d": 423.43755833333125,
      "v": 72
    },
    {
      "midi": 63,
      "hit": false,
      "t": 45788.47759166675,
      "d": 423.43755833333125,
      "v": 72
    },
    {
      "midi": 55,
      "hit": false,
      "t": 46223.35940833342,
      "d": 446.3260749999972,
      "v": 72
    },
    {
      "midi": 60,
      "hit": false,
      "t": 46223.35940833342,
      "d": 446.3260749999972,
      "v": 72
    },
    {
      "midi": 63,
      "hit": false,
      "t": 46223.35940833342,
      "d": 446.3260749999972,
      "v": 72
    },
    {
      "midi": 48,
      "hit": false,
      "t": 46246.24792500008,
      "d": 423.43755833333125,
      "v": 72
    },
    {
      "midi": 58,
      "hit": false,
      "t": 46692.57400000008,
      "d": 434.8818166666679,
      "v": 72
    },
    {
      "midi": 63,
      "hit": false,
      "t": 46692.57400000008,
      "d": 434.8818166666679,
      "v": 72
    },
    {
      "midi": 39,
      "hit": false,
      "t": 46704.01825833342,
      "d": 423.43755833333125,
      "v": 72
    },
    {
      "midi": 55,
      "hit": false,
      "t": 46704.01825833342,
      "d": 423.43755833333125,
      "v": 72
    },
    {
      "midi": 58,
      "hit": false,
      "t": 47138.900075000085,
      "d": 446.3260750000045,
      "v": 72
    },
    {
      "midi": 61,
      "hit": false,
      "t": 47138.900075000085,
      "d": 446.3260750000045,
      "v": 72
    },
    {
      "midi": 55,
      "hit": false,
      "t": 47150.34433333342,
      "d": 434.8818166666679,
      "v": 72
    },
    {
      "midi": 39,
      "hit": false,
      "t": 47161.78859166676,
      "d": 423.43755833333125,
      "v": 72
    },
    {
      "midi": 55,
      "hit": false,
      "t": 47596.670408333426,
      "d": 446.3260749999972,
      "v": 72
    },
    {
      "midi": 58,
      "hit": false,
      "t": 47596.670408333426,
      "d": 446.3260749999972,
      "v": 72
    },
    {
      "midi": 61,
      "hit": false,
      "t": 47596.670408333426,
      "d": 446.3260749999972,
      "v": 72
    },
    {
      "midi": 39,
      "hit": false,
      "t": 47619.55892500009,
      "d": 423.43755833333125,
      "v": 72
    },
    {
      "midi": 55,
      "hit": false,
      "t": 48054.44074166676,
      "d": 446.3260750000045,
      "v": 72
    },
    {
      "midi": 58,
      "hit": false,
      "t": 48054.44074166676,
      "d": 446.3260750000045,
      "v": 72
    },
    {
      "midi": 61,
      "hit": false,
      "t": 48054.44074166676,
      "d": 446.3260750000045,
      "v": 72
    },
    {
      "midi": 39,
      "hit": false,
      "t": 48065.8850000001,
      "d": 434.8818166666679,
      "v": 72
    },
    {
      "midi": 39,
      "hit": false,
      "t": 48512.2110750001,
      "d": 446.3260749999972,
      "v": 72
    },
    {
      "midi": 55,
      "hit": false,
      "t": 48512.2110750001,
      "d": 446.3260749999972,
      "v": 72
    },
    {
      "midi": 58,
      "hit": false,
      "t": 48512.2110750001,
      "d": 446.3260749999972,
      "v": 72
    },
    {
      "midi": 61,
      "hit": false,
      "t": 48512.2110750001,
      "d": 446.3260749999972,
      "v": 72
    },
    {
      "midi": 55,
      "hit": false,
      "t": 48969.981408333435,
      "d": 446.3260749999972,
      "v": 72
    },
    {
      "midi": 58,
      "hit": false,
      "t": 48969.981408333435,
      "d": 446.3260749999972,
      "v": 72
    },
    {
      "midi": 61,
      "hit": false,
      "t": 48969.981408333435,
      "d": 446.3260749999972,
      "v": 72
    },
    {
      "midi": 39,
      "hit": false,
      "t": 48992.8699250001,
      "d": 423.43755833333125,
      "v": 72
    },
    {
      "midi": 55,
      "hit": false,
      "t": 49427.75174166677,
      "d": 446.3260749999972,
      "v": 72
    },
    {
      "midi": 58,
      "hit": false,
      "t": 49427.75174166677,
      "d": 446.3260749999972,
      "v": 72
    },
    {
      "midi": 61,
      "hit": false,
      "t": 49427.75174166677,
      "d": 446.3260749999972,
      "v": 72
    },
    {
      "midi": 39,
      "hit": false,
      "t": 49450.640258333435,
      "d": 423.43755833333125,
      "v": 72
    },
    {
      "midi": 55,
      "hit": false,
      "t": 49885.5220750001,
      "d": 446.3260749999972,
      "v": 72
    },
    {
      "midi": 58,
      "hit": false,
      "t": 49885.5220750001,
      "d": 446.3260749999972,
      "v": 72
    },
    {
      "midi": 61,
      "hit": false,
      "t": 49885.5220750001,
      "d": 446.3260749999972,
      "v": 72
    },
    {
      "midi": 39,
      "hit": false,
      "t": 49908.41059166677,
      "d": 423.43755833333125,
      "v": 72
    },
    {
      "midi": 55,
      "hit": false,
      "t": 50343.29240833344,
      "d": 446.3260749999972,
      "v": 72
    },
    {
      "midi": 58,
      "hit": false,
      "t": 50343.29240833344,
      "d": 446.3260749999972,
      "v": 72
    },
    {
      "midi": 61,
      "hit": false,
      "t": 50343.29240833344,
      "d": 446.3260749999972,
      "v": 72
    },
    {
      "midi": 39,
      "hit": false,
      "t": 50366.1809250001,
      "d": 423.43755833333125,
      "v": 72
    },
    {
      "midi": 55,
      "hit": false,
      "t": 50801.06274166677,
      "d": 446.3260749999972,
      "v": 72
    },
    {
      "midi": 58,
      "hit": false,
      "t": 50801.06274166677,
      "d": 446.3260749999972,
      "v": 72
    },
    {
      "midi": 61,
      "hit": false,
      "t": 50801.06274166677,
      "d": 446.3260749999972,
      "v": 72
    },
    {
      "midi": 39,
      "hit": false,
      "t": 50823.951258333436,
      "d": 423.43755833333125,
      "v": 72
    },
    {
      "midi": 55,
      "hit": false,
      "t": 51258.833075000104,
      "d": 446.3260749999972,
      "v": 72
    },
    {
      "midi": 58,
      "hit": false,
      "t": 51258.833075000104,
      "d": 446.3260749999972,
      "v": 72
    },
    {
      "midi": 61,
      "hit": false,
      "t": 51258.833075000104,
      "d": 446.3260749999972,
      "v": 72
    },
    {
      "midi": 39,
      "hit": false,
      "t": 51281.72159166677,
      "d": 423.43755833333125,
      "v": 72
    },
    {
      "midi": 39,
      "hit": false,
      "t": 51716.60340833344,
      "d": 446.3260749999972,
      "v": 72
    },
    {
      "midi": 55,
      "hit": false,
      "t": 51716.60340833344,
      "d": 446.3260749999972,
      "v": 72
    },
    {
      "midi": 58,
      "hit": false,
      "t": 51716.60340833344,
      "d": 446.3260749999972,
      "v": 72
    },
    {
      "midi": 61,
      "hit": false,
      "t": 51716.60340833344,
      "d": 446.3260749999972,
      "v": 72
    },
    {
      "midi": 39,
      "hit": false,
      "t": 52174.37374166677,
      "d": 446.3260750000045,
      "v": 72
    },
    {
      "midi": 58,
      "hit": false,
      "t": 52174.37374166677,
      "d": 446.3260750000045,
      "v": 72
    },
    {
      "midi": 61,
      "hit": false,
      "t": 52174.37374166677,
      "d": 446.3260750000045,
      "v": 72
    },
    {
      "midi": 55,
      "hit": false,
      "t": 52185.81800000011,
      "d": 434.8818166666679,
      "v": 72
    },
    {
      "midi": 39,
      "hit": false,
      "t": 52632.14407500011,
      "d": 446.3260750000045,
      "v": 72
    },
    {
      "midi": 58,
      "hit": false,
      "t": 52632.14407500011,
      "d": 446.3260750000045,
      "v": 72
    },
    {
      "midi": 61,
      "hit": false,
      "t": 52643.58833333345,
      "d": 434.8818166666679,
      "v": 72
    },
    {
      "midi": 55,
      "hit": false,
      "t": 52655.032591666786,
      "d": 423.43755833333125,
      "v": 72
    },
    {
      "midi": 39,
      "hit": false,
      "t": 53089.914408333454,
      "d": 446.3260749999972,
      "v": 72
    },
    {
      "midi": 55,
      "hit": false,
      "t": 53089.914408333454,
      "d": 446.3260749999972,
      "v": 72
    },
    {
      "midi": 58,
      "hit": false,
      "t": 53089.914408333454,
      "d": 446.3260749999972,
      "v": 72
    },
    {
      "midi": 61,
      "hit": false,
      "t": 53089.914408333454,
      "d": 446.3260749999972,
      "v": 72
    },
    {
      "midi": 58,
      "hit": false,
      "t": 53559.12900000012,
      "d": 446.3260750000045,
      "v": 73
    },
    {
      "midi": 39,
      "hit": false,
      "t": 53570.573258333454,
      "d": 423.43755833333125,
      "v": 73
    },
    {
      "midi": 55,
      "hit": false,
      "t": 53570.573258333454,
      "d": 423.43755833333125,
      "v": 73
    },
    {
      "midi": 61,
      "hit": false,
      "t": 53570.573258333454,
      "d": 434.8818166666679,
      "v": 73
    },
    {
      "midi": 39,
      "hit": false,
      "t": 54005.45507500012,
      "d": 446.3260749999972,
      "v": 73
    },
    {
      "midi": 55,
      "hit": false,
      "t": 54028.34359166679,
      "d": 423.43755833333125,
      "v": 73
    },
    {
      "midi": 58,
      "hit": false,
      "t": 54028.34359166679,
      "d": 423.43755833333125,
      "v": 73
    },
    {
      "midi": 61,
      "hit": false,
      "t": 54028.34359166679,
      "d": 423.43755833333125,
      "v": 73
    },
    {
      "midi": 55,
      "hit": false,
      "t": 54474.669666666785,
      "d": 434.8818166666679,
      "v": 73
    },
    {
      "midi": 58,
      "hit": false,
      "t": 54474.669666666785,
      "d": 434.8818166666679,
      "v": 73
    },
    {
      "midi": 61,
      "hit": false,
      "t": 54474.669666666785,
      "d": 446.3260750000045,
      "v": 73
    },
    {
      "midi": 39,
      "hit": false,
      "t": 54486.11392500012,
      "d": 423.43755833333125,
      "v": 73
    },
    {
      "midi": 55,
      "hit": false,
      "t": 54943.884258333455,
      "d": 423.43755833333125,
      "v": 73
    },
    {
      "midi": 58,
      "hit": false,
      "t": 54943.884258333455,
      "d": 423.43755833333125,
      "v": 73
    },
    {
      "midi": 39,
      "hit": false,
      "t": 54943.884258333455,
      "d": 434.8818166666679,
      "v": 73
    },
    {
      "midi": 61,
      "hit": false,
      "t": 54943.884258333455,
      "d": 434.8818166666679,
      "v": 73
    },
    {
      "midi": 39,
      "hit": false,
      "t": 55401.65459166679,
      "d": 423.43755833333125,
      "v": 73
    },
    {
      "midi": 55,
      "hit": false,
      "t": 55401.65459166679,
      "d": 423.43755833333125,
      "v": 73
    },
    {
      "midi": 58,
      "hit": false,
      "t": 55401.65459166679,
      "d": 423.43755833333125,
      "v": 73
    },
    {
      "midi": 61,
      "hit": false,
      "t": 55401.65459166679,
      "d": 423.43755833333125,
      "v": 73
    },
    {
      "midi": 39,
      "hit": false,
      "t": 55859.42492500012,
      "d": 423.43755833333125,
      "v": 73
    },
    {
      "midi": 55,
      "hit": false,
      "t": 55859.42492500012,
      "d": 423.43755833333125,
      "v": 73
    },
    {
      "midi": 58,
      "hit": false,
      "t": 55859.42492500012,
      "d": 423.43755833333125,
      "v": 73
    },
    {
      "midi": 61,
      "hit": false,
      "t": 55859.42492500012,
      "d": 434.8818166666679,
      "v": 73
    },
    {
      "midi": 39,
      "hit": false,
      "t": 56305.75100000013,
      "d": 434.8818166666679,
      "v": 73
    },
    {
      "midi": 55,
      "hit": false,
      "t": 56317.195258333464,
      "d": 423.43755833333125,
      "v": 73
    },
    {
      "midi": 58,
      "hit": false,
      "t": 56317.195258333464,
      "d": 423.43755833333125,
      "v": 73
    },
    {
      "midi": 61,
      "hit": false,
      "t": 56317.195258333464,
      "d": 423.43755833333125,
      "v": 73
    },
    {
      "midi": 58,
      "hit": false,
      "t": 56763.52133333346,
      "d": 434.8818166666679,
      "v": 73
    },
    {
      "midi": 39,
      "hit": false,
      "t": 56774.9655916668,
      "d": 423.43755833333125,
      "v": 73
    },
    {
      "midi": 55,
      "hit": false,
      "t": 56774.9655916668,
      "d": 423.43755833333125,
      "v": 73
    },
    {
      "midi": 61,
      "hit": false,
      "t": 56774.9655916668,
      "d": 423.43755833333125,
      "v": 73
    },
    {
      "midi": 55,
      "hit": false,
      "t": 57209.847408333466,
      "d": 446.3260749999972,
      "v": 73
    },
    {
      "midi": 58,
      "hit": false,
      "t": 57209.847408333466,
      "d": 446.3260749999972,
      "v": 73
    },
    {
      "midi": 61,
      "hit": false,
      "t": 57209.847408333466,
      "d": 446.3260749999972,
      "v": 73
    },
    {
      "midi": 39,
      "hit": false,
      "t": 57232.73592500013,
      "d": 423.43755833333125,
      "v": 73
    },
    {
      "midi": 56,
      "hit": false,
      "t": 57667.6177416668,
      "d": 457.77033333333384,
      "v": 73
    },
    {
      "midi": 60,
      "hit": false,
      "t": 57667.6177416668,
      "d": 457.77033333333384,
      "v": 73
    },
    {
      "midi": 63,
      "hit": false,
      "t": 57667.6177416668,
      "d": 457.77033333333384,
      "v": 73
    },
    {
      "midi": 44,
      "hit": false,
      "t": 57679.062000000136,
      "d": 457.77033333333384,
      "v": 73
    },
    {
      "midi": 60,
      "hit": false,
      "t": 58125.38807500013,
      "d": 446.3260750000045,
      "v": 73
    },
    {
      "midi": 44,
      "hit": false,
      "t": 58136.83233333347,
      "d": 434.8818166666679,
      "v": 73
    },
    {
      "midi": 56,
      "hit": false,
      "t": 58136.83233333347,
      "d": 434.8818166666679,
      "v": 73
    },
    {
      "midi": 63,
      "hit": false,
      "t": 58136.83233333347,
      "d": 434.8818166666679,
      "v": 73
    },
    {
      "midi": 44,
      "hit": false,
      "t": 58583.158408333475,
      "d": 446.3260749999972,
      "v": 73
    },
    {
      "midi": 56,
      "hit": false,
      "t": 58583.158408333475,
      "d": 446.3260749999972,
      "v": 73
    },
    {
      "midi": 60,
      "hit": false,
      "t": 58583.158408333475,
      "d": 446.3260749999972,
      "v": 73
    },
    {
      "midi": 63,
      "hit": false,
      "t": 58583.158408333475,
      "d": 446.3260749999972,
      "v": 73
    },
    {
      "midi": 56,
      "hit": false,
      "t": 59040.92874166681,
      "d": 446.3260749999972,
      "v": 73
    },
    {
      "midi": 60,
      "hit": false,
      "t": 59040.92874166681,
      "d": 446.3260749999972,
      "v": 73
    },
    {
      "midi": 63,
      "hit": false,
      "t": 59040.92874166681,
      "d": 446.3260749999972,
      "v": 73
    },
    {
      "midi": 44,
      "hit": false,
      "t": 59040.92874166681,
      "d": 457.77033333333384,
      "v": 73
    },
    {
      "midi": 56,
      "hit": false,
      "t": 59498.69907500014,
      "d": 446.3260750000045,
      "v": 73
    },
    {
      "midi": 60,
      "hit": false,
      "t": 59498.69907500014,
      "d": 446.3260750000045,
      "v": 73
    },
    {
      "midi": 63,
      "hit": false,
      "t": 59498.69907500014,
      "d": 446.3260750000045,
      "v": 73
    },
    {
      "midi": 44,
      "hit": false,
      "t": 59510.14333333348,
      "d": 434.8818166666679,
      "v": 73
    },
    {
      "midi": 56,
      "hit": false,
      "t": 59956.46940833348,
      "d": 446.3260749999972,
      "v": 73
    },
    {
      "midi": 60,
      "hit": false,
      "t": 59956.46940833348,
      "d": 446.3260749999972,
      "v": 73
    },
    {
      "midi": 63,
      "hit": false,
      "t": 59956.46940833348,
      "d": 446.3260749999972,
      "v": 73
    },
    {
      "midi": 44,
      "hit": false,
      "t": 59979.35792500015,
      "d": 423.43755833333125,
      "v": 73
    },
    {
      "midi": 56,
      "hit": false,
      "t": 60414.23974166682,
      "d": 446.3260749999972,
      "v": 73
    },
    {
      "midi": 60,
      "hit": false,
      "t": 60414.23974166682,
      "d": 446.3260749999972,
      "v": 73
    },
    {
      "midi": 63,
      "hit": false,
      "t": 60414.23974166682,
      "d": 457.77033333333384,
      "v": 73
    },
    {
      "midi": 44,
      "hit": false,
      "t": 60437.12825833348,
      "d": 434.8818166666679,
      "v": 73
    },
    {
      "midi": 56,
      "hit": false,
      "t": 60872.01007500015,
      "d": 446.3260750000045,
      "v": 73
    },
    {
      "midi": 60,
      "hit": false,
      "t": 60872.01007500015,
      "d": 446.3260750000045,
      "v": 73
    },
    {
      "midi": 63,
      "hit": false,
      "t": 60883.45433333349,
      "d": 434.8818166666679,
      "v": 73
    },
    {
      "midi": 44,
      "hit": false,
      "t": 60894.898591666824,
      "d": 434.8818166666679,
      "v": 73
    },
    {
      "midi": 56,
      "hit": false,
      "t": 61329.78040833349,
      "d": 446.3260749999972,
      "v": 73
    },
    {
      "midi": 60,
      "hit": false,
      "t": 61329.78040833349,
      "d": 446.3260749999972,
      "v": 73
    },
    {
      "midi": 63,
      "hit": false,
      "t": 61329.78040833349,
      "d": 446.3260749999972,
      "v": 73
    },
    {
      "midi": 44,
      "hit": false,
      "t": 61352.66892500016,
      "d": 434.8818166666679,
      "v": 73
    },
    {
      "midi": 56,
      "hit": false,
      "t": 61787.550741666826,
      "d": 446.3260749999972,
      "v": 73
    },
    {
      "midi": 60,
      "hit": false,
      "t": 61787.550741666826,
      "d": 446.3260749999972,
      "v": 73
    },
    {
      "midi": 63,
      "hit": false,
      "t": 61787.550741666826,
      "d": 446.3260749999972,
      "v": 73
    },
    {
      "midi": 44,
      "hit": false,
      "t": 61810.43925833349,
      "d": 423.43755833333125,
      "v": 73
    },
    {
      "midi": 56,
      "hit": false,
      "t": 62245.32107500016,
      "d": 446.3260749999972,
      "v": 73
    },
    {
      "midi": 60,
      "hit": false,
      "t": 62245.32107500016,
      "d": 446.3260749999972,
      "v": 73
    },
    {
      "midi": 63,
      "hit": false,
      "t": 62245.32107500016,
      "d": 446.3260749999972,
      "v": 73
    },
    {
      "midi": 44,
      "hit": false,
      "t": 62268.209591666826,
      "d": 423.43755833333125,
      "v": 73
    },
    {
      "midi": 44,
      "hit": false,
      "t": 62703.091408333494,
      "d": 446.3260749999972,
      "v": 73
    },
    {
      "midi": 56,
      "hit": false,
      "t": 62703.091408333494,
      "d": 446.3260749999972,
      "v": 73
    },
    {
      "midi": 60,
      "hit": false,
      "t": 62703.091408333494,
      "d": 446.3260749999972,
      "v": 73
    },
    {
      "midi": 63,
      "hit": false,
      "t": 62703.091408333494,
      "d": 446.3260749999972,
      "v": 73
    },
    {
      "midi": 58,
      "hit": false,
      "t": 63160.86174166683,
      "d": 446.3260749999972,
      "v": 73
    },
    {
      "midi": 62,
      "hit": false,
      "t": 63160.86174166683,
      "d": 446.3260749999972,
      "v": 73
    },
    {
      "midi": 65,
      "hit": false,
      "t": 63160.86174166683,
      "d": 446.3260749999972,
      "v": 73
    },
    {
      "midi": 46,
      "hit": false,
      "t": 63183.75025833349,
      "d": 423.43755833333125,
      "v": 73
    },
    {
      "midi": 46,
      "hit": false,
      "t": 63618.63207500016,
      "d": 446.3260749999972,
      "v": 73
    },
    {
      "midi": 58,
      "hit": false,
      "t": 63618.63207500016,
      "d": 446.3260749999972,
      "v": 73
    },
    {
      "midi": 62,
      "hit": false,
      "t": 63618.63207500016,
      "d": 446.3260749999972,
      "v": 73
    },
    {
      "midi": 65,
      "hit": false,
      "t": 63618.63207500016,
      "d": 446.3260749999972,
      "v": 73
    },
    {
      "midi": 46,
      "hit": false,
      "t": 64076.402408333495,
      "d": 446.3260749999972,
      "v": 73
    },
    {
      "midi": 58,
      "hit": false,
      "t": 64076.402408333495,
      "d": 446.3260749999972,
      "v": 73
    },
    {
      "midi": 62,
      "hit": false,
      "t": 64076.402408333495,
      "d": 446.3260749999972,
      "v": 73
    },
    {
      "midi": 65,
      "hit": false,
      "t": 64076.402408333495,
      "d": 446.3260749999972,
      "v": 73
    },
    {
      "midi": 46,
      "hit": false,
      "t": 64534.17274166683,
      "d": 446.3260749999972,
      "v": 73
    },
    {
      "midi": 58,
      "hit": false,
      "t": 64534.17274166683,
      "d": 446.3260749999972,
      "v": 73
    },
    {
      "midi": 62,
      "hit": false,
      "t": 64534.17274166683,
      "d": 446.3260749999972,
      "v": 73
    },
    {
      "midi": 65,
      "hit": false,
      "t": 64534.17274166683,
      "d": 446.3260749999972,
      "v": 73
    },
    {
      "midi": 46,
      "hit": false,
      "t": 64991.94307500016,
      "d": 446.3260749999972,
      "v": 73
    },
    {
      "midi": 58,
      "hit": false,
      "t": 64991.94307500016,
      "d": 446.3260749999972,
      "v": 73
    },
    {
      "midi": 62,
      "hit": false,
      "t": 64991.94307500016,
      "d": 446.3260749999972,
      "v": 73
    },
    {
      "midi": 65,
      "hit": false,
      "t": 64991.94307500016,
      "d": 446.3260749999972,
      "v": 73
    },
    {
      "midi": 46,
      "hit": false,
      "t": 65449.7134083335,
      "d": 446.3260750000045,
      "v": 73
    },
    {
      "midi": 58,
      "hit": false,
      "t": 65449.7134083335,
      "d": 446.3260750000045,
      "v": 73
    },
    {
      "midi": 62,
      "hit": false,
      "t": 65449.7134083335,
      "d": 457.77033333333384,
      "v": 73
    },
    {
      "midi": 65,
      "hit": false,
      "t": 65449.7134083335,
      "d": 457.77033333333384,
      "v": 73
    },
    {
      "midi": 46,
      "hit": false,
      "t": 65907.48374166683,
      "d": 446.3260750000045,
      "v": 73
    },
    {
      "midi": 58,
      "hit": false,
      "t": 65907.48374166683,
      "d": 457.77033333333384,
      "v": 73
    },
    {
      "midi": 62,
      "hit": false,
      "t": 65907.48374166683,
      "d": 457.77033333333384,
      "v": 73
    },
    {
      "midi": 65,
      "hit": false,
      "t": 65907.48374166683,
      "d": 457.77033333333384,
      "v": 73
    },
    {
      "midi": 58,
      "hit": false,
      "t": 66365.25407500016,
      "d": 446.32607499998994,
      "v": 73
    },
    {
      "midi": 62,
      "hit": false,
      "t": 66365.25407500016,
      "d": 446.32607499998994,
      "v": 73
    },
    {
      "midi": 65,
      "hit": false,
      "t": 66365.25407500016,
      "d": 446.32607499998994,
      "v": 73
    },
    {
      "midi": 46,
      "hit": false,
      "t": 66376.6983333335,
      "d": 434.8818166666606,
      "v": 73
    },
    {
      "midi": 46,
      "hit": false,
      "t": 66823.02440833348,
      "d": 446.3260750000045,
      "v": 73
    },
    {
      "midi": 58,
      "hit": false,
      "t": 66823.02440833348,
      "d": 457.77033333333384,
      "v": 73
    },
    {
      "midi": 62,
      "hit": false,
      "t": 66823.02440833348,
      "d": 457.77033333333384,
      "v": 73
    },
    {
      "midi": 65,
      "hit": false,
      "t": 66823.02440833348,
      "d": 457.77033333333384,
      "v": 73
    },
    {
      "midi": 46,
      "hit": false,
      "t": 67280.79474166682,
      "d": 446.3260750000045,
      "v": 73
    },
    {
      "midi": 65,
      "hit": false,
      "t": 67280.79474166682,
      "d": 446.3260750000045,
      "v": 73
    },
    {
      "midi": 58,
      "hit": false,
      "t": 67280.79474166682,
      "d": 457.77033333333384,
      "v": 73
    },
    {
      "midi": 62,
      "hit": false,
      "t": 67280.79474166682,
      "d": 457.77033333333384,
      "v": 73
    },
    {
      "midi": 46,
      "hit": false,
      "t": 67738.56507500015,
      "d": 446.3260750000045,
      "v": 73
    },
    {
      "midi": 58,
      "hit": false,
      "t": 67738.56507500015,
      "d": 446.3260750000045,
      "v": 73
    },
    {
      "midi": 62,
      "hit": false,
      "t": 67738.56507500015,
      "d": 446.3260750000045,
      "v": 73
    },
    {
      "midi": 65,
      "hit": false,
      "t": 67738.56507500015,
      "d": 446.3260750000045,
      "v": 73
    },
    {
      "midi": 46,
      "hit": false,
      "t": 68196.33540833349,
      "d": 446.3260750000045,
      "v": 73
    },
    {
      "midi": 58,
      "hit": false,
      "t": 68196.33540833349,
      "d": 457.77033333333384,
      "v": 73
    },
    {
      "midi": 62,
      "hit": false,
      "t": 68196.33540833349,
      "d": 457.77033333333384,
      "v": 73
    },
    {
      "midi": 65,
      "hit": false,
      "t": 68196.33540833349,
      "d": 457.77033333333384,
      "v": 73
    },
    {
      "midi": 55,
      "hit": false,
      "t": 68665.55000000015,
      "d": 434.8818166666606,
      "v": 73
    },
    {
      "midi": 58,
      "hit": false,
      "t": 68665.55000000015,
      "d": 434.8818166666606,
      "v": 73
    },
    {
      "midi": 63,
      "hit": false,
      "t": 68665.55000000015,
      "d": 446.32607499998994,
      "v": 73
    },
    {
      "midi": 58,
      "hit": false,
      "t": 69111.87607500014,
      "d": 446.32607499998994,
      "v": 73
    },
    {
      "midi": 63,
      "hit": false,
      "t": 69111.87607500014,
      "d": 446.32607499998994,
      "v": 73
    },
    {
      "midi": 55,
      "hit": false,
      "t": 69123.32033333347,
      "d": 434.8818166666606,
      "v": 73
    },
    {
      "midi": 55,
      "hit": false,
      "t": 69569.64640833346,
      "d": 446.3260750000045,
      "v": 73
    },
    {
      "midi": 58,
      "hit": false,
      "t": 69569.64640833346,
      "d": 457.77033333333384,
      "v": 73
    },
    {
      "midi": 63,
      "hit": false,
      "t": 69569.64640833346,
      "d": 457.77033333333384,
      "v": 73
    },
    {
      "midi": 55,
      "hit": false,
      "t": 70050.30525833346,
      "d": 423.43755833333125,
      "v": 73
    },
    {
      "midi": 58,
      "hit": false,
      "t": 70050.30525833346,
      "d": 434.8818166666606,
      "v": 73
    },
    {
      "midi": 63,
      "hit": false,
      "t": 70050.30525833346,
      "d": 434.8818166666606,
      "v": 73
    },
    {
      "midi": 55,
      "hit": false,
      "t": 70508.0755916668,
      "d": 423.43755833333125,
      "v": 73
    },
    {
      "midi": 58,
      "hit": false,
      "t": 70508.0755916668,
      "d": 423.43755833333125,
      "v": 73
    },
    {
      "midi": 63,
      "hit": false,
      "t": 70508.0755916668,
      "d": 423.43755833333125,
      "v": 73
    },
    {
      "midi": 63,
      "hit": false,
      "t": 70954.4016666668,
      "d": 434.8818166666606,
      "v": 73
    },
    {
      "midi": 55,
      "hit": false,
      "t": 70965.84592500013,
      "d": 423.43755833333125,
      "v": 73
    },
    {
      "midi": 58,
      "hit": false,
      "t": 70965.84592500013,
      "d": 423.43755833333125,
      "v": 73
    },
    {
      "midi": 55,
      "hit": false,
      "t": 71423.61625833347,
      "d": 423.43755833333125,
      "v": 74
    },
    {
      "midi": 59,
      "hit": false,
      "t": 71423.61625833347,
      "d": 434.8818166666606,
      "v": 74
    },
    {
      "midi": 62,
      "hit": false,
      "t": 71423.61625833347,
      "d": 434.8818166666606,
      "v": 74
    },
    {
      "midi": 55,
      "hit": false,
      "t": 71881.3865916668,
      "d": 423.43755833333125,
      "v": 74
    },
    {
      "midi": 59,
      "hit": false,
      "t": 71881.3865916668,
      "d": 423.43755833333125,
      "v": 74
    },
    {
      "midi": 62,
      "hit": false,
      "t": 71881.3865916668,
      "d": 423.43755833333125,
      "v": 74
    },
    {
      "midi": 55,
      "hit": false,
      "t": 72339.15692500013,
      "d": 434.8818166666606,
      "v": 74
    },
    {
      "midi": 59,
      "hit": false,
      "t": 72339.15692500013,
      "d": 434.8818166666606,
      "v": 74
    },
    {
      "midi": 62,
      "hit": false,
      "t": 72339.15692500013,
      "d": 434.8818166666606,
      "v": 74
    },
    {
      "midi": 55,
      "hit": false,
      "t": 72796.92725833347,
      "d": 423.43755833333125,
      "v": 74
    },
    {
      "midi": 59,
      "hit": false,
      "t": 72796.92725833347,
      "d": 434.8818166666606,
      "v": 74
    },
    {
      "midi": 62,
      "hit": false,
      "t": 72796.92725833347,
      "d": 434.8818166666606,
      "v": 74
    },
    {
      "midi": 55,
      "hit": false,
      "t": 73254.6975916668,
      "d": 423.43755833333125,
      "v": 74
    },
    {
      "midi": 59,
      "hit": false,
      "t": 73254.6975916668,
      "d": 423.43755833333125,
      "v": 74
    },
    {
      "midi": 62,
      "hit": false,
      "t": 73254.6975916668,
      "d": 423.43755833333125,
      "v": 74
    },
    {
      "midi": 55,
      "hit": false,
      "t": 73689.57940833346,
      "d": 446.3260750000045,
      "v": 74
    },
    {
      "midi": 59,
      "hit": false,
      "t": 73689.57940833346,
      "d": 446.3260750000045,
      "v": 74
    },
    {
      "midi": 62,
      "hit": false,
      "t": 73689.57940833346,
      "d": 446.3260750000045,
      "v": 74
    },
    {
      "midi": 55,
      "hit": false,
      "t": 74170.23825833347,
      "d": 434.8818166666606,
      "v": 74
    },
    {
      "midi": 60,
      "hit": false,
      "t": 74170.23825833347,
      "d": 434.8818166666606,
      "v": 74
    },
    {
      "midi": 63,
      "hit": false,
      "t": 74170.23825833347,
      "d": 434.8818166666606,
      "v": 74
    },
    {
      "midi": 55,
      "hit": false,
      "t": 74628.0085916668,
      "d": 423.43755833333125,
      "v": 74
    },
    {
      "midi": 60,
      "hit": false,
      "t": 74628.0085916668,
      "d": 423.43755833333125,
      "v": 74
    },
    {
      "midi": 63,
      "hit": false,
      "t": 74628.0085916668,
      "d": 423.43755833333125,
      "v": 74
    },
    {
      "midi": 55,
      "hit": false,
      "t": 75085.77892500014,
      "d": 423.43755833333125,
      "v": 74
    },
    {
      "midi": 60,
      "hit": false,
      "t": 75085.77892500014,
      "d": 423.43755833333125,
      "v": 74
    },
    {
      "midi": 63,
      "hit": false,
      "t": 75085.77892500014,
      "d": 423.43755833333125,
      "v": 74
    },
    {
      "midi": 55,
      "hit": false,
      "t": 75543.54925833347,
      "d": 423.43755833333125,
      "v": 74
    },
    {
      "midi": 60,
      "hit": false,
      "t": 75543.54925833347,
      "d": 423.43755833333125,
      "v": 74
    },
    {
      "midi": 63,
      "hit": false,
      "t": 75543.54925833347,
      "d": 423.43755833333125,
      "v": 74
    },
    {
      "midi": 55,
      "hit": false,
      "t": 76001.3195916668,
      "d": 423.43755833333125,
      "v": 74
    },
    {
      "midi": 60,
      "hit": false,
      "t": 76001.3195916668,
      "d": 423.43755833333125,
      "v": 74
    },
    {
      "midi": 63,
      "hit": false,
      "t": 76001.3195916668,
      "d": 423.43755833333125,
      "v": 74
    },
    {
      "midi": 60,
      "hit": false,
      "t": 76447.64566666681,
      "d": 434.8818166666606,
      "v": 74
    },
    {
      "midi": 63,
      "hit": false,
      "t": 76447.64566666681,
      "d": 434.8818166666606,
      "v": 74
    },
    {
      "midi": 55,
      "hit": false,
      "t": 76459.08992500014,
      "d": 423.43755833333125,
      "v": 74
    },
    {
      "midi": 55,
      "hit": false,
      "t": 76916.86025833347,
      "d": 423.43755833333125,
      "v": 74
    },
    {
      "midi": 60,
      "hit": false,
      "t": 76916.86025833347,
      "d": 434.8818166666606,
      "v": 74
    },
    {
      "midi": 63,
      "hit": false,
      "t": 76916.86025833347,
      "d": 434.8818166666606,
      "v": 74
    },
    {
      "midi": 55,
      "hit": false,
      "t": 77374.6305916668,
      "d": 423.43755833333125,
      "v": 74
    },
    {
      "midi": 60,
      "hit": false,
      "t": 77374.6305916668,
      "d": 423.43755833333125,
      "v": 74
    },
    {
      "midi": 63,
      "hit": false,
      "t": 77374.6305916668,
      "d": 423.43755833333125,
      "v": 74
    },
    {
      "midi": 55,
      "hit": false,
      "t": 77832.40092500014,
      "d": 423.43755833333125,
      "v": 74
    },
    {
      "midi": 60,
      "hit": false,
      "t": 77832.40092500014,
      "d": 423.43755833333125,
      "v": 74
    },
    {
      "midi": 63,
      "hit": false,
      "t": 77832.40092500014,
      "d": 423.43755833333125,
      "v": 74
    },
    {
      "midi": 55,
      "hit": false,
      "t": 78290.17125833347,
      "d": 423.43755833333125,
      "v": 74
    },
    {
      "midi": 60,
      "hit": false,
      "t": 78290.17125833347,
      "d": 423.43755833333125,
      "v": 74
    },
    {
      "midi": 63,
      "hit": false,
      "t": 78290.17125833347,
      "d": 423.43755833333125,
      "v": 74
    },
    {
      "midi": 55,
      "hit": false,
      "t": 78747.94159166681,
      "d": 423.43755833333125,
      "v": 74
    },
    {
      "midi": 60,
      "hit": false,
      "t": 78747.94159166681,
      "d": 423.43755833333125,
      "v": 74
    },
    {
      "midi": 63,
      "hit": false,
      "t": 78747.94159166681,
      "d": 423.43755833333125,
      "v": 74
    },
    {
      "midi": 60,
      "hit": false,
      "t": 79182.82340833347,
      "d": 446.32607499998994,
      "v": 74
    },
    {
      "midi": 55,
      "hit": false,
      "t": 79194.2676666668,
      "d": 434.8818166666606,
      "v": 74
    },
    {
      "midi": 63,
      "hit": false,
      "t": 79194.2676666668,
      "d": 434.8818166666606,
      "v": 74
    },
    {
      "midi": 57,
      "hit": false,
      "t": 79663.48225833346,
      "d": 423.43755833333125,
      "v": 74
    },
    {
      "midi": 60,
      "hit": false,
      "t": 79663.48225833346,
      "d": 434.8818166666606,
      "v": 74
    },
    {
      "midi": 65,
      "hit": false,
      "t": 79663.48225833346,
      "d": 434.8818166666606,
      "v": 74
    },
    {
      "midi": 57,
      "hit": false,
      "t": 80121.2525916668,
      "d": 423.43755833333125,
      "v": 74
    },
    {
      "midi": 65,
      "hit": false,
      "t": 80121.2525916668,
      "d": 423.43755833333125,
      "v": 74
    },
    {
      "midi": 60,
      "hit": false,
      "t": 80121.2525916668,
      "d": 434.8818166666606,
      "v": 74
    },
    {
      "midi": 57,
      "hit": false,
      "t": 80579.02292500013,
      "d": 423.43755833333125,
      "v": 74
    },
    {
      "midi": 65,
      "hit": false,
      "t": 80579.02292500013,
      "d": 423.43755833333125,
      "v": 74
    },
    {
      "midi": 60,
      "hit": false,
      "t": 80579.02292500013,
      "d": 434.8818166666606,
      "v": 74
    },
    {
      "midi": 57,
      "hit": false,
      "t": 81036.79325833346,
      "d": 423.43755833333125,
      "v": 74
    },
    {
      "midi": 65,
      "hit": false,
      "t": 81036.79325833346,
      "d": 423.43755833333125,
      "v": 74
    },
    {
      "midi": 60,
      "hit": false,
      "t": 81036.79325833346,
      "d": 434.8818166666606,
      "v": 74
    },
    {
      "midi": 57,
      "hit": false,
      "t": 81494.5635916668,
      "d": 423.43755833333125,
      "v": 74
    },
    {
      "midi": 60,
      "hit": false,
      "t": 81494.5635916668,
      "d": 423.43755833333125,
      "v": 74
    },
    {
      "midi": 65,
      "hit": false,
      "t": 81494.5635916668,
      "d": 423.43755833333125,
      "v": 74
    },
    {
      "midi": 60,
      "hit": false,
      "t": 81929.44540833346,
      "d": 446.32607499998994,
      "v": 74
    },
    {
      "midi": 57,
      "hit": false,
      "t": 81940.88966666679,
      "d": 434.8818166666606,
      "v": 74
    },
    {
      "midi": 65,
      "hit": false,
      "t": 81940.88966666679,
      "d": 434.8818166666606,
      "v": 74
    },
    {
      "midi": 60,
      "hit": false,
      "t": 82387.21574166678,
      "d": 457.7703333333193,
      "v": 74
    },
    {
      "midi": 57,
      "hit": false,
      "t": 82398.6600000001,
      "d": 434.8818166666606,
      "v": 74
    },
    {
      "midi": 65,
      "hit": false,
      "t": 82398.6600000001,
      "d": 434.8818166666606,
      "v": 74
    },
    {
      "midi": 60,
      "hit": false,
      "t": 82856.43033333342,
      "d": 446.32607499998994,
      "v": 74
    },
    {
      "midi": 57,
      "hit": false,
      "t": 82867.87459166675,
      "d": 423.43755833333125,
      "v": 74
    },
    {
      "midi": 65,
      "hit": false,
      "t": 82867.87459166675,
      "d": 423.43755833333125,
      "v": 74
    },
    {
      "midi": 65,
      "hit": false,
      "t": 83302.75640833341,
      "d": 446.32607499998994,
      "v": 74
    },
    {
      "midi": 60,
      "hit": false,
      "t": 83302.75640833341,
      "d": 457.7703333333193,
      "v": 74
    },
    {
      "midi": 57,
      "hit": false,
      "t": 83314.20066666674,
      "d": 434.8818166666606,
      "v": 74
    },
    {
      "midi": 60,
      "hit": false,
      "t": 83771.97100000006,
      "d": 446.32607499998994,
      "v": 74
    },
    {
      "midi": 57,
      "hit": false,
      "t": 83783.41525833339,
      "d": 423.43755833333125,
      "v": 74
    },
    {
      "midi": 65,
      "hit": false,
      "t": 83783.41525833339,
      "d": 423.43755833333125,
      "v": 74
    },
    {
      "midi": 57,
      "hit": false,
      "t": 84241.18559166673,
      "d": 423.43755833333125,
      "v": 74
    },
    {
      "midi": 65,
      "hit": false,
      "t": 84241.18559166673,
      "d": 423.43755833333125,
      "v": 74
    },
    {
      "midi": 60,
      "hit": false,
      "t": 84241.18559166673,
      "d": 434.8818166666606,
      "v": 74
    },
    {
      "midi": 60,
      "hit": false,
      "t": 84676.06740833339,
      "d": 446.32607499998994,
      "v": 74
    },
    {
      "midi": 65,
      "hit": false,
      "t": 84676.06740833339,
      "d": 446.32607499998994,
      "v": 74
    },
    {
      "midi": 57,
      "hit": false,
      "t": 84687.51166666672,
      "d": 434.8818166666606,
      "v": 74
    },
    {
      "midi": 57,
      "hit": false,
      "t": 85156.72625833338,
      "d": 423.43755833333125,
      "v": 74
    },
    {
      "midi": 60,
      "hit": false,
      "t": 85156.72625833338,
      "d": 434.8818166666606,
      "v": 74
    },
    {
      "midi": 65,
      "hit": false,
      "t": 85156.72625833338,
      "d": 434.8818166666606,
      "v": 74
    },
    {
      "midi": 57,
      "hit": false,
      "t": 85614.49659166671,
      "d": 423.43755833333125,
      "v": 74
    },
    {
      "midi": 60,
      "hit": false,
      "t": 85614.49659166671,
      "d": 423.43755833333125,
      "v": 74
    },
    {
      "midi": 65,
      "hit": false,
      "t": 85614.49659166671,
      "d": 423.43755833333125,
      "v": 74
    },
    {
      "midi": 57,
      "hit": false,
      "t": 86049.37840833337,
      "d": 446.32607499998994,
      "v": 74
    },
    {
      "midi": 60,
      "hit": false,
      "t": 86049.37840833337,
      "d": 457.7703333333193,
      "v": 74
    },
    {
      "midi": 65,
      "hit": false,
      "t": 86060.8226666667,
      "d": 434.8818166666606,
      "v": 74
    },
    {
      "midi": 57,
      "hit": false,
      "t": 86530.03725833337,
      "d": 434.8818166666606,
      "v": 74
    },
    {
      "midi": 60,
      "hit": false,
      "t": 86530.03725833337,
      "d": 434.8818166666606,
      "v": 74
    },
    {
      "midi": 65,
      "hit": false,
      "t": 86530.03725833337,
      "d": 434.8818166666606,
      "v": 74
    },
    {
      "midi": 60,
      "hit": false,
      "t": 86976.36333333336,
      "d": 434.8818166666606,
      "v": 74
    },
    {
      "midi": 57,
      "hit": false,
      "t": 86987.80759166669,
      "d": 423.43755833333125,
      "v": 74
    },
    {
      "midi": 65,
      "hit": false,
      "t": 86987.80759166669,
      "d": 423.43755833333125,
      "v": 74
    },
    {
      "midi": 60,
      "hit": false,
      "t": 87434.13366666669,
      "d": 446.32607499998994,
      "v": 74
    },
    {
      "midi": 57,
      "hit": false,
      "t": 87445.57792500002,
      "d": 434.8818166666606,
      "v": 74
    },
    {
      "midi": 65,
      "hit": false,
      "t": 87445.57792500002,
      "d": 434.8818166666606,
      "v": 74
    },
    {
      "midi": 57,
      "hit": false,
      "t": 87903.34825833335,
      "d": 434.8818166666606,
      "v": 74
    },
    {
      "midi": 60,
      "hit": false,
      "t": 87903.34825833335,
      "d": 434.8818166666606,
      "v": 74
    },
    {
      "midi": 65,
      "hit": false,
      "t": 87903.34825833335,
      "d": 434.8818166666606,
      "v": 74
    },
    {
      "midi": 57,
      "hit": false,
      "t": 88361.11859166669,
      "d": 423.43755833333125,
      "v": 74
    },
    {
      "midi": 60,
      "hit": false,
      "t": 88361.11859166669,
      "d": 423.43755833333125,
      "v": 74
    },
    {
      "midi": 65,
      "hit": false,
      "t": 88361.11859166669,
      "d": 423.43755833333125,
      "v": 74
    },
    {
      "midi": 65,
      "hit": false,
      "t": 88807.44466666669,
      "d": 434.8818166666606,
      "v": 74
    },
    {
      "midi": 60,
      "hit": false,
      "t": 88807.44466666669,
      "d": 446.32607499998994,
      "v": 74
    },
    {
      "midi": 57,
      "hit": false,
      "t": 88818.88892500002,
      "d": 423.43755833333125,
      "v": 74
    },
    {
      "midi": 57,
      "hit": false,
      "t": 89276.65925833335,
      "d": 423.43755833333125,
      "v": 75
    },
    {
      "midi": 65,
      "hit": false,
      "t": 89276.65925833335,
      "d": 423.43755833333125,
      "v": 75
    },
    {
      "midi": 60,
      "hit": false,
      "t": 89276.65925833335,
      "d": 434.8818166666606,
      "v": 75
    },
    {
      "midi": 57,
      "hit": false,
      "t": 89734.42959166669,
      "d": 423.43755833333125,
      "v": 75
    },
    {
      "midi": 60,
      "hit": false,
      "t": 89734.42959166669,
      "d": 423.43755833333125,
      "v": 75
    },
    {
      "midi": 65,
      "hit": false,
      "t": 89734.42959166669,
      "d": 423.43755833333125,
      "v": 75
    },
    {
      "midi": 60,
      "hit": false,
      "t": 90169.31140833335,
      "d": 434.8818166666606,
      "v": 75
    },
    {
      "midi": 57,
      "hit": false,
      "t": 90169.31140833335,
      "d": 446.32607499998994,
      "v": 75
    },
    {
      "midi": 65,
      "hit": false,
      "t": 90169.31140833335,
      "d": 446.32607499998994,
      "v": 75
    },
    {
      "midi": 58,
      "hit": false,
      "t": 90638.52600000001,
      "d": 446.32607499998994,
      "v": 75
    },
    {
      "midi": 62,
      "hit": false,
      "t": 90638.52600000001,
      "d": 446.32607499998994,
      "v": 75
    },
    {
      "midi": 53,
      "hit": false,
      "t": 90649.97025833334,
      "d": 434.8818166666606,
      "v": 75
    },
    {
      "midi": 53,
      "hit": false,
      "t": 93373.70374166667,
      "d": 514.9916249999951,
      "v": 75
    },
    {
      "midi": 58,
      "hit": false,
      "t": 93373.70374166667,
      "d": 514.9916249999951,
      "v": 75
    },
    {
      "midi": 62,
      "hit": false,
      "t": 93373.70374166667,
      "d": 514.9916249999951,
      "v": 75
    },
    {
      "midi": 53,
      "hit": false,
      "t": 94300.68866666667,
      "d": 663.7669833333348,
      "v": 75
    },
    {
      "midi": 58,
      "hit": false,
      "t": 94300.68866666667,
      "d": 675.2112416666641,
      "v": 75
    },
    {
      "midi": 62,
      "hit": false,
      "t": 94300.68866666667,
      "d": 675.2112416666641,
      "v": 75
    },
    {
      "midi": 53,
      "hit": false,
      "t": 95227.67359166667,
      "d": 652.3227250000054,
      "v": 75
    },
    {
      "midi": 58,
      "hit": false,
      "t": 95227.67359166667,
      "d": 675.2112416666787,
      "v": 75
    },
    {
      "midi": 62,
      "hit": false,
      "t": 95227.67359166667,
      "d": 675.2112416666787,
      "v": 75
    },
    {
      "midi": 53,
      "hit": false,
      "t": 96143.21425833335,
      "d": 652.3227250000054,
      "v": 75
    },
    {
      "midi": 58,
      "hit": false,
      "t": 96143.21425833335,
      "d": 652.3227250000054,
      "v": 75
    },
    {
      "midi": 62,
      "hit": false,
      "t": 96143.21425833335,
      "d": 652.3227250000054,
      "v": 75
    },
    {
      "midi": 55,
      "hit": false,
      "t": 101625.01400000002,
      "d": 434.8818166666606,
      "v": 70
    },
    {
      "midi": 58,
      "hit": false,
      "t": 101625.01400000002,
      "d": 446.32607499998994,
      "v": 70
    },
    {
      "midi": 63,
      "hit": false,
      "t": 101625.01400000002,
      "d": 446.32607499998994,
      "v": 70
    },
    {
      "midi": 39,
      "hit": false,
      "t": 101636.45825833335,
      "d": 434.8818166666606,
      "v": 70
    },
    {
      "midi": 39,
      "hit": false,
      "t": 102094.22859166669,
      "d": 423.43755833333125,
      "v": 70
    },
    {
      "midi": 55,
      "hit": false,
      "t": 102094.22859166669,
      "d": 423.43755833333125,
      "v": 70
    },
    {
      "midi": 58,
      "hit": false,
      "t": 102094.22859166669,
      "d": 434.8818166666606,
      "v": 70
    },
    {
      "midi": 63,
      "hit": false,
      "t": 102094.22859166669,
      "d": 434.8818166666606,
      "v": 70
    },
    {
      "midi": 39,
      "hit": false,
      "t": 102529.11040833335,
      "d": 446.32607499998994,
      "v": 70
    },
    {
      "midi": 58,
      "hit": false,
      "t": 102529.11040833335,
      "d": 457.7703333333193,
      "v": 70
    },
    {
      "midi": 63,
      "hit": false,
      "t": 102529.11040833335,
      "d": 457.7703333333193,
      "v": 70
    },
    {
      "midi": 55,
      "hit": false,
      "t": 102540.55466666668,
      "d": 446.32607499998994,
      "v": 70
    },
    {
      "midi": 55,
      "hit": false,
      "t": 102986.88074166667,
      "d": 446.3260750000045,
      "v": 70
    },
    {
      "midi": 58,
      "hit": false,
      "t": 102986.88074166667,
      "d": 446.3260750000045,
      "v": 70
    },
    {
      "midi": 63,
      "hit": false,
      "t": 102986.88074166667,
      "d": 457.77033333333384,
      "v": 70
    },
    {
      "midi": 39,
      "hit": false,
      "t": 103009.76925833334,
      "d": 434.8818166666606,
      "v": 70
    },
    {
      "midi": 55,
      "hit": false,
      "t": 103444.651075,
      "d": 446.3260750000045,
      "v": 70
    },
    {
      "midi": 58,
      "hit": false,
      "t": 103444.651075,
      "d": 457.77033333333384,
      "v": 70
    },
    {
      "midi": 63,
      "hit": false,
      "t": 103444.651075,
      "d": 457.77033333333384,
      "v": 70
    },
    {
      "midi": 39,
      "hit": false,
      "t": 103467.53959166667,
      "d": 423.43755833333125,
      "v": 70
    },
    {
      "midi": 39,
      "hit": false,
      "t": 103902.42140833334,
      "d": 446.3260750000045,
      "v": 70
    },
    {
      "midi": 55,
      "hit": false,
      "t": 103902.42140833334,
      "d": 457.77033333333384,
      "v": 70
    },
    {
      "midi": 58,
      "hit": false,
      "t": 103902.42140833334,
      "d": 457.77033333333384,
      "v": 70
    },
    {
      "midi": 63,
      "hit": false,
      "t": 103902.42140833334,
      "d": 457.77033333333384,
      "v": 70
    },
    {
      "midi": 58,
      "hit": false,
      "t": 104371.636,
      "d": 446.32607499998994,
      "v": 70
    },
    {
      "midi": 39,
      "hit": false,
      "t": 104383.08025833333,
      "d": 423.43755833333125,
      "v": 70
    },
    {
      "midi": 55,
      "hit": false,
      "t": 104383.08025833333,
      "d": 434.8818166666606,
      "v": 70
    },
    {
      "midi": 63,
      "hit": false,
      "t": 104383.08025833333,
      "d": 434.8818166666606,
      "v": 70
    },
    {
      "midi": 39,
      "hit": false,
      "t": 104840.85059166666,
      "d": 423.43755833333125,
      "v": 70
    },
    {
      "midi": 55,
      "hit": false,
      "t": 104840.85059166666,
      "d": 434.8818166666606,
      "v": 70
    },
    {
      "midi": 58,
      "hit": false,
      "t": 104840.85059166666,
      "d": 434.8818166666606,
      "v": 70
    },
    {
      "midi": 63,
      "hit": false,
      "t": 104840.85059166666,
      "d": 434.8818166666606,
      "v": 70
    },
    {
      "midi": 58,
      "hit": false,
      "t": 105275.73240833332,
      "d": 457.77033333333384,
      "v": 70
    },
    {
      "midi": 55,
      "hit": false,
      "t": 105298.620925,
      "d": 423.43755833333125,
      "v": 70
    },
    {
      "midi": 39,
      "hit": false,
      "t": 105298.620925,
      "d": 434.8818166666606,
      "v": 70
    },
    {
      "midi": 63,
      "hit": false,
      "t": 105298.620925,
      "d": 434.8818166666606,
      "v": 70
    },
    {
      "midi": 39,
      "hit": false,
      "t": 105756.39125833333,
      "d": 434.8818166666606,
      "v": 71
    },
    {
      "midi": 55,
      "hit": false,
      "t": 105756.39125833333,
      "d": 434.8818166666606,
      "v": 71
    },
    {
      "midi": 58,
      "hit": false,
      "t": 105756.39125833333,
      "d": 434.8818166666606,
      "v": 71
    },
    {
      "midi": 63,
      "hit": false,
      "t": 105756.39125833333,
      "d": 434.8818166666606,
      "v": 71
    },
    {
      "midi": 39,
      "hit": false,
      "t": 106214.16159166666,
      "d": 423.43755833333125,
      "v": 71
    },
    {
      "midi": 55,
      "hit": false,
      "t": 106214.16159166666,
      "d": 423.43755833333125,
      "v": 71
    },
    {
      "midi": 58,
      "hit": false,
      "t": 106214.16159166666,
      "d": 434.8818166666606,
      "v": 71
    },
    {
      "midi": 63,
      "hit": false,
      "t": 106214.16159166666,
      "d": 434.8818166666606,
      "v": 71
    },
    {
      "midi": 58,
      "hit": false,
      "t": 106660.48766666665,
      "d": 446.32607499998994,
      "v": 71
    },
    {
      "midi": 39,
      "hit": false,
      "t": 106671.93192499998,
      "d": 423.43755833333125,
      "v": 71
    },
    {
      "midi": 55,
      "hit": false,
      "t": 106671.93192499998,
      "d": 423.43755833333125,
      "v": 71
    },
    {
      "midi": 63,
      "hit": false,
      "t": 106671.93192499998,
      "d": 434.8818166666606,
      "v": 71
    },
    {
      "midi": 39,
      "hit": false,
      "t": 107129.70225833332,
      "d": 423.43755833333125,
      "v": 71
    },
    {
      "midi": 55,
      "hit": false,
      "t": 107129.70225833332,
      "d": 423.43755833333125,
      "v": 71
    },
    {
      "midi": 58,
      "hit": false,
      "t": 107129.70225833332,
      "d": 434.8818166666606,
      "v": 71
    },
    {
      "midi": 63,
      "hit": false,
      "t": 107129.70225833332,
      "d": 434.8818166666606,
      "v": 71
    },
    {
      "midi": 39,
      "hit": false,
      "t": 107587.47259166665,
      "d": 423.43755833333125,
      "v": 71
    },
    {
      "midi": 55,
      "hit": false,
      "t": 107587.47259166665,
      "d": 423.43755833333125,
      "v": 71
    },
    {
      "midi": 58,
      "hit": false,
      "t": 107587.47259166665,
      "d": 434.8818166666606,
      "v": 71
    },
    {
      "midi": 63,
      "hit": false,
      "t": 107587.47259166665,
      "d": 434.8818166666606,
      "v": 71
    },
    {
      "midi": 39,
      "hit": false,
      "t": 108022.35440833331,
      "d": 446.32607499998994,
      "v": 71
    },
    {
      "midi": 58,
      "hit": false,
      "t": 108033.79866666664,
      "d": 446.32607499998994,
      "v": 71
    },
    {
      "midi": 55,
      "hit": false,
      "t": 108045.24292499997,
      "d": 423.43755833333125,
      "v": 71
    },
    {
      "midi": 63,
      "hit": false,
      "t": 108045.24292499997,
      "d": 434.8818166666606,
      "v": 71
    },
    {
      "midi": 58,
      "hit": false,
      "t": 108491.56899999996,
      "d": 446.32607499998994,
      "v": 71
    },
    {
      "midi": 55,
      "hit": false,
      "t": 108503.01325833329,
      "d": 423.43755833333125,
      "v": 71
    },
    {
      "midi": 39,
      "hit": false,
      "t": 108503.01325833329,
      "d": 434.8818166666606,
      "v": 71
    },
    {
      "midi": 63,
      "hit": false,
      "t": 108503.01325833329,
      "d": 434.8818166666606,
      "v": 71
    },
    {
      "midi": 39,
      "hit": false,
      "t": 108960.78359166662,
      "d": 423.43755833333125,
      "v": 71
    },
    {
      "midi": 55,
      "hit": false,
      "t": 108960.78359166662,
      "d": 423.43755833333125,
      "v": 71
    },
    {
      "midi": 58,
      "hit": false,
      "t": 108960.78359166662,
      "d": 434.8818166666606,
      "v": 71
    },
    {
      "midi": 63,
      "hit": false,
      "t": 108960.78359166662,
      "d": 434.8818166666606,
      "v": 71
    },
    {
      "midi": 39,
      "hit": false,
      "t": 109418.55392499996,
      "d": 423.43755833333125,
      "v": 71
    },
    {
      "midi": 55,
      "hit": false,
      "t": 109418.55392499996,
      "d": 423.43755833333125,
      "v": 71
    },
    {
      "midi": 58,
      "hit": false,
      "t": 109418.55392499996,
      "d": 434.8818166666606,
      "v": 71
    },
    {
      "midi": 63,
      "hit": false,
      "t": 109418.55392499996,
      "d": 434.8818166666606,
      "v": 71
    },
    {
      "midi": 39,
      "hit": false,
      "t": 109876.32425833329,
      "d": 423.43755833333125,
      "v": 71
    },
    {
      "midi": 55,
      "hit": false,
      "t": 109876.32425833329,
      "d": 423.43755833333125,
      "v": 71
    },
    {
      "midi": 58,
      "hit": false,
      "t": 109876.32425833329,
      "d": 434.8818166666606,
      "v": 71
    },
    {
      "midi": 63,
      "hit": false,
      "t": 109876.32425833329,
      "d": 434.8818166666606,
      "v": 71
    },
    {
      "midi": 58,
      "hit": false,
      "t": 110322.65033333328,
      "d": 446.32607499998994,
      "v": 71
    },
    {
      "midi": 39,
      "hit": false,
      "t": 110334.09459166661,
      "d": 423.43755833333125,
      "v": 71
    },
    {
      "midi": 55,
      "hit": false,
      "t": 110334.09459166661,
      "d": 423.43755833333125,
      "v": 71
    },
    {
      "midi": 63,
      "hit": false,
      "t": 110334.09459166661,
      "d": 423.43755833333125,
      "v": 71
    },
    {
      "midi": 58,
      "hit": false,
      "t": 110768.97640833327,
      "d": 446.32607499998994,
      "v": 71
    },
    {
      "midi": 39,
      "hit": false,
      "t": 110780.4206666666,
      "d": 434.8818166666606,
      "v": 71
    },
    {
      "midi": 55,
      "hit": false,
      "t": 110780.4206666666,
      "d": 434.8818166666606,
      "v": 71
    },
    {
      "midi": 63,
      "hit": false,
      "t": 110791.86492499993,
      "d": 434.8818166666606,
      "v": 71
    },
    {
      "midi": 58,
      "hit": false,
      "t": 111226.74674166659,
      "d": 446.32607499998994,
      "v": 71
    },
    {
      "midi": 39,
      "hit": false,
      "t": 111238.19099999992,
      "d": 434.8818166666606,
      "v": 71
    },
    {
      "midi": 55,
      "hit": false,
      "t": 111238.19099999992,
      "d": 434.8818166666606,
      "v": 71
    },
    {
      "midi": 63,
      "hit": false,
      "t": 111238.19099999992,
      "d": 434.8818166666606,
      "v": 71
    },
    {
      "midi": 55,
      "hit": false,
      "t": 111695.96133333325,
      "d": 434.8818166666606,
      "v": 71
    },
    {
      "midi": 58,
      "hit": false,
      "t": 111695.96133333325,
      "d": 434.8818166666606,
      "v": 71
    },
    {
      "midi": 39,
      "hit": false,
      "t": 111707.40559166658,
      "d": 423.43755833333125,
      "v": 71
    },
    {
      "midi": 63,
      "hit": false,
      "t": 111707.40559166658,
      "d": 423.43755833333125,
      "v": 71
    },
    {
      "midi": 39,
      "hit": false,
      "t": 112142.28740833324,
      "d": 446.3260750000045,
      "v": 71
    },
    {
      "midi": 55,
      "hit": false,
      "t": 112142.28740833324,
      "d": 446.3260750000045,
      "v": 71
    },
    {
      "midi": 58,
      "hit": false,
      "t": 112142.28740833324,
      "d": 446.3260750000045,
      "v": 71
    },
    {
      "midi": 63,
      "hit": false,
      "t": 112142.28740833324,
      "d": 446.3260750000045,
      "v": 71
    },
    {
      "midi": 43,
      "hit": false,
      "t": 112622.94625833325,
      "d": 423.43755833333125,
      "v": 71
    },
    {
      "midi": 55,
      "hit": false,
      "t": 112622.94625833325,
      "d": 423.43755833333125,
      "v": 71
    },
    {
      "midi": 59,
      "hit": false,
      "t": 112622.94625833325,
      "d": 423.43755833333125,
      "v": 71
    },
    {
      "midi": 62,
      "hit": false,
      "t": 112622.94625833325,
      "d": 434.8818166666606,
      "v": 71
    },
    {
      "midi": 43,
      "hit": false,
      "t": 113057.82807499991,
      "d": 446.3260750000045,
      "v": 71
    },
    {
      "midi": 55,
      "hit": false,
      "t": 113080.71659166658,
      "d": 423.43755833333125,
      "v": 71
    },
    {
      "midi": 59,
      "hit": false,
      "t": 113080.71659166658,
      "d": 423.43755833333125,
      "v": 71
    },
    {
      "midi": 62,
      "hit": false,
      "t": 113080.71659166658,
      "d": 423.43755833333125,
      "v": 71
    },
    {
      "midi": 43,
      "hit": false,
      "t": 113515.59840833324,
      "d": 446.3260750000045,
      "v": 71
    },
    {
      "midi": 55,
      "hit": false,
      "t": 113538.48692499992,
      "d": 423.43755833333125,
      "v": 71
    },
    {
      "midi": 59,
      "hit": false,
      "t": 113538.48692499992,
      "d": 423.43755833333125,
      "v": 71
    },
    {
      "midi": 62,
      "hit": false,
      "t": 113538.48692499992,
      "d": 423.43755833333125,
      "v": 71
    },
    {
      "midi": 43,
      "hit": false,
      "t": 113973.36874166658,
      "d": 446.3260750000045,
      "v": 71
    },
    {
      "midi": 55,
      "hit": false,
      "t": 113996.25725833325,
      "d": 423.43755833333125,
      "v": 71
    },
    {
      "midi": 59,
      "hit": false,
      "t": 113996.25725833325,
      "d": 423.43755833333125,
      "v": 71
    },
    {
      "midi": 62,
      "hit": false,
      "t": 113996.25725833325,
      "d": 423.43755833333125,
      "v": 71
    },
    {
      "midi": 43,
      "hit": false,
      "t": 114442.58333333326,
      "d": 434.8818166666606,
      "v": 71
    },
    {
      "midi": 55,
      "hit": false,
      "t": 114454.02759166659,
      "d": 423.43755833333125,
      "v": 71
    },
    {
      "midi": 59,
      "hit": false,
      "t": 114454.02759166659,
      "d": 423.43755833333125,
      "v": 71
    },
    {
      "midi": 62,
      "hit": false,
      "t": 114454.02759166659,
      "d": 423.43755833333125,
      "v": 71
    },
    {
      "midi": 43,
      "hit": false,
      "t": 114888.90940833325,
      "d": 446.32607499998994,
      "v": 71
    },
    {
      "midi": 59,
      "hit": false,
      "t": 114900.35366666658,
      "d": 434.8818166666606,
      "v": 71
    },
    {
      "midi": 55,
      "hit": false,
      "t": 114911.7979249999,
      "d": 423.43755833333125,
      "v": 71
    },
    {
      "midi": 62,
      "hit": false,
      "t": 114911.7979249999,
      "d": 423.43755833333125,
      "v": 71
    },
    {
      "midi": 43,
      "hit": false,
      "t": 115346.67974166656,
      "d": 446.3260750000045,
      "v": 71
    },
    {
      "midi": 55,
      "hit": false,
      "t": 115369.56825833324,
      "d": 423.43755833333125,
      "v": 71
    },
    {
      "midi": 59,
      "hit": false,
      "t": 115369.56825833324,
      "d": 423.43755833333125,
      "v": 71
    },
    {
      "midi": 62,
      "hit": false,
      "t": 115369.56825833324,
      "d": 423.43755833333125,
      "v": 71
    },
    {
      "midi": 43,
      "hit": false,
      "t": 115815.89433333324,
      "d": 434.8818166666606,
      "v": 71
    },
    {
      "midi": 55,
      "hit": false,
      "t": 115827.33859166657,
      "d": 423.43755833333125,
      "v": 71
    },
    {
      "midi": 59,
      "hit": false,
      "t": 115827.33859166657,
      "d": 423.43755833333125,
      "v": 71
    },
    {
      "midi": 62,
      "hit": false,
      "t": 115827.33859166657,
      "d": 423.43755833333125,
      "v": 71
    },
    {
      "midi": 43,
      "hit": false,
      "t": 116262.22040833323,
      "d": 446.32607499998994,
      "v": 71
    },
    {
      "midi": 59,
      "hit": false,
      "t": 116262.22040833323,
      "d": 446.32607499998994,
      "v": 71
    },
    {
      "midi": 55,
      "hit": false,
      "t": 116273.66466666656,
      "d": 434.8818166666606,
      "v": 71
    },
    {
      "midi": 62,
      "hit": false,
      "t": 116273.66466666656,
      "d": 434.8818166666606,
      "v": 71
    },
    {
      "midi": 59,
      "hit": false,
      "t": 116719.99074166655,
      "d": 446.32607499998994,
      "v": 71
    },
    {
      "midi": 62,
      "hit": false,
      "t": 116719.99074166655,
      "d": 446.32607499998994,
      "v": 71
    },
    {
      "midi": 43,
      "hit": false,
      "t": 116731.43499999988,
      "d": 434.8818166666606,
      "v": 71
    },
    {
      "midi": 55,
      "hit": false,
      "t": 116731.43499999988,
      "d": 434.8818166666606,
      "v": 71
    },
    {
      "midi": 59,
      "hit": false,
      "t": 117177.76107499987,
      "d": 446.32607499998994,
      "v": 71
    },
    {
      "midi": 62,
      "hit": false,
      "t": 117177.76107499987,
      "d": 446.32607499998994,
      "v": 71
    },
    {
      "midi": 43,
      "hit": false,
      "t": 117189.2053333332,
      "d": 434.8818166666606,
      "v": 71
    },
    {
      "midi": 55,
      "hit": false,
      "t": 117189.2053333332,
      "d": 434.8818166666606,
      "v": 71
    },
    {
      "midi": 43,
      "hit": false,
      "t": 117635.53140833319,
      "d": 446.3260750000045,
      "v": 71
    },
    {
      "midi": 55,
      "hit": false,
      "t": 117635.53140833319,
      "d": 446.3260750000045,
      "v": 71
    },
    {
      "midi": 59,
      "hit": false,
      "t": 117635.53140833319,
      "d": 446.3260750000045,
      "v": 71
    },
    {
      "midi": 62,
      "hit": false,
      "t": 117635.53140833319,
      "d": 446.3260750000045,
      "v": 71
    },
    {
      "midi": 43,
      "hit": false,
      "t": 118093.30174166652,
      "d": 446.3260750000045,
      "v": 71
    },
    {
      "midi": 55,
      "hit": false,
      "t": 118093.30174166652,
      "d": 446.3260750000045,
      "v": 71
    },
    {
      "midi": 59,
      "hit": false,
      "t": 118093.30174166652,
      "d": 446.3260750000045,
      "v": 71
    },
    {
      "midi": 62,
      "hit": false,
      "t": 118093.30174166652,
      "d": 446.3260750000045,
      "v": 71
    },
    {
      "midi": 55,
      "hit": false,
      "t": 118551.07207499986,
      "d": 446.32607499998994,
      "v": 71
    },
    {
      "midi": 59,
      "hit": false,
      "t": 118551.07207499986,
      "d": 446.32607499998994,
      "v": 71
    },
    {
      "midi": 62,
      "hit": false,
      "t": 118551.07207499986,
      "d": 446.32607499998994,
      "v": 71
    },
    {
      "midi": 43,
      "hit": false,
      "t": 118562.51633333319,
      "d": 434.8818166666606,
      "v": 71
    },
    {
      "midi": 43,
      "hit": false,
      "t": 119008.84240833318,
      "d": 446.3260750000045,
      "v": 71
    },
    {
      "midi": 55,
      "hit": false,
      "t": 119008.84240833318,
      "d": 446.3260750000045,
      "v": 71
    },
    {
      "midi": 59,
      "hit": false,
      "t": 119008.84240833318,
      "d": 446.3260750000045,
      "v": 71
    },
    {
      "midi": 62,
      "hit": false,
      "t": 119008.84240833318,
      "d": 446.3260750000045,
      "v": 71
    },
    {
      "midi": 43,
      "hit": false,
      "t": 119466.61274166651,
      "d": 446.3260750000045,
      "v": 71
    },
    {
      "midi": 55,
      "hit": false,
      "t": 119466.61274166651,
      "d": 446.3260750000045,
      "v": 71
    },
    {
      "midi": 59,
      "hit": false,
      "t": 119466.61274166651,
      "d": 446.3260750000045,
      "v": 71
    },
    {
      "midi": 62,
      "hit": false,
      "t": 119466.61274166651,
      "d": 446.3260750000045,
      "v": 71
    },
    {
      "midi": 55,
      "hit": false,
      "t": 119924.38307499985,
      "d": 446.32607499998994,
      "v": 71
    },
    {
      "midi": 59,
      "hit": false,
      "t": 119924.38307499985,
      "d": 446.32607499998994,
      "v": 71
    },
    {
      "midi": 62,
      "hit": false,
      "t": 119924.38307499985,
      "d": 446.32607499998994,
      "v": 71
    },
    {
      "midi": 43,
      "hit": false,
      "t": 119935.82733333317,
      "d": 434.8818166666606,
      "v": 71
    },
    {
      "midi": 43,
      "hit": false,
      "t": 120382.15340833316,
      "d": 446.3260750000045,
      "v": 71
    },
    {
      "midi": 55,
      "hit": false,
      "t": 120382.15340833316,
      "d": 446.3260750000045,
      "v": 71
    },
    {
      "midi": 59,
      "hit": false,
      "t": 120382.15340833316,
      "d": 446.3260750000045,
      "v": 71
    },
    {
      "midi": 62,
      "hit": false,
      "t": 120382.15340833316,
      "d": 446.3260750000045,
      "v": 71
    },
    {
      "midi": 43,
      "hit": false,
      "t": 120839.9237416665,
      "d": 446.3260750000045,
      "v": 71
    },
    {
      "midi": 55,
      "hit": false,
      "t": 120839.9237416665,
      "d": 446.3260750000045,
      "v": 71
    },
    {
      "midi": 59,
      "hit": false,
      "t": 120839.9237416665,
      "d": 446.3260750000045,
      "v": 71
    },
    {
      "midi": 62,
      "hit": false,
      "t": 120839.9237416665,
      "d": 446.3260750000045,
      "v": 71
    },
    {
      "midi": 43,
      "hit": false,
      "t": 121297.69407499983,
      "d": 446.3260750000045,
      "v": 71
    },
    {
      "midi": 55,
      "hit": false,
      "t": 121297.69407499983,
      "d": 446.3260750000045,
      "v": 71
    },
    {
      "midi": 59,
      "hit": false,
      "t": 121297.69407499983,
      "d": 446.3260750000045,
      "v": 71
    },
    {
      "midi": 62,
      "hit": false,
      "t": 121297.69407499983,
      "d": 446.3260750000045,
      "v": 71
    },
    {
      "midi": 43,
      "hit": false,
      "t": 121755.46440833317,
      "d": 446.3260750000045,
      "v": 71
    },
    {
      "midi": 55,
      "hit": false,
      "t": 121755.46440833317,
      "d": 446.3260750000045,
      "v": 71
    },
    {
      "midi": 59,
      "hit": false,
      "t": 121755.46440833317,
      "d": 446.3260750000045,
      "v": 71
    },
    {
      "midi": 62,
      "hit": false,
      "t": 121755.46440833317,
      "d": 446.3260750000045,
      "v": 71
    },
    {
      "midi": 43,
      "hit": false,
      "t": 122224.67899999984,
      "d": 434.8818166666606,
      "v": 71
    },
    {
      "midi": 55,
      "hit": false,
      "t": 122224.67899999984,
      "d": 434.8818166666606,
      "v": 71
    },
    {
      "midi": 59,
      "hit": false,
      "t": 122224.67899999984,
      "d": 434.8818166666606,
      "v": 71
    },
    {
      "midi": 62,
      "hit": false,
      "t": 122224.67899999984,
      "d": 434.8818166666606,
      "v": 71
    },
    {
      "midi": 43,
      "hit": false,
      "t": 122682.44933333318,
      "d": 434.8818166666606,
      "v": 71
    },
    {
      "midi": 59,
      "hit": false,
      "t": 122682.44933333318,
      "d": 434.8818166666606,
      "v": 71
    },
    {
      "midi": 55,
      "hit": false,
      "t": 122693.8935916665,
      "d": 423.43755833333125,
      "v": 71
    },
    {
      "midi": 62,
      "hit": false,
      "t": 122693.8935916665,
      "d": 423.43755833333125,
      "v": 71
    },
    {
      "midi": 55,
      "hit": false,
      "t": 123140.21966666651,
      "d": 434.8818166666606,
      "v": 71
    },
    {
      "midi": 59,
      "hit": false,
      "t": 123140.21966666651,
      "d": 434.8818166666606,
      "v": 71
    },
    {
      "midi": 62,
      "hit": false,
      "t": 123140.21966666651,
      "d": 434.8818166666606,
      "v": 71
    },
    {
      "midi": 43,
      "hit": false,
      "t": 123151.66392499984,
      "d": 423.43755833333125,
      "v": 71
    },
    {
      "midi": 55,
      "hit": false,
      "t": 123609.43425833317,
      "d": 423.43755833333125,
      "v": 72
    },
    {
      "midi": 60,
      "hit": false,
      "t": 123609.43425833317,
      "d": 423.43755833333125,
      "v": 72
    },
    {
      "midi": 48,
      "hit": false,
      "t": 123609.43425833317,
      "d": 434.8818166666606,
      "v": 72
    },
    {
      "midi": 63,
      "hit": false,
      "t": 123609.43425833317,
      "d": 434.8818166666606,
      "v": 72
    },
    {
      "midi": 48,
      "hit": false,
      "t": 124067.20459166651,
      "d": 423.43755833333125,
      "v": 72
    },
    {
      "midi": 55,
      "hit": false,
      "t": 124067.20459166651,
      "d": 423.43755833333125,
      "v": 72
    },
    {
      "midi": 60,
      "hit": false,
      "t": 124067.20459166651,
      "d": 423.43755833333125,
      "v": 72
    },
    {
      "midi": 63,
      "hit": false,
      "t": 124067.20459166651,
      "d": 423.43755833333125,
      "v": 72
    },
    {
      "midi": 48,
      "hit": false,
      "t": 124513.53066666651,
      "d": 434.8818166666606,
      "v": 72
    },
    {
      "midi": 55,
      "hit": false,
      "t": 124524.97492499984,
      "d": 423.43755833333125,
      "v": 72
    },
    {
      "midi": 60,
      "hit": false,
      "t": 124524.97492499984,
      "d": 423.43755833333125,
      "v": 72
    },
    {
      "midi": 63,
      "hit": false,
      "t": 124524.97492499984,
      "d": 423.43755833333125,
      "v": 72
    },
    {
      "midi": 48,
      "hit": false,
      "t": 124982.74525833318,
      "d": 423.43755833333125,
      "v": 72
    },
    {
      "midi": 55,
      "hit": false,
      "t": 124982.74525833318,
      "d": 423.43755833333125,
      "v": 72
    },
    {
      "midi": 60,
      "hit": false,
      "t": 124982.74525833318,
      "d": 423.43755833333125,
      "v": 72
    },
    {
      "midi": 63,
      "hit": false,
      "t": 124982.74525833318,
      "d": 423.43755833333125,
      "v": 72
    },
    {
      "midi": 48,
      "hit": false,
      "t": 125440.51559166651,
      "d": 423.43755833333125,
      "v": 72
    },
    {
      "midi": 55,
      "hit": false,
      "t": 125440.51559166651,
      "d": 423.43755833333125,
      "v": 72
    },
    {
      "midi": 60,
      "hit": false,
      "t": 125440.51559166651,
      "d": 423.43755833333125,
      "v": 72
    },
    {
      "midi": 63,
      "hit": false,
      "t": 125440.51559166651,
      "d": 423.43755833333125,
      "v": 72
    },
    {
      "midi": 60,
      "hit": false,
      "t": 125886.84166666651,
      "d": 434.8818166666606,
      "v": 72
    },
    {
      "midi": 48,
      "hit": false,
      "t": 125898.28592499984,
      "d": 423.43755833333125,
      "v": 72
    },
    {
      "midi": 55,
      "hit": false,
      "t": 125898.28592499984,
      "d": 423.43755833333125,
      "v": 72
    },
    {
      "midi": 63,
      "hit": false,
      "t": 125898.28592499984,
      "d": 423.43755833333125,
      "v": 72
    },
    {
      "midi": 60,
      "hit": false,
      "t": 126333.1677416665,
      "d": 446.32607499998994,
      "v": 72
    },
    {
      "midi": 55,
      "hit": false,
      "t": 126344.61199999983,
      "d": 434.8818166666606,
      "v": 72
    },
    {
      "midi": 48,
      "hit": false,
      "t": 126356.05625833316,
      "d": 423.43755833333125,
      "v": 72
    },
    {
      "midi": 63,
      "hit": false,
      "t": 126356.05625833316,
      "d": 423.43755833333125,
      "v": 72
    },
    {
      "midi": 48,
      "hit": false,
      "t": 126802.38233333317,
      "d": 434.8818166666606,
      "v": 72
    },
    {
      "midi": 55,
      "hit": false,
      "t": 126802.38233333317,
      "d": 434.8818166666606,
      "v": 72
    },
    {
      "midi": 60,
      "hit": false,
      "t": 126802.38233333317,
      "d": 434.8818166666606,
      "v": 72
    },
    {
      "midi": 63,
      "hit": false,
      "t": 126813.8265916665,
      "d": 423.43755833333125,
      "v": 72
    },
    {
      "midi": 48,
      "hit": false,
      "t": 127248.70840833316,
      "d": 446.3260750000045,
      "v": 72
    },
    {
      "midi": 55,
      "hit": false,
      "t": 127248.70840833316,
      "d": 446.3260750000045,
      "v": 72
    },
    {
      "midi": 60,
      "hit": false,
      "t": 127248.70840833316,
      "d": 446.3260750000045,
      "v": 72
    },
    {
      "midi": 63,
      "hit": false,
      "t": 127248.70840833316,
      "d": 446.3260750000045,
      "v": 72
    },
    {
      "midi": 48,
      "hit": false,
      "t": 127706.47874166649,
      "d": 446.3260750000045,
      "v": 72
    },
    {
      "midi": 55,
      "hit": false,
      "t": 127706.47874166649,
      "d": 446.3260750000045,
      "v": 72
    },
    {
      "midi": 60,
      "hit": false,
      "t": 127706.47874166649,
      "d": 446.3260750000045,
      "v": 72
    },
    {
      "midi": 63,
      "hit": false,
      "t": 127706.47874166649,
      "d": 446.3260750000045,
      "v": 72
    },
    {
      "midi": 55,
      "hit": false,
      "t": 128164.24907499983,
      "d": 446.32607499998994,
      "v": 72
    },
    {
      "midi": 60,
      "hit": false,
      "t": 128164.24907499983,
      "d": 446.32607499998994,
      "v": 72
    },
    {
      "midi": 63,
      "hit": false,
      "t": 128164.24907499983,
      "d": 446.32607499998994,
      "v": 72
    },
    {
      "midi": 48,
      "hit": false,
      "t": 128175.69333333315,
      "d": 434.8818166666606,
      "v": 72
    },
    {
      "midi": 55,
      "hit": false,
      "t": 128622.01940833314,
      "d": 446.32607499998994,
      "v": 72
    },
    {
      "midi": 60,
      "hit": false,
      "t": 128622.01940833314,
      "d": 446.32607499998994,
      "v": 72
    },
    {
      "midi": 63,
      "hit": false,
      "t": 128622.01940833314,
      "d": 446.32607499998994,
      "v": 72
    },
    {
      "midi": 48,
      "hit": false,
      "t": 128633.46366666647,
      "d": 434.8818166666606,
      "v": 72
    },
    {
      "midi": 55,
      "hit": false,
      "t": 129079.78974166646,
      "d": 446.3260750000045,
      "v": 72
    },
    {
      "midi": 60,
      "hit": false,
      "t": 129079.78974166646,
      "d": 446.3260750000045,
      "v": 72
    },
    {
      "midi": 63,
      "hit": false,
      "t": 129079.78974166646,
      "d": 446.3260750000045,
      "v": 72
    },
    {
      "midi": 48,
      "hit": false,
      "t": 129102.67825833314,
      "d": 423.43755833333125,
      "v": 72
    },
    {
      "midi": 48,
      "hit": false,
      "t": 129537.5600749998,
      "d": 446.3260750000045,
      "v": 72
    },
    {
      "midi": 55,
      "hit": false,
      "t": 129537.5600749998,
      "d": 446.3260750000045,
      "v": 72
    },
    {
      "midi": 60,
      "hit": false,
      "t": 129537.5600749998,
      "d": 446.3260750000045,
      "v": 72
    },
    {
      "midi": 63,
      "hit": false,
      "t": 129537.5600749998,
      "d": 446.3260750000045,
      "v": 72
    },
    {
      "midi": 48,
      "hit": false,
      "t": 129995.33040833313,
      "d": 446.3260750000045,
      "v": 72
    },
    {
      "midi": 55,
      "hit": false,
      "t": 129995.33040833313,
      "d": 446.3260750000045,
      "v": 72
    },
    {
      "midi": 60,
      "hit": false,
      "t": 129995.33040833313,
      "d": 446.3260750000045,
      "v": 72
    },
    {
      "midi": 63,
      "hit": false,
      "t": 129995.33040833313,
      "d": 446.3260750000045,
      "v": 72
    },
    {
      "midi": 48,
      "hit": false,
      "t": 130453.10074166647,
      "d": 446.3260750000045,
      "v": 72
    },
    {
      "midi": 55,
      "hit": false,
      "t": 130453.10074166647,
      "d": 446.3260750000045,
      "v": 72
    },
    {
      "midi": 60,
      "hit": false,
      "t": 130453.10074166647,
      "d": 446.3260750000045,
      "v": 72
    },
    {
      "midi": 63,
      "hit": false,
      "t": 130453.10074166647,
      "d": 446.3260750000045,
      "v": 72
    },
    {
      "midi": 48,
      "hit": false,
      "t": 130910.8710749998,
      "d": 446.32607499998994,
      "v": 72
    },
    {
      "midi": 60,
      "hit": false,
      "t": 130910.8710749998,
      "d": 446.32607499998994,
      "v": 72
    },
    {
      "midi": 55,
      "hit": false,
      "t": 130922.31533333313,
      "d": 434.8818166666606,
      "v": 72
    },
    {
      "midi": 63,
      "hit": false,
      "t": 130933.75959166646,
      "d": 423.43755833333125,
      "v": 72
    },
    {
      "midi": 48,
      "hit": false,
      "t": 131368.64140833312,
      "d": 446.32607499998994,
      "v": 72
    },
    {
      "midi": 55,
      "hit": false,
      "t": 131368.64140833312,
      "d": 446.32607499998994,
      "v": 72
    },
    {
      "midi": 60,
      "hit": false,
      "t": 131368.64140833312,
      "d": 446.32607499998994,
      "v": 72
    },
    {
      "midi": 63,
      "hit": false,
      "t": 131380.08566666645,
      "d": 434.8818166666606,
      "v": 72
    },
    {
      "midi": 48,
      "hit": false,
      "t": 131826.41174166644,
      "d": 446.32607499998994,
      "v": 72
    },
    {
      "midi": 55,
      "hit": false,
      "t": 131826.41174166644,
      "d": 446.32607499998994,
      "v": 72
    },
    {
      "midi": 60,
      "hit": false,
      "t": 131826.41174166644,
      "d": 446.32607499998994,
      "v": 72
    },
    {
      "midi": 63,
      "hit": false,
      "t": 131837.85599999977,
      "d": 434.8818166666606,
      "v": 72
    },
    {
      "midi": 55,
      "hit": false,
      "t": 132295.6263333331,
      "d": 434.8818166666606,
      "v": 72
    },
    {
      "midi": 48,
      "hit": false,
      "t": 132307.07059166642,
      "d": 423.43755833333125,
      "v": 72
    },
    {
      "midi": 60,
      "hit": false,
      "t": 132307.07059166642,
      "d": 423.43755833333125,
      "v": 72
    },
    {
      "midi": 63,
      "hit": false,
      "t": 132307.07059166642,
      "d": 423.43755833333125,
      "v": 72
    },
    {
      "midi": 55,
      "hit": false,
      "t": 132741.95240833308,
      "d": 446.32607499998994,
      "v": 72
    },
    {
      "midi": 60,
      "hit": false,
      "t": 132741.95240833308,
      "d": 446.32607499998994,
      "v": 72
    },
    {
      "midi": 48,
      "hit": false,
      "t": 132753.3966666664,
      "d": 434.8818166666606,
      "v": 72
    },
    {
      "midi": 63,
      "hit": false,
      "t": 132753.3966666664,
      "d": 434.8818166666606,
      "v": 72
    },
    {
      "midi": 55,
      "hit": false,
      "t": 133222.61125833305,
      "d": 423.43755833333125,
      "v": 72
    },
    {
      "midi": 60,
      "hit": false,
      "t": 133222.61125833305,
      "d": 423.43755833333125,
      "v": 72
    },
    {
      "midi": 63,
      "hit": false,
      "t": 133222.61125833305,
      "d": 423.43755833333125,
      "v": 72
    },
    {
      "midi": 48,
      "hit": false,
      "t": 133222.61125833305,
      "d": 434.8818166666606,
      "v": 72
    },
    {
      "midi": 60,
      "hit": false,
      "t": 133668.93733333304,
      "d": 434.8818166666606,
      "v": 72
    },
    {
      "midi": 48,
      "hit": false,
      "t": 133680.38159166637,
      "d": 423.43755833333125,
      "v": 72
    },
    {
      "midi": 55,
      "hit": false,
      "t": 133680.38159166637,
      "d": 423.43755833333125,
      "v": 72
    },
    {
      "midi": 63,
      "hit": false,
      "t": 133680.38159166637,
      "d": 423.43755833333125,
      "v": 72
    },
    {
      "midi": 55,
      "hit": false,
      "t": 134115.26340833303,
      "d": 446.32607499998994,
      "v": 72
    },
    {
      "midi": 60,
      "hit": false,
      "t": 134115.26340833303,
      "d": 446.32607499998994,
      "v": 72
    },
    {
      "midi": 63,
      "hit": false,
      "t": 134115.26340833303,
      "d": 446.32607499998994,
      "v": 72
    },
    {
      "midi": 48,
      "hit": false,
      "t": 134138.1519249997,
      "d": 423.43755833333125,
      "v": 72
    },
    {
      "midi": 58,
      "hit": false,
      "t": 134584.47799999968,
      "d": 434.8818166666606,
      "v": 72
    },
    {
      "midi": 63,
      "hit": false,
      "t": 134584.47799999968,
      "d": 434.8818166666606,
      "v": 72
    },
    {
      "midi": 39,
      "hit": false,
      "t": 134595.922258333,
      "d": 423.43755833333125,
      "v": 72
    },
    {
      "midi": 55,
      "hit": false,
      "t": 134595.922258333,
      "d": 423.43755833333125,
      "v": 72
    },
    {
      "midi": 58,
      "hit": false,
      "t": 135030.80407499967,
      "d": 446.32607499998994,
      "v": 72
    },
    {
      "midi": 61,
      "hit": false,
      "t": 135030.80407499967,
      "d": 446.32607499998994,
      "v": 72
    },
    {
      "midi": 55,
      "hit": false,
      "t": 135042.248333333,
      "d": 434.8818166666606,
      "v": 72
    },
    {
      "midi": 39,
      "hit": false,
      "t": 135053.69259166633,
      "d": 423.43755833333125,
      "v": 72
    },
    {
      "midi": 55,
      "hit": false,
      "t": 135488.574408333,
      "d": 446.32607499998994,
      "v": 72
    },
    {
      "midi": 58,
      "hit": false,
      "t": 135488.574408333,
      "d": 446.32607499998994,
      "v": 72
    },
    {
      "midi": 61,
      "hit": false,
      "t": 135488.574408333,
      "d": 446.32607499998994,
      "v": 72
    },
    {
      "midi": 39,
      "hit": false,
      "t": 135511.46292499965,
      "d": 423.43755833333125,
      "v": 72
    },
    {
      "midi": 55,
      "hit": false,
      "t": 135946.3447416663,
      "d": 446.32607499998994,
      "v": 72
    },
    {
      "midi": 58,
      "hit": false,
      "t": 135946.3447416663,
      "d": 446.32607499998994,
      "v": 72
    },
    {
      "midi": 61,
      "hit": false,
      "t": 135946.3447416663,
      "d": 446.32607499998994,
      "v": 72
    },
    {
      "midi": 39,
      "hit": false,
      "t": 135957.78899999964,
      "d": 434.8818166666606,
      "v": 72
    },
    {
      "midi": 39,
      "hit": false,
      "t": 136404.11507499963,
      "d": 446.32607499998994,
      "v": 72
    },
    {
      "midi": 55,
      "hit": false,
      "t": 136404.11507499963,
      "d": 446.32607499998994,
      "v": 72
    },
    {
      "midi": 58,
      "hit": false,
      "t": 136404.11507499963,
      "d": 446.32607499998994,
      "v": 72
    },
    {
      "midi": 61,
      "hit": false,
      "t": 136404.11507499963,
      "d": 446.32607499998994,
      "v": 72
    },
    {
      "midi": 55,
      "hit": false,
      "t": 136861.88540833295,
      "d": 446.32607499998994,
      "v": 72
    },
    {
      "midi": 58,
      "hit": false,
      "t": 136861.88540833295,
      "d": 446.32607499998994,
      "v": 72
    },
    {
      "midi": 61,
      "hit": false,
      "t": 136861.88540833295,
      "d": 446.32607499998994,
      "v": 72
    },
    {
      "midi": 39,
      "hit": false,
      "t": 136884.7739249996,
      "d": 423.43755833333125,
      "v": 72
    },
    {
      "midi": 55,
      "hit": false,
      "t": 137319.65574166627,
      "d": 446.32607499998994,
      "v": 72
    },
    {
      "midi": 58,
      "hit": false,
      "t": 137319.65574166627,
      "d": 446.32607499998994,
      "v": 72
    },
    {
      "midi": 61,
      "hit": false,
      "t": 137319.65574166627,
      "d": 446.32607499998994,
      "v": 72
    },
    {
      "midi": 39,
      "hit": false,
      "t": 137342.54425833293,
      "d": 423.43755833333125,
      "v": 72
    },
    {
      "midi": 55,
      "hit": false,
      "t": 137777.4260749996,
      "d": 446.32607499998994,
      "v": 72
    },
    {
      "midi": 58,
      "hit": false,
      "t": 137777.4260749996,
      "d": 446.32607499998994,
      "v": 72
    },
    {
      "midi": 61,
      "hit": false,
      "t": 137777.4260749996,
      "d": 446.32607499998994,
      "v": 72
    },
    {
      "midi": 39,
      "hit": false,
      "t": 137800.31459166625,
      "d": 423.43755833333125,
      "v": 72
    },
    {
      "midi": 55,
      "hit": false,
      "t": 138235.1964083329,
      "d": 446.32607499998994,
      "v": 72
    },
    {
      "midi": 58,
      "hit": false,
      "t": 138235.1964083329,
      "d": 446.32607499998994,
      "v": 72
    },
    {
      "midi": 61,
      "hit": false,
      "t": 138235.1964083329,
      "d": 446.32607499998994,
      "v": 72
    },
    {
      "midi": 39,
      "hit": false,
      "t": 138258.08492499957,
      "d": 423.43755833333125,
      "v": 72
    },
    {
      "midi": 55,
      "hit": false,
      "t": 138692.96674166623,
      "d": 446.32607499998994,
      "v": 72
    },
    {
      "midi": 58,
      "hit": false,
      "t": 138692.96674166623,
      "d": 446.32607499998994,
      "v": 72
    },
    {
      "midi": 61,
      "hit": false,
      "t": 138692.96674166623,
      "d": 446.32607499998994,
      "v": 72
    },
    {
      "midi": 39,
      "hit": false,
      "t": 138715.8552583329,
      "d": 423.43755833333125,
      "v": 72
    },
    {
      "midi": 55,
      "hit": false,
      "t": 139150.73707499955,
      "d": 446.32607499998994,
      "v": 72
    },
    {
      "midi": 58,
      "hit": false,
      "t": 139150.73707499955,
      "d": 446.32607499998994,
      "v": 72
    },
    {
      "midi": 61,
      "hit": false,
      "t": 139150.73707499955,
      "d": 446.32607499998994,
      "v": 72
    },
    {
      "midi": 39,
      "hit": false,
      "t": 139173.6255916662,
      "d": 423.43755833333125,
      "v": 72
    },
    {
      "midi": 39,
      "hit": false,
      "t": 139608.50740833287,
      "d": 446.32607499998994,
      "v": 72
    },
    {
      "midi": 55,
      "hit": false,
      "t": 139608.50740833287,
      "d": 446.32607499998994,
      "v": 72
    },
    {
      "midi": 58,
      "hit": false,
      "t": 139608.50740833287,
      "d": 446.32607499998994,
      "v": 72
    },
    {
      "midi": 61,
      "hit": false,
      "t": 139608.50740833287,
      "d": 446.32607499998994,
      "v": 72
    },
    {
      "midi": 39,
      "hit": false,
      "t": 140066.27774166618,
      "d": 446.32607499998994,
      "v": 72
    },
    {
      "midi": 58,
      "hit": false,
      "t": 140066.27774166618,
      "d": 446.32607499998994,
      "v": 72
    },
    {
      "midi": 61,
      "hit": false,
      "t": 140066.27774166618,
      "d": 446.32607499998994,
      "v": 72
    },
    {
      "midi": 55,
      "hit": false,
      "t": 140077.7219999995,
      "d": 434.8818166666606,
      "v": 72
    },
    {
      "midi": 39,
      "hit": false,
      "t": 140524.0480749995,
      "d": 446.32607499998994,
      "v": 72
    },
    {
      "midi": 58,
      "hit": false,
      "t": 140524.0480749995,
      "d": 446.32607499998994,
      "v": 72
    },
    {
      "midi": 61,
      "hit": false,
      "t": 140535.49233333283,
      "d": 434.8818166666606,
      "v": 72
    },
    {
      "midi": 55,
      "hit": false,
      "t": 140546.93659166616,
      "d": 423.43755833333125,
      "v": 72
    },
    {
      "midi": 39,
      "hit": false,
      "t": 140981.81840833282,
      "d": 446.32607499998994,
      "v": 72
    },
    {
      "midi": 55,
      "hit": false,
      "t": 140981.81840833282,
      "d": 446.32607499998994,
      "v": 72
    },
    {
      "midi": 58,
      "hit": false,
      "t": 140981.81840833282,
      "d": 446.32607499998994,
      "v": 72
    },
    {
      "midi": 61,
      "hit": false,
      "t": 140981.81840833282,
      "d": 446.32607499998994,
      "v": 72
    },
    {
      "midi": 58,
      "hit": false,
      "t": 141451.03299999947,
      "d": 446.32607499998994,
      "v": 73
    },
    {
      "midi": 39,
      "hit": false,
      "t": 141462.4772583328,
      "d": 423.43755833333125,
      "v": 73
    },
    {
      "midi": 55,
      "hit": false,
      "t": 141462.4772583328,
      "d": 423.43755833333125,
      "v": 73
    },
    {
      "midi": 61,
      "hit": false,
      "t": 141462.4772583328,
      "d": 434.8818166666606,
      "v": 73
    },
    {
      "midi": 39,
      "hit": false,
      "t": 141897.35907499946,
      "d": 446.32607499998994,
      "v": 73
    },
    {
      "midi": 55,
      "hit": false,
      "t": 141920.24759166612,
      "d": 423.43755833333125,
      "v": 73
    },
    {
      "midi": 58,
      "hit": false,
      "t": 141920.24759166612,
      "d": 423.43755833333125,
      "v": 73
    },
    {
      "midi": 61,
      "hit": false,
      "t": 141920.24759166612,
      "d": 423.43755833333125,
      "v": 73
    },
    {
      "midi": 55,
      "hit": false,
      "t": 142366.5736666661,
      "d": 434.8818166666606,
      "v": 73
    },
    {
      "midi": 58,
      "hit": false,
      "t": 142366.5736666661,
      "d": 434.8818166666606,
      "v": 73
    },
    {
      "midi": 61,
      "hit": false,
      "t": 142366.5736666661,
      "d": 446.32607499998994,
      "v": 73
    },
    {
      "midi": 39,
      "hit": false,
      "t": 142378.01792499944,
      "d": 423.43755833333125,
      "v": 73
    },
    {
      "midi": 55,
      "hit": false,
      "t": 142835.78825833276,
      "d": 423.43755833333125,
      "v": 73
    },
    {
      "midi": 58,
      "hit": false,
      "t": 142835.78825833276,
      "d": 423.43755833333125,
      "v": 73
    },
    {
      "midi": 39,
      "hit": false,
      "t": 142835.78825833276,
      "d": 434.8818166666606,
      "v": 73
    },
    {
      "midi": 61,
      "hit": false,
      "t": 142835.78825833276,
      "d": 434.8818166666606,
      "v": 73
    },
    {
      "midi": 39,
      "hit": false,
      "t": 143293.55859166608,
      "d": 423.43755833333125,
      "v": 73
    },
    {
      "midi": 55,
      "hit": false,
      "t": 143293.55859166608,
      "d": 423.43755833333125,
      "v": 73
    },
    {
      "midi": 58,
      "hit": false,
      "t": 143293.55859166608,
      "d": 423.43755833333125,
      "v": 73
    },
    {
      "midi": 61,
      "hit": false,
      "t": 143293.55859166608,
      "d": 423.43755833333125,
      "v": 73
    },
    {
      "midi": 39,
      "hit": false,
      "t": 143751.3289249994,
      "d": 423.43755833333125,
      "v": 73
    },
    {
      "midi": 55,
      "hit": false,
      "t": 143751.3289249994,
      "d": 423.43755833333125,
      "v": 73
    },
    {
      "midi": 58,
      "hit": false,
      "t": 143751.3289249994,
      "d": 423.43755833333125,
      "v": 73
    },
    {
      "midi": 61,
      "hit": false,
      "t": 143751.3289249994,
      "d": 434.8818166666606,
      "v": 73
    },
    {
      "midi": 39,
      "hit": false,
      "t": 144197.6549999994,
      "d": 434.8818166666606,
      "v": 73
    },
    {
      "midi": 55,
      "hit": false,
      "t": 144209.09925833272,
      "d": 423.43755833333125,
      "v": 73
    },
    {
      "midi": 58,
      "hit": false,
      "t": 144209.09925833272,
      "d": 423.43755833333125,
      "v": 73
    },
    {
      "midi": 61,
      "hit": false,
      "t": 144209.09925833272,
      "d": 423.43755833333125,
      "v": 73
    },
    {
      "midi": 58,
      "hit": false,
      "t": 144655.4253333327,
      "d": 434.8818166666606,
      "v": 73
    },
    {
      "midi": 39,
      "hit": false,
      "t": 144666.86959166604,
      "d": 423.43755833333125,
      "v": 73
    },
    {
      "midi": 55,
      "hit": false,
      "t": 144666.86959166604,
      "d": 423.43755833333125,
      "v": 73
    },
    {
      "midi": 61,
      "hit": false,
      "t": 144666.86959166604,
      "d": 423.43755833333125,
      "v": 73
    },
    {
      "midi": 55,
      "hit": false,
      "t": 145101.7514083327,
      "d": 446.32607499998994,
      "v": 73
    },
    {
      "midi": 58,
      "hit": false,
      "t": 145101.7514083327,
      "d": 446.32607499998994,
      "v": 73
    },
    {
      "midi": 61,
      "hit": false,
      "t": 145101.7514083327,
      "d": 446.32607499998994,
      "v": 73
    },
    {
      "midi": 39,
      "hit": false,
      "t": 145124.63992499936,
      "d": 423.43755833333125,
      "v": 73
    },
    {
      "midi": 56,
      "hit": false,
      "t": 145559.52174166602,
      "d": 457.7703333333193,
      "v": 73
    },
    {
      "midi": 60,
      "hit": false,
      "t": 145559.52174166602,
      "d": 457.7703333333193,
      "v": 73
    },
    {
      "midi": 63,
      "hit": false,
      "t": 145559.52174166602,
      "d": 457.7703333333193,
      "v": 73
    },
    {
      "midi": 44,
      "hit": false,
      "t": 145570.96599999935,
      "d": 457.7703333333193,
      "v": 73
    },
    {
      "midi": 60,
      "hit": false,
      "t": 146017.29207499934,
      "d": 446.32607499998994,
      "v": 73
    },
    {
      "midi": 44,
      "hit": false,
      "t": 146028.73633333266,
      "d": 434.8818166666606,
      "v": 73
    },
    {
      "midi": 56,
      "hit": false,
      "t": 146028.73633333266,
      "d": 434.8818166666606,
      "v": 73
    },
    {
      "midi": 63,
      "hit": false,
      "t": 146028.73633333266,
      "d": 434.8818166666606,
      "v": 73
    },
    {
      "midi": 44,
      "hit": false,
      "t": 146475.06240833265,
      "d": 446.32607499998994,
      "v": 73
    },
    {
      "midi": 56,
      "hit": false,
      "t": 146475.06240833265,
      "d": 446.32607499998994,
      "v": 73
    },
    {
      "midi": 60,
      "hit": false,
      "t": 146475.06240833265,
      "d": 446.32607499998994,
      "v": 73
    },
    {
      "midi": 63,
      "hit": false,
      "t": 146475.06240833265,
      "d": 446.32607499998994,
      "v": 73
    },
    {
      "midi": 56,
      "hit": false,
      "t": 146932.83274166597,
      "d": 446.32607499998994,
      "v": 73
    },
    {
      "midi": 60,
      "hit": false,
      "t": 146932.83274166597,
      "d": 446.32607499998994,
      "v": 73
    },
    {
      "midi": 63,
      "hit": false,
      "t": 146932.83274166597,
      "d": 446.32607499998994,
      "v": 73
    },
    {
      "midi": 44,
      "hit": false,
      "t": 146932.83274166597,
      "d": 457.7703333333193,
      "v": 73
    },
    {
      "midi": 56,
      "hit": false,
      "t": 147390.6030749993,
      "d": 446.32607499998994,
      "v": 73
    },
    {
      "midi": 60,
      "hit": false,
      "t": 147390.6030749993,
      "d": 446.32607499998994,
      "v": 73
    },
    {
      "midi": 63,
      "hit": false,
      "t": 147390.6030749993,
      "d": 446.32607499998994,
      "v": 73
    },
    {
      "midi": 44,
      "hit": false,
      "t": 147402.04733333262,
      "d": 434.8818166666606,
      "v": 73
    },
    {
      "midi": 56,
      "hit": false,
      "t": 147848.3734083326,
      "d": 446.32607499998994,
      "v": 73
    },
    {
      "midi": 60,
      "hit": false,
      "t": 147848.3734083326,
      "d": 446.32607499998994,
      "v": 73
    },
    {
      "midi": 63,
      "hit": false,
      "t": 147848.3734083326,
      "d": 446.32607499998994,
      "v": 73
    },
    {
      "midi": 44,
      "hit": false,
      "t": 147871.26192499927,
      "d": 423.43755833333125,
      "v": 73
    },
    {
      "midi": 56,
      "hit": false,
      "t": 148306.14374166593,
      "d": 446.32607499998994,
      "v": 73
    },
    {
      "midi": 60,
      "hit": false,
      "t": 148306.14374166593,
      "d": 446.32607499998994,
      "v": 73
    },
    {
      "midi": 63,
      "hit": false,
      "t": 148306.14374166593,
      "d": 457.7703333333193,
      "v": 73
    },
    {
      "midi": 44,
      "hit": false,
      "t": 148329.0322583326,
      "d": 434.8818166666606,
      "v": 73
    },
    {
      "midi": 56,
      "hit": false,
      "t": 148763.91407499925,
      "d": 446.32607499998994,
      "v": 73
    },
    {
      "midi": 60,
      "hit": false,
      "t": 148763.91407499925,
      "d": 446.32607499998994,
      "v": 73
    },
    {
      "midi": 63,
      "hit": false,
      "t": 148775.35833333258,
      "d": 434.8818166666606,
      "v": 73
    },
    {
      "midi": 44,
      "hit": false,
      "t": 148786.8025916659,
      "d": 434.8818166666606,
      "v": 73
    },
    {
      "midi": 56,
      "hit": false,
      "t": 149221.68440833257,
      "d": 446.32607499998994,
      "v": 73
    },
    {
      "midi": 60,
      "hit": false,
      "t": 149221.68440833257,
      "d": 446.32607499998994,
      "v": 73
    },
    {
      "midi": 63,
      "hit": false,
      "t": 149221.68440833257,
      "d": 446.32607499998994,
      "v": 73
    },
    {
      "midi": 44,
      "hit": false,
      "t": 149244.57292499923,
      "d": 434.8818166666606,
      "v": 73
    },
    {
      "midi": 56,
      "hit": false,
      "t": 149679.4547416659,
      "d": 446.32607499998994,
      "v": 73
    },
    {
      "midi": 60,
      "hit": false,
      "t": 149679.4547416659,
      "d": 446.32607499998994,
      "v": 73
    },
    {
      "midi": 63,
      "hit": false,
      "t": 149679.4547416659,
      "d": 446.32607499998994,
      "v": 73
    },
    {
      "midi": 44,
      "hit": false,
      "t": 149702.34325833255,
      "d": 423.43755833333125,
      "v": 73
    },
    {
      "midi": 56,
      "hit": false,
      "t": 150137.2250749992,
      "d": 446.32607499998994,
      "v": 73
    },
    {
      "midi": 60,
      "hit": false,
      "t": 150137.2250749992,
      "d": 446.32607499998994,
      "v": 73
    },
    {
      "midi": 63,
      "hit": false,
      "t": 150137.2250749992,
      "d": 446.32607499998994,
      "v": 73
    },
    {
      "midi": 44,
      "hit": false,
      "t": 150160.11359166587,
      "d": 423.43755833333125,
      "v": 73
    },
    {
      "midi": 44,
      "hit": false,
      "t": 150594.99540833253,
      "d": 446.32607499998994,
      "v": 73
    },
    {
      "midi": 56,
      "hit": false,
      "t": 150594.99540833253,
      "d": 446.32607499998994,
      "v": 73
    },
    {
      "midi": 60,
      "hit": false,
      "t": 150594.99540833253,
      "d": 446.32607499998994,
      "v": 73
    },
    {
      "midi": 63,
      "hit": false,
      "t": 150594.99540833253,
      "d": 446.32607499998994,
      "v": 73
    },
    {
      "midi": 44,
      "hit": false,
      "t": 151075.6542583325,
      "d": 434.8818166666606,
      "v": 99
    },
    {
      "midi": 56,
      "hit": false,
      "t": 151075.6542583325,
      "d": 434.8818166666606,
      "v": 72
    },
    {
      "midi": 59,
      "hit": false,
      "t": 151075.6542583325,
      "d": 434.8818166666606,
      "v": 93
    },
    {
      "midi": 63,
      "hit": false,
      "t": 151075.6542583325,
      "d": 434.8818166666606,
      "v": 66
    },
    {
      "midi": 44,
      "hit": false,
      "t": 151533.42459166583,
      "d": 423.43755833333125,
      "v": 78
    },
    {
      "midi": 56,
      "hit": false,
      "t": 151533.42459166583,
      "d": 434.8818166666606,
      "v": 59
    },
    {
      "midi": 59,
      "hit": false,
      "t": 151533.42459166583,
      "d": 434.8818166666606,
      "v": 84
    },
    {
      "midi": 63,
      "hit": false,
      "t": 151533.42459166583,
      "d": 434.8818166666606,
      "v": 50
    },
    {
      "midi": 56,
      "hit": false,
      "t": 151979.75066666582,
      "d": 446.32607499998994,
      "v": 85
    },
    {
      "midi": 59,
      "hit": false,
      "t": 151979.75066666582,
      "d": 446.32607499998994,
      "v": 95
    },
    {
      "midi": 63,
      "hit": false,
      "t": 151979.75066666582,
      "d": 446.32607499998994,
      "v": 64
    },
    {
      "midi": 44,
      "hit": false,
      "t": 151991.19492499914,
      "d": 434.8818166666606,
      "v": 80
    },
    {
      "midi": 63,
      "hit": false,
      "t": 152426.0767416658,
      "d": 457.7703333333193,
      "v": 50
    },
    {
      "midi": 56,
      "hit": false,
      "t": 152437.52099999913,
      "d": 446.32607499998994,
      "v": 71
    },
    {
      "midi": 59,
      "hit": false,
      "t": 152437.52099999913,
      "d": 446.32607499998994,
      "v": 85
    },
    {
      "midi": 44,
      "hit": false,
      "t": 152448.96525833246,
      "d": 434.8818166666606,
      "v": 81
    },
    {
      "midi": 56,
      "hit": false,
      "t": 152883.84707499912,
      "d": 457.7703333333193,
      "v": 69
    },
    {
      "midi": 59,
      "hit": false,
      "t": 152883.84707499912,
      "d": 457.7703333333193,
      "v": 85
    },
    {
      "midi": 63,
      "hit": false,
      "t": 152883.84707499912,
      "d": 457.7703333333193,
      "v": 51
    },
    {
      "midi": 44,
      "hit": false,
      "t": 152906.73559166578,
      "d": 423.43755833333125,
      "v": 81
    },
    {
      "midi": 56,
      "hit": false,
      "t": 153341.61740833244,
      "d": 457.7703333333193,
      "v": 67
    },
    {
      "midi": 59,
      "hit": false,
      "t": 153341.61740833244,
      "d": 457.7703333333193,
      "v": 84
    },
    {
      "midi": 63,
      "hit": false,
      "t": 153341.61740833244,
      "d": 457.7703333333193,
      "v": 50
    },
    {
      "midi": 44,
      "hit": false,
      "t": 153364.5059249991,
      "d": 423.43755833333125,
      "v": 85
    },
    {
      "midi": 59,
      "hit": false,
      "t": 153799.38774166576,
      "d": 457.7703333333193,
      "v": 84
    },
    {
      "midi": 63,
      "hit": false,
      "t": 153799.38774166576,
      "d": 457.7703333333193,
      "v": 46
    },
    {
      "midi": 44,
      "hit": false,
      "t": 153822.27625833242,
      "d": 434.8818166666606,
      "v": 83
    },
    {
      "midi": 56,
      "hit": false,
      "t": 154257.15807499908,
      "d": 457.7703333333193,
      "v": 58
    },
    {
      "midi": 59,
      "hit": false,
      "t": 154257.15807499908,
      "d": 457.7703333333193,
      "v": 76
    },
    {
      "midi": 63,
      "hit": false,
      "t": 154257.15807499908,
      "d": 457.7703333333193,
      "v": 44
    },
    {
      "midi": 44,
      "hit": false,
      "t": 154280.04659166574,
      "d": 423.43755833333125,
      "v": 76
    },
    {
      "midi": 56,
      "hit": false,
      "t": 154714.9284083324,
      "d": 457.7703333333193,
      "v": 70
    },
    {
      "midi": 59,
      "hit": false,
      "t": 154714.9284083324,
      "d": 457.7703333333193,
      "v": 81
    },
    {
      "midi": 63,
      "hit": false,
      "t": 154714.9284083324,
      "d": 457.7703333333193,
      "v": 47
    },
    {
      "midi": 44,
      "hit": false,
      "t": 154726.37266666573,
      "d": 446.32607499998994,
      "v": 82
    },
    {
      "midi": 56,
      "hit": false,
      "t": 155172.69874166572,
      "d": 457.7703333333193,
      "v": 68
    },
    {
      "midi": 59,
      "hit": false,
      "t": 155172.69874166572,
      "d": 457.7703333333193,
      "v": 80
    },
    {
      "midi": 63,
      "hit": false,
      "t": 155172.69874166572,
      "d": 457.7703333333193,
      "v": 46
    },
    {
      "midi": 44,
      "hit": false,
      "t": 155184.14299999905,
      "d": 446.32607499998994,
      "v": 71
    },
    {
      "midi": 59,
      "hit": false,
      "t": 155630.46907499904,
      "d": 457.7703333333193,
      "v": 84
    },
    {
      "midi": 63,
      "hit": false,
      "t": 155630.46907499904,
      "d": 457.7703333333193,
      "v": 49
    },
    {
      "midi": 56,
      "hit": false,
      "t": 155641.91333333237,
      "d": 446.32607499998994,
      "v": 78
    },
    {
      "midi": 44,
      "hit": false,
      "t": 155653.3575916657,
      "d": 423.43755833333125,
      "v": 76
    },
    {
      "midi": 44,
      "hit": false,
      "t": 156088.23940833236,
      "d": 457.7703333333193,
      "v": 68
    },
    {
      "midi": 56,
      "hit": false,
      "t": 156088.23940833236,
      "d": 457.7703333333193,
      "v": 78
    },
    {
      "midi": 59,
      "hit": false,
      "t": 156088.23940833236,
      "d": 457.7703333333193,
      "v": 90
    },
    {
      "midi": 63,
      "hit": false,
      "t": 156088.23940833236,
      "d": 457.7703333333193,
      "v": 67
    },
    {
      "midi": 55,
      "hit": false,
      "t": 156546.00974166568,
      "d": 457.7703333333193,
      "v": 95
    },
    {
      "midi": 58,
      "hit": false,
      "t": 156546.00974166568,
      "d": 457.7703333333193,
      "v": 85
    },
    {
      "midi": 63,
      "hit": false,
      "t": 156546.00974166568,
      "d": 457.7703333333193,
      "v": 64
    },
    {
      "midi": 39,
      "hit": false,
      "t": 156557.453999999,
      "d": 446.32607499998994,
      "v": 105
    },
    {
      "midi": 55,
      "hit": false,
      "t": 157003.780074999,
      "d": 457.7703333333193,
      "v": 85
    },
    {
      "midi": 58,
      "hit": false,
      "t": 157003.780074999,
      "d": 457.7703333333193,
      "v": 73
    },
    {
      "midi": 63,
      "hit": false,
      "t": 157003.780074999,
      "d": 457.7703333333193,
      "v": 70
    },
    {
      "midi": 39,
      "hit": false,
      "t": 157026.66859166566,
      "d": 423.43755833333125,
      "v": 79
    },
    {
      "midi": 39,
      "hit": false,
      "t": 157461.55040833232,
      "d": 457.7703333333193,
      "v": 76
    },
    {
      "midi": 55,
      "hit": false,
      "t": 157461.55040833232,
      "d": 457.7703333333193,
      "v": 73
    },
    {
      "midi": 58,
      "hit": false,
      "t": 157461.55040833232,
      "d": 457.7703333333193,
      "v": 72
    },
    {
      "midi": 63,
      "hit": false,
      "t": 157461.55040833232,
      "d": 457.7703333333193,
      "v": 72
    },
    {
      "midi": 39,
      "hit": false,
      "t": 157919.32074166564,
      "d": 446.32607499998994,
      "v": 82
    },
    {
      "midi": 55,
      "hit": false,
      "t": 157919.32074166564,
      "d": 457.7703333333193,
      "v": 86
    },
    {
      "midi": 58,
      "hit": false,
      "t": 157919.32074166564,
      "d": 457.7703333333193,
      "v": 76
    },
    {
      "midi": 63,
      "hit": false,
      "t": 157919.32074166564,
      "d": 457.7703333333193,
      "v": 66
    },
    {
      "midi": 39,
      "hit": false,
      "t": 158377.09107499896,
      "d": 446.32607499998994,
      "v": 82
    },
    {
      "midi": 55,
      "hit": false,
      "t": 158377.09107499896,
      "d": 457.7703333333193,
      "v": 76
    },
    {
      "midi": 58,
      "hit": false,
      "t": 158377.09107499896,
      "d": 457.7703333333193,
      "v": 69
    },
    {
      "midi": 63,
      "hit": false,
      "t": 158377.09107499896,
      "d": 457.7703333333193,
      "v": 61
    },
    {
      "midi": 39,
      "hit": false,
      "t": 158834.86140833228,
      "d": 457.7703333333193,
      "v": 80
    },
    {
      "midi": 55,
      "hit": false,
      "t": 158834.86140833228,
      "d": 457.7703333333193,
      "v": 76
    },
    {
      "midi": 58,
      "hit": false,
      "t": 158834.86140833228,
      "d": 457.7703333333193,
      "v": 76
    },
    {
      "midi": 63,
      "hit": false,
      "t": 158834.86140833228,
      "d": 457.7703333333193,
      "v": 71
    },
    {
      "midi": 55,
      "hit": false,
      "t": 159292.6317416656,
      "d": 457.7703333333193,
      "v": 85
    },
    {
      "midi": 58,
      "hit": false,
      "t": 159292.6317416656,
      "d": 457.7703333333193,
      "v": 80
    },
    {
      "midi": 63,
      "hit": false,
      "t": 159292.6317416656,
      "d": 457.7703333333193,
      "v": 68
    },
    {
      "midi": 39,
      "hit": false,
      "t": 159304.07599999892,
      "d": 446.32607499998994,
      "v": 66
    },
    {
      "midi": 58,
      "hit": false,
      "t": 159750.4020749989,
      "d": 457.7703333333193,
      "v": 66
    },
    {
      "midi": 39,
      "hit": false,
      "t": 159761.84633333224,
      "d": 434.8818166666606,
      "v": 80
    },
    {
      "midi": 55,
      "hit": false,
      "t": 159761.84633333224,
      "d": 446.32607499998994,
      "v": 68
    },
    {
      "midi": 63,
      "hit": false,
      "t": 159761.84633333224,
      "d": 446.32607499998994,
      "v": 53
    },
    {
      "midi": 55,
      "hit": false,
      "t": 160208.17240833223,
      "d": 457.7703333333193,
      "v": 86
    },
    {
      "midi": 58,
      "hit": false,
      "t": 160208.17240833223,
      "d": 457.7703333333193,
      "v": 81
    },
    {
      "midi": 63,
      "hit": false,
      "t": 160208.17240833223,
      "d": 457.7703333333193,
      "v": 67
    },
    {
      "midi": 39,
      "hit": false,
      "t": 160219.61666666556,
      "d": 446.32607499998994,
      "v": 76
    },
    {
      "midi": 55,
      "hit": false,
      "t": 160665.94274166555,
      "d": 457.7703333333193,
      "v": 81
    },
    {
      "midi": 58,
      "hit": false,
      "t": 160665.94274166555,
      "d": 457.7703333333193,
      "v": 79
    },
    {
      "midi": 63,
      "hit": false,
      "t": 160665.94274166555,
      "d": 457.7703333333193,
      "v": 67
    },
    {
      "midi": 39,
      "hit": false,
      "t": 160677.38699999888,
      "d": 434.8818166666606,
      "v": 65
    },
    {
      "midi": 39,
      "hit": false,
      "t": 161123.71307499887,
      "d": 446.32607499998994,
      "v": 46
    },
    {
      "midi": 55,
      "hit": false,
      "t": 161123.71307499887,
      "d": 457.7703333333193,
      "v": 80
    },
    {
      "midi": 58,
      "hit": false,
      "t": 161123.71307499887,
      "d": 457.7703333333193,
      "v": 79
    },
    {
      "midi": 63,
      "hit": false,
      "t": 161123.71307499887,
      "d": 457.7703333333193,
      "v": 66
    },
    {
      "midi": 39,
      "hit": false,
      "t": 161581.4834083322,
      "d": 457.7703333333193,
      "v": 52
    },
    {
      "midi": 55,
      "hit": false,
      "t": 161581.4834083322,
      "d": 457.7703333333193,
      "v": 84
    },
    {
      "midi": 58,
      "hit": false,
      "t": 161581.4834083322,
      "d": 457.7703333333193,
      "v": 78
    },
    {
      "midi": 63,
      "hit": false,
      "t": 161581.4834083322,
      "d": 457.7703333333193,
      "v": 64
    },
    {
      "midi": 55,
      "hit": false,
      "t": 162039.2537416655,
      "d": 457.7703333333193,
      "v": 89
    },
    {
      "midi": 60,
      "hit": false,
      "t": 162039.2537416655,
      "d": 457.7703333333193,
      "v": 104
    },
    {
      "midi": 64,
      "hit": false,
      "t": 162039.2537416655,
      "d": 457.7703333333193,
      "v": 93
    },
    {
      "midi": 48,
      "hit": false,
      "t": 162050.69799999884,
      "d": 446.32607499998994,
      "v": 76
    },
    {
      "midi": 48,
      "hit": false,
      "t": 162497.02407499883,
      "d": 446.32607499998994,
      "v": 82
    },
    {
      "midi": 55,
      "hit": false,
      "t": 162508.46833333216,
      "d": 446.32607499998994,
      "v": 81
    },
    {
      "midi": 60,
      "hit": false,
      "t": 162508.46833333216,
      "d": 446.32607499998994,
      "v": 89
    },
    {
      "midi": 64,
      "hit": false,
      "t": 162508.46833333216,
      "d": 446.32607499998994,
      "v": 81
    },
    {
      "midi": 48,
      "hit": false,
      "t": 162954.79440833215,
      "d": 446.32607499998994,
      "v": 94
    },
    {
      "midi": 55,
      "hit": false,
      "t": 162954.79440833215,
      "d": 457.7703333333193,
      "v": 86
    },
    {
      "midi": 60,
      "hit": false,
      "t": 162954.79440833215,
      "d": 457.7703333333193,
      "v": 93
    },
    {
      "midi": 64,
      "hit": false,
      "t": 162954.79440833215,
      "d": 457.7703333333193,
      "v": 84
    },
    {
      "midi": 48,
      "hit": false,
      "t": 163412.56474166547,
      "d": 446.32607499998994,
      "v": 99
    },
    {
      "midi": 55,
      "hit": false,
      "t": 163412.56474166547,
      "d": 457.7703333333193,
      "v": 94
    },
    {
      "midi": 60,
      "hit": false,
      "t": 163412.56474166547,
      "d": 457.7703333333193,
      "v": 99
    },
    {
      "midi": 64,
      "hit": false,
      "t": 163412.56474166547,
      "d": 457.7703333333193,
      "v": 89
    },
    {
      "midi": 48,
      "hit": false,
      "t": 163870.3350749988,
      "d": 446.32607499998994,
      "v": 93
    },
    {
      "midi": 55,
      "hit": false,
      "t": 163870.3350749988,
      "d": 457.7703333333193,
      "v": 80
    },
    {
      "midi": 60,
      "hit": false,
      "t": 163870.3350749988,
      "d": 457.7703333333193,
      "v": 86
    },
    {
      "midi": 64,
      "hit": false,
      "t": 163870.3350749988,
      "d": 457.7703333333193,
      "v": 77
    },
    {
      "midi": 48,
      "hit": false,
      "t": 164328.1054083321,
      "d": 457.7703333333193,
      "v": 98
    },
    {
      "midi": 55,
      "hit": false,
      "t": 164328.1054083321,
      "d": 457.7703333333193,
      "v": 94
    },
    {
      "midi": 60,
      "hit": false,
      "t": 164328.1054083321,
      "d": 457.7703333333193,
      "v": 98
    },
    {
      "midi": 64,
      "hit": false,
      "t": 164328.1054083321,
      "d": 457.7703333333193,
      "v": 84
    },
    {
      "midi": 48,
      "hit": false,
      "t": 164785.87574166543,
      "d": 457.7703333333193,
      "v": 95
    },
    {
      "midi": 55,
      "hit": false,
      "t": 164785.87574166543,
      "d": 457.7703333333193,
      "v": 93
    },
    {
      "midi": 60,
      "hit": false,
      "t": 164785.87574166543,
      "d": 457.7703333333193,
      "v": 89
    },
    {
      "midi": 64,
      "hit": false,
      "t": 164785.87574166543,
      "d": 457.7703333333193,
      "v": 78
    },
    {
      "midi": 60,
      "hit": false,
      "t": 165243.64607499875,
      "d": 457.7703333333193,
      "v": 84
    },
    {
      "midi": 64,
      "hit": false,
      "t": 165243.64607499875,
      "d": 457.7703333333193,
      "v": 77
    },
    {
      "midi": 55,
      "hit": false,
      "t": 165255.09033333207,
      "d": 446.32607499998994,
      "v": 89
    },
    {
      "midi": 48,
      "hit": false,
      "t": 165266.5345916654,
      "d": 434.8818166666606,
      "v": 98
    },
    {
      "midi": 48,
      "hit": false,
      "t": 165701.41640833206,
      "d": 446.32607499998994,
      "v": 98
    },
    {
      "midi": 55,
      "hit": false,
      "t": 165701.41640833206,
      "d": 457.7703333333193,
      "v": 89
    },
    {
      "midi": 60,
      "hit": false,
      "t": 165701.41640833206,
      "d": 457.7703333333193,
      "v": 89
    },
    {
      "midi": 64,
      "hit": false,
      "t": 165701.41640833206,
      "d": 457.7703333333193,
      "v": 80
    },
    {
      "midi": 48,
      "hit": false,
      "t": 166159.18674166538,
      "d": 457.7703333333193,
      "v": 94
    },
    {
      "midi": 60,
      "hit": false,
      "t": 166159.18674166538,
      "d": 457.7703333333193,
      "v": 78
    },
    {
      "midi": 55,
      "hit": false,
      "t": 166170.6309999987,
      "d": 446.32607499998994,
      "v": 84
    },
    {
      "midi": 64,
      "hit": false,
      "t": 166170.6309999987,
      "d": 446.32607499998994,
      "v": 72
    },
    {
      "midi": 60,
      "hit": false,
      "t": 166616.9570749987,
      "d": 457.7703333333193,
      "v": 80
    },
    {
      "midi": 55,
      "hit": false,
      "t": 166628.40133333203,
      "d": 446.32607499998994,
      "v": 76
    },
    {
      "midi": 64,
      "hit": false,
      "t": 166628.40133333203,
      "d": 446.32607499998994,
      "v": 71
    },
    {
      "midi": 48,
      "hit": false,
      "t": 166639.84559166536,
      "d": 434.8818166666606,
      "v": 95
    },
    {
      "midi": 48,
      "hit": false,
      "t": 167074.72740833202,
      "d": 446.32607499998994,
      "v": 94
    },
    {
      "midi": 56,
      "hit": false,
      "t": 167074.72740833202,
      "d": 457.7703333333193,
      "v": 55
    },
    {
      "midi": 60,
      "hit": false,
      "t": 167074.72740833202,
      "d": 457.7703333333193,
      "v": 82
    },
    {
      "midi": 64,
      "hit": false,
      "t": 167074.72740833202,
      "d": 457.7703333333193,
      "v": 73
    },
    {
      "midi": 41,
      "hit": false,
      "t": 167555.386258332,
      "d": 434.8818166666606,
      "v": 105
    },
    {
      "midi": 57,
      "hit": false,
      "t": 167555.386258332,
      "d": 434.8818166666606,
      "v": 89
    },
    {
      "midi": 60,
      "hit": false,
      "t": 167555.386258332,
      "d": 434.8818166666606,
      "v": 101
    },
    {
      "midi": 65,
      "hit": false,
      "t": 167555.386258332,
      "d": 434.8818166666606,
      "v": 85
    },
    {
      "midi": 60,
      "hit": false,
      "t": 168001.712333332,
      "d": 446.32607499998994,
      "v": 73
    },
    {
      "midi": 41,
      "hit": false,
      "t": 168013.15659166532,
      "d": 423.43755833333125,
      "v": 85
    },
    {
      "midi": 65,
      "hit": false,
      "t": 168013.15659166532,
      "d": 434.8818166666606,
      "v": 64
    },
    {
      "midi": 57,
      "hit": false,
      "t": 168448.03840833198,
      "d": 457.7703333333193,
      "v": 76
    },
    {
      "midi": 60,
      "hit": false,
      "t": 168448.03840833198,
      "d": 457.7703333333193,
      "v": 77
    },
    {
      "midi": 65,
      "hit": false,
      "t": 168448.03840833198,
      "d": 457.7703333333193,
      "v": 72
    },
    {
      "midi": 41,
      "hit": false,
      "t": 168470.92692499864,
      "d": 423.43755833333125,
      "v": 95
    },
    {
      "midi": 41,
      "hit": false,
      "t": 168917.25299999863,
      "d": 434.8818166666606,
      "v": 99
    },
    {
      "midi": 57,
      "hit": false,
      "t": 168917.25299999863,
      "d": 446.32607499998994,
      "v": 93
    },
    {
      "midi": 60,
      "hit": false,
      "t": 168917.25299999863,
      "d": 446.32607499998994,
      "v": 86
    },
    {
      "midi": 65,
      "hit": false,
      "t": 168917.25299999863,
      "d": 446.32607499998994,
      "v": 81
    },
    {
      "midi": 41,
      "hit": false,
      "t": 169363.57907499862,
      "d": 446.32607499998994,
      "v": 90
    },
    {
      "midi": 60,
      "hit": false,
      "t": 169363.57907499862,
      "d": 457.7703333333193,
      "v": 85
    },
    {
      "midi": 57,
      "hit": false,
      "t": 169375.02333333195,
      "d": 446.32607499998994,
      "v": 89
    },
    {
      "midi": 65,
      "hit": false,
      "t": 169375.02333333195,
      "d": 446.32607499998994,
      "v": 76
    },
    {
      "midi": 41,
      "hit": false,
      "t": 169821.34940833194,
      "d": 457.7703333333193,
      "v": 94
    },
    {
      "midi": 57,
      "hit": false,
      "t": 169832.79366666527,
      "d": 446.32607499998994,
      "v": 93
    },
    {
      "midi": 60,
      "hit": false,
      "t": 169832.79366666527,
      "d": 446.32607499998994,
      "v": 93
    },
    {
      "midi": 65,
      "hit": false,
      "t": 169832.79366666527,
      "d": 446.32607499998994,
      "v": 78
    },
    {
      "midi": 41,
      "hit": false,
      "t": 170279.11974166526,
      "d": 446.32607499998994,
      "v": 99
    },
    {
      "midi": 57,
      "hit": false,
      "t": 170290.5639999986,
      "d": 446.32607499998994,
      "v": 95
    },
    {
      "midi": 60,
      "hit": false,
      "t": 170290.5639999986,
      "d": 446.32607499998994,
      "v": 90
    },
    {
      "midi": 65,
      "hit": false,
      "t": 170290.5639999986,
      "d": 446.32607499998994,
      "v": 80
    },
    {
      "midi": 60,
      "hit": false,
      "t": 170736.89007499858,
      "d": 457.7703333333193,
      "v": 76
    },
    {
      "midi": 41,
      "hit": false,
      "t": 170748.3343333319,
      "d": 434.8818166666606,
      "v": 89
    },
    {
      "midi": 57,
      "hit": false,
      "t": 170748.3343333319,
      "d": 446.32607499998994,
      "v": 73
    },
    {
      "midi": 65,
      "hit": false,
      "t": 170748.3343333319,
      "d": 446.32607499998994,
      "v": 69
    },
    {
      "midi": 41,
      "hit": false,
      "t": 171194.6604083319,
      "d": 457.7703333333193,
      "v": 82
    },
    {
      "midi": 57,
      "hit": false,
      "t": 171194.6604083319,
      "d": 457.7703333333193,
      "v": 85
    },
    {
      "midi": 60,
      "hit": false,
      "t": 171194.6604083319,
      "d": 457.7703333333193,
      "v": 82
    },
    {
      "midi": 65,
      "hit": false,
      "t": 171194.6604083319,
      "d": 457.7703333333193,
      "v": 76
    },
    {
      "midi": 60,
      "hit": false,
      "t": 171652.43074166522,
      "d": 457.7703333333193,
      "v": 82
    },
    {
      "midi": 41,
      "hit": false,
      "t": 171663.87499999854,
      "d": 446.32607499998994,
      "v": 93
    },
    {
      "midi": 57,
      "hit": false,
      "t": 171663.87499999854,
      "d": 446.32607499998994,
      "v": 93
    },
    {
      "midi": 65,
      "hit": false,
      "t": 171663.87499999854,
      "d": 446.32607499998994,
      "v": 80
    },
    {
      "midi": 60,
      "hit": false,
      "t": 172110.20107499853,
      "d": 457.7703333333193,
      "v": 81
    },
    {
      "midi": 57,
      "hit": false,
      "t": 172121.64533333186,
      "d": 446.32607499998994,
      "v": 85
    },
    {
      "midi": 65,
      "hit": false,
      "t": 172121.64533333186,
      "d": 446.32607499998994,
      "v": 73
    },
    {
      "midi": 41,
      "hit": false,
      "t": 172133.0895916652,
      "d": 423.43755833333125,
      "v": 84
    },
    {
      "midi": 57,
      "hit": false,
      "t": 172567.97140833185,
      "d": 457.7703333333193,
      "v": 89
    },
    {
      "midi": 60,
      "hit": false,
      "t": 172567.97140833185,
      "d": 457.7703333333193,
      "v": 84
    },
    {
      "midi": 65,
      "hit": false,
      "t": 172567.97140833185,
      "d": 457.7703333333193,
      "v": 77
    },
    {
      "midi": 41,
      "hit": false,
      "t": 172579.41566666518,
      "d": 457.7703333333193,
      "v": 110
    },
    {
      "midi": 58,
      "hit": false,
      "t": 173025.74174166517,
      "d": 457.7703333333193,
      "v": 89
    },
    {
      "midi": 62,
      "hit": false,
      "t": 173025.74174166517,
      "d": 457.7703333333193,
      "v": 89
    },
    {
      "midi": 65,
      "hit": false,
      "t": 173025.74174166517,
      "d": 457.7703333333193,
      "v": 82
    },
    {
      "midi": 46,
      "hit": false,
      "t": 173048.63025833183,
      "d": 434.8818166666606,
      "v": 99
    },
    {
      "midi": 58,
      "hit": false,
      "t": 173483.5120749985,
      "d": 457.7703333333193,
      "v": 68
    },
    {
      "midi": 62,
      "hit": false,
      "t": 173483.5120749985,
      "d": 457.7703333333193,
      "v": 81
    },
    {
      "midi": 65,
      "hit": false,
      "t": 173483.5120749985,
      "d": 457.7703333333193,
      "v": 73
    },
    {
      "midi": 46,
      "hit": false,
      "t": 173506.40059166515,
      "d": 423.43755833333125,
      "v": 89
    },
    {
      "midi": 58,
      "hit": false,
      "t": 173941.2824083318,
      "d": 457.7703333333193,
      "v": 76
    },
    {
      "midi": 62,
      "hit": false,
      "t": 173941.2824083318,
      "d": 457.7703333333193,
      "v": 86
    },
    {
      "midi": 65,
      "hit": false,
      "t": 173941.2824083318,
      "d": 457.7703333333193,
      "v": 77
    },
    {
      "midi": 46,
      "hit": false,
      "t": 173952.72666666514,
      "d": 434.8818166666606,
      "v": 83
    },
    {
      "midi": 46,
      "hit": false,
      "t": 174399.05274166513,
      "d": 446.32607499998994,
      "v": 91
    },
    {
      "midi": 58,
      "hit": false,
      "t": 174399.05274166513,
      "d": 457.7703333333193,
      "v": 85
    },
    {
      "midi": 62,
      "hit": false,
      "t": 174399.05274166513,
      "d": 457.7703333333193,
      "v": 98
    },
    {
      "midi": 65,
      "hit": false,
      "t": 174399.05274166513,
      "d": 457.7703333333193,
      "v": 86
    },
    {
      "midi": 46,
      "hit": false,
      "t": 174856.82307499845,
      "d": 446.32607499998994,
      "v": 78
    },
    {
      "midi": 58,
      "hit": false,
      "t": 174856.82307499845,
      "d": 457.7703333333193,
      "v": 72
    },
    {
      "midi": 62,
      "hit": false,
      "t": 174856.82307499845,
      "d": 457.7703333333193,
      "v": 80
    },
    {
      "midi": 65,
      "hit": false,
      "t": 174856.82307499845,
      "d": 457.7703333333193,
      "v": 68
    },
    {
      "midi": 46,
      "hit": false,
      "t": 175314.59340833177,
      "d": 446.32607499998994,
      "v": 93
    },
    {
      "midi": 58,
      "hit": false,
      "t": 175314.59340833177,
      "d": 457.7703333333193,
      "v": 85
    },
    {
      "midi": 62,
      "hit": false,
      "t": 175314.59340833177,
      "d": 457.7703333333193,
      "v": 94
    },
    {
      "midi": 65,
      "hit": false,
      "t": 175314.59340833177,
      "d": 457.7703333333193,
      "v": 78
    },
    {
      "midi": 46,
      "hit": false,
      "t": 175772.3637416651,
      "d": 446.32607499998994,
      "v": 95
    },
    {
      "midi": 58,
      "hit": false,
      "t": 175772.3637416651,
      "d": 457.7703333333193,
      "v": 85
    },
    {
      "midi": 62,
      "hit": false,
      "t": 175772.3637416651,
      "d": 457.7703333333193,
      "v": 94
    },
    {
      "midi": 65,
      "hit": false,
      "t": 175772.3637416651,
      "d": 457.7703333333193,
      "v": 80
    },
    {
      "midi": 46,
      "hit": false,
      "t": 176230.1340749984,
      "d": 446.32607499998994,
      "v": 83
    },
    {
      "midi": 58,
      "hit": false,
      "t": 176230.1340749984,
      "d": 457.7703333333193,
      "v": 63
    },
    {
      "midi": 62,
      "hit": false,
      "t": 176230.1340749984,
      "d": 457.7703333333193,
      "v": 77
    },
    {
      "midi": 65,
      "hit": false,
      "t": 176230.1340749984,
      "d": 457.7703333333193,
      "v": 68
    },
    {
      "midi": 46,
      "hit": false,
      "t": 176687.90440833173,
      "d": 446.32607499998994,
      "v": 101
    },
    {
      "midi": 58,
      "hit": false,
      "t": 176687.90440833173,
      "d": 457.7703333333193,
      "v": 80
    },
    {
      "midi": 62,
      "hit": false,
      "t": 176687.90440833173,
      "d": 457.7703333333193,
      "v": 85
    },
    {
      "midi": 65,
      "hit": false,
      "t": 176687.90440833173,
      "d": 457.7703333333193,
      "v": 70
    },
    {
      "midi": 58,
      "hit": false,
      "t": 177145.67474166505,
      "d": 457.7703333333193,
      "v": 79
    },
    {
      "midi": 62,
      "hit": false,
      "t": 177145.67474166505,
      "d": 457.7703333333193,
      "v": 90
    },
    {
      "midi": 65,
      "hit": false,
      "t": 177145.67474166505,
      "d": 457.7703333333193,
      "v": 78
    },
    {
      "midi": 46,
      "hit": false,
      "t": 177157.11899999838,
      "d": 434.8818166666606,
      "v": 89
    },
    {
      "midi": 58,
      "hit": false,
      "t": 177603.44507499837,
      "d": 457.7703333333193,
      "v": 67
    },
    {
      "midi": 62,
      "hit": false,
      "t": 177603.44507499837,
      "d": 457.7703333333193,
      "v": 82
    },
    {
      "midi": 65,
      "hit": false,
      "t": 177603.44507499837,
      "d": 457.7703333333193,
      "v": 66
    },
    {
      "midi": 46,
      "hit": false,
      "t": 177614.8893333317,
      "d": 434.8818166666606,
      "v": 89
    },
    {
      "midi": 58,
      "hit": false,
      "t": 178061.2154083317,
      "d": 457.7703333333193,
      "v": 80
    },
    {
      "midi": 62,
      "hit": false,
      "t": 178061.2154083317,
      "d": 457.7703333333193,
      "v": 89
    },
    {
      "midi": 65,
      "hit": false,
      "t": 178061.2154083317,
      "d": 457.7703333333193,
      "v": 84
    },
    {
      "midi": 55,
      "hit": false,
      "t": 178530.42999999833,
      "d": 434.8818166666606,
      "v": 85
    },
    {
      "midi": 58,
      "hit": false,
      "t": 178530.42999999833,
      "d": 434.8818166666606,
      "v": 91
    },
    {
      "midi": 63,
      "hit": false,
      "t": 178530.42999999833,
      "d": 446.32607499998994,
      "v": 74
    },
    {
      "midi": 39,
      "hit": false,
      "t": 178541.87425833166,
      "d": 423.43755833333125,
      "v": 117
    },
    {
      "midi": 39,
      "hit": false,
      "t": 178999.64459166498,
      "d": 423.43755833333125,
      "v": 82
    },
    {
      "midi": 55,
      "hit": false,
      "t": 178999.64459166498,
      "d": 423.43755833333125,
      "v": 73
    },
    {
      "midi": 58,
      "hit": false,
      "t": 178999.64459166498,
      "d": 423.43755833333125,
      "v": 66
    },
    {
      "midi": 63,
      "hit": false,
      "t": 178999.64459166498,
      "d": 434.8818166666606,
      "v": 54
    },
    {
      "midi": 39,
      "hit": false,
      "t": 179457.4149249983,
      "d": 423.43755833333125,
      "v": 82
    },
    {
      "midi": 55,
      "hit": false,
      "t": 179457.4149249983,
      "d": 423.43755833333125,
      "v": 77
    },
    {
      "midi": 58,
      "hit": false,
      "t": 179457.4149249983,
      "d": 423.43755833333125,
      "v": 71
    },
    {
      "midi": 63,
      "hit": false,
      "t": 179457.4149249983,
      "d": 423.43755833333125,
      "v": 61
    },
    {
      "midi": 55,
      "hit": false,
      "t": 179915.18525833162,
      "d": 423.43755833333125,
      "v": 78
    },
    {
      "midi": 58,
      "hit": false,
      "t": 179915.18525833162,
      "d": 423.43755833333125,
      "v": 78
    },
    {
      "midi": 63,
      "hit": false,
      "t": 179915.18525833162,
      "d": 423.43755833333125,
      "v": 63
    },
    {
      "midi": 39,
      "hit": false,
      "t": 179915.18525833162,
      "d": 434.8818166666606,
      "v": 99
    },
    {
      "midi": 58,
      "hit": false,
      "t": 180361.5113333316,
      "d": 434.8818166666606,
      "v": 59
    },
    {
      "midi": 39,
      "hit": false,
      "t": 180372.95559166494,
      "d": 423.43755833333125,
      "v": 79
    },
    {
      "midi": 55,
      "hit": false,
      "t": 180372.95559166494,
      "d": 423.43755833333125,
      "v": 62
    },
    {
      "midi": 63,
      "hit": false,
      "t": 180372.95559166494,
      "d": 423.43755833333125,
      "v": 48
    },
    {
      "midi": 55,
      "hit": false,
      "t": 180807.8374083316,
      "d": 446.32607499998994,
      "v": 65
    },
    {
      "midi": 58,
      "hit": false,
      "t": 180807.8374083316,
      "d": 446.32607499998994,
      "v": 57
    },
    {
      "midi": 63,
      "hit": false,
      "t": 180807.8374083316,
      "d": 446.32607499998994,
      "v": 65
    },
    {
      "midi": 39,
      "hit": false,
      "t": 180819.28166666493,
      "d": 434.8818166666606,
      "v": 82
    },
    {
      "midi": 44,
      "hit": false,
      "t": 181288.49625833158,
      "d": 423.43755833333125,
      "v": 95
    },
    {
      "midi": 56,
      "hit": false,
      "t": 181288.49625833158,
      "d": 423.43755833333125,
      "v": 82
    },
    {
      "midi": 59,
      "hit": false,
      "t": 181288.49625833158,
      "d": 423.43755833333125,
      "v": 101
    },
    {
      "midi": 63,
      "hit": false,
      "t": 181288.49625833158,
      "d": 434.8818166666606,
      "v": 70
    },
    {
      "midi": 44,
      "hit": false,
      "t": 181746.2665916649,
      "d": 423.43755833333125,
      "v": 83
    },
    {
      "midi": 56,
      "hit": false,
      "t": 181746.2665916649,
      "d": 423.43755833333125,
      "v": 69
    },
    {
      "midi": 59,
      "hit": false,
      "t": 181746.2665916649,
      "d": 423.43755833333125,
      "v": 78
    },
    {
      "midi": 63,
      "hit": false,
      "t": 181746.2665916649,
      "d": 423.43755833333125,
      "v": 50
    },
    {
      "midi": 59,
      "hit": false,
      "t": 182192.5926666649,
      "d": 434.8818166666606,
      "v": 76
    },
    {
      "midi": 56,
      "hit": false,
      "t": 182204.03692499822,
      "d": 423.43755833333125,
      "v": 68
    },
    {
      "midi": 63,
      "hit": false,
      "t": 182204.03692499822,
      "d": 423.43755833333125,
      "v": 43
    },
    {
      "midi": 44,
      "hit": false,
      "t": 182204.03692499822,
      "d": 434.8818166666606,
      "v": 89
    },
    {
      "midi": 59,
      "hit": false,
      "t": 182650.3629999982,
      "d": 434.8818166666606,
      "v": 77
    },
    {
      "midi": 63,
      "hit": false,
      "t": 182650.3629999982,
      "d": 434.8818166666606,
      "v": 51
    },
    {
      "midi": 56,
      "hit": false,
      "t": 182661.80725833154,
      "d": 423.43755833333125,
      "v": 72
    },
    {
      "midi": 44,
      "hit": false,
      "t": 182661.80725833154,
      "d": 434.8818166666606,
      "v": 93
    },
    {
      "midi": 56,
      "hit": false,
      "t": 183096.6890749982,
      "d": 446.32607499998994,
      "v": 77
    },
    {
      "midi": 59,
      "hit": false,
      "t": 183096.6890749982,
      "d": 446.32607499998994,
      "v": 86
    },
    {
      "midi": 63,
      "hit": false,
      "t": 183096.6890749982,
      "d": 446.32607499998994,
      "v": 56
    },
    {
      "midi": 44,
      "hit": false,
      "t": 183119.57759166486,
      "d": 423.43755833333125,
      "v": 85
    },
    {
      "midi": 56,
      "hit": false,
      "t": 183554.45940833152,
      "d": 446.32607499998994,
      "v": 59
    },
    {
      "midi": 59,
      "hit": false,
      "t": 183554.45940833152,
      "d": 446.32607499998994,
      "v": 65
    },
    {
      "midi": 63,
      "hit": false,
      "t": 183554.45940833152,
      "d": 446.32607499998994,
      "v": 43
    },
    {
      "midi": 44,
      "hit": false,
      "t": 183577.34792499818,
      "d": 434.8818166666606,
      "v": 93
    },
    {
      "midi": 63,
      "hit": false,
      "t": 184012.22974166484,
      "d": 457.7703333333193,
      "v": 78
    },
    {
      "midi": 55,
      "hit": false,
      "t": 184023.67399999817,
      "d": 446.32607499998994,
      "v": 101
    },
    {
      "midi": 58,
      "hit": false,
      "t": 184023.67399999817,
      "d": 446.32607499998994,
      "v": 93
    },
    {
      "midi": 39,
      "hit": false,
      "t": 184035.1182583315,
      "d": 434.8818166666606,
      "v": 103
    },
    {
      "midi": 55,
      "hit": false,
      "t": 189516.91799999814,
      "d": 434.8818166666606,
      "v": 70
    },
    {
      "midi": 58,
      "hit": false,
      "t": 189516.91799999814,
      "d": 446.32607499998994,
      "v": 70
    },
    {
      "midi": 63,
      "hit": false,
      "t": 189516.91799999814,
      "d": 446.32607499998994,
      "v": 70
    },
    {
      "midi": 39,
      "hit": false,
      "t": 189528.36225833147,
      "d": 434.8818166666606,
      "v": 70
    },
    {
      "midi": 39,
      "hit": false,
      "t": 189986.1325916648,
      "d": 423.43755833333125,
      "v": 70
    },
    {
      "midi": 55,
      "hit": false,
      "t": 189986.1325916648,
      "d": 423.43755833333125,
      "v": 70
    },
    {
      "midi": 58,
      "hit": false,
      "t": 189986.1325916648,
      "d": 434.8818166666606,
      "v": 70
    },
    {
      "midi": 63,
      "hit": false,
      "t": 189986.1325916648,
      "d": 434.8818166666606,
      "v": 70
    },
    {
      "midi": 39,
      "hit": false,
      "t": 190421.01440833145,
      "d": 446.32607499998994,
      "v": 70
    },
    {
      "midi": 58,
      "hit": false,
      "t": 190421.01440833145,
      "d": 457.7703333333193,
      "v": 70
    },
    {
      "midi": 63,
      "hit": false,
      "t": 190421.01440833145,
      "d": 457.7703333333193,
      "v": 70
    },
    {
      "midi": 55,
      "hit": false,
      "t": 190432.45866666478,
      "d": 446.32607499998994,
      "v": 70
    },
    {
      "midi": 55,
      "hit": false,
      "t": 190878.78474166477,
      "d": 446.32607499998994,
      "v": 70
    },
    {
      "midi": 58,
      "hit": false,
      "t": 190878.78474166477,
      "d": 446.32607499998994,
      "v": 70
    },
    {
      "midi": 63,
      "hit": false,
      "t": 190878.78474166477,
      "d": 457.7703333333193,
      "v": 70
    },
    {
      "midi": 39,
      "hit": false,
      "t": 190901.67325833143,
      "d": 434.8818166666606,
      "v": 70
    },
    {
      "midi": 55,
      "hit": false,
      "t": 191336.5550749981,
      "d": 446.32607499998994,
      "v": 70
    },
    {
      "midi": 58,
      "hit": false,
      "t": 191336.5550749981,
      "d": 457.7703333333193,
      "v": 70
    },
    {
      "midi": 63,
      "hit": false,
      "t": 191336.5550749981,
      "d": 457.7703333333193,
      "v": 70
    },
    {
      "midi": 39,
      "hit": false,
      "t": 191359.44359166475,
      "d": 423.43755833333125,
      "v": 70
    },
    {
      "midi": 39,
      "hit": false,
      "t": 191794.3254083314,
      "d": 446.32607499998994,
      "v": 70
    },
    {
      "midi": 55,
      "hit": false,
      "t": 191794.3254083314,
      "d": 457.7703333333193,
      "v": 70
    },
    {
      "midi": 58,
      "hit": false,
      "t": 191794.3254083314,
      "d": 457.7703333333193,
      "v": 70
    },
    {
      "midi": 63,
      "hit": false,
      "t": 191794.3254083314,
      "d": 457.7703333333193,
      "v": 70
    },
    {
      "midi": 58,
      "hit": false,
      "t": 192263.53999999806,
      "d": 446.32607499998994,
      "v": 70
    },
    {
      "midi": 39,
      "hit": false,
      "t": 192274.9842583314,
      "d": 423.43755833333125,
      "v": 70
    },
    {
      "midi": 55,
      "hit": false,
      "t": 192274.9842583314,
      "d": 434.8818166666606,
      "v": 70
    },
    {
      "midi": 63,
      "hit": false,
      "t": 192274.9842583314,
      "d": 434.8818166666606,
      "v": 70
    },
    {
      "midi": 39,
      "hit": false,
      "t": 192732.7545916647,
      "d": 423.43755833333125,
      "v": 70
    },
    {
      "midi": 55,
      "hit": false,
      "t": 192732.7545916647,
      "d": 434.8818166666606,
      "v": 70
    },
    {
      "midi": 58,
      "hit": false,
      "t": 192732.7545916647,
      "d": 434.8818166666606,
      "v": 70
    },
    {
      "midi": 63,
      "hit": false,
      "t": 192732.7545916647,
      "d": 434.8818166666606,
      "v": 70
    },
    {
      "midi": 58,
      "hit": false,
      "t": 193167.63640833137,
      "d": 457.7703333333193,
      "v": 70
    },
    {
      "midi": 55,
      "hit": false,
      "t": 193190.52492499803,
      "d": 423.43755833333125,
      "v": 70
    },
    {
      "midi": 39,
      "hit": false,
      "t": 193190.52492499803,
      "d": 434.8818166666606,
      "v": 70
    },
    {
      "midi": 63,
      "hit": false,
      "t": 193190.52492499803,
      "d": 434.8818166666606,
      "v": 70
    },
    {
      "midi": 39,
      "hit": false,
      "t": 193648.29525833135,
      "d": 434.8818166666606,
      "v": 71
    },
    {
      "midi": 55,
      "hit": false,
      "t": 193648.29525833135,
      "d": 434.8818166666606,
      "v": 71
    },
    {
      "midi": 58,
      "hit": false,
      "t": 193648.29525833135,
      "d": 434.8818166666606,
      "v": 71
    },
    {
      "midi": 63,
      "hit": false,
      "t": 193648.29525833135,
      "d": 434.8818166666606,
      "v": 71
    },
    {
      "midi": 39,
      "hit": false,
      "t": 194106.06559166466,
      "d": 423.43755833333125,
      "v": 71
    },
    {
      "midi": 55,
      "hit": false,
      "t": 194106.06559166466,
      "d": 423.43755833333125,
      "v": 71
    },
    {
      "midi": 58,
      "hit": false,
      "t": 194106.06559166466,
      "d": 434.8818166666606,
      "v": 71
    },
    {
      "midi": 63,
      "hit": false,
      "t": 194106.06559166466,
      "d": 434.8818166666606,
      "v": 71
    },
    {
      "midi": 58,
      "hit": false,
      "t": 194552.39166666465,
      "d": 446.32607499998994,
      "v": 71
    },
    {
      "midi": 39,
      "hit": false,
      "t": 194563.83592499798,
      "d": 423.43755833333125,
      "v": 71
    },
    {
      "midi": 55,
      "hit": false,
      "t": 194563.83592499798,
      "d": 423.43755833333125,
      "v": 71
    },
    {
      "midi": 63,
      "hit": false,
      "t": 194563.83592499798,
      "d": 434.8818166666606,
      "v": 71
    },
    {
      "midi": 39,
      "hit": false,
      "t": 195021.6062583313,
      "d": 423.43755833333125,
      "v": 71
    },
    {
      "midi": 55,
      "hit": false,
      "t": 195021.6062583313,
      "d": 423.43755833333125,
      "v": 71
    },
    {
      "midi": 58,
      "hit": false,
      "t": 195021.6062583313,
      "d": 434.8818166666606,
      "v": 71
    },
    {
      "midi": 63,
      "hit": false,
      "t": 195021.6062583313,
      "d": 434.8818166666606,
      "v": 71
    },
    {
      "midi": 39,
      "hit": false,
      "t": 195479.37659166462,
      "d": 423.43755833333125,
      "v": 71
    },
    {
      "midi": 55,
      "hit": false,
      "t": 195479.37659166462,
      "d": 423.43755833333125,
      "v": 71
    },
    {
      "midi": 58,
      "hit": false,
      "t": 195479.37659166462,
      "d": 434.8818166666606,
      "v": 71
    },
    {
      "midi": 63,
      "hit": false,
      "t": 195479.37659166462,
      "d": 434.8818166666606,
      "v": 71
    },
    {
      "midi": 39,
      "hit": false,
      "t": 195914.25840833128,
      "d": 446.32607499998994,
      "v": 71
    },
    {
      "midi": 58,
      "hit": false,
      "t": 195925.7026666646,
      "d": 446.32607499998994,
      "v": 71
    },
    {
      "midi": 55,
      "hit": false,
      "t": 195937.14692499794,
      "d": 423.43755833333125,
      "v": 71
    },
    {
      "midi": 63,
      "hit": false,
      "t": 195937.14692499794,
      "d": 434.8818166666606,
      "v": 71
    },
    {
      "midi": 58,
      "hit": false,
      "t": 196383.47299999793,
      "d": 446.32607499998994,
      "v": 71
    },
    {
      "midi": 55,
      "hit": false,
      "t": 196394.91725833126,
      "d": 423.43755833333125,
      "v": 71
    },
    {
      "midi": 39,
      "hit": false,
      "t": 196394.91725833126,
      "d": 434.8818166666606,
      "v": 71
    },
    {
      "midi": 63,
      "hit": false,
      "t": 196394.91725833126,
      "d": 434.8818166666606,
      "v": 71
    },
    {
      "midi": 39,
      "hit": false,
      "t": 196852.68759166458,
      "d": 423.43755833333125,
      "v": 71
    },
    {
      "midi": 55,
      "hit": false,
      "t": 196852.68759166458,
      "d": 423.43755833333125,
      "v": 71
    },
    {
      "midi": 58,
      "hit": false,
      "t": 196852.68759166458,
      "d": 434.8818166666606,
      "v": 71
    },
    {
      "midi": 63,
      "hit": false,
      "t": 196852.68759166458,
      "d": 434.8818166666606,
      "v": 71
    },
    {
      "midi": 39,
      "hit": false,
      "t": 197310.4579249979,
      "d": 423.43755833333125,
      "v": 71
    },
    {
      "midi": 55,
      "hit": false,
      "t": 197310.4579249979,
      "d": 423.43755833333125,
      "v": 71
    },
    {
      "midi": 58,
      "hit": false,
      "t": 197310.4579249979,
      "d": 434.8818166666606,
      "v": 71
    },
    {
      "midi": 63,
      "hit": false,
      "t": 197310.4579249979,
      "d": 434.8818166666606,
      "v": 71
    },
    {
      "midi": 39,
      "hit": false,
      "t": 197768.22825833122,
      "d": 423.43755833333125,
      "v": 71
    },
    {
      "midi": 55,
      "hit": false,
      "t": 197768.22825833122,
      "d": 423.43755833333125,
      "v": 71
    },
    {
      "midi": 58,
      "hit": false,
      "t": 197768.22825833122,
      "d": 434.8818166666606,
      "v": 71
    },
    {
      "midi": 63,
      "hit": false,
      "t": 197768.22825833122,
      "d": 434.8818166666606,
      "v": 71
    },
    {
      "midi": 58,
      "hit": false,
      "t": 198214.5543333312,
      "d": 446.32607499998994,
      "v": 71
    },
    {
      "midi": 39,
      "hit": false,
      "t": 198225.99859166454,
      "d": 423.43755833333125,
      "v": 71
    },
    {
      "midi": 55,
      "hit": false,
      "t": 198225.99859166454,
      "d": 423.43755833333125,
      "v": 71
    },
    {
      "midi": 63,
      "hit": false,
      "t": 198225.99859166454,
      "d": 423.43755833333125,
      "v": 71
    },
    {
      "midi": 58,
      "hit": false,
      "t": 198660.8804083312,
      "d": 446.32607499998994,
      "v": 71
    },
    {
      "midi": 39,
      "hit": false,
      "t": 198672.32466666453,
      "d": 434.8818166666606,
      "v": 71
    },
    {
      "midi": 55,
      "hit": false,
      "t": 198672.32466666453,
      "d": 434.8818166666606,
      "v": 71
    },
    {
      "midi": 63,
      "hit": false,
      "t": 198683.76892499786,
      "d": 434.8818166666606,
      "v": 71
    },
    {
      "midi": 58,
      "hit": false,
      "t": 199118.65074166452,
      "d": 446.32607499998994,
      "v": 71
    },
    {
      "midi": 39,
      "hit": false,
      "t": 199130.09499999785,
      "d": 434.8818166666606,
      "v": 71
    },
    {
      "midi": 55,
      "hit": false,
      "t": 199130.09499999785,
      "d": 434.8818166666606,
      "v": 71
    },
    {
      "midi": 63,
      "hit": false,
      "t": 199130.09499999785,
      "d": 434.8818166666606,
      "v": 71
    },
    {
      "midi": 55,
      "hit": false,
      "t": 199587.86533333117,
      "d": 434.8818166666606,
      "v": 71
    },
    {
      "midi": 58,
      "hit": false,
      "t": 199587.86533333117,
      "d": 434.8818166666606,
      "v": 71
    },
    {
      "midi": 39,
      "hit": false,
      "t": 199599.3095916645,
      "d": 423.43755833333125,
      "v": 71
    },
    {
      "midi": 63,
      "hit": false,
      "t": 199599.3095916645,
      "d": 423.43755833333125,
      "v": 71
    },
    {
      "midi": 39,
      "hit": false,
      "t": 200034.19140833116,
      "d": 446.32607499998994,
      "v": 71
    },
    {
      "midi": 55,
      "hit": false,
      "t": 200034.19140833116,
      "d": 446.32607499998994,
      "v": 71
    },
    {
      "midi": 58,
      "hit": false,
      "t": 200034.19140833116,
      "d": 446.32607499998994,
      "v": 71
    },
    {
      "midi": 63,
      "hit": false,
      "t": 200034.19140833116,
      "d": 446.32607499998994,
      "v": 71
    },
    {
      "midi": 43,
      "hit": false,
      "t": 200514.85025833113,
      "d": 423.43755833333125,
      "v": 71
    },
    {
      "midi": 55,
      "hit": false,
      "t": 200514.85025833113,
      "d": 423.43755833333125,
      "v": 71
    },
    {
      "midi": 59,
      "hit": false,
      "t": 200514.85025833113,
      "d": 423.43755833333125,
      "v": 71
    },
    {
      "midi": 62,
      "hit": false,
      "t": 200514.85025833113,
      "d": 434.8818166666606,
      "v": 71
    },
    {
      "midi": 43,
      "hit": false,
      "t": 200949.7320749978,
      "d": 446.32607499998994,
      "v": 71
    },
    {
      "midi": 55,
      "hit": false,
      "t": 200972.62059166445,
      "d": 423.43755833333125,
      "v": 71
    },
    {
      "midi": 59,
      "hit": false,
      "t": 200972.62059166445,
      "d": 423.43755833333125,
      "v": 71
    },
    {
      "midi": 62,
      "hit": false,
      "t": 200972.62059166445,
      "d": 423.43755833333125,
      "v": 71
    },
    {
      "midi": 43,
      "hit": false,
      "t": 201407.50240833111,
      "d": 446.32607499998994,
      "v": 71
    },
    {
      "midi": 55,
      "hit": false,
      "t": 201430.39092499777,
      "d": 423.43755833333125,
      "v": 71
    },
    {
      "midi": 59,
      "hit": false,
      "t": 201430.39092499777,
      "d": 423.43755833333125,
      "v": 71
    },
    {
      "midi": 62,
      "hit": false,
      "t": 201430.39092499777,
      "d": 423.43755833333125,
      "v": 71
    },
    {
      "midi": 43,
      "hit": false,
      "t": 201865.27274166443,
      "d": 446.32607499998994,
      "v": 71
    },
    {
      "midi": 55,
      "hit": false,
      "t": 201888.1612583311,
      "d": 423.43755833333125,
      "v": 71
    },
    {
      "midi": 59,
      "hit": false,
      "t": 201888.1612583311,
      "d": 423.43755833333125,
      "v": 71
    },
    {
      "midi": 62,
      "hit": false,
      "t": 201888.1612583311,
      "d": 423.43755833333125,
      "v": 71
    },
    {
      "midi": 43,
      "hit": false,
      "t": 202334.48733333108,
      "d": 434.8818166666606,
      "v": 71
    },
    {
      "midi": 55,
      "hit": false,
      "t": 202345.9315916644,
      "d": 423.43755833333125,
      "v": 71
    },
    {
      "midi": 59,
      "hit": false,
      "t": 202345.9315916644,
      "d": 423.43755833333125,
      "v": 71
    },
    {
      "midi": 62,
      "hit": false,
      "t": 202345.9315916644,
      "d": 423.43755833333125,
      "v": 71
    },
    {
      "midi": 43,
      "hit": false,
      "t": 202780.81340833107,
      "d": 446.32607499998994,
      "v": 71
    },
    {
      "midi": 59,
      "hit": false,
      "t": 202792.2576666644,
      "d": 434.8818166666606,
      "v": 71
    },
    {
      "midi": 55,
      "hit": false,
      "t": 202803.70192499773,
      "d": 423.43755833333125,
      "v": 71
    },
    {
      "midi": 62,
      "hit": false,
      "t": 202803.70192499773,
      "d": 423.43755833333125,
      "v": 71
    },
    {
      "midi": 43,
      "hit": false,
      "t": 203238.5837416644,
      "d": 446.32607499998994,
      "v": 71
    },
    {
      "midi": 55,
      "hit": false,
      "t": 203261.47225833105,
      "d": 423.43755833333125,
      "v": 71
    },
    {
      "midi": 59,
      "hit": false,
      "t": 203261.47225833105,
      "d": 423.43755833333125,
      "v": 71
    },
    {
      "midi": 62,
      "hit": false,
      "t": 203261.47225833105,
      "d": 423.43755833333125,
      "v": 71
    },
    {
      "midi": 43,
      "hit": false,
      "t": 203707.79833333104,
      "d": 434.8818166666606,
      "v": 71
    },
    {
      "midi": 55,
      "hit": false,
      "t": 203719.24259166437,
      "d": 423.43755833333125,
      "v": 71
    },
    {
      "midi": 59,
      "hit": false,
      "t": 203719.24259166437,
      "d": 423.43755833333125,
      "v": 71
    },
    {
      "midi": 62,
      "hit": false,
      "t": 203719.24259166437,
      "d": 423.43755833333125,
      "v": 71
    },
    {
      "midi": 43,
      "hit": false,
      "t": 204154.12440833103,
      "d": 446.32607499998994,
      "v": 71
    },
    {
      "midi": 59,
      "hit": false,
      "t": 204154.12440833103,
      "d": 446.32607499998994,
      "v": 71
    },
    {
      "midi": 55,
      "hit": false,
      "t": 204165.56866666436,
      "d": 434.8818166666606,
      "v": 71
    },
    {
      "midi": 62,
      "hit": false,
      "t": 204165.56866666436,
      "d": 434.8818166666606,
      "v": 71
    },
    {
      "midi": 59,
      "hit": false,
      "t": 204611.89474166435,
      "d": 446.32607499998994,
      "v": 71
    },
    {
      "midi": 62,
      "hit": false,
      "t": 204611.89474166435,
      "d": 446.32607499998994,
      "v": 71
    },
    {
      "midi": 43,
      "hit": false,
      "t": 204623.33899999768,
      "d": 434.8818166666606,
      "v": 71
    },
    {
      "midi": 55,
      "hit": false,
      "t": 204623.33899999768,
      "d": 434.8818166666606,
      "v": 71
    },
    {
      "midi": 59,
      "hit": false,
      "t": 205069.66507499767,
      "d": 446.32607499998994,
      "v": 71
    },
    {
      "midi": 62,
      "hit": false,
      "t": 205069.66507499767,
      "d": 446.32607499998994,
      "v": 71
    },
    {
      "midi": 43,
      "hit": false,
      "t": 205081.109333331,
      "d": 434.8818166666606,
      "v": 71
    },
    {
      "midi": 55,
      "hit": false,
      "t": 205081.109333331,
      "d": 434.8818166666606,
      "v": 71
    },
    {
      "midi": 43,
      "hit": false,
      "t": 205527.435408331,
      "d": 446.32607499998994,
      "v": 71
    },
    {
      "midi": 55,
      "hit": false,
      "t": 205527.435408331,
      "d": 446.32607499998994,
      "v": 71
    },
    {
      "midi": 59,
      "hit": false,
      "t": 205527.435408331,
      "d": 446.32607499998994,
      "v": 71
    },
    {
      "midi": 62,
      "hit": false,
      "t": 205527.435408331,
      "d": 446.32607499998994,
      "v": 71
    },
    {
      "midi": 43,
      "hit": false,
      "t": 205985.2057416643,
      "d": 446.32607499998994,
      "v": 71
    },
    {
      "midi": 55,
      "hit": false,
      "t": 205985.2057416643,
      "d": 446.32607499998994,
      "v": 71
    },
    {
      "midi": 59,
      "hit": false,
      "t": 205985.2057416643,
      "d": 446.32607499998994,
      "v": 71
    },
    {
      "midi": 62,
      "hit": false,
      "t": 205985.2057416643,
      "d": 446.32607499998994,
      "v": 71
    },
    {
      "midi": 55,
      "hit": false,
      "t": 206442.97607499763,
      "d": 446.32607499998994,
      "v": 71
    },
    {
      "midi": 59,
      "hit": false,
      "t": 206442.97607499763,
      "d": 446.32607499998994,
      "v": 71
    },
    {
      "midi": 62,
      "hit": false,
      "t": 206442.97607499763,
      "d": 446.32607499998994,
      "v": 71
    },
    {
      "midi": 43,
      "hit": false,
      "t": 206454.42033333096,
      "d": 434.8818166666606,
      "v": 71
    },
    {
      "midi": 43,
      "hit": false,
      "t": 206900.74640833095,
      "d": 446.32607499998994,
      "v": 71
    },
    {
      "midi": 55,
      "hit": false,
      "t": 206900.74640833095,
      "d": 446.32607499998994,
      "v": 71
    },
    {
      "midi": 59,
      "hit": false,
      "t": 206900.74640833095,
      "d": 446.32607499998994,
      "v": 71
    },
    {
      "midi": 62,
      "hit": false,
      "t": 206900.74640833095,
      "d": 446.32607499998994,
      "v": 71
    },
    {
      "midi": 43,
      "hit": false,
      "t": 207358.51674166427,
      "d": 446.32607499998994,
      "v": 71
    },
    {
      "midi": 55,
      "hit": false,
      "t": 207358.51674166427,
      "d": 446.32607499998994,
      "v": 71
    },
    {
      "midi": 59,
      "hit": false,
      "t": 207358.51674166427,
      "d": 446.32607499998994,
      "v": 71
    },
    {
      "midi": 62,
      "hit": false,
      "t": 207358.51674166427,
      "d": 446.32607499998994,
      "v": 71
    },
    {
      "midi": 55,
      "hit": false,
      "t": 207816.28707499758,
      "d": 446.32607499998994,
      "v": 71
    },
    {
      "midi": 59,
      "hit": false,
      "t": 207816.28707499758,
      "d": 446.32607499998994,
      "v": 71
    },
    {
      "midi": 62,
      "hit": false,
      "t": 207816.28707499758,
      "d": 446.32607499998994,
      "v": 71
    },
    {
      "midi": 43,
      "hit": false,
      "t": 207827.7313333309,
      "d": 434.8818166666606,
      "v": 71
    },
    {
      "midi": 43,
      "hit": false,
      "t": 208274.0574083309,
      "d": 446.32607499998994,
      "v": 71
    },
    {
      "midi": 55,
      "hit": false,
      "t": 208274.0574083309,
      "d": 446.32607499998994,
      "v": 71
    },
    {
      "midi": 59,
      "hit": false,
      "t": 208274.0574083309,
      "d": 446.32607499998994,
      "v": 71
    },
    {
      "midi": 62,
      "hit": false,
      "t": 208274.0574083309,
      "d": 446.32607499998994,
      "v": 71
    },
    {
      "midi": 43,
      "hit": false,
      "t": 208731.82774166422,
      "d": 446.32607499998994,
      "v": 71
    },
    {
      "midi": 55,
      "hit": false,
      "t": 208731.82774166422,
      "d": 446.32607499998994,
      "v": 71
    },
    {
      "midi": 59,
      "hit": false,
      "t": 208731.82774166422,
      "d": 446.32607499998994,
      "v": 71
    },
    {
      "midi": 62,
      "hit": false,
      "t": 208731.82774166422,
      "d": 446.32607499998994,
      "v": 71
    },
    {
      "midi": 43,
      "hit": false,
      "t": 209189.59807499754,
      "d": 446.32607499998994,
      "v": 71
    },
    {
      "midi": 55,
      "hit": false,
      "t": 209189.59807499754,
      "d": 446.32607499998994,
      "v": 71
    },
    {
      "midi": 59,
      "hit": false,
      "t": 209189.59807499754,
      "d": 446.32607499998994,
      "v": 71
    },
    {
      "midi": 62,
      "hit": false,
      "t": 209189.59807499754,
      "d": 446.32607499998994,
      "v": 71
    },
    {
      "midi": 43,
      "hit": false,
      "t": 209647.36840833086,
      "d": 446.32607499998994,
      "v": 71
    },
    {
      "midi": 55,
      "hit": false,
      "t": 209647.36840833086,
      "d": 446.32607499998994,
      "v": 71
    },
    {
      "midi": 59,
      "hit": false,
      "t": 209647.36840833086,
      "d": 446.32607499998994,
      "v": 71
    },
    {
      "midi": 62,
      "hit": false,
      "t": 209647.36840833086,
      "d": 446.32607499998994,
      "v": 71
    },
    {
      "midi": 43,
      "hit": false,
      "t": 210116.5829999975,
      "d": 434.8818166666606,
      "v": 71
    },
    {
      "midi": 55,
      "hit": false,
      "t": 210116.5829999975,
      "d": 434.8818166666606,
      "v": 71
    },
    {
      "midi": 59,
      "hit": false,
      "t": 210116.5829999975,
      "d": 434.8818166666606,
      "v": 71
    },
    {
      "midi": 62,
      "hit": false,
      "t": 210116.5829999975,
      "d": 434.8818166666606,
      "v": 71
    },
    {
      "midi": 43,
      "hit": false,
      "t": 210574.35333333083,
      "d": 434.8818166666606,
      "v": 71
    },
    {
      "midi": 59,
      "hit": false,
      "t": 210574.35333333083,
      "d": 434.8818166666606,
      "v": 71
    },
    {
      "midi": 55,
      "hit": false,
      "t": 210585.79759166416,
      "d": 423.43755833333125,
      "v": 71
    },
    {
      "midi": 62,
      "hit": false,
      "t": 210585.79759166416,
      "d": 423.43755833333125,
      "v": 71
    },
    {
      "midi": 55,
      "hit": false,
      "t": 211032.12366666415,
      "d": 434.8818166666606,
      "v": 71
    },
    {
      "midi": 59,
      "hit": false,
      "t": 211032.12366666415,
      "d": 434.8818166666606,
      "v": 71
    },
    {
      "midi": 62,
      "hit": false,
      "t": 211032.12366666415,
      "d": 434.8818166666606,
      "v": 71
    },
    {
      "midi": 43,
      "hit": false,
      "t": 211043.56792499748,
      "d": 423.43755833333125,
      "v": 71
    },
    {
      "midi": 55,
      "hit": false,
      "t": 211501.3382583308,
      "d": 423.43755833333125,
      "v": 72
    },
    {
      "midi": 60,
      "hit": false,
      "t": 211501.3382583308,
      "d": 423.43755833333125,
      "v": 72
    },
    {
      "midi": 48,
      "hit": false,
      "t": 211501.3382583308,
      "d": 434.8818166666606,
      "v": 72
    },
    {
      "midi": 63,
      "hit": false,
      "t": 211501.3382583308,
      "d": 434.8818166666606,
      "v": 72
    },
    {
      "midi": 48,
      "hit": false,
      "t": 211959.10859166412,
      "d": 423.43755833333125,
      "v": 72
    },
    {
      "midi": 55,
      "hit": false,
      "t": 211959.10859166412,
      "d": 423.43755833333125,
      "v": 72
    },
    {
      "midi": 60,
      "hit": false,
      "t": 211959.10859166412,
      "d": 423.43755833333125,
      "v": 72
    },
    {
      "midi": 63,
      "hit": false,
      "t": 211959.10859166412,
      "d": 423.43755833333125,
      "v": 72
    },
    {
      "midi": 48,
      "hit": false,
      "t": 212405.4346666641,
      "d": 434.8818166666606,
      "v": 72
    },
    {
      "midi": 55,
      "hit": false,
      "t": 212416.87892499744,
      "d": 423.43755833333125,
      "v": 72
    },
    {
      "midi": 60,
      "hit": false,
      "t": 212416.87892499744,
      "d": 423.43755833333125,
      "v": 72
    },
    {
      "midi": 63,
      "hit": false,
      "t": 212416.87892499744,
      "d": 423.43755833333125,
      "v": 72
    },
    {
      "midi": 48,
      "hit": false,
      "t": 212874.64925833076,
      "d": 423.43755833333125,
      "v": 72
    },
    {
      "midi": 55,
      "hit": false,
      "t": 212874.64925833076,
      "d": 423.43755833333125,
      "v": 72
    },
    {
      "midi": 60,
      "hit": false,
      "t": 212874.64925833076,
      "d": 423.43755833333125,
      "v": 72
    },
    {
      "midi": 63,
      "hit": false,
      "t": 212874.64925833076,
      "d": 423.43755833333125,
      "v": 72
    },
    {
      "midi": 48,
      "hit": false,
      "t": 213332.41959166407,
      "d": 423.43755833333125,
      "v": 72
    },
    {
      "midi": 55,
      "hit": false,
      "t": 213332.41959166407,
      "d": 423.43755833333125,
      "v": 72
    },
    {
      "midi": 60,
      "hit": false,
      "t": 213332.41959166407,
      "d": 423.43755833333125,
      "v": 72
    },
    {
      "midi": 63,
      "hit": false,
      "t": 213332.41959166407,
      "d": 423.43755833333125,
      "v": 72
    },
    {
      "midi": 60,
      "hit": false,
      "t": 213778.74566666406,
      "d": 434.8818166666606,
      "v": 72
    },
    {
      "midi": 48,
      "hit": false,
      "t": 213790.1899249974,
      "d": 423.43755833333125,
      "v": 72
    },
    {
      "midi": 55,
      "hit": false,
      "t": 213790.1899249974,
      "d": 423.43755833333125,
      "v": 72
    },
    {
      "midi": 63,
      "hit": false,
      "t": 213790.1899249974,
      "d": 423.43755833333125,
      "v": 72
    },
    {
      "midi": 60,
      "hit": false,
      "t": 214225.07174166405,
      "d": 446.32607499998994,
      "v": 72
    },
    {
      "midi": 55,
      "hit": false,
      "t": 214236.51599999738,
      "d": 434.8818166666606,
      "v": 72
    },
    {
      "midi": 48,
      "hit": false,
      "t": 214247.9602583307,
      "d": 423.43755833333125,
      "v": 72
    },
    {
      "midi": 63,
      "hit": false,
      "t": 214247.9602583307,
      "d": 423.43755833333125,
      "v": 72
    },
    {
      "midi": 48,
      "hit": false,
      "t": 214694.2863333307,
      "d": 434.8818166666606,
      "v": 72
    },
    {
      "midi": 55,
      "hit": false,
      "t": 214694.2863333307,
      "d": 434.8818166666606,
      "v": 72
    },
    {
      "midi": 60,
      "hit": false,
      "t": 214694.2863333307,
      "d": 434.8818166666606,
      "v": 72
    },
    {
      "midi": 63,
      "hit": false,
      "t": 214705.73059166403,
      "d": 423.43755833333125,
      "v": 72
    },
    {
      "midi": 48,
      "hit": false,
      "t": 215140.6124083307,
      "d": 446.32607499998994,
      "v": 72
    },
    {
      "midi": 55,
      "hit": false,
      "t": 215140.6124083307,
      "d": 446.32607499998994,
      "v": 72
    },
    {
      "midi": 60,
      "hit": false,
      "t": 215140.6124083307,
      "d": 446.32607499998994,
      "v": 72
    },
    {
      "midi": 63,
      "hit": false,
      "t": 215140.6124083307,
      "d": 446.32607499998994,
      "v": 72
    },
    {
      "midi": 48,
      "hit": false,
      "t": 215598.382741664,
      "d": 446.32607499998994,
      "v": 72
    },
    {
      "midi": 55,
      "hit": false,
      "t": 215598.382741664,
      "d": 446.32607499998994,
      "v": 72
    },
    {
      "midi": 60,
      "hit": false,
      "t": 215598.382741664,
      "d": 446.32607499998994,
      "v": 72
    },
    {
      "midi": 63,
      "hit": false,
      "t": 215598.382741664,
      "d": 446.32607499998994,
      "v": 72
    },
    {
      "midi": 55,
      "hit": false,
      "t": 216056.15307499733,
      "d": 446.32607499998994,
      "v": 72
    },
    {
      "midi": 60,
      "hit": false,
      "t": 216056.15307499733,
      "d": 446.32607499998994,
      "v": 72
    },
    {
      "midi": 63,
      "hit": false,
      "t": 216056.15307499733,
      "d": 446.32607499998994,
      "v": 72
    },
    {
      "midi": 48,
      "hit": false,
      "t": 216067.59733333066,
      "d": 434.8818166666606,
      "v": 72
    },
    {
      "midi": 55,
      "hit": false,
      "t": 216513.92340833065,
      "d": 446.32607499998994,
      "v": 72
    },
    {
      "midi": 60,
      "hit": false,
      "t": 216513.92340833065,
      "d": 446.32607499998994,
      "v": 72
    },
    {
      "midi": 63,
      "hit": false,
      "t": 216513.92340833065,
      "d": 446.32607499998994,
      "v": 72
    },
    {
      "midi": 48,
      "hit": false,
      "t": 216525.36766666398,
      "d": 434.8818166666606,
      "v": 72
    },
    {
      "midi": 55,
      "hit": false,
      "t": 216971.69374166397,
      "d": 446.32607499998994,
      "v": 72
    },
    {
      "midi": 60,
      "hit": false,
      "t": 216971.69374166397,
      "d": 446.32607499998994,
      "v": 72
    },
    {
      "midi": 63,
      "hit": false,
      "t": 216971.69374166397,
      "d": 446.32607499998994,
      "v": 72
    },
    {
      "midi": 48,
      "hit": false,
      "t": 216994.58225833063,
      "d": 423.43755833333125,
      "v": 72
    },
    {
      "midi": 48,
      "hit": false,
      "t": 217429.4640749973,
      "d": 446.32607499998994,
      "v": 72
    },
    {
      "midi": 55,
      "hit": false,
      "t": 217429.4640749973,
      "d": 446.32607499998994,
      "v": 72
    },
    {
      "midi": 60,
      "hit": false,
      "t": 217429.4640749973,
      "d": 446.32607499998994,
      "v": 72
    },
    {
      "midi": 63,
      "hit": false,
      "t": 217429.4640749973,
      "d": 446.32607499998994,
      "v": 72
    },
    {
      "midi": 48,
      "hit": false,
      "t": 217887.2344083306,
      "d": 446.32607499998994,
      "v": 72
    },
    {
      "midi": 55,
      "hit": false,
      "t": 217887.2344083306,
      "d": 446.32607499998994,
      "v": 72
    },
    {
      "midi": 60,
      "hit": false,
      "t": 217887.2344083306,
      "d": 446.32607499998994,
      "v": 72
    },
    {
      "midi": 63,
      "hit": false,
      "t": 217887.2344083306,
      "d": 446.32607499998994,
      "v": 72
    },
    {
      "midi": 48,
      "hit": false,
      "t": 218345.00474166393,
      "d": 446.32607499998994,
      "v": 72
    },
    {
      "midi": 55,
      "hit": false,
      "t": 218345.00474166393,
      "d": 446.32607499998994,
      "v": 72
    },
    {
      "midi": 60,
      "hit": false,
      "t": 218345.00474166393,
      "d": 446.32607499998994,
      "v": 72
    },
    {
      "midi": 63,
      "hit": false,
      "t": 218345.00474166393,
      "d": 446.32607499998994,
      "v": 72
    },
    {
      "midi": 48,
      "hit": false,
      "t": 218802.77507499725,
      "d": 446.32607499998994,
      "v": 72
    },
    {
      "midi": 60,
      "hit": false,
      "t": 218802.77507499725,
      "d": 446.32607499998994,
      "v": 72
    },
    {
      "midi": 55,
      "hit": false,
      "t": 218814.21933333058,
      "d": 434.8818166666606,
      "v": 72
    },
    {
      "midi": 63,
      "hit": false,
      "t": 218825.6635916639,
      "d": 423.43755833333125,
      "v": 72
    },
    {
      "midi": 48,
      "hit": false,
      "t": 219260.54540833057,
      "d": 446.32607499998994,
      "v": 72
    },
    {
      "midi": 55,
      "hit": false,
      "t": 219260.54540833057,
      "d": 446.32607499998994,
      "v": 72
    },
    {
      "midi": 60,
      "hit": false,
      "t": 219260.54540833057,
      "d": 446.32607499998994,
      "v": 72
    },
    {
      "midi": 63,
      "hit": false,
      "t": 219271.9896666639,
      "d": 434.8818166666606,
      "v": 72
    },
    {
      "midi": 48,
      "hit": false,
      "t": 219718.3157416639,
      "d": 446.32607499998994,
      "v": 72
    },
    {
      "midi": 55,
      "hit": false,
      "t": 219718.3157416639,
      "d": 446.32607499998994,
      "v": 72
    },
    {
      "midi": 60,
      "hit": false,
      "t": 219718.3157416639,
      "d": 446.32607499998994,
      "v": 72
    },
    {
      "midi": 63,
      "hit": false,
      "t": 219729.75999999722,
      "d": 434.8818166666606,
      "v": 72
    },
    {
      "midi": 55,
      "hit": false,
      "t": 220187.53033333053,
      "d": 434.8818166666606,
      "v": 72
    },
    {
      "midi": 48,
      "hit": false,
      "t": 220198.97459166386,
      "d": 423.43755833333125,
      "v": 72
    },
    {
      "midi": 60,
      "hit": false,
      "t": 220198.97459166386,
      "d": 423.43755833333125,
      "v": 72
    },
    {
      "midi": 63,
      "hit": false,
      "t": 220198.97459166386,
      "d": 423.43755833333125,
      "v": 72
    },
    {
      "midi": 55,
      "hit": false,
      "t": 220633.85640833052,
      "d": 446.32607499998994,
      "v": 72
    },
    {
      "midi": 60,
      "hit": false,
      "t": 220633.85640833052,
      "d": 446.32607499998994,
      "v": 72
    },
    {
      "midi": 48,
      "hit": false,
      "t": 220645.30066666385,
      "d": 434.8818166666606,
      "v": 72
    },
    {
      "midi": 63,
      "hit": false,
      "t": 220645.30066666385,
      "d": 434.8818166666606,
      "v": 72
    },
    {
      "midi": 55,
      "hit": false,
      "t": 221114.5152583305,
      "d": 423.43755833333125,
      "v": 72
    },
    {
      "midi": 60,
      "hit": false,
      "t": 221114.5152583305,
      "d": 423.43755833333125,
      "v": 72
    },
    {
      "midi": 63,
      "hit": false,
      "t": 221114.5152583305,
      "d": 423.43755833333125,
      "v": 72
    },
    {
      "midi": 48,
      "hit": false,
      "t": 221114.5152583305,
      "d": 434.8818166666606,
      "v": 72
    },
    {
      "midi": 60,
      "hit": false,
      "t": 221560.8413333305,
      "d": 434.8818166666606,
      "v": 72
    },
    {
      "midi": 48,
      "hit": false,
      "t": 221572.28559166382,
      "d": 423.43755833333125,
      "v": 72
    },
    {
      "midi": 55,
      "hit": false,
      "t": 221572.28559166382,
      "d": 423.43755833333125,
      "v": 72
    },
    {
      "midi": 63,
      "hit": false,
      "t": 221572.28559166382,
      "d": 423.43755833333125,
      "v": 72
    },
    {
      "midi": 55,
      "hit": false,
      "t": 222007.16740833048,
      "d": 446.32607499998994,
      "v": 72
    },
    {
      "midi": 60,
      "hit": false,
      "t": 222007.16740833048,
      "d": 446.32607499998994,
      "v": 72
    },
    {
      "midi": 63,
      "hit": false,
      "t": 222007.16740833048,
      "d": 446.32607499998994,
      "v": 72
    },
    {
      "midi": 48,
      "hit": false,
      "t": 222030.05592499714,
      "d": 423.43755833333125,
      "v": 72
    },
    {
      "midi": 58,
      "hit": false,
      "t": 222476.38199999713,
      "d": 434.8818166666606,
      "v": 72
    },
    {
      "midi": 63,
      "hit": false,
      "t": 222476.38199999713,
      "d": 434.8818166666606,
      "v": 72
    },
    {
      "midi": 39,
      "hit": false,
      "t": 222487.82625833046,
      "d": 423.43755833333125,
      "v": 72
    },
    {
      "midi": 55,
      "hit": false,
      "t": 222487.82625833046,
      "d": 423.43755833333125,
      "v": 72
    },
    {
      "midi": 58,
      "hit": false,
      "t": 222922.70807499712,
      "d": 446.32607499998994,
      "v": 72
    },
    {
      "midi": 61,
      "hit": false,
      "t": 222922.70807499712,
      "d": 446.32607499998994,
      "v": 72
    },
    {
      "midi": 55,
      "hit": false,
      "t": 222934.15233333045,
      "d": 434.8818166666606,
      "v": 72
    },
    {
      "midi": 39,
      "hit": false,
      "t": 222945.59659166378,
      "d": 423.43755833333125,
      "v": 72
    },
    {
      "midi": 55,
      "hit": false,
      "t": 223380.47840833044,
      "d": 446.32607499998994,
      "v": 72
    },
    {
      "midi": 58,
      "hit": false,
      "t": 223380.47840833044,
      "d": 446.32607499998994,
      "v": 72
    },
    {
      "midi": 61,
      "hit": false,
      "t": 223380.47840833044,
      "d": 446.32607499998994,
      "v": 72
    },
    {
      "midi": 39,
      "hit": false,
      "t": 223403.3669249971,
      "d": 423.43755833333125,
      "v": 72
    },
    {
      "midi": 55,
      "hit": false,
      "t": 223838.24874166376,
      "d": 446.32607499998994,
      "v": 72
    },
    {
      "midi": 58,
      "hit": false,
      "t": 223838.24874166376,
      "d": 446.32607499998994,
      "v": 72
    },
    {
      "midi": 61,
      "hit": false,
      "t": 223838.24874166376,
      "d": 446.32607499998994,
      "v": 72
    },
    {
      "midi": 39,
      "hit": false,
      "t": 223849.6929999971,
      "d": 434.8818166666606,
      "v": 72
    },
    {
      "midi": 39,
      "hit": false,
      "t": 224296.01907499708,
      "d": 446.32607499998994,
      "v": 72
    },
    {
      "midi": 55,
      "hit": false,
      "t": 224296.01907499708,
      "d": 446.32607499998994,
      "v": 72
    },
    {
      "midi": 58,
      "hit": false,
      "t": 224296.01907499708,
      "d": 446.32607499998994,
      "v": 72
    },
    {
      "midi": 61,
      "hit": false,
      "t": 224296.01907499708,
      "d": 446.32607499998994,
      "v": 72
    },
    {
      "midi": 55,
      "hit": false,
      "t": 224753.7894083304,
      "d": 446.32607499998994,
      "v": 72
    },
    {
      "midi": 58,
      "hit": false,
      "t": 224753.7894083304,
      "d": 446.32607499998994,
      "v": 72
    },
    {
      "midi": 61,
      "hit": false,
      "t": 224753.7894083304,
      "d": 446.32607499998994,
      "v": 72
    },
    {
      "midi": 39,
      "hit": false,
      "t": 224776.67792499706,
      "d": 423.43755833333125,
      "v": 72
    },
    {
      "midi": 55,
      "hit": false,
      "t": 225211.55974166372,
      "d": 446.32607499998994,
      "v": 72
    },
    {
      "midi": 58,
      "hit": false,
      "t": 225211.55974166372,
      "d": 446.32607499998994,
      "v": 72
    },
    {
      "midi": 61,
      "hit": false,
      "t": 225211.55974166372,
      "d": 446.32607499998994,
      "v": 72
    },
    {
      "midi": 39,
      "hit": false,
      "t": 225234.44825833038,
      "d": 423.43755833333125,
      "v": 72
    },
    {
      "midi": 55,
      "hit": false,
      "t": 225669.33007499704,
      "d": 446.32607499998994,
      "v": 72
    },
    {
      "midi": 58,
      "hit": false,
      "t": 225669.33007499704,
      "d": 446.32607499998994,
      "v": 72
    },
    {
      "midi": 61,
      "hit": false,
      "t": 225669.33007499704,
      "d": 446.32607499998994,
      "v": 72
    },
    {
      "midi": 39,
      "hit": false,
      "t": 225692.2185916637,
      "d": 423.43755833333125,
      "v": 72
    },
    {
      "midi": 55,
      "hit": false,
      "t": 226127.10040833036,
      "d": 446.32607499998994,
      "v": 72
    },
    {
      "midi": 58,
      "hit": false,
      "t": 226127.10040833036,
      "d": 446.32607499998994,
      "v": 72
    },
    {
      "midi": 61,
      "hit": false,
      "t": 226127.10040833036,
      "d": 446.32607499998994,
      "v": 72
    },
    {
      "midi": 39,
      "hit": false,
      "t": 226149.98892499701,
      "d": 423.43755833333125,
      "v": 72
    },
    {
      "midi": 55,
      "hit": false,
      "t": 226584.87074166368,
      "d": 446.32607499998994,
      "v": 72
    },
    {
      "midi": 58,
      "hit": false,
      "t": 226584.87074166368,
      "d": 446.32607499998994,
      "v": 72
    },
    {
      "midi": 61,
      "hit": false,
      "t": 226584.87074166368,
      "d": 446.32607499998994,
      "v": 72
    },
    {
      "midi": 39,
      "hit": false,
      "t": 226607.75925833033,
      "d": 423.43755833333125,
      "v": 72
    },
    {
      "midi": 55,
      "hit": false,
      "t": 227042.641074997,
      "d": 446.32607499998994,
      "v": 72
    },
    {
      "midi": 58,
      "hit": false,
      "t": 227042.641074997,
      "d": 446.32607499998994,
      "v": 72
    },
    {
      "midi": 61,
      "hit": false,
      "t": 227042.641074997,
      "d": 446.32607499998994,
      "v": 72
    },
    {
      "midi": 39,
      "hit": false,
      "t": 227065.52959166365,
      "d": 423.43755833333125,
      "v": 72
    },
    {
      "midi": 39,
      "hit": false,
      "t": 227500.4114083303,
      "d": 446.32607499998994,
      "v": 72
    },
    {
      "midi": 55,
      "hit": false,
      "t": 227500.4114083303,
      "d": 446.32607499998994,
      "v": 72
    },
    {
      "midi": 58,
      "hit": false,
      "t": 227500.4114083303,
      "d": 446.32607499998994,
      "v": 72
    },
    {
      "midi": 61,
      "hit": false,
      "t": 227500.4114083303,
      "d": 446.32607499998994,
      "v": 72
    },
    {
      "midi": 39,
      "hit": false,
      "t": 227958.18174166363,
      "d": 446.32607499998994,
      "v": 72
    },
    {
      "midi": 58,
      "hit": false,
      "t": 227958.18174166363,
      "d": 446.32607499998994,
      "v": 72
    },
    {
      "midi": 61,
      "hit": false,
      "t": 227958.18174166363,
      "d": 446.32607499998994,
      "v": 72
    },
    {
      "midi": 55,
      "hit": false,
      "t": 227969.62599999696,
      "d": 434.8818166666606,
      "v": 72
    },
    {
      "midi": 39,
      "hit": false,
      "t": 228415.95207499695,
      "d": 446.32607499998994,
      "v": 72
    },
    {
      "midi": 58,
      "hit": false,
      "t": 228415.95207499695,
      "d": 446.32607499998994,
      "v": 72
    },
    {
      "midi": 61,
      "hit": false,
      "t": 228427.39633333028,
      "d": 434.8818166666606,
      "v": 72
    },
    {
      "midi": 55,
      "hit": false,
      "t": 228438.8405916636,
      "d": 423.43755833333125,
      "v": 72
    },
    {
      "midi": 39,
      "hit": false,
      "t": 228873.72240833027,
      "d": 446.32607499998994,
      "v": 72
    },
    {
      "midi": 55,
      "hit": false,
      "t": 228873.72240833027,
      "d": 446.32607499998994,
      "v": 72
    },
    {
      "midi": 58,
      "hit": false,
      "t": 228873.72240833027,
      "d": 446.32607499998994,
      "v": 72
    },
    {
      "midi": 61,
      "hit": false,
      "t": 228873.72240833027,
      "d": 446.32607499998994,
      "v": 72
    },
    {
      "midi": 58,
      "hit": false,
      "t": 229342.93699999692,
      "d": 446.32607499998994,
      "v": 73
    },
    {
      "midi": 39,
      "hit": false,
      "t": 229354.38125833025,
      "d": 423.43755833333125,
      "v": 73
    },
    {
      "midi": 55,
      "hit": false,
      "t": 229354.38125833025,
      "d": 423.43755833333125,
      "v": 73
    },
    {
      "midi": 61,
      "hit": false,
      "t": 229354.38125833025,
      "d": 434.8818166666606,
      "v": 73
    },
    {
      "midi": 39,
      "hit": false,
      "t": 229789.2630749969,
      "d": 446.32607499998994,
      "v": 73
    },
    {
      "midi": 55,
      "hit": false,
      "t": 229812.15159166357,
      "d": 423.43755833333125,
      "v": 73
    },
    {
      "midi": 58,
      "hit": false,
      "t": 229812.15159166357,
      "d": 423.43755833333125,
      "v": 73
    },
    {
      "midi": 61,
      "hit": false,
      "t": 229812.15159166357,
      "d": 423.43755833333125,
      "v": 73
    },
    {
      "midi": 55,
      "hit": false,
      "t": 230258.47766666356,
      "d": 434.8818166666606,
      "v": 73
    },
    {
      "midi": 58,
      "hit": false,
      "t": 230258.47766666356,
      "d": 434.8818166666606,
      "v": 73
    },
    {
      "midi": 61,
      "hit": false,
      "t": 230258.47766666356,
      "d": 446.32607499998994,
      "v": 73
    },
    {
      "midi": 39,
      "hit": false,
      "t": 230269.9219249969,
      "d": 423.43755833333125,
      "v": 73
    },
    {
      "midi": 55,
      "hit": false,
      "t": 230727.6922583302,
      "d": 423.43755833333125,
      "v": 73
    },
    {
      "midi": 58,
      "hit": false,
      "t": 230727.6922583302,
      "d": 423.43755833333125,
      "v": 73
    },
    {
      "midi": 39,
      "hit": false,
      "t": 230727.6922583302,
      "d": 434.8818166666606,
      "v": 73
    },
    {
      "midi": 61,
      "hit": false,
      "t": 230727.6922583302,
      "d": 434.8818166666606,
      "v": 73
    },
    {
      "midi": 39,
      "hit": false,
      "t": 231185.46259166353,
      "d": 423.43755833333125,
      "v": 73
    },
    {
      "midi": 55,
      "hit": false,
      "t": 231185.46259166353,
      "d": 423.43755833333125,
      "v": 73
    },
    {
      "midi": 58,
      "hit": false,
      "t": 231185.46259166353,
      "d": 423.43755833333125,
      "v": 73
    },
    {
      "midi": 61,
      "hit": false,
      "t": 231185.46259166353,
      "d": 423.43755833333125,
      "v": 73
    },
    {
      "midi": 39,
      "hit": false,
      "t": 231643.23292499685,
      "d": 423.43755833333125,
      "v": 73
    },
    {
      "midi": 55,
      "hit": false,
      "t": 231643.23292499685,
      "d": 423.43755833333125,
      "v": 73
    },
    {
      "midi": 58,
      "hit": false,
      "t": 231643.23292499685,
      "d": 423.43755833333125,
      "v": 73
    },
    {
      "midi": 61,
      "hit": false,
      "t": 231643.23292499685,
      "d": 434.8818166666606,
      "v": 73
    },
    {
      "midi": 39,
      "hit": false,
      "t": 232089.55899999684,
      "d": 434.8818166666606,
      "v": 73
    },
    {
      "midi": 55,
      "hit": false,
      "t": 232101.00325833017,
      "d": 423.43755833333125,
      "v": 73
    },
    {
      "midi": 58,
      "hit": false,
      "t": 232101.00325833017,
      "d": 423.43755833333125,
      "v": 73
    },
    {
      "midi": 61,
      "hit": false,
      "t": 232101.00325833017,
      "d": 423.43755833333125,
      "v": 73
    },
    {
      "midi": 58,
      "hit": false,
      "t": 232547.32933333016,
      "d": 434.8818166666606,
      "v": 73
    },
    {
      "midi": 39,
      "hit": false,
      "t": 232558.77359166348,
      "d": 423.43755833333125,
      "v": 73
    },
    {
      "midi": 55,
      "hit": false,
      "t": 232558.77359166348,
      "d": 423.43755833333125,
      "v": 73
    },
    {
      "midi": 61,
      "hit": false,
      "t": 232558.77359166348,
      "d": 423.43755833333125,
      "v": 73
    },
    {
      "midi": 55,
      "hit": false,
      "t": 232993.65540833015,
      "d": 446.32607499998994,
      "v": 73
    },
    {
      "midi": 58,
      "hit": false,
      "t": 232993.65540833015,
      "d": 446.32607499998994,
      "v": 73
    },
    {
      "midi": 61,
      "hit": false,
      "t": 232993.65540833015,
      "d": 446.32607499998994,
      "v": 73
    },
    {
      "midi": 39,
      "hit": false,
      "t": 233016.5439249968,
      "d": 423.43755833333125,
      "v": 73
    },
    {
      "midi": 56,
      "hit": false,
      "t": 233451.42574166346,
      "d": 457.7703333333193,
      "v": 73
    },
    {
      "midi": 60,
      "hit": false,
      "t": 233451.42574166346,
      "d": 457.7703333333193,
      "v": 73
    },
    {
      "midi": 63,
      "hit": false,
      "t": 233451.42574166346,
      "d": 457.7703333333193,
      "v": 73
    },
    {
      "midi": 44,
      "hit": false,
      "t": 233462.8699999968,
      "d": 457.7703333333193,
      "v": 73
    },
    {
      "midi": 60,
      "hit": false,
      "t": 233909.19607499678,
      "d": 446.32607499998994,
      "v": 73
    },
    {
      "midi": 44,
      "hit": false,
      "t": 233920.6403333301,
      "d": 434.8818166666606,
      "v": 73
    },
    {
      "midi": 56,
      "hit": false,
      "t": 233920.6403333301,
      "d": 434.8818166666606,
      "v": 73
    },
    {
      "midi": 63,
      "hit": false,
      "t": 233920.6403333301,
      "d": 434.8818166666606,
      "v": 73
    },
    {
      "midi": 44,
      "hit": false,
      "t": 234366.9664083301,
      "d": 446.32607499998994,
      "v": 73
    },
    {
      "midi": 56,
      "hit": false,
      "t": 234366.9664083301,
      "d": 446.32607499998994,
      "v": 73
    },
    {
      "midi": 60,
      "hit": false,
      "t": 234366.9664083301,
      "d": 446.32607499998994,
      "v": 73
    },
    {
      "midi": 63,
      "hit": false,
      "t": 234366.9664083301,
      "d": 446.32607499998994,
      "v": 73
    },
    {
      "midi": 56,
      "hit": false,
      "t": 234824.73674166342,
      "d": 446.32607499998994,
      "v": 73
    },
    {
      "midi": 60,
      "hit": false,
      "t": 234824.73674166342,
      "d": 446.32607499998994,
      "v": 73
    },
    {
      "midi": 63,
      "hit": false,
      "t": 234824.73674166342,
      "d": 446.32607499998994,
      "v": 73
    },
    {
      "midi": 44,
      "hit": false,
      "t": 234824.73674166342,
      "d": 457.7703333333193,
      "v": 73
    },
    {
      "midi": 56,
      "hit": false,
      "t": 235282.50707499674,
      "d": 446.32607499998994,
      "v": 73
    },
    {
      "midi": 60,
      "hit": false,
      "t": 235282.50707499674,
      "d": 446.32607499998994,
      "v": 73
    },
    {
      "midi": 63,
      "hit": false,
      "t": 235282.50707499674,
      "d": 446.32607499998994,
      "v": 73
    },
    {
      "midi": 44,
      "hit": false,
      "t": 235293.95133333007,
      "d": 434.8818166666606,
      "v": 73
    },
    {
      "midi": 56,
      "hit": false,
      "t": 235740.27740833006,
      "d": 446.32607499998994,
      "v": 73
    },
    {
      "midi": 60,
      "hit": false,
      "t": 235740.27740833006,
      "d": 446.32607499998994,
      "v": 73
    },
    {
      "midi": 63,
      "hit": false,
      "t": 235740.27740833006,
      "d": 446.32607499998994,
      "v": 73
    },
    {
      "midi": 44,
      "hit": false,
      "t": 235763.16592499672,
      "d": 423.43755833333125,
      "v": 73
    },
    {
      "midi": 56,
      "hit": false,
      "t": 236198.04774166338,
      "d": 446.32607499998994,
      "v": 73
    },
    {
      "midi": 60,
      "hit": false,
      "t": 236198.04774166338,
      "d": 446.32607499998994,
      "v": 73
    },
    {
      "midi": 63,
      "hit": false,
      "t": 236198.04774166338,
      "d": 457.7703333333193,
      "v": 73
    },
    {
      "midi": 44,
      "hit": false,
      "t": 236220.93625833004,
      "d": 434.8818166666606,
      "v": 73
    },
    {
      "midi": 56,
      "hit": false,
      "t": 236655.8180749967,
      "d": 446.32607499998994,
      "v": 73
    },
    {
      "midi": 60,
      "hit": false,
      "t": 236655.8180749967,
      "d": 446.32607499998994,
      "v": 73
    },
    {
      "midi": 63,
      "hit": false,
      "t": 236667.26233333003,
      "d": 434.8818166666606,
      "v": 73
    },
    {
      "midi": 44,
      "hit": false,
      "t": 236678.70659166336,
      "d": 434.8818166666606,
      "v": 73
    },
    {
      "midi": 56,
      "hit": false,
      "t": 237113.58840833002,
      "d": 446.32607499998994,
      "v": 73
    },
    {
      "midi": 60,
      "hit": false,
      "t": 237113.58840833002,
      "d": 446.32607499998994,
      "v": 73
    },
    {
      "midi": 63,
      "hit": false,
      "t": 237113.58840833002,
      "d": 446.32607499998994,
      "v": 73
    },
    {
      "midi": 44,
      "hit": false,
      "t": 237136.47692499668,
      "d": 434.8818166666606,
      "v": 73
    },
    {
      "midi": 56,
      "hit": false,
      "t": 237571.35874166334,
      "d": 446.32607499998994,
      "v": 73
    },
    {
      "midi": 60,
      "hit": false,
      "t": 237571.35874166334,
      "d": 446.32607499998994,
      "v": 73
    },
    {
      "midi": 63,
      "hit": false,
      "t": 237571.35874166334,
      "d": 446.32607499998994,
      "v": 73
    },
    {
      "midi": 44,
      "hit": false,
      "t": 237594.24725833,
      "d": 423.43755833333125,
      "v": 73
    },
    {
      "midi": 56,
      "hit": false,
      "t": 238029.12907499666,
      "d": 446.32607499998994,
      "v": 73
    },
    {
      "midi": 60,
      "hit": false,
      "t": 238029.12907499666,
      "d": 446.32607499998994,
      "v": 73
    },
    {
      "midi": 63,
      "hit": false,
      "t": 238029.12907499666,
      "d": 446.32607499998994,
      "v": 73
    },
    {
      "midi": 44,
      "hit": false,
      "t": 238052.01759166332,
      "d": 423.43755833333125,
      "v": 73
    },
    {
      "midi": 44,
      "hit": false,
      "t": 238486.89940832998,
      "d": 446.32607499998994,
      "v": 73
    },
    {
      "midi": 56,
      "hit": false,
      "t": 238486.89940832998,
      "d": 446.32607499998994,
      "v": 73
    },
    {
      "midi": 60,
      "hit": false,
      "t": 238486.89940832998,
      "d": 446.32607499998994,
      "v": 73
    },
    {
      "midi": 63,
      "hit": false,
      "t": 238486.89940832998,
      "d": 446.32607499998994,
      "v": 73
    },
    {
      "midi": 44,
      "hit": false,
      "t": 238967.55825832995,
      "d": 434.8818166666606,
      "v": 99
    },
    {
      "midi": 56,
      "hit": false,
      "t": 238967.55825832995,
      "d": 434.8818166666606,
      "v": 72
    },
    {
      "midi": 59,
      "hit": false,
      "t": 238967.55825832995,
      "d": 434.8818166666606,
      "v": 93
    },
    {
      "midi": 63,
      "hit": false,
      "t": 238967.55825832995,
      "d": 434.8818166666606,
      "v": 66
    },
    {
      "midi": 44,
      "hit": false,
      "t": 239425.32859166327,
      "d": 423.43755833333125,
      "v": 78
    },
    {
      "midi": 56,
      "hit": false,
      "t": 239425.32859166327,
      "d": 434.8818166666606,
      "v": 59
    },
    {
      "midi": 59,
      "hit": false,
      "t": 239425.32859166327,
      "d": 434.8818166666606,
      "v": 84
    },
    {
      "midi": 63,
      "hit": false,
      "t": 239425.32859166327,
      "d": 434.8818166666606,
      "v": 50
    },
    {
      "midi": 56,
      "hit": false,
      "t": 239871.65466666326,
      "d": 446.32607499998994,
      "v": 85
    },
    {
      "midi": 59,
      "hit": false,
      "t": 239871.65466666326,
      "d": 446.32607499998994,
      "v": 95
    },
    {
      "midi": 63,
      "hit": false,
      "t": 239871.65466666326,
      "d": 446.32607499998994,
      "v": 64
    },
    {
      "midi": 44,
      "hit": false,
      "t": 239883.0989249966,
      "d": 434.8818166666606,
      "v": 80
    },
    {
      "midi": 63,
      "hit": false,
      "t": 240317.98074166325,
      "d": 457.7703333333193,
      "v": 50
    },
    {
      "midi": 56,
      "hit": false,
      "t": 240329.42499999658,
      "d": 446.32607499998994,
      "v": 71
    },
    {
      "midi": 59,
      "hit": false,
      "t": 240329.42499999658,
      "d": 446.32607499998994,
      "v": 85
    },
    {
      "midi": 44,
      "hit": false,
      "t": 240340.8692583299,
      "d": 434.8818166666606,
      "v": 81
    },
    {
      "midi": 56,
      "hit": false,
      "t": 240775.75107499657,
      "d": 457.7703333333193,
      "v": 69
    },
    {
      "midi": 59,
      "hit": false,
      "t": 240775.75107499657,
      "d": 457.7703333333193,
      "v": 85
    },
    {
      "midi": 63,
      "hit": false,
      "t": 240775.75107499657,
      "d": 457.7703333333193,
      "v": 51
    },
    {
      "midi": 44,
      "hit": false,
      "t": 240798.63959166323,
      "d": 423.43755833333125,
      "v": 81
    },
    {
      "midi": 56,
      "hit": false,
      "t": 241233.5214083299,
      "d": 457.7703333333193,
      "v": 67
    },
    {
      "midi": 59,
      "hit": false,
      "t": 241233.5214083299,
      "d": 457.7703333333193,
      "v": 84
    },
    {
      "midi": 63,
      "hit": false,
      "t": 241233.5214083299,
      "d": 457.7703333333193,
      "v": 50
    },
    {
      "midi": 44,
      "hit": false,
      "t": 241256.40992499655,
      "d": 423.43755833333125,
      "v": 85
    },
    {
      "midi": 59,
      "hit": false,
      "t": 241691.2917416632,
      "d": 457.7703333333193,
      "v": 84
    },
    {
      "midi": 63,
      "hit": false,
      "t": 241691.2917416632,
      "d": 457.7703333333193,
      "v": 46
    },
    {
      "midi": 44,
      "hit": false,
      "t": 241714.18025832987,
      "d": 434.8818166666606,
      "v": 83
    },
    {
      "midi": 56,
      "hit": false,
      "t": 242149.06207499653,
      "d": 457.7703333333193,
      "v": 58
    },
    {
      "midi": 59,
      "hit": false,
      "t": 242149.06207499653,
      "d": 457.7703333333193,
      "v": 76
    },
    {
      "midi": 63,
      "hit": false,
      "t": 242149.06207499653,
      "d": 457.7703333333193,
      "v": 44
    },
    {
      "midi": 44,
      "hit": false,
      "t": 242171.9505916632,
      "d": 423.43755833333125,
      "v": 76
    },
    {
      "midi": 56,
      "hit": false,
      "t": 242606.83240832985,
      "d": 457.7703333333193,
      "v": 70
    },
    {
      "midi": 59,
      "hit": false,
      "t": 242606.83240832985,
      "d": 457.7703333333193,
      "v": 81
    },
    {
      "midi": 63,
      "hit": false,
      "t": 242606.83240832985,
      "d": 457.7703333333193,
      "v": 47
    },
    {
      "midi": 44,
      "hit": false,
      "t": 242618.27666666318,
      "d": 446.32607499998994,
      "v": 82
    },
    {
      "midi": 56,
      "hit": false,
      "t": 243064.60274166317,
      "d": 457.7703333333193,
      "v": 68
    },
    {
      "midi": 59,
      "hit": false,
      "t": 243064.60274166317,
      "d": 457.7703333333193,
      "v": 80
    },
    {
      "midi": 63,
      "hit": false,
      "t": 243064.60274166317,
      "d": 457.7703333333193,
      "v": 46
    },
    {
      "midi": 44,
      "hit": false,
      "t": 243076.0469999965,
      "d": 446.32607499998994,
      "v": 71
    },
    {
      "midi": 59,
      "hit": false,
      "t": 243522.3730749965,
      "d": 457.7703333333193,
      "v": 84
    },
    {
      "midi": 63,
      "hit": false,
      "t": 243522.3730749965,
      "d": 457.7703333333193,
      "v": 49
    },
    {
      "midi": 56,
      "hit": false,
      "t": 243533.81733332982,
      "d": 446.32607499998994,
      "v": 78
    },
    {
      "midi": 44,
      "hit": false,
      "t": 243545.26159166315,
      "d": 423.43755833333125,
      "v": 76
    },
    {
      "midi": 44,
      "hit": false,
      "t": 243980.1434083298,
      "d": 457.7703333333193,
      "v": 68
    },
    {
      "midi": 56,
      "hit": false,
      "t": 243980.1434083298,
      "d": 457.7703333333193,
      "v": 78
    },
    {
      "midi": 59,
      "hit": false,
      "t": 243980.1434083298,
      "d": 457.7703333333193,
      "v": 90
    },
    {
      "midi": 63,
      "hit": false,
      "t": 243980.1434083298,
      "d": 457.7703333333193,
      "v": 67
    },
    {
      "midi": 55,
      "hit": false,
      "t": 244437.91374166313,
      "d": 457.7703333333193,
      "v": 95
    },
    {
      "midi": 58,
      "hit": false,
      "t": 244437.91374166313,
      "d": 457.7703333333193,
      "v": 85
    },
    {
      "midi": 63,
      "hit": false,
      "t": 244437.91374166313,
      "d": 457.7703333333193,
      "v": 64
    },
    {
      "midi": 39,
      "hit": false,
      "t": 244449.35799999646,
      "d": 446.32607499998994,
      "v": 105
    },
    {
      "midi": 55,
      "hit": false,
      "t": 244895.68407499645,
      "d": 457.7703333333193,
      "v": 85
    },
    {
      "midi": 58,
      "hit": false,
      "t": 244895.68407499645,
      "d": 457.7703333333193,
      "v": 73
    },
    {
      "midi": 63,
      "hit": false,
      "t": 244895.68407499645,
      "d": 457.7703333333193,
      "v": 70
    },
    {
      "midi": 39,
      "hit": false,
      "t": 244918.5725916631,
      "d": 423.43755833333125,
      "v": 79
    },
    {
      "midi": 39,
      "hit": false,
      "t": 245353.45440832977,
      "d": 457.7703333333193,
      "v": 76
    },
    {
      "midi": 55,
      "hit": false,
      "t": 245353.45440832977,
      "d": 457.7703333333193,
      "v": 73
    },
    {
      "midi": 58,
      "hit": false,
      "t": 245353.45440832977,
      "d": 457.7703333333193,
      "v": 72
    },
    {
      "midi": 63,
      "hit": false,
      "t": 245353.45440832977,
      "d": 457.7703333333193,
      "v": 72
    },
    {
      "midi": 39,
      "hit": false,
      "t": 245811.22474166309,
      "d": 446.32607499998994,
      "v": 82
    },
    {
      "midi": 55,
      "hit": false,
      "t": 245811.22474166309,
      "d": 457.7703333333193,
      "v": 86
    },
    {
      "midi": 58,
      "hit": false,
      "t": 245811.22474166309,
      "d": 457.7703333333193,
      "v": 76
    },
    {
      "midi": 63,
      "hit": false,
      "t": 245811.22474166309,
      "d": 457.7703333333193,
      "v": 66
    },
    {
      "midi": 39,
      "hit": false,
      "t": 246268.9950749964,
      "d": 446.32607499998994,
      "v": 82
    },
    {
      "midi": 55,
      "hit": false,
      "t": 246268.9950749964,
      "d": 457.7703333333193,
      "v": 76
    },
    {
      "midi": 58,
      "hit": false,
      "t": 246268.9950749964,
      "d": 457.7703333333193,
      "v": 69
    },
    {
      "midi": 63,
      "hit": false,
      "t": 246268.9950749964,
      "d": 457.7703333333193,
      "v": 61
    },
    {
      "midi": 39,
      "hit": false,
      "t": 246726.76540832972,
      "d": 457.7703333333193,
      "v": 80
    },
    {
      "midi": 55,
      "hit": false,
      "t": 246726.76540832972,
      "d": 457.7703333333193,
      "v": 76
    },
    {
      "midi": 58,
      "hit": false,
      "t": 246726.76540832972,
      "d": 457.7703333333193,
      "v": 76
    },
    {
      "midi": 63,
      "hit": false,
      "t": 246726.76540832972,
      "d": 457.7703333333193,
      "v": 71
    },
    {
      "midi": 55,
      "hit": false,
      "t": 247184.53574166304,
      "d": 457.7703333333193,
      "v": 85
    },
    {
      "midi": 58,
      "hit": false,
      "t": 247184.53574166304,
      "d": 457.7703333333193,
      "v": 80
    },
    {
      "midi": 63,
      "hit": false,
      "t": 247184.53574166304,
      "d": 457.7703333333193,
      "v": 68
    },
    {
      "midi": 39,
      "hit": false,
      "t": 247195.97999999637,
      "d": 446.32607499998994,
      "v": 66
    },
    {
      "midi": 58,
      "hit": false,
      "t": 247642.30607499636,
      "d": 457.7703333333193,
      "v": 66
    },
    {
      "midi": 39,
      "hit": false,
      "t": 247653.7503333297,
      "d": 434.8818166666606,
      "v": 80
    },
    {
      "midi": 55,
      "hit": false,
      "t": 247653.7503333297,
      "d": 446.32607499998994,
      "v": 68
    },
    {
      "midi": 63,
      "hit": false,
      "t": 247653.7503333297,
      "d": 446.32607499998994,
      "v": 53
    },
    {
      "midi": 55,
      "hit": false,
      "t": 248100.07640832968,
      "d": 457.7703333333193,
      "v": 86
    },
    {
      "midi": 58,
      "hit": false,
      "t": 248100.07640832968,
      "d": 457.7703333333193,
      "v": 81
    },
    {
      "midi": 63,
      "hit": false,
      "t": 248100.07640832968,
      "d": 457.7703333333193,
      "v": 67
    },
    {
      "midi": 39,
      "hit": false,
      "t": 248111.520666663,
      "d": 446.32607499998994,
      "v": 76
    },
    {
      "midi": 55,
      "hit": false,
      "t": 248557.846741663,
      "d": 457.7703333333193,
      "v": 81
    },
    {
      "midi": 58,
      "hit": false,
      "t": 248557.846741663,
      "d": 457.7703333333193,
      "v": 79
    },
    {
      "midi": 63,
      "hit": false,
      "t": 248557.846741663,
      "d": 457.7703333333193,
      "v": 67
    },
    {
      "midi": 39,
      "hit": false,
      "t": 248569.29099999633,
      "d": 434.8818166666606,
      "v": 65
    },
    {
      "midi": 39,
      "hit": false,
      "t": 249015.61707499632,
      "d": 446.32607499998994,
      "v": 46
    },
    {
      "midi": 55,
      "hit": false,
      "t": 249015.61707499632,
      "d": 457.7703333333193,
      "v": 80
    },
    {
      "midi": 58,
      "hit": false,
      "t": 249015.61707499632,
      "d": 457.7703333333193,
      "v": 79
    },
    {
      "midi": 63,
      "hit": false,
      "t": 249015.61707499632,
      "d": 457.7703333333193,
      "v": 66
    },
    {
      "midi": 39,
      "hit": false,
      "t": 249473.38740832964,
      "d": 457.7703333333193,
      "v": 52
    },
    {
      "midi": 55,
      "hit": false,
      "t": 249473.38740832964,
      "d": 457.7703333333193,
      "v": 84
    },
    {
      "midi": 58,
      "hit": false,
      "t": 249473.38740832964,
      "d": 457.7703333333193,
      "v": 78
    },
    {
      "midi": 63,
      "hit": false,
      "t": 249473.38740832964,
      "d": 457.7703333333193,
      "v": 64
    },
    {
      "midi": 55,
      "hit": false,
      "t": 249931.15774166296,
      "d": 457.7703333333193,
      "v": 89
    },
    {
      "midi": 60,
      "hit": false,
      "t": 249931.15774166296,
      "d": 457.7703333333193,
      "v": 104
    },
    {
      "midi": 64,
      "hit": false,
      "t": 249931.15774166296,
      "d": 457.7703333333193,
      "v": 93
    },
    {
      "midi": 48,
      "hit": false,
      "t": 249942.6019999963,
      "d": 446.32607499998994,
      "v": 76
    },
    {
      "midi": 48,
      "hit": false,
      "t": 250388.92807499628,
      "d": 446.32607499998994,
      "v": 82
    },
    {
      "midi": 55,
      "hit": false,
      "t": 250400.3723333296,
      "d": 446.32607499998994,
      "v": 81
    },
    {
      "midi": 60,
      "hit": false,
      "t": 250400.3723333296,
      "d": 446.32607499998994,
      "v": 89
    },
    {
      "midi": 64,
      "hit": false,
      "t": 250400.3723333296,
      "d": 446.32607499998994,
      "v": 81
    },
    {
      "midi": 48,
      "hit": false,
      "t": 250846.6984083296,
      "d": 446.32607499998994,
      "v": 94
    },
    {
      "midi": 55,
      "hit": false,
      "t": 250846.6984083296,
      "d": 457.7703333333193,
      "v": 86
    },
    {
      "midi": 60,
      "hit": false,
      "t": 250846.6984083296,
      "d": 457.7703333333193,
      "v": 93
    },
    {
      "midi": 64,
      "hit": false,
      "t": 250846.6984083296,
      "d": 457.7703333333193,
      "v": 84
    },
    {
      "midi": 48,
      "hit": false,
      "t": 251304.46874166292,
      "d": 446.32607499998994,
      "v": 99
    },
    {
      "midi": 55,
      "hit": false,
      "t": 251304.46874166292,
      "d": 457.7703333333193,
      "v": 94
    },
    {
      "midi": 60,
      "hit": false,
      "t": 251304.46874166292,
      "d": 457.7703333333193,
      "v": 99
    },
    {
      "midi": 64,
      "hit": false,
      "t": 251304.46874166292,
      "d": 457.7703333333193,
      "v": 89
    },
    {
      "midi": 48,
      "hit": false,
      "t": 251762.23907499624,
      "d": 446.32607499998994,
      "v": 93
    },
    {
      "midi": 55,
      "hit": false,
      "t": 251762.23907499624,
      "d": 457.7703333333193,
      "v": 80
    },
    {
      "midi": 60,
      "hit": false,
      "t": 251762.23907499624,
      "d": 457.7703333333193,
      "v": 86
    },
    {
      "midi": 64,
      "hit": false,
      "t": 251762.23907499624,
      "d": 457.7703333333193,
      "v": 77
    },
    {
      "midi": 48,
      "hit": false,
      "t": 252220.00940832956,
      "d": 457.7703333333193,
      "v": 98
    },
    {
      "midi": 55,
      "hit": false,
      "t": 252220.00940832956,
      "d": 457.7703333333193,
      "v": 94
    },
    {
      "midi": 60,
      "hit": false,
      "t": 252220.00940832956,
      "d": 457.7703333333193,
      "v": 98
    },
    {
      "midi": 64,
      "hit": false,
      "t": 252220.00940832956,
      "d": 457.7703333333193,
      "v": 84
    },
    {
      "midi": 48,
      "hit": false,
      "t": 252677.77974166287,
      "d": 457.7703333333193,
      "v": 95
    },
    {
      "midi": 55,
      "hit": false,
      "t": 252677.77974166287,
      "d": 457.7703333333193,
      "v": 93
    },
    {
      "midi": 60,
      "hit": false,
      "t": 252677.77974166287,
      "d": 457.7703333333193,
      "v": 89
    },
    {
      "midi": 64,
      "hit": false,
      "t": 252677.77974166287,
      "d": 457.7703333333193,
      "v": 78
    },
    {
      "midi": 60,
      "hit": false,
      "t": 253135.5500749962,
      "d": 457.7703333333193,
      "v": 84
    },
    {
      "midi": 64,
      "hit": false,
      "t": 253135.5500749962,
      "d": 457.7703333333193,
      "v": 77
    },
    {
      "midi": 55,
      "hit": false,
      "t": 253146.99433332952,
      "d": 446.32607499998994,
      "v": 89
    },
    {
      "midi": 48,
      "hit": false,
      "t": 253158.43859166285,
      "d": 434.8818166666606,
      "v": 98
    },
    {
      "midi": 48,
      "hit": false,
      "t": 253593.3204083295,
      "d": 446.32607499998994,
      "v": 98
    },
    {
      "midi": 55,
      "hit": false,
      "t": 253593.3204083295,
      "d": 457.7703333333193,
      "v": 89
    },
    {
      "midi": 60,
      "hit": false,
      "t": 253593.3204083295,
      "d": 457.7703333333193,
      "v": 89
    },
    {
      "midi": 64,
      "hit": false,
      "t": 253593.3204083295,
      "d": 457.7703333333193,
      "v": 80
    },
    {
      "midi": 48,
      "hit": false,
      "t": 254051.09074166283,
      "d": 457.7703333333193,
      "v": 94
    },
    {
      "midi": 60,
      "hit": false,
      "t": 254051.09074166283,
      "d": 457.7703333333193,
      "v": 78
    },
    {
      "midi": 55,
      "hit": false,
      "t": 254062.53499999616,
      "d": 446.32607499998994,
      "v": 84
    },
    {
      "midi": 64,
      "hit": false,
      "t": 254062.53499999616,
      "d": 446.32607499998994,
      "v": 72
    },
    {
      "midi": 60,
      "hit": false,
      "t": 254508.86107499615,
      "d": 457.7703333333193,
      "v": 80
    },
    {
      "midi": 55,
      "hit": false,
      "t": 254520.30533332948,
      "d": 446.32607499998994,
      "v": 76
    },
    {
      "midi": 64,
      "hit": false,
      "t": 254520.30533332948,
      "d": 446.32607499998994,
      "v": 71
    },
    {
      "midi": 48,
      "hit": false,
      "t": 254531.7495916628,
      "d": 434.8818166666606,
      "v": 95
    },
    {
      "midi": 48,
      "hit": false,
      "t": 254966.63140832947,
      "d": 446.32607499998994,
      "v": 94
    },
    {
      "midi": 55,
      "hit": false,
      "t": 254966.63140832947,
      "d": 457.7703333333193,
      "v": 55
    },
    {
      "midi": 60,
      "hit": false,
      "t": 254966.63140832947,
      "d": 457.7703333333193,
      "v": 82
    },
    {
      "midi": 64,
      "hit": false,
      "t": 254966.63140832947,
      "d": 457.7703333333193,
      "v": 73
    },
    {
      "midi": 41,
      "hit": false,
      "t": 255435.84599999612,
      "d": 434.8818166666606,
      "v": 119
    },
    {
      "midi": 57,
      "hit": false,
      "t": 255447.29025832945,
      "d": 434.8818166666606,
      "v": 74
    },
    {
      "midi": 60,
      "hit": false,
      "t": 255447.29025832945,
      "d": 434.8818166666606,
      "v": 74
    },
    {
      "midi": 65,
      "hit": false,
      "t": 255447.29025832945,
      "d": 434.8818166666606,
      "v": 74
    },
    {
      "midi": 41,
      "hit": false,
      "t": 255882.1720749961,
      "d": 446.32607499998994,
      "v": 84
    },
    {
      "midi": 57,
      "hit": false,
      "t": 255905.06059166277,
      "d": 434.8818166666606,
      "v": 74
    },
    {
      "midi": 60,
      "hit": false,
      "t": 255905.06059166277,
      "d": 434.8818166666606,
      "v": 74
    },
    {
      "midi": 65,
      "hit": false,
      "t": 255905.06059166277,
      "d": 434.8818166666606,
      "v": 74
    },
    {
      "midi": 41,
      "hit": false,
      "t": 256339.94240832943,
      "d": 446.32607499998994,
      "v": 89
    },
    {
      "midi": 57,
      "hit": false,
      "t": 256362.8309249961,
      "d": 434.8818166666606,
      "v": 74
    },
    {
      "midi": 60,
      "hit": false,
      "t": 256362.8309249961,
      "d": 434.8818166666606,
      "v": 74
    },
    {
      "midi": 65,
      "hit": false,
      "t": 256362.8309249961,
      "d": 434.8818166666606,
      "v": 74
    },
    {
      "midi": 41,
      "hit": false,
      "t": 256797.71274166275,
      "d": 446.32607499998994,
      "v": 104
    },
    {
      "midi": 57,
      "hit": false,
      "t": 256820.6012583294,
      "d": 434.8818166666606,
      "v": 74
    },
    {
      "midi": 60,
      "hit": false,
      "t": 256820.6012583294,
      "d": 434.8818166666606,
      "v": 74
    },
    {
      "midi": 65,
      "hit": false,
      "t": 256820.6012583294,
      "d": 434.8818166666606,
      "v": 74
    },
    {
      "midi": 41,
      "hit": false,
      "t": 257278.37159166273,
      "d": 423.43755833333125,
      "v": 99
    },
    {
      "midi": 57,
      "hit": false,
      "t": 257278.37159166273,
      "d": 434.8818166666606,
      "v": 74
    },
    {
      "midi": 60,
      "hit": false,
      "t": 257278.37159166273,
      "d": 434.8818166666606,
      "v": 74
    },
    {
      "midi": 65,
      "hit": false,
      "t": 257278.37159166273,
      "d": 434.8818166666606,
      "v": 74
    },
    {
      "midi": 60,
      "hit": false,
      "t": 257713.2534083294,
      "d": 457.7703333333193,
      "v": 74
    },
    {
      "midi": 57,
      "hit": false,
      "t": 257724.69766666272,
      "d": 446.32607499998994,
      "v": 74
    },
    {
      "midi": 65,
      "hit": false,
      "t": 257724.69766666272,
      "d": 446.32607499998994,
      "v": 74
    },
    {
      "midi": 41,
      "hit": false,
      "t": 257736.14192499605,
      "d": 423.43755833333125,
      "v": 105
    },
    {
      "midi": 60,
      "hit": false,
      "t": 258171.0237416627,
      "d": 457.7703333333193,
      "v": 74
    },
    {
      "midi": 57,
      "hit": false,
      "t": 258182.46799999604,
      "d": 446.32607499998994,
      "v": 74
    },
    {
      "midi": 65,
      "hit": false,
      "t": 258182.46799999604,
      "d": 446.32607499998994,
      "v": 74
    },
    {
      "midi": 41,
      "hit": false,
      "t": 258193.91225832936,
      "d": 423.43755833333125,
      "v": 104
    },
    {
      "midi": 60,
      "hit": false,
      "t": 258640.23833332935,
      "d": 446.32607499998994,
      "v": 74
    },
    {
      "midi": 41,
      "hit": false,
      "t": 258651.68259166268,
      "d": 423.43755833333125,
      "v": 94
    },
    {
      "midi": 57,
      "hit": false,
      "t": 258651.68259166268,
      "d": 434.8818166666606,
      "v": 74
    },
    {
      "midi": 65,
      "hit": false,
      "t": 258651.68259166268,
      "d": 434.8818166666606,
      "v": 74
    },
    {
      "midi": 60,
      "hit": false,
      "t": 259086.56440832934,
      "d": 457.7703333333193,
      "v": 74
    },
    {
      "midi": 65,
      "hit": false,
      "t": 259086.56440832934,
      "d": 457.7703333333193,
      "v": 74
    },
    {
      "midi": 57,
      "hit": false,
      "t": 259098.00866666267,
      "d": 446.32607499998994,
      "v": 74
    },
    {
      "midi": 41,
      "hit": false,
      "t": 259109.452924996,
      "d": 423.43755833333125,
      "v": 101
    },
    {
      "midi": 60,
      "hit": false,
      "t": 259555.778999996,
      "d": 446.32607499998994,
      "v": 74
    },
    {
      "midi": 41,
      "hit": false,
      "t": 259567.22325832932,
      "d": 423.43755833333125,
      "v": 104
    },
    {
      "midi": 57,
      "hit": false,
      "t": 259567.22325832932,
      "d": 434.8818166666606,
      "v": 74
    },
    {
      "midi": 65,
      "hit": false,
      "t": 259567.22325832932,
      "d": 434.8818166666606,
      "v": 74
    },
    {
      "midi": 41,
      "hit": false,
      "t": 260024.99359166264,
      "d": 423.43755833333125,
      "v": 98
    },
    {
      "midi": 57,
      "hit": false,
      "t": 260024.99359166264,
      "d": 434.8818166666606,
      "v": 74
    },
    {
      "midi": 60,
      "hit": false,
      "t": 260024.99359166264,
      "d": 434.8818166666606,
      "v": 74
    },
    {
      "midi": 65,
      "hit": false,
      "t": 260024.99359166264,
      "d": 434.8818166666606,
      "v": 74
    },
    {
      "midi": 60,
      "hit": false,
      "t": 260459.8754083293,
      "d": 457.7703333333193,
      "v": 74
    },
    {
      "midi": 65,
      "hit": false,
      "t": 260459.8754083293,
      "d": 457.7703333333193,
      "v": 74
    },
    {
      "midi": 57,
      "hit": false,
      "t": 260471.31966666263,
      "d": 446.32607499998994,
      "v": 74
    },
    {
      "midi": 41,
      "hit": false,
      "t": 260482.76392499596,
      "d": 423.43755833333125,
      "v": 101
    },
    {
      "midi": 34,
      "hit": false,
      "t": 260929.08999999595,
      "d": 5493.244000000006,
      "v": 83
    },
    {
      "midi": 53,
      "hit": false,
      "t": 260929.08999999595,
      "d": 5493.244000000006,
      "v": 105
    },
    {
      "midi": 58,
      "hit": false,
      "t": 260929.08999999595,
      "d": 5493.244000000006,
      "v": 97
    },
    {
      "midi": 62,
      "hit": false,
      "t": 260929.08999999595,
      "d": 5493.244000000006,
      "v": 85
    },
    {
      "midi": 44,
      "hit": false,
      "t": 269168.95599999593,
      "d": 2746.621999999974,
      "v": 105
    },
    {
      "midi": 56,
      "hit": false,
      "t": 269168.95599999593,
      "d": 2746.621999999974,
      "v": 97
    },
    {
      "midi": 60,
      "hit": false,
      "t": 269168.95599999593,
      "d": 2746.621999999974,
      "v": 98
    },
    {
      "midi": 63,
      "hit": false,
      "t": 269168.95599999593,
      "d": 2746.621999999974,
      "v": 67
    },
    {
      "midi": 39,
      "hit": false,
      "t": 271915.5779999959,
      "d": 5493.244000000006,
      "v": 99
    },
    {
      "midi": 55,
      "hit": false,
      "t": 271915.5779999959,
      "d": 5493.244000000006,
      "v": 95
    },
    {
      "midi": 58,
      "hit": false,
      "t": 271915.5779999959,
      "d": 5493.244000000006,
      "v": 97
    },
    {
      "midi": 63,
      "hit": false,
      "t": 271915.5779999959,
      "d": 5493.244000000006,
      "v": 89
    }
  ]
}