{
  "jsonPath": "Soundtracks/British Soundtrack/Jocelyn Pook/forever-without-end.json",
  "path": "Soundtracks\\British Soundtrack\\Jocelyn Pook\\Forever Without End.mid",
  "name": "Forever Without End",
  "difficulty": "Advanced",
  "bpm": 80,
  "notes": [
    {
      "midi": 79,
      "hit": false,
      "t": 1714.2840000000003,
      "d": 1714.2840000000003,
      "v": 36
    },
    {
      "midi": 86,
      "hit": false,
      "t": 3428.5680000000007,
      "d": 1714.284,
      "v": 36
    },
    {
      "midi": 79,
      "hit": false,
      "t": 8571.420000000002,
      "d": 857.1419999999998,
      "v": 36
    },
    {
      "midi": 86,
      "hit": false,
      "t": 9428.562000000002,
      "d": 857.1419999999998,
      "v": 36
    },
    {
      "midi": 89,
      "hit": false,
      "t": 10285.704000000002,
      "d": 2571.4259999999995,
      "v": 36
    },
    {
      "midi": 79,
      "hit": false,
      "t": 15428.556,
      "d": 1714.2839999999997,
      "v": 36
    },
    {
      "midi": 86,
      "hit": false,
      "t": 17142.84,
      "d": 2571.4259999999995,
      "v": 36
    },
    {
      "midi": 79,
      "hit": false,
      "t": 22285.692,
      "d": 857.1419999999998,
      "v": 36
    },
    {
      "midi": 86,
      "hit": false,
      "t": 23142.834,
      "d": 857.1419999999998,
      "v": 36
    },
    {
      "midi": 91,
      "hit": false,
      "t": 23999.976,
      "d": 2571.4259999999995,
      "v": 36
    },
    {
      "midi": 53,
      "hit": false,
      "t": 45857.097,
      "d": 428.57100000000355,
      "v": 48
    },
    {
      "midi": 56,
      "hit": false,
      "t": 46285.668000000005,
      "d": 428.57100000000355,
      "v": 48
    },
    {
      "midi": 53,
      "hit": false,
      "t": 46714.23900000001,
      "d": 428.57100000000355,
      "v": 48
    },
    {
      "midi": 60,
      "hit": false,
      "t": 47142.81000000001,
      "d": 428.57100000000355,
      "v": 48
    },
    {
      "midi": 56,
      "hit": false,
      "t": 47571.381000000016,
      "d": 428.57100000000355,
      "v": 48
    },
    {
      "midi": 49,
      "hit": false,
      "t": 47999.95200000002,
      "d": 428.57100000000355,
      "v": 48
    },
    {
      "midi": 53,
      "hit": false,
      "t": 48428.52300000002,
      "d": 428.57100000000355,
      "v": 48
    },
    {
      "midi": 56,
      "hit": false,
      "t": 48857.09400000003,
      "d": 428.57100000000355,
      "v": 48
    },
    {
      "midi": 53,
      "hit": false,
      "t": 49285.66500000003,
      "d": 428.57100000000355,
      "v": 48
    },
    {
      "midi": 61,
      "hit": false,
      "t": 49714.23600000003,
      "d": 428.57100000000355,
      "v": 48
    },
    {
      "midi": 56,
      "hit": false,
      "t": 50142.80700000004,
      "d": 428.57100000000355,
      "v": 48
    },
    {
      "midi": 46,
      "hit": false,
      "t": 50999.949000000044,
      "d": 428.57100000000355,
      "v": 48
    },
    {
      "midi": 51,
      "hit": false,
      "t": 51428.52000000005,
      "d": 428.57100000000355,
      "v": 48
    },
    {
      "midi": 55,
      "hit": false,
      "t": 51857.09100000005,
      "d": 428.57100000000355,
      "v": 48
    },
    {
      "midi": 58,
      "hit": false,
      "t": 52285.662000000055,
      "d": 428.57100000000355,
      "v": 48
    },
    {
      "midi": 55,
      "hit": false,
      "t": 52714.23300000006,
      "d": 428.57100000000355,
      "v": 48
    },
    {
      "midi": 48,
      "hit": false,
      "t": 53142.80400000006,
      "d": 428.57100000000355,
      "v": 48
    },
    {
      "midi": 51,
      "hit": false,
      "t": 53571.375000000065,
      "d": 428.57100000000355,
      "v": 48
    },
    {
      "midi": 60,
      "hit": false,
      "t": 53999.94600000007,
      "d": 428.57100000000355,
      "v": 48
    },
    {
      "midi": 58,
      "hit": false,
      "t": 54428.51700000007,
      "d": 428.57100000000355,
      "v": 48
    },
    {
      "midi": 55,
      "hit": false,
      "t": 54857.088000000076,
      "d": 428.57100000000355,
      "v": 48
    },
    {
      "midi": 51,
      "hit": false,
      "t": 55285.65900000008,
      "d": 428.57100000000355,
      "v": 48
    },
    {
      "midi": 49,
      "hit": false,
      "t": 55714.23000000008,
      "d": 428.57100000000355,
      "v": 48
    },
    {
      "midi": 53,
      "hit": false,
      "t": 56142.80100000009,
      "d": 428.57100000000355,
      "v": 48
    },
    {
      "midi": 56,
      "hit": false,
      "t": 56571.37200000009,
      "d": 428.57100000000355,
      "v": 48
    },
    {
      "midi": 53,
      "hit": false,
      "t": 56999.943000000094,
      "d": 428.57100000000355,
      "v": 48
    },
    {
      "midi": 61,
      "hit": false,
      "t": 57428.5140000001,
      "d": 428.57100000000355,
      "v": 48
    },
    {
      "midi": 56,
      "hit": false,
      "t": 57857.0850000001,
      "d": 428.57100000000355,
      "v": 48
    },
    {
      "midi": 46,
      "hit": false,
      "t": 58285.656000000105,
      "d": 428.57100000000355,
      "v": 48
    },
    {
      "midi": 49,
      "hit": false,
      "t": 58714.22700000011,
      "d": 428.57100000000355,
      "v": 48
    },
    {
      "midi": 53,
      "hit": false,
      "t": 59142.79800000011,
      "d": 428.57100000000355,
      "v": 48
    },
    {
      "midi": 49,
      "hit": false,
      "t": 59571.369000000115,
      "d": 428.57100000000355,
      "v": 48
    },
    {
      "midi": 56,
      "hit": false,
      "t": 59999.94000000012,
      "d": 428.57100000000355,
      "v": 48
    },
    {
      "midi": 53,
      "hit": false,
      "t": 60428.51100000012,
      "d": 857.1419999999998,
      "v": 48
    },
    {
      "midi": 55,
      "hit": false,
      "t": 61285.65300000012,
      "d": 428.57100000000355,
      "v": 48
    },
    {
      "midi": 52,
      "hit": false,
      "t": 61714.224000000126,
      "d": 428.57100000000355,
      "v": 48
    },
    {
      "midi": 53,
      "hit": false,
      "t": 62142.79500000013,
      "d": 428.57100000000355,
      "v": 48
    },
    {
      "midi": 55,
      "hit": false,
      "t": 62571.36600000013,
      "d": 428.57100000000355,
      "v": 48
    },
    {
      "midi": 58,
      "hit": false,
      "t": 62999.937000000136,
      "d": 428.57100000000355,
      "v": 48
    },
    {
      "midi": 60,
      "hit": false,
      "t": 63428.50800000014,
      "d": 428.57100000000355,
      "v": 54
    },
    {
      "midi": 61,
      "hit": false,
      "t": 63857.07900000014,
      "d": 428.57100000000355,
      "v": 54
    },
    {
      "midi": 60,
      "hit": false,
      "t": 64285.65000000015,
      "d": 428.57100000000355,
      "v": 54
    },
    {
      "midi": 58,
      "hit": false,
      "t": 64714.22100000015,
      "d": 428.57100000000355,
      "v": 54
    },
    {
      "midi": 56,
      "hit": false,
      "t": 65142.792000000154,
      "d": 428.57100000000355,
      "v": 54
    },
    {
      "midi": 55,
      "hit": false,
      "t": 65571.36300000016,
      "d": 428.5709999999963,
      "v": 54
    },
    {
      "midi": 53,
      "hit": false,
      "t": 65999.93400000015,
      "d": 214.28549999999814,
      "v": 127
    },
    {
      "midi": 56,
      "hit": false,
      "t": 66208.86236250015,
      "d": 214.28549999999814,
      "v": 127
    },
    {
      "midi": 60,
      "hit": false,
      "t": 66423.14786250015,
      "d": 214.28549999999814,
      "v": 127
    },
    {
      "midi": 65,
      "hit": false,
      "t": 66642.79050000015,
      "d": 214.28549999999814,
      "v": 127
    },
    {
      "midi": 68,
      "hit": false,
      "t": 66857.07600000015,
      "d": 214.28549999999814,
      "v": 127
    },
    {
      "midi": 72,
      "hit": false,
      "t": 67071.36150000014,
      "d": 214.28549999999814,
      "v": 127
    },
    {
      "midi": 68,
      "hit": false,
      "t": 67285.64700000014,
      "d": 214.28549999999814,
      "v": 127
    },
    {
      "midi": 72,
      "hit": false,
      "t": 67499.93250000014,
      "d": 214.28549999999814,
      "v": 127
    },
    {
      "midi": 68,
      "hit": false,
      "t": 67714.21800000014,
      "d": 214.28549999999814,
      "v": 127
    },
    {
      "midi": 65,
      "hit": false,
      "t": 67928.50350000014,
      "d": 214.28549999999814,
      "v": 127
    },
    {
      "midi": 60,
      "hit": false,
      "t": 68142.78900000014,
      "d": 214.28549999999814,
      "v": 127
    },
    {
      "midi": 56,
      "hit": false,
      "t": 68357.07450000013,
      "d": 214.28549999999814,
      "v": 127
    },
    {
      "midi": 49,
      "hit": false,
      "t": 68571.36000000013,
      "d": 214.28549999999814,
      "v": 127
    },
    {
      "midi": 53,
      "hit": false,
      "t": 68785.64550000013,
      "d": 214.28549999999814,
      "v": 127
    },
    {
      "midi": 56,
      "hit": false,
      "t": 68999.93100000013,
      "d": 214.28549999999814,
      "v": 127
    },
    {
      "midi": 61,
      "hit": false,
      "t": 69214.21650000013,
      "d": 214.28549999999814,
      "v": 127
    },
    {
      "midi": 65,
      "hit": false,
      "t": 69428.50200000012,
      "d": 214.28549999999814,
      "v": 127
    },
    {
      "midi": 68,
      "hit": false,
      "t": 69642.78750000012,
      "d": 214.28549999999814,
      "v": 127
    },
    {
      "midi": 65,
      "hit": false,
      "t": 69857.07300000012,
      "d": 214.28549999999814,
      "v": 127
    },
    {
      "midi": 68,
      "hit": false,
      "t": 70071.35850000012,
      "d": 214.28549999999814,
      "v": 127
    },
    {
      "midi": 65,
      "hit": false,
      "t": 70285.64400000012,
      "d": 214.28549999999814,
      "v": 127
    },
    {
      "midi": 61,
      "hit": false,
      "t": 70499.92950000011,
      "d": 214.28549999999814,
      "v": 127
    },
    {
      "midi": 56,
      "hit": false,
      "t": 70714.21500000011,
      "d": 214.28549999999814,
      "v": 127
    },
    {
      "midi": 53,
      "hit": false,
      "t": 70928.50050000011,
      "d": 214.28549999999814,
      "v": 127
    },
    {
      "midi": 51,
      "hit": false,
      "t": 71142.78600000011,
      "d": 214.28549999999814,
      "v": 127
    },
    {
      "midi": 55,
      "hit": false,
      "t": 71357.07150000011,
      "d": 214.28549999999814,
      "v": 127
    },
    {
      "midi": 58,
      "hit": false,
      "t": 71571.3570000001,
      "d": 214.28549999999814,
      "v": 127
    },
    {
      "midi": 63,
      "hit": false,
      "t": 71785.6425000001,
      "d": 214.28549999999814,
      "v": 127
    },
    {
      "midi": 67,
      "hit": false,
      "t": 71999.9280000001,
      "d": 214.28549999999814,
      "v": 127
    },
    {
      "midi": 70,
      "hit": false,
      "t": 72214.2135000001,
      "d": 214.28549999999814,
      "v": 127
    },
    {
      "midi": 67,
      "hit": false,
      "t": 72428.4990000001,
      "d": 214.28549999999814,
      "v": 127
    },
    {
      "midi": 70,
      "hit": false,
      "t": 72642.7845000001,
      "d": 214.28549999999814,
      "v": 127
    },
    {
      "midi": 67,
      "hit": false,
      "t": 72857.0700000001,
      "d": 214.28549999999814,
      "v": 127
    },
    {
      "midi": 63,
      "hit": false,
      "t": 73071.35550000009,
      "d": 214.28549999999814,
      "v": 127
    },
    {
      "midi": 58,
      "hit": false,
      "t": 73285.64100000009,
      "d": 214.28549999999814,
      "v": 127
    },
    {
      "midi": 55,
      "hit": false,
      "t": 73499.92650000009,
      "d": 214.28549999999814,
      "v": 127
    },
    {
      "midi": 48,
      "hit": false,
      "t": 73714.21200000009,
      "d": 214.28549999999814,
      "v": 127
    },
    {
      "midi": 51,
      "hit": false,
      "t": 73928.49750000008,
      "d": 214.28549999999814,
      "v": 127
    },
    {
      "midi": 55,
      "hit": false,
      "t": 74142.78300000008,
      "d": 214.28549999999814,
      "v": 127
    },
    {
      "midi": 60,
      "hit": false,
      "t": 74357.06850000008,
      "d": 214.28549999999814,
      "v": 127
    },
    {
      "midi": 63,
      "hit": false,
      "t": 74571.35400000008,
      "d": 214.28549999999814,
      "v": 127
    },
    {
      "midi": 67,
      "hit": false,
      "t": 74785.63950000008,
      "d": 214.28549999999814,
      "v": 127
    },
    {
      "midi": 63,
      "hit": false,
      "t": 74999.92500000008,
      "d": 214.28549999999814,
      "v": 127
    },
    {
      "midi": 67,
      "hit": false,
      "t": 75214.21050000007,
      "d": 214.28549999999814,
      "v": 127
    },
    {
      "midi": 63,
      "hit": false,
      "t": 75428.49600000007,
      "d": 214.28549999999814,
      "v": 127
    },
    {
      "midi": 60,
      "hit": false,
      "t": 75642.78150000007,
      "d": 214.28549999999814,
      "v": 127
    },
    {
      "midi": 55,
      "hit": false,
      "t": 75857.06700000007,
      "d": 214.28549999999814,
      "v": 127
    },
    {
      "midi": 51,
      "hit": false,
      "t": 76071.35250000007,
      "d": 214.28549999999814,
      "v": 127
    },
    {
      "midi": 49,
      "hit": false,
      "t": 76285.63800000006,
      "d": 214.28549999999814,
      "v": 127
    },
    {
      "midi": 53,
      "hit": false,
      "t": 76499.92350000006,
      "d": 214.28549999999814,
      "v": 127
    },
    {
      "midi": 56,
      "hit": false,
      "t": 76714.20900000006,
      "d": 214.28549999999814,
      "v": 127
    },
    {
      "midi": 61,
      "hit": false,
      "t": 76928.49450000006,
      "d": 214.28549999999814,
      "v": 127
    },
    {
      "midi": 65,
      "hit": false,
      "t": 77142.78000000006,
      "d": 214.28549999999814,
      "v": 127
    },
    {
      "midi": 68,
      "hit": false,
      "t": 77357.06550000006,
      "d": 214.28549999999814,
      "v": 127
    },
    {
      "midi": 65,
      "hit": false,
      "t": 77571.35100000005,
      "d": 214.28549999999814,
      "v": 127
    },
    {
      "midi": 68,
      "hit": false,
      "t": 77785.63650000005,
      "d": 214.28549999999814,
      "v": 127
    },
    {
      "midi": 65,
      "hit": false,
      "t": 77999.92200000005,
      "d": 214.28549999999814,
      "v": 127
    },
    {
      "midi": 61,
      "hit": false,
      "t": 78214.20750000005,
      "d": 214.28549999999814,
      "v": 127
    },
    {
      "midi": 56,
      "hit": false,
      "t": 78428.49300000005,
      "d": 214.28549999999814,
      "v": 127
    },
    {
      "midi": 53,
      "hit": false,
      "t": 78642.77850000004,
      "d": 214.28549999999814,
      "v": 127
    },
    {
      "midi": 46,
      "hit": false,
      "t": 78857.06400000004,
      "d": 214.28549999999814,
      "v": 127
    },
    {
      "midi": 49,
      "hit": false,
      "t": 79071.34950000004,
      "d": 214.28549999999814,
      "v": 127
    },
    {
      "midi": 53,
      "hit": false,
      "t": 79285.63500000004,
      "d": 214.28549999999814,
      "v": 127
    },
    {
      "midi": 58,
      "hit": false,
      "t": 79499.92050000004,
      "d": 214.28549999999814,
      "v": 127
    },
    {
      "midi": 61,
      "hit": false,
      "t": 79714.20600000003,
      "d": 214.28549999999814,
      "v": 127
    },
    {
      "midi": 65,
      "hit": false,
      "t": 79928.49150000003,
      "d": 214.28549999999814,
      "v": 127
    },
    {
      "midi": 61,
      "hit": false,
      "t": 80142.77700000003,
      "d": 214.28549999999814,
      "v": 127
    },
    {
      "midi": 65,
      "hit": false,
      "t": 80357.06250000003,
      "d": 214.28549999999814,
      "v": 127
    },
    {
      "midi": 61,
      "hit": false,
      "t": 80571.34800000003,
      "d": 214.28549999999814,
      "v": 127
    },
    {
      "midi": 58,
      "hit": false,
      "t": 80785.63350000003,
      "d": 214.28549999999814,
      "v": 127
    },
    {
      "midi": 53,
      "hit": false,
      "t": 80999.91900000002,
      "d": 214.28549999999814,
      "v": 127
    },
    {
      "midi": 49,
      "hit": false,
      "t": 81214.20450000002,
      "d": 214.28549999999814,
      "v": 127
    },
    {
      "midi": 48,
      "hit": false,
      "t": 81428.49000000002,
      "d": 214.28549999999814,
      "v": 127
    },
    {
      "midi": 53,
      "hit": false,
      "t": 81642.77550000002,
      "d": 214.28549999999814,
      "v": 127
    },
    {
      "midi": 55,
      "hit": false,
      "t": 81857.06100000002,
      "d": 214.28549999999814,
      "v": 127
    },
    {
      "midi": 60,
      "hit": false,
      "t": 82071.34650000001,
      "d": 214.28549999999814,
      "v": 127
    },
    {
      "midi": 65,
      "hit": false,
      "t": 82285.63200000001,
      "d": 214.28549999999814,
      "v": 127
    },
    {
      "midi": 67,
      "hit": false,
      "t": 82499.91750000001,
      "d": 214.28549999999814,
      "v": 127
    },
    {
      "midi": 48,
      "hit": false,
      "t": 82714.20300000001,
      "d": 214.28549999999814,
      "v": 127
    },
    {
      "midi": 53,
      "hit": false,
      "t": 82928.4885,
      "d": 214.28549999999814,
      "v": 127
    },
    {
      "midi": 55,
      "hit": false,
      "t": 83142.774,
      "d": 214.28549999999814,
      "v": 127
    },
    {
      "midi": 60,
      "hit": false,
      "t": 83357.0595,
      "d": 214.28549999999814,
      "v": 127
    },
    {
      "midi": 65,
      "hit": false,
      "t": 83571.345,
      "d": 214.28549999999814,
      "v": 127
    },
    {
      "midi": 67,
      "hit": false,
      "t": 83785.6305,
      "d": 214.28549999999814,
      "v": 127
    },
    {
      "midi": 48,
      "hit": false,
      "t": 83999.916,
      "d": 214.28549999999814,
      "v": 127
    },
    {
      "midi": 52,
      "hit": false,
      "t": 84214.2015,
      "d": 214.28549999999814,
      "v": 127
    },
    {
      "midi": 55,
      "hit": false,
      "t": 84428.487,
      "d": 214.28549999999814,
      "v": 127
    },
    {
      "midi": 60,
      "hit": false,
      "t": 84642.77249999999,
      "d": 214.28549999999814,
      "v": 127
    },
    {
      "midi": 64,
      "hit": false,
      "t": 84857.05799999999,
      "d": 214.28549999999814,
      "v": 127
    },
    {
      "midi": 67,
      "hit": false,
      "t": 85071.34349999999,
      "d": 214.28549999999814,
      "v": 127
    },
    {
      "midi": 72,
      "hit": false,
      "t": 85285.62899999999,
      "d": 214.28549999999814,
      "v": 127
    },
    {
      "midi": 67,
      "hit": false,
      "t": 85499.91449999998,
      "d": 214.28549999999814,
      "v": 100
    },
    {
      "midi": 64,
      "hit": false,
      "t": 85714.19999999998,
      "d": 214.28549999999814,
      "v": 80
    },
    {
      "midi": 60,
      "hit": false,
      "t": 85928.48549999998,
      "d": 214.28549999999814,
      "v": 60
    },
    {
      "midi": 55,
      "hit": false,
      "t": 86142.77099999998,
      "d": 214.28549999999814,
      "v": 40
    },
    {
      "midi": 52,
      "hit": false,
      "t": 86357.05649999998,
      "d": 214.28549999999814,
      "v": 20
    },
    {
      "midi": 53,
      "hit": false,
      "t": 107571.32099999997,
      "d": 428.5709999999963,
      "v": 127
    },
    {
      "midi": 56,
      "hit": false,
      "t": 107999.89199999996,
      "d": 428.5709999999963,
      "v": 127
    },
    {
      "midi": 68,
      "hit": false,
      "t": 107999.89199999996,
      "d": 857.1419999999925,
      "v": 127
    },
    {
      "midi": 72,
      "hit": false,
      "t": 107999.89199999996,
      "d": 857.1419999999925,
      "v": 127
    },
    {
      "midi": 53,
      "hit": false,
      "t": 108428.46299999996,
      "d": 428.5709999999963,
      "v": 127
    },
    {
      "midi": 60,
      "hit": false,
      "t": 108857.03399999996,
      "d": 428.5709999999963,
      "v": 127
    },
    {
      "midi": 65,
      "hit": false,
      "t": 108857.03399999996,
      "d": 857.1419999999925,
      "v": 127
    },
    {
      "midi": 68,
      "hit": false,
      "t": 108857.03399999996,
      "d": 857.1419999999925,
      "v": 127
    },
    {
      "midi": 56,
      "hit": false,
      "t": 109285.60499999995,
      "d": 428.5709999999963,
      "v": 127
    },
    {
      "midi": 49,
      "hit": false,
      "t": 110142.74699999994,
      "d": 428.5709999999963,
      "v": 127
    },
    {
      "midi": 53,
      "hit": false,
      "t": 110571.31799999994,
      "d": 428.5709999999963,
      "v": 127
    },
    {
      "midi": 65,
      "hit": false,
      "t": 110571.31799999994,
      "d": 857.1419999999925,
      "v": 127
    },
    {
      "midi": 68,
      "hit": false,
      "t": 110571.31799999994,
      "d": 857.1419999999925,
      "v": 127
    },
    {
      "midi": 49,
      "hit": false,
      "t": 110999.88899999994,
      "d": 428.5709999999963,
      "v": 127
    },
    {
      "midi": 56,
      "hit": false,
      "t": 111428.45999999993,
      "d": 428.5709999999963,
      "v": 127
    },
    {
      "midi": 61,
      "hit": false,
      "t": 111428.45999999993,
      "d": 857.1419999999925,
      "v": 127
    },
    {
      "midi": 65,
      "hit": false,
      "t": 111428.45999999993,
      "d": 857.1419999999925,
      "v": 127
    },
    {
      "midi": 53,
      "hit": false,
      "t": 111857.03099999993,
      "d": 428.5709999999963,
      "v": 127
    },
    {
      "midi": 51,
      "hit": false,
      "t": 112714.17299999992,
      "d": 428.5709999999963,
      "v": 127
    },
    {
      "midi": 55,
      "hit": false,
      "t": 113142.74399999992,
      "d": 428.5709999999963,
      "v": 127
    },
    {
      "midi": 63,
      "hit": false,
      "t": 113142.74399999992,
      "d": 857.1419999999925,
      "v": 127
    },
    {
      "midi": 67,
      "hit": false,
      "t": 113142.74399999992,
      "d": 857.1419999999925,
      "v": 127
    },
    {
      "midi": 58,
      "hit": false,
      "t": 113571.31499999992,
      "d": 428.5709999999963,
      "v": 127
    },
    {
      "midi": 63,
      "hit": false,
      "t": 113999.88599999991,
      "d": 428.5709999999963,
      "v": 127
    },
    {
      "midi": 70,
      "hit": false,
      "t": 113999.88599999991,
      "d": 857.1419999999925,
      "v": 127
    },
    {
      "midi": 67,
      "hit": false,
      "t": 114428.45699999991,
      "d": 428.5709999999963,
      "v": 127
    },
    {
      "midi": 70,
      "hit": false,
      "t": 114857.0279999999,
      "d": 428.5709999999963,
      "v": 127
    },
    {
      "midi": 68,
      "hit": false,
      "t": 115285.5989999999,
      "d": 428.5709999999963,
      "v": 127
    },
    {
      "midi": 67,
      "hit": false,
      "t": 115714.1699999999,
      "d": 428.5709999999963,
      "v": 127
    },
    {
      "midi": 72,
      "hit": false,
      "t": 115714.1699999999,
      "d": 428.5709999999963,
      "v": 127
    },
    {
      "midi": 65,
      "hit": false,
      "t": 116142.74099999989,
      "d": 428.5709999999963,
      "v": 127
    },
    {
      "midi": 73,
      "hit": false,
      "t": 116142.74099999989,
      "d": 428.5709999999963,
      "v": 127
    },
    {
      "midi": 63,
      "hit": false,
      "t": 116571.31199999989,
      "d": 428.5709999999963,
      "v": 127
    },
    {
      "midi": 70,
      "hit": false,
      "t": 116571.31199999989,
      "d": 857.1419999999925,
      "v": 127
    },
    {
      "midi": 72,
      "hit": false,
      "t": 116571.31199999989,
      "d": 857.1419999999925,
      "v": 127
    },
    {
      "midi": 61,
      "hit": false,
      "t": 116999.88299999989,
      "d": 428.5709999999963,
      "v": 127
    },
    {
      "midi": 63,
      "hit": false,
      "t": 117428.45399999988,
      "d": 428.5709999999963,
      "v": 127
    },
    {
      "midi": 61,
      "hit": false,
      "t": 117857.02499999988,
      "d": 428.5709999999963,
      "v": 127
    },
    {
      "midi": 56,
      "hit": false,
      "t": 118285.59599999987,
      "d": 428.5709999999963,
      "v": 127
    },
    {
      "midi": 65,
      "hit": false,
      "t": 118285.59599999987,
      "d": 857.1419999999925,
      "v": 127
    },
    {
      "midi": 73,
      "hit": false,
      "t": 118285.59599999987,
      "d": 857.1419999999925,
      "v": 127
    },
    {
      "midi": 61,
      "hit": false,
      "t": 118714.16699999987,
      "d": 428.5709999999963,
      "v": 127
    },
    {
      "midi": 56,
      "hit": false,
      "t": 119142.73799999987,
      "d": 428.5709999999963,
      "v": 127
    },
    {
      "midi": 65,
      "hit": false,
      "t": 119142.73799999987,
      "d": 857.1419999999925,
      "v": 127
    },
    {
      "midi": 68,
      "hit": false,
      "t": 119142.73799999987,
      "d": 857.1419999999925,
      "v": 127
    },
    {
      "midi": 53,
      "hit": false,
      "t": 119571.30899999986,
      "d": 428.5709999999963,
      "v": 127
    },
    {
      "midi": 56,
      "hit": false,
      "t": 120428.45099999986,
      "d": 428.5709999999963,
      "v": 127
    },
    {
      "midi": 53,
      "hit": false,
      "t": 120857.02199999985,
      "d": 428.5709999999963,
      "v": 127
    },
    {
      "midi": 65,
      "hit": false,
      "t": 120857.02199999985,
      "d": 857.1419999999925,
      "v": 127
    },
    {
      "midi": 70,
      "hit": false,
      "t": 120857.02199999985,
      "d": 857.1419999999925,
      "v": 127
    },
    {
      "midi": 56,
      "hit": false,
      "t": 121285.59299999985,
      "d": 428.5709999999963,
      "v": 127
    },
    {
      "midi": 53,
      "hit": false,
      "t": 121714.16399999984,
      "d": 428.5709999999963,
      "v": 127
    },
    {
      "midi": 70,
      "hit": false,
      "t": 121714.16399999984,
      "d": 857.1419999999925,
      "v": 127
    },
    {
      "midi": 73,
      "hit": false,
      "t": 121714.16399999984,
      "d": 857.1419999999925,
      "v": 127
    },
    {
      "midi": 46,
      "hit": false,
      "t": 122142.73499999984,
      "d": 428.5709999999963,
      "v": 127
    },
    {
      "midi": 65,
      "hit": false,
      "t": 122571.30599999984,
      "d": 2571.4259999999776,
      "v": 127
    },
    {
      "midi": 67,
      "hit": false,
      "t": 122571.30599999984,
      "d": 5142.85199999997,
      "v": 127
    },
    {
      "midi": 72,
      "hit": false,
      "t": 122571.30599999984,
      "d": 5142.85199999997,
      "v": 127
    },
    {
      "midi": 48,
      "hit": false,
      "t": 122999.87699999983,
      "d": 428.5709999999963,
      "v": 127
    },
    {
      "midi": 53,
      "hit": false,
      "t": 123428.44799999983,
      "d": 428.5709999999963,
      "v": 127
    },
    {
      "midi": 55,
      "hit": false,
      "t": 123857.01899999983,
      "d": 428.5709999999963,
      "v": 127
    },
    {
      "midi": 60,
      "hit": false,
      "t": 124285.58999999982,
      "d": 428.5709999999963,
      "v": 127
    },
    {
      "midi": 55,
      "hit": false,
      "t": 124714.16099999982,
      "d": 428.5709999999963,
      "v": 127
    },
    {
      "midi": 64,
      "hit": false,
      "t": 125142.73199999981,
      "d": 2571.425999999992,
      "v": 127
    },
    {
      "midi": 60,
      "hit": false,
      "t": 125571.30299999981,
      "d": 428.5709999999963,
      "v": 127
    },
    {
      "midi": 55,
      "hit": false,
      "t": 125999.8739999998,
      "d": 428.5709999999963,
      "v": 127
    },
    {
      "midi": 52,
      "hit": false,
      "t": 126428.4449999998,
      "d": 428.5709999999963,
      "v": 127
    },
    {
      "midi": 48,
      "hit": false,
      "t": 126857.0159999998,
      "d": 857.1420000000071,
      "v": 127
    },
    {
      "midi": 53,
      "hit": false,
      "t": 127714.1579999998,
      "d": 2571.4259999999776,
      "v": 89
    },
    {
      "midi": 56,
      "hit": false,
      "t": 128142.7289999998,
      "d": 2142.8549999999814,
      "v": 89
    },
    {
      "midi": 60,
      "hit": false,
      "t": 128571.2999999998,
      "d": 1714.283999999985,
      "v": 89
    },
    {
      "midi": 65,
      "hit": false,
      "t": 128999.8709999998,
      "d": 857.1419999999925,
      "v": 89
    },
    {
      "midi": 68,
      "hit": false,
      "t": 129428.44199999979,
      "d": 857.1419999999925,
      "v": 89
    },
    {
      "midi": 65,
      "hit": false,
      "t": 129857.01299999979,
      "d": 428.5709999999963,
      "v": 89
    },
    {
      "midi": 55,
      "hit": false,
      "t": 130285.58399999978,
      "d": 2571.425999999992,
      "v": 89
    },
    {
      "midi": 58,
      "hit": false,
      "t": 130714.15499999978,
      "d": 2142.854999999996,
      "v": 89
    },
    {
      "midi": 62,
      "hit": false,
      "t": 131142.7259999998,
      "d": 1714.283999999985,
      "v": 89
    },
    {
      "midi": 65,
      "hit": false,
      "t": 131571.2969999998,
      "d": 857.1419999999925,
      "v": 89
    },
    {
      "midi": 70,
      "hit": false,
      "t": 131999.86799999978,
      "d": 2571.4259999999776,
      "v": 89
    },
    {
      "midi": 65,
      "hit": false,
      "t": 132428.43899999978,
      "d": 857.1419999999925,
      "v": 89
    },
    {
      "midi": 62,
      "hit": false,
      "t": 132857.00999999978,
      "d": 857.1419999999925,
      "v": 89
    },
    {
      "midi": 65,
      "hit": false,
      "t": 133285.58099999977,
      "d": 2142.8549999999814,
      "v": 89
    },
    {
      "midi": 62,
      "hit": false,
      "t": 133714.15199999977,
      "d": 1714.283999999985,
      "v": 89
    },
    {
      "midi": 58,
      "hit": false,
      "t": 134142.72299999977,
      "d": 857.1419999999925,
      "v": 89
    },
    {
      "midi": 53,
      "hit": false,
      "t": 134571.29399999976,
      "d": 857.1419999999925,
      "v": 89
    },
    {
      "midi": 50,
      "hit": false,
      "t": 134999.86499999976,
      "d": 428.5709999999963,
      "v": 89
    },
    {
      "midi": 53,
      "hit": false,
      "t": 135428.43599999975,
      "d": 2571.4259999999776,
      "v": 89
    },
    {
      "midi": 56,
      "hit": false,
      "t": 135857.00699999975,
      "d": 2142.8549999999814,
      "v": 89
    },
    {
      "midi": 60,
      "hit": false,
      "t": 136285.57799999975,
      "d": 1714.283999999985,
      "v": 89
    },
    {
      "midi": 65,
      "hit": false,
      "t": 136714.14899999974,
      "d": 857.1419999999925,
      "v": 89
    },
    {
      "midi": 68,
      "hit": false,
      "t": 137142.71999999974,
      "d": 857.1419999999925,
      "v": 89
    },
    {
      "midi": 65,
      "hit": false,
      "t": 137571.29099999974,
      "d": 428.5709999999963,
      "v": 89
    },
    {
      "midi": 55,
      "hit": false,
      "t": 137999.86199999973,
      "d": 2571.4259999999776,
      "v": 89
    },
    {
      "midi": 58,
      "hit": false,
      "t": 138428.43299999973,
      "d": 2142.8549999999814,
      "v": 89
    },
    {
      "midi": 62,
      "hit": false,
      "t": 138857.00399999972,
      "d": 1714.283999999985,
      "v": 89
    },
    {
      "midi": 65,
      "hit": false,
      "t": 139285.57499999972,
      "d": 857.1419999999925,
      "v": 89
    },
    {
      "midi": 70,
      "hit": false,
      "t": 139714.14599999972,
      "d": 2571.4259999999776,
      "v": 89
    },
    {
      "midi": 65,
      "hit": false,
      "t": 140142.7169999997,
      "d": 857.1419999999925,
      "v": 89
    },
    {
      "midi": 62,
      "hit": false,
      "t": 140571.2879999997,
      "d": 857.1419999999925,
      "v": 89
    },
    {
      "midi": 65,
      "hit": false,
      "t": 140999.8589999997,
      "d": 2142.8549999999814,
      "v": 89
    },
    {
      "midi": 62,
      "hit": false,
      "t": 141428.4299999997,
      "d": 1714.283999999985,
      "v": 89
    },
    {
      "midi": 58,
      "hit": false,
      "t": 141857.0009999997,
      "d": 857.1419999999925,
      "v": 89
    },
    {
      "midi": 53,
      "hit": false,
      "t": 142285.5719999997,
      "d": 857.1419999999925,
      "v": 89
    },
    {
      "midi": 50,
      "hit": false,
      "t": 142714.1429999997,
      "d": 428.5709999999963,
      "v": 89
    },
    {
      "midi": 56,
      "hit": false,
      "t": 143142.7139999997,
      "d": 2571.4259999999776,
      "v": 89
    },
    {
      "midi": 60,
      "hit": false,
      "t": 143571.28499999968,
      "d": 2142.8549999999814,
      "v": 89
    },
    {
      "midi": 63,
      "hit": false,
      "t": 143999.85599999968,
      "d": 1714.283999999985,
      "v": 89
    },
    {
      "midi": 67,
      "hit": false,
      "t": 144428.42699999968,
      "d": 857.1419999999925,
      "v": 89
    },
    {
      "midi": 70,
      "hit": false,
      "t": 144856.99799999967,
      "d": 857.1419999999925,
      "v": 89
    },
    {
      "midi": 67,
      "hit": false,
      "t": 145285.56899999967,
      "d": 428.5709999999963,
      "v": 89
    },
    {
      "midi": 54,
      "hit": false,
      "t": 145714.13999999966,
      "d": 2571.4259999999776,
      "v": 89
    },
    {
      "midi": 58,
      "hit": false,
      "t": 146142.71099999966,
      "d": 2142.8549999999814,
      "v": 89
    },
    {
      "midi": 61,
      "hit": false,
      "t": 146571.28199999966,
      "d": 1714.283999999985,
      "v": 89
    },
    {
      "midi": 65,
      "hit": false,
      "t": 146999.85299999965,
      "d": 857.1419999999925,
      "v": 89
    },
    {
      "midi": 70,
      "hit": false,
      "t": 147428.42399999965,
      "d": 2571.4259999999776,
      "v": 89
    },
    {
      "midi": 65,
      "hit": false,
      "t": 147856.99499999965,
      "d": 857.1419999999925,
      "v": 89
    },
    {
      "midi": 61,
      "hit": false,
      "t": 148285.56599999964,
      "d": 857.1419999999925,
      "v": 89
    },
    {
      "midi": 65,
      "hit": false,
      "t": 148714.13699999964,
      "d": 2142.8549999999814,
      "v": 89
    },
    {
      "midi": 61,
      "hit": false,
      "t": 149142.70799999963,
      "d": 1714.283999999985,
      "v": 89
    },
    {
      "midi": 58,
      "hit": false,
      "t": 149571.27899999963,
      "d": 857.1419999999925,
      "v": 89
    },
    {
      "midi": 53,
      "hit": false,
      "t": 149999.84999999963,
      "d": 857.1419999999925,
      "v": 89
    },
    {
      "midi": 49,
      "hit": false,
      "t": 150428.42099999962,
      "d": 428.5709999999963,
      "v": 89
    },
    {
      "midi": 56,
      "hit": false,
      "t": 150856.99199999962,
      "d": 2571.4259999999776,
      "v": 89
    },
    {
      "midi": 60,
      "hit": false,
      "t": 151285.56299999962,
      "d": 2142.8549999999814,
      "v": 89
    },
    {
      "midi": 63,
      "hit": false,
      "t": 151714.1339999996,
      "d": 1714.283999999985,
      "v": 89
    },
    {
      "midi": 67,
      "hit": false,
      "t": 152142.7049999996,
      "d": 857.1419999999925,
      "v": 89
    },
    {
      "midi": 70,
      "hit": false,
      "t": 152571.2759999996,
      "d": 857.1419999999925,
      "v": 89
    },
    {
      "midi": 67,
      "hit": false,
      "t": 152999.8469999996,
      "d": 428.5709999999963,
      "v": 89
    },
    {
      "midi": 54,
      "hit": false,
      "t": 153428.4179999996,
      "d": 2571.4259999999776,
      "v": 89
    },
    {
      "midi": 58,
      "hit": false,
      "t": 153856.9889999996,
      "d": 2142.8549999999814,
      "v": 89
    },
    {
      "midi": 61,
      "hit": false,
      "t": 154285.5599999996,
      "d": 1714.283999999985,
      "v": 89
    },
    {
      "midi": 65,
      "hit": false,
      "t": 154714.1309999996,
      "d": 857.1419999999925,
      "v": 89
    },
    {
      "midi": 70,
      "hit": false,
      "t": 155142.70199999958,
      "d": 2571.4259999999776,
      "v": 89
    },
    {
      "midi": 65,
      "hit": false,
      "t": 155571.27299999958,
      "d": 857.1419999999925,
      "v": 89
    },
    {
      "midi": 61,
      "hit": false,
      "t": 155999.84399999958,
      "d": 857.1419999999925,
      "v": 89
    },
    {
      "midi": 65,
      "hit": false,
      "t": 156428.41499999957,
      "d": 2142.8549999999814,
      "v": 89
    },
    {
      "midi": 61,
      "hit": false,
      "t": 156856.98599999957,
      "d": 1714.283999999985,
      "v": 89
    },
    {
      "midi": 58,
      "hit": false,
      "t": 157285.55699999956,
      "d": 857.1419999999925,
      "v": 89
    },
    {
      "midi": 53,
      "hit": false,
      "t": 157714.12799999956,
      "d": 857.1419999999925,
      "v": 89
    },
    {
      "midi": 49,
      "hit": false,
      "t": 158142.69899999956,
      "d": 428.5709999999963,
      "v": 89
    },
    {
      "midi": 55,
      "hit": false,
      "t": 158571.26999999955,
      "d": 2571.4259999999776,
      "v": 87
    },
    {
      "midi": 58,
      "hit": false,
      "t": 158999.84099999955,
      "d": 2142.8549999999814,
      "v": 87
    },
    {
      "midi": 62,
      "hit": false,
      "t": 159428.41199999955,
      "d": 1714.283999999985,
      "v": 87
    },
    {
      "midi": 65,
      "hit": false,
      "t": 159856.98299999954,
      "d": 857.1419999999925,
      "v": 87
    },
    {
      "midi": 70,
      "hit": false,
      "t": 160285.55399999954,
      "d": 857.1419999999925,
      "v": 87
    },
    {
      "midi": 65,
      "hit": false,
      "t": 160714.12499999953,
      "d": 428.5709999999963,
      "v": 87
    },
    {
      "midi": 56,
      "hit": false,
      "t": 161142.69599999953,
      "d": 2571.4259999999776,
      "v": 87
    },
    {
      "midi": 60,
      "hit": false,
      "t": 161571.26699999953,
      "d": 2142.8549999999814,
      "v": 87
    },
    {
      "midi": 63,
      "hit": false,
      "t": 161999.83799999952,
      "d": 1714.283999999985,
      "v": 87
    },
    {
      "midi": 67,
      "hit": false,
      "t": 162428.40899999952,
      "d": 857.1419999999925,
      "v": 87
    },
    {
      "midi": 70,
      "hit": false,
      "t": 162856.97999999952,
      "d": 857.1419999999925,
      "v": 87
    },
    {
      "midi": 67,
      "hit": false,
      "t": 163285.5509999995,
      "d": 857.1419999999925,
      "v": 87
    },
    {
      "midi": 63,
      "hit": false,
      "t": 163714.1219999995,
      "d": 857.1419999999925,
      "v": 87
    },
    {
      "midi": 67,
      "hit": false,
      "t": 164142.6929999995,
      "d": 857.1419999999925,
      "v": 87
    },
    {
      "midi": 63,
      "hit": false,
      "t": 164571.2639999995,
      "d": 857.1419999999925,
      "v": 87
    },
    {
      "midi": 60,
      "hit": false,
      "t": 164999.8349999995,
      "d": 1285.7129999999888,
      "v": 87
    },
    {
      "midi": 56,
      "hit": false,
      "t": 165428.4059999995,
      "d": 857.1419999999925,
      "v": 87
    },
    {
      "midi": 51,
      "hit": false,
      "t": 165856.9769999995,
      "d": 428.5709999999963,
      "v": 87
    },
    {
      "midi": 55,
      "hit": false,
      "t": 166285.5479999995,
      "d": 2571.4259999999776,
      "v": 87
    },
    {
      "midi": 58,
      "hit": false,
      "t": 166714.11899999948,
      "d": 2142.8549999999814,
      "v": 87
    },
    {
      "midi": 62,
      "hit": false,
      "t": 167142.68999999948,
      "d": 1714.283999999985,
      "v": 87
    },
    {
      "midi": 65,
      "hit": false,
      "t": 167571.26099999947,
      "d": 857.1419999999925,
      "v": 87
    },
    {
      "midi": 70,
      "hit": false,
      "t": 167999.83199999947,
      "d": 857.1419999999925,
      "v": 87
    },
    {
      "midi": 65,
      "hit": false,
      "t": 168428.40299999947,
      "d": 428.5709999999963,
      "v": 87
    },
    {
      "midi": 56,
      "hit": false,
      "t": 168856.97399999946,
      "d": 2571.4259999999776,
      "v": 87
    },
    {
      "midi": 60,
      "hit": false,
      "t": 169285.54499999946,
      "d": 2142.8549999999814,
      "v": 87
    },
    {
      "midi": 63,
      "hit": false,
      "t": 169714.11599999946,
      "d": 1714.283999999985,
      "v": 87
    },
    {
      "midi": 67,
      "hit": false,
      "t": 170142.68699999945,
      "d": 857.1419999999925,
      "v": 87
    },
    {
      "midi": 70,
      "hit": false,
      "t": 170571.25799999945,
      "d": 857.1419999999925,
      "v": 87
    },
    {
      "midi": 67,
      "hit": false,
      "t": 170999.82899999944,
      "d": 857.1419999999925,
      "v": 87
    },
    {
      "midi": 63,
      "hit": false,
      "t": 171428.39999999944,
      "d": 857.1419999999925,
      "v": 87
    },
    {
      "midi": 67,
      "hit": false,
      "t": 171856.97099999944,
      "d": 857.1419999999925,
      "v": 87
    },
    {
      "midi": 63,
      "hit": false,
      "t": 172285.54199999943,
      "d": 857.1419999999925,
      "v": 87
    },
    {
      "midi": 60,
      "hit": false,
      "t": 172714.11299999943,
      "d": 1285.7129999999888,
      "v": 87
    },
    {
      "midi": 56,
      "hit": false,
      "t": 173142.68399999943,
      "d": 857.1419999999925,
      "v": 87
    },
    {
      "midi": 51,
      "hit": false,
      "t": 173571.25499999942,
      "d": 428.5709999999963,
      "v": 87
    },
    {
      "midi": 55,
      "hit": false,
      "t": 174428.39699999942,
      "d": 428.5709999999963,
      "v": 87
    },
    {
      "midi": 58,
      "hit": false,
      "t": 174856.9679999994,
      "d": 428.5709999999963,
      "v": 87
    },
    {
      "midi": 55,
      "hit": false,
      "t": 175285.5389999994,
      "d": 428.5709999999963,
      "v": 87
    },
    {
      "midi": 60,
      "hit": false,
      "t": 175714.1099999994,
      "d": 428.5709999999963,
      "v": 87
    },
    {
      "midi": 58,
      "hit": false,
      "t": 176142.6809999994,
      "d": 428.5709999999963,
      "v": 87
    },
    {
      "midi": 56,
      "hit": false,
      "t": 176571.2519999994,
      "d": 428.5709999999963,
      "v": 87
    },
    {
      "midi": 51,
      "hit": false,
      "t": 176999.8229999994,
      "d": 428.5709999999963,
      "v": 87
    },
    {
      "midi": 48,
      "hit": false,
      "t": 177428.3939999994,
      "d": 428.5709999999963,
      "v": 87
    },
    {
      "midi": 46,
      "hit": false,
      "t": 177856.96499999939,
      "d": 428.5709999999963,
      "v": 87
    },
    {
      "midi": 84,
      "hit": false,
      "t": 194571.2339999994,
      "d": 1714.283999999985,
      "v": 50
    },
    {
      "midi": 77,
      "hit": false,
      "t": 194999.80499999938,
      "d": 857.1419999999925,
      "v": 50
    },
    {
      "midi": 80,
      "hit": false,
      "t": 195428.37599999938,
      "d": 857.1419999999925,
      "v": 50
    },
    {
      "midi": 77,
      "hit": false,
      "t": 195856.94699999937,
      "d": 857.1419999999925,
      "v": 50
    },
    {
      "midi": 80,
      "hit": false,
      "t": 196285.51799999937,
      "d": 857.1419999999925,
      "v": 50
    },
    {
      "midi": 84,
      "hit": false,
      "t": 196285.51799999937,
      "d": 857.1419999999925,
      "v": 50
    },
    {
      "midi": 89,
      "hit": false,
      "t": 196285.51799999937,
      "d": 857.1419999999925,
      "v": 50
    },
    {
      "midi": 77,
      "hit": false,
      "t": 197142.65999999936,
      "d": 857.1419999999925,
      "v": 50
    },
    {
      "midi": 87,
      "hit": false,
      "t": 197142.65999999936,
      "d": 1714.283999999985,
      "v": 50
    },
    {
      "midi": 73,
      "hit": false,
      "t": 197571.23099999936,
      "d": 857.1419999999925,
      "v": 50
    },
    {
      "midi": 77,
      "hit": false,
      "t": 197999.80199999936,
      "d": 857.1419999999925,
      "v": 50
    },
    {
      "midi": 80,
      "hit": false,
      "t": 198428.37299999935,
      "d": 857.1419999999925,
      "v": 50
    },
    {
      "midi": 77,
      "hit": false,
      "t": 198856.94399999935,
      "d": 857.1419999999925,
      "v": 50
    },
    {
      "midi": 73,
      "hit": false,
      "t": 199285.51499999934,
      "d": 428.5709999999963,
      "v": 50
    },
    {
      "midi": 82,
      "hit": false,
      "t": 199714.08599999934,
      "d": 1285.7129999999888,
      "v": 50
    },
    {
      "midi": 70,
      "hit": false,
      "t": 199714.08599999934,
      "d": 2571.4259999999776,
      "v": 50
    },
    {
      "midi": 75,
      "hit": false,
      "t": 200142.65699999934,
      "d": 2142.8549999999814,
      "v": 50
    },
    {
      "midi": 79,
      "hit": false,
      "t": 200571.22799999933,
      "d": 1714.283999999985,
      "v": 50
    },
    {
      "midi": 82,
      "hit": false,
      "t": 200999.79899999933,
      "d": 1285.7129999999888,
      "v": 50
    },
    {
      "midi": 87,
      "hit": false,
      "t": 201428.36999999933,
      "d": 857.1419999999925,
      "v": 50
    },
    {
      "midi": 73,
      "hit": false,
      "t": 201856.94099999932,
      "d": 428.5709999999963,
      "v": 50
    },
    {
      "midi": 79,
      "hit": false,
      "t": 202285.51199999932,
      "d": 428.5709999999963,
      "v": 50
    },
    {
      "midi": 72,
      "hit": false,
      "t": 202285.51199999932,
      "d": 2142.8549999999814,
      "v": 50
    },
    {
      "midi": 80,
      "hit": false,
      "t": 202714.08299999931,
      "d": 428.5709999999963,
      "v": 50
    },
    {
      "midi": 75,
      "hit": false,
      "t": 202714.08299999931,
      "d": 857.1419999999925,
      "v": 50
    },
    {
      "midi": 79,
      "hit": false,
      "t": 203142.6539999993,
      "d": 857.1419999999925,
      "v": 50
    },
    {
      "midi": 82,
      "hit": false,
      "t": 203142.6539999993,
      "d": 857.1419999999925,
      "v": 50
    },
    {
      "midi": 75,
      "hit": false,
      "t": 203571.2249999993,
      "d": 857.1419999999925,
      "v": 50
    },
    {
      "midi": 79,
      "hit": false,
      "t": 203999.7959999993,
      "d": 637.4993625000061,
      "v": 50
    },
    {
      "midi": 72,
      "hit": false,
      "t": 204428.3669999993,
      "d": 428.5709999999963,
      "v": 50
    },
    {
      "midi": 80,
      "hit": false,
      "t": 204642.6524999993,
      "d": 107.14274999999907,
      "v": 50
    },
    {
      "midi": 79,
      "hit": false,
      "t": 204749.7952499993,
      "d": 107.14274999999907,
      "v": 50
    },
    {
      "midi": 80,
      "hit": false,
      "t": 204856.9379999993,
      "d": 857.1419999999925,
      "v": 50
    },
    {
      "midi": 73,
      "hit": false,
      "t": 204856.9379999993,
      "d": 2571.4259999999776,
      "v": 50
    },
    {
      "midi": 77,
      "hit": false,
      "t": 205285.5089999993,
      "d": 857.1419999999925,
      "v": 50
    },
    {
      "midi": 80,
      "hit": false,
      "t": 205714.0799999993,
      "d": 857.1419999999925,
      "v": 50
    },
    {
      "midi": 77,
      "hit": false,
      "t": 206142.65099999928,
      "d": 1285.7129999999888,
      "v": 50
    },
    {
      "midi": 84,
      "hit": false,
      "t": 206571.22199999928,
      "d": 857.1419999999925,
      "v": 50
    },
    {
      "midi": 80,
      "hit": false,
      "t": 206999.79299999928,
      "d": 428.5709999999963,
      "v": 50
    },
    {
      "midi": 82,
      "hit": false,
      "t": 207428.36399999927,
      "d": 1714.283999999985,
      "v": 50
    },
    {
      "midi": 70,
      "hit": false,
      "t": 207428.36399999927,
      "d": 2571.4259999999776,
      "v": 50
    },
    {
      "midi": 73,
      "hit": false,
      "t": 207856.93499999927,
      "d": 2142.8549999999814,
      "v": 50
    },
    {
      "midi": 77,
      "hit": false,
      "t": 208285.50599999927,
      "d": 1714.283999999985,
      "v": 50
    },
    {
      "midi": 80,
      "hit": false,
      "t": 209142.64799999926,
      "d": 637.4993625000061,
      "v": 50
    },
    {
      "midi": 82,
      "hit": false,
      "t": 209785.50449999925,
      "d": 107.14274999999907,
      "v": 50
    },
    {
      "midi": 80,
      "hit": false,
      "t": 209892.64724999925,
      "d": 107.14274999999907,
      "v": 50
    },
    {
      "midi": 79,
      "hit": false,
      "t": 209999.78999999925,
      "d": 857.1419999999925,
      "v": 50
    },
    {
      "midi": 72,
      "hit": false,
      "t": 209999.78999999925,
      "d": 1285.7129999999888,
      "v": 50
    },
    {
      "midi": 77,
      "hit": false,
      "t": 210428.36099999925,
      "d": 1285.7129999999888,
      "v": 50
    },
    {
      "midi": 79,
      "hit": false,
      "t": 210856.93199999924,
      "d": 1285.7129999999888,
      "v": 50
    },
    {
      "midi": 72,
      "hit": false,
      "t": 211285.50299999924,
      "d": 1285.7129999999888,
      "v": 50
    },
    {
      "midi": 77,
      "hit": false,
      "t": 211714.07399999924,
      "d": 857.1419999999925,
      "v": 50
    },
    {
      "midi": 79,
      "hit": false,
      "t": 212142.64499999923,
      "d": 2999.997000000003,
      "v": 50
    },
    {
      "midi": 72,
      "hit": false,
      "t": 212571.21599999923,
      "d": 2571.4260000000068,
      "v": 50
    },
    {
      "midi": 76,
      "hit": false,
      "t": 212571.21599999923,
      "d": 2571.4260000000068,
      "v": 50
    },
    {
      "midi": 84,
      "hit": false,
      "t": 212571.21599999923,
      "d": 2571.4260000000068,
      "v": 50
    },
    {
      "midi": 60,
      "hit": false,
      "t": 214285.49999999924,
      "d": 214.28549999999814,
      "v": 64
    },
    {
      "midi": 48,
      "hit": false,
      "t": 214285.49999999924,
      "d": 857.1419999999925,
      "v": 64
    },
    {
      "midi": 58,
      "hit": false,
      "t": 214499.78549999924,
      "d": 214.28549999999814,
      "v": 64
    },
    {
      "midi": 56,
      "hit": false,
      "t": 214714.07099999924,
      "d": 214.28549999999814,
      "v": 64
    },
    {
      "midi": 55,
      "hit": false,
      "t": 214928.35649999924,
      "d": 214.28549999999814,
      "v": 64
    },
    {
      "midi": 41,
      "hit": false,
      "t": 215142.64199999924,
      "d": 2571.4259999999776,
      "v": 64
    },
    {
      "midi": 44,
      "hit": false,
      "t": 215356.92749999923,
      "d": 2142.8549999999814,
      "v": 64
    },
    {
      "midi": 48,
      "hit": false,
      "t": 215571.21299999923,
      "d": 1714.283999999985,
      "v": 64
    },
    {
      "midi": 53,
      "hit": false,
      "t": 215785.49849999923,
      "d": 214.28549999999814,
      "v": 64
    },
    {
      "midi": 56,
      "hit": false,
      "t": 215999.78399999923,
      "d": 857.1419999999925,
      "v": 64
    },
    {
      "midi": 60,
      "hit": false,
      "t": 216214.06949999923,
      "d": 428.5709999999963,
      "v": 64
    },
    {
      "midi": 65,
      "hit": false,
      "t": 216428.35499999922,
      "d": 1285.7129999999888,
      "v": 64
    },
    {
      "midi": 60,
      "hit": false,
      "t": 216642.64049999922,
      "d": 1076.784637499979,
      "v": 64
    },
    {
      "midi": 56,
      "hit": false,
      "t": 216856.92599999922,
      "d": 857.1419999999925,
      "v": 64
    },
    {
      "midi": 53,
      "hit": false,
      "t": 217071.21149999922,
      "d": 648.2136374999827,
      "v": 64
    },
    {
      "midi": 48,
      "hit": false,
      "t": 217285.49699999922,
      "d": 428.5709999999963,
      "v": 64
    },
    {
      "midi": 44,
      "hit": false,
      "t": 217499.78249999922,
      "d": 428.5709999999963,
      "v": 64
    },
    {
      "midi": 37,
      "hit": false,
      "t": 217714.0679999992,
      "d": 2571.4259999999776,
      "v": 64
    },
    {
      "midi": 41,
      "hit": false,
      "t": 217928.3534999992,
      "d": 2142.8549999999814,
      "v": 64
    },
    {
      "midi": 44,
      "hit": false,
      "t": 218142.6389999992,
      "d": 1714.283999999985,
      "v": 64
    },
    {
      "midi": 49,
      "hit": false,
      "t": 218356.9244999992,
      "d": 1285.7129999999888,
      "v": 64
    },
    {
      "midi": 53,
      "hit": false,
      "t": 218571.2099999992,
      "d": 857.1419999999925,
      "v": 64
    },
    {
      "midi": 56,
      "hit": false,
      "t": 218785.4954999992,
      "d": 428.5709999999963,
      "v": 64
    },
    {
      "midi": 61,
      "hit": false,
      "t": 218999.7809999992,
      "d": 1285.7129999999888,
      "v": 64
    },
    {
      "midi": 56,
      "hit": false,
      "t": 219214.0664999992,
      "d": 1076.784637499979,
      "v": 64
    },
    {
      "midi": 53,
      "hit": false,
      "t": 219428.3519999992,
      "d": 857.1419999999925,
      "v": 64
    },
    {
      "midi": 49,
      "hit": false,
      "t": 219642.6374999992,
      "d": 648.2136374999827,
      "v": 64
    },
    {
      "midi": 44,
      "hit": false,
      "t": 219856.9229999992,
      "d": 428.5709999999963,
      "v": 64
    },
    {
      "midi": 41,
      "hit": false,
      "t": 220071.2084999992,
      "d": 428.5709999999963,
      "v": 64
    },
    {
      "midi": 39,
      "hit": false,
      "t": 220285.4939999992,
      "d": 2571.4259999999776,
      "v": 64
    },
    {
      "midi": 43,
      "hit": false,
      "t": 220499.7794999992,
      "d": 2142.8549999999814,
      "v": 64
    },
    {
      "midi": 46,
      "hit": false,
      "t": 220714.0649999992,
      "d": 1714.283999999985,
      "v": 64
    },
    {
      "midi": 51,
      "hit": false,
      "t": 220928.3504999992,
      "d": 1285.7129999999888,
      "v": 64
    },
    {
      "midi": 55,
      "hit": false,
      "t": 221142.63599999918,
      "d": 857.1419999999925,
      "v": 64
    },
    {
      "midi": 58,
      "hit": false,
      "t": 221356.92149999918,
      "d": 428.5709999999963,
      "v": 64
    },
    {
      "midi": 63,
      "hit": false,
      "t": 221571.20699999918,
      "d": 1285.7129999999888,
      "v": 64
    },
    {
      "midi": 58,
      "hit": false,
      "t": 221785.49249999918,
      "d": 1076.784637499979,
      "v": 64
    },
    {
      "midi": 55,
      "hit": false,
      "t": 221999.77799999918,
      "d": 857.1419999999925,
      "v": 64
    },
    {
      "midi": 51,
      "hit": false,
      "t": 222214.06349999917,
      "d": 648.2136374999827,
      "v": 64
    },
    {
      "midi": 46,
      "hit": false,
      "t": 222428.34899999917,
      "d": 428.5709999999963,
      "v": 64
    },
    {
      "midi": 43,
      "hit": false,
      "t": 222642.63449999917,
      "d": 214.28549999999814,
      "v": 64
    },
    {
      "midi": 36,
      "hit": false,
      "t": 222856.91999999917,
      "d": 2571.4259999999776,
      "v": 64
    },
    {
      "midi": 39,
      "hit": false,
      "t": 223071.20549999917,
      "d": 2142.8549999999814,
      "v": 64
    },
    {
      "midi": 43,
      "hit": false,
      "t": 223285.49099999917,
      "d": 1714.283999999985,
      "v": 64
    },
    {
      "midi": 48,
      "hit": false,
      "t": 223499.77649999916,
      "d": 1285.7129999999888,
      "v": 64
    },
    {
      "midi": 51,
      "hit": false,
      "t": 223714.06199999916,
      "d": 857.1419999999925,
      "v": 64
    },
    {
      "midi": 55,
      "hit": false,
      "t": 223928.34749999916,
      "d": 428.5709999999963,
      "v": 64
    },
    {
      "midi": 60,
      "hit": false,
      "t": 224142.63299999916,
      "d": 1285.7129999999888,
      "v": 64
    },
    {
      "midi": 55,
      "hit": false,
      "t": 224356.91849999916,
      "d": 1076.784637499979,
      "v": 64
    },
    {
      "midi": 51,
      "hit": false,
      "t": 224571.20399999915,
      "d": 857.1419999999925,
      "v": 64
    },
    {
      "midi": 48,
      "hit": false,
      "t": 224785.48949999915,
      "d": 648.2136374999827,
      "v": 64
    },
    {
      "midi": 43,
      "hit": false,
      "t": 224999.77499999915,
      "d": 428.5709999999963,
      "v": 64
    },
    {
      "midi": 39,
      "hit": false,
      "t": 225214.06049999915,
      "d": 214.28549999999814,
      "v": 64
    },
    {
      "midi": 37,
      "hit": false,
      "t": 225428.34599999915,
      "d": 2571.4259999999776,
      "v": 64
    },
    {
      "midi": 41,
      "hit": false,
      "t": 225642.63149999914,
      "d": 2142.8549999999814,
      "v": 64
    },
    {
      "midi": 44,
      "hit": false,
      "t": 225856.91699999914,
      "d": 1714.283999999985,
      "v": 64
    },
    {
      "midi": 49,
      "hit": false,
      "t": 226071.20249999914,
      "d": 1285.7129999999888,
      "v": 64
    },
    {
      "midi": 53,
      "hit": false,
      "t": 226285.48799999914,
      "d": 857.1419999999925,
      "v": 64
    },
    {
      "midi": 56,
      "hit": false,
      "t": 226499.77349999914,
      "d": 428.5709999999963,
      "v": 64
    },
    {
      "midi": 61,
      "hit": false,
      "t": 226714.05899999914,
      "d": 1285.7129999999888,
      "v": 64
    },
    {
      "midi": 56,
      "hit": false,
      "t": 226928.34449999913,
      "d": 1076.784637499979,
      "v": 64
    },
    {
      "midi": 53,
      "hit": false,
      "t": 227142.62999999913,
      "d": 857.1419999999925,
      "v": 64
    },
    {
      "midi": 49,
      "hit": false,
      "t": 227356.91549999913,
      "d": 648.2136374999827,
      "v": 64
    },
    {
      "midi": 44,
      "hit": false,
      "t": 227571.20099999913,
      "d": 428.5709999999963,
      "v": 64
    },
    {
      "midi": 41,
      "hit": false,
      "t": 227785.48649999913,
      "d": 214.28549999999814,
      "v": 64
    },
    {
      "midi": 34,
      "hit": false,
      "t": 227999.77199999912,
      "d": 2571.4259999999776,
      "v": 64
    },
    {
      "midi": 37,
      "hit": false,
      "t": 228214.05749999912,
      "d": 2142.8549999999814,
      "v": 64
    },
    {
      "midi": 41,
      "hit": false,
      "t": 228428.34299999912,
      "d": 1714.283999999985,
      "v": 64
    },
    {
      "midi": 46,
      "hit": false,
      "t": 228642.62849999912,
      "d": 1285.7129999999888,
      "v": 64
    },
    {
      "midi": 49,
      "hit": false,
      "t": 228856.91399999912,
      "d": 857.1419999999925,
      "v": 64
    },
    {
      "midi": 53,
      "hit": false,
      "t": 229071.19949999911,
      "d": 428.5709999999963,
      "v": 64
    },
    {
      "midi": 58,
      "hit": false,
      "t": 229285.4849999991,
      "d": 1285.7129999999888,
      "v": 64
    },
    {
      "midi": 53,
      "hit": false,
      "t": 229499.7704999991,
      "d": 1076.784637499979,
      "v": 64
    },
    {
      "midi": 49,
      "hit": false,
      "t": 229714.0559999991,
      "d": 857.1419999999925,
      "v": 64
    },
    {
      "midi": 46,
      "hit": false,
      "t": 229928.3414999991,
      "d": 648.2136374999827,
      "v": 64
    },
    {
      "midi": 41,
      "hit": false,
      "t": 230142.6269999991,
      "d": 428.5709999999963,
      "v": 64
    },
    {
      "midi": 37,
      "hit": false,
      "t": 230356.9124999991,
      "d": 214.28549999999814,
      "v": 64
    },
    {
      "midi": 36,
      "hit": false,
      "t": 230571.1979999991,
      "d": 2571.4259999999776,
      "v": 64
    },
    {
      "midi": 41,
      "hit": false,
      "t": 230785.4834999991,
      "d": 2142.8549999999814,
      "v": 64
    },
    {
      "midi": 43,
      "hit": false,
      "t": 230999.7689999991,
      "d": 1714.283999999985,
      "v": 64
    },
    {
      "midi": 48,
      "hit": false,
      "t": 231214.0544999991,
      "d": 1285.7129999999888,
      "v": 64
    },
    {
      "midi": 53,
      "hit": false,
      "t": 231428.3399999991,
      "d": 857.1419999999925,
      "v": 64
    },
    {
      "midi": 55,
      "hit": false,
      "t": 231642.6254999991,
      "d": 428.5709999999963,
      "v": 64
    },
    {
      "midi": 60,
      "hit": false,
      "t": 231856.9109999991,
      "d": 1285.7129999999888,
      "v": 64
    },
    {
      "midi": 55,
      "hit": false,
      "t": 232071.1964999991,
      "d": 1076.784637499979,
      "v": 64
    },
    {
      "midi": 53,
      "hit": false,
      "t": 232285.4819999991,
      "d": 857.1419999999925,
      "v": 64
    },
    {
      "midi": 48,
      "hit": false,
      "t": 232499.76749999908,
      "d": 648.2136374999827,
      "v": 64
    },
    {
      "midi": 43,
      "hit": false,
      "t": 232714.05299999908,
      "d": 428.5709999999963,
      "v": 64
    },
    {
      "midi": 41,
      "hit": false,
      "t": 232928.33849999908,
      "d": 214.28549999999814,
      "v": 64
    },
    {
      "midi": 36,
      "hit": false,
      "t": 233142.62399999908,
      "d": 2571.4259999999776,
      "v": 64
    },
    {
      "midi": 40,
      "hit": false,
      "t": 233356.90949999908,
      "d": 2362.497637499968,
      "v": 64
    },
    {
      "midi": 43,
      "hit": false,
      "t": 233571.19499999908,
      "d": 2142.8549999999814,
      "v": 64
    },
    {
      "midi": 48,
      "hit": false,
      "t": 233785.48049999907,
      "d": 1933.9266374999715,
      "v": 64
    },
    {
      "midi": 52,
      "hit": false,
      "t": 233999.76599999907,
      "d": 1714.283999999985,
      "v": 64
    },
    {
      "midi": 55,
      "hit": false,
      "t": 234214.05149999907,
      "d": 1505.3556374999753,
      "v": 64
    },
    {
      "midi": 60,
      "hit": false,
      "t": 234428.33699999907,
      "d": 1285.7129999999888,
      "v": 64
    },
    {
      "midi": 64,
      "hit": false,
      "t": 234642.62249999907,
      "d": 1076.784637499979,
      "v": 64
    },
    {
      "midi": 67,
      "hit": false,
      "t": 234856.90799999906,
      "d": 857.1419999999925,
      "v": 64
    },
    {
      "midi": 72,
      "hit": false,
      "t": 235071.19349999906,
      "d": 648.2136374999827,
      "v": 64
    },
    {
      "midi": 76,
      "hit": false,
      "t": 235285.47899999906,
      "d": 428.5709999999963,
      "v": 64
    },
    {
      "midi": 79,
      "hit": false,
      "t": 235499.76449999906,
      "d": 214.28549999999814,
      "v": 64
    },
    {
      "midi": 84,
      "hit": false,
      "t": 235714.04999999906,
      "d": 2571.4259999999776,
      "v": 54
    },
    {
      "midi": 77,
      "hit": false,
      "t": 238285.47599999903,
      "d": 2571.4260000000068,
      "v": 54
    },
    {
      "midi": 80,
      "hit": false,
      "t": 238285.47599999903,
      "d": 2571.4260000000068,
      "v": 54
    },
    {
      "midi": 87,
      "hit": false,
      "t": 238285.47599999903,
      "d": 2571.4260000000068,
      "v": 54
    },
    {
      "midi": 87,
      "hit": false,
      "t": 240856.90199999904,
      "d": 1285.7129999999888,
      "v": 54
    },
    {
      "midi": 73,
      "hit": false,
      "t": 240856.90199999904,
      "d": 2571.4259999999776,
      "v": 54
    },
    {
      "midi": 77,
      "hit": false,
      "t": 240856.90199999904,
      "d": 2571.4259999999776,
      "v": 54
    },
    {
      "midi": 85,
      "hit": false,
      "t": 242142.61499999903,
      "d": 428.5709999999963,
      "v": 54
    },
    {
      "midi": 84,
      "hit": false,
      "t": 242571.18599999903,
      "d": 857.1419999999925,
      "v": 54
    },
    {
      "midi": 75,
      "hit": false,
      "t": 243428.32799999902,
      "d": 857.1419999999925,
      "v": 54
    },
    {
      "midi": 79,
      "hit": false,
      "t": 243428.32799999902,
      "d": 857.1419999999925,
      "v": 54
    },
    {
      "midi": 82,
      "hit": false,
      "t": 243428.32799999902,
      "d": 1714.283999999985,
      "v": 54
    },
    {
      "midi": 79,
      "hit": false,
      "t": 244285.469999999,
      "d": 857.1419999999925,
      "v": 54
    },
    {
      "midi": 79,
      "hit": false,
      "t": 245142.611999999,
      "d": 428.5709999999963,
      "v": 54
    },
    {
      "midi": 87,
      "hit": false,
      "t": 245142.611999999,
      "d": 857.1419999999925,
      "v": 54
    },
    {
      "midi": 77,
      "hit": false,
      "t": 245571.182999999,
      "d": 428.5709999999963,
      "v": 54
    },
    {
      "midi": 79,
      "hit": false,
      "t": 245999.753999999,
      "d": 857.1419999999925,
      "v": 54
    },
    {
      "midi": 72,
      "hit": false,
      "t": 245999.753999999,
      "d": 2571.4259999999776,
      "v": 54
    },
    {
      "midi": 75,
      "hit": false,
      "t": 245999.753999999,
      "d": 2571.4259999999776,
      "v": 54
    },
    {
      "midi": 79,
      "hit": false,
      "t": 246856.895999999,
      "d": 428.5709999999963,
      "v": 54
    },
    {
      "midi": 80,
      "hit": false,
      "t": 247285.466999999,
      "d": 428.5709999999963,
      "v": 54
    },
    {
      "midi": 82,
      "hit": false,
      "t": 247714.03799999898,
      "d": 428.5709999999963,
      "v": 54
    },
    {
      "midi": 79,
      "hit": false,
      "t": 248142.60899999898,
      "d": 428.5709999999963,
      "v": 54
    },
    {
      "midi": 80,
      "hit": false,
      "t": 248571.17999999897,
      "d": 1714.2840000000142,
      "v": 54
    },
    {
      "midi": 73,
      "hit": false,
      "t": 248571.17999999897,
      "d": 2571.4260000000068,
      "v": 54
    },
    {
      "midi": 77,
      "hit": false,
      "t": 248571.17999999897,
      "d": 2571.4260000000068,
      "v": 54
    },
    {
      "midi": 84,
      "hit": false,
      "t": 250285.463999999,
      "d": 857.1419999999925,
      "v": 54
    },
    {
      "midi": 82,
      "hit": false,
      "t": 251142.60599999898,
      "d": 1714.2840000000142,
      "v": 54
    },
    {
      "midi": 70,
      "hit": false,
      "t": 251142.60599999898,
      "d": 2571.4260000000068,
      "v": 54
    },
    {
      "midi": 73,
      "hit": false,
      "t": 251142.60599999898,
      "d": 2571.4260000000068,
      "v": 54
    },
    {
      "midi": 80,
      "hit": false,
      "t": 252856.889999999,
      "d": 857.1419999999925,
      "v": 54
    },
    {
      "midi": 73,
      "hit": false,
      "t": 253714.031999999,
      "d": 2571.4260000000068,
      "v": 54
    },
    {
      "midi": 79,
      "hit": false,
      "t": 253714.031999999,
      "d": 2571.4260000000068,
      "v": 54
    },
    {
      "midi": 48,
      "hit": false,
      "t": 256285.457999999,
      "d": 2571.4259999999776,
      "v": 32
    },
    {
      "midi": 55,
      "hit": false,
      "t": 256499.743499999,
      "d": 319.6425375000108,
      "v": 32
    },
    {
      "midi": 60,
      "hit": false,
      "t": 256606.886249999,
      "d": 319.6425375000108,
      "v": 32
    },
    {
      "midi": 52,
      "hit": false,
      "t": 256714.028999999,
      "d": 7.142850000003818,
      "v": 47
    },
    {
      "midi": 60,
      "hit": false,
      "t": 256928.314499999,
      "d": 319.6425375000108,
      "v": 47
    },
    {
      "midi": 64,
      "hit": false,
      "t": 257035.457249999,
      "d": 319.6425375000108,
      "v": 47
    },
    {
      "midi": 55,
      "hit": false,
      "t": 257142.599999999,
      "d": 7.142850000003818,
      "v": 62
    },
    {
      "midi": 64,
      "hit": false,
      "t": 257356.88549999899,
      "d": 319.6425375000108,
      "v": 62
    },
    {
      "midi": 67,
      "hit": false,
      "t": 257464.02824999898,
      "d": 319.6425375000108,
      "v": 62
    },
    {
      "midi": 60,
      "hit": false,
      "t": 257571.17099999898,
      "d": 7.142850000003818,
      "v": 77
    },
    {
      "midi": 67,
      "hit": false,
      "t": 257785.45649999898,
      "d": 319.6425375000108,
      "v": 77
    },
    {
      "midi": 72,
      "hit": false,
      "t": 257892.59924999898,
      "d": 319.6425375000108,
      "v": 77
    },
    {
      "midi": 64,
      "hit": false,
      "t": 257999.74199999898,
      "d": 7.142850000003818,
      "v": 85
    },
    {
      "midi": 72,
      "hit": false,
      "t": 258214.02749999898,
      "d": 319.6425375000108,
      "v": 85
    },
    {
      "midi": 76,
      "hit": false,
      "t": 258321.17024999898,
      "d": 319.6425375000108,
      "v": 85
    },
    {
      "midi": 67,
      "hit": false,
      "t": 258428.31299999898,
      "d": 7.142850000003818,
      "v": 96
    },
    {
      "midi": 76,
      "hit": false,
      "t": 258642.59849999897,
      "d": 219.64263749998645,
      "v": 96
    },
    {
      "midi": 79,
      "hit": false,
      "t": 258749.74124999897,
      "d": 107.14274999999907,
      "v": 96
    },
    {
      "midi": 72,
      "hit": false,
      "t": 258856.88399999897,
      "d": 7.142849999974715,
      "v": 127
    },
    {
      "midi": 53,
      "hit": false,
      "t": 258856.88399999897,
      "d": 2571.4259999999776,
      "v": 98
    },
    {
      "midi": 56,
      "hit": false,
      "t": 258856.88399999897,
      "d": 2571.4259999999776,
      "v": 98
    },
    {
      "midi": 60,
      "hit": false,
      "t": 258856.88399999897,
      "d": 2571.4259999999776,
      "v": 98
    },
    {
      "midi": 68,
      "hit": false,
      "t": 258856.88399999897,
      "d": 2571.4259999999776,
      "v": 98
    },
    {
      "midi": 77,
      "hit": false,
      "t": 260571.16799999896,
      "d": 857.1419999999925,
      "v": 127
    },
    {
      "midi": 70,
      "hit": false,
      "t": 261428.30999999895,
      "d": 857.1419999999925,
      "v": 98
    },
    {
      "midi": 49,
      "hit": false,
      "t": 261428.30999999895,
      "d": 2571.4259999999776,
      "v": 98
    },
    {
      "midi": 53,
      "hit": false,
      "t": 261428.30999999895,
      "d": 2571.4259999999776,
      "v": 98
    },
    {
      "midi": 56,
      "hit": false,
      "t": 261428.30999999895,
      "d": 2571.4259999999776,
      "v": 98
    },
    {
      "midi": 75,
      "hit": false,
      "t": 261428.30999999895,
      "d": 2571.4259999999776,
      "v": 127
    },
    {
      "midi": 68,
      "hit": false,
      "t": 262285.45199999894,
      "d": 428.5709999999963,
      "v": 98
    },
    {
      "midi": 67,
      "hit": false,
      "t": 262714.02299999894,
      "d": 428.5709999999963,
      "v": 98
    },
    {
      "midi": 68,
      "hit": false,
      "t": 263142.59399999894,
      "d": 428.5709999999963,
      "v": 98
    },
    {
      "midi": 65,
      "hit": false,
      "t": 263571.16499999893,
      "d": 428.5709999999963,
      "v": 98
    },
    {
      "midi": 70,
      "hit": false,
      "t": 263999.7359999989,
      "d": 1714.283999999985,
      "v": 127
    },
    {
      "midi": 51,
      "hit": false,
      "t": 263999.7359999989,
      "d": 2571.4259999999776,
      "v": 98
    },
    {
      "midi": 55,
      "hit": false,
      "t": 263999.7359999989,
      "d": 2571.4259999999776,
      "v": 98
    },
    {
      "midi": 58,
      "hit": false,
      "t": 263999.7359999989,
      "d": 2571.4259999999776,
      "v": 98
    },
    {
      "midi": 67,
      "hit": false,
      "t": 263999.7359999989,
      "d": 2571.4259999999776,
      "v": 98
    },
    {
      "midi": 75,
      "hit": false,
      "t": 265714.0199999989,
      "d": 857.1419999999925,
      "v": 127
    },
    {
      "midi": 67,
      "hit": false,
      "t": 266571.1619999989,
      "d": 428.5709999999963,
      "v": 127
    },
    {
      "midi": 63,
      "hit": false,
      "t": 266571.1619999989,
      "d": 1285.7129999999888,
      "v": 98
    },
    {
      "midi": 48,
      "hit": false,
      "t": 266571.1619999989,
      "d": 2571.4259999999776,
      "v": 98
    },
    {
      "midi": 51,
      "hit": false,
      "t": 266571.1619999989,
      "d": 2571.4259999999776,
      "v": 98
    },
    {
      "midi": 55,
      "hit": false,
      "t": 266571.1619999989,
      "d": 2571.4259999999776,
      "v": 98
    },
    {
      "midi": 68,
      "hit": false,
      "t": 266999.7329999989,
      "d": 428.5709999999963,
      "v": 127
    },
    {
      "midi": 70,
      "hit": false,
      "t": 267428.3039999989,
      "d": 857.1419999999925,
      "v": 127
    },
    {
      "midi": 65,
      "hit": false,
      "t": 267856.8749999989,
      "d": 428.5709999999963,
      "v": 98
    },
    {
      "midi": 67,
      "hit": false,
      "t": 268285.4459999989,
      "d": 857.1419999999925,
      "v": 127
    },
    {
      "midi": 63,
      "hit": false,
      "t": 268714.0169999989,
      "d": 428.5709999999963,
      "v": 98
    },
    {
      "midi": 68,
      "hit": false,
      "t": 269142.5879999989,
      "d": 1714.283999999985,
      "v": 127
    },
    {
      "midi": 49,
      "hit": false,
      "t": 269142.5879999989,
      "d": 2571.4259999999776,
      "v": 98
    },
    {
      "midi": 53,
      "hit": false,
      "t": 269142.5879999989,
      "d": 2571.4259999999776,
      "v": 98
    },
    {
      "midi": 56,
      "hit": false,
      "t": 269142.5879999989,
      "d": 2571.4259999999776,
      "v": 98
    },
    {
      "midi": 65,
      "hit": false,
      "t": 269142.5879999989,
      "d": 2571.4259999999776,
      "v": 98
    },
    {
      "midi": 72,
      "hit": false,
      "t": 270856.87199999887,
      "d": 857.1419999999925,
      "v": 127
    },
    {
      "midi": 70,
      "hit": false,
      "t": 271714.01399999886,
      "d": 1714.283999999985,
      "v": 127
    },
    {
      "midi": 46,
      "hit": false,
      "t": 271714.01399999886,
      "d": 2571.4259999999776,
      "v": 98
    },
    {
      "midi": 49,
      "hit": false,
      "t": 271714.01399999886,
      "d": 2571.4259999999776,
      "v": 98
    },
    {
      "midi": 53,
      "hit": false,
      "t": 271714.01399999886,
      "d": 2571.4259999999776,
      "v": 98
    },
    {
      "midi": 61,
      "hit": false,
      "t": 271714.01399999886,
      "d": 2571.4259999999776,
      "v": 98
    },
    {
      "midi": 68,
      "hit": false,
      "t": 273428.29799999885,
      "d": 857.1419999999925,
      "v": 127
    },
    {
      "midi": 53,
      "hit": false,
      "t": 274285.43999999884,
      "d": 2571.4259999999776,
      "v": 98
    },
    {
      "midi": 65,
      "hit": false,
      "t": 274285.43999999884,
      "d": 2571.4259999999776,
      "v": 98
    },
    {
      "midi": 48,
      "hit": false,
      "t": 274285.43999999884,
      "d": 5142.851999999955,
      "v": 98
    },
    {
      "midi": 55,
      "hit": false,
      "t": 274285.43999999884,
      "d": 5142.851999999955,
      "v": 98
    },
    {
      "midi": 67,
      "hit": false,
      "t": 274285.43999999884,
      "d": 5142.851999999955,
      "v": 127
    },
    {
      "midi": 52,
      "hit": false,
      "t": 276856.8659999988,
      "d": 2571.4259999999776,
      "v": 98
    },
    {
      "midi": 64,
      "hit": false,
      "t": 276856.8659999988,
      "d": 2571.4259999999776,
      "v": 98
    },
    {
      "midi": 43,
      "hit": false,
      "t": 302571.12599999877,
      "d": 1714.283999999985,
      "v": 43
    },
    {
      "midi": 50,
      "hit": false,
      "t": 304285.40999999875,
      "d": 3428.5680000000284,
      "v": 43
    },
    {
      "midi": 43,
      "hit": false,
      "t": 309428.26199999877,
      "d": 857.1419999999925,
      "v": 55
    },
    {
      "midi": 50,
      "hit": false,
      "t": 310285.40399999876,
      "d": 857.1419999999925,
      "v": 55
    },
    {
      "midi": 53,
      "hit": false,
      "t": 311142.54599999875,
      "d": 3428.5680000000284,
      "v": 55
    },
    {
      "midi": 86,
      "hit": false,
      "t": 315428.2559999988,
      "d": 1714.283999999985,
      "v": 65
    },
    {
      "midi": 43,
      "hit": false,
      "t": 321428.2499999988,
      "d": 857.1419999999925,
      "v": 55
    },
    {
      "midi": 50,
      "hit": false,
      "t": 322285.39199999877,
      "d": 857.1419999999925,
      "v": 55
    },
    {
      "midi": 55,
      "hit": false,
      "t": 323142.53399999876,
      "d": 2571.4259999999776,
      "v": 55
    }
  ]
}