{
  "jsonPath": "Classical/Early Romantic Era/Anton Diabelli/melodische-ubungsstucke-no-19.json",
  "path": "Classical\\Early Romantic Era\\Anton Diabelli\\Melodische Übungsstücke (No 19).mid",
  "name": "Melodische Übungsstücke (No 19)",
  "difficulty": "Advanced",
  "bpm": 70.00007000007,
  "notes": [
    {
      "midi": 69,
      "hit": false,
      "t": 0,
      "d": 428.571,
      "v": 127
    },
    {
      "midi": 93,
      "hit": false,
      "t": 0,
      "d": 428.571,
      "v": 127
    },
    {
      "midi": 69,
      "hit": false,
      "t": 428.571,
      "d": 428.571,
      "v": 127
    },
    {
      "midi": 91,
      "hit": false,
      "t": 428.571,
      "d": 428.571,
      "v": 127
    },
    {
      "midi": 69,
      "hit": false,
      "t": 857.142,
      "d": 428.57100000000014,
      "v": 127
    },
    {
      "midi": 89,
      "hit": false,
      "t": 857.142,
      "d": 428.57100000000014,
      "v": 127
    },
    {
      "midi": 69,
      "hit": false,
      "t": 1285.7130000000002,
      "d": 428.5709999999999,
      "v": 127
    },
    {
      "midi": 88,
      "hit": false,
      "t": 1285.7130000000002,
      "d": 428.5709999999999,
      "v": 127
    },
    {
      "midi": 69,
      "hit": false,
      "t": 1714.284,
      "d": 428.5709999999999,
      "v": 127
    },
    {
      "midi": 86,
      "hit": false,
      "t": 1714.284,
      "d": 428.5709999999999,
      "v": 127
    },
    {
      "midi": 61,
      "hit": false,
      "t": 2142.855,
      "d": 428.5709999999999,
      "v": 127
    },
    {
      "midi": 67,
      "hit": false,
      "t": 2142.855,
      "d": 428.5709999999999,
      "v": 127
    },
    {
      "midi": 69,
      "hit": false,
      "t": 2142.855,
      "d": 428.5709999999999,
      "v": 127
    },
    {
      "midi": 88,
      "hit": false,
      "t": 2142.855,
      "d": 428.5709999999999,
      "v": 127
    },
    {
      "midi": 69,
      "hit": false,
      "t": 2571.426,
      "d": 214.28549999999996,
      "v": 127
    },
    {
      "midi": 89,
      "hit": false,
      "t": 2785.7115,
      "d": 214.28549999999996,
      "v": 127
    },
    {
      "midi": 62,
      "hit": false,
      "t": 2999.997,
      "d": 428.5709999999999,
      "v": 127
    },
    {
      "midi": 65,
      "hit": false,
      "t": 2999.997,
      "d": 428.5709999999999,
      "v": 127
    },
    {
      "midi": 69,
      "hit": false,
      "t": 2999.997,
      "d": 428.5709999999999,
      "v": 127
    },
    {
      "midi": 86,
      "hit": false,
      "t": 2999.997,
      "d": 428.5709999999999,
      "v": 127
    },
    {
      "midi": 89,
      "hit": false,
      "t": 3428.5679999999998,
      "d": 428.5709999999999,
      "v": 127
    },
    {
      "midi": 61,
      "hit": false,
      "t": 3857.1389999999997,
      "d": 428.57100000000037,
      "v": 127
    },
    {
      "midi": 67,
      "hit": false,
      "t": 3857.1389999999997,
      "d": 428.57100000000037,
      "v": 127
    },
    {
      "midi": 69,
      "hit": false,
      "t": 3857.1389999999997,
      "d": 428.57100000000037,
      "v": 127
    },
    {
      "midi": 88,
      "hit": false,
      "t": 3857.1389999999997,
      "d": 428.57100000000037,
      "v": 127
    },
    {
      "midi": 69,
      "hit": false,
      "t": 4285.71,
      "d": 214.28549999999996,
      "v": 127
    },
    {
      "midi": 89,
      "hit": false,
      "t": 4499.9955,
      "d": 214.28549999999996,
      "v": 127
    },
    {
      "midi": 86,
      "hit": false,
      "t": 4714.281,
      "d": 214.28549999999996,
      "v": 127
    },
    {
      "midi": 88,
      "hit": false,
      "t": 4928.5665,
      "d": 214.28549999999996,
      "v": 127
    },
    {
      "midi": 89,
      "hit": false,
      "t": 5142.852,
      "d": 214.28549999999996,
      "v": 127
    },
    {
      "midi": 91,
      "hit": false,
      "t": 5357.1375,
      "d": 214.28549999999996,
      "v": 127
    },
    {
      "midi": 61,
      "hit": false,
      "t": 5571.423,
      "d": 428.5709999999999,
      "v": 127
    },
    {
      "midi": 64,
      "hit": false,
      "t": 5571.423,
      "d": 428.5709999999999,
      "v": 127
    },
    {
      "midi": 69,
      "hit": false,
      "t": 5571.423,
      "d": 428.5709999999999,
      "v": 127
    },
    {
      "midi": 93,
      "hit": false,
      "t": 5571.423,
      "d": 428.5709999999999,
      "v": 127
    },
    {
      "midi": 61,
      "hit": false,
      "t": 5999.994,
      "d": 428.5709999999999,
      "v": 127
    },
    {
      "midi": 64,
      "hit": false,
      "t": 5999.994,
      "d": 428.5709999999999,
      "v": 127
    },
    {
      "midi": 69,
      "hit": false,
      "t": 5999.994,
      "d": 428.5709999999999,
      "v": 127
    },
    {
      "midi": 61,
      "hit": false,
      "t": 6428.565,
      "d": 428.5709999999999,
      "v": 127
    },
    {
      "midi": 64,
      "hit": false,
      "t": 6428.565,
      "d": 428.5709999999999,
      "v": 127
    },
    {
      "midi": 69,
      "hit": false,
      "t": 6428.565,
      "d": 428.5709999999999,
      "v": 127
    },
    {
      "midi": 69,
      "hit": false,
      "t": 6857.1359999999995,
      "d": 428.5709999999999,
      "v": 127
    },
    {
      "midi": 93,
      "hit": false,
      "t": 6857.1359999999995,
      "d": 428.5709999999999,
      "v": 127
    },
    {
      "midi": 69,
      "hit": false,
      "t": 7285.706999999999,
      "d": 428.5709999999999,
      "v": 127
    },
    {
      "midi": 91,
      "hit": false,
      "t": 7285.706999999999,
      "d": 428.5709999999999,
      "v": 127
    },
    {
      "midi": 69,
      "hit": false,
      "t": 7714.277999999999,
      "d": 428.5709999999999,
      "v": 127
    },
    {
      "midi": 89,
      "hit": false,
      "t": 7714.277999999999,
      "d": 428.5709999999999,
      "v": 127
    },
    {
      "midi": 69,
      "hit": false,
      "t": 8142.848999999999,
      "d": 428.5710000000008,
      "v": 127
    },
    {
      "midi": 88,
      "hit": false,
      "t": 8142.848999999999,
      "d": 428.5710000000008,
      "v": 127
    },
    {
      "midi": 69,
      "hit": false,
      "t": 8571.42,
      "d": 428.5709999999999,
      "v": 127
    },
    {
      "midi": 88,
      "hit": false,
      "t": 8571.42,
      "d": 428.5709999999999,
      "v": 127
    },
    {
      "midi": 61,
      "hit": false,
      "t": 8999.991,
      "d": 428.5709999999999,
      "v": 127
    },
    {
      "midi": 67,
      "hit": false,
      "t": 8999.991,
      "d": 428.5709999999999,
      "v": 127
    },
    {
      "midi": 69,
      "hit": false,
      "t": 8999.991,
      "d": 428.5709999999999,
      "v": 127
    },
    {
      "midi": 88,
      "hit": false,
      "t": 8999.991,
      "d": 428.5709999999999,
      "v": 127
    },
    {
      "midi": 69,
      "hit": false,
      "t": 9428.562,
      "d": 214.28549999999996,
      "v": 127
    },
    {
      "midi": 89,
      "hit": false,
      "t": 9642.8475,
      "d": 214.28549999999996,
      "v": 127
    },
    {
      "midi": 62,
      "hit": false,
      "t": 9857.133,
      "d": 428.5709999999999,
      "v": 127
    },
    {
      "midi": 65,
      "hit": false,
      "t": 9857.133,
      "d": 428.5709999999999,
      "v": 127
    },
    {
      "midi": 69,
      "hit": false,
      "t": 9857.133,
      "d": 428.5709999999999,
      "v": 127
    },
    {
      "midi": 86,
      "hit": false,
      "t": 9857.133,
      "d": 428.5709999999999,
      "v": 127
    },
    {
      "midi": 89,
      "hit": false,
      "t": 10285.704,
      "d": 428.5709999999999,
      "v": 127
    },
    {
      "midi": 88,
      "hit": false,
      "t": 10714.275,
      "d": 428.5709999999999,
      "v": 127
    },
    {
      "midi": 91,
      "hit": false,
      "t": 11142.846,
      "d": 214.28549999999996,
      "v": 127
    },
    {
      "midi": 89,
      "hit": false,
      "t": 11357.1315,
      "d": 214.28549999999996,
      "v": 127
    },
    {
      "midi": 88,
      "hit": false,
      "t": 11571.417,
      "d": 428.5709999999999,
      "v": 127
    },
    {
      "midi": 89,
      "hit": false,
      "t": 11999.988,
      "d": 214.28549999999996,
      "v": 127
    },
    {
      "midi": 88,
      "hit": false,
      "t": 12214.2735,
      "d": 214.28549999999996,
      "v": 127
    },
    {
      "midi": 62,
      "hit": false,
      "t": 12428.559,
      "d": 428.5709999999999,
      "v": 127
    },
    {
      "midi": 65,
      "hit": false,
      "t": 12428.559,
      "d": 428.5709999999999,
      "v": 127
    },
    {
      "midi": 86,
      "hit": false,
      "t": 12428.559,
      "d": 428.5709999999999,
      "v": 127
    },
    {
      "midi": 65,
      "hit": false,
      "t": 12857.13,
      "d": 428.5709999999999,
      "v": 127
    },
    {
      "midi": 69,
      "hit": false,
      "t": 12857.13,
      "d": 428.5709999999999,
      "v": 127
    },
    {
      "midi": 62,
      "hit": false,
      "t": 13285.701,
      "d": 428.5709999999999,
      "v": 127
    },
    {
      "midi": 65,
      "hit": false,
      "t": 13285.701,
      "d": 428.5709999999999,
      "v": 127
    },
    {
      "midi": 69,
      "hit": false,
      "t": 13714.271999999999,
      "d": 428.5709999999999,
      "v": 127
    },
    {
      "midi": 93,
      "hit": false,
      "t": 13714.271999999999,
      "d": 428.5709999999999,
      "v": 127
    },
    {
      "midi": 69,
      "hit": false,
      "t": 14142.842999999999,
      "d": 428.5709999999999,
      "v": 127
    },
    {
      "midi": 91,
      "hit": false,
      "t": 14142.842999999999,
      "d": 428.5709999999999,
      "v": 127
    },
    {
      "midi": 69,
      "hit": false,
      "t": 14571.413999999999,
      "d": 428.5709999999999,
      "v": 127
    },
    {
      "midi": 89,
      "hit": false,
      "t": 14571.413999999999,
      "d": 428.5709999999999,
      "v": 127
    },
    {
      "midi": 69,
      "hit": false,
      "t": 14999.984999999999,
      "d": 428.5709999999999,
      "v": 127
    },
    {
      "midi": 88,
      "hit": false,
      "t": 14999.984999999999,
      "d": 428.5709999999999,
      "v": 127
    },
    {
      "midi": 69,
      "hit": false,
      "t": 15428.555999999999,
      "d": 428.5709999999999,
      "v": 127
    },
    {
      "midi": 86,
      "hit": false,
      "t": 15428.555999999999,
      "d": 428.5709999999999,
      "v": 127
    },
    {
      "midi": 61,
      "hit": false,
      "t": 15857.126999999999,
      "d": 428.5709999999999,
      "v": 127
    },
    {
      "midi": 67,
      "hit": false,
      "t": 15857.126999999999,
      "d": 428.5709999999999,
      "v": 127
    },
    {
      "midi": 69,
      "hit": false,
      "t": 15857.126999999999,
      "d": 428.5709999999999,
      "v": 127
    },
    {
      "midi": 88,
      "hit": false,
      "t": 15857.126999999999,
      "d": 428.5709999999999,
      "v": 127
    },
    {
      "midi": 69,
      "hit": false,
      "t": 16285.697999999999,
      "d": 214.28549999999996,
      "v": 127
    },
    {
      "midi": 89,
      "hit": false,
      "t": 16499.9835,
      "d": 214.28550000000178,
      "v": 127
    },
    {
      "midi": 62,
      "hit": false,
      "t": 16714.269,
      "d": 428.5709999999999,
      "v": 127
    },
    {
      "midi": 65,
      "hit": false,
      "t": 16714.269,
      "d": 428.5709999999999,
      "v": 127
    },
    {
      "midi": 69,
      "hit": false,
      "t": 16714.269,
      "d": 428.5709999999999,
      "v": 127
    },
    {
      "midi": 86,
      "hit": false,
      "t": 16714.269,
      "d": 428.5709999999999,
      "v": 127
    },
    {
      "midi": 89,
      "hit": false,
      "t": 17142.84,
      "d": 428.5709999999999,
      "v": 127
    },
    {
      "midi": 61,
      "hit": false,
      "t": 17571.411,
      "d": 428.5709999999999,
      "v": 127
    },
    {
      "midi": 67,
      "hit": false,
      "t": 17571.411,
      "d": 428.5709999999999,
      "v": 127
    },
    {
      "midi": 69,
      "hit": false,
      "t": 17571.411,
      "d": 428.5709999999999,
      "v": 127
    },
    {
      "midi": 88,
      "hit": false,
      "t": 17571.411,
      "d": 428.5709999999999,
      "v": 127
    },
    {
      "midi": 69,
      "hit": false,
      "t": 17999.982,
      "d": 214.28550000000178,
      "v": 127
    },
    {
      "midi": 89,
      "hit": false,
      "t": 18214.2675,
      "d": 214.28550000000178,
      "v": 127
    },
    {
      "midi": 86,
      "hit": false,
      "t": 18428.553000000004,
      "d": 214.28550000000178,
      "v": 127
    },
    {
      "midi": 88,
      "hit": false,
      "t": 18642.838500000005,
      "d": 214.28550000000178,
      "v": 127
    },
    {
      "midi": 89,
      "hit": false,
      "t": 18857.124000000007,
      "d": 214.28550000000178,
      "v": 127
    },
    {
      "midi": 91,
      "hit": false,
      "t": 19071.40950000001,
      "d": 214.28550000000178,
      "v": 127
    },
    {
      "midi": 61,
      "hit": false,
      "t": 19285.69500000001,
      "d": 428.5709999999999,
      "v": 127
    },
    {
      "midi": 64,
      "hit": false,
      "t": 19285.69500000001,
      "d": 428.5709999999999,
      "v": 127
    },
    {
      "midi": 69,
      "hit": false,
      "t": 19285.69500000001,
      "d": 428.5709999999999,
      "v": 127
    },
    {
      "midi": 93,
      "hit": false,
      "t": 19285.69500000001,
      "d": 428.5709999999999,
      "v": 127
    },
    {
      "midi": 61,
      "hit": false,
      "t": 19714.26600000001,
      "d": 428.5709999999999,
      "v": 127
    },
    {
      "midi": 64,
      "hit": false,
      "t": 19714.26600000001,
      "d": 428.5709999999999,
      "v": 127
    },
    {
      "midi": 69,
      "hit": false,
      "t": 19714.26600000001,
      "d": 428.5709999999999,
      "v": 127
    },
    {
      "midi": 61,
      "hit": false,
      "t": 20142.83700000001,
      "d": 428.5709999999999,
      "v": 127
    },
    {
      "midi": 64,
      "hit": false,
      "t": 20142.83700000001,
      "d": 428.5709999999999,
      "v": 127
    },
    {
      "midi": 69,
      "hit": false,
      "t": 20142.83700000001,
      "d": 428.5709999999999,
      "v": 127
    },
    {
      "midi": 69,
      "hit": false,
      "t": 20571.40800000001,
      "d": 428.5709999999999,
      "v": 127
    },
    {
      "midi": 93,
      "hit": false,
      "t": 20571.40800000001,
      "d": 428.5709999999999,
      "v": 127
    },
    {
      "midi": 69,
      "hit": false,
      "t": 20999.97900000001,
      "d": 428.5709999999999,
      "v": 127
    },
    {
      "midi": 91,
      "hit": false,
      "t": 20999.97900000001,
      "d": 428.5709999999999,
      "v": 127
    },
    {
      "midi": 69,
      "hit": false,
      "t": 21428.55000000001,
      "d": 428.5709999999999,
      "v": 127
    },
    {
      "midi": 89,
      "hit": false,
      "t": 21428.55000000001,
      "d": 428.5709999999999,
      "v": 127
    },
    {
      "midi": 69,
      "hit": false,
      "t": 21857.12100000001,
      "d": 428.5709999999999,
      "v": 127
    },
    {
      "midi": 88,
      "hit": false,
      "t": 21857.12100000001,
      "d": 428.5709999999999,
      "v": 127
    },
    {
      "midi": 69,
      "hit": false,
      "t": 22285.69200000001,
      "d": 428.5709999999999,
      "v": 127
    },
    {
      "midi": 88,
      "hit": false,
      "t": 22285.69200000001,
      "d": 428.5709999999999,
      "v": 127
    },
    {
      "midi": 61,
      "hit": false,
      "t": 22714.26300000001,
      "d": 428.5709999999999,
      "v": 127
    },
    {
      "midi": 67,
      "hit": false,
      "t": 22714.26300000001,
      "d": 428.5709999999999,
      "v": 127
    },
    {
      "midi": 69,
      "hit": false,
      "t": 22714.26300000001,
      "d": 428.5709999999999,
      "v": 127
    },
    {
      "midi": 88,
      "hit": false,
      "t": 22714.26300000001,
      "d": 428.5709999999999,
      "v": 127
    },
    {
      "midi": 69,
      "hit": false,
      "t": 23142.83400000001,
      "d": 214.28550000000178,
      "v": 127
    },
    {
      "midi": 89,
      "hit": false,
      "t": 23357.11950000001,
      "d": 214.28550000000178,
      "v": 127
    },
    {
      "midi": 62,
      "hit": false,
      "t": 23571.405000000013,
      "d": 428.5709999999999,
      "v": 127
    },
    {
      "midi": 65,
      "hit": false,
      "t": 23571.405000000013,
      "d": 428.5709999999999,
      "v": 127
    },
    {
      "midi": 69,
      "hit": false,
      "t": 23571.405000000013,
      "d": 428.5709999999999,
      "v": 127
    },
    {
      "midi": 86,
      "hit": false,
      "t": 23571.405000000013,
      "d": 428.5709999999999,
      "v": 127
    },
    {
      "midi": 89,
      "hit": false,
      "t": 23999.976000000013,
      "d": 428.5709999999999,
      "v": 127
    },
    {
      "midi": 88,
      "hit": false,
      "t": 24428.547000000013,
      "d": 428.5709999999999,
      "v": 127
    },
    {
      "midi": 91,
      "hit": false,
      "t": 24857.118000000013,
      "d": 214.28550000000178,
      "v": 127
    },
    {
      "midi": 89,
      "hit": false,
      "t": 25071.403500000015,
      "d": 214.28550000000178,
      "v": 127
    },
    {
      "midi": 88,
      "hit": false,
      "t": 25285.689000000017,
      "d": 428.5709999999999,
      "v": 127
    },
    {
      "midi": 89,
      "hit": false,
      "t": 25714.260000000017,
      "d": 214.28550000000178,
      "v": 127
    },
    {
      "midi": 88,
      "hit": false,
      "t": 25928.54550000002,
      "d": 214.28550000000178,
      "v": 127
    },
    {
      "midi": 62,
      "hit": false,
      "t": 26142.83100000002,
      "d": 428.5709999999999,
      "v": 127
    },
    {
      "midi": 65,
      "hit": false,
      "t": 26142.83100000002,
      "d": 428.5709999999999,
      "v": 127
    },
    {
      "midi": 86,
      "hit": false,
      "t": 26142.83100000002,
      "d": 428.5709999999999,
      "v": 127
    },
    {
      "midi": 65,
      "hit": false,
      "t": 26571.40200000002,
      "d": 428.5709999999999,
      "v": 127
    },
    {
      "midi": 69,
      "hit": false,
      "t": 26571.40200000002,
      "d": 428.5709999999999,
      "v": 127
    },
    {
      "midi": 62,
      "hit": false,
      "t": 26999.97300000002,
      "d": 428.5709999999999,
      "v": 127
    },
    {
      "midi": 65,
      "hit": false,
      "t": 26999.97300000002,
      "d": 428.5709999999999,
      "v": 127
    },
    {
      "midi": 86,
      "hit": false,
      "t": 27428.54400000002,
      "d": 428.5709999999999,
      "v": 127
    },
    {
      "midi": 88,
      "hit": false,
      "t": 27857.11500000002,
      "d": 428.5709999999999,
      "v": 127
    },
    {
      "midi": 60,
      "hit": false,
      "t": 28285.68600000002,
      "d": 428.5709999999999,
      "v": 127
    },
    {
      "midi": 67,
      "hit": false,
      "t": 28285.68600000002,
      "d": 428.5709999999999,
      "v": 127
    },
    {
      "midi": 70,
      "hit": false,
      "t": 28285.68600000002,
      "d": 428.5709999999999,
      "v": 127
    },
    {
      "midi": 88,
      "hit": false,
      "t": 28285.68600000002,
      "d": 428.5709999999999,
      "v": 127
    },
    {
      "midi": 86,
      "hit": false,
      "t": 28714.25700000002,
      "d": 428.5709999999999,
      "v": 127
    },
    {
      "midi": 60,
      "hit": false,
      "t": 29142.82800000002,
      "d": 428.5709999999999,
      "v": 127
    },
    {
      "midi": 67,
      "hit": false,
      "t": 29142.82800000002,
      "d": 428.5709999999999,
      "v": 127
    },
    {
      "midi": 70,
      "hit": false,
      "t": 29142.82800000002,
      "d": 428.5709999999999,
      "v": 127
    },
    {
      "midi": 88,
      "hit": false,
      "t": 29142.82800000002,
      "d": 428.5709999999999,
      "v": 127
    },
    {
      "midi": 89,
      "hit": false,
      "t": 29571.39900000002,
      "d": 428.5709999999999,
      "v": 127
    },
    {
      "midi": 69,
      "hit": false,
      "t": 29999.97000000002,
      "d": 214.28550000000178,
      "v": 127
    },
    {
      "midi": 91,
      "hit": false,
      "t": 30214.25550000002,
      "d": 214.28550000000178,
      "v": 127
    },
    {
      "midi": 89,
      "hit": false,
      "t": 30428.541000000023,
      "d": 428.5709999999999,
      "v": 127
    },
    {
      "midi": 60,
      "hit": false,
      "t": 30857.112000000023,
      "d": 428.5709999999999,
      "v": 127
    },
    {
      "midi": 65,
      "hit": false,
      "t": 30857.112000000023,
      "d": 428.5709999999999,
      "v": 127
    },
    {
      "midi": 69,
      "hit": false,
      "t": 30857.112000000023,
      "d": 428.5709999999999,
      "v": 127
    },
    {
      "midi": 89,
      "hit": false,
      "t": 30857.112000000023,
      "d": 428.5709999999999,
      "v": 127
    },
    {
      "midi": 91,
      "hit": false,
      "t": 31285.683000000023,
      "d": 428.5709999999999,
      "v": 127
    },
    {
      "midi": 60,
      "hit": false,
      "t": 31714.254000000023,
      "d": 428.5709999999999,
      "v": 127
    },
    {
      "midi": 64,
      "hit": false,
      "t": 31714.254000000023,
      "d": 428.5709999999999,
      "v": 127
    },
    {
      "midi": 70,
      "hit": false,
      "t": 31714.254000000023,
      "d": 428.5709999999999,
      "v": 127
    },
    {
      "midi": 91,
      "hit": false,
      "t": 31714.254000000023,
      "d": 428.5709999999999,
      "v": 127
    },
    {
      "midi": 89,
      "hit": false,
      "t": 32142.825000000023,
      "d": 428.5709999999999,
      "v": 127
    },
    {
      "midi": 60,
      "hit": false,
      "t": 32571.396000000022,
      "d": 428.57100000000355,
      "v": 127
    },
    {
      "midi": 64,
      "hit": false,
      "t": 32571.396000000022,
      "d": 428.57100000000355,
      "v": 127
    },
    {
      "midi": 70,
      "hit": false,
      "t": 32571.396000000022,
      "d": 428.57100000000355,
      "v": 127
    },
    {
      "midi": 91,
      "hit": false,
      "t": 32571.396000000022,
      "d": 428.57100000000355,
      "v": 127
    },
    {
      "midi": 93,
      "hit": false,
      "t": 32999.967000000026,
      "d": 428.57100000000355,
      "v": 127
    },
    {
      "midi": 60,
      "hit": false,
      "t": 33428.53800000003,
      "d": 857.1419999999998,
      "v": 127
    },
    {
      "midi": 65,
      "hit": false,
      "t": 33428.53800000003,
      "d": 857.1419999999998,
      "v": 127
    },
    {
      "midi": 69,
      "hit": false,
      "t": 33428.53800000003,
      "d": 857.1419999999998,
      "v": 127
    },
    {
      "midi": 60,
      "hit": false,
      "t": 34285.68000000003,
      "d": 428.57100000000355,
      "v": 127
    },
    {
      "midi": 65,
      "hit": false,
      "t": 34285.68000000003,
      "d": 428.57100000000355,
      "v": 127
    },
    {
      "midi": 69,
      "hit": false,
      "t": 34285.68000000003,
      "d": 428.57100000000355,
      "v": 127
    },
    {
      "midi": 93,
      "hit": false,
      "t": 34285.68000000003,
      "d": 428.57100000000355,
      "v": 127
    },
    {
      "midi": 91,
      "hit": false,
      "t": 34714.25100000003,
      "d": 428.57100000000355,
      "v": 127
    },
    {
      "midi": 64,
      "hit": false,
      "t": 35142.82200000004,
      "d": 428.57100000000355,
      "v": 127
    },
    {
      "midi": 67,
      "hit": false,
      "t": 35142.82200000004,
      "d": 428.57100000000355,
      "v": 127
    },
    {
      "midi": 69,
      "hit": false,
      "t": 35142.82200000004,
      "d": 428.57100000000355,
      "v": 127
    },
    {
      "midi": 91,
      "hit": false,
      "t": 35142.82200000004,
      "d": 428.57100000000355,
      "v": 127
    },
    {
      "midi": 93,
      "hit": false,
      "t": 35571.39300000004,
      "d": 428.57100000000355,
      "v": 127
    },
    {
      "midi": 64,
      "hit": false,
      "t": 35999.96400000004,
      "d": 428.57100000000355,
      "v": 127
    },
    {
      "midi": 67,
      "hit": false,
      "t": 35999.96400000004,
      "d": 428.57100000000355,
      "v": 127
    },
    {
      "midi": 69,
      "hit": false,
      "t": 35999.96400000004,
      "d": 428.57100000000355,
      "v": 127
    },
    {
      "midi": 88,
      "hit": false,
      "t": 35999.96400000004,
      "d": 428.57100000000355,
      "v": 127
    },
    {
      "midi": 89,
      "hit": false,
      "t": 36428.53500000005,
      "d": 428.57100000000355,
      "v": 127
    },
    {
      "midi": 69,
      "hit": false,
      "t": 36857.10600000005,
      "d": 214.28549999999814,
      "v": 127
    },
    {
      "midi": 88,
      "hit": false,
      "t": 37071.39150000005,
      "d": 214.28549999999814,
      "v": 127
    },
    {
      "midi": 86,
      "hit": false,
      "t": 37285.67700000005,
      "d": 428.57100000000355,
      "v": 127
    },
    {
      "midi": 62,
      "hit": false,
      "t": 37714.24800000005,
      "d": 428.57100000000355,
      "v": 127
    },
    {
      "midi": 65,
      "hit": false,
      "t": 37714.24800000005,
      "d": 428.57100000000355,
      "v": 127
    },
    {
      "midi": 69,
      "hit": false,
      "t": 37714.24800000005,
      "d": 428.57100000000355,
      "v": 127
    },
    {
      "midi": 86,
      "hit": false,
      "t": 37714.24800000005,
      "d": 428.57100000000355,
      "v": 127
    },
    {
      "midi": 88,
      "hit": false,
      "t": 38142.819000000054,
      "d": 428.57100000000355,
      "v": 127
    },
    {
      "midi": 62,
      "hit": false,
      "t": 38571.39000000006,
      "d": 428.57100000000355,
      "v": 127
    },
    {
      "midi": 64,
      "hit": false,
      "t": 38571.39000000006,
      "d": 428.57100000000355,
      "v": 127
    },
    {
      "midi": 70,
      "hit": false,
      "t": 38571.39000000006,
      "d": 428.57100000000355,
      "v": 127
    },
    {
      "midi": 91,
      "hit": false,
      "t": 38571.39000000006,
      "d": 428.57100000000355,
      "v": 127
    },
    {
      "midi": 89,
      "hit": false,
      "t": 38999.96100000006,
      "d": 428.57100000000355,
      "v": 127
    },
    {
      "midi": 61,
      "hit": false,
      "t": 39428.532000000065,
      "d": 428.57100000000355,
      "v": 127
    },
    {
      "midi": 67,
      "hit": false,
      "t": 39428.532000000065,
      "d": 428.57100000000355,
      "v": 127
    },
    {
      "midi": 69,
      "hit": false,
      "t": 39428.532000000065,
      "d": 428.57100000000355,
      "v": 127
    },
    {
      "midi": 88,
      "hit": false,
      "t": 39428.532000000065,
      "d": 428.57100000000355,
      "v": 127
    },
    {
      "midi": 62,
      "hit": false,
      "t": 39857.10300000007,
      "d": 428.57100000000355,
      "v": 127
    },
    {
      "midi": 65,
      "hit": false,
      "t": 39857.10300000007,
      "d": 428.57100000000355,
      "v": 127
    },
    {
      "midi": 86,
      "hit": false,
      "t": 39857.10300000007,
      "d": 428.57100000000355,
      "v": 127
    },
    {
      "midi": 65,
      "hit": false,
      "t": 40285.67400000007,
      "d": 428.57100000000355,
      "v": 127
    },
    {
      "midi": 69,
      "hit": false,
      "t": 40285.67400000007,
      "d": 428.57100000000355,
      "v": 127
    },
    {
      "midi": 62,
      "hit": false,
      "t": 40714.245000000075,
      "d": 428.57100000000355,
      "v": 127
    },
    {
      "midi": 65,
      "hit": false,
      "t": 40714.245000000075,
      "d": 428.57100000000355,
      "v": 127
    },
    {
      "midi": 86,
      "hit": false,
      "t": 41142.81600000008,
      "d": 428.57100000000355,
      "v": 127
    },
    {
      "midi": 88,
      "hit": false,
      "t": 41571.38700000008,
      "d": 428.57100000000355,
      "v": 127
    },
    {
      "midi": 60,
      "hit": false,
      "t": 41999.958000000086,
      "d": 428.57100000000355,
      "v": 127
    },
    {
      "midi": 67,
      "hit": false,
      "t": 41999.958000000086,
      "d": 428.57100000000355,
      "v": 127
    },
    {
      "midi": 70,
      "hit": false,
      "t": 41999.958000000086,
      "d": 428.57100000000355,
      "v": 127
    },
    {
      "midi": 88,
      "hit": false,
      "t": 41999.958000000086,
      "d": 428.57100000000355,
      "v": 127
    },
    {
      "midi": 86,
      "hit": false,
      "t": 42428.52900000009,
      "d": 428.57100000000355,
      "v": 127
    },
    {
      "midi": 60,
      "hit": false,
      "t": 42857.10000000009,
      "d": 428.57100000000355,
      "v": 127
    },
    {
      "midi": 67,
      "hit": false,
      "t": 42857.10000000009,
      "d": 428.57100000000355,
      "v": 127
    },
    {
      "midi": 70,
      "hit": false,
      "t": 42857.10000000009,
      "d": 428.57100000000355,
      "v": 127
    },
    {
      "midi": 88,
      "hit": false,
      "t": 42857.10000000009,
      "d": 428.57100000000355,
      "v": 127
    },
    {
      "midi": 89,
      "hit": false,
      "t": 43285.6710000001,
      "d": 428.57100000000355,
      "v": 127
    },
    {
      "midi": 69,
      "hit": false,
      "t": 43714.2420000001,
      "d": 214.28549999999814,
      "v": 127
    },
    {
      "midi": 91,
      "hit": false,
      "t": 43928.5275000001,
      "d": 214.28549999999814,
      "v": 127
    },
    {
      "midi": 89,
      "hit": false,
      "t": 44142.8130000001,
      "d": 428.57100000000355,
      "v": 127
    },
    {
      "midi": 60,
      "hit": false,
      "t": 44571.3840000001,
      "d": 428.57100000000355,
      "v": 127
    },
    {
      "midi": 65,
      "hit": false,
      "t": 44571.3840000001,
      "d": 428.57100000000355,
      "v": 127
    },
    {
      "midi": 69,
      "hit": false,
      "t": 44571.3840000001,
      "d": 428.57100000000355,
      "v": 127
    },
    {
      "midi": 89,
      "hit": false,
      "t": 44571.3840000001,
      "d": 428.57100000000355,
      "v": 127
    },
    {
      "midi": 91,
      "hit": false,
      "t": 44999.9550000001,
      "d": 428.57100000000355,
      "v": 127
    },
    {
      "midi": 60,
      "hit": false,
      "t": 45428.52600000011,
      "d": 428.57100000000355,
      "v": 127
    },
    {
      "midi": 64,
      "hit": false,
      "t": 45428.52600000011,
      "d": 428.57100000000355,
      "v": 127
    },
    {
      "midi": 70,
      "hit": false,
      "t": 45428.52600000011,
      "d": 428.57100000000355,
      "v": 127
    },
    {
      "midi": 91,
      "hit": false,
      "t": 45428.52600000011,
      "d": 428.57100000000355,
      "v": 127
    },
    {
      "midi": 89,
      "hit": false,
      "t": 45857.09700000011,
      "d": 428.57100000000355,
      "v": 127
    },
    {
      "midi": 60,
      "hit": false,
      "t": 46285.668000000114,
      "d": 428.57100000000355,
      "v": 127
    },
    {
      "midi": 64,
      "hit": false,
      "t": 46285.668000000114,
      "d": 428.57100000000355,
      "v": 127
    },
    {
      "midi": 70,
      "hit": false,
      "t": 46285.668000000114,
      "d": 428.57100000000355,
      "v": 127
    },
    {
      "midi": 91,
      "hit": false,
      "t": 46285.668000000114,
      "d": 428.57100000000355,
      "v": 127
    },
    {
      "midi": 93,
      "hit": false,
      "t": 46714.23900000012,
      "d": 428.57100000000355,
      "v": 127
    },
    {
      "midi": 60,
      "hit": false,
      "t": 47142.81000000012,
      "d": 857.1419999999998,
      "v": 127
    },
    {
      "midi": 65,
      "hit": false,
      "t": 47142.81000000012,
      "d": 857.1419999999998,
      "v": 127
    },
    {
      "midi": 69,
      "hit": false,
      "t": 47142.81000000012,
      "d": 857.1419999999998,
      "v": 127
    },
    {
      "midi": 60,
      "hit": false,
      "t": 47999.95200000012,
      "d": 428.57100000000355,
      "v": 127
    },
    {
      "midi": 65,
      "hit": false,
      "t": 47999.95200000012,
      "d": 428.57100000000355,
      "v": 127
    },
    {
      "midi": 69,
      "hit": false,
      "t": 47999.95200000012,
      "d": 428.57100000000355,
      "v": 127
    },
    {
      "midi": 93,
      "hit": false,
      "t": 47999.95200000012,
      "d": 428.57100000000355,
      "v": 127
    },
    {
      "midi": 91,
      "hit": false,
      "t": 48428.523000000125,
      "d": 428.57100000000355,
      "v": 127
    },
    {
      "midi": 64,
      "hit": false,
      "t": 48857.09400000013,
      "d": 428.57100000000355,
      "v": 127
    },
    {
      "midi": 67,
      "hit": false,
      "t": 48857.09400000013,
      "d": 428.57100000000355,
      "v": 127
    },
    {
      "midi": 69,
      "hit": false,
      "t": 48857.09400000013,
      "d": 428.57100000000355,
      "v": 127
    },
    {
      "midi": 91,
      "hit": false,
      "t": 48857.09400000013,
      "d": 428.57100000000355,
      "v": 127
    },
    {
      "midi": 93,
      "hit": false,
      "t": 49285.66500000013,
      "d": 428.57100000000355,
      "v": 127
    },
    {
      "midi": 64,
      "hit": false,
      "t": 49714.236000000135,
      "d": 428.57100000000355,
      "v": 127
    },
    {
      "midi": 67,
      "hit": false,
      "t": 49714.236000000135,
      "d": 428.57100000000355,
      "v": 127
    },
    {
      "midi": 69,
      "hit": false,
      "t": 49714.236000000135,
      "d": 428.57100000000355,
      "v": 127
    },
    {
      "midi": 88,
      "hit": false,
      "t": 49714.236000000135,
      "d": 428.57100000000355,
      "v": 127
    },
    {
      "midi": 89,
      "hit": false,
      "t": 50142.80700000014,
      "d": 428.57100000000355,
      "v": 127
    },
    {
      "midi": 69,
      "hit": false,
      "t": 50571.37800000014,
      "d": 214.28549999999814,
      "v": 127
    },
    {
      "midi": 88,
      "hit": false,
      "t": 50785.66350000014,
      "d": 214.28549999999814,
      "v": 127
    },
    {
      "midi": 86,
      "hit": false,
      "t": 50999.94900000014,
      "d": 428.57100000000355,
      "v": 127
    },
    {
      "midi": 62,
      "hit": false,
      "t": 51428.52000000014,
      "d": 428.57100000000355,
      "v": 127
    },
    {
      "midi": 65,
      "hit": false,
      "t": 51428.52000000014,
      "d": 428.57100000000355,
      "v": 127
    },
    {
      "midi": 69,
      "hit": false,
      "t": 51428.52000000014,
      "d": 428.57100000000355,
      "v": 127
    },
    {
      "midi": 86,
      "hit": false,
      "t": 51428.52000000014,
      "d": 428.57100000000355,
      "v": 127
    },
    {
      "midi": 88,
      "hit": false,
      "t": 51857.091000000146,
      "d": 428.57100000000355,
      "v": 127
    },
    {
      "midi": 62,
      "hit": false,
      "t": 52285.66200000015,
      "d": 428.57100000000355,
      "v": 127
    },
    {
      "midi": 64,
      "hit": false,
      "t": 52285.66200000015,
      "d": 428.57100000000355,
      "v": 127
    },
    {
      "midi": 70,
      "hit": false,
      "t": 52285.66200000015,
      "d": 428.57100000000355,
      "v": 127
    },
    {
      "midi": 91,
      "hit": false,
      "t": 52285.66200000015,
      "d": 428.57100000000355,
      "v": 127
    },
    {
      "midi": 89,
      "hit": false,
      "t": 52714.23300000015,
      "d": 428.57100000000355,
      "v": 127
    },
    {
      "midi": 61,
      "hit": false,
      "t": 53142.80400000016,
      "d": 428.57100000000355,
      "v": 127
    },
    {
      "midi": 67,
      "hit": false,
      "t": 53142.80400000016,
      "d": 428.57100000000355,
      "v": 127
    },
    {
      "midi": 69,
      "hit": false,
      "t": 53142.80400000016,
      "d": 428.57100000000355,
      "v": 127
    },
    {
      "midi": 88,
      "hit": false,
      "t": 53142.80400000016,
      "d": 428.57100000000355,
      "v": 127
    },
    {
      "midi": 86,
      "hit": false,
      "t": 53571.37500000016,
      "d": 214.28549999999814,
      "v": 127
    },
    {
      "midi": 65,
      "hit": false,
      "t": 53785.66050000016,
      "d": 214.28549999999814,
      "v": 127
    },
    {
      "midi": 69,
      "hit": false,
      "t": 53999.946000000156,
      "d": 214.28549999999814,
      "v": 127
    },
    {
      "midi": 65,
      "hit": false,
      "t": 54214.231500000154,
      "d": 214.28549999999814,
      "v": 127
    },
    {
      "midi": 62,
      "hit": false,
      "t": 54428.51700000015,
      "d": 214.28549999999814,
      "v": 127
    },
    {
      "midi": 65,
      "hit": false,
      "t": 54642.80250000015,
      "d": 214.28549999999814,
      "v": 127
    },
    {
      "midi": 86,
      "hit": false,
      "t": 54857.08800000015,
      "d": 214.28549999999814,
      "v": 127
    },
    {
      "midi": 65,
      "hit": false,
      "t": 55071.37350000015,
      "d": 214.28549999999814,
      "v": 127
    },
    {
      "midi": 89,
      "hit": false,
      "t": 55285.659000000145,
      "d": 214.28549999999814,
      "v": 127
    },
    {
      "midi": 65,
      "hit": false,
      "t": 55499.94450000014,
      "d": 214.28549999999814,
      "v": 127
    },
    {
      "midi": 68,
      "hit": false,
      "t": 55714.23000000014,
      "d": 214.28549999999814,
      "v": 127
    },
    {
      "midi": 65,
      "hit": false,
      "t": 55928.51550000014,
      "d": 214.28549999999814,
      "v": 127
    },
    {
      "midi": 88,
      "hit": false,
      "t": 55928.51550000014,
      "d": 214.28549999999814,
      "v": 127
    },
    {
      "midi": 86,
      "hit": false,
      "t": 56142.80100000014,
      "d": 214.28549999999814,
      "v": 127
    },
    {
      "midi": 65,
      "hit": false,
      "t": 56357.086500000136,
      "d": 214.28549999999814,
      "v": 127
    },
    {
      "midi": 86,
      "hit": false,
      "t": 56571.372000000134,
      "d": 214.28549999999814,
      "v": 127
    },
    {
      "midi": 65,
      "hit": false,
      "t": 56785.65750000013,
      "d": 214.28549999999814,
      "v": 127
    },
    {
      "midi": 93,
      "hit": false,
      "t": 56999.94300000013,
      "d": 214.28549999999814,
      "v": 127
    },
    {
      "midi": 65,
      "hit": false,
      "t": 57214.22850000013,
      "d": 214.28549999999814,
      "v": 127
    },
    {
      "midi": 69,
      "hit": false,
      "t": 57428.51400000013,
      "d": 214.28549999999814,
      "v": 127
    },
    {
      "midi": 65,
      "hit": false,
      "t": 57642.799500000125,
      "d": 214.28549999999814,
      "v": 127
    },
    {
      "midi": 86,
      "hit": false,
      "t": 57857.08500000012,
      "d": 214.28549999999814,
      "v": 127
    },
    {
      "midi": 65,
      "hit": false,
      "t": 58071.37050000012,
      "d": 214.28549999999814,
      "v": 127
    },
    {
      "midi": 86,
      "hit": false,
      "t": 58285.65600000012,
      "d": 214.28549999999814,
      "v": 127
    },
    {
      "midi": 65,
      "hit": false,
      "t": 58499.94150000012,
      "d": 214.28549999999814,
      "v": 127
    },
    {
      "midi": 89,
      "hit": false,
      "t": 58714.227000000115,
      "d": 214.28549999999814,
      "v": 127
    },
    {
      "midi": 65,
      "hit": false,
      "t": 58928.51250000011,
      "d": 214.28549999999814,
      "v": 127
    },
    {
      "midi": 68,
      "hit": false,
      "t": 59142.79800000011,
      "d": 214.28549999999814,
      "v": 127
    },
    {
      "midi": 65,
      "hit": false,
      "t": 59357.08350000011,
      "d": 214.28549999999814,
      "v": 127
    },
    {
      "midi": 88,
      "hit": false,
      "t": 59357.08350000011,
      "d": 214.28549999999814,
      "v": 127
    },
    {
      "midi": 86,
      "hit": false,
      "t": 59571.36900000011,
      "d": 214.28549999999814,
      "v": 127
    },
    {
      "midi": 65,
      "hit": false,
      "t": 59785.654500000106,
      "d": 214.28549999999814,
      "v": 127
    },
    {
      "midi": 86,
      "hit": false,
      "t": 59999.940000000104,
      "d": 214.28549999999814,
      "v": 127
    },
    {
      "midi": 65,
      "hit": false,
      "t": 60214.2255000001,
      "d": 214.28549999999814,
      "v": 127
    },
    {
      "midi": 93,
      "hit": false,
      "t": 60428.5110000001,
      "d": 214.28549999999814,
      "v": 127
    },
    {
      "midi": 65,
      "hit": false,
      "t": 60642.7965000001,
      "d": 214.28549999999814,
      "v": 127
    },
    {
      "midi": 69,
      "hit": false,
      "t": 60857.0820000001,
      "d": 214.28549999999814,
      "v": 127
    },
    {
      "midi": 65,
      "hit": false,
      "t": 61071.367500000095,
      "d": 214.28549999999814,
      "v": 127
    },
    {
      "midi": 62,
      "hit": false,
      "t": 61285.65300000009,
      "d": 214.28549999999814,
      "v": 127
    },
    {
      "midi": 65,
      "hit": false,
      "t": 61499.93850000009,
      "d": 214.28549999999814,
      "v": 127
    },
    {
      "midi": 86,
      "hit": false,
      "t": 61714.22400000009,
      "d": 214.28549999999814,
      "v": 127
    },
    {
      "midi": 65,
      "hit": false,
      "t": 61928.50950000009,
      "d": 214.28549999999814,
      "v": 127
    },
    {
      "midi": 89,
      "hit": false,
      "t": 62142.795000000086,
      "d": 214.28549999999814,
      "v": 127
    },
    {
      "midi": 65,
      "hit": false,
      "t": 62357.080500000084,
      "d": 214.28549999999814,
      "v": 127
    },
    {
      "midi": 68,
      "hit": false,
      "t": 62571.36600000008,
      "d": 214.28549999999814,
      "v": 127
    },
    {
      "midi": 65,
      "hit": false,
      "t": 62785.65150000008,
      "d": 214.28549999999814,
      "v": 127
    },
    {
      "midi": 88,
      "hit": false,
      "t": 62785.65150000008,
      "d": 214.28549999999814,
      "v": 127
    },
    {
      "midi": 86,
      "hit": false,
      "t": 62999.93700000008,
      "d": 214.28549999999814,
      "v": 127
    },
    {
      "midi": 65,
      "hit": false,
      "t": 63214.222500000076,
      "d": 214.28549999999814,
      "v": 127
    },
    {
      "midi": 86,
      "hit": false,
      "t": 63428.508000000074,
      "d": 214.28549999999814,
      "v": 127
    },
    {
      "midi": 65,
      "hit": false,
      "t": 63642.79350000007,
      "d": 214.28549999999814,
      "v": 127
    },
    {
      "midi": 86,
      "hit": false,
      "t": 63857.07900000007,
      "d": 214.28549999999814,
      "v": 127
    },
    {
      "midi": 65,
      "hit": false,
      "t": 64071.36450000007,
      "d": 214.28549999999814,
      "v": 127
    },
    {
      "midi": 69,
      "hit": false,
      "t": 64285.65000000007,
      "d": 214.28549999999814,
      "v": 127
    },
    {
      "midi": 86,
      "hit": false,
      "t": 64285.65000000007,
      "d": 214.28549999999814,
      "v": 127
    },
    {
      "midi": 65,
      "hit": false,
      "t": 64499.935500000065,
      "d": 214.28549999999814,
      "v": 127
    },
    {
      "midi": 88,
      "hit": false,
      "t": 64499.935500000065,
      "d": 214.28549999999814,
      "v": 127
    },
    {
      "midi": 89,
      "hit": false,
      "t": 64714.22100000006,
      "d": 214.28549999999814,
      "v": 127
    },
    {
      "midi": 65,
      "hit": false,
      "t": 64928.50650000006,
      "d": 214.28549999999814,
      "v": 127
    },
    {
      "midi": 69,
      "hit": false,
      "t": 65142.79200000006,
      "d": 214.28549999999814,
      "v": 127
    },
    {
      "midi": 89,
      "hit": false,
      "t": 65142.79200000006,
      "d": 214.28549999999814,
      "v": 127
    },
    {
      "midi": 65,
      "hit": false,
      "t": 65357.07750000006,
      "d": 214.28549999999814,
      "v": 127
    },
    {
      "midi": 91,
      "hit": false,
      "t": 65357.07750000006,
      "d": 214.28549999999814,
      "v": 127
    },
    {
      "midi": 62,
      "hit": false,
      "t": 65571.36300000006,
      "d": 428.5709999999963,
      "v": 127
    },
    {
      "midi": 64,
      "hit": false,
      "t": 65571.36300000006,
      "d": 428.5709999999963,
      "v": 127
    },
    {
      "midi": 69,
      "hit": false,
      "t": 65571.36300000006,
      "d": 428.5709999999963,
      "v": 127
    },
    {
      "midi": 93,
      "hit": false,
      "t": 65571.36300000006,
      "d": 428.5709999999963,
      "v": 127
    },
    {
      "midi": 62,
      "hit": false,
      "t": 65999.93400000005,
      "d": 214.28549999999814,
      "v": 127
    },
    {
      "midi": 64,
      "hit": false,
      "t": 65999.93400000005,
      "d": 214.28549999999814,
      "v": 127
    },
    {
      "midi": 69,
      "hit": false,
      "t": 65999.93400000005,
      "d": 214.28549999999814,
      "v": 127
    },
    {
      "midi": 62,
      "hit": false,
      "t": 66214.21950000005,
      "d": 214.28549999999814,
      "v": 127
    },
    {
      "midi": 64,
      "hit": false,
      "t": 66214.21950000005,
      "d": 214.28549999999814,
      "v": 127
    },
    {
      "midi": 69,
      "hit": false,
      "t": 66214.21950000005,
      "d": 214.28549999999814,
      "v": 127
    },
    {
      "midi": 93,
      "hit": false,
      "t": 66214.21950000005,
      "d": 214.28549999999814,
      "v": 127
    },
    {
      "midi": 61,
      "hit": false,
      "t": 66428.50500000005,
      "d": 428.5709999999963,
      "v": 127
    },
    {
      "midi": 64,
      "hit": false,
      "t": 66428.50500000005,
      "d": 428.5709999999963,
      "v": 127
    },
    {
      "midi": 69,
      "hit": false,
      "t": 66428.50500000005,
      "d": 428.5709999999963,
      "v": 127
    },
    {
      "midi": 93,
      "hit": false,
      "t": 66428.50500000005,
      "d": 428.5709999999963,
      "v": 127
    },
    {
      "midi": 61,
      "hit": false,
      "t": 66857.07600000004,
      "d": 428.5709999999963,
      "v": 127
    },
    {
      "midi": 64,
      "hit": false,
      "t": 66857.07600000004,
      "d": 428.5709999999963,
      "v": 127
    },
    {
      "midi": 69,
      "hit": false,
      "t": 66857.07600000004,
      "d": 428.5709999999963,
      "v": 127
    },
    {
      "midi": 93,
      "hit": false,
      "t": 66857.07600000004,
      "d": 428.5709999999963,
      "v": 127
    },
    {
      "midi": 62,
      "hit": false,
      "t": 67285.64700000004,
      "d": 857.1420000000071,
      "v": 127
    },
    {
      "midi": 65,
      "hit": false,
      "t": 67285.64700000004,
      "d": 857.1420000000071,
      "v": 127
    },
    {
      "midi": 69,
      "hit": false,
      "t": 67285.64700000004,
      "d": 857.1420000000071,
      "v": 127
    },
    {
      "midi": 86,
      "hit": false,
      "t": 67285.64700000004,
      "d": 857.1420000000071,
      "v": 127
    }
  ]
}