{
  "jsonPath": "Classical/Early Romantic Era/Anton Diabelli/melodische-ubungsstucke-no-27.json",
  "path": "Classical\\Early Romantic Era\\Anton Diabelli\\Melodische Übungsstücke (No 27).mid",
  "name": "Melodische Übungsstücke (No 27)",
  "difficulty": "Advanced",
  "bpm": 70.00007000007,
  "notes": [
    {
      "midi": 52,
      "hit": false,
      "t": 0,
      "d": 1714.284,
      "v": 127
    },
    {
      "midi": 68,
      "hit": false,
      "t": 0,
      "d": 1714.284,
      "v": 127
    },
    {
      "midi": 71,
      "hit": false,
      "t": 0,
      "d": 1714.284,
      "v": 127
    },
    {
      "midi": 83,
      "hit": false,
      "t": 0,
      "d": 214.2855,
      "v": 127
    },
    {
      "midi": 56,
      "hit": false,
      "t": 214.2855,
      "d": 214.2855,
      "v": 127
    },
    {
      "midi": 59,
      "hit": false,
      "t": 428.571,
      "d": 214.28550000000007,
      "v": 127
    },
    {
      "midi": 64,
      "hit": false,
      "t": 642.8565000000001,
      "d": 214.28549999999996,
      "v": 127
    },
    {
      "midi": 59,
      "hit": false,
      "t": 857.142,
      "d": 214.28549999999996,
      "v": 127
    },
    {
      "midi": 56,
      "hit": false,
      "t": 1071.4275,
      "d": 214.28549999999996,
      "v": 127
    },
    {
      "midi": 59,
      "hit": false,
      "t": 1285.713,
      "d": 214.28549999999996,
      "v": 127
    },
    {
      "midi": 64,
      "hit": false,
      "t": 1499.9985,
      "d": 214.28549999999996,
      "v": 127
    },
    {
      "midi": 80,
      "hit": false,
      "t": 1499.9985,
      "d": 214.28549999999996,
      "v": 127
    },
    {
      "midi": 76,
      "hit": false,
      "t": 1714.2839999999999,
      "d": 214.28549999999996,
      "v": 127
    },
    {
      "midi": 40,
      "hit": false,
      "t": 1714.284,
      "d": 428.5709999999999,
      "v": 127
    },
    {
      "midi": 56,
      "hit": false,
      "t": 1928.5694999999998,
      "d": 214.28550000000018,
      "v": 127
    },
    {
      "midi": 68,
      "hit": false,
      "t": 2142.855,
      "d": 428.5709999999999,
      "v": 127
    },
    {
      "midi": 71,
      "hit": false,
      "t": 2142.855,
      "d": 428.5709999999999,
      "v": 127
    },
    {
      "midi": 59,
      "hit": false,
      "t": 2142.855,
      "d": 214.28549999999996,
      "v": 127
    },
    {
      "midi": 64,
      "hit": false,
      "t": 2357.1405,
      "d": 214.28549999999996,
      "v": 127
    },
    {
      "midi": 52,
      "hit": false,
      "t": 2571.426,
      "d": 428.5709999999999,
      "v": 127
    },
    {
      "midi": 68,
      "hit": false,
      "t": 2571.426,
      "d": 428.5709999999999,
      "v": 127
    },
    {
      "midi": 71,
      "hit": false,
      "t": 2571.426,
      "d": 428.5709999999999,
      "v": 127
    },
    {
      "midi": 59,
      "hit": false,
      "t": 2571.426,
      "d": 214.28549999999996,
      "v": 127
    },
    {
      "midi": 56,
      "hit": false,
      "t": 2785.7115,
      "d": 214.28549999999996,
      "v": 127
    },
    {
      "midi": 68,
      "hit": false,
      "t": 2999.997,
      "d": 428.5709999999999,
      "v": 127
    },
    {
      "midi": 71,
      "hit": false,
      "t": 2999.997,
      "d": 428.5709999999999,
      "v": 127
    },
    {
      "midi": 59,
      "hit": false,
      "t": 2999.997,
      "d": 214.28549999999996,
      "v": 127
    },
    {
      "midi": 64,
      "hit": false,
      "t": 3214.2825,
      "d": 214.28549999999996,
      "v": 127
    },
    {
      "midi": 80,
      "hit": false,
      "t": 3214.2825,
      "d": 214.28549999999996,
      "v": 127
    },
    {
      "midi": 51,
      "hit": false,
      "t": 3428.5679999999998,
      "d": 1714.284,
      "v": 127
    },
    {
      "midi": 69,
      "hit": false,
      "t": 3428.5679999999998,
      "d": 1714.284,
      "v": 127
    },
    {
      "midi": 71,
      "hit": false,
      "t": 3428.5679999999998,
      "d": 1714.284,
      "v": 127
    },
    {
      "midi": 83,
      "hit": false,
      "t": 3428.5679999999998,
      "d": 214.28549999999996,
      "v": 127
    },
    {
      "midi": 57,
      "hit": false,
      "t": 3642.8534999999997,
      "d": 214.28549999999996,
      "v": 127
    },
    {
      "midi": 59,
      "hit": false,
      "t": 3857.1389999999997,
      "d": 214.28549999999996,
      "v": 127
    },
    {
      "midi": 66,
      "hit": false,
      "t": 4071.4244999999996,
      "d": 214.2855000000004,
      "v": 127
    },
    {
      "midi": 59,
      "hit": false,
      "t": 4285.71,
      "d": 214.28549999999996,
      "v": 127
    },
    {
      "midi": 57,
      "hit": false,
      "t": 4499.9955,
      "d": 214.28549999999996,
      "v": 127
    },
    {
      "midi": 59,
      "hit": false,
      "t": 4714.281,
      "d": 214.28549999999996,
      "v": 127
    },
    {
      "midi": 66,
      "hit": false,
      "t": 4928.5665,
      "d": 214.28549999999996,
      "v": 127
    },
    {
      "midi": 81,
      "hit": false,
      "t": 4928.5665,
      "d": 214.28549999999996,
      "v": 127
    },
    {
      "midi": 39,
      "hit": false,
      "t": 5142.852,
      "d": 428.5709999999999,
      "v": 127
    },
    {
      "midi": 78,
      "hit": false,
      "t": 5142.852,
      "d": 214.28549999999996,
      "v": 127
    },
    {
      "midi": 57,
      "hit": false,
      "t": 5357.1375,
      "d": 214.28549999999996,
      "v": 127
    },
    {
      "midi": 69,
      "hit": false,
      "t": 5571.423,
      "d": 428.5709999999999,
      "v": 127
    },
    {
      "midi": 71,
      "hit": false,
      "t": 5571.423,
      "d": 428.5709999999999,
      "v": 127
    },
    {
      "midi": 59,
      "hit": false,
      "t": 5571.423,
      "d": 214.28549999999996,
      "v": 127
    },
    {
      "midi": 66,
      "hit": false,
      "t": 5785.7085,
      "d": 214.28549999999996,
      "v": 127
    },
    {
      "midi": 51,
      "hit": false,
      "t": 5999.994,
      "d": 428.5709999999999,
      "v": 127
    },
    {
      "midi": 69,
      "hit": false,
      "t": 5999.994,
      "d": 428.5709999999999,
      "v": 127
    },
    {
      "midi": 71,
      "hit": false,
      "t": 5999.994,
      "d": 428.5709999999999,
      "v": 127
    },
    {
      "midi": 59,
      "hit": false,
      "t": 5999.994,
      "d": 214.28549999999996,
      "v": 127
    },
    {
      "midi": 57,
      "hit": false,
      "t": 6214.2795,
      "d": 214.28549999999996,
      "v": 127
    },
    {
      "midi": 69,
      "hit": false,
      "t": 6428.565,
      "d": 428.5709999999999,
      "v": 127
    },
    {
      "midi": 71,
      "hit": false,
      "t": 6428.565,
      "d": 428.5709999999999,
      "v": 127
    },
    {
      "midi": 59,
      "hit": false,
      "t": 6428.565,
      "d": 214.28549999999996,
      "v": 127
    },
    {
      "midi": 66,
      "hit": false,
      "t": 6642.8505,
      "d": 214.28549999999996,
      "v": 127
    },
    {
      "midi": 78,
      "hit": false,
      "t": 6642.8505,
      "d": 214.28549999999996,
      "v": 127
    },
    {
      "midi": 40,
      "hit": false,
      "t": 6857.1359999999995,
      "d": 857.1419999999998,
      "v": 127
    },
    {
      "midi": 52,
      "hit": false,
      "t": 6857.1359999999995,
      "d": 857.1419999999998,
      "v": 127
    },
    {
      "midi": 68,
      "hit": false,
      "t": 6857.1359999999995,
      "d": 857.1419999999998,
      "v": 127
    },
    {
      "midi": 80,
      "hit": false,
      "t": 6857.1359999999995,
      "d": 214.28549999999996,
      "v": 127
    },
    {
      "midi": 64,
      "hit": false,
      "t": 7071.4214999999995,
      "d": 214.28549999999996,
      "v": 127
    },
    {
      "midi": 59,
      "hit": false,
      "t": 7285.706999999999,
      "d": 214.28549999999996,
      "v": 127
    },
    {
      "midi": 56,
      "hit": false,
      "t": 7499.992499999999,
      "d": 214.28549999999996,
      "v": 127
    },
    {
      "midi": 68,
      "hit": false,
      "t": 7714.277999999999,
      "d": 857.1420000000007,
      "v": 127
    },
    {
      "midi": 80,
      "hit": false,
      "t": 7714.277999999999,
      "d": 214.28549999999996,
      "v": 127
    },
    {
      "midi": 59,
      "hit": false,
      "t": 7928.563499999999,
      "d": 214.28549999999996,
      "v": 127
    },
    {
      "midi": 56,
      "hit": false,
      "t": 8142.848999999999,
      "d": 214.28550000000087,
      "v": 127
    },
    {
      "midi": 52,
      "hit": false,
      "t": 8357.1345,
      "d": 214.28549999999996,
      "v": 127
    },
    {
      "midi": 33,
      "hit": false,
      "t": 8571.42,
      "d": 857.1419999999998,
      "v": 127
    },
    {
      "midi": 45,
      "hit": false,
      "t": 8571.42,
      "d": 857.1419999999998,
      "v": 127
    },
    {
      "midi": 71,
      "hit": false,
      "t": 8571.42,
      "d": 857.1419999999998,
      "v": 127
    },
    {
      "midi": 83,
      "hit": false,
      "t": 8571.42,
      "d": 214.28549999999996,
      "v": 127
    },
    {
      "midi": 49,
      "hit": false,
      "t": 8785.7055,
      "d": 214.28549999999996,
      "v": 127
    },
    {
      "midi": 54,
      "hit": false,
      "t": 8999.991,
      "d": 214.28549999999996,
      "v": 127
    },
    {
      "midi": 57,
      "hit": false,
      "t": 9214.2765,
      "d": 214.28549999999996,
      "v": 127
    },
    {
      "midi": 69,
      "hit": false,
      "t": 9428.562,
      "d": 642.8564999999999,
      "v": 127
    },
    {
      "midi": 81,
      "hit": false,
      "t": 9428.562,
      "d": 214.28549999999996,
      "v": 127
    },
    {
      "midi": 49,
      "hit": false,
      "t": 9642.8475,
      "d": 214.28549999999996,
      "v": 127
    },
    {
      "midi": 54,
      "hit": false,
      "t": 9857.133,
      "d": 214.28549999999996,
      "v": 127
    },
    {
      "midi": 68,
      "hit": false,
      "t": 10071.4185,
      "d": 214.28549999999996,
      "v": 127
    },
    {
      "midi": 57,
      "hit": false,
      "t": 10071.4185,
      "d": 214.28549999999996,
      "v": 127
    },
    {
      "midi": 80,
      "hit": false,
      "t": 10071.4185,
      "d": 214.28549999999996,
      "v": 127
    },
    {
      "midi": 47,
      "hit": false,
      "t": 10285.704,
      "d": 1285.7129999999997,
      "v": 127
    },
    {
      "midi": 66,
      "hit": false,
      "t": 10285.704,
      "d": 1285.7129999999997,
      "v": 127
    },
    {
      "midi": 78,
      "hit": false,
      "t": 10285.704,
      "d": 214.28549999999996,
      "v": 127
    },
    {
      "midi": 51,
      "hit": false,
      "t": 10499.9895,
      "d": 214.28549999999996,
      "v": 127
    },
    {
      "midi": 54,
      "hit": false,
      "t": 10714.275,
      "d": 214.28549999999996,
      "v": 127
    },
    {
      "midi": 59,
      "hit": false,
      "t": 10928.5605,
      "d": 214.28549999999996,
      "v": 127
    },
    {
      "midi": 54,
      "hit": false,
      "t": 11142.846,
      "d": 214.28549999999996,
      "v": 127
    },
    {
      "midi": 51,
      "hit": false,
      "t": 11357.1315,
      "d": 214.28549999999996,
      "v": 127
    },
    {
      "midi": 69,
      "hit": false,
      "t": 11571.417,
      "d": 214.28549999999996,
      "v": 127
    },
    {
      "midi": 54,
      "hit": false,
      "t": 11571.417,
      "d": 214.28549999999996,
      "v": 127
    },
    {
      "midi": 81,
      "hit": false,
      "t": 11571.417,
      "d": 214.28549999999996,
      "v": 127
    },
    {
      "midi": 68,
      "hit": false,
      "t": 11785.7025,
      "d": 214.28549999999996,
      "v": 127
    },
    {
      "midi": 59,
      "hit": false,
      "t": 11785.7025,
      "d": 214.28549999999996,
      "v": 127
    },
    {
      "midi": 80,
      "hit": false,
      "t": 11785.7025,
      "d": 214.28549999999996,
      "v": 127
    },
    {
      "midi": 35,
      "hit": false,
      "t": 11999.988,
      "d": 857.1419999999998,
      "v": 127
    },
    {
      "midi": 47,
      "hit": false,
      "t": 11999.988,
      "d": 857.1419999999998,
      "v": 127
    },
    {
      "midi": 66,
      "hit": false,
      "t": 11999.988,
      "d": 857.1419999999998,
      "v": 127
    },
    {
      "midi": 78,
      "hit": false,
      "t": 11999.988,
      "d": 214.28549999999996,
      "v": 127
    },
    {
      "midi": 51,
      "hit": false,
      "t": 12214.2735,
      "d": 214.28549999999996,
      "v": 127
    },
    {
      "midi": 54,
      "hit": false,
      "t": 12428.559,
      "d": 214.28549999999996,
      "v": 127
    },
    {
      "midi": 59,
      "hit": false,
      "t": 12642.8445,
      "d": 214.28549999999996,
      "v": 127
    },
    {
      "midi": 57,
      "hit": false,
      "t": 12857.13,
      "d": 214.28549999999996,
      "v": 127
    },
    {
      "midi": 56,
      "hit": false,
      "t": 13071.4155,
      "d": 214.28549999999996,
      "v": 127
    },
    {
      "midi": 54,
      "hit": false,
      "t": 13285.701,
      "d": 214.28549999999996,
      "v": 127
    },
    {
      "midi": 59,
      "hit": false,
      "t": 13499.986499999999,
      "d": 214.28549999999996,
      "v": 127
    },
    {
      "midi": 80,
      "hit": false,
      "t": 13499.986499999999,
      "d": 214.28549999999996,
      "v": 127
    },
    {
      "midi": 52,
      "hit": false,
      "t": 13714.271999999999,
      "d": 1714.2839999999997,
      "v": 127
    },
    {
      "midi": 68,
      "hit": false,
      "t": 13714.271999999999,
      "d": 1714.2839999999997,
      "v": 127
    },
    {
      "midi": 71,
      "hit": false,
      "t": 13714.271999999999,
      "d": 1714.2839999999997,
      "v": 127
    },
    {
      "midi": 83,
      "hit": false,
      "t": 13714.271999999999,
      "d": 214.28549999999996,
      "v": 127
    },
    {
      "midi": 56,
      "hit": false,
      "t": 13928.557499999999,
      "d": 214.28549999999996,
      "v": 127
    },
    {
      "midi": 59,
      "hit": false,
      "t": 14142.842999999999,
      "d": 214.28549999999996,
      "v": 127
    },
    {
      "midi": 64,
      "hit": false,
      "t": 14357.128499999999,
      "d": 214.28549999999996,
      "v": 127
    },
    {
      "midi": 59,
      "hit": false,
      "t": 14571.413999999999,
      "d": 214.28549999999996,
      "v": 127
    },
    {
      "midi": 56,
      "hit": false,
      "t": 14785.699499999999,
      "d": 214.28549999999996,
      "v": 127
    },
    {
      "midi": 59,
      "hit": false,
      "t": 14999.984999999999,
      "d": 214.28549999999996,
      "v": 127
    },
    {
      "midi": 64,
      "hit": false,
      "t": 15214.270499999999,
      "d": 214.28549999999996,
      "v": 127
    },
    {
      "midi": 80,
      "hit": false,
      "t": 15214.270499999999,
      "d": 214.28549999999996,
      "v": 127
    },
    {
      "midi": 40,
      "hit": false,
      "t": 15428.555999999999,
      "d": 428.5709999999999,
      "v": 127
    },
    {
      "midi": 76,
      "hit": false,
      "t": 15428.555999999999,
      "d": 214.28549999999996,
      "v": 127
    },
    {
      "midi": 56,
      "hit": false,
      "t": 15642.841499999999,
      "d": 214.28549999999996,
      "v": 127
    },
    {
      "midi": 68,
      "hit": false,
      "t": 15857.126999999999,
      "d": 428.5709999999999,
      "v": 127
    },
    {
      "midi": 71,
      "hit": false,
      "t": 15857.126999999999,
      "d": 428.5709999999999,
      "v": 127
    },
    {
      "midi": 59,
      "hit": false,
      "t": 15857.126999999999,
      "d": 214.28549999999996,
      "v": 127
    },
    {
      "midi": 64,
      "hit": false,
      "t": 16071.412499999999,
      "d": 214.28549999999996,
      "v": 127
    },
    {
      "midi": 52,
      "hit": false,
      "t": 16285.697999999999,
      "d": 428.57100000000173,
      "v": 127
    },
    {
      "midi": 68,
      "hit": false,
      "t": 16285.697999999999,
      "d": 428.57100000000173,
      "v": 127
    },
    {
      "midi": 71,
      "hit": false,
      "t": 16285.697999999999,
      "d": 428.57100000000173,
      "v": 127
    },
    {
      "midi": 59,
      "hit": false,
      "t": 16285.697999999999,
      "d": 214.28549999999996,
      "v": 127
    },
    {
      "midi": 56,
      "hit": false,
      "t": 16499.9835,
      "d": 214.28550000000178,
      "v": 127
    },
    {
      "midi": 68,
      "hit": false,
      "t": 16714.269,
      "d": 428.5709999999999,
      "v": 127
    },
    {
      "midi": 71,
      "hit": false,
      "t": 16714.269,
      "d": 428.5709999999999,
      "v": 127
    },
    {
      "midi": 59,
      "hit": false,
      "t": 16714.269,
      "d": 214.28550000000178,
      "v": 127
    },
    {
      "midi": 64,
      "hit": false,
      "t": 16928.554500000002,
      "d": 214.28550000000178,
      "v": 127
    },
    {
      "midi": 80,
      "hit": false,
      "t": 16928.554500000002,
      "d": 214.28550000000178,
      "v": 127
    },
    {
      "midi": 51,
      "hit": false,
      "t": 17142.84,
      "d": 1714.2839999999997,
      "v": 127
    },
    {
      "midi": 69,
      "hit": false,
      "t": 17142.84,
      "d": 1714.2839999999997,
      "v": 127
    },
    {
      "midi": 71,
      "hit": false,
      "t": 17142.84,
      "d": 1714.2839999999997,
      "v": 127
    },
    {
      "midi": 83,
      "hit": false,
      "t": 17142.840000000004,
      "d": 214.28550000000178,
      "v": 127
    },
    {
      "midi": 57,
      "hit": false,
      "t": 17357.125500000006,
      "d": 214.28550000000178,
      "v": 127
    },
    {
      "midi": 59,
      "hit": false,
      "t": 17571.411000000007,
      "d": 214.28550000000178,
      "v": 127
    },
    {
      "midi": 66,
      "hit": false,
      "t": 17785.69650000001,
      "d": 214.28550000000178,
      "v": 127
    },
    {
      "midi": 59,
      "hit": false,
      "t": 17999.98200000001,
      "d": 214.28550000000178,
      "v": 127
    },
    {
      "midi": 57,
      "hit": false,
      "t": 18214.267500000013,
      "d": 214.28550000000178,
      "v": 127
    },
    {
      "midi": 81,
      "hit": false,
      "t": 18214.267500000013,
      "d": 214.28550000000178,
      "v": 127
    },
    {
      "midi": 59,
      "hit": false,
      "t": 18428.553000000014,
      "d": 214.28550000000178,
      "v": 127
    },
    {
      "midi": 80,
      "hit": false,
      "t": 18428.553000000014,
      "d": 214.28550000000178,
      "v": 127
    },
    {
      "midi": 66,
      "hit": false,
      "t": 18642.838500000016,
      "d": 214.28550000000178,
      "v": 127
    },
    {
      "midi": 81,
      "hit": false,
      "t": 18642.838500000016,
      "d": 214.28550000000178,
      "v": 127
    },
    {
      "midi": 39,
      "hit": false,
      "t": 18857.124,
      "d": 428.5709999999999,
      "v": 127
    },
    {
      "midi": 78,
      "hit": false,
      "t": 18857.124000000018,
      "d": 214.28550000000178,
      "v": 127
    },
    {
      "midi": 57,
      "hit": false,
      "t": 19071.40950000002,
      "d": 214.28550000000178,
      "v": 127
    },
    {
      "midi": 69,
      "hit": false,
      "t": 19285.695,
      "d": 428.5709999999999,
      "v": 127
    },
    {
      "midi": 71,
      "hit": false,
      "t": 19285.695,
      "d": 428.5709999999999,
      "v": 127
    },
    {
      "midi": 59,
      "hit": false,
      "t": 19285.69500000002,
      "d": 214.28550000000178,
      "v": 127
    },
    {
      "midi": 66,
      "hit": false,
      "t": 19499.980500000023,
      "d": 214.28550000000178,
      "v": 127
    },
    {
      "midi": 51,
      "hit": false,
      "t": 19714.266,
      "d": 428.5709999999999,
      "v": 127
    },
    {
      "midi": 69,
      "hit": false,
      "t": 19714.266,
      "d": 428.5709999999999,
      "v": 127
    },
    {
      "midi": 71,
      "hit": false,
      "t": 19714.266,
      "d": 428.5709999999999,
      "v": 127
    },
    {
      "midi": 59,
      "hit": false,
      "t": 19714.266000000025,
      "d": 214.28550000000178,
      "v": 127
    },
    {
      "midi": 57,
      "hit": false,
      "t": 19928.551500000027,
      "d": 214.28550000000178,
      "v": 127
    },
    {
      "midi": 69,
      "hit": false,
      "t": 20142.837,
      "d": 428.5709999999999,
      "v": 127
    },
    {
      "midi": 71,
      "hit": false,
      "t": 20142.837,
      "d": 428.5709999999999,
      "v": 127
    },
    {
      "midi": 59,
      "hit": false,
      "t": 20142.83700000003,
      "d": 214.28550000000178,
      "v": 127
    },
    {
      "midi": 66,
      "hit": false,
      "t": 20357.12250000003,
      "d": 214.28550000000178,
      "v": 127
    },
    {
      "midi": 78,
      "hit": false,
      "t": 20357.12250000003,
      "d": 214.28550000000178,
      "v": 127
    },
    {
      "midi": 40,
      "hit": false,
      "t": 20571.408,
      "d": 428.5709999999999,
      "v": 127
    },
    {
      "midi": 52,
      "hit": false,
      "t": 20571.408,
      "d": 428.5709999999999,
      "v": 127
    },
    {
      "midi": 68,
      "hit": false,
      "t": 20571.408,
      "d": 428.5709999999999,
      "v": 127
    },
    {
      "midi": 80,
      "hit": false,
      "t": 20571.408000000032,
      "d": 214.28550000000178,
      "v": 127
    },
    {
      "midi": 64,
      "hit": false,
      "t": 20785.693500000034,
      "d": 214.28550000000178,
      "v": 127
    },
    {
      "midi": 71,
      "hit": false,
      "t": 20999.979,
      "d": 428.5709999999999,
      "v": 127
    },
    {
      "midi": 59,
      "hit": false,
      "t": 20999.979000000036,
      "d": 214.28550000000178,
      "v": 127
    },
    {
      "midi": 83,
      "hit": false,
      "t": 20999.979000000036,
      "d": 214.28550000000178,
      "v": 127
    },
    {
      "midi": 56,
      "hit": false,
      "t": 21214.264500000038,
      "d": 214.28550000000178,
      "v": 127
    },
    {
      "midi": 45,
      "hit": false,
      "t": 21428.55,
      "d": 428.5709999999999,
      "v": 127
    },
    {
      "midi": 66,
      "hit": false,
      "t": 21428.55,
      "d": 428.5709999999999,
      "v": 127
    },
    {
      "midi": 78,
      "hit": false,
      "t": 21428.55000000004,
      "d": 214.28550000000178,
      "v": 127
    },
    {
      "midi": 61,
      "hit": false,
      "t": 21642.83550000004,
      "d": 214.28550000000178,
      "v": 127
    },
    {
      "midi": 69,
      "hit": false,
      "t": 21857.121,
      "d": 428.5709999999999,
      "v": 127
    },
    {
      "midi": 57,
      "hit": false,
      "t": 21857.121000000043,
      "d": 214.28550000000178,
      "v": 127
    },
    {
      "midi": 81,
      "hit": false,
      "t": 21857.121000000043,
      "d": 214.28550000000178,
      "v": 127
    },
    {
      "midi": 54,
      "hit": false,
      "t": 22071.406500000045,
      "d": 214.28550000000178,
      "v": 127
    },
    {
      "midi": 47,
      "hit": false,
      "t": 22285.692,
      "d": 428.5709999999999,
      "v": 127
    },
    {
      "midi": 64,
      "hit": false,
      "t": 22285.692,
      "d": 428.5709999999999,
      "v": 127
    },
    {
      "midi": 76,
      "hit": false,
      "t": 22285.692000000046,
      "d": 214.28550000000178,
      "v": 127
    },
    {
      "midi": 56,
      "hit": false,
      "t": 22499.977500000048,
      "d": 214.28550000000178,
      "v": 127
    },
    {
      "midi": 68,
      "hit": false,
      "t": 22714.263,
      "d": 428.5709999999999,
      "v": 127
    },
    {
      "midi": 52,
      "hit": false,
      "t": 22714.26300000005,
      "d": 214.28550000000178,
      "v": 127
    },
    {
      "midi": 80,
      "hit": false,
      "t": 22714.26300000005,
      "d": 214.28550000000178,
      "v": 127
    },
    {
      "midi": 59,
      "hit": false,
      "t": 22928.54850000005,
      "d": 214.28550000000178,
      "v": 127
    },
    {
      "midi": 47,
      "hit": false,
      "t": 23142.834,
      "d": 428.5709999999999,
      "v": 127
    },
    {
      "midi": 66,
      "hit": false,
      "t": 23142.834,
      "d": 428.5709999999999,
      "v": 127
    },
    {
      "midi": 78,
      "hit": false,
      "t": 23142.834000000053,
      "d": 214.28550000000178,
      "v": 127
    },
    {
      "midi": 57,
      "hit": false,
      "t": 23357.119500000055,
      "d": 214.28550000000178,
      "v": 127
    },
    {
      "midi": 71,
      "hit": false,
      "t": 23571.405,
      "d": 428.5709999999999,
      "v": 127
    },
    {
      "midi": 54,
      "hit": false,
      "t": 23571.405000000057,
      "d": 214.28550000000178,
      "v": 127
    },
    {
      "midi": 83,
      "hit": false,
      "t": 23571.405000000057,
      "d": 214.28550000000178,
      "v": 127
    },
    {
      "midi": 63,
      "hit": false,
      "t": 23785.69050000006,
      "d": 214.28550000000178,
      "v": 127
    },
    {
      "midi": 35,
      "hit": false,
      "t": 23999.976,
      "d": 428.5709999999999,
      "v": 127
    },
    {
      "midi": 83,
      "hit": false,
      "t": 23999.97600000006,
      "d": 214.28550000000178,
      "v": 127
    },
    {
      "midi": 57,
      "hit": false,
      "t": 24214.261500000062,
      "d": 214.28550000000178,
      "v": 127
    },
    {
      "midi": 69,
      "hit": false,
      "t": 24428.547,
      "d": 428.5709999999999,
      "v": 127
    },
    {
      "midi": 71,
      "hit": false,
      "t": 24428.547,
      "d": 428.5709999999999,
      "v": 127
    },
    {
      "midi": 59,
      "hit": false,
      "t": 24428.547000000064,
      "d": 214.28550000000178,
      "v": 127
    },
    {
      "midi": 63,
      "hit": false,
      "t": 24642.832500000066,
      "d": 214.28550000000178,
      "v": 127
    },
    {
      "midi": 69,
      "hit": false,
      "t": 24857.118,
      "d": 428.5709999999999,
      "v": 127
    },
    {
      "midi": 71,
      "hit": false,
      "t": 24857.118,
      "d": 428.5709999999999,
      "v": 127
    },
    {
      "midi": 59,
      "hit": false,
      "t": 24857.118000000068,
      "d": 214.28550000000178,
      "v": 127
    },
    {
      "midi": 57,
      "hit": false,
      "t": 25071.40350000007,
      "d": 214.28550000000178,
      "v": 127
    },
    {
      "midi": 69,
      "hit": false,
      "t": 25285.689,
      "d": 428.5709999999999,
      "v": 127
    },
    {
      "midi": 71,
      "hit": false,
      "t": 25285.689,
      "d": 428.5709999999999,
      "v": 127
    },
    {
      "midi": 59,
      "hit": false,
      "t": 25285.68900000007,
      "d": 214.28550000000178,
      "v": 127
    },
    {
      "midi": 63,
      "hit": false,
      "t": 25499.974500000073,
      "d": 214.28550000000178,
      "v": 127
    },
    {
      "midi": 40,
      "hit": false,
      "t": 25714.26,
      "d": 857.1419999999998,
      "v": 127
    },
    {
      "midi": 47,
      "hit": false,
      "t": 25714.26,
      "d": 857.1419999999998,
      "v": 127
    },
    {
      "midi": 52,
      "hit": false,
      "t": 25714.26,
      "d": 857.1419999999998,
      "v": 127
    },
    {
      "midi": 68,
      "hit": false,
      "t": 25714.26,
      "d": 857.1419999999998,
      "v": 127
    },
    {
      "midi": 71,
      "hit": false,
      "t": 25714.26,
      "d": 857.1419999999998,
      "v": 127
    },
    {
      "midi": 56,
      "hit": false,
      "t": 25714.260000000075,
      "d": 857.1419999999998,
      "v": 127
    },
    {
      "midi": 59,
      "hit": false,
      "t": 25714.260000000075,
      "d": 857.1419999999998,
      "v": 127
    },
    {
      "midi": 64,
      "hit": false,
      "t": 25714.260000000075,
      "d": 857.1419999999998,
      "v": 127
    },
    {
      "midi": 76,
      "hit": false,
      "t": 25714.260000000075,
      "d": 857.1419999999998,
      "v": 127
    },
    {
      "midi": 52,
      "hit": false,
      "t": 27428.543999999998,
      "d": 1714.2839999999997,
      "v": 127
    },
    {
      "midi": 68,
      "hit": false,
      "t": 27428.543999999998,
      "d": 1714.2839999999997,
      "v": 127
    },
    {
      "midi": 71,
      "hit": false,
      "t": 27428.543999999998,
      "d": 1714.2839999999997,
      "v": 127
    },
    {
      "midi": 83,
      "hit": false,
      "t": 27428.544000000074,
      "d": 214.28550000000178,
      "v": 127
    },
    {
      "midi": 56,
      "hit": false,
      "t": 27642.829500000076,
      "d": 214.28550000000178,
      "v": 127
    },
    {
      "midi": 59,
      "hit": false,
      "t": 27857.115000000078,
      "d": 214.28550000000178,
      "v": 127
    },
    {
      "midi": 64,
      "hit": false,
      "t": 28071.40050000008,
      "d": 214.28550000000178,
      "v": 127
    },
    {
      "midi": 59,
      "hit": false,
      "t": 28285.68600000008,
      "d": 214.28550000000178,
      "v": 127
    },
    {
      "midi": 56,
      "hit": false,
      "t": 28499.971500000083,
      "d": 214.28550000000178,
      "v": 127
    },
    {
      "midi": 59,
      "hit": false,
      "t": 28714.257000000085,
      "d": 214.28550000000178,
      "v": 127
    },
    {
      "midi": 64,
      "hit": false,
      "t": 28928.542500000087,
      "d": 214.28550000000178,
      "v": 127
    },
    {
      "midi": 80,
      "hit": false,
      "t": 28928.542500000087,
      "d": 214.28550000000178,
      "v": 127
    },
    {
      "midi": 40,
      "hit": false,
      "t": 29142.827999999998,
      "d": 428.5709999999999,
      "v": 127
    },
    {
      "midi": 76,
      "hit": false,
      "t": 29142.82800000009,
      "d": 214.28550000000178,
      "v": 127
    },
    {
      "midi": 56,
      "hit": false,
      "t": 29357.11350000009,
      "d": 214.28550000000178,
      "v": 127
    },
    {
      "midi": 68,
      "hit": false,
      "t": 29571.398999999998,
      "d": 428.5709999999999,
      "v": 127
    },
    {
      "midi": 71,
      "hit": false,
      "t": 29571.398999999998,
      "d": 428.5709999999999,
      "v": 127
    },
    {
      "midi": 59,
      "hit": false,
      "t": 29571.399000000092,
      "d": 214.28550000000178,
      "v": 127
    },
    {
      "midi": 64,
      "hit": false,
      "t": 29785.684500000094,
      "d": 214.28550000000178,
      "v": 127
    },
    {
      "midi": 52,
      "hit": false,
      "t": 29999.969999999998,
      "d": 428.5709999999999,
      "v": 127
    },
    {
      "midi": 68,
      "hit": false,
      "t": 29999.969999999998,
      "d": 428.5709999999999,
      "v": 127
    },
    {
      "midi": 71,
      "hit": false,
      "t": 29999.969999999998,
      "d": 428.5709999999999,
      "v": 127
    },
    {
      "midi": 59,
      "hit": false,
      "t": 29999.970000000096,
      "d": 214.28550000000178,
      "v": 127
    },
    {
      "midi": 56,
      "hit": false,
      "t": 30214.255500000098,
      "d": 214.28550000000178,
      "v": 127
    },
    {
      "midi": 68,
      "hit": false,
      "t": 30428.540999999997,
      "d": 428.5709999999999,
      "v": 127
    },
    {
      "midi": 71,
      "hit": false,
      "t": 30428.540999999997,
      "d": 428.5709999999999,
      "v": 127
    },
    {
      "midi": 59,
      "hit": false,
      "t": 30428.5410000001,
      "d": 214.28550000000178,
      "v": 127
    },
    {
      "midi": 64,
      "hit": false,
      "t": 30642.8265000001,
      "d": 214.28550000000178,
      "v": 127
    },
    {
      "midi": 80,
      "hit": false,
      "t": 30642.8265000001,
      "d": 214.28550000000178,
      "v": 127
    },
    {
      "midi": 51,
      "hit": false,
      "t": 30857.111999999997,
      "d": 1714.2839999999997,
      "v": 127
    },
    {
      "midi": 69,
      "hit": false,
      "t": 30857.111999999997,
      "d": 1714.2839999999997,
      "v": 127
    },
    {
      "midi": 71,
      "hit": false,
      "t": 30857.111999999997,
      "d": 1714.2839999999997,
      "v": 127
    },
    {
      "midi": 83,
      "hit": false,
      "t": 30857.112000000103,
      "d": 214.28550000000178,
      "v": 127
    },
    {
      "midi": 57,
      "hit": false,
      "t": 31071.397500000105,
      "d": 214.28550000000178,
      "v": 127
    },
    {
      "midi": 59,
      "hit": false,
      "t": 31285.683000000106,
      "d": 214.28550000000178,
      "v": 127
    },
    {
      "midi": 66,
      "hit": false,
      "t": 31499.968500000108,
      "d": 214.28550000000178,
      "v": 127
    },
    {
      "midi": 59,
      "hit": false,
      "t": 31714.25400000011,
      "d": 214.28550000000178,
      "v": 127
    },
    {
      "midi": 57,
      "hit": false,
      "t": 31928.53950000011,
      "d": 214.28550000000178,
      "v": 127
    },
    {
      "midi": 59,
      "hit": false,
      "t": 32142.825000000114,
      "d": 214.28550000000178,
      "v": 127
    },
    {
      "midi": 66,
      "hit": false,
      "t": 32357.110500000115,
      "d": 214.28550000000178,
      "v": 127
    },
    {
      "midi": 81,
      "hit": false,
      "t": 32357.110500000115,
      "d": 214.28550000000178,
      "v": 127
    },
    {
      "midi": 39,
      "hit": false,
      "t": 32571.395999999997,
      "d": 428.5709999999999,
      "v": 127
    },
    {
      "midi": 78,
      "hit": false,
      "t": 32571.396000000117,
      "d": 214.28549999999814,
      "v": 127
    },
    {
      "midi": 57,
      "hit": false,
      "t": 32785.681500000115,
      "d": 214.28549999999814,
      "v": 127
    },
    {
      "midi": 69,
      "hit": false,
      "t": 32999.967,
      "d": 428.57100000000355,
      "v": 127
    },
    {
      "midi": 71,
      "hit": false,
      "t": 32999.967,
      "d": 428.57100000000355,
      "v": 127
    },
    {
      "midi": 59,
      "hit": false,
      "t": 32999.96700000011,
      "d": 214.28549999999814,
      "v": 127
    },
    {
      "midi": 66,
      "hit": false,
      "t": 33214.25250000011,
      "d": 214.28549999999814,
      "v": 127
    },
    {
      "midi": 51,
      "hit": false,
      "t": 33428.538,
      "d": 428.57100000000355,
      "v": 127
    },
    {
      "midi": 69,
      "hit": false,
      "t": 33428.538,
      "d": 428.57100000000355,
      "v": 127
    },
    {
      "midi": 71,
      "hit": false,
      "t": 33428.538,
      "d": 428.57100000000355,
      "v": 127
    },
    {
      "midi": 59,
      "hit": false,
      "t": 33428.53800000011,
      "d": 214.28549999999814,
      "v": 127
    },
    {
      "midi": 57,
      "hit": false,
      "t": 33642.82350000011,
      "d": 214.28549999999814,
      "v": 127
    },
    {
      "midi": 69,
      "hit": false,
      "t": 33857.109000000004,
      "d": 428.57100000000355,
      "v": 127
    },
    {
      "midi": 71,
      "hit": false,
      "t": 33857.109000000004,
      "d": 428.57100000000355,
      "v": 127
    },
    {
      "midi": 59,
      "hit": false,
      "t": 33857.109000000106,
      "d": 214.28549999999814,
      "v": 127
    },
    {
      "midi": 66,
      "hit": false,
      "t": 34071.394500000104,
      "d": 214.28549999999814,
      "v": 127
    },
    {
      "midi": 78,
      "hit": false,
      "t": 34071.394500000104,
      "d": 214.28549999999814,
      "v": 127
    },
    {
      "midi": 40,
      "hit": false,
      "t": 34285.68000000001,
      "d": 857.1419999999998,
      "v": 127
    },
    {
      "midi": 52,
      "hit": false,
      "t": 34285.68000000001,
      "d": 857.1419999999998,
      "v": 127
    },
    {
      "midi": 68,
      "hit": false,
      "t": 34285.68000000001,
      "d": 857.1419999999998,
      "v": 127
    },
    {
      "midi": 80,
      "hit": false,
      "t": 34285.6800000001,
      "d": 214.28549999999814,
      "v": 127
    },
    {
      "midi": 64,
      "hit": false,
      "t": 34499.9655000001,
      "d": 214.28549999999814,
      "v": 127
    },
    {
      "midi": 59,
      "hit": false,
      "t": 34714.2510000001,
      "d": 214.28549999999814,
      "v": 127
    },
    {
      "midi": 56,
      "hit": false,
      "t": 34928.5365000001,
      "d": 214.28549999999814,
      "v": 127
    },
    {
      "midi": 68,
      "hit": false,
      "t": 35142.82200000001,
      "d": 857.1419999999998,
      "v": 127
    },
    {
      "midi": 80,
      "hit": false,
      "t": 35142.822000000095,
      "d": 214.28549999999814,
      "v": 127
    },
    {
      "midi": 59,
      "hit": false,
      "t": 35357.10750000009,
      "d": 214.28549999999814,
      "v": 127
    },
    {
      "midi": 56,
      "hit": false,
      "t": 35571.39300000009,
      "d": 214.28549999999814,
      "v": 127
    },
    {
      "midi": 52,
      "hit": false,
      "t": 35785.67850000009,
      "d": 214.28549999999814,
      "v": 127
    },
    {
      "midi": 33,
      "hit": false,
      "t": 35999.96400000001,
      "d": 857.1419999999998,
      "v": 127
    },
    {
      "midi": 45,
      "hit": false,
      "t": 35999.96400000001,
      "d": 857.1419999999998,
      "v": 127
    },
    {
      "midi": 71,
      "hit": false,
      "t": 35999.96400000001,
      "d": 857.1419999999998,
      "v": 127
    },
    {
      "midi": 83,
      "hit": false,
      "t": 35999.96400000009,
      "d": 214.28549999999814,
      "v": 127
    },
    {
      "midi": 49,
      "hit": false,
      "t": 36214.249500000085,
      "d": 214.28549999999814,
      "v": 127
    },
    {
      "midi": 54,
      "hit": false,
      "t": 36428.53500000008,
      "d": 214.28549999999814,
      "v": 127
    },
    {
      "midi": 57,
      "hit": false,
      "t": 36642.82050000008,
      "d": 214.28549999999814,
      "v": 127
    },
    {
      "midi": 69,
      "hit": false,
      "t": 36857.10600000001,
      "d": 642.8565000000017,
      "v": 127
    },
    {
      "midi": 81,
      "hit": false,
      "t": 36857.10600000008,
      "d": 214.28549999999814,
      "v": 127
    },
    {
      "midi": 49,
      "hit": false,
      "t": 37071.39150000008,
      "d": 214.28549999999814,
      "v": 127
    },
    {
      "midi": 54,
      "hit": false,
      "t": 37285.677000000076,
      "d": 214.28549999999814,
      "v": 127
    },
    {
      "midi": 68,
      "hit": false,
      "t": 37499.96250000001,
      "d": 214.28549999999814,
      "v": 127
    },
    {
      "midi": 57,
      "hit": false,
      "t": 37499.962500000074,
      "d": 214.28549999999814,
      "v": 127
    },
    {
      "midi": 80,
      "hit": false,
      "t": 37499.962500000074,
      "d": 214.28549999999814,
      "v": 127
    },
    {
      "midi": 47,
      "hit": false,
      "t": 37714.24800000001,
      "d": 1285.7130000000034,
      "v": 127
    },
    {
      "midi": 66,
      "hit": false,
      "t": 37714.24800000001,
      "d": 1285.7130000000034,
      "v": 127
    },
    {
      "midi": 78,
      "hit": false,
      "t": 37714.24800000007,
      "d": 214.28549999999814,
      "v": 127
    },
    {
      "midi": 51,
      "hit": false,
      "t": 37928.53350000007,
      "d": 214.28549999999814,
      "v": 127
    },
    {
      "midi": 54,
      "hit": false,
      "t": 38142.81900000007,
      "d": 214.28549999999814,
      "v": 127
    },
    {
      "midi": 59,
      "hit": false,
      "t": 38357.10450000007,
      "d": 214.28549999999814,
      "v": 127
    },
    {
      "midi": 54,
      "hit": false,
      "t": 38571.390000000065,
      "d": 214.28549999999814,
      "v": 127
    },
    {
      "midi": 51,
      "hit": false,
      "t": 38785.67550000006,
      "d": 214.28549999999814,
      "v": 127
    },
    {
      "midi": 69,
      "hit": false,
      "t": 38999.96100000001,
      "d": 214.28549999999814,
      "v": 127
    },
    {
      "midi": 54,
      "hit": false,
      "t": 38999.96100000006,
      "d": 214.28549999999814,
      "v": 127
    },
    {
      "midi": 81,
      "hit": false,
      "t": 38999.96100000006,
      "d": 214.28549999999814,
      "v": 127
    },
    {
      "midi": 68,
      "hit": false,
      "t": 39214.24650000001,
      "d": 214.28549999999814,
      "v": 127
    },
    {
      "midi": 59,
      "hit": false,
      "t": 39214.24650000006,
      "d": 214.28549999999814,
      "v": 127
    },
    {
      "midi": 80,
      "hit": false,
      "t": 39214.24650000006,
      "d": 214.28549999999814,
      "v": 127
    },
    {
      "midi": 35,
      "hit": false,
      "t": 39428.53200000001,
      "d": 857.1419999999998,
      "v": 127
    },
    {
      "midi": 47,
      "hit": false,
      "t": 39428.53200000001,
      "d": 857.1419999999998,
      "v": 127
    },
    {
      "midi": 66,
      "hit": false,
      "t": 39428.53200000001,
      "d": 857.1419999999998,
      "v": 127
    },
    {
      "midi": 78,
      "hit": false,
      "t": 39428.53200000006,
      "d": 214.28549999999814,
      "v": 127
    },
    {
      "midi": 51,
      "hit": false,
      "t": 39642.817500000056,
      "d": 214.28549999999814,
      "v": 127
    },
    {
      "midi": 54,
      "hit": false,
      "t": 39857.103000000054,
      "d": 214.28549999999814,
      "v": 127
    },
    {
      "midi": 59,
      "hit": false,
      "t": 40071.38850000005,
      "d": 214.28549999999814,
      "v": 127
    },
    {
      "midi": 57,
      "hit": false,
      "t": 40285.67400000005,
      "d": 214.28549999999814,
      "v": 127
    },
    {
      "midi": 56,
      "hit": false,
      "t": 40499.95950000005,
      "d": 214.28549999999814,
      "v": 127
    },
    {
      "midi": 54,
      "hit": false,
      "t": 40714.245000000046,
      "d": 214.28549999999814,
      "v": 127
    },
    {
      "midi": 59,
      "hit": false,
      "t": 40928.530500000044,
      "d": 214.28549999999814,
      "v": 127
    },
    {
      "midi": 80,
      "hit": false,
      "t": 40928.530500000044,
      "d": 214.28549999999814,
      "v": 127
    },
    {
      "midi": 52,
      "hit": false,
      "t": 41142.816000000006,
      "d": 1714.2839999999997,
      "v": 127
    },
    {
      "midi": 68,
      "hit": false,
      "t": 41142.816000000006,
      "d": 1714.2839999999997,
      "v": 127
    },
    {
      "midi": 71,
      "hit": false,
      "t": 41142.816000000006,
      "d": 1714.2839999999997,
      "v": 127
    },
    {
      "midi": 83,
      "hit": false,
      "t": 41142.81600000004,
      "d": 214.28549999999814,
      "v": 127
    },
    {
      "midi": 56,
      "hit": false,
      "t": 41357.10150000004,
      "d": 214.28549999999814,
      "v": 127
    },
    {
      "midi": 59,
      "hit": false,
      "t": 41571.38700000004,
      "d": 214.28549999999814,
      "v": 127
    },
    {
      "midi": 64,
      "hit": false,
      "t": 41785.67250000004,
      "d": 214.28549999999814,
      "v": 127
    },
    {
      "midi": 59,
      "hit": false,
      "t": 41999.958000000035,
      "d": 214.28549999999814,
      "v": 127
    },
    {
      "midi": 56,
      "hit": false,
      "t": 42214.24350000003,
      "d": 214.28549999999814,
      "v": 127
    },
    {
      "midi": 59,
      "hit": false,
      "t": 42428.52900000003,
      "d": 214.28549999999814,
      "v": 127
    },
    {
      "midi": 64,
      "hit": false,
      "t": 42642.81450000003,
      "d": 214.28549999999814,
      "v": 127
    },
    {
      "midi": 80,
      "hit": false,
      "t": 42642.81450000003,
      "d": 214.28549999999814,
      "v": 127
    },
    {
      "midi": 40,
      "hit": false,
      "t": 42857.100000000006,
      "d": 428.57100000000355,
      "v": 127
    },
    {
      "midi": 76,
      "hit": false,
      "t": 42857.10000000003,
      "d": 214.28549999999814,
      "v": 127
    },
    {
      "midi": 56,
      "hit": false,
      "t": 43071.385500000026,
      "d": 214.28549999999814,
      "v": 127
    },
    {
      "midi": 68,
      "hit": false,
      "t": 43285.67100000001,
      "d": 428.57100000000355,
      "v": 127
    },
    {
      "midi": 71,
      "hit": false,
      "t": 43285.67100000001,
      "d": 428.57100000000355,
      "v": 127
    },
    {
      "midi": 59,
      "hit": false,
      "t": 43285.671000000024,
      "d": 214.28549999999814,
      "v": 127
    },
    {
      "midi": 64,
      "hit": false,
      "t": 43499.95650000002,
      "d": 214.28549999999814,
      "v": 127
    },
    {
      "midi": 52,
      "hit": false,
      "t": 43714.24200000001,
      "d": 428.57100000000355,
      "v": 127
    },
    {
      "midi": 68,
      "hit": false,
      "t": 43714.24200000001,
      "d": 428.57100000000355,
      "v": 127
    },
    {
      "midi": 71,
      "hit": false,
      "t": 43714.24200000001,
      "d": 428.57100000000355,
      "v": 127
    },
    {
      "midi": 59,
      "hit": false,
      "t": 43714.24200000002,
      "d": 214.28549999999814,
      "v": 127
    },
    {
      "midi": 56,
      "hit": false,
      "t": 43928.52750000002,
      "d": 214.28549999999814,
      "v": 127
    },
    {
      "midi": 68,
      "hit": false,
      "t": 44142.81300000002,
      "d": 428.57100000000355,
      "v": 127
    },
    {
      "midi": 71,
      "hit": false,
      "t": 44142.81300000002,
      "d": 428.57100000000355,
      "v": 127
    },
    {
      "midi": 59,
      "hit": false,
      "t": 44142.81300000002,
      "d": 214.28549999999814,
      "v": 127
    },
    {
      "midi": 64,
      "hit": false,
      "t": 44357.098500000015,
      "d": 214.28549999999814,
      "v": 127
    },
    {
      "midi": 80,
      "hit": false,
      "t": 44357.098500000015,
      "d": 214.28549999999814,
      "v": 127
    },
    {
      "midi": 83,
      "hit": false,
      "t": 44571.38400000001,
      "d": 214.28549999999814,
      "v": 127
    },
    {
      "midi": 51,
      "hit": false,
      "t": 44571.38400000002,
      "d": 1714.2839999999997,
      "v": 127
    },
    {
      "midi": 69,
      "hit": false,
      "t": 44571.38400000002,
      "d": 1714.2839999999997,
      "v": 127
    },
    {
      "midi": 71,
      "hit": false,
      "t": 44571.38400000002,
      "d": 1714.2839999999997,
      "v": 127
    },
    {
      "midi": 57,
      "hit": false,
      "t": 44785.66950000001,
      "d": 214.28549999999814,
      "v": 127
    },
    {
      "midi": 59,
      "hit": false,
      "t": 44999.95500000001,
      "d": 214.28549999999814,
      "v": 127
    },
    {
      "midi": 66,
      "hit": false,
      "t": 45214.24050000001,
      "d": 214.28549999999814,
      "v": 127
    },
    {
      "midi": 59,
      "hit": false,
      "t": 45428.526000000005,
      "d": 214.28549999999814,
      "v": 127
    },
    {
      "midi": 57,
      "hit": false,
      "t": 45642.8115,
      "d": 214.28549999999814,
      "v": 127
    },
    {
      "midi": 81,
      "hit": false,
      "t": 45642.8115,
      "d": 214.28549999999814,
      "v": 127
    },
    {
      "midi": 59,
      "hit": false,
      "t": 45857.097,
      "d": 214.28549999999814,
      "v": 127
    },
    {
      "midi": 80,
      "hit": false,
      "t": 45857.097,
      "d": 214.28549999999814,
      "v": 127
    },
    {
      "midi": 66,
      "hit": false,
      "t": 46071.3825,
      "d": 214.28549999999814,
      "v": 127
    },
    {
      "midi": 81,
      "hit": false,
      "t": 46071.3825,
      "d": 214.28549999999814,
      "v": 127
    },
    {
      "midi": 78,
      "hit": false,
      "t": 46285.668,
      "d": 214.28549999999814,
      "v": 127
    },
    {
      "midi": 39,
      "hit": false,
      "t": 46285.66800000002,
      "d": 428.57100000000355,
      "v": 127
    },
    {
      "midi": 57,
      "hit": false,
      "t": 46499.953499999996,
      "d": 214.28549999999814,
      "v": 127
    },
    {
      "midi": 59,
      "hit": false,
      "t": 46714.238999999994,
      "d": 214.28549999999814,
      "v": 127
    },
    {
      "midi": 69,
      "hit": false,
      "t": 46714.23900000002,
      "d": 428.57100000000355,
      "v": 127
    },
    {
      "midi": 71,
      "hit": false,
      "t": 46714.23900000002,
      "d": 428.57100000000355,
      "v": 127
    },
    {
      "midi": 66,
      "hit": false,
      "t": 46928.52449999999,
      "d": 214.28549999999814,
      "v": 127
    },
    {
      "midi": 59,
      "hit": false,
      "t": 47142.80999999999,
      "d": 214.28549999999814,
      "v": 127
    },
    {
      "midi": 51,
      "hit": false,
      "t": 47142.81000000003,
      "d": 428.57100000000355,
      "v": 127
    },
    {
      "midi": 69,
      "hit": false,
      "t": 47142.81000000003,
      "d": 428.57100000000355,
      "v": 127
    },
    {
      "midi": 71,
      "hit": false,
      "t": 47142.81000000003,
      "d": 428.57100000000355,
      "v": 127
    },
    {
      "midi": 57,
      "hit": false,
      "t": 47357.09549999999,
      "d": 214.28549999999814,
      "v": 127
    },
    {
      "midi": 59,
      "hit": false,
      "t": 47571.38099999999,
      "d": 214.28549999999814,
      "v": 127
    },
    {
      "midi": 69,
      "hit": false,
      "t": 47571.38100000003,
      "d": 428.57100000000355,
      "v": 127
    },
    {
      "midi": 71,
      "hit": false,
      "t": 47571.38100000003,
      "d": 428.57100000000355,
      "v": 127
    },
    {
      "midi": 66,
      "hit": false,
      "t": 47785.666499999985,
      "d": 214.28549999999814,
      "v": 127
    },
    {
      "midi": 78,
      "hit": false,
      "t": 47785.666499999985,
      "d": 214.28549999999814,
      "v": 127
    },
    {
      "midi": 80,
      "hit": false,
      "t": 47999.95199999998,
      "d": 214.28549999999814,
      "v": 127
    },
    {
      "midi": 40,
      "hit": false,
      "t": 47999.952000000034,
      "d": 428.57100000000355,
      "v": 127
    },
    {
      "midi": 52,
      "hit": false,
      "t": 47999.952000000034,
      "d": 428.57100000000355,
      "v": 127
    },
    {
      "midi": 68,
      "hit": false,
      "t": 47999.952000000034,
      "d": 428.57100000000355,
      "v": 127
    },
    {
      "midi": 64,
      "hit": false,
      "t": 48214.23749999998,
      "d": 214.28549999999814,
      "v": 127
    },
    {
      "midi": 59,
      "hit": false,
      "t": 48428.52299999998,
      "d": 214.28549999999814,
      "v": 127
    },
    {
      "midi": 83,
      "hit": false,
      "t": 48428.52299999998,
      "d": 214.28549999999814,
      "v": 127
    },
    {
      "midi": 71,
      "hit": false,
      "t": 48428.52300000004,
      "d": 428.57100000000355,
      "v": 127
    },
    {
      "midi": 56,
      "hit": false,
      "t": 48642.80849999998,
      "d": 214.28549999999814,
      "v": 127
    },
    {
      "midi": 78,
      "hit": false,
      "t": 48857.093999999975,
      "d": 214.28549999999814,
      "v": 127
    },
    {
      "midi": 45,
      "hit": false,
      "t": 48857.09400000004,
      "d": 428.57100000000355,
      "v": 127
    },
    {
      "midi": 66,
      "hit": false,
      "t": 48857.09400000004,
      "d": 428.57100000000355,
      "v": 127
    },
    {
      "midi": 61,
      "hit": false,
      "t": 49071.37949999997,
      "d": 214.28549999999814,
      "v": 127
    },
    {
      "midi": 57,
      "hit": false,
      "t": 49285.66499999997,
      "d": 214.28549999999814,
      "v": 127
    },
    {
      "midi": 81,
      "hit": false,
      "t": 49285.66499999997,
      "d": 214.28549999999814,
      "v": 127
    },
    {
      "midi": 69,
      "hit": false,
      "t": 49285.665000000045,
      "d": 428.57100000000355,
      "v": 127
    },
    {
      "midi": 54,
      "hit": false,
      "t": 49499.95049999997,
      "d": 214.28549999999814,
      "v": 127
    },
    {
      "midi": 76,
      "hit": false,
      "t": 49714.23599999997,
      "d": 214.28549999999814,
      "v": 127
    },
    {
      "midi": 47,
      "hit": false,
      "t": 49714.23600000005,
      "d": 428.57100000000355,
      "v": 127
    },
    {
      "midi": 64,
      "hit": false,
      "t": 49714.23600000005,
      "d": 428.57100000000355,
      "v": 127
    },
    {
      "midi": 56,
      "hit": false,
      "t": 49928.521499999966,
      "d": 214.28549999999814,
      "v": 127
    },
    {
      "midi": 52,
      "hit": false,
      "t": 50142.806999999964,
      "d": 214.28549999999814,
      "v": 127
    },
    {
      "midi": 80,
      "hit": false,
      "t": 50142.806999999964,
      "d": 214.28549999999814,
      "v": 127
    },
    {
      "midi": 68,
      "hit": false,
      "t": 50142.80700000005,
      "d": 428.57100000000355,
      "v": 127
    },
    {
      "midi": 59,
      "hit": false,
      "t": 50357.09249999996,
      "d": 214.28549999999814,
      "v": 127
    },
    {
      "midi": 78,
      "hit": false,
      "t": 50571.37799999996,
      "d": 214.28549999999814,
      "v": 127
    },
    {
      "midi": 47,
      "hit": false,
      "t": 50571.378000000055,
      "d": 428.57100000000355,
      "v": 127
    },
    {
      "midi": 66,
      "hit": false,
      "t": 50571.378000000055,
      "d": 428.57100000000355,
      "v": 127
    },
    {
      "midi": 57,
      "hit": false,
      "t": 50785.66349999996,
      "d": 214.28549999999814,
      "v": 127
    },
    {
      "midi": 54,
      "hit": false,
      "t": 50999.94899999996,
      "d": 214.28549999999814,
      "v": 127
    },
    {
      "midi": 83,
      "hit": false,
      "t": 50999.94899999996,
      "d": 214.28549999999814,
      "v": 127
    },
    {
      "midi": 71,
      "hit": false,
      "t": 50999.94900000006,
      "d": 428.57100000000355,
      "v": 127
    },
    {
      "midi": 63,
      "hit": false,
      "t": 51214.234499999955,
      "d": 214.28549999999814,
      "v": 127
    },
    {
      "midi": 83,
      "hit": false,
      "t": 51428.51999999995,
      "d": 214.28549999999814,
      "v": 127
    },
    {
      "midi": 35,
      "hit": false,
      "t": 51428.52000000006,
      "d": 428.57100000000355,
      "v": 127
    },
    {
      "midi": 57,
      "hit": false,
      "t": 51642.80549999995,
      "d": 214.28549999999814,
      "v": 127
    },
    {
      "midi": 59,
      "hit": false,
      "t": 51857.09099999995,
      "d": 214.28549999999814,
      "v": 127
    },
    {
      "midi": 69,
      "hit": false,
      "t": 51857.091000000066,
      "d": 428.57100000000355,
      "v": 127
    },
    {
      "midi": 71,
      "hit": false,
      "t": 51857.091000000066,
      "d": 428.57100000000355,
      "v": 127
    },
    {
      "midi": 63,
      "hit": false,
      "t": 52071.37649999995,
      "d": 214.28549999999814,
      "v": 127
    },
    {
      "midi": 59,
      "hit": false,
      "t": 52285.661999999946,
      "d": 214.28549999999814,
      "v": 127
    },
    {
      "midi": 69,
      "hit": false,
      "t": 52285.66200000007,
      "d": 428.57100000000355,
      "v": 127
    },
    {
      "midi": 71,
      "hit": false,
      "t": 52285.66200000007,
      "d": 428.57100000000355,
      "v": 127
    },
    {
      "midi": 57,
      "hit": false,
      "t": 52499.947499999944,
      "d": 214.28549999999814,
      "v": 127
    },
    {
      "midi": 59,
      "hit": false,
      "t": 52714.23299999994,
      "d": 214.28549999999814,
      "v": 127
    },
    {
      "midi": 69,
      "hit": false,
      "t": 52714.23300000007,
      "d": 428.57100000000355,
      "v": 127
    },
    {
      "midi": 71,
      "hit": false,
      "t": 52714.23300000007,
      "d": 428.57100000000355,
      "v": 127
    },
    {
      "midi": 63,
      "hit": false,
      "t": 52928.51849999994,
      "d": 214.28549999999814,
      "v": 127
    },
    {
      "midi": 56,
      "hit": false,
      "t": 53142.80399999994,
      "d": 857.1419999999998,
      "v": 127
    },
    {
      "midi": 59,
      "hit": false,
      "t": 53142.80399999994,
      "d": 857.1419999999998,
      "v": 127
    },
    {
      "midi": 64,
      "hit": false,
      "t": 53142.80399999994,
      "d": 857.1419999999998,
      "v": 127
    },
    {
      "midi": 76,
      "hit": false,
      "t": 53142.80399999994,
      "d": 857.1419999999998,
      "v": 127
    },
    {
      "midi": 40,
      "hit": false,
      "t": 53142.80400000008,
      "d": 857.1419999999998,
      "v": 127
    },
    {
      "midi": 47,
      "hit": false,
      "t": 53142.80400000008,
      "d": 857.1419999999998,
      "v": 127
    },
    {
      "midi": 52,
      "hit": false,
      "t": 53142.80400000008,
      "d": 857.1419999999998,
      "v": 127
    },
    {
      "midi": 68,
      "hit": false,
      "t": 53142.80400000008,
      "d": 857.1419999999998,
      "v": 127
    },
    {
      "midi": 71,
      "hit": false,
      "t": 53142.80400000008,
      "d": 857.1419999999998,
      "v": 127
    },
    {
      "midi": 78,
      "hit": false,
      "t": 54857.08799999994,
      "d": 214.28549999999814,
      "v": 127
    },
    {
      "midi": 47,
      "hit": false,
      "t": 54857.088000000076,
      "d": 857.1419999999998,
      "v": 127
    },
    {
      "midi": 66,
      "hit": false,
      "t": 54857.088000000076,
      "d": 857.1419999999998,
      "v": 127
    },
    {
      "midi": 54,
      "hit": false,
      "t": 55071.373499999936,
      "d": 214.28549999999814,
      "v": 127
    },
    {
      "midi": 59,
      "hit": false,
      "t": 55285.658999999934,
      "d": 214.28549999999814,
      "v": 127
    },
    {
      "midi": 63,
      "hit": false,
      "t": 55499.94449999993,
      "d": 214.28549999999814,
      "v": 127
    },
    {
      "midi": 59,
      "hit": false,
      "t": 55714.22999999993,
      "d": 214.28549999999814,
      "v": 127
    },
    {
      "midi": 54,
      "hit": false,
      "t": 55928.51549999993,
      "d": 214.28549999999814,
      "v": 127
    },
    {
      "midi": 59,
      "hit": false,
      "t": 56142.80099999993,
      "d": 214.28549999999814,
      "v": 127
    },
    {
      "midi": 51,
      "hit": false,
      "t": 56357.086499999925,
      "d": 214.28549999999814,
      "v": 127
    },
    {
      "midi": 78,
      "hit": false,
      "t": 56357.086499999925,
      "d": 214.28549999999814,
      "v": 127
    },
    {
      "midi": 66,
      "hit": false,
      "t": 56357.08650000008,
      "d": 214.28549999999814,
      "v": 127
    },
    {
      "midi": 81,
      "hit": false,
      "t": 56571.37199999992,
      "d": 214.28549999999814,
      "v": 127
    },
    {
      "midi": 42,
      "hit": false,
      "t": 56571.372000000076,
      "d": 857.1419999999998,
      "v": 127
    },
    {
      "midi": 69,
      "hit": false,
      "t": 56571.372000000076,
      "d": 857.1419999999998,
      "v": 127
    },
    {
      "midi": 54,
      "hit": false,
      "t": 56785.65749999992,
      "d": 214.28549999999814,
      "v": 127
    },
    {
      "midi": 57,
      "hit": false,
      "t": 56999.94299999992,
      "d": 214.28549999999814,
      "v": 127
    },
    {
      "midi": 61,
      "hit": false,
      "t": 57214.22849999992,
      "d": 214.28549999999814,
      "v": 127
    },
    {
      "midi": 57,
      "hit": false,
      "t": 57428.513999999916,
      "d": 214.28549999999814,
      "v": 127
    },
    {
      "midi": 54,
      "hit": false,
      "t": 57642.799499999914,
      "d": 214.28549999999814,
      "v": 127
    },
    {
      "midi": 57,
      "hit": false,
      "t": 57857.08499999991,
      "d": 214.28549999999814,
      "v": 127
    },
    {
      "midi": 61,
      "hit": false,
      "t": 58071.37049999991,
      "d": 214.28549999999814,
      "v": 127
    },
    {
      "midi": 81,
      "hit": false,
      "t": 58071.37049999991,
      "d": 214.28549999999814,
      "v": 127
    },
    {
      "midi": 69,
      "hit": false,
      "t": 58071.37050000008,
      "d": 214.28549999999814,
      "v": 127
    },
    {
      "midi": 80,
      "hit": false,
      "t": 58285.65599999991,
      "d": 214.28549999999814,
      "v": 127
    },
    {
      "midi": 68,
      "hit": false,
      "t": 58285.656000000075,
      "d": 1285.7130000000034,
      "v": 127
    },
    {
      "midi": 51,
      "hit": false,
      "t": 58499.941499999906,
      "d": 214.28549999999814,
      "v": 127
    },
    {
      "midi": 56,
      "hit": false,
      "t": 58714.226999999904,
      "d": 214.28549999999814,
      "v": 127
    },
    {
      "midi": 60,
      "hit": false,
      "t": 58928.5124999999,
      "d": 214.28549999999814,
      "v": 127
    },
    {
      "midi": 56,
      "hit": false,
      "t": 59142.7979999999,
      "d": 214.28549999999814,
      "v": 127
    },
    {
      "midi": 51,
      "hit": false,
      "t": 59357.0834999999,
      "d": 214.28549999999814,
      "v": 127
    },
    {
      "midi": 56,
      "hit": false,
      "t": 59571.3689999999,
      "d": 214.28549999999814,
      "v": 127
    },
    {
      "midi": 60,
      "hit": false,
      "t": 59785.654499999895,
      "d": 214.28549999999814,
      "v": 127
    },
    {
      "midi": 78,
      "hit": false,
      "t": 59785.654499999895,
      "d": 214.28549999999814,
      "v": 127
    },
    {
      "midi": 66,
      "hit": false,
      "t": 59785.65450000008,
      "d": 214.28549999999814,
      "v": 127
    },
    {
      "midi": 76,
      "hit": false,
      "t": 59999.93999999989,
      "d": 214.28549999999814,
      "v": 127
    },
    {
      "midi": 37,
      "hit": false,
      "t": 59999.940000000075,
      "d": 857.1419999999998,
      "v": 127
    },
    {
      "midi": 49,
      "hit": false,
      "t": 59999.940000000075,
      "d": 857.1419999999998,
      "v": 127
    },
    {
      "midi": 64,
      "hit": false,
      "t": 59999.940000000075,
      "d": 857.1419999999998,
      "v": 127
    },
    {
      "midi": 52,
      "hit": false,
      "t": 60214.22549999989,
      "d": 214.28549999999814,
      "v": 127
    },
    {
      "midi": 56,
      "hit": false,
      "t": 60428.51099999989,
      "d": 214.28549999999814,
      "v": 127
    },
    {
      "midi": 61,
      "hit": false,
      "t": 60642.79649999989,
      "d": 214.28549999999814,
      "v": 127
    },
    {
      "midi": 56,
      "hit": false,
      "t": 60857.081999999886,
      "d": 214.28549999999814,
      "v": 127
    },
    {
      "midi": 52,
      "hit": false,
      "t": 61071.367499999884,
      "d": 214.28549999999814,
      "v": 127
    },
    {
      "midi": 56,
      "hit": false,
      "t": 61285.65299999988,
      "d": 214.28549999999814,
      "v": 127
    },
    {
      "midi": 61,
      "hit": false,
      "t": 61499.93849999988,
      "d": 214.28549999999814,
      "v": 127
    },
    {
      "midi": 76,
      "hit": false,
      "t": 61499.93849999988,
      "d": 214.28549999999814,
      "v": 127
    },
    {
      "midi": 64,
      "hit": false,
      "t": 61499.93850000008,
      "d": 214.28549999999814,
      "v": 127
    },
    {
      "midi": 78,
      "hit": false,
      "t": 61714.22399999988,
      "d": 214.28549999999814,
      "v": 127
    },
    {
      "midi": 45,
      "hit": false,
      "t": 61714.224000000075,
      "d": 857.1419999999998,
      "v": 127
    },
    {
      "midi": 66,
      "hit": false,
      "t": 61714.224000000075,
      "d": 857.1419999999998,
      "v": 127
    },
    {
      "midi": 54,
      "hit": false,
      "t": 61928.50949999988,
      "d": 214.28549999999814,
      "v": 127
    },
    {
      "midi": 57,
      "hit": false,
      "t": 62142.794999999875,
      "d": 214.28549999999814,
      "v": 127
    },
    {
      "midi": 61,
      "hit": false,
      "t": 62357.08049999987,
      "d": 214.28549999999814,
      "v": 127
    },
    {
      "midi": 80,
      "hit": false,
      "t": 62571.36599999987,
      "d": 214.28549999999814,
      "v": 127
    },
    {
      "midi": 68,
      "hit": false,
      "t": 62571.366000000075,
      "d": 642.8565000000017,
      "v": 127
    },
    {
      "midi": 59,
      "hit": false,
      "t": 62785.65149999987,
      "d": 214.28549999999814,
      "v": 127
    },
    {
      "midi": 61,
      "hit": false,
      "t": 62999.93699999987,
      "d": 214.28549999999814,
      "v": 127
    },
    {
      "midi": 59,
      "hit": false,
      "t": 63214.222499999865,
      "d": 214.28549999999814,
      "v": 127
    },
    {
      "midi": 80,
      "hit": false,
      "t": 63214.222499999865,
      "d": 214.28549999999814,
      "v": 127
    },
    {
      "midi": 68,
      "hit": false,
      "t": 63214.222500000076,
      "d": 214.28549999999814,
      "v": 127
    },
    {
      "midi": 83,
      "hit": false,
      "t": 63428.50799999986,
      "d": 214.28549999999814,
      "v": 127
    },
    {
      "midi": 71,
      "hit": false,
      "t": 63428.508000000074,
      "d": 428.57100000000355,
      "v": 127
    },
    {
      "midi": 54,
      "hit": false,
      "t": 63642.79349999986,
      "d": 214.28549999999814,
      "v": 127
    },
    {
      "midi": 81,
      "hit": false,
      "t": 63857.07899999986,
      "d": 214.28549999999814,
      "v": 127
    },
    {
      "midi": 69,
      "hit": false,
      "t": 63857.07900000008,
      "d": 428.57100000000355,
      "v": 127
    },
    {
      "midi": 61,
      "hit": false,
      "t": 64071.36449999986,
      "d": 214.28549999999814,
      "v": 127
    },
    {
      "midi": 80,
      "hit": false,
      "t": 64285.649999999856,
      "d": 214.28549999999814,
      "v": 127
    },
    {
      "midi": 68,
      "hit": false,
      "t": 64285.65000000008,
      "d": 428.57100000000355,
      "v": 127
    },
    {
      "midi": 54,
      "hit": false,
      "t": 64499.935499999854,
      "d": 214.28549999999814,
      "v": 127
    },
    {
      "midi": 78,
      "hit": false,
      "t": 64714.22099999985,
      "d": 214.28549999999814,
      "v": 127
    },
    {
      "midi": 66,
      "hit": false,
      "t": 64714.221000000085,
      "d": 428.57100000000355,
      "v": 127
    },
    {
      "midi": 61,
      "hit": false,
      "t": 64928.50649999985,
      "d": 214.28549999999814,
      "v": 127
    },
    {
      "midi": 76,
      "hit": false,
      "t": 65142.79199999985,
      "d": 214.28549999999814,
      "v": 127
    },
    {
      "midi": 47,
      "hit": false,
      "t": 65142.79200000009,
      "d": 857.1420000000071,
      "v": 127
    },
    {
      "midi": 64,
      "hit": false,
      "t": 65142.79200000009,
      "d": 857.1420000000071,
      "v": 127
    },
    {
      "midi": 56,
      "hit": false,
      "t": 65357.07749999985,
      "d": 214.2855000000054,
      "v": 127
    },
    {
      "midi": 59,
      "hit": false,
      "t": 65571.36299999985,
      "d": 214.28549999999814,
      "v": 127
    },
    {
      "midi": 56,
      "hit": false,
      "t": 65785.64849999985,
      "d": 214.28549999999814,
      "v": 127
    },
    {
      "midi": 80,
      "hit": false,
      "t": 65999.93399999985,
      "d": 214.28549999999814,
      "v": 127
    },
    {
      "midi": 68,
      "hit": false,
      "t": 65999.9340000001,
      "d": 642.8564999999944,
      "v": 127
    },
    {
      "midi": 56,
      "hit": false,
      "t": 66214.21949999985,
      "d": 214.28549999999814,
      "v": 127
    },
    {
      "midi": 59,
      "hit": false,
      "t": 66428.50499999984,
      "d": 214.28549999999814,
      "v": 127
    },
    {
      "midi": 56,
      "hit": false,
      "t": 66642.79049999984,
      "d": 214.28549999999814,
      "v": 127
    },
    {
      "midi": 83,
      "hit": false,
      "t": 66642.79049999984,
      "d": 214.28549999999814,
      "v": 127
    },
    {
      "midi": 71,
      "hit": false,
      "t": 66642.79050000009,
      "d": 214.28549999999814,
      "v": 127
    },
    {
      "midi": 78,
      "hit": false,
      "t": 66857.07599999984,
      "d": 214.28549999999814,
      "v": 127
    },
    {
      "midi": 47,
      "hit": false,
      "t": 66857.07600000009,
      "d": 857.1420000000071,
      "v": 127
    },
    {
      "midi": 66,
      "hit": false,
      "t": 66857.07600000009,
      "d": 857.1420000000071,
      "v": 127
    },
    {
      "midi": 51,
      "hit": false,
      "t": 67071.36149999984,
      "d": 214.28549999999814,
      "v": 127
    },
    {
      "midi": 54,
      "hit": false,
      "t": 67285.64699999984,
      "d": 214.28549999999814,
      "v": 127
    },
    {
      "midi": 59,
      "hit": false,
      "t": 67499.93249999984,
      "d": 214.28549999999814,
      "v": 127
    },
    {
      "midi": 57,
      "hit": false,
      "t": 67714.21799999983,
      "d": 214.28549999999814,
      "v": 127
    },
    {
      "midi": 56,
      "hit": false,
      "t": 67928.50349999983,
      "d": 214.28549999999814,
      "v": 127
    },
    {
      "midi": 54,
      "hit": false,
      "t": 68142.78899999983,
      "d": 214.28549999999814,
      "v": 127
    },
    {
      "midi": 59,
      "hit": false,
      "t": 68357.07449999983,
      "d": 214.28549999999814,
      "v": 127
    },
    {
      "midi": 80,
      "hit": false,
      "t": 68357.07449999983,
      "d": 214.28549999999814,
      "v": 127
    },
    {
      "midi": 83,
      "hit": false,
      "t": 68571.35999999983,
      "d": 214.28549999999814,
      "v": 127
    },
    {
      "midi": 52,
      "hit": false,
      "t": 68571.3600000001,
      "d": 1714.2839999999997,
      "v": 127
    },
    {
      "midi": 68,
      "hit": false,
      "t": 68571.3600000001,
      "d": 1714.2839999999997,
      "v": 127
    },
    {
      "midi": 71,
      "hit": false,
      "t": 68571.3600000001,
      "d": 1714.2839999999997,
      "v": 127
    },
    {
      "midi": 56,
      "hit": false,
      "t": 68785.64549999982,
      "d": 214.28549999999814,
      "v": 127
    },
    {
      "midi": 59,
      "hit": false,
      "t": 68999.93099999982,
      "d": 214.28549999999814,
      "v": 127
    },
    {
      "midi": 64,
      "hit": false,
      "t": 69214.21649999982,
      "d": 214.28549999999814,
      "v": 127
    },
    {
      "midi": 59,
      "hit": false,
      "t": 69428.50199999982,
      "d": 214.28549999999814,
      "v": 127
    },
    {
      "midi": 56,
      "hit": false,
      "t": 69642.78749999982,
      "d": 214.28549999999814,
      "v": 127
    },
    {
      "midi": 59,
      "hit": false,
      "t": 69857.07299999981,
      "d": 214.28549999999814,
      "v": 127
    },
    {
      "midi": 64,
      "hit": false,
      "t": 70071.35849999981,
      "d": 214.28549999999814,
      "v": 127
    },
    {
      "midi": 80,
      "hit": false,
      "t": 70071.35849999981,
      "d": 214.28549999999814,
      "v": 127
    },
    {
      "midi": 76,
      "hit": false,
      "t": 70285.64399999981,
      "d": 214.28549999999814,
      "v": 127
    },
    {
      "midi": 40,
      "hit": false,
      "t": 70285.6440000001,
      "d": 428.5709999999963,
      "v": 127
    },
    {
      "midi": 56,
      "hit": false,
      "t": 70499.92949999981,
      "d": 214.28549999999814,
      "v": 127
    },
    {
      "midi": 59,
      "hit": false,
      "t": 70714.21499999981,
      "d": 214.28549999999814,
      "v": 127
    },
    {
      "midi": 68,
      "hit": false,
      "t": 70714.2150000001,
      "d": 428.5709999999963,
      "v": 127
    },
    {
      "midi": 71,
      "hit": false,
      "t": 70714.2150000001,
      "d": 428.5709999999963,
      "v": 127
    },
    {
      "midi": 64,
      "hit": false,
      "t": 70928.5004999998,
      "d": 214.28549999999814,
      "v": 127
    },
    {
      "midi": 59,
      "hit": false,
      "t": 71142.7859999998,
      "d": 214.28549999999814,
      "v": 127
    },
    {
      "midi": 52,
      "hit": false,
      "t": 71142.7860000001,
      "d": 428.5709999999963,
      "v": 127
    },
    {
      "midi": 68,
      "hit": false,
      "t": 71142.7860000001,
      "d": 428.5709999999963,
      "v": 127
    },
    {
      "midi": 71,
      "hit": false,
      "t": 71142.7860000001,
      "d": 428.5709999999963,
      "v": 127
    },
    {
      "midi": 56,
      "hit": false,
      "t": 71357.0714999998,
      "d": 214.28549999999814,
      "v": 127
    },
    {
      "midi": 59,
      "hit": false,
      "t": 71571.3569999998,
      "d": 214.28549999999814,
      "v": 127
    },
    {
      "midi": 68,
      "hit": false,
      "t": 71571.35700000009,
      "d": 428.5709999999963,
      "v": 127
    },
    {
      "midi": 71,
      "hit": false,
      "t": 71571.35700000009,
      "d": 428.5709999999963,
      "v": 127
    },
    {
      "midi": 64,
      "hit": false,
      "t": 71785.6424999998,
      "d": 214.28549999999814,
      "v": 127
    },
    {
      "midi": 80,
      "hit": false,
      "t": 71785.6424999998,
      "d": 214.28549999999814,
      "v": 127
    },
    {
      "midi": 83,
      "hit": false,
      "t": 71999.9279999998,
      "d": 214.28549999999814,
      "v": 127
    },
    {
      "midi": 51,
      "hit": false,
      "t": 71999.92800000009,
      "d": 1714.2839999999997,
      "v": 127
    },
    {
      "midi": 69,
      "hit": false,
      "t": 71999.92800000009,
      "d": 1714.2839999999997,
      "v": 127
    },
    {
      "midi": 71,
      "hit": false,
      "t": 71999.92800000009,
      "d": 1714.2839999999997,
      "v": 127
    },
    {
      "midi": 57,
      "hit": false,
      "t": 72214.2134999998,
      "d": 214.28549999999814,
      "v": 127
    },
    {
      "midi": 59,
      "hit": false,
      "t": 72428.49899999979,
      "d": 214.28549999999814,
      "v": 127
    },
    {
      "midi": 66,
      "hit": false,
      "t": 72642.78449999979,
      "d": 214.28549999999814,
      "v": 127
    },
    {
      "midi": 59,
      "hit": false,
      "t": 72857.06999999979,
      "d": 214.28549999999814,
      "v": 127
    },
    {
      "midi": 57,
      "hit": false,
      "t": 73071.35549999979,
      "d": 214.28549999999814,
      "v": 127
    },
    {
      "midi": 81,
      "hit": false,
      "t": 73071.35549999979,
      "d": 214.28549999999814,
      "v": 127
    },
    {
      "midi": 59,
      "hit": false,
      "t": 73285.64099999978,
      "d": 214.28549999999814,
      "v": 127
    },
    {
      "midi": 80,
      "hit": false,
      "t": 73285.64099999978,
      "d": 214.28549999999814,
      "v": 127
    },
    {
      "midi": 66,
      "hit": false,
      "t": 73499.92649999978,
      "d": 214.28549999999814,
      "v": 127
    },
    {
      "midi": 81,
      "hit": false,
      "t": 73499.92649999978,
      "d": 214.28549999999814,
      "v": 127
    },
    {
      "midi": 78,
      "hit": false,
      "t": 73714.21199999978,
      "d": 214.28549999999814,
      "v": 127
    },
    {
      "midi": 39,
      "hit": false,
      "t": 73714.21200000009,
      "d": 428.5709999999963,
      "v": 127
    },
    {
      "midi": 57,
      "hit": false,
      "t": 73928.49749999978,
      "d": 214.28549999999814,
      "v": 127
    },
    {
      "midi": 59,
      "hit": false,
      "t": 74142.78299999978,
      "d": 214.28549999999814,
      "v": 127
    },
    {
      "midi": 69,
      "hit": false,
      "t": 74142.78300000008,
      "d": 428.5709999999963,
      "v": 127
    },
    {
      "midi": 71,
      "hit": false,
      "t": 74142.78300000008,
      "d": 428.5709999999963,
      "v": 127
    },
    {
      "midi": 66,
      "hit": false,
      "t": 74357.06849999978,
      "d": 214.28549999999814,
      "v": 127
    },
    {
      "midi": 59,
      "hit": false,
      "t": 74571.35399999977,
      "d": 214.28549999999814,
      "v": 127
    },
    {
      "midi": 51,
      "hit": false,
      "t": 74571.35400000008,
      "d": 428.5709999999963,
      "v": 127
    },
    {
      "midi": 69,
      "hit": false,
      "t": 74571.35400000008,
      "d": 428.5709999999963,
      "v": 127
    },
    {
      "midi": 71,
      "hit": false,
      "t": 74571.35400000008,
      "d": 428.5709999999963,
      "v": 127
    },
    {
      "midi": 57,
      "hit": false,
      "t": 74785.63949999977,
      "d": 214.28549999999814,
      "v": 127
    },
    {
      "midi": 59,
      "hit": false,
      "t": 74999.92499999977,
      "d": 214.28549999999814,
      "v": 127
    },
    {
      "midi": 69,
      "hit": false,
      "t": 74999.92500000008,
      "d": 428.5709999999963,
      "v": 127
    },
    {
      "midi": 71,
      "hit": false,
      "t": 74999.92500000008,
      "d": 428.5709999999963,
      "v": 127
    },
    {
      "midi": 66,
      "hit": false,
      "t": 75214.21049999977,
      "d": 214.28549999999814,
      "v": 127
    },
    {
      "midi": 78,
      "hit": false,
      "t": 75214.21049999977,
      "d": 214.28549999999814,
      "v": 127
    },
    {
      "midi": 80,
      "hit": false,
      "t": 75428.49599999977,
      "d": 214.28549999999814,
      "v": 127
    },
    {
      "midi": 40,
      "hit": false,
      "t": 75428.49600000007,
      "d": 428.5709999999963,
      "v": 127
    },
    {
      "midi": 52,
      "hit": false,
      "t": 75428.49600000007,
      "d": 428.5709999999963,
      "v": 127
    },
    {
      "midi": 68,
      "hit": false,
      "t": 75428.49600000007,
      "d": 428.5709999999963,
      "v": 127
    },
    {
      "midi": 64,
      "hit": false,
      "t": 75642.78149999976,
      "d": 214.28549999999814,
      "v": 127
    },
    {
      "midi": 59,
      "hit": false,
      "t": 75857.06699999976,
      "d": 214.28549999999814,
      "v": 127
    },
    {
      "midi": 83,
      "hit": false,
      "t": 75857.06699999976,
      "d": 214.28549999999814,
      "v": 127
    },
    {
      "midi": 71,
      "hit": false,
      "t": 75857.06700000007,
      "d": 428.5709999999963,
      "v": 127
    },
    {
      "midi": 56,
      "hit": false,
      "t": 76071.35249999976,
      "d": 214.28549999999814,
      "v": 127
    },
    {
      "midi": 78,
      "hit": false,
      "t": 76285.63799999976,
      "d": 214.28549999999814,
      "v": 127
    },
    {
      "midi": 45,
      "hit": false,
      "t": 76285.63800000006,
      "d": 428.5709999999963,
      "v": 127
    },
    {
      "midi": 66,
      "hit": false,
      "t": 76285.63800000006,
      "d": 428.5709999999963,
      "v": 127
    },
    {
      "midi": 61,
      "hit": false,
      "t": 76499.92349999976,
      "d": 214.28549999999814,
      "v": 127
    },
    {
      "midi": 57,
      "hit": false,
      "t": 76714.20899999976,
      "d": 214.28549999999814,
      "v": 127
    },
    {
      "midi": 81,
      "hit": false,
      "t": 76714.20899999976,
      "d": 214.28549999999814,
      "v": 127
    },
    {
      "midi": 69,
      "hit": false,
      "t": 76714.20900000006,
      "d": 428.5709999999963,
      "v": 127
    },
    {
      "midi": 54,
      "hit": false,
      "t": 76928.49449999975,
      "d": 214.28549999999814,
      "v": 127
    },
    {
      "midi": 76,
      "hit": false,
      "t": 77142.77999999975,
      "d": 214.28549999999814,
      "v": 127
    },
    {
      "midi": 47,
      "hit": false,
      "t": 77142.78000000006,
      "d": 428.5709999999963,
      "v": 127
    },
    {
      "midi": 64,
      "hit": false,
      "t": 77142.78000000006,
      "d": 428.5709999999963,
      "v": 127
    },
    {
      "midi": 56,
      "hit": false,
      "t": 77357.06549999975,
      "d": 214.28549999999814,
      "v": 127
    },
    {
      "midi": 52,
      "hit": false,
      "t": 77571.35099999975,
      "d": 214.28549999999814,
      "v": 127
    },
    {
      "midi": 80,
      "hit": false,
      "t": 77571.35099999975,
      "d": 214.28549999999814,
      "v": 127
    },
    {
      "midi": 68,
      "hit": false,
      "t": 77571.35100000005,
      "d": 428.5709999999963,
      "v": 127
    },
    {
      "midi": 59,
      "hit": false,
      "t": 77785.63649999975,
      "d": 214.28549999999814,
      "v": 127
    },
    {
      "midi": 78,
      "hit": false,
      "t": 77999.92199999974,
      "d": 214.28549999999814,
      "v": 127
    },
    {
      "midi": 47,
      "hit": false,
      "t": 77999.92200000005,
      "d": 428.5709999999963,
      "v": 127
    },
    {
      "midi": 66,
      "hit": false,
      "t": 77999.92200000005,
      "d": 428.5709999999963,
      "v": 127
    },
    {
      "midi": 57,
      "hit": false,
      "t": 78214.20749999974,
      "d": 214.28549999999814,
      "v": 127
    },
    {
      "midi": 54,
      "hit": false,
      "t": 78428.49299999974,
      "d": 214.28549999999814,
      "v": 127
    },
    {
      "midi": 83,
      "hit": false,
      "t": 78428.49299999974,
      "d": 214.28549999999814,
      "v": 127
    },
    {
      "midi": 71,
      "hit": false,
      "t": 78428.49300000005,
      "d": 428.5709999999963,
      "v": 127
    },
    {
      "midi": 63,
      "hit": false,
      "t": 78642.77849999974,
      "d": 214.28549999999814,
      "v": 127
    },
    {
      "midi": 83,
      "hit": false,
      "t": 78857.06399999974,
      "d": 214.28549999999814,
      "v": 127
    },
    {
      "midi": 35,
      "hit": false,
      "t": 78857.06400000004,
      "d": 428.5709999999963,
      "v": 127
    },
    {
      "midi": 57,
      "hit": false,
      "t": 79071.34949999973,
      "d": 214.28549999999814,
      "v": 127
    },
    {
      "midi": 59,
      "hit": false,
      "t": 79285.63499999973,
      "d": 214.28549999999814,
      "v": 127
    },
    {
      "midi": 69,
      "hit": false,
      "t": 79285.63500000004,
      "d": 428.5709999999963,
      "v": 127
    },
    {
      "midi": 71,
      "hit": false,
      "t": 79285.63500000004,
      "d": 428.5709999999963,
      "v": 127
    },
    {
      "midi": 63,
      "hit": false,
      "t": 79499.92049999973,
      "d": 214.28549999999814,
      "v": 127
    },
    {
      "midi": 59,
      "hit": false,
      "t": 79714.20599999973,
      "d": 214.28549999999814,
      "v": 127
    },
    {
      "midi": 69,
      "hit": false,
      "t": 79714.20600000003,
      "d": 428.5709999999963,
      "v": 127
    },
    {
      "midi": 71,
      "hit": false,
      "t": 79714.20600000003,
      "d": 428.5709999999963,
      "v": 127
    },
    {
      "midi": 57,
      "hit": false,
      "t": 79928.49149999973,
      "d": 214.28549999999814,
      "v": 127
    },
    {
      "midi": 59,
      "hit": false,
      "t": 80142.77699999973,
      "d": 214.28549999999814,
      "v": 127
    },
    {
      "midi": 69,
      "hit": false,
      "t": 80142.77700000003,
      "d": 428.5709999999963,
      "v": 127
    },
    {
      "midi": 71,
      "hit": false,
      "t": 80142.77700000003,
      "d": 428.5709999999963,
      "v": 127
    },
    {
      "midi": 63,
      "hit": false,
      "t": 80357.06249999972,
      "d": 214.28549999999814,
      "v": 127
    },
    {
      "midi": 56,
      "hit": false,
      "t": 80571.34799999972,
      "d": 857.1420000000071,
      "v": 127
    },
    {
      "midi": 59,
      "hit": false,
      "t": 80571.34799999972,
      "d": 857.1420000000071,
      "v": 127
    },
    {
      "midi": 64,
      "hit": false,
      "t": 80571.34799999972,
      "d": 857.1420000000071,
      "v": 127
    },
    {
      "midi": 76,
      "hit": false,
      "t": 80571.34799999972,
      "d": 857.1420000000071,
      "v": 127
    },
    {
      "midi": 40,
      "hit": false,
      "t": 80571.34800000003,
      "d": 857.1420000000071,
      "v": 127
    },
    {
      "midi": 47,
      "hit": false,
      "t": 80571.34800000003,
      "d": 857.1420000000071,
      "v": 127
    },
    {
      "midi": 52,
      "hit": false,
      "t": 80571.34800000003,
      "d": 857.1420000000071,
      "v": 127
    },
    {
      "midi": 68,
      "hit": false,
      "t": 80571.34800000003,
      "d": 857.1420000000071,
      "v": 127
    },
    {
      "midi": 71,
      "hit": false,
      "t": 80571.34800000003,
      "d": 857.1420000000071,
      "v": 127
    },
    {
      "midi": 78,
      "hit": false,
      "t": 82285.63199999974,
      "d": 214.28549999999814,
      "v": 127
    },
    {
      "midi": 47,
      "hit": false,
      "t": 82285.63200000004,
      "d": 857.1420000000071,
      "v": 127
    },
    {
      "midi": 66,
      "hit": false,
      "t": 82285.63200000004,
      "d": 857.1420000000071,
      "v": 127
    },
    {
      "midi": 54,
      "hit": false,
      "t": 82499.91749999973,
      "d": 214.28549999999814,
      "v": 127
    },
    {
      "midi": 59,
      "hit": false,
      "t": 82714.20299999973,
      "d": 214.28549999999814,
      "v": 127
    },
    {
      "midi": 63,
      "hit": false,
      "t": 82928.48849999973,
      "d": 214.28549999999814,
      "v": 127
    },
    {
      "midi": 59,
      "hit": false,
      "t": 83142.77399999973,
      "d": 214.28549999999814,
      "v": 127
    },
    {
      "midi": 54,
      "hit": false,
      "t": 83357.05949999973,
      "d": 214.28549999999814,
      "v": 127
    },
    {
      "midi": 59,
      "hit": false,
      "t": 83571.34499999972,
      "d": 214.28549999999814,
      "v": 127
    },
    {
      "midi": 51,
      "hit": false,
      "t": 83785.63049999972,
      "d": 214.28549999999814,
      "v": 127
    },
    {
      "midi": 78,
      "hit": false,
      "t": 83785.63049999972,
      "d": 214.28549999999814,
      "v": 127
    },
    {
      "midi": 66,
      "hit": false,
      "t": 83785.63050000004,
      "d": 214.28549999999814,
      "v": 127
    },
    {
      "midi": 81,
      "hit": false,
      "t": 83999.91599999972,
      "d": 214.28549999999814,
      "v": 127
    },
    {
      "midi": 42,
      "hit": false,
      "t": 83999.91600000004,
      "d": 857.1420000000071,
      "v": 127
    },
    {
      "midi": 69,
      "hit": false,
      "t": 83999.91600000004,
      "d": 857.1420000000071,
      "v": 127
    },
    {
      "midi": 54,
      "hit": false,
      "t": 84214.20149999972,
      "d": 214.28549999999814,
      "v": 127
    },
    {
      "midi": 57,
      "hit": false,
      "t": 84428.48699999972,
      "d": 214.28549999999814,
      "v": 127
    },
    {
      "midi": 61,
      "hit": false,
      "t": 84642.77249999972,
      "d": 214.28549999999814,
      "v": 127
    },
    {
      "midi": 57,
      "hit": false,
      "t": 84857.05799999971,
      "d": 214.28549999999814,
      "v": 127
    },
    {
      "midi": 54,
      "hit": false,
      "t": 85071.34349999971,
      "d": 214.28549999999814,
      "v": 127
    },
    {
      "midi": 57,
      "hit": false,
      "t": 85285.62899999971,
      "d": 214.28549999999814,
      "v": 127
    },
    {
      "midi": 61,
      "hit": false,
      "t": 85499.91449999971,
      "d": 214.28549999999814,
      "v": 127
    },
    {
      "midi": 81,
      "hit": false,
      "t": 85499.91449999971,
      "d": 214.28549999999814,
      "v": 127
    },
    {
      "midi": 69,
      "hit": false,
      "t": 85499.91450000004,
      "d": 214.28549999999814,
      "v": 127
    },
    {
      "midi": 80,
      "hit": false,
      "t": 85714.1999999997,
      "d": 214.28549999999814,
      "v": 127
    },
    {
      "midi": 68,
      "hit": false,
      "t": 85714.20000000004,
      "d": 1285.7130000000034,
      "v": 127
    },
    {
      "midi": 51,
      "hit": false,
      "t": 85928.4854999997,
      "d": 214.28549999999814,
      "v": 127
    },
    {
      "midi": 56,
      "hit": false,
      "t": 86142.7709999997,
      "d": 214.28549999999814,
      "v": 127
    },
    {
      "midi": 60,
      "hit": false,
      "t": 86357.0564999997,
      "d": 214.28549999999814,
      "v": 127
    },
    {
      "midi": 56,
      "hit": false,
      "t": 86571.3419999997,
      "d": 214.28549999999814,
      "v": 127
    },
    {
      "midi": 51,
      "hit": false,
      "t": 86785.6274999997,
      "d": 214.28549999999814,
      "v": 127
    },
    {
      "midi": 56,
      "hit": false,
      "t": 86999.9129999997,
      "d": 214.28549999999814,
      "v": 127
    },
    {
      "midi": 60,
      "hit": false,
      "t": 87214.1984999997,
      "d": 214.28549999999814,
      "v": 127
    },
    {
      "midi": 78,
      "hit": false,
      "t": 87214.1984999997,
      "d": 214.28549999999814,
      "v": 127
    },
    {
      "midi": 66,
      "hit": false,
      "t": 87214.19850000004,
      "d": 214.28549999999814,
      "v": 127
    },
    {
      "midi": 76,
      "hit": false,
      "t": 87428.48399999969,
      "d": 214.28549999999814,
      "v": 127
    },
    {
      "midi": 37,
      "hit": false,
      "t": 87428.48400000004,
      "d": 857.1420000000071,
      "v": 127
    },
    {
      "midi": 49,
      "hit": false,
      "t": 87428.48400000004,
      "d": 857.1420000000071,
      "v": 127
    },
    {
      "midi": 64,
      "hit": false,
      "t": 87428.48400000004,
      "d": 857.1420000000071,
      "v": 127
    },
    {
      "midi": 52,
      "hit": false,
      "t": 87642.76949999969,
      "d": 214.28549999999814,
      "v": 127
    },
    {
      "midi": 56,
      "hit": false,
      "t": 87857.05499999969,
      "d": 214.28549999999814,
      "v": 127
    },
    {
      "midi": 61,
      "hit": false,
      "t": 88071.34049999969,
      "d": 214.28549999999814,
      "v": 127
    },
    {
      "midi": 56,
      "hit": false,
      "t": 88285.62599999968,
      "d": 214.28549999999814,
      "v": 127
    },
    {
      "midi": 52,
      "hit": false,
      "t": 88499.91149999968,
      "d": 214.28549999999814,
      "v": 127
    },
    {
      "midi": 56,
      "hit": false,
      "t": 88714.19699999968,
      "d": 214.28549999999814,
      "v": 127
    },
    {
      "midi": 61,
      "hit": false,
      "t": 88928.48249999968,
      "d": 214.28549999999814,
      "v": 127
    },
    {
      "midi": 76,
      "hit": false,
      "t": 88928.48249999968,
      "d": 214.28549999999814,
      "v": 127
    },
    {
      "midi": 64,
      "hit": false,
      "t": 88928.48250000004,
      "d": 214.28549999999814,
      "v": 127
    },
    {
      "midi": 78,
      "hit": false,
      "t": 89142.76799999968,
      "d": 214.28549999999814,
      "v": 127
    },
    {
      "midi": 45,
      "hit": false,
      "t": 89142.76800000004,
      "d": 857.1420000000071,
      "v": 127
    },
    {
      "midi": 66,
      "hit": false,
      "t": 89142.76800000004,
      "d": 857.1420000000071,
      "v": 127
    },
    {
      "midi": 54,
      "hit": false,
      "t": 89357.05349999967,
      "d": 214.28549999999814,
      "v": 127
    },
    {
      "midi": 57,
      "hit": false,
      "t": 89571.33899999967,
      "d": 214.28549999999814,
      "v": 127
    },
    {
      "midi": 61,
      "hit": false,
      "t": 89785.62449999967,
      "d": 214.28549999999814,
      "v": 127
    },
    {
      "midi": 80,
      "hit": false,
      "t": 89999.90999999967,
      "d": 214.28549999999814,
      "v": 127
    },
    {
      "midi": 68,
      "hit": false,
      "t": 89999.91000000005,
      "d": 642.8564999999944,
      "v": 127
    },
    {
      "midi": 59,
      "hit": false,
      "t": 90214.19549999967,
      "d": 214.28549999999814,
      "v": 127
    },
    {
      "midi": 61,
      "hit": false,
      "t": 90428.48099999967,
      "d": 214.28549999999814,
      "v": 127
    },
    {
      "midi": 59,
      "hit": false,
      "t": 90642.76649999966,
      "d": 214.28549999999814,
      "v": 127
    },
    {
      "midi": 80,
      "hit": false,
      "t": 90642.76649999966,
      "d": 214.28549999999814,
      "v": 127
    },
    {
      "midi": 68,
      "hit": false,
      "t": 90642.76650000004,
      "d": 214.28549999999814,
      "v": 127
    },
    {
      "midi": 83,
      "hit": false,
      "t": 90857.05199999966,
      "d": 214.28549999999814,
      "v": 127
    },
    {
      "midi": 71,
      "hit": false,
      "t": 90857.05200000004,
      "d": 428.5709999999963,
      "v": 127
    },
    {
      "midi": 54,
      "hit": false,
      "t": 91071.33749999966,
      "d": 214.28549999999814,
      "v": 127
    },
    {
      "midi": 81,
      "hit": false,
      "t": 91285.62299999966,
      "d": 214.28549999999814,
      "v": 127
    },
    {
      "midi": 69,
      "hit": false,
      "t": 91285.62300000004,
      "d": 428.5709999999963,
      "v": 127
    },
    {
      "midi": 61,
      "hit": false,
      "t": 91499.90849999966,
      "d": 214.28549999999814,
      "v": 127
    },
    {
      "midi": 80,
      "hit": false,
      "t": 91714.19399999965,
      "d": 214.28549999999814,
      "v": 127
    },
    {
      "midi": 68,
      "hit": false,
      "t": 91714.19400000003,
      "d": 428.5709999999963,
      "v": 127
    },
    {
      "midi": 54,
      "hit": false,
      "t": 91928.47949999965,
      "d": 214.28549999999814,
      "v": 127
    },
    {
      "midi": 78,
      "hit": false,
      "t": 92142.76499999965,
      "d": 214.28549999999814,
      "v": 127
    },
    {
      "midi": 66,
      "hit": false,
      "t": 92142.76500000003,
      "d": 428.5709999999963,
      "v": 127
    },
    {
      "midi": 61,
      "hit": false,
      "t": 92357.05049999965,
      "d": 214.28549999999814,
      "v": 127
    },
    {
      "midi": 76,
      "hit": false,
      "t": 92571.33599999965,
      "d": 214.28549999999814,
      "v": 127
    },
    {
      "midi": 47,
      "hit": false,
      "t": 92571.33600000002,
      "d": 857.1420000000071,
      "v": 127
    },
    {
      "midi": 64,
      "hit": false,
      "t": 92571.33600000002,
      "d": 857.1420000000071,
      "v": 127
    },
    {
      "midi": 56,
      "hit": false,
      "t": 92785.62149999964,
      "d": 214.28549999999814,
      "v": 127
    },
    {
      "midi": 59,
      "hit": false,
      "t": 92999.90699999964,
      "d": 214.28549999999814,
      "v": 127
    },
    {
      "midi": 56,
      "hit": false,
      "t": 93214.19249999964,
      "d": 214.28549999999814,
      "v": 127
    },
    {
      "midi": 80,
      "hit": false,
      "t": 93428.47799999964,
      "d": 214.28549999999814,
      "v": 127
    },
    {
      "midi": 68,
      "hit": false,
      "t": 93428.47800000003,
      "d": 642.8564999999944,
      "v": 127
    },
    {
      "midi": 56,
      "hit": false,
      "t": 93642.76349999964,
      "d": 214.28549999999814,
      "v": 127
    },
    {
      "midi": 59,
      "hit": false,
      "t": 93857.04899999964,
      "d": 214.28549999999814,
      "v": 127
    },
    {
      "midi": 56,
      "hit": false,
      "t": 94071.33449999963,
      "d": 214.28549999999814,
      "v": 127
    },
    {
      "midi": 83,
      "hit": false,
      "t": 94071.33449999963,
      "d": 214.28549999999814,
      "v": 127
    },
    {
      "midi": 71,
      "hit": false,
      "t": 94071.33450000003,
      "d": 214.28549999999814,
      "v": 127
    },
    {
      "midi": 78,
      "hit": false,
      "t": 94285.61999999963,
      "d": 214.28549999999814,
      "v": 127
    },
    {
      "midi": 47,
      "hit": false,
      "t": 94285.62000000002,
      "d": 857.1420000000071,
      "v": 127
    },
    {
      "midi": 66,
      "hit": false,
      "t": 94285.62000000002,
      "d": 857.1420000000071,
      "v": 127
    },
    {
      "midi": 51,
      "hit": false,
      "t": 94499.90549999963,
      "d": 214.28549999999814,
      "v": 127
    },
    {
      "midi": 54,
      "hit": false,
      "t": 94714.19099999963,
      "d": 214.28549999999814,
      "v": 127
    },
    {
      "midi": 59,
      "hit": false,
      "t": 94928.47649999963,
      "d": 214.28549999999814,
      "v": 127
    },
    {
      "midi": 57,
      "hit": false,
      "t": 95142.76199999962,
      "d": 214.28549999999814,
      "v": 127
    },
    {
      "midi": 56,
      "hit": false,
      "t": 95357.04749999962,
      "d": 214.28549999999814,
      "v": 127
    },
    {
      "midi": 54,
      "hit": false,
      "t": 95571.33299999962,
      "d": 214.28549999999814,
      "v": 127
    },
    {
      "midi": 59,
      "hit": false,
      "t": 95785.61849999962,
      "d": 214.28549999999814,
      "v": 127
    },
    {
      "midi": 80,
      "hit": false,
      "t": 95785.61849999962,
      "d": 214.28549999999814,
      "v": 127
    },
    {
      "midi": 83,
      "hit": false,
      "t": 95999.90399999962,
      "d": 214.28549999999814,
      "v": 127
    },
    {
      "midi": 52,
      "hit": false,
      "t": 95999.90400000004,
      "d": 1714.2839999999997,
      "v": 127
    },
    {
      "midi": 68,
      "hit": false,
      "t": 95999.90400000004,
      "d": 1714.2839999999997,
      "v": 127
    },
    {
      "midi": 71,
      "hit": false,
      "t": 95999.90400000004,
      "d": 1714.2839999999997,
      "v": 127
    },
    {
      "midi": 56,
      "hit": false,
      "t": 96214.18949999961,
      "d": 214.28549999999814,
      "v": 127
    },
    {
      "midi": 59,
      "hit": false,
      "t": 96428.47499999961,
      "d": 214.28549999999814,
      "v": 127
    },
    {
      "midi": 64,
      "hit": false,
      "t": 96642.76049999961,
      "d": 214.28549999999814,
      "v": 127
    },
    {
      "midi": 59,
      "hit": false,
      "t": 96857.04599999961,
      "d": 214.28549999999814,
      "v": 127
    },
    {
      "midi": 56,
      "hit": false,
      "t": 97071.33149999961,
      "d": 214.28549999999814,
      "v": 127
    },
    {
      "midi": 59,
      "hit": false,
      "t": 97285.6169999996,
      "d": 214.28549999999814,
      "v": 127
    },
    {
      "midi": 64,
      "hit": false,
      "t": 97499.9024999996,
      "d": 214.28549999999814,
      "v": 127
    },
    {
      "midi": 80,
      "hit": false,
      "t": 97499.9024999996,
      "d": 214.28549999999814,
      "v": 127
    },
    {
      "midi": 76,
      "hit": false,
      "t": 97714.1879999996,
      "d": 214.28549999999814,
      "v": 127
    },
    {
      "midi": 40,
      "hit": false,
      "t": 97714.18800000004,
      "d": 428.5709999999963,
      "v": 127
    },
    {
      "midi": 56,
      "hit": false,
      "t": 97928.4734999996,
      "d": 214.28549999999814,
      "v": 127
    },
    {
      "midi": 59,
      "hit": false,
      "t": 98142.7589999996,
      "d": 214.28549999999814,
      "v": 127
    },
    {
      "midi": 68,
      "hit": false,
      "t": 98142.75900000003,
      "d": 428.5709999999963,
      "v": 127
    },
    {
      "midi": 71,
      "hit": false,
      "t": 98142.75900000003,
      "d": 428.5709999999963,
      "v": 127
    },
    {
      "midi": 64,
      "hit": false,
      "t": 98357.0444999996,
      "d": 214.28549999999814,
      "v": 127
    },
    {
      "midi": 59,
      "hit": false,
      "t": 98571.3299999996,
      "d": 214.28549999999814,
      "v": 127
    },
    {
      "midi": 52,
      "hit": false,
      "t": 98571.33000000003,
      "d": 428.5709999999963,
      "v": 127
    },
    {
      "midi": 68,
      "hit": false,
      "t": 98571.33000000003,
      "d": 428.5709999999963,
      "v": 127
    },
    {
      "midi": 71,
      "hit": false,
      "t": 98571.33000000003,
      "d": 428.5709999999963,
      "v": 127
    },
    {
      "midi": 56,
      "hit": false,
      "t": 98785.61549999959,
      "d": 214.28549999999814,
      "v": 127
    },
    {
      "midi": 59,
      "hit": false,
      "t": 98999.90099999959,
      "d": 214.28549999999814,
      "v": 127
    },
    {
      "midi": 68,
      "hit": false,
      "t": 98999.90100000003,
      "d": 428.5709999999963,
      "v": 127
    },
    {
      "midi": 71,
      "hit": false,
      "t": 98999.90100000003,
      "d": 428.5709999999963,
      "v": 127
    },
    {
      "midi": 64,
      "hit": false,
      "t": 99214.18649999959,
      "d": 214.28549999999814,
      "v": 127
    },
    {
      "midi": 80,
      "hit": false,
      "t": 99214.18649999959,
      "d": 214.28549999999814,
      "v": 127
    },
    {
      "midi": 83,
      "hit": false,
      "t": 99428.47199999959,
      "d": 214.28549999999814,
      "v": 127
    },
    {
      "midi": 51,
      "hit": false,
      "t": 99428.47200000002,
      "d": 1714.2839999999997,
      "v": 127
    },
    {
      "midi": 69,
      "hit": false,
      "t": 99428.47200000002,
      "d": 1714.2839999999997,
      "v": 127
    },
    {
      "midi": 71,
      "hit": false,
      "t": 99428.47200000002,
      "d": 1714.2839999999997,
      "v": 127
    },
    {
      "midi": 57,
      "hit": false,
      "t": 99642.75749999958,
      "d": 214.28549999999814,
      "v": 127
    },
    {
      "midi": 59,
      "hit": false,
      "t": 99857.04299999958,
      "d": 214.28549999999814,
      "v": 127
    },
    {
      "midi": 66,
      "hit": false,
      "t": 100071.32849999958,
      "d": 214.28549999999814,
      "v": 127
    },
    {
      "midi": 59,
      "hit": false,
      "t": 100285.61399999958,
      "d": 214.28549999999814,
      "v": 127
    },
    {
      "midi": 57,
      "hit": false,
      "t": 100499.89949999958,
      "d": 214.28549999999814,
      "v": 127
    },
    {
      "midi": 81,
      "hit": false,
      "t": 100499.89949999958,
      "d": 214.28549999999814,
      "v": 127
    },
    {
      "midi": 59,
      "hit": false,
      "t": 100714.18499999958,
      "d": 214.28549999999814,
      "v": 127
    },
    {
      "midi": 80,
      "hit": false,
      "t": 100714.18499999958,
      "d": 214.28549999999814,
      "v": 127
    },
    {
      "midi": 66,
      "hit": false,
      "t": 100928.47049999957,
      "d": 214.28549999999814,
      "v": 127
    },
    {
      "midi": 81,
      "hit": false,
      "t": 100928.47049999957,
      "d": 214.28549999999814,
      "v": 127
    },
    {
      "midi": 78,
      "hit": false,
      "t": 101142.75599999957,
      "d": 214.28549999999814,
      "v": 127
    },
    {
      "midi": 39,
      "hit": false,
      "t": 101142.75600000002,
      "d": 428.5709999999963,
      "v": 127
    },
    {
      "midi": 57,
      "hit": false,
      "t": 101357.04149999957,
      "d": 214.28549999999814,
      "v": 127
    },
    {
      "midi": 59,
      "hit": false,
      "t": 101571.32699999957,
      "d": 214.28549999999814,
      "v": 127
    },
    {
      "midi": 69,
      "hit": false,
      "t": 101571.32700000002,
      "d": 428.5709999999963,
      "v": 127
    },
    {
      "midi": 71,
      "hit": false,
      "t": 101571.32700000002,
      "d": 428.5709999999963,
      "v": 127
    },
    {
      "midi": 66,
      "hit": false,
      "t": 101785.61249999957,
      "d": 214.28549999999814,
      "v": 127
    },
    {
      "midi": 59,
      "hit": false,
      "t": 101999.89799999956,
      "d": 214.28549999999814,
      "v": 127
    },
    {
      "midi": 51,
      "hit": false,
      "t": 101999.89800000002,
      "d": 428.5709999999963,
      "v": 127
    },
    {
      "midi": 69,
      "hit": false,
      "t": 101999.89800000002,
      "d": 428.5709999999963,
      "v": 127
    },
    {
      "midi": 71,
      "hit": false,
      "t": 101999.89800000002,
      "d": 428.5709999999963,
      "v": 127
    },
    {
      "midi": 57,
      "hit": false,
      "t": 102214.18349999956,
      "d": 214.28549999999814,
      "v": 127
    },
    {
      "midi": 59,
      "hit": false,
      "t": 102428.46899999956,
      "d": 214.28549999999814,
      "v": 127
    },
    {
      "midi": 69,
      "hit": false,
      "t": 102428.46900000001,
      "d": 428.5709999999963,
      "v": 127
    },
    {
      "midi": 71,
      "hit": false,
      "t": 102428.46900000001,
      "d": 428.5709999999963,
      "v": 127
    },
    {
      "midi": 66,
      "hit": false,
      "t": 102642.75449999956,
      "d": 214.28549999999814,
      "v": 127
    },
    {
      "midi": 78,
      "hit": false,
      "t": 102642.75449999956,
      "d": 214.28549999999814,
      "v": 127
    },
    {
      "midi": 80,
      "hit": false,
      "t": 102857.03999999956,
      "d": 214.28549999999814,
      "v": 127
    },
    {
      "midi": 40,
      "hit": false,
      "t": 102857.04000000001,
      "d": 428.5709999999963,
      "v": 127
    },
    {
      "midi": 52,
      "hit": false,
      "t": 102857.04000000001,
      "d": 428.5709999999963,
      "v": 127
    },
    {
      "midi": 68,
      "hit": false,
      "t": 102857.04000000001,
      "d": 428.5709999999963,
      "v": 127
    },
    {
      "midi": 64,
      "hit": false,
      "t": 103071.32549999956,
      "d": 214.28549999999814,
      "v": 127
    },
    {
      "midi": 59,
      "hit": false,
      "t": 103285.61099999955,
      "d": 214.28549999999814,
      "v": 127
    },
    {
      "midi": 83,
      "hit": false,
      "t": 103285.61099999955,
      "d": 214.28549999999814,
      "v": 127
    },
    {
      "midi": 71,
      "hit": false,
      "t": 103285.611,
      "d": 428.5709999999963,
      "v": 127
    },
    {
      "midi": 56,
      "hit": false,
      "t": 103499.89649999955,
      "d": 214.28549999999814,
      "v": 127
    },
    {
      "midi": 78,
      "hit": false,
      "t": 103714.18199999955,
      "d": 214.28549999999814,
      "v": 127
    },
    {
      "midi": 45,
      "hit": false,
      "t": 103714.182,
      "d": 428.5709999999963,
      "v": 127
    },
    {
      "midi": 66,
      "hit": false,
      "t": 103714.182,
      "d": 428.5709999999963,
      "v": 127
    },
    {
      "midi": 61,
      "hit": false,
      "t": 103928.46749999955,
      "d": 214.28549999999814,
      "v": 127
    },
    {
      "midi": 57,
      "hit": false,
      "t": 104142.75299999955,
      "d": 214.28549999999814,
      "v": 127
    },
    {
      "midi": 81,
      "hit": false,
      "t": 104142.75299999955,
      "d": 214.28549999999814,
      "v": 127
    },
    {
      "midi": 69,
      "hit": false,
      "t": 104142.753,
      "d": 428.5709999999963,
      "v": 127
    },
    {
      "midi": 54,
      "hit": false,
      "t": 104357.03849999954,
      "d": 214.28549999999814,
      "v": 127
    },
    {
      "midi": 76,
      "hit": false,
      "t": 104571.32399999954,
      "d": 214.28549999999814,
      "v": 127
    },
    {
      "midi": 47,
      "hit": false,
      "t": 104571.324,
      "d": 428.5709999999963,
      "v": 127
    },
    {
      "midi": 64,
      "hit": false,
      "t": 104571.324,
      "d": 428.5709999999963,
      "v": 127
    },
    {
      "midi": 56,
      "hit": false,
      "t": 104785.60949999954,
      "d": 214.28549999999814,
      "v": 127
    },
    {
      "midi": 52,
      "hit": false,
      "t": 104999.89499999954,
      "d": 214.28549999999814,
      "v": 127
    },
    {
      "midi": 80,
      "hit": false,
      "t": 104999.89499999954,
      "d": 214.28549999999814,
      "v": 127
    },
    {
      "midi": 68,
      "hit": false,
      "t": 104999.89499999999,
      "d": 428.5709999999963,
      "v": 127
    },
    {
      "midi": 59,
      "hit": false,
      "t": 105214.18049999954,
      "d": 214.28549999999814,
      "v": 127
    },
    {
      "midi": 78,
      "hit": false,
      "t": 105428.46599999953,
      "d": 214.28549999999814,
      "v": 127
    },
    {
      "midi": 47,
      "hit": false,
      "t": 105428.46599999999,
      "d": 428.5709999999963,
      "v": 127
    },
    {
      "midi": 66,
      "hit": false,
      "t": 105428.46599999999,
      "d": 428.5709999999963,
      "v": 127
    },
    {
      "midi": 57,
      "hit": false,
      "t": 105642.75149999953,
      "d": 214.28549999999814,
      "v": 127
    },
    {
      "midi": 54,
      "hit": false,
      "t": 105857.03699999953,
      "d": 214.28549999999814,
      "v": 127
    },
    {
      "midi": 83,
      "hit": false,
      "t": 105857.03699999953,
      "d": 214.28549999999814,
      "v": 127
    },
    {
      "midi": 71,
      "hit": false,
      "t": 105857.03699999998,
      "d": 428.5709999999963,
      "v": 127
    },
    {
      "midi": 63,
      "hit": false,
      "t": 106071.32249999953,
      "d": 214.28549999999814,
      "v": 127
    },
    {
      "midi": 83,
      "hit": false,
      "t": 106285.60799999953,
      "d": 214.28549999999814,
      "v": 127
    },
    {
      "midi": 35,
      "hit": false,
      "t": 106285.60799999998,
      "d": 428.5709999999963,
      "v": 127
    },
    {
      "midi": 57,
      "hit": false,
      "t": 106499.89349999953,
      "d": 214.28549999999814,
      "v": 127
    },
    {
      "midi": 59,
      "hit": false,
      "t": 106714.17899999952,
      "d": 214.28549999999814,
      "v": 127
    },
    {
      "midi": 69,
      "hit": false,
      "t": 106714.17899999997,
      "d": 428.5709999999963,
      "v": 127
    },
    {
      "midi": 71,
      "hit": false,
      "t": 106714.17899999997,
      "d": 428.5709999999963,
      "v": 127
    },
    {
      "midi": 63,
      "hit": false,
      "t": 106928.46449999952,
      "d": 214.28549999999814,
      "v": 127
    },
    {
      "midi": 59,
      "hit": false,
      "t": 107142.74999999952,
      "d": 214.28549999999814,
      "v": 127
    },
    {
      "midi": 69,
      "hit": false,
      "t": 107142.74999999997,
      "d": 428.5709999999963,
      "v": 127
    },
    {
      "midi": 71,
      "hit": false,
      "t": 107142.74999999997,
      "d": 428.5709999999963,
      "v": 127
    },
    {
      "midi": 57,
      "hit": false,
      "t": 107357.03549999952,
      "d": 214.28549999999814,
      "v": 127
    },
    {
      "midi": 59,
      "hit": false,
      "t": 107571.32099999952,
      "d": 214.28549999999814,
      "v": 127
    },
    {
      "midi": 69,
      "hit": false,
      "t": 107571.32099999997,
      "d": 428.5709999999963,
      "v": 127
    },
    {
      "midi": 71,
      "hit": false,
      "t": 107571.32099999997,
      "d": 428.5709999999963,
      "v": 127
    },
    {
      "midi": 63,
      "hit": false,
      "t": 107785.60649999951,
      "d": 214.28549999999814,
      "v": 127
    },
    {
      "midi": 56,
      "hit": false,
      "t": 107999.89199999951,
      "d": 857.1420000000071,
      "v": 127
    },
    {
      "midi": 59,
      "hit": false,
      "t": 107999.89199999951,
      "d": 857.1420000000071,
      "v": 127
    },
    {
      "midi": 64,
      "hit": false,
      "t": 107999.89199999951,
      "d": 857.1420000000071,
      "v": 127
    },
    {
      "midi": 76,
      "hit": false,
      "t": 107999.89199999951,
      "d": 857.1420000000071,
      "v": 127
    },
    {
      "midi": 40,
      "hit": false,
      "t": 107999.89199999996,
      "d": 857.1420000000071,
      "v": 127
    },
    {
      "midi": 47,
      "hit": false,
      "t": 107999.89199999996,
      "d": 857.1420000000071,
      "v": 127
    },
    {
      "midi": 52,
      "hit": false,
      "t": 107999.89199999996,
      "d": 857.1420000000071,
      "v": 127
    },
    {
      "midi": 68,
      "hit": false,
      "t": 107999.89199999996,
      "d": 857.1420000000071,
      "v": 127
    },
    {
      "midi": 71,
      "hit": false,
      "t": 107999.89199999996,
      "d": 857.1420000000071,
      "v": 127
    }
  ]
}