{
  "jsonPath": "Classical/Early Romantic Era/Anton Diabelli/melodische-ubungsstucke-no-1.json",
  "path": "Classical\\Early Romantic Era\\Anton Diabelli\\Melodische Übungsstücke (No 1).mid",
  "name": "Melodische Übungsstücke (No 1)",
  "difficulty": "Advanced",
  "bpm": 110.00011000011,
  "notes": [
    {
      "midi": 55,
      "hit": false,
      "t": 0,
      "d": 1090.9080000000001,
      "v": 127
    },
    {
      "midi": 64,
      "hit": false,
      "t": 0,
      "d": 1090.9080000000001,
      "v": 127
    },
    {
      "midi": 67,
      "hit": false,
      "t": 0,
      "d": 1090.9080000000001,
      "v": 127
    },
    {
      "midi": 84,
      "hit": false,
      "t": 0,
      "d": 1090.9080000000001,
      "v": 127
    },
    {
      "midi": 72,
      "hit": false,
      "t": 0,
      "d": 545.4540000000001,
      "v": 127
    },
    {
      "midi": 40,
      "hit": false,
      "t": 545.4540000000001,
      "d": 545.4540000000001,
      "v": 127
    },
    {
      "midi": 55,
      "hit": false,
      "t": 1090.9080000000001,
      "d": 1090.9080000000001,
      "v": 127
    },
    {
      "midi": 59,
      "hit": false,
      "t": 1090.9080000000001,
      "d": 1090.9080000000001,
      "v": 127
    },
    {
      "midi": 67,
      "hit": false,
      "t": 1090.9080000000001,
      "d": 1090.9080000000001,
      "v": 127
    },
    {
      "midi": 86,
      "hit": false,
      "t": 1090.9080000000001,
      "d": 1090.9080000000001,
      "v": 127
    },
    {
      "midi": 74,
      "hit": false,
      "t": 1090.9080000000001,
      "d": 545.454,
      "v": 127
    },
    {
      "midi": 31,
      "hit": false,
      "t": 1636.362,
      "d": 545.4540000000002,
      "v": 127
    },
    {
      "midi": 55,
      "hit": false,
      "t": 2181.8160000000003,
      "d": 1090.908,
      "v": 127
    },
    {
      "midi": 60,
      "hit": false,
      "t": 2181.8160000000003,
      "d": 1090.908,
      "v": 127
    },
    {
      "midi": 67,
      "hit": false,
      "t": 2181.8160000000003,
      "d": 1090.908,
      "v": 127
    },
    {
      "midi": 88,
      "hit": false,
      "t": 2181.8160000000003,
      "d": 1090.908,
      "v": 127
    },
    {
      "midi": 76,
      "hit": false,
      "t": 2181.8160000000003,
      "d": 545.4540000000002,
      "v": 127
    },
    {
      "midi": 40,
      "hit": false,
      "t": 2727.2700000000004,
      "d": 545.4540000000002,
      "v": 127
    },
    {
      "midi": 55,
      "hit": false,
      "t": 3272.724,
      "d": 1090.9080000000004,
      "v": 127
    },
    {
      "midi": 64,
      "hit": false,
      "t": 3272.724,
      "d": 1090.9080000000004,
      "v": 127
    },
    {
      "midi": 67,
      "hit": false,
      "t": 3272.724,
      "d": 1090.9080000000004,
      "v": 127
    },
    {
      "midi": 84,
      "hit": false,
      "t": 3272.724,
      "d": 1090.9080000000004,
      "v": 127
    },
    {
      "midi": 72,
      "hit": false,
      "t": 3272.7240000000006,
      "d": 545.4540000000002,
      "v": 127
    },
    {
      "midi": 48,
      "hit": false,
      "t": 3818.178000000001,
      "d": 545.4539999999997,
      "v": 127
    },
    {
      "midi": 55,
      "hit": false,
      "t": 4363.6320000000005,
      "d": 1090.9080000000004,
      "v": 127
    },
    {
      "midi": 67,
      "hit": false,
      "t": 4363.6320000000005,
      "d": 1090.9080000000004,
      "v": 127
    },
    {
      "midi": 86,
      "hit": false,
      "t": 4363.6320000000005,
      "d": 1090.9080000000004,
      "v": 127
    },
    {
      "midi": 74,
      "hit": false,
      "t": 4363.6320000000005,
      "d": 545.4539999999997,
      "v": 127
    },
    {
      "midi": 43,
      "hit": false,
      "t": 4909.086,
      "d": 545.4539999999997,
      "v": 127
    },
    {
      "midi": 76,
      "hit": false,
      "t": 5454.54,
      "d": 545.4539999999997,
      "v": 127
    },
    {
      "midi": 55,
      "hit": false,
      "t": 5454.540000000001,
      "d": 1090.9080000000004,
      "v": 127
    },
    {
      "midi": 67,
      "hit": false,
      "t": 5454.540000000001,
      "d": 1090.9080000000004,
      "v": 127
    },
    {
      "midi": 88,
      "hit": false,
      "t": 5454.540000000001,
      "d": 1090.9080000000004,
      "v": 127
    },
    {
      "midi": 43,
      "hit": false,
      "t": 5999.994,
      "d": 545.4539999999997,
      "v": 127
    },
    {
      "midi": 77,
      "hit": false,
      "t": 6545.447999999999,
      "d": 545.4539999999997,
      "v": 127
    },
    {
      "midi": 55,
      "hit": false,
      "t": 6545.448000000001,
      "d": 1090.9080000000004,
      "v": 127
    },
    {
      "midi": 67,
      "hit": false,
      "t": 6545.448000000001,
      "d": 1090.9080000000004,
      "v": 127
    },
    {
      "midi": 89,
      "hit": false,
      "t": 6545.448000000001,
      "d": 1090.9080000000004,
      "v": 127
    },
    {
      "midi": 43,
      "hit": false,
      "t": 7090.901999999999,
      "d": 545.4539999999997,
      "v": 127
    },
    {
      "midi": 74,
      "hit": false,
      "t": 7636.355999999999,
      "d": 545.4539999999997,
      "v": 127
    },
    {
      "midi": 55,
      "hit": false,
      "t": 7636.356000000002,
      "d": 1090.9079999999994,
      "v": 127
    },
    {
      "midi": 67,
      "hit": false,
      "t": 7636.356000000002,
      "d": 1090.9079999999994,
      "v": 127
    },
    {
      "midi": 86,
      "hit": false,
      "t": 7636.356000000002,
      "d": 1090.9079999999994,
      "v": 127
    },
    {
      "midi": 43,
      "hit": false,
      "t": 8181.809999999999,
      "d": 545.4540000000006,
      "v": 127
    },
    {
      "midi": 76,
      "hit": false,
      "t": 8727.264,
      "d": 545.4539999999997,
      "v": 127
    },
    {
      "midi": 55,
      "hit": false,
      "t": 8727.264000000001,
      "d": 1090.9079999999994,
      "v": 127
    },
    {
      "midi": 60,
      "hit": false,
      "t": 8727.264000000001,
      "d": 1090.9079999999994,
      "v": 127
    },
    {
      "midi": 67,
      "hit": false,
      "t": 8727.264000000001,
      "d": 1090.9079999999994,
      "v": 127
    },
    {
      "midi": 88,
      "hit": false,
      "t": 8727.264000000001,
      "d": 1090.9079999999994,
      "v": 127
    },
    {
      "midi": 48,
      "hit": false,
      "t": 9272.717999999999,
      "d": 545.4539999999997,
      "v": 127
    },
    {
      "midi": 77,
      "hit": false,
      "t": 9818.171999999999,
      "d": 545.4539999999997,
      "v": 127
    },
    {
      "midi": 55,
      "hit": false,
      "t": 9818.172,
      "d": 1090.9079999999994,
      "v": 127
    },
    {
      "midi": 59,
      "hit": false,
      "t": 9818.172,
      "d": 1090.9079999999994,
      "v": 127
    },
    {
      "midi": 67,
      "hit": false,
      "t": 9818.172,
      "d": 1090.9079999999994,
      "v": 127
    },
    {
      "midi": 89,
      "hit": false,
      "t": 9818.172,
      "d": 1090.9079999999994,
      "v": 127
    },
    {
      "midi": 38,
      "hit": false,
      "t": 10363.625999999998,
      "d": 545.4539999999997,
      "v": 127
    },
    {
      "midi": 79,
      "hit": false,
      "t": 10909.079999999998,
      "d": 545.4539999999997,
      "v": 127
    },
    {
      "midi": 55,
      "hit": false,
      "t": 10909.08,
      "d": 1090.9079999999994,
      "v": 127
    },
    {
      "midi": 60,
      "hit": false,
      "t": 10909.08,
      "d": 1090.9079999999994,
      "v": 127
    },
    {
      "midi": 67,
      "hit": false,
      "t": 10909.08,
      "d": 1090.9079999999994,
      "v": 127
    },
    {
      "midi": 91,
      "hit": false,
      "t": 10909.08,
      "d": 1090.9079999999994,
      "v": 127
    },
    {
      "midi": 52,
      "hit": false,
      "t": 11454.533999999998,
      "d": 545.4539999999997,
      "v": 127
    },
    {
      "midi": 77,
      "hit": false,
      "t": 11999.987999999998,
      "d": 545.4539999999997,
      "v": 127
    },
    {
      "midi": 57,
      "hit": false,
      "t": 11999.988,
      "d": 1090.9079999999994,
      "v": 127
    },
    {
      "midi": 62,
      "hit": false,
      "t": 11999.988,
      "d": 1090.9079999999994,
      "v": 127
    },
    {
      "midi": 65,
      "hit": false,
      "t": 11999.988,
      "d": 1090.9079999999994,
      "v": 127
    },
    {
      "midi": 89,
      "hit": false,
      "t": 11999.988,
      "d": 1090.9079999999994,
      "v": 127
    },
    {
      "midi": 41,
      "hit": false,
      "t": 12545.441999999997,
      "d": 545.4539999999997,
      "v": 127
    },
    {
      "midi": 76,
      "hit": false,
      "t": 13090.895999999997,
      "d": 545.4539999999997,
      "v": 127
    },
    {
      "midi": 55,
      "hit": false,
      "t": 13090.895999999999,
      "d": 1090.9079999999994,
      "v": 127
    },
    {
      "midi": 60,
      "hit": false,
      "t": 13090.895999999999,
      "d": 1090.9079999999994,
      "v": 127
    },
    {
      "midi": 64,
      "hit": false,
      "t": 13090.895999999999,
      "d": 1090.9079999999994,
      "v": 127
    },
    {
      "midi": 88,
      "hit": false,
      "t": 13090.895999999999,
      "d": 1090.9079999999994,
      "v": 127
    },
    {
      "midi": 31,
      "hit": false,
      "t": 13636.349999999997,
      "d": 545.4539999999997,
      "v": 127
    },
    {
      "midi": 74,
      "hit": false,
      "t": 14181.803999999996,
      "d": 545.4539999999997,
      "v": 127
    },
    {
      "midi": 55,
      "hit": false,
      "t": 14181.803999999998,
      "d": 1090.9079999999994,
      "v": 127
    },
    {
      "midi": 59,
      "hit": false,
      "t": 14181.803999999998,
      "d": 1090.9079999999994,
      "v": 127
    },
    {
      "midi": 65,
      "hit": false,
      "t": 14181.803999999998,
      "d": 1090.9079999999994,
      "v": 127
    },
    {
      "midi": 86,
      "hit": false,
      "t": 14181.803999999998,
      "d": 1090.9079999999994,
      "v": 127
    },
    {
      "midi": 43,
      "hit": false,
      "t": 14727.257999999996,
      "d": 545.4539999999997,
      "v": 127
    },
    {
      "midi": 72,
      "hit": false,
      "t": 15272.711999999996,
      "d": 545.4539999999997,
      "v": 127
    },
    {
      "midi": 55,
      "hit": false,
      "t": 15272.711999999998,
      "d": 2181.8160000000007,
      "v": 127
    },
    {
      "midi": 60,
      "hit": false,
      "t": 15272.711999999998,
      "d": 2181.8160000000007,
      "v": 127
    },
    {
      "midi": 64,
      "hit": false,
      "t": 15272.711999999998,
      "d": 2181.8160000000007,
      "v": 127
    },
    {
      "midi": 84,
      "hit": false,
      "t": 15272.711999999998,
      "d": 2181.8160000000007,
      "v": 127
    },
    {
      "midi": 48,
      "hit": false,
      "t": 15818.165999999996,
      "d": 545.4539999999997,
      "v": 127
    },
    {
      "midi": 43,
      "hit": false,
      "t": 16363.619999999995,
      "d": 545.4540000000015,
      "v": 127
    },
    {
      "midi": 40,
      "hit": false,
      "t": 16909.073999999997,
      "d": 545.4540000000015,
      "v": 127
    },
    {
      "midi": 55,
      "hit": false,
      "t": 17454.528,
      "d": 1090.9079999999994,
      "v": 127
    },
    {
      "midi": 64,
      "hit": false,
      "t": 17454.528,
      "d": 1090.9079999999994,
      "v": 127
    },
    {
      "midi": 67,
      "hit": false,
      "t": 17454.528,
      "d": 1090.9079999999994,
      "v": 127
    },
    {
      "midi": 84,
      "hit": false,
      "t": 17454.528,
      "d": 1090.9079999999994,
      "v": 127
    },
    {
      "midi": 72,
      "hit": false,
      "t": 17454.528,
      "d": 545.4540000000015,
      "v": 127
    },
    {
      "midi": 40,
      "hit": false,
      "t": 17999.982,
      "d": 545.4540000000015,
      "v": 127
    },
    {
      "midi": 55,
      "hit": false,
      "t": 18545.435999999998,
      "d": 1090.9079999999994,
      "v": 127
    },
    {
      "midi": 59,
      "hit": false,
      "t": 18545.435999999998,
      "d": 1090.9079999999994,
      "v": 127
    },
    {
      "midi": 67,
      "hit": false,
      "t": 18545.435999999998,
      "d": 1090.9079999999994,
      "v": 127
    },
    {
      "midi": 86,
      "hit": false,
      "t": 18545.435999999998,
      "d": 1090.9079999999994,
      "v": 127
    },
    {
      "midi": 74,
      "hit": false,
      "t": 18545.436,
      "d": 545.4540000000015,
      "v": 127
    },
    {
      "midi": 31,
      "hit": false,
      "t": 19090.890000000003,
      "d": 545.4540000000015,
      "v": 127
    },
    {
      "midi": 55,
      "hit": false,
      "t": 19636.343999999997,
      "d": 1090.9079999999994,
      "v": 127
    },
    {
      "midi": 60,
      "hit": false,
      "t": 19636.343999999997,
      "d": 1090.9079999999994,
      "v": 127
    },
    {
      "midi": 67,
      "hit": false,
      "t": 19636.343999999997,
      "d": 1090.9079999999994,
      "v": 127
    },
    {
      "midi": 88,
      "hit": false,
      "t": 19636.343999999997,
      "d": 1090.9079999999994,
      "v": 127
    },
    {
      "midi": 76,
      "hit": false,
      "t": 19636.344000000005,
      "d": 545.4540000000015,
      "v": 127
    },
    {
      "midi": 40,
      "hit": false,
      "t": 20181.798000000006,
      "d": 545.4540000000015,
      "v": 127
    },
    {
      "midi": 55,
      "hit": false,
      "t": 20727.251999999997,
      "d": 1090.9079999999994,
      "v": 127
    },
    {
      "midi": 64,
      "hit": false,
      "t": 20727.251999999997,
      "d": 1090.9079999999994,
      "v": 127
    },
    {
      "midi": 67,
      "hit": false,
      "t": 20727.251999999997,
      "d": 1090.9079999999994,
      "v": 127
    },
    {
      "midi": 84,
      "hit": false,
      "t": 20727.251999999997,
      "d": 1090.9079999999994,
      "v": 127
    },
    {
      "midi": 72,
      "hit": false,
      "t": 20727.252000000008,
      "d": 545.4540000000015,
      "v": 127
    },
    {
      "midi": 48,
      "hit": false,
      "t": 21272.70600000001,
      "d": 545.4540000000015,
      "v": 127
    },
    {
      "midi": 55,
      "hit": false,
      "t": 21818.159999999996,
      "d": 1090.9079999999994,
      "v": 127
    },
    {
      "midi": 67,
      "hit": false,
      "t": 21818.159999999996,
      "d": 1090.9079999999994,
      "v": 127
    },
    {
      "midi": 86,
      "hit": false,
      "t": 21818.159999999996,
      "d": 1090.9079999999994,
      "v": 127
    },
    {
      "midi": 74,
      "hit": false,
      "t": 21818.16000000001,
      "d": 545.4540000000015,
      "v": 127
    },
    {
      "midi": 43,
      "hit": false,
      "t": 22363.614000000012,
      "d": 545.4540000000015,
      "v": 127
    },
    {
      "midi": 55,
      "hit": false,
      "t": 22909.067999999996,
      "d": 1090.9079999999994,
      "v": 127
    },
    {
      "midi": 67,
      "hit": false,
      "t": 22909.067999999996,
      "d": 1090.9079999999994,
      "v": 127
    },
    {
      "midi": 88,
      "hit": false,
      "t": 22909.067999999996,
      "d": 1090.9079999999994,
      "v": 127
    },
    {
      "midi": 76,
      "hit": false,
      "t": 22909.068000000014,
      "d": 545.4540000000015,
      "v": 127
    },
    {
      "midi": 43,
      "hit": false,
      "t": 23454.522000000015,
      "d": 545.4540000000015,
      "v": 127
    },
    {
      "midi": 55,
      "hit": false,
      "t": 23999.975999999995,
      "d": 1090.9079999999994,
      "v": 127
    },
    {
      "midi": 67,
      "hit": false,
      "t": 23999.975999999995,
      "d": 1090.9079999999994,
      "v": 127
    },
    {
      "midi": 89,
      "hit": false,
      "t": 23999.975999999995,
      "d": 1090.9079999999994,
      "v": 127
    },
    {
      "midi": 77,
      "hit": false,
      "t": 23999.976000000017,
      "d": 545.4540000000015,
      "v": 127
    },
    {
      "midi": 43,
      "hit": false,
      "t": 24545.43000000002,
      "d": 545.4540000000015,
      "v": 127
    },
    {
      "midi": 55,
      "hit": false,
      "t": 25090.883999999995,
      "d": 1090.9079999999994,
      "v": 127
    },
    {
      "midi": 67,
      "hit": false,
      "t": 25090.883999999995,
      "d": 1090.9079999999994,
      "v": 127
    },
    {
      "midi": 86,
      "hit": false,
      "t": 25090.883999999995,
      "d": 1090.9079999999994,
      "v": 127
    },
    {
      "midi": 74,
      "hit": false,
      "t": 25090.88400000002,
      "d": 545.4540000000015,
      "v": 127
    },
    {
      "midi": 43,
      "hit": false,
      "t": 25636.33800000002,
      "d": 545.4540000000015,
      "v": 127
    },
    {
      "midi": 55,
      "hit": false,
      "t": 26181.791999999994,
      "d": 1090.9079999999994,
      "v": 127
    },
    {
      "midi": 60,
      "hit": false,
      "t": 26181.791999999994,
      "d": 1090.9079999999994,
      "v": 127
    },
    {
      "midi": 67,
      "hit": false,
      "t": 26181.791999999994,
      "d": 1090.9079999999994,
      "v": 127
    },
    {
      "midi": 88,
      "hit": false,
      "t": 26181.791999999994,
      "d": 1090.9079999999994,
      "v": 127
    },
    {
      "midi": 76,
      "hit": false,
      "t": 26181.792000000023,
      "d": 545.4540000000015,
      "v": 127
    },
    {
      "midi": 48,
      "hit": false,
      "t": 26727.246000000025,
      "d": 545.4540000000015,
      "v": 127
    },
    {
      "midi": 55,
      "hit": false,
      "t": 27272.699999999993,
      "d": 1090.9079999999994,
      "v": 127
    },
    {
      "midi": 59,
      "hit": false,
      "t": 27272.699999999993,
      "d": 1090.9079999999994,
      "v": 127
    },
    {
      "midi": 67,
      "hit": false,
      "t": 27272.699999999993,
      "d": 1090.9079999999994,
      "v": 127
    },
    {
      "midi": 89,
      "hit": false,
      "t": 27272.699999999993,
      "d": 1090.9079999999994,
      "v": 127
    },
    {
      "midi": 77,
      "hit": false,
      "t": 27272.700000000026,
      "d": 545.4540000000015,
      "v": 127
    },
    {
      "midi": 38,
      "hit": false,
      "t": 27818.154000000028,
      "d": 545.4540000000015,
      "v": 127
    },
    {
      "midi": 55,
      "hit": false,
      "t": 28363.607999999993,
      "d": 1090.9079999999994,
      "v": 127
    },
    {
      "midi": 60,
      "hit": false,
      "t": 28363.607999999993,
      "d": 1090.9079999999994,
      "v": 127
    },
    {
      "midi": 67,
      "hit": false,
      "t": 28363.607999999993,
      "d": 1090.9079999999994,
      "v": 127
    },
    {
      "midi": 91,
      "hit": false,
      "t": 28363.607999999993,
      "d": 1090.9079999999994,
      "v": 127
    },
    {
      "midi": 79,
      "hit": false,
      "t": 28363.60800000003,
      "d": 545.4540000000015,
      "v": 127
    },
    {
      "midi": 52,
      "hit": false,
      "t": 28909.06200000003,
      "d": 545.4540000000015,
      "v": 127
    },
    {
      "midi": 57,
      "hit": false,
      "t": 29454.515999999992,
      "d": 1090.9079999999994,
      "v": 127
    },
    {
      "midi": 62,
      "hit": false,
      "t": 29454.515999999992,
      "d": 1090.9079999999994,
      "v": 127
    },
    {
      "midi": 65,
      "hit": false,
      "t": 29454.515999999992,
      "d": 1090.9079999999994,
      "v": 127
    },
    {
      "midi": 89,
      "hit": false,
      "t": 29454.515999999992,
      "d": 1090.9079999999994,
      "v": 127
    },
    {
      "midi": 77,
      "hit": false,
      "t": 29454.516000000032,
      "d": 545.4540000000015,
      "v": 127
    },
    {
      "midi": 41,
      "hit": false,
      "t": 29999.970000000034,
      "d": 545.4540000000015,
      "v": 127
    },
    {
      "midi": 55,
      "hit": false,
      "t": 30545.42399999999,
      "d": 1090.9079999999994,
      "v": 127
    },
    {
      "midi": 60,
      "hit": false,
      "t": 30545.42399999999,
      "d": 1090.9079999999994,
      "v": 127
    },
    {
      "midi": 64,
      "hit": false,
      "t": 30545.42399999999,
      "d": 1090.9079999999994,
      "v": 127
    },
    {
      "midi": 88,
      "hit": false,
      "t": 30545.42399999999,
      "d": 1090.9079999999994,
      "v": 127
    },
    {
      "midi": 76,
      "hit": false,
      "t": 30545.424000000035,
      "d": 545.4540000000015,
      "v": 127
    },
    {
      "midi": 31,
      "hit": false,
      "t": 31090.878000000037,
      "d": 545.4540000000015,
      "v": 127
    },
    {
      "midi": 55,
      "hit": false,
      "t": 31636.33199999999,
      "d": 1090.9079999999994,
      "v": 127
    },
    {
      "midi": 59,
      "hit": false,
      "t": 31636.33199999999,
      "d": 1090.9079999999994,
      "v": 127
    },
    {
      "midi": 65,
      "hit": false,
      "t": 31636.33199999999,
      "d": 1090.9079999999994,
      "v": 127
    },
    {
      "midi": 86,
      "hit": false,
      "t": 31636.33199999999,
      "d": 1090.9079999999994,
      "v": 127
    },
    {
      "midi": 74,
      "hit": false,
      "t": 31636.33200000004,
      "d": 545.4540000000015,
      "v": 127
    },
    {
      "midi": 43,
      "hit": false,
      "t": 32181.78600000004,
      "d": 545.4540000000015,
      "v": 127
    },
    {
      "midi": 55,
      "hit": false,
      "t": 32727.23999999999,
      "d": 2181.815999999999,
      "v": 127
    },
    {
      "midi": 60,
      "hit": false,
      "t": 32727.23999999999,
      "d": 2181.815999999999,
      "v": 127
    },
    {
      "midi": 64,
      "hit": false,
      "t": 32727.23999999999,
      "d": 2181.815999999999,
      "v": 127
    },
    {
      "midi": 84,
      "hit": false,
      "t": 32727.23999999999,
      "d": 2181.815999999999,
      "v": 127
    },
    {
      "midi": 72,
      "hit": false,
      "t": 32727.24000000004,
      "d": 545.4539999999979,
      "v": 127
    },
    {
      "midi": 43,
      "hit": false,
      "t": 33272.69400000004,
      "d": 545.4539999999979,
      "v": 127
    },
    {
      "midi": 40,
      "hit": false,
      "t": 33818.14800000004,
      "d": 545.4539999999979,
      "v": 127
    },
    {
      "midi": 36,
      "hit": false,
      "t": 34363.602000000035,
      "d": 545.4539999999979,
      "v": 127
    },
    {
      "midi": 55,
      "hit": false,
      "t": 34909.05599999999,
      "d": 1090.908000000003,
      "v": 127
    },
    {
      "midi": 59,
      "hit": false,
      "t": 34909.05599999999,
      "d": 1090.908000000003,
      "v": 127
    },
    {
      "midi": 62,
      "hit": false,
      "t": 34909.05599999999,
      "d": 1090.908000000003,
      "v": 127
    },
    {
      "midi": 86,
      "hit": false,
      "t": 34909.05599999999,
      "d": 1090.908000000003,
      "v": 127
    },
    {
      "midi": 74,
      "hit": false,
      "t": 34909.05600000003,
      "d": 545.4539999999979,
      "v": 127
    },
    {
      "midi": 43,
      "hit": false,
      "t": 35454.51000000003,
      "d": 545.4539999999979,
      "v": 127
    },
    {
      "midi": 55,
      "hit": false,
      "t": 35999.96399999999,
      "d": 1090.908000000003,
      "v": 127
    },
    {
      "midi": 60,
      "hit": false,
      "t": 35999.96399999999,
      "d": 1090.908000000003,
      "v": 127
    },
    {
      "midi": 64,
      "hit": false,
      "t": 35999.96399999999,
      "d": 1090.908000000003,
      "v": 127
    },
    {
      "midi": 88,
      "hit": false,
      "t": 35999.96399999999,
      "d": 1090.908000000003,
      "v": 127
    },
    {
      "midi": 76,
      "hit": false,
      "t": 35999.96400000003,
      "d": 545.4539999999979,
      "v": 127
    },
    {
      "midi": 43,
      "hit": false,
      "t": 36545.41800000003,
      "d": 545.4539999999979,
      "v": 127
    },
    {
      "midi": 55,
      "hit": false,
      "t": 37090.871999999996,
      "d": 1090.908000000003,
      "v": 127
    },
    {
      "midi": 62,
      "hit": false,
      "t": 37090.871999999996,
      "d": 1090.908000000003,
      "v": 127
    },
    {
      "midi": 65,
      "hit": false,
      "t": 37090.871999999996,
      "d": 1090.908000000003,
      "v": 127
    },
    {
      "midi": 89,
      "hit": false,
      "t": 37090.871999999996,
      "d": 1090.908000000003,
      "v": 127
    },
    {
      "midi": 77,
      "hit": false,
      "t": 37090.872000000025,
      "d": 545.4539999999979,
      "v": 127
    },
    {
      "midi": 50,
      "hit": false,
      "t": 37636.32600000002,
      "d": 545.4539999999979,
      "v": 127
    },
    {
      "midi": 55,
      "hit": false,
      "t": 38181.78,
      "d": 1090.908000000003,
      "v": 127
    },
    {
      "midi": 59,
      "hit": false,
      "t": 38181.78,
      "d": 1090.908000000003,
      "v": 127
    },
    {
      "midi": 86,
      "hit": false,
      "t": 38181.78,
      "d": 1090.908000000003,
      "v": 127
    },
    {
      "midi": 74,
      "hit": false,
      "t": 38181.78000000002,
      "d": 545.4539999999979,
      "v": 127
    },
    {
      "midi": 55,
      "hit": false,
      "t": 38727.23400000002,
      "d": 545.4539999999979,
      "v": 127
    },
    {
      "midi": 55,
      "hit": false,
      "t": 39272.688,
      "d": 1090.908000000003,
      "v": 127
    },
    {
      "midi": 60,
      "hit": false,
      "t": 39272.688,
      "d": 1090.908000000003,
      "v": 127
    },
    {
      "midi": 64,
      "hit": false,
      "t": 39272.688,
      "d": 1090.908000000003,
      "v": 127
    },
    {
      "midi": 88,
      "hit": false,
      "t": 39272.688,
      "d": 1090.908000000003,
      "v": 127
    },
    {
      "midi": 76,
      "hit": false,
      "t": 39272.68800000002,
      "d": 545.4539999999979,
      "v": 127
    },
    {
      "midi": 48,
      "hit": false,
      "t": 39818.142000000014,
      "d": 545.4539999999979,
      "v": 127
    },
    {
      "midi": 55,
      "hit": false,
      "t": 40363.596000000005,
      "d": 1090.908000000003,
      "v": 127
    },
    {
      "midi": 59,
      "hit": false,
      "t": 40363.596000000005,
      "d": 1090.908000000003,
      "v": 127
    },
    {
      "midi": 65,
      "hit": false,
      "t": 40363.596000000005,
      "d": 1090.908000000003,
      "v": 127
    },
    {
      "midi": 89,
      "hit": false,
      "t": 40363.596000000005,
      "d": 1090.908000000003,
      "v": 127
    },
    {
      "midi": 77,
      "hit": false,
      "t": 40363.59600000001,
      "d": 545.4539999999979,
      "v": 127
    },
    {
      "midi": 38,
      "hit": false,
      "t": 40909.05000000001,
      "d": 545.4539999999979,
      "v": 127
    },
    {
      "midi": 55,
      "hit": false,
      "t": 41454.50400000001,
      "d": 1090.908000000003,
      "v": 127
    },
    {
      "midi": 60,
      "hit": false,
      "t": 41454.50400000001,
      "d": 1090.908000000003,
      "v": 127
    },
    {
      "midi": 67,
      "hit": false,
      "t": 41454.50400000001,
      "d": 1090.908000000003,
      "v": 127
    },
    {
      "midi": 91,
      "hit": false,
      "t": 41454.50400000001,
      "d": 1090.908000000003,
      "v": 127
    },
    {
      "midi": 79,
      "hit": false,
      "t": 41454.50400000001,
      "d": 545.4539999999979,
      "v": 127
    },
    {
      "midi": 52,
      "hit": false,
      "t": 41999.958000000006,
      "d": 545.4539999999979,
      "v": 127
    },
    {
      "midi": 76,
      "hit": false,
      "t": 42545.412000000004,
      "d": 545.4539999999979,
      "v": 127
    },
    {
      "midi": 55,
      "hit": false,
      "t": 42545.41200000001,
      "d": 1090.908000000003,
      "v": 127
    },
    {
      "midi": 60,
      "hit": false,
      "t": 42545.41200000001,
      "d": 1090.908000000003,
      "v": 127
    },
    {
      "midi": 64,
      "hit": false,
      "t": 42545.41200000001,
      "d": 1090.908000000003,
      "v": 127
    },
    {
      "midi": 88,
      "hit": false,
      "t": 42545.41200000001,
      "d": 1090.908000000003,
      "v": 127
    },
    {
      "midi": 36,
      "hit": false,
      "t": 43090.866,
      "d": 545.4539999999979,
      "v": 127
    },
    {
      "midi": 77,
      "hit": false,
      "t": 43636.32,
      "d": 545.4539999999979,
      "v": 127
    },
    {
      "midi": 55,
      "hit": false,
      "t": 43636.320000000014,
      "d": 1090.908000000003,
      "v": 127
    },
    {
      "midi": 62,
      "hit": false,
      "t": 43636.320000000014,
      "d": 1090.908000000003,
      "v": 127
    },
    {
      "midi": 65,
      "hit": false,
      "t": 43636.320000000014,
      "d": 1090.908000000003,
      "v": 127
    },
    {
      "midi": 89,
      "hit": false,
      "t": 43636.320000000014,
      "d": 1090.908000000003,
      "v": 127
    },
    {
      "midi": 35,
      "hit": false,
      "t": 44181.774,
      "d": 545.4539999999979,
      "v": 127
    },
    {
      "midi": 76,
      "hit": false,
      "t": 44727.227999999996,
      "d": 545.4539999999979,
      "v": 127
    },
    {
      "midi": 55,
      "hit": false,
      "t": 44727.22800000002,
      "d": 1090.908000000003,
      "v": 127
    },
    {
      "midi": 60,
      "hit": false,
      "t": 44727.22800000002,
      "d": 1090.908000000003,
      "v": 127
    },
    {
      "midi": 64,
      "hit": false,
      "t": 44727.22800000002,
      "d": 1090.908000000003,
      "v": 127
    },
    {
      "midi": 88,
      "hit": false,
      "t": 44727.22800000002,
      "d": 1090.908000000003,
      "v": 127
    },
    {
      "midi": 48,
      "hit": false,
      "t": 45272.68199999999,
      "d": 545.4539999999979,
      "v": 127
    },
    {
      "midi": 74,
      "hit": false,
      "t": 45818.13599999999,
      "d": 545.4539999999979,
      "v": 127
    },
    {
      "midi": 55,
      "hit": false,
      "t": 45818.13600000002,
      "d": 1090.908000000003,
      "v": 127
    },
    {
      "midi": 59,
      "hit": false,
      "t": 45818.13600000002,
      "d": 1090.908000000003,
      "v": 127
    },
    {
      "midi": 62,
      "hit": false,
      "t": 45818.13600000002,
      "d": 1090.908000000003,
      "v": 127
    },
    {
      "midi": 86,
      "hit": false,
      "t": 45818.13600000002,
      "d": 1090.908000000003,
      "v": 127
    },
    {
      "midi": 41,
      "hit": false,
      "t": 46363.58999999999,
      "d": 545.4539999999979,
      "v": 127
    },
    {
      "midi": 72,
      "hit": false,
      "t": 46909.04399999999,
      "d": 545.4539999999979,
      "v": 127
    },
    {
      "midi": 55,
      "hit": false,
      "t": 46909.04400000002,
      "d": 1090.908000000003,
      "v": 127
    },
    {
      "midi": 60,
      "hit": false,
      "t": 46909.04400000002,
      "d": 1090.908000000003,
      "v": 127
    },
    {
      "midi": 84,
      "hit": false,
      "t": 46909.04400000002,
      "d": 1090.908000000003,
      "v": 127
    },
    {
      "midi": 52,
      "hit": false,
      "t": 47454.497999999985,
      "d": 545.4539999999979,
      "v": 127
    },
    {
      "midi": 74,
      "hit": false,
      "t": 47999.95199999998,
      "d": 545.4539999999979,
      "v": 127
    },
    {
      "midi": 59,
      "hit": false,
      "t": 47999.95200000003,
      "d": 1090.908000000003,
      "v": 127
    },
    {
      "midi": 62,
      "hit": false,
      "t": 47999.95200000003,
      "d": 1090.908000000003,
      "v": 127
    },
    {
      "midi": 86,
      "hit": false,
      "t": 47999.95200000003,
      "d": 1090.908000000003,
      "v": 127
    },
    {
      "midi": 55,
      "hit": false,
      "t": 48545.40599999998,
      "d": 545.4539999999979,
      "v": 127
    },
    {
      "midi": 76,
      "hit": false,
      "t": 49090.85999999998,
      "d": 545.4539999999979,
      "v": 127
    },
    {
      "midi": 60,
      "hit": false,
      "t": 49090.86000000003,
      "d": 1090.908000000003,
      "v": 127
    },
    {
      "midi": 64,
      "hit": false,
      "t": 49090.86000000003,
      "d": 1090.908000000003,
      "v": 127
    },
    {
      "midi": 88,
      "hit": false,
      "t": 49090.86000000003,
      "d": 1090.908000000003,
      "v": 127
    },
    {
      "midi": 48,
      "hit": false,
      "t": 49636.31399999998,
      "d": 545.4539999999979,
      "v": 127
    },
    {
      "midi": 74,
      "hit": false,
      "t": 50181.767999999975,
      "d": 545.4539999999979,
      "v": 127
    },
    {
      "midi": 59,
      "hit": false,
      "t": 50181.76800000003,
      "d": 2181.815999999999,
      "v": 127
    },
    {
      "midi": 62,
      "hit": false,
      "t": 50181.76800000003,
      "d": 2181.815999999999,
      "v": 127
    },
    {
      "midi": 86,
      "hit": false,
      "t": 50181.76800000003,
      "d": 2181.815999999999,
      "v": 127
    },
    {
      "midi": 38,
      "hit": false,
      "t": 50727.22199999997,
      "d": 545.4539999999979,
      "v": 127
    },
    {
      "midi": 35,
      "hit": false,
      "t": 51272.67599999997,
      "d": 545.4539999999979,
      "v": 127
    },
    {
      "midi": 31,
      "hit": false,
      "t": 51818.12999999997,
      "d": 545.4539999999979,
      "v": 127
    },
    {
      "midi": 76,
      "hit": false,
      "t": 52363.583999999966,
      "d": 545.4539999999979,
      "v": 127
    },
    {
      "midi": 55,
      "hit": false,
      "t": 52363.58400000003,
      "d": 1090.908000000003,
      "v": 127
    },
    {
      "midi": 60,
      "hit": false,
      "t": 52363.58400000003,
      "d": 1090.908000000003,
      "v": 127
    },
    {
      "midi": 64,
      "hit": false,
      "t": 52363.58400000003,
      "d": 1090.908000000003,
      "v": 127
    },
    {
      "midi": 88,
      "hit": false,
      "t": 52363.58400000003,
      "d": 1090.908000000003,
      "v": 127
    },
    {
      "midi": 48,
      "hit": false,
      "t": 52909.037999999964,
      "d": 545.4539999999979,
      "v": 127
    },
    {
      "midi": 77,
      "hit": false,
      "t": 53454.49199999996,
      "d": 545.4539999999979,
      "v": 127
    },
    {
      "midi": 55,
      "hit": false,
      "t": 53454.492000000035,
      "d": 1090.908000000003,
      "v": 127
    },
    {
      "midi": 59,
      "hit": false,
      "t": 53454.492000000035,
      "d": 1090.908000000003,
      "v": 127
    },
    {
      "midi": 65,
      "hit": false,
      "t": 53454.492000000035,
      "d": 1090.908000000003,
      "v": 127
    },
    {
      "midi": 89,
      "hit": false,
      "t": 53454.492000000035,
      "d": 1090.908000000003,
      "v": 127
    },
    {
      "midi": 38,
      "hit": false,
      "t": 53999.94599999996,
      "d": 545.4539999999979,
      "v": 127
    },
    {
      "midi": 79,
      "hit": false,
      "t": 54545.39999999996,
      "d": 545.4539999999979,
      "v": 127
    },
    {
      "midi": 58,
      "hit": false,
      "t": 54545.40000000004,
      "d": 1090.908000000003,
      "v": 127
    },
    {
      "midi": 60,
      "hit": false,
      "t": 54545.40000000004,
      "d": 1090.908000000003,
      "v": 127
    },
    {
      "midi": 67,
      "hit": false,
      "t": 54545.40000000004,
      "d": 1090.908000000003,
      "v": 127
    },
    {
      "midi": 91,
      "hit": false,
      "t": 54545.40000000004,
      "d": 1090.908000000003,
      "v": 127
    },
    {
      "midi": 52,
      "hit": false,
      "t": 55090.853999999956,
      "d": 545.4539999999979,
      "v": 127
    },
    {
      "midi": 72,
      "hit": false,
      "t": 55636.30799999995,
      "d": 545.4539999999979,
      "v": 127
    },
    {
      "midi": 58,
      "hit": false,
      "t": 55636.30800000004,
      "d": 1090.908000000003,
      "v": 127
    },
    {
      "midi": 60,
      "hit": false,
      "t": 55636.30800000004,
      "d": 1090.908000000003,
      "v": 127
    },
    {
      "midi": 64,
      "hit": false,
      "t": 55636.30800000004,
      "d": 1090.908000000003,
      "v": 127
    },
    {
      "midi": 84,
      "hit": false,
      "t": 55636.30800000004,
      "d": 1090.908000000003,
      "v": 127
    },
    {
      "midi": 43,
      "hit": false,
      "t": 56181.76199999995,
      "d": 545.4539999999979,
      "v": 127
    },
    {
      "midi": 77,
      "hit": false,
      "t": 56727.21599999995,
      "d": 545.4539999999979,
      "v": 127
    },
    {
      "midi": 60,
      "hit": false,
      "t": 56727.216000000044,
      "d": 1090.908000000003,
      "v": 127
    },
    {
      "midi": 65,
      "hit": false,
      "t": 56727.216000000044,
      "d": 1090.908000000003,
      "v": 127
    },
    {
      "midi": 89,
      "hit": false,
      "t": 56727.216000000044,
      "d": 1090.908000000003,
      "v": 127
    },
    {
      "midi": 57,
      "hit": false,
      "t": 57272.66999999995,
      "d": 545.4539999999979,
      "v": 127
    },
    {
      "midi": 74,
      "hit": false,
      "t": 57818.123999999945,
      "d": 545.4539999999979,
      "v": 127
    },
    {
      "midi": 57,
      "hit": false,
      "t": 57818.12400000005,
      "d": 1090.908000000003,
      "v": 127
    },
    {
      "midi": 62,
      "hit": false,
      "t": 57818.12400000005,
      "d": 1090.908000000003,
      "v": 127
    },
    {
      "midi": 86,
      "hit": false,
      "t": 57818.12400000005,
      "d": 1090.908000000003,
      "v": 127
    },
    {
      "midi": 41,
      "hit": false,
      "t": 58363.57799999994,
      "d": 545.4539999999979,
      "v": 127
    },
    {
      "midi": 76,
      "hit": false,
      "t": 58909.03199999994,
      "d": 545.4539999999979,
      "v": 127
    },
    {
      "midi": 56,
      "hit": false,
      "t": 58909.03200000005,
      "d": 1090.908000000003,
      "v": 127
    },
    {
      "midi": 59,
      "hit": false,
      "t": 58909.03200000005,
      "d": 1090.908000000003,
      "v": 127
    },
    {
      "midi": 64,
      "hit": false,
      "t": 58909.03200000005,
      "d": 1090.908000000003,
      "v": 127
    },
    {
      "midi": 88,
      "hit": false,
      "t": 58909.03200000005,
      "d": 1090.908000000003,
      "v": 127
    },
    {
      "midi": 52,
      "hit": false,
      "t": 59454.48599999994,
      "d": 545.4539999999979,
      "v": 127
    },
    {
      "midi": 72,
      "hit": false,
      "t": 59999.93999999994,
      "d": 545.4539999999979,
      "v": 127
    },
    {
      "midi": 57,
      "hit": false,
      "t": 59999.94000000005,
      "d": 1090.908000000003,
      "v": 127
    },
    {
      "midi": 60,
      "hit": false,
      "t": 59999.94000000005,
      "d": 1090.908000000003,
      "v": 127
    },
    {
      "midi": 64,
      "hit": false,
      "t": 59999.94000000005,
      "d": 1090.908000000003,
      "v": 127
    },
    {
      "midi": 84,
      "hit": false,
      "t": 59999.94000000005,
      "d": 1090.908000000003,
      "v": 127
    },
    {
      "midi": 33,
      "hit": false,
      "t": 60545.393999999935,
      "d": 545.4539999999979,
      "v": 127
    },
    {
      "midi": 74,
      "hit": false,
      "t": 61090.84799999993,
      "d": 545.4539999999979,
      "v": 127
    },
    {
      "midi": 57,
      "hit": false,
      "t": 61090.848000000056,
      "d": 1090.908000000003,
      "v": 127
    },
    {
      "midi": 62,
      "hit": false,
      "t": 61090.848000000056,
      "d": 1090.908000000003,
      "v": 127
    },
    {
      "midi": 86,
      "hit": false,
      "t": 61090.848000000056,
      "d": 1090.908000000003,
      "v": 127
    },
    {
      "midi": 53,
      "hit": false,
      "t": 61636.30199999993,
      "d": 545.4539999999979,
      "v": 127
    },
    {
      "midi": 76,
      "hit": false,
      "t": 62181.75599999993,
      "d": 545.4539999999979,
      "v": 127
    },
    {
      "midi": 55,
      "hit": false,
      "t": 62181.75600000006,
      "d": 1090.908000000003,
      "v": 127
    },
    {
      "midi": 57,
      "hit": false,
      "t": 62181.75600000006,
      "d": 1090.908000000003,
      "v": 127
    },
    {
      "midi": 61,
      "hit": false,
      "t": 62181.75600000006,
      "d": 1090.908000000003,
      "v": 127
    },
    {
      "midi": 88,
      "hit": false,
      "t": 62181.75600000006,
      "d": 1090.908000000003,
      "v": 127
    },
    {
      "midi": 40,
      "hit": false,
      "t": 62727.20999999993,
      "d": 545.4539999999979,
      "v": 127
    },
    {
      "midi": 77,
      "hit": false,
      "t": 63272.663999999924,
      "d": 545.4539999999979,
      "v": 127
    },
    {
      "midi": 53,
      "hit": false,
      "t": 63272.66400000006,
      "d": 1090.908000000003,
      "v": 127
    },
    {
      "midi": 57,
      "hit": false,
      "t": 63272.66400000006,
      "d": 1090.908000000003,
      "v": 127
    },
    {
      "midi": 62,
      "hit": false,
      "t": 63272.66400000006,
      "d": 1090.908000000003,
      "v": 127
    },
    {
      "midi": 89,
      "hit": false,
      "t": 63272.66400000006,
      "d": 1090.908000000003,
      "v": 127
    },
    {
      "midi": 50,
      "hit": false,
      "t": 63818.11799999992,
      "d": 545.4539999999979,
      "v": 127
    },
    {
      "midi": 74,
      "hit": false,
      "t": 64363.57199999992,
      "d": 545.4539999999979,
      "v": 127
    },
    {
      "midi": 57,
      "hit": false,
      "t": 64363.572000000066,
      "d": 1090.908000000003,
      "v": 127
    },
    {
      "midi": 62,
      "hit": false,
      "t": 64363.572000000066,
      "d": 1090.908000000003,
      "v": 127
    },
    {
      "midi": 65,
      "hit": false,
      "t": 64363.572000000066,
      "d": 1090.908000000003,
      "v": 127
    },
    {
      "midi": 86,
      "hit": false,
      "t": 64363.572000000066,
      "d": 1090.908000000003,
      "v": 127
    },
    {
      "midi": 29,
      "hit": false,
      "t": 64909.02599999992,
      "d": 545.4539999999979,
      "v": 127
    },
    {
      "midi": 76,
      "hit": false,
      "t": 65454.479999999916,
      "d": 545.4540000000052,
      "v": 127
    },
    {
      "midi": 55,
      "hit": false,
      "t": 65454.48000000007,
      "d": 1090.9079999999958,
      "v": 127
    },
    {
      "midi": 60,
      "hit": false,
      "t": 65454.48000000007,
      "d": 1090.9079999999958,
      "v": 127
    },
    {
      "midi": 64,
      "hit": false,
      "t": 65454.48000000007,
      "d": 1090.9079999999958,
      "v": 127
    },
    {
      "midi": 88,
      "hit": false,
      "t": 65454.48000000007,
      "d": 1090.9079999999958,
      "v": 127
    },
    {
      "midi": 43,
      "hit": false,
      "t": 65999.93399999992,
      "d": 545.4539999999979,
      "v": 127
    },
    {
      "midi": 74,
      "hit": false,
      "t": 66545.38799999992,
      "d": 545.4539999999979,
      "v": 127
    },
    {
      "midi": 55,
      "hit": false,
      "t": 66545.38800000006,
      "d": 1090.9079999999958,
      "v": 127
    },
    {
      "midi": 59,
      "hit": false,
      "t": 66545.38800000006,
      "d": 1090.9079999999958,
      "v": 127
    },
    {
      "midi": 65,
      "hit": false,
      "t": 66545.38800000006,
      "d": 1090.9079999999958,
      "v": 127
    },
    {
      "midi": 86,
      "hit": false,
      "t": 66545.38800000006,
      "d": 1090.9079999999958,
      "v": 127
    },
    {
      "midi": 31,
      "hit": false,
      "t": 67090.84199999992,
      "d": 545.4539999999979,
      "v": 127
    },
    {
      "midi": 72,
      "hit": false,
      "t": 67636.29599999991,
      "d": 545.4539999999979,
      "v": 127
    },
    {
      "midi": 55,
      "hit": false,
      "t": 67636.29600000006,
      "d": 2181.816000000006,
      "v": 127
    },
    {
      "midi": 60,
      "hit": false,
      "t": 67636.29600000006,
      "d": 2181.816000000006,
      "v": 127
    },
    {
      "midi": 64,
      "hit": false,
      "t": 67636.29600000006,
      "d": 2181.816000000006,
      "v": 127
    },
    {
      "midi": 84,
      "hit": false,
      "t": 67636.29600000006,
      "d": 2181.816000000006,
      "v": 127
    },
    {
      "midi": 43,
      "hit": false,
      "t": 68181.74999999991,
      "d": 545.4539999999979,
      "v": 127
    },
    {
      "midi": 40,
      "hit": false,
      "t": 68727.20399999991,
      "d": 545.4539999999979,
      "v": 127
    },
    {
      "midi": 36,
      "hit": false,
      "t": 69272.65799999991,
      "d": 545.4539999999979,
      "v": 127
    },
    {
      "midi": 74,
      "hit": false,
      "t": 69818.1119999999,
      "d": 545.4539999999979,
      "v": 127
    },
    {
      "midi": 55,
      "hit": false,
      "t": 69818.11200000007,
      "d": 1090.9079999999958,
      "v": 127
    },
    {
      "midi": 59,
      "hit": false,
      "t": 69818.11200000007,
      "d": 1090.9079999999958,
      "v": 127
    },
    {
      "midi": 62,
      "hit": false,
      "t": 69818.11200000007,
      "d": 1090.9079999999958,
      "v": 127
    },
    {
      "midi": 86,
      "hit": false,
      "t": 69818.11200000007,
      "d": 1090.9079999999958,
      "v": 127
    },
    {
      "midi": 43,
      "hit": false,
      "t": 70363.5659999999,
      "d": 545.4539999999979,
      "v": 127
    },
    {
      "midi": 76,
      "hit": false,
      "t": 70909.0199999999,
      "d": 545.4539999999979,
      "v": 127
    },
    {
      "midi": 55,
      "hit": false,
      "t": 70909.02000000006,
      "d": 1090.9079999999958,
      "v": 127
    },
    {
      "midi": 60,
      "hit": false,
      "t": 70909.02000000006,
      "d": 1090.9079999999958,
      "v": 127
    },
    {
      "midi": 64,
      "hit": false,
      "t": 70909.02000000006,
      "d": 1090.9079999999958,
      "v": 127
    },
    {
      "midi": 88,
      "hit": false,
      "t": 70909.02000000006,
      "d": 1090.9079999999958,
      "v": 127
    },
    {
      "midi": 43,
      "hit": false,
      "t": 71454.4739999999,
      "d": 545.4539999999979,
      "v": 127
    },
    {
      "midi": 77,
      "hit": false,
      "t": 71999.9279999999,
      "d": 545.4539999999979,
      "v": 127
    },
    {
      "midi": 55,
      "hit": false,
      "t": 71999.92800000006,
      "d": 1090.9079999999958,
      "v": 127
    },
    {
      "midi": 62,
      "hit": false,
      "t": 71999.92800000006,
      "d": 1090.9079999999958,
      "v": 127
    },
    {
      "midi": 65,
      "hit": false,
      "t": 71999.92800000006,
      "d": 1090.9079999999958,
      "v": 127
    },
    {
      "midi": 89,
      "hit": false,
      "t": 71999.92800000006,
      "d": 1090.9079999999958,
      "v": 127
    },
    {
      "midi": 50,
      "hit": false,
      "t": 72545.3819999999,
      "d": 545.4539999999979,
      "v": 127
    },
    {
      "midi": 74,
      "hit": false,
      "t": 73090.8359999999,
      "d": 545.4539999999979,
      "v": 127
    },
    {
      "midi": 55,
      "hit": false,
      "t": 73090.83600000005,
      "d": 1090.9079999999958,
      "v": 127
    },
    {
      "midi": 59,
      "hit": false,
      "t": 73090.83600000005,
      "d": 1090.9079999999958,
      "v": 127
    },
    {
      "midi": 86,
      "hit": false,
      "t": 73090.83600000005,
      "d": 1090.9079999999958,
      "v": 127
    },
    {
      "midi": 55,
      "hit": false,
      "t": 73636.28999999989,
      "d": 545.4539999999979,
      "v": 127
    },
    {
      "midi": 76,
      "hit": false,
      "t": 74181.74399999989,
      "d": 545.4539999999979,
      "v": 127
    },
    {
      "midi": 55,
      "hit": false,
      "t": 74181.74400000005,
      "d": 1090.9079999999958,
      "v": 127
    },
    {
      "midi": 60,
      "hit": false,
      "t": 74181.74400000005,
      "d": 1090.9079999999958,
      "v": 127
    },
    {
      "midi": 64,
      "hit": false,
      "t": 74181.74400000005,
      "d": 1090.9079999999958,
      "v": 127
    },
    {
      "midi": 88,
      "hit": false,
      "t": 74181.74400000005,
      "d": 1090.9079999999958,
      "v": 127
    },
    {
      "midi": 48,
      "hit": false,
      "t": 74727.19799999989,
      "d": 545.4539999999979,
      "v": 127
    },
    {
      "midi": 77,
      "hit": false,
      "t": 75272.65199999989,
      "d": 545.4539999999979,
      "v": 127
    },
    {
      "midi": 55,
      "hit": false,
      "t": 75272.65200000005,
      "d": 1090.9079999999958,
      "v": 127
    },
    {
      "midi": 59,
      "hit": false,
      "t": 75272.65200000005,
      "d": 1090.9079999999958,
      "v": 127
    },
    {
      "midi": 65,
      "hit": false,
      "t": 75272.65200000005,
      "d": 1090.9079999999958,
      "v": 127
    },
    {
      "midi": 89,
      "hit": false,
      "t": 75272.65200000005,
      "d": 1090.9079999999958,
      "v": 127
    },
    {
      "midi": 38,
      "hit": false,
      "t": 75818.10599999988,
      "d": 545.4539999999979,
      "v": 127
    },
    {
      "midi": 79,
      "hit": false,
      "t": 76363.55999999988,
      "d": 545.4539999999979,
      "v": 127
    },
    {
      "midi": 55,
      "hit": false,
      "t": 76363.56000000004,
      "d": 1090.9079999999958,
      "v": 127
    },
    {
      "midi": 60,
      "hit": false,
      "t": 76363.56000000004,
      "d": 1090.9079999999958,
      "v": 127
    },
    {
      "midi": 67,
      "hit": false,
      "t": 76363.56000000004,
      "d": 1090.9079999999958,
      "v": 127
    },
    {
      "midi": 91,
      "hit": false,
      "t": 76363.56000000004,
      "d": 1090.9079999999958,
      "v": 127
    },
    {
      "midi": 52,
      "hit": false,
      "t": 76909.01399999988,
      "d": 545.4539999999979,
      "v": 127
    },
    {
      "midi": 76,
      "hit": false,
      "t": 77454.46799999988,
      "d": 545.4539999999979,
      "v": 127
    },
    {
      "midi": 55,
      "hit": false,
      "t": 77454.46800000004,
      "d": 1090.9079999999958,
      "v": 127
    },
    {
      "midi": 60,
      "hit": false,
      "t": 77454.46800000004,
      "d": 1090.9079999999958,
      "v": 127
    },
    {
      "midi": 64,
      "hit": false,
      "t": 77454.46800000004,
      "d": 1090.9079999999958,
      "v": 127
    },
    {
      "midi": 88,
      "hit": false,
      "t": 77454.46800000004,
      "d": 1090.9079999999958,
      "v": 127
    },
    {
      "midi": 36,
      "hit": false,
      "t": 77999.92199999987,
      "d": 545.4539999999979,
      "v": 127
    },
    {
      "midi": 77,
      "hit": false,
      "t": 78545.37599999987,
      "d": 545.4539999999979,
      "v": 127
    },
    {
      "midi": 55,
      "hit": false,
      "t": 78545.37600000003,
      "d": 1090.9079999999958,
      "v": 127
    },
    {
      "midi": 62,
      "hit": false,
      "t": 78545.37600000003,
      "d": 1090.9079999999958,
      "v": 127
    },
    {
      "midi": 65,
      "hit": false,
      "t": 78545.37600000003,
      "d": 1090.9079999999958,
      "v": 127
    },
    {
      "midi": 89,
      "hit": false,
      "t": 78545.37600000003,
      "d": 1090.9079999999958,
      "v": 127
    },
    {
      "midi": 35,
      "hit": false,
      "t": 79090.82999999987,
      "d": 545.4539999999979,
      "v": 127
    },
    {
      "midi": 76,
      "hit": false,
      "t": 79636.28399999987,
      "d": 545.4539999999979,
      "v": 127
    },
    {
      "midi": 55,
      "hit": false,
      "t": 79636.28400000003,
      "d": 1090.9079999999958,
      "v": 127
    },
    {
      "midi": 60,
      "hit": false,
      "t": 79636.28400000003,
      "d": 1090.9079999999958,
      "v": 127
    },
    {
      "midi": 64,
      "hit": false,
      "t": 79636.28400000003,
      "d": 1090.9079999999958,
      "v": 127
    },
    {
      "midi": 88,
      "hit": false,
      "t": 79636.28400000003,
      "d": 1090.9079999999958,
      "v": 127
    },
    {
      "midi": 48,
      "hit": false,
      "t": 80181.73799999987,
      "d": 545.4539999999979,
      "v": 127
    },
    {
      "midi": 74,
      "hit": false,
      "t": 80727.19199999986,
      "d": 545.4539999999979,
      "v": 127
    },
    {
      "midi": 55,
      "hit": false,
      "t": 80727.19200000002,
      "d": 1090.9079999999958,
      "v": 127
    },
    {
      "midi": 59,
      "hit": false,
      "t": 80727.19200000002,
      "d": 1090.9079999999958,
      "v": 127
    },
    {
      "midi": 62,
      "hit": false,
      "t": 80727.19200000002,
      "d": 1090.9079999999958,
      "v": 127
    },
    {
      "midi": 86,
      "hit": false,
      "t": 80727.19200000002,
      "d": 1090.9079999999958,
      "v": 127
    },
    {
      "midi": 41,
      "hit": false,
      "t": 81272.64599999986,
      "d": 545.4539999999979,
      "v": 127
    },
    {
      "midi": 72,
      "hit": false,
      "t": 81818.09999999986,
      "d": 545.4539999999979,
      "v": 127
    },
    {
      "midi": 55,
      "hit": false,
      "t": 81818.10000000002,
      "d": 1090.9079999999958,
      "v": 127
    },
    {
      "midi": 60,
      "hit": false,
      "t": 81818.10000000002,
      "d": 1090.9079999999958,
      "v": 127
    },
    {
      "midi": 84,
      "hit": false,
      "t": 81818.10000000002,
      "d": 1090.9079999999958,
      "v": 127
    },
    {
      "midi": 52,
      "hit": false,
      "t": 82363.55399999986,
      "d": 545.4539999999979,
      "v": 127
    },
    {
      "midi": 74,
      "hit": false,
      "t": 82909.00799999986,
      "d": 545.4539999999979,
      "v": 127
    },
    {
      "midi": 59,
      "hit": false,
      "t": 82909.00800000002,
      "d": 1090.9079999999958,
      "v": 127
    },
    {
      "midi": 62,
      "hit": false,
      "t": 82909.00800000002,
      "d": 1090.9079999999958,
      "v": 127
    },
    {
      "midi": 86,
      "hit": false,
      "t": 82909.00800000002,
      "d": 1090.9079999999958,
      "v": 127
    },
    {
      "midi": 55,
      "hit": false,
      "t": 83454.46199999985,
      "d": 545.4539999999979,
      "v": 127
    },
    {
      "midi": 76,
      "hit": false,
      "t": 83999.91599999985,
      "d": 545.4539999999979,
      "v": 127
    },
    {
      "midi": 60,
      "hit": false,
      "t": 83999.91600000001,
      "d": 1090.9079999999958,
      "v": 127
    },
    {
      "midi": 64,
      "hit": false,
      "t": 83999.91600000001,
      "d": 1090.9079999999958,
      "v": 127
    },
    {
      "midi": 88,
      "hit": false,
      "t": 83999.91600000001,
      "d": 1090.9079999999958,
      "v": 127
    },
    {
      "midi": 48,
      "hit": false,
      "t": 84545.36999999985,
      "d": 545.4539999999979,
      "v": 127
    },
    {
      "midi": 74,
      "hit": false,
      "t": 85090.82399999985,
      "d": 545.4539999999979,
      "v": 127
    },
    {
      "midi": 59,
      "hit": false,
      "t": 85090.82400000001,
      "d": 2181.816000000006,
      "v": 127
    },
    {
      "midi": 62,
      "hit": false,
      "t": 85090.82400000001,
      "d": 2181.816000000006,
      "v": 127
    },
    {
      "midi": 86,
      "hit": false,
      "t": 85090.82400000001,
      "d": 2181.816000000006,
      "v": 127
    },
    {
      "midi": 38,
      "hit": false,
      "t": 85636.27799999985,
      "d": 545.4539999999979,
      "v": 127
    },
    {
      "midi": 35,
      "hit": false,
      "t": 86181.73199999984,
      "d": 545.4539999999979,
      "v": 127
    },
    {
      "midi": 31,
      "hit": false,
      "t": 86727.18599999984,
      "d": 545.4539999999979,
      "v": 127
    },
    {
      "midi": 76,
      "hit": false,
      "t": 87272.63999999984,
      "d": 545.4539999999979,
      "v": 127
    },
    {
      "midi": 55,
      "hit": false,
      "t": 87272.64000000001,
      "d": 1090.9079999999958,
      "v": 127
    },
    {
      "midi": 60,
      "hit": false,
      "t": 87272.64000000001,
      "d": 1090.9079999999958,
      "v": 127
    },
    {
      "midi": 64,
      "hit": false,
      "t": 87272.64000000001,
      "d": 1090.9079999999958,
      "v": 127
    },
    {
      "midi": 88,
      "hit": false,
      "t": 87272.64000000001,
      "d": 1090.9079999999958,
      "v": 127
    },
    {
      "midi": 48,
      "hit": false,
      "t": 87818.09399999984,
      "d": 545.4539999999979,
      "v": 127
    },
    {
      "midi": 77,
      "hit": false,
      "t": 88363.54799999984,
      "d": 545.4539999999979,
      "v": 127
    },
    {
      "midi": 55,
      "hit": false,
      "t": 88363.54800000001,
      "d": 1090.9079999999958,
      "v": 127
    },
    {
      "midi": 59,
      "hit": false,
      "t": 88363.54800000001,
      "d": 1090.9079999999958,
      "v": 127
    },
    {
      "midi": 65,
      "hit": false,
      "t": 88363.54800000001,
      "d": 1090.9079999999958,
      "v": 127
    },
    {
      "midi": 89,
      "hit": false,
      "t": 88363.54800000001,
      "d": 1090.9079999999958,
      "v": 127
    },
    {
      "midi": 38,
      "hit": false,
      "t": 88909.00199999983,
      "d": 545.4539999999979,
      "v": 127
    },
    {
      "midi": 79,
      "hit": false,
      "t": 89454.45599999983,
      "d": 545.4539999999979,
      "v": 127
    },
    {
      "midi": 58,
      "hit": false,
      "t": 89454.456,
      "d": 1090.9079999999958,
      "v": 127
    },
    {
      "midi": 60,
      "hit": false,
      "t": 89454.456,
      "d": 1090.9079999999958,
      "v": 127
    },
    {
      "midi": 67,
      "hit": false,
      "t": 89454.456,
      "d": 1090.9079999999958,
      "v": 127
    },
    {
      "midi": 91,
      "hit": false,
      "t": 89454.456,
      "d": 1090.9079999999958,
      "v": 127
    },
    {
      "midi": 52,
      "hit": false,
      "t": 89999.90999999983,
      "d": 545.4539999999979,
      "v": 127
    },
    {
      "midi": 72,
      "hit": false,
      "t": 90545.36399999983,
      "d": 545.4539999999979,
      "v": 127
    },
    {
      "midi": 58,
      "hit": false,
      "t": 90545.364,
      "d": 1090.9079999999958,
      "v": 127
    },
    {
      "midi": 60,
      "hit": false,
      "t": 90545.364,
      "d": 1090.9079999999958,
      "v": 127
    },
    {
      "midi": 64,
      "hit": false,
      "t": 90545.364,
      "d": 1090.9079999999958,
      "v": 127
    },
    {
      "midi": 84,
      "hit": false,
      "t": 90545.364,
      "d": 1090.9079999999958,
      "v": 127
    },
    {
      "midi": 43,
      "hit": false,
      "t": 91090.81799999982,
      "d": 545.4539999999979,
      "v": 127
    },
    {
      "midi": 77,
      "hit": false,
      "t": 91636.27199999982,
      "d": 545.4539999999979,
      "v": 127
    },
    {
      "midi": 60,
      "hit": false,
      "t": 91636.272,
      "d": 1090.9079999999958,
      "v": 127
    },
    {
      "midi": 65,
      "hit": false,
      "t": 91636.272,
      "d": 1090.9079999999958,
      "v": 127
    },
    {
      "midi": 89,
      "hit": false,
      "t": 91636.272,
      "d": 1090.9079999999958,
      "v": 127
    },
    {
      "midi": 57,
      "hit": false,
      "t": 92181.72599999982,
      "d": 545.4539999999979,
      "v": 127
    },
    {
      "midi": 74,
      "hit": false,
      "t": 92727.17999999982,
      "d": 545.4539999999979,
      "v": 127
    },
    {
      "midi": 57,
      "hit": false,
      "t": 92727.18,
      "d": 1090.9079999999958,
      "v": 127
    },
    {
      "midi": 62,
      "hit": false,
      "t": 92727.18,
      "d": 1090.9079999999958,
      "v": 127
    },
    {
      "midi": 86,
      "hit": false,
      "t": 92727.18,
      "d": 1090.9079999999958,
      "v": 127
    },
    {
      "midi": 41,
      "hit": false,
      "t": 93272.63399999982,
      "d": 545.4539999999979,
      "v": 127
    },
    {
      "midi": 76,
      "hit": false,
      "t": 93818.08799999981,
      "d": 545.4539999999979,
      "v": 127
    },
    {
      "midi": 56,
      "hit": false,
      "t": 93818.08799999999,
      "d": 1090.9079999999958,
      "v": 127
    },
    {
      "midi": 59,
      "hit": false,
      "t": 93818.08799999999,
      "d": 1090.9079999999958,
      "v": 127
    },
    {
      "midi": 64,
      "hit": false,
      "t": 93818.08799999999,
      "d": 1090.9079999999958,
      "v": 127
    },
    {
      "midi": 88,
      "hit": false,
      "t": 93818.08799999999,
      "d": 1090.9079999999958,
      "v": 127
    },
    {
      "midi": 52,
      "hit": false,
      "t": 94363.54199999981,
      "d": 545.4539999999979,
      "v": 127
    },
    {
      "midi": 72,
      "hit": false,
      "t": 94908.99599999981,
      "d": 545.4539999999979,
      "v": 127
    },
    {
      "midi": 57,
      "hit": false,
      "t": 94908.99599999998,
      "d": 1090.9079999999958,
      "v": 127
    },
    {
      "midi": 60,
      "hit": false,
      "t": 94908.99599999998,
      "d": 1090.9079999999958,
      "v": 127
    },
    {
      "midi": 64,
      "hit": false,
      "t": 94908.99599999998,
      "d": 1090.9079999999958,
      "v": 127
    },
    {
      "midi": 84,
      "hit": false,
      "t": 94908.99599999998,
      "d": 1090.9079999999958,
      "v": 127
    },
    {
      "midi": 33,
      "hit": false,
      "t": 95454.44999999981,
      "d": 545.4539999999979,
      "v": 127
    },
    {
      "midi": 74,
      "hit": false,
      "t": 95999.9039999998,
      "d": 545.4539999999979,
      "v": 127
    },
    {
      "midi": 57,
      "hit": false,
      "t": 95999.90399999998,
      "d": 1090.9079999999958,
      "v": 127
    },
    {
      "midi": 62,
      "hit": false,
      "t": 95999.90399999998,
      "d": 1090.9079999999958,
      "v": 127
    },
    {
      "midi": 86,
      "hit": false,
      "t": 95999.90399999998,
      "d": 1090.9079999999958,
      "v": 127
    },
    {
      "midi": 53,
      "hit": false,
      "t": 96545.3579999998,
      "d": 545.4539999999979,
      "v": 127
    },
    {
      "midi": 76,
      "hit": false,
      "t": 97090.8119999998,
      "d": 545.4539999999979,
      "v": 127
    },
    {
      "midi": 55,
      "hit": false,
      "t": 97090.81199999998,
      "d": 1090.9079999999958,
      "v": 127
    },
    {
      "midi": 57,
      "hit": false,
      "t": 97090.81199999998,
      "d": 1090.9079999999958,
      "v": 127
    },
    {
      "midi": 61,
      "hit": false,
      "t": 97090.81199999998,
      "d": 1090.9079999999958,
      "v": 127
    },
    {
      "midi": 88,
      "hit": false,
      "t": 97090.81199999998,
      "d": 1090.9079999999958,
      "v": 127
    },
    {
      "midi": 40,
      "hit": false,
      "t": 97636.2659999998,
      "d": 545.4539999999979,
      "v": 127
    },
    {
      "midi": 77,
      "hit": false,
      "t": 98181.7199999998,
      "d": 545.4539999999979,
      "v": 127
    },
    {
      "midi": 53,
      "hit": false,
      "t": 98181.71999999997,
      "d": 1090.9079999999958,
      "v": 127
    },
    {
      "midi": 57,
      "hit": false,
      "t": 98181.71999999997,
      "d": 1090.9079999999958,
      "v": 127
    },
    {
      "midi": 62,
      "hit": false,
      "t": 98181.71999999997,
      "d": 1090.9079999999958,
      "v": 127
    },
    {
      "midi": 89,
      "hit": false,
      "t": 98181.71999999997,
      "d": 1090.9079999999958,
      "v": 127
    },
    {
      "midi": 50,
      "hit": false,
      "t": 98727.1739999998,
      "d": 545.4539999999979,
      "v": 127
    },
    {
      "midi": 74,
      "hit": false,
      "t": 99272.6279999998,
      "d": 545.4539999999979,
      "v": 127
    },
    {
      "midi": 57,
      "hit": false,
      "t": 99272.62799999997,
      "d": 1090.9079999999958,
      "v": 127
    },
    {
      "midi": 62,
      "hit": false,
      "t": 99272.62799999997,
      "d": 1090.9079999999958,
      "v": 127
    },
    {
      "midi": 65,
      "hit": false,
      "t": 99272.62799999997,
      "d": 1090.9079999999958,
      "v": 127
    },
    {
      "midi": 86,
      "hit": false,
      "t": 99272.62799999997,
      "d": 1090.9079999999958,
      "v": 127
    },
    {
      "midi": 29,
      "hit": false,
      "t": 99818.08199999979,
      "d": 545.4539999999979,
      "v": 127
    },
    {
      "midi": 76,
      "hit": false,
      "t": 100363.53599999979,
      "d": 545.4539999999979,
      "v": 127
    },
    {
      "midi": 55,
      "hit": false,
      "t": 100363.53599999996,
      "d": 1090.9079999999958,
      "v": 127
    },
    {
      "midi": 60,
      "hit": false,
      "t": 100363.53599999996,
      "d": 1090.9079999999958,
      "v": 127
    },
    {
      "midi": 64,
      "hit": false,
      "t": 100363.53599999996,
      "d": 1090.9079999999958,
      "v": 127
    },
    {
      "midi": 88,
      "hit": false,
      "t": 100363.53599999996,
      "d": 1090.9079999999958,
      "v": 127
    },
    {
      "midi": 43,
      "hit": false,
      "t": 100908.98999999979,
      "d": 545.4539999999979,
      "v": 127
    },
    {
      "midi": 74,
      "hit": false,
      "t": 101454.44399999978,
      "d": 545.4539999999979,
      "v": 127
    },
    {
      "midi": 55,
      "hit": false,
      "t": 101454.44399999996,
      "d": 1090.9079999999958,
      "v": 127
    },
    {
      "midi": 59,
      "hit": false,
      "t": 101454.44399999996,
      "d": 1090.9079999999958,
      "v": 127
    },
    {
      "midi": 65,
      "hit": false,
      "t": 101454.44399999996,
      "d": 1090.9079999999958,
      "v": 127
    },
    {
      "midi": 86,
      "hit": false,
      "t": 101454.44399999996,
      "d": 1090.9079999999958,
      "v": 127
    },
    {
      "midi": 31,
      "hit": false,
      "t": 101999.89799999978,
      "d": 545.4539999999979,
      "v": 127
    },
    {
      "midi": 36,
      "hit": false,
      "t": 102545.35199999978,
      "d": 2181.816000000006,
      "v": 127
    },
    {
      "midi": 48,
      "hit": false,
      "t": 102545.35199999978,
      "d": 2181.816000000006,
      "v": 127
    },
    {
      "midi": 72,
      "hit": false,
      "t": 102545.35199999978,
      "d": 2181.816000000006,
      "v": 127
    },
    {
      "midi": 55,
      "hit": false,
      "t": 102545.35199999996,
      "d": 2181.816000000006,
      "v": 127
    },
    {
      "midi": 60,
      "hit": false,
      "t": 102545.35199999996,
      "d": 2181.816000000006,
      "v": 127
    },
    {
      "midi": 64,
      "hit": false,
      "t": 102545.35199999996,
      "d": 2181.816000000006,
      "v": 127
    },
    {
      "midi": 84,
      "hit": false,
      "t": 102545.35199999996,
      "d": 2181.816000000006,
      "v": 127
    }
  ]
}