{
  "jsonPath": "Unknown/Unknown/Tic Tac Toe/verpiss-dich.json",
  "path": "Unknown\\Unknown\\Tic Tac Toe\\Verpiss dich.mid",
  "name": "Verpiss dich",
  "difficulty": "Advanced",
  "bpm": 82.10000875733427,
  "notes": [
    {
      "midi": 57,
      "hit": false,
      "t": 17539.584000000003,
      "d": 1546.8938666666654,
      "v": 107
    },
    {
      "midi": 76,
      "hit": false,
      "t": 17904.992000000002,
      "d": 380.6333333333314,
      "v": 114
    },
    {
      "midi": 64,
      "hit": false,
      "t": 17904.992000000002,
      "d": 426.30933333333087,
      "v": 100
    },
    {
      "midi": 69,
      "hit": false,
      "t": 18270.4,
      "d": 376.0657333333329,
      "v": 103
    },
    {
      "midi": 81,
      "hit": false,
      "t": 18270.4,
      "d": 379.11079999999856,
      "v": 113
    },
    {
      "midi": 71,
      "hit": false,
      "t": 18635.808,
      "d": 388.2459999999992,
      "v": 101
    },
    {
      "midi": 83,
      "hit": false,
      "t": 18635.808,
      "d": 388.2459999999992,
      "v": 113
    },
    {
      "midi": 48,
      "hit": false,
      "t": 19001.216,
      "d": 411.0839999999989,
      "v": 108
    },
    {
      "midi": 72,
      "hit": false,
      "t": 19001.216,
      "d": 414.1290666666646,
      "v": 100
    },
    {
      "midi": 84,
      "hit": false,
      "t": 19001.216,
      "d": 449.1473333333306,
      "v": 113
    },
    {
      "midi": 71,
      "hit": false,
      "t": 19366.624,
      "d": 388.2459999999992,
      "v": 101
    },
    {
      "midi": 55,
      "hit": false,
      "t": 19366.624,
      "d": 414.1290666666646,
      "v": 107
    },
    {
      "midi": 83,
      "hit": false,
      "t": 19366.624,
      "d": 440.01213333333,
      "v": 113
    },
    {
      "midi": 81,
      "hit": false,
      "t": 19732.032,
      "d": 354.75026666666236,
      "v": 113
    },
    {
      "midi": 69,
      "hit": false,
      "t": 19732.032,
      "d": 359.31786666666085,
      "v": 100
    },
    {
      "midi": 60,
      "hit": false,
      "t": 19732.032,
      "d": 609.0133333333288,
      "v": 109
    },
    {
      "midi": 64,
      "hit": false,
      "t": 20097.439999999995,
      "d": 1103.8366666666698,
      "v": 106
    },
    {
      "midi": 76,
      "hit": false,
      "t": 20097.439999999995,
      "d": 1119.0620000000017,
      "v": 112
    },
    {
      "midi": 53,
      "hit": false,
      "t": 20462.847999999994,
      "d": 503.95853333333434,
      "v": 101
    },
    {
      "midi": 60,
      "hit": false,
      "t": 20828.255999999994,
      "d": 404.99386666667124,
      "v": 100
    },
    {
      "midi": 77,
      "hit": false,
      "t": 21193.663999999997,
      "d": 362.3629333333338,
      "v": 113
    },
    {
      "midi": 65,
      "hit": false,
      "t": 21193.663999999997,
      "d": 379.11079999999856,
      "v": 104
    },
    {
      "midi": 74,
      "hit": false,
      "t": 21559.071999999996,
      "d": 1572.7769333333308,
      "v": 113
    },
    {
      "midi": 50,
      "hit": false,
      "t": 21924.479999999996,
      "d": 403.47133333333113,
      "v": 108
    },
    {
      "midi": 57,
      "hit": false,
      "t": 22289.887999999995,
      "d": 433.92199999999866,
      "v": 101
    },
    {
      "midi": 62,
      "hit": false,
      "t": 22655.295999999995,
      "d": 389.768533333332,
      "v": 104
    },
    {
      "midi": 55,
      "hit": false,
      "t": 23020.703999999994,
      "d": 386.72346666666635,
      "v": 104
    },
    {
      "midi": 57,
      "hit": false,
      "t": 23386.111999999994,
      "d": 1385.5053333333344,
      "v": 108
    },
    {
      "midi": 76,
      "hit": false,
      "t": 23751.519999999993,
      "d": 366.9305333333323,
      "v": 112
    },
    {
      "midi": 64,
      "hit": false,
      "t": 23751.519999999993,
      "d": 391.29106666666485,
      "v": 101
    },
    {
      "midi": 69,
      "hit": false,
      "t": 24116.927999999993,
      "d": 371.4981333333344,
      "v": 101
    },
    {
      "midi": 81,
      "hit": false,
      "t": 24116.927999999993,
      "d": 392.8136000000013,
      "v": 112
    },
    {
      "midi": 83,
      "hit": false,
      "t": 24482.335999999992,
      "d": 382.1558666666715,
      "v": 116
    },
    {
      "midi": 71,
      "hit": false,
      "t": 24482.335999999992,
      "d": 383.67840000000433,
      "v": 102
    },
    {
      "midi": 72,
      "hit": false,
      "t": 24847.743999999995,
      "d": 411.0839999999989,
      "v": 101
    },
    {
      "midi": 48,
      "hit": false,
      "t": 24847.743999999995,
      "d": 418.6966666666667,
      "v": 108
    },
    {
      "midi": 84,
      "hit": false,
      "t": 24847.743999999995,
      "d": 471.985333333334,
      "v": 113
    },
    {
      "midi": 83,
      "hit": false,
      "t": 25213.151999999995,
      "d": 333.4348000000027,
      "v": 115
    },
    {
      "midi": 71,
      "hit": false,
      "t": 25213.151999999995,
      "d": 391.2910666666685,
      "v": 104
    },
    {
      "midi": 55,
      "hit": false,
      "t": 25213.151999999995,
      "d": 573.99506666667,
      "v": 107
    },
    {
      "midi": 69,
      "hit": false,
      "t": 25578.559999999998,
      "d": 371.4981333333344,
      "v": 101
    },
    {
      "midi": 81,
      "hit": false,
      "t": 25578.559999999998,
      "d": 409.5614666666661,
      "v": 113
    },
    {
      "midi": 60,
      "hit": false,
      "t": 25578.559999999998,
      "d": 481.12053333333097,
      "v": 105
    },
    {
      "midi": 88,
      "hit": false,
      "t": 25943.967999999997,
      "d": 1125.152133333333,
      "v": 111
    },
    {
      "midi": 76,
      "hit": false,
      "t": 25943.967999999997,
      "d": 1131.242266666668,
      "v": 101
    },
    {
      "midi": 53,
      "hit": false,
      "t": 26309.375999999997,
      "d": 522.228933333332,
      "v": 105
    },
    {
      "midi": 60,
      "hit": false,
      "t": 26674.783999999996,
      "d": 720.1582666666691,
      "v": 107
    },
    {
      "midi": 77,
      "hit": false,
      "t": 27040.191999999995,
      "d": 342.57000000000335,
      "v": 101
    },
    {
      "midi": 89,
      "hit": false,
      "t": 27040.191999999995,
      "d": 371.49813333333805,
      "v": 110
    },
    {
      "midi": 65,
      "hit": false,
      "t": 27040.191999999995,
      "d": 423.2642666666725,
      "v": 104
    },
    {
      "midi": 74,
      "hit": false,
      "t": 27405.6,
      "d": 1111.449333333334,
      "v": 103
    },
    {
      "midi": 86,
      "hit": false,
      "t": 27405.6,
      "d": 1111.449333333334,
      "v": 112
    },
    {
      "midi": 50,
      "hit": false,
      "t": 27771.008,
      "d": 441.53466666666645,
      "v": 107
    },
    {
      "midi": 57,
      "hit": false,
      "t": 28136.416,
      "d": 459.80506666666406,
      "v": 104
    },
    {
      "midi": 62,
      "hit": false,
      "t": 28501.824,
      "d": 342.5699999999997,
      "v": 107
    },
    {
      "midi": 84,
      "hit": false,
      "t": 28501.824,
      "d": 577.0401333333357,
      "v": 101
    },
    {
      "midi": 72,
      "hit": false,
      "t": 28501.824,
      "d": 583.1302666666707,
      "v": 101
    },
    {
      "midi": 55,
      "hit": false,
      "t": 28867.232,
      "d": 204.01946666666845,
      "v": 107
    },
    {
      "midi": 57,
      "hit": false,
      "t": 29232.640000000003,
      "d": 1546.8938666666654,
      "v": 107
    },
    {
      "midi": 76,
      "hit": false,
      "t": 29598.048000000003,
      "d": 380.6333333333314,
      "v": 114
    },
    {
      "midi": 64,
      "hit": false,
      "t": 29598.048000000003,
      "d": 426.30933333333087,
      "v": 100
    },
    {
      "midi": 69,
      "hit": false,
      "t": 29963.456000000002,
      "d": 376.0657333333329,
      "v": 103
    },
    {
      "midi": 81,
      "hit": false,
      "t": 29963.456000000002,
      "d": 379.11079999999856,
      "v": 113
    },
    {
      "midi": 71,
      "hit": false,
      "t": 30328.864,
      "d": 388.2459999999992,
      "v": 101
    },
    {
      "midi": 83,
      "hit": false,
      "t": 30328.864,
      "d": 388.2459999999992,
      "v": 113
    },
    {
      "midi": 48,
      "hit": false,
      "t": 30694.272,
      "d": 411.0839999999989,
      "v": 108
    },
    {
      "midi": 72,
      "hit": false,
      "t": 30694.272,
      "d": 414.1290666666646,
      "v": 100
    },
    {
      "midi": 84,
      "hit": false,
      "t": 30694.272,
      "d": 449.1473333333306,
      "v": 113
    },
    {
      "midi": 71,
      "hit": false,
      "t": 31059.68,
      "d": 388.2459999999992,
      "v": 101
    },
    {
      "midi": 55,
      "hit": false,
      "t": 31059.68,
      "d": 414.1290666666646,
      "v": 107
    },
    {
      "midi": 83,
      "hit": false,
      "t": 31059.68,
      "d": 440.01213333333,
      "v": 113
    },
    {
      "midi": 81,
      "hit": false,
      "t": 31425.088,
      "d": 354.75026666666236,
      "v": 113
    },
    {
      "midi": 69,
      "hit": false,
      "t": 31425.088,
      "d": 359.31786666666085,
      "v": 100
    },
    {
      "midi": 60,
      "hit": false,
      "t": 31425.088,
      "d": 609.0133333333288,
      "v": 109
    },
    {
      "midi": 64,
      "hit": false,
      "t": 31790.495999999996,
      "d": 1103.8366666666661,
      "v": 106
    },
    {
      "midi": 76,
      "hit": false,
      "t": 31790.495999999996,
      "d": 1119.0620000000017,
      "v": 112
    },
    {
      "midi": 53,
      "hit": false,
      "t": 32155.903999999995,
      "d": 503.95853333333434,
      "v": 101
    },
    {
      "midi": 60,
      "hit": false,
      "t": 32521.311999999994,
      "d": 404.9938666666676,
      "v": 100
    },
    {
      "midi": 77,
      "hit": false,
      "t": 32886.719999999994,
      "d": 362.3629333333374,
      "v": 113
    },
    {
      "midi": 65,
      "hit": false,
      "t": 32886.719999999994,
      "d": 379.1108000000022,
      "v": 104
    },
    {
      "midi": 74,
      "hit": false,
      "t": 33252.128,
      "d": 1572.7769333333272,
      "v": 113
    },
    {
      "midi": 50,
      "hit": false,
      "t": 33617.53599999999,
      "d": 403.47133333333477,
      "v": 108
    },
    {
      "midi": 57,
      "hit": false,
      "t": 33982.943999999996,
      "d": 433.92199999999866,
      "v": 101
    },
    {
      "midi": 62,
      "hit": false,
      "t": 34348.35199999999,
      "d": 389.76853333333565,
      "v": 104
    },
    {
      "midi": 55,
      "hit": false,
      "t": 34713.759999999995,
      "d": 386.7234666666627,
      "v": 104
    },
    {
      "midi": 57,
      "hit": false,
      "t": 35079.16799999999,
      "d": 1385.5053333333417,
      "v": 108
    },
    {
      "midi": 76,
      "hit": false,
      "t": 35444.575999999994,
      "d": 366.93053333333955,
      "v": 112
    },
    {
      "midi": 64,
      "hit": false,
      "t": 35444.575999999994,
      "d": 391.2910666666721,
      "v": 101
    },
    {
      "midi": 69,
      "hit": false,
      "t": 35809.984,
      "d": 371.4981333333344,
      "v": 101
    },
    {
      "midi": 81,
      "hit": false,
      "t": 35809.984,
      "d": 392.8136000000013,
      "v": 112
    },
    {
      "midi": 83,
      "hit": false,
      "t": 36175.392,
      "d": 382.1558666666606,
      "v": 116
    },
    {
      "midi": 71,
      "hit": false,
      "t": 36175.392,
      "d": 383.67839999999705,
      "v": 102
    },
    {
      "midi": 72,
      "hit": false,
      "t": 36540.799999999996,
      "d": 411.08400000000256,
      "v": 101
    },
    {
      "midi": 48,
      "hit": false,
      "t": 36540.799999999996,
      "d": 418.69666666667035,
      "v": 108
    },
    {
      "midi": 84,
      "hit": false,
      "t": 36540.799999999996,
      "d": 471.9853333333376,
      "v": 113
    },
    {
      "midi": 83,
      "hit": false,
      "t": 36906.208,
      "d": 333.4348000000027,
      "v": 115
    },
    {
      "midi": 71,
      "hit": false,
      "t": 36906.208,
      "d": 391.2910666666721,
      "v": 104
    },
    {
      "midi": 55,
      "hit": false,
      "t": 36906.208,
      "d": 573.99506666667,
      "v": 107
    },
    {
      "midi": 69,
      "hit": false,
      "t": 37271.616,
      "d": 371.4981333333344,
      "v": 101
    },
    {
      "midi": 81,
      "hit": false,
      "t": 37271.616,
      "d": 409.5614666666661,
      "v": 113
    },
    {
      "midi": 60,
      "hit": false,
      "t": 37271.616,
      "d": 481.1205333333346,
      "v": 105
    },
    {
      "midi": 88,
      "hit": false,
      "t": 37637.024000000005,
      "d": 1125.1521333333367,
      "v": 111
    },
    {
      "midi": 76,
      "hit": false,
      "t": 37637.024000000005,
      "d": 1131.242266666668,
      "v": 101
    },
    {
      "midi": 53,
      "hit": false,
      "t": 38002.432,
      "d": 522.2289333333392,
      "v": 105
    },
    {
      "midi": 60,
      "hit": false,
      "t": 38367.840000000004,
      "d": 720.1582666666727,
      "v": 107
    },
    {
      "midi": 77,
      "hit": false,
      "t": 38733.24800000001,
      "d": 342.5699999999997,
      "v": 101
    },
    {
      "midi": 89,
      "hit": false,
      "t": 38733.24800000001,
      "d": 371.4981333333344,
      "v": 110
    },
    {
      "midi": 65,
      "hit": false,
      "t": 38733.24800000001,
      "d": 423.2642666666652,
      "v": 104
    },
    {
      "midi": 74,
      "hit": false,
      "t": 39098.65600000001,
      "d": 1111.4493333333303,
      "v": 103
    },
    {
      "midi": 86,
      "hit": false,
      "t": 39098.65600000001,
      "d": 1111.4493333333303,
      "v": 112
    },
    {
      "midi": 50,
      "hit": false,
      "t": 39464.064000000006,
      "d": 441.53466666666645,
      "v": 107
    },
    {
      "midi": 57,
      "hit": false,
      "t": 39829.47200000001,
      "d": 459.8050666666677,
      "v": 104
    },
    {
      "midi": 62,
      "hit": false,
      "t": 40194.880000000005,
      "d": 342.570000000007,
      "v": 107
    },
    {
      "midi": 84,
      "hit": false,
      "t": 40194.880000000005,
      "d": 577.040133333343,
      "v": 101
    },
    {
      "midi": 72,
      "hit": false,
      "t": 40194.880000000005,
      "d": 583.1302666666743,
      "v": 101
    },
    {
      "midi": 55,
      "hit": false,
      "t": 40560.288000000015,
      "d": 204.0194666666648,
      "v": 107
    },
    {
      "midi": 67,
      "hit": false,
      "t": 86601.69600000003,
      "d": 395.858666666667,
      "v": 119
    },
    {
      "midi": 69,
      "hit": false,
      "t": 86967.10400000002,
      "d": 3669.3053333333373,
      "v": 119
    },
    {
      "midi": 76,
      "hit": false,
      "t": 87332.51200000003,
      "d": 3331.302933333325,
      "v": 117
    },
    {
      "midi": 67,
      "hit": false,
      "t": 92448.22400000002,
      "d": 470.4627999999939,
      "v": 118
    },
    {
      "midi": 69,
      "hit": false,
      "t": 92813.63200000001,
      "d": 382.15586666666786,
      "v": 114
    },
    {
      "midi": 64,
      "hit": false,
      "t": 93179.04000000001,
      "d": 2574.603866666672,
      "v": 115
    },
    {
      "midi": 67,
      "hit": false,
      "t": 98294.75200000001,
      "d": 395.858666666667,
      "v": 119
    },
    {
      "midi": 69,
      "hit": false,
      "t": 98660.16,
      "d": 3669.3053333333373,
      "v": 119
    },
    {
      "midi": 76,
      "hit": false,
      "t": 99025.56800000001,
      "d": 3331.302933333325,
      "v": 117
    },
    {
      "midi": 67,
      "hit": false,
      "t": 104141.28,
      "d": 470.4627999999939,
      "v": 118
    },
    {
      "midi": 69,
      "hit": false,
      "t": 104506.688,
      "d": 382.15586666666786,
      "v": 114
    },
    {
      "midi": 64,
      "hit": false,
      "t": 104872.09599999999,
      "d": 2574.603866666672,
      "v": 115
    },
    {
      "midi": 67,
      "hit": false,
      "t": 150913.50400000002,
      "d": 395.858666666667,
      "v": 119
    },
    {
      "midi": 69,
      "hit": false,
      "t": 151278.912,
      "d": 3669.305333333323,
      "v": 119
    },
    {
      "midi": 76,
      "hit": false,
      "t": 151644.32,
      "d": 3331.302933333325,
      "v": 117
    },
    {
      "midi": 67,
      "hit": false,
      "t": 156760.032,
      "d": 470.46280000000843,
      "v": 118
    },
    {
      "midi": 69,
      "hit": false,
      "t": 157125.44,
      "d": 382.15586666669697,
      "v": 114
    },
    {
      "midi": 64,
      "hit": false,
      "t": 157490.84800000003,
      "d": 2574.603866666672,
      "v": 115
    },
    {
      "midi": 67,
      "hit": false,
      "t": 180146.14400000003,
      "d": 411.08400000000256,
      "v": 122
    },
    {
      "midi": 69,
      "hit": false,
      "t": 180511.55200000003,
      "d": 406.51639999999315,
      "v": 110
    },
    {
      "midi": 76,
      "hit": false,
      "t": 180876.96000000002,
      "d": 1584.9572000000044,
      "v": 122
    },
    {
      "midi": 67,
      "hit": false,
      "t": 185992.67200000002,
      "d": 408.0389333333296,
      "v": 107
    },
    {
      "midi": 69,
      "hit": false,
      "t": 186358.08000000002,
      "d": 341.0474666666705,
      "v": 117
    },
    {
      "midi": 64,
      "hit": false,
      "t": 186723.488,
      "d": 1830.085066666681,
      "v": 120
    },
    {
      "midi": 79,
      "hit": false,
      "t": 226918.36800000002,
      "d": 441.53466666667373,
      "v": 107
    },
    {
      "midi": 81,
      "hit": false,
      "t": 227283.776,
      "d": 426.30933333336725,
      "v": 91
    },
    {
      "midi": 88,
      "hit": false,
      "t": 227649.18400000004,
      "d": 3297.80720000001,
      "v": 107
    },
    {
      "midi": 57,
      "hit": false,
      "t": 230937.85600000006,
      "d": 1546.8938666666509,
      "v": 107
    },
    {
      "midi": 76,
      "hit": false,
      "t": 231303.26400000005,
      "d": 380.6333333333314,
      "v": 114
    },
    {
      "midi": 64,
      "hit": false,
      "t": 231303.26400000005,
      "d": 426.30933333333815,
      "v": 100
    },
    {
      "midi": 69,
      "hit": false,
      "t": 231668.67200000005,
      "d": 376.065733333322,
      "v": 103
    },
    {
      "midi": 81,
      "hit": false,
      "t": 231668.67200000005,
      "d": 379.1107999999949,
      "v": 113
    },
    {
      "midi": 71,
      "hit": false,
      "t": 232034.08000000005,
      "d": 388.24599999998463,
      "v": 101
    },
    {
      "midi": 83,
      "hit": false,
      "t": 232034.08000000005,
      "d": 388.24599999998463,
      "v": 113
    },
    {
      "midi": 48,
      "hit": false,
      "t": 232399.48800000004,
      "d": 411.08400000000256,
      "v": 108
    },
    {
      "midi": 72,
      "hit": false,
      "t": 232399.48800000004,
      "d": 414.1290666666755,
      "v": 100
    },
    {
      "midi": 84,
      "hit": false,
      "t": 232399.48800000004,
      "d": 449.1473333333561,
      "v": 113
    },
    {
      "midi": 71,
      "hit": false,
      "t": 232764.89600000004,
      "d": 388.24600000001374,
      "v": 101
    },
    {
      "midi": 55,
      "hit": false,
      "t": 232764.89600000004,
      "d": 414.1290666666755,
      "v": 107
    },
    {
      "midi": 83,
      "hit": false,
      "t": 232764.89600000004,
      "d": 440.01213333333726,
      "v": 113
    },
    {
      "midi": 81,
      "hit": false,
      "t": 233130.30400000006,
      "d": 354.7502666666405,
      "v": 113
    },
    {
      "midi": 69,
      "hit": false,
      "t": 233130.30400000006,
      "d": 359.31786666664993,
      "v": 100
    },
    {
      "midi": 60,
      "hit": false,
      "t": 233130.30400000006,
      "d": 609.013333333336,
      "v": 109
    },
    {
      "midi": 64,
      "hit": false,
      "t": 233495.71200000006,
      "d": 1103.8366666666407,
      "v": 106
    },
    {
      "midi": 76,
      "hit": false,
      "t": 233495.71200000006,
      "d": 1119.0619999999763,
      "v": 112
    },
    {
      "midi": 53,
      "hit": false,
      "t": 233861.12000000005,
      "d": 503.95853333332343,
      "v": 101
    },
    {
      "midi": 60,
      "hit": false,
      "t": 234226.52800000005,
      "d": 404.9938666666567,
      "v": 100
    },
    {
      "midi": 77,
      "hit": false,
      "t": 234591.93600000005,
      "d": 362.36293333332287,
      "v": 113
    },
    {
      "midi": 65,
      "hit": false,
      "t": 234591.93600000005,
      "d": 379.1107999999949,
      "v": 104
    },
    {
      "midi": 74,
      "hit": false,
      "t": 234957.34400000004,
      "d": 1572.7769333333126,
      "v": 113
    },
    {
      "midi": 50,
      "hit": false,
      "t": 235322.75200000004,
      "d": 403.4713333333202,
      "v": 108
    },
    {
      "midi": 57,
      "hit": false,
      "t": 235688.16000000003,
      "d": 433.9219999999914,
      "v": 101
    },
    {
      "midi": 62,
      "hit": false,
      "t": 236053.56800000003,
      "d": 389.7685333333211,
      "v": 104
    },
    {
      "midi": 55,
      "hit": false,
      "t": 236418.97600000002,
      "d": 386.72346666664816,
      "v": 104
    },
    {
      "midi": 57,
      "hit": false,
      "t": 236784.38400000002,
      "d": 1385.5053333333053,
      "v": 108
    },
    {
      "midi": 76,
      "hit": false,
      "t": 237149.79200000002,
      "d": 366.9305333333323,
      "v": 112
    },
    {
      "midi": 64,
      "hit": false,
      "t": 237149.79200000002,
      "d": 391.29106666665757,
      "v": 101
    },
    {
      "midi": 69,
      "hit": false,
      "t": 237515.2,
      "d": 371.4981333333417,
      "v": 101
    },
    {
      "midi": 81,
      "hit": false,
      "t": 237515.2,
      "d": 392.81359999999404,
      "v": 112
    },
    {
      "midi": 83,
      "hit": false,
      "t": 237880.608,
      "d": 382.15586666666786,
      "v": 116
    },
    {
      "midi": 71,
      "hit": false,
      "t": 237880.608,
      "d": 383.67840000000433,
      "v": 102
    },
    {
      "midi": 72,
      "hit": false,
      "t": 238246.016,
      "d": 411.08400000000256,
      "v": 101
    },
    {
      "midi": 48,
      "hit": false,
      "t": 238246.016,
      "d": 418.6966666666558,
      "v": 108
    },
    {
      "midi": 84,
      "hit": false,
      "t": 238246.016,
      "d": 471.9853333333158,
      "v": 113
    },
    {
      "midi": 83,
      "hit": false,
      "t": 238611.424,
      "d": 333.4347999999882,
      "v": 115
    },
    {
      "midi": 71,
      "hit": false,
      "t": 238611.424,
      "d": 391.29106666665757,
      "v": 104
    },
    {
      "midi": 55,
      "hit": false,
      "t": 238611.424,
      "d": 573.9950666666555,
      "v": 107
    },
    {
      "midi": 69,
      "hit": false,
      "t": 238976.832,
      "d": 371.4981333333417,
      "v": 101
    },
    {
      "midi": 81,
      "hit": false,
      "t": 238976.832,
      "d": 409.5614666666661,
      "v": 113
    },
    {
      "midi": 60,
      "hit": false,
      "t": 238976.832,
      "d": 481.1205333333346,
      "v": 105
    },
    {
      "midi": 88,
      "hit": false,
      "t": 239342.24,
      "d": 1125.1521333333221,
      "v": 111
    },
    {
      "midi": 76,
      "hit": false,
      "t": 239342.24,
      "d": 1131.242266666668,
      "v": 101
    },
    {
      "midi": 53,
      "hit": false,
      "t": 239707.648,
      "d": 522.228933333332,
      "v": 105
    },
    {
      "midi": 60,
      "hit": false,
      "t": 240073.05599999998,
      "d": 720.1582666666654,
      "v": 107
    },
    {
      "midi": 77,
      "hit": false,
      "t": 240438.46399999998,
      "d": 342.570000000007,
      "v": 101
    },
    {
      "midi": 89,
      "hit": false,
      "t": 240438.46399999998,
      "d": 371.4981333333417,
      "v": 110
    },
    {
      "midi": 65,
      "hit": false,
      "t": 240438.46399999998,
      "d": 423.2642666666652,
      "v": 104
    },
    {
      "midi": 74,
      "hit": false,
      "t": 240803.87199999997,
      "d": 1111.4493333333521,
      "v": 103
    },
    {
      "midi": 86,
      "hit": false,
      "t": 240803.87199999997,
      "d": 1111.4493333333521,
      "v": 112
    },
    {
      "midi": 50,
      "hit": false,
      "t": 241169.27999999997,
      "d": 441.53466666667373,
      "v": 107
    },
    {
      "midi": 57,
      "hit": false,
      "t": 241534.68799999997,
      "d": 459.80506666668225,
      "v": 104
    },
    {
      "midi": 62,
      "hit": false,
      "t": 241900.096,
      "d": 342.5699999999779,
      "v": 107
    },
    {
      "midi": 84,
      "hit": false,
      "t": 241900.096,
      "d": 577.0401333332993,
      "v": 101
    },
    {
      "midi": 72,
      "hit": false,
      "t": 241900.096,
      "d": 583.1302666666452,
      "v": 101
    },
    {
      "midi": 55,
      "hit": false,
      "t": 242265.50399999996,
      "d": 204.01946666667936,
      "v": 107
    },
    {
      "midi": 71,
      "hit": false,
      "t": 242630.91199999998,
      "d": 2369.061866666656,
      "v": 101
    },
    {
      "midi": 83,
      "hit": false,
      "t": 242630.91199999998,
      "d": 2369.061866666656,
      "v": 101
    }
  ]
}