{
  "jsonPath": "Unknown/Unknown/Tic Tac Toe/warum.json",
  "path": "Unknown\\Unknown\\Tic Tac Toe\\Warum.mid",
  "name": "Warum",
  "difficulty": "Advanced",
  "bpm": 120,
  "notes": [
    {
      "midi": 72,
      "hit": false,
      "t": 19833.333333333332,
      "d": 1983.3333333333321,
      "v": 58
    },
    {
      "midi": 76,
      "hit": false,
      "t": 21816.666666666664,
      "d": 700,
      "v": 55
    },
    {
      "midi": 74,
      "hit": false,
      "t": 22483.333333333332,
      "d": 966.6666666666642,
      "v": 60
    },
    {
      "midi": 72,
      "hit": false,
      "t": 23483.33333333333,
      "d": 433.33333333333576,
      "v": 53
    },
    {
      "midi": 69,
      "hit": false,
      "t": 23799.999999999996,
      "d": 1900,
      "v": 63
    },
    {
      "midi": 74,
      "hit": false,
      "t": 25799.999999999996,
      "d": 666.6666666666679,
      "v": 68
    },
    {
      "midi": 72,
      "hit": false,
      "t": 26449.999999999996,
      "d": 666.6666666666679,
      "v": 63
    },
    {
      "midi": 69,
      "hit": false,
      "t": 27116.666666666664,
      "d": 350,
      "v": 63
    },
    {
      "midi": 67,
      "hit": false,
      "t": 27449.999999999996,
      "d": 316.6666666666679,
      "v": 55
    },
    {
      "midi": 65,
      "hit": false,
      "t": 27783.333333333332,
      "d": 2066.6666666666642,
      "v": 57
    },
    {
      "midi": 62,
      "hit": false,
      "t": 29766.666666666664,
      "d": 1016.6666666666642,
      "v": 43
    },
    {
      "midi": 65,
      "hit": false,
      "t": 30749.999999999996,
      "d": 933.3333333333321,
      "v": 63
    },
    {
      "midi": 64,
      "hit": false,
      "t": 31749.999999999996,
      "d": 3716.666666666668,
      "v": 52
    },
    {
      "midi": 45,
      "hit": false,
      "t": 109116.66666666666,
      "d": 3449.999999999971,
      "v": 80
    },
    {
      "midi": 52,
      "hit": false,
      "t": 109449.99999999999,
      "d": 3066.6666666666424,
      "v": 70
    },
    {
      "midi": 57,
      "hit": false,
      "t": 109783.33333333331,
      "d": 1733.333333333314,
      "v": 64
    },
    {
      "midi": 64,
      "hit": false,
      "t": 110116.66666666664,
      "d": 466.66666666665697,
      "v": 63
    },
    {
      "midi": 69,
      "hit": false,
      "t": 110449.99999999997,
      "d": 300,
      "v": 61
    },
    {
      "midi": 71,
      "hit": false,
      "t": 110766.66666666664,
      "d": 1133.333333333314,
      "v": 58
    },
    {
      "midi": 69,
      "hit": false,
      "t": 111099.99999999997,
      "d": 783.3333333333139,
      "v": 63
    },
    {
      "midi": 64,
      "hit": false,
      "t": 111433.3333333333,
      "d": 366.66666666665697,
      "v": 53
    },
    {
      "midi": 57,
      "hit": false,
      "t": 111766.66666666663,
      "d": 683.3333333333285,
      "v": 43
    },
    {
      "midi": 64,
      "hit": false,
      "t": 112099.99999999996,
      "d": 916.6666666666715,
      "v": 57
    },
    {
      "midi": 69,
      "hit": false,
      "t": 112433.33333333328,
      "d": 650.0000000000146,
      "v": 58
    },
    {
      "midi": 71,
      "hit": false,
      "t": 112749.99999999996,
      "d": 350.00000000001455,
      "v": 56
    },
    {
      "midi": 41,
      "hit": false,
      "t": 113083.3333333333,
      "d": 3183.333333333314,
      "v": 76
    },
    {
      "midi": 48,
      "hit": false,
      "t": 113416.66666666663,
      "d": 2866.666666666657,
      "v": 60
    },
    {
      "midi": 53,
      "hit": false,
      "t": 113749.99999999996,
      "d": 1599.9999999999854,
      "v": 70
    },
    {
      "midi": 60,
      "hit": false,
      "t": 114083.33333333328,
      "d": 550,
      "v": 66
    },
    {
      "midi": 64,
      "hit": false,
      "t": 114416.66666666661,
      "d": 316.6666666666715,
      "v": 66
    },
    {
      "midi": 69,
      "hit": false,
      "t": 114733.33333333328,
      "d": 1083.3333333333285,
      "v": 53
    },
    {
      "midi": 64,
      "hit": false,
      "t": 115066.66666666661,
      "d": 750,
      "v": 58
    },
    {
      "midi": 60,
      "hit": false,
      "t": 115399.99999999994,
      "d": 350,
      "v": 58
    },
    {
      "midi": 53,
      "hit": false,
      "t": 115733.33333333327,
      "d": 716.6666666666861,
      "v": 52
    },
    {
      "midi": 60,
      "hit": false,
      "t": 116066.66666666661,
      "d": 966.6666666666861,
      "v": 66
    },
    {
      "midi": 64,
      "hit": false,
      "t": 116399.99999999996,
      "d": 633.333333333343,
      "v": 72
    },
    {
      "midi": 69,
      "hit": false,
      "t": 116733.3333333333,
      "d": 366.6666666666715,
      "v": 49
    },
    {
      "midi": 52,
      "hit": false,
      "t": 117049.99999999997,
      "d": 3433.3333333333285,
      "v": 62
    },
    {
      "midi": 56,
      "hit": false,
      "t": 117383.33333333331,
      "d": 3066.666666666657,
      "v": 59
    },
    {
      "midi": 59,
      "hit": false,
      "t": 117716.66666666664,
      "d": 2700,
      "v": 64
    },
    {
      "midi": 62,
      "hit": false,
      "t": 118049.99999999999,
      "d": 2366.666666666657,
      "v": 58
    },
    {
      "midi": 64,
      "hit": false,
      "t": 118383.33333333331,
      "d": 1666.666666666657,
      "v": 57
    },
    {
      "midi": 68,
      "hit": false,
      "t": 118716.66666666664,
      "d": 950,
      "v": 61
    },
    {
      "midi": 71,
      "hit": false,
      "t": 119033.33333333331,
      "d": 300,
      "v": 56
    },
    {
      "midi": 74,
      "hit": false,
      "t": 119366.66666666664,
      "d": 466.66666666665697,
      "v": 62
    },
    {
      "midi": 71,
      "hit": false,
      "t": 119699.99999999997,
      "d": 1383.333333333343,
      "v": 60
    },
    {
      "midi": 68,
      "hit": false,
      "t": 120033.3333333333,
      "d": 466.6666666666715,
      "v": 60
    },
    {
      "midi": 64,
      "hit": false,
      "t": 120366.66666666664,
      "d": 700,
      "v": 57
    },
    {
      "midi": 68,
      "hit": false,
      "t": 120699.99999999997,
      "d": 366.6666666666715,
      "v": 57
    },
    {
      "midi": 45,
      "hit": false,
      "t": 121016.66666666664,
      "d": 3483.3333333333576,
      "v": 64
    },
    {
      "midi": 52,
      "hit": false,
      "t": 121350,
      "d": 3133.3333333333285,
      "v": 72
    },
    {
      "midi": 57,
      "hit": false,
      "t": 121683.33333333333,
      "d": 3050.0000000000146,
      "v": 61
    },
    {
      "midi": 64,
      "hit": false,
      "t": 122016.66666666666,
      "d": 1683.333333333343,
      "v": 70
    },
    {
      "midi": 69,
      "hit": false,
      "t": 122349.99999999999,
      "d": 650.0000000000146,
      "v": 66
    },
    {
      "midi": 71,
      "hit": false,
      "t": 122683.33333333333,
      "d": 333.33333333334303,
      "v": 53
    },
    {
      "midi": 72,
      "hit": false,
      "t": 123000,
      "d": 366.6666666666715,
      "v": 59
    },
    {
      "midi": 71,
      "hit": false,
      "t": 123333.33333333334,
      "d": 616.666666666657,
      "v": 46
    },
    {
      "midi": 69,
      "hit": false,
      "t": 123666.66666666667,
      "d": 283.3333333333285,
      "v": 60
    },
    {
      "midi": 64,
      "hit": false,
      "t": 124000,
      "d": 983.3333333333576,
      "v": 59
    },
    {
      "midi": 69,
      "hit": false,
      "t": 124333.33333333333,
      "d": 616.6666666666861,
      "v": 55
    },
    {
      "midi": 71,
      "hit": false,
      "t": 124666.66666666667,
      "d": 300.00000000001455,
      "v": 53
    },
    {
      "midi": 48,
      "hit": false,
      "t": 125000.00000000003,
      "d": 3299.999999999971,
      "v": 82
    },
    {
      "midi": 55,
      "hit": false,
      "t": 125316.66666666669,
      "d": 2983.333333333314,
      "v": 76
    },
    {
      "midi": 60,
      "hit": false,
      "t": 125650.00000000001,
      "d": 1999.9999999999854,
      "v": 68
    },
    {
      "midi": 64,
      "hit": false,
      "t": 125983.33333333334,
      "d": 566.666666666657,
      "v": 70
    },
    {
      "midi": 67,
      "hit": false,
      "t": 126316.66666666667,
      "d": 683.3333333333285,
      "v": 76
    },
    {
      "midi": 74,
      "hit": false,
      "t": 126650,
      "d": 233.33333333332848,
      "v": 38
    },
    {
      "midi": 72,
      "hit": false,
      "t": 126983.33333333333,
      "d": 500,
      "v": 70
    },
    {
      "midi": 67,
      "hit": false,
      "t": 127300,
      "d": 966.6666666666715,
      "v": 62
    },
    {
      "midi": 64,
      "hit": false,
      "t": 127633.33333333333,
      "d": 416.6666666666715,
      "v": 59
    },
    {
      "midi": 60,
      "hit": false,
      "t": 127966.66666666667,
      "d": 699.9999999999854,
      "v": 58
    },
    {
      "midi": 64,
      "hit": false,
      "t": 128300,
      "d": 633.3333333333285,
      "v": 57
    },
    {
      "midi": 67,
      "hit": false,
      "t": 128633.33333333333,
      "d": 333.3333333333285,
      "v": 72
    },
    {
      "midi": 50,
      "hit": false,
      "t": 128966.66666666666,
      "d": 3316.6666666665988,
      "v": 74
    },
    {
      "midi": 57,
      "hit": false,
      "t": 129283.33333333334,
      "d": 3049.9999999999127,
      "v": 72
    },
    {
      "midi": 62,
      "hit": false,
      "t": 129616.66666666667,
      "d": 3199.999999999898,
      "v": 72
    },
    {
      "midi": 65,
      "hit": false,
      "t": 129950,
      "d": 916.666666666657,
      "v": 59
    },
    {
      "midi": 69,
      "hit": false,
      "t": 130283.33333333333,
      "d": 983.3333333333285,
      "v": 68
    },
    {
      "midi": 74,
      "hit": false,
      "t": 130616.66666666666,
      "d": 316.6666666666715,
      "v": 63
    },
    {
      "midi": 76,
      "hit": false,
      "t": 130950,
      "d": 433.33333333331393,
      "v": 72
    },
    {
      "midi": 74,
      "hit": false,
      "t": 131266.66666666666,
      "d": 649.9999999999709,
      "v": 64
    },
    {
      "midi": 69,
      "hit": false,
      "t": 131599.99999999997,
      "d": 399.9999999999709,
      "v": 63
    },
    {
      "midi": 65,
      "hit": false,
      "t": 131933.33333333328,
      "d": 1016.6666666665988,
      "v": 61
    },
    {
      "midi": 69,
      "hit": false,
      "t": 132266.6666666666,
      "d": 683.3333333332848,
      "v": 66
    },
    {
      "midi": 74,
      "hit": false,
      "t": 132599.9999999999,
      "d": 399.9999999999709,
      "v": 63
    },
    {
      "midi": 53,
      "hit": false,
      "t": 132933.33333333323,
      "d": 3450.000000000029,
      "v": 82
    },
    {
      "midi": 60,
      "hit": false,
      "t": 133266.66666666654,
      "d": 2900.000000000058,
      "v": 72
    },
    {
      "midi": 64,
      "hit": false,
      "t": 133583.3333333332,
      "d": 2883.3333333334012,
      "v": 68
    },
    {
      "midi": 69,
      "hit": false,
      "t": 133916.66666666654,
      "d": 1250.000000000029,
      "v": 85
    },
    {
      "midi": 72,
      "hit": false,
      "t": 134249.99999999988,
      "d": 716.6666666666861,
      "v": 63
    },
    {
      "midi": 76,
      "hit": false,
      "t": 134583.33333333323,
      "d": 283.33333333334303,
      "v": 63
    },
    {
      "midi": 77,
      "hit": false,
      "t": 134916.66666666657,
      "d": 1166.666666666686,
      "v": 82
    },
    {
      "midi": 81,
      "hit": false,
      "t": 135249.9999999999,
      "d": 700,
      "v": 53
    },
    {
      "midi": 76,
      "hit": false,
      "t": 135566.66666666657,
      "d": 383.33333333334303,
      "v": 52
    },
    {
      "midi": 69,
      "hit": false,
      "t": 136233.33333333326,
      "d": 666.6666666666861,
      "v": 59
    },
    {
      "midi": 72,
      "hit": false,
      "t": 136566.6666666666,
      "d": 350,
      "v": 63
    },
    {
      "midi": 52,
      "hit": false,
      "t": 136899.99999999994,
      "d": 3399.999999999942,
      "v": 70
    },
    {
      "midi": 56,
      "hit": false,
      "t": 137233.33333333326,
      "d": 3016.666666666628,
      "v": 53
    },
    {
      "midi": 59,
      "hit": false,
      "t": 137549.99999999994,
      "d": 2699.999999999942,
      "v": 52
    },
    {
      "midi": 64,
      "hit": false,
      "t": 137883.33333333326,
      "d": 2283.333333333314,
      "v": 60
    },
    {
      "midi": 76,
      "hit": false,
      "t": 138566.66666666657,
      "d": 1616.666666666657,
      "v": 61
    },
    {
      "midi": 80,
      "hit": false,
      "t": 138683.33333333326,
      "d": 1516.6666666666279,
      "v": 57
    },
    {
      "midi": 83,
      "hit": false,
      "t": 138766.6666666666,
      "d": 1433.3333333332848,
      "v": 66
    },
    {
      "midi": 86,
      "hit": false,
      "t": 138866.6666666666,
      "d": 1333.3333333332848,
      "v": 58
    },
    {
      "midi": 88,
      "hit": false,
      "t": 138866.6666666666,
      "d": 1333.3333333332848,
      "v": 60
    },
    {
      "midi": 60,
      "hit": false,
      "t": 140866.66666666657,
      "d": 433.33333333334303,
      "v": 56
    },
    {
      "midi": 69,
      "hit": false,
      "t": 140866.66666666657,
      "d": 500,
      "v": 62
    },
    {
      "midi": 45,
      "hit": false,
      "t": 140866.66666666657,
      "d": 3333.333333333314,
      "v": 62
    },
    {
      "midi": 52,
      "hit": false,
      "t": 141483.33333333323,
      "d": 2683.333333333314,
      "v": 47
    },
    {
      "midi": 64,
      "hit": false,
      "t": 141866.66666666657,
      "d": 700,
      "v": 63
    },
    {
      "midi": 72,
      "hit": false,
      "t": 141883.33333333323,
      "d": 650,
      "v": 66
    },
    {
      "midi": 57,
      "hit": false,
      "t": 142499.99999999988,
      "d": 1783.333333333343,
      "v": 42
    },
    {
      "midi": 64,
      "hit": false,
      "t": 142866.66666666657,
      "d": 750,
      "v": 44
    },
    {
      "midi": 71,
      "hit": false,
      "t": 142883.33333333323,
      "d": 750,
      "v": 52
    },
    {
      "midi": 64,
      "hit": false,
      "t": 143849.99999999988,
      "d": 766.6666666666861,
      "v": 68
    },
    {
      "midi": 69,
      "hit": false,
      "t": 143849.99999999988,
      "d": 850.0000000000291,
      "v": 87
    },
    {
      "midi": 67,
      "hit": false,
      "t": 144483.33333333323,
      "d": 250.0000000000291,
      "v": 55
    },
    {
      "midi": 69,
      "hit": false,
      "t": 144816.6666666666,
      "d": 683.3333333332848,
      "v": 57
    },
    {
      "midi": 65,
      "hit": false,
      "t": 144833.33333333326,
      "d": 633.3333333333139,
      "v": 62
    },
    {
      "midi": 53,
      "hit": false,
      "t": 144833.33333333326,
      "d": 3333.333333333285,
      "v": 60
    },
    {
      "midi": 60,
      "hit": false,
      "t": 145483.33333333323,
      "d": 2666.666666666657,
      "v": 44
    },
    {
      "midi": 57,
      "hit": false,
      "t": 145799.99999999988,
      "d": 2383.333333333314,
      "v": 37
    },
    {
      "midi": 84,
      "hit": false,
      "t": 146466.66666666654,
      "d": 550,
      "v": 60
    },
    {
      "midi": 79,
      "hit": false,
      "t": 146483.3333333332,
      "d": 400,
      "v": 53
    },
    {
      "midi": 81,
      "hit": false,
      "t": 146816.66666666654,
      "d": 1966.666666666657,
      "v": 63
    },
    {
      "midi": 77,
      "hit": false,
      "t": 147149.99999999988,
      "d": 1533.333333333314,
      "v": 58
    },
    {
      "midi": 72,
      "hit": false,
      "t": 147449.99999999988,
      "d": 1349.999999999971,
      "v": 52
    },
    {
      "midi": 50,
      "hit": false,
      "t": 148799.99999999985,
      "d": 3216.666666666715,
      "v": 66
    },
    {
      "midi": 57,
      "hit": false,
      "t": 149416.6666666665,
      "d": 2600.000000000058,
      "v": 55
    },
    {
      "midi": 65,
      "hit": false,
      "t": 149799.99999999985,
      "d": 650,
      "v": 46
    },
    {
      "midi": 69,
      "hit": false,
      "t": 149799.99999999985,
      "d": 650,
      "v": 63
    },
    {
      "midi": 62,
      "hit": false,
      "t": 150433.3333333332,
      "d": 2150.000000000029,
      "v": 33
    },
    {
      "midi": 65,
      "hit": false,
      "t": 150783.3333333332,
      "d": 700.0000000000291,
      "v": 46
    },
    {
      "midi": 74,
      "hit": false,
      "t": 150799.99999999985,
      "d": 650.0000000000291,
      "v": 53
    },
    {
      "midi": 65,
      "hit": false,
      "t": 151783.33333333323,
      "d": 933.3333333333139,
      "v": 74
    },
    {
      "midi": 69,
      "hit": false,
      "t": 152099.99999999988,
      "d": 600,
      "v": 64
    },
    {
      "midi": 74,
      "hit": false,
      "t": 152433.33333333323,
      "d": 316.66666666665697,
      "v": 58
    },
    {
      "midi": 52,
      "hit": false,
      "t": 152766.66666666654,
      "d": 3299.999999999971,
      "v": 80
    },
    {
      "midi": 59,
      "hit": false,
      "t": 153099.99999999988,
      "d": 2766.666666666657,
      "v": 58
    },
    {
      "midi": 56,
      "hit": false,
      "t": 153433.33333333323,
      "d": 1549.999999999971,
      "v": 54
    },
    {
      "midi": 64,
      "hit": false,
      "t": 153766.66666666657,
      "d": 683.3333333333139,
      "v": 52
    },
    {
      "midi": 68,
      "hit": false,
      "t": 154083.33333333323,
      "d": 1999.9999999999418,
      "v": 59
    },
    {
      "midi": 71,
      "hit": false,
      "t": 154449.99999999988,
      "d": 1583.333333333314,
      "v": 25
    },
    {
      "midi": 64,
      "hit": false,
      "t": 154699.99999999988,
      "d": 1433.3333333332848,
      "v": 45
    },
    {
      "midi": 76,
      "hit": false,
      "t": 154916.66666666654,
      "d": 1133.333333333314,
      "v": 45
    },
    {
      "midi": 64,
      "hit": false,
      "t": 156749.99999999983,
      "d": 716.6666666666279,
      "v": 72
    },
    {
      "midi": 72,
      "hit": false,
      "t": 156749.99999999983,
      "d": 766.6666666666279,
      "v": 76
    },
    {
      "midi": 45,
      "hit": false,
      "t": 156749.99999999983,
      "d": 3283.333333333314,
      "v": 78
    },
    {
      "midi": 52,
      "hit": false,
      "t": 157049.9999999998,
      "d": 2883.333333333343,
      "v": 68
    },
    {
      "midi": 57,
      "hit": false,
      "t": 157399.9999999998,
      "d": 466.66666666665697,
      "v": 87
    },
    {
      "midi": 64,
      "hit": false,
      "t": 157733.3333333331,
      "d": 833.333333333343,
      "v": 72
    },
    {
      "midi": 69,
      "hit": false,
      "t": 157733.3333333331,
      "d": 866.6666666666861,
      "v": 82
    },
    {
      "midi": 57,
      "hit": false,
      "t": 158383.3333333331,
      "d": 683.333333333343,
      "v": 60
    },
    {
      "midi": 64,
      "hit": false,
      "t": 158733.33333333314,
      "d": 699.9999999999709,
      "v": 57
    },
    {
      "midi": 71,
      "hit": false,
      "t": 158749.9999999998,
      "d": 716.666666666657,
      "v": 60
    },
    {
      "midi": 57,
      "hit": false,
      "t": 159383.3333333331,
      "d": 500.0000000000291,
      "v": 52
    },
    {
      "midi": 72,
      "hit": false,
      "t": 159699.9999999998,
      "d": 383.33333333334303,
      "v": 91
    },
    {
      "midi": 64,
      "hit": false,
      "t": 159699.9999999998,
      "d": 616.6666666666861,
      "v": 85
    },
    {
      "midi": 69,
      "hit": false,
      "t": 160383.33333333314,
      "d": 216.66666666665697,
      "v": 60
    },
    {
      "midi": 67,
      "hit": false,
      "t": 160699.9999999998,
      "d": 383.33333333331393,
      "v": 60
    },
    {
      "midi": 43,
      "hit": false,
      "t": 160699.9999999998,
      "d": 3016.666666666657,
      "v": 80
    },
    {
      "midi": 71,
      "hit": false,
      "t": 160716.66666666645,
      "d": 400,
      "v": 57
    },
    {
      "midi": 50,
      "hit": false,
      "t": 161299.9999999998,
      "d": 2433.333333333314,
      "v": 52
    },
    {
      "midi": 55,
      "hit": false,
      "t": 161699.9999999998,
      "d": 966.666666666657,
      "v": 70
    },
    {
      "midi": 83,
      "hit": false,
      "t": 161999.9999999998,
      "d": 983.3333333333139,
      "v": 100
    },
    {
      "midi": 79,
      "hit": false,
      "t": 162316.66666666645,
      "d": 666.666666666657,
      "v": 68
    },
    {
      "midi": 74,
      "hit": false,
      "t": 162649.9999999998,
      "d": 366.66666666662786,
      "v": 49
    },
    {
      "midi": 55,
      "hit": false,
      "t": 162999.99999999977,
      "d": 900,
      "v": 52
    },
    {
      "midi": 67,
      "hit": false,
      "t": 163299.99999999977,
      "d": 1116.666666666657,
      "v": 54
    },
    {
      "midi": 71,
      "hit": false,
      "t": 163633.3333333331,
      "d": 783.3333333333139,
      "v": 78
    },
    {
      "midi": 74,
      "hit": false,
      "t": 163999.99999999977,
      "d": 533.3333333333139,
      "v": 70
    },
    {
      "midi": 72,
      "hit": false,
      "t": 164666.66666666642,
      "d": 999.9999999999709,
      "v": 68
    },
    {
      "midi": 53,
      "hit": false,
      "t": 164666.66666666642,
      "d": 3333.333333333314,
      "v": 82
    },
    {
      "midi": 69,
      "hit": false,
      "t": 164683.33333333308,
      "d": 1183.333333333314,
      "v": 66
    },
    {
      "midi": 60,
      "hit": false,
      "t": 165299.99999999974,
      "d": 1733.333333333314,
      "v": 49
    },
    {
      "midi": 57,
      "hit": false,
      "t": 165649.99999999974,
      "d": 2333.333333333343,
      "v": 64
    },
    {
      "midi": 65,
      "hit": false,
      "t": 166333.33333333305,
      "d": 1033.333333333343,
      "v": 34
    },
    {
      "midi": 69,
      "hit": false,
      "t": 166666.6666666664,
      "d": 600,
      "v": 68
    },
    {
      "midi": 60,
      "hit": false,
      "t": 167299.99999999974,
      "d": 1250,
      "v": 58
    },
    {
      "midi": 65,
      "hit": false,
      "t": 167649.99999999974,
      "d": 383.33333333334303,
      "v": 72
    },
    {
      "midi": 72,
      "hit": false,
      "t": 167649.99999999974,
      "d": 700,
      "v": 78
    },
    {
      "midi": 69,
      "hit": false,
      "t": 167999.99999999974,
      "d": 333.33333333334303,
      "v": 60
    },
    {
      "midi": 65,
      "hit": false,
      "t": 168316.66666666642,
      "d": 183.33333333331393,
      "v": 59
    },
    {
      "midi": 64,
      "hit": false,
      "t": 168649.99999999974,
      "d": 300,
      "v": 82
    },
    {
      "midi": 71,
      "hit": false,
      "t": 168649.99999999974,
      "d": 333.33333333334303,
      "v": 68
    },
    {
      "midi": 52,
      "hit": false,
      "t": 168649.99999999974,
      "d": 3399.999999999942,
      "v": 87
    },
    {
      "midi": 56,
      "hit": false,
      "t": 168983.33333333308,
      "d": 3033.333333333285,
      "v": 61
    },
    {
      "midi": 59,
      "hit": false,
      "t": 169299.99999999974,
      "d": 2699.999999999971,
      "v": 70
    },
    {
      "midi": 64,
      "hit": false,
      "t": 169616.6666666664,
      "d": 2349.999999999971,
      "v": 82
    },
    {
      "midi": 76,
      "hit": false,
      "t": 169933.33333333305,
      "d": 400,
      "v": 82
    },
    {
      "midi": 80,
      "hit": false,
      "t": 170233.33333333305,
      "d": 200,
      "v": 56
    },
    {
      "midi": 76,
      "hit": false,
      "t": 170499.9999999997,
      "d": 1533.333333333314,
      "v": 57
    },
    {
      "midi": 80,
      "hit": false,
      "t": 170566.66666666637,
      "d": 1450,
      "v": 72
    },
    {
      "midi": 83,
      "hit": false,
      "t": 170649.9999999997,
      "d": 1366.666666666657,
      "v": 70
    },
    {
      "midi": 88,
      "hit": false,
      "t": 170699.9999999997,
      "d": 1316.666666666657,
      "v": 76
    },
    {
      "midi": 69,
      "hit": false,
      "t": 172599.99999999968,
      "d": 83.33333333334303,
      "v": 63
    },
    {
      "midi": 60,
      "hit": false,
      "t": 172599.99999999968,
      "d": 100,
      "v": 55
    },
    {
      "midi": 64,
      "hit": false,
      "t": 172599.99999999968,
      "d": 100,
      "v": 57
    },
    {
      "midi": 60,
      "hit": false,
      "t": 172933.33333333302,
      "d": 100,
      "v": 49
    },
    {
      "midi": 64,
      "hit": false,
      "t": 172933.33333333302,
      "d": 100,
      "v": 59
    },
    {
      "midi": 69,
      "hit": false,
      "t": 172933.33333333302,
      "d": 133.33333333334303,
      "v": 52
    },
    {
      "midi": 60,
      "hit": false,
      "t": 173266.66666666637,
      "d": 100,
      "v": 41
    },
    {
      "midi": 64,
      "hit": false,
      "t": 173266.66666666637,
      "d": 116.66666666665697,
      "v": 55
    },
    {
      "midi": 69,
      "hit": false,
      "t": 173266.66666666637,
      "d": 116.66666666665697,
      "v": 44
    },
    {
      "midi": 60,
      "hit": false,
      "t": 173599.99999999968,
      "d": 100,
      "v": 53
    },
    {
      "midi": 64,
      "hit": false,
      "t": 173599.99999999968,
      "d": 100,
      "v": 56
    },
    {
      "midi": 69,
      "hit": false,
      "t": 173599.99999999968,
      "d": 116.66666666665697,
      "v": 58
    },
    {
      "midi": 60,
      "hit": false,
      "t": 173933.333333333,
      "d": 100,
      "v": 48
    },
    {
      "midi": 64,
      "hit": false,
      "t": 173933.333333333,
      "d": 100,
      "v": 55
    },
    {
      "midi": 69,
      "hit": false,
      "t": 173933.333333333,
      "d": 116.66666666665697,
      "v": 51
    },
    {
      "midi": 64,
      "hit": false,
      "t": 174266.6666666663,
      "d": 100,
      "v": 61
    },
    {
      "midi": 60,
      "hit": false,
      "t": 174266.6666666663,
      "d": 116.66666666665697,
      "v": 44
    },
    {
      "midi": 69,
      "hit": false,
      "t": 174266.6666666663,
      "d": 133.33333333331393,
      "v": 51
    },
    {
      "midi": 64,
      "hit": false,
      "t": 174599.99999999962,
      "d": 116.66666666665697,
      "v": 70
    },
    {
      "midi": 61,
      "hit": false,
      "t": 174599.99999999962,
      "d": 133.33333333331393,
      "v": 56
    },
    {
      "midi": 67,
      "hit": false,
      "t": 174599.99999999962,
      "d": 149.9999999999709,
      "v": 60
    },
    {
      "midi": 61,
      "hit": false,
      "t": 174916.66666666625,
      "d": 116.66666666665697,
      "v": 52
    },
    {
      "midi": 64,
      "hit": false,
      "t": 174916.66666666625,
      "d": 133.33333333331393,
      "v": 58
    },
    {
      "midi": 67,
      "hit": false,
      "t": 174916.66666666625,
      "d": 133.33333333331393,
      "v": 57
    },
    {
      "midi": 64,
      "hit": false,
      "t": 175249.99999999956,
      "d": 133.33333333334303,
      "v": 54
    },
    {
      "midi": 67,
      "hit": false,
      "t": 175249.99999999956,
      "d": 133.33333333334303,
      "v": 60
    },
    {
      "midi": 61,
      "hit": false,
      "t": 175249.99999999956,
      "d": 150,
      "v": 54
    },
    {
      "midi": 67,
      "hit": false,
      "t": 175583.3333333329,
      "d": 116.66666666665697,
      "v": 61
    },
    {
      "midi": 61,
      "hit": false,
      "t": 175583.3333333329,
      "d": 133.33333333331393,
      "v": 57
    },
    {
      "midi": 64,
      "hit": false,
      "t": 175583.3333333329,
      "d": 133.33333333331393,
      "v": 53
    },
    {
      "midi": 64,
      "hit": false,
      "t": 175916.66666666622,
      "d": 116.66666666665697,
      "v": 46
    },
    {
      "midi": 67,
      "hit": false,
      "t": 175916.66666666622,
      "d": 116.66666666665697,
      "v": 59
    },
    {
      "midi": 61,
      "hit": false,
      "t": 175916.66666666622,
      "d": 150,
      "v": 52
    },
    {
      "midi": 61,
      "hit": false,
      "t": 176249.99999999956,
      "d": 100,
      "v": 39
    },
    {
      "midi": 64,
      "hit": false,
      "t": 176249.99999999956,
      "d": 133.33333333334303,
      "v": 47
    },
    {
      "midi": 67,
      "hit": false,
      "t": 176249.99999999956,
      "d": 183.33333333334303,
      "v": 60
    },
    {
      "midi": 69,
      "hit": false,
      "t": 176583.3333333329,
      "d": 116.66666666665697,
      "v": 45
    },
    {
      "midi": 65,
      "hit": false,
      "t": 176583.3333333329,
      "d": 150,
      "v": 63
    },
    {
      "midi": 62,
      "hit": false,
      "t": 176583.3333333329,
      "d": 183.33333333334303,
      "v": 59
    },
    {
      "midi": 69,
      "hit": false,
      "t": 176899.9999999996,
      "d": 100,
      "v": 47
    },
    {
      "midi": 62,
      "hit": false,
      "t": 176899.9999999996,
      "d": 150,
      "v": 39
    },
    {
      "midi": 65,
      "hit": false,
      "t": 176899.9999999996,
      "d": 150,
      "v": 50
    },
    {
      "midi": 65,
      "hit": false,
      "t": 177233.33333333294,
      "d": 116.66666666665697,
      "v": 53
    },
    {
      "midi": 69,
      "hit": false,
      "t": 177233.33333333294,
      "d": 133.33333333331393,
      "v": 45
    },
    {
      "midi": 62,
      "hit": false,
      "t": 177233.33333333294,
      "d": 149.9999999999709,
      "v": 37
    },
    {
      "midi": 65,
      "hit": false,
      "t": 177566.66666666625,
      "d": 116.66666666665697,
      "v": 62
    },
    {
      "midi": 69,
      "hit": false,
      "t": 177566.66666666625,
      "d": 133.33333333331393,
      "v": 51
    },
    {
      "midi": 62,
      "hit": false,
      "t": 177566.66666666625,
      "d": 149.9999999999709,
      "v": 53
    },
    {
      "midi": 69,
      "hit": false,
      "t": 177899.99999999956,
      "d": 83.33333333334303,
      "v": 41
    },
    {
      "midi": 62,
      "hit": false,
      "t": 177899.99999999956,
      "d": 116.66666666668607,
      "v": 39
    },
    {
      "midi": 65,
      "hit": false,
      "t": 177899.99999999956,
      "d": 116.66666666668607,
      "v": 48
    },
    {
      "midi": 65,
      "hit": false,
      "t": 178233.3333333329,
      "d": 100,
      "v": 46
    },
    {
      "midi": 69,
      "hit": false,
      "t": 178233.3333333329,
      "d": 100,
      "v": 42
    },
    {
      "midi": 62,
      "hit": false,
      "t": 178233.3333333329,
      "d": 133.33333333334303,
      "v": 35
    },
    {
      "midi": 65,
      "hit": false,
      "t": 178566.66666666625,
      "d": 116.66666666665697,
      "v": 52
    },
    {
      "midi": 69,
      "hit": false,
      "t": 178566.66666666625,
      "d": 116.66666666665697,
      "v": 42
    },
    {
      "midi": 62,
      "hit": false,
      "t": 178566.66666666625,
      "d": 133.33333333331393,
      "v": 33
    },
    {
      "midi": 65,
      "hit": false,
      "t": 178883.3333333329,
      "d": 116.66666666665697,
      "v": 52
    },
    {
      "midi": 69,
      "hit": false,
      "t": 178883.3333333329,
      "d": 116.66666666665697,
      "v": 37
    },
    {
      "midi": 62,
      "hit": false,
      "t": 178883.3333333329,
      "d": 133.33333333331393,
      "v": 33
    },
    {
      "midi": 65,
      "hit": false,
      "t": 179216.66666666622,
      "d": 116.66666666665697,
      "v": 48
    },
    {
      "midi": 69,
      "hit": false,
      "t": 179216.66666666622,
      "d": 116.66666666665697,
      "v": 40
    },
    {
      "midi": 62,
      "hit": false,
      "t": 179216.66666666622,
      "d": 133.33333333331393,
      "v": 29
    },
    {
      "midi": 65,
      "hit": false,
      "t": 179549.99999999953,
      "d": 116.66666666665697,
      "v": 68
    },
    {
      "midi": 69,
      "hit": false,
      "t": 179549.99999999953,
      "d": 116.66666666665697,
      "v": 57
    },
    {
      "midi": 62,
      "hit": false,
      "t": 179549.99999999953,
      "d": 133.33333333331393,
      "v": 57
    },
    {
      "midi": 69,
      "hit": false,
      "t": 179883.33333333285,
      "d": 100,
      "v": 42
    },
    {
      "midi": 62,
      "hit": false,
      "t": 179883.33333333285,
      "d": 116.66666666665697,
      "v": 41
    },
    {
      "midi": 65,
      "hit": false,
      "t": 179883.33333333285,
      "d": 116.66666666665697,
      "v": 58
    },
    {
      "midi": 69,
      "hit": false,
      "t": 180216.66666666616,
      "d": 83.33333333334303,
      "v": 41
    },
    {
      "midi": 62,
      "hit": false,
      "t": 180216.66666666616,
      "d": 116.66666666668607,
      "v": 40
    },
    {
      "midi": 65,
      "hit": false,
      "t": 180216.66666666616,
      "d": 116.66666666668607,
      "v": 51
    },
    {
      "midi": 69,
      "hit": false,
      "t": 180549.9999999995,
      "d": 100,
      "v": 45
    },
    {
      "midi": 65,
      "hit": false,
      "t": 180549.9999999995,
      "d": 116.66666666665697,
      "v": 57
    },
    {
      "midi": 62,
      "hit": false,
      "t": 180549.9999999995,
      "d": 133.33333333331393,
      "v": 46
    },
    {
      "midi": 62,
      "hit": false,
      "t": 180866.66666666616,
      "d": 116.66666666665697,
      "v": 45
    },
    {
      "midi": 65,
      "hit": false,
      "t": 180866.66666666616,
      "d": 116.66666666665697,
      "v": 58
    },
    {
      "midi": 69,
      "hit": false,
      "t": 180866.66666666616,
      "d": 116.66666666665697,
      "v": 38
    },
    {
      "midi": 69,
      "hit": false,
      "t": 181199.99999999948,
      "d": 100,
      "v": 39
    },
    {
      "midi": 62,
      "hit": false,
      "t": 181199.99999999948,
      "d": 116.66666666665697,
      "v": 39
    },
    {
      "midi": 65,
      "hit": false,
      "t": 181199.99999999948,
      "d": 116.66666666665697,
      "v": 56
    },
    {
      "midi": 69,
      "hit": false,
      "t": 181533.3333333328,
      "d": 100,
      "v": 47
    },
    {
      "midi": 65,
      "hit": false,
      "t": 181533.3333333328,
      "d": 116.66666666665697,
      "v": 60
    },
    {
      "midi": 62,
      "hit": false,
      "t": 181533.3333333328,
      "d": 133.33333333331393,
      "v": 51
    },
    {
      "midi": 69,
      "hit": false,
      "t": 181866.6666666661,
      "d": 100,
      "v": 36
    },
    {
      "midi": 65,
      "hit": false,
      "t": 181866.6666666661,
      "d": 116.66666666665697,
      "v": 53
    },
    {
      "midi": 62,
      "hit": false,
      "t": 181866.6666666661,
      "d": 133.33333333331393,
      "v": 37
    },
    {
      "midi": 69,
      "hit": false,
      "t": 182199.99999999942,
      "d": 100,
      "v": 39
    },
    {
      "midi": 65,
      "hit": false,
      "t": 182199.99999999942,
      "d": 116.66666666665697,
      "v": 55
    },
    {
      "midi": 62,
      "hit": false,
      "t": 182199.99999999942,
      "d": 133.33333333331393,
      "v": 38
    },
    {
      "midi": 62,
      "hit": false,
      "t": 182533.33333333273,
      "d": 116.66666666665697,
      "v": 39
    },
    {
      "midi": 65,
      "hit": false,
      "t": 182533.33333333273,
      "d": 116.66666666665697,
      "v": 55
    },
    {
      "midi": 69,
      "hit": false,
      "t": 182533.33333333273,
      "d": 116.66666666665697,
      "v": 39
    },
    {
      "midi": 69,
      "hit": false,
      "t": 182866.66666666605,
      "d": 83.33333333334303,
      "v": 41
    },
    {
      "midi": 65,
      "hit": false,
      "t": 182866.66666666605,
      "d": 100,
      "v": 48
    },
    {
      "midi": 62,
      "hit": false,
      "t": 182866.66666666605,
      "d": 116.66666666665697,
      "v": 42
    },
    {
      "midi": 69,
      "hit": false,
      "t": 183183.3333333327,
      "d": 100,
      "v": 48
    },
    {
      "midi": 62,
      "hit": false,
      "t": 183183.3333333327,
      "d": 116.66666666665697,
      "v": 51
    },
    {
      "midi": 65,
      "hit": false,
      "t": 183183.3333333327,
      "d": 116.66666666665697,
      "v": 58
    },
    {
      "midi": 69,
      "hit": false,
      "t": 183516.66666666602,
      "d": 100,
      "v": 58
    },
    {
      "midi": 62,
      "hit": false,
      "t": 183516.66666666602,
      "d": 116.66666666665697,
      "v": 58
    },
    {
      "midi": 65,
      "hit": false,
      "t": 183516.66666666602,
      "d": 116.66666666665697,
      "v": 64
    },
    {
      "midi": 69,
      "hit": false,
      "t": 183849.99999999933,
      "d": 83.33333333334303,
      "v": 44
    },
    {
      "midi": 62,
      "hit": false,
      "t": 183849.99999999933,
      "d": 100,
      "v": 52
    },
    {
      "midi": 65,
      "hit": false,
      "t": 183849.99999999933,
      "d": 100,
      "v": 52
    },
    {
      "midi": 69,
      "hit": false,
      "t": 184183.33333333267,
      "d": 83.33333333334303,
      "v": 47
    },
    {
      "midi": 62,
      "hit": false,
      "t": 184183.33333333267,
      "d": 116.66666666668607,
      "v": 54
    },
    {
      "midi": 65,
      "hit": false,
      "t": 184183.33333333267,
      "d": 116.66666666668607,
      "v": 60
    },
    {
      "midi": 64,
      "hit": false,
      "t": 184516.66666666602,
      "d": 83.33333333334303,
      "v": 70
    },
    {
      "midi": 60,
      "hit": false,
      "t": 184516.66666666602,
      "d": 100,
      "v": 61
    },
    {
      "midi": 69,
      "hit": false,
      "t": 184516.66666666602,
      "d": 116.66666666665697,
      "v": 66
    },
    {
      "midi": 64,
      "hit": false,
      "t": 184849.99999999933,
      "d": 66.66666666665697,
      "v": 64
    },
    {
      "midi": 60,
      "hit": false,
      "t": 184849.99999999933,
      "d": 100,
      "v": 52
    },
    {
      "midi": 69,
      "hit": false,
      "t": 184849.99999999933,
      "d": 100,
      "v": 60
    },
    {
      "midi": 64,
      "hit": false,
      "t": 185166.666666666,
      "d": 83.33333333334303,
      "v": 59
    },
    {
      "midi": 60,
      "hit": false,
      "t": 185166.666666666,
      "d": 100,
      "v": 44
    },
    {
      "midi": 69,
      "hit": false,
      "t": 185166.666666666,
      "d": 116.66666666665697,
      "v": 57
    },
    {
      "midi": 60,
      "hit": false,
      "t": 185499.9999999993,
      "d": 100,
      "v": 54
    },
    {
      "midi": 64,
      "hit": false,
      "t": 185499.9999999993,
      "d": 100,
      "v": 62
    },
    {
      "midi": 69,
      "hit": false,
      "t": 185499.9999999993,
      "d": 133.33333333334303,
      "v": 66
    },
    {
      "midi": 64,
      "hit": false,
      "t": 185833.33333333264,
      "d": 100,
      "v": 61
    },
    {
      "midi": 60,
      "hit": false,
      "t": 185833.33333333264,
      "d": 116.66666666665697,
      "v": 46
    },
    {
      "midi": 69,
      "hit": false,
      "t": 185833.33333333264,
      "d": 150,
      "v": 59
    },
    {
      "midi": 60,
      "hit": false,
      "t": 186166.666666666,
      "d": 66.66666666665697,
      "v": 44
    },
    {
      "midi": 64,
      "hit": false,
      "t": 186166.666666666,
      "d": 66.66666666665697,
      "v": 55
    },
    {
      "midi": 69,
      "hit": false,
      "t": 186166.666666666,
      "d": 83.33333333331393,
      "v": 63
    },
    {
      "midi": 67,
      "hit": false,
      "t": 186499.9999999993,
      "d": 83.33333333334303,
      "v": 68
    },
    {
      "midi": 59,
      "hit": false,
      "t": 186499.9999999993,
      "d": 100,
      "v": 55
    },
    {
      "midi": 62,
      "hit": false,
      "t": 186499.9999999993,
      "d": 133.33333333334303,
      "v": 74
    },
    {
      "midi": 67,
      "hit": false,
      "t": 186833.33333333264,
      "d": 50,
      "v": 41
    },
    {
      "midi": 59,
      "hit": false,
      "t": 186833.33333333264,
      "d": 83.33333333334303,
      "v": 48
    },
    {
      "midi": 62,
      "hit": false,
      "t": 186833.33333333264,
      "d": 100,
      "v": 52
    },
    {
      "midi": 59,
      "hit": false,
      "t": 187149.9999999993,
      "d": 100,
      "v": 52
    },
    {
      "midi": 67,
      "hit": false,
      "t": 187149.9999999993,
      "d": 100,
      "v": 58
    },
    {
      "midi": 62,
      "hit": false,
      "t": 187149.9999999993,
      "d": 116.66666666665697,
      "v": 57
    },
    {
      "midi": 67,
      "hit": false,
      "t": 187483.33333333262,
      "d": 100,
      "v": 52
    },
    {
      "midi": 62,
      "hit": false,
      "t": 187483.33333333262,
      "d": 116.66666666665697,
      "v": 57
    },
    {
      "midi": 59,
      "hit": false,
      "t": 187483.33333333262,
      "d": 133.33333333331393,
      "v": 55
    },
    {
      "midi": 67,
      "hit": false,
      "t": 187816.66666666593,
      "d": 83.33333333334303,
      "v": 53
    },
    {
      "midi": 62,
      "hit": false,
      "t": 187816.66666666593,
      "d": 100,
      "v": 57
    },
    {
      "midi": 59,
      "hit": false,
      "t": 187816.66666666593,
      "d": 116.66666666665697,
      "v": 53
    },
    {
      "midi": 62,
      "hit": false,
      "t": 188149.99999999924,
      "d": 83.33333333334303,
      "v": 58
    },
    {
      "midi": 59,
      "hit": false,
      "t": 188149.99999999924,
      "d": 100,
      "v": 52
    },
    {
      "midi": 67,
      "hit": false,
      "t": 188149.99999999924,
      "d": 116.66666666665697,
      "v": 68
    },
    {
      "midi": 60,
      "hit": false,
      "t": 188483.33333333256,
      "d": 100,
      "v": 63
    },
    {
      "midi": 57,
      "hit": false,
      "t": 188483.33333333256,
      "d": 116.66666666665697,
      "v": 66
    },
    {
      "midi": 65,
      "hit": false,
      "t": 188483.33333333256,
      "d": 133.33333333331393,
      "v": 72
    },
    {
      "midi": 57,
      "hit": false,
      "t": 188816.66666666587,
      "d": 83.33333333334303,
      "v": 49
    },
    {
      "midi": 60,
      "hit": false,
      "t": 188816.66666666587,
      "d": 100,
      "v": 59
    },
    {
      "midi": 65,
      "hit": false,
      "t": 188816.66666666587,
      "d": 116.66666666665697,
      "v": 51
    },
    {
      "midi": 57,
      "hit": false,
      "t": 189133.33333333253,
      "d": 100,
      "v": 48
    },
    {
      "midi": 60,
      "hit": false,
      "t": 189133.33333333253,
      "d": 100,
      "v": 57
    },
    {
      "midi": 65,
      "hit": false,
      "t": 189133.33333333253,
      "d": 133.33333333334303,
      "v": 52
    },
    {
      "midi": 57,
      "hit": false,
      "t": 189466.66666666587,
      "d": 100,
      "v": 57
    },
    {
      "midi": 60,
      "hit": false,
      "t": 189466.66666666587,
      "d": 116.66666666665697,
      "v": 58
    },
    {
      "midi": 65,
      "hit": false,
      "t": 189466.66666666587,
      "d": 150,
      "v": 56
    },
    {
      "midi": 57,
      "hit": false,
      "t": 189799.9999999992,
      "d": 100,
      "v": 51
    },
    {
      "midi": 60,
      "hit": false,
      "t": 189799.9999999992,
      "d": 133.33333333334303,
      "v": 51
    },
    {
      "midi": 65,
      "hit": false,
      "t": 189799.9999999992,
      "d": 133.33333333334303,
      "v": 51
    },
    {
      "midi": 60,
      "hit": false,
      "t": 190133.33333333256,
      "d": 66.66666666665697,
      "v": 49
    },
    {
      "midi": 57,
      "hit": false,
      "t": 190133.33333333256,
      "d": 100,
      "v": 54
    },
    {
      "midi": 65,
      "hit": false,
      "t": 190133.33333333256,
      "d": 100,
      "v": 58
    },
    {
      "midi": 56,
      "hit": false,
      "t": 190466.6666666659,
      "d": 100,
      "v": 45
    },
    {
      "midi": 59,
      "hit": false,
      "t": 190466.6666666659,
      "d": 100,
      "v": 43
    },
    {
      "midi": 52,
      "hit": false,
      "t": 190466.6666666659,
      "d": 116.66666666665697,
      "v": 60
    },
    {
      "midi": 59,
      "hit": false,
      "t": 190799.9999999992,
      "d": 83.33333333334303,
      "v": 49
    },
    {
      "midi": 52,
      "hit": false,
      "t": 190799.9999999992,
      "d": 116.66666666668607,
      "v": 53
    },
    {
      "midi": 62,
      "hit": false,
      "t": 190799.9999999992,
      "d": 116.66666666668607,
      "v": 55
    },
    {
      "midi": 56,
      "hit": false,
      "t": 190799.9999999992,
      "d": 133.33333333334303,
      "v": 55
    },
    {
      "midi": 59,
      "hit": false,
      "t": 191133.33333333256,
      "d": 50,
      "v": 49
    },
    {
      "midi": 56,
      "hit": false,
      "t": 191133.33333333256,
      "d": 83.33333333334303,
      "v": 53
    },
    {
      "midi": 52,
      "hit": false,
      "t": 191133.33333333256,
      "d": 100,
      "v": 46
    },
    {
      "midi": 62,
      "hit": false,
      "t": 191133.33333333256,
      "d": 133.33333333334303,
      "v": 51
    },
    {
      "midi": 59,
      "hit": false,
      "t": 191449.99999999924,
      "d": 83.33333333334303,
      "v": 60
    },
    {
      "midi": 52,
      "hit": false,
      "t": 191449.99999999924,
      "d": 116.66666666668607,
      "v": 53
    },
    {
      "midi": 56,
      "hit": false,
      "t": 191449.99999999924,
      "d": 133.33333333334303,
      "v": 55
    },
    {
      "midi": 62,
      "hit": false,
      "t": 191449.99999999924,
      "d": 133.33333333334303,
      "v": 63
    },
    {
      "midi": 59,
      "hit": false,
      "t": 191783.3333333326,
      "d": 83.33333333334303,
      "v": 55
    },
    {
      "midi": 56,
      "hit": false,
      "t": 191783.3333333326,
      "d": 116.66666666668607,
      "v": 57
    },
    {
      "midi": 52,
      "hit": false,
      "t": 191783.3333333326,
      "d": 133.33333333334303,
      "v": 48
    },
    {
      "midi": 62,
      "hit": false,
      "t": 191783.3333333326,
      "d": 133.33333333334303,
      "v": 46
    },
    {
      "midi": 62,
      "hit": false,
      "t": 192116.66666666593,
      "d": 66.66666666665697,
      "v": 26
    },
    {
      "midi": 59,
      "hit": false,
      "t": 192116.66666666593,
      "d": 83.33333333331393,
      "v": 44
    },
    {
      "midi": 56,
      "hit": false,
      "t": 192116.66666666593,
      "d": 99.9999999999709,
      "v": 47
    },
    {
      "midi": 52,
      "hit": false,
      "t": 192116.66666666593,
      "d": 116.66666666662786,
      "v": 33
    },
    {
      "midi": 57,
      "hit": false,
      "t": 192449.9999999992,
      "d": 1466.666666666657,
      "v": 70
    },
    {
      "midi": 53,
      "hit": false,
      "t": 192449.9999999992,
      "d": 1483.333333333314,
      "v": 63
    },
    {
      "midi": 62,
      "hit": false,
      "t": 192449.9999999992,
      "d": 1499.999999999971,
      "v": 74
    },
    {
      "midi": 59,
      "hit": false,
      "t": 194433.33333333253,
      "d": 83.33333333334303,
      "v": 48
    },
    {
      "midi": 64,
      "hit": false,
      "t": 194433.33333333253,
      "d": 83.33333333334303,
      "v": 29
    },
    {
      "midi": 52,
      "hit": false,
      "t": 194433.33333333253,
      "d": 133.33333333334303,
      "v": 57
    },
    {
      "midi": 56,
      "hit": false,
      "t": 194433.33333333253,
      "d": 150,
      "v": 57
    },
    {
      "midi": 59,
      "hit": false,
      "t": 194766.66666666587,
      "d": 50,
      "v": 39
    },
    {
      "midi": 52,
      "hit": false,
      "t": 194766.66666666587,
      "d": 116.66666666665697,
      "v": 29
    },
    {
      "midi": 56,
      "hit": false,
      "t": 194766.66666666587,
      "d": 116.66666666665697,
      "v": 54
    },
    {
      "midi": 64,
      "hit": false,
      "t": 194766.66666666587,
      "d": 116.66666666665697,
      "v": 26
    },
    {
      "midi": 59,
      "hit": false,
      "t": 195099.99999999919,
      "d": 83.33333333334303,
      "v": 57
    },
    {
      "midi": 52,
      "hit": false,
      "t": 195099.99999999919,
      "d": 133.33333333334303,
      "v": 53
    },
    {
      "midi": 56,
      "hit": false,
      "t": 195099.99999999919,
      "d": 133.33333333334303,
      "v": 58
    },
    {
      "midi": 64,
      "hit": false,
      "t": 195099.99999999919,
      "d": 150,
      "v": 47
    },
    {
      "midi": 59,
      "hit": false,
      "t": 195416.66666666584,
      "d": 83.33333333334303,
      "v": 58
    },
    {
      "midi": 56,
      "hit": false,
      "t": 195416.66666666584,
      "d": 133.33333333334303,
      "v": 60
    },
    {
      "midi": 52,
      "hit": false,
      "t": 195416.66666666584,
      "d": 150,
      "v": 57
    },
    {
      "midi": 64,
      "hit": false,
      "t": 195416.66666666584,
      "d": 150,
      "v": 43
    },
    {
      "midi": 59,
      "hit": false,
      "t": 195749.99999999919,
      "d": 100,
      "v": 49
    },
    {
      "midi": 64,
      "hit": false,
      "t": 195749.99999999919,
      "d": 100,
      "v": 28
    },
    {
      "midi": 52,
      "hit": false,
      "t": 195749.99999999919,
      "d": 116.66666666665697,
      "v": 35
    },
    {
      "midi": 56,
      "hit": false,
      "t": 195749.99999999919,
      "d": 133.33333333331393,
      "v": 53
    },
    {
      "midi": 59,
      "hit": false,
      "t": 196083.3333333325,
      "d": 116.66666666665697,
      "v": 51
    },
    {
      "midi": 64,
      "hit": false,
      "t": 196083.3333333325,
      "d": 133.33333333331393,
      "v": 30
    },
    {
      "midi": 52,
      "hit": false,
      "t": 196083.3333333325,
      "d": 149.9999999999709,
      "v": 38
    },
    {
      "midi": 56,
      "hit": false,
      "t": 196083.3333333325,
      "d": 166.66666666662786,
      "v": 55
    },
    {
      "midi": 59,
      "hit": false,
      "t": 196416.66666666578,
      "d": 116.66666666665697,
      "v": 56
    },
    {
      "midi": 64,
      "hit": false,
      "t": 196416.66666666578,
      "d": 116.66666666665697,
      "v": 37
    },
    {
      "midi": 52,
      "hit": false,
      "t": 196416.66666666578,
      "d": 133.33333333331393,
      "v": 53
    },
    {
      "midi": 56,
      "hit": false,
      "t": 196416.66666666578,
      "d": 133.33333333331393,
      "v": 55
    },
    {
      "midi": 52,
      "hit": false,
      "t": 196749.9999999991,
      "d": 100,
      "v": 30
    },
    {
      "midi": 59,
      "hit": false,
      "t": 196749.9999999991,
      "d": 100,
      "v": 48
    },
    {
      "midi": 56,
      "hit": false,
      "t": 196749.9999999991,
      "d": 116.66666666665697,
      "v": 51
    },
    {
      "midi": 64,
      "hit": false,
      "t": 196749.9999999991,
      "d": 116.66666666665697,
      "v": 25
    },
    {
      "midi": 59,
      "hit": false,
      "t": 197083.3333333324,
      "d": 100,
      "v": 58
    },
    {
      "midi": 64,
      "hit": false,
      "t": 197083.3333333324,
      "d": 116.66666666665697,
      "v": 43
    },
    {
      "midi": 52,
      "hit": false,
      "t": 197083.3333333324,
      "d": 133.33333333331393,
      "v": 45
    },
    {
      "midi": 56,
      "hit": false,
      "t": 197083.3333333324,
      "d": 133.33333333331393,
      "v": 55
    },
    {
      "midi": 59,
      "hit": false,
      "t": 197399.99999999907,
      "d": 133.33333333334303,
      "v": 59
    },
    {
      "midi": 52,
      "hit": false,
      "t": 197399.99999999907,
      "d": 150,
      "v": 53
    },
    {
      "midi": 64,
      "hit": false,
      "t": 197399.99999999907,
      "d": 150,
      "v": 49
    },
    {
      "midi": 56,
      "hit": false,
      "t": 197399.99999999907,
      "d": 166.66666666665697,
      "v": 57
    },
    {
      "midi": 59,
      "hit": false,
      "t": 197733.33333333238,
      "d": 100,
      "v": 54
    },
    {
      "midi": 52,
      "hit": false,
      "t": 197733.33333333238,
      "d": 133.33333333334303,
      "v": 57
    },
    {
      "midi": 56,
      "hit": false,
      "t": 197733.33333333238,
      "d": 133.33333333334303,
      "v": 57
    },
    {
      "midi": 64,
      "hit": false,
      "t": 197733.33333333238,
      "d": 133.33333333334303,
      "v": 39
    },
    {
      "midi": 59,
      "hit": false,
      "t": 198066.66666666573,
      "d": 133.33333333334303,
      "v": 60
    },
    {
      "midi": 56,
      "hit": false,
      "t": 198066.66666666573,
      "d": 150,
      "v": 60
    },
    {
      "midi": 52,
      "hit": false,
      "t": 198066.66666666573,
      "d": 166.66666666665697,
      "v": 60
    },
    {
      "midi": 64,
      "hit": false,
      "t": 198066.66666666573,
      "d": 166.66666666665697,
      "v": 50
    },
    {
      "midi": 45,
      "hit": false,
      "t": 198399.99999999904,
      "d": 1650,
      "v": 74
    },
    {
      "midi": 52,
      "hit": false,
      "t": 198733.33333333235,
      "d": 1400,
      "v": 70
    },
    {
      "midi": 57,
      "hit": false,
      "t": 199066.6666666657,
      "d": 933.333333333343,
      "v": 70
    },
    {
      "midi": 64,
      "hit": false,
      "t": 199399.99999999904,
      "d": 1766.6666666666279,
      "v": 68
    },
    {
      "midi": 69,
      "hit": false,
      "t": 199716.6666666657,
      "d": 583.3333333333139,
      "v": 80
    },
    {
      "midi": 71,
      "hit": false,
      "t": 200049.99999999904,
      "d": 299.9999999999709,
      "v": 62
    },
    {
      "midi": 72,
      "hit": false,
      "t": 200383.33333333235,
      "d": 766.666666666657,
      "v": 72
    },
    {
      "midi": 45,
      "hit": false,
      "t": 200383.33333333235,
      "d": 1466.6666666666279,
      "v": 74
    },
    {
      "midi": 52,
      "hit": false,
      "t": 200716.6666666657,
      "d": 1016.6666666666279,
      "v": 68
    },
    {
      "midi": 57,
      "hit": false,
      "t": 201049.999999999,
      "d": 633.3333333333139,
      "v": 70
    },
    {
      "midi": 64,
      "hit": false,
      "t": 201383.33333333232,
      "d": 1266.666666666657,
      "v": 68
    },
    {
      "midi": 71,
      "hit": false,
      "t": 201699.99999999898,
      "d": 283.33333333334303,
      "v": 58
    },
    {
      "midi": 69,
      "hit": false,
      "t": 202033.33333333232,
      "d": 183.33333333334303,
      "v": 78
    },
    {
      "midi": 67,
      "hit": false,
      "t": 202366.66666666567,
      "d": 299.9999999999709,
      "v": 89
    },
    {
      "midi": 36,
      "hit": false,
      "t": 202366.66666666567,
      "d": 1833.333333333314,
      "v": 76
    },
    {
      "midi": 43,
      "hit": false,
      "t": 202699.99999999898,
      "d": 1416.666666666657,
      "v": 82
    },
    {
      "midi": 48,
      "hit": false,
      "t": 203033.33333333232,
      "d": 1016.666666666657,
      "v": 62
    },
    {
      "midi": 60,
      "hit": false,
      "t": 203366.66666666564,
      "d": 616.666666666657,
      "v": 82
    },
    {
      "midi": 55,
      "hit": false,
      "t": 203683.3333333323,
      "d": 266.66666666665697,
      "v": 60
    },
    {
      "midi": 64,
      "hit": false,
      "t": 204016.66666666564,
      "d": 233.33333333334303,
      "v": 59
    },
    {
      "midi": 55,
      "hit": false,
      "t": 204016.66666666564,
      "d": 283.33333333334303,
      "v": 57
    },
    {
      "midi": 55,
      "hit": false,
      "t": 204349.99999999898,
      "d": 300,
      "v": 52
    },
    {
      "midi": 62,
      "hit": false,
      "t": 204349.99999999898,
      "d": 366.66666666668607,
      "v": 64
    },
    {
      "midi": 36,
      "hit": false,
      "t": 204349.99999999898,
      "d": 1266.666666666686,
      "v": 66
    },
    {
      "midi": 43,
      "hit": false,
      "t": 204683.33333333232,
      "d": 933.333333333343,
      "v": 76
    },
    {
      "midi": 48,
      "hit": false,
      "t": 205016.66666666567,
      "d": 766.6666666666861,
      "v": 62
    },
    {
      "midi": 64,
      "hit": false,
      "t": 205349.999999999,
      "d": 400,
      "v": 68
    },
    {
      "midi": 72,
      "hit": false,
      "t": 205349.999999999,
      "d": 1049.999999999971,
      "v": 82
    },
    {
      "midi": 67,
      "hit": false,
      "t": 205666.66666666567,
      "d": 650,
      "v": 72
    },
    {
      "midi": 64,
      "hit": false,
      "t": 205999.999999999,
      "d": 316.66666666665697,
      "v": 68
    },
    {
      "midi": 40,
      "hit": false,
      "t": 206333.33333333232,
      "d": 1783.333333333343,
      "v": 85
    },
    {
      "midi": 47,
      "hit": false,
      "t": 206666.66666666564,
      "d": 1533.333333333343,
      "v": 68
    },
    {
      "midi": 52,
      "hit": false,
      "t": 206999.99999999898,
      "d": 1133.333333333343,
      "v": 63
    },
    {
      "midi": 64,
      "hit": false,
      "t": 207333.33333333232,
      "d": 850,
      "v": 60
    },
    {
      "midi": 68,
      "hit": false,
      "t": 207666.66666666567,
      "d": 599.9999999999709,
      "v": 68
    },
    {
      "midi": 71,
      "hit": false,
      "t": 207983.33333333232,
      "d": 233.33333333331393,
      "v": 55
    },
    {
      "midi": 74,
      "hit": false,
      "t": 208316.66666666564,
      "d": 583.3333333333139,
      "v": 76
    },
    {
      "midi": 64,
      "hit": false,
      "t": 208316.66666666564,
      "d": 800,
      "v": 58
    },
    {
      "midi": 40,
      "hit": false,
      "t": 208316.66666666564,
      "d": 1416.666666666686,
      "v": 66
    },
    {
      "midi": 71,
      "hit": false,
      "t": 208649.99999999895,
      "d": 1216.666666666686,
      "v": 58
    },
    {
      "midi": 68,
      "hit": false,
      "t": 208983.3333333323,
      "d": 883.333333333343,
      "v": 62
    },
    {
      "midi": 64,
      "hit": false,
      "t": 209316.66666666564,
      "d": 483.33333333334303,
      "v": 59
    },
    {
      "midi": 52,
      "hit": false,
      "t": 209649.99999999898,
      "d": 500,
      "v": 70
    },
    {
      "midi": 68,
      "hit": false,
      "t": 209966.66666666564,
      "d": 250,
      "v": 66
    },
    {
      "midi": 71,
      "hit": false,
      "t": 209966.66666666564,
      "d": 266.66666666665697,
      "v": 59
    },
    {
      "midi": 64,
      "hit": false,
      "t": 209966.66666666564,
      "d": 316.66666666665697,
      "v": 60
    },
    {
      "midi": 45,
      "hit": false,
      "t": 210299.99999999895,
      "d": 1300,
      "v": 78
    },
    {
      "midi": 48,
      "hit": false,
      "t": 210633.3333333323,
      "d": 900,
      "v": 74
    },
    {
      "midi": 52,
      "hit": false,
      "t": 210966.66666666564,
      "d": 500,
      "v": 78
    },
    {
      "midi": 57,
      "hit": false,
      "t": 211299.99999999898,
      "d": 233.33333333331393,
      "v": 91
    },
    {
      "midi": 57,
      "hit": false,
      "t": 211633.3333333323,
      "d": 216.66666666665697,
      "v": 63
    },
    {
      "midi": 60,
      "hit": false,
      "t": 211633.3333333323,
      "d": 300,
      "v": 80
    },
    {
      "midi": 64,
      "hit": false,
      "t": 211949.99999999895,
      "d": 266.66666666662786,
      "v": 76
    },
    {
      "midi": 57,
      "hit": false,
      "t": 211949.99999999895,
      "d": 299.9999999999709,
      "v": 76
    },
    {
      "midi": 60,
      "hit": false,
      "t": 212283.33333333227,
      "d": 133.33333333334303,
      "v": 80
    },
    {
      "midi": 33,
      "hit": false,
      "t": 212283.33333333227,
      "d": 1466.6666666667152,
      "v": 85
    },
    {
      "midi": 40,
      "hit": false,
      "t": 212616.6666666656,
      "d": 1133.3333333333721,
      "v": 87
    },
    {
      "midi": 45,
      "hit": false,
      "t": 212949.99999999895,
      "d": 466.66666666668607,
      "v": 102
    },
    {
      "midi": 64,
      "hit": false,
      "t": 213283.3333333323,
      "d": 533.333333333343,
      "v": 93
    },
    {
      "midi": 72,
      "hit": false,
      "t": 213283.3333333323,
      "d": 616.6666666666861,
      "v": 95
    },
    {
      "midi": 45,
      "hit": false,
      "t": 213616.66666666564,
      "d": 283.33333333334303,
      "v": 89
    },
    {
      "midi": 64,
      "hit": false,
      "t": 213933.33333333232,
      "d": 200,
      "v": 60
    },
    {
      "midi": 71,
      "hit": false,
      "t": 213933.33333333232,
      "d": 216.66666666665697,
      "v": 63
    },
    {
      "midi": 69,
      "hit": false,
      "t": 214266.66666666564,
      "d": 133.33333333334303,
      "v": 78
    },
    {
      "midi": 64,
      "hit": false,
      "t": 214266.66666666564,
      "d": 150,
      "v": 78
    },
    {
      "midi": 52,
      "hit": false,
      "t": 214266.66666666564,
      "d": 1833.333333333314,
      "v": 80
    },
    {
      "midi": 45,
      "hit": false,
      "t": 214266.66666666564,
      "d": 3916.666666666657,
      "v": 85
    },
    {
      "midi": 69,
      "hit": false,
      "t": 214599.99999999898,
      "d": 100,
      "v": 80
    },
    {
      "midi": 64,
      "hit": false,
      "t": 214599.99999999898,
      "d": 116.66666666665697,
      "v": 63
    },
    {
      "midi": 69,
      "hit": false,
      "t": 214933.3333333323,
      "d": 100,
      "v": 76
    },
    {
      "midi": 64,
      "hit": false,
      "t": 214933.3333333323,
      "d": 116.66666666665697,
      "v": 68
    },
    {
      "midi": 64,
      "hit": false,
      "t": 215266.6666666656,
      "d": 100,
      "v": 70
    },
    {
      "midi": 69,
      "hit": false,
      "t": 215266.6666666656,
      "d": 100,
      "v": 87
    },
    {
      "midi": 64,
      "hit": false,
      "t": 215599.99999999895,
      "d": 83.33333333334303,
      "v": 66
    },
    {
      "midi": 69,
      "hit": false,
      "t": 215599.99999999895,
      "d": 83.33333333334303,
      "v": 78
    },
    {
      "midi": 64,
      "hit": false,
      "t": 215933.3333333323,
      "d": 116.66666666665697,
      "v": 64
    },
    {
      "midi": 69,
      "hit": false,
      "t": 215933.3333333323,
      "d": 133.33333333331393,
      "v": 82
    },
    {
      "midi": 67,
      "hit": false,
      "t": 216249.99999999895,
      "d": 100,
      "v": 78
    },
    {
      "midi": 64,
      "hit": false,
      "t": 216249.99999999895,
      "d": 116.66666666665697,
      "v": 72
    },
    {
      "midi": 49,
      "hit": false,
      "t": 216249.99999999895,
      "d": 1750,
      "v": 74
    },
    {
      "midi": 52,
      "hit": false,
      "t": 216249.99999999895,
      "d": 1783.333333333343,
      "v": 63
    },
    {
      "midi": 67,
      "hit": false,
      "t": 216583.33333333227,
      "d": 100,
      "v": 72
    },
    {
      "midi": 64,
      "hit": false,
      "t": 216583.33333333227,
      "d": 116.66666666665697,
      "v": 59
    },
    {
      "midi": 64,
      "hit": false,
      "t": 216916.66666666558,
      "d": 83.33333333334303,
      "v": 60
    },
    {
      "midi": 67,
      "hit": false,
      "t": 216916.66666666558,
      "d": 83.33333333334303,
      "v": 76
    },
    {
      "midi": 67,
      "hit": false,
      "t": 217249.99999999892,
      "d": 83.33333333334303,
      "v": 87
    },
    {
      "midi": 64,
      "hit": false,
      "t": 217249.99999999892,
      "d": 100,
      "v": 64
    },
    {
      "midi": 67,
      "hit": false,
      "t": 217583.33333333227,
      "d": 83.33333333334303,
      "v": 76
    },
    {
      "midi": 64,
      "hit": false,
      "t": 217583.33333333227,
      "d": 100,
      "v": 66
    },
    {
      "midi": 64,
      "hit": false,
      "t": 217916.6666666656,
      "d": 116.66666666668607,
      "v": 66
    },
    {
      "midi": 67,
      "hit": false,
      "t": 217916.6666666656,
      "d": 150.0000000000291,
      "v": 74
    },
    {
      "midi": 69,
      "hit": false,
      "t": 218233.3333333323,
      "d": 100,
      "v": 66
    },
    {
      "midi": 62,
      "hit": false,
      "t": 218233.3333333323,
      "d": 116.66666666665697,
      "v": 66
    },
    {
      "midi": 65,
      "hit": false,
      "t": 218233.3333333323,
      "d": 116.66666666665697,
      "v": 68
    },
    {
      "midi": 53,
      "hit": false,
      "t": 218233.3333333323,
      "d": 3516.666666666628,
      "v": 53
    },
    {
      "midi": 50,
      "hit": false,
      "t": 218233.3333333323,
      "d": 3666.666666666628,
      "v": 57
    },
    {
      "midi": 69,
      "hit": false,
      "t": 218566.6666666656,
      "d": 83.33333333334303,
      "v": 58
    },
    {
      "midi": 65,
      "hit": false,
      "t": 218566.6666666656,
      "d": 100,
      "v": 60
    },
    {
      "midi": 62,
      "hit": false,
      "t": 218566.6666666656,
      "d": 116.66666666665697,
      "v": 57
    },
    {
      "midi": 69,
      "hit": false,
      "t": 218899.99999999892,
      "d": 100,
      "v": 60
    },
    {
      "midi": 62,
      "hit": false,
      "t": 218899.99999999892,
      "d": 116.66666666665697,
      "v": 56
    },
    {
      "midi": 65,
      "hit": false,
      "t": 218899.99999999892,
      "d": 116.66666666665697,
      "v": 62
    },
    {
      "midi": 65,
      "hit": false,
      "t": 219233.33333333224,
      "d": 83.33333333334303,
      "v": 72
    },
    {
      "midi": 69,
      "hit": false,
      "t": 219233.33333333224,
      "d": 83.33333333334303,
      "v": 70
    },
    {
      "midi": 62,
      "hit": false,
      "t": 219233.33333333224,
      "d": 100,
      "v": 63
    },
    {
      "midi": 65,
      "hit": false,
      "t": 219566.66666666558,
      "d": 83.33333333334303,
      "v": 60
    },
    {
      "midi": 69,
      "hit": false,
      "t": 219566.66666666558,
      "d": 83.33333333334303,
      "v": 57
    },
    {
      "midi": 62,
      "hit": false,
      "t": 219566.66666666558,
      "d": 100,
      "v": 53
    },
    {
      "midi": 65,
      "hit": false,
      "t": 219899.99999999892,
      "d": 83.33333333334303,
      "v": 62
    },
    {
      "midi": 69,
      "hit": false,
      "t": 219899.99999999892,
      "d": 83.33333333334303,
      "v": 59
    },
    {
      "midi": 62,
      "hit": false,
      "t": 219899.99999999892,
      "d": 100,
      "v": 55
    },
    {
      "midi": 69,
      "hit": false,
      "t": 220216.66666666558,
      "d": 83.33333333334303,
      "v": 66
    },
    {
      "midi": 65,
      "hit": false,
      "t": 220216.66666666558,
      "d": 100,
      "v": 66
    },
    {
      "midi": 62,
      "hit": false,
      "t": 220216.66666666558,
      "d": 116.66666666665697,
      "v": 59
    },
    {
      "midi": 65,
      "hit": false,
      "t": 220549.9999999989,
      "d": 83.33333333334303,
      "v": 61
    },
    {
      "midi": 69,
      "hit": false,
      "t": 220549.9999999989,
      "d": 83.33333333334303,
      "v": 53
    },
    {
      "midi": 62,
      "hit": false,
      "t": 220549.9999999989,
      "d": 100,
      "v": 55
    },
    {
      "midi": 69,
      "hit": false,
      "t": 220883.33333333224,
      "d": 83.33333333334303,
      "v": 58
    },
    {
      "midi": 62,
      "hit": false,
      "t": 220883.33333333224,
      "d": 100,
      "v": 52
    },
    {
      "midi": 65,
      "hit": false,
      "t": 220883.33333333224,
      "d": 100,
      "v": 58
    },
    {
      "midi": 69,
      "hit": false,
      "t": 221216.66666666558,
      "d": 83.33333333334303,
      "v": 68
    },
    {
      "midi": 62,
      "hit": false,
      "t": 221216.66666666558,
      "d": 100,
      "v": 58
    },
    {
      "midi": 65,
      "hit": false,
      "t": 221216.66666666558,
      "d": 100,
      "v": 66
    },
    {
      "midi": 69,
      "hit": false,
      "t": 221549.99999999892,
      "d": 83.33333333334303,
      "v": 63
    },
    {
      "midi": 62,
      "hit": false,
      "t": 221549.99999999892,
      "d": 100,
      "v": 57
    },
    {
      "midi": 65,
      "hit": false,
      "t": 221549.99999999892,
      "d": 100,
      "v": 62
    },
    {
      "midi": 69,
      "hit": false,
      "t": 221883.33333333227,
      "d": 66.66666666665697,
      "v": 59
    },
    {
      "midi": 65,
      "hit": false,
      "t": 221883.33333333227,
      "d": 83.33333333331393,
      "v": 60
    },
    {
      "midi": 62,
      "hit": false,
      "t": 221883.33333333227,
      "d": 99.9999999999709,
      "v": 57
    },
    {
      "midi": 69,
      "hit": false,
      "t": 222199.9999999989,
      "d": 100,
      "v": 70
    },
    {
      "midi": 65,
      "hit": false,
      "t": 222199.9999999989,
      "d": 116.66666666665697,
      "v": 66
    },
    {
      "midi": 62,
      "hit": false,
      "t": 222199.9999999989,
      "d": 133.33333333331393,
      "v": 58
    },
    {
      "midi": 53,
      "hit": false,
      "t": 222199.9999999989,
      "d": 3699.9999999998836,
      "v": 60
    },
    {
      "midi": 50,
      "hit": false,
      "t": 222199.9999999989,
      "d": 3899.9999999998836,
      "v": 70
    },
    {
      "midi": 69,
      "hit": false,
      "t": 222533.3333333322,
      "d": 83.33333333334303,
      "v": 55
    },
    {
      "midi": 65,
      "hit": false,
      "t": 222533.3333333322,
      "d": 100,
      "v": 59
    },
    {
      "midi": 62,
      "hit": false,
      "t": 222533.3333333322,
      "d": 116.66666666665697,
      "v": 56
    },
    {
      "midi": 69,
      "hit": false,
      "t": 222866.66666666552,
      "d": 100,
      "v": 66
    },
    {
      "midi": 62,
      "hit": false,
      "t": 222866.66666666552,
      "d": 116.66666666665697,
      "v": 59
    },
    {
      "midi": 65,
      "hit": false,
      "t": 222866.66666666552,
      "d": 116.66666666665697,
      "v": 61
    },
    {
      "midi": 69,
      "hit": false,
      "t": 223199.99999999884,
      "d": 83.33333333334303,
      "v": 63
    },
    {
      "midi": 65,
      "hit": false,
      "t": 223199.99999999884,
      "d": 100,
      "v": 68
    },
    {
      "midi": 62,
      "hit": false,
      "t": 223199.99999999884,
      "d": 116.66666666665697,
      "v": 59
    },
    {
      "midi": 69,
      "hit": false,
      "t": 223533.33333333215,
      "d": 66.66666666665697,
      "v": 63
    },
    {
      "midi": 65,
      "hit": false,
      "t": 223533.33333333215,
      "d": 83.33333333331393,
      "v": 62
    },
    {
      "midi": 62,
      "hit": false,
      "t": 223533.33333333215,
      "d": 99.9999999999709,
      "v": 57
    },
    {
      "midi": 65,
      "hit": false,
      "t": 223866.66666666546,
      "d": 83.33333333334303,
      "v": 63
    },
    {
      "midi": 69,
      "hit": false,
      "t": 223866.66666666546,
      "d": 83.33333333334303,
      "v": 64
    },
    {
      "midi": 62,
      "hit": false,
      "t": 223866.66666666546,
      "d": 100,
      "v": 57
    },
    {
      "midi": 65,
      "hit": false,
      "t": 224199.9999999988,
      "d": 83.33333333334303,
      "v": 66
    },
    {
      "midi": 69,
      "hit": false,
      "t": 224199.9999999988,
      "d": 83.33333333334303,
      "v": 68
    },
    {
      "midi": 62,
      "hit": false,
      "t": 224199.9999999988,
      "d": 100,
      "v": 59
    },
    {
      "midi": 69,
      "hit": false,
      "t": 224516.66666666546,
      "d": 83.33333333334303,
      "v": 60
    },
    {
      "midi": 65,
      "hit": false,
      "t": 224516.66666666546,
      "d": 100,
      "v": 61
    },
    {
      "midi": 62,
      "hit": false,
      "t": 224516.66666666546,
      "d": 116.66666666665697,
      "v": 56
    },
    {
      "midi": 69,
      "hit": false,
      "t": 224849.99999999878,
      "d": 83.33333333334303,
      "v": 57
    },
    {
      "midi": 65,
      "hit": false,
      "t": 224849.99999999878,
      "d": 100,
      "v": 60
    },
    {
      "midi": 62,
      "hit": false,
      "t": 224849.99999999878,
      "d": 116.66666666665697,
      "v": 56
    },
    {
      "midi": 69,
      "hit": false,
      "t": 225183.3333333321,
      "d": 83.33333333334303,
      "v": 70
    },
    {
      "midi": 62,
      "hit": false,
      "t": 225183.3333333321,
      "d": 100,
      "v": 62
    },
    {
      "midi": 65,
      "hit": false,
      "t": 225183.3333333321,
      "d": 100,
      "v": 68
    },
    {
      "midi": 69,
      "hit": false,
      "t": 225516.66666666543,
      "d": 66.66666666665697,
      "v": 56
    },
    {
      "midi": 62,
      "hit": false,
      "t": 225516.66666666543,
      "d": 100,
      "v": 56
    },
    {
      "midi": 65,
      "hit": false,
      "t": 225516.66666666543,
      "d": 100,
      "v": 60
    },
    {
      "midi": 65,
      "hit": false,
      "t": 225849.99999999878,
      "d": 83.33333333334303,
      "v": 61
    },
    {
      "midi": 69,
      "hit": false,
      "t": 225849.99999999878,
      "d": 100,
      "v": 66
    },
    {
      "midi": 62,
      "hit": false,
      "t": 225849.99999999878,
      "d": 116.66666666665697,
      "v": 59
    },
    {
      "midi": 64,
      "hit": false,
      "t": 226183.33333333212,
      "d": 100,
      "v": 68
    },
    {
      "midi": 60,
      "hit": false,
      "t": 226183.33333333212,
      "d": 116.66666666665697,
      "v": 62
    },
    {
      "midi": 69,
      "hit": false,
      "t": 226183.33333333212,
      "d": 116.66666666665697,
      "v": 72
    },
    {
      "midi": 45,
      "hit": false,
      "t": 226183.33333333212,
      "d": 1416.666666666686,
      "v": 68
    },
    {
      "midi": 60,
      "hit": false,
      "t": 226499.99999999878,
      "d": 100,
      "v": 55
    },
    {
      "midi": 64,
      "hit": false,
      "t": 226499.99999999878,
      "d": 100,
      "v": 57
    },
    {
      "midi": 69,
      "hit": false,
      "t": 226499.99999999878,
      "d": 100,
      "v": 52
    },
    {
      "midi": 60,
      "hit": false,
      "t": 226833.33333333212,
      "d": 100,
      "v": 57
    },
    {
      "midi": 64,
      "hit": false,
      "t": 226833.33333333212,
      "d": 100,
      "v": 59
    },
    {
      "midi": 69,
      "hit": false,
      "t": 226833.33333333212,
      "d": 100,
      "v": 57
    },
    {
      "midi": 60,
      "hit": false,
      "t": 227166.66666666546,
      "d": 100,
      "v": 60
    },
    {
      "midi": 64,
      "hit": false,
      "t": 227166.66666666546,
      "d": 100,
      "v": 68
    },
    {
      "midi": 69,
      "hit": false,
      "t": 227166.66666666546,
      "d": 100,
      "v": 66
    },
    {
      "midi": 69,
      "hit": false,
      "t": 227499.9999999988,
      "d": 83.33333333334303,
      "v": 66
    },
    {
      "midi": 60,
      "hit": false,
      "t": 227499.9999999988,
      "d": 100,
      "v": 60
    },
    {
      "midi": 64,
      "hit": false,
      "t": 227499.9999999988,
      "d": 100,
      "v": 68
    },
    {
      "midi": 64,
      "hit": false,
      "t": 227833.33333333215,
      "d": 50,
      "v": 52
    },
    {
      "midi": 69,
      "hit": false,
      "t": 227833.33333333215,
      "d": 100,
      "v": 66
    },
    {
      "midi": 60,
      "hit": false,
      "t": 227833.33333333215,
      "d": 116.66666666665697,
      "v": 59
    },
    {
      "midi": 67,
      "hit": false,
      "t": 228166.66666666546,
      "d": 116.66666666665697,
      "v": 70
    },
    {
      "midi": 59,
      "hit": false,
      "t": 228166.66666666546,
      "d": 133.33333333331393,
      "v": 54
    },
    {
      "midi": 62,
      "hit": false,
      "t": 228166.66666666546,
      "d": 133.33333333331393,
      "v": 66
    },
    {
      "midi": 43,
      "hit": false,
      "t": 228166.66666666546,
      "d": 1433.333333333343,
      "v": 74
    },
    {
      "midi": 50,
      "hit": false,
      "t": 228166.66666666546,
      "d": 1833.333333333343,
      "v": 59
    },
    {
      "midi": 67,
      "hit": false,
      "t": 228483.33333333212,
      "d": 83.33333333334303,
      "v": 52
    },
    {
      "midi": 59,
      "hit": false,
      "t": 228483.33333333212,
      "d": 116.66666666668607,
      "v": 57
    },
    {
      "midi": 62,
      "hit": false,
      "t": 228483.33333333212,
      "d": 116.66666666668607,
      "v": 55
    },
    {
      "midi": 67,
      "hit": false,
      "t": 228816.66666666546,
      "d": 100,
      "v": 72
    },
    {
      "midi": 59,
      "hit": false,
      "t": 228816.66666666546,
      "d": 133.33333333334303,
      "v": 60
    },
    {
      "midi": 62,
      "hit": false,
      "t": 228816.66666666546,
      "d": 150,
      "v": 64
    },
    {
      "midi": 67,
      "hit": false,
      "t": 229149.9999999988,
      "d": 116.66666666665697,
      "v": 85
    },
    {
      "midi": 59,
      "hit": false,
      "t": 229149.9999999988,
      "d": 150,
      "v": 60
    },
    {
      "midi": 62,
      "hit": false,
      "t": 229149.9999999988,
      "d": 150,
      "v": 74
    },
    {
      "midi": 67,
      "hit": false,
      "t": 229483.33333333215,
      "d": 100,
      "v": 74
    },
    {
      "midi": 59,
      "hit": false,
      "t": 229483.33333333215,
      "d": 133.33333333331393,
      "v": 60
    },
    {
      "midi": 62,
      "hit": false,
      "t": 229483.33333333215,
      "d": 133.33333333331393,
      "v": 64
    },
    {
      "midi": 59,
      "hit": false,
      "t": 229816.66666666546,
      "d": 116.66666666665697,
      "v": 57
    },
    {
      "midi": 62,
      "hit": false,
      "t": 229816.66666666546,
      "d": 116.66666666665697,
      "v": 57
    },
    {
      "midi": 67,
      "hit": false,
      "t": 229816.66666666546,
      "d": 150,
      "v": 72
    },
    {
      "midi": 57,
      "hit": false,
      "t": 230149.9999999988,
      "d": 116.66666666665697,
      "v": 60
    },
    {
      "midi": 60,
      "hit": false,
      "t": 230149.9999999988,
      "d": 133.33333333331393,
      "v": 64
    },
    {
      "midi": 65,
      "hit": false,
      "t": 230149.9999999988,
      "d": 149.9999999999709,
      "v": 70
    },
    {
      "midi": 48,
      "hit": false,
      "t": 230149.9999999988,
      "d": 1549.9999999999418,
      "v": 64
    },
    {
      "midi": 41,
      "hit": false,
      "t": 230149.9999999988,
      "d": 1566.6666666665988,
      "v": 70
    },
    {
      "midi": 57,
      "hit": false,
      "t": 230466.66666666543,
      "d": 100,
      "v": 55
    },
    {
      "midi": 60,
      "hit": false,
      "t": 230466.66666666543,
      "d": 116.66666666665697,
      "v": 57
    },
    {
      "midi": 65,
      "hit": false,
      "t": 230466.66666666543,
      "d": 116.66666666665697,
      "v": 51
    },
    {
      "midi": 57,
      "hit": false,
      "t": 230799.99999999875,
      "d": 100,
      "v": 57
    },
    {
      "midi": 60,
      "hit": false,
      "t": 230799.99999999875,
      "d": 100,
      "v": 60
    },
    {
      "midi": 65,
      "hit": false,
      "t": 230799.99999999875,
      "d": 100,
      "v": 64
    },
    {
      "midi": 57,
      "hit": false,
      "t": 231133.3333333321,
      "d": 100,
      "v": 58
    },
    {
      "midi": 60,
      "hit": false,
      "t": 231133.3333333321,
      "d": 116.66666666665697,
      "v": 66
    },
    {
      "midi": 65,
      "hit": false,
      "t": 231133.3333333321,
      "d": 116.66666666665697,
      "v": 72
    },
    {
      "midi": 57,
      "hit": false,
      "t": 231466.6666666654,
      "d": 83.33333333334303,
      "v": 58
    },
    {
      "midi": 60,
      "hit": false,
      "t": 231466.6666666654,
      "d": 116.66666666668607,
      "v": 59
    },
    {
      "midi": 65,
      "hit": false,
      "t": 231466.6666666654,
      "d": 116.66666666668607,
      "v": 68
    },
    {
      "midi": 60,
      "hit": false,
      "t": 231799.99999999875,
      "d": 83.33333333334303,
      "v": 60
    },
    {
      "midi": 57,
      "hit": false,
      "t": 231799.99999999875,
      "d": 116.66666666668607,
      "v": 58
    },
    {
      "midi": 65,
      "hit": false,
      "t": 231799.99999999875,
      "d": 116.66666666668607,
      "v": 68
    },
    {
      "midi": 59,
      "hit": false,
      "t": 232133.3333333321,
      "d": 150,
      "v": 59
    },
    {
      "midi": 56,
      "hit": false,
      "t": 232133.3333333321,
      "d": 166.66666666665697,
      "v": 61
    },
    {
      "midi": 40,
      "hit": false,
      "t": 232133.3333333321,
      "d": 1483.3333333332848,
      "v": 70
    },
    {
      "midi": 59,
      "hit": false,
      "t": 232466.6666666654,
      "d": 116.66666666665697,
      "v": 60
    },
    {
      "midi": 56,
      "hit": false,
      "t": 232466.6666666654,
      "d": 150,
      "v": 57
    },
    {
      "midi": 52,
      "hit": false,
      "t": 232783.33333333206,
      "d": 100,
      "v": 57
    },
    {
      "midi": 59,
      "hit": false,
      "t": 232783.33333333206,
      "d": 100,
      "v": 57
    },
    {
      "midi": 56,
      "hit": false,
      "t": 232783.33333333206,
      "d": 116.66666666665697,
      "v": 54
    },
    {
      "midi": 52,
      "hit": false,
      "t": 233116.66666666538,
      "d": 100,
      "v": 60
    },
    {
      "midi": 56,
      "hit": false,
      "t": 233116.66666666538,
      "d": 100,
      "v": 56
    },
    {
      "midi": 59,
      "hit": false,
      "t": 233116.66666666538,
      "d": 100,
      "v": 58
    },
    {
      "midi": 52,
      "hit": false,
      "t": 233449.99999999872,
      "d": 100,
      "v": 57
    },
    {
      "midi": 59,
      "hit": false,
      "t": 233449.99999999872,
      "d": 100,
      "v": 54
    },
    {
      "midi": 56,
      "hit": false,
      "t": 233449.99999999872,
      "d": 116.66666666665697,
      "v": 54
    },
    {
      "midi": 52,
      "hit": false,
      "t": 233783.33333333203,
      "d": 83.33333333334303,
      "v": 35
    },
    {
      "midi": 59,
      "hit": false,
      "t": 233783.33333333203,
      "d": 133.33333333334303,
      "v": 55
    },
    {
      "midi": 56,
      "hit": false,
      "t": 233783.33333333203,
      "d": 166.66666666668607,
      "v": 57
    },
    {
      "midi": 53,
      "hit": false,
      "t": 234083.33333333206,
      "d": 1800,
      "v": 57
    },
    {
      "midi": 38,
      "hit": false,
      "t": 234099.99999999872,
      "d": 1283.333333333343,
      "v": 61
    },
    {
      "midi": 50,
      "hit": false,
      "t": 234166.66666666538,
      "d": 1483.333333333343,
      "v": 48
    },
    {
      "midi": 57,
      "hit": false,
      "t": 234166.66666666538,
      "d": 1733.333333333343,
      "v": 74
    },
    {
      "midi": 62,
      "hit": false,
      "t": 234199.99999999872,
      "d": 1800,
      "v": 66
    },
    {
      "midi": 40,
      "hit": false,
      "t": 236116.66666666538,
      "d": 3150,
      "v": 78
    },
    {
      "midi": 44,
      "hit": false,
      "t": 236449.9999999987,
      "d": 2850.000000000029,
      "v": 68
    },
    {
      "midi": 47,
      "hit": false,
      "t": 236766.66666666535,
      "d": 2566.666666666715,
      "v": 72
    },
    {
      "midi": 52,
      "hit": false,
      "t": 237099.9999999987,
      "d": 2500.000000000029,
      "v": 80
    },
    {
      "midi": 64,
      "hit": false,
      "t": 237399.9999999987,
      "d": 450,
      "v": 63
    },
    {
      "midi": 68,
      "hit": false,
      "t": 237699.9999999987,
      "d": 333.33333333334303,
      "v": 64
    },
    {
      "midi": 64,
      "hit": false,
      "t": 237999.9999999987,
      "d": 1566.666666666686,
      "v": 74
    },
    {
      "midi": 68,
      "hit": false,
      "t": 238166.66666666538,
      "d": 1383.333333333343,
      "v": 76
    },
    {
      "midi": 71,
      "hit": false,
      "t": 238199.99999999872,
      "d": 1316.666666666686,
      "v": 63
    },
    {
      "midi": 76,
      "hit": false,
      "t": 238316.66666666538,
      "d": 1200.000000000029,
      "v": 68
    },
    {
      "midi": 45,
      "hit": false,
      "t": 240083.33333333206,
      "d": 1566.666666666657,
      "v": 74
    },
    {
      "midi": 48,
      "hit": false,
      "t": 240416.66666666538,
      "d": 1283.333333333343,
      "v": 82
    },
    {
      "midi": 52,
      "hit": false,
      "t": 240749.99999999872,
      "d": 933.333333333343,
      "v": 82
    },
    {
      "midi": 72,
      "hit": false,
      "t": 241066.66666666538,
      "d": 366.66666666668607,
      "v": 85
    },
    {
      "midi": 64,
      "hit": false,
      "t": 241066.66666666538,
      "d": 1050,
      "v": 85
    },
    {
      "midi": 71,
      "hit": false,
      "t": 241399.99999999872,
      "d": 333.33333333334303,
      "v": 70
    },
    {
      "midi": 69,
      "hit": false,
      "t": 241733.33333333206,
      "d": 316.66666666665697,
      "v": 80
    },
    {
      "midi": 45,
      "hit": false,
      "t": 242033.33333333206,
      "d": 1399.999999999971,
      "v": 76
    },
    {
      "midi": 48,
      "hit": false,
      "t": 242349.99999999872,
      "d": 1099.999999999971,
      "v": 64
    },
    {
      "midi": 52,
      "hit": false,
      "t": 242699.99999999872,
      "d": 633.3333333333139,
      "v": 72
    },
    {
      "midi": 57,
      "hit": false,
      "t": 243016.66666666538,
      "d": 733.3333333332848,
      "v": 85
    },
    {
      "midi": 59,
      "hit": false,
      "t": 243349.9999999987,
      "d": 266.66666666665697,
      "v": 85
    },
    {
      "midi": 60,
      "hit": false,
      "t": 243683.333333332,
      "d": 266.66666666665697,
      "v": 74
    },
    {
      "midi": 62,
      "hit": false,
      "t": 243866.66666666532,
      "d": 116.66666666668607,
      "v": 78
    },
    {
      "midi": 64,
      "hit": false,
      "t": 244016.66666666535,
      "d": 400,
      "v": 78
    },
    {
      "midi": 36,
      "hit": false,
      "t": 244016.66666666535,
      "d": 1350,
      "v": 80
    },
    {
      "midi": 43,
      "hit": false,
      "t": 244366.66666666535,
      "d": 1033.333333333343,
      "v": 87
    },
    {
      "midi": 48,
      "hit": false,
      "t": 244666.66666666535,
      "d": 700,
      "v": 63
    },
    {
      "midi": 64,
      "hit": false,
      "t": 244999.9999999987,
      "d": 400,
      "v": 89
    },
    {
      "midi": 72,
      "hit": false,
      "t": 244999.9999999987,
      "d": 983.3333333333139,
      "v": 98
    },
    {
      "midi": 67,
      "hit": false,
      "t": 245349.9999999987,
      "d": 616.666666666657,
      "v": 80
    },
    {
      "midi": 64,
      "hit": false,
      "t": 245666.66666666535,
      "d": 316.66666666665697,
      "v": 66
    },
    {
      "midi": 36,
      "hit": false,
      "t": 245999.99999999866,
      "d": 1083.333333333343,
      "v": 68
    },
    {
      "midi": 43,
      "hit": false,
      "t": 246333.333333332,
      "d": 783.333333333343,
      "v": 82
    },
    {
      "midi": 48,
      "hit": false,
      "t": 246683.333333332,
      "d": 583.333333333343,
      "v": 64
    },
    {
      "midi": 55,
      "hit": false,
      "t": 247016.66666666535,
      "d": 616.6666666666861,
      "v": 59
    },
    {
      "midi": 60,
      "hit": false,
      "t": 247349.9999999987,
      "d": 616.666666666657,
      "v": 66
    },
    {
      "midi": 55,
      "hit": false,
      "t": 247666.66666666538,
      "d": 283.33333333331393,
      "v": 39
    },
    {
      "midi": 64,
      "hit": false,
      "t": 247666.66666666538,
      "d": 366.66666666665697,
      "v": 64
    },
    {
      "midi": 40,
      "hit": false,
      "t": 247999.9999999987,
      "d": 4250,
      "v": 82
    },
    {
      "midi": 44,
      "hit": false,
      "t": 248316.66666666538,
      "d": 4249.999999999971,
      "v": 62
    },
    {
      "midi": 47,
      "hit": false,
      "t": 248499.99999999872,
      "d": 4249.999999999971,
      "v": 61
    },
    {
      "midi": 52,
      "hit": false,
      "t": 248666.66666666538,
      "d": 4249.999999999971,
      "v": 58
    },
    {
      "midi": 64,
      "hit": false,
      "t": 248783.33333333203,
      "d": 266.66666666668607,
      "v": 60
    },
    {
      "midi": 68,
      "hit": false,
      "t": 248916.66666666538,
      "d": 383.33333333334303,
      "v": 64
    },
    {
      "midi": 71,
      "hit": false,
      "t": 249199.99999999872,
      "d": 250,
      "v": 55
    },
    {
      "midi": 76,
      "hit": false,
      "t": 249733.33333333206,
      "d": 983.3333333333139,
      "v": 57
    },
    {
      "midi": 80,
      "hit": false,
      "t": 250183.33333333206,
      "d": 1233.333333333314,
      "v": 60
    },
    {
      "midi": 83,
      "hit": false,
      "t": 250699.99999999872,
      "d": 633.3333333333139,
      "v": 59
    },
    {
      "midi": 76,
      "hit": false,
      "t": 251516.66666666538,
      "d": 2466.666666666628,
      "v": 57
    },
    {
      "midi": 80,
      "hit": false,
      "t": 251733.33333333203,
      "d": 2266.666666666628,
      "v": 61
    },
    {
      "midi": 83,
      "hit": false,
      "t": 251916.66666666538,
      "d": 2099.999999999942,
      "v": 64
    },
    {
      "midi": 88,
      "hit": false,
      "t": 252133.33333333203,
      "d": 1866.6666666666279,
      "v": 57
    },
    {
      "midi": 72,
      "hit": false,
      "t": 271899.99999999866,
      "d": 2083.3333333331393,
      "v": 58
    },
    {
      "midi": 76,
      "hit": false,
      "t": 273983.3333333318,
      "d": 733.3333333332557,
      "v": 55
    },
    {
      "midi": 74,
      "hit": false,
      "t": 274683.33333333174,
      "d": 1016.6666666666279,
      "v": 60
    },
    {
      "midi": 72,
      "hit": false,
      "t": 275733.33333333174,
      "d": 450,
      "v": 53
    },
    {
      "midi": 69,
      "hit": false,
      "t": 276066.66666666506,
      "d": 1983.3333333331393,
      "v": 63
    },
    {
      "midi": 74,
      "hit": false,
      "t": 278149.9999999982,
      "d": 716.6666666666861,
      "v": 68
    },
    {
      "midi": 72,
      "hit": false,
      "t": 278849.9999999982,
      "d": 699.9999999999418,
      "v": 63
    },
    {
      "midi": 69,
      "hit": false,
      "t": 279549.99999999814,
      "d": 366.66666666668607,
      "v": 63
    },
    {
      "midi": 67,
      "hit": false,
      "t": 279899.99999999814,
      "d": 333.33333333331393,
      "v": 55
    },
    {
      "midi": 65,
      "hit": false,
      "t": 280233.33333333145,
      "d": 2183.3333333331393,
      "v": 57
    },
    {
      "midi": 62,
      "hit": false,
      "t": 282316.6666666646,
      "d": 1083.3333333332557,
      "v": 43
    },
    {
      "midi": 65,
      "hit": false,
      "t": 283366.66666666453,
      "d": 983.3333333333139,
      "v": 63
    },
    {
      "midi": 64,
      "hit": false,
      "t": 284399.99999999785,
      "d": 3916.666666666337,
      "v": 52
    }
  ]
}