{
  "jsonPath": "Classical/Classical/Frederic Chopin/etude-op-10-no-3.json",
  "path": "Classical\\Classical\\Frederic Chopin\\Etude Op 10 no 3.mid",
  "name": "Etude Op 10 no 3",
  "difficulty": "Advanced",
  "bpm": 54.00000540000054,
  "notes": [
    {
      "midi": 59,
      "hit": false,
      "t": 3333.333,
      "d": 1111.1110000000003,
      "v": 50
    },
    {
      "midi": 56,
      "hit": false,
      "t": 4444.444,
      "d": 555.5555000000004,
      "v": 28
    },
    {
      "midi": 64,
      "hit": false,
      "t": 4444.444,
      "d": 555.5555000000004,
      "v": 52
    },
    {
      "midi": 40,
      "hit": false,
      "t": 4444.444,
      "d": 555.5555000000004,
      "v": 48
    },
    {
      "midi": 59,
      "hit": false,
      "t": 4999.999500000001,
      "d": 555.5555000000004,
      "v": 31
    },
    {
      "midi": 47,
      "hit": false,
      "t": 4999.999500000001,
      "d": 1111.1109999999999,
      "v": 48
    },
    {
      "midi": 56,
      "hit": false,
      "t": 5555.555000000001,
      "d": 555.5555000000004,
      "v": 35
    },
    {
      "midi": 63,
      "hit": false,
      "t": 5555.555000000001,
      "d": 555.5555000000004,
      "v": 59
    },
    {
      "midi": 47,
      "hit": false,
      "t": 6111.110500000001,
      "d": 555.5555000000004,
      "v": 41
    },
    {
      "midi": 59,
      "hit": false,
      "t": 6111.110500000002,
      "d": 555.5555000000004,
      "v": 33
    },
    {
      "midi": 64,
      "hit": false,
      "t": 6111.110500000002,
      "d": 555.5555000000004,
      "v": 58
    },
    {
      "midi": 35,
      "hit": false,
      "t": 6666.666000000001,
      "d": 555.5555000000004,
      "v": 48
    },
    {
      "midi": 57,
      "hit": false,
      "t": 6666.666000000002,
      "d": 555.5555000000004,
      "v": 41
    },
    {
      "midi": 63,
      "hit": false,
      "t": 6666.666000000002,
      "d": 555.5555000000004,
      "v": 41
    },
    {
      "midi": 66,
      "hit": false,
      "t": 6666.666000000002,
      "d": 555.5555000000004,
      "v": 63
    },
    {
      "midi": 47,
      "hit": false,
      "t": 7222.2215000000015,
      "d": 1111.1110000000008,
      "v": 46
    },
    {
      "midi": 59,
      "hit": false,
      "t": 7222.221500000002,
      "d": 555.5555000000004,
      "v": 39
    },
    {
      "midi": 57,
      "hit": false,
      "t": 7777.777000000003,
      "d": 555.5554999999995,
      "v": 41
    },
    {
      "midi": 59,
      "hit": false,
      "t": 8333.332500000002,
      "d": 555.5555000000004,
      "v": 41
    },
    {
      "midi": 47,
      "hit": false,
      "t": 8333.332500000002,
      "d": 555.5555000000004,
      "v": 47
    },
    {
      "midi": 57,
      "hit": false,
      "t": 8888.888000000003,
      "d": 555.5555000000004,
      "v": 45
    },
    {
      "midi": 35,
      "hit": false,
      "t": 8888.888000000003,
      "d": 555.5555000000004,
      "v": 47
    },
    {
      "midi": 59,
      "hit": false,
      "t": 9444.443500000003,
      "d": 555.5555000000004,
      "v": 45
    },
    {
      "midi": 68,
      "hit": false,
      "t": 9444.443500000003,
      "d": 555.5555000000004,
      "v": 58
    },
    {
      "midi": 47,
      "hit": false,
      "t": 9444.443500000003,
      "d": 1111.1110000000008,
      "v": 50
    },
    {
      "midi": 57,
      "hit": false,
      "t": 9999.999000000003,
      "d": 555.5555000000004,
      "v": 41
    },
    {
      "midi": 63,
      "hit": false,
      "t": 9999.999000000003,
      "d": 555.5555000000004,
      "v": 52
    },
    {
      "midi": 68,
      "hit": false,
      "t": 9999.999000000003,
      "d": 555.5555000000004,
      "v": 59
    },
    {
      "midi": 59,
      "hit": false,
      "t": 10555.554500000004,
      "d": 555.5555000000004,
      "v": 41
    },
    {
      "midi": 66,
      "hit": false,
      "t": 10555.554500000004,
      "d": 555.5555000000004,
      "v": 58
    },
    {
      "midi": 47,
      "hit": false,
      "t": 10555.554500000004,
      "d": 555.5555000000004,
      "v": 51
    },
    {
      "midi": 56,
      "hit": false,
      "t": 11111.110000000004,
      "d": 555.5555000000004,
      "v": 43
    },
    {
      "midi": 64,
      "hit": false,
      "t": 11111.110000000004,
      "d": 555.5555000000004,
      "v": 50
    },
    {
      "midi": 68,
      "hit": false,
      "t": 11111.110000000004,
      "d": 555.5555000000004,
      "v": 62
    },
    {
      "midi": 40,
      "hit": false,
      "t": 11111.110000000004,
      "d": 555.5555000000004,
      "v": 50
    },
    {
      "midi": 59,
      "hit": false,
      "t": 11666.665500000005,
      "d": 555.5555000000004,
      "v": 39
    },
    {
      "midi": 47,
      "hit": false,
      "t": 11666.665500000005,
      "d": 1111.1110000000008,
      "v": 50
    },
    {
      "midi": 56,
      "hit": false,
      "t": 12222.221000000005,
      "d": 555.5555000000004,
      "v": 36
    },
    {
      "midi": 59,
      "hit": false,
      "t": 12777.776500000005,
      "d": 555.5555000000004,
      "v": 39
    },
    {
      "midi": 47,
      "hit": false,
      "t": 12777.776500000005,
      "d": 555.5555000000004,
      "v": 47
    },
    {
      "midi": 56,
      "hit": false,
      "t": 13333.332000000006,
      "d": 555.5555000000004,
      "v": 38
    },
    {
      "midi": 40,
      "hit": false,
      "t": 13333.332000000006,
      "d": 555.5555000000004,
      "v": 46
    },
    {
      "midi": 64,
      "hit": false,
      "t": 13888.887500000006,
      "d": 555.5555000000004,
      "v": 41
    },
    {
      "midi": 47,
      "hit": false,
      "t": 13888.887500000006,
      "d": 1111.1110000000008,
      "v": 49
    },
    {
      "midi": 59,
      "hit": false,
      "t": 14444.443000000007,
      "d": 555.5555000000004,
      "v": 40
    },
    {
      "midi": 69,
      "hit": false,
      "t": 14444.443000000007,
      "d": 555.5555000000004,
      "v": 59
    },
    {
      "midi": 64,
      "hit": false,
      "t": 14999.998500000007,
      "d": 555.5555000000004,
      "v": 44
    },
    {
      "midi": 68,
      "hit": false,
      "t": 14999.998500000007,
      "d": 555.5555000000004,
      "v": 60
    },
    {
      "midi": 47,
      "hit": false,
      "t": 14999.998500000007,
      "d": 555.5555000000004,
      "v": 47
    },
    {
      "midi": 63,
      "hit": false,
      "t": 15555.554000000007,
      "d": 555.5555000000004,
      "v": 43
    },
    {
      "midi": 73,
      "hit": false,
      "t": 15555.554000000007,
      "d": 555.5555000000004,
      "v": 57
    },
    {
      "midi": 35,
      "hit": false,
      "t": 15555.554000000007,
      "d": 555.5555000000004,
      "v": 48
    },
    {
      "midi": 69,
      "hit": false,
      "t": 16111.109500000008,
      "d": 555.5555000000004,
      "v": 35
    },
    {
      "midi": 47,
      "hit": false,
      "t": 16111.109500000008,
      "d": 1111.110999999999,
      "v": 49
    },
    {
      "midi": 59,
      "hit": false,
      "t": 16666.665000000008,
      "d": 555.5554999999986,
      "v": 35
    },
    {
      "midi": 63,
      "hit": false,
      "t": 17222.220500000007,
      "d": 555.5554999999986,
      "v": 35
    },
    {
      "midi": 71,
      "hit": false,
      "t": 17222.220500000007,
      "d": 555.5554999999986,
      "v": 61
    },
    {
      "midi": 47,
      "hit": false,
      "t": 17222.220500000007,
      "d": 555.5554999999986,
      "v": 48
    },
    {
      "midi": 59,
      "hit": false,
      "t": 17777.776000000005,
      "d": 555.5554999999986,
      "v": 34
    },
    {
      "midi": 69,
      "hit": false,
      "t": 17777.776000000005,
      "d": 555.5554999999986,
      "v": 59
    },
    {
      "midi": 40,
      "hit": false,
      "t": 17777.776000000005,
      "d": 555.5554999999986,
      "v": 48
    },
    {
      "midi": 64,
      "hit": false,
      "t": 18333.331500000004,
      "d": 555.5554999999986,
      "v": 40
    },
    {
      "midi": 68,
      "hit": false,
      "t": 18333.331500000004,
      "d": 555.5554999999986,
      "v": 57
    },
    {
      "midi": 47,
      "hit": false,
      "t": 18333.331500000004,
      "d": 1111.1110000000008,
      "v": 49
    },
    {
      "midi": 56,
      "hit": false,
      "t": 18888.887000000002,
      "d": 555.5554999999986,
      "v": 36
    },
    {
      "midi": 63,
      "hit": false,
      "t": 18888.887000000002,
      "d": 555.5554999999986,
      "v": 55
    },
    {
      "midi": 59,
      "hit": false,
      "t": 19444.4425,
      "d": 555.5554999999986,
      "v": 33
    },
    {
      "midi": 64,
      "hit": false,
      "t": 19444.4425,
      "d": 555.5554999999986,
      "v": 57
    },
    {
      "midi": 47,
      "hit": false,
      "t": 19444.442500000005,
      "d": 555.5554999999986,
      "v": 47
    },
    {
      "midi": 57,
      "hit": false,
      "t": 19999.998,
      "d": 555.5554999999986,
      "v": 31
    },
    {
      "midi": 61,
      "hit": false,
      "t": 19999.998,
      "d": 555.5554999999986,
      "v": 31
    },
    {
      "midi": 66,
      "hit": false,
      "t": 19999.998,
      "d": 555.5554999999986,
      "v": 59
    },
    {
      "midi": 35,
      "hit": false,
      "t": 19999.998000000003,
      "d": 555.5554999999986,
      "v": 45
    },
    {
      "midi": 59,
      "hit": false,
      "t": 20555.553499999998,
      "d": 555.5554999999986,
      "v": 37
    },
    {
      "midi": 63,
      "hit": false,
      "t": 20555.553499999998,
      "d": 555.5554999999986,
      "v": 37
    },
    {
      "midi": 47,
      "hit": false,
      "t": 20555.5535,
      "d": 1111.1110000000008,
      "v": 48
    },
    {
      "midi": 57,
      "hit": false,
      "t": 21111.108999999997,
      "d": 555.5554999999986,
      "v": 36
    },
    {
      "midi": 61,
      "hit": false,
      "t": 21111.108999999997,
      "d": 555.5554999999986,
      "v": 36
    },
    {
      "midi": 59,
      "hit": false,
      "t": 21666.664499999995,
      "d": 555.5554999999986,
      "v": 35
    },
    {
      "midi": 63,
      "hit": false,
      "t": 21666.664499999995,
      "d": 555.5554999999986,
      "v": 35
    },
    {
      "midi": 47,
      "hit": false,
      "t": 21666.664500000003,
      "d": 555.5554999999986,
      "v": 53
    },
    {
      "midi": 57,
      "hit": false,
      "t": 22222.219999999994,
      "d": 555.5554999999986,
      "v": 39
    },
    {
      "midi": 61,
      "hit": false,
      "t": 22222.219999999994,
      "d": 555.5554999999986,
      "v": 39
    },
    {
      "midi": 35,
      "hit": false,
      "t": 22222.22,
      "d": 555.5554999999986,
      "v": 48
    },
    {
      "midi": 59,
      "hit": false,
      "t": 22777.775499999992,
      "d": 555.5554999999986,
      "v": 34
    },
    {
      "midi": 63,
      "hit": false,
      "t": 22777.775499999992,
      "d": 555.5554999999986,
      "v": 34
    },
    {
      "midi": 68,
      "hit": false,
      "t": 22777.775499999992,
      "d": 555.5554999999986,
      "v": 61
    },
    {
      "midi": 47,
      "hit": false,
      "t": 22777.7755,
      "d": 1111.1110000000008,
      "v": 50
    },
    {
      "midi": 57,
      "hit": false,
      "t": 23333.33099999999,
      "d": 555.5554999999986,
      "v": 33
    },
    {
      "midi": 61,
      "hit": false,
      "t": 23333.33099999999,
      "d": 555.5554999999986,
      "v": 33
    },
    {
      "midi": 68,
      "hit": false,
      "t": 23333.33099999999,
      "d": 555.5554999999986,
      "v": 63
    },
    {
      "midi": 59,
      "hit": false,
      "t": 23888.88649999999,
      "d": 555.5554999999986,
      "v": 37
    },
    {
      "midi": 63,
      "hit": false,
      "t": 23888.88649999999,
      "d": 555.5554999999986,
      "v": 37
    },
    {
      "midi": 66,
      "hit": false,
      "t": 23888.88649999999,
      "d": 555.5554999999986,
      "v": 58
    },
    {
      "midi": 47,
      "hit": false,
      "t": 23888.8865,
      "d": 555.5554999999986,
      "v": 47
    },
    {
      "midi": 56,
      "hit": false,
      "t": 24444.44199999999,
      "d": 555.5554999999986,
      "v": 37
    },
    {
      "midi": 64,
      "hit": false,
      "t": 24444.44199999999,
      "d": 555.5554999999986,
      "v": 57
    },
    {
      "midi": 40,
      "hit": false,
      "t": 24444.442,
      "d": 555.5554999999986,
      "v": 48
    },
    {
      "midi": 59,
      "hit": false,
      "t": 24999.997499999987,
      "d": 555.5554999999986,
      "v": 39
    },
    {
      "midi": 47,
      "hit": false,
      "t": 24999.997499999998,
      "d": 1111.1110000000008,
      "v": 48
    },
    {
      "midi": 56,
      "hit": false,
      "t": 25555.552999999985,
      "d": 555.5554999999986,
      "v": 36
    },
    {
      "midi": 59,
      "hit": false,
      "t": 26111.108499999984,
      "d": 555.5554999999986,
      "v": 32
    },
    {
      "midi": 47,
      "hit": false,
      "t": 26111.1085,
      "d": 555.5554999999986,
      "v": 49
    },
    {
      "midi": 62,
      "hit": false,
      "t": 26666.663999999982,
      "d": 555.5554999999986,
      "v": 33
    },
    {
      "midi": 68,
      "hit": false,
      "t": 26666.663999999982,
      "d": 555.5554999999986,
      "v": 62
    },
    {
      "midi": 40,
      "hit": false,
      "t": 26666.663999999997,
      "d": 555.5554999999986,
      "v": 50
    },
    {
      "midi": 64,
      "hit": false,
      "t": 27222.21949999998,
      "d": 555.5554999999986,
      "v": 35
    },
    {
      "midi": 69,
      "hit": false,
      "t": 27222.21949999998,
      "d": 555.5554999999986,
      "v": 68
    },
    {
      "midi": 52,
      "hit": false,
      "t": 27222.219499999996,
      "d": 1111.1110000000008,
      "v": 52
    },
    {
      "midi": 62,
      "hit": false,
      "t": 27777.77499999998,
      "d": 555.5554999999986,
      "v": 35
    },
    {
      "midi": 66,
      "hit": false,
      "t": 27777.77499999998,
      "d": 555.5554999999986,
      "v": 66
    },
    {
      "midi": 64,
      "hit": false,
      "t": 28333.33049999998,
      "d": 555.5554999999986,
      "v": 35
    },
    {
      "midi": 68,
      "hit": false,
      "t": 28333.33049999998,
      "d": 555.5554999999986,
      "v": 63
    },
    {
      "midi": 52,
      "hit": false,
      "t": 28333.330499999996,
      "d": 555.5554999999986,
      "v": 50
    },
    {
      "midi": 61,
      "hit": false,
      "t": 28888.885999999977,
      "d": 555.5554999999986,
      "v": 37
    },
    {
      "midi": 69,
      "hit": false,
      "t": 28888.885999999977,
      "d": 555.5554999999986,
      "v": 67
    },
    {
      "midi": 45,
      "hit": false,
      "t": 28888.885999999995,
      "d": 555.5554999999986,
      "v": 49
    },
    {
      "midi": 64,
      "hit": false,
      "t": 29444.441499999975,
      "d": 555.5554999999986,
      "v": 41
    },
    {
      "midi": 71,
      "hit": false,
      "t": 29444.441499999975,
      "d": 555.5554999999986,
      "v": 68
    },
    {
      "midi": 52,
      "hit": false,
      "t": 29444.441499999994,
      "d": 1111.1110000000008,
      "v": 49
    },
    {
      "midi": 61,
      "hit": false,
      "t": 29999.996999999974,
      "d": 555.5554999999986,
      "v": 41
    },
    {
      "midi": 68,
      "hit": false,
      "t": 29999.996999999974,
      "d": 555.5554999999986,
      "v": 70
    },
    {
      "midi": 64,
      "hit": false,
      "t": 30555.552499999972,
      "d": 555.5554999999986,
      "v": 36
    },
    {
      "midi": 69,
      "hit": false,
      "t": 30555.552499999972,
      "d": 555.5554999999986,
      "v": 66
    },
    {
      "midi": 52,
      "hit": false,
      "t": 30555.552499999994,
      "d": 555.5554999999986,
      "v": 51
    },
    {
      "midi": 61,
      "hit": false,
      "t": 31111.10799999997,
      "d": 555.5554999999986,
      "v": 33
    },
    {
      "midi": 73,
      "hit": false,
      "t": 31111.10799999997,
      "d": 555.5554999999986,
      "v": 63
    },
    {
      "midi": 45,
      "hit": false,
      "t": 31111.107999999993,
      "d": 555.5554999999986,
      "v": 48
    },
    {
      "midi": 64,
      "hit": false,
      "t": 31666.66349999997,
      "d": 555.5554999999986,
      "v": 34
    },
    {
      "midi": 54,
      "hit": false,
      "t": 31666.66349999999,
      "d": 1111.1110000000008,
      "v": 50
    },
    {
      "midi": 61,
      "hit": false,
      "t": 32222.21899999997,
      "d": 555.5555000000022,
      "v": 30
    },
    {
      "midi": 66,
      "hit": false,
      "t": 32222.21899999997,
      "d": 555.5555000000022,
      "v": 59
    },
    {
      "midi": 64,
      "hit": false,
      "t": 32777.77449999997,
      "d": 555.5555000000022,
      "v": 30
    },
    {
      "midi": 54,
      "hit": false,
      "t": 32777.77449999999,
      "d": 555.5555000000022,
      "v": 49
    },
    {
      "midi": 59,
      "hit": false,
      "t": 33333.32999999997,
      "d": 555.5555000000022,
      "v": 32
    },
    {
      "midi": 47,
      "hit": false,
      "t": 33333.329999999994,
      "d": 1666.6664999999994,
      "v": 48
    },
    {
      "midi": 64,
      "hit": false,
      "t": 33888.885499999975,
      "d": 555.5555000000022,
      "v": 33
    },
    {
      "midi": 70,
      "hit": false,
      "t": 34444.44099999998,
      "d": 277.7777500000011,
      "v": 59
    },
    {
      "midi": 59,
      "hit": false,
      "t": 34444.44099999998,
      "d": 555.5555000000022,
      "v": 31
    },
    {
      "midi": 68,
      "hit": false,
      "t": 34444.44099999998,
      "d": 555.5555000000022,
      "v": 58
    },
    {
      "midi": 64,
      "hit": false,
      "t": 34999.99649999998,
      "d": 555.5555000000022,
      "v": 32
    },
    {
      "midi": 66,
      "hit": false,
      "t": 34999.99649999998,
      "d": 555.5555000000022,
      "v": 59
    },
    {
      "midi": 54,
      "hit": false,
      "t": 34999.996499999994,
      "d": 555.5555000000022,
      "v": 47
    },
    {
      "midi": 58,
      "hit": false,
      "t": 35555.55199999998,
      "d": 555.5555000000022,
      "v": 35
    },
    {
      "midi": 49,
      "hit": false,
      "t": 35555.551999999996,
      "d": 555.5555000000022,
      "v": 48
    },
    {
      "midi": 64,
      "hit": false,
      "t": 36111.107499999984,
      "d": 555.5555000000022,
      "v": 35
    },
    {
      "midi": 54,
      "hit": false,
      "t": 36111.1075,
      "d": 1111.1109999999971,
      "v": 50
    },
    {
      "midi": 70,
      "hit": false,
      "t": 36666.662999999986,
      "d": 277.7777500000011,
      "v": 54
    },
    {
      "midi": 58,
      "hit": false,
      "t": 36666.662999999986,
      "d": 555.5555000000022,
      "v": 39
    },
    {
      "midi": 68,
      "hit": false,
      "t": 36666.662999999986,
      "d": 555.5555000000022,
      "v": 56
    },
    {
      "midi": 64,
      "hit": false,
      "t": 37222.21849999999,
      "d": 555.5555000000022,
      "v": 34
    },
    {
      "midi": 66,
      "hit": false,
      "t": 37222.21849999999,
      "d": 555.5555000000022,
      "v": 54
    },
    {
      "midi": 54,
      "hit": false,
      "t": 37222.218499999995,
      "d": 555.5555000000022,
      "v": 47
    },
    {
      "midi": 57,
      "hit": false,
      "t": 37777.77399999999,
      "d": 555.5555000000022,
      "v": 36
    },
    {
      "midi": 63,
      "hit": false,
      "t": 37777.77399999999,
      "d": 555.5555000000022,
      "v": 49
    },
    {
      "midi": 71,
      "hit": false,
      "t": 37777.77399999999,
      "d": 555.5555000000022,
      "v": 60
    },
    {
      "midi": 47,
      "hit": false,
      "t": 37777.774,
      "d": 555.5555000000022,
      "v": 49
    },
    {
      "midi": 59,
      "hit": false,
      "t": 38333.32949999999,
      "d": 555.5555000000022,
      "v": 36
    },
    {
      "midi": 54,
      "hit": false,
      "t": 38333.3295,
      "d": 1111.1109999999971,
      "v": 49
    },
    {
      "midi": 57,
      "hit": false,
      "t": 38888.884999999995,
      "d": 555.5555000000022,
      "v": 41
    },
    {
      "midi": 59,
      "hit": false,
      "t": 39444.4405,
      "d": 555.5555000000022,
      "v": 53
    },
    {
      "midi": 54,
      "hit": false,
      "t": 39444.4405,
      "d": 555.5555000000022,
      "v": 49
    },
    {
      "midi": 56,
      "hit": false,
      "t": 39999.996,
      "d": 555.5555000000022,
      "v": 37
    },
    {
      "midi": 64,
      "hit": false,
      "t": 39999.996,
      "d": 555.5555000000022,
      "v": 52
    },
    {
      "midi": 68,
      "hit": false,
      "t": 39999.996,
      "d": 555.5555000000022,
      "v": 41
    },
    {
      "midi": 40,
      "hit": false,
      "t": 39999.996,
      "d": 555.5555000000022,
      "v": 49
    },
    {
      "midi": 59,
      "hit": false,
      "t": 40555.5515,
      "d": 555.5555000000022,
      "v": 36
    },
    {
      "midi": 47,
      "hit": false,
      "t": 40555.5515,
      "d": 1111.1109999999971,
      "v": 49
    },
    {
      "midi": 56,
      "hit": false,
      "t": 41111.107,
      "d": 555.5555000000022,
      "v": 38
    },
    {
      "midi": 63,
      "hit": false,
      "t": 41111.107,
      "d": 555.5555000000022,
      "v": 59
    },
    {
      "midi": 47,
      "hit": false,
      "t": 41666.6625,
      "d": 555.5555000000022,
      "v": 49
    },
    {
      "midi": 59,
      "hit": false,
      "t": 41666.662500000006,
      "d": 555.5555000000022,
      "v": 35
    },
    {
      "midi": 64,
      "hit": false,
      "t": 41666.662500000006,
      "d": 555.5555000000022,
      "v": 59
    },
    {
      "midi": 35,
      "hit": false,
      "t": 42222.218,
      "d": 555.5555000000022,
      "v": 50
    },
    {
      "midi": 57,
      "hit": false,
      "t": 42222.21800000001,
      "d": 555.5555000000022,
      "v": 38
    },
    {
      "midi": 63,
      "hit": false,
      "t": 42222.21800000001,
      "d": 555.5555000000022,
      "v": 46
    },
    {
      "midi": 66,
      "hit": false,
      "t": 42222.21800000001,
      "d": 555.5555000000022,
      "v": 65
    },
    {
      "midi": 47,
      "hit": false,
      "t": 42777.7735,
      "d": 1111.1109999999971,
      "v": 47
    },
    {
      "midi": 59,
      "hit": false,
      "t": 42777.77350000001,
      "d": 555.5555000000022,
      "v": 34
    },
    {
      "midi": 57,
      "hit": false,
      "t": 43333.32900000001,
      "d": 555.5555000000022,
      "v": 38
    },
    {
      "midi": 47,
      "hit": false,
      "t": 43888.8845,
      "d": 555.5555000000022,
      "v": 50
    },
    {
      "midi": 59,
      "hit": false,
      "t": 43888.884500000015,
      "d": 555.5555000000022,
      "v": 36
    },
    {
      "midi": 35,
      "hit": false,
      "t": 44444.44,
      "d": 555.5555000000022,
      "v": 49
    },
    {
      "midi": 57,
      "hit": false,
      "t": 44444.44000000002,
      "d": 555.5555000000022,
      "v": 35
    },
    {
      "midi": 47,
      "hit": false,
      "t": 44999.995500000005,
      "d": 1111.1109999999971,
      "v": 50
    },
    {
      "midi": 59,
      "hit": false,
      "t": 44999.99550000002,
      "d": 555.5555000000022,
      "v": 35
    },
    {
      "midi": 68,
      "hit": false,
      "t": 44999.99550000002,
      "d": 555.5555000000022,
      "v": 66
    },
    {
      "midi": 57,
      "hit": false,
      "t": 45555.55100000002,
      "d": 555.5555000000022,
      "v": 37
    },
    {
      "midi": 63,
      "hit": false,
      "t": 45555.55100000002,
      "d": 555.5555000000022,
      "v": 49
    },
    {
      "midi": 68,
      "hit": false,
      "t": 45555.55100000002,
      "d": 555.5555000000022,
      "v": 61
    },
    {
      "midi": 47,
      "hit": false,
      "t": 46111.1065,
      "d": 555.5555000000022,
      "v": 49
    },
    {
      "midi": 59,
      "hit": false,
      "t": 46111.10650000002,
      "d": 555.5555000000022,
      "v": 38
    },
    {
      "midi": 66,
      "hit": false,
      "t": 46111.10650000002,
      "d": 555.5555000000022,
      "v": 59
    },
    {
      "midi": 40,
      "hit": false,
      "t": 46666.662000000004,
      "d": 555.5555000000022,
      "v": 48
    },
    {
      "midi": 56,
      "hit": false,
      "t": 46666.662000000026,
      "d": 555.5555000000022,
      "v": 39
    },
    {
      "midi": 64,
      "hit": false,
      "t": 46666.662000000026,
      "d": 555.5555000000022,
      "v": 47
    },
    {
      "midi": 68,
      "hit": false,
      "t": 46666.662000000026,
      "d": 555.5555000000022,
      "v": 65
    },
    {
      "midi": 47,
      "hit": false,
      "t": 47222.217500000006,
      "d": 1111.1109999999971,
      "v": 48
    },
    {
      "midi": 59,
      "hit": false,
      "t": 47222.21750000003,
      "d": 555.5555000000022,
      "v": 39
    },
    {
      "midi": 56,
      "hit": false,
      "t": 47777.77300000003,
      "d": 555.5555000000022,
      "v": 40
    },
    {
      "midi": 47,
      "hit": false,
      "t": 48333.3285,
      "d": 555.5555000000022,
      "v": 46
    },
    {
      "midi": 59,
      "hit": false,
      "t": 48333.32850000003,
      "d": 555.5555000000022,
      "v": 41
    },
    {
      "midi": 40,
      "hit": false,
      "t": 48888.884000000005,
      "d": 555.5555000000022,
      "v": 48
    },
    {
      "midi": 56,
      "hit": false,
      "t": 48888.884000000035,
      "d": 555.5555000000022,
      "v": 46
    },
    {
      "midi": 47,
      "hit": false,
      "t": 49444.43950000001,
      "d": 1111.1109999999971,
      "v": 52
    },
    {
      "midi": 64,
      "hit": false,
      "t": 49444.43950000004,
      "d": 555.5555000000022,
      "v": 44
    },
    {
      "midi": 69,
      "hit": false,
      "t": 49444.43950000004,
      "d": 555.5555000000022,
      "v": 63
    },
    {
      "midi": 59,
      "hit": false,
      "t": 49999.99500000004,
      "d": 555.5555000000022,
      "v": 43
    },
    {
      "midi": 69,
      "hit": false,
      "t": 49999.99500000004,
      "d": 555.5555000000022,
      "v": 63
    },
    {
      "midi": 47,
      "hit": false,
      "t": 50555.550500000005,
      "d": 555.5555000000022,
      "v": 51
    },
    {
      "midi": 64,
      "hit": false,
      "t": 50555.55050000004,
      "d": 555.5555000000022,
      "v": 39
    },
    {
      "midi": 68,
      "hit": false,
      "t": 50555.55050000004,
      "d": 555.5555000000022,
      "v": 63
    },
    {
      "midi": 35,
      "hit": false,
      "t": 51111.10600000001,
      "d": 555.5555000000022,
      "v": 47
    },
    {
      "midi": 63,
      "hit": false,
      "t": 51111.10600000004,
      "d": 555.5555000000022,
      "v": 40
    },
    {
      "midi": 73,
      "hit": false,
      "t": 51111.10600000004,
      "d": 555.5555000000022,
      "v": 64
    },
    {
      "midi": 47,
      "hit": false,
      "t": 51666.66150000001,
      "d": 1111.1109999999971,
      "v": 47
    },
    {
      "midi": 69,
      "hit": false,
      "t": 51666.661500000046,
      "d": 555.5555000000022,
      "v": 37
    },
    {
      "midi": 59,
      "hit": false,
      "t": 52222.21700000005,
      "d": 555.5555000000022,
      "v": 34
    },
    {
      "midi": 47,
      "hit": false,
      "t": 52777.77250000001,
      "d": 555.5555000000022,
      "v": 48
    },
    {
      "midi": 63,
      "hit": false,
      "t": 52777.77250000005,
      "d": 555.5555000000022,
      "v": 39
    },
    {
      "midi": 71,
      "hit": false,
      "t": 52777.77250000005,
      "d": 555.5555000000022,
      "v": 65
    },
    {
      "midi": 40,
      "hit": false,
      "t": 53333.32800000001,
      "d": 555.5555000000022,
      "v": 51
    },
    {
      "midi": 59,
      "hit": false,
      "t": 53333.32800000005,
      "d": 555.5555000000022,
      "v": 36
    },
    {
      "midi": 69,
      "hit": false,
      "t": 53333.32800000005,
      "d": 555.5555000000022,
      "v": 56
    },
    {
      "midi": 47,
      "hit": false,
      "t": 53888.88350000001,
      "d": 1111.1109999999971,
      "v": 46
    },
    {
      "midi": 64,
      "hit": false,
      "t": 53888.883500000054,
      "d": 555.5555000000022,
      "v": 38
    },
    {
      "midi": 68,
      "hit": false,
      "t": 53888.883500000054,
      "d": 555.5555000000022,
      "v": 55
    },
    {
      "midi": 56,
      "hit": false,
      "t": 54444.43900000006,
      "d": 555.5555000000022,
      "v": 34
    },
    {
      "midi": 63,
      "hit": false,
      "t": 54444.43900000006,
      "d": 555.5555000000022,
      "v": 60
    },
    {
      "midi": 47,
      "hit": false,
      "t": 54999.99450000001,
      "d": 555.5555000000022,
      "v": 49
    },
    {
      "midi": 59,
      "hit": false,
      "t": 54999.99450000006,
      "d": 555.5555000000022,
      "v": 32
    },
    {
      "midi": 64,
      "hit": false,
      "t": 54999.99450000006,
      "d": 555.5555000000022,
      "v": 59
    },
    {
      "midi": 35,
      "hit": false,
      "t": 55555.55000000001,
      "d": 555.5555000000022,
      "v": 48
    },
    {
      "midi": 57,
      "hit": false,
      "t": 55555.55000000006,
      "d": 555.5555000000022,
      "v": 39
    },
    {
      "midi": 61,
      "hit": false,
      "t": 55555.55000000006,
      "d": 555.5555000000022,
      "v": 39
    },
    {
      "midi": 66,
      "hit": false,
      "t": 55555.55000000006,
      "d": 555.5555000000022,
      "v": 62
    },
    {
      "midi": 47,
      "hit": false,
      "t": 56111.10550000001,
      "d": 1111.1109999999971,
      "v": 45
    },
    {
      "midi": 59,
      "hit": false,
      "t": 56111.10550000006,
      "d": 555.5555000000022,
      "v": 40
    },
    {
      "midi": 63,
      "hit": false,
      "t": 56111.10550000006,
      "d": 555.5555000000022,
      "v": 40
    },
    {
      "midi": 57,
      "hit": false,
      "t": 56666.661000000066,
      "d": 555.5555000000022,
      "v": 39
    },
    {
      "midi": 61,
      "hit": false,
      "t": 56666.661000000066,
      "d": 555.5555000000022,
      "v": 37
    },
    {
      "midi": 47,
      "hit": false,
      "t": 57222.21650000001,
      "d": 555.5555000000022,
      "v": 48
    },
    {
      "midi": 59,
      "hit": false,
      "t": 57222.21650000007,
      "d": 555.5555000000022,
      "v": 42
    },
    {
      "midi": 63,
      "hit": false,
      "t": 57222.21650000007,
      "d": 555.5555000000022,
      "v": 41
    },
    {
      "midi": 35,
      "hit": false,
      "t": 57777.77200000001,
      "d": 555.5555000000022,
      "v": 46
    },
    {
      "midi": 57,
      "hit": false,
      "t": 57777.77200000007,
      "d": 555.5555000000022,
      "v": 40
    },
    {
      "midi": 61,
      "hit": false,
      "t": 57777.77200000007,
      "d": 555.5555000000022,
      "v": 40
    },
    {
      "midi": 47,
      "hit": false,
      "t": 58333.327500000014,
      "d": 1111.1109999999971,
      "v": 48
    },
    {
      "midi": 59,
      "hit": false,
      "t": 58333.32750000007,
      "d": 555.5555000000022,
      "v": 40
    },
    {
      "midi": 63,
      "hit": false,
      "t": 58333.32750000007,
      "d": 555.5555000000022,
      "v": 40
    },
    {
      "midi": 68,
      "hit": false,
      "t": 58333.32750000007,
      "d": 555.5555000000022,
      "v": 62
    },
    {
      "midi": 57,
      "hit": false,
      "t": 58888.883000000074,
      "d": 555.5555000000022,
      "v": 41
    },
    {
      "midi": 61,
      "hit": false,
      "t": 58888.883000000074,
      "d": 555.5555000000022,
      "v": 41
    },
    {
      "midi": 68,
      "hit": false,
      "t": 58888.883000000074,
      "d": 555.5555000000022,
      "v": 69
    },
    {
      "midi": 47,
      "hit": false,
      "t": 59444.43850000001,
      "d": 555.5555000000022,
      "v": 47
    },
    {
      "midi": 59,
      "hit": false,
      "t": 59444.43850000008,
      "d": 555.5555000000022,
      "v": 38
    },
    {
      "midi": 63,
      "hit": false,
      "t": 59444.43850000008,
      "d": 555.5555000000022,
      "v": 38
    },
    {
      "midi": 66,
      "hit": false,
      "t": 59444.43850000008,
      "d": 555.5555000000022,
      "v": 64
    },
    {
      "midi": 40,
      "hit": false,
      "t": 59999.99400000001,
      "d": 555.5555000000022,
      "v": 47
    },
    {
      "midi": 56,
      "hit": false,
      "t": 59999.99400000008,
      "d": 555.5555000000022,
      "v": 42
    },
    {
      "midi": 64,
      "hit": false,
      "t": 59999.99400000008,
      "d": 555.5555000000022,
      "v": 59
    },
    {
      "midi": 47,
      "hit": false,
      "t": 60555.549500000016,
      "d": 1111.1109999999971,
      "v": 47
    },
    {
      "midi": 59,
      "hit": false,
      "t": 60555.54950000008,
      "d": 555.5555000000022,
      "v": 41
    },
    {
      "midi": 56,
      "hit": false,
      "t": 61111.10500000008,
      "d": 555.5555000000022,
      "v": 43
    },
    {
      "midi": 47,
      "hit": false,
      "t": 61666.66050000001,
      "d": 555.5555000000022,
      "v": 47
    },
    {
      "midi": 59,
      "hit": false,
      "t": 61666.660500000085,
      "d": 555.5555000000022,
      "v": 39
    },
    {
      "midi": 40,
      "hit": false,
      "t": 62222.216000000015,
      "d": 555.5555000000022,
      "v": 48
    },
    {
      "midi": 62,
      "hit": false,
      "t": 62222.21600000009,
      "d": 555.5555000000022,
      "v": 43
    },
    {
      "midi": 66,
      "hit": false,
      "t": 62222.21600000009,
      "d": 555.5555000000022,
      "v": 43
    },
    {
      "midi": 71,
      "hit": false,
      "t": 62222.21600000009,
      "d": 555.5555000000022,
      "v": 67
    },
    {
      "midi": 52,
      "hit": false,
      "t": 62777.77150000002,
      "d": 1111.1109999999971,
      "v": 48
    },
    {
      "midi": 64,
      "hit": false,
      "t": 62777.77150000009,
      "d": 555.5555000000022,
      "v": 46
    },
    {
      "midi": 68,
      "hit": false,
      "t": 62777.77150000009,
      "d": 555.5555000000022,
      "v": 46
    },
    {
      "midi": 73,
      "hit": false,
      "t": 62777.77150000009,
      "d": 555.5555000000022,
      "v": 63
    },
    {
      "midi": 62,
      "hit": false,
      "t": 63333.32700000009,
      "d": 555.5555000000022,
      "v": 47
    },
    {
      "midi": 66,
      "hit": false,
      "t": 63333.32700000009,
      "d": 555.5555000000022,
      "v": 47
    },
    {
      "midi": 73,
      "hit": false,
      "t": 63333.32700000009,
      "d": 555.5555000000022,
      "v": 64
    },
    {
      "midi": 52,
      "hit": false,
      "t": 63888.882500000014,
      "d": 555.5555000000022,
      "v": 48
    },
    {
      "midi": 64,
      "hit": false,
      "t": 63888.882500000094,
      "d": 555.5555000000022,
      "v": 47
    },
    {
      "midi": 68,
      "hit": false,
      "t": 63888.882500000094,
      "d": 555.5555000000022,
      "v": 47
    },
    {
      "midi": 71,
      "hit": false,
      "t": 63888.882500000094,
      "d": 555.5555000000022,
      "v": 61
    },
    {
      "midi": 45,
      "hit": false,
      "t": 64444.43800000002,
      "d": 555.5555000000022,
      "v": 47
    },
    {
      "midi": 61,
      "hit": false,
      "t": 64444.4380000001,
      "d": 555.5555000000022,
      "v": 48
    },
    {
      "midi": 69,
      "hit": false,
      "t": 64444.4380000001,
      "d": 555.5555000000022,
      "v": 68
    },
    {
      "midi": 52,
      "hit": false,
      "t": 64999.99350000002,
      "d": 1111.1109999999971,
      "v": 46
    },
    {
      "midi": 64,
      "hit": false,
      "t": 64999.9935000001,
      "d": 555.5555000000022,
      "v": 47
    },
    {
      "midi": 71,
      "hit": false,
      "t": 64999.9935000001,
      "d": 555.5555000000022,
      "v": 70
    },
    {
      "midi": 61,
      "hit": false,
      "t": 65555.5490000001,
      "d": 555.5555000000022,
      "v": 47
    },
    {
      "midi": 68,
      "hit": false,
      "t": 65555.5490000001,
      "d": 555.5555000000022,
      "v": 66
    },
    {
      "midi": 52,
      "hit": false,
      "t": 66111.10450000002,
      "d": 555.5555000000022,
      "v": 49
    },
    {
      "midi": 64,
      "hit": false,
      "t": 66111.1045000001,
      "d": 555.5555000000022,
      "v": 47
    },
    {
      "midi": 69,
      "hit": false,
      "t": 66111.1045000001,
      "d": 555.5555000000022,
      "v": 63
    },
    {
      "midi": 44,
      "hit": false,
      "t": 66666.66000000002,
      "d": 555.5555000000022,
      "v": 51
    },
    {
      "midi": 66,
      "hit": false,
      "t": 66666.6600000001,
      "d": 555.5555000000022,
      "v": 47
    },
    {
      "midi": 72,
      "hit": false,
      "t": 66666.6600000001,
      "d": 555.5555000000022,
      "v": 47
    },
    {
      "midi": 75,
      "hit": false,
      "t": 66666.6600000001,
      "d": 555.5555000000022,
      "v": 68
    },
    {
      "midi": 56,
      "hit": false,
      "t": 67222.21550000002,
      "d": 1111.1110000000044,
      "v": 51
    },
    {
      "midi": 68,
      "hit": false,
      "t": 67222.21550000011,
      "d": 555.5555000000022,
      "v": 48
    },
    {
      "midi": 76,
      "hit": false,
      "t": 67222.21550000011,
      "d": 555.5555000000022,
      "v": 71
    },
    {
      "midi": 66,
      "hit": false,
      "t": 67777.77100000011,
      "d": 555.5555000000022,
      "v": 50
    },
    {
      "midi": 70,
      "hit": false,
      "t": 67777.77100000011,
      "d": 555.5555000000022,
      "v": 50
    },
    {
      "midi": 76,
      "hit": false,
      "t": 67777.77100000011,
      "d": 555.5555000000022,
      "v": 73
    },
    {
      "midi": 56,
      "hit": false,
      "t": 68333.32650000002,
      "d": 555.5555000000022,
      "v": 48
    },
    {
      "midi": 68,
      "hit": false,
      "t": 68333.32650000011,
      "d": 555.5555000000022,
      "v": 48
    },
    {
      "midi": 72,
      "hit": false,
      "t": 68333.32650000011,
      "d": 555.5555000000022,
      "v": 48
    },
    {
      "midi": 75,
      "hit": false,
      "t": 68333.32650000011,
      "d": 555.5555000000022,
      "v": 69
    },
    {
      "midi": 49,
      "hit": false,
      "t": 68888.88200000003,
      "d": 555.5555000000022,
      "v": 48
    },
    {
      "midi": 64,
      "hit": false,
      "t": 68888.88200000011,
      "d": 555.5555000000022,
      "v": 52
    },
    {
      "midi": 73,
      "hit": false,
      "t": 68888.88200000011,
      "d": 555.5555000000022,
      "v": 58
    },
    {
      "midi": 56,
      "hit": false,
      "t": 69444.43750000003,
      "d": 1111.1110000000044,
      "v": 48
    },
    {
      "midi": 68,
      "hit": false,
      "t": 69444.43750000012,
      "d": 555.5555000000022,
      "v": 52
    },
    {
      "midi": 75,
      "hit": false,
      "t": 69444.43750000012,
      "d": 555.5555000000022,
      "v": 61
    },
    {
      "midi": 64,
      "hit": false,
      "t": 69999.99300000012,
      "d": 555.5555000000022,
      "v": 49
    },
    {
      "midi": 72,
      "hit": false,
      "t": 69999.99300000012,
      "d": 555.5555000000022,
      "v": 62
    },
    {
      "midi": 56,
      "hit": false,
      "t": 70555.54850000003,
      "d": 555.5555000000022,
      "v": 49
    },
    {
      "midi": 68,
      "hit": false,
      "t": 70555.54850000012,
      "d": 555.5555000000022,
      "v": 49
    },
    {
      "midi": 73,
      "hit": false,
      "t": 70555.54850000012,
      "d": 555.5555000000022,
      "v": 58
    },
    {
      "midi": 49,
      "hit": false,
      "t": 71111.10400000004,
      "d": 555.5555000000022,
      "v": 32
    },
    {
      "midi": 52,
      "hit": false,
      "t": 71111.10400000004,
      "d": 555.5555000000022,
      "v": 51
    },
    {
      "midi": 54,
      "hit": false,
      "t": 71111.10400000004,
      "d": 555.5555000000022,
      "v": 51
    },
    {
      "midi": 58,
      "hit": false,
      "t": 71111.10400000004,
      "d": 555.5555000000022,
      "v": 38
    },
    {
      "midi": 64,
      "hit": false,
      "t": 71111.10400000012,
      "d": 555.5555000000022,
      "v": 63
    },
    {
      "midi": 70,
      "hit": false,
      "t": 71111.10400000012,
      "d": 555.5555000000022,
      "v": 48
    },
    {
      "midi": 76,
      "hit": false,
      "t": 71111.10400000012,
      "d": 555.5555000000022,
      "v": 70
    },
    {
      "midi": 49,
      "hit": false,
      "t": 71666.65950000004,
      "d": 555.5555000000022,
      "v": 48
    },
    {
      "midi": 52,
      "hit": false,
      "t": 71666.65950000004,
      "d": 555.5555000000022,
      "v": 59
    },
    {
      "midi": 54,
      "hit": false,
      "t": 71666.65950000004,
      "d": 555.5555000000022,
      "v": 58
    },
    {
      "midi": 58,
      "hit": false,
      "t": 71666.65950000004,
      "d": 555.5555000000022,
      "v": 48
    },
    {
      "midi": 66,
      "hit": false,
      "t": 71666.65950000013,
      "d": 555.5555000000022,
      "v": 69
    },
    {
      "midi": 70,
      "hit": false,
      "t": 71666.65950000013,
      "d": 555.5555000000022,
      "v": 56
    },
    {
      "midi": 78,
      "hit": false,
      "t": 71666.65950000013,
      "d": 555.5555000000022,
      "v": 77
    },
    {
      "midi": 49,
      "hit": false,
      "t": 72222.21500000004,
      "d": 555.5555000000022,
      "v": 52
    },
    {
      "midi": 52,
      "hit": false,
      "t": 72222.21500000004,
      "d": 555.5555000000022,
      "v": 61
    },
    {
      "midi": 54,
      "hit": false,
      "t": 72222.21500000004,
      "d": 555.5555000000022,
      "v": 58
    },
    {
      "midi": 58,
      "hit": false,
      "t": 72222.21500000004,
      "d": 555.5555000000022,
      "v": 52
    },
    {
      "midi": 63,
      "hit": false,
      "t": 72222.21500000013,
      "d": 555.5555000000022,
      "v": 71
    },
    {
      "midi": 70,
      "hit": false,
      "t": 72222.21500000013,
      "d": 555.5555000000022,
      "v": 55
    },
    {
      "midi": 75,
      "hit": false,
      "t": 72222.21500000013,
      "d": 555.5555000000022,
      "v": 78
    },
    {
      "midi": 49,
      "hit": false,
      "t": 72777.77050000004,
      "d": 555.5555000000022,
      "v": 55
    },
    {
      "midi": 52,
      "hit": false,
      "t": 72777.77050000004,
      "d": 555.5555000000022,
      "v": 60
    },
    {
      "midi": 54,
      "hit": false,
      "t": 72777.77050000004,
      "d": 555.5555000000022,
      "v": 64
    },
    {
      "midi": 58,
      "hit": false,
      "t": 72777.77050000004,
      "d": 555.5555000000022,
      "v": 54
    },
    {
      "midi": 64,
      "hit": false,
      "t": 72777.77050000013,
      "d": 555.5555000000022,
      "v": 74
    },
    {
      "midi": 70,
      "hit": false,
      "t": 72777.77050000013,
      "d": 555.5555000000022,
      "v": 57
    },
    {
      "midi": 76,
      "hit": false,
      "t": 72777.77050000013,
      "d": 555.5555000000022,
      "v": 80
    },
    {
      "midi": 48,
      "hit": false,
      "t": 73333.32600000004,
      "d": 555.5555000000022,
      "v": 60
    },
    {
      "midi": 52,
      "hit": false,
      "t": 73333.32600000004,
      "d": 555.5555000000022,
      "v": 72
    },
    {
      "midi": 54,
      "hit": false,
      "t": 73333.32600000004,
      "d": 555.5555000000022,
      "v": 65
    },
    {
      "midi": 58,
      "hit": false,
      "t": 73333.32600000004,
      "d": 555.5555000000022,
      "v": 58
    },
    {
      "midi": 66,
      "hit": false,
      "t": 73333.32600000013,
      "d": 555.5555000000022,
      "v": 74
    },
    {
      "midi": 70,
      "hit": false,
      "t": 73333.32600000013,
      "d": 555.5555000000022,
      "v": 57
    },
    {
      "midi": 78,
      "hit": false,
      "t": 73333.32600000013,
      "d": 555.5555000000022,
      "v": 85
    },
    {
      "midi": 48,
      "hit": false,
      "t": 73888.88150000005,
      "d": 555.5555000000022,
      "v": 60
    },
    {
      "midi": 52,
      "hit": false,
      "t": 73888.88150000005,
      "d": 555.5555000000022,
      "v": 75
    },
    {
      "midi": 54,
      "hit": false,
      "t": 73888.88150000005,
      "d": 555.5555000000022,
      "v": 71
    },
    {
      "midi": 58,
      "hit": false,
      "t": 73888.88150000005,
      "d": 555.5555000000022,
      "v": 69
    },
    {
      "midi": 68,
      "hit": false,
      "t": 73888.88150000013,
      "d": 555.5555000000022,
      "v": 77
    },
    {
      "midi": 70,
      "hit": false,
      "t": 73888.88150000013,
      "d": 555.5555000000022,
      "v": 60
    },
    {
      "midi": 80,
      "hit": false,
      "t": 73888.88150000013,
      "d": 555.5555000000022,
      "v": 88
    },
    {
      "midi": 48,
      "hit": false,
      "t": 74444.43700000005,
      "d": 555.5555000000022,
      "v": 69
    },
    {
      "midi": 52,
      "hit": false,
      "t": 74444.43700000005,
      "d": 555.5555000000022,
      "v": 76
    },
    {
      "midi": 54,
      "hit": false,
      "t": 74444.43700000005,
      "d": 555.5555000000022,
      "v": 78
    },
    {
      "midi": 58,
      "hit": false,
      "t": 74444.43700000005,
      "d": 555.5555000000022,
      "v": 73
    },
    {
      "midi": 64,
      "hit": false,
      "t": 74444.43700000014,
      "d": 555.5555000000022,
      "v": 83
    },
    {
      "midi": 70,
      "hit": false,
      "t": 74444.43700000014,
      "d": 555.5555000000022,
      "v": 61
    },
    {
      "midi": 76,
      "hit": false,
      "t": 74444.43700000014,
      "d": 555.5555000000022,
      "v": 89
    },
    {
      "midi": 48,
      "hit": false,
      "t": 74999.99250000005,
      "d": 555.5555000000022,
      "v": 73
    },
    {
      "midi": 52,
      "hit": false,
      "t": 74999.99250000005,
      "d": 555.5555000000022,
      "v": 80
    },
    {
      "midi": 54,
      "hit": false,
      "t": 74999.99250000005,
      "d": 555.5555000000022,
      "v": 79
    },
    {
      "midi": 58,
      "hit": false,
      "t": 74999.99250000005,
      "d": 555.5555000000022,
      "v": 75
    },
    {
      "midi": 66,
      "hit": false,
      "t": 74999.99250000014,
      "d": 555.5555000000022,
      "v": 85
    },
    {
      "midi": 70,
      "hit": false,
      "t": 74999.99250000014,
      "d": 555.5555000000022,
      "v": 68
    },
    {
      "midi": 78,
      "hit": false,
      "t": 74999.99250000014,
      "d": 555.5555000000022,
      "v": 91
    },
    {
      "midi": 47,
      "hit": false,
      "t": 75555.54800000005,
      "d": 4444.444000000003,
      "v": 71
    },
    {
      "midi": 52,
      "hit": false,
      "t": 75555.54800000005,
      "d": 4444.444000000003,
      "v": 77
    },
    {
      "midi": 56,
      "hit": false,
      "t": 75555.54800000005,
      "d": 4444.444000000003,
      "v": 83
    },
    {
      "midi": 59,
      "hit": false,
      "t": 75555.54800000005,
      "d": 4444.444000000003,
      "v": 81
    },
    {
      "midi": 68,
      "hit": false,
      "t": 75555.54800000014,
      "d": 555.5555000000022,
      "v": 54
    },
    {
      "midi": 76,
      "hit": false,
      "t": 75555.54800000014,
      "d": 555.5555000000022,
      "v": 66
    },
    {
      "midi": 80,
      "hit": false,
      "t": 75555.54800000014,
      "d": 555.5555000000022,
      "v": 96
    },
    {
      "midi": 71,
      "hit": false,
      "t": 76111.10350000014,
      "d": 555.5555000000022,
      "v": 53
    },
    {
      "midi": 68,
      "hit": false,
      "t": 76666.65900000015,
      "d": 555.5555000000022,
      "v": 52
    },
    {
      "midi": 71,
      "hit": false,
      "t": 77222.21450000015,
      "d": 555.5555000000022,
      "v": 54
    },
    {
      "midi": 68,
      "hit": false,
      "t": 77777.77000000015,
      "d": 555.5555000000022,
      "v": 50
    },
    {
      "midi": 71,
      "hit": false,
      "t": 78333.32550000015,
      "d": 555.5555000000022,
      "v": 50
    },
    {
      "midi": 78,
      "hit": false,
      "t": 78333.32550000015,
      "d": 555.5555000000022,
      "v": 68
    },
    {
      "midi": 68,
      "hit": false,
      "t": 78888.88100000015,
      "d": 555.5555000000022,
      "v": 53
    },
    {
      "midi": 76,
      "hit": false,
      "t": 78888.88100000015,
      "d": 555.5555000000022,
      "v": 68
    },
    {
      "midi": 71,
      "hit": false,
      "t": 79444.43650000016,
      "d": 555.5555000000022,
      "v": 51
    },
    {
      "midi": 73,
      "hit": false,
      "t": 79444.43650000016,
      "d": 555.5555000000022,
      "v": 71
    },
    {
      "midi": 54,
      "hit": false,
      "t": 79999.99200000006,
      "d": 555.5555000000022,
      "v": 51
    },
    {
      "midi": 63,
      "hit": false,
      "t": 79999.99200000016,
      "d": 555.5555000000022,
      "v": 51
    },
    {
      "midi": 75,
      "hit": false,
      "t": 79999.99200000016,
      "d": 555.5555000000022,
      "v": 73
    },
    {
      "midi": 59,
      "hit": false,
      "t": 80555.54750000006,
      "d": 555.5555000000022,
      "v": 50
    },
    {
      "midi": 66,
      "hit": false,
      "t": 80555.54750000016,
      "d": 555.5555000000022,
      "v": 51
    },
    {
      "midi": 47,
      "hit": false,
      "t": 81111.10300000006,
      "d": 555.5555000000022,
      "v": 53
    },
    {
      "midi": 63,
      "hit": false,
      "t": 81111.10300000016,
      "d": 555.5555000000022,
      "v": 49
    },
    {
      "midi": 59,
      "hit": false,
      "t": 81666.65850000006,
      "d": 555.5555000000022,
      "v": 50
    },
    {
      "midi": 66,
      "hit": false,
      "t": 81666.65850000017,
      "d": 555.5555000000022,
      "v": 48
    },
    {
      "midi": 49,
      "hit": false,
      "t": 82222.21400000007,
      "d": 555.5555000000022,
      "v": 50
    },
    {
      "midi": 64,
      "hit": false,
      "t": 82222.21400000017,
      "d": 555.5555000000022,
      "v": 47
    },
    {
      "midi": 76,
      "hit": false,
      "t": 82222.21400000017,
      "d": 555.5555000000022,
      "v": 63
    },
    {
      "midi": 56,
      "hit": false,
      "t": 82777.76950000007,
      "d": 555.5555000000022,
      "v": 48
    },
    {
      "midi": 68,
      "hit": false,
      "t": 82777.76950000017,
      "d": 555.5555000000022,
      "v": 48
    },
    {
      "midi": 75,
      "hit": false,
      "t": 82777.76950000017,
      "d": 555.5555000000022,
      "v": 63
    },
    {
      "midi": 44,
      "hit": false,
      "t": 83333.32500000007,
      "d": 555.5555000000022,
      "v": 49
    },
    {
      "midi": 64,
      "hit": false,
      "t": 83333.32500000017,
      "d": 555.5555000000022,
      "v": 47
    },
    {
      "midi": 73,
      "hit": false,
      "t": 83333.32500000017,
      "d": 555.5555000000022,
      "v": 60
    },
    {
      "midi": 56,
      "hit": false,
      "t": 83888.88050000007,
      "d": 555.5555000000022,
      "v": 51
    },
    {
      "midi": 68,
      "hit": false,
      "t": 83888.88050000017,
      "d": 555.5555000000022,
      "v": 60
    },
    {
      "midi": 51,
      "hit": false,
      "t": 84444.43600000007,
      "d": 555.5555000000022,
      "v": 48
    },
    {
      "midi": 59,
      "hit": false,
      "t": 84444.43600000018,
      "d": 555.5555000000022,
      "v": 46
    },
    {
      "midi": 71,
      "hit": false,
      "t": 84444.43600000018,
      "d": 555.5555000000022,
      "v": 57
    },
    {
      "midi": 56,
      "hit": false,
      "t": 84999.99150000008,
      "d": 555.5555000000022,
      "v": 49
    },
    {
      "midi": 63,
      "hit": false,
      "t": 84999.99150000018,
      "d": 555.5555000000022,
      "v": 44
    },
    {
      "midi": 44,
      "hit": false,
      "t": 85555.54700000008,
      "d": 555.5555000000022,
      "v": 49
    },
    {
      "midi": 59,
      "hit": false,
      "t": 85555.54700000018,
      "d": 555.5555000000022,
      "v": 39
    },
    {
      "midi": 56,
      "hit": false,
      "t": 86111.10250000008,
      "d": 555.5555000000022,
      "v": 47
    },
    {
      "midi": 63,
      "hit": false,
      "t": 86111.10250000018,
      "d": 555.5555000000022,
      "v": 40
    },
    {
      "midi": 45,
      "hit": false,
      "t": 86666.65800000008,
      "d": 555.5555000000022,
      "v": 45
    },
    {
      "midi": 61,
      "hit": false,
      "t": 86666.65800000018,
      "d": 555.5555000000022,
      "v": 40
    },
    {
      "midi": 73,
      "hit": false,
      "t": 86666.65800000018,
      "d": 555.5555000000022,
      "v": 59
    },
    {
      "midi": 52,
      "hit": false,
      "t": 87222.21350000009,
      "d": 555.5555000000022,
      "v": 43
    },
    {
      "midi": 64,
      "hit": false,
      "t": 87222.21350000019,
      "d": 555.5555000000022,
      "v": 42
    },
    {
      "midi": 71,
      "hit": false,
      "t": 87222.21350000019,
      "d": 555.5555000000022,
      "v": 57
    },
    {
      "midi": 40,
      "hit": false,
      "t": 87777.76900000009,
      "d": 555.5555000000022,
      "v": 41
    },
    {
      "midi": 61,
      "hit": false,
      "t": 87777.76900000019,
      "d": 555.5555000000022,
      "v": 38
    },
    {
      "midi": 69,
      "hit": false,
      "t": 87777.76900000019,
      "d": 555.5555000000022,
      "v": 55
    },
    {
      "midi": 52,
      "hit": false,
      "t": 88333.32450000009,
      "d": 555.5555000000022,
      "v": 39
    },
    {
      "midi": 64,
      "hit": false,
      "t": 88333.32450000019,
      "d": 555.5555000000022,
      "v": 54
    },
    {
      "midi": 47,
      "hit": false,
      "t": 88888.88000000009,
      "d": 555.5555000000022,
      "v": 35
    },
    {
      "midi": 56,
      "hit": false,
      "t": 88888.8800000002,
      "d": 555.5555000000022,
      "v": 35
    },
    {
      "midi": 68,
      "hit": false,
      "t": 88888.8800000002,
      "d": 555.5555000000022,
      "v": 53
    },
    {
      "midi": 52,
      "hit": false,
      "t": 89444.4355000001,
      "d": 555.5555000000022,
      "v": 38
    },
    {
      "midi": 59,
      "hit": false,
      "t": 89444.4355000002,
      "d": 555.5555000000022,
      "v": 39
    },
    {
      "midi": 40,
      "hit": false,
      "t": 89999.9910000001,
      "d": 555.5555000000022,
      "v": 37
    },
    {
      "midi": 56,
      "hit": false,
      "t": 89999.9910000002,
      "d": 555.5555000000022,
      "v": 34
    },
    {
      "midi": 52,
      "hit": false,
      "t": 90555.5465000001,
      "d": 555.5555000000022,
      "v": 38
    },
    {
      "midi": 59,
      "hit": false,
      "t": 90555.5465000002,
      "d": 555.5555000000022,
      "v": 33
    },
    {
      "midi": 47,
      "hit": false,
      "t": 91111.1020000001,
      "d": 555.5555000000022,
      "v": 41
    },
    {
      "midi": 56,
      "hit": false,
      "t": 91111.1020000002,
      "d": 555.5555000000022,
      "v": 31
    },
    {
      "midi": 52,
      "hit": false,
      "t": 91666.6575000001,
      "d": 555.5555000000022,
      "v": 42
    },
    {
      "midi": 59,
      "hit": false,
      "t": 91666.6575000002,
      "d": 555.5555000000022,
      "v": 27
    },
    {
      "midi": 40,
      "hit": false,
      "t": 92222.2130000001,
      "d": 555.5555000000022,
      "v": 34
    },
    {
      "midi": 56,
      "hit": false,
      "t": 92222.2130000002,
      "d": 555.5555000000022,
      "v": 28
    },
    {
      "midi": 47,
      "hit": false,
      "t": 92777.76850000011,
      "d": 555.5555000000022,
      "v": 32
    },
    {
      "midi": 59,
      "hit": false,
      "t": 92777.76850000021,
      "d": 277.77774999999383,
      "v": 29
    },
    {
      "midi": 68,
      "hit": false,
      "t": 92777.76850000021,
      "d": 277.77774999999383,
      "v": 41
    },
    {
      "midi": 66,
      "hit": false,
      "t": 93055.5462500002,
      "d": 277.77774999999383,
      "v": 40
    },
    {
      "midi": 52,
      "hit": false,
      "t": 93333.32400000011,
      "d": 2222.2219999999943,
      "v": 37
    },
    {
      "midi": 56,
      "hit": false,
      "t": 93333.3240000002,
      "d": 2222.2219999999943,
      "v": 32
    },
    {
      "midi": 64,
      "hit": false,
      "t": 93333.3240000002,
      "d": 2222.2219999999943,
      "v": 43
    },
    {
      "midi": 68,
      "hit": false,
      "t": 95555.54600000019,
      "d": 555.5555000000022,
      "v": 58
    },
    {
      "midi": 76,
      "hit": false,
      "t": 95555.54600000019,
      "d": 555.5555000000022,
      "v": 70
    },
    {
      "midi": 66,
      "hit": false,
      "t": 96111.1015000002,
      "d": 555.5555000000022,
      "v": 54
    },
    {
      "midi": 75,
      "hit": false,
      "t": 96111.1015000002,
      "d": 555.5555000000022,
      "v": 70
    },
    {
      "midi": 68,
      "hit": false,
      "t": 96666.6570000002,
      "d": 555.5555000000022,
      "v": 56
    },
    {
      "midi": 76,
      "hit": false,
      "t": 96666.6570000002,
      "d": 555.5555000000022,
      "v": 73
    },
    {
      "midi": 63,
      "hit": false,
      "t": 97222.2125000002,
      "d": 555.5555000000022,
      "v": 56
    },
    {
      "midi": 71,
      "hit": false,
      "t": 97222.2125000002,
      "d": 555.5555000000022,
      "v": 72
    },
    {
      "midi": 42,
      "hit": false,
      "t": 97777.7680000001,
      "d": 555.5555000000022,
      "v": 53
    },
    {
      "midi": 66,
      "hit": false,
      "t": 97777.7680000002,
      "d": 555.5555000000022,
      "v": 54
    },
    {
      "midi": 75,
      "hit": false,
      "t": 97777.7680000002,
      "d": 555.5555000000022,
      "v": 73
    },
    {
      "midi": 58,
      "hit": false,
      "t": 98333.3235000001,
      "d": 555.5555000000022,
      "v": 54
    },
    {
      "midi": 64,
      "hit": false,
      "t": 98333.3235000002,
      "d": 555.5555000000022,
      "v": 57
    },
    {
      "midi": 73,
      "hit": false,
      "t": 98333.3235000002,
      "d": 555.5555000000022,
      "v": 68
    },
    {
      "midi": 42,
      "hit": false,
      "t": 98888.8790000001,
      "d": 555.5555000000022,
      "v": 56
    },
    {
      "midi": 66,
      "hit": false,
      "t": 98888.8790000002,
      "d": 555.5555000000022,
      "v": 52
    },
    {
      "midi": 75,
      "hit": false,
      "t": 98888.8790000002,
      "d": 555.5555000000022,
      "v": 74
    },
    {
      "midi": 59,
      "hit": false,
      "t": 99444.4345000001,
      "d": 555.5555000000022,
      "v": 54
    },
    {
      "midi": 63,
      "hit": false,
      "t": 99444.4345000002,
      "d": 555.5555000000022,
      "v": 57
    },
    {
      "midi": 68,
      "hit": false,
      "t": 99444.4345000002,
      "d": 555.5555000000022,
      "v": 76
    },
    {
      "midi": 42,
      "hit": false,
      "t": 99999.9900000001,
      "d": 555.5555000000022,
      "v": 56
    },
    {
      "midi": 64,
      "hit": false,
      "t": 99999.99000000021,
      "d": 555.5555000000022,
      "v": 56
    },
    {
      "midi": 71,
      "hit": false,
      "t": 99999.99000000021,
      "d": 555.5555000000022,
      "v": 73
    },
    {
      "midi": 61,
      "hit": false,
      "t": 100555.54550000011,
      "d": 555.5555000000022,
      "v": 62
    },
    {
      "midi": 70,
      "hit": false,
      "t": 100555.54550000021,
      "d": 555.5555000000022,
      "v": 71
    },
    {
      "midi": 59,
      "hit": false,
      "t": 101111.10100000011,
      "d": 555.5555000000022,
      "v": 58
    },
    {
      "midi": 68,
      "hit": false,
      "t": 101111.10100000021,
      "d": 555.5555000000022,
      "v": 61
    },
    {
      "midi": 73,
      "hit": false,
      "t": 101111.10100000021,
      "d": 555.5555000000022,
      "v": 70
    },
    {
      "midi": 58,
      "hit": false,
      "t": 101666.65650000011,
      "d": 555.5555000000022,
      "v": 57
    },
    {
      "midi": 66,
      "hit": false,
      "t": 101666.65650000022,
      "d": 555.5555000000022,
      "v": 54
    },
    {
      "midi": 47,
      "hit": false,
      "t": 102222.21200000012,
      "d": 555.5555000000022,
      "v": 60
    },
    {
      "midi": 70,
      "hit": false,
      "t": 102222.21200000022,
      "d": 277.77774999999383,
      "v": 70
    },
    {
      "midi": 64,
      "hit": false,
      "t": 102222.21200000022,
      "d": 555.5554999999877,
      "v": 59
    },
    {
      "midi": 68,
      "hit": false,
      "t": 102222.21200000022,
      "d": 555.5554999999877,
      "v": 65
    },
    {
      "midi": 54,
      "hit": false,
      "t": 102777.76750000012,
      "d": 555.5555000000022,
      "v": 53
    },
    {
      "midi": 63,
      "hit": false,
      "t": 102777.7675000002,
      "d": 555.5555000000022,
      "v": 61
    },
    {
      "midi": 66,
      "hit": false,
      "t": 102777.7675000002,
      "d": 555.5555000000022,
      "v": 67
    },
    {
      "midi": 59,
      "hit": false,
      "t": 103333.32300000012,
      "d": 555.5555000000022,
      "v": 56
    },
    {
      "midi": 70,
      "hit": false,
      "t": 103333.32300000021,
      "d": 277.77774999999383,
      "v": 68
    },
    {
      "midi": 64,
      "hit": false,
      "t": 103333.32300000021,
      "d": 555.5554999999877,
      "v": 57
    },
    {
      "midi": 68,
      "hit": false,
      "t": 103333.32300000021,
      "d": 555.5554999999877,
      "v": 66
    },
    {
      "midi": 63,
      "hit": false,
      "t": 103888.8785000002,
      "d": 555.5555000000022,
      "v": 57
    },
    {
      "midi": 66,
      "hit": false,
      "t": 103888.8785000002,
      "d": 555.5555000000022,
      "v": 70
    },
    {
      "midi": 68,
      "hit": false,
      "t": 104444.4340000002,
      "d": 555.5555000000022,
      "v": 50
    },
    {
      "midi": 76,
      "hit": false,
      "t": 104444.4340000002,
      "d": 555.5555000000022,
      "v": 54
    },
    {
      "midi": 66,
      "hit": false,
      "t": 104999.9895000002,
      "d": 555.5555000000022,
      "v": 52
    },
    {
      "midi": 75,
      "hit": false,
      "t": 104999.9895000002,
      "d": 555.5555000000022,
      "v": 53
    },
    {
      "midi": 68,
      "hit": false,
      "t": 105555.5450000002,
      "d": 555.5555000000022,
      "v": 51
    },
    {
      "midi": 76,
      "hit": false,
      "t": 105555.5450000002,
      "d": 555.5555000000022,
      "v": 53
    },
    {
      "midi": 63,
      "hit": false,
      "t": 106111.1005000002,
      "d": 555.5555000000022,
      "v": 49
    },
    {
      "midi": 71,
      "hit": false,
      "t": 106111.1005000002,
      "d": 555.5555000000022,
      "v": 55
    },
    {
      "midi": 42,
      "hit": false,
      "t": 106666.65600000012,
      "d": 555.5555000000022,
      "v": 51
    },
    {
      "midi": 66,
      "hit": false,
      "t": 106666.6560000002,
      "d": 555.5555000000022,
      "v": 49
    },
    {
      "midi": 75,
      "hit": false,
      "t": 106666.6560000002,
      "d": 555.5555000000022,
      "v": 55
    },
    {
      "midi": 58,
      "hit": false,
      "t": 107222.21150000012,
      "d": 555.5555000000022,
      "v": 52
    },
    {
      "midi": 64,
      "hit": false,
      "t": 107222.21150000021,
      "d": 555.5555000000022,
      "v": 50
    },
    {
      "midi": 73,
      "hit": false,
      "t": 107222.21150000021,
      "d": 555.5555000000022,
      "v": 55
    },
    {
      "midi": 42,
      "hit": false,
      "t": 107777.76700000012,
      "d": 555.5555000000022,
      "v": 50
    },
    {
      "midi": 66,
      "hit": false,
      "t": 107777.76700000021,
      "d": 555.5555000000022,
      "v": 52
    },
    {
      "midi": 75,
      "hit": false,
      "t": 107777.76700000021,
      "d": 555.5555000000022,
      "v": 56
    },
    {
      "midi": 59,
      "hit": false,
      "t": 108333.32250000013,
      "d": 555.5555000000022,
      "v": 51
    },
    {
      "midi": 63,
      "hit": false,
      "t": 108333.32250000021,
      "d": 555.5555000000022,
      "v": 49
    },
    {
      "midi": 68,
      "hit": false,
      "t": 108333.32250000021,
      "d": 555.5555000000022,
      "v": 54
    },
    {
      "midi": 42,
      "hit": false,
      "t": 108888.87800000013,
      "d": 555.5555000000022,
      "v": 52
    },
    {
      "midi": 64,
      "hit": false,
      "t": 108888.87800000022,
      "d": 555.5555000000022,
      "v": 51
    },
    {
      "midi": 71,
      "hit": false,
      "t": 108888.87800000022,
      "d": 555.5555000000022,
      "v": 56
    },
    {
      "midi": 61,
      "hit": false,
      "t": 109444.43350000013,
      "d": 555.5555000000022,
      "v": 51
    },
    {
      "midi": 70,
      "hit": false,
      "t": 109444.43350000022,
      "d": 555.5555000000022,
      "v": 53
    },
    {
      "midi": 59,
      "hit": false,
      "t": 109999.98900000013,
      "d": 555.5555000000022,
      "v": 52
    },
    {
      "midi": 68,
      "hit": false,
      "t": 109999.98900000022,
      "d": 555.5555000000022,
      "v": 49
    },
    {
      "midi": 73,
      "hit": false,
      "t": 109999.98900000022,
      "d": 555.5555000000022,
      "v": 53
    },
    {
      "midi": 58,
      "hit": false,
      "t": 110555.54450000013,
      "d": 555.5555000000022,
      "v": 51
    },
    {
      "midi": 66,
      "hit": false,
      "t": 110555.54450000022,
      "d": 555.5555000000022,
      "v": 50
    },
    {
      "midi": 47,
      "hit": false,
      "t": 111111.10000000014,
      "d": 555.5555000000022,
      "v": 50
    },
    {
      "midi": 70,
      "hit": false,
      "t": 111111.10000000022,
      "d": 277.77774999999383,
      "v": 53
    },
    {
      "midi": 64,
      "hit": false,
      "t": 111111.10000000022,
      "d": 555.5554999999877,
      "v": 48
    },
    {
      "midi": 68,
      "hit": false,
      "t": 111111.10000000022,
      "d": 555.5554999999877,
      "v": 54
    },
    {
      "midi": 54,
      "hit": false,
      "t": 111666.65550000014,
      "d": 555.5555000000022,
      "v": 49
    },
    {
      "midi": 63,
      "hit": false,
      "t": 111666.65550000021,
      "d": 555.5555000000022,
      "v": 48
    },
    {
      "midi": 66,
      "hit": false,
      "t": 111666.65550000021,
      "d": 555.5555000000022,
      "v": 54
    },
    {
      "midi": 59,
      "hit": false,
      "t": 112222.21100000014,
      "d": 555.5555000000022,
      "v": 49
    },
    {
      "midi": 70,
      "hit": false,
      "t": 112222.21100000021,
      "d": 277.77774999999383,
      "v": 53
    },
    {
      "midi": 64,
      "hit": false,
      "t": 112222.21100000021,
      "d": 555.5554999999877,
      "v": 48
    },
    {
      "midi": 68,
      "hit": false,
      "t": 112222.21100000021,
      "d": 555.5554999999877,
      "v": 54
    },
    {
      "midi": 63,
      "hit": false,
      "t": 112777.7665000002,
      "d": 555.5555000000022,
      "v": 48
    },
    {
      "midi": 66,
      "hit": false,
      "t": 112777.7665000002,
      "d": 555.5555000000022,
      "v": 56
    },
    {
      "midi": 69,
      "hit": false,
      "t": 113333.3220000002,
      "d": 555.5555000000022,
      "v": 54
    },
    {
      "midi": 78,
      "hit": false,
      "t": 113333.3220000002,
      "d": 555.5555000000022,
      "v": 68
    },
    {
      "midi": 68,
      "hit": false,
      "t": 113888.8775000002,
      "d": 555.5555000000022,
      "v": 52
    },
    {
      "midi": 76,
      "hit": false,
      "t": 113888.8775000002,
      "d": 555.5555000000022,
      "v": 72
    },
    {
      "midi": 69,
      "hit": false,
      "t": 114444.43300000021,
      "d": 555.5555000000022,
      "v": 54
    },
    {
      "midi": 78,
      "hit": false,
      "t": 114444.43300000021,
      "d": 555.5555000000022,
      "v": 71
    },
    {
      "midi": 64,
      "hit": false,
      "t": 114999.98850000021,
      "d": 555.5555000000022,
      "v": 52
    },
    {
      "midi": 73,
      "hit": false,
      "t": 114999.98850000021,
      "d": 555.5555000000022,
      "v": 67
    },
    {
      "midi": 44,
      "hit": false,
      "t": 115555.54400000014,
      "d": 555.5555000000022,
      "v": 56
    },
    {
      "midi": 68,
      "hit": false,
      "t": 115555.54400000021,
      "d": 555.5555000000022,
      "v": 53
    },
    {
      "midi": 76,
      "hit": false,
      "t": 115555.54400000021,
      "d": 555.5555000000022,
      "v": 74
    },
    {
      "midi": 60,
      "hit": false,
      "t": 116111.09950000014,
      "d": 555.5555000000022,
      "v": 64
    },
    {
      "midi": 66,
      "hit": false,
      "t": 116111.09950000021,
      "d": 555.5555000000022,
      "v": 53
    },
    {
      "midi": 75,
      "hit": false,
      "t": 116111.09950000021,
      "d": 555.5555000000022,
      "v": 73
    },
    {
      "midi": 44,
      "hit": false,
      "t": 116666.65500000014,
      "d": 555.5555000000022,
      "v": 60
    },
    {
      "midi": 68,
      "hit": false,
      "t": 116666.65500000022,
      "d": 555.5555000000022,
      "v": 51
    },
    {
      "midi": 76,
      "hit": false,
      "t": 116666.65500000022,
      "d": 555.5555000000022,
      "v": 72
    },
    {
      "midi": 61,
      "hit": false,
      "t": 117222.21050000015,
      "d": 555.5555000000022,
      "v": 61
    },
    {
      "midi": 64,
      "hit": false,
      "t": 117222.21050000015,
      "d": 555.5555000000022,
      "v": 53
    },
    {
      "midi": 70,
      "hit": false,
      "t": 117222.21050000022,
      "d": 555.5555000000022,
      "v": 65
    },
    {
      "midi": 44,
      "hit": false,
      "t": 117777.76600000015,
      "d": 555.5555000000022,
      "v": 58
    },
    {
      "midi": 66,
      "hit": false,
      "t": 117777.76600000022,
      "d": 555.5555000000022,
      "v": 51
    },
    {
      "midi": 73,
      "hit": false,
      "t": 117777.76600000022,
      "d": 555.5555000000022,
      "v": 73
    },
    {
      "midi": 63,
      "hit": false,
      "t": 118333.32150000015,
      "d": 555.5555000000022,
      "v": 59
    },
    {
      "midi": 72,
      "hit": false,
      "t": 118333.32150000022,
      "d": 555.5555000000022,
      "v": 70
    },
    {
      "midi": 61,
      "hit": false,
      "t": 118888.87700000015,
      "d": 555.5555000000022,
      "v": 58
    },
    {
      "midi": 69,
      "hit": false,
      "t": 118888.87700000023,
      "d": 555.5555000000022,
      "v": 53
    },
    {
      "midi": 75,
      "hit": false,
      "t": 118888.87700000023,
      "d": 555.5555000000022,
      "v": 70
    },
    {
      "midi": 60,
      "hit": false,
      "t": 119444.43250000016,
      "d": 555.5555000000022,
      "v": 62
    },
    {
      "midi": 68,
      "hit": false,
      "t": 119444.43250000023,
      "d": 555.5555000000022,
      "v": 51
    },
    {
      "midi": 49,
      "hit": false,
      "t": 119999.98800000016,
      "d": 555.5555000000022,
      "v": 58
    },
    {
      "midi": 71,
      "hit": false,
      "t": 119999.98800000023,
      "d": 277.77774999999383,
      "v": 64
    },
    {
      "midi": 66,
      "hit": false,
      "t": 119999.98800000023,
      "d": 555.5554999999877,
      "v": 54
    },
    {
      "midi": 69,
      "hit": false,
      "t": 119999.98800000023,
      "d": 555.5554999999877,
      "v": 75
    },
    {
      "midi": 56,
      "hit": false,
      "t": 120555.54350000016,
      "d": 555.5555000000022,
      "v": 55
    },
    {
      "midi": 64,
      "hit": false,
      "t": 120555.54350000022,
      "d": 555.5555000000022,
      "v": 52
    },
    {
      "midi": 68,
      "hit": false,
      "t": 120555.54350000022,
      "d": 555.5555000000022,
      "v": 67
    },
    {
      "midi": 61,
      "hit": false,
      "t": 121111.09900000016,
      "d": 555.5555000000022,
      "v": 57
    },
    {
      "midi": 71,
      "hit": false,
      "t": 121111.09900000022,
      "d": 277.77774999999383,
      "v": 64
    },
    {
      "midi": 66,
      "hit": false,
      "t": 121111.09900000022,
      "d": 555.5554999999877,
      "v": 54
    },
    {
      "midi": 69,
      "hit": false,
      "t": 121111.09900000022,
      "d": 555.5554999999877,
      "v": 67
    },
    {
      "midi": 64,
      "hit": false,
      "t": 121666.65450000021,
      "d": 555.5555000000022,
      "v": 53
    },
    {
      "midi": 68,
      "hit": false,
      "t": 121666.65450000021,
      "d": 555.5555000000022,
      "v": 68
    },
    {
      "midi": 69,
      "hit": false,
      "t": 122222.21000000021,
      "d": 555.5555000000022,
      "v": 47
    },
    {
      "midi": 78,
      "hit": false,
      "t": 122222.21000000021,
      "d": 555.5555000000022,
      "v": 51
    },
    {
      "midi": 68,
      "hit": false,
      "t": 122777.76550000021,
      "d": 555.5555000000022,
      "v": 49
    },
    {
      "midi": 76,
      "hit": false,
      "t": 122777.76550000021,
      "d": 555.5555000000022,
      "v": 52
    },
    {
      "midi": 69,
      "hit": false,
      "t": 123333.32100000021,
      "d": 555.5555000000022,
      "v": 46
    },
    {
      "midi": 78,
      "hit": false,
      "t": 123333.32100000021,
      "d": 555.5555000000022,
      "v": 52
    },
    {
      "midi": 64,
      "hit": false,
      "t": 123888.87650000022,
      "d": 555.5555000000022,
      "v": 47
    },
    {
      "midi": 73,
      "hit": false,
      "t": 123888.87650000022,
      "d": 555.5555000000022,
      "v": 51
    },
    {
      "midi": 44,
      "hit": false,
      "t": 124444.43200000016,
      "d": 555.5555000000022,
      "v": 51
    },
    {
      "midi": 68,
      "hit": false,
      "t": 124444.43200000022,
      "d": 555.5555000000022,
      "v": 47
    },
    {
      "midi": 76,
      "hit": false,
      "t": 124444.43200000022,
      "d": 555.5555000000022,
      "v": 51
    },
    {
      "midi": 60,
      "hit": false,
      "t": 124999.98750000016,
      "d": 555.5555000000022,
      "v": 64
    },
    {
      "midi": 66,
      "hit": false,
      "t": 124999.98750000022,
      "d": 555.5555000000022,
      "v": 48
    },
    {
      "midi": 75,
      "hit": false,
      "t": 124999.98750000022,
      "d": 555.5555000000022,
      "v": 52
    },
    {
      "midi": 44,
      "hit": false,
      "t": 125555.54300000017,
      "d": 555.5555000000022,
      "v": 54
    },
    {
      "midi": 68,
      "hit": false,
      "t": 125555.54300000022,
      "d": 555.5555000000022,
      "v": 46
    },
    {
      "midi": 76,
      "hit": false,
      "t": 125555.54300000022,
      "d": 555.5555000000022,
      "v": 51
    },
    {
      "midi": 61,
      "hit": false,
      "t": 126111.09850000017,
      "d": 555.5555000000022,
      "v": 52
    },
    {
      "midi": 64,
      "hit": false,
      "t": 126111.09850000023,
      "d": 555.5555000000022,
      "v": 48
    },
    {
      "midi": 70,
      "hit": false,
      "t": 126111.09850000023,
      "d": 555.5555000000022,
      "v": 52
    },
    {
      "midi": 44,
      "hit": false,
      "t": 126666.65400000017,
      "d": 555.5555000000022,
      "v": 52
    },
    {
      "midi": 66,
      "hit": false,
      "t": 126666.65400000023,
      "d": 555.5555000000022,
      "v": 47
    },
    {
      "midi": 73,
      "hit": false,
      "t": 126666.65400000023,
      "d": 555.5555000000022,
      "v": 52
    },
    {
      "midi": 63,
      "hit": false,
      "t": 127222.20950000017,
      "d": 555.5555000000022,
      "v": 53
    },
    {
      "midi": 72,
      "hit": false,
      "t": 127222.20950000023,
      "d": 555.5555000000022,
      "v": 52
    },
    {
      "midi": 61,
      "hit": false,
      "t": 127777.76500000017,
      "d": 555.5555000000022,
      "v": 55
    },
    {
      "midi": 69,
      "hit": false,
      "t": 127777.76500000023,
      "d": 555.5555000000022,
      "v": 47
    },
    {
      "midi": 75,
      "hit": false,
      "t": 127777.76500000023,
      "d": 555.5555000000022,
      "v": 54
    },
    {
      "midi": 60,
      "hit": false,
      "t": 128333.32050000018,
      "d": 555.5555000000022,
      "v": 54
    },
    {
      "midi": 68,
      "hit": false,
      "t": 128333.32050000023,
      "d": 555.5555000000022,
      "v": 48
    },
    {
      "midi": 49,
      "hit": false,
      "t": 128888.87600000018,
      "d": 555.5555000000022,
      "v": 53
    },
    {
      "midi": 71,
      "hit": false,
      "t": 128888.87600000024,
      "d": 277.77774999999383,
      "v": 61
    },
    {
      "midi": 66,
      "hit": false,
      "t": 128888.87600000024,
      "d": 555.5554999999877,
      "v": 49
    },
    {
      "midi": 69,
      "hit": false,
      "t": 128888.87600000024,
      "d": 555.5554999999877,
      "v": 63
    },
    {
      "midi": 56,
      "hit": false,
      "t": 129444.43150000018,
      "d": 555.5555000000022,
      "v": 57
    },
    {
      "midi": 64,
      "hit": false,
      "t": 129444.43150000022,
      "d": 555.5555000000022,
      "v": 53
    },
    {
      "midi": 68,
      "hit": false,
      "t": 129444.43150000022,
      "d": 555.5555000000022,
      "v": 61
    },
    {
      "midi": 61,
      "hit": false,
      "t": 129999.98700000018,
      "d": 555.5555000000022,
      "v": 58
    },
    {
      "midi": 71,
      "hit": false,
      "t": 129999.98700000023,
      "d": 277.77774999999383,
      "v": 64
    },
    {
      "midi": 66,
      "hit": false,
      "t": 129999.98700000023,
      "d": 555.5554999999877,
      "v": 54
    },
    {
      "midi": 69,
      "hit": false,
      "t": 129999.98700000023,
      "d": 555.5554999999877,
      "v": 68
    },
    {
      "midi": 49,
      "hit": false,
      "t": 130555.54250000019,
      "d": 555.5554999999877,
      "v": 65
    },
    {
      "midi": 64,
      "hit": false,
      "t": 130555.54250000021,
      "d": 555.5554999999877,
      "v": 57
    },
    {
      "midi": 68,
      "hit": false,
      "t": 130555.54250000021,
      "d": 555.5554999999877,
      "v": 63
    },
    {
      "midi": 47,
      "hit": false,
      "t": 131111.09800000017,
      "d": 555.5554999999877,
      "v": 64
    },
    {
      "midi": 71,
      "hit": false,
      "t": 131111.0980000002,
      "d": 277.7777500000084,
      "v": 80
    },
    {
      "midi": 66,
      "hit": false,
      "t": 131111.0980000002,
      "d": 555.5555000000168,
      "v": 53
    },
    {
      "midi": 69,
      "hit": false,
      "t": 131111.0980000002,
      "d": 555.5555000000168,
      "v": 67
    },
    {
      "midi": 62,
      "hit": false,
      "t": 131666.65350000016,
      "d": 555.5554999999877,
      "v": 64
    },
    {
      "midi": 64,
      "hit": false,
      "t": 131666.65350000022,
      "d": 555.5554999999877,
      "v": 49
    },
    {
      "midi": 68,
      "hit": false,
      "t": 131666.65350000022,
      "d": 555.5554999999877,
      "v": 74
    },
    {
      "midi": 52,
      "hit": false,
      "t": 132222.20900000015,
      "d": 555.5554999999877,
      "v": 64
    },
    {
      "midi": 66,
      "hit": false,
      "t": 132222.2090000002,
      "d": 555.5554999999877,
      "v": 46
    },
    {
      "midi": 69,
      "hit": false,
      "t": 132222.2090000002,
      "d": 555.5554999999877,
      "v": 78
    },
    {
      "midi": 47,
      "hit": false,
      "t": 132777.76450000014,
      "d": 555.5554999999877,
      "v": 64
    },
    {
      "midi": 68,
      "hit": false,
      "t": 132777.7645000002,
      "d": 555.5554999999877,
      "v": 44
    },
    {
      "midi": 71,
      "hit": false,
      "t": 132777.7645000002,
      "d": 555.5554999999877,
      "v": 81
    },
    {
      "midi": 45,
      "hit": false,
      "t": 133333.32000000012,
      "d": 555.5554999999877,
      "v": 77
    },
    {
      "midi": 69,
      "hit": false,
      "t": 133333.32000000018,
      "d": 555.5554999999877,
      "v": 60
    },
    {
      "midi": 73,
      "hit": false,
      "t": 133333.32000000018,
      "d": 555.5554999999877,
      "v": 76
    },
    {
      "midi": 52,
      "hit": false,
      "t": 133888.8755000001,
      "d": 555.5554999999877,
      "v": 67
    },
    {
      "midi": 61,
      "hit": false,
      "t": 133888.87550000017,
      "d": 555.5554999999877,
      "v": 60
    },
    {
      "midi": 64,
      "hit": false,
      "t": 133888.87550000017,
      "d": 555.5554999999877,
      "v": 71
    },
    {
      "midi": 52,
      "hit": false,
      "t": 134444.4310000001,
      "d": 555.5554999999877,
      "v": 68
    },
    {
      "midi": 62,
      "hit": false,
      "t": 134444.43100000016,
      "d": 555.5554999999877,
      "v": 59
    },
    {
      "midi": 66,
      "hit": false,
      "t": 134444.43100000016,
      "d": 555.5554999999877,
      "v": 76
    },
    {
      "midi": 40,
      "hit": false,
      "t": 134999.9865000001,
      "d": 555.5554999999877,
      "v": 78
    },
    {
      "midi": 69,
      "hit": false,
      "t": 134999.98650000014,
      "d": 555.5554999999877,
      "v": 58
    },
    {
      "midi": 73,
      "hit": false,
      "t": 134999.98650000014,
      "d": 555.5554999999877,
      "v": 77
    },
    {
      "midi": 47,
      "hit": false,
      "t": 135555.54200000007,
      "d": 555.5554999999877,
      "v": 73
    },
    {
      "midi": 68,
      "hit": false,
      "t": 135555.54200000013,
      "d": 555.5554999999877,
      "v": 62
    },
    {
      "midi": 71,
      "hit": false,
      "t": 135555.54200000013,
      "d": 555.5554999999877,
      "v": 76
    },
    {
      "midi": 52,
      "hit": false,
      "t": 136111.09750000006,
      "d": 555.5554999999877,
      "v": 63
    },
    {
      "midi": 62,
      "hit": false,
      "t": 136111.09750000012,
      "d": 555.5554999999877,
      "v": 55
    },
    {
      "midi": 66,
      "hit": false,
      "t": 136111.09750000012,
      "d": 555.5554999999877,
      "v": 78
    },
    {
      "midi": 52,
      "hit": false,
      "t": 136666.65300000005,
      "d": 555.5554999999877,
      "v": 65
    },
    {
      "midi": 62,
      "hit": false,
      "t": 136666.6530000001,
      "d": 555.5554999999877,
      "v": 56
    },
    {
      "midi": 64,
      "hit": false,
      "t": 136666.6530000001,
      "d": 555.5554999999877,
      "v": 74
    },
    {
      "midi": 40,
      "hit": false,
      "t": 137222.20850000004,
      "d": 555.5554999999877,
      "v": 54
    },
    {
      "midi": 68,
      "hit": false,
      "t": 137222.2085000001,
      "d": 555.5554999999877,
      "v": 51
    },
    {
      "midi": 71,
      "hit": false,
      "t": 137222.2085000001,
      "d": 555.5554999999877,
      "v": 57
    },
    {
      "midi": 45,
      "hit": false,
      "t": 137777.76400000002,
      "d": 555.5554999999877,
      "v": 52
    },
    {
      "midi": 69,
      "hit": false,
      "t": 137777.76400000008,
      "d": 555.5554999999877,
      "v": 52
    },
    {
      "midi": 72,
      "hit": false,
      "t": 137777.76400000008,
      "d": 555.5554999999877,
      "v": 51
    },
    {
      "midi": 52,
      "hit": false,
      "t": 138333.3195,
      "d": 555.5554999999877,
      "v": 53
    },
    {
      "midi": 60,
      "hit": false,
      "t": 138333.31950000007,
      "d": 555.5554999999877,
      "v": 51
    },
    {
      "midi": 64,
      "hit": false,
      "t": 138333.31950000007,
      "d": 555.5554999999877,
      "v": 52
    },
    {
      "midi": 52,
      "hit": false,
      "t": 138888.875,
      "d": 555.5554999999877,
      "v": 54
    },
    {
      "midi": 62,
      "hit": false,
      "t": 138888.87500000006,
      "d": 555.5554999999877,
      "v": 51
    },
    {
      "midi": 65,
      "hit": false,
      "t": 138888.87500000006,
      "d": 555.5554999999877,
      "v": 52
    },
    {
      "midi": 40,
      "hit": false,
      "t": 139444.4305,
      "d": 555.5554999999877,
      "v": 54
    },
    {
      "midi": 69,
      "hit": false,
      "t": 139444.43050000005,
      "d": 555.5554999999877,
      "v": 51
    },
    {
      "midi": 72,
      "hit": false,
      "t": 139444.43050000005,
      "d": 555.5554999999877,
      "v": 54
    },
    {
      "midi": 47,
      "hit": false,
      "t": 139999.98599999998,
      "d": 555.5554999999877,
      "v": 54
    },
    {
      "midi": 68,
      "hit": false,
      "t": 139999.98600000003,
      "d": 555.5554999999877,
      "v": 52
    },
    {
      "midi": 71,
      "hit": false,
      "t": 139999.98600000003,
      "d": 555.5554999999877,
      "v": 50
    },
    {
      "midi": 52,
      "hit": false,
      "t": 140555.54149999996,
      "d": 555.5554999999877,
      "v": 51
    },
    {
      "midi": 62,
      "hit": false,
      "t": 140555.54150000002,
      "d": 555.5554999999877,
      "v": 51
    },
    {
      "midi": 65,
      "hit": false,
      "t": 140555.54150000002,
      "d": 555.5554999999877,
      "v": 51
    },
    {
      "midi": 52,
      "hit": false,
      "t": 141111.09699999995,
      "d": 555.5554999999877,
      "v": 53
    },
    {
      "midi": 62,
      "hit": false,
      "t": 141111.097,
      "d": 555.5554999999877,
      "v": 56
    },
    {
      "midi": 64,
      "hit": false,
      "t": 141111.097,
      "d": 555.5554999999877,
      "v": 58
    },
    {
      "midi": 40,
      "hit": false,
      "t": 141666.65249999994,
      "d": 555.5554999999877,
      "v": 65
    },
    {
      "midi": 68,
      "hit": false,
      "t": 141666.6525,
      "d": 555.5554999999877,
      "v": 70
    },
    {
      "midi": 71,
      "hit": false,
      "t": 141666.6525,
      "d": 555.5554999999877,
      "v": 70
    },
    {
      "midi": 43,
      "hit": false,
      "t": 142222.20799999993,
      "d": 555.5554999999877,
      "v": 72
    },
    {
      "midi": 55,
      "hit": false,
      "t": 142222.20799999993,
      "d": 555.5554999999877,
      "v": 72
    },
    {
      "midi": 61,
      "hit": false,
      "t": 142222.20799999998,
      "d": 555.5554999999877,
      "v": 77
    },
    {
      "midi": 64,
      "hit": false,
      "t": 142222.20799999998,
      "d": 555.5554999999877,
      "v": 77
    },
    {
      "midi": 71,
      "hit": false,
      "t": 142222.20799999998,
      "d": 555.5554999999877,
      "v": 77
    },
    {
      "midi": 73,
      "hit": false,
      "t": 142222.20799999998,
      "d": 555.5554999999877,
      "v": 77
    },
    {
      "midi": 55,
      "hit": false,
      "t": 142777.7634999999,
      "d": 555.5554999999877,
      "v": 54
    },
    {
      "midi": 59,
      "hit": false,
      "t": 142777.7634999999,
      "d": 555.5554999999877,
      "v": 54
    },
    {
      "midi": 73,
      "hit": false,
      "t": 142777.76349999997,
      "d": 555.5554999999877,
      "v": 53
    },
    {
      "midi": 76,
      "hit": false,
      "t": 142777.76349999997,
      "d": 555.5554999999877,
      "v": 53
    },
    {
      "midi": 61,
      "hit": false,
      "t": 143333.3189999999,
      "d": 555.5554999999877,
      "v": 52
    },
    {
      "midi": 64,
      "hit": false,
      "t": 143333.3189999999,
      "d": 555.5554999999877,
      "v": 52
    },
    {
      "midi": 67,
      "hit": false,
      "t": 143333.31899999996,
      "d": 555.5554999999877,
      "v": 56
    },
    {
      "midi": 71,
      "hit": false,
      "t": 143333.31899999996,
      "d": 555.5554999999877,
      "v": 56
    },
    {
      "midi": 64,
      "hit": false,
      "t": 143888.8744999999,
      "d": 555.5554999999877,
      "v": 52
    },
    {
      "midi": 67,
      "hit": false,
      "t": 143888.8744999999,
      "d": 555.5554999999877,
      "v": 52
    },
    {
      "midi": 71,
      "hit": false,
      "t": 143888.87449999995,
      "d": 555.5554999999877,
      "v": 59
    },
    {
      "midi": 73,
      "hit": false,
      "t": 143888.87449999995,
      "d": 555.5554999999877,
      "v": 59
    },
    {
      "midi": 59,
      "hit": false,
      "t": 144444.42999999988,
      "d": 555.5554999999877,
      "v": 57
    },
    {
      "midi": 61,
      "hit": false,
      "t": 144444.42999999988,
      "d": 555.5554999999877,
      "v": 57
    },
    {
      "midi": 76,
      "hit": false,
      "t": 144444.42999999993,
      "d": 555.5554999999877,
      "v": 64
    },
    {
      "midi": 79,
      "hit": false,
      "t": 144444.42999999993,
      "d": 555.5554999999877,
      "v": 61
    },
    {
      "midi": 61,
      "hit": false,
      "t": 144999.98549999986,
      "d": 555.5554999999877,
      "v": 55
    },
    {
      "midi": 64,
      "hit": false,
      "t": 144999.98549999986,
      "d": 555.5554999999877,
      "v": 55
    },
    {
      "midi": 79,
      "hit": false,
      "t": 144999.98549999992,
      "d": 555.5554999999877,
      "v": 61
    },
    {
      "midi": 83,
      "hit": false,
      "t": 144999.98549999992,
      "d": 555.5554999999877,
      "v": 61
    },
    {
      "midi": 67,
      "hit": false,
      "t": 145555.54099999985,
      "d": 555.5554999999877,
      "v": 62
    },
    {
      "midi": 71,
      "hit": false,
      "t": 145555.54099999985,
      "d": 555.5554999999877,
      "v": 62
    },
    {
      "midi": 73,
      "hit": false,
      "t": 145555.5409999999,
      "d": 555.5554999999877,
      "v": 64
    },
    {
      "midi": 76,
      "hit": false,
      "t": 145555.5409999999,
      "d": 555.5554999999877,
      "v": 64
    },
    {
      "midi": 71,
      "hit": false,
      "t": 146111.09649999984,
      "d": 555.5554999999877,
      "v": 61
    },
    {
      "midi": 73,
      "hit": false,
      "t": 146111.09649999984,
      "d": 555.5554999999877,
      "v": 61
    },
    {
      "midi": 76,
      "hit": false,
      "t": 146111.0964999999,
      "d": 555.5554999999877,
      "v": 65
    },
    {
      "midi": 79,
      "hit": false,
      "t": 146111.0964999999,
      "d": 555.5554999999877,
      "v": 65
    },
    {
      "midi": 64,
      "hit": false,
      "t": 146666.65199999983,
      "d": 555.5554999999877,
      "v": 67
    },
    {
      "midi": 67,
      "hit": false,
      "t": 146666.65199999983,
      "d": 555.5554999999877,
      "v": 67
    },
    {
      "midi": 83,
      "hit": false,
      "t": 146666.65199999989,
      "d": 555.5554999999877,
      "v": 67
    },
    {
      "midi": 85,
      "hit": false,
      "t": 146666.65199999989,
      "d": 555.5554999999877,
      "v": 67
    },
    {
      "midi": 67,
      "hit": false,
      "t": 147222.20749999981,
      "d": 555.5554999999877,
      "v": 64
    },
    {
      "midi": 71,
      "hit": false,
      "t": 147222.20749999981,
      "d": 555.5554999999877,
      "v": 64
    },
    {
      "midi": 85,
      "hit": false,
      "t": 147222.20749999987,
      "d": 555.5554999999877,
      "v": 75
    },
    {
      "midi": 88,
      "hit": false,
      "t": 147222.20749999987,
      "d": 555.5554999999877,
      "v": 75
    },
    {
      "midi": 73,
      "hit": false,
      "t": 147777.7629999998,
      "d": 555.5554999999877,
      "v": 69
    },
    {
      "midi": 76,
      "hit": false,
      "t": 147777.7629999998,
      "d": 555.5554999999877,
      "v": 69
    },
    {
      "midi": 79,
      "hit": false,
      "t": 147777.76299999986,
      "d": 555.5554999999877,
      "v": 67
    },
    {
      "midi": 83,
      "hit": false,
      "t": 147777.76299999986,
      "d": 555.5554999999877,
      "v": 67
    },
    {
      "midi": 76,
      "hit": false,
      "t": 148333.3184999998,
      "d": 555.5554999999877,
      "v": 71
    },
    {
      "midi": 79,
      "hit": false,
      "t": 148333.3184999998,
      "d": 555.5554999999877,
      "v": 71
    },
    {
      "midi": 83,
      "hit": false,
      "t": 148333.31849999985,
      "d": 555.5554999999877,
      "v": 72
    },
    {
      "midi": 85,
      "hit": false,
      "t": 148333.31849999985,
      "d": 555.5554999999877,
      "v": 72
    },
    {
      "midi": 71,
      "hit": false,
      "t": 148888.87399999978,
      "d": 555.5554999999877,
      "v": 76
    },
    {
      "midi": 73,
      "hit": false,
      "t": 148888.87399999978,
      "d": 555.5554999999877,
      "v": 76
    },
    {
      "midi": 88,
      "hit": false,
      "t": 148888.87399999984,
      "d": 555.5554999999877,
      "v": 77
    },
    {
      "midi": 91,
      "hit": false,
      "t": 148888.87399999984,
      "d": 555.5554999999877,
      "v": 77
    },
    {
      "midi": 54,
      "hit": false,
      "t": 149444.42949999977,
      "d": 555.5554999999877,
      "v": 64
    },
    {
      "midi": 61,
      "hit": false,
      "t": 149444.42949999977,
      "d": 555.5554999999877,
      "v": 60
    },
    {
      "midi": 64,
      "hit": false,
      "t": 149444.42949999977,
      "d": 555.5554999999877,
      "v": 56
    },
    {
      "midi": 70,
      "hit": false,
      "t": 149444.42949999982,
      "d": 555.5554999999877,
      "v": 79
    },
    {
      "midi": 79,
      "hit": false,
      "t": 149444.42949999982,
      "d": 555.5554999999877,
      "v": 83
    },
    {
      "midi": 54,
      "hit": false,
      "t": 149999.98499999975,
      "d": 555.5554999999877,
      "v": 67
    },
    {
      "midi": 61,
      "hit": false,
      "t": 149999.98499999975,
      "d": 555.5554999999877,
      "v": 55
    },
    {
      "midi": 64,
      "hit": false,
      "t": 149999.98499999975,
      "d": 555.5554999999877,
      "v": 52
    },
    {
      "midi": 70,
      "hit": false,
      "t": 149999.9849999998,
      "d": 555.5554999999877,
      "v": 71
    },
    {
      "midi": 78,
      "hit": false,
      "t": 149999.9849999998,
      "d": 555.5554999999877,
      "v": 75
    },
    {
      "midi": 54,
      "hit": false,
      "t": 150555.54049999974,
      "d": 555.5554999999877,
      "v": 62
    },
    {
      "midi": 61,
      "hit": false,
      "t": 150555.54049999974,
      "d": 555.5554999999877,
      "v": 59
    },
    {
      "midi": 64,
      "hit": false,
      "t": 150555.54049999974,
      "d": 555.5554999999877,
      "v": 54
    },
    {
      "midi": 70,
      "hit": false,
      "t": 150555.5404999998,
      "d": 555.5554999999877,
      "v": 75
    },
    {
      "midi": 76,
      "hit": false,
      "t": 150555.5404999998,
      "d": 555.5554999999877,
      "v": 75
    },
    {
      "midi": 59,
      "hit": false,
      "t": 151111.09599999973,
      "d": 555.5554999999877,
      "v": 67
    },
    {
      "midi": 71,
      "hit": false,
      "t": 151111.0959999998,
      "d": 555.5554999999877,
      "v": 63
    },
    {
      "midi": 75,
      "hit": false,
      "t": 151111.0959999998,
      "d": 555.5554999999877,
      "v": 78
    },
    {
      "midi": 54,
      "hit": false,
      "t": 151666.65149999972,
      "d": 555.5554999999877,
      "v": 67
    },
    {
      "midi": 63,
      "hit": false,
      "t": 151666.65149999977,
      "d": 555.5554999999877,
      "v": 62
    },
    {
      "midi": 66,
      "hit": false,
      "t": 151666.65149999977,
      "d": 555.5554999999877,
      "v": 77
    },
    {
      "midi": 54,
      "hit": false,
      "t": 152222.2069999997,
      "d": 555.5554999999877,
      "v": 67
    },
    {
      "midi": 64,
      "hit": false,
      "t": 152222.20699999976,
      "d": 555.5554999999877,
      "v": 61
    },
    {
      "midi": 68,
      "hit": false,
      "t": 152222.20699999976,
      "d": 555.5554999999877,
      "v": 77
    },
    {
      "midi": 42,
      "hit": false,
      "t": 152777.7624999997,
      "d": 555.5554999999877,
      "v": 66
    },
    {
      "midi": 71,
      "hit": false,
      "t": 152777.76249999975,
      "d": 555.5554999999877,
      "v": 61
    },
    {
      "midi": 75,
      "hit": false,
      "t": 152777.76249999975,
      "d": 555.5554999999877,
      "v": 78
    },
    {
      "midi": 49,
      "hit": false,
      "t": 153333.31799999968,
      "d": 555.5554999999877,
      "v": 70
    },
    {
      "midi": 70,
      "hit": false,
      "t": 153333.31799999974,
      "d": 555.5554999999877,
      "v": 59
    },
    {
      "midi": 73,
      "hit": false,
      "t": 153333.31799999974,
      "d": 555.5554999999877,
      "v": 74
    },
    {
      "midi": 54,
      "hit": false,
      "t": 153888.87349999967,
      "d": 555.5554999999877,
      "v": 67
    },
    {
      "midi": 64,
      "hit": false,
      "t": 153888.87349999973,
      "d": 555.5554999999877,
      "v": 58
    },
    {
      "midi": 68,
      "hit": false,
      "t": 153888.87349999973,
      "d": 555.5554999999877,
      "v": 74
    },
    {
      "midi": 54,
      "hit": false,
      "t": 154444.42899999965,
      "d": 555.5554999999877,
      "v": 71
    },
    {
      "midi": 64,
      "hit": false,
      "t": 154444.4289999997,
      "d": 555.5554999999877,
      "v": 59
    },
    {
      "midi": 66,
      "hit": false,
      "t": 154444.4289999997,
      "d": 555.5554999999877,
      "v": 70
    },
    {
      "midi": 42,
      "hit": false,
      "t": 154999.98449999964,
      "d": 555.5554999999877,
      "v": 49
    },
    {
      "midi": 70,
      "hit": false,
      "t": 154999.9844999997,
      "d": 555.5554999999877,
      "v": 48
    },
    {
      "midi": 73,
      "hit": false,
      "t": 154999.9844999997,
      "d": 555.5554999999877,
      "v": 52
    },
    {
      "midi": 47,
      "hit": false,
      "t": 155555.53999999963,
      "d": 555.5554999999877,
      "v": 51
    },
    {
      "midi": 71,
      "hit": false,
      "t": 155555.5399999997,
      "d": 555.5554999999877,
      "v": 48
    },
    {
      "midi": 74,
      "hit": false,
      "t": 155555.5399999997,
      "d": 555.5554999999877,
      "v": 53
    },
    {
      "midi": 54,
      "hit": false,
      "t": 156111.09549999962,
      "d": 555.5554999999877,
      "v": 50
    },
    {
      "midi": 62,
      "hit": false,
      "t": 156111.09549999968,
      "d": 555.5554999999877,
      "v": 50
    },
    {
      "midi": 66,
      "hit": false,
      "t": 156111.09549999968,
      "d": 555.5554999999877,
      "v": 52
    },
    {
      "midi": 54,
      "hit": false,
      "t": 156666.6509999996,
      "d": 555.5554999999877,
      "v": 50
    },
    {
      "midi": 64,
      "hit": false,
      "t": 156666.65099999966,
      "d": 555.5554999999877,
      "v": 51
    },
    {
      "midi": 67,
      "hit": false,
      "t": 156666.65099999966,
      "d": 555.5554999999877,
      "v": 52
    },
    {
      "midi": 42,
      "hit": false,
      "t": 157222.2064999996,
      "d": 555.5554999999877,
      "v": 49
    },
    {
      "midi": 71,
      "hit": false,
      "t": 157222.20649999965,
      "d": 555.5554999999877,
      "v": 51
    },
    {
      "midi": 74,
      "hit": false,
      "t": 157222.20649999965,
      "d": 555.5554999999877,
      "v": 52
    },
    {
      "midi": 49,
      "hit": false,
      "t": 157777.76199999958,
      "d": 555.5554999999877,
      "v": 51
    },
    {
      "midi": 70,
      "hit": false,
      "t": 157777.76199999964,
      "d": 555.5554999999877,
      "v": 51
    },
    {
      "midi": 73,
      "hit": false,
      "t": 157777.76199999964,
      "d": 555.5554999999877,
      "v": 52
    },
    {
      "midi": 54,
      "hit": false,
      "t": 158333.31749999957,
      "d": 555.5554999999877,
      "v": 52
    },
    {
      "midi": 64,
      "hit": false,
      "t": 158333.31749999963,
      "d": 555.5554999999877,
      "v": 51
    },
    {
      "midi": 67,
      "hit": false,
      "t": 158333.31749999963,
      "d": 555.5554999999877,
      "v": 53
    },
    {
      "midi": 54,
      "hit": false,
      "t": 158888.87299999956,
      "d": 555.5554999999877,
      "v": 53
    },
    {
      "midi": 64,
      "hit": false,
      "t": 158888.8729999996,
      "d": 555.5554999999877,
      "v": 53
    },
    {
      "midi": 66,
      "hit": false,
      "t": 158888.8729999996,
      "d": 555.5554999999877,
      "v": 55
    },
    {
      "midi": 42,
      "hit": false,
      "t": 159444.42849999954,
      "d": 555.5554999999877,
      "v": 68
    },
    {
      "midi": 70,
      "hit": false,
      "t": 159444.4284999996,
      "d": 555.5554999999877,
      "v": 66
    },
    {
      "midi": 73,
      "hit": false,
      "t": 159444.4284999996,
      "d": 555.5554999999877,
      "v": 71
    },
    {
      "midi": 45,
      "hit": false,
      "t": 159999.98399999953,
      "d": 555.5554999999877,
      "v": 71
    },
    {
      "midi": 57,
      "hit": false,
      "t": 159999.98399999953,
      "d": 555.5554999999877,
      "v": 71
    },
    {
      "midi": 63,
      "hit": false,
      "t": 159999.9839999996,
      "d": 555.5554999999877,
      "v": 76
    },
    {
      "midi": 66,
      "hit": false,
      "t": 159999.9839999996,
      "d": 555.5554999999877,
      "v": 66
    },
    {
      "midi": 73,
      "hit": false,
      "t": 159999.9839999996,
      "d": 555.5554999999877,
      "v": 66
    },
    {
      "midi": 75,
      "hit": false,
      "t": 159999.9839999996,
      "d": 555.5554999999877,
      "v": 76
    },
    {
      "midi": 57,
      "hit": false,
      "t": 160555.53949999952,
      "d": 555.5554999999877,
      "v": 51
    },
    {
      "midi": 61,
      "hit": false,
      "t": 160555.53949999952,
      "d": 555.5554999999877,
      "v": 51
    },
    {
      "midi": 75,
      "hit": false,
      "t": 160555.53949999958,
      "d": 555.5554999999877,
      "v": 54
    },
    {
      "midi": 78,
      "hit": false,
      "t": 160555.53949999958,
      "d": 555.5554999999877,
      "v": 54
    },
    {
      "midi": 63,
      "hit": false,
      "t": 161111.0949999995,
      "d": 555.5554999999877,
      "v": 53
    },
    {
      "midi": 66,
      "hit": false,
      "t": 161111.0949999995,
      "d": 555.5554999999877,
      "v": 53
    },
    {
      "midi": 69,
      "hit": false,
      "t": 161111.09499999956,
      "d": 555.5554999999877,
      "v": 56
    },
    {
      "midi": 73,
      "hit": false,
      "t": 161111.09499999956,
      "d": 555.5554999999877,
      "v": 58
    },
    {
      "midi": 66,
      "hit": false,
      "t": 161666.6504999995,
      "d": 555.5554999999877,
      "v": 54
    },
    {
      "midi": 69,
      "hit": false,
      "t": 161666.6504999995,
      "d": 555.5554999999877,
      "v": 54
    },
    {
      "midi": 73,
      "hit": false,
      "t": 161666.65049999955,
      "d": 555.5554999999877,
      "v": 55
    },
    {
      "midi": 75,
      "hit": false,
      "t": 161666.65049999955,
      "d": 555.5554999999877,
      "v": 55
    },
    {
      "midi": 61,
      "hit": false,
      "t": 162222.20599999948,
      "d": 555.5554999999877,
      "v": 56
    },
    {
      "midi": 63,
      "hit": false,
      "t": 162222.20599999948,
      "d": 555.5554999999877,
      "v": 56
    },
    {
      "midi": 78,
      "hit": false,
      "t": 162222.20599999954,
      "d": 555.5554999999877,
      "v": 60
    },
    {
      "midi": 81,
      "hit": false,
      "t": 162222.20599999954,
      "d": 555.5554999999877,
      "v": 60
    },
    {
      "midi": 63,
      "hit": false,
      "t": 162777.76149999947,
      "d": 555.5554999999877,
      "v": 58
    },
    {
      "midi": 66,
      "hit": false,
      "t": 162777.76149999947,
      "d": 555.5554999999877,
      "v": 58
    },
    {
      "midi": 81,
      "hit": false,
      "t": 162777.76149999953,
      "d": 555.5554999999877,
      "v": 62
    },
    {
      "midi": 85,
      "hit": false,
      "t": 162777.76149999953,
      "d": 555.5554999999877,
      "v": 62
    },
    {
      "midi": 69,
      "hit": false,
      "t": 163333.31699999946,
      "d": 555.5554999999877,
      "v": 62
    },
    {
      "midi": 73,
      "hit": false,
      "t": 163333.31699999946,
      "d": 555.5554999999877,
      "v": 62
    },
    {
      "midi": 75,
      "hit": false,
      "t": 163333.31699999952,
      "d": 555.5554999999877,
      "v": 65
    },
    {
      "midi": 78,
      "hit": false,
      "t": 163333.31699999952,
      "d": 555.5554999999877,
      "v": 68
    },
    {
      "midi": 73,
      "hit": false,
      "t": 163888.87249999944,
      "d": 555.5554999999877,
      "v": 64
    },
    {
      "midi": 75,
      "hit": false,
      "t": 163888.87249999944,
      "d": 555.5554999999877,
      "v": 64
    },
    {
      "midi": 78,
      "hit": false,
      "t": 163888.8724999995,
      "d": 555.5554999999877,
      "v": 71
    },
    {
      "midi": 81,
      "hit": false,
      "t": 163888.8724999995,
      "d": 555.5554999999877,
      "v": 71
    },
    {
      "midi": 66,
      "hit": false,
      "t": 164444.42799999943,
      "d": 555.5554999999877,
      "v": 61
    },
    {
      "midi": 69,
      "hit": false,
      "t": 164444.42799999943,
      "d": 555.5554999999877,
      "v": 61
    },
    {
      "midi": 85,
      "hit": false,
      "t": 164444.4279999995,
      "d": 555.5554999999877,
      "v": 72
    },
    {
      "midi": 87,
      "hit": false,
      "t": 164444.4279999995,
      "d": 555.5554999999877,
      "v": 72
    },
    {
      "midi": 69,
      "hit": false,
      "t": 164999.98349999942,
      "d": 555.5554999999877,
      "v": 64
    },
    {
      "midi": 73,
      "hit": false,
      "t": 164999.98349999942,
      "d": 555.5554999999877,
      "v": 64
    },
    {
      "midi": 87,
      "hit": false,
      "t": 164999.98349999948,
      "d": 555.5554999999877,
      "v": 74
    },
    {
      "midi": 90,
      "hit": false,
      "t": 164999.98349999948,
      "d": 555.5554999999877,
      "v": 72
    },
    {
      "midi": 75,
      "hit": false,
      "t": 165555.5389999994,
      "d": 555.5554999999877,
      "v": 64
    },
    {
      "midi": 78,
      "hit": false,
      "t": 165555.5389999994,
      "d": 555.5554999999877,
      "v": 64
    },
    {
      "midi": 81,
      "hit": false,
      "t": 165555.53899999947,
      "d": 555.5554999999877,
      "v": 71
    },
    {
      "midi": 85,
      "hit": false,
      "t": 165555.53899999947,
      "d": 555.5554999999877,
      "v": 71
    },
    {
      "midi": 78,
      "hit": false,
      "t": 166111.0944999994,
      "d": 555.5554999999877,
      "v": 69
    },
    {
      "midi": 81,
      "hit": false,
      "t": 166111.0944999994,
      "d": 555.5554999999877,
      "v": 69
    },
    {
      "midi": 85,
      "hit": false,
      "t": 166111.09449999945,
      "d": 555.5554999999877,
      "v": 76
    },
    {
      "midi": 87,
      "hit": false,
      "t": 166111.09449999945,
      "d": 555.5554999999877,
      "v": 76
    },
    {
      "midi": 73,
      "hit": false,
      "t": 166666.64999999938,
      "d": 555.5554999999877,
      "v": 71
    },
    {
      "midi": 75,
      "hit": false,
      "t": 166666.64999999938,
      "d": 555.5554999999877,
      "v": 71
    },
    {
      "midi": 90,
      "hit": false,
      "t": 166666.64999999944,
      "d": 555.5554999999877,
      "v": 76
    },
    {
      "midi": 93,
      "hit": false,
      "t": 166666.64999999944,
      "d": 555.5554999999877,
      "v": 76
    },
    {
      "midi": 56,
      "hit": false,
      "t": 167222.20549999937,
      "d": 555.5554999999877,
      "v": 62
    },
    {
      "midi": 63,
      "hit": false,
      "t": 167222.20549999937,
      "d": 555.5554999999877,
      "v": 63
    },
    {
      "midi": 66,
      "hit": false,
      "t": 167222.20549999937,
      "d": 555.5554999999877,
      "v": 74
    },
    {
      "midi": 72,
      "hit": false,
      "t": 167222.20549999943,
      "d": 555.5554999999877,
      "v": 75
    },
    {
      "midi": 81,
      "hit": false,
      "t": 167222.20549999943,
      "d": 555.5554999999877,
      "v": 76
    },
    {
      "midi": 56,
      "hit": false,
      "t": 167777.76099999936,
      "d": 555.5554999999877,
      "v": 61
    },
    {
      "midi": 63,
      "hit": false,
      "t": 167777.76099999936,
      "d": 555.5554999999877,
      "v": 70
    },
    {
      "midi": 66,
      "hit": false,
      "t": 167777.76099999936,
      "d": 555.5554999999877,
      "v": 77
    },
    {
      "midi": 72,
      "hit": false,
      "t": 167777.76099999942,
      "d": 555.5554999999877,
      "v": 67
    },
    {
      "midi": 80,
      "hit": false,
      "t": 167777.76099999942,
      "d": 555.5554999999877,
      "v": 73
    },
    {
      "midi": 56,
      "hit": false,
      "t": 168333.31649999935,
      "d": 555.5554999999877,
      "v": 58
    },
    {
      "midi": 63,
      "hit": false,
      "t": 168333.31649999935,
      "d": 555.5554999999877,
      "v": 67
    },
    {
      "midi": 66,
      "hit": false,
      "t": 168333.31649999935,
      "d": 555.5554999999877,
      "v": 76
    },
    {
      "midi": 72,
      "hit": false,
      "t": 168333.3164999994,
      "d": 555.5554999999877,
      "v": 71
    },
    {
      "midi": 78,
      "hit": false,
      "t": 168333.3164999994,
      "d": 555.5554999999877,
      "v": 75
    },
    {
      "midi": 56,
      "hit": false,
      "t": 168888.87199999933,
      "d": 555.5554999999877,
      "v": 54
    },
    {
      "midi": 62,
      "hit": false,
      "t": 168888.87199999933,
      "d": 555.5554999999877,
      "v": 66
    },
    {
      "midi": 65,
      "hit": false,
      "t": 168888.87199999933,
      "d": 555.5554999999877,
      "v": 76
    },
    {
      "midi": 71,
      "hit": false,
      "t": 168888.8719999994,
      "d": 555.5554999999877,
      "v": 61
    },
    {
      "midi": 77,
      "hit": false,
      "t": 168888.8719999994,
      "d": 555.5554999999877,
      "v": 61
    },
    {
      "midi": 53,
      "hit": false,
      "t": 169444.42749999932,
      "d": 555.5554999999877,
      "v": 47
    },
    {
      "midi": 59,
      "hit": false,
      "t": 169444.42749999932,
      "d": 555.5554999999877,
      "v": 47
    },
    {
      "midi": 68,
      "hit": false,
      "t": 169444.42749999938,
      "d": 555.5554999999877,
      "v": 52
    },
    {
      "midi": 74,
      "hit": false,
      "t": 169444.42749999938,
      "d": 555.5554999999877,
      "v": 52
    },
    {
      "midi": 52,
      "hit": false,
      "t": 169999.9829999993,
      "d": 555.5554999999877,
      "v": 48
    },
    {
      "midi": 58,
      "hit": false,
      "t": 169999.9829999993,
      "d": 555.5554999999877,
      "v": 48
    },
    {
      "midi": 67,
      "hit": false,
      "t": 169999.98299999937,
      "d": 555.5554999999877,
      "v": 51
    },
    {
      "midi": 73,
      "hit": false,
      "t": 169999.98299999937,
      "d": 555.5554999999877,
      "v": 51
    },
    {
      "midi": 51,
      "hit": false,
      "t": 170555.5384999993,
      "d": 555.5554999999877,
      "v": 50
    },
    {
      "midi": 57,
      "hit": false,
      "t": 170555.5384999993,
      "d": 555.5554999999877,
      "v": 50
    },
    {
      "midi": 72,
      "hit": false,
      "t": 170555.53849999935,
      "d": 555.5554999999877,
      "v": 56
    },
    {
      "midi": 78,
      "hit": false,
      "t": 170555.53849999935,
      "d": 555.5554999999877,
      "v": 56
    },
    {
      "midi": 50,
      "hit": false,
      "t": 171111.09399999928,
      "d": 555.5554999999877,
      "v": 49
    },
    {
      "midi": 56,
      "hit": false,
      "t": 171111.09399999928,
      "d": 555.5554999999877,
      "v": 49
    },
    {
      "midi": 71,
      "hit": false,
      "t": 171111.09399999934,
      "d": 555.5554999999877,
      "v": 61
    },
    {
      "midi": 77,
      "hit": false,
      "t": 171111.09399999934,
      "d": 555.5554999999877,
      "v": 61
    },
    {
      "midi": 49,
      "hit": false,
      "t": 171666.64949999927,
      "d": 555.5554999999877,
      "v": 53
    },
    {
      "midi": 55,
      "hit": false,
      "t": 171666.64949999927,
      "d": 555.5554999999877,
      "v": 53
    },
    {
      "midi": 76,
      "hit": false,
      "t": 171666.64949999933,
      "d": 555.5554999999877,
      "v": 58
    },
    {
      "midi": 82,
      "hit": false,
      "t": 171666.64949999933,
      "d": 555.5554999999877,
      "v": 58
    },
    {
      "midi": 48,
      "hit": false,
      "t": 172222.20499999926,
      "d": 555.5554999999877,
      "v": 56
    },
    {
      "midi": 54,
      "hit": false,
      "t": 172222.20499999926,
      "d": 555.5554999999877,
      "v": 56
    },
    {
      "midi": 75,
      "hit": false,
      "t": 172222.20499999932,
      "d": 555.5554999999877,
      "v": 61
    },
    {
      "midi": 81,
      "hit": false,
      "t": 172222.20499999932,
      "d": 555.5554999999877,
      "v": 61
    },
    {
      "midi": 47,
      "hit": false,
      "t": 172777.76049999925,
      "d": 555.5554999999877,
      "v": 59
    },
    {
      "midi": 53,
      "hit": false,
      "t": 172777.76049999925,
      "d": 555.5554999999877,
      "v": 59
    },
    {
      "midi": 80,
      "hit": false,
      "t": 172777.7604999993,
      "d": 555.5554999999877,
      "v": 64
    },
    {
      "midi": 86,
      "hit": false,
      "t": 172777.7604999993,
      "d": 555.5554999999877,
      "v": 64
    },
    {
      "midi": 46,
      "hit": false,
      "t": 173333.31599999923,
      "d": 555.5554999999877,
      "v": 64
    },
    {
      "midi": 52,
      "hit": false,
      "t": 173333.31599999923,
      "d": 555.5554999999877,
      "v": 64
    },
    {
      "midi": 79,
      "hit": false,
      "t": 173333.3159999993,
      "d": 555.5554999999877,
      "v": 67
    },
    {
      "midi": 85,
      "hit": false,
      "t": 173333.3159999993,
      "d": 555.5554999999877,
      "v": 67
    },
    {
      "midi": 52,
      "hit": false,
      "t": 173888.87149999922,
      "d": 555.5554999999877,
      "v": 47
    },
    {
      "midi": 58,
      "hit": false,
      "t": 173888.87149999922,
      "d": 555.5554999999877,
      "v": 47
    },
    {
      "midi": 67,
      "hit": false,
      "t": 173888.87149999928,
      "d": 555.5554999999877,
      "v": 50
    },
    {
      "midi": 73,
      "hit": false,
      "t": 173888.87149999928,
      "d": 555.5554999999877,
      "v": 50
    },
    {
      "midi": 51,
      "hit": false,
      "t": 174444.4269999992,
      "d": 555.5554999999877,
      "v": 49
    },
    {
      "midi": 57,
      "hit": false,
      "t": 174444.4269999992,
      "d": 555.5554999999877,
      "v": 49
    },
    {
      "midi": 66,
      "hit": false,
      "t": 174444.42699999927,
      "d": 555.5554999999877,
      "v": 51
    },
    {
      "midi": 72,
      "hit": false,
      "t": 174444.42699999927,
      "d": 555.5554999999877,
      "v": 51
    },
    {
      "midi": 50,
      "hit": false,
      "t": 174999.9824999992,
      "d": 555.5554999999877,
      "v": 51
    },
    {
      "midi": 56,
      "hit": false,
      "t": 174999.9824999992,
      "d": 555.5554999999877,
      "v": 51
    },
    {
      "midi": 71,
      "hit": false,
      "t": 174999.98249999926,
      "d": 555.5554999999877,
      "v": 55
    },
    {
      "midi": 77,
      "hit": false,
      "t": 174999.98249999926,
      "d": 555.5554999999877,
      "v": 55
    },
    {
      "midi": 49,
      "hit": false,
      "t": 175555.5379999992,
      "d": 555.5554999999877,
      "v": 52
    },
    {
      "midi": 55,
      "hit": false,
      "t": 175555.5379999992,
      "d": 555.5554999999877,
      "v": 52
    },
    {
      "midi": 70,
      "hit": false,
      "t": 175555.53799999924,
      "d": 555.5554999999877,
      "v": 58
    },
    {
      "midi": 76,
      "hit": false,
      "t": 175555.53799999924,
      "d": 555.5554999999877,
      "v": 58
    },
    {
      "midi": 48,
      "hit": false,
      "t": 176111.09349999917,
      "d": 555.5554999999877,
      "v": 53
    },
    {
      "midi": 54,
      "hit": false,
      "t": 176111.09349999917,
      "d": 555.5554999999877,
      "v": 53
    },
    {
      "midi": 75,
      "hit": false,
      "t": 176111.09349999923,
      "d": 555.5554999999877,
      "v": 62
    },
    {
      "midi": 81,
      "hit": false,
      "t": 176111.09349999923,
      "d": 555.5554999999877,
      "v": 62
    },
    {
      "midi": 47,
      "hit": false,
      "t": 176666.64899999916,
      "d": 555.5554999999877,
      "v": 54
    },
    {
      "midi": 53,
      "hit": false,
      "t": 176666.64899999916,
      "d": 555.5554999999877,
      "v": 54
    },
    {
      "midi": 74,
      "hit": false,
      "t": 176666.64899999922,
      "d": 555.5554999999877,
      "v": 65
    },
    {
      "midi": 80,
      "hit": false,
      "t": 176666.64899999922,
      "d": 555.5554999999877,
      "v": 65
    },
    {
      "midi": 46,
      "hit": false,
      "t": 177222.20449999915,
      "d": 555.5554999999877,
      "v": 57
    },
    {
      "midi": 52,
      "hit": false,
      "t": 177222.20449999915,
      "d": 555.5554999999877,
      "v": 57
    },
    {
      "midi": 79,
      "hit": false,
      "t": 177222.2044999992,
      "d": 555.5554999999877,
      "v": 66
    },
    {
      "midi": 85,
      "hit": false,
      "t": 177222.2044999992,
      "d": 555.5554999999877,
      "v": 66
    },
    {
      "midi": 45,
      "hit": false,
      "t": 177777.75999999914,
      "d": 555.5554999999877,
      "v": 62
    },
    {
      "midi": 51,
      "hit": false,
      "t": 177777.75999999914,
      "d": 555.5554999999877,
      "v": 62
    },
    {
      "midi": 78,
      "hit": false,
      "t": 177777.7599999992,
      "d": 555.5554999999877,
      "v": 70
    },
    {
      "midi": 84,
      "hit": false,
      "t": 177777.7599999992,
      "d": 555.5554999999877,
      "v": 70
    },
    {
      "midi": 51,
      "hit": false,
      "t": 178333.31549999912,
      "d": 555.5554999999877,
      "v": 49
    },
    {
      "midi": 57,
      "hit": false,
      "t": 178333.31549999912,
      "d": 555.5554999999877,
      "v": 49
    },
    {
      "midi": 66,
      "hit": false,
      "t": 178333.31549999918,
      "d": 555.5554999999877,
      "v": 50
    },
    {
      "midi": 72,
      "hit": false,
      "t": 178333.31549999918,
      "d": 555.5554999999877,
      "v": 50
    },
    {
      "midi": 50,
      "hit": false,
      "t": 178888.8709999991,
      "d": 555.5554999999877,
      "v": 52
    },
    {
      "midi": 56,
      "hit": false,
      "t": 178888.8709999991,
      "d": 555.5554999999877,
      "v": 52
    },
    {
      "midi": 65,
      "hit": false,
      "t": 178888.87099999917,
      "d": 555.5554999999877,
      "v": 53
    },
    {
      "midi": 71,
      "hit": false,
      "t": 178888.87099999917,
      "d": 555.5554999999877,
      "v": 53
    },
    {
      "midi": 49,
      "hit": false,
      "t": 179444.4264999991,
      "d": 555.5554999999877,
      "v": 52
    },
    {
      "midi": 55,
      "hit": false,
      "t": 179444.4264999991,
      "d": 555.5554999999877,
      "v": 52
    },
    {
      "midi": 70,
      "hit": false,
      "t": 179444.42649999916,
      "d": 555.5554999999877,
      "v": 55
    },
    {
      "midi": 76,
      "hit": false,
      "t": 179444.42649999916,
      "d": 555.5554999999877,
      "v": 55
    },
    {
      "midi": 48,
      "hit": false,
      "t": 179999.9819999991,
      "d": 555.5554999999877,
      "v": 53
    },
    {
      "midi": 54,
      "hit": false,
      "t": 179999.9819999991,
      "d": 555.5554999999877,
      "v": 53
    },
    {
      "midi": 69,
      "hit": false,
      "t": 179999.98199999915,
      "d": 555.5554999999877,
      "v": 57
    },
    {
      "midi": 75,
      "hit": false,
      "t": 179999.98199999915,
      "d": 555.5554999999877,
      "v": 57
    },
    {
      "midi": 47,
      "hit": false,
      "t": 180555.53749999907,
      "d": 555.5554999999877,
      "v": 55
    },
    {
      "midi": 53,
      "hit": false,
      "t": 180555.53749999907,
      "d": 555.5554999999877,
      "v": 55
    },
    {
      "midi": 74,
      "hit": false,
      "t": 180555.53749999913,
      "d": 555.5554999999877,
      "v": 60
    },
    {
      "midi": 80,
      "hit": false,
      "t": 180555.53749999913,
      "d": 555.5554999999877,
      "v": 60
    },
    {
      "midi": 46,
      "hit": false,
      "t": 181111.09299999906,
      "d": 555.5554999999877,
      "v": 54
    },
    {
      "midi": 52,
      "hit": false,
      "t": 181111.09299999906,
      "d": 555.5554999999877,
      "v": 54
    },
    {
      "midi": 73,
      "hit": false,
      "t": 181111.09299999912,
      "d": 555.5554999999877,
      "v": 62
    },
    {
      "midi": 79,
      "hit": false,
      "t": 181111.09299999912,
      "d": 555.5554999999877,
      "v": 62
    },
    {
      "midi": 45,
      "hit": false,
      "t": 181666.64849999905,
      "d": 555.5554999999877,
      "v": 59
    },
    {
      "midi": 51,
      "hit": false,
      "t": 181666.64849999905,
      "d": 555.5554999999877,
      "v": 59
    },
    {
      "midi": 78,
      "hit": false,
      "t": 181666.6484999991,
      "d": 555.5554999999877,
      "v": 64
    },
    {
      "midi": 84,
      "hit": false,
      "t": 181666.6484999991,
      "d": 555.5554999999877,
      "v": 64
    },
    {
      "midi": 44,
      "hit": false,
      "t": 182222.20399999904,
      "d": 555.5554999999877,
      "v": 58
    },
    {
      "midi": 50,
      "hit": false,
      "t": 182222.20399999904,
      "d": 555.5554999999877,
      "v": 58
    },
    {
      "midi": 77,
      "hit": false,
      "t": 182222.2039999991,
      "d": 555.5554999999877,
      "v": 67
    },
    {
      "midi": 83,
      "hit": false,
      "t": 182222.2039999991,
      "d": 555.5554999999877,
      "v": 67
    },
    {
      "midi": 43,
      "hit": false,
      "t": 182777.75949999903,
      "d": 555.5554999999877,
      "v": 59
    },
    {
      "midi": 49,
      "hit": false,
      "t": 182777.75949999903,
      "d": 555.5554999999877,
      "v": 59
    },
    {
      "midi": 82,
      "hit": false,
      "t": 182777.75949999908,
      "d": 555.5554999999877,
      "v": 66
    },
    {
      "midi": 88,
      "hit": false,
      "t": 182777.75949999908,
      "d": 555.5554999999877,
      "v": 66
    },
    {
      "midi": 42,
      "hit": false,
      "t": 183333.314999999,
      "d": 555.5554999999877,
      "v": 58
    },
    {
      "midi": 48,
      "hit": false,
      "t": 183333.314999999,
      "d": 555.5554999999877,
      "v": 58
    },
    {
      "midi": 81,
      "hit": false,
      "t": 183333.31499999907,
      "d": 555.5554999999877,
      "v": 70
    },
    {
      "midi": 87,
      "hit": false,
      "t": 183333.31499999907,
      "d": 555.5554999999877,
      "v": 70
    },
    {
      "midi": 41,
      "hit": false,
      "t": 183888.870499999,
      "d": 555.5554999999877,
      "v": 60
    },
    {
      "midi": 47,
      "hit": false,
      "t": 183888.870499999,
      "d": 555.5554999999877,
      "v": 60
    },
    {
      "midi": 86,
      "hit": false,
      "t": 183888.87049999906,
      "d": 555.5554999999877,
      "v": 73
    },
    {
      "midi": 92,
      "hit": false,
      "t": 183888.87049999906,
      "d": 555.5554999999877,
      "v": 73
    },
    {
      "midi": 40,
      "hit": false,
      "t": 184444.425999999,
      "d": 555.5554999999877,
      "v": 66
    },
    {
      "midi": 46,
      "hit": false,
      "t": 184444.425999999,
      "d": 555.5554999999877,
      "v": 66
    },
    {
      "midi": 85,
      "hit": false,
      "t": 184444.42599999905,
      "d": 555.5554999999877,
      "v": 72
    },
    {
      "midi": 91,
      "hit": false,
      "t": 184444.42599999905,
      "d": 555.5554999999877,
      "v": 72
    },
    {
      "midi": 39,
      "hit": false,
      "t": 184999.98149999898,
      "d": 555.5554999999877,
      "v": 68
    },
    {
      "midi": 45,
      "hit": false,
      "t": 184999.98149999898,
      "d": 555.5554999999877,
      "v": 68
    },
    {
      "midi": 90,
      "hit": false,
      "t": 184999.98149999903,
      "d": 555.5554999999877,
      "v": 75
    },
    {
      "midi": 96,
      "hit": false,
      "t": 184999.98149999903,
      "d": 555.5554999999877,
      "v": 75
    },
    {
      "midi": 38,
      "hit": false,
      "t": 185555.53699999896,
      "d": 555.5554999999877,
      "v": 72
    },
    {
      "midi": 44,
      "hit": false,
      "t": 185555.53699999896,
      "d": 555.5554999999877,
      "v": 72
    },
    {
      "midi": 89,
      "hit": false,
      "t": 185555.53699999902,
      "d": 555.5554999999877,
      "v": 75
    },
    {
      "midi": 95,
      "hit": false,
      "t": 185555.53699999902,
      "d": 555.5554999999877,
      "v": 75
    },
    {
      "midi": 37,
      "hit": false,
      "t": 186111.09249999895,
      "d": 555.5554999999877,
      "v": 74
    },
    {
      "midi": 43,
      "hit": false,
      "t": 186111.09249999895,
      "d": 555.5554999999877,
      "v": 74
    },
    {
      "midi": 94,
      "hit": false,
      "t": 186111.092499999,
      "d": 555.5554999999877,
      "v": 78
    },
    {
      "midi": 100,
      "hit": false,
      "t": 186111.092499999,
      "d": 555.5554999999877,
      "v": 78
    },
    {
      "midi": 35,
      "hit": false,
      "t": 186666.64799999894,
      "d": 555.5554999999877,
      "v": 78
    },
    {
      "midi": 42,
      "hit": false,
      "t": 186666.64799999894,
      "d": 555.5554999999877,
      "v": 78
    },
    {
      "midi": 95,
      "hit": false,
      "t": 186666.647999999,
      "d": 555.5554999999877,
      "v": 83
    },
    {
      "midi": 99,
      "hit": false,
      "t": 186666.647999999,
      "d": 555.5554999999877,
      "v": 83
    },
    {
      "midi": 87,
      "hit": false,
      "t": 187222.20349999898,
      "d": 555.5554999999877,
      "v": 58
    },
    {
      "midi": 95,
      "hit": false,
      "t": 187222.20349999898,
      "d": 555.5554999999877,
      "v": 73
    },
    {
      "midi": 81,
      "hit": false,
      "t": 187777.75899999897,
      "d": 555.5554999999877,
      "v": 65
    },
    {
      "midi": 90,
      "hit": false,
      "t": 187777.75899999897,
      "d": 555.5554999999877,
      "v": 75
    },
    {
      "midi": 75,
      "hit": false,
      "t": 188333.31449999893,
      "d": 555.5554999999877,
      "v": 58
    },
    {
      "midi": 83,
      "hit": false,
      "t": 188333.31449999893,
      "d": 555.5554999999877,
      "v": 77
    },
    {
      "midi": 69,
      "hit": false,
      "t": 188888.86999999892,
      "d": 555.5554999999877,
      "v": 56
    },
    {
      "midi": 78,
      "hit": false,
      "t": 188888.86999999892,
      "d": 555.5554999999877,
      "v": 77
    },
    {
      "midi": 63,
      "hit": false,
      "t": 189444.42549999896,
      "d": 555.5554999999877,
      "v": 60
    },
    {
      "midi": 71,
      "hit": false,
      "t": 189444.42549999896,
      "d": 555.5554999999877,
      "v": 76
    },
    {
      "midi": 57,
      "hit": false,
      "t": 189999.98099999895,
      "d": 555.5554999999877,
      "v": 57
    },
    {
      "midi": 66,
      "hit": false,
      "t": 189999.98099999895,
      "d": 555.5554999999877,
      "v": 74
    },
    {
      "midi": 51,
      "hit": false,
      "t": 190555.5364999989,
      "d": 555.5554999999877,
      "v": 54
    },
    {
      "midi": 59,
      "hit": false,
      "t": 190555.5364999989,
      "d": 555.5554999999877,
      "v": 75
    },
    {
      "midi": 45,
      "hit": false,
      "t": 191111.0919999989,
      "d": 555.5554999999877,
      "v": 54
    },
    {
      "midi": 54,
      "hit": false,
      "t": 191111.0919999989,
      "d": 555.5554999999877,
      "v": 77
    },
    {
      "midi": 36,
      "hit": false,
      "t": 191666.6474999989,
      "d": 555.5554999999877,
      "v": 79
    },
    {
      "midi": 48,
      "hit": false,
      "t": 191666.6474999989,
      "d": 555.5554999999877,
      "v": 85
    },
    {
      "midi": 57,
      "hit": false,
      "t": 191666.64749999894,
      "d": 555.5554999999877,
      "v": 84
    },
    {
      "midi": 64,
      "hit": false,
      "t": 191666.64749999894,
      "d": 555.5554999999877,
      "v": 65
    },
    {
      "midi": 66,
      "hit": false,
      "t": 191666.64749999894,
      "d": 555.5554999999877,
      "v": 60
    },
    {
      "midi": 69,
      "hit": false,
      "t": 191666.64749999894,
      "d": 555.5554999999877,
      "v": 91
    },
    {
      "midi": 35,
      "hit": false,
      "t": 192222.20299999887,
      "d": 555.5554999999877,
      "v": 84
    },
    {
      "midi": 47,
      "hit": false,
      "t": 192222.20299999887,
      "d": 555.5554999999877,
      "v": 76
    },
    {
      "midi": 59,
      "hit": false,
      "t": 192222.20299999893,
      "d": 555.5554999999877,
      "v": 89
    },
    {
      "midi": 64,
      "hit": false,
      "t": 192222.20299999893,
      "d": 555.5554999999877,
      "v": 66
    },
    {
      "midi": 66,
      "hit": false,
      "t": 192222.20299999893,
      "d": 555.5554999999877,
      "v": 60
    },
    {
      "midi": 71,
      "hit": false,
      "t": 192222.20299999893,
      "d": 555.5554999999877,
      "v": 91
    },
    {
      "midi": 33,
      "hit": false,
      "t": 192777.75849999886,
      "d": 555.5554999999877,
      "v": 82
    },
    {
      "midi": 45,
      "hit": false,
      "t": 192777.75849999886,
      "d": 555.5554999999877,
      "v": 72
    },
    {
      "midi": 60,
      "hit": false,
      "t": 192777.75849999892,
      "d": 555.5554999999877,
      "v": 91
    },
    {
      "midi": 64,
      "hit": false,
      "t": 192777.75849999892,
      "d": 555.5554999999877,
      "v": 65
    },
    {
      "midi": 66,
      "hit": false,
      "t": 192777.75849999892,
      "d": 555.5554999999877,
      "v": 60
    },
    {
      "midi": 72,
      "hit": false,
      "t": 192777.75849999892,
      "d": 555.5554999999877,
      "v": 91
    },
    {
      "midi": 35,
      "hit": false,
      "t": 193333.31399999885,
      "d": 555.5554999999877,
      "v": 73
    },
    {
      "midi": 47,
      "hit": false,
      "t": 193333.31399999885,
      "d": 555.5554999999877,
      "v": 77
    },
    {
      "midi": 59,
      "hit": false,
      "t": 193333.3139999989,
      "d": 555.5554999999877,
      "v": 89
    },
    {
      "midi": 64,
      "hit": false,
      "t": 193333.3139999989,
      "d": 555.5554999999877,
      "v": 65
    },
    {
      "midi": 66,
      "hit": false,
      "t": 193333.3139999989,
      "d": 555.5554999999877,
      "v": 60
    },
    {
      "midi": 71,
      "hit": false,
      "t": 193333.3139999989,
      "d": 555.5554999999877,
      "v": 91
    },
    {
      "midi": 36,
      "hit": false,
      "t": 193888.86949999884,
      "d": 555.5554999999877,
      "v": 74
    },
    {
      "midi": 48,
      "hit": false,
      "t": 193888.86949999884,
      "d": 555.5554999999877,
      "v": 79
    },
    {
      "midi": 57,
      "hit": false,
      "t": 193888.8694999989,
      "d": 555.5554999999877,
      "v": 87
    },
    {
      "midi": 64,
      "hit": false,
      "t": 193888.8694999989,
      "d": 555.5554999999877,
      "v": 67
    },
    {
      "midi": 66,
      "hit": false,
      "t": 193888.8694999989,
      "d": 555.5554999999877,
      "v": 64
    },
    {
      "midi": 69,
      "hit": false,
      "t": 193888.8694999989,
      "d": 555.5554999999877,
      "v": 85
    },
    {
      "midi": 35,
      "hit": false,
      "t": 194444.42499999882,
      "d": 555.5554999999877,
      "v": 85
    },
    {
      "midi": 47,
      "hit": false,
      "t": 194444.42499999882,
      "d": 555.5554999999877,
      "v": 76
    },
    {
      "midi": 59,
      "hit": false,
      "t": 194444.42499999888,
      "d": 555.5554999999877,
      "v": 87
    },
    {
      "midi": 64,
      "hit": false,
      "t": 194444.42499999888,
      "d": 555.5554999999877,
      "v": 65
    },
    {
      "midi": 66,
      "hit": false,
      "t": 194444.42499999888,
      "d": 555.5554999999877,
      "v": 60
    },
    {
      "midi": 71,
      "hit": false,
      "t": 194444.42499999888,
      "d": 555.5554999999877,
      "v": 88
    },
    {
      "midi": 33,
      "hit": false,
      "t": 194999.9804999988,
      "d": 555.5554999999877,
      "v": 80
    },
    {
      "midi": 45,
      "hit": false,
      "t": 194999.9804999988,
      "d": 555.5554999999877,
      "v": 72
    },
    {
      "midi": 60,
      "hit": false,
      "t": 194999.98049999887,
      "d": 555.5554999999877,
      "v": 88
    },
    {
      "midi": 64,
      "hit": false,
      "t": 194999.98049999887,
      "d": 555.5554999999877,
      "v": 62
    },
    {
      "midi": 66,
      "hit": false,
      "t": 194999.98049999887,
      "d": 555.5554999999877,
      "v": 59
    },
    {
      "midi": 72,
      "hit": false,
      "t": 194999.98049999887,
      "d": 555.5554999999877,
      "v": 89
    },
    {
      "midi": 35,
      "hit": false,
      "t": 195555.5359999988,
      "d": 555.5554999999877,
      "v": 85
    },
    {
      "midi": 47,
      "hit": false,
      "t": 195555.5359999988,
      "d": 555.5554999999877,
      "v": 88
    },
    {
      "midi": 59,
      "hit": false,
      "t": 195555.53599999886,
      "d": 555.5554999999877,
      "v": 91
    },
    {
      "midi": 63,
      "hit": false,
      "t": 195555.53599999886,
      "d": 555.5554999999877,
      "v": 71
    },
    {
      "midi": 66,
      "hit": false,
      "t": 195555.53599999886,
      "d": 555.5554999999877,
      "v": 76
    },
    {
      "midi": 71,
      "hit": false,
      "t": 195555.53599999886,
      "d": 555.5554999999877,
      "v": 89
    },
    {
      "midi": 93,
      "hit": false,
      "t": 196111.09149999885,
      "d": 555.5554999999877,
      "v": 63
    },
    {
      "midi": 99,
      "hit": false,
      "t": 196111.09149999885,
      "d": 555.5554999999877,
      "v": 73
    },
    {
      "midi": 87,
      "hit": false,
      "t": 196666.64699999883,
      "d": 555.5554999999877,
      "v": 58
    },
    {
      "midi": 95,
      "hit": false,
      "t": 196666.64699999883,
      "d": 555.5554999999877,
      "v": 77
    },
    {
      "midi": 81,
      "hit": false,
      "t": 197222.2024999988,
      "d": 555.5554999999877,
      "v": 63
    },
    {
      "midi": 87,
      "hit": false,
      "t": 197222.2024999988,
      "d": 555.5554999999877,
      "v": 75
    },
    {
      "midi": 75,
      "hit": false,
      "t": 197777.75799999878,
      "d": 555.5554999999877,
      "v": 63
    },
    {
      "midi": 83,
      "hit": false,
      "t": 197777.75799999878,
      "d": 555.5554999999877,
      "v": 75
    },
    {
      "midi": 69,
      "hit": false,
      "t": 198333.31349999883,
      "d": 555.5554999999877,
      "v": 67
    },
    {
      "midi": 75,
      "hit": false,
      "t": 198333.31349999883,
      "d": 555.5554999999877,
      "v": 73
    },
    {
      "midi": 63,
      "hit": false,
      "t": 198888.8689999988,
      "d": 555.5554999999877,
      "v": 58
    },
    {
      "midi": 71,
      "hit": false,
      "t": 198888.8689999988,
      "d": 555.5554999999877,
      "v": 77
    },
    {
      "midi": 54,
      "hit": false,
      "t": 199444.42449999877,
      "d": 555.5554999999877,
      "v": 63
    },
    {
      "midi": 63,
      "hit": false,
      "t": 199444.42449999877,
      "d": 555.5554999999877,
      "v": 77
    },
    {
      "midi": 47,
      "hit": false,
      "t": 199999.97999999876,
      "d": 555.5554999999877,
      "v": 64
    },
    {
      "midi": 57,
      "hit": false,
      "t": 199999.97999999876,
      "d": 555.5554999999877,
      "v": 72
    },
    {
      "midi": 36,
      "hit": false,
      "t": 200555.53549999875,
      "d": 555.5554999999877,
      "v": 87
    },
    {
      "midi": 48,
      "hit": false,
      "t": 200555.53549999875,
      "d": 555.5554999999877,
      "v": 89
    },
    {
      "midi": 57,
      "hit": false,
      "t": 200555.5354999988,
      "d": 555.5554999999877,
      "v": 84
    },
    {
      "midi": 64,
      "hit": false,
      "t": 200555.5354999988,
      "d": 555.5554999999877,
      "v": 76
    },
    {
      "midi": 66,
      "hit": false,
      "t": 200555.5354999988,
      "d": 555.5554999999877,
      "v": 79
    },
    {
      "midi": 69,
      "hit": false,
      "t": 200555.5354999988,
      "d": 555.5554999999877,
      "v": 88
    },
    {
      "midi": 35,
      "hit": false,
      "t": 201111.09099999873,
      "d": 555.5554999999877,
      "v": 89
    },
    {
      "midi": 47,
      "hit": false,
      "t": 201111.09099999873,
      "d": 555.5554999999877,
      "v": 79
    },
    {
      "midi": 59,
      "hit": false,
      "t": 201111.0909999988,
      "d": 555.5554999999877,
      "v": 80
    },
    {
      "midi": 64,
      "hit": false,
      "t": 201111.0909999988,
      "d": 555.5554999999877,
      "v": 77
    },
    {
      "midi": 66,
      "hit": false,
      "t": 201111.0909999988,
      "d": 555.5554999999877,
      "v": 77
    },
    {
      "midi": 71,
      "hit": false,
      "t": 201111.0909999988,
      "d": 555.5554999999877,
      "v": 88
    },
    {
      "midi": 33,
      "hit": false,
      "t": 201666.64649999872,
      "d": 555.5554999999877,
      "v": 89
    },
    {
      "midi": 45,
      "hit": false,
      "t": 201666.64649999872,
      "d": 555.5554999999877,
      "v": 77
    },
    {
      "midi": 60,
      "hit": false,
      "t": 201666.64649999878,
      "d": 555.5554999999877,
      "v": 89
    },
    {
      "midi": 64,
      "hit": false,
      "t": 201666.64649999878,
      "d": 555.5554999999877,
      "v": 77
    },
    {
      "midi": 66,
      "hit": false,
      "t": 201666.64649999878,
      "d": 555.5554999999877,
      "v": 78
    },
    {
      "midi": 72,
      "hit": false,
      "t": 201666.64649999878,
      "d": 555.5554999999877,
      "v": 91
    },
    {
      "midi": 35,
      "hit": false,
      "t": 202222.2019999987,
      "d": 555.5554999999877,
      "v": 88
    },
    {
      "midi": 47,
      "hit": false,
      "t": 202222.2019999987,
      "d": 555.5554999999877,
      "v": 85
    },
    {
      "midi": 59,
      "hit": false,
      "t": 202222.20199999877,
      "d": 555.5554999999877,
      "v": 80
    },
    {
      "midi": 64,
      "hit": false,
      "t": 202222.20199999877,
      "d": 555.5554999999877,
      "v": 67
    },
    {
      "midi": 66,
      "hit": false,
      "t": 202222.20199999877,
      "d": 555.5554999999877,
      "v": 67
    },
    {
      "midi": 71,
      "hit": false,
      "t": 202222.20199999877,
      "d": 555.5554999999877,
      "v": 88
    },
    {
      "midi": 36,
      "hit": false,
      "t": 202777.7574999987,
      "d": 555.5554999999877,
      "v": 76
    },
    {
      "midi": 48,
      "hit": false,
      "t": 202777.7574999987,
      "d": 555.5554999999877,
      "v": 84
    },
    {
      "midi": 57,
      "hit": false,
      "t": 202777.75749999876,
      "d": 555.5554999999877,
      "v": 82
    },
    {
      "midi": 64,
      "hit": false,
      "t": 202777.75749999876,
      "d": 555.5554999999877,
      "v": 67
    },
    {
      "midi": 66,
      "hit": false,
      "t": 202777.75749999876,
      "d": 555.5554999999877,
      "v": 65
    },
    {
      "midi": 69,
      "hit": false,
      "t": 202777.75749999876,
      "d": 555.5554999999877,
      "v": 82
    },
    {
      "midi": 35,
      "hit": false,
      "t": 203333.31299999868,
      "d": 555.5554999999877,
      "v": 82
    },
    {
      "midi": 47,
      "hit": false,
      "t": 203333.31299999868,
      "d": 555.5554999999877,
      "v": 79
    },
    {
      "midi": 59,
      "hit": false,
      "t": 203333.31299999874,
      "d": 555.5554999999877,
      "v": 76
    },
    {
      "midi": 64,
      "hit": false,
      "t": 203333.31299999874,
      "d": 555.5554999999877,
      "v": 68
    },
    {
      "midi": 66,
      "hit": false,
      "t": 203333.31299999874,
      "d": 555.5554999999877,
      "v": 69
    },
    {
      "midi": 71,
      "hit": false,
      "t": 203333.31299999874,
      "d": 555.5554999999877,
      "v": 85
    },
    {
      "midi": 33,
      "hit": false,
      "t": 203888.86849999867,
      "d": 555.5554999999877,
      "v": 89
    },
    {
      "midi": 45,
      "hit": false,
      "t": 203888.86849999867,
      "d": 555.5554999999877,
      "v": 79
    },
    {
      "midi": 66,
      "hit": false,
      "t": 203888.86849999873,
      "d": 555.5554999999877,
      "v": 83
    },
    {
      "midi": 73,
      "hit": false,
      "t": 203888.86849999873,
      "d": 555.5554999999877,
      "v": 73
    },
    {
      "midi": 76,
      "hit": false,
      "t": 203888.86849999873,
      "d": 555.5554999999877,
      "v": 74
    },
    {
      "midi": 78,
      "hit": false,
      "t": 203888.86849999873,
      "d": 555.5554999999877,
      "v": 88
    },
    {
      "midi": 35,
      "hit": false,
      "t": 204444.42399999866,
      "d": 555.5554999999877,
      "v": 74
    },
    {
      "midi": 47,
      "hit": false,
      "t": 204444.42399999866,
      "d": 555.5554999999877,
      "v": 91
    },
    {
      "midi": 66,
      "hit": false,
      "t": 204444.42399999872,
      "d": 555.5554999999877,
      "v": 84
    },
    {
      "midi": 71,
      "hit": false,
      "t": 204444.42399999872,
      "d": 555.5554999999877,
      "v": 75
    },
    {
      "midi": 75,
      "hit": false,
      "t": 204444.42399999872,
      "d": 555.5554999999877,
      "v": 77
    },
    {
      "midi": 78,
      "hit": false,
      "t": 204444.42399999872,
      "d": 555.5554999999877,
      "v": 89
    },
    {
      "midi": 62,
      "hit": false,
      "t": 204999.97949999865,
      "d": 555.5554999999877,
      "v": 60
    },
    {
      "midi": 71,
      "hit": false,
      "t": 204999.97949999865,
      "d": 555.5554999999877,
      "v": 73
    },
    {
      "midi": 86,
      "hit": false,
      "t": 204999.9794999987,
      "d": 555.5554999999877,
      "v": 75
    },
    {
      "midi": 95,
      "hit": false,
      "t": 204999.9794999987,
      "d": 555.5554999999877,
      "v": 80
    },
    {
      "midi": 68,
      "hit": false,
      "t": 205555.53499999864,
      "d": 555.5554999999877,
      "v": 71
    },
    {
      "midi": 77,
      "hit": false,
      "t": 205555.53499999864,
      "d": 555.5554999999877,
      "v": 69
    },
    {
      "midi": 80,
      "hit": false,
      "t": 205555.5349999987,
      "d": 555.5554999999877,
      "v": 67
    },
    {
      "midi": 89,
      "hit": false,
      "t": 205555.5349999987,
      "d": 555.5554999999877,
      "v": 77
    },
    {
      "midi": 65,
      "hit": false,
      "t": 206111.09049999862,
      "d": 555.5554999999877,
      "v": 63
    },
    {
      "midi": 74,
      "hit": false,
      "t": 206111.09049999862,
      "d": 555.5554999999877,
      "v": 70
    },
    {
      "midi": 77,
      "hit": false,
      "t": 206111.09049999868,
      "d": 555.5554999999877,
      "v": 65
    },
    {
      "midi": 86,
      "hit": false,
      "t": 206111.09049999868,
      "d": 555.5554999999877,
      "v": 80
    },
    {
      "midi": 59,
      "hit": false,
      "t": 206666.6459999986,
      "d": 555.5554999999877,
      "v": 57
    },
    {
      "midi": 68,
      "hit": false,
      "t": 206666.6459999986,
      "d": 555.5554999999877,
      "v": 71
    },
    {
      "midi": 83,
      "hit": false,
      "t": 206666.64599999867,
      "d": 555.5554999999877,
      "v": 71
    },
    {
      "midi": 92,
      "hit": false,
      "t": 206666.64599999867,
      "d": 555.5554999999877,
      "v": 77
    },
    {
      "midi": 60,
      "hit": false,
      "t": 207222.2014999986,
      "d": 555.5554999999877,
      "v": 65
    },
    {
      "midi": 69,
      "hit": false,
      "t": 207222.2014999986,
      "d": 555.5554999999877,
      "v": 72
    },
    {
      "midi": 84,
      "hit": false,
      "t": 207222.20149999866,
      "d": 555.5554999999877,
      "v": 67
    },
    {
      "midi": 93,
      "hit": false,
      "t": 207222.20149999866,
      "d": 555.5554999999877,
      "v": 77
    },
    {
      "midi": 66,
      "hit": false,
      "t": 207777.7569999986,
      "d": 555.5554999999877,
      "v": 71
    },
    {
      "midi": 75,
      "hit": false,
      "t": 207777.7569999986,
      "d": 555.5554999999877,
      "v": 74
    },
    {
      "midi": 78,
      "hit": false,
      "t": 207777.75699999864,
      "d": 555.5554999999877,
      "v": 73
    },
    {
      "midi": 87,
      "hit": false,
      "t": 207777.75699999864,
      "d": 555.5554999999877,
      "v": 75
    },
    {
      "midi": 63,
      "hit": false,
      "t": 208333.31249999857,
      "d": 555.5554999999877,
      "v": 70
    },
    {
      "midi": 72,
      "hit": false,
      "t": 208333.31249999857,
      "d": 555.5554999999877,
      "v": 67
    },
    {
      "midi": 75,
      "hit": false,
      "t": 208333.31249999863,
      "d": 555.5554999999877,
      "v": 77
    },
    {
      "midi": 84,
      "hit": false,
      "t": 208333.31249999863,
      "d": 555.5554999999877,
      "v": 77
    },
    {
      "midi": 57,
      "hit": false,
      "t": 208888.86799999856,
      "d": 555.5554999999877,
      "v": 62
    },
    {
      "midi": 66,
      "hit": false,
      "t": 208888.86799999856,
      "d": 555.5554999999877,
      "v": 65
    },
    {
      "midi": 81,
      "hit": false,
      "t": 208888.86799999862,
      "d": 555.5554999999877,
      "v": 69
    },
    {
      "midi": 90,
      "hit": false,
      "t": 208888.86799999862,
      "d": 555.5554999999877,
      "v": 67
    },
    {
      "midi": 60,
      "hit": false,
      "t": 209444.42349999855,
      "d": 555.5554999999877,
      "v": 58
    },
    {
      "midi": 69,
      "hit": false,
      "t": 209444.42349999855,
      "d": 555.5554999999877,
      "v": 70
    },
    {
      "midi": 84,
      "hit": false,
      "t": 209444.4234999986,
      "d": 555.5554999999877,
      "v": 63
    },
    {
      "midi": 93,
      "hit": false,
      "t": 209444.4234999986,
      "d": 555.5554999999877,
      "v": 76
    },
    {
      "midi": 66,
      "hit": false,
      "t": 209999.97899999854,
      "d": 555.5554999999877,
      "v": 71
    },
    {
      "midi": 75,
      "hit": false,
      "t": 209999.97899999854,
      "d": 555.5554999999877,
      "v": 77
    },
    {
      "midi": 78,
      "hit": false,
      "t": 209999.9789999986,
      "d": 555.5554999999877,
      "v": 74
    },
    {
      "midi": 87,
      "hit": false,
      "t": 209999.9789999986,
      "d": 555.5554999999877,
      "v": 79
    },
    {
      "midi": 65,
      "hit": false,
      "t": 210555.53449999852,
      "d": 555.5554999999877,
      "v": 59
    },
    {
      "midi": 74,
      "hit": false,
      "t": 210555.53449999852,
      "d": 555.5554999999877,
      "v": 65
    },
    {
      "midi": 77,
      "hit": false,
      "t": 210555.53449999858,
      "d": 555.5554999999877,
      "v": 66
    },
    {
      "midi": 86,
      "hit": false,
      "t": 210555.53449999858,
      "d": 555.5554999999877,
      "v": 76
    },
    {
      "midi": 59,
      "hit": false,
      "t": 211111.0899999985,
      "d": 555.5554999999877,
      "v": 60
    },
    {
      "midi": 68,
      "hit": false,
      "t": 211111.0899999985,
      "d": 555.5554999999877,
      "v": 75
    },
    {
      "midi": 83,
      "hit": false,
      "t": 211111.08999999857,
      "d": 555.5554999999877,
      "v": 74
    },
    {
      "midi": 92,
      "hit": false,
      "t": 211111.08999999857,
      "d": 555.5554999999877,
      "v": 78
    },
    {
      "midi": 58,
      "hit": false,
      "t": 211666.6454999985,
      "d": 555.5554999999877,
      "v": 64
    },
    {
      "midi": 67,
      "hit": false,
      "t": 211666.6454999985,
      "d": 555.5554999999877,
      "v": 68
    },
    {
      "midi": 82,
      "hit": false,
      "t": 211666.64549999856,
      "d": 555.5554999999877,
      "v": 73
    },
    {
      "midi": 91,
      "hit": false,
      "t": 211666.64549999856,
      "d": 555.5554999999877,
      "v": 74
    },
    {
      "midi": 64,
      "hit": false,
      "t": 212222.2009999985,
      "d": 555.5554999999877,
      "v": 63
    },
    {
      "midi": 73,
      "hit": false,
      "t": 212222.2009999985,
      "d": 555.5554999999877,
      "v": 69
    },
    {
      "midi": 76,
      "hit": false,
      "t": 212222.20099999855,
      "d": 555.5554999999877,
      "v": 68
    },
    {
      "midi": 85,
      "hit": false,
      "t": 212222.20099999855,
      "d": 555.5554999999877,
      "v": 67
    },
    {
      "midi": 63,
      "hit": false,
      "t": 212777.75649999848,
      "d": 555.5554999999877,
      "v": 71
    },
    {
      "midi": 72,
      "hit": false,
      "t": 212777.75649999848,
      "d": 555.5554999999877,
      "v": 67
    },
    {
      "midi": 75,
      "hit": false,
      "t": 212777.75649999853,
      "d": 555.5554999999877,
      "v": 71
    },
    {
      "midi": 84,
      "hit": false,
      "t": 212777.75649999853,
      "d": 555.5554999999877,
      "v": 68
    },
    {
      "midi": 57,
      "hit": false,
      "t": 213333.31199999846,
      "d": 555.5554999999877,
      "v": 64
    },
    {
      "midi": 66,
      "hit": false,
      "t": 213333.31199999846,
      "d": 555.5554999999877,
      "v": 68
    },
    {
      "midi": 81,
      "hit": false,
      "t": 213333.31199999852,
      "d": 555.5554999999877,
      "v": 64
    },
    {
      "midi": 90,
      "hit": false,
      "t": 213333.31199999852,
      "d": 555.5554999999877,
      "v": 70
    },
    {
      "midi": 60,
      "hit": false,
      "t": 213888.86749999845,
      "d": 555.5554999999877,
      "v": 61
    },
    {
      "midi": 69,
      "hit": false,
      "t": 213888.86749999845,
      "d": 555.5554999999877,
      "v": 72
    },
    {
      "midi": 84,
      "hit": false,
      "t": 213888.8674999985,
      "d": 555.5554999999877,
      "v": 70
    },
    {
      "midi": 93,
      "hit": false,
      "t": 213888.8674999985,
      "d": 555.5554999999877,
      "v": 69
    },
    {
      "midi": 66,
      "hit": false,
      "t": 214444.42299999844,
      "d": 555.5554999999877,
      "v": 70
    },
    {
      "midi": 75,
      "hit": false,
      "t": 214444.42299999844,
      "d": 555.5554999999877,
      "v": 74
    },
    {
      "midi": 78,
      "hit": false,
      "t": 214444.4229999985,
      "d": 555.5554999999877,
      "v": 77
    },
    {
      "midi": 87,
      "hit": false,
      "t": 214444.4229999985,
      "d": 555.5554999999877,
      "v": 73
    },
    {
      "midi": 63,
      "hit": false,
      "t": 214999.97849999843,
      "d": 555.5554999999877,
      "v": 67
    },
    {
      "midi": 72,
      "hit": false,
      "t": 214999.97849999843,
      "d": 555.5554999999877,
      "v": 67
    },
    {
      "midi": 75,
      "hit": false,
      "t": 214999.97849999848,
      "d": 555.5554999999877,
      "v": 74
    },
    {
      "midi": 84,
      "hit": false,
      "t": 214999.97849999848,
      "d": 555.5554999999877,
      "v": 73
    },
    {
      "midi": 57,
      "hit": false,
      "t": 215555.5339999984,
      "d": 555.5554999999877,
      "v": 63
    },
    {
      "midi": 66,
      "hit": false,
      "t": 215555.5339999984,
      "d": 555.5554999999877,
      "v": 67
    },
    {
      "midi": 81,
      "hit": false,
      "t": 215555.53399999847,
      "d": 555.5554999999877,
      "v": 67
    },
    {
      "midi": 90,
      "hit": false,
      "t": 215555.53399999847,
      "d": 555.5554999999877,
      "v": 66
    },
    {
      "midi": 59,
      "hit": false,
      "t": 216111.0894999984,
      "d": 555.5554999999877,
      "v": 61
    },
    {
      "midi": 68,
      "hit": false,
      "t": 216111.0894999984,
      "d": 555.5554999999877,
      "v": 77
    },
    {
      "midi": 83,
      "hit": false,
      "t": 216111.08949999846,
      "d": 555.5554999999877,
      "v": 74
    },
    {
      "midi": 92,
      "hit": false,
      "t": 216111.08949999846,
      "d": 555.5554999999877,
      "v": 78
    },
    {
      "midi": 65,
      "hit": false,
      "t": 216666.6449999984,
      "d": 555.5554999999877,
      "v": 57
    },
    {
      "midi": 74,
      "hit": false,
      "t": 216666.6449999984,
      "d": 555.5554999999877,
      "v": 67
    },
    {
      "midi": 77,
      "hit": false,
      "t": 216666.64499999845,
      "d": 555.5554999999877,
      "v": 66
    },
    {
      "midi": 86,
      "hit": false,
      "t": 216666.64499999845,
      "d": 555.5554999999877,
      "v": 79
    },
    {
      "midi": 62,
      "hit": false,
      "t": 217222.20049999838,
      "d": 555.5554999999877,
      "v": 62
    },
    {
      "midi": 71,
      "hit": false,
      "t": 217222.20049999838,
      "d": 555.5554999999877,
      "v": 73
    },
    {
      "midi": 74,
      "hit": false,
      "t": 217222.20049999843,
      "d": 555.5554999999877,
      "v": 70
    },
    {
      "midi": 83,
      "hit": false,
      "t": 217222.20049999843,
      "d": 555.5554999999877,
      "v": 81
    },
    {
      "midi": 56,
      "hit": false,
      "t": 217777.75599999836,
      "d": 555.5554999999877,
      "v": 60
    },
    {
      "midi": 65,
      "hit": false,
      "t": 217777.75599999836,
      "d": 555.5554999999877,
      "v": 68
    },
    {
      "midi": 80,
      "hit": false,
      "t": 217777.75599999842,
      "d": 555.5554999999877,
      "v": 69
    },
    {
      "midi": 89,
      "hit": false,
      "t": 217777.75599999842,
      "d": 555.5554999999877,
      "v": 75
    },
    {
      "midi": 59,
      "hit": false,
      "t": 218333.31149999835,
      "d": 555.5554999999877,
      "v": 62
    },
    {
      "midi": 68,
      "hit": false,
      "t": 218333.31149999835,
      "d": 555.5554999999877,
      "v": 69
    },
    {
      "midi": 83,
      "hit": false,
      "t": 218333.3114999984,
      "d": 555.5554999999877,
      "v": 77
    },
    {
      "midi": 92,
      "hit": false,
      "t": 218333.3114999984,
      "d": 555.5554999999877,
      "v": 71
    },
    {
      "midi": 65,
      "hit": false,
      "t": 218888.86699999834,
      "d": 555.5554999999877,
      "v": 70
    },
    {
      "midi": 74,
      "hit": false,
      "t": 218888.86699999834,
      "d": 555.5554999999877,
      "v": 71
    },
    {
      "midi": 77,
      "hit": false,
      "t": 218888.8669999984,
      "d": 555.5554999999877,
      "v": 67
    },
    {
      "midi": 86,
      "hit": false,
      "t": 218888.8669999984,
      "d": 555.5554999999877,
      "v": 76
    },
    {
      "midi": 64,
      "hit": false,
      "t": 219444.42249999833,
      "d": 555.5554999999877,
      "v": 63
    },
    {
      "midi": 73,
      "hit": false,
      "t": 219444.42249999833,
      "d": 555.5554999999877,
      "v": 66
    },
    {
      "midi": 76,
      "hit": false,
      "t": 219444.42249999839,
      "d": 555.5554999999877,
      "v": 71
    },
    {
      "midi": 85,
      "hit": false,
      "t": 219444.42249999839,
      "d": 555.5554999999877,
      "v": 66
    },
    {
      "midi": 58,
      "hit": false,
      "t": 219999.97799999831,
      "d": 555.5554999999877,
      "v": 58
    },
    {
      "midi": 67,
      "hit": false,
      "t": 219999.97799999831,
      "d": 555.5554999999877,
      "v": 75
    },
    {
      "midi": 82,
      "hit": false,
      "t": 219999.97799999837,
      "d": 555.5554999999877,
      "v": 71
    },
    {
      "midi": 91,
      "hit": false,
      "t": 219999.97799999837,
      "d": 555.5554999999877,
      "v": 73
    },
    {
      "midi": 57,
      "hit": false,
      "t": 220555.5334999983,
      "d": 555.5554999999877,
      "v": 67
    },
    {
      "midi": 66,
      "hit": false,
      "t": 220555.5334999983,
      "d": 555.5554999999877,
      "v": 67
    },
    {
      "midi": 81,
      "hit": false,
      "t": 220555.53349999836,
      "d": 555.5554999999877,
      "v": 76
    },
    {
      "midi": 90,
      "hit": false,
      "t": 220555.53349999836,
      "d": 555.5554999999877,
      "v": 83
    },
    {
      "midi": 63,
      "hit": false,
      "t": 221111.0889999983,
      "d": 555.5554999999877,
      "v": 71
    },
    {
      "midi": 72,
      "hit": false,
      "t": 221111.0889999983,
      "d": 555.5554999999877,
      "v": 70
    },
    {
      "midi": 75,
      "hit": false,
      "t": 221111.08899999835,
      "d": 555.5554999999877,
      "v": 70
    },
    {
      "midi": 84,
      "hit": false,
      "t": 221111.08899999835,
      "d": 555.5554999999877,
      "v": 74
    },
    {
      "midi": 62,
      "hit": false,
      "t": 221666.64449999828,
      "d": 555.5554999999877,
      "v": 64
    },
    {
      "midi": 71,
      "hit": false,
      "t": 221666.64449999828,
      "d": 555.5554999999877,
      "v": 74
    },
    {
      "midi": 74,
      "hit": false,
      "t": 221666.64449999834,
      "d": 555.5554999999877,
      "v": 67
    },
    {
      "midi": 83,
      "hit": false,
      "t": 221666.64449999834,
      "d": 555.5554999999877,
      "v": 81
    },
    {
      "midi": 56,
      "hit": false,
      "t": 222222.19999999827,
      "d": 555.5554999999877,
      "v": 58
    },
    {
      "midi": 65,
      "hit": false,
      "t": 222222.19999999827,
      "d": 555.5554999999877,
      "v": 70
    },
    {
      "midi": 80,
      "hit": false,
      "t": 222222.19999999832,
      "d": 555.5554999999877,
      "v": 71
    },
    {
      "midi": 89,
      "hit": false,
      "t": 222222.19999999832,
      "d": 555.5554999999877,
      "v": 77
    },
    {
      "midi": 59,
      "hit": false,
      "t": 222777.75549999825,
      "d": 555.5554999999877,
      "v": 63
    },
    {
      "midi": 68,
      "hit": false,
      "t": 222777.75549999825,
      "d": 555.5554999999877,
      "v": 78
    },
    {
      "midi": 83,
      "hit": false,
      "t": 222777.7554999983,
      "d": 555.5554999999877,
      "v": 71
    },
    {
      "midi": 92,
      "hit": false,
      "t": 222777.7554999983,
      "d": 555.5554999999877,
      "v": 78
    },
    {
      "midi": 65,
      "hit": false,
      "t": 223333.31099999824,
      "d": 555.5554999999877,
      "v": 69
    },
    {
      "midi": 74,
      "hit": false,
      "t": 223333.31099999824,
      "d": 555.5554999999877,
      "v": 67
    },
    {
      "midi": 77,
      "hit": false,
      "t": 223333.3109999983,
      "d": 555.5554999999877,
      "v": 64
    },
    {
      "midi": 86,
      "hit": false,
      "t": 223333.3109999983,
      "d": 555.5554999999877,
      "v": 75
    },
    {
      "midi": 62,
      "hit": false,
      "t": 223888.86649999823,
      "d": 555.5554999999877,
      "v": 67
    },
    {
      "midi": 71,
      "hit": false,
      "t": 223888.86649999823,
      "d": 555.5554999999877,
      "v": 74
    },
    {
      "midi": 74,
      "hit": false,
      "t": 223888.8664999983,
      "d": 555.5554999999877,
      "v": 63
    },
    {
      "midi": 83,
      "hit": false,
      "t": 223888.8664999983,
      "d": 555.5554999999877,
      "v": 72
    },
    {
      "midi": 56,
      "hit": false,
      "t": 224444.42199999822,
      "d": 555.5554999999877,
      "v": 66
    },
    {
      "midi": 65,
      "hit": false,
      "t": 224444.42199999822,
      "d": 555.5554999999877,
      "v": 76
    },
    {
      "midi": 80,
      "hit": false,
      "t": 224444.42199999827,
      "d": 555.5554999999877,
      "v": 78
    },
    {
      "midi": 89,
      "hit": false,
      "t": 224444.42199999827,
      "d": 555.5554999999877,
      "v": 81
    },
    {
      "midi": 57,
      "hit": false,
      "t": 224999.9774999982,
      "d": 555.5554999999877,
      "v": 64
    },
    {
      "midi": 66,
      "hit": false,
      "t": 224999.9774999982,
      "d": 555.5554999999877,
      "v": 68
    },
    {
      "midi": 81,
      "hit": false,
      "t": 224999.97749999826,
      "d": 555.5554999999877,
      "v": 70
    },
    {
      "midi": 90,
      "hit": false,
      "t": 224999.97749999826,
      "d": 555.5554999999877,
      "v": 68
    },
    {
      "midi": 63,
      "hit": false,
      "t": 225555.5329999982,
      "d": 555.5554999999877,
      "v": 67
    },
    {
      "midi": 72,
      "hit": false,
      "t": 225555.5329999982,
      "d": 555.5554999999877,
      "v": 72
    },
    {
      "midi": 75,
      "hit": false,
      "t": 225555.53299999825,
      "d": 555.5554999999877,
      "v": 71
    },
    {
      "midi": 84,
      "hit": false,
      "t": 225555.53299999825,
      "d": 555.5554999999877,
      "v": 79
    },
    {
      "midi": 60,
      "hit": false,
      "t": 226111.08849999818,
      "d": 555.5554999999877,
      "v": 59
    },
    {
      "midi": 69,
      "hit": false,
      "t": 226111.08849999818,
      "d": 555.5554999999877,
      "v": 66
    },
    {
      "midi": 72,
      "hit": false,
      "t": 226111.08849999824,
      "d": 555.5554999999877,
      "v": 67
    },
    {
      "midi": 81,
      "hit": false,
      "t": 226111.08849999824,
      "d": 555.5554999999877,
      "v": 73
    },
    {
      "midi": 54,
      "hit": false,
      "t": 226666.64399999817,
      "d": 555.5554999999877,
      "v": 48
    },
    {
      "midi": 63,
      "hit": false,
      "t": 226666.64399999817,
      "d": 555.5554999999877,
      "v": 58
    },
    {
      "midi": 78,
      "hit": false,
      "t": 226666.64399999822,
      "d": 555.5554999999877,
      "v": 56
    },
    {
      "midi": 87,
      "hit": false,
      "t": 226666.64399999822,
      "d": 555.5554999999877,
      "v": 60
    },
    {
      "midi": 57,
      "hit": false,
      "t": 227222.19949999815,
      "d": 555.5554999999877,
      "v": 52
    },
    {
      "midi": 66,
      "hit": false,
      "t": 227222.19949999815,
      "d": 555.5554999999877,
      "v": 52
    },
    {
      "midi": 81,
      "hit": false,
      "t": 227222.1994999982,
      "d": 555.5554999999877,
      "v": 56
    },
    {
      "midi": 90,
      "hit": false,
      "t": 227222.1994999982,
      "d": 555.5554999999877,
      "v": 59
    },
    {
      "midi": 63,
      "hit": false,
      "t": 227777.75499999814,
      "d": 555.5554999999877,
      "v": 55
    },
    {
      "midi": 72,
      "hit": false,
      "t": 227777.75499999814,
      "d": 555.5554999999877,
      "v": 52
    },
    {
      "midi": 75,
      "hit": false,
      "t": 227777.7549999982,
      "d": 555.5554999999877,
      "v": 54
    },
    {
      "midi": 84,
      "hit": false,
      "t": 227777.7549999982,
      "d": 555.5554999999877,
      "v": 61
    },
    {
      "midi": 62,
      "hit": false,
      "t": 228333.31049999813,
      "d": 555.5554999999877,
      "v": 50
    },
    {
      "midi": 71,
      "hit": false,
      "t": 228333.31049999813,
      "d": 555.5554999999877,
      "v": 54
    },
    {
      "midi": 74,
      "hit": false,
      "t": 228333.3104999982,
      "d": 555.5554999999877,
      "v": 54
    },
    {
      "midi": 83,
      "hit": false,
      "t": 228333.3104999982,
      "d": 555.5554999999877,
      "v": 64
    },
    {
      "midi": 56,
      "hit": false,
      "t": 228888.86599999812,
      "d": 555.5554999999877,
      "v": 49
    },
    {
      "midi": 65,
      "hit": false,
      "t": 228888.86599999812,
      "d": 555.5554999999877,
      "v": 61
    },
    {
      "midi": 80,
      "hit": false,
      "t": 228888.86599999818,
      "d": 555.5554999999877,
      "v": 64
    },
    {
      "midi": 89,
      "hit": false,
      "t": 228888.86599999818,
      "d": 555.5554999999877,
      "v": 66
    },
    {
      "midi": 55,
      "hit": false,
      "t": 229444.4214999981,
      "d": 555.5554999999877,
      "v": 53
    },
    {
      "midi": 64,
      "hit": false,
      "t": 229444.4214999981,
      "d": 555.5554999999877,
      "v": 56
    },
    {
      "midi": 79,
      "hit": false,
      "t": 229444.42149999816,
      "d": 555.5554999999877,
      "v": 60
    },
    {
      "midi": 88,
      "hit": false,
      "t": 229444.42149999816,
      "d": 555.5554999999877,
      "v": 64
    },
    {
      "midi": 61,
      "hit": false,
      "t": 229999.9769999981,
      "d": 555.5554999999877,
      "v": 60
    },
    {
      "midi": 70,
      "hit": false,
      "t": 229999.9769999981,
      "d": 555.5554999999877,
      "v": 63
    },
    {
      "midi": 73,
      "hit": false,
      "t": 229999.97699999815,
      "d": 555.5554999999877,
      "v": 65
    },
    {
      "midi": 82,
      "hit": false,
      "t": 229999.97699999815,
      "d": 555.5554999999877,
      "v": 63
    },
    {
      "midi": 60,
      "hit": false,
      "t": 230555.53249999808,
      "d": 555.5554999999877,
      "v": 59
    },
    {
      "midi": 69,
      "hit": false,
      "t": 230555.53249999808,
      "d": 555.5554999999877,
      "v": 57
    },
    {
      "midi": 72,
      "hit": false,
      "t": 230555.53249999814,
      "d": 555.5554999999877,
      "v": 57
    },
    {
      "midi": 81,
      "hit": false,
      "t": 230555.53249999814,
      "d": 555.5554999999877,
      "v": 63
    },
    {
      "midi": 54,
      "hit": false,
      "t": 231111.08799999807,
      "d": 555.5554999999877,
      "v": 55
    },
    {
      "midi": 63,
      "hit": false,
      "t": 231111.08799999807,
      "d": 555.5554999999877,
      "v": 66
    },
    {
      "midi": 78,
      "hit": false,
      "t": 231111.08799999813,
      "d": 555.5554999999877,
      "v": 61
    },
    {
      "midi": 87,
      "hit": false,
      "t": 231111.08799999813,
      "d": 555.5554999999877,
      "v": 62
    },
    {
      "midi": 53,
      "hit": false,
      "t": 231666.64349999806,
      "d": 555.5554999999877,
      "v": 56
    },
    {
      "midi": 62,
      "hit": false,
      "t": 231666.64349999806,
      "d": 555.5554999999877,
      "v": 60
    },
    {
      "midi": 77,
      "hit": false,
      "t": 231666.6434999981,
      "d": 555.5554999999877,
      "v": 64
    },
    {
      "midi": 86,
      "hit": false,
      "t": 231666.6434999981,
      "d": 555.5554999999877,
      "v": 67
    },
    {
      "midi": 59,
      "hit": false,
      "t": 232222.19899999804,
      "d": 555.5554999999877,
      "v": 53
    },
    {
      "midi": 68,
      "hit": false,
      "t": 232222.19899999804,
      "d": 555.5554999999877,
      "v": 68
    },
    {
      "midi": 71,
      "hit": false,
      "t": 232222.1989999981,
      "d": 555.5554999999877,
      "v": 61
    },
    {
      "midi": 80,
      "hit": false,
      "t": 232222.1989999981,
      "d": 555.5554999999877,
      "v": 61
    },
    {
      "midi": 58,
      "hit": false,
      "t": 232777.75449999803,
      "d": 555.5554999999877,
      "v": 59
    },
    {
      "midi": 67,
      "hit": false,
      "t": 232777.75449999803,
      "d": 555.5554999999877,
      "v": 59
    },
    {
      "midi": 70,
      "hit": false,
      "t": 232777.7544999981,
      "d": 555.5554999999877,
      "v": 63
    },
    {
      "midi": 79,
      "hit": false,
      "t": 232777.7544999981,
      "d": 555.5554999999877,
      "v": 74
    },
    {
      "midi": 52,
      "hit": false,
      "t": 233333.30999999802,
      "d": 555.5554999999877,
      "v": 61
    },
    {
      "midi": 61,
      "hit": false,
      "t": 233333.30999999802,
      "d": 555.5554999999877,
      "v": 67
    },
    {
      "midi": 76,
      "hit": false,
      "t": 233333.30999999808,
      "d": 555.5554999999877,
      "v": 62
    },
    {
      "midi": 85,
      "hit": false,
      "t": 233333.30999999808,
      "d": 555.5554999999877,
      "v": 66
    },
    {
      "midi": 58,
      "hit": false,
      "t": 233888.865499998,
      "d": 555.5554999999877,
      "v": 53
    },
    {
      "midi": 67,
      "hit": false,
      "t": 233888.865499998,
      "d": 555.5554999999877,
      "v": 61
    },
    {
      "midi": 70,
      "hit": false,
      "t": 233888.86549999806,
      "d": 555.5554999999877,
      "v": 55
    },
    {
      "midi": 79,
      "hit": false,
      "t": 233888.86549999806,
      "d": 555.5554999999877,
      "v": 69
    },
    {
      "midi": 52,
      "hit": false,
      "t": 234444.420999998,
      "d": 555.5554999999877,
      "v": 60
    },
    {
      "midi": 61,
      "hit": false,
      "t": 234444.420999998,
      "d": 555.5554999999877,
      "v": 68
    },
    {
      "midi": 76,
      "hit": false,
      "t": 234444.42099999805,
      "d": 555.5554999999877,
      "v": 64
    },
    {
      "midi": 85,
      "hit": false,
      "t": 234444.42099999805,
      "d": 555.5554999999877,
      "v": 66
    },
    {
      "midi": 58,
      "hit": false,
      "t": 234999.97649999798,
      "d": 555.5554999999877,
      "v": 55
    },
    {
      "midi": 67,
      "hit": false,
      "t": 234999.97649999798,
      "d": 555.5554999999877,
      "v": 59
    },
    {
      "midi": 70,
      "hit": false,
      "t": 234999.97649999804,
      "d": 555.5554999999877,
      "v": 62
    },
    {
      "midi": 79,
      "hit": false,
      "t": 234999.97649999804,
      "d": 555.5554999999877,
      "v": 79
    },
    {
      "midi": 52,
      "hit": false,
      "t": 235555.53199999797,
      "d": 555.5554999999877,
      "v": 55
    },
    {
      "midi": 60,
      "hit": false,
      "t": 235555.53199999797,
      "d": 555.5554999999877,
      "v": 73
    },
    {
      "midi": 76,
      "hit": false,
      "t": 235555.53199999803,
      "d": 555.5554999999877,
      "v": 53
    },
    {
      "midi": 84,
      "hit": false,
      "t": 235555.53199999803,
      "d": 555.5554999999877,
      "v": 59
    },
    {
      "midi": 58,
      "hit": false,
      "t": 236111.08749999796,
      "d": 555.5554999999877,
      "v": 62
    },
    {
      "midi": 66,
      "hit": false,
      "t": 236111.08749999796,
      "d": 555.5554999999877,
      "v": 74
    },
    {
      "midi": 70,
      "hit": false,
      "t": 236111.08749999802,
      "d": 555.5554999999877,
      "v": 60
    },
    {
      "midi": 78,
      "hit": false,
      "t": 236111.08749999802,
      "d": 555.5554999999877,
      "v": 68
    },
    {
      "midi": 52,
      "hit": false,
      "t": 236666.64299999794,
      "d": 555.5554999999877,
      "v": 54
    },
    {
      "midi": 60,
      "hit": false,
      "t": 236666.64299999794,
      "d": 555.5554999999877,
      "v": 64
    },
    {
      "midi": 76,
      "hit": false,
      "t": 236666.642999998,
      "d": 555.5554999999877,
      "v": 57
    },
    {
      "midi": 84,
      "hit": false,
      "t": 236666.642999998,
      "d": 555.5554999999877,
      "v": 68
    },
    {
      "midi": 58,
      "hit": false,
      "t": 237222.19849999793,
      "d": 555.5554999999877,
      "v": 62
    },
    {
      "midi": 66,
      "hit": false,
      "t": 237222.19849999793,
      "d": 555.5554999999877,
      "v": 73
    },
    {
      "midi": 70,
      "hit": false,
      "t": 237222.198499998,
      "d": 555.5554999999877,
      "v": 64
    },
    {
      "midi": 78,
      "hit": false,
      "t": 237222.198499998,
      "d": 555.5554999999877,
      "v": 71
    },
    {
      "midi": 52,
      "hit": false,
      "t": 237777.75399999792,
      "d": 555.5554999999877,
      "v": 55
    },
    {
      "midi": 60,
      "hit": false,
      "t": 237777.75399999792,
      "d": 555.5554999999877,
      "v": 69
    },
    {
      "midi": 76,
      "hit": false,
      "t": 237777.75399999798,
      "d": 555.5554999999877,
      "v": 56
    },
    {
      "midi": 84,
      "hit": false,
      "t": 237777.75399999798,
      "d": 555.5554999999877,
      "v": 62
    },
    {
      "midi": 57,
      "hit": false,
      "t": 238333.3094999979,
      "d": 555.5554999999877,
      "v": 67
    },
    {
      "midi": 66,
      "hit": false,
      "t": 238333.3094999979,
      "d": 555.5554999999877,
      "v": 69
    },
    {
      "midi": 69,
      "hit": false,
      "t": 238333.30949999797,
      "d": 555.5554999999877,
      "v": 70
    },
    {
      "midi": 78,
      "hit": false,
      "t": 238333.30949999797,
      "d": 555.5554999999877,
      "v": 71
    },
    {
      "midi": 52,
      "hit": false,
      "t": 238888.8649999979,
      "d": 555.5554999999877,
      "v": 61
    },
    {
      "midi": 60,
      "hit": false,
      "t": 238888.8649999979,
      "d": 555.5554999999877,
      "v": 72
    },
    {
      "midi": 76,
      "hit": false,
      "t": 238888.86499999795,
      "d": 555.5554999999877,
      "v": 61
    },
    {
      "midi": 84,
      "hit": false,
      "t": 238888.86499999795,
      "d": 555.5554999999877,
      "v": 68
    },
    {
      "midi": 57,
      "hit": false,
      "t": 239444.42049999788,
      "d": 555.5554999999877,
      "v": 68
    },
    {
      "midi": 66,
      "hit": false,
      "t": 239444.42049999788,
      "d": 555.5554999999877,
      "v": 74
    },
    {
      "midi": 69,
      "hit": false,
      "t": 239444.42049999794,
      "d": 555.5554999999877,
      "v": 73
    },
    {
      "midi": 78,
      "hit": false,
      "t": 239444.42049999794,
      "d": 555.5554999999877,
      "v": 74
    },
    {
      "midi": 47,
      "hit": false,
      "t": 239999.97599999787,
      "d": 555.5554999999877,
      "v": 76
    },
    {
      "midi": 59,
      "hit": false,
      "t": 239999.97599999787,
      "d": 555.5554999999877,
      "v": 60
    },
    {
      "midi": 75,
      "hit": false,
      "t": 239999.97599999793,
      "d": 555.5554999999877,
      "v": 63
    },
    {
      "midi": 83,
      "hit": false,
      "t": 239999.97599999793,
      "d": 555.5554999999877,
      "v": 77
    },
    {
      "midi": 52,
      "hit": false,
      "t": 241111.08699999785,
      "d": 1111.1110000000044,
      "v": 54
    },
    {
      "midi": 62,
      "hit": false,
      "t": 241111.0869999979,
      "d": 555.5554999999877,
      "v": 46
    },
    {
      "midi": 71,
      "hit": false,
      "t": 241111.0869999979,
      "d": 555.5554999999877,
      "v": 68
    },
    {
      "midi": 64,
      "hit": false,
      "t": 241666.6424999979,
      "d": 555.5554999999877,
      "v": 47
    },
    {
      "midi": 68,
      "hit": false,
      "t": 241666.6424999979,
      "d": 555.5554999999877,
      "v": 69
    },
    {
      "midi": 45,
      "hit": false,
      "t": 242222.19799999785,
      "d": 1111.1110000000044,
      "v": 64
    },
    {
      "midi": 61,
      "hit": false,
      "t": 242222.19799999788,
      "d": 555.5554999999877,
      "v": 44
    },
    {
      "midi": 71,
      "hit": false,
      "t": 242222.19799999788,
      "d": 555.5554999999877,
      "v": 76
    },
    {
      "midi": 64,
      "hit": false,
      "t": 242777.75349999787,
      "d": 555.5554999999877,
      "v": 47
    },
    {
      "midi": 69,
      "hit": false,
      "t": 242777.75349999787,
      "d": 555.5554999999877,
      "v": 65
    },
    {
      "midi": 57,
      "hit": false,
      "t": 243333.30899999785,
      "d": 555.5554999999877,
      "v": 47
    },
    {
      "midi": 66,
      "hit": false,
      "t": 243333.30899999785,
      "d": 555.5554999999877,
      "v": 70
    },
    {
      "midi": 48,
      "hit": false,
      "t": 243333.30899999785,
      "d": 1111.1110000000044,
      "v": 58
    },
    {
      "midi": 64,
      "hit": false,
      "t": 243888.86449999784,
      "d": 555.5554999999877,
      "v": 47
    },
    {
      "midi": 57,
      "hit": false,
      "t": 244444.41999999783,
      "d": 555.5554999999877,
      "v": 45
    },
    {
      "midi": 47,
      "hit": false,
      "t": 244444.41999999786,
      "d": 1111.1110000000044,
      "v": 54
    },
    {
      "midi": 63,
      "hit": false,
      "t": 244999.97549999782,
      "d": 555.5554999999877,
      "v": 47
    },
    {
      "midi": 62,
      "hit": false,
      "t": 245555.5309999978,
      "d": 555.5554999999877,
      "v": 45
    },
    {
      "midi": 71,
      "hit": false,
      "t": 245555.5309999978,
      "d": 555.5554999999877,
      "v": 63
    },
    {
      "midi": 52,
      "hit": false,
      "t": 245555.53099999786,
      "d": 277.7777500000084,
      "v": 61
    },
    {
      "midi": 54,
      "hit": false,
      "t": 245833.30874999787,
      "d": 555.5554999999877,
      "v": 61
    },
    {
      "midi": 64,
      "hit": false,
      "t": 246111.0864999978,
      "d": 555.5554999999877,
      "v": 48
    },
    {
      "midi": 68,
      "hit": false,
      "t": 246111.0864999978,
      "d": 555.5554999999877,
      "v": 63
    },
    {
      "midi": 52,
      "hit": false,
      "t": 246388.86424999786,
      "d": 277.7777500000084,
      "v": 63
    },
    {
      "midi": 61,
      "hit": false,
      "t": 246666.64199999778,
      "d": 555.5554999999877,
      "v": 45
    },
    {
      "midi": 71,
      "hit": false,
      "t": 246666.64199999778,
      "d": 555.5554999999877,
      "v": 75
    },
    {
      "midi": 45,
      "hit": false,
      "t": 246666.64199999787,
      "d": 1111.1110000000044,
      "v": 64
    },
    {
      "midi": 64,
      "hit": false,
      "t": 247222.19749999777,
      "d": 555.5554999999877,
      "v": 45
    },
    {
      "midi": 69,
      "hit": false,
      "t": 247222.19749999777,
      "d": 555.5554999999877,
      "v": 70
    },
    {
      "midi": 57,
      "hit": false,
      "t": 247777.75299999776,
      "d": 555.5554999999877,
      "v": 44
    },
    {
      "midi": 66,
      "hit": false,
      "t": 247777.75299999776,
      "d": 555.5554999999877,
      "v": 69
    },
    {
      "midi": 48,
      "hit": false,
      "t": 247777.75299999787,
      "d": 1111.1110000000044,
      "v": 67
    },
    {
      "midi": 64,
      "hit": false,
      "t": 248333.30849999774,
      "d": 555.5554999999877,
      "v": 44
    },
    {
      "midi": 57,
      "hit": false,
      "t": 248888.86399999773,
      "d": 555.5554999999877,
      "v": 44
    },
    {
      "midi": 47,
      "hit": false,
      "t": 248888.86399999788,
      "d": 1111.1110000000044,
      "v": 54
    },
    {
      "midi": 63,
      "hit": false,
      "t": 249444.41949999772,
      "d": 555.5554999999877,
      "v": 48
    },
    {
      "midi": 57,
      "hit": false,
      "t": 249999.9749999977,
      "d": 555.5554999999877,
      "v": 47
    },
    {
      "midi": 68,
      "hit": false,
      "t": 249999.9749999977,
      "d": 555.5554999999877,
      "v": 70
    },
    {
      "midi": 35,
      "hit": false,
      "t": 249999.97499999788,
      "d": 1111.1110000000044,
      "v": 61
    },
    {
      "midi": 59,
      "hit": false,
      "t": 250555.5304999977,
      "d": 555.5554999999877,
      "v": 44
    },
    {
      "midi": 66,
      "hit": false,
      "t": 250555.5304999977,
      "d": 555.5554999999877,
      "v": 73
    },
    {
      "midi": 56,
      "hit": false,
      "t": 251111.08599999768,
      "d": 555.5554999999877,
      "v": 47
    },
    {
      "midi": 66,
      "hit": false,
      "t": 251111.08599999768,
      "d": 555.5554999999877,
      "v": 75
    },
    {
      "midi": 40,
      "hit": false,
      "t": 251111.0859999979,
      "d": 1111.1110000000044,
      "v": 62
    },
    {
      "midi": 59,
      "hit": false,
      "t": 251666.64149999767,
      "d": 555.5554999999877,
      "v": 48
    },
    {
      "midi": 64,
      "hit": false,
      "t": 251666.64149999767,
      "d": 555.5554999999877,
      "v": 70
    },
    {
      "midi": 55,
      "hit": false,
      "t": 252222.19699999766,
      "d": 555.5554999999877,
      "v": 47
    },
    {
      "midi": 61,
      "hit": false,
      "t": 252222.19699999766,
      "d": 555.5554999999877,
      "v": 68
    },
    {
      "midi": 47,
      "hit": false,
      "t": 252222.1969999979,
      "d": 2222.222000000009,
      "v": 61
    },
    {
      "midi": 59,
      "hit": false,
      "t": 252777.75249999764,
      "d": 555.5554999999877,
      "v": 45
    },
    {
      "midi": 54,
      "hit": false,
      "t": 253333.30799999763,
      "d": 555.5554999999877,
      "v": 46
    },
    {
      "midi": 64,
      "hit": false,
      "t": 253333.30799999763,
      "d": 555.5554999999877,
      "v": 64
    },
    {
      "midi": 59,
      "hit": false,
      "t": 253888.86349999762,
      "d": 555.5554999999877,
      "v": 44
    },
    {
      "midi": 63,
      "hit": false,
      "t": 253888.86349999762,
      "d": 555.5554999999877,
      "v": 64
    },
    {
      "midi": 57,
      "hit": false,
      "t": 254444.4189999976,
      "d": 555.5554999999877,
      "v": 47
    },
    {
      "midi": 68,
      "hit": false,
      "t": 254444.4189999976,
      "d": 555.5554999999877,
      "v": 68
    },
    {
      "midi": 35,
      "hit": false,
      "t": 254444.4189999979,
      "d": 277.7777500000084,
      "v": 64
    },
    {
      "midi": 37,
      "hit": false,
      "t": 254722.1967499979,
      "d": 555.5554999999877,
      "v": 64
    },
    {
      "midi": 59,
      "hit": false,
      "t": 254999.9744999976,
      "d": 555.5554999999877,
      "v": 45
    },
    {
      "midi": 66,
      "hit": false,
      "t": 254999.9744999976,
      "d": 555.5554999999877,
      "v": 64
    },
    {
      "midi": 35,
      "hit": false,
      "t": 255277.7522499979,
      "d": 277.7777500000084,
      "v": 67
    },
    {
      "midi": 56,
      "hit": false,
      "t": 255555.52999999758,
      "d": 555.5554999999877,
      "v": 47
    },
    {
      "midi": 66,
      "hit": false,
      "t": 255555.52999999758,
      "d": 555.5554999999877,
      "v": 74
    },
    {
      "midi": 40,
      "hit": false,
      "t": 255555.5299999979,
      "d": 1111.1110000000044,
      "v": 69
    },
    {
      "midi": 59,
      "hit": false,
      "t": 256111.08549999757,
      "d": 555.5554999999877,
      "v": 46
    },
    {
      "midi": 64,
      "hit": false,
      "t": 256111.08549999757,
      "d": 555.5554999999877,
      "v": 64
    },
    {
      "midi": 55,
      "hit": false,
      "t": 256666.64099999756,
      "d": 555.5554999999877,
      "v": 48
    },
    {
      "midi": 61,
      "hit": false,
      "t": 256666.64099999756,
      "d": 555.5554999999877,
      "v": 66
    },
    {
      "midi": 47,
      "hit": false,
      "t": 256666.6409999979,
      "d": 2222.222000000009,
      "v": 58
    },
    {
      "midi": 59,
      "hit": false,
      "t": 257222.19649999755,
      "d": 555.5554999999877,
      "v": 46
    },
    {
      "midi": 54,
      "hit": false,
      "t": 257777.75199999753,
      "d": 555.5554999999877,
      "v": 59
    },
    {
      "midi": 64,
      "hit": false,
      "t": 257777.75199999753,
      "d": 555.5554999999877,
      "v": 64
    },
    {
      "midi": 59,
      "hit": false,
      "t": 258333.30749999752,
      "d": 555.5554999999877,
      "v": 44
    },
    {
      "midi": 63,
      "hit": false,
      "t": 258333.30749999752,
      "d": 555.5554999999877,
      "v": 63
    },
    {
      "midi": 55,
      "hit": false,
      "t": 258888.8629999975,
      "d": 555.5554999999877,
      "v": 48
    },
    {
      "midi": 40,
      "hit": false,
      "t": 258888.86299999792,
      "d": 277.7777500000084,
      "v": 60
    },
    {
      "midi": 42,
      "hit": false,
      "t": 259166.64074999793,
      "d": 555.5554999999877,
      "v": 66
    },
    {
      "midi": 59,
      "hit": false,
      "t": 259444.4184999975,
      "d": 555.5554999999877,
      "v": 47
    },
    {
      "midi": 61,
      "hit": false,
      "t": 259444.4184999975,
      "d": 555.5554999999877,
      "v": 64
    },
    {
      "midi": 40,
      "hit": false,
      "t": 259722.1962499979,
      "d": 277.7777500000084,
      "v": 66
    },
    {
      "midi": 54,
      "hit": false,
      "t": 259999.97399999748,
      "d": 555.5554999999877,
      "v": 50
    },
    {
      "midi": 64,
      "hit": false,
      "t": 259999.97399999748,
      "d": 555.5554999999877,
      "v": 63
    },
    {
      "midi": 35,
      "hit": false,
      "t": 259999.97399999792,
      "d": 1111.1110000000044,
      "v": 62
    },
    {
      "midi": 59,
      "hit": false,
      "t": 260555.52949999747,
      "d": 555.5554999999877,
      "v": 43
    },
    {
      "midi": 63,
      "hit": false,
      "t": 260555.52949999747,
      "d": 555.5554999999877,
      "v": 66
    },
    {
      "midi": 55,
      "hit": false,
      "t": 261111.08499999746,
      "d": 555.5554999999877,
      "v": 56
    },
    {
      "midi": 47,
      "hit": false,
      "t": 261111.08499999793,
      "d": 2222.222000000009,
      "v": 57
    },
    {
      "midi": 59,
      "hit": false,
      "t": 261666.64049999745,
      "d": 555.5554999999877,
      "v": 39
    },
    {
      "midi": 61,
      "hit": false,
      "t": 261666.64049999745,
      "d": 555.5554999999877,
      "v": 59
    },
    {
      "midi": 54,
      "hit": false,
      "t": 262222.19599999744,
      "d": 555.5555000000168,
      "v": 54
    },
    {
      "midi": 64,
      "hit": false,
      "t": 262222.19599999744,
      "d": 555.5555000000168,
      "v": 68
    },
    {
      "midi": 59,
      "hit": false,
      "t": 262777.75149999745,
      "d": 555.5555000000168,
      "v": 43
    },
    {
      "midi": 63,
      "hit": false,
      "t": 262777.75149999745,
      "d": 555.5555000000168,
      "v": 69
    },
    {
      "midi": 55,
      "hit": false,
      "t": 263333.30699999747,
      "d": 555.5555000000168,
      "v": 45
    },
    {
      "midi": 40,
      "hit": false,
      "t": 263333.30699999793,
      "d": 277.7777500000084,
      "v": 60
    },
    {
      "midi": 42,
      "hit": false,
      "t": 263611.08474999794,
      "d": 555.5555000000168,
      "v": 61
    },
    {
      "midi": 59,
      "hit": false,
      "t": 263888.8624999975,
      "d": 555.5555000000168,
      "v": 44
    },
    {
      "midi": 61,
      "hit": false,
      "t": 263888.8624999975,
      "d": 555.5555000000168,
      "v": 61
    },
    {
      "midi": 40,
      "hit": false,
      "t": 264166.64024999796,
      "d": 277.7777500000084,
      "v": 65
    },
    {
      "midi": 54,
      "hit": false,
      "t": 264444.4179999975,
      "d": 555.5555000000168,
      "v": 44
    },
    {
      "midi": 64,
      "hit": false,
      "t": 264444.4179999975,
      "d": 555.5555000000168,
      "v": 72
    },
    {
      "midi": 47,
      "hit": false,
      "t": 264444.41799999797,
      "d": 1111.1109999999753,
      "v": 63
    },
    {
      "midi": 59,
      "hit": false,
      "t": 264999.9734999975,
      "d": 555.5555000000168,
      "v": 38
    },
    {
      "midi": 63,
      "hit": false,
      "t": 264999.9734999975,
      "d": 1111.1110000000335,
      "v": 68
    },
    {
      "midi": 55,
      "hit": false,
      "t": 265555.52899999794,
      "d": 1111.1109999999753,
      "v": 54
    },
    {
      "midi": 59,
      "hit": false,
      "t": 266111.08449999755,
      "d": 555.5555000000168,
      "v": 34
    },
    {
      "midi": 61,
      "hit": false,
      "t": 266111.08449999755,
      "d": 555.5555000000168,
      "v": 53
    },
    {
      "midi": 54,
      "hit": false,
      "t": 266666.63999999757,
      "d": 555.5555000000168,
      "v": 54
    },
    {
      "midi": 64,
      "hit": false,
      "t": 266666.63999999757,
      "d": 555.5555000000168,
      "v": 58
    },
    {
      "midi": 59,
      "hit": false,
      "t": 267222.1954999976,
      "d": 555.5555000000168,
      "v": 37
    },
    {
      "midi": 63,
      "hit": false,
      "t": 267222.1954999976,
      "d": 555.5555000000168,
      "v": 57
    },
    {
      "midi": 54,
      "hit": false,
      "t": 267777.7509999976,
      "d": 555.5555000000168,
      "v": 40
    },
    {
      "midi": 64,
      "hit": false,
      "t": 267777.7509999976,
      "d": 555.5555000000168,
      "v": 61
    },
    {
      "midi": 59,
      "hit": false,
      "t": 268333.3064999976,
      "d": 555.5555000000168,
      "v": 39
    },
    {
      "midi": 63,
      "hit": false,
      "t": 268333.3064999976,
      "d": 555.5555000000168,
      "v": 61
    },
    {
      "midi": 54,
      "hit": false,
      "t": 268888.86199999764,
      "d": 555.5555000000168,
      "v": 43
    },
    {
      "midi": 64,
      "hit": false,
      "t": 268888.86199999764,
      "d": 555.5555000000168,
      "v": 50
    },
    {
      "midi": 61,
      "hit": false,
      "t": 269444.41749999765,
      "d": 555.5555000000168,
      "v": 42
    },
    {
      "midi": 63,
      "hit": false,
      "t": 269444.41749999765,
      "d": 555.5555000000168,
      "v": 53
    },
    {
      "midi": 54,
      "hit": false,
      "t": 269999.97299999767,
      "d": 555.5555000000168,
      "v": 38
    },
    {
      "midi": 64,
      "hit": false,
      "t": 269999.97299999767,
      "d": 555.5555000000168,
      "v": 49
    },
    {
      "midi": 42,
      "hit": false,
      "t": 269999.9729999979,
      "d": 277.7777500000084,
      "v": 61
    },
    {
      "midi": 44,
      "hit": false,
      "t": 270277.7507499979,
      "d": 555.5555000000168,
      "v": 63
    },
    {
      "midi": 61,
      "hit": false,
      "t": 270555.5284999977,
      "d": 555.5555000000168,
      "v": 37
    },
    {
      "midi": 63,
      "hit": false,
      "t": 270555.5284999977,
      "d": 555.5555000000168,
      "v": 57
    },
    {
      "midi": 42,
      "hit": false,
      "t": 270833.3062499979,
      "d": 277.7777500000084,
      "v": 63
    },
    {
      "midi": 54,
      "hit": false,
      "t": 271111.0839999977,
      "d": 555.5555000000168,
      "v": 42
    },
    {
      "midi": 64,
      "hit": false,
      "t": 271111.0839999977,
      "d": 555.5555000000168,
      "v": 53
    },
    {
      "midi": 35,
      "hit": false,
      "t": 271111.08399999794,
      "d": 2222.222000000009,
      "v": 62
    },
    {
      "midi": 57,
      "hit": false,
      "t": 271666.6394999977,
      "d": 555.5555000000168,
      "v": 38
    },
    {
      "midi": 63,
      "hit": false,
      "t": 271666.6394999977,
      "d": 555.5555000000168,
      "v": 54
    },
    {
      "midi": 54,
      "hit": false,
      "t": 272222.19499999774,
      "d": 555.5555000000168,
      "v": 44
    },
    {
      "midi": 64,
      "hit": false,
      "t": 272222.19499999774,
      "d": 555.5555000000168,
      "v": 49
    },
    {
      "midi": 57,
      "hit": false,
      "t": 272777.75049999775,
      "d": 555.5555000000168,
      "v": 37
    },
    {
      "midi": 63,
      "hit": false,
      "t": 272777.75049999775,
      "d": 555.5555000000168,
      "v": 53
    },
    {
      "midi": 54,
      "hit": false,
      "t": 273333.30599999777,
      "d": 555.5555000000168,
      "v": 38
    },
    {
      "midi": 64,
      "hit": false,
      "t": 273333.30599999777,
      "d": 555.5555000000168,
      "v": 50
    },
    {
      "midi": 59,
      "hit": false,
      "t": 273888.8614999978,
      "d": 555.5555000000168,
      "v": 39
    },
    {
      "midi": 63,
      "hit": false,
      "t": 273888.8614999978,
      "d": 555.5555000000168,
      "v": 54
    },
    {
      "midi": 54,
      "hit": false,
      "t": 274444.4169999978,
      "d": 555.5555000000168,
      "v": 39
    },
    {
      "midi": 61,
      "hit": false,
      "t": 274444.4169999978,
      "d": 555.5555000000168,
      "v": 54
    },
    {
      "midi": 59,
      "hit": false,
      "t": 274999.9724999978,
      "d": 555.5555000000168,
      "v": 36
    },
    {
      "midi": 63,
      "hit": false,
      "t": 274999.9724999978,
      "d": 555.5555000000168,
      "v": 57
    },
    {
      "midi": 56,
      "hit": false,
      "t": 275555.52799999784,
      "d": 555.5555000000168,
      "v": 37
    },
    {
      "midi": 64,
      "hit": false,
      "t": 275555.52799999784,
      "d": 555.5555000000168,
      "v": 63
    },
    {
      "midi": 40,
      "hit": false,
      "t": 275555.52799999795,
      "d": 555.5555000000168,
      "v": 49
    },
    {
      "midi": 59,
      "hit": false,
      "t": 276111.08349999785,
      "d": 555.5555000000168,
      "v": 36
    },
    {
      "midi": 47,
      "hit": false,
      "t": 276111.08349999797,
      "d": 1111.1109999999753,
      "v": 49
    },
    {
      "midi": 56,
      "hit": false,
      "t": 276666.6389999979,
      "d": 555.5555000000168,
      "v": 38
    },
    {
      "midi": 63,
      "hit": false,
      "t": 276666.6389999979,
      "d": 555.5555000000168,
      "v": 59
    },
    {
      "midi": 59,
      "hit": false,
      "t": 277222.1944999979,
      "d": 555.5555000000168,
      "v": 35
    },
    {
      "midi": 64,
      "hit": false,
      "t": 277222.1944999979,
      "d": 555.5555000000168,
      "v": 59
    },
    {
      "midi": 47,
      "hit": false,
      "t": 277222.19449999795,
      "d": 555.5555000000168,
      "v": 49
    },
    {
      "midi": 57,
      "hit": false,
      "t": 277777.7499999979,
      "d": 555.5555000000168,
      "v": 38
    },
    {
      "midi": 63,
      "hit": false,
      "t": 277777.7499999979,
      "d": 555.5555000000168,
      "v": 46
    },
    {
      "midi": 66,
      "hit": false,
      "t": 277777.7499999979,
      "d": 555.5555000000168,
      "v": 65
    },
    {
      "midi": 35,
      "hit": false,
      "t": 277777.74999999796,
      "d": 555.5555000000168,
      "v": 50
    },
    {
      "midi": 59,
      "hit": false,
      "t": 278333.3054999979,
      "d": 555.5555000000168,
      "v": 34
    },
    {
      "midi": 47,
      "hit": false,
      "t": 278333.305499998,
      "d": 1111.1109999999753,
      "v": 47
    },
    {
      "midi": 57,
      "hit": false,
      "t": 278888.86099999794,
      "d": 555.5555000000168,
      "v": 38
    },
    {
      "midi": 59,
      "hit": false,
      "t": 279444.41649999795,
      "d": 555.5555000000168,
      "v": 36
    },
    {
      "midi": 47,
      "hit": false,
      "t": 279444.41649999795,
      "d": 555.5555000000168,
      "v": 50
    },
    {
      "midi": 57,
      "hit": false,
      "t": 279999.971999998,
      "d": 555.5555000000168,
      "v": 35
    },
    {
      "midi": 35,
      "hit": false,
      "t": 279999.971999998,
      "d": 555.5555000000168,
      "v": 49
    },
    {
      "midi": 59,
      "hit": false,
      "t": 280555.527499998,
      "d": 555.5555000000168,
      "v": 35
    },
    {
      "midi": 68,
      "hit": false,
      "t": 280555.527499998,
      "d": 555.5555000000168,
      "v": 66
    },
    {
      "midi": 47,
      "hit": false,
      "t": 280555.527499998,
      "d": 1111.1109999999753,
      "v": 50
    },
    {
      "midi": 57,
      "hit": false,
      "t": 281111.082999998,
      "d": 555.5555000000168,
      "v": 37
    },
    {
      "midi": 63,
      "hit": false,
      "t": 281111.082999998,
      "d": 555.5555000000168,
      "v": 49
    },
    {
      "midi": 68,
      "hit": false,
      "t": 281111.082999998,
      "d": 555.5555000000168,
      "v": 61
    },
    {
      "midi": 47,
      "hit": false,
      "t": 281666.63849999796,
      "d": 555.5555000000168,
      "v": 49
    },
    {
      "midi": 59,
      "hit": false,
      "t": 281666.638499998,
      "d": 555.5555000000168,
      "v": 38
    },
    {
      "midi": 66,
      "hit": false,
      "t": 281666.638499998,
      "d": 555.5555000000168,
      "v": 59
    },
    {
      "midi": 40,
      "hit": false,
      "t": 282222.193999998,
      "d": 555.5555000000168,
      "v": 48
    },
    {
      "midi": 56,
      "hit": false,
      "t": 282222.19399999804,
      "d": 555.5555000000168,
      "v": 39
    },
    {
      "midi": 64,
      "hit": false,
      "t": 282222.19399999804,
      "d": 555.5555000000168,
      "v": 47
    },
    {
      "midi": 68,
      "hit": false,
      "t": 282222.19399999804,
      "d": 555.5555000000168,
      "v": 65
    },
    {
      "midi": 47,
      "hit": false,
      "t": 282777.749499998,
      "d": 1111.1109999999753,
      "v": 48
    },
    {
      "midi": 59,
      "hit": false,
      "t": 282777.74949999806,
      "d": 555.5555000000168,
      "v": 39
    },
    {
      "midi": 56,
      "hit": false,
      "t": 283333.3049999981,
      "d": 555.5555000000168,
      "v": 40
    },
    {
      "midi": 47,
      "hit": false,
      "t": 283888.860499998,
      "d": 555.5555000000168,
      "v": 46
    },
    {
      "midi": 59,
      "hit": false,
      "t": 283888.8604999981,
      "d": 555.5555000000168,
      "v": 41
    },
    {
      "midi": 40,
      "hit": false,
      "t": 284444.415999998,
      "d": 555.5555000000168,
      "v": 48
    },
    {
      "midi": 56,
      "hit": false,
      "t": 284444.4159999981,
      "d": 555.5555000000168,
      "v": 46
    },
    {
      "midi": 47,
      "hit": false,
      "t": 284999.971499998,
      "d": 1111.1109999999753,
      "v": 52
    },
    {
      "midi": 64,
      "hit": false,
      "t": 284999.9714999981,
      "d": 555.5555000000168,
      "v": 44
    },
    {
      "midi": 69,
      "hit": false,
      "t": 284999.9714999981,
      "d": 555.5555000000168,
      "v": 63
    },
    {
      "midi": 59,
      "hit": false,
      "t": 285555.52699999814,
      "d": 555.5555000000168,
      "v": 43
    },
    {
      "midi": 69,
      "hit": false,
      "t": 285555.52699999814,
      "d": 555.5555000000168,
      "v": 63
    },
    {
      "midi": 47,
      "hit": false,
      "t": 286111.082499998,
      "d": 555.5555000000168,
      "v": 51
    },
    {
      "midi": 64,
      "hit": false,
      "t": 286111.08249999816,
      "d": 555.5555000000168,
      "v": 39
    },
    {
      "midi": 68,
      "hit": false,
      "t": 286111.08249999816,
      "d": 555.5555000000168,
      "v": 63
    },
    {
      "midi": 35,
      "hit": false,
      "t": 286666.637999998,
      "d": 555.5555000000168,
      "v": 47
    },
    {
      "midi": 63,
      "hit": false,
      "t": 286666.6379999982,
      "d": 555.5555000000168,
      "v": 40
    },
    {
      "midi": 73,
      "hit": false,
      "t": 286666.6379999982,
      "d": 555.5555000000168,
      "v": 64
    },
    {
      "midi": 47,
      "hit": false,
      "t": 287222.193499998,
      "d": 1111.1109999999753,
      "v": 47
    },
    {
      "midi": 69,
      "hit": false,
      "t": 287222.1934999982,
      "d": 555.5555000000168,
      "v": 37
    },
    {
      "midi": 59,
      "hit": false,
      "t": 287777.7489999982,
      "d": 555.5555000000168,
      "v": 34
    },
    {
      "midi": 47,
      "hit": false,
      "t": 288333.304499998,
      "d": 555.5555000000168,
      "v": 48
    },
    {
      "midi": 63,
      "hit": false,
      "t": 288333.3044999982,
      "d": 555.5555000000168,
      "v": 39
    },
    {
      "midi": 71,
      "hit": false,
      "t": 288333.3044999982,
      "d": 555.5555000000168,
      "v": 65
    },
    {
      "midi": 40,
      "hit": false,
      "t": 288888.859999998,
      "d": 555.5555000000168,
      "v": 51
    },
    {
      "midi": 59,
      "hit": false,
      "t": 288888.85999999824,
      "d": 555.5555000000168,
      "v": 36
    },
    {
      "midi": 69,
      "hit": false,
      "t": 288888.85999999824,
      "d": 555.5555000000168,
      "v": 56
    },
    {
      "midi": 47,
      "hit": false,
      "t": 289444.415499998,
      "d": 1111.1109999999753,
      "v": 46
    },
    {
      "midi": 64,
      "hit": false,
      "t": 289444.41549999826,
      "d": 555.5555000000168,
      "v": 38
    },
    {
      "midi": 68,
      "hit": false,
      "t": 289444.41549999826,
      "d": 555.5555000000168,
      "v": 55
    },
    {
      "midi": 56,
      "hit": false,
      "t": 289999.9709999983,
      "d": 555.5555000000168,
      "v": 34
    },
    {
      "midi": 63,
      "hit": false,
      "t": 289999.9709999983,
      "d": 555.5555000000168,
      "v": 60
    },
    {
      "midi": 47,
      "hit": false,
      "t": 290555.526499998,
      "d": 555.5555000000168,
      "v": 49
    },
    {
      "midi": 59,
      "hit": false,
      "t": 290555.5264999983,
      "d": 555.5555000000168,
      "v": 32
    },
    {
      "midi": 64,
      "hit": false,
      "t": 290555.5264999983,
      "d": 555.5555000000168,
      "v": 59
    },
    {
      "midi": 35,
      "hit": false,
      "t": 291111.081999998,
      "d": 555.5555000000168,
      "v": 48
    },
    {
      "midi": 57,
      "hit": false,
      "t": 291111.0819999983,
      "d": 555.5555000000168,
      "v": 39
    },
    {
      "midi": 61,
      "hit": false,
      "t": 291111.0819999983,
      "d": 555.5555000000168,
      "v": 39
    },
    {
      "midi": 66,
      "hit": false,
      "t": 291111.0819999983,
      "d": 555.5555000000168,
      "v": 62
    },
    {
      "midi": 47,
      "hit": false,
      "t": 291666.63749999803,
      "d": 1111.1109999999753,
      "v": 45
    },
    {
      "midi": 59,
      "hit": false,
      "t": 291666.6374999983,
      "d": 555.5555000000168,
      "v": 40
    },
    {
      "midi": 63,
      "hit": false,
      "t": 291666.6374999983,
      "d": 555.5555000000168,
      "v": 40
    },
    {
      "midi": 57,
      "hit": false,
      "t": 292222.19299999834,
      "d": 555.5555000000168,
      "v": 39
    },
    {
      "midi": 61,
      "hit": false,
      "t": 292222.19299999834,
      "d": 555.5555000000168,
      "v": 37
    },
    {
      "midi": 47,
      "hit": false,
      "t": 292777.748499998,
      "d": 555.5555000000168,
      "v": 48
    },
    {
      "midi": 59,
      "hit": false,
      "t": 292777.74849999836,
      "d": 555.5555000000168,
      "v": 42
    },
    {
      "midi": 63,
      "hit": false,
      "t": 292777.74849999836,
      "d": 555.5555000000168,
      "v": 41
    },
    {
      "midi": 35,
      "hit": false,
      "t": 293333.303999998,
      "d": 555.5555000000168,
      "v": 46
    },
    {
      "midi": 57,
      "hit": false,
      "t": 293333.3039999984,
      "d": 555.5555000000168,
      "v": 40
    },
    {
      "midi": 61,
      "hit": false,
      "t": 293333.3039999984,
      "d": 555.5555000000168,
      "v": 40
    },
    {
      "midi": 47,
      "hit": false,
      "t": 293888.85949999804,
      "d": 1111.1109999999753,
      "v": 48
    },
    {
      "midi": 59,
      "hit": false,
      "t": 293888.8594999984,
      "d": 555.5555000000168,
      "v": 40
    },
    {
      "midi": 63,
      "hit": false,
      "t": 293888.8594999984,
      "d": 555.5555000000168,
      "v": 40
    },
    {
      "midi": 68,
      "hit": false,
      "t": 293888.8594999984,
      "d": 555.5555000000168,
      "v": 62
    },
    {
      "midi": 57,
      "hit": false,
      "t": 294444.4149999984,
      "d": 555.5555000000168,
      "v": 41
    },
    {
      "midi": 61,
      "hit": false,
      "t": 294444.4149999984,
      "d": 555.5555000000168,
      "v": 41
    },
    {
      "midi": 68,
      "hit": false,
      "t": 294444.4149999984,
      "d": 555.5555000000168,
      "v": 69
    },
    {
      "midi": 47,
      "hit": false,
      "t": 294999.970499998,
      "d": 555.5555000000168,
      "v": 47
    },
    {
      "midi": 59,
      "hit": false,
      "t": 294999.9704999984,
      "d": 555.5555000000168,
      "v": 38
    },
    {
      "midi": 63,
      "hit": false,
      "t": 294999.9704999984,
      "d": 555.5555000000168,
      "v": 38
    },
    {
      "midi": 66,
      "hit": false,
      "t": 294999.9704999984,
      "d": 555.5555000000168,
      "v": 64
    },
    {
      "midi": 40,
      "hit": false,
      "t": 295555.52599999803,
      "d": 555.5555000000168,
      "v": 47
    },
    {
      "midi": 56,
      "hit": false,
      "t": 295555.52599999844,
      "d": 555.5555000000168,
      "v": 42
    },
    {
      "midi": 64,
      "hit": false,
      "t": 295555.52599999844,
      "d": 555.5555000000168,
      "v": 59
    },
    {
      "midi": 47,
      "hit": false,
      "t": 296111.08149999805,
      "d": 1111.1109999999753,
      "v": 47
    },
    {
      "midi": 59,
      "hit": false,
      "t": 296111.08149999846,
      "d": 555.5555000000168,
      "v": 41
    },
    {
      "midi": 56,
      "hit": false,
      "t": 296666.6369999985,
      "d": 555.5555000000168,
      "v": 43
    },
    {
      "midi": 47,
      "hit": false,
      "t": 297222.192499998,
      "d": 555.5555000000168,
      "v": 47
    },
    {
      "midi": 59,
      "hit": false,
      "t": 297222.1924999985,
      "d": 555.5555000000168,
      "v": 39
    },
    {
      "midi": 40,
      "hit": false,
      "t": 297777.74799999804,
      "d": 555.5555000000168,
      "v": 48
    },
    {
      "midi": 62,
      "hit": false,
      "t": 297777.7479999985,
      "d": 555.5555000000168,
      "v": 43
    },
    {
      "midi": 66,
      "hit": false,
      "t": 297777.7479999985,
      "d": 555.5555000000168,
      "v": 43
    },
    {
      "midi": 71,
      "hit": false,
      "t": 297777.7479999985,
      "d": 555.5555000000168,
      "v": 77
    },
    {
      "midi": 52,
      "hit": false,
      "t": 298333.30349999806,
      "d": 1111.1109999999753,
      "v": 48
    },
    {
      "midi": 64,
      "hit": false,
      "t": 298333.3034999985,
      "d": 555.5555000000168,
      "v": 46
    },
    {
      "midi": 68,
      "hit": false,
      "t": 298333.3034999985,
      "d": 555.5555000000168,
      "v": 46
    },
    {
      "midi": 73,
      "hit": false,
      "t": 298333.3034999985,
      "d": 555.5555000000168,
      "v": 63
    },
    {
      "midi": 62,
      "hit": false,
      "t": 298888.85899999854,
      "d": 555.5555000000168,
      "v": 47
    },
    {
      "midi": 66,
      "hit": false,
      "t": 298888.85899999854,
      "d": 555.5555000000168,
      "v": 47
    },
    {
      "midi": 73,
      "hit": false,
      "t": 298888.85899999854,
      "d": 555.5555000000168,
      "v": 64
    },
    {
      "midi": 52,
      "hit": false,
      "t": 299444.41449999803,
      "d": 555.5555000000168,
      "v": 48
    },
    {
      "midi": 64,
      "hit": false,
      "t": 299444.41449999856,
      "d": 555.5555000000168,
      "v": 47
    },
    {
      "midi": 68,
      "hit": false,
      "t": 299444.41449999856,
      "d": 555.5555000000168,
      "v": 47
    },
    {
      "midi": 71,
      "hit": false,
      "t": 299444.41449999856,
      "d": 555.5555000000168,
      "v": 61
    },
    {
      "midi": 45,
      "hit": false,
      "t": 299999.96999999805,
      "d": 555.5555000000168,
      "v": 47
    },
    {
      "midi": 61,
      "hit": false,
      "t": 299999.9699999986,
      "d": 555.5555000000168,
      "v": 48
    },
    {
      "midi": 69,
      "hit": false,
      "t": 299999.9699999986,
      "d": 555.5555000000168,
      "v": 68
    },
    {
      "midi": 52,
      "hit": false,
      "t": 300555.52549999807,
      "d": 1111.1109999999753,
      "v": 46
    },
    {
      "midi": 64,
      "hit": false,
      "t": 300555.5254999986,
      "d": 555.5555000000168,
      "v": 47
    },
    {
      "midi": 71,
      "hit": false,
      "t": 300555.5254999986,
      "d": 555.5555000000168,
      "v": 70
    },
    {
      "midi": 61,
      "hit": false,
      "t": 301111.0809999986,
      "d": 555.5555000000168,
      "v": 47
    },
    {
      "midi": 68,
      "hit": false,
      "t": 301111.0809999986,
      "d": 555.5555000000168,
      "v": 66
    },
    {
      "midi": 52,
      "hit": false,
      "t": 301666.63649999804,
      "d": 555.5555000000168,
      "v": 49
    },
    {
      "midi": 64,
      "hit": false,
      "t": 301666.6364999986,
      "d": 555.5555000000168,
      "v": 47
    },
    {
      "midi": 69,
      "hit": false,
      "t": 301666.6364999986,
      "d": 555.5555000000168,
      "v": 63
    },
    {
      "midi": 44,
      "hit": false,
      "t": 302222.19199999806,
      "d": 555.5555000000168,
      "v": 51
    },
    {
      "midi": 66,
      "hit": false,
      "t": 302222.19199999864,
      "d": 555.5555000000168,
      "v": 47
    },
    {
      "midi": 72,
      "hit": false,
      "t": 302222.19199999864,
      "d": 555.5555000000168,
      "v": 47
    },
    {
      "midi": 75,
      "hit": false,
      "t": 302222.19199999864,
      "d": 555.5555000000168,
      "v": 68
    },
    {
      "midi": 56,
      "hit": false,
      "t": 302777.7474999981,
      "d": 1111.1109999999753,
      "v": 51
    },
    {
      "midi": 68,
      "hit": false,
      "t": 302777.74749999866,
      "d": 555.5555000000168,
      "v": 48
    },
    {
      "midi": 76,
      "hit": false,
      "t": 302777.74749999866,
      "d": 555.5555000000168,
      "v": 71
    },
    {
      "midi": 66,
      "hit": false,
      "t": 303333.3029999987,
      "d": 555.5555000000168,
      "v": 50
    },
    {
      "midi": 70,
      "hit": false,
      "t": 303333.3029999987,
      "d": 555.5555000000168,
      "v": 50
    },
    {
      "midi": 76,
      "hit": false,
      "t": 303333.3029999987,
      "d": 555.5555000000168,
      "v": 73
    },
    {
      "midi": 56,
      "hit": false,
      "t": 303888.85849999805,
      "d": 555.5555000000168,
      "v": 48
    },
    {
      "midi": 68,
      "hit": false,
      "t": 303888.8584999987,
      "d": 555.5555000000168,
      "v": 48
    },
    {
      "midi": 72,
      "hit": false,
      "t": 303888.8584999987,
      "d": 555.5555000000168,
      "v": 48
    },
    {
      "midi": 75,
      "hit": false,
      "t": 303888.8584999987,
      "d": 555.5555000000168,
      "v": 69
    },
    {
      "midi": 49,
      "hit": false,
      "t": 304444.41399999807,
      "d": 555.5555000000168,
      "v": 48
    },
    {
      "midi": 64,
      "hit": false,
      "t": 304444.4139999987,
      "d": 555.5555000000168,
      "v": 42
    },
    {
      "midi": 73,
      "hit": false,
      "t": 304444.4139999987,
      "d": 555.5555000000168,
      "v": 58
    },
    {
      "midi": 56,
      "hit": false,
      "t": 304999.9694999981,
      "d": 1111.1109999999753,
      "v": 48
    },
    {
      "midi": 68,
      "hit": false,
      "t": 304999.9694999987,
      "d": 555.5555000000168,
      "v": 42
    },
    {
      "midi": 75,
      "hit": false,
      "t": 304999.9694999987,
      "d": 555.5555000000168,
      "v": 61
    },
    {
      "midi": 64,
      "hit": false,
      "t": 305555.52499999874,
      "d": 555.5555000000168,
      "v": 39
    },
    {
      "midi": 72,
      "hit": false,
      "t": 305555.52499999874,
      "d": 555.5555000000168,
      "v": 62
    },
    {
      "midi": 56,
      "hit": false,
      "t": 306111.08049999806,
      "d": 555.5555000000168,
      "v": 49
    },
    {
      "midi": 68,
      "hit": false,
      "t": 306111.08049999876,
      "d": 555.5555000000168,
      "v": 39
    },
    {
      "midi": 73,
      "hit": false,
      "t": 306111.08049999876,
      "d": 555.5555000000168,
      "v": 58
    },
    {
      "midi": 49,
      "hit": false,
      "t": 306666.6359999981,
      "d": 555.5555000000168,
      "v": 32
    },
    {
      "midi": 52,
      "hit": false,
      "t": 306666.6359999981,
      "d": 555.5555000000168,
      "v": 51
    },
    {
      "midi": 54,
      "hit": false,
      "t": 306666.6359999981,
      "d": 555.5555000000168,
      "v": 51
    },
    {
      "midi": 58,
      "hit": false,
      "t": 306666.6359999981,
      "d": 555.5555000000168,
      "v": 38
    },
    {
      "midi": 64,
      "hit": false,
      "t": 306666.6359999988,
      "d": 555.5555000000168,
      "v": 63
    },
    {
      "midi": 70,
      "hit": false,
      "t": 306666.6359999988,
      "d": 555.5555000000168,
      "v": 43
    },
    {
      "midi": 76,
      "hit": false,
      "t": 306666.6359999988,
      "d": 555.5555000000168,
      "v": 72
    },
    {
      "midi": 49,
      "hit": false,
      "t": 307222.1914999981,
      "d": 555.5555000000168,
      "v": 48
    },
    {
      "midi": 52,
      "hit": false,
      "t": 307222.1914999981,
      "d": 555.5555000000168,
      "v": 59
    },
    {
      "midi": 54,
      "hit": false,
      "t": 307222.1914999981,
      "d": 555.5555000000168,
      "v": 58
    },
    {
      "midi": 58,
      "hit": false,
      "t": 307222.1914999981,
      "d": 555.5555000000168,
      "v": 48
    },
    {
      "midi": 66,
      "hit": false,
      "t": 307222.1914999988,
      "d": 555.5555000000168,
      "v": 69
    },
    {
      "midi": 70,
      "hit": false,
      "t": 307222.1914999988,
      "d": 555.5555000000168,
      "v": 49
    },
    {
      "midi": 78,
      "hit": false,
      "t": 307222.1914999988,
      "d": 555.5555000000168,
      "v": 75
    },
    {
      "midi": 49,
      "hit": false,
      "t": 307777.7469999981,
      "d": 555.5555000000168,
      "v": 52
    },
    {
      "midi": 52,
      "hit": false,
      "t": 307777.7469999981,
      "d": 555.5555000000168,
      "v": 61
    },
    {
      "midi": 54,
      "hit": false,
      "t": 307777.7469999981,
      "d": 555.5555000000168,
      "v": 58
    },
    {
      "midi": 58,
      "hit": false,
      "t": 307777.7469999981,
      "d": 555.5555000000168,
      "v": 52
    },
    {
      "midi": 63,
      "hit": false,
      "t": 307777.7469999988,
      "d": 555.5555000000168,
      "v": 71
    },
    {
      "midi": 70,
      "hit": false,
      "t": 307777.7469999988,
      "d": 555.5555000000168,
      "v": 51
    },
    {
      "midi": 75,
      "hit": false,
      "t": 307777.7469999988,
      "d": 555.5555000000168,
      "v": 77
    },
    {
      "midi": 49,
      "hit": false,
      "t": 308333.3024999981,
      "d": 555.5555000000168,
      "v": 55
    },
    {
      "midi": 52,
      "hit": false,
      "t": 308333.3024999981,
      "d": 555.5555000000168,
      "v": 60
    },
    {
      "midi": 54,
      "hit": false,
      "t": 308333.3024999981,
      "d": 555.5555000000168,
      "v": 64
    },
    {
      "midi": 58,
      "hit": false,
      "t": 308333.3024999981,
      "d": 555.5555000000168,
      "v": 54
    },
    {
      "midi": 64,
      "hit": false,
      "t": 308333.3024999988,
      "d": 555.5555000000168,
      "v": 74
    },
    {
      "midi": 70,
      "hit": false,
      "t": 308333.3024999988,
      "d": 555.5555000000168,
      "v": 54
    },
    {
      "midi": 76,
      "hit": false,
      "t": 308333.3024999988,
      "d": 555.5555000000168,
      "v": 79
    },
    {
      "midi": 48,
      "hit": false,
      "t": 308888.85799999814,
      "d": 555.5555000000168,
      "v": 60
    },
    {
      "midi": 52,
      "hit": false,
      "t": 308888.85799999814,
      "d": 555.5555000000168,
      "v": 62
    },
    {
      "midi": 54,
      "hit": false,
      "t": 308888.85799999814,
      "d": 555.5555000000168,
      "v": 65
    },
    {
      "midi": 58,
      "hit": false,
      "t": 308888.85799999814,
      "d": 555.5555000000168,
      "v": 58
    },
    {
      "midi": 66,
      "hit": false,
      "t": 308888.85799999884,
      "d": 555.5555000000168,
      "v": 74
    },
    {
      "midi": 70,
      "hit": false,
      "t": 308888.85799999884,
      "d": 555.5555000000168,
      "v": 54
    },
    {
      "midi": 78,
      "hit": false,
      "t": 308888.85799999884,
      "d": 555.5555000000168,
      "v": 84
    },
    {
      "midi": 48,
      "hit": false,
      "t": 309444.41349999816,
      "d": 555.5555000000168,
      "v": 60
    },
    {
      "midi": 52,
      "hit": false,
      "t": 309444.41349999816,
      "d": 555.5555000000168,
      "v": 65
    },
    {
      "midi": 54,
      "hit": false,
      "t": 309444.41349999816,
      "d": 555.5555000000168,
      "v": 71
    },
    {
      "midi": 58,
      "hit": false,
      "t": 309444.41349999816,
      "d": 555.5555000000168,
      "v": 69
    },
    {
      "midi": 68,
      "hit": false,
      "t": 309444.41349999886,
      "d": 555.5555000000168,
      "v": 77
    },
    {
      "midi": 70,
      "hit": false,
      "t": 309444.41349999886,
      "d": 555.5555000000168,
      "v": 57
    },
    {
      "midi": 80,
      "hit": false,
      "t": 309444.41349999886,
      "d": 555.5555000000168,
      "v": 87
    },
    {
      "midi": 48,
      "hit": false,
      "t": 309999.9689999982,
      "d": 555.5555000000168,
      "v": 69
    },
    {
      "midi": 52,
      "hit": false,
      "t": 309999.9689999982,
      "d": 555.5555000000168,
      "v": 66
    },
    {
      "midi": 54,
      "hit": false,
      "t": 309999.9689999982,
      "d": 555.5555000000168,
      "v": 78
    },
    {
      "midi": 58,
      "hit": false,
      "t": 309999.9689999982,
      "d": 555.5555000000168,
      "v": 73
    },
    {
      "midi": 64,
      "hit": false,
      "t": 309999.9689999989,
      "d": 555.5555000000168,
      "v": 83
    },
    {
      "midi": 70,
      "hit": false,
      "t": 309999.9689999989,
      "d": 555.5555000000168,
      "v": 64
    },
    {
      "midi": 76,
      "hit": false,
      "t": 309999.9689999989,
      "d": 555.5555000000168,
      "v": 90
    },
    {
      "midi": 48,
      "hit": false,
      "t": 310555.5244999982,
      "d": 555.5555000000168,
      "v": 73
    },
    {
      "midi": 52,
      "hit": false,
      "t": 310555.5244999982,
      "d": 555.5555000000168,
      "v": 70
    },
    {
      "midi": 54,
      "hit": false,
      "t": 310555.5244999982,
      "d": 555.5555000000168,
      "v": 79
    },
    {
      "midi": 58,
      "hit": false,
      "t": 310555.5244999982,
      "d": 555.5555000000168,
      "v": 75
    },
    {
      "midi": 66,
      "hit": false,
      "t": 310555.5244999989,
      "d": 555.5555000000168,
      "v": 85
    },
    {
      "midi": 70,
      "hit": false,
      "t": 310555.5244999989,
      "d": 555.5555000000168,
      "v": 65
    },
    {
      "midi": 78,
      "hit": false,
      "t": 310555.5244999989,
      "d": 555.5555000000168,
      "v": 93
    },
    {
      "midi": 47,
      "hit": false,
      "t": 311111.0799999982,
      "d": 4444.444000000018,
      "v": 71
    },
    {
      "midi": 52,
      "hit": false,
      "t": 311111.0799999982,
      "d": 4444.444000000018,
      "v": 77
    },
    {
      "midi": 56,
      "hit": false,
      "t": 311111.0799999982,
      "d": 4444.444000000018,
      "v": 83
    },
    {
      "midi": 59,
      "hit": false,
      "t": 311111.0799999982,
      "d": 4444.444000000018,
      "v": 81
    },
    {
      "midi": 68,
      "hit": false,
      "t": 311111.0799999989,
      "d": 555.5555000000168,
      "v": 54
    },
    {
      "midi": 76,
      "hit": false,
      "t": 311111.0799999989,
      "d": 555.5555000000168,
      "v": 66
    },
    {
      "midi": 80,
      "hit": false,
      "t": 311111.0799999989,
      "d": 555.5555000000168,
      "v": 97
    },
    {
      "midi": 71,
      "hit": false,
      "t": 311666.6354999989,
      "d": 555.5555000000168,
      "v": 53
    },
    {
      "midi": 68,
      "hit": false,
      "t": 312222.19099999894,
      "d": 555.5555000000168,
      "v": 52
    },
    {
      "midi": 71,
      "hit": false,
      "t": 312777.74649999896,
      "d": 555.5555000000168,
      "v": 54
    },
    {
      "midi": 68,
      "hit": false,
      "t": 313333.301999999,
      "d": 555.5555000000168,
      "v": 50
    },
    {
      "midi": 71,
      "hit": false,
      "t": 313888.857499999,
      "d": 555.5555000000168,
      "v": 50
    },
    {
      "midi": 78,
      "hit": false,
      "t": 313888.857499999,
      "d": 555.5555000000168,
      "v": 68
    },
    {
      "midi": 68,
      "hit": false,
      "t": 314444.412999999,
      "d": 555.5555000000168,
      "v": 53
    },
    {
      "midi": 76,
      "hit": false,
      "t": 314444.412999999,
      "d": 555.5555000000168,
      "v": 68
    },
    {
      "midi": 71,
      "hit": false,
      "t": 314999.968499999,
      "d": 555.5555000000168,
      "v": 51
    },
    {
      "midi": 73,
      "hit": false,
      "t": 314999.968499999,
      "d": 555.5555000000168,
      "v": 71
    },
    {
      "midi": 54,
      "hit": false,
      "t": 315555.52399999823,
      "d": 555.5555000000168,
      "v": 51
    },
    {
      "midi": 63,
      "hit": false,
      "t": 315555.52399999904,
      "d": 555.5555000000168,
      "v": 51
    },
    {
      "midi": 75,
      "hit": false,
      "t": 315555.52399999904,
      "d": 555.5555000000168,
      "v": 73
    },
    {
      "midi": 59,
      "hit": false,
      "t": 316111.07949999825,
      "d": 555.5555000000168,
      "v": 50
    },
    {
      "midi": 66,
      "hit": false,
      "t": 316111.07949999906,
      "d": 555.5555000000168,
      "v": 51
    },
    {
      "midi": 47,
      "hit": false,
      "t": 316666.63499999826,
      "d": 555.5555000000168,
      "v": 53
    },
    {
      "midi": 63,
      "hit": false,
      "t": 316666.6349999991,
      "d": 555.5555000000168,
      "v": 49
    },
    {
      "midi": 59,
      "hit": false,
      "t": 317222.1904999983,
      "d": 555.5555000000168,
      "v": 50
    },
    {
      "midi": 66,
      "hit": false,
      "t": 317222.1904999991,
      "d": 555.5555000000168,
      "v": 48
    },
    {
      "midi": 49,
      "hit": false,
      "t": 317777.7459999983,
      "d": 555.5555000000168,
      "v": 50
    },
    {
      "midi": 64,
      "hit": false,
      "t": 317777.7459999991,
      "d": 555.5555000000168,
      "v": 47
    },
    {
      "midi": 76,
      "hit": false,
      "t": 317777.7459999991,
      "d": 555.5555000000168,
      "v": 63
    },
    {
      "midi": 56,
      "hit": false,
      "t": 318333.3014999983,
      "d": 555.5555000000168,
      "v": 48
    },
    {
      "midi": 68,
      "hit": false,
      "t": 318333.3014999991,
      "d": 555.5555000000168,
      "v": 48
    },
    {
      "midi": 75,
      "hit": false,
      "t": 318333.3014999991,
      "d": 555.5555000000168,
      "v": 63
    },
    {
      "midi": 44,
      "hit": false,
      "t": 318888.85699999833,
      "d": 555.5555000000168,
      "v": 49
    },
    {
      "midi": 64,
      "hit": false,
      "t": 318888.85699999915,
      "d": 555.5555000000168,
      "v": 47
    },
    {
      "midi": 73,
      "hit": false,
      "t": 318888.85699999915,
      "d": 555.5555000000168,
      "v": 60
    },
    {
      "midi": 56,
      "hit": false,
      "t": 319444.41249999835,
      "d": 555.5555000000168,
      "v": 51
    },
    {
      "midi": 68,
      "hit": false,
      "t": 319444.41249999916,
      "d": 555.5555000000168,
      "v": 60
    },
    {
      "midi": 51,
      "hit": false,
      "t": 319999.96799999836,
      "d": 555.5555000000168,
      "v": 48
    },
    {
      "midi": 59,
      "hit": false,
      "t": 319999.9679999992,
      "d": 555.5555000000168,
      "v": 46
    },
    {
      "midi": 71,
      "hit": false,
      "t": 319999.9679999992,
      "d": 555.5555000000168,
      "v": 57
    },
    {
      "midi": 56,
      "hit": false,
      "t": 320555.5234999984,
      "d": 555.5555000000168,
      "v": 49
    },
    {
      "midi": 63,
      "hit": false,
      "t": 320555.5234999992,
      "d": 555.5555000000168,
      "v": 44
    },
    {
      "midi": 44,
      "hit": false,
      "t": 321111.0789999984,
      "d": 555.5555000000168,
      "v": 49
    },
    {
      "midi": 59,
      "hit": false,
      "t": 321111.0789999992,
      "d": 555.5555000000168,
      "v": 39
    },
    {
      "midi": 56,
      "hit": false,
      "t": 321666.6344999984,
      "d": 555.5555000000168,
      "v": 47
    },
    {
      "midi": 63,
      "hit": false,
      "t": 321666.6344999992,
      "d": 555.5555000000168,
      "v": 40
    },
    {
      "midi": 45,
      "hit": false,
      "t": 322222.18999999843,
      "d": 555.5555000000168,
      "v": 45
    },
    {
      "midi": 61,
      "hit": false,
      "t": 322222.18999999925,
      "d": 555.5555000000168,
      "v": 40
    },
    {
      "midi": 73,
      "hit": false,
      "t": 322222.18999999925,
      "d": 555.5555000000168,
      "v": 59
    },
    {
      "midi": 52,
      "hit": false,
      "t": 322777.74549999845,
      "d": 555.5555000000168,
      "v": 43
    },
    {
      "midi": 64,
      "hit": false,
      "t": 322777.74549999926,
      "d": 555.5555000000168,
      "v": 42
    },
    {
      "midi": 71,
      "hit": false,
      "t": 322777.74549999926,
      "d": 555.5555000000168,
      "v": 57
    },
    {
      "midi": 40,
      "hit": false,
      "t": 323333.30099999846,
      "d": 555.5555000000168,
      "v": 41
    },
    {
      "midi": 61,
      "hit": false,
      "t": 323333.3009999993,
      "d": 555.5555000000168,
      "v": 38
    },
    {
      "midi": 69,
      "hit": false,
      "t": 323333.3009999993,
      "d": 555.5555000000168,
      "v": 55
    },
    {
      "midi": 52,
      "hit": false,
      "t": 323888.8564999985,
      "d": 555.5555000000168,
      "v": 39
    },
    {
      "midi": 64,
      "hit": false,
      "t": 323888.8564999993,
      "d": 555.5555000000168,
      "v": 54
    },
    {
      "midi": 47,
      "hit": false,
      "t": 324444.4119999985,
      "d": 555.5555000000168,
      "v": 53
    },
    {
      "midi": 56,
      "hit": false,
      "t": 324444.4119999993,
      "d": 555.5555000000168,
      "v": 49
    },
    {
      "midi": 68,
      "hit": false,
      "t": 324444.4119999993,
      "d": 555.5555000000168,
      "v": 54
    },
    {
      "midi": 52,
      "hit": false,
      "t": 324999.9674999985,
      "d": 555.5555000000168,
      "v": 38
    },
    {
      "midi": 59,
      "hit": false,
      "t": 324999.96749999933,
      "d": 555.5555000000168,
      "v": 50
    },
    {
      "midi": 40,
      "hit": false,
      "t": 325555.52299999853,
      "d": 555.5555000000168,
      "v": 28
    },
    {
      "midi": 56,
      "hit": false,
      "t": 325555.52299999935,
      "d": 555.5555000000168,
      "v": 43
    },
    {
      "midi": 52,
      "hit": false,
      "t": 326111.07849999855,
      "d": 555.5555000000168,
      "v": 29
    },
    {
      "midi": 59,
      "hit": false,
      "t": 326111.07849999936,
      "d": 555.5555000000168,
      "v": 50
    },
    {
      "midi": 48,
      "hit": false,
      "t": 326666.63399999856,
      "d": 555.5555000000168,
      "v": 22
    },
    {
      "midi": 57,
      "hit": false,
      "t": 326666.6339999994,
      "d": 555.5555000000168,
      "v": 46
    },
    {
      "midi": 52,
      "hit": false,
      "t": 327222.1894999986,
      "d": 555.5555000000168,
      "v": 32
    },
    {
      "midi": 60,
      "hit": false,
      "t": 327222.1894999994,
      "d": 555.5555000000168,
      "v": 32
    },
    {
      "midi": 66,
      "hit": false,
      "t": 327222.1894999994,
      "d": 555.5555000000168,
      "v": 50
    },
    {
      "midi": 40,
      "hit": false,
      "t": 327777.7449999986,
      "d": 555.5555000000168,
      "v": 31
    },
    {
      "midi": 57,
      "hit": false,
      "t": 327777.7449999994,
      "d": 555.5555000000168,
      "v": 36
    },
    {
      "midi": 64,
      "hit": false,
      "t": 327777.7449999994,
      "d": 555.5555000000168,
      "v": 52
    },
    {
      "midi": 52,
      "hit": false,
      "t": 328333.3004999986,
      "d": 555.5555000000168,
      "v": 39
    },
    {
      "midi": 60,
      "hit": false,
      "t": 328333.30049999943,
      "d": 555.5555000000168,
      "v": 51
    },
    {
      "midi": 47,
      "hit": false,
      "t": 328888.85599999863,
      "d": 555.5555000000168,
      "v": 46
    },
    {
      "midi": 56,
      "hit": false,
      "t": 328888.85599999945,
      "d": 555.5555000000168,
      "v": 45
    },
    {
      "midi": 68,
      "hit": false,
      "t": 328888.85599999945,
      "d": 555.5555000000168,
      "v": 52
    },
    {
      "midi": 52,
      "hit": false,
      "t": 329444.41149999865,
      "d": 555.5555000000168,
      "v": 41
    },
    {
      "midi": 59,
      "hit": false,
      "t": 329444.41149999946,
      "d": 555.5555000000168,
      "v": 42
    },
    {
      "midi": 40,
      "hit": false,
      "t": 329999.96699999867,
      "d": 555.5555000000168,
      "v": 45
    },
    {
      "midi": 56,
      "hit": false,
      "t": 329999.9669999995,
      "d": 555.5555000000168,
      "v": 39
    },
    {
      "midi": 52,
      "hit": false,
      "t": 330555.5224999987,
      "d": 555.5555000000168,
      "v": 37
    },
    {
      "midi": 59,
      "hit": false,
      "t": 330555.5224999995,
      "d": 555.5555000000168,
      "v": 40
    },
    {
      "midi": 48,
      "hit": false,
      "t": 331111.0779999987,
      "d": 555.5555000000168,
      "v": 48
    },
    {
      "midi": 57,
      "hit": false,
      "t": 331111.0779999995,
      "d": 555.5555000000168,
      "v": 39
    },
    {
      "midi": 52,
      "hit": false,
      "t": 331666.6334999987,
      "d": 555.5555000000168,
      "v": 40
    },
    {
      "midi": 60,
      "hit": false,
      "t": 331666.63349999953,
      "d": 555.5555000000168,
      "v": 41
    },
    {
      "midi": 66,
      "hit": false,
      "t": 331666.63349999953,
      "d": 555.5555000000168,
      "v": 50
    },
    {
      "midi": 40,
      "hit": false,
      "t": 332222.18899999873,
      "d": 555.5555000000168,
      "v": 43
    },
    {
      "midi": 57,
      "hit": false,
      "t": 332222.18899999955,
      "d": 555.5555000000168,
      "v": 38
    },
    {
      "midi": 64,
      "hit": false,
      "t": 332222.18899999955,
      "d": 555.5555000000168,
      "v": 52
    },
    {
      "midi": 52,
      "hit": false,
      "t": 332777.74449999875,
      "d": 555.5555000000168,
      "v": 42
    },
    {
      "midi": 60,
      "hit": false,
      "t": 332777.74449999956,
      "d": 555.5555000000168,
      "v": 52
    },
    {
      "midi": 47,
      "hit": false,
      "t": 333333.29999999877,
      "d": 555.5555000000168,
      "v": 50
    },
    {
      "midi": 56,
      "hit": false,
      "t": 333333.2999999996,
      "d": 555.5555000000168,
      "v": 47
    },
    {
      "midi": 68,
      "hit": false,
      "t": 333333.2999999996,
      "d": 555.5555000000168,
      "v": 55
    },
    {
      "midi": 52,
      "hit": false,
      "t": 333888.8554999988,
      "d": 555.5555000000168,
      "v": 40
    },
    {
      "midi": 59,
      "hit": false,
      "t": 333888.8554999996,
      "d": 555.5555000000168,
      "v": 43
    },
    {
      "midi": 40,
      "hit": false,
      "t": 334444.4109999988,
      "d": 555.5555000000168,
      "v": 33
    },
    {
      "midi": 56,
      "hit": false,
      "t": 334444.4109999996,
      "d": 555.5555000000168,
      "v": 43
    },
    {
      "midi": 52,
      "hit": false,
      "t": 334999.9664999988,
      "d": 555.5555000000168,
      "v": 34
    },
    {
      "midi": 59,
      "hit": false,
      "t": 334999.96649999963,
      "d": 555.5555000000168,
      "v": 37
    },
    {
      "midi": 47,
      "hit": false,
      "t": 335555.52199999883,
      "d": 555.5555000000168,
      "v": 40
    },
    {
      "midi": 56,
      "hit": false,
      "t": 335555.52199999965,
      "d": 555.5555000000168,
      "v": 42
    },
    {
      "midi": 52,
      "hit": false,
      "t": 336111.07749999885,
      "d": 555.5555000000168,
      "v": 35
    },
    {
      "midi": 59,
      "hit": false,
      "t": 336111.07749999966,
      "d": 555.5555000000168,
      "v": 39
    },
    {
      "midi": 40,
      "hit": false,
      "t": 336666.63299999887,
      "d": 555.5555000000168,
      "v": 34
    },
    {
      "midi": 56,
      "hit": false,
      "t": 336666.6329999997,
      "d": 555.5555000000168,
      "v": 43
    },
    {
      "midi": 52,
      "hit": false,
      "t": 337222.1884999989,
      "d": 555.5555000000168,
      "v": 34
    },
    {
      "midi": 59,
      "hit": false,
      "t": 337222.1884999997,
      "d": 555.5555000000168,
      "v": 45
    },
    {
      "midi": 47,
      "hit": false,
      "t": 337777.7439999989,
      "d": 555.5555000000168,
      "v": 39
    },
    {
      "midi": 56,
      "hit": false,
      "t": 337777.7439999997,
      "d": 555.5555000000168,
      "v": 64
    },
    {
      "midi": 52,
      "hit": false,
      "t": 338333.2994999989,
      "d": 555.5555000000168,
      "v": 33
    },
    {
      "midi": 59,
      "hit": false,
      "t": 338333.29949999973,
      "d": 555.5555000000168,
      "v": 39
    },
    {
      "midi": 40,
      "hit": false,
      "t": 338888.85499999893,
      "d": 555.5555000000168,
      "v": 30
    },
    {
      "midi": 56,
      "hit": false,
      "t": 338888.85499999975,
      "d": 555.5555000000168,
      "v": 38
    },
    {
      "midi": 52,
      "hit": false,
      "t": 339444.41049999895,
      "d": 555.5555000000168,
      "v": 25
    },
    {
      "midi": 59,
      "hit": false,
      "t": 339444.41049999977,
      "d": 555.5555000000168,
      "v": 37
    },
    {
      "midi": 47,
      "hit": false,
      "t": 339999.96599999897,
      "d": 555.5555000000168,
      "v": 38
    },
    {
      "midi": 56,
      "hit": false,
      "t": 339999.9659999998,
      "d": 555.5555000000168,
      "v": 32
    },
    {
      "midi": 52,
      "hit": false,
      "t": 340555.521499999,
      "d": 555.5555000000168,
      "v": 26
    },
    {
      "midi": 59,
      "hit": false,
      "t": 340555.5214999998,
      "d": 555.5555000000168,
      "v": 34
    },
    {
      "midi": 66,
      "hit": false,
      "t": 340555.5214999998,
      "d": 555.5555000000168,
      "v": 54
    },
    {
      "midi": 40,
      "hit": false,
      "t": 341111.076999999,
      "d": 555.5555000000168,
      "v": 64
    },
    {
      "midi": 56,
      "hit": false,
      "t": 341111.0769999998,
      "d": 555.5555000000168,
      "v": 30
    },
    {
      "midi": 64,
      "hit": false,
      "t": 341111.0769999998,
      "d": 555.5555000000168,
      "v": 54
    },
    {
      "midi": 47,
      "hit": false,
      "t": 341666.632499999,
      "d": 555.5555000000168,
      "v": 64
    },
    {
      "midi": 59,
      "hit": false,
      "t": 341666.63249999983,
      "d": 555.5555000000168,
      "v": 53
    },
    {
      "midi": 40,
      "hit": false,
      "t": 342222.18799999903,
      "d": 4444.444000000018,
      "v": 32
    },
    {
      "midi": 56,
      "hit": false,
      "t": 342222.18799999985,
      "d": 4444.444000000018,
      "v": 43
    },
    {
      "midi": 64,
      "hit": false,
      "t": 342222.18799999985,
      "d": 4444.444000000018,
      "v": 53
    }
  ]
}