{
  "jsonPath": "Classical/Classical/Frederic Chopin/minute-waltz.json",
  "path": "Classical\\Classical\\Frederic Chopin\\Minute Waltz.mid",
  "name": "Minute Waltz",
  "difficulty": "Advanced",
  "bpm": 220.00022000022,
  "notes": [
    {
      "midi": 68,
      "hit": false,
      "t": 0,
      "d": 272.72700000000003,
      "v": 48
    },
    {
      "midi": 67,
      "hit": false,
      "t": 272.72700000000003,
      "d": 136.3635,
      "v": 48
    },
    {
      "midi": 68,
      "hit": false,
      "t": 409.0905,
      "d": 136.36350000000004,
      "v": 48
    },
    {
      "midi": 72,
      "hit": false,
      "t": 545.4540000000001,
      "d": 136.36350000000004,
      "v": 51
    },
    {
      "midi": 70,
      "hit": false,
      "t": 681.8175000000001,
      "d": 136.36350000000004,
      "v": 44
    },
    {
      "midi": 67,
      "hit": false,
      "t": 818.1810000000002,
      "d": 136.36350000000004,
      "v": 46
    },
    {
      "midi": 68,
      "hit": false,
      "t": 954.5445000000002,
      "d": 136.36349999999993,
      "v": 48
    },
    {
      "midi": 70,
      "hit": false,
      "t": 1090.9080000000001,
      "d": 136.36349999999993,
      "v": 50
    },
    {
      "midi": 68,
      "hit": false,
      "t": 1227.2715,
      "d": 136.36349999999993,
      "v": 45
    },
    {
      "midi": 72,
      "hit": false,
      "t": 1363.635,
      "d": 136.36349999999993,
      "v": 52
    },
    {
      "midi": 70,
      "hit": false,
      "t": 1499.9985,
      "d": 136.36349999999993,
      "v": 44
    },
    {
      "midi": 67,
      "hit": false,
      "t": 1636.3619999999999,
      "d": 136.36349999999993,
      "v": 46
    },
    {
      "midi": 68,
      "hit": false,
      "t": 1772.7254999999998,
      "d": 136.36349999999993,
      "v": 48
    },
    {
      "midi": 72,
      "hit": false,
      "t": 1909.0889999999997,
      "d": 136.36349999999993,
      "v": 52
    },
    {
      "midi": 70,
      "hit": false,
      "t": 2045.4524999999996,
      "d": 136.36350000000016,
      "v": 43
    },
    {
      "midi": 67,
      "hit": false,
      "t": 2181.816,
      "d": 136.36349999999993,
      "v": 44
    },
    {
      "midi": 68,
      "hit": false,
      "t": 2318.1794999999997,
      "d": 136.36349999999993,
      "v": 51
    },
    {
      "midi": 72,
      "hit": false,
      "t": 2454.5429999999997,
      "d": 136.36349999999993,
      "v": 57
    },
    {
      "midi": 70,
      "hit": false,
      "t": 2590.9064999999996,
      "d": 136.36349999999993,
      "v": 45
    },
    {
      "midi": 67,
      "hit": false,
      "t": 2727.2699999999995,
      "d": 136.36349999999993,
      "v": 41
    },
    {
      "midi": 68,
      "hit": false,
      "t": 2863.6334999999995,
      "d": 136.36349999999993,
      "v": 51
    },
    {
      "midi": 72,
      "hit": false,
      "t": 2999.9969999999994,
      "d": 136.36349999999993,
      "v": 52
    },
    {
      "midi": 70,
      "hit": false,
      "t": 3136.3604999999993,
      "d": 136.36349999999993,
      "v": 45
    },
    {
      "midi": 67,
      "hit": false,
      "t": 3272.7239999999993,
      "d": 136.36349999999993,
      "v": 45
    },
    {
      "midi": 49,
      "hit": false,
      "t": 3272.724,
      "d": 272.72699999999986,
      "v": 45
    },
    {
      "midi": 68,
      "hit": false,
      "t": 3409.087499999999,
      "d": 136.36349999999993,
      "v": 50
    },
    {
      "midi": 72,
      "hit": false,
      "t": 3545.450999999999,
      "d": 136.36349999999993,
      "v": 52
    },
    {
      "midi": 56,
      "hit": false,
      "t": 3545.451,
      "d": 272.72699999999986,
      "v": 59
    },
    {
      "midi": 61,
      "hit": false,
      "t": 3545.451,
      "d": 272.72699999999986,
      "v": 61
    },
    {
      "midi": 65,
      "hit": false,
      "t": 3545.451,
      "d": 272.72699999999986,
      "v": 61
    },
    {
      "midi": 70,
      "hit": false,
      "t": 3681.814499999999,
      "d": 136.36349999999993,
      "v": 47
    },
    {
      "midi": 67,
      "hit": false,
      "t": 3818.177999999999,
      "d": 136.36349999999993,
      "v": 45
    },
    {
      "midi": 56,
      "hit": false,
      "t": 3818.178,
      "d": 272.72699999999986,
      "v": 52
    },
    {
      "midi": 61,
      "hit": false,
      "t": 3818.178,
      "d": 272.72699999999986,
      "v": 48
    },
    {
      "midi": 65,
      "hit": false,
      "t": 3818.178,
      "d": 272.72699999999986,
      "v": 51
    },
    {
      "midi": 68,
      "hit": false,
      "t": 3954.541499999999,
      "d": 136.36349999999993,
      "v": 54
    },
    {
      "midi": 72,
      "hit": false,
      "t": 4090.904999999999,
      "d": 136.36350000000039,
      "v": 62
    },
    {
      "midi": 53,
      "hit": false,
      "t": 4090.9049999999997,
      "d": 272.72699999999986,
      "v": 37
    },
    {
      "midi": 70,
      "hit": false,
      "t": 4227.268499999999,
      "d": 136.36350000000039,
      "v": 53
    },
    {
      "midi": 67,
      "hit": false,
      "t": 4363.632,
      "d": 136.36350000000039,
      "v": 53
    },
    {
      "midi": 56,
      "hit": false,
      "t": 4363.632,
      "d": 272.72699999999986,
      "v": 56
    },
    {
      "midi": 61,
      "hit": false,
      "t": 4363.632,
      "d": 272.72699999999986,
      "v": 59
    },
    {
      "midi": 65,
      "hit": false,
      "t": 4363.632,
      "d": 272.72699999999986,
      "v": 59
    },
    {
      "midi": 68,
      "hit": false,
      "t": 4499.9955,
      "d": 136.36350000000039,
      "v": 58
    },
    {
      "midi": 56,
      "hit": false,
      "t": 4636.3589999999995,
      "d": 272.72699999999986,
      "v": 49
    },
    {
      "midi": 61,
      "hit": false,
      "t": 4636.3589999999995,
      "d": 272.72699999999986,
      "v": 49
    },
    {
      "midi": 65,
      "hit": false,
      "t": 4636.3589999999995,
      "d": 272.72699999999986,
      "v": 49
    },
    {
      "midi": 72,
      "hit": false,
      "t": 4636.359,
      "d": 136.36350000000039,
      "v": 67
    },
    {
      "midi": 70,
      "hit": false,
      "t": 4772.722500000001,
      "d": 136.36350000000039,
      "v": 56
    },
    {
      "midi": 49,
      "hit": false,
      "t": 4909.085999999999,
      "d": 272.72699999999986,
      "v": 41
    },
    {
      "midi": 67,
      "hit": false,
      "t": 4909.086000000001,
      "d": 136.36350000000039,
      "v": 61
    },
    {
      "midi": 68,
      "hit": false,
      "t": 5045.4495000000015,
      "d": 136.36350000000039,
      "v": 65
    },
    {
      "midi": 56,
      "hit": false,
      "t": 5181.812999999999,
      "d": 272.72699999999986,
      "v": 73
    },
    {
      "midi": 61,
      "hit": false,
      "t": 5181.812999999999,
      "d": 272.72699999999986,
      "v": 71
    },
    {
      "midi": 65,
      "hit": false,
      "t": 5181.812999999999,
      "d": 272.72699999999986,
      "v": 70
    },
    {
      "midi": 72,
      "hit": false,
      "t": 5181.813000000002,
      "d": 136.36350000000039,
      "v": 71
    },
    {
      "midi": 70,
      "hit": false,
      "t": 5318.176500000002,
      "d": 136.36350000000039,
      "v": 65
    },
    {
      "midi": 56,
      "hit": false,
      "t": 5454.539999999999,
      "d": 272.72699999999986,
      "v": 63
    },
    {
      "midi": 61,
      "hit": false,
      "t": 5454.539999999999,
      "d": 272.72699999999986,
      "v": 65
    },
    {
      "midi": 65,
      "hit": false,
      "t": 5454.539999999999,
      "d": 272.72699999999986,
      "v": 66
    },
    {
      "midi": 67,
      "hit": false,
      "t": 5454.540000000003,
      "d": 136.36350000000039,
      "v": 63
    },
    {
      "midi": 68,
      "hit": false,
      "t": 5590.903500000003,
      "d": 136.36350000000039,
      "v": 72
    },
    {
      "midi": 53,
      "hit": false,
      "t": 5727.266999999999,
      "d": 272.72699999999986,
      "v": 52
    },
    {
      "midi": 70,
      "hit": false,
      "t": 5727.2670000000035,
      "d": 136.36350000000039,
      "v": 79
    },
    {
      "midi": 72,
      "hit": false,
      "t": 5863.630500000004,
      "d": 136.36350000000039,
      "v": 77
    },
    {
      "midi": 56,
      "hit": false,
      "t": 5999.993999999999,
      "d": 272.72699999999986,
      "v": 89
    },
    {
      "midi": 61,
      "hit": false,
      "t": 5999.993999999999,
      "d": 272.72699999999986,
      "v": 88
    },
    {
      "midi": 65,
      "hit": false,
      "t": 5999.993999999999,
      "d": 272.72699999999986,
      "v": 87
    },
    {
      "midi": 73,
      "hit": false,
      "t": 5999.994000000004,
      "d": 136.36350000000039,
      "v": 80
    },
    {
      "midi": 75,
      "hit": false,
      "t": 6136.357500000005,
      "d": 136.36350000000039,
      "v": 83
    },
    {
      "midi": 56,
      "hit": false,
      "t": 6272.720999999999,
      "d": 272.72699999999986,
      "v": 82
    },
    {
      "midi": 61,
      "hit": false,
      "t": 6272.720999999999,
      "d": 272.72699999999986,
      "v": 80
    },
    {
      "midi": 65,
      "hit": false,
      "t": 6272.720999999999,
      "d": 272.72699999999986,
      "v": 79
    },
    {
      "midi": 77,
      "hit": false,
      "t": 6272.721000000005,
      "d": 136.36350000000039,
      "v": 85
    },
    {
      "midi": 78,
      "hit": false,
      "t": 6409.084500000005,
      "d": 136.36350000000039,
      "v": 83
    },
    {
      "midi": 44,
      "hit": false,
      "t": 6545.4479999999985,
      "d": 272.72699999999986,
      "v": 63
    },
    {
      "midi": 82,
      "hit": false,
      "t": 6545.448000000006,
      "d": 409.09050000000025,
      "v": 93
    },
    {
      "midi": 56,
      "hit": false,
      "t": 6818.174999999998,
      "d": 272.72699999999986,
      "v": 93
    },
    {
      "midi": 60,
      "hit": false,
      "t": 6818.174999999998,
      "d": 272.72699999999986,
      "v": 96
    },
    {
      "midi": 66,
      "hit": false,
      "t": 6818.174999999998,
      "d": 272.72699999999986,
      "v": 95
    },
    {
      "midi": 80,
      "hit": false,
      "t": 6954.538500000006,
      "d": 136.36350000000039,
      "v": 74
    },
    {
      "midi": 56,
      "hit": false,
      "t": 7090.901999999998,
      "d": 272.72699999999986,
      "v": 76
    },
    {
      "midi": 60,
      "hit": false,
      "t": 7090.901999999998,
      "d": 272.72699999999986,
      "v": 77
    },
    {
      "midi": 66,
      "hit": false,
      "t": 7090.901999999998,
      "d": 272.72699999999986,
      "v": 76
    },
    {
      "midi": 78,
      "hit": false,
      "t": 7090.902000000006,
      "d": 136.36350000000039,
      "v": 65
    },
    {
      "midi": 77,
      "hit": false,
      "t": 7227.265500000007,
      "d": 136.36350000000039,
      "v": 70
    },
    {
      "midi": 51,
      "hit": false,
      "t": 7363.628999999998,
      "d": 272.72699999999986,
      "v": 52
    },
    {
      "midi": 77,
      "hit": false,
      "t": 7363.629000000007,
      "d": 136.36350000000039,
      "v": 72
    },
    {
      "midi": 75,
      "hit": false,
      "t": 7499.992500000008,
      "d": 136.36350000000039,
      "v": 64
    },
    {
      "midi": 56,
      "hit": false,
      "t": 7636.355999999998,
      "d": 272.72699999999986,
      "v": 79
    },
    {
      "midi": 60,
      "hit": false,
      "t": 7636.355999999998,
      "d": 272.72699999999986,
      "v": 80
    },
    {
      "midi": 66,
      "hit": false,
      "t": 7636.355999999998,
      "d": 272.72699999999986,
      "v": 79
    },
    {
      "midi": 75,
      "hit": false,
      "t": 7636.356000000008,
      "d": 34.09087499999987,
      "v": 68
    },
    {
      "midi": 77,
      "hit": false,
      "t": 7670.446875000008,
      "d": 68.18174999999974,
      "v": 70
    },
    {
      "midi": 75,
      "hit": false,
      "t": 7738.628625000008,
      "d": 34.09087499999987,
      "v": 61
    },
    {
      "midi": 74,
      "hit": false,
      "t": 7772.719500000007,
      "d": 136.36350000000039,
      "v": 59
    },
    {
      "midi": 56,
      "hit": false,
      "t": 7909.082999999998,
      "d": 272.72699999999986,
      "v": 65
    },
    {
      "midi": 60,
      "hit": false,
      "t": 7909.082999999998,
      "d": 272.72699999999986,
      "v": 66
    },
    {
      "midi": 66,
      "hit": false,
      "t": 7909.082999999998,
      "d": 272.72699999999986,
      "v": 66
    },
    {
      "midi": 75,
      "hit": false,
      "t": 7909.083000000008,
      "d": 272.72699999999986,
      "v": 66
    },
    {
      "midi": 44,
      "hit": false,
      "t": 8181.809999999998,
      "d": 272.72700000000077,
      "v": 46
    },
    {
      "midi": 82,
      "hit": false,
      "t": 8181.810000000008,
      "d": 409.09049999999934,
      "v": 77
    },
    {
      "midi": 56,
      "hit": false,
      "t": 8454.536999999998,
      "d": 272.72700000000077,
      "v": 69
    },
    {
      "midi": 60,
      "hit": false,
      "t": 8454.536999999998,
      "d": 272.72700000000077,
      "v": 68
    },
    {
      "midi": 66,
      "hit": false,
      "t": 8454.536999999998,
      "d": 272.72700000000077,
      "v": 68
    },
    {
      "midi": 80,
      "hit": false,
      "t": 8590.900500000007,
      "d": 136.36349999999948,
      "v": 56
    },
    {
      "midi": 56,
      "hit": false,
      "t": 8727.264,
      "d": 272.72700000000077,
      "v": 53
    },
    {
      "midi": 60,
      "hit": false,
      "t": 8727.264,
      "d": 272.72700000000077,
      "v": 52
    },
    {
      "midi": 66,
      "hit": false,
      "t": 8727.264,
      "d": 272.72700000000077,
      "v": 51
    },
    {
      "midi": 78,
      "hit": false,
      "t": 8727.264000000006,
      "d": 136.36349999999948,
      "v": 56
    },
    {
      "midi": 77,
      "hit": false,
      "t": 8863.627500000006,
      "d": 136.36349999999948,
      "v": 50
    },
    {
      "midi": 56,
      "hit": false,
      "t": 8999.991,
      "d": 272.72700000000077,
      "v": 40
    },
    {
      "midi": 77,
      "hit": false,
      "t": 8999.991000000005,
      "d": 136.36349999999948,
      "v": 54
    },
    {
      "midi": 75,
      "hit": false,
      "t": 9136.354500000005,
      "d": 34.09087499999987,
      "v": 48
    },
    {
      "midi": 77,
      "hit": false,
      "t": 9170.445375000005,
      "d": 68.18174999999974,
      "v": 51
    },
    {
      "midi": 75,
      "hit": false,
      "t": 9238.627125000005,
      "d": 34.09087499999987,
      "v": 47
    },
    {
      "midi": 60,
      "hit": false,
      "t": 9272.718,
      "d": 272.72700000000077,
      "v": 57
    },
    {
      "midi": 66,
      "hit": false,
      "t": 9272.718,
      "d": 272.72700000000077,
      "v": 56
    },
    {
      "midi": 74,
      "hit": false,
      "t": 9272.718000000004,
      "d": 136.36349999999948,
      "v": 49
    },
    {
      "midi": 75,
      "hit": false,
      "t": 9409.081500000004,
      "d": 136.36349999999948,
      "v": 50
    },
    {
      "midi": 60,
      "hit": false,
      "t": 9545.445000000002,
      "d": 272.72700000000077,
      "v": 47
    },
    {
      "midi": 66,
      "hit": false,
      "t": 9545.445000000002,
      "d": 272.72700000000077,
      "v": 48
    },
    {
      "midi": 77,
      "hit": false,
      "t": 9545.445000000003,
      "d": 136.36349999999948,
      "v": 50
    },
    {
      "midi": 70,
      "hit": false,
      "t": 9681.808500000003,
      "d": 136.36349999999948,
      "v": 39
    },
    {
      "midi": 67,
      "hit": false,
      "t": 9818.172000000002,
      "d": 136.36349999999948,
      "v": 43
    },
    {
      "midi": 49,
      "hit": false,
      "t": 9818.172000000002,
      "d": 272.72700000000077,
      "v": 38
    },
    {
      "midi": 68,
      "hit": false,
      "t": 9954.535500000002,
      "d": 136.36349999999948,
      "v": 46
    },
    {
      "midi": 72,
      "hit": false,
      "t": 10090.899000000001,
      "d": 136.36349999999948,
      "v": 51
    },
    {
      "midi": 56,
      "hit": false,
      "t": 10090.899000000003,
      "d": 272.72700000000077,
      "v": 57
    },
    {
      "midi": 61,
      "hit": false,
      "t": 10090.899000000003,
      "d": 272.72700000000077,
      "v": 57
    },
    {
      "midi": 65,
      "hit": false,
      "t": 10090.899000000003,
      "d": 272.72700000000077,
      "v": 56
    },
    {
      "midi": 70,
      "hit": false,
      "t": 10227.2625,
      "d": 136.36349999999948,
      "v": 44
    },
    {
      "midi": 67,
      "hit": false,
      "t": 10363.626,
      "d": 136.36349999999948,
      "v": 40
    },
    {
      "midi": 56,
      "hit": false,
      "t": 10363.626000000004,
      "d": 272.72700000000077,
      "v": 47
    },
    {
      "midi": 61,
      "hit": false,
      "t": 10363.626000000004,
      "d": 272.72700000000077,
      "v": 48
    },
    {
      "midi": 65,
      "hit": false,
      "t": 10363.626000000004,
      "d": 272.72700000000077,
      "v": 47
    },
    {
      "midi": 68,
      "hit": false,
      "t": 10499.9895,
      "d": 136.36349999999948,
      "v": 49
    },
    {
      "midi": 72,
      "hit": false,
      "t": 10636.353,
      "d": 136.36349999999948,
      "v": 54
    },
    {
      "midi": 53,
      "hit": false,
      "t": 10636.353000000005,
      "d": 272.72700000000077,
      "v": 35
    },
    {
      "midi": 70,
      "hit": false,
      "t": 10772.716499999999,
      "d": 136.36349999999948,
      "v": 44
    },
    {
      "midi": 67,
      "hit": false,
      "t": 10909.079999999998,
      "d": 136.36349999999948,
      "v": 40
    },
    {
      "midi": 56,
      "hit": false,
      "t": 10909.080000000005,
      "d": 272.72700000000077,
      "v": 55
    },
    {
      "midi": 61,
      "hit": false,
      "t": 10909.080000000005,
      "d": 272.72700000000077,
      "v": 57
    },
    {
      "midi": 65,
      "hit": false,
      "t": 10909.080000000005,
      "d": 272.72700000000077,
      "v": 58
    },
    {
      "midi": 68,
      "hit": false,
      "t": 11045.443499999998,
      "d": 136.36349999999948,
      "v": 46
    },
    {
      "midi": 72,
      "hit": false,
      "t": 11181.806999999997,
      "d": 136.36349999999948,
      "v": 54
    },
    {
      "midi": 56,
      "hit": false,
      "t": 11181.807000000006,
      "d": 272.72700000000077,
      "v": 49
    },
    {
      "midi": 61,
      "hit": false,
      "t": 11181.807000000006,
      "d": 272.72700000000077,
      "v": 49
    },
    {
      "midi": 65,
      "hit": false,
      "t": 11181.807000000006,
      "d": 272.72700000000077,
      "v": 46
    },
    {
      "midi": 70,
      "hit": false,
      "t": 11318.170499999997,
      "d": 136.36349999999948,
      "v": 43
    },
    {
      "midi": 67,
      "hit": false,
      "t": 11454.533999999996,
      "d": 136.36349999999948,
      "v": 44
    },
    {
      "midi": 49,
      "hit": false,
      "t": 11454.534000000007,
      "d": 272.72700000000077,
      "v": 38
    },
    {
      "midi": 68,
      "hit": false,
      "t": 11590.897499999995,
      "d": 136.36349999999948,
      "v": 46
    },
    {
      "midi": 72,
      "hit": false,
      "t": 11727.260999999995,
      "d": 136.36349999999948,
      "v": 52
    },
    {
      "midi": 56,
      "hit": false,
      "t": 11727.261000000008,
      "d": 272.72700000000077,
      "v": 66
    },
    {
      "midi": 61,
      "hit": false,
      "t": 11727.261000000008,
      "d": 272.72700000000077,
      "v": 67
    },
    {
      "midi": 65,
      "hit": false,
      "t": 11727.261000000008,
      "d": 272.72700000000077,
      "v": 65
    },
    {
      "midi": 70,
      "hit": false,
      "t": 11863.624499999994,
      "d": 136.36349999999948,
      "v": 43
    },
    {
      "midi": 67,
      "hit": false,
      "t": 11999.987999999994,
      "d": 136.36349999999948,
      "v": 44
    },
    {
      "midi": 56,
      "hit": false,
      "t": 11999.988000000008,
      "d": 272.72700000000077,
      "v": 61
    },
    {
      "midi": 61,
      "hit": false,
      "t": 11999.988000000008,
      "d": 272.72700000000077,
      "v": 62
    },
    {
      "midi": 65,
      "hit": false,
      "t": 11999.988000000008,
      "d": 272.72700000000077,
      "v": 63
    },
    {
      "midi": 68,
      "hit": false,
      "t": 12136.351499999993,
      "d": 136.36349999999948,
      "v": 57
    },
    {
      "midi": 70,
      "hit": false,
      "t": 12272.714999999993,
      "d": 136.36349999999948,
      "v": 67
    },
    {
      "midi": 53,
      "hit": false,
      "t": 12272.71500000001,
      "d": 272.72700000000077,
      "v": 51
    },
    {
      "midi": 72,
      "hit": false,
      "t": 12409.078499999992,
      "d": 136.36349999999948,
      "v": 65
    },
    {
      "midi": 73,
      "hit": false,
      "t": 12545.441999999992,
      "d": 136.36349999999948,
      "v": 70
    },
    {
      "midi": 56,
      "hit": false,
      "t": 12545.44200000001,
      "d": 272.72700000000077,
      "v": 89
    },
    {
      "midi": 61,
      "hit": false,
      "t": 12545.44200000001,
      "d": 272.72700000000077,
      "v": 89
    },
    {
      "midi": 65,
      "hit": false,
      "t": 12545.44200000001,
      "d": 272.72700000000077,
      "v": 90
    },
    {
      "midi": 75,
      "hit": false,
      "t": 12681.805499999991,
      "d": 136.36349999999948,
      "v": 74
    },
    {
      "midi": 77,
      "hit": false,
      "t": 12818.16899999999,
      "d": 136.36349999999948,
      "v": 80
    },
    {
      "midi": 56,
      "hit": false,
      "t": 12818.16900000001,
      "d": 272.72700000000077,
      "v": 83
    },
    {
      "midi": 61,
      "hit": false,
      "t": 12818.16900000001,
      "d": 272.72700000000077,
      "v": 83
    },
    {
      "midi": 65,
      "hit": false,
      "t": 12818.16900000001,
      "d": 272.72700000000077,
      "v": 82
    },
    {
      "midi": 78,
      "hit": false,
      "t": 12954.53249999999,
      "d": 136.36349999999948,
      "v": 82
    },
    {
      "midi": 82,
      "hit": false,
      "t": 13090.89599999999,
      "d": 409.09050000000025,
      "v": 94
    },
    {
      "midi": 44,
      "hit": false,
      "t": 13090.896000000012,
      "d": 272.72700000000077,
      "v": 59
    },
    {
      "midi": 56,
      "hit": false,
      "t": 13363.623000000012,
      "d": 272.72700000000077,
      "v": 99
    },
    {
      "midi": 60,
      "hit": false,
      "t": 13363.623000000012,
      "d": 272.72700000000077,
      "v": 99
    },
    {
      "midi": 66,
      "hit": false,
      "t": 13363.623000000012,
      "d": 272.72700000000077,
      "v": 99
    },
    {
      "midi": 80,
      "hit": false,
      "t": 13499.98649999999,
      "d": 136.36349999999948,
      "v": 74
    },
    {
      "midi": 78,
      "hit": false,
      "t": 13636.34999999999,
      "d": 136.36349999999948,
      "v": 70
    },
    {
      "midi": 56,
      "hit": false,
      "t": 13636.350000000013,
      "d": 272.72700000000077,
      "v": 80
    },
    {
      "midi": 60,
      "hit": false,
      "t": 13636.350000000013,
      "d": 272.72700000000077,
      "v": 79
    },
    {
      "midi": 66,
      "hit": false,
      "t": 13636.350000000013,
      "d": 272.72700000000077,
      "v": 80
    },
    {
      "midi": 77,
      "hit": false,
      "t": 13772.713499999989,
      "d": 136.36349999999948,
      "v": 70
    },
    {
      "midi": 77,
      "hit": false,
      "t": 13909.076999999988,
      "d": 136.36349999999948,
      "v": 75
    },
    {
      "midi": 51,
      "hit": false,
      "t": 13909.077000000014,
      "d": 272.72700000000077,
      "v": 56
    },
    {
      "midi": 75,
      "hit": false,
      "t": 14045.440499999988,
      "d": 136.36349999999948,
      "v": 64
    },
    {
      "midi": 75,
      "hit": false,
      "t": 14181.803999999987,
      "d": 34.09087499999987,
      "v": 71
    },
    {
      "midi": 56,
      "hit": false,
      "t": 14181.804000000015,
      "d": 272.72700000000077,
      "v": 88
    },
    {
      "midi": 60,
      "hit": false,
      "t": 14181.804000000015,
      "d": 272.72700000000077,
      "v": 89
    },
    {
      "midi": 66,
      "hit": false,
      "t": 14181.804000000015,
      "d": 272.72700000000077,
      "v": 88
    },
    {
      "midi": 77,
      "hit": false,
      "t": 14215.894874999987,
      "d": 68.18174999999974,
      "v": 74
    },
    {
      "midi": 75,
      "hit": false,
      "t": 14284.076624999987,
      "d": 34.09087499999987,
      "v": 63
    },
    {
      "midi": 74,
      "hit": false,
      "t": 14318.167499999987,
      "d": 136.36349999999948,
      "v": 62
    },
    {
      "midi": 74,
      "hit": false,
      "t": 14454.530999999986,
      "d": 136.36349999999948,
      "v": 66
    },
    {
      "midi": 56,
      "hit": false,
      "t": 14454.531000000015,
      "d": 272.72700000000077,
      "v": 70
    },
    {
      "midi": 60,
      "hit": false,
      "t": 14454.531000000015,
      "d": 272.72700000000077,
      "v": 70
    },
    {
      "midi": 66,
      "hit": false,
      "t": 14454.531000000015,
      "d": 272.72700000000077,
      "v": 71
    },
    {
      "midi": 75,
      "hit": false,
      "t": 14590.894499999986,
      "d": 136.36349999999948,
      "v": 69
    },
    {
      "midi": 82,
      "hit": false,
      "t": 14727.257999999985,
      "d": 409.09050000000025,
      "v": 78
    },
    {
      "midi": 44,
      "hit": false,
      "t": 14727.258000000016,
      "d": 204.5452499999992,
      "v": 49
    },
    {
      "midi": 56,
      "hit": false,
      "t": 14999.985000000015,
      "d": 204.5452499999992,
      "v": 79
    },
    {
      "midi": 60,
      "hit": false,
      "t": 14999.985000000015,
      "d": 204.5452499999992,
      "v": 78
    },
    {
      "midi": 66,
      "hit": false,
      "t": 14999.985000000015,
      "d": 204.5452499999992,
      "v": 78
    },
    {
      "midi": 80,
      "hit": false,
      "t": 15136.348499999986,
      "d": 136.36349999999948,
      "v": 63
    },
    {
      "midi": 78,
      "hit": false,
      "t": 15272.711999999985,
      "d": 136.36349999999948,
      "v": 61
    },
    {
      "midi": 56,
      "hit": false,
      "t": 15272.712000000014,
      "d": 204.5452499999992,
      "v": 66
    },
    {
      "midi": 60,
      "hit": false,
      "t": 15272.712000000014,
      "d": 204.5452499999992,
      "v": 63
    },
    {
      "midi": 66,
      "hit": false,
      "t": 15272.712000000014,
      "d": 204.5452499999992,
      "v": 63
    },
    {
      "midi": 77,
      "hit": false,
      "t": 15409.075499999984,
      "d": 136.36349999999948,
      "v": 57
    },
    {
      "midi": 75,
      "hit": false,
      "t": 15545.438999999984,
      "d": 136.36349999999948,
      "v": 62
    },
    {
      "midi": 56,
      "hit": false,
      "t": 15545.439000000013,
      "d": 136.36349999999948,
      "v": 50
    },
    {
      "midi": 77,
      "hit": false,
      "t": 15681.802499999983,
      "d": 136.36349999999948,
      "v": 70
    },
    {
      "midi": 75,
      "hit": false,
      "t": 15818.165999999983,
      "d": 136.36349999999948,
      "v": 64
    },
    {
      "midi": 60,
      "hit": false,
      "t": 15818.166000000012,
      "d": 136.36349999999948,
      "v": 74
    },
    {
      "midi": 66,
      "hit": false,
      "t": 15818.166000000012,
      "d": 136.36349999999948,
      "v": 76
    },
    {
      "midi": 74,
      "hit": false,
      "t": 15954.529499999982,
      "d": 136.36349999999948,
      "v": 69
    },
    {
      "midi": 75,
      "hit": false,
      "t": 16090.892999999982,
      "d": 136.36349999999948,
      "v": 78
    },
    {
      "midi": 44,
      "hit": false,
      "t": 16090.893000000011,
      "d": 136.36349999999948,
      "v": 49
    },
    {
      "midi": 76,
      "hit": false,
      "t": 16227.256499999981,
      "d": 136.36349999999948,
      "v": 84
    },
    {
      "midi": 77,
      "hit": false,
      "t": 16363.61999999998,
      "d": 102.27262500000143,
      "v": 101
    },
    {
      "midi": 45,
      "hit": false,
      "t": 16363.62000000001,
      "d": 204.5452499999992,
      "v": 65
    },
    {
      "midi": 78,
      "hit": false,
      "t": 16465.892624999982,
      "d": 68.18174999999974,
      "v": 96
    },
    {
      "midi": 77,
      "hit": false,
      "t": 16534.074374999982,
      "d": 102.27262500000143,
      "v": 87
    },
    {
      "midi": 76,
      "hit": false,
      "t": 16636.346999999983,
      "d": 136.36349999999948,
      "v": 90
    },
    {
      "midi": 53,
      "hit": false,
      "t": 16636.34700000001,
      "d": 204.5452499999992,
      "v": 81
    },
    {
      "midi": 60,
      "hit": false,
      "t": 16636.34700000001,
      "d": 204.5452499999992,
      "v": 82
    },
    {
      "midi": 63,
      "hit": false,
      "t": 16636.34700000001,
      "d": 204.5452499999992,
      "v": 80
    },
    {
      "midi": 77,
      "hit": false,
      "t": 16772.710499999983,
      "d": 136.36349999999948,
      "v": 97
    },
    {
      "midi": 80,
      "hit": false,
      "t": 16909.073999999982,
      "d": 136.36349999999948,
      "v": 98
    },
    {
      "midi": 53,
      "hit": false,
      "t": 16909.074000000008,
      "d": 204.5452499999992,
      "v": 64
    },
    {
      "midi": 60,
      "hit": false,
      "t": 16909.074000000008,
      "d": 204.5452499999992,
      "v": 63
    },
    {
      "midi": 63,
      "hit": false,
      "t": 16909.074000000008,
      "d": 204.5452499999992,
      "v": 64
    },
    {
      "midi": 78,
      "hit": false,
      "t": 17045.43749999998,
      "d": 136.36349999999948,
      "v": 88
    },
    {
      "midi": 77,
      "hit": false,
      "t": 17181.80099999998,
      "d": 136.36349999999948,
      "v": 89
    },
    {
      "midi": 46,
      "hit": false,
      "t": 17181.801000000007,
      "d": 204.5452499999992,
      "v": 51
    },
    {
      "midi": 78,
      "hit": false,
      "t": 17318.16449999998,
      "d": 136.36349999999948,
      "v": 93
    },
    {
      "midi": 77,
      "hit": false,
      "t": 17454.52799999998,
      "d": 136.36349999999948,
      "v": 88
    },
    {
      "midi": 53,
      "hit": false,
      "t": 17454.528000000006,
      "d": 204.5452499999992,
      "v": 77
    },
    {
      "midi": 61,
      "hit": false,
      "t": 17454.528000000006,
      "d": 204.5452499999992,
      "v": 79
    },
    {
      "midi": 76,
      "hit": false,
      "t": 17590.89149999998,
      "d": 136.36349999999948,
      "v": 85
    },
    {
      "midi": 77,
      "hit": false,
      "t": 17727.25499999998,
      "d": 136.36349999999948,
      "v": 96
    },
    {
      "midi": 53,
      "hit": false,
      "t": 17727.255000000005,
      "d": 204.5452499999992,
      "v": 64
    },
    {
      "midi": 61,
      "hit": false,
      "t": 17727.255000000005,
      "d": 204.5452499999992,
      "v": 67
    },
    {
      "midi": 82,
      "hit": false,
      "t": 17863.61849999998,
      "d": 136.36349999999948,
      "v": 104
    },
    {
      "midi": 80,
      "hit": false,
      "t": 17999.981999999978,
      "d": 102.27262500000143,
      "v": 93
    },
    {
      "midi": 48,
      "hit": false,
      "t": 17999.982000000004,
      "d": 204.5452499999992,
      "v": 47
    },
    {
      "midi": 82,
      "hit": false,
      "t": 18102.25462499998,
      "d": 68.18174999999974,
      "v": 97
    },
    {
      "midi": 80,
      "hit": false,
      "t": 18170.43637499998,
      "d": 102.27262500000143,
      "v": 87
    },
    {
      "midi": 79,
      "hit": false,
      "t": 18272.70899999998,
      "d": 136.36349999999948,
      "v": 89
    },
    {
      "midi": 56,
      "hit": false,
      "t": 18272.709000000003,
      "d": 204.5452499999992,
      "v": 79
    },
    {
      "midi": 63,
      "hit": false,
      "t": 18272.709000000003,
      "d": 204.5452499999992,
      "v": 76
    },
    {
      "midi": 66,
      "hit": false,
      "t": 18272.709000000003,
      "d": 204.5452499999992,
      "v": 77
    },
    {
      "midi": 80,
      "hit": false,
      "t": 18409.07249999998,
      "d": 136.36349999999948,
      "v": 93
    },
    {
      "midi": 84,
      "hit": false,
      "t": 18545.43599999998,
      "d": 136.36349999999948,
      "v": 103
    },
    {
      "midi": 56,
      "hit": false,
      "t": 18545.436,
      "d": 204.5452499999992,
      "v": 64
    },
    {
      "midi": 63,
      "hit": false,
      "t": 18545.436,
      "d": 204.5452499999992,
      "v": 66
    },
    {
      "midi": 66,
      "hit": false,
      "t": 18545.436,
      "d": 204.5452499999992,
      "v": 65
    },
    {
      "midi": 82,
      "hit": false,
      "t": 18681.79949999998,
      "d": 136.36349999999948,
      "v": 87
    },
    {
      "midi": 80,
      "hit": false,
      "t": 18818.16299999998,
      "d": 136.36349999999948,
      "v": 87
    },
    {
      "midi": 49,
      "hit": false,
      "t": 18818.163,
      "d": 136.36349999999948,
      "v": 46
    },
    {
      "midi": 82,
      "hit": false,
      "t": 18954.526499999978,
      "d": 136.36349999999948,
      "v": 96
    },
    {
      "midi": 80,
      "hit": false,
      "t": 19090.889999999978,
      "d": 136.36349999999948,
      "v": 85
    },
    {
      "midi": 56,
      "hit": false,
      "t": 19090.89,
      "d": 204.5452499999992,
      "v": 76
    },
    {
      "midi": 65,
      "hit": false,
      "t": 19090.89,
      "d": 204.5452499999992,
      "v": 78
    },
    {
      "midi": 79,
      "hit": false,
      "t": 19227.253499999977,
      "d": 136.36349999999948,
      "v": 86
    },
    {
      "midi": 80,
      "hit": false,
      "t": 19363.616999999977,
      "d": 136.36349999999948,
      "v": 97
    },
    {
      "midi": 85,
      "hit": false,
      "t": 19499.980499999976,
      "d": 136.36349999999948,
      "v": 103
    },
    {
      "midi": 84,
      "hit": false,
      "t": 19636.343999999975,
      "d": 136.36349999999948,
      "v": 90
    },
    {
      "midi": 54,
      "hit": false,
      "t": 19636.343999999997,
      "d": 272.72699999999895,
      "v": 59
    },
    {
      "midi": 82,
      "hit": false,
      "t": 19772.707499999975,
      "d": 136.36349999999948,
      "v": 83
    },
    {
      "midi": 80,
      "hit": false,
      "t": 19909.070999999974,
      "d": 136.36349999999948,
      "v": 81
    },
    {
      "midi": 58,
      "hit": false,
      "t": 19909.070999999996,
      "d": 204.5452499999992,
      "v": 74
    },
    {
      "midi": 63,
      "hit": false,
      "t": 19909.070999999996,
      "d": 204.5452499999992,
      "v": 75
    },
    {
      "midi": 78,
      "hit": false,
      "t": 20045.434499999974,
      "d": 136.36349999999948,
      "v": 81
    },
    {
      "midi": 77,
      "hit": false,
      "t": 20181.797999999973,
      "d": 136.36349999999948,
      "v": 76
    },
    {
      "midi": 75,
      "hit": false,
      "t": 20318.161499999973,
      "d": 136.36349999999948,
      "v": 75
    },
    {
      "midi": 73,
      "hit": false,
      "t": 20454.524999999972,
      "d": 136.36349999999948,
      "v": 74
    },
    {
      "midi": 44,
      "hit": false,
      "t": 20454.524999999994,
      "d": 204.5452499999992,
      "v": 59
    },
    {
      "midi": 72,
      "hit": false,
      "t": 20590.888499999972,
      "d": 136.36349999999948,
      "v": 71
    },
    {
      "midi": 70,
      "hit": false,
      "t": 20727.25199999997,
      "d": 136.36349999999948,
      "v": 66
    },
    {
      "midi": 53,
      "hit": false,
      "t": 20727.251999999993,
      "d": 204.5452499999992,
      "v": 79
    },
    {
      "midi": 56,
      "hit": false,
      "t": 20727.251999999993,
      "d": 204.5452499999992,
      "v": 77
    },
    {
      "midi": 61,
      "hit": false,
      "t": 20727.251999999993,
      "d": 204.5452499999992,
      "v": 80
    },
    {
      "midi": 68,
      "hit": false,
      "t": 20863.61549999997,
      "d": 136.36349999999948,
      "v": 66
    },
    {
      "midi": 66,
      "hit": false,
      "t": 20999.97899999997,
      "d": 136.36349999999948,
      "v": 63
    },
    {
      "midi": 65,
      "hit": false,
      "t": 21136.34249999997,
      "d": 136.36349999999948,
      "v": 60
    },
    {
      "midi": 63,
      "hit": false,
      "t": 21272.70599999997,
      "d": 136.36349999999948,
      "v": 60
    },
    {
      "midi": 44,
      "hit": false,
      "t": 21272.70599999999,
      "d": 204.5452499999992,
      "v": 58
    },
    {
      "midi": 61,
      "hit": false,
      "t": 21409.06949999997,
      "d": 136.36349999999948,
      "v": 55
    },
    {
      "midi": 60,
      "hit": false,
      "t": 21545.432999999968,
      "d": 136.36349999999948,
      "v": 53
    },
    {
      "midi": 54,
      "hit": false,
      "t": 21545.43299999999,
      "d": 204.5452499999992,
      "v": 82
    },
    {
      "midi": 56,
      "hit": false,
      "t": 21545.43299999999,
      "d": 204.5452499999992,
      "v": 85
    },
    {
      "midi": 63,
      "hit": false,
      "t": 21681.796499999968,
      "d": 136.36349999999948,
      "v": 59
    },
    {
      "midi": 70,
      "hit": false,
      "t": 21818.159999999967,
      "d": 136.36349999999948,
      "v": 70
    },
    {
      "midi": 54,
      "hit": false,
      "t": 21818.15999999999,
      "d": 204.5452499999992,
      "v": 79
    },
    {
      "midi": 56,
      "hit": false,
      "t": 21818.15999999999,
      "d": 204.5452499999992,
      "v": 77
    },
    {
      "midi": 60,
      "hit": false,
      "t": 21818.15999999999,
      "d": 204.5452499999992,
      "v": 81
    },
    {
      "midi": 68,
      "hit": false,
      "t": 21954.523499999967,
      "d": 136.36349999999948,
      "v": 63
    },
    {
      "midi": 67,
      "hit": false,
      "t": 22090.886999999966,
      "d": 136.36349999999948,
      "v": 63
    },
    {
      "midi": 49,
      "hit": false,
      "t": 22090.886999999988,
      "d": 204.5452499999992,
      "v": 56
    },
    {
      "midi": 68,
      "hit": false,
      "t": 22227.250499999966,
      "d": 136.36349999999948,
      "v": 71
    },
    {
      "midi": 70,
      "hit": false,
      "t": 22363.613999999965,
      "d": 136.36349999999948,
      "v": 75
    },
    {
      "midi": 53,
      "hit": false,
      "t": 22363.613999999987,
      "d": 204.5452499999992,
      "v": 90
    },
    {
      "midi": 56,
      "hit": false,
      "t": 22363.613999999987,
      "d": 204.5452499999992,
      "v": 90
    },
    {
      "midi": 61,
      "hit": false,
      "t": 22363.613999999987,
      "d": 204.5452499999992,
      "v": 91
    },
    {
      "midi": 72,
      "hit": false,
      "t": 22499.977499999964,
      "d": 136.36349999999948,
      "v": 77
    },
    {
      "midi": 73,
      "hit": false,
      "t": 22636.340999999964,
      "d": 136.36349999999948,
      "v": 82
    },
    {
      "midi": 75,
      "hit": false,
      "t": 22772.704499999963,
      "d": 136.36349999999948,
      "v": 83
    },
    {
      "midi": 77,
      "hit": false,
      "t": 22909.067999999963,
      "d": 102.27262500000143,
      "v": 87
    },
    {
      "midi": 57,
      "hit": false,
      "t": 22909.067999999985,
      "d": 818.1809999999969,
      "v": 60
    },
    {
      "midi": 78,
      "hit": false,
      "t": 23011.340624999964,
      "d": 68.18174999999974,
      "v": 84
    },
    {
      "midi": 77,
      "hit": false,
      "t": 23079.522374999964,
      "d": 102.27262500000143,
      "v": 78
    },
    {
      "midi": 76,
      "hit": false,
      "t": 23181.794999999966,
      "d": 136.36349999999948,
      "v": 79
    },
    {
      "midi": 63,
      "hit": false,
      "t": 23181.794999999984,
      "d": 272.72699999999895,
      "v": 71
    },
    {
      "midi": 65,
      "hit": false,
      "t": 23181.794999999984,
      "d": 272.72699999999895,
      "v": 73
    },
    {
      "midi": 77,
      "hit": false,
      "t": 23318.158499999965,
      "d": 136.36349999999948,
      "v": 83
    },
    {
      "midi": 80,
      "hit": false,
      "t": 23454.521999999964,
      "d": 136.36349999999948,
      "v": 85
    },
    {
      "midi": 63,
      "hit": false,
      "t": 23454.521999999983,
      "d": 272.72699999999895,
      "v": 78
    },
    {
      "midi": 65,
      "hit": false,
      "t": 23454.521999999983,
      "d": 272.72699999999895,
      "v": 77
    },
    {
      "midi": 78,
      "hit": false,
      "t": 23590.885499999964,
      "d": 136.36349999999948,
      "v": 78
    },
    {
      "midi": 77,
      "hit": false,
      "t": 23727.248999999963,
      "d": 136.36349999999948,
      "v": 78
    },
    {
      "midi": 58,
      "hit": false,
      "t": 23727.24899999998,
      "d": 818.1809999999969,
      "v": 66
    },
    {
      "midi": 78,
      "hit": false,
      "t": 23863.612499999963,
      "d": 136.36349999999948,
      "v": 83
    },
    {
      "midi": 77,
      "hit": false,
      "t": 23999.975999999962,
      "d": 136.36349999999948,
      "v": 77
    },
    {
      "midi": 61,
      "hit": false,
      "t": 23999.97599999998,
      "d": 272.72699999999895,
      "v": 69
    },
    {
      "midi": 65,
      "hit": false,
      "t": 23999.97599999998,
      "d": 272.72699999999895,
      "v": 71
    },
    {
      "midi": 76,
      "hit": false,
      "t": 24136.339499999962,
      "d": 136.36349999999948,
      "v": 76
    },
    {
      "midi": 77,
      "hit": false,
      "t": 24272.70299999996,
      "d": 136.36349999999948,
      "v": 85
    },
    {
      "midi": 61,
      "hit": false,
      "t": 24272.70299999998,
      "d": 272.72699999999895,
      "v": 78
    },
    {
      "midi": 65,
      "hit": false,
      "t": 24272.70299999998,
      "d": 272.72699999999895,
      "v": 79
    },
    {
      "midi": 82,
      "hit": false,
      "t": 24409.06649999996,
      "d": 136.36349999999948,
      "v": 88
    },
    {
      "midi": 80,
      "hit": false,
      "t": 24545.42999999996,
      "d": 102.27262500000143,
      "v": 80
    },
    {
      "midi": 60,
      "hit": false,
      "t": 24545.42999999998,
      "d": 818.1809999999969,
      "v": 69
    },
    {
      "midi": 82,
      "hit": false,
      "t": 24647.70262499996,
      "d": 68.18174999999974,
      "v": 86
    },
    {
      "midi": 80,
      "hit": false,
      "t": 24715.88437499996,
      "d": 102.27262500000143,
      "v": 75
    },
    {
      "midi": 79,
      "hit": false,
      "t": 24818.156999999963,
      "d": 136.36349999999948,
      "v": 77
    },
    {
      "midi": 66,
      "hit": false,
      "t": 24818.156999999977,
      "d": 272.72699999999895,
      "v": 70
    },
    {
      "midi": 68,
      "hit": false,
      "t": 24818.156999999977,
      "d": 272.72699999999895,
      "v": 69
    },
    {
      "midi": 80,
      "hit": false,
      "t": 24954.520499999962,
      "d": 136.36349999999948,
      "v": 82
    },
    {
      "midi": 84,
      "hit": false,
      "t": 25090.88399999996,
      "d": 136.36349999999948,
      "v": 88
    },
    {
      "midi": 66,
      "hit": false,
      "t": 25090.883999999976,
      "d": 272.72699999999895,
      "v": 78
    },
    {
      "midi": 68,
      "hit": false,
      "t": 25090.883999999976,
      "d": 272.72699999999895,
      "v": 77
    },
    {
      "midi": 82,
      "hit": false,
      "t": 25227.24749999996,
      "d": 136.36349999999948,
      "v": 76
    },
    {
      "midi": 80,
      "hit": false,
      "t": 25363.61099999996,
      "d": 136.36349999999948,
      "v": 75
    },
    {
      "midi": 61,
      "hit": false,
      "t": 25363.610999999975,
      "d": 272.72699999999895,
      "v": 69
    },
    {
      "midi": 82,
      "hit": false,
      "t": 25499.97449999996,
      "d": 136.36349999999948,
      "v": 85
    },
    {
      "midi": 80,
      "hit": false,
      "t": 25636.33799999996,
      "d": 136.36349999999948,
      "v": 77
    },
    {
      "midi": 65,
      "hit": false,
      "t": 25636.337999999974,
      "d": 272.72699999999895,
      "v": 91
    },
    {
      "midi": 68,
      "hit": false,
      "t": 25636.337999999974,
      "d": 272.72699999999895,
      "v": 91
    },
    {
      "midi": 79,
      "hit": false,
      "t": 25772.70149999996,
      "d": 136.36349999999948,
      "v": 76
    },
    {
      "midi": 80,
      "hit": false,
      "t": 25909.06499999996,
      "d": 136.36349999999948,
      "v": 84
    },
    {
      "midi": 89,
      "hit": false,
      "t": 26045.428499999958,
      "d": 136.36349999999948,
      "v": 97
    },
    {
      "midi": 87,
      "hit": false,
      "t": 26181.791999999958,
      "d": 136.36349999999948,
      "v": 80
    },
    {
      "midi": 54,
      "hit": false,
      "t": 26181.791999999972,
      "d": 272.72699999999895,
      "v": 75
    },
    {
      "midi": 85,
      "hit": false,
      "t": 26318.155499999957,
      "d": 136.36349999999948,
      "v": 75
    },
    {
      "midi": 84,
      "hit": false,
      "t": 26454.518999999957,
      "d": 136.36349999999948,
      "v": 77
    },
    {
      "midi": 61,
      "hit": false,
      "t": 26454.51899999997,
      "d": 272.72699999999895,
      "v": 101
    },
    {
      "midi": 63,
      "hit": false,
      "t": 26454.51899999997,
      "d": 272.72699999999895,
      "v": 99
    },
    {
      "midi": 70,
      "hit": false,
      "t": 26454.51899999997,
      "d": 272.72699999999895,
      "v": 99
    },
    {
      "midi": 82,
      "hit": false,
      "t": 26590.882499999956,
      "d": 136.36349999999948,
      "v": 74
    },
    {
      "midi": 80,
      "hit": false,
      "t": 26727.245999999956,
      "d": 136.36349999999948,
      "v": 73
    },
    {
      "midi": 78,
      "hit": false,
      "t": 26863.609499999955,
      "d": 136.36349999999948,
      "v": 75
    },
    {
      "midi": 77,
      "hit": false,
      "t": 26999.972999999954,
      "d": 136.36349999999948,
      "v": 76
    },
    {
      "midi": 44,
      "hit": false,
      "t": 26999.97299999997,
      "d": 204.5452499999992,
      "v": 73
    },
    {
      "midi": 75,
      "hit": false,
      "t": 27136.336499999954,
      "d": 136.36349999999948,
      "v": 72
    },
    {
      "midi": 73,
      "hit": false,
      "t": 27272.699999999953,
      "d": 136.36349999999948,
      "v": 75
    },
    {
      "midi": 53,
      "hit": false,
      "t": 27272.699999999968,
      "d": 204.5452499999992,
      "v": 101
    },
    {
      "midi": 56,
      "hit": false,
      "t": 27272.699999999968,
      "d": 204.5452499999992,
      "v": 101
    },
    {
      "midi": 61,
      "hit": false,
      "t": 27272.699999999968,
      "d": 204.5452499999992,
      "v": 101
    },
    {
      "midi": 72,
      "hit": false,
      "t": 27409.063499999953,
      "d": 136.36349999999948,
      "v": 77
    },
    {
      "midi": 70,
      "hit": false,
      "t": 27545.426999999952,
      "d": 136.36349999999948,
      "v": 76
    },
    {
      "midi": 68,
      "hit": false,
      "t": 27681.790499999952,
      "d": 136.36349999999948,
      "v": 72
    },
    {
      "midi": 69,
      "hit": false,
      "t": 27818.15399999995,
      "d": 136.36349999999948,
      "v": 85
    },
    {
      "midi": 44,
      "hit": false,
      "t": 27818.153999999966,
      "d": 204.5452499999992,
      "v": 75
    },
    {
      "midi": 72,
      "hit": false,
      "t": 27954.51749999995,
      "d": 136.36349999999948,
      "v": 84
    },
    {
      "midi": 70,
      "hit": false,
      "t": 28090.88099999995,
      "d": 136.36349999999948,
      "v": 75
    },
    {
      "midi": 54,
      "hit": false,
      "t": 28090.880999999965,
      "d": 204.5452499999992,
      "v": 101
    },
    {
      "midi": 56,
      "hit": false,
      "t": 28090.880999999965,
      "d": 204.5452499999992,
      "v": 102
    },
    {
      "midi": 65,
      "hit": false,
      "t": 28227.24449999995,
      "d": 136.36349999999948,
      "v": 67
    },
    {
      "midi": 66,
      "hit": false,
      "t": 28363.60799999995,
      "d": 136.36349999999948,
      "v": 79
    },
    {
      "midi": 54,
      "hit": false,
      "t": 28363.607999999964,
      "d": 204.5452499999992,
      "v": 82
    },
    {
      "midi": 56,
      "hit": false,
      "t": 28363.607999999964,
      "d": 204.5452499999992,
      "v": 83
    },
    {
      "midi": 60,
      "hit": false,
      "t": 28499.97149999995,
      "d": 136.36349999999948,
      "v": 65
    },
    {
      "midi": 61,
      "hit": false,
      "t": 28636.33499999995,
      "d": 272.72699999999895,
      "v": 86
    },
    {
      "midi": 49,
      "hit": false,
      "t": 28636.334999999963,
      "d": 272.72699999999895,
      "v": 69
    },
    {
      "midi": 61,
      "hit": false,
      "t": 28909.061999999947,
      "d": 204.5452499999992,
      "v": 99
    },
    {
      "midi": 53,
      "hit": false,
      "t": 28909.06199999996,
      "d": 204.5452499999992,
      "v": 100
    },
    {
      "midi": 77,
      "hit": false,
      "t": 29181.788999999946,
      "d": 204.5452499999992,
      "v": 70
    },
    {
      "midi": 77,
      "hit": false,
      "t": 29454.515999999945,
      "d": 102.27262500000143,
      "v": 92
    },
    {
      "midi": 45,
      "hit": false,
      "t": 29454.51599999996,
      "d": 204.5452499999992,
      "v": 60
    },
    {
      "midi": 78,
      "hit": false,
      "t": 29556.788624999946,
      "d": 68.18174999999974,
      "v": 96
    },
    {
      "midi": 77,
      "hit": false,
      "t": 29624.970374999946,
      "d": 102.27262500000143,
      "v": 88
    },
    {
      "midi": 76,
      "hit": false,
      "t": 29727.242999999948,
      "d": 136.36349999999948,
      "v": 91
    },
    {
      "midi": 53,
      "hit": false,
      "t": 29727.24299999996,
      "d": 204.5452499999992,
      "v": 80
    },
    {
      "midi": 60,
      "hit": false,
      "t": 29727.24299999996,
      "d": 204.5452499999992,
      "v": 80
    },
    {
      "midi": 63,
      "hit": false,
      "t": 29727.24299999996,
      "d": 204.5452499999992,
      "v": 78
    },
    {
      "midi": 77,
      "hit": false,
      "t": 29863.606499999947,
      "d": 136.36349999999948,
      "v": 94
    },
    {
      "midi": 80,
      "hit": false,
      "t": 29999.969999999947,
      "d": 136.36349999999948,
      "v": 98
    },
    {
      "midi": 53,
      "hit": false,
      "t": 29999.969999999958,
      "d": 204.5452499999992,
      "v": 64
    },
    {
      "midi": 60,
      "hit": false,
      "t": 29999.969999999958,
      "d": 204.5452499999992,
      "v": 66
    },
    {
      "midi": 63,
      "hit": false,
      "t": 29999.969999999958,
      "d": 204.5452499999992,
      "v": 65
    },
    {
      "midi": 78,
      "hit": false,
      "t": 30136.333499999946,
      "d": 136.36349999999948,
      "v": 86
    },
    {
      "midi": 77,
      "hit": false,
      "t": 30272.696999999946,
      "d": 136.36349999999948,
      "v": 88
    },
    {
      "midi": 46,
      "hit": false,
      "t": 30272.696999999956,
      "d": 204.5452499999992,
      "v": 48
    },
    {
      "midi": 78,
      "hit": false,
      "t": 30409.060499999945,
      "d": 136.36349999999948,
      "v": 95
    },
    {
      "midi": 77,
      "hit": false,
      "t": 30545.423999999944,
      "d": 136.36349999999948,
      "v": 87
    },
    {
      "midi": 53,
      "hit": false,
      "t": 30545.423999999955,
      "d": 204.5452499999992,
      "v": 78
    },
    {
      "midi": 61,
      "hit": false,
      "t": 30545.423999999955,
      "d": 204.5452499999992,
      "v": 76
    },
    {
      "midi": 76,
      "hit": false,
      "t": 30681.787499999944,
      "d": 136.36349999999948,
      "v": 88
    },
    {
      "midi": 77,
      "hit": false,
      "t": 30818.150999999943,
      "d": 136.36349999999948,
      "v": 97
    },
    {
      "midi": 53,
      "hit": false,
      "t": 30818.150999999954,
      "d": 204.5452499999992,
      "v": 64
    },
    {
      "midi": 61,
      "hit": false,
      "t": 30818.150999999954,
      "d": 204.5452499999992,
      "v": 66
    },
    {
      "midi": 82,
      "hit": false,
      "t": 30954.514499999943,
      "d": 136.36349999999948,
      "v": 104
    },
    {
      "midi": 80,
      "hit": false,
      "t": 31090.877999999942,
      "d": 102.27262500000143,
      "v": 91
    },
    {
      "midi": 48,
      "hit": false,
      "t": 31090.877999999953,
      "d": 204.5452499999992,
      "v": 46
    },
    {
      "midi": 82,
      "hit": false,
      "t": 31193.150624999944,
      "d": 68.18174999999974,
      "v": 97
    },
    {
      "midi": 80,
      "hit": false,
      "t": 31261.332374999944,
      "d": 102.27262500000143,
      "v": 85
    },
    {
      "midi": 79,
      "hit": false,
      "t": 31363.604999999945,
      "d": 136.36349999999948,
      "v": 88
    },
    {
      "midi": 56,
      "hit": false,
      "t": 31363.604999999952,
      "d": 204.5452499999992,
      "v": 79
    },
    {
      "midi": 63,
      "hit": false,
      "t": 31363.604999999952,
      "d": 204.5452499999992,
      "v": 77
    },
    {
      "midi": 66,
      "hit": false,
      "t": 31363.604999999952,
      "d": 204.5452499999992,
      "v": 75
    },
    {
      "midi": 80,
      "hit": false,
      "t": 31499.968499999944,
      "d": 136.36349999999948,
      "v": 94
    },
    {
      "midi": 84,
      "hit": false,
      "t": 31636.331999999944,
      "d": 136.36349999999948,
      "v": 100
    },
    {
      "midi": 56,
      "hit": false,
      "t": 31636.33199999995,
      "d": 204.5452499999992,
      "v": 65
    },
    {
      "midi": 63,
      "hit": false,
      "t": 31636.33199999995,
      "d": 204.5452499999992,
      "v": 67
    },
    {
      "midi": 66,
      "hit": false,
      "t": 31636.33199999995,
      "d": 204.5452499999992,
      "v": 65
    },
    {
      "midi": 82,
      "hit": false,
      "t": 31772.695499999943,
      "d": 136.36349999999948,
      "v": 88
    },
    {
      "midi": 80,
      "hit": false,
      "t": 31909.058999999943,
      "d": 136.36349999999948,
      "v": 89
    },
    {
      "midi": 49,
      "hit": false,
      "t": 31909.05899999995,
      "d": 136.36349999999948,
      "v": 48
    },
    {
      "midi": 82,
      "hit": false,
      "t": 32045.422499999942,
      "d": 136.36349999999948,
      "v": 98
    },
    {
      "midi": 80,
      "hit": false,
      "t": 32181.785999999942,
      "d": 136.36349999999948,
      "v": 86
    },
    {
      "midi": 56,
      "hit": false,
      "t": 32181.78599999995,
      "d": 204.5452499999992,
      "v": 78
    },
    {
      "midi": 65,
      "hit": false,
      "t": 32181.78599999995,
      "d": 204.5452499999992,
      "v": 75
    },
    {
      "midi": 79,
      "hit": false,
      "t": 32318.14949999994,
      "d": 136.36349999999948,
      "v": 85
    },
    {
      "midi": 80,
      "hit": false,
      "t": 32454.51299999994,
      "d": 136.36349999999948,
      "v": 93
    },
    {
      "midi": 85,
      "hit": false,
      "t": 32590.87649999994,
      "d": 136.36349999999948,
      "v": 105
    },
    {
      "midi": 84,
      "hit": false,
      "t": 32727.23999999994,
      "d": 136.36349999999948,
      "v": 94
    },
    {
      "midi": 54,
      "hit": false,
      "t": 32727.239999999947,
      "d": 272.72699999999895,
      "v": 58
    },
    {
      "midi": 82,
      "hit": false,
      "t": 32863.60349999994,
      "d": 136.36349999999948,
      "v": 83
    },
    {
      "midi": 80,
      "hit": false,
      "t": 32999.96699999994,
      "d": 136.36349999999948,
      "v": 80
    },
    {
      "midi": 58,
      "hit": false,
      "t": 32999.966999999946,
      "d": 204.54525000000285,
      "v": 77
    },
    {
      "midi": 63,
      "hit": false,
      "t": 32999.966999999946,
      "d": 204.54525000000285,
      "v": 74
    },
    {
      "midi": 78,
      "hit": false,
      "t": 33136.33049999994,
      "d": 136.36349999999948,
      "v": 77
    },
    {
      "midi": 77,
      "hit": false,
      "t": 33272.69399999994,
      "d": 136.36349999999948,
      "v": 79
    },
    {
      "midi": 75,
      "hit": false,
      "t": 33409.05749999994,
      "d": 136.36349999999948,
      "v": 76
    },
    {
      "midi": 73,
      "hit": false,
      "t": 33545.42099999994,
      "d": 136.36349999999948,
      "v": 73
    },
    {
      "midi": 44,
      "hit": false,
      "t": 33545.42099999995,
      "d": 204.54525000000285,
      "v": 61
    },
    {
      "midi": 72,
      "hit": false,
      "t": 33681.784499999936,
      "d": 136.36349999999948,
      "v": 70
    },
    {
      "midi": 70,
      "hit": false,
      "t": 33818.147999999936,
      "d": 136.36349999999948,
      "v": 67
    },
    {
      "midi": 53,
      "hit": false,
      "t": 33818.14799999996,
      "d": 204.54525000000285,
      "v": 79
    },
    {
      "midi": 56,
      "hit": false,
      "t": 33818.14799999996,
      "d": 204.54525000000285,
      "v": 78
    },
    {
      "midi": 61,
      "hit": false,
      "t": 33818.14799999996,
      "d": 204.54525000000285,
      "v": 80
    },
    {
      "midi": 68,
      "hit": false,
      "t": 33954.511499999935,
      "d": 136.36349999999948,
      "v": 65
    },
    {
      "midi": 66,
      "hit": false,
      "t": 34090.874999999935,
      "d": 136.36349999999948,
      "v": 63
    },
    {
      "midi": 65,
      "hit": false,
      "t": 34227.238499999934,
      "d": 136.36349999999948,
      "v": 59
    },
    {
      "midi": 63,
      "hit": false,
      "t": 34363.60199999993,
      "d": 136.36349999999948,
      "v": 60
    },
    {
      "midi": 44,
      "hit": false,
      "t": 34363.60199999996,
      "d": 204.54525000000285,
      "v": 60
    },
    {
      "midi": 61,
      "hit": false,
      "t": 34499.96549999993,
      "d": 136.36349999999948,
      "v": 53
    },
    {
      "midi": 60,
      "hit": false,
      "t": 34636.32899999993,
      "d": 136.36349999999948,
      "v": 54
    },
    {
      "midi": 54,
      "hit": false,
      "t": 34636.32899999997,
      "d": 204.54525000000285,
      "v": 83
    },
    {
      "midi": 56,
      "hit": false,
      "t": 34636.32899999997,
      "d": 204.54525000000285,
      "v": 82
    },
    {
      "midi": 63,
      "hit": false,
      "t": 34772.69249999993,
      "d": 136.36349999999948,
      "v": 61
    },
    {
      "midi": 70,
      "hit": false,
      "t": 34909.05599999993,
      "d": 136.36349999999948,
      "v": 69
    },
    {
      "midi": 54,
      "hit": false,
      "t": 34909.055999999975,
      "d": 204.54525000000285,
      "v": 78
    },
    {
      "midi": 56,
      "hit": false,
      "t": 34909.055999999975,
      "d": 204.54525000000285,
      "v": 80
    },
    {
      "midi": 60,
      "hit": false,
      "t": 34909.055999999975,
      "d": 204.54525000000285,
      "v": 79
    },
    {
      "midi": 68,
      "hit": false,
      "t": 35045.41949999993,
      "d": 136.36349999999948,
      "v": 62
    },
    {
      "midi": 67,
      "hit": false,
      "t": 35181.78299999993,
      "d": 136.36349999999948,
      "v": 63
    },
    {
      "midi": 49,
      "hit": false,
      "t": 35181.78299999998,
      "d": 204.54525000000285,
      "v": 58
    },
    {
      "midi": 68,
      "hit": false,
      "t": 35318.14649999993,
      "d": 136.36349999999948,
      "v": 70
    },
    {
      "midi": 70,
      "hit": false,
      "t": 35454.50999999993,
      "d": 136.36349999999948,
      "v": 73
    },
    {
      "midi": 53,
      "hit": false,
      "t": 35454.50999999999,
      "d": 204.54525000000285,
      "v": 91
    },
    {
      "midi": 56,
      "hit": false,
      "t": 35454.50999999999,
      "d": 204.54525000000285,
      "v": 91
    },
    {
      "midi": 61,
      "hit": false,
      "t": 35454.50999999999,
      "d": 204.54525000000285,
      "v": 93
    },
    {
      "midi": 72,
      "hit": false,
      "t": 35590.87349999993,
      "d": 136.36349999999948,
      "v": 80
    },
    {
      "midi": 73,
      "hit": false,
      "t": 35727.23699999993,
      "d": 136.36349999999948,
      "v": 81
    },
    {
      "midi": 75,
      "hit": false,
      "t": 35863.60049999993,
      "d": 136.36349999999948,
      "v": 86
    },
    {
      "midi": 77,
      "hit": false,
      "t": 35999.96399999993,
      "d": 102.27262499999779,
      "v": 89
    },
    {
      "midi": 57,
      "hit": false,
      "t": 35999.96399999999,
      "d": 818.1809999999969,
      "v": 62
    },
    {
      "midi": 78,
      "hit": false,
      "t": 36102.236624999925,
      "d": 68.18175000000338,
      "v": 84
    },
    {
      "midi": 77,
      "hit": false,
      "t": 36170.41837499993,
      "d": 102.27262499999779,
      "v": 78
    },
    {
      "midi": 76,
      "hit": false,
      "t": 36272.690999999926,
      "d": 136.36349999999948,
      "v": 79
    },
    {
      "midi": 63,
      "hit": false,
      "t": 36272.69099999999,
      "d": 272.72699999999895,
      "v": 72
    },
    {
      "midi": 65,
      "hit": false,
      "t": 36272.69099999999,
      "d": 272.72699999999895,
      "v": 70
    },
    {
      "midi": 77,
      "hit": false,
      "t": 36409.054499999926,
      "d": 136.36349999999948,
      "v": 81
    },
    {
      "midi": 80,
      "hit": false,
      "t": 36545.417999999925,
      "d": 136.36349999999948,
      "v": 87
    },
    {
      "midi": 63,
      "hit": false,
      "t": 36545.41799999999,
      "d": 272.72699999999895,
      "v": 77
    },
    {
      "midi": 65,
      "hit": false,
      "t": 36545.41799999999,
      "d": 272.72699999999895,
      "v": 77
    },
    {
      "midi": 78,
      "hit": false,
      "t": 36681.781499999925,
      "d": 136.36349999999948,
      "v": 75
    },
    {
      "midi": 77,
      "hit": false,
      "t": 36818.144999999924,
      "d": 136.36349999999948,
      "v": 79
    },
    {
      "midi": 58,
      "hit": false,
      "t": 36818.14499999999,
      "d": 818.1809999999969,
      "v": 70
    },
    {
      "midi": 78,
      "hit": false,
      "t": 36954.50849999992,
      "d": 136.36349999999948,
      "v": 82
    },
    {
      "midi": 77,
      "hit": false,
      "t": 37090.87199999992,
      "d": 136.36349999999948,
      "v": 77
    },
    {
      "midi": 61,
      "hit": false,
      "t": 37090.87199999999,
      "d": 272.72699999999895,
      "v": 70
    },
    {
      "midi": 65,
      "hit": false,
      "t": 37090.87199999999,
      "d": 272.72699999999895,
      "v": 71
    },
    {
      "midi": 76,
      "hit": false,
      "t": 37227.23549999992,
      "d": 136.36349999999948,
      "v": 75
    },
    {
      "midi": 77,
      "hit": false,
      "t": 37363.59899999992,
      "d": 136.36349999999948,
      "v": 85
    },
    {
      "midi": 61,
      "hit": false,
      "t": 37363.59899999999,
      "d": 272.72699999999895,
      "v": 78
    },
    {
      "midi": 65,
      "hit": false,
      "t": 37363.59899999999,
      "d": 272.72699999999895,
      "v": 80
    },
    {
      "midi": 82,
      "hit": false,
      "t": 37499.96249999992,
      "d": 136.36349999999948,
      "v": 90
    },
    {
      "midi": 80,
      "hit": false,
      "t": 37636.32599999992,
      "d": 102.27262499999779,
      "v": 79
    },
    {
      "midi": 60,
      "hit": false,
      "t": 37636.32599999999,
      "d": 818.1809999999969,
      "v": 70
    },
    {
      "midi": 82,
      "hit": false,
      "t": 37738.59862499992,
      "d": 68.18175000000338,
      "v": 84
    },
    {
      "midi": 80,
      "hit": false,
      "t": 37806.78037499992,
      "d": 102.27262499999779,
      "v": 76
    },
    {
      "midi": 79,
      "hit": false,
      "t": 37909.05299999992,
      "d": 136.36349999999948,
      "v": 79
    },
    {
      "midi": 66,
      "hit": false,
      "t": 37909.052999999985,
      "d": 272.72699999999895,
      "v": 70
    },
    {
      "midi": 68,
      "hit": false,
      "t": 37909.052999999985,
      "d": 272.72699999999895,
      "v": 69
    },
    {
      "midi": 80,
      "hit": false,
      "t": 38045.41649999992,
      "d": 136.36349999999948,
      "v": 82
    },
    {
      "midi": 84,
      "hit": false,
      "t": 38181.77999999992,
      "d": 136.36349999999948,
      "v": 86
    },
    {
      "midi": 66,
      "hit": false,
      "t": 38181.779999999984,
      "d": 272.72699999999895,
      "v": 78
    },
    {
      "midi": 68,
      "hit": false,
      "t": 38181.779999999984,
      "d": 272.72699999999895,
      "v": 77
    },
    {
      "midi": 82,
      "hit": false,
      "t": 38318.14349999992,
      "d": 136.36349999999948,
      "v": 75
    },
    {
      "midi": 80,
      "hit": false,
      "t": 38454.50699999992,
      "d": 136.36349999999948,
      "v": 78
    },
    {
      "midi": 61,
      "hit": false,
      "t": 38454.50699999998,
      "d": 272.72699999999895,
      "v": 66
    },
    {
      "midi": 82,
      "hit": false,
      "t": 38590.87049999992,
      "d": 136.36349999999948,
      "v": 82
    },
    {
      "midi": 80,
      "hit": false,
      "t": 38727.23399999992,
      "d": 136.36349999999948,
      "v": 73
    },
    {
      "midi": 65,
      "hit": false,
      "t": 38727.23399999998,
      "d": 272.72699999999895,
      "v": 90
    },
    {
      "midi": 68,
      "hit": false,
      "t": 38727.23399999998,
      "d": 272.72699999999895,
      "v": 91
    },
    {
      "midi": 79,
      "hit": false,
      "t": 38863.597499999916,
      "d": 136.36349999999948,
      "v": 75
    },
    {
      "midi": 80,
      "hit": false,
      "t": 38999.960999999916,
      "d": 136.36349999999948,
      "v": 83
    },
    {
      "midi": 89,
      "hit": false,
      "t": 39136.324499999915,
      "d": 136.36349999999948,
      "v": 99
    },
    {
      "midi": 87,
      "hit": false,
      "t": 39272.687999999915,
      "d": 136.36349999999948,
      "v": 82
    },
    {
      "midi": 54,
      "hit": false,
      "t": 39272.68799999998,
      "d": 272.72699999999895,
      "v": 72
    },
    {
      "midi": 85,
      "hit": false,
      "t": 39409.051499999914,
      "d": 136.36349999999948,
      "v": 77
    },
    {
      "midi": 84,
      "hit": false,
      "t": 39545.41499999991,
      "d": 136.36349999999948,
      "v": 77
    },
    {
      "midi": 61,
      "hit": false,
      "t": 39545.41499999998,
      "d": 272.72699999999895,
      "v": 102
    },
    {
      "midi": 63,
      "hit": false,
      "t": 39545.41499999998,
      "d": 272.72699999999895,
      "v": 99
    },
    {
      "midi": 70,
      "hit": false,
      "t": 39545.41499999998,
      "d": 272.72699999999895,
      "v": 100
    },
    {
      "midi": 82,
      "hit": false,
      "t": 39681.77849999991,
      "d": 136.36349999999948,
      "v": 73
    },
    {
      "midi": 80,
      "hit": false,
      "t": 39818.14199999991,
      "d": 136.36349999999948,
      "v": 73
    },
    {
      "midi": 78,
      "hit": false,
      "t": 39954.50549999991,
      "d": 136.36349999999948,
      "v": 75
    },
    {
      "midi": 77,
      "hit": false,
      "t": 40090.86899999991,
      "d": 136.36349999999948,
      "v": 77
    },
    {
      "midi": 44,
      "hit": false,
      "t": 40090.86899999998,
      "d": 204.54525000000285,
      "v": 75
    },
    {
      "midi": 75,
      "hit": false,
      "t": 40227.23249999991,
      "d": 136.36349999999948,
      "v": 74
    },
    {
      "midi": 73,
      "hit": false,
      "t": 40363.59599999991,
      "d": 136.36349999999948,
      "v": 75
    },
    {
      "midi": 53,
      "hit": false,
      "t": 40363.59599999998,
      "d": 204.54525000000285,
      "v": 99
    },
    {
      "midi": 56,
      "hit": false,
      "t": 40363.59599999998,
      "d": 204.54525000000285,
      "v": 101
    },
    {
      "midi": 61,
      "hit": false,
      "t": 40363.59599999998,
      "d": 204.54525000000285,
      "v": 101
    },
    {
      "midi": 72,
      "hit": false,
      "t": 40499.95949999991,
      "d": 136.36349999999948,
      "v": 75
    },
    {
      "midi": 70,
      "hit": false,
      "t": 40636.32299999991,
      "d": 136.36349999999948,
      "v": 75
    },
    {
      "midi": 68,
      "hit": false,
      "t": 40772.68649999991,
      "d": 136.36349999999948,
      "v": 74
    },
    {
      "midi": 69,
      "hit": false,
      "t": 40909.04999999991,
      "d": 136.36349999999948,
      "v": 87
    },
    {
      "midi": 44,
      "hit": false,
      "t": 40909.04999999999,
      "d": 204.54525000000285,
      "v": 72
    },
    {
      "midi": 72,
      "hit": false,
      "t": 41045.41349999991,
      "d": 136.36349999999948,
      "v": 86
    },
    {
      "midi": 70,
      "hit": false,
      "t": 41181.77699999991,
      "d": 136.36349999999948,
      "v": 76
    },
    {
      "midi": 54,
      "hit": false,
      "t": 41181.776999999995,
      "d": 204.54525000000285,
      "v": 99
    },
    {
      "midi": 56,
      "hit": false,
      "t": 41181.776999999995,
      "d": 204.54525000000285,
      "v": 98
    },
    {
      "midi": 65,
      "hit": false,
      "t": 41318.14049999991,
      "d": 136.36349999999948,
      "v": 66
    },
    {
      "midi": 66,
      "hit": false,
      "t": 41454.503999999906,
      "d": 136.36349999999948,
      "v": 83
    },
    {
      "midi": 54,
      "hit": false,
      "t": 41454.504,
      "d": 204.54525000000285,
      "v": 81
    },
    {
      "midi": 56,
      "hit": false,
      "t": 41454.504,
      "d": 204.54525000000285,
      "v": 82
    },
    {
      "midi": 60,
      "hit": false,
      "t": 41590.867499999906,
      "d": 136.36349999999948,
      "v": 65
    },
    {
      "midi": 61,
      "hit": false,
      "t": 41727.230999999905,
      "d": 272.72699999999895,
      "v": 82
    },
    {
      "midi": 49,
      "hit": false,
      "t": 41727.23100000001,
      "d": 272.72699999999895,
      "v": 69
    },
    {
      "midi": 61,
      "hit": false,
      "t": 41999.957999999904,
      "d": 272.72699999999895,
      "v": 57
    },
    {
      "midi": 53,
      "hit": false,
      "t": 41999.958000000006,
      "d": 272.72699999999895,
      "v": 58
    },
    {
      "midi": 68,
      "hit": false,
      "t": 42272.6849999999,
      "d": 818.1809999999969,
      "v": 44
    },
    {
      "midi": 44,
      "hit": false,
      "t": 42545.412000000004,
      "d": 204.54525000000285,
      "v": 35
    },
    {
      "midi": 54,
      "hit": false,
      "t": 42818.13900000001,
      "d": 204.54525000000285,
      "v": 45
    },
    {
      "midi": 56,
      "hit": false,
      "t": 42818.13900000001,
      "d": 204.54525000000285,
      "v": 42
    },
    {
      "midi": 60,
      "hit": false,
      "t": 42818.13900000001,
      "d": 204.54525000000285,
      "v": 44
    },
    {
      "midi": 63,
      "hit": false,
      "t": 43090.8659999999,
      "d": 272.72699999999895,
      "v": 42
    },
    {
      "midi": 54,
      "hit": false,
      "t": 43090.866000000016,
      "d": 204.54525000000285,
      "v": 36
    },
    {
      "midi": 56,
      "hit": false,
      "t": 43090.866000000016,
      "d": 204.54525000000285,
      "v": 35
    },
    {
      "midi": 60,
      "hit": false,
      "t": 43090.866000000016,
      "d": 204.54525000000285,
      "v": 37
    },
    {
      "midi": 68,
      "hit": false,
      "t": 43363.5929999999,
      "d": 545.4539999999979,
      "v": 57
    },
    {
      "midi": 54,
      "hit": false,
      "t": 43363.59300000002,
      "d": 204.54525000000285,
      "v": 37
    },
    {
      "midi": 56,
      "hit": false,
      "t": 43363.59300000002,
      "d": 204.54525000000285,
      "v": 39
    },
    {
      "midi": 60,
      "hit": false,
      "t": 43363.59300000002,
      "d": 204.54525000000285,
      "v": 37
    },
    {
      "midi": 54,
      "hit": false,
      "t": 43636.32000000003,
      "d": 204.54525000000285,
      "v": 36
    },
    {
      "midi": 56,
      "hit": false,
      "t": 43636.32000000003,
      "d": 204.54525000000285,
      "v": 36
    },
    {
      "midi": 60,
      "hit": false,
      "t": 43636.32000000003,
      "d": 204.54525000000285,
      "v": 37
    },
    {
      "midi": 64,
      "hit": false,
      "t": 43909.0469999999,
      "d": 272.72699999999895,
      "v": 42
    },
    {
      "midi": 54,
      "hit": false,
      "t": 43909.047000000035,
      "d": 204.54525000000285,
      "v": 35
    },
    {
      "midi": 56,
      "hit": false,
      "t": 43909.047000000035,
      "d": 204.54525000000285,
      "v": 35
    },
    {
      "midi": 60,
      "hit": false,
      "t": 43909.047000000035,
      "d": 204.54525000000285,
      "v": 36
    },
    {
      "midi": 68,
      "hit": false,
      "t": 44181.773999999896,
      "d": 545.4539999999979,
      "v": 55
    },
    {
      "midi": 49,
      "hit": false,
      "t": 44181.77400000004,
      "d": 204.54525000000285,
      "v": 28
    },
    {
      "midi": 56,
      "hit": false,
      "t": 44454.50100000005,
      "d": 204.54525000000285,
      "v": 43
    },
    {
      "midi": 61,
      "hit": false,
      "t": 44454.50100000005,
      "d": 204.54525000000285,
      "v": 41
    },
    {
      "midi": 65,
      "hit": false,
      "t": 44727.227999999894,
      "d": 272.72699999999895,
      "v": 52
    },
    {
      "midi": 56,
      "hit": false,
      "t": 44727.228000000054,
      "d": 204.54525000000285,
      "v": 35
    },
    {
      "midi": 61,
      "hit": false,
      "t": 44727.228000000054,
      "d": 204.54525000000285,
      "v": 36
    },
    {
      "midi": 77,
      "hit": false,
      "t": 44999.95499999989,
      "d": 409.0904999999984,
      "v": 78
    },
    {
      "midi": 44,
      "hit": false,
      "t": 44999.95500000006,
      "d": 204.54525000000285,
      "v": 29
    },
    {
      "midi": 65,
      "hit": false,
      "t": 45272.68199999989,
      "d": 204.54525000000285,
      "v": 43
    },
    {
      "midi": 56,
      "hit": false,
      "t": 45272.682000000066,
      "d": 204.54525000000285,
      "v": 40
    },
    {
      "midi": 61,
      "hit": false,
      "t": 45272.682000000066,
      "d": 204.54525000000285,
      "v": 41
    },
    {
      "midi": 65,
      "hit": false,
      "t": 45272.682000000066,
      "d": 204.54525000000285,
      "v": 43
    },
    {
      "midi": 77,
      "hit": false,
      "t": 45545.4089999999,
      "d": 818.1809999999969,
      "v": 72
    },
    {
      "midi": 56,
      "hit": false,
      "t": 45545.40900000007,
      "d": 204.54525000000285,
      "v": 36
    },
    {
      "midi": 61,
      "hit": false,
      "t": 45545.40900000007,
      "d": 204.54525000000285,
      "v": 35
    },
    {
      "midi": 65,
      "hit": false,
      "t": 45545.40900000007,
      "d": 204.54525000000285,
      "v": 37
    },
    {
      "midi": 51,
      "hit": false,
      "t": 45818.13600000008,
      "d": 204.54525000000285,
      "v": 29
    },
    {
      "midi": 56,
      "hit": false,
      "t": 46090.863000000085,
      "d": 204.54525000000285,
      "v": 43
    },
    {
      "midi": 60,
      "hit": false,
      "t": 46090.863000000085,
      "d": 204.54525000000285,
      "v": 43
    },
    {
      "midi": 66,
      "hit": false,
      "t": 46090.863000000085,
      "d": 204.54525000000285,
      "v": 41
    },
    {
      "midi": 70,
      "hit": false,
      "t": 46363.589999999895,
      "d": 272.72699999999895,
      "v": 56
    },
    {
      "midi": 56,
      "hit": false,
      "t": 46363.59000000009,
      "d": 204.54525000000285,
      "v": 35
    },
    {
      "midi": 60,
      "hit": false,
      "t": 46363.59000000009,
      "d": 204.54525000000285,
      "v": 36
    },
    {
      "midi": 66,
      "hit": false,
      "t": 46363.59000000009,
      "d": 204.54525000000285,
      "v": 37
    },
    {
      "midi": 77,
      "hit": false,
      "t": 46636.31699999989,
      "d": 545.4539999999979,
      "v": 79
    },
    {
      "midi": 44,
      "hit": false,
      "t": 46636.3170000001,
      "d": 204.54525000000285,
      "v": 28
    },
    {
      "midi": 56,
      "hit": false,
      "t": 46909.0440000001,
      "d": 204.54525000000285,
      "v": 43
    },
    {
      "midi": 63,
      "hit": false,
      "t": 46909.0440000001,
      "d": 204.54525000000285,
      "v": 42
    },
    {
      "midi": 66,
      "hit": false,
      "t": 46909.0440000001,
      "d": 204.54525000000285,
      "v": 42
    },
    {
      "midi": 72,
      "hit": false,
      "t": 47181.77099999989,
      "d": 272.72699999999895,
      "v": 58
    },
    {
      "midi": 56,
      "hit": false,
      "t": 47181.77100000011,
      "d": 204.54525000000285,
      "v": 36
    },
    {
      "midi": 63,
      "hit": false,
      "t": 47181.77100000011,
      "d": 204.54525000000285,
      "v": 38
    },
    {
      "midi": 66,
      "hit": false,
      "t": 47181.77100000011,
      "d": 204.54525000000285,
      "v": 38
    },
    {
      "midi": 75,
      "hit": false,
      "t": 47454.49799999989,
      "d": 545.4539999999979,
      "v": 72
    },
    {
      "midi": 49,
      "hit": false,
      "t": 47454.498000000116,
      "d": 204.54525000000285,
      "v": 28
    },
    {
      "midi": 56,
      "hit": false,
      "t": 47727.22500000012,
      "d": 204.54525000000285,
      "v": 41
    },
    {
      "midi": 61,
      "hit": false,
      "t": 47727.22500000012,
      "d": 204.54525000000285,
      "v": 41
    },
    {
      "midi": 65,
      "hit": false,
      "t": 47727.22500000012,
      "d": 204.54525000000285,
      "v": 44
    },
    {
      "midi": 73,
      "hit": false,
      "t": 47999.95199999989,
      "d": 272.72699999999895,
      "v": 56
    },
    {
      "midi": 56,
      "hit": false,
      "t": 47999.95200000013,
      "d": 204.54525000000285,
      "v": 35
    },
    {
      "midi": 61,
      "hit": false,
      "t": 47999.95200000013,
      "d": 204.54525000000285,
      "v": 35
    },
    {
      "midi": 65,
      "hit": false,
      "t": 47999.95200000013,
      "d": 204.54525000000285,
      "v": 37
    },
    {
      "midi": 72,
      "hit": false,
      "t": 48272.67899999989,
      "d": 204.54525000000285,
      "v": 55
    },
    {
      "midi": 53,
      "hit": false,
      "t": 48272.679000000135,
      "d": 204.54525000000285,
      "v": 26
    },
    {
      "midi": 75,
      "hit": false,
      "t": 48477.22424999989,
      "d": 204.54525000000285,
      "v": 55
    },
    {
      "midi": 56,
      "hit": false,
      "t": 48545.40600000014,
      "d": 204.54525000000285,
      "v": 41
    },
    {
      "midi": 61,
      "hit": false,
      "t": 48545.40600000014,
      "d": 204.54525000000285,
      "v": 41
    },
    {
      "midi": 65,
      "hit": false,
      "t": 48545.40600000014,
      "d": 204.54525000000285,
      "v": 42
    },
    {
      "midi": 73,
      "hit": false,
      "t": 48681.76949999989,
      "d": 204.54525000000285,
      "v": 45
    },
    {
      "midi": 56,
      "hit": false,
      "t": 48818.13300000015,
      "d": 204.54525000000285,
      "v": 35
    },
    {
      "midi": 61,
      "hit": false,
      "t": 48818.13300000015,
      "d": 204.54525000000285,
      "v": 38
    },
    {
      "midi": 65,
      "hit": false,
      "t": 48818.13300000015,
      "d": 204.54525000000285,
      "v": 38
    },
    {
      "midi": 70,
      "hit": false,
      "t": 48886.314749999896,
      "d": 204.54525000000285,
      "v": 43
    },
    {
      "midi": 68,
      "hit": false,
      "t": 49090.8599999999,
      "d": 545.4539999999979,
      "v": 45
    },
    {
      "midi": 48,
      "hit": false,
      "t": 49090.86000000015,
      "d": 204.54525000000285,
      "v": 29
    },
    {
      "midi": 54,
      "hit": false,
      "t": 49363.58700000016,
      "d": 204.54525000000285,
      "v": 40
    },
    {
      "midi": 56,
      "hit": false,
      "t": 49363.58700000016,
      "d": 204.54525000000285,
      "v": 40
    },
    {
      "midi": 63,
      "hit": false,
      "t": 49636.3139999999,
      "d": 272.72699999999895,
      "v": 41
    },
    {
      "midi": 54,
      "hit": false,
      "t": 49636.314000000166,
      "d": 204.54525000000285,
      "v": 36
    },
    {
      "midi": 56,
      "hit": false,
      "t": 49636.314000000166,
      "d": 204.54525000000285,
      "v": 34
    },
    {
      "midi": 68,
      "hit": false,
      "t": 49909.040999999896,
      "d": 545.4539999999979,
      "v": 56
    },
    {
      "midi": 44,
      "hit": false,
      "t": 49909.04100000017,
      "d": 204.54525000000285,
      "v": 28
    },
    {
      "midi": 54,
      "hit": false,
      "t": 50181.76800000018,
      "d": 204.54525000000285,
      "v": 40
    },
    {
      "midi": 56,
      "hit": false,
      "t": 50181.76800000018,
      "d": 204.54525000000285,
      "v": 42
    },
    {
      "midi": 60,
      "hit": false,
      "t": 50181.76800000018,
      "d": 204.54525000000285,
      "v": 41
    },
    {
      "midi": 64,
      "hit": false,
      "t": 50454.49499999989,
      "d": 272.72699999999895,
      "v": 43
    },
    {
      "midi": 54,
      "hit": false,
      "t": 50454.495000000185,
      "d": 204.54525000000285,
      "v": 36
    },
    {
      "midi": 56,
      "hit": false,
      "t": 50454.495000000185,
      "d": 204.54525000000285,
      "v": 35
    },
    {
      "midi": 60,
      "hit": false,
      "t": 50454.495000000185,
      "d": 204.54525000000285,
      "v": 38
    },
    {
      "midi": 68,
      "hit": false,
      "t": 50727.22199999989,
      "d": 545.4539999999979,
      "v": 57
    },
    {
      "midi": 49,
      "hit": false,
      "t": 50727.22200000019,
      "d": 204.54525000000285,
      "v": 27
    },
    {
      "midi": 56,
      "hit": false,
      "t": 50999.9490000002,
      "d": 204.54525000000285,
      "v": 51
    },
    {
      "midi": 61,
      "hit": false,
      "t": 50999.9490000002,
      "d": 204.54525000000285,
      "v": 51
    },
    {
      "midi": 65,
      "hit": false,
      "t": 51272.67599999989,
      "d": 272.72699999999895,
      "v": 57
    },
    {
      "midi": 56,
      "hit": false,
      "t": 51272.6760000002,
      "d": 204.54525000000285,
      "v": 50
    },
    {
      "midi": 61,
      "hit": false,
      "t": 51272.6760000002,
      "d": 204.54525000000285,
      "v": 50
    },
    {
      "midi": 77,
      "hit": false,
      "t": 51545.40299999989,
      "d": 818.1810000000041,
      "v": 83
    },
    {
      "midi": 47,
      "hit": false,
      "t": 51545.40300000021,
      "d": 204.54525000000285,
      "v": 42
    },
    {
      "midi": 56,
      "hit": false,
      "t": 51818.130000000216,
      "d": 204.54525000000285,
      "v": 74
    },
    {
      "midi": 61,
      "hit": false,
      "t": 51818.130000000216,
      "d": 204.54525000000285,
      "v": 73
    },
    {
      "midi": 65,
      "hit": false,
      "t": 51818.130000000216,
      "d": 204.54525000000285,
      "v": 73
    },
    {
      "midi": 65,
      "hit": false,
      "t": 52090.85699999989,
      "d": 204.54525000000285,
      "v": 69
    },
    {
      "midi": 56,
      "hit": false,
      "t": 52090.85700000022,
      "d": 204.54525000000285,
      "v": 69
    },
    {
      "midi": 61,
      "hit": false,
      "t": 52090.85700000022,
      "d": 204.54525000000285,
      "v": 70
    },
    {
      "midi": 65,
      "hit": false,
      "t": 52090.85700000022,
      "d": 204.54525000000285,
      "v": 69
    },
    {
      "midi": 72,
      "hit": false,
      "t": 52363.58399999989,
      "d": 68.18175000000338,
      "v": 63
    },
    {
      "midi": 48,
      "hit": false,
      "t": 52363.58400000023,
      "d": 204.54525000000285,
      "v": 57
    },
    {
      "midi": 73,
      "hit": false,
      "t": 52431.7657499999,
      "d": 34.09087500000169,
      "v": 66
    },
    {
      "midi": 72,
      "hit": false,
      "t": 52465.8566249999,
      "d": 68.18175000000338,
      "v": 61
    },
    {
      "midi": 73,
      "hit": false,
      "t": 52534.0383749999,
      "d": 34.09087500000169,
      "v": 67
    },
    {
      "midi": 72,
      "hit": false,
      "t": 52568.1292499999,
      "d": 68.18175000000338,
      "v": 59
    },
    {
      "midi": 71,
      "hit": false,
      "t": 52636.31099999991,
      "d": 272.72699999999895,
      "v": 61
    },
    {
      "midi": 56,
      "hit": false,
      "t": 52636.311000000234,
      "d": 204.54525000000285,
      "v": 91
    },
    {
      "midi": 60,
      "hit": false,
      "t": 52636.311000000234,
      "d": 204.54525000000285,
      "v": 91
    },
    {
      "midi": 65,
      "hit": false,
      "t": 52636.311000000234,
      "d": 204.54525000000285,
      "v": 89
    },
    {
      "midi": 72,
      "hit": false,
      "t": 52909.037999999906,
      "d": 272.72699999999895,
      "v": 66
    },
    {
      "midi": 56,
      "hit": false,
      "t": 52909.03800000024,
      "d": 204.54525000000285,
      "v": 74
    },
    {
      "midi": 60,
      "hit": false,
      "t": 52909.03800000024,
      "d": 204.54525000000285,
      "v": 73
    },
    {
      "midi": 65,
      "hit": false,
      "t": 52909.03800000024,
      "d": 204.54525000000285,
      "v": 74
    },
    {
      "midi": 80,
      "hit": false,
      "t": 53181.764999999905,
      "d": 272.72699999999895,
      "v": 78
    },
    {
      "midi": 36,
      "hit": false,
      "t": 53181.76500000025,
      "d": 204.54525000000285,
      "v": 58
    },
    {
      "midi": 70,
      "hit": false,
      "t": 53454.491999999904,
      "d": 272.72699999999895,
      "v": 50
    },
    {
      "midi": 55,
      "hit": false,
      "t": 53454.49200000025,
      "d": 204.54525000000285,
      "v": 91
    },
    {
      "midi": 60,
      "hit": false,
      "t": 53454.49200000025,
      "d": 204.54525000000285,
      "v": 88
    },
    {
      "midi": 64,
      "hit": false,
      "t": 53454.49200000025,
      "d": 204.54525000000285,
      "v": 90
    },
    {
      "midi": 79,
      "hit": false,
      "t": 53727.2189999999,
      "d": 272.72699999999895,
      "v": 76
    },
    {
      "midi": 69,
      "hit": false,
      "t": 53999.9459999999,
      "d": 272.72699999999895,
      "v": 56
    },
    {
      "midi": 41,
      "hit": false,
      "t": 53999.94600000026,
      "d": 204.54525000000285,
      "v": 58
    },
    {
      "midi": 78,
      "hit": false,
      "t": 54272.6729999999,
      "d": 272.72699999999895,
      "v": 79
    },
    {
      "midi": 68,
      "hit": false,
      "t": 54545.3999999999,
      "d": 272.72699999999895,
      "v": 49
    },
    {
      "midi": 53,
      "hit": false,
      "t": 54545.40000000026,
      "d": 204.54525000000285,
      "v": 45
    },
    {
      "midi": 60,
      "hit": false,
      "t": 54545.40000000026,
      "d": 204.54525000000285,
      "v": 44
    },
    {
      "midi": 77,
      "hit": false,
      "t": 54818.1269999999,
      "d": 272.72699999999895,
      "v": 71
    },
    {
      "midi": 65,
      "hit": false,
      "t": 55090.8539999999,
      "d": 272.72699999999895,
      "v": 41
    },
    {
      "midi": 70,
      "hit": false,
      "t": 55363.5809999999,
      "d": 272.72699999999895,
      "v": 54
    },
    {
      "midi": 68,
      "hit": false,
      "t": 55636.307999999895,
      "d": 545.4539999999979,
      "v": 48
    },
    {
      "midi": 48,
      "hit": false,
      "t": 55636.30800000027,
      "d": 204.54525000000285,
      "v": 44
    },
    {
      "midi": 54,
      "hit": false,
      "t": 55909.03500000027,
      "d": 204.54525000000285,
      "v": 53
    },
    {
      "midi": 56,
      "hit": false,
      "t": 55909.03500000027,
      "d": 204.54525000000285,
      "v": 50
    },
    {
      "midi": 63,
      "hit": false,
      "t": 56181.76199999989,
      "d": 204.54525000000285,
      "v": 47
    },
    {
      "midi": 54,
      "hit": false,
      "t": 56181.76200000028,
      "d": 204.54525000000285,
      "v": 45
    },
    {
      "midi": 56,
      "hit": false,
      "t": 56181.76200000028,
      "d": 204.54525000000285,
      "v": 43
    },
    {
      "midi": 80,
      "hit": false,
      "t": 56386.307249999896,
      "d": 68.18175000000338,
      "v": 63
    },
    {
      "midi": 68,
      "hit": false,
      "t": 56454.4889999999,
      "d": 545.4539999999979,
      "v": 39
    },
    {
      "midi": 44,
      "hit": false,
      "t": 56454.489000000285,
      "d": 204.54525000000285,
      "v": 32
    },
    {
      "midi": 54,
      "hit": false,
      "t": 56727.21600000029,
      "d": 204.54525000000285,
      "v": 54
    },
    {
      "midi": 56,
      "hit": false,
      "t": 56727.21600000029,
      "d": 204.54525000000285,
      "v": 52
    },
    {
      "midi": 60,
      "hit": false,
      "t": 56727.21600000029,
      "d": 204.54525000000285,
      "v": 54
    },
    {
      "midi": 64,
      "hit": false,
      "t": 56999.9429999999,
      "d": 204.54525000000285,
      "v": 43
    },
    {
      "midi": 54,
      "hit": false,
      "t": 56999.9430000003,
      "d": 204.54525000000285,
      "v": 44
    },
    {
      "midi": 56,
      "hit": false,
      "t": 56999.9430000003,
      "d": 204.54525000000285,
      "v": 44
    },
    {
      "midi": 60,
      "hit": false,
      "t": 56999.9430000003,
      "d": 204.54525000000285,
      "v": 44
    },
    {
      "midi": 80,
      "hit": false,
      "t": 57204.4882499999,
      "d": 68.18175000000338,
      "v": 62
    },
    {
      "midi": 68,
      "hit": false,
      "t": 57272.669999999904,
      "d": 545.4539999999979,
      "v": 39
    },
    {
      "midi": 49,
      "hit": false,
      "t": 57272.670000000304,
      "d": 204.54525000000285,
      "v": 35
    },
    {
      "midi": 56,
      "hit": false,
      "t": 57545.39700000031,
      "d": 204.54525000000285,
      "v": 55
    },
    {
      "midi": 61,
      "hit": false,
      "t": 57545.39700000031,
      "d": 204.54525000000285,
      "v": 52
    },
    {
      "midi": 65,
      "hit": false,
      "t": 57818.1239999999,
      "d": 204.54525000000285,
      "v": 46
    },
    {
      "midi": 56,
      "hit": false,
      "t": 57818.124000000316,
      "d": 204.54525000000285,
      "v": 47
    },
    {
      "midi": 61,
      "hit": false,
      "t": 57818.124000000316,
      "d": 204.54525000000285,
      "v": 46
    },
    {
      "midi": 80,
      "hit": false,
      "t": 58022.669249999904,
      "d": 68.18175000000338,
      "v": 60
    },
    {
      "midi": 77,
      "hit": false,
      "t": 58090.85099999991,
      "d": 409.0904999999984,
      "v": 48
    },
    {
      "midi": 44,
      "hit": false,
      "t": 58090.85100000032,
      "d": 204.54525000000285,
      "v": 35
    },
    {
      "midi": 65,
      "hit": false,
      "t": 58363.57799999991,
      "d": 204.54525000000285,
      "v": 52
    },
    {
      "midi": 56,
      "hit": false,
      "t": 58363.57800000033,
      "d": 204.54525000000285,
      "v": 54
    },
    {
      "midi": 61,
      "hit": false,
      "t": 58363.57800000033,
      "d": 204.54525000000285,
      "v": 53
    },
    {
      "midi": 65,
      "hit": false,
      "t": 58363.57800000033,
      "d": 204.54525000000285,
      "v": 52
    },
    {
      "midi": 77,
      "hit": false,
      "t": 58636.30499999991,
      "d": 204.54525000000285,
      "v": 50
    },
    {
      "midi": 56,
      "hit": false,
      "t": 58636.305000000335,
      "d": 204.54525000000285,
      "v": 47
    },
    {
      "midi": 61,
      "hit": false,
      "t": 58636.305000000335,
      "d": 204.54525000000285,
      "v": 44
    },
    {
      "midi": 65,
      "hit": false,
      "t": 58636.305000000335,
      "d": 204.54525000000285,
      "v": 43
    },
    {
      "midi": 80,
      "hit": false,
      "t": 58840.850249999916,
      "d": 68.18175000000338,
      "v": 55
    },
    {
      "midi": 77,
      "hit": false,
      "t": 58909.03199999992,
      "d": 545.4539999999979,
      "v": 47
    },
    {
      "midi": 51,
      "hit": false,
      "t": 58909.03200000034,
      "d": 204.54525000000285,
      "v": 33
    },
    {
      "midi": 56,
      "hit": false,
      "t": 59181.75900000035,
      "d": 204.54525000000285,
      "v": 54
    },
    {
      "midi": 60,
      "hit": false,
      "t": 59181.75900000035,
      "d": 204.54525000000285,
      "v": 53
    },
    {
      "midi": 66,
      "hit": false,
      "t": 59181.75900000035,
      "d": 204.54525000000285,
      "v": 51
    },
    {
      "midi": 70,
      "hit": false,
      "t": 59454.48599999992,
      "d": 204.54525000000285,
      "v": 42
    },
    {
      "midi": 56,
      "hit": false,
      "t": 59454.486000000354,
      "d": 204.54525000000285,
      "v": 47
    },
    {
      "midi": 60,
      "hit": false,
      "t": 59454.486000000354,
      "d": 204.54525000000285,
      "v": 46
    },
    {
      "midi": 66,
      "hit": false,
      "t": 59454.486000000354,
      "d": 204.54525000000285,
      "v": 45
    },
    {
      "midi": 80,
      "hit": false,
      "t": 59659.03124999992,
      "d": 68.18175000000338,
      "v": 59
    },
    {
      "midi": 77,
      "hit": false,
      "t": 59727.21299999992,
      "d": 545.4539999999979,
      "v": 49
    },
    {
      "midi": 44,
      "hit": false,
      "t": 59727.21300000036,
      "d": 204.54525000000285,
      "v": 33
    },
    {
      "midi": 56,
      "hit": false,
      "t": 59999.940000000366,
      "d": 204.54525000000285,
      "v": 51
    },
    {
      "midi": 63,
      "hit": false,
      "t": 59999.940000000366,
      "d": 204.54525000000285,
      "v": 52
    },
    {
      "midi": 66,
      "hit": false,
      "t": 59999.940000000366,
      "d": 204.54525000000285,
      "v": 54
    },
    {
      "midi": 72,
      "hit": false,
      "t": 60272.66699999992,
      "d": 204.54525000000285,
      "v": 46
    },
    {
      "midi": 56,
      "hit": false,
      "t": 60272.66700000037,
      "d": 204.54525000000285,
      "v": 47
    },
    {
      "midi": 63,
      "hit": false,
      "t": 60272.66700000037,
      "d": 204.54525000000285,
      "v": 45
    },
    {
      "midi": 66,
      "hit": false,
      "t": 60272.66700000037,
      "d": 204.54525000000285,
      "v": 44
    },
    {
      "midi": 80,
      "hit": false,
      "t": 60477.212249999924,
      "d": 68.18175000000338,
      "v": 59
    },
    {
      "midi": 75,
      "hit": false,
      "t": 60545.39399999993,
      "d": 272.72699999999895,
      "v": 49
    },
    {
      "midi": 49,
      "hit": false,
      "t": 60545.39400000038,
      "d": 204.54525000000285,
      "v": 35
    },
    {
      "midi": 73,
      "hit": false,
      "t": 60818.12099999993,
      "d": 272.72699999999895,
      "v": 45
    },
    {
      "midi": 56,
      "hit": false,
      "t": 60818.121000000385,
      "d": 204.54525000000285,
      "v": 52
    },
    {
      "midi": 61,
      "hit": false,
      "t": 60818.121000000385,
      "d": 204.54525000000285,
      "v": 53
    },
    {
      "midi": 65,
      "hit": false,
      "t": 60818.121000000385,
      "d": 204.54525000000285,
      "v": 52
    },
    {
      "midi": 72,
      "hit": false,
      "t": 61090.847999999925,
      "d": 204.54525000000285,
      "v": 49
    },
    {
      "midi": 56,
      "hit": false,
      "t": 61090.84800000039,
      "d": 204.54525000000285,
      "v": 43
    },
    {
      "midi": 61,
      "hit": false,
      "t": 61090.84800000039,
      "d": 204.54525000000285,
      "v": 45
    },
    {
      "midi": 65,
      "hit": false,
      "t": 61090.84800000039,
      "d": 204.54525000000285,
      "v": 45
    },
    {
      "midi": 80,
      "hit": false,
      "t": 61295.39324999993,
      "d": 68.18175000000338,
      "v": 58
    },
    {
      "midi": 75,
      "hit": false,
      "t": 61363.57499999993,
      "d": 272.72699999999895,
      "v": 47
    },
    {
      "midi": 53,
      "hit": false,
      "t": 61363.5750000004,
      "d": 204.54525000000285,
      "v": 35
    },
    {
      "midi": 73,
      "hit": false,
      "t": 61636.30199999993,
      "d": 409.0904999999984,
      "v": 45
    },
    {
      "midi": 56,
      "hit": false,
      "t": 61636.3020000004,
      "d": 204.54525000000285,
      "v": 53
    },
    {
      "midi": 61,
      "hit": false,
      "t": 61636.3020000004,
      "d": 204.54525000000285,
      "v": 53
    },
    {
      "midi": 65,
      "hit": false,
      "t": 61636.3020000004,
      "d": 204.54525000000285,
      "v": 54
    },
    {
      "midi": 56,
      "hit": false,
      "t": 61909.02900000041,
      "d": 204.54525000000285,
      "v": 45
    },
    {
      "midi": 61,
      "hit": false,
      "t": 61909.02900000041,
      "d": 204.54525000000285,
      "v": 46
    },
    {
      "midi": 65,
      "hit": false,
      "t": 61909.02900000041,
      "d": 204.54525000000285,
      "v": 45
    },
    {
      "midi": 70,
      "hit": false,
      "t": 62045.39249999993,
      "d": 68.18175000000338,
      "v": 44
    },
    {
      "midi": 80,
      "hit": false,
      "t": 62113.57424999993,
      "d": 68.18175000000338,
      "v": 60
    },
    {
      "midi": 68,
      "hit": false,
      "t": 62181.755999999936,
      "d": 545.4539999999979,
      "v": 39
    },
    {
      "midi": 48,
      "hit": false,
      "t": 62181.756000000416,
      "d": 818.1810000000114,
      "v": 28
    },
    {
      "midi": 54,
      "hit": false,
      "t": 62454.483000000415,
      "d": 204.54525000000285,
      "v": 39
    },
    {
      "midi": 56,
      "hit": false,
      "t": 62454.483000000415,
      "d": 204.54525000000285,
      "v": 41
    },
    {
      "midi": 63,
      "hit": false,
      "t": 62727.209999999934,
      "d": 204.54525000000285,
      "v": 42
    },
    {
      "midi": 54,
      "hit": false,
      "t": 62727.21000000042,
      "d": 204.54525000000285,
      "v": 44
    },
    {
      "midi": 56,
      "hit": false,
      "t": 62727.21000000042,
      "d": 204.54525000000285,
      "v": 44
    },
    {
      "midi": 80,
      "hit": false,
      "t": 62931.75524999994,
      "d": 68.18175000000338,
      "v": 59
    },
    {
      "midi": 68,
      "hit": false,
      "t": 62999.93699999994,
      "d": 545.4539999999979,
      "v": 39
    },
    {
      "midi": 44,
      "hit": false,
      "t": 62999.93700000043,
      "d": 204.54525000000285,
      "v": 33
    },
    {
      "midi": 54,
      "hit": false,
      "t": 63272.66400000043,
      "d": 204.54525000000285,
      "v": 54
    },
    {
      "midi": 56,
      "hit": false,
      "t": 63272.66400000043,
      "d": 204.54525000000285,
      "v": 52
    },
    {
      "midi": 60,
      "hit": false,
      "t": 63272.66400000043,
      "d": 204.54525000000285,
      "v": 52
    },
    {
      "midi": 64,
      "hit": false,
      "t": 63545.39099999994,
      "d": 204.54525000000285,
      "v": 44
    },
    {
      "midi": 54,
      "hit": false,
      "t": 63545.39100000044,
      "d": 204.54525000000285,
      "v": 44
    },
    {
      "midi": 56,
      "hit": false,
      "t": 63545.39100000044,
      "d": 204.54525000000285,
      "v": 46
    },
    {
      "midi": 60,
      "hit": false,
      "t": 63545.39100000044,
      "d": 204.54525000000285,
      "v": 45
    },
    {
      "midi": 80,
      "hit": false,
      "t": 63749.93624999994,
      "d": 68.18175000000338,
      "v": 62
    },
    {
      "midi": 68,
      "hit": false,
      "t": 63818.117999999944,
      "d": 545.4539999999979,
      "v": 39
    },
    {
      "midi": 47,
      "hit": false,
      "t": 63818.118000000446,
      "d": 204.54525000000285,
      "v": 33
    },
    {
      "midi": 53,
      "hit": false,
      "t": 64090.84500000045,
      "d": 204.54525000000285,
      "v": 61
    },
    {
      "midi": 56,
      "hit": false,
      "t": 64090.84500000045,
      "d": 204.54525000000285,
      "v": 60
    },
    {
      "midi": 63,
      "hit": false,
      "t": 64090.84500000045,
      "d": 204.54525000000285,
      "v": 59
    },
    {
      "midi": 65,
      "hit": false,
      "t": 64363.57199999994,
      "d": 272.72699999999895,
      "v": 57
    },
    {
      "midi": 53,
      "hit": false,
      "t": 64363.57200000046,
      "d": 204.54525000000285,
      "v": 58
    },
    {
      "midi": 56,
      "hit": false,
      "t": 64363.57200000046,
      "d": 204.54525000000285,
      "v": 59
    },
    {
      "midi": 63,
      "hit": false,
      "t": 64363.57200000046,
      "d": 204.54525000000285,
      "v": 57
    },
    {
      "midi": 77,
      "hit": false,
      "t": 64636.29899999994,
      "d": 818.1810000000041,
      "v": 96
    },
    {
      "midi": 46,
      "hit": false,
      "t": 64636.299000000465,
      "d": 204.54525000000285,
      "v": 44
    },
    {
      "midi": 53,
      "hit": false,
      "t": 64909.02600000047,
      "d": 204.54525000000285,
      "v": 80
    },
    {
      "midi": 56,
      "hit": false,
      "t": 64909.02600000047,
      "d": 204.54525000000285,
      "v": 82
    },
    {
      "midi": 62,
      "hit": false,
      "t": 64909.02600000047,
      "d": 204.54525000000285,
      "v": 81
    },
    {
      "midi": 62,
      "hit": false,
      "t": 65181.75299999994,
      "d": 204.54525000000285,
      "v": 67
    },
    {
      "midi": 53,
      "hit": false,
      "t": 65181.75300000048,
      "d": 204.54525000000285,
      "v": 67
    },
    {
      "midi": 56,
      "hit": false,
      "t": 65181.75300000048,
      "d": 204.54525000000285,
      "v": 68
    },
    {
      "midi": 62,
      "hit": false,
      "t": 65181.75300000048,
      "d": 204.54525000000285,
      "v": 67
    },
    {
      "midi": 77,
      "hit": false,
      "t": 65454.479999999945,
      "d": 545.4540000000052,
      "v": 108
    },
    {
      "midi": 51,
      "hit": false,
      "t": 65454.48000000048,
      "d": 204.54525000000285,
      "v": 50
    },
    {
      "midi": 61,
      "hit": false,
      "t": 65727.20700000049,
      "d": 204.54524999999558,
      "v": 80
    },
    {
      "midi": 67,
      "hit": false,
      "t": 65727.20700000049,
      "d": 204.54524999999558,
      "v": 80
    },
    {
      "midi": 70,
      "hit": false,
      "t": 65999.93399999995,
      "d": 272.72699999999895,
      "v": 71
    },
    {
      "midi": 61,
      "hit": false,
      "t": 65999.93400000049,
      "d": 204.54524999999558,
      "v": 67
    },
    {
      "midi": 67,
      "hit": false,
      "t": 65999.93400000049,
      "d": 204.54524999999558,
      "v": 69
    },
    {
      "midi": 75,
      "hit": false,
      "t": 66272.66099999995,
      "d": 545.4539999999979,
      "v": 88
    },
    {
      "midi": 61,
      "hit": false,
      "t": 66545.38800000049,
      "d": 204.54524999999558,
      "v": 56
    },
    {
      "midi": 66,
      "hit": false,
      "t": 66545.38800000049,
      "d": 204.54524999999558,
      "v": 56
    },
    {
      "midi": 69,
      "hit": false,
      "t": 66818.11499999995,
      "d": 272.72699999999895,
      "v": 54
    },
    {
      "midi": 61,
      "hit": false,
      "t": 66818.11500000049,
      "d": 204.54524999999558,
      "v": 62
    },
    {
      "midi": 66,
      "hit": false,
      "t": 66818.11500000049,
      "d": 204.54524999999558,
      "v": 64
    },
    {
      "midi": 75,
      "hit": false,
      "t": 67090.84199999995,
      "d": 272.72699999999895,
      "v": 74
    },
    {
      "midi": 56,
      "hit": false,
      "t": 67090.84200000048,
      "d": 409.0905000000057,
      "v": 42
    },
    {
      "midi": 68,
      "hit": false,
      "t": 67363.56899999994,
      "d": 272.72699999999895,
      "v": 55
    },
    {
      "midi": 60,
      "hit": false,
      "t": 67363.56900000048,
      "d": 204.54525000001013,
      "v": 55
    },
    {
      "midi": 66,
      "hit": false,
      "t": 67363.56900000048,
      "d": 204.54525000001013,
      "v": 58
    },
    {
      "midi": 74,
      "hit": false,
      "t": 67636.29599999994,
      "d": 272.72699999999895,
      "v": 70
    },
    {
      "midi": 77,
      "hit": false,
      "t": 67909.02299999994,
      "d": 272.72699999999895,
      "v": 74
    },
    {
      "midi": 75,
      "hit": false,
      "t": 68181.74999999994,
      "d": 272.72699999999895,
      "v": 60
    },
    {
      "midi": 80,
      "hit": false,
      "t": 68454.47699999994,
      "d": 272.72699999999895,
      "v": 69
    },
    {
      "midi": 68,
      "hit": false,
      "t": 68999.93099999994,
      "d": 409.0905000000057,
      "v": 56
    },
    {
      "midi": 70,
      "hit": false,
      "t": 69545.38499999995,
      "d": 136.36350000000675,
      "v": 66
    },
    {
      "midi": 68,
      "hit": false,
      "t": 69681.74849999996,
      "d": 68.18175000000338,
      "v": 58
    },
    {
      "midi": 70,
      "hit": false,
      "t": 69749.93024999996,
      "d": 68.18175000000338,
      "v": 67
    },
    {
      "midi": 68,
      "hit": false,
      "t": 69818.11199999996,
      "d": 68.18175000000338,
      "v": 61
    },
    {
      "midi": 70,
      "hit": false,
      "t": 69886.29374999997,
      "d": 68.18175000000338,
      "v": 68
    },
    {
      "midi": 68,
      "hit": false,
      "t": 69954.47549999997,
      "d": 68.18175000000338,
      "v": 60
    },
    {
      "midi": 70,
      "hit": false,
      "t": 70022.65724999997,
      "d": 68.18175000000338,
      "v": 64
    },
    {
      "midi": 68,
      "hit": false,
      "t": 70090.83899999998,
      "d": 68.18175000000338,
      "v": 61
    },
    {
      "midi": 70,
      "hit": false,
      "t": 70159.02074999998,
      "d": 68.18175000000338,
      "v": 68
    },
    {
      "midi": 68,
      "hit": false,
      "t": 70227.20249999998,
      "d": 68.18175000000338,
      "v": 58
    },
    {
      "midi": 70,
      "hit": false,
      "t": 70295.38424999999,
      "d": 68.18175000000338,
      "v": 65
    },
    {
      "midi": 68,
      "hit": false,
      "t": 70363.56599999999,
      "d": 68.18175000000338,
      "v": 63
    },
    {
      "midi": 70,
      "hit": false,
      "t": 70431.74775,
      "d": 68.18175000000338,
      "v": 65
    },
    {
      "midi": 68,
      "hit": false,
      "t": 70499.9295,
      "d": 68.18175000000338,
      "v": 61
    },
    {
      "midi": 70,
      "hit": false,
      "t": 70568.11125,
      "d": 68.18175000000338,
      "v": 68
    },
    {
      "midi": 68,
      "hit": false,
      "t": 70636.293,
      "d": 68.18175000000338,
      "v": 61
    },
    {
      "midi": 70,
      "hit": false,
      "t": 70704.47475000001,
      "d": 68.18175000000338,
      "v": 68
    },
    {
      "midi": 68,
      "hit": false,
      "t": 70772.65650000001,
      "d": 68.18175000000338,
      "v": 57
    },
    {
      "midi": 70,
      "hit": false,
      "t": 70840.83825000002,
      "d": 68.18175000000338,
      "v": 66
    },
    {
      "midi": 68,
      "hit": false,
      "t": 70909.02000000002,
      "d": 68.18175000000338,
      "v": 61
    },
    {
      "midi": 70,
      "hit": false,
      "t": 70977.20175000002,
      "d": 68.18175000000338,
      "v": 67
    },
    {
      "midi": 68,
      "hit": false,
      "t": 71045.38350000003,
      "d": 68.18175000000338,
      "v": 59
    },
    {
      "midi": 70,
      "hit": false,
      "t": 71113.56525000003,
      "d": 68.18175000000338,
      "v": 67
    },
    {
      "midi": 68,
      "hit": false,
      "t": 71181.74700000003,
      "d": 68.18175000000338,
      "v": 63
    },
    {
      "midi": 70,
      "hit": false,
      "t": 71249.92875000004,
      "d": 68.18175000000338,
      "v": 68
    },
    {
      "midi": 68,
      "hit": false,
      "t": 71318.11050000004,
      "d": 68.18175000000338,
      "v": 62
    },
    {
      "midi": 70,
      "hit": false,
      "t": 71386.29225000004,
      "d": 68.18175000000338,
      "v": 66
    },
    {
      "midi": 68,
      "hit": false,
      "t": 71454.47400000005,
      "d": 68.18175000000338,
      "v": 65
    },
    {
      "midi": 70,
      "hit": false,
      "t": 71522.65575000005,
      "d": 68.18175000000338,
      "v": 68
    },
    {
      "midi": 68,
      "hit": false,
      "t": 71590.83750000005,
      "d": 68.18175000000338,
      "v": 64
    },
    {
      "midi": 70,
      "hit": false,
      "t": 71659.01925000006,
      "d": 68.18175000000338,
      "v": 72
    },
    {
      "midi": 68,
      "hit": false,
      "t": 71727.20100000006,
      "d": 68.18175000000338,
      "v": 68
    },
    {
      "midi": 70,
      "hit": false,
      "t": 71795.38275000006,
      "d": 68.18175000000338,
      "v": 73
    },
    {
      "midi": 68,
      "hit": false,
      "t": 71863.56450000007,
      "d": 68.18175000000338,
      "v": 67
    },
    {
      "midi": 70,
      "hit": false,
      "t": 71931.74625000007,
      "d": 68.18175000000338,
      "v": 73
    },
    {
      "midi": 68,
      "hit": false,
      "t": 71999.92800000007,
      "d": 68.18175000000338,
      "v": 70
    },
    {
      "midi": 70,
      "hit": false,
      "t": 72068.10975000008,
      "d": 68.18175000000338,
      "v": 72
    },
    {
      "midi": 68,
      "hit": false,
      "t": 72136.29150000008,
      "d": 68.18175000000338,
      "v": 68
    },
    {
      "midi": 70,
      "hit": false,
      "t": 72204.47325000008,
      "d": 68.18175000000338,
      "v": 73
    },
    {
      "midi": 68,
      "hit": false,
      "t": 72272.65500000009,
      "d": 68.18175000000338,
      "v": 69
    },
    {
      "midi": 70,
      "hit": false,
      "t": 72340.83675000009,
      "d": 68.18175000000338,
      "v": 75
    },
    {
      "midi": 68,
      "hit": false,
      "t": 72409.0185000001,
      "d": 68.18175000000338,
      "v": 70
    },
    {
      "midi": 70,
      "hit": false,
      "t": 72477.2002500001,
      "d": 68.18175000000338,
      "v": 79
    },
    {
      "midi": 68,
      "hit": false,
      "t": 72545.3820000001,
      "d": 68.18175000000338,
      "v": 70
    },
    {
      "midi": 70,
      "hit": false,
      "t": 72613.5637500001,
      "d": 68.18175000000338,
      "v": 80
    },
    {
      "midi": 68,
      "hit": false,
      "t": 72681.7455000001,
      "d": 136.36350000000675,
      "v": 69
    },
    {
      "midi": 67,
      "hit": false,
      "t": 72818.10900000011,
      "d": 136.36350000000675,
      "v": 76
    },
    {
      "midi": 68,
      "hit": false,
      "t": 72954.47250000012,
      "d": 136.36350000000675,
      "v": 81
    },
    {
      "midi": 72,
      "hit": false,
      "t": 73090.83600000013,
      "d": 136.36350000000675,
      "v": 87
    },
    {
      "midi": 70,
      "hit": false,
      "t": 73227.19950000013,
      "d": 136.36350000000675,
      "v": 74
    },
    {
      "midi": 67,
      "hit": false,
      "t": 73363.56300000014,
      "d": 136.36350000000675,
      "v": 74
    },
    {
      "midi": 68,
      "hit": false,
      "t": 73499.92650000015,
      "d": 136.36350000000675,
      "v": 84
    },
    {
      "midi": 72,
      "hit": false,
      "t": 73636.29000000015,
      "d": 136.36350000000675,
      "v": 96
    },
    {
      "midi": 70,
      "hit": false,
      "t": 73772.65350000016,
      "d": 136.36350000000675,
      "v": 82
    },
    {
      "midi": 67,
      "hit": false,
      "t": 73909.01700000017,
      "d": 136.36350000000675,
      "v": 78
    },
    {
      "midi": 68,
      "hit": false,
      "t": 74045.38050000017,
      "d": 136.36350000000675,
      "v": 89
    },
    {
      "midi": 72,
      "hit": false,
      "t": 74181.74400000018,
      "d": 136.36350000000675,
      "v": 94
    },
    {
      "midi": 70,
      "hit": false,
      "t": 74318.10750000019,
      "d": 136.36350000000675,
      "v": 84
    },
    {
      "midi": 67,
      "hit": false,
      "t": 74454.4710000002,
      "d": 136.36350000000675,
      "v": 83
    },
    {
      "midi": 68,
      "hit": false,
      "t": 74590.8345000002,
      "d": 136.36350000000675,
      "v": 94
    },
    {
      "midi": 72,
      "hit": false,
      "t": 74727.19800000021,
      "d": 136.36350000000675,
      "v": 102
    },
    {
      "midi": 70,
      "hit": false,
      "t": 74863.56150000021,
      "d": 136.36350000000675,
      "v": 89
    },
    {
      "midi": 67,
      "hit": false,
      "t": 74999.92500000022,
      "d": 136.36350000000675,
      "v": 84
    },
    {
      "midi": 68,
      "hit": false,
      "t": 75136.28850000023,
      "d": 136.36350000000675,
      "v": 97
    },
    {
      "midi": 72,
      "hit": false,
      "t": 75272.65200000023,
      "d": 136.36350000000675,
      "v": 108
    },
    {
      "midi": 70,
      "hit": false,
      "t": 75409.01550000024,
      "d": 136.36350000000675,
      "v": 92
    },
    {
      "midi": 67,
      "hit": false,
      "t": 75545.37900000025,
      "d": 136.36350000000675,
      "v": 88
    },
    {
      "midi": 68,
      "hit": false,
      "t": 75681.74250000025,
      "d": 136.36350000000675,
      "v": 100
    },
    {
      "midi": 72,
      "hit": false,
      "t": 75818.10600000026,
      "d": 136.36350000000675,
      "v": 111
    },
    {
      "midi": 70,
      "hit": false,
      "t": 75954.46950000027,
      "d": 136.36350000000675,
      "v": 98
    },
    {
      "midi": 67,
      "hit": false,
      "t": 76090.83300000028,
      "d": 136.36350000000675,
      "v": 89
    },
    {
      "midi": 37,
      "hit": false,
      "t": 76090.8330000005,
      "d": 204.54524999999558,
      "v": 75
    },
    {
      "midi": 68,
      "hit": false,
      "t": 76227.19650000028,
      "d": 136.36350000000675,
      "v": 100
    },
    {
      "midi": 72,
      "hit": false,
      "t": 76363.56000000029,
      "d": 136.36350000000675,
      "v": 104
    },
    {
      "midi": 56,
      "hit": false,
      "t": 76363.56000000049,
      "d": 204.54524999999558,
      "v": 102
    },
    {
      "midi": 61,
      "hit": false,
      "t": 76363.56000000049,
      "d": 204.54524999999558,
      "v": 102
    },
    {
      "midi": 65,
      "hit": false,
      "t": 76363.56000000049,
      "d": 204.54524999999558,
      "v": 102
    },
    {
      "midi": 70,
      "hit": false,
      "t": 76499.9235000003,
      "d": 136.36350000000675,
      "v": 90
    },
    {
      "midi": 67,
      "hit": false,
      "t": 76636.2870000003,
      "d": 136.36350000000675,
      "v": 85
    },
    {
      "midi": 56,
      "hit": false,
      "t": 76636.28700000049,
      "d": 204.54524999999558,
      "v": 84
    },
    {
      "midi": 61,
      "hit": false,
      "t": 76636.28700000049,
      "d": 204.54524999999558,
      "v": 83
    },
    {
      "midi": 65,
      "hit": false,
      "t": 76636.28700000049,
      "d": 204.54524999999558,
      "v": 84
    },
    {
      "midi": 68,
      "hit": false,
      "t": 76772.65050000031,
      "d": 136.36350000000675,
      "v": 98
    },
    {
      "midi": 72,
      "hit": false,
      "t": 76909.01400000032,
      "d": 136.36350000000675,
      "v": 110
    },
    {
      "midi": 53,
      "hit": false,
      "t": 76909.01400000049,
      "d": 204.54524999999558,
      "v": 60
    },
    {
      "midi": 70,
      "hit": false,
      "t": 77045.37750000032,
      "d": 136.36350000000675,
      "v": 90
    },
    {
      "midi": 67,
      "hit": false,
      "t": 77181.74100000033,
      "d": 136.36350000000675,
      "v": 88
    },
    {
      "midi": 56,
      "hit": false,
      "t": 77181.74100000049,
      "d": 204.54524999999558,
      "v": 99
    },
    {
      "midi": 61,
      "hit": false,
      "t": 77181.74100000049,
      "d": 204.54524999999558,
      "v": 97
    },
    {
      "midi": 65,
      "hit": false,
      "t": 77181.74100000049,
      "d": 204.54524999999558,
      "v": 97
    },
    {
      "midi": 68,
      "hit": false,
      "t": 77318.10450000034,
      "d": 136.36350000000675,
      "v": 98
    },
    {
      "midi": 72,
      "hit": false,
      "t": 77454.46800000034,
      "d": 136.36350000000675,
      "v": 104
    },
    {
      "midi": 56,
      "hit": false,
      "t": 77454.46800000049,
      "d": 204.54524999999558,
      "v": 82
    },
    {
      "midi": 61,
      "hit": false,
      "t": 77454.46800000049,
      "d": 204.54524999999558,
      "v": 83
    },
    {
      "midi": 65,
      "hit": false,
      "t": 77454.46800000049,
      "d": 204.54524999999558,
      "v": 85
    },
    {
      "midi": 70,
      "hit": false,
      "t": 77590.83150000035,
      "d": 136.36350000000675,
      "v": 92
    },
    {
      "midi": 67,
      "hit": false,
      "t": 77727.19500000036,
      "d": 136.36350000000675,
      "v": 91
    },
    {
      "midi": 49,
      "hit": false,
      "t": 77727.19500000049,
      "d": 204.54524999999558,
      "v": 60
    },
    {
      "midi": 68,
      "hit": false,
      "t": 77863.55850000036,
      "d": 136.36350000000675,
      "v": 100
    },
    {
      "midi": 72,
      "hit": false,
      "t": 77999.92200000037,
      "d": 136.36350000000675,
      "v": 106
    },
    {
      "midi": 56,
      "hit": false,
      "t": 77999.92200000049,
      "d": 204.54524999999558,
      "v": 96
    },
    {
      "midi": 61,
      "hit": false,
      "t": 77999.92200000049,
      "d": 204.54524999999558,
      "v": 98
    },
    {
      "midi": 65,
      "hit": false,
      "t": 77999.92200000049,
      "d": 204.54524999999558,
      "v": 96
    },
    {
      "midi": 70,
      "hit": false,
      "t": 78136.28550000038,
      "d": 136.36350000000675,
      "v": 92
    },
    {
      "midi": 67,
      "hit": false,
      "t": 78272.64900000038,
      "d": 136.36350000000675,
      "v": 86
    },
    {
      "midi": 56,
      "hit": false,
      "t": 78272.64900000049,
      "d": 204.54524999999558,
      "v": 85
    },
    {
      "midi": 61,
      "hit": false,
      "t": 78272.64900000049,
      "d": 204.54524999999558,
      "v": 83
    },
    {
      "midi": 65,
      "hit": false,
      "t": 78272.64900000049,
      "d": 204.54524999999558,
      "v": 84
    },
    {
      "midi": 68,
      "hit": false,
      "t": 78409.01250000039,
      "d": 136.36350000000675,
      "v": 100
    },
    {
      "midi": 70,
      "hit": false,
      "t": 78545.3760000004,
      "d": 136.36350000000675,
      "v": 106
    },
    {
      "midi": 53,
      "hit": false,
      "t": 78545.37600000048,
      "d": 204.54524999999558,
      "v": 60
    },
    {
      "midi": 72,
      "hit": false,
      "t": 78681.7395000004,
      "d": 136.36350000000675,
      "v": 101
    },
    {
      "midi": 73,
      "hit": false,
      "t": 78818.10300000041,
      "d": 136.36350000000675,
      "v": 101
    },
    {
      "midi": 56,
      "hit": false,
      "t": 78818.10300000048,
      "d": 204.54524999999558,
      "v": 97
    },
    {
      "midi": 61,
      "hit": false,
      "t": 78818.10300000048,
      "d": 204.54524999999558,
      "v": 97
    },
    {
      "midi": 65,
      "hit": false,
      "t": 78818.10300000048,
      "d": 204.54524999999558,
      "v": 97
    },
    {
      "midi": 75,
      "hit": false,
      "t": 78954.46650000042,
      "d": 136.36350000000675,
      "v": 104
    },
    {
      "midi": 77,
      "hit": false,
      "t": 79090.83000000042,
      "d": 136.36350000000675,
      "v": 100
    },
    {
      "midi": 56,
      "hit": false,
      "t": 79090.83000000048,
      "d": 204.54524999999558,
      "v": 84
    },
    {
      "midi": 61,
      "hit": false,
      "t": 79090.83000000048,
      "d": 204.54524999999558,
      "v": 83
    },
    {
      "midi": 65,
      "hit": false,
      "t": 79090.83000000048,
      "d": 204.54524999999558,
      "v": 82
    },
    {
      "midi": 78,
      "hit": false,
      "t": 79227.19350000043,
      "d": 136.36350000000675,
      "v": 103
    },
    {
      "midi": 82,
      "hit": false,
      "t": 79363.55700000044,
      "d": 409.0905000000057,
      "v": 109
    },
    {
      "midi": 44,
      "hit": false,
      "t": 79363.55700000048,
      "d": 204.54524999999558,
      "v": 61
    },
    {
      "midi": 56,
      "hit": false,
      "t": 79636.28400000048,
      "d": 204.54524999999558,
      "v": 99
    },
    {
      "midi": 60,
      "hit": false,
      "t": 79636.28400000048,
      "d": 204.54524999999558,
      "v": 99
    },
    {
      "midi": 66,
      "hit": false,
      "t": 79636.28400000048,
      "d": 204.54524999999558,
      "v": 96
    },
    {
      "midi": 80,
      "hit": false,
      "t": 79772.64750000044,
      "d": 136.36350000000675,
      "v": 88
    },
    {
      "midi": 78,
      "hit": false,
      "t": 79909.01100000045,
      "d": 136.36350000000675,
      "v": 84
    },
    {
      "midi": 56,
      "hit": false,
      "t": 79909.01100000048,
      "d": 204.54524999999558,
      "v": 84
    },
    {
      "midi": 60,
      "hit": false,
      "t": 79909.01100000048,
      "d": 204.54524999999558,
      "v": 82
    },
    {
      "midi": 66,
      "hit": false,
      "t": 79909.01100000048,
      "d": 204.54524999999558,
      "v": 83
    },
    {
      "midi": 77,
      "hit": false,
      "t": 80045.37450000046,
      "d": 136.36350000000675,
      "v": 84
    },
    {
      "midi": 77,
      "hit": false,
      "t": 80181.73800000046,
      "d": 136.36350000000675,
      "v": 88
    },
    {
      "midi": 51,
      "hit": false,
      "t": 80181.73800000048,
      "d": 204.54524999999558,
      "v": 60
    },
    {
      "midi": 75,
      "hit": false,
      "t": 80318.10150000047,
      "d": 136.36350000000675,
      "v": 78
    },
    {
      "midi": 75,
      "hit": false,
      "t": 80454.46500000048,
      "d": 34.09087499999441,
      "v": 84
    },
    {
      "midi": 56,
      "hit": false,
      "t": 80454.46500000048,
      "d": 204.54524999999558,
      "v": 100
    },
    {
      "midi": 60,
      "hit": false,
      "t": 80454.46500000048,
      "d": 204.54524999999558,
      "v": 97
    },
    {
      "midi": 66,
      "hit": false,
      "t": 80454.46500000048,
      "d": 204.54524999999558,
      "v": 100
    },
    {
      "midi": 77,
      "hit": false,
      "t": 80488.55587500047,
      "d": 68.18175000000338,
      "v": 88
    },
    {
      "midi": 75,
      "hit": false,
      "t": 80556.73762500047,
      "d": 34.09087499999441,
      "v": 78
    },
    {
      "midi": 74,
      "hit": false,
      "t": 80590.82850000047,
      "d": 136.36350000000675,
      "v": 75
    },
    {
      "midi": 75,
      "hit": false,
      "t": 80727.19200000048,
      "d": 272.72699999999895,
      "v": 82
    },
    {
      "midi": 56,
      "hit": false,
      "t": 80727.19200000048,
      "d": 204.54524999999558,
      "v": 81
    },
    {
      "midi": 60,
      "hit": false,
      "t": 80727.19200000048,
      "d": 204.54524999999558,
      "v": 81
    },
    {
      "midi": 66,
      "hit": false,
      "t": 80727.19200000048,
      "d": 204.54524999999558,
      "v": 85
    },
    {
      "midi": 82,
      "hit": false,
      "t": 80999.91900000047,
      "d": 409.0905000000057,
      "v": 98
    },
    {
      "midi": 44,
      "hit": false,
      "t": 80999.91900000047,
      "d": 204.54524999999558,
      "v": 58
    },
    {
      "midi": 56,
      "hit": false,
      "t": 81272.64600000047,
      "d": 204.54524999999558,
      "v": 87
    },
    {
      "midi": 60,
      "hit": false,
      "t": 81272.64600000047,
      "d": 204.54524999999558,
      "v": 86
    },
    {
      "midi": 66,
      "hit": false,
      "t": 81272.64600000047,
      "d": 204.54524999999558,
      "v": 87
    },
    {
      "midi": 80,
      "hit": false,
      "t": 81409.00950000048,
      "d": 136.36350000000675,
      "v": 72
    },
    {
      "midi": 56,
      "hit": false,
      "t": 81545.37300000047,
      "d": 204.54524999999558,
      "v": 71
    },
    {
      "midi": 60,
      "hit": false,
      "t": 81545.37300000047,
      "d": 204.54524999999558,
      "v": 70
    },
    {
      "midi": 66,
      "hit": false,
      "t": 81545.37300000047,
      "d": 204.54524999999558,
      "v": 72
    },
    {
      "midi": 78,
      "hit": false,
      "t": 81545.37300000049,
      "d": 136.36350000000675,
      "v": 72
    },
    {
      "midi": 77,
      "hit": false,
      "t": 81681.7365000005,
      "d": 136.36350000000675,
      "v": 68
    },
    {
      "midi": 56,
      "hit": false,
      "t": 81818.10000000047,
      "d": 204.54524999999558,
      "v": 53
    },
    {
      "midi": 77,
      "hit": false,
      "t": 81818.1000000005,
      "d": 136.36350000000675,
      "v": 70
    },
    {
      "midi": 75,
      "hit": false,
      "t": 81954.46350000051,
      "d": 34.09087499999441,
      "v": 61
    },
    {
      "midi": 77,
      "hit": false,
      "t": 81988.5543750005,
      "d": 68.18175000000338,
      "v": 68
    },
    {
      "midi": 75,
      "hit": false,
      "t": 82056.7361250005,
      "d": 34.09087499999441,
      "v": 59
    },
    {
      "midi": 60,
      "hit": false,
      "t": 82090.82700000047,
      "d": 204.54524999999558,
      "v": 75
    },
    {
      "midi": 66,
      "hit": false,
      "t": 82090.82700000047,
      "d": 204.54524999999558,
      "v": 77
    },
    {
      "midi": 74,
      "hit": false,
      "t": 82090.8270000005,
      "d": 136.36350000000675,
      "v": 64
    },
    {
      "midi": 75,
      "hit": false,
      "t": 82227.1905000005,
      "d": 136.36350000000675,
      "v": 65
    },
    {
      "midi": 60,
      "hit": false,
      "t": 82363.55400000047,
      "d": 204.54524999999558,
      "v": 50
    },
    {
      "midi": 66,
      "hit": false,
      "t": 82363.55400000047,
      "d": 204.54524999999558,
      "v": 50
    },
    {
      "midi": 77,
      "hit": false,
      "t": 82363.55400000051,
      "d": 136.36350000000675,
      "v": 66
    },
    {
      "midi": 70,
      "hit": false,
      "t": 82499.91750000052,
      "d": 136.36350000000675,
      "v": 52
    },
    {
      "midi": 49,
      "hit": false,
      "t": 82636.28100000047,
      "d": 204.54524999999558,
      "v": 37
    },
    {
      "midi": 67,
      "hit": false,
      "t": 82636.28100000053,
      "d": 136.36350000000675,
      "v": 58
    },
    {
      "midi": 68,
      "hit": false,
      "t": 82772.64450000053,
      "d": 136.36350000000675,
      "v": 66
    },
    {
      "midi": 56,
      "hit": false,
      "t": 82909.00800000047,
      "d": 204.54524999999558,
      "v": 60
    },
    {
      "midi": 61,
      "hit": false,
      "t": 82909.00800000047,
      "d": 204.54524999999558,
      "v": 59
    },
    {
      "midi": 65,
      "hit": false,
      "t": 82909.00800000047,
      "d": 204.54524999999558,
      "v": 59
    },
    {
      "midi": 72,
      "hit": false,
      "t": 82909.00800000054,
      "d": 136.36350000000675,
      "v": 68
    },
    {
      "midi": 70,
      "hit": false,
      "t": 83045.37150000055,
      "d": 136.36350000000675,
      "v": 59
    },
    {
      "midi": 56,
      "hit": false,
      "t": 83181.73500000047,
      "d": 204.54524999999558,
      "v": 48
    },
    {
      "midi": 61,
      "hit": false,
      "t": 83181.73500000047,
      "d": 204.54524999999558,
      "v": 47
    },
    {
      "midi": 65,
      "hit": false,
      "t": 83181.73500000047,
      "d": 204.54524999999558,
      "v": 50
    },
    {
      "midi": 67,
      "hit": false,
      "t": 83181.73500000055,
      "d": 136.36350000000675,
      "v": 57
    },
    {
      "midi": 68,
      "hit": false,
      "t": 83318.09850000056,
      "d": 136.36350000000675,
      "v": 62
    },
    {
      "midi": 53,
      "hit": false,
      "t": 83454.46200000047,
      "d": 204.54524999999558,
      "v": 38
    },
    {
      "midi": 72,
      "hit": false,
      "t": 83454.46200000057,
      "d": 136.36350000000675,
      "v": 71
    },
    {
      "midi": 70,
      "hit": false,
      "t": 83590.82550000057,
      "d": 136.36350000000675,
      "v": 60
    },
    {
      "midi": 56,
      "hit": false,
      "t": 83727.18900000046,
      "d": 204.54524999999558,
      "v": 56
    },
    {
      "midi": 61,
      "hit": false,
      "t": 83727.18900000046,
      "d": 204.54524999999558,
      "v": 56
    },
    {
      "midi": 65,
      "hit": false,
      "t": 83727.18900000046,
      "d": 204.54524999999558,
      "v": 56
    },
    {
      "midi": 67,
      "hit": false,
      "t": 83727.18900000058,
      "d": 136.36350000000675,
      "v": 56
    },
    {
      "midi": 68,
      "hit": false,
      "t": 83863.55250000059,
      "d": 136.36350000000675,
      "v": 63
    },
    {
      "midi": 56,
      "hit": false,
      "t": 83999.91600000046,
      "d": 204.54524999999558,
      "v": 47
    },
    {
      "midi": 61,
      "hit": false,
      "t": 83999.91600000046,
      "d": 204.54524999999558,
      "v": 48
    },
    {
      "midi": 65,
      "hit": false,
      "t": 83999.91600000046,
      "d": 204.54524999999558,
      "v": 50
    },
    {
      "midi": 72,
      "hit": false,
      "t": 83999.9160000006,
      "d": 136.36350000000675,
      "v": 69
    },
    {
      "midi": 70,
      "hit": false,
      "t": 84136.2795000006,
      "d": 136.36350000000675,
      "v": 60
    },
    {
      "midi": 49,
      "hit": false,
      "t": 84272.64300000046,
      "d": 204.54524999999558,
      "v": 36
    },
    {
      "midi": 67,
      "hit": false,
      "t": 84272.64300000061,
      "d": 136.36350000000675,
      "v": 60
    },
    {
      "midi": 68,
      "hit": false,
      "t": 84409.00650000061,
      "d": 136.36350000000675,
      "v": 63
    },
    {
      "midi": 56,
      "hit": false,
      "t": 84545.37000000046,
      "d": 204.54524999999558,
      "v": 59
    },
    {
      "midi": 61,
      "hit": false,
      "t": 84545.37000000046,
      "d": 204.54524999999558,
      "v": 59
    },
    {
      "midi": 65,
      "hit": false,
      "t": 84545.37000000046,
      "d": 204.54524999999558,
      "v": 59
    },
    {
      "midi": 72,
      "hit": false,
      "t": 84545.37000000062,
      "d": 136.36350000000675,
      "v": 70
    },
    {
      "midi": 70,
      "hit": false,
      "t": 84681.73350000063,
      "d": 136.36350000000675,
      "v": 62
    },
    {
      "midi": 56,
      "hit": false,
      "t": 84818.09700000046,
      "d": 204.54524999999558,
      "v": 55
    },
    {
      "midi": 61,
      "hit": false,
      "t": 84818.09700000046,
      "d": 204.54524999999558,
      "v": 59
    },
    {
      "midi": 65,
      "hit": false,
      "t": 84818.09700000046,
      "d": 204.54524999999558,
      "v": 55
    },
    {
      "midi": 67,
      "hit": false,
      "t": 84818.09700000063,
      "d": 136.36350000000675,
      "v": 59
    },
    {
      "midi": 68,
      "hit": false,
      "t": 84954.46050000064,
      "d": 136.36350000000675,
      "v": 65
    },
    {
      "midi": 53,
      "hit": false,
      "t": 85090.82400000046,
      "d": 204.54524999999558,
      "v": 47
    },
    {
      "midi": 70,
      "hit": false,
      "t": 85090.82400000065,
      "d": 136.36350000000675,
      "v": 76
    },
    {
      "midi": 72,
      "hit": false,
      "t": 85227.18750000065,
      "d": 136.36350000000675,
      "v": 79
    },
    {
      "midi": 56,
      "hit": false,
      "t": 85363.55100000046,
      "d": 204.54524999999558,
      "v": 83
    },
    {
      "midi": 61,
      "hit": false,
      "t": 85363.55100000046,
      "d": 204.54524999999558,
      "v": 83
    },
    {
      "midi": 65,
      "hit": false,
      "t": 85363.55100000046,
      "d": 204.54524999999558,
      "v": 84
    },
    {
      "midi": 73,
      "hit": false,
      "t": 85363.55100000066,
      "d": 136.36350000000675,
      "v": 81
    },
    {
      "midi": 75,
      "hit": false,
      "t": 85499.91450000067,
      "d": 136.36350000000675,
      "v": 86
    },
    {
      "midi": 56,
      "hit": false,
      "t": 85636.27800000046,
      "d": 204.54524999999558,
      "v": 78
    },
    {
      "midi": 61,
      "hit": false,
      "t": 85636.27800000046,
      "d": 204.54524999999558,
      "v": 76
    },
    {
      "midi": 65,
      "hit": false,
      "t": 85636.27800000046,
      "d": 204.54524999999558,
      "v": 77
    },
    {
      "midi": 77,
      "hit": false,
      "t": 85636.27800000068,
      "d": 136.36350000000675,
      "v": 96
    },
    {
      "midi": 78,
      "hit": false,
      "t": 85772.64150000068,
      "d": 136.36350000000675,
      "v": 98
    },
    {
      "midi": 44,
      "hit": false,
      "t": 85909.00500000046,
      "d": 204.54524999999558,
      "v": 59
    },
    {
      "midi": 82,
      "hit": false,
      "t": 85909.00500000069,
      "d": 409.0905000000057,
      "v": 113
    },
    {
      "midi": 56,
      "hit": false,
      "t": 86181.73200000045,
      "d": 204.54524999999558,
      "v": 94
    },
    {
      "midi": 60,
      "hit": false,
      "t": 86181.73200000045,
      "d": 204.54524999999558,
      "v": 92
    },
    {
      "midi": 66,
      "hit": false,
      "t": 86181.73200000045,
      "d": 204.54524999999558,
      "v": 94
    },
    {
      "midi": 80,
      "hit": false,
      "t": 86318.0955000007,
      "d": 136.36350000000675,
      "v": 83
    },
    {
      "midi": 56,
      "hit": false,
      "t": 86454.45900000045,
      "d": 204.54524999999558,
      "v": 69
    },
    {
      "midi": 60,
      "hit": false,
      "t": 86454.45900000045,
      "d": 204.54524999999558,
      "v": 68
    },
    {
      "midi": 66,
      "hit": false,
      "t": 86454.45900000045,
      "d": 204.54524999999558,
      "v": 68
    },
    {
      "midi": 78,
      "hit": false,
      "t": 86454.4590000007,
      "d": 136.36350000000675,
      "v": 77
    },
    {
      "midi": 77,
      "hit": false,
      "t": 86590.82250000071,
      "d": 136.36350000000675,
      "v": 74
    },
    {
      "midi": 51,
      "hit": false,
      "t": 86727.18600000045,
      "d": 204.54524999999558,
      "v": 47
    },
    {
      "midi": 77,
      "hit": false,
      "t": 86727.18600000071,
      "d": 136.36350000000675,
      "v": 75
    },
    {
      "midi": 75,
      "hit": false,
      "t": 86863.54950000072,
      "d": 136.36350000000675,
      "v": 63
    },
    {
      "midi": 56,
      "hit": false,
      "t": 86999.91300000045,
      "d": 204.54524999999558,
      "v": 61
    },
    {
      "midi": 60,
      "hit": false,
      "t": 86999.91300000045,
      "d": 204.54524999999558,
      "v": 62
    },
    {
      "midi": 66,
      "hit": false,
      "t": 86999.91300000045,
      "d": 204.54524999999558,
      "v": 62
    },
    {
      "midi": 75,
      "hit": false,
      "t": 86999.91300000073,
      "d": 34.09087499999441,
      "v": 65
    },
    {
      "midi": 77,
      "hit": false,
      "t": 87034.00387500072,
      "d": 68.18175000000338,
      "v": 66
    },
    {
      "midi": 75,
      "hit": false,
      "t": 87102.18562500073,
      "d": 34.09087499999441,
      "v": 57
    },
    {
      "midi": 74,
      "hit": false,
      "t": 87136.27650000072,
      "d": 136.36350000000675,
      "v": 55
    },
    {
      "midi": 56,
      "hit": false,
      "t": 87272.64000000045,
      "d": 204.54524999999558,
      "v": 44
    },
    {
      "midi": 60,
      "hit": false,
      "t": 87272.64000000045,
      "d": 204.54524999999558,
      "v": 43
    },
    {
      "midi": 66,
      "hit": false,
      "t": 87272.64000000045,
      "d": 204.54524999999558,
      "v": 46
    },
    {
      "midi": 74,
      "hit": false,
      "t": 87272.64000000073,
      "d": 136.36350000000675,
      "v": 57
    },
    {
      "midi": 75,
      "hit": false,
      "t": 87409.00350000073,
      "d": 136.36350000000675,
      "v": 51
    },
    {
      "midi": 44,
      "hit": false,
      "t": 87545.36700000045,
      "d": 204.54524999999558,
      "v": 33
    },
    {
      "midi": 82,
      "hit": false,
      "t": 87545.36700000074,
      "d": 409.0905000000057,
      "v": 59
    },
    {
      "midi": 56,
      "hit": false,
      "t": 87818.09400000045,
      "d": 204.54524999999558,
      "v": 53
    },
    {
      "midi": 60,
      "hit": false,
      "t": 87818.09400000045,
      "d": 204.54524999999558,
      "v": 53
    },
    {
      "midi": 66,
      "hit": false,
      "t": 87818.09400000045,
      "d": 204.54524999999558,
      "v": 54
    },
    {
      "midi": 80,
      "hit": false,
      "t": 87954.45750000075,
      "d": 136.36350000000675,
      "v": 48
    },
    {
      "midi": 56,
      "hit": false,
      "t": 88090.82100000045,
      "d": 204.54524999999558,
      "v": 49
    },
    {
      "midi": 60,
      "hit": false,
      "t": 88090.82100000045,
      "d": 204.54524999999558,
      "v": 47
    },
    {
      "midi": 66,
      "hit": false,
      "t": 88090.82100000045,
      "d": 204.54524999999558,
      "v": 50
    },
    {
      "midi": 78,
      "hit": false,
      "t": 88090.82100000075,
      "d": 136.36350000000675,
      "v": 42
    },
    {
      "midi": 77,
      "hit": false,
      "t": 88227.18450000076,
      "d": 136.36350000000675,
      "v": 42
    },
    {
      "midi": 56,
      "hit": false,
      "t": 88363.54800000045,
      "d": 136.36350000000675,
      "v": 42
    },
    {
      "midi": 75,
      "hit": false,
      "t": 88363.54800000077,
      "d": 136.36350000000675,
      "v": 47
    },
    {
      "midi": 77,
      "hit": false,
      "t": 88499.91150000077,
      "d": 136.36350000000675,
      "v": 50
    },
    {
      "midi": 56,
      "hit": false,
      "t": 88636.27500000046,
      "d": 136.36350000000675,
      "v": 65
    },
    {
      "midi": 60,
      "hit": false,
      "t": 88636.27500000046,
      "d": 136.36350000000675,
      "v": 65
    },
    {
      "midi": 66,
      "hit": false,
      "t": 88636.27500000046,
      "d": 136.36350000000675,
      "v": 64
    },
    {
      "midi": 75,
      "hit": false,
      "t": 88636.27500000078,
      "d": 34.09087499999441,
      "v": 52
    },
    {
      "midi": 77,
      "hit": false,
      "t": 88670.36587500077,
      "d": 68.18175000000338,
      "v": 58
    },
    {
      "midi": 75,
      "hit": false,
      "t": 88738.54762500078,
      "d": 34.09087499999441,
      "v": 53
    },
    {
      "midi": 74,
      "hit": false,
      "t": 88772.63850000077,
      "d": 136.36350000000675,
      "v": 53
    },
    {
      "midi": 44,
      "hit": false,
      "t": 88909.00200000047,
      "d": 136.36350000000675,
      "v": 43
    },
    {
      "midi": 75,
      "hit": false,
      "t": 88909.00200000078,
      "d": 136.36350000000675,
      "v": 65
    },
    {
      "midi": 76,
      "hit": false,
      "t": 89045.36550000079,
      "d": 136.36350000000675,
      "v": 69
    },
    {
      "midi": 45,
      "hit": false,
      "t": 89181.72900000049,
      "d": 136.36350000000675,
      "v": 64
    },
    {
      "midi": 77,
      "hit": false,
      "t": 89181.72900000079,
      "d": 102.27262499999779,
      "v": 85
    },
    {
      "midi": 78,
      "hit": false,
      "t": 89284.00162500079,
      "d": 68.18175000000338,
      "v": 82
    },
    {
      "midi": 77,
      "hit": false,
      "t": 89352.1833750008,
      "d": 102.27262499999779,
      "v": 73
    },
    {
      "midi": 53,
      "hit": false,
      "t": 89454.4560000005,
      "d": 204.54524999999558,
      "v": 78
    },
    {
      "midi": 60,
      "hit": false,
      "t": 89454.4560000005,
      "d": 204.54524999999558,
      "v": 79
    },
    {
      "midi": 63,
      "hit": false,
      "t": 89454.4560000005,
      "d": 204.54524999999558,
      "v": 79
    },
    {
      "midi": 76,
      "hit": false,
      "t": 89454.45600000079,
      "d": 136.36350000000675,
      "v": 78
    },
    {
      "midi": 77,
      "hit": false,
      "t": 89590.8195000008,
      "d": 136.36350000000675,
      "v": 83
    },
    {
      "midi": 53,
      "hit": false,
      "t": 89727.1830000005,
      "d": 204.54524999999558,
      "v": 65
    },
    {
      "midi": 60,
      "hit": false,
      "t": 89727.1830000005,
      "d": 204.54524999999558,
      "v": 64
    },
    {
      "midi": 63,
      "hit": false,
      "t": 89727.1830000005,
      "d": 204.54524999999558,
      "v": 66
    },
    {
      "midi": 80,
      "hit": false,
      "t": 89727.1830000008,
      "d": 136.36350000000675,
      "v": 83
    },
    {
      "midi": 78,
      "hit": false,
      "t": 89863.54650000081,
      "d": 136.36350000000675,
      "v": 72
    },
    {
      "midi": 46,
      "hit": false,
      "t": 89999.9100000005,
      "d": 204.54524999999558,
      "v": 51
    },
    {
      "midi": 77,
      "hit": false,
      "t": 89999.91000000082,
      "d": 136.36350000000675,
      "v": 74
    },
    {
      "midi": 78,
      "hit": false,
      "t": 90136.27350000083,
      "d": 136.36350000000675,
      "v": 82
    },
    {
      "midi": 53,
      "hit": false,
      "t": 90272.6370000005,
      "d": 204.54524999999558,
      "v": 78
    },
    {
      "midi": 61,
      "hit": false,
      "t": 90272.6370000005,
      "d": 204.54524999999558,
      "v": 78
    },
    {
      "midi": 77,
      "hit": false,
      "t": 90272.63700000083,
      "d": 136.36350000000675,
      "v": 75
    },
    {
      "midi": 76,
      "hit": false,
      "t": 90409.00050000084,
      "d": 136.36350000000675,
      "v": 74
    },
    {
      "midi": 53,
      "hit": false,
      "t": 90545.3640000005,
      "d": 204.54524999999558,
      "v": 63
    },
    {
      "midi": 61,
      "hit": false,
      "t": 90545.3640000005,
      "d": 204.54524999999558,
      "v": 65
    },
    {
      "midi": 77,
      "hit": false,
      "t": 90545.36400000085,
      "d": 136.36350000000675,
      "v": 82
    },
    {
      "midi": 82,
      "hit": false,
      "t": 90681.72750000085,
      "d": 136.36350000000675,
      "v": 87
    },
    {
      "midi": 48,
      "hit": false,
      "t": 90818.0910000005,
      "d": 204.54524999999558,
      "v": 47
    },
    {
      "midi": 80,
      "hit": false,
      "t": 90818.09100000086,
      "d": 102.27262499999779,
      "v": 79
    },
    {
      "midi": 82,
      "hit": false,
      "t": 90920.36362500086,
      "d": 68.18175000000338,
      "v": 82
    },
    {
      "midi": 80,
      "hit": false,
      "t": 90988.54537500086,
      "d": 102.27262499999779,
      "v": 72
    },
    {
      "midi": 56,
      "hit": false,
      "t": 91090.8180000005,
      "d": 204.54524999999558,
      "v": 76
    },
    {
      "midi": 63,
      "hit": false,
      "t": 91090.8180000005,
      "d": 204.54524999999558,
      "v": 79
    },
    {
      "midi": 66,
      "hit": false,
      "t": 91090.8180000005,
      "d": 204.54524999999558,
      "v": 78
    },
    {
      "midi": 79,
      "hit": false,
      "t": 91090.81800000086,
      "d": 136.36350000000675,
      "v": 77
    },
    {
      "midi": 80,
      "hit": false,
      "t": 91227.18150000086,
      "d": 136.36350000000675,
      "v": 82
    },
    {
      "midi": 56,
      "hit": false,
      "t": 91363.5450000005,
      "d": 204.54524999999558,
      "v": 64
    },
    {
      "midi": 63,
      "hit": false,
      "t": 91363.5450000005,
      "d": 204.54524999999558,
      "v": 66
    },
    {
      "midi": 66,
      "hit": false,
      "t": 91363.5450000005,
      "d": 204.54524999999558,
      "v": 65
    },
    {
      "midi": 84,
      "hit": false,
      "t": 91363.54500000087,
      "d": 136.36350000000675,
      "v": 88
    },
    {
      "midi": 82,
      "hit": false,
      "t": 91499.90850000088,
      "d": 136.36350000000675,
      "v": 75
    },
    {
      "midi": 49,
      "hit": false,
      "t": 91636.27200000049,
      "d": 136.36350000000675,
      "v": 48
    },
    {
      "midi": 80,
      "hit": false,
      "t": 91636.27200000088,
      "d": 136.36350000000675,
      "v": 75
    },
    {
      "midi": 82,
      "hit": false,
      "t": 91772.63550000089,
      "d": 136.36350000000675,
      "v": 83
    },
    {
      "midi": 56,
      "hit": false,
      "t": 91908.9990000005,
      "d": 204.54524999999558,
      "v": 75
    },
    {
      "midi": 65,
      "hit": false,
      "t": 91908.9990000005,
      "d": 204.54524999999558,
      "v": 75
    },
    {
      "midi": 80,
      "hit": false,
      "t": 91908.9990000009,
      "d": 136.36350000000675,
      "v": 71
    },
    {
      "midi": 79,
      "hit": false,
      "t": 92045.3625000009,
      "d": 136.36350000000675,
      "v": 74
    },
    {
      "midi": 80,
      "hit": false,
      "t": 92181.72600000091,
      "d": 136.36350000000675,
      "v": 82
    },
    {
      "midi": 85,
      "hit": false,
      "t": 92318.08950000092,
      "d": 136.36350000000675,
      "v": 86
    },
    {
      "midi": 54,
      "hit": false,
      "t": 92454.4530000005,
      "d": 272.72699999999895,
      "v": 59
    },
    {
      "midi": 84,
      "hit": false,
      "t": 92454.45300000093,
      "d": 136.36350000000675,
      "v": 78
    },
    {
      "midi": 82,
      "hit": false,
      "t": 92590.81650000093,
      "d": 136.36350000000675,
      "v": 71
    },
    {
      "midi": 58,
      "hit": false,
      "t": 92727.1800000005,
      "d": 204.54524999999558,
      "v": 73
    },
    {
      "midi": 63,
      "hit": false,
      "t": 92727.1800000005,
      "d": 204.54524999999558,
      "v": 73
    },
    {
      "midi": 80,
      "hit": false,
      "t": 92727.18000000094,
      "d": 136.36350000000675,
      "v": 65
    },
    {
      "midi": 78,
      "hit": false,
      "t": 92863.54350000095,
      "d": 136.36350000000675,
      "v": 63
    },
    {
      "midi": 77,
      "hit": false,
      "t": 92999.90700000095,
      "d": 136.36350000000675,
      "v": 64
    },
    {
      "midi": 75,
      "hit": false,
      "t": 93136.27050000096,
      "d": 136.36350000000675,
      "v": 59
    },
    {
      "midi": 44,
      "hit": false,
      "t": 93272.6340000005,
      "d": 204.54524999999558,
      "v": 58
    },
    {
      "midi": 73,
      "hit": false,
      "t": 93272.63400000097,
      "d": 136.36350000000675,
      "v": 60
    },
    {
      "midi": 72,
      "hit": false,
      "t": 93408.99750000097,
      "d": 136.36350000000675,
      "v": 52
    },
    {
      "midi": 53,
      "hit": false,
      "t": 93545.3610000005,
      "d": 204.54524999999558,
      "v": 72
    },
    {
      "midi": 56,
      "hit": false,
      "t": 93545.3610000005,
      "d": 204.54524999999558,
      "v": 70
    },
    {
      "midi": 61,
      "hit": false,
      "t": 93545.3610000005,
      "d": 204.54524999999558,
      "v": 72
    },
    {
      "midi": 70,
      "hit": false,
      "t": 93545.36100000098,
      "d": 136.36350000000675,
      "v": 49
    },
    {
      "midi": 68,
      "hit": false,
      "t": 93681.72450000099,
      "d": 136.36350000000675,
      "v": 48
    },
    {
      "midi": 66,
      "hit": false,
      "t": 93818.088000001,
      "d": 136.36350000000675,
      "v": 46
    },
    {
      "midi": 65,
      "hit": false,
      "t": 93954.451500001,
      "d": 136.36350000000675,
      "v": 45
    },
    {
      "midi": 44,
      "hit": false,
      "t": 94090.8150000005,
      "d": 204.54524999999558,
      "v": 45
    },
    {
      "midi": 63,
      "hit": false,
      "t": 94090.815000001,
      "d": 136.36350000000675,
      "v": 42
    },
    {
      "midi": 61,
      "hit": false,
      "t": 94227.17850000101,
      "d": 136.36350000000675,
      "v": 39
    },
    {
      "midi": 54,
      "hit": false,
      "t": 94363.5420000005,
      "d": 204.54524999999558,
      "v": 56
    },
    {
      "midi": 56,
      "hit": false,
      "t": 94363.5420000005,
      "d": 204.54524999999558,
      "v": 57
    },
    {
      "midi": 60,
      "hit": false,
      "t": 94363.54200000102,
      "d": 136.36350000000675,
      "v": 37
    },
    {
      "midi": 63,
      "hit": false,
      "t": 94499.90550000103,
      "d": 136.36350000000675,
      "v": 40
    },
    {
      "midi": 54,
      "hit": false,
      "t": 94636.2690000005,
      "d": 204.54524999999558,
      "v": 46
    },
    {
      "midi": 56,
      "hit": false,
      "t": 94636.2690000005,
      "d": 204.54524999999558,
      "v": 45
    },
    {
      "midi": 60,
      "hit": false,
      "t": 94636.2690000005,
      "d": 204.54524999999558,
      "v": 47
    },
    {
      "midi": 70,
      "hit": false,
      "t": 94636.26900000103,
      "d": 136.36350000000675,
      "v": 51
    },
    {
      "midi": 68,
      "hit": false,
      "t": 94772.63250000104,
      "d": 136.36350000000675,
      "v": 47
    },
    {
      "midi": 49,
      "hit": false,
      "t": 94908.9960000005,
      "d": 204.54524999999558,
      "v": 28
    },
    {
      "midi": 67,
      "hit": false,
      "t": 94908.99600000105,
      "d": 136.36350000000675,
      "v": 56
    },
    {
      "midi": 68,
      "hit": false,
      "t": 95045.35950000105,
      "d": 136.36350000000675,
      "v": 62
    },
    {
      "midi": 53,
      "hit": false,
      "t": 95181.7230000005,
      "d": 204.54524999999558,
      "v": 71
    },
    {
      "midi": 56,
      "hit": false,
      "t": 95181.7230000005,
      "d": 204.54524999999558,
      "v": 72
    },
    {
      "midi": 61,
      "hit": false,
      "t": 95181.7230000005,
      "d": 204.54524999999558,
      "v": 72
    },
    {
      "midi": 70,
      "hit": false,
      "t": 95181.72300000106,
      "d": 136.36350000000675,
      "v": 70
    },
    {
      "midi": 72,
      "hit": false,
      "t": 95318.08650000107,
      "d": 136.36350000000675,
      "v": 76
    },
    {
      "midi": 73,
      "hit": false,
      "t": 95454.45000000107,
      "d": 136.36350000000675,
      "v": 81
    },
    {
      "midi": 75,
      "hit": false,
      "t": 95590.81350000108,
      "d": 136.36350000000675,
      "v": 88
    },
    {
      "midi": 57,
      "hit": false,
      "t": 95727.17700000049,
      "d": 818.1809999999969,
      "v": 90
    },
    {
      "midi": 77,
      "hit": false,
      "t": 95727.17700000109,
      "d": 102.27262499999779,
      "v": 89
    },
    {
      "midi": 78,
      "hit": false,
      "t": 95829.44962500109,
      "d": 68.18175000000338,
      "v": 87
    },
    {
      "midi": 77,
      "hit": false,
      "t": 95897.63137500109,
      "d": 102.27262499999779,
      "v": 78
    },
    {
      "midi": 63,
      "hit": false,
      "t": 95999.90400000049,
      "d": 272.72699999999895,
      "v": 72
    },
    {
      "midi": 65,
      "hit": false,
      "t": 95999.90400000049,
      "d": 272.72699999999895,
      "v": 71
    },
    {
      "midi": 76,
      "hit": false,
      "t": 95999.90400000109,
      "d": 136.36350000000675,
      "v": 84
    },
    {
      "midi": 77,
      "hit": false,
      "t": 96136.2675000011,
      "d": 136.36350000000675,
      "v": 86
    },
    {
      "midi": 63,
      "hit": false,
      "t": 96272.63100000049,
      "d": 272.72699999999895,
      "v": 78
    },
    {
      "midi": 65,
      "hit": false,
      "t": 96272.63100000049,
      "d": 272.72699999999895,
      "v": 80
    },
    {
      "midi": 80,
      "hit": false,
      "t": 96272.6310000011,
      "d": 136.36350000000675,
      "v": 90
    },
    {
      "midi": 78,
      "hit": false,
      "t": 96408.9945000011,
      "d": 136.36350000000675,
      "v": 79
    },
    {
      "midi": 58,
      "hit": false,
      "t": 96545.35800000049,
      "d": 818.1809999999969,
      "v": 87
    },
    {
      "midi": 77,
      "hit": false,
      "t": 96545.35800000111,
      "d": 136.36350000000675,
      "v": 80
    },
    {
      "midi": 78,
      "hit": false,
      "t": 96681.72150000112,
      "d": 136.36350000000675,
      "v": 88
    },
    {
      "midi": 61,
      "hit": false,
      "t": 96818.08500000049,
      "d": 272.72699999999895,
      "v": 72
    },
    {
      "midi": 65,
      "hit": false,
      "t": 96818.08500000049,
      "d": 272.72699999999895,
      "v": 72
    },
    {
      "midi": 77,
      "hit": false,
      "t": 96818.08500000113,
      "d": 136.36350000000675,
      "v": 81
    },
    {
      "midi": 76,
      "hit": false,
      "t": 96954.44850000113,
      "d": 136.36350000000675,
      "v": 77
    },
    {
      "midi": 61,
      "hit": false,
      "t": 97090.81200000049,
      "d": 272.72699999999895,
      "v": 80
    },
    {
      "midi": 65,
      "hit": false,
      "t": 97090.81200000049,
      "d": 272.72699999999895,
      "v": 80
    },
    {
      "midi": 77,
      "hit": false,
      "t": 97090.81200000114,
      "d": 136.36350000000675,
      "v": 85
    },
    {
      "midi": 82,
      "hit": false,
      "t": 97227.17550000115,
      "d": 136.36350000000675,
      "v": 95
    },
    {
      "midi": 60,
      "hit": false,
      "t": 97363.53900000048,
      "d": 818.1809999999969,
      "v": 89
    },
    {
      "midi": 80,
      "hit": false,
      "t": 97363.53900000115,
      "d": 102.27262499999779,
      "v": 81
    },
    {
      "midi": 82,
      "hit": false,
      "t": 97465.81162500115,
      "d": 68.18175000000338,
      "v": 88
    },
    {
      "midi": 80,
      "hit": false,
      "t": 97533.99337500116,
      "d": 102.27262499999779,
      "v": 76
    },
    {
      "midi": 66,
      "hit": false,
      "t": 97636.26600000048,
      "d": 272.72699999999895,
      "v": 70
    },
    {
      "midi": 68,
      "hit": false,
      "t": 97636.26600000048,
      "d": 272.72699999999895,
      "v": 70
    },
    {
      "midi": 79,
      "hit": false,
      "t": 97636.26600000115,
      "d": 136.36350000000675,
      "v": 82
    },
    {
      "midi": 80,
      "hit": false,
      "t": 97772.62950000116,
      "d": 136.36350000000675,
      "v": 85
    },
    {
      "midi": 66,
      "hit": false,
      "t": 97908.99300000048,
      "d": 272.72699999999895,
      "v": 79
    },
    {
      "midi": 68,
      "hit": false,
      "t": 97908.99300000048,
      "d": 272.72699999999895,
      "v": 79
    },
    {
      "midi": 84,
      "hit": false,
      "t": 97908.99300000117,
      "d": 136.36350000000675,
      "v": 94
    },
    {
      "midi": 82,
      "hit": false,
      "t": 98045.35650000117,
      "d": 136.36350000000675,
      "v": 80
    },
    {
      "midi": 61,
      "hit": false,
      "t": 98181.72000000048,
      "d": 272.72699999999895,
      "v": 68
    },
    {
      "midi": 80,
      "hit": false,
      "t": 98181.72000000118,
      "d": 136.36350000000675,
      "v": 81
    },
    {
      "midi": 82,
      "hit": false,
      "t": 98318.08350000119,
      "d": 136.36350000000675,
      "v": 88
    },
    {
      "midi": 65,
      "hit": false,
      "t": 98454.44700000048,
      "d": 272.72699999999895,
      "v": 93
    },
    {
      "midi": 68,
      "hit": false,
      "t": 98454.44700000048,
      "d": 272.72699999999895,
      "v": 91
    },
    {
      "midi": 80,
      "hit": false,
      "t": 98454.4470000012,
      "d": 136.36350000000675,
      "v": 77
    },
    {
      "midi": 79,
      "hit": false,
      "t": 98590.8105000012,
      "d": 136.36350000000675,
      "v": 79
    },
    {
      "midi": 80,
      "hit": false,
      "t": 98727.1740000012,
      "d": 136.36350000000675,
      "v": 87
    },
    {
      "midi": 89,
      "hit": false,
      "t": 98863.53750000121,
      "d": 136.36350000000675,
      "v": 100
    },
    {
      "midi": 54,
      "hit": false,
      "t": 98999.90100000048,
      "d": 272.72699999999895,
      "v": 76
    },
    {
      "midi": 87,
      "hit": false,
      "t": 98999.90100000122,
      "d": 136.36350000000675,
      "v": 84
    },
    {
      "midi": 85,
      "hit": false,
      "t": 99136.26450000123,
      "d": 136.36350000000675,
      "v": 76
    },
    {
      "midi": 61,
      "hit": false,
      "t": 99272.62800000048,
      "d": 272.72699999999895,
      "v": 100
    },
    {
      "midi": 63,
      "hit": false,
      "t": 99272.62800000048,
      "d": 272.72699999999895,
      "v": 99
    },
    {
      "midi": 70,
      "hit": false,
      "t": 99272.62800000048,
      "d": 272.72699999999895,
      "v": 100
    },
    {
      "midi": 84,
      "hit": false,
      "t": 99272.62800000123,
      "d": 136.36350000000675,
      "v": 80
    },
    {
      "midi": 82,
      "hit": false,
      "t": 99408.99150000124,
      "d": 136.36350000000675,
      "v": 78
    },
    {
      "midi": 80,
      "hit": false,
      "t": 99545.35500000125,
      "d": 136.36350000000675,
      "v": 78
    },
    {
      "midi": 78,
      "hit": false,
      "t": 99681.71850000125,
      "d": 136.36350000000675,
      "v": 77
    },
    {
      "midi": 44,
      "hit": false,
      "t": 99818.08200000048,
      "d": 204.54524999999558,
      "v": 75
    },
    {
      "midi": 77,
      "hit": false,
      "t": 99818.08200000126,
      "d": 136.36350000000675,
      "v": 81
    },
    {
      "midi": 75,
      "hit": false,
      "t": 99954.44550000127,
      "d": 136.36350000000675,
      "v": 76
    },
    {
      "midi": 53,
      "hit": false,
      "t": 100090.80900000047,
      "d": 204.54524999999558,
      "v": 101
    },
    {
      "midi": 56,
      "hit": false,
      "t": 100090.80900000047,
      "d": 204.54524999999558,
      "v": 101
    },
    {
      "midi": 61,
      "hit": false,
      "t": 100090.80900000047,
      "d": 204.54524999999558,
      "v": 102
    },
    {
      "midi": 73,
      "hit": false,
      "t": 100090.80900000127,
      "d": 136.36350000000675,
      "v": 79
    },
    {
      "midi": 72,
      "hit": false,
      "t": 100227.17250000128,
      "d": 136.36350000000675,
      "v": 78
    },
    {
      "midi": 70,
      "hit": false,
      "t": 100363.53600000129,
      "d": 136.36350000000675,
      "v": 79
    },
    {
      "midi": 68,
      "hit": false,
      "t": 100499.8995000013,
      "d": 136.36350000000675,
      "v": 75
    },
    {
      "midi": 44,
      "hit": false,
      "t": 100636.26300000047,
      "d": 204.54524999999558,
      "v": 75
    },
    {
      "midi": 69,
      "hit": false,
      "t": 100636.2630000013,
      "d": 136.36350000000675,
      "v": 87
    },
    {
      "midi": 72,
      "hit": false,
      "t": 100772.62650000131,
      "d": 136.36350000000675,
      "v": 88
    },
    {
      "midi": 54,
      "hit": false,
      "t": 100908.99000000047,
      "d": 204.54524999999558,
      "v": 102
    },
    {
      "midi": 56,
      "hit": false,
      "t": 100908.99000000047,
      "d": 204.54524999999558,
      "v": 101
    },
    {
      "midi": 70,
      "hit": false,
      "t": 100908.99000000131,
      "d": 136.36350000000675,
      "v": 79
    },
    {
      "midi": 65,
      "hit": false,
      "t": 101045.35350000132,
      "d": 136.36350000000675,
      "v": 73
    },
    {
      "midi": 54,
      "hit": false,
      "t": 101181.71700000047,
      "d": 204.54524999999558,
      "v": 83
    },
    {
      "midi": 56,
      "hit": false,
      "t": 101181.71700000047,
      "d": 204.54524999999558,
      "v": 81
    },
    {
      "midi": 66,
      "hit": false,
      "t": 101181.71700000133,
      "d": 136.36350000000675,
      "v": 84
    },
    {
      "midi": 60,
      "hit": false,
      "t": 101318.08050000134,
      "d": 136.36350000000675,
      "v": 68
    },
    {
      "midi": 49,
      "hit": false,
      "t": 101454.44400000047,
      "d": 272.72699999999895,
      "v": 70
    },
    {
      "midi": 61,
      "hit": false,
      "t": 101454.44400000134,
      "d": 272.72699999999895,
      "v": 88
    },
    {
      "midi": 53,
      "hit": false,
      "t": 101727.17100000047,
      "d": 272.72699999999895,
      "v": 80
    },
    {
      "midi": 61,
      "hit": false,
      "t": 101727.17100000134,
      "d": 272.72699999999895,
      "v": 80
    },
    {
      "midi": 77,
      "hit": false,
      "t": 101999.89800000134,
      "d": 409.09049999999115,
      "v": 42
    },
    {
      "midi": 45,
      "hit": false,
      "t": 102272.62500000047,
      "d": 204.54524999999558,
      "v": 45
    },
    {
      "midi": 78,
      "hit": false,
      "t": 102374.89762500134,
      "d": 68.18174999998882,
      "v": 49
    },
    {
      "midi": 77,
      "hit": false,
      "t": 102443.07937500133,
      "d": 102.27262499999779,
      "v": 47
    },
    {
      "midi": 53,
      "hit": false,
      "t": 102545.35200000046,
      "d": 204.54524999999558,
      "v": 62
    },
    {
      "midi": 60,
      "hit": false,
      "t": 102545.35200000046,
      "d": 204.54524999999558,
      "v": 61
    },
    {
      "midi": 63,
      "hit": false,
      "t": 102545.35200000046,
      "d": 204.54524999999558,
      "v": 61
    },
    {
      "midi": 76,
      "hit": false,
      "t": 102545.35200000132,
      "d": 136.36350000000675,
      "v": 47
    },
    {
      "midi": 77,
      "hit": false,
      "t": 102681.71550000133,
      "d": 136.36350000000675,
      "v": 48
    },
    {
      "midi": 53,
      "hit": false,
      "t": 102818.07900000046,
      "d": 204.54524999999558,
      "v": 53
    },
    {
      "midi": 60,
      "hit": false,
      "t": 102818.07900000046,
      "d": 204.54524999999558,
      "v": 56
    },
    {
      "midi": 63,
      "hit": false,
      "t": 102818.07900000046,
      "d": 204.54524999999558,
      "v": 56
    },
    {
      "midi": 80,
      "hit": false,
      "t": 102818.07900000134,
      "d": 136.36350000000675,
      "v": 54
    },
    {
      "midi": 78,
      "hit": false,
      "t": 102954.44250000134,
      "d": 136.36350000000675,
      "v": 51
    },
    {
      "midi": 46,
      "hit": false,
      "t": 103090.80600000046,
      "d": 204.54524999999558,
      "v": 44
    },
    {
      "midi": 77,
      "hit": false,
      "t": 103090.80600000135,
      "d": 136.36350000000675,
      "v": 56
    },
    {
      "midi": 78,
      "hit": false,
      "t": 103227.16950000136,
      "d": 136.36350000000675,
      "v": 59
    },
    {
      "midi": 53,
      "hit": false,
      "t": 103363.53300000046,
      "d": 204.54524999999558,
      "v": 77
    },
    {
      "midi": 61,
      "hit": false,
      "t": 103363.53300000046,
      "d": 204.54524999999558,
      "v": 79
    },
    {
      "midi": 77,
      "hit": false,
      "t": 103363.53300000136,
      "d": 136.36350000000675,
      "v": 58
    },
    {
      "midi": 76,
      "hit": false,
      "t": 103499.89650000137,
      "d": 136.36350000000675,
      "v": 60
    },
    {
      "midi": 53,
      "hit": false,
      "t": 103636.26000000046,
      "d": 204.54524999999558,
      "v": 71
    },
    {
      "midi": 61,
      "hit": false,
      "t": 103636.26000000046,
      "d": 204.54524999999558,
      "v": 70
    },
    {
      "midi": 77,
      "hit": false,
      "t": 103636.26000000138,
      "d": 136.36350000000675,
      "v": 67
    },
    {
      "midi": 82,
      "hit": false,
      "t": 103772.62350000138,
      "d": 136.36350000000675,
      "v": 77
    },
    {
      "midi": 48,
      "hit": false,
      "t": 103908.98700000046,
      "d": 204.54524999999558,
      "v": 57
    },
    {
      "midi": 80,
      "hit": false,
      "t": 103908.98700000139,
      "d": 102.27262499999779,
      "v": 70
    },
    {
      "midi": 82,
      "hit": false,
      "t": 104011.25962500139,
      "d": 68.18175000000338,
      "v": 79
    },
    {
      "midi": 80,
      "hit": false,
      "t": 104079.44137500139,
      "d": 102.27262499999779,
      "v": 71
    },
    {
      "midi": 56,
      "hit": false,
      "t": 104181.71400000046,
      "d": 204.54524999999558,
      "v": 97
    },
    {
      "midi": 63,
      "hit": false,
      "t": 104181.71400000046,
      "d": 204.54524999999558,
      "v": 94
    },
    {
      "midi": 66,
      "hit": false,
      "t": 104181.71400000046,
      "d": 204.54524999999558,
      "v": 94
    },
    {
      "midi": 79,
      "hit": false,
      "t": 104181.71400000139,
      "d": 136.36350000000675,
      "v": 75
    },
    {
      "midi": 80,
      "hit": false,
      "t": 104318.0775000014,
      "d": 136.36350000000675,
      "v": 85
    },
    {
      "midi": 56,
      "hit": false,
      "t": 104454.44100000046,
      "d": 204.54524999999558,
      "v": 86
    },
    {
      "midi": 63,
      "hit": false,
      "t": 104454.44100000046,
      "d": 204.54524999999558,
      "v": 86
    },
    {
      "midi": 66,
      "hit": false,
      "t": 104454.44100000046,
      "d": 204.54524999999558,
      "v": 86
    },
    {
      "midi": 84,
      "hit": false,
      "t": 104454.4410000014,
      "d": 136.36350000000675,
      "v": 92
    },
    {
      "midi": 82,
      "hit": false,
      "t": 104590.80450000141,
      "d": 136.36350000000675,
      "v": 79
    },
    {
      "midi": 49,
      "hit": false,
      "t": 104727.16800000046,
      "d": 204.54524999999558,
      "v": 67
    },
    {
      "midi": 80,
      "hit": false,
      "t": 104727.16800000142,
      "d": 136.36350000000675,
      "v": 84
    },
    {
      "midi": 82,
      "hit": false,
      "t": 104863.53150000142,
      "d": 136.36350000000675,
      "v": 95
    },
    {
      "midi": 56,
      "hit": false,
      "t": 104999.89500000046,
      "d": 204.54524999999558,
      "v": 115
    },
    {
      "midi": 65,
      "hit": false,
      "t": 104999.89500000046,
      "d": 204.54524999999558,
      "v": 113
    },
    {
      "midi": 80,
      "hit": false,
      "t": 104999.89500000143,
      "d": 136.36350000000675,
      "v": 85
    },
    {
      "midi": 79,
      "hit": false,
      "t": 105136.25850000144,
      "d": 136.36350000000675,
      "v": 90
    },
    {
      "midi": 80,
      "hit": false,
      "t": 105272.62200000144,
      "d": 136.36350000000675,
      "v": 101
    },
    {
      "midi": 85,
      "hit": false,
      "t": 105408.98550000145,
      "d": 136.36350000000675,
      "v": 112
    },
    {
      "midi": 54,
      "hit": false,
      "t": 105545.34900000045,
      "d": 272.72699999999895,
      "v": 87
    },
    {
      "midi": 84,
      "hit": false,
      "t": 105545.34900000146,
      "d": 136.36350000000675,
      "v": 100
    },
    {
      "midi": 82,
      "hit": false,
      "t": 105681.71250000146,
      "d": 136.36350000000675,
      "v": 91
    },
    {
      "midi": 58,
      "hit": false,
      "t": 105818.07600000045,
      "d": 204.54524999999558,
      "v": 104
    },
    {
      "midi": 63,
      "hit": false,
      "t": 105818.07600000045,
      "d": 204.54524999999558,
      "v": 103
    },
    {
      "midi": 80,
      "hit": false,
      "t": 105818.07600000147,
      "d": 136.36350000000675,
      "v": 86
    },
    {
      "midi": 78,
      "hit": false,
      "t": 105954.43950000148,
      "d": 136.36350000000675,
      "v": 84
    },
    {
      "midi": 77,
      "hit": false,
      "t": 106090.80300000148,
      "d": 136.36350000000675,
      "v": 84
    },
    {
      "midi": 75,
      "hit": false,
      "t": 106227.16650000149,
      "d": 136.36350000000675,
      "v": 79
    },
    {
      "midi": 44,
      "hit": false,
      "t": 106363.53000000045,
      "d": 204.54524999999558,
      "v": 71
    },
    {
      "midi": 73,
      "hit": false,
      "t": 106363.5300000015,
      "d": 136.36350000000675,
      "v": 79
    },
    {
      "midi": 72,
      "hit": false,
      "t": 106499.8935000015,
      "d": 136.36350000000675,
      "v": 72
    },
    {
      "midi": 53,
      "hit": false,
      "t": 106636.25700000045,
      "d": 204.54524999999558,
      "v": 87
    },
    {
      "midi": 56,
      "hit": false,
      "t": 106636.25700000045,
      "d": 204.54524999999558,
      "v": 91
    },
    {
      "midi": 61,
      "hit": false,
      "t": 106636.25700000045,
      "d": 204.54524999999558,
      "v": 87
    },
    {
      "midi": 70,
      "hit": false,
      "t": 106636.25700000151,
      "d": 136.36350000000675,
      "v": 70
    },
    {
      "midi": 68,
      "hit": false,
      "t": 106772.62050000152,
      "d": 136.36350000000675,
      "v": 65
    },
    {
      "midi": 66,
      "hit": false,
      "t": 106908.98400000152,
      "d": 136.36350000000675,
      "v": 64
    },
    {
      "midi": 65,
      "hit": false,
      "t": 107045.34750000153,
      "d": 136.36350000000675,
      "v": 62
    },
    {
      "midi": 44,
      "hit": false,
      "t": 107181.71100000045,
      "d": 204.54524999999558,
      "v": 58
    },
    {
      "midi": 63,
      "hit": false,
      "t": 107181.71100000154,
      "d": 136.36350000000675,
      "v": 63
    },
    {
      "midi": 61,
      "hit": false,
      "t": 107318.07450000154,
      "d": 136.36350000000675,
      "v": 55
    },
    {
      "midi": 54,
      "hit": false,
      "t": 107454.43800000045,
      "d": 204.54524999999558,
      "v": 68
    },
    {
      "midi": 56,
      "hit": false,
      "t": 107454.43800000045,
      "d": 204.54524999999558,
      "v": 67
    },
    {
      "midi": 60,
      "hit": false,
      "t": 107454.43800000155,
      "d": 136.36350000000675,
      "v": 52
    },
    {
      "midi": 63,
      "hit": false,
      "t": 107590.80150000156,
      "d": 136.36350000000675,
      "v": 63
    },
    {
      "midi": 54,
      "hit": false,
      "t": 107727.16500000044,
      "d": 204.54524999999558,
      "v": 60
    },
    {
      "midi": 56,
      "hit": false,
      "t": 107727.16500000044,
      "d": 204.54524999999558,
      "v": 63
    },
    {
      "midi": 60,
      "hit": false,
      "t": 107727.16500000044,
      "d": 204.54524999999558,
      "v": 61
    },
    {
      "midi": 70,
      "hit": false,
      "t": 107727.16500000157,
      "d": 136.36350000000675,
      "v": 70
    },
    {
      "midi": 68,
      "hit": false,
      "t": 107863.52850000157,
      "d": 136.36350000000675,
      "v": 62
    },
    {
      "midi": 49,
      "hit": false,
      "t": 107999.89200000044,
      "d": 204.54524999999558,
      "v": 44
    },
    {
      "midi": 67,
      "hit": false,
      "t": 107999.89200000158,
      "d": 136.36350000000675,
      "v": 62
    },
    {
      "midi": 68,
      "hit": false,
      "t": 108136.25550000159,
      "d": 136.36350000000675,
      "v": 71
    },
    {
      "midi": 53,
      "hit": false,
      "t": 108272.61900000044,
      "d": 204.54524999999558,
      "v": 91
    },
    {
      "midi": 56,
      "hit": false,
      "t": 108272.61900000044,
      "d": 204.54524999999558,
      "v": 89
    },
    {
      "midi": 61,
      "hit": false,
      "t": 108272.61900000044,
      "d": 204.54524999999558,
      "v": 90
    },
    {
      "midi": 70,
      "hit": false,
      "t": 108272.61900000159,
      "d": 136.36350000000675,
      "v": 76
    },
    {
      "midi": 72,
      "hit": false,
      "t": 108408.9825000016,
      "d": 136.36350000000675,
      "v": 79
    },
    {
      "midi": 73,
      "hit": false,
      "t": 108545.3460000016,
      "d": 136.36350000000675,
      "v": 80
    },
    {
      "midi": 75,
      "hit": false,
      "t": 108681.70950000161,
      "d": 136.36350000000675,
      "v": 86
    },
    {
      "midi": 57,
      "hit": false,
      "t": 108818.07300000044,
      "d": 818.1809999999969,
      "v": 78
    },
    {
      "midi": 77,
      "hit": false,
      "t": 108818.07300000162,
      "d": 102.27262499999779,
      "v": 100
    },
    {
      "midi": 78,
      "hit": false,
      "t": 108920.34562500162,
      "d": 68.18175000000338,
      "v": 95
    },
    {
      "midi": 77,
      "hit": false,
      "t": 108988.52737500162,
      "d": 102.27262499999779,
      "v": 87
    },
    {
      "midi": 63,
      "hit": false,
      "t": 109090.80000000044,
      "d": 272.72699999999895,
      "v": 69
    },
    {
      "midi": 65,
      "hit": false,
      "t": 109090.80000000044,
      "d": 272.72699999999895,
      "v": 71
    },
    {
      "midi": 76,
      "hit": false,
      "t": 109090.80000000162,
      "d": 136.36350000000675,
      "v": 91
    },
    {
      "midi": 77,
      "hit": false,
      "t": 109227.16350000162,
      "d": 136.36350000000675,
      "v": 93
    },
    {
      "midi": 63,
      "hit": false,
      "t": 109363.52700000044,
      "d": 272.72699999999895,
      "v": 78
    },
    {
      "midi": 65,
      "hit": false,
      "t": 109363.52700000044,
      "d": 272.72699999999895,
      "v": 78
    },
    {
      "midi": 80,
      "hit": false,
      "t": 109363.52700000163,
      "d": 136.36350000000675,
      "v": 101
    },
    {
      "midi": 78,
      "hit": false,
      "t": 109499.89050000164,
      "d": 136.36350000000675,
      "v": 88
    },
    {
      "midi": 58,
      "hit": false,
      "t": 109636.25400000044,
      "d": 818.1809999999969,
      "v": 87
    },
    {
      "midi": 77,
      "hit": false,
      "t": 109636.25400000165,
      "d": 136.36350000000675,
      "v": 91
    },
    {
      "midi": 78,
      "hit": false,
      "t": 109772.61750000165,
      "d": 136.36350000000675,
      "v": 96
    },
    {
      "midi": 61,
      "hit": false,
      "t": 109908.98100000044,
      "d": 272.72699999999895,
      "v": 72
    },
    {
      "midi": 65,
      "hit": false,
      "t": 109908.98100000044,
      "d": 272.72699999999895,
      "v": 73
    },
    {
      "midi": 77,
      "hit": false,
      "t": 109908.98100000166,
      "d": 136.36350000000675,
      "v": 86
    },
    {
      "midi": 76,
      "hit": false,
      "t": 110045.34450000167,
      "d": 136.36350000000675,
      "v": 85
    },
    {
      "midi": 61,
      "hit": false,
      "t": 110181.70800000044,
      "d": 272.72699999999895,
      "v": 79
    },
    {
      "midi": 65,
      "hit": false,
      "t": 110181.70800000044,
      "d": 272.72699999999895,
      "v": 78
    },
    {
      "midi": 77,
      "hit": false,
      "t": 110181.70800000167,
      "d": 136.36350000000675,
      "v": 94
    },
    {
      "midi": 82,
      "hit": false,
      "t": 110318.07150000168,
      "d": 136.36350000000675,
      "v": 106
    },
    {
      "midi": 60,
      "hit": false,
      "t": 110454.43500000043,
      "d": 818.1809999999969,
      "v": 89
    },
    {
      "midi": 80,
      "hit": false,
      "t": 110454.43500000169,
      "d": 102.27262499999779,
      "v": 93
    },
    {
      "midi": 82,
      "hit": false,
      "t": 110556.70762500168,
      "d": 68.18175000000338,
      "v": 97
    },
    {
      "midi": 80,
      "hit": false,
      "t": 110624.88937500169,
      "d": 102.27262499999779,
      "v": 85
    },
    {
      "midi": 66,
      "hit": false,
      "t": 110727.16200000043,
      "d": 272.72699999999895,
      "v": 69
    },
    {
      "midi": 68,
      "hit": false,
      "t": 110727.16200000043,
      "d": 272.72699999999895,
      "v": 71
    },
    {
      "midi": 79,
      "hit": false,
      "t": 110727.16200000168,
      "d": 136.36350000000675,
      "v": 91
    },
    {
      "midi": 80,
      "hit": false,
      "t": 110863.52550000169,
      "d": 136.36350000000675,
      "v": 96
    },
    {
      "midi": 66,
      "hit": false,
      "t": 110999.88900000043,
      "d": 272.72699999999895,
      "v": 79
    },
    {
      "midi": 68,
      "hit": false,
      "t": 110999.88900000043,
      "d": 272.72699999999895,
      "v": 78
    },
    {
      "midi": 84,
      "hit": false,
      "t": 110999.8890000017,
      "d": 136.36350000000675,
      "v": 101
    },
    {
      "midi": 82,
      "hit": false,
      "t": 111136.2525000017,
      "d": 136.36350000000675,
      "v": 88
    },
    {
      "midi": 61,
      "hit": false,
      "t": 111272.61600000043,
      "d": 272.72699999999895,
      "v": 67
    },
    {
      "midi": 80,
      "hit": false,
      "t": 111272.61600000171,
      "d": 136.36350000000675,
      "v": 89
    },
    {
      "midi": 82,
      "hit": false,
      "t": 111408.97950000172,
      "d": 136.36350000000675,
      "v": 95
    },
    {
      "midi": 65,
      "hit": false,
      "t": 111545.34300000043,
      "d": 272.72699999999895,
      "v": 92
    },
    {
      "midi": 68,
      "hit": false,
      "t": 111545.34300000043,
      "d": 272.72699999999895,
      "v": 93
    },
    {
      "midi": 80,
      "hit": false,
      "t": 111545.34300000173,
      "d": 136.36350000000675,
      "v": 86
    },
    {
      "midi": 79,
      "hit": false,
      "t": 111681.70650000173,
      "d": 136.36350000000675,
      "v": 86
    },
    {
      "midi": 80,
      "hit": false,
      "t": 111818.07000000174,
      "d": 136.36350000000675,
      "v": 95
    },
    {
      "midi": 101,
      "hit": false,
      "t": 111954.43350000175,
      "d": 136.36350000000675,
      "v": 112
    },
    {
      "midi": 42,
      "hit": false,
      "t": 112090.79700000043,
      "d": 204.54524999999558,
      "v": 76
    },
    {
      "midi": 99,
      "hit": false,
      "t": 112090.79700000175,
      "d": 102.27262499999779,
      "v": 92
    },
    {
      "midi": 97,
      "hit": false,
      "t": 112193.06962500175,
      "d": 68.18175000000338,
      "v": 85
    },
    {
      "midi": 96,
      "hit": false,
      "t": 112261.25137500175,
      "d": 102.27262499999779,
      "v": 86
    },
    {
      "midi": 61,
      "hit": false,
      "t": 112363.52400000043,
      "d": 204.54524999999558,
      "v": 100
    },
    {
      "midi": 63,
      "hit": false,
      "t": 112363.52400000043,
      "d": 204.54524999999558,
      "v": 99
    },
    {
      "midi": 70,
      "hit": false,
      "t": 112363.52400000043,
      "d": 204.54524999999558,
      "v": 101
    },
    {
      "midi": 94,
      "hit": false,
      "t": 112363.52400000175,
      "d": 102.27262499999779,
      "v": 87
    },
    {
      "midi": 92,
      "hit": false,
      "t": 112465.79662500175,
      "d": 68.18175000000338,
      "v": 85
    },
    {
      "midi": 90,
      "hit": false,
      "t": 112533.97837500175,
      "d": 102.27262499999779,
      "v": 83
    },
    {
      "midi": 89,
      "hit": false,
      "t": 112636.25100000175,
      "d": 102.27262499999779,
      "v": 88
    },
    {
      "midi": 87,
      "hit": false,
      "t": 112738.52362500175,
      "d": 68.18175000000338,
      "v": 78
    },
    {
      "midi": 85,
      "hit": false,
      "t": 112806.70537500175,
      "d": 102.27262499999779,
      "v": 103
    },
    {
      "midi": 84,
      "hit": false,
      "t": 112908.97800000175,
      "d": 102.27262499999779,
      "v": 84
    },
    {
      "midi": 82,
      "hit": false,
      "t": 113011.25062500175,
      "d": 68.18175000000338,
      "v": 74
    },
    {
      "midi": 80,
      "hit": false,
      "t": 113079.43237500175,
      "d": 102.27262499999779,
      "v": 73
    },
    {
      "midi": 78,
      "hit": false,
      "t": 113181.70500000175,
      "d": 102.27262499999779,
      "v": 76
    },
    {
      "midi": 77,
      "hit": false,
      "t": 113283.97762500175,
      "d": 68.18175000000338,
      "v": 74
    },
    {
      "midi": 75,
      "hit": false,
      "t": 113352.15937500175,
      "d": 102.27262499999779,
      "v": 69
    },
    {
      "midi": 73,
      "hit": false,
      "t": 113454.43200000175,
      "d": 102.27262499999779,
      "v": 70
    },
    {
      "midi": 72,
      "hit": false,
      "t": 113556.70462500174,
      "d": 68.18175000000338,
      "v": 70
    },
    {
      "midi": 70,
      "hit": false,
      "t": 113624.88637500175,
      "d": 102.27262499999779,
      "v": 67
    },
    {
      "midi": 44,
      "hit": false,
      "t": 113727.15900000042,
      "d": 204.54524999999558,
      "v": 76
    },
    {
      "midi": 69,
      "hit": false,
      "t": 113727.15900000175,
      "d": 136.36350000000675,
      "v": 69
    },
    {
      "midi": 72,
      "hit": false,
      "t": 113863.52250000175,
      "d": 136.36350000000675,
      "v": 76
    },
    {
      "midi": 54,
      "hit": false,
      "t": 113999.88600000042,
      "d": 204.54524999999558,
      "v": 100
    },
    {
      "midi": 56,
      "hit": false,
      "t": 113999.88600000042,
      "d": 204.54524999999558,
      "v": 101
    },
    {
      "midi": 70,
      "hit": false,
      "t": 113999.88600000176,
      "d": 136.36350000000675,
      "v": 74
    },
    {
      "midi": 65,
      "hit": false,
      "t": 114136.24950000177,
      "d": 136.36350000000675,
      "v": 72
    },
    {
      "midi": 54,
      "hit": false,
      "t": 114272.61300000042,
      "d": 204.54524999999558,
      "v": 82
    },
    {
      "midi": 56,
      "hit": false,
      "t": 114272.61300000042,
      "d": 204.54524999999558,
      "v": 84
    },
    {
      "midi": 66,
      "hit": false,
      "t": 114272.61300000177,
      "d": 136.36350000000675,
      "v": 92
    },
    {
      "midi": 60,
      "hit": false,
      "t": 114408.97650000178,
      "d": 136.36350000000675,
      "v": 82
    },
    {
      "midi": 37,
      "hit": false,
      "t": 114545.34000000042,
      "d": 204.54524999999558,
      "v": 60
    },
    {
      "midi": 61,
      "hit": false,
      "t": 114545.34000000042,
      "d": 409.0905000000057,
      "v": 99
    },
    {
      "midi": 61,
      "hit": false,
      "t": 114545.34000000179,
      "d": 409.0905000000057,
      "v": 99
    },
    {
      "midi": 53,
      "hit": false,
      "t": 114818.06700000042,
      "d": 204.54525000001013,
      "v": 97
    },
    {
      "midi": 56,
      "hit": false,
      "t": 114818.06700000042,
      "d": 204.54525000001013,
      "v": 100
    },
    {
      "midi": 65,
      "hit": false,
      "t": 114818.06700000179,
      "d": 204.54525000001013,
      "v": 97
    }
  ]
}