{
  "jsonPath": "Classical/Classical/Frederic Chopin/nocturne-in-c-minor.json",
  "path": "Classical\\Classical\\Frederic Chopin\\Nocturne in C Minor.mid",
  "name": "Nocturne in C Minor",
  "difficulty": "Advanced",
  "bpm": 100,
  "notes": [
    {
      "midi": 65,
      "hit": false,
      "t": 0,
      "d": 600,
      "v": 64
    },
    {
      "midi": 74,
      "hit": false,
      "t": 0,
      "d": 600,
      "v": 64
    },
    {
      "midi": 50,
      "hit": false,
      "t": 0,
      "d": 600,
      "v": 69
    },
    {
      "midi": 62,
      "hit": false,
      "t": 0,
      "d": 600,
      "v": 69
    },
    {
      "midi": 65,
      "hit": false,
      "t": 900,
      "d": 300,
      "v": 66
    },
    {
      "midi": 72,
      "hit": false,
      "t": 900,
      "d": 300,
      "v": 66
    },
    {
      "midi": 50,
      "hit": false,
      "t": 900,
      "d": 300,
      "v": 73
    },
    {
      "midi": 62,
      "hit": false,
      "t": 900,
      "d": 300,
      "v": 73
    },
    {
      "midi": 67,
      "hit": false,
      "t": 1200,
      "d": 600,
      "v": 69
    },
    {
      "midi": 70,
      "hit": false,
      "t": 1200,
      "d": 600,
      "v": 69
    },
    {
      "midi": 55,
      "hit": false,
      "t": 1200,
      "d": 600,
      "v": 77
    },
    {
      "midi": 62,
      "hit": false,
      "t": 1200,
      "d": 600,
      "v": 77
    },
    {
      "midi": 65,
      "hit": false,
      "t": 2100,
      "d": 300,
      "v": 67
    },
    {
      "midi": 69,
      "hit": false,
      "t": 2100,
      "d": 300,
      "v": 67
    },
    {
      "midi": 50,
      "hit": false,
      "t": 2100,
      "d": 300,
      "v": 67
    },
    {
      "midi": 62,
      "hit": false,
      "t": 2100,
      "d": 300,
      "v": 67
    },
    {
      "midi": 68,
      "hit": false,
      "t": 2400,
      "d": 600,
      "v": 68
    },
    {
      "midi": 58,
      "hit": false,
      "t": 2400,
      "d": 600,
      "v": 77
    },
    {
      "midi": 62,
      "hit": false,
      "t": 2400,
      "d": 600,
      "v": 77
    },
    {
      "midi": 69,
      "hit": false,
      "t": 3000,
      "d": 1800,
      "v": 79
    },
    {
      "midi": 57,
      "hit": false,
      "t": 3000,
      "d": 1800,
      "v": 70
    },
    {
      "midi": 61,
      "hit": false,
      "t": 3000,
      "d": 1800,
      "v": 70
    },
    {
      "midi": 81,
      "hit": false,
      "t": 4800,
      "d": 1200,
      "v": 101
    },
    {
      "midi": 50,
      "hit": false,
      "t": 4800,
      "d": 300,
      "v": 67
    },
    {
      "midi": 57,
      "hit": false,
      "t": 5100,
      "d": 300,
      "v": 83
    },
    {
      "midi": 65,
      "hit": false,
      "t": 5400,
      "d": 300,
      "v": 91
    },
    {
      "midi": 62,
      "hit": false,
      "t": 5700,
      "d": 300,
      "v": 76
    },
    {
      "midi": 79,
      "hit": false,
      "t": 6000,
      "d": 150,
      "v": 73
    },
    {
      "midi": 50,
      "hit": false,
      "t": 6000,
      "d": 300,
      "v": 64
    },
    {
      "midi": 81,
      "hit": false,
      "t": 6150,
      "d": 150,
      "v": 81
    },
    {
      "midi": 79,
      "hit": false,
      "t": 6300,
      "d": 150,
      "v": 76
    },
    {
      "midi": 55,
      "hit": false,
      "t": 6300,
      "d": 300,
      "v": 79
    },
    {
      "midi": 81,
      "hit": false,
      "t": 6450,
      "d": 150,
      "v": 82
    },
    {
      "midi": 79,
      "hit": false,
      "t": 6600,
      "d": 119.53125,
      "v": 100
    },
    {
      "midi": 64,
      "hit": false,
      "t": 6600,
      "d": 300,
      "v": 92
    },
    {
      "midi": 81,
      "hit": false,
      "t": 6719.53125,
      "d": 119.53125,
      "v": 100
    },
    {
      "midi": 79,
      "hit": false,
      "t": 6839.0625,
      "d": 119.53125,
      "v": 100
    },
    {
      "midi": 62,
      "hit": false,
      "t": 6900,
      "d": 300,
      "v": 77
    },
    {
      "midi": 77,
      "hit": false,
      "t": 6958.59375,
      "d": 119.53125,
      "v": 100
    },
    {
      "midi": 79,
      "hit": false,
      "t": 7078.125,
      "d": 121.875,
      "v": 100
    },
    {
      "midi": 81,
      "hit": false,
      "t": 7200,
      "d": 1200,
      "v": 85
    },
    {
      "midi": 50,
      "hit": false,
      "t": 7200,
      "d": 300,
      "v": 65
    },
    {
      "midi": 57,
      "hit": false,
      "t": 7500,
      "d": 300,
      "v": 76
    },
    {
      "midi": 65,
      "hit": false,
      "t": 7800,
      "d": 300,
      "v": 94
    },
    {
      "midi": 62,
      "hit": false,
      "t": 8100,
      "d": 300,
      "v": 69
    },
    {
      "midi": 74,
      "hit": false,
      "t": 8400,
      "d": 1200,
      "v": 62
    },
    {
      "midi": 50,
      "hit": false,
      "t": 8400,
      "d": 300,
      "v": 61
    },
    {
      "midi": 57,
      "hit": false,
      "t": 8700,
      "d": 300,
      "v": 85
    },
    {
      "midi": 65,
      "hit": false,
      "t": 9000,
      "d": 300,
      "v": 92
    },
    {
      "midi": 62,
      "hit": false,
      "t": 9300,
      "d": 300,
      "v": 69
    },
    {
      "midi": 86,
      "hit": false,
      "t": 9600,
      "d": 1200,
      "v": 91
    },
    {
      "midi": 50,
      "hit": false,
      "t": 9600,
      "d": 300,
      "v": 59
    },
    {
      "midi": 57,
      "hit": false,
      "t": 9900,
      "d": 300,
      "v": 82
    },
    {
      "midi": 66,
      "hit": false,
      "t": 10200,
      "d": 300,
      "v": 97
    },
    {
      "midi": 60,
      "hit": false,
      "t": 10500,
      "d": 300,
      "v": 68
    },
    {
      "midi": 86,
      "hit": false,
      "t": 10800,
      "d": 450,
      "v": 79
    },
    {
      "midi": 50,
      "hit": false,
      "t": 10800,
      "d": 300,
      "v": 65
    },
    {
      "midi": 57,
      "hit": false,
      "t": 11100,
      "d": 300,
      "v": 86
    },
    {
      "midi": 84,
      "hit": false,
      "t": 11250,
      "d": 150,
      "v": 73
    },
    {
      "midi": 86,
      "hit": false,
      "t": 11400,
      "d": 199.21875,
      "v": 100
    },
    {
      "midi": 66,
      "hit": false,
      "t": 11400,
      "d": 300,
      "v": 89
    },
    {
      "midi": 84,
      "hit": false,
      "t": 11599.21875,
      "d": 199.21875,
      "v": 100
    },
    {
      "midi": 60,
      "hit": false,
      "t": 11700,
      "d": 300,
      "v": 71
    },
    {
      "midi": 82,
      "hit": false,
      "t": 11798.4375,
      "d": 201.5625,
      "v": 100
    },
    {
      "midi": 82,
      "hit": false,
      "t": 12000,
      "d": 2400,
      "v": 70
    },
    {
      "midi": 55,
      "hit": false,
      "t": 12000,
      "d": 300,
      "v": 71
    },
    {
      "midi": 62,
      "hit": false,
      "t": 12300,
      "d": 300,
      "v": 93
    },
    {
      "midi": 67,
      "hit": false,
      "t": 12600,
      "d": 300,
      "v": 91
    },
    {
      "midi": 62,
      "hit": false,
      "t": 12900,
      "d": 300,
      "v": 71
    },
    {
      "midi": 55,
      "hit": false,
      "t": 13200,
      "d": 300,
      "v": 70
    },
    {
      "midi": 62,
      "hit": false,
      "t": 13500,
      "d": 300,
      "v": 90
    },
    {
      "midi": 67,
      "hit": false,
      "t": 13800,
      "d": 300,
      "v": 87
    },
    {
      "midi": 62,
      "hit": false,
      "t": 14100,
      "d": 300,
      "v": 68
    },
    {
      "midi": 81,
      "hit": false,
      "t": 14400,
      "d": 1200,
      "v": 69
    },
    {
      "midi": 49,
      "hit": false,
      "t": 14400,
      "d": 300,
      "v": 64
    },
    {
      "midi": 57,
      "hit": false,
      "t": 14700,
      "d": 300,
      "v": 85
    },
    {
      "midi": 67,
      "hit": false,
      "t": 15000,
      "d": 300,
      "v": 97
    },
    {
      "midi": 64,
      "hit": false,
      "t": 15300,
      "d": 300,
      "v": 71
    },
    {
      "midi": 76,
      "hit": false,
      "t": 15600,
      "d": 1200,
      "v": 64
    },
    {
      "midi": 49,
      "hit": false,
      "t": 15600,
      "d": 300,
      "v": 62
    },
    {
      "midi": 57,
      "hit": false,
      "t": 15900,
      "d": 300,
      "v": 83
    },
    {
      "midi": 67,
      "hit": false,
      "t": 16200,
      "d": 300,
      "v": 99
    },
    {
      "midi": 64,
      "hit": false,
      "t": 16500,
      "d": 300,
      "v": 69
    },
    {
      "midi": 77,
      "hit": false,
      "t": 16800,
      "d": 1200,
      "v": 77
    },
    {
      "midi": 50,
      "hit": false,
      "t": 16800,
      "d": 300,
      "v": 61
    },
    {
      "midi": 57,
      "hit": false,
      "t": 17100,
      "d": 300,
      "v": 83
    },
    {
      "midi": 65,
      "hit": false,
      "t": 17400,
      "d": 300,
      "v": 91
    },
    {
      "midi": 62,
      "hit": false,
      "t": 17700,
      "d": 300,
      "v": 70
    },
    {
      "midi": 79,
      "hit": false,
      "t": 18000,
      "d": 600,
      "v": 80
    },
    {
      "midi": 46,
      "hit": false,
      "t": 18000,
      "d": 300,
      "v": 69
    },
    {
      "midi": 55,
      "hit": false,
      "t": 18300,
      "d": 300,
      "v": 89
    },
    {
      "midi": 74,
      "hit": false,
      "t": 18600,
      "d": 600,
      "v": 63
    },
    {
      "midi": 62,
      "hit": false,
      "t": 18600,
      "d": 300,
      "v": 88
    },
    {
      "midi": 55,
      "hit": false,
      "t": 18900,
      "d": 300,
      "v": 73
    },
    {
      "midi": 74,
      "hit": false,
      "t": 19200,
      "d": 199.21875,
      "v": 100
    },
    {
      "midi": 45,
      "hit": false,
      "t": 19200,
      "d": 300,
      "v": 64
    },
    {
      "midi": 76,
      "hit": false,
      "t": 19399.21875,
      "d": 199.21875,
      "v": 100
    },
    {
      "midi": 52,
      "hit": false,
      "t": 19500,
      "d": 300,
      "v": 79
    },
    {
      "midi": 77,
      "hit": false,
      "t": 19598.4375,
      "d": 201.5625,
      "v": 100
    },
    {
      "midi": 76,
      "hit": false,
      "t": 19800,
      "d": 98.4375,
      "v": 100
    },
    {
      "midi": 62,
      "hit": false,
      "t": 19800,
      "d": 300,
      "v": 95
    },
    {
      "midi": 77,
      "hit": false,
      "t": 19898.4375,
      "d": 100.78125,
      "v": 100
    },
    {
      "midi": 76,
      "hit": false,
      "t": 19999.21875,
      "d": 100.78125,
      "v": 100
    },
    {
      "midi": 77,
      "hit": false,
      "t": 20100,
      "d": 98.4375,
      "v": 100
    },
    {
      "midi": 52,
      "hit": false,
      "t": 20100,
      "d": 300,
      "v": 68
    },
    {
      "midi": 76,
      "hit": false,
      "t": 20198.4375,
      "d": 100.78125,
      "v": 100
    },
    {
      "midi": 77,
      "hit": false,
      "t": 20299.21875,
      "d": 100.78125,
      "v": 100
    },
    {
      "midi": 76,
      "hit": false,
      "t": 20400,
      "d": 98.4375,
      "v": 100
    },
    {
      "midi": 45,
      "hit": false,
      "t": 20400,
      "d": 300,
      "v": 69
    },
    {
      "midi": 77,
      "hit": false,
      "t": 20498.4375,
      "d": 100.78125,
      "v": 100
    },
    {
      "midi": 76,
      "hit": false,
      "t": 20599.21875,
      "d": 100.78125,
      "v": 100
    },
    {
      "midi": 77,
      "hit": false,
      "t": 20700,
      "d": 98.4375,
      "v": 100
    },
    {
      "midi": 52,
      "hit": false,
      "t": 20700,
      "d": 300,
      "v": 82
    },
    {
      "midi": 76,
      "hit": false,
      "t": 20798.4375,
      "d": 100.78125,
      "v": 100
    },
    {
      "midi": 77,
      "hit": false,
      "t": 20899.21875,
      "d": 100.78125,
      "v": 100
    },
    {
      "midi": 76,
      "hit": false,
      "t": 21000,
      "d": 300,
      "v": 72
    },
    {
      "midi": 62,
      "hit": false,
      "t": 21000,
      "d": 300,
      "v": 95
    },
    {
      "midi": 74,
      "hit": false,
      "t": 21300,
      "d": 300,
      "v": 70
    },
    {
      "midi": 52,
      "hit": false,
      "t": 21300,
      "d": 300,
      "v": 73
    },
    {
      "midi": 76,
      "hit": false,
      "t": 21600,
      "d": 1800,
      "v": 82
    },
    {
      "midi": 45,
      "hit": false,
      "t": 21600,
      "d": 300,
      "v": 68
    },
    {
      "midi": 52,
      "hit": false,
      "t": 21900,
      "d": 300,
      "v": 82
    },
    {
      "midi": 61,
      "hit": false,
      "t": 22200,
      "d": 300,
      "v": 96
    },
    {
      "midi": 57,
      "hit": false,
      "t": 22500,
      "d": 300,
      "v": 77
    },
    {
      "midi": 45,
      "hit": false,
      "t": 22800,
      "d": 300,
      "v": 67
    },
    {
      "midi": 52,
      "hit": false,
      "t": 23100,
      "d": 300,
      "v": 80
    },
    {
      "midi": 69,
      "hit": false,
      "t": 23400,
      "d": 600,
      "v": 64
    },
    {
      "midi": 61,
      "hit": false,
      "t": 23400,
      "d": 300,
      "v": 93
    },
    {
      "midi": 57,
      "hit": false,
      "t": 23700,
      "d": 300,
      "v": 72
    },
    {
      "midi": 81,
      "hit": false,
      "t": 24000,
      "d": 1200,
      "v": 90
    },
    {
      "midi": 50,
      "hit": false,
      "t": 24000,
      "d": 300,
      "v": 67
    },
    {
      "midi": 57,
      "hit": false,
      "t": 24300,
      "d": 300,
      "v": 83
    },
    {
      "midi": 65,
      "hit": false,
      "t": 24600,
      "d": 300,
      "v": 93
    },
    {
      "midi": 62,
      "hit": false,
      "t": 24900,
      "d": 300,
      "v": 72
    },
    {
      "midi": 79,
      "hit": false,
      "t": 25200,
      "d": 150,
      "v": 77
    },
    {
      "midi": 50,
      "hit": false,
      "t": 25200,
      "d": 300,
      "v": 69
    },
    {
      "midi": 81,
      "hit": false,
      "t": 25350,
      "d": 150,
      "v": 85
    },
    {
      "midi": 79,
      "hit": false,
      "t": 25500,
      "d": 150,
      "v": 73
    },
    {
      "midi": 55,
      "hit": false,
      "t": 25500,
      "d": 300,
      "v": 82
    },
    {
      "midi": 81,
      "hit": false,
      "t": 25650,
      "d": 150,
      "v": 86
    },
    {
      "midi": 79,
      "hit": false,
      "t": 25800,
      "d": 98.4375,
      "v": 100
    },
    {
      "midi": 64,
      "hit": false,
      "t": 25800,
      "d": 300,
      "v": 92
    },
    {
      "midi": 81,
      "hit": false,
      "t": 25898.4375,
      "d": 100.78125,
      "v": 100
    },
    {
      "midi": 79,
      "hit": false,
      "t": 25999.21875,
      "d": 100.78125,
      "v": 100
    },
    {
      "midi": 77,
      "hit": false,
      "t": 26100,
      "d": 98.4375,
      "v": 100
    },
    {
      "midi": 62,
      "hit": false,
      "t": 26100,
      "d": 300,
      "v": 74
    },
    {
      "midi": 79,
      "hit": false,
      "t": 26198.4375,
      "d": 100.78125,
      "v": 100
    },
    {
      "midi": 82,
      "hit": false,
      "t": 26299.21875,
      "d": 100.78125,
      "v": 100
    },
    {
      "midi": 81,
      "hit": false,
      "t": 26400,
      "d": 1200,
      "v": 71
    },
    {
      "midi": 50,
      "hit": false,
      "t": 26400,
      "d": 300,
      "v": 66
    },
    {
      "midi": 57,
      "hit": false,
      "t": 26700,
      "d": 300,
      "v": 81
    },
    {
      "midi": 65,
      "hit": false,
      "t": 27000,
      "d": 300,
      "v": 91
    },
    {
      "midi": 62,
      "hit": false,
      "t": 27300,
      "d": 300,
      "v": 74
    },
    {
      "midi": 74,
      "hit": false,
      "t": 27600,
      "d": 600,
      "v": 64
    },
    {
      "midi": 50,
      "hit": false,
      "t": 27600,
      "d": 300,
      "v": 67
    },
    {
      "midi": 57,
      "hit": false,
      "t": 27900,
      "d": 300,
      "v": 78
    },
    {
      "midi": 86,
      "hit": false,
      "t": 28200,
      "d": 600,
      "v": 98
    },
    {
      "midi": 65,
      "hit": false,
      "t": 28200,
      "d": 300,
      "v": 88
    },
    {
      "midi": 62,
      "hit": false,
      "t": 28500,
      "d": 300,
      "v": 72
    },
    {
      "midi": 98,
      "hit": false,
      "t": 28800,
      "d": 199.21875,
      "v": 100
    },
    {
      "midi": 50,
      "hit": false,
      "t": 28800,
      "d": 300,
      "v": 66
    },
    {
      "midi": 99,
      "hit": false,
      "t": 28999.21875,
      "d": 199.21875,
      "v": 100
    },
    {
      "midi": 57,
      "hit": false,
      "t": 29100,
      "d": 300,
      "v": 82
    },
    {
      "midi": 96,
      "hit": false,
      "t": 29198.4375,
      "d": 201.5625,
      "v": 100
    },
    {
      "midi": 94,
      "hit": false,
      "t": 29400,
      "d": 199.21875,
      "v": 100
    },
    {
      "midi": 66,
      "hit": false,
      "t": 29400,
      "d": 300,
      "v": 91
    },
    {
      "midi": 93,
      "hit": false,
      "t": 29599.21875,
      "d": 199.21875,
      "v": 100
    },
    {
      "midi": 60,
      "hit": false,
      "t": 29700,
      "d": 300,
      "v": 66
    },
    {
      "midi": 91,
      "hit": false,
      "t": 29798.4375,
      "d": 201.5625,
      "v": 100
    },
    {
      "midi": 90,
      "hit": false,
      "t": 30000,
      "d": 119.53125,
      "v": 100
    },
    {
      "midi": 50,
      "hit": false,
      "t": 30000,
      "d": 300,
      "v": 67
    },
    {
      "midi": 87,
      "hit": false,
      "t": 30119.53125,
      "d": 119.53125,
      "v": 100
    },
    {
      "midi": 86,
      "hit": false,
      "t": 30239.0625,
      "d": 119.53125,
      "v": 100
    },
    {
      "midi": 57,
      "hit": false,
      "t": 30300,
      "d": 300,
      "v": 79
    },
    {
      "midi": 84,
      "hit": false,
      "t": 30358.59375,
      "d": 119.53125,
      "v": 100
    },
    {
      "midi": 82,
      "hit": false,
      "t": 30478.125,
      "d": 121.875,
      "v": 100
    },
    {
      "midi": 81,
      "hit": false,
      "t": 30600,
      "d": 98.4375,
      "v": 100
    },
    {
      "midi": 66,
      "hit": false,
      "t": 30600,
      "d": 300,
      "v": 95
    },
    {
      "midi": 79,
      "hit": false,
      "t": 30698.4375,
      "d": 100.78125,
      "v": 100
    },
    {
      "midi": 78,
      "hit": false,
      "t": 30799.21875,
      "d": 100.78125,
      "v": 100
    },
    {
      "midi": 75,
      "hit": false,
      "t": 30900,
      "d": 98.4375,
      "v": 100
    },
    {
      "midi": 60,
      "hit": false,
      "t": 30900,
      "d": 300,
      "v": 66
    },
    {
      "midi": 74,
      "hit": false,
      "t": 30998.4375,
      "d": 100.78125,
      "v": 100
    },
    {
      "midi": 72,
      "hit": false,
      "t": 31099.21875,
      "d": 100.78125,
      "v": 100
    },
    {
      "midi": 70,
      "hit": false,
      "t": 31200,
      "d": 2400,
      "v": 66
    },
    {
      "midi": 55,
      "hit": false,
      "t": 31200,
      "d": 300,
      "v": 68
    },
    {
      "midi": 58,
      "hit": false,
      "t": 31500,
      "d": 300,
      "v": 77
    },
    {
      "midi": 67,
      "hit": false,
      "t": 31800,
      "d": 300,
      "v": 96
    },
    {
      "midi": 62,
      "hit": false,
      "t": 32100,
      "d": 300,
      "v": 68
    },
    {
      "midi": 58,
      "hit": false,
      "t": 32400,
      "d": 300,
      "v": 68
    },
    {
      "midi": 55,
      "hit": false,
      "t": 32700,
      "d": 300,
      "v": 73
    },
    {
      "midi": 58,
      "hit": false,
      "t": 33000,
      "d": 300,
      "v": 77
    },
    {
      "midi": 50,
      "hit": false,
      "t": 33300,
      "d": 300,
      "v": 71
    },
    {
      "midi": 63,
      "hit": false,
      "t": 33600,
      "d": 1200,
      "v": 63
    },
    {
      "midi": 43,
      "hit": false,
      "t": 33600,
      "d": 300,
      "v": 70
    },
    {
      "midi": 51,
      "hit": false,
      "t": 33900,
      "d": 300,
      "v": 82
    },
    {
      "midi": 58,
      "hit": false,
      "t": 34200,
      "d": 300,
      "v": 86
    },
    {
      "midi": 51,
      "hit": false,
      "t": 34500,
      "d": 300,
      "v": 72
    },
    {
      "midi": 75,
      "hit": false,
      "t": 34800,
      "d": 900,
      "v": 92
    },
    {
      "midi": 43,
      "hit": false,
      "t": 34800,
      "d": 300,
      "v": 73
    },
    {
      "midi": 51,
      "hit": false,
      "t": 35100,
      "d": 300,
      "v": 86
    },
    {
      "midi": 58,
      "hit": false,
      "t": 35400,
      "d": 300,
      "v": 84
    },
    {
      "midi": 74,
      "hit": false,
      "t": 35700,
      "d": 300,
      "v": 76
    },
    {
      "midi": 51,
      "hit": false,
      "t": 35700,
      "d": 300,
      "v": 73
    },
    {
      "midi": 73,
      "hit": false,
      "t": 36000,
      "d": 900,
      "v": 70
    },
    {
      "midi": 43,
      "hit": false,
      "t": 36000,
      "d": 300,
      "v": 69
    },
    {
      "midi": 52,
      "hit": false,
      "t": 36300,
      "d": 300,
      "v": 85
    },
    {
      "midi": 58,
      "hit": false,
      "t": 36600,
      "d": 300,
      "v": 86
    },
    {
      "midi": 73,
      "hit": false,
      "t": 36900,
      "d": 75,
      "v": 74
    },
    {
      "midi": 55,
      "hit": false,
      "t": 36900,
      "d": 300,
      "v": 74
    },
    {
      "midi": 74,
      "hit": false,
      "t": 36975,
      "d": 75,
      "v": 81
    },
    {
      "midi": 75,
      "hit": false,
      "t": 37050,
      "d": 75,
      "v": 78
    },
    {
      "midi": 76,
      "hit": false,
      "t": 37125,
      "d": 75,
      "v": 78
    },
    {
      "midi": 77,
      "hit": false,
      "t": 37200,
      "d": 600,
      "v": 84
    },
    {
      "midi": 50,
      "hit": false,
      "t": 37200,
      "d": 300,
      "v": 72
    },
    {
      "midi": 53,
      "hit": false,
      "t": 37500,
      "d": 300,
      "v": 83
    },
    {
      "midi": 76,
      "hit": false,
      "t": 37800,
      "d": 300,
      "v": 74
    },
    {
      "midi": 62,
      "hit": false,
      "t": 37800,
      "d": 300,
      "v": 93
    },
    {
      "midi": 74,
      "hit": false,
      "t": 38100,
      "d": 300,
      "v": 73
    },
    {
      "midi": 58,
      "hit": false,
      "t": 38100,
      "d": 300,
      "v": 73
    },
    {
      "midi": 69,
      "hit": false,
      "t": 38400,
      "d": 600,
      "v": 67
    },
    {
      "midi": 45,
      "hit": false,
      "t": 38400,
      "d": 300,
      "v": 67
    },
    {
      "midi": 53,
      "hit": false,
      "t": 38700,
      "d": 300,
      "v": 77
    },
    {
      "midi": 70,
      "hit": false,
      "t": 39000,
      "d": 1200,
      "v": 80
    },
    {
      "midi": 62,
      "hit": false,
      "t": 39000,
      "d": 300,
      "v": 92
    },
    {
      "midi": 53,
      "hit": false,
      "t": 39300,
      "d": 300,
      "v": 72
    },
    {
      "midi": 45,
      "hit": false,
      "t": 39600,
      "d": 300,
      "v": 68
    },
    {
      "midi": 52,
      "hit": false,
      "t": 39900,
      "d": 300,
      "v": 79
    },
    {
      "midi": 69,
      "hit": false,
      "t": 40200,
      "d": 600,
      "v": 74
    },
    {
      "midi": 61,
      "hit": false,
      "t": 40200,
      "d": 300,
      "v": 90
    },
    {
      "midi": 52,
      "hit": false,
      "t": 40500,
      "d": 300,
      "v": 71
    },
    {
      "midi": 62,
      "hit": false,
      "t": 40800,
      "d": 1800,
      "v": 59
    },
    {
      "midi": 50,
      "hit": false,
      "t": 40800,
      "d": 300,
      "v": 72
    },
    {
      "midi": 57,
      "hit": false,
      "t": 41100,
      "d": 300,
      "v": 83
    },
    {
      "midi": 53,
      "hit": false,
      "t": 41400,
      "d": 300,
      "v": 68
    },
    {
      "midi": 52,
      "hit": false,
      "t": 41700,
      "d": 300,
      "v": 75
    },
    {
      "midi": 50,
      "hit": false,
      "t": 42000,
      "d": 300,
      "v": 73
    },
    {
      "midi": 53,
      "hit": false,
      "t": 42300,
      "d": 300,
      "v": 80
    },
    {
      "midi": 50,
      "hit": false,
      "t": 42600,
      "d": 300,
      "v": 75
    },
    {
      "midi": 48,
      "hit": false,
      "t": 42900,
      "d": 300,
      "v": 73
    },
    {
      "midi": 65,
      "hit": false,
      "t": 43200,
      "d": 600,
      "v": 72
    },
    {
      "midi": 46,
      "hit": false,
      "t": 43200,
      "d": 300,
      "v": 71
    },
    {
      "midi": 53,
      "hit": false,
      "t": 43500,
      "d": 300,
      "v": 83
    },
    {
      "midi": 67,
      "hit": false,
      "t": 43800,
      "d": 150,
      "v": 84
    },
    {
      "midi": 62,
      "hit": false,
      "t": 43800,
      "d": 300,
      "v": 93
    },
    {
      "midi": 69,
      "hit": false,
      "t": 43950,
      "d": 150,
      "v": 80
    },
    {
      "midi": 70,
      "hit": false,
      "t": 44100,
      "d": 150,
      "v": 82
    },
    {
      "midi": 53,
      "hit": false,
      "t": 44100,
      "d": 300,
      "v": 69
    },
    {
      "midi": 72,
      "hit": false,
      "t": 44250,
      "d": 150,
      "v": 87
    },
    {
      "midi": 74,
      "hit": false,
      "t": 44400,
      "d": 199.21875,
      "v": 100
    },
    {
      "midi": 46,
      "hit": false,
      "t": 44400,
      "d": 300,
      "v": 72
    },
    {
      "midi": 75,
      "hit": false,
      "t": 44599.21875,
      "d": 199.21875,
      "v": 100
    },
    {
      "midi": 53,
      "hit": false,
      "t": 44700,
      "d": 300,
      "v": 83
    },
    {
      "midi": 74,
      "hit": false,
      "t": 44798.4375,
      "d": 201.5625,
      "v": 100
    },
    {
      "midi": 72,
      "hit": false,
      "t": 45000,
      "d": 600,
      "v": 68
    },
    {
      "midi": 63,
      "hit": false,
      "t": 45000,
      "d": 300,
      "v": 96
    },
    {
      "midi": 53,
      "hit": false,
      "t": 45300,
      "d": 300,
      "v": 71
    },
    {
      "midi": 77,
      "hit": false,
      "t": 45600,
      "d": 300,
      "v": 88
    },
    {
      "midi": 46,
      "hit": false,
      "t": 45600,
      "d": 300,
      "v": 66
    },
    {
      "midi": 75,
      "hit": false,
      "t": 45900,
      "d": 150,
      "v": 71
    },
    {
      "midi": 53,
      "hit": false,
      "t": 45900,
      "d": 300,
      "v": 84
    },
    {
      "midi": 74,
      "hit": false,
      "t": 46050,
      "d": 150,
      "v": 72
    },
    {
      "midi": 72,
      "hit": false,
      "t": 46200,
      "d": 300,
      "v": 70
    },
    {
      "midi": 62,
      "hit": false,
      "t": 46200,
      "d": 300,
      "v": 94
    },
    {
      "midi": 70,
      "hit": false,
      "t": 46500,
      "d": 300,
      "v": 72
    },
    {
      "midi": 53,
      "hit": false,
      "t": 46500,
      "d": 300,
      "v": 70
    },
    {
      "midi": 74,
      "hit": false,
      "t": 46800,
      "d": 199.21875,
      "v": 100
    },
    {
      "midi": 46,
      "hit": false,
      "t": 46800,
      "d": 300,
      "v": 70
    },
    {
      "midi": 75,
      "hit": false,
      "t": 46999.21875,
      "d": 199.21875,
      "v": 100
    },
    {
      "midi": 53,
      "hit": false,
      "t": 47100,
      "d": 300,
      "v": 81
    },
    {
      "midi": 74,
      "hit": false,
      "t": 47198.4375,
      "d": 201.5625,
      "v": 100
    },
    {
      "midi": 72,
      "hit": false,
      "t": 47400,
      "d": 600,
      "v": 78
    },
    {
      "midi": 63,
      "hit": false,
      "t": 47400,
      "d": 300,
      "v": 93
    },
    {
      "midi": 53,
      "hit": false,
      "t": 47700,
      "d": 300,
      "v": 64
    },
    {
      "midi": 75,
      "hit": false,
      "t": 48000,
      "d": 600,
      "v": 82
    },
    {
      "midi": 77,
      "hit": false,
      "t": 48000,
      "d": 600,
      "v": 82
    },
    {
      "midi": 46,
      "hit": false,
      "t": 48000,
      "d": 300,
      "v": 70
    },
    {
      "midi": 53,
      "hit": false,
      "t": 48300,
      "d": 300,
      "v": 82
    },
    {
      "midi": 75,
      "hit": false,
      "t": 48600,
      "d": 450,
      "v": 78
    },
    {
      "midi": 77,
      "hit": false,
      "t": 48600,
      "d": 450,
      "v": 78
    },
    {
      "midi": 63,
      "hit": false,
      "t": 48600,
      "d": 300,
      "v": 94
    },
    {
      "midi": 53,
      "hit": false,
      "t": 48900,
      "d": 300,
      "v": 70
    },
    {
      "midi": 75,
      "hit": false,
      "t": 49050,
      "d": 150,
      "v": 76
    },
    {
      "midi": 77,
      "hit": false,
      "t": 49050,
      "d": 150,
      "v": 76
    },
    {
      "midi": 74,
      "hit": false,
      "t": 49200,
      "d": 600,
      "v": 80
    },
    {
      "midi": 77,
      "hit": false,
      "t": 49200,
      "d": 600,
      "v": 80
    },
    {
      "midi": 46,
      "hit": false,
      "t": 49200,
      "d": 300,
      "v": 68
    },
    {
      "midi": 53,
      "hit": false,
      "t": 49500,
      "d": 300,
      "v": 80
    },
    {
      "midi": 77,
      "hit": false,
      "t": 49800,
      "d": 450,
      "v": 93
    },
    {
      "midi": 86,
      "hit": false,
      "t": 49800,
      "d": 450,
      "v": 93
    },
    {
      "midi": 62,
      "hit": false,
      "t": 49800,
      "d": 300,
      "v": 92
    },
    {
      "midi": 53,
      "hit": false,
      "t": 50100,
      "d": 300,
      "v": 70
    },
    {
      "midi": 77,
      "hit": false,
      "t": 50250,
      "d": 150,
      "v": 79
    },
    {
      "midi": 86,
      "hit": false,
      "t": 50250,
      "d": 150,
      "v": 79
    },
    {
      "midi": 75,
      "hit": false,
      "t": 50400,
      "d": 450,
      "v": 68
    },
    {
      "midi": 84,
      "hit": false,
      "t": 50400,
      "d": 450,
      "v": 68
    },
    {
      "midi": 46,
      "hit": false,
      "t": 50400,
      "d": 300,
      "v": 64
    },
    {
      "midi": 53,
      "hit": false,
      "t": 50700,
      "d": 300,
      "v": 81
    },
    {
      "midi": 74,
      "hit": false,
      "t": 50850,
      "d": 150,
      "v": 65
    },
    {
      "midi": 82,
      "hit": false,
      "t": 50850,
      "d": 150,
      "v": 65
    },
    {
      "midi": 75,
      "hit": false,
      "t": 51000,
      "d": 450,
      "v": 84
    },
    {
      "midi": 84,
      "hit": false,
      "t": 51000,
      "d": 450,
      "v": 84
    },
    {
      "midi": 63,
      "hit": false,
      "t": 51000,
      "d": 300,
      "v": 96
    },
    {
      "midi": 53,
      "hit": false,
      "t": 51300,
      "d": 300,
      "v": 69
    },
    {
      "midi": 77,
      "hit": false,
      "t": 51450,
      "d": 150,
      "v": 84
    },
    {
      "midi": 86,
      "hit": false,
      "t": 51450,
      "d": 150,
      "v": 84
    },
    {
      "midi": 74,
      "hit": false,
      "t": 51600,
      "d": 1200,
      "v": 65
    },
    {
      "midi": 82,
      "hit": false,
      "t": 51600,
      "d": 1200,
      "v": 65
    },
    {
      "midi": 46,
      "hit": false,
      "t": 51600,
      "d": 300,
      "v": 65
    },
    {
      "midi": 53,
      "hit": false,
      "t": 51900,
      "d": 300,
      "v": 82
    },
    {
      "midi": 62,
      "hit": false,
      "t": 52200,
      "d": 300,
      "v": 92
    },
    {
      "midi": 53,
      "hit": false,
      "t": 52500,
      "d": 300,
      "v": 67
    },
    {
      "midi": 62,
      "hit": false,
      "t": 52800,
      "d": 300,
      "v": 53
    },
    {
      "midi": 43,
      "hit": false,
      "t": 52800,
      "d": 300,
      "v": 64
    },
    {
      "midi": 64,
      "hit": false,
      "t": 53100,
      "d": 150,
      "v": 76
    },
    {
      "midi": 50,
      "hit": false,
      "t": 53100,
      "d": 300,
      "v": 81
    },
    {
      "midi": 66,
      "hit": false,
      "t": 53250,
      "d": 150,
      "v": 82
    },
    {
      "midi": 67,
      "hit": false,
      "t": 53400,
      "d": 300,
      "v": 81
    },
    {
      "midi": 58,
      "hit": false,
      "t": 53400,
      "d": 300,
      "v": 84
    },
    {
      "midi": 69,
      "hit": false,
      "t": 53700,
      "d": 300,
      "v": 82
    },
    {
      "midi": 50,
      "hit": false,
      "t": 53700,
      "d": 300,
      "v": 68
    },
    {
      "midi": 70,
      "hit": false,
      "t": 54000,
      "d": 199.21875,
      "v": 100
    },
    {
      "midi": 43,
      "hit": false,
      "t": 54000,
      "d": 300,
      "v": 68
    },
    {
      "midi": 72,
      "hit": false,
      "t": 54199.21875,
      "d": 199.21875,
      "v": 100
    },
    {
      "midi": 50,
      "hit": false,
      "t": 54300,
      "d": 300,
      "v": 85
    },
    {
      "midi": 70,
      "hit": false,
      "t": 54398.4375,
      "d": 201.5625,
      "v": 100
    },
    {
      "midi": 69,
      "hit": false,
      "t": 54600,
      "d": 600,
      "v": 75
    },
    {
      "midi": 60,
      "hit": false,
      "t": 54600,
      "d": 300,
      "v": 98
    },
    {
      "midi": 50,
      "hit": false,
      "t": 54900,
      "d": 300,
      "v": 68
    },
    {
      "midi": 74,
      "hit": false,
      "t": 55200,
      "d": 300,
      "v": 82
    },
    {
      "midi": 43,
      "hit": false,
      "t": 55200,
      "d": 300,
      "v": 70
    },
    {
      "midi": 72,
      "hit": false,
      "t": 55500,
      "d": 150,
      "v": 75
    },
    {
      "midi": 50,
      "hit": false,
      "t": 55500,
      "d": 300,
      "v": 81
    },
    {
      "midi": 70,
      "hit": false,
      "t": 55650,
      "d": 150,
      "v": 71
    },
    {
      "midi": 69,
      "hit": false,
      "t": 55800,
      "d": 300,
      "v": 75
    },
    {
      "midi": 60,
      "hit": false,
      "t": 55800,
      "d": 300,
      "v": 93
    },
    {
      "midi": 62,
      "hit": false,
      "t": 56100,
      "d": 300,
      "v": 65
    },
    {
      "midi": 50,
      "hit": false,
      "t": 56100,
      "d": 300,
      "v": 71
    },
    {
      "midi": 70,
      "hit": false,
      "t": 56400,
      "d": 199.21875,
      "v": 100
    },
    {
      "midi": 43,
      "hit": false,
      "t": 56400,
      "d": 300,
      "v": 71
    },
    {
      "midi": 72,
      "hit": false,
      "t": 56599.21875,
      "d": 199.21875,
      "v": 100
    },
    {
      "midi": 50,
      "hit": false,
      "t": 56700,
      "d": 300,
      "v": 80
    },
    {
      "midi": 70,
      "hit": false,
      "t": 56798.4375,
      "d": 201.5625,
      "v": 100
    },
    {
      "midi": 67,
      "hit": false,
      "t": 57000,
      "d": 600,
      "v": 67
    },
    {
      "midi": 58,
      "hit": false,
      "t": 57000,
      "d": 300,
      "v": 86
    },
    {
      "midi": 50,
      "hit": false,
      "t": 57300,
      "d": 300,
      "v": 71
    },
    {
      "midi": 67,
      "hit": false,
      "t": 57600,
      "d": 600,
      "v": 81
    },
    {
      "midi": 69,
      "hit": false,
      "t": 57600,
      "d": 600,
      "v": 81
    },
    {
      "midi": 45,
      "hit": false,
      "t": 57600,
      "d": 300,
      "v": 70
    },
    {
      "midi": 51,
      "hit": false,
      "t": 57900,
      "d": 300,
      "v": 81
    },
    {
      "midi": 67,
      "hit": false,
      "t": 58200,
      "d": 450,
      "v": 77
    },
    {
      "midi": 69,
      "hit": false,
      "t": 58200,
      "d": 450,
      "v": 77
    },
    {
      "midi": 61,
      "hit": false,
      "t": 58200,
      "d": 300,
      "v": 95
    },
    {
      "midi": 57,
      "hit": false,
      "t": 58500,
      "d": 300,
      "v": 75
    },
    {
      "midi": 67,
      "hit": false,
      "t": 58650,
      "d": 150,
      "v": 70
    },
    {
      "midi": 69,
      "hit": false,
      "t": 58650,
      "d": 150,
      "v": 70
    },
    {
      "midi": 65,
      "hit": false,
      "t": 58800,
      "d": 600,
      "v": 78
    },
    {
      "midi": 69,
      "hit": false,
      "t": 58800,
      "d": 600,
      "v": 78
    },
    {
      "midi": 50,
      "hit": false,
      "t": 58800,
      "d": 300,
      "v": 68
    },
    {
      "midi": 57,
      "hit": false,
      "t": 59100,
      "d": 300,
      "v": 80
    },
    {
      "midi": 69,
      "hit": false,
      "t": 59400,
      "d": 450,
      "v": 90
    },
    {
      "midi": 77,
      "hit": false,
      "t": 59400,
      "d": 450,
      "v": 90
    },
    {
      "midi": 65,
      "hit": false,
      "t": 59400,
      "d": 300,
      "v": 90
    },
    {
      "midi": 57,
      "hit": false,
      "t": 59700,
      "d": 300,
      "v": 69
    },
    {
      "midi": 69,
      "hit": false,
      "t": 59850,
      "d": 150,
      "v": 78
    },
    {
      "midi": 77,
      "hit": false,
      "t": 59850,
      "d": 150,
      "v": 78
    },
    {
      "midi": 67,
      "hit": false,
      "t": 60000,
      "d": 450,
      "v": 75
    },
    {
      "midi": 75,
      "hit": false,
      "t": 60000,
      "d": 450,
      "v": 75
    },
    {
      "midi": 45,
      "hit": false,
      "t": 60000,
      "d": 300,
      "v": 62
    },
    {
      "midi": 51,
      "hit": false,
      "t": 60300,
      "d": 300,
      "v": 79
    },
    {
      "midi": 65,
      "hit": false,
      "t": 60450,
      "d": 150,
      "v": 79
    },
    {
      "midi": 74,
      "hit": false,
      "t": 60450,
      "d": 150,
      "v": 79
    },
    {
      "midi": 67,
      "hit": false,
      "t": 60600,
      "d": 450,
      "v": 77
    },
    {
      "midi": 75,
      "hit": false,
      "t": 60600,
      "d": 450,
      "v": 77
    },
    {
      "midi": 61,
      "hit": false,
      "t": 60600,
      "d": 300,
      "v": 92
    },
    {
      "midi": 57,
      "hit": false,
      "t": 60900,
      "d": 300,
      "v": 77
    },
    {
      "midi": 69,
      "hit": false,
      "t": 61050,
      "d": 150,
      "v": 83
    },
    {
      "midi": 77,
      "hit": false,
      "t": 61050,
      "d": 150,
      "v": 83
    },
    {
      "midi": 63,
      "hit": false,
      "t": 61200,
      "d": 1200,
      "v": 67
    },
    {
      "midi": 74,
      "hit": false,
      "t": 61200,
      "d": 1200,
      "v": 67
    },
    {
      "midi": 50,
      "hit": false,
      "t": 61200,
      "d": 300,
      "v": 69
    },
    {
      "midi": 57,
      "hit": false,
      "t": 61500,
      "d": 300,
      "v": 82
    },
    {
      "midi": 65,
      "hit": false,
      "t": 61800,
      "d": 300,
      "v": 90
    },
    {
      "midi": 57,
      "hit": false,
      "t": 62100,
      "d": 300,
      "v": 71
    },
    {
      "midi": 74,
      "hit": false,
      "t": 62400,
      "d": 600,
      "v": 75
    },
    {
      "midi": 46,
      "hit": false,
      "t": 62400,
      "d": 300,
      "v": 69
    },
    {
      "midi": 50,
      "hit": false,
      "t": 62700,
      "d": 300,
      "v": 76
    },
    {
      "midi": 73,
      "hit": false,
      "t": 63000,
      "d": 300,
      "v": 71
    },
    {
      "midi": 62,
      "hit": false,
      "t": 63000,
      "d": 300,
      "v": 98
    },
    {
      "midi": 74,
      "hit": false,
      "t": 63300,
      "d": 300,
      "v": 78
    },
    {
      "midi": 58,
      "hit": false,
      "t": 63300,
      "d": 300,
      "v": 78
    },
    {
      "midi": 77,
      "hit": false,
      "t": 63600,
      "d": 900,
      "v": 85
    },
    {
      "midi": 45,
      "hit": false,
      "t": 63600,
      "d": 300,
      "v": 68
    },
    {
      "midi": 49,
      "hit": false,
      "t": 63900,
      "d": 300,
      "v": 77
    },
    {
      "midi": 61,
      "hit": false,
      "t": 64200,
      "d": 300,
      "v": 95
    },
    {
      "midi": 75,
      "hit": false,
      "t": 64500,
      "d": 300,
      "v": 75
    },
    {
      "midi": 57,
      "hit": false,
      "t": 64500,
      "d": 300,
      "v": 77
    },
    {
      "midi": 64,
      "hit": false,
      "t": 64800,
      "d": 450,
      "v": 54
    },
    {
      "midi": 46,
      "hit": false,
      "t": 64800,
      "d": 300,
      "v": 68
    },
    {
      "midi": 50,
      "hit": false,
      "t": 65100,
      "d": 300,
      "v": 84
    },
    {
      "midi": 74,
      "hit": false,
      "t": 65250,
      "d": 150,
      "v": 90
    },
    {
      "midi": 74,
      "hit": false,
      "t": 65400,
      "d": 300,
      "v": 76
    },
    {
      "midi": 62,
      "hit": false,
      "t": 65400,
      "d": 300,
      "v": 99
    },
    {
      "midi": 74,
      "hit": false,
      "t": 65700,
      "d": 300,
      "v": 76
    },
    {
      "midi": 58,
      "hit": false,
      "t": 65700,
      "d": 300,
      "v": 83
    },
    {
      "midi": 73,
      "hit": false,
      "t": 66000,
      "d": 300,
      "v": 71
    },
    {
      "midi": 45,
      "hit": false,
      "t": 66000,
      "d": 300,
      "v": 67
    },
    {
      "midi": 76,
      "hit": false,
      "t": 66300,
      "d": 900,
      "v": 81
    },
    {
      "midi": 49,
      "hit": false,
      "t": 66300,
      "d": 300,
      "v": 75
    },
    {
      "midi": 61,
      "hit": false,
      "t": 66600,
      "d": 300,
      "v": 97
    },
    {
      "midi": 57,
      "hit": false,
      "t": 66900,
      "d": 300,
      "v": 78
    },
    {
      "midi": 69,
      "hit": false,
      "t": 67200,
      "d": 300,
      "v": 64
    },
    {
      "midi": 51,
      "hit": false,
      "t": 67200,
      "d": 300,
      "v": 71
    },
    {
      "midi": 71,
      "hit": false,
      "t": 67500,
      "d": 150,
      "v": 76
    },
    {
      "midi": 54,
      "hit": false,
      "t": 67500,
      "d": 300,
      "v": 78
    },
    {
      "midi": 69,
      "hit": false,
      "t": 67650,
      "d": 150,
      "v": 69
    },
    {
      "midi": 68,
      "hit": false,
      "t": 67800,
      "d": 300,
      "v": 72
    },
    {
      "midi": 59,
      "hit": false,
      "t": 67800,
      "d": 300,
      "v": 80
    },
    {
      "midi": 66,
      "hit": false,
      "t": 68100,
      "d": 300,
      "v": 68
    },
    {
      "midi": 57,
      "hit": false,
      "t": 68100,
      "d": 300,
      "v": 70
    },
    {
      "midi": 66,
      "hit": false,
      "t": 68400,
      "d": 900,
      "v": 77
    },
    {
      "midi": 52,
      "hit": false,
      "t": 68400,
      "d": 300,
      "v": 73
    },
    {
      "midi": 57,
      "hit": false,
      "t": 68700,
      "d": 300,
      "v": 78
    },
    {
      "midi": 61,
      "hit": false,
      "t": 69000,
      "d": 300,
      "v": 86
    },
    {
      "midi": 64,
      "hit": false,
      "t": 69300,
      "d": 300,
      "v": 72
    },
    {
      "midi": 57,
      "hit": false,
      "t": 69300,
      "d": 300,
      "v": 70
    },
    {
      "midi": 64,
      "hit": false,
      "t": 69600,
      "d": 450,
      "v": 75
    },
    {
      "midi": 52,
      "hit": false,
      "t": 69600,
      "d": 300,
      "v": 75
    },
    {
      "midi": 56,
      "hit": false,
      "t": 69900,
      "d": 300,
      "v": 80
    },
    {
      "midi": 74,
      "hit": false,
      "t": 70050,
      "d": 150,
      "v": 91
    },
    {
      "midi": 66,
      "hit": false,
      "t": 70200,
      "d": 450,
      "v": 63
    },
    {
      "midi": 62,
      "hit": false,
      "t": 70200,
      "d": 300,
      "v": 86
    },
    {
      "midi": 64,
      "hit": false,
      "t": 70500,
      "d": 300,
      "v": 84
    },
    {
      "midi": 68,
      "hit": false,
      "t": 70650,
      "d": 150,
      "v": 75
    },
    {
      "midi": 69,
      "hit": false,
      "t": 70800,
      "d": 450,
      "v": 80
    },
    {
      "midi": 45,
      "hit": false,
      "t": 70800,
      "d": 150,
      "v": 66
    },
    {
      "midi": 49,
      "hit": false,
      "t": 70950,
      "d": 150,
      "v": 80
    },
    {
      "midi": 52,
      "hit": false,
      "t": 71100,
      "d": 150,
      "v": 81
    },
    {
      "midi": 81,
      "hit": false,
      "t": 71250,
      "d": 150,
      "v": 93
    },
    {
      "midi": 57,
      "hit": false,
      "t": 71250,
      "d": 150,
      "v": 84
    },
    {
      "midi": 73,
      "hit": false,
      "t": 71400,
      "d": 450,
      "v": 64
    },
    {
      "midi": 61,
      "hit": false,
      "t": 71400,
      "d": 600,
      "v": 85
    },
    {
      "midi": 74,
      "hit": false,
      "t": 71850,
      "d": 150,
      "v": 77
    },
    {
      "midi": 70,
      "hit": false,
      "t": 72000,
      "d": 900,
      "v": 83
    },
    {
      "midi": 74,
      "hit": false,
      "t": 72000,
      "d": 900,
      "v": 83
    },
    {
      "midi": 76,
      "hit": false,
      "t": 72000,
      "d": 900,
      "v": 83
    },
    {
      "midi": 46,
      "hit": false,
      "t": 72000,
      "d": 300,
      "v": 66
    },
    {
      "midi": 56,
      "hit": false,
      "t": 72300,
      "d": 150,
      "v": 81
    },
    {
      "midi": 62,
      "hit": false,
      "t": 72450,
      "d": 150,
      "v": 91
    },
    {
      "midi": 64,
      "hit": false,
      "t": 72600,
      "d": 300,
      "v": 80
    },
    {
      "midi": 69,
      "hit": false,
      "t": 72900,
      "d": 900,
      "v": 78
    },
    {
      "midi": 73,
      "hit": false,
      "t": 72900,
      "d": 900,
      "v": 78
    },
    {
      "midi": 76,
      "hit": false,
      "t": 72900,
      "d": 900,
      "v": 78
    },
    {
      "midi": 52,
      "hit": false,
      "t": 72900,
      "d": 150,
      "v": 71
    },
    {
      "midi": 57,
      "hit": false,
      "t": 73050,
      "d": 150,
      "v": 78
    },
    {
      "midi": 61,
      "hit": false,
      "t": 73200,
      "d": 450,
      "v": 88
    },
    {
      "midi": 57,
      "hit": false,
      "t": 73650,
      "d": 150,
      "v": 77
    },
    {
      "midi": 68,
      "hit": false,
      "t": 73800,
      "d": 900,
      "v": 76
    },
    {
      "midi": 74,
      "hit": false,
      "t": 73800,
      "d": 900,
      "v": 76
    },
    {
      "midi": 76,
      "hit": false,
      "t": 73800,
      "d": 900,
      "v": 76
    },
    {
      "midi": 40,
      "hit": false,
      "t": 73800,
      "d": 300,
      "v": 68
    },
    {
      "midi": 52,
      "hit": false,
      "t": 74100,
      "d": 150,
      "v": 89
    },
    {
      "midi": 56,
      "hit": false,
      "t": 74250,
      "d": 150,
      "v": 81
    },
    {
      "midi": 59,
      "hit": false,
      "t": 74400,
      "d": 300,
      "v": 78
    },
    {
      "midi": 69,
      "hit": false,
      "t": 74700,
      "d": 900,
      "v": 78
    },
    {
      "midi": 73,
      "hit": false,
      "t": 74700,
      "d": 900,
      "v": 78
    },
    {
      "midi": 76,
      "hit": false,
      "t": 74700,
      "d": 900,
      "v": 78
    },
    {
      "midi": 52,
      "hit": false,
      "t": 74700,
      "d": 150,
      "v": 70
    },
    {
      "midi": 57,
      "hit": false,
      "t": 74850,
      "d": 150,
      "v": 80
    },
    {
      "midi": 61,
      "hit": false,
      "t": 75000,
      "d": 450,
      "v": 87
    },
    {
      "midi": 57,
      "hit": false,
      "t": 75450,
      "d": 150,
      "v": 74
    },
    {
      "midi": 68,
      "hit": false,
      "t": 75600,
      "d": 900,
      "v": 77
    },
    {
      "midi": 74,
      "hit": false,
      "t": 75600,
      "d": 900,
      "v": 77
    },
    {
      "midi": 76,
      "hit": false,
      "t": 75600,
      "d": 900,
      "v": 77
    },
    {
      "midi": 46,
      "hit": false,
      "t": 75600,
      "d": 300,
      "v": 65
    },
    {
      "midi": 56,
      "hit": false,
      "t": 75900,
      "d": 150,
      "v": 81
    },
    {
      "midi": 62,
      "hit": false,
      "t": 76050,
      "d": 150,
      "v": 85
    },
    {
      "midi": 64,
      "hit": false,
      "t": 76200,
      "d": 300,
      "v": 87
    },
    {
      "midi": 69,
      "hit": false,
      "t": 76500,
      "d": 900,
      "v": 78
    },
    {
      "midi": 73,
      "hit": false,
      "t": 76500,
      "d": 900,
      "v": 78
    },
    {
      "midi": 76,
      "hit": false,
      "t": 76500,
      "d": 900,
      "v": 78
    },
    {
      "midi": 52,
      "hit": false,
      "t": 76500,
      "d": 150,
      "v": 68
    },
    {
      "midi": 57,
      "hit": false,
      "t": 76650,
      "d": 150,
      "v": 78
    },
    {
      "midi": 61,
      "hit": false,
      "t": 76800,
      "d": 450,
      "v": 86
    },
    {
      "midi": 57,
      "hit": false,
      "t": 77250,
      "d": 150,
      "v": 73
    },
    {
      "midi": 68,
      "hit": false,
      "t": 77400,
      "d": 900,
      "v": 75
    },
    {
      "midi": 76,
      "hit": false,
      "t": 77400,
      "d": 900,
      "v": 75
    },
    {
      "midi": 40,
      "hit": false,
      "t": 77400,
      "d": 300,
      "v": 67
    },
    {
      "midi": 52,
      "hit": false,
      "t": 77700,
      "d": 150,
      "v": 85
    },
    {
      "midi": 56,
      "hit": false,
      "t": 77850,
      "d": 150,
      "v": 80
    },
    {
      "midi": 59,
      "hit": false,
      "t": 78000,
      "d": 300,
      "v": 86
    },
    {
      "midi": 69,
      "hit": false,
      "t": 78300,
      "d": 900,
      "v": 72
    },
    {
      "midi": 73,
      "hit": false,
      "t": 78300,
      "d": 900,
      "v": 72
    },
    {
      "midi": 76,
      "hit": false,
      "t": 78300,
      "d": 900,
      "v": 72
    },
    {
      "midi": 52,
      "hit": false,
      "t": 78300,
      "d": 150,
      "v": 65
    },
    {
      "midi": 57,
      "hit": false,
      "t": 78450,
      "d": 150,
      "v": 80
    },
    {
      "midi": 61,
      "hit": false,
      "t": 78600,
      "d": 450,
      "v": 88
    },
    {
      "midi": 57,
      "hit": false,
      "t": 79050,
      "d": 150,
      "v": 74
    },
    {
      "midi": 68,
      "hit": false,
      "t": 79200,
      "d": 900,
      "v": 77
    },
    {
      "midi": 74,
      "hit": false,
      "t": 79200,
      "d": 900,
      "v": 77
    },
    {
      "midi": 76,
      "hit": false,
      "t": 79200,
      "d": 900,
      "v": 77
    },
    {
      "midi": 40,
      "hit": false,
      "t": 79200,
      "d": 300,
      "v": 68
    },
    {
      "midi": 52,
      "hit": false,
      "t": 79500,
      "d": 150,
      "v": 83
    },
    {
      "midi": 56,
      "hit": false,
      "t": 79650,
      "d": 150,
      "v": 82
    },
    {
      "midi": 59,
      "hit": false,
      "t": 79800,
      "d": 300,
      "v": 77
    },
    {
      "midi": 69,
      "hit": false,
      "t": 80100,
      "d": 900,
      "v": 79
    },
    {
      "midi": 73,
      "hit": false,
      "t": 80100,
      "d": 900,
      "v": 79
    },
    {
      "midi": 76,
      "hit": false,
      "t": 80100,
      "d": 900,
      "v": 79
    },
    {
      "midi": 52,
      "hit": false,
      "t": 80100,
      "d": 150,
      "v": 71
    },
    {
      "midi": 57,
      "hit": false,
      "t": 80250,
      "d": 150,
      "v": 79
    },
    {
      "midi": 61,
      "hit": false,
      "t": 80400,
      "d": 450,
      "v": 79
    },
    {
      "midi": 57,
      "hit": false,
      "t": 80850,
      "d": 150,
      "v": 76
    },
    {
      "midi": 68,
      "hit": false,
      "t": 81000,
      "d": 1800,
      "v": 76
    },
    {
      "midi": 71,
      "hit": false,
      "t": 81000,
      "d": 1800,
      "v": 76
    },
    {
      "midi": 74,
      "hit": false,
      "t": 81000,
      "d": 1800,
      "v": 76
    },
    {
      "midi": 76,
      "hit": false,
      "t": 81000,
      "d": 1800,
      "v": 76
    },
    {
      "midi": 40,
      "hit": false,
      "t": 81000,
      "d": 300,
      "v": 64
    },
    {
      "midi": 52,
      "hit": false,
      "t": 81300,
      "d": 150,
      "v": 79
    },
    {
      "midi": 56,
      "hit": false,
      "t": 81450,
      "d": 150,
      "v": 79
    },
    {
      "midi": 59,
      "hit": false,
      "t": 81600,
      "d": 1200,
      "v": 77
    },
    {
      "midi": 45,
      "hit": false,
      "t": 82800,
      "d": 300,
      "v": 69
    },
    {
      "midi": 52,
      "hit": false,
      "t": 83100,
      "d": 4800,
      "v": 77
    },
    {
      "midi": 61,
      "hit": false,
      "t": 83400,
      "d": 300,
      "v": 70
    },
    {
      "midi": 64,
      "hit": false,
      "t": 83700,
      "d": 300,
      "v": 80
    },
    {
      "midi": 69,
      "hit": false,
      "t": 84000,
      "d": 300,
      "v": 87
    },
    {
      "midi": 64,
      "hit": false,
      "t": 84300,
      "d": 300,
      "v": 70
    },
    {
      "midi": 69,
      "hit": false,
      "t": 84600,
      "d": 300,
      "v": 87
    },
    {
      "midi": 73,
      "hit": false,
      "t": 84900,
      "d": 300,
      "v": 84
    },
    {
      "midi": 76,
      "hit": false,
      "t": 85200,
      "d": 300,
      "v": 81
    },
    {
      "midi": 81,
      "hit": false,
      "t": 85500,
      "d": 300,
      "v": 92
    },
    {
      "midi": 85,
      "hit": false,
      "t": 85800,
      "d": 300,
      "v": 86
    },
    {
      "midi": 88,
      "hit": false,
      "t": 86100,
      "d": 300,
      "v": 84
    },
    {
      "midi": 93,
      "hit": false,
      "t": 86400,
      "d": 1200,
      "v": 65
    },
    {
      "midi": 93,
      "hit": false,
      "t": 87600,
      "d": 1200,
      "v": 75
    },
    {
      "midi": 69,
      "hit": false,
      "t": 89400,
      "d": 600,
      "v": 66
    },
    {
      "midi": 81,
      "hit": false,
      "t": 90000,
      "d": 1200,
      "v": 94
    },
    {
      "midi": 50,
      "hit": false,
      "t": 90000,
      "d": 300,
      "v": 66
    },
    {
      "midi": 57,
      "hit": false,
      "t": 90300,
      "d": 300,
      "v": 82
    },
    {
      "midi": 65,
      "hit": false,
      "t": 90600,
      "d": 300,
      "v": 91
    },
    {
      "midi": 62,
      "hit": false,
      "t": 90900,
      "d": 300,
      "v": 74
    },
    {
      "midi": 79,
      "hit": false,
      "t": 91200,
      "d": 150,
      "v": 75
    },
    {
      "midi": 50,
      "hit": false,
      "t": 91200,
      "d": 300,
      "v": 66
    },
    {
      "midi": 81,
      "hit": false,
      "t": 91350,
      "d": 150,
      "v": 77
    },
    {
      "midi": 79,
      "hit": false,
      "t": 91500,
      "d": 150,
      "v": 71
    },
    {
      "midi": 55,
      "hit": false,
      "t": 91500,
      "d": 300,
      "v": 80
    },
    {
      "midi": 81,
      "hit": false,
      "t": 91650,
      "d": 150,
      "v": 83
    },
    {
      "midi": 79,
      "hit": false,
      "t": 91800,
      "d": 98.4375,
      "v": 100
    },
    {
      "midi": 64,
      "hit": false,
      "t": 91800,
      "d": 300,
      "v": 96
    },
    {
      "midi": 81,
      "hit": false,
      "t": 91898.4375,
      "d": 100.78125,
      "v": 100
    },
    {
      "midi": 79,
      "hit": false,
      "t": 91999.21875,
      "d": 100.78125,
      "v": 100
    },
    {
      "midi": 77,
      "hit": false,
      "t": 92100,
      "d": 98.4375,
      "v": 100
    },
    {
      "midi": 62,
      "hit": false,
      "t": 92100,
      "d": 300,
      "v": 77
    },
    {
      "midi": 79,
      "hit": false,
      "t": 92198.4375,
      "d": 100.78125,
      "v": 100
    },
    {
      "midi": 82,
      "hit": false,
      "t": 92299.21875,
      "d": 100.78125,
      "v": 100
    },
    {
      "midi": 81,
      "hit": false,
      "t": 92400,
      "d": 1200,
      "v": 82
    },
    {
      "midi": 50,
      "hit": false,
      "t": 92400,
      "d": 300,
      "v": 68
    },
    {
      "midi": 57,
      "hit": false,
      "t": 92700,
      "d": 300,
      "v": 80
    },
    {
      "midi": 65,
      "hit": false,
      "t": 93000,
      "d": 300,
      "v": 93
    },
    {
      "midi": 62,
      "hit": false,
      "t": 93300,
      "d": 300,
      "v": 71
    },
    {
      "midi": 74,
      "hit": false,
      "t": 93600,
      "d": 600,
      "v": 60
    },
    {
      "midi": 50,
      "hit": false,
      "t": 93600,
      "d": 300,
      "v": 69
    },
    {
      "midi": 57,
      "hit": false,
      "t": 93900,
      "d": 300,
      "v": 78
    },
    {
      "midi": 86,
      "hit": false,
      "t": 94200,
      "d": 600,
      "v": 95
    },
    {
      "midi": 65,
      "hit": false,
      "t": 94200,
      "d": 300,
      "v": 91
    },
    {
      "midi": 62,
      "hit": false,
      "t": 94500,
      "d": 300,
      "v": 69
    },
    {
      "midi": 86,
      "hit": false,
      "t": 94800,
      "d": 199.21875,
      "v": 100
    },
    {
      "midi": 50,
      "hit": false,
      "t": 94800,
      "d": 300,
      "v": 63
    },
    {
      "midi": 87,
      "hit": false,
      "t": 94999.21875,
      "d": 199.21875,
      "v": 100
    },
    {
      "midi": 57,
      "hit": false,
      "t": 95100,
      "d": 300,
      "v": 79
    },
    {
      "midi": 84,
      "hit": false,
      "t": 95198.4375,
      "d": 201.5625,
      "v": 100
    },
    {
      "midi": 82,
      "hit": false,
      "t": 95400,
      "d": 199.21875,
      "v": 100
    },
    {
      "midi": 66,
      "hit": false,
      "t": 95400,
      "d": 300,
      "v": 90
    },
    {
      "midi": 81,
      "hit": false,
      "t": 95599.21875,
      "d": 199.21875,
      "v": 100
    },
    {
      "midi": 60,
      "hit": false,
      "t": 95700,
      "d": 300,
      "v": 69
    },
    {
      "midi": 79,
      "hit": false,
      "t": 95798.4375,
      "d": 201.5625,
      "v": 100
    },
    {
      "midi": 78,
      "hit": false,
      "t": 96000,
      "d": 119.53125,
      "v": 100
    },
    {
      "midi": 50,
      "hit": false,
      "t": 96000,
      "d": 300,
      "v": 68
    },
    {
      "midi": 75,
      "hit": false,
      "t": 96119.53125,
      "d": 119.53125,
      "v": 100
    },
    {
      "midi": 74,
      "hit": false,
      "t": 96239.0625,
      "d": 119.53125,
      "v": 100
    },
    {
      "midi": 57,
      "hit": false,
      "t": 96300,
      "d": 300,
      "v": 85
    },
    {
      "midi": 72,
      "hit": false,
      "t": 96358.59375,
      "d": 119.53125,
      "v": 100
    },
    {
      "midi": 70,
      "hit": false,
      "t": 96478.125,
      "d": 121.875,
      "v": 100
    },
    {
      "midi": 81,
      "hit": false,
      "t": 96600,
      "d": 98.4375,
      "v": 100
    },
    {
      "midi": 66,
      "hit": false,
      "t": 96600,
      "d": 300,
      "v": 89
    },
    {
      "midi": 79,
      "hit": false,
      "t": 96698.4375,
      "d": 100.78125,
      "v": 100
    },
    {
      "midi": 78,
      "hit": false,
      "t": 96799.21875,
      "d": 100.78125,
      "v": 100
    },
    {
      "midi": 75,
      "hit": false,
      "t": 96900,
      "d": 98.4375,
      "v": 100
    },
    {
      "midi": 60,
      "hit": false,
      "t": 96900,
      "d": 300,
      "v": 64
    },
    {
      "midi": 74,
      "hit": false,
      "t": 96998.4375,
      "d": 100.78125,
      "v": 100
    },
    {
      "midi": 72,
      "hit": false,
      "t": 97099.21875,
      "d": 100.78125,
      "v": 100
    },
    {
      "midi": 70,
      "hit": false,
      "t": 97200,
      "d": 1200,
      "v": 65
    },
    {
      "midi": 43,
      "hit": false,
      "t": 97200,
      "d": 300,
      "v": 67
    },
    {
      "midi": 50,
      "hit": false,
      "t": 97500,
      "d": 300,
      "v": 83
    },
    {
      "midi": 58,
      "hit": false,
      "t": 97800,
      "d": 300,
      "v": 86
    },
    {
      "midi": 55,
      "hit": false,
      "t": 98100,
      "d": 300,
      "v": 72
    },
    {
      "midi": 82,
      "hit": false,
      "t": 98400,
      "d": 1200,
      "v": 95
    },
    {
      "midi": 43,
      "hit": false,
      "t": 98400,
      "d": 300,
      "v": 70
    },
    {
      "midi": 50,
      "hit": false,
      "t": 98700,
      "d": 300,
      "v": 82
    },
    {
      "midi": 58,
      "hit": false,
      "t": 99000,
      "d": 300,
      "v": 84
    },
    {
      "midi": 55,
      "hit": false,
      "t": 99300,
      "d": 300,
      "v": 74
    },
    {
      "midi": 81,
      "hit": false,
      "t": 99600,
      "d": 1200,
      "v": 80
    },
    {
      "midi": 49,
      "hit": false,
      "t": 99600,
      "d": 300,
      "v": 66
    },
    {
      "midi": 52,
      "hit": false,
      "t": 99900,
      "d": 300,
      "v": 79
    },
    {
      "midi": 61,
      "hit": false,
      "t": 100200,
      "d": 300,
      "v": 88
    },
    {
      "midi": 57,
      "hit": false,
      "t": 100500,
      "d": 300,
      "v": 77
    },
    {
      "midi": 76,
      "hit": false,
      "t": 100800,
      "d": 1200,
      "v": 64
    },
    {
      "midi": 49,
      "hit": false,
      "t": 100800,
      "d": 300,
      "v": 65
    },
    {
      "midi": 52,
      "hit": false,
      "t": 101100,
      "d": 300,
      "v": 80
    },
    {
      "midi": 64,
      "hit": false,
      "t": 101400,
      "d": 300,
      "v": 100
    },
    {
      "midi": 57,
      "hit": false,
      "t": 101700,
      "d": 300,
      "v": 73
    },
    {
      "midi": 77,
      "hit": false,
      "t": 102000,
      "d": 900,
      "v": 77
    },
    {
      "midi": 50,
      "hit": false,
      "t": 102000,
      "d": 300,
      "v": 70
    },
    {
      "midi": 53,
      "hit": false,
      "t": 102300,
      "d": 300,
      "v": 78
    },
    {
      "midi": 62,
      "hit": false,
      "t": 102600,
      "d": 300,
      "v": 89
    },
    {
      "midi": 76,
      "hit": false,
      "t": 102900,
      "d": 150,
      "v": 74
    },
    {
      "midi": 57,
      "hit": false,
      "t": 102900,
      "d": 300,
      "v": 76
    },
    {
      "midi": 77,
      "hit": false,
      "t": 103050,
      "d": 150,
      "v": 79
    },
    {
      "midi": 79,
      "hit": false,
      "t": 103200,
      "d": 600,
      "v": 86
    },
    {
      "midi": 46,
      "hit": false,
      "t": 103200,
      "d": 300,
      "v": 65
    },
    {
      "midi": 50,
      "hit": false,
      "t": 103500,
      "d": 300,
      "v": 78
    },
    {
      "midi": 74,
      "hit": false,
      "t": 103800,
      "d": 600,
      "v": 66
    },
    {
      "midi": 62,
      "hit": false,
      "t": 103800,
      "d": 300,
      "v": 96
    },
    {
      "midi": 55,
      "hit": false,
      "t": 104100,
      "d": 300,
      "v": 72
    },
    {
      "midi": 76,
      "hit": false,
      "t": 104400,
      "d": 199.21875,
      "v": 100
    },
    {
      "midi": 45,
      "hit": false,
      "t": 104400,
      "d": 300,
      "v": 71
    },
    {
      "midi": 77,
      "hit": false,
      "t": 104599.21875,
      "d": 199.21875,
      "v": 100
    },
    {
      "midi": 52,
      "hit": false,
      "t": 104700,
      "d": 300,
      "v": 81
    },
    {
      "midi": 76,
      "hit": false,
      "t": 104798.4375,
      "d": 201.5625,
      "v": 100
    },
    {
      "midi": 75,
      "hit": false,
      "t": 105000,
      "d": 199.21875,
      "v": 100
    },
    {
      "midi": 61,
      "hit": false,
      "t": 105000,
      "d": 300,
      "v": 97
    },
    {
      "midi": 76,
      "hit": false,
      "t": 105199.21875,
      "d": 199.21875,
      "v": 100
    },
    {
      "midi": 52,
      "hit": false,
      "t": 105300,
      "d": 300,
      "v": 71
    },
    {
      "midi": 77,
      "hit": false,
      "t": 105398.4375,
      "d": 201.5625,
      "v": 100
    },
    {
      "midi": 78,
      "hit": false,
      "t": 105600,
      "d": 98.4375,
      "v": 100
    },
    {
      "midi": 45,
      "hit": false,
      "t": 105600,
      "d": 300,
      "v": 72
    },
    {
      "midi": 79,
      "hit": false,
      "t": 105698.4375,
      "d": 100.78125,
      "v": 100
    },
    {
      "midi": 80,
      "hit": false,
      "t": 105799.21875,
      "d": 100.78125,
      "v": 100
    },
    {
      "midi": 81,
      "hit": false,
      "t": 105900,
      "d": 98.4375,
      "v": 100
    },
    {
      "midi": 52,
      "hit": false,
      "t": 105900,
      "d": 300,
      "v": 78
    },
    {
      "midi": 82,
      "hit": false,
      "t": 105998.4375,
      "d": 100.78125,
      "v": 100
    },
    {
      "midi": 83,
      "hit": false,
      "t": 106099.21875,
      "d": 100.78125,
      "v": 100
    },
    {
      "midi": 84,
      "hit": false,
      "t": 106200,
      "d": 98.4375,
      "v": 100
    },
    {
      "midi": 61,
      "hit": false,
      "t": 106200,
      "d": 300,
      "v": 94
    },
    {
      "midi": 85,
      "hit": false,
      "t": 106298.4375,
      "d": 100.78125,
      "v": 100
    },
    {
      "midi": 86,
      "hit": false,
      "t": 106399.21875,
      "d": 100.78125,
      "v": 100
    },
    {
      "midi": 87,
      "hit": false,
      "t": 106500,
      "d": 98.4375,
      "v": 100
    },
    {
      "midi": 52,
      "hit": false,
      "t": 106500,
      "d": 300,
      "v": 70
    },
    {
      "midi": 88,
      "hit": false,
      "t": 106598.4375,
      "d": 100.78125,
      "v": 100
    },
    {
      "midi": 89,
      "hit": false,
      "t": 106699.21875,
      "d": 100.78125,
      "v": 100
    },
    {
      "midi": 89,
      "hit": false,
      "t": 106800,
      "d": 1200,
      "v": 100
    },
    {
      "midi": 44,
      "hit": false,
      "t": 106800,
      "d": 300,
      "v": 72
    },
    {
      "midi": 53,
      "hit": false,
      "t": 107100,
      "d": 300,
      "v": 85
    },
    {
      "midi": 62,
      "hit": false,
      "t": 107400,
      "d": 300,
      "v": 96
    },
    {
      "midi": 53,
      "hit": false,
      "t": 107700,
      "d": 300,
      "v": 68
    },
    {
      "midi": 88,
      "hit": false,
      "t": 108000,
      "d": 600,
      "v": 72
    },
    {
      "midi": 44,
      "hit": false,
      "t": 108000,
      "d": 300,
      "v": 69
    },
    {
      "midi": 53,
      "hit": false,
      "t": 108300,
      "d": 300,
      "v": 87
    },
    {
      "midi": 86,
      "hit": false,
      "t": 108600,
      "d": 600,
      "v": 75
    },
    {
      "midi": 62,
      "hit": false,
      "t": 108600,
      "d": 300,
      "v": 95
    },
    {
      "midi": 53,
      "hit": false,
      "t": 108900,
      "d": 300,
      "v": 72
    },
    {
      "midi": 85,
      "hit": false,
      "t": 109200,
      "d": 600,
      "v": 74
    },
    {
      "midi": 45,
      "hit": false,
      "t": 109200,
      "d": 300,
      "v": 66
    },
    {
      "midi": 52,
      "hit": false,
      "t": 109500,
      "d": 300,
      "v": 79
    },
    {
      "midi": 82,
      "hit": false,
      "t": 109800,
      "d": 600,
      "v": 63
    },
    {
      "midi": 61,
      "hit": false,
      "t": 109800,
      "d": 300,
      "v": 94
    },
    {
      "midi": 57,
      "hit": false,
      "t": 110100,
      "d": 300,
      "v": 72
    },
    {
      "midi": 81,
      "hit": false,
      "t": 110400,
      "d": 600,
      "v": 73
    },
    {
      "midi": 49,
      "hit": false,
      "t": 110400,
      "d": 300,
      "v": 70
    },
    {
      "midi": 52,
      "hit": false,
      "t": 110700,
      "d": 300,
      "v": 80
    },
    {
      "midi": 76,
      "hit": false,
      "t": 111000,
      "d": 600,
      "v": 68
    },
    {
      "midi": 61,
      "hit": false,
      "t": 111000,
      "d": 300,
      "v": 94
    },
    {
      "midi": 57,
      "hit": false,
      "t": 111300,
      "d": 300,
      "v": 76
    },
    {
      "midi": 77,
      "hit": false,
      "t": 111600,
      "d": 600,
      "v": 82
    },
    {
      "midi": 50,
      "hit": false,
      "t": 111600,
      "d": 300,
      "v": 75
    },
    {
      "midi": 53,
      "hit": false,
      "t": 111900,
      "d": 300,
      "v": 82
    },
    {
      "midi": 79,
      "hit": false,
      "t": 112200,
      "d": 300,
      "v": 80
    },
    {
      "midi": 62,
      "hit": false,
      "t": 112200,
      "d": 300,
      "v": 93
    },
    {
      "midi": 81,
      "hit": false,
      "t": 112500,
      "d": 300,
      "v": 80
    },
    {
      "midi": 57,
      "hit": false,
      "t": 112500,
      "d": 300,
      "v": 69
    },
    {
      "midi": 79,
      "hit": false,
      "t": 112800,
      "d": 600,
      "v": 72
    },
    {
      "midi": 46,
      "hit": false,
      "t": 112800,
      "d": 300,
      "v": 66
    },
    {
      "midi": 50,
      "hit": false,
      "t": 113100,
      "d": 300,
      "v": 77
    },
    {
      "midi": 74,
      "hit": false,
      "t": 113400,
      "d": 600,
      "v": 67
    },
    {
      "midi": 58,
      "hit": false,
      "t": 113400,
      "d": 300,
      "v": 86
    },
    {
      "midi": 55,
      "hit": false,
      "t": 113700,
      "d": 300,
      "v": 75
    },
    {
      "midi": 76,
      "hit": false,
      "t": 114000,
      "d": 1800,
      "v": 78
    },
    {
      "midi": 45,
      "hit": false,
      "t": 114000,
      "d": 300,
      "v": 70
    },
    {
      "midi": 52,
      "hit": false,
      "t": 114300,
      "d": 300,
      "v": 85
    },
    {
      "midi": 62,
      "hit": false,
      "t": 114600,
      "d": 300,
      "v": 95
    },
    {
      "midi": 52,
      "hit": false,
      "t": 114900,
      "d": 300,
      "v": 75
    },
    {
      "midi": 45,
      "hit": false,
      "t": 115200,
      "d": 300,
      "v": 74
    },
    {
      "midi": 55,
      "hit": false,
      "t": 115500,
      "d": 300,
      "v": 86
    },
    {
      "midi": 74,
      "hit": false,
      "t": 115800,
      "d": 600,
      "v": 74
    },
    {
      "midi": 61,
      "hit": false,
      "t": 115800,
      "d": 300,
      "v": 89
    },
    {
      "midi": 55,
      "hit": false,
      "t": 116100,
      "d": 300,
      "v": 75
    },
    {
      "midi": 74,
      "hit": false,
      "t": 116400,
      "d": 1200,
      "v": 76
    },
    {
      "midi": 50,
      "hit": false,
      "t": 116400,
      "d": 300,
      "v": 75
    },
    {
      "midi": 57,
      "hit": false,
      "t": 116700,
      "d": 300,
      "v": 84
    },
    {
      "midi": 65,
      "hit": false,
      "t": 117000,
      "d": 300,
      "v": 93
    },
    {
      "midi": 62,
      "hit": false,
      "t": 117300,
      "d": 300,
      "v": 71
    },
    {
      "midi": 76,
      "hit": false,
      "t": 117600,
      "d": 98.4375,
      "v": 100
    },
    {
      "midi": 50,
      "hit": false,
      "t": 117600,
      "d": 300,
      "v": 63
    },
    {
      "midi": 77,
      "hit": false,
      "t": 117698.4375,
      "d": 100.78125,
      "v": 100
    },
    {
      "midi": 79,
      "hit": false,
      "t": 117799.21875,
      "d": 100.78125,
      "v": 100
    },
    {
      "midi": 81,
      "hit": false,
      "t": 117900,
      "d": 98.4375,
      "v": 100
    },
    {
      "midi": 55,
      "hit": false,
      "t": 117900,
      "d": 300,
      "v": 82
    },
    {
      "midi": 82,
      "hit": false,
      "t": 117998.4375,
      "d": 100.78125,
      "v": 100
    },
    {
      "midi": 84,
      "hit": false,
      "t": 118099.21875,
      "d": 100.78125,
      "v": 100
    },
    {
      "midi": 86,
      "hit": false,
      "t": 118200,
      "d": 84.375,
      "v": 100
    },
    {
      "midi": 64,
      "hit": false,
      "t": 118200,
      "d": 300,
      "v": 91
    },
    {
      "midi": 89,
      "hit": false,
      "t": 118284.375,
      "d": 86.71875,
      "v": 100
    },
    {
      "midi": 86,
      "hit": false,
      "t": 118371.09375,
      "d": 84.375,
      "v": 100
    },
    {
      "midi": 81,
      "hit": false,
      "t": 118455.46875,
      "d": 86.71875,
      "v": 100
    },
    {
      "midi": 62,
      "hit": false,
      "t": 118500,
      "d": 300,
      "v": 71
    },
    {
      "midi": 77,
      "hit": false,
      "t": 118542.1875,
      "d": 84.375,
      "v": 100
    },
    {
      "midi": 74,
      "hit": false,
      "t": 118626.5625,
      "d": 86.71875,
      "v": 100
    },
    {
      "midi": 70,
      "hit": false,
      "t": 118713.28125,
      "d": 86.71875,
      "v": 100
    },
    {
      "midi": 69,
      "hit": false,
      "t": 118800,
      "d": 517.96875,
      "v": 53
    },
    {
      "midi": 50,
      "hit": false,
      "t": 118800,
      "d": 300,
      "v": 68
    },
    {
      "midi": 57,
      "hit": false,
      "t": 119100,
      "d": 300,
      "v": 77
    },
    {
      "midi": 69,
      "hit": false,
      "t": 119336.71875,
      "d": 663.28125,
      "v": 53
    },
    {
      "midi": 65,
      "hit": false,
      "t": 119400,
      "d": 300,
      "v": 88
    },
    {
      "midi": 62,
      "hit": false,
      "t": 119700,
      "d": 300,
      "v": 72
    },
    {
      "midi": 76,
      "hit": false,
      "t": 120000,
      "d": 98.4375,
      "v": 100
    },
    {
      "midi": 50,
      "hit": false,
      "t": 120000,
      "d": 300,
      "v": 65
    },
    {
      "midi": 77,
      "hit": false,
      "t": 120098.4375,
      "d": 100.78125,
      "v": 100
    },
    {
      "midi": 79,
      "hit": false,
      "t": 120199.21875,
      "d": 100.78125,
      "v": 100
    },
    {
      "midi": 81,
      "hit": false,
      "t": 120300,
      "d": 98.4375,
      "v": 100
    },
    {
      "midi": 55,
      "hit": false,
      "t": 120300,
      "d": 300,
      "v": 79
    },
    {
      "midi": 82,
      "hit": false,
      "t": 120398.4375,
      "d": 100.78125,
      "v": 100
    },
    {
      "midi": 84,
      "hit": false,
      "t": 120499.21875,
      "d": 100.78125,
      "v": 100
    },
    {
      "midi": 74,
      "hit": false,
      "t": 120600,
      "d": 84.375,
      "v": 100
    },
    {
      "midi": 64,
      "hit": false,
      "t": 120600,
      "d": 300,
      "v": 94
    },
    {
      "midi": 79,
      "hit": false,
      "t": 120684.375,
      "d": 86.71875,
      "v": 100
    },
    {
      "midi": 82,
      "hit": false,
      "t": 120771.09375,
      "d": 84.375,
      "v": 100
    },
    {
      "midi": 79,
      "hit": false,
      "t": 120855.46875,
      "d": 86.71875,
      "v": 100
    },
    {
      "midi": 62,
      "hit": false,
      "t": 120900,
      "d": 300,
      "v": 76
    },
    {
      "midi": 76,
      "hit": false,
      "t": 120942.1875,
      "d": 84.375,
      "v": 100
    },
    {
      "midi": 74,
      "hit": false,
      "t": 121026.5625,
      "d": 86.71875,
      "v": 100
    },
    {
      "midi": 70,
      "hit": false,
      "t": 121113.28125,
      "d": 86.71875,
      "v": 100
    },
    {
      "midi": 81,
      "hit": false,
      "t": 121200,
      "d": 517.96875,
      "v": 86
    },
    {
      "midi": 50,
      "hit": false,
      "t": 121200,
      "d": 300,
      "v": 64
    },
    {
      "midi": 57,
      "hit": false,
      "t": 121500,
      "d": 300,
      "v": 76
    },
    {
      "midi": 81,
      "hit": false,
      "t": 121736.71875,
      "d": 663.28125,
      "v": 86
    },
    {
      "midi": 65,
      "hit": false,
      "t": 121800,
      "d": 300,
      "v": 88
    },
    {
      "midi": 62,
      "hit": false,
      "t": 122100,
      "d": 300,
      "v": 72
    },
    {
      "midi": 70,
      "hit": false,
      "t": 122400,
      "d": 119.53125,
      "v": 100
    },
    {
      "midi": 50,
      "hit": false,
      "t": 122400,
      "d": 300,
      "v": 68
    },
    {
      "midi": 72,
      "hit": false,
      "t": 122519.53125,
      "d": 119.53125,
      "v": 100
    },
    {
      "midi": 74,
      "hit": false,
      "t": 122639.0625,
      "d": 119.53125,
      "v": 100
    },
    {
      "midi": 55,
      "hit": false,
      "t": 122700,
      "d": 300,
      "v": 77
    },
    {
      "midi": 76,
      "hit": false,
      "t": 122758.59375,
      "d": 119.53125,
      "v": 100
    },
    {
      "midi": 77,
      "hit": false,
      "t": 122878.125,
      "d": 121.875,
      "v": 100
    },
    {
      "midi": 79,
      "hit": false,
      "t": 123000,
      "d": 98.4375,
      "v": 100
    },
    {
      "midi": 64,
      "hit": false,
      "t": 123000,
      "d": 300,
      "v": 91
    },
    {
      "midi": 77,
      "hit": false,
      "t": 123098.4375,
      "d": 100.78125,
      "v": 100
    },
    {
      "midi": 76,
      "hit": false,
      "t": 123199.21875,
      "d": 100.78125,
      "v": 100
    },
    {
      "midi": 74,
      "hit": false,
      "t": 123300,
      "d": 98.4375,
      "v": 100
    },
    {
      "midi": 62,
      "hit": false,
      "t": 123300,
      "d": 300,
      "v": 71
    },
    {
      "midi": 72,
      "hit": false,
      "t": 123398.4375,
      "d": 100.78125,
      "v": 100
    },
    {
      "midi": 70,
      "hit": false,
      "t": 123499.21875,
      "d": 100.78125,
      "v": 100
    },
    {
      "midi": 69,
      "hit": false,
      "t": 123600,
      "d": 1200,
      "v": 68
    },
    {
      "midi": 50,
      "hit": false,
      "t": 123600,
      "d": 300,
      "v": 64
    },
    {
      "midi": 57,
      "hit": false,
      "t": 123900,
      "d": 300,
      "v": 79
    },
    {
      "midi": 65,
      "hit": false,
      "t": 124200,
      "d": 300,
      "v": 90
    },
    {
      "midi": 62,
      "hit": false,
      "t": 124500,
      "d": 300,
      "v": 72
    },
    {
      "midi": 70,
      "hit": false,
      "t": 124800,
      "d": 98.4375,
      "v": 100
    },
    {
      "midi": 50,
      "hit": false,
      "t": 124800,
      "d": 300,
      "v": 66
    },
    {
      "midi": 72,
      "hit": false,
      "t": 124898.4375,
      "d": 100.78125,
      "v": 100
    },
    {
      "midi": 74,
      "hit": false,
      "t": 124999.21875,
      "d": 100.78125,
      "v": 100
    },
    {
      "midi": 76,
      "hit": false,
      "t": 125100,
      "d": 98.4375,
      "v": 100
    },
    {
      "midi": 55,
      "hit": false,
      "t": 125100,
      "d": 300,
      "v": 81
    },
    {
      "midi": 77,
      "hit": false,
      "t": 125198.4375,
      "d": 100.78125,
      "v": 100
    },
    {
      "midi": 79,
      "hit": false,
      "t": 125299.21875,
      "d": 100.78125,
      "v": 100
    },
    {
      "midi": 81,
      "hit": false,
      "t": 125400,
      "d": 84.375,
      "v": 100
    },
    {
      "midi": 64,
      "hit": false,
      "t": 125400,
      "d": 300,
      "v": 94
    },
    {
      "midi": 82,
      "hit": false,
      "t": 125484.375,
      "d": 86.71875,
      "v": 100
    },
    {
      "midi": 79,
      "hit": false,
      "t": 125571.09375,
      "d": 84.375,
      "v": 100
    },
    {
      "midi": 77,
      "hit": false,
      "t": 125655.46875,
      "d": 86.71875,
      "v": 100
    },
    {
      "midi": 62,
      "hit": false,
      "t": 125700,
      "d": 300,
      "v": 68
    },
    {
      "midi": 74,
      "hit": false,
      "t": 125742.1875,
      "d": 84.375,
      "v": 100
    },
    {
      "midi": 72,
      "hit": false,
      "t": 125826.5625,
      "d": 86.71875,
      "v": 100
    },
    {
      "midi": 70,
      "hit": false,
      "t": 125913.28125,
      "d": 86.71875,
      "v": 100
    },
    {
      "midi": 69,
      "hit": false,
      "t": 126000,
      "d": 517.96875,
      "v": 63
    },
    {
      "midi": 50,
      "hit": false,
      "t": 126000,
      "d": 300,
      "v": 70
    },
    {
      "midi": 57,
      "hit": false,
      "t": 126300,
      "d": 300,
      "v": 81
    },
    {
      "midi": 69,
      "hit": false,
      "t": 126536.71875,
      "d": 663.28125,
      "v": 63
    },
    {
      "midi": 65,
      "hit": false,
      "t": 126600,
      "d": 300,
      "v": 95
    },
    {
      "midi": 62,
      "hit": false,
      "t": 126900,
      "d": 300,
      "v": 71
    },
    {
      "midi": 69,
      "hit": false,
      "t": 127200,
      "d": 1200,
      "v": 76
    },
    {
      "midi": 50,
      "hit": false,
      "t": 127200,
      "d": 300,
      "v": 63
    },
    {
      "midi": 55,
      "hit": false,
      "t": 127500,
      "d": 300,
      "v": 78
    },
    {
      "midi": 64,
      "hit": false,
      "t": 127800,
      "d": 300,
      "v": 93
    },
    {
      "midi": 62,
      "hit": false,
      "t": 128100,
      "d": 300,
      "v": 75
    },
    {
      "midi": 66,
      "hit": false,
      "t": 128400,
      "d": 900,
      "v": 70
    },
    {
      "midi": 50,
      "hit": false,
      "t": 128400,
      "d": 300,
      "v": 63
    },
    {
      "midi": 66,
      "hit": false,
      "t": 128700,
      "d": 300,
      "v": 94
    },
    {
      "midi": 62,
      "hit": false,
      "t": 129000,
      "d": 300,
      "v": 72
    },
    {
      "midi": 69,
      "hit": false,
      "t": 129300,
      "d": 300,
      "v": 81
    },
    {
      "midi": 57,
      "hit": false,
      "t": 129300,
      "d": 300,
      "v": 74
    },
    {
      "midi": 74,
      "hit": false,
      "t": 129600,
      "d": 300,
      "v": 84
    },
    {
      "midi": 54,
      "hit": false,
      "t": 129600,
      "d": 300,
      "v": 74
    },
    {
      "midi": 78,
      "hit": false,
      "t": 129900,
      "d": 300,
      "v": 82
    },
    {
      "midi": 50,
      "hit": false,
      "t": 129900,
      "d": 300,
      "v": 72
    },
    {
      "midi": 81,
      "hit": false,
      "t": 130200,
      "d": 300,
      "v": 83
    },
    {
      "midi": 45,
      "hit": false,
      "t": 130200,
      "d": 300,
      "v": 74
    },
    {
      "midi": 86,
      "hit": false,
      "t": 130500,
      "d": 300,
      "v": 88
    },
    {
      "midi": 42,
      "hit": false,
      "t": 130500,
      "d": 300,
      "v": 70
    },
    {
      "midi": 90,
      "hit": false,
      "t": 130800,
      "d": 2400,
      "v": 90
    },
    {
      "midi": 38,
      "hit": false,
      "t": 130800,
      "d": 2400,
      "v": 68
    }
  ]
}