{
  "jsonPath": "Classical/Classical/Frederic Chopin/nocturne.json",
  "path": "Classical\\Classical\\Frederic Chopin\\Nocturne.mid",
  "name": "Nocturne",
  "difficulty": "Intermediate",
  "bpm": 100,
  "notes": [
    {
      "midi": 67,
      "hit": false,
      "t": 1200,
      "d": 600,
      "v": 69
    },
    {
      "midi": 76,
      "hit": false,
      "t": 1800,
      "d": 2400,
      "v": 93
    },
    {
      "midi": 48,
      "hit": false,
      "t": 1800,
      "d": 600,
      "v": 70
    },
    {
      "midi": 52,
      "hit": false,
      "t": 2400,
      "d": 600,
      "v": 83
    },
    {
      "midi": 55,
      "hit": false,
      "t": 3000,
      "d": 600,
      "v": 75
    },
    {
      "midi": 48,
      "hit": false,
      "t": 3600,
      "d": 600,
      "v": 67
    },
    {
      "midi": 74,
      "hit": false,
      "t": 4200,
      "d": 600,
      "v": 73
    },
    {
      "midi": 53,
      "hit": false,
      "t": 4200,
      "d": 600,
      "v": 79
    },
    {
      "midi": 76,
      "hit": false,
      "t": 4800,
      "d": 600,
      "v": 83
    },
    {
      "midi": 56,
      "hit": false,
      "t": 4800,
      "d": 600,
      "v": 78
    },
    {
      "midi": 74,
      "hit": false,
      "t": 5400,
      "d": 1800,
      "v": 72
    },
    {
      "midi": 48,
      "hit": false,
      "t": 5400,
      "d": 600,
      "v": 69
    },
    {
      "midi": 52,
      "hit": false,
      "t": 6000,
      "d": 600,
      "v": 75
    },
    {
      "midi": 55,
      "hit": false,
      "t": 6600,
      "d": 600,
      "v": 75
    },
    {
      "midi": 72,
      "hit": false,
      "t": 7200,
      "d": 1200,
      "v": 70
    },
    {
      "midi": 47,
      "hit": false,
      "t": 7200,
      "d": 600,
      "v": 65
    },
    {
      "midi": 52,
      "hit": false,
      "t": 7800,
      "d": 600,
      "v": 81
    },
    {
      "midi": 67,
      "hit": false,
      "t": 8400,
      "d": 600,
      "v": 66
    },
    {
      "midi": 55,
      "hit": false,
      "t": 8400,
      "d": 600,
      "v": 79
    },
    {
      "midi": 76,
      "hit": false,
      "t": 9000,
      "d": 1200,
      "v": 91
    },
    {
      "midi": 45,
      "hit": false,
      "t": 9000,
      "d": 600,
      "v": 65
    },
    {
      "midi": 52,
      "hit": false,
      "t": 9600,
      "d": 600,
      "v": 82
    },
    {
      "midi": 69,
      "hit": false,
      "t": 10200,
      "d": 600,
      "v": 62
    },
    {
      "midi": 55,
      "hit": false,
      "t": 10200,
      "d": 600,
      "v": 84
    },
    {
      "midi": 81,
      "hit": false,
      "t": 10800,
      "d": 1200,
      "v": 92
    },
    {
      "midi": 45,
      "hit": false,
      "t": 10800,
      "d": 600,
      "v": 70
    },
    {
      "midi": 52,
      "hit": false,
      "t": 11400,
      "d": 600,
      "v": 81
    },
    {
      "midi": 76,
      "hit": false,
      "t": 12000,
      "d": 600,
      "v": 70
    },
    {
      "midi": 55,
      "hit": false,
      "t": 12000,
      "d": 600,
      "v": 80
    },
    {
      "midi": 79,
      "hit": false,
      "t": 12600,
      "d": 1800,
      "v": 77
    },
    {
      "midi": 50,
      "hit": false,
      "t": 12600,
      "d": 600,
      "v": 70
    },
    {
      "midi": 55,
      "hit": false,
      "t": 13200,
      "d": 600,
      "v": 82
    },
    {
      "midi": 58,
      "hit": false,
      "t": 13800,
      "d": 600,
      "v": 78
    },
    {
      "midi": 77,
      "hit": false,
      "t": 14400,
      "d": 1200,
      "v": 70
    },
    {
      "midi": 50,
      "hit": false,
      "t": 14400,
      "d": 600,
      "v": 69
    },
    {
      "midi": 53,
      "hit": false,
      "t": 15000,
      "d": 600,
      "v": 74
    },
    {
      "midi": 76,
      "hit": false,
      "t": 15600,
      "d": 600,
      "v": 75
    },
    {
      "midi": 57,
      "hit": false,
      "t": 15600,
      "d": 600,
      "v": 76
    },
    {
      "midi": 74,
      "hit": false,
      "t": 16200,
      "d": 1800,
      "v": 71
    },
    {
      "midi": 55,
      "hit": false,
      "t": 16200,
      "d": 600,
      "v": 74
    },
    {
      "midi": 47,
      "hit": false,
      "t": 16800,
      "d": 600,
      "v": 69
    },
    {
      "midi": 50,
      "hit": false,
      "t": 17400,
      "d": 600,
      "v": 79
    },
    {
      "midi": 76,
      "hit": false,
      "t": 18000,
      "d": 1200,
      "v": 82
    },
    {
      "midi": 44,
      "hit": false,
      "t": 18000,
      "d": 600,
      "v": 69
    },
    {
      "midi": 47,
      "hit": false,
      "t": 18600,
      "d": 600,
      "v": 79
    },
    {
      "midi": 71,
      "hit": false,
      "t": 19200,
      "d": 600,
      "v": 68
    },
    {
      "midi": 52,
      "hit": false,
      "t": 19200,
      "d": 600,
      "v": 84
    },
    {
      "midi": 72,
      "hit": false,
      "t": 19800,
      "d": 1800,
      "v": 78
    },
    {
      "midi": 45,
      "hit": false,
      "t": 19800,
      "d": 600,
      "v": 72
    },
    {
      "midi": 52,
      "hit": false,
      "t": 20400,
      "d": 600,
      "v": 82
    },
    {
      "midi": 45,
      "hit": false,
      "t": 21000,
      "d": 600,
      "v": 70
    },
    {
      "midi": 69,
      "hit": false,
      "t": 21600,
      "d": 1800,
      "v": 71
    },
    {
      "midi": 42,
      "hit": false,
      "t": 21600,
      "d": 600,
      "v": 71
    },
    {
      "midi": 45,
      "hit": false,
      "t": 22200,
      "d": 600,
      "v": 76
    },
    {
      "midi": 51,
      "hit": false,
      "t": 22800,
      "d": 600,
      "v": 82
    },
    {
      "midi": 67,
      "hit": false,
      "t": 23400,
      "d": 600,
      "v": 74
    },
    {
      "midi": 43,
      "hit": false,
      "t": 23400,
      "d": 600,
      "v": 67
    },
    {
      "midi": 83,
      "hit": false,
      "t": 24000,
      "d": 600,
      "v": 96
    },
    {
      "midi": 50,
      "hit": false,
      "t": 24000,
      "d": 600,
      "v": 81
    },
    {
      "midi": 81,
      "hit": false,
      "t": 24600,
      "d": 600,
      "v": 71
    },
    {
      "midi": 55,
      "hit": false,
      "t": 24600,
      "d": 600,
      "v": 83
    },
    {
      "midi": 79,
      "hit": false,
      "t": 25200,
      "d": 300,
      "v": 72
    },
    {
      "midi": 43,
      "hit": false,
      "t": 25200,
      "d": 600,
      "v": 72
    },
    {
      "midi": 77,
      "hit": false,
      "t": 25500,
      "d": 300,
      "v": 70
    },
    {
      "midi": 76,
      "hit": false,
      "t": 25800,
      "d": 300,
      "v": 77
    },
    {
      "midi": 50,
      "hit": false,
      "t": 25800,
      "d": 600,
      "v": 78
    },
    {
      "midi": 77,
      "hit": false,
      "t": 26100,
      "d": 300,
      "v": 80
    },
    {
      "midi": 69,
      "hit": false,
      "t": 26400,
      "d": 300,
      "v": 59
    },
    {
      "midi": 55,
      "hit": false,
      "t": 26400,
      "d": 600,
      "v": 84
    },
    {
      "midi": 71,
      "hit": false,
      "t": 26700,
      "d": 300,
      "v": 81
    },
    {
      "midi": 72,
      "hit": false,
      "t": 27000,
      "d": 2400,
      "v": 81
    },
    {
      "midi": 48,
      "hit": false,
      "t": 27000,
      "d": 600,
      "v": 69
    },
    {
      "midi": 52,
      "hit": false,
      "t": 27600,
      "d": 600,
      "v": 82
    },
    {
      "midi": 55,
      "hit": false,
      "t": 28200,
      "d": 600,
      "v": 82
    },
    {
      "midi": 48,
      "hit": false,
      "t": 28800,
      "d": 600,
      "v": 70
    }
  ]
}