{
  "jsonPath": "Classical/Classical/Frederic Chopin/prelude-op-28-no-4.json",
  "path": "Classical\\Classical\\Frederic Chopin\\Prelude Op 28 No 4.mid",
  "name": "Prelude Op 28 No 4",
  "difficulty": "Advanced",
  "bpm": 72.00002880001152,
  "notes": [
    {
      "midi": 59,
      "hit": false,
      "t": 0,
      "d": 624.9997500000001,
      "v": 127
    },
    {
      "midi": 71,
      "hit": false,
      "t": 624.9997500000001,
      "d": 208.33325000000002,
      "v": 127
    },
    {
      "midi": 71,
      "hit": false,
      "t": 833.3330000000001,
      "d": 2499.9990000000003,
      "v": 127
    },
    {
      "midi": 55,
      "hit": false,
      "t": 833.3330000000001,
      "d": 416.66650000000004,
      "v": 127
    },
    {
      "midi": 59,
      "hit": false,
      "t": 833.3330000000001,
      "d": 416.66650000000004,
      "v": 127
    },
    {
      "midi": 64,
      "hit": false,
      "t": 833.3330000000001,
      "d": 416.66650000000004,
      "v": 127
    },
    {
      "midi": 55,
      "hit": false,
      "t": 1249.9995000000001,
      "d": 416.66650000000004,
      "v": 127
    },
    {
      "midi": 59,
      "hit": false,
      "t": 1249.9995000000001,
      "d": 416.66650000000004,
      "v": 127
    },
    {
      "midi": 64,
      "hit": false,
      "t": 1249.9995000000001,
      "d": 416.66650000000004,
      "v": 127
    },
    {
      "midi": 55,
      "hit": false,
      "t": 1666.6660000000002,
      "d": 416.66650000000027,
      "v": 127
    },
    {
      "midi": 59,
      "hit": false,
      "t": 1666.6660000000002,
      "d": 416.66650000000027,
      "v": 127
    },
    {
      "midi": 64,
      "hit": false,
      "t": 1666.6660000000002,
      "d": 416.66650000000027,
      "v": 127
    },
    {
      "midi": 55,
      "hit": false,
      "t": 2083.3325000000004,
      "d": 416.66650000000027,
      "v": 127
    },
    {
      "midi": 59,
      "hit": false,
      "t": 2083.3325000000004,
      "d": 416.66650000000027,
      "v": 127
    },
    {
      "midi": 64,
      "hit": false,
      "t": 2083.3325000000004,
      "d": 416.66650000000027,
      "v": 127
    },
    {
      "midi": 55,
      "hit": false,
      "t": 2499.9990000000007,
      "d": 416.66650000000027,
      "v": 127
    },
    {
      "midi": 59,
      "hit": false,
      "t": 2499.9990000000007,
      "d": 416.66650000000027,
      "v": 127
    },
    {
      "midi": 64,
      "hit": false,
      "t": 2499.9990000000007,
      "d": 416.66650000000027,
      "v": 127
    },
    {
      "midi": 55,
      "hit": false,
      "t": 2916.665500000001,
      "d": 416.66650000000027,
      "v": 127
    },
    {
      "midi": 59,
      "hit": false,
      "t": 2916.665500000001,
      "d": 416.66650000000027,
      "v": 127
    },
    {
      "midi": 64,
      "hit": false,
      "t": 2916.665500000001,
      "d": 416.66650000000027,
      "v": 127
    },
    {
      "midi": 72,
      "hit": false,
      "t": 3333.3320000000003,
      "d": 833.3330000000005,
      "v": 127
    },
    {
      "midi": 55,
      "hit": false,
      "t": 3333.3320000000012,
      "d": 416.66650000000027,
      "v": 127
    },
    {
      "midi": 59,
      "hit": false,
      "t": 3333.3320000000012,
      "d": 416.66650000000027,
      "v": 127
    },
    {
      "midi": 64,
      "hit": false,
      "t": 3333.3320000000012,
      "d": 416.66650000000027,
      "v": 127
    },
    {
      "midi": 55,
      "hit": false,
      "t": 3749.9985000000015,
      "d": 416.66650000000027,
      "v": 127
    },
    {
      "midi": 59,
      "hit": false,
      "t": 3749.9985000000015,
      "d": 416.66650000000027,
      "v": 127
    },
    {
      "midi": 64,
      "hit": false,
      "t": 3749.9985000000015,
      "d": 416.66650000000027,
      "v": 127
    },
    {
      "midi": 71,
      "hit": false,
      "t": 4166.665000000001,
      "d": 2499.999,
      "v": 127
    },
    {
      "midi": 54,
      "hit": false,
      "t": 4166.665000000002,
      "d": 416.66650000000027,
      "v": 127
    },
    {
      "midi": 57,
      "hit": false,
      "t": 4166.665000000002,
      "d": 416.66650000000027,
      "v": 127
    },
    {
      "midi": 64,
      "hit": false,
      "t": 4166.665000000002,
      "d": 416.66650000000027,
      "v": 127
    },
    {
      "midi": 54,
      "hit": false,
      "t": 4583.331500000002,
      "d": 416.66650000000027,
      "v": 127
    },
    {
      "midi": 57,
      "hit": false,
      "t": 4583.331500000002,
      "d": 416.66650000000027,
      "v": 127
    },
    {
      "midi": 64,
      "hit": false,
      "t": 4583.331500000002,
      "d": 416.66650000000027,
      "v": 127
    },
    {
      "midi": 54,
      "hit": false,
      "t": 4999.998000000002,
      "d": 416.66650000000027,
      "v": 127
    },
    {
      "midi": 57,
      "hit": false,
      "t": 4999.998000000002,
      "d": 416.66650000000027,
      "v": 127
    },
    {
      "midi": 64,
      "hit": false,
      "t": 4999.998000000002,
      "d": 416.66650000000027,
      "v": 127
    },
    {
      "midi": 54,
      "hit": false,
      "t": 5416.664500000003,
      "d": 416.66650000000027,
      "v": 127
    },
    {
      "midi": 57,
      "hit": false,
      "t": 5416.664500000003,
      "d": 416.66650000000027,
      "v": 127
    },
    {
      "midi": 64,
      "hit": false,
      "t": 5416.664500000003,
      "d": 416.66650000000027,
      "v": 127
    },
    {
      "midi": 54,
      "hit": false,
      "t": 5833.331000000003,
      "d": 416.66650000000027,
      "v": 127
    },
    {
      "midi": 57,
      "hit": false,
      "t": 5833.331000000003,
      "d": 416.66650000000027,
      "v": 127
    },
    {
      "midi": 63,
      "hit": false,
      "t": 5833.331000000003,
      "d": 416.66650000000027,
      "v": 127
    },
    {
      "midi": 54,
      "hit": false,
      "t": 6249.997500000003,
      "d": 416.66650000000027,
      "v": 127
    },
    {
      "midi": 57,
      "hit": false,
      "t": 6249.997500000003,
      "d": 416.66650000000027,
      "v": 127
    },
    {
      "midi": 63,
      "hit": false,
      "t": 6249.997500000003,
      "d": 416.66650000000027,
      "v": 127
    },
    {
      "midi": 72,
      "hit": false,
      "t": 6666.664000000001,
      "d": 833.3330000000005,
      "v": 127
    },
    {
      "midi": 54,
      "hit": false,
      "t": 6666.664000000003,
      "d": 416.66650000000027,
      "v": 127
    },
    {
      "midi": 57,
      "hit": false,
      "t": 6666.664000000003,
      "d": 416.66650000000027,
      "v": 127
    },
    {
      "midi": 63,
      "hit": false,
      "t": 6666.664000000003,
      "d": 416.66650000000027,
      "v": 127
    },
    {
      "midi": 54,
      "hit": false,
      "t": 7083.330500000004,
      "d": 416.66650000000027,
      "v": 127
    },
    {
      "midi": 57,
      "hit": false,
      "t": 7083.330500000004,
      "d": 416.66650000000027,
      "v": 127
    },
    {
      "midi": 63,
      "hit": false,
      "t": 7083.330500000004,
      "d": 416.66650000000027,
      "v": 127
    },
    {
      "midi": 71,
      "hit": false,
      "t": 7499.997000000001,
      "d": 2499.999,
      "v": 127
    },
    {
      "midi": 53,
      "hit": false,
      "t": 7499.997000000004,
      "d": 416.66650000000027,
      "v": 127
    },
    {
      "midi": 57,
      "hit": false,
      "t": 7499.997000000004,
      "d": 416.66650000000027,
      "v": 127
    },
    {
      "midi": 63,
      "hit": false,
      "t": 7499.997000000004,
      "d": 416.66650000000027,
      "v": 127
    },
    {
      "midi": 53,
      "hit": false,
      "t": 7916.663500000004,
      "d": 416.66649999999936,
      "v": 127
    },
    {
      "midi": 57,
      "hit": false,
      "t": 7916.663500000004,
      "d": 416.66649999999936,
      "v": 127
    },
    {
      "midi": 63,
      "hit": false,
      "t": 7916.663500000004,
      "d": 416.66649999999936,
      "v": 127
    },
    {
      "midi": 53,
      "hit": false,
      "t": 8333.330000000004,
      "d": 416.66649999999936,
      "v": 127
    },
    {
      "midi": 57,
      "hit": false,
      "t": 8333.330000000004,
      "d": 416.66649999999936,
      "v": 127
    },
    {
      "midi": 63,
      "hit": false,
      "t": 8333.330000000004,
      "d": 416.66649999999936,
      "v": 127
    },
    {
      "midi": 53,
      "hit": false,
      "t": 8749.996500000003,
      "d": 416.66649999999936,
      "v": 127
    },
    {
      "midi": 57,
      "hit": false,
      "t": 8749.996500000003,
      "d": 416.66649999999936,
      "v": 127
    },
    {
      "midi": 63,
      "hit": false,
      "t": 8749.996500000003,
      "d": 416.66649999999936,
      "v": 127
    },
    {
      "midi": 53,
      "hit": false,
      "t": 9166.663000000002,
      "d": 416.66649999999936,
      "v": 127
    },
    {
      "midi": 57,
      "hit": false,
      "t": 9166.663000000002,
      "d": 416.66649999999936,
      "v": 127
    },
    {
      "midi": 62,
      "hit": false,
      "t": 9166.663000000002,
      "d": 416.66649999999936,
      "v": 127
    },
    {
      "midi": 53,
      "hit": false,
      "t": 9583.329500000002,
      "d": 416.66649999999936,
      "v": 127
    },
    {
      "midi": 57,
      "hit": false,
      "t": 9583.329500000002,
      "d": 416.66649999999936,
      "v": 127
    },
    {
      "midi": 62,
      "hit": false,
      "t": 9583.329500000002,
      "d": 416.66649999999936,
      "v": 127
    },
    {
      "midi": 72,
      "hit": false,
      "t": 9999.996000000001,
      "d": 833.3330000000005,
      "v": 127
    },
    {
      "midi": 53,
      "hit": false,
      "t": 9999.996000000001,
      "d": 416.66649999999936,
      "v": 127
    },
    {
      "midi": 56,
      "hit": false,
      "t": 9999.996000000001,
      "d": 416.66649999999936,
      "v": 127
    },
    {
      "midi": 62,
      "hit": false,
      "t": 9999.996000000001,
      "d": 416.66649999999936,
      "v": 127
    },
    {
      "midi": 53,
      "hit": false,
      "t": 10416.6625,
      "d": 416.66649999999936,
      "v": 127
    },
    {
      "midi": 56,
      "hit": false,
      "t": 10416.6625,
      "d": 416.66649999999936,
      "v": 127
    },
    {
      "midi": 62,
      "hit": false,
      "t": 10416.6625,
      "d": 416.66649999999936,
      "v": 127
    },
    {
      "midi": 52,
      "hit": false,
      "t": 10833.329,
      "d": 416.66649999999936,
      "v": 127
    },
    {
      "midi": 56,
      "hit": false,
      "t": 10833.329,
      "d": 416.66649999999936,
      "v": 127
    },
    {
      "midi": 62,
      "hit": false,
      "t": 10833.329,
      "d": 416.66649999999936,
      "v": 127
    },
    {
      "midi": 71,
      "hit": false,
      "t": 10833.329000000002,
      "d": 2499.999,
      "v": 127
    },
    {
      "midi": 52,
      "hit": false,
      "t": 11249.995499999999,
      "d": 416.66649999999936,
      "v": 127
    },
    {
      "midi": 56,
      "hit": false,
      "t": 11249.995499999999,
      "d": 416.66649999999936,
      "v": 127
    },
    {
      "midi": 62,
      "hit": false,
      "t": 11249.995499999999,
      "d": 416.66649999999936,
      "v": 127
    },
    {
      "midi": 52,
      "hit": false,
      "t": 11666.661999999998,
      "d": 416.66649999999936,
      "v": 127
    },
    {
      "midi": 56,
      "hit": false,
      "t": 11666.661999999998,
      "d": 416.66649999999936,
      "v": 127
    },
    {
      "midi": 62,
      "hit": false,
      "t": 11666.661999999998,
      "d": 416.66649999999936,
      "v": 127
    },
    {
      "midi": 52,
      "hit": false,
      "t": 12083.328499999998,
      "d": 416.66649999999936,
      "v": 127
    },
    {
      "midi": 56,
      "hit": false,
      "t": 12083.328499999998,
      "d": 416.66649999999936,
      "v": 127
    },
    {
      "midi": 62,
      "hit": false,
      "t": 12083.328499999998,
      "d": 416.66649999999936,
      "v": 127
    },
    {
      "midi": 52,
      "hit": false,
      "t": 12499.994999999997,
      "d": 416.66649999999936,
      "v": 127
    },
    {
      "midi": 55,
      "hit": false,
      "t": 12499.994999999997,
      "d": 416.66649999999936,
      "v": 127
    },
    {
      "midi": 62,
      "hit": false,
      "t": 12499.994999999997,
      "d": 416.66649999999936,
      "v": 127
    },
    {
      "midi": 52,
      "hit": false,
      "t": 12916.661499999997,
      "d": 416.66649999999936,
      "v": 127
    },
    {
      "midi": 55,
      "hit": false,
      "t": 12916.661499999997,
      "d": 416.66649999999936,
      "v": 127
    },
    {
      "midi": 62,
      "hit": false,
      "t": 12916.661499999997,
      "d": 416.66649999999936,
      "v": 127
    },
    {
      "midi": 52,
      "hit": false,
      "t": 13333.327999999996,
      "d": 416.66649999999936,
      "v": 127
    },
    {
      "midi": 55,
      "hit": false,
      "t": 13333.327999999996,
      "d": 416.66649999999936,
      "v": 127
    },
    {
      "midi": 61,
      "hit": false,
      "t": 13333.327999999996,
      "d": 416.66649999999936,
      "v": 127
    },
    {
      "midi": 70,
      "hit": false,
      "t": 13333.328000000001,
      "d": 833.3330000000005,
      "v": 127
    },
    {
      "midi": 52,
      "hit": false,
      "t": 13749.994499999995,
      "d": 416.66649999999936,
      "v": 127
    },
    {
      "midi": 55,
      "hit": false,
      "t": 13749.994499999995,
      "d": 416.66649999999936,
      "v": 127
    },
    {
      "midi": 61,
      "hit": false,
      "t": 13749.994499999995,
      "d": 416.66649999999936,
      "v": 127
    },
    {
      "midi": 52,
      "hit": false,
      "t": 14166.660999999995,
      "d": 416.66649999999936,
      "v": 127
    },
    {
      "midi": 55,
      "hit": false,
      "t": 14166.660999999995,
      "d": 416.66649999999936,
      "v": 127
    },
    {
      "midi": 60,
      "hit": false,
      "t": 14166.660999999995,
      "d": 416.66649999999936,
      "v": 127
    },
    {
      "midi": 69,
      "hit": false,
      "t": 14166.661000000002,
      "d": 2499.9990000000016,
      "v": 127
    },
    {
      "midi": 52,
      "hit": false,
      "t": 14583.327499999994,
      "d": 416.66649999999936,
      "v": 127
    },
    {
      "midi": 55,
      "hit": false,
      "t": 14583.327499999994,
      "d": 416.66649999999936,
      "v": 127
    },
    {
      "midi": 60,
      "hit": false,
      "t": 14583.327499999994,
      "d": 416.66649999999936,
      "v": 127
    },
    {
      "midi": 52,
      "hit": false,
      "t": 14999.993999999993,
      "d": 416.66649999999936,
      "v": 127
    },
    {
      "midi": 55,
      "hit": false,
      "t": 14999.993999999993,
      "d": 416.66649999999936,
      "v": 127
    },
    {
      "midi": 60,
      "hit": false,
      "t": 14999.993999999993,
      "d": 416.66649999999936,
      "v": 127
    },
    {
      "midi": 52,
      "hit": false,
      "t": 15416.660499999993,
      "d": 416.66649999999936,
      "v": 127
    },
    {
      "midi": 55,
      "hit": false,
      "t": 15416.660499999993,
      "d": 416.66649999999936,
      "v": 127
    },
    {
      "midi": 60,
      "hit": false,
      "t": 15416.660499999993,
      "d": 416.66649999999936,
      "v": 127
    },
    {
      "midi": 52,
      "hit": false,
      "t": 15833.326999999992,
      "d": 416.66649999999936,
      "v": 127
    },
    {
      "midi": 54,
      "hit": false,
      "t": 15833.326999999992,
      "d": 416.66649999999936,
      "v": 127
    },
    {
      "midi": 60,
      "hit": false,
      "t": 15833.326999999992,
      "d": 416.66649999999936,
      "v": 127
    },
    {
      "midi": 52,
      "hit": false,
      "t": 16249.993499999991,
      "d": 416.6665000000012,
      "v": 127
    },
    {
      "midi": 54,
      "hit": false,
      "t": 16249.993499999991,
      "d": 416.6665000000012,
      "v": 127
    },
    {
      "midi": 60,
      "hit": false,
      "t": 16249.993499999991,
      "d": 416.6665000000012,
      "v": 127
    },
    {
      "midi": 52,
      "hit": false,
      "t": 16666.659999999993,
      "d": 416.66649999999936,
      "v": 127
    },
    {
      "midi": 54,
      "hit": false,
      "t": 16666.659999999993,
      "d": 416.66649999999936,
      "v": 127
    },
    {
      "midi": 60,
      "hit": false,
      "t": 16666.659999999993,
      "d": 416.66649999999936,
      "v": 127
    },
    {
      "midi": 71,
      "hit": false,
      "t": 16666.660000000003,
      "d": 833.3329999999987,
      "v": 127
    },
    {
      "midi": 52,
      "hit": false,
      "t": 17083.326499999992,
      "d": 416.66649999999936,
      "v": 127
    },
    {
      "midi": 54,
      "hit": false,
      "t": 17083.326499999992,
      "d": 416.66649999999936,
      "v": 127
    },
    {
      "midi": 60,
      "hit": false,
      "t": 17083.326499999992,
      "d": 416.66649999999936,
      "v": 127
    },
    {
      "midi": 52,
      "hit": false,
      "t": 17499.99299999999,
      "d": 416.66649999999936,
      "v": 127
    },
    {
      "midi": 54,
      "hit": false,
      "t": 17499.99299999999,
      "d": 416.66649999999936,
      "v": 127
    },
    {
      "midi": 60,
      "hit": false,
      "t": 17499.99299999999,
      "d": 416.66649999999936,
      "v": 127
    },
    {
      "midi": 69,
      "hit": false,
      "t": 17499.993000000002,
      "d": 2499.999,
      "v": 127
    },
    {
      "midi": 52,
      "hit": false,
      "t": 17916.65949999999,
      "d": 416.66649999999936,
      "v": 127
    },
    {
      "midi": 54,
      "hit": false,
      "t": 17916.65949999999,
      "d": 416.66649999999936,
      "v": 127
    },
    {
      "midi": 60,
      "hit": false,
      "t": 17916.65949999999,
      "d": 416.66649999999936,
      "v": 127
    },
    {
      "midi": 52,
      "hit": false,
      "t": 18333.32599999999,
      "d": 416.66649999999936,
      "v": 127
    },
    {
      "midi": 54,
      "hit": false,
      "t": 18333.32599999999,
      "d": 416.66649999999936,
      "v": 127
    },
    {
      "midi": 60,
      "hit": false,
      "t": 18333.32599999999,
      "d": 416.66649999999936,
      "v": 127
    },
    {
      "midi": 52,
      "hit": false,
      "t": 18749.99249999999,
      "d": 416.66649999999936,
      "v": 127
    },
    {
      "midi": 54,
      "hit": false,
      "t": 18749.99249999999,
      "d": 416.66649999999936,
      "v": 127
    },
    {
      "midi": 60,
      "hit": false,
      "t": 18749.99249999999,
      "d": 416.66649999999936,
      "v": 127
    },
    {
      "midi": 51,
      "hit": false,
      "t": 19166.65899999999,
      "d": 416.66649999999936,
      "v": 127
    },
    {
      "midi": 54,
      "hit": false,
      "t": 19166.65899999999,
      "d": 416.66649999999936,
      "v": 127
    },
    {
      "midi": 60,
      "hit": false,
      "t": 19166.65899999999,
      "d": 416.66649999999936,
      "v": 127
    },
    {
      "midi": 51,
      "hit": false,
      "t": 19583.325499999988,
      "d": 416.66649999999936,
      "v": 127
    },
    {
      "midi": 54,
      "hit": false,
      "t": 19583.325499999988,
      "d": 416.66649999999936,
      "v": 127
    },
    {
      "midi": 60,
      "hit": false,
      "t": 19583.325499999988,
      "d": 416.66649999999936,
      "v": 127
    },
    {
      "midi": 51,
      "hit": false,
      "t": 19999.991999999987,
      "d": 416.66649999999936,
      "v": 127
    },
    {
      "midi": 54,
      "hit": false,
      "t": 19999.991999999987,
      "d": 416.66649999999936,
      "v": 127
    },
    {
      "midi": 60,
      "hit": false,
      "t": 19999.991999999987,
      "d": 416.66649999999936,
      "v": 127
    },
    {
      "midi": 71,
      "hit": false,
      "t": 19999.992000000002,
      "d": 833.3329999999987,
      "v": 127
    },
    {
      "midi": 51,
      "hit": false,
      "t": 20416.658499999987,
      "d": 416.66649999999936,
      "v": 127
    },
    {
      "midi": 54,
      "hit": false,
      "t": 20416.658499999987,
      "d": 416.66649999999936,
      "v": 127
    },
    {
      "midi": 60,
      "hit": false,
      "t": 20416.658499999987,
      "d": 416.66649999999936,
      "v": 127
    },
    {
      "midi": 50,
      "hit": false,
      "t": 20833.324999999986,
      "d": 416.66649999999936,
      "v": 127
    },
    {
      "midi": 54,
      "hit": false,
      "t": 20833.324999999986,
      "d": 416.66649999999936,
      "v": 127
    },
    {
      "midi": 60,
      "hit": false,
      "t": 20833.324999999986,
      "d": 416.66649999999936,
      "v": 127
    },
    {
      "midi": 69,
      "hit": false,
      "t": 20833.325,
      "d": 2499.999,
      "v": 127
    },
    {
      "midi": 50,
      "hit": false,
      "t": 21249.991499999986,
      "d": 416.66649999999936,
      "v": 127
    },
    {
      "midi": 54,
      "hit": false,
      "t": 21249.991499999986,
      "d": 416.66649999999936,
      "v": 127
    },
    {
      "midi": 60,
      "hit": false,
      "t": 21249.991499999986,
      "d": 416.66649999999936,
      "v": 127
    },
    {
      "midi": 50,
      "hit": false,
      "t": 21666.657999999985,
      "d": 416.66649999999936,
      "v": 127
    },
    {
      "midi": 54,
      "hit": false,
      "t": 21666.657999999985,
      "d": 416.66649999999936,
      "v": 127
    },
    {
      "midi": 60,
      "hit": false,
      "t": 21666.657999999985,
      "d": 416.66649999999936,
      "v": 127
    },
    {
      "midi": 50,
      "hit": false,
      "t": 22083.324499999984,
      "d": 416.66649999999936,
      "v": 127
    },
    {
      "midi": 54,
      "hit": false,
      "t": 22083.324499999984,
      "d": 416.66649999999936,
      "v": 127
    },
    {
      "midi": 60,
      "hit": false,
      "t": 22083.324499999984,
      "d": 416.66649999999936,
      "v": 127
    },
    {
      "midi": 50,
      "hit": false,
      "t": 22499.990999999984,
      "d": 416.66649999999936,
      "v": 127
    },
    {
      "midi": 54,
      "hit": false,
      "t": 22499.990999999984,
      "d": 416.66649999999936,
      "v": 127
    },
    {
      "midi": 60,
      "hit": false,
      "t": 22499.990999999984,
      "d": 416.66649999999936,
      "v": 127
    },
    {
      "midi": 50,
      "hit": false,
      "t": 22916.657499999983,
      "d": 416.66649999999936,
      "v": 127
    },
    {
      "midi": 54,
      "hit": false,
      "t": 22916.657499999983,
      "d": 416.66649999999936,
      "v": 127
    },
    {
      "midi": 60,
      "hit": false,
      "t": 22916.657499999983,
      "d": 416.66649999999936,
      "v": 127
    },
    {
      "midi": 50,
      "hit": false,
      "t": 23333.323999999982,
      "d": 416.66649999999936,
      "v": 127
    },
    {
      "midi": 54,
      "hit": false,
      "t": 23333.323999999982,
      "d": 416.66649999999936,
      "v": 127
    },
    {
      "midi": 60,
      "hit": false,
      "t": 23333.323999999982,
      "d": 416.66649999999936,
      "v": 127
    },
    {
      "midi": 71,
      "hit": false,
      "t": 23333.324,
      "d": 624.999749999999,
      "v": 127
    },
    {
      "midi": 50,
      "hit": false,
      "t": 23749.99049999998,
      "d": 416.66649999999936,
      "v": 127
    },
    {
      "midi": 54,
      "hit": false,
      "t": 23749.99049999998,
      "d": 416.66649999999936,
      "v": 127
    },
    {
      "midi": 60,
      "hit": false,
      "t": 23749.99049999998,
      "d": 416.66649999999936,
      "v": 127
    },
    {
      "midi": 69,
      "hit": false,
      "t": 23958.32375,
      "d": 208.33324999999968,
      "v": 127
    },
    {
      "midi": 50,
      "hit": false,
      "t": 24166.65699999998,
      "d": 416.66649999999936,
      "v": 127
    },
    {
      "midi": 53,
      "hit": false,
      "t": 24166.65699999998,
      "d": 416.66649999999936,
      "v": 127
    },
    {
      "midi": 60,
      "hit": false,
      "t": 24166.65699999998,
      "d": 416.66649999999936,
      "v": 127
    },
    {
      "midi": 69,
      "hit": false,
      "t": 24166.657,
      "d": 2499.999,
      "v": 127
    },
    {
      "midi": 50,
      "hit": false,
      "t": 24583.32349999998,
      "d": 416.66649999999936,
      "v": 127
    },
    {
      "midi": 53,
      "hit": false,
      "t": 24583.32349999998,
      "d": 416.66649999999936,
      "v": 127
    },
    {
      "midi": 60,
      "hit": false,
      "t": 24583.32349999998,
      "d": 416.66649999999936,
      "v": 127
    },
    {
      "midi": 50,
      "hit": false,
      "t": 24999.98999999998,
      "d": 416.66649999999936,
      "v": 127
    },
    {
      "midi": 53,
      "hit": false,
      "t": 24999.98999999998,
      "d": 416.66649999999936,
      "v": 127
    },
    {
      "midi": 60,
      "hit": false,
      "t": 24999.98999999998,
      "d": 416.66649999999936,
      "v": 127
    },
    {
      "midi": 50,
      "hit": false,
      "t": 25416.65649999998,
      "d": 416.66649999999936,
      "v": 127
    },
    {
      "midi": 53,
      "hit": false,
      "t": 25416.65649999998,
      "d": 416.66649999999936,
      "v": 127
    },
    {
      "midi": 60,
      "hit": false,
      "t": 25416.65649999998,
      "d": 416.66649999999936,
      "v": 127
    },
    {
      "midi": 50,
      "hit": false,
      "t": 25833.32299999998,
      "d": 416.66649999999936,
      "v": 127
    },
    {
      "midi": 53,
      "hit": false,
      "t": 25833.32299999998,
      "d": 416.66649999999936,
      "v": 127
    },
    {
      "midi": 59,
      "hit": false,
      "t": 25833.32299999998,
      "d": 416.66649999999936,
      "v": 127
    },
    {
      "midi": 50,
      "hit": false,
      "t": 26249.989499999978,
      "d": 416.66649999999936,
      "v": 127
    },
    {
      "midi": 53,
      "hit": false,
      "t": 26249.989499999978,
      "d": 416.66649999999936,
      "v": 127
    },
    {
      "midi": 59,
      "hit": false,
      "t": 26249.989499999978,
      "d": 416.66649999999936,
      "v": 127
    },
    {
      "midi": 50,
      "hit": false,
      "t": 26666.655999999977,
      "d": 416.66649999999936,
      "v": 127
    },
    {
      "midi": 53,
      "hit": false,
      "t": 26666.655999999977,
      "d": 416.66649999999936,
      "v": 127
    },
    {
      "midi": 59,
      "hit": false,
      "t": 26666.655999999977,
      "d": 416.66649999999936,
      "v": 127
    },
    {
      "midi": 68,
      "hit": false,
      "t": 26666.656,
      "d": 1666.666000000001,
      "v": 127
    },
    {
      "midi": 50,
      "hit": false,
      "t": 27083.322499999977,
      "d": 416.66649999999936,
      "v": 127
    },
    {
      "midi": 53,
      "hit": false,
      "t": 27083.322499999977,
      "d": 416.66649999999936,
      "v": 127
    },
    {
      "midi": 59,
      "hit": false,
      "t": 27083.322499999977,
      "d": 416.66649999999936,
      "v": 127
    },
    {
      "midi": 48,
      "hit": false,
      "t": 27499.988999999976,
      "d": 416.66649999999936,
      "v": 127
    },
    {
      "midi": 52,
      "hit": false,
      "t": 27499.988999999976,
      "d": 416.66649999999936,
      "v": 127
    },
    {
      "midi": 59,
      "hit": false,
      "t": 27499.988999999976,
      "d": 416.66649999999936,
      "v": 127
    },
    {
      "midi": 48,
      "hit": false,
      "t": 27916.655499999975,
      "d": 416.66649999999936,
      "v": 127
    },
    {
      "midi": 52,
      "hit": false,
      "t": 27916.655499999975,
      "d": 416.66649999999936,
      "v": 127
    },
    {
      "midi": 59,
      "hit": false,
      "t": 27916.655499999975,
      "d": 416.66649999999936,
      "v": 127
    },
    {
      "midi": 48,
      "hit": false,
      "t": 28333.321999999975,
      "d": 416.66649999999936,
      "v": 127
    },
    {
      "midi": 52,
      "hit": false,
      "t": 28333.321999999975,
      "d": 416.66649999999936,
      "v": 127
    },
    {
      "midi": 57,
      "hit": false,
      "t": 28333.321999999975,
      "d": 416.66649999999936,
      "v": 127
    },
    {
      "midi": 69,
      "hit": false,
      "t": 28333.322,
      "d": 416.66649999999936,
      "v": 127
    },
    {
      "midi": 48,
      "hit": false,
      "t": 28749.988499999974,
      "d": 416.66649999999936,
      "v": 127
    },
    {
      "midi": 52,
      "hit": false,
      "t": 28749.988499999974,
      "d": 416.66649999999936,
      "v": 127
    },
    {
      "midi": 57,
      "hit": false,
      "t": 28749.988499999974,
      "d": 416.66649999999936,
      "v": 127
    },
    {
      "midi": 71,
      "hit": false,
      "t": 28749.9885,
      "d": 416.66649999999936,
      "v": 127
    },
    {
      "midi": 48,
      "hit": false,
      "t": 29166.654999999973,
      "d": 416.66649999999936,
      "v": 127
    },
    {
      "midi": 52,
      "hit": false,
      "t": 29166.654999999973,
      "d": 416.66649999999936,
      "v": 127
    },
    {
      "midi": 57,
      "hit": false,
      "t": 29166.654999999973,
      "d": 416.66649999999936,
      "v": 127
    },
    {
      "midi": 74,
      "hit": false,
      "t": 29166.655,
      "d": 416.66649999999936,
      "v": 127
    },
    {
      "midi": 48,
      "hit": false,
      "t": 29583.321499999973,
      "d": 416.66649999999936,
      "v": 127
    },
    {
      "midi": 52,
      "hit": false,
      "t": 29583.321499999973,
      "d": 416.66649999999936,
      "v": 127
    },
    {
      "midi": 57,
      "hit": false,
      "t": 29583.321499999973,
      "d": 416.66649999999936,
      "v": 127
    },
    {
      "midi": 72,
      "hit": false,
      "t": 29583.3215,
      "d": 416.66649999999936,
      "v": 127
    },
    {
      "midi": 48,
      "hit": false,
      "t": 29999.987999999972,
      "d": 416.66649999999936,
      "v": 127
    },
    {
      "midi": 52,
      "hit": false,
      "t": 29999.987999999972,
      "d": 416.66649999999936,
      "v": 127
    },
    {
      "midi": 57,
      "hit": false,
      "t": 29999.987999999972,
      "d": 416.66649999999936,
      "v": 127
    },
    {
      "midi": 64,
      "hit": false,
      "t": 29999.987999999998,
      "d": 416.66649999999936,
      "v": 127
    },
    {
      "midi": 48,
      "hit": false,
      "t": 30416.65449999997,
      "d": 416.66649999999936,
      "v": 127
    },
    {
      "midi": 52,
      "hit": false,
      "t": 30416.65449999997,
      "d": 416.66649999999936,
      "v": 127
    },
    {
      "midi": 57,
      "hit": false,
      "t": 30416.65449999997,
      "d": 416.66649999999936,
      "v": 127
    },
    {
      "midi": 69,
      "hit": false,
      "t": 30416.654499999997,
      "d": 416.66649999999936,
      "v": 127
    },
    {
      "midi": 47,
      "hit": false,
      "t": 30833.32099999997,
      "d": 416.66649999999936,
      "v": 127
    },
    {
      "midi": 52,
      "hit": false,
      "t": 30833.32099999997,
      "d": 416.66649999999936,
      "v": 127
    },
    {
      "midi": 57,
      "hit": false,
      "t": 30833.32099999997,
      "d": 416.66649999999936,
      "v": 127
    },
    {
      "midi": 66,
      "hit": false,
      "t": 30833.320999999996,
      "d": 2499.9990000000034,
      "v": 127
    },
    {
      "midi": 47,
      "hit": false,
      "t": 31249.98749999997,
      "d": 416.66649999999936,
      "v": 127
    },
    {
      "midi": 52,
      "hit": false,
      "t": 31249.98749999997,
      "d": 416.66649999999936,
      "v": 127
    },
    {
      "midi": 57,
      "hit": false,
      "t": 31249.98749999997,
      "d": 416.66649999999936,
      "v": 127
    },
    {
      "midi": 47,
      "hit": false,
      "t": 31666.65399999997,
      "d": 416.66649999999936,
      "v": 127
    },
    {
      "midi": 51,
      "hit": false,
      "t": 31666.65399999997,
      "d": 416.66649999999936,
      "v": 127
    },
    {
      "midi": 57,
      "hit": false,
      "t": 31666.65399999997,
      "d": 416.66649999999936,
      "v": 127
    },
    {
      "midi": 47,
      "hit": false,
      "t": 32083.32049999997,
      "d": 416.66649999999936,
      "v": 127
    },
    {
      "midi": 51,
      "hit": false,
      "t": 32083.32049999997,
      "d": 416.66649999999936,
      "v": 127
    },
    {
      "midi": 57,
      "hit": false,
      "t": 32083.32049999997,
      "d": 416.66649999999936,
      "v": 127
    },
    {
      "midi": 48,
      "hit": false,
      "t": 32499.98699999997,
      "d": 416.666500000003,
      "v": 127
    },
    {
      "midi": 52,
      "hit": false,
      "t": 32499.98699999997,
      "d": 416.666500000003,
      "v": 127
    },
    {
      "midi": 57,
      "hit": false,
      "t": 32499.98699999997,
      "d": 416.666500000003,
      "v": 127
    },
    {
      "midi": 48,
      "hit": false,
      "t": 32916.65349999997,
      "d": 416.66649999999936,
      "v": 127
    },
    {
      "midi": 52,
      "hit": false,
      "t": 32916.65349999997,
      "d": 416.66649999999936,
      "v": 127
    },
    {
      "midi": 57,
      "hit": false,
      "t": 32916.65349999997,
      "d": 416.66649999999936,
      "v": 127
    },
    {
      "midi": 48,
      "hit": false,
      "t": 33333.31999999997,
      "d": 416.66649999999936,
      "v": 127
    },
    {
      "midi": 52,
      "hit": false,
      "t": 33333.31999999997,
      "d": 416.66649999999936,
      "v": 127
    },
    {
      "midi": 57,
      "hit": false,
      "t": 33333.31999999997,
      "d": 416.66649999999936,
      "v": 127
    },
    {
      "midi": 69,
      "hit": false,
      "t": 33333.32,
      "d": 833.3329999999987,
      "v": 127
    },
    {
      "midi": 48,
      "hit": false,
      "t": 33749.98649999997,
      "d": 416.66649999999936,
      "v": 127
    },
    {
      "midi": 52,
      "hit": false,
      "t": 33749.98649999997,
      "d": 416.66649999999936,
      "v": 127
    },
    {
      "midi": 57,
      "hit": false,
      "t": 33749.98649999997,
      "d": 416.66649999999936,
      "v": 127
    },
    {
      "midi": 47,
      "hit": false,
      "t": 34166.65299999997,
      "d": 416.66649999999936,
      "v": 127
    },
    {
      "midi": 51,
      "hit": false,
      "t": 34166.65299999997,
      "d": 416.66649999999936,
      "v": 127
    },
    {
      "midi": 57,
      "hit": false,
      "t": 34166.65299999997,
      "d": 416.66649999999936,
      "v": 127
    },
    {
      "midi": 66,
      "hit": false,
      "t": 34166.653,
      "d": 2291.66575,
      "v": 127
    },
    {
      "midi": 47,
      "hit": false,
      "t": 34583.31949999997,
      "d": 416.66649999999936,
      "v": 127
    },
    {
      "midi": 51,
      "hit": false,
      "t": 34583.31949999997,
      "d": 416.66649999999936,
      "v": 127
    },
    {
      "midi": 57,
      "hit": false,
      "t": 34583.31949999997,
      "d": 416.66649999999936,
      "v": 127
    },
    {
      "midi": 47,
      "hit": false,
      "t": 34999.98599999997,
      "d": 416.66649999999936,
      "v": 127
    },
    {
      "midi": 51,
      "hit": false,
      "t": 34999.98599999997,
      "d": 416.66649999999936,
      "v": 127
    },
    {
      "midi": 57,
      "hit": false,
      "t": 34999.98599999997,
      "d": 416.66649999999936,
      "v": 127
    },
    {
      "midi": 47,
      "hit": false,
      "t": 35416.65249999997,
      "d": 416.66649999999936,
      "v": 127
    },
    {
      "midi": 51,
      "hit": false,
      "t": 35416.65249999997,
      "d": 416.66649999999936,
      "v": 127
    },
    {
      "midi": 57,
      "hit": false,
      "t": 35416.65249999997,
      "d": 416.66649999999936,
      "v": 127
    },
    {
      "midi": 48,
      "hit": false,
      "t": 35833.31899999997,
      "d": 416.66649999999936,
      "v": 127
    },
    {
      "midi": 52,
      "hit": false,
      "t": 35833.31899999997,
      "d": 416.66649999999936,
      "v": 127
    },
    {
      "midi": 57,
      "hit": false,
      "t": 35833.31899999997,
      "d": 416.66649999999936,
      "v": 127
    },
    {
      "midi": 48,
      "hit": false,
      "t": 36249.985499999966,
      "d": 416.66649999999936,
      "v": 127
    },
    {
      "midi": 52,
      "hit": false,
      "t": 36249.985499999966,
      "d": 416.66649999999936,
      "v": 127
    },
    {
      "midi": 57,
      "hit": false,
      "t": 36249.985499999966,
      "d": 416.66649999999936,
      "v": 127
    },
    {
      "midi": 71,
      "hit": false,
      "t": 36458.31875,
      "d": 208.33325000000332,
      "v": 127
    },
    {
      "midi": 48,
      "hit": false,
      "t": 36666.651999999965,
      "d": 416.66649999999936,
      "v": 127
    },
    {
      "midi": 52,
      "hit": false,
      "t": 36666.651999999965,
      "d": 416.66649999999936,
      "v": 127
    },
    {
      "midi": 57,
      "hit": false,
      "t": 36666.651999999965,
      "d": 416.66649999999936,
      "v": 127
    },
    {
      "midi": 69,
      "hit": false,
      "t": 36666.652,
      "d": 833.3329999999987,
      "v": 127
    },
    {
      "midi": 48,
      "hit": false,
      "t": 37083.318499999965,
      "d": 416.66649999999936,
      "v": 127
    },
    {
      "midi": 52,
      "hit": false,
      "t": 37083.318499999965,
      "d": 416.66649999999936,
      "v": 127
    },
    {
      "midi": 57,
      "hit": false,
      "t": 37083.318499999965,
      "d": 416.66649999999936,
      "v": 127
    },
    {
      "midi": 47,
      "hit": false,
      "t": 37499.984999999964,
      "d": 833.3329999999987,
      "v": 127
    },
    {
      "midi": 51,
      "hit": false,
      "t": 37499.984999999964,
      "d": 833.3329999999987,
      "v": 127
    },
    {
      "midi": 57,
      "hit": false,
      "t": 37499.984999999964,
      "d": 833.3329999999987,
      "v": 127
    },
    {
      "midi": 67,
      "hit": false,
      "t": 37499.985,
      "d": 416.66649999999936,
      "v": 127
    },
    {
      "midi": 66,
      "hit": false,
      "t": 37916.6515,
      "d": 416.66649999999936,
      "v": 127
    },
    {
      "midi": 60,
      "hit": false,
      "t": 38333.318,
      "d": 416.66649999999936,
      "v": 127
    },
    {
      "midi": 59,
      "hit": false,
      "t": 38749.9845,
      "d": 416.66649999999936,
      "v": 127
    },
    {
      "midi": 63,
      "hit": false,
      "t": 39166.651,
      "d": 416.66649999999936,
      "v": 127
    },
    {
      "midi": 66,
      "hit": false,
      "t": 39583.3175,
      "d": 416.66649999999936,
      "v": 127
    },
    {
      "midi": 74,
      "hit": false,
      "t": 39999.984,
      "d": 208.33325000000332,
      "v": 127
    },
    {
      "midi": 72,
      "hit": false,
      "t": 40208.31725,
      "d": 208.33325000000332,
      "v": 127
    },
    {
      "midi": 71,
      "hit": false,
      "t": 40624.98375000001,
      "d": 208.33325000000332,
      "v": 127
    },
    {
      "midi": 55,
      "hit": false,
      "t": 40833.316999999966,
      "d": 416.66649999999936,
      "v": 127
    },
    {
      "midi": 59,
      "hit": false,
      "t": 40833.316999999966,
      "d": 416.66649999999936,
      "v": 127
    },
    {
      "midi": 64,
      "hit": false,
      "t": 40833.316999999966,
      "d": 416.66649999999936,
      "v": 127
    },
    {
      "midi": 71,
      "hit": false,
      "t": 40833.31700000001,
      "d": 2499.9990000000034,
      "v": 127
    },
    {
      "midi": 55,
      "hit": false,
      "t": 41249.983499999966,
      "d": 416.66649999999936,
      "v": 127
    },
    {
      "midi": 59,
      "hit": false,
      "t": 41249.983499999966,
      "d": 416.66649999999936,
      "v": 127
    },
    {
      "midi": 64,
      "hit": false,
      "t": 41249.983499999966,
      "d": 416.66649999999936,
      "v": 127
    },
    {
      "midi": 55,
      "hit": false,
      "t": 41666.649999999965,
      "d": 416.66649999999936,
      "v": 127
    },
    {
      "midi": 59,
      "hit": false,
      "t": 41666.649999999965,
      "d": 416.66649999999936,
      "v": 127
    },
    {
      "midi": 64,
      "hit": false,
      "t": 41666.649999999965,
      "d": 416.66649999999936,
      "v": 127
    },
    {
      "midi": 55,
      "hit": false,
      "t": 42083.316499999964,
      "d": 416.66649999999936,
      "v": 127
    },
    {
      "midi": 59,
      "hit": false,
      "t": 42083.316499999964,
      "d": 416.66649999999936,
      "v": 127
    },
    {
      "midi": 64,
      "hit": false,
      "t": 42083.316499999964,
      "d": 416.66649999999936,
      "v": 127
    },
    {
      "midi": 55,
      "hit": false,
      "t": 42499.982999999964,
      "d": 416.66649999999936,
      "v": 127
    },
    {
      "midi": 59,
      "hit": false,
      "t": 42499.982999999964,
      "d": 416.66649999999936,
      "v": 127
    },
    {
      "midi": 64,
      "hit": false,
      "t": 42499.982999999964,
      "d": 416.66649999999936,
      "v": 127
    },
    {
      "midi": 55,
      "hit": false,
      "t": 42916.64949999996,
      "d": 416.66649999999936,
      "v": 127
    },
    {
      "midi": 59,
      "hit": false,
      "t": 42916.64949999996,
      "d": 416.66649999999936,
      "v": 127
    },
    {
      "midi": 64,
      "hit": false,
      "t": 42916.64949999996,
      "d": 416.66649999999936,
      "v": 127
    },
    {
      "midi": 55,
      "hit": false,
      "t": 43333.31599999996,
      "d": 416.66649999999936,
      "v": 127
    },
    {
      "midi": 59,
      "hit": false,
      "t": 43333.31599999996,
      "d": 416.66649999999936,
      "v": 127
    },
    {
      "midi": 64,
      "hit": false,
      "t": 43333.31599999996,
      "d": 416.66649999999936,
      "v": 127
    },
    {
      "midi": 72,
      "hit": false,
      "t": 43333.31600000001,
      "d": 833.3329999999987,
      "v": 127
    },
    {
      "midi": 55,
      "hit": false,
      "t": 43749.98249999996,
      "d": 416.66649999999936,
      "v": 127
    },
    {
      "midi": 59,
      "hit": false,
      "t": 43749.98249999996,
      "d": 416.66649999999936,
      "v": 127
    },
    {
      "midi": 64,
      "hit": false,
      "t": 43749.98249999996,
      "d": 416.66649999999936,
      "v": 127
    },
    {
      "midi": 54,
      "hit": false,
      "t": 44166.64899999996,
      "d": 416.66649999999936,
      "v": 127
    },
    {
      "midi": 57,
      "hit": false,
      "t": 44166.64899999996,
      "d": 416.66649999999936,
      "v": 127
    },
    {
      "midi": 64,
      "hit": false,
      "t": 44166.64899999996,
      "d": 416.66649999999936,
      "v": 127
    },
    {
      "midi": 71,
      "hit": false,
      "t": 44166.64900000001,
      "d": 2499.9990000000034,
      "v": 127
    },
    {
      "midi": 54,
      "hit": false,
      "t": 44583.31549999996,
      "d": 416.66649999999936,
      "v": 127
    },
    {
      "midi": 57,
      "hit": false,
      "t": 44583.31549999996,
      "d": 416.66649999999936,
      "v": 127
    },
    {
      "midi": 64,
      "hit": false,
      "t": 44583.31549999996,
      "d": 416.66649999999936,
      "v": 127
    },
    {
      "midi": 54,
      "hit": false,
      "t": 44999.98199999996,
      "d": 416.66649999999936,
      "v": 127
    },
    {
      "midi": 57,
      "hit": false,
      "t": 44999.98199999996,
      "d": 416.66649999999936,
      "v": 127
    },
    {
      "midi": 64,
      "hit": false,
      "t": 44999.98199999996,
      "d": 416.66649999999936,
      "v": 127
    },
    {
      "midi": 54,
      "hit": false,
      "t": 45416.64849999996,
      "d": 416.66649999999936,
      "v": 127
    },
    {
      "midi": 57,
      "hit": false,
      "t": 45416.64849999996,
      "d": 416.66649999999936,
      "v": 127
    },
    {
      "midi": 64,
      "hit": false,
      "t": 45416.64849999996,
      "d": 416.66649999999936,
      "v": 127
    },
    {
      "midi": 53,
      "hit": false,
      "t": 45833.31499999996,
      "d": 416.66649999999936,
      "v": 127
    },
    {
      "midi": 57,
      "hit": false,
      "t": 45833.31499999996,
      "d": 416.66649999999936,
      "v": 127
    },
    {
      "midi": 63,
      "hit": false,
      "t": 45833.31499999996,
      "d": 416.66649999999936,
      "v": 127
    },
    {
      "midi": 53,
      "hit": false,
      "t": 46249.98149999996,
      "d": 416.66649999999936,
      "v": 127
    },
    {
      "midi": 57,
      "hit": false,
      "t": 46249.98149999996,
      "d": 416.66649999999936,
      "v": 127
    },
    {
      "midi": 63,
      "hit": false,
      "t": 46249.98149999996,
      "d": 416.66649999999936,
      "v": 127
    },
    {
      "midi": 53,
      "hit": false,
      "t": 46666.64799999996,
      "d": 416.66649999999936,
      "v": 127
    },
    {
      "midi": 57,
      "hit": false,
      "t": 46666.64799999996,
      "d": 416.66649999999936,
      "v": 127
    },
    {
      "midi": 63,
      "hit": false,
      "t": 46666.64799999996,
      "d": 416.66649999999936,
      "v": 127
    },
    {
      "midi": 72,
      "hit": false,
      "t": 46666.648000000016,
      "d": 833.3329999999987,
      "v": 127
    },
    {
      "midi": 53,
      "hit": false,
      "t": 47083.31449999996,
      "d": 416.66649999999936,
      "v": 127
    },
    {
      "midi": 57,
      "hit": false,
      "t": 47083.31449999996,
      "d": 416.66649999999936,
      "v": 127
    },
    {
      "midi": 63,
      "hit": false,
      "t": 47083.31449999996,
      "d": 416.66649999999936,
      "v": 127
    },
    {
      "midi": 53,
      "hit": false,
      "t": 47499.980999999956,
      "d": 416.66649999999936,
      "v": 127
    },
    {
      "midi": 56,
      "hit": false,
      "t": 47499.980999999956,
      "d": 416.66649999999936,
      "v": 127
    },
    {
      "midi": 63,
      "hit": false,
      "t": 47499.980999999956,
      "d": 416.66649999999936,
      "v": 127
    },
    {
      "midi": 71,
      "hit": false,
      "t": 47499.981000000014,
      "d": 2499.9990000000034,
      "v": 127
    },
    {
      "midi": 53,
      "hit": false,
      "t": 47916.647499999955,
      "d": 416.66649999999936,
      "v": 127
    },
    {
      "midi": 56,
      "hit": false,
      "t": 47916.647499999955,
      "d": 416.66649999999936,
      "v": 127
    },
    {
      "midi": 63,
      "hit": false,
      "t": 47916.647499999955,
      "d": 416.66649999999936,
      "v": 127
    },
    {
      "midi": 53,
      "hit": false,
      "t": 48333.313999999955,
      "d": 416.66649999999936,
      "v": 127
    },
    {
      "midi": 56,
      "hit": false,
      "t": 48333.313999999955,
      "d": 416.66649999999936,
      "v": 127
    },
    {
      "midi": 62,
      "hit": false,
      "t": 48333.313999999955,
      "d": 416.66649999999936,
      "v": 127
    },
    {
      "midi": 53,
      "hit": false,
      "t": 48749.980499999954,
      "d": 416.66649999999936,
      "v": 127
    },
    {
      "midi": 56,
      "hit": false,
      "t": 48749.980499999954,
      "d": 416.66649999999936,
      "v": 127
    },
    {
      "midi": 62,
      "hit": false,
      "t": 48749.980499999954,
      "d": 416.66649999999936,
      "v": 127
    },
    {
      "midi": 52,
      "hit": false,
      "t": 49166.64699999995,
      "d": 416.66649999999936,
      "v": 127
    },
    {
      "midi": 56,
      "hit": false,
      "t": 49166.64699999995,
      "d": 416.66649999999936,
      "v": 127
    },
    {
      "midi": 62,
      "hit": false,
      "t": 49166.64699999995,
      "d": 416.66649999999936,
      "v": 127
    },
    {
      "midi": 52,
      "hit": false,
      "t": 49583.31349999995,
      "d": 416.66649999999936,
      "v": 127
    },
    {
      "midi": 56,
      "hit": false,
      "t": 49583.31349999995,
      "d": 416.66649999999936,
      "v": 127
    },
    {
      "midi": 62,
      "hit": false,
      "t": 49583.31349999995,
      "d": 416.66649999999936,
      "v": 127
    },
    {
      "midi": 52,
      "hit": false,
      "t": 49999.97999999995,
      "d": 416.66649999999936,
      "v": 127
    },
    {
      "midi": 56,
      "hit": false,
      "t": 49999.97999999995,
      "d": 416.66649999999936,
      "v": 127
    },
    {
      "midi": 62,
      "hit": false,
      "t": 49999.97999999995,
      "d": 416.66649999999936,
      "v": 127
    },
    {
      "midi": 72,
      "hit": false,
      "t": 49999.98000000002,
      "d": 833.3329999999987,
      "v": 127
    },
    {
      "midi": 52,
      "hit": false,
      "t": 50416.64649999995,
      "d": 416.66649999999936,
      "v": 127
    },
    {
      "midi": 56,
      "hit": false,
      "t": 50416.64649999995,
      "d": 416.66649999999936,
      "v": 127
    },
    {
      "midi": 62,
      "hit": false,
      "t": 50416.64649999995,
      "d": 416.66649999999936,
      "v": 127
    },
    {
      "midi": 52,
      "hit": false,
      "t": 50833.31299999995,
      "d": 416.66649999999936,
      "v": 127
    },
    {
      "midi": 55,
      "hit": false,
      "t": 50833.31299999995,
      "d": 416.66649999999936,
      "v": 127
    },
    {
      "midi": 62,
      "hit": false,
      "t": 50833.31299999995,
      "d": 416.66649999999936,
      "v": 127
    },
    {
      "midi": 71,
      "hit": false,
      "t": 50833.31300000002,
      "d": 624.9997500000027,
      "v": 127
    },
    {
      "midi": 52,
      "hit": false,
      "t": 51249.97949999995,
      "d": 416.66649999999936,
      "v": 127
    },
    {
      "midi": 55,
      "hit": false,
      "t": 51249.97949999995,
      "d": 416.66649999999936,
      "v": 127
    },
    {
      "midi": 62,
      "hit": false,
      "t": 51249.97949999995,
      "d": 416.66649999999936,
      "v": 127
    },
    {
      "midi": 70,
      "hit": false,
      "t": 51458.31275000002,
      "d": 208.33325000000332,
      "v": 127
    },
    {
      "midi": 52,
      "hit": false,
      "t": 51666.64599999995,
      "d": 416.66649999999936,
      "v": 127
    },
    {
      "midi": 55,
      "hit": false,
      "t": 51666.64599999995,
      "d": 416.66649999999936,
      "v": 127
    },
    {
      "midi": 61,
      "hit": false,
      "t": 51666.64599999995,
      "d": 416.66649999999936,
      "v": 127
    },
    {
      "midi": 70,
      "hit": false,
      "t": 51666.64600000002,
      "d": 833.3329999999987,
      "v": 127
    },
    {
      "midi": 52,
      "hit": false,
      "t": 52083.31249999995,
      "d": 416.66649999999936,
      "v": 127
    },
    {
      "midi": 55,
      "hit": false,
      "t": 52083.31249999995,
      "d": 416.66649999999936,
      "v": 127
    },
    {
      "midi": 61,
      "hit": false,
      "t": 52083.31249999995,
      "d": 416.66649999999936,
      "v": 127
    },
    {
      "midi": 49,
      "hit": false,
      "t": 52499.97899999995,
      "d": 416.66649999999936,
      "v": 127
    },
    {
      "midi": 52,
      "hit": false,
      "t": 52499.97899999995,
      "d": 416.66649999999936,
      "v": 127
    },
    {
      "midi": 58,
      "hit": false,
      "t": 52499.97899999995,
      "d": 416.66649999999936,
      "v": 127
    },
    {
      "midi": 81,
      "hit": false,
      "t": 52499.97900000002,
      "d": 833.3329999999987,
      "v": 127
    },
    {
      "midi": 49,
      "hit": false,
      "t": 52916.64549999995,
      "d": 416.66649999999936,
      "v": 127
    },
    {
      "midi": 52,
      "hit": false,
      "t": 52916.64549999995,
      "d": 416.66649999999936,
      "v": 127
    },
    {
      "midi": 58,
      "hit": false,
      "t": 52916.64549999995,
      "d": 416.66649999999936,
      "v": 127
    },
    {
      "midi": 48,
      "hit": false,
      "t": 53333.31199999995,
      "d": 416.66649999999936,
      "v": 127
    },
    {
      "midi": 52,
      "hit": false,
      "t": 53333.31199999995,
      "d": 416.66649999999936,
      "v": 127
    },
    {
      "midi": 57,
      "hit": false,
      "t": 53333.31199999995,
      "d": 416.66649999999936,
      "v": 127
    },
    {
      "midi": 78,
      "hit": false,
      "t": 53333.31200000002,
      "d": 624.9997500000027,
      "v": 127
    },
    {
      "midi": 48,
      "hit": false,
      "t": 53749.97849999995,
      "d": 416.66649999999936,
      "v": 127
    },
    {
      "midi": 52,
      "hit": false,
      "t": 53749.97849999995,
      "d": 416.66649999999936,
      "v": 127
    },
    {
      "midi": 57,
      "hit": false,
      "t": 53749.97849999995,
      "d": 416.66649999999936,
      "v": 127
    },
    {
      "midi": 76,
      "hit": false,
      "t": 53958.31175000002,
      "d": 208.33325000000332,
      "v": 127
    },
    {
      "midi": 35,
      "hit": false,
      "t": 54166.644999999946,
      "d": 416.66649999999936,
      "v": 127
    },
    {
      "midi": 47,
      "hit": false,
      "t": 54166.644999999946,
      "d": 416.66649999999936,
      "v": 127
    },
    {
      "midi": 76,
      "hit": false,
      "t": 54166.645000000026,
      "d": 416.66649999999936,
      "v": 127
    },
    {
      "midi": 57,
      "hit": false,
      "t": 54583.311499999945,
      "d": 416.66649999999936,
      "v": 127
    },
    {
      "midi": 60,
      "hit": false,
      "t": 54583.311499999945,
      "d": 416.66649999999936,
      "v": 127
    },
    {
      "midi": 66,
      "hit": false,
      "t": 54583.311499999945,
      "d": 416.66649999999936,
      "v": 127
    },
    {
      "midi": 69,
      "hit": false,
      "t": 54583.311499999945,
      "d": 416.66649999999936,
      "v": 127
    },
    {
      "midi": 75,
      "hit": false,
      "t": 54583.311500000025,
      "d": 416.66649999999936,
      "v": 127
    },
    {
      "midi": 57,
      "hit": false,
      "t": 54999.977999999945,
      "d": 416.66649999999936,
      "v": 127
    },
    {
      "midi": 60,
      "hit": false,
      "t": 54999.977999999945,
      "d": 416.66649999999936,
      "v": 127
    },
    {
      "midi": 66,
      "hit": false,
      "t": 54999.977999999945,
      "d": 416.66649999999936,
      "v": 127
    },
    {
      "midi": 69,
      "hit": false,
      "t": 54999.977999999945,
      "d": 416.66649999999936,
      "v": 127
    },
    {
      "midi": 84,
      "hit": false,
      "t": 54999.978000000025,
      "d": 416.66649999999936,
      "v": 127
    },
    {
      "midi": 57,
      "hit": false,
      "t": 55416.644499999944,
      "d": 416.66649999999936,
      "v": 127
    },
    {
      "midi": 60,
      "hit": false,
      "t": 55416.644499999944,
      "d": 416.66649999999936,
      "v": 127
    },
    {
      "midi": 66,
      "hit": false,
      "t": 55416.644499999944,
      "d": 416.66649999999936,
      "v": 127
    },
    {
      "midi": 69,
      "hit": false,
      "t": 55416.644499999944,
      "d": 416.66649999999936,
      "v": 127
    },
    {
      "midi": 75,
      "hit": false,
      "t": 55416.644500000024,
      "d": 416.66649999999936,
      "v": 127
    },
    {
      "midi": 55,
      "hit": false,
      "t": 55833.31099999994,
      "d": 416.66649999999936,
      "v": 127
    },
    {
      "midi": 59,
      "hit": false,
      "t": 55833.31099999994,
      "d": 416.66649999999936,
      "v": 127
    },
    {
      "midi": 63,
      "hit": false,
      "t": 55833.31099999994,
      "d": 416.66649999999936,
      "v": 127
    },
    {
      "midi": 66,
      "hit": false,
      "t": 55833.31099999994,
      "d": 416.66649999999936,
      "v": 127
    },
    {
      "midi": 75,
      "hit": false,
      "t": 55833.31100000002,
      "d": 416.66649999999936,
      "v": 127
    },
    {
      "midi": 55,
      "hit": false,
      "t": 56249.97749999994,
      "d": 416.66649999999936,
      "v": 127
    },
    {
      "midi": 59,
      "hit": false,
      "t": 56249.97749999994,
      "d": 416.66649999999936,
      "v": 127
    },
    {
      "midi": 64,
      "hit": false,
      "t": 56249.97749999994,
      "d": 416.66649999999936,
      "v": 127
    },
    {
      "midi": 76,
      "hit": false,
      "t": 56249.97750000002,
      "d": 416.66649999999936,
      "v": 127
    },
    {
      "midi": 55,
      "hit": false,
      "t": 56666.64399999994,
      "d": 416.66649999999936,
      "v": 127
    },
    {
      "midi": 59,
      "hit": false,
      "t": 56666.64399999994,
      "d": 416.66649999999936,
      "v": 127
    },
    {
      "midi": 64,
      "hit": false,
      "t": 56666.64399999994,
      "d": 416.66649999999936,
      "v": 127
    },
    {
      "midi": 79,
      "hit": false,
      "t": 56666.64400000002,
      "d": 416.66649999999936,
      "v": 127
    },
    {
      "midi": 55,
      "hit": false,
      "t": 57083.31049999994,
      "d": 416.66649999999936,
      "v": 127
    },
    {
      "midi": 59,
      "hit": false,
      "t": 57083.31049999994,
      "d": 416.66649999999936,
      "v": 127
    },
    {
      "midi": 64,
      "hit": false,
      "t": 57083.31049999994,
      "d": 416.66649999999936,
      "v": 127
    },
    {
      "midi": 71,
      "hit": false,
      "t": 57083.31050000002,
      "d": 416.66649999999936,
      "v": 127
    },
    {
      "midi": 57,
      "hit": false,
      "t": 57499.97699999994,
      "d": 416.66649999999936,
      "v": 127
    },
    {
      "midi": 60,
      "hit": false,
      "t": 57499.97699999994,
      "d": 416.66649999999936,
      "v": 127
    },
    {
      "midi": 64,
      "hit": false,
      "t": 57499.97699999994,
      "d": 416.66649999999936,
      "v": 127
    },
    {
      "midi": 74,
      "hit": false,
      "t": 57499.97700000002,
      "d": 416.66649999999936,
      "v": 127
    },
    {
      "midi": 57,
      "hit": false,
      "t": 57916.64349999994,
      "d": 416.66649999999936,
      "v": 127
    },
    {
      "midi": 60,
      "hit": false,
      "t": 57916.64349999994,
      "d": 416.66649999999936,
      "v": 127
    },
    {
      "midi": 64,
      "hit": false,
      "t": 57916.64349999994,
      "d": 416.66649999999936,
      "v": 127
    },
    {
      "midi": 72,
      "hit": false,
      "t": 57916.64350000002,
      "d": 416.66649999999936,
      "v": 127
    },
    {
      "midi": 45,
      "hit": false,
      "t": 58333.30999999994,
      "d": 416.66649999999936,
      "v": 127
    },
    {
      "midi": 76,
      "hit": false,
      "t": 58333.31000000002,
      "d": 208.33325000000332,
      "v": 127
    },
    {
      "midi": 64,
      "hit": false,
      "t": 58541.64325000002,
      "d": 208.33325000000332,
      "v": 127
    },
    {
      "midi": 52,
      "hit": false,
      "t": 58749.97649999994,
      "d": 416.66649999999936,
      "v": 127
    },
    {
      "midi": 54,
      "hit": false,
      "t": 58749.97649999994,
      "d": 416.66649999999936,
      "v": 127
    },
    {
      "midi": 60,
      "hit": false,
      "t": 58749.97649999994,
      "d": 416.66649999999936,
      "v": 127
    },
    {
      "midi": 69,
      "hit": false,
      "t": 58958.30975000003,
      "d": 208.33325000000332,
      "v": 127
    },
    {
      "midi": 47,
      "hit": false,
      "t": 59166.64299999994,
      "d": 416.66649999999936,
      "v": 127
    },
    {
      "midi": 52,
      "hit": false,
      "t": 59166.64299999994,
      "d": 416.66649999999936,
      "v": 127
    },
    {
      "midi": 59,
      "hit": false,
      "t": 59166.64299999994,
      "d": 416.66649999999936,
      "v": 127
    },
    {
      "midi": 66,
      "hit": false,
      "t": 59166.64300000003,
      "d": 833.3329999999987,
      "v": 127
    },
    {
      "midi": 47,
      "hit": false,
      "t": 59583.30949999994,
      "d": 416.66649999999936,
      "v": 127
    },
    {
      "midi": 52,
      "hit": false,
      "t": 59583.30949999994,
      "d": 416.66649999999936,
      "v": 127
    },
    {
      "midi": 59,
      "hit": false,
      "t": 59583.30949999994,
      "d": 416.66649999999936,
      "v": 127
    },
    {
      "midi": 48,
      "hit": false,
      "t": 59999.97599999994,
      "d": 416.66649999999936,
      "v": 127
    },
    {
      "midi": 52,
      "hit": false,
      "t": 59999.97599999994,
      "d": 416.66649999999936,
      "v": 127
    },
    {
      "midi": 57,
      "hit": false,
      "t": 59999.97599999994,
      "d": 416.66649999999936,
      "v": 127
    },
    {
      "midi": 48,
      "hit": false,
      "t": 60416.642499999936,
      "d": 416.66649999999936,
      "v": 127
    },
    {
      "midi": 52,
      "hit": false,
      "t": 60416.642499999936,
      "d": 416.66649999999936,
      "v": 127
    },
    {
      "midi": 57,
      "hit": false,
      "t": 60416.642499999936,
      "d": 416.66649999999936,
      "v": 127
    },
    {
      "midi": 69,
      "hit": false,
      "t": 60416.64250000003,
      "d": 416.66649999999936,
      "v": 127
    },
    {
      "midi": 47,
      "hit": false,
      "t": 60833.308999999936,
      "d": 416.66649999999936,
      "v": 127
    },
    {
      "midi": 52,
      "hit": false,
      "t": 60833.308999999936,
      "d": 416.66649999999936,
      "v": 127
    },
    {
      "midi": 59,
      "hit": false,
      "t": 60833.308999999936,
      "d": 416.66649999999936,
      "v": 127
    },
    {
      "midi": 66,
      "hit": false,
      "t": 60833.30900000003,
      "d": 2291.66575,
      "v": 127
    },
    {
      "midi": 47,
      "hit": false,
      "t": 61249.975499999935,
      "d": 416.66649999999936,
      "v": 127
    },
    {
      "midi": 52,
      "hit": false,
      "t": 61249.975499999935,
      "d": 416.66649999999936,
      "v": 127
    },
    {
      "midi": 59,
      "hit": false,
      "t": 61249.975499999935,
      "d": 416.66649999999936,
      "v": 127
    },
    {
      "midi": 47,
      "hit": false,
      "t": 61666.641999999934,
      "d": 416.66649999999936,
      "v": 127
    },
    {
      "midi": 52,
      "hit": false,
      "t": 61666.641999999934,
      "d": 416.66649999999936,
      "v": 127
    },
    {
      "midi": 59,
      "hit": false,
      "t": 61666.641999999934,
      "d": 416.66649999999936,
      "v": 127
    },
    {
      "midi": 47,
      "hit": false,
      "t": 62083.308499999934,
      "d": 416.66649999999936,
      "v": 127
    },
    {
      "midi": 52,
      "hit": false,
      "t": 62083.308499999934,
      "d": 416.66649999999936,
      "v": 127
    },
    {
      "midi": 59,
      "hit": false,
      "t": 62083.308499999934,
      "d": 416.66649999999936,
      "v": 127
    },
    {
      "midi": 48,
      "hit": false,
      "t": 62499.97499999993,
      "d": 416.66649999999936,
      "v": 127
    },
    {
      "midi": 52,
      "hit": false,
      "t": 62499.97499999993,
      "d": 416.66649999999936,
      "v": 127
    },
    {
      "midi": 57,
      "hit": false,
      "t": 62499.97499999993,
      "d": 416.66649999999936,
      "v": 127
    },
    {
      "midi": 48,
      "hit": false,
      "t": 62916.64149999993,
      "d": 416.66649999999936,
      "v": 127
    },
    {
      "midi": 52,
      "hit": false,
      "t": 62916.64149999993,
      "d": 416.66649999999936,
      "v": 127
    },
    {
      "midi": 57,
      "hit": false,
      "t": 62916.64149999993,
      "d": 416.66649999999936,
      "v": 127
    },
    {
      "midi": 71,
      "hit": false,
      "t": 63124.97475000003,
      "d": 208.33325000000332,
      "v": 127
    },
    {
      "midi": 48,
      "hit": false,
      "t": 63333.30799999993,
      "d": 416.66649999999936,
      "v": 127
    },
    {
      "midi": 52,
      "hit": false,
      "t": 63333.30799999993,
      "d": 416.66649999999936,
      "v": 127
    },
    {
      "midi": 57,
      "hit": false,
      "t": 63333.30799999993,
      "d": 416.66649999999936,
      "v": 127
    },
    {
      "midi": 69,
      "hit": false,
      "t": 63333.308000000034,
      "d": 833.3329999999987,
      "v": 127
    },
    {
      "midi": 48,
      "hit": false,
      "t": 63749.97449999993,
      "d": 416.66649999999936,
      "v": 127
    },
    {
      "midi": 52,
      "hit": false,
      "t": 63749.97449999993,
      "d": 416.66649999999936,
      "v": 127
    },
    {
      "midi": 57,
      "hit": false,
      "t": 63749.97449999993,
      "d": 416.66649999999936,
      "v": 127
    },
    {
      "midi": 47,
      "hit": false,
      "t": 64166.64099999993,
      "d": 416.66649999999936,
      "v": 127
    },
    {
      "midi": 52,
      "hit": false,
      "t": 64166.64099999993,
      "d": 416.66649999999936,
      "v": 127
    },
    {
      "midi": 59,
      "hit": false,
      "t": 64166.64099999993,
      "d": 416.66649999999936,
      "v": 127
    },
    {
      "midi": 66,
      "hit": false,
      "t": 64166.64100000003,
      "d": 2499.998999999996,
      "v": 127
    },
    {
      "midi": 47,
      "hit": false,
      "t": 64583.30749999993,
      "d": 416.66649999999936,
      "v": 127
    },
    {
      "midi": 52,
      "hit": false,
      "t": 64583.30749999993,
      "d": 416.66649999999936,
      "v": 127
    },
    {
      "midi": 59,
      "hit": false,
      "t": 64583.30749999993,
      "d": 416.66649999999936,
      "v": 127
    },
    {
      "midi": 47,
      "hit": false,
      "t": 64999.97399999993,
      "d": 416.66649999999936,
      "v": 127
    },
    {
      "midi": 52,
      "hit": false,
      "t": 64999.97399999993,
      "d": 416.66649999999936,
      "v": 127
    },
    {
      "midi": 59,
      "hit": false,
      "t": 64999.97399999993,
      "d": 416.66649999999936,
      "v": 127
    },
    {
      "midi": 47,
      "hit": false,
      "t": 65416.64049999993,
      "d": 416.66649999999936,
      "v": 127
    },
    {
      "midi": 52,
      "hit": false,
      "t": 65416.64049999993,
      "d": 416.66649999999936,
      "v": 127
    },
    {
      "midi": 59,
      "hit": false,
      "t": 65416.64049999993,
      "d": 416.66649999999936,
      "v": 127
    },
    {
      "midi": 47,
      "hit": false,
      "t": 65833.30699999993,
      "d": 416.66650000000664,
      "v": 127
    },
    {
      "midi": 51,
      "hit": false,
      "t": 65833.30699999993,
      "d": 416.66650000000664,
      "v": 127
    },
    {
      "midi": 59,
      "hit": false,
      "t": 65833.30699999993,
      "d": 416.66650000000664,
      "v": 127
    },
    {
      "midi": 47,
      "hit": false,
      "t": 66249.97349999993,
      "d": 416.66650000000664,
      "v": 127
    },
    {
      "midi": 51,
      "hit": false,
      "t": 66249.97349999993,
      "d": 416.66650000000664,
      "v": 127
    },
    {
      "midi": 59,
      "hit": false,
      "t": 66249.97349999993,
      "d": 416.66650000000664,
      "v": 127
    },
    {
      "midi": 47,
      "hit": false,
      "t": 66666.63999999994,
      "d": 416.66650000000664,
      "v": 127
    },
    {
      "midi": 51,
      "hit": false,
      "t": 66666.63999999994,
      "d": 416.66650000000664,
      "v": 127
    },
    {
      "midi": 57,
      "hit": false,
      "t": 66666.63999999994,
      "d": 416.66650000000664,
      "v": 127
    },
    {
      "midi": 47,
      "hit": false,
      "t": 67083.30649999995,
      "d": 416.66650000000664,
      "v": 127
    },
    {
      "midi": 51,
      "hit": false,
      "t": 67083.30649999995,
      "d": 416.66650000000664,
      "v": 127
    },
    {
      "midi": 57,
      "hit": false,
      "t": 67083.30649999995,
      "d": 416.66650000000664,
      "v": 127
    },
    {
      "midi": 64,
      "hit": false,
      "t": 67291.63975000003,
      "d": 208.33324999999604,
      "v": 127
    },
    {
      "midi": 48,
      "hit": false,
      "t": 67499.97299999995,
      "d": 416.66650000000664,
      "v": 127
    },
    {
      "midi": 55,
      "hit": false,
      "t": 67499.97299999995,
      "d": 416.66650000000664,
      "v": 127
    },
    {
      "midi": 64,
      "hit": false,
      "t": 67499.97300000003,
      "d": 2499.998999999996,
      "v": 127
    },
    {
      "midi": 48,
      "hit": false,
      "t": 67916.63949999996,
      "d": 416.66650000000664,
      "v": 127
    },
    {
      "midi": 55,
      "hit": false,
      "t": 67916.63949999996,
      "d": 416.66650000000664,
      "v": 127
    },
    {
      "midi": 48,
      "hit": false,
      "t": 68333.30599999997,
      "d": 416.66650000000664,
      "v": 127
    },
    {
      "midi": 55,
      "hit": false,
      "t": 68333.30599999997,
      "d": 416.66650000000664,
      "v": 127
    },
    {
      "midi": 48,
      "hit": false,
      "t": 68749.97249999997,
      "d": 416.66650000000664,
      "v": 127
    },
    {
      "midi": 55,
      "hit": false,
      "t": 68749.97249999997,
      "d": 416.66650000000664,
      "v": 127
    },
    {
      "midi": 48,
      "hit": false,
      "t": 69166.63899999998,
      "d": 416.66650000000664,
      "v": 127
    },
    {
      "midi": 58,
      "hit": false,
      "t": 69166.63899999998,
      "d": 416.66650000000664,
      "v": 127
    },
    {
      "midi": 48,
      "hit": false,
      "t": 69583.30549999999,
      "d": 416.66650000000664,
      "v": 127
    },
    {
      "midi": 58,
      "hit": false,
      "t": 69583.30549999999,
      "d": 416.66650000000664,
      "v": 127
    },
    {
      "midi": 48,
      "hit": false,
      "t": 69999.972,
      "d": 416.66650000000664,
      "v": 127
    },
    {
      "midi": 52,
      "hit": false,
      "t": 69999.972,
      "d": 416.66650000000664,
      "v": 127
    },
    {
      "midi": 57,
      "hit": false,
      "t": 69999.972,
      "d": 416.66650000000664,
      "v": 127
    },
    {
      "midi": 66,
      "hit": false,
      "t": 69999.97200000002,
      "d": 833.3329999999987,
      "v": 127
    },
    {
      "midi": 48,
      "hit": false,
      "t": 70416.6385,
      "d": 416.66650000000664,
      "v": 127
    },
    {
      "midi": 52,
      "hit": false,
      "t": 70416.6385,
      "d": 416.66650000000664,
      "v": 127
    },
    {
      "midi": 57,
      "hit": false,
      "t": 70416.6385,
      "d": 416.66650000000664,
      "v": 127
    },
    {
      "midi": 47,
      "hit": false,
      "t": 70833.30500000001,
      "d": 416.66650000000664,
      "v": 127
    },
    {
      "midi": 52,
      "hit": false,
      "t": 70833.30500000001,
      "d": 416.66650000000664,
      "v": 127
    },
    {
      "midi": 57,
      "hit": false,
      "t": 70833.30500000001,
      "d": 416.66650000000664,
      "v": 127
    },
    {
      "midi": 64,
      "hit": false,
      "t": 70833.30500000002,
      "d": 2499.998999999996,
      "v": 127
    },
    {
      "midi": 47,
      "hit": false,
      "t": 71249.97150000001,
      "d": 416.66650000000664,
      "v": 127
    },
    {
      "midi": 52,
      "hit": false,
      "t": 71249.97150000001,
      "d": 416.66650000000664,
      "v": 127
    },
    {
      "midi": 57,
      "hit": false,
      "t": 71249.97150000001,
      "d": 416.66650000000664,
      "v": 127
    },
    {
      "midi": 47,
      "hit": false,
      "t": 71666.63800000002,
      "d": 416.66650000000664,
      "v": 127
    },
    {
      "midi": 52,
      "hit": false,
      "t": 71666.63800000002,
      "d": 416.66650000000664,
      "v": 127
    },
    {
      "midi": 56,
      "hit": false,
      "t": 71666.63800000002,
      "d": 416.66650000000664,
      "v": 127
    },
    {
      "midi": 47,
      "hit": false,
      "t": 72083.30450000003,
      "d": 416.66650000000664,
      "v": 127
    },
    {
      "midi": 52,
      "hit": false,
      "t": 72083.30450000003,
      "d": 416.66650000000664,
      "v": 127
    },
    {
      "midi": 56,
      "hit": false,
      "t": 72083.30450000003,
      "d": 416.66650000000664,
      "v": 127
    },
    {
      "midi": 47,
      "hit": false,
      "t": 72499.97100000003,
      "d": 416.66650000000664,
      "v": 127
    },
    {
      "midi": 52,
      "hit": false,
      "t": 72499.97100000003,
      "d": 416.66650000000664,
      "v": 127
    },
    {
      "midi": 55,
      "hit": false,
      "t": 72499.97100000003,
      "d": 416.66650000000664,
      "v": 127
    },
    {
      "midi": 47,
      "hit": false,
      "t": 72916.63750000004,
      "d": 416.66650000000664,
      "v": 127
    },
    {
      "midi": 52,
      "hit": false,
      "t": 72916.63750000004,
      "d": 416.66650000000664,
      "v": 127
    },
    {
      "midi": 55,
      "hit": false,
      "t": 72916.63750000004,
      "d": 416.66650000000664,
      "v": 127
    },
    {
      "midi": 66,
      "hit": false,
      "t": 73333.30400000002,
      "d": 833.3329999999987,
      "v": 127
    },
    {
      "midi": 47,
      "hit": false,
      "t": 73333.30400000005,
      "d": 416.66650000000664,
      "v": 127
    },
    {
      "midi": 52,
      "hit": false,
      "t": 73333.30400000005,
      "d": 416.66650000000664,
      "v": 127
    },
    {
      "midi": 55,
      "hit": false,
      "t": 73333.30400000005,
      "d": 416.66650000000664,
      "v": 127
    },
    {
      "midi": 47,
      "hit": false,
      "t": 73749.97050000005,
      "d": 416.66650000000664,
      "v": 127
    },
    {
      "midi": 52,
      "hit": false,
      "t": 73749.97050000005,
      "d": 416.66650000000664,
      "v": 127
    },
    {
      "midi": 55,
      "hit": false,
      "t": 73749.97050000005,
      "d": 416.66650000000664,
      "v": 127
    },
    {
      "midi": 64,
      "hit": false,
      "t": 74166.63700000002,
      "d": 1666.6659999999974,
      "v": 127
    },
    {
      "midi": 46,
      "hit": false,
      "t": 74166.63700000006,
      "d": 1666.6659999999974,
      "v": 127
    },
    {
      "midi": 48,
      "hit": false,
      "t": 74166.63700000006,
      "d": 1666.6659999999974,
      "v": 127
    },
    {
      "midi": 55,
      "hit": false,
      "t": 74166.63700000006,
      "d": 1666.6659999999974,
      "v": 127
    },
    {
      "midi": 35,
      "hit": false,
      "t": 77499.96900000006,
      "d": 1666.6659999999974,
      "v": 127
    },
    {
      "midi": 47,
      "hit": false,
      "t": 77499.96900000006,
      "d": 1666.6659999999974,
      "v": 127
    },
    {
      "midi": 52,
      "hit": false,
      "t": 77499.96900000006,
      "d": 1666.6659999999974,
      "v": 127
    },
    {
      "midi": 54,
      "hit": false,
      "t": 77499.96900000006,
      "d": 1666.6659999999974,
      "v": 127
    },
    {
      "midi": 59,
      "hit": false,
      "t": 77499.96900000006,
      "d": 1666.6659999999974,
      "v": 127
    },
    {
      "midi": 64,
      "hit": false,
      "t": 77499.96900000006,
      "d": 1666.6659999999974,
      "v": 127
    },
    {
      "midi": 35,
      "hit": false,
      "t": 79166.63500000005,
      "d": 833.3329999999987,
      "v": 127
    },
    {
      "midi": 47,
      "hit": false,
      "t": 79166.63500000005,
      "d": 833.3329999999987,
      "v": 127
    },
    {
      "midi": 51,
      "hit": false,
      "t": 79166.63500000005,
      "d": 833.3329999999987,
      "v": 127
    },
    {
      "midi": 54,
      "hit": false,
      "t": 79166.63500000005,
      "d": 833.3329999999987,
      "v": 127
    },
    {
      "midi": 59,
      "hit": false,
      "t": 79166.63500000005,
      "d": 833.3329999999987,
      "v": 127
    },
    {
      "midi": 63,
      "hit": false,
      "t": 79166.63500000005,
      "d": 833.3329999999987,
      "v": 127
    },
    {
      "midi": 28,
      "hit": false,
      "t": 80833.30100000005,
      "d": 2499.998999999996,
      "v": 127
    },
    {
      "midi": 40,
      "hit": false,
      "t": 80833.30100000005,
      "d": 2499.998999999996,
      "v": 127
    },
    {
      "midi": 52,
      "hit": false,
      "t": 80833.30100000005,
      "d": 2499.998999999996,
      "v": 127
    },
    {
      "midi": 55,
      "hit": false,
      "t": 80833.30100000005,
      "d": 2499.998999999996,
      "v": 127
    },
    {
      "midi": 59,
      "hit": false,
      "t": 80833.30100000005,
      "d": 2499.998999999996,
      "v": 127
    },
    {
      "midi": 64,
      "hit": false,
      "t": 80833.30100000005,
      "d": 2499.998999999996,
      "v": 127
    }
  ]
}