{
  "jsonPath": "Jazz/Cool Jazz/Art Pepper/alfie.json",
  "path": "Jazz\\Cool Jazz\\Art Pepper\\Alfie.mid",
  "name": "Alfie",
  "difficulty": "Advanced",
  "bpm": 80,
  "notes": [
    {
      "midi": 67,
      "hit": false,
      "t": 7450,
      "d": 312.5,
      "v": 95
    },
    {
      "midi": 55,
      "hit": false,
      "t": 7450,
      "d": 500,
      "v": 95
    },
    {
      "midi": 64,
      "hit": false,
      "t": 7462.5,
      "d": 312.5,
      "v": 89
    },
    {
      "midi": 59,
      "hit": false,
      "t": 7487.5,
      "d": 212.5,
      "v": 95
    },
    {
      "midi": 53,
      "hit": false,
      "t": 7800,
      "d": 212.5,
      "v": 95
    },
    {
      "midi": 59,
      "hit": false,
      "t": 7837.5,
      "d": 250,
      "v": 87
    },
    {
      "midi": 62,
      "hit": false,
      "t": 7862.5,
      "d": 200,
      "v": 97
    },
    {
      "midi": 52,
      "hit": false,
      "t": 8175,
      "d": 337.5,
      "v": 89
    },
    {
      "midi": 64,
      "hit": false,
      "t": 8225,
      "d": 225,
      "v": 86
    },
    {
      "midi": 59,
      "hit": false,
      "t": 8262.5,
      "d": 187.5,
      "v": 94
    },
    {
      "midi": 53,
      "hit": false,
      "t": 8550,
      "d": 387.5,
      "v": 99
    },
    {
      "midi": 65,
      "hit": false,
      "t": 8575,
      "d": 225,
      "v": 99
    },
    {
      "midi": 59,
      "hit": false,
      "t": 8587.5,
      "d": 162.5,
      "v": 89
    },
    {
      "midi": 62,
      "hit": false,
      "t": 8600,
      "d": 162.5,
      "v": 97
    },
    {
      "midi": 55,
      "hit": false,
      "t": 9037.5,
      "d": 1250,
      "v": 99
    },
    {
      "midi": 67,
      "hit": false,
      "t": 9062.5,
      "d": 987.5,
      "v": 90
    },
    {
      "midi": 64,
      "hit": false,
      "t": 9062.5,
      "d": 1012.5,
      "v": 86
    },
    {
      "midi": 58,
      "hit": false,
      "t": 9087.5,
      "d": 1037.5,
      "v": 94
    },
    {
      "midi": 61,
      "hit": false,
      "t": 9087.5,
      "d": 1037.5,
      "v": 99
    },
    {
      "midi": 57,
      "hit": false,
      "t": 10875,
      "d": 375,
      "v": 87
    },
    {
      "midi": 69,
      "hit": false,
      "t": 10900,
      "d": 387.5,
      "v": 75
    },
    {
      "midi": 61,
      "hit": false,
      "t": 10912.5,
      "d": 262.5,
      "v": 97
    },
    {
      "midi": 58,
      "hit": false,
      "t": 10925,
      "d": 237.5,
      "v": 87
    },
    {
      "midi": 55,
      "hit": false,
      "t": 11387.5,
      "d": 312.5,
      "v": 97
    },
    {
      "midi": 58,
      "hit": false,
      "t": 11425,
      "d": 262.5,
      "v": 90
    },
    {
      "midi": 61,
      "hit": false,
      "t": 11425,
      "d": 275,
      "v": 94
    },
    {
      "midi": 67,
      "hit": false,
      "t": 11450,
      "d": 262.5,
      "v": 92
    },
    {
      "midi": 50,
      "hit": false,
      "t": 12000,
      "d": 350,
      "v": 87
    },
    {
      "midi": 53,
      "hit": false,
      "t": 12012.5,
      "d": 337.5,
      "v": 87
    },
    {
      "midi": 60,
      "hit": false,
      "t": 12025,
      "d": 275,
      "v": 90
    },
    {
      "midi": 57,
      "hit": false,
      "t": 12025,
      "d": 400,
      "v": 92
    },
    {
      "midi": 65,
      "hit": false,
      "t": 12037.5,
      "d": 337.5,
      "v": 92
    },
    {
      "midi": 62,
      "hit": false,
      "t": 12050,
      "d": 250,
      "v": 95
    },
    {
      "midi": 60,
      "hit": false,
      "t": 13062.5,
      "d": 850,
      "v": 89
    },
    {
      "midi": 69,
      "hit": false,
      "t": 13100,
      "d": 2137.5,
      "v": 90
    },
    {
      "midi": 72,
      "hit": false,
      "t": 13112.5,
      "d": 2137.5,
      "v": 89
    },
    {
      "midi": 65,
      "hit": false,
      "t": 13112.5,
      "d": 2212.5,
      "v": 94
    },
    {
      "midi": 62,
      "hit": false,
      "t": 13125,
      "d": 2200,
      "v": 82
    },
    {
      "midi": 43,
      "hit": false,
      "t": 14912.5,
      "d": 187.5,
      "v": 90
    },
    {
      "midi": 67,
      "hit": false,
      "t": 17000,
      "d": 312.5,
      "v": 94
    },
    {
      "midi": 65,
      "hit": false,
      "t": 17025,
      "d": 237.5,
      "v": 84
    },
    {
      "midi": 53,
      "hit": false,
      "t": 17025,
      "d": 312.5,
      "v": 87
    },
    {
      "midi": 59,
      "hit": false,
      "t": 17037.5,
      "d": 212.5,
      "v": 92
    },
    {
      "midi": 69,
      "hit": false,
      "t": 17500,
      "d": 362.5,
      "v": 92
    },
    {
      "midi": 65,
      "hit": false,
      "t": 17512.5,
      "d": 512.5,
      "v": 89
    },
    {
      "midi": 55,
      "hit": false,
      "t": 17525,
      "d": 375,
      "v": 94
    },
    {
      "midi": 59,
      "hit": false,
      "t": 17537.5,
      "d": 362.5,
      "v": 79
    },
    {
      "midi": 52,
      "hit": false,
      "t": 18037.5,
      "d": 1150,
      "v": 78
    },
    {
      "midi": 67,
      "hit": false,
      "t": 18087.5,
      "d": 637.5,
      "v": 92
    },
    {
      "midi": 59,
      "hit": false,
      "t": 18100,
      "d": 500,
      "v": 95
    },
    {
      "midi": 64,
      "hit": false,
      "t": 18100,
      "d": 637.5,
      "v": 97
    },
    {
      "midi": 55,
      "hit": false,
      "t": 18112.5,
      "d": 662.5,
      "v": 79
    },
    {
      "midi": 48,
      "hit": false,
      "t": 19012.5,
      "d": 287.5,
      "v": 86
    },
    {
      "midi": 60,
      "hit": false,
      "t": 19012.5,
      "d": 425,
      "v": 100
    },
    {
      "midi": 71,
      "hit": false,
      "t": 19900,
      "d": 412.5,
      "v": 92
    },
    {
      "midi": 60,
      "hit": false,
      "t": 19900,
      "d": 625,
      "v": 87
    },
    {
      "midi": 64,
      "hit": false,
      "t": 19912.5,
      "d": 487.5,
      "v": 94
    },
    {
      "midi": 67,
      "hit": false,
      "t": 19912.5,
      "d": 562.5,
      "v": 95
    },
    {
      "midi": 59,
      "hit": false,
      "t": 19925,
      "d": 450,
      "v": 89
    },
    {
      "midi": 69,
      "hit": false,
      "t": 20787.5,
      "d": 337.5,
      "v": 97
    },
    {
      "midi": 57,
      "hit": false,
      "t": 20812.5,
      "d": 212.5,
      "v": 99
    },
    {
      "midi": 64,
      "hit": false,
      "t": 20812.5,
      "d": 312.5,
      "v": 97
    },
    {
      "midi": 60,
      "hit": false,
      "t": 20825,
      "d": 237.5,
      "v": 92
    },
    {
      "midi": 59,
      "hit": false,
      "t": 21850,
      "d": 900,
      "v": 95
    },
    {
      "midi": 55,
      "hit": false,
      "t": 21875,
      "d": 700,
      "v": 94
    },
    {
      "midi": 47,
      "hit": false,
      "t": 21900,
      "d": 812.5,
      "v": 75
    },
    {
      "midi": 48,
      "hit": false,
      "t": 23000,
      "d": 400,
      "v": 92
    },
    {
      "midi": 60,
      "hit": false,
      "t": 23012.5,
      "d": 625,
      "v": 84
    },
    {
      "midi": 55,
      "hit": false,
      "t": 23037.5,
      "d": 512.5,
      "v": 90
    },
    {
      "midi": 57,
      "hit": false,
      "t": 23037.5,
      "d": 562.5,
      "v": 90
    },
    {
      "midi": 47,
      "hit": false,
      "t": 23912.5,
      "d": 300,
      "v": 94
    },
    {
      "midi": 59,
      "hit": false,
      "t": 23925,
      "d": 562.5,
      "v": 94
    },
    {
      "midi": 50,
      "hit": false,
      "t": 23925,
      "d": 687.5,
      "v": 90
    },
    {
      "midi": 62,
      "hit": false,
      "t": 23925,
      "d": 3750,
      "v": 97
    },
    {
      "midi": 55,
      "hit": false,
      "t": 23937.5,
      "d": 475,
      "v": 94
    },
    {
      "midi": 40,
      "hit": false,
      "t": 25212.5,
      "d": 225,
      "v": 86
    },
    {
      "midi": 52,
      "hit": false,
      "t": 25675,
      "d": 300,
      "v": 86
    },
    {
      "midi": 55,
      "hit": false,
      "t": 26062.5,
      "d": 250,
      "v": 87
    },
    {
      "midi": 59,
      "hit": false,
      "t": 26387.5,
      "d": 312.5,
      "v": 87
    },
    {
      "midi": 52,
      "hit": false,
      "t": 26837.5,
      "d": 900,
      "v": 89
    },
    {
      "midi": 57,
      "hit": false,
      "t": 26850,
      "d": 812.5,
      "v": 92
    },
    {
      "midi": 45,
      "hit": false,
      "t": 26850,
      "d": 975,
      "v": 86
    },
    {
      "midi": 58,
      "hit": false,
      "t": 28362.5,
      "d": 300,
      "v": 89
    },
    {
      "midi": 49,
      "hit": false,
      "t": 28362.5,
      "d": 337.5,
      "v": 82
    },
    {
      "midi": 61,
      "hit": false,
      "t": 28362.5,
      "d": 337.5,
      "v": 87
    },
    {
      "midi": 55,
      "hit": false,
      "t": 28387.5,
      "d": 275,
      "v": 90
    },
    {
      "midi": 52,
      "hit": false,
      "t": 28425,
      "d": 212.5,
      "v": 86
    },
    {
      "midi": 52,
      "hit": false,
      "t": 28887.5,
      "d": 237.5,
      "v": 95
    },
    {
      "midi": 61,
      "hit": false,
      "t": 28925,
      "d": 212.5,
      "v": 90
    },
    {
      "midi": 55,
      "hit": false,
      "t": 28937.5,
      "d": 150,
      "v": 90
    },
    {
      "midi": 58,
      "hit": false,
      "t": 28937.5,
      "d": 162.5,
      "v": 86
    },
    {
      "midi": 64,
      "hit": false,
      "t": 28950,
      "d": 187.5,
      "v": 78
    },
    {
      "midi": 55,
      "hit": false,
      "t": 29387.5,
      "d": 225,
      "v": 92
    },
    {
      "midi": 69,
      "hit": false,
      "t": 29450,
      "d": 200,
      "v": 86
    },
    {
      "midi": 65,
      "hit": false,
      "t": 29462.5,
      "d": 150,
      "v": 84
    },
    {
      "midi": 76,
      "hit": false,
      "t": 30000,
      "d": 650,
      "v": 94
    },
    {
      "midi": 72,
      "hit": false,
      "t": 30025,
      "d": 525,
      "v": 67
    },
    {
      "midi": 60,
      "hit": false,
      "t": 30037.5,
      "d": 600,
      "v": 90
    },
    {
      "midi": 50,
      "hit": false,
      "t": 30050,
      "d": 587.5,
      "v": 72
    },
    {
      "midi": 53,
      "hit": false,
      "t": 30087.5,
      "d": 625,
      "v": 87
    },
    {
      "midi": 65,
      "hit": false,
      "t": 30112.5,
      "d": 212.5,
      "v": 82
    },
    {
      "midi": 67,
      "hit": false,
      "t": 30112.5,
      "d": 212.5,
      "v": 62
    },
    {
      "midi": 57,
      "hit": false,
      "t": 30125,
      "d": 62.5,
      "v": 55
    },
    {
      "midi": 72,
      "hit": false,
      "t": 30712.5,
      "d": 337.5,
      "v": 92
    },
    {
      "midi": 65,
      "hit": false,
      "t": 30737.5,
      "d": 475,
      "v": 79
    },
    {
      "midi": 57,
      "hit": false,
      "t": 30750,
      "d": 325,
      "v": 95
    },
    {
      "midi": 69,
      "hit": false,
      "t": 30762.5,
      "d": 437.5,
      "v": 87
    },
    {
      "midi": 72,
      "hit": false,
      "t": 31450,
      "d": 2025,
      "v": 97
    },
    {
      "midi": 50,
      "hit": false,
      "t": 31462.5,
      "d": 600,
      "v": 86
    },
    {
      "midi": 57,
      "hit": false,
      "t": 31462.5,
      "d": 625,
      "v": 94
    },
    {
      "midi": 69,
      "hit": false,
      "t": 31475,
      "d": 675,
      "v": 94
    },
    {
      "midi": 60,
      "hit": false,
      "t": 31475,
      "d": 687.5,
      "v": 90
    },
    {
      "midi": 65,
      "hit": false,
      "t": 31487.5,
      "d": 675,
      "v": 92
    },
    {
      "midi": 53,
      "hit": false,
      "t": 31500,
      "d": 587.5,
      "v": 87
    },
    {
      "midi": 51,
      "hit": false,
      "t": 32900,
      "d": 562.5,
      "v": 63
    },
    {
      "midi": 63,
      "hit": false,
      "t": 32925,
      "d": 575,
      "v": 84
    },
    {
      "midi": 66,
      "hit": false,
      "t": 32925,
      "d": 587.5,
      "v": 72
    },
    {
      "midi": 54,
      "hit": false,
      "t": 32950,
      "d": 587.5,
      "v": 89
    },
    {
      "midi": 60,
      "hit": false,
      "t": 32950,
      "d": 650,
      "v": 86
    },
    {
      "midi": 57,
      "hit": false,
      "t": 32962.5,
      "d": 412.5,
      "v": 87
    },
    {
      "midi": 66,
      "hit": false,
      "t": 34362.5,
      "d": 537.5,
      "v": 94
    },
    {
      "midi": 63,
      "hit": false,
      "t": 34362.5,
      "d": 662.5,
      "v": 84
    },
    {
      "midi": 74,
      "hit": false,
      "t": 34362.5,
      "d": 725,
      "v": 89
    },
    {
      "midi": 62,
      "hit": false,
      "t": 34387.5,
      "d": 550,
      "v": 94
    },
    {
      "midi": 60,
      "hit": false,
      "t": 34787.5,
      "d": 325,
      "v": 81
    },
    {
      "midi": 72,
      "hit": false,
      "t": 34800,
      "d": 325,
      "v": 84
    },
    {
      "midi": 59,
      "hit": false,
      "t": 35187.5,
      "d": 387.5,
      "v": 81
    },
    {
      "midi": 71,
      "hit": false,
      "t": 35200,
      "d": 462.5,
      "v": 56
    },
    {
      "midi": 60,
      "hit": false,
      "t": 35512.5,
      "d": 462.5,
      "v": 89
    },
    {
      "midi": 72,
      "hit": false,
      "t": 35525,
      "d": 325,
      "v": 86
    },
    {
      "midi": 62,
      "hit": false,
      "t": 35937.5,
      "d": 375,
      "v": 82
    },
    {
      "midi": 74,
      "hit": false,
      "t": 36000,
      "d": 300,
      "v": 82
    },
    {
      "midi": 64,
      "hit": false,
      "t": 36000,
      "d": 350,
      "v": 60
    },
    {
      "midi": 71,
      "hit": false,
      "t": 36012.5,
      "d": 287.5,
      "v": 92
    },
    {
      "midi": 67,
      "hit": false,
      "t": 36025,
      "d": 300,
      "v": 92
    },
    {
      "midi": 67,
      "hit": false,
      "t": 36912.5,
      "d": 800,
      "v": 64
    },
    {
      "midi": 64,
      "hit": false,
      "t": 36950,
      "d": 712.5,
      "v": 87
    },
    {
      "midi": 55,
      "hit": false,
      "t": 36975,
      "d": 612.5,
      "v": 75
    },
    {
      "midi": 59,
      "hit": false,
      "t": 36975,
      "d": 687.5,
      "v": 76
    },
    {
      "midi": 52,
      "hit": false,
      "t": 37000,
      "d": 587.5,
      "v": 82
    },
    {
      "midi": 67,
      "hit": false,
      "t": 38000,
      "d": 2675,
      "v": 94
    },
    {
      "midi": 55,
      "hit": false,
      "t": 38012.5,
      "d": 512.5,
      "v": 90
    },
    {
      "midi": 62,
      "hit": false,
      "t": 38025,
      "d": 525,
      "v": 90
    },
    {
      "midi": 59,
      "hit": false,
      "t": 38025,
      "d": 575,
      "v": 84
    },
    {
      "midi": 64,
      "hit": false,
      "t": 38037.5,
      "d": 2900,
      "v": 84
    },
    {
      "midi": 55,
      "hit": false,
      "t": 38962.5,
      "d": 2025,
      "v": 69
    },
    {
      "midi": 52,
      "hit": false,
      "t": 39000,
      "d": 1612.5,
      "v": 73
    },
    {
      "midi": 45,
      "hit": false,
      "t": 39000,
      "d": 1700,
      "v": 81
    },
    {
      "midi": 57,
      "hit": false,
      "t": 39025,
      "d": 1875,
      "v": 81
    },
    {
      "midi": 60,
      "hit": false,
      "t": 39025,
      "d": 1887.5,
      "v": 87
    },
    {
      "midi": 67,
      "hit": false,
      "t": 41162.5,
      "d": 437.5,
      "v": 94
    },
    {
      "midi": 52,
      "hit": false,
      "t": 41187.5,
      "d": 237.5,
      "v": 87
    },
    {
      "midi": 53,
      "hit": false,
      "t": 42000,
      "d": 400,
      "v": 92
    },
    {
      "midi": 57,
      "hit": false,
      "t": 42012.5,
      "d": 400,
      "v": 82
    },
    {
      "midi": 69,
      "hit": false,
      "t": 42025,
      "d": 287.5,
      "v": 95
    },
    {
      "midi": 65,
      "hit": false,
      "t": 42050,
      "d": 287.5,
      "v": 92
    },
    {
      "midi": 62,
      "hit": false,
      "t": 42050,
      "d": 312.5,
      "v": 95
    },
    {
      "midi": 60,
      "hit": false,
      "t": 42062.5,
      "d": 325,
      "v": 84
    },
    {
      "midi": 50,
      "hit": false,
      "t": 43025,
      "d": 800,
      "v": 90
    },
    {
      "midi": 62,
      "hit": false,
      "t": 43062.5,
      "d": 587.5,
      "v": 92
    },
    {
      "midi": 57,
      "hit": false,
      "t": 43075,
      "d": 550,
      "v": 92
    },
    {
      "midi": 53,
      "hit": false,
      "t": 43087.5,
      "d": 525,
      "v": 84
    },
    {
      "midi": 52,
      "hit": false,
      "t": 43962.5,
      "d": 537.5,
      "v": 95
    },
    {
      "midi": 64,
      "hit": false,
      "t": 43987.5,
      "d": 362.5,
      "v": 87
    },
    {
      "midi": 55,
      "hit": false,
      "t": 44000,
      "d": 325,
      "v": 72
    },
    {
      "midi": 59,
      "hit": false,
      "t": 44012.5,
      "d": 562.5,
      "v": 86
    },
    {
      "midi": 50,
      "hit": false,
      "t": 44937.5,
      "d": 562.5,
      "v": 82
    },
    {
      "midi": 53,
      "hit": false,
      "t": 44950,
      "d": 737.5,
      "v": 79
    },
    {
      "midi": 65,
      "hit": false,
      "t": 44987.5,
      "d": 587.5,
      "v": 89
    },
    {
      "midi": 59,
      "hit": false,
      "t": 44987.5,
      "d": 675,
      "v": 67
    },
    {
      "midi": 62,
      "hit": false,
      "t": 45012.5,
      "d": 637.5,
      "v": 84
    },
    {
      "midi": 57,
      "hit": false,
      "t": 45025,
      "d": 625,
      "v": 84
    },
    {
      "midi": 62,
      "hit": false,
      "t": 46837.5,
      "d": 275,
      "v": 86
    },
    {
      "midi": 67,
      "hit": false,
      "t": 46837.5,
      "d": 300,
      "v": 81
    },
    {
      "midi": 57,
      "hit": false,
      "t": 46850,
      "d": 187.5,
      "v": 69
    },
    {
      "midi": 60,
      "hit": false,
      "t": 46850,
      "d": 262.5,
      "v": 82
    },
    {
      "midi": 55,
      "hit": false,
      "t": 46875,
      "d": 275,
      "v": 89
    },
    {
      "midi": 69,
      "hit": false,
      "t": 47337.5,
      "d": 425,
      "v": 84
    },
    {
      "midi": 60,
      "hit": false,
      "t": 47400,
      "d": 300,
      "v": 63
    },
    {
      "midi": 57,
      "hit": false,
      "t": 47400,
      "d": 312.5,
      "v": 90
    },
    {
      "midi": 63,
      "hit": false,
      "t": 48012.5,
      "d": 237.5,
      "v": 84
    },
    {
      "midi": 69,
      "hit": false,
      "t": 48012.5,
      "d": 237.5,
      "v": 90
    },
    {
      "midi": 60,
      "hit": false,
      "t": 48025,
      "d": 175,
      "v": 87
    },
    {
      "midi": 66,
      "hit": false,
      "t": 48025,
      "d": 237.5,
      "v": 92
    },
    {
      "midi": 54,
      "hit": false,
      "t": 48025,
      "d": 250,
      "v": 92
    },
    {
      "midi": 57,
      "hit": false,
      "t": 48037.5,
      "d": 250,
      "v": 90
    },
    {
      "midi": 73,
      "hit": false,
      "t": 48587.5,
      "d": 475,
      "v": 64
    },
    {
      "midi": 62,
      "hit": false,
      "t": 48687.5,
      "d": 437.5,
      "v": 81
    },
    {
      "midi": 66,
      "hit": false,
      "t": 48712.5,
      "d": 287.5,
      "v": 94
    },
    {
      "midi": 74,
      "hit": false,
      "t": 48750,
      "d": 287.5,
      "v": 55
    },
    {
      "midi": 59,
      "hit": false,
      "t": 49462.5,
      "d": 2337.5,
      "v": 100
    },
    {
      "midi": 66,
      "hit": false,
      "t": 49475,
      "d": 2325,
      "v": 97
    },
    {
      "midi": 63,
      "hit": false,
      "t": 49475,
      "d": 2362.5,
      "v": 95
    },
    {
      "midi": 71,
      "hit": false,
      "t": 49475,
      "d": 2437.5,
      "v": 92
    },
    {
      "midi": 60,
      "hit": false,
      "t": 52300,
      "d": 437.5,
      "v": 72
    },
    {
      "midi": 57,
      "hit": false,
      "t": 52350,
      "d": 375,
      "v": 76
    },
    {
      "midi": 72,
      "hit": false,
      "t": 52362.5,
      "d": 400,
      "v": 90
    },
    {
      "midi": 63,
      "hit": false,
      "t": 52387.5,
      "d": 500,
      "v": 90
    },
    {
      "midi": 66,
      "hit": false,
      "t": 52400,
      "d": 312.5,
      "v": 95
    },
    {
      "midi": 69,
      "hit": false,
      "t": 52400,
      "d": 325,
      "v": 87
    },
    {
      "midi": 50,
      "hit": false,
      "t": 53487.5,
      "d": 562.5,
      "v": 81
    },
    {
      "midi": 53,
      "hit": false,
      "t": 53712.5,
      "d": 387.5,
      "v": 79
    },
    {
      "midi": 57,
      "hit": false,
      "t": 53737.5,
      "d": 312.5,
      "v": 86
    },
    {
      "midi": 69,
      "hit": false,
      "t": 53825,
      "d": 275,
      "v": 94
    },
    {
      "midi": 60,
      "hit": false,
      "t": 53837.5,
      "d": 237.5,
      "v": 81
    },
    {
      "midi": 65,
      "hit": false,
      "t": 53837.5,
      "d": 237.5,
      "v": 90
    },
    {
      "midi": 62,
      "hit": false,
      "t": 53850,
      "d": 262.5,
      "v": 94
    },
    {
      "midi": 50,
      "hit": false,
      "t": 54775,
      "d": 787.5,
      "v": 90
    },
    {
      "midi": 62,
      "hit": false,
      "t": 54787.5,
      "d": 550,
      "v": 95
    },
    {
      "midi": 60,
      "hit": false,
      "t": 54800,
      "d": 475,
      "v": 89
    },
    {
      "midi": 53,
      "hit": false,
      "t": 54812.5,
      "d": 550,
      "v": 90
    },
    {
      "midi": 57,
      "hit": false,
      "t": 54812.5,
      "d": 550,
      "v": 95
    },
    {
      "midi": 64,
      "hit": false,
      "t": 55762.5,
      "d": 475,
      "v": 86
    },
    {
      "midi": 53,
      "hit": false,
      "t": 55775,
      "d": 400,
      "v": 81
    },
    {
      "midi": 57,
      "hit": false,
      "t": 55775,
      "d": 425,
      "v": 81
    },
    {
      "midi": 52,
      "hit": false,
      "t": 55775,
      "d": 475,
      "v": 82
    },
    {
      "midi": 60,
      "hit": false,
      "t": 55825,
      "d": 37.5,
      "v": 78
    },
    {
      "midi": 59,
      "hit": false,
      "t": 55825,
      "d": 300,
      "v": 86
    },
    {
      "midi": 53,
      "hit": false,
      "t": 56862.5,
      "d": 637.5,
      "v": 84
    },
    {
      "midi": 62,
      "hit": false,
      "t": 56875,
      "d": 662.5,
      "v": 81
    },
    {
      "midi": 65,
      "hit": false,
      "t": 56887.5,
      "d": 650,
      "v": 94
    },
    {
      "midi": 43,
      "hit": false,
      "t": 56900,
      "d": 550,
      "v": 84
    },
    {
      "midi": 57,
      "hit": false,
      "t": 56900,
      "d": 600,
      "v": 87
    },
    {
      "midi": 67,
      "hit": false,
      "t": 57900,
      "d": 612.5,
      "v": 84
    },
    {
      "midi": 59,
      "hit": false,
      "t": 57925,
      "d": 537.5,
      "v": 86
    },
    {
      "midi": 64,
      "hit": false,
      "t": 57925,
      "d": 600,
      "v": 92
    },
    {
      "midi": 55,
      "hit": false,
      "t": 57962.5,
      "d": 462.5,
      "v": 90
    },
    {
      "midi": 69,
      "hit": false,
      "t": 58900,
      "d": 637.5,
      "v": 84
    },
    {
      "midi": 57,
      "hit": false,
      "t": 58912.5,
      "d": 412.5,
      "v": 90
    },
    {
      "midi": 59,
      "hit": false,
      "t": 58912.5,
      "d": 525,
      "v": 81
    },
    {
      "midi": 65,
      "hit": false,
      "t": 58937.5,
      "d": 587.5,
      "v": 90
    },
    {
      "midi": 50,
      "hit": false,
      "t": 59900,
      "d": 1275,
      "v": 86
    },
    {
      "midi": 57,
      "hit": false,
      "t": 59912.5,
      "d": 1637.5,
      "v": 86
    },
    {
      "midi": 60,
      "hit": false,
      "t": 59975,
      "d": 900,
      "v": 82
    },
    {
      "midi": 62,
      "hit": false,
      "t": 59987.5,
      "d": 950,
      "v": 87
    },
    {
      "midi": 65,
      "hit": false,
      "t": 59987.5,
      "d": 987.5,
      "v": 89
    },
    {
      "midi": 69,
      "hit": false,
      "t": 59987.5,
      "d": 1537.5,
      "v": 94
    },
    {
      "midi": 48,
      "hit": false,
      "t": 61337.5,
      "d": 312.5,
      "v": 92
    },
    {
      "midi": 60,
      "hit": false,
      "t": 61812.5,
      "d": 537.5,
      "v": 92
    },
    {
      "midi": 62,
      "hit": false,
      "t": 62187.5,
      "d": 450,
      "v": 90
    },
    {
      "midi": 65,
      "hit": false,
      "t": 62512.5,
      "d": 312.5,
      "v": 82
    },
    {
      "midi": 69,
      "hit": false,
      "t": 62725,
      "d": 2787.5,
      "v": 92
    },
    {
      "midi": 53,
      "hit": false,
      "t": 62987.5,
      "d": 1762.5,
      "v": 84
    },
    {
      "midi": 43,
      "hit": false,
      "t": 63000,
      "d": 1850,
      "v": 86
    },
    {
      "midi": 63,
      "hit": false,
      "t": 63037.5,
      "d": 2200,
      "v": 92
    },
    {
      "midi": 59,
      "hit": false,
      "t": 63062.5,
      "d": 2225,
      "v": 90
    },
    {
      "midi": 51,
      "hit": false,
      "t": 64412.5,
      "d": 425,
      "v": 66
    },
    {
      "midi": 52,
      "hit": false,
      "t": 65937.5,
      "d": 1912.5,
      "v": 59
    },
    {
      "midi": 55,
      "hit": false,
      "t": 67437.5,
      "d": 375,
      "v": 73
    },
    {
      "midi": 52,
      "hit": false,
      "t": 69050,
      "d": 200,
      "v": 82
    },
    {
      "midi": 55,
      "hit": false,
      "t": 69750,
      "d": 312.5,
      "v": 79
    },
    {
      "midi": 58,
      "hit": false,
      "t": 70187.5,
      "d": 300,
      "v": 75
    },
    {
      "midi": 61,
      "hit": false,
      "t": 70450,
      "d": 300,
      "v": 87
    },
    {
      "midi": 64,
      "hit": false,
      "t": 70775,
      "d": 262.5,
      "v": 54
    },
    {
      "midi": 65,
      "hit": false,
      "t": 71000,
      "d": 200,
      "v": 73
    },
    {
      "midi": 69,
      "hit": false,
      "t": 71400,
      "d": 325,
      "v": 92
    },
    {
      "midi": 68,
      "hit": false,
      "t": 71750,
      "d": 137.5,
      "v": 79
    },
    {
      "midi": 69,
      "hit": false,
      "t": 71950,
      "d": 512.5,
      "v": 66
    },
    {
      "midi": 50,
      "hit": false,
      "t": 71987.5,
      "d": 1662.5,
      "v": 22
    },
    {
      "midi": 60,
      "hit": false,
      "t": 72012.5,
      "d": 1937.5,
      "v": 52
    },
    {
      "midi": 65,
      "hit": false,
      "t": 72112.5,
      "d": 3637.5,
      "v": 92
    },
    {
      "midi": 55,
      "hit": false,
      "t": 74950,
      "d": 200,
      "v": 86
    },
    {
      "midi": 55,
      "hit": false,
      "t": 78025,
      "d": 137.5,
      "v": 81
    },
    {
      "midi": 64,
      "hit": false,
      "t": 78100,
      "d": 3087.5,
      "v": 44
    },
    {
      "midi": 62,
      "hit": false,
      "t": 78112.5,
      "d": 3062.5,
      "v": 62
    },
    {
      "midi": 52,
      "hit": false,
      "t": 81400,
      "d": 2412.5,
      "v": 89
    },
    {
      "midi": 71,
      "hit": false,
      "t": 82450,
      "d": 200,
      "v": 86
    },
    {
      "midi": 64,
      "hit": false,
      "t": 82475,
      "d": 112.5,
      "v": 89
    },
    {
      "midi": 67,
      "hit": false,
      "t": 82475,
      "d": 125,
      "v": 84
    },
    {
      "midi": 57,
      "hit": false,
      "t": 84100,
      "d": 2962.5,
      "v": 78
    },
    {
      "midi": 64,
      "hit": false,
      "t": 85500,
      "d": 125,
      "v": 84
    },
    {
      "midi": 67,
      "hit": false,
      "t": 85512.5,
      "d": 100,
      "v": 82
    },
    {
      "midi": 54,
      "hit": false,
      "t": 87150,
      "d": 2700,
      "v": 22
    },
    {
      "midi": 60,
      "hit": false,
      "t": 88387.5,
      "d": 525,
      "v": 24
    },
    {
      "midi": 66,
      "hit": false,
      "t": 88400,
      "d": 512.5,
      "v": 21
    },
    {
      "midi": 55,
      "hit": false,
      "t": 90300,
      "d": 2450,
      "v": 29
    },
    {
      "midi": 59,
      "hit": false,
      "t": 91275,
      "d": 1237.5,
      "v": 17
    },
    {
      "midi": 67,
      "hit": false,
      "t": 91500,
      "d": 975,
      "v": 70
    },
    {
      "midi": 64,
      "hit": false,
      "t": 91512.5,
      "d": 962.5,
      "v": 45
    },
    {
      "midi": 71,
      "hit": false,
      "t": 91537.5,
      "d": 875,
      "v": 62
    },
    {
      "midi": 54,
      "hit": false,
      "t": 93875,
      "d": 212.5,
      "v": 79
    },
    {
      "midi": 57,
      "hit": false,
      "t": 93887.5,
      "d": 200,
      "v": 64
    },
    {
      "midi": 60,
      "hit": false,
      "t": 94437.5,
      "d": 187.5,
      "v": 44
    },
    {
      "midi": 63,
      "hit": false,
      "t": 94450,
      "d": 162.5,
      "v": 75
    },
    {
      "midi": 66,
      "hit": false,
      "t": 94450,
      "d": 162.5,
      "v": 75
    },
    {
      "midi": 69,
      "hit": false,
      "t": 94475,
      "d": 175,
      "v": 38
    },
    {
      "midi": 57,
      "hit": false,
      "t": 108050,
      "d": 1800,
      "v": 62
    },
    {
      "midi": 54,
      "hit": false,
      "t": 108050,
      "d": 1850,
      "v": 45
    },
    {
      "midi": 66,
      "hit": false,
      "t": 108050,
      "d": 1850,
      "v": 69
    },
    {
      "midi": 63,
      "hit": false,
      "t": 108062.5,
      "d": 1800,
      "v": 75
    },
    {
      "midi": 69,
      "hit": false,
      "t": 108062.5,
      "d": 1800,
      "v": 72
    },
    {
      "midi": 60,
      "hit": false,
      "t": 108075,
      "d": 1812.5,
      "v": 35
    },
    {
      "midi": 66,
      "hit": false,
      "t": 110212.5,
      "d": 237.5,
      "v": 82
    },
    {
      "midi": 69,
      "hit": false,
      "t": 110225,
      "d": 237.5,
      "v": 84
    },
    {
      "midi": 51,
      "hit": false,
      "t": 110237.5,
      "d": 162.5,
      "v": 60
    },
    {
      "midi": 63,
      "hit": false,
      "t": 110237.5,
      "d": 162.5,
      "v": 84
    },
    {
      "midi": 60,
      "hit": false,
      "t": 110237.5,
      "d": 175,
      "v": 73
    },
    {
      "midi": 63,
      "hit": false,
      "t": 111025,
      "d": 262.5,
      "v": 82
    },
    {
      "midi": 69,
      "hit": false,
      "t": 111025,
      "d": 262.5,
      "v": 73
    },
    {
      "midi": 66,
      "hit": false,
      "t": 111025,
      "d": 275,
      "v": 79
    },
    {
      "midi": 60,
      "hit": false,
      "t": 111037.5,
      "d": 300,
      "v": 58
    },
    {
      "midi": 51,
      "hit": false,
      "t": 111050,
      "d": 362.5,
      "v": 17
    },
    {
      "midi": 57,
      "hit": false,
      "t": 111100,
      "d": 200,
      "v": 34
    },
    {
      "midi": 59,
      "hit": false,
      "t": 111725,
      "d": 350,
      "v": 66
    },
    {
      "midi": 71,
      "hit": false,
      "t": 111737.5,
      "d": 362.5,
      "v": 69
    },
    {
      "midi": 60,
      "hit": false,
      "t": 111750,
      "d": 312.5,
      "v": 58
    },
    {
      "midi": 63,
      "hit": false,
      "t": 111762.5,
      "d": 250,
      "v": 78
    },
    {
      "midi": 66,
      "hit": false,
      "t": 111762.5,
      "d": 275,
      "v": 73
    },
    {
      "midi": 60,
      "hit": false,
      "t": 112462.5,
      "d": 262.5,
      "v": 60
    },
    {
      "midi": 66,
      "hit": false,
      "t": 112462.5,
      "d": 287.5,
      "v": 76
    },
    {
      "midi": 59,
      "hit": false,
      "t": 112462.5,
      "d": 350,
      "v": 75
    },
    {
      "midi": 63,
      "hit": false,
      "t": 112475,
      "d": 212.5,
      "v": 84
    },
    {
      "midi": 71,
      "hit": false,
      "t": 112475,
      "d": 312.5,
      "v": 84
    },
    {
      "midi": 72,
      "hit": false,
      "t": 113212.5,
      "d": 587.5,
      "v": 52
    },
    {
      "midi": 74,
      "hit": false,
      "t": 113250,
      "d": 150,
      "v": 27
    },
    {
      "midi": 51,
      "hit": false,
      "t": 120137.5,
      "d": 2412.5,
      "v": 66
    },
    {
      "midi": 63,
      "hit": false,
      "t": 121400,
      "d": 150,
      "v": 67
    },
    {
      "midi": 57,
      "hit": false,
      "t": 123050,
      "d": 1600,
      "v": 54
    },
    {
      "midi": 62,
      "hit": false,
      "t": 123062.5,
      "d": 1600,
      "v": 62
    },
    {
      "midi": 47,
      "hit": false,
      "t": 126312.5,
      "d": 1162.5,
      "v": 92
    },
    {
      "midi": 50,
      "hit": false,
      "t": 126950,
      "d": 675,
      "v": 87
    },
    {
      "midi": 54,
      "hit": false,
      "t": 127625,
      "d": 525,
      "v": 94
    },
    {
      "midi": 62,
      "hit": false,
      "t": 128075,
      "d": 1900,
      "v": 86
    },
    {
      "midi": 66,
      "hit": false,
      "t": 128450,
      "d": 1562.5,
      "v": 69
    },
    {
      "midi": 74,
      "hit": false,
      "t": 129037.5,
      "d": 1012.5,
      "v": 78
    },
    {
      "midi": 50,
      "hit": false,
      "t": 132012.5,
      "d": 737.5,
      "v": 87
    },
    {
      "midi": 54,
      "hit": false,
      "t": 132700,
      "d": 1450,
      "v": 90
    },
    {
      "midi": 60,
      "hit": false,
      "t": 132737.5,
      "d": 912.5,
      "v": 84
    },
    {
      "midi": 62,
      "hit": false,
      "t": 133462.5,
      "d": 462.5,
      "v": 81
    },
    {
      "midi": 57,
      "hit": false,
      "t": 133562.5,
      "d": 350,
      "v": 45
    },
    {
      "midi": 66,
      "hit": false,
      "t": 134212.5,
      "d": 587.5,
      "v": 76
    },
    {
      "midi": 69,
      "hit": false,
      "t": 134987.5,
      "d": 137.5,
      "v": 86
    },
    {
      "midi": 71,
      "hit": false,
      "t": 134987.5,
      "d": 1212.5,
      "v": 89
    },
    {
      "midi": 59,
      "hit": false,
      "t": 135062.5,
      "d": 837.5,
      "v": 1
    },
    {
      "midi": 69,
      "hit": false,
      "t": 136525,
      "d": 337.5,
      "v": 84
    },
    {
      "midi": 47,
      "hit": false,
      "t": 138025,
      "d": 1825,
      "v": 92
    },
    {
      "midi": 66,
      "hit": false,
      "t": 139487.5,
      "d": 200,
      "v": 69
    },
    {
      "midi": 54,
      "hit": false,
      "t": 139525,
      "d": 337.5,
      "v": 12
    },
    {
      "midi": 62,
      "hit": false,
      "t": 139587.5,
      "d": 150,
      "v": 60
    },
    {
      "midi": 48,
      "hit": false,
      "t": 143900,
      "d": 1625,
      "v": 79
    },
    {
      "midi": 58,
      "hit": false,
      "t": 144725,
      "d": 975,
      "v": 81
    },
    {
      "midi": 60,
      "hit": false,
      "t": 145425,
      "d": 525,
      "v": 82
    },
    {
      "midi": 63,
      "hit": false,
      "t": 145787.5,
      "d": 412.5,
      "v": 86
    },
    {
      "midi": 66,
      "hit": false,
      "t": 146037.5,
      "d": 287.5,
      "v": 66
    },
    {
      "midi": 69,
      "hit": false,
      "t": 146262.5,
      "d": 525,
      "v": 81
    },
    {
      "midi": 66,
      "hit": false,
      "t": 146650,
      "d": 325,
      "v": 82
    },
    {
      "midi": 63,
      "hit": false,
      "t": 146725,
      "d": 325,
      "v": 79
    },
    {
      "midi": 62,
      "hit": false,
      "t": 147062.5,
      "d": 1600,
      "v": 89
    },
    {
      "midi": 60,
      "hit": false,
      "t": 147075,
      "d": 1612.5,
      "v": 54
    },
    {
      "midi": 50,
      "hit": false,
      "t": 147087.5,
      "d": 1375,
      "v": 34
    },
    {
      "midi": 43,
      "hit": false,
      "t": 150087.5,
      "d": 2187.5,
      "v": 76
    },
    {
      "midi": 59,
      "hit": false,
      "t": 151487.5,
      "d": 1537.5,
      "v": 89
    },
    {
      "midi": 65,
      "hit": false,
      "t": 152200,
      "d": 700,
      "v": 89
    },
    {
      "midi": 69,
      "hit": false,
      "t": 152200,
      "d": 1987.5,
      "v": 86
    },
    {
      "midi": 65,
      "hit": false,
      "t": 152987.5,
      "d": 1375,
      "v": 60
    },
    {
      "midi": 59,
      "hit": false,
      "t": 154462.5,
      "d": 762.5,
      "v": 90
    },
    {
      "midi": 69,
      "hit": false,
      "t": 155187.5,
      "d": 387.5,
      "v": 89
    },
    {
      "midi": 65,
      "hit": false,
      "t": 155187.5,
      "d": 462.5,
      "v": 70
    },
    {
      "midi": 69,
      "hit": false,
      "t": 155900,
      "d": 1387.5,
      "v": 87
    },
    {
      "midi": 65,
      "hit": false,
      "t": 155912.5,
      "d": 1537.5,
      "v": 86
    },
    {
      "midi": 59,
      "hit": false,
      "t": 157462.5,
      "d": 637.5,
      "v": 87
    },
    {
      "midi": 69,
      "hit": false,
      "t": 158125,
      "d": 450,
      "v": 87
    },
    {
      "midi": 65,
      "hit": false,
      "t": 158150,
      "d": 462.5,
      "v": 64
    },
    {
      "midi": 69,
      "hit": false,
      "t": 158875,
      "d": 725,
      "v": 81
    },
    {
      "midi": 65,
      "hit": false,
      "t": 158875,
      "d": 900,
      "v": 87
    },
    {
      "midi": 59,
      "hit": false,
      "t": 159662.5,
      "d": 762.5,
      "v": 87
    },
    {
      "midi": 67,
      "hit": false,
      "t": 160437.5,
      "d": 762.5,
      "v": 89
    },
    {
      "midi": 64,
      "hit": false,
      "t": 160462.5,
      "d": 812.5,
      "v": 89
    },
    {
      "midi": 59,
      "hit": false,
      "t": 161187.5,
      "d": 537.5,
      "v": 82
    },
    {
      "midi": 67,
      "hit": false,
      "t": 161962.5,
      "d": 200,
      "v": 86
    },
    {
      "midi": 64,
      "hit": false,
      "t": 161975,
      "d": 175,
      "v": 89
    },
    {
      "midi": 59,
      "hit": false,
      "t": 174900,
      "d": 1950,
      "v": 73
    },
    {
      "midi": 52,
      "hit": false,
      "t": 181325,
      "d": 937.5,
      "v": 73
    },
    {
      "midi": 57,
      "hit": false,
      "t": 181875,
      "d": 375,
      "v": 54
    },
    {
      "midi": 59,
      "hit": false,
      "t": 182350,
      "d": 387.5,
      "v": 90
    },
    {
      "midi": 55,
      "hit": false,
      "t": 182700,
      "d": 300,
      "v": 66
    },
    {
      "midi": 61,
      "hit": false,
      "t": 183112.5,
      "d": 1850,
      "v": 92
    },
    {
      "midi": 50,
      "hit": false,
      "t": 185750,
      "d": 575,
      "v": 79
    },
    {
      "midi": 53,
      "hit": false,
      "t": 186612.5,
      "d": 950,
      "v": 72
    },
    {
      "midi": 62,
      "hit": false,
      "t": 187387.5,
      "d": 362.5,
      "v": 86
    },
    {
      "midi": 65,
      "hit": false,
      "t": 187825,
      "d": 412.5,
      "v": 64
    },
    {
      "midi": 69,
      "hit": false,
      "t": 188312.5,
      "d": 262.5,
      "v": 59
    },
    {
      "midi": 54,
      "hit": false,
      "t": 188775,
      "d": 2525,
      "v": 59
    },
    {
      "midi": 55,
      "hit": false,
      "t": 192087.5,
      "d": 1575,
      "v": 72
    },
    {
      "midi": 59,
      "hit": false,
      "t": 192875,
      "d": 1550,
      "v": 76
    },
    {
      "midi": 64,
      "hit": false,
      "t": 193550,
      "d": 812.5,
      "v": 55
    },
    {
      "midi": 67,
      "hit": false,
      "t": 194262.5,
      "d": 350,
      "v": 89
    },
    {
      "midi": 45,
      "hit": false,
      "t": 194950,
      "d": 1450,
      "v": 55
    },
    {
      "midi": 57,
      "hit": false,
      "t": 194975,
      "d": 1687.5,
      "v": 50
    },
    {
      "midi": 60,
      "hit": false,
      "t": 195000,
      "d": 1787.5,
      "v": 79
    },
    {
      "midi": 64,
      "hit": false,
      "t": 195200,
      "d": 1350,
      "v": 81
    },
    {
      "midi": 69,
      "hit": false,
      "t": 195300,
      "d": 1012.5,
      "v": 84
    },
    {
      "midi": 67,
      "hit": false,
      "t": 196387.5,
      "d": 587.5,
      "v": 86
    },
    {
      "midi": 69,
      "hit": false,
      "t": 198025,
      "d": 887.5,
      "v": 67
    },
    {
      "midi": 62,
      "hit": false,
      "t": 199037.5,
      "d": 650,
      "v": 26
    },
    {
      "midi": 71,
      "hit": false,
      "t": 209062.5,
      "d": 75,
      "v": 38
    },
    {
      "midi": 65,
      "hit": false,
      "t": 212950,
      "d": 212.5,
      "v": 81
    },
    {
      "midi": 62,
      "hit": false,
      "t": 213000,
      "d": 87.5,
      "v": 70
    },
    {
      "midi": 57,
      "hit": false,
      "t": 213000,
      "d": 125,
      "v": 50
    },
    {
      "midi": 53,
      "hit": false,
      "t": 213037.5,
      "d": 100,
      "v": 48
    },
    {
      "midi": 69,
      "hit": false,
      "t": 215987.5,
      "d": 2400,
      "v": 59
    },
    {
      "midi": 55,
      "hit": false,
      "t": 217375,
      "d": 187.5,
      "v": 76
    },
    {
      "midi": 64,
      "hit": false,
      "t": 218012.5,
      "d": 462.5,
      "v": 81
    },
    {
      "midi": 59,
      "hit": false,
      "t": 218500,
      "d": 237.5,
      "v": 66
    },
    {
      "midi": 43,
      "hit": false,
      "t": 218950,
      "d": 1037.5,
      "v": 59
    },
    {
      "midi": 53,
      "hit": false,
      "t": 218962.5,
      "d": 1225,
      "v": 23
    },
    {
      "midi": 59,
      "hit": false,
      "t": 219012.5,
      "d": 862.5,
      "v": 84
    },
    {
      "midi": 63,
      "hit": false,
      "t": 219050,
      "d": 850,
      "v": 95
    },
    {
      "midi": 66,
      "hit": false,
      "t": 220412.5,
      "d": 875,
      "v": 90
    },
    {
      "midi": 63,
      "hit": false,
      "t": 220412.5,
      "d": 912.5,
      "v": 94
    },
    {
      "midi": 51,
      "hit": false,
      "t": 220425,
      "d": 312.5,
      "v": 82
    },
    {
      "midi": 59,
      "hit": false,
      "t": 220425,
      "d": 787.5,
      "v": 82
    },
    {
      "midi": 48,
      "hit": false,
      "t": 221850,
      "d": 612.5,
      "v": 92
    },
    {
      "midi": 67,
      "hit": false,
      "t": 223437.5,
      "d": 350,
      "v": 94
    },
    {
      "midi": 64,
      "hit": false,
      "t": 223437.5,
      "d": 375,
      "v": 86
    },
    {
      "midi": 55,
      "hit": false,
      "t": 223437.5,
      "d": 437.5,
      "v": 92
    },
    {
      "midi": 60,
      "hit": false,
      "t": 223462.5,
      "d": 337.5,
      "v": 90
    },
    {
      "midi": 53,
      "hit": false,
      "t": 223812.5,
      "d": 250,
      "v": 90
    },
    {
      "midi": 62,
      "hit": false,
      "t": 223825,
      "d": 562.5,
      "v": 90
    },
    {
      "midi": 65,
      "hit": false,
      "t": 223875,
      "d": 212.5,
      "v": 82
    },
    {
      "midi": 52,
      "hit": false,
      "t": 224212.5,
      "d": 400,
      "v": 75
    },
    {
      "midi": 60,
      "hit": false,
      "t": 224275,
      "d": 200,
      "v": 87
    },
    {
      "midi": 64,
      "hit": false,
      "t": 224275,
      "d": 450,
      "v": 86
    },
    {
      "midi": 60,
      "hit": false,
      "t": 224575,
      "d": 187.5,
      "v": 81
    },
    {
      "midi": 65,
      "hit": false,
      "t": 224600,
      "d": 212.5,
      "v": 90
    },
    {
      "midi": 53,
      "hit": false,
      "t": 224612.5,
      "d": 437.5,
      "v": 92
    },
    {
      "midi": 55,
      "hit": false,
      "t": 225087.5,
      "d": 450,
      "v": 97
    },
    {
      "midi": 67,
      "hit": false,
      "t": 225100,
      "d": 1612.5,
      "v": 90
    },
    {
      "midi": 61,
      "hit": false,
      "t": 225125,
      "d": 475,
      "v": 99
    },
    {
      "midi": 64,
      "hit": false,
      "t": 225137.5,
      "d": 400,
      "v": 94
    },
    {
      "midi": 58,
      "hit": false,
      "t": 225137.5,
      "d": 475,
      "v": 95
    },
    {
      "midi": 49,
      "hit": false,
      "t": 226400,
      "d": 275,
      "v": 60
    },
    {
      "midi": 52,
      "hit": false,
      "t": 226437.5,
      "d": 250,
      "v": 87
    },
    {
      "midi": 58,
      "hit": false,
      "t": 226437.5,
      "d": 287.5,
      "v": 82
    },
    {
      "midi": 55,
      "hit": false,
      "t": 226450,
      "d": 187.5,
      "v": 90
    },
    {
      "midi": 61,
      "hit": false,
      "t": 226462.5,
      "d": 325,
      "v": 95
    },
    {
      "midi": 57,
      "hit": false,
      "t": 227025,
      "d": 375,
      "v": 87
    },
    {
      "midi": 69,
      "hit": false,
      "t": 227037.5,
      "d": 362.5,
      "v": 95
    },
    {
      "midi": 55,
      "hit": false,
      "t": 227512.5,
      "d": 250,
      "v": 92
    },
    {
      "midi": 67,
      "hit": false,
      "t": 227512.5,
      "d": 325,
      "v": 94
    },
    {
      "midi": 50,
      "hit": false,
      "t": 228062.5,
      "d": 337.5,
      "v": 87
    },
    {
      "midi": 65,
      "hit": false,
      "t": 228075,
      "d": 337.5,
      "v": 94
    },
    {
      "midi": 57,
      "hit": false,
      "t": 228075,
      "d": 362.5,
      "v": 90
    },
    {
      "midi": 60,
      "hit": false,
      "t": 228087.5,
      "d": 212.5,
      "v": 90
    },
    {
      "midi": 62,
      "hit": false,
      "t": 228087.5,
      "d": 237.5,
      "v": 94
    },
    {
      "midi": 53,
      "hit": false,
      "t": 228087.5,
      "d": 287.5,
      "v": 90
    },
    {
      "midi": 60,
      "hit": false,
      "t": 229100,
      "d": 787.5,
      "v": 95
    },
    {
      "midi": 69,
      "hit": false,
      "t": 229125,
      "d": 2362.5,
      "v": 95
    },
    {
      "midi": 65,
      "hit": false,
      "t": 229125,
      "d": 2412.5,
      "v": 95
    },
    {
      "midi": 72,
      "hit": false,
      "t": 229125,
      "d": 2412.5,
      "v": 97
    },
    {
      "midi": 62,
      "hit": false,
      "t": 229137.5,
      "d": 2462.5,
      "v": 95
    },
    {
      "midi": 43,
      "hit": false,
      "t": 230912.5,
      "d": 187.5,
      "v": 92
    },
    {
      "midi": 67,
      "hit": false,
      "t": 232962.5,
      "d": 287.5,
      "v": 94
    },
    {
      "midi": 65,
      "hit": false,
      "t": 232987.5,
      "d": 225,
      "v": 90
    },
    {
      "midi": 55,
      "hit": false,
      "t": 233000,
      "d": 212.5,
      "v": 84
    },
    {
      "midi": 59,
      "hit": false,
      "t": 233000,
      "d": 212.5,
      "v": 89
    },
    {
      "midi": 62,
      "hit": false,
      "t": 233012.5,
      "d": 225,
      "v": 92
    },
    {
      "midi": 69,
      "hit": false,
      "t": 233475,
      "d": 487.5,
      "v": 87
    },
    {
      "midi": 57,
      "hit": false,
      "t": 233500,
      "d": 237.5,
      "v": 87
    },
    {
      "midi": 59,
      "hit": false,
      "t": 233525,
      "d": 362.5,
      "v": 81
    },
    {
      "midi": 65,
      "hit": false,
      "t": 233525,
      "d": 375,
      "v": 86
    },
    {
      "midi": 62,
      "hit": false,
      "t": 233525,
      "d": 400,
      "v": 84
    },
    {
      "midi": 55,
      "hit": false,
      "t": 234075,
      "d": 762.5,
      "v": 95
    },
    {
      "midi": 62,
      "hit": false,
      "t": 234087.5,
      "d": 762.5,
      "v": 95
    },
    {
      "midi": 64,
      "hit": false,
      "t": 234087.5,
      "d": 850,
      "v": 97
    },
    {
      "midi": 67,
      "hit": false,
      "t": 234100,
      "d": 800,
      "v": 78
    },
    {
      "midi": 52,
      "hit": false,
      "t": 235000,
      "d": 362.5,
      "v": 90
    },
    {
      "midi": 60,
      "hit": false,
      "t": 235025,
      "d": 437.5,
      "v": 92
    },
    {
      "midi": 48,
      "hit": false,
      "t": 235037.5,
      "d": 287.5,
      "v": 87
    },
    {
      "midi": 55,
      "hit": false,
      "t": 235062.5,
      "d": 287.5,
      "v": 72
    },
    {
      "midi": 59,
      "hit": false,
      "t": 235962.5,
      "d": 387.5,
      "v": 92
    },
    {
      "midi": 71,
      "hit": false,
      "t": 235975,
      "d": 362.5,
      "v": 87
    },
    {
      "midi": 64,
      "hit": false,
      "t": 235975,
      "d": 375,
      "v": 92
    },
    {
      "midi": 60,
      "hit": false,
      "t": 235975,
      "d": 387.5,
      "v": 86
    },
    {
      "midi": 67,
      "hit": false,
      "t": 235975,
      "d": 400,
      "v": 92
    },
    {
      "midi": 69,
      "hit": false,
      "t": 236900,
      "d": 362.5,
      "v": 99
    },
    {
      "midi": 60,
      "hit": false,
      "t": 236925,
      "d": 287.5,
      "v": 90
    },
    {
      "midi": 64,
      "hit": false,
      "t": 236925,
      "d": 325,
      "v": 95
    },
    {
      "midi": 57,
      "hit": false,
      "t": 236925,
      "d": 362.5,
      "v": 94
    },
    {
      "midi": 59,
      "hit": false,
      "t": 238012.5,
      "d": 825,
      "v": 95
    },
    {
      "midi": 60,
      "hit": false,
      "t": 238975,
      "d": 375,
      "v": 95
    },
    {
      "midi": 62,
      "hit": false,
      "t": 239850,
      "d": 4350,
      "v": 97
    },
    {
      "midi": 47,
      "hit": false,
      "t": 239862.5,
      "d": 1075,
      "v": 90
    },
    {
      "midi": 59,
      "hit": false,
      "t": 239862.5,
      "d": 1475,
      "v": 99
    },
    {
      "midi": 55,
      "hit": false,
      "t": 239875,
      "d": 750,
      "v": 94
    },
    {
      "midi": 47,
      "hit": false,
      "t": 241225,
      "d": 150,
      "v": 58
    },
    {
      "midi": 52,
      "hit": false,
      "t": 241287.5,
      "d": 575,
      "v": 92
    },
    {
      "midi": 55,
      "hit": false,
      "t": 241762.5,
      "d": 412.5,
      "v": 87
    },
    {
      "midi": 59,
      "hit": false,
      "t": 242212.5,
      "d": 425,
      "v": 89
    },
    {
      "midi": 55,
      "hit": false,
      "t": 242550,
      "d": 362.5,
      "v": 95
    },
    {
      "midi": 52,
      "hit": false,
      "t": 243037.5,
      "d": 1550,
      "v": 89
    },
    {
      "midi": 49,
      "hit": false,
      "t": 243050,
      "d": 562.5,
      "v": 79
    },
    {
      "midi": 58,
      "hit": false,
      "t": 243075,
      "d": 225,
      "v": 89
    },
    {
      "midi": 45,
      "hit": false,
      "t": 243075,
      "d": 1825,
      "v": 70
    },
    {
      "midi": 57,
      "hit": false,
      "t": 243250,
      "d": 1112.5,
      "v": 84
    },
    {
      "midi": 61,
      "hit": false,
      "t": 244425,
      "d": 312.5,
      "v": 94
    },
    {
      "midi": 57,
      "hit": false,
      "t": 244475,
      "d": 237.5,
      "v": 63
    },
    {
      "midi": 55,
      "hit": false,
      "t": 244487.5,
      "d": 387.5,
      "v": 90
    },
    {
      "midi": 49,
      "hit": false,
      "t": 244837.5,
      "d": 425,
      "v": 82
    },
    {
      "midi": 64,
      "hit": false,
      "t": 244850,
      "d": 237.5,
      "v": 87
    },
    {
      "midi": 57,
      "hit": false,
      "t": 244962.5,
      "d": 137.5,
      "v": 75
    },
    {
      "midi": 65,
      "hit": false,
      "t": 245237.5,
      "d": 200,
      "v": 82
    },
    {
      "midi": 55,
      "hit": false,
      "t": 245275,
      "d": 200,
      "v": 87
    },
    {
      "midi": 62,
      "hit": false,
      "t": 245300,
      "d": 100,
      "v": 69
    },
    {
      "midi": 65,
      "hit": false,
      "t": 245662.5,
      "d": 125,
      "v": 95
    },
    {
      "midi": 69,
      "hit": false,
      "t": 245662.5,
      "d": 162.5,
      "v": 89
    },
    {
      "midi": 51,
      "hit": false,
      "t": 245787.5,
      "d": 237.5,
      "v": 34
    },
    {
      "midi": 76,
      "hit": false,
      "t": 246100,
      "d": 575,
      "v": 92
    },
    {
      "midi": 72,
      "hit": false,
      "t": 246112.5,
      "d": 462.5,
      "v": 95
    },
    {
      "midi": 50,
      "hit": false,
      "t": 246137.5,
      "d": 887.5,
      "v": 86
    },
    {
      "midi": 60,
      "hit": false,
      "t": 246162.5,
      "d": 862.5,
      "v": 90
    },
    {
      "midi": 57,
      "hit": false,
      "t": 246175,
      "d": 175,
      "v": 76
    },
    {
      "midi": 72,
      "hit": false,
      "t": 246762.5,
      "d": 300,
      "v": 59
    },
    {
      "midi": 53,
      "hit": false,
      "t": 246812.5,
      "d": 225,
      "v": 73
    },
    {
      "midi": 65,
      "hit": false,
      "t": 246825,
      "d": 225,
      "v": 56
    },
    {
      "midi": 57,
      "hit": false,
      "t": 246850,
      "d": 200,
      "v": 87
    },
    {
      "midi": 65,
      "hit": false,
      "t": 247175,
      "d": 112.5,
      "v": 42
    },
    {
      "midi": 50,
      "hit": false,
      "t": 247487.5,
      "d": 662.5,
      "v": 89
    },
    {
      "midi": 72,
      "hit": false,
      "t": 247500,
      "d": 1850,
      "v": 100
    },
    {
      "midi": 60,
      "hit": false,
      "t": 247512.5,
      "d": 750,
      "v": 87
    },
    {
      "midi": 53,
      "hit": false,
      "t": 247525,
      "d": 512.5,
      "v": 87
    },
    {
      "midi": 69,
      "hit": false,
      "t": 247525,
      "d": 625,
      "v": 94
    },
    {
      "midi": 57,
      "hit": false,
      "t": 247525,
      "d": 650,
      "v": 94
    },
    {
      "midi": 65,
      "hit": false,
      "t": 247537.5,
      "d": 662.5,
      "v": 81
    },
    {
      "midi": 51,
      "hit": false,
      "t": 248925,
      "d": 487.5,
      "v": 86
    },
    {
      "midi": 66,
      "hit": false,
      "t": 248937.5,
      "d": 537.5,
      "v": 94
    },
    {
      "midi": 63,
      "hit": false,
      "t": 248950,
      "d": 525,
      "v": 92
    },
    {
      "midi": 54,
      "hit": false,
      "t": 248975,
      "d": 450,
      "v": 89
    },
    {
      "midi": 60,
      "hit": false,
      "t": 248975,
      "d": 487.5,
      "v": 90
    },
    {
      "midi": 57,
      "hit": false,
      "t": 248987.5,
      "d": 325,
      "v": 89
    },
    {
      "midi": 66,
      "hit": false,
      "t": 250387.5,
      "d": 562.5,
      "v": 92
    },
    {
      "midi": 62,
      "hit": false,
      "t": 250400,
      "d": 500,
      "v": 94
    },
    {
      "midi": 63,
      "hit": false,
      "t": 250400,
      "d": 600,
      "v": 89
    },
    {
      "midi": 74,
      "hit": false,
      "t": 250400,
      "d": 662.5,
      "v": 89
    },
    {
      "midi": 60,
      "hit": false,
      "t": 250825,
      "d": 325,
      "v": 84
    },
    {
      "midi": 72,
      "hit": false,
      "t": 250837.5,
      "d": 287.5,
      "v": 90
    },
    {
      "midi": 59,
      "hit": false,
      "t": 251225,
      "d": 462.5,
      "v": 86
    },
    {
      "midi": 71,
      "hit": false,
      "t": 251237.5,
      "d": 500,
      "v": 75
    },
    {
      "midi": 72,
      "hit": false,
      "t": 251562.5,
      "d": 312.5,
      "v": 86
    },
    {
      "midi": 61,
      "hit": false,
      "t": 251587.5,
      "d": 387.5,
      "v": 87
    },
    {
      "midi": 62,
      "hit": false,
      "t": 251975,
      "d": 375,
      "v": 95
    },
    {
      "midi": 74,
      "hit": false,
      "t": 251987.5,
      "d": 362.5,
      "v": 94
    },
    {
      "midi": 71,
      "hit": false,
      "t": 252000,
      "d": 350,
      "v": 90
    },
    {
      "midi": 64,
      "hit": false,
      "t": 252012.5,
      "d": 387.5,
      "v": 84
    },
    {
      "midi": 67,
      "hit": false,
      "t": 252025,
      "d": 337.5,
      "v": 92
    },
    {
      "midi": 55,
      "hit": false,
      "t": 253037.5,
      "d": 725,
      "v": 84
    },
    {
      "midi": 67,
      "hit": false,
      "t": 253037.5,
      "d": 850,
      "v": 94
    },
    {
      "midi": 59,
      "hit": false,
      "t": 253075,
      "d": 650,
      "v": 90
    },
    {
      "midi": 64,
      "hit": false,
      "t": 253075,
      "d": 737.5,
      "v": 87
    },
    {
      "midi": 62,
      "hit": false,
      "t": 253087.5,
      "d": 725,
      "v": 97
    },
    {
      "midi": 55,
      "hit": false,
      "t": 254050,
      "d": 750,
      "v": 75
    },
    {
      "midi": 67,
      "hit": false,
      "t": 254075,
      "d": 2475,
      "v": 94
    },
    {
      "midi": 64,
      "hit": false,
      "t": 254087.5,
      "d": 2512.5,
      "v": 92
    },
    {
      "midi": 62,
      "hit": false,
      "t": 254100,
      "d": 587.5,
      "v": 90
    },
    {
      "midi": 59,
      "hit": false,
      "t": 254112.5,
      "d": 650,
      "v": 87
    },
    {
      "midi": 45,
      "hit": false,
      "t": 255050,
      "d": 1312.5,
      "v": 84
    },
    {
      "midi": 60,
      "hit": false,
      "t": 255062.5,
      "d": 1425,
      "v": 47
    },
    {
      "midi": 55,
      "hit": false,
      "t": 255075,
      "d": 1487.5,
      "v": 79
    },
    {
      "midi": 57,
      "hit": false,
      "t": 255087.5,
      "d": 1412.5,
      "v": 70
    },
    {
      "midi": 52,
      "hit": false,
      "t": 256462.5,
      "d": 212.5,
      "v": 86
    },
    {
      "midi": 57,
      "hit": false,
      "t": 257250,
      "d": 200,
      "v": 87
    },
    {
      "midi": 60,
      "hit": false,
      "t": 257262.5,
      "d": 187.5,
      "v": 92
    },
    {
      "midi": 64,
      "hit": false,
      "t": 257262.5,
      "d": 312.5,
      "v": 89
    },
    {
      "midi": 60,
      "hit": false,
      "t": 258000,
      "d": 200,
      "v": 86
    },
    {
      "midi": 62,
      "hit": false,
      "t": 258000,
      "d": 350,
      "v": 92
    },
    {
      "midi": 65,
      "hit": false,
      "t": 258000,
      "d": 400,
      "v": 89
    },
    {
      "midi": 69,
      "hit": false,
      "t": 258000,
      "d": 537.5,
      "v": 94
    },
    {
      "midi": 50,
      "hit": false,
      "t": 258000,
      "d": 1312.5,
      "v": 87
    },
    {
      "midi": 57,
      "hit": false,
      "t": 258000,
      "d": 1987.5,
      "v": 76
    },
    {
      "midi": 60,
      "hit": false,
      "t": 259125,
      "d": 650,
      "v": 86
    },
    {
      "midi": 62,
      "hit": false,
      "t": 259125,
      "d": 650,
      "v": 95
    },
    {
      "midi": 53,
      "hit": false,
      "t": 259525,
      "d": 537.5,
      "v": 82
    },
    {
      "midi": 64,
      "hit": false,
      "t": 260312.5,
      "d": 625,
      "v": 92
    },
    {
      "midi": 65,
      "hit": false,
      "t": 261112.5,
      "d": 800,
      "v": 82
    },
    {
      "midi": 53,
      "hit": false,
      "t": 261137.5,
      "d": 1762.5,
      "v": 72
    },
    {
      "midi": 59,
      "hit": false,
      "t": 261150,
      "d": 675,
      "v": 89
    },
    {
      "midi": 62,
      "hit": false,
      "t": 261150,
      "d": 750,
      "v": 90
    },
    {
      "midi": 67,
      "hit": false,
      "t": 262075,
      "d": 575,
      "v": 87
    },
    {
      "midi": 64,
      "hit": false,
      "t": 262075,
      "d": 587.5,
      "v": 89
    },
    {
      "midi": 59,
      "hit": false,
      "t": 262087.5,
      "d": 512.5,
      "v": 84
    },
    {
      "midi": 69,
      "hit": false,
      "t": 263050,
      "d": 487.5,
      "v": 94
    },
    {
      "midi": 51,
      "hit": false,
      "t": 263925,
      "d": 462.5,
      "v": 73
    },
    {
      "midi": 54,
      "hit": false,
      "t": 263937.5,
      "d": 387.5,
      "v": 94
    },
    {
      "midi": 57,
      "hit": false,
      "t": 263962.5,
      "d": 525,
      "v": 87
    },
    {
      "midi": 63,
      "hit": false,
      "t": 264037.5,
      "d": 275,
      "v": 95
    },
    {
      "midi": 66,
      "hit": false,
      "t": 264050,
      "d": 262.5,
      "v": 95
    },
    {
      "midi": 69,
      "hit": false,
      "t": 264050,
      "d": 300,
      "v": 97
    },
    {
      "midi": 60,
      "hit": false,
      "t": 264062.5,
      "d": 187.5,
      "v": 92
    },
    {
      "midi": 72,
      "hit": false,
      "t": 264612.5,
      "d": 187.5,
      "v": 95
    },
    {
      "midi": 74,
      "hit": false,
      "t": 264612.5,
      "d": 212.5,
      "v": 95
    },
    {
      "midi": 51,
      "hit": false,
      "t": 265450,
      "d": 1050,
      "v": 55
    },
    {
      "midi": 54,
      "hit": false,
      "t": 265500,
      "d": 1212.5,
      "v": 87
    },
    {
      "midi": 60,
      "hit": false,
      "t": 265500,
      "d": 1237.5,
      "v": 84
    },
    {
      "midi": 57,
      "hit": false,
      "t": 265512.5,
      "d": 975,
      "v": 89
    },
    {
      "midi": 71,
      "hit": false,
      "t": 265562.5,
      "d": 2862.5,
      "v": 94
    },
    {
      "midi": 66,
      "hit": false,
      "t": 265575,
      "d": 2212.5,
      "v": 99
    },
    {
      "midi": 63,
      "hit": false,
      "t": 265587.5,
      "d": 1712.5,
      "v": 94
    },
    {
      "midi": 51,
      "hit": false,
      "t": 266912.5,
      "d": 275,
      "v": 95
    },
    {
      "midi": 63,
      "hit": false,
      "t": 267712.5,
      "d": 562.5,
      "v": 106
    },
    {
      "midi": 51,
      "hit": false,
      "t": 268400,
      "d": 275,
      "v": 69
    },
    {
      "midi": 54,
      "hit": false,
      "t": 268425,
      "d": 312.5,
      "v": 82
    },
    {
      "midi": 60,
      "hit": false,
      "t": 268437.5,
      "d": 212.5,
      "v": 78
    },
    {
      "midi": 63,
      "hit": false,
      "t": 268500,
      "d": 212.5,
      "v": 94
    },
    {
      "midi": 66,
      "hit": false,
      "t": 268500,
      "d": 250,
      "v": 95
    },
    {
      "midi": 72,
      "hit": false,
      "t": 268512.5,
      "d": 337.5,
      "v": 94
    },
    {
      "midi": 74,
      "hit": false,
      "t": 269925,
      "d": 2062.5,
      "v": 87
    },
    {
      "midi": 47,
      "hit": false,
      "t": 270725,
      "d": 3437.5,
      "v": 95
    },
    {
      "midi": 54,
      "hit": false,
      "t": 271375,
      "d": 2925,
      "v": 89
    },
    {
      "midi": 62,
      "hit": false,
      "t": 271750,
      "d": 350,
      "v": 84
    },
    {
      "midi": 66,
      "hit": false,
      "t": 272012.5,
      "d": 300,
      "v": 87
    },
    {
      "midi": 69,
      "hit": false,
      "t": 272237.5,
      "d": 225,
      "v": 79
    },
    {
      "midi": 74,
      "hit": false,
      "t": 272400,
      "d": 375,
      "v": 81
    },
    {
      "midi": 69,
      "hit": false,
      "t": 272625,
      "d": 325,
      "v": 87
    },
    {
      "midi": 66,
      "hit": false,
      "t": 272775,
      "d": 362.5,
      "v": 90
    },
    {
      "midi": 62,
      "hit": false,
      "t": 273075,
      "d": 1175,
      "v": 99
    },
    {
      "midi": 48,
      "hit": false,
      "t": 275875,
      "d": 337.5,
      "v": 86
    },
    {
      "midi": 51,
      "hit": false,
      "t": 276350,
      "d": 537.5,
      "v": 38
    },
    {
      "midi": 55,
      "hit": false,
      "t": 276837.5,
      "d": 225,
      "v": 99
    },
    {
      "midi": 60,
      "hit": false,
      "t": 277437.5,
      "d": 237.5,
      "v": 90
    },
    {
      "midi": 63,
      "hit": false,
      "t": 277850,
      "d": 312.5,
      "v": 78
    },
    {
      "midi": 67,
      "hit": false,
      "t": 278262.5,
      "d": 475,
      "v": 87
    },
    {
      "midi": 72,
      "hit": false,
      "t": 278562.5,
      "d": 550,
      "v": 66
    },
    {
      "midi": 60,
      "hit": false,
      "t": 279087.5,
      "d": 1925,
      "v": 54
    },
    {
      "midi": 62,
      "hit": false,
      "t": 279125,
      "d": 1900,
      "v": 73
    },
    {
      "midi": 50,
      "hit": false,
      "t": 279150,
      "d": 1725,
      "v": 6
    },
    {
      "midi": 47,
      "hit": false,
      "t": 282250,
      "d": 1325,
      "v": 75
    },
    {
      "midi": 54,
      "hit": false,
      "t": 283337.5,
      "d": 362.5,
      "v": 86
    },
    {
      "midi": 62,
      "hit": false,
      "t": 283337.5,
      "d": 562.5,
      "v": 69
    },
    {
      "midi": 66,
      "hit": false,
      "t": 284050,
      "d": 475,
      "v": 82
    },
    {
      "midi": 74,
      "hit": false,
      "t": 284837.5,
      "d": 262.5,
      "v": 89
    },
    {
      "midi": 74,
      "hit": false,
      "t": 285700,
      "d": 512.5,
      "v": 82
    },
    {
      "midi": 86,
      "hit": false,
      "t": 286512.5,
      "d": 837.5,
      "v": 92
    },
    {
      "midi": 74,
      "hit": false,
      "t": 287287.5,
      "d": 362.5,
      "v": 76
    },
    {
      "midi": 50,
      "hit": false,
      "t": 287987.5,
      "d": 3962.5,
      "v": 89
    },
    {
      "midi": 74,
      "hit": false,
      "t": 288037.5,
      "d": 200,
      "v": 90
    },
    {
      "midi": 60,
      "hit": false,
      "t": 289525,
      "d": 2887.5,
      "v": 70
    },
    {
      "midi": 65,
      "hit": false,
      "t": 289575,
      "d": 2612.5,
      "v": 84
    },
    {
      "midi": 47,
      "hit": false,
      "t": 293875,
      "d": 4812.5,
      "v": 92
    },
    {
      "midi": 54,
      "hit": false,
      "t": 294450,
      "d": 4412.5,
      "v": 90
    },
    {
      "midi": 62,
      "hit": false,
      "t": 294700,
      "d": 187.5,
      "v": 86
    },
    {
      "midi": 74,
      "hit": false,
      "t": 294850,
      "d": 212.5,
      "v": 84
    },
    {
      "midi": 74,
      "hit": false,
      "t": 295300,
      "d": 237.5,
      "v": 99
    },
    {
      "midi": 86,
      "hit": false,
      "t": 295687.5,
      "d": 137.5,
      "v": 97
    },
    {
      "midi": 48,
      "hit": false,
      "t": 299900,
      "d": 1712.5,
      "v": 75
    },
    {
      "midi": 58,
      "hit": false,
      "t": 299950,
      "d": 1862.5,
      "v": 73
    },
    {
      "midi": 60,
      "hit": false,
      "t": 300750,
      "d": 662.5,
      "v": 89
    },
    {
      "midi": 63,
      "hit": false,
      "t": 301287.5,
      "d": 262.5,
      "v": 84
    },
    {
      "midi": 67,
      "hit": false,
      "t": 301500,
      "d": 275,
      "v": 92
    },
    {
      "midi": 72,
      "hit": false,
      "t": 301825,
      "d": 500,
      "v": 84
    },
    {
      "midi": 71,
      "hit": false,
      "t": 302200,
      "d": 175,
      "v": 38
    },
    {
      "midi": 67,
      "hit": false,
      "t": 302487.5,
      "d": 262.5,
      "v": 86
    },
    {
      "midi": 68,
      "hit": false,
      "t": 302637.5,
      "d": 337.5,
      "v": 81
    },
    {
      "midi": 69,
      "hit": false,
      "t": 302837.5,
      "d": 3187.5,
      "v": 86
    },
    {
      "midi": 60,
      "hit": false,
      "t": 302987.5,
      "d": 2075,
      "v": 35
    },
    {
      "midi": 54,
      "hit": false,
      "t": 303025,
      "d": 1912.5,
      "v": 62
    },
    {
      "midi": 50,
      "hit": false,
      "t": 303025,
      "d": 2000,
      "v": 10
    },
    {
      "midi": 67,
      "hit": false,
      "t": 306000,
      "d": 562.5,
      "v": 86
    },
    {
      "midi": 50,
      "hit": false,
      "t": 306500,
      "d": 437.5,
      "v": 87
    },
    {
      "midi": 60,
      "hit": false,
      "t": 306875,
      "d": 175,
      "v": 86
    },
    {
      "midi": 65,
      "hit": false,
      "t": 307187.5,
      "d": 462.5,
      "v": 89
    },
    {
      "midi": 69,
      "hit": false,
      "t": 307587.5,
      "d": 312.5,
      "v": 90
    },
    {
      "midi": 74,
      "hit": false,
      "t": 307950,
      "d": 225,
      "v": 86
    },
    {
      "midi": 74,
      "hit": false,
      "t": 308325,
      "d": 375,
      "v": 84
    },
    {
      "midi": 77,
      "hit": false,
      "t": 308637.5,
      "d": 187.5,
      "v": 95
    },
    {
      "midi": 86,
      "hit": false,
      "t": 308987.5,
      "d": 200,
      "v": 99
    },
    {
      "midi": 65,
      "hit": false,
      "t": 312012.5,
      "d": 3125,
      "v": 82
    },
    {
      "midi": 74,
      "hit": false,
      "t": 313487.5,
      "d": 775,
      "v": 87
    },
    {
      "midi": 72,
      "hit": false,
      "t": 314275,
      "d": 687.5,
      "v": 82
    },
    {
      "midi": 71,
      "hit": false,
      "t": 315062.5,
      "d": 1437.5,
      "v": 89
    },
    {
      "midi": 69,
      "hit": false,
      "t": 316512.5,
      "d": 387.5,
      "v": 89
    },
    {
      "midi": 48,
      "hit": false,
      "t": 317962.5,
      "d": 2000,
      "v": 82
    },
    {
      "midi": 55,
      "hit": false,
      "t": 317975,
      "d": 2150,
      "v": 10
    },
    {
      "midi": 49,
      "hit": false,
      "t": 321000,
      "d": 2137.5,
      "v": 76
    },
    {
      "midi": 58,
      "hit": false,
      "t": 321025,
      "d": 2287.5,
      "v": 75
    },
    {
      "midi": 61,
      "hit": false,
      "t": 321600,
      "d": 337.5,
      "v": 87
    },
    {
      "midi": 64,
      "hit": false,
      "t": 322025,
      "d": 325,
      "v": 92
    },
    {
      "midi": 67,
      "hit": false,
      "t": 322550,
      "d": 250,
      "v": 92
    },
    {
      "midi": 71,
      "hit": false,
      "t": 322987.5,
      "d": 262.5,
      "v": 94
    },
    {
      "midi": 70,
      "hit": false,
      "t": 323362.5,
      "d": 300,
      "v": 89
    },
    {
      "midi": 69,
      "hit": false,
      "t": 323687.5,
      "d": 362.5,
      "v": 94
    },
    {
      "midi": 67,
      "hit": false,
      "t": 323937.5,
      "d": 187.5,
      "v": 86
    },
    {
      "midi": 60,
      "hit": false,
      "t": 324137.5,
      "d": 4812.5,
      "v": 37
    },
    {
      "midi": 65,
      "hit": false,
      "t": 324225,
      "d": 4550,
      "v": 11
    },
    {
      "midi": 54,
      "hit": false,
      "t": 329900,
      "d": 2650,
      "v": 94
    },
    {
      "midi": 69,
      "hit": false,
      "t": 330712.5,
      "d": 1750,
      "v": 79
    },
    {
      "midi": 60,
      "hit": false,
      "t": 330712.5,
      "d": 1812.5,
      "v": 76
    },
    {
      "midi": 66,
      "hit": false,
      "t": 330725,
      "d": 1712.5,
      "v": 84
    },
    {
      "midi": 63,
      "hit": false,
      "t": 330725,
      "d": 1775,
      "v": 81
    },
    {
      "midi": 53,
      "hit": false,
      "t": 332900,
      "d": 2450,
      "v": 82
    },
    {
      "midi": 65,
      "hit": false,
      "t": 333000,
      "d": 2400,
      "v": 81
    },
    {
      "midi": 60,
      "hit": false,
      "t": 333012.5,
      "d": 1212.5,
      "v": 63
    },
    {
      "midi": 62,
      "hit": false,
      "t": 333050,
      "d": 725,
      "v": 75
    },
    {
      "midi": 63,
      "hit": false,
      "t": 334512.5,
      "d": 912.5,
      "v": 62
    },
    {
      "midi": 60,
      "hit": false,
      "t": 334512.5,
      "d": 962.5,
      "v": 79
    },
    {
      "midi": 52,
      "hit": false,
      "t": 336037.5,
      "d": 1662.5,
      "v": 51
    },
    {
      "midi": 59,
      "hit": false,
      "t": 336075,
      "d": 1600,
      "v": 75
    },
    {
      "midi": 55,
      "hit": false,
      "t": 336087.5,
      "d": 1562.5,
      "v": 78
    },
    {
      "midi": 64,
      "hit": false,
      "t": 336087.5,
      "d": 1612.5,
      "v": 84
    },
    {
      "midi": 62,
      "hit": false,
      "t": 336100,
      "d": 1562.5,
      "v": 89
    },
    {
      "midi": 55,
      "hit": false,
      "t": 338862.5,
      "d": 2437.5,
      "v": 67
    },
    {
      "midi": 69,
      "hit": false,
      "t": 338950,
      "d": 2550,
      "v": 64
    },
    {
      "midi": 60,
      "hit": false,
      "t": 338950,
      "d": 2587.5,
      "v": 45
    },
    {
      "midi": 64,
      "hit": false,
      "t": 338962.5,
      "d": 2512.5,
      "v": 67
    },
    {
      "midi": 54,
      "hit": false,
      "t": 342037.5,
      "d": 2325,
      "v": 81
    },
    {
      "midi": 66,
      "hit": false,
      "t": 342712.5,
      "d": 1425,
      "v": 76
    },
    {
      "midi": 60,
      "hit": false,
      "t": 342712.5,
      "d": 1537.5,
      "v": 62
    },
    {
      "midi": 69,
      "hit": false,
      "t": 342725,
      "d": 1650,
      "v": 84
    },
    {
      "midi": 63,
      "hit": false,
      "t": 342737.5,
      "d": 1525,
      "v": 82
    },
    {
      "midi": 56,
      "hit": false,
      "t": 344987.5,
      "d": 2637.5,
      "v": 81
    },
    {
      "midi": 53,
      "hit": false,
      "t": 345025,
      "d": 2350,
      "v": 52
    },
    {
      "midi": 60,
      "hit": false,
      "t": 345062.5,
      "d": 2562.5,
      "v": 81
    },
    {
      "midi": 63,
      "hit": false,
      "t": 346500,
      "d": 987.5,
      "v": 81
    },
    {
      "midi": 72,
      "hit": false,
      "t": 346512.5,
      "d": 937.5,
      "v": 34
    },
    {
      "midi": 55,
      "hit": false,
      "t": 348087.5,
      "d": 2187.5,
      "v": 89
    },
    {
      "midi": 62,
      "hit": false,
      "t": 348850,
      "d": 2987.5,
      "v": 87
    },
    {
      "midi": 67,
      "hit": false,
      "t": 349575,
      "d": 1125,
      "v": 89
    },
    {
      "midi": 69,
      "hit": false,
      "t": 350100,
      "d": 525,
      "v": 79
    },
    {
      "midi": 71,
      "hit": false,
      "t": 350950,
      "d": 1200,
      "v": 82
    },
    {
      "midi": 45,
      "hit": false,
      "t": 351025,
      "d": 1525,
      "v": 75
    },
    {
      "midi": 57,
      "hit": false,
      "t": 351037.5,
      "d": 1912.5,
      "v": 59
    },
    {
      "midi": 72,
      "hit": false,
      "t": 352150,
      "d": 825,
      "v": 92
    },
    {
      "midi": 74,
      "hit": false,
      "t": 353962.5,
      "d": 500,
      "v": 87
    },
    {
      "midi": 59,
      "hit": false,
      "t": 354050,
      "d": 400,
      "v": 76
    },
    {
      "midi": 76,
      "hit": false,
      "t": 355250,
      "d": 700,
      "v": 89
    },
    {
      "midi": 60,
      "hit": false,
      "t": 355300,
      "d": 187.5,
      "v": 69
    },
    {
      "midi": 76,
      "hit": false,
      "t": 356100,
      "d": 5862.5,
      "v": 95
    },
    {
      "midi": 45,
      "hit": false,
      "t": 356887.5,
      "d": 375,
      "v": 3
    },
    {
      "midi": 55,
      "hit": false,
      "t": 356900,
      "d": 412.5,
      "v": 62
    },
    {
      "midi": 72,
      "hit": false,
      "t": 357562.5,
      "d": 287.5,
      "v": 79
    },
    {
      "midi": 72,
      "hit": false,
      "t": 357987.5,
      "d": 637.5,
      "v": 76
    },
    {
      "midi": 57,
      "hit": false,
      "t": 358387.5,
      "d": 312.5,
      "v": 75
    },
    {
      "midi": 69,
      "hit": false,
      "t": 358437.5,
      "d": 237.5,
      "v": 87
    },
    {
      "midi": 72,
      "hit": false,
      "t": 358787.5,
      "d": 187.5,
      "v": 78
    },
    {
      "midi": 69,
      "hit": false,
      "t": 358800,
      "d": 625,
      "v": 81
    },
    {
      "midi": 64,
      "hit": false,
      "t": 359250,
      "d": 187.5,
      "v": 56
    },
    {
      "midi": 69,
      "hit": false,
      "t": 359562.5,
      "d": 2450,
      "v": 84
    },
    {
      "midi": 72,
      "hit": false,
      "t": 359575,
      "d": 250,
      "v": 79
    },
    {
      "midi": 65,
      "hit": false,
      "t": 359950,
      "d": 2125,
      "v": 55
    },
    {
      "midi": 60,
      "hit": false,
      "t": 360075,
      "d": 2025,
      "v": 72
    },
    {
      "midi": 50,
      "hit": false,
      "t": 360162.5,
      "d": 1862.5,
      "v": 68
    },
    {
      "midi": 72,
      "hit": false,
      "t": 360925,
      "d": 975,
      "v": 66
    },
    {
      "midi": 54,
      "hit": false,
      "t": 365900,
      "d": 400,
      "v": 82
    },
    {
      "midi": 66,
      "hit": false,
      "t": 365925,
      "d": 287.5,
      "v": 86
    },
    {
      "midi": 57,
      "hit": false,
      "t": 365925,
      "d": 512.5,
      "v": 62
    },
    {
      "midi": 63,
      "hit": false,
      "t": 365937.5,
      "d": 200,
      "v": 87
    },
    {
      "midi": 60,
      "hit": false,
      "t": 365937.5,
      "d": 300,
      "v": 72
    },
    {
      "midi": 69,
      "hit": false,
      "t": 365937.5,
      "d": 362.5,
      "v": 78
    },
    {
      "midi": 74,
      "hit": false,
      "t": 367400,
      "d": 600,
      "v": 84
    },
    {
      "midi": 54,
      "hit": false,
      "t": 367412.5,
      "d": 3137.5,
      "v": 66
    },
    {
      "midi": 66,
      "hit": false,
      "t": 367425,
      "d": 550,
      "v": 79
    },
    {
      "midi": 63,
      "hit": false,
      "t": 367450,
      "d": 537.5,
      "v": 76
    },
    {
      "midi": 60,
      "hit": false,
      "t": 367450,
      "d": 625,
      "v": 77
    },
    {
      "midi": 69,
      "hit": false,
      "t": 367462.5,
      "d": 525,
      "v": 89
    },
    {
      "midi": 57,
      "hit": false,
      "t": 368187.5,
      "d": 650,
      "v": 82
    },
    {
      "midi": 63,
      "hit": false,
      "t": 368200,
      "d": 487.5,
      "v": 76
    },
    {
      "midi": 71,
      "hit": false,
      "t": 368212.5,
      "d": 437.5,
      "v": 82
    },
    {
      "midi": 66,
      "hit": false,
      "t": 368225,
      "d": 400,
      "v": 81
    },
    {
      "midi": 72,
      "hit": false,
      "t": 368950,
      "d": 537.5,
      "v": 90
    },
    {
      "midi": 60,
      "hit": false,
      "t": 368987.5,
      "d": 587.5,
      "v": 59
    },
    {
      "midi": 66,
      "hit": false,
      "t": 369000,
      "d": 500,
      "v": 92
    },
    {
      "midi": 63,
      "hit": false,
      "t": 369000,
      "d": 525,
      "v": 87
    },
    {
      "midi": 69,
      "hit": false,
      "t": 369025,
      "d": 462.5,
      "v": 86
    },
    {
      "midi": 74,
      "hit": false,
      "t": 369762.5,
      "d": 875,
      "v": 73
    },
    {
      "midi": 66,
      "hit": false,
      "t": 369800,
      "d": 537.5,
      "v": 71
    },
    {
      "midi": 63,
      "hit": false,
      "t": 369812.5,
      "d": 587.5,
      "v": 70
    },
    {
      "midi": 60,
      "hit": false,
      "t": 369825,
      "d": 687.5,
      "v": 72
    },
    {
      "midi": 72,
      "hit": false,
      "t": 370450,
      "d": 537.5,
      "v": 82
    },
    {
      "midi": 71,
      "hit": false,
      "t": 370887.5,
      "d": 437.5,
      "v": 87
    },
    {
      "midi": 70,
      "hit": false,
      "t": 371262.5,
      "d": 412.5,
      "v": 95
    },
    {
      "midi": 71,
      "hit": false,
      "t": 371562.5,
      "d": 512.5,
      "v": 70
    },
    {
      "midi": 67,
      "hit": false,
      "t": 372012.5,
      "d": 2187.5,
      "v": 69
    },
    {
      "midi": 59,
      "hit": false,
      "t": 372050,
      "d": 2000,
      "v": 66
    },
    {
      "midi": 55,
      "hit": false,
      "t": 372050,
      "d": 2025,
      "v": 78
    },
    {
      "midi": 52,
      "hit": false,
      "t": 372062.5,
      "d": 2050,
      "v": 76
    },
    {
      "midi": 62,
      "hit": false,
      "t": 373075,
      "d": 787.5,
      "v": 84
    },
    {
      "midi": 64,
      "hit": false,
      "t": 373612.5,
      "d": 1225,
      "v": 87
    },
    {
      "midi": 43,
      "hit": false,
      "t": 375012.5,
      "d": 562.5,
      "v": 70
    },
    {
      "midi": 66,
      "hit": false,
      "t": 375475,
      "d": 787.5,
      "v": 75
    },
    {
      "midi": 67,
      "hit": false,
      "t": 376175,
      "d": 1012.5,
      "v": 87
    },
    {
      "midi": 67,
      "hit": false,
      "t": 378050,
      "d": 1087.5,
      "v": 73
    },
    {
      "midi": 48,
      "hit": false,
      "t": 378087.5,
      "d": 4937.5,
      "v": 76
    },
    {
      "midi": 59,
      "hit": false,
      "t": 378625,
      "d": 1962.5,
      "v": 86
    },
    {
      "midi": 64,
      "hit": false,
      "t": 379325,
      "d": 2025,
      "v": 75
    },
    {
      "midi": 55,
      "hit": false,
      "t": 380575,
      "d": 2800,
      "v": 66
    },
    {
      "midi": 60,
      "hit": false,
      "t": 381250,
      "d": 1825,
      "v": 79
    },
    {
      "midi": 64,
      "hit": false,
      "t": 382487.5,
      "d": 750,
      "v": 78
    },
    {
      "midi": 59,
      "hit": false,
      "t": 382500,
      "d": 675,
      "v": 77
    },
    {
      "midi": 71,
      "hit": false,
      "t": 382550,
      "d": 1150,
      "v": 82
    },
    {
      "midi": 60,
      "hit": false,
      "t": 383212.5,
      "d": 550,
      "v": 86
    },
    {
      "midi": 69,
      "hit": false,
      "t": 383762.5,
      "d": 1012.5,
      "v": 81
    },
    {
      "midi": 57,
      "hit": false,
      "t": 383775,
      "d": 850,
      "v": 76
    },
    {
      "midi": 48,
      "hit": false,
      "t": 383775,
      "d": 7037.5,
      "v": 82
    },
    {
      "midi": 55,
      "hit": false,
      "t": 384625,
      "d": 6162.5,
      "v": 94
    },
    {
      "midi": 79,
      "hit": false,
      "t": 385275,
      "d": 962.5,
      "v": 92
    },
    {
      "midi": 59,
      "hit": false,
      "t": 385312.5,
      "d": 725,
      "v": 82
    },
    {
      "midi": 76,
      "hit": false,
      "t": 385675,
      "d": 387.5,
      "v": 84
    },
    {
      "midi": 71,
      "hit": false,
      "t": 385975,
      "d": 275,
      "v": 84
    },
    {
      "midi": 74,
      "hit": false,
      "t": 386237.5,
      "d": 262.5,
      "v": 87
    },
    {
      "midi": 69,
      "hit": false,
      "t": 386487.5,
      "d": 237.5,
      "v": 90
    },
    {
      "midi": 72,
      "hit": false,
      "t": 386712.5,
      "d": 250,
      "v": 73
    },
    {
      "midi": 67,
      "hit": false,
      "t": 386962.5,
      "d": 200,
      "v": 87
    },
    {
      "midi": 71,
      "hit": false,
      "t": 387150,
      "d": 187.5,
      "v": 89
    },
    {
      "midi": 64,
      "hit": false,
      "t": 387400,
      "d": 175,
      "v": 73
    },
    {
      "midi": 65,
      "hit": false,
      "t": 387437.5,
      "d": 75,
      "v": 45
    },
    {
      "midi": 67,
      "hit": false,
      "t": 387587.5,
      "d": 212.5,
      "v": 78
    },
    {
      "midi": 62,
      "hit": false,
      "t": 387850,
      "d": 287.5,
      "v": 86
    },
    {
      "midi": 64,
      "hit": false,
      "t": 388087.5,
      "d": 2700,
      "v": 97
    },
    {
      "midi": 57,
      "hit": false,
      "t": 388175,
      "d": 2637.5,
      "v": 58
    }
  ]
}