{
  "jsonPath": "Unknown/Unknown/Ricochet/daddys-money.json",
  "path": "Unknown\\Unknown\\Ricochet\\Daddys Money.mid",
  "name": "Daddys Money",
  "difficulty": "Advanced",
  "bpm": 137.99987580011177,
  "notes": [
    {
      "midi": 50,
      "hit": false,
      "t": 5000.004500000001,
      "d": 1612.320291666667,
      "v": 93
    },
    {
      "midi": 45,
      "hit": false,
      "t": 5000.004500000001,
      "d": 1698.37109375,
      "v": 85
    },
    {
      "midi": 38,
      "hit": false,
      "t": 5000.004500000001,
      "d": 1707.4290729166669,
      "v": 89
    },
    {
      "midi": 50,
      "hit": false,
      "t": 6739.136500000001,
      "d": 92.84428645833304,
      "v": 102
    },
    {
      "midi": 38,
      "hit": false,
      "t": 7173.919500000001,
      "d": 1134.511890625,
      "v": 93
    },
    {
      "midi": 50,
      "hit": false,
      "t": 7391.311000000001,
      "d": 688.4064166666667,
      "v": 102
    },
    {
      "midi": 45,
      "hit": false,
      "t": 8043.485500000001,
      "d": 233.24296354166654,
      "v": 102
    },
    {
      "midi": 50,
      "hit": false,
      "t": 8260.877,
      "d": 88.31529687500006,
      "v": 85
    },
    {
      "midi": 50,
      "hit": false,
      "t": 8478.2685,
      "d": 538.9497604166663,
      "v": 102
    },
    {
      "midi": 45,
      "hit": false,
      "t": 8478.2685,
      "d": 697.4643958333327,
      "v": 93
    },
    {
      "midi": 38,
      "hit": false,
      "t": 8478.2685,
      "d": 726.9028281249994,
      "v": 102
    },
    {
      "midi": 50,
      "hit": false,
      "t": 9130.443,
      "d": 101.90226562499993,
      "v": 107
    },
    {
      "midi": 38,
      "hit": false,
      "t": 9565.225999999999,
      "d": 301.1778072916659,
      "v": 68
    },
    {
      "midi": 45,
      "hit": false,
      "t": 9565.225999999999,
      "d": 305.7067968749998,
      "v": 72
    },
    {
      "midi": 50,
      "hit": false,
      "t": 9782.617499999998,
      "d": 124.54721354166759,
      "v": 107
    },
    {
      "midi": 50,
      "hit": false,
      "t": 10217.4005,
      "d": 688.4064166666667,
      "v": 113
    },
    {
      "midi": 45,
      "hit": false,
      "t": 10217.4005,
      "d": 806.1601458333334,
      "v": 89
    },
    {
      "midi": 38,
      "hit": false,
      "t": 10217.4005,
      "d": 831.0695885416662,
      "v": 93
    },
    {
      "midi": 50,
      "hit": false,
      "t": 11086.966499999999,
      "d": 81.52181249999921,
      "v": 107
    },
    {
      "midi": 45,
      "hit": false,
      "t": 11521.749499999998,
      "d": 274.00386979166615,
      "v": 98
    },
    {
      "midi": 38,
      "hit": false,
      "t": 11521.749499999998,
      "d": 280.797354166667,
      "v": 102
    },
    {
      "midi": 50,
      "hit": false,
      "t": 11739.140999999998,
      "d": 151.72115104166733,
      "v": 102
    },
    {
      "midi": 45,
      "hit": false,
      "t": 11956.5325,
      "d": 76.99282291666714,
      "v": 93
    },
    {
      "midi": 38,
      "hit": false,
      "t": 11956.5325,
      "d": 81.52181250000103,
      "v": 98
    },
    {
      "midi": 57,
      "hit": false,
      "t": 11956.5325,
      "d": 108.69575000000077,
      "v": 80
    },
    {
      "midi": 62,
      "hit": false,
      "t": 11956.5325,
      "d": 120.01822395833369,
      "v": 98
    },
    {
      "midi": 50,
      "hit": false,
      "t": 11956.5325,
      "d": 126.81170833333454,
      "v": 93
    },
    {
      "midi": 57,
      "hit": false,
      "t": 12391.3155,
      "d": 99.63777083333298,
      "v": 93
    },
    {
      "midi": 62,
      "hit": false,
      "t": 12391.3155,
      "d": 101.90226562499993,
      "v": 102
    },
    {
      "midi": 50,
      "hit": false,
      "t": 12391.3155,
      "d": 117.75372916666674,
      "v": 98
    },
    {
      "midi": 50,
      "hit": false,
      "t": 12826.0985,
      "d": 346.4677031249994,
      "v": 107
    },
    {
      "midi": 57,
      "hit": false,
      "t": 12826.0985,
      "d": 353.26118750000023,
      "v": 93
    },
    {
      "midi": 62,
      "hit": false,
      "t": 13043.49,
      "d": 418.93153645833445,
      "v": 107
    },
    {
      "midi": 50,
      "hit": false,
      "t": 13478.273000000001,
      "d": 237.77195312500044,
      "v": 107
    },
    {
      "midi": 57,
      "hit": false,
      "t": 13478.273000000001,
      "d": 240.03644791666738,
      "v": 102
    },
    {
      "midi": 62,
      "hit": false,
      "t": 13695.6645,
      "d": 92.84428645833395,
      "v": 113
    },
    {
      "midi": 38,
      "hit": false,
      "t": 13913.056000000002,
      "d": 142.66317187499953,
      "v": 107
    },
    {
      "midi": 50,
      "hit": false,
      "t": 13913.056000000002,
      "d": 147.19216145833343,
      "v": 107
    },
    {
      "midi": 57,
      "hit": false,
      "t": 14347.839000000002,
      "d": 61.14135937500032,
      "v": 45
    },
    {
      "midi": 50,
      "hit": false,
      "t": 14347.839000000002,
      "d": 92.84428645833395,
      "v": 46
    },
    {
      "midi": 50,
      "hit": false,
      "t": 14782.622000000003,
      "d": 221.92048958333544,
      "v": 93
    },
    {
      "midi": 57,
      "hit": false,
      "t": 14782.622000000003,
      "d": 221.92048958333544,
      "v": 76
    },
    {
      "midi": 69,
      "hit": false,
      "t": 15000.013500000005,
      "d": 163.04362500000025,
      "v": 93
    },
    {
      "midi": 62,
      "hit": false,
      "t": 15000.013500000005,
      "d": 176.63059375000012,
      "v": 89
    },
    {
      "midi": 50,
      "hit": false,
      "t": 15217.405000000004,
      "d": 67.93484374999935,
      "v": 89
    },
    {
      "midi": 57,
      "hit": false,
      "t": 15217.405000000004,
      "d": 72.46383333333324,
      "v": 85
    },
    {
      "midi": 62,
      "hit": false,
      "t": 15434.796500000004,
      "d": 353.26118750000023,
      "v": 93
    },
    {
      "midi": 50,
      "hit": false,
      "t": 15434.796500000004,
      "d": 452.8989583333332,
      "v": 107
    },
    {
      "midi": 57,
      "hit": false,
      "t": 15434.796500000004,
      "d": 471.014916666667,
      "v": 98
    },
    {
      "midi": 69,
      "hit": false,
      "t": 15434.796500000004,
      "d": 480.07289583333295,
      "v": 107
    },
    {
      "midi": 62,
      "hit": false,
      "t": 16086.971000000003,
      "d": 79.25731770833409,
      "v": 85
    },
    {
      "midi": 57,
      "hit": false,
      "t": 16086.971000000003,
      "d": 122.28271875000064,
      "v": 93
    },
    {
      "midi": 69,
      "hit": false,
      "t": 16086.971000000003,
      "d": 122.28271875000064,
      "v": 98
    },
    {
      "midi": 50,
      "hit": false,
      "t": 16086.971000000003,
      "d": 129.07620312500148,
      "v": 93
    },
    {
      "midi": 62,
      "hit": false,
      "t": 16304.362500000005,
      "d": 108.69575000000077,
      "v": 72
    },
    {
      "midi": 50,
      "hit": false,
      "t": 16521.754000000004,
      "d": 230.97846875000323,
      "v": 102
    },
    {
      "midi": 57,
      "hit": false,
      "t": 16521.754000000004,
      "d": 237.77195312500407,
      "v": 89
    },
    {
      "midi": 62,
      "hit": false,
      "t": 16739.145500000006,
      "d": 72.46383333333506,
      "v": 107
    },
    {
      "midi": 69,
      "hit": false,
      "t": 16739.145500000006,
      "d": 101.90226562500175,
      "v": 107
    },
    {
      "midi": 50,
      "hit": false,
      "t": 16956.537000000008,
      "d": 22.644947916665842,
      "v": 34
    },
    {
      "midi": 57,
      "hit": false,
      "t": 16956.537000000008,
      "d": 49.81888541666558,
      "v": 55
    },
    {
      "midi": 50,
      "hit": false,
      "t": 17173.928500000005,
      "d": 344.20320833333244,
      "v": 113
    },
    {
      "midi": 57,
      "hit": false,
      "t": 17173.928500000005,
      "d": 348.73219791666634,
      "v": 98
    },
    {
      "midi": 69,
      "hit": false,
      "t": 17391.320000000007,
      "d": 79.25731770833227,
      "v": 80
    },
    {
      "midi": 62,
      "hit": false,
      "t": 17391.320000000007,
      "d": 101.90226562499811,
      "v": 80
    },
    {
      "midi": 74,
      "hit": false,
      "t": 17391.320000000007,
      "d": 104.16676041666506,
      "v": 89
    },
    {
      "midi": 62,
      "hit": false,
      "t": 17826.103000000006,
      "d": 83.78630729166616,
      "v": 85
    },
    {
      "midi": 50,
      "hit": false,
      "t": 17826.103000000006,
      "d": 99.63777083333116,
      "v": 98
    },
    {
      "midi": 57,
      "hit": false,
      "t": 17826.103000000006,
      "d": 120.01822395833005,
      "v": 93
    },
    {
      "midi": 69,
      "hit": false,
      "t": 18260.886000000002,
      "d": 83.78630729166616,
      "v": 85
    },
    {
      "midi": 62,
      "hit": false,
      "t": 18260.886000000002,
      "d": 92.84428645833395,
      "v": 72
    },
    {
      "midi": 50,
      "hit": false,
      "t": 18260.886000000002,
      "d": 489.13087500000256,
      "v": 98
    },
    {
      "midi": 57,
      "hit": false,
      "t": 18260.886000000002,
      "d": 489.13087500000256,
      "v": 80
    },
    {
      "midi": 69,
      "hit": false,
      "t": 18478.277500000004,
      "d": 160.77913020833148,
      "v": 98
    },
    {
      "midi": 62,
      "hit": false,
      "t": 18478.277500000004,
      "d": 199.27554166666596,
      "v": 76
    },
    {
      "midi": 62,
      "hit": false,
      "t": 18913.060500000003,
      "d": 276.2683645833349,
      "v": 93
    },
    {
      "midi": 69,
      "hit": false,
      "t": 18913.060500000003,
      "d": 337.40972395833523,
      "v": 93
    },
    {
      "midi": 50,
      "hit": false,
      "t": 18913.060500000003,
      "d": 459.69244270833224,
      "v": 113
    },
    {
      "midi": 57,
      "hit": false,
      "t": 18913.060500000003,
      "d": 473.2794114583339,
      "v": 89
    },
    {
      "midi": 62,
      "hit": false,
      "t": 19347.843500000003,
      "d": 181.159583333334,
      "v": 72
    },
    {
      "midi": 50,
      "hit": false,
      "t": 19565.235000000004,
      "d": 81.52181249999921,
      "v": 98
    },
    {
      "midi": 57,
      "hit": false,
      "t": 19565.235000000004,
      "d": 95.1087812500009,
      "v": 85
    },
    {
      "midi": 50,
      "hit": false,
      "t": 19782.626500000006,
      "d": 92.84428645833395,
      "v": 113
    },
    {
      "midi": 57,
      "hit": false,
      "t": 19782.626500000006,
      "d": 99.6377708333348,
      "v": 98
    },
    {
      "midi": 62,
      "hit": false,
      "t": 20000.018000000007,
      "d": 135.8696874999987,
      "v": 98
    },
    {
      "midi": 50,
      "hit": false,
      "t": 20217.409500000005,
      "d": 326.0872500000005,
      "v": 113
    },
    {
      "midi": 57,
      "hit": false,
      "t": 20217.409500000005,
      "d": 326.0872500000005,
      "v": 93
    },
    {
      "midi": 45,
      "hit": false,
      "t": 20869.584000000006,
      "d": 1494.5665625000001,
      "v": 85
    },
    {
      "midi": 57,
      "hit": false,
      "t": 20869.584000000006,
      "d": 1639.4942291666666,
      "v": 89
    },
    {
      "midi": 52,
      "hit": false,
      "t": 20869.584000000006,
      "d": 1641.7587239583336,
      "v": 60
    },
    {
      "midi": 52,
      "hit": false,
      "t": 31304.376000000007,
      "d": 400.81557812499886,
      "v": 76
    },
    {
      "midi": 40,
      "hit": false,
      "t": 31304.376000000007,
      "d": 552.5367291666662,
      "v": 76
    },
    {
      "midi": 52,
      "hit": false,
      "t": 31956.55050000001,
      "d": 90.579791666667,
      "v": 68
    },
    {
      "midi": 52,
      "hit": false,
      "t": 32173.94200000001,
      "d": 99.6377708333348,
      "v": 85
    },
    {
      "midi": 45,
      "hit": false,
      "t": 33043.50800000001,
      "d": 90.57979166666337,
      "v": 68
    },
    {
      "midi": 64,
      "hit": false,
      "t": 33043.50800000001,
      "d": 90.57979166666337,
      "v": 72
    },
    {
      "midi": 57,
      "hit": false,
      "t": 33043.50800000001,
      "d": 99.63777083333116,
      "v": 56
    },
    {
      "midi": 52,
      "hit": false,
      "t": 33043.50800000001,
      "d": 104.16676041666506,
      "v": 76
    },
    {
      "midi": 52,
      "hit": false,
      "t": 33260.899500000014,
      "d": 117.75372916666674,
      "v": 98
    },
    {
      "midi": 64,
      "hit": false,
      "t": 33260.899500000014,
      "d": 117.75372916666674,
      "v": 107
    },
    {
      "midi": 45,
      "hit": false,
      "t": 33260.899500000014,
      "d": 120.01822395833005,
      "v": 98
    },
    {
      "midi": 57,
      "hit": false,
      "t": 33260.899500000014,
      "d": 129.07620312499785,
      "v": 93
    },
    {
      "midi": 52,
      "hit": false,
      "t": 33478.29100000001,
      "d": 90.57979166666337,
      "v": 107
    },
    {
      "midi": 45,
      "hit": false,
      "t": 33478.29100000001,
      "d": 117.75372916666674,
      "v": 113
    },
    {
      "midi": 64,
      "hit": false,
      "t": 33478.29100000001,
      "d": 117.75372916666674,
      "v": 107
    },
    {
      "midi": 69,
      "hit": false,
      "t": 33478.29100000001,
      "d": 117.75372916666674,
      "v": 102
    },
    {
      "midi": 57,
      "hit": false,
      "t": 33478.29100000001,
      "d": 126.81170833333454,
      "v": 93
    },
    {
      "midi": 52,
      "hit": false,
      "t": 33695.68250000001,
      "d": 90.57979166666337,
      "v": 107
    },
    {
      "midi": 64,
      "hit": false,
      "t": 33695.68250000001,
      "d": 90.57979166666337,
      "v": 113
    },
    {
      "midi": 57,
      "hit": false,
      "t": 33695.68250000001,
      "d": 99.63777083333116,
      "v": 93
    },
    {
      "midi": 69,
      "hit": false,
      "t": 33695.68250000001,
      "d": 106.43125520832837,
      "v": 113
    },
    {
      "midi": 45,
      "hit": false,
      "t": 33695.68250000001,
      "d": 113.22473958332557,
      "v": 113
    },
    {
      "midi": 57,
      "hit": false,
      "t": 33913.074,
      "d": 106.43125520832837,
      "v": 107
    },
    {
      "midi": 64,
      "hit": false,
      "t": 33913.074,
      "d": 120.01822395833005,
      "v": 107
    },
    {
      "midi": 69,
      "hit": false,
      "t": 33913.074,
      "d": 144.92766666666284,
      "v": 107
    },
    {
      "midi": 45,
      "hit": false,
      "t": 33913.074,
      "d": 235.5074583333335,
      "v": 113
    },
    {
      "midi": 52,
      "hit": false,
      "t": 33913.074,
      "d": 235.5074583333335,
      "v": 119
    },
    {
      "midi": 57,
      "hit": false,
      "t": 34130.4655,
      "d": 117.75372916666674,
      "v": 93
    },
    {
      "midi": 52,
      "hit": false,
      "t": 34347.856999999996,
      "d": 194.7465520833357,
      "v": 119
    },
    {
      "midi": 45,
      "hit": false,
      "t": 34347.856999999996,
      "d": 199.2755416666696,
      "v": 127
    },
    {
      "midi": 57,
      "hit": false,
      "t": 34565.2485,
      "d": 88.31529687500006,
      "v": 107
    },
    {
      "midi": 64,
      "hit": false,
      "t": 34565.2485,
      "d": 90.57979166666337,
      "v": 113
    },
    {
      "midi": 69,
      "hit": false,
      "t": 34565.2485,
      "d": 108.69574999999895,
      "v": 107
    },
    {
      "midi": 62,
      "hit": false,
      "t": 34782.64,
      "d": 312.50028125000244,
      "v": 107
    },
    {
      "midi": 50,
      "hit": false,
      "t": 34782.64,
      "d": 407.6090624999997,
      "v": 107
    },
    {
      "midi": 57,
      "hit": false,
      "t": 34782.64,
      "d": 409.873557291663,
      "v": 102
    },
    {
      "midi": 66,
      "hit": false,
      "t": 35217.422999999995,
      "d": 405.3445677083364,
      "v": 98
    },
    {
      "midi": 62,
      "hit": false,
      "t": 35217.422999999995,
      "d": 418.9315364583381,
      "v": 102
    },
    {
      "midi": 50,
      "hit": false,
      "t": 35652.206,
      "d": 126.81170833333454,
      "v": 93
    },
    {
      "midi": 57,
      "hit": false,
      "t": 35652.206,
      "d": 133.60519270833174,
      "v": 89
    },
    {
      "midi": 62,
      "hit": false,
      "t": 35869.597499999996,
      "d": 151.72115104166733,
      "v": 98
    },
    {
      "midi": 50,
      "hit": false,
      "t": 35869.597499999996,
      "d": 221.9204895833318,
      "v": 107
    },
    {
      "midi": 57,
      "hit": false,
      "t": 35869.597499999996,
      "d": 226.4494791666657,
      "v": 93
    },
    {
      "midi": 50,
      "hit": false,
      "t": 36304.38049999999,
      "d": 332.88073437499406,
      "v": 102
    },
    {
      "midi": 57,
      "hit": false,
      "t": 36304.38049999999,
      "d": 344.20320833332516,
      "v": 93
    },
    {
      "midi": 62,
      "hit": false,
      "t": 36304.38049999999,
      "d": 344.20320833332516,
      "v": 98
    },
    {
      "midi": 57,
      "hit": false,
      "t": 36739.16349999998,
      "d": 178.89508854166343,
      "v": 85
    },
    {
      "midi": 50,
      "hit": false,
      "t": 36739.16349999998,
      "d": 249.0944270833279,
      "v": 93
    },
    {
      "midi": 69,
      "hit": false,
      "t": 36956.55499999998,
      "d": 172.10160416666622,
      "v": 98
    },
    {
      "midi": 62,
      "hit": false,
      "t": 36956.55499999998,
      "d": 203.80453124999622,
      "v": 76
    },
    {
      "midi": 57,
      "hit": false,
      "t": 37173.94649999998,
      "d": 197.011046874999,
      "v": 89
    },
    {
      "midi": 62,
      "hit": false,
      "t": 37391.337999999974,
      "d": 120.01822395833733,
      "v": 93
    },
    {
      "midi": 62,
      "hit": false,
      "t": 37608.72949999998,
      "d": 70.19933854166447,
      "v": 56
    },
    {
      "midi": 57,
      "hit": false,
      "t": 37608.72949999998,
      "d": 305.70679687499796,
      "v": 98
    },
    {
      "midi": 50,
      "hit": false,
      "t": 37608.72949999998,
      "d": 307.9712916666613,
      "v": 102
    },
    {
      "midi": 62,
      "hit": false,
      "t": 37826.12099999998,
      "d": 81.52181250000285,
      "v": 62
    },
    {
      "midi": 57,
      "hit": false,
      "t": 38043.512499999975,
      "d": 63.40585416666727,
      "v": 72
    },
    {
      "midi": 66,
      "hit": false,
      "t": 38043.512499999975,
      "d": 72.46383333333506,
      "v": 89
    },
    {
      "midi": 50,
      "hit": false,
      "t": 38043.512499999975,
      "d": 74.72832812499837,
      "v": 89
    },
    {
      "midi": 62,
      "hit": false,
      "t": 38043.512499999975,
      "d": 86.05080208332947,
      "v": 98
    },
    {
      "midi": 50,
      "hit": false,
      "t": 38260.90399999997,
      "d": 344.20320833333244,
      "v": 107
    },
    {
      "midi": 62,
      "hit": false,
      "t": 38260.90399999997,
      "d": 344.20320833333244,
      "v": 93
    },
    {
      "midi": 57,
      "hit": false,
      "t": 38260.90399999997,
      "d": 362.319166666668,
      "v": 93
    },
    {
      "midi": 66,
      "hit": false,
      "t": 38695.686999999976,
      "d": 72.46383333333506,
      "v": 89
    },
    {
      "midi": 62,
      "hit": false,
      "t": 38695.686999999976,
      "d": 101.90226562500175,
      "v": 107
    },
    {
      "midi": 50,
      "hit": false,
      "t": 38695.686999999976,
      "d": 135.86968750000233,
      "v": 102
    },
    {
      "midi": 57,
      "hit": false,
      "t": 38695.686999999976,
      "d": 199.2755416666696,
      "v": 89
    },
    {
      "midi": 62,
      "hit": false,
      "t": 38913.07849999998,
      "d": 72.46383333333506,
      "v": 62
    },
    {
      "midi": 66,
      "hit": false,
      "t": 39130.46999999999,
      "d": 81.52181250000285,
      "v": 80
    },
    {
      "midi": 62,
      "hit": false,
      "t": 39130.46999999999,
      "d": 97.37327604166785,
      "v": 93
    },
    {
      "midi": 57,
      "hit": false,
      "t": 39130.46999999999,
      "d": 258.1524062499957,
      "v": 89
    },
    {
      "midi": 50,
      "hit": false,
      "t": 39130.46999999999,
      "d": 380.43512499999633,
      "v": 93
    },
    {
      "midi": 62,
      "hit": false,
      "t": 39347.861499999985,
      "d": 163.04362499999843,
      "v": 93
    },
    {
      "midi": 66,
      "hit": false,
      "t": 39347.861499999985,
      "d": 228.713973958329,
      "v": 93
    },
    {
      "midi": 62,
      "hit": false,
      "t": 39782.64449999998,
      "d": 95.10878124999726,
      "v": 113
    },
    {
      "midi": 52,
      "hit": false,
      "t": 40000.03599999998,
      "d": 332.88073437500134,
      "v": 98
    },
    {
      "midi": 45,
      "hit": false,
      "t": 40000.03599999998,
      "d": 380.4351250000036,
      "v": 113
    },
    {
      "midi": 64,
      "hit": false,
      "t": 40217.427499999976,
      "d": 142.6631718750068,
      "v": 102
    },
    {
      "midi": 61,
      "hit": false,
      "t": 40217.427499999976,
      "d": 144.92766666667012,
      "v": 93
    },
    {
      "midi": 57,
      "hit": false,
      "t": 40217.427499999976,
      "d": 163.0436250000057,
      "v": 93
    },
    {
      "midi": 64,
      "hit": false,
      "t": 40652.21049999998,
      "d": 298.91331250000076,
      "v": 107
    },
    {
      "midi": 59,
      "hit": false,
      "t": 40652.21049999998,
      "d": 312.50028125000244,
      "v": 102
    },
    {
      "midi": 52,
      "hit": false,
      "t": 40652.21049999998,
      "d": 527.627286458337,
      "v": 93
    },
    {
      "midi": 45,
      "hit": false,
      "t": 40652.21049999998,
      "d": 740.4897968750083,
      "v": 102
    },
    {
      "midi": 57,
      "hit": false,
      "t": 40760.90624999998,
      "d": 165.30811979166901,
      "v": 9
    },
    {
      "midi": 57,
      "hit": false,
      "t": 41086.99349999998,
      "d": 120.01822395833733,
      "v": 98
    },
    {
      "midi": 59,
      "hit": false,
      "t": 41086.99349999998,
      "d": 153.9856458333379,
      "v": 113
    },
    {
      "midi": 64,
      "hit": false,
      "t": 41086.99349999998,
      "d": 174.3660989583368,
      "v": 102
    },
    {
      "midi": 57,
      "hit": false,
      "t": 41304.38499999999,
      "d": 106.43125520833564,
      "v": 55
    },
    {
      "midi": 61,
      "hit": false,
      "t": 41304.38499999999,
      "d": 153.9856458333379,
      "v": 72
    },
    {
      "midi": 52,
      "hit": false,
      "t": 41521.77649999999,
      "d": 113.22473958333285,
      "v": 102
    },
    {
      "midi": 64,
      "hit": false,
      "t": 41739.16799999999,
      "d": 328.35174479166744,
      "v": 89
    },
    {
      "midi": 61,
      "hit": false,
      "t": 41739.16799999999,
      "d": 341.93871354166913,
      "v": 89
    },
    {
      "midi": 57,
      "hit": false,
      "t": 41739.16799999999,
      "d": 353.26118750000023,
      "v": 80
    },
    {
      "midi": 45,
      "hit": false,
      "t": 41739.16799999999,
      "d": 749.5477760416688,
      "v": 93
    },
    {
      "midi": 61,
      "hit": false,
      "t": 42173.950999999994,
      "d": 183.42407812499732,
      "v": 93
    },
    {
      "midi": 64,
      "hit": false,
      "t": 42173.950999999994,
      "d": 206.0690260416668,
      "v": 93
    },
    {
      "midi": 57,
      "hit": false,
      "t": 42173.950999999994,
      "d": 230.9784687499996,
      "v": 89
    },
    {
      "midi": 52,
      "hit": false,
      "t": 42391.34249999999,
      "d": 129.07620312499785,
      "v": 85
    },
    {
      "midi": 59,
      "hit": false,
      "t": 42608.73399999999,
      "d": 115.48923437500343,
      "v": 89
    },
    {
      "midi": 64,
      "hit": false,
      "t": 42608.73399999999,
      "d": 124.54721354167123,
      "v": 85
    },
    {
      "midi": 62,
      "hit": false,
      "t": 42608.73399999999,
      "d": 135.86968750000233,
      "v": 89
    },
    {
      "midi": 61,
      "hit": false,
      "t": 42826.125499999995,
      "d": 172.10160416666622,
      "v": 89
    },
    {
      "midi": 64,
      "hit": false,
      "t": 42826.125499999995,
      "d": 176.63059375000012,
      "v": 76
    },
    {
      "midi": 57,
      "hit": false,
      "t": 42826.125499999995,
      "d": 201.5400364583329,
      "v": 80
    },
    {
      "midi": 45,
      "hit": false,
      "t": 43043.51699999999,
      "d": 72.46383333333506,
      "v": 80
    },
    {
      "midi": 52,
      "hit": false,
      "t": 43043.51699999999,
      "d": 104.16676041666506,
      "v": 85
    },
    {
      "midi": 52,
      "hit": false,
      "t": 43260.90849999999,
      "d": 319.29376562499965,
      "v": 72
    },
    {
      "midi": 61,
      "hit": false,
      "t": 43260.90849999999,
      "d": 495.92435937499977,
      "v": 93
    },
    {
      "midi": 64,
      "hit": false,
      "t": 43260.90849999999,
      "d": 498.1888541666631,
      "v": 102
    },
    {
      "midi": 57,
      "hit": false,
      "t": 43260.90849999999,
      "d": 516.3048124999987,
      "v": 93
    },
    {
      "midi": 45,
      "hit": false,
      "t": 43260.90849999999,
      "d": 912.5914010416673,
      "v": 102
    },
    {
      "midi": 52,
      "hit": false,
      "t": 43695.69149999999,
      "d": 264.9458906249929,
      "v": 89
    },
    {
      "midi": 64,
      "hit": false,
      "t": 43913.082999999984,
      "d": 208.3335208333374,
      "v": 102
    },
    {
      "midi": 59,
      "hit": false,
      "t": 43913.082999999984,
      "d": 230.97846875000687,
      "v": 113
    },
    {
      "midi": 52,
      "hit": false,
      "t": 44130.47449999999,
      "d": 99.63777083333844,
      "v": 93
    },
    {
      "midi": 64,
      "hit": false,
      "t": 44347.865999999995,
      "d": 135.86968750000233,
      "v": 89
    },
    {
      "midi": 59,
      "hit": false,
      "t": 44347.865999999995,
      "d": 172.10160416666622,
      "v": 102
    },
    {
      "midi": 52,
      "hit": false,
      "t": 44347.865999999995,
      "d": 344.20320833333244,
      "v": 80
    },
    {
      "midi": 57,
      "hit": false,
      "t": 44347.865999999995,
      "d": 400.8155781249952,
      "v": 93
    },
    {
      "midi": 45,
      "hit": false,
      "t": 44347.865999999995,
      "d": 443.8409791666636,
      "v": 93
    },
    {
      "midi": 64,
      "hit": false,
      "t": 44565.25749999999,
      "d": 153.98564583333064,
      "v": 85
    },
    {
      "midi": 61,
      "hit": false,
      "t": 44565.25749999999,
      "d": 169.83710937499563,
      "v": 89
    },
    {
      "midi": 52,
      "hit": false,
      "t": 44782.64899999999,
      "d": 101.90226562500175,
      "v": 98
    },
    {
      "midi": 57,
      "hit": false,
      "t": 45000.040499999996,
      "d": 398.5510833333392,
      "v": 89
    },
    {
      "midi": 52,
      "hit": false,
      "t": 45000.040499999996,
      "d": 552.5367291666698,
      "v": 93
    },
    {
      "midi": 45,
      "hit": false,
      "t": 45000.040499999996,
      "d": 554.8012239583331,
      "v": 98
    },
    {
      "midi": 57,
      "hit": false,
      "t": 45434.8235,
      "d": 129.07620312499785,
      "v": 98
    },
    {
      "midi": 61,
      "hit": false,
      "t": 45652.215,
      "d": 181.159583333334,
      "v": 93
    },
    {
      "midi": 64,
      "hit": false,
      "t": 45652.215,
      "d": 185.6885729166679,
      "v": 98
    },
    {
      "midi": 57,
      "hit": false,
      "t": 45652.215,
      "d": 228.713973958329,
      "v": 76
    },
    {
      "midi": 52,
      "hit": false,
      "t": 45869.606499999994,
      "d": 298.91331250000076,
      "v": 89
    },
    {
      "midi": 61,
      "hit": false,
      "t": 46086.99799999999,
      "d": 92.84428645833395,
      "v": 93
    },
    {
      "midi": 64,
      "hit": false,
      "t": 46086.99799999999,
      "d": 95.10878124999726,
      "v": 98
    },
    {
      "midi": 57,
      "hit": false,
      "t": 46086.99799999999,
      "d": 101.90226562499447,
      "v": 89
    },
    {
      "midi": 57,
      "hit": false,
      "t": 46304.38949999999,
      "d": 244.56543750000128,
      "v": 102
    },
    {
      "midi": 61,
      "hit": false,
      "t": 46304.38949999999,
      "d": 380.4351250000036,
      "v": 107
    },
    {
      "midi": 64,
      "hit": false,
      "t": 46304.38949999999,
      "d": 464.22143229166977,
      "v": 107
    },
    {
      "midi": 57,
      "hit": false,
      "t": 46739.17249999999,
      "d": 108.69574999999895,
      "v": 98
    },
    {
      "midi": 50,
      "hit": false,
      "t": 46956.56399999999,
      "d": 90.57979166666337,
      "v": 107
    },
    {
      "midi": 62,
      "hit": false,
      "t": 46956.56399999999,
      "d": 90.57979166666337,
      "v": 107
    },
    {
      "midi": 50,
      "hit": false,
      "t": 47173.95549999999,
      "d": 197.011046874999,
      "v": 107
    },
    {
      "midi": 62,
      "hit": false,
      "t": 47173.95549999999,
      "d": 242.3009427083307,
      "v": 113
    },
    {
      "midi": 60,
      "hit": false,
      "t": 47391.34699999999,
      "d": 90.57979166666337,
      "v": 102
    },
    {
      "midi": 48,
      "hit": false,
      "t": 47391.34699999999,
      "d": 97.37327604166057,
      "v": 89
    },
    {
      "midi": 60,
      "hit": false,
      "t": 47608.73849999998,
      "d": 95.10878124999726,
      "v": 107
    },
    {
      "midi": 48,
      "hit": false,
      "t": 47608.73849999998,
      "d": 117.75372916666674,
      "v": 102
    },
    {
      "midi": 59,
      "hit": false,
      "t": 47826.12999999998,
      "d": 99.63777083333116,
      "v": 113
    },
    {
      "midi": 59,
      "hit": false,
      "t": 48043.52149999998,
      "d": 224.1849843749951,
      "v": 107
    },
    {
      "midi": 57,
      "hit": false,
      "t": 48260.91299999998,
      "d": 90.57979166666337,
      "v": 107
    },
    {
      "midi": 57,
      "hit": false,
      "t": 48478.30449999998,
      "d": 151.72115104166733,
      "v": 107
    },
    {
      "midi": 50,
      "hit": false,
      "t": 48695.695999999974,
      "d": 389.4931041666641,
      "v": 98
    },
    {
      "midi": 50,
      "hit": false,
      "t": 49130.47899999997,
      "d": 153.98564583333064,
      "v": 107
    },
    {
      "midi": 66,
      "hit": false,
      "t": 49130.47899999997,
      "d": 169.83710937499563,
      "v": 98
    },
    {
      "midi": 62,
      "hit": false,
      "t": 49130.47899999997,
      "d": 172.10160416665894,
      "v": 107
    },
    {
      "midi": 57,
      "hit": false,
      "t": 49130.47899999997,
      "d": 217.39149999999063,
      "v": 89
    },
    {
      "midi": 62,
      "hit": false,
      "t": 49565.26199999996,
      "d": 101.90226562500175,
      "v": 89
    },
    {
      "midi": 50,
      "hit": false,
      "t": 49565.26199999996,
      "d": 337.40972395833523,
      "v": 98
    },
    {
      "midi": 57,
      "hit": false,
      "t": 49565.26199999996,
      "d": 344.20320833333244,
      "v": 93
    },
    {
      "midi": 66,
      "hit": false,
      "t": 49782.653499999964,
      "d": 135.86968749999505,
      "v": 113
    },
    {
      "midi": 62,
      "hit": false,
      "t": 49782.653499999964,
      "d": 199.27554166666232,
      "v": 102
    },
    {
      "midi": 62,
      "hit": false,
      "t": 50217.43649999996,
      "d": 448.3699687500048,
      "v": 102
    },
    {
      "midi": 66,
      "hit": false,
      "t": 50217.43649999996,
      "d": 450.6344635416681,
      "v": 102
    },
    {
      "midi": 57,
      "hit": false,
      "t": 50217.43649999996,
      "d": 697.4643958333327,
      "v": 93
    },
    {
      "midi": 50,
      "hit": false,
      "t": 50217.43649999996,
      "d": 720.1093437500022,
      "v": 102
    },
    {
      "midi": 66,
      "hit": false,
      "t": 50869.61099999996,
      "d": 158.51463541666453,
      "v": 102
    },
    {
      "midi": 62,
      "hit": false,
      "t": 50869.61099999996,
      "d": 190.21756249999453,
      "v": 98
    },
    {
      "midi": 50,
      "hit": false,
      "t": 51087.00249999996,
      "d": 115.48923437500343,
      "v": 102
    },
    {
      "midi": 57,
      "hit": false,
      "t": 51087.00249999996,
      "d": 140.39867708333622,
      "v": 93
    },
    {
      "midi": 66,
      "hit": false,
      "t": 51304.393999999964,
      "d": 99.63777083333116,
      "v": 93
    },
    {
      "midi": 60,
      "hit": false,
      "t": 51304.393999999964,
      "d": 115.48923437499616,
      "v": 89
    },
    {
      "midi": 60,
      "hit": false,
      "t": 51521.78549999996,
      "d": 240.03644791666738,
      "v": 93
    },
    {
      "midi": 66,
      "hit": false,
      "t": 51521.78549999996,
      "d": 251.3589218749985,
      "v": 102
    },
    {
      "midi": 57,
      "hit": false,
      "t": 51739.17699999996,
      "d": 108.69574999999895,
      "v": 85
    },
    {
      "midi": 50,
      "hit": false,
      "t": 51739.17699999996,
      "d": 110.96024479166226,
      "v": 98
    },
    {
      "midi": 62,
      "hit": false,
      "t": 51956.56849999995,
      "d": 484.6018854166614,
      "v": 102
    },
    {
      "midi": 66,
      "hit": false,
      "t": 51956.56849999995,
      "d": 495.9243593749925,
      "v": 98
    },
    {
      "midi": 57,
      "hit": false,
      "t": 51956.56849999995,
      "d": 733.6963124999966,
      "v": 85
    },
    {
      "midi": 50,
      "hit": false,
      "t": 51956.56849999995,
      "d": 763.1347447916633,
      "v": 98
    },
    {
      "midi": 66,
      "hit": false,
      "t": 52608.742999999944,
      "d": 244.56543750000856,
      "v": 107
    },
    {
      "midi": 62,
      "hit": false,
      "t": 52608.742999999944,
      "d": 262.68139583334414,
      "v": 107
    },
    {
      "midi": 50,
      "hit": false,
      "t": 52826.13449999995,
      "d": 135.86968750000233,
      "v": 98
    },
    {
      "midi": 57,
      "hit": false,
      "t": 52826.13449999995,
      "d": 165.30811979166901,
      "v": 93
    },
    {
      "midi": 66,
      "hit": false,
      "t": 53043.525999999954,
      "d": 144.92766666667012,
      "v": 85
    },
    {
      "midi": 62,
      "hit": false,
      "t": 53043.525999999954,
      "d": 167.5726145833396,
      "v": 93
    },
    {
      "midi": 57,
      "hit": false,
      "t": 53260.91749999996,
      "d": 124.54721354166395,
      "v": 93
    },
    {
      "midi": 50,
      "hit": false,
      "t": 53260.91749999996,
      "d": 181.15958333332674,
      "v": 113
    },
    {
      "midi": 62,
      "hit": false,
      "t": 53478.30899999995,
      "d": 104.16676041666506,
      "v": 102
    },
    {
      "midi": 66,
      "hit": false,
      "t": 53478.30899999995,
      "d": 165.30811979166174,
      "v": 107
    },
    {
      "midi": 62,
      "hit": false,
      "t": 53695.70049999995,
      "d": 95.10878124999726,
      "v": 107
    },
    {
      "midi": 43,
      "hit": false,
      "t": 53913.091999999946,
      "d": 1227.356177083333,
      "v": 113
    },
    {
      "midi": 62,
      "hit": false,
      "t": 54130.483499999944,
      "d": 153.98564583333064,
      "v": 98
    },
    {
      "midi": 59,
      "hit": false,
      "t": 54130.483499999944,
      "d": 158.51463541666453,
      "v": 102
    },
    {
      "midi": 55,
      "hit": false,
      "t": 54130.483499999944,
      "d": 169.83710937499563,
      "v": 98
    },
    {
      "midi": 59,
      "hit": false,
      "t": 54565.26649999994,
      "d": 477.80840104167146,
      "v": 113
    },
    {
      "midi": 55,
      "hit": false,
      "t": 54565.26649999994,
      "d": 504.98233854167484,
      "v": 107
    },
    {
      "midi": 62,
      "hit": false,
      "t": 54565.26649999994,
      "d": 507.24683333333815,
      "v": 113
    },
    {
      "midi": 50,
      "hit": false,
      "t": 55000.04949999994,
      "d": 172.10160416666622,
      "v": 113
    },
    {
      "midi": 57,
      "hit": false,
      "t": 55217.44099999994,
      "d": 210.5980156250007,
      "v": 107
    },
    {
      "midi": 62,
      "hit": false,
      "t": 55217.44099999994,
      "d": 296.64881770833017,
      "v": 113
    },
    {
      "midi": 55,
      "hit": false,
      "t": 55434.83249999994,
      "d": 92.84428645833395,
      "v": 107
    },
    {
      "midi": 52,
      "hit": false,
      "t": 55652.22399999994,
      "d": 197.011046874999,
      "v": 119
    },
    {
      "midi": 45,
      "hit": false,
      "t": 55652.22399999994,
      "d": 201.5400364583329,
      "v": 107
    },
    {
      "midi": 52,
      "hit": false,
      "t": 57391.355999999934,
      "d": 210.5980156250007,
      "v": 107
    },
    {
      "midi": 45,
      "hit": false,
      "t": 57391.355999999934,
      "d": 219.6559947916685,
      "v": 113
    },
    {
      "midi": 57,
      "hit": false,
      "t": 57391.355999999934,
      "d": 226.4494791666657,
      "v": 113
    },
    {
      "midi": 52,
      "hit": false,
      "t": 59130.48799999993,
      "d": 939.7653385416634,
      "v": 119
    },
    {
      "midi": 45,
      "hit": false,
      "t": 59130.48799999993,
      "d": 944.2943281249973,
      "v": 119
    },
    {
      "midi": 57,
      "hit": false,
      "t": 60217.44549999993,
      "d": 88.31529687500006,
      "v": 113
    },
    {
      "midi": 52,
      "hit": false,
      "t": 60434.83699999993,
      "d": 72.46383333333506,
      "v": 107
    },
    {
      "midi": 45,
      "hit": false,
      "t": 60434.83699999993,
      "d": 92.84428645833395,
      "v": 107
    },
    {
      "midi": 38,
      "hit": false,
      "t": 60869.61999999993,
      "d": 142.6631718750068,
      "v": 107
    },
    {
      "midi": 50,
      "hit": false,
      "t": 60869.61999999993,
      "d": 147.1921614583407,
      "v": 107
    },
    {
      "midi": 57,
      "hit": false,
      "t": 61304.40299999994,
      "d": 61.14135937499668,
      "v": 45
    },
    {
      "midi": 50,
      "hit": false,
      "t": 61304.40299999994,
      "d": 92.84428645832668,
      "v": 46
    },
    {
      "midi": 50,
      "hit": false,
      "t": 61739.185999999936,
      "d": 221.9204895833318,
      "v": 93
    },
    {
      "midi": 57,
      "hit": false,
      "t": 61739.185999999936,
      "d": 221.9204895833318,
      "v": 76
    },
    {
      "midi": 69,
      "hit": false,
      "t": 61956.577499999934,
      "d": 163.04362499999843,
      "v": 93
    },
    {
      "midi": 62,
      "hit": false,
      "t": 61956.577499999934,
      "d": 176.63059375000012,
      "v": 89
    },
    {
      "midi": 50,
      "hit": false,
      "t": 62173.96899999993,
      "d": 67.93484375000116,
      "v": 89
    },
    {
      "midi": 57,
      "hit": false,
      "t": 62173.96899999993,
      "d": 72.46383333333506,
      "v": 85
    },
    {
      "midi": 62,
      "hit": false,
      "t": 62391.36049999994,
      "d": 353.26118750000023,
      "v": 93
    },
    {
      "midi": 50,
      "hit": false,
      "t": 62391.36049999994,
      "d": 452.8989583333314,
      "v": 107
    },
    {
      "midi": 57,
      "hit": false,
      "t": 62391.36049999994,
      "d": 471.014916666667,
      "v": 98
    },
    {
      "midi": 69,
      "hit": false,
      "t": 62391.36049999994,
      "d": 480.07289583333477,
      "v": 107
    },
    {
      "midi": 62,
      "hit": false,
      "t": 63043.53499999994,
      "d": 79.25731770833227,
      "v": 85
    },
    {
      "midi": 57,
      "hit": false,
      "t": 63043.53499999994,
      "d": 122.28271875000064,
      "v": 93
    },
    {
      "midi": 69,
      "hit": false,
      "t": 63043.53499999994,
      "d": 122.28271875000064,
      "v": 98
    },
    {
      "midi": 50,
      "hit": false,
      "t": 63043.53499999994,
      "d": 129.07620312499785,
      "v": 93
    },
    {
      "midi": 62,
      "hit": false,
      "t": 63260.926499999936,
      "d": 108.69574999999895,
      "v": 72
    },
    {
      "midi": 50,
      "hit": false,
      "t": 63478.317999999934,
      "d": 230.9784687499996,
      "v": 102
    },
    {
      "midi": 57,
      "hit": false,
      "t": 63478.317999999934,
      "d": 237.7719531249968,
      "v": 89
    },
    {
      "midi": 62,
      "hit": false,
      "t": 63695.70949999993,
      "d": 72.46383333333506,
      "v": 107
    },
    {
      "midi": 69,
      "hit": false,
      "t": 63695.70949999993,
      "d": 101.90226562500175,
      "v": 107
    },
    {
      "midi": 50,
      "hit": false,
      "t": 63913.10099999994,
      "d": 22.64494791666948,
      "v": 34
    },
    {
      "midi": 57,
      "hit": false,
      "t": 63913.10099999994,
      "d": 49.818885416672856,
      "v": 55
    },
    {
      "midi": 50,
      "hit": false,
      "t": 64130.49249999994,
      "d": 344.2032083333397,
      "v": 113
    },
    {
      "midi": 57,
      "hit": false,
      "t": 64130.49249999994,
      "d": 348.7321979166736,
      "v": 98
    },
    {
      "midi": 69,
      "hit": false,
      "t": 64347.88399999994,
      "d": 79.25731770833954,
      "v": 80
    },
    {
      "midi": 62,
      "hit": false,
      "t": 64347.88399999994,
      "d": 101.90226562500902,
      "v": 80
    },
    {
      "midi": 74,
      "hit": false,
      "t": 64347.88399999994,
      "d": 104.16676041667233,
      "v": 89
    },
    {
      "midi": 62,
      "hit": false,
      "t": 64782.66699999995,
      "d": 83.78630729166616,
      "v": 85
    },
    {
      "midi": 50,
      "hit": false,
      "t": 64782.66699999995,
      "d": 99.63777083333116,
      "v": 98
    },
    {
      "midi": 57,
      "hit": false,
      "t": 64782.66699999995,
      "d": 120.01822395833005,
      "v": 93
    },
    {
      "midi": 69,
      "hit": false,
      "t": 65217.449999999946,
      "d": 83.78630729166616,
      "v": 85
    },
    {
      "midi": 62,
      "hit": false,
      "t": 65217.449999999946,
      "d": 92.84428645833395,
      "v": 72
    },
    {
      "midi": 50,
      "hit": false,
      "t": 65217.449999999946,
      "d": 489.1308749999953,
      "v": 98
    },
    {
      "midi": 57,
      "hit": false,
      "t": 65217.449999999946,
      "d": 489.1308749999953,
      "v": 80
    },
    {
      "midi": 69,
      "hit": false,
      "t": 65434.841499999944,
      "d": 160.7791302083424,
      "v": 98
    },
    {
      "midi": 62,
      "hit": false,
      "t": 65434.841499999944,
      "d": 199.2755416666696,
      "v": 76
    },
    {
      "midi": 62,
      "hit": false,
      "t": 65869.62449999995,
      "d": 276.2683645833313,
      "v": 93
    },
    {
      "midi": 69,
      "hit": false,
      "t": 65869.62449999995,
      "d": 337.40972395833523,
      "v": 93
    },
    {
      "midi": 50,
      "hit": false,
      "t": 65869.62449999995,
      "d": 459.69244270834315,
      "v": 113
    },
    {
      "midi": 57,
      "hit": false,
      "t": 65869.62449999995,
      "d": 473.27941145833756,
      "v": 89
    },
    {
      "midi": 62,
      "hit": false,
      "t": 66304.40749999996,
      "d": 181.15958333332674,
      "v": 72
    },
    {
      "midi": 50,
      "hit": false,
      "t": 66521.79899999996,
      "d": 81.52181249999558,
      "v": 98
    },
    {
      "midi": 57,
      "hit": false,
      "t": 66521.79899999996,
      "d": 95.10878124998999,
      "v": 85
    },
    {
      "midi": 50,
      "hit": false,
      "t": 66739.19049999994,
      "d": 92.84428645833395,
      "v": 113
    },
    {
      "midi": 57,
      "hit": false,
      "t": 66739.19049999994,
      "d": 99.63777083333116,
      "v": 98
    },
    {
      "midi": 62,
      "hit": false,
      "t": 66956.58199999994,
      "d": 135.86968750000233,
      "v": 98
    },
    {
      "midi": 50,
      "hit": false,
      "t": 67173.97349999993,
      "d": 326.0872500000114,
      "v": 113
    },
    {
      "midi": 57,
      "hit": false,
      "t": 67173.97349999993,
      "d": 326.0872500000114,
      "v": 93
    },
    {
      "midi": 45,
      "hit": false,
      "t": 67826.14799999994,
      "d": 1494.5665624999965,
      "v": 85
    },
    {
      "midi": 57,
      "hit": false,
      "t": 67826.14799999994,
      "d": 1639.4942291666666,
      "v": 89
    },
    {
      "midi": 52,
      "hit": false,
      "t": 67826.14799999994,
      "d": 1641.7587239583372,
      "v": 60
    },
    {
      "midi": 52,
      "hit": false,
      "t": 78260.93999999994,
      "d": 400.8155781249952,
      "v": 76
    },
    {
      "midi": 40,
      "hit": false,
      "t": 78260.93999999994,
      "d": 552.5367291666626,
      "v": 76
    },
    {
      "midi": 52,
      "hit": false,
      "t": 78913.11449999994,
      "d": 90.57979166666337,
      "v": 68
    },
    {
      "midi": 52,
      "hit": false,
      "t": 79130.50599999994,
      "d": 99.63777083333116,
      "v": 85
    },
    {
      "midi": 45,
      "hit": false,
      "t": 80000.07199999993,
      "d": 90.57979166666337,
      "v": 68
    },
    {
      "midi": 64,
      "hit": false,
      "t": 80000.07199999993,
      "d": 90.57979166666337,
      "v": 72
    },
    {
      "midi": 57,
      "hit": false,
      "t": 80000.07199999993,
      "d": 99.63777083333116,
      "v": 56
    },
    {
      "midi": 52,
      "hit": false,
      "t": 80000.07199999993,
      "d": 104.16676041665778,
      "v": 76
    },
    {
      "midi": 52,
      "hit": false,
      "t": 80217.46349999993,
      "d": 117.75372916666674,
      "v": 98
    },
    {
      "midi": 64,
      "hit": false,
      "t": 80217.46349999993,
      "d": 117.75372916666674,
      "v": 107
    },
    {
      "midi": 45,
      "hit": false,
      "t": 80217.46349999993,
      "d": 120.01822395833733,
      "v": 98
    },
    {
      "midi": 57,
      "hit": false,
      "t": 80217.46349999993,
      "d": 129.07620312500512,
      "v": 93
    },
    {
      "midi": 52,
      "hit": false,
      "t": 80434.85499999994,
      "d": 90.57979166666337,
      "v": 107
    },
    {
      "midi": 45,
      "hit": false,
      "t": 80434.85499999994,
      "d": 117.75372916666674,
      "v": 113
    },
    {
      "midi": 64,
      "hit": false,
      "t": 80434.85499999994,
      "d": 117.75372916666674,
      "v": 107
    },
    {
      "midi": 69,
      "hit": false,
      "t": 80434.85499999994,
      "d": 117.75372916666674,
      "v": 102
    },
    {
      "midi": 57,
      "hit": false,
      "t": 80434.85499999994,
      "d": 126.81170833333454,
      "v": 93
    },
    {
      "midi": 52,
      "hit": false,
      "t": 80652.24649999994,
      "d": 90.57979166666337,
      "v": 107
    },
    {
      "midi": 64,
      "hit": false,
      "t": 80652.24649999994,
      "d": 90.57979166666337,
      "v": 113
    },
    {
      "midi": 57,
      "hit": false,
      "t": 80652.24649999994,
      "d": 99.63777083333116,
      "v": 93
    },
    {
      "midi": 69,
      "hit": false,
      "t": 80652.24649999994,
      "d": 106.43125520832837,
      "v": 113
    },
    {
      "midi": 45,
      "hit": false,
      "t": 80652.24649999994,
      "d": 113.22473958332557,
      "v": 113
    },
    {
      "midi": 57,
      "hit": false,
      "t": 80869.63799999993,
      "d": 106.43125520832837,
      "v": 107
    },
    {
      "midi": 64,
      "hit": false,
      "t": 80869.63799999993,
      "d": 120.01822395832278,
      "v": 107
    },
    {
      "midi": 69,
      "hit": false,
      "t": 80869.63799999993,
      "d": 144.92766666665557,
      "v": 107
    },
    {
      "midi": 45,
      "hit": false,
      "t": 80869.63799999993,
      "d": 235.50745833331894,
      "v": 113
    },
    {
      "midi": 52,
      "hit": false,
      "t": 80869.63799999993,
      "d": 235.50745833331894,
      "v": 119
    },
    {
      "midi": 57,
      "hit": false,
      "t": 81087.02949999992,
      "d": 117.75372916666674,
      "v": 93
    },
    {
      "midi": 52,
      "hit": false,
      "t": 81304.42099999991,
      "d": 194.7465520833357,
      "v": 119
    },
    {
      "midi": 45,
      "hit": false,
      "t": 81304.42099999991,
      "d": 199.27554166666232,
      "v": 127
    },
    {
      "midi": 57,
      "hit": false,
      "t": 81521.81249999991,
      "d": 88.31529687499278,
      "v": 107
    },
    {
      "midi": 64,
      "hit": false,
      "t": 81521.81249999991,
      "d": 90.57979166666337,
      "v": 113
    },
    {
      "midi": 69,
      "hit": false,
      "t": 81521.81249999991,
      "d": 108.69574999999895,
      "v": 107
    },
    {
      "midi": 62,
      "hit": false,
      "t": 81739.20399999991,
      "d": 312.5002812499879,
      "v": 107
    },
    {
      "midi": 50,
      "hit": false,
      "t": 81739.20399999991,
      "d": 407.60906249999243,
      "v": 107
    },
    {
      "midi": 57,
      "hit": false,
      "t": 81739.20399999991,
      "d": 409.873557291663,
      "v": 102
    },
    {
      "midi": 66,
      "hit": false,
      "t": 82173.9869999999,
      "d": 405.34456770832185,
      "v": 98
    },
    {
      "midi": 62,
      "hit": false,
      "t": 82173.9869999999,
      "d": 418.93153645831626,
      "v": 102
    },
    {
      "midi": 50,
      "hit": false,
      "t": 82608.76999999989,
      "d": 126.81170833333454,
      "v": 93
    },
    {
      "midi": 57,
      "hit": false,
      "t": 82608.76999999989,
      "d": 133.60519270833174,
      "v": 89
    },
    {
      "midi": 62,
      "hit": false,
      "t": 82826.16149999989,
      "d": 151.72115104166733,
      "v": 98
    },
    {
      "midi": 50,
      "hit": false,
      "t": 82826.16149999989,
      "d": 221.92048958333908,
      "v": 107
    },
    {
      "midi": 57,
      "hit": false,
      "t": 82826.16149999989,
      "d": 226.4494791666657,
      "v": 93
    },
    {
      "midi": 50,
      "hit": false,
      "t": 83260.94449999988,
      "d": 332.8807343750086,
      "v": 102
    },
    {
      "midi": 57,
      "hit": false,
      "t": 83260.94449999988,
      "d": 344.203208333347,
      "v": 93
    },
    {
      "midi": 62,
      "hit": false,
      "t": 83260.94449999988,
      "d": 344.203208333347,
      "v": 98
    },
    {
      "midi": 57,
      "hit": false,
      "t": 83695.72749999989,
      "d": 178.8950885416707,
      "v": 85
    },
    {
      "midi": 50,
      "hit": false,
      "t": 83695.72749999989,
      "d": 249.0944270833279,
      "v": 93
    },
    {
      "midi": 69,
      "hit": false,
      "t": 83913.11899999989,
      "d": 172.10160416665894,
      "v": 98
    },
    {
      "midi": 62,
      "hit": false,
      "t": 83913.11899999989,
      "d": 203.80453124998894,
      "v": 76
    },
    {
      "midi": 57,
      "hit": false,
      "t": 84130.51049999987,
      "d": 197.0110468750063,
      "v": 89
    },
    {
      "midi": 62,
      "hit": false,
      "t": 84347.90199999989,
      "d": 120.01822395832278,
      "v": 93
    },
    {
      "midi": 62,
      "hit": false,
      "t": 84565.29349999987,
      "d": 70.19933854167175,
      "v": 56
    },
    {
      "midi": 57,
      "hit": false,
      "t": 84565.29349999987,
      "d": 305.7067968749907,
      "v": 98
    },
    {
      "midi": 50,
      "hit": false,
      "t": 84565.29349999987,
      "d": 307.9712916666613,
      "v": 102
    },
    {
      "midi": 62,
      "hit": false,
      "t": 84782.68499999987,
      "d": 81.52181249999558,
      "v": 62
    },
    {
      "midi": 57,
      "hit": false,
      "t": 85000.07649999986,
      "d": 63.40585416665999,
      "v": 72
    },
    {
      "midi": 66,
      "hit": false,
      "t": 85000.07649999986,
      "d": 72.46383333332778,
      "v": 89
    },
    {
      "midi": 50,
      "hit": false,
      "t": 85000.07649999986,
      "d": 74.72832812499837,
      "v": 89
    },
    {
      "midi": 62,
      "hit": false,
      "t": 85000.07649999986,
      "d": 86.05080208333675,
      "v": 98
    },
    {
      "midi": 50,
      "hit": false,
      "t": 85217.46799999986,
      "d": 344.20320833333244,
      "v": 107
    },
    {
      "midi": 62,
      "hit": false,
      "t": 85217.46799999986,
      "d": 344.20320833333244,
      "v": 93
    },
    {
      "midi": 57,
      "hit": false,
      "t": 85217.46799999986,
      "d": 362.319166666668,
      "v": 93
    },
    {
      "midi": 66,
      "hit": false,
      "t": 85652.25099999986,
      "d": 72.46383333332778,
      "v": 89
    },
    {
      "midi": 62,
      "hit": false,
      "t": 85652.25099999986,
      "d": 101.9022656249872,
      "v": 107
    },
    {
      "midi": 50,
      "hit": false,
      "t": 85652.25099999986,
      "d": 135.86968749998778,
      "v": 102
    },
    {
      "midi": 57,
      "hit": false,
      "t": 85652.25099999986,
      "d": 199.27554166664777,
      "v": 89
    },
    {
      "midi": 62,
      "hit": false,
      "t": 85869.64249999984,
      "d": 72.46383333332778,
      "v": 62
    },
    {
      "midi": 66,
      "hit": false,
      "t": 86087.03399999984,
      "d": 81.52181249999558,
      "v": 80
    },
    {
      "midi": 62,
      "hit": false,
      "t": 86087.03399999984,
      "d": 97.37327604166057,
      "v": 93
    },
    {
      "midi": 57,
      "hit": false,
      "t": 86087.03399999984,
      "d": 258.1524062499957,
      "v": 89
    },
    {
      "midi": 50,
      "hit": false,
      "t": 86087.03399999984,
      "d": 380.43512499998906,
      "v": 93
    },
    {
      "midi": 62,
      "hit": false,
      "t": 86304.42549999984,
      "d": 163.04362499999115,
      "v": 93
    },
    {
      "midi": 66,
      "hit": false,
      "t": 86304.42549999984,
      "d": 228.71397395832173,
      "v": 93
    },
    {
      "midi": 62,
      "hit": false,
      "t": 86739.20849999982,
      "d": 95.10878125000454,
      "v": 113
    },
    {
      "midi": 52,
      "hit": false,
      "t": 86956.59999999982,
      "d": 332.88073437499406,
      "v": 98
    },
    {
      "midi": 45,
      "hit": false,
      "t": 86956.59999999982,
      "d": 380.4351250000036,
      "v": 113
    },
    {
      "midi": 64,
      "hit": false,
      "t": 87173.99149999981,
      "d": 142.66317187499953,
      "v": 102
    },
    {
      "midi": 61,
      "hit": false,
      "t": 87173.99149999981,
      "d": 144.92766666667012,
      "v": 93
    },
    {
      "midi": 57,
      "hit": false,
      "t": 87173.99149999981,
      "d": 163.0436250000057,
      "v": 93
    },
    {
      "midi": 64,
      "hit": false,
      "t": 87608.77449999982,
      "d": 298.9133124999935,
      "v": 107
    },
    {
      "midi": 59,
      "hit": false,
      "t": 87608.77449999982,
      "d": 312.5002812499879,
      "v": 102
    },
    {
      "midi": 52,
      "hit": false,
      "t": 87608.77449999982,
      "d": 527.6272864583152,
      "v": 93
    },
    {
      "midi": 45,
      "hit": false,
      "t": 87608.77449999982,
      "d": 740.4897968749865,
      "v": 102
    },
    {
      "midi": 57,
      "hit": false,
      "t": 87717.47024999982,
      "d": 165.30811979166174,
      "v": 9
    },
    {
      "midi": 57,
      "hit": false,
      "t": 88043.5574999998,
      "d": 120.01822395833733,
      "v": 98
    },
    {
      "midi": 59,
      "hit": false,
      "t": 88043.5574999998,
      "d": 153.9856458333379,
      "v": 113
    },
    {
      "midi": 64,
      "hit": false,
      "t": 88043.5574999998,
      "d": 174.36609895834408,
      "v": 102
    },
    {
      "midi": 57,
      "hit": false,
      "t": 88260.94899999982,
      "d": 106.43125520832837,
      "v": 55
    },
    {
      "midi": 61,
      "hit": false,
      "t": 88260.94899999982,
      "d": 153.98564583332336,
      "v": 72
    },
    {
      "midi": 52,
      "hit": false,
      "t": 88478.3404999998,
      "d": 113.22473958334012,
      "v": 102
    },
    {
      "midi": 64,
      "hit": false,
      "t": 88695.7319999998,
      "d": 328.35174479166744,
      "v": 89
    },
    {
      "midi": 61,
      "hit": false,
      "t": 88695.7319999998,
      "d": 341.93871354166185,
      "v": 89
    },
    {
      "midi": 57,
      "hit": false,
      "t": 88695.7319999998,
      "d": 353.26118750000023,
      "v": 80
    },
    {
      "midi": 45,
      "hit": false,
      "t": 88695.7319999998,
      "d": 749.5477760416543,
      "v": 93
    },
    {
      "midi": 61,
      "hit": false,
      "t": 89130.5149999998,
      "d": 183.42407812499732,
      "v": 93
    },
    {
      "midi": 64,
      "hit": false,
      "t": 89130.5149999998,
      "d": 206.06902604165953,
      "v": 93
    },
    {
      "midi": 57,
      "hit": false,
      "t": 89130.5149999998,
      "d": 230.97846874999232,
      "v": 89
    },
    {
      "midi": 52,
      "hit": false,
      "t": 89347.9064999998,
      "d": 129.07620312499057,
      "v": 85
    },
    {
      "midi": 59,
      "hit": false,
      "t": 89565.29799999978,
      "d": 115.48923437499616,
      "v": 89
    },
    {
      "midi": 64,
      "hit": false,
      "t": 89565.29799999978,
      "d": 124.54721354166395,
      "v": 85
    },
    {
      "midi": 62,
      "hit": false,
      "t": 89565.29799999978,
      "d": 135.86968750000233,
      "v": 89
    },
    {
      "midi": 61,
      "hit": false,
      "t": 89782.68949999977,
      "d": 172.10160416665894,
      "v": 89
    },
    {
      "midi": 64,
      "hit": false,
      "t": 89782.68949999977,
      "d": 176.63059374998556,
      "v": 76
    },
    {
      "midi": 57,
      "hit": false,
      "t": 89782.68949999977,
      "d": 201.54003645831835,
      "v": 80
    },
    {
      "midi": 45,
      "hit": false,
      "t": 90000.08099999976,
      "d": 72.46383333332778,
      "v": 80
    },
    {
      "midi": 52,
      "hit": false,
      "t": 90000.08099999976,
      "d": 104.16676041665778,
      "v": 85
    },
    {
      "midi": 52,
      "hit": false,
      "t": 90217.47249999976,
      "d": 319.29376562499965,
      "v": 72
    },
    {
      "midi": 61,
      "hit": false,
      "t": 90217.47249999976,
      "d": 495.92435937499977,
      "v": 93
    },
    {
      "midi": 64,
      "hit": false,
      "t": 90217.47249999976,
      "d": 498.18885416667035,
      "v": 102
    },
    {
      "midi": 57,
      "hit": false,
      "t": 90217.47249999976,
      "d": 516.3048125000059,
      "v": 93
    },
    {
      "midi": 45,
      "hit": false,
      "t": 90217.47249999976,
      "d": 912.59140104166,
      "v": 102
    },
    {
      "midi": 52,
      "hit": false,
      "t": 90652.25549999975,
      "d": 264.94589062500745,
      "v": 89
    },
    {
      "midi": 64,
      "hit": false,
      "t": 90869.64699999976,
      "d": 208.3335208333301,
      "v": 102
    },
    {
      "midi": 59,
      "hit": false,
      "t": 90869.64699999976,
      "d": 230.97846874999232,
      "v": 113
    },
    {
      "midi": 52,
      "hit": false,
      "t": 91087.03849999976,
      "d": 99.63777083331661,
      "v": 93
    },
    {
      "midi": 64,
      "hit": false,
      "t": 91304.42999999975,
      "d": 135.86968750000233,
      "v": 89
    },
    {
      "midi": 59,
      "hit": false,
      "t": 91304.42999999975,
      "d": 172.1016041666735,
      "v": 102
    },
    {
      "midi": 52,
      "hit": false,
      "t": 91304.42999999975,
      "d": 344.203208333347,
      "v": 80
    },
    {
      "midi": 57,
      "hit": false,
      "t": 91304.42999999975,
      "d": 400.8155781250098,
      "v": 93
    },
    {
      "midi": 45,
      "hit": false,
      "t": 91304.42999999975,
      "d": 443.84097916667815,
      "v": 93
    },
    {
      "midi": 64,
      "hit": false,
      "t": 91521.82149999976,
      "d": 153.9856458333379,
      "v": 85
    },
    {
      "midi": 61,
      "hit": false,
      "t": 91521.82149999976,
      "d": 169.8371093750029,
      "v": 89
    },
    {
      "midi": 52,
      "hit": false,
      "t": 91739.21299999976,
      "d": 101.90226562500175,
      "v": 98
    },
    {
      "midi": 57,
      "hit": false,
      "t": 91956.60449999975,
      "d": 398.5510833333392,
      "v": 89
    },
    {
      "midi": 52,
      "hit": false,
      "t": 91956.60449999975,
      "d": 552.5367291666771,
      "v": 93
    },
    {
      "midi": 45,
      "hit": false,
      "t": 91956.60449999975,
      "d": 554.8012239583477,
      "v": 98
    },
    {
      "midi": 57,
      "hit": false,
      "t": 92391.38749999976,
      "d": 129.07620312500512,
      "v": 98
    },
    {
      "midi": 61,
      "hit": false,
      "t": 92608.77899999976,
      "d": 181.15958333332674,
      "v": 93
    },
    {
      "midi": 64,
      "hit": false,
      "t": 92608.77899999976,
      "d": 185.68857291665336,
      "v": 98
    },
    {
      "midi": 57,
      "hit": false,
      "t": 92608.77899999976,
      "d": 228.71397395830718,
      "v": 76
    },
    {
      "midi": 52,
      "hit": false,
      "t": 92826.17049999975,
      "d": 298.91331249997893,
      "v": 89
    },
    {
      "midi": 61,
      "hit": false,
      "t": 93043.56199999973,
      "d": 92.84428645833395,
      "v": 93
    },
    {
      "midi": 64,
      "hit": false,
      "t": 93043.56199999973,
      "d": 95.10878125000454,
      "v": 98
    },
    {
      "midi": 57,
      "hit": false,
      "t": 93043.56199999973,
      "d": 101.90226562500175,
      "v": 89
    },
    {
      "midi": 57,
      "hit": false,
      "t": 93260.95349999973,
      "d": 244.56543750000128,
      "v": 102
    },
    {
      "midi": 61,
      "hit": false,
      "t": 93260.95349999973,
      "d": 380.4351250000036,
      "v": 107
    },
    {
      "midi": 64,
      "hit": false,
      "t": 93260.95349999973,
      "d": 464.22143229166977,
      "v": 107
    },
    {
      "midi": 57,
      "hit": false,
      "t": 93695.73649999974,
      "d": 108.69574999999895,
      "v": 98
    },
    {
      "midi": 50,
      "hit": false,
      "t": 93913.12799999974,
      "d": 90.57979166666337,
      "v": 107
    },
    {
      "midi": 62,
      "hit": false,
      "t": 93913.12799999974,
      "d": 90.57979166666337,
      "v": 107
    },
    {
      "midi": 50,
      "hit": false,
      "t": 94130.51949999973,
      "d": 197.0110468750063,
      "v": 107
    },
    {
      "midi": 62,
      "hit": false,
      "t": 94130.51949999973,
      "d": 242.30094270834525,
      "v": 113
    },
    {
      "midi": 60,
      "hit": false,
      "t": 94347.91099999975,
      "d": 90.57979166666337,
      "v": 102
    },
    {
      "midi": 48,
      "hit": false,
      "t": 94347.91099999975,
      "d": 97.37327604166057,
      "v": 89
    },
    {
      "midi": 60,
      "hit": false,
      "t": 94565.30249999974,
      "d": 95.10878125000454,
      "v": 107
    },
    {
      "midi": 48,
      "hit": false,
      "t": 94565.30249999974,
      "d": 117.75372916666674,
      "v": 102
    },
    {
      "midi": 59,
      "hit": false,
      "t": 94782.69399999974,
      "d": 99.63777083333116,
      "v": 113
    },
    {
      "midi": 59,
      "hit": false,
      "t": 95000.08549999974,
      "d": 224.1849843749951,
      "v": 107
    },
    {
      "midi": 57,
      "hit": false,
      "t": 95217.47699999974,
      "d": 90.57979166666337,
      "v": 107
    },
    {
      "midi": 57,
      "hit": false,
      "t": 95434.86849999973,
      "d": 151.72115104166733,
      "v": 107
    },
    {
      "midi": 50,
      "hit": false,
      "t": 95652.25999999973,
      "d": 389.4931041666714,
      "v": 98
    },
    {
      "midi": 50,
      "hit": false,
      "t": 96087.04299999974,
      "d": 153.9856458333379,
      "v": 107
    },
    {
      "midi": 66,
      "hit": false,
      "t": 96087.04299999974,
      "d": 169.8371093750029,
      "v": 98
    },
    {
      "midi": 62,
      "hit": false,
      "t": 96087.04299999974,
      "d": 172.1016041666735,
      "v": 107
    },
    {
      "midi": 57,
      "hit": false,
      "t": 96087.04299999974,
      "d": 217.39150000001246,
      "v": 89
    },
    {
      "midi": 62,
      "hit": false,
      "t": 96521.82599999975,
      "d": 101.90226562500175,
      "v": 89
    },
    {
      "midi": 50,
      "hit": false,
      "t": 96521.82599999975,
      "d": 337.40972395833523,
      "v": 98
    },
    {
      "midi": 57,
      "hit": false,
      "t": 96521.82599999975,
      "d": 344.20320833333244,
      "v": 93
    },
    {
      "midi": 66,
      "hit": false,
      "t": 96739.21749999975,
      "d": 135.86968750000233,
      "v": 113
    },
    {
      "midi": 62,
      "hit": false,
      "t": 96739.21749999975,
      "d": 199.27554166666232,
      "v": 102
    },
    {
      "midi": 62,
      "hit": false,
      "t": 97174.00049999975,
      "d": 448.3699687500048,
      "v": 102
    },
    {
      "midi": 66,
      "hit": false,
      "t": 97174.00049999975,
      "d": 450.63446354167536,
      "v": 102
    },
    {
      "midi": 57,
      "hit": false,
      "t": 97174.00049999975,
      "d": 697.4643958333472,
      "v": 93
    },
    {
      "midi": 50,
      "hit": false,
      "t": 97174.00049999975,
      "d": 720.1093437500094,
      "v": 102
    },
    {
      "midi": 66,
      "hit": false,
      "t": 97826.17499999976,
      "d": 158.51463541666453,
      "v": 102
    },
    {
      "midi": 62,
      "hit": false,
      "t": 97826.17499999976,
      "d": 190.21756249999453,
      "v": 98
    },
    {
      "midi": 50,
      "hit": false,
      "t": 98043.56649999975,
      "d": 115.48923437499616,
      "v": 102
    },
    {
      "midi": 57,
      "hit": false,
      "t": 98043.56649999975,
      "d": 140.39867708332895,
      "v": 93
    },
    {
      "midi": 66,
      "hit": false,
      "t": 98260.95799999975,
      "d": 99.63777083333116,
      "v": 93
    },
    {
      "midi": 60,
      "hit": false,
      "t": 98260.95799999975,
      "d": 115.48923437499616,
      "v": 89
    },
    {
      "midi": 60,
      "hit": false,
      "t": 98478.34949999975,
      "d": 240.03644791667466,
      "v": 93
    },
    {
      "midi": 66,
      "hit": false,
      "t": 98478.34949999975,
      "d": 251.35892187501304,
      "v": 102
    },
    {
      "midi": 57,
      "hit": false,
      "t": 98695.74099999976,
      "d": 108.69574999999895,
      "v": 85
    },
    {
      "midi": 50,
      "hit": false,
      "t": 98695.74099999976,
      "d": 110.96024479166954,
      "v": 98
    },
    {
      "midi": 62,
      "hit": false,
      "t": 98913.13249999977,
      "d": 484.60188541667594,
      "v": 102
    },
    {
      "midi": 66,
      "hit": false,
      "t": 98913.13249999977,
      "d": 495.9243593750143,
      "v": 98
    },
    {
      "midi": 57,
      "hit": false,
      "t": 98913.13249999977,
      "d": 733.6963125000038,
      "v": 85
    },
    {
      "midi": 50,
      "hit": false,
      "t": 98913.13249999977,
      "d": 763.1347447916633,
      "v": 98
    },
    {
      "midi": 66,
      "hit": false,
      "t": 99565.30699999978,
      "d": 244.56543749998673,
      "v": 107
    },
    {
      "midi": 62,
      "hit": false,
      "t": 99565.30699999978,
      "d": 262.6813958333223,
      "v": 107
    },
    {
      "midi": 50,
      "hit": false,
      "t": 99782.69849999977,
      "d": 135.86968750000233,
      "v": 98
    },
    {
      "midi": 57,
      "hit": false,
      "t": 99782.69849999977,
      "d": 165.30811979166174,
      "v": 93
    },
    {
      "midi": 66,
      "hit": false,
      "t": 100000.08999999976,
      "d": 144.92766666667012,
      "v": 85
    },
    {
      "midi": 62,
      "hit": false,
      "t": 100000.08999999976,
      "d": 167.57261458333232,
      "v": 93
    },
    {
      "midi": 57,
      "hit": false,
      "t": 100217.48149999976,
      "d": 124.54721354166395,
      "v": 93
    },
    {
      "midi": 50,
      "hit": false,
      "t": 100217.48149999976,
      "d": 181.1595833333413,
      "v": 113
    },
    {
      "midi": 62,
      "hit": false,
      "t": 100434.87299999977,
      "d": 104.16676041667233,
      "v": 102
    },
    {
      "midi": 66,
      "hit": false,
      "t": 100434.87299999977,
      "d": 165.3081197916763,
      "v": 107
    },
    {
      "midi": 62,
      "hit": false,
      "t": 100652.26449999979,
      "d": 95.10878125000454,
      "v": 107
    },
    {
      "midi": 43,
      "hit": false,
      "t": 100869.65599999978,
      "d": 1227.356177083333,
      "v": 113
    },
    {
      "midi": 62,
      "hit": false,
      "t": 101087.04749999978,
      "d": 153.9856458333379,
      "v": 98
    },
    {
      "midi": 59,
      "hit": false,
      "t": 101087.04749999978,
      "d": 158.51463541666453,
      "v": 102
    },
    {
      "midi": 55,
      "hit": false,
      "t": 101087.04749999978,
      "d": 169.8371093750029,
      "v": 98
    },
    {
      "midi": 59,
      "hit": false,
      "t": 101521.83049999978,
      "d": 477.8084010416642,
      "v": 113
    },
    {
      "midi": 55,
      "hit": false,
      "t": 101521.83049999978,
      "d": 504.98233854166756,
      "v": 107
    },
    {
      "midi": 62,
      "hit": false,
      "t": 101521.83049999978,
      "d": 507.24683333333815,
      "v": 113
    },
    {
      "midi": 50,
      "hit": false,
      "t": 101956.61349999977,
      "d": 172.1016041666735,
      "v": 113
    },
    {
      "midi": 57,
      "hit": false,
      "t": 102174.00499999979,
      "d": 210.5980156250007,
      "v": 107
    },
    {
      "midi": 62,
      "hit": false,
      "t": 102174.00499999979,
      "d": 296.64881770833745,
      "v": 113
    },
    {
      "midi": 55,
      "hit": false,
      "t": 102391.39649999978,
      "d": 92.84428645833395,
      "v": 107
    },
    {
      "midi": 52,
      "hit": false,
      "t": 102608.78799999978,
      "d": 197.0110468750063,
      "v": 119
    },
    {
      "midi": 45,
      "hit": false,
      "t": 102608.78799999978,
      "d": 201.5400364583329,
      "v": 107
    },
    {
      "midi": 52,
      "hit": false,
      "t": 104347.91999999978,
      "d": 210.5980156250007,
      "v": 107
    },
    {
      "midi": 45,
      "hit": false,
      "t": 104347.91999999978,
      "d": 219.6559947916685,
      "v": 113
    },
    {
      "midi": 57,
      "hit": false,
      "t": 104347.91999999978,
      "d": 226.4494791666657,
      "v": 113
    },
    {
      "midi": 52,
      "hit": false,
      "t": 106087.05199999978,
      "d": 939.7653385416634,
      "v": 119
    },
    {
      "midi": 45,
      "hit": false,
      "t": 106087.05199999978,
      "d": 944.29432812499,
      "v": 119
    },
    {
      "midi": 57,
      "hit": false,
      "t": 107174.00949999977,
      "d": 88.31529687499278,
      "v": 113
    },
    {
      "midi": 52,
      "hit": false,
      "t": 107391.40099999977,
      "d": 72.46383333332778,
      "v": 107
    },
    {
      "midi": 45,
      "hit": false,
      "t": 107391.40099999977,
      "d": 92.84428645833395,
      "v": 107
    },
    {
      "midi": 38,
      "hit": false,
      "t": 107826.18399999976,
      "d": 142.66317187499953,
      "v": 107
    },
    {
      "midi": 50,
      "hit": false,
      "t": 107826.18399999976,
      "d": 147.19216145832615,
      "v": 107
    },
    {
      "midi": 57,
      "hit": false,
      "t": 108260.96699999976,
      "d": 61.14135937500396,
      "v": 45
    },
    {
      "midi": 50,
      "hit": false,
      "t": 108260.96699999976,
      "d": 92.84428645833395,
      "v": 46
    },
    {
      "midi": 50,
      "hit": false,
      "t": 108695.74999999975,
      "d": 221.92048958332452,
      "v": 93
    },
    {
      "midi": 57,
      "hit": false,
      "t": 108695.74999999975,
      "d": 221.92048958332452,
      "v": 76
    },
    {
      "midi": 69,
      "hit": false,
      "t": 108913.14149999975,
      "d": 163.04362499999115,
      "v": 93
    },
    {
      "midi": 62,
      "hit": false,
      "t": 108913.14149999975,
      "d": 176.63059374998556,
      "v": 89
    },
    {
      "midi": 50,
      "hit": false,
      "t": 109130.53299999973,
      "d": 67.93484375000116,
      "v": 89
    },
    {
      "midi": 57,
      "hit": false,
      "t": 109130.53299999973,
      "d": 72.46383333332778,
      "v": 85
    },
    {
      "midi": 62,
      "hit": false,
      "t": 109347.92449999973,
      "d": 353.26118750000023,
      "v": 93
    },
    {
      "midi": 50,
      "hit": false,
      "t": 109347.92449999973,
      "d": 452.8989583333314,
      "v": 107
    },
    {
      "midi": 57,
      "hit": false,
      "t": 109347.92449999973,
      "d": 471.014916666667,
      "v": 98
    },
    {
      "midi": 69,
      "hit": false,
      "t": 109347.92449999973,
      "d": 480.07289583333477,
      "v": 107
    },
    {
      "midi": 62,
      "hit": false,
      "t": 110000.09899999974,
      "d": 79.25731770833954,
      "v": 85
    },
    {
      "midi": 57,
      "hit": false,
      "t": 110000.09899999974,
      "d": 122.28271875000792,
      "v": 93
    },
    {
      "midi": 69,
      "hit": false,
      "t": 110000.09899999974,
      "d": 122.28271875000792,
      "v": 98
    },
    {
      "midi": 50,
      "hit": false,
      "t": 110000.09899999974,
      "d": 129.07620312500512,
      "v": 93
    },
    {
      "midi": 62,
      "hit": false,
      "t": 110217.49049999974,
      "d": 108.69574999999895,
      "v": 72
    },
    {
      "midi": 50,
      "hit": false,
      "t": 110434.88199999974,
      "d": 230.97846874999232,
      "v": 102
    },
    {
      "midi": 57,
      "hit": false,
      "t": 110434.88199999974,
      "d": 237.77195312498952,
      "v": 89
    },
    {
      "midi": 62,
      "hit": false,
      "t": 110652.27349999973,
      "d": 72.46383333332778,
      "v": 107
    },
    {
      "midi": 69,
      "hit": false,
      "t": 110652.27349999973,
      "d": 101.9022656249872,
      "v": 107
    },
    {
      "midi": 50,
      "hit": false,
      "t": 110869.66499999972,
      "d": 22.644947916662204,
      "v": 34
    },
    {
      "midi": 57,
      "hit": false,
      "t": 110869.66499999972,
      "d": 49.81888541666558,
      "v": 55
    },
    {
      "midi": 50,
      "hit": false,
      "t": 111087.05649999972,
      "d": 217.3914999999979,
      "v": 113
    },
    {
      "midi": 57,
      "hit": false,
      "t": 111087.05649999972,
      "d": 217.3914999999979,
      "v": 98
    },
    {
      "midi": 55,
      "hit": false,
      "t": 111304.44799999971,
      "d": 289.8553333333257,
      "v": 72
    },
    {
      "midi": 62,
      "hit": false,
      "t": 111304.44799999971,
      "d": 310.23578645833186,
      "v": 93
    },
    {
      "midi": 59,
      "hit": false,
      "t": 111304.44799999971,
      "d": 312.50028125000244,
      "v": 85
    },
    {
      "midi": 43,
      "hit": false,
      "t": 111304.44799999971,
      "d": 457.42794791667257,
      "v": 98
    },
    {
      "midi": 50,
      "hit": false,
      "t": 111304.44799999971,
      "d": 468.75042187501094,
      "v": 93
    },
    {
      "midi": 55,
      "hit": false,
      "t": 111739.23099999972,
      "d": 203.8045312500035,
      "v": 93
    },
    {
      "midi": 43,
      "hit": false,
      "t": 111956.62249999972,
      "d": 493.6598645833292,
      "v": 107
    },
    {
      "midi": 62,
      "hit": false,
      "t": 112174.01399999972,
      "d": 76.99282291666896,
      "v": 72
    },
    {
      "midi": 59,
      "hit": false,
      "t": 112174.01399999972,
      "d": 81.52181249999558,
      "v": 80
    },
    {
      "midi": 53,
      "hit": false,
      "t": 112174.01399999972,
      "d": 101.90226562500175,
      "v": 76
    },
    {
      "midi": 53,
      "hit": false,
      "t": 112391.40549999972,
      "d": 156.2501406250085,
      "v": 93
    },
    {
      "midi": 59,
      "hit": false,
      "t": 112391.40549999972,
      "d": 172.1016041666735,
      "v": 102
    },
    {
      "midi": 62,
      "hit": false,
      "t": 112391.40549999972,
      "d": 181.1595833333413,
      "v": 102
    },
    {
      "midi": 43,
      "hit": false,
      "t": 112608.79699999973,
      "d": 774.4572187500016,
      "v": 93
    },
    {
      "midi": 55,
      "hit": false,
      "t": 112826.18849999973,
      "d": 317.02927083332906,
      "v": 93
    },
    {
      "midi": 59,
      "hit": false,
      "t": 112826.18849999973,
      "d": 471.014916666667,
      "v": 107
    },
    {
      "midi": 62,
      "hit": false,
      "t": 112826.18849999973,
      "d": 529.8917812500003,
      "v": 102
    },
    {
      "midi": 50,
      "hit": false,
      "t": 113043.57999999973,
      "d": 115.48923437499616,
      "v": 98
    },
    {
      "midi": 55,
      "hit": false,
      "t": 113260.97149999972,
      "d": 106.43125520834292,
      "v": 60
    },
    {
      "midi": 55,
      "hit": false,
      "t": 113478.36299999974,
      "d": 169.8371093750029,
      "v": 93
    },
    {
      "midi": 62,
      "hit": false,
      "t": 113478.36299999974,
      "d": 174.36609895832953,
      "v": 113
    },
    {
      "midi": 59,
      "hit": false,
      "t": 113478.36299999974,
      "d": 176.63059375000012,
      "v": 102
    },
    {
      "midi": 43,
      "hit": false,
      "t": 113695.75449999973,
      "d": 751.8122708333249,
      "v": 93
    },
    {
      "midi": 59,
      "hit": false,
      "t": 113913.14599999973,
      "d": 58.87686458333337,
      "v": 93
    },
    {
      "midi": 55,
      "hit": false,
      "t": 113913.14599999973,
      "d": 72.46383333332778,
      "v": 80
    },
    {
      "midi": 62,
      "hit": false,
      "t": 113913.14599999973,
      "d": 72.46383333332778,
      "v": 93
    },
    {
      "midi": 55,
      "hit": false,
      "t": 114130.53749999973,
      "d": 172.1016041666735,
      "v": 98
    },
    {
      "midi": 59,
      "hit": false,
      "t": 114130.53749999973,
      "d": 176.63059375000012,
      "v": 107
    },
    {
      "midi": 62,
      "hit": false,
      "t": 114130.53749999973,
      "d": 178.8950885416707,
      "v": 113
    },
    {
      "midi": 50,
      "hit": false,
      "t": 114347.92899999973,
      "d": 99.63777083333116,
      "v": 98
    },
    {
      "midi": 43,
      "hit": false,
      "t": 114565.32049999973,
      "d": 760.8702500000072,
      "v": 93
    },
    {
      "midi": 50,
      "hit": false,
      "t": 114782.71199999972,
      "d": 518.5693072916765,
      "v": 107
    },
    {
      "midi": 67,
      "hit": false,
      "t": 115217.49499999973,
      "d": 190.21756249999453,
      "v": 107
    },
    {
      "midi": 59,
      "hit": false,
      "t": 115217.49499999973,
      "d": 212.86251041665673,
      "v": 98
    },
    {
      "midi": 62,
      "hit": false,
      "t": 115217.49499999973,
      "d": 240.03644791664556,
      "v": 107
    },
    {
      "midi": 43,
      "hit": false,
      "t": 115434.88649999972,
      "d": 690.6709114583209,
      "v": 93
    },
    {
      "midi": 62,
      "hit": false,
      "t": 115652.2779999997,
      "d": 92.84428645833395,
      "v": 107
    },
    {
      "midi": 59,
      "hit": false,
      "t": 115652.2779999997,
      "d": 99.63777083333116,
      "v": 89
    },
    {
      "midi": 65,
      "hit": false,
      "t": 115652.2779999997,
      "d": 106.43125520832837,
      "v": 98
    },
    {
      "midi": 59,
      "hit": false,
      "t": 115869.6694999997,
      "d": 253.62341666666907,
      "v": 102
    },
    {
      "midi": 65,
      "hit": false,
      "t": 115869.6694999997,
      "d": 330.61623958333803,
      "v": 102
    },
    {
      "midi": 62,
      "hit": false,
      "t": 115869.6694999997,
      "d": 344.20320833333244,
      "v": 119
    },
    {
      "midi": 50,
      "hit": false,
      "t": 116087.0609999997,
      "d": 90.57979166667792,
      "v": 93
    },
    {
      "midi": 59,
      "hit": false,
      "t": 116304.4524999997,
      "d": 99.63777083333116,
      "v": 93
    },
    {
      "midi": 57,
      "hit": false,
      "t": 116521.84399999969,
      "d": 289.8553333333257,
      "v": 89
    },
    {
      "midi": 50,
      "hit": false,
      "t": 116521.84399999969,
      "d": 323.82275520832627,
      "v": 98
    },
    {
      "midi": 62,
      "hit": false,
      "t": 116739.23549999969,
      "d": 120.01822395832278,
      "v": 107
    },
    {
      "midi": 66,
      "hit": false,
      "t": 116739.23549999969,
      "d": 140.39867708332895,
      "v": 98
    },
    {
      "midi": 57,
      "hit": false,
      "t": 117174.01849999969,
      "d": 280.7973541666579,
      "v": 98
    },
    {
      "midi": 50,
      "hit": false,
      "t": 117174.01849999969,
      "d": 298.9133124999935,
      "v": 102
    },
    {
      "midi": 66,
      "hit": false,
      "t": 117391.40999999968,
      "d": 208.3335208333301,
      "v": 89
    },
    {
      "midi": 62,
      "hit": false,
      "t": 117391.40999999968,
      "d": 264.9458906249929,
      "v": 93
    },
    {
      "midi": 50,
      "hit": false,
      "t": 117608.80149999968,
      "d": 303.44230208333465,
      "v": 102
    },
    {
      "midi": 57,
      "hit": false,
      "t": 117608.80149999968,
      "d": 307.9712916666613,
      "v": 80
    },
    {
      "midi": 64,
      "hit": false,
      "t": 117826.19299999968,
      "d": 190.21756249999453,
      "v": 107
    },
    {
      "midi": 69,
      "hit": false,
      "t": 117826.19299999968,
      "d": 206.06902604165953,
      "v": 93
    },
    {
      "midi": 62,
      "hit": false,
      "t": 118043.58449999968,
      "d": 97.37327604166057,
      "v": 113
    },
    {
      "midi": 55,
      "hit": false,
      "t": 118260.97599999967,
      "d": 319.29376562499965,
      "v": 93
    },
    {
      "midi": 59,
      "hit": false,
      "t": 118260.97599999967,
      "d": 468.7504218749964,
      "v": 102
    },
    {
      "midi": 43,
      "hit": false,
      "t": 118260.97599999967,
      "d": 509.5113281249942,
      "v": 98
    },
    {
      "midi": 50,
      "hit": false,
      "t": 118260.97599999967,
      "d": 518.569307291662,
      "v": 98
    },
    {
      "midi": 55,
      "hit": false,
      "t": 118695.75899999967,
      "d": 217.3914999999979,
      "v": 93
    },
    {
      "midi": 50,
      "hit": false,
      "t": 119130.54199999967,
      "d": 83.78630729166616,
      "v": 89
    },
    {
      "midi": 43,
      "hit": false,
      "t": 119130.54199999967,
      "d": 86.05080208333675,
      "v": 93
    },
    {
      "midi": 43,
      "hit": false,
      "t": 119347.93349999966,
      "d": 258.1524062499957,
      "v": 98
    },
    {
      "midi": 50,
      "hit": false,
      "t": 119347.93349999966,
      "d": 262.6813958333223,
      "v": 93
    },
    {
      "midi": 62,
      "hit": false,
      "t": 119456.62924999966,
      "d": 353.26118750000023,
      "v": 93
    },
    {
      "midi": 55,
      "hit": false,
      "t": 119565.32499999966,
      "d": 312.50028125000244,
      "v": 64
    },
    {
      "midi": 50,
      "hit": false,
      "t": 119782.71649999966,
      "d": 552.5367291666626,
      "v": 93
    },
    {
      "midi": 43,
      "hit": false,
      "t": 119782.71649999966,
      "d": 593.2976354166603,
      "v": 98
    },
    {
      "midi": 67,
      "hit": false,
      "t": 120000.10799999966,
      "d": 95.10878125000454,
      "v": 89
    },
    {
      "midi": 55,
      "hit": false,
      "t": 120000.10799999966,
      "d": 101.90226562500175,
      "v": 60
    },
    {
      "midi": 62,
      "hit": false,
      "t": 120000.10799999966,
      "d": 115.48923437499616,
      "v": 102
    },
    {
      "midi": 67,
      "hit": false,
      "t": 120217.49949999966,
      "d": 210.5980156250007,
      "v": 107
    },
    {
      "midi": 55,
      "hit": false,
      "t": 120217.49949999966,
      "d": 217.3914999999979,
      "v": 93
    },
    {
      "midi": 62,
      "hit": false,
      "t": 120217.49949999966,
      "d": 226.4494791666657,
      "v": 113
    },
    {
      "midi": 50,
      "hit": false,
      "t": 120434.89099999965,
      "d": 104.16676041667233,
      "v": 60
    },
    {
      "midi": 43,
      "hit": false,
      "t": 120434.89099999965,
      "d": 113.22473958334012,
      "v": 62
    },
    {
      "midi": 55,
      "hit": false,
      "t": 120652.28249999967,
      "d": 452.8989583333314,
      "v": 89
    },
    {
      "midi": 67,
      "hit": false,
      "t": 120652.28249999967,
      "d": 484.6018854166614,
      "v": 102
    },
    {
      "midi": 62,
      "hit": false,
      "t": 120652.28249999967,
      "d": 486.866380208332,
      "v": 107
    },
    {
      "midi": 43,
      "hit": false,
      "t": 121087.06549999966,
      "d": 190.21756250000908,
      "v": 102
    },
    {
      "midi": 50,
      "hit": false,
      "t": 121087.06549999966,
      "d": 226.44947916668025,
      "v": 85
    },
    {
      "midi": 55,
      "hit": false,
      "t": 121304.45699999967,
      "d": 144.92766666667012,
      "v": 98
    },
    {
      "midi": 50,
      "hit": false,
      "t": 121521.84849999967,
      "d": 83.78630729166616,
      "v": 113
    },
    {
      "midi": 43,
      "hit": false,
      "t": 121739.23999999967,
      "d": 484.60188541667594,
      "v": 113
    },
    {
      "midi": 50,
      "hit": false,
      "t": 121739.23999999967,
      "d": 498.18885416667035,
      "v": 113
    },
    {
      "midi": 67,
      "hit": false,
      "t": 122174.02299999968,
      "d": 165.30811979166174,
      "v": 107
    },
    {
      "midi": 62,
      "hit": false,
      "t": 122174.02299999968,
      "d": 185.6885729166679,
      "v": 119
    },
    {
      "midi": 55,
      "hit": false,
      "t": 122174.02299999968,
      "d": 244.56543750000128,
      "v": 98
    },
    {
      "midi": 43,
      "hit": false,
      "t": 122391.41449999968,
      "d": 99.63777083333116,
      "v": 89
    },
    {
      "midi": 50,
      "hit": false,
      "t": 122391.41449999968,
      "d": 99.63777083333116,
      "v": 89
    },
    {
      "midi": 55,
      "hit": false,
      "t": 122608.80599999968,
      "d": 97.37327604166057,
      "v": 89
    },
    {
      "midi": 62,
      "hit": false,
      "t": 122608.80599999968,
      "d": 108.69574999999895,
      "v": 107
    },
    {
      "midi": 65,
      "hit": false,
      "t": 122608.80599999968,
      "d": 117.75372916666674,
      "v": 102
    },
    {
      "midi": 43,
      "hit": false,
      "t": 122608.80599999968,
      "d": 335.14522916666465,
      "v": 93
    },
    {
      "midi": 50,
      "hit": false,
      "t": 122608.80599999968,
      "d": 344.20320833333244,
      "v": 93
    },
    {
      "midi": 55,
      "hit": false,
      "t": 122826.19749999967,
      "d": 289.8553333333257,
      "v": 93
    },
    {
      "midi": 62,
      "hit": false,
      "t": 122826.19749999967,
      "d": 296.6488177083229,
      "v": 119
    },
    {
      "midi": 65,
      "hit": false,
      "t": 122826.19749999967,
      "d": 298.9133124999935,
      "v": 113
    },
    {
      "midi": 43,
      "hit": false,
      "t": 123043.58899999967,
      "d": 235.5074583333335,
      "v": 102
    },
    {
      "midi": 50,
      "hit": false,
      "t": 123043.58899999967,
      "d": 242.3009427083307,
      "v": 93
    },
    {
      "midi": 62,
      "hit": false,
      "t": 123260.98049999967,
      "d": 92.84428645833395,
      "v": 113
    },
    {
      "midi": 55,
      "hit": false,
      "t": 123260.98049999967,
      "d": 95.10878125000454,
      "v": 102
    },
    {
      "midi": 65,
      "hit": false,
      "t": 123260.98049999967,
      "d": 108.69574999999895,
      "v": 113
    },
    {
      "midi": 45,
      "hit": false,
      "t": 123478.37199999967,
      "d": 1494.5665624999965,
      "v": 85
    },
    {
      "midi": 57,
      "hit": false,
      "t": 123478.37199999967,
      "d": 1639.4942291666666,
      "v": 89
    },
    {
      "midi": 52,
      "hit": false,
      "t": 123478.37199999967,
      "d": 1641.7587239583372,
      "v": 60
    },
    {
      "midi": 52,
      "hit": false,
      "t": 133913.16399999967,
      "d": 400.8155781250098,
      "v": 76
    },
    {
      "midi": 40,
      "hit": false,
      "t": 133913.16399999967,
      "d": 552.5367291666626,
      "v": 76
    },
    {
      "midi": 52,
      "hit": false,
      "t": 134565.33849999966,
      "d": 90.57979166667792,
      "v": 68
    },
    {
      "midi": 52,
      "hit": false,
      "t": 134782.72999999966,
      "d": 99.63777083333116,
      "v": 85
    },
    {
      "midi": 45,
      "hit": false,
      "t": 135652.29599999965,
      "d": 90.57979166667792,
      "v": 68
    },
    {
      "midi": 64,
      "hit": false,
      "t": 135652.29599999965,
      "d": 90.57979166667792,
      "v": 72
    },
    {
      "midi": 57,
      "hit": false,
      "t": 135652.29599999965,
      "d": 99.63777083333116,
      "v": 56
    },
    {
      "midi": 52,
      "hit": false,
      "t": 135652.29599999965,
      "d": 104.16676041667233,
      "v": 76
    },
    {
      "midi": 52,
      "hit": false,
      "t": 135869.68749999965,
      "d": 117.75372916666674,
      "v": 98
    },
    {
      "midi": 64,
      "hit": false,
      "t": 135869.68749999965,
      "d": 117.75372916666674,
      "v": 107
    },
    {
      "midi": 45,
      "hit": false,
      "t": 135869.68749999965,
      "d": 120.01822395832278,
      "v": 98
    },
    {
      "midi": 57,
      "hit": false,
      "t": 135869.68749999965,
      "d": 129.07620312497602,
      "v": 93
    },
    {
      "midi": 52,
      "hit": false,
      "t": 136087.07899999962,
      "d": 90.57979166667792,
      "v": 107
    },
    {
      "midi": 45,
      "hit": false,
      "t": 136087.07899999962,
      "d": 117.75372916666674,
      "v": 113
    },
    {
      "midi": 64,
      "hit": false,
      "t": 136087.07899999962,
      "d": 117.75372916666674,
      "v": 107
    },
    {
      "midi": 69,
      "hit": false,
      "t": 136087.07899999962,
      "d": 117.75372916666674,
      "v": 102
    },
    {
      "midi": 57,
      "hit": false,
      "t": 136087.07899999962,
      "d": 126.81170833331998,
      "v": 93
    },
    {
      "midi": 52,
      "hit": false,
      "t": 136304.47049999962,
      "d": 90.57979166667792,
      "v": 107
    },
    {
      "midi": 64,
      "hit": false,
      "t": 136304.47049999962,
      "d": 90.57979166667792,
      "v": 113
    },
    {
      "midi": 57,
      "hit": false,
      "t": 136304.47049999962,
      "d": 99.63777083333116,
      "v": 93
    },
    {
      "midi": 69,
      "hit": false,
      "t": 136304.47049999962,
      "d": 106.43125520832837,
      "v": 113
    },
    {
      "midi": 45,
      "hit": false,
      "t": 136304.47049999962,
      "d": 113.22473958332557,
      "v": 113
    },
    {
      "midi": 57,
      "hit": false,
      "t": 136521.86199999962,
      "d": 106.43125520835747,
      "v": 107
    },
    {
      "midi": 64,
      "hit": false,
      "t": 136521.86199999962,
      "d": 120.01822395835188,
      "v": 107
    },
    {
      "midi": 69,
      "hit": false,
      "t": 136521.86199999962,
      "d": 144.92766666668467,
      "v": 107
    },
    {
      "midi": 45,
      "hit": false,
      "t": 136521.86199999962,
      "d": 235.5074583333626,
      "v": 113
    },
    {
      "midi": 52,
      "hit": false,
      "t": 136521.86199999962,
      "d": 235.5074583333626,
      "v": 119
    },
    {
      "midi": 57,
      "hit": false,
      "t": 136739.25349999964,
      "d": 117.75372916666674,
      "v": 93
    },
    {
      "midi": 52,
      "hit": false,
      "t": 136956.64499999964,
      "d": 194.74655208332115,
      "v": 119
    },
    {
      "midi": 45,
      "hit": false,
      "t": 136956.64499999964,
      "d": 199.27554166666232,
      "v": 127
    },
    {
      "midi": 57,
      "hit": false,
      "t": 137174.03649999964,
      "d": 88.31529687499278,
      "v": 107
    },
    {
      "midi": 64,
      "hit": false,
      "t": 137174.03649999964,
      "d": 90.57979166664882,
      "v": 113
    },
    {
      "midi": 69,
      "hit": false,
      "t": 137174.03649999964,
      "d": 108.6957499999844,
      "v": 107
    },
    {
      "midi": 62,
      "hit": false,
      "t": 137391.42799999964,
      "d": 312.500281250017,
      "v": 107
    },
    {
      "midi": 50,
      "hit": false,
      "t": 137391.42799999964,
      "d": 407.609062500007,
      "v": 107
    },
    {
      "midi": 57,
      "hit": false,
      "t": 137391.42799999964,
      "d": 409.873557291663,
      "v": 102
    },
    {
      "midi": 66,
      "hit": false,
      "t": 137826.21099999963,
      "d": 405.34456770832185,
      "v": 98
    },
    {
      "midi": 62,
      "hit": false,
      "t": 137826.21099999963,
      "d": 418.93153645831626,
      "v": 102
    },
    {
      "midi": 50,
      "hit": false,
      "t": 138260.99399999963,
      "d": 126.81170833331998,
      "v": 93
    },
    {
      "midi": 57,
      "hit": false,
      "t": 138260.99399999963,
      "d": 133.6051927083172,
      "v": 89
    },
    {
      "midi": 62,
      "hit": false,
      "t": 138478.38549999963,
      "d": 151.72115104165277,
      "v": 98
    },
    {
      "midi": 50,
      "hit": false,
      "t": 138478.38549999963,
      "d": 221.92048958330997,
      "v": 107
    },
    {
      "midi": 57,
      "hit": false,
      "t": 138478.38549999963,
      "d": 226.44947916665114,
      "v": 93
    },
    {
      "midi": 50,
      "hit": false,
      "t": 138913.16849999962,
      "d": 332.8807343749795,
      "v": 102
    },
    {
      "midi": 57,
      "hit": false,
      "t": 138913.16849999962,
      "d": 344.2032083333179,
      "v": 93
    },
    {
      "midi": 62,
      "hit": false,
      "t": 138913.16849999962,
      "d": 344.2032083333179,
      "v": 98
    },
    {
      "midi": 57,
      "hit": false,
      "t": 139347.95149999962,
      "d": 178.8950885416707,
      "v": 85
    },
    {
      "midi": 50,
      "hit": false,
      "t": 139347.95149999962,
      "d": 249.0944270833279,
      "v": 93
    },
    {
      "midi": 69,
      "hit": false,
      "t": 139565.34299999962,
      "d": 172.1016041666735,
      "v": 98
    },
    {
      "midi": 62,
      "hit": false,
      "t": 139565.34299999962,
      "d": 203.8045312500035,
      "v": 76
    },
    {
      "midi": 57,
      "hit": false,
      "t": 139782.7344999996,
      "d": 197.0110468750063,
      "v": 89
    },
    {
      "midi": 62,
      "hit": false,
      "t": 140000.1259999996,
      "d": 120.01822395832278,
      "v": 93
    },
    {
      "midi": 62,
      "hit": false,
      "t": 140217.5174999996,
      "d": 70.1993385416572,
      "v": 56
    },
    {
      "midi": 57,
      "hit": false,
      "t": 140217.5174999996,
      "d": 305.7067968749907,
      "v": 98
    },
    {
      "midi": 50,
      "hit": false,
      "t": 140217.5174999996,
      "d": 307.9712916666467,
      "v": 102
    },
    {
      "midi": 62,
      "hit": false,
      "t": 140434.9089999996,
      "d": 81.52181249999558,
      "v": 62
    },
    {
      "midi": 57,
      "hit": false,
      "t": 140652.30049999958,
      "d": 63.40585416665999,
      "v": 72
    },
    {
      "midi": 66,
      "hit": false,
      "t": 140652.30049999958,
      "d": 72.46383333331323,
      "v": 89
    },
    {
      "midi": 50,
      "hit": false,
      "t": 140652.30049999958,
      "d": 74.72832812496927,
      "v": 89
    },
    {
      "midi": 62,
      "hit": false,
      "t": 140652.30049999958,
      "d": 86.05080208330764,
      "v": 98
    },
    {
      "midi": 50,
      "hit": false,
      "t": 140869.69199999954,
      "d": 344.203208333347,
      "v": 107
    },
    {
      "midi": 62,
      "hit": false,
      "t": 140869.69199999954,
      "d": 344.203208333347,
      "v": 93
    },
    {
      "midi": 57,
      "hit": false,
      "t": 140869.69199999954,
      "d": 362.3191666666826,
      "v": 93
    },
    {
      "midi": 66,
      "hit": false,
      "t": 141304.47499999957,
      "d": 72.46383333331323,
      "v": 89
    },
    {
      "midi": 62,
      "hit": false,
      "t": 141304.47499999957,
      "d": 101.9022656249872,
      "v": 107
    },
    {
      "midi": 50,
      "hit": false,
      "t": 141304.47499999957,
      "d": 135.86968749997322,
      "v": 102
    },
    {
      "midi": 57,
      "hit": false,
      "t": 141304.47499999957,
      "d": 199.27554166663322,
      "v": 89
    },
    {
      "midi": 62,
      "hit": false,
      "t": 141521.86649999954,
      "d": 72.46383333334234,
      "v": 62
    },
    {
      "midi": 66,
      "hit": false,
      "t": 141739.25799999954,
      "d": 81.52181249999558,
      "v": 80
    },
    {
      "midi": 62,
      "hit": false,
      "t": 141739.25799999954,
      "d": 97.37327604167513,
      "v": 93
    },
    {
      "midi": 57,
      "hit": false,
      "t": 141739.25799999954,
      "d": 258.15240625001024,
      "v": 89
    },
    {
      "midi": 50,
      "hit": false,
      "t": 141739.25799999954,
      "d": 380.43512500001816,
      "v": 93
    },
    {
      "midi": 62,
      "hit": false,
      "t": 141956.64949999953,
      "d": 163.04362500002026,
      "v": 93
    },
    {
      "midi": 66,
      "hit": false,
      "t": 141956.64949999953,
      "d": 228.7139739583654,
      "v": 93
    },
    {
      "midi": 62,
      "hit": false,
      "t": 142391.43249999956,
      "d": 95.10878124998999,
      "v": 113
    },
    {
      "midi": 52,
      "hit": false,
      "t": 142608.82399999953,
      "d": 332.8807343750086,
      "v": 98
    },
    {
      "midi": 45,
      "hit": false,
      "t": 142608.82399999953,
      "d": 380.43512499998906,
      "v": 113
    },
    {
      "midi": 64,
      "hit": false,
      "t": 142826.21549999953,
      "d": 142.66317187499953,
      "v": 102
    },
    {
      "midi": 61,
      "hit": false,
      "t": 142826.21549999953,
      "d": 144.92766666665557,
      "v": 93
    },
    {
      "midi": 57,
      "hit": false,
      "t": 142826.21549999953,
      "d": 163.04362499999115,
      "v": 93
    },
    {
      "midi": 64,
      "hit": false,
      "t": 143260.99849999952,
      "d": 298.9133125000226,
      "v": 107
    },
    {
      "midi": 59,
      "hit": false,
      "t": 143260.99849999952,
      "d": 312.500281250017,
      "v": 102
    },
    {
      "midi": 52,
      "hit": false,
      "t": 143260.99849999952,
      "d": 527.6272864583589,
      "v": 93
    },
    {
      "midi": 45,
      "hit": false,
      "t": 143260.99849999952,
      "d": 740.4897968749865,
      "v": 102
    },
    {
      "midi": 57,
      "hit": false,
      "t": 143369.69424999953,
      "d": 165.3081197916763,
      "v": 9
    },
    {
      "midi": 57,
      "hit": false,
      "t": 143695.78149999955,
      "d": 120.01822395832278,
      "v": 98
    },
    {
      "midi": 59,
      "hit": false,
      "t": 143695.78149999955,
      "d": 153.9856458333088,
      "v": 113
    },
    {
      "midi": 64,
      "hit": false,
      "t": 143695.78149999955,
      "d": 174.36609895830043,
      "v": 102
    },
    {
      "midi": 57,
      "hit": false,
      "t": 143913.17299999952,
      "d": 106.43125520832837,
      "v": 55
    },
    {
      "midi": 61,
      "hit": false,
      "t": 143913.17299999952,
      "d": 153.9856458333379,
      "v": 72
    },
    {
      "midi": 52,
      "hit": false,
      "t": 144130.5644999995,
      "d": 113.22473958332557,
      "v": 102
    },
    {
      "midi": 64,
      "hit": false,
      "t": 144347.9559999995,
      "d": 328.35174479166744,
      "v": 89
    },
    {
      "midi": 61,
      "hit": false,
      "t": 144347.9559999995,
      "d": 341.93871354166185,
      "v": 89
    },
    {
      "midi": 57,
      "hit": false,
      "t": 144347.9559999995,
      "d": 353.26118750000023,
      "v": 80
    },
    {
      "midi": 45,
      "hit": false,
      "t": 144347.9559999995,
      "d": 749.547776041698,
      "v": 93
    },
    {
      "midi": 61,
      "hit": false,
      "t": 144782.7389999995,
      "d": 183.42407812501187,
      "v": 93
    },
    {
      "midi": 64,
      "hit": false,
      "t": 144782.7389999995,
      "d": 206.06902604168863,
      "v": 93
    },
    {
      "midi": 57,
      "hit": false,
      "t": 144782.7389999995,
      "d": 230.97846875002142,
      "v": 89
    },
    {
      "midi": 52,
      "hit": false,
      "t": 145000.13049999953,
      "d": 129.07620312500512,
      "v": 85
    },
    {
      "midi": 59,
      "hit": false,
      "t": 145217.52199999953,
      "d": 115.48923437501071,
      "v": 89
    },
    {
      "midi": 64,
      "hit": false,
      "t": 145217.52199999953,
      "d": 124.54721354166395,
      "v": 85
    },
    {
      "midi": 62,
      "hit": false,
      "t": 145217.52199999953,
      "d": 135.86968750000233,
      "v": 89
    },
    {
      "midi": 61,
      "hit": false,
      "t": 145434.91349999953,
      "d": 172.1016041666735,
      "v": 89
    },
    {
      "midi": 64,
      "hit": false,
      "t": 145434.91349999953,
      "d": 176.63059375001467,
      "v": 76
    },
    {
      "midi": 57,
      "hit": false,
      "t": 145434.91349999953,
      "d": 201.54003645834746,
      "v": 80
    },
    {
      "midi": 45,
      "hit": false,
      "t": 145652.30499999956,
      "d": 72.46383333334234,
      "v": 80
    },
    {
      "midi": 52,
      "hit": false,
      "t": 145652.30499999956,
      "d": 104.16676041667233,
      "v": 85
    },
    {
      "midi": 52,
      "hit": false,
      "t": 145869.69649999955,
      "d": 319.2937656250142,
      "v": 72
    },
    {
      "midi": 61,
      "hit": false,
      "t": 145869.69649999955,
      "d": 495.92435937502887,
      "v": 93
    },
    {
      "midi": 64,
      "hit": false,
      "t": 145869.69649999955,
      "d": 498.1888541666849,
      "v": 102
    },
    {
      "midi": 57,
      "hit": false,
      "t": 145869.69649999955,
      "d": 516.3048125000205,
      "v": 93
    },
    {
      "midi": 45,
      "hit": false,
      "t": 145869.69649999955,
      "d": 912.5914010416891,
      "v": 102
    },
    {
      "midi": 52,
      "hit": false,
      "t": 146304.47949999958,
      "d": 264.94589062500745,
      "v": 89
    },
    {
      "midi": 64,
      "hit": false,
      "t": 146521.87099999958,
      "d": 208.33352083334466,
      "v": 102
    },
    {
      "midi": 59,
      "hit": false,
      "t": 146521.87099999958,
      "d": 230.97846874999232,
      "v": 113
    },
    {
      "midi": 52,
      "hit": false,
      "t": 146739.26249999958,
      "d": 99.63777083333116,
      "v": 93
    },
    {
      "midi": 64,
      "hit": false,
      "t": 146956.65399999957,
      "d": 135.86968750000233,
      "v": 89
    },
    {
      "midi": 59,
      "hit": false,
      "t": 146956.65399999957,
      "d": 172.1016041666735,
      "v": 102
    },
    {
      "midi": 52,
      "hit": false,
      "t": 146956.65399999957,
      "d": 344.2032083333179,
      "v": 80
    },
    {
      "midi": 57,
      "hit": false,
      "t": 146956.65399999957,
      "d": 400.8155781249807,
      "v": 93
    },
    {
      "midi": 45,
      "hit": false,
      "t": 146956.65399999957,
      "d": 443.84097916661995,
      "v": 93
    },
    {
      "midi": 64,
      "hit": false,
      "t": 147174.04549999957,
      "d": 153.9856458333088,
      "v": 85
    },
    {
      "midi": 61,
      "hit": false,
      "t": 147174.04549999957,
      "d": 169.83710937498836,
      "v": 89
    },
    {
      "midi": 52,
      "hit": false,
      "t": 147391.43699999954,
      "d": 101.9022656249872,
      "v": 98
    },
    {
      "midi": 57,
      "hit": false,
      "t": 147608.82849999954,
      "d": 398.55108333332464,
      "v": 89
    },
    {
      "midi": 52,
      "hit": false,
      "t": 147608.82849999954,
      "d": 552.5367291666626,
      "v": 93
    },
    {
      "midi": 45,
      "hit": false,
      "t": 147608.82849999954,
      "d": 554.8012239583186,
      "v": 98
    },
    {
      "midi": 57,
      "hit": false,
      "t": 148043.61149999953,
      "d": 129.07620312497602,
      "v": 98
    },
    {
      "midi": 61,
      "hit": false,
      "t": 148261.0029999995,
      "d": 181.15958333332674,
      "v": 93
    },
    {
      "midi": 64,
      "hit": false,
      "t": 148261.0029999995,
      "d": 185.6885729166679,
      "v": 98
    },
    {
      "midi": 57,
      "hit": false,
      "t": 148261.0029999995,
      "d": 228.71397395833628,
      "v": 76
    },
    {
      "midi": 52,
      "hit": false,
      "t": 148478.3944999995,
      "d": 298.9133124999935,
      "v": 89
    },
    {
      "midi": 61,
      "hit": false,
      "t": 148695.7859999995,
      "d": 92.84428645833395,
      "v": 93
    },
    {
      "midi": 64,
      "hit": false,
      "t": 148695.7859999995,
      "d": 95.10878124998999,
      "v": 98
    },
    {
      "midi": 57,
      "hit": false,
      "t": 148695.7859999995,
      "d": 101.9022656249872,
      "v": 89
    },
    {
      "midi": 57,
      "hit": false,
      "t": 148913.1774999995,
      "d": 244.56543750001583,
      "v": 102
    },
    {
      "midi": 61,
      "hit": false,
      "t": 148913.1774999995,
      "d": 380.43512500001816,
      "v": 107
    },
    {
      "midi": 64,
      "hit": false,
      "t": 148913.1774999995,
      "d": 464.2214322916989,
      "v": 107
    },
    {
      "midi": 57,
      "hit": false,
      "t": 149347.96049999952,
      "d": 108.6957500000135,
      "v": 98
    },
    {
      "midi": 50,
      "hit": false,
      "t": 149565.35199999952,
      "d": 90.57979166667792,
      "v": 107
    },
    {
      "midi": 62,
      "hit": false,
      "t": 149565.35199999952,
      "d": 90.57979166667792,
      "v": 107
    },
    {
      "midi": 50,
      "hit": false,
      "t": 149782.74349999952,
      "d": 197.0110468750063,
      "v": 107
    },
    {
      "midi": 62,
      "hit": false,
      "t": 149782.74349999952,
      "d": 242.3009427083307,
      "v": 113
    },
    {
      "midi": 60,
      "hit": false,
      "t": 150000.1349999995,
      "d": 90.57979166667792,
      "v": 102
    },
    {
      "midi": 48,
      "hit": false,
      "t": 150000.1349999995,
      "d": 97.37327604167513,
      "v": 89
    },
    {
      "midi": 60,
      "hit": false,
      "t": 150217.5264999995,
      "d": 95.10878124998999,
      "v": 107
    },
    {
      "midi": 48,
      "hit": false,
      "t": 150217.5264999995,
      "d": 117.75372916666674,
      "v": 102
    },
    {
      "midi": 59,
      "hit": false,
      "t": 150434.9179999995,
      "d": 99.63777083333116,
      "v": 113
    },
    {
      "midi": 59,
      "hit": false,
      "t": 150652.3094999995,
      "d": 224.1849843749951,
      "v": 107
    },
    {
      "midi": 57,
      "hit": false,
      "t": 150869.7009999995,
      "d": 90.57979166667792,
      "v": 107
    },
    {
      "midi": 57,
      "hit": false,
      "t": 151087.0924999995,
      "d": 151.72115104165277,
      "v": 107
    },
    {
      "midi": 50,
      "hit": false,
      "t": 151304.4839999995,
      "d": 389.4931041666714,
      "v": 98
    },
    {
      "midi": 50,
      "hit": false,
      "t": 151739.2669999995,
      "d": 153.9856458333379,
      "v": 107
    },
    {
      "midi": 66,
      "hit": false,
      "t": 151739.2669999995,
      "d": 169.83710937501746,
      "v": 98
    },
    {
      "midi": 62,
      "hit": false,
      "t": 151739.2669999995,
      "d": 172.1016041666735,
      "v": 107
    },
    {
      "midi": 57,
      "hit": false,
      "t": 151739.2669999995,
      "d": 217.3914999999979,
      "v": 89
    },
    {
      "midi": 62,
      "hit": false,
      "t": 152174.0499999995,
      "d": 101.9022656249872,
      "v": 89
    },
    {
      "midi": 50,
      "hit": false,
      "t": 152174.0499999995,
      "d": 337.4097239583207,
      "v": 98
    },
    {
      "midi": 57,
      "hit": false,
      "t": 152174.0499999995,
      "d": 344.2032083333179,
      "v": 93
    },
    {
      "midi": 66,
      "hit": false,
      "t": 152391.4414999995,
      "d": 135.86968749997322,
      "v": 113
    },
    {
      "midi": 62,
      "hit": false,
      "t": 152391.4414999995,
      "d": 199.27554166663322,
      "v": 102
    },
    {
      "midi": 62,
      "hit": false,
      "t": 152826.22449999946,
      "d": 448.3699687499902,
      "v": 102
    },
    {
      "midi": 66,
      "hit": false,
      "t": 152826.22449999946,
      "d": 450.63446354164626,
      "v": 102
    },
    {
      "midi": 57,
      "hit": false,
      "t": 152826.22449999946,
      "d": 697.4643958333181,
      "v": 93
    },
    {
      "midi": 50,
      "hit": false,
      "t": 152826.22449999946,
      "d": 720.1093437499658,
      "v": 102
    },
    {
      "midi": 66,
      "hit": false,
      "t": 153478.39899999945,
      "d": 158.51463541664998,
      "v": 102
    },
    {
      "midi": 62,
      "hit": false,
      "t": 153478.39899999945,
      "d": 190.21756249997998,
      "v": 98
    },
    {
      "midi": 50,
      "hit": false,
      "t": 153695.79049999942,
      "d": 115.48923437501071,
      "v": 102
    },
    {
      "midi": 57,
      "hit": false,
      "t": 153695.79049999942,
      "d": 140.3986770833435,
      "v": 93
    },
    {
      "midi": 66,
      "hit": false,
      "t": 153913.18199999942,
      "d": 99.63777083333116,
      "v": 93
    },
    {
      "midi": 60,
      "hit": false,
      "t": 153913.18199999942,
      "d": 115.48923437501071,
      "v": 89
    },
    {
      "midi": 60,
      "hit": false,
      "t": 154130.57349999942,
      "d": 240.03644791667466,
      "v": 93
    },
    {
      "midi": 66,
      "hit": false,
      "t": 154130.57349999942,
      "d": 251.35892187501304,
      "v": 102
    },
    {
      "midi": 57,
      "hit": false,
      "t": 154347.9649999994,
      "d": 108.6957500000135,
      "v": 85
    },
    {
      "midi": 50,
      "hit": false,
      "t": 154347.9649999994,
      "d": 110.96024479166954,
      "v": 98
    },
    {
      "midi": 62,
      "hit": false,
      "t": 154565.3564999994,
      "d": 484.6018854166614,
      "v": 102
    },
    {
      "midi": 66,
      "hit": false,
      "t": 154565.3564999994,
      "d": 495.92435937499977,
      "v": 98
    },
    {
      "midi": 57,
      "hit": false,
      "t": 154565.3564999994,
      "d": 733.6963124999893,
      "v": 85
    },
    {
      "midi": 50,
      "hit": false,
      "t": 154565.3564999994,
      "d": 763.1347447916633,
      "v": 98
    },
    {
      "midi": 66,
      "hit": false,
      "t": 155217.5309999994,
      "d": 244.56543749998673,
      "v": 107
    },
    {
      "midi": 62,
      "hit": false,
      "t": 155217.5309999994,
      "d": 262.6813958333223,
      "v": 107
    },
    {
      "midi": 50,
      "hit": false,
      "t": 155434.9224999994,
      "d": 135.86968750000233,
      "v": 98
    },
    {
      "midi": 57,
      "hit": false,
      "t": 155434.9224999994,
      "d": 165.3081197916763,
      "v": 93
    },
    {
      "midi": 66,
      "hit": false,
      "t": 155652.3139999994,
      "d": 144.92766666665557,
      "v": 85
    },
    {
      "midi": 62,
      "hit": false,
      "t": 155652.3139999994,
      "d": 167.57261458333232,
      "v": 93
    },
    {
      "midi": 57,
      "hit": false,
      "t": 155869.7054999994,
      "d": 124.54721354166395,
      "v": 93
    },
    {
      "midi": 50,
      "hit": false,
      "t": 155869.7054999994,
      "d": 181.15958333332674,
      "v": 113
    },
    {
      "midi": 62,
      "hit": false,
      "t": 156087.0969999994,
      "d": 104.16676041667233,
      "v": 102
    },
    {
      "midi": 66,
      "hit": false,
      "t": 156087.0969999994,
      "d": 165.3081197916763,
      "v": 107
    },
    {
      "midi": 62,
      "hit": false,
      "t": 156304.4884999994,
      "d": 95.10878124998999,
      "v": 107
    },
    {
      "midi": 43,
      "hit": false,
      "t": 156521.8799999994,
      "d": 1227.356177083333,
      "v": 113
    },
    {
      "midi": 62,
      "hit": false,
      "t": 156739.2714999994,
      "d": 153.9856458333379,
      "v": 98
    },
    {
      "midi": 59,
      "hit": false,
      "t": 156739.2714999994,
      "d": 158.51463541667908,
      "v": 102
    },
    {
      "midi": 55,
      "hit": false,
      "t": 156739.2714999994,
      "d": 169.83710937501746,
      "v": 98
    },
    {
      "midi": 59,
      "hit": false,
      "t": 157174.05449999942,
      "d": 477.8084010416642,
      "v": 113
    },
    {
      "midi": 55,
      "hit": false,
      "t": 157174.05449999942,
      "d": 504.982338541653,
      "v": 107
    },
    {
      "midi": 62,
      "hit": false,
      "t": 157174.05449999942,
      "d": 507.24683333330904,
      "v": 113
    },
    {
      "midi": 50,
      "hit": false,
      "t": 157608.8374999994,
      "d": 172.1016041666444,
      "v": 113
    },
    {
      "midi": 57,
      "hit": false,
      "t": 157826.22899999938,
      "d": 210.5980156250007,
      "v": 107
    },
    {
      "midi": 62,
      "hit": false,
      "t": 157826.22899999938,
      "d": 296.64881770833745,
      "v": 113
    },
    {
      "midi": 55,
      "hit": false,
      "t": 158043.62049999938,
      "d": 92.84428645833395,
      "v": 107
    },
    {
      "midi": 57,
      "hit": false,
      "t": 158261.01199999938,
      "d": 353.26118750000023,
      "v": 93
    },
    {
      "midi": 52,
      "hit": false,
      "t": 158261.01199999938,
      "d": 529.8917812499858,
      "v": 102
    },
    {
      "midi": 45,
      "hit": false,
      "t": 158261.01199999938,
      "d": 552.5367291666626,
      "v": 102
    },
    {
      "midi": 57,
      "hit": false,
      "t": 158695.79499999937,
      "d": 101.9022656249872,
      "v": 98
    },
    {
      "midi": 52,
      "hit": false,
      "t": 158913.18649999937,
      "d": 83.78630729168071,
      "v": 72
    },
    {
      "midi": 57,
      "hit": false,
      "t": 159130.5779999994,
      "d": 49.81888541666558,
      "v": 39
    },
    {
      "midi": 57,
      "hit": false,
      "t": 159347.9694999994,
      "d": 253.62341666666907,
      "v": 98
    },
    {
      "midi": 61,
      "hit": false,
      "t": 159347.9694999994,
      "d": 262.6813958333223,
      "v": 93
    },
    {
      "midi": 52,
      "hit": false,
      "t": 159565.3609999994,
      "d": 280.7973541666579,
      "v": 85
    },
    {
      "midi": 45,
      "hit": false,
      "t": 159565.3609999994,
      "d": 991.8487187499995,
      "v": 93
    },
    {
      "midi": 57,
      "hit": false,
      "t": 159782.7524999994,
      "d": 355.52568229165627,
      "v": 93
    },
    {
      "midi": 52,
      "hit": false,
      "t": 160000.1439999994,
      "d": 520.8338020833326,
      "v": 89
    },
    {
      "midi": 64,
      "hit": false,
      "t": 160434.92699999938,
      "d": 190.21756250000908,
      "v": 107
    },
    {
      "midi": 61,
      "hit": false,
      "t": 160434.92699999938,
      "d": 192.48205729166511,
      "v": 102
    },
    {
      "midi": 57,
      "hit": false,
      "t": 160434.92699999938,
      "d": 208.33352083334466,
      "v": 98
    },
    {
      "midi": 52,
      "hit": false,
      "t": 160652.31849999938,
      "d": 135.86968750000233,
      "v": 76
    },
    {
      "midi": 45,
      "hit": false,
      "t": 160652.31849999938,
      "d": 172.1016041666735,
      "v": 89
    },
    {
      "midi": 64,
      "hit": false,
      "t": 160869.70999999938,
      "d": 86.05080208330764,
      "v": 85
    },
    {
      "midi": 61,
      "hit": false,
      "t": 160869.70999999938,
      "d": 106.43125520829926,
      "v": 85
    },
    {
      "midi": 55,
      "hit": false,
      "t": 160869.70999999938,
      "d": 108.6957499999553,
      "v": 76
    },
    {
      "midi": 55,
      "hit": false,
      "t": 161087.10149999935,
      "d": 160.77913020833512,
      "v": 93
    },
    {
      "midi": 61,
      "hit": false,
      "t": 161087.10149999935,
      "d": 172.1016041666735,
      "v": 98
    },
    {
      "midi": 64,
      "hit": false,
      "t": 161087.10149999935,
      "d": 172.1016041666735,
      "v": 107
    },
    {
      "midi": 52,
      "hit": false,
      "t": 161304.49299999935,
      "d": 88.31529687499278,
      "v": 98
    },
    {
      "midi": 45,
      "hit": false,
      "t": 161304.49299999935,
      "d": 110.96024479166954,
      "v": 113
    },
    {
      "midi": 57,
      "hit": false,
      "t": 161521.88449999935,
      "d": 307.9712916666467,
      "v": 89
    },
    {
      "midi": 61,
      "hit": false,
      "t": 161521.88449999935,
      "d": 332.8807343749795,
      "v": 93
    },
    {
      "midi": 64,
      "hit": false,
      "t": 161521.88449999935,
      "d": 364.5836614583095,
      "v": 93
    },
    {
      "midi": 52,
      "hit": false,
      "t": 161739.27599999934,
      "d": 332.8807343749795,
      "v": 93
    },
    {
      "midi": 45,
      "hit": false,
      "t": 161739.27599999934,
      "d": 335.14522916663554,
      "v": 102
    },
    {
      "midi": 64,
      "hit": false,
      "t": 162174.0589999993,
      "d": 176.63059374998556,
      "v": 107
    },
    {
      "midi": 61,
      "hit": false,
      "t": 162174.0589999993,
      "d": 181.15958333332674,
      "v": 98
    },
    {
      "midi": 57,
      "hit": false,
      "t": 162174.0589999993,
      "d": 192.48205729166511,
      "v": 93
    },
    {
      "midi": 45,
      "hit": false,
      "t": 162391.4504999993,
      "d": 49.81888541666558,
      "v": 72
    },
    {
      "midi": 52,
      "hit": false,
      "t": 162391.4504999993,
      "d": 86.05080208333675,
      "v": 89
    },
    {
      "midi": 64,
      "hit": false,
      "t": 162608.8419999993,
      "d": 54.34787500000675,
      "v": 93
    },
    {
      "midi": 61,
      "hit": false,
      "t": 162608.8419999993,
      "d": 56.612369791662786,
      "v": 93
    },
    {
      "midi": 57,
      "hit": false,
      "t": 162608.8419999993,
      "d": 72.46383333334234,
      "v": 89
    },
    {
      "midi": 64,
      "hit": false,
      "t": 162826.2334999993,
      "d": 242.3009427083307,
      "v": 102
    },
    {
      "midi": 61,
      "hit": false,
      "t": 162826.2334999993,
      "d": 246.82993229167187,
      "v": 102
    },
    {
      "midi": 57,
      "hit": false,
      "t": 162826.2334999993,
      "d": 258.15240625001024,
      "v": 98
    },
    {
      "midi": 52,
      "hit": false,
      "t": 163043.6249999993,
      "d": 192.48205729166511,
      "v": 98
    },
    {
      "midi": 45,
      "hit": false,
      "t": 163043.6249999993,
      "d": 201.54003645831835,
      "v": 107
    },
    {
      "midi": 61,
      "hit": false,
      "t": 163261.0164999993,
      "d": 63.40585416665999,
      "v": 98
    },
    {
      "midi": 57,
      "hit": false,
      "t": 163261.0164999993,
      "d": 81.52181249999558,
      "v": 93
    },
    {
      "midi": 64,
      "hit": false,
      "t": 163261.0164999993,
      "d": 86.05080208333675,
      "v": 107
    },
    {
      "midi": 69,
      "hit": false,
      "t": 163695.7994999993,
      "d": 144.92766666668467,
      "v": 93
    },
    {
      "midi": 74,
      "hit": false,
      "t": 163913.19099999932,
      "d": 99.63777083333116,
      "v": 89
    },
    {
      "midi": 69,
      "hit": false,
      "t": 164130.58249999932,
      "d": 88.31529687499278,
      "v": 98
    },
    {
      "midi": 74,
      "hit": false,
      "t": 164347.97399999932,
      "d": 79.25731770833954,
      "v": 89
    },
    {
      "midi": 81,
      "hit": false,
      "t": 164347.97399999932,
      "d": 81.52181249999558,
      "v": 98
    },
    {
      "midi": 74,
      "hit": false,
      "t": 164565.36549999932,
      "d": 92.84428645833395,
      "v": 98
    },
    {
      "midi": 81,
      "hit": false,
      "t": 164565.36549999932,
      "d": 106.43125520832837,
      "v": 107
    },
    {
      "midi": 69,
      "hit": false,
      "t": 164782.7569999993,
      "d": 88.31529687499278,
      "v": 102
    },
    {
      "midi": 74,
      "hit": false,
      "t": 165000.1484999993,
      "d": 81.52181249999558,
      "v": 93
    },
    {
      "midi": 81,
      "hit": false,
      "t": 165000.1484999993,
      "d": 83.78630729165161,
      "v": 107
    },
    {
      "midi": 52,
      "hit": false,
      "t": 165217.5399999993,
      "d": 197.0110468750063,
      "v": 119
    },
    {
      "midi": 45,
      "hit": false,
      "t": 165217.5399999993,
      "d": 201.54003645834746,
      "v": 107
    },
    {
      "midi": 52,
      "hit": false,
      "t": 166956.67199999932,
      "d": 210.5980156250007,
      "v": 107
    },
    {
      "midi": 45,
      "hit": false,
      "t": 166956.67199999932,
      "d": 219.65599479165394,
      "v": 113
    },
    {
      "midi": 57,
      "hit": false,
      "t": 166956.67199999932,
      "d": 226.44947916665114,
      "v": 113
    },
    {
      "midi": 52,
      "hit": false,
      "t": 168695.8039999993,
      "d": 939.7653385416779,
      "v": 119
    },
    {
      "midi": 45,
      "hit": false,
      "t": 168695.8039999993,
      "d": 944.2943281250191,
      "v": 119
    },
    {
      "midi": 57,
      "hit": false,
      "t": 169782.76149999932,
      "d": 88.31529687499278,
      "v": 113
    },
    {
      "midi": 52,
      "hit": false,
      "t": 170000.15299999932,
      "d": 72.46383333334234,
      "v": 107
    },
    {
      "midi": 45,
      "hit": false,
      "t": 170000.15299999932,
      "d": 92.84428645833395,
      "v": 107
    },
    {
      "midi": 96,
      "hit": false,
      "t": 170061.29435937433,
      "d": 70.1993385416572,
      "v": 107
    },
    {
      "midi": 95,
      "hit": false,
      "t": 170090.732791666,
      "d": 65.67034895831603,
      "v": 93
    },
    {
      "midi": 93,
      "hit": false,
      "t": 170122.43571874933,
      "d": 61.141359374974854,
      "v": 98
    },
    {
      "midi": 91,
      "hit": false,
      "t": 170156.40314062432,
      "d": 56.61236979163368,
      "v": 102
    },
    {
      "midi": 89,
      "hit": false,
      "t": 170183.5770781243,
      "d": 61.141359374974854,
      "v": 107
    },
    {
      "midi": 88,
      "hit": false,
      "t": 170210.7510156243,
      "d": 65.67034895828692,
      "v": 107
    },
    {
      "midi": 86,
      "hit": false,
      "t": 170246.98293229094,
      "d": 58.87686458331882,
      "v": 89
    },
    {
      "midi": 84,
      "hit": false,
      "t": 170274.15686979092,
      "d": 58.87686458331882,
      "v": 89
    },
    {
      "midi": 83,
      "hit": false,
      "t": 170305.85979687425,
      "d": 54.34787499997765,
      "v": 98
    },
    {
      "midi": 81,
      "hit": false,
      "t": 170330.7692395826,
      "d": 54.34787499997765,
      "v": 102
    },
    {
      "midi": 79,
      "hit": false,
      "t": 170357.94317708258,
      "d": 49.81888541666558,
      "v": 93
    },
    {
      "midi": 77,
      "hit": false,
      "t": 170382.8526197909,
      "d": 45.28989583332441,
      "v": 102
    },
    {
      "midi": 76,
      "hit": false,
      "t": 170416.8200416659,
      "d": 18.115958333335584,
      "v": 85
    },
    {
      "midi": 74,
      "hit": false,
      "t": 170443.99397916588,
      "d": 27.173937500017928,
      "v": 76
    },
    {
      "midi": 57,
      "hit": false,
      "t": 170480.22589583255,
      "d": 500.45334895834094,
      "v": 113
    },
    {
      "midi": 50,
      "hit": false,
      "t": 170484.7548854159,
      "d": 502.717843749997,
      "v": 119
    },
    {
      "midi": 62,
      "hit": false,
      "t": 170919.5378854159,
      "d": 133.6051927083463,
      "v": 107
    },
    {
      "midi": 57,
      "hit": false,
      "t": 171148.25185937423,
      "d": 113.22473958332557,
      "v": 89
    },
    {
      "midi": 50,
      "hit": false,
      "t": 171150.51635416588,
      "d": 108.6957500000135,
      "v": 93
    },
    {
      "midi": 62,
      "hit": false,
      "t": 171336.20492708255,
      "d": 86.05080208333675,
      "v": 80
    },
    {
      "midi": 62,
      "hit": false,
      "t": 171537.7449635409,
      "d": 138.13418229165836,
      "v": 119
    },
    {
      "midi": 57,
      "hit": false,
      "t": 171759.66545312424,
      "d": 221.92048958333908,
      "v": 98
    },
    {
      "midi": 50,
      "hit": false,
      "t": 171764.19444270758,
      "d": 199.27554166666232,
      "v": 107
    },
    {
      "midi": 62,
      "hit": false,
      "t": 171970.26346874924,
      "d": 99.63777083333116,
      "v": 102
    },
    {
      "midi": 62,
      "hit": false,
      "t": 172160.48103124925,
      "d": 95.10878124998999,
      "v": 102
    },
    {
      "midi": 66,
      "hit": false,
      "t": 172165.0100208326,
      "d": 95.10878124998999,
      "v": 98
    },
    {
      "midi": 50,
      "hit": false,
      "t": 172167.27451562425,
      "d": 88.31529687499278,
      "v": 113
    },
    {
      "midi": 57,
      "hit": false,
      "t": 172174.06799999924,
      "d": 74.72832812499837,
      "v": 102
    },
    {
      "midi": 69,
      "hit": false,
      "t": 172176.3324947909,
      "d": 74.72832812499837,
      "v": 107
    },
    {
      "midi": 69,
      "hit": false,
      "t": 172398.25298437424,
      "d": 92.84428645833395,
      "v": 102
    },
    {
      "midi": 62,
      "hit": false,
      "t": 172402.78197395758,
      "d": 88.31529687499278,
      "v": 102
    },
    {
      "midi": 66,
      "hit": false,
      "t": 172407.31096354092,
      "d": 81.52181249999558,
      "v": 107
    },
    {
      "midi": 57,
      "hit": false,
      "t": 172409.57545833258,
      "d": 79.25731770833954,
      "v": 93
    },
    {
      "midi": 50,
      "hit": false,
      "t": 172414.10444791592,
      "d": 72.46383333334234,
      "v": 107
    },
    {
      "midi": 62,
      "hit": false,
      "t": 172626.96695833257,
      "d": 67.93484375003027,
      "v": 107
    },
    {
      "midi": 66,
      "hit": false,
      "t": 172631.49594791592,
      "d": 56.61236979169189,
      "v": 107
    },
    {
      "midi": 69,
      "hit": false,
      "t": 172636.02493749926,
      "d": 61.14135937500396,
      "v": 107
    },
    {
      "midi": 57,
      "hit": false,
      "t": 172640.5539270826,
      "d": 58.87686458331882,
      "v": 89
    },
    {
      "midi": 50,
      "hit": false,
      "t": 172645.08291666594,
      "d": 45.28989583332441,
      "v": 98
    },
    {
      "midi": 62,
      "hit": false,
      "t": 172848.8874479159,
      "d": 724.6383333333652,
      "v": 119
    },
    {
      "midi": 69,
      "hit": false,
      "t": 172853.41643749925,
      "d": 919.3848854167154,
      "v": 119
    },
    {
      "midi": 66,
      "hit": false,
      "t": 172857.9454270826,
      "d": 846.9210520833731,
      "v": 113
    },
    {
      "midi": 50,
      "hit": false,
      "t": 172862.47441666594,
      "d": 697.4643958333472,
      "v": 127
    },
    {
      "midi": 57,
      "hit": false,
      "t": 172867.00340624928,
      "d": 701.9933854166593,
      "v": 113
    },
    {
      "midi": 62,
      "hit": false,
      "t": 173661.8410781243,
      "d": 74.72832812499837,
      "v": 51
    },
    {
      "midi": 50,
      "hit": false,
      "t": 173716.1889531243,
      "d": 79.25731770833954,
      "v": 55
    },
    {
      "midi": 57,
      "hit": false,
      "t": 173750.1563749993,
      "d": 54.34787500000675,
      "v": 46
    },
    {
      "midi": 62,
      "hit": false,
      "t": 173867.91010416596,
      "d": 31.702927083329996,
      "v": 36
    },
    {
      "midi": 50,
      "hit": false,
      "t": 173904.14202083263,
      "d": 72.46383333334234,
      "v": 76
    },
    {
      "midi": 62,
      "hit": false,
      "t": 174021.8957499993,
      "d": 81.52181249999558,
      "v": 72
    },
    {
      "midi": 50,
      "hit": false,
      "t": 174073.97913020762,
      "d": 110.96024479166954,
      "v": 76
    },
    {
      "midi": 62,
      "hit": false,
      "t": 174193.99735416594,
      "d": 81.52181249999558,
      "v": 89
    },
    {
      "midi": 57,
      "hit": false,
      "t": 174221.17129166593,
      "d": 142.66317187499953,
      "v": 93
    },
    {
      "midi": 50,
      "hit": false,
      "t": 174232.49376562427,
      "d": 81.52181249999558,
      "v": 62
    },
    {
      "midi": 62,
      "hit": false,
      "t": 174404.59536979094,
      "d": 124.54721354166395,
      "v": 89
    },
    {
      "midi": 50,
      "hit": false,
      "t": 174551.78753124928,
      "d": 183.42407812498277,
      "v": 68
    },
    {
      "midi": 57,
      "hit": false,
      "t": 174678.5992395826,
      "d": 129.07620312500512,
      "v": 72
    },
    {
      "midi": 62,
      "hit": false,
      "t": 174818.99791666595,
      "d": 99.63777083333116,
      "v": 76
    },
    {
      "midi": 50,
      "hit": false,
      "t": 174948.07411979095,
      "d": 124.54721354166395,
      "v": 60
    },
    {
      "midi": 57,
      "hit": false,
      "t": 175065.82784895762,
      "d": 126.81170833334909,
      "v": 72
    },
    {
      "midi": 62,
      "hit": false,
      "t": 175181.31708333263,
      "d": 117.75372916666674,
      "v": 59
    },
    {
      "midi": 50,
      "hit": false,
      "t": 175333.03823437428,
      "d": 138.13418229165836,
      "v": 51
    },
    {
      "midi": 57,
      "hit": false,
      "t": 175462.1144374993,
      "d": 115.48923437501071,
      "v": 59
    },
    {
      "midi": 62,
      "hit": false,
      "t": 175536.8427656243,
      "d": 124.54721354169305,
      "v": 72
    },
    {
      "midi": 50,
      "hit": false,
      "t": 175733.85381249932,
      "d": 97.37327604164602,
      "v": 35
    },
    {
      "midi": 57,
      "hit": false,
      "t": 175828.9625937493,
      "d": 108.6957499999844,
      "v": 68
    },
    {
      "midi": 62,
      "hit": false,
      "t": 175969.36127083263,
      "d": 104.16676041667233,
      "v": 62
    },
    {
      "midi": 50,
      "hit": false,
      "t": 176143.72736979095,
      "d": 387.22860937498626,
      "v": 60
    },
    {
      "midi": 62,
      "hit": false,
      "t": 176417.73123958262,
      "d": 187.95306770832394,
      "v": 60
    }
  ]
}