{
  "jsonPath": "Rock/Dance Rock/Kraftwerk/tour-de-france-03-version-1.json",
  "path": "Rock\\Dance Rock\\Kraftwerk\\Tour De France 03 (Version 1).mid",
  "name": "Tour De France 03 (Version 1)",
  "difficulty": "Advanced",
  "bpm": 140.00046666822223,
  "notes": [
    {
      "midi": 79,
      "hit": false,
      "t": 428.57,
      "d": 167.85658333333328,
      "v": 118
    },
    {
      "midi": 72,
      "hit": false,
      "t": 428.57,
      "d": 459.8198958333332,
      "v": 118
    },
    {
      "midi": 79,
      "hit": false,
      "t": 857.1399999999999,
      "d": 224.99924999999985,
      "v": 118
    },
    {
      "midi": 72,
      "hit": false,
      "t": 1071.4249999999997,
      "d": 391.07012499999996,
      "v": 118
    },
    {
      "midi": 79,
      "hit": false,
      "t": 1499.9949999999997,
      "d": 216.0707083333334,
      "v": 118
    },
    {
      "midi": 74,
      "hit": false,
      "t": 1714.2799999999997,
      "d": 290.1776041666667,
      "v": 118
    },
    {
      "midi": 72,
      "hit": false,
      "t": 1714.2799999999997,
      "d": 440.1771041666666,
      "v": 118
    },
    {
      "midi": 74,
      "hit": false,
      "t": 2571.4199999999996,
      "d": 212.49929166666698,
      "v": 118
    },
    {
      "midi": 60,
      "hit": false,
      "t": 2571.4199999999996,
      "d": 1585.7090000000003,
      "v": 118
    },
    {
      "midi": 72,
      "hit": false,
      "t": 2785.705,
      "d": 622.3193541666665,
      "v": 118
    },
    {
      "midi": 79,
      "hit": false,
      "t": 2999.99,
      "d": 227.67781250000007,
      "v": 118
    },
    {
      "midi": 79,
      "hit": false,
      "t": 3642.845,
      "d": 211.60643750000008,
      "v": 118
    },
    {
      "midi": 72,
      "hit": false,
      "t": 3857.13,
      "d": 437.4985416666659,
      "v": 118
    },
    {
      "midi": 79,
      "hit": false,
      "t": 4071.415,
      "d": 218.74927083333296,
      "v": 118
    },
    {
      "midi": 74,
      "hit": false,
      "t": 4285.7,
      "d": 230.3563750000003,
      "v": 118
    },
    {
      "midi": 60,
      "hit": false,
      "t": 4285.7,
      "d": 662.4977916666667,
      "v": 118
    },
    {
      "midi": 72,
      "hit": false,
      "t": 4499.985,
      "d": 550.8910208333336,
      "v": 118
    },
    {
      "midi": 79,
      "hit": false,
      "t": 4714.27,
      "d": 215.1778541666663,
      "v": 118
    },
    {
      "midi": 79,
      "hit": false,
      "t": 5142.84,
      "d": 216.07070833333364,
      "v": 118
    },
    {
      "midi": 58,
      "hit": false,
      "t": 5142.84,
      "d": 1126.781958333334,
      "v": 118
    },
    {
      "midi": 72,
      "hit": false,
      "t": 5357.125,
      "d": 1117.8534166666677,
      "v": 118
    },
    {
      "midi": 79,
      "hit": false,
      "t": 5571.410000000001,
      "d": 232.14208333333318,
      "v": 118
    },
    {
      "midi": 79,
      "hit": false,
      "t": 6214.265,
      "d": 344.64170833333446,
      "v": 118
    },
    {
      "midi": 58,
      "hit": false,
      "t": 6428.550000000001,
      "d": 961.6039375,
      "v": 118
    },
    {
      "midi": 72,
      "hit": false,
      "t": 6642.835000000002,
      "d": 337.4988750000002,
      "v": 118
    },
    {
      "midi": 74,
      "hit": false,
      "t": 6857.120000000002,
      "d": 187.49937500000033,
      "v": 118
    },
    {
      "midi": 77,
      "hit": false,
      "t": 6857.120000000002,
      "d": 209.82072916666675,
      "v": 118
    },
    {
      "midi": 79,
      "hit": false,
      "t": 7285.690000000001,
      "d": 175.892270833333,
      "v": 118
    },
    {
      "midi": 72,
      "hit": false,
      "t": 7285.690000000001,
      "d": 269.6419583333327,
      "v": 118
    },
    {
      "midi": 79,
      "hit": false,
      "t": 7714.260000000001,
      "d": 220.53497916666674,
      "v": 118
    },
    {
      "midi": 60,
      "hit": false,
      "t": 7714.260000000001,
      "d": 920.5326458333338,
      "v": 118
    },
    {
      "midi": 72,
      "hit": false,
      "t": 7928.545000000001,
      "d": 1134.8176458333337,
      "v": 118
    },
    {
      "midi": 79,
      "hit": false,
      "t": 8142.830000000001,
      "d": 238.39206250000007,
      "v": 118
    },
    {
      "midi": 79,
      "hit": false,
      "t": 8785.685000000001,
      "d": 394.64154166666594,
      "v": 118
    },
    {
      "midi": 60,
      "hit": false,
      "t": 8999.970000000001,
      "d": 913.3898124999996,
      "v": 118
    },
    {
      "midi": 72,
      "hit": false,
      "t": 9214.255000000001,
      "d": 841.9614791666663,
      "v": 118
    },
    {
      "midi": 74,
      "hit": false,
      "t": 9428.54,
      "d": 321.4274999999998,
      "v": 118
    },
    {
      "midi": 77,
      "hit": false,
      "t": 9428.54,
      "d": 321.4274999999998,
      "v": 118
    },
    {
      "midi": 79,
      "hit": false,
      "t": 9857.11,
      "d": 163.39231250000012,
      "v": 118
    },
    {
      "midi": 75,
      "hit": false,
      "t": 9857.11,
      "d": 178.5708333333332,
      "v": 118
    },
    {
      "midi": 79,
      "hit": false,
      "t": 10285.68,
      "d": 191.96364583333343,
      "v": 118
    },
    {
      "midi": 74,
      "hit": false,
      "t": 10285.68,
      "d": 193.7493541666663,
      "v": 118
    },
    {
      "midi": 58,
      "hit": false,
      "t": 10285.68,
      "d": 1064.282166666666,
      "v": 118
    },
    {
      "midi": 72,
      "hit": false,
      "t": 10499.965,
      "d": 654.4621041666669,
      "v": 118
    },
    {
      "midi": 79,
      "hit": false,
      "t": 10714.25,
      "d": 232.14208333333409,
      "v": 118
    },
    {
      "midi": 75,
      "hit": false,
      "t": 10714.25,
      "d": 274.99908333333406,
      "v": 118
    },
    {
      "midi": 74,
      "hit": false,
      "t": 11357.105,
      "d": 278.5704999999998,
      "v": 118
    },
    {
      "midi": 79,
      "hit": false,
      "t": 11357.105,
      "d": 283.92762500000026,
      "v": 118
    },
    {
      "midi": 58,
      "hit": false,
      "t": 11571.39,
      "d": 999.996666666666,
      "v": 118
    },
    {
      "midi": 72,
      "hit": false,
      "t": 11785.675,
      "d": 459.81989583333234,
      "v": 118
    },
    {
      "midi": 79,
      "hit": false,
      "t": 11999.96,
      "d": 185.71366666666654,
      "v": 118
    },
    {
      "midi": 75,
      "hit": false,
      "t": 11999.96,
      "d": 207.14216666666653,
      "v": 118
    },
    {
      "midi": 79,
      "hit": false,
      "t": 12428.529999999999,
      "d": 209.82072916666584,
      "v": 118
    },
    {
      "midi": 74,
      "hit": false,
      "t": 12428.529999999999,
      "d": 214.28499999999985,
      "v": 118
    },
    {
      "midi": 72,
      "hit": false,
      "t": 12428.529999999999,
      "d": 308.927541666666,
      "v": 118
    },
    {
      "midi": 75,
      "hit": false,
      "t": 12642.814999999999,
      "d": 109.82106249999924,
      "v": 118
    },
    {
      "midi": 60,
      "hit": false,
      "t": 12857.099999999999,
      "d": 1124.9962500000001,
      "v": 118
    },
    {
      "midi": 72,
      "hit": false,
      "t": 13071.384999999998,
      "d": 549.9981666666663,
      "v": 118
    },
    {
      "midi": 74,
      "hit": false,
      "t": 13285.669999999998,
      "d": 180.3565416666661,
      "v": 118
    },
    {
      "midi": 79,
      "hit": false,
      "t": 13285.669999999998,
      "d": 188.39222916666586,
      "v": 118
    },
    {
      "midi": 72,
      "hit": false,
      "t": 13928.524999999998,
      "d": 292.8561666666683,
      "v": 118
    },
    {
      "midi": 75,
      "hit": false,
      "t": 13928.524999999998,
      "d": 299.9990000000016,
      "v": 118
    },
    {
      "midi": 60,
      "hit": false,
      "t": 14142.81,
      "d": 922.3183541666676,
      "v": 118
    },
    {
      "midi": 67,
      "hit": false,
      "t": 14357.095,
      "d": 283.92762500000026,
      "v": 118
    },
    {
      "midi": 84,
      "hit": false,
      "t": 14571.38,
      "d": 103.57108333333417,
      "v": 118
    },
    {
      "midi": 75,
      "hit": false,
      "t": 14571.38,
      "d": 108.03535416666818,
      "v": 118
    },
    {
      "midi": 72,
      "hit": false,
      "t": 14571.38,
      "d": 212.4992916666688,
      "v": 118
    },
    {
      "midi": 72,
      "hit": false,
      "t": 14999.95,
      "d": 75.8926041666673,
      "v": 118
    },
    {
      "midi": 60,
      "hit": false,
      "t": 15428.52,
      "d": 863.3899791666663,
      "v": 118
    },
    {
      "midi": 67,
      "hit": false,
      "t": 15642.805,
      "d": 703.5690833333338,
      "v": 118
    },
    {
      "midi": 72,
      "hit": false,
      "t": 15857.09,
      "d": 132.1424166666675,
      "v": 118
    },
    {
      "midi": 74,
      "hit": false,
      "t": 15857.09,
      "d": 176.78512500000033,
      "v": 118
    },
    {
      "midi": 79,
      "hit": false,
      "t": 15857.09,
      "d": 179.46368749999965,
      "v": 118
    },
    {
      "midi": 75,
      "hit": false,
      "t": 16499.945,
      "d": 256.24914583333157,
      "v": 118
    },
    {
      "midi": 79,
      "hit": false,
      "t": 16499.945,
      "d": 259.8205624999973,
      "v": 118
    },
    {
      "midi": 60,
      "hit": false,
      "t": 16714.23,
      "d": 983.9252916666628,
      "v": 118
    },
    {
      "midi": 67,
      "hit": false,
      "t": 16928.514999999996,
      "d": 818.7472708333335,
      "v": 118
    },
    {
      "midi": 84,
      "hit": false,
      "t": 17142.799999999996,
      "d": 145.5352291666677,
      "v": 118
    },
    {
      "midi": 75,
      "hit": false,
      "t": 17142.799999999996,
      "d": 158.9280416666661,
      "v": 118
    },
    {
      "midi": 72,
      "hit": false,
      "t": 17142.799999999996,
      "d": 180.3565416666679,
      "v": 118
    },
    {
      "midi": 74,
      "hit": false,
      "t": 17571.369999999995,
      "d": 193.7493541666663,
      "v": 118
    },
    {
      "midi": 70,
      "hit": false,
      "t": 17571.369999999995,
      "d": 207.1421666666647,
      "v": 118
    },
    {
      "midi": 60,
      "hit": false,
      "t": 17999.939999999995,
      "d": 867.8542500000003,
      "v": 118
    },
    {
      "midi": 67,
      "hit": false,
      "t": 18214.224999999995,
      "d": 1132.1390833333317,
      "v": 118
    },
    {
      "midi": 74,
      "hit": false,
      "t": 18428.509999999995,
      "d": 287.499041666666,
      "v": 118
    },
    {
      "midi": 72,
      "hit": false,
      "t": 18428.509999999995,
      "d": 450.89135416666613,
      "v": 118
    },
    {
      "midi": 75,
      "hit": false,
      "t": 19071.364999999994,
      "d": 402.6772291666639,
      "v": 118
    },
    {
      "midi": 60,
      "hit": false,
      "t": 19285.649999999994,
      "d": 935.7111666666642,
      "v": 118
    },
    {
      "midi": 67,
      "hit": false,
      "t": 19499.93499999999,
      "d": 859.8185625000006,
      "v": 118
    },
    {
      "midi": 72,
      "hit": false,
      "t": 19714.21999999999,
      "d": 171.42799999999988,
      "v": 118
    },
    {
      "midi": 79,
      "hit": false,
      "t": 19714.21999999999,
      "d": 184.82081249999828,
      "v": 118
    },
    {
      "midi": 74,
      "hit": false,
      "t": 19714.21999999999,
      "d": 185.71366666666654,
      "v": 118
    },
    {
      "midi": 70,
      "hit": false,
      "t": 20142.78999999999,
      "d": 191.96364583333343,
      "v": 118
    },
    {
      "midi": 74,
      "hit": false,
      "t": 20142.78999999999,
      "d": 252.67772916666945,
      "v": 118
    },
    {
      "midi": 56,
      "hit": false,
      "t": 20571.359999999993,
      "d": 816.9615625000006,
      "v": 118
    },
    {
      "midi": 63,
      "hit": false,
      "t": 20785.644999999993,
      "d": 608.9265416666676,
      "v": 118
    },
    {
      "midi": 79,
      "hit": false,
      "t": 20999.929999999993,
      "d": 316.9632291666676,
      "v": 118
    },
    {
      "midi": 68,
      "hit": false,
      "t": 20999.929999999993,
      "d": 477.67697916666657,
      "v": 118
    },
    {
      "midi": 79,
      "hit": false,
      "t": 21642.784999999993,
      "d": 202.67789583333433,
      "v": 118
    },
    {
      "midi": 74,
      "hit": false,
      "t": 21642.784999999993,
      "d": 230.3563749999994,
      "v": 118
    },
    {
      "midi": 70,
      "hit": false,
      "t": 21642.784999999993,
      "d": 254.4634374999987,
      "v": 118
    },
    {
      "midi": 58,
      "hit": false,
      "t": 21642.784999999993,
      "d": 1063.3893124999959,
      "v": 118
    },
    {
      "midi": 65,
      "hit": false,
      "t": 21642.784999999993,
      "d": 1078.5678333333308,
      "v": 118
    },
    {
      "midi": 75,
      "hit": false,
      "t": 21857.069999999992,
      "d": 153.57091666666383,
      "v": 118
    },
    {
      "midi": 70,
      "hit": false,
      "t": 22071.35499999999,
      "d": 348.2131249999984,
      "v": 118
    },
    {
      "midi": 74,
      "hit": false,
      "t": 22285.63999999999,
      "d": 176.78512499999852,
      "v": 118
    },
    {
      "midi": 70,
      "hit": false,
      "t": 22499.92499999999,
      "d": 296.42758333333404,
      "v": 118
    },
    {
      "midi": 75,
      "hit": false,
      "t": 22714.20999999999,
      "d": 247.32060416666718,
      "v": 118
    },
    {
      "midi": 77,
      "hit": false,
      "t": 22928.494999999988,
      "d": 162.4994583333355,
      "v": 118
    },
    {
      "midi": 79,
      "hit": false,
      "t": 23142.77999999999,
      "d": 251.7848750000012,
      "v": 118
    },
    {
      "midi": 60,
      "hit": false,
      "t": 23142.77999999999,
      "d": 885.7113333333291,
      "v": 118
    },
    {
      "midi": 67,
      "hit": false,
      "t": 23357.06499999999,
      "d": 667.8549166666635,
      "v": 118
    },
    {
      "midi": 79,
      "hit": false,
      "t": 23571.34999999999,
      "d": 352.6773958333324,
      "v": 118
    },
    {
      "midi": 74,
      "hit": false,
      "t": 23571.34999999999,
      "d": 366.0702083333308,
      "v": 118
    },
    {
      "midi": 72,
      "hit": false,
      "t": 23571.34999999999,
      "d": 431.2485624999972,
      "v": 118
    },
    {
      "midi": 79,
      "hit": false,
      "t": 24214.204999999987,
      "d": 299.10614583333154,
      "v": 118
    },
    {
      "midi": 75,
      "hit": false,
      "t": 24214.204999999987,
      "d": 322.3203541666662,
      "v": 118
    },
    {
      "midi": 60,
      "hit": false,
      "t": 24428.489999999987,
      "d": 984.8181458333311,
      "v": 118
    },
    {
      "midi": 79,
      "hit": false,
      "t": 24642.774999999987,
      "d": 169.642291666667,
      "v": 118
    },
    {
      "midi": 75,
      "hit": false,
      "t": 24642.774999999987,
      "d": 179.46368749999965,
      "v": 118
    },
    {
      "midi": 67,
      "hit": false,
      "t": 24642.774999999987,
      "d": 1051.782208333334,
      "v": 118
    },
    {
      "midi": 72,
      "hit": false,
      "t": 24857.059999999987,
      "d": 166.96372916666587,
      "v": 118
    },
    {
      "midi": 79,
      "hit": false,
      "t": 25071.344999999987,
      "d": 211.60643749999872,
      "v": 118
    },
    {
      "midi": 74,
      "hit": false,
      "t": 25071.344999999987,
      "d": 219.6421249999985,
      "v": 118
    },
    {
      "midi": 70,
      "hit": false,
      "t": 25285.629999999986,
      "d": 310.7132500000007,
      "v": 118
    },
    {
      "midi": 74,
      "hit": false,
      "t": 25499.914999999986,
      "d": 449.10564583333326,
      "v": 118
    },
    {
      "midi": 60,
      "hit": false,
      "t": 25714.199999999986,
      "d": 922.3183541666658,
      "v": 118
    },
    {
      "midi": 67,
      "hit": false,
      "t": 25928.484999999986,
      "d": 812.4972916666666,
      "v": 118
    },
    {
      "midi": 79,
      "hit": false,
      "t": 26142.769999999986,
      "d": 323.2132083333345,
      "v": 118
    },
    {
      "midi": 72,
      "hit": false,
      "t": 26142.769999999986,
      "d": 520.5339791666665,
      "v": 118
    },
    {
      "midi": 84,
      "hit": false,
      "t": 26785.624999999985,
      "d": 462.49845833333166,
      "v": 118
    },
    {
      "midi": 60,
      "hit": false,
      "t": 26999.909999999985,
      "d": 989.2824166666687,
      "v": 118
    },
    {
      "midi": 75,
      "hit": false,
      "t": 27214.194999999985,
      "d": 160.71374999999898,
      "v": 118
    },
    {
      "midi": 67,
      "hit": false,
      "t": 27214.194999999985,
      "d": 1118.746270833337,
      "v": 118
    },
    {
      "midi": 72,
      "hit": false,
      "t": 27428.479999999985,
      "d": 121.4281666666684,
      "v": 118
    },
    {
      "midi": 74,
      "hit": false,
      "t": 27642.76499999999,
      "d": 299.10614583333154,
      "v": 118
    },
    {
      "midi": 70,
      "hit": false,
      "t": 27857.04999999999,
      "d": 263.3919791666667,
      "v": 118
    },
    {
      "midi": 72,
      "hit": false,
      "t": 28071.33499999999,
      "d": 348.21312500000204,
      "v": 118
    },
    {
      "midi": 60,
      "hit": false,
      "t": 28285.619999999988,
      "d": 859.8185625000042,
      "v": 118
    },
    {
      "midi": 67,
      "hit": false,
      "t": 28499.90499999999,
      "d": 1142.8533333333326,
      "v": 118
    },
    {
      "midi": 79,
      "hit": false,
      "t": 28714.18999999999,
      "d": 381.2487291666657,
      "v": 118
    },
    {
      "midi": 72,
      "hit": false,
      "t": 28714.18999999999,
      "d": 453.56991666666727,
      "v": 118
    },
    {
      "midi": 79,
      "hit": false,
      "t": 29357.04499999999,
      "d": 361.60593750000044,
      "v": 119
    },
    {
      "midi": 60,
      "hit": false,
      "t": 29571.32999999999,
      "d": 492.8555000000015,
      "v": 119
    },
    {
      "midi": 77,
      "hit": false,
      "t": 29785.61499999999,
      "d": 152.6780624999992,
      "v": 119
    },
    {
      "midi": 67,
      "hit": false,
      "t": 29785.61499999999,
      "d": 1104.4606041666702,
      "v": 119
    },
    {
      "midi": 74,
      "hit": false,
      "t": 29999.89999999999,
      "d": 241.07062500000393,
      "v": 119
    },
    {
      "midi": 70,
      "hit": false,
      "t": 29999.89999999999,
      "d": 267.85625000000437,
      "v": 119
    },
    {
      "midi": 75,
      "hit": false,
      "t": 30214.184999999994,
      "d": 210.7135833333341,
      "v": 119
    },
    {
      "midi": 72,
      "hit": false,
      "t": 30428.469999999994,
      "d": 248.2134583333318,
      "v": 119
    },
    {
      "midi": 74,
      "hit": false,
      "t": 30642.754999999994,
      "d": 333.0346041666671,
      "v": 119
    },
    {
      "midi": 56,
      "hit": false,
      "t": 30857.039999999994,
      "d": 218.74927083333387,
      "v": 119
    },
    {
      "midi": 67,
      "hit": false,
      "t": 31071.324999999993,
      "d": 1170.5318124999976,
      "v": 119
    },
    {
      "midi": 72,
      "hit": false,
      "t": 31285.609999999993,
      "d": 389.2844166666655,
      "v": 119
    },
    {
      "midi": 75,
      "hit": false,
      "t": 31285.609999999993,
      "d": 390.17727083333375,
      "v": 119
    },
    {
      "midi": 75,
      "hit": false,
      "t": 31928.464999999993,
      "d": 444.64137499999924,
      "v": 119
    },
    {
      "midi": 58,
      "hit": false,
      "t": 32142.749999999993,
      "d": 774.9974166666652,
      "v": 119
    },
    {
      "midi": 74,
      "hit": false,
      "t": 32357.034999999993,
      "d": 172.3208541666645,
      "v": 119
    },
    {
      "midi": 67,
      "hit": false,
      "t": 32357.034999999993,
      "d": 283.03477083332837,
      "v": 119
    },
    {
      "midi": 72,
      "hit": false,
      "t": 32571.31999999999,
      "d": 193.7493541666663,
      "v": 119
    },
    {
      "midi": 67,
      "hit": false,
      "t": 32785.60499999999,
      "d": 638.3907291666765,
      "v": 119
    },
    {
      "midi": 74,
      "hit": false,
      "t": 32999.88999999999,
      "d": 265.17768750000687,
      "v": 119
    },
    {
      "midi": 72,
      "hit": false,
      "t": 32999.88999999999,
      "d": 421.4271666666755,
      "v": 119
    },
    {
      "midi": 75,
      "hit": false,
      "t": 33214.174999999996,
      "d": 497.31977083333913,
      "v": 119
    },
    {
      "midi": 60,
      "hit": false,
      "t": 33428.46,
      "d": 843.7471875000047,
      "v": 119
    },
    {
      "midi": 67,
      "hit": false,
      "t": 33642.745,
      "d": 1165.1746875000026,
      "v": 119
    },
    {
      "midi": 79,
      "hit": false,
      "t": 33857.03,
      "d": 315.1775208333347,
      "v": 119
    },
    {
      "midi": 72,
      "hit": false,
      "t": 33857.03,
      "d": 504.46260416667064,
      "v": 119
    },
    {
      "midi": 84,
      "hit": false,
      "t": 34499.885,
      "d": 315.1775208333347,
      "v": 119
    },
    {
      "midi": 60,
      "hit": false,
      "t": 34714.170000000006,
      "d": 446.42708333333576,
      "v": 119
    },
    {
      "midi": 74,
      "hit": false,
      "t": 34928.455,
      "d": 132.1424166666693,
      "v": 119
    },
    {
      "midi": 67,
      "hit": false,
      "t": 35142.740000000005,
      "d": 300.8918541666717,
      "v": 119
    },
    {
      "midi": 77,
      "hit": false,
      "t": 35357.02500000001,
      "d": 243.74918750000506,
      "v": 119
    },
    {
      "midi": 75,
      "hit": false,
      "t": 35571.31000000001,
      "d": 243.74918750000506,
      "v": 119
    },
    {
      "midi": 74,
      "hit": false,
      "t": 35785.595000000016,
      "d": 199.10647916666494,
      "v": 119
    },
    {
      "midi": 44,
      "hit": false,
      "t": 35999.88000000001,
      "d": 132.1424166666693,
      "v": 119
    },
    {
      "midi": 56,
      "hit": false,
      "t": 35999.88000000001,
      "d": 171.42799999999988,
      "v": 119
    },
    {
      "midi": 70,
      "hit": false,
      "t": 35999.88000000001,
      "d": 252.6777291666658,
      "v": 119
    },
    {
      "midi": 75,
      "hit": false,
      "t": 36428.45000000001,
      "d": 142.85666666666657,
      "v": 119
    },
    {
      "midi": 67,
      "hit": false,
      "t": 36428.45000000001,
      "d": 313.3918124999982,
      "v": 119
    },
    {
      "midi": 74,
      "hit": false,
      "t": 36857.02000000001,
      "d": 224.1063958333325,
      "v": 119
    },
    {
      "midi": 46,
      "hit": false,
      "t": 37285.59000000001,
      "d": 117.85674999999901,
      "v": 119
    },
    {
      "midi": 58,
      "hit": false,
      "t": 37285.59000000001,
      "d": 132.1424166666693,
      "v": 119
    },
    {
      "midi": 72,
      "hit": false,
      "t": 37285.59000000001,
      "d": 245.5348958333343,
      "v": 119
    },
    {
      "midi": 70,
      "hit": false,
      "t": 37499.875000000015,
      "d": 229.4635208333275,
      "v": 119
    },
    {
      "midi": 74,
      "hit": false,
      "t": 37714.16000000001,
      "d": 272.3205208333311,
      "v": 119
    },
    {
      "midi": 75,
      "hit": false,
      "t": 37928.44500000001,
      "d": 246.42775000000256,
      "v": 119
    },
    {
      "midi": 77,
      "hit": false,
      "t": 38142.73000000001,
      "d": 215.17785416666447,
      "v": 119
    },
    {
      "midi": 79,
      "hit": false,
      "t": 38357.01500000001,
      "d": 239.28491666667105,
      "v": 119
    },
    {
      "midi": 48,
      "hit": false,
      "t": 38571.30000000001,
      "d": 141.07095833333733,
      "v": 119
    },
    {
      "midi": 60,
      "hit": false,
      "t": 38571.30000000001,
      "d": 184.82081250000192,
      "v": 119
    },
    {
      "midi": 75,
      "hit": false,
      "t": 38571.30000000001,
      "d": 500.8911874999976,
      "v": 119
    },
    {
      "midi": 70,
      "hit": false,
      "t": 38999.87000000001,
      "d": 392.8558333333276,
      "v": 119
    },
    {
      "midi": 74,
      "hit": false,
      "t": 39214.155000000006,
      "d": 433.0342708333337,
      "v": 119
    },
    {
      "midi": 72,
      "hit": false,
      "t": 39642.725000000006,
      "d": 357.14166666667006,
      "v": 119
    },
    {
      "midi": 60,
      "hit": false,
      "t": 39857.01000000001,
      "d": 926.7826250000071,
      "v": 119
    },
    {
      "midi": 72,
      "hit": false,
      "t": 40071.29500000001,
      "d": 676.7834583333388,
      "v": 119
    },
    {
      "midi": 79,
      "hit": false,
      "t": 40285.580000000016,
      "d": 274.1062291666676,
      "v": 119
    },
    {
      "midi": 74,
      "hit": false,
      "t": 40285.580000000016,
      "d": 283.03477083333564,
      "v": 119
    },
    {
      "midi": 74,
      "hit": false,
      "t": 40928.43500000002,
      "d": 323.2132083333345,
      "v": 119
    },
    {
      "midi": 79,
      "hit": false,
      "t": 40928.43500000002,
      "d": 331.24889583333425,
      "v": 119
    },
    {
      "midi": 60,
      "hit": false,
      "t": 41142.72000000002,
      "d": 894.6398749999935,
      "v": 119
    },
    {
      "midi": 74,
      "hit": false,
      "t": 41357.00500000002,
      "d": 138.39239583333256,
      "v": 119
    },
    {
      "midi": 79,
      "hit": false,
      "t": 41357.00500000002,
      "d": 149.99949999999808,
      "v": 119
    },
    {
      "midi": 75,
      "hit": false,
      "t": 41571.290000000015,
      "d": 424.1057291666657,
      "v": 119
    },
    {
      "midi": 72,
      "hit": false,
      "t": 41571.290000000015,
      "d": 497.31977083333186,
      "v": 119
    },
    {
      "midi": 60,
      "hit": false,
      "t": 42428.430000000015,
      "d": 858.032854166675,
      "v": 119
    },
    {
      "midi": 72,
      "hit": false,
      "t": 42642.71500000002,
      "d": 612.4979583333406,
      "v": 119
    },
    {
      "midi": 84,
      "hit": false,
      "t": 42857.00000000002,
      "d": 200.89218750000146,
      "v": 119
    },
    {
      "midi": 75,
      "hit": false,
      "t": 42857.00000000002,
      "d": 233.92779166666878,
      "v": 119
    },
    {
      "midi": 60,
      "hit": false,
      "t": 43499.855000000025,
      "d": 102.67822916666773,
      "v": 119
    },
    {
      "midi": 74,
      "hit": false,
      "t": 43499.855000000025,
      "d": 255.3562916666706,
      "v": 119
    },
    {
      "midi": 77,
      "hit": false,
      "t": 43499.855000000025,
      "d": 274.9990833333359,
      "v": 119
    },
    {
      "midi": 60,
      "hit": false,
      "t": 43714.14000000003,
      "d": 542.855333333333,
      "v": 119
    },
    {
      "midi": 75,
      "hit": false,
      "t": 43928.425000000025,
      "d": 239.28491666667105,
      "v": 119
    },
    {
      "midi": 74,
      "hit": false,
      "t": 44142.71000000003,
      "d": 233.03493750000052,
      "v": 119
    },
    {
      "midi": 70,
      "hit": false,
      "t": 44142.71000000003,
      "d": 599.9979999999996,
      "v": 119
    },
    {
      "midi": 72,
      "hit": false,
      "t": 44356.99500000003,
      "d": 207.1421666666647,
      "v": 119
    },
    {
      "midi": 74,
      "hit": false,
      "t": 44571.28000000003,
      "d": 242.8563333333368,
      "v": 119
    },
    {
      "midi": 75,
      "hit": false,
      "t": 44785.56500000003,
      "d": 220.53497916666674,
      "v": 119
    },
    {
      "midi": 79,
      "hit": false,
      "t": 44999.850000000035,
      "d": 229.4635208333275,
      "v": 119
    },
    {
      "midi": 63,
      "hit": false,
      "t": 44999.850000000035,
      "d": 518.7482708333264,
      "v": 119
    },
    {
      "midi": 70,
      "hit": false,
      "t": 45214.13500000003,
      "d": 367.85591666666005,
      "v": 119
    },
    {
      "midi": 79,
      "hit": false,
      "t": 45428.42000000003,
      "d": 212.49929166666698,
      "v": 119
    },
    {
      "midi": 75,
      "hit": false,
      "t": 45428.42000000003,
      "d": 270.53481250000186,
      "v": 119
    },
    {
      "midi": 86,
      "hit": false,
      "t": 45642.70500000003,
      "d": 197.32077083332842,
      "v": 119
    },
    {
      "midi": 84,
      "hit": false,
      "t": 45856.99000000003,
      "d": 274.1062291666676,
      "v": 119
    },
    {
      "midi": 65,
      "hit": false,
      "t": 45856.99000000003,
      "d": 282.1419166666674,
      "v": 119
    },
    {
      "midi": 72,
      "hit": false,
      "t": 46071.27500000003,
      "d": 103.57108333332872,
      "v": 119
    },
    {
      "midi": 81,
      "hit": false,
      "t": 46071.27500000003,
      "d": 202.6778958333307,
      "v": 119
    },
    {
      "midi": 82,
      "hit": false,
      "t": 46285.56000000003,
      "d": 241.96347916666855,
      "v": 119
    },
    {
      "midi": 67,
      "hit": false,
      "t": 46285.56000000003,
      "d": 433.0342708333337,
      "v": 119
    },
    {
      "midi": 81,
      "hit": false,
      "t": 46499.84500000003,
      "d": 179.46368749999965,
      "v": 119
    },
    {
      "midi": 74,
      "hit": false,
      "t": 46499.84500000003,
      "d": 434.8199791666557,
      "v": 119
    },
    {
      "midi": 79,
      "hit": false,
      "t": 46714.13000000003,
      "d": 199.10647916666494,
      "v": 119
    },
    {
      "midi": 82,
      "hit": false,
      "t": 46714.13000000003,
      "d": 247.32060416665627,
      "v": 119
    },
    {
      "midi": 84,
      "hit": false,
      "t": 46928.41500000002,
      "d": 237.49920833332726,
      "v": 119
    },
    {
      "midi": 86,
      "hit": false,
      "t": 47142.70000000002,
      "d": 316.96322916666395,
      "v": 119
    },
    {
      "midi": 79,
      "hit": false,
      "t": 47571.27000000002,
      "d": 227.67781250000553,
      "v": 119
    },
    {
      "midi": 63,
      "hit": false,
      "t": 47571.27000000002,
      "d": 394.6415416666714,
      "v": 119
    },
    {
      "midi": 70,
      "hit": false,
      "t": 47785.55500000002,
      "d": 317.8560833333395,
      "v": 119
    },
    {
      "midi": 79,
      "hit": false,
      "t": 47999.840000000026,
      "d": 215.17785416667175,
      "v": 119
    },
    {
      "midi": 75,
      "hit": false,
      "t": 47999.840000000026,
      "d": 216.07070833334,
      "v": 119
    },
    {
      "midi": 86,
      "hit": false,
      "t": 48214.12500000003,
      "d": 176.78512500000215,
      "v": 119
    },
    {
      "midi": 84,
      "hit": false,
      "t": 48428.41000000003,
      "d": 221.427833333335,
      "v": 119
    },
    {
      "midi": 65,
      "hit": false,
      "t": 48428.41000000003,
      "d": 233.03493750000052,
      "v": 119
    },
    {
      "midi": 72,
      "hit": false,
      "t": 48642.695000000036,
      "d": 171.42799999999988,
      "v": 119
    },
    {
      "midi": 81,
      "hit": false,
      "t": 48642.695000000036,
      "d": 283.9276250000039,
      "v": 119
    },
    {
      "midi": 82,
      "hit": false,
      "t": 48856.98000000004,
      "d": 243.74918750000506,
      "v": 119
    },
    {
      "midi": 67,
      "hit": false,
      "t": 48856.98000000004,
      "d": 469.6412916666741,
      "v": 119
    },
    {
      "midi": 84,
      "hit": false,
      "t": 49071.26500000004,
      "d": 209.82072916666948,
      "v": 119
    },
    {
      "midi": 74,
      "hit": false,
      "t": 49071.26500000004,
      "d": 654.462104166676,
      "v": 119
    },
    {
      "midi": 79,
      "hit": false,
      "t": 49285.55000000005,
      "d": 149.1066458333371,
      "v": 119
    },
    {
      "midi": 82,
      "hit": false,
      "t": 49285.55000000005,
      "d": 227.67781250000553,
      "v": 119
    },
    {
      "midi": 81,
      "hit": false,
      "t": 49499.83500000005,
      "d": 270.53481250000186,
      "v": 119
    },
    {
      "midi": 79,
      "hit": false,
      "t": 49714.12000000005,
      "d": 199.10647916666494,
      "v": 119
    },
    {
      "midi": 79,
      "hit": false,
      "t": 50142.69000000005,
      "d": 220.53497916666674,
      "v": 119
    },
    {
      "midi": 63,
      "hit": false,
      "t": 50142.69000000005,
      "d": 434.81997916666296,
      "v": 119
    },
    {
      "midi": 70,
      "hit": false,
      "t": 50356.97500000006,
      "d": 288.39189583332336,
      "v": 119
    },
    {
      "midi": 75,
      "hit": false,
      "t": 50571.26000000005,
      "d": 151.78520833332732,
      "v": 119
    },
    {
      "midi": 79,
      "hit": false,
      "t": 50571.26000000005,
      "d": 229.4635208333275,
      "v": 119
    },
    {
      "midi": 86,
      "hit": false,
      "t": 50785.54500000005,
      "d": 196.42791666666744,
      "v": 119
    },
    {
      "midi": 84,
      "hit": false,
      "t": 50999.83000000005,
      "d": 216.07070833334,
      "v": 119
    },
    {
      "midi": 65,
      "hit": false,
      "t": 50999.83000000005,
      "d": 229.46352083334205,
      "v": 119
    },
    {
      "midi": 72,
      "hit": false,
      "t": 51214.115000000056,
      "d": 163.3923125000074,
      "v": 119
    },
    {
      "midi": 81,
      "hit": false,
      "t": 51214.115000000056,
      "d": 251.7848750000121,
      "v": 119
    },
    {
      "midi": 82,
      "hit": false,
      "t": 51428.40000000007,
      "d": 216.07070833334,
      "v": 119
    },
    {
      "midi": 67,
      "hit": false,
      "t": 51428.40000000007,
      "d": 667.854916666678,
      "v": 119
    },
    {
      "midi": 81,
      "hit": false,
      "t": 51642.68500000007,
      "d": 256.24914583333884,
      "v": 119
    },
    {
      "midi": 74,
      "hit": false,
      "t": 51642.68500000007,
      "d": 711.6047708333499,
      "v": 119
    },
    {
      "midi": 82,
      "hit": false,
      "t": 51856.970000000074,
      "d": 252.6777291666731,
      "v": 119
    },
    {
      "midi": 79,
      "hit": false,
      "t": 51856.970000000074,
      "d": 295.5347291666767,
      "v": 119
    },
    {
      "midi": 84,
      "hit": false,
      "t": 52071.25500000008,
      "d": 260.71341666667286,
      "v": 119
    },
    {
      "midi": 86,
      "hit": false,
      "t": 52285.54000000008,
      "d": 261.6062708333411,
      "v": 119
    },
    {
      "midi": 79,
      "hit": false,
      "t": 52714.11000000009,
      "d": 162.49945833333186,
      "v": 119
    },
    {
      "midi": 60,
      "hit": false,
      "t": 52714.11000000009,
      "d": 591.9623124999998,
      "v": 119
    },
    {
      "midi": 67,
      "hit": false,
      "t": 52928.395000000084,
      "d": 482.1412500000006,
      "v": 119
    },
    {
      "midi": 72,
      "hit": false,
      "t": 53142.68000000009,
      "d": 203.57074999999895,
      "v": 119
    },
    {
      "midi": 75,
      "hit": false,
      "t": 53142.68000000009,
      "d": 385.7129999999961,
      "v": 119
    },
    {
      "midi": 58,
      "hit": false,
      "t": 53571.25000000009,
      "d": 193.74935416666995,
      "v": 119
    },
    {
      "midi": 74,
      "hit": false,
      "t": 53571.25000000009,
      "d": 272.3205208333384,
      "v": 119
    },
    {
      "midi": 72,
      "hit": false,
      "t": 53999.820000000094,
      "d": 236.60635416667355,
      "v": 119
    },
    {
      "midi": 75,
      "hit": false,
      "t": 53999.820000000094,
      "d": 247.32060416667082,
      "v": 119
    },
    {
      "midi": 56,
      "hit": false,
      "t": 53999.820000000094,
      "d": 448.21279166667955,
      "v": 119
    },
    {
      "midi": 79,
      "hit": false,
      "t": 54214.1050000001,
      "d": 232.14208333333954,
      "v": 119
    },
    {
      "midi": 63,
      "hit": false,
      "t": 54214.1050000001,
      "d": 315.177520833342,
      "v": 119
    },
    {
      "midi": 68,
      "hit": false,
      "t": 54428.3900000001,
      "d": 161.60660416667088,
      "v": 119
    },
    {
      "midi": 74,
      "hit": false,
      "t": 54428.3900000001,
      "d": 224.99925000000076,
      "v": 119
    },
    {
      "midi": 65,
      "hit": false,
      "t": 54856.9600000001,
      "d": 175.8922708333339,
      "v": 119
    },
    {
      "midi": 58,
      "hit": false,
      "t": 54856.9600000001,
      "d": 188.39222916666768,
      "v": 119
    },
    {
      "midi": 70,
      "hit": false,
      "t": 54856.9600000001,
      "d": 233.92779166666878,
      "v": 119
    },
    {
      "midi": 75,
      "hit": false,
      "t": 54856.9600000001,
      "d": 246.42775000000256,
      "v": 119
    },
    {
      "midi": 60,
      "hit": false,
      "t": 55285.5300000001,
      "d": 2029.457520833348,
      "v": 118
    },
    {
      "midi": 67,
      "hit": false,
      "t": 55499.815000000104,
      "d": 1783.9226250000138,
      "v": 118
    },
    {
      "midi": 72,
      "hit": false,
      "t": 55714.10000000011,
      "d": 361.6059375000041,
      "v": 118
    },
    {
      "midi": 84,
      "hit": false,
      "t": 55928.38500000011,
      "d": 263.39197916667035,
      "v": 118
    },
    {
      "midi": 75,
      "hit": false,
      "t": 56142.670000000115,
      "d": 174.99941666666564,
      "v": 118
    },
    {
      "midi": 72,
      "hit": false,
      "t": 56356.95500000011,
      "d": 339.284583333334,
      "v": 119
    },
    {
      "midi": 74,
      "hit": false,
      "t": 56571.240000000114,
      "d": 191.96364583333343,
      "v": 119
    },
    {
      "midi": 75,
      "hit": false,
      "t": 56785.52500000012,
      "d": 237.49920833333454,
      "v": 119
    },
    {
      "midi": 79,
      "hit": false,
      "t": 56999.81000000012,
      "d": 341.96314583332423,
      "v": 119
    },
    {
      "midi": 60,
      "hit": false,
      "t": 57856.95,
      "d": 2029.457520833348,
      "v": 96
    },
    {
      "midi": 67,
      "hit": false,
      "t": 58071.235,
      "d": 1783.9226250000138,
      "v": 96
    },
    {
      "midi": 72,
      "hit": false,
      "t": 58285.520000000004,
      "d": 361.6059375000041,
      "v": 96
    },
    {
      "midi": 84,
      "hit": false,
      "t": 58499.80500000001,
      "d": 263.39197916667035,
      "v": 96
    },
    {
      "midi": 75,
      "hit": false,
      "t": 58714.09000000001,
      "d": 174.99941666666564,
      "v": 96
    },
    {
      "midi": 72,
      "hit": false,
      "t": 58928.37500000001,
      "d": 339.284583333334,
      "v": 96
    },
    {
      "midi": 74,
      "hit": false,
      "t": 59142.66000000001,
      "d": 191.96364583333343,
      "v": 95
    },
    {
      "midi": 75,
      "hit": false,
      "t": 59356.945000000014,
      "d": 237.49920833333454,
      "v": 95
    },
    {
      "midi": 79,
      "hit": false,
      "t": 59571.23000000002,
      "d": 341.96314583332423,
      "v": 95
    },
    {
      "midi": 60,
      "hit": false,
      "t": 60428.37000000011,
      "d": 2029.457520833348,
      "v": 50
    },
    {
      "midi": 67,
      "hit": false,
      "t": 60642.655000000115,
      "d": 1783.9226250000138,
      "v": 50
    },
    {
      "midi": 72,
      "hit": false,
      "t": 60856.94000000012,
      "d": 361.6059375000041,
      "v": 50
    },
    {
      "midi": 84,
      "hit": false,
      "t": 61071.22500000012,
      "d": 263.39197916667035,
      "v": 50
    },
    {
      "midi": 75,
      "hit": false,
      "t": 61285.510000000126,
      "d": 174.99941666666564,
      "v": 50
    },
    {
      "midi": 72,
      "hit": false,
      "t": 61499.79500000012,
      "d": 339.284583333334,
      "v": 50
    },
    {
      "midi": 74,
      "hit": false,
      "t": 61714.080000000125,
      "d": 191.96364583333343,
      "v": 49
    },
    {
      "midi": 75,
      "hit": false,
      "t": 61928.36500000013,
      "d": 237.49920833333454,
      "v": 49
    },
    {
      "midi": 79,
      "hit": false,
      "t": 62142.65000000013,
      "d": 341.96314583332423,
      "v": 49
    },
    {
      "midi": 79,
      "hit": false,
      "t": 94285.40000000013,
      "d": 167.85658333332685,
      "v": 118
    },
    {
      "midi": 72,
      "hit": false,
      "t": 94285.40000000013,
      "d": 459.81989583332324,
      "v": 118
    },
    {
      "midi": 79,
      "hit": false,
      "t": 94713.97000000012,
      "d": 224.99925000000803,
      "v": 118
    },
    {
      "midi": 79,
      "hit": false,
      "t": 94928.255,
      "d": 167.85658333332685,
      "v": 90
    },
    {
      "midi": 72,
      "hit": false,
      "t": 94928.255,
      "d": 459.81989583332324,
      "v": 90
    },
    {
      "midi": 72,
      "hit": false,
      "t": 94928.25500000012,
      "d": 391.07012499999837,
      "v": 118
    },
    {
      "midi": 79,
      "hit": false,
      "t": 95356.825,
      "d": 224.99925000000803,
      "v": 90
    },
    {
      "midi": 79,
      "hit": false,
      "t": 95356.82500000011,
      "d": 216.07070833334,
      "v": 118
    },
    {
      "midi": 72,
      "hit": false,
      "t": 95571.11,
      "d": 391.07012499999837,
      "v": 90
    },
    {
      "midi": 74,
      "hit": false,
      "t": 95571.11000000012,
      "d": 290.1776041666744,
      "v": 118
    },
    {
      "midi": 72,
      "hit": false,
      "t": 95571.11000000012,
      "d": 440.1771041666798,
      "v": 118
    },
    {
      "midi": 79,
      "hit": false,
      "t": 95999.68,
      "d": 216.07070833334,
      "v": 90
    },
    {
      "midi": 74,
      "hit": false,
      "t": 96213.965,
      "d": 290.1776041666744,
      "v": 90
    },
    {
      "midi": 72,
      "hit": false,
      "t": 96213.965,
      "d": 440.1771041666798,
      "v": 90
    },
    {
      "midi": 74,
      "hit": false,
      "t": 96428.25000000013,
      "d": 212.49929166666698,
      "v": 118
    },
    {
      "midi": 60,
      "hit": false,
      "t": 96428.25000000013,
      "d": 1585.709000000017,
      "v": 118
    },
    {
      "midi": 72,
      "hit": false,
      "t": 96642.53500000013,
      "d": 622.3193541666697,
      "v": 118
    },
    {
      "midi": 79,
      "hit": false,
      "t": 96856.82000000014,
      "d": 227.67781249999825,
      "v": 118
    },
    {
      "midi": 74,
      "hit": false,
      "t": 97071.10500000001,
      "d": 212.49929166666698,
      "v": 91
    },
    {
      "midi": 60,
      "hit": false,
      "t": 97071.10500000001,
      "d": 1585.709000000017,
      "v": 91
    },
    {
      "midi": 72,
      "hit": false,
      "t": 97285.39000000001,
      "d": 622.3193541666697,
      "v": 91
    },
    {
      "midi": 79,
      "hit": false,
      "t": 97499.67500000002,
      "d": 227.67781249999825,
      "v": 91
    },
    {
      "midi": 79,
      "hit": false,
      "t": 97499.67500000013,
      "d": 211.60643749999872,
      "v": 118
    },
    {
      "midi": 72,
      "hit": false,
      "t": 97713.96000000014,
      "d": 437.49854166666046,
      "v": 118
    },
    {
      "midi": 79,
      "hit": false,
      "t": 97928.24500000014,
      "d": 218.74927083333023,
      "v": 118
    },
    {
      "midi": 79,
      "hit": false,
      "t": 98142.53000000001,
      "d": 211.60643749999872,
      "v": 91
    },
    {
      "midi": 74,
      "hit": false,
      "t": 98142.53000000014,
      "d": 230.35637499998847,
      "v": 118
    },
    {
      "midi": 60,
      "hit": false,
      "t": 98142.53000000014,
      "d": 662.4977916666685,
      "v": 118
    },
    {
      "midi": 72,
      "hit": false,
      "t": 98356.81500000002,
      "d": 437.49854166666046,
      "v": 91
    },
    {
      "midi": 72,
      "hit": false,
      "t": 98356.81500000013,
      "d": 550.89102083334,
      "v": 118
    },
    {
      "midi": 79,
      "hit": false,
      "t": 98571.10000000002,
      "d": 218.74927083333023,
      "v": 91
    },
    {
      "midi": 79,
      "hit": false,
      "t": 98571.10000000014,
      "d": 215.17785416667175,
      "v": 118
    },
    {
      "midi": 74,
      "hit": false,
      "t": 98785.38500000002,
      "d": 230.35637499998847,
      "v": 91
    },
    {
      "midi": 60,
      "hit": false,
      "t": 98785.38500000002,
      "d": 662.4977916666685,
      "v": 91
    },
    {
      "midi": 72,
      "hit": false,
      "t": 98999.67000000001,
      "d": 550.89102083334,
      "v": 91
    },
    {
      "midi": 79,
      "hit": false,
      "t": 98999.67000000014,
      "d": 216.07070833334,
      "v": 118
    },
    {
      "midi": 58,
      "hit": false,
      "t": 98999.67000000014,
      "d": 1126.7819583333476,
      "v": 118
    },
    {
      "midi": 79,
      "hit": false,
      "t": 99213.95500000002,
      "d": 215.17785416667175,
      "v": 91
    },
    {
      "midi": 72,
      "hit": false,
      "t": 99213.95500000015,
      "d": 1117.8534166666795,
      "v": 118
    },
    {
      "midi": 79,
      "hit": false,
      "t": 99428.24000000015,
      "d": 232.14208333333954,
      "v": 118
    },
    {
      "midi": 79,
      "hit": false,
      "t": 99642.52500000002,
      "d": 216.07070833334,
      "v": 91
    },
    {
      "midi": 58,
      "hit": false,
      "t": 99642.52500000002,
      "d": 1126.7819583333476,
      "v": 91
    },
    {
      "midi": 72,
      "hit": false,
      "t": 99856.81000000003,
      "d": 1117.8534166666795,
      "v": 91
    },
    {
      "midi": 79,
      "hit": false,
      "t": 100071.09500000003,
      "d": 232.14208333333954,
      "v": 92
    },
    {
      "midi": 79,
      "hit": false,
      "t": 100071.09500000016,
      "d": 344.6417083333363,
      "v": 118
    },
    {
      "midi": 58,
      "hit": false,
      "t": 100285.38000000016,
      "d": 961.6039374999964,
      "v": 118
    },
    {
      "midi": 72,
      "hit": false,
      "t": 100499.66500000017,
      "d": 337.4988750000048,
      "v": 118
    },
    {
      "midi": 79,
      "hit": false,
      "t": 100713.95000000004,
      "d": 344.6417083333363,
      "v": 92
    },
    {
      "midi": 74,
      "hit": false,
      "t": 100713.95000000017,
      "d": 187.49937499999942,
      "v": 118
    },
    {
      "midi": 77,
      "hit": false,
      "t": 100713.95000000017,
      "d": 209.8207291666622,
      "v": 118
    },
    {
      "midi": 58,
      "hit": false,
      "t": 100928.23500000004,
      "d": 961.6039374999964,
      "v": 92
    },
    {
      "midi": 72,
      "hit": false,
      "t": 101142.52000000005,
      "d": 337.4988750000048,
      "v": 92
    },
    {
      "midi": 79,
      "hit": false,
      "t": 101142.52000000016,
      "d": 175.89227083332662,
      "v": 118
    },
    {
      "midi": 72,
      "hit": false,
      "t": 101142.52000000016,
      "d": 269.6419583333336,
      "v": 118
    },
    {
      "midi": 74,
      "hit": false,
      "t": 101356.80500000005,
      "d": 187.49937499999942,
      "v": 92
    },
    {
      "midi": 77,
      "hit": false,
      "t": 101356.80500000005,
      "d": 209.8207291666622,
      "v": 92
    },
    {
      "midi": 79,
      "hit": false,
      "t": 101571.09000000017,
      "d": 220.53497916666674,
      "v": 118
    },
    {
      "midi": 60,
      "hit": false,
      "t": 101571.09000000017,
      "d": 920.5326458333438,
      "v": 118
    },
    {
      "midi": 79,
      "hit": false,
      "t": 101785.37500000004,
      "d": 175.89227083332662,
      "v": 92
    },
    {
      "midi": 72,
      "hit": false,
      "t": 101785.37500000004,
      "d": 269.6419583333336,
      "v": 92
    },
    {
      "midi": 72,
      "hit": false,
      "t": 101785.37500000017,
      "d": 1134.8176458333473,
      "v": 118
    },
    {
      "midi": 79,
      "hit": false,
      "t": 101999.66000000018,
      "d": 238.3920625000028,
      "v": 118
    },
    {
      "midi": 79,
      "hit": false,
      "t": 102213.94500000005,
      "d": 220.53497916666674,
      "v": 92
    },
    {
      "midi": 60,
      "hit": false,
      "t": 102213.94500000005,
      "d": 920.5326458333438,
      "v": 92
    },
    {
      "midi": 72,
      "hit": false,
      "t": 102428.23000000005,
      "d": 1134.8176458333473,
      "v": 92
    },
    {
      "midi": 79,
      "hit": false,
      "t": 102642.51500000006,
      "d": 238.3920625000028,
      "v": 92
    },
    {
      "midi": 79,
      "hit": false,
      "t": 102642.51500000019,
      "d": 394.6415416666714,
      "v": 118
    },
    {
      "midi": 60,
      "hit": false,
      "t": 102856.80000000019,
      "d": 913.3898124999978,
      "v": 118
    },
    {
      "midi": 72,
      "hit": false,
      "t": 103071.0850000002,
      "d": 841.9614791666536,
      "v": 118
    },
    {
      "midi": 79,
      "hit": false,
      "t": 103285.37000000007,
      "d": 394.6415416666714,
      "v": 93
    },
    {
      "midi": 74,
      "hit": false,
      "t": 103285.3700000002,
      "d": 167.85658333332685,
      "v": 118
    },
    {
      "midi": 77,
      "hit": false,
      "t": 103285.3700000002,
      "d": 216.07070833332546,
      "v": 118
    },
    {
      "midi": 60,
      "hit": false,
      "t": 103499.65500000007,
      "d": 913.3898124999978,
      "v": 93
    },
    {
      "midi": 72,
      "hit": false,
      "t": 103713.94000000008,
      "d": 841.9614791666536,
      "v": 93
    },
    {
      "midi": 79,
      "hit": false,
      "t": 103713.94000000019,
      "d": 163.39231250000012,
      "v": 118
    },
    {
      "midi": 75,
      "hit": false,
      "t": 103713.94000000019,
      "d": 178.5708333333314,
      "v": 118
    },
    {
      "midi": 74,
      "hit": false,
      "t": 103928.22500000008,
      "d": 167.85658333332685,
      "v": 93
    },
    {
      "midi": 77,
      "hit": false,
      "t": 103928.22500000008,
      "d": 216.07070833332546,
      "v": 93
    },
    {
      "midi": 79,
      "hit": false,
      "t": 104356.79500000007,
      "d": 163.39231250000012,
      "v": 93
    },
    {
      "midi": 75,
      "hit": false,
      "t": 104356.79500000007,
      "d": 178.5708333333314,
      "v": 93
    },
    {
      "midi": 79,
      "hit": false,
      "t": 104571.08000000019,
      "d": 167.85658333332685,
      "v": 118
    },
    {
      "midi": 72,
      "hit": false,
      "t": 104571.08000000019,
      "d": 459.81989583332324,
      "v": 118
    },
    {
      "midi": 79,
      "hit": false,
      "t": 104999.65000000018,
      "d": 224.99925000000803,
      "v": 118
    },
    {
      "midi": 79,
      "hit": false,
      "t": 105213.93500000007,
      "d": 167.85658333332685,
      "v": 90
    },
    {
      "midi": 72,
      "hit": false,
      "t": 105213.93500000007,
      "d": 459.81989583332324,
      "v": 90
    },
    {
      "midi": 72,
      "hit": false,
      "t": 105213.93500000019,
      "d": 391.07012499999837,
      "v": 118
    },
    {
      "midi": 79,
      "hit": false,
      "t": 105642.50500000006,
      "d": 224.99925000000803,
      "v": 90
    },
    {
      "midi": 79,
      "hit": false,
      "t": 105642.50500000018,
      "d": 216.07070833334,
      "v": 118
    },
    {
      "midi": 72,
      "hit": false,
      "t": 105856.79000000007,
      "d": 391.07012499999837,
      "v": 90
    },
    {
      "midi": 74,
      "hit": false,
      "t": 105856.79000000018,
      "d": 290.1776041666744,
      "v": 118
    },
    {
      "midi": 72,
      "hit": false,
      "t": 105856.79000000018,
      "d": 440.1771041666798,
      "v": 118
    },
    {
      "midi": 79,
      "hit": false,
      "t": 106285.36000000006,
      "d": 216.07070833334,
      "v": 90
    },
    {
      "midi": 74,
      "hit": false,
      "t": 106499.64500000006,
      "d": 290.1776041666744,
      "v": 90
    },
    {
      "midi": 72,
      "hit": false,
      "t": 106499.64500000006,
      "d": 440.1771041666798,
      "v": 90
    },
    {
      "midi": 74,
      "hit": false,
      "t": 106713.9300000002,
      "d": 212.49929166666698,
      "v": 118
    },
    {
      "midi": 60,
      "hit": false,
      "t": 106713.9300000002,
      "d": 1585.709000000017,
      "v": 118
    },
    {
      "midi": 72,
      "hit": false,
      "t": 106928.2150000002,
      "d": 622.3193541666697,
      "v": 118
    },
    {
      "midi": 79,
      "hit": false,
      "t": 107142.5000000002,
      "d": 227.67781249999825,
      "v": 118
    },
    {
      "midi": 74,
      "hit": false,
      "t": 107356.78500000008,
      "d": 212.49929166666698,
      "v": 91
    },
    {
      "midi": 60,
      "hit": false,
      "t": 107356.78500000008,
      "d": 1585.709000000017,
      "v": 91
    },
    {
      "midi": 72,
      "hit": false,
      "t": 107571.07000000008,
      "d": 622.3193541666697,
      "v": 91
    },
    {
      "midi": 79,
      "hit": false,
      "t": 107785.35500000008,
      "d": 227.67781249999825,
      "v": 91
    },
    {
      "midi": 79,
      "hit": false,
      "t": 107785.3550000002,
      "d": 211.60643749999872,
      "v": 118
    },
    {
      "midi": 72,
      "hit": false,
      "t": 107999.6400000002,
      "d": 437.49854166666046,
      "v": 118
    },
    {
      "midi": 79,
      "hit": false,
      "t": 108213.9250000002,
      "d": 218.74927083333023,
      "v": 118
    },
    {
      "midi": 79,
      "hit": false,
      "t": 108428.21000000008,
      "d": 211.60643749999872,
      "v": 91
    },
    {
      "midi": 74,
      "hit": false,
      "t": 108428.21000000021,
      "d": 230.35637499998847,
      "v": 118
    },
    {
      "midi": 60,
      "hit": false,
      "t": 108428.21000000021,
      "d": 662.4977916666685,
      "v": 118
    },
    {
      "midi": 72,
      "hit": false,
      "t": 108642.49500000008,
      "d": 437.49854166666046,
      "v": 91
    },
    {
      "midi": 72,
      "hit": false,
      "t": 108642.4950000002,
      "d": 550.89102083334,
      "v": 118
    },
    {
      "midi": 79,
      "hit": false,
      "t": 108856.78000000009,
      "d": 218.74927083333023,
      "v": 91
    },
    {
      "midi": 79,
      "hit": false,
      "t": 108856.7800000002,
      "d": 215.17785416667175,
      "v": 118
    },
    {
      "midi": 74,
      "hit": false,
      "t": 109071.06500000009,
      "d": 230.35637499998847,
      "v": 91
    },
    {
      "midi": 60,
      "hit": false,
      "t": 109071.06500000009,
      "d": 662.4977916666685,
      "v": 91
    },
    {
      "midi": 72,
      "hit": false,
      "t": 109285.35000000008,
      "d": 550.89102083334,
      "v": 91
    },
    {
      "midi": 79,
      "hit": false,
      "t": 109285.35000000021,
      "d": 216.07070833334,
      "v": 118
    },
    {
      "midi": 58,
      "hit": false,
      "t": 109285.35000000021,
      "d": 1126.7819583333476,
      "v": 118
    },
    {
      "midi": 79,
      "hit": false,
      "t": 109499.63500000008,
      "d": 215.17785416667175,
      "v": 91
    },
    {
      "midi": 72,
      "hit": false,
      "t": 109499.63500000021,
      "d": 1117.8534166666795,
      "v": 118
    },
    {
      "midi": 79,
      "hit": false,
      "t": 109713.92000000022,
      "d": 232.14208333333954,
      "v": 118
    },
    {
      "midi": 79,
      "hit": false,
      "t": 109928.20500000009,
      "d": 216.07070833334,
      "v": 91
    },
    {
      "midi": 58,
      "hit": false,
      "t": 109928.20500000009,
      "d": 1126.7819583333476,
      "v": 91
    },
    {
      "midi": 72,
      "hit": false,
      "t": 110142.49000000009,
      "d": 1117.8534166666795,
      "v": 91
    },
    {
      "midi": 79,
      "hit": false,
      "t": 110356.7750000001,
      "d": 232.14208333333954,
      "v": 92
    },
    {
      "midi": 79,
      "hit": false,
      "t": 110356.77500000023,
      "d": 344.6417083333363,
      "v": 118
    },
    {
      "midi": 58,
      "hit": false,
      "t": 110571.06000000023,
      "d": 961.6039374999964,
      "v": 118
    },
    {
      "midi": 72,
      "hit": false,
      "t": 110785.34500000023,
      "d": 337.4988750000048,
      "v": 118
    },
    {
      "midi": 79,
      "hit": false,
      "t": 110999.6300000001,
      "d": 344.6417083333363,
      "v": 92
    },
    {
      "midi": 74,
      "hit": false,
      "t": 110999.63000000024,
      "d": 187.49937499999942,
      "v": 118
    },
    {
      "midi": 77,
      "hit": false,
      "t": 110999.63000000024,
      "d": 209.8207291666622,
      "v": 118
    },
    {
      "midi": 58,
      "hit": false,
      "t": 111213.91500000011,
      "d": 961.6039374999964,
      "v": 92
    },
    {
      "midi": 72,
      "hit": false,
      "t": 111428.20000000011,
      "d": 337.4988750000048,
      "v": 92
    },
    {
      "midi": 79,
      "hit": false,
      "t": 111428.20000000023,
      "d": 175.89227083332662,
      "v": 118
    },
    {
      "midi": 72,
      "hit": false,
      "t": 111428.20000000023,
      "d": 269.6419583333336,
      "v": 118
    },
    {
      "midi": 74,
      "hit": false,
      "t": 111642.48500000012,
      "d": 187.49937499999942,
      "v": 92
    },
    {
      "midi": 77,
      "hit": false,
      "t": 111642.48500000012,
      "d": 209.8207291666622,
      "v": 92
    },
    {
      "midi": 79,
      "hit": false,
      "t": 111856.77000000024,
      "d": 220.53497916666674,
      "v": 118
    },
    {
      "midi": 60,
      "hit": false,
      "t": 111856.77000000024,
      "d": 920.5326458333438,
      "v": 118
    },
    {
      "midi": 79,
      "hit": false,
      "t": 112071.05500000011,
      "d": 175.89227083332662,
      "v": 92
    },
    {
      "midi": 72,
      "hit": false,
      "t": 112071.05500000011,
      "d": 269.6419583333336,
      "v": 92
    },
    {
      "midi": 72,
      "hit": false,
      "t": 112071.05500000024,
      "d": 1134.8176458333473,
      "v": 118
    },
    {
      "midi": 79,
      "hit": false,
      "t": 112285.34000000024,
      "d": 238.3920625000028,
      "v": 118
    },
    {
      "midi": 79,
      "hit": false,
      "t": 112499.62500000012,
      "d": 220.53497916666674,
      "v": 92
    },
    {
      "midi": 60,
      "hit": false,
      "t": 112499.62500000012,
      "d": 920.5326458333438,
      "v": 92
    },
    {
      "midi": 72,
      "hit": false,
      "t": 112713.91000000012,
      "d": 1134.8176458333473,
      "v": 92
    },
    {
      "midi": 79,
      "hit": false,
      "t": 112928.19500000012,
      "d": 238.3920625000028,
      "v": 92
    },
    {
      "midi": 79,
      "hit": false,
      "t": 112928.19500000025,
      "d": 394.6415416666714,
      "v": 118
    },
    {
      "midi": 60,
      "hit": false,
      "t": 113142.48000000026,
      "d": 913.3898124999978,
      "v": 118
    },
    {
      "midi": 72,
      "hit": false,
      "t": 113356.76500000026,
      "d": 841.9614791666536,
      "v": 118
    },
    {
      "midi": 79,
      "hit": false,
      "t": 113571.05000000013,
      "d": 394.6415416666714,
      "v": 93
    },
    {
      "midi": 74,
      "hit": false,
      "t": 113571.05000000026,
      "d": 167.85658333332685,
      "v": 118
    },
    {
      "midi": 77,
      "hit": false,
      "t": 113571.05000000026,
      "d": 216.07070833332546,
      "v": 118
    },
    {
      "midi": 60,
      "hit": false,
      "t": 113785.33500000014,
      "d": 913.3898124999978,
      "v": 93
    },
    {
      "midi": 72,
      "hit": false,
      "t": 113999.62000000014,
      "d": 841.9614791666536,
      "v": 93
    },
    {
      "midi": 79,
      "hit": false,
      "t": 113999.62000000026,
      "d": 163.39231250000012,
      "v": 118
    },
    {
      "midi": 75,
      "hit": false,
      "t": 113999.62000000026,
      "d": 178.5708333333314,
      "v": 118
    },
    {
      "midi": 74,
      "hit": false,
      "t": 114213.90500000014,
      "d": 167.85658333332685,
      "v": 93
    },
    {
      "midi": 77,
      "hit": false,
      "t": 114213.90500000014,
      "d": 216.07070833332546,
      "v": 93
    },
    {
      "midi": 79,
      "hit": false,
      "t": 114428.19000000025,
      "d": 210.713583333345,
      "v": 105
    },
    {
      "midi": 74,
      "hit": false,
      "t": 114428.19000000025,
      "d": 242.85633333335863,
      "v": 105
    },
    {
      "midi": 60,
      "hit": false,
      "t": 114428.19000000025,
      "d": 661.6049375000293,
      "v": 105
    },
    {
      "midi": 79,
      "hit": false,
      "t": 114642.47500000014,
      "d": 163.39231250000012,
      "v": 93
    },
    {
      "midi": 75,
      "hit": false,
      "t": 114642.47500000014,
      "d": 178.5708333333314,
      "v": 93
    },
    {
      "midi": 72,
      "hit": false,
      "t": 114642.47500000027,
      "d": 91.07112500000221,
      "v": 106
    },
    {
      "midi": 67,
      "hit": false,
      "t": 114856.76000000027,
      "d": 267.85625000001164,
      "v": 107
    },
    {
      "midi": 79,
      "hit": false,
      "t": 115071.04500000013,
      "d": 210.713583333345,
      "v": 86
    },
    {
      "midi": 74,
      "hit": false,
      "t": 115071.04500000013,
      "d": 242.85633333335863,
      "v": 86
    },
    {
      "midi": 60,
      "hit": false,
      "t": 115071.04500000013,
      "d": 661.6049375000293,
      "v": 86
    },
    {
      "midi": 72,
      "hit": false,
      "t": 115071.04500000027,
      "d": 136.6066875000106,
      "v": 109
    },
    {
      "midi": 72,
      "hit": false,
      "t": 115285.33000000015,
      "d": 91.07112500000221,
      "v": 85
    },
    {
      "midi": 91,
      "hit": false,
      "t": 115285.33000000028,
      "d": 176.78512499999488,
      "v": 110
    },
    {
      "midi": 86,
      "hit": false,
      "t": 115285.33000000028,
      "d": 227.6778124999837,
      "v": 110
    },
    {
      "midi": 67,
      "hit": false,
      "t": 115499.61500000015,
      "d": 267.85625000001164,
      "v": 84
    },
    {
      "midi": 84,
      "hit": false,
      "t": 115499.61500000027,
      "d": 166.9637291666586,
      "v": 111
    },
    {
      "midi": 72,
      "hit": false,
      "t": 115713.90000000015,
      "d": 136.6066875000106,
      "v": 83
    },
    {
      "midi": 72,
      "hit": false,
      "t": 115713.90000000026,
      "d": 424.1057291666657,
      "v": 112
    },
    {
      "midi": 91,
      "hit": false,
      "t": 115928.18500000016,
      "d": 176.78512499999488,
      "v": 82
    },
    {
      "midi": 86,
      "hit": false,
      "t": 115928.18500000016,
      "d": 227.6778124999837,
      "v": 82
    },
    {
      "midi": 79,
      "hit": false,
      "t": 115928.18500000026,
      "d": 408.0343541666516,
      "v": 114
    },
    {
      "midi": 84,
      "hit": false,
      "t": 116142.47000000015,
      "d": 166.9637291666586,
      "v": 81
    },
    {
      "midi": 103,
      "hit": false,
      "t": 116142.47000000025,
      "d": 209.8207291666622,
      "v": 115
    },
    {
      "midi": 98,
      "hit": false,
      "t": 116142.47000000025,
      "d": 249.99916666666104,
      "v": 115
    },
    {
      "midi": 84,
      "hit": false,
      "t": 116142.47000000025,
      "d": 260.7134166666656,
      "v": 115
    },
    {
      "midi": 72,
      "hit": false,
      "t": 116356.75500000014,
      "d": 424.1057291666657,
      "v": 80
    },
    {
      "midi": 96,
      "hit": false,
      "t": 116356.75500000024,
      "d": 206.24931250000373,
      "v": 116
    },
    {
      "midi": 79,
      "hit": false,
      "t": 116571.04000000014,
      "d": 408.0343541666516,
      "v": 79
    },
    {
      "midi": 84,
      "hit": false,
      "t": 116571.04000000024,
      "d": 750.8903541666805,
      "v": 118
    },
    {
      "midi": 103,
      "hit": false,
      "t": 116785.32500000013,
      "d": 209.8207291666622,
      "v": 78
    },
    {
      "midi": 98,
      "hit": false,
      "t": 116785.32500000013,
      "d": 249.99916666666104,
      "v": 78
    },
    {
      "midi": 84,
      "hit": false,
      "t": 116785.32500000013,
      "d": 260.7134166666656,
      "v": 78
    },
    {
      "midi": 91,
      "hit": false,
      "t": 116785.32500000024,
      "d": 540.17677083335,
      "v": 119
    },
    {
      "midi": 96,
      "hit": false,
      "t": 116999.61000000012,
      "d": 206.24931250000373,
      "v": 77
    },
    {
      "midi": 103,
      "hit": false,
      "t": 116999.61000000025,
      "d": 277.6776458333334,
      "v": 121
    },
    {
      "midi": 84,
      "hit": false,
      "t": 117213.89500000012,
      "d": 750.8903541666805,
      "v": 77
    },
    {
      "midi": 108,
      "hit": false,
      "t": 117213.89500000025,
      "d": 277.6776458333479,
      "v": 121
    },
    {
      "midi": 91,
      "hit": false,
      "t": 117428.18000000012,
      "d": 540.17677083335,
      "v": 76
    },
    {
      "midi": 103,
      "hit": false,
      "t": 117642.46500000013,
      "d": 277.6776458333334,
      "v": 75
    },
    {
      "midi": 108,
      "hit": false,
      "t": 117856.75000000013,
      "d": 277.6776458333479,
      "v": 75
    }
  ]
}