{
  "jsonPath": "Unknown/Unknown/Phantom Planet/california.json",
  "path": "Unknown\\Unknown\\Phantom Planet\\California.mid",
  "name": "California",
  "difficulty": "Advanced",
  "bpm": 80,
  "notes": [
    {
      "midi": 68,
      "hit": false,
      "t": 2926.8240000000005,
      "d": 172.25578750000022,
      "v": 105
    },
    {
      "midi": 80,
      "hit": false,
      "t": 2926.8240000000005,
      "d": 172.25578750000022,
      "v": 94
    },
    {
      "midi": 71,
      "hit": false,
      "t": 3109.7505000000006,
      "d": 172.25578750000022,
      "v": 73
    },
    {
      "midi": 83,
      "hit": false,
      "t": 3109.7505000000006,
      "d": 172.25578750000022,
      "v": 63
    },
    {
      "midi": 73,
      "hit": false,
      "t": 3292.6770000000006,
      "d": 172.25578750000022,
      "v": 82
    },
    {
      "midi": 85,
      "hit": false,
      "t": 3292.6770000000006,
      "d": 172.25578750000022,
      "v": 73
    },
    {
      "midi": 71,
      "hit": false,
      "t": 3475.6035000000006,
      "d": 172.25578750000022,
      "v": 76
    },
    {
      "midi": 83,
      "hit": false,
      "t": 3475.6035000000006,
      "d": 172.25578750000022,
      "v": 66
    },
    {
      "midi": 73,
      "hit": false,
      "t": 3658.5300000000007,
      "d": 538.1087875000003,
      "v": 97
    },
    {
      "midi": 85,
      "hit": false,
      "t": 3658.5300000000007,
      "d": 538.1087875000003,
      "v": 87
    },
    {
      "midi": 68,
      "hit": false,
      "t": 4207.309500000001,
      "d": 355.1822874999998,
      "v": 94
    },
    {
      "midi": 80,
      "hit": false,
      "t": 4207.309500000001,
      "d": 355.1822874999998,
      "v": 84
    },
    {
      "midi": 71,
      "hit": false,
      "t": 4573.162500000001,
      "d": 172.25578750000022,
      "v": 81
    },
    {
      "midi": 83,
      "hit": false,
      "t": 4573.162500000001,
      "d": 172.25578750000022,
      "v": 71
    },
    {
      "midi": 73,
      "hit": false,
      "t": 4756.089000000002,
      "d": 172.25578750000022,
      "v": 82
    },
    {
      "midi": 85,
      "hit": false,
      "t": 4756.089000000002,
      "d": 172.25578750000022,
      "v": 72
    },
    {
      "midi": 71,
      "hit": false,
      "t": 4939.015500000002,
      "d": 172.25578750000022,
      "v": 71
    },
    {
      "midi": 83,
      "hit": false,
      "t": 4939.015500000002,
      "d": 172.25578750000022,
      "v": 60
    },
    {
      "midi": 73,
      "hit": false,
      "t": 5121.942000000003,
      "d": 721.0352874999999,
      "v": 89
    },
    {
      "midi": 85,
      "hit": false,
      "t": 5121.942000000003,
      "d": 721.0352874999999,
      "v": 79
    },
    {
      "midi": 68,
      "hit": false,
      "t": 5853.648000000003,
      "d": 172.25578750000022,
      "v": 88
    },
    {
      "midi": 80,
      "hit": false,
      "t": 5853.648000000003,
      "d": 172.25578750000022,
      "v": 79
    },
    {
      "midi": 71,
      "hit": false,
      "t": 6036.574500000003,
      "d": 172.25578750000022,
      "v": 86
    },
    {
      "midi": 83,
      "hit": false,
      "t": 6036.574500000003,
      "d": 172.25578750000022,
      "v": 76
    },
    {
      "midi": 73,
      "hit": false,
      "t": 6219.501000000004,
      "d": 172.25578750000022,
      "v": 71
    },
    {
      "midi": 85,
      "hit": false,
      "t": 6219.501000000004,
      "d": 172.25578750000022,
      "v": 61
    },
    {
      "midi": 71,
      "hit": false,
      "t": 6402.427500000004,
      "d": 172.25578750000022,
      "v": 76
    },
    {
      "midi": 83,
      "hit": false,
      "t": 6402.427500000004,
      "d": 172.25578750000022,
      "v": 66
    },
    {
      "midi": 73,
      "hit": false,
      "t": 6585.354000000005,
      "d": 355.1822874999998,
      "v": 97
    },
    {
      "midi": 85,
      "hit": false,
      "t": 6585.354000000005,
      "d": 355.1822874999998,
      "v": 87
    },
    {
      "midi": 75,
      "hit": false,
      "t": 6951.207000000005,
      "d": 172.25578750000022,
      "v": 78
    },
    {
      "midi": 87,
      "hit": false,
      "t": 6951.207000000005,
      "d": 172.25578750000022,
      "v": 68
    },
    {
      "midi": 71,
      "hit": false,
      "t": 7134.133500000005,
      "d": 903.9617875000004,
      "v": 95
    },
    {
      "midi": 83,
      "hit": false,
      "t": 7134.133500000005,
      "d": 903.9617875000004,
      "v": 84
    },
    {
      "midi": 68,
      "hit": false,
      "t": 8048.766000000006,
      "d": 355.1822875000007,
      "v": 107
    },
    {
      "midi": 66,
      "hit": false,
      "t": 8414.619000000006,
      "d": 172.25578750000022,
      "v": 99
    },
    {
      "midi": 66,
      "hit": false,
      "t": 8597.545500000006,
      "d": 538.1087875000012,
      "v": 108
    },
    {
      "midi": 76,
      "hit": false,
      "t": 8696.630687500006,
      "d": 1230.1807124999978,
      "v": 49
    },
    {
      "midi": 81,
      "hit": false,
      "t": 8743.886700000006,
      "d": 1181.400312499998,
      "v": 54
    },
    {
      "midi": 85,
      "hit": false,
      "t": 8797.240262500007,
      "d": 1111.278487499998,
      "v": 60
    },
    {
      "midi": 88,
      "hit": false,
      "t": 8853.642600000006,
      "d": 1112.8028749999976,
      "v": 69
    },
    {
      "midi": 64,
      "hit": false,
      "t": 9146.325000000006,
      "d": 172.25578750000022,
      "v": 91
    },
    {
      "midi": 64,
      "hit": false,
      "t": 9329.251500000006,
      "d": 538.1087874999994,
      "v": 108
    },
    {
      "midi": 66,
      "hit": false,
      "t": 9878.031000000004,
      "d": 172.25578750000022,
      "v": 94
    },
    {
      "midi": 68,
      "hit": false,
      "t": 10060.957500000004,
      "d": 721.035287499999,
      "v": 107
    },
    {
      "midi": 71,
      "hit": false,
      "t": 10190.530437500003,
      "d": 1376.5219125000003,
      "v": 59
    },
    {
      "midi": 76,
      "hit": false,
      "t": 10224.066962500003,
      "d": 1326.217125000001,
      "v": 62
    },
    {
      "midi": 80,
      "hit": false,
      "t": 10256.079100000003,
      "d": 1246.9489750000012,
      "v": 64
    },
    {
      "midi": 83,
      "hit": false,
      "t": 10289.615625000002,
      "d": 1228.6563250000017,
      "v": 69
    },
    {
      "midi": 68,
      "hit": false,
      "t": 10975.590000000004,
      "d": 355.1822874999998,
      "v": 114
    },
    {
      "midi": 66,
      "hit": false,
      "t": 11341.443000000003,
      "d": 172.25578750000022,
      "v": 97
    },
    {
      "midi": 66,
      "hit": false,
      "t": 11524.369500000004,
      "d": 538.1087874999994,
      "v": 109
    },
    {
      "midi": 76,
      "hit": false,
      "t": 11623.454687500003,
      "d": 1230.1807124999978,
      "v": 48
    },
    {
      "midi": 81,
      "hit": false,
      "t": 11670.710700000003,
      "d": 1181.400312499998,
      "v": 55
    },
    {
      "midi": 85,
      "hit": false,
      "t": 11724.064262500004,
      "d": 1111.278487499998,
      "v": 60
    },
    {
      "midi": 88,
      "hit": false,
      "t": 11780.466600000003,
      "d": 1112.8028749999976,
      "v": 68
    },
    {
      "midi": 64,
      "hit": false,
      "t": 12073.149000000003,
      "d": 172.25578750000022,
      "v": 89
    },
    {
      "midi": 64,
      "hit": false,
      "t": 12256.075500000003,
      "d": 538.1087874999994,
      "v": 101
    },
    {
      "midi": 66,
      "hit": false,
      "t": 12804.855000000001,
      "d": 172.25578750000022,
      "v": 90
    },
    {
      "midi": 68,
      "hit": false,
      "t": 12987.781500000001,
      "d": 1635.6677874999968,
      "v": 108
    },
    {
      "midi": 71,
      "hit": false,
      "t": 13117.3544375,
      "d": 1376.5219124999985,
      "v": 59
    },
    {
      "midi": 76,
      "hit": false,
      "t": 13150.8909625,
      "d": 1028.9615624999988,
      "v": 63
    },
    {
      "midi": 80,
      "hit": false,
      "t": 13182.9031,
      "d": 1246.9489749999993,
      "v": 64
    },
    {
      "midi": 83,
      "hit": false,
      "t": 13216.439624999999,
      "d": 1228.656325,
      "v": 68
    },
    {
      "midi": 88,
      "hit": false,
      "t": 14268.266999999998,
      "d": 2157.0083125,
      "v": 68
    },
    {
      "midi": 76,
      "hit": false,
      "t": 14268.266999999998,
      "d": 2169.203412500001,
      "v": 69
    },
    {
      "midi": 61,
      "hit": false,
      "t": 26341.416,
      "d": 721.035287499999,
      "v": 55
    },
    {
      "midi": 64,
      "hit": false,
      "t": 26341.416,
      "d": 721.035287499999,
      "v": 54
    },
    {
      "midi": 68,
      "hit": false,
      "t": 26341.416,
      "d": 721.035287499999,
      "v": 55
    },
    {
      "midi": 49,
      "hit": false,
      "t": 26341.416,
      "d": 1818.5942874999964,
      "v": 55
    },
    {
      "midi": 61,
      "hit": false,
      "t": 27073.122,
      "d": 538.1087875000012,
      "v": 54
    },
    {
      "midi": 64,
      "hit": false,
      "t": 27073.122,
      "d": 538.1087875000012,
      "v": 54
    },
    {
      "midi": 68,
      "hit": false,
      "t": 27073.122,
      "d": 538.1087875000012,
      "v": 55
    },
    {
      "midi": 61,
      "hit": false,
      "t": 27621.9015,
      "d": 355.1822874999998,
      "v": 55
    },
    {
      "midi": 64,
      "hit": false,
      "t": 27621.9015,
      "d": 355.1822874999998,
      "v": 54
    },
    {
      "midi": 68,
      "hit": false,
      "t": 27621.9015,
      "d": 355.1822874999998,
      "v": 54
    },
    {
      "midi": 61,
      "hit": false,
      "t": 27987.7545,
      "d": 538.1087874999976,
      "v": 55
    },
    {
      "midi": 64,
      "hit": false,
      "t": 27987.7545,
      "d": 538.1087874999976,
      "v": 55
    },
    {
      "midi": 68,
      "hit": false,
      "t": 27987.7545,
      "d": 538.1087874999976,
      "v": 54
    },
    {
      "midi": 49,
      "hit": false,
      "t": 28170.680999999997,
      "d": 721.035287499999,
      "v": 54
    },
    {
      "midi": 61,
      "hit": false,
      "t": 28536.533999999996,
      "d": 721.035287499999,
      "v": 55
    },
    {
      "midi": 64,
      "hit": false,
      "t": 28536.533999999996,
      "d": 721.035287499999,
      "v": 54
    },
    {
      "midi": 68,
      "hit": false,
      "t": 28536.533999999996,
      "d": 721.035287499999,
      "v": 55
    },
    {
      "midi": 49,
      "hit": false,
      "t": 28902.386999999995,
      "d": 355.1822874999998,
      "v": 55
    },
    {
      "midi": 49,
      "hit": false,
      "t": 29268.239999999994,
      "d": 355.1822874999998,
      "v": 54
    },
    {
      "midi": 61,
      "hit": false,
      "t": 29268.239999999994,
      "d": 721.035287499999,
      "v": 55
    },
    {
      "midi": 64,
      "hit": false,
      "t": 29268.239999999994,
      "d": 721.035287499999,
      "v": 54
    },
    {
      "midi": 68,
      "hit": false,
      "t": 29268.239999999994,
      "d": 721.035287499999,
      "v": 54
    },
    {
      "midi": 49,
      "hit": false,
      "t": 29634.092999999993,
      "d": 355.1822874999998,
      "v": 55
    },
    {
      "midi": 45,
      "hit": false,
      "t": 29999.945999999993,
      "d": 721.035287499999,
      "v": 55
    },
    {
      "midi": 57,
      "hit": false,
      "t": 29999.945999999993,
      "d": 721.035287499999,
      "v": 54
    },
    {
      "midi": 61,
      "hit": false,
      "t": 29999.945999999993,
      "d": 721.035287499999,
      "v": 54
    },
    {
      "midi": 64,
      "hit": false,
      "t": 29999.945999999993,
      "d": 721.035287499999,
      "v": 55
    },
    {
      "midi": 56,
      "hit": false,
      "t": 30731.65199999999,
      "d": 721.035287499999,
      "v": 54
    },
    {
      "midi": 59,
      "hit": false,
      "t": 30731.65199999999,
      "d": 721.035287499999,
      "v": 54
    },
    {
      "midi": 64,
      "hit": false,
      "t": 30731.65199999999,
      "d": 721.035287499999,
      "v": 55
    },
    {
      "midi": 40,
      "hit": false,
      "t": 30731.65199999999,
      "d": 1086.8882874999981,
      "v": 55
    },
    {
      "midi": 56,
      "hit": false,
      "t": 31463.35799999999,
      "d": 721.035287499999,
      "v": 54
    },
    {
      "midi": 59,
      "hit": false,
      "t": 31463.35799999999,
      "d": 721.035287499999,
      "v": 55
    },
    {
      "midi": 64,
      "hit": false,
      "t": 31463.35799999999,
      "d": 721.035287499999,
      "v": 55
    },
    {
      "midi": 40,
      "hit": false,
      "t": 31829.21099999999,
      "d": 355.1822874999998,
      "v": 54
    },
    {
      "midi": 57,
      "hit": false,
      "t": 32195.063999999988,
      "d": 721.035287499999,
      "v": 54
    },
    {
      "midi": 61,
      "hit": false,
      "t": 32195.063999999988,
      "d": 721.035287499999,
      "v": 54
    },
    {
      "midi": 64,
      "hit": false,
      "t": 32195.063999999988,
      "d": 721.035287499999,
      "v": 55
    },
    {
      "midi": 45,
      "hit": false,
      "t": 32195.063999999988,
      "d": 1269.8147875000031,
      "v": 55
    },
    {
      "midi": 57,
      "hit": false,
      "t": 32926.76999999999,
      "d": 538.1087875000012,
      "v": 55
    },
    {
      "midi": 61,
      "hit": false,
      "t": 32926.76999999999,
      "d": 538.1087875000012,
      "v": 54
    },
    {
      "midi": 64,
      "hit": false,
      "t": 32926.76999999999,
      "d": 903.961787500004,
      "v": 54
    },
    {
      "midi": 56,
      "hit": false,
      "t": 33475.549499999994,
      "d": 355.1822874999998,
      "v": 55
    },
    {
      "midi": 59,
      "hit": false,
      "t": 33475.549499999994,
      "d": 355.1822874999998,
      "v": 55
    },
    {
      "midi": 40,
      "hit": false,
      "t": 33658.475999999995,
      "d": 355.1822874999998,
      "v": 54
    },
    {
      "midi": 56,
      "hit": false,
      "t": 33841.4025,
      "d": 538.1087875000012,
      "v": 54
    },
    {
      "midi": 59,
      "hit": false,
      "t": 33841.4025,
      "d": 538.1087875000012,
      "v": 55
    },
    {
      "midi": 64,
      "hit": false,
      "t": 33841.4025,
      "d": 538.1087875000012,
      "v": 54
    },
    {
      "midi": 40,
      "hit": false,
      "t": 34024.329,
      "d": 721.0352875000026,
      "v": 55
    },
    {
      "midi": 56,
      "hit": false,
      "t": 34390.182,
      "d": 721.0352875000026,
      "v": 55
    },
    {
      "midi": 59,
      "hit": false,
      "t": 34390.182,
      "d": 721.0352875000026,
      "v": 54
    },
    {
      "midi": 64,
      "hit": false,
      "t": 34390.182,
      "d": 721.0352875000026,
      "v": 55
    },
    {
      "midi": 40,
      "hit": false,
      "t": 34756.035,
      "d": 355.1822874999998,
      "v": 54
    },
    {
      "midi": 57,
      "hit": false,
      "t": 35121.888000000006,
      "d": 721.0352875000026,
      "v": 55
    },
    {
      "midi": 61,
      "hit": false,
      "t": 35121.888000000006,
      "d": 721.0352875000026,
      "v": 55
    },
    {
      "midi": 64,
      "hit": false,
      "t": 35121.888000000006,
      "d": 721.0352875000026,
      "v": 54
    },
    {
      "midi": 45,
      "hit": false,
      "t": 35121.888000000006,
      "d": 1269.8147875000068,
      "v": 54
    },
    {
      "midi": 57,
      "hit": false,
      "t": 35853.59400000001,
      "d": 538.1087875000012,
      "v": 54
    },
    {
      "midi": 61,
      "hit": false,
      "t": 35853.59400000001,
      "d": 538.1087875000012,
      "v": 55
    },
    {
      "midi": 64,
      "hit": false,
      "t": 35853.59400000001,
      "d": 538.1087875000012,
      "v": 55
    },
    {
      "midi": 56,
      "hit": false,
      "t": 36402.373500000016,
      "d": 355.1822874999998,
      "v": 54
    },
    {
      "midi": 59,
      "hit": false,
      "t": 36402.373500000016,
      "d": 355.1822874999998,
      "v": 54
    },
    {
      "midi": 64,
      "hit": false,
      "t": 36402.373500000016,
      "d": 355.1822874999998,
      "v": 55
    },
    {
      "midi": 40,
      "hit": false,
      "t": 36585.30000000002,
      "d": 355.1822874999998,
      "v": 54
    },
    {
      "midi": 56,
      "hit": false,
      "t": 36768.22650000002,
      "d": 538.1087875000012,
      "v": 55
    },
    {
      "midi": 59,
      "hit": false,
      "t": 36768.22650000002,
      "d": 538.1087875000012,
      "v": 55
    },
    {
      "midi": 64,
      "hit": false,
      "t": 36768.22650000002,
      "d": 538.1087875000012,
      "v": 54
    },
    {
      "midi": 40,
      "hit": false,
      "t": 36951.15300000002,
      "d": 721.0352875000026,
      "v": 55
    },
    {
      "midi": 56,
      "hit": false,
      "t": 37317.00600000002,
      "d": 721.0352875000026,
      "v": 54
    },
    {
      "midi": 59,
      "hit": false,
      "t": 37317.00600000002,
      "d": 721.0352875000026,
      "v": 54
    },
    {
      "midi": 64,
      "hit": false,
      "t": 37317.00600000002,
      "d": 721.0352875000026,
      "v": 55
    },
    {
      "midi": 40,
      "hit": false,
      "t": 37682.859000000026,
      "d": 355.1822874999998,
      "v": 55
    },
    {
      "midi": 57,
      "hit": false,
      "t": 38048.71200000003,
      "d": 161.5850750000027,
      "v": 50
    },
    {
      "midi": 61,
      "hit": false,
      "t": 38048.71200000003,
      "d": 161.5850750000027,
      "v": 51
    },
    {
      "midi": 64,
      "hit": false,
      "t": 38048.71200000003,
      "d": 176.8289500000028,
      "v": 51
    },
    {
      "midi": 45,
      "hit": false,
      "t": 38048.71200000003,
      "d": 2995.421437499979,
      "v": 50
    },
    {
      "midi": 57,
      "hit": false,
      "t": 38414.56500000003,
      "d": 147.86558749999676,
      "v": 50
    },
    {
      "midi": 61,
      "hit": false,
      "t": 38414.56500000003,
      "d": 153.96313749999536,
      "v": 50
    },
    {
      "midi": 64,
      "hit": false,
      "t": 38414.56500000003,
      "d": 164.63384999999835,
      "v": 51
    },
    {
      "midi": 57,
      "hit": false,
      "t": 38780.41800000003,
      "d": 152.43875000000116,
      "v": 50
    },
    {
      "midi": 61,
      "hit": false,
      "t": 38780.41800000003,
      "d": 157.0119124999983,
      "v": 51
    },
    {
      "midi": 64,
      "hit": false,
      "t": 38780.41800000003,
      "d": 164.63384999999835,
      "v": 51
    },
    {
      "midi": 57,
      "hit": false,
      "t": 39146.27100000002,
      "d": 153.96313750000263,
      "v": 50
    },
    {
      "midi": 61,
      "hit": false,
      "t": 39146.27100000002,
      "d": 155.4875250000041,
      "v": 51
    },
    {
      "midi": 64,
      "hit": false,
      "t": 39146.27100000002,
      "d": 164.63385000000562,
      "v": 50
    },
    {
      "midi": 57,
      "hit": false,
      "t": 39512.124000000025,
      "d": 163.10946249999688,
      "v": 52
    },
    {
      "midi": 61,
      "hit": false,
      "t": 39512.124000000025,
      "d": 167.682624999994,
      "v": 53
    },
    {
      "midi": 64,
      "hit": false,
      "t": 39512.124000000025,
      "d": 172.25578749999113,
      "v": 53
    },
    {
      "midi": 57,
      "hit": false,
      "t": 39877.97700000001,
      "d": 172.2557874999984,
      "v": 52
    },
    {
      "midi": 61,
      "hit": false,
      "t": 39877.97700000001,
      "d": 178.353337499997,
      "v": 52
    },
    {
      "midi": 64,
      "hit": false,
      "t": 39877.97700000001,
      "d": 187.49966249999852,
      "v": 53
    },
    {
      "midi": 57,
      "hit": false,
      "t": 40243.83000000001,
      "d": 155.48752499999682,
      "v": 53
    },
    {
      "midi": 61,
      "hit": false,
      "t": 40243.83000000001,
      "d": 164.63384999999835,
      "v": 52
    },
    {
      "midi": 64,
      "hit": false,
      "t": 40243.83000000001,
      "d": 179.87772499999846,
      "v": 52
    },
    {
      "midi": 57,
      "hit": false,
      "t": 40609.683000000005,
      "d": 138.71926250000251,
      "v": 53
    },
    {
      "midi": 61,
      "hit": false,
      "t": 40609.683000000005,
      "d": 144.8168125000011,
      "v": 52
    },
    {
      "midi": 64,
      "hit": false,
      "t": 40609.683000000005,
      "d": 153.96313750000263,
      "v": 53
    },
    {
      "midi": 52,
      "hit": false,
      "t": 76097.42400000001,
      "d": 2893.287475000019,
      "v": 40
    },
    {
      "midi": 45,
      "hit": false,
      "t": 76097.42400000001,
      "d": 2916.153287500012,
      "v": 75
    },
    {
      "midi": 40,
      "hit": false,
      "t": 79024.24800000002,
      "d": 11704.247225,
      "v": 61
    },
    {
      "midi": 64,
      "hit": false,
      "t": 79024.24800000002,
      "d": 11704.247225,
      "v": 68
    },
    {
      "midi": 40,
      "hit": false,
      "t": 90731.54400000002,
      "d": 11704.247225,
      "v": 60
    },
    {
      "midi": 64,
      "hit": false,
      "t": 90731.54400000002,
      "d": 11704.247225,
      "v": 69
    },
    {
      "midi": 68,
      "hit": false,
      "t": 102438.84000000003,
      "d": 172.25578750000568,
      "v": 105
    },
    {
      "midi": 80,
      "hit": false,
      "t": 102438.84000000003,
      "d": 172.25578750000568,
      "v": 94
    },
    {
      "midi": 71,
      "hit": false,
      "t": 102621.76650000003,
      "d": 172.25578750000568,
      "v": 72
    },
    {
      "midi": 83,
      "hit": false,
      "t": 102621.76650000003,
      "d": 172.25578750000568,
      "v": 63
    },
    {
      "midi": 73,
      "hit": false,
      "t": 102804.69300000003,
      "d": 172.25578750000568,
      "v": 83
    },
    {
      "midi": 85,
      "hit": false,
      "t": 102804.69300000003,
      "d": 172.25578750000568,
      "v": 72
    },
    {
      "midi": 71,
      "hit": false,
      "t": 102987.61950000003,
      "d": 172.25578750000568,
      "v": 76
    },
    {
      "midi": 83,
      "hit": false,
      "t": 102987.61950000003,
      "d": 172.25578750000568,
      "v": 67
    },
    {
      "midi": 73,
      "hit": false,
      "t": 103170.54600000003,
      "d": 538.1087874999939,
      "v": 96
    },
    {
      "midi": 85,
      "hit": false,
      "t": 103170.54600000003,
      "d": 538.1087874999939,
      "v": 87
    },
    {
      "midi": 68,
      "hit": false,
      "t": 103719.32550000002,
      "d": 355.1822875000071,
      "v": 95
    },
    {
      "midi": 80,
      "hit": false,
      "t": 103719.32550000002,
      "d": 355.1822875000071,
      "v": 84
    },
    {
      "midi": 71,
      "hit": false,
      "t": 104085.17850000002,
      "d": 172.25578750000568,
      "v": 81
    },
    {
      "midi": 83,
      "hit": false,
      "t": 104085.17850000002,
      "d": 172.25578750000568,
      "v": 70
    },
    {
      "midi": 73,
      "hit": false,
      "t": 104268.10500000003,
      "d": 172.25578750000568,
      "v": 82
    },
    {
      "midi": 85,
      "hit": false,
      "t": 104268.10500000003,
      "d": 172.25578750000568,
      "v": 73
    },
    {
      "midi": 71,
      "hit": false,
      "t": 104451.03150000003,
      "d": 172.25578750000568,
      "v": 71
    },
    {
      "midi": 83,
      "hit": false,
      "t": 104451.03150000003,
      "d": 172.25578750000568,
      "v": 60
    },
    {
      "midi": 73,
      "hit": false,
      "t": 104633.95800000003,
      "d": 721.0352874999953,
      "v": 88
    },
    {
      "midi": 85,
      "hit": false,
      "t": 104633.95800000003,
      "d": 721.0352874999953,
      "v": 79
    },
    {
      "midi": 68,
      "hit": false,
      "t": 105365.66400000002,
      "d": 172.25578750000568,
      "v": 89
    },
    {
      "midi": 80,
      "hit": false,
      "t": 105365.66400000002,
      "d": 172.25578750000568,
      "v": 78
    },
    {
      "midi": 71,
      "hit": false,
      "t": 105548.59050000002,
      "d": 172.25578750000568,
      "v": 86
    },
    {
      "midi": 83,
      "hit": false,
      "t": 105548.59050000002,
      "d": 172.25578750000568,
      "v": 77
    },
    {
      "midi": 73,
      "hit": false,
      "t": 105731.51700000002,
      "d": 172.25578750000568,
      "v": 70
    },
    {
      "midi": 85,
      "hit": false,
      "t": 105731.51700000002,
      "d": 172.25578750000568,
      "v": 61
    },
    {
      "midi": 71,
      "hit": false,
      "t": 105914.44350000002,
      "d": 172.25578750000568,
      "v": 77
    },
    {
      "midi": 83,
      "hit": false,
      "t": 105914.44350000002,
      "d": 172.25578750000568,
      "v": 66
    },
    {
      "midi": 73,
      "hit": false,
      "t": 106097.37000000002,
      "d": 355.1822875000071,
      "v": 97
    },
    {
      "midi": 85,
      "hit": false,
      "t": 106097.37000000002,
      "d": 355.1822875000071,
      "v": 86
    },
    {
      "midi": 75,
      "hit": false,
      "t": 106463.22300000003,
      "d": 172.25578750000568,
      "v": 78
    },
    {
      "midi": 87,
      "hit": false,
      "t": 106463.22300000003,
      "d": 172.25578750000568,
      "v": 69
    },
    {
      "midi": 71,
      "hit": false,
      "t": 106646.14950000003,
      "d": 903.9617874999967,
      "v": 95
    },
    {
      "midi": 83,
      "hit": false,
      "t": 106646.14950000003,
      "d": 903.9617874999967,
      "v": 84
    },
    {
      "midi": 68,
      "hit": false,
      "t": 112682.72400000003,
      "d": 172.25578750000568,
      "v": 104
    },
    {
      "midi": 80,
      "hit": false,
      "t": 112682.72400000003,
      "d": 172.25578750000568,
      "v": 95
    },
    {
      "midi": 71,
      "hit": false,
      "t": 112865.65050000003,
      "d": 172.25578750000568,
      "v": 73
    },
    {
      "midi": 83,
      "hit": false,
      "t": 112865.65050000003,
      "d": 172.25578750000568,
      "v": 62
    },
    {
      "midi": 73,
      "hit": false,
      "t": 113048.57700000003,
      "d": 172.25578750000568,
      "v": 82
    },
    {
      "midi": 85,
      "hit": false,
      "t": 113048.57700000003,
      "d": 172.25578750000568,
      "v": 73
    },
    {
      "midi": 71,
      "hit": false,
      "t": 113231.50350000004,
      "d": 172.25578750000568,
      "v": 76
    },
    {
      "midi": 83,
      "hit": false,
      "t": 113231.50350000004,
      "d": 172.25578750000568,
      "v": 67
    },
    {
      "midi": 73,
      "hit": false,
      "t": 113414.43000000004,
      "d": 538.1087874999939,
      "v": 97
    },
    {
      "midi": 85,
      "hit": false,
      "t": 113414.43000000004,
      "d": 538.1087874999939,
      "v": 86
    },
    {
      "midi": 68,
      "hit": false,
      "t": 113963.20950000003,
      "d": 355.1822875000071,
      "v": 95
    },
    {
      "midi": 80,
      "hit": false,
      "t": 113963.20950000003,
      "d": 355.1822875000071,
      "v": 84
    },
    {
      "midi": 71,
      "hit": false,
      "t": 114329.06250000003,
      "d": 172.25578750000568,
      "v": 80
    },
    {
      "midi": 83,
      "hit": false,
      "t": 114329.06250000003,
      "d": 172.25578750000568,
      "v": 71
    },
    {
      "midi": 73,
      "hit": false,
      "t": 114511.98900000003,
      "d": 172.25578750000568,
      "v": 83
    },
    {
      "midi": 85,
      "hit": false,
      "t": 114511.98900000003,
      "d": 172.25578750000568,
      "v": 72
    },
    {
      "midi": 71,
      "hit": false,
      "t": 114694.91550000003,
      "d": 172.25578750000568,
      "v": 70
    },
    {
      "midi": 83,
      "hit": false,
      "t": 114694.91550000003,
      "d": 172.25578750000568,
      "v": 61
    },
    {
      "midi": 73,
      "hit": false,
      "t": 114877.84200000003,
      "d": 721.0352874999953,
      "v": 89
    },
    {
      "midi": 85,
      "hit": false,
      "t": 114877.84200000003,
      "d": 721.0352874999953,
      "v": 78
    },
    {
      "midi": 68,
      "hit": false,
      "t": 115609.54800000002,
      "d": 172.25578750000568,
      "v": 88
    },
    {
      "midi": 80,
      "hit": false,
      "t": 115609.54800000002,
      "d": 172.25578750000568,
      "v": 79
    },
    {
      "midi": 71,
      "hit": false,
      "t": 115792.47450000003,
      "d": 172.25578750000568,
      "v": 86
    },
    {
      "midi": 83,
      "hit": false,
      "t": 115792.47450000003,
      "d": 172.25578750000568,
      "v": 77
    },
    {
      "midi": 73,
      "hit": false,
      "t": 115975.40100000003,
      "d": 172.25578750000568,
      "v": 71
    },
    {
      "midi": 85,
      "hit": false,
      "t": 115975.40100000003,
      "d": 172.25578750000568,
      "v": 60
    },
    {
      "midi": 71,
      "hit": false,
      "t": 116158.32750000003,
      "d": 172.25578750000568,
      "v": 77
    },
    {
      "midi": 83,
      "hit": false,
      "t": 116158.32750000003,
      "d": 172.25578750000568,
      "v": 66
    },
    {
      "midi": 73,
      "hit": false,
      "t": 116341.25400000003,
      "d": 355.1822875000071,
      "v": 96
    },
    {
      "midi": 85,
      "hit": false,
      "t": 116341.25400000003,
      "d": 355.1822875000071,
      "v": 87
    },
    {
      "midi": 75,
      "hit": false,
      "t": 116707.10700000003,
      "d": 172.25578750000568,
      "v": 79
    },
    {
      "midi": 87,
      "hit": false,
      "t": 116707.10700000003,
      "d": 172.25578750000568,
      "v": 68
    },
    {
      "midi": 71,
      "hit": false,
      "t": 116890.03350000003,
      "d": 903.9617874999967,
      "v": 94
    },
    {
      "midi": 83,
      "hit": false,
      "t": 116890.03350000003,
      "d": 903.9617874999967,
      "v": 85
    },
    {
      "midi": 40,
      "hit": false,
      "t": 122926.60800000004,
      "d": 2923.775225000005,
      "v": 89
    },
    {
      "midi": 47,
      "hit": false,
      "t": 122926.60800000004,
      "d": 2923.775225000005,
      "v": 88
    },
    {
      "midi": 52,
      "hit": false,
      "t": 122926.60800000004,
      "d": 2923.775225000005,
      "v": 88
    },
    {
      "midi": 59,
      "hit": false,
      "t": 122926.60800000004,
      "d": 2923.775225000005,
      "v": 89
    },
    {
      "midi": 40,
      "hit": false,
      "t": 146341.20000000004,
      "d": 11704.247225,
      "v": 60
    },
    {
      "midi": 64,
      "hit": false,
      "t": 146341.20000000004,
      "d": 11704.247225,
      "v": 69
    },
    {
      "midi": 40,
      "hit": false,
      "t": 158048.49600000004,
      "d": 11704.247225,
      "v": 61
    },
    {
      "midi": 64,
      "hit": false,
      "t": 158048.49600000004,
      "d": 11704.247225,
      "v": 68
    },
    {
      "midi": 40,
      "hit": false,
      "t": 169755.79200000004,
      "d": 2923.7752249999903,
      "v": 63
    },
    {
      "midi": 64,
      "hit": false,
      "t": 169755.79200000004,
      "d": 11704.247225,
      "v": 72
    },
    {
      "midi": 42,
      "hit": false,
      "t": 172682.61600000004,
      "d": 2923.7752249999903,
      "v": 62
    },
    {
      "midi": 33,
      "hit": false,
      "t": 175609.44000000003,
      "d": 5850.599225000013,
      "v": 63
    },
    {
      "midi": 64,
      "hit": false,
      "t": 181463.08800000005,
      "d": 8713.39895000006,
      "v": 126
    },
    {
      "midi": 56,
      "hit": false,
      "t": 181463.08800000005,
      "d": 8714.923337500048,
      "v": 122
    },
    {
      "midi": 37,
      "hit": false,
      "t": 181463.08800000005,
      "d": 8719.496500000037,
      "v": 127
    }
  ]
}