{
  "jsonPath": "Rock/Italian Progressive Rock/New Trolls/quella-carezza-della-sera.json",
  "path": "Rock\\Italian Progressive Rock\\New Trolls\\Quella carezza della sera.mid",
  "name": "Quella carezza della sera",
  "difficulty": "Advanced",
  "bpm": 110.00011000011,
  "notes": [
    {
      "midi": 69,
      "hit": false,
      "t": 2159.08875,
      "d": 3977.26875,
      "v": 45
    },
    {
      "midi": 65,
      "hit": false,
      "t": 2164.7705625,
      "d": 3982.9505625,
      "v": 49
    },
    {
      "midi": 72,
      "hit": false,
      "t": 2164.7705625,
      "d": 3988.632375,
      "v": 45
    },
    {
      "midi": 67,
      "hit": false,
      "t": 6522.72075,
      "d": 4176.132187500001,
      "v": 31
    },
    {
      "midi": 72,
      "hit": false,
      "t": 6528.4025625,
      "d": 4142.0413125000005,
      "v": 31
    },
    {
      "midi": 64,
      "hit": false,
      "t": 6528.4025625,
      "d": 4147.723125000001,
      "v": 36
    },
    {
      "midi": 72,
      "hit": false,
      "t": 10886.352750000002,
      "d": 3761.359875,
      "v": 36
    },
    {
      "midi": 65,
      "hit": false,
      "t": 10886.352750000002,
      "d": 3812.496187500001,
      "v": 31
    },
    {
      "midi": 69,
      "hit": false,
      "t": 10886.352750000002,
      "d": 3812.496187500001,
      "v": 31
    },
    {
      "midi": 72,
      "hit": false,
      "t": 15249.984750000003,
      "d": 4079.5413750000007,
      "v": 36
    },
    {
      "midi": 67,
      "hit": false,
      "t": 15249.984750000003,
      "d": 4102.268625000001,
      "v": 54
    },
    {
      "midi": 64,
      "hit": false,
      "t": 15255.666562500004,
      "d": 4102.268624999999,
      "v": 49
    },
    {
      "midi": 64,
      "hit": false,
      "t": 19613.616750000005,
      "d": 545.4540000000015,
      "v": 40
    },
    {
      "midi": 65,
      "hit": false,
      "t": 19613.616750000005,
      "d": 545.4540000000015,
      "v": 54
    },
    {
      "midi": 69,
      "hit": false,
      "t": 19613.616750000005,
      "d": 545.4540000000015,
      "v": 36
    },
    {
      "midi": 48,
      "hit": false,
      "t": 19613.616750000005,
      "d": 568.1812500000015,
      "v": 45
    },
    {
      "midi": 72,
      "hit": false,
      "t": 19613.616750000005,
      "d": 568.1812500000015,
      "v": 40
    },
    {
      "midi": 60,
      "hit": false,
      "t": 19664.7530625,
      "d": 130.6816875000004,
      "v": 62
    },
    {
      "midi": 60,
      "hit": false,
      "t": 19869.2983125,
      "d": 159.0907499999994,
      "v": 47
    },
    {
      "midi": 60,
      "hit": false,
      "t": 20136.3435,
      "d": 130.6816875000004,
      "v": 70
    },
    {
      "midi": 60,
      "hit": false,
      "t": 20426.1159375,
      "d": 465.90862500000003,
      "v": 76
    },
    {
      "midi": 65,
      "hit": false,
      "t": 20431.797750000005,
      "d": 62.49993750000067,
      "v": 31
    },
    {
      "midi": 72,
      "hit": false,
      "t": 20431.797750000005,
      "d": 79.54537500000151,
      "v": 27
    },
    {
      "midi": 64,
      "hit": false,
      "t": 20437.479562500004,
      "d": 79.54537500000151,
      "v": 31
    },
    {
      "midi": 69,
      "hit": false,
      "t": 20437.479562500004,
      "d": 85.22718750000058,
      "v": 27
    },
    {
      "midi": 48,
      "hit": false,
      "t": 20437.479562500004,
      "d": 107.9544375000005,
      "v": 67
    },
    {
      "midi": 48,
      "hit": false,
      "t": 20704.524750000004,
      "d": 585.2266874999987,
      "v": 67
    },
    {
      "midi": 65,
      "hit": false,
      "t": 20704.524750000004,
      "d": 585.2266874999987,
      "v": 63
    },
    {
      "midi": 72,
      "hit": false,
      "t": 20704.524750000004,
      "d": 585.2266874999987,
      "v": 54
    },
    {
      "midi": 64,
      "hit": false,
      "t": 20704.524750000004,
      "d": 590.9084999999977,
      "v": 40
    },
    {
      "midi": 69,
      "hit": false,
      "t": 20704.524750000004,
      "d": 590.9084999999977,
      "v": 40
    },
    {
      "midi": 60,
      "hit": false,
      "t": 21022.70625,
      "d": 124.99987500000134,
      "v": 51
    },
    {
      "midi": 60,
      "hit": false,
      "t": 21267.0241875,
      "d": 142.04531249999854,
      "v": 68
    },
    {
      "midi": 65,
      "hit": false,
      "t": 21522.70575,
      "d": 238.63612499999726,
      "v": 54
    },
    {
      "midi": 72,
      "hit": false,
      "t": 21522.70575,
      "d": 249.9997499999954,
      "v": 40
    },
    {
      "midi": 64,
      "hit": false,
      "t": 21528.3875625,
      "d": 238.63612499999726,
      "v": 40
    },
    {
      "midi": 69,
      "hit": false,
      "t": 21528.3875625,
      "d": 238.63612499999726,
      "v": 40
    },
    {
      "midi": 48,
      "hit": false,
      "t": 21528.3875625,
      "d": 244.31793749999633,
      "v": 67
    },
    {
      "midi": 60,
      "hit": false,
      "t": 21545.432999999997,
      "d": 471.5904374999991,
      "v": 90
    },
    {
      "midi": 48,
      "hit": false,
      "t": 22068.159749999995,
      "d": 244.31793749999997,
      "v": 67
    },
    {
      "midi": 72,
      "hit": false,
      "t": 22068.159749999995,
      "d": 249.99974999999904,
      "v": 40
    },
    {
      "midi": 64,
      "hit": false,
      "t": 22073.841562499994,
      "d": 244.31793749999997,
      "v": 63
    },
    {
      "midi": 65,
      "hit": false,
      "t": 22073.841562499994,
      "d": 244.31793749999997,
      "v": 54
    },
    {
      "midi": 69,
      "hit": false,
      "t": 22073.841562499994,
      "d": 261.3633750000008,
      "v": 31
    },
    {
      "midi": 60,
      "hit": false,
      "t": 22102.250624999997,
      "d": 62.49993750000067,
      "v": 32
    },
    {
      "midi": 60,
      "hit": false,
      "t": 22329.523124999996,
      "d": 124.99987500000134,
      "v": 65
    },
    {
      "midi": 60,
      "hit": false,
      "t": 22607.931937499998,
      "d": 443.1813750000001,
      "v": 83
    },
    {
      "midi": 65,
      "hit": false,
      "t": 22613.613749999997,
      "d": 198.86343750000015,
      "v": 67
    },
    {
      "midi": 48,
      "hit": false,
      "t": 22613.613749999997,
      "d": 204.5452499999992,
      "v": 67
    },
    {
      "midi": 64,
      "hit": false,
      "t": 22613.613749999997,
      "d": 204.5452499999992,
      "v": 63
    },
    {
      "midi": 69,
      "hit": false,
      "t": 22613.613749999997,
      "d": 227.27249999999913,
      "v": 40
    },
    {
      "midi": 72,
      "hit": false,
      "t": 22613.613749999997,
      "d": 227.27249999999913,
      "v": 40
    },
    {
      "midi": 65,
      "hit": false,
      "t": 22886.340749999996,
      "d": 312.4996874999997,
      "v": 40
    },
    {
      "midi": 64,
      "hit": false,
      "t": 22886.340749999996,
      "d": 318.1814999999988,
      "v": 13
    },
    {
      "midi": 69,
      "hit": false,
      "t": 22886.340749999996,
      "d": 318.1814999999988,
      "v": 31
    },
    {
      "midi": 48,
      "hit": false,
      "t": 22886.340749999996,
      "d": 335.2269374999996,
      "v": 67
    },
    {
      "midi": 72,
      "hit": false,
      "t": 22886.340749999996,
      "d": 335.2269374999996,
      "v": 22
    },
    {
      "midi": 62,
      "hit": false,
      "t": 23176.1131875,
      "d": 181.8179999999993,
      "v": 59
    },
    {
      "midi": 65,
      "hit": false,
      "t": 23431.794749999994,
      "d": 363.6359999999986,
      "v": 18
    },
    {
      "midi": 64,
      "hit": false,
      "t": 23431.794749999994,
      "d": 374.9996250000004,
      "v": 22
    },
    {
      "midi": 72,
      "hit": false,
      "t": 23431.794749999994,
      "d": 397.7268750000003,
      "v": 18
    },
    {
      "midi": 48,
      "hit": false,
      "t": 23431.794749999994,
      "d": 403.40868749999936,
      "v": 67
    },
    {
      "midi": 69,
      "hit": false,
      "t": 23431.794749999994,
      "d": 426.1359374999993,
      "v": 22
    },
    {
      "midi": 60,
      "hit": false,
      "t": 23460.2038125,
      "d": 142.04531249999854,
      "v": 76
    },
    {
      "midi": 67,
      "hit": false,
      "t": 23738.612624999998,
      "d": 488.63587499999994,
      "v": 71
    },
    {
      "midi": 48,
      "hit": false,
      "t": 23977.24874999999,
      "d": 517.0449374999989,
      "v": 67
    },
    {
      "midi": 67,
      "hit": false,
      "t": 23977.24874999999,
      "d": 539.7721874999988,
      "v": 67
    },
    {
      "midi": 64,
      "hit": false,
      "t": 23977.24874999999,
      "d": 545.4539999999979,
      "v": 67
    },
    {
      "midi": 72,
      "hit": false,
      "t": 23977.24874999999,
      "d": 545.4539999999979,
      "v": 54
    },
    {
      "midi": 64,
      "hit": false,
      "t": 24289.7484375,
      "d": 1272.7259999999987,
      "v": 83
    },
    {
      "midi": 48,
      "hit": false,
      "t": 24795.42974999999,
      "d": 90.90899999999965,
      "v": 63
    },
    {
      "midi": 64,
      "hit": false,
      "t": 24795.42974999999,
      "d": 90.90899999999965,
      "v": 40
    },
    {
      "midi": 67,
      "hit": false,
      "t": 24795.42974999999,
      "d": 90.90899999999965,
      "v": 40
    },
    {
      "midi": 72,
      "hit": false,
      "t": 24795.42974999999,
      "d": 107.9544375000005,
      "v": 31
    },
    {
      "midi": 48,
      "hit": false,
      "t": 25068.156749999987,
      "d": 585.2266874999987,
      "v": 67
    },
    {
      "midi": 72,
      "hit": false,
      "t": 25068.156749999987,
      "d": 607.9539374999986,
      "v": 31
    },
    {
      "midi": 67,
      "hit": false,
      "t": 25073.838562499986,
      "d": 607.9539374999986,
      "v": 13
    },
    {
      "midi": 64,
      "hit": false,
      "t": 25073.838562499986,
      "d": 630.6811874999985,
      "v": 13
    },
    {
      "midi": 48,
      "hit": false,
      "t": 25886.337749999984,
      "d": 176.13618750000023,
      "v": 67
    },
    {
      "midi": 64,
      "hit": false,
      "t": 25886.337749999984,
      "d": 198.86343750000015,
      "v": 63
    },
    {
      "midi": 72,
      "hit": false,
      "t": 25886.337749999984,
      "d": 221.59068750000006,
      "v": 45
    },
    {
      "midi": 67,
      "hit": false,
      "t": 25886.337749999984,
      "d": 227.27249999999913,
      "v": 54
    },
    {
      "midi": 72,
      "hit": false,
      "t": 26431.791749999982,
      "d": 312.4996874999997,
      "v": 54
    },
    {
      "midi": 67,
      "hit": false,
      "t": 26431.791749999982,
      "d": 335.2269374999996,
      "v": 67
    },
    {
      "midi": 48,
      "hit": false,
      "t": 26437.47356249998,
      "d": 312.4996874999997,
      "v": 67
    },
    {
      "midi": 64,
      "hit": false,
      "t": 26437.47356249998,
      "d": 335.2269374999996,
      "v": 40
    },
    {
      "midi": 64,
      "hit": false,
      "t": 26977.24574999998,
      "d": 227.27249999999913,
      "v": 54
    },
    {
      "midi": 67,
      "hit": false,
      "t": 26977.24574999998,
      "d": 227.27249999999913,
      "v": 54
    },
    {
      "midi": 72,
      "hit": false,
      "t": 26977.24574999998,
      "d": 244.31793749999997,
      "v": 40
    },
    {
      "midi": 48,
      "hit": false,
      "t": 26977.24574999998,
      "d": 249.99974999999904,
      "v": 40
    },
    {
      "midi": 67,
      "hit": false,
      "t": 27249.97274999998,
      "d": 312.4996874999997,
      "v": 40
    },
    {
      "midi": 48,
      "hit": false,
      "t": 27249.97274999998,
      "d": 323.86331249999785,
      "v": 45
    },
    {
      "midi": 64,
      "hit": false,
      "t": 27255.654562499978,
      "d": 312.4996874999997,
      "v": 27
    },
    {
      "midi": 72,
      "hit": false,
      "t": 27255.654562499978,
      "d": 312.4996874999997,
      "v": 22
    },
    {
      "midi": 67,
      "hit": false,
      "t": 27795.426749999977,
      "d": 249.99974999999904,
      "v": 63
    },
    {
      "midi": 64,
      "hit": false,
      "t": 27795.426749999977,
      "d": 289.7724374999998,
      "v": 63
    },
    {
      "midi": 48,
      "hit": false,
      "t": 27795.426749999977,
      "d": 295.45424999999886,
      "v": 63
    },
    {
      "midi": 72,
      "hit": false,
      "t": 27795.426749999977,
      "d": 295.45424999999886,
      "v": 36
    },
    {
      "midi": 48,
      "hit": false,
      "t": 28340.880749999975,
      "d": 539.7721874999988,
      "v": 67
    },
    {
      "midi": 65,
      "hit": false,
      "t": 28340.880749999975,
      "d": 545.4539999999979,
      "v": 54
    },
    {
      "midi": 64,
      "hit": false,
      "t": 28346.562562499974,
      "d": 539.7721874999988,
      "v": 67
    },
    {
      "midi": 69,
      "hit": false,
      "t": 28346.562562499974,
      "d": 539.7721874999988,
      "v": 40
    },
    {
      "midi": 72,
      "hit": false,
      "t": 28346.562562499974,
      "d": 539.7721874999988,
      "v": 40
    },
    {
      "midi": 60,
      "hit": false,
      "t": 28403.380687499997,
      "d": 142.04531249999854,
      "v": 50
    },
    {
      "midi": 60,
      "hit": false,
      "t": 28624.971374999997,
      "d": 153.40893750000032,
      "v": 62
    },
    {
      "midi": 60,
      "hit": false,
      "t": 28903.3801875,
      "d": 164.77256249999846,
      "v": 82
    },
    {
      "midi": 65,
      "hit": false,
      "t": 29159.06174999997,
      "d": 85.22718750000058,
      "v": 63
    },
    {
      "midi": 69,
      "hit": false,
      "t": 29159.06174999997,
      "d": 85.22718750000058,
      "v": 40
    },
    {
      "midi": 64,
      "hit": false,
      "t": 29164.74356249997,
      "d": 79.54537500000151,
      "v": 40
    },
    {
      "midi": 48,
      "hit": false,
      "t": 29164.74356249997,
      "d": 85.22718750000058,
      "v": 67
    },
    {
      "midi": 72,
      "hit": false,
      "t": 29164.74356249997,
      "d": 85.22718750000058,
      "v": 40
    },
    {
      "midi": 60,
      "hit": false,
      "t": 29164.743562499996,
      "d": 443.1813750000001,
      "v": 95
    },
    {
      "midi": 48,
      "hit": false,
      "t": 29431.78874999997,
      "d": 551.1358125000006,
      "v": 67
    },
    {
      "midi": 65,
      "hit": false,
      "t": 29431.78874999997,
      "d": 551.1358125000006,
      "v": 54
    },
    {
      "midi": 64,
      "hit": false,
      "t": 29437.47056249997,
      "d": 534.0903749999998,
      "v": 40
    },
    {
      "midi": 69,
      "hit": false,
      "t": 29437.47056249997,
      "d": 545.4540000000015,
      "v": 40
    },
    {
      "midi": 72,
      "hit": false,
      "t": 29437.47056249997,
      "d": 556.8176250000033,
      "v": 40
    },
    {
      "midi": 60,
      "hit": false,
      "t": 29732.924812499998,
      "d": 102.27262500000143,
      "v": 50
    },
    {
      "midi": 60,
      "hit": false,
      "t": 29977.242749999998,
      "d": 159.0907499999994,
      "v": 64
    },
    {
      "midi": 48,
      "hit": false,
      "t": 30249.969749999975,
      "d": 267.0451874999999,
      "v": 67
    },
    {
      "midi": 65,
      "hit": false,
      "t": 30249.969749999975,
      "d": 272.72699999999895,
      "v": 67
    },
    {
      "midi": 64,
      "hit": false,
      "t": 30255.651562499974,
      "d": 267.0451874999999,
      "v": 63
    },
    {
      "midi": 69,
      "hit": false,
      "t": 30255.651562499974,
      "d": 267.0451874999999,
      "v": 45
    },
    {
      "midi": 72,
      "hit": false,
      "t": 30255.651562499974,
      "d": 267.0451874999999,
      "v": 63
    },
    {
      "midi": 60,
      "hit": false,
      "t": 30261.333375,
      "d": 420.4541250000002,
      "v": 80
    },
    {
      "midi": 48,
      "hit": false,
      "t": 30795.423749999973,
      "d": 289.7724374999998,
      "v": 67
    },
    {
      "midi": 65,
      "hit": false,
      "t": 30795.423749999973,
      "d": 289.7724374999998,
      "v": 54
    },
    {
      "midi": 69,
      "hit": false,
      "t": 30795.423749999973,
      "d": 289.7724374999998,
      "v": 40
    },
    {
      "midi": 72,
      "hit": false,
      "t": 30795.423749999973,
      "d": 289.7724374999998,
      "v": 40
    },
    {
      "midi": 64,
      "hit": false,
      "t": 30801.10556249997,
      "d": 284.0906250000007,
      "v": 40
    },
    {
      "midi": 60,
      "hit": false,
      "t": 30840.878249999998,
      "d": 102.27262500000143,
      "v": 66
    },
    {
      "midi": 60,
      "hit": false,
      "t": 31073.8325625,
      "d": 147.72712500000125,
      "v": 74
    },
    {
      "midi": 48,
      "hit": false,
      "t": 31340.877749999974,
      "d": 204.5452499999992,
      "v": 67
    },
    {
      "midi": 72,
      "hit": false,
      "t": 31340.877749999974,
      "d": 221.59068750000006,
      "v": 36
    },
    {
      "midi": 64,
      "hit": false,
      "t": 31346.559562499973,
      "d": 221.59068750000006,
      "v": 31
    },
    {
      "midi": 65,
      "hit": false,
      "t": 31346.559562499973,
      "d": 221.59068750000006,
      "v": 40
    },
    {
      "midi": 69,
      "hit": false,
      "t": 31346.559562499973,
      "d": 221.59068750000006,
      "v": 31
    },
    {
      "midi": 62,
      "hit": false,
      "t": 31363.605,
      "d": 482.9540625000009,
      "v": 86
    },
    {
      "midi": 48,
      "hit": false,
      "t": 31613.604749999973,
      "d": 267.0451874999999,
      "v": 31
    },
    {
      "midi": 65,
      "hit": false,
      "t": 31613.604749999973,
      "d": 289.7724374999998,
      "v": 36
    },
    {
      "midi": 64,
      "hit": false,
      "t": 31613.604749999973,
      "d": 295.45424999999886,
      "v": 18
    },
    {
      "midi": 69,
      "hit": false,
      "t": 31613.604749999973,
      "d": 295.45424999999886,
      "v": 22
    },
    {
      "midi": 72,
      "hit": false,
      "t": 31613.604749999973,
      "d": 295.45424999999886,
      "v": 18
    },
    {
      "midi": 64,
      "hit": false,
      "t": 31886.33175,
      "d": 187.49981249999837,
      "v": 68
    },
    {
      "midi": 60,
      "hit": false,
      "t": 32159.05875,
      "d": 1153.4079374999965,
      "v": 73
    },
    {
      "midi": 48,
      "hit": false,
      "t": 32164.740562499974,
      "d": 232.9543124999982,
      "v": 67
    },
    {
      "midi": 72,
      "hit": false,
      "t": 32164.740562499974,
      "d": 261.3633749999972,
      "v": 63
    },
    {
      "midi": 65,
      "hit": false,
      "t": 32164.740562499974,
      "d": 267.04518749999625,
      "v": 63
    },
    {
      "midi": 64,
      "hit": false,
      "t": 32164.740562499974,
      "d": 289.77243749999616,
      "v": 63
    },
    {
      "midi": 69,
      "hit": false,
      "t": 32164.740562499974,
      "d": 306.817874999997,
      "v": 36
    },
    {
      "midi": 48,
      "hit": false,
      "t": 32704.512749999973,
      "d": 522.7267500000016,
      "v": 67
    },
    {
      "midi": 64,
      "hit": false,
      "t": 32704.512749999973,
      "d": 522.7267500000016,
      "v": 67
    },
    {
      "midi": 67,
      "hit": false,
      "t": 32704.512749999973,
      "d": 522.7267500000016,
      "v": 67
    },
    {
      "midi": 72,
      "hit": false,
      "t": 32704.512749999973,
      "d": 522.7267500000016,
      "v": 40
    },
    {
      "midi": 67,
      "hit": false,
      "t": 33522.69374999998,
      "d": 85.22718750000058,
      "v": 67
    },
    {
      "midi": 72,
      "hit": false,
      "t": 33522.69374999998,
      "d": 85.22718750000058,
      "v": 31
    },
    {
      "midi": 64,
      "hit": false,
      "t": 33528.375562499976,
      "d": 79.54537500000151,
      "v": 54
    },
    {
      "midi": 48,
      "hit": false,
      "t": 33528.375562499976,
      "d": 107.95443750000413,
      "v": 54
    },
    {
      "midi": 48,
      "hit": false,
      "t": 33795.42074999998,
      "d": 534.0903749999998,
      "v": 67
    },
    {
      "midi": 72,
      "hit": false,
      "t": 33795.42074999998,
      "d": 556.8176250000033,
      "v": 45
    },
    {
      "midi": 64,
      "hit": false,
      "t": 33795.42074999998,
      "d": 562.4994375000024,
      "v": 54
    },
    {
      "midi": 67,
      "hit": false,
      "t": 33795.42074999998,
      "d": 590.908500000005,
      "v": 54
    },
    {
      "midi": 64,
      "hit": false,
      "t": 34613.60174999999,
      "d": 267.0451874999999,
      "v": 45
    },
    {
      "midi": 48,
      "hit": false,
      "t": 34613.60174999999,
      "d": 289.77243750000343,
      "v": 45
    },
    {
      "midi": 67,
      "hit": false,
      "t": 34613.60174999999,
      "d": 289.77243750000343,
      "v": 63
    },
    {
      "midi": 72,
      "hit": false,
      "t": 34613.60174999999,
      "d": 289.77243750000343,
      "v": 31
    },
    {
      "midi": 72,
      "hit": false,
      "t": 35159.05574999999,
      "d": 295.4542500000025,
      "v": 40
    },
    {
      "midi": 48,
      "hit": false,
      "t": 35164.73756249999,
      "d": 267.0451874999999,
      "v": 54
    },
    {
      "midi": 64,
      "hit": false,
      "t": 35164.73756249999,
      "d": 267.0451874999999,
      "v": 54
    },
    {
      "midi": 67,
      "hit": false,
      "t": 35164.73756249999,
      "d": 289.77243750000343,
      "v": 54
    },
    {
      "midi": 48,
      "hit": false,
      "t": 35704.50975,
      "d": 181.8179999999993,
      "v": 67
    },
    {
      "midi": 64,
      "hit": false,
      "t": 35704.50975,
      "d": 198.8634374999965,
      "v": 67
    },
    {
      "midi": 72,
      "hit": false,
      "t": 35704.50975,
      "d": 221.59068750000006,
      "v": 45
    },
    {
      "midi": 67,
      "hit": false,
      "t": 35704.50975,
      "d": 227.27249999999913,
      "v": 67
    },
    {
      "midi": 72,
      "hit": false,
      "t": 35977.23675,
      "d": 295.4542500000025,
      "v": 22
    },
    {
      "midi": 48,
      "hit": false,
      "t": 35977.23675,
      "d": 363.6360000000059,
      "v": 67
    },
    {
      "midi": 64,
      "hit": false,
      "t": 35977.23675,
      "d": 409.0905000000057,
      "v": 31
    },
    {
      "midi": 67,
      "hit": false,
      "t": 35977.23675,
      "d": 426.1359375000029,
      "v": 54
    },
    {
      "midi": 71,
      "hit": false,
      "t": 36522.69075,
      "d": 329.5451249999969,
      "v": 40
    },
    {
      "midi": 48,
      "hit": false,
      "t": 36522.69075,
      "d": 488.63587499999994,
      "v": 63
    },
    {
      "midi": 67,
      "hit": false,
      "t": 36528.3725625,
      "d": 238.63612499999726,
      "v": 54
    },
    {
      "midi": 64,
      "hit": false,
      "t": 36528.3725625,
      "d": 352.27237500000047,
      "v": 40
    },
    {
      "midi": 62,
      "hit": false,
      "t": 37068.14475,
      "d": 153.40893749999668,
      "v": 31
    },
    {
      "midi": 45,
      "hit": false,
      "t": 37068.14475,
      "d": 488.63587499999994,
      "v": 54
    },
    {
      "midi": 69,
      "hit": false,
      "t": 37073.8265625,
      "d": 511.3631250000035,
      "v": 45
    },
    {
      "midi": 60,
      "hit": false,
      "t": 37073.8265625,
      "d": 517.0449375000026,
      "v": 36
    },
    {
      "midi": 64,
      "hit": false,
      "t": 37073.8265625,
      "d": 534.0903749999998,
      "v": 36
    },
    {
      "midi": 60,
      "hit": false,
      "t": 37113.59925,
      "d": 181.8179999999993,
      "v": 69
    },
    {
      "midi": 60,
      "hit": false,
      "t": 37346.5535625,
      "d": 181.8179999999993,
      "v": 74
    },
    {
      "midi": 60,
      "hit": false,
      "t": 37607.9169375,
      "d": 232.9543124999982,
      "v": 90
    },
    {
      "midi": 45,
      "hit": false,
      "t": 37886.325749999996,
      "d": 85.22718750000058,
      "v": 45
    },
    {
      "midi": 60,
      "hit": false,
      "t": 37886.325749999996,
      "d": 90.90899999999965,
      "v": 40
    },
    {
      "midi": 64,
      "hit": false,
      "t": 37886.325749999996,
      "d": 90.90899999999965,
      "v": 36
    },
    {
      "midi": 69,
      "hit": false,
      "t": 37886.325749999996,
      "d": 90.90899999999965,
      "v": 40
    },
    {
      "midi": 60,
      "hit": false,
      "t": 37886.325749999996,
      "d": 460.2268124999973,
      "v": 90
    },
    {
      "midi": 45,
      "hit": false,
      "t": 38159.052749999995,
      "d": 494.317687499999,
      "v": 63
    },
    {
      "midi": 69,
      "hit": false,
      "t": 38159.052749999995,
      "d": 568.1812500000015,
      "v": 40
    },
    {
      "midi": 60,
      "hit": false,
      "t": 38164.734562499994,
      "d": 562.4994375000024,
      "v": 40
    },
    {
      "midi": 64,
      "hit": false,
      "t": 38164.734562499994,
      "d": 562.4994375000024,
      "v": 36
    },
    {
      "midi": 60,
      "hit": false,
      "t": 38420.416124999996,
      "d": 187.49981249999837,
      "v": 49
    },
    {
      "midi": 60,
      "hit": false,
      "t": 38681.7795,
      "d": 227.27249999999913,
      "v": 73
    },
    {
      "midi": 60,
      "hit": false,
      "t": 38971.55193749999,
      "d": 602.2721250000031,
      "v": 98
    },
    {
      "midi": 45,
      "hit": false,
      "t": 38977.23375,
      "d": 249.99975000000268,
      "v": 54
    },
    {
      "midi": 60,
      "hit": false,
      "t": 38977.23375,
      "d": 289.77243750000343,
      "v": 31
    },
    {
      "midi": 64,
      "hit": false,
      "t": 38977.23375,
      "d": 295.4542500000025,
      "v": 27
    },
    {
      "midi": 69,
      "hit": false,
      "t": 38977.23375,
      "d": 295.4542500000025,
      "v": 31
    },
    {
      "midi": 60,
      "hit": false,
      "t": 39522.687750000005,
      "d": 306.81787499999336,
      "v": 40
    },
    {
      "midi": 64,
      "hit": false,
      "t": 39522.687750000005,
      "d": 335.226937499996,
      "v": 40
    },
    {
      "midi": 45,
      "hit": false,
      "t": 39528.369562500004,
      "d": 284.0906249999971,
      "v": 54
    },
    {
      "midi": 69,
      "hit": false,
      "t": 39528.369562500004,
      "d": 335.226937499996,
      "v": 40
    },
    {
      "midi": 60,
      "hit": false,
      "t": 39761.323874999995,
      "d": 142.04531249999854,
      "v": 48
    },
    {
      "midi": 60,
      "hit": false,
      "t": 40051.09631249999,
      "d": 545.4539999999979,
      "v": 98
    },
    {
      "midi": 60,
      "hit": false,
      "t": 40068.14175,
      "d": 227.27249999999913,
      "v": 54
    },
    {
      "midi": 64,
      "hit": false,
      "t": 40068.14175,
      "d": 227.27249999999913,
      "v": 54
    },
    {
      "midi": 45,
      "hit": false,
      "t": 40073.8235625,
      "d": 221.59068750000006,
      "v": 45
    },
    {
      "midi": 69,
      "hit": false,
      "t": 40073.8235625,
      "d": 221.59068750000006,
      "v": 40
    },
    {
      "midi": 45,
      "hit": false,
      "t": 40340.86875,
      "d": 238.63612499999726,
      "v": 67
    },
    {
      "midi": 64,
      "hit": false,
      "t": 40340.86875,
      "d": 306.81787500000064,
      "v": 67
    },
    {
      "midi": 60,
      "hit": false,
      "t": 40346.5505625,
      "d": 306.81787500000064,
      "v": 40
    },
    {
      "midi": 69,
      "hit": false,
      "t": 40346.5505625,
      "d": 312.4996874999997,
      "v": 40
    },
    {
      "midi": 62,
      "hit": false,
      "t": 40653.36843749999,
      "d": 147.7271249999976,
      "v": 52
    },
    {
      "midi": 69,
      "hit": false,
      "t": 40886.32275,
      "d": 267.0451874999999,
      "v": 40
    },
    {
      "midi": 60,
      "hit": false,
      "t": 40886.32275,
      "d": 318.1814999999988,
      "v": 54
    },
    {
      "midi": 45,
      "hit": false,
      "t": 40886.32275,
      "d": 409.0904999999984,
      "v": 45
    },
    {
      "midi": 64,
      "hit": false,
      "t": 40886.32275,
      "d": 409.0904999999984,
      "v": 67
    },
    {
      "midi": 60,
      "hit": false,
      "t": 40909.04999999998,
      "d": 159.09075000000303,
      "v": 82
    },
    {
      "midi": 67,
      "hit": false,
      "t": 41198.822437499985,
      "d": 477.2722500000018,
      "v": 73
    },
    {
      "midi": 52,
      "hit": false,
      "t": 41431.77675,
      "d": 522.7267500000016,
      "v": 67
    },
    {
      "midi": 71,
      "hit": false,
      "t": 41431.77675,
      "d": 539.7721874999988,
      "v": 67
    },
    {
      "midi": 64,
      "hit": false,
      "t": 41437.458562499996,
      "d": 539.7721874999988,
      "v": 63
    },
    {
      "midi": 67,
      "hit": false,
      "t": 41437.458562499996,
      "d": 539.7721874999988,
      "v": 67
    },
    {
      "midi": 64,
      "hit": false,
      "t": 41727.230999999985,
      "d": 1215.9078749999971,
      "v": 82
    },
    {
      "midi": 64,
      "hit": false,
      "t": 42249.957749999994,
      "d": 85.22718750000058,
      "v": 45
    },
    {
      "midi": 71,
      "hit": false,
      "t": 42249.957749999994,
      "d": 90.90899999999965,
      "v": 67
    },
    {
      "midi": 52,
      "hit": false,
      "t": 42255.63956249999,
      "d": 85.22718750000058,
      "v": 67
    },
    {
      "midi": 67,
      "hit": false,
      "t": 42255.63956249999,
      "d": 85.22718750000058,
      "v": 67
    },
    {
      "midi": 71,
      "hit": false,
      "t": 42522.68474999999,
      "d": 471.59043750000274,
      "v": 67
    },
    {
      "midi": 52,
      "hit": false,
      "t": 42522.68474999999,
      "d": 494.3176875000063,
      "v": 67
    },
    {
      "midi": 64,
      "hit": false,
      "t": 42522.68474999999,
      "d": 522.7267500000089,
      "v": 67
    },
    {
      "midi": 67,
      "hit": false,
      "t": 42528.36656249999,
      "d": 494.3176875000063,
      "v": 63
    },
    {
      "midi": 64,
      "hit": false,
      "t": 43340.865750000004,
      "d": 267.0451874999999,
      "v": 40
    },
    {
      "midi": 71,
      "hit": false,
      "t": 43340.865750000004,
      "d": 267.0451874999999,
      "v": 36
    },
    {
      "midi": 52,
      "hit": false,
      "t": 43340.865750000004,
      "d": 295.4542500000025,
      "v": 67
    },
    {
      "midi": 67,
      "hit": false,
      "t": 43346.5475625,
      "d": 261.3633750000008,
      "v": 31
    },
    {
      "midi": 52,
      "hit": false,
      "t": 43886.31975000001,
      "d": 289.77243750000343,
      "v": 67
    },
    {
      "midi": 64,
      "hit": false,
      "t": 43886.31975000001,
      "d": 318.18150000000605,
      "v": 67
    },
    {
      "midi": 67,
      "hit": false,
      "t": 43886.31975000001,
      "d": 318.18150000000605,
      "v": 54
    },
    {
      "midi": 71,
      "hit": false,
      "t": 43886.31975000001,
      "d": 318.18150000000605,
      "v": 67
    },
    {
      "midi": 71,
      "hit": false,
      "t": 44431.773750000015,
      "d": 204.54524999999558,
      "v": 63
    },
    {
      "midi": 64,
      "hit": false,
      "t": 44431.773750000015,
      "d": 221.59068749999278,
      "v": 54
    },
    {
      "midi": 52,
      "hit": false,
      "t": 44437.455562500014,
      "d": 238.63612499999726,
      "v": 67
    },
    {
      "midi": 67,
      "hit": false,
      "t": 44437.455562500014,
      "d": 244.31793749999633,
      "v": 40
    },
    {
      "midi": 52,
      "hit": false,
      "t": 44704.500750000014,
      "d": 267.0451874999999,
      "v": 67
    },
    {
      "midi": 71,
      "hit": false,
      "t": 44704.500750000014,
      "d": 289.77243750000343,
      "v": 31
    },
    {
      "midi": 64,
      "hit": false,
      "t": 44704.500750000014,
      "d": 312.499687500007,
      "v": 45
    },
    {
      "midi": 67,
      "hit": false,
      "t": 44704.500750000014,
      "d": 318.18150000000605,
      "v": 22
    },
    {
      "midi": 71,
      "hit": false,
      "t": 45249.95475000002,
      "d": 295.4542500000025,
      "v": 54
    },
    {
      "midi": 52,
      "hit": false,
      "t": 45249.95475000002,
      "d": 312.4996874999997,
      "v": 67
    },
    {
      "midi": 64,
      "hit": false,
      "t": 45255.63656250002,
      "d": 261.3633750000008,
      "v": 45
    },
    {
      "midi": 67,
      "hit": false,
      "t": 45255.63656250002,
      "d": 289.77243750000343,
      "v": 36
    },
    {
      "midi": 62,
      "hit": false,
      "t": 45795.40875000002,
      "d": 477.2722500000018,
      "v": 40
    },
    {
      "midi": 50,
      "hit": false,
      "t": 45795.40875000002,
      "d": 522.7267500000016,
      "v": 67
    },
    {
      "midi": 65,
      "hit": false,
      "t": 45795.40875000002,
      "d": 522.7267500000016,
      "v": 45
    },
    {
      "midi": 69,
      "hit": false,
      "t": 45795.40875000002,
      "d": 522.7267500000016,
      "v": 36
    },
    {
      "midi": 72,
      "hit": false,
      "t": 45795.40875000002,
      "d": 522.7267500000016,
      "v": 54
    },
    {
      "midi": 60,
      "hit": false,
      "t": 45818.135999999984,
      "d": 227.27249999999913,
      "v": 78
    },
    {
      "midi": 60,
      "hit": false,
      "t": 46079.499374999985,
      "d": 159.09075000000303,
      "v": 70
    },
    {
      "midi": 60,
      "hit": false,
      "t": 46335.18093749999,
      "d": 221.59068750000006,
      "v": 98
    },
    {
      "midi": 62,
      "hit": false,
      "t": 46613.58975000002,
      "d": 90.90899999999965,
      "v": 54
    },
    {
      "midi": 65,
      "hit": false,
      "t": 46613.58975000002,
      "d": 90.90899999999965,
      "v": 67
    },
    {
      "midi": 69,
      "hit": false,
      "t": 46613.58975000002,
      "d": 90.90899999999965,
      "v": 40
    },
    {
      "midi": 72,
      "hit": false,
      "t": 46613.58975000002,
      "d": 90.90899999999965,
      "v": 40
    },
    {
      "midi": 50,
      "hit": false,
      "t": 46613.58975000002,
      "d": 107.95443749999686,
      "v": 63
    },
    {
      "midi": 60,
      "hit": false,
      "t": 46619.271562499984,
      "d": 403.40868749999936,
      "v": 83
    },
    {
      "midi": 62,
      "hit": false,
      "t": 46886.31675000002,
      "d": 494.317687499999,
      "v": 63
    },
    {
      "midi": 72,
      "hit": false,
      "t": 46886.31675000002,
      "d": 511.3631249999962,
      "v": 45
    },
    {
      "midi": 65,
      "hit": false,
      "t": 46886.31675000002,
      "d": 517.0449374999953,
      "v": 67
    },
    {
      "midi": 50,
      "hit": false,
      "t": 46886.31675000002,
      "d": 534.0903749999925,
      "v": 67
    },
    {
      "midi": 69,
      "hit": false,
      "t": 46886.31675000002,
      "d": 539.7721874999916,
      "v": 40
    },
    {
      "midi": 60,
      "hit": false,
      "t": 47136.316499999986,
      "d": 153.40893749999668,
      "v": 80
    },
    {
      "midi": 60,
      "hit": false,
      "t": 47391.99806249998,
      "d": 147.7271249999976,
      "v": 73
    },
    {
      "midi": 43,
      "hit": false,
      "t": 47681.77049999998,
      "d": 448.8631874999992,
      "v": 64
    },
    {
      "midi": 67,
      "hit": false,
      "t": 47681.77049999998,
      "d": 448.8631874999992,
      "v": 64
    },
    {
      "midi": 55,
      "hit": false,
      "t": 47704.49775000001,
      "d": 221.59068750000006,
      "v": 63
    },
    {
      "midi": 62,
      "hit": false,
      "t": 47704.49775000001,
      "d": 244.3179375000036,
      "v": 45
    },
    {
      "midi": 67,
      "hit": false,
      "t": 47704.49775000001,
      "d": 267.04518750000716,
      "v": 45
    },
    {
      "midi": 71,
      "hit": false,
      "t": 47704.49775000001,
      "d": 267.04518750000716,
      "v": 40
    },
    {
      "midi": 55,
      "hit": false,
      "t": 48249.951750000015,
      "d": 221.59068750000006,
      "v": 67
    },
    {
      "midi": 71,
      "hit": false,
      "t": 48249.951750000015,
      "d": 306.81787500000064,
      "v": 54
    },
    {
      "midi": 62,
      "hit": false,
      "t": 48255.633562500014,
      "d": 261.3633750000008,
      "v": 45
    },
    {
      "midi": 67,
      "hit": false,
      "t": 48255.633562500014,
      "d": 306.81787500000064,
      "v": 63
    },
    {
      "midi": 43,
      "hit": false,
      "t": 48284.04262499997,
      "d": 113.63624999999593,
      "v": 64
    },
    {
      "midi": 67,
      "hit": false,
      "t": 48289.72443749997,
      "d": 113.63624999999593,
      "v": 64
    },
    {
      "midi": 43,
      "hit": false,
      "t": 48528.36056249997,
      "d": 147.7271249999976,
      "v": 64
    },
    {
      "midi": 67,
      "hit": false,
      "t": 48528.36056249997,
      "d": 147.7271249999976,
      "v": 64
    },
    {
      "midi": 65,
      "hit": false,
      "t": 48795.40574999997,
      "d": 420.45412499999657,
      "v": 90
    },
    {
      "midi": 55,
      "hit": false,
      "t": 48795.40575000001,
      "d": 198.8634374999965,
      "v": 40
    },
    {
      "midi": 71,
      "hit": false,
      "t": 48795.40575000001,
      "d": 221.59068750000006,
      "v": 67
    },
    {
      "midi": 67,
      "hit": false,
      "t": 48795.40575000001,
      "d": 244.3179375000036,
      "v": 67
    },
    {
      "midi": 62,
      "hit": false,
      "t": 48795.40575000001,
      "d": 249.99975000000268,
      "v": 54
    },
    {
      "midi": 55,
      "hit": false,
      "t": 49068.13275000002,
      "d": 267.0451874999999,
      "v": 31
    },
    {
      "midi": 67,
      "hit": false,
      "t": 49068.13275000002,
      "d": 289.77243749999616,
      "v": 40
    },
    {
      "midi": 62,
      "hit": false,
      "t": 49073.81456250002,
      "d": 267.0451874999999,
      "v": 13
    },
    {
      "midi": 71,
      "hit": false,
      "t": 49073.81456250002,
      "d": 289.77243749999616,
      "v": 22
    },
    {
      "midi": 64,
      "hit": false,
      "t": 49301.087062499966,
      "d": 164.7725625000021,
      "v": 93
    },
    {
      "midi": 62,
      "hit": false,
      "t": 49596.54131249997,
      "d": 113.6362500000032,
      "v": 65
    },
    {
      "midi": 60,
      "hit": false,
      "t": 49596.54131249997,
      "d": 130.6816875000004,
      "v": 78
    },
    {
      "midi": 62,
      "hit": false,
      "t": 49613.58675000002,
      "d": 267.0451874999999,
      "v": 67
    },
    {
      "midi": 55,
      "hit": false,
      "t": 49613.58675000002,
      "d": 272.72699999999895,
      "v": 67
    },
    {
      "midi": 71,
      "hit": false,
      "t": 49613.58675000002,
      "d": 272.72699999999895,
      "v": 54
    },
    {
      "midi": 67,
      "hit": false,
      "t": 49613.58675000002,
      "d": 306.81787500000064,
      "v": 67
    },
    {
      "midi": 60,
      "hit": false,
      "t": 49835.177437499966,
      "d": 1011.3626250000016,
      "v": 76
    },
    {
      "midi": 64,
      "hit": false,
      "t": 50159.040750000015,
      "d": 477.2722500000018,
      "v": 45
    },
    {
      "midi": 72,
      "hit": false,
      "t": 50159.040750000015,
      "d": 494.317687499999,
      "v": 40
    },
    {
      "midi": 48,
      "hit": false,
      "t": 50164.722562500014,
      "d": 471.59043750000274,
      "v": 63
    },
    {
      "midi": 67,
      "hit": false,
      "t": 50164.722562500014,
      "d": 494.317687499999,
      "v": 45
    },
    {
      "midi": 64,
      "hit": false,
      "t": 50977.22175000001,
      "d": 107.95443749999686,
      "v": 67
    },
    {
      "midi": 48,
      "hit": false,
      "t": 50977.22175000001,
      "d": 113.63624999999593,
      "v": 67
    },
    {
      "midi": 67,
      "hit": false,
      "t": 50977.22175000001,
      "d": 113.63624999999593,
      "v": 67
    },
    {
      "midi": 72,
      "hit": false,
      "t": 50977.22175000001,
      "d": 113.63624999999593,
      "v": 45
    },
    {
      "midi": 64,
      "hit": false,
      "t": 51249.94875000001,
      "d": 539.7721874999988,
      "v": 67
    },
    {
      "midi": 48,
      "hit": false,
      "t": 51249.94875000001,
      "d": 607.9539375000022,
      "v": 67
    },
    {
      "midi": 72,
      "hit": false,
      "t": 51255.63056250001,
      "d": 539.7721874999988,
      "v": 63
    },
    {
      "midi": 67,
      "hit": false,
      "t": 51255.63056250001,
      "d": 579.5448749999996,
      "v": 67
    },
    {
      "midi": 72,
      "hit": false,
      "t": 52068.129750000015,
      "d": 244.31793749999633,
      "v": 45
    },
    {
      "midi": 62,
      "hit": false,
      "t": 52068.129750000015,
      "d": 272.72699999999895,
      "v": 54
    },
    {
      "midi": 55,
      "hit": false,
      "t": 52073.811562500014,
      "d": 244.31793749999633,
      "v": 40
    },
    {
      "midi": 67,
      "hit": false,
      "t": 52073.811562500014,
      "d": 284.0906249999971,
      "v": 40
    },
    {
      "midi": 72,
      "hit": false,
      "t": 52613.58375000001,
      "d": 215.908875000001,
      "v": 67
    },
    {
      "midi": 55,
      "hit": false,
      "t": 52613.58375000001,
      "d": 221.59068750000006,
      "v": 36
    },
    {
      "midi": 62,
      "hit": false,
      "t": 52613.58375000001,
      "d": 221.59068750000006,
      "v": 54
    },
    {
      "midi": 67,
      "hit": false,
      "t": 52613.58375000001,
      "d": 244.3179375000036,
      "v": 67
    },
    {
      "midi": 62,
      "hit": false,
      "t": 53159.03775000002,
      "d": 227.27249999999913,
      "v": 45
    },
    {
      "midi": 67,
      "hit": false,
      "t": 53159.03775000002,
      "d": 227.27249999999913,
      "v": 63
    },
    {
      "midi": 72,
      "hit": false,
      "t": 53164.71956250002,
      "d": 193.18162499999744,
      "v": 36
    },
    {
      "midi": 55,
      "hit": false,
      "t": 53164.71956250002,
      "d": 244.3179375000036,
      "v": 40
    },
    {
      "midi": 67,
      "hit": false,
      "t": 53431.764750000024,
      "d": 289.77243749999616,
      "v": 45
    },
    {
      "midi": 71,
      "hit": false,
      "t": 53431.764750000024,
      "d": 289.77243749999616,
      "v": 31
    },
    {
      "midi": 55,
      "hit": false,
      "t": 53437.44656250002,
      "d": 284.0906249999971,
      "v": 31
    },
    {
      "midi": 62,
      "hit": false,
      "t": 53437.44656250002,
      "d": 284.0906249999971,
      "v": 27
    },
    {
      "midi": 62,
      "hit": false,
      "t": 53977.21875000002,
      "d": 267.0451874999999,
      "v": 63
    },
    {
      "midi": 67,
      "hit": false,
      "t": 53977.21875000002,
      "d": 272.72699999999895,
      "v": 67
    },
    {
      "midi": 71,
      "hit": false,
      "t": 53977.21875000002,
      "d": 272.72699999999895,
      "v": 63
    },
    {
      "midi": 55,
      "hit": false,
      "t": 53977.21875000002,
      "d": 318.1814999999988,
      "v": 63
    },
    {
      "midi": 72,
      "hit": false,
      "t": 54522.67275000002,
      "d": 494.317687499999,
      "v": 27
    },
    {
      "midi": 69,
      "hit": false,
      "t": 54522.67275000002,
      "d": 499.9994999999981,
      "v": 27
    },
    {
      "midi": 52,
      "hit": false,
      "t": 54528.354562500004,
      "d": 4238.632124999996,
      "v": 59
    },
    {
      "midi": 64,
      "hit": false,
      "t": 54528.35456250002,
      "d": 494.317687499999,
      "v": 22
    },
    {
      "midi": 65,
      "hit": false,
      "t": 54528.35456250002,
      "d": 494.317687499999,
      "v": 31
    },
    {
      "midi": 60,
      "hit": false,
      "t": 54534.03637499997,
      "d": 210.22706250000192,
      "v": 71
    },
    {
      "midi": 53,
      "hit": false,
      "t": 54539.7181875,
      "d": 4221.586687499999,
      "v": 71
    },
    {
      "midi": 57,
      "hit": false,
      "t": 54539.7181875,
      "d": 4244.3139374999955,
      "v": 95
    },
    {
      "midi": 60,
      "hit": false,
      "t": 54539.7181875,
      "d": 4267.041187499999,
      "v": 101
    },
    {
      "midi": 60,
      "hit": false,
      "t": 54812.44518749997,
      "d": 181.8179999999993,
      "v": 47
    },
    {
      "midi": 60,
      "hit": false,
      "t": 55073.80856249997,
      "d": 153.40893749999668,
      "v": 82
    },
    {
      "midi": 72,
      "hit": false,
      "t": 55340.85375000002,
      "d": 62.49993749999703,
      "v": 31
    },
    {
      "midi": 64,
      "hit": false,
      "t": 55340.85375000002,
      "d": 85.22718750000058,
      "v": 36
    },
    {
      "midi": 65,
      "hit": false,
      "t": 55346.535562500016,
      "d": 85.22718750000058,
      "v": 36
    },
    {
      "midi": 69,
      "hit": false,
      "t": 55346.535562500016,
      "d": 85.22718750000058,
      "v": 31
    },
    {
      "midi": 60,
      "hit": false,
      "t": 55357.89918749997,
      "d": 471.59043750000274,
      "v": 98
    },
    {
      "midi": 72,
      "hit": false,
      "t": 55613.580750000016,
      "d": 494.317687499999,
      "v": 40
    },
    {
      "midi": 64,
      "hit": false,
      "t": 55613.580750000016,
      "d": 499.9994999999981,
      "v": 40
    },
    {
      "midi": 65,
      "hit": false,
      "t": 55613.580750000016,
      "d": 499.9994999999981,
      "v": 45
    },
    {
      "midi": 69,
      "hit": false,
      "t": 55613.580750000016,
      "d": 499.9994999999981,
      "v": 27
    },
    {
      "midi": 60,
      "hit": false,
      "t": 55886.30774999997,
      "d": 113.6362500000032,
      "v": 65
    },
    {
      "midi": 60,
      "hit": false,
      "t": 56136.30749999997,
      "d": 130.6816875000004,
      "v": 78
    },
    {
      "midi": 60,
      "hit": false,
      "t": 56431.761749999976,
      "d": 482.9540625000009,
      "v": 106
    },
    {
      "midi": 64,
      "hit": false,
      "t": 56431.76175000001,
      "d": 249.99975000000268,
      "v": 27
    },
    {
      "midi": 72,
      "hit": false,
      "t": 56431.76175000001,
      "d": 249.99975000000268,
      "v": 31
    },
    {
      "midi": 65,
      "hit": false,
      "t": 56437.44356250001,
      "d": 267.04518750000716,
      "v": 36
    },
    {
      "midi": 69,
      "hit": false,
      "t": 56437.44356250001,
      "d": 267.04518750000716,
      "v": 31
    },
    {
      "midi": 64,
      "hit": false,
      "t": 56977.21575000002,
      "d": 318.1814999999988,
      "v": 45
    },
    {
      "midi": 65,
      "hit": false,
      "t": 56977.21575000002,
      "d": 318.1814999999988,
      "v": 45
    },
    {
      "midi": 69,
      "hit": false,
      "t": 56977.21575000002,
      "d": 318.1814999999988,
      "v": 31
    },
    {
      "midi": 72,
      "hit": false,
      "t": 56977.21575000002,
      "d": 318.1814999999988,
      "v": 40
    },
    {
      "midi": 60,
      "hit": false,
      "t": 56994.26118749998,
      "d": 79.54537500000151,
      "v": 44
    },
    {
      "midi": 60,
      "hit": false,
      "t": 57249.94274999998,
      "d": 96.59081249999872,
      "v": 83
    },
    {
      "midi": 60,
      "hit": false,
      "t": 57522.66974999998,
      "d": 488.63587499999994,
      "v": 95
    },
    {
      "midi": 64,
      "hit": false,
      "t": 57522.669750000015,
      "d": 198.8634374999965,
      "v": 54
    },
    {
      "midi": 72,
      "hit": false,
      "t": 57522.669750000015,
      "d": 227.27249999999913,
      "v": 40
    },
    {
      "midi": 65,
      "hit": false,
      "t": 57528.351562500015,
      "d": 198.8634374999965,
      "v": 54
    },
    {
      "midi": 69,
      "hit": false,
      "t": 57528.351562500015,
      "d": 221.59068750000006,
      "v": 31
    },
    {
      "midi": 64,
      "hit": false,
      "t": 57795.396750000014,
      "d": 267.0451874999999,
      "v": 27
    },
    {
      "midi": 65,
      "hit": false,
      "t": 57795.396750000014,
      "d": 278.408812499998,
      "v": 54
    },
    {
      "midi": 69,
      "hit": false,
      "t": 57795.396750000014,
      "d": 278.408812499998,
      "v": 36
    },
    {
      "midi": 72,
      "hit": false,
      "t": 57795.396750000014,
      "d": 278.408812499998,
      "v": 31
    },
    {
      "midi": 62,
      "hit": false,
      "t": 58079.48737499998,
      "d": 102.27262499999779,
      "v": 58
    },
    {
      "midi": 64,
      "hit": false,
      "t": 58340.85075000001,
      "d": 267.0451874999999,
      "v": 22
    },
    {
      "midi": 72,
      "hit": false,
      "t": 58340.85075000001,
      "d": 295.4542500000025,
      "v": 18
    },
    {
      "midi": 65,
      "hit": false,
      "t": 58346.53256250001,
      "d": 267.0451874999999,
      "v": 18
    },
    {
      "midi": 69,
      "hit": false,
      "t": 58346.53256250001,
      "d": 306.81787500000064,
      "v": 22
    },
    {
      "midi": 60,
      "hit": false,
      "t": 58369.25981249998,
      "d": 96.59081249999872,
      "v": 83
    },
    {
      "midi": 67,
      "hit": false,
      "t": 58653.350437499976,
      "d": 454.54499999999825,
      "v": 66
    },
    {
      "midi": 67,
      "hit": false,
      "t": 58886.30475000001,
      "d": 539.7721874999988,
      "v": 40
    },
    {
      "midi": 64,
      "hit": false,
      "t": 58886.30475000001,
      "d": 545.4539999999979,
      "v": 40
    },
    {
      "midi": 72,
      "hit": false,
      "t": 58886.30475000001,
      "d": 545.4539999999979,
      "v": 27
    },
    {
      "midi": 60,
      "hit": false,
      "t": 58903.3501875,
      "d": 4198.859437499996,
      "v": 113
    },
    {
      "midi": 57,
      "hit": false,
      "t": 58914.7138125,
      "d": 62.49993749999703,
      "v": 89
    },
    {
      "midi": 55,
      "hit": false,
      "t": 58914.7138125,
      "d": 4130.677687499992,
      "v": 83
    },
    {
      "midi": 52,
      "hit": false,
      "t": 58914.7138125,
      "d": 4153.404937499996,
      "v": 89
    },
    {
      "midi": 84,
      "hit": false,
      "t": 59164.713562499994,
      "d": 198.8634374999965,
      "v": 127
    },
    {
      "midi": 64,
      "hit": false,
      "t": 59176.07718749998,
      "d": 1170.4533749999973,
      "v": 82
    },
    {
      "midi": 84,
      "hit": false,
      "t": 59448.80418749999,
      "d": 198.8634374999965,
      "v": 127
    },
    {
      "midi": 64,
      "hit": false,
      "t": 59704.48575000001,
      "d": 90.90899999999965,
      "v": 45
    },
    {
      "midi": 67,
      "hit": false,
      "t": 59704.48575000001,
      "d": 90.90899999999965,
      "v": 63
    },
    {
      "midi": 72,
      "hit": false,
      "t": 59704.48575000001,
      "d": 107.95443749999686,
      "v": 31
    },
    {
      "midi": 84,
      "hit": false,
      "t": 59732.89481249999,
      "d": 471.59043750000274,
      "v": 127
    },
    {
      "midi": 67,
      "hit": false,
      "t": 59977.212750000006,
      "d": 517.0449375000026,
      "v": 40
    },
    {
      "midi": 72,
      "hit": false,
      "t": 59977.212750000006,
      "d": 522.7267500000016,
      "v": 27
    },
    {
      "midi": 64,
      "hit": false,
      "t": 59977.212750000006,
      "d": 539.7721874999988,
      "v": 31
    },
    {
      "midi": 83,
      "hit": false,
      "t": 60255.62156249999,
      "d": 221.59068750000006,
      "v": 127
    },
    {
      "midi": 83,
      "hit": false,
      "t": 60528.34856249999,
      "d": 244.3179375000036,
      "v": 127
    },
    {
      "midi": 64,
      "hit": false,
      "t": 60795.39375,
      "d": 198.8634374999965,
      "v": 27
    },
    {
      "midi": 67,
      "hit": false,
      "t": 60795.39375,
      "d": 221.59068750000006,
      "v": 40
    },
    {
      "midi": 72,
      "hit": false,
      "t": 60795.39375,
      "d": 249.99975000000268,
      "v": 40
    },
    {
      "midi": 83,
      "hit": false,
      "t": 60806.757374999994,
      "d": 477.2722500000018,
      "v": 127
    },
    {
      "midi": 81,
      "hit": false,
      "t": 61329.484124999995,
      "d": 249.99975000000268,
      "v": 127
    },
    {
      "midi": 67,
      "hit": false,
      "t": 61340.84775000001,
      "d": 244.31793749999633,
      "v": 40
    },
    {
      "midi": 72,
      "hit": false,
      "t": 61340.84775000001,
      "d": 249.9997499999954,
      "v": 36
    },
    {
      "midi": 64,
      "hit": false,
      "t": 61346.52956250001,
      "d": 227.27249999999913,
      "v": 40
    },
    {
      "midi": 81,
      "hit": false,
      "t": 61619.2565625,
      "d": 221.59068750000006,
      "v": 127
    },
    {
      "midi": 67,
      "hit": false,
      "t": 61886.301750000006,
      "d": 215.908875000001,
      "v": 54
    },
    {
      "midi": 72,
      "hit": false,
      "t": 61886.301750000006,
      "d": 221.59068750000006,
      "v": 36
    },
    {
      "midi": 64,
      "hit": false,
      "t": 61886.301750000006,
      "d": 227.27249999999913,
      "v": 40
    },
    {
      "midi": 81,
      "hit": false,
      "t": 61897.665375,
      "d": 499.9994999999981,
      "v": 127
    },
    {
      "midi": 72,
      "hit": false,
      "t": 62159.028750000005,
      "d": 267.0451874999999,
      "v": 31
    },
    {
      "midi": 67,
      "hit": false,
      "t": 62159.028750000005,
      "d": 272.72699999999895,
      "v": 45
    },
    {
      "midi": 64,
      "hit": false,
      "t": 62164.710562500004,
      "d": 238.63612499999726,
      "v": 31
    },
    {
      "midi": 79,
      "hit": false,
      "t": 62437.437562499996,
      "d": 289.77243749999616,
      "v": 101
    },
    {
      "midi": 67,
      "hit": false,
      "t": 62704.48275,
      "d": 267.0451874999999,
      "v": 45
    },
    {
      "midi": 64,
      "hit": false,
      "t": 62704.48275,
      "d": 284.0906249999971,
      "v": 63
    },
    {
      "midi": 72,
      "hit": false,
      "t": 62704.48275,
      "d": 289.77243749999616,
      "v": 31
    },
    {
      "midi": 80,
      "hit": false,
      "t": 62710.164562499995,
      "d": 193.18162499999744,
      "v": 95
    },
    {
      "midi": 81,
      "hit": false,
      "t": 62823.80081249999,
      "d": 1130.6806875000038,
      "v": 53
    },
    {
      "midi": 69,
      "hit": false,
      "t": 63249.93675,
      "d": 403.40868749999936,
      "v": 40
    },
    {
      "midi": 72,
      "hit": false,
      "t": 63249.93675,
      "d": 426.1359375000029,
      "v": 40
    },
    {
      "midi": 52,
      "hit": false,
      "t": 63255.61856249999,
      "d": 4107.950437499996,
      "v": 71
    },
    {
      "midi": 53,
      "hit": false,
      "t": 63255.61856249999,
      "d": 4113.632249999995,
      "v": 101
    },
    {
      "midi": 60,
      "hit": false,
      "t": 63255.61856249999,
      "d": 4147.7231249999895,
      "v": 107
    },
    {
      "midi": 57,
      "hit": false,
      "t": 63255.61856249999,
      "d": 4198.859437499996,
      "v": 113
    },
    {
      "midi": 65,
      "hit": false,
      "t": 63255.6185625,
      "d": 426.1359375000029,
      "v": 45
    },
    {
      "midi": 64,
      "hit": false,
      "t": 63255.6185625,
      "d": 448.86318750000646,
      "v": 40
    },
    {
      "midi": 60,
      "hit": false,
      "t": 63272.663999999975,
      "d": 124.99987500000134,
      "v": 76
    },
    {
      "midi": 60,
      "hit": false,
      "t": 63488.572874999976,
      "d": 164.7725625000021,
      "v": 65
    },
    {
      "midi": 60,
      "hit": false,
      "t": 63795.39074999998,
      "d": 119.31806250000227,
      "v": 65
    },
    {
      "midi": 60,
      "hit": false,
      "t": 64068.117749999976,
      "d": 477.2722500000018,
      "v": 86
    },
    {
      "midi": 65,
      "hit": false,
      "t": 64068.117750000005,
      "d": 68.1817499999961,
      "v": 63
    },
    {
      "midi": 72,
      "hit": false,
      "t": 64068.117750000005,
      "d": 68.1817499999961,
      "v": 40
    },
    {
      "midi": 69,
      "hit": false,
      "t": 64073.799562500004,
      "d": 62.49993749999703,
      "v": 40
    },
    {
      "midi": 64,
      "hit": false,
      "t": 64073.799562500004,
      "d": 85.22718750000058,
      "v": 40
    },
    {
      "midi": 65,
      "hit": false,
      "t": 64340.844750000004,
      "d": 426.13593749999563,
      "v": 63
    },
    {
      "midi": 72,
      "hit": false,
      "t": 64340.844750000004,
      "d": 477.27224999999453,
      "v": 36
    },
    {
      "midi": 69,
      "hit": false,
      "t": 64346.5265625,
      "d": 471.59043749999546,
      "v": 31
    },
    {
      "midi": 64,
      "hit": false,
      "t": 64346.5265625,
      "d": 488.63587499999267,
      "v": 63
    },
    {
      "midi": 60,
      "hit": false,
      "t": 64596.52631249998,
      "d": 96.59081249999872,
      "v": 15
    },
    {
      "midi": 60,
      "hit": false,
      "t": 64874.935124999975,
      "d": 130.6816875000004,
      "v": 73
    },
    {
      "midi": 69,
      "hit": false,
      "t": 65159.02574999999,
      "d": 227.27249999999913,
      "v": 40
    },
    {
      "midi": 72,
      "hit": false,
      "t": 65159.02574999999,
      "d": 244.31793749999633,
      "v": 40
    },
    {
      "midi": 60,
      "hit": false,
      "t": 65164.70756249998,
      "d": 482.9540625000009,
      "v": 88
    },
    {
      "midi": 64,
      "hit": false,
      "t": 65164.70756249999,
      "d": 221.59068750000006,
      "v": 31
    },
    {
      "midi": 65,
      "hit": false,
      "t": 65164.70756249999,
      "d": 221.59068750000006,
      "v": 45
    },
    {
      "midi": 72,
      "hit": false,
      "t": 65704.47974999998,
      "d": 249.99975000000268,
      "v": 36
    },
    {
      "midi": 65,
      "hit": false,
      "t": 65704.47974999998,
      "d": 267.0451874999999,
      "v": 45
    },
    {
      "midi": 64,
      "hit": false,
      "t": 65704.47974999998,
      "d": 272.72699999999895,
      "v": 31
    },
    {
      "midi": 69,
      "hit": false,
      "t": 65704.47974999998,
      "d": 272.72699999999895,
      "v": 31
    },
    {
      "midi": 60,
      "hit": false,
      "t": 65710.16156249998,
      "d": 90.90899999999965,
      "v": 65
    },
    {
      "midi": 60,
      "hit": false,
      "t": 65943.11587499999,
      "d": 193.18162499999744,
      "v": 82
    },
    {
      "midi": 62,
      "hit": false,
      "t": 66238.57012499998,
      "d": 505.6813125000044,
      "v": 88
    },
    {
      "midi": 72,
      "hit": false,
      "t": 66249.93374999998,
      "d": 221.59068749999278,
      "v": 45
    },
    {
      "midi": 69,
      "hit": false,
      "t": 66249.93374999998,
      "d": 227.27249999999185,
      "v": 45
    },
    {
      "midi": 64,
      "hit": false,
      "t": 66255.61556249998,
      "d": 221.59068749999278,
      "v": 40
    },
    {
      "midi": 65,
      "hit": false,
      "t": 66255.61556249998,
      "d": 221.59068749999278,
      "v": 54
    },
    {
      "midi": 72,
      "hit": false,
      "t": 66522.66074999998,
      "d": 289.77243749999616,
      "v": 31
    },
    {
      "midi": 69,
      "hit": false,
      "t": 66522.66074999998,
      "d": 318.1814999999915,
      "v": 40
    },
    {
      "midi": 64,
      "hit": false,
      "t": 66528.34256249998,
      "d": 312.49968749999243,
      "v": 31
    },
    {
      "midi": 65,
      "hit": false,
      "t": 66528.34256249998,
      "d": 312.49968749999243,
      "v": 40
    },
    {
      "midi": 64,
      "hit": false,
      "t": 66795.38775,
      "d": 210.22706249999464,
      "v": 83
    },
    {
      "midi": 60,
      "hit": false,
      "t": 67062.4329375,
      "d": 1284.0896249999932,
      "v": 93
    },
    {
      "midi": 64,
      "hit": false,
      "t": 67068.11474999998,
      "d": 244.3179375000036,
      "v": 27
    },
    {
      "midi": 72,
      "hit": false,
      "t": 67068.11474999998,
      "d": 267.0451874999999,
      "v": 54
    },
    {
      "midi": 65,
      "hit": false,
      "t": 67073.79656249998,
      "d": 244.3179375000036,
      "v": 40
    },
    {
      "midi": 69,
      "hit": false,
      "t": 67073.79656249998,
      "d": 289.77243749999616,
      "v": 31
    },
    {
      "midi": 60,
      "hit": false,
      "t": 67602.205125,
      "d": 3727.2689999999857,
      "v": 127
    },
    {
      "midi": 64,
      "hit": false,
      "t": 67613.56874999998,
      "d": 494.3176875000063,
      "v": 67
    },
    {
      "midi": 67,
      "hit": false,
      "t": 67613.56874999998,
      "d": 522.7267500000016,
      "v": 67
    },
    {
      "midi": 72,
      "hit": false,
      "t": 67613.56874999998,
      "d": 522.7267500000016,
      "v": 40
    },
    {
      "midi": 52,
      "hit": false,
      "t": 67619.25056249999,
      "d": 3676.132687499994,
      "v": 113
    },
    {
      "midi": 55,
      "hit": false,
      "t": 67619.25056249999,
      "d": 3693.1781249999913,
      "v": 113
    },
    {
      "midi": 84,
      "hit": false,
      "t": 67880.61393749999,
      "d": 198.8634374999965,
      "v": 127
    },
    {
      "midi": 84,
      "hit": false,
      "t": 68164.70456249999,
      "d": 176.13618750000023,
      "v": 127
    },
    {
      "midi": 72,
      "hit": false,
      "t": 68431.74974999997,
      "d": 85.22718750000058,
      "v": 27
    },
    {
      "midi": 64,
      "hit": false,
      "t": 68431.74974999997,
      "d": 96.59081249999872,
      "v": 40
    },
    {
      "midi": 67,
      "hit": false,
      "t": 68437.43156249997,
      "d": 85.22718750000058,
      "v": 40
    },
    {
      "midi": 84,
      "hit": false,
      "t": 68443.11337499999,
      "d": 477.27224999999453,
      "v": 127
    },
    {
      "midi": 64,
      "hit": false,
      "t": 68704.47674999997,
      "d": 499.99950000000536,
      "v": 54
    },
    {
      "midi": 72,
      "hit": false,
      "t": 68704.47674999997,
      "d": 499.99950000000536,
      "v": 54
    },
    {
      "midi": 67,
      "hit": false,
      "t": 68704.47674999997,
      "d": 522.7267500000016,
      "v": 63
    },
    {
      "midi": 83,
      "hit": false,
      "t": 68982.88556249999,
      "d": 221.59068749999278,
      "v": 127
    },
    {
      "midi": 83,
      "hit": false,
      "t": 69261.29437499998,
      "d": 227.2725000000064,
      "v": 127
    },
    {
      "midi": 64,
      "hit": false,
      "t": 69522.65774999997,
      "d": 244.3179375000036,
      "v": 40
    },
    {
      "midi": 72,
      "hit": false,
      "t": 69522.65774999997,
      "d": 272.72699999999895,
      "v": 31
    },
    {
      "midi": 67,
      "hit": false,
      "t": 69528.33956249997,
      "d": 267.0451874999999,
      "v": 40
    },
    {
      "midi": 83,
      "hit": false,
      "t": 69551.0668125,
      "d": 403.40868750000664,
      "v": 125
    },
    {
      "midi": 81,
      "hit": false,
      "t": 70056.748125,
      "d": 249.99975000000268,
      "v": 127
    },
    {
      "midi": 64,
      "hit": false,
      "t": 70068.11174999997,
      "d": 198.8634374999965,
      "v": 31
    },
    {
      "midi": 72,
      "hit": false,
      "t": 70068.11174999997,
      "d": 244.3179375000036,
      "v": 40
    },
    {
      "midi": 67,
      "hit": false,
      "t": 70073.79356249997,
      "d": 244.3179375000036,
      "v": 31
    },
    {
      "midi": 81,
      "hit": false,
      "t": 70346.5205625,
      "d": 170.45437500000116,
      "v": 125
    },
    {
      "midi": 64,
      "hit": false,
      "t": 70613.56574999997,
      "d": 198.8634374999965,
      "v": 63
    },
    {
      "midi": 72,
      "hit": false,
      "t": 70613.56574999997,
      "d": 221.59068749999278,
      "v": 45
    },
    {
      "midi": 67,
      "hit": false,
      "t": 70613.56574999997,
      "d": 227.27249999999185,
      "v": 54
    },
    {
      "midi": 81,
      "hit": false,
      "t": 70619.2475625,
      "d": 534.0903749999998,
      "v": 101
    },
    {
      "midi": 72,
      "hit": false,
      "t": 70886.29274999996,
      "d": 335.22693750000326,
      "v": 27
    },
    {
      "midi": 64,
      "hit": false,
      "t": 70886.29274999996,
      "d": 380.68143750001036,
      "v": 45
    },
    {
      "midi": 67,
      "hit": false,
      "t": 70886.29274999996,
      "d": 409.0905000000057,
      "v": 67
    },
    {
      "midi": 79,
      "hit": false,
      "t": 71164.70156249999,
      "d": 335.2269374999887,
      "v": 95
    },
    {
      "midi": 55,
      "hit": false,
      "t": 71420.38312499998,
      "d": 431.8177499999874,
      "v": 107
    },
    {
      "midi": 71,
      "hit": false,
      "t": 71431.74674999998,
      "d": 335.22693750000326,
      "v": 45
    },
    {
      "midi": 64,
      "hit": false,
      "t": 71431.74674999998,
      "d": 340.9087500000023,
      "v": 40
    },
    {
      "midi": 67,
      "hit": false,
      "t": 71431.74674999998,
      "d": 340.9087500000023,
      "v": 67
    },
    {
      "midi": 52,
      "hit": false,
      "t": 71437.42856249998,
      "d": 420.4541249999893,
      "v": 95
    },
    {
      "midi": 59,
      "hit": false,
      "t": 71443.11037499997,
      "d": 482.9540624999936,
      "v": 101
    },
    {
      "midi": 80,
      "hit": false,
      "t": 71448.79218749997,
      "d": 215.9088749999937,
      "v": 71
    },
    {
      "midi": 81,
      "hit": false,
      "t": 71539.70118749997,
      "d": 2221.5886874999997,
      "v": 41
    },
    {
      "midi": 60,
      "hit": false,
      "t": 71977.20074999997,
      "d": 448.8631874999992,
      "v": 54
    },
    {
      "midi": 64,
      "hit": false,
      "t": 71977.20074999997,
      "d": 477.27224999999453,
      "v": 36
    },
    {
      "midi": 69,
      "hit": false,
      "t": 71977.20074999997,
      "d": 477.27224999999453,
      "v": 40
    },
    {
      "midi": 60,
      "hit": false,
      "t": 71982.88256249997,
      "d": 4170.450375,
      "v": 127
    },
    {
      "midi": 52,
      "hit": false,
      "t": 71982.88256249997,
      "d": 4193.177624999997,
      "v": 101
    },
    {
      "midi": 57,
      "hit": false,
      "t": 71982.88256249997,
      "d": 4221.586687499992,
      "v": 125
    },
    {
      "midi": 60,
      "hit": false,
      "t": 71999.92799999999,
      "d": 215.9088749999937,
      "v": 83
    },
    {
      "midi": 60,
      "hit": false,
      "t": 72266.97318749999,
      "d": 187.49981249999837,
      "v": 41
    },
    {
      "midi": 60,
      "hit": false,
      "t": 72511.29112499999,
      "d": 147.7271250000049,
      "v": 82
    },
    {
      "midi": 60,
      "hit": false,
      "t": 72795.38174999997,
      "d": 68.18175000000338,
      "v": 54
    },
    {
      "midi": 64,
      "hit": false,
      "t": 72795.38174999997,
      "d": 90.90899999999965,
      "v": 45
    },
    {
      "midi": 69,
      "hit": false,
      "t": 72795.38174999997,
      "d": 90.90899999999965,
      "v": 36
    },
    {
      "midi": 60,
      "hit": false,
      "t": 72812.4271875,
      "d": 397.726874999993,
      "v": 88
    },
    {
      "midi": 64,
      "hit": false,
      "t": 73068.10874999997,
      "d": 488.63587499999267,
      "v": 40
    },
    {
      "midi": 60,
      "hit": false,
      "t": 73068.10874999997,
      "d": 494.31768749999173,
      "v": 40
    },
    {
      "midi": 69,
      "hit": false,
      "t": 73073.79056249997,
      "d": 494.31768749999173,
      "v": 31
    },
    {
      "midi": 60,
      "hit": false,
      "t": 73585.15368749999,
      "d": 136.36350000000675,
      "v": 76
    },
    {
      "midi": 60,
      "hit": false,
      "t": 73869.2443125,
      "d": 795.4537500000006,
      "v": 80
    },
    {
      "midi": 60,
      "hit": false,
      "t": 73886.28974999997,
      "d": 249.99975000000268,
      "v": 45
    },
    {
      "midi": 69,
      "hit": false,
      "t": 73886.28974999997,
      "d": 267.0451874999999,
      "v": 40
    },
    {
      "midi": 64,
      "hit": false,
      "t": 73886.28974999997,
      "d": 272.72699999999895,
      "v": 54
    },
    {
      "midi": 60,
      "hit": false,
      "t": 74431.74374999997,
      "d": 221.59068749999278,
      "v": 40
    },
    {
      "midi": 64,
      "hit": false,
      "t": 74431.74374999997,
      "d": 272.72699999999895,
      "v": 40
    },
    {
      "midi": 69,
      "hit": false,
      "t": 74437.42556249996,
      "d": 267.0451874999999,
      "v": 27
    },
    {
      "midi": 69,
      "hit": false,
      "t": 74977.19774999996,
      "d": 198.8634374999965,
      "v": 45
    },
    {
      "midi": 60,
      "hit": false,
      "t": 74977.19774999996,
      "d": 204.54524999999558,
      "v": 63
    },
    {
      "midi": 64,
      "hit": false,
      "t": 74977.19774999996,
      "d": 227.27249999999185,
      "v": 67
    },
    {
      "midi": 60,
      "hit": false,
      "t": 74999.925,
      "d": 62.49993750000431,
      "v": 74
    },
    {
      "midi": 60,
      "hit": false,
      "t": 75249.92474999996,
      "d": 312.49968749999243,
      "v": 36
    },
    {
      "midi": 64,
      "hit": false,
      "t": 75249.92474999996,
      "d": 335.2269374999887,
      "v": 54
    },
    {
      "midi": 69,
      "hit": false,
      "t": 75255.60656249996,
      "d": 335.2269374999887,
      "v": 22
    },
    {
      "midi": 60,
      "hit": false,
      "t": 75266.9701875,
      "d": 284.0906249999971,
      "v": 93
    },
    {
      "midi": 62,
      "hit": false,
      "t": 75551.0608125,
      "d": 130.68168749999313,
      "v": 66
    },
    {
      "midi": 60,
      "hit": false,
      "t": 75795.37874999995,
      "d": 221.59068749999278,
      "v": 54
    },
    {
      "midi": 64,
      "hit": false,
      "t": 75795.37874999995,
      "d": 267.0451874999999,
      "v": 67
    },
    {
      "midi": 69,
      "hit": false,
      "t": 75795.37874999995,
      "d": 340.9087500000023,
      "v": 31
    },
    {
      "midi": 60,
      "hit": false,
      "t": 75812.42418749999,
      "d": 113.63624999999593,
      "v": 73
    },
    {
      "midi": 67,
      "hit": false,
      "t": 76090.83299999998,
      "d": 494.3176875000063,
      "v": 98
    },
    {
      "midi": 67,
      "hit": false,
      "t": 76340.83274999994,
      "d": 494.3176875000063,
      "v": 67
    },
    {
      "midi": 71,
      "hit": false,
      "t": 76340.83274999994,
      "d": 517.0449375000026,
      "v": 63
    },
    {
      "midi": 64,
      "hit": false,
      "t": 76346.51456249994,
      "d": 494.3176875000063,
      "v": 67
    },
    {
      "midi": 52,
      "hit": false,
      "t": 76346.51456249997,
      "d": 4079.541374999986,
      "v": 107
    },
    {
      "midi": 55,
      "hit": false,
      "t": 76346.51456249997,
      "d": 4130.677687499992,
      "v": 127
    },
    {
      "midi": 59,
      "hit": false,
      "t": 76346.51456249997,
      "d": 4147.7231249999895,
      "v": 113
    },
    {
      "midi": 83,
      "hit": false,
      "t": 76630.60518749997,
      "d": 426.1359375000029,
      "v": 127
    },
    {
      "midi": 64,
      "hit": false,
      "t": 76630.6051875,
      "d": 1079.5443749999977,
      "v": 73
    },
    {
      "midi": 83,
      "hit": false,
      "t": 77147.65012499997,
      "d": 477.27224999999453,
      "v": 113
    },
    {
      "midi": 64,
      "hit": false,
      "t": 77159.01374999994,
      "d": 62.49993750000431,
      "v": 63
    },
    {
      "midi": 67,
      "hit": false,
      "t": 77159.01374999994,
      "d": 68.18175000000338,
      "v": 63
    },
    {
      "midi": 71,
      "hit": false,
      "t": 77164.69556249994,
      "d": 79.54537500000151,
      "v": 31
    },
    {
      "midi": 67,
      "hit": false,
      "t": 77431.74074999994,
      "d": 454.54499999999825,
      "v": 67
    },
    {
      "midi": 71,
      "hit": false,
      "t": 77431.74074999994,
      "d": 471.59043749999546,
      "v": 40
    },
    {
      "midi": 64,
      "hit": false,
      "t": 77431.74074999994,
      "d": 477.27224999999453,
      "v": 54
    },
    {
      "midi": 83,
      "hit": false,
      "t": 77687.42231249997,
      "d": 335.22693750000326,
      "v": 71
    },
    {
      "midi": 84,
      "hit": false,
      "t": 77971.51293749997,
      "d": 335.2269375000178,
      "v": 127
    },
    {
      "midi": 67,
      "hit": false,
      "t": 78249.92174999994,
      "d": 176.13618750000023,
      "v": 67
    },
    {
      "midi": 71,
      "hit": false,
      "t": 78249.92174999994,
      "d": 181.8179999999993,
      "v": 31
    },
    {
      "midi": 64,
      "hit": false,
      "t": 78255.60356249993,
      "d": 147.7271250000049,
      "v": 63
    },
    {
      "midi": 86,
      "hit": false,
      "t": 78255.60356249998,
      "d": 789.7719375000015,
      "v": 125
    },
    {
      "midi": 71,
      "hit": false,
      "t": 78795.37574999993,
      "d": 267.0451874999999,
      "v": 40
    },
    {
      "midi": 64,
      "hit": false,
      "t": 78795.37574999993,
      "d": 289.77243749999616,
      "v": 40
    },
    {
      "midi": 67,
      "hit": false,
      "t": 78795.37574999993,
      "d": 312.49968749999243,
      "v": 63
    },
    {
      "midi": 83,
      "hit": false,
      "t": 79073.78456249998,
      "d": 585.2266874999914,
      "v": 127
    },
    {
      "midi": 64,
      "hit": false,
      "t": 79340.82974999993,
      "d": 204.54524999999558,
      "v": 40
    },
    {
      "midi": 67,
      "hit": false,
      "t": 79340.82974999993,
      "d": 204.54524999999558,
      "v": 54
    },
    {
      "midi": 71,
      "hit": false,
      "t": 79346.51156249993,
      "d": 244.3179375000036,
      "v": 27
    },
    {
      "midi": 71,
      "hit": false,
      "t": 79619.23856249993,
      "d": 261.3633750000008,
      "v": 40
    },
    {
      "midi": 64,
      "hit": false,
      "t": 79619.23856249993,
      "d": 284.0906249999971,
      "v": 27
    },
    {
      "midi": 67,
      "hit": false,
      "t": 79619.23856249993,
      "d": 306.81787499999336,
      "v": 54
    },
    {
      "midi": 79,
      "hit": false,
      "t": 79636.28399999997,
      "d": 505.6813124999899,
      "v": 113
    },
    {
      "midi": 78,
      "hit": false,
      "t": 80147.64712499996,
      "d": 545.4539999999979,
      "v": 127
    },
    {
      "midi": 64,
      "hit": false,
      "t": 80159.01074999993,
      "d": 312.49968749999243,
      "v": 67
    },
    {
      "midi": 67,
      "hit": false,
      "t": 80159.01074999993,
      "d": 312.49968749999243,
      "v": 63
    },
    {
      "midi": 71,
      "hit": false,
      "t": 80164.69256249993,
      "d": 312.49968749999243,
      "v": 31
    },
    {
      "midi": 53,
      "hit": false,
      "t": 80687.41931249996,
      "d": 1994.3161874999932,
      "v": 127
    },
    {
      "midi": 60,
      "hit": false,
      "t": 80687.41931249996,
      "d": 2085.225187499993,
      "v": 127
    },
    {
      "midi": 57,
      "hit": false,
      "t": 80687.41931249996,
      "d": 2107.952437499989,
      "v": 127
    },
    {
      "midi": 72,
      "hit": false,
      "t": 80704.46474999993,
      "d": 494.3176875000063,
      "v": 36
    },
    {
      "midi": 62,
      "hit": false,
      "t": 80704.46474999993,
      "d": 517.0449375000026,
      "v": 36
    },
    {
      "midi": 65,
      "hit": false,
      "t": 80704.46474999993,
      "d": 517.0449375000026,
      "v": 54
    },
    {
      "midi": 69,
      "hit": false,
      "t": 80704.46474999993,
      "d": 517.0449375000026,
      "v": 36
    },
    {
      "midi": 77,
      "hit": false,
      "t": 80710.14656249995,
      "d": 738.6356249999953,
      "v": 127
    },
    {
      "midi": 60,
      "hit": false,
      "t": 80732.8738125,
      "d": 204.54524999999558,
      "v": 93
    },
    {
      "midi": 60,
      "hit": false,
      "t": 80994.2371875,
      "d": 170.45437500000116,
      "v": 73
    },
    {
      "midi": 60,
      "hit": false,
      "t": 81221.5096875,
      "d": 130.68168749999313,
      "v": 71
    },
    {
      "midi": 84,
      "hit": false,
      "t": 81505.60031249996,
      "d": 1312.4986874999886,
      "v": 127
    },
    {
      "midi": 60,
      "hit": false,
      "t": 81511.282125,
      "d": 443.1813750000001,
      "v": 93
    },
    {
      "midi": 72,
      "hit": false,
      "t": 81522.64574999992,
      "d": 62.49993750000431,
      "v": 40
    },
    {
      "midi": 69,
      "hit": false,
      "t": 81522.64574999992,
      "d": 96.59081249999872,
      "v": 40
    },
    {
      "midi": 65,
      "hit": false,
      "t": 81528.32756249992,
      "d": 79.54537500000151,
      "v": 67
    },
    {
      "midi": 62,
      "hit": false,
      "t": 81528.32756249992,
      "d": 85.22718750000058,
      "v": 31
    },
    {
      "midi": 65,
      "hit": false,
      "t": 81795.37274999992,
      "d": 471.59043749999546,
      "v": 67
    },
    {
      "midi": 72,
      "hit": false,
      "t": 81795.37274999992,
      "d": 494.31768749999173,
      "v": 63
    },
    {
      "midi": 62,
      "hit": false,
      "t": 81795.37274999992,
      "d": 539.7721874999988,
      "v": 40
    },
    {
      "midi": 69,
      "hit": false,
      "t": 81795.37274999992,
      "d": 545.4539999999979,
      "v": 63
    },
    {
      "midi": 60,
      "hit": false,
      "t": 82034.008875,
      "d": 153.40893750000396,
      "v": 59
    },
    {
      "midi": 60,
      "hit": false,
      "t": 82312.4176875,
      "d": 136.36350000000675,
      "v": 74
    },
    {
      "midi": 71,
      "hit": false,
      "t": 82613.55374999992,
      "d": 198.8634374999965,
      "v": 45
    },
    {
      "midi": 62,
      "hit": false,
      "t": 82613.55374999992,
      "d": 221.59068749999278,
      "v": 40
    },
    {
      "midi": 67,
      "hit": false,
      "t": 82613.55374999992,
      "d": 244.31793749998906,
      "v": 45
    },
    {
      "midi": 43,
      "hit": false,
      "t": 82619.2355625,
      "d": 420.45412500000384,
      "v": 64
    },
    {
      "midi": 67,
      "hit": false,
      "t": 82619.2355625,
      "d": 420.45412500000384,
      "v": 64
    },
    {
      "midi": 77,
      "hit": false,
      "t": 82869.23531249995,
      "d": 857.9536874999903,
      "v": 127
    },
    {
      "midi": 59,
      "hit": false,
      "t": 82897.64437499995,
      "d": 2090.9070000000065,
      "v": 125
    },
    {
      "midi": 55,
      "hit": false,
      "t": 82903.32618749994,
      "d": 2039.7706875000003,
      "v": 101
    },
    {
      "midi": 62,
      "hit": false,
      "t": 82914.68981249994,
      "d": 1948.8616875000007,
      "v": 125
    },
    {
      "midi": 43,
      "hit": false,
      "t": 83147.644125,
      "d": 181.8179999999993,
      "v": 64
    },
    {
      "midi": 67,
      "hit": false,
      "t": 83153.3259375,
      "d": 176.13618750000023,
      "v": 64
    },
    {
      "midi": 67,
      "hit": false,
      "t": 83159.0077499999,
      "d": 295.4542499999952,
      "v": 67
    },
    {
      "midi": 71,
      "hit": false,
      "t": 83159.0077499999,
      "d": 295.4542499999952,
      "v": 36
    },
    {
      "midi": 62,
      "hit": false,
      "t": 83164.6895624999,
      "d": 267.0451874999999,
      "v": 45
    },
    {
      "midi": 43,
      "hit": false,
      "t": 83431.73475,
      "d": 142.04531250000582,
      "v": 64
    },
    {
      "midi": 67,
      "hit": false,
      "t": 83437.4165625,
      "d": 142.04531250000582,
      "v": 64
    },
    {
      "midi": 62,
      "hit": false,
      "t": 83704.4617499999,
      "d": 221.59068749999278,
      "v": 45
    },
    {
      "midi": 67,
      "hit": false,
      "t": 83704.4617499999,
      "d": 227.27249999999185,
      "v": 54
    },
    {
      "midi": 71,
      "hit": false,
      "t": 83704.4617499999,
      "d": 249.99974999998813,
      "v": 27
    },
    {
      "midi": 65,
      "hit": false,
      "t": 83710.1435625,
      "d": 460.2268124999973,
      "v": 98
    },
    {
      "midi": 84,
      "hit": false,
      "t": 83721.50718749994,
      "d": 4653.4044375000085,
      "v": 127
    },
    {
      "midi": 62,
      "hit": false,
      "t": 83977.18874999988,
      "d": 318.18150000000605,
      "v": 40
    },
    {
      "midi": 67,
      "hit": false,
      "t": 83977.18874999988,
      "d": 335.22693750000326,
      "v": 67
    },
    {
      "midi": 71,
      "hit": false,
      "t": 83977.18874999988,
      "d": 340.9087500000023,
      "v": 36
    },
    {
      "midi": 64,
      "hit": false,
      "t": 84249.91575,
      "d": 147.7271250000049,
      "v": 71
    },
    {
      "midi": 62,
      "hit": false,
      "t": 84522.64274999988,
      "d": 289.77243749999616,
      "v": 31
    },
    {
      "midi": 67,
      "hit": false,
      "t": 84522.64274999988,
      "d": 363.6359999999986,
      "v": 40
    },
    {
      "midi": 62,
      "hit": false,
      "t": 84522.64275,
      "d": 221.59068749999278,
      "v": 86
    },
    {
      "midi": 71,
      "hit": false,
      "t": 84528.32456249988,
      "d": 289.77243749999616,
      "v": 27
    },
    {
      "midi": 60,
      "hit": false,
      "t": 84806.733375,
      "d": 1846.589062500003,
      "v": 47
    },
    {
      "midi": 64,
      "hit": false,
      "t": 85068.09674999988,
      "d": 522.7267500000016,
      "v": 67
    },
    {
      "midi": 72,
      "hit": false,
      "t": 85068.09674999988,
      "d": 539.7721874999988,
      "v": 45
    },
    {
      "midi": 67,
      "hit": false,
      "t": 85073.77856249988,
      "d": 539.7721874999988,
      "v": 31
    },
    {
      "midi": 52,
      "hit": false,
      "t": 85073.77856249995,
      "d": 2062.4979374999966,
      "v": 127
    },
    {
      "midi": 60,
      "hit": false,
      "t": 85073.77856249995,
      "d": 2062.4979374999966,
      "v": 127
    },
    {
      "midi": 55,
      "hit": false,
      "t": 85073.77856249995,
      "d": 2102.27062499999,
      "v": 127
    },
    {
      "midi": 64,
      "hit": false,
      "t": 85886.27774999988,
      "d": 85.22718750000058,
      "v": 40
    },
    {
      "midi": 67,
      "hit": false,
      "t": 85886.27774999988,
      "d": 90.90899999999965,
      "v": 63
    },
    {
      "midi": 72,
      "hit": false,
      "t": 85886.27774999988,
      "d": 90.90899999999965,
      "v": 18
    },
    {
      "midi": 72,
      "hit": false,
      "t": 86159.00474999988,
      "d": 517.0449375000026,
      "v": 63
    },
    {
      "midi": 64,
      "hit": false,
      "t": 86159.00474999988,
      "d": 545.4539999999979,
      "v": 67
    },
    {
      "midi": 67,
      "hit": false,
      "t": 86164.68656249988,
      "d": 539.7721874999988,
      "v": 67
    },
    {
      "midi": 62,
      "hit": false,
      "t": 86977.18574999987,
      "d": 227.2725000000064,
      "v": 54
    },
    {
      "midi": 71,
      "hit": false,
      "t": 86977.18574999987,
      "d": 244.3179375000036,
      "v": 54
    },
    {
      "midi": 67,
      "hit": false,
      "t": 86977.18574999987,
      "d": 249.99975000000268,
      "v": 67
    },
    {
      "midi": 62,
      "hit": false,
      "t": 87238.54912499995,
      "d": 6999.993000000002,
      "v": 89
    },
    {
      "midi": 79,
      "hit": false,
      "t": 87255.59456249994,
      "d": 73.86356250000244,
      "v": 107
    },
    {
      "midi": 74,
      "hit": false,
      "t": 87255.59456249994,
      "d": 85.22718750000058,
      "v": 107
    },
    {
      "midi": 59,
      "hit": false,
      "t": 87255.59456249994,
      "d": 8778.400312500002,
      "v": 125
    },
    {
      "midi": 67,
      "hit": false,
      "t": 87255.59456249994,
      "d": 34954.510500000004,
      "v": 67
    },
    {
      "midi": 83,
      "hit": false,
      "t": 87255.59456249994,
      "d": 52363.58399999999,
      "v": 100
    },
    {
      "midi": 62,
      "hit": false,
      "t": 87522.63974999987,
      "d": 198.8634374999965,
      "v": 67
    },
    {
      "midi": 71,
      "hit": false,
      "t": 87522.63974999987,
      "d": 221.59068749999278,
      "v": 67
    },
    {
      "midi": 67,
      "hit": false,
      "t": 87528.32156249987,
      "d": 221.59068749999278,
      "v": 67
    },
    {
      "midi": 67,
      "hit": false,
      "t": 88068.09374999987,
      "d": 227.27249999999185,
      "v": 67
    },
    {
      "midi": 71,
      "hit": false,
      "t": 88068.09374999987,
      "d": 227.27249999999185,
      "v": 67
    },
    {
      "midi": 62,
      "hit": false,
      "t": 88073.77556249987,
      "d": 193.18162499999744,
      "v": 67
    },
    {
      "midi": 62,
      "hit": false,
      "t": 88340.82074999987,
      "d": 318.18150000000605,
      "v": 54
    },
    {
      "midi": 67,
      "hit": false,
      "t": 88340.82074999987,
      "d": 335.22693750000326,
      "v": 67
    },
    {
      "midi": 71,
      "hit": false,
      "t": 88346.50256249987,
      "d": 335.22693750000326,
      "v": 40
    },
    {
      "midi": 72,
      "hit": false,
      "t": 88363.548,
      "d": 460.2268124999973,
      "v": 106
    },
    {
      "midi": 62,
      "hit": false,
      "t": 88886.27474999987,
      "d": 409.0905000000057,
      "v": 67
    },
    {
      "midi": 71,
      "hit": false,
      "t": 88886.27474999987,
      "d": 448.8631874999992,
      "v": 67
    },
    {
      "midi": 67,
      "hit": false,
      "t": 88886.27474999987,
      "d": 471.59043749999546,
      "v": 67
    },
    {
      "midi": 74,
      "hit": false,
      "t": 88897.638375,
      "d": 454.54499999999825,
      "v": 98
    },
    {
      "midi": 76,
      "hit": false,
      "t": 89431.72875,
      "d": 1215.9078750000044,
      "v": 102
    },
    {
      "midi": 77,
      "hit": false,
      "t": 90778.31831249999,
      "d": 221.59068749999278,
      "v": 98
    },
    {
      "midi": 76,
      "hit": false,
      "t": 91045.36349999999,
      "d": 159.09075000000303,
      "v": 95
    },
    {
      "midi": 74,
      "hit": false,
      "t": 91306.726875,
      "d": 1499.9985000000015,
      "v": 106
    },
    {
      "midi": 72,
      "hit": false,
      "t": 92954.4525,
      "d": 255.68156250000175,
      "v": 106
    },
    {
      "midi": 71,
      "hit": false,
      "t": 93255.58856250001,
      "d": 170.45437500000116,
      "v": 78
    },
    {
      "midi": 69,
      "hit": false,
      "t": 93533.997375,
      "d": 471.59043749999546,
      "v": 93
    },
    {
      "midi": 74,
      "hit": false,
      "t": 94068.08775,
      "d": 221.59068749999278,
      "v": 93
    },
    {
      "midi": 74,
      "hit": false,
      "t": 94374.905625,
      "d": 164.7725625000021,
      "v": 90
    },
    {
      "midi": 74,
      "hit": false,
      "t": 94630.5871875,
      "d": 630.6811874999985,
      "v": 106
    },
    {
      "midi": 67,
      "hit": false,
      "t": 98176.0381875,
      "d": 164.7725625000021,
      "v": 78
    },
    {
      "midi": 69,
      "hit": false,
      "t": 98488.53787500001,
      "d": 113.63624999999593,
      "v": 78
    },
    {
      "midi": 71,
      "hit": false,
      "t": 98766.9466875,
      "d": 124.99987499999406,
      "v": 83
    },
    {
      "midi": 72,
      "hit": false,
      "t": 99022.62825,
      "d": 249.99975000000268,
      "v": 88
    },
    {
      "midi": 74,
      "hit": false,
      "t": 99283.991625,
      "d": 312.499687500007,
      "v": 47
    },
    {
      "midi": 76,
      "hit": false,
      "t": 99698.7639375,
      "d": 284.0906249999971,
      "v": 95
    },
    {
      "midi": 77,
      "hit": false,
      "t": 100102.17262499999,
      "d": 357.95418749999953,
      "v": 110
    },
    {
      "midi": 79,
      "hit": false,
      "t": 100602.172125,
      "d": 369.3178124999977,
      "v": 98
    },
    {
      "midi": 76,
      "hit": false,
      "t": 101147.626125,
      "d": 471.59043749999546,
      "v": 106
    },
    {
      "midi": 74,
      "hit": false,
      "t": 101693.080125,
      "d": 499.99950000000536,
      "v": 95
    },
    {
      "midi": 67,
      "hit": false,
      "t": 102528.3065625,
      "d": 238.63612500000454,
      "v": 98
    },
    {
      "midi": 76,
      "hit": false,
      "t": 102812.39718750001,
      "d": 113.63624999999593,
      "v": 90
    },
    {
      "midi": 76,
      "hit": false,
      "t": 103079.44237500001,
      "d": 90.90899999999965,
      "v": 98
    },
    {
      "midi": 76,
      "hit": false,
      "t": 103346.48756250001,
      "d": 744.3174374999944,
      "v": 119
    },
    {
      "midi": 72,
      "hit": false,
      "t": 105818.076,
      "d": 409.0905000000057,
      "v": 102
    },
    {
      "midi": 74,
      "hit": false,
      "t": 106357.8481875,
      "d": 374.99962499999674,
      "v": 98
    },
    {
      "midi": 76,
      "hit": false,
      "t": 106897.620375,
      "d": 1204.5442500000063,
      "v": 102
    },
    {
      "midi": 77,
      "hit": false,
      "t": 108232.8463125,
      "d": 232.95431250000547,
      "v": 98
    },
    {
      "midi": 76,
      "hit": false,
      "t": 108516.93693750001,
      "d": 181.8179999999993,
      "v": 88
    },
    {
      "midi": 74,
      "hit": false,
      "t": 108801.0275625,
      "d": 1465.907625000007,
      "v": 110
    },
    {
      "midi": 72,
      "hit": false,
      "t": 110408.98050000002,
      "d": 244.3179375000036,
      "v": 98
    },
    {
      "midi": 71,
      "hit": false,
      "t": 110693.07112500002,
      "d": 210.22706249999464,
      "v": 86
    },
    {
      "midi": 69,
      "hit": false,
      "t": 110982.84356250001,
      "d": 528.4085625000007,
      "v": 88
    },
    {
      "midi": 74,
      "hit": false,
      "t": 111539.66118750001,
      "d": 176.13618750000023,
      "v": 90
    },
    {
      "midi": 74,
      "hit": false,
      "t": 111835.1154375,
      "d": 124.99987499999406,
      "v": 80
    },
    {
      "midi": 74,
      "hit": false,
      "t": 112107.8424375,
      "d": 647.7266249999957,
      "v": 114
    },
    {
      "midi": 67,
      "hit": false,
      "t": 115641.92981249999,
      "d": 210.22706249999464,
      "v": 80
    },
    {
      "midi": 74,
      "hit": false,
      "t": 115897.611375,
      "d": 147.7271250000049,
      "v": 82
    },
    {
      "midi": 74,
      "hit": false,
      "t": 116153.2929375,
      "d": 130.68168749999313,
      "v": 78
    },
    {
      "midi": 74,
      "hit": false,
      "t": 116454.42899999999,
      "d": 454.54499999999825,
      "v": 98
    },
    {
      "midi": 76,
      "hit": false,
      "t": 116988.51937499999,
      "d": 329.5451250000042,
      "v": 106
    },
    {
      "midi": 77,
      "hit": false,
      "t": 117556.700625,
      "d": 437.49956250000105,
      "v": 106
    },
    {
      "midi": 79,
      "hit": false,
      "t": 118068.06375,
      "d": 329.5451250000042,
      "v": 98
    },
    {
      "midi": 76,
      "hit": false,
      "t": 118613.51775,
      "d": 460.2268124999973,
      "v": 102
    },
    {
      "midi": 74,
      "hit": false,
      "t": 119147.608125,
      "d": 363.6359999999986,
      "v": 83
    },
    {
      "midi": 67,
      "hit": false,
      "t": 119994.19818749999,
      "d": 210.22706249999464,
      "v": 86
    },
    {
      "midi": 76,
      "hit": false,
      "t": 120255.56156249999,
      "d": 147.7271250000049,
      "v": 93
    },
    {
      "midi": 76,
      "hit": false,
      "t": 120522.60674999999,
      "d": 147.7271250000049,
      "v": 106
    },
    {
      "midi": 76,
      "hit": false,
      "t": 120835.1064375,
      "d": 448.8631874999992,
      "v": 106
    },
    {
      "midi": 77,
      "hit": false,
      "t": 121352.151375,
      "d": 357.95418749999953,
      "v": 98
    },
    {
      "midi": 81,
      "hit": false,
      "t": 121869.1963125,
      "d": 437.49956250000105,
      "v": 83
    },
    {
      "midi": 79,
      "hit": false,
      "t": 122403.2866875,
      "d": 386.3632499999949,
      "v": 98
    },
    {
      "midi": 77,
      "hit": false,
      "t": 122948.7406875,
      "d": 454.54499999999825,
      "v": 83
    },
    {
      "midi": 76,
      "hit": false,
      "t": 123488.512875,
      "d": 437.49956250000105,
      "v": 93
    },
    {
      "midi": 69,
      "hit": false,
      "t": 124346.4665625,
      "d": 232.95431250000547,
      "v": 82
    },
    {
      "midi": 74,
      "hit": false,
      "t": 124658.96625000001,
      "d": 130.68168749999313,
      "v": 83
    },
    {
      "midi": 74,
      "hit": false,
      "t": 124937.37506250001,
      "d": 130.68168749999313,
      "v": 88
    },
    {
      "midi": 74,
      "hit": false,
      "t": 125244.1929375,
      "d": 420.45412500000384,
      "v": 106
    },
    {
      "midi": 76,
      "hit": false,
      "t": 125727.14700000001,
      "d": 176.13618750000023,
      "v": 82
    },
    {
      "midi": 74,
      "hit": false,
      "t": 126022.60125,
      "d": 147.7271250000049,
      "v": 73
    },
    {
      "midi": 77,
      "hit": false,
      "t": 126272.60100000001,
      "d": 1988.6343749999942,
      "v": 102
    },
    {
      "midi": 72,
      "hit": false,
      "t": 128693.053125,
      "d": 994.3171874999971,
      "v": 93
    },
    {
      "midi": 71,
      "hit": false,
      "t": 129812.3701875,
      "d": 971.5899375000008,
      "v": 90
    },
    {
      "midi": 65,
      "hit": false,
      "t": 130886.23274999986,
      "d": 602.2721250000031,
      "v": 22
    },
    {
      "midi": 61,
      "hit": false,
      "t": 130886.23274999986,
      "d": 607.9539375000022,
      "v": 36
    },
    {
      "midi": 56,
      "hit": false,
      "t": 130886.23274999986,
      "d": 613.6357500000013,
      "v": 36
    },
    {
      "midi": 72,
      "hit": false,
      "t": 130891.9145625,
      "d": 3335.2239375000063,
      "v": 88
    },
    {
      "midi": 56,
      "hit": false,
      "t": 131704.41374999986,
      "d": 124.99987500000861,
      "v": 13
    },
    {
      "midi": 65,
      "hit": false,
      "t": 131704.41374999986,
      "d": 130.68168750000768,
      "v": 18
    },
    {
      "midi": 61,
      "hit": false,
      "t": 131704.41374999986,
      "d": 147.7271250000049,
      "v": 27
    },
    {
      "midi": 65,
      "hit": false,
      "t": 131977.14074999987,
      "d": 585.2266874999914,
      "v": 31
    },
    {
      "midi": 56,
      "hit": false,
      "t": 131977.14074999987,
      "d": 607.9539374999877,
      "v": 36
    },
    {
      "midi": 61,
      "hit": false,
      "t": 131977.14074999987,
      "d": 630.6811874999839,
      "v": 36
    },
    {
      "midi": 56,
      "hit": false,
      "t": 132795.32174999986,
      "d": 340.9087500000023,
      "v": 22
    },
    {
      "midi": 65,
      "hit": false,
      "t": 132795.32174999986,
      "d": 340.9087500000023,
      "v": 4
    },
    {
      "midi": 61,
      "hit": false,
      "t": 132795.32174999986,
      "d": 357.95418749999953,
      "v": 22
    },
    {
      "midi": 56,
      "hit": false,
      "t": 133340.77574999986,
      "d": 318.18150000000605,
      "v": 9
    },
    {
      "midi": 65,
      "hit": false,
      "t": 133340.77574999986,
      "d": 318.18150000000605,
      "v": 9
    },
    {
      "midi": 61,
      "hit": false,
      "t": 133346.45756249985,
      "d": 312.499687500007,
      "v": 22
    },
    {
      "midi": 61,
      "hit": false,
      "t": 133886.22974999985,
      "d": 130.68168750000768,
      "v": 27
    },
    {
      "midi": 56,
      "hit": false,
      "t": 133886.22974999985,
      "d": 136.36350000000675,
      "v": 31
    },
    {
      "midi": 65,
      "hit": false,
      "t": 133886.22974999985,
      "d": 136.36350000000675,
      "v": 27
    },
    {
      "midi": 56,
      "hit": false,
      "t": 134158.95674999987,
      "d": 380.6814374999958,
      "v": 36
    },
    {
      "midi": 65,
      "hit": false,
      "t": 134158.95674999987,
      "d": 380.6814374999958,
      "v": 31
    },
    {
      "midi": 61,
      "hit": false,
      "t": 134164.63856249987,
      "d": 397.726874999993,
      "v": 31
    },
    {
      "midi": 65,
      "hit": false,
      "t": 134704.41074999986,
      "d": 284.09062500001164,
      "v": 13
    },
    {
      "midi": 56,
      "hit": false,
      "t": 134704.41074999986,
      "d": 352.27237500000047,
      "v": 27
    },
    {
      "midi": 61,
      "hit": false,
      "t": 134704.41074999986,
      "d": 443.18137500001467,
      "v": 22
    },
    {
      "midi": 55,
      "hit": false,
      "t": 135249.8647499999,
      "d": 585.2266874999914,
      "v": 27
    },
    {
      "midi": 60,
      "hit": false,
      "t": 135255.5465624999,
      "d": 607.9539374999877,
      "v": 18
    },
    {
      "midi": 55,
      "hit": false,
      "t": 136068.04574999987,
      "d": 136.36350000000675,
      "v": 36
    },
    {
      "midi": 60,
      "hit": false,
      "t": 136068.04574999987,
      "d": 153.40893750000396,
      "v": 13
    },
    {
      "midi": 64,
      "hit": false,
      "t": 136073.72756249987,
      "d": 130.68168750000768,
      "v": 13
    },
    {
      "midi": 55,
      "hit": false,
      "t": 136340.7727499999,
      "d": 607.9539374999877,
      "v": 45
    },
    {
      "midi": 60,
      "hit": false,
      "t": 136340.7727499999,
      "d": 630.6811874999839,
      "v": 36
    },
    {
      "midi": 64,
      "hit": false,
      "t": 136346.4545624999,
      "d": 602.2721249999886,
      "v": 27
    },
    {
      "midi": 55,
      "hit": false,
      "t": 137158.95374999987,
      "d": 267.04518749998533,
      "v": 45
    },
    {
      "midi": 64,
      "hit": false,
      "t": 137164.63556249987,
      "d": 267.04518749998533,
      "v": 31
    },
    {
      "midi": 60,
      "hit": false,
      "t": 137164.63556249987,
      "d": 289.7724374999816,
      "v": 36
    },
    {
      "midi": 55,
      "hit": false,
      "t": 137704.40774999984,
      "d": 289.7724375000107,
      "v": 40
    },
    {
      "midi": 60,
      "hit": false,
      "t": 137704.40774999984,
      "d": 312.499687500007,
      "v": 36
    },
    {
      "midi": 55,
      "hit": false,
      "t": 138249.86174999984,
      "d": 107.95443750001141,
      "v": 22
    },
    {
      "midi": 60,
      "hit": false,
      "t": 138249.86174999984,
      "d": 113.63625000001048,
      "v": 18
    },
    {
      "midi": 64,
      "hit": false,
      "t": 138255.54356249984,
      "d": 107.95443750001141,
      "v": 13
    },
    {
      "midi": 64,
      "hit": false,
      "t": 138522.58874999985,
      "d": 534.0903749999998,
      "v": 36
    },
    {
      "midi": 55,
      "hit": false,
      "t": 139068.04274999985,
      "d": 11.363624999998137,
      "v": 40
    },
    {
      "midi": 60,
      "hit": false,
      "t": 139068.04274999985,
      "d": 11.363624999998137,
      "v": 40
    },
    {
      "midi": 64,
      "hit": false,
      "t": 139073.72456249985,
      "d": 176.13618750000023,
      "v": 36
    },
    {
      "midi": 72,
      "hit": false,
      "t": 139613.49674999985,
      "d": 494.3176875000063,
      "v": 36
    },
    {
      "midi": 65,
      "hit": false,
      "t": 139613.49674999985,
      "d": 499.99950000000536,
      "v": 31
    },
    {
      "midi": 69,
      "hit": false,
      "t": 139613.49674999985,
      "d": 522.7267500000016,
      "v": 40
    },
    {
      "midi": 69,
      "hit": false,
      "t": 140431.67774999986,
      "d": 62.499937499989755,
      "v": 67
    },
    {
      "midi": 65,
      "hit": false,
      "t": 140431.67774999986,
      "d": 68.18174999998882,
      "v": 63
    },
    {
      "midi": 72,
      "hit": false,
      "t": 140437.35956249986,
      "d": 62.499937499989755,
      "v": 31
    },
    {
      "midi": 60,
      "hit": false,
      "t": 140698.7229375,
      "d": 147.7271250000049,
      "v": 32
    },
    {
      "midi": 72,
      "hit": false,
      "t": 140704.40474999984,
      "d": 534.0903749999998,
      "v": 54
    },
    {
      "midi": 65,
      "hit": false,
      "t": 140704.40474999984,
      "d": 539.7721874999988,
      "v": 63
    },
    {
      "midi": 69,
      "hit": false,
      "t": 140704.40474999984,
      "d": 539.7721874999988,
      "v": 67
    },
    {
      "midi": 60,
      "hit": false,
      "t": 140903.26818749998,
      "d": 221.59068749999278,
      "v": 55
    },
    {
      "midi": 60,
      "hit": false,
      "t": 141227.1315,
      "d": 227.27249999999185,
      "v": 82
    },
    {
      "midi": 60,
      "hit": false,
      "t": 141516.90393749997,
      "d": 482.95406250000815,
      "v": 76
    },
    {
      "midi": 72,
      "hit": false,
      "t": 141522.58574999985,
      "d": 267.04518749998533,
      "v": 36
    },
    {
      "midi": 69,
      "hit": false,
      "t": 141522.58574999985,
      "d": 272.7269999999844,
      "v": 54
    },
    {
      "midi": 65,
      "hit": false,
      "t": 141528.26756249985,
      "d": 267.04518749998533,
      "v": 45
    },
    {
      "midi": 60,
      "hit": false,
      "t": 142062.35793749997,
      "d": 124.99987500000861,
      "v": 78
    },
    {
      "midi": 65,
      "hit": false,
      "t": 142068.03974999985,
      "d": 289.7724375000107,
      "v": 54
    },
    {
      "midi": 69,
      "hit": false,
      "t": 142068.03974999985,
      "d": 318.18150000000605,
      "v": 45
    },
    {
      "midi": 72,
      "hit": false,
      "t": 142073.72156249985,
      "d": 312.499687500007,
      "v": 27
    },
    {
      "midi": 60,
      "hit": false,
      "t": 142335.08493749998,
      "d": 164.7725625000021,
      "v": 90
    },
    {
      "midi": 65,
      "hit": false,
      "t": 142613.49374999985,
      "d": 221.59068749999278,
      "v": 67
    },
    {
      "midi": 69,
      "hit": false,
      "t": 142613.49374999985,
      "d": 249.99974999998813,
      "v": 67
    },
    {
      "midi": 72,
      "hit": false,
      "t": 142613.49374999985,
      "d": 249.99974999998813,
      "v": 40
    },
    {
      "midi": 60,
      "hit": false,
      "t": 142619.1755625,
      "d": 528.4085625000007,
      "v": 110
    },
    {
      "midi": 65,
      "hit": false,
      "t": 142886.22074999983,
      "d": 335.22693750000326,
      "v": 45
    },
    {
      "midi": 72,
      "hit": false,
      "t": 142886.22074999983,
      "d": 340.9087500000023,
      "v": 22
    },
    {
      "midi": 69,
      "hit": false,
      "t": 142886.22074999983,
      "d": 363.6359999999986,
      "v": 63
    },
    {
      "midi": 62,
      "hit": false,
      "t": 143181.675,
      "d": 198.8634374999965,
      "v": 71
    },
    {
      "midi": 69,
      "hit": false,
      "t": 143431.67474999983,
      "d": 363.6359999999986,
      "v": 67
    },
    {
      "midi": 72,
      "hit": false,
      "t": 143431.67474999983,
      "d": 363.6359999999986,
      "v": 45
    },
    {
      "midi": 65,
      "hit": false,
      "t": 143437.35656249983,
      "d": 357.95418749999953,
      "v": 67
    },
    {
      "midi": 60,
      "hit": false,
      "t": 143448.72018749997,
      "d": 130.68168750000768,
      "v": 93
    },
    {
      "midi": 67,
      "hit": false,
      "t": 143732.81081249999,
      "d": 522.7267500000016,
      "v": 83
    },
    {
      "midi": 67,
      "hit": false,
      "t": 143977.12874999983,
      "d": 539.7721874999988,
      "v": 54
    },
    {
      "midi": 64,
      "hit": false,
      "t": 143977.12874999983,
      "d": 545.4539999999979,
      "v": 67
    },
    {
      "midi": 72,
      "hit": false,
      "t": 143977.12874999983,
      "d": 551.135812499997,
      "v": 31
    },
    {
      "midi": 84,
      "hit": false,
      "t": 144249.85574999984,
      "d": 204.54524999999558,
      "v": 54
    },
    {
      "midi": 64,
      "hit": false,
      "t": 144289.62843749998,
      "d": 1568.180250000005,
      "v": 90
    },
    {
      "midi": 84,
      "hit": false,
      "t": 144522.58274999983,
      "d": 181.8179999999993,
      "v": 67
    },
    {
      "midi": 67,
      "hit": false,
      "t": 144795.30974999984,
      "d": 62.499937499989755,
      "v": 67
    },
    {
      "midi": 64,
      "hit": false,
      "t": 144795.30974999984,
      "d": 90.9089999999851,
      "v": 67
    },
    {
      "midi": 72,
      "hit": false,
      "t": 144795.30974999984,
      "d": 90.9089999999851,
      "v": 40
    },
    {
      "midi": 84,
      "hit": false,
      "t": 144795.30974999984,
      "d": 448.86318749998463,
      "v": 67
    },
    {
      "midi": 72,
      "hit": false,
      "t": 145068.03674999982,
      "d": 568.1812499999942,
      "v": 40
    },
    {
      "midi": 64,
      "hit": false,
      "t": 145068.03674999982,
      "d": 590.9084999999905,
      "v": 67
    },
    {
      "midi": 67,
      "hit": false,
      "t": 145073.71856249982,
      "d": 585.2266874999914,
      "v": 67
    },
    {
      "midi": 83,
      "hit": false,
      "t": 145340.76374999984,
      "d": 221.59068749999278,
      "v": 31
    },
    {
      "midi": 83,
      "hit": false,
      "t": 145613.49074999982,
      "d": 221.59068749999278,
      "v": 67
    },
    {
      "midi": 64,
      "hit": false,
      "t": 145886.2177499998,
      "d": 289.7724375000107,
      "v": 63
    },
    {
      "midi": 67,
      "hit": false,
      "t": 145886.2177499998,
      "d": 295.4542500000098,
      "v": 45
    },
    {
      "midi": 72,
      "hit": false,
      "t": 145886.2177499998,
      "d": 301.13606250000885,
      "v": 40
    },
    {
      "midi": 83,
      "hit": false,
      "t": 145886.2177499998,
      "d": 409.09050000002026,
      "v": 67
    },
    {
      "midi": 67,
      "hit": false,
      "t": 146431.67174999983,
      "d": 267.04518749998533,
      "v": 67
    },
    {
      "midi": 64,
      "hit": false,
      "t": 146431.67174999983,
      "d": 272.7269999999844,
      "v": 67
    },
    {
      "midi": 81,
      "hit": false,
      "t": 146437.35356249983,
      "d": 198.8634374999965,
      "v": 54
    },
    {
      "midi": 72,
      "hit": false,
      "t": 146437.35356249983,
      "d": 284.09062499998254,
      "v": 27
    },
    {
      "midi": 81,
      "hit": false,
      "t": 146704.39874999982,
      "d": 221.59068749999278,
      "v": 36
    },
    {
      "midi": 64,
      "hit": false,
      "t": 146977.1257499998,
      "d": 198.8634374999965,
      "v": 67
    },
    {
      "midi": 67,
      "hit": false,
      "t": 146977.1257499998,
      "d": 227.27249999999185,
      "v": 67
    },
    {
      "midi": 72,
      "hit": false,
      "t": 146977.1257499998,
      "d": 227.27249999999185,
      "v": 40
    },
    {
      "midi": 81,
      "hit": false,
      "t": 146977.1257499998,
      "d": 494.3176874999772,
      "v": 67
    },
    {
      "midi": 64,
      "hit": false,
      "t": 147249.8527499998,
      "d": 335.22693749997416,
      "v": 31
    },
    {
      "midi": 67,
      "hit": false,
      "t": 147249.8527499998,
      "d": 357.95418749997043,
      "v": 40
    },
    {
      "midi": 72,
      "hit": false,
      "t": 147255.5345624998,
      "d": 335.22693749997416,
      "v": 27
    },
    {
      "midi": 79,
      "hit": false,
      "t": 147522.57974999977,
      "d": 289.7724374999816,
      "v": 27
    },
    {
      "midi": 80,
      "hit": false,
      "t": 147795.30674999976,
      "d": 85.22718749998603,
      "v": 67
    },
    {
      "midi": 64,
      "hit": false,
      "t": 147795.30674999976,
      "d": 312.4996874999779,
      "v": 67
    },
    {
      "midi": 67,
      "hit": false,
      "t": 147795.30674999976,
      "d": 340.9087499999732,
      "v": 63
    },
    {
      "midi": 72,
      "hit": false,
      "t": 147795.30674999976,
      "d": 380.6814374999667,
      "v": 27
    },
    {
      "midi": 81,
      "hit": false,
      "t": 147931.67024999973,
      "d": 1994.3161874999932,
      "v": 1
    },
    {
      "midi": 65,
      "hit": false,
      "t": 148340.76074999972,
      "d": 517.0449375000026,
      "v": 63
    },
    {
      "midi": 69,
      "hit": false,
      "t": 148340.76074999972,
      "d": 539.7721874999988,
      "v": 54
    },
    {
      "midi": 72,
      "hit": false,
      "t": 148346.44256249972,
      "d": 539.7721874999988,
      "v": 31
    },
    {
      "midi": 60,
      "hit": false,
      "t": 148346.4425625,
      "d": 232.95431249999092,
      "v": 80
    },
    {
      "midi": 60,
      "hit": false,
      "t": 148636.21499999997,
      "d": 147.7271250000049,
      "v": 71
    },
    {
      "midi": 60,
      "hit": false,
      "t": 148880.5329375,
      "d": 124.99987500000861,
      "v": 82
    },
    {
      "midi": 65,
      "hit": false,
      "t": 149158.94174999974,
      "d": 79.54537499998696,
      "v": 63
    },
    {
      "midi": 69,
      "hit": false,
      "t": 149158.94174999974,
      "d": 85.22718749998603,
      "v": 45
    },
    {
      "midi": 72,
      "hit": false,
      "t": 149164.62356249974,
      "d": 79.54537499998696,
      "v": 18
    },
    {
      "midi": 60,
      "hit": false,
      "t": 149164.6235625,
      "d": 460.2268125000119,
      "v": 83
    },
    {
      "midi": 65,
      "hit": false,
      "t": 149431.66874999972,
      "d": 585.2266875000205,
      "v": 54
    },
    {
      "midi": 72,
      "hit": false,
      "t": 149431.66874999972,
      "d": 630.681187500013,
      "v": 22
    },
    {
      "midi": 69,
      "hit": false,
      "t": 149437.35056249972,
      "d": 607.9539375000168,
      "v": 31
    },
    {
      "midi": 60,
      "hit": false,
      "t": 149710.0775625,
      "d": 130.68168750000768,
      "v": 62
    },
    {
      "midi": 60,
      "hit": false,
      "t": 149977.12275,
      "d": 124.99987500000861,
      "v": 74
    },
    {
      "midi": 60,
      "hit": false,
      "t": 150244.16793750002,
      "d": 482.95406250000815,
      "v": 93
    },
    {
      "midi": 65,
      "hit": false,
      "t": 150249.84974999973,
      "d": 295.4542500000098,
      "v": 67
    },
    {
      "midi": 69,
      "hit": false,
      "t": 150249.84974999973,
      "d": 312.499687500007,
      "v": 67
    },
    {
      "midi": 72,
      "hit": false,
      "t": 150255.53156249973,
      "d": 312.499687500007,
      "v": 36
    },
    {
      "midi": 60,
      "hit": false,
      "t": 150778.25831250002,
      "d": 136.36350000000675,
      "v": 78
    },
    {
      "midi": 69,
      "hit": false,
      "t": 150795.30374999973,
      "d": 312.499687500007,
      "v": 67
    },
    {
      "midi": 65,
      "hit": false,
      "t": 150795.30374999973,
      "d": 318.18150000000605,
      "v": 67
    },
    {
      "midi": 72,
      "hit": false,
      "t": 150795.30374999973,
      "d": 318.18150000000605,
      "v": 36
    },
    {
      "midi": 60,
      "hit": false,
      "t": 151039.62168750004,
      "d": 181.8179999999993,
      "v": 90
    },
    {
      "midi": 65,
      "hit": false,
      "t": 151340.75774999973,
      "d": 249.99974999998813,
      "v": 67
    },
    {
      "midi": 69,
      "hit": false,
      "t": 151340.75774999973,
      "d": 249.99974999998813,
      "v": 67
    },
    {
      "midi": 72,
      "hit": false,
      "t": 151346.43956249973,
      "d": 244.31793749998906,
      "v": 54
    },
    {
      "midi": 62,
      "hit": false,
      "t": 151346.43956250005,
      "d": 505.6813125000044,
      "v": 93
    },
    {
      "midi": 69,
      "hit": false,
      "t": 151613.4847499997,
      "d": 357.95418749999953,
      "v": 45
    },
    {
      "midi": 65,
      "hit": false,
      "t": 151613.4847499997,
      "d": 363.6359999999986,
      "v": 31
    },
    {
      "midi": 72,
      "hit": false,
      "t": 151613.4847499997,
      "d": 369.3178124999977,
      "v": 40
    },
    {
      "midi": 64,
      "hit": false,
      "t": 151874.84812500005,
      "d": 215.9088749999937,
      "v": 71
    },
    {
      "midi": 60,
      "hit": false,
      "t": 152141.89331250003,
      "d": 1352.2713750000112,
      "v": 102
    },
    {
      "midi": 72,
      "hit": false,
      "t": 152158.9387499997,
      "d": 335.22693750000326,
      "v": 36
    },
    {
      "midi": 69,
      "hit": false,
      "t": 152158.9387499997,
      "d": 340.9087500000023,
      "v": 45
    },
    {
      "midi": 65,
      "hit": false,
      "t": 152164.6205624997,
      "d": 335.22693750000326,
      "v": 45
    },
    {
      "midi": 64,
      "hit": false,
      "t": 152704.3927499997,
      "d": 545.454000000027,
      "v": 67
    },
    {
      "midi": 67,
      "hit": false,
      "t": 152704.3927499997,
      "d": 545.454000000027,
      "v": 67
    },
    {
      "midi": 72,
      "hit": false,
      "t": 152704.3927499997,
      "d": 545.454000000027,
      "v": 45
    },
    {
      "midi": 84,
      "hit": false,
      "t": 152977.11974999972,
      "d": 176.13618750000023,
      "v": 67
    },
    {
      "midi": 84,
      "hit": false,
      "t": 153249.84674999974,
      "d": 153.40893750000396,
      "v": 67
    },
    {
      "midi": 72,
      "hit": false,
      "t": 153522.57374999975,
      "d": 85.22718749998603,
      "v": 27
    },
    {
      "midi": 84,
      "hit": false,
      "t": 153522.57374999975,
      "d": 471.5904374999809,
      "v": 67
    },
    {
      "midi": 64,
      "hit": false,
      "t": 153528.25556249975,
      "d": 85.22718749998603,
      "v": 31
    },
    {
      "midi": 67,
      "hit": false,
      "t": 153528.25556249975,
      "d": 85.22718749998603,
      "v": 36
    },
    {
      "midi": 72,
      "hit": false,
      "t": 153795.30074999973,
      "d": 545.4539999999688,
      "v": 54
    },
    {
      "midi": 64,
      "hit": false,
      "t": 153795.30074999973,
      "d": 562.499437499966,
      "v": 63
    },
    {
      "midi": 67,
      "hit": false,
      "t": 153795.30074999973,
      "d": 568.1812499999651,
      "v": 67
    },
    {
      "midi": 83,
      "hit": false,
      "t": 154068.02774999972,
      "d": 198.8634374999965,
      "v": 67
    },
    {
      "midi": 83,
      "hit": false,
      "t": 154340.7547499997,
      "d": 198.8634374999965,
      "v": 67
    },
    {
      "midi": 64,
      "hit": false,
      "t": 154613.4817499997,
      "d": 244.31793749998906,
      "v": 63
    },
    {
      "midi": 67,
      "hit": false,
      "t": 154613.4817499997,
      "d": 272.7269999999844,
      "v": 54
    },
    {
      "midi": 72,
      "hit": false,
      "t": 154613.4817499997,
      "d": 272.7269999999844,
      "v": 36
    },
    {
      "midi": 83,
      "hit": false,
      "t": 154613.4817499997,
      "d": 431.8177499999874,
      "v": 40
    },
    {
      "midi": 81,
      "hit": false,
      "t": 155158.93574999968,
      "d": 170.45437500000116,
      "v": 67
    },
    {
      "midi": 67,
      "hit": false,
      "t": 155158.93574999968,
      "d": 312.499687500007,
      "v": 45
    },
    {
      "midi": 64,
      "hit": false,
      "t": 155164.61756249968,
      "d": 312.499687500007,
      "v": 45
    },
    {
      "midi": 72,
      "hit": false,
      "t": 155164.61756249968,
      "d": 312.499687500007,
      "v": 31
    },
    {
      "midi": 81,
      "hit": false,
      "t": 155431.6627499997,
      "d": 153.40893750000396,
      "v": 31
    },
    {
      "midi": 67,
      "hit": false,
      "t": 155704.3897499997,
      "d": 198.8634374999965,
      "v": 67
    },
    {
      "midi": 64,
      "hit": false,
      "t": 155704.3897499997,
      "d": 204.54524999999558,
      "v": 67
    },
    {
      "midi": 72,
      "hit": false,
      "t": 155704.3897499997,
      "d": 221.59068749999278,
      "v": 63
    },
    {
      "midi": 81,
      "hit": false,
      "t": 155704.3897499997,
      "d": 534.0903749999707,
      "v": 45
    },
    {
      "midi": 64,
      "hit": false,
      "t": 155977.1167499997,
      "d": 357.95418749997043,
      "v": 40
    },
    {
      "midi": 72,
      "hit": false,
      "t": 155977.1167499997,
      "d": 363.6359999999695,
      "v": 22
    },
    {
      "midi": 67,
      "hit": false,
      "t": 155977.1167499997,
      "d": 380.6814374999667,
      "v": 54
    },
    {
      "midi": 79,
      "hit": false,
      "t": 156249.84374999968,
      "d": 335.22693749997416,
      "v": 31
    },
    {
      "midi": 80,
      "hit": false,
      "t": 156522.57074999966,
      "d": 113.63624999998137,
      "v": 63
    },
    {
      "midi": 67,
      "hit": false,
      "t": 156528.25256249966,
      "d": 374.99962499999674,
      "v": 54
    },
    {
      "midi": 71,
      "hit": false,
      "t": 156528.25256249966,
      "d": 397.726874999993,
      "v": 45
    },
    {
      "midi": 64,
      "hit": false,
      "t": 156528.25256249966,
      "d": 403.4086874999921,
      "v": 40
    },
    {
      "midi": 69,
      "hit": false,
      "t": 157068.02474999966,
      "d": 517.0449375000026,
      "v": 40
    },
    {
      "midi": 60,
      "hit": false,
      "t": 157068.02474999966,
      "d": 522.7267500000016,
      "v": 63
    },
    {
      "midi": 64,
      "hit": false,
      "t": 157068.02474999966,
      "d": 522.7267500000016,
      "v": 67
    },
    {
      "midi": 60,
      "hit": false,
      "t": 157073.70656250004,
      "d": 215.9088749999937,
      "v": 74
    },
    {
      "midi": 60,
      "hit": false,
      "t": 157335.06993750003,
      "d": 159.09075000000303,
      "v": 71
    },
    {
      "midi": 60,
      "hit": false,
      "t": 157590.75150000004,
      "d": 221.59068749999278,
      "v": 93
    },
    {
      "midi": 60,
      "hit": false,
      "t": 157869.16031250003,
      "d": 465.90862500001094,
      "v": 74
    },
    {
      "midi": 64,
      "hit": false,
      "t": 157886.20574999967,
      "d": 68.18174999998882,
      "v": 45
    },
    {
      "midi": 69,
      "hit": false,
      "t": 157886.20574999967,
      "d": 85.22718749998603,
      "v": 36
    },
    {
      "midi": 60,
      "hit": false,
      "t": 157886.20574999967,
      "d": 90.9089999999851,
      "v": 31
    },
    {
      "midi": 69,
      "hit": false,
      "t": 158158.93274999966,
      "d": 545.4539999999979,
      "v": 45
    },
    {
      "midi": 64,
      "hit": false,
      "t": 158158.93274999966,
      "d": 568.1812499999942,
      "v": 67
    },
    {
      "midi": 60,
      "hit": false,
      "t": 158164.61456249966,
      "d": 539.7721874999988,
      "v": 67
    },
    {
      "midi": 60,
      "hit": false,
      "t": 158420.29612500002,
      "d": 176.13618750000023,
      "v": 78
    },
    {
      "midi": 60,
      "hit": false,
      "t": 158670.295875,
      "d": 170.45437500000116,
      "v": 76
    },
    {
      "midi": 60,
      "hit": false,
      "t": 158960.06831250002,
      "d": 590.9084999999905,
      "v": 93
    },
    {
      "midi": 69,
      "hit": false,
      "t": 158977.11374999964,
      "d": 267.04518750001444,
      "v": 31
    },
    {
      "midi": 64,
      "hit": false,
      "t": 158977.11374999964,
      "d": 289.7724375000107,
      "v": 18
    },
    {
      "midi": 60,
      "hit": false,
      "t": 158977.11374999964,
      "d": 295.4542500000098,
      "v": 27
    },
    {
      "midi": 64,
      "hit": false,
      "t": 159522.56774999964,
      "d": 289.7724375000107,
      "v": 54
    },
    {
      "midi": 69,
      "hit": false,
      "t": 159522.56774999964,
      "d": 295.4542500000098,
      "v": 40
    },
    {
      "midi": 60,
      "hit": false,
      "t": 159528.24956249964,
      "d": 289.7724375000107,
      "v": 54
    },
    {
      "midi": 60,
      "hit": false,
      "t": 160045.29450000002,
      "d": 79.54537499998696,
      "v": 73
    },
    {
      "midi": 62,
      "hit": false,
      "t": 160068.02174999964,
      "d": 68.18174999998882,
      "v": 18
    },
    {
      "midi": 64,
      "hit": false,
      "t": 160068.02174999964,
      "d": 227.27249999999185,
      "v": 67
    },
    {
      "midi": 60,
      "hit": false,
      "t": 160073.70356249964,
      "d": 221.59068749999278,
      "v": 54
    },
    {
      "midi": 69,
      "hit": false,
      "t": 160073.70356249964,
      "d": 244.31793749998906,
      "v": 63
    },
    {
      "midi": 60,
      "hit": false,
      "t": 160323.7033125,
      "d": 249.99974999998813,
      "v": 93
    },
    {
      "midi": 69,
      "hit": false,
      "t": 160340.74874999962,
      "d": 363.6359999999986,
      "v": 36
    },
    {
      "midi": 64,
      "hit": false,
      "t": 160340.74874999962,
      "d": 380.6814374999958,
      "v": 63
    },
    {
      "midi": 60,
      "hit": false,
      "t": 160346.43056249962,
      "d": 357.95418749999953,
      "v": 31
    },
    {
      "midi": 62,
      "hit": false,
      "t": 160624.83937499998,
      "d": 119.31806250000955,
      "v": 59
    },
    {
      "midi": 60,
      "hit": false,
      "t": 160880.5209375,
      "d": 119.31806250000955,
      "v": 80
    },
    {
      "midi": 60,
      "hit": false,
      "t": 160886.20274999962,
      "d": 357.95418749999953,
      "v": 67
    },
    {
      "midi": 69,
      "hit": false,
      "t": 160886.20274999962,
      "d": 380.6814374999958,
      "v": 54
    },
    {
      "midi": 64,
      "hit": false,
      "t": 160886.20274999962,
      "d": 409.09049999999115,
      "v": 67
    },
    {
      "midi": 67,
      "hit": false,
      "t": 161193.020625,
      "d": 488.6358750000072,
      "v": 93
    },
    {
      "midi": 59,
      "hit": false,
      "t": 161431.65674999962,
      "d": 539.7721874999988,
      "v": 67
    },
    {
      "midi": 67,
      "hit": false,
      "t": 161431.65674999962,
      "d": 545.4539999999979,
      "v": 63
    },
    {
      "midi": 64,
      "hit": false,
      "t": 161437.33856249962,
      "d": 539.7721874999988,
      "v": 67
    },
    {
      "midi": 64,
      "hit": false,
      "t": 161732.7928125,
      "d": 1443.1803749999963,
      "v": 102
    },
    {
      "midi": 67,
      "hit": false,
      "t": 162249.83774999963,
      "d": 56.81812499999069,
      "v": 40
    },
    {
      "midi": 64,
      "hit": false,
      "t": 162249.83774999963,
      "d": 62.499937499989755,
      "v": 63
    },
    {
      "midi": 59,
      "hit": false,
      "t": 162255.51956249963,
      "d": 56.81812499999069,
      "v": 40
    },
    {
      "midi": 59,
      "hit": false,
      "t": 162522.5647499996,
      "d": 522.7267500000016,
      "v": 67
    },
    {
      "midi": 64,
      "hit": false,
      "t": 162522.5647499996,
      "d": 522.7267500000016,
      "v": 67
    },
    {
      "midi": 67,
      "hit": false,
      "t": 162522.5647499996,
      "d": 522.7267500000016,
      "v": 67
    },
    {
      "midi": 59,
      "hit": false,
      "t": 163340.74574999962,
      "d": 244.31793749998906,
      "v": 54
    },
    {
      "midi": 67,
      "hit": false,
      "t": 163340.74574999962,
      "d": 261.36337499998626,
      "v": 45
    },
    {
      "midi": 64,
      "hit": false,
      "t": 163340.74574999962,
      "d": 267.04518749998533,
      "v": 67
    },
    {
      "midi": 59,
      "hit": false,
      "t": 163886.19974999962,
      "d": 335.22693750000326,
      "v": 54
    },
    {
      "midi": 64,
      "hit": false,
      "t": 163886.19974999962,
      "d": 380.6814374999958,
      "v": 67
    },
    {
      "midi": 67,
      "hit": false,
      "t": 163886.19974999962,
      "d": 409.09049999999115,
      "v": 63
    },
    {
      "midi": 59,
      "hit": false,
      "t": 164431.65374999962,
      "d": 204.54524999999558,
      "v": 63
    },
    {
      "midi": 67,
      "hit": false,
      "t": 164431.65374999962,
      "d": 204.54524999999558,
      "v": 67
    },
    {
      "midi": 64,
      "hit": false,
      "t": 164437.33556249962,
      "d": 198.8634374999965,
      "v": 67
    },
    {
      "midi": 59,
      "hit": false,
      "t": 164704.3807499996,
      "d": 289.7724375000107,
      "v": 27
    },
    {
      "midi": 64,
      "hit": false,
      "t": 164704.3807499996,
      "d": 312.499687500007,
      "v": 36
    },
    {
      "midi": 67,
      "hit": false,
      "t": 164704.3807499996,
      "d": 318.18150000000605,
      "v": 40
    },
    {
      "midi": 59,
      "hit": false,
      "t": 165249.8347499996,
      "d": 244.31793749998906,
      "v": 67
    },
    {
      "midi": 67,
      "hit": false,
      "t": 165249.8347499996,
      "d": 352.27237499997136,
      "v": 67
    },
    {
      "midi": 64,
      "hit": false,
      "t": 165255.5165624996,
      "d": 284.09062499998254,
      "v": 67
    },
    {
      "midi": 62,
      "hit": false,
      "t": 165795.28874999957,
      "d": 471.59043750001,
      "v": 45
    },
    {
      "midi": 65,
      "hit": false,
      "t": 165795.28874999957,
      "d": 499.99950000000536,
      "v": 67
    },
    {
      "midi": 69,
      "hit": false,
      "t": 165795.28874999957,
      "d": 499.99950000000536,
      "v": 63
    },
    {
      "midi": 60,
      "hit": false,
      "t": 165823.6978125,
      "d": 204.54524999999558,
      "v": 102
    },
    {
      "midi": 60,
      "hit": false,
      "t": 166079.379375,
      "d": 159.09075000000303,
      "v": 71
    },
    {
      "midi": 60,
      "hit": false,
      "t": 166323.69731249998,
      "d": 107.95443750001141,
      "v": 95
    },
    {
      "midi": 62,
      "hit": false,
      "t": 166613.46974999958,
      "d": 68.18174999998882,
      "v": 45
    },
    {
      "midi": 65,
      "hit": false,
      "t": 166613.46974999958,
      "d": 68.18174999998882,
      "v": 67
    },
    {
      "midi": 69,
      "hit": false,
      "t": 166613.46974999958,
      "d": 68.18174999998882,
      "v": 67
    },
    {
      "midi": 60,
      "hit": false,
      "t": 166630.5151875,
      "d": 448.86318750001374,
      "v": 83
    },
    {
      "midi": 65,
      "hit": false,
      "t": 166886.19674999957,
      "d": 539.7721874999988,
      "v": 67
    },
    {
      "midi": 62,
      "hit": false,
      "t": 166886.19674999957,
      "d": 545.4539999999979,
      "v": 45
    },
    {
      "midi": 69,
      "hit": false,
      "t": 166886.19674999957,
      "d": 568.1812499999942,
      "v": 67
    },
    {
      "midi": 60,
      "hit": false,
      "t": 167141.8783125,
      "d": 238.63612499999,
      "v": 82
    },
    {
      "midi": 60,
      "hit": false,
      "t": 167437.33256249997,
      "d": 124.99987500000861,
      "v": 71
    },
    {
      "midi": 62,
      "hit": false,
      "t": 167704.37774999955,
      "d": 249.99974999998813,
      "v": 31
    },
    {
      "midi": 71,
      "hit": false,
      "t": 167704.37774999955,
      "d": 289.7724374999816,
      "v": 45
    },
    {
      "midi": 67,
      "hit": false,
      "t": 167704.37774999955,
      "d": 301.13606249997974,
      "v": 67
    },
    {
      "midi": 43,
      "hit": false,
      "t": 167710.05956249998,
      "d": 335.22693750000326,
      "v": 64
    },
    {
      "midi": 67,
      "hit": false,
      "t": 167710.05956249998,
      "d": 335.22693750000326,
      "v": 64
    },
    {
      "midi": 62,
      "hit": false,
      "t": 168249.83174999952,
      "d": 272.7270000000135,
      "v": 40
    },
    {
      "midi": 67,
      "hit": false,
      "t": 168255.51356249952,
      "d": 267.04518750001444,
      "v": 67
    },
    {
      "midi": 71,
      "hit": false,
      "t": 168255.51356249952,
      "d": 267.04518750001444,
      "v": 67
    },
    {
      "midi": 43,
      "hit": false,
      "t": 168255.51356249998,
      "d": 153.40893750000396,
      "v": 64
    },
    {
      "midi": 67,
      "hit": false,
      "t": 168255.51356249998,
      "d": 153.40893750000396,
      "v": 64
    },
    {
      "midi": 43,
      "hit": false,
      "t": 168533.922375,
      "d": 130.68168750000768,
      "v": 64
    },
    {
      "midi": 67,
      "hit": false,
      "t": 168533.922375,
      "d": 130.68168750000768,
      "v": 64
    },
    {
      "midi": 62,
      "hit": false,
      "t": 168795.28574999954,
      "d": 198.8634374999965,
      "v": 54
    },
    {
      "midi": 71,
      "hit": false,
      "t": 168795.28574999954,
      "d": 221.59068749999278,
      "v": 67
    },
    {
      "midi": 67,
      "hit": false,
      "t": 168795.28574999954,
      "d": 227.27249999999185,
      "v": 67
    },
    {
      "midi": 65,
      "hit": false,
      "t": 168800.9675625,
      "d": 448.86318750001374,
      "v": 93
    },
    {
      "midi": 71,
      "hit": false,
      "t": 169068.01274999953,
      "d": 289.7724375000107,
      "v": 45
    },
    {
      "midi": 62,
      "hit": false,
      "t": 169068.01274999953,
      "d": 295.4542500000098,
      "v": 22
    },
    {
      "midi": 67,
      "hit": false,
      "t": 169073.69456249953,
      "d": 289.7724375000107,
      "v": 54
    },
    {
      "midi": 64,
      "hit": false,
      "t": 169340.73975000004,
      "d": 113.63625000001048,
      "v": 86
    },
    {
      "midi": 62,
      "hit": false,
      "t": 169602.10312500005,
      "d": 301.13606250000885,
      "v": 88
    },
    {
      "midi": 62,
      "hit": false,
      "t": 169613.46674999953,
      "d": 267.04518750001444,
      "v": 31
    },
    {
      "midi": 67,
      "hit": false,
      "t": 169613.46674999953,
      "d": 312.499687500007,
      "v": 67
    },
    {
      "midi": 71,
      "hit": false,
      "t": 169613.46674999953,
      "d": 318.18150000000605,
      "v": 67
    },
    {
      "midi": 60,
      "hit": false,
      "t": 169908.92100000006,
      "d": 801.1355625000142,
      "v": 56
    },
    {
      "midi": 64,
      "hit": false,
      "t": 170158.92074999952,
      "d": 522.7267500000016,
      "v": 63
    },
    {
      "midi": 72,
      "hit": false,
      "t": 170158.92074999952,
      "d": 522.7267500000016,
      "v": 67
    },
    {
      "midi": 67,
      "hit": false,
      "t": 170164.60256249952,
      "d": 539.7721874999988,
      "v": 63
    },
    {
      "midi": 64,
      "hit": false,
      "t": 170977.10174999954,
      "d": 68.18174999998882,
      "v": 63
    },
    {
      "midi": 67,
      "hit": false,
      "t": 170977.10174999954,
      "d": 73.86356249998789,
      "v": 67
    },
    {
      "midi": 72,
      "hit": false,
      "t": 170977.10174999954,
      "d": 79.54537499998696,
      "v": 45
    },
    {
      "midi": 72,
      "hit": false,
      "t": 171249.82874999952,
      "d": 607.9539374999877,
      "v": 67
    },
    {
      "midi": 64,
      "hit": false,
      "t": 171249.82874999952,
      "d": 613.6357499999867,
      "v": 67
    },
    {
      "midi": 67,
      "hit": false,
      "t": 171255.51056249952,
      "d": 630.6811874999839,
      "v": 67
    },
    {
      "midi": 62,
      "hit": false,
      "t": 172068.0097499995,
      "d": 244.31793749998906,
      "v": 67
    },
    {
      "midi": 67,
      "hit": false,
      "t": 172073.6915624995,
      "d": 238.63612499999,
      "v": 67
    },
    {
      "midi": 71,
      "hit": false,
      "t": 172073.6915624995,
      "d": 244.31793749998906,
      "v": 67
    },
    {
      "midi": 71,
      "hit": false,
      "t": 172613.4637499995,
      "d": 267.04518750001444,
      "v": 45
    },
    {
      "midi": 62,
      "hit": false,
      "t": 172613.4637499995,
      "d": 272.7270000000135,
      "v": 67
    },
    {
      "midi": 67,
      "hit": false,
      "t": 172613.4637499995,
      "d": 272.7270000000135,
      "v": 67
    },
    {
      "midi": 67,
      "hit": false,
      "t": 173158.91774999953,
      "d": 198.8634374999965,
      "v": 67
    },
    {
      "midi": 62,
      "hit": false,
      "t": 173158.91774999953,
      "d": 204.54524999999558,
      "v": 67
    },
    {
      "midi": 71,
      "hit": false,
      "t": 173164.59956249953,
      "d": 244.31793749998906,
      "v": 63
    },
    {
      "midi": 67,
      "hit": false,
      "t": 173431.6447499995,
      "d": 289.7724375000107,
      "v": 67
    },
    {
      "midi": 71,
      "hit": false,
      "t": 173431.6447499995,
      "d": 295.4542500000098,
      "v": 54
    },
    {
      "midi": 62,
      "hit": false,
      "t": 173437.3265624995,
      "d": 289.7724375000107,
      "v": 40
    },
    {
      "midi": 72,
      "hit": false,
      "t": 173516.87193750008,
      "d": 397.726874999993,
      "v": 95
    },
    {
      "midi": 71,
      "hit": false,
      "t": 173977.0987499995,
      "d": 448.86318750001374,
      "v": 67
    },
    {
      "midi": 62,
      "hit": false,
      "t": 173977.0987499995,
      "d": 454.5450000000128,
      "v": 67
    },
    {
      "midi": 67,
      "hit": false,
      "t": 173977.0987499995,
      "d": 454.5450000000128,
      "v": 67
    },
    {
      "midi": 74,
      "hit": false,
      "t": 174011.1896250001,
      "d": 369.3178124999977,
      "v": 106
    },
    {
      "midi": 76,
      "hit": false,
      "t": 174533.9163750001,
      "d": 1142.0443124999874,
      "v": 98
    },
    {
      "midi": 77,
      "hit": false,
      "t": 175846.41506250008,
      "d": 215.9088749999937,
      "v": 98
    },
    {
      "midi": 76,
      "hit": false,
      "t": 176153.23293750008,
      "d": 164.7725625000021,
      "v": 95
    },
    {
      "midi": 74,
      "hit": false,
      "t": 176425.9599375001,
      "d": 1363.6350000000093,
      "v": 110
    },
    {
      "midi": 72,
      "hit": false,
      "t": 178050.9583125001,
      "d": 278.4088125000126,
      "v": 95
    },
    {
      "midi": 71,
      "hit": false,
      "t": 178352.0943750001,
      "d": 210.22706249999464,
      "v": 95
    },
    {
      "midi": 69,
      "hit": false,
      "t": 178641.86681250008,
      "d": 499.99950000000536,
      "v": 90
    },
    {
      "midi": 74,
      "hit": false,
      "t": 179175.95718750008,
      "d": 124.99987500000861,
      "v": 90
    },
    {
      "midi": 74,
      "hit": false,
      "t": 179465.7296250001,
      "d": 124.99987500000861,
      "v": 88
    },
    {
      "midi": 74,
      "hit": false,
      "t": 179710.0475625001,
      "d": 1045.4535000000033,
      "v": 119
    },
    {
      "midi": 67,
      "hit": false,
      "t": 183266.8621875001,
      "d": 215.9088749999937,
      "v": 88
    },
    {
      "midi": 74,
      "hit": false,
      "t": 183533.9073750001,
      "d": 124.99987500000861,
      "v": 95
    },
    {
      "midi": 74,
      "hit": false,
      "t": 183789.5889375001,
      "d": 96.59081250001327,
      "v": 78
    },
    {
      "midi": 74,
      "hit": false,
      "t": 184067.99775000013,
      "d": 437.4995624999865,
      "v": 110
    },
    {
      "midi": 76,
      "hit": false,
      "t": 184630.49718750012,
      "d": 357.95418749999953,
      "v": 88
    },
    {
      "midi": 77,
      "hit": false,
      "t": 185181.63300000012,
      "d": 477.2722500000091,
      "v": 95
    },
    {
      "midi": 79,
      "hit": false,
      "t": 185715.72337500012,
      "d": 323.8633125000051,
      "v": 71
    },
    {
      "midi": 76,
      "hit": false,
      "t": 186255.49556250012,
      "d": 465.90862500001094,
      "v": 102
    },
    {
      "midi": 74,
      "hit": false,
      "t": 186761.17687500012,
      "d": 545.4539999999979,
      "v": 86
    },
    {
      "midi": 67,
      "hit": false,
      "t": 187579.35787500013,
      "d": 272.7270000000135,
      "v": 93
    },
    {
      "midi": 76,
      "hit": false,
      "t": 187863.44850000014,
      "d": 159.09075000000303,
      "v": 82
    },
    {
      "midi": 76,
      "hit": false,
      "t": 188147.53912500016,
      "d": 130.68168750000768,
      "v": 93
    },
    {
      "midi": 76,
      "hit": false,
      "t": 188408.90250000017,
      "d": 1107.953437499993,
      "v": 106
    },
    {
      "midi": 67,
      "hit": false,
      "t": 190920.26362500017,
      "d": 90.9090000000142,
      "v": 78
    },
    {
      "midi": 72,
      "hit": false,
      "t": 191033.89987500018,
      "d": 340.9087500000023,
      "v": 98
    },
    {
      "midi": 74,
      "hit": false,
      "t": 191420.26312500017,
      "d": 477.2722500000091,
      "v": 90
    },
    {
      "midi": 76,
      "hit": false,
      "t": 191960.03531250017,
      "d": 1232.9533125000016,
      "v": 98
    },
    {
      "midi": 77,
      "hit": false,
      "t": 193335.03393750018,
      "d": 227.27249999999185,
      "v": 76
    },
    {
      "midi": 76,
      "hit": false,
      "t": 193607.76093750016,
      "d": 204.54524999999558,
      "v": 86
    },
    {
      "midi": 74,
      "hit": false,
      "t": 193880.48793750015,
      "d": 1539.7711875000095,
      "v": 106
    },
    {
      "midi": 72,
      "hit": false,
      "t": 195494.12268750014,
      "d": 272.7270000000135,
      "v": 93
    },
    {
      "midi": 71,
      "hit": false,
      "t": 195783.89512500016,
      "d": 227.27249999999185,
      "v": 74
    },
    {
      "midi": 69,
      "hit": false,
      "t": 196050.94031250014,
      "d": 494.3176875000063,
      "v": 86
    },
    {
      "midi": 74,
      "hit": false,
      "t": 196590.71250000014,
      "d": 193.18162499999744,
      "v": 82
    },
    {
      "midi": 74,
      "hit": false,
      "t": 196863.43950000012,
      "d": 193.18162499999744,
      "v": 82
    },
    {
      "midi": 74,
      "hit": false,
      "t": 197147.53012500014,
      "d": 1073.8625624999986,
      "v": 86
    },
    {
      "midi": 67,
      "hit": false,
      "t": 200727.07200000013,
      "d": 221.59068749999278,
      "v": 90
    },
    {
      "midi": 74,
      "hit": false,
      "t": 200988.43537500012,
      "d": 124.99987500000861,
      "v": 88
    },
    {
      "midi": 74,
      "hit": false,
      "t": 201238.43512500013,
      "d": 113.63625000001048,
      "v": 88
    },
    {
      "midi": 74,
      "hit": false,
      "t": 201522.52575000015,
      "d": 517.0449375000026,
      "v": 102
    },
    {
      "midi": 76,
      "hit": false,
      "t": 202102.07062500014,
      "d": 392.04506249999395,
      "v": 93
    },
    {
      "midi": 77,
      "hit": false,
      "t": 202636.16100000014,
      "d": 448.86318750001374,
      "v": 98
    },
    {
      "midi": 79,
      "hit": false,
      "t": 203164.56956250014,
      "d": 386.3632499999949,
      "v": 88
    },
    {
      "midi": 76,
      "hit": false,
      "t": 203710.02356250014,
      "d": 488.6358750000072,
      "v": 95
    },
    {
      "midi": 74,
      "hit": false,
      "t": 204238.43212500014,
      "d": 647.7266250000102,
      "v": 83
    },
    {
      "midi": 67,
      "hit": false,
      "t": 205062.29493750015,
      "d": 244.31793749998906,
      "v": 83
    },
    {
      "midi": 76,
      "hit": false,
      "t": 205323.65831250013,
      "d": 153.40893750000396,
      "v": 102
    },
    {
      "midi": 76,
      "hit": false,
      "t": 205590.70350000015,
      "d": 147.7271250000049,
      "v": 90
    },
    {
      "midi": 76,
      "hit": false,
      "t": 205846.38506250017,
      "d": 528.4085625000007,
      "v": 95
    },
    {
      "midi": 77,
      "hit": false,
      "t": 206460.02081250015,
      "d": 431.8177499999874,
      "v": 70
    },
    {
      "midi": 81,
      "hit": false,
      "t": 206982.74756250015,
      "d": 499.99950000000536,
      "v": 106
    },
    {
      "midi": 79,
      "hit": false,
      "t": 207550.92881250015,
      "d": 392.04506249999395,
      "v": 95
    },
    {
      "midi": 77,
      "hit": false,
      "t": 208073.65556250015,
      "d": 420.4541249999893,
      "v": 83
    },
    {
      "midi": 76,
      "hit": false,
      "t": 208607.74593750015,
      "d": 596.5903124999895,
      "v": 80
    },
    {
      "midi": 69,
      "hit": false,
      "t": 209414.56331250013,
      "d": 249.99974999998813,
      "v": 80
    },
    {
      "midi": 74,
      "hit": false,
      "t": 209710.0175625001,
      "d": 153.40893750000396,
      "v": 64
    },
    {
      "midi": 74,
      "hit": false,
      "t": 209971.38093750013,
      "d": 147.7271250000049,
      "v": 90
    },
    {
      "midi": 74,
      "hit": false,
      "t": 210244.10793750014,
      "d": 494.3176875000063,
      "v": 98
    },
    {
      "midi": 76,
      "hit": false,
      "t": 210766.83468750014,
      "d": 272.7270000000135,
      "v": 73
    },
    {
      "midi": 74,
      "hit": false,
      "t": 211085.01618750015,
      "d": 193.18162499999744,
      "v": 73
    },
    {
      "midi": 77,
      "hit": false,
      "t": 211352.06137500014,
      "d": 1937.4980625000026,
      "v": 95
    },
    {
      "midi": 72,
      "hit": false,
      "t": 213778.19531250015,
      "d": 982.9535625000135,
      "v": 106
    },
    {
      "midi": 74,
      "hit": false,
      "t": 214886.14875000017,
      "d": 954.5444999999891,
      "v": 95
    },
    {
      "midi": 76,
      "hit": false,
      "t": 215971.37493750016,
      "d": 1301.1350624999905,
      "v": 93
    },
    {
      "midi": 77,
      "hit": false,
      "t": 217352.05537500014,
      "d": 221.59068749999278,
      "v": 82
    },
    {
      "midi": 76,
      "hit": false,
      "t": 217624.78237500013,
      "d": 215.9088749999937,
      "v": 93
    },
    {
      "midi": 74,
      "hit": false,
      "t": 217886.1457500001,
      "d": 1568.180250000005,
      "v": 110
    },
    {
      "midi": 72,
      "hit": false,
      "t": 219499.7805000001,
      "d": 278.4088125000126,
      "v": 70
    },
    {
      "midi": 71,
      "hit": false,
      "t": 219800.91656250012,
      "d": 238.63612499999,
      "v": 65
    },
    {
      "midi": 69,
      "hit": false,
      "t": 220073.6435625001,
      "d": 505.6813125000044,
      "v": 78
    },
    {
      "midi": 74,
      "hit": false,
      "t": 220596.3703125001,
      "d": 210.22706249999464,
      "v": 74
    },
    {
      "midi": 74,
      "hit": false,
      "t": 220903.1881875001,
      "d": 159.09075000000303,
      "v": 64
    },
    {
      "midi": 74,
      "hit": false,
      "t": 221170.23337500013,
      "d": 1181.81700000001,
      "v": 95
    },
    {
      "midi": 67,
      "hit": false,
      "t": 224710.00256250013,
      "d": 204.54524999999558,
      "v": 80
    },
    {
      "midi": 74,
      "hit": false,
      "t": 224960.00231250012,
      "d": 119.31806250000955,
      "v": 95
    },
    {
      "midi": 74,
      "hit": false,
      "t": 225227.04750000013,
      "d": 119.31806250000955,
      "v": 88
    },
    {
      "midi": 74,
      "hit": false,
      "t": 225511.13812500014,
      "d": 443.18137499998556,
      "v": 98
    },
    {
      "midi": 76,
      "hit": false,
      "t": 226045.22850000014,
      "d": 346.5905625000014,
      "v": 83
    },
    {
      "midi": 77,
      "hit": false,
      "t": 226607.72793750014,
      "d": 460.2268125000119,
      "v": 80
    },
    {
      "midi": 79,
      "hit": false,
      "t": 227147.50012500014,
      "d": 426.13593749998836,
      "v": 88
    },
    {
      "midi": 76,
      "hit": false,
      "t": 227704.31775000013,
      "d": 471.59043750001,
      "v": 98
    },
    {
      "midi": 74,
      "hit": false,
      "t": 228238.40812500013,
      "d": 556.817624999996,
      "v": 82
    },
    {
      "midi": 67,
      "hit": false,
      "t": 229102.04362500014,
      "d": 176.13618750000023,
      "v": 78
    },
    {
      "midi": 76,
      "hit": false,
      "t": 229352.04337500012,
      "d": 136.36350000000675,
      "v": 98
    },
    {
      "midi": 76,
      "hit": false,
      "t": 229630.45218750014,
      "d": 130.68168750000768,
      "v": 95
    },
    {
      "midi": 76,
      "hit": false,
      "t": 229891.81556250015,
      "d": 937.4990624999919,
      "v": 106
    },
    {
      "midi": 72,
      "hit": false,
      "t": 232363.40400000016,
      "d": 431.8177499999874,
      "v": 95
    },
    {
      "midi": 74,
      "hit": false,
      "t": 232891.81256250016,
      "d": 437.4995624999865,
      "v": 98
    },
    {
      "midi": 76,
      "hit": false,
      "t": 233437.26656250015,
      "d": 1221.5896875000035,
      "v": 93
    },
    {
      "midi": 77,
      "hit": false,
      "t": 234772.49250000017,
      "d": 238.63612499999,
      "v": 56
    },
    {
      "midi": 76,
      "hit": false,
      "t": 235056.58312500015,
      "d": 210.22706249999464,
      "v": 90
    },
    {
      "midi": 74,
      "hit": false,
      "t": 235334.99193750013,
      "d": 1369.3168125000084,
      "v": 102
    },
    {
      "midi": 72,
      "hit": false,
      "t": 236959.99031250013,
      "d": 244.31793749998906,
      "v": 106
    },
    {
      "midi": 71,
      "hit": false,
      "t": 237227.03550000011,
      "d": 187.49981249999837,
      "v": 82
    },
    {
      "midi": 69,
      "hit": false,
      "t": 237522.48975000012,
      "d": 443.18137499998556,
      "v": 88
    },
    {
      "midi": 74,
      "hit": false,
      "t": 238090.67100000012,
      "d": 119.31806250000955,
      "v": 86
    },
    {
      "midi": 74,
      "hit": false,
      "t": 238357.71618750013,
      "d": 85.22718749998603,
      "v": 65
    },
    {
      "midi": 74,
      "hit": false,
      "t": 238630.44318750012,
      "d": 829.5446250000095,
      "v": 102
    },
    {
      "midi": 67,
      "hit": false,
      "t": 242141.80331250012,
      "d": 227.27249999999185,
      "v": 83
    },
    {
      "midi": 74,
      "hit": false,
      "t": 242420.2121250001,
      "d": 159.09075000000303,
      "v": 82
    },
    {
      "midi": 74,
      "hit": false,
      "t": 242692.93912500012,
      "d": 170.45437500000116,
      "v": 86
    },
    {
      "midi": 74,
      "hit": false,
      "t": 242959.98431250014,
      "d": 488.6358750000072,
      "v": 82
    },
    {
      "midi": 76,
      "hit": false,
      "t": 243511.12012500013,
      "d": 369.3178124999977,
      "v": 86
    },
    {
      "midi": 77,
      "hit": false,
      "t": 244039.52868750013,
      "d": 477.2722500000091,
      "v": 86
    },
    {
      "midi": 79,
      "hit": false,
      "t": 244607.70993750016,
      "d": 437.4995624999865,
      "v": 74
    },
    {
      "midi": 76,
      "hit": false,
      "t": 245130.43668750013,
      "d": 499.99950000000536,
      "v": 88
    },
    {
      "midi": 74,
      "hit": false,
      "t": 245670.20887500013,
      "d": 482.95406250000815,
      "v": 82
    },
    {
      "midi": 67,
      "hit": false,
      "t": 246539.52618750013,
      "d": 210.22706249999464,
      "v": 93
    },
    {
      "midi": 76,
      "hit": false,
      "t": 246795.20775000012,
      "d": 153.40893750000396,
      "v": 74
    },
    {
      "midi": 76,
      "hit": false,
      "t": 247067.93475000013,
      "d": 187.49981249999837,
      "v": 98
    },
    {
      "midi": 76,
      "hit": false,
      "t": 247369.07081250014,
      "d": 392.04506249999395,
      "v": 102
    },
    {
      "midi": 77,
      "hit": false,
      "t": 247891.79756250014,
      "d": 386.3632499999949,
      "v": 88
    },
    {
      "midi": 81,
      "hit": false,
      "t": 248420.20612500014,
      "d": 482.95406250000815,
      "v": 98
    },
    {
      "midi": 79,
      "hit": false,
      "t": 248999.75100000016,
      "d": 420.4541249999893,
      "v": 93
    },
    {
      "midi": 77,
      "hit": false,
      "t": 249539.52318750016,
      "d": 443.18137499998556,
      "v": 90
    },
    {
      "midi": 76,
      "hit": false,
      "t": 250062.24993750014,
      "d": 465.90862500001094,
      "v": 95
    },
    {
      "midi": 67,
      "hit": false,
      "t": 250897.47637500014,
      "d": 221.59068749999278,
      "v": 80
    },
    {
      "midi": 74,
      "hit": false,
      "t": 251175.88518750013,
      "d": 136.36350000000675,
      "v": 80
    },
    {
      "midi": 74,
      "hit": false,
      "t": 251431.56675000014,
      "d": 119.31806250000955,
      "v": 78
    },
    {
      "midi": 74,
      "hit": false,
      "t": 251721.33918750015,
      "d": 454.5450000000128,
      "v": 106
    },
    {
      "midi": 76,
      "hit": false,
      "t": 252227.02050000016,
      "d": 238.63612499999,
      "v": 90
    },
    {
      "midi": 74,
      "hit": false,
      "t": 252505.42931250014,
      "d": 198.8634374999965,
      "v": 86
    },
    {
      "midi": 77,
      "hit": false,
      "t": 252761.11087500013,
      "d": 2130.6796875,
      "v": 90
    },
    {
      "midi": 72,
      "hit": false,
      "t": 255232.69931250013,
      "d": 1068.1807499999995,
      "v": 110
    },
    {
      "midi": 71,
      "hit": false,
      "t": 256346.33456250012,
      "d": 982.9535625000135,
      "v": 95
    },
    {
      "midi": 72,
      "hit": false,
      "t": 257414.51531250012,
      "d": 1767.0436874999723,
      "v": 69
    }
  ]
}