{
  "jsonPath": "Jazz/Contemporary Vocal Jazz/Melody Gardot/you-dont-know-what.json",
  "path": "Jazz\\Contemporary Vocal Jazz\\Melody Gardot\\You Dont Know What .mid",
  "name": "You Dont Know What ",
  "difficulty": "Advanced",
  "bpm": 125,
  "notes": [
    {
      "midi": 60,
      "hit": false,
      "t": 1316,
      "d": 256,
      "v": 74
    },
    {
      "midi": 60,
      "hit": false,
      "t": 1648,
      "d": 192,
      "v": 66
    },
    {
      "midi": 60,
      "hit": false,
      "t": 1920,
      "d": 104,
      "v": 65
    },
    {
      "midi": 60,
      "hit": false,
      "t": 2184,
      "d": 68,
      "v": 53
    },
    {
      "midi": 67,
      "hit": false,
      "t": 2860,
      "d": 540,
      "v": 53
    },
    {
      "midi": 56,
      "hit": false,
      "t": 2868,
      "d": 232,
      "v": 66
    },
    {
      "midi": 60,
      "hit": false,
      "t": 2868,
      "d": 380,
      "v": 58
    },
    {
      "midi": 64,
      "hit": false,
      "t": 2868,
      "d": 464,
      "v": 48
    },
    {
      "midi": 29,
      "hit": false,
      "t": 2872,
      "d": 352,
      "v": 36
    },
    {
      "midi": 41,
      "hit": false,
      "t": 2876,
      "d": 428,
      "v": 34
    },
    {
      "midi": 41,
      "hit": false,
      "t": 3480,
      "d": 596,
      "v": 43
    },
    {
      "midi": 53,
      "hit": false,
      "t": 3680,
      "d": 72,
      "v": 32
    },
    {
      "midi": 56,
      "hit": false,
      "t": 3716,
      "d": 120,
      "v": 25
    },
    {
      "midi": 60,
      "hit": false,
      "t": 3784,
      "d": 108,
      "v": 35
    },
    {
      "midi": 48,
      "hit": false,
      "t": 3864,
      "d": 56,
      "v": 27
    },
    {
      "midi": 56,
      "hit": false,
      "t": 3928,
      "d": 140,
      "v": 33
    },
    {
      "midi": 60,
      "hit": false,
      "t": 3996,
      "d": 144,
      "v": 36
    },
    {
      "midi": 64,
      "hit": false,
      "t": 4052,
      "d": 120,
      "v": 24
    },
    {
      "midi": 67,
      "hit": false,
      "t": 4064,
      "d": 100,
      "v": 31
    },
    {
      "midi": 55,
      "hit": false,
      "t": 4136,
      "d": 480,
      "v": 68
    },
    {
      "midi": 56,
      "hit": false,
      "t": 4180,
      "d": 132,
      "v": 52
    },
    {
      "midi": 60,
      "hit": false,
      "t": 4240,
      "d": 144,
      "v": 47
    },
    {
      "midi": 64,
      "hit": false,
      "t": 4280,
      "d": 132,
      "v": 27
    },
    {
      "midi": 67,
      "hit": false,
      "t": 4320,
      "d": 92,
      "v": 17
    },
    {
      "midi": 56,
      "hit": false,
      "t": 4408,
      "d": 120,
      "v": 55
    },
    {
      "midi": 60,
      "hit": false,
      "t": 4476,
      "d": 148,
      "v": 43
    },
    {
      "midi": 64,
      "hit": false,
      "t": 4528,
      "d": 120,
      "v": 24
    },
    {
      "midi": 67,
      "hit": false,
      "t": 4548,
      "d": 96,
      "v": 20
    },
    {
      "midi": 56,
      "hit": false,
      "t": 4640,
      "d": 128,
      "v": 55
    },
    {
      "midi": 55,
      "hit": false,
      "t": 4688,
      "d": 264,
      "v": 57
    },
    {
      "midi": 60,
      "hit": false,
      "t": 4720,
      "d": 124,
      "v": 59
    },
    {
      "midi": 67,
      "hit": false,
      "t": 4760,
      "d": 112,
      "v": 33
    },
    {
      "midi": 64,
      "hit": false,
      "t": 4760,
      "d": 128,
      "v": 33
    },
    {
      "midi": 56,
      "hit": false,
      "t": 4884,
      "d": 124,
      "v": 47
    },
    {
      "midi": 60,
      "hit": false,
      "t": 4944,
      "d": 144,
      "v": 47
    },
    {
      "midi": 64,
      "hit": false,
      "t": 4984,
      "d": 132,
      "v": 33
    },
    {
      "midi": 67,
      "hit": false,
      "t": 5016,
      "d": 72,
      "v": 24
    },
    {
      "midi": 55,
      "hit": false,
      "t": 5064,
      "d": 176,
      "v": 49
    },
    {
      "midi": 56,
      "hit": false,
      "t": 5132,
      "d": 124,
      "v": 45
    },
    {
      "midi": 60,
      "hit": false,
      "t": 5184,
      "d": 160,
      "v": 44
    },
    {
      "midi": 64,
      "hit": false,
      "t": 5240,
      "d": 144,
      "v": 18
    },
    {
      "midi": 67,
      "hit": false,
      "t": 5252,
      "d": 96,
      "v": 34
    },
    {
      "midi": 55,
      "hit": false,
      "t": 5372,
      "d": 120,
      "v": 43
    },
    {
      "midi": 56,
      "hit": false,
      "t": 5400,
      "d": 116,
      "v": 40
    },
    {
      "midi": 60,
      "hit": false,
      "t": 5452,
      "d": 148,
      "v": 43
    },
    {
      "midi": 64,
      "hit": false,
      "t": 5500,
      "d": 132,
      "v": 22
    },
    {
      "midi": 67,
      "hit": false,
      "t": 5520,
      "d": 128,
      "v": 29
    },
    {
      "midi": 55,
      "hit": false,
      "t": 5644,
      "d": 316,
      "v": 43
    },
    {
      "midi": 56,
      "hit": false,
      "t": 5664,
      "d": 156,
      "v": 30
    },
    {
      "midi": 60,
      "hit": false,
      "t": 5740,
      "d": 124,
      "v": 30
    },
    {
      "midi": 67,
      "hit": false,
      "t": 5804,
      "d": 428,
      "v": 22
    },
    {
      "midi": 56,
      "hit": false,
      "t": 5936,
      "d": 176,
      "v": 25
    },
    {
      "midi": 55,
      "hit": false,
      "t": 6192,
      "d": 676,
      "v": 24
    },
    {
      "midi": 56,
      "hit": false,
      "t": 6408,
      "d": 360,
      "v": 42
    },
    {
      "midi": 65,
      "hit": false,
      "t": 6412,
      "d": 344,
      "v": 60
    },
    {
      "midi": 60,
      "hit": false,
      "t": 6432,
      "d": 312,
      "v": 43
    },
    {
      "midi": 41,
      "hit": false,
      "t": 6640,
      "d": 944,
      "v": 50
    },
    {
      "midi": 59,
      "hit": false,
      "t": 6984,
      "d": 956,
      "v": 70
    },
    {
      "midi": 64,
      "hit": false,
      "t": 6984,
      "d": 1032,
      "v": 74
    },
    {
      "midi": 68,
      "hit": false,
      "t": 6988,
      "d": 308,
      "v": 71
    },
    {
      "midi": 53,
      "hit": false,
      "t": 7000,
      "d": 328,
      "v": 55
    },
    {
      "midi": 55,
      "hit": false,
      "t": 7420,
      "d": 356,
      "v": 78
    },
    {
      "midi": 66,
      "hit": false,
      "t": 7440,
      "d": 344,
      "v": 30
    },
    {
      "midi": 56,
      "hit": false,
      "t": 7792,
      "d": 804,
      "v": 77
    },
    {
      "midi": 59,
      "hit": false,
      "t": 8036,
      "d": 164,
      "v": 47
    },
    {
      "midi": 64,
      "hit": false,
      "t": 8136,
      "d": 128,
      "v": 39
    },
    {
      "midi": 68,
      "hit": false,
      "t": 8228,
      "d": 72,
      "v": 32
    },
    {
      "midi": 59,
      "hit": false,
      "t": 8296,
      "d": 136,
      "v": 41
    },
    {
      "midi": 64,
      "hit": false,
      "t": 8364,
      "d": 148,
      "v": 32
    },
    {
      "midi": 68,
      "hit": false,
      "t": 8440,
      "d": 144,
      "v": 31
    },
    {
      "midi": 59,
      "hit": false,
      "t": 8488,
      "d": 236,
      "v": 73
    },
    {
      "midi": 64,
      "hit": false,
      "t": 8620,
      "d": 160,
      "v": 36
    },
    {
      "midi": 68,
      "hit": false,
      "t": 8656,
      "d": 156,
      "v": 36
    },
    {
      "midi": 53,
      "hit": false,
      "t": 8792,
      "d": 308,
      "v": 72
    },
    {
      "midi": 59,
      "hit": false,
      "t": 8796,
      "d": 152,
      "v": 51
    },
    {
      "midi": 64,
      "hit": false,
      "t": 8880,
      "d": 132,
      "v": 32
    },
    {
      "midi": 68,
      "hit": false,
      "t": 8896,
      "d": 132,
      "v": 37
    },
    {
      "midi": 59,
      "hit": false,
      "t": 9024,
      "d": 100,
      "v": 61
    },
    {
      "midi": 41,
      "hit": false,
      "t": 9032,
      "d": 144,
      "v": 51
    },
    {
      "midi": 68,
      "hit": false,
      "t": 9088,
      "d": 116,
      "v": 38
    },
    {
      "midi": 64,
      "hit": false,
      "t": 9096,
      "d": 120,
      "v": 35
    },
    {
      "midi": 59,
      "hit": false,
      "t": 9208,
      "d": 108,
      "v": 45
    },
    {
      "midi": 68,
      "hit": false,
      "t": 9292,
      "d": 120,
      "v": 26
    },
    {
      "midi": 64,
      "hit": false,
      "t": 9308,
      "d": 84,
      "v": 41
    },
    {
      "midi": 41,
      "hit": false,
      "t": 9312,
      "d": 632,
      "v": 44
    },
    {
      "midi": 59,
      "hit": false,
      "t": 9404,
      "d": 100,
      "v": 43
    },
    {
      "midi": 68,
      "hit": false,
      "t": 9464,
      "d": 116,
      "v": 23
    },
    {
      "midi": 64,
      "hit": false,
      "t": 9500,
      "d": 104,
      "v": 30
    },
    {
      "midi": 59,
      "hit": false,
      "t": 9592,
      "d": 120,
      "v": 24
    },
    {
      "midi": 29,
      "hit": false,
      "t": 9668,
      "d": 1112,
      "v": 34
    },
    {
      "midi": 68,
      "hit": false,
      "t": 9680,
      "d": 408,
      "v": 31
    },
    {
      "midi": 64,
      "hit": false,
      "t": 9720,
      "d": 60,
      "v": 20
    },
    {
      "midi": 59,
      "hit": false,
      "t": 9808,
      "d": 160,
      "v": 44
    },
    {
      "midi": 64,
      "hit": false,
      "t": 9908,
      "d": 96,
      "v": 15
    },
    {
      "midi": 59,
      "hit": false,
      "t": 10068,
      "d": 572,
      "v": 35
    },
    {
      "midi": 64,
      "hit": false,
      "t": 10104,
      "d": 468,
      "v": 33
    },
    {
      "midi": 68,
      "hit": false,
      "t": 10248,
      "d": 296,
      "v": 12
    },
    {
      "midi": 41,
      "hit": false,
      "t": 10248,
      "d": 632,
      "v": 40
    },
    {
      "midi": 67,
      "hit": false,
      "t": 11036,
      "d": 568,
      "v": 42
    },
    {
      "midi": 29,
      "hit": false,
      "t": 11768,
      "d": 176,
      "v": 31
    },
    {
      "midi": 41,
      "hit": false,
      "t": 11940,
      "d": 72,
      "v": 35
    },
    {
      "midi": 29,
      "hit": false,
      "t": 12052,
      "d": 124,
      "v": 32
    },
    {
      "midi": 41,
      "hit": false,
      "t": 12160,
      "d": 100,
      "v": 35
    },
    {
      "midi": 53,
      "hit": false,
      "t": 12176,
      "d": 144,
      "v": 64
    },
    {
      "midi": 65,
      "hit": false,
      "t": 12200,
      "d": 160,
      "v": 52
    },
    {
      "midi": 29,
      "hit": false,
      "t": 12296,
      "d": 160,
      "v": 38
    },
    {
      "midi": 41,
      "hit": false,
      "t": 12460,
      "d": 96,
      "v": 40
    },
    {
      "midi": 55,
      "hit": false,
      "t": 12488,
      "d": 120,
      "v": 66
    },
    {
      "midi": 67,
      "hit": false,
      "t": 12508,
      "d": 116,
      "v": 58
    },
    {
      "midi": 29,
      "hit": false,
      "t": 12572,
      "d": 164,
      "v": 34
    },
    {
      "midi": 41,
      "hit": false,
      "t": 12724,
      "d": 92,
      "v": 45
    },
    {
      "midi": 56,
      "hit": false,
      "t": 12740,
      "d": 84,
      "v": 56
    },
    {
      "midi": 68,
      "hit": false,
      "t": 12752,
      "d": 104,
      "v": 73
    },
    {
      "midi": 29,
      "hit": false,
      "t": 12832,
      "d": 144,
      "v": 39
    },
    {
      "midi": 58,
      "hit": false,
      "t": 12940,
      "d": 128,
      "v": 55
    },
    {
      "midi": 70,
      "hit": false,
      "t": 12948,
      "d": 108,
      "v": 65
    },
    {
      "midi": 41,
      "hit": false,
      "t": 12960,
      "d": 100,
      "v": 51
    },
    {
      "midi": 29,
      "hit": false,
      "t": 13088,
      "d": 168,
      "v": 40
    },
    {
      "midi": 60,
      "hit": false,
      "t": 13152,
      "d": 120,
      "v": 65
    },
    {
      "midi": 72,
      "hit": false,
      "t": 13156,
      "d": 100,
      "v": 42
    },
    {
      "midi": 74,
      "hit": false,
      "t": 13160,
      "d": 60,
      "v": 65
    },
    {
      "midi": 62,
      "hit": false,
      "t": 13180,
      "d": 28,
      "v": 28
    },
    {
      "midi": 41,
      "hit": false,
      "t": 13180,
      "d": 148,
      "v": 58
    },
    {
      "midi": 29,
      "hit": false,
      "t": 13344,
      "d": 264,
      "v": 44
    },
    {
      "midi": 70,
      "hit": false,
      "t": 13368,
      "d": 120,
      "v": 71
    },
    {
      "midi": 58,
      "hit": false,
      "t": 13376,
      "d": 120,
      "v": 70
    },
    {
      "midi": 41,
      "hit": false,
      "t": 13568,
      "d": 172,
      "v": 55
    },
    {
      "midi": 68,
      "hit": false,
      "t": 13584,
      "d": 108,
      "v": 53
    },
    {
      "midi": 56,
      "hit": false,
      "t": 13600,
      "d": 136,
      "v": 55
    },
    {
      "midi": 29,
      "hit": false,
      "t": 13824,
      "d": 108,
      "v": 30
    },
    {
      "midi": 67,
      "hit": false,
      "t": 13824,
      "d": 160,
      "v": 66
    },
    {
      "midi": 55,
      "hit": false,
      "t": 13840,
      "d": 172,
      "v": 63
    },
    {
      "midi": 41,
      "hit": false,
      "t": 13844,
      "d": 132,
      "v": 42
    },
    {
      "midi": 33,
      "hit": false,
      "t": 14144,
      "d": 1356,
      "v": 57
    },
    {
      "midi": 45,
      "hit": false,
      "t": 14156,
      "d": 520,
      "v": 44
    },
    {
      "midi": 65,
      "hit": false,
      "t": 14156,
      "d": 1012,
      "v": 56
    },
    {
      "midi": 60,
      "hit": false,
      "t": 14164,
      "d": 716,
      "v": 62
    },
    {
      "midi": 53,
      "hit": false,
      "t": 14168,
      "d": 328,
      "v": 46
    },
    {
      "midi": 55,
      "hit": false,
      "t": 14172,
      "d": 720,
      "v": 44
    },
    {
      "midi": 45,
      "hit": false,
      "t": 14764,
      "d": 276,
      "v": 48
    },
    {
      "midi": 63,
      "hit": false,
      "t": 15172,
      "d": 1724,
      "v": 50
    },
    {
      "midi": 55,
      "hit": false,
      "t": 15176,
      "d": 660,
      "v": 58
    },
    {
      "midi": 60,
      "hit": false,
      "t": 15192,
      "d": 1740,
      "v": 47
    },
    {
      "midi": 45,
      "hit": false,
      "t": 15196,
      "d": 1736,
      "v": 49
    },
    {
      "midi": 65,
      "hit": false,
      "t": 16948,
      "d": 660,
      "v": 57
    },
    {
      "midi": 79,
      "hit": false,
      "t": 18644,
      "d": 580,
      "v": 55
    },
    {
      "midi": 70,
      "hit": false,
      "t": 19280,
      "d": 220,
      "v": 55
    },
    {
      "midi": 80,
      "hit": false,
      "t": 19280,
      "d": 272,
      "v": 55
    },
    {
      "midi": 65,
      "hit": false,
      "t": 19300,
      "d": 432,
      "v": 38
    },
    {
      "midi": 82,
      "hit": false,
      "t": 19760,
      "d": 388,
      "v": 67
    },
    {
      "midi": 64,
      "hit": false,
      "t": 19760,
      "d": 612,
      "v": 37
    },
    {
      "midi": 73,
      "hit": false,
      "t": 19776,
      "d": 412,
      "v": 35
    },
    {
      "midi": 84,
      "hit": false,
      "t": 20320,
      "d": 204,
      "v": 63
    },
    {
      "midi": 74,
      "hit": false,
      "t": 20328,
      "d": 192,
      "v": 35
    },
    {
      "midi": 63,
      "hit": false,
      "t": 20336,
      "d": 280,
      "v": 45
    },
    {
      "midi": 62,
      "hit": false,
      "t": 20708,
      "d": 336,
      "v": 47
    },
    {
      "midi": 85,
      "hit": false,
      "t": 20728,
      "d": 224,
      "v": 68
    },
    {
      "midi": 76,
      "hit": false,
      "t": 20728,
      "d": 248,
      "v": 47
    },
    {
      "midi": 70,
      "hit": false,
      "t": 20800,
      "d": 432,
      "v": 11
    },
    {
      "midi": 61,
      "hit": false,
      "t": 21052,
      "d": 256,
      "v": 47
    },
    {
      "midi": 74,
      "hit": false,
      "t": 21060,
      "d": 108,
      "v": 47
    },
    {
      "midi": 84,
      "hit": false,
      "t": 21064,
      "d": 100,
      "v": 51
    },
    {
      "midi": 87,
      "hit": false,
      "t": 21452,
      "d": 968,
      "v": 62
    },
    {
      "midi": 76,
      "hit": false,
      "t": 21452,
      "d": 1328,
      "v": 46
    },
    {
      "midi": 70,
      "hit": false,
      "t": 21464,
      "d": 532,
      "v": 37
    },
    {
      "midi": 80,
      "hit": false,
      "t": 21472,
      "d": 1152,
      "v": 40
    },
    {
      "midi": 60,
      "hit": false,
      "t": 21496,
      "d": 536,
      "v": 35
    },
    {
      "midi": 85,
      "hit": false,
      "t": 22536,
      "d": 104,
      "v": 53
    },
    {
      "midi": 84,
      "hit": false,
      "t": 22876,
      "d": 476,
      "v": 53
    },
    {
      "midi": 53,
      "hit": false,
      "t": 22880,
      "d": 232,
      "v": 37
    },
    {
      "midi": 60,
      "hit": false,
      "t": 23144,
      "d": 1240,
      "v": 45
    },
    {
      "midi": 67,
      "hit": false,
      "t": 23424,
      "d": 484,
      "v": 31
    },
    {
      "midi": 72,
      "hit": false,
      "t": 23696,
      "d": 696,
      "v": 28
    },
    {
      "midi": 77,
      "hit": false,
      "t": 23936,
      "d": 428,
      "v": 36
    },
    {
      "midi": 84,
      "hit": false,
      "t": 24140,
      "d": 116,
      "v": 72
    },
    {
      "midi": 84,
      "hit": false,
      "t": 24340,
      "d": 344,
      "v": 62
    },
    {
      "midi": 52,
      "hit": false,
      "t": 24352,
      "d": 428,
      "v": 53
    },
    {
      "midi": 60,
      "hit": false,
      "t": 24536,
      "d": 296,
      "v": 52
    },
    {
      "midi": 72,
      "hit": false,
      "t": 24728,
      "d": 568,
      "v": 58
    },
    {
      "midi": 77,
      "hit": false,
      "t": 24912,
      "d": 376,
      "v": 58
    },
    {
      "midi": 84,
      "hit": false,
      "t": 25116,
      "d": 116,
      "v": 80
    },
    {
      "midi": 84,
      "hit": false,
      "t": 25324,
      "d": 136,
      "v": 61
    },
    {
      "midi": 85,
      "hit": false,
      "t": 25568,
      "d": 24,
      "v": 23
    },
    {
      "midi": 84,
      "hit": false,
      "t": 25580,
      "d": 272,
      "v": 42
    },
    {
      "midi": 78,
      "hit": false,
      "t": 25584,
      "d": 316,
      "v": 38
    },
    {
      "midi": 61,
      "hit": false,
      "t": 25588,
      "d": 256,
      "v": 31
    },
    {
      "midi": 51,
      "hit": false,
      "t": 25592,
      "d": 1856,
      "v": 33
    },
    {
      "midi": 58,
      "hit": false,
      "t": 25856,
      "d": 1524,
      "v": 37
    },
    {
      "midi": 61,
      "hit": false,
      "t": 26156,
      "d": 1232,
      "v": 35
    },
    {
      "midi": 66,
      "hit": false,
      "t": 26476,
      "d": 900,
      "v": 31
    },
    {
      "midi": 70,
      "hit": false,
      "t": 26808,
      "d": 548,
      "v": 31
    },
    {
      "midi": 77,
      "hit": false,
      "t": 27156,
      "d": 212,
      "v": 42
    },
    {
      "midi": 77,
      "hit": false,
      "t": 27620,
      "d": 1136,
      "v": 33
    },
    {
      "midi": 65,
      "hit": false,
      "t": 27628,
      "d": 1308,
      "v": 33
    },
    {
      "midi": 60,
      "hit": false,
      "t": 27640,
      "d": 136,
      "v": 30
    },
    {
      "midi": 50,
      "hit": false,
      "t": 27640,
      "d": 196,
      "v": 24
    },
    {
      "midi": 54,
      "hit": false,
      "t": 27664,
      "d": 160,
      "v": 21
    },
    {
      "midi": 26,
      "hit": false,
      "t": 28176,
      "d": 516,
      "v": 36
    },
    {
      "midi": 72,
      "hit": false,
      "t": 29312,
      "d": 440,
      "v": 53
    },
    {
      "midi": 70,
      "hit": false,
      "t": 30956,
      "d": 1000,
      "v": 50
    },
    {
      "midi": 67,
      "hit": false,
      "t": 30976,
      "d": 1364,
      "v": 53
    },
    {
      "midi": 63,
      "hit": false,
      "t": 30984,
      "d": 1464,
      "v": 45
    },
    {
      "midi": 58,
      "hit": false,
      "t": 31000,
      "d": 840,
      "v": 36
    },
    {
      "midi": 59,
      "hit": false,
      "t": 31004,
      "d": 892,
      "v": 47
    },
    {
      "midi": 70,
      "hit": false,
      "t": 32168,
      "d": 332,
      "v": 60
    },
    {
      "midi": 70,
      "hit": false,
      "t": 32716,
      "d": 728,
      "v": 53
    },
    {
      "midi": 66,
      "hit": false,
      "t": 32724,
      "d": 452,
      "v": 53
    },
    {
      "midi": 61,
      "hit": false,
      "t": 32724,
      "d": 464,
      "v": 42
    },
    {
      "midi": 55,
      "hit": false,
      "t": 32736,
      "d": 816,
      "v": 43
    },
    {
      "midi": 68,
      "hit": false,
      "t": 34244,
      "d": 188,
      "v": 49
    },
    {
      "midi": 53,
      "hit": false,
      "t": 34252,
      "d": 44,
      "v": 32
    },
    {
      "midi": 64,
      "hit": false,
      "t": 34252,
      "d": 132,
      "v": 44
    },
    {
      "midi": 59,
      "hit": false,
      "t": 34256,
      "d": 152,
      "v": 35
    },
    {
      "midi": 58,
      "hit": false,
      "t": 34656,
      "d": 1160,
      "v": 36
    },
    {
      "midi": 67,
      "hit": false,
      "t": 34660,
      "d": 1076,
      "v": 43
    },
    {
      "midi": 36,
      "hit": false,
      "t": 34664,
      "d": 1596,
      "v": 40
    },
    {
      "midi": 63,
      "hit": false,
      "t": 34676,
      "d": 1092,
      "v": 38
    },
    {
      "midi": 48,
      "hit": false,
      "t": 35688,
      "d": 532,
      "v": 24
    },
    {
      "midi": 49,
      "hit": false,
      "t": 36240,
      "d": 312,
      "v": 38
    },
    {
      "midi": 37,
      "hit": false,
      "t": 36256,
      "d": 424,
      "v": 35
    },
    {
      "midi": 39,
      "hit": false,
      "t": 36540,
      "d": 172,
      "v": 40
    },
    {
      "midi": 51,
      "hit": false,
      "t": 36540,
      "d": 188,
      "v": 55
    },
    {
      "midi": 52,
      "hit": false,
      "t": 36756,
      "d": 120,
      "v": 51
    },
    {
      "midi": 40,
      "hit": false,
      "t": 36756,
      "d": 152,
      "v": 40
    },
    {
      "midi": 54,
      "hit": false,
      "t": 36924,
      "d": 92,
      "v": 50
    },
    {
      "midi": 42,
      "hit": false,
      "t": 36924,
      "d": 288,
      "v": 40
    },
    {
      "midi": 43,
      "hit": false,
      "t": 37064,
      "d": 124,
      "v": 40
    },
    {
      "midi": 55,
      "hit": false,
      "t": 37064,
      "d": 128,
      "v": 47
    },
    {
      "midi": 57,
      "hit": false,
      "t": 37220,
      "d": 96,
      "v": 56
    },
    {
      "midi": 45,
      "hit": false,
      "t": 37220,
      "d": 100,
      "v": 40
    },
    {
      "midi": 58,
      "hit": false,
      "t": 37376,
      "d": 84,
      "v": 44
    },
    {
      "midi": 46,
      "hit": false,
      "t": 37376,
      "d": 116,
      "v": 40
    },
    {
      "midi": 60,
      "hit": false,
      "t": 37504,
      "d": 100,
      "v": 58
    },
    {
      "midi": 48,
      "hit": false,
      "t": 37544,
      "d": 100,
      "v": 40
    },
    {
      "midi": 61,
      "hit": false,
      "t": 37628,
      "d": 88,
      "v": 59
    },
    {
      "midi": 63,
      "hit": false,
      "t": 37752,
      "d": 68,
      "v": 59
    },
    {
      "midi": 64,
      "hit": false,
      "t": 37860,
      "d": 72,
      "v": 53
    },
    {
      "midi": 52,
      "hit": false,
      "t": 37860,
      "d": 148,
      "v": 40
    },
    {
      "midi": 66,
      "hit": false,
      "t": 37956,
      "d": 64,
      "v": 56
    },
    {
      "midi": 54,
      "hit": false,
      "t": 37956,
      "d": 168,
      "v": 40
    },
    {
      "midi": 67,
      "hit": false,
      "t": 38056,
      "d": 88,
      "v": 50
    },
    {
      "midi": 55,
      "hit": false,
      "t": 38152,
      "d": 40,
      "v": 40
    },
    {
      "midi": 69,
      "hit": false,
      "t": 38152,
      "d": 76,
      "v": 59
    },
    {
      "midi": 70,
      "hit": false,
      "t": 38236,
      "d": 56,
      "v": 67
    },
    {
      "midi": 58,
      "hit": false,
      "t": 38236,
      "d": 132,
      "v": 40
    },
    {
      "midi": 72,
      "hit": false,
      "t": 38348,
      "d": 52,
      "v": 40
    },
    {
      "midi": 73,
      "hit": false,
      "t": 38416,
      "d": 112,
      "v": 43
    },
    {
      "midi": 63,
      "hit": false,
      "t": 38540,
      "d": 40,
      "v": 40
    },
    {
      "midi": 75,
      "hit": false,
      "t": 38540,
      "d": 120,
      "v": 37
    },
    {
      "midi": 64,
      "hit": false,
      "t": 38664,
      "d": 960,
      "v": 45
    },
    {
      "midi": 76,
      "hit": false,
      "t": 38664,
      "d": 1096,
      "v": 69
    },
    {
      "midi": 72,
      "hit": false,
      "t": 39188,
      "d": 228,
      "v": 34
    },
    {
      "midi": 73,
      "hit": false,
      "t": 39392,
      "d": 220,
      "v": 57
    },
    {
      "midi": 61,
      "hit": false,
      "t": 39400,
      "d": 296,
      "v": 40
    },
    {
      "midi": 75,
      "hit": false,
      "t": 39612,
      "d": 176,
      "v": 54
    },
    {
      "midi": 76,
      "hit": false,
      "t": 39824,
      "d": 728,
      "v": 44
    },
    {
      "midi": 79,
      "hit": false,
      "t": 40048,
      "d": 516,
      "v": 50
    },
    {
      "midi": 61,
      "hit": false,
      "t": 40080,
      "d": 32,
      "v": 40
    },
    {
      "midi": 61,
      "hit": false,
      "t": 40296,
      "d": 104,
      "v": 40
    },
    {
      "midi": 66,
      "hit": false,
      "t": 40528,
      "d": 424,
      "v": 40
    },
    {
      "midi": 84,
      "hit": false,
      "t": 40536,
      "d": 140,
      "v": 49
    },
    {
      "midi": 70,
      "hit": false,
      "t": 40792,
      "d": 216,
      "v": 40
    },
    {
      "midi": 88,
      "hit": false,
      "t": 40800,
      "d": 188,
      "v": 61
    },
    {
      "midi": 73,
      "hit": false,
      "t": 41020,
      "d": 124,
      "v": 40
    },
    {
      "midi": 91,
      "hit": false,
      "t": 41028,
      "d": 256,
      "v": 70
    },
    {
      "midi": 79,
      "hit": false,
      "t": 41284,
      "d": 172,
      "v": 51
    },
    {
      "midi": 76,
      "hit": false,
      "t": 41296,
      "d": 232,
      "v": 40
    },
    {
      "midi": 84,
      "hit": false,
      "t": 41560,
      "d": 204,
      "v": 43
    },
    {
      "midi": 91,
      "hit": false,
      "t": 41784,
      "d": 64,
      "v": 54
    },
    {
      "midi": 82,
      "hit": false,
      "t": 41800,
      "d": 728,
      "v": 40
    },
    {
      "midi": 96,
      "hit": false,
      "t": 42016,
      "d": 72,
      "v": 40
    },
    {
      "midi": 95,
      "hit": false,
      "t": 42024,
      "d": 32,
      "v": 37
    },
    {
      "midi": 84,
      "hit": false,
      "t": 42028,
      "d": 192,
      "v": 40
    },
    {
      "midi": 99,
      "hit": false,
      "t": 42268,
      "d": 276,
      "v": 59
    },
    {
      "midi": 88,
      "hit": false,
      "t": 42276,
      "d": 184,
      "v": 31
    },
    {
      "midi": 91,
      "hit": false,
      "t": 42532,
      "d": 260,
      "v": 38
    },
    {
      "midi": 84,
      "hit": false,
      "t": 42548,
      "d": 148,
      "v": 30
    },
    {
      "midi": 94,
      "hit": false,
      "t": 42932,
      "d": 280,
      "v": 60
    },
    {
      "midi": 81,
      "hit": false,
      "t": 42964,
      "d": 216,
      "v": 43
    },
    {
      "midi": 87,
      "hit": false,
      "t": 43256,
      "d": 184,
      "v": 35
    },
    {
      "midi": 73,
      "hit": false,
      "t": 43356,
      "d": 76,
      "v": 21
    },
    {
      "midi": 76,
      "hit": false,
      "t": 43520,
      "d": 240,
      "v": 29
    },
    {
      "midi": 93,
      "hit": false,
      "t": 43532,
      "d": 112,
      "v": 69
    },
    {
      "midi": 82,
      "hit": false,
      "t": 43800,
      "d": 288,
      "v": 37
    },
    {
      "midi": 73,
      "hit": false,
      "t": 43812,
      "d": 276,
      "v": 34
    },
    {
      "midi": 91,
      "hit": false,
      "t": 44076,
      "d": 64,
      "v": 48
    },
    {
      "midi": 67,
      "hit": false,
      "t": 44088,
      "d": 264,
      "v": 26
    },
    {
      "midi": 70,
      "hit": false,
      "t": 44384,
      "d": 952,
      "v": 36
    },
    {
      "midi": 79,
      "hit": false,
      "t": 44396,
      "d": 1204,
      "v": 32
    },
    {
      "midi": 85,
      "hit": false,
      "t": 45968,
      "d": 588,
      "v": 61
    },
    {
      "midi": 63,
      "hit": false,
      "t": 45972,
      "d": 872,
      "v": 40
    },
    {
      "midi": 81,
      "hit": false,
      "t": 46268,
      "d": 276,
      "v": 59
    },
    {
      "midi": 67,
      "hit": false,
      "t": 46276,
      "d": 316,
      "v": 29
    },
    {
      "midi": 76,
      "hit": false,
      "t": 46280,
      "d": 200,
      "v": 19
    },
    {
      "midi": 76,
      "hit": false,
      "t": 46560,
      "d": 212,
      "v": 46
    },
    {
      "midi": 70,
      "hit": false,
      "t": 46568,
      "d": 192,
      "v": 38
    },
    {
      "midi": 76,
      "hit": false,
      "t": 46868,
      "d": 408,
      "v": 40
    },
    {
      "midi": 73,
      "hit": false,
      "t": 46872,
      "d": 428,
      "v": 27
    },
    {
      "midi": 67,
      "hit": false,
      "t": 46876,
      "d": 196,
      "v": 28
    },
    {
      "midi": 79,
      "hit": false,
      "t": 47284,
      "d": 1544,
      "v": 55
    },
    {
      "midi": 58,
      "hit": false,
      "t": 47312,
      "d": 1636,
      "v": 23
    },
    {
      "midi": 76,
      "hit": false,
      "t": 47680,
      "d": 1168,
      "v": 44
    },
    {
      "midi": 63,
      "hit": false,
      "t": 47704,
      "d": 1204,
      "v": 26
    },
    {
      "midi": 72,
      "hit": false,
      "t": 47720,
      "d": 48,
      "v": 20
    },
    {
      "midi": 72,
      "hit": false,
      "t": 48136,
      "d": 752,
      "v": 28
    },
    {
      "midi": 67,
      "hit": false,
      "t": 48136,
      "d": 792,
      "v": 30
    },
    {
      "midi": 66,
      "hit": false,
      "t": 48160,
      "d": 648,
      "v": 25
    },
    {
      "midi": 48,
      "hit": false,
      "t": 49544,
      "d": 112,
      "v": 47
    },
    {
      "midi": 48,
      "hit": false,
      "t": 49728,
      "d": 116,
      "v": 50
    },
    {
      "midi": 48,
      "hit": false,
      "t": 49920,
      "d": 96,
      "v": 71
    },
    {
      "midi": 48,
      "hit": false,
      "t": 50072,
      "d": 100,
      "v": 71
    },
    {
      "midi": 48,
      "hit": false,
      "t": 50232,
      "d": 88,
      "v": 80
    },
    {
      "midi": 48,
      "hit": false,
      "t": 50376,
      "d": 60,
      "v": 72
    },
    {
      "midi": 48,
      "hit": false,
      "t": 50504,
      "d": 88,
      "v": 68
    },
    {
      "midi": 48,
      "hit": false,
      "t": 50656,
      "d": 68,
      "v": 66
    },
    {
      "midi": 48,
      "hit": false,
      "t": 50800,
      "d": 116,
      "v": 60
    },
    {
      "midi": 48,
      "hit": false,
      "t": 50988,
      "d": 92,
      "v": 44
    },
    {
      "midi": 48,
      "hit": false,
      "t": 51160,
      "d": 128,
      "v": 52
    },
    {
      "midi": 48,
      "hit": false,
      "t": 51372,
      "d": 116,
      "v": 45
    },
    {
      "midi": 48,
      "hit": false,
      "t": 51580,
      "d": 164,
      "v": 46
    },
    {
      "midi": 48,
      "hit": false,
      "t": 51816,
      "d": 180,
      "v": 56
    },
    {
      "midi": 48,
      "hit": false,
      "t": 52084,
      "d": 180,
      "v": 37
    },
    {
      "midi": 48,
      "hit": false,
      "t": 52376,
      "d": 80,
      "v": 36
    },
    {
      "midi": 67,
      "hit": false,
      "t": 53584,
      "d": 352,
      "v": 51
    },
    {
      "midi": 29,
      "hit": false,
      "t": 53620,
      "d": 108,
      "v": 31
    },
    {
      "midi": 64,
      "hit": false,
      "t": 53628,
      "d": 436,
      "v": 38
    },
    {
      "midi": 41,
      "hit": false,
      "t": 53632,
      "d": 168,
      "v": 24
    },
    {
      "midi": 60,
      "hit": false,
      "t": 53632,
      "d": 428,
      "v": 39
    },
    {
      "midi": 56,
      "hit": false,
      "t": 53636,
      "d": 396,
      "v": 33
    },
    {
      "midi": 67,
      "hit": false,
      "t": 54084,
      "d": 516,
      "v": 44
    },
    {
      "midi": 60,
      "hit": false,
      "t": 54128,
      "d": 376,
      "v": 29
    },
    {
      "midi": 64,
      "hit": false,
      "t": 54136,
      "d": 356,
      "v": 22
    },
    {
      "midi": 56,
      "hit": false,
      "t": 54156,
      "d": 372,
      "v": 20
    },
    {
      "midi": 41,
      "hit": false,
      "t": 54448,
      "d": 484,
      "v": 36
    },
    {
      "midi": 56,
      "hit": false,
      "t": 54704,
      "d": 132,
      "v": 15
    },
    {
      "midi": 60,
      "hit": false,
      "t": 54800,
      "d": 100,
      "v": 30
    },
    {
      "midi": 55,
      "hit": false,
      "t": 54920,
      "d": 72,
      "v": 38
    },
    {
      "midi": 56,
      "hit": false,
      "t": 54956,
      "d": 140,
      "v": 39
    },
    {
      "midi": 41,
      "hit": false,
      "t": 55048,
      "d": 112,
      "v": 57
    },
    {
      "midi": 60,
      "hit": false,
      "t": 55068,
      "d": 84,
      "v": 22
    },
    {
      "midi": 56,
      "hit": false,
      "t": 55188,
      "d": 160,
      "v": 37
    },
    {
      "midi": 60,
      "hit": false,
      "t": 55304,
      "d": 120,
      "v": 37
    },
    {
      "midi": 41,
      "hit": false,
      "t": 55304,
      "d": 128,
      "v": 38
    },
    {
      "midi": 56,
      "hit": false,
      "t": 55468,
      "d": 156,
      "v": 38
    },
    {
      "midi": 55,
      "hit": false,
      "t": 55488,
      "d": 72,
      "v": 26
    },
    {
      "midi": 60,
      "hit": false,
      "t": 55560,
      "d": 184,
      "v": 35
    },
    {
      "midi": 56,
      "hit": false,
      "t": 55720,
      "d": 124,
      "v": 38
    },
    {
      "midi": 41,
      "hit": false,
      "t": 55800,
      "d": 356,
      "v": 38
    },
    {
      "midi": 60,
      "hit": false,
      "t": 55816,
      "d": 108,
      "v": 17
    },
    {
      "midi": 56,
      "hit": false,
      "t": 55936,
      "d": 232,
      "v": 35
    },
    {
      "midi": 29,
      "hit": false,
      "t": 55984,
      "d": 108,
      "v": 31
    },
    {
      "midi": 60,
      "hit": false,
      "t": 56032,
      "d": 60,
      "v": 28
    },
    {
      "midi": 29,
      "hit": false,
      "t": 56180,
      "d": 216,
      "v": 22
    },
    {
      "midi": 56,
      "hit": false,
      "t": 56264,
      "d": 176,
      "v": 34
    },
    {
      "midi": 41,
      "hit": false,
      "t": 56360,
      "d": 88,
      "v": 41
    },
    {
      "midi": 29,
      "hit": false,
      "t": 56476,
      "d": 228,
      "v": 41
    },
    {
      "midi": 56,
      "hit": false,
      "t": 56572,
      "d": 420,
      "v": 50
    },
    {
      "midi": 41,
      "hit": false,
      "t": 56576,
      "d": 204,
      "v": 54
    },
    {
      "midi": 60,
      "hit": false,
      "t": 56580,
      "d": 416,
      "v": 66
    },
    {
      "midi": 65,
      "hit": false,
      "t": 56584,
      "d": 504,
      "v": 62
    },
    {
      "midi": 29,
      "hit": false,
      "t": 56752,
      "d": 160,
      "v": 36
    },
    {
      "midi": 41,
      "hit": false,
      "t": 56908,
      "d": 104,
      "v": 49
    },
    {
      "midi": 29,
      "hit": false,
      "t": 57032,
      "d": 160,
      "v": 26
    },
    {
      "midi": 41,
      "hit": false,
      "t": 57152,
      "d": 132,
      "v": 43
    },
    {
      "midi": 29,
      "hit": false,
      "t": 57300,
      "d": 148,
      "v": 31
    },
    {
      "midi": 41,
      "hit": false,
      "t": 57432,
      "d": 104,
      "v": 47
    },
    {
      "midi": 29,
      "hit": false,
      "t": 57544,
      "d": 128,
      "v": 29
    },
    {
      "midi": 41,
      "hit": false,
      "t": 57680,
      "d": 80,
      "v": 37
    },
    {
      "midi": 29,
      "hit": false,
      "t": 57788,
      "d": 164,
      "v": 35
    },
    {
      "midi": 41,
      "hit": false,
      "t": 57916,
      "d": 200,
      "v": 51
    },
    {
      "midi": 68,
      "hit": false,
      "t": 57956,
      "d": 360,
      "v": 63
    },
    {
      "midi": 59,
      "hit": false,
      "t": 57960,
      "d": 312,
      "v": 60
    },
    {
      "midi": 64,
      "hit": false,
      "t": 57960,
      "d": 312,
      "v": 62
    },
    {
      "midi": 29,
      "hit": false,
      "t": 58020,
      "d": 308,
      "v": 36
    },
    {
      "midi": 41,
      "hit": false,
      "t": 58268,
      "d": 132,
      "v": 48
    },
    {
      "midi": 68,
      "hit": false,
      "t": 58432,
      "d": 456,
      "v": 46
    },
    {
      "midi": 64,
      "hit": false,
      "t": 58440,
      "d": 188,
      "v": 56
    },
    {
      "midi": 59,
      "hit": false,
      "t": 58452,
      "d": 276,
      "v": 45
    },
    {
      "midi": 41,
      "hit": false,
      "t": 58604,
      "d": 1604,
      "v": 32
    },
    {
      "midi": 53,
      "hit": false,
      "t": 58848,
      "d": 36,
      "v": 43
    },
    {
      "midi": 68,
      "hit": false,
      "t": 59056,
      "d": 624,
      "v": 46
    },
    {
      "midi": 59,
      "hit": false,
      "t": 59060,
      "d": 100,
      "v": 53
    },
    {
      "midi": 63,
      "hit": false,
      "t": 59060,
      "d": 200,
      "v": 51
    },
    {
      "midi": 53,
      "hit": false,
      "t": 59076,
      "d": 144,
      "v": 57
    },
    {
      "midi": 59,
      "hit": false,
      "t": 59256,
      "d": 100,
      "v": 36
    },
    {
      "midi": 49,
      "hit": false,
      "t": 59316,
      "d": 88,
      "v": 25
    },
    {
      "midi": 53,
      "hit": false,
      "t": 59444,
      "d": 72,
      "v": 22
    },
    {
      "midi": 49,
      "hit": false,
      "t": 59552,
      "d": 112,
      "v": 21
    },
    {
      "midi": 53,
      "hit": false,
      "t": 59688,
      "d": 88,
      "v": 41
    },
    {
      "midi": 56,
      "hit": false,
      "t": 59692,
      "d": 100,
      "v": 31
    },
    {
      "midi": 59,
      "hit": false,
      "t": 59720,
      "d": 116,
      "v": 52
    },
    {
      "midi": 63,
      "hit": false,
      "t": 59724,
      "d": 640,
      "v": 1
    },
    {
      "midi": 68,
      "hit": false,
      "t": 59800,
      "d": 160,
      "v": 36
    },
    {
      "midi": 49,
      "hit": false,
      "t": 59832,
      "d": 100,
      "v": 21
    },
    {
      "midi": 56,
      "hit": false,
      "t": 59900,
      "d": 96,
      "v": 23
    },
    {
      "midi": 53,
      "hit": false,
      "t": 59960,
      "d": 120,
      "v": 27
    },
    {
      "midi": 59,
      "hit": false,
      "t": 59964,
      "d": 88,
      "v": 33
    },
    {
      "midi": 68,
      "hit": false,
      "t": 60044,
      "d": 1600,
      "v": 13
    },
    {
      "midi": 49,
      "hit": false,
      "t": 60104,
      "d": 92,
      "v": 18
    },
    {
      "midi": 56,
      "hit": false,
      "t": 60104,
      "d": 128,
      "v": 33
    },
    {
      "midi": 59,
      "hit": false,
      "t": 60192,
      "d": 40,
      "v": 33
    },
    {
      "midi": 41,
      "hit": false,
      "t": 60292,
      "d": 408,
      "v": 31
    },
    {
      "midi": 58,
      "hit": false,
      "t": 60448,
      "d": 376,
      "v": 67
    },
    {
      "midi": 61,
      "hit": false,
      "t": 60456,
      "d": 272,
      "v": 67
    },
    {
      "midi": 53,
      "hit": false,
      "t": 60472,
      "d": 276,
      "v": 51
    },
    {
      "midi": 41,
      "hit": false,
      "t": 60752,
      "d": 312,
      "v": 32
    },
    {
      "midi": 61,
      "hit": false,
      "t": 60800,
      "d": 108,
      "v": 38
    },
    {
      "midi": 53,
      "hit": false,
      "t": 60944,
      "d": 28,
      "v": 41
    },
    {
      "midi": 58,
      "hit": false,
      "t": 60960,
      "d": 100,
      "v": 31
    },
    {
      "midi": 61,
      "hit": false,
      "t": 61016,
      "d": 116,
      "v": 31
    },
    {
      "midi": 58,
      "hit": false,
      "t": 61144,
      "d": 592,
      "v": 27
    },
    {
      "midi": 41,
      "hit": false,
      "t": 61208,
      "d": 428,
      "v": 44
    },
    {
      "midi": 61,
      "hit": false,
      "t": 61216,
      "d": 708,
      "v": 39
    },
    {
      "midi": 29,
      "hit": false,
      "t": 61240,
      "d": 232,
      "v": 61
    },
    {
      "midi": 29,
      "hit": false,
      "t": 61548,
      "d": 736,
      "v": 44
    },
    {
      "midi": 41,
      "hit": false,
      "t": 61756,
      "d": 92,
      "v": 35
    },
    {
      "midi": 41,
      "hit": false,
      "t": 61980,
      "d": 108,
      "v": 46
    },
    {
      "midi": 55,
      "hit": false,
      "t": 62144,
      "d": 288,
      "v": 65
    },
    {
      "midi": 67,
      "hit": false,
      "t": 62152,
      "d": 200,
      "v": 37
    },
    {
      "midi": 41,
      "hit": false,
      "t": 62172,
      "d": 248,
      "v": 41
    },
    {
      "midi": 29,
      "hit": false,
      "t": 62396,
      "d": 788,
      "v": 36
    },
    {
      "midi": 41,
      "hit": false,
      "t": 62544,
      "d": 224,
      "v": 61
    },
    {
      "midi": 65,
      "hit": false,
      "t": 62552,
      "d": 184,
      "v": 64
    },
    {
      "midi": 53,
      "hit": false,
      "t": 62556,
      "d": 200,
      "v": 66
    },
    {
      "midi": 36,
      "hit": false,
      "t": 62772,
      "d": 60,
      "v": 36
    },
    {
      "midi": 67,
      "hit": false,
      "t": 62836,
      "d": 116,
      "v": 64
    },
    {
      "midi": 55,
      "hit": false,
      "t": 62840,
      "d": 128,
      "v": 77
    },
    {
      "midi": 41,
      "hit": false,
      "t": 62856,
      "d": 140,
      "v": 44
    },
    {
      "midi": 68,
      "hit": false,
      "t": 63064,
      "d": 120,
      "v": 74
    },
    {
      "midi": 56,
      "hit": false,
      "t": 63068,
      "d": 108,
      "v": 68
    },
    {
      "midi": 41,
      "hit": false,
      "t": 63072,
      "d": 168,
      "v": 48
    },
    {
      "midi": 29,
      "hit": false,
      "t": 63256,
      "d": 172,
      "v": 51
    },
    {
      "midi": 70,
      "hit": false,
      "t": 63296,
      "d": 152,
      "v": 71
    },
    {
      "midi": 58,
      "hit": false,
      "t": 63296,
      "d": 156,
      "v": 71
    },
    {
      "midi": 41,
      "hit": false,
      "t": 63312,
      "d": 168,
      "v": 43
    },
    {
      "midi": 29,
      "hit": false,
      "t": 63504,
      "d": 372,
      "v": 58
    },
    {
      "midi": 72,
      "hit": false,
      "t": 63564,
      "d": 196,
      "v": 77
    },
    {
      "midi": 60,
      "hit": false,
      "t": 63568,
      "d": 204,
      "v": 79
    },
    {
      "midi": 41,
      "hit": false,
      "t": 63572,
      "d": 248,
      "v": 53
    },
    {
      "midi": 62,
      "hit": false,
      "t": 63588,
      "d": 32,
      "v": 36
    },
    {
      "midi": 70,
      "hit": false,
      "t": 63928,
      "d": 216,
      "v": 67
    },
    {
      "midi": 58,
      "hit": false,
      "t": 63940,
      "d": 212,
      "v": 64
    },
    {
      "midi": 68,
      "hit": false,
      "t": 64240,
      "d": 248,
      "v": 62
    },
    {
      "midi": 56,
      "hit": false,
      "t": 64248,
      "d": 260,
      "v": 69
    },
    {
      "midi": 44,
      "hit": false,
      "t": 64248,
      "d": 520,
      "v": 64
    },
    {
      "midi": 32,
      "hit": false,
      "t": 64252,
      "d": 472,
      "v": 64
    },
    {
      "midi": 67,
      "hit": false,
      "t": 64572,
      "d": 176,
      "v": 66
    },
    {
      "midi": 55,
      "hit": false,
      "t": 64580,
      "d": 140,
      "v": 66
    },
    {
      "midi": 65,
      "hit": false,
      "t": 64956,
      "d": 352,
      "v": 71
    },
    {
      "midi": 63,
      "hit": false,
      "t": 64960,
      "d": 400,
      "v": 73
    },
    {
      "midi": 55,
      "hit": false,
      "t": 64964,
      "d": 404,
      "v": 68
    },
    {
      "midi": 33,
      "hit": false,
      "t": 64964,
      "d": 768,
      "v": 55
    },
    {
      "midi": 45,
      "hit": false,
      "t": 64964,
      "d": 888,
      "v": 53
    },
    {
      "midi": 58,
      "hit": false,
      "t": 65000,
      "d": 376,
      "v": 31
    },
    {
      "midi": 65,
      "hit": false,
      "t": 65416,
      "d": 324,
      "v": 63
    },
    {
      "midi": 63,
      "hit": false,
      "t": 65432,
      "d": 128,
      "v": 38
    },
    {
      "midi": 65,
      "hit": false,
      "t": 65812,
      "d": 192,
      "v": 36
    },
    {
      "midi": 57,
      "hit": false,
      "t": 65824,
      "d": 276,
      "v": 37
    },
    {
      "midi": 63,
      "hit": false,
      "t": 65824,
      "d": 380,
      "v": 38
    },
    {
      "midi": 51,
      "hit": false,
      "t": 66220,
      "d": 272,
      "v": 37
    },
    {
      "midi": 57,
      "hit": false,
      "t": 66524,
      "d": 188,
      "v": 43
    },
    {
      "midi": 77,
      "hit": false,
      "t": 66528,
      "d": 576,
      "v": 46
    },
    {
      "midi": 63,
      "hit": false,
      "t": 66840,
      "d": 848,
      "v": 18
    },
    {
      "midi": 69,
      "hit": false,
      "t": 67092,
      "d": 224,
      "v": 40
    },
    {
      "midi": 79,
      "hit": false,
      "t": 67356,
      "d": 68,
      "v": 48
    },
    {
      "midi": 89,
      "hit": false,
      "t": 67624,
      "d": 264,
      "v": 64
    },
    {
      "midi": 69,
      "hit": false,
      "t": 67684,
      "d": 236,
      "v": 33
    },
    {
      "midi": 87,
      "hit": false,
      "t": 67964,
      "d": 400,
      "v": 39
    },
    {
      "midi": 72,
      "hit": false,
      "t": 68032,
      "d": 180,
      "v": 22
    },
    {
      "midi": 75,
      "hit": false,
      "t": 68296,
      "d": 296,
      "v": 30
    },
    {
      "midi": 81,
      "hit": false,
      "t": 68304,
      "d": 36,
      "v": 29
    },
    {
      "midi": 101,
      "hit": false,
      "t": 68592,
      "d": 236,
      "v": 49
    },
    {
      "midi": 77,
      "hit": false,
      "t": 68664,
      "d": 304,
      "v": 8
    },
    {
      "midi": 101,
      "hit": false,
      "t": 68932,
      "d": 556,
      "v": 30
    },
    {
      "midi": 89,
      "hit": false,
      "t": 68952,
      "d": 256,
      "v": 39
    },
    {
      "midi": 81,
      "hit": false,
      "t": 68952,
      "d": 584,
      "v": 39
    },
    {
      "midi": 89,
      "hit": false,
      "t": 69396,
      "d": 240,
      "v": 33
    },
    {
      "midi": 77,
      "hit": false,
      "t": 70448,
      "d": 968,
      "v": 43
    },
    {
      "midi": 79,
      "hit": false,
      "t": 71376,
      "d": 304,
      "v": 55
    },
    {
      "midi": 80,
      "hit": false,
      "t": 71680,
      "d": 264,
      "v": 57
    },
    {
      "midi": 76,
      "hit": false,
      "t": 71688,
      "d": 296,
      "v": 33
    },
    {
      "midi": 82,
      "hit": false,
      "t": 71988,
      "d": 248,
      "v": 57
    },
    {
      "midi": 75,
      "hit": false,
      "t": 72004,
      "d": 340,
      "v": 37
    },
    {
      "midi": 73,
      "hit": false,
      "t": 72308,
      "d": 392,
      "v": 45
    },
    {
      "midi": 84,
      "hit": false,
      "t": 72312,
      "d": 160,
      "v": 56
    },
    {
      "midi": 85,
      "hit": false,
      "t": 72688,
      "d": 284,
      "v": 67
    },
    {
      "midi": 76,
      "hit": false,
      "t": 72688,
      "d": 576,
      "v": 30
    },
    {
      "midi": 72,
      "hit": false,
      "t": 72720,
      "d": 332,
      "v": 34
    },
    {
      "midi": 84,
      "hit": false,
      "t": 73052,
      "d": 132,
      "v": 57
    },
    {
      "midi": 70,
      "hit": false,
      "t": 73056,
      "d": 920,
      "v": 39
    },
    {
      "midi": 76,
      "hit": false,
      "t": 73936,
      "d": 1032,
      "v": 43
    },
    {
      "midi": 87,
      "hit": false,
      "t": 73940,
      "d": 528,
      "v": 52
    },
    {
      "midi": 68,
      "hit": false,
      "t": 73940,
      "d": 644,
      "v": 45
    },
    {
      "midi": 80,
      "hit": false,
      "t": 73956,
      "d": 692,
      "v": 37
    },
    {
      "midi": 85,
      "hit": false,
      "t": 74548,
      "d": 268,
      "v": 58
    },
    {
      "midi": 66,
      "hit": false,
      "t": 74576,
      "d": 120,
      "v": 36
    },
    {
      "midi": 41,
      "hit": false,
      "t": 75160,
      "d": 580,
      "v": 45
    },
    {
      "midi": 84,
      "hit": false,
      "t": 75176,
      "d": 96,
      "v": 45
    },
    {
      "midi": 72,
      "hit": false,
      "t": 75208,
      "d": 140,
      "v": 22
    },
    {
      "midi": 48,
      "hit": false,
      "t": 75476,
      "d": 268,
      "v": 32
    },
    {
      "midi": 53,
      "hit": false,
      "t": 75632,
      "d": 136,
      "v": 35
    },
    {
      "midi": 60,
      "hit": false,
      "t": 75784,
      "d": 84,
      "v": 35
    },
    {
      "midi": 65,
      "hit": false,
      "t": 75916,
      "d": 120,
      "v": 45
    },
    {
      "midi": 72,
      "hit": false,
      "t": 76084,
      "d": 60,
      "v": 64
    },
    {
      "midi": 79,
      "hit": false,
      "t": 76264,
      "d": 116,
      "v": 61
    },
    {
      "midi": 40,
      "hit": false,
      "t": 76496,
      "d": 228,
      "v": 49
    },
    {
      "midi": 79,
      "hit": false,
      "t": 76512,
      "d": 384,
      "v": 51
    },
    {
      "midi": 52,
      "hit": false,
      "t": 76752,
      "d": 36,
      "v": 43
    },
    {
      "midi": 56,
      "hit": false,
      "t": 76968,
      "d": 320,
      "v": 40
    },
    {
      "midi": 64,
      "hit": false,
      "t": 77360,
      "d": 136,
      "v": 39
    },
    {
      "midi": 67,
      "hit": false,
      "t": 77536,
      "d": 76,
      "v": 49
    },
    {
      "midi": 73,
      "hit": false,
      "t": 77732,
      "d": 816,
      "v": 44
    },
    {
      "midi": 66,
      "hit": false,
      "t": 77740,
      "d": 412,
      "v": 46
    },
    {
      "midi": 39,
      "hit": false,
      "t": 77744,
      "d": 424,
      "v": 31
    },
    {
      "midi": 54,
      "hit": false,
      "t": 77752,
      "d": 208,
      "v": 28
    },
    {
      "midi": 61,
      "hit": false,
      "t": 77756,
      "d": 440,
      "v": 29
    },
    {
      "midi": 46,
      "hit": false,
      "t": 77976,
      "d": 280,
      "v": 42
    },
    {
      "midi": 54,
      "hit": false,
      "t": 78192,
      "d": 132,
      "v": 38
    },
    {
      "midi": 61,
      "hit": false,
      "t": 78420,
      "d": 228,
      "v": 45
    },
    {
      "midi": 66,
      "hit": false,
      "t": 78648,
      "d": 244,
      "v": 45
    },
    {
      "midi": 73,
      "hit": false,
      "t": 78840,
      "d": 184,
      "v": 50
    },
    {
      "midi": 68,
      "hit": false,
      "t": 79148,
      "d": 572,
      "v": 38
    },
    {
      "midi": 64,
      "hit": false,
      "t": 79148,
      "d": 604,
      "v": 33
    },
    {
      "midi": 71,
      "hit": false,
      "t": 79156,
      "d": 1288,
      "v": 24
    },
    {
      "midi": 60,
      "hit": false,
      "t": 79160,
      "d": 456,
      "v": 30
    },
    {
      "midi": 50,
      "hit": false,
      "t": 79168,
      "d": 1988,
      "v": 36
    },
    {
      "midi": 54,
      "hit": false,
      "t": 79580,
      "d": 2576,
      "v": 28
    },
    {
      "midi": 60,
      "hit": false,
      "t": 79960,
      "d": 240,
      "v": 37
    },
    {
      "midi": 68,
      "hit": false,
      "t": 79964,
      "d": 484,
      "v": 33
    },
    {
      "midi": 64,
      "hit": false,
      "t": 79988,
      "d": 424,
      "v": 27
    },
    {
      "midi": 72,
      "hit": false,
      "t": 81396,
      "d": 1012,
      "v": 54
    },
    {
      "midi": 70,
      "hit": false,
      "t": 82896,
      "d": 980,
      "v": 60
    },
    {
      "midi": 63,
      "hit": false,
      "t": 82904,
      "d": 880,
      "v": 46
    },
    {
      "midi": 67,
      "hit": false,
      "t": 82912,
      "d": 876,
      "v": 44
    },
    {
      "midi": 58,
      "hit": false,
      "t": 82920,
      "d": 332,
      "v": 35
    },
    {
      "midi": 59,
      "hit": false,
      "t": 82920,
      "d": 844,
      "v": 41
    },
    {
      "midi": 43,
      "hit": false,
      "t": 83516,
      "d": 372,
      "v": 27
    },
    {
      "midi": 63,
      "hit": false,
      "t": 83896,
      "d": 700,
      "v": 34
    },
    {
      "midi": 59,
      "hit": false,
      "t": 83900,
      "d": 588,
      "v": 47
    },
    {
      "midi": 55,
      "hit": false,
      "t": 83912,
      "d": 328,
      "v": 33
    },
    {
      "midi": 68,
      "hit": false,
      "t": 83924,
      "d": 604,
      "v": 35
    },
    {
      "midi": 56,
      "hit": false,
      "t": 84292,
      "d": 340,
      "v": 33
    },
    {
      "midi": 67,
      "hit": false,
      "t": 84784,
      "d": 692,
      "v": 42
    },
    {
      "midi": 58,
      "hit": false,
      "t": 84792,
      "d": 784,
      "v": 25
    },
    {
      "midi": 48,
      "hit": false,
      "t": 84800,
      "d": 188,
      "v": 36
    },
    {
      "midi": 61,
      "hit": false,
      "t": 84808,
      "d": 852,
      "v": 35
    },
    {
      "midi": 55,
      "hit": false,
      "t": 84812,
      "d": 148,
      "v": 37
    },
    {
      "midi": 64,
      "hit": false,
      "t": 84820,
      "d": 752,
      "v": 35
    },
    {
      "midi": 24,
      "hit": false,
      "t": 85296,
      "d": 1908,
      "v": 44
    },
    {
      "midi": 60,
      "hit": false,
      "t": 85768,
      "d": 136,
      "v": 70
    },
    {
      "midi": 60,
      "hit": false,
      "t": 85960,
      "d": 96,
      "v": 80
    },
    {
      "midi": 60,
      "hit": false,
      "t": 86184,
      "d": 112,
      "v": 89
    },
    {
      "midi": 60,
      "hit": false,
      "t": 86360,
      "d": 84,
      "v": 79
    },
    {
      "midi": 60,
      "hit": false,
      "t": 86600,
      "d": 36,
      "v": 68
    },
    {
      "midi": 60,
      "hit": false,
      "t": 86704,
      "d": 60,
      "v": 71
    },
    {
      "midi": 60,
      "hit": false,
      "t": 86916,
      "d": 128,
      "v": 89
    },
    {
      "midi": 60,
      "hit": false,
      "t": 87148,
      "d": 120,
      "v": 91
    },
    {
      "midi": 60,
      "hit": false,
      "t": 87368,
      "d": 84,
      "v": 85
    },
    {
      "midi": 60,
      "hit": false,
      "t": 87528,
      "d": 68,
      "v": 67
    },
    {
      "midi": 60,
      "hit": false,
      "t": 87668,
      "d": 60,
      "v": 69
    },
    {
      "midi": 60,
      "hit": false,
      "t": 87796,
      "d": 60,
      "v": 69
    },
    {
      "midi": 60,
      "hit": false,
      "t": 87924,
      "d": 68,
      "v": 68
    },
    {
      "midi": 60,
      "hit": false,
      "t": 88068,
      "d": 64,
      "v": 53
    },
    {
      "midi": 60,
      "hit": false,
      "t": 88200,
      "d": 112,
      "v": 15
    },
    {
      "midi": 60,
      "hit": false,
      "t": 88416,
      "d": 92,
      "v": 24
    },
    {
      "midi": 60,
      "hit": false,
      "t": 88580,
      "d": 1076,
      "v": 43
    },
    {
      "midi": 41,
      "hit": false,
      "t": 88592,
      "d": 492,
      "v": 46
    },
    {
      "midi": 56,
      "hit": false,
      "t": 88592,
      "d": 912,
      "v": 48
    },
    {
      "midi": 64,
      "hit": false,
      "t": 88592,
      "d": 3964,
      "v": 58
    },
    {
      "midi": 29,
      "hit": false,
      "t": 88596,
      "d": 428,
      "v": 38
    },
    {
      "midi": 67,
      "hit": false,
      "t": 88936,
      "d": 3800,
      "v": 33
    },
    {
      "midi": 48,
      "hit": false,
      "t": 89264,
      "d": 2512,
      "v": 38
    },
    {
      "midi": 55,
      "hit": false,
      "t": 89544,
      "d": 444,
      "v": 51
    },
    {
      "midi": 60,
      "hit": false,
      "t": 89856,
      "d": 524,
      "v": 48
    },
    {
      "midi": 56,
      "hit": false,
      "t": 89864,
      "d": 532,
      "v": 30
    },
    {
      "midi": 55,
      "hit": false,
      "t": 90200,
      "d": 384,
      "v": 28
    },
    {
      "midi": 56,
      "hit": false,
      "t": 90548,
      "d": 608,
      "v": 40
    },
    {
      "midi": 60,
      "hit": false,
      "t": 90580,
      "d": 508,
      "v": 44
    },
    {
      "midi": 55,
      "hit": false,
      "t": 90920,
      "d": 88,
      "v": 24
    },
    {
      "midi": 56,
      "hit": false,
      "t": 91352,
      "d": 716,
      "v": 29
    },
    {
      "midi": 41,
      "hit": false,
      "t": 91380,
      "d": 1660,
      "v": 30
    },
    {
      "midi": 60,
      "hit": false,
      "t": 91384,
      "d": 668,
      "v": 40
    },
    {
      "midi": 53,
      "hit": false,
      "t": 91400,
      "d": 244,
      "v": 22
    },
    {
      "midi": 52,
      "hit": false,
      "t": 91756,
      "d": 828,
      "v": 46
    },
    {
      "midi": 65,
      "hit": false,
      "t": 92080,
      "d": 560,
      "v": 1
    },
    {
      "midi": 56,
      "hit": false,
      "t": 92200,
      "d": 376,
      "v": 29
    },
    {
      "midi": 60,
      "hit": false,
      "t": 92224,
      "d": 312,
      "v": 36
    },
    {
      "midi": 48,
      "hit": false,
      "t": 92520,
      "d": 600,
      "v": 42
    },
    {
      "midi": 65,
      "hit": false,
      "t": 92812,
      "d": 128,
      "v": 57
    },
    {
      "midi": 65,
      "hit": false,
      "t": 93000,
      "d": 128,
      "v": 78
    },
    {
      "midi": 65,
      "hit": false,
      "t": 93208,
      "d": 128,
      "v": 75
    },
    {
      "midi": 65,
      "hit": false,
      "t": 93432,
      "d": 120,
      "v": 66
    },
    {
      "midi": 65,
      "hit": false,
      "t": 93648,
      "d": 112,
      "v": 42
    },
    {
      "midi": 65,
      "hit": false,
      "t": 93836,
      "d": 100,
      "v": 55
    },
    {
      "midi": 65,
      "hit": false,
      "t": 94036,
      "d": 84,
      "v": 51
    },
    {
      "midi": 65,
      "hit": false,
      "t": 94252,
      "d": 128,
      "v": 38
    },
    {
      "midi": 75,
      "hit": false,
      "t": 94488,
      "d": 584,
      "v": 64
    },
    {
      "midi": 51,
      "hit": false,
      "t": 94704,
      "d": 144,
      "v": 45
    },
    {
      "midi": 68,
      "hit": false,
      "t": 95036,
      "d": 1400,
      "v": 35
    },
    {
      "midi": 72,
      "hit": false,
      "t": 95048,
      "d": 1544,
      "v": 52
    },
    {
      "midi": 65,
      "hit": false,
      "t": 95052,
      "d": 1060,
      "v": 36
    },
    {
      "midi": 61,
      "hit": false,
      "t": 95052,
      "d": 1188,
      "v": 37
    },
    {
      "midi": 63,
      "hit": false,
      "t": 95056,
      "d": 1176,
      "v": 37
    },
    {
      "midi": 75,
      "hit": false,
      "t": 96216,
      "d": 448,
      "v": 56
    },
    {
      "midi": 75,
      "hit": false,
      "t": 97576,
      "d": 184,
      "v": 69
    },
    {
      "midi": 75,
      "hit": false,
      "t": 97880,
      "d": 108,
      "v": 62
    },
    {
      "midi": 75,
      "hit": false,
      "t": 98120,
      "d": 204,
      "v": 57
    },
    {
      "midi": 77,
      "hit": false,
      "t": 98428,
      "d": 472,
      "v": 55
    },
    {
      "midi": 51,
      "hit": false,
      "t": 98440,
      "d": 2252,
      "v": 45
    },
    {
      "midi": 73,
      "hit": false,
      "t": 98444,
      "d": 412,
      "v": 56
    },
    {
      "midi": 61,
      "hit": false,
      "t": 98456,
      "d": 320,
      "v": 28
    },
    {
      "midi": 68,
      "hit": false,
      "t": 98464,
      "d": 376,
      "v": 51
    },
    {
      "midi": 58,
      "hit": false,
      "t": 98820,
      "d": 1828,
      "v": 28
    },
    {
      "midi": 65,
      "hit": false,
      "t": 99208,
      "d": 1408,
      "v": 45
    },
    {
      "midi": 68,
      "hit": false,
      "t": 99208,
      "d": 1472,
      "v": 58
    },
    {
      "midi": 61,
      "hit": false,
      "t": 99220,
      "d": 1348,
      "v": 34
    },
    {
      "midi": 73,
      "hit": false,
      "t": 100364,
      "d": 228,
      "v": 62
    },
    {
      "midi": 75,
      "hit": false,
      "t": 100640,
      "d": 88,
      "v": 53
    },
    {
      "midi": 72,
      "hit": false,
      "t": 100928,
      "d": 264,
      "v": 42
    },
    {
      "midi": 67,
      "hit": false,
      "t": 100932,
      "d": 252,
      "v": 40
    },
    {
      "midi": 60,
      "hit": false,
      "t": 100936,
      "d": 320,
      "v": 43
    },
    {
      "midi": 44,
      "hit": false,
      "t": 100944,
      "d": 488,
      "v": 37
    },
    {
      "midi": 51,
      "hit": false,
      "t": 101188,
      "d": 264,
      "v": 36
    },
    {
      "midi": 63,
      "hit": false,
      "t": 101448,
      "d": 232,
      "v": 56
    },
    {
      "midi": 55,
      "hit": false,
      "t": 101464,
      "d": 36,
      "v": 39
    },
    {
      "midi": 60,
      "hit": false,
      "t": 101480,
      "d": 104,
      "v": 31
    },
    {
      "midi": 67,
      "hit": false,
      "t": 101716,
      "d": 76,
      "v": 58
    },
    {
      "midi": 60,
      "hit": false,
      "t": 101720,
      "d": 32,
      "v": 50
    },
    {
      "midi": 63,
      "hit": false,
      "t": 101724,
      "d": 68,
      "v": 18
    },
    {
      "midi": 68,
      "hit": false,
      "t": 102028,
      "d": 152,
      "v": 60
    },
    {
      "midi": 63,
      "hit": false,
      "t": 102032,
      "d": 140,
      "v": 42
    },
    {
      "midi": 57,
      "hit": false,
      "t": 102040,
      "d": 88,
      "v": 39
    },
    {
      "midi": 61,
      "hit": false,
      "t": 102040,
      "d": 128,
      "v": 48
    },
    {
      "midi": 58,
      "hit": false,
      "t": 102060,
      "d": 244,
      "v": 27
    },
    {
      "midi": 80,
      "hit": false,
      "t": 102328,
      "d": 272,
      "v": 72
    },
    {
      "midi": 70,
      "hit": false,
      "t": 102684,
      "d": 256,
      "v": 38
    },
    {
      "midi": 69,
      "hit": false,
      "t": 102692,
      "d": 644,
      "v": 35
    },
    {
      "midi": 73,
      "hit": false,
      "t": 102692,
      "d": 736,
      "v": 34
    },
    {
      "midi": 75,
      "hit": false,
      "t": 102696,
      "d": 612,
      "v": 46
    },
    {
      "midi": 78,
      "hit": false,
      "t": 103024,
      "d": 200,
      "v": 57
    },
    {
      "midi": 77,
      "hit": false,
      "t": 103368,
      "d": 624,
      "v": 40
    },
    {
      "midi": 65,
      "hit": false,
      "t": 103372,
      "d": 680,
      "v": 27
    },
    {
      "midi": 61,
      "hit": false,
      "t": 103376,
      "d": 1664,
      "v": 30
    },
    {
      "midi": 60,
      "hit": false,
      "t": 103384,
      "d": 196,
      "v": 34
    },
    {
      "midi": 57,
      "hit": false,
      "t": 103736,
      "d": 456,
      "v": 46
    },
    {
      "midi": 65,
      "hit": false,
      "t": 104192,
      "d": 104,
      "v": 55
    },
    {
      "midi": 56,
      "hit": false,
      "t": 104192,
      "d": 896,
      "v": 42
    },
    {
      "midi": 67,
      "hit": false,
      "t": 104368,
      "d": 64,
      "v": 54
    },
    {
      "midi": 68,
      "hit": false,
      "t": 104536,
      "d": 92,
      "v": 67
    },
    {
      "midi": 70,
      "hit": false,
      "t": 104808,
      "d": 260,
      "v": 68
    },
    {
      "midi": 61,
      "hit": false,
      "t": 105160,
      "d": 1508,
      "v": 30
    },
    {
      "midi": 72,
      "hit": false,
      "t": 105164,
      "d": 876,
      "v": 55
    },
    {
      "midi": 55,
      "hit": false,
      "t": 105164,
      "d": 1528,
      "v": 38
    },
    {
      "midi": 65,
      "hit": false,
      "t": 105168,
      "d": 1368,
      "v": 34
    },
    {
      "midi": 73,
      "hit": false,
      "t": 106060,
      "d": 288,
      "v": 57
    },
    {
      "midi": 75,
      "hit": false,
      "t": 106368,
      "d": 96,
      "v": 60
    },
    {
      "midi": 84,
      "hit": false,
      "t": 106652,
      "d": 300,
      "v": 70
    },
    {
      "midi": 79,
      "hit": false,
      "t": 107028,
      "d": 168,
      "v": 41
    },
    {
      "midi": 72,
      "hit": false,
      "t": 107040,
      "d": 196,
      "v": 32
    },
    {
      "midi": 76,
      "hit": false,
      "t": 107044,
      "d": 168,
      "v": 38
    },
    {
      "midi": 44,
      "hit": false,
      "t": 107048,
      "d": 492,
      "v": 44
    },
    {
      "midi": 51,
      "hit": false,
      "t": 107296,
      "d": 260,
      "v": 45
    },
    {
      "midi": 56,
      "hit": false,
      "t": 107544,
      "d": 80,
      "v": 43
    },
    {
      "midi": 67,
      "hit": false,
      "t": 107548,
      "d": 216,
      "v": 45
    },
    {
      "midi": 64,
      "hit": false,
      "t": 107552,
      "d": 196,
      "v": 49
    },
    {
      "midi": 60,
      "hit": false,
      "t": 107564,
      "d": 176,
      "v": 34
    },
    {
      "midi": 79,
      "hit": false,
      "t": 107860,
      "d": 272,
      "v": 69
    },
    {
      "midi": 72,
      "hit": false,
      "t": 107868,
      "d": 244,
      "v": 71
    },
    {
      "midi": 60,
      "hit": false,
      "t": 107876,
      "d": 324,
      "v": 43
    },
    {
      "midi": 76,
      "hit": false,
      "t": 108192,
      "d": 204,
      "v": 43
    },
    {
      "midi": 72,
      "hit": false,
      "t": 108196,
      "d": 220,
      "v": 46
    },
    {
      "midi": 67,
      "hit": false,
      "t": 108208,
      "d": 208,
      "v": 30
    },
    {
      "midi": 75,
      "hit": false,
      "t": 108528,
      "d": 152,
      "v": 62
    },
    {
      "midi": 60,
      "hit": false,
      "t": 108532,
      "d": 240,
      "v": 40
    },
    {
      "midi": 70,
      "hit": false,
      "t": 108544,
      "d": 148,
      "v": 52
    },
    {
      "midi": 65,
      "hit": false,
      "t": 108552,
      "d": 168,
      "v": 33
    },
    {
      "midi": 72,
      "hit": false,
      "t": 108900,
      "d": 100,
      "v": 47
    },
    {
      "midi": 67,
      "hit": false,
      "t": 108912,
      "d": 96,
      "v": 50
    },
    {
      "midi": 56,
      "hit": false,
      "t": 108936,
      "d": 52,
      "v": 41
    },
    {
      "midi": 62,
      "hit": false,
      "t": 108936,
      "d": 112,
      "v": 46
    },
    {
      "midi": 67,
      "hit": false,
      "t": 109260,
      "d": 132,
      "v": 41
    },
    {
      "midi": 63,
      "hit": false,
      "t": 109268,
      "d": 124,
      "v": 44
    },
    {
      "midi": 51,
      "hit": false,
      "t": 109280,
      "d": 116,
      "v": 43
    },
    {
      "midi": 59,
      "hit": false,
      "t": 109288,
      "d": 104,
      "v": 31
    },
    {
      "midi": 64,
      "hit": false,
      "t": 109640,
      "d": 176,
      "v": 38
    },
    {
      "midi": 43,
      "hit": false,
      "t": 109648,
      "d": 148,
      "v": 43
    },
    {
      "midi": 53,
      "hit": false,
      "t": 109652,
      "d": 104,
      "v": 37
    },
    {
      "midi": 57,
      "hit": false,
      "t": 109656,
      "d": 128,
      "v": 44
    },
    {
      "midi": 60,
      "hit": false,
      "t": 109656,
      "d": 132,
      "v": 45
    },
    {
      "midi": 50,
      "hit": false,
      "t": 109656,
      "d": 168,
      "v": 37
    },
    {
      "midi": 69,
      "hit": false,
      "t": 110044,
      "d": 316,
      "v": 67
    },
    {
      "midi": 76,
      "hit": false,
      "t": 110044,
      "d": 324,
      "v": 75
    },
    {
      "midi": 64,
      "hit": false,
      "t": 110048,
      "d": 260,
      "v": 55
    },
    {
      "midi": 65,
      "hit": false,
      "t": 110052,
      "d": 292,
      "v": 73
    },
    {
      "midi": 72,
      "hit": false,
      "t": 110052,
      "d": 348,
      "v": 64
    },
    {
      "midi": 76,
      "hit": false,
      "t": 110448,
      "d": 76,
      "v": 54
    },
    {
      "midi": 69,
      "hit": false,
      "t": 110460,
      "d": 60,
      "v": 74
    },
    {
      "midi": 72,
      "hit": false,
      "t": 110460,
      "d": 60,
      "v": 67
    },
    {
      "midi": 65,
      "hit": false,
      "t": 110464,
      "d": 80,
      "v": 68
    },
    {
      "midi": 43,
      "hit": false,
      "t": 110824,
      "d": 332,
      "v": 60
    },
    {
      "midi": 64,
      "hit": false,
      "t": 110824,
      "d": 416,
      "v": 68
    },
    {
      "midi": 50,
      "hit": false,
      "t": 110832,
      "d": 384,
      "v": 44
    },
    {
      "midi": 57,
      "hit": false,
      "t": 110836,
      "d": 300,
      "v": 66
    },
    {
      "midi": 53,
      "hit": false,
      "t": 110840,
      "d": 244,
      "v": 63
    },
    {
      "midi": 60,
      "hit": false,
      "t": 110840,
      "d": 296,
      "v": 64
    },
    {
      "midi": 64,
      "hit": false,
      "t": 111360,
      "d": 216,
      "v": 66
    },
    {
      "midi": 56,
      "hit": false,
      "t": 111372,
      "d": 172,
      "v": 63
    },
    {
      "midi": 59,
      "hit": false,
      "t": 111376,
      "d": 168,
      "v": 60
    },
    {
      "midi": 43,
      "hit": false,
      "t": 111376,
      "d": 188,
      "v": 46
    },
    {
      "midi": 62,
      "hit": false,
      "t": 111380,
      "d": 168,
      "v": 35
    },
    {
      "midi": 53,
      "hit": false,
      "t": 111388,
      "d": 224,
      "v": 45
    },
    {
      "midi": 76,
      "hit": false,
      "t": 111812,
      "d": 404,
      "v": 74
    },
    {
      "midi": 68,
      "hit": false,
      "t": 111816,
      "d": 372,
      "v": 74
    },
    {
      "midi": 64,
      "hit": false,
      "t": 111820,
      "d": 388,
      "v": 83
    },
    {
      "midi": 65,
      "hit": false,
      "t": 111824,
      "d": 324,
      "v": 76
    },
    {
      "midi": 71,
      "hit": false,
      "t": 111824,
      "d": 368,
      "v": 68
    },
    {
      "midi": 74,
      "hit": false,
      "t": 111840,
      "d": 396,
      "v": 43
    },
    {
      "midi": 64,
      "hit": false,
      "t": 112332,
      "d": 308,
      "v": 74
    },
    {
      "midi": 76,
      "hit": false,
      "t": 112332,
      "d": 376,
      "v": 75
    },
    {
      "midi": 71,
      "hit": false,
      "t": 112340,
      "d": 532,
      "v": 74
    },
    {
      "midi": 65,
      "hit": false,
      "t": 112344,
      "d": 360,
      "v": 80
    },
    {
      "midi": 68,
      "hit": false,
      "t": 112344,
      "d": 464,
      "v": 74
    },
    {
      "midi": 74,
      "hit": false,
      "t": 112368,
      "d": 376,
      "v": 24
    },
    {
      "midi": 74,
      "hit": false,
      "t": 113320,
      "d": 132,
      "v": 71
    },
    {
      "midi": 68,
      "hit": false,
      "t": 113320,
      "d": 160,
      "v": 76
    },
    {
      "midi": 64,
      "hit": false,
      "t": 113332,
      "d": 164,
      "v": 65
    },
    {
      "midi": 59,
      "hit": false,
      "t": 113336,
      "d": 76,
      "v": 51
    },
    {
      "midi": 36,
      "hit": false,
      "t": 113996,
      "d": 924,
      "v": 41
    },
    {
      "midi": 43,
      "hit": false,
      "t": 114052,
      "d": 912,
      "v": 34
    },
    {
      "midi": 57,
      "hit": false,
      "t": 114084,
      "d": 556,
      "v": 60
    },
    {
      "midi": 52,
      "hit": false,
      "t": 114112,
      "d": 892,
      "v": 54
    },
    {
      "midi": 62,
      "hit": false,
      "t": 114120,
      "d": 592,
      "v": 64
    },
    {
      "midi": 67,
      "hit": false,
      "t": 114148,
      "d": 320,
      "v": 66
    },
    {
      "midi": 67,
      "hit": false,
      "t": 114532,
      "d": 192,
      "v": 58
    },
    {
      "midi": 79,
      "hit": false,
      "t": 114920,
      "d": 172,
      "v": 68
    },
    {
      "midi": 79,
      "hit": false,
      "t": 115172,
      "d": 152,
      "v": 48
    },
    {
      "midi": 79,
      "hit": false,
      "t": 115452,
      "d": 232,
      "v": 36
    },
    {
      "midi": 67,
      "hit": false,
      "t": 115452,
      "d": 444,
      "v": 46
    },
    {
      "midi": 74,
      "hit": false,
      "t": 115464,
      "d": 512,
      "v": 41
    },
    {
      "midi": 64,
      "hit": false,
      "t": 115472,
      "d": 648,
      "v": 40
    },
    {
      "midi": 79,
      "hit": false,
      "t": 115796,
      "d": 180,
      "v": 52
    },
    {
      "midi": 79,
      "hit": false,
      "t": 116152,
      "d": 72,
      "v": 37
    },
    {
      "midi": 74,
      "hit": false,
      "t": 116160,
      "d": 76,
      "v": 35
    },
    {
      "midi": 60,
      "hit": false,
      "t": 116160,
      "d": 176,
      "v": 37
    },
    {
      "midi": 67,
      "hit": false,
      "t": 116168,
      "d": 96,
      "v": 30
    },
    {
      "midi": 67,
      "hit": false,
      "t": 116532,
      "d": 152,
      "v": 57
    },
    {
      "midi": 67,
      "hit": false,
      "t": 117164,
      "d": 720,
      "v": 30
    },
    {
      "midi": 53,
      "hit": false,
      "t": 117184,
      "d": 448,
      "v": 37
    },
    {
      "midi": 55,
      "hit": false,
      "t": 117184,
      "d": 472,
      "v": 40
    },
    {
      "midi": 59,
      "hit": false,
      "t": 117184,
      "d": 584,
      "v": 46
    },
    {
      "midi": 37,
      "hit": false,
      "t": 117192,
      "d": 512,
      "v": 32
    },
    {
      "midi": 44,
      "hit": false,
      "t": 117200,
      "d": 552,
      "v": 31
    },
    {
      "midi": 58,
      "hit": false,
      "t": 118312,
      "d": 172,
      "v": 87
    },
    {
      "midi": 67,
      "hit": false,
      "t": 118316,
      "d": 164,
      "v": 78
    },
    {
      "midi": 63,
      "hit": false,
      "t": 118316,
      "d": 176,
      "v": 79
    },
    {
      "midi": 52,
      "hit": false,
      "t": 118316,
      "d": 196,
      "v": 88
    },
    {
      "midi": 58,
      "hit": false,
      "t": 118620,
      "d": 128,
      "v": 86
    },
    {
      "midi": 67,
      "hit": false,
      "t": 118620,
      "d": 132,
      "v": 79
    },
    {
      "midi": 52,
      "hit": false,
      "t": 118620,
      "d": 164,
      "v": 96
    },
    {
      "midi": 63,
      "hit": false,
      "t": 118624,
      "d": 140,
      "v": 77
    },
    {
      "midi": 67,
      "hit": false,
      "t": 118920,
      "d": 132,
      "v": 74
    },
    {
      "midi": 52,
      "hit": false,
      "t": 118920,
      "d": 152,
      "v": 90
    },
    {
      "midi": 58,
      "hit": false,
      "t": 118924,
      "d": 124,
      "v": 83
    },
    {
      "midi": 63,
      "hit": false,
      "t": 118928,
      "d": 132,
      "v": 74
    },
    {
      "midi": 52,
      "hit": false,
      "t": 119252,
      "d": 332,
      "v": 82
    },
    {
      "midi": 58,
      "hit": false,
      "t": 119260,
      "d": 240,
      "v": 78
    },
    {
      "midi": 63,
      "hit": false,
      "t": 119260,
      "d": 244,
      "v": 69
    },
    {
      "midi": 67,
      "hit": false,
      "t": 119264,
      "d": 136,
      "v": 75
    },
    {
      "midi": 68,
      "hit": false,
      "t": 119552,
      "d": 160,
      "v": 56
    },
    {
      "midi": 64,
      "hit": false,
      "t": 119560,
      "d": 156,
      "v": 50
    },
    {
      "midi": 59,
      "hit": false,
      "t": 119560,
      "d": 164,
      "v": 54
    },
    {
      "midi": 53,
      "hit": false,
      "t": 119564,
      "d": 308,
      "v": 65
    },
    {
      "midi": 58,
      "hit": false,
      "t": 119892,
      "d": 1624,
      "v": 50
    },
    {
      "midi": 63,
      "hit": false,
      "t": 119896,
      "d": 1812,
      "v": 52
    },
    {
      "midi": 67,
      "hit": false,
      "t": 119900,
      "d": 1564,
      "v": 43
    },
    {
      "midi": 52,
      "hit": false,
      "t": 119904,
      "d": 776,
      "v": 54
    },
    {
      "midi": 24,
      "hit": false,
      "t": 121192,
      "d": 172,
      "v": 62
    },
    {
      "midi": 36,
      "hit": false,
      "t": 121192,
      "d": 236,
      "v": 66
    },
    {
      "midi": 68,
      "hit": false,
      "t": 122640,
      "d": 364,
      "v": 61
    },
    {
      "midi": 64,
      "hit": false,
      "t": 122656,
      "d": 332,
      "v": 57
    },
    {
      "midi": 59,
      "hit": false,
      "t": 122660,
      "d": 312,
      "v": 57
    },
    {
      "midi": 53,
      "hit": false,
      "t": 122664,
      "d": 332,
      "v": 63
    },
    {
      "midi": 68,
      "hit": false,
      "t": 123124,
      "d": 284,
      "v": 56
    },
    {
      "midi": 53,
      "hit": false,
      "t": 123136,
      "d": 212,
      "v": 51
    },
    {
      "midi": 59,
      "hit": false,
      "t": 123136,
      "d": 232,
      "v": 57
    },
    {
      "midi": 64,
      "hit": false,
      "t": 123136,
      "d": 232,
      "v": 52
    },
    {
      "midi": 53,
      "hit": false,
      "t": 123568,
      "d": 156,
      "v": 42
    },
    {
      "midi": 59,
      "hit": false,
      "t": 123580,
      "d": 168,
      "v": 49
    },
    {
      "midi": 68,
      "hit": false,
      "t": 123580,
      "d": 284,
      "v": 39
    },
    {
      "midi": 64,
      "hit": false,
      "t": 123584,
      "d": 200,
      "v": 51
    },
    {
      "midi": 67,
      "hit": false,
      "t": 124140,
      "d": 280,
      "v": 46
    },
    {
      "midi": 58,
      "hit": false,
      "t": 124144,
      "d": 148,
      "v": 45
    },
    {
      "midi": 63,
      "hit": false,
      "t": 124144,
      "d": 272,
      "v": 50
    },
    {
      "midi": 64,
      "hit": false,
      "t": 124144,
      "d": 280,
      "v": 54
    },
    {
      "midi": 48,
      "hit": false,
      "t": 124152,
      "d": 176,
      "v": 43
    },
    {
      "midi": 67,
      "hit": false,
      "t": 125896,
      "d": 256,
      "v": 34
    },
    {
      "midi": 58,
      "hit": false,
      "t": 125896,
      "d": 384,
      "v": 32
    },
    {
      "midi": 24,
      "hit": false,
      "t": 125912,
      "d": 308,
      "v": 41
    },
    {
      "midi": 64,
      "hit": false,
      "t": 125916,
      "d": 260,
      "v": 38
    },
    {
      "midi": 36,
      "hit": false,
      "t": 125920,
      "d": 1628,
      "v": 34
    },
    {
      "midi": 60,
      "hit": false,
      "t": 127740,
      "d": 1352,
      "v": 75
    },
    {
      "midi": 29,
      "hit": false,
      "t": 129004,
      "d": 108,
      "v": 27
    },
    {
      "midi": 41,
      "hit": false,
      "t": 129148,
      "d": 68,
      "v": 24
    },
    {
      "midi": 29,
      "hit": false,
      "t": 129248,
      "d": 88,
      "v": 19
    },
    {
      "midi": 41,
      "hit": false,
      "t": 129380,
      "d": 28,
      "v": 22
    },
    {
      "midi": 29,
      "hit": false,
      "t": 129448,
      "d": 120,
      "v": 29
    },
    {
      "midi": 41,
      "hit": false,
      "t": 129576,
      "d": 112,
      "v": 36
    },
    {
      "midi": 67,
      "hit": false,
      "t": 129620,
      "d": 308,
      "v": 45
    },
    {
      "midi": 60,
      "hit": false,
      "t": 129632,
      "d": 228,
      "v": 53
    },
    {
      "midi": 56,
      "hit": false,
      "t": 129656,
      "d": 200,
      "v": 21
    },
    {
      "midi": 29,
      "hit": false,
      "t": 129664,
      "d": 164,
      "v": 24
    },
    {
      "midi": 29,
      "hit": false,
      "t": 129956,
      "d": 132,
      "v": 27
    },
    {
      "midi": 41,
      "hit": false,
      "t": 130132,
      "d": 164,
      "v": 29
    },
    {
      "midi": 56,
      "hit": false,
      "t": 130136,
      "d": 224,
      "v": 50
    },
    {
      "midi": 67,
      "hit": false,
      "t": 130136,
      "d": 604,
      "v": 48
    },
    {
      "midi": 64,
      "hit": false,
      "t": 130140,
      "d": 292,
      "v": 60
    },
    {
      "midi": 60,
      "hit": false,
      "t": 130144,
      "d": 272,
      "v": 59
    },
    {
      "midi": 29,
      "hit": false,
      "t": 130184,
      "d": 144,
      "v": 36
    },
    {
      "midi": 29,
      "hit": false,
      "t": 130408,
      "d": 84,
      "v": 24
    },
    {
      "midi": 56,
      "hit": false,
      "t": 130436,
      "d": 72,
      "v": 35
    },
    {
      "midi": 41,
      "hit": false,
      "t": 130536,
      "d": 56,
      "v": 30
    },
    {
      "midi": 29,
      "hit": false,
      "t": 130604,
      "d": 160,
      "v": 29
    },
    {
      "midi": 56,
      "hit": false,
      "t": 130652,
      "d": 196,
      "v": 17
    },
    {
      "midi": 60,
      "hit": false,
      "t": 130756,
      "d": 124,
      "v": 26
    },
    {
      "midi": 41,
      "hit": false,
      "t": 130768,
      "d": 80,
      "v": 36
    },
    {
      "midi": 29,
      "hit": false,
      "t": 130864,
      "d": 140,
      "v": 24
    },
    {
      "midi": 56,
      "hit": false,
      "t": 130952,
      "d": 144,
      "v": 33
    },
    {
      "midi": 41,
      "hit": false,
      "t": 131012,
      "d": 60,
      "v": 27
    },
    {
      "midi": 60,
      "hit": false,
      "t": 131060,
      "d": 84,
      "v": 33
    },
    {
      "midi": 29,
      "hit": false,
      "t": 131112,
      "d": 124,
      "v": 24
    },
    {
      "midi": 56,
      "hit": false,
      "t": 131188,
      "d": 296,
      "v": 29
    },
    {
      "midi": 41,
      "hit": false,
      "t": 131252,
      "d": 52,
      "v": 31
    },
    {
      "midi": 60,
      "hit": false,
      "t": 131280,
      "d": 56,
      "v": 24
    },
    {
      "midi": 29,
      "hit": false,
      "t": 131336,
      "d": 116,
      "v": 25
    },
    {
      "midi": 67,
      "hit": false,
      "t": 131384,
      "d": 132,
      "v": 19
    },
    {
      "midi": 41,
      "hit": false,
      "t": 131480,
      "d": 48,
      "v": 28
    },
    {
      "midi": 29,
      "hit": false,
      "t": 131548,
      "d": 160,
      "v": 28
    },
    {
      "midi": 41,
      "hit": false,
      "t": 131696,
      "d": 96,
      "v": 45
    },
    {
      "midi": 55,
      "hit": false,
      "t": 131728,
      "d": 372,
      "v": 66
    },
    {
      "midi": 65,
      "hit": false,
      "t": 131728,
      "d": 588,
      "v": 37
    },
    {
      "midi": 60,
      "hit": false,
      "t": 131736,
      "d": 332,
      "v": 62
    },
    {
      "midi": 29,
      "hit": false,
      "t": 131780,
      "d": 136,
      "v": 45
    },
    {
      "midi": 41,
      "hit": false,
      "t": 131936,
      "d": 72,
      "v": 42
    },
    {
      "midi": 29,
      "hit": false,
      "t": 132016,
      "d": 128,
      "v": 27
    },
    {
      "midi": 41,
      "hit": false,
      "t": 132176,
      "d": 68,
      "v": 41
    },
    {
      "midi": 29,
      "hit": false,
      "t": 132276,
      "d": 136,
      "v": 34
    },
    {
      "midi": 41,
      "hit": false,
      "t": 132412,
      "d": 372,
      "v": 42
    },
    {
      "midi": 63,
      "hit": false,
      "t": 132464,
      "d": 324,
      "v": 35
    },
    {
      "midi": 67,
      "hit": false,
      "t": 132488,
      "d": 324,
      "v": 44
    },
    {
      "midi": 29,
      "hit": false,
      "t": 132492,
      "d": 1396,
      "v": 31
    },
    {
      "midi": 59,
      "hit": false,
      "t": 132496,
      "d": 296,
      "v": 64
    },
    {
      "midi": 65,
      "hit": false,
      "t": 132496,
      "d": 344,
      "v": 47
    },
    {
      "midi": 56,
      "hit": false,
      "t": 132504,
      "d": 288,
      "v": 47
    },
    {
      "midi": 67,
      "hit": false,
      "t": 132920,
      "d": 264,
      "v": 51
    },
    {
      "midi": 59,
      "hit": false,
      "t": 132924,
      "d": 344,
      "v": 68
    },
    {
      "midi": 64,
      "hit": false,
      "t": 132924,
      "d": 708,
      "v": 62
    },
    {
      "midi": 56,
      "hit": false,
      "t": 132928,
      "d": 328,
      "v": 60
    },
    {
      "midi": 65,
      "hit": false,
      "t": 132932,
      "d": 276,
      "v": 45
    },
    {
      "midi": 41,
      "hit": false,
      "t": 132932,
      "d": 320,
      "v": 52
    },
    {
      "midi": 56,
      "hit": false,
      "t": 133328,
      "d": 276,
      "v": 53
    },
    {
      "midi": 65,
      "hit": false,
      "t": 133328,
      "d": 1040,
      "v": 84
    },
    {
      "midi": 59,
      "hit": false,
      "t": 133344,
      "d": 256,
      "v": 62
    },
    {
      "midi": 41,
      "hit": false,
      "t": 133348,
      "d": 220,
      "v": 51
    },
    {
      "midi": 29,
      "hit": false,
      "t": 134048,
      "d": 76,
      "v": 20
    },
    {
      "midi": 56,
      "hit": false,
      "t": 134196,
      "d": 104,
      "v": 20
    },
    {
      "midi": 29,
      "hit": false,
      "t": 134204,
      "d": 152,
      "v": 29
    },
    {
      "midi": 41,
      "hit": false,
      "t": 134352,
      "d": 132,
      "v": 39
    },
    {
      "midi": 56,
      "hit": false,
      "t": 134388,
      "d": 108,
      "v": 33
    },
    {
      "midi": 68,
      "hit": false,
      "t": 134400,
      "d": 480,
      "v": 70
    },
    {
      "midi": 59,
      "hit": false,
      "t": 134504,
      "d": 80,
      "v": 38
    },
    {
      "midi": 29,
      "hit": false,
      "t": 134512,
      "d": 192,
      "v": 18
    },
    {
      "midi": 56,
      "hit": false,
      "t": 134576,
      "d": 108,
      "v": 12
    },
    {
      "midi": 68,
      "hit": false,
      "t": 134888,
      "d": 1060,
      "v": 80
    },
    {
      "midi": 67,
      "hit": false,
      "t": 135904,
      "d": 428,
      "v": 46
    },
    {
      "midi": 41,
      "hit": false,
      "t": 135908,
      "d": 364,
      "v": 37
    },
    {
      "midi": 58,
      "hit": false,
      "t": 135912,
      "d": 468,
      "v": 44
    },
    {
      "midi": 64,
      "hit": false,
      "t": 135928,
      "d": 372,
      "v": 40
    },
    {
      "midi": 61,
      "hit": false,
      "t": 135932,
      "d": 636,
      "v": 42
    },
    {
      "midi": 65,
      "hit": false,
      "t": 137328,
      "d": 216,
      "v": 44
    },
    {
      "midi": 56,
      "hit": false,
      "t": 137332,
      "d": 140,
      "v": 31
    },
    {
      "midi": 48,
      "hit": false,
      "t": 137336,
      "d": 408,
      "v": 28
    },
    {
      "midi": 41,
      "hit": false,
      "t": 137340,
      "d": 368,
      "v": 35
    },
    {
      "midi": 60,
      "hit": false,
      "t": 137352,
      "d": 164,
      "v": 44
    },
    {
      "midi": 79,
      "hit": false,
      "t": 138048,
      "d": 148,
      "v": 53
    },
    {
      "midi": 67,
      "hit": false,
      "t": 138056,
      "d": 148,
      "v": 51
    },
    {
      "midi": 55,
      "hit": false,
      "t": 138068,
      "d": 248,
      "v": 32
    },
    {
      "midi": 80,
      "hit": false,
      "t": 138348,
      "d": 184,
      "v": 63
    },
    {
      "midi": 56,
      "hit": false,
      "t": 138352,
      "d": 380,
      "v": 49
    },
    {
      "midi": 68,
      "hit": false,
      "t": 138360,
      "d": 136,
      "v": 58
    },
    {
      "midi": 58,
      "hit": false,
      "t": 138660,
      "d": 48,
      "v": 38
    },
    {
      "midi": 82,
      "hit": false,
      "t": 138672,
      "d": 128,
      "v": 73
    },
    {
      "midi": 70,
      "hit": false,
      "t": 138676,
      "d": 84,
      "v": 67
    },
    {
      "midi": 32,
      "hit": false,
      "t": 139056,
      "d": 260,
      "v": 56
    },
    {
      "midi": 44,
      "hit": false,
      "t": 139056,
      "d": 312,
      "v": 50
    },
    {
      "midi": 84,
      "hit": false,
      "t": 139072,
      "d": 276,
      "v": 71
    },
    {
      "midi": 72,
      "hit": false,
      "t": 139084,
      "d": 300,
      "v": 62
    },
    {
      "midi": 82,
      "hit": false,
      "t": 139552,
      "d": 312,
      "v": 52
    },
    {
      "midi": 70,
      "hit": false,
      "t": 139568,
      "d": 324,
      "v": 39
    },
    {
      "midi": 80,
      "hit": false,
      "t": 141320,
      "d": 456,
      "v": 48
    },
    {
      "midi": 56,
      "hit": false,
      "t": 141332,
      "d": 1060,
      "v": 29
    },
    {
      "midi": 67,
      "hit": false,
      "t": 141336,
      "d": 460,
      "v": 36
    },
    {
      "midi": 60,
      "hit": false,
      "t": 141340,
      "d": 984,
      "v": 41
    },
    {
      "midi": 63,
      "hit": false,
      "t": 141344,
      "d": 516,
      "v": 34
    },
    {
      "midi": 79,
      "hit": false,
      "t": 142340,
      "d": 652,
      "v": 47
    },
    {
      "midi": 67,
      "hit": false,
      "t": 142356,
      "d": 1208,
      "v": 36
    },
    {
      "midi": 77,
      "hit": false,
      "t": 143412,
      "d": 1236,
      "v": 52
    },
    {
      "midi": 69,
      "hit": false,
      "t": 143420,
      "d": 1120,
      "v": 48
    },
    {
      "midi": 45,
      "hit": false,
      "t": 143440,
      "d": 304,
      "v": 35
    },
    {
      "midi": 65,
      "hit": false,
      "t": 143440,
      "d": 1056,
      "v": 38
    },
    {
      "midi": 57,
      "hit": false,
      "t": 143796,
      "d": 256,
      "v": 34
    },
    {
      "midi": 60,
      "hit": false,
      "t": 144084,
      "d": 80,
      "v": 41
    },
    {
      "midi": 63,
      "hit": false,
      "t": 144380,
      "d": 1800,
      "v": 60
    },
    {
      "midi": 65,
      "hit": false,
      "t": 144712,
      "d": 508,
      "v": 44
    },
    {
      "midi": 69,
      "hit": false,
      "t": 145052,
      "d": 316,
      "v": 49
    },
    {
      "midi": 72,
      "hit": false,
      "t": 145432,
      "d": 336,
      "v": 40
    },
    {
      "midi": 65,
      "hit": false,
      "t": 145448,
      "d": 368,
      "v": 29
    },
    {
      "midi": 69,
      "hit": false,
      "t": 145460,
      "d": 340,
      "v": 9
    },
    {
      "midi": 75,
      "hit": false,
      "t": 145868,
      "d": 660,
      "v": 51
    },
    {
      "midi": 67,
      "hit": false,
      "t": 147236,
      "d": 404,
      "v": 74
    },
    {
      "midi": 63,
      "hit": false,
      "t": 147240,
      "d": 576,
      "v": 74
    },
    {
      "midi": 58,
      "hit": false,
      "t": 147248,
      "d": 548,
      "v": 83
    },
    {
      "midi": 57,
      "hit": false,
      "t": 147260,
      "d": 164,
      "v": 55
    },
    {
      "midi": 55,
      "hit": false,
      "t": 147260,
      "d": 308,
      "v": 58
    },
    {
      "midi": 54,
      "hit": false,
      "t": 147540,
      "d": 308,
      "v": 81
    },
    {
      "midi": 53,
      "hit": false,
      "t": 147832,
      "d": 384,
      "v": 62
    },
    {
      "midi": 68,
      "hit": false,
      "t": 147832,
      "d": 580,
      "v": 63
    },
    {
      "midi": 64,
      "hit": false,
      "t": 147836,
      "d": 508,
      "v": 63
    },
    {
      "midi": 59,
      "hit": false,
      "t": 147840,
      "d": 520,
      "v": 65
    },
    {
      "midi": 52,
      "hit": false,
      "t": 148168,
      "d": 500,
      "v": 68
    },
    {
      "midi": 70,
      "hit": false,
      "t": 148616,
      "d": 424,
      "v": 56
    },
    {
      "midi": 66,
      "hit": false,
      "t": 148632,
      "d": 364,
      "v": 58
    },
    {
      "midi": 61,
      "hit": false,
      "t": 148632,
      "d": 388,
      "v": 42
    },
    {
      "midi": 51,
      "hit": false,
      "t": 148640,
      "d": 436,
      "v": 46
    },
    {
      "midi": 50,
      "hit": false,
      "t": 148964,
      "d": 428,
      "v": 61
    },
    {
      "midi": 63,
      "hit": false,
      "t": 149308,
      "d": 724,
      "v": 46
    },
    {
      "midi": 68,
      "hit": false,
      "t": 149308,
      "d": 732,
      "v": 58
    },
    {
      "midi": 72,
      "hit": false,
      "t": 149312,
      "d": 596,
      "v": 50
    },
    {
      "midi": 49,
      "hit": false,
      "t": 149328,
      "d": 352,
      "v": 38
    },
    {
      "midi": 48,
      "hit": false,
      "t": 149708,
      "d": 204,
      "v": 58
    },
    {
      "midi": 64,
      "hit": false,
      "t": 150208,
      "d": 728,
      "v": 52
    },
    {
      "midi": 73,
      "hit": false,
      "t": 150208,
      "d": 900,
      "v": 55
    },
    {
      "midi": 46,
      "hit": false,
      "t": 150212,
      "d": 336,
      "v": 39
    },
    {
      "midi": 34,
      "hit": false,
      "t": 150216,
      "d": 352,
      "v": 43
    },
    {
      "midi": 69,
      "hit": false,
      "t": 150216,
      "d": 648,
      "v": 55
    },
    {
      "midi": 45,
      "hit": false,
      "t": 150648,
      "d": 360,
      "v": 51
    },
    {
      "midi": 33,
      "hit": false,
      "t": 150672,
      "d": 308,
      "v": 36
    },
    {
      "midi": 64,
      "hit": false,
      "t": 151596,
      "d": 576,
      "v": 53
    },
    {
      "midi": 44,
      "hit": false,
      "t": 151600,
      "d": 380,
      "v": 38
    },
    {
      "midi": 72,
      "hit": false,
      "t": 151600,
      "d": 568,
      "v": 58
    },
    {
      "midi": 68,
      "hit": false,
      "t": 151604,
      "d": 600,
      "v": 51
    },
    {
      "midi": 32,
      "hit": false,
      "t": 151612,
      "d": 360,
      "v": 34
    },
    {
      "midi": 75,
      "hit": false,
      "t": 153100,
      "d": 872,
      "v": 55
    },
    {
      "midi": 30,
      "hit": false,
      "t": 153108,
      "d": 160,
      "v": 37
    },
    {
      "midi": 42,
      "hit": false,
      "t": 153116,
      "d": 196,
      "v": 28
    },
    {
      "midi": 64,
      "hit": false,
      "t": 153116,
      "d": 724,
      "v": 38
    },
    {
      "midi": 72,
      "hit": false,
      "t": 153116,
      "d": 808,
      "v": 47
    },
    {
      "midi": 68,
      "hit": false,
      "t": 153124,
      "d": 688,
      "v": 42
    },
    {
      "midi": 63,
      "hit": false,
      "t": 153584,
      "d": 352,
      "v": 56
    },
    {
      "midi": 61,
      "hit": false,
      "t": 153964,
      "d": 152,
      "v": 39
    },
    {
      "midi": 68,
      "hit": false,
      "t": 153968,
      "d": 376,
      "v": 42
    },
    {
      "midi": 64,
      "hit": false,
      "t": 153980,
      "d": 452,
      "v": 40
    },
    {
      "midi": 73,
      "hit": false,
      "t": 154240,
      "d": 88,
      "v": 62
    },
    {
      "midi": 41,
      "hit": false,
      "t": 154484,
      "d": 480,
      "v": 44
    },
    {
      "midi": 72,
      "hit": false,
      "t": 154484,
      "d": 668,
      "v": 49
    },
    {
      "midi": 48,
      "hit": false,
      "t": 154724,
      "d": 212,
      "v": 37
    },
    {
      "midi": 60,
      "hit": false,
      "t": 154976,
      "d": 156,
      "v": 43
    },
    {
      "midi": 53,
      "hit": false,
      "t": 155000,
      "d": 32,
      "v": 29
    },
    {
      "midi": 60,
      "hit": false,
      "t": 155200,
      "d": 500,
      "v": 24
    },
    {
      "midi": 65,
      "hit": false,
      "t": 155220,
      "d": 244,
      "v": 48
    },
    {
      "midi": 72,
      "hit": false,
      "t": 155464,
      "d": 72,
      "v": 64
    },
    {
      "midi": 77,
      "hit": false,
      "t": 155696,
      "d": 200,
      "v": 79
    },
    {
      "midi": 77,
      "hit": false,
      "t": 155960,
      "d": 1448,
      "v": 62
    },
    {
      "midi": 50,
      "hit": false,
      "t": 155968,
      "d": 264,
      "v": 47
    },
    {
      "midi": 54,
      "hit": false,
      "t": 156236,
      "d": 56,
      "v": 38
    },
    {
      "midi": 66,
      "hit": false,
      "t": 156520,
      "d": 552,
      "v": 42
    },
    {
      "midi": 60,
      "hit": false,
      "t": 156588,
      "d": 764,
      "v": 11
    },
    {
      "midi": 65,
      "hit": false,
      "t": 156832,
      "d": 440,
      "v": 41
    },
    {
      "midi": 66,
      "hit": false,
      "t": 157184,
      "d": 456,
      "v": 30
    },
    {
      "midi": 60,
      "hit": false,
      "t": 157628,
      "d": 104,
      "v": 38
    },
    {
      "midi": 67,
      "hit": false,
      "t": 158584,
      "d": 296,
      "v": 35
    },
    {
      "midi": 68,
      "hit": false,
      "t": 158832,
      "d": 348,
      "v": 52
    },
    {
      "midi": 70,
      "hit": false,
      "t": 159552,
      "d": 312,
      "v": 50
    },
    {
      "midi": 63,
      "hit": false,
      "t": 159580,
      "d": 1756,
      "v": 45
    },
    {
      "midi": 59,
      "hit": false,
      "t": 159580,
      "d": 3440,
      "v": 35
    },
    {
      "midi": 53,
      "hit": false,
      "t": 159596,
      "d": 2844,
      "v": 32
    },
    {
      "midi": 43,
      "hit": false,
      "t": 159608,
      "d": 2864,
      "v": 32
    },
    {
      "midi": 70,
      "hit": false,
      "t": 159912,
      "d": 216,
      "v": 67
    },
    {
      "midi": 70,
      "hit": false,
      "t": 160424,
      "d": 476,
      "v": 70
    },
    {
      "midi": 68,
      "hit": false,
      "t": 160860,
      "d": 304,
      "v": 69
    },
    {
      "midi": 68,
      "hit": false,
      "t": 161272,
      "d": 1208,
      "v": 69
    },
    {
      "midi": 63,
      "hit": false,
      "t": 161664,
      "d": 352,
      "v": 52
    },
    {
      "midi": 64,
      "hit": false,
      "t": 162100,
      "d": 396,
      "v": 49
    },
    {
      "midi": 68,
      "hit": false,
      "t": 162584,
      "d": 612,
      "v": 46
    },
    {
      "midi": 64,
      "hit": false,
      "t": 162588,
      "d": 384,
      "v": 34
    },
    {
      "midi": 70,
      "hit": false,
      "t": 163920,
      "d": 352,
      "v": 67
    },
    {
      "midi": 58,
      "hit": false,
      "t": 163928,
      "d": 448,
      "v": 59
    },
    {
      "midi": 64,
      "hit": false,
      "t": 163936,
      "d": 356,
      "v": 64
    },
    {
      "midi": 24,
      "hit": false,
      "t": 163940,
      "d": 400,
      "v": 61
    },
    {
      "midi": 36,
      "hit": false,
      "t": 163940,
      "d": 1008,
      "v": 68
    },
    {
      "midi": 49,
      "hit": false,
      "t": 164864,
      "d": 360,
      "v": 45
    },
    {
      "midi": 37,
      "hit": false,
      "t": 164868,
      "d": 416,
      "v": 38
    },
    {
      "midi": 51,
      "hit": false,
      "t": 165200,
      "d": 248,
      "v": 61
    },
    {
      "midi": 39,
      "hit": false,
      "t": 165232,
      "d": 244,
      "v": 39
    },
    {
      "midi": 52,
      "hit": false,
      "t": 165468,
      "d": 180,
      "v": 51
    },
    {
      "midi": 40,
      "hit": false,
      "t": 165476,
      "d": 188,
      "v": 37
    },
    {
      "midi": 42,
      "hit": false,
      "t": 165660,
      "d": 148,
      "v": 36
    },
    {
      "midi": 54,
      "hit": false,
      "t": 165680,
      "d": 76,
      "v": 34
    },
    {
      "midi": 55,
      "hit": false,
      "t": 165804,
      "d": 92,
      "v": 47
    },
    {
      "midi": 43,
      "hit": false,
      "t": 165816,
      "d": 104,
      "v": 44
    },
    {
      "midi": 56,
      "hit": false,
      "t": 165904,
      "d": 28,
      "v": 36
    },
    {
      "midi": 57,
      "hit": false,
      "t": 165960,
      "d": 88,
      "v": 33
    },
    {
      "midi": 45,
      "hit": false,
      "t": 165968,
      "d": 120,
      "v": 34
    },
    {
      "midi": 58,
      "hit": false,
      "t": 166072,
      "d": 96,
      "v": 42
    },
    {
      "midi": 46,
      "hit": false,
      "t": 166128,
      "d": 84,
      "v": 25
    },
    {
      "midi": 60,
      "hit": false,
      "t": 166208,
      "d": 116,
      "v": 50
    },
    {
      "midi": 48,
      "hit": false,
      "t": 166252,
      "d": 152,
      "v": 32
    },
    {
      "midi": 61,
      "hit": false,
      "t": 166340,
      "d": 116,
      "v": 56
    },
    {
      "midi": 49,
      "hit": false,
      "t": 166480,
      "d": 132,
      "v": 23
    },
    {
      "midi": 63,
      "hit": false,
      "t": 166484,
      "d": 92,
      "v": 49
    },
    {
      "midi": 64,
      "hit": false,
      "t": 166620,
      "d": 96,
      "v": 44
    },
    {
      "midi": 66,
      "hit": false,
      "t": 166776,
      "d": 84,
      "v": 49
    },
    {
      "midi": 54,
      "hit": false,
      "t": 166824,
      "d": 208,
      "v": 37
    },
    {
      "midi": 67,
      "hit": false,
      "t": 166904,
      "d": 112,
      "v": 38
    },
    {
      "midi": 55,
      "hit": false,
      "t": 166960,
      "d": 84,
      "v": 46
    },
    {
      "midi": 69,
      "hit": false,
      "t": 167036,
      "d": 92,
      "v": 48
    },
    {
      "midi": 57,
      "hit": false,
      "t": 167072,
      "d": 92,
      "v": 39
    },
    {
      "midi": 70,
      "hit": false,
      "t": 167160,
      "d": 72,
      "v": 61
    },
    {
      "midi": 58,
      "hit": false,
      "t": 167160,
      "d": 76,
      "v": 28
    },
    {
      "midi": 72,
      "hit": false,
      "t": 167272,
      "d": 76,
      "v": 60
    },
    {
      "midi": 73,
      "hit": false,
      "t": 167392,
      "d": 76,
      "v": 49
    },
    {
      "midi": 75,
      "hit": false,
      "t": 167496,
      "d": 80,
      "v": 48
    },
    {
      "midi": 61,
      "hit": false,
      "t": 167496,
      "d": 116,
      "v": 30
    },
    {
      "midi": 76,
      "hit": false,
      "t": 167620,
      "d": 80,
      "v": 47
    },
    {
      "midi": 78,
      "hit": false,
      "t": 167748,
      "d": 76,
      "v": 44
    },
    {
      "midi": 63,
      "hit": false,
      "t": 167748,
      "d": 156,
      "v": 23
    },
    {
      "midi": 79,
      "hit": false,
      "t": 167864,
      "d": 84,
      "v": 41
    },
    {
      "midi": 81,
      "hit": false,
      "t": 167996,
      "d": 108,
      "v": 48
    },
    {
      "midi": 67,
      "hit": false,
      "t": 168120,
      "d": 200,
      "v": 29
    },
    {
      "midi": 82,
      "hit": false,
      "t": 168128,
      "d": 136,
      "v": 58
    },
    {
      "midi": 84,
      "hit": false,
      "t": 168280,
      "d": 28,
      "v": 51
    },
    {
      "midi": 63,
      "hit": false,
      "t": 168736,
      "d": 100,
      "v": 49
    },
    {
      "midi": 60,
      "hit": false,
      "t": 168736,
      "d": 124,
      "v": 34
    },
    {
      "midi": 64,
      "hit": false,
      "t": 168888,
      "d": 76,
      "v": 45
    },
    {
      "midi": 61,
      "hit": false,
      "t": 168888,
      "d": 128,
      "v": 50
    },
    {
      "midi": 66,
      "hit": false,
      "t": 169004,
      "d": 72,
      "v": 47
    },
    {
      "midi": 63,
      "hit": false,
      "t": 169004,
      "d": 112,
      "v": 42
    },
    {
      "midi": 67,
      "hit": false,
      "t": 169128,
      "d": 72,
      "v": 53
    },
    {
      "midi": 69,
      "hit": false,
      "t": 169248,
      "d": 88,
      "v": 67
    },
    {
      "midi": 67,
      "hit": false,
      "t": 169372,
      "d": 48,
      "v": 27
    },
    {
      "midi": 70,
      "hit": false,
      "t": 169372,
      "d": 112,
      "v": 62
    },
    {
      "midi": 66,
      "hit": false,
      "t": 169832,
      "d": 96,
      "v": 46
    },
    {
      "midi": 63,
      "hit": false,
      "t": 169832,
      "d": 216,
      "v": 48
    },
    {
      "midi": 64,
      "hit": false,
      "t": 169956,
      "d": 84,
      "v": 46
    },
    {
      "midi": 67,
      "hit": false,
      "t": 169956,
      "d": 92,
      "v": 44
    },
    {
      "midi": 69,
      "hit": false,
      "t": 170104,
      "d": 88,
      "v": 62
    },
    {
      "midi": 66,
      "hit": false,
      "t": 170104,
      "d": 96,
      "v": 45
    },
    {
      "midi": 70,
      "hit": false,
      "t": 170240,
      "d": 76,
      "v": 63
    },
    {
      "midi": 67,
      "hit": false,
      "t": 170240,
      "d": 100,
      "v": 30
    },
    {
      "midi": 72,
      "hit": false,
      "t": 170380,
      "d": 100,
      "v": 44
    },
    {
      "midi": 69,
      "hit": false,
      "t": 170456,
      "d": 444,
      "v": 25
    },
    {
      "midi": 73,
      "hit": false,
      "t": 170560,
      "d": 352,
      "v": 59
    },
    {
      "midi": 72,
      "hit": false,
      "t": 170912,
      "d": 120,
      "v": 53
    },
    {
      "midi": 67,
      "hit": false,
      "t": 170912,
      "d": 140,
      "v": 31
    },
    {
      "midi": 73,
      "hit": false,
      "t": 171072,
      "d": 92,
      "v": 56
    },
    {
      "midi": 69,
      "hit": false,
      "t": 171072,
      "d": 104,
      "v": 47
    },
    {
      "midi": 75,
      "hit": false,
      "t": 171232,
      "d": 112,
      "v": 60
    },
    {
      "midi": 70,
      "hit": false,
      "t": 171232,
      "d": 116,
      "v": 50
    },
    {
      "midi": 76,
      "hit": false,
      "t": 171396,
      "d": 84,
      "v": 49
    },
    {
      "midi": 69,
      "hit": false,
      "t": 172028,
      "d": 132,
      "v": 18
    },
    {
      "midi": 73,
      "hit": false,
      "t": 172028,
      "d": 192,
      "v": 56
    },
    {
      "midi": 75,
      "hit": false,
      "t": 172216,
      "d": 136,
      "v": 53
    },
    {
      "midi": 70,
      "hit": false,
      "t": 172216,
      "d": 148,
      "v": 34
    },
    {
      "midi": 72,
      "hit": false,
      "t": 172416,
      "d": 112,
      "v": 32
    },
    {
      "midi": 76,
      "hit": false,
      "t": 172424,
      "d": 136,
      "v": 38
    },
    {
      "midi": 79,
      "hit": false,
      "t": 172600,
      "d": 96,
      "v": 51
    },
    {
      "midi": 73,
      "hit": false,
      "t": 172604,
      "d": 216,
      "v": 40
    },
    {
      "midi": 87,
      "hit": false,
      "t": 172796,
      "d": 148,
      "v": 62
    },
    {
      "midi": 70,
      "hit": false,
      "t": 172796,
      "d": 188,
      "v": 47
    },
    {
      "midi": 79,
      "hit": false,
      "t": 172984,
      "d": 144,
      "v": 43
    },
    {
      "midi": 67,
      "hit": false,
      "t": 173000,
      "d": 384,
      "v": 37
    },
    {
      "midi": 82,
      "hit": false,
      "t": 173180,
      "d": 136,
      "v": 48
    },
    {
      "midi": 73,
      "hit": false,
      "t": 173228,
      "d": 132,
      "v": 29
    },
    {
      "midi": 87,
      "hit": false,
      "t": 173356,
      "d": 68,
      "v": 67
    },
    {
      "midi": 76,
      "hit": false,
      "t": 173400,
      "d": 76,
      "v": 35
    },
    {
      "midi": 77,
      "hit": false,
      "t": 173576,
      "d": 104,
      "v": 35
    },
    {
      "midi": 88,
      "hit": false,
      "t": 173576,
      "d": 164,
      "v": 57
    },
    {
      "midi": 96,
      "hit": false,
      "t": 173596,
      "d": 120,
      "v": 53
    },
    {
      "midi": 95,
      "hit": false,
      "t": 173604,
      "d": 116,
      "v": 46
    },
    {
      "midi": 91,
      "hit": false,
      "t": 173784,
      "d": 168,
      "v": 51
    },
    {
      "midi": 84,
      "hit": false,
      "t": 173804,
      "d": 148,
      "v": 34
    },
    {
      "midi": 78,
      "hit": false,
      "t": 173988,
      "d": 208,
      "v": 35
    },
    {
      "midi": 88,
      "hit": false,
      "t": 174004,
      "d": 36,
      "v": 44
    },
    {
      "midi": 91,
      "hit": false,
      "t": 174032,
      "d": 32,
      "v": 22
    },
    {
      "midi": 103,
      "hit": false,
      "t": 174224,
      "d": 144,
      "v": 64
    },
    {
      "midi": 100,
      "hit": false,
      "t": 174440,
      "d": 312,
      "v": 53
    },
    {
      "midi": 91,
      "hit": false,
      "t": 174464,
      "d": 128,
      "v": 24
    },
    {
      "midi": 96,
      "hit": false,
      "t": 174684,
      "d": 32,
      "v": 55
    },
    {
      "midi": 91,
      "hit": false,
      "t": 174688,
      "d": 32,
      "v": 32
    },
    {
      "midi": 87,
      "hit": false,
      "t": 174696,
      "d": 40,
      "v": 29
    },
    {
      "midi": 108,
      "hit": false,
      "t": 174952,
      "d": 72,
      "v": 99
    },
    {
      "midi": 88,
      "hit": false,
      "t": 174956,
      "d": 36,
      "v": 24
    },
    {
      "midi": 60,
      "hit": false,
      "t": 176316,
      "d": 48,
      "v": 48
    },
    {
      "midi": 60,
      "hit": false,
      "t": 176424,
      "d": 76,
      "v": 63
    },
    {
      "midi": 60,
      "hit": false,
      "t": 176560,
      "d": 80,
      "v": 81
    },
    {
      "midi": 60,
      "hit": false,
      "t": 176696,
      "d": 84,
      "v": 87
    },
    {
      "midi": 60,
      "hit": false,
      "t": 176836,
      "d": 76,
      "v": 75
    },
    {
      "midi": 60,
      "hit": false,
      "t": 176976,
      "d": 88,
      "v": 80
    },
    {
      "midi": 60,
      "hit": false,
      "t": 177116,
      "d": 64,
      "v": 65
    },
    {
      "midi": 60,
      "hit": false,
      "t": 177252,
      "d": 76,
      "v": 59
    },
    {
      "midi": 60,
      "hit": false,
      "t": 177384,
      "d": 36,
      "v": 55
    },
    {
      "midi": 60,
      "hit": false,
      "t": 177516,
      "d": 32,
      "v": 53
    },
    {
      "midi": 60,
      "hit": false,
      "t": 177604,
      "d": 60,
      "v": 50
    },
    {
      "midi": 60,
      "hit": false,
      "t": 177712,
      "d": 72,
      "v": 68
    },
    {
      "midi": 60,
      "hit": false,
      "t": 177824,
      "d": 76,
      "v": 73
    },
    {
      "midi": 60,
      "hit": false,
      "t": 177944,
      "d": 84,
      "v": 78
    },
    {
      "midi": 60,
      "hit": false,
      "t": 178088,
      "d": 84,
      "v": 74
    },
    {
      "midi": 60,
      "hit": false,
      "t": 178240,
      "d": 56,
      "v": 68
    },
    {
      "midi": 60,
      "hit": false,
      "t": 178384,
      "d": 56,
      "v": 66
    },
    {
      "midi": 60,
      "hit": false,
      "t": 178524,
      "d": 64,
      "v": 64
    },
    {
      "midi": 60,
      "hit": false,
      "t": 178672,
      "d": 64,
      "v": 44
    },
    {
      "midi": 60,
      "hit": false,
      "t": 178884,
      "d": 660,
      "v": 47
    },
    {
      "midi": 64,
      "hit": false,
      "t": 178892,
      "d": 620,
      "v": 41
    },
    {
      "midi": 67,
      "hit": false,
      "t": 178892,
      "d": 4288,
      "v": 24
    },
    {
      "midi": 56,
      "hit": false,
      "t": 178896,
      "d": 628,
      "v": 32
    },
    {
      "midi": 52,
      "hit": false,
      "t": 178928,
      "d": 344,
      "v": 17
    },
    {
      "midi": 41,
      "hit": false,
      "t": 178928,
      "d": 4396,
      "v": 29
    },
    {
      "midi": 48,
      "hit": false,
      "t": 179304,
      "d": 952,
      "v": 29
    },
    {
      "midi": 56,
      "hit": false,
      "t": 179664,
      "d": 540,
      "v": 28
    },
    {
      "midi": 64,
      "hit": false,
      "t": 179672,
      "d": 592,
      "v": 34
    },
    {
      "midi": 60,
      "hit": false,
      "t": 179680,
      "d": 564,
      "v": 32
    },
    {
      "midi": 55,
      "hit": false,
      "t": 179964,
      "d": 68,
      "v": 33
    },
    {
      "midi": 55,
      "hit": false,
      "t": 180212,
      "d": 44,
      "v": 25
    },
    {
      "midi": 56,
      "hit": false,
      "t": 180328,
      "d": 104,
      "v": 25
    },
    {
      "midi": 60,
      "hit": false,
      "t": 180424,
      "d": 72,
      "v": 29
    },
    {
      "midi": 56,
      "hit": false,
      "t": 180528,
      "d": 116,
      "v": 34
    },
    {
      "midi": 60,
      "hit": false,
      "t": 180600,
      "d": 96,
      "v": 33
    },
    {
      "midi": 64,
      "hit": false,
      "t": 180616,
      "d": 104,
      "v": 28
    },
    {
      "midi": 55,
      "hit": false,
      "t": 180644,
      "d": 84,
      "v": 46
    },
    {
      "midi": 56,
      "hit": false,
      "t": 180760,
      "d": 116,
      "v": 38
    },
    {
      "midi": 60,
      "hit": false,
      "t": 180812,
      "d": 116,
      "v": 28
    },
    {
      "midi": 64,
      "hit": false,
      "t": 180848,
      "d": 104,
      "v": 18
    },
    {
      "midi": 55,
      "hit": false,
      "t": 180900,
      "d": 92,
      "v": 57
    },
    {
      "midi": 56,
      "hit": false,
      "t": 180984,
      "d": 120,
      "v": 46
    },
    {
      "midi": 60,
      "hit": false,
      "t": 181028,
      "d": 120,
      "v": 36
    },
    {
      "midi": 64,
      "hit": false,
      "t": 181056,
      "d": 112,
      "v": 22
    },
    {
      "midi": 55,
      "hit": false,
      "t": 181176,
      "d": 44,
      "v": 46
    },
    {
      "midi": 56,
      "hit": false,
      "t": 181208,
      "d": 120,
      "v": 40
    },
    {
      "midi": 60,
      "hit": false,
      "t": 181256,
      "d": 128,
      "v": 30
    },
    {
      "midi": 64,
      "hit": false,
      "t": 181308,
      "d": 108,
      "v": 17
    },
    {
      "midi": 55,
      "hit": false,
      "t": 181416,
      "d": 56,
      "v": 40
    },
    {
      "midi": 56,
      "hit": false,
      "t": 181440,
      "d": 120,
      "v": 44
    },
    {
      "midi": 60,
      "hit": false,
      "t": 181500,
      "d": 116,
      "v": 30
    },
    {
      "midi": 64,
      "hit": false,
      "t": 181528,
      "d": 120,
      "v": 22
    },
    {
      "midi": 55,
      "hit": false,
      "t": 181640,
      "d": 72,
      "v": 40
    },
    {
      "midi": 56,
      "hit": false,
      "t": 181664,
      "d": 128,
      "v": 37
    },
    {
      "midi": 60,
      "hit": false,
      "t": 181736,
      "d": 124,
      "v": 30
    },
    {
      "midi": 64,
      "hit": false,
      "t": 181776,
      "d": 112,
      "v": 17
    },
    {
      "midi": 55,
      "hit": false,
      "t": 181892,
      "d": 72,
      "v": 33
    },
    {
      "midi": 56,
      "hit": false,
      "t": 181896,
      "d": 148,
      "v": 35
    },
    {
      "midi": 60,
      "hit": false,
      "t": 181976,
      "d": 120,
      "v": 32
    },
    {
      "midi": 64,
      "hit": false,
      "t": 182004,
      "d": 124,
      "v": 28
    },
    {
      "midi": 55,
      "hit": false,
      "t": 182124,
      "d": 76,
      "v": 42
    },
    {
      "midi": 56,
      "hit": false,
      "t": 182144,
      "d": 144,
      "v": 34
    },
    {
      "midi": 60,
      "hit": false,
      "t": 182220,
      "d": 108,
      "v": 30
    },
    {
      "midi": 64,
      "hit": false,
      "t": 182252,
      "d": 100,
      "v": 22
    },
    {
      "midi": 55,
      "hit": false,
      "t": 182344,
      "d": 80,
      "v": 36
    },
    {
      "midi": 56,
      "hit": false,
      "t": 182384,
      "d": 136,
      "v": 35
    },
    {
      "midi": 60,
      "hit": false,
      "t": 182464,
      "d": 108,
      "v": 25
    },
    {
      "midi": 55,
      "hit": false,
      "t": 182572,
      "d": 84,
      "v": 38
    },
    {
      "midi": 56,
      "hit": false,
      "t": 182620,
      "d": 148,
      "v": 39
    },
    {
      "midi": 60,
      "hit": false,
      "t": 182720,
      "d": 108,
      "v": 33
    },
    {
      "midi": 55,
      "hit": false,
      "t": 182804,
      "d": 92,
      "v": 36
    },
    {
      "midi": 56,
      "hit": false,
      "t": 182884,
      "d": 172,
      "v": 32
    },
    {
      "midi": 60,
      "hit": false,
      "t": 182956,
      "d": 128,
      "v": 26
    },
    {
      "midi": 55,
      "hit": false,
      "t": 183052,
      "d": 284,
      "v": 36
    },
    {
      "midi": 60,
      "hit": false,
      "t": 184336,
      "d": 372,
      "v": 69
    },
    {
      "midi": 64,
      "hit": false,
      "t": 184344,
      "d": 360,
      "v": 71
    },
    {
      "midi": 79,
      "hit": false,
      "t": 184348,
      "d": 236,
      "v": 82
    },
    {
      "midi": 67,
      "hit": false,
      "t": 184348,
      "d": 260,
      "v": 83
    },
    {
      "midi": 53,
      "hit": false,
      "t": 184352,
      "d": 408,
      "v": 60
    },
    {
      "midi": 54,
      "hit": false,
      "t": 184356,
      "d": 328,
      "v": 36
    },
    {
      "midi": 67,
      "hit": false,
      "t": 184672,
      "d": 56,
      "v": 66
    },
    {
      "midi": 79,
      "hit": false,
      "t": 184680,
      "d": 72,
      "v": 45
    },
    {
      "midi": 56,
      "hit": false,
      "t": 185276,
      "d": 84,
      "v": 39
    },
    {
      "midi": 60,
      "hit": false,
      "t": 185280,
      "d": 48,
      "v": 52
    },
    {
      "midi": 63,
      "hit": false,
      "t": 186116,
      "d": 32,
      "v": 62
    },
    {
      "midi": 67,
      "hit": false,
      "t": 186116,
      "d": 60,
      "v": 72
    },
    {
      "midi": 59,
      "hit": false,
      "t": 186132,
      "d": 36,
      "v": 41
    },
    {
      "midi": 56,
      "hit": false,
      "t": 186148,
      "d": 76,
      "v": 26
    },
    {
      "midi": 68,
      "hit": false,
      "t": 186264,
      "d": 160,
      "v": 98
    },
    {
      "midi": 70,
      "hit": false,
      "t": 186400,
      "d": 112,
      "v": 82
    },
    {
      "midi": 68,
      "hit": false,
      "t": 186544,
      "d": 140,
      "v": 88
    },
    {
      "midi": 63,
      "hit": false,
      "t": 186552,
      "d": 496,
      "v": 59
    },
    {
      "midi": 59,
      "hit": false,
      "t": 186560,
      "d": 452,
      "v": 55
    },
    {
      "midi": 53,
      "hit": false,
      "t": 186572,
      "d": 456,
      "v": 48
    },
    {
      "midi": 56,
      "hit": false,
      "t": 186572,
      "d": 508,
      "v": 29
    },
    {
      "midi": 70,
      "hit": false,
      "t": 186696,
      "d": 128,
      "v": 49
    },
    {
      "midi": 68,
      "hit": false,
      "t": 186848,
      "d": 108,
      "v": 57
    },
    {
      "midi": 63,
      "hit": false,
      "t": 187544,
      "d": 64,
      "v": 51
    },
    {
      "midi": 58,
      "hit": false,
      "t": 187560,
      "d": 76,
      "v": 44
    },
    {
      "midi": 52,
      "hit": false,
      "t": 187572,
      "d": 36,
      "v": 33
    },
    {
      "midi": 66,
      "hit": false,
      "t": 188084,
      "d": 68,
      "v": 90
    },
    {
      "midi": 60,
      "hit": false,
      "t": 188092,
      "d": 100,
      "v": 64
    },
    {
      "midi": 64,
      "hit": false,
      "t": 188096,
      "d": 56,
      "v": 69
    },
    {
      "midi": 67,
      "hit": false,
      "t": 188100,
      "d": 136,
      "v": 81
    },
    {
      "midi": 56,
      "hit": false,
      "t": 188100,
      "d": 140,
      "v": 52
    },
    {
      "midi": 53,
      "hit": false,
      "t": 188104,
      "d": 88,
      "v": 53
    },
    {
      "midi": 65,
      "hit": false,
      "t": 188292,
      "d": 228,
      "v": 59
    },
    {
      "midi": 67,
      "hit": false,
      "t": 188576,
      "d": 92,
      "v": 65
    },
    {
      "midi": 68,
      "hit": false,
      "t": 188744,
      "d": 240,
      "v": 64
    },
    {
      "midi": 63,
      "hit": false,
      "t": 189024,
      "d": 60,
      "v": 75
    },
    {
      "midi": 70,
      "hit": false,
      "t": 189024,
      "d": 112,
      "v": 71
    },
    {
      "midi": 52,
      "hit": false,
      "t": 189032,
      "d": 32,
      "v": 71
    },
    {
      "midi": 58,
      "hit": false,
      "t": 189032,
      "d": 300,
      "v": 63
    },
    {
      "midi": 70,
      "hit": false,
      "t": 189180,
      "d": 68,
      "v": 60
    },
    {
      "midi": 71,
      "hit": false,
      "t": 189248,
      "d": 88,
      "v": 75
    },
    {
      "midi": 72,
      "hit": false,
      "t": 189296,
      "d": 148,
      "v": 68
    },
    {
      "midi": 70,
      "hit": false,
      "t": 189512,
      "d": 120,
      "v": 82
    },
    {
      "midi": 63,
      "hit": false,
      "t": 189556,
      "d": 48,
      "v": 55
    },
    {
      "midi": 58,
      "hit": false,
      "t": 189568,
      "d": 108,
      "v": 38
    },
    {
      "midi": 68,
      "hit": false,
      "t": 189688,
      "d": 176,
      "v": 50
    },
    {
      "midi": 60,
      "hit": false,
      "t": 189968,
      "d": 80,
      "v": 59
    },
    {
      "midi": 67,
      "hit": false,
      "t": 189968,
      "d": 252,
      "v": 80
    },
    {
      "midi": 62,
      "hit": false,
      "t": 189976,
      "d": 32,
      "v": 61
    },
    {
      "midi": 56,
      "hit": false,
      "t": 189976,
      "d": 120,
      "v": 39
    },
    {
      "midi": 68,
      "hit": false,
      "t": 190240,
      "d": 144,
      "v": 60
    },
    {
      "midi": 67,
      "hit": false,
      "t": 190344,
      "d": 108,
      "v": 45
    },
    {
      "midi": 65,
      "hit": false,
      "t": 190472,
      "d": 68,
      "v": 60
    },
    {
      "midi": 56,
      "hit": false,
      "t": 190496,
      "d": 96,
      "v": 14
    },
    {
      "midi": 64,
      "hit": false,
      "t": 190600,
      "d": 344,
      "v": 53
    },
    {
      "midi": 65,
      "hit": false,
      "t": 190924,
      "d": 492,
      "v": 75
    },
    {
      "midi": 63,
      "hit": false,
      "t": 191416,
      "d": 52,
      "v": 59
    },
    {
      "midi": 59,
      "hit": false,
      "t": 191424,
      "d": 52,
      "v": 54
    },
    {
      "midi": 56,
      "hit": false,
      "t": 191432,
      "d": 96,
      "v": 35
    },
    {
      "midi": 72,
      "hit": false,
      "t": 191892,
      "d": 64,
      "v": 57
    },
    {
      "midi": 58,
      "hit": false,
      "t": 192032,
      "d": 88,
      "v": 45
    },
    {
      "midi": 61,
      "hit": false,
      "t": 192040,
      "d": 44,
      "v": 40
    },
    {
      "midi": 79,
      "hit": false,
      "t": 192044,
      "d": 60,
      "v": 67
    },
    {
      "midi": 67,
      "hit": false,
      "t": 192048,
      "d": 56,
      "v": 67
    },
    {
      "midi": 53,
      "hit": false,
      "t": 192064,
      "d": 40,
      "v": 27
    },
    {
      "midi": 68,
      "hit": false,
      "t": 192376,
      "d": 256,
      "v": 83
    },
    {
      "midi": 80,
      "hit": false,
      "t": 192380,
      "d": 264,
      "v": 81
    },
    {
      "midi": 58,
      "hit": false,
      "t": 192384,
      "d": 284,
      "v": 63
    },
    {
      "midi": 61,
      "hit": false,
      "t": 192388,
      "d": 260,
      "v": 72
    },
    {
      "midi": 53,
      "hit": false,
      "t": 192392,
      "d": 248,
      "v": 69
    },
    {
      "midi": 55,
      "hit": false,
      "t": 192404,
      "d": 240,
      "v": 66
    },
    {
      "midi": 61,
      "hit": false,
      "t": 192716,
      "d": 56,
      "v": 36
    },
    {
      "midi": 53,
      "hit": false,
      "t": 192720,
      "d": 32,
      "v": 52
    },
    {
      "midi": 70,
      "hit": false,
      "t": 192732,
      "d": 44,
      "v": 48
    },
    {
      "midi": 55,
      "hit": false,
      "t": 192736,
      "d": 36,
      "v": 35
    },
    {
      "midi": 82,
      "hit": false,
      "t": 192736,
      "d": 48,
      "v": 56
    },
    {
      "midi": 58,
      "hit": false,
      "t": 192736,
      "d": 64,
      "v": 43
    },
    {
      "midi": 61,
      "hit": false,
      "t": 192844,
      "d": 52,
      "v": 42
    },
    {
      "midi": 58,
      "hit": false,
      "t": 192852,
      "d": 84,
      "v": 43
    },
    {
      "midi": 53,
      "hit": false,
      "t": 192856,
      "d": 28,
      "v": 45
    },
    {
      "midi": 84,
      "hit": false,
      "t": 192872,
      "d": 24,
      "v": 61
    },
    {
      "midi": 71,
      "hit": false,
      "t": 192872,
      "d": 32,
      "v": 37
    },
    {
      "midi": 83,
      "hit": false,
      "t": 192876,
      "d": 28,
      "v": 37
    },
    {
      "midi": 72,
      "hit": false,
      "t": 192876,
      "d": 32,
      "v": 42
    },
    {
      "midi": 63,
      "hit": false,
      "t": 193004,
      "d": 60,
      "v": 76
    },
    {
      "midi": 58,
      "hit": false,
      "t": 193004,
      "d": 104,
      "v": 67
    },
    {
      "midi": 73,
      "hit": false,
      "t": 193012,
      "d": 72,
      "v": 53
    },
    {
      "midi": 85,
      "hit": false,
      "t": 193012,
      "d": 76,
      "v": 78
    },
    {
      "midi": 52,
      "hit": false,
      "t": 193020,
      "d": 28,
      "v": 67
    },
    {
      "midi": 72,
      "hit": false,
      "t": 193156,
      "d": 28,
      "v": 61
    },
    {
      "midi": 84,
      "hit": false,
      "t": 193160,
      "d": 24,
      "v": 55
    },
    {
      "midi": 58,
      "hit": false,
      "t": 193164,
      "d": 60,
      "v": 30
    },
    {
      "midi": 75,
      "hit": false,
      "t": 193320,
      "d": 120,
      "v": 91
    },
    {
      "midi": 87,
      "hit": false,
      "t": 193320,
      "d": 120,
      "v": 88
    },
    {
      "midi": 63,
      "hit": false,
      "t": 193328,
      "d": 120,
      "v": 83
    },
    {
      "midi": 58,
      "hit": false,
      "t": 193328,
      "d": 164,
      "v": 78
    },
    {
      "midi": 85,
      "hit": false,
      "t": 193336,
      "d": 28,
      "v": 62
    },
    {
      "midi": 52,
      "hit": false,
      "t": 193336,
      "d": 104,
      "v": 85
    },
    {
      "midi": 63,
      "hit": false,
      "t": 193528,
      "d": 192,
      "v": 81
    },
    {
      "midi": 87,
      "hit": false,
      "t": 193528,
      "d": 208,
      "v": 86
    },
    {
      "midi": 52,
      "hit": false,
      "t": 193532,
      "d": 204,
      "v": 79
    },
    {
      "midi": 75,
      "hit": false,
      "t": 193532,
      "d": 204,
      "v": 83
    },
    {
      "midi": 58,
      "hit": false,
      "t": 193532,
      "d": 380,
      "v": 63
    },
    {
      "midi": 63,
      "hit": false,
      "t": 193784,
      "d": 104,
      "v": 57
    },
    {
      "midi": 52,
      "hit": false,
      "t": 193788,
      "d": 64,
      "v": 32
    },
    {
      "midi": 85,
      "hit": false,
      "t": 193812,
      "d": 88,
      "v": 77
    },
    {
      "midi": 73,
      "hit": false,
      "t": 193816,
      "d": 100,
      "v": 45
    },
    {
      "midi": 75,
      "hit": false,
      "t": 193824,
      "d": 32,
      "v": 50
    },
    {
      "midi": 64,
      "hit": false,
      "t": 193964,
      "d": 68,
      "v": 58
    },
    {
      "midi": 84,
      "hit": false,
      "t": 193972,
      "d": 64,
      "v": 58
    },
    {
      "midi": 60,
      "hit": false,
      "t": 193980,
      "d": 48,
      "v": 43
    },
    {
      "midi": 72,
      "hit": false,
      "t": 193984,
      "d": 32,
      "v": 53
    },
    {
      "midi": 53,
      "hit": false,
      "t": 193984,
      "d": 56,
      "v": 44
    },
    {
      "midi": 56,
      "hit": false,
      "t": 193984,
      "d": 68,
      "v": 34
    },
    {
      "midi": 72,
      "hit": false,
      "t": 194268,
      "d": 52,
      "v": 79
    },
    {
      "midi": 84,
      "hit": false,
      "t": 194268,
      "d": 56,
      "v": 79
    },
    {
      "midi": 60,
      "hit": false,
      "t": 194268,
      "d": 60,
      "v": 73
    },
    {
      "midi": 56,
      "hit": false,
      "t": 194272,
      "d": 104,
      "v": 44
    },
    {
      "midi": 64,
      "hit": false,
      "t": 194276,
      "d": 24,
      "v": 71
    },
    {
      "midi": 53,
      "hit": false,
      "t": 194280,
      "d": 88,
      "v": 46
    },
    {
      "midi": 67,
      "hit": false,
      "t": 194744,
      "d": 92,
      "v": 76
    },
    {
      "midi": 57,
      "hit": false,
      "t": 194748,
      "d": 96,
      "v": 80
    },
    {
      "midi": 62,
      "hit": false,
      "t": 194752,
      "d": 112,
      "v": 70
    },
    {
      "midi": 52,
      "hit": false,
      "t": 194756,
      "d": 216,
      "v": 78
    },
    {
      "midi": 66,
      "hit": false,
      "t": 194760,
      "d": 28,
      "v": 37
    },
    {
      "midi": 51,
      "hit": false,
      "t": 194776,
      "d": 36,
      "v": 49
    },
    {
      "midi": 66,
      "hit": false,
      "t": 194932,
      "d": 344,
      "v": 61
    },
    {
      "midi": 61,
      "hit": false,
      "t": 194948,
      "d": 364,
      "v": 57
    },
    {
      "midi": 56,
      "hit": false,
      "t": 194952,
      "d": 368,
      "v": 32
    },
    {
      "midi": 51,
      "hit": false,
      "t": 194960,
      "d": 412,
      "v": 47
    },
    {
      "midi": 49,
      "hit": false,
      "t": 195316,
      "d": 108,
      "v": 44
    },
    {
      "midi": 54,
      "hit": false,
      "t": 195404,
      "d": 372,
      "v": 55
    },
    {
      "midi": 65,
      "hit": false,
      "t": 195416,
      "d": 248,
      "v": 58
    },
    {
      "midi": 60,
      "hit": false,
      "t": 195424,
      "d": 240,
      "v": 55
    },
    {
      "midi": 50,
      "hit": false,
      "t": 195428,
      "d": 388,
      "v": 47
    },
    {
      "midi": 46,
      "hit": false,
      "t": 195752,
      "d": 76,
      "v": 37
    },
    {
      "midi": 63,
      "hit": false,
      "t": 195856,
      "d": 152,
      "v": 46
    },
    {
      "midi": 49,
      "hit": false,
      "t": 195864,
      "d": 304,
      "v": 46
    },
    {
      "midi": 56,
      "hit": false,
      "t": 195876,
      "d": 108,
      "v": 42
    },
    {
      "midi": 53,
      "hit": false,
      "t": 195880,
      "d": 80,
      "v": 44
    },
    {
      "midi": 59,
      "hit": false,
      "t": 195884,
      "d": 100,
      "v": 45
    },
    {
      "midi": 70,
      "hit": false,
      "t": 196200,
      "d": 108,
      "v": 72
    },
    {
      "midi": 59,
      "hit": false,
      "t": 196208,
      "d": 84,
      "v": 67
    },
    {
      "midi": 63,
      "hit": false,
      "t": 196208,
      "d": 100,
      "v": 62
    },
    {
      "midi": 58,
      "hit": false,
      "t": 196216,
      "d": 68,
      "v": 78
    },
    {
      "midi": 67,
      "hit": false,
      "t": 196216,
      "d": 80,
      "v": 55
    },
    {
      "midi": 68,
      "hit": false,
      "t": 196356,
      "d": 76,
      "v": 32
    },
    {
      "midi": 56,
      "hit": false,
      "t": 196372,
      "d": 144,
      "v": 33
    },
    {
      "midi": 70,
      "hit": false,
      "t": 196536,
      "d": 256,
      "v": 76
    },
    {
      "midi": 67,
      "hit": false,
      "t": 196540,
      "d": 208,
      "v": 68
    },
    {
      "midi": 63,
      "hit": false,
      "t": 196540,
      "d": 220,
      "v": 69
    },
    {
      "midi": 59,
      "hit": false,
      "t": 196544,
      "d": 232,
      "v": 72
    },
    {
      "midi": 58,
      "hit": false,
      "t": 196544,
      "d": 268,
      "v": 74
    },
    {
      "midi": 56,
      "hit": false,
      "t": 196848,
      "d": 532,
      "v": 51
    },
    {
      "midi": 68,
      "hit": false,
      "t": 196852,
      "d": 564,
      "v": 57
    },
    {
      "midi": 59,
      "hit": false,
      "t": 196856,
      "d": 656,
      "v": 41
    },
    {
      "midi": 63,
      "hit": false,
      "t": 196856,
      "d": 732,
      "v": 55
    },
    {
      "midi": 54,
      "hit": false,
      "t": 197652,
      "d": 132,
      "v": 55
    },
    {
      "midi": 65,
      "hit": false,
      "t": 197660,
      "d": 84,
      "v": 47
    },
    {
      "midi": 58,
      "hit": false,
      "t": 197800,
      "d": 104,
      "v": 73
    },
    {
      "midi": 67,
      "hit": false,
      "t": 197804,
      "d": 136,
      "v": 64
    },
    {
      "midi": 61,
      "hit": false,
      "t": 197808,
      "d": 124,
      "v": 57
    },
    {
      "midi": 55,
      "hit": false,
      "t": 197816,
      "d": 152,
      "v": 72
    },
    {
      "midi": 65,
      "hit": false,
      "t": 197828,
      "d": 32,
      "v": 58
    },
    {
      "midi": 54,
      "hit": false,
      "t": 197968,
      "d": 128,
      "v": 52
    },
    {
      "midi": 58,
      "hit": false,
      "t": 198112,
      "d": 132,
      "v": 71
    },
    {
      "midi": 61,
      "hit": false,
      "t": 198112,
      "d": 156,
      "v": 68
    },
    {
      "midi": 55,
      "hit": false,
      "t": 198116,
      "d": 140,
      "v": 74
    },
    {
      "midi": 67,
      "hit": false,
      "t": 198116,
      "d": 148,
      "v": 68
    },
    {
      "midi": 54,
      "hit": false,
      "t": 198260,
      "d": 156,
      "v": 50
    },
    {
      "midi": 58,
      "hit": false,
      "t": 198428,
      "d": 116,
      "v": 67
    },
    {
      "midi": 61,
      "hit": false,
      "t": 198428,
      "d": 116,
      "v": 64
    },
    {
      "midi": 65,
      "hit": false,
      "t": 198432,
      "d": 120,
      "v": 68
    },
    {
      "midi": 55,
      "hit": false,
      "t": 198432,
      "d": 136,
      "v": 65
    },
    {
      "midi": 67,
      "hit": false,
      "t": 198436,
      "d": 132,
      "v": 49
    },
    {
      "midi": 75,
      "hit": false,
      "t": 198768,
      "d": 132,
      "v": 81
    },
    {
      "midi": 68,
      "hit": false,
      "t": 198772,
      "d": 132,
      "v": 75
    },
    {
      "midi": 63,
      "hit": false,
      "t": 198772,
      "d": 136,
      "v": 83
    },
    {
      "midi": 64,
      "hit": false,
      "t": 198776,
      "d": 104,
      "v": 79
    },
    {
      "midi": 72,
      "hit": false,
      "t": 198780,
      "d": 112,
      "v": 67
    },
    {
      "midi": 73,
      "hit": false,
      "t": 198800,
      "d": 108,
      "v": 29
    },
    {
      "midi": 61,
      "hit": false,
      "t": 198960,
      "d": 104,
      "v": 35
    },
    {
      "midi": 75,
      "hit": false,
      "t": 199072,
      "d": 244,
      "v": 80
    },
    {
      "midi": 68,
      "hit": false,
      "t": 199076,
      "d": 216,
      "v": 82
    },
    {
      "midi": 63,
      "hit": false,
      "t": 199076,
      "d": 264,
      "v": 80
    },
    {
      "midi": 72,
      "hit": false,
      "t": 199080,
      "d": 240,
      "v": 73
    },
    {
      "midi": 64,
      "hit": false,
      "t": 199084,
      "d": 224,
      "v": 85
    },
    {
      "midi": 73,
      "hit": false,
      "t": 199368,
      "d": 256,
      "v": 51
    },
    {
      "midi": 61,
      "hit": false,
      "t": 199376,
      "d": 172,
      "v": 52
    },
    {
      "midi": 64,
      "hit": false,
      "t": 199380,
      "d": 196,
      "v": 64
    },
    {
      "midi": 68,
      "hit": false,
      "t": 199380,
      "d": 212,
      "v": 71
    },
    {
      "midi": 64,
      "hit": false,
      "t": 199680,
      "d": 428,
      "v": 49
    },
    {
      "midi": 60,
      "hit": false,
      "t": 199684,
      "d": 464,
      "v": 45
    },
    {
      "midi": 72,
      "hit": false,
      "t": 199696,
      "d": 96,
      "v": 54
    },
    {
      "midi": 53,
      "hit": false,
      "t": 199696,
      "d": 500,
      "v": 40
    },
    {
      "midi": 56,
      "hit": false,
      "t": 199696,
      "d": 504,
      "v": 44
    },
    {
      "midi": 67,
      "hit": false,
      "t": 199700,
      "d": 76,
      "v": 52
    },
    {
      "midi": 79,
      "hit": false,
      "t": 200032,
      "d": 104,
      "v": 85
    },
    {
      "midi": 77,
      "hit": false,
      "t": 200192,
      "d": 76,
      "v": 44
    },
    {
      "midi": 72,
      "hit": false,
      "t": 200348,
      "d": 112,
      "v": 64
    },
    {
      "midi": 68,
      "hit": false,
      "t": 200492,
      "d": 68,
      "v": 61
    },
    {
      "midi": 67,
      "hit": false,
      "t": 200644,
      "d": 116,
      "v": 49
    },
    {
      "midi": 56,
      "hit": false,
      "t": 200652,
      "d": 612,
      "v": 33
    },
    {
      "midi": 60,
      "hit": false,
      "t": 200672,
      "d": 600,
      "v": 44
    },
    {
      "midi": 50,
      "hit": false,
      "t": 200688,
      "d": 540,
      "v": 35
    },
    {
      "midi": 67,
      "hit": false,
      "t": 200844,
      "d": 160,
      "v": 40
    },
    {
      "midi": 67,
      "hit": false,
      "t": 201156,
      "d": 264,
      "v": 56
    },
    {
      "midi": 65,
      "hit": false,
      "t": 201464,
      "d": 36,
      "v": 62
    },
    {
      "midi": 65,
      "hit": false,
      "t": 201652,
      "d": 48,
      "v": 28
    },
    {
      "midi": 63,
      "hit": false,
      "t": 201652,
      "d": 492,
      "v": 36
    },
    {
      "midi": 66,
      "hit": false,
      "t": 201660,
      "d": 120,
      "v": 46
    },
    {
      "midi": 59,
      "hit": false,
      "t": 201688,
      "d": 236,
      "v": 20
    },
    {
      "midi": 67,
      "hit": false,
      "t": 201712,
      "d": 100,
      "v": 68
    },
    {
      "midi": 56,
      "hit": false,
      "t": 201728,
      "d": 584,
      "v": 18
    },
    {
      "midi": 68,
      "hit": false,
      "t": 201804,
      "d": 596,
      "v": 68
    },
    {
      "midi": 59,
      "hit": false,
      "t": 202096,
      "d": 104,
      "v": 36
    },
    {
      "midi": 67,
      "hit": false,
      "t": 202332,
      "d": 80,
      "v": 43
    },
    {
      "midi": 66,
      "hit": false,
      "t": 202392,
      "d": 104,
      "v": 53
    },
    {
      "midi": 65,
      "hit": false,
      "t": 202480,
      "d": 80,
      "v": 62
    },
    {
      "midi": 64,
      "hit": false,
      "t": 202592,
      "d": 756,
      "v": 64
    },
    {
      "midi": 63,
      "hit": false,
      "t": 202640,
      "d": 84,
      "v": 46
    },
    {
      "midi": 58,
      "hit": false,
      "t": 202644,
      "d": 96,
      "v": 35
    },
    {
      "midi": 63,
      "hit": false,
      "t": 202936,
      "d": 48,
      "v": 76
    },
    {
      "midi": 58,
      "hit": false,
      "t": 202944,
      "d": 56,
      "v": 59
    },
    {
      "midi": 52,
      "hit": false,
      "t": 202956,
      "d": 28,
      "v": 52
    },
    {
      "midi": 60,
      "hit": false,
      "t": 203388,
      "d": 28,
      "v": 61
    },
    {
      "midi": 56,
      "hit": false,
      "t": 203396,
      "d": 60,
      "v": 36
    },
    {
      "midi": 68,
      "hit": false,
      "t": 203400,
      "d": 128,
      "v": 71
    },
    {
      "midi": 65,
      "hit": false,
      "t": 203568,
      "d": 104,
      "v": 62
    },
    {
      "midi": 67,
      "hit": false,
      "t": 203896,
      "d": 168,
      "v": 94
    },
    {
      "midi": 66,
      "hit": false,
      "t": 203896,
      "d": 180,
      "v": 75
    },
    {
      "midi": 65,
      "hit": false,
      "t": 204104,
      "d": 256,
      "v": 71
    },
    {
      "midi": 68,
      "hit": false,
      "t": 204116,
      "d": 216,
      "v": 74
    },
    {
      "midi": 64,
      "hit": false,
      "t": 204356,
      "d": 212,
      "v": 76
    },
    {
      "midi": 69,
      "hit": false,
      "t": 204360,
      "d": 180,
      "v": 89
    },
    {
      "midi": 63,
      "hit": false,
      "t": 204576,
      "d": 152,
      "v": 52
    },
    {
      "midi": 70,
      "hit": false,
      "t": 204584,
      "d": 128,
      "v": 62
    },
    {
      "midi": 71,
      "hit": false,
      "t": 204744,
      "d": 104,
      "v": 42
    },
    {
      "midi": 62,
      "hit": false,
      "t": 204752,
      "d": 44,
      "v": 51
    },
    {
      "midi": 61,
      "hit": false,
      "t": 205076,
      "d": 140,
      "v": 55
    },
    {
      "midi": 72,
      "hit": false,
      "t": 205084,
      "d": 60,
      "v": 70
    },
    {
      "midi": 66,
      "hit": false,
      "t": 205092,
      "d": 76,
      "v": 52
    },
    {
      "midi": 64,
      "hit": false,
      "t": 205096,
      "d": 56,
      "v": 66
    },
    {
      "midi": 68,
      "hit": false,
      "t": 205096,
      "d": 76,
      "v": 50
    },
    {
      "midi": 73,
      "hit": false,
      "t": 205224,
      "d": 80,
      "v": 46
    },
    {
      "midi": 64,
      "hit": false,
      "t": 205228,
      "d": 140,
      "v": 57
    },
    {
      "midi": 60,
      "hit": false,
      "t": 205236,
      "d": 104,
      "v": 55
    },
    {
      "midi": 59,
      "hit": false,
      "t": 205488,
      "d": 36,
      "v": 46
    },
    {
      "midi": 59,
      "hit": false,
      "t": 205568,
      "d": 512,
      "v": 39
    },
    {
      "midi": 53,
      "hit": false,
      "t": 205580,
      "d": 544,
      "v": 55
    },
    {
      "midi": 77,
      "hit": false,
      "t": 205584,
      "d": 484,
      "v": 66
    },
    {
      "midi": 63,
      "hit": false,
      "t": 205584,
      "d": 488,
      "v": 59
    },
    {
      "midi": 56,
      "hit": false,
      "t": 205584,
      "d": 552,
      "v": 53
    },
    {
      "midi": 65,
      "hit": false,
      "t": 205592,
      "d": 516,
      "v": 62
    },
    {
      "midi": 71,
      "hit": false,
      "t": 205596,
      "d": 476,
      "v": 58
    },
    {
      "midi": 70,
      "hit": false,
      "t": 206324,
      "d": 428,
      "v": 70
    },
    {
      "midi": 63,
      "hit": false,
      "t": 206328,
      "d": 400,
      "v": 65
    },
    {
      "midi": 59,
      "hit": false,
      "t": 206332,
      "d": 384,
      "v": 71
    },
    {
      "midi": 67,
      "hit": false,
      "t": 206332,
      "d": 396,
      "v": 61
    },
    {
      "midi": 58,
      "hit": false,
      "t": 206332,
      "d": 484,
      "v": 74
    },
    {
      "midi": 63,
      "hit": false,
      "t": 206796,
      "d": 132,
      "v": 58
    },
    {
      "midi": 68,
      "hit": false,
      "t": 206796,
      "d": 136,
      "v": 63
    },
    {
      "midi": 59,
      "hit": false,
      "t": 206800,
      "d": 68,
      "v": 62
    },
    {
      "midi": 56,
      "hit": false,
      "t": 206800,
      "d": 508,
      "v": 51
    },
    {
      "midi": 59,
      "hit": false,
      "t": 206968,
      "d": 260,
      "v": 44
    },
    {
      "midi": 54,
      "hit": false,
      "t": 207272,
      "d": 120,
      "v": 47
    },
    {
      "midi": 67,
      "hit": false,
      "t": 207392,
      "d": 272,
      "v": 49
    },
    {
      "midi": 55,
      "hit": false,
      "t": 207396,
      "d": 324,
      "v": 55
    },
    {
      "midi": 58,
      "hit": false,
      "t": 207404,
      "d": 224,
      "v": 48
    },
    {
      "midi": 61,
      "hit": false,
      "t": 207408,
      "d": 208,
      "v": 46
    },
    {
      "midi": 58,
      "hit": false,
      "t": 207712,
      "d": 56,
      "v": 59
    },
    {
      "midi": 57,
      "hit": false,
      "t": 207724,
      "d": 100,
      "v": 63
    },
    {
      "midi": 61,
      "hit": false,
      "t": 207728,
      "d": 28,
      "v": 39
    },
    {
      "midi": 69,
      "hit": false,
      "t": 207740,
      "d": 36,
      "v": 32
    },
    {
      "midi": 65,
      "hit": false,
      "t": 207752,
      "d": 28,
      "v": 46
    },
    {
      "midi": 67,
      "hit": false,
      "t": 207756,
      "d": 40,
      "v": 15
    },
    {
      "midi": 70,
      "hit": false,
      "t": 207888,
      "d": 204,
      "v": 56
    },
    {
      "midi": 58,
      "hit": false,
      "t": 207888,
      "d": 308,
      "v": 53
    },
    {
      "midi": 61,
      "hit": false,
      "t": 207900,
      "d": 180,
      "v": 27
    },
    {
      "midi": 65,
      "hit": false,
      "t": 207924,
      "d": 124,
      "v": 46
    },
    {
      "midi": 72,
      "hit": false,
      "t": 208196,
      "d": 116,
      "v": 79
    },
    {
      "midi": 66,
      "hit": false,
      "t": 208204,
      "d": 108,
      "v": 69
    },
    {
      "midi": 64,
      "hit": false,
      "t": 208208,
      "d": 96,
      "v": 83
    },
    {
      "midi": 68,
      "hit": false,
      "t": 208208,
      "d": 124,
      "v": 65
    },
    {
      "midi": 60,
      "hit": false,
      "t": 208212,
      "d": 156,
      "v": 85
    },
    {
      "midi": 61,
      "hit": false,
      "t": 208400,
      "d": 280,
      "v": 56
    },
    {
      "midi": 73,
      "hit": false,
      "t": 208412,
      "d": 100,
      "v": 67
    },
    {
      "midi": 64,
      "hit": false,
      "t": 208420,
      "d": 56,
      "v": 76
    },
    {
      "midi": 68,
      "hit": false,
      "t": 208420,
      "d": 72,
      "v": 67
    },
    {
      "midi": 70,
      "hit": false,
      "t": 208432,
      "d": 28,
      "v": 48
    },
    {
      "midi": 60,
      "hit": false,
      "t": 208620,
      "d": 36,
      "v": 22
    },
    {
      "midi": 63,
      "hit": false,
      "t": 208724,
      "d": 160,
      "v": 83
    },
    {
      "midi": 75,
      "hit": false,
      "t": 208724,
      "d": 164,
      "v": 79
    },
    {
      "midi": 68,
      "hit": false,
      "t": 208728,
      "d": 152,
      "v": 83
    },
    {
      "midi": 72,
      "hit": false,
      "t": 208736,
      "d": 120,
      "v": 77
    },
    {
      "midi": 64,
      "hit": false,
      "t": 208736,
      "d": 144,
      "v": 87
    },
    {
      "midi": 61,
      "hit": false,
      "t": 208920,
      "d": 236,
      "v": 37
    },
    {
      "midi": 68,
      "hit": false,
      "t": 208984,
      "d": 148,
      "v": 71
    },
    {
      "midi": 73,
      "hit": false,
      "t": 208984,
      "d": 164,
      "v": 47
    },
    {
      "midi": 64,
      "hit": false,
      "t": 209008,
      "d": 144,
      "v": 62
    },
    {
      "midi": 60,
      "hit": false,
      "t": 209340,
      "d": 32,
      "v": 38
    },
    {
      "midi": 66,
      "hit": false,
      "t": 209556,
      "d": 96,
      "v": 61
    },
    {
      "midi": 72,
      "hit": false,
      "t": 209564,
      "d": 124,
      "v": 73
    },
    {
      "midi": 60,
      "hit": false,
      "t": 209572,
      "d": 124,
      "v": 68
    },
    {
      "midi": 58,
      "hit": false,
      "t": 209824,
      "d": 164,
      "v": 53
    },
    {
      "midi": 70,
      "hit": false,
      "t": 209832,
      "d": 188,
      "v": 71
    },
    {
      "midi": 63,
      "hit": false,
      "t": 209844,
      "d": 124,
      "v": 53
    },
    {
      "midi": 60,
      "hit": false,
      "t": 209844,
      "d": 132,
      "v": 61
    },
    {
      "midi": 56,
      "hit": false,
      "t": 210128,
      "d": 96,
      "v": 49
    },
    {
      "midi": 67,
      "hit": false,
      "t": 210140,
      "d": 60,
      "v": 51
    },
    {
      "midi": 60,
      "hit": false,
      "t": 210144,
      "d": 108,
      "v": 55
    },
    {
      "midi": 63,
      "hit": false,
      "t": 210148,
      "d": 80,
      "v": 45
    },
    {
      "midi": 54,
      "hit": false,
      "t": 210444,
      "d": 192,
      "v": 55
    },
    {
      "midi": 60,
      "hit": false,
      "t": 210448,
      "d": 160,
      "v": 62
    },
    {
      "midi": 65,
      "hit": false,
      "t": 210448,
      "d": 164,
      "v": 60
    },
    {
      "midi": 50,
      "hit": false,
      "t": 210460,
      "d": 136,
      "v": 36
    },
    {
      "midi": 49,
      "hit": false,
      "t": 210756,
      "d": 252,
      "v": 49
    },
    {
      "midi": 54,
      "hit": false,
      "t": 210764,
      "d": 236,
      "v": 39
    },
    {
      "midi": 60,
      "hit": false,
      "t": 210784,
      "d": 96,
      "v": 44
    },
    {
      "midi": 61,
      "hit": false,
      "t": 211068,
      "d": 392,
      "v": 50
    },
    {
      "midi": 53,
      "hit": false,
      "t": 211072,
      "d": 308,
      "v": 54
    },
    {
      "midi": 59,
      "hit": false,
      "t": 211072,
      "d": 376,
      "v": 55
    },
    {
      "midi": 43,
      "hit": false,
      "t": 211520,
      "d": 32,
      "v": 35
    },
    {
      "midi": 58,
      "hit": false,
      "t": 211660,
      "d": 240,
      "v": 74
    },
    {
      "midi": 63,
      "hit": false,
      "t": 211660,
      "d": 244,
      "v": 74
    },
    {
      "midi": 70,
      "hit": false,
      "t": 211664,
      "d": 248,
      "v": 71
    },
    {
      "midi": 59,
      "hit": false,
      "t": 211668,
      "d": 224,
      "v": 71
    },
    {
      "midi": 67,
      "hit": false,
      "t": 211672,
      "d": 204,
      "v": 60
    },
    {
      "midi": 63,
      "hit": false,
      "t": 211972,
      "d": 96,
      "v": 59
    },
    {
      "midi": 68,
      "hit": false,
      "t": 211980,
      "d": 76,
      "v": 55
    },
    {
      "midi": 56,
      "hit": false,
      "t": 211980,
      "d": 128,
      "v": 60
    },
    {
      "midi": 59,
      "hit": false,
      "t": 211992,
      "d": 36,
      "v": 34
    },
    {
      "midi": 61,
      "hit": false,
      "t": 212148,
      "d": 260,
      "v": 32
    },
    {
      "midi": 55,
      "hit": false,
      "t": 212160,
      "d": 364,
      "v": 50
    },
    {
      "midi": 58,
      "hit": false,
      "t": 212168,
      "d": 256,
      "v": 38
    },
    {
      "midi": 68,
      "hit": false,
      "t": 212168,
      "d": 256,
      "v": 35
    },
    {
      "midi": 64,
      "hit": false,
      "t": 212192,
      "d": 200,
      "v": 40
    },
    {
      "midi": 66,
      "hit": false,
      "t": 212232,
      "d": 196,
      "v": 15
    },
    {
      "midi": 54,
      "hit": false,
      "t": 212508,
      "d": 32,
      "v": 23
    },
    {
      "midi": 51,
      "hit": false,
      "t": 212520,
      "d": 64,
      "v": 20
    },
    {
      "midi": 68,
      "hit": false,
      "t": 212600,
      "d": 260,
      "v": 60
    },
    {
      "midi": 58,
      "hit": false,
      "t": 212604,
      "d": 276,
      "v": 60
    },
    {
      "midi": 61,
      "hit": false,
      "t": 212604,
      "d": 292,
      "v": 60
    },
    {
      "midi": 64,
      "hit": false,
      "t": 212608,
      "d": 236,
      "v": 62
    },
    {
      "midi": 47,
      "hit": false,
      "t": 212920,
      "d": 28,
      "v": 70
    },
    {
      "midi": 48,
      "hit": false,
      "t": 212928,
      "d": 1512,
      "v": 60
    },
    {
      "midi": 53,
      "hit": false,
      "t": 213184,
      "d": 192,
      "v": 13
    },
    {
      "midi": 56,
      "hit": false,
      "t": 213400,
      "d": 72,
      "v": 44
    },
    {
      "midi": 58,
      "hit": false,
      "t": 213524,
      "d": 376,
      "v": 78
    },
    {
      "midi": 58,
      "hit": false,
      "t": 214052,
      "d": 316,
      "v": 82
    },
    {
      "midi": 59,
      "hit": false,
      "t": 214104,
      "d": 216,
      "v": 31
    },
    {
      "midi": 56,
      "hit": false,
      "t": 214384,
      "d": 128,
      "v": 61
    },
    {
      "midi": 46,
      "hit": false,
      "t": 214412,
      "d": 48,
      "v": 34
    },
    {
      "midi": 53,
      "hit": false,
      "t": 214548,
      "d": 284,
      "v": 56
    },
    {
      "midi": 53,
      "hit": false,
      "t": 214896,
      "d": 76,
      "v": 37
    },
    {
      "midi": 46,
      "hit": false,
      "t": 214980,
      "d": 68,
      "v": 50
    },
    {
      "midi": 56,
      "hit": false,
      "t": 214996,
      "d": 56,
      "v": 54
    },
    {
      "midi": 63,
      "hit": false,
      "t": 215052,
      "d": 284,
      "v": 68
    },
    {
      "midi": 75,
      "hit": false,
      "t": 215052,
      "d": 336,
      "v": 69
    },
    {
      "midi": 72,
      "hit": false,
      "t": 215448,
      "d": 40,
      "v": 34
    },
    {
      "midi": 75,
      "hit": false,
      "t": 215544,
      "d": 264,
      "v": 71
    },
    {
      "midi": 65,
      "hit": false,
      "t": 215552,
      "d": 252,
      "v": 43
    },
    {
      "midi": 63,
      "hit": false,
      "t": 215556,
      "d": 268,
      "v": 58
    },
    {
      "midi": 56,
      "hit": false,
      "t": 215556,
      "d": 284,
      "v": 33
    },
    {
      "midi": 61,
      "hit": false,
      "t": 215556,
      "d": 304,
      "v": 52
    },
    {
      "midi": 60,
      "hit": false,
      "t": 215576,
      "d": 232,
      "v": 27
    },
    {
      "midi": 63,
      "hit": false,
      "t": 215888,
      "d": 56,
      "v": 60
    },
    {
      "midi": 75,
      "hit": false,
      "t": 215888,
      "d": 92,
      "v": 53
    },
    {
      "midi": 61,
      "hit": false,
      "t": 215908,
      "d": 88,
      "v": 35
    },
    {
      "midi": 55,
      "hit": false,
      "t": 215912,
      "d": 32,
      "v": 60
    },
    {
      "midi": 61,
      "hit": false,
      "t": 216368,
      "d": 76,
      "v": 72
    },
    {
      "midi": 55,
      "hit": false,
      "t": 216380,
      "d": 28,
      "v": 64
    },
    {
      "midi": 65,
      "hit": false,
      "t": 216384,
      "d": 28,
      "v": 60
    },
    {
      "midi": 73,
      "hit": false,
      "t": 216392,
      "d": 44,
      "v": 49
    },
    {
      "midi": 85,
      "hit": false,
      "t": 216392,
      "d": 60,
      "v": 69
    },
    {
      "midi": 61,
      "hit": false,
      "t": 216540,
      "d": 72,
      "v": 82
    },
    {
      "midi": 65,
      "hit": false,
      "t": 216544,
      "d": 32,
      "v": 75
    },
    {
      "midi": 55,
      "hit": false,
      "t": 216548,
      "d": 28,
      "v": 75
    },
    {
      "midi": 75,
      "hit": false,
      "t": 216548,
      "d": 32,
      "v": 71
    },
    {
      "midi": 87,
      "hit": false,
      "t": 216548,
      "d": 52,
      "v": 80
    },
    {
      "midi": 89,
      "hit": false,
      "t": 216840,
      "d": 104,
      "v": 82
    },
    {
      "midi": 60,
      "hit": false,
      "t": 216840,
      "d": 200,
      "v": 75
    },
    {
      "midi": 63,
      "hit": false,
      "t": 216844,
      "d": 156,
      "v": 73
    },
    {
      "midi": 58,
      "hit": false,
      "t": 216848,
      "d": 172,
      "v": 45
    },
    {
      "midi": 77,
      "hit": false,
      "t": 216856,
      "d": 108,
      "v": 71
    },
    {
      "midi": 53,
      "hit": false,
      "t": 216864,
      "d": 132,
      "v": 49
    },
    {
      "midi": 84,
      "hit": false,
      "t": 217112,
      "d": 264,
      "v": 62
    },
    {
      "midi": 72,
      "hit": false,
      "t": 217120,
      "d": 216,
      "v": 41
    },
    {
      "midi": 60,
      "hit": false,
      "t": 217120,
      "d": 232,
      "v": 54
    },
    {
      "midi": 80,
      "hit": false,
      "t": 217128,
      "d": 216,
      "v": 43
    },
    {
      "midi": 63,
      "hit": false,
      "t": 217132,
      "d": 196,
      "v": 53
    },
    {
      "midi": 78,
      "hit": false,
      "t": 217136,
      "d": 40,
      "v": 34
    },
    {
      "midi": 58,
      "hit": false,
      "t": 217136,
      "d": 216,
      "v": 38
    },
    {
      "midi": 53,
      "hit": false,
      "t": 217140,
      "d": 172,
      "v": 46
    },
    {
      "midi": 74,
      "hit": false,
      "t": 217144,
      "d": 108,
      "v": 31
    },
    {
      "midi": 63,
      "hit": false,
      "t": 217472,
      "d": 288,
      "v": 65
    },
    {
      "midi": 72,
      "hit": false,
      "t": 217476,
      "d": 228,
      "v": 68
    },
    {
      "midi": 60,
      "hit": false,
      "t": 217480,
      "d": 276,
      "v": 71
    },
    {
      "midi": 58,
      "hit": false,
      "t": 217484,
      "d": 296,
      "v": 42
    },
    {
      "midi": 53,
      "hit": false,
      "t": 217492,
      "d": 252,
      "v": 55
    },
    {
      "midi": 84,
      "hit": false,
      "t": 217492,
      "d": 256,
      "v": 35
    },
    {
      "midi": 80,
      "hit": false,
      "t": 217500,
      "d": 180,
      "v": 35
    },
    {
      "midi": 78,
      "hit": false,
      "t": 217512,
      "d": 68,
      "v": 26
    },
    {
      "midi": 63,
      "hit": false,
      "t": 218260,
      "d": 44,
      "v": 58
    },
    {
      "midi": 60,
      "hit": false,
      "t": 218264,
      "d": 32,
      "v": 59
    },
    {
      "midi": 58,
      "hit": false,
      "t": 218276,
      "d": 84,
      "v": 37
    },
    {
      "midi": 63,
      "hit": false,
      "t": 218740,
      "d": 112,
      "v": 78
    },
    {
      "midi": 60,
      "hit": false,
      "t": 218744,
      "d": 60,
      "v": 68
    },
    {
      "midi": 58,
      "hit": false,
      "t": 218744,
      "d": 108,
      "v": 57
    },
    {
      "midi": 90,
      "hit": false,
      "t": 218744,
      "d": 144,
      "v": 80
    },
    {
      "midi": 78,
      "hit": false,
      "t": 218744,
      "d": 148,
      "v": 83
    },
    {
      "midi": 85,
      "hit": false,
      "t": 218748,
      "d": 124,
      "v": 85
    },
    {
      "midi": 65,
      "hit": false,
      "t": 218924,
      "d": 248,
      "v": 74
    },
    {
      "midi": 60,
      "hit": false,
      "t": 218924,
      "d": 268,
      "v": 70
    },
    {
      "midi": 89,
      "hit": false,
      "t": 218932,
      "d": 204,
      "v": 71
    },
    {
      "midi": 61,
      "hit": false,
      "t": 218932,
      "d": 264,
      "v": 42
    },
    {
      "midi": 56,
      "hit": false,
      "t": 218936,
      "d": 240,
      "v": 49
    },
    {
      "midi": 84,
      "hit": false,
      "t": 218940,
      "d": 244,
      "v": 56
    },
    {
      "midi": 77,
      "hit": false,
      "t": 218944,
      "d": 192,
      "v": 45
    },
    {
      "midi": 90,
      "hit": false,
      "t": 219252,
      "d": 132,
      "v": 71
    },
    {
      "midi": 56,
      "hit": false,
      "t": 219252,
      "d": 324,
      "v": 58
    },
    {
      "midi": 61,
      "hit": false,
      "t": 219252,
      "d": 364,
      "v": 65
    },
    {
      "midi": 65,
      "hit": false,
      "t": 219256,
      "d": 120,
      "v": 71
    },
    {
      "midi": 78,
      "hit": false,
      "t": 219256,
      "d": 132,
      "v": 64
    },
    {
      "midi": 60,
      "hit": false,
      "t": 219256,
      "d": 340,
      "v": 71
    },
    {
      "midi": 84,
      "hit": false,
      "t": 219260,
      "d": 100,
      "v": 56
    },
    {
      "midi": 87,
      "hit": false,
      "t": 219276,
      "d": 32,
      "v": 39
    },
    {
      "midi": 65,
      "hit": false,
      "t": 219412,
      "d": 148,
      "v": 44
    },
    {
      "midi": 79,
      "hit": false,
      "t": 219440,
      "d": 96,
      "v": 52
    },
    {
      "midi": 87,
      "hit": false,
      "t": 219444,
      "d": 124,
      "v": 37
    },
    {
      "midi": 91,
      "hit": false,
      "t": 219448,
      "d": 72,
      "v": 49
    },
    {
      "midi": 84,
      "hit": false,
      "t": 219452,
      "d": 92,
      "v": 45
    },
    {
      "midi": 89,
      "hit": false,
      "t": 219476,
      "d": 32,
      "v": 30
    },
    {
      "midi": 56,
      "hit": false,
      "t": 219736,
      "d": 104,
      "v": 62
    },
    {
      "midi": 65,
      "hit": false,
      "t": 219748,
      "d": 32,
      "v": 59
    },
    {
      "midi": 80,
      "hit": false,
      "t": 219748,
      "d": 76,
      "v": 68
    },
    {
      "midi": 92,
      "hit": false,
      "t": 219752,
      "d": 80,
      "v": 75
    },
    {
      "midi": 61,
      "hit": false,
      "t": 219752,
      "d": 92,
      "v": 34
    },
    {
      "midi": 94,
      "hit": false,
      "t": 219928,
      "d": 120,
      "v": 75
    },
    {
      "midi": 65,
      "hit": false,
      "t": 219928,
      "d": 184,
      "v": 72
    },
    {
      "midi": 55,
      "hit": false,
      "t": 219928,
      "d": 188,
      "v": 76
    },
    {
      "midi": 82,
      "hit": false,
      "t": 219932,
      "d": 156,
      "v": 59
    },
    {
      "midi": 61,
      "hit": false,
      "t": 219932,
      "d": 216,
      "v": 50
    },
    {
      "midi": 78,
      "hit": false,
      "t": 220224,
      "d": 44,
      "v": 67
    },
    {
      "midi": 85,
      "hit": false,
      "t": 220232,
      "d": 128,
      "v": 59
    },
    {
      "midi": 61,
      "hit": false,
      "t": 220236,
      "d": 168,
      "v": 70
    },
    {
      "midi": 91,
      "hit": false,
      "t": 220240,
      "d": 92,
      "v": 71
    },
    {
      "midi": 55,
      "hit": false,
      "t": 220240,
      "d": 116,
      "v": 79
    },
    {
      "midi": 65,
      "hit": false,
      "t": 220244,
      "d": 120,
      "v": 78
    },
    {
      "midi": 89,
      "hit": false,
      "t": 220268,
      "d": 60,
      "v": 30
    },
    {
      "midi": 79,
      "hit": false,
      "t": 220276,
      "d": 64,
      "v": 48
    },
    {
      "midi": 75,
      "hit": false,
      "t": 220456,
      "d": 140,
      "v": 63
    },
    {
      "midi": 87,
      "hit": false,
      "t": 220460,
      "d": 124,
      "v": 59
    },
    {
      "midi": 61,
      "hit": false,
      "t": 220460,
      "d": 192,
      "v": 59
    },
    {
      "midi": 55,
      "hit": false,
      "t": 220464,
      "d": 132,
      "v": 60
    },
    {
      "midi": 65,
      "hit": false,
      "t": 220472,
      "d": 88,
      "v": 50
    },
    {
      "midi": 60,
      "hit": false,
      "t": 220728,
      "d": 176,
      "v": 67
    },
    {
      "midi": 63,
      "hit": false,
      "t": 220736,
      "d": 120,
      "v": 58
    },
    {
      "midi": 58,
      "hit": false,
      "t": 220740,
      "d": 184,
      "v": 43
    },
    {
      "midi": 72,
      "hit": false,
      "t": 220744,
      "d": 116,
      "v": 65
    },
    {
      "midi": 84,
      "hit": false,
      "t": 220748,
      "d": 64,
      "v": 34
    },
    {
      "midi": 82,
      "hit": false,
      "t": 220756,
      "d": 76,
      "v": 46
    },
    {
      "midi": 53,
      "hit": false,
      "t": 220768,
      "d": 104,
      "v": 24
    },
    {
      "midi": 54,
      "hit": false,
      "t": 221184,
      "d": 72,
      "v": 45
    },
    {
      "midi": 56,
      "hit": false,
      "t": 221204,
      "d": 92,
      "v": 55
    },
    {
      "midi": 70,
      "hit": false,
      "t": 221312,
      "d": 132,
      "v": 72
    },
    {
      "midi": 60,
      "hit": false,
      "t": 221324,
      "d": 108,
      "v": 74
    },
    {
      "midi": 58,
      "hit": false,
      "t": 221328,
      "d": 108,
      "v": 69
    },
    {
      "midi": 63,
      "hit": false,
      "t": 221328,
      "d": 128,
      "v": 53
    },
    {
      "midi": 67,
      "hit": false,
      "t": 221332,
      "d": 76,
      "v": 55
    },
    {
      "midi": 67,
      "hit": false,
      "t": 221484,
      "d": 84,
      "v": 49
    },
    {
      "midi": 55,
      "hit": false,
      "t": 221512,
      "d": 64,
      "v": 38
    },
    {
      "midi": 56,
      "hit": false,
      "t": 221620,
      "d": 76,
      "v": 48
    },
    {
      "midi": 68,
      "hit": false,
      "t": 221620,
      "d": 92,
      "v": 58
    },
    {
      "midi": 60,
      "hit": false,
      "t": 221632,
      "d": 72,
      "v": 45
    },
    {
      "midi": 70,
      "hit": false,
      "t": 221752,
      "d": 112,
      "v": 78
    },
    {
      "midi": 58,
      "hit": false,
      "t": 221756,
      "d": 100,
      "v": 60
    },
    {
      "midi": 60,
      "hit": false,
      "t": 221760,
      "d": 68,
      "v": 72
    },
    {
      "midi": 63,
      "hit": false,
      "t": 221768,
      "d": 32,
      "v": 42
    },
    {
      "midi": 55,
      "hit": false,
      "t": 221876,
      "d": 108,
      "v": 64
    },
    {
      "midi": 67,
      "hit": false,
      "t": 221880,
      "d": 88,
      "v": 62
    },
    {
      "midi": 63,
      "hit": false,
      "t": 222016,
      "d": 96,
      "v": 40
    },
    {
      "midi": 53,
      "hit": false,
      "t": 222056,
      "d": 112,
      "v": 27
    },
    {
      "midi": 67,
      "hit": false,
      "t": 222224,
      "d": 132,
      "v": 77
    },
    {
      "midi": 55,
      "hit": false,
      "t": 222228,
      "d": 84,
      "v": 58
    },
    {
      "midi": 63,
      "hit": false,
      "t": 222352,
      "d": 84,
      "v": 51
    },
    {
      "midi": 60,
      "hit": false,
      "t": 222444,
      "d": 44,
      "v": 44
    },
    {
      "midi": 58,
      "hit": false,
      "t": 222548,
      "d": 40,
      "v": 33
    },
    {
      "midi": 48,
      "hit": false,
      "t": 222608,
      "d": 108,
      "v": 39
    },
    {
      "midi": 50,
      "hit": false,
      "t": 222736,
      "d": 32,
      "v": 41
    },
    {
      "midi": 53,
      "hit": false,
      "t": 222772,
      "d": 124,
      "v": 52
    },
    {
      "midi": 64,
      "hit": false,
      "t": 222776,
      "d": 96,
      "v": 70
    },
    {
      "midi": 57,
      "hit": false,
      "t": 222784,
      "d": 104,
      "v": 53
    },
    {
      "midi": 52,
      "hit": false,
      "t": 222784,
      "d": 156,
      "v": 62
    },
    {
      "midi": 51,
      "hit": false,
      "t": 222952,
      "d": 116,
      "v": 55
    },
    {
      "midi": 63,
      "hit": false,
      "t": 222956,
      "d": 76,
      "v": 68
    },
    {
      "midi": 57,
      "hit": false,
      "t": 222956,
      "d": 84,
      "v": 56
    },
    {
      "midi": 53,
      "hit": false,
      "t": 222960,
      "d": 76,
      "v": 55
    },
    {
      "midi": 62,
      "hit": false,
      "t": 223104,
      "d": 100,
      "v": 65
    },
    {
      "midi": 57,
      "hit": false,
      "t": 223112,
      "d": 88,
      "v": 44
    },
    {
      "midi": 50,
      "hit": false,
      "t": 223112,
      "d": 120,
      "v": 53
    },
    {
      "midi": 53,
      "hit": false,
      "t": 223120,
      "d": 88,
      "v": 26
    },
    {
      "midi": 60,
      "hit": false,
      "t": 223268,
      "d": 268,
      "v": 52
    },
    {
      "midi": 57,
      "hit": false,
      "t": 223276,
      "d": 216,
      "v": 38
    },
    {
      "midi": 48,
      "hit": false,
      "t": 223284,
      "d": 200,
      "v": 53
    },
    {
      "midi": 45,
      "hit": false,
      "t": 223560,
      "d": 28,
      "v": 53
    },
    {
      "midi": 53,
      "hit": false,
      "t": 223696,
      "d": 212,
      "v": 48
    },
    {
      "midi": 59,
      "hit": false,
      "t": 223700,
      "d": 284,
      "v": 54
    },
    {
      "midi": 43,
      "hit": false,
      "t": 223728,
      "d": 300,
      "v": 36
    },
    {
      "midi": 56,
      "hit": false,
      "t": 223992,
      "d": 64,
      "v": 62
    },
    {
      "midi": 53,
      "hit": false,
      "t": 223996,
      "d": 28,
      "v": 58
    },
    {
      "midi": 50,
      "hit": false,
      "t": 224024,
      "d": 36,
      "v": 62
    },
    {
      "midi": 72,
      "hit": false,
      "t": 224264,
      "d": 36,
      "v": 19
    },
    {
      "midi": 56,
      "hit": false,
      "t": 224384,
      "d": 64,
      "v": 1
    },
    {
      "midi": 58,
      "hit": false,
      "t": 224448,
      "d": 40,
      "v": 60
    },
    {
      "midi": 59,
      "hit": false,
      "t": 224472,
      "d": 184,
      "v": 81
    },
    {
      "midi": 70,
      "hit": false,
      "t": 224480,
      "d": 96,
      "v": 62
    },
    {
      "midi": 68,
      "hit": false,
      "t": 224480,
      "d": 112,
      "v": 90
    },
    {
      "midi": 74,
      "hit": false,
      "t": 224480,
      "d": 112,
      "v": 85
    },
    {
      "midi": 57,
      "hit": false,
      "t": 224488,
      "d": 28,
      "v": 76
    },
    {
      "midi": 65,
      "hit": false,
      "t": 224488,
      "d": 116,
      "v": 94
    },
    {
      "midi": 72,
      "hit": false,
      "t": 224496,
      "d": 28,
      "v": 65
    },
    {
      "midi": 71,
      "hit": false,
      "t": 224508,
      "d": 28,
      "v": 40
    },
    {
      "midi": 55,
      "hit": false,
      "t": 224740,
      "d": 284,
      "v": 54
    },
    {
      "midi": 67,
      "hit": false,
      "t": 224776,
      "d": 32,
      "v": 43
    },
    {
      "midi": 67,
      "hit": false,
      "t": 225164,
      "d": 120,
      "v": 53
    },
    {
      "midi": 64,
      "hit": false,
      "t": 225168,
      "d": 276,
      "v": 60
    },
    {
      "midi": 55,
      "hit": false,
      "t": 225172,
      "d": 332,
      "v": 52
    },
    {
      "midi": 59,
      "hit": false,
      "t": 225196,
      "d": 292,
      "v": 25
    },
    {
      "midi": 51,
      "hit": false,
      "t": 225488,
      "d": 72,
      "v": 38
    },
    {
      "midi": 52,
      "hit": false,
      "t": 225600,
      "d": 164,
      "v": 49
    },
    {
      "midi": 67,
      "hit": false,
      "t": 225612,
      "d": 100,
      "v": 60
    },
    {
      "midi": 62,
      "hit": false,
      "t": 225620,
      "d": 108,
      "v": 62
    },
    {
      "midi": 57,
      "hit": false,
      "t": 225632,
      "d": 84,
      "v": 44
    },
    {
      "midi": 51,
      "hit": false,
      "t": 225768,
      "d": 148,
      "v": 42
    },
    {
      "midi": 62,
      "hit": false,
      "t": 225924,
      "d": 260,
      "v": 70
    },
    {
      "midi": 67,
      "hit": false,
      "t": 225924,
      "d": 284,
      "v": 57
    },
    {
      "midi": 52,
      "hit": false,
      "t": 225932,
      "d": 180,
      "v": 49
    },
    {
      "midi": 57,
      "hit": false,
      "t": 225932,
      "d": 196,
      "v": 62
    },
    {
      "midi": 53,
      "hit": false,
      "t": 226608,
      "d": 76,
      "v": 62
    },
    {
      "midi": 70,
      "hit": false,
      "t": 226616,
      "d": 44,
      "v": 84
    },
    {
      "midi": 79,
      "hit": false,
      "t": 226616,
      "d": 64,
      "v": 76
    },
    {
      "midi": 59,
      "hit": false,
      "t": 226616,
      "d": 72,
      "v": 68
    },
    {
      "midi": 75,
      "hit": false,
      "t": 226620,
      "d": 56,
      "v": 71
    },
    {
      "midi": 64,
      "hit": false,
      "t": 226624,
      "d": 28,
      "v": 62
    },
    {
      "midi": 64,
      "hit": false,
      "t": 226936,
      "d": 48,
      "v": 68
    },
    {
      "midi": 59,
      "hit": false,
      "t": 226936,
      "d": 72,
      "v": 60
    },
    {
      "midi": 79,
      "hit": false,
      "t": 226940,
      "d": 36,
      "v": 71
    },
    {
      "midi": 70,
      "hit": false,
      "t": 226940,
      "d": 44,
      "v": 81
    },
    {
      "midi": 53,
      "hit": false,
      "t": 226944,
      "d": 40,
      "v": 54
    },
    {
      "midi": 75,
      "hit": false,
      "t": 226944,
      "d": 40,
      "v": 60
    },
    {
      "midi": 53,
      "hit": false,
      "t": 228024,
      "d": 100,
      "v": 68
    },
    {
      "midi": 70,
      "hit": false,
      "t": 228032,
      "d": 72,
      "v": 83
    },
    {
      "midi": 65,
      "hit": false,
      "t": 228032,
      "d": 76,
      "v": 60
    },
    {
      "midi": 79,
      "hit": false,
      "t": 228032,
      "d": 84,
      "v": 76
    },
    {
      "midi": 75,
      "hit": false,
      "t": 228032,
      "d": 96,
      "v": 77
    },
    {
      "midi": 59,
      "hit": false,
      "t": 228036,
      "d": 220,
      "v": 63
    },
    {
      "midi": 53,
      "hit": false,
      "t": 228156,
      "d": 144,
      "v": 30
    },
    {
      "midi": 65,
      "hit": false,
      "t": 228168,
      "d": 48,
      "v": 41
    },
    {
      "midi": 70,
      "hit": false,
      "t": 228172,
      "d": 60,
      "v": 53
    },
    {
      "midi": 79,
      "hit": false,
      "t": 228176,
      "d": 52,
      "v": 68
    },
    {
      "midi": 75,
      "hit": false,
      "t": 228180,
      "d": 72,
      "v": 59
    },
    {
      "midi": 54,
      "hit": false,
      "t": 228556,
      "d": 52,
      "v": 38
    },
    {
      "midi": 68,
      "hit": false,
      "t": 228688,
      "d": 80,
      "v": 71
    },
    {
      "midi": 58,
      "hit": false,
      "t": 228692,
      "d": 68,
      "v": 81
    },
    {
      "midi": 61,
      "hit": false,
      "t": 228700,
      "d": 68,
      "v": 62
    },
    {
      "midi": 64,
      "hit": false,
      "t": 228704,
      "d": 72,
      "v": 62
    },
    {
      "midi": 57,
      "hit": false,
      "t": 228704,
      "d": 92,
      "v": 63
    },
    {
      "midi": 58,
      "hit": false,
      "t": 228836,
      "d": 88,
      "v": 80
    },
    {
      "midi": 68,
      "hit": false,
      "t": 228836,
      "d": 100,
      "v": 68
    },
    {
      "midi": 56,
      "hit": false,
      "t": 228840,
      "d": 100,
      "v": 65
    },
    {
      "midi": 61,
      "hit": false,
      "t": 228844,
      "d": 72,
      "v": 58
    },
    {
      "midi": 64,
      "hit": false,
      "t": 228852,
      "d": 56,
      "v": 67
    },
    {
      "midi": 58,
      "hit": false,
      "t": 229176,
      "d": 64,
      "v": 81
    },
    {
      "midi": 55,
      "hit": false,
      "t": 229180,
      "d": 212,
      "v": 79
    },
    {
      "midi": 61,
      "hit": false,
      "t": 229184,
      "d": 64,
      "v": 62
    },
    {
      "midi": 64,
      "hit": false,
      "t": 229184,
      "d": 80,
      "v": 68
    },
    {
      "midi": 67,
      "hit": false,
      "t": 229184,
      "d": 84,
      "v": 60
    },
    {
      "midi": 61,
      "hit": false,
      "t": 229304,
      "d": 60,
      "v": 50
    },
    {
      "midi": 67,
      "hit": false,
      "t": 229308,
      "d": 88,
      "v": 28
    },
    {
      "midi": 58,
      "hit": false,
      "t": 229312,
      "d": 44,
      "v": 46
    },
    {
      "midi": 64,
      "hit": false,
      "t": 229332,
      "d": 32,
      "v": 43
    },
    {
      "midi": 48,
      "hit": false,
      "t": 229356,
      "d": 28,
      "v": 68
    },
    {
      "midi": 75,
      "hit": false,
      "t": 229632,
      "d": 88,
      "v": 72
    },
    {
      "midi": 63,
      "hit": false,
      "t": 229636,
      "d": 80,
      "v": 65
    },
    {
      "midi": 68,
      "hit": false,
      "t": 229644,
      "d": 80,
      "v": 71
    },
    {
      "midi": 64,
      "hit": false,
      "t": 229648,
      "d": 60,
      "v": 78
    },
    {
      "midi": 72,
      "hit": false,
      "t": 229648,
      "d": 88,
      "v": 69
    },
    {
      "midi": 63,
      "hit": false,
      "t": 229768,
      "d": 100,
      "v": 62
    },
    {
      "midi": 75,
      "hit": false,
      "t": 229768,
      "d": 108,
      "v": 67
    },
    {
      "midi": 68,
      "hit": false,
      "t": 229776,
      "d": 92,
      "v": 59
    },
    {
      "midi": 64,
      "hit": false,
      "t": 229784,
      "d": 88,
      "v": 66
    },
    {
      "midi": 72,
      "hit": false,
      "t": 229788,
      "d": 84,
      "v": 65
    },
    {
      "midi": 61,
      "hit": false,
      "t": 229940,
      "d": 232,
      "v": 67
    },
    {
      "midi": 73,
      "hit": false,
      "t": 229944,
      "d": 232,
      "v": 59
    },
    {
      "midi": 64,
      "hit": false,
      "t": 229948,
      "d": 248,
      "v": 71
    },
    {
      "midi": 68,
      "hit": false,
      "t": 229952,
      "d": 208,
      "v": 71
    },
    {
      "midi": 53,
      "hit": false,
      "t": 230356,
      "d": 52,
      "v": 36
    },
    {
      "midi": 67,
      "hit": false,
      "t": 230412,
      "d": 468,
      "v": 74
    },
    {
      "midi": 55,
      "hit": false,
      "t": 230420,
      "d": 460,
      "v": 62
    },
    {
      "midi": 64,
      "hit": false,
      "t": 230900,
      "d": 144,
      "v": 55
    },
    {
      "midi": 52,
      "hit": false,
      "t": 230900,
      "d": 220,
      "v": 49
    },
    {
      "midi": 65,
      "hit": false,
      "t": 231044,
      "d": 96,
      "v": 66
    },
    {
      "midi": 53,
      "hit": false,
      "t": 231068,
      "d": 96,
      "v": 50
    },
    {
      "midi": 67,
      "hit": false,
      "t": 231184,
      "d": 80,
      "v": 36
    },
    {
      "midi": 55,
      "hit": false,
      "t": 231216,
      "d": 112,
      "v": 32
    },
    {
      "midi": 68,
      "hit": false,
      "t": 231304,
      "d": 56,
      "v": 69
    },
    {
      "midi": 56,
      "hit": false,
      "t": 231344,
      "d": 88,
      "v": 39
    },
    {
      "midi": 72,
      "hit": false,
      "t": 231456,
      "d": 136,
      "v": 73
    },
    {
      "midi": 60,
      "hit": false,
      "t": 231496,
      "d": 104,
      "v": 49
    },
    {
      "midi": 64,
      "hit": false,
      "t": 231688,
      "d": 76,
      "v": 65
    },
    {
      "midi": 76,
      "hit": false,
      "t": 231696,
      "d": 120,
      "v": 83
    },
    {
      "midi": 67,
      "hit": false,
      "t": 231848,
      "d": 184,
      "v": 80
    },
    {
      "midi": 79,
      "hit": false,
      "t": 231876,
      "d": 240,
      "v": 88
    },
    {
      "midi": 77,
      "hit": false,
      "t": 232172,
      "d": 100,
      "v": 71
    },
    {
      "midi": 68,
      "hit": false,
      "t": 232360,
      "d": 252,
      "v": 68
    },
    {
      "midi": 68,
      "hit": false,
      "t": 232656,
      "d": 64,
      "v": 62
    },
    {
      "midi": 63,
      "hit": false,
      "t": 232676,
      "d": 72,
      "v": 48
    },
    {
      "midi": 58,
      "hit": false,
      "t": 232696,
      "d": 108,
      "v": 34
    },
    {
      "midi": 63,
      "hit": false,
      "t": 233140,
      "d": 56,
      "v": 62
    },
    {
      "midi": 58,
      "hit": false,
      "t": 233144,
      "d": 88,
      "v": 53
    },
    {
      "midi": 75,
      "hit": false,
      "t": 233604,
      "d": 144,
      "v": 67
    },
    {
      "midi": 78,
      "hit": false,
      "t": 233628,
      "d": 76,
      "v": 49
    },
    {
      "midi": 66,
      "hit": false,
      "t": 233632,
      "d": 44,
      "v": 62
    },
    {
      "midi": 78,
      "hit": false,
      "t": 233780,
      "d": 184,
      "v": 51
    },
    {
      "midi": 66,
      "hit": false,
      "t": 233784,
      "d": 136,
      "v": 77
    },
    {
      "midi": 75,
      "hit": false,
      "t": 233784,
      "d": 192,
      "v": 51
    },
    {
      "midi": 79,
      "hit": false,
      "t": 233912,
      "d": 84,
      "v": 12
    },
    {
      "midi": 67,
      "hit": false,
      "t": 233920,
      "d": 120,
      "v": 62
    },
    {
      "midi": 67,
      "hit": false,
      "t": 234112,
      "d": 100,
      "v": 49
    },
    {
      "midi": 75,
      "hit": false,
      "t": 234124,
      "d": 132,
      "v": 14
    },
    {
      "midi": 79,
      "hit": false,
      "t": 234140,
      "d": 116,
      "v": 71
    },
    {
      "midi": 60,
      "hit": false,
      "t": 234180,
      "d": 36,
      "v": 37
    },
    {
      "midi": 56,
      "hit": false,
      "t": 234188,
      "d": 76,
      "v": 32
    },
    {
      "midi": 65,
      "hit": false,
      "t": 234300,
      "d": 212,
      "v": 63
    },
    {
      "midi": 77,
      "hit": false,
      "t": 234300,
      "d": 228,
      "v": 31
    },
    {
      "midi": 79,
      "hit": false,
      "t": 234624,
      "d": 96,
      "v": 70
    },
    {
      "midi": 67,
      "hit": false,
      "t": 234632,
      "d": 68,
      "v": 64
    },
    {
      "midi": 75,
      "hit": false,
      "t": 234632,
      "d": 140,
      "v": 49
    },
    {
      "midi": 72,
      "hit": false,
      "t": 234636,
      "d": 108,
      "v": 63
    },
    {
      "midi": 80,
      "hit": false,
      "t": 234836,
      "d": 140,
      "v": 57
    },
    {
      "midi": 68,
      "hit": false,
      "t": 234840,
      "d": 120,
      "v": 51
    },
    {
      "midi": 63,
      "hit": false,
      "t": 235100,
      "d": 56,
      "v": 79
    },
    {
      "midi": 70,
      "hit": false,
      "t": 235100,
      "d": 76,
      "v": 79
    },
    {
      "midi": 82,
      "hit": false,
      "t": 235104,
      "d": 96,
      "v": 74
    },
    {
      "midi": 58,
      "hit": false,
      "t": 235104,
      "d": 152,
      "v": 67
    },
    {
      "midi": 52,
      "hit": false,
      "t": 235120,
      "d": 28,
      "v": 55
    },
    {
      "midi": 80,
      "hit": false,
      "t": 235124,
      "d": 28,
      "v": 38
    },
    {
      "midi": 78,
      "hit": false,
      "t": 235320,
      "d": 96,
      "v": 51
    },
    {
      "midi": 72,
      "hit": false,
      "t": 235320,
      "d": 164,
      "v": 63
    },
    {
      "midi": 84,
      "hit": false,
      "t": 235328,
      "d": 168,
      "v": 50
    },
    {
      "midi": 79,
      "hit": false,
      "t": 235432,
      "d": 88,
      "v": 38
    },
    {
      "midi": 82,
      "hit": false,
      "t": 235612,
      "d": 116,
      "v": 52
    },
    {
      "midi": 83,
      "hit": false,
      "t": 235632,
      "d": 28,
      "v": 53
    },
    {
      "midi": 71,
      "hit": false,
      "t": 235656,
      "d": 40,
      "v": 22
    },
    {
      "midi": 80,
      "hit": false,
      "t": 235808,
      "d": 144,
      "v": 53
    },
    {
      "midi": 68,
      "hit": false,
      "t": 235828,
      "d": 112,
      "v": 32
    },
    {
      "midi": 79,
      "hit": false,
      "t": 236064,
      "d": 100,
      "v": 62
    },
    {
      "midi": 67,
      "hit": false,
      "t": 236072,
      "d": 112,
      "v": 64
    },
    {
      "midi": 77,
      "hit": false,
      "t": 236244,
      "d": 836,
      "v": 50
    },
    {
      "midi": 65,
      "hit": false,
      "t": 236272,
      "d": 868,
      "v": 49
    },
    {
      "midi": 63,
      "hit": false,
      "t": 237120,
      "d": 204,
      "v": 62
    },
    {
      "midi": 56,
      "hit": false,
      "t": 237136,
      "d": 216,
      "v": 39
    },
    {
      "midi": 59,
      "hit": false,
      "t": 237140,
      "d": 180,
      "v": 49
    },
    {
      "midi": 53,
      "hit": false,
      "t": 237152,
      "d": 264,
      "v": 40
    },
    {
      "midi": 54,
      "hit": false,
      "t": 237476,
      "d": 36,
      "v": 33
    },
    {
      "midi": 56,
      "hit": false,
      "t": 237480,
      "d": 88,
      "v": 48
    },
    {
      "midi": 58,
      "hit": false,
      "t": 237596,
      "d": 236,
      "v": 72
    },
    {
      "midi": 63,
      "hit": false,
      "t": 237604,
      "d": 216,
      "v": 62
    },
    {
      "midi": 70,
      "hit": false,
      "t": 237608,
      "d": 240,
      "v": 65
    },
    {
      "midi": 59,
      "hit": false,
      "t": 237612,
      "d": 180,
      "v": 64
    },
    {
      "midi": 65,
      "hit": false,
      "t": 237612,
      "d": 256,
      "v": 67
    },
    {
      "midi": 54,
      "hit": false,
      "t": 237880,
      "d": 52,
      "v": 26
    },
    {
      "midi": 67,
      "hit": false,
      "t": 237944,
      "d": 136,
      "v": 59
    },
    {
      "midi": 58,
      "hit": false,
      "t": 237952,
      "d": 76,
      "v": 53
    },
    {
      "midi": 61,
      "hit": false,
      "t": 237956,
      "d": 108,
      "v": 49
    },
    {
      "midi": 55,
      "hit": false,
      "t": 237960,
      "d": 80,
      "v": 65
    },
    {
      "midi": 65,
      "hit": false,
      "t": 237960,
      "d": 88,
      "v": 28
    },
    {
      "midi": 67,
      "hit": false,
      "t": 238296,
      "d": 88,
      "v": 60
    },
    {
      "midi": 68,
      "hit": false,
      "t": 238440,
      "d": 88,
      "v": 74
    },
    {
      "midi": 70,
      "hit": false,
      "t": 238608,
      "d": 100,
      "v": 64
    },
    {
      "midi": 72,
      "hit": false,
      "t": 238764,
      "d": 72,
      "v": 47
    },
    {
      "midi": 73,
      "hit": false,
      "t": 238924,
      "d": 144,
      "v": 68
    },
    {
      "midi": 64,
      "hit": false,
      "t": 238928,
      "d": 120,
      "v": 78
    },
    {
      "midi": 63,
      "hit": false,
      "t": 238932,
      "d": 124,
      "v": 60
    },
    {
      "midi": 68,
      "hit": false,
      "t": 238940,
      "d": 100,
      "v": 54
    },
    {
      "midi": 72,
      "hit": false,
      "t": 239088,
      "d": 80,
      "v": 56
    },
    {
      "midi": 61,
      "hit": false,
      "t": 239092,
      "d": 128,
      "v": 35
    },
    {
      "midi": 70,
      "hit": false,
      "t": 239148,
      "d": 40,
      "v": 27
    },
    {
      "midi": 75,
      "hit": false,
      "t": 239264,
      "d": 128,
      "v": 80
    },
    {
      "midi": 68,
      "hit": false,
      "t": 239272,
      "d": 124,
      "v": 63
    },
    {
      "midi": 64,
      "hit": false,
      "t": 239272,
      "d": 128,
      "v": 71
    },
    {
      "midi": 63,
      "hit": false,
      "t": 239272,
      "d": 140,
      "v": 62
    },
    {
      "midi": 70,
      "hit": false,
      "t": 239280,
      "d": 92,
      "v": 50
    },
    {
      "midi": 61,
      "hit": false,
      "t": 239424,
      "d": 112,
      "v": 42
    },
    {
      "midi": 73,
      "hit": false,
      "t": 239428,
      "d": 92,
      "v": 39
    },
    {
      "midi": 64,
      "hit": false,
      "t": 239440,
      "d": 76,
      "v": 29
    },
    {
      "midi": 70,
      "hit": false,
      "t": 239452,
      "d": 40,
      "v": 36
    },
    {
      "midi": 72,
      "hit": false,
      "t": 239624,
      "d": 76,
      "v": 64
    },
    {
      "midi": 64,
      "hit": false,
      "t": 239632,
      "d": 92,
      "v": 56
    },
    {
      "midi": 60,
      "hit": false,
      "t": 239636,
      "d": 100,
      "v": 61
    },
    {
      "midi": 67,
      "hit": false,
      "t": 239640,
      "d": 60,
      "v": 46
    },
    {
      "midi": 70,
      "hit": false,
      "t": 239780,
      "d": 72,
      "v": 59
    },
    {
      "midi": 58,
      "hit": false,
      "t": 239788,
      "d": 116,
      "v": 45
    },
    {
      "midi": 53,
      "hit": false,
      "t": 240260,
      "d": 140,
      "v": 60
    },
    {
      "midi": 64,
      "hit": false,
      "t": 240264,
      "d": 160,
      "v": 63
    },
    {
      "midi": 56,
      "hit": false,
      "t": 240420,
      "d": 124,
      "v": 64
    },
    {
      "midi": 65,
      "hit": false,
      "t": 240432,
      "d": 28,
      "v": 59
    },
    {
      "midi": 67,
      "hit": false,
      "t": 240432,
      "d": 92,
      "v": 76
    },
    {
      "midi": 60,
      "hit": false,
      "t": 240436,
      "d": 132,
      "v": 53
    },
    {
      "midi": 55,
      "hit": false,
      "t": 240440,
      "d": 160,
      "v": 69
    },
    {
      "midi": 66,
      "hit": false,
      "t": 240608,
      "d": 104,
      "v": 70
    },
    {
      "midi": 54,
      "hit": false,
      "t": 240612,
      "d": 124,
      "v": 59
    },
    {
      "midi": 56,
      "hit": false,
      "t": 240616,
      "d": 104,
      "v": 47
    },
    {
      "midi": 60,
      "hit": false,
      "t": 240640,
      "d": 248,
      "v": 59
    },
    {
      "midi": 65,
      "hit": false,
      "t": 240768,
      "d": 88,
      "v": 59
    },
    {
      "midi": 53,
      "hit": false,
      "t": 240768,
      "d": 108,
      "v": 44
    },
    {
      "midi": 54,
      "hit": false,
      "t": 241300,
      "d": 92,
      "v": 62
    },
    {
      "midi": 51,
      "hit": false,
      "t": 241304,
      "d": 124,
      "v": 62
    },
    {
      "midi": 63,
      "hit": false,
      "t": 241304,
      "d": 124,
      "v": 55
    },
    {
      "midi": 60,
      "hit": false,
      "t": 241312,
      "d": 96,
      "v": 59
    },
    {
      "midi": 53,
      "hit": false,
      "t": 241444,
      "d": 76,
      "v": 60
    },
    {
      "midi": 65,
      "hit": false,
      "t": 241448,
      "d": 72,
      "v": 62
    },
    {
      "midi": 54,
      "hit": false,
      "t": 241456,
      "d": 68,
      "v": 45
    },
    {
      "midi": 60,
      "hit": false,
      "t": 241460,
      "d": 104,
      "v": 28
    },
    {
      "midi": 50,
      "hit": false,
      "t": 241632,
      "d": 128,
      "v": 35
    },
    {
      "midi": 54,
      "hit": false,
      "t": 241640,
      "d": 52,
      "v": 32
    },
    {
      "midi": 62,
      "hit": false,
      "t": 241656,
      "d": 156,
      "v": 62
    },
    {
      "midi": 54,
      "hit": false,
      "t": 241768,
      "d": 68,
      "v": 42
    },
    {
      "midi": 49,
      "hit": false,
      "t": 242024,
      "d": 56,
      "v": 61
    },
    {
      "midi": 58,
      "hit": false,
      "t": 242308,
      "d": 108,
      "v": 57
    },
    {
      "midi": 70,
      "hit": false,
      "t": 242320,
      "d": 100,
      "v": 76
    },
    {
      "midi": 63,
      "hit": false,
      "t": 242336,
      "d": 88,
      "v": 63
    },
    {
      "midi": 59,
      "hit": false,
      "t": 242340,
      "d": 76,
      "v": 64
    },
    {
      "midi": 56,
      "hit": false,
      "t": 242480,
      "d": 328,
      "v": 48
    },
    {
      "midi": 68,
      "hit": false,
      "t": 242488,
      "d": 148,
      "v": 53
    },
    {
      "midi": 63,
      "hit": false,
      "t": 242496,
      "d": 200,
      "v": 42
    },
    {
      "midi": 59,
      "hit": false,
      "t": 242508,
      "d": 148,
      "v": 36
    },
    {
      "midi": 49,
      "hit": false,
      "t": 242768,
      "d": 84,
      "v": 54
    },
    {
      "midi": 58,
      "hit": false,
      "t": 242916,
      "d": 224,
      "v": 62
    },
    {
      "midi": 68,
      "hit": false,
      "t": 242916,
      "d": 228,
      "v": 63
    },
    {
      "midi": 61,
      "hit": false,
      "t": 242924,
      "d": 220,
      "v": 54
    },
    {
      "midi": 64,
      "hit": false,
      "t": 242932,
      "d": 188,
      "v": 51
    },
    {
      "midi": 57,
      "hit": false,
      "t": 242944,
      "d": 32,
      "v": 25
    },
    {
      "midi": 55,
      "hit": false,
      "t": 242948,
      "d": 256,
      "v": 31
    },
    {
      "midi": 48,
      "hit": false,
      "t": 243240,
      "d": 84,
      "v": 66
    },
    {
      "midi": 53,
      "hit": false,
      "t": 243272,
      "d": 76,
      "v": 69
    },
    {
      "midi": 55,
      "hit": false,
      "t": 243288,
      "d": 28,
      "v": 44
    },
    {
      "midi": 56,
      "hit": false,
      "t": 243400,
      "d": 184,
      "v": 70
    },
    {
      "midi": 58,
      "hit": false,
      "t": 243604,
      "d": 236,
      "v": 25
    },
    {
      "midi": 56,
      "hit": false,
      "t": 243744,
      "d": 76,
      "v": 40
    },
    {
      "midi": 53,
      "hit": false,
      "t": 243840,
      "d": 28,
      "v": 51
    },
    {
      "midi": 58,
      "hit": false,
      "t": 243912,
      "d": 440,
      "v": 85
    },
    {
      "midi": 48,
      "hit": false,
      "t": 243928,
      "d": 32,
      "v": 51
    },
    {
      "midi": 56,
      "hit": false,
      "t": 244348,
      "d": 340,
      "v": 63
    },
    {
      "midi": 53,
      "hit": false,
      "t": 244672,
      "d": 36,
      "v": 53
    },
    {
      "midi": 58,
      "hit": false,
      "t": 244816,
      "d": 104,
      "v": 82
    },
    {
      "midi": 59,
      "hit": false,
      "t": 244928,
      "d": 104,
      "v": 60
    },
    {
      "midi": 58,
      "hit": false,
      "t": 245000,
      "d": 116,
      "v": 48
    },
    {
      "midi": 56,
      "hit": false,
      "t": 245124,
      "d": 120,
      "v": 40
    },
    {
      "midi": 53,
      "hit": false,
      "t": 245228,
      "d": 60,
      "v": 52
    },
    {
      "midi": 58,
      "hit": false,
      "t": 245324,
      "d": 596,
      "v": 91
    },
    {
      "midi": 56,
      "hit": false,
      "t": 245632,
      "d": 288,
      "v": 83
    },
    {
      "midi": 51,
      "hit": false,
      "t": 245928,
      "d": 28,
      "v": 51
    },
    {
      "midi": 52,
      "hit": false,
      "t": 245968,
      "d": 88,
      "v": 51
    },
    {
      "midi": 55,
      "hit": false,
      "t": 246112,
      "d": 144,
      "v": 80
    },
    {
      "midi": 52,
      "hit": false,
      "t": 246288,
      "d": 896,
      "v": 68
    },
    {
      "midi": 60,
      "hit": false,
      "t": 247728,
      "d": 72,
      "v": 71
    },
    {
      "midi": 56,
      "hit": false,
      "t": 247728,
      "d": 124,
      "v": 52
    },
    {
      "midi": 50,
      "hit": false,
      "t": 247740,
      "d": 72,
      "v": 50
    },
    {
      "midi": 63,
      "hit": false,
      "t": 248648,
      "d": 76,
      "v": 45
    },
    {
      "midi": 59,
      "hit": false,
      "t": 248656,
      "d": 80,
      "v": 44
    },
    {
      "midi": 56,
      "hit": false,
      "t": 248660,
      "d": 108,
      "v": 36
    },
    {
      "midi": 53,
      "hit": false,
      "t": 248672,
      "d": 36,
      "v": 35
    },
    {
      "midi": 59,
      "hit": false,
      "t": 249024,
      "d": 36,
      "v": 29
    },
    {
      "midi": 67,
      "hit": false,
      "t": 249156,
      "d": 296,
      "v": 113
    },
    {
      "midi": 68,
      "hit": false,
      "t": 249484,
      "d": 140,
      "v": 76
    },
    {
      "midi": 63,
      "hit": false,
      "t": 249496,
      "d": 52,
      "v": 57
    },
    {
      "midi": 58,
      "hit": false,
      "t": 249496,
      "d": 120,
      "v": 50
    },
    {
      "midi": 52,
      "hit": false,
      "t": 249520,
      "d": 40,
      "v": 37
    },
    {
      "midi": 67,
      "hit": false,
      "t": 249672,
      "d": 280,
      "v": 49
    },
    {
      "midi": 65,
      "hit": false,
      "t": 249980,
      "d": 100,
      "v": 57
    },
    {
      "midi": 60,
      "hit": false,
      "t": 250128,
      "d": 364,
      "v": 44
    },
    {
      "midi": 60,
      "hit": false,
      "t": 250620,
      "d": 184,
      "v": 51
    },
    {
      "midi": 59,
      "hit": false,
      "t": 251076,
      "d": 164,
      "v": 48
    },
    {
      "midi": 63,
      "hit": false,
      "t": 251076,
      "d": 220,
      "v": 56
    },
    {
      "midi": 53,
      "hit": false,
      "t": 251088,
      "d": 120,
      "v": 47
    },
    {
      "midi": 64,
      "hit": false,
      "t": 251560,
      "d": 448,
      "v": 43
    },
    {
      "midi": 54,
      "hit": false,
      "t": 251568,
      "d": 500,
      "v": 37
    },
    {
      "midi": 59,
      "hit": false,
      "t": 251572,
      "d": 468,
      "v": 44
    },
    {
      "midi": 71,
      "hit": false,
      "t": 252044,
      "d": 368,
      "v": 67
    },
    {
      "midi": 82,
      "hit": false,
      "t": 252372,
      "d": 208,
      "v": 90
    },
    {
      "midi": 80,
      "hit": false,
      "t": 252664,
      "d": 144,
      "v": 71
    },
    {
      "midi": 75,
      "hit": false,
      "t": 252860,
      "d": 152,
      "v": 74
    },
    {
      "midi": 64,
      "hit": false,
      "t": 252876,
      "d": 40,
      "v": 56
    },
    {
      "midi": 59,
      "hit": false,
      "t": 252888,
      "d": 76,
      "v": 45
    },
    {
      "midi": 71,
      "hit": false,
      "t": 253064,
      "d": 208,
      "v": 49
    },
    {
      "midi": 61,
      "hit": false,
      "t": 253328,
      "d": 68,
      "v": 64
    },
    {
      "midi": 70,
      "hit": false,
      "t": 253328,
      "d": 116,
      "v": 72
    },
    {
      "midi": 53,
      "hit": false,
      "t": 253344,
      "d": 28,
      "v": 54
    },
    {
      "midi": 58,
      "hit": false,
      "t": 253364,
      "d": 124,
      "v": 34
    },
    {
      "midi": 68,
      "hit": false,
      "t": 253512,
      "d": 128,
      "v": 63
    },
    {
      "midi": 70,
      "hit": false,
      "t": 253680,
      "d": 132,
      "v": 43
    },
    {
      "midi": 68,
      "hit": false,
      "t": 253748,
      "d": 100,
      "v": 54
    },
    {
      "midi": 67,
      "hit": false,
      "t": 253836,
      "d": 100,
      "v": 48
    },
    {
      "midi": 61,
      "hit": false,
      "t": 253876,
      "d": 36,
      "v": 32
    },
    {
      "midi": 58,
      "hit": false,
      "t": 253912,
      "d": 100,
      "v": 35
    },
    {
      "midi": 65,
      "hit": false,
      "t": 253992,
      "d": 272,
      "v": 74
    },
    {
      "midi": 62,
      "hit": false,
      "t": 254284,
      "d": 132,
      "v": 59
    },
    {
      "midi": 63,
      "hit": false,
      "t": 254460,
      "d": 80,
      "v": 51
    },
    {
      "midi": 64,
      "hit": false,
      "t": 254596,
      "d": 100,
      "v": 44
    },
    {
      "midi": 70,
      "hit": false,
      "t": 254728,
      "d": 120,
      "v": 58
    },
    {
      "midi": 63,
      "hit": false,
      "t": 254772,
      "d": 48,
      "v": 52
    },
    {
      "midi": 58,
      "hit": false,
      "t": 254792,
      "d": 112,
      "v": 34
    },
    {
      "midi": 75,
      "hit": false,
      "t": 254880,
      "d": 96,
      "v": 74
    },
    {
      "midi": 73,
      "hit": false,
      "t": 255036,
      "d": 120,
      "v": 46
    },
    {
      "midi": 60,
      "hit": false,
      "t": 255676,
      "d": 44,
      "v": 48
    },
    {
      "midi": 56,
      "hit": false,
      "t": 255676,
      "d": 124,
      "v": 37
    },
    {
      "midi": 67,
      "hit": false,
      "t": 255848,
      "d": 80,
      "v": 42
    },
    {
      "midi": 68,
      "hit": false,
      "t": 255968,
      "d": 76,
      "v": 56
    },
    {
      "midi": 72,
      "hit": false,
      "t": 256104,
      "d": 100,
      "v": 72
    },
    {
      "midi": 71,
      "hit": false,
      "t": 256132,
      "d": 28,
      "v": 28
    },
    {
      "midi": 74,
      "hit": false,
      "t": 256264,
      "d": 36,
      "v": 63
    },
    {
      "midi": 65,
      "hit": false,
      "t": 256316,
      "d": 32,
      "v": 47
    },
    {
      "midi": 60,
      "hit": false,
      "t": 256328,
      "d": 56,
      "v": 36
    },
    {
      "midi": 54,
      "hit": false,
      "t": 256336,
      "d": 84,
      "v": 30
    },
    {
      "midi": 77,
      "hit": false,
      "t": 256404,
      "d": 132,
      "v": 88
    },
    {
      "midi": 75,
      "hit": false,
      "t": 256544,
      "d": 104,
      "v": 61
    },
    {
      "midi": 72,
      "hit": false,
      "t": 256648,
      "d": 96,
      "v": 58
    },
    {
      "midi": 60,
      "hit": false,
      "t": 256764,
      "d": 36,
      "v": 31
    },
    {
      "midi": 58,
      "hit": false,
      "t": 256792,
      "d": 76,
      "v": 18
    },
    {
      "midi": 65,
      "hit": false,
      "t": 256916,
      "d": 72,
      "v": 29
    },
    {
      "midi": 63,
      "hit": false,
      "t": 257024,
      "d": 32,
      "v": 46
    },
    {
      "midi": 62,
      "hit": false,
      "t": 257120,
      "d": 84,
      "v": 22
    },
    {
      "midi": 59,
      "hit": false,
      "t": 257252,
      "d": 64,
      "v": 49
    },
    {
      "midi": 56,
      "hit": false,
      "t": 257260,
      "d": 56,
      "v": 23
    },
    {
      "midi": 70,
      "hit": false,
      "t": 257356,
      "d": 76,
      "v": 75
    },
    {
      "midi": 68,
      "hit": false,
      "t": 257520,
      "d": 100,
      "v": 71
    },
    {
      "midi": 63,
      "hit": false,
      "t": 257664,
      "d": 96,
      "v": 62
    },
    {
      "midi": 56,
      "hit": false,
      "t": 257680,
      "d": 76,
      "v": 32
    },
    {
      "midi": 59,
      "hit": false,
      "t": 257832,
      "d": 104,
      "v": 46
    },
    {
      "midi": 58,
      "hit": false,
      "t": 257976,
      "d": 100,
      "v": 36
    },
    {
      "midi": 56,
      "hit": false,
      "t": 258128,
      "d": 576,
      "v": 48
    },
    {
      "midi": 44,
      "hit": false,
      "t": 258624,
      "d": 40,
      "v": 42
    },
    {
      "midi": 55,
      "hit": false,
      "t": 258776,
      "d": 136,
      "v": 85
    },
    {
      "midi": 56,
      "hit": false,
      "t": 258948,
      "d": 116,
      "v": 28
    },
    {
      "midi": 55,
      "hit": false,
      "t": 259000,
      "d": 104,
      "v": 50
    },
    {
      "midi": 53,
      "hit": false,
      "t": 259108,
      "d": 96,
      "v": 48
    },
    {
      "midi": 52,
      "hit": false,
      "t": 259264,
      "d": 292,
      "v": 34
    },
    {
      "midi": 55,
      "hit": false,
      "t": 259560,
      "d": 100,
      "v": 80
    },
    {
      "midi": 43,
      "hit": false,
      "t": 259608,
      "d": 40,
      "v": 30
    },
    {
      "midi": 49,
      "hit": false,
      "t": 259728,
      "d": 320,
      "v": 67
    },
    {
      "midi": 43,
      "hit": false,
      "t": 260048,
      "d": 28,
      "v": 38
    },
    {
      "midi": 48,
      "hit": false,
      "t": 260168,
      "d": 256,
      "v": 72
    },
    {
      "midi": 51,
      "hit": false,
      "t": 260496,
      "d": 112,
      "v": 67
    },
    {
      "midi": 44,
      "hit": false,
      "t": 260524,
      "d": 40,
      "v": 29
    },
    {
      "midi": 52,
      "hit": false,
      "t": 260668,
      "d": 120,
      "v": 35
    },
    {
      "midi": 55,
      "hit": false,
      "t": 260824,
      "d": 120,
      "v": 89
    },
    {
      "midi": 52,
      "hit": false,
      "t": 260976,
      "d": 168,
      "v": 68
    },
    {
      "midi": 41,
      "hit": false,
      "t": 261000,
      "d": 36,
      "v": 46
    },
    {
      "midi": 53,
      "hit": false,
      "t": 261152,
      "d": 100,
      "v": 68
    },
    {
      "midi": 55,
      "hit": false,
      "t": 261320,
      "d": 132,
      "v": 78
    },
    {
      "midi": 56,
      "hit": false,
      "t": 261484,
      "d": 92,
      "v": 59
    },
    {
      "midi": 60,
      "hit": false,
      "t": 261640,
      "d": 116,
      "v": 74
    },
    {
      "midi": 64,
      "hit": false,
      "t": 261808,
      "d": 112,
      "v": 87
    },
    {
      "midi": 67,
      "hit": false,
      "t": 261972,
      "d": 132,
      "v": 91
    },
    {
      "midi": 56,
      "hit": false,
      "t": 261972,
      "d": 144,
      "v": 67
    },
    {
      "midi": 60,
      "hit": false,
      "t": 261976,
      "d": 60,
      "v": 76
    },
    {
      "midi": 50,
      "hit": false,
      "t": 261980,
      "d": 84,
      "v": 74
    },
    {
      "midi": 66,
      "hit": false,
      "t": 261988,
      "d": 120,
      "v": 58
    },
    {
      "midi": 64,
      "hit": false,
      "t": 262136,
      "d": 128,
      "v": 66
    },
    {
      "midi": 65,
      "hit": false,
      "t": 262304,
      "d": 120,
      "v": 88
    },
    {
      "midi": 67,
      "hit": false,
      "t": 262464,
      "d": 128,
      "v": 80
    },
    {
      "midi": 68,
      "hit": false,
      "t": 262632,
      "d": 128,
      "v": 77
    },
    {
      "midi": 69,
      "hit": false,
      "t": 262784,
      "d": 112,
      "v": 80
    },
    {
      "midi": 63,
      "hit": false,
      "t": 262952,
      "d": 928,
      "v": 74
    },
    {
      "midi": 59,
      "hit": false,
      "t": 262956,
      "d": 652,
      "v": 66
    },
    {
      "midi": 70,
      "hit": false,
      "t": 262956,
      "d": 1216,
      "v": 85
    },
    {
      "midi": 56,
      "hit": false,
      "t": 262960,
      "d": 984,
      "v": 51
    },
    {
      "midi": 53,
      "hit": false,
      "t": 262964,
      "d": 832,
      "v": 68
    },
    {
      "midi": 63,
      "hit": false,
      "t": 264044,
      "d": 52,
      "v": 59
    },
    {
      "midi": 58,
      "hit": false,
      "t": 264056,
      "d": 56,
      "v": 52
    },
    {
      "midi": 72,
      "hit": false,
      "t": 264200,
      "d": 104,
      "v": 60
    },
    {
      "midi": 73,
      "hit": false,
      "t": 264344,
      "d": 88,
      "v": 46
    },
    {
      "midi": 75,
      "hit": false,
      "t": 264508,
      "d": 140,
      "v": 79
    },
    {
      "midi": 76,
      "hit": false,
      "t": 264644,
      "d": 84,
      "v": 61
    },
    {
      "midi": 75,
      "hit": false,
      "t": 264708,
      "d": 120,
      "v": 45
    },
    {
      "midi": 73,
      "hit": false,
      "t": 264840,
      "d": 76,
      "v": 28
    },
    {
      "midi": 72,
      "hit": false,
      "t": 264908,
      "d": 60,
      "v": 52
    },
    {
      "midi": 75,
      "hit": false,
      "t": 265016,
      "d": 264,
      "v": 82
    },
    {
      "midi": 73,
      "hit": false,
      "t": 265324,
      "d": 132,
      "v": 63
    },
    {
      "midi": 62,
      "hit": false,
      "t": 265352,
      "d": 28,
      "v": 43
    },
    {
      "midi": 56,
      "hit": false,
      "t": 265356,
      "d": 100,
      "v": 27
    },
    {
      "midi": 60,
      "hit": false,
      "t": 265360,
      "d": 40,
      "v": 38
    },
    {
      "midi": 72,
      "hit": false,
      "t": 265508,
      "d": 208,
      "v": 42
    },
    {
      "midi": 70,
      "hit": false,
      "t": 265800,
      "d": 128,
      "v": 63
    },
    {
      "midi": 68,
      "hit": false,
      "t": 265984,
      "d": 328,
      "v": 49
    },
    {
      "midi": 59,
      "hit": false,
      "t": 266348,
      "d": 40,
      "v": 26
    },
    {
      "midi": 53,
      "hit": false,
      "t": 266372,
      "d": 48,
      "v": 20
    },
    {
      "midi": 66,
      "hit": false,
      "t": 266432,
      "d": 96,
      "v": 53
    },
    {
      "midi": 67,
      "hit": false,
      "t": 266460,
      "d": 396,
      "v": 60
    },
    {
      "midi": 65,
      "hit": false,
      "t": 266924,
      "d": 312,
      "v": 62
    },
    {
      "midi": 64,
      "hit": false,
      "t": 267248,
      "d": 88,
      "v": 57
    },
    {
      "midi": 65,
      "hit": false,
      "t": 267384,
      "d": 332,
      "v": 53
    },
    {
      "midi": 53,
      "hit": false,
      "t": 267724,
      "d": 40,
      "v": 44
    },
    {
      "midi": 67,
      "hit": false,
      "t": 267844,
      "d": 312,
      "v": 69
    },
    {
      "midi": 63,
      "hit": false,
      "t": 267848,
      "d": 312,
      "v": 68
    },
    {
      "midi": 58,
      "hit": false,
      "t": 267848,
      "d": 316,
      "v": 70
    },
    {
      "midi": 59,
      "hit": false,
      "t": 267852,
      "d": 324,
      "v": 62
    },
    {
      "midi": 53,
      "hit": false,
      "t": 268192,
      "d": 528,
      "v": 32
    },
    {
      "midi": 63,
      "hit": false,
      "t": 268320,
      "d": 324,
      "v": 70
    },
    {
      "midi": 67,
      "hit": false,
      "t": 268324,
      "d": 396,
      "v": 57
    },
    {
      "midi": 59,
      "hit": false,
      "t": 268328,
      "d": 276,
      "v": 57
    },
    {
      "midi": 58,
      "hit": false,
      "t": 268328,
      "d": 360,
      "v": 59
    },
    {
      "midi": 54,
      "hit": false,
      "t": 268672,
      "d": 112,
      "v": 34
    },
    {
      "midi": 55,
      "hit": false,
      "t": 268808,
      "d": 84,
      "v": 49
    },
    {
      "midi": 58,
      "hit": false,
      "t": 268812,
      "d": 92,
      "v": 47
    },
    {
      "midi": 65,
      "hit": false,
      "t": 268816,
      "d": 100,
      "v": 59
    },
    {
      "midi": 61,
      "hit": false,
      "t": 268824,
      "d": 80,
      "v": 46
    },
    {
      "midi": 58,
      "hit": false,
      "t": 269144,
      "d": 64,
      "v": 75
    },
    {
      "midi": 70,
      "hit": false,
      "t": 269144,
      "d": 120,
      "v": 71
    },
    {
      "midi": 65,
      "hit": false,
      "t": 269148,
      "d": 112,
      "v": 81
    },
    {
      "midi": 61,
      "hit": false,
      "t": 269152,
      "d": 104,
      "v": 60
    },
    {
      "midi": 72,
      "hit": false,
      "t": 269372,
      "d": 140,
      "v": 81
    },
    {
      "midi": 65,
      "hit": false,
      "t": 269376,
      "d": 120,
      "v": 85
    },
    {
      "midi": 61,
      "hit": false,
      "t": 269380,
      "d": 124,
      "v": 67
    },
    {
      "midi": 60,
      "hit": false,
      "t": 269384,
      "d": 100,
      "v": 74
    },
    {
      "midi": 61,
      "hit": false,
      "t": 269624,
      "d": 56,
      "v": 61
    },
    {
      "midi": 70,
      "hit": false,
      "t": 269624,
      "d": 124,
      "v": 65
    },
    {
      "midi": 58,
      "hit": false,
      "t": 269632,
      "d": 96,
      "v": 51
    },
    {
      "midi": 73,
      "hit": false,
      "t": 269884,
      "d": 128,
      "v": 58
    },
    {
      "midi": 63,
      "hit": false,
      "t": 269892,
      "d": 128,
      "v": 69
    },
    {
      "midi": 64,
      "hit": false,
      "t": 269896,
      "d": 92,
      "v": 67
    },
    {
      "midi": 68,
      "hit": false,
      "t": 269896,
      "d": 104,
      "v": 61
    },
    {
      "midi": 70,
      "hit": false,
      "t": 269896,
      "d": 108,
      "v": 55
    },
    {
      "midi": 75,
      "hit": false,
      "t": 270072,
      "d": 96,
      "v": 77
    },
    {
      "midi": 63,
      "hit": false,
      "t": 270080,
      "d": 64,
      "v": 57
    },
    {
      "midi": 68,
      "hit": false,
      "t": 270084,
      "d": 68,
      "v": 65
    },
    {
      "midi": 64,
      "hit": false,
      "t": 270088,
      "d": 36,
      "v": 58
    },
    {
      "midi": 70,
      "hit": false,
      "t": 270096,
      "d": 32,
      "v": 40
    },
    {
      "midi": 67,
      "hit": false,
      "t": 270620,
      "d": 64,
      "v": 60
    },
    {
      "midi": 55,
      "hit": false,
      "t": 270656,
      "d": 32,
      "v": 33
    },
    {
      "midi": 64,
      "hit": false,
      "t": 270856,
      "d": 92,
      "v": 79
    },
    {
      "midi": 67,
      "hit": false,
      "t": 270856,
      "d": 96,
      "v": 71
    },
    {
      "midi": 58,
      "hit": false,
      "t": 270860,
      "d": 72,
      "v": 69
    },
    {
      "midi": 72,
      "hit": false,
      "t": 270860,
      "d": 120,
      "v": 77
    },
    {
      "midi": 72,
      "hit": false,
      "t": 271120,
      "d": 64,
      "v": 66
    },
    {
      "midi": 67,
      "hit": false,
      "t": 271128,
      "d": 64,
      "v": 58
    },
    {
      "midi": 58,
      "hit": false,
      "t": 271128,
      "d": 88,
      "v": 69
    },
    {
      "midi": 64,
      "hit": false,
      "t": 271132,
      "d": 100,
      "v": 73
    },
    {
      "midi": 70,
      "hit": false,
      "t": 271320,
      "d": 76,
      "v": 54
    },
    {
      "midi": 56,
      "hit": false,
      "t": 271320,
      "d": 208,
      "v": 52
    },
    {
      "midi": 60,
      "hit": false,
      "t": 271360,
      "d": 84,
      "v": 27
    },
    {
      "midi": 62,
      "hit": false,
      "t": 271364,
      "d": 28,
      "v": 24
    },
    {
      "midi": 68,
      "hit": false,
      "t": 271596,
      "d": 36,
      "v": 46
    },
    {
      "midi": 55,
      "hit": false,
      "t": 271596,
      "d": 108,
      "v": 62
    },
    {
      "midi": 60,
      "hit": false,
      "t": 271600,
      "d": 60,
      "v": 64
    },
    {
      "midi": 63,
      "hit": false,
      "t": 271600,
      "d": 68,
      "v": 59
    },
    {
      "midi": 65,
      "hit": false,
      "t": 271836,
      "d": 268,
      "v": 68
    },
    {
      "midi": 60,
      "hit": false,
      "t": 271840,
      "d": 252,
      "v": 64
    },
    {
      "midi": 54,
      "hit": false,
      "t": 271852,
      "d": 252,
      "v": 50
    },
    {
      "midi": 54,
      "hit": false,
      "t": 272216,
      "d": 268,
      "v": 50
    },
    {
      "midi": 60,
      "hit": false,
      "t": 272220,
      "d": 140,
      "v": 44
    },
    {
      "midi": 49,
      "hit": false,
      "t": 272224,
      "d": 220,
      "v": 37
    },
    {
      "midi": 63,
      "hit": false,
      "t": 272224,
      "d": 220,
      "v": 44
    },
    {
      "midi": 62,
      "hit": false,
      "t": 272532,
      "d": 152,
      "v": 59
    },
    {
      "midi": 58,
      "hit": false,
      "t": 272536,
      "d": 164,
      "v": 51
    },
    {
      "midi": 53,
      "hit": false,
      "t": 272544,
      "d": 80,
      "v": 58
    },
    {
      "midi": 43,
      "hit": false,
      "t": 272552,
      "d": 160,
      "v": 41
    },
    {
      "midi": 50,
      "hit": false,
      "t": 272564,
      "d": 188,
      "v": 28
    },
    {
      "midi": 70,
      "hit": false,
      "t": 273012,
      "d": 108,
      "v": 64
    },
    {
      "midi": 63,
      "hit": false,
      "t": 273016,
      "d": 136,
      "v": 69
    },
    {
      "midi": 67,
      "hit": false,
      "t": 273020,
      "d": 88,
      "v": 65
    },
    {
      "midi": 58,
      "hit": false,
      "t": 273020,
      "d": 128,
      "v": 72
    },
    {
      "midi": 55,
      "hit": false,
      "t": 273032,
      "d": 132,
      "v": 62
    },
    {
      "midi": 53,
      "hit": false,
      "t": 273192,
      "d": 288,
      "v": 44
    },
    {
      "midi": 68,
      "hit": false,
      "t": 273200,
      "d": 236,
      "v": 43
    },
    {
      "midi": 58,
      "hit": false,
      "t": 273208,
      "d": 184,
      "v": 17
    },
    {
      "midi": 63,
      "hit": false,
      "t": 273216,
      "d": 176,
      "v": 27
    },
    {
      "midi": 55,
      "hit": false,
      "t": 273500,
      "d": 36,
      "v": 30
    },
    {
      "midi": 68,
      "hit": false,
      "t": 273628,
      "d": 372,
      "v": 64
    },
    {
      "midi": 58,
      "hit": false,
      "t": 273636,
      "d": 356,
      "v": 53
    },
    {
      "midi": 61,
      "hit": false,
      "t": 273640,
      "d": 332,
      "v": 49
    },
    {
      "midi": 64,
      "hit": false,
      "t": 273648,
      "d": 296,
      "v": 57
    },
    {
      "midi": 57,
      "hit": false,
      "t": 273648,
      "d": 304,
      "v": 57
    },
    {
      "midi": 51,
      "hit": false,
      "t": 273988,
      "d": 96,
      "v": 25
    },
    {
      "midi": 61,
      "hit": false,
      "t": 274092,
      "d": 240,
      "v": 42
    },
    {
      "midi": 58,
      "hit": false,
      "t": 274100,
      "d": 200,
      "v": 44
    },
    {
      "midi": 55,
      "hit": false,
      "t": 274108,
      "d": 276,
      "v": 48
    },
    {
      "midi": 60,
      "hit": false,
      "t": 274416,
      "d": 40,
      "v": 61
    },
    {
      "midi": 65,
      "hit": false,
      "t": 274420,
      "d": 84,
      "v": 60
    },
    {
      "midi": 53,
      "hit": false,
      "t": 274440,
      "d": 32,
      "v": 44
    },
    {
      "midi": 53,
      "hit": false,
      "t": 274856,
      "d": 104,
      "v": 67
    },
    {
      "midi": 63,
      "hit": false,
      "t": 274860,
      "d": 176,
      "v": 67
    },
    {
      "midi": 72,
      "hit": false,
      "t": 274864,
      "d": 376,
      "v": 79
    },
    {
      "midi": 58,
      "hit": false,
      "t": 274868,
      "d": 164,
      "v": 57
    },
    {
      "midi": 68,
      "hit": false,
      "t": 274872,
      "d": 332,
      "v": 76
    },
    {
      "midi": 70,
      "hit": false,
      "t": 275344,
      "d": 256,
      "v": 86
    },
    {
      "midi": 55,
      "hit": false,
      "t": 275348,
      "d": 220,
      "v": 74
    },
    {
      "midi": 60,
      "hit": false,
      "t": 275348,
      "d": 236,
      "v": 76
    },
    {
      "midi": 74,
      "hit": false,
      "t": 275348,
      "d": 244,
      "v": 82
    },
    {
      "midi": 65,
      "hit": false,
      "t": 275352,
      "d": 248,
      "v": 79
    },
    {
      "midi": 64,
      "hit": false,
      "t": 275388,
      "d": 28,
      "v": 28
    },
    {
      "midi": 75,
      "hit": false,
      "t": 275840,
      "d": 304,
      "v": 82
    },
    {
      "midi": 72,
      "hit": false,
      "t": 275848,
      "d": 276,
      "v": 84
    },
    {
      "midi": 66,
      "hit": false,
      "t": 275852,
      "d": 244,
      "v": 77
    },
    {
      "midi": 56,
      "hit": false,
      "t": 275860,
      "d": 252,
      "v": 69
    },
    {
      "midi": 61,
      "hit": false,
      "t": 275860,
      "d": 316,
      "v": 59
    },
    {
      "midi": 61,
      "hit": false,
      "t": 276336,
      "d": 232,
      "v": 42
    },
    {
      "midi": 72,
      "hit": false,
      "t": 276340,
      "d": 196,
      "v": 78
    },
    {
      "midi": 77,
      "hit": false,
      "t": 276340,
      "d": 216,
      "v": 71
    },
    {
      "midi": 56,
      "hit": false,
      "t": 276344,
      "d": 224,
      "v": 52
    },
    {
      "midi": 60,
      "hit": false,
      "t": 276344,
      "d": 232,
      "v": 55
    },
    {
      "midi": 65,
      "hit": false,
      "t": 276348,
      "d": 148,
      "v": 73
    },
    {
      "midi": 56,
      "hit": false,
      "t": 276832,
      "d": 88,
      "v": 64
    },
    {
      "midi": 60,
      "hit": false,
      "t": 276832,
      "d": 88,
      "v": 66
    },
    {
      "midi": 87,
      "hit": false,
      "t": 276832,
      "d": 96,
      "v": 79
    },
    {
      "midi": 61,
      "hit": false,
      "t": 276832,
      "d": 112,
      "v": 54
    },
    {
      "midi": 65,
      "hit": false,
      "t": 276836,
      "d": 72,
      "v": 74
    },
    {
      "midi": 75,
      "hit": false,
      "t": 276836,
      "d": 80,
      "v": 77
    },
    {
      "midi": 82,
      "hit": false,
      "t": 276840,
      "d": 88,
      "v": 60
    },
    {
      "midi": 56,
      "hit": false,
      "t": 276980,
      "d": 220,
      "v": 67
    },
    {
      "midi": 65,
      "hit": false,
      "t": 276984,
      "d": 220,
      "v": 71
    },
    {
      "midi": 61,
      "hit": false,
      "t": 276984,
      "d": 436,
      "v": 49
    },
    {
      "midi": 84,
      "hit": false,
      "t": 276988,
      "d": 200,
      "v": 61
    },
    {
      "midi": 89,
      "hit": false,
      "t": 276992,
      "d": 136,
      "v": 80
    },
    {
      "midi": 60,
      "hit": false,
      "t": 276992,
      "d": 236,
      "v": 73
    },
    {
      "midi": 77,
      "hit": false,
      "t": 276996,
      "d": 180,
      "v": 57
    },
    {
      "midi": 79,
      "hit": false,
      "t": 277024,
      "d": 28,
      "v": 29
    },
    {
      "midi": 56,
      "hit": false,
      "t": 277308,
      "d": 116,
      "v": 57
    },
    {
      "midi": 65,
      "hit": false,
      "t": 277316,
      "d": 36,
      "v": 52
    },
    {
      "midi": 87,
      "hit": false,
      "t": 277320,
      "d": 60,
      "v": 51
    },
    {
      "midi": 75,
      "hit": false,
      "t": 277324,
      "d": 52,
      "v": 65
    },
    {
      "midi": 72,
      "hit": false,
      "t": 277488,
      "d": 244,
      "v": 52
    },
    {
      "midi": 55,
      "hit": false,
      "t": 277488,
      "d": 280,
      "v": 60
    },
    {
      "midi": 78,
      "hit": false,
      "t": 277492,
      "d": 128,
      "v": 33
    },
    {
      "midi": 64,
      "hit": false,
      "t": 277492,
      "d": 280,
      "v": 53
    },
    {
      "midi": 61,
      "hit": false,
      "t": 277496,
      "d": 320,
      "v": 30
    },
    {
      "midi": 84,
      "hit": false,
      "t": 277500,
      "d": 256,
      "v": 36
    },
    {
      "midi": 82,
      "hit": false,
      "t": 277932,
      "d": 216,
      "v": 55
    },
    {
      "midi": 55,
      "hit": false,
      "t": 277944,
      "d": 184,
      "v": 59
    },
    {
      "midi": 61,
      "hit": false,
      "t": 277944,
      "d": 292,
      "v": 44
    },
    {
      "midi": 64,
      "hit": false,
      "t": 277948,
      "d": 196,
      "v": 55
    },
    {
      "midi": 70,
      "hit": false,
      "t": 277952,
      "d": 248,
      "v": 46
    },
    {
      "midi": 75,
      "hit": false,
      "t": 277968,
      "d": 36,
      "v": 28
    },
    {
      "midi": 75,
      "hit": false,
      "t": 278412,
      "d": 588,
      "v": 48
    },
    {
      "midi": 63,
      "hit": false,
      "t": 278420,
      "d": 544,
      "v": 39
    },
    {
      "midi": 79,
      "hit": false,
      "t": 278420,
      "d": 584,
      "v": 47
    },
    {
      "midi": 60,
      "hit": false,
      "t": 278424,
      "d": 520,
      "v": 42
    },
    {
      "midi": 67,
      "hit": false,
      "t": 278424,
      "d": 528,
      "v": 45
    },
    {
      "midi": 58,
      "hit": false,
      "t": 278436,
      "d": 544,
      "v": 35
    },
    {
      "midi": 53,
      "hit": false,
      "t": 278452,
      "d": 548,
      "v": 29
    },
    {
      "midi": 53,
      "hit": false,
      "t": 279388,
      "d": 92,
      "v": 74
    },
    {
      "midi": 63,
      "hit": false,
      "t": 279388,
      "d": 108,
      "v": 72
    },
    {
      "midi": 87,
      "hit": false,
      "t": 279392,
      "d": 84,
      "v": 88
    },
    {
      "midi": 75,
      "hit": false,
      "t": 279396,
      "d": 64,
      "v": 88
    },
    {
      "midi": 58,
      "hit": false,
      "t": 279396,
      "d": 224,
      "v": 56
    },
    {
      "midi": 84,
      "hit": false,
      "t": 279552,
      "d": 64,
      "v": 64
    },
    {
      "midi": 72,
      "hit": false,
      "t": 279556,
      "d": 28,
      "v": 63
    },
    {
      "midi": 64,
      "hit": false,
      "t": 279576,
      "d": 32,
      "v": 30
    },
    {
      "midi": 94,
      "hit": false,
      "t": 279872,
      "d": 88,
      "v": 81
    },
    {
      "midi": 65,
      "hit": false,
      "t": 279880,
      "d": 84,
      "v": 81
    },
    {
      "midi": 55,
      "hit": false,
      "t": 279880,
      "d": 88,
      "v": 79
    },
    {
      "midi": 82,
      "hit": false,
      "t": 279880,
      "d": 92,
      "v": 81
    },
    {
      "midi": 60,
      "hit": false,
      "t": 279884,
      "d": 124,
      "v": 72
    },
    {
      "midi": 58,
      "hit": false,
      "t": 279908,
      "d": 48,
      "v": 25
    },
    {
      "midi": 65,
      "hit": false,
      "t": 280040,
      "d": 56,
      "v": 62
    },
    {
      "midi": 91,
      "hit": false,
      "t": 280048,
      "d": 76,
      "v": 64
    },
    {
      "midi": 55,
      "hit": false,
      "t": 280048,
      "d": 80,
      "v": 54
    },
    {
      "midi": 79,
      "hit": false,
      "t": 280060,
      "d": 64,
      "v": 48
    },
    {
      "midi": 60,
      "hit": false,
      "t": 280064,
      "d": 32,
      "v": 43
    },
    {
      "midi": 90,
      "hit": false,
      "t": 280068,
      "d": 40,
      "v": 39
    },
    {
      "midi": 65,
      "hit": false,
      "t": 280528,
      "d": 216,
      "v": 79
    },
    {
      "midi": 56,
      "hit": false,
      "t": 280532,
      "d": 220,
      "v": 62
    },
    {
      "midi": 89,
      "hit": false,
      "t": 280536,
      "d": 168,
      "v": 82
    },
    {
      "midi": 60,
      "hit": false,
      "t": 280536,
      "d": 232,
      "v": 63
    },
    {
      "midi": 61,
      "hit": false,
      "t": 280536,
      "d": 244,
      "v": 60
    },
    {
      "midi": 84,
      "hit": false,
      "t": 280544,
      "d": 168,
      "v": 73
    },
    {
      "midi": 77,
      "hit": false,
      "t": 280544,
      "d": 200,
      "v": 62
    },
    {
      "midi": 61,
      "hit": false,
      "t": 280836,
      "d": 292,
      "v": 51
    },
    {
      "midi": 60,
      "hit": false,
      "t": 280840,
      "d": 260,
      "v": 60
    },
    {
      "midi": 84,
      "hit": false,
      "t": 280844,
      "d": 168,
      "v": 62
    },
    {
      "midi": 56,
      "hit": false,
      "t": 280844,
      "d": 312,
      "v": 52
    },
    {
      "midi": 65,
      "hit": false,
      "t": 280848,
      "d": 160,
      "v": 59
    },
    {
      "midi": 72,
      "hit": false,
      "t": 280856,
      "d": 156,
      "v": 57
    },
    {
      "midi": 72,
      "hit": false,
      "t": 281048,
      "d": 40,
      "v": 57
    },
    {
      "midi": 65,
      "hit": false,
      "t": 281056,
      "d": 40,
      "v": 63
    },
    {
      "midi": 84,
      "hit": false,
      "t": 281060,
      "d": 68,
      "v": 60
    },
    {
      "midi": 61,
      "hit": false,
      "t": 281332,
      "d": 196,
      "v": 69
    },
    {
      "midi": 64,
      "hit": false,
      "t": 281336,
      "d": 172,
      "v": 81
    },
    {
      "midi": 55,
      "hit": false,
      "t": 281336,
      "d": 216,
      "v": 81
    },
    {
      "midi": 87,
      "hit": false,
      "t": 281340,
      "d": 128,
      "v": 72
    },
    {
      "midi": 76,
      "hit": false,
      "t": 281364,
      "d": 44,
      "v": 49
    },
    {
      "midi": 88,
      "hit": false,
      "t": 281364,
      "d": 56,
      "v": 44
    },
    {
      "midi": 89,
      "hit": false,
      "t": 281372,
      "d": 28,
      "v": 41
    },
    {
      "midi": 61,
      "hit": false,
      "t": 281776,
      "d": 152,
      "v": 57
    },
    {
      "midi": 82,
      "hit": false,
      "t": 281784,
      "d": 128,
      "v": 52
    },
    {
      "midi": 55,
      "hit": false,
      "t": 281784,
      "d": 140,
      "v": 66
    },
    {
      "midi": 64,
      "hit": false,
      "t": 281788,
      "d": 108,
      "v": 62
    },
    {
      "midi": 80,
      "hit": false,
      "t": 281812,
      "d": 88,
      "v": 30
    },
    {
      "midi": 70,
      "hit": false,
      "t": 281952,
      "d": 64,
      "v": 46
    },
    {
      "midi": 82,
      "hit": false,
      "t": 281956,
      "d": 92,
      "v": 49
    },
    {
      "midi": 55,
      "hit": false,
      "t": 281960,
      "d": 84,
      "v": 36
    },
    {
      "midi": 64,
      "hit": false,
      "t": 281968,
      "d": 68,
      "v": 62
    },
    {
      "midi": 61,
      "hit": false,
      "t": 281976,
      "d": 108,
      "v": 48
    },
    {
      "midi": 60,
      "hit": false,
      "t": 282284,
      "d": 328,
      "v": 62
    },
    {
      "midi": 63,
      "hit": false,
      "t": 282288,
      "d": 312,
      "v": 74
    },
    {
      "midi": 87,
      "hit": false,
      "t": 282296,
      "d": 224,
      "v": 87
    },
    {
      "midi": 75,
      "hit": false,
      "t": 282300,
      "d": 260,
      "v": 88
    },
    {
      "midi": 58,
      "hit": false,
      "t": 282300,
      "d": 324,
      "v": 60
    },
    {
      "midi": 53,
      "hit": false,
      "t": 282304,
      "d": 260,
      "v": 61
    },
    {
      "midi": 80,
      "hit": false,
      "t": 282736,
      "d": 248,
      "v": 38
    },
    {
      "midi": 68,
      "hit": false,
      "t": 282740,
      "d": 92,
      "v": 64
    },
    {
      "midi": 63,
      "hit": false,
      "t": 282744,
      "d": 84,
      "v": 50
    },
    {
      "midi": 58,
      "hit": false,
      "t": 282748,
      "d": 288,
      "v": 42
    },
    {
      "midi": 53,
      "hit": false,
      "t": 282756,
      "d": 92,
      "v": 49
    },
    {
      "midi": 78,
      "hit": false,
      "t": 282756,
      "d": 92,
      "v": 30
    },
    {
      "midi": 60,
      "hit": false,
      "t": 282756,
      "d": 216,
      "v": 58
    },
    {
      "midi": 68,
      "hit": false,
      "t": 282888,
      "d": 60,
      "v": 52
    },
    {
      "midi": 63,
      "hit": false,
      "t": 282888,
      "d": 80,
      "v": 33
    },
    {
      "midi": 84,
      "hit": false,
      "t": 283220,
      "d": 196,
      "v": 80
    },
    {
      "midi": 63,
      "hit": false,
      "t": 283220,
      "d": 352,
      "v": 77
    },
    {
      "midi": 60,
      "hit": false,
      "t": 283224,
      "d": 360,
      "v": 72
    },
    {
      "midi": 72,
      "hit": false,
      "t": 283228,
      "d": 252,
      "v": 84
    },
    {
      "midi": 53,
      "hit": false,
      "t": 283228,
      "d": 372,
      "v": 70
    },
    {
      "midi": 58,
      "hit": false,
      "t": 283232,
      "d": 808,
      "v": 55
    },
    {
      "midi": 79,
      "hit": false,
      "t": 283696,
      "d": 176,
      "v": 64
    },
    {
      "midi": 67,
      "hit": false,
      "t": 283704,
      "d": 72,
      "v": 61
    },
    {
      "midi": 63,
      "hit": false,
      "t": 283708,
      "d": 68,
      "v": 60
    },
    {
      "midi": 60,
      "hit": false,
      "t": 283712,
      "d": 104,
      "v": 47
    },
    {
      "midi": 69,
      "hit": false,
      "t": 283736,
      "d": 28,
      "v": 28
    },
    {
      "midi": 67,
      "hit": false,
      "t": 283836,
      "d": 76,
      "v": 63
    },
    {
      "midi": 63,
      "hit": false,
      "t": 283864,
      "d": 92,
      "v": 37
    },
    {
      "midi": 60,
      "hit": false,
      "t": 283884,
      "d": 92,
      "v": 18
    },
    {
      "midi": 79,
      "hit": false,
      "t": 284048,
      "d": 204,
      "v": 79
    },
    {
      "midi": 69,
      "hit": false,
      "t": 284052,
      "d": 220,
      "v": 89
    },
    {
      "midi": 72,
      "hit": false,
      "t": 284056,
      "d": 216,
      "v": 81
    },
    {
      "midi": 64,
      "hit": false,
      "t": 284060,
      "d": 312,
      "v": 89
    },
    {
      "midi": 78,
      "hit": false,
      "t": 284328,
      "d": 96,
      "v": 75
    },
    {
      "midi": 69,
      "hit": false,
      "t": 284332,
      "d": 52,
      "v": 68
    },
    {
      "midi": 72,
      "hit": false,
      "t": 284336,
      "d": 52,
      "v": 62
    },
    {
      "midi": 63,
      "hit": false,
      "t": 284340,
      "d": 140,
      "v": 67
    },
    {
      "midi": 69,
      "hit": false,
      "t": 284484,
      "d": 60,
      "v": 64
    },
    {
      "midi": 77,
      "hit": false,
      "t": 284492,
      "d": 36,
      "v": 49
    },
    {
      "midi": 62,
      "hit": false,
      "t": 284492,
      "d": 108,
      "v": 73
    },
    {
      "midi": 65,
      "hit": false,
      "t": 284632,
      "d": 56,
      "v": 78
    },
    {
      "midi": 76,
      "hit": false,
      "t": 284632,
      "d": 84,
      "v": 78
    },
    {
      "midi": 69,
      "hit": false,
      "t": 284640,
      "d": 40,
      "v": 60
    },
    {
      "midi": 61,
      "hit": false,
      "t": 284640,
      "d": 128,
      "v": 56
    },
    {
      "midi": 72,
      "hit": false,
      "t": 284808,
      "d": 192,
      "v": 69
    },
    {
      "midi": 65,
      "hit": false,
      "t": 284816,
      "d": 152,
      "v": 70
    },
    {
      "midi": 60,
      "hit": false,
      "t": 284828,
      "d": 168,
      "v": 46
    },
    {
      "midi": 65,
      "hit": false,
      "t": 285016,
      "d": 80,
      "v": 50
    },
    {
      "midi": 69,
      "hit": false,
      "t": 285016,
      "d": 88,
      "v": 62
    },
    {
      "midi": 57,
      "hit": false,
      "t": 285028,
      "d": 96,
      "v": 64
    },
    {
      "midi": 60,
      "hit": false,
      "t": 285032,
      "d": 36,
      "v": 44
    },
    {
      "midi": 62,
      "hit": false,
      "t": 285032,
      "d": 36,
      "v": 24
    },
    {
      "midi": 70,
      "hit": false,
      "t": 285232,
      "d": 184,
      "v": 77
    },
    {
      "midi": 63,
      "hit": false,
      "t": 285240,
      "d": 160,
      "v": 69
    },
    {
      "midi": 59,
      "hit": false,
      "t": 285244,
      "d": 164,
      "v": 59
    },
    {
      "midi": 58,
      "hit": false,
      "t": 285248,
      "d": 180,
      "v": 63
    },
    {
      "midi": 68,
      "hit": false,
      "t": 285464,
      "d": 124,
      "v": 71
    },
    {
      "midi": 63,
      "hit": false,
      "t": 285472,
      "d": 120,
      "v": 60
    },
    {
      "midi": 59,
      "hit": false,
      "t": 285476,
      "d": 108,
      "v": 57
    },
    {
      "midi": 56,
      "hit": false,
      "t": 285480,
      "d": 140,
      "v": 51
    },
    {
      "midi": 59,
      "hit": false,
      "t": 285660,
      "d": 80,
      "v": 50
    },
    {
      "midi": 67,
      "hit": false,
      "t": 285664,
      "d": 80,
      "v": 54
    },
    {
      "midi": 63,
      "hit": false,
      "t": 285672,
      "d": 32,
      "v": 36
    },
    {
      "midi": 55,
      "hit": false,
      "t": 285676,
      "d": 76,
      "v": 48
    },
    {
      "midi": 66,
      "hit": false,
      "t": 285760,
      "d": 96,
      "v": 62
    },
    {
      "midi": 54,
      "hit": false,
      "t": 285768,
      "d": 104,
      "v": 39
    },
    {
      "midi": 63,
      "hit": false,
      "t": 285776,
      "d": 36,
      "v": 25
    },
    {
      "midi": 53,
      "hit": false,
      "t": 285880,
      "d": 124,
      "v": 51
    },
    {
      "midi": 59,
      "hit": false,
      "t": 285924,
      "d": 84,
      "v": 24
    },
    {
      "midi": 49,
      "hit": false,
      "t": 286032,
      "d": 116,
      "v": 50
    },
    {
      "midi": 67,
      "hit": false,
      "t": 286124,
      "d": 84,
      "v": 60
    },
    {
      "midi": 57,
      "hit": false,
      "t": 286144,
      "d": 96,
      "v": 74
    },
    {
      "midi": 52,
      "hit": false,
      "t": 286156,
      "d": 116,
      "v": 50
    },
    {
      "midi": 66,
      "hit": false,
      "t": 286164,
      "d": 28,
      "v": 31
    },
    {
      "midi": 66,
      "hit": false,
      "t": 286344,
      "d": 100,
      "v": 65
    },
    {
      "midi": 61,
      "hit": false,
      "t": 286344,
      "d": 104,
      "v": 59
    },
    {
      "midi": 56,
      "hit": false,
      "t": 286344,
      "d": 116,
      "v": 67
    },
    {
      "midi": 51,
      "hit": false,
      "t": 286364,
      "d": 120,
      "v": 48
    },
    {
      "midi": 67,
      "hit": false,
      "t": 286488,
      "d": 48,
      "v": 61
    },
    {
      "midi": 62,
      "hit": false,
      "t": 286492,
      "d": 36,
      "v": 61
    },
    {
      "midi": 57,
      "hit": false,
      "t": 286500,
      "d": 52,
      "v": 61
    },
    {
      "midi": 52,
      "hit": false,
      "t": 286512,
      "d": 32,
      "v": 46
    },
    {
      "midi": 55,
      "hit": false,
      "t": 286656,
      "d": 80,
      "v": 60
    },
    {
      "midi": 64,
      "hit": false,
      "t": 286656,
      "d": 84,
      "v": 58
    },
    {
      "midi": 59,
      "hit": false,
      "t": 286668,
      "d": 60,
      "v": 47
    },
    {
      "midi": 48,
      "hit": false,
      "t": 286668,
      "d": 72,
      "v": 51
    },
    {
      "midi": 56,
      "hit": false,
      "t": 286880,
      "d": 88,
      "v": 21
    },
    {
      "midi": 45,
      "hit": false,
      "t": 286928,
      "d": 56,
      "v": 47
    },
    {
      "midi": 59,
      "hit": false,
      "t": 286940,
      "d": 80,
      "v": 22
    },
    {
      "midi": 50,
      "hit": false,
      "t": 287068,
      "d": 272,
      "v": 64
    },
    {
      "midi": 62,
      "hit": false,
      "t": 287072,
      "d": 144,
      "v": 73
    },
    {
      "midi": 52,
      "hit": false,
      "t": 287072,
      "d": 200,
      "v": 74
    },
    {
      "midi": 55,
      "hit": false,
      "t": 287080,
      "d": 128,
      "v": 59
    },
    {
      "midi": 49,
      "hit": false,
      "t": 287368,
      "d": 128,
      "v": 55
    },
    {
      "midi": 61,
      "hit": false,
      "t": 287372,
      "d": 100,
      "v": 69
    },
    {
      "midi": 55,
      "hit": false,
      "t": 287388,
      "d": 124,
      "v": 66
    },
    {
      "midi": 52,
      "hit": false,
      "t": 287396,
      "d": 72,
      "v": 64
    },
    {
      "midi": 60,
      "hit": false,
      "t": 287540,
      "d": 172,
      "v": 47
    },
    {
      "midi": 48,
      "hit": false,
      "t": 287556,
      "d": 268,
      "v": 36
    },
    {
      "midi": 55,
      "hit": false,
      "t": 287560,
      "d": 132,
      "v": 18
    },
    {
      "midi": 52,
      "hit": false,
      "t": 287568,
      "d": 120,
      "v": 36
    },
    {
      "midi": 51,
      "hit": false,
      "t": 287940,
      "d": 28,
      "v": 44
    },
    {
      "midi": 67,
      "hit": false,
      "t": 287980,
      "d": 220,
      "v": 63
    },
    {
      "midi": 58,
      "hit": false,
      "t": 287984,
      "d": 236,
      "v": 55
    },
    {
      "midi": 63,
      "hit": false,
      "t": 287988,
      "d": 200,
      "v": 55
    },
    {
      "midi": 52,
      "hit": false,
      "t": 287992,
      "d": 140,
      "v": 47
    },
    {
      "midi": 57,
      "hit": false,
      "t": 288004,
      "d": 120,
      "v": 59
    },
    {
      "midi": 67,
      "hit": false,
      "t": 288460,
      "d": 24,
      "v": 63
    },
    {
      "midi": 59,
      "hit": false,
      "t": 288460,
      "d": 36,
      "v": 60
    },
    {
      "midi": 79,
      "hit": false,
      "t": 288460,
      "d": 40,
      "v": 58
    },
    {
      "midi": 78,
      "hit": false,
      "t": 288464,
      "d": 28,
      "v": 36
    },
    {
      "midi": 53,
      "hit": false,
      "t": 288468,
      "d": 28,
      "v": 54
    },
    {
      "midi": 49,
      "hit": false,
      "t": 288468,
      "d": 52,
      "v": 45
    },
    {
      "midi": 63,
      "hit": false,
      "t": 288800,
      "d": 236,
      "v": 77
    },
    {
      "midi": 53,
      "hit": false,
      "t": 288804,
      "d": 208,
      "v": 66
    },
    {
      "midi": 59,
      "hit": false,
      "t": 288808,
      "d": 240,
      "v": 65
    },
    {
      "midi": 56,
      "hit": false,
      "t": 288808,
      "d": 248,
      "v": 48
    },
    {
      "midi": 72,
      "hit": false,
      "t": 288816,
      "d": 80,
      "v": 64
    },
    {
      "midi": 74,
      "hit": false,
      "t": 288820,
      "d": 64,
      "v": 70
    },
    {
      "midi": 86,
      "hit": false,
      "t": 288824,
      "d": 140,
      "v": 48
    },
    {
      "midi": 84,
      "hit": false,
      "t": 288824,
      "d": 144,
      "v": 56
    },
    {
      "midi": 63,
      "hit": false,
      "t": 289112,
      "d": 220,
      "v": 75
    },
    {
      "midi": 79,
      "hit": false,
      "t": 289120,
      "d": 124,
      "v": 69
    },
    {
      "midi": 59,
      "hit": false,
      "t": 289120,
      "d": 228,
      "v": 62
    },
    {
      "midi": 91,
      "hit": false,
      "t": 289124,
      "d": 120,
      "v": 65
    },
    {
      "midi": 53,
      "hit": false,
      "t": 289128,
      "d": 184,
      "v": 69
    },
    {
      "midi": 56,
      "hit": false,
      "t": 289128,
      "d": 224,
      "v": 54
    },
    {
      "midi": 89,
      "hit": false,
      "t": 289140,
      "d": 28,
      "v": 53
    },
    {
      "midi": 63,
      "hit": false,
      "t": 289432,
      "d": 232,
      "v": 69
    },
    {
      "midi": 92,
      "hit": false,
      "t": 289440,
      "d": 108,
      "v": 64
    },
    {
      "midi": 59,
      "hit": false,
      "t": 289440,
      "d": 172,
      "v": 57
    },
    {
      "midi": 53,
      "hit": false,
      "t": 289444,
      "d": 184,
      "v": 62
    },
    {
      "midi": 80,
      "hit": false,
      "t": 289448,
      "d": 148,
      "v": 38
    },
    {
      "midi": 56,
      "hit": false,
      "t": 289448,
      "d": 212,
      "v": 40
    },
    {
      "midi": 63,
      "hit": false,
      "t": 289756,
      "d": 76,
      "v": 71
    },
    {
      "midi": 94,
      "hit": false,
      "t": 289756,
      "d": 128,
      "v": 69
    },
    {
      "midi": 59,
      "hit": false,
      "t": 289760,
      "d": 84,
      "v": 60
    },
    {
      "midi": 56,
      "hit": false,
      "t": 289764,
      "d": 128,
      "v": 46
    },
    {
      "midi": 82,
      "hit": false,
      "t": 289764,
      "d": 136,
      "v": 60
    },
    {
      "midi": 53,
      "hit": false,
      "t": 289772,
      "d": 64,
      "v": 41
    },
    {
      "midi": 92,
      "hit": false,
      "t": 290048,
      "d": 216,
      "v": 61
    },
    {
      "midi": 63,
      "hit": false,
      "t": 290056,
      "d": 208,
      "v": 61
    },
    {
      "midi": 58,
      "hit": false,
      "t": 290056,
      "d": 244,
      "v": 55
    },
    {
      "midi": 80,
      "hit": false,
      "t": 290060,
      "d": 200,
      "v": 36
    },
    {
      "midi": 87,
      "hit": false,
      "t": 290064,
      "d": 176,
      "v": 57
    },
    {
      "midi": 52,
      "hit": false,
      "t": 290068,
      "d": 172,
      "v": 58
    },
    {
      "midi": 92,
      "hit": false,
      "t": 290388,
      "d": 208,
      "v": 54
    },
    {
      "midi": 63,
      "hit": false,
      "t": 290396,
      "d": 212,
      "v": 58
    },
    {
      "midi": 80,
      "hit": false,
      "t": 290396,
      "d": 260,
      "v": 43
    },
    {
      "midi": 87,
      "hit": false,
      "t": 290404,
      "d": 188,
      "v": 56
    },
    {
      "midi": 58,
      "hit": false,
      "t": 290404,
      "d": 252,
      "v": 44
    },
    {
      "midi": 52,
      "hit": false,
      "t": 290412,
      "d": 152,
      "v": 55
    },
    {
      "midi": 91,
      "hit": false,
      "t": 290732,
      "d": 80,
      "v": 68
    },
    {
      "midi": 63,
      "hit": false,
      "t": 290740,
      "d": 624,
      "v": 51
    },
    {
      "midi": 79,
      "hit": false,
      "t": 290744,
      "d": 72,
      "v": 43
    },
    {
      "midi": 58,
      "hit": false,
      "t": 290744,
      "d": 792,
      "v": 48
    },
    {
      "midi": 52,
      "hit": false,
      "t": 290752,
      "d": 704,
      "v": 52
    },
    {
      "midi": 82,
      "hit": false,
      "t": 291232,
      "d": 196,
      "v": 99
    },
    {
      "midi": 83,
      "hit": false,
      "t": 291440,
      "d": 120,
      "v": 48
    },
    {
      "midi": 82,
      "hit": false,
      "t": 291532,
      "d": 104,
      "v": 50
    },
    {
      "midi": 80,
      "hit": false,
      "t": 291636,
      "d": 112,
      "v": 42
    },
    {
      "midi": 77,
      "hit": false,
      "t": 291744,
      "d": 76,
      "v": 49
    },
    {
      "midi": 56,
      "hit": false,
      "t": 291756,
      "d": 64,
      "v": 21
    },
    {
      "midi": 60,
      "hit": false,
      "t": 291764,
      "d": 100,
      "v": 29
    },
    {
      "midi": 82,
      "hit": false,
      "t": 291864,
      "d": 432,
      "v": 81
    },
    {
      "midi": 80,
      "hit": false,
      "t": 292224,
      "d": 96,
      "v": 64
    },
    {
      "midi": 77,
      "hit": false,
      "t": 292376,
      "d": 380,
      "v": 33
    },
    {
      "midi": 56,
      "hit": false,
      "t": 292844,
      "d": 92,
      "v": 39
    },
    {
      "midi": 60,
      "hit": false,
      "t": 292856,
      "d": 28,
      "v": 34
    },
    {
      "midi": 72,
      "hit": false,
      "t": 292860,
      "d": 256,
      "v": 49
    },
    {
      "midi": 72,
      "hit": false,
      "t": 293184,
      "d": 40,
      "v": 57
    },
    {
      "midi": 63,
      "hit": false,
      "t": 293808,
      "d": 64,
      "v": 51
    },
    {
      "midi": 59,
      "hit": false,
      "t": 293836,
      "d": 36,
      "v": 40
    },
    {
      "midi": 56,
      "hit": false,
      "t": 293840,
      "d": 68,
      "v": 25
    },
    {
      "midi": 53,
      "hit": false,
      "t": 293848,
      "d": 28,
      "v": 19
    },
    {
      "midi": 77,
      "hit": false,
      "t": 294164,
      "d": 52,
      "v": 32
    },
    {
      "midi": 80,
      "hit": false,
      "t": 294280,
      "d": 356,
      "v": 87
    },
    {
      "midi": 68,
      "hit": false,
      "t": 294284,
      "d": 292,
      "v": 97
    },
    {
      "midi": 78,
      "hit": false,
      "t": 294308,
      "d": 28,
      "v": 49
    },
    {
      "midi": 63,
      "hit": false,
      "t": 294632,
      "d": 24,
      "v": 48
    },
    {
      "midi": 58,
      "hit": false,
      "t": 294644,
      "d": 88,
      "v": 38
    },
    {
      "midi": 75,
      "hit": false,
      "t": 294656,
      "d": 32,
      "v": 31
    },
    {
      "midi": 82,
      "hit": false,
      "t": 294752,
      "d": 252,
      "v": 91
    },
    {
      "midi": 70,
      "hit": false,
      "t": 294756,
      "d": 288,
      "v": 87
    },
    {
      "midi": 80,
      "hit": false,
      "t": 295096,
      "d": 120,
      "v": 54
    },
    {
      "midi": 68,
      "hit": false,
      "t": 295108,
      "d": 140,
      "v": 67
    },
    {
      "midi": 52,
      "hit": false,
      "t": 295144,
      "d": 32,
      "v": 51
    },
    {
      "midi": 79,
      "hit": false,
      "t": 295300,
      "d": 220,
      "v": 46
    },
    {
      "midi": 67,
      "hit": false,
      "t": 295312,
      "d": 208,
      "v": 28
    },
    {
      "midi": 77,
      "hit": false,
      "t": 295572,
      "d": 168,
      "v": 64
    },
    {
      "midi": 64,
      "hit": false,
      "t": 295576,
      "d": 32,
      "v": 48
    },
    {
      "midi": 60,
      "hit": false,
      "t": 295592,
      "d": 64,
      "v": 39
    },
    {
      "midi": 56,
      "hit": false,
      "t": 295596,
      "d": 76,
      "v": 33
    },
    {
      "midi": 72,
      "hit": false,
      "t": 295828,
      "d": 200,
      "v": 32
    },
    {
      "midi": 68,
      "hit": false,
      "t": 296056,
      "d": 92,
      "v": 57
    },
    {
      "midi": 67,
      "hit": false,
      "t": 296220,
      "d": 284,
      "v": 31
    },
    {
      "midi": 70,
      "hit": false,
      "t": 296548,
      "d": 132,
      "v": 60
    },
    {
      "midi": 56,
      "hit": false,
      "t": 296576,
      "d": 56,
      "v": 32
    },
    {
      "midi": 68,
      "hit": false,
      "t": 296720,
      "d": 284,
      "v": 45
    },
    {
      "midi": 64,
      "hit": false,
      "t": 297012,
      "d": 60,
      "v": 38
    },
    {
      "midi": 66,
      "hit": false,
      "t": 297136,
      "d": 128,
      "v": 67
    },
    {
      "midi": 67,
      "hit": false,
      "t": 297216,
      "d": 240,
      "v": 36
    },
    {
      "midi": 59,
      "hit": false,
      "t": 297476,
      "d": 36,
      "v": 30
    },
    {
      "midi": 66,
      "hit": false,
      "t": 297476,
      "d": 204,
      "v": 78
    },
    {
      "midi": 56,
      "hit": false,
      "t": 297500,
      "d": 76,
      "v": 15
    },
    {
      "midi": 65,
      "hit": false,
      "t": 297560,
      "d": 160,
      "v": 71
    },
    {
      "midi": 63,
      "hit": false,
      "t": 297776,
      "d": 236,
      "v": 71
    },
    {
      "midi": 56,
      "hit": false,
      "t": 297976,
      "d": 100,
      "v": 31
    },
    {
      "midi": 61,
      "hit": false,
      "t": 298104,
      "d": 308,
      "v": 55
    },
    {
      "midi": 59,
      "hit": false,
      "t": 298448,
      "d": 600,
      "v": 56
    },
    {
      "midi": 58,
      "hit": false,
      "t": 299072,
      "d": 312,
      "v": 60
    },
    {
      "midi": 57,
      "hit": false,
      "t": 299412,
      "d": 160,
      "v": 74
    },
    {
      "midi": 53,
      "hit": false,
      "t": 299440,
      "d": 28,
      "v": 51
    },
    {
      "midi": 43,
      "hit": false,
      "t": 299464,
      "d": 40,
      "v": 31
    },
    {
      "midi": 56,
      "hit": false,
      "t": 299664,
      "d": 252,
      "v": 46
    },
    {
      "midi": 54,
      "hit": false,
      "t": 299924,
      "d": 92,
      "v": 49
    },
    {
      "midi": 55,
      "hit": false,
      "t": 300076,
      "d": 272,
      "v": 68
    },
    {
      "midi": 48,
      "hit": false,
      "t": 300368,
      "d": 656,
      "v": 83
    },
    {
      "midi": 43,
      "hit": false,
      "t": 300376,
      "d": 32,
      "v": 41
    },
    {
      "midi": 45,
      "hit": false,
      "t": 300908,
      "d": 28,
      "v": 28
    },
    {
      "midi": 49,
      "hit": false,
      "t": 301024,
      "d": 112,
      "v": 50
    },
    {
      "midi": 51,
      "hit": false,
      "t": 301160,
      "d": 84,
      "v": 43
    },
    {
      "midi": 52,
      "hit": false,
      "t": 301264,
      "d": 100,
      "v": 58
    },
    {
      "midi": 55,
      "hit": false,
      "t": 301388,
      "d": 100,
      "v": 70
    },
    {
      "midi": 48,
      "hit": false,
      "t": 301408,
      "d": 48,
      "v": 25
    },
    {
      "midi": 52,
      "hit": false,
      "t": 301524,
      "d": 140,
      "v": 59
    },
    {
      "midi": 53,
      "hit": false,
      "t": 301676,
      "d": 104,
      "v": 53
    },
    {
      "midi": 55,
      "hit": false,
      "t": 301788,
      "d": 76,
      "v": 57
    },
    {
      "midi": 48,
      "hit": false,
      "t": 301904,
      "d": 28,
      "v": 24
    },
    {
      "midi": 56,
      "hit": false,
      "t": 301904,
      "d": 96,
      "v": 53
    },
    {
      "midi": 53,
      "hit": false,
      "t": 302012,
      "d": 116,
      "v": 48
    },
    {
      "midi": 55,
      "hit": false,
      "t": 302164,
      "d": 92,
      "v": 41
    },
    {
      "midi": 56,
      "hit": false,
      "t": 302268,
      "d": 96,
      "v": 46
    },
    {
      "midi": 58,
      "hit": false,
      "t": 302372,
      "d": 124,
      "v": 52
    },
    {
      "midi": 55,
      "hit": false,
      "t": 302496,
      "d": 68,
      "v": 35
    },
    {
      "midi": 56,
      "hit": false,
      "t": 302600,
      "d": 112,
      "v": 51
    },
    {
      "midi": 58,
      "hit": false,
      "t": 302720,
      "d": 104,
      "v": 64
    },
    {
      "midi": 50,
      "hit": false,
      "t": 302796,
      "d": 76,
      "v": 54
    },
    {
      "midi": 60,
      "hit": false,
      "t": 302832,
      "d": 60,
      "v": 62
    },
    {
      "midi": 56,
      "hit": false,
      "t": 302944,
      "d": 88,
      "v": 29
    },
    {
      "midi": 58,
      "hit": false,
      "t": 303040,
      "d": 112,
      "v": 30
    },
    {
      "midi": 60,
      "hit": false,
      "t": 303160,
      "d": 120,
      "v": 55
    },
    {
      "midi": 62,
      "hit": false,
      "t": 303292,
      "d": 88,
      "v": 57
    },
    {
      "midi": 53,
      "hit": false,
      "t": 303332,
      "d": 76,
      "v": 36
    },
    {
      "midi": 59,
      "hit": false,
      "t": 303448,
      "d": 68,
      "v": 22
    },
    {
      "midi": 61,
      "hit": false,
      "t": 303556,
      "d": 92,
      "v": 35
    },
    {
      "midi": 63,
      "hit": false,
      "t": 303664,
      "d": 28,
      "v": 54
    },
    {
      "midi": 65,
      "hit": false,
      "t": 303760,
      "d": 96,
      "v": 70
    },
    {
      "midi": 64,
      "hit": false,
      "t": 303784,
      "d": 28,
      "v": 34
    },
    {
      "midi": 63,
      "hit": false,
      "t": 303808,
      "d": 32,
      "v": 48
    },
    {
      "midi": 59,
      "hit": false,
      "t": 303828,
      "d": 80,
      "v": 40
    },
    {
      "midi": 56,
      "hit": false,
      "t": 303860,
      "d": 92,
      "v": 15
    },
    {
      "midi": 66,
      "hit": false,
      "t": 303884,
      "d": 84,
      "v": 52
    },
    {
      "midi": 67,
      "hit": false,
      "t": 304008,
      "d": 76,
      "v": 44
    },
    {
      "midi": 68,
      "hit": false,
      "t": 304112,
      "d": 120,
      "v": 62
    },
    {
      "midi": 63,
      "hit": false,
      "t": 304228,
      "d": 68,
      "v": 48
    },
    {
      "midi": 70,
      "hit": false,
      "t": 304236,
      "d": 72,
      "v": 65
    },
    {
      "midi": 58,
      "hit": false,
      "t": 304240,
      "d": 112,
      "v": 50
    },
    {
      "midi": 72,
      "hit": false,
      "t": 304352,
      "d": 84,
      "v": 62
    },
    {
      "midi": 73,
      "hit": false,
      "t": 304468,
      "d": 100,
      "v": 26
    },
    {
      "midi": 75,
      "hit": false,
      "t": 304592,
      "d": 80,
      "v": 59
    },
    {
      "midi": 48,
      "hit": false,
      "t": 304680,
      "d": 40,
      "v": 48
    },
    {
      "midi": 58,
      "hit": false,
      "t": 304684,
      "d": 84,
      "v": 42
    },
    {
      "midi": 76,
      "hit": false,
      "t": 304696,
      "d": 76,
      "v": 57
    },
    {
      "midi": 78,
      "hit": false,
      "t": 304816,
      "d": 60,
      "v": 52
    },
    {
      "midi": 79,
      "hit": false,
      "t": 304944,
      "d": 56,
      "v": 34
    },
    {
      "midi": 82,
      "hit": false,
      "t": 305052,
      "d": 28,
      "v": 34
    },
    {
      "midi": 64,
      "hit": false,
      "t": 305136,
      "d": 32,
      "v": 44
    },
    {
      "midi": 60,
      "hit": false,
      "t": 305136,
      "d": 64,
      "v": 53
    },
    {
      "midi": 56,
      "hit": false,
      "t": 305148,
      "d": 76,
      "v": 33
    },
    {
      "midi": 84,
      "hit": false,
      "t": 305268,
      "d": 76,
      "v": 62
    },
    {
      "midi": 88,
      "hit": false,
      "t": 305388,
      "d": 76,
      "v": 59
    },
    {
      "midi": 91,
      "hit": false,
      "t": 305516,
      "d": 100,
      "v": 89
    },
    {
      "midi": 79,
      "hit": false,
      "t": 305524,
      "d": 76,
      "v": 82
    },
    {
      "midi": 91,
      "hit": false,
      "t": 305664,
      "d": 80,
      "v": 82
    },
    {
      "midi": 60,
      "hit": false,
      "t": 305668,
      "d": 52,
      "v": 24
    },
    {
      "midi": 79,
      "hit": false,
      "t": 305672,
      "d": 60,
      "v": 51
    },
    {
      "midi": 91,
      "hit": false,
      "t": 305792,
      "d": 72,
      "v": 75
    },
    {
      "midi": 79,
      "hit": false,
      "t": 305800,
      "d": 64,
      "v": 57
    },
    {
      "midi": 63,
      "hit": false,
      "t": 306232,
      "d": 116,
      "v": 64
    },
    {
      "midi": 53,
      "hit": false,
      "t": 306240,
      "d": 96,
      "v": 53
    },
    {
      "midi": 58,
      "hit": false,
      "t": 306248,
      "d": 140,
      "v": 49
    },
    {
      "midi": 63,
      "hit": false,
      "t": 306596,
      "d": 476,
      "v": 73
    },
    {
      "midi": 52,
      "hit": false,
      "t": 306600,
      "d": 432,
      "v": 73
    },
    {
      "midi": 58,
      "hit": false,
      "t": 306600,
      "d": 468,
      "v": 63
    },
    {
      "midi": 88,
      "hit": false,
      "t": 307108,
      "d": 80,
      "v": 63
    },
    {
      "midi": 64,
      "hit": false,
      "t": 307112,
      "d": 64,
      "v": 64
    },
    {
      "midi": 89,
      "hit": false,
      "t": 307116,
      "d": 36,
      "v": 32
    },
    {
      "midi": 60,
      "hit": false,
      "t": 307124,
      "d": 140,
      "v": 62
    },
    {
      "midi": 53,
      "hit": false,
      "t": 307132,
      "d": 80,
      "v": 48
    },
    {
      "midi": 56,
      "hit": false,
      "t": 307132,
      "d": 116,
      "v": 37
    },
    {
      "midi": 90,
      "hit": false,
      "t": 307248,
      "d": 128,
      "v": 72
    },
    {
      "midi": 78,
      "hit": false,
      "t": 307248,
      "d": 168,
      "v": 77
    },
    {
      "midi": 88,
      "hit": false,
      "t": 307352,
      "d": 72,
      "v": 10
    },
    {
      "midi": 77,
      "hit": false,
      "t": 307472,
      "d": 40,
      "v": 24
    },
    {
      "midi": 79,
      "hit": false,
      "t": 307476,
      "d": 144,
      "v": 22
    },
    {
      "midi": 91,
      "hit": false,
      "t": 307568,
      "d": 92,
      "v": 56
    },
    {
      "midi": 60,
      "hit": false,
      "t": 307648,
      "d": 48,
      "v": 43
    },
    {
      "midi": 56,
      "hit": false,
      "t": 307648,
      "d": 76,
      "v": 28
    },
    {
      "midi": 77,
      "hit": false,
      "t": 307716,
      "d": 280,
      "v": 59
    },
    {
      "midi": 89,
      "hit": false,
      "t": 307720,
      "d": 276,
      "v": 57
    },
    {
      "midi": 60,
      "hit": false,
      "t": 308200,
      "d": 76,
      "v": 62
    },
    {
      "midi": 56,
      "hit": false,
      "t": 308200,
      "d": 140,
      "v": 46
    },
    {
      "midi": 50,
      "hit": false,
      "t": 308216,
      "d": 48,
      "v": 38
    },
    {
      "midi": 91,
      "hit": false,
      "t": 308216,
      "d": 172,
      "v": 64
    },
    {
      "midi": 79,
      "hit": false,
      "t": 308216,
      "d": 240,
      "v": 58
    },
    {
      "midi": 63,
      "hit": false,
      "t": 308984,
      "d": 44,
      "v": 69
    },
    {
      "midi": 89,
      "hit": false,
      "t": 308992,
      "d": 64,
      "v": 68
    },
    {
      "midi": 53,
      "hit": false,
      "t": 309000,
      "d": 28,
      "v": 51
    },
    {
      "midi": 77,
      "hit": false,
      "t": 309004,
      "d": 40,
      "v": 33
    },
    {
      "midi": 59,
      "hit": false,
      "t": 309004,
      "d": 132,
      "v": 59
    },
    {
      "midi": 56,
      "hit": false,
      "t": 309008,
      "d": 136,
      "v": 46
    },
    {
      "midi": 79,
      "hit": false,
      "t": 309016,
      "d": 32,
      "v": 26
    },
    {
      "midi": 80,
      "hit": false,
      "t": 309184,
      "d": 64,
      "v": 72
    },
    {
      "midi": 92,
      "hit": false,
      "t": 309192,
      "d": 84,
      "v": 74
    },
    {
      "midi": 90,
      "hit": false,
      "t": 309232,
      "d": 84,
      "v": 25
    },
    {
      "midi": 87,
      "hit": false,
      "t": 309288,
      "d": 88,
      "v": 51
    },
    {
      "midi": 80,
      "hit": false,
      "t": 309328,
      "d": 188,
      "v": 33
    },
    {
      "midi": 92,
      "hit": false,
      "t": 309412,
      "d": 156,
      "v": 21
    },
    {
      "midi": 87,
      "hit": false,
      "t": 309476,
      "d": 96,
      "v": 47
    },
    {
      "midi": 63,
      "hit": false,
      "t": 309596,
      "d": 60,
      "v": 53
    },
    {
      "midi": 53,
      "hit": false,
      "t": 309608,
      "d": 88,
      "v": 49
    },
    {
      "midi": 59,
      "hit": false,
      "t": 309612,
      "d": 112,
      "v": 44
    },
    {
      "midi": 56,
      "hit": false,
      "t": 309612,
      "d": 292,
      "v": 36
    },
    {
      "midi": 79,
      "hit": false,
      "t": 309632,
      "d": 176,
      "v": 54
    },
    {
      "midi": 91,
      "hit": false,
      "t": 309648,
      "d": 100,
      "v": 40
    },
    {
      "midi": 89,
      "hit": false,
      "t": 309652,
      "d": 92,
      "v": 45
    },
    {
      "midi": 92,
      "hit": false,
      "t": 309948,
      "d": 168,
      "v": 64
    },
    {
      "midi": 63,
      "hit": false,
      "t": 309952,
      "d": 160,
      "v": 72
    },
    {
      "midi": 58,
      "hit": false,
      "t": 309956,
      "d": 200,
      "v": 62
    },
    {
      "midi": 80,
      "hit": false,
      "t": 309960,
      "d": 132,
      "v": 60
    },
    {
      "midi": 52,
      "hit": false,
      "t": 309960,
      "d": 148,
      "v": 68
    },
    {
      "midi": 87,
      "hit": false,
      "t": 309972,
      "d": 132,
      "v": 61
    },
    {
      "midi": 63,
      "hit": false,
      "t": 310180,
      "d": 220,
      "v": 57
    },
    {
      "midi": 94,
      "hit": false,
      "t": 310184,
      "d": 180,
      "v": 70
    },
    {
      "midi": 82,
      "hit": false,
      "t": 310184,
      "d": 188,
      "v": 51
    },
    {
      "midi": 58,
      "hit": false,
      "t": 310184,
      "d": 244,
      "v": 25
    },
    {
      "midi": 52,
      "hit": false,
      "t": 310188,
      "d": 180,
      "v": 57
    },
    {
      "midi": 87,
      "hit": false,
      "t": 310200,
      "d": 160,
      "v": 53
    },
    {
      "midi": 92,
      "hit": false,
      "t": 310464,
      "d": 76,
      "v": 52
    },
    {
      "midi": 87,
      "hit": false,
      "t": 310476,
      "d": 44,
      "v": 57
    },
    {
      "midi": 63,
      "hit": false,
      "t": 310476,
      "d": 116,
      "v": 49
    },
    {
      "midi": 52,
      "hit": false,
      "t": 310480,
      "d": 156,
      "v": 56
    },
    {
      "midi": 58,
      "hit": false,
      "t": 310480,
      "d": 196,
      "v": 33
    },
    {
      "midi": 80,
      "hit": false,
      "t": 310484,
      "d": 28,
      "v": 32
    },
    {
      "midi": 64,
      "hit": false,
      "t": 310936,
      "d": 32,
      "v": 54
    },
    {
      "midi": 60,
      "hit": false,
      "t": 310940,
      "d": 60,
      "v": 56
    },
    {
      "midi": 56,
      "hit": false,
      "t": 310940,
      "d": 100,
      "v": 37
    },
    {
      "midi": 53,
      "hit": false,
      "t": 310968,
      "d": 40,
      "v": 19
    },
    {
      "midi": 76,
      "hit": false,
      "t": 311288,
      "d": 80,
      "v": 70
    },
    {
      "midi": 79,
      "hit": false,
      "t": 311436,
      "d": 92,
      "v": 78
    },
    {
      "midi": 60,
      "hit": false,
      "t": 311456,
      "d": 64,
      "v": 36
    },
    {
      "midi": 56,
      "hit": false,
      "t": 311468,
      "d": 92,
      "v": 26
    },
    {
      "midi": 77,
      "hit": false,
      "t": 311592,
      "d": 92,
      "v": 57
    },
    {
      "midi": 72,
      "hit": false,
      "t": 311744,
      "d": 88,
      "v": 63
    },
    {
      "midi": 68,
      "hit": false,
      "t": 312000,
      "d": 88,
      "v": 68
    },
    {
      "midi": 72,
      "hit": false,
      "t": 312172,
      "d": 100,
      "v": 66
    },
    {
      "midi": 70,
      "hit": false,
      "t": 312368,
      "d": 132,
      "v": 56
    },
    {
      "midi": 67,
      "hit": false,
      "t": 312584,
      "d": 32,
      "v": 24
    },
    {
      "midi": 65,
      "hit": false,
      "t": 312832,
      "d": 84,
      "v": 59
    },
    {
      "midi": 64,
      "hit": false,
      "t": 312832,
      "d": 92,
      "v": 66
    },
    {
      "midi": 64,
      "hit": false,
      "t": 313264,
      "d": 96,
      "v": 84
    },
    {
      "midi": 66,
      "hit": false,
      "t": 313412,
      "d": 100,
      "v": 79
    },
    {
      "midi": 52,
      "hit": false,
      "t": 313424,
      "d": 84,
      "v": 49
    },
    {
      "midi": 58,
      "hit": false,
      "t": 313448,
      "d": 88,
      "v": 33
    },
    {
      "midi": 65,
      "hit": false,
      "t": 313584,
      "d": 84,
      "v": 66
    },
    {
      "midi": 63,
      "hit": false,
      "t": 313712,
      "d": 100,
      "v": 50
    },
    {
      "midi": 59,
      "hit": false,
      "t": 313848,
      "d": 96,
      "v": 44
    },
    {
      "midi": 53,
      "hit": false,
      "t": 313880,
      "d": 28,
      "v": 48
    },
    {
      "midi": 56,
      "hit": false,
      "t": 314176,
      "d": 160,
      "v": 35
    },
    {
      "midi": 44,
      "hit": false,
      "t": 314772,
      "d": 92,
      "v": 67
    },
    {
      "midi": 53,
      "hit": false,
      "t": 314936,
      "d": 36,
      "v": 49
    },
    {
      "midi": 43,
      "hit": false,
      "t": 314940,
      "d": 276,
      "v": 52
    },
    {
      "midi": 61,
      "hit": false,
      "t": 315256,
      "d": 104,
      "v": 55
    },
    {
      "midi": 65,
      "hit": false,
      "t": 315432,
      "d": 28,
      "v": 54
    },
    {
      "midi": 63,
      "hit": false,
      "t": 315728,
      "d": 56,
      "v": 67
    },
    {
      "midi": 58,
      "hit": false,
      "t": 315736,
      "d": 128,
      "v": 46
    },
    {
      "midi": 87,
      "hit": false,
      "t": 315912,
      "d": 64,
      "v": 86
    },
    {
      "midi": 85,
      "hit": false,
      "t": 316032,
      "d": 100,
      "v": 73
    },
    {
      "midi": 82,
      "hit": false,
      "t": 316152,
      "d": 88,
      "v": 53
    },
    {
      "midi": 76,
      "hit": false,
      "t": 316276,
      "d": 100,
      "v": 51
    },
    {
      "midi": 63,
      "hit": false,
      "t": 316328,
      "d": 104,
      "v": 39
    },
    {
      "midi": 52,
      "hit": false,
      "t": 316356,
      "d": 108,
      "v": 35
    },
    {
      "midi": 58,
      "hit": false,
      "t": 316356,
      "d": 160,
      "v": 31
    },
    {
      "midi": 75,
      "hit": false,
      "t": 316392,
      "d": 128,
      "v": 58
    },
    {
      "midi": 73,
      "hit": false,
      "t": 316512,
      "d": 100,
      "v": 35
    },
    {
      "midi": 72,
      "hit": false,
      "t": 316620,
      "d": 76,
      "v": 57
    },
    {
      "midi": 70,
      "hit": false,
      "t": 316744,
      "d": 80,
      "v": 57
    },
    {
      "midi": 62,
      "hit": false,
      "t": 316764,
      "d": 36,
      "v": 33
    },
    {
      "midi": 56,
      "hit": false,
      "t": 316784,
      "d": 112,
      "v": 25
    },
    {
      "midi": 60,
      "hit": false,
      "t": 316788,
      "d": 52,
      "v": 27
    },
    {
      "midi": 68,
      "hit": false,
      "t": 316864,
      "d": 72,
      "v": 48
    },
    {
      "midi": 65,
      "hit": false,
      "t": 317088,
      "d": 36,
      "v": 30
    },
    {
      "midi": 67,
      "hit": false,
      "t": 317312,
      "d": 128,
      "v": 80
    },
    {
      "midi": 68,
      "hit": false,
      "t": 317452,
      "d": 124,
      "v": 57
    },
    {
      "midi": 67,
      "hit": false,
      "t": 317560,
      "d": 96,
      "v": 36
    },
    {
      "midi": 65,
      "hit": false,
      "t": 317668,
      "d": 76,
      "v": 66
    },
    {
      "midi": 60,
      "hit": false,
      "t": 317728,
      "d": 40,
      "v": 33
    },
    {
      "midi": 54,
      "hit": false,
      "t": 317732,
      "d": 88,
      "v": 36
    },
    {
      "midi": 77,
      "hit": false,
      "t": 317800,
      "d": 228,
      "v": 76
    },
    {
      "midi": 75,
      "hit": false,
      "t": 318120,
      "d": 392,
      "v": 74
    },
    {
      "midi": 60,
      "hit": false,
      "t": 318128,
      "d": 28,
      "v": 66
    },
    {
      "midi": 54,
      "hit": false,
      "t": 318136,
      "d": 148,
      "v": 45
    },
    {
      "midi": 50,
      "hit": false,
      "t": 318144,
      "d": 40,
      "v": 49
    },
    {
      "midi": 66,
      "hit": false,
      "t": 318300,
      "d": 200,
      "v": 43
    },
    {
      "midi": 65,
      "hit": false,
      "t": 318620,
      "d": 100,
      "v": 57
    },
    {
      "midi": 59,
      "hit": false,
      "t": 318628,
      "d": 72,
      "v": 38
    },
    {
      "midi": 53,
      "hit": false,
      "t": 318636,
      "d": 108,
      "v": 34
    },
    {
      "midi": 66,
      "hit": false,
      "t": 318928,
      "d": 132,
      "v": 20
    },
    {
      "midi": 54,
      "hit": false,
      "t": 319116,
      "d": 84,
      "v": 36
    },
    {
      "midi": 70,
      "hit": false,
      "t": 319216,
      "d": 312,
      "v": 69
    },
    {
      "midi": 59,
      "hit": false,
      "t": 319228,
      "d": 328,
      "v": 68
    },
    {
      "midi": 63,
      "hit": false,
      "t": 319232,
      "d": 348,
      "v": 52
    },
    {
      "midi": 58,
      "hit": false,
      "t": 319248,
      "d": 328,
      "v": 58
    },
    {
      "midi": 67,
      "hit": false,
      "t": 319252,
      "d": 348,
      "v": 32
    },
    {
      "midi": 56,
      "hit": false,
      "t": 319260,
      "d": 44,
      "v": 33
    },
    {
      "midi": 56,
      "hit": false,
      "t": 319596,
      "d": 116,
      "v": 44
    },
    {
      "midi": 70,
      "hit": false,
      "t": 319732,
      "d": 292,
      "v": 63
    },
    {
      "midi": 58,
      "hit": false,
      "t": 319732,
      "d": 428,
      "v": 63
    },
    {
      "midi": 59,
      "hit": false,
      "t": 319744,
      "d": 220,
      "v": 62
    },
    {
      "midi": 63,
      "hit": false,
      "t": 319748,
      "d": 208,
      "v": 45
    },
    {
      "midi": 67,
      "hit": false,
      "t": 319776,
      "d": 152,
      "v": 24
    },
    {
      "midi": 68,
      "hit": false,
      "t": 320064,
      "d": 520,
      "v": 61
    },
    {
      "midi": 63,
      "hit": false,
      "t": 320076,
      "d": 436,
      "v": 56
    },
    {
      "midi": 56,
      "hit": false,
      "t": 320080,
      "d": 184,
      "v": 52
    },
    {
      "midi": 59,
      "hit": false,
      "t": 320080,
      "d": 260,
      "v": 43
    },
    {
      "midi": 84,
      "hit": false,
      "t": 321180,
      "d": 68,
      "v": 77
    },
    {
      "midi": 79,
      "hit": false,
      "t": 321188,
      "d": 44,
      "v": 64
    },
    {
      "midi": 75,
      "hit": false,
      "t": 321188,
      "d": 96,
      "v": 47
    },
    {
      "midi": 67,
      "hit": false,
      "t": 321192,
      "d": 72,
      "v": 68
    },
    {
      "midi": 76,
      "hit": false,
      "t": 321736,
      "d": 104,
      "v": 66
    },
    {
      "midi": 61,
      "hit": false,
      "t": 321744,
      "d": 132,
      "v": 57
    },
    {
      "midi": 70,
      "hit": false,
      "t": 321748,
      "d": 60,
      "v": 45
    },
    {
      "midi": 73,
      "hit": false,
      "t": 321772,
      "d": 68,
      "v": 26
    },
    {
      "midi": 79,
      "hit": false,
      "t": 321868,
      "d": 84,
      "v": 66
    },
    {
      "midi": 70,
      "hit": false,
      "t": 321872,
      "d": 88,
      "v": 50
    },
    {
      "midi": 64,
      "hit": false,
      "t": 321876,
      "d": 116,
      "v": 61
    },
    {
      "midi": 73,
      "hit": false,
      "t": 321896,
      "d": 32,
      "v": 18
    },
    {
      "midi": 68,
      "hit": false,
      "t": 322140,
      "d": 84,
      "v": 50
    },
    {
      "midi": 72,
      "hit": false,
      "t": 322148,
      "d": 100,
      "v": 58
    },
    {
      "midi": 58,
      "hit": false,
      "t": 322160,
      "d": 104,
      "v": 48
    },
    {
      "midi": 75,
      "hit": false,
      "t": 322272,
      "d": 84,
      "v": 71
    },
    {
      "midi": 68,
      "hit": false,
      "t": 322276,
      "d": 76,
      "v": 59
    },
    {
      "midi": 60,
      "hit": false,
      "t": 322316,
      "d": 36,
      "v": 38
    },
    {
      "midi": 68,
      "hit": false,
      "t": 322604,
      "d": 188,
      "v": 60
    },
    {
      "midi": 65,
      "hit": false,
      "t": 322608,
      "d": 72,
      "v": 63
    },
    {
      "midi": 58,
      "hit": false,
      "t": 322616,
      "d": 116,
      "v": 52
    },
    {
      "midi": 74,
      "hit": false,
      "t": 322736,
      "d": 64,
      "v": 69
    },
    {
      "midi": 65,
      "hit": false,
      "t": 322748,
      "d": 60,
      "v": 66
    },
    {
      "midi": 70,
      "hit": false,
      "t": 322956,
      "d": 252,
      "v": 70
    },
    {
      "midi": 67,
      "hit": false,
      "t": 322964,
      "d": 176,
      "v": 55
    },
    {
      "midi": 63,
      "hit": false,
      "t": 322964,
      "d": 248,
      "v": 53
    },
    {
      "midi": 58,
      "hit": false,
      "t": 322968,
      "d": 232,
      "v": 69
    },
    {
      "midi": 60,
      "hit": false,
      "t": 322968,
      "d": 232,
      "v": 63
    },
    {
      "midi": 67,
      "hit": false,
      "t": 323256,
      "d": 84,
      "v": 46
    },
    {
      "midi": 60,
      "hit": false,
      "t": 323260,
      "d": 44,
      "v": 46
    },
    {
      "midi": 53,
      "hit": false,
      "t": 323304,
      "d": 48,
      "v": 40
    },
    {
      "midi": 51,
      "hit": false,
      "t": 323416,
      "d": 120,
      "v": 50
    },
    {
      "midi": 67,
      "hit": false,
      "t": 323564,
      "d": 192,
      "v": 66
    },
    {
      "midi": 56,
      "hit": false,
      "t": 323568,
      "d": 232,
      "v": 60
    },
    {
      "midi": 55,
      "hit": false,
      "t": 323572,
      "d": 292,
      "v": 69
    },
    {
      "midi": 60,
      "hit": false,
      "t": 323584,
      "d": 196,
      "v": 53
    },
    {
      "midi": 63,
      "hit": false,
      "t": 323592,
      "d": 260,
      "v": 30
    },
    {
      "midi": 66,
      "hit": false,
      "t": 323908,
      "d": 108,
      "v": 55
    },
    {
      "midi": 54,
      "hit": false,
      "t": 323912,
      "d": 120,
      "v": 55
    },
    {
      "midi": 56,
      "hit": false,
      "t": 323920,
      "d": 112,
      "v": 55
    },
    {
      "midi": 60,
      "hit": false,
      "t": 323928,
      "d": 120,
      "v": 62
    },
    {
      "midi": 63,
      "hit": false,
      "t": 323928,
      "d": 132,
      "v": 32
    },
    {
      "midi": 60,
      "hit": false,
      "t": 324080,
      "d": 260,
      "v": 17
    },
    {
      "midi": 56,
      "hit": false,
      "t": 324088,
      "d": 264,
      "v": 37
    },
    {
      "midi": 65,
      "hit": false,
      "t": 324092,
      "d": 264,
      "v": 60
    },
    {
      "midi": 53,
      "hit": false,
      "t": 324096,
      "d": 288,
      "v": 45
    },
    {
      "midi": 50,
      "hit": false,
      "t": 324400,
      "d": 64,
      "v": 54
    },
    {
      "midi": 49,
      "hit": false,
      "t": 324560,
      "d": 440,
      "v": 57
    },
    {
      "midi": 58,
      "hit": false,
      "t": 324856,
      "d": 152,
      "v": 54
    },
    {
      "midi": 68,
      "hit": false,
      "t": 324864,
      "d": 128,
      "v": 65
    },
    {
      "midi": 59,
      "hit": false,
      "t": 324876,
      "d": 88,
      "v": 64
    },
    {
      "midi": 63,
      "hit": false,
      "t": 324876,
      "d": 440,
      "v": 53
    },
    {
      "midi": 65,
      "hit": false,
      "t": 324900,
      "d": 36,
      "v": 45
    },
    {
      "midi": 56,
      "hit": false,
      "t": 325008,
      "d": 292,
      "v": 36
    },
    {
      "midi": 65,
      "hit": false,
      "t": 325044,
      "d": 256,
      "v": 26
    },
    {
      "midi": 59,
      "hit": false,
      "t": 325052,
      "d": 196,
      "v": 36
    },
    {
      "midi": 54,
      "hit": false,
      "t": 325352,
      "d": 120,
      "v": 29
    },
    {
      "midi": 56,
      "hit": false,
      "t": 325372,
      "d": 132,
      "v": 25
    },
    {
      "midi": 61,
      "hit": false,
      "t": 325488,
      "d": 420,
      "v": 64
    },
    {
      "midi": 70,
      "hit": false,
      "t": 325496,
      "d": 392,
      "v": 61
    },
    {
      "midi": 58,
      "hit": false,
      "t": 325504,
      "d": 308,
      "v": 53
    },
    {
      "midi": 66,
      "hit": false,
      "t": 325504,
      "d": 388,
      "v": 46
    },
    {
      "midi": 51,
      "hit": false,
      "t": 325820,
      "d": 108,
      "v": 46
    },
    {
      "midi": 54,
      "hit": false,
      "t": 325868,
      "d": 52,
      "v": 30
    },
    {
      "midi": 56,
      "hit": false,
      "t": 325956,
      "d": 276,
      "v": 46
    },
    {
      "midi": 68,
      "hit": false,
      "t": 325968,
      "d": 156,
      "v": 56
    },
    {
      "midi": 63,
      "hit": false,
      "t": 325976,
      "d": 176,
      "v": 51
    },
    {
      "midi": 60,
      "hit": false,
      "t": 325988,
      "d": 188,
      "v": 48
    },
    {
      "midi": 60,
      "hit": false,
      "t": 326296,
      "d": 152,
      "v": 71
    },
    {
      "midi": 56,
      "hit": false,
      "t": 326300,
      "d": 140,
      "v": 53
    },
    {
      "midi": 52,
      "hit": false,
      "t": 326304,
      "d": 164,
      "v": 60
    },
    {
      "midi": 67,
      "hit": false,
      "t": 326492,
      "d": 128,
      "v": 66
    },
    {
      "midi": 56,
      "hit": false,
      "t": 326496,
      "d": 236,
      "v": 51
    },
    {
      "midi": 60,
      "hit": false,
      "t": 326512,
      "d": 208,
      "v": 37
    },
    {
      "midi": 55,
      "hit": false,
      "t": 326512,
      "d": 284,
      "v": 54
    },
    {
      "midi": 56,
      "hit": false,
      "t": 326800,
      "d": 100,
      "v": 57
    },
    {
      "midi": 66,
      "hit": false,
      "t": 326804,
      "d": 56,
      "v": 54
    },
    {
      "midi": 54,
      "hit": false,
      "t": 326808,
      "d": 112,
      "v": 55
    },
    {
      "midi": 60,
      "hit": false,
      "t": 326816,
      "d": 464,
      "v": 62
    },
    {
      "midi": 56,
      "hit": false,
      "t": 326944,
      "d": 392,
      "v": 27
    },
    {
      "midi": 65,
      "hit": false,
      "t": 326956,
      "d": 280,
      "v": 53
    },
    {
      "midi": 53,
      "hit": false,
      "t": 326964,
      "d": 324,
      "v": 43
    },
    {
      "midi": 49,
      "hit": false,
      "t": 327292,
      "d": 124,
      "v": 34
    },
    {
      "midi": 52,
      "hit": false,
      "t": 327424,
      "d": 356,
      "v": 40
    },
    {
      "midi": 55,
      "hit": false,
      "t": 327424,
      "d": 372,
      "v": 41
    },
    {
      "midi": 58,
      "hit": false,
      "t": 327424,
      "d": 384,
      "v": 32
    },
    {
      "midi": 61,
      "hit": false,
      "t": 327440,
      "d": 356,
      "v": 27
    },
    {
      "midi": 64,
      "hit": false,
      "t": 327448,
      "d": 272,
      "v": 32
    },
    {
      "midi": 49,
      "hit": false,
      "t": 327776,
      "d": 108,
      "v": 25
    },
    {
      "midi": 51,
      "hit": false,
      "t": 327796,
      "d": 56,
      "v": 25
    },
    {
      "midi": 58,
      "hit": false,
      "t": 327880,
      "d": 276,
      "v": 50
    },
    {
      "midi": 53,
      "hit": false,
      "t": 327888,
      "d": 384,
      "v": 58
    },
    {
      "midi": 65,
      "hit": false,
      "t": 327896,
      "d": 248,
      "v": 62
    },
    {
      "midi": 55,
      "hit": false,
      "t": 327900,
      "d": 244,
      "v": 53
    },
    {
      "midi": 61,
      "hit": false,
      "t": 327900,
      "d": 280,
      "v": 35
    },
    {
      "midi": 54,
      "hit": false,
      "t": 328272,
      "d": 72,
      "v": 39
    },
    {
      "midi": 55,
      "hit": false,
      "t": 328380,
      "d": 480,
      "v": 58
    },
    {
      "midi": 59,
      "hit": false,
      "t": 328388,
      "d": 272,
      "v": 60
    },
    {
      "midi": 67,
      "hit": false,
      "t": 328392,
      "d": 188,
      "v": 55
    },
    {
      "midi": 61,
      "hit": false,
      "t": 328392,
      "d": 232,
      "v": 40
    },
    {
      "midi": 63,
      "hit": false,
      "t": 328400,
      "d": 284,
      "v": 39
    },
    {
      "midi": 68,
      "hit": false,
      "t": 328836,
      "d": 228,
      "v": 56
    },
    {
      "midi": 60,
      "hit": false,
      "t": 328840,
      "d": 216,
      "v": 63
    },
    {
      "midi": 63,
      "hit": false,
      "t": 328844,
      "d": 264,
      "v": 50
    },
    {
      "midi": 56,
      "hit": false,
      "t": 328844,
      "d": 416,
      "v": 61
    },
    {
      "midi": 65,
      "hit": false,
      "t": 328848,
      "d": 184,
      "v": 57
    },
    {
      "midi": 54,
      "hit": false,
      "t": 329184,
      "d": 84,
      "v": 39
    },
    {
      "midi": 63,
      "hit": false,
      "t": 329296,
      "d": 164,
      "v": 64
    },
    {
      "midi": 58,
      "hit": false,
      "t": 329300,
      "d": 256,
      "v": 60
    },
    {
      "midi": 70,
      "hit": false,
      "t": 329304,
      "d": 184,
      "v": 59
    },
    {
      "midi": 67,
      "hit": false,
      "t": 329312,
      "d": 136,
      "v": 47
    },
    {
      "midi": 73,
      "hit": false,
      "t": 329780,
      "d": 140,
      "v": 48
    },
    {
      "midi": 58,
      "hit": false,
      "t": 329784,
      "d": 172,
      "v": 21
    },
    {
      "midi": 68,
      "hit": false,
      "t": 329788,
      "d": 112,
      "v": 64
    },
    {
      "midi": 63,
      "hit": false,
      "t": 329792,
      "d": 92,
      "v": 29
    },
    {
      "midi": 65,
      "hit": false,
      "t": 329796,
      "d": 68,
      "v": 64
    },
    {
      "midi": 70,
      "hit": false,
      "t": 329796,
      "d": 104,
      "v": 52
    },
    {
      "midi": 70,
      "hit": false,
      "t": 330264,
      "d": 360,
      "v": 74
    },
    {
      "midi": 82,
      "hit": false,
      "t": 330264,
      "d": 396,
      "v": 71
    },
    {
      "midi": 53,
      "hit": false,
      "t": 330276,
      "d": 348,
      "v": 51
    },
    {
      "midi": 61,
      "hit": false,
      "t": 330280,
      "d": 372,
      "v": 46
    },
    {
      "midi": 58,
      "hit": false,
      "t": 330300,
      "d": 396,
      "v": 37
    },
    {
      "midi": 55,
      "hit": false,
      "t": 330304,
      "d": 316,
      "v": 35
    },
    {
      "midi": 61,
      "hit": false,
      "t": 330740,
      "d": 364,
      "v": 59
    },
    {
      "midi": 84,
      "hit": false,
      "t": 330748,
      "d": 320,
      "v": 68
    },
    {
      "midi": 53,
      "hit": false,
      "t": 330748,
      "d": 332,
      "v": 60
    },
    {
      "midi": 58,
      "hit": false,
      "t": 330752,
      "d": 188,
      "v": 36
    },
    {
      "midi": 72,
      "hit": false,
      "t": 330752,
      "d": 380,
      "v": 70
    },
    {
      "midi": 55,
      "hit": false,
      "t": 330768,
      "d": 300,
      "v": 52
    },
    {
      "midi": 58,
      "hit": false,
      "t": 331092,
      "d": 76,
      "v": 47
    },
    {
      "midi": 58,
      "hit": false,
      "t": 331216,
      "d": 328,
      "v": 49
    },
    {
      "midi": 63,
      "hit": false,
      "t": 331224,
      "d": 288,
      "v": 67
    },
    {
      "midi": 52,
      "hit": false,
      "t": 331240,
      "d": 248,
      "v": 60
    },
    {
      "midi": 85,
      "hit": false,
      "t": 331244,
      "d": 256,
      "v": 60
    },
    {
      "midi": 73,
      "hit": false,
      "t": 331248,
      "d": 248,
      "v": 39
    },
    {
      "midi": 80,
      "hit": false,
      "t": 331252,
      "d": 260,
      "v": 47
    },
    {
      "midi": 63,
      "hit": false,
      "t": 331580,
      "d": 524,
      "v": 71
    },
    {
      "midi": 52,
      "hit": false,
      "t": 331584,
      "d": 464,
      "v": 70
    },
    {
      "midi": 58,
      "hit": false,
      "t": 331584,
      "d": 508,
      "v": 51
    },
    {
      "midi": 75,
      "hit": false,
      "t": 331584,
      "d": 532,
      "v": 67
    },
    {
      "midi": 87,
      "hit": false,
      "t": 331584,
      "d": 552,
      "v": 80
    },
    {
      "midi": 80,
      "hit": false,
      "t": 331592,
      "d": 468,
      "v": 54
    },
    {
      "midi": 64,
      "hit": false,
      "t": 332168,
      "d": 344,
      "v": 56
    },
    {
      "midi": 88,
      "hit": false,
      "t": 332172,
      "d": 276,
      "v": 57
    },
    {
      "midi": 56,
      "hit": false,
      "t": 332184,
      "d": 220,
      "v": 33
    },
    {
      "midi": 53,
      "hit": false,
      "t": 332184,
      "d": 224,
      "v": 54
    },
    {
      "midi": 60,
      "hit": false,
      "t": 332188,
      "d": 208,
      "v": 49
    },
    {
      "midi": 81,
      "hit": false,
      "t": 332192,
      "d": 212,
      "v": 49
    },
    {
      "midi": 76,
      "hit": false,
      "t": 332208,
      "d": 228,
      "v": 53
    },
    {
      "midi": 60,
      "hit": false,
      "t": 332520,
      "d": 56,
      "v": 31
    },
    {
      "midi": 60,
      "hit": false,
      "t": 332648,
      "d": 296,
      "v": 68
    },
    {
      "midi": 53,
      "hit": false,
      "t": 332652,
      "d": 280,
      "v": 70
    },
    {
      "midi": 56,
      "hit": false,
      "t": 332652,
      "d": 328,
      "v": 51
    },
    {
      "midi": 64,
      "hit": false,
      "t": 332656,
      "d": 296,
      "v": 79
    },
    {
      "midi": 84,
      "hit": false,
      "t": 332664,
      "d": 232,
      "v": 46
    },
    {
      "midi": 89,
      "hit": false,
      "t": 332664,
      "d": 256,
      "v": 67
    },
    {
      "midi": 77,
      "hit": false,
      "t": 332668,
      "d": 224,
      "v": 54
    },
    {
      "midi": 65,
      "hit": false,
      "t": 333148,
      "d": 264,
      "v": 61
    },
    {
      "midi": 54,
      "hit": false,
      "t": 333152,
      "d": 256,
      "v": 53
    },
    {
      "midi": 60,
      "hit": false,
      "t": 333152,
      "d": 280,
      "v": 46
    },
    {
      "midi": 58,
      "hit": false,
      "t": 333160,
      "d": 272,
      "v": 40
    },
    {
      "midi": 85,
      "hit": false,
      "t": 333168,
      "d": 236,
      "v": 53
    },
    {
      "midi": 78,
      "hit": false,
      "t": 333168,
      "d": 272,
      "v": 42
    },
    {
      "midi": 90,
      "hit": false,
      "t": 333176,
      "d": 260,
      "v": 37
    },
    {
      "midi": 54,
      "hit": false,
      "t": 333496,
      "d": 316,
      "v": 74
    },
    {
      "midi": 91,
      "hit": false,
      "t": 333496,
      "d": 408,
      "v": 70
    },
    {
      "midi": 60,
      "hit": false,
      "t": 333500,
      "d": 500,
      "v": 71
    },
    {
      "midi": 65,
      "hit": false,
      "t": 333500,
      "d": 500,
      "v": 69
    },
    {
      "midi": 58,
      "hit": false,
      "t": 333500,
      "d": 548,
      "v": 67
    },
    {
      "midi": 79,
      "hit": false,
      "t": 333508,
      "d": 412,
      "v": 41
    },
    {
      "midi": 86,
      "hit": false,
      "t": 333508,
      "d": 424,
      "v": 58
    },
    {
      "midi": 81,
      "hit": false,
      "t": 333528,
      "d": 28,
      "v": 37
    },
    {
      "midi": 89,
      "hit": false,
      "t": 333540,
      "d": 360,
      "v": 28
    },
    {
      "midi": 54,
      "hit": false,
      "t": 333964,
      "d": 72,
      "v": 60
    },
    {
      "midi": 92,
      "hit": false,
      "t": 334096,
      "d": 248,
      "v": 58
    },
    {
      "midi": 53,
      "hit": false,
      "t": 334096,
      "d": 264,
      "v": 71
    },
    {
      "midi": 87,
      "hit": false,
      "t": 334096,
      "d": 264,
      "v": 65
    },
    {
      "midi": 64,
      "hit": false,
      "t": 334096,
      "d": 372,
      "v": 74
    },
    {
      "midi": 59,
      "hit": false,
      "t": 334104,
      "d": 220,
      "v": 62
    },
    {
      "midi": 80,
      "hit": false,
      "t": 334104,
      "d": 244,
      "v": 38
    },
    {
      "midi": 59,
      "hit": false,
      "t": 334476,
      "d": 40,
      "v": 32
    },
    {
      "midi": 94,
      "hit": false,
      "t": 334568,
      "d": 200,
      "v": 68
    },
    {
      "midi": 59,
      "hit": false,
      "t": 334572,
      "d": 252,
      "v": 74
    },
    {
      "midi": 87,
      "hit": false,
      "t": 334576,
      "d": 144,
      "v": 67
    },
    {
      "midi": 53,
      "hit": false,
      "t": 334576,
      "d": 232,
      "v": 72
    },
    {
      "midi": 64,
      "hit": false,
      "t": 334576,
      "d": 232,
      "v": 71
    },
    {
      "midi": 82,
      "hit": false,
      "t": 334580,
      "d": 188,
      "v": 50
    },
    {
      "midi": 58,
      "hit": false,
      "t": 335036,
      "d": 280,
      "v": 70
    },
    {
      "midi": 63,
      "hit": false,
      "t": 335040,
      "d": 252,
      "v": 75
    },
    {
      "midi": 52,
      "hit": false,
      "t": 335048,
      "d": 212,
      "v": 74
    },
    {
      "midi": 96,
      "hit": false,
      "t": 335056,
      "d": 172,
      "v": 76
    },
    {
      "midi": 84,
      "hit": false,
      "t": 335060,
      "d": 208,
      "v": 49
    },
    {
      "midi": 91,
      "hit": false,
      "t": 335064,
      "d": 156,
      "v": 58
    },
    {
      "midi": 58,
      "hit": false,
      "t": 335392,
      "d": 84,
      "v": 63
    },
    {
      "midi": 85,
      "hit": false,
      "t": 335400,
      "d": 32,
      "v": 61
    },
    {
      "midi": 97,
      "hit": false,
      "t": 335404,
      "d": 28,
      "v": 53
    },
    {
      "midi": 52,
      "hit": false,
      "t": 335416,
      "d": 28,
      "v": 47
    },
    {
      "midi": 92,
      "hit": false,
      "t": 335416,
      "d": 52,
      "v": 39
    },
    {
      "midi": 87,
      "hit": false,
      "t": 335524,
      "d": 268,
      "v": 75
    },
    {
      "midi": 52,
      "hit": false,
      "t": 335528,
      "d": 220,
      "v": 62
    },
    {
      "midi": 63,
      "hit": false,
      "t": 335528,
      "d": 256,
      "v": 77
    },
    {
      "midi": 58,
      "hit": false,
      "t": 335532,
      "d": 268,
      "v": 71
    },
    {
      "midi": 99,
      "hit": false,
      "t": 335536,
      "d": 260,
      "v": 67
    },
    {
      "midi": 92,
      "hit": false,
      "t": 335540,
      "d": 84,
      "v": 60
    },
    {
      "midi": 64,
      "hit": false,
      "t": 335856,
      "d": 856,
      "v": 79
    },
    {
      "midi": 60,
      "hit": false,
      "t": 335856,
      "d": 884,
      "v": 75
    },
    {
      "midi": 53,
      "hit": false,
      "t": 335856,
      "d": 1736,
      "v": 70
    },
    {
      "midi": 56,
      "hit": false,
      "t": 335860,
      "d": 1728,
      "v": 61
    },
    {
      "midi": 100,
      "hit": false,
      "t": 335872,
      "d": 660,
      "v": 78
    },
    {
      "midi": 88,
      "hit": false,
      "t": 335876,
      "d": 740,
      "v": 68
    },
    {
      "midi": 96,
      "hit": false,
      "t": 335880,
      "d": 636,
      "v": 71
    },
    {
      "midi": 93,
      "hit": false,
      "t": 335880,
      "d": 640,
      "v": 68
    },
    {
      "midi": 98,
      "hit": false,
      "t": 335904,
      "d": 644,
      "v": 32
    },
    {
      "midi": 90,
      "hit": false,
      "t": 336824,
      "d": 44,
      "v": 56
    },
    {
      "midi": 96,
      "hit": false,
      "t": 336828,
      "d": 28,
      "v": 66
    },
    {
      "midi": 60,
      "hit": false,
      "t": 336832,
      "d": 100,
      "v": 51
    },
    {
      "midi": 84,
      "hit": false,
      "t": 336836,
      "d": 60,
      "v": 59
    },
    {
      "midi": 62,
      "hit": false,
      "t": 336840,
      "d": 44,
      "v": 57
    },
    {
      "midi": 62,
      "hit": false,
      "t": 336968,
      "d": 200,
      "v": 24
    },
    {
      "midi": 60,
      "hit": false,
      "t": 337308,
      "d": 252,
      "v": 44
    },
    {
      "midi": 65,
      "hit": false,
      "t": 337796,
      "d": 624,
      "v": 72
    },
    {
      "midi": 61,
      "hit": false,
      "t": 337796,
      "d": 796,
      "v": 53
    },
    {
      "midi": 56,
      "hit": false,
      "t": 337804,
      "d": 716,
      "v": 47
    },
    {
      "midi": 60,
      "hit": false,
      "t": 337804,
      "d": 716,
      "v": 63
    },
    {
      "midi": 75,
      "hit": false,
      "t": 338420,
      "d": 144,
      "v": 87
    },
    {
      "midi": 77,
      "hit": false,
      "t": 338560,
      "d": 148,
      "v": 25
    },
    {
      "midi": 75,
      "hit": false,
      "t": 338676,
      "d": 108,
      "v": 35
    },
    {
      "midi": 74,
      "hit": false,
      "t": 338780,
      "d": 60,
      "v": 56
    },
    {
      "midi": 61,
      "hit": false,
      "t": 338840,
      "d": 104,
      "v": 35
    },
    {
      "midi": 56,
      "hit": false,
      "t": 338848,
      "d": 56,
      "v": 25
    },
    {
      "midi": 75,
      "hit": false,
      "t": 338920,
      "d": 296,
      "v": 86
    },
    {
      "midi": 72,
      "hit": false,
      "t": 339260,
      "d": 248,
      "v": 68
    },
    {
      "midi": 61,
      "hit": false,
      "t": 339292,
      "d": 96,
      "v": 34
    },
    {
      "midi": 64,
      "hit": false,
      "t": 339296,
      "d": 36,
      "v": 36
    },
    {
      "midi": 55,
      "hit": false,
      "t": 339300,
      "d": 112,
      "v": 41
    },
    {
      "midi": 70,
      "hit": false,
      "t": 339476,
      "d": 348,
      "v": 52
    },
    {
      "midi": 63,
      "hit": false,
      "t": 339776,
      "d": 32,
      "v": 47
    },
    {
      "midi": 60,
      "hit": false,
      "t": 339784,
      "d": 28,
      "v": 51
    },
    {
      "midi": 58,
      "hit": false,
      "t": 339808,
      "d": 224,
      "v": 35
    },
    {
      "midi": 66,
      "hit": false,
      "t": 339936,
      "d": 172,
      "v": 49
    },
    {
      "midi": 67,
      "hit": false,
      "t": 340024,
      "d": 220,
      "v": 43
    },
    {
      "midi": 63,
      "hit": false,
      "t": 340356,
      "d": 340,
      "v": 60
    },
    {
      "midi": 60,
      "hit": false,
      "t": 340700,
      "d": 76,
      "v": 63
    },
    {
      "midi": 55,
      "hit": false,
      "t": 340856,
      "d": 264,
      "v": 47
    },
    {
      "midi": 55,
      "hit": false,
      "t": 341176,
      "d": 28,
      "v": 72
    },
    {
      "midi": 56,
      "hit": false,
      "t": 341776,
      "d": 24,
      "v": 15
    },
    {
      "midi": 65,
      "hit": false,
      "t": 341792,
      "d": 900,
      "v": 118
    },
    {
      "midi": 55,
      "hit": false,
      "t": 342620,
      "d": 28,
      "v": 58
    },
    {
      "midi": 63,
      "hit": false,
      "t": 342752,
      "d": 128,
      "v": 48
    },
    {
      "midi": 60,
      "hit": false,
      "t": 342896,
      "d": 76,
      "v": 40
    },
    {
      "midi": 61,
      "hit": false,
      "t": 343020,
      "d": 104,
      "v": 29
    },
    {
      "midi": 63,
      "hit": false,
      "t": 343128,
      "d": 64,
      "v": 40
    },
    {
      "midi": 65,
      "hit": false,
      "t": 343232,
      "d": 92,
      "v": 64
    },
    {
      "midi": 66,
      "hit": false,
      "t": 343368,
      "d": 64,
      "v": 39
    },
    {
      "midi": 67,
      "hit": false,
      "t": 343480,
      "d": 72,
      "v": 48
    },
    {
      "midi": 69,
      "hit": false,
      "t": 343620,
      "d": 68,
      "v": 67
    },
    {
      "midi": 66,
      "hit": false,
      "t": 343644,
      "d": 28,
      "v": 39
    },
    {
      "midi": 61,
      "hit": false,
      "t": 343648,
      "d": 100,
      "v": 36
    },
    {
      "midi": 70,
      "hit": false,
      "t": 343764,
      "d": 28,
      "v": 52
    },
    {
      "midi": 72,
      "hit": false,
      "t": 343868,
      "d": 64,
      "v": 49
    },
    {
      "midi": 73,
      "hit": false,
      "t": 343992,
      "d": 72,
      "v": 53
    },
    {
      "midi": 75,
      "hit": false,
      "t": 344120,
      "d": 60,
      "v": 60
    },
    {
      "midi": 76,
      "hit": false,
      "t": 344240,
      "d": 92,
      "v": 68
    },
    {
      "midi": 63,
      "hit": false,
      "t": 344248,
      "d": 80,
      "v": 34
    },
    {
      "midi": 60,
      "hit": false,
      "t": 344256,
      "d": 80,
      "v": 44
    },
    {
      "midi": 58,
      "hit": false,
      "t": 344268,
      "d": 348,
      "v": 29
    },
    {
      "midi": 53,
      "hit": false,
      "t": 344272,
      "d": 64,
      "v": 36
    },
    {
      "midi": 63,
      "hit": false,
      "t": 344376,
      "d": 204,
      "v": 35
    },
    {
      "midi": 77,
      "hit": false,
      "t": 344376,
      "d": 672,
      "v": 57
    },
    {
      "midi": 53,
      "hit": false,
      "t": 344392,
      "d": 180,
      "v": 22
    },
    {
      "midi": 60,
      "hit": false,
      "t": 344404,
      "d": 188,
      "v": 34
    },
    {
      "midi": 63,
      "hit": false,
      "t": 344656,
      "d": 376,
      "v": 53
    },
    {
      "midi": 78,
      "hit": false,
      "t": 344660,
      "d": 132,
      "v": 56
    },
    {
      "midi": 66,
      "hit": false,
      "t": 344668,
      "d": 96,
      "v": 57
    },
    {
      "midi": 53,
      "hit": false,
      "t": 344668,
      "d": 380,
      "v": 36
    },
    {
      "midi": 60,
      "hit": false,
      "t": 344672,
      "d": 328,
      "v": 60
    },
    {
      "midi": 58,
      "hit": false,
      "t": 344672,
      "d": 420,
      "v": 21
    },
    {
      "midi": 67,
      "hit": false,
      "t": 344812,
      "d": 212,
      "v": 60
    },
    {
      "midi": 79,
      "hit": false,
      "t": 344816,
      "d": 188,
      "v": 57
    },
    {
      "midi": 53,
      "hit": false,
      "t": 345108,
      "d": 424,
      "v": 36
    },
    {
      "midi": 63,
      "hit": false,
      "t": 345116,
      "d": 60,
      "v": 57
    },
    {
      "midi": 68,
      "hit": false,
      "t": 345120,
      "d": 68,
      "v": 70
    },
    {
      "midi": 80,
      "hit": false,
      "t": 345120,
      "d": 76,
      "v": 59
    },
    {
      "midi": 60,
      "hit": false,
      "t": 345128,
      "d": 68,
      "v": 54
    },
    {
      "midi": 58,
      "hit": false,
      "t": 345128,
      "d": 440,
      "v": 15
    },
    {
      "midi": 78,
      "hit": false,
      "t": 345152,
      "d": 36,
      "v": 28
    },
    {
      "midi": 63,
      "hit": false,
      "t": 345240,
      "d": 308,
      "v": 48
    },
    {
      "midi": 69,
      "hit": false,
      "t": 345244,
      "d": 228,
      "v": 78
    },
    {
      "midi": 81,
      "hit": false,
      "t": 345248,
      "d": 216,
      "v": 72
    },
    {
      "midi": 60,
      "hit": false,
      "t": 345256,
      "d": 328,
      "v": 40
    },
    {
      "midi": 82,
      "hit": false,
      "t": 345588,
      "d": 60,
      "v": 60
    },
    {
      "midi": 70,
      "hit": false,
      "t": 345592,
      "d": 48,
      "v": 62
    },
    {
      "midi": 53,
      "hit": false,
      "t": 345624,
      "d": 80,
      "v": 40
    },
    {
      "midi": 60,
      "hit": false,
      "t": 345628,
      "d": 76,
      "v": 30
    },
    {
      "midi": 57,
      "hit": false,
      "t": 345652,
      "d": 44,
      "v": 34
    },
    {
      "midi": 53,
      "hit": false,
      "t": 345764,
      "d": 264,
      "v": 52
    },
    {
      "midi": 71,
      "hit": false,
      "t": 345768,
      "d": 240,
      "v": 79
    },
    {
      "midi": 83,
      "hit": false,
      "t": 345772,
      "d": 244,
      "v": 80
    },
    {
      "midi": 60,
      "hit": false,
      "t": 345776,
      "d": 252,
      "v": 62
    },
    {
      "midi": 64,
      "hit": false,
      "t": 345780,
      "d": 228,
      "v": 62
    },
    {
      "midi": 57,
      "hit": false,
      "t": 345780,
      "d": 252,
      "v": 57
    },
    {
      "midi": 53,
      "hit": false,
      "t": 346064,
      "d": 376,
      "v": 31
    },
    {
      "midi": 64,
      "hit": false,
      "t": 346072,
      "d": 104,
      "v": 63
    },
    {
      "midi": 72,
      "hit": false,
      "t": 346088,
      "d": 76,
      "v": 74
    },
    {
      "midi": 60,
      "hit": false,
      "t": 346088,
      "d": 104,
      "v": 64
    },
    {
      "midi": 57,
      "hit": false,
      "t": 346088,
      "d": 112,
      "v": 67
    },
    {
      "midi": 84,
      "hit": false,
      "t": 346092,
      "d": 76,
      "v": 76
    },
    {
      "midi": 64,
      "hit": false,
      "t": 346228,
      "d": 224,
      "v": 75
    },
    {
      "midi": 60,
      "hit": false,
      "t": 346232,
      "d": 212,
      "v": 34
    },
    {
      "midi": 73,
      "hit": false,
      "t": 346236,
      "d": 220,
      "v": 54
    },
    {
      "midi": 85,
      "hit": false,
      "t": 346236,
      "d": 224,
      "v": 84
    },
    {
      "midi": 57,
      "hit": false,
      "t": 346236,
      "d": 232,
      "v": 33
    },
    {
      "midi": 53,
      "hit": false,
      "t": 346544,
      "d": 240,
      "v": 62
    },
    {
      "midi": 64,
      "hit": false,
      "t": 346548,
      "d": 240,
      "v": 52
    },
    {
      "midi": 86,
      "hit": false,
      "t": 346552,
      "d": 192,
      "v": 62
    },
    {
      "midi": 74,
      "hit": false,
      "t": 346556,
      "d": 212,
      "v": 62
    },
    {
      "midi": 59,
      "hit": false,
      "t": 346560,
      "d": 256,
      "v": 49
    },
    {
      "midi": 84,
      "hit": false,
      "t": 346580,
      "d": 184,
      "v": 33
    },
    {
      "midi": 59,
      "hit": false,
      "t": 346876,
      "d": 120,
      "v": 66
    },
    {
      "midi": 75,
      "hit": false,
      "t": 346880,
      "d": 120,
      "v": 77
    },
    {
      "midi": 87,
      "hit": false,
      "t": 346880,
      "d": 124,
      "v": 80
    },
    {
      "midi": 64,
      "hit": false,
      "t": 346884,
      "d": 64,
      "v": 68
    },
    {
      "midi": 53,
      "hit": false,
      "t": 346884,
      "d": 96,
      "v": 67
    },
    {
      "midi": 53,
      "hit": false,
      "t": 347056,
      "d": 64,
      "v": 28
    },
    {
      "midi": 59,
      "hit": false,
      "t": 347060,
      "d": 60,
      "v": 56
    },
    {
      "midi": 64,
      "hit": false,
      "t": 347068,
      "d": 36,
      "v": 33
    },
    {
      "midi": 76,
      "hit": false,
      "t": 347076,
      "d": 44,
      "v": 58
    },
    {
      "midi": 88,
      "hit": false,
      "t": 347084,
      "d": 40,
      "v": 48
    },
    {
      "midi": 64,
      "hit": false,
      "t": 347372,
      "d": 28,
      "v": 66
    },
    {
      "midi": 53,
      "hit": false,
      "t": 347372,
      "d": 32,
      "v": 64
    },
    {
      "midi": 59,
      "hit": false,
      "t": 347380,
      "d": 32,
      "v": 41
    },
    {
      "midi": 76,
      "hit": false,
      "t": 347392,
      "d": 28,
      "v": 54
    },
    {
      "midi": 89,
      "hit": false,
      "t": 347396,
      "d": 28,
      "v": 60
    },
    {
      "midi": 77,
      "hit": false,
      "t": 347396,
      "d": 44,
      "v": 51
    },
    {
      "midi": 88,
      "hit": false,
      "t": 347408,
      "d": 28,
      "v": 49
    },
    {
      "midi": 78,
      "hit": false,
      "t": 347568,
      "d": 84,
      "v": 71
    },
    {
      "midi": 90,
      "hit": false,
      "t": 347568,
      "d": 92,
      "v": 64
    },
    {
      "midi": 59,
      "hit": false,
      "t": 347580,
      "d": 384,
      "v": 66
    },
    {
      "midi": 62,
      "hit": false,
      "t": 347584,
      "d": 72,
      "v": 79
    },
    {
      "midi": 52,
      "hit": false,
      "t": 347588,
      "d": 388,
      "v": 60
    },
    {
      "midi": 55,
      "hit": false,
      "t": 347600,
      "d": 400,
      "v": 54
    },
    {
      "midi": 62,
      "hit": false,
      "t": 347684,
      "d": 264,
      "v": 27
    },
    {
      "midi": 91,
      "hit": false,
      "t": 347716,
      "d": 140,
      "v": 68
    },
    {
      "midi": 79,
      "hit": false,
      "t": 347720,
      "d": 168,
      "v": 65
    },
    {
      "midi": 89,
      "hit": false,
      "t": 347724,
      "d": 136,
      "v": 70
    },
    {
      "midi": 73,
      "hit": false,
      "t": 348028,
      "d": 152,
      "v": 53
    },
    {
      "midi": 85,
      "hit": false,
      "t": 348028,
      "d": 196,
      "v": 69
    },
    {
      "midi": 62,
      "hit": false,
      "t": 348028,
      "d": 292,
      "v": 41
    },
    {
      "midi": 59,
      "hit": false,
      "t": 348036,
      "d": 240,
      "v": 42
    },
    {
      "midi": 52,
      "hit": false,
      "t": 348036,
      "d": 1208,
      "v": 27
    },
    {
      "midi": 55,
      "hit": false,
      "t": 348048,
      "d": 1160,
      "v": 19
    },
    {
      "midi": 86,
      "hit": false,
      "t": 348164,
      "d": 64,
      "v": 29
    },
    {
      "midi": 74,
      "hit": false,
      "t": 348196,
      "d": 68,
      "v": 44
    },
    {
      "midi": 59,
      "hit": false,
      "t": 348380,
      "d": 260,
      "v": 17
    },
    {
      "midi": 70,
      "hit": false,
      "t": 348384,
      "d": 136,
      "v": 67
    },
    {
      "midi": 82,
      "hit": false,
      "t": 348384,
      "d": 180,
      "v": 56
    },
    {
      "midi": 62,
      "hit": false,
      "t": 348416,
      "d": 184,
      "v": 37
    },
    {
      "midi": 71,
      "hit": false,
      "t": 348516,
      "d": 60,
      "v": 51
    },
    {
      "midi": 83,
      "hit": false,
      "t": 348524,
      "d": 28,
      "v": 27
    },
    {
      "midi": 79,
      "hit": false,
      "t": 348664,
      "d": 292,
      "v": 54
    },
    {
      "midi": 59,
      "hit": false,
      "t": 348676,
      "d": 224,
      "v": 24
    },
    {
      "midi": 78,
      "hit": false,
      "t": 348688,
      "d": 72,
      "v": 35
    },
    {
      "midi": 62,
      "hit": false,
      "t": 348688,
      "d": 188,
      "v": 36
    },
    {
      "midi": 67,
      "hit": false,
      "t": 348700,
      "d": 216,
      "v": 28
    },
    {
      "midi": 76,
      "hit": false,
      "t": 348984,
      "d": 292,
      "v": 44
    },
    {
      "midi": 67,
      "hit": false,
      "t": 348988,
      "d": 300,
      "v": 40
    },
    {
      "midi": 62,
      "hit": false,
      "t": 348992,
      "d": 312,
      "v": 48
    },
    {
      "midi": 59,
      "hit": false,
      "t": 348996,
      "d": 204,
      "v": 44
    },
    {
      "midi": 77,
      "hit": false,
      "t": 349184,
      "d": 192,
      "v": 1
    },
    {
      "midi": 70,
      "hit": false,
      "t": 349484,
      "d": 36,
      "v": 75
    },
    {
      "midi": 79,
      "hit": false,
      "t": 349492,
      "d": 32,
      "v": 54
    },
    {
      "midi": 65,
      "hit": false,
      "t": 349772,
      "d": 28,
      "v": 76
    },
    {
      "midi": 75,
      "hit": false,
      "t": 349772,
      "d": 60,
      "v": 72
    },
    {
      "midi": 70,
      "hit": false,
      "t": 349776,
      "d": 44,
      "v": 81
    },
    {
      "midi": 79,
      "hit": false,
      "t": 349784,
      "d": 28,
      "v": 60
    },
    {
      "midi": 49,
      "hit": false,
      "t": 350248,
      "d": 52,
      "v": 54
    },
    {
      "midi": 49,
      "hit": false,
      "t": 350424,
      "d": 68,
      "v": 53
    },
    {
      "midi": 63,
      "hit": false,
      "t": 350432,
      "d": 36,
      "v": 53
    },
    {
      "midi": 59,
      "hit": false,
      "t": 350432,
      "d": 48,
      "v": 57
    },
    {
      "midi": 67,
      "hit": false,
      "t": 350436,
      "d": 36,
      "v": 45
    },
    {
      "midi": 53,
      "hit": false,
      "t": 350440,
      "d": 32,
      "v": 48
    },
    {
      "midi": 71,
      "hit": false,
      "t": 350448,
      "d": 32,
      "v": 38
    },
    {
      "midi": 63,
      "hit": false,
      "t": 350728,
      "d": 480,
      "v": 67
    },
    {
      "midi": 67,
      "hit": false,
      "t": 350736,
      "d": 372,
      "v": 59
    },
    {
      "midi": 71,
      "hit": false,
      "t": 350744,
      "d": 312,
      "v": 68
    },
    {
      "midi": 49,
      "hit": false,
      "t": 350744,
      "d": 536,
      "v": 59
    },
    {
      "midi": 59,
      "hit": false,
      "t": 350748,
      "d": 268,
      "v": 60
    },
    {
      "midi": 53,
      "hit": false,
      "t": 350752,
      "d": 300,
      "v": 56
    },
    {
      "midi": 70,
      "hit": false,
      "t": 350752,
      "d": 396,
      "v": 18
    },
    {
      "midi": 54,
      "hit": false,
      "t": 351256,
      "d": 112,
      "v": 51
    },
    {
      "midi": 68,
      "hit": false,
      "t": 351404,
      "d": 356,
      "v": 80
    },
    {
      "midi": 58,
      "hit": false,
      "t": 351408,
      "d": 356,
      "v": 88
    },
    {
      "midi": 61,
      "hit": false,
      "t": 351408,
      "d": 380,
      "v": 82
    },
    {
      "midi": 64,
      "hit": false,
      "t": 351408,
      "d": 412,
      "v": 79
    },
    {
      "midi": 56,
      "hit": false,
      "t": 351412,
      "d": 356,
      "v": 92
    },
    {
      "midi": 54,
      "hit": false,
      "t": 351416,
      "d": 24,
      "v": 47
    },
    {
      "midi": 51,
      "hit": false,
      "t": 351432,
      "d": 24,
      "v": 48
    },
    {
      "midi": 53,
      "hit": false,
      "t": 351764,
      "d": 76,
      "v": 54
    },
    {
      "midi": 54,
      "hit": false,
      "t": 351820,
      "d": 124,
      "v": 56
    },
    {
      "midi": 56,
      "hit": false,
      "t": 351892,
      "d": 364,
      "v": 76
    },
    {
      "midi": 68,
      "hit": false,
      "t": 351904,
      "d": 392,
      "v": 73
    },
    {
      "midi": 64,
      "hit": false,
      "t": 351908,
      "d": 340,
      "v": 60
    },
    {
      "midi": 61,
      "hit": false,
      "t": 351912,
      "d": 320,
      "v": 67
    },
    {
      "midi": 58,
      "hit": false,
      "t": 351912,
      "d": 328,
      "v": 75
    },
    {
      "midi": 54,
      "hit": false,
      "t": 352232,
      "d": 176,
      "v": 37
    },
    {
      "midi": 58,
      "hit": false,
      "t": 352360,
      "d": 32,
      "v": 53
    },
    {
      "midi": 61,
      "hit": false,
      "t": 352360,
      "d": 64,
      "v": 54
    },
    {
      "midi": 55,
      "hit": false,
      "t": 352376,
      "d": 356,
      "v": 72
    },
    {
      "midi": 64,
      "hit": false,
      "t": 352384,
      "d": 40,
      "v": 31
    },
    {
      "midi": 67,
      "hit": false,
      "t": 352388,
      "d": 68,
      "v": 37
    },
    {
      "midi": 48,
      "hit": false,
      "t": 352684,
      "d": 152,
      "v": 85
    },
    {
      "midi": 51,
      "hit": false,
      "t": 352708,
      "d": 28,
      "v": 50
    },
    {
      "midi": 72,
      "hit": false,
      "t": 353160,
      "d": 60,
      "v": 66
    },
    {
      "midi": 60,
      "hit": false,
      "t": 353172,
      "d": 68,
      "v": 66
    },
    {
      "midi": 56,
      "hit": false,
      "t": 353192,
      "d": 32,
      "v": 26
    },
    {
      "midi": 53,
      "hit": false,
      "t": 353320,
      "d": 272,
      "v": 84
    },
    {
      "midi": 56,
      "hit": false,
      "t": 353324,
      "d": 300,
      "v": 65
    },
    {
      "midi": 64,
      "hit": false,
      "t": 353328,
      "d": 276,
      "v": 95
    },
    {
      "midi": 60,
      "hit": false,
      "t": 353328,
      "d": 296,
      "v": 82
    },
    {
      "midi": 91,
      "hit": false,
      "t": 353336,
      "d": 260,
      "v": 85
    },
    {
      "midi": 79,
      "hit": false,
      "t": 353336,
      "d": 276,
      "v": 80
    },
    {
      "midi": 86,
      "hit": false,
      "t": 353352,
      "d": 28,
      "v": 66
    },
    {
      "midi": 64,
      "hit": false,
      "t": 353664,
      "d": 424,
      "v": 89
    },
    {
      "midi": 53,
      "hit": false,
      "t": 353664,
      "d": 444,
      "v": 80
    },
    {
      "midi": 60,
      "hit": false,
      "t": 353668,
      "d": 416,
      "v": 89
    },
    {
      "midi": 56,
      "hit": false,
      "t": 353672,
      "d": 440,
      "v": 76
    },
    {
      "midi": 91,
      "hit": false,
      "t": 353672,
      "d": 1168,
      "v": 76
    },
    {
      "midi": 79,
      "hit": false,
      "t": 353672,
      "d": 1208,
      "v": 73
    },
    {
      "midi": 86,
      "hit": false,
      "t": 353676,
      "d": 1120,
      "v": 80
    },
    {
      "midi": 50,
      "hit": false,
      "t": 354320,
      "d": 576,
      "v": 57
    },
    {
      "midi": 60,
      "hit": false,
      "t": 354324,
      "d": 584,
      "v": 62
    },
    {
      "midi": 56,
      "hit": false,
      "t": 354328,
      "d": 572,
      "v": 56
    },
    {
      "midi": 56,
      "hit": false,
      "t": 355092,
      "d": 44,
      "v": 52
    },
    {
      "midi": 60,
      "hit": false,
      "t": 355096,
      "d": 36,
      "v": 68
    },
    {
      "midi": 89,
      "hit": false,
      "t": 355100,
      "d": 64,
      "v": 74
    },
    {
      "midi": 77,
      "hit": false,
      "t": 355104,
      "d": 32,
      "v": 61
    },
    {
      "midi": 84,
      "hit": false,
      "t": 355104,
      "d": 36,
      "v": 69
    },
    {
      "midi": 53,
      "hit": false,
      "t": 355272,
      "d": 248,
      "v": 75
    },
    {
      "midi": 59,
      "hit": false,
      "t": 355272,
      "d": 288,
      "v": 71
    },
    {
      "midi": 63,
      "hit": false,
      "t": 355276,
      "d": 272,
      "v": 74
    },
    {
      "midi": 80,
      "hit": false,
      "t": 355280,
      "d": 232,
      "v": 78
    },
    {
      "midi": 92,
      "hit": false,
      "t": 355280,
      "d": 248,
      "v": 83
    },
    {
      "midi": 56,
      "hit": false,
      "t": 355280,
      "d": 292,
      "v": 49
    },
    {
      "midi": 87,
      "hit": false,
      "t": 355288,
      "d": 256,
      "v": 77
    },
    {
      "midi": 63,
      "hit": false,
      "t": 355592,
      "d": 132,
      "v": 77
    },
    {
      "midi": 94,
      "hit": false,
      "t": 355596,
      "d": 112,
      "v": 78
    },
    {
      "midi": 82,
      "hit": false,
      "t": 355600,
      "d": 112,
      "v": 68
    },
    {
      "midi": 87,
      "hit": false,
      "t": 355600,
      "d": 120,
      "v": 56
    },
    {
      "midi": 53,
      "hit": false,
      "t": 355600,
      "d": 344,
      "v": 60
    },
    {
      "midi": 59,
      "hit": false,
      "t": 355608,
      "d": 300,
      "v": 60
    },
    {
      "midi": 56,
      "hit": false,
      "t": 355608,
      "d": 400,
      "v": 30
    },
    {
      "midi": 63,
      "hit": false,
      "t": 355760,
      "d": 216,
      "v": 44
    },
    {
      "midi": 92,
      "hit": false,
      "t": 355780,
      "d": 212,
      "v": 54
    },
    {
      "midi": 87,
      "hit": false,
      "t": 355792,
      "d": 172,
      "v": 39
    },
    {
      "midi": 80,
      "hit": false,
      "t": 355792,
      "d": 200,
      "v": 42
    },
    {
      "midi": 63,
      "hit": false,
      "t": 356060,
      "d": 44,
      "v": 74
    },
    {
      "midi": 58,
      "hit": false,
      "t": 356064,
      "d": 72,
      "v": 67
    },
    {
      "midi": 52,
      "hit": false,
      "t": 356076,
      "d": 28,
      "v": 62
    },
    {
      "midi": 54,
      "hit": false,
      "t": 356488,
      "d": 100,
      "v": 71
    },
    {
      "midi": 55,
      "hit": false,
      "t": 356520,
      "d": 588,
      "v": 81
    },
    {
      "midi": 61,
      "hit": false,
      "t": 356524,
      "d": 556,
      "v": 71
    },
    {
      "midi": 67,
      "hit": false,
      "t": 356528,
      "d": 472,
      "v": 77
    },
    {
      "midi": 58,
      "hit": false,
      "t": 356528,
      "d": 528,
      "v": 76
    },
    {
      "midi": 65,
      "hit": false,
      "t": 356540,
      "d": 540,
      "v": 61
    },
    {
      "midi": 64,
      "hit": false,
      "t": 356544,
      "d": 432,
      "v": 55
    },
    {
      "midi": 65,
      "hit": false,
      "t": 357156,
      "d": 252,
      "v": 53
    },
    {
      "midi": 56,
      "hit": false,
      "t": 357164,
      "d": 212,
      "v": 37
    },
    {
      "midi": 53,
      "hit": false,
      "t": 357168,
      "d": 312,
      "v": 39
    },
    {
      "midi": 60,
      "hit": false,
      "t": 357176,
      "d": 128,
      "v": 53
    },
    {
      "midi": 56,
      "hit": false,
      "t": 357464,
      "d": 80,
      "v": 61
    },
    {
      "midi": 63,
      "hit": false,
      "t": 357480,
      "d": 108,
      "v": 54
    },
    {
      "midi": 67,
      "hit": false,
      "t": 357484,
      "d": 52,
      "v": 41
    },
    {
      "midi": 65,
      "hit": false,
      "t": 357492,
      "d": 76,
      "v": 46
    },
    {
      "midi": 55,
      "hit": false,
      "t": 357496,
      "d": 184,
      "v": 61
    },
    {
      "midi": 56,
      "hit": false,
      "t": 357664,
      "d": 336,
      "v": 58
    },
    {
      "midi": 60,
      "hit": false,
      "t": 357692,
      "d": 176,
      "v": 34
    },
    {
      "midi": 65,
      "hit": false,
      "t": 357696,
      "d": 128,
      "v": 40
    },
    {
      "midi": 63,
      "hit": false,
      "t": 357696,
      "d": 192,
      "v": 26
    },
    {
      "midi": 68,
      "hit": false,
      "t": 357700,
      "d": 108,
      "v": 38
    },
    {
      "midi": 63,
      "hit": false,
      "t": 357968,
      "d": 108,
      "v": 73
    },
    {
      "midi": 70,
      "hit": false,
      "t": 357972,
      "d": 128,
      "v": 80
    },
    {
      "midi": 58,
      "hit": false,
      "t": 357972,
      "d": 236,
      "v": 79
    },
    {
      "midi": 60,
      "hit": false,
      "t": 357988,
      "d": 28,
      "v": 68
    },
    {
      "midi": 68,
      "hit": false,
      "t": 358020,
      "d": 68,
      "v": 33
    },
    {
      "midi": 56,
      "hit": false,
      "t": 358088,
      "d": 188,
      "v": 28
    },
    {
      "midi": 62,
      "hit": false,
      "t": 358168,
      "d": 144,
      "v": 61
    },
    {
      "midi": 72,
      "hit": false,
      "t": 358176,
      "d": 192,
      "v": 62
    },
    {
      "midi": 68,
      "hit": false,
      "t": 358180,
      "d": 124,
      "v": 34
    },
    {
      "midi": 60,
      "hit": false,
      "t": 358184,
      "d": 176,
      "v": 72
    },
    {
      "midi": 64,
      "hit": false,
      "t": 358188,
      "d": 32,
      "v": 44
    },
    {
      "midi": 58,
      "hit": false,
      "t": 358468,
      "d": 200,
      "v": 60
    },
    {
      "midi": 70,
      "hit": false,
      "t": 358476,
      "d": 68,
      "v": 62
    },
    {
      "midi": 68,
      "hit": false,
      "t": 358480,
      "d": 84,
      "v": 60
    },
    {
      "midi": 66,
      "hit": false,
      "t": 358480,
      "d": 92,
      "v": 64
    },
    {
      "midi": 64,
      "hit": false,
      "t": 358488,
      "d": 76,
      "v": 65
    },
    {
      "midi": 56,
      "hit": false,
      "t": 358668,
      "d": 236,
      "v": 44
    },
    {
      "midi": 68,
      "hit": false,
      "t": 358676,
      "d": 80,
      "v": 49
    },
    {
      "midi": 63,
      "hit": false,
      "t": 358684,
      "d": 108,
      "v": 45
    },
    {
      "midi": 60,
      "hit": false,
      "t": 358700,
      "d": 64,
      "v": 34
    },
    {
      "midi": 67,
      "hit": false,
      "t": 358944,
      "d": 108,
      "v": 54
    },
    {
      "midi": 63,
      "hit": false,
      "t": 358948,
      "d": 120,
      "v": 62
    },
    {
      "midi": 55,
      "hit": false,
      "t": 358952,
      "d": 152,
      "v": 65
    },
    {
      "midi": 59,
      "hit": false,
      "t": 358960,
      "d": 72,
      "v": 60
    },
    {
      "midi": 59,
      "hit": false,
      "t": 359172,
      "d": 596,
      "v": 40
    },
    {
      "midi": 53,
      "hit": false,
      "t": 359176,
      "d": 604,
      "v": 36
    },
    {
      "midi": 65,
      "hit": false,
      "t": 359176,
      "d": 604,
      "v": 55
    },
    {
      "midi": 63,
      "hit": false,
      "t": 359176,
      "d": 608,
      "v": 35
    },
    {
      "midi": 65,
      "hit": false,
      "t": 359880,
      "d": 492,
      "v": 50
    },
    {
      "midi": 59,
      "hit": false,
      "t": 359884,
      "d": 368,
      "v": 50
    },
    {
      "midi": 63,
      "hit": false,
      "t": 359888,
      "d": 424,
      "v": 39
    },
    {
      "midi": 53,
      "hit": false,
      "t": 359908,
      "d": 392,
      "v": 48
    },
    {
      "midi": 75,
      "hit": false,
      "t": 360824,
      "d": 152,
      "v": 82
    },
    {
      "midi": 61,
      "hit": false,
      "t": 360828,
      "d": 104,
      "v": 74
    },
    {
      "midi": 79,
      "hit": false,
      "t": 360828,
      "d": 144,
      "v": 76
    },
    {
      "midi": 58,
      "hit": false,
      "t": 360828,
      "d": 172,
      "v": 69
    },
    {
      "midi": 67,
      "hit": false,
      "t": 360832,
      "d": 112,
      "v": 90
    },
    {
      "midi": 53,
      "hit": false,
      "t": 360836,
      "d": 120,
      "v": 69
    },
    {
      "midi": 55,
      "hit": false,
      "t": 360840,
      "d": 32,
      "v": 64
    },
    {
      "midi": 55,
      "hit": false,
      "t": 360908,
      "d": 40,
      "v": 18
    },
    {
      "midi": 53,
      "hit": false,
      "t": 361304,
      "d": 68,
      "v": 60
    },
    {
      "midi": 68,
      "hit": false,
      "t": 361308,
      "d": 52,
      "v": 72
    },
    {
      "midi": 61,
      "hit": false,
      "t": 361308,
      "d": 60,
      "v": 61
    },
    {
      "midi": 80,
      "hit": false,
      "t": 361308,
      "d": 60,
      "v": 62
    },
    {
      "midi": 58,
      "hit": false,
      "t": 361312,
      "d": 96,
      "v": 50
    },
    {
      "midi": 75,
      "hit": false,
      "t": 361320,
      "d": 28,
      "v": 55
    },
    {
      "midi": 55,
      "hit": false,
      "t": 361328,
      "d": 36,
      "v": 37
    },
    {
      "midi": 61,
      "hit": false,
      "t": 361472,
      "d": 56,
      "v": 58
    },
    {
      "midi": 70,
      "hit": false,
      "t": 361488,
      "d": 40,
      "v": 60
    },
    {
      "midi": 82,
      "hit": false,
      "t": 361488,
      "d": 56,
      "v": 67
    },
    {
      "midi": 58,
      "hit": false,
      "t": 361496,
      "d": 48,
      "v": 30
    },
    {
      "midi": 53,
      "hit": false,
      "t": 361504,
      "d": 32,
      "v": 27
    },
    {
      "midi": 58,
      "hit": false,
      "t": 361780,
      "d": 64,
      "v": 70
    },
    {
      "midi": 84,
      "hit": false,
      "t": 361784,
      "d": 40,
      "v": 70
    },
    {
      "midi": 72,
      "hit": false,
      "t": 361788,
      "d": 36,
      "v": 74
    },
    {
      "midi": 63,
      "hit": false,
      "t": 361944,
      "d": 48,
      "v": 77
    },
    {
      "midi": 73,
      "hit": false,
      "t": 361944,
      "d": 68,
      "v": 54
    },
    {
      "midi": 58,
      "hit": false,
      "t": 361944,
      "d": 72,
      "v": 67
    },
    {
      "midi": 85,
      "hit": false,
      "t": 361952,
      "d": 68,
      "v": 74
    },
    {
      "midi": 52,
      "hit": false,
      "t": 361960,
      "d": 28,
      "v": 55
    },
    {
      "midi": 72,
      "hit": false,
      "t": 362088,
      "d": 32,
      "v": 58
    },
    {
      "midi": 84,
      "hit": false,
      "t": 362092,
      "d": 28,
      "v": 58
    },
    {
      "midi": 87,
      "hit": false,
      "t": 362260,
      "d": 216,
      "v": 90
    },
    {
      "midi": 63,
      "hit": false,
      "t": 362264,
      "d": 220,
      "v": 85
    },
    {
      "midi": 75,
      "hit": false,
      "t": 362264,
      "d": 232,
      "v": 82
    },
    {
      "midi": 58,
      "hit": false,
      "t": 362268,
      "d": 244,
      "v": 76
    },
    {
      "midi": 52,
      "hit": false,
      "t": 362272,
      "d": 208,
      "v": 84
    },
    {
      "midi": 88,
      "hit": false,
      "t": 362308,
      "d": 24,
      "v": 24
    },
    {
      "midi": 85,
      "hit": false,
      "t": 362580,
      "d": 212,
      "v": 65
    },
    {
      "midi": 63,
      "hit": false,
      "t": 362580,
      "d": 216,
      "v": 68
    },
    {
      "midi": 52,
      "hit": false,
      "t": 362584,
      "d": 152,
      "v": 63
    },
    {
      "midi": 58,
      "hit": false,
      "t": 362584,
      "d": 196,
      "v": 64
    },
    {
      "midi": 73,
      "hit": false,
      "t": 362588,
      "d": 276,
      "v": 46
    },
    {
      "midi": 84,
      "hit": false,
      "t": 362928,
      "d": 120,
      "v": 58
    },
    {
      "midi": 53,
      "hit": false,
      "t": 362928,
      "d": 224,
      "v": 58
    },
    {
      "midi": 64,
      "hit": false,
      "t": 362936,
      "d": 136,
      "v": 60
    },
    {
      "midi": 60,
      "hit": false,
      "t": 362936,
      "d": 152,
      "v": 57
    },
    {
      "midi": 56,
      "hit": false,
      "t": 362940,
      "d": 196,
      "v": 45
    },
    {
      "midi": 72,
      "hit": false,
      "t": 362944,
      "d": 152,
      "v": 60
    },
    {
      "midi": 62,
      "hit": false,
      "t": 363396,
      "d": 288,
      "v": 70
    },
    {
      "midi": 52,
      "hit": false,
      "t": 363396,
      "d": 480,
      "v": 49
    },
    {
      "midi": 67,
      "hit": false,
      "t": 363400,
      "d": 424,
      "v": 56
    },
    {
      "midi": 61,
      "hit": false,
      "t": 363876,
      "d": 396,
      "v": 51
    },
    {
      "midi": 66,
      "hit": false,
      "t": 363880,
      "d": 344,
      "v": 46
    },
    {
      "midi": 51,
      "hit": false,
      "t": 363888,
      "d": 472,
      "v": 52
    },
    {
      "midi": 49,
      "hit": false,
      "t": 364256,
      "d": 112,
      "v": 23
    },
    {
      "midi": 50,
      "hit": false,
      "t": 364368,
      "d": 456,
      "v": 57
    },
    {
      "midi": 65,
      "hit": false,
      "t": 364380,
      "d": 232,
      "v": 61
    },
    {
      "midi": 60,
      "hit": false,
      "t": 364384,
      "d": 244,
      "v": 45
    },
    {
      "midi": 67,
      "hit": false,
      "t": 364864,
      "d": 196,
      "v": 38
    },
    {
      "midi": 63,
      "hit": false,
      "t": 364872,
      "d": 176,
      "v": 37
    },
    {
      "midi": 49,
      "hit": false,
      "t": 364872,
      "d": 772,
      "v": 46
    },
    {
      "midi": 59,
      "hit": false,
      "t": 364880,
      "d": 96,
      "v": 38
    },
    {
      "midi": 70,
      "hit": false,
      "t": 365344,
      "d": 244,
      "v": 78
    },
    {
      "midi": 58,
      "hit": false,
      "t": 365348,
      "d": 216,
      "v": 83
    },
    {
      "midi": 63,
      "hit": false,
      "t": 365348,
      "d": 296,
      "v": 81
    },
    {
      "midi": 67,
      "hit": false,
      "t": 365352,
      "d": 200,
      "v": 73
    },
    {
      "midi": 59,
      "hit": false,
      "t": 365356,
      "d": 256,
      "v": 84
    },
    {
      "midi": 68,
      "hit": false,
      "t": 365832,
      "d": 272,
      "v": 68
    },
    {
      "midi": 58,
      "hit": false,
      "t": 365840,
      "d": 272,
      "v": 67
    },
    {
      "midi": 64,
      "hit": false,
      "t": 365840,
      "d": 272,
      "v": 64
    },
    {
      "midi": 61,
      "hit": false,
      "t": 365844,
      "d": 312,
      "v": 57
    },
    {
      "midi": 48,
      "hit": false,
      "t": 365852,
      "d": 524,
      "v": 62
    },
    {
      "midi": 60,
      "hit": false,
      "t": 366344,
      "d": 88,
      "v": 125
    },
    {
      "midi": 60,
      "hit": false,
      "t": 366496,
      "d": 64,
      "v": 89
    },
    {
      "midi": 60,
      "hit": false,
      "t": 366624,
      "d": 68,
      "v": 88
    },
    {
      "midi": 60,
      "hit": false,
      "t": 366748,
      "d": 100,
      "v": 78
    },
    {
      "midi": 67,
      "hit": false,
      "t": 366912,
      "d": 588,
      "v": 76
    },
    {
      "midi": 60,
      "hit": false,
      "t": 366916,
      "d": 624,
      "v": 91
    },
    {
      "midi": 41,
      "hit": false,
      "t": 366920,
      "d": 484,
      "v": 70
    },
    {
      "midi": 56,
      "hit": false,
      "t": 366920,
      "d": 720,
      "v": 79
    },
    {
      "midi": 64,
      "hit": false,
      "t": 366928,
      "d": 920,
      "v": 68
    },
    {
      "midi": 48,
      "hit": false,
      "t": 367216,
      "d": 2168,
      "v": 66
    },
    {
      "midi": 55,
      "hit": false,
      "t": 367540,
      "d": 1768,
      "v": 87
    },
    {
      "midi": 46,
      "hit": false,
      "t": 367572,
      "d": 1792,
      "v": 20
    },
    {
      "midi": 56,
      "hit": false,
      "t": 367804,
      "d": 124,
      "v": 74
    },
    {
      "midi": 60,
      "hit": false,
      "t": 367960,
      "d": 136,
      "v": 80
    },
    {
      "midi": 67,
      "hit": false,
      "t": 368108,
      "d": 68,
      "v": 75
    },
    {
      "midi": 72,
      "hit": false,
      "t": 368272,
      "d": 96,
      "v": 80
    },
    {
      "midi": 76,
      "hit": false,
      "t": 368436,
      "d": 128,
      "v": 90
    },
    {
      "midi": 77,
      "hit": false,
      "t": 368636,
      "d": 144,
      "v": 91
    },
    {
      "midi": 79,
      "hit": false,
      "t": 368860,
      "d": 132,
      "v": 94
    },
    {
      "midi": 72,
      "hit": false,
      "t": 369108,
      "d": 164,
      "v": 96
    },
    {
      "midi": 72,
      "hit": false,
      "t": 369356,
      "d": 124,
      "v": 88
    },
    {
      "midi": 72,
      "hit": false,
      "t": 369588,
      "d": 112,
      "v": 91
    },
    {
      "midi": 72,
      "hit": false,
      "t": 369804,
      "d": 132,
      "v": 76
    },
    {
      "midi": 79,
      "hit": false,
      "t": 370088,
      "d": 176,
      "v": 80
    },
    {
      "midi": 22,
      "hit": false,
      "t": 370088,
      "d": 180,
      "v": 72
    },
    {
      "midi": 34,
      "hit": false,
      "t": 370088,
      "d": 208,
      "v": 83
    },
    {
      "midi": 76,
      "hit": false,
      "t": 370092,
      "d": 188,
      "v": 68
    },
    {
      "midi": 72,
      "hit": false,
      "t": 370092,
      "d": 196,
      "v": 85
    },
    {
      "midi": 68,
      "hit": false,
      "t": 370092,
      "d": 236,
      "v": 84
    },
    {
      "midi": 64,
      "hit": false,
      "t": 370564,
      "d": 256,
      "v": 77
    },
    {
      "midi": 46,
      "hit": false,
      "t": 370564,
      "d": 268,
      "v": 62
    },
    {
      "midi": 60,
      "hit": false,
      "t": 370576,
      "d": 224,
      "v": 72
    },
    {
      "midi": 56,
      "hit": false,
      "t": 370820,
      "d": 40,
      "v": 53
    },
    {
      "midi": 67,
      "hit": false,
      "t": 370824,
      "d": 60,
      "v": 68
    },
    {
      "midi": 72,
      "hit": false,
      "t": 371064,
      "d": 136,
      "v": 49
    },
    {
      "midi": 79,
      "hit": false,
      "t": 371064,
      "d": 172,
      "v": 55
    },
    {
      "midi": 62,
      "hit": false,
      "t": 371084,
      "d": 504,
      "v": 51
    },
    {
      "midi": 67,
      "hit": false,
      "t": 371352,
      "d": 844,
      "v": 49
    },
    {
      "midi": 84,
      "hit": false,
      "t": 371364,
      "d": 212,
      "v": 72
    },
    {
      "midi": 91,
      "hit": false,
      "t": 371376,
      "d": 212,
      "v": 74
    },
    {
      "midi": 79,
      "hit": false,
      "t": 371624,
      "d": 64,
      "v": 59
    },
    {
      "midi": 88,
      "hit": false,
      "t": 371652,
      "d": 68,
      "v": 57
    },
    {
      "midi": 62,
      "hit": false,
      "t": 371656,
      "d": 572,
      "v": 58
    },
    {
      "midi": 96,
      "hit": false,
      "t": 371920,
      "d": 216,
      "v": 74
    },
    {
      "midi": 105,
      "hit": false,
      "t": 371936,
      "d": 36,
      "v": 44
    },
    {
      "midi": 103,
      "hit": false,
      "t": 371936,
      "d": 204,
      "v": 49
    },
    {
      "midi": 56,
      "hit": false,
      "t": 372188,
      "d": 116,
      "v": 49
    },
    {
      "midi": 91,
      "hit": false,
      "t": 372188,
      "d": 132,
      "v": 47
    },
    {
      "midi": 100,
      "hit": false,
      "t": 372196,
      "d": 260,
      "v": 52
    },
    {
      "midi": 46,
      "hit": false,
      "t": 372512,
      "d": 104,
      "v": 51
    },
    {
      "midi": 96,
      "hit": false,
      "t": 372528,
      "d": 192,
      "v": 60
    },
    {
      "midi": 103,
      "hit": false,
      "t": 372536,
      "d": 260,
      "v": 53
    },
    {
      "midi": 46,
      "hit": false,
      "t": 372848,
      "d": 80,
      "v": 50
    },
    {
      "midi": 91,
      "hit": false,
      "t": 372856,
      "d": 100,
      "v": 37
    },
    {
      "midi": 100,
      "hit": false,
      "t": 372856,
      "d": 156,
      "v": 43
    },
    {
      "midi": 103,
      "hit": false,
      "t": 373240,
      "d": 276,
      "v": 58
    },
    {
      "midi": 34,
      "hit": false,
      "t": 373240,
      "d": 2648,
      "v": 50
    },
    {
      "midi": 91,
      "hit": false,
      "t": 373244,
      "d": 328,
      "v": 46
    },
    {
      "midi": 96,
      "hit": false,
      "t": 373252,
      "d": 256,
      "v": 54
    },
    {
      "midi": 100,
      "hit": false,
      "t": 373256,
      "d": 280,
      "v": 49
    },
    {
      "midi": 22,
      "hit": false,
      "t": 373736,
      "d": 2132,
      "v": 44
    }
  ]
}