{
  "jsonPath": "Rock/Album Rock/Chicago/explain-it-to-my-heart.json",
  "path": "Rock\\Album Rock\\Chicago\\Explain It To My Heart.mid",
  "name": "Explain It To My Heart",
  "difficulty": "Advanced",
  "bpm": 132.000132000132,
  "notes": [
    {
      "midi": 65,
      "hit": false,
      "t": 64299.178124999984,
      "d": 217.80281249999825,
      "v": 57
    },
    {
      "midi": 68,
      "hit": false,
      "t": 64526.45062499998,
      "d": 416.66625000000204,
      "v": 81
    },
    {
      "midi": 77,
      "hit": false,
      "t": 64753.72312499998,
      "d": 2869.3153125000026,
      "v": 68
    },
    {
      "midi": 73,
      "hit": false,
      "t": 64980.99562499999,
      "d": 2613.633750000001,
      "v": 70
    },
    {
      "midi": 68,
      "hit": false,
      "t": 65435.54062499999,
      "d": 2121.209999999999,
      "v": 65
    },
    {
      "midi": 63,
      "hit": false,
      "t": 65890.08562499999,
      "d": 2007.573749999996,
      "v": 51
    },
    {
      "midi": 60,
      "hit": false,
      "t": 68617.355625,
      "d": 369.3178124999977,
      "v": 68
    },
    {
      "midi": 65,
      "hit": false,
      "t": 68617.355625,
      "d": 416.66624999999476,
      "v": 70
    },
    {
      "midi": 60,
      "hit": false,
      "t": 69071.900625,
      "d": 445.07531250000466,
      "v": 65
    },
    {
      "midi": 63,
      "hit": false,
      "t": 69071.900625,
      "d": 464.01468749999185,
      "v": 78
    },
    {
      "midi": 65,
      "hit": false,
      "t": 69526.445625,
      "d": 511.36312499998894,
      "v": 40
    },
    {
      "midi": 68,
      "hit": false,
      "t": 69526.445625,
      "d": 1032.195937499986,
      "v": 63
    },
    {
      "midi": 73,
      "hit": false,
      "t": 69526.445625,
      "d": 1164.7715624999837,
      "v": 56
    },
    {
      "midi": 58,
      "hit": false,
      "t": 69526.445625,
      "d": 3011.360624999972,
      "v": 61
    },
    {
      "midi": 65,
      "hit": false,
      "t": 70662.80812499998,
      "d": 2054.9221874999785,
      "v": 41
    },
    {
      "midi": 68,
      "hit": false,
      "t": 70890.08062499997,
      "d": 1657.1953124999854,
      "v": 37
    },
    {
      "midi": 73,
      "hit": false,
      "t": 71344.62562499997,
      "d": 1382.574374999982,
      "v": 37
    },
    {
      "midi": 68,
      "hit": false,
      "t": 73162.80562499996,
      "d": 1619.3165624999965,
      "v": 38
    },
    {
      "midi": 73,
      "hit": false,
      "t": 73162.80562499996,
      "d": 1628.78624999999,
      "v": 56
    },
    {
      "midi": 65,
      "hit": false,
      "t": 73162.80562499996,
      "d": 1695.074062499989,
      "v": 58
    },
    {
      "midi": 61,
      "hit": false,
      "t": 75208.25812499995,
      "d": 66.28781249999884,
      "v": 47
    },
    {
      "midi": 68,
      "hit": false,
      "t": 75435.53062499994,
      "d": 454.5450000000128,
      "v": 47
    },
    {
      "midi": 73,
      "hit": false,
      "t": 75662.80312499995,
      "d": 227.2725000000064,
      "v": 46
    },
    {
      "midi": 56,
      "hit": false,
      "t": 75890.07562499995,
      "d": 359.8481250000041,
      "v": 68
    },
    {
      "midi": 61,
      "hit": false,
      "t": 75890.07562499995,
      "d": 359.8481250000041,
      "v": 56
    },
    {
      "midi": 65,
      "hit": false,
      "t": 75890.07562499995,
      "d": 359.8481250000041,
      "v": 53
    },
    {
      "midi": 66,
      "hit": false,
      "t": 76344.62062499995,
      "d": 1070.074687500004,
      "v": 58
    },
    {
      "midi": 70,
      "hit": false,
      "t": 76344.62062499995,
      "d": 1098.4837499999994,
      "v": 58
    },
    {
      "midi": 75,
      "hit": false,
      "t": 76344.62062499995,
      "d": 1448.8621874999953,
      "v": 65
    },
    {
      "midi": 61,
      "hit": false,
      "t": 76344.62062499995,
      "d": 1818.179999999993,
      "v": 61
    },
    {
      "midi": 66,
      "hit": false,
      "t": 78390.07312499995,
      "d": 681.8175000000047,
      "v": 46
    },
    {
      "midi": 70,
      "hit": false,
      "t": 78844.61812499995,
      "d": 520.8328125000116,
      "v": 55
    },
    {
      "midi": 75,
      "hit": false,
      "t": 79299.16312499996,
      "d": 539.7721874999988,
      "v": 63
    },
    {
      "midi": 56,
      "hit": false,
      "t": 79753.70812499996,
      "d": 473.484375,
      "v": 60
    },
    {
      "midi": 60,
      "hit": false,
      "t": 79753.70812499996,
      "d": 473.484375,
      "v": 60
    },
    {
      "midi": 65,
      "hit": false,
      "t": 79753.70812499996,
      "d": 482.9540624999936,
      "v": 78
    },
    {
      "midi": 63,
      "hit": false,
      "t": 79753.70812499996,
      "d": 501.89343749999534,
      "v": 54
    },
    {
      "midi": 68,
      "hit": false,
      "t": 80435.52562499995,
      "d": 530.3025000000052,
      "v": 60
    },
    {
      "midi": 75,
      "hit": false,
      "t": 80435.52562499995,
      "d": 748.1053125000035,
      "v": 58
    },
    {
      "midi": 73,
      "hit": false,
      "t": 80435.52562499995,
      "d": 785.984062500007,
      "v": 50
    },
    {
      "midi": 61,
      "hit": false,
      "t": 80435.52562499995,
      "d": 2528.4065625000076,
      "v": 70
    },
    {
      "midi": 68,
      "hit": false,
      "t": 81571.88812499995,
      "d": 1126.8928125000093,
      "v": 38
    },
    {
      "midi": 73,
      "hit": false,
      "t": 81799.16062499996,
      "d": 946.96875,
      "v": 42
    },
    {
      "midi": 80,
      "hit": false,
      "t": 82026.43312499997,
      "d": 719.6962499999936,
      "v": 49
    },
    {
      "midi": 75,
      "hit": false,
      "t": 83162.79562499996,
      "d": 227.2725000000064,
      "v": 64
    },
    {
      "midi": 61,
      "hit": false,
      "t": 84071.88562499997,
      "d": 2547.3459374999948,
      "v": 51
    },
    {
      "midi": 70,
      "hit": false,
      "t": 84071.88562499997,
      "d": 2793.5578124999884,
      "v": 51
    },
    {
      "midi": 68,
      "hit": false,
      "t": 84071.88562499997,
      "d": 2803.027499999982,
      "v": 51
    },
    {
      "midi": 73,
      "hit": false,
      "t": 84071.88562499997,
      "d": 3124.9968749999825,
      "v": 51
    },
    {
      "midi": 77,
      "hit": false,
      "t": 84071.88562499997,
      "d": 3323.860312499979,
      "v": 51
    },
    {
      "midi": 61,
      "hit": false,
      "t": 86799.15562499996,
      "d": 321.96937499998603,
      "v": 55
    },
    {
      "midi": 53,
      "hit": false,
      "t": 87708.24562499994,
      "d": 2367.421875,
      "v": 65
    },
    {
      "midi": 65,
      "hit": false,
      "t": 88162.79062499994,
      "d": 426.1359375000029,
      "v": 59
    },
    {
      "midi": 70,
      "hit": false,
      "t": 88390.06312499994,
      "d": 568.1812499999942,
      "v": 65
    },
    {
      "midi": 72,
      "hit": false,
      "t": 88844.60812499994,
      "d": 1581.437812499993,
      "v": 66
    },
    {
      "midi": 53,
      "hit": false,
      "t": 90435.51562499993,
      "d": 681.8175000000047,
      "v": 77
    },
    {
      "midi": 65,
      "hit": false,
      "t": 90662.78812499993,
      "d": 369.3178124999977,
      "v": 77
    },
    {
      "midi": 70,
      "hit": false,
      "t": 90890.06062499994,
      "d": 113.63624999999593,
      "v": 73
    },
    {
      "midi": 69,
      "hit": false,
      "t": 91344.60562499994,
      "d": 1325.7562500000058,
      "v": 64
    },
    {
      "midi": 72,
      "hit": false,
      "t": 91344.60562499994,
      "d": 1382.574375000011,
      "v": 62
    },
    {
      "midi": 53,
      "hit": false,
      "t": 92935.51312499995,
      "d": 653.4084374999948,
      "v": 102
    },
    {
      "midi": 57,
      "hit": false,
      "t": 93162.78562499996,
      "d": 179.92406249999476,
      "v": 95
    },
    {
      "midi": 61,
      "hit": false,
      "t": 93390.05812499995,
      "d": 208.3331249999901,
      "v": 89
    },
    {
      "midi": 57,
      "hit": false,
      "t": 93390.05812499995,
      "d": 426.13593749998836,
      "v": 62
    },
    {
      "midi": 53,
      "hit": false,
      "t": 94071.87562499994,
      "d": 729.1659375000017,
      "v": 81
    },
    {
      "midi": 57,
      "hit": false,
      "t": 94071.87562499994,
      "d": 729.1659375000017,
      "v": 89
    },
    {
      "midi": 63,
      "hit": false,
      "t": 94071.87562499994,
      "d": 738.6356249999953,
      "v": 102
    },
    {
      "midi": 49,
      "hit": false,
      "t": 94980.96562499994,
      "d": 3058.7090624999983,
      "v": 72
    },
    {
      "midi": 61,
      "hit": false,
      "t": 94980.96562499994,
      "d": 3068.178749999992,
      "v": 66
    },
    {
      "midi": 58,
      "hit": false,
      "t": 94980.96562499994,
      "d": 3115.527187499989,
      "v": 77
    },
    {
      "midi": 65,
      "hit": false,
      "t": 94980.96562499994,
      "d": 3124.9968749999825,
      "v": 71
    },
    {
      "midi": 56,
      "hit": false,
      "t": 98617.32562499992,
      "d": 615.5296874999913,
      "v": 65
    },
    {
      "midi": 60,
      "hit": false,
      "t": 98617.32562499992,
      "d": 691.2871874999983,
      "v": 65
    },
    {
      "midi": 63,
      "hit": false,
      "t": 98617.32562499992,
      "d": 748.1053125000035,
      "v": 69
    },
    {
      "midi": 53,
      "hit": false,
      "t": 98617.32562499992,
      "d": 757.5749999999971,
      "v": 64
    },
    {
      "midi": 53,
      "hit": false,
      "t": 99526.41562499992,
      "d": 748.1053125000035,
      "v": 55
    },
    {
      "midi": 68,
      "hit": false,
      "t": 99753.68812499993,
      "d": 445.07531250000466,
      "v": 57
    },
    {
      "midi": 72,
      "hit": false,
      "t": 99980.96062499993,
      "d": 293.5603124999907,
      "v": 64
    },
    {
      "midi": 80,
      "hit": false,
      "t": 100208.23312499993,
      "d": 113.63624999999593,
      "v": 79
    },
    {
      "midi": 61,
      "hit": false,
      "t": 101117.32312499992,
      "d": 662.8781250000029,
      "v": 91
    },
    {
      "midi": 60,
      "hit": false,
      "t": 101799.14062499993,
      "d": 464.01468749999185,
      "v": 94
    },
    {
      "midi": 54,
      "hit": false,
      "t": 102253.68562499993,
      "d": 1751.8921874999942,
      "v": 67
    },
    {
      "midi": 66,
      "hit": false,
      "t": 102253.68562499993,
      "d": 1808.7103124999994,
      "v": 64
    },
    {
      "midi": 58,
      "hit": false,
      "t": 102253.68562499993,
      "d": 1818.179999999993,
      "v": 86
    },
    {
      "midi": 61,
      "hit": false,
      "t": 102253.68562499993,
      "d": 1818.179999999993,
      "v": 71
    },
    {
      "midi": 58,
      "hit": false,
      "t": 104071.86562499992,
      "d": 606.0599999999977,
      "v": 102
    },
    {
      "midi": 54,
      "hit": false,
      "t": 104071.86562499992,
      "d": 672.3478124999965,
      "v": 61
    },
    {
      "midi": 60,
      "hit": false,
      "t": 104753.68312499991,
      "d": 672.3478124999965,
      "v": 109
    },
    {
      "midi": 61,
      "hit": false,
      "t": 105435.5006249999,
      "d": 454.54499999999825,
      "v": 109
    },
    {
      "midi": 49,
      "hit": false,
      "t": 105890.0456249999,
      "d": 833.3325000000041,
      "v": 73
    },
    {
      "midi": 65,
      "hit": false,
      "t": 105890.0456249999,
      "d": 1051.1353125000023,
      "v": 65
    },
    {
      "midi": 56,
      "hit": false,
      "t": 105890.0456249999,
      "d": 1060.604999999996,
      "v": 62
    },
    {
      "midi": 61,
      "hit": false,
      "t": 105890.0456249999,
      "d": 1070.0746874999895,
      "v": 65
    },
    {
      "midi": 56,
      "hit": false,
      "t": 107026.40812499989,
      "d": 85.22718750000058,
      "v": 58
    },
    {
      "midi": 65,
      "hit": false,
      "t": 107026.40812499989,
      "d": 217.80281249999825,
      "v": 79
    },
    {
      "midi": 56,
      "hit": false,
      "t": 107253.68062499988,
      "d": 85.22718750000058,
      "v": 42
    },
    {
      "midi": 63,
      "hit": false,
      "t": 107253.68062499988,
      "d": 160.98468750000757,
      "v": 68
    },
    {
      "midi": 61,
      "hit": false,
      "t": 107708.22562499989,
      "d": 539.7721874999988,
      "v": 89
    },
    {
      "midi": 49,
      "hit": false,
      "t": 108162.77062499989,
      "d": 653.4084375000093,
      "v": 66
    },
    {
      "midi": 56,
      "hit": false,
      "t": 108390.0431249999,
      "d": 435.6056249999965,
      "v": 66
    },
    {
      "midi": 51,
      "hit": false,
      "t": 109526.4056249999,
      "d": 473.484375,
      "v": 71
    },
    {
      "midi": 54,
      "hit": false,
      "t": 109526.4056249999,
      "d": 520.8328124999971,
      "v": 66
    },
    {
      "midi": 58,
      "hit": false,
      "t": 109526.4056249999,
      "d": 587.1206249999959,
      "v": 76
    },
    {
      "midi": 61,
      "hit": false,
      "t": 109526.4056249999,
      "d": 672.3478124999965,
      "v": 68
    },
    {
      "midi": 58,
      "hit": false,
      "t": 110890.04062499989,
      "d": 274.6209375000035,
      "v": 58
    },
    {
      "midi": 61,
      "hit": false,
      "t": 111571.8581249999,
      "d": 113.63624999999593,
      "v": 73
    },
    {
      "midi": 66,
      "hit": false,
      "t": 111799.13062499989,
      "d": 142.04531250000582,
      "v": 75
    },
    {
      "midi": 66,
      "hit": false,
      "t": 112026.4031249999,
      "d": 539.7721874999988,
      "v": 69
    },
    {
      "midi": 58,
      "hit": false,
      "t": 112253.6756249999,
      "d": 217.80281249999825,
      "v": 67
    },
    {
      "midi": 60,
      "hit": false,
      "t": 113162.7656249999,
      "d": 984.8475000000035,
      "v": 58
    },
    {
      "midi": 57,
      "hit": false,
      "t": 113162.7656249999,
      "d": 1013.2565624999988,
      "v": 64
    },
    {
      "midi": 65,
      "hit": false,
      "t": 113162.7656249999,
      "d": 1183.7109375,
      "v": 72
    },
    {
      "midi": 41,
      "hit": false,
      "t": 113162.7656249999,
      "d": 1515.1499999999796,
      "v": 75
    },
    {
      "midi": 53,
      "hit": false,
      "t": 114299.1281249999,
      "d": 274.62093749998894,
      "v": 71
    },
    {
      "midi": 57,
      "hit": false,
      "t": 114526.4006249999,
      "d": 142.04531249999127,
      "v": 69
    },
    {
      "midi": 57,
      "hit": false,
      "t": 114753.67312499988,
      "d": 170.45437500000116,
      "v": 72
    },
    {
      "midi": 60,
      "hit": false,
      "t": 114753.67312499988,
      "d": 407.19656250000116,
      "v": 70
    },
    {
      "midi": 53,
      "hit": false,
      "t": 115435.49062499989,
      "d": 388.2571874999994,
      "v": 55
    },
    {
      "midi": 57,
      "hit": false,
      "t": 115890.03562499989,
      "d": 142.04531250000582,
      "v": 71
    },
    {
      "midi": 49,
      "hit": false,
      "t": 116799.1256249999,
      "d": 3058.7090624999983,
      "v": 72
    },
    {
      "midi": 61,
      "hit": false,
      "t": 116799.1256249999,
      "d": 3068.178749999992,
      "v": 66
    },
    {
      "midi": 58,
      "hit": false,
      "t": 116799.1256249999,
      "d": 3115.527187499989,
      "v": 77
    },
    {
      "midi": 65,
      "hit": false,
      "t": 116799.1256249999,
      "d": 3124.9968749999825,
      "v": 71
    },
    {
      "midi": 56,
      "hit": false,
      "t": 120435.48562499988,
      "d": 615.5296874999913,
      "v": 65
    },
    {
      "midi": 60,
      "hit": false,
      "t": 120435.48562499988,
      "d": 691.2871874999983,
      "v": 65
    },
    {
      "midi": 63,
      "hit": false,
      "t": 120435.48562499988,
      "d": 748.1053125000035,
      "v": 69
    },
    {
      "midi": 53,
      "hit": false,
      "t": 120435.48562499988,
      "d": 767.0446875000052,
      "v": 64
    },
    {
      "midi": 53,
      "hit": false,
      "t": 121344.5756249999,
      "d": 748.1053125000035,
      "v": 55
    },
    {
      "midi": 68,
      "hit": false,
      "t": 121571.8481249999,
      "d": 445.07531250000466,
      "v": 57
    },
    {
      "midi": 72,
      "hit": false,
      "t": 121799.12062499991,
      "d": 293.5603124999907,
      "v": 64
    },
    {
      "midi": 80,
      "hit": false,
      "t": 122026.3931249999,
      "d": 113.63624999999593,
      "v": 79
    },
    {
      "midi": 72,
      "hit": false,
      "t": 122253.66562499989,
      "d": 662.8781250000029,
      "v": 115
    },
    {
      "midi": 70,
      "hit": false,
      "t": 122935.4831249999,
      "d": 681.8175000000047,
      "v": 109
    },
    {
      "midi": 68,
      "hit": false,
      "t": 123617.3006249999,
      "d": 435.6056249999965,
      "v": 112
    },
    {
      "midi": 54,
      "hit": false,
      "t": 124071.84562499989,
      "d": 1751.8921875000087,
      "v": 67
    },
    {
      "midi": 65,
      "hit": false,
      "t": 124071.84562499989,
      "d": 1808.710312500014,
      "v": 83
    },
    {
      "midi": 58,
      "hit": false,
      "t": 124071.84562499989,
      "d": 1818.1800000000076,
      "v": 68
    },
    {
      "midi": 61,
      "hit": false,
      "t": 124071.84562499989,
      "d": 1818.1800000000076,
      "v": 71
    },
    {
      "midi": 58,
      "hit": false,
      "t": 125890.0256249999,
      "d": 653.4084374999948,
      "v": 68
    },
    {
      "midi": 54,
      "hit": false,
      "t": 125890.0256249999,
      "d": 672.3478124999965,
      "v": 61
    },
    {
      "midi": 60,
      "hit": false,
      "t": 126571.84312499988,
      "d": 681.8175000000047,
      "v": 95
    },
    {
      "midi": 61,
      "hit": false,
      "t": 127708.20562499989,
      "d": 9.469687499993597,
      "v": 65
    },
    {
      "midi": 49,
      "hit": false,
      "t": 127708.20562499989,
      "d": 833.3324999999895,
      "v": 73
    },
    {
      "midi": 65,
      "hit": false,
      "t": 127708.20562499989,
      "d": 1041.6656249999942,
      "v": 65
    },
    {
      "midi": 56,
      "hit": false,
      "t": 127708.20562499989,
      "d": 1060.604999999996,
      "v": 62
    },
    {
      "midi": 56,
      "hit": false,
      "t": 128844.56812499989,
      "d": 85.22718750000058,
      "v": 51
    },
    {
      "midi": 65,
      "hit": false,
      "t": 128844.56812499989,
      "d": 217.80281249999825,
      "v": 79
    },
    {
      "midi": 56,
      "hit": false,
      "t": 129071.84062499988,
      "d": 85.22718750000058,
      "v": 42
    },
    {
      "midi": 63,
      "hit": false,
      "t": 129071.84062499988,
      "d": 160.98468750000757,
      "v": 68
    },
    {
      "midi": 61,
      "hit": false,
      "t": 129526.3856249999,
      "d": 596.5903125000041,
      "v": 86
    },
    {
      "midi": 49,
      "hit": false,
      "t": 129980.93062499989,
      "d": 653.4084375000093,
      "v": 66
    },
    {
      "midi": 56,
      "hit": false,
      "t": 130208.2031249999,
      "d": 435.6056249999965,
      "v": 66
    },
    {
      "midi": 51,
      "hit": false,
      "t": 131344.5656249999,
      "d": 473.484375,
      "v": 71
    },
    {
      "midi": 54,
      "hit": false,
      "t": 131344.5656249999,
      "d": 520.8328125000116,
      "v": 66
    },
    {
      "midi": 58,
      "hit": false,
      "t": 131344.5656249999,
      "d": 587.1206250000105,
      "v": 76
    },
    {
      "midi": 61,
      "hit": false,
      "t": 131344.5656249999,
      "d": 672.3478124999965,
      "v": 68
    },
    {
      "midi": 58,
      "hit": false,
      "t": 132708.2006249999,
      "d": 274.6209375000035,
      "v": 58
    },
    {
      "midi": 61,
      "hit": false,
      "t": 133390.01812499992,
      "d": 113.63625000001048,
      "v": 73
    },
    {
      "midi": 66,
      "hit": false,
      "t": 133617.29062499994,
      "d": 132.57562499999767,
      "v": 75
    },
    {
      "midi": 66,
      "hit": false,
      "t": 133844.56312499993,
      "d": 539.7721874999988,
      "v": 69
    },
    {
      "midi": 58,
      "hit": false,
      "t": 134071.83562499992,
      "d": 217.8028125000128,
      "v": 67
    },
    {
      "midi": 60,
      "hit": false,
      "t": 134980.92562499992,
      "d": 975.3778124999953,
      "v": 58
    },
    {
      "midi": 57,
      "hit": false,
      "t": 134980.92562499992,
      "d": 1013.2565624999988,
      "v": 64
    },
    {
      "midi": 65,
      "hit": false,
      "t": 134980.92562499992,
      "d": 1183.7109375,
      "v": 72
    },
    {
      "midi": 41,
      "hit": false,
      "t": 134980.92562499992,
      "d": 1524.6196875000023,
      "v": 75
    },
    {
      "midi": 53,
      "hit": false,
      "t": 136117.2881249999,
      "d": 274.6209375000326,
      "v": 71
    },
    {
      "midi": 57,
      "hit": false,
      "t": 136344.56062499993,
      "d": 142.04531250000582,
      "v": 69
    },
    {
      "midi": 57,
      "hit": false,
      "t": 136571.83312499992,
      "d": 170.45437500000116,
      "v": 72
    },
    {
      "midi": 60,
      "hit": false,
      "t": 136571.83312499992,
      "d": 407.19656250000116,
      "v": 70
    },
    {
      "midi": 53,
      "hit": false,
      "t": 137253.65062499992,
      "d": 388.25718750001397,
      "v": 55
    },
    {
      "midi": 57,
      "hit": false,
      "t": 137708.19562499993,
      "d": 142.04531250000582,
      "v": 71
    },
    {
      "midi": 61,
      "hit": false,
      "t": 138617.28562499993,
      "d": 748.1053125000035,
      "v": 68
    },
    {
      "midi": 58,
      "hit": false,
      "t": 138617.28562499993,
      "d": 785.984062500007,
      "v": 68
    },
    {
      "midi": 54,
      "hit": false,
      "t": 138617.28562499993,
      "d": 804.9234374999942,
      "v": 70
    },
    {
      "midi": 65,
      "hit": false,
      "t": 138617.28562499993,
      "d": 814.3931250000023,
      "v": 89
    },
    {
      "midi": 54,
      "hit": false,
      "t": 139980.92062499994,
      "d": 738.6356250000244,
      "v": 89
    },
    {
      "midi": 61,
      "hit": false,
      "t": 139980.92062499994,
      "d": 833.3325000000186,
      "v": 68
    },
    {
      "midi": 58,
      "hit": false,
      "t": 139980.92062499994,
      "d": 842.8021875000268,
      "v": 68
    },
    {
      "midi": 65,
      "hit": false,
      "t": 139980.92062499994,
      "d": 852.2718750000349,
      "v": 81
    },
    {
      "midi": 54,
      "hit": false,
      "t": 140890.01062499997,
      "d": 312.4996874999779,
      "v": 84
    },
    {
      "midi": 58,
      "hit": false,
      "t": 141117.28312499996,
      "d": 56.81812499999069,
      "v": 67
    },
    {
      "midi": 65,
      "hit": false,
      "t": 141117.28312499996,
      "d": 66.28781249999884,
      "v": 65
    },
    {
      "midi": 61,
      "hit": false,
      "t": 141117.28312499996,
      "d": 85.22718749998603,
      "v": 67
    },
    {
      "midi": 58,
      "hit": false,
      "t": 141571.82812499994,
      "d": 217.8028125000128,
      "v": 92
    },
    {
      "midi": 61,
      "hit": false,
      "t": 141571.82812499994,
      "d": 217.8028125000128,
      "v": 57
    },
    {
      "midi": 54,
      "hit": false,
      "t": 141571.82812499994,
      "d": 227.27250000002095,
      "v": 98
    },
    {
      "midi": 65,
      "hit": false,
      "t": 141571.82812499994,
      "d": 416.6662500000093,
      "v": 95
    },
    {
      "midi": 63,
      "hit": false,
      "t": 142253.64562499995,
      "d": 795.453749999986,
      "v": 67
    },
    {
      "midi": 56,
      "hit": false,
      "t": 142253.64562499995,
      "d": 804.9234374999942,
      "v": 81
    },
    {
      "midi": 60,
      "hit": false,
      "t": 142253.64562499995,
      "d": 804.9234374999942,
      "v": 92
    },
    {
      "midi": 65,
      "hit": false,
      "t": 142253.64562499995,
      "d": 804.9234374999942,
      "v": 76
    },
    {
      "midi": 63,
      "hit": false,
      "t": 143617.28062499993,
      "d": 2253.7856249999895,
      "v": 59
    },
    {
      "midi": 65,
      "hit": false,
      "t": 143617.28062499993,
      "d": 2263.2553124999977,
      "v": 72
    },
    {
      "midi": 60,
      "hit": false,
      "t": 143617.28062499993,
      "d": 2272.725000000006,
      "v": 84
    },
    {
      "midi": 56,
      "hit": false,
      "t": 143617.28062499993,
      "d": 2310.6037500000093,
      "v": 72
    },
    {
      "midi": 61,
      "hit": false,
      "t": 145890.00562499993,
      "d": 2272.725000000006,
      "v": 30
    },
    {
      "midi": 73,
      "hit": false,
      "t": 145890.00562499993,
      "d": 2518.936875000014,
      "v": 42
    },
    {
      "midi": 65,
      "hit": false,
      "t": 145890.00562499993,
      "d": 2537.876250000001,
      "v": 38
    },
    {
      "midi": 68,
      "hit": false,
      "t": 145890.00562499993,
      "d": 2537.876250000001,
      "v": 55
    },
    {
      "midi": 61,
      "hit": false,
      "t": 148617.27562499992,
      "d": 492.4237499999872,
      "v": 34
    },
    {
      "midi": 65,
      "hit": false,
      "t": 148844.5481249999,
      "d": 340.9087500000023,
      "v": 34
    },
    {
      "midi": 73,
      "hit": false,
      "t": 149071.8206249999,
      "d": 378.7875000000058,
      "v": 67
    },
    {
      "midi": 60,
      "hit": false,
      "t": 149526.36562499992,
      "d": 2007.5737500000105,
      "v": 18
    },
    {
      "midi": 65,
      "hit": false,
      "t": 149526.36562499992,
      "d": 2481.0581250000105,
      "v": 18
    },
    {
      "midi": 68,
      "hit": false,
      "t": 149526.36562499992,
      "d": 2518.936875000014,
      "v": 49
    },
    {
      "midi": 72,
      "hit": false,
      "t": 149526.36562499992,
      "d": 2850.375937500008,
      "v": 56
    },
    {
      "midi": 60,
      "hit": false,
      "t": 152253.63562499994,
      "d": 454.5449999999837,
      "v": 54
    },
    {
      "midi": 65,
      "hit": false,
      "t": 152708.18062499992,
      "d": 75.75750000000698,
      "v": 43
    },
    {
      "midi": 65,
      "hit": false,
      "t": 153162.72562499993,
      "d": 511.3631249999744,
      "v": 40
    },
    {
      "midi": 68,
      "hit": false,
      "t": 153162.72562499993,
      "d": 1032.195937499986,
      "v": 63
    },
    {
      "midi": 73,
      "hit": false,
      "t": 153162.72562499993,
      "d": 1155.3018749999756,
      "v": 56
    },
    {
      "midi": 58,
      "hit": false,
      "t": 153162.72562499993,
      "d": 3020.83031249998,
      "v": 61
    },
    {
      "midi": 65,
      "hit": false,
      "t": 154299.08812499992,
      "d": 2054.922187499993,
      "v": 56
    },
    {
      "midi": 68,
      "hit": false,
      "t": 154526.3606249999,
      "d": 1657.1953125,
      "v": 56
    },
    {
      "midi": 73,
      "hit": false,
      "t": 154980.90562499993,
      "d": 1382.5743749999965,
      "v": 56
    },
    {
      "midi": 68,
      "hit": false,
      "t": 156799.08562499992,
      "d": 1619.3165624999965,
      "v": 38
    },
    {
      "midi": 73,
      "hit": false,
      "t": 156799.08562499992,
      "d": 1628.7862500000047,
      "v": 56
    },
    {
      "midi": 65,
      "hit": false,
      "t": 156799.08562499992,
      "d": 1704.5437500000116,
      "v": 58
    },
    {
      "midi": 61,
      "hit": false,
      "t": 156799.08562499992,
      "d": 2159.0887500000244,
      "v": 56
    },
    {
      "midi": 66,
      "hit": false,
      "t": 159526.35562499994,
      "d": 454.5450000000128,
      "v": 56
    },
    {
      "midi": 54,
      "hit": false,
      "t": 159526.35562499994,
      "d": 482.95406250000815,
      "v": 56
    },
    {
      "midi": 61,
      "hit": false,
      "t": 159526.35562499994,
      "d": 492.4237500000163,
      "v": 55
    },
    {
      "midi": 70,
      "hit": false,
      "t": 159526.35562499994,
      "d": 511.3631250000035,
      "v": 48
    },
    {
      "midi": 73,
      "hit": false,
      "t": 159526.35562499994,
      "d": 539.7721874999988,
      "v": 64
    },
    {
      "midi": 78,
      "hit": false,
      "t": 159526.35562499994,
      "d": 568.1812499999942,
      "v": 58
    },
    {
      "midi": 68,
      "hit": false,
      "t": 160435.44562499993,
      "d": 378.7875000000058,
      "v": 41
    },
    {
      "midi": 61,
      "hit": false,
      "t": 160435.44562499993,
      "d": 549.241875000007,
      "v": 47
    },
    {
      "midi": 73,
      "hit": false,
      "t": 160435.44562499993,
      "d": 568.1812499999942,
      "v": 54
    },
    {
      "midi": 77,
      "hit": false,
      "t": 160435.44562499993,
      "d": 804.9234374999942,
      "v": 59
    },
    {
      "midi": 68,
      "hit": false,
      "t": 160889.99062499995,
      "d": 946.9687499999709,
      "v": 58
    },
    {
      "midi": 73,
      "hit": false,
      "t": 161117.26312499994,
      "d": 416.6662499999802,
      "v": 55
    },
    {
      "midi": 77,
      "hit": false,
      "t": 161799.08062499992,
      "d": 1401.5137499999837,
      "v": 58
    },
    {
      "midi": 61,
      "hit": false,
      "t": 162253.62562499993,
      "d": 928.0293749999837,
      "v": 41
    },
    {
      "midi": 68,
      "hit": false,
      "t": 163162.71562499992,
      "d": 520.8328124999825,
      "v": 63
    },
    {
      "midi": 73,
      "hit": false,
      "t": 163162.71562499992,
      "d": 520.8328124999825,
      "v": 63
    },
    {
      "midi": 80,
      "hit": false,
      "t": 163162.71562499992,
      "d": 795.453749999986,
      "v": 62
    },
    {
      "midi": 68,
      "hit": false,
      "t": 164071.8056249999,
      "d": 454.5450000000128,
      "v": 57
    },
    {
      "midi": 72,
      "hit": false,
      "t": 164071.8056249999,
      "d": 757.5750000000116,
      "v": 36
    },
    {
      "midi": 75,
      "hit": false,
      "t": 164071.8056249999,
      "d": 899.6203125000175,
      "v": 65
    },
    {
      "midi": 80,
      "hit": false,
      "t": 164071.8056249999,
      "d": 1060.6050000000396,
      "v": 58
    },
    {
      "midi": 60,
      "hit": false,
      "t": 164071.8056249999,
      "d": 1089.014062500035,
      "v": 61
    },
    {
      "midi": 68,
      "hit": false,
      "t": 164980.89562499992,
      "d": 1268.938124999986,
      "v": 48
    },
    {
      "midi": 72,
      "hit": false,
      "t": 165435.44062499993,
      "d": 1316.2865624999977,
      "v": 18
    },
    {
      "midi": 75,
      "hit": false,
      "t": 165662.71312499992,
      "d": 1079.5443749999977,
      "v": 61
    },
    {
      "midi": 60,
      "hit": false,
      "t": 165889.9856249999,
      "d": 407.19656250000116,
      "v": 9
    },
    {
      "midi": 60,
      "hit": false,
      "t": 166799.07562499994,
      "d": 284.09062499998254,
      "v": 56
    },
    {
      "midi": 72,
      "hit": false,
      "t": 167026.34812499993,
      "d": 198.8634374999965,
      "v": 61
    },
    {
      "midi": 68,
      "hit": false,
      "t": 167253.62062499992,
      "d": 160.98468749999302,
      "v": 67
    },
    {
      "midi": 73,
      "hit": false,
      "t": 167708.1656249999,
      "d": 530.3025000000198,
      "v": 57
    },
    {
      "midi": 77,
      "hit": false,
      "t": 167708.1656249999,
      "d": 1562.498437500035,
      "v": 60
    },
    {
      "midi": 58,
      "hit": false,
      "t": 167708.1656249999,
      "d": 2916.663750000036,
      "v": 56
    },
    {
      "midi": 70,
      "hit": false,
      "t": 168617.25562499993,
      "d": 530.3025000000198,
      "v": 57
    },
    {
      "midi": 65,
      "hit": false,
      "t": 169071.80062499995,
      "d": 757.5749999999825,
      "v": 44
    },
    {
      "midi": 70,
      "hit": false,
      "t": 169299.07312499994,
      "d": 511.3631250000035,
      "v": 62
    },
    {
      "midi": 77,
      "hit": false,
      "t": 169753.61812499995,
      "d": 918.5596875000047,
      "v": 64
    },
    {
      "midi": 65,
      "hit": false,
      "t": 170208.16312499993,
      "d": 454.5450000000128,
      "v": 37
    },
    {
      "midi": 73,
      "hit": false,
      "t": 170662.70812499995,
      "d": 227.27250000002095,
      "v": 23
    },
    {
      "midi": 61,
      "hit": false,
      "t": 171344.52562499998,
      "d": 1799.2406249999767,
      "v": 59
    },
    {
      "midi": 65,
      "hit": false,
      "t": 171799.07062499996,
      "d": 1032.195937499986,
      "v": 53
    },
    {
      "midi": 68,
      "hit": false,
      "t": 172253.61562499998,
      "d": 653.4084374999802,
      "v": 59
    },
    {
      "midi": 73,
      "hit": false,
      "t": 172480.88812499997,
      "d": 321.96937499998603,
      "v": 55
    },
    {
      "midi": 85,
      "hit": false,
      "t": 172708.16062499996,
      "d": 236.7421875,
      "v": 82
    },
    {
      "midi": 80,
      "hit": false,
      "t": 172935.43312499995,
      "d": 464.01468750002095,
      "v": 81
    },
    {
      "midi": 77,
      "hit": false,
      "t": 173389.97812499997,
      "d": 681.8175000000047,
      "v": 61
    },
    {
      "midi": 68,
      "hit": false,
      "t": 174071.79562499997,
      "d": 265.15124999999534,
      "v": 43
    },
    {
      "midi": 73,
      "hit": false,
      "t": 174071.79562499997,
      "d": 435.6056249999965,
      "v": 62
    },
    {
      "midi": 90,
      "hit": false,
      "t": 174980.88562499997,
      "d": 445.07531250000466,
      "v": 70
    },
    {
      "midi": 82,
      "hit": false,
      "t": 175208.15812499996,
      "d": 445.07531250003376,
      "v": 61
    },
    {
      "midi": 87,
      "hit": false,
      "t": 175435.43062499998,
      "d": 445.07531250003376,
      "v": 56
    },
    {
      "midi": 80,
      "hit": false,
      "t": 175662.703125,
      "d": 445.07531250003376,
      "v": 59
    },
    {
      "midi": 85,
      "hit": false,
      "t": 175889.97562500002,
      "d": 454.5450000000128,
      "v": 54
    },
    {
      "midi": 78,
      "hit": false,
      "t": 176117.24812500004,
      "d": 445.07531250000466,
      "v": 60
    },
    {
      "midi": 82,
      "hit": false,
      "t": 176344.52062500003,
      "d": 454.5450000000128,
      "v": 63
    },
    {
      "midi": 77,
      "hit": false,
      "t": 176571.79312500005,
      "d": 445.07531250000466,
      "v": 63
    },
    {
      "midi": 78,
      "hit": false,
      "t": 176799.06562500005,
      "d": 454.5450000000128,
      "v": 63
    },
    {
      "midi": 82,
      "hit": false,
      "t": 177026.33812500007,
      "d": 445.07531250000466,
      "v": 63
    },
    {
      "midi": 87,
      "hit": false,
      "t": 177253.61062500006,
      "d": 445.07531250003376,
      "v": 56
    },
    {
      "midi": 80,
      "hit": false,
      "t": 177480.88312500008,
      "d": 445.07531250003376,
      "v": 40
    },
    {
      "midi": 85,
      "hit": false,
      "t": 177708.1556250001,
      "d": 445.07531250003376,
      "v": 54
    },
    {
      "midi": 78,
      "hit": false,
      "t": 177935.42812500012,
      "d": 445.07531250003376,
      "v": 60
    },
    {
      "midi": 82,
      "hit": false,
      "t": 178162.70062500014,
      "d": 445.07531250003376,
      "v": 63
    },
    {
      "midi": 77,
      "hit": false,
      "t": 178389.97312500016,
      "d": 454.5450000000128,
      "v": 63
    },
    {
      "midi": 80,
      "hit": false,
      "t": 178617.24562500019,
      "d": 445.07531250000466,
      "v": 80
    },
    {
      "midi": 75,
      "hit": false,
      "t": 179071.7906250002,
      "d": 445.07531250000466,
      "v": 74
    },
    {
      "midi": 77,
      "hit": false,
      "t": 179299.0631250002,
      "d": 454.5450000000128,
      "v": 78
    },
    {
      "midi": 80,
      "hit": false,
      "t": 179526.3356250002,
      "d": 445.07531250000466,
      "v": 68
    },
    {
      "midi": 75,
      "hit": false,
      "t": 179753.6081250002,
      "d": 445.07531250003376,
      "v": 89
    },
    {
      "midi": 77,
      "hit": false,
      "t": 179980.88062500022,
      "d": 445.07531250003376,
      "v": 81
    },
    {
      "midi": 78,
      "hit": false,
      "t": 180208.15312500024,
      "d": 445.07531250003376,
      "v": 81
    },
    {
      "midi": 80,
      "hit": false,
      "t": 180435.42562500027,
      "d": 445.07531250003376,
      "v": 84
    },
    {
      "midi": 75,
      "hit": false,
      "t": 180662.6981250003,
      "d": 445.07531250003376,
      "v": 72
    },
    {
      "midi": 82,
      "hit": false,
      "t": 180889.9706250003,
      "d": 454.5450000000128,
      "v": 86
    },
    {
      "midi": 73,
      "hit": false,
      "t": 181117.24312500033,
      "d": 445.07531250000466,
      "v": 74
    },
    {
      "midi": 84,
      "hit": false,
      "t": 181344.51562500032,
      "d": 445.07531250003376,
      "v": 88
    },
    {
      "midi": 72,
      "hit": false,
      "t": 181571.78812500034,
      "d": 445.07531250003376,
      "v": 62
    },
    {
      "midi": 85,
      "hit": false,
      "t": 181799.06062500036,
      "d": 454.5450000000128,
      "v": 90
    },
    {
      "midi": 70,
      "hit": false,
      "t": 182026.33312500038,
      "d": 227.27249999999185,
      "v": 72
    },
    {
      "midi": 61,
      "hit": false,
      "t": 182253.60562500037,
      "d": 1789.7709374999977,
      "v": 68
    },
    {
      "midi": 65,
      "hit": false,
      "t": 182253.60562500037,
      "d": 1789.7709374999977,
      "v": 78
    },
    {
      "midi": 54,
      "hit": false,
      "t": 182253.60562500037,
      "d": 1818.179999999993,
      "v": 57
    },
    {
      "midi": 58,
      "hit": false,
      "t": 182253.60562500037,
      "d": 1818.179999999993,
      "v": 59
    },
    {
      "midi": 61,
      "hit": false,
      "t": 184980.87562500036,
      "d": 672.3478124999965,
      "v": 72
    },
    {
      "midi": 54,
      "hit": false,
      "t": 184980.87562500036,
      "d": 700.7568749999919,
      "v": 89
    },
    {
      "midi": 58,
      "hit": false,
      "t": 184980.87562500036,
      "d": 700.7568749999919,
      "v": 95
    },
    {
      "midi": 65,
      "hit": false,
      "t": 184980.87562500036,
      "d": 710.2265625,
      "v": 105
    },
    {
      "midi": 57,
      "hit": false,
      "t": 189526.32562500038,
      "d": 1240.5290624999907,
      "v": 84
    },
    {
      "midi": 65,
      "hit": false,
      "t": 189526.32562500038,
      "d": 1240.5290624999907,
      "v": 74
    },
    {
      "midi": 61,
      "hit": false,
      "t": 189526.32562500038,
      "d": 1524.6196875000023,
      "v": 95
    },
    {
      "midi": 53,
      "hit": false,
      "t": 191117.23312500038,
      "d": 1732.952812500007,
      "v": 84
    },
    {
      "midi": 57,
      "hit": false,
      "t": 191344.50562500037,
      "d": 1524.6196875000023,
      "v": 102
    },
    {
      "midi": 61,
      "hit": false,
      "t": 191571.77812500036,
      "d": 691.2871875000128,
      "v": 102
    },
    {
      "midi": 63,
      "hit": false,
      "t": 192253.59562500037,
      "d": 681.8175000000047,
      "v": 95
    },
    {
      "midi": 49,
      "hit": false,
      "t": 193162.68562500036,
      "d": 3058.709062500013,
      "v": 81
    },
    {
      "midi": 61,
      "hit": false,
      "t": 193162.68562500036,
      "d": 3068.178750000021,
      "v": 75
    },
    {
      "midi": 58,
      "hit": false,
      "t": 193162.68562500036,
      "d": 3115.5271875000326,
      "v": 86
    },
    {
      "midi": 65,
      "hit": false,
      "t": 193162.68562500036,
      "d": 3124.9968750000407,
      "v": 80
    },
    {
      "midi": 56,
      "hit": false,
      "t": 196799.0456250004,
      "d": 615.5296875000058,
      "v": 112
    },
    {
      "midi": 60,
      "hit": false,
      "t": 196799.0456250004,
      "d": 691.2871875000128,
      "v": 112
    },
    {
      "midi": 63,
      "hit": false,
      "t": 196799.0456250004,
      "d": 748.1053125000035,
      "v": 116
    },
    {
      "midi": 55,
      "hit": false,
      "t": 196799.0456250004,
      "d": 767.0446874999907,
      "v": 111
    },
    {
      "midi": 53,
      "hit": false,
      "t": 197708.1356250004,
      "d": 748.1053125000035,
      "v": 64
    },
    {
      "midi": 68,
      "hit": false,
      "t": 197935.4081250004,
      "d": 445.07531250000466,
      "v": 66
    },
    {
      "midi": 72,
      "hit": false,
      "t": 198162.6806250004,
      "d": 293.5603125000198,
      "v": 73
    },
    {
      "midi": 80,
      "hit": false,
      "t": 198389.9531250004,
      "d": 113.63625000001048,
      "v": 88
    },
    {
      "midi": 68,
      "hit": false,
      "t": 198617.22562500043,
      "d": 445.07531250000466,
      "v": 66
    },
    {
      "midi": 61,
      "hit": false,
      "t": 199299.04312500043,
      "d": 662.8781249999884,
      "v": 100
    },
    {
      "midi": 60,
      "hit": false,
      "t": 199980.8606250004,
      "d": 464.01468750002095,
      "v": 103
    },
    {
      "midi": 54,
      "hit": false,
      "t": 200435.40562500042,
      "d": 1751.8921874999942,
      "v": 76
    },
    {
      "midi": 58,
      "hit": false,
      "t": 200435.40562500042,
      "d": 1818.179999999993,
      "v": 95
    },
    {
      "midi": 61,
      "hit": false,
      "t": 200435.40562500042,
      "d": 1818.179999999993,
      "v": 80
    },
    {
      "midi": 66,
      "hit": false,
      "t": 200435.40562500042,
      "d": 1818.179999999993,
      "v": 73
    },
    {
      "midi": 58,
      "hit": false,
      "t": 202253.5856250004,
      "d": 606.0599999999977,
      "v": 111
    },
    {
      "midi": 54,
      "hit": false,
      "t": 202253.5856250004,
      "d": 672.3478124999965,
      "v": 70
    },
    {
      "midi": 60,
      "hit": false,
      "t": 202935.40312500042,
      "d": 672.3478124999965,
      "v": 118
    },
    {
      "midi": 61,
      "hit": false,
      "t": 203617.22062500042,
      "d": 454.5449999999837,
      "v": 118
    },
    {
      "midi": 49,
      "hit": false,
      "t": 204071.7656250004,
      "d": 833.3324999999895,
      "v": 82
    },
    {
      "midi": 65,
      "hit": false,
      "t": 204071.7656250004,
      "d": 1051.1353125000023,
      "v": 74
    },
    {
      "midi": 56,
      "hit": false,
      "t": 204071.7656250004,
      "d": 1060.6050000000105,
      "v": 71
    },
    {
      "midi": 61,
      "hit": false,
      "t": 204071.7656250004,
      "d": 1070.0746875000186,
      "v": 74
    },
    {
      "midi": 56,
      "hit": false,
      "t": 205208.12812500042,
      "d": 85.22718749998603,
      "v": 67
    },
    {
      "midi": 65,
      "hit": false,
      "t": 205208.12812500042,
      "d": 217.8028124999837,
      "v": 88
    },
    {
      "midi": 56,
      "hit": false,
      "t": 205435.40062500042,
      "d": 85.22718749998603,
      "v": 51
    },
    {
      "midi": 63,
      "hit": false,
      "t": 205435.40062500042,
      "d": 160.98468749999302,
      "v": 77
    },
    {
      "midi": 61,
      "hit": false,
      "t": 205889.9456250004,
      "d": 539.7721874999988,
      "v": 98
    },
    {
      "midi": 49,
      "hit": false,
      "t": 206344.4906250004,
      "d": 653.4084374999802,
      "v": 75
    },
    {
      "midi": 56,
      "hit": false,
      "t": 206571.7631250004,
      "d": 435.6056249999965,
      "v": 75
    },
    {
      "midi": 51,
      "hit": false,
      "t": 207708.1256250004,
      "d": 473.484375,
      "v": 80
    },
    {
      "midi": 54,
      "hit": false,
      "t": 207708.1256250004,
      "d": 520.8328125000116,
      "v": 75
    },
    {
      "midi": 58,
      "hit": false,
      "t": 207708.1256250004,
      "d": 587.1206250000105,
      "v": 85
    },
    {
      "midi": 61,
      "hit": false,
      "t": 207708.1256250004,
      "d": 672.3478124999965,
      "v": 77
    },
    {
      "midi": 58,
      "hit": false,
      "t": 209071.7606250004,
      "d": 274.6209375000035,
      "v": 67
    },
    {
      "midi": 61,
      "hit": false,
      "t": 209753.5781250004,
      "d": 113.63625000001048,
      "v": 82
    },
    {
      "midi": 66,
      "hit": false,
      "t": 209980.85062500043,
      "d": 142.04531250000582,
      "v": 84
    },
    {
      "midi": 66,
      "hit": false,
      "t": 210208.12312500042,
      "d": 539.7721874999988,
      "v": 78
    },
    {
      "midi": 58,
      "hit": false,
      "t": 210435.3956250004,
      "d": 217.8028125000128,
      "v": 76
    },
    {
      "midi": 60,
      "hit": false,
      "t": 211344.48562500044,
      "d": 975.3778124999953,
      "v": 67
    },
    {
      "midi": 57,
      "hit": false,
      "t": 211344.48562500044,
      "d": 1013.2565624999988,
      "v": 73
    },
    {
      "midi": 65,
      "hit": false,
      "t": 211344.48562500044,
      "d": 1183.7109375,
      "v": 81
    },
    {
      "midi": 41,
      "hit": false,
      "t": 211344.48562500044,
      "d": 1524.6196875000023,
      "v": 84
    },
    {
      "midi": 53,
      "hit": false,
      "t": 212480.84812500043,
      "d": 274.6209375000326,
      "v": 80
    },
    {
      "midi": 57,
      "hit": false,
      "t": 212708.12062500045,
      "d": 142.04531250000582,
      "v": 78
    },
    {
      "midi": 57,
      "hit": false,
      "t": 212935.39312500044,
      "d": 170.45437500000116,
      "v": 81
    },
    {
      "midi": 60,
      "hit": false,
      "t": 212935.39312500044,
      "d": 407.19656250000116,
      "v": 79
    },
    {
      "midi": 53,
      "hit": false,
      "t": 213617.21062500044,
      "d": 388.25718750001397,
      "v": 64
    },
    {
      "midi": 57,
      "hit": false,
      "t": 214071.75562500046,
      "d": 142.04531250000582,
      "v": 80
    },
    {
      "midi": 49,
      "hit": false,
      "t": 214980.84562500045,
      "d": 3058.709062500013,
      "v": 81
    },
    {
      "midi": 61,
      "hit": false,
      "t": 214980.84562500045,
      "d": 3068.178750000021,
      "v": 75
    },
    {
      "midi": 58,
      "hit": false,
      "t": 214980.84562500045,
      "d": 3115.5271875000326,
      "v": 86
    },
    {
      "midi": 65,
      "hit": false,
      "t": 214980.84562500045,
      "d": 3124.9968750000407,
      "v": 80
    },
    {
      "midi": 56,
      "hit": false,
      "t": 218617.2056250005,
      "d": 615.5296875000058,
      "v": 109
    },
    {
      "midi": 60,
      "hit": false,
      "t": 218617.2056250005,
      "d": 691.2871875000128,
      "v": 109
    },
    {
      "midi": 63,
      "hit": false,
      "t": 218617.2056250005,
      "d": 748.1053125000035,
      "v": 113
    },
    {
      "midi": 67,
      "hit": false,
      "t": 218617.2056250005,
      "d": 757.5750000000116,
      "v": 108
    },
    {
      "midi": 53,
      "hit": false,
      "t": 219526.29562500052,
      "d": 748.1053125000035,
      "v": 64
    },
    {
      "midi": 68,
      "hit": false,
      "t": 219753.56812500051,
      "d": 445.07531250000466,
      "v": 66
    },
    {
      "midi": 72,
      "hit": false,
      "t": 219980.8406250005,
      "d": 293.5603125000198,
      "v": 73
    },
    {
      "midi": 80,
      "hit": false,
      "t": 220208.11312500053,
      "d": 113.63625000001048,
      "v": 88
    },
    {
      "midi": 72,
      "hit": false,
      "t": 220435.38562500055,
      "d": 662.8781249999884,
      "v": 124
    },
    {
      "midi": 70,
      "hit": false,
      "t": 221117.20312500052,
      "d": 681.8175000000047,
      "v": 118
    },
    {
      "midi": 68,
      "hit": false,
      "t": 221799.02062500053,
      "d": 445.07531250000466,
      "v": 121
    },
    {
      "midi": 54,
      "hit": false,
      "t": 222253.56562500054,
      "d": 1751.8921874999942,
      "v": 76
    },
    {
      "midi": 65,
      "hit": false,
      "t": 222253.56562500054,
      "d": 1808.7103124999849,
      "v": 92
    },
    {
      "midi": 58,
      "hit": false,
      "t": 222253.56562500054,
      "d": 1818.179999999993,
      "v": 77
    },
    {
      "midi": 61,
      "hit": false,
      "t": 222253.56562500054,
      "d": 1818.179999999993,
      "v": 80
    },
    {
      "midi": 58,
      "hit": false,
      "t": 224071.74562500053,
      "d": 653.4084375000093,
      "v": 77
    },
    {
      "midi": 54,
      "hit": false,
      "t": 224071.74562500053,
      "d": 681.8175000000047,
      "v": 70
    },
    {
      "midi": 60,
      "hit": false,
      "t": 224753.56312500054,
      "d": 681.8175000000047,
      "v": 104
    },
    {
      "midi": 61,
      "hit": false,
      "t": 225889.92562500053,
      "d": 9.469687500008149,
      "v": 74
    },
    {
      "midi": 49,
      "hit": false,
      "t": 225889.92562500053,
      "d": 833.3325000000186,
      "v": 82
    },
    {
      "midi": 65,
      "hit": false,
      "t": 225889.92562500053,
      "d": 1051.1353125000314,
      "v": 74
    },
    {
      "midi": 56,
      "hit": false,
      "t": 225889.92562500053,
      "d": 1060.6050000000396,
      "v": 71
    },
    {
      "midi": 56,
      "hit": false,
      "t": 227026.28812500057,
      "d": 85.22718749998603,
      "v": 60
    },
    {
      "midi": 65,
      "hit": false,
      "t": 227026.28812500057,
      "d": 217.8028124999837,
      "v": 88
    },
    {
      "midi": 56,
      "hit": false,
      "t": 227253.56062500057,
      "d": 85.22718749998603,
      "v": 51
    },
    {
      "midi": 63,
      "hit": false,
      "t": 227253.56062500057,
      "d": 160.98468749999302,
      "v": 77
    },
    {
      "midi": 61,
      "hit": false,
      "t": 227708.10562500055,
      "d": 596.5903125000186,
      "v": 95
    },
    {
      "midi": 49,
      "hit": false,
      "t": 228162.65062500056,
      "d": 653.4084374999802,
      "v": 75
    },
    {
      "midi": 56,
      "hit": false,
      "t": 228389.92312500055,
      "d": 435.6056249999965,
      "v": 75
    },
    {
      "midi": 51,
      "hit": false,
      "t": 229526.28562500054,
      "d": 473.484375,
      "v": 80
    },
    {
      "midi": 54,
      "hit": false,
      "t": 229526.28562500054,
      "d": 520.8328125000116,
      "v": 75
    },
    {
      "midi": 58,
      "hit": false,
      "t": 229526.28562500054,
      "d": 587.1206250000105,
      "v": 85
    },
    {
      "midi": 61,
      "hit": false,
      "t": 229526.28562500054,
      "d": 672.3478124999965,
      "v": 77
    },
    {
      "midi": 58,
      "hit": false,
      "t": 230889.92062500055,
      "d": 274.6209375000035,
      "v": 67
    },
    {
      "midi": 61,
      "hit": false,
      "t": 231571.73812500056,
      "d": 113.63625000001048,
      "v": 82
    },
    {
      "midi": 66,
      "hit": false,
      "t": 231799.01062500058,
      "d": 142.04531250000582,
      "v": 84
    },
    {
      "midi": 66,
      "hit": false,
      "t": 232026.28312500057,
      "d": 539.7721874999988,
      "v": 78
    },
    {
      "midi": 58,
      "hit": false,
      "t": 232253.55562500056,
      "d": 217.8028125000128,
      "v": 76
    },
    {
      "midi": 60,
      "hit": false,
      "t": 233162.64562500056,
      "d": 984.8474999999744,
      "v": 67
    },
    {
      "midi": 57,
      "hit": false,
      "t": 233162.64562500056,
      "d": 1013.2565624999697,
      "v": 73
    },
    {
      "midi": 65,
      "hit": false,
      "t": 233162.64562500056,
      "d": 1183.710937499971,
      "v": 81
    },
    {
      "midi": 41,
      "hit": false,
      "t": 233162.64562500056,
      "d": 1515.1499999999942,
      "v": 84
    },
    {
      "midi": 53,
      "hit": false,
      "t": 234299.00812500052,
      "d": 274.6209375000326,
      "v": 80
    },
    {
      "midi": 57,
      "hit": false,
      "t": 234526.28062500054,
      "d": 142.04531250000582,
      "v": 78
    },
    {
      "midi": 57,
      "hit": false,
      "t": 234753.55312500056,
      "d": 170.45437500000116,
      "v": 81
    },
    {
      "midi": 60,
      "hit": false,
      "t": 234753.55312500056,
      "d": 407.19656250000116,
      "v": 79
    },
    {
      "midi": 53,
      "hit": false,
      "t": 235435.37062500056,
      "d": 388.25718750001397,
      "v": 64
    },
    {
      "midi": 57,
      "hit": false,
      "t": 235889.91562500058,
      "d": 142.04531250000582,
      "v": 80
    },
    {
      "midi": 61,
      "hit": false,
      "t": 236799.00562500057,
      "d": 748.1053125000035,
      "v": 77
    },
    {
      "midi": 58,
      "hit": false,
      "t": 236799.00562500057,
      "d": 785.984062500007,
      "v": 77
    },
    {
      "midi": 54,
      "hit": false,
      "t": 236799.00562500057,
      "d": 804.9234374999942,
      "v": 79
    },
    {
      "midi": 65,
      "hit": false,
      "t": 236799.00562500057,
      "d": 814.3931250000023,
      "v": 98
    },
    {
      "midi": 54,
      "hit": false,
      "t": 238162.64062500058,
      "d": 738.6356250000244,
      "v": 98
    },
    {
      "midi": 61,
      "hit": false,
      "t": 238162.64062500058,
      "d": 833.3325000000186,
      "v": 77
    },
    {
      "midi": 58,
      "hit": false,
      "t": 238162.64062500058,
      "d": 842.8021875000268,
      "v": 77
    },
    {
      "midi": 65,
      "hit": false,
      "t": 238162.64062500058,
      "d": 852.2718750000349,
      "v": 90
    },
    {
      "midi": 73,
      "hit": false,
      "t": 238626.6553125006,
      "d": 624.999375000014,
      "v": 121
    },
    {
      "midi": 54,
      "hit": false,
      "t": 239071.7306250006,
      "d": 312.499687500007,
      "v": 93
    },
    {
      "midi": 58,
      "hit": false,
      "t": 239299.00312500063,
      "d": 56.81812499999069,
      "v": 76
    },
    {
      "midi": 65,
      "hit": false,
      "t": 239299.00312500063,
      "d": 66.28781249999884,
      "v": 74
    },
    {
      "midi": 61,
      "hit": false,
      "t": 239299.00312500063,
      "d": 85.22718749998603,
      "v": 76
    },
    {
      "midi": 72,
      "hit": false,
      "t": 239299.00312500063,
      "d": 606.0599999999977,
      "v": 124
    },
    {
      "midi": 58,
      "hit": false,
      "t": 239753.5481250006,
      "d": 217.8028125000128,
      "v": 101
    },
    {
      "midi": 61,
      "hit": false,
      "t": 239753.5481250006,
      "d": 217.8028125000128,
      "v": 66
    },
    {
      "midi": 54,
      "hit": false,
      "t": 239753.5481250006,
      "d": 227.27250000002095,
      "v": 107
    },
    {
      "midi": 65,
      "hit": false,
      "t": 239753.5481250006,
      "d": 407.19656250003027,
      "v": 104
    },
    {
      "midi": 70,
      "hit": false,
      "t": 239980.82062500063,
      "d": 464.01468750002095,
      "v": 114
    },
    {
      "midi": 75,
      "hit": false,
      "t": 240435.36562500065,
      "d": 1098.483750000014,
      "v": 75
    },
    {
      "midi": 72,
      "hit": false,
      "t": 240435.36562500065,
      "d": 1117.4231250000012,
      "v": 73
    },
    {
      "midi": 65,
      "hit": false,
      "t": 240435.36562500065,
      "d": 2424.2399999999907,
      "v": 68
    },
    {
      "midi": 53,
      "hit": false,
      "t": 240435.36562500065,
      "d": 2471.5884375000023,
      "v": 72
    },
    {
      "midi": 68,
      "hit": false,
      "t": 242367.18187500065,
      "d": 189.39374999998836,
      "v": 106
    },
    {
      "midi": 63,
      "hit": false,
      "t": 243086.87812500066,
      "d": 511.3631250000035,
      "v": 101
    },
    {
      "midi": 68,
      "hit": false,
      "t": 243901.27125000066,
      "d": 37.87875000000349,
      "v": 91
    },
    {
      "midi": 90,
      "hit": false,
      "t": 244478.92218750066,
      "d": 1647.7256249999919,
      "v": 76
    },
    {
      "midi": 70,
      "hit": false,
      "t": 244488.39187500067,
      "d": 1344.695624999993,
      "v": 66
    },
    {
      "midi": 73,
      "hit": false,
      "t": 244488.39187500067,
      "d": 1401.5137499999837,
      "v": 66
    },
    {
      "midi": 51,
      "hit": false,
      "t": 244488.39187500067,
      "d": 1666.664999999979,
      "v": 62
    },
    {
      "midi": 63,
      "hit": false,
      "t": 244488.39187500067,
      "d": 1856.0587499999674,
      "v": 62
    },
    {
      "midi": 66,
      "hit": false,
      "t": 244497.86156250068,
      "d": 1420.453124999971,
      "v": 64
    },
    {
      "midi": 68,
      "hit": false,
      "t": 246145.58718750064,
      "d": 397.726874999993,
      "v": 74
    },
    {
      "midi": 56,
      "hit": false,
      "t": 246590.66250000065,
      "d": 2452.649062499986,
      "v": 77
    },
    {
      "midi": 63,
      "hit": false,
      "t": 246638.01093750066,
      "d": 2395.8309374999662,
      "v": 77
    },
    {
      "midi": 66,
      "hit": false,
      "t": 246780.05625000063,
      "d": 1202.6503124999872,
      "v": 84
    },
    {
      "midi": 54,
      "hit": false,
      "t": 248162.63062500063,
      "d": 833.3324999999895,
      "v": 78
    },
    {
      "midi": 58,
      "hit": false,
      "t": 248162.63062500063,
      "d": 833.3324999999895,
      "v": 72
    },
    {
      "midi": 61,
      "hit": false,
      "t": 248162.63062500063,
      "d": 890.1506250000093,
      "v": 84
    },
    {
      "midi": 73,
      "hit": false,
      "t": 248162.63062500063,
      "d": 1183.7109375,
      "v": 71
    },
    {
      "midi": 49,
      "hit": false,
      "t": 249923.99250000063,
      "d": 681.8174999999756,
      "v": 73
    },
    {
      "midi": 85,
      "hit": false,
      "t": 249999.75000000064,
      "d": 378.7874999999767,
      "v": 57
    },
    {
      "midi": 56,
      "hit": false,
      "t": 250075.50750000065,
      "d": 142.04531249997672,
      "v": 64
    },
    {
      "midi": 61,
      "hit": false,
      "t": 250075.50750000065,
      "d": 369.31781249996857,
      "v": 58
    },
    {
      "midi": 89,
      "hit": false,
      "t": 250094.44687500063,
      "d": 255.6815624999872,
      "v": 62
    },
    {
      "midi": 92,
      "hit": false,
      "t": 250160.73468750063,
      "d": 217.8028124999837,
      "v": 74
    },
    {
      "midi": 97,
      "hit": false,
      "t": 250283.84062500062,
      "d": 113.63624999998137,
      "v": 81
    }
  ]
}