{
  "jsonPath": "Rock/Album Rock/Chicago/nothins-gonna-stop-us-now-plus-free-flight-hidden-track-album-version.json",
  "path": "Rock\\Album Rock\\Chicago\\Nothins Gonna Stop Us Now (Plus Free Flight_ Hidden Track) (Album Version).mid",
  "name": "Nothins Gonna Stop Us Now (Plus Free Flight_ Hidden Track) (Album Version)",
  "difficulty": "Advanced",
  "bpm": 110.00011000011,
  "notes": [
    {
      "midi": 47,
      "hit": false,
      "t": 0,
      "d": 272.72700000000003,
      "v": 100
    },
    {
      "midi": 47,
      "hit": false,
      "t": 272.72700000000003,
      "d": 272.72700000000003,
      "v": 100
    },
    {
      "midi": 59,
      "hit": false,
      "t": 272.72700000000003,
      "d": 272.72700000000003,
      "v": 100
    },
    {
      "midi": 61,
      "hit": false,
      "t": 545.4540000000001,
      "d": 272.727,
      "v": 100
    },
    {
      "midi": 66,
      "hit": false,
      "t": 818.181,
      "d": 272.7270000000001,
      "v": 100
    },
    {
      "midi": 59,
      "hit": false,
      "t": 1090.9080000000001,
      "d": 1090.9080000000001,
      "v": 100
    },
    {
      "midi": 61,
      "hit": false,
      "t": 1090.9080000000001,
      "d": 1090.9080000000001,
      "v": 100
    },
    {
      "midi": 66,
      "hit": false,
      "t": 1090.9080000000001,
      "d": 1090.9080000000001,
      "v": 100
    },
    {
      "midi": 42,
      "hit": false,
      "t": 1909.0890000000002,
      "d": 272.7270000000001,
      "v": 100
    },
    {
      "midi": 47,
      "hit": false,
      "t": 2181.8160000000003,
      "d": 272.72699999999986,
      "v": 100
    },
    {
      "midi": 47,
      "hit": false,
      "t": 2454.543,
      "d": 272.72699999999986,
      "v": 100
    },
    {
      "midi": 58,
      "hit": false,
      "t": 2454.543,
      "d": 272.72699999999986,
      "v": 100
    },
    {
      "midi": 63,
      "hit": false,
      "t": 2727.27,
      "d": 272.72699999999986,
      "v": 100
    },
    {
      "midi": 47,
      "hit": false,
      "t": 2999.997,
      "d": 272.72699999999986,
      "v": 100
    },
    {
      "midi": 66,
      "hit": false,
      "t": 2999.997,
      "d": 272.72699999999986,
      "v": 100
    },
    {
      "midi": 58,
      "hit": false,
      "t": 3272.7239999999997,
      "d": 1090.908,
      "v": 100
    },
    {
      "midi": 59,
      "hit": false,
      "t": 3272.7239999999997,
      "d": 1090.908,
      "v": 100
    },
    {
      "midi": 66,
      "hit": false,
      "t": 3272.7239999999997,
      "d": 1090.908,
      "v": 100
    },
    {
      "midi": 42,
      "hit": false,
      "t": 4090.9049999999997,
      "d": 272.72699999999986,
      "v": 100
    },
    {
      "midi": 47,
      "hit": false,
      "t": 4363.632,
      "d": 272.72699999999986,
      "v": 100
    },
    {
      "midi": 47,
      "hit": false,
      "t": 4636.3589999999995,
      "d": 272.72699999999986,
      "v": 100
    },
    {
      "midi": 58,
      "hit": false,
      "t": 4636.3589999999995,
      "d": 272.72699999999986,
      "v": 100
    },
    {
      "midi": 59,
      "hit": false,
      "t": 4909.085999999999,
      "d": 272.72699999999986,
      "v": 100
    },
    {
      "midi": 64,
      "hit": false,
      "t": 5181.812999999999,
      "d": 272.72699999999986,
      "v": 100
    },
    {
      "midi": 58,
      "hit": false,
      "t": 5454.539999999999,
      "d": 1090.9080000000004,
      "v": 100
    },
    {
      "midi": 59,
      "hit": false,
      "t": 5454.539999999999,
      "d": 1090.9080000000004,
      "v": 100
    },
    {
      "midi": 64,
      "hit": false,
      "t": 5454.539999999999,
      "d": 1090.9080000000004,
      "v": 100
    },
    {
      "midi": 42,
      "hit": false,
      "t": 6272.721,
      "d": 272.72699999999986,
      "v": 100
    },
    {
      "midi": 47,
      "hit": false,
      "t": 6545.447999999999,
      "d": 272.72699999999986,
      "v": 100
    },
    {
      "midi": 47,
      "hit": false,
      "t": 6818.174999999999,
      "d": 272.72699999999986,
      "v": 100
    },
    {
      "midi": 56,
      "hit": false,
      "t": 6818.174999999999,
      "d": 272.72699999999986,
      "v": 100
    },
    {
      "midi": 59,
      "hit": false,
      "t": 7090.901999999999,
      "d": 272.72699999999986,
      "v": 100
    },
    {
      "midi": 47,
      "hit": false,
      "t": 7363.628999999999,
      "d": 272.72699999999986,
      "v": 100
    },
    {
      "midi": 64,
      "hit": false,
      "t": 7363.628999999999,
      "d": 272.72699999999986,
      "v": 100
    },
    {
      "midi": 54,
      "hit": false,
      "t": 7636.355999999999,
      "d": 545.4539999999997,
      "v": 100
    },
    {
      "midi": 63,
      "hit": false,
      "t": 7636.355999999999,
      "d": 545.4539999999997,
      "v": 100
    },
    {
      "midi": 52,
      "hit": false,
      "t": 7909.082999999999,
      "d": 272.72699999999986,
      "v": 100
    },
    {
      "midi": 61,
      "hit": false,
      "t": 7909.082999999999,
      "d": 272.72699999999986,
      "v": 100
    },
    {
      "midi": 42,
      "hit": false,
      "t": 8454.536999999998,
      "d": 272.72700000000077,
      "v": 100
    },
    {
      "midi": 54,
      "hit": false,
      "t": 8454.536999999998,
      "d": 272.72700000000077,
      "v": 100
    },
    {
      "midi": 63,
      "hit": false,
      "t": 8454.536999999998,
      "d": 272.72700000000077,
      "v": 100
    },
    {
      "midi": 47,
      "hit": false,
      "t": 8727.264,
      "d": 272.72700000000077,
      "v": 100
    },
    {
      "midi": 47,
      "hit": false,
      "t": 8999.991,
      "d": 272.72700000000077,
      "v": 100
    },
    {
      "midi": 59,
      "hit": false,
      "t": 8999.991,
      "d": 272.72700000000077,
      "v": 100
    },
    {
      "midi": 61,
      "hit": false,
      "t": 9272.718,
      "d": 272.72700000000077,
      "v": 100
    },
    {
      "midi": 66,
      "hit": false,
      "t": 9545.445000000002,
      "d": 272.72700000000077,
      "v": 100
    },
    {
      "midi": 59,
      "hit": false,
      "t": 9818.172000000002,
      "d": 1090.9080000000013,
      "v": 100
    },
    {
      "midi": 61,
      "hit": false,
      "t": 9818.172000000002,
      "d": 1090.9080000000013,
      "v": 100
    },
    {
      "midi": 66,
      "hit": false,
      "t": 9818.172000000002,
      "d": 1090.9080000000013,
      "v": 100
    },
    {
      "midi": 42,
      "hit": false,
      "t": 10636.353000000003,
      "d": 272.72700000000077,
      "v": 100
    },
    {
      "midi": 47,
      "hit": false,
      "t": 10909.080000000004,
      "d": 272.72700000000077,
      "v": 100
    },
    {
      "midi": 47,
      "hit": false,
      "t": 11181.807000000004,
      "d": 272.72700000000077,
      "v": 100
    },
    {
      "midi": 58,
      "hit": false,
      "t": 11181.807000000004,
      "d": 272.72700000000077,
      "v": 100
    },
    {
      "midi": 63,
      "hit": false,
      "t": 11454.534000000005,
      "d": 272.72700000000077,
      "v": 100
    },
    {
      "midi": 47,
      "hit": false,
      "t": 11727.261000000006,
      "d": 272.72700000000077,
      "v": 100
    },
    {
      "midi": 66,
      "hit": false,
      "t": 11727.261000000006,
      "d": 272.72700000000077,
      "v": 100
    },
    {
      "midi": 58,
      "hit": false,
      "t": 11999.988000000007,
      "d": 1090.9080000000013,
      "v": 100
    },
    {
      "midi": 59,
      "hit": false,
      "t": 11999.988000000007,
      "d": 1090.9080000000013,
      "v": 100
    },
    {
      "midi": 66,
      "hit": false,
      "t": 11999.988000000007,
      "d": 1090.9080000000013,
      "v": 100
    },
    {
      "midi": 42,
      "hit": false,
      "t": 12818.169000000007,
      "d": 272.72700000000077,
      "v": 100
    },
    {
      "midi": 47,
      "hit": false,
      "t": 13090.896000000008,
      "d": 272.72700000000077,
      "v": 100
    },
    {
      "midi": 47,
      "hit": false,
      "t": 13363.623000000009,
      "d": 272.72700000000077,
      "v": 100
    },
    {
      "midi": 58,
      "hit": false,
      "t": 13363.623000000009,
      "d": 272.72700000000077,
      "v": 100
    },
    {
      "midi": 59,
      "hit": false,
      "t": 13636.35000000001,
      "d": 272.72700000000077,
      "v": 100
    },
    {
      "midi": 64,
      "hit": false,
      "t": 13909.07700000001,
      "d": 272.72700000000077,
      "v": 100
    },
    {
      "midi": 58,
      "hit": false,
      "t": 14181.804000000011,
      "d": 1090.9080000000013,
      "v": 100
    },
    {
      "midi": 59,
      "hit": false,
      "t": 14181.804000000011,
      "d": 1090.9080000000013,
      "v": 100
    },
    {
      "midi": 64,
      "hit": false,
      "t": 14181.804000000011,
      "d": 1090.9080000000013,
      "v": 100
    },
    {
      "midi": 42,
      "hit": false,
      "t": 14999.985000000011,
      "d": 272.72700000000077,
      "v": 100
    },
    {
      "midi": 47,
      "hit": false,
      "t": 15272.712000000012,
      "d": 272.72700000000077,
      "v": 100
    },
    {
      "midi": 47,
      "hit": false,
      "t": 15545.439000000013,
      "d": 272.72700000000077,
      "v": 100
    },
    {
      "midi": 56,
      "hit": false,
      "t": 15545.439000000013,
      "d": 272.72700000000077,
      "v": 100
    },
    {
      "midi": 59,
      "hit": false,
      "t": 15818.166000000014,
      "d": 272.72700000000077,
      "v": 100
    },
    {
      "midi": 47,
      "hit": false,
      "t": 16090.893000000015,
      "d": 272.72700000000077,
      "v": 100
    },
    {
      "midi": 64,
      "hit": false,
      "t": 16090.893000000015,
      "d": 272.72700000000077,
      "v": 100
    },
    {
      "midi": 56,
      "hit": false,
      "t": 16363.620000000015,
      "d": 272.72700000000077,
      "v": 100
    },
    {
      "midi": 59,
      "hit": false,
      "t": 16363.620000000015,
      "d": 272.72700000000077,
      "v": 100
    },
    {
      "midi": 63,
      "hit": false,
      "t": 16363.620000000015,
      "d": 272.72700000000077,
      "v": 100
    },
    {
      "midi": 71,
      "hit": false,
      "t": 16636.347000000016,
      "d": 272.72699999999895,
      "v": 100
    },
    {
      "midi": 73,
      "hit": false,
      "t": 16909.074000000015,
      "d": 272.72699999999895,
      "v": 100
    },
    {
      "midi": 42,
      "hit": false,
      "t": 17181.801000000014,
      "d": 272.72699999999895,
      "v": 100
    },
    {
      "midi": 75,
      "hit": false,
      "t": 17181.801000000014,
      "d": 272.72699999999895,
      "v": 100
    },
    {
      "midi": 47,
      "hit": false,
      "t": 17454.528000000013,
      "d": 272.72699999999895,
      "v": 100
    },
    {
      "midi": 75,
      "hit": false,
      "t": 17454.528000000013,
      "d": 545.4539999999979,
      "v": 100
    },
    {
      "midi": 47,
      "hit": false,
      "t": 17727.255000000012,
      "d": 272.72699999999895,
      "v": 100
    },
    {
      "midi": 59,
      "hit": false,
      "t": 18545.436000000012,
      "d": 545.4540000000015,
      "v": 100
    },
    {
      "midi": 61,
      "hit": false,
      "t": 18545.436000000012,
      "d": 545.4540000000015,
      "v": 100
    },
    {
      "midi": 63,
      "hit": false,
      "t": 18545.436000000012,
      "d": 545.4540000000015,
      "v": 100
    },
    {
      "midi": 75,
      "hit": false,
      "t": 19090.890000000014,
      "d": 272.72699999999895,
      "v": 100
    },
    {
      "midi": 42,
      "hit": false,
      "t": 19363.617000000013,
      "d": 272.72699999999895,
      "v": 100
    },
    {
      "midi": 78,
      "hit": false,
      "t": 19363.617000000013,
      "d": 272.72699999999895,
      "v": 100
    },
    {
      "midi": 47,
      "hit": false,
      "t": 19636.344000000012,
      "d": 272.72699999999895,
      "v": 100
    },
    {
      "midi": 75,
      "hit": false,
      "t": 19636.344000000012,
      "d": 545.4539999999979,
      "v": 100
    },
    {
      "midi": 47,
      "hit": false,
      "t": 19909.07100000001,
      "d": 272.72699999999895,
      "v": 100
    },
    {
      "midi": 58,
      "hit": false,
      "t": 20454.52500000001,
      "d": 818.1810000000005,
      "v": 100
    },
    {
      "midi": 61,
      "hit": false,
      "t": 20454.52500000001,
      "d": 818.1810000000005,
      "v": 100
    },
    {
      "midi": 66,
      "hit": false,
      "t": 20454.52500000001,
      "d": 818.1810000000005,
      "v": 100
    },
    {
      "midi": 73,
      "hit": false,
      "t": 21272.70600000001,
      "d": 272.72699999999895,
      "v": 100
    },
    {
      "midi": 42,
      "hit": false,
      "t": 21545.433000000008,
      "d": 272.72699999999895,
      "v": 100
    },
    {
      "midi": 75,
      "hit": false,
      "t": 21545.433000000008,
      "d": 272.72699999999895,
      "v": 100
    },
    {
      "midi": 47,
      "hit": false,
      "t": 21818.160000000007,
      "d": 272.72699999999895,
      "v": 100
    },
    {
      "midi": 76,
      "hit": false,
      "t": 21818.160000000007,
      "d": 272.72699999999895,
      "v": 100
    },
    {
      "midi": 47,
      "hit": false,
      "t": 22090.887000000006,
      "d": 272.72699999999895,
      "v": 100
    },
    {
      "midi": 76,
      "hit": false,
      "t": 22090.887000000006,
      "d": 272.72699999999895,
      "v": 100
    },
    {
      "midi": 58,
      "hit": false,
      "t": 22636.341000000004,
      "d": 272.72699999999895,
      "v": 100
    },
    {
      "midi": 59,
      "hit": false,
      "t": 22636.341000000004,
      "d": 818.1810000000005,
      "v": 100
    },
    {
      "midi": 64,
      "hit": false,
      "t": 22636.341000000004,
      "d": 818.1810000000005,
      "v": 100
    },
    {
      "midi": 76,
      "hit": false,
      "t": 22636.341000000004,
      "d": 818.1810000000005,
      "v": 100
    },
    {
      "midi": 64,
      "hit": false,
      "t": 23454.522000000004,
      "d": 272.72699999999895,
      "v": 100
    },
    {
      "midi": 73,
      "hit": false,
      "t": 23454.522000000004,
      "d": 272.72699999999895,
      "v": 100
    },
    {
      "midi": 42,
      "hit": false,
      "t": 23727.249000000003,
      "d": 272.72699999999895,
      "v": 100
    },
    {
      "midi": 66,
      "hit": false,
      "t": 23727.249000000003,
      "d": 272.72699999999895,
      "v": 100
    },
    {
      "midi": 75,
      "hit": false,
      "t": 23727.249000000003,
      "d": 272.72699999999895,
      "v": 100
    },
    {
      "midi": 47,
      "hit": false,
      "t": 23999.976000000002,
      "d": 272.72699999999895,
      "v": 100
    },
    {
      "midi": 68,
      "hit": false,
      "t": 23999.976000000002,
      "d": 272.72699999999895,
      "v": 100
    },
    {
      "midi": 76,
      "hit": false,
      "t": 23999.976000000002,
      "d": 272.72699999999895,
      "v": 100
    },
    {
      "midi": 47,
      "hit": false,
      "t": 24272.703,
      "d": 272.72699999999895,
      "v": 100
    },
    {
      "midi": 68,
      "hit": false,
      "t": 24272.703,
      "d": 272.72699999999895,
      "v": 100
    },
    {
      "midi": 76,
      "hit": false,
      "t": 24272.703,
      "d": 272.72699999999895,
      "v": 100
    },
    {
      "midi": 68,
      "hit": false,
      "t": 24545.43,
      "d": 272.72699999999895,
      "v": 100
    },
    {
      "midi": 76,
      "hit": false,
      "t": 24545.43,
      "d": 272.72699999999895,
      "v": 100
    },
    {
      "midi": 68,
      "hit": false,
      "t": 24818.157,
      "d": 272.72699999999895,
      "v": 100
    },
    {
      "midi": 76,
      "hit": false,
      "t": 24818.157,
      "d": 272.72699999999895,
      "v": 100
    },
    {
      "midi": 59,
      "hit": false,
      "t": 24818.157,
      "d": 818.1810000000005,
      "v": 100
    },
    {
      "midi": 64,
      "hit": false,
      "t": 24818.157,
      "d": 818.1810000000005,
      "v": 100
    },
    {
      "midi": 66,
      "hit": false,
      "t": 25090.884,
      "d": 545.4540000000015,
      "v": 100
    },
    {
      "midi": 75,
      "hit": false,
      "t": 25090.884,
      "d": 545.4540000000015,
      "v": 100
    },
    {
      "midi": 58,
      "hit": false,
      "t": 25636.338,
      "d": 272.72699999999895,
      "v": 100
    },
    {
      "midi": 64,
      "hit": false,
      "t": 25636.338,
      "d": 272.72699999999895,
      "v": 100
    },
    {
      "midi": 73,
      "hit": false,
      "t": 25636.338,
      "d": 272.72699999999895,
      "v": 100
    },
    {
      "midi": 59,
      "hit": false,
      "t": 25909.065,
      "d": 272.72699999999895,
      "v": 100
    },
    {
      "midi": 66,
      "hit": false,
      "t": 25909.065,
      "d": 272.72699999999895,
      "v": 100
    },
    {
      "midi": 75,
      "hit": false,
      "t": 25909.065,
      "d": 272.72699999999895,
      "v": 100
    },
    {
      "midi": 47,
      "hit": false,
      "t": 26181.791999999998,
      "d": 272.72699999999895,
      "v": 100
    },
    {
      "midi": 66,
      "hit": false,
      "t": 26181.791999999998,
      "d": 545.4539999999979,
      "v": 100
    },
    {
      "midi": 75,
      "hit": false,
      "t": 26181.791999999998,
      "d": 545.4539999999979,
      "v": 100
    },
    {
      "midi": 47,
      "hit": false,
      "t": 26454.518999999997,
      "d": 272.72699999999895,
      "v": 100
    },
    {
      "midi": 59,
      "hit": false,
      "t": 26999.972999999994,
      "d": 818.1810000000005,
      "v": 100
    },
    {
      "midi": 61,
      "hit": false,
      "t": 26999.972999999994,
      "d": 818.1810000000005,
      "v": 100
    },
    {
      "midi": 66,
      "hit": false,
      "t": 26999.972999999994,
      "d": 818.1810000000005,
      "v": 100
    },
    {
      "midi": 47,
      "hit": false,
      "t": 27818.153999999995,
      "d": 272.72699999999895,
      "v": 100
    },
    {
      "midi": 63,
      "hit": false,
      "t": 27818.153999999995,
      "d": 545.4539999999979,
      "v": 100
    },
    {
      "midi": 42,
      "hit": false,
      "t": 28090.880999999994,
      "d": 272.72699999999895,
      "v": 100
    },
    {
      "midi": 47,
      "hit": false,
      "t": 28363.607999999993,
      "d": 272.72699999999895,
      "v": 100
    },
    {
      "midi": 47,
      "hit": false,
      "t": 28636.334999999992,
      "d": 272.72699999999895,
      "v": 100
    },
    {
      "midi": 58,
      "hit": false,
      "t": 29181.78899999999,
      "d": 818.1810000000005,
      "v": 100
    },
    {
      "midi": 61,
      "hit": false,
      "t": 29181.78899999999,
      "d": 818.1810000000005,
      "v": 100
    },
    {
      "midi": 66,
      "hit": false,
      "t": 29181.78899999999,
      "d": 818.1810000000005,
      "v": 100
    },
    {
      "midi": 73,
      "hit": false,
      "t": 29999.96999999999,
      "d": 272.72699999999895,
      "v": 100
    },
    {
      "midi": 42,
      "hit": false,
      "t": 30272.69699999999,
      "d": 272.72699999999895,
      "v": 100
    },
    {
      "midi": 75,
      "hit": false,
      "t": 30272.69699999999,
      "d": 272.72699999999895,
      "v": 100
    },
    {
      "midi": 76,
      "hit": false,
      "t": 30545.423999999988,
      "d": 272.72699999999895,
      "v": 100
    },
    {
      "midi": 47,
      "hit": false,
      "t": 30545.423999999988,
      "d": 545.4539999999979,
      "v": 100
    },
    {
      "midi": 76,
      "hit": false,
      "t": 30818.150999999987,
      "d": 272.72699999999895,
      "v": 100
    },
    {
      "midi": 58,
      "hit": false,
      "t": 31363.604999999985,
      "d": 818.1810000000005,
      "v": 100
    },
    {
      "midi": 59,
      "hit": false,
      "t": 31363.604999999985,
      "d": 818.1810000000005,
      "v": 100
    },
    {
      "midi": 64,
      "hit": false,
      "t": 31363.604999999985,
      "d": 818.1810000000005,
      "v": 100
    },
    {
      "midi": 76,
      "hit": false,
      "t": 31363.604999999985,
      "d": 818.1810000000005,
      "v": 100
    },
    {
      "midi": 64,
      "hit": false,
      "t": 32181.785999999986,
      "d": 272.72699999999895,
      "v": 100
    },
    {
      "midi": 73,
      "hit": false,
      "t": 32181.785999999986,
      "d": 272.72699999999895,
      "v": 100
    },
    {
      "midi": 42,
      "hit": false,
      "t": 32454.512999999984,
      "d": 272.72699999999895,
      "v": 100
    },
    {
      "midi": 66,
      "hit": false,
      "t": 32454.512999999984,
      "d": 272.72699999999895,
      "v": 100
    },
    {
      "midi": 75,
      "hit": false,
      "t": 32454.512999999984,
      "d": 272.72699999999895,
      "v": 100
    },
    {
      "midi": 68,
      "hit": false,
      "t": 32727.239999999983,
      "d": 272.72699999999895,
      "v": 100
    },
    {
      "midi": 76,
      "hit": false,
      "t": 32727.239999999983,
      "d": 272.72699999999895,
      "v": 100
    },
    {
      "midi": 47,
      "hit": false,
      "t": 32727.239999999983,
      "d": 545.4539999999979,
      "v": 100
    },
    {
      "midi": 68,
      "hit": false,
      "t": 32999.96699999998,
      "d": 272.72699999999895,
      "v": 100
    },
    {
      "midi": 76,
      "hit": false,
      "t": 32999.96699999998,
      "d": 272.72699999999895,
      "v": 100
    },
    {
      "midi": 68,
      "hit": false,
      "t": 33272.69399999998,
      "d": 272.72699999999895,
      "v": 100
    },
    {
      "midi": 76,
      "hit": false,
      "t": 33272.69399999998,
      "d": 272.72699999999895,
      "v": 100
    },
    {
      "midi": 70,
      "hit": false,
      "t": 33545.42099999998,
      "d": 272.72699999999895,
      "v": 100
    },
    {
      "midi": 78,
      "hit": false,
      "t": 33545.42099999998,
      "d": 272.72699999999895,
      "v": 100
    },
    {
      "midi": 66,
      "hit": false,
      "t": 33818.14799999998,
      "d": 545.4539999999979,
      "v": 100
    },
    {
      "midi": 75,
      "hit": false,
      "t": 33818.14799999998,
      "d": 545.4539999999979,
      "v": 100
    },
    {
      "midi": 49,
      "hit": false,
      "t": 34090.87499999998,
      "d": 272.72699999999895,
      "v": 100
    },
    {
      "midi": 51,
      "hit": false,
      "t": 34363.60199999998,
      "d": 272.72699999999895,
      "v": 100
    },
    {
      "midi": 73,
      "hit": false,
      "t": 34363.60199999998,
      "d": 272.72699999999895,
      "v": 100
    },
    {
      "midi": 39,
      "hit": false,
      "t": 34636.328999999976,
      "d": 272.72699999999895,
      "v": 100
    },
    {
      "midi": 68,
      "hit": false,
      "t": 34636.328999999976,
      "d": 272.72699999999895,
      "v": 100
    },
    {
      "midi": 73,
      "hit": false,
      "t": 34636.328999999976,
      "d": 272.72699999999895,
      "v": 100
    },
    {
      "midi": 44,
      "hit": false,
      "t": 34909.055999999975,
      "d": 272.72699999999895,
      "v": 100
    },
    {
      "midi": 68,
      "hit": false,
      "t": 34909.055999999975,
      "d": 272.72699999999895,
      "v": 100
    },
    {
      "midi": 73,
      "hit": false,
      "t": 34909.055999999975,
      "d": 272.72699999999895,
      "v": 100
    },
    {
      "midi": 71,
      "hit": false,
      "t": 35045.419499999975,
      "d": 136.36349999999948,
      "v": 100
    },
    {
      "midi": 68,
      "hit": false,
      "t": 35181.782999999974,
      "d": 272.72699999999895,
      "v": 100
    },
    {
      "midi": 66,
      "hit": false,
      "t": 35454.50999999997,
      "d": 272.72699999999895,
      "v": 100
    },
    {
      "midi": 58,
      "hit": false,
      "t": 35727.23699999997,
      "d": 272.72699999999895,
      "v": 100
    },
    {
      "midi": 61,
      "hit": false,
      "t": 35727.23699999997,
      "d": 272.72699999999895,
      "v": 100
    },
    {
      "midi": 58,
      "hit": false,
      "t": 35999.96399999997,
      "d": 272.72699999999895,
      "v": 100
    },
    {
      "midi": 61,
      "hit": false,
      "t": 35999.96399999997,
      "d": 272.72699999999895,
      "v": 100
    },
    {
      "midi": 42,
      "hit": false,
      "t": 36272.69099999997,
      "d": 272.72699999999895,
      "v": 100
    },
    {
      "midi": 66,
      "hit": false,
      "t": 36272.69099999997,
      "d": 272.72699999999895,
      "v": 100
    },
    {
      "midi": 44,
      "hit": false,
      "t": 36545.41799999997,
      "d": 272.72699999999895,
      "v": 100
    },
    {
      "midi": 59,
      "hit": false,
      "t": 36545.41799999997,
      "d": 545.4539999999979,
      "v": 100
    },
    {
      "midi": 63,
      "hit": false,
      "t": 36545.41799999997,
      "d": 545.4539999999979,
      "v": 100
    },
    {
      "midi": 40,
      "hit": false,
      "t": 36818.14499999997,
      "d": 272.72699999999895,
      "v": 100
    },
    {
      "midi": 40,
      "hit": false,
      "t": 37090.87199999997,
      "d": 272.72699999999895,
      "v": 100
    },
    {
      "midi": 64,
      "hit": false,
      "t": 37090.87199999997,
      "d": 272.72699999999895,
      "v": 100
    },
    {
      "midi": 75,
      "hit": false,
      "t": 37090.87199999997,
      "d": 272.72699999999895,
      "v": 100
    },
    {
      "midi": 40,
      "hit": false,
      "t": 37363.598999999966,
      "d": 272.72699999999895,
      "v": 100
    },
    {
      "midi": 64,
      "hit": false,
      "t": 37363.598999999966,
      "d": 272.72699999999895,
      "v": 100
    },
    {
      "midi": 66,
      "hit": false,
      "t": 37363.598999999966,
      "d": 272.72699999999895,
      "v": 100
    },
    {
      "midi": 71,
      "hit": false,
      "t": 37363.598999999966,
      "d": 272.72699999999895,
      "v": 100
    },
    {
      "midi": 64,
      "hit": false,
      "t": 37636.325999999965,
      "d": 272.72699999999895,
      "v": 100
    },
    {
      "midi": 66,
      "hit": false,
      "t": 37636.325999999965,
      "d": 272.72699999999895,
      "v": 100
    },
    {
      "midi": 71,
      "hit": false,
      "t": 37636.325999999965,
      "d": 272.72699999999895,
      "v": 100
    },
    {
      "midi": 64,
      "hit": false,
      "t": 37909.05299999996,
      "d": 272.72699999999895,
      "v": 100
    },
    {
      "midi": 66,
      "hit": false,
      "t": 37909.05299999996,
      "d": 272.72699999999895,
      "v": 100
    },
    {
      "midi": 71,
      "hit": false,
      "t": 37909.05299999996,
      "d": 272.72699999999895,
      "v": 100
    },
    {
      "midi": 64,
      "hit": false,
      "t": 38181.77999999996,
      "d": 272.72699999999895,
      "v": 100
    },
    {
      "midi": 66,
      "hit": false,
      "t": 38181.77999999996,
      "d": 272.72699999999895,
      "v": 100
    },
    {
      "midi": 71,
      "hit": false,
      "t": 38181.77999999996,
      "d": 272.72699999999895,
      "v": 100
    },
    {
      "midi": 47,
      "hit": false,
      "t": 38454.50699999996,
      "d": 272.72699999999895,
      "v": 100
    },
    {
      "midi": 52,
      "hit": false,
      "t": 38727.23399999996,
      "d": 272.72699999999895,
      "v": 100
    },
    {
      "midi": 64,
      "hit": false,
      "t": 38727.23399999996,
      "d": 545.4539999999979,
      "v": 100
    },
    {
      "midi": 66,
      "hit": false,
      "t": 38727.23399999996,
      "d": 545.4539999999979,
      "v": 100
    },
    {
      "midi": 71,
      "hit": false,
      "t": 38727.23399999996,
      "d": 545.4539999999979,
      "v": 100
    },
    {
      "midi": 54,
      "hit": false,
      "t": 38999.96099999996,
      "d": 272.72699999999895,
      "v": 100
    },
    {
      "midi": 68,
      "hit": false,
      "t": 38999.96099999996,
      "d": 272.72699999999895,
      "v": 100
    },
    {
      "midi": 73,
      "hit": false,
      "t": 38999.96099999996,
      "d": 272.72699999999895,
      "v": 100
    },
    {
      "midi": 42,
      "hit": false,
      "t": 39272.68799999996,
      "d": 272.72699999999895,
      "v": 100
    },
    {
      "midi": 68,
      "hit": false,
      "t": 39272.68799999996,
      "d": 272.72699999999895,
      "v": 100
    },
    {
      "midi": 73,
      "hit": false,
      "t": 39272.68799999996,
      "d": 272.72699999999895,
      "v": 100
    },
    {
      "midi": 42,
      "hit": false,
      "t": 39545.41499999996,
      "d": 272.72699999999895,
      "v": 100
    },
    {
      "midi": 70,
      "hit": false,
      "t": 39545.41499999996,
      "d": 272.72699999999895,
      "v": 100
    },
    {
      "midi": 75,
      "hit": false,
      "t": 39545.41499999996,
      "d": 272.72699999999895,
      "v": 100
    },
    {
      "midi": 56,
      "hit": false,
      "t": 39818.141999999956,
      "d": 1636.3619999999937,
      "v": 100
    },
    {
      "midi": 61,
      "hit": false,
      "t": 39818.141999999956,
      "d": 1636.3619999999937,
      "v": 100
    },
    {
      "midi": 66,
      "hit": false,
      "t": 39818.141999999956,
      "d": 1636.3619999999937,
      "v": 100
    },
    {
      "midi": 42,
      "hit": false,
      "t": 40636.32299999995,
      "d": 272.72699999999895,
      "v": 100
    },
    {
      "midi": 54,
      "hit": false,
      "t": 40909.04999999995,
      "d": 545.4539999999979,
      "v": 100
    },
    {
      "midi": 58,
      "hit": false,
      "t": 40909.04999999995,
      "d": 545.4539999999979,
      "v": 100
    },
    {
      "midi": 42,
      "hit": false,
      "t": 41454.50399999995,
      "d": 272.72699999999895,
      "v": 100
    },
    {
      "midi": 42,
      "hit": false,
      "t": 41727.23099999995,
      "d": 272.72699999999895,
      "v": 100
    },
    {
      "midi": 59,
      "hit": false,
      "t": 41999.95799999995,
      "d": 818.1809999999969,
      "v": 100
    },
    {
      "midi": 61,
      "hit": false,
      "t": 41999.95799999995,
      "d": 1090.9079999999958,
      "v": 100
    },
    {
      "midi": 66,
      "hit": false,
      "t": 41999.95799999995,
      "d": 1090.9079999999958,
      "v": 100
    },
    {
      "midi": 75,
      "hit": false,
      "t": 42818.138999999945,
      "d": 272.72699999999895,
      "v": 100
    },
    {
      "midi": 58,
      "hit": false,
      "t": 43090.86599999994,
      "d": 272.72699999999895,
      "v": 100
    },
    {
      "midi": 75,
      "hit": false,
      "t": 43090.86599999994,
      "d": 272.72699999999895,
      "v": 100
    },
    {
      "midi": 51,
      "hit": false,
      "t": 43363.59299999994,
      "d": 272.72699999999895,
      "v": 100
    },
    {
      "midi": 78,
      "hit": false,
      "t": 43363.59299999994,
      "d": 272.72699999999895,
      "v": 100
    },
    {
      "midi": 44,
      "hit": false,
      "t": 43636.31999999994,
      "d": 545.4539999999979,
      "v": 100
    },
    {
      "midi": 66,
      "hit": false,
      "t": 43636.31999999994,
      "d": 545.4539999999979,
      "v": 100
    },
    {
      "midi": 71,
      "hit": false,
      "t": 43636.31999999994,
      "d": 545.4539999999979,
      "v": 100
    },
    {
      "midi": 75,
      "hit": false,
      "t": 43636.31999999994,
      "d": 545.4539999999979,
      "v": 100
    },
    {
      "midi": 66,
      "hit": false,
      "t": 44454.50099999994,
      "d": 272.72699999999895,
      "v": 100
    },
    {
      "midi": 58,
      "hit": false,
      "t": 44727.22799999994,
      "d": 272.72699999999895,
      "v": 100
    },
    {
      "midi": 61,
      "hit": false,
      "t": 44727.22799999994,
      "d": 545.4539999999979,
      "v": 100
    },
    {
      "midi": 42,
      "hit": false,
      "t": 44999.954999999936,
      "d": 272.72699999999895,
      "v": 100
    },
    {
      "midi": 66,
      "hit": false,
      "t": 44999.954999999936,
      "d": 272.72699999999895,
      "v": 100
    },
    {
      "midi": 44,
      "hit": false,
      "t": 45272.681999999935,
      "d": 272.72699999999895,
      "v": 100
    },
    {
      "midi": 59,
      "hit": false,
      "t": 45272.681999999935,
      "d": 545.4539999999979,
      "v": 100
    },
    {
      "midi": 63,
      "hit": false,
      "t": 45272.681999999935,
      "d": 545.4539999999979,
      "v": 100
    },
    {
      "midi": 42,
      "hit": false,
      "t": 45545.408999999934,
      "d": 272.72699999999895,
      "v": 100
    },
    {
      "midi": 40,
      "hit": false,
      "t": 45818.13599999993,
      "d": 272.72699999999895,
      "v": 100
    },
    {
      "midi": 64,
      "hit": false,
      "t": 45818.13599999993,
      "d": 272.72699999999895,
      "v": 100
    },
    {
      "midi": 75,
      "hit": false,
      "t": 45818.13599999993,
      "d": 272.72699999999895,
      "v": 100
    },
    {
      "midi": 40,
      "hit": false,
      "t": 46090.86299999993,
      "d": 272.72699999999895,
      "v": 100
    },
    {
      "midi": 64,
      "hit": false,
      "t": 46090.86299999993,
      "d": 272.72699999999895,
      "v": 100
    },
    {
      "midi": 66,
      "hit": false,
      "t": 46090.86299999993,
      "d": 272.72699999999895,
      "v": 100
    },
    {
      "midi": 71,
      "hit": false,
      "t": 46090.86299999993,
      "d": 272.72699999999895,
      "v": 100
    },
    {
      "midi": 64,
      "hit": false,
      "t": 46363.58999999993,
      "d": 272.72699999999895,
      "v": 100
    },
    {
      "midi": 66,
      "hit": false,
      "t": 46363.58999999993,
      "d": 272.72699999999895,
      "v": 100
    },
    {
      "midi": 71,
      "hit": false,
      "t": 46363.58999999993,
      "d": 272.72699999999895,
      "v": 100
    },
    {
      "midi": 64,
      "hit": false,
      "t": 46636.31699999993,
      "d": 272.72699999999895,
      "v": 100
    },
    {
      "midi": 66,
      "hit": false,
      "t": 46636.31699999993,
      "d": 272.72699999999895,
      "v": 100
    },
    {
      "midi": 71,
      "hit": false,
      "t": 46636.31699999993,
      "d": 272.72699999999895,
      "v": 100
    },
    {
      "midi": 64,
      "hit": false,
      "t": 46909.04399999993,
      "d": 272.72699999999895,
      "v": 100
    },
    {
      "midi": 66,
      "hit": false,
      "t": 46909.04399999993,
      "d": 272.72699999999895,
      "v": 100
    },
    {
      "midi": 71,
      "hit": false,
      "t": 46909.04399999993,
      "d": 272.72699999999895,
      "v": 100
    },
    {
      "midi": 47,
      "hit": false,
      "t": 47181.77099999993,
      "d": 272.72699999999895,
      "v": 100
    },
    {
      "midi": 52,
      "hit": false,
      "t": 47454.49799999993,
      "d": 272.72699999999895,
      "v": 100
    },
    {
      "midi": 64,
      "hit": false,
      "t": 47454.49799999993,
      "d": 272.72699999999895,
      "v": 100
    },
    {
      "midi": 66,
      "hit": false,
      "t": 47454.49799999993,
      "d": 272.72699999999895,
      "v": 100
    },
    {
      "midi": 71,
      "hit": false,
      "t": 47454.49799999993,
      "d": 272.72699999999895,
      "v": 100
    },
    {
      "midi": 54,
      "hit": false,
      "t": 47727.224999999926,
      "d": 272.72699999999895,
      "v": 100
    },
    {
      "midi": 68,
      "hit": false,
      "t": 47727.224999999926,
      "d": 272.72699999999895,
      "v": 100
    },
    {
      "midi": 73,
      "hit": false,
      "t": 47727.224999999926,
      "d": 272.72699999999895,
      "v": 100
    },
    {
      "midi": 42,
      "hit": false,
      "t": 47999.951999999925,
      "d": 272.72699999999895,
      "v": 100
    },
    {
      "midi": 68,
      "hit": false,
      "t": 47999.951999999925,
      "d": 272.72699999999895,
      "v": 100
    },
    {
      "midi": 73,
      "hit": false,
      "t": 47999.951999999925,
      "d": 272.72699999999895,
      "v": 100
    },
    {
      "midi": 42,
      "hit": false,
      "t": 48272.678999999924,
      "d": 272.72699999999895,
      "v": 100
    },
    {
      "midi": 70,
      "hit": false,
      "t": 48272.678999999924,
      "d": 272.72699999999895,
      "v": 100
    },
    {
      "midi": 75,
      "hit": false,
      "t": 48272.678999999924,
      "d": 272.72699999999895,
      "v": 100
    },
    {
      "midi": 56,
      "hit": false,
      "t": 48818.13299999992,
      "d": 818.1809999999969,
      "v": 100
    },
    {
      "midi": 61,
      "hit": false,
      "t": 48818.13299999992,
      "d": 818.1809999999969,
      "v": 100
    },
    {
      "midi": 66,
      "hit": false,
      "t": 48818.13299999992,
      "d": 818.1809999999969,
      "v": 100
    },
    {
      "midi": 42,
      "hit": false,
      "t": 49363.58699999992,
      "d": 272.72699999999895,
      "v": 100
    },
    {
      "midi": 54,
      "hit": false,
      "t": 49636.31399999992,
      "d": 545.4539999999979,
      "v": 100
    },
    {
      "midi": 58,
      "hit": false,
      "t": 49636.31399999992,
      "d": 545.4539999999979,
      "v": 100
    },
    {
      "midi": 42,
      "hit": false,
      "t": 50181.767999999916,
      "d": 272.72699999999895,
      "v": 100
    },
    {
      "midi": 42,
      "hit": false,
      "t": 50454.494999999915,
      "d": 272.72699999999895,
      "v": 100
    },
    {
      "midi": 59,
      "hit": false,
      "t": 50999.94899999991,
      "d": 818.1809999999969,
      "v": 100
    },
    {
      "midi": 61,
      "hit": false,
      "t": 50999.94899999991,
      "d": 818.1809999999969,
      "v": 100
    },
    {
      "midi": 66,
      "hit": false,
      "t": 50999.94899999991,
      "d": 818.1809999999969,
      "v": 100
    },
    {
      "midi": 71,
      "hit": false,
      "t": 51545.40299999991,
      "d": 272.72699999999895,
      "v": 100
    },
    {
      "midi": 73,
      "hit": false,
      "t": 51818.12999999991,
      "d": 272.72699999999895,
      "v": 100
    },
    {
      "midi": 58,
      "hit": false,
      "t": 51818.12999999991,
      "d": 545.4539999999979,
      "v": 100
    },
    {
      "midi": 75,
      "hit": false,
      "t": 52090.85699999991,
      "d": 272.72699999999895,
      "v": 100
    },
    {
      "midi": 47,
      "hit": false,
      "t": 52363.58399999991,
      "d": 272.72699999999895,
      "v": 100
    },
    {
      "midi": 75,
      "hit": false,
      "t": 52363.58399999991,
      "d": 545.4539999999979,
      "v": 100
    },
    {
      "midi": 47,
      "hit": false,
      "t": 52636.31099999991,
      "d": 272.72699999999895,
      "v": 100
    },
    {
      "midi": 59,
      "hit": false,
      "t": 53454.491999999904,
      "d": 545.4539999999979,
      "v": 100
    },
    {
      "midi": 61,
      "hit": false,
      "t": 53454.491999999904,
      "d": 545.4539999999979,
      "v": 100
    },
    {
      "midi": 63,
      "hit": false,
      "t": 53454.491999999904,
      "d": 545.4539999999979,
      "v": 100
    },
    {
      "midi": 75,
      "hit": false,
      "t": 53999.9459999999,
      "d": 272.72699999999895,
      "v": 100
    },
    {
      "midi": 42,
      "hit": false,
      "t": 54272.6729999999,
      "d": 272.72699999999895,
      "v": 100
    },
    {
      "midi": 78,
      "hit": false,
      "t": 54272.6729999999,
      "d": 272.72699999999895,
      "v": 100
    },
    {
      "midi": 47,
      "hit": false,
      "t": 54545.3999999999,
      "d": 272.72699999999895,
      "v": 100
    },
    {
      "midi": 75,
      "hit": false,
      "t": 54545.3999999999,
      "d": 545.4539999999979,
      "v": 100
    },
    {
      "midi": 47,
      "hit": false,
      "t": 54818.1269999999,
      "d": 272.72699999999895,
      "v": 100
    },
    {
      "midi": 58,
      "hit": false,
      "t": 55363.5809999999,
      "d": 818.1809999999969,
      "v": 100
    },
    {
      "midi": 61,
      "hit": false,
      "t": 55363.5809999999,
      "d": 818.1809999999969,
      "v": 100
    },
    {
      "midi": 66,
      "hit": false,
      "t": 55363.5809999999,
      "d": 818.1809999999969,
      "v": 100
    },
    {
      "midi": 73,
      "hit": false,
      "t": 56181.76199999989,
      "d": 272.72699999999895,
      "v": 100
    },
    {
      "midi": 42,
      "hit": false,
      "t": 56454.48899999989,
      "d": 272.72699999999895,
      "v": 100
    },
    {
      "midi": 75,
      "hit": false,
      "t": 56454.48899999989,
      "d": 272.72699999999895,
      "v": 100
    },
    {
      "midi": 47,
      "hit": false,
      "t": 56727.21599999989,
      "d": 272.72699999999895,
      "v": 100
    },
    {
      "midi": 76,
      "hit": false,
      "t": 56727.21599999989,
      "d": 272.72699999999895,
      "v": 100
    },
    {
      "midi": 47,
      "hit": false,
      "t": 56999.94299999989,
      "d": 272.72699999999895,
      "v": 100
    },
    {
      "midi": 76,
      "hit": false,
      "t": 56999.94299999989,
      "d": 272.72699999999895,
      "v": 100
    },
    {
      "midi": 58,
      "hit": false,
      "t": 57545.39699999989,
      "d": 272.72699999999895,
      "v": 100
    },
    {
      "midi": 59,
      "hit": false,
      "t": 57545.39699999989,
      "d": 818.1809999999969,
      "v": 100
    },
    {
      "midi": 64,
      "hit": false,
      "t": 57545.39699999989,
      "d": 818.1809999999969,
      "v": 100
    },
    {
      "midi": 76,
      "hit": false,
      "t": 57545.39699999989,
      "d": 818.1809999999969,
      "v": 100
    },
    {
      "midi": 64,
      "hit": false,
      "t": 58363.577999999885,
      "d": 272.72699999999895,
      "v": 100
    },
    {
      "midi": 73,
      "hit": false,
      "t": 58363.577999999885,
      "d": 272.72699999999895,
      "v": 100
    },
    {
      "midi": 42,
      "hit": false,
      "t": 58636.304999999884,
      "d": 272.72699999999895,
      "v": 100
    },
    {
      "midi": 66,
      "hit": false,
      "t": 58636.304999999884,
      "d": 272.72699999999895,
      "v": 100
    },
    {
      "midi": 75,
      "hit": false,
      "t": 58636.304999999884,
      "d": 272.72699999999895,
      "v": 100
    },
    {
      "midi": 47,
      "hit": false,
      "t": 58909.03199999988,
      "d": 272.72699999999895,
      "v": 100
    },
    {
      "midi": 68,
      "hit": false,
      "t": 58909.03199999988,
      "d": 272.72699999999895,
      "v": 100
    },
    {
      "midi": 76,
      "hit": false,
      "t": 58909.03199999988,
      "d": 272.72699999999895,
      "v": 100
    },
    {
      "midi": 47,
      "hit": false,
      "t": 59181.75899999988,
      "d": 272.72699999999895,
      "v": 100
    },
    {
      "midi": 68,
      "hit": false,
      "t": 59181.75899999988,
      "d": 272.72699999999895,
      "v": 100
    },
    {
      "midi": 76,
      "hit": false,
      "t": 59181.75899999988,
      "d": 272.72699999999895,
      "v": 100
    },
    {
      "midi": 68,
      "hit": false,
      "t": 59454.48599999988,
      "d": 272.72699999999895,
      "v": 100
    },
    {
      "midi": 76,
      "hit": false,
      "t": 59454.48599999988,
      "d": 272.72699999999895,
      "v": 100
    },
    {
      "midi": 68,
      "hit": false,
      "t": 59727.21299999988,
      "d": 272.72699999999895,
      "v": 100
    },
    {
      "midi": 76,
      "hit": false,
      "t": 59727.21299999988,
      "d": 272.72699999999895,
      "v": 100
    },
    {
      "midi": 59,
      "hit": false,
      "t": 59727.21299999988,
      "d": 818.1809999999969,
      "v": 100
    },
    {
      "midi": 64,
      "hit": false,
      "t": 59727.21299999988,
      "d": 818.1809999999969,
      "v": 100
    },
    {
      "midi": 66,
      "hit": false,
      "t": 59999.93999999988,
      "d": 545.4539999999979,
      "v": 100
    },
    {
      "midi": 75,
      "hit": false,
      "t": 59999.93999999988,
      "d": 545.4539999999979,
      "v": 100
    },
    {
      "midi": 58,
      "hit": false,
      "t": 60545.39399999988,
      "d": 272.72699999999895,
      "v": 100
    },
    {
      "midi": 64,
      "hit": false,
      "t": 60545.39399999988,
      "d": 272.72699999999895,
      "v": 100
    },
    {
      "midi": 73,
      "hit": false,
      "t": 60545.39399999988,
      "d": 272.72699999999895,
      "v": 100
    },
    {
      "midi": 59,
      "hit": false,
      "t": 60818.120999999875,
      "d": 272.72699999999895,
      "v": 100
    },
    {
      "midi": 66,
      "hit": false,
      "t": 60818.120999999875,
      "d": 272.72699999999895,
      "v": 100
    },
    {
      "midi": 75,
      "hit": false,
      "t": 60818.120999999875,
      "d": 272.72699999999895,
      "v": 100
    },
    {
      "midi": 47,
      "hit": false,
      "t": 61090.847999999874,
      "d": 272.72699999999895,
      "v": 100
    },
    {
      "midi": 66,
      "hit": false,
      "t": 61090.847999999874,
      "d": 545.4539999999979,
      "v": 100
    },
    {
      "midi": 75,
      "hit": false,
      "t": 61090.847999999874,
      "d": 545.4539999999979,
      "v": 100
    },
    {
      "midi": 47,
      "hit": false,
      "t": 61363.57499999987,
      "d": 272.72699999999895,
      "v": 100
    },
    {
      "midi": 59,
      "hit": false,
      "t": 61909.02899999987,
      "d": 818.1809999999969,
      "v": 100
    },
    {
      "midi": 61,
      "hit": false,
      "t": 61909.02899999987,
      "d": 818.1809999999969,
      "v": 100
    },
    {
      "midi": 66,
      "hit": false,
      "t": 61909.02899999987,
      "d": 818.1809999999969,
      "v": 100
    },
    {
      "midi": 47,
      "hit": false,
      "t": 62727.20999999987,
      "d": 272.72699999999895,
      "v": 100
    },
    {
      "midi": 63,
      "hit": false,
      "t": 62727.20999999987,
      "d": 545.4539999999979,
      "v": 100
    },
    {
      "midi": 42,
      "hit": false,
      "t": 62999.93699999987,
      "d": 272.72699999999895,
      "v": 100
    },
    {
      "midi": 47,
      "hit": false,
      "t": 63272.663999999866,
      "d": 272.72699999999895,
      "v": 100
    },
    {
      "midi": 47,
      "hit": false,
      "t": 63545.390999999865,
      "d": 272.72699999999895,
      "v": 100
    },
    {
      "midi": 58,
      "hit": false,
      "t": 64090.84499999986,
      "d": 818.1809999999969,
      "v": 100
    },
    {
      "midi": 61,
      "hit": false,
      "t": 64090.84499999986,
      "d": 818.1809999999969,
      "v": 100
    },
    {
      "midi": 66,
      "hit": false,
      "t": 64090.84499999986,
      "d": 818.1809999999969,
      "v": 100
    },
    {
      "midi": 73,
      "hit": false,
      "t": 64909.02599999986,
      "d": 272.72699999999895,
      "v": 100
    },
    {
      "midi": 42,
      "hit": false,
      "t": 65181.75299999986,
      "d": 272.72699999999895,
      "v": 100
    },
    {
      "midi": 75,
      "hit": false,
      "t": 65181.75299999986,
      "d": 272.72699999999895,
      "v": 100
    },
    {
      "midi": 76,
      "hit": false,
      "t": 65454.47999999986,
      "d": 272.7270000000062,
      "v": 100
    },
    {
      "midi": 47,
      "hit": false,
      "t": 65454.47999999986,
      "d": 545.4540000000052,
      "v": 100
    },
    {
      "midi": 76,
      "hit": false,
      "t": 65727.20699999986,
      "d": 272.72699999999895,
      "v": 100
    },
    {
      "midi": 58,
      "hit": false,
      "t": 66272.66099999986,
      "d": 818.1809999999969,
      "v": 100
    },
    {
      "midi": 59,
      "hit": false,
      "t": 66272.66099999986,
      "d": 818.1809999999969,
      "v": 100
    },
    {
      "midi": 64,
      "hit": false,
      "t": 66272.66099999986,
      "d": 818.1809999999969,
      "v": 100
    },
    {
      "midi": 76,
      "hit": false,
      "t": 66272.66099999986,
      "d": 818.1809999999969,
      "v": 100
    },
    {
      "midi": 64,
      "hit": false,
      "t": 67090.84199999986,
      "d": 272.72699999999895,
      "v": 100
    },
    {
      "midi": 73,
      "hit": false,
      "t": 67090.84199999986,
      "d": 272.72699999999895,
      "v": 100
    },
    {
      "midi": 42,
      "hit": false,
      "t": 67363.56899999986,
      "d": 272.72699999999895,
      "v": 100
    },
    {
      "midi": 66,
      "hit": false,
      "t": 67363.56899999986,
      "d": 272.72699999999895,
      "v": 100
    },
    {
      "midi": 75,
      "hit": false,
      "t": 67363.56899999986,
      "d": 272.72699999999895,
      "v": 100
    },
    {
      "midi": 68,
      "hit": false,
      "t": 67636.29599999986,
      "d": 272.72699999999895,
      "v": 100
    },
    {
      "midi": 76,
      "hit": false,
      "t": 67636.29599999986,
      "d": 272.72699999999895,
      "v": 100
    },
    {
      "midi": 47,
      "hit": false,
      "t": 67636.29599999986,
      "d": 545.4539999999979,
      "v": 100
    },
    {
      "midi": 68,
      "hit": false,
      "t": 67909.02299999986,
      "d": 272.72699999999895,
      "v": 100
    },
    {
      "midi": 76,
      "hit": false,
      "t": 67909.02299999986,
      "d": 272.72699999999895,
      "v": 100
    },
    {
      "midi": 68,
      "hit": false,
      "t": 68181.74999999985,
      "d": 272.72699999999895,
      "v": 100
    },
    {
      "midi": 76,
      "hit": false,
      "t": 68181.74999999985,
      "d": 272.72699999999895,
      "v": 100
    },
    {
      "midi": 70,
      "hit": false,
      "t": 68454.47699999985,
      "d": 272.72699999999895,
      "v": 100
    },
    {
      "midi": 78,
      "hit": false,
      "t": 68454.47699999985,
      "d": 272.72699999999895,
      "v": 100
    },
    {
      "midi": 66,
      "hit": false,
      "t": 68727.20399999985,
      "d": 545.4539999999979,
      "v": 100
    },
    {
      "midi": 75,
      "hit": false,
      "t": 68727.20399999985,
      "d": 545.4539999999979,
      "v": 100
    },
    {
      "midi": 49,
      "hit": false,
      "t": 68999.93099999985,
      "d": 272.72699999999895,
      "v": 100
    },
    {
      "midi": 51,
      "hit": false,
      "t": 69272.65799999985,
      "d": 272.72699999999895,
      "v": 100
    },
    {
      "midi": 73,
      "hit": false,
      "t": 69272.65799999985,
      "d": 272.72699999999895,
      "v": 100
    },
    {
      "midi": 39,
      "hit": false,
      "t": 69545.38499999985,
      "d": 272.72699999999895,
      "v": 100
    },
    {
      "midi": 68,
      "hit": false,
      "t": 69545.38499999985,
      "d": 272.72699999999895,
      "v": 100
    },
    {
      "midi": 73,
      "hit": false,
      "t": 69545.38499999985,
      "d": 272.72699999999895,
      "v": 100
    },
    {
      "midi": 44,
      "hit": false,
      "t": 69818.11199999985,
      "d": 272.7270000000135,
      "v": 100
    },
    {
      "midi": 68,
      "hit": false,
      "t": 69818.11199999985,
      "d": 272.7270000000135,
      "v": 100
    },
    {
      "midi": 73,
      "hit": false,
      "t": 69818.11199999985,
      "d": 272.7270000000135,
      "v": 100
    },
    {
      "midi": 71,
      "hit": false,
      "t": 69954.47549999985,
      "d": 136.36350000000675,
      "v": 100
    },
    {
      "midi": 68,
      "hit": false,
      "t": 70090.83899999986,
      "d": 272.72699999999895,
      "v": 100
    },
    {
      "midi": 66,
      "hit": false,
      "t": 70363.56599999986,
      "d": 272.72699999999895,
      "v": 100
    },
    {
      "midi": 58,
      "hit": false,
      "t": 70636.29299999986,
      "d": 272.72699999999895,
      "v": 100
    },
    {
      "midi": 61,
      "hit": false,
      "t": 70636.29299999986,
      "d": 272.72699999999895,
      "v": 100
    },
    {
      "midi": 58,
      "hit": false,
      "t": 70909.01999999986,
      "d": 272.72699999999895,
      "v": 100
    },
    {
      "midi": 61,
      "hit": false,
      "t": 70909.01999999986,
      "d": 272.72699999999895,
      "v": 100
    },
    {
      "midi": 42,
      "hit": false,
      "t": 71181.74699999986,
      "d": 272.72699999999895,
      "v": 100
    },
    {
      "midi": 66,
      "hit": false,
      "t": 71181.74699999986,
      "d": 272.72699999999895,
      "v": 100
    },
    {
      "midi": 44,
      "hit": false,
      "t": 71454.47399999986,
      "d": 272.72699999999895,
      "v": 100
    },
    {
      "midi": 59,
      "hit": false,
      "t": 71454.47399999986,
      "d": 545.4539999999979,
      "v": 100
    },
    {
      "midi": 63,
      "hit": false,
      "t": 71454.47399999986,
      "d": 545.4539999999979,
      "v": 100
    },
    {
      "midi": 40,
      "hit": false,
      "t": 71727.20099999986,
      "d": 272.72699999999895,
      "v": 100
    },
    {
      "midi": 40,
      "hit": false,
      "t": 71999.92799999985,
      "d": 272.72699999999895,
      "v": 100
    },
    {
      "midi": 64,
      "hit": false,
      "t": 71999.92799999985,
      "d": 272.72699999999895,
      "v": 100
    },
    {
      "midi": 75,
      "hit": false,
      "t": 71999.92799999985,
      "d": 272.72699999999895,
      "v": 100
    },
    {
      "midi": 40,
      "hit": false,
      "t": 72272.65499999985,
      "d": 272.72699999999895,
      "v": 100
    },
    {
      "midi": 64,
      "hit": false,
      "t": 72272.65499999985,
      "d": 272.72699999999895,
      "v": 100
    },
    {
      "midi": 66,
      "hit": false,
      "t": 72272.65499999985,
      "d": 272.72699999999895,
      "v": 100
    },
    {
      "midi": 71,
      "hit": false,
      "t": 72272.65499999985,
      "d": 272.72699999999895,
      "v": 100
    },
    {
      "midi": 64,
      "hit": false,
      "t": 72545.38199999985,
      "d": 272.72699999999895,
      "v": 100
    },
    {
      "midi": 66,
      "hit": false,
      "t": 72545.38199999985,
      "d": 272.72699999999895,
      "v": 100
    },
    {
      "midi": 71,
      "hit": false,
      "t": 72545.38199999985,
      "d": 272.72699999999895,
      "v": 100
    },
    {
      "midi": 64,
      "hit": false,
      "t": 72818.10899999985,
      "d": 272.72699999999895,
      "v": 100
    },
    {
      "midi": 66,
      "hit": false,
      "t": 72818.10899999985,
      "d": 272.72699999999895,
      "v": 100
    },
    {
      "midi": 71,
      "hit": false,
      "t": 72818.10899999985,
      "d": 272.72699999999895,
      "v": 100
    },
    {
      "midi": 64,
      "hit": false,
      "t": 73090.83599999985,
      "d": 272.72699999999895,
      "v": 100
    },
    {
      "midi": 66,
      "hit": false,
      "t": 73090.83599999985,
      "d": 272.72699999999895,
      "v": 100
    },
    {
      "midi": 71,
      "hit": false,
      "t": 73090.83599999985,
      "d": 272.72699999999895,
      "v": 100
    },
    {
      "midi": 47,
      "hit": false,
      "t": 73363.56299999985,
      "d": 272.72699999999895,
      "v": 100
    },
    {
      "midi": 52,
      "hit": false,
      "t": 73636.28999999985,
      "d": 272.72699999999895,
      "v": 100
    },
    {
      "midi": 64,
      "hit": false,
      "t": 73636.28999999985,
      "d": 545.4539999999979,
      "v": 100
    },
    {
      "midi": 66,
      "hit": false,
      "t": 73636.28999999985,
      "d": 545.4539999999979,
      "v": 100
    },
    {
      "midi": 71,
      "hit": false,
      "t": 73636.28999999985,
      "d": 545.4539999999979,
      "v": 100
    },
    {
      "midi": 54,
      "hit": false,
      "t": 73909.01699999985,
      "d": 272.72699999999895,
      "v": 100
    },
    {
      "midi": 68,
      "hit": false,
      "t": 73909.01699999985,
      "d": 272.72699999999895,
      "v": 100
    },
    {
      "midi": 73,
      "hit": false,
      "t": 73909.01699999985,
      "d": 272.72699999999895,
      "v": 100
    },
    {
      "midi": 42,
      "hit": false,
      "t": 74181.74399999985,
      "d": 272.72699999999895,
      "v": 100
    },
    {
      "midi": 68,
      "hit": false,
      "t": 74181.74399999985,
      "d": 272.72699999999895,
      "v": 100
    },
    {
      "midi": 73,
      "hit": false,
      "t": 74181.74399999985,
      "d": 272.72699999999895,
      "v": 100
    },
    {
      "midi": 42,
      "hit": false,
      "t": 74454.47099999984,
      "d": 272.72699999999895,
      "v": 100
    },
    {
      "midi": 70,
      "hit": false,
      "t": 74454.47099999984,
      "d": 272.72699999999895,
      "v": 100
    },
    {
      "midi": 75,
      "hit": false,
      "t": 74454.47099999984,
      "d": 272.72699999999895,
      "v": 100
    },
    {
      "midi": 56,
      "hit": false,
      "t": 74727.19799999984,
      "d": 1636.3619999999937,
      "v": 100
    },
    {
      "midi": 61,
      "hit": false,
      "t": 74727.19799999984,
      "d": 1636.3619999999937,
      "v": 100
    },
    {
      "midi": 66,
      "hit": false,
      "t": 74727.19799999984,
      "d": 1636.3619999999937,
      "v": 100
    },
    {
      "midi": 42,
      "hit": false,
      "t": 75545.37899999984,
      "d": 272.72699999999895,
      "v": 100
    },
    {
      "midi": 54,
      "hit": false,
      "t": 75818.10599999984,
      "d": 545.4539999999979,
      "v": 100
    },
    {
      "midi": 58,
      "hit": false,
      "t": 75818.10599999984,
      "d": 545.4539999999979,
      "v": 100
    },
    {
      "midi": 42,
      "hit": false,
      "t": 76363.55999999984,
      "d": 272.72699999999895,
      "v": 100
    },
    {
      "midi": 42,
      "hit": false,
      "t": 76636.28699999984,
      "d": 272.72699999999895,
      "v": 100
    },
    {
      "midi": 59,
      "hit": false,
      "t": 76909.01399999984,
      "d": 818.1809999999969,
      "v": 100
    },
    {
      "midi": 61,
      "hit": false,
      "t": 76909.01399999984,
      "d": 1090.9079999999958,
      "v": 100
    },
    {
      "midi": 66,
      "hit": false,
      "t": 76909.01399999984,
      "d": 1090.9079999999958,
      "v": 100
    },
    {
      "midi": 75,
      "hit": false,
      "t": 77727.19499999983,
      "d": 272.72699999999895,
      "v": 100
    },
    {
      "midi": 58,
      "hit": false,
      "t": 77999.92199999983,
      "d": 272.72699999999895,
      "v": 100
    },
    {
      "midi": 75,
      "hit": false,
      "t": 77999.92199999983,
      "d": 272.72699999999895,
      "v": 100
    },
    {
      "midi": 51,
      "hit": false,
      "t": 78272.64899999983,
      "d": 272.72699999999895,
      "v": 100
    },
    {
      "midi": 78,
      "hit": false,
      "t": 78272.64899999983,
      "d": 272.72699999999895,
      "v": 100
    },
    {
      "midi": 44,
      "hit": false,
      "t": 78545.37599999983,
      "d": 545.4539999999979,
      "v": 100
    },
    {
      "midi": 66,
      "hit": false,
      "t": 78545.37599999983,
      "d": 545.4539999999979,
      "v": 100
    },
    {
      "midi": 71,
      "hit": false,
      "t": 78545.37599999983,
      "d": 545.4539999999979,
      "v": 100
    },
    {
      "midi": 75,
      "hit": false,
      "t": 78545.37599999983,
      "d": 545.4539999999979,
      "v": 100
    },
    {
      "midi": 66,
      "hit": false,
      "t": 79363.55699999983,
      "d": 272.72699999999895,
      "v": 100
    },
    {
      "midi": 58,
      "hit": false,
      "t": 79636.28399999983,
      "d": 272.72699999999895,
      "v": 100
    },
    {
      "midi": 61,
      "hit": false,
      "t": 79636.28399999983,
      "d": 545.4539999999979,
      "v": 100
    },
    {
      "midi": 42,
      "hit": false,
      "t": 79909.01099999982,
      "d": 272.72699999999895,
      "v": 100
    },
    {
      "midi": 66,
      "hit": false,
      "t": 79909.01099999982,
      "d": 272.72699999999895,
      "v": 100
    },
    {
      "midi": 44,
      "hit": false,
      "t": 80181.73799999982,
      "d": 272.72699999999895,
      "v": 100
    },
    {
      "midi": 59,
      "hit": false,
      "t": 80181.73799999982,
      "d": 545.4539999999979,
      "v": 100
    },
    {
      "midi": 63,
      "hit": false,
      "t": 80181.73799999982,
      "d": 545.4539999999979,
      "v": 100
    },
    {
      "midi": 42,
      "hit": false,
      "t": 80454.46499999982,
      "d": 272.72699999999895,
      "v": 100
    },
    {
      "midi": 40,
      "hit": false,
      "t": 80727.19199999982,
      "d": 272.72699999999895,
      "v": 100
    },
    {
      "midi": 64,
      "hit": false,
      "t": 80727.19199999982,
      "d": 272.72699999999895,
      "v": 100
    },
    {
      "midi": 75,
      "hit": false,
      "t": 80727.19199999982,
      "d": 272.72699999999895,
      "v": 100
    },
    {
      "midi": 40,
      "hit": false,
      "t": 80999.91899999982,
      "d": 272.72699999999895,
      "v": 100
    },
    {
      "midi": 64,
      "hit": false,
      "t": 80999.91899999982,
      "d": 272.72699999999895,
      "v": 100
    },
    {
      "midi": 66,
      "hit": false,
      "t": 80999.91899999982,
      "d": 272.72699999999895,
      "v": 100
    },
    {
      "midi": 71,
      "hit": false,
      "t": 80999.91899999982,
      "d": 272.72699999999895,
      "v": 100
    },
    {
      "midi": 64,
      "hit": false,
      "t": 81272.64599999982,
      "d": 272.72699999999895,
      "v": 100
    },
    {
      "midi": 66,
      "hit": false,
      "t": 81272.64599999982,
      "d": 272.72699999999895,
      "v": 100
    },
    {
      "midi": 71,
      "hit": false,
      "t": 81272.64599999982,
      "d": 272.72699999999895,
      "v": 100
    },
    {
      "midi": 64,
      "hit": false,
      "t": 81545.37299999982,
      "d": 272.72699999999895,
      "v": 100
    },
    {
      "midi": 66,
      "hit": false,
      "t": 81545.37299999982,
      "d": 272.72699999999895,
      "v": 100
    },
    {
      "midi": 71,
      "hit": false,
      "t": 81545.37299999982,
      "d": 272.72699999999895,
      "v": 100
    },
    {
      "midi": 64,
      "hit": false,
      "t": 81818.09999999982,
      "d": 272.72699999999895,
      "v": 100
    },
    {
      "midi": 66,
      "hit": false,
      "t": 81818.09999999982,
      "d": 272.72699999999895,
      "v": 100
    },
    {
      "midi": 71,
      "hit": false,
      "t": 81818.09999999982,
      "d": 272.72699999999895,
      "v": 100
    },
    {
      "midi": 47,
      "hit": false,
      "t": 82090.82699999982,
      "d": 272.72699999999895,
      "v": 100
    },
    {
      "midi": 52,
      "hit": false,
      "t": 82363.55399999981,
      "d": 272.72699999999895,
      "v": 100
    },
    {
      "midi": 64,
      "hit": false,
      "t": 82363.55399999981,
      "d": 272.72699999999895,
      "v": 100
    },
    {
      "midi": 66,
      "hit": false,
      "t": 82363.55399999981,
      "d": 272.72699999999895,
      "v": 100
    },
    {
      "midi": 71,
      "hit": false,
      "t": 82363.55399999981,
      "d": 272.72699999999895,
      "v": 100
    },
    {
      "midi": 54,
      "hit": false,
      "t": 82636.28099999981,
      "d": 272.72699999999895,
      "v": 100
    },
    {
      "midi": 68,
      "hit": false,
      "t": 82636.28099999981,
      "d": 272.72699999999895,
      "v": 100
    },
    {
      "midi": 73,
      "hit": false,
      "t": 82636.28099999981,
      "d": 272.72699999999895,
      "v": 100
    },
    {
      "midi": 42,
      "hit": false,
      "t": 82909.00799999981,
      "d": 272.72699999999895,
      "v": 100
    },
    {
      "midi": 68,
      "hit": false,
      "t": 82909.00799999981,
      "d": 272.72699999999895,
      "v": 100
    },
    {
      "midi": 73,
      "hit": false,
      "t": 82909.00799999981,
      "d": 272.72699999999895,
      "v": 100
    },
    {
      "midi": 42,
      "hit": false,
      "t": 83181.73499999981,
      "d": 272.72699999999895,
      "v": 100
    },
    {
      "midi": 70,
      "hit": false,
      "t": 83181.73499999981,
      "d": 272.72699999999895,
      "v": 100
    },
    {
      "midi": 75,
      "hit": false,
      "t": 83181.73499999981,
      "d": 272.72699999999895,
      "v": 100
    },
    {
      "midi": 56,
      "hit": false,
      "t": 83727.18899999981,
      "d": 818.1809999999969,
      "v": 100
    },
    {
      "midi": 61,
      "hit": false,
      "t": 83727.18899999981,
      "d": 818.1809999999969,
      "v": 100
    },
    {
      "midi": 66,
      "hit": false,
      "t": 83727.18899999981,
      "d": 818.1809999999969,
      "v": 100
    },
    {
      "midi": 42,
      "hit": false,
      "t": 84272.6429999998,
      "d": 272.72699999999895,
      "v": 100
    },
    {
      "midi": 54,
      "hit": false,
      "t": 84545.3699999998,
      "d": 545.4539999999979,
      "v": 100
    },
    {
      "midi": 58,
      "hit": false,
      "t": 84545.3699999998,
      "d": 545.4539999999979,
      "v": 100
    },
    {
      "midi": 42,
      "hit": false,
      "t": 85090.8239999998,
      "d": 272.72699999999895,
      "v": 100
    },
    {
      "midi": 42,
      "hit": false,
      "t": 85363.5509999998,
      "d": 272.72699999999895,
      "v": 100
    },
    {
      "midi": 59,
      "hit": false,
      "t": 85909.0049999998,
      "d": 818.1809999999969,
      "v": 100
    },
    {
      "midi": 61,
      "hit": false,
      "t": 85909.0049999998,
      "d": 818.1809999999969,
      "v": 100
    },
    {
      "midi": 68,
      "hit": false,
      "t": 85909.0049999998,
      "d": 818.1809999999969,
      "v": 100
    },
    {
      "midi": 54,
      "hit": false,
      "t": 86727.1859999998,
      "d": 272.72699999999895,
      "v": 100
    },
    {
      "midi": 58,
      "hit": false,
      "t": 86727.1859999998,
      "d": 545.4539999999979,
      "v": 100
    },
    {
      "midi": 61,
      "hit": false,
      "t": 86727.1859999998,
      "d": 545.4539999999979,
      "v": 100
    },
    {
      "midi": 66,
      "hit": false,
      "t": 86727.1859999998,
      "d": 545.4539999999979,
      "v": 100
    },
    {
      "midi": 70,
      "hit": false,
      "t": 86727.1859999998,
      "d": 545.4539999999979,
      "v": 100
    },
    {
      "midi": 42,
      "hit": false,
      "t": 86999.9129999998,
      "d": 272.72699999999895,
      "v": 100
    },
    {
      "midi": 71,
      "hit": false,
      "t": 87272.6399999998,
      "d": 272.72699999999895,
      "v": 100
    },
    {
      "midi": 76,
      "hit": false,
      "t": 87272.6399999998,
      "d": 272.72699999999895,
      "v": 100
    },
    {
      "midi": 80,
      "hit": false,
      "t": 87272.6399999998,
      "d": 272.72699999999895,
      "v": 100
    },
    {
      "midi": 40,
      "hit": false,
      "t": 87272.6399999998,
      "d": 545.4539999999979,
      "v": 100
    },
    {
      "midi": 75,
      "hit": false,
      "t": 87818.0939999998,
      "d": 545.4539999999979,
      "v": 100
    },
    {
      "midi": 83,
      "hit": false,
      "t": 87818.0939999998,
      "d": 545.4539999999979,
      "v": 100
    },
    {
      "midi": 42,
      "hit": false,
      "t": 87818.0939999998,
      "d": 1636.3619999999937,
      "v": 100
    },
    {
      "midi": 73,
      "hit": false,
      "t": 88090.82099999979,
      "d": 818.1809999999969,
      "v": 100
    },
    {
      "midi": 82,
      "hit": false,
      "t": 88090.82099999979,
      "d": 818.1809999999969,
      "v": 100
    },
    {
      "midi": 70,
      "hit": false,
      "t": 88636.27499999979,
      "d": 272.72699999999895,
      "v": 100
    },
    {
      "midi": 78,
      "hit": false,
      "t": 88636.27499999979,
      "d": 272.72699999999895,
      "v": 100
    },
    {
      "midi": 73,
      "hit": false,
      "t": 88909.00199999979,
      "d": 272.72699999999895,
      "v": 100
    },
    {
      "midi": 71,
      "hit": false,
      "t": 89181.72899999979,
      "d": 272.72699999999895,
      "v": 100
    },
    {
      "midi": 76,
      "hit": false,
      "t": 89181.72899999979,
      "d": 272.72699999999895,
      "v": 100
    },
    {
      "midi": 80,
      "hit": false,
      "t": 89181.72899999979,
      "d": 272.72699999999895,
      "v": 100
    },
    {
      "midi": 40,
      "hit": false,
      "t": 89454.45599999979,
      "d": 545.4539999999979,
      "v": 100
    },
    {
      "midi": 75,
      "hit": false,
      "t": 89454.45599999979,
      "d": 545.4539999999979,
      "v": 100
    },
    {
      "midi": 83,
      "hit": false,
      "t": 89454.45599999979,
      "d": 545.4539999999979,
      "v": 100
    },
    {
      "midi": 73,
      "hit": false,
      "t": 89999.90999999979,
      "d": 545.4539999999979,
      "v": 100
    },
    {
      "midi": 82,
      "hit": false,
      "t": 89999.90999999979,
      "d": 545.4539999999979,
      "v": 100
    },
    {
      "midi": 42,
      "hit": false,
      "t": 89999.90999999979,
      "d": 1636.3619999999937,
      "v": 100
    },
    {
      "midi": 70,
      "hit": false,
      "t": 90545.36399999978,
      "d": 545.4539999999979,
      "v": 100
    },
    {
      "midi": 78,
      "hit": false,
      "t": 90545.36399999978,
      "d": 545.4539999999979,
      "v": 100
    },
    {
      "midi": 66,
      "hit": false,
      "t": 91090.81799999978,
      "d": 818.1809999999969,
      "v": 100
    },
    {
      "midi": 70,
      "hit": false,
      "t": 91090.81799999978,
      "d": 818.1809999999969,
      "v": 100
    },
    {
      "midi": 73,
      "hit": false,
      "t": 91090.81799999978,
      "d": 818.1809999999969,
      "v": 100
    },
    {
      "midi": 44,
      "hit": false,
      "t": 91636.27199999978,
      "d": 272.72699999999895,
      "v": 100
    },
    {
      "midi": 44,
      "hit": false,
      "t": 91908.99899999978,
      "d": 272.72699999999895,
      "v": 100
    },
    {
      "midi": 68,
      "hit": false,
      "t": 91908.99899999978,
      "d": 272.72699999999895,
      "v": 100
    },
    {
      "midi": 71,
      "hit": false,
      "t": 91908.99899999978,
      "d": 272.72699999999895,
      "v": 100
    },
    {
      "midi": 75,
      "hit": false,
      "t": 91908.99899999978,
      "d": 272.72699999999895,
      "v": 100
    },
    {
      "midi": 58,
      "hit": false,
      "t": 92454.45299999978,
      "d": 818.1809999999969,
      "v": 100
    },
    {
      "midi": 61,
      "hit": false,
      "t": 92454.45299999978,
      "d": 818.1809999999969,
      "v": 100
    },
    {
      "midi": 42,
      "hit": false,
      "t": 92999.90699999977,
      "d": 272.72699999999895,
      "v": 100
    },
    {
      "midi": 39,
      "hit": false,
      "t": 93272.63399999977,
      "d": 272.72699999999895,
      "v": 100
    },
    {
      "midi": 59,
      "hit": false,
      "t": 93272.63399999977,
      "d": 545.4539999999979,
      "v": 100
    },
    {
      "midi": 63,
      "hit": false,
      "t": 93272.63399999977,
      "d": 545.4539999999979,
      "v": 100
    },
    {
      "midi": 44,
      "hit": false,
      "t": 93545.36099999977,
      "d": 272.72699999999895,
      "v": 100
    },
    {
      "midi": 44,
      "hit": false,
      "t": 93818.08799999977,
      "d": 272.72699999999895,
      "v": 100
    },
    {
      "midi": 44,
      "hit": false,
      "t": 94090.81499999977,
      "d": 272.72699999999895,
      "v": 100
    },
    {
      "midi": 58,
      "hit": false,
      "t": 94636.26899999977,
      "d": 818.1809999999969,
      "v": 100
    },
    {
      "midi": 61,
      "hit": false,
      "t": 94636.26899999977,
      "d": 818.1809999999969,
      "v": 100
    },
    {
      "midi": 42,
      "hit": false,
      "t": 94908.99599999977,
      "d": 272.72699999999895,
      "v": 100
    },
    {
      "midi": 39,
      "hit": false,
      "t": 95181.72299999977,
      "d": 272.72699999999895,
      "v": 100
    },
    {
      "midi": 44,
      "hit": false,
      "t": 95454.44999999976,
      "d": 272.72699999999895,
      "v": 100
    },
    {
      "midi": 59,
      "hit": false,
      "t": 95454.44999999976,
      "d": 545.4539999999979,
      "v": 100
    },
    {
      "midi": 63,
      "hit": false,
      "t": 95454.44999999976,
      "d": 545.4539999999979,
      "v": 100
    },
    {
      "midi": 42,
      "hit": false,
      "t": 95727.17699999976,
      "d": 272.72699999999895,
      "v": 100
    },
    {
      "midi": 71,
      "hit": false,
      "t": 95999.90399999976,
      "d": 272.72699999999895,
      "v": 100
    },
    {
      "midi": 76,
      "hit": false,
      "t": 95999.90399999976,
      "d": 272.72699999999895,
      "v": 100
    },
    {
      "midi": 80,
      "hit": false,
      "t": 95999.90399999976,
      "d": 272.72699999999895,
      "v": 100
    },
    {
      "midi": 40,
      "hit": false,
      "t": 95999.90399999976,
      "d": 818.1809999999969,
      "v": 100
    },
    {
      "midi": 75,
      "hit": false,
      "t": 96272.63099999976,
      "d": 272.72699999999895,
      "v": 100
    },
    {
      "midi": 83,
      "hit": false,
      "t": 96272.63099999976,
      "d": 272.72699999999895,
      "v": 100
    },
    {
      "midi": 75,
      "hit": false,
      "t": 96545.35799999976,
      "d": 272.72699999999895,
      "v": 100
    },
    {
      "midi": 83,
      "hit": false,
      "t": 96545.35799999976,
      "d": 272.72699999999895,
      "v": 100
    },
    {
      "midi": 42,
      "hit": false,
      "t": 96818.08499999976,
      "d": 272.72699999999895,
      "v": 100
    },
    {
      "midi": 73,
      "hit": false,
      "t": 96818.08499999976,
      "d": 272.72699999999895,
      "v": 100
    },
    {
      "midi": 82,
      "hit": false,
      "t": 96818.08499999976,
      "d": 272.72699999999895,
      "v": 100
    },
    {
      "midi": 73,
      "hit": false,
      "t": 97090.81199999976,
      "d": 272.72699999999895,
      "v": 100
    },
    {
      "midi": 82,
      "hit": false,
      "t": 97090.81199999976,
      "d": 272.72699999999895,
      "v": 100
    },
    {
      "midi": 42,
      "hit": false,
      "t": 97090.81199999976,
      "d": 1090.9079999999958,
      "v": 100
    },
    {
      "midi": 70,
      "hit": false,
      "t": 97363.53899999976,
      "d": 272.72699999999895,
      "v": 100
    },
    {
      "midi": 78,
      "hit": false,
      "t": 97363.53899999976,
      "d": 272.72699999999895,
      "v": 100
    },
    {
      "midi": 73,
      "hit": false,
      "t": 97636.26599999976,
      "d": 272.72699999999895,
      "v": 100
    },
    {
      "midi": 71,
      "hit": false,
      "t": 97908.99299999975,
      "d": 272.72699999999895,
      "v": 100
    },
    {
      "midi": 76,
      "hit": false,
      "t": 97908.99299999975,
      "d": 272.72699999999895,
      "v": 100
    },
    {
      "midi": 80,
      "hit": false,
      "t": 97908.99299999975,
      "d": 272.72699999999895,
      "v": 100
    },
    {
      "midi": 71,
      "hit": false,
      "t": 98181.71999999975,
      "d": 272.72699999999895,
      "v": 100
    },
    {
      "midi": 76,
      "hit": false,
      "t": 98181.71999999975,
      "d": 272.72699999999895,
      "v": 100
    },
    {
      "midi": 80,
      "hit": false,
      "t": 98181.71999999975,
      "d": 272.72699999999895,
      "v": 100
    },
    {
      "midi": 40,
      "hit": false,
      "t": 98181.71999999975,
      "d": 818.1809999999969,
      "v": 100
    },
    {
      "midi": 75,
      "hit": false,
      "t": 98454.44699999975,
      "d": 272.72699999999895,
      "v": 100
    },
    {
      "midi": 83,
      "hit": false,
      "t": 98454.44699999975,
      "d": 272.72699999999895,
      "v": 100
    },
    {
      "midi": 75,
      "hit": false,
      "t": 98727.17399999975,
      "d": 272.72699999999895,
      "v": 100
    },
    {
      "midi": 83,
      "hit": false,
      "t": 98727.17399999975,
      "d": 272.72699999999895,
      "v": 100
    },
    {
      "midi": 73,
      "hit": false,
      "t": 98999.90099999975,
      "d": 272.72699999999895,
      "v": 100
    },
    {
      "midi": 82,
      "hit": false,
      "t": 98999.90099999975,
      "d": 272.72699999999895,
      "v": 100
    },
    {
      "midi": 42,
      "hit": false,
      "t": 98999.90099999975,
      "d": 818.1809999999969,
      "v": 100
    },
    {
      "midi": 73,
      "hit": false,
      "t": 99272.62799999975,
      "d": 545.4539999999979,
      "v": 100
    },
    {
      "midi": 82,
      "hit": false,
      "t": 99272.62799999975,
      "d": 545.4539999999979,
      "v": 100
    },
    {
      "midi": 70,
      "hit": false,
      "t": 99818.08199999975,
      "d": 272.72699999999895,
      "v": 100
    },
    {
      "midi": 73,
      "hit": false,
      "t": 99818.08199999975,
      "d": 272.72699999999895,
      "v": 100
    },
    {
      "midi": 78,
      "hit": false,
      "t": 99818.08199999975,
      "d": 272.72699999999895,
      "v": 100
    },
    {
      "midi": 71,
      "hit": false,
      "t": 100090.80899999975,
      "d": 272.72699999999895,
      "v": 100
    },
    {
      "midi": 80,
      "hit": false,
      "t": 100090.80899999975,
      "d": 272.72699999999895,
      "v": 100
    },
    {
      "midi": 44,
      "hit": false,
      "t": 100363.53599999975,
      "d": 272.7270000000135,
      "v": 100
    },
    {
      "midi": 71,
      "hit": false,
      "t": 100363.53599999975,
      "d": 272.7270000000135,
      "v": 100
    },
    {
      "midi": 80,
      "hit": false,
      "t": 100363.53599999975,
      "d": 272.7270000000135,
      "v": 100
    },
    {
      "midi": 78,
      "hit": false,
      "t": 100499.89949999975,
      "d": 136.36350000000675,
      "v": 100
    },
    {
      "midi": 44,
      "hit": false,
      "t": 100636.26299999976,
      "d": 272.7270000000135,
      "v": 100
    },
    {
      "midi": 75,
      "hit": false,
      "t": 100636.26299999976,
      "d": 272.7270000000135,
      "v": 100
    },
    {
      "midi": 71,
      "hit": false,
      "t": 100772.62649999977,
      "d": 136.36350000000675,
      "v": 100
    },
    {
      "midi": 70,
      "hit": false,
      "t": 100908.98999999977,
      "d": 136.36350000000675,
      "v": 100
    },
    {
      "midi": 68,
      "hit": false,
      "t": 101181.71699999979,
      "d": 272.72699999999895,
      "v": 100
    },
    {
      "midi": 42,
      "hit": false,
      "t": 101454.44399999978,
      "d": 272.72699999999895,
      "v": 100
    },
    {
      "midi": 66,
      "hit": false,
      "t": 101454.44399999978,
      "d": 545.4539999999979,
      "v": 100
    },
    {
      "midi": 70,
      "hit": false,
      "t": 101454.44399999978,
      "d": 545.4539999999979,
      "v": 100
    },
    {
      "midi": 73,
      "hit": false,
      "t": 101454.44399999978,
      "d": 545.4539999999979,
      "v": 100
    },
    {
      "midi": 39,
      "hit": false,
      "t": 101727.17099999978,
      "d": 272.72699999999895,
      "v": 100
    },
    {
      "midi": 44,
      "hit": false,
      "t": 101999.89799999978,
      "d": 545.4539999999979,
      "v": 100
    },
    {
      "midi": 66,
      "hit": false,
      "t": 101999.89799999978,
      "d": 545.4539999999979,
      "v": 100
    },
    {
      "midi": 71,
      "hit": false,
      "t": 101999.89799999978,
      "d": 545.4539999999979,
      "v": 100
    },
    {
      "midi": 75,
      "hit": false,
      "t": 101999.89799999978,
      "d": 545.4539999999979,
      "v": 100
    },
    {
      "midi": 44,
      "hit": false,
      "t": 102545.35199999978,
      "d": 272.72699999999895,
      "v": 100
    },
    {
      "midi": 44,
      "hit": false,
      "t": 102818.07899999978,
      "d": 272.72699999999895,
      "v": 100
    },
    {
      "midi": 58,
      "hit": false,
      "t": 103363.53299999978,
      "d": 272.72699999999895,
      "v": 100
    },
    {
      "midi": 61,
      "hit": false,
      "t": 103363.53299999978,
      "d": 272.72699999999895,
      "v": 100
    },
    {
      "midi": 66,
      "hit": false,
      "t": 103363.53299999978,
      "d": 272.72699999999895,
      "v": 100
    },
    {
      "midi": 42,
      "hit": false,
      "t": 103636.25999999978,
      "d": 272.72699999999895,
      "v": 100
    },
    {
      "midi": 58,
      "hit": false,
      "t": 103636.25999999978,
      "d": 545.4539999999979,
      "v": 100
    },
    {
      "midi": 61,
      "hit": false,
      "t": 103636.25999999978,
      "d": 545.4539999999979,
      "v": 100
    },
    {
      "midi": 66,
      "hit": false,
      "t": 103636.25999999978,
      "d": 545.4539999999979,
      "v": 100
    },
    {
      "midi": 39,
      "hit": false,
      "t": 103908.98699999978,
      "d": 272.72699999999895,
      "v": 100
    },
    {
      "midi": 44,
      "hit": false,
      "t": 104181.71399999977,
      "d": 272.72699999999895,
      "v": 100
    },
    {
      "midi": 59,
      "hit": false,
      "t": 104181.71399999977,
      "d": 545.4539999999979,
      "v": 100
    },
    {
      "midi": 63,
      "hit": false,
      "t": 104181.71399999977,
      "d": 545.4539999999979,
      "v": 100
    },
    {
      "midi": 68,
      "hit": false,
      "t": 104181.71399999977,
      "d": 545.4539999999979,
      "v": 100
    },
    {
      "midi": 42,
      "hit": false,
      "t": 104454.44099999977,
      "d": 272.72699999999895,
      "v": 100
    },
    {
      "midi": 68,
      "hit": false,
      "t": 104727.16799999977,
      "d": 545.4539999999979,
      "v": 100
    },
    {
      "midi": 71,
      "hit": false,
      "t": 104727.16799999977,
      "d": 545.4539999999979,
      "v": 100
    },
    {
      "midi": 76,
      "hit": false,
      "t": 104727.16799999977,
      "d": 545.4539999999979,
      "v": 100
    },
    {
      "midi": 40,
      "hit": false,
      "t": 104727.16799999977,
      "d": 818.1809999999969,
      "v": 100
    },
    {
      "midi": 80,
      "hit": false,
      "t": 105272.62199999977,
      "d": 272.72699999999895,
      "v": 100
    },
    {
      "midi": 70,
      "hit": false,
      "t": 105545.34899999977,
      "d": 272.72699999999895,
      "v": 100
    },
    {
      "midi": 73,
      "hit": false,
      "t": 105545.34899999977,
      "d": 272.72699999999895,
      "v": 100
    },
    {
      "midi": 80,
      "hit": false,
      "t": 105545.34899999977,
      "d": 272.72699999999895,
      "v": 100
    },
    {
      "midi": 40,
      "hit": false,
      "t": 105545.34899999977,
      "d": 818.1809999999969,
      "v": 100
    },
    {
      "midi": 70,
      "hit": false,
      "t": 105818.07599999977,
      "d": 272.72699999999895,
      "v": 100
    },
    {
      "midi": 73,
      "hit": false,
      "t": 105818.07599999977,
      "d": 272.72699999999895,
      "v": 100
    },
    {
      "midi": 80,
      "hit": false,
      "t": 105818.07599999977,
      "d": 272.72699999999895,
      "v": 100
    },
    {
      "midi": 78,
      "hit": false,
      "t": 106090.80299999977,
      "d": 272.72699999999895,
      "v": 100
    },
    {
      "midi": 78,
      "hit": false,
      "t": 106363.52999999977,
      "d": 272.72699999999895,
      "v": 100
    },
    {
      "midi": 75,
      "hit": false,
      "t": 106636.25699999976,
      "d": 272.72699999999895,
      "v": 100
    },
    {
      "midi": 40,
      "hit": false,
      "t": 106908.98399999976,
      "d": 818.1809999999969,
      "v": 100
    },
    {
      "midi": 71,
      "hit": false,
      "t": 106908.98399999976,
      "d": 818.1809999999969,
      "v": 100
    },
    {
      "midi": 76,
      "hit": false,
      "t": 106908.98399999976,
      "d": 818.1809999999969,
      "v": 100
    },
    {
      "midi": 78,
      "hit": false,
      "t": 106908.98399999976,
      "d": 818.1809999999969,
      "v": 100
    },
    {
      "midi": 80,
      "hit": false,
      "t": 107727.16499999976,
      "d": 272.72699999999895,
      "v": 100
    },
    {
      "midi": 40,
      "hit": false,
      "t": 107727.16499999976,
      "d": 818.1809999999969,
      "v": 100
    },
    {
      "midi": 66,
      "hit": false,
      "t": 107999.89199999976,
      "d": 818.1809999999969,
      "v": 100
    },
    {
      "midi": 70,
      "hit": false,
      "t": 107999.89199999976,
      "d": 818.1809999999969,
      "v": 100
    },
    {
      "midi": 73,
      "hit": false,
      "t": 107999.89199999976,
      "d": 818.1809999999969,
      "v": 100
    },
    {
      "midi": 47,
      "hit": false,
      "t": 108545.34599999976,
      "d": 545.4539999999979,
      "v": 100
    },
    {
      "midi": 68,
      "hit": false,
      "t": 109090.79999999976,
      "d": 545.4540000000125,
      "v": 100
    },
    {
      "midi": 71,
      "hit": false,
      "t": 109090.79999999976,
      "d": 545.4540000000125,
      "v": 100
    },
    {
      "midi": 76,
      "hit": false,
      "t": 109090.79999999976,
      "d": 545.4540000000125,
      "v": 100
    },
    {
      "midi": 42,
      "hit": false,
      "t": 109090.79999999976,
      "d": 818.1810000000114,
      "v": 100
    },
    {
      "midi": 75,
      "hit": false,
      "t": 109227.16349999976,
      "d": 136.36350000000675,
      "v": 100
    },
    {
      "midi": 78,
      "hit": false,
      "t": 109363.52699999977,
      "d": 272.72699999999895,
      "v": 100
    },
    {
      "midi": 70,
      "hit": false,
      "t": 109636.25399999977,
      "d": 272.72699999999895,
      "v": 100
    },
    {
      "midi": 73,
      "hit": false,
      "t": 109636.25399999977,
      "d": 272.72699999999895,
      "v": 100
    },
    {
      "midi": 78,
      "hit": false,
      "t": 109636.25399999977,
      "d": 272.72699999999895,
      "v": 100
    },
    {
      "midi": 70,
      "hit": false,
      "t": 109908.98099999977,
      "d": 272.72699999999895,
      "v": 100
    },
    {
      "midi": 73,
      "hit": false,
      "t": 109908.98099999977,
      "d": 272.72699999999895,
      "v": 100
    },
    {
      "midi": 78,
      "hit": false,
      "t": 109908.98099999977,
      "d": 272.72699999999895,
      "v": 100
    },
    {
      "midi": 54,
      "hit": false,
      "t": 109908.98099999977,
      "d": 818.1809999999969,
      "v": 100
    },
    {
      "midi": 75,
      "hit": false,
      "t": 110181.70799999977,
      "d": 272.72699999999895,
      "v": 100
    },
    {
      "midi": 75,
      "hit": false,
      "t": 110727.16199999976,
      "d": 136.36350000000675,
      "v": 100
    },
    {
      "midi": 78,
      "hit": false,
      "t": 110863.52549999977,
      "d": 136.36350000000675,
      "v": 100
    },
    {
      "midi": 76,
      "hit": false,
      "t": 110999.88899999978,
      "d": 272.72699999999895,
      "v": 100
    },
    {
      "midi": 83,
      "hit": false,
      "t": 110999.88899999978,
      "d": 272.72699999999895,
      "v": 100
    },
    {
      "midi": 83,
      "hit": false,
      "t": 111272.61599999978,
      "d": 272.72699999999895,
      "v": 100
    },
    {
      "midi": 42,
      "hit": false,
      "t": 111272.61599999978,
      "d": 818.1809999999969,
      "v": 100
    },
    {
      "midi": 76,
      "hit": false,
      "t": 111272.61599999978,
      "d": 818.1809999999969,
      "v": 100
    },
    {
      "midi": 82,
      "hit": false,
      "t": 111545.34299999978,
      "d": 272.72699999999895,
      "v": 100
    },
    {
      "midi": 80,
      "hit": false,
      "t": 111818.06999999977,
      "d": 272.72699999999895,
      "v": 100
    },
    {
      "midi": 82,
      "hit": false,
      "t": 112090.79699999977,
      "d": 136.36350000000675,
      "v": 100
    },
    {
      "midi": 54,
      "hit": false,
      "t": 112090.79699999977,
      "d": 818.1810000000114,
      "v": 100
    },
    {
      "midi": 80,
      "hit": false,
      "t": 112227.16049999978,
      "d": 136.36350000000675,
      "v": 100
    },
    {
      "midi": 70,
      "hit": false,
      "t": 112363.52399999979,
      "d": 545.4539999999979,
      "v": 100
    },
    {
      "midi": 73,
      "hit": false,
      "t": 112363.52399999979,
      "d": 545.4539999999979,
      "v": 100
    },
    {
      "midi": 78,
      "hit": false,
      "t": 112363.52399999979,
      "d": 1090.9079999999958,
      "v": 100
    },
    {
      "midi": 71,
      "hit": false,
      "t": 113454.43199999978,
      "d": 272.72699999999895,
      "v": 100
    },
    {
      "midi": 76,
      "hit": false,
      "t": 113454.43199999978,
      "d": 272.72699999999895,
      "v": 100
    },
    {
      "midi": 80,
      "hit": false,
      "t": 113454.43199999978,
      "d": 272.72699999999895,
      "v": 100
    },
    {
      "midi": 37,
      "hit": false,
      "t": 113454.43199999978,
      "d": 818.1809999999969,
      "v": 100
    },
    {
      "midi": 71,
      "hit": false,
      "t": 113727.15899999978,
      "d": 272.72699999999895,
      "v": 100
    },
    {
      "midi": 76,
      "hit": false,
      "t": 113727.15899999978,
      "d": 272.72699999999895,
      "v": 100
    },
    {
      "midi": 80,
      "hit": false,
      "t": 113727.15899999978,
      "d": 272.72699999999895,
      "v": 100
    },
    {
      "midi": 75,
      "hit": false,
      "t": 113999.88599999978,
      "d": 545.4539999999979,
      "v": 100
    },
    {
      "midi": 83,
      "hit": false,
      "t": 113999.88599999978,
      "d": 545.4539999999979,
      "v": 100
    },
    {
      "midi": 73,
      "hit": false,
      "t": 114272.61299999978,
      "d": 272.72699999999895,
      "v": 100
    },
    {
      "midi": 82,
      "hit": false,
      "t": 114272.61299999978,
      "d": 272.72699999999895,
      "v": 100
    },
    {
      "midi": 39,
      "hit": false,
      "t": 114272.61299999978,
      "d": 818.1809999999969,
      "v": 100
    },
    {
      "midi": 73,
      "hit": false,
      "t": 114545.33999999978,
      "d": 272.72699999999895,
      "v": 100
    },
    {
      "midi": 82,
      "hit": false,
      "t": 114545.33999999978,
      "d": 272.72699999999895,
      "v": 100
    },
    {
      "midi": 70,
      "hit": false,
      "t": 114818.06699999978,
      "d": 272.72699999999895,
      "v": 100
    },
    {
      "midi": 78,
      "hit": false,
      "t": 114818.06699999978,
      "d": 272.72699999999895,
      "v": 100
    },
    {
      "midi": 73,
      "hit": false,
      "t": 115090.79399999978,
      "d": 272.72699999999895,
      "v": 100
    },
    {
      "midi": 71,
      "hit": false,
      "t": 115363.52099999978,
      "d": 272.72699999999895,
      "v": 100
    },
    {
      "midi": 76,
      "hit": false,
      "t": 115363.52099999978,
      "d": 272.72699999999895,
      "v": 100
    },
    {
      "midi": 80,
      "hit": false,
      "t": 115363.52099999978,
      "d": 272.72699999999895,
      "v": 100
    },
    {
      "midi": 71,
      "hit": false,
      "t": 115636.24799999977,
      "d": 272.72699999999895,
      "v": 100
    },
    {
      "midi": 76,
      "hit": false,
      "t": 115636.24799999977,
      "d": 272.72699999999895,
      "v": 100
    },
    {
      "midi": 80,
      "hit": false,
      "t": 115636.24799999977,
      "d": 272.72699999999895,
      "v": 100
    },
    {
      "midi": 40,
      "hit": false,
      "t": 115636.24799999977,
      "d": 818.1809999999969,
      "v": 100
    },
    {
      "midi": 75,
      "hit": false,
      "t": 115908.97499999977,
      "d": 272.72699999999895,
      "v": 100
    },
    {
      "midi": 83,
      "hit": false,
      "t": 115908.97499999977,
      "d": 272.72699999999895,
      "v": 100
    },
    {
      "midi": 75,
      "hit": false,
      "t": 116181.70199999977,
      "d": 272.72699999999895,
      "v": 100
    },
    {
      "midi": 83,
      "hit": false,
      "t": 116181.70199999977,
      "d": 272.72699999999895,
      "v": 100
    },
    {
      "midi": 73,
      "hit": false,
      "t": 116454.42899999977,
      "d": 272.72699999999895,
      "v": 100
    },
    {
      "midi": 82,
      "hit": false,
      "t": 116454.42899999977,
      "d": 272.72699999999895,
      "v": 100
    },
    {
      "midi": 42,
      "hit": false,
      "t": 116454.42899999977,
      "d": 818.1809999999969,
      "v": 100
    },
    {
      "midi": 73,
      "hit": false,
      "t": 116727.15599999977,
      "d": 545.4539999999979,
      "v": 100
    },
    {
      "midi": 82,
      "hit": false,
      "t": 116727.15599999977,
      "d": 545.4539999999979,
      "v": 100
    },
    {
      "midi": 70,
      "hit": false,
      "t": 117272.60999999977,
      "d": 272.72699999999895,
      "v": 100
    },
    {
      "midi": 73,
      "hit": false,
      "t": 117272.60999999977,
      "d": 272.72699999999895,
      "v": 100
    },
    {
      "midi": 78,
      "hit": false,
      "t": 117272.60999999977,
      "d": 272.72699999999895,
      "v": 100
    },
    {
      "midi": 44,
      "hit": false,
      "t": 117545.33699999977,
      "d": 272.72699999999895,
      "v": 100
    },
    {
      "midi": 71,
      "hit": false,
      "t": 117545.33699999977,
      "d": 272.72699999999895,
      "v": 100
    },
    {
      "midi": 75,
      "hit": false,
      "t": 117545.33699999977,
      "d": 272.72699999999895,
      "v": 100
    },
    {
      "midi": 80,
      "hit": false,
      "t": 117545.33699999977,
      "d": 272.72699999999895,
      "v": 100
    },
    {
      "midi": 44,
      "hit": false,
      "t": 117818.06399999977,
      "d": 2181.8159999999916,
      "v": 100
    },
    {
      "midi": 75,
      "hit": false,
      "t": 117818.06399999977,
      "d": 2181.8159999999916,
      "v": 100
    },
    {
      "midi": 80,
      "hit": false,
      "t": 117818.06399999977,
      "d": 2181.8159999999916,
      "v": 100
    },
    {
      "midi": 68,
      "hit": false,
      "t": 118636.24499999976,
      "d": 818.1809999999969,
      "v": 100
    },
    {
      "midi": 73,
      "hit": false,
      "t": 118636.24499999976,
      "d": 818.1809999999969,
      "v": 100
    },
    {
      "midi": 66,
      "hit": false,
      "t": 119181.69899999976,
      "d": 818.1809999999969,
      "v": 100
    },
    {
      "midi": 71,
      "hit": false,
      "t": 119181.69899999976,
      "d": 818.1809999999969,
      "v": 100
    },
    {
      "midi": 44,
      "hit": false,
      "t": 119999.87999999976,
      "d": 818.1810000000114,
      "v": 100
    },
    {
      "midi": 70,
      "hit": false,
      "t": 119999.87999999976,
      "d": 818.1810000000114,
      "v": 100
    },
    {
      "midi": 71,
      "hit": false,
      "t": 119999.87999999976,
      "d": 818.1810000000114,
      "v": 100
    },
    {
      "midi": 75,
      "hit": false,
      "t": 119999.87999999976,
      "d": 818.1810000000114,
      "v": 100
    },
    {
      "midi": 68,
      "hit": false,
      "t": 120545.33399999976,
      "d": 818.181000000026,
      "v": 100
    },
    {
      "midi": 73,
      "hit": false,
      "t": 120545.33399999976,
      "d": 818.181000000026,
      "v": 100
    },
    {
      "midi": 54,
      "hit": false,
      "t": 120681.69749999976,
      "d": 136.36350000000675,
      "v": 100
    },
    {
      "midi": 56,
      "hit": false,
      "t": 120818.06099999977,
      "d": 136.36350000000675,
      "v": 100
    },
    {
      "midi": 56,
      "hit": false,
      "t": 121090.78799999978,
      "d": 545.4539999999979,
      "v": 100
    },
    {
      "midi": 66,
      "hit": false,
      "t": 121636.24199999978,
      "d": 272.72699999999895,
      "v": 100
    },
    {
      "midi": 71,
      "hit": false,
      "t": 121636.24199999978,
      "d": 272.72699999999895,
      "v": 100
    },
    {
      "midi": 54,
      "hit": false,
      "t": 121908.96899999978,
      "d": 136.36350000000675,
      "v": 100
    },
    {
      "midi": 75,
      "hit": false,
      "t": 121908.96899999978,
      "d": 272.7270000000135,
      "v": 100
    },
    {
      "midi": 49,
      "hit": false,
      "t": 122045.33249999979,
      "d": 136.36350000000675,
      "v": 100
    },
    {
      "midi": 47,
      "hit": false,
      "t": 122181.69599999979,
      "d": 272.72699999999895,
      "v": 100
    },
    {
      "midi": 75,
      "hit": false,
      "t": 122181.69599999979,
      "d": 545.4539999999979,
      "v": 100
    },
    {
      "midi": 47,
      "hit": false,
      "t": 122454.42299999979,
      "d": 272.72699999999895,
      "v": 100
    },
    {
      "midi": 59,
      "hit": false,
      "t": 123272.60399999979,
      "d": 545.4539999999979,
      "v": 100
    },
    {
      "midi": 61,
      "hit": false,
      "t": 123272.60399999979,
      "d": 545.4539999999979,
      "v": 100
    },
    {
      "midi": 63,
      "hit": false,
      "t": 123272.60399999979,
      "d": 545.4539999999979,
      "v": 100
    },
    {
      "midi": 75,
      "hit": false,
      "t": 123818.05799999979,
      "d": 272.72699999999895,
      "v": 100
    },
    {
      "midi": 42,
      "hit": false,
      "t": 124090.78499999979,
      "d": 272.72699999999895,
      "v": 100
    },
    {
      "midi": 78,
      "hit": false,
      "t": 124090.78499999979,
      "d": 272.72699999999895,
      "v": 100
    },
    {
      "midi": 47,
      "hit": false,
      "t": 124363.51199999978,
      "d": 272.72699999999895,
      "v": 100
    },
    {
      "midi": 75,
      "hit": false,
      "t": 124363.51199999978,
      "d": 545.4539999999979,
      "v": 100
    },
    {
      "midi": 47,
      "hit": false,
      "t": 124636.23899999978,
      "d": 272.72699999999895,
      "v": 100
    },
    {
      "midi": 58,
      "hit": false,
      "t": 125181.69299999978,
      "d": 818.1809999999969,
      "v": 100
    },
    {
      "midi": 61,
      "hit": false,
      "t": 125181.69299999978,
      "d": 818.1809999999969,
      "v": 100
    },
    {
      "midi": 66,
      "hit": false,
      "t": 125181.69299999978,
      "d": 818.1809999999969,
      "v": 100
    },
    {
      "midi": 73,
      "hit": false,
      "t": 125999.87399999978,
      "d": 272.72699999999895,
      "v": 100
    },
    {
      "midi": 42,
      "hit": false,
      "t": 126272.60099999978,
      "d": 272.72699999999895,
      "v": 100
    },
    {
      "midi": 75,
      "hit": false,
      "t": 126272.60099999978,
      "d": 272.72699999999895,
      "v": 100
    },
    {
      "midi": 47,
      "hit": false,
      "t": 126545.32799999978,
      "d": 272.72699999999895,
      "v": 100
    },
    {
      "midi": 76,
      "hit": false,
      "t": 126545.32799999978,
      "d": 272.72699999999895,
      "v": 100
    },
    {
      "midi": 47,
      "hit": false,
      "t": 126818.05499999977,
      "d": 272.72699999999895,
      "v": 100
    },
    {
      "midi": 76,
      "hit": false,
      "t": 126818.05499999977,
      "d": 272.72699999999895,
      "v": 100
    },
    {
      "midi": 58,
      "hit": false,
      "t": 127363.50899999977,
      "d": 272.72699999999895,
      "v": 100
    },
    {
      "midi": 59,
      "hit": false,
      "t": 127363.50899999977,
      "d": 818.1809999999969,
      "v": 100
    },
    {
      "midi": 64,
      "hit": false,
      "t": 127363.50899999977,
      "d": 818.1809999999969,
      "v": 100
    },
    {
      "midi": 76,
      "hit": false,
      "t": 127363.50899999977,
      "d": 818.1809999999969,
      "v": 100
    },
    {
      "midi": 64,
      "hit": false,
      "t": 128181.68999999977,
      "d": 272.72699999999895,
      "v": 100
    },
    {
      "midi": 73,
      "hit": false,
      "t": 128181.68999999977,
      "d": 272.72699999999895,
      "v": 100
    },
    {
      "midi": 42,
      "hit": false,
      "t": 128454.41699999977,
      "d": 272.72699999999895,
      "v": 100
    },
    {
      "midi": 66,
      "hit": false,
      "t": 128454.41699999977,
      "d": 272.72699999999895,
      "v": 100
    },
    {
      "midi": 75,
      "hit": false,
      "t": 128454.41699999977,
      "d": 272.72699999999895,
      "v": 100
    },
    {
      "midi": 47,
      "hit": false,
      "t": 128727.14399999977,
      "d": 272.72699999999895,
      "v": 100
    },
    {
      "midi": 68,
      "hit": false,
      "t": 128727.14399999977,
      "d": 272.72699999999895,
      "v": 100
    },
    {
      "midi": 76,
      "hit": false,
      "t": 128727.14399999977,
      "d": 272.72699999999895,
      "v": 100
    },
    {
      "midi": 47,
      "hit": false,
      "t": 128999.87099999977,
      "d": 272.72699999999895,
      "v": 100
    },
    {
      "midi": 68,
      "hit": false,
      "t": 128999.87099999977,
      "d": 272.72699999999895,
      "v": 100
    },
    {
      "midi": 76,
      "hit": false,
      "t": 128999.87099999977,
      "d": 272.72699999999895,
      "v": 100
    },
    {
      "midi": 68,
      "hit": false,
      "t": 129272.59799999977,
      "d": 272.72699999999895,
      "v": 100
    },
    {
      "midi": 76,
      "hit": false,
      "t": 129272.59799999977,
      "d": 272.72699999999895,
      "v": 100
    },
    {
      "midi": 68,
      "hit": false,
      "t": 129545.32499999976,
      "d": 272.72699999999895,
      "v": 100
    },
    {
      "midi": 76,
      "hit": false,
      "t": 129545.32499999976,
      "d": 272.72699999999895,
      "v": 100
    },
    {
      "midi": 59,
      "hit": false,
      "t": 129545.32499999976,
      "d": 818.1809999999969,
      "v": 100
    },
    {
      "midi": 64,
      "hit": false,
      "t": 129545.32499999976,
      "d": 818.1809999999969,
      "v": 100
    },
    {
      "midi": 66,
      "hit": false,
      "t": 129818.05199999976,
      "d": 545.4539999999979,
      "v": 100
    },
    {
      "midi": 75,
      "hit": false,
      "t": 129818.05199999976,
      "d": 545.4539999999979,
      "v": 100
    },
    {
      "midi": 58,
      "hit": false,
      "t": 130363.50599999976,
      "d": 272.72699999999895,
      "v": 100
    },
    {
      "midi": 64,
      "hit": false,
      "t": 130363.50599999976,
      "d": 272.72699999999895,
      "v": 100
    },
    {
      "midi": 73,
      "hit": false,
      "t": 130363.50599999976,
      "d": 272.72699999999895,
      "v": 100
    },
    {
      "midi": 59,
      "hit": false,
      "t": 130636.23299999976,
      "d": 272.72699999999895,
      "v": 100
    },
    {
      "midi": 66,
      "hit": false,
      "t": 130636.23299999976,
      "d": 272.72699999999895,
      "v": 100
    },
    {
      "midi": 75,
      "hit": false,
      "t": 130636.23299999976,
      "d": 272.72699999999895,
      "v": 100
    },
    {
      "midi": 47,
      "hit": false,
      "t": 130908.95999999976,
      "d": 272.7270000000135,
      "v": 100
    },
    {
      "midi": 66,
      "hit": false,
      "t": 130908.95999999976,
      "d": 545.454000000027,
      "v": 100
    },
    {
      "midi": 75,
      "hit": false,
      "t": 130908.95999999976,
      "d": 545.454000000027,
      "v": 100
    },
    {
      "midi": 47,
      "hit": false,
      "t": 131181.68699999977,
      "d": 272.7270000000135,
      "v": 100
    },
    {
      "midi": 59,
      "hit": false,
      "t": 131727.1409999998,
      "d": 818.1810000000114,
      "v": 100
    },
    {
      "midi": 61,
      "hit": false,
      "t": 131727.1409999998,
      "d": 818.1810000000114,
      "v": 100
    },
    {
      "midi": 66,
      "hit": false,
      "t": 131727.1409999998,
      "d": 818.1810000000114,
      "v": 100
    },
    {
      "midi": 47,
      "hit": false,
      "t": 132545.3219999998,
      "d": 272.7270000000135,
      "v": 100
    },
    {
      "midi": 63,
      "hit": false,
      "t": 132545.3219999998,
      "d": 545.454000000027,
      "v": 100
    },
    {
      "midi": 42,
      "hit": false,
      "t": 132818.04899999982,
      "d": 272.7270000000135,
      "v": 100
    },
    {
      "midi": 47,
      "hit": false,
      "t": 133090.77599999984,
      "d": 272.7270000000135,
      "v": 100
    },
    {
      "midi": 47,
      "hit": false,
      "t": 133363.50299999985,
      "d": 272.7270000000135,
      "v": 100
    },
    {
      "midi": 58,
      "hit": false,
      "t": 133908.95699999988,
      "d": 818.1810000000114,
      "v": 100
    },
    {
      "midi": 61,
      "hit": false,
      "t": 133908.95699999988,
      "d": 818.1810000000114,
      "v": 100
    },
    {
      "midi": 66,
      "hit": false,
      "t": 133908.95699999988,
      "d": 818.1810000000114,
      "v": 100
    },
    {
      "midi": 73,
      "hit": false,
      "t": 134727.1379999999,
      "d": 272.7270000000135,
      "v": 100
    },
    {
      "midi": 42,
      "hit": false,
      "t": 134999.8649999999,
      "d": 272.7270000000135,
      "v": 100
    },
    {
      "midi": 75,
      "hit": false,
      "t": 134999.8649999999,
      "d": 272.7270000000135,
      "v": 100
    },
    {
      "midi": 76,
      "hit": false,
      "t": 135272.59199999992,
      "d": 272.7270000000135,
      "v": 100
    },
    {
      "midi": 47,
      "hit": false,
      "t": 135272.59199999992,
      "d": 545.454000000027,
      "v": 100
    },
    {
      "midi": 76,
      "hit": false,
      "t": 135545.31899999993,
      "d": 272.7270000000135,
      "v": 100
    },
    {
      "midi": 58,
      "hit": false,
      "t": 136090.77299999996,
      "d": 818.1810000000114,
      "v": 100
    },
    {
      "midi": 59,
      "hit": false,
      "t": 136090.77299999996,
      "d": 818.1810000000114,
      "v": 100
    },
    {
      "midi": 64,
      "hit": false,
      "t": 136090.77299999996,
      "d": 818.1810000000114,
      "v": 100
    },
    {
      "midi": 76,
      "hit": false,
      "t": 136090.77299999996,
      "d": 818.1810000000114,
      "v": 100
    },
    {
      "midi": 64,
      "hit": false,
      "t": 136908.95399999997,
      "d": 272.7270000000135,
      "v": 100
    },
    {
      "midi": 73,
      "hit": false,
      "t": 136908.95399999997,
      "d": 272.7270000000135,
      "v": 100
    },
    {
      "midi": 42,
      "hit": false,
      "t": 137181.68099999998,
      "d": 272.7270000000135,
      "v": 100
    },
    {
      "midi": 66,
      "hit": false,
      "t": 137181.68099999998,
      "d": 272.7270000000135,
      "v": 100
    },
    {
      "midi": 75,
      "hit": false,
      "t": 137181.68099999998,
      "d": 272.7270000000135,
      "v": 100
    },
    {
      "midi": 68,
      "hit": false,
      "t": 137454.408,
      "d": 272.7270000000135,
      "v": 100
    },
    {
      "midi": 76,
      "hit": false,
      "t": 137454.408,
      "d": 272.7270000000135,
      "v": 100
    },
    {
      "midi": 47,
      "hit": false,
      "t": 137454.408,
      "d": 545.454000000027,
      "v": 100
    },
    {
      "midi": 68,
      "hit": false,
      "t": 137727.135,
      "d": 272.7270000000135,
      "v": 100
    },
    {
      "midi": 76,
      "hit": false,
      "t": 137727.135,
      "d": 272.7270000000135,
      "v": 100
    },
    {
      "midi": 68,
      "hit": false,
      "t": 137999.86200000002,
      "d": 272.7270000000135,
      "v": 100
    },
    {
      "midi": 76,
      "hit": false,
      "t": 137999.86200000002,
      "d": 272.7270000000135,
      "v": 100
    },
    {
      "midi": 70,
      "hit": false,
      "t": 138272.58900000004,
      "d": 272.7270000000135,
      "v": 100
    },
    {
      "midi": 78,
      "hit": false,
      "t": 138272.58900000004,
      "d": 272.7270000000135,
      "v": 100
    },
    {
      "midi": 66,
      "hit": false,
      "t": 138545.31600000005,
      "d": 545.454000000027,
      "v": 100
    },
    {
      "midi": 75,
      "hit": false,
      "t": 138545.31600000005,
      "d": 545.454000000027,
      "v": 100
    },
    {
      "midi": 49,
      "hit": false,
      "t": 138818.04300000006,
      "d": 272.7270000000135,
      "v": 100
    },
    {
      "midi": 51,
      "hit": false,
      "t": 139090.77000000008,
      "d": 272.7270000000135,
      "v": 100
    },
    {
      "midi": 73,
      "hit": false,
      "t": 139090.77000000008,
      "d": 272.7270000000135,
      "v": 100
    },
    {
      "midi": 39,
      "hit": false,
      "t": 139363.4970000001,
      "d": 272.7270000000135,
      "v": 100
    },
    {
      "midi": 68,
      "hit": false,
      "t": 139363.4970000001,
      "d": 272.7270000000135,
      "v": 100
    },
    {
      "midi": 73,
      "hit": false,
      "t": 139363.4970000001,
      "d": 272.7270000000135,
      "v": 100
    },
    {
      "midi": 44,
      "hit": false,
      "t": 139636.2240000001,
      "d": 272.7270000000135,
      "v": 100
    },
    {
      "midi": 68,
      "hit": false,
      "t": 139636.2240000001,
      "d": 272.7270000000135,
      "v": 100
    },
    {
      "midi": 73,
      "hit": false,
      "t": 139636.2240000001,
      "d": 272.7270000000135,
      "v": 100
    },
    {
      "midi": 71,
      "hit": false,
      "t": 139772.5875000001,
      "d": 136.36350000000675,
      "v": 100
    },
    {
      "midi": 68,
      "hit": false,
      "t": 139908.95100000012,
      "d": 272.7270000000135,
      "v": 100
    },
    {
      "midi": 66,
      "hit": false,
      "t": 140181.67800000013,
      "d": 272.7270000000135,
      "v": 100
    },
    {
      "midi": 58,
      "hit": false,
      "t": 140454.40500000014,
      "d": 272.7270000000135,
      "v": 100
    },
    {
      "midi": 61,
      "hit": false,
      "t": 140454.40500000014,
      "d": 272.7270000000135,
      "v": 100
    },
    {
      "midi": 58,
      "hit": false,
      "t": 140727.13200000016,
      "d": 272.7270000000135,
      "v": 100
    },
    {
      "midi": 61,
      "hit": false,
      "t": 140727.13200000016,
      "d": 272.7270000000135,
      "v": 100
    },
    {
      "midi": 42,
      "hit": false,
      "t": 140999.85900000017,
      "d": 272.7270000000135,
      "v": 100
    },
    {
      "midi": 66,
      "hit": false,
      "t": 140999.85900000017,
      "d": 272.7270000000135,
      "v": 100
    },
    {
      "midi": 44,
      "hit": false,
      "t": 141272.58600000018,
      "d": 272.7270000000135,
      "v": 100
    },
    {
      "midi": 59,
      "hit": false,
      "t": 141272.58600000018,
      "d": 545.454000000027,
      "v": 100
    },
    {
      "midi": 63,
      "hit": false,
      "t": 141272.58600000018,
      "d": 545.454000000027,
      "v": 100
    },
    {
      "midi": 40,
      "hit": false,
      "t": 141545.3130000002,
      "d": 272.7270000000135,
      "v": 100
    },
    {
      "midi": 40,
      "hit": false,
      "t": 141818.0400000002,
      "d": 272.7270000000135,
      "v": 100
    },
    {
      "midi": 64,
      "hit": false,
      "t": 141818.0400000002,
      "d": 272.7270000000135,
      "v": 100
    },
    {
      "midi": 75,
      "hit": false,
      "t": 141818.0400000002,
      "d": 272.7270000000135,
      "v": 100
    },
    {
      "midi": 40,
      "hit": false,
      "t": 142090.76700000023,
      "d": 272.7270000000135,
      "v": 100
    },
    {
      "midi": 64,
      "hit": false,
      "t": 142090.76700000023,
      "d": 272.7270000000135,
      "v": 100
    },
    {
      "midi": 66,
      "hit": false,
      "t": 142090.76700000023,
      "d": 272.7270000000135,
      "v": 100
    },
    {
      "midi": 71,
      "hit": false,
      "t": 142090.76700000023,
      "d": 272.7270000000135,
      "v": 100
    },
    {
      "midi": 64,
      "hit": false,
      "t": 142363.49400000024,
      "d": 272.7270000000135,
      "v": 100
    },
    {
      "midi": 66,
      "hit": false,
      "t": 142363.49400000024,
      "d": 272.7270000000135,
      "v": 100
    },
    {
      "midi": 71,
      "hit": false,
      "t": 142363.49400000024,
      "d": 272.7270000000135,
      "v": 100
    },
    {
      "midi": 64,
      "hit": false,
      "t": 142636.22100000025,
      "d": 272.7270000000135,
      "v": 100
    },
    {
      "midi": 66,
      "hit": false,
      "t": 142636.22100000025,
      "d": 272.7270000000135,
      "v": 100
    },
    {
      "midi": 71,
      "hit": false,
      "t": 142636.22100000025,
      "d": 272.7270000000135,
      "v": 100
    },
    {
      "midi": 64,
      "hit": false,
      "t": 142908.94800000027,
      "d": 272.7270000000135,
      "v": 100
    },
    {
      "midi": 66,
      "hit": false,
      "t": 142908.94800000027,
      "d": 272.7270000000135,
      "v": 100
    },
    {
      "midi": 71,
      "hit": false,
      "t": 142908.94800000027,
      "d": 272.7270000000135,
      "v": 100
    },
    {
      "midi": 47,
      "hit": false,
      "t": 143181.67500000028,
      "d": 272.7270000000135,
      "v": 100
    },
    {
      "midi": 52,
      "hit": false,
      "t": 143454.4020000003,
      "d": 272.7270000000135,
      "v": 100
    },
    {
      "midi": 64,
      "hit": false,
      "t": 143454.4020000003,
      "d": 545.454000000027,
      "v": 100
    },
    {
      "midi": 66,
      "hit": false,
      "t": 143454.4020000003,
      "d": 545.454000000027,
      "v": 100
    },
    {
      "midi": 71,
      "hit": false,
      "t": 143454.4020000003,
      "d": 545.454000000027,
      "v": 100
    },
    {
      "midi": 54,
      "hit": false,
      "t": 143727.1290000003,
      "d": 272.7270000000135,
      "v": 100
    },
    {
      "midi": 68,
      "hit": false,
      "t": 143727.1290000003,
      "d": 272.7270000000135,
      "v": 100
    },
    {
      "midi": 73,
      "hit": false,
      "t": 143727.1290000003,
      "d": 272.7270000000135,
      "v": 100
    },
    {
      "midi": 42,
      "hit": false,
      "t": 143999.85600000032,
      "d": 272.7270000000135,
      "v": 100
    },
    {
      "midi": 68,
      "hit": false,
      "t": 143999.85600000032,
      "d": 272.7270000000135,
      "v": 100
    },
    {
      "midi": 73,
      "hit": false,
      "t": 143999.85600000032,
      "d": 272.7270000000135,
      "v": 100
    },
    {
      "midi": 42,
      "hit": false,
      "t": 144272.58300000033,
      "d": 272.7270000000135,
      "v": 100
    },
    {
      "midi": 70,
      "hit": false,
      "t": 144272.58300000033,
      "d": 272.7270000000135,
      "v": 100
    },
    {
      "midi": 75,
      "hit": false,
      "t": 144272.58300000033,
      "d": 272.7270000000135,
      "v": 100
    },
    {
      "midi": 56,
      "hit": false,
      "t": 144545.31000000035,
      "d": 1636.3620000000228,
      "v": 100
    },
    {
      "midi": 61,
      "hit": false,
      "t": 144545.31000000035,
      "d": 1636.3620000000228,
      "v": 100
    },
    {
      "midi": 66,
      "hit": false,
      "t": 144545.31000000035,
      "d": 1636.3620000000228,
      "v": 100
    },
    {
      "midi": 42,
      "hit": false,
      "t": 145363.49100000036,
      "d": 272.7270000000135,
      "v": 100
    },
    {
      "midi": 54,
      "hit": false,
      "t": 145636.21800000037,
      "d": 545.4539999999979,
      "v": 100
    },
    {
      "midi": 58,
      "hit": false,
      "t": 145636.21800000037,
      "d": 545.4539999999979,
      "v": 100
    },
    {
      "midi": 42,
      "hit": false,
      "t": 146181.67200000037,
      "d": 272.7270000000135,
      "v": 100
    },
    {
      "midi": 42,
      "hit": false,
      "t": 146454.39900000038,
      "d": 272.7270000000135,
      "v": 100
    },
    {
      "midi": 59,
      "hit": false,
      "t": 146727.1260000004,
      "d": 818.1810000000114,
      "v": 100
    },
    {
      "midi": 61,
      "hit": false,
      "t": 146727.1260000004,
      "d": 1090.908000000025,
      "v": 100
    },
    {
      "midi": 66,
      "hit": false,
      "t": 146727.1260000004,
      "d": 1090.908000000025,
      "v": 100
    },
    {
      "midi": 75,
      "hit": false,
      "t": 147545.3070000004,
      "d": 272.7270000000135,
      "v": 100
    },
    {
      "midi": 58,
      "hit": false,
      "t": 147818.03400000042,
      "d": 272.7270000000135,
      "v": 100
    },
    {
      "midi": 75,
      "hit": false,
      "t": 147818.03400000042,
      "d": 272.7270000000135,
      "v": 100
    },
    {
      "midi": 51,
      "hit": false,
      "t": 148090.76100000044,
      "d": 272.7270000000135,
      "v": 100
    },
    {
      "midi": 78,
      "hit": false,
      "t": 148090.76100000044,
      "d": 272.7270000000135,
      "v": 100
    },
    {
      "midi": 44,
      "hit": false,
      "t": 148363.48800000045,
      "d": 545.4539999999979,
      "v": 100
    },
    {
      "midi": 66,
      "hit": false,
      "t": 148363.48800000045,
      "d": 545.4539999999979,
      "v": 100
    },
    {
      "midi": 71,
      "hit": false,
      "t": 148363.48800000045,
      "d": 545.4539999999979,
      "v": 100
    },
    {
      "midi": 75,
      "hit": false,
      "t": 148363.48800000045,
      "d": 545.4539999999979,
      "v": 100
    },
    {
      "midi": 66,
      "hit": false,
      "t": 149181.66900000046,
      "d": 272.7270000000135,
      "v": 100
    },
    {
      "midi": 58,
      "hit": false,
      "t": 149454.39600000047,
      "d": 272.7270000000135,
      "v": 100
    },
    {
      "midi": 61,
      "hit": false,
      "t": 149454.39600000047,
      "d": 545.454000000027,
      "v": 100
    },
    {
      "midi": 42,
      "hit": false,
      "t": 149727.1230000005,
      "d": 272.7270000000135,
      "v": 100
    },
    {
      "midi": 66,
      "hit": false,
      "t": 149727.1230000005,
      "d": 272.7270000000135,
      "v": 100
    },
    {
      "midi": 44,
      "hit": false,
      "t": 149999.8500000005,
      "d": 272.7270000000135,
      "v": 100
    },
    {
      "midi": 59,
      "hit": false,
      "t": 149999.8500000005,
      "d": 545.454000000027,
      "v": 100
    },
    {
      "midi": 63,
      "hit": false,
      "t": 149999.8500000005,
      "d": 545.454000000027,
      "v": 100
    },
    {
      "midi": 42,
      "hit": false,
      "t": 150272.5770000005,
      "d": 272.7270000000135,
      "v": 100
    },
    {
      "midi": 40,
      "hit": false,
      "t": 150545.30400000053,
      "d": 272.7270000000135,
      "v": 100
    },
    {
      "midi": 64,
      "hit": false,
      "t": 150545.30400000053,
      "d": 272.7270000000135,
      "v": 100
    },
    {
      "midi": 75,
      "hit": false,
      "t": 150545.30400000053,
      "d": 272.7270000000135,
      "v": 100
    },
    {
      "midi": 40,
      "hit": false,
      "t": 150818.03100000054,
      "d": 272.7270000000135,
      "v": 100
    },
    {
      "midi": 64,
      "hit": false,
      "t": 150818.03100000054,
      "d": 272.7270000000135,
      "v": 100
    },
    {
      "midi": 66,
      "hit": false,
      "t": 150818.03100000054,
      "d": 272.7270000000135,
      "v": 100
    },
    {
      "midi": 71,
      "hit": false,
      "t": 150818.03100000054,
      "d": 272.7270000000135,
      "v": 100
    },
    {
      "midi": 64,
      "hit": false,
      "t": 151090.75800000055,
      "d": 272.7270000000135,
      "v": 100
    },
    {
      "midi": 66,
      "hit": false,
      "t": 151090.75800000055,
      "d": 272.7270000000135,
      "v": 100
    },
    {
      "midi": 71,
      "hit": false,
      "t": 151090.75800000055,
      "d": 272.7270000000135,
      "v": 100
    },
    {
      "midi": 64,
      "hit": false,
      "t": 151363.48500000057,
      "d": 272.7270000000135,
      "v": 100
    },
    {
      "midi": 66,
      "hit": false,
      "t": 151363.48500000057,
      "d": 272.7270000000135,
      "v": 100
    },
    {
      "midi": 71,
      "hit": false,
      "t": 151363.48500000057,
      "d": 272.7270000000135,
      "v": 100
    },
    {
      "midi": 64,
      "hit": false,
      "t": 151636.21200000058,
      "d": 272.7270000000135,
      "v": 100
    },
    {
      "midi": 66,
      "hit": false,
      "t": 151636.21200000058,
      "d": 272.7270000000135,
      "v": 100
    },
    {
      "midi": 71,
      "hit": false,
      "t": 151636.21200000058,
      "d": 272.7270000000135,
      "v": 100
    },
    {
      "midi": 47,
      "hit": false,
      "t": 151908.9390000006,
      "d": 272.7270000000135,
      "v": 100
    },
    {
      "midi": 52,
      "hit": false,
      "t": 152181.6660000006,
      "d": 272.7270000000135,
      "v": 100
    },
    {
      "midi": 64,
      "hit": false,
      "t": 152181.6660000006,
      "d": 272.7270000000135,
      "v": 100
    },
    {
      "midi": 66,
      "hit": false,
      "t": 152181.6660000006,
      "d": 272.7270000000135,
      "v": 100
    },
    {
      "midi": 71,
      "hit": false,
      "t": 152181.6660000006,
      "d": 272.7270000000135,
      "v": 100
    },
    {
      "midi": 54,
      "hit": false,
      "t": 152454.39300000062,
      "d": 272.7270000000135,
      "v": 100
    },
    {
      "midi": 68,
      "hit": false,
      "t": 152454.39300000062,
      "d": 272.7270000000135,
      "v": 100
    },
    {
      "midi": 73,
      "hit": false,
      "t": 152454.39300000062,
      "d": 272.7270000000135,
      "v": 100
    },
    {
      "midi": 42,
      "hit": false,
      "t": 152727.12000000064,
      "d": 272.7270000000135,
      "v": 100
    },
    {
      "midi": 68,
      "hit": false,
      "t": 152727.12000000064,
      "d": 272.7270000000135,
      "v": 100
    },
    {
      "midi": 73,
      "hit": false,
      "t": 152727.12000000064,
      "d": 272.7270000000135,
      "v": 100
    },
    {
      "midi": 42,
      "hit": false,
      "t": 152999.84700000065,
      "d": 272.7270000000135,
      "v": 100
    },
    {
      "midi": 70,
      "hit": false,
      "t": 152999.84700000065,
      "d": 272.7270000000135,
      "v": 100
    },
    {
      "midi": 75,
      "hit": false,
      "t": 152999.84700000065,
      "d": 272.7270000000135,
      "v": 100
    },
    {
      "midi": 56,
      "hit": false,
      "t": 153545.30100000068,
      "d": 818.1810000000114,
      "v": 100
    },
    {
      "midi": 61,
      "hit": false,
      "t": 153545.30100000068,
      "d": 818.1810000000114,
      "v": 100
    },
    {
      "midi": 66,
      "hit": false,
      "t": 153545.30100000068,
      "d": 818.1810000000114,
      "v": 100
    },
    {
      "midi": 42,
      "hit": false,
      "t": 154090.75500000067,
      "d": 272.7270000000135,
      "v": 100
    },
    {
      "midi": 54,
      "hit": false,
      "t": 154363.4820000007,
      "d": 545.4539999999979,
      "v": 100
    },
    {
      "midi": 58,
      "hit": false,
      "t": 154363.4820000007,
      "d": 545.4539999999979,
      "v": 100
    },
    {
      "midi": 42,
      "hit": false,
      "t": 154908.9360000007,
      "d": 272.7270000000135,
      "v": 100
    },
    {
      "midi": 42,
      "hit": false,
      "t": 155181.6630000007,
      "d": 272.7270000000135,
      "v": 100
    },
    {
      "midi": 59,
      "hit": false,
      "t": 155727.11700000073,
      "d": 818.1810000000114,
      "v": 100
    },
    {
      "midi": 61,
      "hit": false,
      "t": 155727.11700000073,
      "d": 818.1810000000114,
      "v": 100
    },
    {
      "midi": 68,
      "hit": false,
      "t": 155727.11700000073,
      "d": 818.1810000000114,
      "v": 100
    },
    {
      "midi": 54,
      "hit": false,
      "t": 156545.29800000074,
      "d": 272.7270000000135,
      "v": 100
    },
    {
      "midi": 58,
      "hit": false,
      "t": 156545.29800000074,
      "d": 545.454000000027,
      "v": 100
    },
    {
      "midi": 61,
      "hit": false,
      "t": 156545.29800000074,
      "d": 545.454000000027,
      "v": 100
    },
    {
      "midi": 66,
      "hit": false,
      "t": 156545.29800000074,
      "d": 545.454000000027,
      "v": 100
    },
    {
      "midi": 70,
      "hit": false,
      "t": 156545.29800000074,
      "d": 545.454000000027,
      "v": 100
    },
    {
      "midi": 42,
      "hit": false,
      "t": 156818.02500000075,
      "d": 272.7270000000135,
      "v": 100
    },
    {
      "midi": 71,
      "hit": false,
      "t": 157090.75200000076,
      "d": 272.7270000000135,
      "v": 100
    },
    {
      "midi": 76,
      "hit": false,
      "t": 157090.75200000076,
      "d": 272.7270000000135,
      "v": 100
    },
    {
      "midi": 80,
      "hit": false,
      "t": 157090.75200000076,
      "d": 272.7270000000135,
      "v": 100
    },
    {
      "midi": 40,
      "hit": false,
      "t": 157090.75200000076,
      "d": 545.454000000027,
      "v": 100
    },
    {
      "midi": 75,
      "hit": false,
      "t": 157636.2060000008,
      "d": 545.454000000027,
      "v": 100
    },
    {
      "midi": 83,
      "hit": false,
      "t": 157636.2060000008,
      "d": 545.454000000027,
      "v": 100
    },
    {
      "midi": 42,
      "hit": false,
      "t": 157636.2060000008,
      "d": 1636.362000000081,
      "v": 100
    },
    {
      "midi": 73,
      "hit": false,
      "t": 157908.9330000008,
      "d": 818.1810000000405,
      "v": 100
    },
    {
      "midi": 82,
      "hit": false,
      "t": 157908.9330000008,
      "d": 818.1810000000405,
      "v": 100
    },
    {
      "midi": 70,
      "hit": false,
      "t": 158454.38700000083,
      "d": 272.7270000000135,
      "v": 100
    },
    {
      "midi": 78,
      "hit": false,
      "t": 158454.38700000083,
      "d": 272.7270000000135,
      "v": 100
    },
    {
      "midi": 73,
      "hit": false,
      "t": 158727.11400000085,
      "d": 272.7270000000135,
      "v": 100
    },
    {
      "midi": 71,
      "hit": false,
      "t": 158999.84100000086,
      "d": 272.7270000000135,
      "v": 100
    },
    {
      "midi": 76,
      "hit": false,
      "t": 158999.84100000086,
      "d": 272.7270000000135,
      "v": 100
    },
    {
      "midi": 80,
      "hit": false,
      "t": 158999.84100000086,
      "d": 272.7270000000135,
      "v": 100
    },
    {
      "midi": 40,
      "hit": false,
      "t": 159272.56800000087,
      "d": 545.4539999999979,
      "v": 100
    },
    {
      "midi": 75,
      "hit": false,
      "t": 159272.56800000087,
      "d": 545.4539999999979,
      "v": 100
    },
    {
      "midi": 83,
      "hit": false,
      "t": 159272.56800000087,
      "d": 545.4539999999979,
      "v": 100
    },
    {
      "midi": 73,
      "hit": false,
      "t": 159818.02200000087,
      "d": 545.4539999999979,
      "v": 100
    },
    {
      "midi": 82,
      "hit": false,
      "t": 159818.02200000087,
      "d": 545.4539999999979,
      "v": 100
    },
    {
      "midi": 42,
      "hit": false,
      "t": 159818.02200000087,
      "d": 1636.3619999999937,
      "v": 100
    },
    {
      "midi": 70,
      "hit": false,
      "t": 160363.47600000087,
      "d": 545.4539999999979,
      "v": 100
    },
    {
      "midi": 78,
      "hit": false,
      "t": 160363.47600000087,
      "d": 545.4539999999979,
      "v": 100
    },
    {
      "midi": 66,
      "hit": false,
      "t": 160908.93000000087,
      "d": 818.1810000000114,
      "v": 100
    },
    {
      "midi": 70,
      "hit": false,
      "t": 160908.93000000087,
      "d": 818.1810000000114,
      "v": 100
    },
    {
      "midi": 73,
      "hit": false,
      "t": 160908.93000000087,
      "d": 818.1810000000114,
      "v": 100
    },
    {
      "midi": 44,
      "hit": false,
      "t": 161454.38400000086,
      "d": 272.7270000000135,
      "v": 100
    },
    {
      "midi": 44,
      "hit": false,
      "t": 161727.11100000088,
      "d": 272.7270000000135,
      "v": 100
    },
    {
      "midi": 68,
      "hit": false,
      "t": 161727.11100000088,
      "d": 272.7270000000135,
      "v": 100
    },
    {
      "midi": 71,
      "hit": false,
      "t": 161727.11100000088,
      "d": 272.7270000000135,
      "v": 100
    },
    {
      "midi": 75,
      "hit": false,
      "t": 161727.11100000088,
      "d": 272.7270000000135,
      "v": 100
    },
    {
      "midi": 58,
      "hit": false,
      "t": 162272.5650000009,
      "d": 818.1810000000114,
      "v": 100
    },
    {
      "midi": 61,
      "hit": false,
      "t": 162272.5650000009,
      "d": 818.1810000000114,
      "v": 100
    },
    {
      "midi": 42,
      "hit": false,
      "t": 162818.0190000009,
      "d": 272.7270000000135,
      "v": 100
    },
    {
      "midi": 39,
      "hit": false,
      "t": 163090.74600000092,
      "d": 272.7270000000135,
      "v": 100
    },
    {
      "midi": 59,
      "hit": false,
      "t": 163090.74600000092,
      "d": 545.454000000027,
      "v": 100
    },
    {
      "midi": 63,
      "hit": false,
      "t": 163090.74600000092,
      "d": 545.454000000027,
      "v": 100
    },
    {
      "midi": 44,
      "hit": false,
      "t": 163363.47300000093,
      "d": 272.7270000000135,
      "v": 100
    },
    {
      "midi": 44,
      "hit": false,
      "t": 163636.20000000094,
      "d": 272.7270000000135,
      "v": 100
    },
    {
      "midi": 44,
      "hit": false,
      "t": 163908.92700000096,
      "d": 272.7270000000135,
      "v": 100
    },
    {
      "midi": 58,
      "hit": false,
      "t": 164454.38100000098,
      "d": 818.1810000000405,
      "v": 100
    },
    {
      "midi": 61,
      "hit": false,
      "t": 164454.38100000098,
      "d": 818.1810000000405,
      "v": 100
    },
    {
      "midi": 42,
      "hit": false,
      "t": 164727.108000001,
      "d": 272.7270000000135,
      "v": 100
    },
    {
      "midi": 39,
      "hit": false,
      "t": 164999.835000001,
      "d": 272.7270000000135,
      "v": 100
    },
    {
      "midi": 44,
      "hit": false,
      "t": 165272.56200000102,
      "d": 272.7270000000135,
      "v": 100
    },
    {
      "midi": 59,
      "hit": false,
      "t": 165272.56200000102,
      "d": 545.454000000027,
      "v": 100
    },
    {
      "midi": 63,
      "hit": false,
      "t": 165272.56200000102,
      "d": 545.454000000027,
      "v": 100
    },
    {
      "midi": 42,
      "hit": false,
      "t": 165545.28900000104,
      "d": 272.7270000000135,
      "v": 100
    },
    {
      "midi": 71,
      "hit": false,
      "t": 165818.01600000105,
      "d": 272.7270000000135,
      "v": 100
    },
    {
      "midi": 76,
      "hit": false,
      "t": 165818.01600000105,
      "d": 272.7270000000135,
      "v": 100
    },
    {
      "midi": 80,
      "hit": false,
      "t": 165818.01600000105,
      "d": 272.7270000000135,
      "v": 100
    },
    {
      "midi": 40,
      "hit": false,
      "t": 165818.01600000105,
      "d": 818.1810000000405,
      "v": 100
    },
    {
      "midi": 75,
      "hit": false,
      "t": 166090.74300000106,
      "d": 272.7270000000135,
      "v": 100
    },
    {
      "midi": 83,
      "hit": false,
      "t": 166090.74300000106,
      "d": 272.7270000000135,
      "v": 100
    },
    {
      "midi": 75,
      "hit": false,
      "t": 166363.47000000108,
      "d": 272.7270000000135,
      "v": 100
    },
    {
      "midi": 83,
      "hit": false,
      "t": 166363.47000000108,
      "d": 272.7270000000135,
      "v": 100
    },
    {
      "midi": 42,
      "hit": false,
      "t": 166636.1970000011,
      "d": 272.7270000000135,
      "v": 100
    },
    {
      "midi": 73,
      "hit": false,
      "t": 166636.1970000011,
      "d": 272.7270000000135,
      "v": 100
    },
    {
      "midi": 82,
      "hit": false,
      "t": 166636.1970000011,
      "d": 272.7270000000135,
      "v": 100
    },
    {
      "midi": 73,
      "hit": false,
      "t": 166908.9240000011,
      "d": 272.7270000000135,
      "v": 100
    },
    {
      "midi": 82,
      "hit": false,
      "t": 166908.9240000011,
      "d": 272.7270000000135,
      "v": 100
    },
    {
      "midi": 42,
      "hit": false,
      "t": 166908.9240000011,
      "d": 1090.908000000054,
      "v": 100
    },
    {
      "midi": 70,
      "hit": false,
      "t": 167181.65100000112,
      "d": 272.7270000000135,
      "v": 100
    },
    {
      "midi": 78,
      "hit": false,
      "t": 167181.65100000112,
      "d": 272.7270000000135,
      "v": 100
    },
    {
      "midi": 73,
      "hit": false,
      "t": 167454.37800000113,
      "d": 272.7270000000135,
      "v": 100
    },
    {
      "midi": 71,
      "hit": false,
      "t": 167727.10500000115,
      "d": 272.7270000000135,
      "v": 100
    },
    {
      "midi": 76,
      "hit": false,
      "t": 167727.10500000115,
      "d": 272.7270000000135,
      "v": 100
    },
    {
      "midi": 80,
      "hit": false,
      "t": 167727.10500000115,
      "d": 272.7270000000135,
      "v": 100
    },
    {
      "midi": 71,
      "hit": false,
      "t": 167999.83200000116,
      "d": 272.7270000000135,
      "v": 100
    },
    {
      "midi": 76,
      "hit": false,
      "t": 167999.83200000116,
      "d": 272.7270000000135,
      "v": 100
    },
    {
      "midi": 80,
      "hit": false,
      "t": 167999.83200000116,
      "d": 272.7270000000135,
      "v": 100
    },
    {
      "midi": 40,
      "hit": false,
      "t": 167999.83200000116,
      "d": 818.1810000000405,
      "v": 100
    },
    {
      "midi": 75,
      "hit": false,
      "t": 168272.55900000117,
      "d": 272.7270000000135,
      "v": 100
    },
    {
      "midi": 83,
      "hit": false,
      "t": 168272.55900000117,
      "d": 272.7270000000135,
      "v": 100
    },
    {
      "midi": 75,
      "hit": false,
      "t": 168545.2860000012,
      "d": 272.7270000000135,
      "v": 100
    },
    {
      "midi": 83,
      "hit": false,
      "t": 168545.2860000012,
      "d": 272.7270000000135,
      "v": 100
    },
    {
      "midi": 73,
      "hit": false,
      "t": 168818.0130000012,
      "d": 272.7270000000135,
      "v": 100
    },
    {
      "midi": 82,
      "hit": false,
      "t": 168818.0130000012,
      "d": 272.7270000000135,
      "v": 100
    },
    {
      "midi": 42,
      "hit": false,
      "t": 168818.0130000012,
      "d": 818.1810000000114,
      "v": 100
    },
    {
      "midi": 73,
      "hit": false,
      "t": 169090.7400000012,
      "d": 545.4539999999979,
      "v": 100
    },
    {
      "midi": 82,
      "hit": false,
      "t": 169090.7400000012,
      "d": 545.4539999999979,
      "v": 100
    },
    {
      "midi": 70,
      "hit": false,
      "t": 169636.1940000012,
      "d": 272.7270000000135,
      "v": 100
    },
    {
      "midi": 73,
      "hit": false,
      "t": 169636.1940000012,
      "d": 272.7270000000135,
      "v": 100
    },
    {
      "midi": 78,
      "hit": false,
      "t": 169636.1940000012,
      "d": 272.7270000000135,
      "v": 100
    },
    {
      "midi": 71,
      "hit": false,
      "t": 169908.92100000122,
      "d": 272.7270000000135,
      "v": 100
    },
    {
      "midi": 80,
      "hit": false,
      "t": 169908.92100000122,
      "d": 272.7270000000135,
      "v": 100
    },
    {
      "midi": 44,
      "hit": false,
      "t": 170181.64800000124,
      "d": 272.7270000000135,
      "v": 100
    },
    {
      "midi": 71,
      "hit": false,
      "t": 170181.64800000124,
      "d": 272.7270000000135,
      "v": 100
    },
    {
      "midi": 80,
      "hit": false,
      "t": 170181.64800000124,
      "d": 272.7270000000135,
      "v": 100
    },
    {
      "midi": 78,
      "hit": false,
      "t": 170318.01150000124,
      "d": 136.36350000000675,
      "v": 100
    },
    {
      "midi": 44,
      "hit": false,
      "t": 170454.37500000125,
      "d": 272.7270000000135,
      "v": 100
    },
    {
      "midi": 75,
      "hit": false,
      "t": 170454.37500000125,
      "d": 272.7270000000135,
      "v": 100
    },
    {
      "midi": 71,
      "hit": false,
      "t": 170590.73850000126,
      "d": 136.36350000000675,
      "v": 100
    },
    {
      "midi": 70,
      "hit": false,
      "t": 170727.10200000126,
      "d": 136.36350000000675,
      "v": 100
    },
    {
      "midi": 68,
      "hit": false,
      "t": 170999.82900000128,
      "d": 272.7270000000135,
      "v": 100
    },
    {
      "midi": 42,
      "hit": false,
      "t": 171272.5560000013,
      "d": 272.7270000000135,
      "v": 100
    },
    {
      "midi": 66,
      "hit": false,
      "t": 171272.5560000013,
      "d": 545.454000000027,
      "v": 100
    },
    {
      "midi": 70,
      "hit": false,
      "t": 171272.5560000013,
      "d": 545.454000000027,
      "v": 100
    },
    {
      "midi": 73,
      "hit": false,
      "t": 171272.5560000013,
      "d": 545.454000000027,
      "v": 100
    },
    {
      "midi": 39,
      "hit": false,
      "t": 171545.2830000013,
      "d": 272.7270000000135,
      "v": 100
    },
    {
      "midi": 44,
      "hit": false,
      "t": 171818.01000000132,
      "d": 545.4539999999979,
      "v": 100
    },
    {
      "midi": 66,
      "hit": false,
      "t": 171818.01000000132,
      "d": 545.4539999999979,
      "v": 100
    },
    {
      "midi": 71,
      "hit": false,
      "t": 171818.01000000132,
      "d": 545.4539999999979,
      "v": 100
    },
    {
      "midi": 75,
      "hit": false,
      "t": 171818.01000000132,
      "d": 545.4539999999979,
      "v": 100
    },
    {
      "midi": 44,
      "hit": false,
      "t": 172363.46400000132,
      "d": 272.7270000000135,
      "v": 100
    },
    {
      "midi": 44,
      "hit": false,
      "t": 172636.19100000133,
      "d": 272.7270000000135,
      "v": 100
    },
    {
      "midi": 58,
      "hit": false,
      "t": 173181.64500000136,
      "d": 272.7270000000135,
      "v": 100
    },
    {
      "midi": 61,
      "hit": false,
      "t": 173181.64500000136,
      "d": 272.7270000000135,
      "v": 100
    },
    {
      "midi": 66,
      "hit": false,
      "t": 173181.64500000136,
      "d": 272.7270000000135,
      "v": 100
    },
    {
      "midi": 42,
      "hit": false,
      "t": 173454.37200000137,
      "d": 272.7270000000135,
      "v": 100
    },
    {
      "midi": 58,
      "hit": false,
      "t": 173454.37200000137,
      "d": 545.454000000027,
      "v": 100
    },
    {
      "midi": 61,
      "hit": false,
      "t": 173454.37200000137,
      "d": 545.454000000027,
      "v": 100
    },
    {
      "midi": 66,
      "hit": false,
      "t": 173454.37200000137,
      "d": 545.454000000027,
      "v": 100
    },
    {
      "midi": 39,
      "hit": false,
      "t": 173727.09900000138,
      "d": 272.7270000000135,
      "v": 100
    },
    {
      "midi": 44,
      "hit": false,
      "t": 173999.8260000014,
      "d": 272.7270000000135,
      "v": 100
    },
    {
      "midi": 59,
      "hit": false,
      "t": 173999.8260000014,
      "d": 545.454000000027,
      "v": 100
    },
    {
      "midi": 63,
      "hit": false,
      "t": 173999.8260000014,
      "d": 545.454000000027,
      "v": 100
    },
    {
      "midi": 68,
      "hit": false,
      "t": 173999.8260000014,
      "d": 545.454000000027,
      "v": 100
    },
    {
      "midi": 42,
      "hit": false,
      "t": 174272.5530000014,
      "d": 272.7270000000135,
      "v": 100
    },
    {
      "midi": 68,
      "hit": false,
      "t": 174545.28000000142,
      "d": 545.4539999999979,
      "v": 100
    },
    {
      "midi": 71,
      "hit": false,
      "t": 174545.28000000142,
      "d": 545.4539999999979,
      "v": 100
    },
    {
      "midi": 76,
      "hit": false,
      "t": 174545.28000000142,
      "d": 545.4539999999979,
      "v": 100
    },
    {
      "midi": 40,
      "hit": false,
      "t": 174545.28000000142,
      "d": 818.1810000000114,
      "v": 100
    },
    {
      "midi": 80,
      "hit": false,
      "t": 175090.73400000142,
      "d": 272.7270000000135,
      "v": 100
    },
    {
      "midi": 70,
      "hit": false,
      "t": 175363.46100000144,
      "d": 272.7270000000135,
      "v": 100
    },
    {
      "midi": 73,
      "hit": false,
      "t": 175363.46100000144,
      "d": 272.7270000000135,
      "v": 100
    },
    {
      "midi": 80,
      "hit": false,
      "t": 175363.46100000144,
      "d": 272.7270000000135,
      "v": 100
    },
    {
      "midi": 40,
      "hit": false,
      "t": 175363.46100000144,
      "d": 818.1810000000405,
      "v": 100
    },
    {
      "midi": 70,
      "hit": false,
      "t": 175636.18800000145,
      "d": 272.7270000000135,
      "v": 100
    },
    {
      "midi": 73,
      "hit": false,
      "t": 175636.18800000145,
      "d": 272.7270000000135,
      "v": 100
    },
    {
      "midi": 80,
      "hit": false,
      "t": 175636.18800000145,
      "d": 272.7270000000135,
      "v": 100
    },
    {
      "midi": 78,
      "hit": false,
      "t": 175908.91500000146,
      "d": 272.7270000000135,
      "v": 100
    },
    {
      "midi": 78,
      "hit": false,
      "t": 176181.64200000148,
      "d": 272.7270000000135,
      "v": 100
    },
    {
      "midi": 75,
      "hit": false,
      "t": 176454.3690000015,
      "d": 272.7270000000135,
      "v": 100
    },
    {
      "midi": 40,
      "hit": false,
      "t": 176727.0960000015,
      "d": 818.1810000000114,
      "v": 100
    },
    {
      "midi": 71,
      "hit": false,
      "t": 176727.0960000015,
      "d": 818.1810000000114,
      "v": 100
    },
    {
      "midi": 76,
      "hit": false,
      "t": 176727.0960000015,
      "d": 818.1810000000114,
      "v": 100
    },
    {
      "midi": 78,
      "hit": false,
      "t": 176727.0960000015,
      "d": 818.1810000000114,
      "v": 100
    },
    {
      "midi": 80,
      "hit": false,
      "t": 177545.27700000152,
      "d": 272.7270000000135,
      "v": 100
    },
    {
      "midi": 40,
      "hit": false,
      "t": 177545.27700000152,
      "d": 818.1810000000114,
      "v": 100
    },
    {
      "midi": 66,
      "hit": false,
      "t": 177818.00400000153,
      "d": 818.1810000000114,
      "v": 100
    },
    {
      "midi": 70,
      "hit": false,
      "t": 177818.00400000153,
      "d": 818.1810000000114,
      "v": 100
    },
    {
      "midi": 73,
      "hit": false,
      "t": 177818.00400000153,
      "d": 818.1810000000114,
      "v": 100
    },
    {
      "midi": 47,
      "hit": false,
      "t": 178363.45800000153,
      "d": 545.454000000027,
      "v": 100
    },
    {
      "midi": 68,
      "hit": false,
      "t": 178908.91200000155,
      "d": 545.454000000027,
      "v": 100
    },
    {
      "midi": 71,
      "hit": false,
      "t": 178908.91200000155,
      "d": 545.454000000027,
      "v": 100
    },
    {
      "midi": 76,
      "hit": false,
      "t": 178908.91200000155,
      "d": 545.454000000027,
      "v": 100
    },
    {
      "midi": 42,
      "hit": false,
      "t": 178908.91200000155,
      "d": 818.1810000000405,
      "v": 100
    },
    {
      "midi": 75,
      "hit": false,
      "t": 179045.27550000156,
      "d": 136.36350000000675,
      "v": 100
    },
    {
      "midi": 78,
      "hit": false,
      "t": 179181.63900000157,
      "d": 272.7270000000135,
      "v": 100
    },
    {
      "midi": 70,
      "hit": false,
      "t": 179454.36600000158,
      "d": 272.7270000000135,
      "v": 100
    },
    {
      "midi": 73,
      "hit": false,
      "t": 179454.36600000158,
      "d": 272.7270000000135,
      "v": 100
    },
    {
      "midi": 78,
      "hit": false,
      "t": 179454.36600000158,
      "d": 272.7270000000135,
      "v": 100
    },
    {
      "midi": 70,
      "hit": false,
      "t": 179727.0930000016,
      "d": 272.7270000000135,
      "v": 100
    },
    {
      "midi": 73,
      "hit": false,
      "t": 179727.0930000016,
      "d": 272.7270000000135,
      "v": 100
    },
    {
      "midi": 78,
      "hit": false,
      "t": 179727.0930000016,
      "d": 272.7270000000135,
      "v": 100
    },
    {
      "midi": 54,
      "hit": false,
      "t": 179727.0930000016,
      "d": 818.1810000000405,
      "v": 100
    },
    {
      "midi": 75,
      "hit": false,
      "t": 179999.8200000016,
      "d": 272.7270000000135,
      "v": 100
    },
    {
      "midi": 75,
      "hit": false,
      "t": 180545.27400000163,
      "d": 136.36350000000675,
      "v": 100
    },
    {
      "midi": 78,
      "hit": false,
      "t": 180681.63750000164,
      "d": 136.36350000000675,
      "v": 100
    },
    {
      "midi": 76,
      "hit": false,
      "t": 180818.00100000165,
      "d": 272.7270000000135,
      "v": 100
    },
    {
      "midi": 83,
      "hit": false,
      "t": 180818.00100000165,
      "d": 272.7270000000135,
      "v": 100
    },
    {
      "midi": 83,
      "hit": false,
      "t": 181090.72800000166,
      "d": 272.7270000000135,
      "v": 100
    },
    {
      "midi": 42,
      "hit": false,
      "t": 181090.72800000166,
      "d": 818.1810000000405,
      "v": 100
    },
    {
      "midi": 76,
      "hit": false,
      "t": 181090.72800000166,
      "d": 818.1810000000405,
      "v": 100
    },
    {
      "midi": 82,
      "hit": false,
      "t": 181363.45500000168,
      "d": 272.7270000000135,
      "v": 100
    },
    {
      "midi": 80,
      "hit": false,
      "t": 181636.1820000017,
      "d": 272.7270000000135,
      "v": 100
    },
    {
      "midi": 82,
      "hit": false,
      "t": 181908.9090000017,
      "d": 136.36350000000675,
      "v": 100
    },
    {
      "midi": 54,
      "hit": false,
      "t": 181908.9090000017,
      "d": 818.1810000000114,
      "v": 100
    },
    {
      "midi": 80,
      "hit": false,
      "t": 182045.2725000017,
      "d": 136.36350000000675,
      "v": 100
    },
    {
      "midi": 70,
      "hit": false,
      "t": 182181.63600000172,
      "d": 545.4539999999979,
      "v": 100
    },
    {
      "midi": 73,
      "hit": false,
      "t": 182181.63600000172,
      "d": 545.4539999999979,
      "v": 100
    },
    {
      "midi": 78,
      "hit": false,
      "t": 182181.63600000172,
      "d": 1090.9079999999958,
      "v": 100
    },
    {
      "midi": 71,
      "hit": false,
      "t": 183272.5440000017,
      "d": 272.7270000000135,
      "v": 100
    },
    {
      "midi": 76,
      "hit": false,
      "t": 183272.5440000017,
      "d": 272.7270000000135,
      "v": 100
    },
    {
      "midi": 80,
      "hit": false,
      "t": 183272.5440000017,
      "d": 272.7270000000135,
      "v": 100
    },
    {
      "midi": 37,
      "hit": false,
      "t": 183272.5440000017,
      "d": 818.1810000000405,
      "v": 100
    },
    {
      "midi": 71,
      "hit": false,
      "t": 183545.27100000173,
      "d": 272.7270000000135,
      "v": 100
    },
    {
      "midi": 76,
      "hit": false,
      "t": 183545.27100000173,
      "d": 272.7270000000135,
      "v": 100
    },
    {
      "midi": 80,
      "hit": false,
      "t": 183545.27100000173,
      "d": 272.7270000000135,
      "v": 100
    },
    {
      "midi": 75,
      "hit": false,
      "t": 183817.99800000174,
      "d": 545.454000000027,
      "v": 100
    },
    {
      "midi": 83,
      "hit": false,
      "t": 183817.99800000174,
      "d": 545.454000000027,
      "v": 100
    },
    {
      "midi": 73,
      "hit": false,
      "t": 184090.72500000175,
      "d": 272.7270000000135,
      "v": 100
    },
    {
      "midi": 82,
      "hit": false,
      "t": 184090.72500000175,
      "d": 272.7270000000135,
      "v": 100
    },
    {
      "midi": 39,
      "hit": false,
      "t": 184090.72500000175,
      "d": 818.1810000000405,
      "v": 100
    },
    {
      "midi": 73,
      "hit": false,
      "t": 184363.45200000177,
      "d": 272.7270000000135,
      "v": 100
    },
    {
      "midi": 82,
      "hit": false,
      "t": 184363.45200000177,
      "d": 272.7270000000135,
      "v": 100
    },
    {
      "midi": 70,
      "hit": false,
      "t": 184636.17900000178,
      "d": 272.7270000000135,
      "v": 100
    },
    {
      "midi": 78,
      "hit": false,
      "t": 184636.17900000178,
      "d": 272.7270000000135,
      "v": 100
    },
    {
      "midi": 73,
      "hit": false,
      "t": 184908.9060000018,
      "d": 272.7270000000135,
      "v": 100
    },
    {
      "midi": 71,
      "hit": false,
      "t": 185181.6330000018,
      "d": 272.7270000000135,
      "v": 100
    },
    {
      "midi": 76,
      "hit": false,
      "t": 185181.6330000018,
      "d": 272.7270000000135,
      "v": 100
    },
    {
      "midi": 80,
      "hit": false,
      "t": 185181.6330000018,
      "d": 272.7270000000135,
      "v": 100
    },
    {
      "midi": 71,
      "hit": false,
      "t": 185454.36000000182,
      "d": 272.7270000000135,
      "v": 100
    },
    {
      "midi": 76,
      "hit": false,
      "t": 185454.36000000182,
      "d": 272.7270000000135,
      "v": 100
    },
    {
      "midi": 80,
      "hit": false,
      "t": 185454.36000000182,
      "d": 272.7270000000135,
      "v": 100
    },
    {
      "midi": 40,
      "hit": false,
      "t": 185454.36000000182,
      "d": 818.1810000000405,
      "v": 100
    },
    {
      "midi": 75,
      "hit": false,
      "t": 185727.08700000183,
      "d": 272.7270000000135,
      "v": 100
    },
    {
      "midi": 83,
      "hit": false,
      "t": 185727.08700000183,
      "d": 272.7270000000135,
      "v": 100
    },
    {
      "midi": 75,
      "hit": false,
      "t": 185999.81400000185,
      "d": 272.7270000000135,
      "v": 100
    },
    {
      "midi": 83,
      "hit": false,
      "t": 185999.81400000185,
      "d": 272.7270000000135,
      "v": 100
    },
    {
      "midi": 73,
      "hit": false,
      "t": 186272.54100000186,
      "d": 272.7270000000135,
      "v": 100
    },
    {
      "midi": 82,
      "hit": false,
      "t": 186272.54100000186,
      "d": 272.7270000000135,
      "v": 100
    },
    {
      "midi": 42,
      "hit": false,
      "t": 186272.54100000186,
      "d": 818.1810000000114,
      "v": 100
    },
    {
      "midi": 73,
      "hit": false,
      "t": 186545.26800000187,
      "d": 545.4539999999979,
      "v": 100
    },
    {
      "midi": 82,
      "hit": false,
      "t": 186545.26800000187,
      "d": 545.4539999999979,
      "v": 100
    },
    {
      "midi": 70,
      "hit": false,
      "t": 187090.72200000187,
      "d": 272.7270000000135,
      "v": 100
    },
    {
      "midi": 73,
      "hit": false,
      "t": 187090.72200000187,
      "d": 272.7270000000135,
      "v": 100
    },
    {
      "midi": 78,
      "hit": false,
      "t": 187090.72200000187,
      "d": 272.7270000000135,
      "v": 100
    },
    {
      "midi": 44,
      "hit": false,
      "t": 187363.44900000188,
      "d": 272.7270000000135,
      "v": 100
    },
    {
      "midi": 71,
      "hit": false,
      "t": 187363.44900000188,
      "d": 272.7270000000135,
      "v": 100
    },
    {
      "midi": 75,
      "hit": false,
      "t": 187363.44900000188,
      "d": 272.7270000000135,
      "v": 100
    },
    {
      "midi": 80,
      "hit": false,
      "t": 187363.44900000188,
      "d": 272.7270000000135,
      "v": 100
    },
    {
      "midi": 44,
      "hit": false,
      "t": 187636.1760000019,
      "d": 2181.8160000000207,
      "v": 100
    },
    {
      "midi": 75,
      "hit": false,
      "t": 187636.1760000019,
      "d": 2181.8160000000207,
      "v": 100
    },
    {
      "midi": 80,
      "hit": false,
      "t": 187636.1760000019,
      "d": 2181.8160000000207,
      "v": 100
    },
    {
      "midi": 68,
      "hit": false,
      "t": 188454.3570000019,
      "d": 818.1810000000114,
      "v": 100
    },
    {
      "midi": 73,
      "hit": false,
      "t": 188454.3570000019,
      "d": 818.1810000000114,
      "v": 100
    },
    {
      "midi": 66,
      "hit": false,
      "t": 188999.8110000019,
      "d": 818.1810000000114,
      "v": 100
    },
    {
      "midi": 71,
      "hit": false,
      "t": 188999.8110000019,
      "d": 818.1810000000114,
      "v": 100
    },
    {
      "midi": 70,
      "hit": false,
      "t": 189817.99200000192,
      "d": 818.1810000000114,
      "v": 100
    },
    {
      "midi": 71,
      "hit": false,
      "t": 189817.99200000192,
      "d": 818.1810000000114,
      "v": 100
    },
    {
      "midi": 75,
      "hit": false,
      "t": 189817.99200000192,
      "d": 818.1810000000114,
      "v": 100
    },
    {
      "midi": 44,
      "hit": false,
      "t": 189817.99200000192,
      "d": 1636.362000000052,
      "v": 100
    },
    {
      "midi": 68,
      "hit": false,
      "t": 190636.17300000193,
      "d": 272.7270000000135,
      "v": 100
    },
    {
      "midi": 73,
      "hit": false,
      "t": 190636.17300000193,
      "d": 272.7270000000135,
      "v": 100
    },
    {
      "midi": 68,
      "hit": false,
      "t": 190908.90000000194,
      "d": 272.7270000000135,
      "v": 100
    },
    {
      "midi": 73,
      "hit": false,
      "t": 190908.90000000194,
      "d": 272.7270000000135,
      "v": 100
    },
    {
      "midi": 71,
      "hit": false,
      "t": 191181.62700000196,
      "d": 272.7270000000135,
      "v": 100
    },
    {
      "midi": 73,
      "hit": false,
      "t": 191454.35400000197,
      "d": 272.7270000000135,
      "v": 100
    },
    {
      "midi": 42,
      "hit": false,
      "t": 191727.08100000198,
      "d": 272.7270000000135,
      "v": 100
    },
    {
      "midi": 75,
      "hit": false,
      "t": 191727.08100000198,
      "d": 272.7270000000135,
      "v": 100
    },
    {
      "midi": 47,
      "hit": false,
      "t": 191999.808000002,
      "d": 272.7270000000135,
      "v": 100
    },
    {
      "midi": 75,
      "hit": false,
      "t": 191999.808000002,
      "d": 545.454000000027,
      "v": 100
    },
    {
      "midi": 47,
      "hit": false,
      "t": 192272.535000002,
      "d": 272.7270000000135,
      "v": 100
    },
    {
      "midi": 59,
      "hit": false,
      "t": 193090.71600000202,
      "d": 545.4539999999979,
      "v": 100
    },
    {
      "midi": 61,
      "hit": false,
      "t": 193090.71600000202,
      "d": 545.4539999999979,
      "v": 100
    },
    {
      "midi": 63,
      "hit": false,
      "t": 193090.71600000202,
      "d": 545.4539999999979,
      "v": 100
    },
    {
      "midi": 75,
      "hit": false,
      "t": 193636.17000000202,
      "d": 272.7270000000135,
      "v": 100
    },
    {
      "midi": 42,
      "hit": false,
      "t": 193908.89700000203,
      "d": 272.7270000000135,
      "v": 100
    },
    {
      "midi": 78,
      "hit": false,
      "t": 193908.89700000203,
      "d": 272.7270000000135,
      "v": 100
    },
    {
      "midi": 47,
      "hit": false,
      "t": 194181.62400000205,
      "d": 272.7270000000135,
      "v": 100
    },
    {
      "midi": 75,
      "hit": false,
      "t": 194181.62400000205,
      "d": 545.454000000027,
      "v": 100
    },
    {
      "midi": 47,
      "hit": false,
      "t": 194454.35100000206,
      "d": 272.7270000000135,
      "v": 100
    },
    {
      "midi": 58,
      "hit": false,
      "t": 194999.8050000021,
      "d": 818.1810000000114,
      "v": 100
    },
    {
      "midi": 61,
      "hit": false,
      "t": 194999.8050000021,
      "d": 818.1810000000114,
      "v": 100
    },
    {
      "midi": 66,
      "hit": false,
      "t": 194999.8050000021,
      "d": 818.1810000000114,
      "v": 100
    },
    {
      "midi": 73,
      "hit": false,
      "t": 195817.9860000021,
      "d": 272.7270000000135,
      "v": 100
    },
    {
      "midi": 42,
      "hit": false,
      "t": 196090.7130000021,
      "d": 272.7270000000135,
      "v": 100
    },
    {
      "midi": 75,
      "hit": false,
      "t": 196090.7130000021,
      "d": 272.7270000000135,
      "v": 100
    },
    {
      "midi": 47,
      "hit": false,
      "t": 196363.44000000213,
      "d": 272.7270000000135,
      "v": 100
    },
    {
      "midi": 76,
      "hit": false,
      "t": 196363.44000000213,
      "d": 272.7270000000135,
      "v": 100
    },
    {
      "midi": 47,
      "hit": false,
      "t": 196636.16700000214,
      "d": 272.7270000000135,
      "v": 100
    },
    {
      "midi": 76,
      "hit": false,
      "t": 196636.16700000214,
      "d": 272.7270000000135,
      "v": 100
    },
    {
      "midi": 58,
      "hit": false,
      "t": 197181.62100000217,
      "d": 272.7270000000135,
      "v": 100
    },
    {
      "midi": 59,
      "hit": false,
      "t": 197181.62100000217,
      "d": 818.1810000000114,
      "v": 100
    },
    {
      "midi": 64,
      "hit": false,
      "t": 197181.62100000217,
      "d": 818.1810000000114,
      "v": 100
    },
    {
      "midi": 76,
      "hit": false,
      "t": 197181.62100000217,
      "d": 818.1810000000114,
      "v": 100
    },
    {
      "midi": 64,
      "hit": false,
      "t": 197999.80200000218,
      "d": 272.7270000000135,
      "v": 100
    },
    {
      "midi": 73,
      "hit": false,
      "t": 197999.80200000218,
      "d": 272.7270000000135,
      "v": 100
    },
    {
      "midi": 42,
      "hit": false,
      "t": 198272.5290000022,
      "d": 272.7270000000135,
      "v": 100
    },
    {
      "midi": 66,
      "hit": false,
      "t": 198272.5290000022,
      "d": 272.7270000000135,
      "v": 100
    },
    {
      "midi": 75,
      "hit": false,
      "t": 198272.5290000022,
      "d": 272.7270000000135,
      "v": 100
    },
    {
      "midi": 47,
      "hit": false,
      "t": 198545.2560000022,
      "d": 272.7270000000135,
      "v": 100
    },
    {
      "midi": 68,
      "hit": false,
      "t": 198545.2560000022,
      "d": 272.7270000000135,
      "v": 100
    },
    {
      "midi": 76,
      "hit": false,
      "t": 198545.2560000022,
      "d": 272.7270000000135,
      "v": 100
    },
    {
      "midi": 47,
      "hit": false,
      "t": 198817.98300000222,
      "d": 272.7270000000135,
      "v": 100
    },
    {
      "midi": 68,
      "hit": false,
      "t": 198817.98300000222,
      "d": 272.7270000000135,
      "v": 100
    },
    {
      "midi": 76,
      "hit": false,
      "t": 198817.98300000222,
      "d": 272.7270000000135,
      "v": 100
    },
    {
      "midi": 68,
      "hit": false,
      "t": 199090.71000000223,
      "d": 272.7270000000135,
      "v": 100
    },
    {
      "midi": 76,
      "hit": false,
      "t": 199090.71000000223,
      "d": 272.7270000000135,
      "v": 100
    },
    {
      "midi": 68,
      "hit": false,
      "t": 199363.43700000225,
      "d": 272.7270000000135,
      "v": 100
    },
    {
      "midi": 76,
      "hit": false,
      "t": 199363.43700000225,
      "d": 272.7270000000135,
      "v": 100
    },
    {
      "midi": 59,
      "hit": false,
      "t": 199363.43700000225,
      "d": 818.1810000000114,
      "v": 100
    },
    {
      "midi": 64,
      "hit": false,
      "t": 199363.43700000225,
      "d": 818.1810000000114,
      "v": 100
    },
    {
      "midi": 66,
      "hit": false,
      "t": 199636.16400000226,
      "d": 545.4539999999979,
      "v": 100
    },
    {
      "midi": 75,
      "hit": false,
      "t": 199636.16400000226,
      "d": 545.4539999999979,
      "v": 100
    },
    {
      "midi": 58,
      "hit": false,
      "t": 200181.61800000226,
      "d": 272.7270000000135,
      "v": 100
    },
    {
      "midi": 64,
      "hit": false,
      "t": 200181.61800000226,
      "d": 272.7270000000135,
      "v": 100
    },
    {
      "midi": 73,
      "hit": false,
      "t": 200181.61800000226,
      "d": 272.7270000000135,
      "v": 100
    },
    {
      "midi": 59,
      "hit": false,
      "t": 200454.34500000227,
      "d": 272.7270000000135,
      "v": 100
    },
    {
      "midi": 66,
      "hit": false,
      "t": 200454.34500000227,
      "d": 272.7270000000135,
      "v": 100
    },
    {
      "midi": 75,
      "hit": false,
      "t": 200454.34500000227,
      "d": 272.7270000000135,
      "v": 100
    },
    {
      "midi": 47,
      "hit": false,
      "t": 200727.07200000228,
      "d": 272.7270000000135,
      "v": 100
    },
    {
      "midi": 66,
      "hit": false,
      "t": 200727.07200000228,
      "d": 545.454000000027,
      "v": 100
    },
    {
      "midi": 75,
      "hit": false,
      "t": 200727.07200000228,
      "d": 545.454000000027,
      "v": 100
    },
    {
      "midi": 47,
      "hit": false,
      "t": 200999.7990000023,
      "d": 272.7270000000135,
      "v": 100
    },
    {
      "midi": 59,
      "hit": false,
      "t": 201545.25300000233,
      "d": 818.1810000000114,
      "v": 100
    },
    {
      "midi": 61,
      "hit": false,
      "t": 201545.25300000233,
      "d": 818.1810000000114,
      "v": 100
    },
    {
      "midi": 66,
      "hit": false,
      "t": 201545.25300000233,
      "d": 818.1810000000114,
      "v": 100
    },
    {
      "midi": 47,
      "hit": false,
      "t": 202363.43400000234,
      "d": 272.7270000000135,
      "v": 100
    },
    {
      "midi": 63,
      "hit": false,
      "t": 202363.43400000234,
      "d": 545.454000000027,
      "v": 100
    },
    {
      "midi": 42,
      "hit": false,
      "t": 202636.16100000235,
      "d": 272.7270000000135,
      "v": 100
    },
    {
      "midi": 47,
      "hit": false,
      "t": 202908.88800000236,
      "d": 272.7270000000135,
      "v": 100
    },
    {
      "midi": 47,
      "hit": false,
      "t": 203181.61500000238,
      "d": 272.7270000000135,
      "v": 100
    },
    {
      "midi": 58,
      "hit": false,
      "t": 203727.0690000024,
      "d": 818.1810000000114,
      "v": 100
    },
    {
      "midi": 61,
      "hit": false,
      "t": 203727.0690000024,
      "d": 818.1810000000114,
      "v": 100
    },
    {
      "midi": 66,
      "hit": false,
      "t": 203727.0690000024,
      "d": 818.1810000000114,
      "v": 100
    },
    {
      "midi": 73,
      "hit": false,
      "t": 204545.25000000242,
      "d": 272.7270000000135,
      "v": 100
    },
    {
      "midi": 42,
      "hit": false,
      "t": 204817.97700000243,
      "d": 272.7270000000135,
      "v": 100
    },
    {
      "midi": 75,
      "hit": false,
      "t": 204817.97700000243,
      "d": 272.7270000000135,
      "v": 100
    },
    {
      "midi": 76,
      "hit": false,
      "t": 205090.70400000244,
      "d": 272.7270000000135,
      "v": 100
    },
    {
      "midi": 47,
      "hit": false,
      "t": 205090.70400000244,
      "d": 545.454000000027,
      "v": 100
    },
    {
      "midi": 76,
      "hit": false,
      "t": 205363.43100000246,
      "d": 272.7270000000135,
      "v": 100
    },
    {
      "midi": 58,
      "hit": false,
      "t": 205908.88500000248,
      "d": 818.1810000000114,
      "v": 100
    },
    {
      "midi": 59,
      "hit": false,
      "t": 205908.88500000248,
      "d": 818.1810000000114,
      "v": 100
    },
    {
      "midi": 64,
      "hit": false,
      "t": 205908.88500000248,
      "d": 818.1810000000114,
      "v": 100
    },
    {
      "midi": 76,
      "hit": false,
      "t": 205908.88500000248,
      "d": 818.1810000000114,
      "v": 100
    },
    {
      "midi": 64,
      "hit": false,
      "t": 206727.0660000025,
      "d": 272.7270000000135,
      "v": 100
    },
    {
      "midi": 73,
      "hit": false,
      "t": 206727.0660000025,
      "d": 272.7270000000135,
      "v": 100
    },
    {
      "midi": 42,
      "hit": false,
      "t": 206999.7930000025,
      "d": 272.7270000000135,
      "v": 100
    },
    {
      "midi": 66,
      "hit": false,
      "t": 206999.7930000025,
      "d": 272.7270000000135,
      "v": 100
    },
    {
      "midi": 75,
      "hit": false,
      "t": 206999.7930000025,
      "d": 272.7270000000135,
      "v": 100
    },
    {
      "midi": 68,
      "hit": false,
      "t": 207272.52000000252,
      "d": 272.7270000000135,
      "v": 100
    },
    {
      "midi": 76,
      "hit": false,
      "t": 207272.52000000252,
      "d": 272.7270000000135,
      "v": 100
    },
    {
      "midi": 47,
      "hit": false,
      "t": 207272.52000000252,
      "d": 545.454000000027,
      "v": 100
    },
    {
      "midi": 68,
      "hit": false,
      "t": 207545.24700000254,
      "d": 272.7270000000135,
      "v": 100
    },
    {
      "midi": 76,
      "hit": false,
      "t": 207545.24700000254,
      "d": 272.7270000000135,
      "v": 100
    },
    {
      "midi": 68,
      "hit": false,
      "t": 207817.97400000255,
      "d": 272.7270000000135,
      "v": 100
    },
    {
      "midi": 76,
      "hit": false,
      "t": 207817.97400000255,
      "d": 272.7270000000135,
      "v": 100
    },
    {
      "midi": 70,
      "hit": false,
      "t": 208090.70100000256,
      "d": 272.7270000000135,
      "v": 100
    },
    {
      "midi": 78,
      "hit": false,
      "t": 208090.70100000256,
      "d": 272.7270000000135,
      "v": 100
    },
    {
      "midi": 66,
      "hit": false,
      "t": 208363.42800000258,
      "d": 545.454000000027,
      "v": 100
    },
    {
      "midi": 75,
      "hit": false,
      "t": 208363.42800000258,
      "d": 545.454000000027,
      "v": 100
    },
    {
      "midi": 49,
      "hit": false,
      "t": 208636.1550000026,
      "d": 272.7270000000135,
      "v": 100
    },
    {
      "midi": 51,
      "hit": false,
      "t": 208908.8820000026,
      "d": 272.7270000000135,
      "v": 100
    },
    {
      "midi": 73,
      "hit": false,
      "t": 208908.8820000026,
      "d": 272.7270000000135,
      "v": 100
    },
    {
      "midi": 39,
      "hit": false,
      "t": 209181.60900000262,
      "d": 272.7270000000135,
      "v": 100
    },
    {
      "midi": 68,
      "hit": false,
      "t": 209181.60900000262,
      "d": 272.7270000000135,
      "v": 100
    },
    {
      "midi": 73,
      "hit": false,
      "t": 209181.60900000262,
      "d": 272.7270000000135,
      "v": 100
    },
    {
      "midi": 44,
      "hit": false,
      "t": 209454.33600000263,
      "d": 272.7270000000135,
      "v": 100
    },
    {
      "midi": 68,
      "hit": false,
      "t": 209454.33600000263,
      "d": 272.7270000000135,
      "v": 100
    },
    {
      "midi": 73,
      "hit": false,
      "t": 209454.33600000263,
      "d": 272.7270000000135,
      "v": 100
    },
    {
      "midi": 71,
      "hit": false,
      "t": 209590.69950000264,
      "d": 136.36350000000675,
      "v": 100
    },
    {
      "midi": 68,
      "hit": false,
      "t": 209727.06300000264,
      "d": 272.7270000000135,
      "v": 100
    },
    {
      "midi": 66,
      "hit": false,
      "t": 209999.79000000266,
      "d": 272.7270000000135,
      "v": 100
    },
    {
      "midi": 58,
      "hit": false,
      "t": 210272.51700000267,
      "d": 272.7270000000135,
      "v": 100
    },
    {
      "midi": 61,
      "hit": false,
      "t": 210272.51700000267,
      "d": 272.7270000000135,
      "v": 100
    },
    {
      "midi": 58,
      "hit": false,
      "t": 210545.24400000268,
      "d": 272.7270000000135,
      "v": 100
    },
    {
      "midi": 61,
      "hit": false,
      "t": 210545.24400000268,
      "d": 272.7270000000135,
      "v": 100
    },
    {
      "midi": 42,
      "hit": false,
      "t": 210817.9710000027,
      "d": 272.7270000000135,
      "v": 100
    },
    {
      "midi": 66,
      "hit": false,
      "t": 210817.9710000027,
      "d": 272.7270000000135,
      "v": 100
    },
    {
      "midi": 44,
      "hit": false,
      "t": 211090.6980000027,
      "d": 272.7270000000135,
      "v": 100
    },
    {
      "midi": 59,
      "hit": false,
      "t": 211090.6980000027,
      "d": 545.454000000027,
      "v": 100
    },
    {
      "midi": 63,
      "hit": false,
      "t": 211090.6980000027,
      "d": 545.454000000027,
      "v": 100
    },
    {
      "midi": 40,
      "hit": false,
      "t": 211363.42500000272,
      "d": 272.7270000000135,
      "v": 100
    },
    {
      "midi": 40,
      "hit": false,
      "t": 211636.15200000274,
      "d": 272.7270000000135,
      "v": 100
    },
    {
      "midi": 64,
      "hit": false,
      "t": 211636.15200000274,
      "d": 272.7270000000135,
      "v": 100
    },
    {
      "midi": 75,
      "hit": false,
      "t": 211636.15200000274,
      "d": 272.7270000000135,
      "v": 100
    },
    {
      "midi": 40,
      "hit": false,
      "t": 211908.87900000275,
      "d": 272.7270000000135,
      "v": 100
    },
    {
      "midi": 64,
      "hit": false,
      "t": 211908.87900000275,
      "d": 272.7270000000135,
      "v": 100
    },
    {
      "midi": 66,
      "hit": false,
      "t": 211908.87900000275,
      "d": 272.7270000000135,
      "v": 100
    },
    {
      "midi": 71,
      "hit": false,
      "t": 211908.87900000275,
      "d": 272.7270000000135,
      "v": 100
    },
    {
      "midi": 64,
      "hit": false,
      "t": 212181.60600000276,
      "d": 272.7270000000135,
      "v": 100
    },
    {
      "midi": 66,
      "hit": false,
      "t": 212181.60600000276,
      "d": 272.7270000000135,
      "v": 100
    },
    {
      "midi": 71,
      "hit": false,
      "t": 212181.60600000276,
      "d": 272.7270000000135,
      "v": 100
    },
    {
      "midi": 64,
      "hit": false,
      "t": 212454.33300000278,
      "d": 272.7270000000135,
      "v": 100
    },
    {
      "midi": 66,
      "hit": false,
      "t": 212454.33300000278,
      "d": 272.7270000000135,
      "v": 100
    },
    {
      "midi": 71,
      "hit": false,
      "t": 212454.33300000278,
      "d": 272.7270000000135,
      "v": 100
    },
    {
      "midi": 64,
      "hit": false,
      "t": 212727.0600000028,
      "d": 272.7270000000135,
      "v": 100
    },
    {
      "midi": 66,
      "hit": false,
      "t": 212727.0600000028,
      "d": 272.7270000000135,
      "v": 100
    },
    {
      "midi": 71,
      "hit": false,
      "t": 212727.0600000028,
      "d": 272.7270000000135,
      "v": 100
    },
    {
      "midi": 47,
      "hit": false,
      "t": 212999.7870000028,
      "d": 272.7270000000135,
      "v": 100
    },
    {
      "midi": 52,
      "hit": false,
      "t": 213272.51400000282,
      "d": 272.7270000000135,
      "v": 100
    },
    {
      "midi": 64,
      "hit": false,
      "t": 213272.51400000282,
      "d": 545.454000000027,
      "v": 100
    },
    {
      "midi": 66,
      "hit": false,
      "t": 213272.51400000282,
      "d": 545.454000000027,
      "v": 100
    },
    {
      "midi": 71,
      "hit": false,
      "t": 213272.51400000282,
      "d": 545.454000000027,
      "v": 100
    },
    {
      "midi": 54,
      "hit": false,
      "t": 213545.24100000283,
      "d": 272.7270000000135,
      "v": 100
    },
    {
      "midi": 68,
      "hit": false,
      "t": 213545.24100000283,
      "d": 272.7270000000135,
      "v": 100
    },
    {
      "midi": 73,
      "hit": false,
      "t": 213545.24100000283,
      "d": 272.7270000000135,
      "v": 100
    },
    {
      "midi": 42,
      "hit": false,
      "t": 213817.96800000285,
      "d": 272.7270000000135,
      "v": 100
    },
    {
      "midi": 68,
      "hit": false,
      "t": 213817.96800000285,
      "d": 272.7270000000135,
      "v": 100
    },
    {
      "midi": 73,
      "hit": false,
      "t": 213817.96800000285,
      "d": 272.7270000000135,
      "v": 100
    },
    {
      "midi": 42,
      "hit": false,
      "t": 214090.69500000286,
      "d": 272.7270000000135,
      "v": 100
    },
    {
      "midi": 70,
      "hit": false,
      "t": 214090.69500000286,
      "d": 272.7270000000135,
      "v": 100
    },
    {
      "midi": 75,
      "hit": false,
      "t": 214090.69500000286,
      "d": 272.7270000000135,
      "v": 100
    },
    {
      "midi": 56,
      "hit": false,
      "t": 214363.42200000287,
      "d": 1636.3620000000228,
      "v": 100
    },
    {
      "midi": 61,
      "hit": false,
      "t": 214363.42200000287,
      "d": 1636.3620000000228,
      "v": 100
    },
    {
      "midi": 66,
      "hit": false,
      "t": 214363.42200000287,
      "d": 1636.3620000000228,
      "v": 100
    },
    {
      "midi": 42,
      "hit": false,
      "t": 215181.60300000288,
      "d": 272.7270000000135,
      "v": 100
    },
    {
      "midi": 54,
      "hit": false,
      "t": 215454.3300000029,
      "d": 545.4539999999979,
      "v": 100
    },
    {
      "midi": 58,
      "hit": false,
      "t": 215454.3300000029,
      "d": 545.4539999999979,
      "v": 100
    },
    {
      "midi": 42,
      "hit": false,
      "t": 215999.7840000029,
      "d": 272.7270000000135,
      "v": 100
    },
    {
      "midi": 42,
      "hit": false,
      "t": 216272.5110000029,
      "d": 272.7270000000135,
      "v": 100
    },
    {
      "midi": 59,
      "hit": false,
      "t": 216545.23800000292,
      "d": 818.1810000000114,
      "v": 100
    },
    {
      "midi": 61,
      "hit": false,
      "t": 216545.23800000292,
      "d": 1090.908000000025,
      "v": 100
    },
    {
      "midi": 66,
      "hit": false,
      "t": 216545.23800000292,
      "d": 1090.908000000025,
      "v": 100
    },
    {
      "midi": 75,
      "hit": false,
      "t": 217363.41900000293,
      "d": 272.7270000000135,
      "v": 100
    },
    {
      "midi": 58,
      "hit": false,
      "t": 217636.14600000295,
      "d": 272.7270000000135,
      "v": 100
    },
    {
      "midi": 75,
      "hit": false,
      "t": 217636.14600000295,
      "d": 272.7270000000135,
      "v": 100
    },
    {
      "midi": 51,
      "hit": false,
      "t": 217908.87300000296,
      "d": 272.7270000000135,
      "v": 100
    },
    {
      "midi": 78,
      "hit": false,
      "t": 217908.87300000296,
      "d": 272.7270000000135,
      "v": 100
    },
    {
      "midi": 44,
      "hit": false,
      "t": 218181.60000000297,
      "d": 545.4539999999979,
      "v": 100
    },
    {
      "midi": 66,
      "hit": false,
      "t": 218181.60000000297,
      "d": 545.4539999999979,
      "v": 100
    },
    {
      "midi": 71,
      "hit": false,
      "t": 218181.60000000297,
      "d": 545.4539999999979,
      "v": 100
    },
    {
      "midi": 75,
      "hit": false,
      "t": 218181.60000000297,
      "d": 545.4539999999979,
      "v": 100
    },
    {
      "midi": 66,
      "hit": false,
      "t": 218999.781000003,
      "d": 272.7270000000135,
      "v": 100
    },
    {
      "midi": 58,
      "hit": false,
      "t": 219272.508000003,
      "d": 272.7270000000135,
      "v": 100
    },
    {
      "midi": 61,
      "hit": false,
      "t": 219272.508000003,
      "d": 545.454000000027,
      "v": 100
    },
    {
      "midi": 42,
      "hit": false,
      "t": 219545.235000003,
      "d": 272.7270000000135,
      "v": 100
    },
    {
      "midi": 66,
      "hit": false,
      "t": 219545.235000003,
      "d": 272.7270000000135,
      "v": 100
    },
    {
      "midi": 44,
      "hit": false,
      "t": 219817.96200000303,
      "d": 272.7270000000135,
      "v": 100
    },
    {
      "midi": 59,
      "hit": false,
      "t": 219817.96200000303,
      "d": 545.454000000027,
      "v": 100
    },
    {
      "midi": 63,
      "hit": false,
      "t": 219817.96200000303,
      "d": 545.454000000027,
      "v": 100
    },
    {
      "midi": 42,
      "hit": false,
      "t": 220090.68900000304,
      "d": 272.7270000000135,
      "v": 100
    },
    {
      "midi": 40,
      "hit": false,
      "t": 220363.41600000305,
      "d": 272.7270000000135,
      "v": 100
    },
    {
      "midi": 64,
      "hit": false,
      "t": 220363.41600000305,
      "d": 272.7270000000135,
      "v": 100
    },
    {
      "midi": 75,
      "hit": false,
      "t": 220363.41600000305,
      "d": 272.7270000000135,
      "v": 100
    },
    {
      "midi": 40,
      "hit": false,
      "t": 220636.14300000307,
      "d": 272.7270000000135,
      "v": 100
    },
    {
      "midi": 64,
      "hit": false,
      "t": 220636.14300000307,
      "d": 272.7270000000135,
      "v": 100
    },
    {
      "midi": 66,
      "hit": false,
      "t": 220636.14300000307,
      "d": 272.7270000000135,
      "v": 100
    },
    {
      "midi": 71,
      "hit": false,
      "t": 220636.14300000307,
      "d": 272.7270000000135,
      "v": 100
    },
    {
      "midi": 64,
      "hit": false,
      "t": 220908.87000000308,
      "d": 272.7270000000135,
      "v": 100
    },
    {
      "midi": 66,
      "hit": false,
      "t": 220908.87000000308,
      "d": 272.7270000000135,
      "v": 100
    },
    {
      "midi": 71,
      "hit": false,
      "t": 220908.87000000308,
      "d": 272.7270000000135,
      "v": 100
    },
    {
      "midi": 64,
      "hit": false,
      "t": 221181.5970000031,
      "d": 272.7270000000135,
      "v": 100
    },
    {
      "midi": 66,
      "hit": false,
      "t": 221181.5970000031,
      "d": 272.7270000000135,
      "v": 100
    },
    {
      "midi": 71,
      "hit": false,
      "t": 221181.5970000031,
      "d": 272.7270000000135,
      "v": 100
    },
    {
      "midi": 64,
      "hit": false,
      "t": 221454.3240000031,
      "d": 272.7270000000135,
      "v": 100
    },
    {
      "midi": 66,
      "hit": false,
      "t": 221454.3240000031,
      "d": 272.7270000000135,
      "v": 100
    },
    {
      "midi": 71,
      "hit": false,
      "t": 221454.3240000031,
      "d": 272.7270000000135,
      "v": 100
    },
    {
      "midi": 47,
      "hit": false,
      "t": 221727.05100000312,
      "d": 272.7270000000135,
      "v": 100
    },
    {
      "midi": 52,
      "hit": false,
      "t": 221999.77800000313,
      "d": 272.7270000000135,
      "v": 100
    },
    {
      "midi": 64,
      "hit": false,
      "t": 221999.77800000313,
      "d": 272.7270000000135,
      "v": 100
    },
    {
      "midi": 66,
      "hit": false,
      "t": 221999.77800000313,
      "d": 272.7270000000135,
      "v": 100
    },
    {
      "midi": 71,
      "hit": false,
      "t": 221999.77800000313,
      "d": 272.7270000000135,
      "v": 100
    },
    {
      "midi": 54,
      "hit": false,
      "t": 222272.50500000315,
      "d": 272.7270000000135,
      "v": 100
    },
    {
      "midi": 68,
      "hit": false,
      "t": 222272.50500000315,
      "d": 272.7270000000135,
      "v": 100
    },
    {
      "midi": 73,
      "hit": false,
      "t": 222272.50500000315,
      "d": 272.7270000000135,
      "v": 100
    },
    {
      "midi": 42,
      "hit": false,
      "t": 222545.23200000316,
      "d": 272.7270000000135,
      "v": 100
    },
    {
      "midi": 68,
      "hit": false,
      "t": 222545.23200000316,
      "d": 272.7270000000135,
      "v": 100
    },
    {
      "midi": 73,
      "hit": false,
      "t": 222545.23200000316,
      "d": 272.7270000000135,
      "v": 100
    },
    {
      "midi": 42,
      "hit": false,
      "t": 222817.95900000317,
      "d": 272.7270000000135,
      "v": 100
    },
    {
      "midi": 70,
      "hit": false,
      "t": 222817.95900000317,
      "d": 272.7270000000135,
      "v": 100
    },
    {
      "midi": 75,
      "hit": false,
      "t": 222817.95900000317,
      "d": 272.7270000000135,
      "v": 100
    },
    {
      "midi": 56,
      "hit": false,
      "t": 223363.4130000032,
      "d": 818.1810000000114,
      "v": 100
    },
    {
      "midi": 61,
      "hit": false,
      "t": 223363.4130000032,
      "d": 818.1810000000114,
      "v": 100
    },
    {
      "midi": 66,
      "hit": false,
      "t": 223363.4130000032,
      "d": 818.1810000000114,
      "v": 100
    },
    {
      "midi": 42,
      "hit": false,
      "t": 223908.8670000032,
      "d": 272.7270000000135,
      "v": 100
    },
    {
      "midi": 54,
      "hit": false,
      "t": 224181.5940000032,
      "d": 545.4539999999979,
      "v": 100
    },
    {
      "midi": 58,
      "hit": false,
      "t": 224181.5940000032,
      "d": 545.4539999999979,
      "v": 100
    },
    {
      "midi": 42,
      "hit": false,
      "t": 224727.0480000032,
      "d": 272.7270000000135,
      "v": 100
    },
    {
      "midi": 42,
      "hit": false,
      "t": 224999.77500000322,
      "d": 272.7270000000135,
      "v": 100
    },
    {
      "midi": 59,
      "hit": false,
      "t": 225545.22900000325,
      "d": 818.1810000000114,
      "v": 100
    },
    {
      "midi": 61,
      "hit": false,
      "t": 225545.22900000325,
      "d": 818.1810000000114,
      "v": 100
    },
    {
      "midi": 68,
      "hit": false,
      "t": 225545.22900000325,
      "d": 818.1810000000114,
      "v": 100
    },
    {
      "midi": 54,
      "hit": false,
      "t": 226363.41000000326,
      "d": 272.7270000000135,
      "v": 100
    },
    {
      "midi": 58,
      "hit": false,
      "t": 226363.41000000326,
      "d": 545.454000000027,
      "v": 100
    },
    {
      "midi": 61,
      "hit": false,
      "t": 226363.41000000326,
      "d": 545.454000000027,
      "v": 100
    },
    {
      "midi": 66,
      "hit": false,
      "t": 226363.41000000326,
      "d": 545.454000000027,
      "v": 100
    },
    {
      "midi": 70,
      "hit": false,
      "t": 226363.41000000326,
      "d": 545.454000000027,
      "v": 100
    },
    {
      "midi": 42,
      "hit": false,
      "t": 226636.13700000328,
      "d": 272.7270000000135,
      "v": 100
    },
    {
      "midi": 44,
      "hit": false,
      "t": 226908.8640000033,
      "d": 545.4539999999979,
      "v": 100
    },
    {
      "midi": 66,
      "hit": false,
      "t": 226908.8640000033,
      "d": 545.4539999999979,
      "v": 100
    },
    {
      "midi": 71,
      "hit": false,
      "t": 226908.8640000033,
      "d": 545.4539999999979,
      "v": 100
    },
    {
      "midi": 75,
      "hit": false,
      "t": 226908.8640000033,
      "d": 545.4539999999979,
      "v": 100
    },
    {
      "midi": 66,
      "hit": false,
      "t": 227727.0450000033,
      "d": 272.7270000000135,
      "v": 100
    },
    {
      "midi": 58,
      "hit": false,
      "t": 227999.77200000332,
      "d": 272.7270000000135,
      "v": 100
    },
    {
      "midi": 61,
      "hit": false,
      "t": 227999.77200000332,
      "d": 545.454000000027,
      "v": 100
    },
    {
      "midi": 42,
      "hit": false,
      "t": 228272.49900000333,
      "d": 272.7270000000135,
      "v": 100
    },
    {
      "midi": 66,
      "hit": false,
      "t": 228272.49900000333,
      "d": 272.7270000000135,
      "v": 100
    },
    {
      "midi": 44,
      "hit": false,
      "t": 228545.22600000334,
      "d": 272.7270000000135,
      "v": 100
    },
    {
      "midi": 59,
      "hit": false,
      "t": 228545.22600000334,
      "d": 545.454000000027,
      "v": 100
    },
    {
      "midi": 63,
      "hit": false,
      "t": 228545.22600000334,
      "d": 545.454000000027,
      "v": 100
    },
    {
      "midi": 42,
      "hit": false,
      "t": 228817.95300000336,
      "d": 272.7270000000135,
      "v": 100
    },
    {
      "midi": 40,
      "hit": false,
      "t": 229090.68000000337,
      "d": 272.7270000000135,
      "v": 100
    },
    {
      "midi": 64,
      "hit": false,
      "t": 229090.68000000337,
      "d": 272.7270000000135,
      "v": 100
    },
    {
      "midi": 75,
      "hit": false,
      "t": 229090.68000000337,
      "d": 272.7270000000135,
      "v": 100
    },
    {
      "midi": 40,
      "hit": false,
      "t": 229363.40700000338,
      "d": 272.7270000000135,
      "v": 100
    },
    {
      "midi": 64,
      "hit": false,
      "t": 229363.40700000338,
      "d": 272.7270000000135,
      "v": 100
    },
    {
      "midi": 66,
      "hit": false,
      "t": 229363.40700000338,
      "d": 272.7270000000135,
      "v": 100
    },
    {
      "midi": 71,
      "hit": false,
      "t": 229363.40700000338,
      "d": 272.7270000000135,
      "v": 100
    },
    {
      "midi": 64,
      "hit": false,
      "t": 229636.1340000034,
      "d": 272.7270000000135,
      "v": 100
    },
    {
      "midi": 66,
      "hit": false,
      "t": 229636.1340000034,
      "d": 272.7270000000135,
      "v": 100
    },
    {
      "midi": 71,
      "hit": false,
      "t": 229636.1340000034,
      "d": 272.7270000000135,
      "v": 100
    },
    {
      "midi": 64,
      "hit": false,
      "t": 229908.8610000034,
      "d": 272.7270000000135,
      "v": 100
    },
    {
      "midi": 66,
      "hit": false,
      "t": 229908.8610000034,
      "d": 272.7270000000135,
      "v": 100
    },
    {
      "midi": 71,
      "hit": false,
      "t": 229908.8610000034,
      "d": 272.7270000000135,
      "v": 100
    },
    {
      "midi": 64,
      "hit": false,
      "t": 230181.58800000342,
      "d": 272.7270000000135,
      "v": 100
    },
    {
      "midi": 66,
      "hit": false,
      "t": 230181.58800000342,
      "d": 272.7270000000135,
      "v": 100
    },
    {
      "midi": 71,
      "hit": false,
      "t": 230181.58800000342,
      "d": 272.7270000000135,
      "v": 100
    },
    {
      "midi": 47,
      "hit": false,
      "t": 230454.31500000344,
      "d": 272.7270000000135,
      "v": 100
    },
    {
      "midi": 52,
      "hit": false,
      "t": 230727.04200000345,
      "d": 272.7270000000135,
      "v": 100
    },
    {
      "midi": 64,
      "hit": false,
      "t": 230727.04200000345,
      "d": 272.7270000000135,
      "v": 100
    },
    {
      "midi": 66,
      "hit": false,
      "t": 230727.04200000345,
      "d": 272.7270000000135,
      "v": 100
    },
    {
      "midi": 71,
      "hit": false,
      "t": 230727.04200000345,
      "d": 272.7270000000135,
      "v": 100
    },
    {
      "midi": 54,
      "hit": false,
      "t": 230999.76900000346,
      "d": 272.7270000000135,
      "v": 100
    },
    {
      "midi": 68,
      "hit": false,
      "t": 230999.76900000346,
      "d": 272.7270000000135,
      "v": 100
    },
    {
      "midi": 73,
      "hit": false,
      "t": 230999.76900000346,
      "d": 272.7270000000135,
      "v": 100
    },
    {
      "midi": 42,
      "hit": false,
      "t": 231272.49600000348,
      "d": 272.7270000000135,
      "v": 100
    },
    {
      "midi": 68,
      "hit": false,
      "t": 231272.49600000348,
      "d": 272.7270000000135,
      "v": 100
    },
    {
      "midi": 73,
      "hit": false,
      "t": 231272.49600000348,
      "d": 272.7270000000135,
      "v": 100
    },
    {
      "midi": 42,
      "hit": false,
      "t": 231545.2230000035,
      "d": 272.7270000000135,
      "v": 100
    },
    {
      "midi": 70,
      "hit": false,
      "t": 231545.2230000035,
      "d": 272.7270000000135,
      "v": 100
    },
    {
      "midi": 75,
      "hit": false,
      "t": 231545.2230000035,
      "d": 272.7270000000135,
      "v": 100
    },
    {
      "midi": 56,
      "hit": false,
      "t": 232090.67700000352,
      "d": 818.1810000000114,
      "v": 100
    },
    {
      "midi": 61,
      "hit": false,
      "t": 232090.67700000352,
      "d": 818.1810000000114,
      "v": 100
    },
    {
      "midi": 66,
      "hit": false,
      "t": 232090.67700000352,
      "d": 818.1810000000114,
      "v": 100
    },
    {
      "midi": 42,
      "hit": false,
      "t": 232636.13100000352,
      "d": 272.7270000000135,
      "v": 100
    },
    {
      "midi": 54,
      "hit": false,
      "t": 232908.85800000353,
      "d": 545.4539999999979,
      "v": 100
    },
    {
      "midi": 58,
      "hit": false,
      "t": 232908.85800000353,
      "d": 545.4539999999979,
      "v": 100
    },
    {
      "midi": 42,
      "hit": false,
      "t": 233454.31200000353,
      "d": 272.7270000000135,
      "v": 100
    },
    {
      "midi": 42,
      "hit": false,
      "t": 233727.03900000354,
      "d": 272.7270000000135,
      "v": 100
    },
    {
      "midi": 59,
      "hit": false,
      "t": 234272.49300000357,
      "d": 818.1810000000114,
      "v": 100
    },
    {
      "midi": 61,
      "hit": false,
      "t": 234272.49300000357,
      "d": 818.1810000000114,
      "v": 100
    },
    {
      "midi": 68,
      "hit": false,
      "t": 234272.49300000357,
      "d": 818.1810000000114,
      "v": 100
    },
    {
      "midi": 54,
      "hit": false,
      "t": 235090.67400000358,
      "d": 272.7270000000135,
      "v": 100
    },
    {
      "midi": 58,
      "hit": false,
      "t": 235090.67400000358,
      "d": 545.454000000027,
      "v": 100
    },
    {
      "midi": 61,
      "hit": false,
      "t": 235090.67400000358,
      "d": 545.454000000027,
      "v": 100
    },
    {
      "midi": 66,
      "hit": false,
      "t": 235090.67400000358,
      "d": 545.454000000027,
      "v": 100
    },
    {
      "midi": 70,
      "hit": false,
      "t": 235090.67400000358,
      "d": 545.454000000027,
      "v": 100
    },
    {
      "midi": 42,
      "hit": false,
      "t": 235363.4010000036,
      "d": 272.7270000000135,
      "v": 100
    },
    {
      "midi": 44,
      "hit": false,
      "t": 235636.1280000036,
      "d": 545.4539999999979,
      "v": 100
    },
    {
      "midi": 66,
      "hit": false,
      "t": 235636.1280000036,
      "d": 545.4539999999979,
      "v": 100
    },
    {
      "midi": 71,
      "hit": false,
      "t": 235636.1280000036,
      "d": 545.4539999999979,
      "v": 100
    },
    {
      "midi": 75,
      "hit": false,
      "t": 235636.1280000036,
      "d": 545.4539999999979,
      "v": 100
    },
    {
      "midi": 66,
      "hit": false,
      "t": 236454.30900000362,
      "d": 272.7270000000135,
      "v": 100
    },
    {
      "midi": 58,
      "hit": false,
      "t": 236727.03600000363,
      "d": 272.7270000000135,
      "v": 100
    },
    {
      "midi": 61,
      "hit": false,
      "t": 236727.03600000363,
      "d": 545.454000000027,
      "v": 100
    },
    {
      "midi": 42,
      "hit": false,
      "t": 236999.76300000364,
      "d": 272.7270000000135,
      "v": 100
    },
    {
      "midi": 66,
      "hit": false,
      "t": 236999.76300000364,
      "d": 272.7270000000135,
      "v": 100
    },
    {
      "midi": 44,
      "hit": false,
      "t": 237272.49000000366,
      "d": 272.7270000000135,
      "v": 100
    },
    {
      "midi": 59,
      "hit": false,
      "t": 237272.49000000366,
      "d": 545.454000000027,
      "v": 100
    },
    {
      "midi": 63,
      "hit": false,
      "t": 237272.49000000366,
      "d": 545.454000000027,
      "v": 100
    },
    {
      "midi": 42,
      "hit": false,
      "t": 237545.21700000367,
      "d": 272.7270000000135,
      "v": 100
    },
    {
      "midi": 40,
      "hit": false,
      "t": 237817.94400000368,
      "d": 272.7270000000135,
      "v": 100
    },
    {
      "midi": 64,
      "hit": false,
      "t": 237817.94400000368,
      "d": 272.7270000000135,
      "v": 100
    },
    {
      "midi": 75,
      "hit": false,
      "t": 237817.94400000368,
      "d": 272.7270000000135,
      "v": 100
    },
    {
      "midi": 40,
      "hit": false,
      "t": 238090.6710000037,
      "d": 272.7270000000135,
      "v": 100
    },
    {
      "midi": 64,
      "hit": false,
      "t": 238090.6710000037,
      "d": 272.7270000000135,
      "v": 100
    },
    {
      "midi": 66,
      "hit": false,
      "t": 238090.6710000037,
      "d": 272.7270000000135,
      "v": 100
    },
    {
      "midi": 71,
      "hit": false,
      "t": 238090.6710000037,
      "d": 272.7270000000135,
      "v": 100
    },
    {
      "midi": 64,
      "hit": false,
      "t": 238363.3980000037,
      "d": 272.7270000000135,
      "v": 100
    },
    {
      "midi": 66,
      "hit": false,
      "t": 238363.3980000037,
      "d": 272.7270000000135,
      "v": 100
    },
    {
      "midi": 71,
      "hit": false,
      "t": 238363.3980000037,
      "d": 272.7270000000135,
      "v": 100
    },
    {
      "midi": 64,
      "hit": false,
      "t": 238636.12500000373,
      "d": 272.7270000000135,
      "v": 100
    },
    {
      "midi": 66,
      "hit": false,
      "t": 238636.12500000373,
      "d": 272.7270000000135,
      "v": 100
    },
    {
      "midi": 71,
      "hit": false,
      "t": 238636.12500000373,
      "d": 272.7270000000135,
      "v": 100
    },
    {
      "midi": 64,
      "hit": false,
      "t": 238908.85200000374,
      "d": 272.7270000000135,
      "v": 100
    },
    {
      "midi": 66,
      "hit": false,
      "t": 238908.85200000374,
      "d": 272.7270000000135,
      "v": 100
    },
    {
      "midi": 71,
      "hit": false,
      "t": 238908.85200000374,
      "d": 272.7270000000135,
      "v": 100
    },
    {
      "midi": 47,
      "hit": false,
      "t": 239181.57900000375,
      "d": 272.7270000000135,
      "v": 100
    },
    {
      "midi": 52,
      "hit": false,
      "t": 239454.30600000377,
      "d": 272.7270000000135,
      "v": 100
    },
    {
      "midi": 64,
      "hit": false,
      "t": 239454.30600000377,
      "d": 272.7270000000135,
      "v": 100
    },
    {
      "midi": 66,
      "hit": false,
      "t": 239454.30600000377,
      "d": 272.7270000000135,
      "v": 100
    },
    {
      "midi": 71,
      "hit": false,
      "t": 239454.30600000377,
      "d": 272.7270000000135,
      "v": 100
    },
    {
      "midi": 54,
      "hit": false,
      "t": 239727.03300000378,
      "d": 272.7270000000135,
      "v": 100
    },
    {
      "midi": 68,
      "hit": false,
      "t": 239727.03300000378,
      "d": 272.7270000000135,
      "v": 100
    },
    {
      "midi": 73,
      "hit": false,
      "t": 239727.03300000378,
      "d": 272.7270000000135,
      "v": 100
    },
    {
      "midi": 42,
      "hit": false,
      "t": 239999.7600000038,
      "d": 272.7270000000135,
      "v": 100
    },
    {
      "midi": 68,
      "hit": false,
      "t": 239999.7600000038,
      "d": 272.7270000000135,
      "v": 100
    },
    {
      "midi": 73,
      "hit": false,
      "t": 239999.7600000038,
      "d": 272.7270000000135,
      "v": 100
    },
    {
      "midi": 42,
      "hit": false,
      "t": 240272.4870000038,
      "d": 272.7270000000135,
      "v": 100
    },
    {
      "midi": 70,
      "hit": false,
      "t": 240272.4870000038,
      "d": 272.7270000000135,
      "v": 100
    },
    {
      "midi": 75,
      "hit": false,
      "t": 240272.4870000038,
      "d": 272.7270000000135,
      "v": 100
    },
    {
      "midi": 56,
      "hit": false,
      "t": 240817.94100000383,
      "d": 818.1810000000114,
      "v": 100
    },
    {
      "midi": 61,
      "hit": false,
      "t": 240817.94100000383,
      "d": 818.1810000000114,
      "v": 100
    },
    {
      "midi": 66,
      "hit": false,
      "t": 240817.94100000383,
      "d": 818.1810000000114,
      "v": 100
    },
    {
      "midi": 42,
      "hit": false,
      "t": 241363.39500000383,
      "d": 272.7270000000135,
      "v": 100
    },
    {
      "midi": 54,
      "hit": false,
      "t": 241636.12200000384,
      "d": 545.4539999999979,
      "v": 100
    },
    {
      "midi": 58,
      "hit": false,
      "t": 241636.12200000384,
      "d": 545.4539999999979,
      "v": 100
    },
    {
      "midi": 42,
      "hit": false,
      "t": 242181.57600000384,
      "d": 272.7270000000135,
      "v": 100
    },
    {
      "midi": 42,
      "hit": false,
      "t": 242454.30300000386,
      "d": 272.7270000000135,
      "v": 100
    },
    {
      "midi": 59,
      "hit": false,
      "t": 242999.75700000388,
      "d": 818.1810000000114,
      "v": 100
    },
    {
      "midi": 61,
      "hit": false,
      "t": 242999.75700000388,
      "d": 818.1810000000114,
      "v": 100
    },
    {
      "midi": 68,
      "hit": false,
      "t": 242999.75700000388,
      "d": 818.1810000000114,
      "v": 100
    },
    {
      "midi": 54,
      "hit": false,
      "t": 243817.9380000039,
      "d": 272.7270000000135,
      "v": 100
    },
    {
      "midi": 58,
      "hit": false,
      "t": 243817.9380000039,
      "d": 545.454000000027,
      "v": 100
    },
    {
      "midi": 61,
      "hit": false,
      "t": 243817.9380000039,
      "d": 545.454000000027,
      "v": 100
    },
    {
      "midi": 66,
      "hit": false,
      "t": 243817.9380000039,
      "d": 545.454000000027,
      "v": 100
    },
    {
      "midi": 70,
      "hit": false,
      "t": 243817.9380000039,
      "d": 545.454000000027,
      "v": 100
    },
    {
      "midi": 42,
      "hit": false,
      "t": 244090.6650000039,
      "d": 272.7270000000135,
      "v": 100
    },
    {
      "midi": 44,
      "hit": false,
      "t": 244363.39200000392,
      "d": 545.4539999999979,
      "v": 100
    },
    {
      "midi": 66,
      "hit": false,
      "t": 244363.39200000392,
      "d": 545.4539999999979,
      "v": 100
    },
    {
      "midi": 71,
      "hit": false,
      "t": 244363.39200000392,
      "d": 545.4539999999979,
      "v": 100
    },
    {
      "midi": 75,
      "hit": false,
      "t": 244363.39200000392,
      "d": 545.4539999999979,
      "v": 100
    },
    {
      "midi": 66,
      "hit": false,
      "t": 245181.57300000393,
      "d": 272.7270000000135,
      "v": 100
    },
    {
      "midi": 58,
      "hit": false,
      "t": 245454.30000000395,
      "d": 272.7270000000135,
      "v": 100
    },
    {
      "midi": 61,
      "hit": false,
      "t": 245454.30000000395,
      "d": 545.454000000027,
      "v": 100
    },
    {
      "midi": 42,
      "hit": false,
      "t": 245727.02700000396,
      "d": 272.7270000000135,
      "v": 100
    },
    {
      "midi": 66,
      "hit": false,
      "t": 245727.02700000396,
      "d": 272.7270000000135,
      "v": 100
    },
    {
      "midi": 44,
      "hit": false,
      "t": 245999.75400000397,
      "d": 272.7270000000135,
      "v": 100
    },
    {
      "midi": 59,
      "hit": false,
      "t": 245999.75400000397,
      "d": 545.454000000027,
      "v": 100
    },
    {
      "midi": 63,
      "hit": false,
      "t": 245999.75400000397,
      "d": 545.454000000027,
      "v": 100
    },
    {
      "midi": 42,
      "hit": false,
      "t": 246272.481000004,
      "d": 272.7270000000135,
      "v": 100
    },
    {
      "midi": 40,
      "hit": false,
      "t": 246545.208000004,
      "d": 272.7270000000135,
      "v": 100
    },
    {
      "midi": 64,
      "hit": false,
      "t": 246545.208000004,
      "d": 272.7270000000135,
      "v": 100
    },
    {
      "midi": 75,
      "hit": false,
      "t": 246545.208000004,
      "d": 272.7270000000135,
      "v": 100
    },
    {
      "midi": 40,
      "hit": false,
      "t": 246817.935000004,
      "d": 272.7270000000135,
      "v": 100
    },
    {
      "midi": 64,
      "hit": false,
      "t": 246817.935000004,
      "d": 272.7270000000135,
      "v": 100
    },
    {
      "midi": 66,
      "hit": false,
      "t": 246817.935000004,
      "d": 272.7270000000135,
      "v": 100
    },
    {
      "midi": 71,
      "hit": false,
      "t": 246817.935000004,
      "d": 272.7270000000135,
      "v": 100
    },
    {
      "midi": 64,
      "hit": false,
      "t": 247090.66200000403,
      "d": 272.7270000000135,
      "v": 100
    },
    {
      "midi": 66,
      "hit": false,
      "t": 247090.66200000403,
      "d": 272.7270000000135,
      "v": 100
    },
    {
      "midi": 71,
      "hit": false,
      "t": 247090.66200000403,
      "d": 272.7270000000135,
      "v": 100
    },
    {
      "midi": 64,
      "hit": false,
      "t": 247363.38900000404,
      "d": 272.7270000000135,
      "v": 100
    },
    {
      "midi": 66,
      "hit": false,
      "t": 247363.38900000404,
      "d": 272.7270000000135,
      "v": 100
    },
    {
      "midi": 71,
      "hit": false,
      "t": 247363.38900000404,
      "d": 272.7270000000135,
      "v": 100
    },
    {
      "midi": 64,
      "hit": false,
      "t": 247636.11600000405,
      "d": 272.7270000000135,
      "v": 100
    },
    {
      "midi": 66,
      "hit": false,
      "t": 247636.11600000405,
      "d": 272.7270000000135,
      "v": 100
    },
    {
      "midi": 71,
      "hit": false,
      "t": 247636.11600000405,
      "d": 272.7270000000135,
      "v": 100
    },
    {
      "midi": 47,
      "hit": false,
      "t": 247908.84300000407,
      "d": 272.7270000000135,
      "v": 100
    },
    {
      "midi": 52,
      "hit": false,
      "t": 248181.57000000408,
      "d": 272.7270000000135,
      "v": 100
    },
    {
      "midi": 64,
      "hit": false,
      "t": 248181.57000000408,
      "d": 272.7270000000135,
      "v": 100
    },
    {
      "midi": 66,
      "hit": false,
      "t": 248181.57000000408,
      "d": 272.7270000000135,
      "v": 100
    },
    {
      "midi": 71,
      "hit": false,
      "t": 248181.57000000408,
      "d": 272.7270000000135,
      "v": 100
    },
    {
      "midi": 54,
      "hit": false,
      "t": 248454.2970000041,
      "d": 272.7270000000135,
      "v": 100
    },
    {
      "midi": 68,
      "hit": false,
      "t": 248454.2970000041,
      "d": 272.7270000000135,
      "v": 100
    },
    {
      "midi": 73,
      "hit": false,
      "t": 248454.2970000041,
      "d": 272.7270000000135,
      "v": 100
    },
    {
      "midi": 42,
      "hit": false,
      "t": 248727.0240000041,
      "d": 272.7270000000135,
      "v": 100
    },
    {
      "midi": 68,
      "hit": false,
      "t": 248727.0240000041,
      "d": 272.7270000000135,
      "v": 100
    },
    {
      "midi": 73,
      "hit": false,
      "t": 248727.0240000041,
      "d": 272.7270000000135,
      "v": 100
    },
    {
      "midi": 42,
      "hit": false,
      "t": 248999.75100000412,
      "d": 272.7270000000135,
      "v": 100
    },
    {
      "midi": 70,
      "hit": false,
      "t": 248999.75100000412,
      "d": 272.7270000000135,
      "v": 100
    },
    {
      "midi": 75,
      "hit": false,
      "t": 248999.75100000412,
      "d": 272.7270000000135,
      "v": 100
    },
    {
      "midi": 56,
      "hit": false,
      "t": 249545.20500000415,
      "d": 818.1810000000114,
      "v": 100
    },
    {
      "midi": 61,
      "hit": false,
      "t": 249545.20500000415,
      "d": 818.1810000000114,
      "v": 100
    },
    {
      "midi": 66,
      "hit": false,
      "t": 249545.20500000415,
      "d": 818.1810000000114,
      "v": 100
    },
    {
      "midi": 42,
      "hit": false,
      "t": 250090.65900000415,
      "d": 272.7270000000135,
      "v": 100
    },
    {
      "midi": 54,
      "hit": false,
      "t": 250363.38600000416,
      "d": 545.4539999999979,
      "v": 100
    },
    {
      "midi": 58,
      "hit": false,
      "t": 250363.38600000416,
      "d": 545.4539999999979,
      "v": 100
    },
    {
      "midi": 42,
      "hit": false,
      "t": 250908.84000000416,
      "d": 272.7270000000135,
      "v": 100
    },
    {
      "midi": 42,
      "hit": false,
      "t": 251181.56700000417,
      "d": 272.7270000000135,
      "v": 100
    },
    {
      "midi": 59,
      "hit": false,
      "t": 251727.0210000042,
      "d": 818.1810000000114,
      "v": 100
    },
    {
      "midi": 61,
      "hit": false,
      "t": 251727.0210000042,
      "d": 818.1810000000114,
      "v": 100
    },
    {
      "midi": 68,
      "hit": false,
      "t": 251727.0210000042,
      "d": 818.1810000000114,
      "v": 100
    },
    {
      "midi": 54,
      "hit": false,
      "t": 252545.2020000042,
      "d": 272.7270000000135,
      "v": 100
    },
    {
      "midi": 58,
      "hit": false,
      "t": 252545.2020000042,
      "d": 545.454000000027,
      "v": 100
    },
    {
      "midi": 61,
      "hit": false,
      "t": 252545.2020000042,
      "d": 545.454000000027,
      "v": 100
    },
    {
      "midi": 66,
      "hit": false,
      "t": 252545.2020000042,
      "d": 545.454000000027,
      "v": 100
    },
    {
      "midi": 70,
      "hit": false,
      "t": 252545.2020000042,
      "d": 545.454000000027,
      "v": 100
    },
    {
      "midi": 42,
      "hit": false,
      "t": 252817.92900000422,
      "d": 272.7270000000135,
      "v": 100
    },
    {
      "midi": 44,
      "hit": false,
      "t": 253090.65600000424,
      "d": 545.4539999999979,
      "v": 100
    },
    {
      "midi": 66,
      "hit": false,
      "t": 253090.65600000424,
      "d": 545.4539999999979,
      "v": 100
    },
    {
      "midi": 71,
      "hit": false,
      "t": 253090.65600000424,
      "d": 545.4539999999979,
      "v": 100
    },
    {
      "midi": 75,
      "hit": false,
      "t": 253090.65600000424,
      "d": 545.4539999999979,
      "v": 100
    },
    {
      "midi": 66,
      "hit": false,
      "t": 253908.83700000425,
      "d": 272.7270000000135,
      "v": 100
    },
    {
      "midi": 58,
      "hit": false,
      "t": 254181.56400000426,
      "d": 272.7270000000135,
      "v": 100
    },
    {
      "midi": 61,
      "hit": false,
      "t": 254181.56400000426,
      "d": 545.454000000027,
      "v": 100
    },
    {
      "midi": 42,
      "hit": false,
      "t": 254454.29100000428,
      "d": 272.7270000000135,
      "v": 100
    },
    {
      "midi": 66,
      "hit": false,
      "t": 254454.29100000428,
      "d": 272.7270000000135,
      "v": 100
    },
    {
      "midi": 44,
      "hit": false,
      "t": 254727.0180000043,
      "d": 272.7270000000135,
      "v": 100
    },
    {
      "midi": 59,
      "hit": false,
      "t": 254727.0180000043,
      "d": 545.454000000027,
      "v": 100
    },
    {
      "midi": 63,
      "hit": false,
      "t": 254727.0180000043,
      "d": 545.454000000027,
      "v": 100
    },
    {
      "midi": 42,
      "hit": false,
      "t": 254999.7450000043,
      "d": 272.7270000000135,
      "v": 100
    },
    {
      "midi": 40,
      "hit": false,
      "t": 255272.47200000432,
      "d": 272.7270000000135,
      "v": 100
    },
    {
      "midi": 64,
      "hit": false,
      "t": 255272.47200000432,
      "d": 272.7270000000135,
      "v": 100
    },
    {
      "midi": 75,
      "hit": false,
      "t": 255272.47200000432,
      "d": 272.7270000000135,
      "v": 100
    },
    {
      "midi": 40,
      "hit": false,
      "t": 255545.19900000433,
      "d": 272.7270000000135,
      "v": 100
    },
    {
      "midi": 64,
      "hit": false,
      "t": 255545.19900000433,
      "d": 272.7270000000135,
      "v": 100
    },
    {
      "midi": 66,
      "hit": false,
      "t": 255545.19900000433,
      "d": 272.7270000000135,
      "v": 100
    },
    {
      "midi": 71,
      "hit": false,
      "t": 255545.19900000433,
      "d": 272.7270000000135,
      "v": 100
    },
    {
      "midi": 64,
      "hit": false,
      "t": 255817.92600000434,
      "d": 272.7270000000135,
      "v": 100
    },
    {
      "midi": 66,
      "hit": false,
      "t": 255817.92600000434,
      "d": 272.7270000000135,
      "v": 100
    },
    {
      "midi": 71,
      "hit": false,
      "t": 255817.92600000434,
      "d": 272.7270000000135,
      "v": 100
    },
    {
      "midi": 64,
      "hit": false,
      "t": 256090.65300000436,
      "d": 272.7270000000135,
      "v": 100
    },
    {
      "midi": 66,
      "hit": false,
      "t": 256090.65300000436,
      "d": 272.7270000000135,
      "v": 100
    },
    {
      "midi": 71,
      "hit": false,
      "t": 256090.65300000436,
      "d": 272.7270000000135,
      "v": 100
    },
    {
      "midi": 64,
      "hit": false,
      "t": 256363.38000000437,
      "d": 272.7270000000135,
      "v": 100
    },
    {
      "midi": 66,
      "hit": false,
      "t": 256363.38000000437,
      "d": 272.7270000000135,
      "v": 100
    },
    {
      "midi": 71,
      "hit": false,
      "t": 256363.38000000437,
      "d": 272.7270000000135,
      "v": 100
    },
    {
      "midi": 47,
      "hit": false,
      "t": 256636.10700000438,
      "d": 272.7270000000135,
      "v": 100
    },
    {
      "midi": 52,
      "hit": false,
      "t": 256908.8340000044,
      "d": 272.7270000000135,
      "v": 100
    },
    {
      "midi": 64,
      "hit": false,
      "t": 256908.8340000044,
      "d": 272.7270000000135,
      "v": 100
    },
    {
      "midi": 66,
      "hit": false,
      "t": 256908.8340000044,
      "d": 272.7270000000135,
      "v": 100
    },
    {
      "midi": 71,
      "hit": false,
      "t": 256908.8340000044,
      "d": 272.7270000000135,
      "v": 100
    },
    {
      "midi": 54,
      "hit": false,
      "t": 257181.5610000044,
      "d": 272.7270000000135,
      "v": 100
    },
    {
      "midi": 68,
      "hit": false,
      "t": 257181.5610000044,
      "d": 272.7270000000135,
      "v": 100
    },
    {
      "midi": 73,
      "hit": false,
      "t": 257181.5610000044,
      "d": 272.7270000000135,
      "v": 100
    },
    {
      "midi": 42,
      "hit": false,
      "t": 257454.28800000442,
      "d": 272.7270000000135,
      "v": 100
    },
    {
      "midi": 68,
      "hit": false,
      "t": 257454.28800000442,
      "d": 272.7270000000135,
      "v": 100
    },
    {
      "midi": 73,
      "hit": false,
      "t": 257454.28800000442,
      "d": 272.7270000000135,
      "v": 100
    },
    {
      "midi": 42,
      "hit": false,
      "t": 257727.01500000444,
      "d": 272.7270000000135,
      "v": 100
    },
    {
      "midi": 70,
      "hit": false,
      "t": 257727.01500000444,
      "d": 272.7270000000135,
      "v": 100
    },
    {
      "midi": 75,
      "hit": false,
      "t": 257727.01500000444,
      "d": 272.7270000000135,
      "v": 100
    },
    {
      "midi": 56,
      "hit": false,
      "t": 258272.46900000446,
      "d": 818.1810000000114,
      "v": 100
    },
    {
      "midi": 61,
      "hit": false,
      "t": 258272.46900000446,
      "d": 818.1810000000114,
      "v": 100
    },
    {
      "midi": 66,
      "hit": false,
      "t": 258272.46900000446,
      "d": 818.1810000000114,
      "v": 100
    },
    {
      "midi": 42,
      "hit": false,
      "t": 258817.92300000446,
      "d": 272.7270000000135,
      "v": 100
    },
    {
      "midi": 54,
      "hit": false,
      "t": 259090.65000000448,
      "d": 545.4539999999979,
      "v": 100
    },
    {
      "midi": 58,
      "hit": false,
      "t": 259090.65000000448,
      "d": 545.4539999999979,
      "v": 100
    },
    {
      "midi": 42,
      "hit": false,
      "t": 259636.10400000447,
      "d": 272.7270000000135,
      "v": 100
    },
    {
      "midi": 42,
      "hit": false,
      "t": 259908.8310000045,
      "d": 272.7270000000135,
      "v": 100
    },
    {
      "midi": 59,
      "hit": false,
      "t": 260454.28500000451,
      "d": 818.1810000000114,
      "v": 100
    },
    {
      "midi": 61,
      "hit": false,
      "t": 260454.28500000451,
      "d": 818.1810000000114,
      "v": 100
    },
    {
      "midi": 68,
      "hit": false,
      "t": 260454.28500000451,
      "d": 818.1810000000114,
      "v": 100
    },
    {
      "midi": 54,
      "hit": false,
      "t": 261272.46600000453,
      "d": 272.7270000000135,
      "v": 100
    },
    {
      "midi": 58,
      "hit": false,
      "t": 261272.46600000453,
      "d": 545.454000000027,
      "v": 100
    },
    {
      "midi": 61,
      "hit": false,
      "t": 261272.46600000453,
      "d": 545.454000000027,
      "v": 100
    },
    {
      "midi": 66,
      "hit": false,
      "t": 261272.46600000453,
      "d": 545.454000000027,
      "v": 100
    },
    {
      "midi": 70,
      "hit": false,
      "t": 261272.46600000453,
      "d": 545.454000000027,
      "v": 100
    },
    {
      "midi": 42,
      "hit": false,
      "t": 261545.19300000454,
      "d": 272.7270000000135,
      "v": 100
    }
  ]
}