{
  "jsonPath": "Jazz/Polish Jazz/New Orleans Stompers/when-the-saints-go-marching-in.json",
  "path": "Jazz\\Polish Jazz\\New Orleans Stompers\\When The Saints Go Marching In.mid",
  "name": "When The Saints Go Marching In",
  "difficulty": "Advanced",
  "bpm": 190.0002850004275,
  "notes": [
    {
      "midi": 60,
      "hit": false,
      "t": 0,
      "d": 1263.156,
      "v": 64
    },
    {
      "midi": 45,
      "hit": false,
      "t": 2148.02309375,
      "d": 21.381546875000367,
      "v": 59
    },
    {
      "midi": 47,
      "hit": false,
      "t": 2166.115171875,
      "d": 24.67101562500011,
      "v": 80
    },
    {
      "midi": 48,
      "hit": false,
      "t": 2195.720390625,
      "d": 26.315750000000207,
      "v": 72
    },
    {
      "midi": 50,
      "hit": false,
      "t": 2222.0361406250004,
      "d": 23.02628125000001,
      "v": 85
    },
    {
      "midi": 52,
      "hit": false,
      "t": 2246.7071562500005,
      "d": 26.315750000000207,
      "v": 100
    },
    {
      "midi": 53,
      "hit": false,
      "t": 2273.0229062500007,
      "d": 14.802609374999975,
      "v": 98
    },
    {
      "midi": 55,
      "hit": false,
      "t": 2294.4044531250006,
      "d": 13.157874999999876,
      "v": 98
    },
    {
      "midi": 57,
      "hit": false,
      "t": 2312.4965312500003,
      "d": 16.447343750000073,
      "v": 95
    },
    {
      "midi": 59,
      "hit": false,
      "t": 2332.2333437500006,
      "d": 14.802609374999975,
      "v": 100
    },
    {
      "midi": 60,
      "hit": false,
      "t": 2348.6806875000007,
      "d": 16.447343750000073,
      "v": 102
    },
    {
      "midi": 62,
      "hit": false,
      "t": 2365.1280312500007,
      "d": 16.447343750000073,
      "v": 107
    },
    {
      "midi": 64,
      "hit": false,
      "t": 2386.5095781250006,
      "d": 14.802609374999975,
      "v": 100
    },
    {
      "midi": 65,
      "hit": false,
      "t": 2399.6674531250005,
      "d": 16.447343750000073,
      "v": 105
    },
    {
      "midi": 67,
      "hit": false,
      "t": 2412.8253281250004,
      "d": 18.09207812500017,
      "v": 107
    },
    {
      "midi": 69,
      "hit": false,
      "t": 2427.6279375000004,
      "d": 18.09207812500017,
      "v": 105
    },
    {
      "midi": 71,
      "hit": false,
      "t": 2444.0752812500004,
      "d": 18.09207812500017,
      "v": 102
    },
    {
      "midi": 72,
      "hit": false,
      "t": 2458.8778906250004,
      "d": 14.802609374999975,
      "v": 110
    },
    {
      "midi": 74,
      "hit": false,
      "t": 2481.9041718750004,
      "d": 11.513140624999778,
      "v": 107
    },
    {
      "midi": 76,
      "hit": false,
      "t": 2495.0620468750003,
      "d": 19.736812499999814,
      "v": 98
    },
    {
      "midi": 62,
      "hit": false,
      "t": 2526.312,
      "d": 70.72357812500013,
      "v": 85
    },
    {
      "midi": 65,
      "hit": false,
      "t": 2526.312,
      "d": 77.30251562500007,
      "v": 107
    },
    {
      "midi": 59,
      "hit": false,
      "t": 2526.312,
      "d": 92.10512500000004,
      "v": 89
    },
    {
      "midi": 71,
      "hit": false,
      "t": 2526.312,
      "d": 101.97353125000018,
      "v": 74
    },
    {
      "midi": 53,
      "hit": false,
      "t": 2526.312,
      "d": 106.90773437500002,
      "v": 53
    },
    {
      "midi": 74,
      "hit": false,
      "t": 2526.312,
      "d": 108.55246875000012,
      "v": 82
    },
    {
      "midi": 79,
      "hit": false,
      "t": 2526.312,
      "d": 113.48667187499996,
      "v": 100
    },
    {
      "midi": 59,
      "hit": false,
      "t": 3473.679,
      "d": 44.407828124999924,
      "v": 80
    },
    {
      "midi": 74,
      "hit": false,
      "t": 3473.679,
      "d": 57.5657031249998,
      "v": 85
    },
    {
      "midi": 65,
      "hit": false,
      "t": 3473.679,
      "d": 64.14464062499974,
      "v": 89
    },
    {
      "midi": 62,
      "hit": false,
      "t": 3473.679,
      "d": 69.07884374999958,
      "v": 87
    },
    {
      "midi": 71,
      "hit": false,
      "t": 3473.679,
      "d": 70.72357812499968,
      "v": 89
    },
    {
      "midi": 79,
      "hit": false,
      "t": 3473.679,
      "d": 70.72357812499968,
      "v": 78
    },
    {
      "midi": 53,
      "hit": false,
      "t": 3473.679,
      "d": 90.46039062499949,
      "v": 89
    },
    {
      "midi": 58,
      "hit": false,
      "t": 3789.4679999999994,
      "d": 60.855171874999996,
      "v": 102
    },
    {
      "midi": 73,
      "hit": false,
      "t": 3789.4679999999994,
      "d": 62.499906250000095,
      "v": 87
    },
    {
      "midi": 61,
      "hit": false,
      "t": 3789.4679999999994,
      "d": 65.78937500000029,
      "v": 105
    },
    {
      "midi": 67,
      "hit": false,
      "t": 3789.4679999999994,
      "d": 72.36831250000023,
      "v": 87
    },
    {
      "midi": 70,
      "hit": false,
      "t": 3789.4679999999994,
      "d": 74.01304687500033,
      "v": 89
    },
    {
      "midi": 79,
      "hit": false,
      "t": 3789.4679999999994,
      "d": 83.88145312500046,
      "v": 91
    },
    {
      "midi": 67,
      "hit": false,
      "t": 4736.835,
      "d": 64.14464062499974,
      "v": 91
    },
    {
      "midi": 79,
      "hit": false,
      "t": 4736.835,
      "d": 65.78937499999938,
      "v": 89
    },
    {
      "midi": 58,
      "hit": false,
      "t": 4736.835,
      "d": 67.43410937499903,
      "v": 63
    },
    {
      "midi": 70,
      "hit": false,
      "t": 4736.835,
      "d": 67.43410937499903,
      "v": 95
    },
    {
      "midi": 61,
      "hit": false,
      "t": 4736.835,
      "d": 74.01304687499942,
      "v": 72
    },
    {
      "midi": 73,
      "hit": false,
      "t": 4736.835,
      "d": 75.65778124999906,
      "v": 102
    },
    {
      "midi": 62,
      "hit": false,
      "t": 5052.623999999999,
      "d": 70.72357812500013,
      "v": 85
    },
    {
      "midi": 65,
      "hit": false,
      "t": 5052.623999999999,
      "d": 77.30251562500052,
      "v": 107
    },
    {
      "midi": 55,
      "hit": false,
      "t": 5052.623999999999,
      "d": 78.94725000000017,
      "v": 64
    },
    {
      "midi": 59,
      "hit": false,
      "t": 5052.623999999999,
      "d": 92.10512500000004,
      "v": 89
    },
    {
      "midi": 71,
      "hit": false,
      "t": 5052.623999999999,
      "d": 101.97353124999972,
      "v": 74
    },
    {
      "midi": 74,
      "hit": false,
      "t": 5052.623999999999,
      "d": 108.55246875000012,
      "v": 82
    },
    {
      "midi": 79,
      "hit": false,
      "t": 5052.623999999999,
      "d": 113.48667187499996,
      "v": 100
    },
    {
      "midi": 77,
      "hit": false,
      "t": 6315.779999999999,
      "d": 116.77614062500015,
      "v": 110
    },
    {
      "midi": 65,
      "hit": false,
      "t": 6315.779999999999,
      "d": 118.4208749999998,
      "v": 116
    },
    {
      "midi": 79,
      "hit": false,
      "t": 6315.779999999999,
      "d": 126.64454687499983,
      "v": 100
    },
    {
      "midi": 67,
      "hit": false,
      "t": 6315.779999999999,
      "d": 129.93401562500003,
      "v": 110
    },
    {
      "midi": 86,
      "hit": false,
      "t": 6315.779999999999,
      "d": 129.93401562500003,
      "v": 102
    },
    {
      "midi": 91,
      "hit": false,
      "t": 6315.779999999999,
      "d": 133.22348437500023,
      "v": 107
    },
    {
      "midi": 59,
      "hit": false,
      "t": 6315.779999999999,
      "d": 151.31556249999994,
      "v": 80
    },
    {
      "midi": 62,
      "hit": false,
      "t": 6315.779999999999,
      "d": 151.31556249999994,
      "v": 93
    },
    {
      "midi": 83,
      "hit": false,
      "t": 6315.779999999999,
      "d": 151.31556249999994,
      "v": 87
    },
    {
      "midi": 47,
      "hit": false,
      "t": 6315.779999999999,
      "d": 157.89450000000033,
      "v": 64
    },
    {
      "midi": 55,
      "hit": false,
      "t": 6315.779999999999,
      "d": 184.2102500000001,
      "v": 63
    },
    {
      "midi": 60,
      "hit": false,
      "t": 7578.935999999999,
      "d": 1896.378734375,
      "v": 74
    },
    {
      "midi": 64,
      "hit": false,
      "t": 7578.935999999999,
      "d": 1898.0234687500006,
      "v": 78
    },
    {
      "midi": 67,
      "hit": false,
      "t": 7578.935999999999,
      "d": 1899.6682031250011,
      "v": 89
    },
    {
      "midi": 72,
      "hit": false,
      "t": 7578.935999999999,
      "d": 1901.3129375000017,
      "v": 82
    },
    {
      "midi": 79,
      "hit": false,
      "t": 7578.935999999999,
      "d": 1902.9576718750022,
      "v": 85
    },
    {
      "midi": 76,
      "hit": false,
      "t": 7578.935999999999,
      "d": 1904.6024062500028,
      "v": 76
    },
    {
      "midi": 55,
      "hit": false,
      "t": 7578.935999999999,
      "d": 1917.7602812500036,
      "v": 85
    },
    {
      "midi": 72,
      "hit": false,
      "t": 10105.248000000003,
      "d": 1876.6419218749998,
      "v": 85
    },
    {
      "midi": 76,
      "hit": false,
      "t": 10105.248000000003,
      "d": 1878.2866562500003,
      "v": 72
    },
    {
      "midi": 79,
      "hit": false,
      "t": 10105.248000000003,
      "d": 1888.1550625,
      "v": 87
    },
    {
      "midi": 67,
      "hit": false,
      "t": 10105.248000000003,
      "d": 1889.7997968750005,
      "v": 87
    },
    {
      "midi": 60,
      "hit": false,
      "t": 10105.248000000003,
      "d": 1893.0892656249998,
      "v": 68
    },
    {
      "midi": 64,
      "hit": false,
      "t": 10105.248000000003,
      "d": 1896.378734374999,
      "v": 78
    },
    {
      "midi": 55,
      "hit": false,
      "t": 10105.248000000003,
      "d": 1902.9576718749995,
      "v": 85
    },
    {
      "midi": 79,
      "hit": false,
      "t": 12631.560000000003,
      "d": 468.74929687499935,
      "v": 82
    },
    {
      "midi": 76,
      "hit": false,
      "t": 12631.560000000003,
      "d": 513.1571249999997,
      "v": 64
    },
    {
      "midi": 72,
      "hit": false,
      "t": 12631.560000000003,
      "d": 514.8018593750003,
      "v": 78
    },
    {
      "midi": 67,
      "hit": false,
      "t": 12631.560000000003,
      "d": 518.0913281249996,
      "v": 87
    },
    {
      "midi": 64,
      "hit": false,
      "t": 12631.560000000003,
      "d": 532.8939374999991,
      "v": 68
    },
    {
      "midi": 60,
      "hit": false,
      "t": 12631.560000000003,
      "d": 537.8281406249989,
      "v": 58
    },
    {
      "midi": 55,
      "hit": false,
      "t": 12631.560000000003,
      "d": 550.9860156249997,
      "v": 72
    },
    {
      "midi": 64,
      "hit": false,
      "t": 13263.138000000003,
      "d": 245.06542187500054,
      "v": 60
    },
    {
      "midi": 60,
      "hit": false,
      "t": 13263.138000000003,
      "d": 249.99962500000038,
      "v": 58
    },
    {
      "midi": 55,
      "hit": false,
      "t": 13263.138000000003,
      "d": 258.2232968749995,
      "v": 70
    },
    {
      "midi": 76,
      "hit": false,
      "t": 13263.138000000003,
      "d": 286.1837812499998,
      "v": 80
    },
    {
      "midi": 72,
      "hit": false,
      "t": 13263.138000000003,
      "d": 310.854796874999,
      "v": 87
    },
    {
      "midi": 67,
      "hit": false,
      "t": 13263.138000000003,
      "d": 340.46001562499987,
      "v": 78
    },
    {
      "midi": 64,
      "hit": false,
      "t": 13894.716000000002,
      "d": 460.5256250000002,
      "v": 78
    },
    {
      "midi": 52,
      "hit": false,
      "t": 13894.716000000002,
      "d": 470.3940312499999,
      "v": 82
    },
    {
      "midi": 72,
      "hit": false,
      "t": 13894.716000000002,
      "d": 472.03876562500045,
      "v": 70
    },
    {
      "midi": 69,
      "hit": false,
      "t": 13894.716000000002,
      "d": 486.84137499999997,
      "v": 80
    },
    {
      "midi": 60,
      "hit": false,
      "t": 13894.716000000002,
      "d": 496.70978124999965,
      "v": 72
    },
    {
      "midi": 57,
      "hit": false,
      "t": 13894.716000000002,
      "d": 508.2229218749999,
      "v": 72
    },
    {
      "midi": 76,
      "hit": false,
      "t": 14526.294000000002,
      "d": 437.49934374999975,
      "v": 82
    },
    {
      "midi": 60,
      "hit": false,
      "t": 14526.294000000002,
      "d": 514.8018593750003,
      "v": 66
    },
    {
      "midi": 54,
      "hit": false,
      "t": 14526.294000000002,
      "d": 531.2492031250003,
      "v": 62
    },
    {
      "midi": 69,
      "hit": false,
      "t": 14526.294000000002,
      "d": 531.2492031250003,
      "v": 87
    },
    {
      "midi": 72,
      "hit": false,
      "t": 14526.294000000002,
      "d": 572.3675624999996,
      "v": 85
    },
    {
      "midi": 65,
      "hit": false,
      "t": 15157.872000000001,
      "d": 1402.9584218750006,
      "v": 64
    },
    {
      "midi": 59,
      "hit": false,
      "t": 15157.872000000001,
      "d": 1406.2478906250017,
      "v": 66
    },
    {
      "midi": 71,
      "hit": false,
      "t": 15157.872000000001,
      "d": 1411.1820937500033,
      "v": 80
    },
    {
      "midi": 74,
      "hit": false,
      "t": 15157.872000000001,
      "d": 1411.1820937500033,
      "v": 87
    },
    {
      "midi": 62,
      "hit": false,
      "t": 15157.872000000001,
      "d": 1458.8793906250048,
      "v": 66
    },
    {
      "midi": 59,
      "hit": false,
      "t": 17052.606000000007,
      "d": 398.0257187499992,
      "v": 70
    },
    {
      "midi": 55,
      "hit": false,
      "t": 17052.606000000007,
      "d": 419.4072656249991,
      "v": 66
    },
    {
      "midi": 62,
      "hit": false,
      "t": 17052.606000000007,
      "d": 421.0519999999997,
      "v": 66
    },
    {
      "midi": 79,
      "hit": false,
      "t": 17052.606000000007,
      "d": 442.4335468749996,
      "v": 78
    },
    {
      "midi": 71,
      "hit": false,
      "t": 17052.606000000007,
      "d": 444.07828125000015,
      "v": 87
    },
    {
      "midi": 74,
      "hit": false,
      "t": 17052.606000000007,
      "d": 453.9466874999998,
      "v": 72
    },
    {
      "midi": 65,
      "hit": false,
      "t": 17052.606000000007,
      "d": 462.17035937499895,
      "v": 82
    },
    {
      "midi": 67,
      "hit": false,
      "t": 17684.184000000005,
      "d": 858.5513437500013,
      "v": 66
    },
    {
      "midi": 72,
      "hit": false,
      "t": 17684.184000000005,
      "d": 861.8408125000024,
      "v": 85
    },
    {
      "midi": 76,
      "hit": false,
      "t": 17684.184000000005,
      "d": 871.709218750002,
      "v": 76
    },
    {
      "midi": 55,
      "hit": false,
      "t": 17684.184000000005,
      "d": 878.2881562500006,
      "v": 64
    },
    {
      "midi": 60,
      "hit": false,
      "t": 17684.184000000005,
      "d": 889.8012968750008,
      "v": 57
    },
    {
      "midi": 64,
      "hit": false,
      "t": 17684.184000000005,
      "d": 898.02496875,
      "v": 62
    },
    {
      "midi": 58,
      "hit": false,
      "t": 18947.340000000004,
      "d": 957.2354062500017,
      "v": 58
    },
    {
      "midi": 64,
      "hit": false,
      "t": 18947.340000000004,
      "d": 995.0642968750035,
      "v": 68
    },
    {
      "midi": 79,
      "hit": false,
      "t": 18947.340000000004,
      "d": 1019.7353125000045,
      "v": 95
    },
    {
      "midi": 84,
      "hit": false,
      "t": 18947.340000000004,
      "d": 1023.0247812500056,
      "v": 89
    },
    {
      "midi": 72,
      "hit": false,
      "t": 18947.340000000004,
      "d": 1039.4721250000039,
      "v": 85
    },
    {
      "midi": 60,
      "hit": false,
      "t": 20210.496000000006,
      "d": 983.5511562499996,
      "v": 78
    },
    {
      "midi": 57,
      "hit": false,
      "t": 20210.496000000006,
      "d": 1001.6432343749984,
      "v": 87
    },
    {
      "midi": 84,
      "hit": false,
      "t": 20210.496000000006,
      "d": 1019.7353124999972,
      "v": 93
    },
    {
      "midi": 62,
      "hit": false,
      "t": 20210.496000000006,
      "d": 1026.3142499999958,
      "v": 80
    },
    {
      "midi": 72,
      "hit": false,
      "t": 20210.496000000006,
      "d": 1049.3405312499963,
      "v": 87
    },
    {
      "midi": 77,
      "hit": false,
      "t": 20210.496000000006,
      "d": 1052.6299999999974,
      "v": 98
    },
    {
      "midi": 84,
      "hit": false,
      "t": 21473.652000000006,
      "d": 820.7224531249994,
      "v": 91
    },
    {
      "midi": 77,
      "hit": false,
      "t": 21473.652000000006,
      "d": 851.972406249999,
      "v": 100
    },
    {
      "midi": 56,
      "hit": false,
      "t": 21473.652000000006,
      "d": 871.7092187499984,
      "v": 74
    },
    {
      "midi": 72,
      "hit": false,
      "t": 21473.652000000006,
      "d": 873.353953124999,
      "v": 82
    },
    {
      "midi": 60,
      "hit": false,
      "t": 21473.652000000006,
      "d": 889.8012968749972,
      "v": 89
    },
    {
      "midi": 62,
      "hit": false,
      "t": 21473.652000000006,
      "d": 929.2749218749959,
      "v": 85
    },
    {
      "midi": 79,
      "hit": false,
      "t": 22736.808,
      "d": 442.4335468749996,
      "v": 82
    },
    {
      "midi": 60,
      "hit": false,
      "t": 22736.808,
      "d": 450.6572187499987,
      "v": 64
    },
    {
      "midi": 72,
      "hit": false,
      "t": 22736.808,
      "d": 453.9466874999998,
      "v": 68
    },
    {
      "midi": 64,
      "hit": false,
      "t": 22736.808,
      "d": 470.3940312499981,
      "v": 61
    },
    {
      "midi": 76,
      "hit": false,
      "t": 22736.808,
      "d": 488.4861093749969,
      "v": 62
    },
    {
      "midi": 67,
      "hit": false,
      "t": 22736.808,
      "d": 491.775578124998,
      "v": 72
    },
    {
      "midi": 55,
      "hit": false,
      "t": 22736.808,
      "d": 496.70978124999965,
      "v": 82
    },
    {
      "midi": 81,
      "hit": false,
      "t": 23368.386000000002,
      "d": 337.1705468750006,
      "v": 87
    },
    {
      "midi": 76,
      "hit": false,
      "t": 23368.386000000002,
      "d": 338.81528125000114,
      "v": 72
    },
    {
      "midi": 69,
      "hit": false,
      "t": 23368.386000000002,
      "d": 355.2626249999994,
      "v": 80
    },
    {
      "midi": 72,
      "hit": false,
      "t": 23368.386000000002,
      "d": 365.13103124999907,
      "v": 80
    },
    {
      "midi": 60,
      "hit": false,
      "t": 23368.386000000002,
      "d": 389.8020468750001,
      "v": 60
    },
    {
      "midi": 64,
      "hit": false,
      "t": 23368.386000000002,
      "d": 402.9599218750009,
      "v": 70
    },
    {
      "midi": 57,
      "hit": false,
      "t": 23368.386000000002,
      "d": 434.20987500000047,
      "v": 70
    },
    {
      "midi": 60,
      "hit": false,
      "t": 23999.964000000004,
      "d": 368.4205000000002,
      "v": 64
    },
    {
      "midi": 66,
      "hit": false,
      "t": 23999.964000000004,
      "d": 381.57837500000096,
      "v": 72
    },
    {
      "midi": 72,
      "hit": false,
      "t": 23999.964000000004,
      "d": 383.2231093750015,
      "v": 80
    },
    {
      "midi": 54,
      "hit": false,
      "t": 23999.964000000004,
      "d": 401.3151875000003,
      "v": 70
    },
    {
      "midi": 76,
      "hit": false,
      "t": 23999.964000000004,
      "d": 401.3151875000003,
      "v": 78
    },
    {
      "midi": 53,
      "hit": false,
      "t": 24631.542000000005,
      "d": 322.36793749999924,
      "v": 70
    },
    {
      "midi": 71,
      "hit": false,
      "t": 24631.542000000005,
      "d": 368.4205000000002,
      "v": 85
    },
    {
      "midi": 59,
      "hit": false,
      "t": 24631.542000000005,
      "d": 402.9599218750009,
      "v": 68
    },
    {
      "midi": 65,
      "hit": false,
      "t": 24631.542000000005,
      "d": 425.98620312500134,
      "v": 70
    },
    {
      "midi": 74,
      "hit": false,
      "t": 24631.542000000005,
      "d": 495.06504687500274,
      "v": 80
    },
    {
      "midi": 55,
      "hit": false,
      "t": 25263.120000000006,
      "d": 574.0122968750002,
      "v": 54
    },
    {
      "midi": 76,
      "hit": false,
      "t": 25263.120000000006,
      "d": 574.0122968750002,
      "v": 64
    },
    {
      "midi": 60,
      "hit": false,
      "t": 25263.120000000006,
      "d": 580.5912343749987,
      "v": 62
    },
    {
      "midi": 67,
      "hit": false,
      "t": 25263.120000000006,
      "d": 588.8149062499979,
      "v": 66
    },
    {
      "midi": 72,
      "hit": false,
      "t": 25263.120000000006,
      "d": 590.4596406249984,
      "v": 70
    },
    {
      "midi": 52,
      "hit": false,
      "t": 25263.120000000006,
      "d": 597.038578124997,
      "v": 68
    },
    {
      "midi": 79,
      "hit": false,
      "t": 27999.958000000002,
      "d": 78.94725000000108,
      "v": 64
    },
    {
      "midi": 81,
      "hit": false,
      "t": 27999.958000000002,
      "d": 78.94725000000108,
      "v": 64
    },
    {
      "midi": 87,
      "hit": false,
      "t": 27999.958000000002,
      "d": 134.8682187500017,
      "v": 113
    },
    {
      "midi": 93,
      "hit": false,
      "t": 27999.958000000002,
      "d": 138.1576875000028,
      "v": 89
    },
    {
      "midi": 86,
      "hit": false,
      "t": 28105.221000000005,
      "d": 161.18396874999962,
      "v": 68
    },
    {
      "midi": 84,
      "hit": false,
      "t": 28315.747000000003,
      "d": 97.03932812499988,
      "v": 80
    },
    {
      "midi": 79,
      "hit": false,
      "t": 28421.010000000002,
      "d": 78.94725000000108,
      "v": 64
    },
    {
      "midi": 81,
      "hit": false,
      "t": 28421.010000000002,
      "d": 78.94725000000108,
      "v": 64
    },
    {
      "midi": 87,
      "hit": false,
      "t": 28421.010000000002,
      "d": 115.13140625000233,
      "v": 105
    },
    {
      "midi": 93,
      "hit": false,
      "t": 28421.010000000002,
      "d": 143.09189062500081,
      "v": 82
    },
    {
      "midi": 86,
      "hit": false,
      "t": 28631.536000000004,
      "d": 88.81565625000076,
      "v": 82
    },
    {
      "midi": 84,
      "hit": false,
      "t": 28736.799000000003,
      "d": 138.15768749999916,
      "v": 87
    },
    {
      "midi": 79,
      "hit": false,
      "t": 28947.325,
      "d": 78.94725000000108,
      "v": 64
    },
    {
      "midi": 81,
      "hit": false,
      "t": 28947.325,
      "d": 78.94725000000108,
      "v": 64
    },
    {
      "midi": 87,
      "hit": false,
      "t": 28947.325,
      "d": 93.74985937500242,
      "v": 100
    },
    {
      "midi": 93,
      "hit": false,
      "t": 28947.325,
      "d": 100.32879687500099,
      "v": 85
    },
    {
      "midi": 86,
      "hit": false,
      "t": 29052.588000000003,
      "d": 123.35507812500146,
      "v": 82
    },
    {
      "midi": 84,
      "hit": false,
      "t": 29263.114000000005,
      "d": 62.499906249999185,
      "v": 91
    },
    {
      "midi": 81,
      "hit": false,
      "t": 29368.377000000004,
      "d": 182.56551562499953,
      "v": 107
    },
    {
      "midi": 80,
      "hit": false,
      "t": 29578.903000000002,
      "d": 101.97353125000154,
      "v": 80
    },
    {
      "midi": 79,
      "hit": false,
      "t": 29684.166000000005,
      "d": 169.40764062499875,
      "v": 80
    },
    {
      "midi": 81,
      "hit": false,
      "t": 29894.692000000003,
      "d": 90.46039062500131,
      "v": 105
    },
    {
      "midi": 79,
      "hit": false,
      "t": 30526.270000000004,
      "d": 78.94725000000108,
      "v": 64
    },
    {
      "midi": 81,
      "hit": false,
      "t": 30526.270000000004,
      "d": 78.94725000000108,
      "v": 64
    },
    {
      "midi": 87,
      "hit": false,
      "t": 30526.270000000004,
      "d": 134.8682187500017,
      "v": 113
    },
    {
      "midi": 93,
      "hit": false,
      "t": 30526.270000000004,
      "d": 138.1576875000028,
      "v": 89
    },
    {
      "midi": 86,
      "hit": false,
      "t": 30631.533000000007,
      "d": 161.18396874999962,
      "v": 68
    },
    {
      "midi": 84,
      "hit": false,
      "t": 30842.059000000005,
      "d": 97.03932812499988,
      "v": 80
    },
    {
      "midi": 79,
      "hit": false,
      "t": 30947.322000000004,
      "d": 78.94725000000108,
      "v": 64
    },
    {
      "midi": 81,
      "hit": false,
      "t": 30947.322000000004,
      "d": 78.94725000000108,
      "v": 64
    },
    {
      "midi": 87,
      "hit": false,
      "t": 30947.322000000004,
      "d": 115.13140625000233,
      "v": 105
    },
    {
      "midi": 93,
      "hit": false,
      "t": 30947.322000000004,
      "d": 143.09189062500081,
      "v": 82
    },
    {
      "midi": 86,
      "hit": false,
      "t": 31157.848000000005,
      "d": 88.81565625000076,
      "v": 82
    },
    {
      "midi": 84,
      "hit": false,
      "t": 31263.111000000004,
      "d": 138.15768749999916,
      "v": 87
    },
    {
      "midi": 79,
      "hit": false,
      "t": 31473.637000000002,
      "d": 78.94725000000108,
      "v": 64
    },
    {
      "midi": 81,
      "hit": false,
      "t": 31473.637000000002,
      "d": 78.94725000000108,
      "v": 64
    },
    {
      "midi": 87,
      "hit": false,
      "t": 31473.637000000002,
      "d": 93.74985937500242,
      "v": 100
    },
    {
      "midi": 93,
      "hit": false,
      "t": 31473.637000000002,
      "d": 100.32879687500099,
      "v": 85
    },
    {
      "midi": 86,
      "hit": false,
      "t": 31578.900000000005,
      "d": 123.35507812500146,
      "v": 82
    },
    {
      "midi": 84,
      "hit": false,
      "t": 31789.426000000007,
      "d": 62.499906249999185,
      "v": 91
    },
    {
      "midi": 81,
      "hit": false,
      "t": 31894.689000000006,
      "d": 182.56551562499953,
      "v": 107
    },
    {
      "midi": 80,
      "hit": false,
      "t": 32105.215000000004,
      "d": 101.97353125000154,
      "v": 80
    },
    {
      "midi": 79,
      "hit": false,
      "t": 32210.478000000006,
      "d": 169.40764062499875,
      "v": 80
    },
    {
      "midi": 81,
      "hit": false,
      "t": 32421.004000000004,
      "d": 90.46039062500131,
      "v": 105
    },
    {
      "midi": 79,
      "hit": false,
      "t": 33052.58200000001,
      "d": 78.94724999999744,
      "v": 64
    },
    {
      "midi": 81,
      "hit": false,
      "t": 33052.58200000001,
      "d": 78.94724999999744,
      "v": 64
    },
    {
      "midi": 87,
      "hit": false,
      "t": 33052.58200000001,
      "d": 134.8682187500017,
      "v": 113
    },
    {
      "midi": 93,
      "hit": false,
      "t": 33052.58200000001,
      "d": 138.1576875000028,
      "v": 89
    },
    {
      "midi": 86,
      "hit": false,
      "t": 33157.84500000001,
      "d": 161.18396875000326,
      "v": 68
    },
    {
      "midi": 84,
      "hit": false,
      "t": 33368.371000000014,
      "d": 97.03932812499988,
      "v": 80
    },
    {
      "midi": 79,
      "hit": false,
      "t": 33473.63400000001,
      "d": 78.94724999999744,
      "v": 64
    },
    {
      "midi": 81,
      "hit": false,
      "t": 33473.63400000001,
      "d": 78.94724999999744,
      "v": 64
    },
    {
      "midi": 87,
      "hit": false,
      "t": 33473.63400000001,
      "d": 115.13140624999505,
      "v": 105
    },
    {
      "midi": 93,
      "hit": false,
      "t": 33473.63400000001,
      "d": 143.09189062499354,
      "v": 82
    },
    {
      "midi": 86,
      "hit": false,
      "t": 33684.16,
      "d": 88.81565625000076,
      "v": 82
    },
    {
      "midi": 84,
      "hit": false,
      "t": 33789.423,
      "d": 138.1576875000028,
      "v": 87
    },
    {
      "midi": 79,
      "hit": false,
      "t": 33999.94900000001,
      "d": 78.94724999999744,
      "v": 64
    },
    {
      "midi": 81,
      "hit": false,
      "t": 33999.94900000001,
      "d": 78.94724999999744,
      "v": 64
    },
    {
      "midi": 87,
      "hit": false,
      "t": 33999.94900000001,
      "d": 93.74985937499878,
      "v": 100
    },
    {
      "midi": 93,
      "hit": false,
      "t": 33999.94900000001,
      "d": 100.32879687500099,
      "v": 85
    },
    {
      "midi": 83,
      "hit": false,
      "t": 34105.21200000001,
      "d": 149.67082812500303,
      "v": 85
    },
    {
      "midi": 81,
      "hit": false,
      "t": 34315.73800000001,
      "d": 77.30251562500052,
      "v": 82
    },
    {
      "midi": 84,
      "hit": false,
      "t": 34421.00100000001,
      "d": 134.8682187500017,
      "v": 93
    },
    {
      "midi": 83,
      "hit": false,
      "t": 34526.26400000001,
      "d": 78.94725000000471,
      "v": 64
    },
    {
      "midi": 81,
      "hit": false,
      "t": 34631.52700000002,
      "d": 106.90773437499593,
      "v": 89
    },
    {
      "midi": 78,
      "hit": false,
      "t": 34736.790000000015,
      "d": 113.48667187499814,
      "v": 95
    },
    {
      "midi": 76,
      "hit": false,
      "t": 34947.31600000001,
      "d": 118.42087499999616,
      "v": 66
    },
    {
      "midi": 74,
      "hit": false,
      "t": 35052.57900000001,
      "d": 149.67082812499575,
      "v": 100
    },
    {
      "midi": 72,
      "hit": false,
      "t": 35263.10500000001,
      "d": 67.4341093749972,
      "v": 87
    },
    {
      "midi": 79,
      "hit": false,
      "t": 35368.36800000001,
      "d": 292.76271874999657,
      "v": 102
    },
    {
      "midi": 67,
      "hit": false,
      "t": 35684.15700000001,
      "d": 240.1312187500007,
      "v": 93
    },
    {
      "midi": 79,
      "hit": false,
      "t": 35999.94600000001,
      "d": 108.55246875000012,
      "v": 98
    },
    {
      "midi": 71,
      "hit": false,
      "t": 35999.94600000001,
      "d": 134.8682187500017,
      "v": 93
    },
    {
      "midi": 67,
      "hit": false,
      "t": 36315.735000000015,
      "d": 67.4341093749972,
      "v": 76
    },
    {
      "midi": 74,
      "hit": false,
      "t": 36526.26100000001,
      "d": 133.2234843749975,
      "v": 102
    },
    {
      "midi": 83,
      "hit": false,
      "t": 36526.26100000001,
      "d": 177.63131249999424,
      "v": 105
    },
    {
      "midi": 67,
      "hit": false,
      "t": 36842.05000000001,
      "d": 60.85517187500227,
      "v": 82
    },
    {
      "midi": 81,
      "hit": false,
      "t": 36947.31300000001,
      "d": 138.1576875000028,
      "v": 102
    },
    {
      "midi": 72,
      "hit": false,
      "t": 36947.31300000001,
      "d": 152.96029687500413,
      "v": 98
    },
    {
      "midi": 67,
      "hit": false,
      "t": 37157.839000000014,
      "d": 42.763093749999825,
      "v": 87
    },
    {
      "midi": 79,
      "hit": false,
      "t": 37263.10200000001,
      "d": 120.06560937500035,
      "v": 93
    },
    {
      "midi": 71,
      "hit": false,
      "t": 37263.10200000001,
      "d": 126.64454687500256,
      "v": 102
    },
    {
      "midi": 67,
      "hit": false,
      "t": 37473.62800000002,
      "d": 37.828890625001804,
      "v": 87
    },
    {
      "midi": 69,
      "hit": false,
      "t": 37578.89100000002,
      "d": 138.1576875000028,
      "v": 87
    },
    {
      "midi": 77,
      "hit": false,
      "t": 37578.89100000002,
      "d": 154.60503125000105,
      "v": 98
    },
    {
      "midi": 67,
      "hit": false,
      "t": 37789.417000000016,
      "d": 31.249953124999593,
      "v": 85
    },
    {
      "midi": 81,
      "hit": false,
      "t": 37894.680000000015,
      "d": 78.94724999999744,
      "v": 64
    },
    {
      "midi": 72,
      "hit": false,
      "t": 37894.680000000015,
      "d": 88.81565625000076,
      "v": 85
    },
    {
      "midi": 76,
      "hit": false,
      "t": 37894.680000000015,
      "d": 88.81565625000076,
      "v": 80
    },
    {
      "midi": 79,
      "hit": false,
      "t": 37894.680000000015,
      "d": 111.84193750000122,
      "v": 89
    },
    {
      "midi": 84,
      "hit": false,
      "t": 37894.680000000015,
      "d": 131.57875000000058,
      "v": 91
    },
    {
      "midi": 64,
      "hit": false,
      "t": 38105.20600000001,
      "d": 65.78937500000029,
      "v": 70
    },
    {
      "midi": 60,
      "hit": false,
      "t": 38105.20600000001,
      "d": 69.0788437500014,
      "v": 76
    },
    {
      "midi": 67,
      "hit": false,
      "t": 38105.20600000001,
      "d": 70.72357812499831,
      "v": 68
    },
    {
      "midi": 72,
      "hit": false,
      "t": 38210.46900000001,
      "d": 133.2234843749975,
      "v": 93
    },
    {
      "midi": 76,
      "hit": false,
      "t": 38315.73200000001,
      "d": 121.71034374999726,
      "v": 89
    },
    {
      "midi": 79,
      "hit": false,
      "t": 38420.99500000001,
      "d": 97.03932812499988,
      "v": 100
    },
    {
      "midi": 79,
      "hit": false,
      "t": 38526.25800000001,
      "d": 105.26299999999901,
      "v": 64
    },
    {
      "midi": 81,
      "hit": false,
      "t": 38526.25800000001,
      "d": 105.26299999999901,
      "v": 64
    },
    {
      "midi": 72,
      "hit": false,
      "t": 38526.25800000001,
      "d": 139.8024218749997,
      "v": 107
    },
    {
      "midi": 76,
      "hit": false,
      "t": 38526.25800000001,
      "d": 152.96029687499686,
      "v": 98
    },
    {
      "midi": 84,
      "hit": false,
      "t": 38526.25800000001,
      "d": 167.7629062499982,
      "v": 100
    },
    {
      "midi": 81,
      "hit": false,
      "t": 38736.78400000001,
      "d": 210.52599999999802,
      "v": 64
    },
    {
      "midi": 76,
      "hit": false,
      "t": 38736.78400000001,
      "d": 230.26281249999738,
      "v": 102
    },
    {
      "midi": 79,
      "hit": false,
      "t": 38736.78400000001,
      "d": 253.28909374999785,
      "v": 100
    },
    {
      "midi": 72,
      "hit": false,
      "t": 38736.78400000001,
      "d": 268.0917031249992,
      "v": 98
    },
    {
      "midi": 84,
      "hit": false,
      "t": 38736.78400000001,
      "d": 284.53904687499744,
      "v": 98
    },
    {
      "midi": 72,
      "hit": false,
      "t": 39157.836,
      "d": 64.14464062500338,
      "v": 72
    },
    {
      "midi": 79,
      "hit": false,
      "t": 39157.836,
      "d": 74.0130468750067,
      "v": 87
    },
    {
      "midi": 82,
      "hit": false,
      "t": 39157.836,
      "d": 78.94725000000471,
      "v": 64
    },
    {
      "midi": 76,
      "hit": false,
      "t": 39157.836,
      "d": 80.59198437500163,
      "v": 91
    },
    {
      "midi": 84,
      "hit": false,
      "t": 39157.836,
      "d": 87.17092187500384,
      "v": 91
    },
    {
      "midi": 64,
      "hit": false,
      "t": 39368.36200000001,
      "d": 60.85517187500227,
      "v": 68
    },
    {
      "midi": 60,
      "hit": false,
      "t": 39368.36200000001,
      "d": 67.43410937500448,
      "v": 68
    },
    {
      "midi": 70,
      "hit": false,
      "t": 39368.36200000001,
      "d": 74.0130468750067,
      "v": 68
    },
    {
      "midi": 72,
      "hit": false,
      "t": 39473.625000000015,
      "d": 128.28928124999948,
      "v": 95
    },
    {
      "midi": 76,
      "hit": false,
      "t": 39578.88800000001,
      "d": 108.55246875000012,
      "v": 80
    },
    {
      "midi": 79,
      "hit": false,
      "t": 39684.15100000001,
      "d": 80.59198437500163,
      "v": 80
    },
    {
      "midi": 82,
      "hit": false,
      "t": 39789.41400000001,
      "d": 105.26299999999901,
      "v": 64
    },
    {
      "midi": 72,
      "hit": false,
      "t": 39789.41400000001,
      "d": 111.84193750000122,
      "v": 91
    },
    {
      "midi": 79,
      "hit": false,
      "t": 39789.41400000001,
      "d": 151.31556249999994,
      "v": 105
    },
    {
      "midi": 84,
      "hit": false,
      "t": 39789.41400000001,
      "d": 151.31556249999994,
      "v": 107
    },
    {
      "midi": 76,
      "hit": false,
      "t": 39789.41400000001,
      "d": 156.24976562499796,
      "v": 98
    },
    {
      "midi": 76,
      "hit": false,
      "t": 39999.94000000001,
      "d": 190.78918749999866,
      "v": 95
    },
    {
      "midi": 82,
      "hit": false,
      "t": 39999.94000000001,
      "d": 210.52599999999802,
      "v": 64
    },
    {
      "midi": 84,
      "hit": false,
      "t": 39999.94000000001,
      "d": 238.4864843749965,
      "v": 100
    },
    {
      "midi": 72,
      "hit": false,
      "t": 39999.94000000001,
      "d": 241.7759531249976,
      "v": 87
    },
    {
      "midi": 79,
      "hit": false,
      "t": 39999.94000000001,
      "d": 268.0917031249992,
      "v": 102
    },
    {
      "midi": 72,
      "hit": false,
      "t": 40420.992000000006,
      "d": 74.01304687499942,
      "v": 91
    },
    {
      "midi": 74,
      "hit": false,
      "t": 40420.992000000006,
      "d": 78.94724999999744,
      "v": 64
    },
    {
      "midi": 81,
      "hit": false,
      "t": 40420.992000000006,
      "d": 78.94724999999744,
      "v": 64
    },
    {
      "midi": 77,
      "hit": false,
      "t": 40420.992000000006,
      "d": 97.03932812499988,
      "v": 102
    },
    {
      "midi": 84,
      "hit": false,
      "t": 40420.992000000006,
      "d": 111.84193750000122,
      "v": 93
    },
    {
      "midi": 65,
      "hit": false,
      "t": 40631.518000000004,
      "d": 57.565703125001164,
      "v": 74
    },
    {
      "midi": 69,
      "hit": false,
      "t": 40631.518000000004,
      "d": 64.14464062500338,
      "v": 68
    },
    {
      "midi": 60,
      "hit": false,
      "t": 40631.518000000004,
      "d": 78.94725000000471,
      "v": 64
    },
    {
      "midi": 72,
      "hit": false,
      "t": 40736.78100000001,
      "d": 133.2234843749975,
      "v": 98
    },
    {
      "midi": 77,
      "hit": false,
      "t": 40842.04400000001,
      "d": 103.6182656250021,
      "v": 85
    },
    {
      "midi": 81,
      "hit": false,
      "t": 40947.30700000001,
      "d": 74.01304687499942,
      "v": 85
    },
    {
      "midi": 74,
      "hit": false,
      "t": 41052.57000000001,
      "d": 105.26299999999901,
      "v": 64
    },
    {
      "midi": 84,
      "hit": false,
      "t": 41052.57000000001,
      "d": 139.8024218749997,
      "v": 102
    },
    {
      "midi": 81,
      "hit": false,
      "t": 41052.57000000001,
      "d": 143.09189062500081,
      "v": 95
    },
    {
      "midi": 77,
      "hit": false,
      "t": 41052.57000000001,
      "d": 148.02609374999884,
      "v": 100
    },
    {
      "midi": 72,
      "hit": false,
      "t": 41052.57000000001,
      "d": 154.60503125000105,
      "v": 78
    },
    {
      "midi": 81,
      "hit": false,
      "t": 41263.096000000005,
      "d": 156.24976562499796,
      "v": 98
    },
    {
      "midi": 77,
      "hit": false,
      "t": 41263.096000000005,
      "d": 180.92078124999534,
      "v": 102
    },
    {
      "midi": 84,
      "hit": false,
      "t": 41263.096000000005,
      "d": 180.92078124999534,
      "v": 98
    },
    {
      "midi": 72,
      "hit": false,
      "t": 41263.096000000005,
      "d": 208.88126562499383,
      "v": 91
    },
    {
      "midi": 74,
      "hit": false,
      "t": 41263.096000000005,
      "d": 210.52599999999074,
      "v": 64
    },
    {
      "midi": 80,
      "hit": false,
      "t": 41684.147999999994,
      "d": 41.11835937500291,
      "v": 38
    },
    {
      "midi": 72,
      "hit": false,
      "t": 41684.147999999994,
      "d": 65.78937500000029,
      "v": 95
    },
    {
      "midi": 74,
      "hit": false,
      "t": 41684.147999999994,
      "d": 75.65778125000361,
      "v": 100
    },
    {
      "midi": 77,
      "hit": false,
      "t": 41684.147999999994,
      "d": 77.30251562500052,
      "v": 91
    },
    {
      "midi": 84,
      "hit": false,
      "t": 41684.147999999994,
      "d": 87.17092187500384,
      "v": 95
    },
    {
      "midi": 65,
      "hit": false,
      "t": 41894.674,
      "d": 47.697296874997846,
      "v": 63
    },
    {
      "midi": 68,
      "hit": false,
      "t": 41894.674,
      "d": 60.855171874994994,
      "v": 72
    },
    {
      "midi": 62,
      "hit": false,
      "t": 41894.674,
      "d": 78.94724999999744,
      "v": 64
    },
    {
      "midi": 74,
      "hit": false,
      "t": 41999.937,
      "d": 148.02609374999884,
      "v": 78
    },
    {
      "midi": 77,
      "hit": false,
      "t": 42105.2,
      "d": 80.59198437500163,
      "v": 80
    },
    {
      "midi": 80,
      "hit": false,
      "t": 42210.462999999996,
      "d": 59.21043749999808,
      "v": 44
    },
    {
      "midi": 72,
      "hit": false,
      "t": 42315.725999999995,
      "d": 98.6840624999968,
      "v": 98
    },
    {
      "midi": 77,
      "hit": false,
      "t": 42315.725999999995,
      "d": 120.06560937500035,
      "v": 89
    },
    {
      "midi": 74,
      "hit": false,
      "t": 42315.725999999995,
      "d": 138.1576875000028,
      "v": 105
    },
    {
      "midi": 80,
      "hit": false,
      "t": 42315.725999999995,
      "d": 139.8024218749997,
      "v": 91
    },
    {
      "midi": 84,
      "hit": false,
      "t": 42315.725999999995,
      "d": 141.44715624999662,
      "v": 93
    },
    {
      "midi": 77,
      "hit": false,
      "t": 42526.25199999999,
      "d": 243.4206875000018,
      "v": 89
    },
    {
      "midi": 74,
      "hit": false,
      "t": 42526.25199999999,
      "d": 279.6048437499994,
      "v": 89
    },
    {
      "midi": 72,
      "hit": false,
      "t": 42526.25199999999,
      "d": 304.2758593749968,
      "v": 80
    },
    {
      "midi": 80,
      "hit": false,
      "t": 42526.25199999999,
      "d": 320.72320312499505,
      "v": 85
    },
    {
      "midi": 84,
      "hit": false,
      "t": 42526.25199999999,
      "d": 320.72320312499505,
      "v": 98
    },
    {
      "midi": 72,
      "hit": false,
      "t": 42947.30399999999,
      "d": 69.0788437500014,
      "v": 82
    },
    {
      "midi": 76,
      "hit": false,
      "t": 42947.30399999999,
      "d": 78.94725000000471,
      "v": 70
    },
    {
      "midi": 67,
      "hit": false,
      "t": 42947.30399999999,
      "d": 87.17092187500384,
      "v": 82
    },
    {
      "midi": 87,
      "hit": false,
      "t": 43157.829999999994,
      "d": 83.88145312500274,
      "v": 107
    },
    {
      "midi": 90,
      "hit": false,
      "t": 43157.829999999994,
      "d": 92.10512500000186,
      "v": 105
    },
    {
      "midi": 86,
      "hit": false,
      "t": 43263.09299999999,
      "d": 87.17092187499657,
      "v": 100
    },
    {
      "midi": 89,
      "hit": false,
      "t": 43263.09299999999,
      "d": 124.99981249999837,
      "v": 93
    },
    {
      "midi": 84,
      "hit": false,
      "t": 43473.61899999999,
      "d": 47.697296874997846,
      "v": 60
    },
    {
      "midi": 88,
      "hit": false,
      "t": 43473.61899999999,
      "d": 55.92096874999697,
      "v": 70
    },
    {
      "midi": 84,
      "hit": false,
      "t": 43578.88199999999,
      "d": 85.52618749999965,
      "v": 87
    },
    {
      "midi": 81,
      "hit": false,
      "t": 43578.88199999999,
      "d": 136.5129531249986,
      "v": 78
    },
    {
      "midi": 86,
      "hit": false,
      "t": 43789.40799999999,
      "d": 80.59198437500163,
      "v": 98
    },
    {
      "midi": 83,
      "hit": false,
      "t": 43789.40799999999,
      "d": 105.26299999999901,
      "v": 64
    },
    {
      "midi": 81,
      "hit": false,
      "t": 43894.67099999999,
      "d": 105.26299999999901,
      "v": 64
    },
    {
      "midi": 84,
      "hit": false,
      "t": 43894.67099999999,
      "d": 115.13140625000233,
      "v": 105
    },
    {
      "midi": 79,
      "hit": false,
      "t": 44105.19699999999,
      "d": 64.14464062500338,
      "v": 85
    },
    {
      "midi": 76,
      "hit": false,
      "t": 44105.19699999999,
      "d": 105.26300000000629,
      "v": 64
    },
    {
      "midi": 81,
      "hit": false,
      "t": 44210.46,
      "d": 95.39459375000297,
      "v": 102
    },
    {
      "midi": 78,
      "hit": false,
      "t": 44210.46,
      "d": 105.26300000000629,
      "v": 64
    },
    {
      "midi": 81,
      "hit": false,
      "t": 44526.249,
      "d": 105.26299999999901,
      "v": 64
    },
    {
      "midi": 84,
      "hit": false,
      "t": 44526.249,
      "d": 105.26299999999901,
      "v": 82
    },
    {
      "midi": 81,
      "hit": false,
      "t": 44736.775,
      "d": 87.17092187499657,
      "v": 85
    },
    {
      "midi": 72,
      "hit": false,
      "t": 44736.775,
      "d": 105.26299999999901,
      "v": 64
    },
    {
      "midi": 74,
      "hit": false,
      "t": 44842.038,
      "d": 105.26299999999901,
      "v": 64
    },
    {
      "midi": 83,
      "hit": false,
      "t": 44842.038,
      "d": 121.71034374999726,
      "v": 98
    },
    {
      "midi": 81,
      "hit": false,
      "t": 44947.301,
      "d": 87.17092187499657,
      "v": 98
    },
    {
      "midi": 72,
      "hit": false,
      "t": 44947.301,
      "d": 105.26299999999901,
      "v": 64
    },
    {
      "midi": 79,
      "hit": false,
      "t": 45052.564,
      "d": 80.59198437500163,
      "v": 87
    },
    {
      "midi": 71,
      "hit": false,
      "t": 45052.564,
      "d": 105.26299999999901,
      "v": 64
    },
    {
      "midi": 77,
      "hit": false,
      "t": 45157.827,
      "d": 65.78937500000029,
      "v": 85
    },
    {
      "midi": 69,
      "hit": false,
      "t": 45157.827,
      "d": 105.26299999999901,
      "v": 64
    },
    {
      "midi": 76,
      "hit": false,
      "t": 45263.09,
      "d": 77.30251562500052,
      "v": 82
    },
    {
      "midi": 67,
      "hit": false,
      "t": 45263.09,
      "d": 105.26299999999901,
      "v": 64
    },
    {
      "midi": 74,
      "hit": false,
      "t": 45368.352999999996,
      "d": 85.52618749999965,
      "v": 100
    },
    {
      "midi": 65,
      "hit": false,
      "t": 45368.352999999996,
      "d": 105.26299999999901,
      "v": 64
    },
    {
      "midi": 72,
      "hit": false,
      "t": 45473.615999999995,
      "d": 69.0788437500014,
      "v": 93
    },
    {
      "midi": 60,
      "hit": false,
      "t": 45473.615999999995,
      "d": 90.46039062500495,
      "v": 85
    },
    {
      "midi": 64,
      "hit": false,
      "t": 45473.615999999995,
      "d": 90.46039062500495,
      "v": 80
    },
    {
      "midi": 55,
      "hit": false,
      "t": 45473.615999999995,
      "d": 92.10512500000186,
      "v": 76
    },
    {
      "midi": 52,
      "hit": false,
      "t": 45473.615999999995,
      "d": 103.6182656250021,
      "v": 78
    },
    {
      "midi": 64,
      "hit": false,
      "t": 45789.405,
      "d": 85.52618749999965,
      "v": 89
    },
    {
      "midi": 52,
      "hit": false,
      "t": 45789.405,
      "d": 87.17092187499657,
      "v": 82
    },
    {
      "midi": 55,
      "hit": false,
      "t": 45789.405,
      "d": 97.03932812499988,
      "v": 70
    },
    {
      "midi": 60,
      "hit": false,
      "t": 45789.405,
      "d": 97.03932812499988,
      "v": 95
    },
    {
      "midi": 65,
      "hit": false,
      "t": 46105.193999999996,
      "d": 98.6840624999968,
      "v": 93
    },
    {
      "midi": 53,
      "hit": false,
      "t": 46105.193999999996,
      "d": 111.84193749999395,
      "v": 91
    },
    {
      "midi": 62,
      "hit": false,
      "t": 46105.193999999996,
      "d": 111.84193749999395,
      "v": 89
    },
    {
      "midi": 60,
      "hit": false,
      "t": 46105.193999999996,
      "d": 116.77614062499197,
      "v": 91
    },
    {
      "midi": 57,
      "hit": false,
      "t": 46105.193999999996,
      "d": 121.71034374998999,
      "v": 87
    },
    {
      "midi": 54,
      "hit": false,
      "t": 46420.982999999986,
      "d": 65.78937500000029,
      "v": 66
    },
    {
      "midi": 66,
      "hit": false,
      "t": 46420.982999999986,
      "d": 78.94724999999744,
      "v": 89
    },
    {
      "midi": 60,
      "hit": false,
      "t": 46420.982999999986,
      "d": 80.59198437499435,
      "v": 85
    },
    {
      "midi": 57,
      "hit": false,
      "t": 46420.982999999986,
      "d": 82.23671874999127,
      "v": 72
    },
    {
      "midi": 63,
      "hit": false,
      "t": 46420.982999999986,
      "d": 87.17092187498929,
      "v": 93
    },
    {
      "midi": 55,
      "hit": false,
      "t": 46736.771999999975,
      "d": 64.14464062500338,
      "v": 80
    },
    {
      "midi": 60,
      "hit": false,
      "t": 46736.771999999975,
      "d": 64.14464062500338,
      "v": 87
    },
    {
      "midi": 64,
      "hit": false,
      "t": 46736.771999999975,
      "d": 72.3683125000025,
      "v": 98
    },
    {
      "midi": 67,
      "hit": false,
      "t": 46736.771999999975,
      "d": 75.65778125000361,
      "v": 87
    },
    {
      "midi": 58,
      "hit": false,
      "t": 46736.771999999975,
      "d": 83.88145312500274,
      "v": 87
    },
    {
      "midi": 60,
      "hit": false,
      "t": 47052.56099999998,
      "d": 537.8281406250026,
      "v": 91
    },
    {
      "midi": 65,
      "hit": false,
      "t": 47052.56099999998,
      "d": 559.2096875000061,
      "v": 85
    },
    {
      "midi": 58,
      "hit": false,
      "t": 47052.56099999998,
      "d": 562.4991562500072,
      "v": 82
    },
    {
      "midi": 54,
      "hit": false,
      "t": 47052.56099999998,
      "d": 565.7886250000083,
      "v": 80
    },
    {
      "midi": 44,
      "hit": false,
      "t": 47052.56099999998,
      "d": 578.9465000000055,
      "v": 82
    },
    {
      "midi": 44,
      "hit": false,
      "t": 47684.13899999999,
      "d": 77.30251562500052,
      "v": 85
    },
    {
      "midi": 60,
      "hit": false,
      "t": 47684.13899999999,
      "d": 87.17092187500384,
      "v": 98
    },
    {
      "midi": 65,
      "hit": false,
      "t": 47684.13899999999,
      "d": 90.46039062500495,
      "v": 85
    },
    {
      "midi": 54,
      "hit": false,
      "t": 47684.13899999999,
      "d": 95.39459375000297,
      "v": 78
    },
    {
      "midi": 58,
      "hit": false,
      "t": 47684.13899999999,
      "d": 100.32879687500099,
      "v": 82
    },
    {
      "midi": 70,
      "hit": false,
      "t": 47999.92799999999,
      "d": 111.84193750000122,
      "v": 80
    },
    {
      "midi": 68,
      "hit": false,
      "t": 47999.92799999999,
      "d": 121.71034375000454,
      "v": 78
    },
    {
      "midi": 65,
      "hit": false,
      "t": 47999.92799999999,
      "d": 134.8682187500017,
      "v": 89
    },
    {
      "midi": 68,
      "hit": false,
      "t": 48210.454,
      "d": 37.828890625001804,
      "v": 61
    },
    {
      "midi": 85,
      "hit": false,
      "t": 48210.454,
      "d": 50.98676562499895,
      "v": 91
    },
    {
      "midi": 65,
      "hit": false,
      "t": 48210.454,
      "d": 52.63149999999587,
      "v": 82
    },
    {
      "midi": 70,
      "hit": false,
      "t": 48210.454,
      "d": 57.56570312499389,
      "v": 91
    },
    {
      "midi": 73,
      "hit": false,
      "t": 48210.454,
      "d": 59.2104374999908,
      "v": 89
    },
    {
      "midi": 80,
      "hit": false,
      "t": 48210.454,
      "d": 64.14464062498882,
      "v": 91
    },
    {
      "midi": 68,
      "hit": false,
      "t": 48631.50599999999,
      "d": 355.262625000003,
      "v": 62
    },
    {
      "midi": 85,
      "hit": false,
      "t": 48631.50599999999,
      "d": 356.90735937499994,
      "v": 105
    },
    {
      "midi": 80,
      "hit": false,
      "t": 48631.50599999999,
      "d": 371.7099687500013,
      "v": 102
    },
    {
      "midi": 73,
      "hit": false,
      "t": 48631.50599999999,
      "d": 373.3547031249982,
      "v": 105
    },
    {
      "midi": 70,
      "hit": false,
      "t": 48631.50599999999,
      "d": 376.6441718749993,
      "v": 85
    },
    {
      "midi": 65,
      "hit": false,
      "t": 48631.50599999999,
      "d": 414.4730625000011,
      "v": 85
    },
    {
      "midi": 85,
      "hit": false,
      "t": 49263.08399999999,
      "d": 309.2100625000021,
      "v": 93
    },
    {
      "midi": 80,
      "hit": false,
      "t": 49263.08399999999,
      "d": 350.328421875005,
      "v": 93
    },
    {
      "midi": 73,
      "hit": false,
      "t": 49263.08399999999,
      "d": 351.9731562500019,
      "v": 100
    },
    {
      "midi": 65,
      "hit": false,
      "t": 49263.08399999999,
      "d": 376.6441718749993,
      "v": 87
    },
    {
      "midi": 70,
      "hit": false,
      "t": 49263.08399999999,
      "d": 379.9336406250004,
      "v": 82
    },
    {
      "midi": 68,
      "hit": false,
      "t": 49263.08399999999,
      "d": 391.44678125000064,
      "v": 82
    },
    {
      "midi": 65,
      "hit": false,
      "t": 49789.39899999999,
      "d": 49.34203125000204,
      "v": 70
    },
    {
      "midi": 85,
      "hit": false,
      "t": 49789.39899999999,
      "d": 57.565703125001164,
      "v": 100
    },
    {
      "midi": 73,
      "hit": false,
      "t": 49789.39899999999,
      "d": 69.0788437500014,
      "v": 102
    },
    {
      "midi": 80,
      "hit": false,
      "t": 49789.39899999999,
      "d": 80.59198437500163,
      "v": 105
    },
    {
      "midi": 70,
      "hit": false,
      "t": 49789.39899999999,
      "d": 83.88145312500274,
      "v": 107
    },
    {
      "midi": 68,
      "hit": false,
      "t": 49789.39899999999,
      "d": 97.03932812499988,
      "v": 89
    },
    {
      "midi": 67,
      "hit": false,
      "t": 50210.450999999994,
      "d": 113.48667187499814,
      "v": 91
    },
    {
      "midi": 69,
      "hit": false,
      "t": 50210.450999999994,
      "d": 205.591796875,
      "v": 89
    },
    {
      "midi": 64,
      "hit": false,
      "t": 50210.450999999994,
      "d": 217.10493750000023,
      "v": 82
    },
    {
      "midi": 72,
      "hit": false,
      "t": 50210.450999999994,
      "d": 271.3811718750003,
      "v": 107
    },
    {
      "midi": 79,
      "hit": false,
      "t": 50210.450999999994,
      "d": 297.69692187500186,
      "v": 102
    },
    {
      "midi": 70,
      "hit": false,
      "t": 50526.24,
      "d": 111.84193750000122,
      "v": 80
    },
    {
      "midi": 68,
      "hit": false,
      "t": 50526.24,
      "d": 121.71034375000454,
      "v": 78
    },
    {
      "midi": 65,
      "hit": false,
      "t": 50526.24,
      "d": 134.8682187500017,
      "v": 89
    },
    {
      "midi": 68,
      "hit": false,
      "t": 50736.766,
      "d": 37.828890625001804,
      "v": 61
    },
    {
      "midi": 85,
      "hit": false,
      "t": 50736.766,
      "d": 50.98676562499895,
      "v": 91
    },
    {
      "midi": 65,
      "hit": false,
      "t": 50736.766,
      "d": 52.63149999999587,
      "v": 82
    },
    {
      "midi": 70,
      "hit": false,
      "t": 50736.766,
      "d": 57.56570312499389,
      "v": 91
    },
    {
      "midi": 73,
      "hit": false,
      "t": 50736.766,
      "d": 59.2104374999908,
      "v": 89
    },
    {
      "midi": 80,
      "hit": false,
      "t": 50736.766,
      "d": 64.14464062498882,
      "v": 91
    },
    {
      "midi": 68,
      "hit": false,
      "t": 51157.81799999999,
      "d": 355.262625000003,
      "v": 62
    },
    {
      "midi": 85,
      "hit": false,
      "t": 51157.81799999999,
      "d": 356.90735937499994,
      "v": 105
    },
    {
      "midi": 80,
      "hit": false,
      "t": 51157.81799999999,
      "d": 371.7099687500013,
      "v": 102
    },
    {
      "midi": 73,
      "hit": false,
      "t": 51157.81799999999,
      "d": 373.3547031249982,
      "v": 105
    },
    {
      "midi": 70,
      "hit": false,
      "t": 51157.81799999999,
      "d": 376.6441718749993,
      "v": 85
    },
    {
      "midi": 65,
      "hit": false,
      "t": 51157.81799999999,
      "d": 414.4730625000011,
      "v": 85
    },
    {
      "midi": 85,
      "hit": false,
      "t": 51789.39599999999,
      "d": 309.2100625000021,
      "v": 93
    },
    {
      "midi": 80,
      "hit": false,
      "t": 51789.39599999999,
      "d": 350.328421875005,
      "v": 93
    },
    {
      "midi": 73,
      "hit": false,
      "t": 51789.39599999999,
      "d": 351.9731562500019,
      "v": 100
    },
    {
      "midi": 65,
      "hit": false,
      "t": 51789.39599999999,
      "d": 376.6441718749993,
      "v": 87
    },
    {
      "midi": 70,
      "hit": false,
      "t": 51789.39599999999,
      "d": 379.9336406250004,
      "v": 82
    },
    {
      "midi": 68,
      "hit": false,
      "t": 51789.39599999999,
      "d": 391.44678125000064,
      "v": 82
    },
    {
      "midi": 65,
      "hit": false,
      "t": 52315.710999999996,
      "d": 49.34203125000204,
      "v": 70
    },
    {
      "midi": 85,
      "hit": false,
      "t": 52315.710999999996,
      "d": 57.565703125001164,
      "v": 100
    },
    {
      "midi": 73,
      "hit": false,
      "t": 52315.710999999996,
      "d": 69.0788437500014,
      "v": 102
    },
    {
      "midi": 80,
      "hit": false,
      "t": 52315.710999999996,
      "d": 80.59198437500163,
      "v": 105
    },
    {
      "midi": 70,
      "hit": false,
      "t": 52315.710999999996,
      "d": 83.88145312500274,
      "v": 107
    },
    {
      "midi": 68,
      "hit": false,
      "t": 52315.710999999996,
      "d": 97.03932812499988,
      "v": 89
    },
    {
      "midi": 67,
      "hit": false,
      "t": 52736.763,
      "d": 113.48667187499814,
      "v": 91
    },
    {
      "midi": 69,
      "hit": false,
      "t": 52736.763,
      "d": 205.591796875,
      "v": 89
    },
    {
      "midi": 64,
      "hit": false,
      "t": 52736.763,
      "d": 217.10493750000023,
      "v": 82
    },
    {
      "midi": 72,
      "hit": false,
      "t": 52736.763,
      "d": 271.3811718750003,
      "v": 107
    },
    {
      "midi": 79,
      "hit": false,
      "t": 52736.763,
      "d": 297.69692187500186,
      "v": 102
    },
    {
      "midi": 70,
      "hit": false,
      "t": 53052.552,
      "d": 111.84193750000122,
      "v": 80
    },
    {
      "midi": 68,
      "hit": false,
      "t": 53052.552,
      "d": 121.71034375000454,
      "v": 78
    },
    {
      "midi": 65,
      "hit": false,
      "t": 53052.552,
      "d": 134.8682187500017,
      "v": 89
    },
    {
      "midi": 68,
      "hit": false,
      "t": 53263.07800000001,
      "d": 37.828890625001804,
      "v": 61
    },
    {
      "midi": 85,
      "hit": false,
      "t": 53263.07800000001,
      "d": 50.98676562499895,
      "v": 91
    },
    {
      "midi": 65,
      "hit": false,
      "t": 53263.07800000001,
      "d": 52.63149999999587,
      "v": 82
    },
    {
      "midi": 70,
      "hit": false,
      "t": 53263.07800000001,
      "d": 57.56570312499389,
      "v": 91
    },
    {
      "midi": 73,
      "hit": false,
      "t": 53263.07800000001,
      "d": 59.2104374999908,
      "v": 89
    },
    {
      "midi": 80,
      "hit": false,
      "t": 53263.07800000001,
      "d": 64.14464062498882,
      "v": 91
    },
    {
      "midi": 68,
      "hit": false,
      "t": 53684.13,
      "d": 355.262625000003,
      "v": 62
    },
    {
      "midi": 85,
      "hit": false,
      "t": 53684.13,
      "d": 356.90735937499994,
      "v": 105
    },
    {
      "midi": 80,
      "hit": false,
      "t": 53684.13,
      "d": 371.7099687500013,
      "v": 102
    },
    {
      "midi": 73,
      "hit": false,
      "t": 53684.13,
      "d": 373.3547031249982,
      "v": 105
    },
    {
      "midi": 70,
      "hit": false,
      "t": 53684.13,
      "d": 376.6441718749993,
      "v": 85
    },
    {
      "midi": 65,
      "hit": false,
      "t": 53684.13,
      "d": 414.4730625000011,
      "v": 85
    },
    {
      "midi": 85,
      "hit": false,
      "t": 54315.708,
      "d": 320.7232031250023,
      "v": 93
    },
    {
      "midi": 80,
      "hit": false,
      "t": 54315.708,
      "d": 342.1047500000059,
      "v": 98
    },
    {
      "midi": 73,
      "hit": false,
      "t": 54315.708,
      "d": 347.0389531250039,
      "v": 100
    },
    {
      "midi": 65,
      "hit": false,
      "t": 54315.708,
      "d": 351.9731562500019,
      "v": 78
    },
    {
      "midi": 70,
      "hit": false,
      "t": 54315.708,
      "d": 355.262625000003,
      "v": 80
    },
    {
      "midi": 68,
      "hit": false,
      "t": 54315.708,
      "d": 361.84156250000524,
      "v": 80
    },
    {
      "midi": 80,
      "hit": false,
      "t": 54842.023,
      "d": 93.74985937499878,
      "v": 107
    },
    {
      "midi": 85,
      "hit": false,
      "t": 54842.023,
      "d": 105.26299999999901,
      "v": 89
    },
    {
      "midi": 65,
      "hit": false,
      "t": 54842.023,
      "d": 108.55246875000012,
      "v": 70
    },
    {
      "midi": 73,
      "hit": false,
      "t": 54842.023,
      "d": 110.19720312499703,
      "v": 100
    },
    {
      "midi": 68,
      "hit": false,
      "t": 54842.023,
      "d": 124.99981249999837,
      "v": 70
    },
    {
      "midi": 70,
      "hit": false,
      "t": 54842.023,
      "d": 141.44715624999662,
      "v": 66
    },
    {
      "midi": 65,
      "hit": false,
      "t": 55263.075,
      "d": 199.0128593749978,
      "v": 110
    },
    {
      "midi": 62,
      "hit": false,
      "t": 55263.075,
      "d": 230.26281249999738,
      "v": 105
    },
    {
      "midi": 66,
      "hit": false,
      "t": 55578.863999999994,
      "d": 113.48667187499814,
      "v": 72
    },
    {
      "midi": 63,
      "hit": false,
      "t": 55578.863999999994,
      "d": 319.07846874999086,
      "v": 78
    },
    {
      "midi": 69,
      "hit": false,
      "t": 55789.38999999999,
      "d": 34.5394218750007,
      "v": 66
    },
    {
      "midi": 84,
      "hit": false,
      "t": 55789.38999999999,
      "d": 50.98676562499895,
      "v": 100
    },
    {
      "midi": 72,
      "hit": false,
      "t": 55789.38999999999,
      "d": 52.63149999999587,
      "v": 87
    },
    {
      "midi": 80,
      "hit": false,
      "t": 55789.38999999999,
      "d": 60.855171874994994,
      "v": 113
    },
    {
      "midi": 78,
      "hit": false,
      "t": 55789.38999999999,
      "d": 69.07884374999412,
      "v": 113
    },
    {
      "midi": 66,
      "hit": false,
      "t": 55789.38999999999,
      "d": 80.59198437499435,
      "v": 80
    },
    {
      "midi": 84,
      "hit": false,
      "t": 56210.44199999999,
      "d": 351.9731562500019,
      "v": 100
    },
    {
      "midi": 78,
      "hit": false,
      "t": 56210.44199999999,
      "d": 366.77576562500326,
      "v": 107
    },
    {
      "midi": 80,
      "hit": false,
      "t": 56210.44199999999,
      "d": 376.6441718750066,
      "v": 105
    },
    {
      "midi": 66,
      "hit": false,
      "t": 56210.44199999999,
      "d": 383.2231093750088,
      "v": 64
    },
    {
      "midi": 72,
      "hit": false,
      "t": 56210.44199999999,
      "d": 386.5125781250099,
      "v": 100
    },
    {
      "midi": 68,
      "hit": false,
      "t": 56210.44199999999,
      "d": 388.1573125000068,
      "v": 63
    },
    {
      "midi": 63,
      "hit": false,
      "t": 56210.44199999999,
      "d": 404.60465625000506,
      "v": 61
    },
    {
      "midi": 66,
      "hit": false,
      "t": 56842.02,
      "d": 379.9336406250004,
      "v": 76
    },
    {
      "midi": 63,
      "hit": false,
      "t": 56842.02,
      "d": 381.5783749999973,
      "v": 80
    },
    {
      "midi": 68,
      "hit": false,
      "t": 56842.02,
      "d": 391.44678125000064,
      "v": 74
    },
    {
      "midi": 80,
      "hit": false,
      "t": 56842.02,
      "d": 409.5388593750031,
      "v": 91
    },
    {
      "midi": 78,
      "hit": false,
      "t": 56842.02,
      "d": 411.18359375,
      "v": 91
    },
    {
      "midi": 84,
      "hit": false,
      "t": 56842.02,
      "d": 411.18359375,
      "v": 89
    },
    {
      "midi": 72,
      "hit": false,
      "t": 56842.02,
      "d": 439.1440781249985,
      "v": 82
    },
    {
      "midi": 78,
      "hit": false,
      "t": 57368.33499999999,
      "d": 62.499906249999185,
      "v": 105
    },
    {
      "midi": 66,
      "hit": false,
      "t": 57368.33499999999,
      "d": 69.0788437500014,
      "v": 91
    },
    {
      "midi": 68,
      "hit": false,
      "t": 57368.33499999999,
      "d": 77.30251562500052,
      "v": 89
    },
    {
      "midi": 80,
      "hit": false,
      "t": 57368.33499999999,
      "d": 80.59198437500163,
      "v": 105
    },
    {
      "midi": 84,
      "hit": false,
      "t": 57368.33499999999,
      "d": 82.23671874999854,
      "v": 98
    },
    {
      "midi": 72,
      "hit": false,
      "t": 57368.33499999999,
      "d": 83.88145312499546,
      "v": 85
    },
    {
      "midi": 63,
      "hit": false,
      "t": 57368.33499999999,
      "d": 95.39459374999569,
      "v": 93
    },
    {
      "midi": 66,
      "hit": false,
      "t": 57789.38699999999,
      "d": 120.06560937500035,
      "v": 87
    },
    {
      "midi": 68,
      "hit": false,
      "t": 57789.38699999999,
      "d": 162.82870312500017,
      "v": 100
    },
    {
      "midi": 63,
      "hit": false,
      "t": 57789.38699999999,
      "d": 195.72339062499668,
      "v": 98
    },
    {
      "midi": 72,
      "hit": false,
      "t": 57789.38699999999,
      "d": 225.32860937499936,
      "v": 91
    },
    {
      "midi": 80,
      "hit": false,
      "t": 57789.38699999999,
      "d": 225.32860937499936,
      "v": 76
    },
    {
      "midi": 78,
      "hit": false,
      "t": 57789.38699999999,
      "d": 231.90754687500157,
      "v": 82
    },
    {
      "midi": 70,
      "hit": false,
      "t": 58105.17599999999,
      "d": 134.8682187500017,
      "v": 72
    },
    {
      "midi": 68,
      "hit": false,
      "t": 58105.17599999999,
      "d": 139.8024218749997,
      "v": 74
    },
    {
      "midi": 65,
      "hit": false,
      "t": 58105.17599999999,
      "d": 151.31556249999994,
      "v": 85
    },
    {
      "midi": 73,
      "hit": false,
      "t": 58315.70199999999,
      "d": 82.23671874999854,
      "v": 100
    },
    {
      "midi": 77,
      "hit": false,
      "t": 58315.70199999999,
      "d": 85.52618749999965,
      "v": 107
    },
    {
      "midi": 80,
      "hit": false,
      "t": 58315.70199999999,
      "d": 98.6840624999968,
      "v": 85
    },
    {
      "midi": 85,
      "hit": false,
      "t": 58315.70199999999,
      "d": 103.61826562499482,
      "v": 87
    },
    {
      "midi": 68,
      "hit": false,
      "t": 58631.49099999999,
      "d": 88.81565625000076,
      "v": 72
    },
    {
      "midi": 65,
      "hit": false,
      "t": 58631.49099999999,
      "d": 100.32879687500099,
      "v": 82
    },
    {
      "midi": 77,
      "hit": false,
      "t": 58736.753999999986,
      "d": 458.88089062499785,
      "v": 98
    },
    {
      "midi": 85,
      "hit": false,
      "t": 58736.753999999986,
      "d": 462.17035937499895,
      "v": 87
    },
    {
      "midi": 80,
      "hit": false,
      "t": 58736.753999999986,
      "d": 532.8939374999973,
      "v": 82
    },
    {
      "midi": 73,
      "hit": false,
      "t": 58736.753999999986,
      "d": 539.4728749999995,
      "v": 93
    },
    {
      "midi": 70,
      "hit": false,
      "t": 59368.33199999999,
      "d": 134.8682187500017,
      "v": 72
    },
    {
      "midi": 68,
      "hit": false,
      "t": 59368.33199999999,
      "d": 139.8024218749997,
      "v": 74
    },
    {
      "midi": 65,
      "hit": false,
      "t": 59368.33199999999,
      "d": 151.31556249999994,
      "v": 85
    },
    {
      "midi": 73,
      "hit": false,
      "t": 59578.857999999986,
      "d": 82.23671874999854,
      "v": 100
    },
    {
      "midi": 77,
      "hit": false,
      "t": 59578.857999999986,
      "d": 85.52618749999965,
      "v": 107
    },
    {
      "midi": 80,
      "hit": false,
      "t": 59578.857999999986,
      "d": 98.6840624999968,
      "v": 85
    },
    {
      "midi": 85,
      "hit": false,
      "t": 59578.857999999986,
      "d": 103.61826562499482,
      "v": 87
    },
    {
      "midi": 68,
      "hit": false,
      "t": 59894.64699999998,
      "d": 88.81565625000076,
      "v": 72
    },
    {
      "midi": 65,
      "hit": false,
      "t": 59894.64699999998,
      "d": 100.32879687500099,
      "v": 82
    },
    {
      "midi": 77,
      "hit": false,
      "t": 59999.90999999998,
      "d": 458.88089062499785,
      "v": 98
    },
    {
      "midi": 85,
      "hit": false,
      "t": 59999.90999999998,
      "d": 462.17035937499895,
      "v": 87
    },
    {
      "midi": 80,
      "hit": false,
      "t": 59999.90999999998,
      "d": 532.8939374999973,
      "v": 82
    },
    {
      "midi": 73,
      "hit": false,
      "t": 59999.90999999998,
      "d": 539.4728749999995,
      "v": 93
    },
    {
      "midi": 66,
      "hit": false,
      "t": 60631.48799999998,
      "d": 141.44715624999662,
      "v": 76
    },
    {
      "midi": 70,
      "hit": false,
      "t": 60631.48799999998,
      "d": 151.31556249999994,
      "v": 62
    },
    {
      "midi": 73,
      "hit": false,
      "t": 60842.01399999998,
      "d": 77.30251562500052,
      "v": 100
    },
    {
      "midi": 78,
      "hit": false,
      "t": 60842.01399999998,
      "d": 80.59198437500163,
      "v": 100
    },
    {
      "midi": 82,
      "hit": false,
      "t": 60842.01399999998,
      "d": 97.03932812499988,
      "v": 78
    },
    {
      "midi": 85,
      "hit": false,
      "t": 60842.01399999998,
      "d": 98.6840624999968,
      "v": 93
    },
    {
      "midi": 66,
      "hit": false,
      "t": 61157.80299999998,
      "d": 52.63150000000314,
      "v": 60
    },
    {
      "midi": 70,
      "hit": false,
      "t": 61157.80299999998,
      "d": 65.78937500000029,
      "v": 58
    },
    {
      "midi": 61,
      "hit": false,
      "t": 61157.80299999998,
      "d": 69.0788437500014,
      "v": 64
    },
    {
      "midi": 85,
      "hit": false,
      "t": 61263.06599999998,
      "d": 452.3019531250029,
      "v": 98
    },
    {
      "midi": 82,
      "hit": false,
      "t": 61263.06599999998,
      "d": 473.68350000000646,
      "v": 98
    },
    {
      "midi": 78,
      "hit": false,
      "t": 61263.06599999998,
      "d": 490.1308437500047,
      "v": 98
    },
    {
      "midi": 73,
      "hit": false,
      "t": 61263.06599999998,
      "d": 506.57818750000297,
      "v": 98
    },
    {
      "midi": 66,
      "hit": false,
      "t": 61894.64399999998,
      "d": 90.46039062499767,
      "v": 63
    },
    {
      "midi": 61,
      "hit": false,
      "t": 61894.64399999998,
      "d": 93.74985937499878,
      "v": 78
    },
    {
      "midi": 69,
      "hit": false,
      "t": 61894.64399999998,
      "d": 98.6840624999968,
      "v": 82
    },
    {
      "midi": 63,
      "hit": false,
      "t": 61894.64399999998,
      "d": 113.48667187499814,
      "v": 68
    },
    {
      "midi": 73,
      "hit": false,
      "t": 62105.16999999998,
      "d": 75.65778125000361,
      "v": 91
    },
    {
      "midi": 78,
      "hit": false,
      "t": 62105.16999999998,
      "d": 85.52618750000693,
      "v": 95
    },
    {
      "midi": 81,
      "hit": false,
      "t": 62105.16999999998,
      "d": 103.61826562500937,
      "v": 98
    },
    {
      "midi": 85,
      "hit": false,
      "t": 62105.16999999998,
      "d": 111.8419375000085,
      "v": 89
    },
    {
      "midi": 61,
      "hit": false,
      "t": 62420.95899999999,
      "d": 50.98676562499895,
      "v": 76
    },
    {
      "midi": 69,
      "hit": false,
      "t": 62420.95899999999,
      "d": 54.27623437500006,
      "v": 91
    },
    {
      "midi": 66,
      "hit": false,
      "t": 62420.95899999999,
      "d": 57.565703125001164,
      "v": 89
    },
    {
      "midi": 81,
      "hit": false,
      "t": 62526.22199999999,
      "d": 450.6572187499987,
      "v": 98
    },
    {
      "midi": 85,
      "hit": false,
      "t": 62526.22199999999,
      "d": 465.45982812500006,
      "v": 91
    },
    {
      "midi": 78,
      "hit": false,
      "t": 62526.22199999999,
      "d": 468.74929687500116,
      "v": 91
    },
    {
      "midi": 73,
      "hit": false,
      "t": 62526.22199999999,
      "d": 529.6044687500034,
      "v": 100
    },
    {
      "midi": 61,
      "hit": false,
      "t": 63157.79999999999,
      "d": 98.68406250000407,
      "v": 72
    },
    {
      "midi": 65,
      "hit": false,
      "t": 63157.79999999999,
      "d": 115.13140625000233,
      "v": 80
    },
    {
      "midi": 85,
      "hit": false,
      "t": 63157.79999999999,
      "d": 128.28928124999948,
      "v": 82
    },
    {
      "midi": 77,
      "hit": false,
      "t": 63157.79999999999,
      "d": 129.9340156249964,
      "v": 98
    },
    {
      "midi": 56,
      "hit": false,
      "t": 63157.79999999999,
      "d": 131.5787499999933,
      "v": 76
    },
    {
      "midi": 82,
      "hit": false,
      "t": 63157.79999999999,
      "d": 134.8682187499944,
      "v": 74
    },
    {
      "midi": 80,
      "hit": false,
      "t": 63157.79999999999,
      "d": 151.31556249999267,
      "v": 72
    },
    {
      "midi": 73,
      "hit": false,
      "t": 63157.79999999999,
      "d": 162.8287031249929,
      "v": 82
    },
    {
      "midi": 80,
      "hit": false,
      "t": 63789.37799999998,
      "d": 134.8682187500017,
      "v": 80
    },
    {
      "midi": 77,
      "hit": false,
      "t": 63789.37799999998,
      "d": 157.89450000000215,
      "v": 87
    },
    {
      "midi": 58,
      "hit": false,
      "t": 63789.37799999998,
      "d": 171.0523749999993,
      "v": 66
    },
    {
      "midi": 65,
      "hit": false,
      "t": 63789.37799999998,
      "d": 180.92078125000262,
      "v": 76
    },
    {
      "midi": 61,
      "hit": false,
      "t": 63789.37799999998,
      "d": 187.49971875000483,
      "v": 76
    },
    {
      "midi": 73,
      "hit": false,
      "t": 63789.37799999998,
      "d": 192.43392187500285,
      "v": 91
    },
    {
      "midi": 68,
      "hit": false,
      "t": 63789.37799999998,
      "d": 210.5260000000053,
      "v": 87
    },
    {
      "midi": 77,
      "hit": false,
      "t": 64420.955999999984,
      "d": 197.36812500000087,
      "v": 89
    },
    {
      "midi": 55,
      "hit": false,
      "t": 64420.955999999984,
      "d": 213.81546874999913,
      "v": 85
    },
    {
      "midi": 73,
      "hit": false,
      "t": 64420.955999999984,
      "d": 233.5522812499985,
      "v": 85
    },
    {
      "midi": 61,
      "hit": false,
      "t": 64420.955999999984,
      "d": 241.7759531249976,
      "v": 66
    },
    {
      "midi": 67,
      "hit": false,
      "t": 64420.955999999984,
      "d": 276.3153749999983,
      "v": 87
    },
    {
      "midi": 60,
      "hit": false,
      "t": 65052.533999999985,
      "d": 513.1571249999979,
      "v": 80
    },
    {
      "midi": 54,
      "hit": false,
      "t": 65052.533999999985,
      "d": 518.0913281249959,
      "v": 70
    },
    {
      "midi": 66,
      "hit": false,
      "t": 65052.533999999985,
      "d": 523.025531249994,
      "v": 78
    },
    {
      "midi": 72,
      "hit": false,
      "t": 65052.533999999985,
      "d": 524.6702656249981,
      "v": 91
    },
    {
      "midi": 75,
      "hit": false,
      "t": 65052.533999999985,
      "d": 524.6702656249981,
      "v": 85
    },
    {
      "midi": 58,
      "hit": false,
      "t": 65684.11199999998,
      "d": 172.6971093750035,
      "v": 60
    },
    {
      "midi": 56,
      "hit": false,
      "t": 65684.11199999998,
      "d": 179.2760468750057,
      "v": 60
    },
    {
      "midi": 61,
      "hit": false,
      "t": 65684.11199999998,
      "d": 182.56551562499953,
      "v": 59
    },
    {
      "midi": 68,
      "hit": false,
      "t": 65684.11199999998,
      "d": 185.85498437499336,
      "v": 91
    },
    {
      "midi": 65,
      "hit": false,
      "t": 65684.11199999998,
      "d": 187.49971874999756,
      "v": 82
    },
    {
      "midi": 73,
      "hit": false,
      "t": 65684.11199999998,
      "d": 190.78918749999139,
      "v": 80
    },
    {
      "midi": 58,
      "hit": false,
      "t": 65999.90099999997,
      "d": 108.55246875000012,
      "v": 57
    },
    {
      "midi": 53,
      "hit": false,
      "t": 65999.90099999997,
      "d": 113.48667187499814,
      "v": 66
    },
    {
      "midi": 56,
      "hit": false,
      "t": 65999.90099999997,
      "d": 115.13140625000233,
      "v": 58
    },
    {
      "midi": 77,
      "hit": false,
      "t": 65999.90099999997,
      "d": 123.35507812500873,
      "v": 85
    },
    {
      "midi": 61,
      "hit": false,
      "t": 65999.90099999997,
      "d": 124.99981250001292,
      "v": 60
    },
    {
      "midi": 65,
      "hit": false,
      "t": 65999.90099999997,
      "d": 124.99981250001292,
      "v": 82
    },
    {
      "midi": 68,
      "hit": false,
      "t": 65999.90099999997,
      "d": 129.93401562501094,
      "v": 89
    },
    {
      "midi": 73,
      "hit": false,
      "t": 65999.90099999997,
      "d": 138.15768750001735,
      "v": 68
    },
    {
      "midi": 54,
      "hit": false,
      "t": 66315.68999999999,
      "d": 62.49990625001374,
      "v": 60
    },
    {
      "midi": 58,
      "hit": false,
      "t": 66315.68999999999,
      "d": 97.03932812501444,
      "v": 58
    },
    {
      "midi": 66,
      "hit": false,
      "t": 66315.68999999999,
      "d": 103.61826562501665,
      "v": 78
    },
    {
      "midi": 61,
      "hit": false,
      "t": 66315.68999999999,
      "d": 105.26300000002084,
      "v": 59
    },
    {
      "midi": 78,
      "hit": false,
      "t": 66315.68999999999,
      "d": 106.90773437502503,
      "v": 68
    },
    {
      "midi": 73,
      "hit": false,
      "t": 66315.68999999999,
      "d": 115.13140625003143,
      "v": 63
    },
    {
      "midi": 70,
      "hit": false,
      "t": 66315.68999999999,
      "d": 118.42087500002526,
      "v": 80
    },
    {
      "midi": 55,
      "hit": false,
      "t": 66631.479,
      "d": 106.90773437499593,
      "v": 60
    },
    {
      "midi": 58,
      "hit": false,
      "t": 66631.479,
      "d": 110.19720312498976,
      "v": 56
    },
    {
      "midi": 61,
      "hit": false,
      "t": 66631.479,
      "d": 113.48667187498359,
      "v": 59
    },
    {
      "midi": 67,
      "hit": false,
      "t": 66631.479,
      "d": 120.0656093749858,
      "v": 82
    },
    {
      "midi": 70,
      "hit": false,
      "t": 66631.479,
      "d": 121.71034374998999,
      "v": 68
    },
    {
      "midi": 73,
      "hit": false,
      "t": 66631.479,
      "d": 121.71034374998999,
      "v": 63
    },
    {
      "midi": 76,
      "hit": false,
      "t": 66631.479,
      "d": 123.35507812499418,
      "v": 66
    },
    {
      "midi": 79,
      "hit": false,
      "t": 66631.479,
      "d": 124.99981249999837,
      "v": 70
    },
    {
      "midi": 56,
      "hit": false,
      "t": 66947.26800000001,
      "d": 105.26300000000629,
      "v": 68
    },
    {
      "midi": 77,
      "hit": false,
      "t": 66947.26800000001,
      "d": 120.06560937500035,
      "v": 82
    },
    {
      "midi": 73,
      "hit": false,
      "t": 66947.26800000001,
      "d": 129.9340156249964,
      "v": 72
    },
    {
      "midi": 68,
      "hit": false,
      "t": 66947.26800000001,
      "d": 133.22348437499022,
      "v": 76
    },
    {
      "midi": 61,
      "hit": false,
      "t": 66947.26800000001,
      "d": 134.8682187499944,
      "v": 66
    },
    {
      "midi": 65,
      "hit": false,
      "t": 66947.26800000001,
      "d": 141.44715624999662,
      "v": 63
    },
    {
      "midi": 80,
      "hit": false,
      "t": 66947.26800000001,
      "d": 148.02609374999884,
      "v": 72
    },
    {
      "midi": 56,
      "hit": false,
      "t": 67263.05700000002,
      "d": 87.17092187500384,
      "v": 72
    },
    {
      "midi": 61,
      "hit": false,
      "t": 67263.05700000002,
      "d": 95.39459375001024,
      "v": 60
    },
    {
      "midi": 70,
      "hit": false,
      "t": 67263.05700000002,
      "d": 100.32879687500827,
      "v": 72
    },
    {
      "midi": 65,
      "hit": false,
      "t": 67263.05700000002,
      "d": 105.26300000000629,
      "v": 64
    },
    {
      "midi": 68,
      "hit": false,
      "t": 67263.05700000002,
      "d": 115.13140625000233,
      "v": 80
    },
    {
      "midi": 77,
      "hit": false,
      "t": 67263.05700000002,
      "d": 116.77614062500652,
      "v": 64
    },
    {
      "midi": 73,
      "hit": false,
      "t": 67263.05700000002,
      "d": 124.99981250001292,
      "v": 70
    },
    {
      "midi": 58,
      "hit": false,
      "t": 67578.84600000003,
      "d": 98.68406249998952,
      "v": 66
    },
    {
      "midi": 61,
      "hit": false,
      "t": 67578.84600000003,
      "d": 98.68406249998952,
      "v": 57
    },
    {
      "midi": 65,
      "hit": false,
      "t": 67578.84600000003,
      "d": 98.68406249998952,
      "v": 56
    },
    {
      "midi": 70,
      "hit": false,
      "t": 67578.84600000003,
      "d": 108.55246874998556,
      "v": 76
    },
    {
      "midi": 77,
      "hit": false,
      "t": 67578.84600000003,
      "d": 110.19720312498976,
      "v": 66
    },
    {
      "midi": 80,
      "hit": false,
      "t": 67578.84600000003,
      "d": 111.84193749999395,
      "v": 70
    },
    {
      "midi": 73,
      "hit": false,
      "t": 67578.84600000003,
      "d": 116.77614062499197,
      "v": 76
    },
    {
      "midi": 68,
      "hit": false,
      "t": 67578.84600000003,
      "d": 123.35507812499418,
      "v": 58
    },
    {
      "midi": 60,
      "hit": false,
      "t": 67894.63500000002,
      "d": 105.26300000000629,
      "v": 80
    },
    {
      "midi": 66,
      "hit": false,
      "t": 67894.63500000002,
      "d": 108.55246875000012,
      "v": 66
    },
    {
      "midi": 78,
      "hit": false,
      "t": 67894.63500000002,
      "d": 115.13140625000233,
      "v": 85
    },
    {
      "midi": 68,
      "hit": false,
      "t": 67894.63500000002,
      "d": 116.77614062500652,
      "v": 60
    },
    {
      "midi": 75,
      "hit": false,
      "t": 67894.63500000002,
      "d": 121.71034375000454,
      "v": 87
    },
    {
      "midi": 80,
      "hit": false,
      "t": 67894.63500000002,
      "d": 124.99981249999837,
      "v": 82
    },
    {
      "midi": 84,
      "hit": false,
      "t": 67894.63500000002,
      "d": 126.64454687500256,
      "v": 91
    },
    {
      "midi": 72,
      "hit": false,
      "t": 67894.63500000002,
      "d": 128.28928125000675,
      "v": 82
    },
    {
      "midi": 61,
      "hit": false,
      "t": 68210.42400000003,
      "d": 1896.378734375001,
      "v": 74
    },
    {
      "midi": 65,
      "hit": false,
      "t": 68210.42400000003,
      "d": 1898.0234687500051,
      "v": 78
    },
    {
      "midi": 68,
      "hit": false,
      "t": 68210.42400000003,
      "d": 1899.6682031250093,
      "v": 89
    },
    {
      "midi": 73,
      "hit": false,
      "t": 68210.42400000003,
      "d": 1901.3129375000135,
      "v": 82
    },
    {
      "midi": 80,
      "hit": false,
      "t": 68210.42400000003,
      "d": 1902.9576718750177,
      "v": 85
    },
    {
      "midi": 77,
      "hit": false,
      "t": 68210.42400000003,
      "d": 1904.6024062500219,
      "v": 76
    },
    {
      "midi": 56,
      "hit": false,
      "t": 68210.42400000003,
      "d": 1917.7602812500263,
      "v": 85
    },
    {
      "midi": 73,
      "hit": false,
      "t": 70736.73600000005,
      "d": 1876.6419218749943,
      "v": 85
    },
    {
      "midi": 77,
      "hit": false,
      "t": 70736.73600000005,
      "d": 1878.2866562499985,
      "v": 72
    },
    {
      "midi": 80,
      "hit": false,
      "t": 70736.73600000005,
      "d": 1888.1550624999945,
      "v": 87
    },
    {
      "midi": 68,
      "hit": false,
      "t": 70736.73600000005,
      "d": 1889.7997968749987,
      "v": 87
    },
    {
      "midi": 61,
      "hit": false,
      "t": 70736.73600000005,
      "d": 1893.0892656249925,
      "v": 68
    },
    {
      "midi": 65,
      "hit": false,
      "t": 70736.73600000005,
      "d": 1896.3787343749864,
      "v": 78
    },
    {
      "midi": 56,
      "hit": false,
      "t": 70736.73600000005,
      "d": 1902.9576718749886,
      "v": 85
    },
    {
      "midi": 80,
      "hit": false,
      "t": 73263.04800000004,
      "d": 468.74929687500116,
      "v": 82
    },
    {
      "midi": 77,
      "hit": false,
      "t": 73263.04800000004,
      "d": 513.1571249999979,
      "v": 64
    },
    {
      "midi": 73,
      "hit": false,
      "t": 73263.04800000004,
      "d": 514.8018593750021,
      "v": 78
    },
    {
      "midi": 68,
      "hit": false,
      "t": 73263.04800000004,
      "d": 518.0913281249959,
      "v": 87
    },
    {
      "midi": 65,
      "hit": false,
      "t": 73263.04800000004,
      "d": 532.89393749999,
      "v": 68
    },
    {
      "midi": 61,
      "hit": false,
      "t": 73263.04800000004,
      "d": 537.828140624988,
      "v": 58
    },
    {
      "midi": 56,
      "hit": false,
      "t": 73263.04800000004,
      "d": 550.9860156249924,
      "v": 72
    },
    {
      "midi": 65,
      "hit": false,
      "t": 73894.62600000003,
      "d": 245.06542187499872,
      "v": 60
    },
    {
      "midi": 61,
      "hit": false,
      "t": 73894.62600000003,
      "d": 249.99962499999674,
      "v": 58
    },
    {
      "midi": 56,
      "hit": false,
      "t": 73894.62600000003,
      "d": 258.22329687500314,
      "v": 70
    },
    {
      "midi": 77,
      "hit": false,
      "t": 73894.62600000003,
      "d": 286.18378125000163,
      "v": 80
    },
    {
      "midi": 73,
      "hit": false,
      "t": 73894.62600000003,
      "d": 310.8547968750063,
      "v": 87
    },
    {
      "midi": 68,
      "hit": false,
      "t": 73894.62600000003,
      "d": 340.46001562500896,
      "v": 78
    },
    {
      "midi": 65,
      "hit": false,
      "t": 74526.20400000004,
      "d": 460.52562499999476,
      "v": 78
    },
    {
      "midi": 53,
      "hit": false,
      "t": 74526.20400000004,
      "d": 470.3940312499908,
      "v": 82
    },
    {
      "midi": 73,
      "hit": false,
      "t": 74526.20400000004,
      "d": 472.038765624995,
      "v": 70
    },
    {
      "midi": 70,
      "hit": false,
      "t": 74526.20400000004,
      "d": 486.84137499998906,
      "v": 80
    },
    {
      "midi": 61,
      "hit": false,
      "t": 74526.20400000004,
      "d": 496.7097812499851,
      "v": 72
    },
    {
      "midi": 58,
      "hit": false,
      "t": 74526.20400000004,
      "d": 508.22292187498533,
      "v": 72
    },
    {
      "midi": 77,
      "hit": false,
      "t": 75157.78200000002,
      "d": 437.4993437499943,
      "v": 82
    },
    {
      "midi": 61,
      "hit": false,
      "t": 75157.78200000002,
      "d": 514.8018593749875,
      "v": 66
    },
    {
      "midi": 55,
      "hit": false,
      "t": 75157.78200000002,
      "d": 531.2492031249858,
      "v": 62
    },
    {
      "midi": 70,
      "hit": false,
      "t": 75157.78200000002,
      "d": 531.2492031249858,
      "v": 87
    },
    {
      "midi": 73,
      "hit": false,
      "t": 75157.78200000002,
      "d": 572.3675624999887,
      "v": 85
    },
    {
      "midi": 66,
      "hit": false,
      "t": 75789.36000000002,
      "d": 1402.958421874995,
      "v": 64
    },
    {
      "midi": 60,
      "hit": false,
      "t": 75789.36000000002,
      "d": 1406.247890624989,
      "v": 66
    },
    {
      "midi": 72,
      "hit": false,
      "t": 75789.36000000002,
      "d": 1411.182093749987,
      "v": 80
    },
    {
      "midi": 75,
      "hit": false,
      "t": 75789.36000000002,
      "d": 1411.182093749987,
      "v": 87
    },
    {
      "midi": 63,
      "hit": false,
      "t": 75789.36000000002,
      "d": 1458.879390624992,
      "v": 66
    },
    {
      "midi": 60,
      "hit": false,
      "t": 77684.09400000001,
      "d": 398.0257187499956,
      "v": 70
    },
    {
      "midi": 56,
      "hit": false,
      "t": 77684.09400000001,
      "d": 419.40726562499185,
      "v": 66
    },
    {
      "midi": 63,
      "hit": false,
      "t": 77684.09400000001,
      "d": 421.05199999999604,
      "v": 66
    },
    {
      "midi": 80,
      "hit": false,
      "t": 77684.09400000001,
      "d": 442.4335468749923,
      "v": 78
    },
    {
      "midi": 72,
      "hit": false,
      "t": 77684.09400000001,
      "d": 444.0782812499965,
      "v": 87
    },
    {
      "midi": 75,
      "hit": false,
      "t": 77684.09400000001,
      "d": 453.94668749999255,
      "v": 72
    },
    {
      "midi": 66,
      "hit": false,
      "t": 77684.09400000001,
      "d": 462.17035937499895,
      "v": 82
    },
    {
      "midi": 68,
      "hit": false,
      "t": 78315.672,
      "d": 858.5513437500049,
      "v": 66
    },
    {
      "midi": 73,
      "hit": false,
      "t": 78315.672,
      "d": 861.8408124999987,
      "v": 85
    },
    {
      "midi": 77,
      "hit": false,
      "t": 78315.672,
      "d": 871.7092187499948,
      "v": 76
    },
    {
      "midi": 56,
      "hit": false,
      "t": 78315.672,
      "d": 878.288156249997,
      "v": 64
    },
    {
      "midi": 61,
      "hit": false,
      "t": 78315.672,
      "d": 889.8012968749972,
      "v": 57
    },
    {
      "midi": 65,
      "hit": false,
      "t": 78315.672,
      "d": 898.0249687500036,
      "v": 62
    },
    {
      "midi": 59,
      "hit": false,
      "t": 79578.82800000001,
      "d": 957.2354062499944,
      "v": 58
    },
    {
      "midi": 65,
      "hit": false,
      "t": 79578.82800000001,
      "d": 995.0642968749889,
      "v": 68
    },
    {
      "midi": 80,
      "hit": false,
      "t": 79578.82800000001,
      "d": 1019.7353124999936,
      "v": 95
    },
    {
      "midi": 85,
      "hit": false,
      "t": 79578.82800000001,
      "d": 1023.0247812499874,
      "v": 89
    },
    {
      "midi": 73,
      "hit": false,
      "t": 79578.82800000001,
      "d": 1039.4721249999857,
      "v": 85
    },
    {
      "midi": 61,
      "hit": false,
      "t": 80841.984,
      "d": 983.5511562500033,
      "v": 78
    },
    {
      "midi": 58,
      "hit": false,
      "t": 80841.984,
      "d": 1001.6432343750057,
      "v": 87
    },
    {
      "midi": 85,
      "hit": false,
      "t": 80841.984,
      "d": 1019.7353125000081,
      "v": 93
    },
    {
      "midi": 63,
      "hit": false,
      "t": 80841.984,
      "d": 1026.3142500000104,
      "v": 80
    },
    {
      "midi": 73,
      "hit": false,
      "t": 80841.984,
      "d": 1049.3405312500108,
      "v": 87
    },
    {
      "midi": 78,
      "hit": false,
      "t": 80841.984,
      "d": 1052.6300000000047,
      "v": 98
    },
    {
      "midi": 85,
      "hit": false,
      "t": 82105.14,
      "d": 820.7224531249958,
      "v": 91
    },
    {
      "midi": 78,
      "hit": false,
      "t": 82105.14,
      "d": 851.9724062500027,
      "v": 100
    },
    {
      "midi": 57,
      "hit": false,
      "t": 82105.14,
      "d": 871.7092187500093,
      "v": 74
    },
    {
      "midi": 73,
      "hit": false,
      "t": 82105.14,
      "d": 873.3539531250135,
      "v": 82
    },
    {
      "midi": 61,
      "hit": false,
      "t": 82105.14,
      "d": 889.8012968750118,
      "v": 89
    },
    {
      "midi": 63,
      "hit": false,
      "t": 82105.14,
      "d": 929.2749218750105,
      "v": 85
    },
    {
      "midi": 80,
      "hit": false,
      "t": 83368.29600000002,
      "d": 442.43354687500687,
      "v": 82
    },
    {
      "midi": 61,
      "hit": false,
      "t": 83368.29600000002,
      "d": 450.65721875001327,
      "v": 64
    },
    {
      "midi": 73,
      "hit": false,
      "t": 83368.29600000002,
      "d": 453.9466875000071,
      "v": 68
    },
    {
      "midi": 65,
      "hit": false,
      "t": 83368.29600000002,
      "d": 470.39403125000536,
      "v": 61
    },
    {
      "midi": 77,
      "hit": false,
      "t": 83368.29600000002,
      "d": 488.4861093750078,
      "v": 62
    },
    {
      "midi": 68,
      "hit": false,
      "t": 83368.29600000002,
      "d": 491.77557812500163,
      "v": 72
    },
    {
      "midi": 56,
      "hit": false,
      "t": 83368.29600000002,
      "d": 496.70978124999965,
      "v": 82
    },
    {
      "midi": 82,
      "hit": false,
      "t": 83999.87400000001,
      "d": 337.1705468750006,
      "v": 87
    },
    {
      "midi": 77,
      "hit": false,
      "t": 83999.87400000001,
      "d": 338.8152812500048,
      "v": 72
    },
    {
      "midi": 70,
      "hit": false,
      "t": 83999.87400000001,
      "d": 355.262625000003,
      "v": 80
    },
    {
      "midi": 73,
      "hit": false,
      "t": 83999.87400000001,
      "d": 365.13103124999907,
      "v": 80
    },
    {
      "midi": 61,
      "hit": false,
      "t": 83999.87400000001,
      "d": 389.8020468750037,
      "v": 60
    },
    {
      "midi": 65,
      "hit": false,
      "t": 83999.87400000001,
      "d": 402.95992187500815,
      "v": 70
    },
    {
      "midi": 58,
      "hit": false,
      "t": 83999.87400000001,
      "d": 434.209875000015,
      "v": 70
    },
    {
      "midi": 61,
      "hit": false,
      "t": 84631.45200000002,
      "d": 368.4204999999929,
      "v": 64
    },
    {
      "midi": 67,
      "hit": false,
      "t": 84631.45200000002,
      "d": 381.5783749999973,
      "v": 72
    },
    {
      "midi": 73,
      "hit": false,
      "t": 84631.45200000002,
      "d": 383.2231093750015,
      "v": 80
    },
    {
      "midi": 55,
      "hit": false,
      "t": 84631.45200000002,
      "d": 401.31518750000396,
      "v": 70
    },
    {
      "midi": 77,
      "hit": false,
      "t": 84631.45200000002,
      "d": 401.31518750000396,
      "v": 78
    },
    {
      "midi": 54,
      "hit": false,
      "t": 85263.03000000003,
      "d": 322.3679375000065,
      "v": 70
    },
    {
      "midi": 72,
      "hit": false,
      "t": 85263.03000000003,
      "d": 368.42050000000745,
      "v": 85
    },
    {
      "midi": 60,
      "hit": false,
      "t": 85263.03000000003,
      "d": 402.95992187500815,
      "v": 68
    },
    {
      "midi": 66,
      "hit": false,
      "t": 85263.03000000003,
      "d": 425.9862031250086,
      "v": 70
    },
    {
      "midi": 75,
      "hit": false,
      "t": 85263.03000000003,
      "d": 495.06504687501,
      "v": 80
    },
    {
      "midi": 56,
      "hit": false,
      "t": 85894.60800000004,
      "d": 574.0122968749929,
      "v": 54
    },
    {
      "midi": 77,
      "hit": false,
      "t": 85894.60800000004,
      "d": 574.0122968749929,
      "v": 64
    },
    {
      "midi": 61,
      "hit": false,
      "t": 85894.60800000004,
      "d": 580.5912343749951,
      "v": 62
    },
    {
      "midi": 68,
      "hit": false,
      "t": 85894.60800000004,
      "d": 588.8149062500015,
      "v": 66
    },
    {
      "midi": 73,
      "hit": false,
      "t": 85894.60800000004,
      "d": 590.4596406250057,
      "v": 70
    },
    {
      "midi": 53,
      "hit": false,
      "t": 85894.60800000004,
      "d": 597.0385781250079,
      "v": 68
    },
    {
      "midi": 70,
      "hit": false,
      "t": 93473.54400000004,
      "d": 814.1435156249936,
      "v": 98
    },
    {
      "midi": 55,
      "hit": false,
      "t": 93473.54400000004,
      "d": 815.7882499999978,
      "v": 87
    },
    {
      "midi": 61,
      "hit": false,
      "t": 93473.54400000004,
      "d": 827.301390624998,
      "v": 78
    },
    {
      "midi": 82,
      "hit": false,
      "t": 93473.54400000004,
      "d": 843.7487343749963,
      "v": 87
    },
    {
      "midi": 75,
      "hit": false,
      "t": 93473.54400000004,
      "d": 860.1960781249945,
      "v": 100
    },
    {
      "midi": 65,
      "hit": false,
      "t": 93473.54400000004,
      "d": 883.222359374995,
      "v": 93
    },
    {
      "midi": 58,
      "hit": false,
      "t": 93473.54400000004,
      "d": 888.156562499993,
      "v": 70
    },
    {
      "midi": 60,
      "hit": false,
      "t": 94736.70000000003,
      "d": 1049.3405312499963,
      "v": 89
    },
    {
      "midi": 65,
      "hit": false,
      "t": 94736.70000000003,
      "d": 1059.2089374999923,
      "v": 85
    },
    {
      "midi": 54,
      "hit": false,
      "t": 94736.70000000003,
      "d": 1070.7220781249925,
      "v": 80
    },
    {
      "midi": 58,
      "hit": false,
      "t": 94736.70000000003,
      "d": 1072.3668124999967,
      "v": 82
    },
    {
      "midi": 72,
      "hit": false,
      "t": 94736.70000000003,
      "d": 1074.011546875001,
      "v": 87
    },
    {
      "midi": 77,
      "hit": false,
      "t": 94736.70000000003,
      "d": 1075.6562812500051,
      "v": 102
    },
    {
      "midi": 84,
      "hit": false,
      "t": 94736.70000000003,
      "d": 1080.5904843750031,
      "v": 98
    },
    {
      "midi": 85,
      "hit": false,
      "t": 96016.30334375003,
      "d": 49.34203124999476,
      "v": 68
    },
    {
      "midi": 73,
      "hit": false,
      "t": 96019.59281250002,
      "d": 88.81565625000803,
      "v": 119
    },
    {
      "midi": 85,
      "hit": false,
      "t": 96144.59262500003,
      "d": 60.855171874994994,
      "v": 91
    },
    {
      "midi": 73,
      "hit": false,
      "t": 96200.51359375003,
      "d": 78.94724999999744,
      "v": 98
    },
    {
      "midi": 85,
      "hit": false,
      "t": 96310.71079687504,
      "d": 50.98676562499895,
      "v": 85
    },
    {
      "midi": 73,
      "hit": false,
      "t": 96376.50017187503,
      "d": 64.14464062500338,
      "v": 105
    },
    {
      "midi": 85,
      "hit": false,
      "t": 96466.96056250003,
      "d": 57.565703125001164,
      "v": 95
    },
    {
      "midi": 73,
      "hit": false,
      "t": 96540.97360937503,
      "d": 69.0788437500014,
      "v": 102
    },
    {
      "midi": 85,
      "hit": false,
      "t": 96624.85506250002,
      "d": 60.855171874994994,
      "v": 93
    },
    {
      "midi": 73,
      "hit": false,
      "t": 96708.73651562502,
      "d": 67.4341093749972,
      "v": 100
    },
    {
      "midi": 85,
      "hit": false,
      "t": 96795.90743750002,
      "d": 54.27623437499278,
      "v": 87
    },
    {
      "midi": 73,
      "hit": false,
      "t": 96869.92048437502,
      "d": 75.65778125000361,
      "v": 100
    },
    {
      "midi": 85,
      "hit": false,
      "t": 96958.73614062503,
      "d": 54.27623437499278,
      "v": 87
    },
    {
      "midi": 73,
      "hit": false,
      "t": 97036.03865625002,
      "d": 59.210437500005355,
      "v": 93
    },
    {
      "midi": 85,
      "hit": false,
      "t": 97113.34117187503,
      "d": 54.27623437499278,
      "v": 87
    },
    {
      "midi": 73,
      "hit": false,
      "t": 97192.28842187503,
      "d": 65.78937499999302,
      "v": 98
    },
    {
      "midi": 85,
      "hit": false,
      "t": 97277.81460937503,
      "d": 46.05256250000093,
      "v": 98
    },
    {
      "midi": 73,
      "hit": false,
      "t": 97346.89345312503,
      "d": 69.0788437500014,
      "v": 100
    },
    {
      "midi": 85,
      "hit": false,
      "t": 97430.77490625002,
      "d": 52.63150000000314,
      "v": 95
    },
    {
      "midi": 73,
      "hit": false,
      "t": 97513.01162500003,
      "d": 62.499906249999185,
      "v": 102
    },
    {
      "midi": 85,
      "hit": false,
      "t": 97598.53781250003,
      "d": 54.27623437499278,
      "v": 100
    },
    {
      "midi": 73,
      "hit": false,
      "t": 97669.26139062502,
      "d": 72.36831249999523,
      "v": 100
    },
    {
      "midi": 85,
      "hit": false,
      "t": 97761.36651562502,
      "d": 46.05256250000093,
      "v": 89
    },
    {
      "midi": 73,
      "hit": false,
      "t": 97823.86642187502,
      "d": 90.46039062499767,
      "v": 102
    },
    {
      "midi": 85,
      "hit": false,
      "t": 97915.97154687502,
      "d": 54.27623437499278,
      "v": 100
    },
    {
      "midi": 73,
      "hit": false,
      "t": 97991.62932812501,
      "d": 69.0788437500014,
      "v": 98
    },
    {
      "midi": 85,
      "hit": false,
      "t": 98087.023921875,
      "d": 139.80242187500698,
      "v": 82
    },
    {
      "midi": 73,
      "hit": false,
      "t": 98236.69475000001,
      "d": 87.17092187500384,
      "v": 98
    },
    {
      "midi": 85,
      "hit": false,
      "t": 98360.04982812502,
      "d": 98.68406250000407,
      "v": 85
    },
    {
      "midi": 61,
      "hit": false,
      "t": 98526.16800000002,
      "d": 55.92096874999697,
      "v": 82
    },
    {
      "midi": 65,
      "hit": false,
      "t": 98526.16800000002,
      "d": 55.92096874999697,
      "v": 95
    },
    {
      "midi": 85,
      "hit": false,
      "t": 98526.16800000002,
      "d": 60.855171874994994,
      "v": 98
    },
    {
      "midi": 80,
      "hit": false,
      "t": 98526.16800000002,
      "d": 72.36831249999523,
      "v": 91
    },
    {
      "midi": 56,
      "hit": false,
      "t": 98526.16800000002,
      "d": 74.01304687499942,
      "v": 82
    },
    {
      "midi": 73,
      "hit": false,
      "t": 98526.16800000002,
      "d": 77.30251562499325,
      "v": 100
    },
    {
      "midi": 37,
      "hit": false,
      "t": 100736.691,
      "d": 2526.3120000000054,
      "v": 74
    },
    {
      "midi": 44,
      "hit": false,
      "t": 100736.691,
      "d": 2526.3120000000054,
      "v": 74
    },
    {
      "midi": 53,
      "hit": false,
      "t": 100736.691,
      "d": 2526.3120000000054,
      "v": 82
    },
    {
      "midi": 56,
      "hit": false,
      "t": 100736.691,
      "d": 2526.3120000000054,
      "v": 80
    },
    {
      "midi": 61,
      "hit": false,
      "t": 100736.691,
      "d": 2526.3120000000054,
      "v": 80
    }
  ]
}