{
  "jsonPath": "Rock/Athens Indie/Venice is Sinking/pulaski-heights.json",
  "path": "Rock\\Athens Indie\\Venice is Sinking\\Pulaski Heights.mid",
  "name": "Pulaski Heights",
  "difficulty": "Advanced",
  "bpm": 121.00043156820593,
  "notes": [
    {
      "midi": 69,
      "hit": false,
      "t": 9917.320000000002,
      "d": 1740.696270833334,
      "v": 89
    },
    {
      "midi": 66,
      "hit": false,
      "t": 9917.320000000002,
      "d": 1779.4358020833333,
      "v": 89
    },
    {
      "midi": 62,
      "hit": false,
      "t": 9917.320000000002,
      "d": 1856.9148645833338,
      "v": 88
    },
    {
      "midi": 50,
      "hit": false,
      "t": 9917.320000000002,
      "d": 1988.629270833333,
      "v": 89
    },
    {
      "midi": 62,
      "hit": false,
      "t": 11900.784000000001,
      "d": 1820.7579687500001,
      "v": 82
    },
    {
      "midi": 71,
      "hit": false,
      "t": 11900.784000000001,
      "d": 1846.5843229166676,
      "v": 89
    },
    {
      "midi": 67,
      "hit": false,
      "t": 11900.784000000001,
      "d": 1877.5759479166682,
      "v": 90
    },
    {
      "midi": 55,
      "hit": false,
      "t": 11900.784000000001,
      "d": 1900.8196666666681,
      "v": 89
    },
    {
      "midi": 50,
      "hit": false,
      "t": 13884.248000000003,
      "d": 3788.726156249999,
      "v": 89
    },
    {
      "midi": 62,
      "hit": false,
      "t": 13884.248000000003,
      "d": 3809.3872395833314,
      "v": 89
    },
    {
      "midi": 69,
      "hit": false,
      "t": 13884.248000000003,
      "d": 3809.3872395833314,
      "v": 92
    },
    {
      "midi": 66,
      "hit": false,
      "t": 13884.248000000003,
      "d": 3822.300416666665,
      "v": 90
    },
    {
      "midi": 62,
      "hit": false,
      "t": 17851.176000000003,
      "d": 475.2049166666693,
      "v": 92
    },
    {
      "midi": 69,
      "hit": false,
      "t": 17851.176000000003,
      "d": 712.8073750000003,
      "v": 90
    },
    {
      "midi": 50,
      "hit": false,
      "t": 17851.176000000003,
      "d": 1952.4723749999976,
      "v": 88
    },
    {
      "midi": 66,
      "hit": false,
      "t": 17851.176000000003,
      "d": 1952.4723749999976,
      "v": 89
    },
    {
      "midi": 57,
      "hit": false,
      "t": 18099.109000000004,
      "d": 1528.9201666666631,
      "v": 82
    },
    {
      "midi": 62,
      "hit": false,
      "t": 18347.042000000005,
      "d": 1314.5614270833285,
      "v": 82
    },
    {
      "midi": 69,
      "hit": false,
      "t": 18594.975000000002,
      "d": 1045.9673437499987,
      "v": 85
    },
    {
      "midi": 62,
      "hit": false,
      "t": 19834.64,
      "d": 1771.6878958333327,
      "v": 91
    },
    {
      "midi": 67,
      "hit": false,
      "t": 19834.64,
      "d": 1820.7579687500001,
      "v": 89
    },
    {
      "midi": 71,
      "hit": false,
      "t": 19834.64,
      "d": 1864.6627708333326,
      "v": 93
    },
    {
      "midi": 55,
      "hit": false,
      "t": 19834.64,
      "d": 1991.2119062499987,
      "v": 86
    },
    {
      "midi": 45,
      "hit": false,
      "t": 21818.104,
      "d": 3910.1100208333337,
      "v": 86
    },
    {
      "midi": 61,
      "hit": false,
      "t": 21818.104,
      "d": 3910.1100208333337,
      "v": 90
    },
    {
      "midi": 64,
      "hit": false,
      "t": 21818.104,
      "d": 3910.1100208333337,
      "v": 89
    },
    {
      "midi": 69,
      "hit": false,
      "t": 21818.104,
      "d": 3910.1100208333337,
      "v": 88
    },
    {
      "midi": 62,
      "hit": false,
      "t": 25785.032,
      "d": 475.2049166666693,
      "v": 92
    },
    {
      "midi": 69,
      "hit": false,
      "t": 25785.032,
      "d": 712.8073750000003,
      "v": 90
    },
    {
      "midi": 50,
      "hit": false,
      "t": 25785.032,
      "d": 1952.4723750000012,
      "v": 88
    },
    {
      "midi": 66,
      "hit": false,
      "t": 25785.032,
      "d": 1952.4723750000012,
      "v": 89
    },
    {
      "midi": 57,
      "hit": false,
      "t": 26032.965,
      "d": 1528.9201666666668,
      "v": 82
    },
    {
      "midi": 62,
      "hit": false,
      "t": 26280.898,
      "d": 1314.561427083332,
      "v": 82
    },
    {
      "midi": 69,
      "hit": false,
      "t": 26528.831,
      "d": 1045.9673437500023,
      "v": 85
    },
    {
      "midi": 62,
      "hit": false,
      "t": 27768.496,
      "d": 1771.6878958333327,
      "v": 91
    },
    {
      "midi": 67,
      "hit": false,
      "t": 27768.496,
      "d": 1820.7579687500001,
      "v": 89
    },
    {
      "midi": 71,
      "hit": false,
      "t": 27768.496,
      "d": 1864.6627708333326,
      "v": 93
    },
    {
      "midi": 55,
      "hit": false,
      "t": 27768.496,
      "d": 1991.2119062499987,
      "v": 86
    },
    {
      "midi": 50,
      "hit": false,
      "t": 29751.96,
      "d": 3788.726156249999,
      "v": 89
    },
    {
      "midi": 62,
      "hit": false,
      "t": 29751.96,
      "d": 3809.3872395833314,
      "v": 89
    },
    {
      "midi": 69,
      "hit": false,
      "t": 29751.96,
      "d": 3809.3872395833314,
      "v": 92
    },
    {
      "midi": 66,
      "hit": false,
      "t": 29751.96,
      "d": 3822.300416666665,
      "v": 90
    },
    {
      "midi": 67,
      "hit": false,
      "t": 33718.888,
      "d": 1740.6962708333303,
      "v": 89
    },
    {
      "midi": 64,
      "hit": false,
      "t": 33718.888,
      "d": 1779.4358020833315,
      "v": 89
    },
    {
      "midi": 60,
      "hit": false,
      "t": 33718.888,
      "d": 1856.9148645833338,
      "v": 88
    },
    {
      "midi": 48,
      "hit": false,
      "t": 33718.888,
      "d": 1952.4723749999976,
      "v": 89
    },
    {
      "midi": 59,
      "hit": false,
      "t": 35702.352,
      "d": 1771.6878958333327,
      "v": 91
    },
    {
      "midi": 62,
      "hit": false,
      "t": 35702.352,
      "d": 1820.7579687499965,
      "v": 89
    },
    {
      "midi": 67,
      "hit": false,
      "t": 35702.352,
      "d": 1864.6627708333326,
      "v": 93
    },
    {
      "midi": 43,
      "hit": false,
      "t": 35702.352,
      "d": 1991.2119062499987,
      "v": 86
    },
    {
      "midi": 50,
      "hit": false,
      "t": 37685.816,
      "d": 3910.11002083333,
      "v": 86
    },
    {
      "midi": 62,
      "hit": false,
      "t": 37685.816,
      "d": 3910.11002083333,
      "v": 90
    },
    {
      "midi": 66,
      "hit": false,
      "t": 37685.816,
      "d": 3910.11002083333,
      "v": 89
    },
    {
      "midi": 69,
      "hit": false,
      "t": 37685.816,
      "d": 3910.11002083333,
      "v": 88
    },
    {
      "midi": 67,
      "hit": false,
      "t": 41652.744,
      "d": 1740.6962708333303,
      "v": 89
    },
    {
      "midi": 64,
      "hit": false,
      "t": 41652.744,
      "d": 1779.4358020833315,
      "v": 89
    },
    {
      "midi": 60,
      "hit": false,
      "t": 41652.744,
      "d": 1856.9148645833338,
      "v": 88
    },
    {
      "midi": 48,
      "hit": false,
      "t": 41652.744,
      "d": 1952.4723749999976,
      "v": 89
    },
    {
      "midi": 59,
      "hit": false,
      "t": 43636.208,
      "d": 1771.6878958333327,
      "v": 91
    },
    {
      "midi": 62,
      "hit": false,
      "t": 43636.208,
      "d": 1820.7579687499965,
      "v": 89
    },
    {
      "midi": 67,
      "hit": false,
      "t": 43636.208,
      "d": 1864.6627708333326,
      "v": 93
    },
    {
      "midi": 43,
      "hit": false,
      "t": 43636.208,
      "d": 1991.2119062499987,
      "v": 86
    },
    {
      "midi": 50,
      "hit": false,
      "t": 45619.672,
      "d": 3910.11002083333,
      "v": 86
    },
    {
      "midi": 62,
      "hit": false,
      "t": 45619.672,
      "d": 3910.11002083333,
      "v": 90
    },
    {
      "midi": 66,
      "hit": false,
      "t": 45619.672,
      "d": 3910.11002083333,
      "v": 89
    },
    {
      "midi": 69,
      "hit": false,
      "t": 45619.672,
      "d": 3910.11002083333,
      "v": 88
    },
    {
      "midi": 69,
      "hit": false,
      "t": 49586.6,
      "d": 1740.6962708333303,
      "v": 93
    },
    {
      "midi": 66,
      "hit": false,
      "t": 49586.6,
      "d": 1779.4358020833315,
      "v": 93
    },
    {
      "midi": 62,
      "hit": false,
      "t": 49586.6,
      "d": 1856.9148645833338,
      "v": 92
    },
    {
      "midi": 50,
      "hit": false,
      "t": 49586.6,
      "d": 1988.6292708333349,
      "v": 93
    },
    {
      "midi": 62,
      "hit": false,
      "t": 51570.064,
      "d": 1820.7579687500038,
      "v": 86
    },
    {
      "midi": 71,
      "hit": false,
      "t": 51570.064,
      "d": 1846.5843229166712,
      "v": 93
    },
    {
      "midi": 67,
      "hit": false,
      "t": 51570.064,
      "d": 1877.5759479166736,
      "v": 94
    },
    {
      "midi": 55,
      "hit": false,
      "t": 51570.064,
      "d": 1900.8196666666772,
      "v": 93
    },
    {
      "midi": 62,
      "hit": false,
      "t": 53553.528000000006,
      "d": 3189.5547395833346,
      "v": 93
    },
    {
      "midi": 69,
      "hit": false,
      "t": 53553.528000000006,
      "d": 3437.487739583332,
      "v": 96
    },
    {
      "midi": 66,
      "hit": false,
      "t": 53553.528000000006,
      "d": 3468.4793645833342,
      "v": 94
    },
    {
      "midi": 50,
      "hit": false,
      "t": 53553.528000000006,
      "d": 3664.7596562499966,
      "v": 93
    },
    {
      "midi": 62,
      "hit": false,
      "t": 56776.65700000001,
      "d": 493.2833645833307,
      "v": 87
    },
    {
      "midi": 66,
      "hit": false,
      "t": 57024.590000000004,
      "d": 351.23841666666704,
      "v": 87
    },
    {
      "midi": 69,
      "hit": false,
      "t": 57272.523,
      "d": 245.35036458333343,
      "v": 87
    },
    {
      "midi": 57,
      "hit": false,
      "t": 57520.456,
      "d": 1820.7579687500038,
      "v": 86
    },
    {
      "midi": 66,
      "hit": false,
      "t": 57520.456,
      "d": 1877.5759479166736,
      "v": 94
    },
    {
      "midi": 50,
      "hit": false,
      "t": 57520.456,
      "d": 1900.8196666666772,
      "v": 93
    },
    {
      "midi": 62,
      "hit": false,
      "t": 59503.920000000006,
      "d": 1771.6878958333327,
      "v": 95
    },
    {
      "midi": 67,
      "hit": false,
      "t": 59503.920000000006,
      "d": 1820.7579687499965,
      "v": 93
    },
    {
      "midi": 55,
      "hit": false,
      "t": 59503.920000000006,
      "d": 1991.2119062499987,
      "v": 90
    },
    {
      "midi": 45,
      "hit": false,
      "t": 61487.384000000005,
      "d": 3910.11002083333,
      "v": 90
    },
    {
      "midi": 61,
      "hit": false,
      "t": 61487.384000000005,
      "d": 3910.11002083333,
      "v": 94
    },
    {
      "midi": 64,
      "hit": false,
      "t": 61487.384000000005,
      "d": 3910.11002083333,
      "v": 93
    },
    {
      "midi": 69,
      "hit": false,
      "t": 61487.384000000005,
      "d": 3910.11002083333,
      "v": 92
    },
    {
      "midi": 62,
      "hit": false,
      "t": 65454.312000000005,
      "d": 475.2049166666693,
      "v": 96
    },
    {
      "midi": 69,
      "hit": false,
      "t": 65454.312000000005,
      "d": 712.807375000004,
      "v": 94
    },
    {
      "midi": 50,
      "hit": false,
      "t": 65454.312000000005,
      "d": 1952.472375000012,
      "v": 92
    },
    {
      "midi": 66,
      "hit": false,
      "t": 65454.312000000005,
      "d": 1952.472375000012,
      "v": 93
    },
    {
      "midi": 57,
      "hit": false,
      "t": 65702.24500000001,
      "d": 1528.9201666666631,
      "v": 86
    },
    {
      "midi": 62,
      "hit": false,
      "t": 65950.17800000001,
      "d": 1314.561427083332,
      "v": 86
    },
    {
      "midi": 69,
      "hit": false,
      "t": 66198.111,
      "d": 1045.9673437500023,
      "v": 89
    },
    {
      "midi": 62,
      "hit": false,
      "t": 67437.77600000001,
      "d": 1771.68789583334,
      "v": 95
    },
    {
      "midi": 67,
      "hit": false,
      "t": 67437.77600000001,
      "d": 1820.757968750011,
      "v": 93
    },
    {
      "midi": 71,
      "hit": false,
      "t": 67437.77600000001,
      "d": 1864.66277083334,
      "v": 97
    },
    {
      "midi": 55,
      "hit": false,
      "t": 67437.77600000001,
      "d": 1991.2119062500133,
      "v": 90
    },
    {
      "midi": 50,
      "hit": false,
      "t": 69421.24000000002,
      "d": 3788.726156250006,
      "v": 93
    },
    {
      "midi": 62,
      "hit": false,
      "t": 69421.24000000002,
      "d": 3809.387239583346,
      "v": 93
    },
    {
      "midi": 69,
      "hit": false,
      "t": 69421.24000000002,
      "d": 3809.387239583346,
      "v": 96
    },
    {
      "midi": 66,
      "hit": false,
      "t": 69421.24000000002,
      "d": 3822.3004166666797,
      "v": 94
    },
    {
      "midi": 67,
      "hit": false,
      "t": 73388.16800000003,
      "d": 1740.6962708333303,
      "v": 97
    },
    {
      "midi": 64,
      "hit": false,
      "t": 73388.16800000003,
      "d": 1779.4358020833315,
      "v": 97
    },
    {
      "midi": 60,
      "hit": false,
      "t": 73388.16800000003,
      "d": 1856.9148645833338,
      "v": 97
    },
    {
      "midi": 48,
      "hit": false,
      "t": 73388.16800000003,
      "d": 1952.4723749999976,
      "v": 97
    },
    {
      "midi": 62,
      "hit": false,
      "t": 75371.63200000003,
      "d": 1820.7579687499965,
      "v": 97
    },
    {
      "midi": 67,
      "hit": false,
      "t": 75371.63200000003,
      "d": 1864.6627708333253,
      "v": 97
    },
    {
      "midi": 43,
      "hit": false,
      "t": 75371.63200000003,
      "d": 1975.7160937499866,
      "v": 97
    },
    {
      "midi": 59,
      "hit": false,
      "t": 75371.63200000003,
      "d": 1975.7160937499866,
      "v": 97
    },
    {
      "midi": 62,
      "hit": false,
      "t": 77355.09600000002,
      "d": 3166.3110208333383,
      "v": 94
    },
    {
      "midi": 69,
      "hit": false,
      "t": 77355.09600000002,
      "d": 3414.2440208333282,
      "v": 92
    },
    {
      "midi": 50,
      "hit": false,
      "t": 77355.09600000002,
      "d": 3910.110020833323,
      "v": 90
    },
    {
      "midi": 66,
      "hit": false,
      "t": 77355.09600000002,
      "d": 3910.110020833323,
      "v": 93
    },
    {
      "midi": 62,
      "hit": false,
      "t": 80578.22500000002,
      "d": 741.2163645833207,
      "v": 99
    },
    {
      "midi": 69,
      "hit": false,
      "t": 80826.15800000001,
      "d": 493.2833645833307,
      "v": 99
    },
    {
      "midi": 53,
      "hit": false,
      "t": 81322.024,
      "d": 3948.8495520833385,
      "v": 97
    },
    {
      "midi": 60,
      "hit": false,
      "t": 81322.024,
      "d": 3948.8495520833385,
      "v": 96
    },
    {
      "midi": 65,
      "hit": false,
      "t": 81322.024,
      "d": 3948.8495520833385,
      "v": 97
    },
    {
      "midi": 69,
      "hit": false,
      "t": 81322.024,
      "d": 3948.8495520833385,
      "v": 97
    },
    {
      "midi": 60,
      "hit": false,
      "t": 85288.952,
      "d": 3189.5547395833273,
      "v": 97
    },
    {
      "midi": 67,
      "hit": false,
      "t": 85288.952,
      "d": 3437.487739583332,
      "v": 100
    },
    {
      "midi": 64,
      "hit": false,
      "t": 85288.952,
      "d": 3468.479364583327,
      "v": 98
    },
    {
      "midi": 48,
      "hit": false,
      "t": 85288.952,
      "d": 3664.7596562499966,
      "v": 97
    },
    {
      "midi": 60,
      "hit": false,
      "t": 88512.081,
      "d": 493.2833645833307,
      "v": 91
    },
    {
      "midi": 64,
      "hit": false,
      "t": 88760.014,
      "d": 351.2384166666743,
      "v": 91
    },
    {
      "midi": 67,
      "hit": false,
      "t": 89007.947,
      "d": 245.3503645833407,
      "v": 91
    },
    {
      "midi": 53,
      "hit": false,
      "t": 89255.88,
      "d": 3884.28366666667,
      "v": 97
    },
    {
      "midi": 60,
      "hit": false,
      "t": 89255.88,
      "d": 3884.28366666667,
      "v": 90
    },
    {
      "midi": 65,
      "hit": false,
      "t": 89255.88,
      "d": 3884.28366666667,
      "v": 98
    },
    {
      "midi": 69,
      "hit": false,
      "t": 89255.88,
      "d": 3884.28366666667,
      "v": 98
    },
    {
      "midi": 45,
      "hit": false,
      "t": 93222.808,
      "d": 1926.64602083333,
      "v": 94
    },
    {
      "midi": 61,
      "hit": false,
      "t": 93222.808,
      "d": 1926.64602083333,
      "v": 98
    },
    {
      "midi": 64,
      "hit": false,
      "t": 93222.808,
      "d": 1926.64602083333,
      "v": 97
    },
    {
      "midi": 69,
      "hit": false,
      "t": 93222.808,
      "d": 1926.64602083333,
      "v": 96
    },
    {
      "midi": 44,
      "hit": false,
      "t": 95206.272,
      "d": 1926.64602083333,
      "v": 94
    },
    {
      "midi": 61,
      "hit": false,
      "t": 95206.272,
      "d": 1926.64602083333,
      "v": 98
    },
    {
      "midi": 64,
      "hit": false,
      "t": 95206.272,
      "d": 1926.64602083333,
      "v": 97
    },
    {
      "midi": 68,
      "hit": false,
      "t": 95206.272,
      "d": 1926.64602083333,
      "v": 96
    },
    {
      "midi": 43,
      "hit": false,
      "t": 97189.73599999999,
      "d": 1926.64602083333,
      "v": 94
    },
    {
      "midi": 59,
      "hit": false,
      "t": 97189.73599999999,
      "d": 1926.64602083333,
      "v": 98
    },
    {
      "midi": 62,
      "hit": false,
      "t": 97189.73599999999,
      "d": 1926.64602083333,
      "v": 97
    },
    {
      "midi": 67,
      "hit": false,
      "t": 97189.73599999999,
      "d": 1926.64602083333,
      "v": 96
    },
    {
      "midi": 44,
      "hit": false,
      "t": 99173.19999999998,
      "d": 1926.64602083333,
      "v": 94
    },
    {
      "midi": 61,
      "hit": false,
      "t": 99173.19999999998,
      "d": 1926.64602083333,
      "v": 98
    },
    {
      "midi": 64,
      "hit": false,
      "t": 99173.19999999998,
      "d": 1926.64602083333,
      "v": 97
    },
    {
      "midi": 68,
      "hit": false,
      "t": 99173.19999999998,
      "d": 1926.64602083333,
      "v": 96
    },
    {
      "midi": 43,
      "hit": false,
      "t": 101156.66399999998,
      "d": 1926.64602083333,
      "v": 94
    },
    {
      "midi": 59,
      "hit": false,
      "t": 101156.66399999998,
      "d": 1926.64602083333,
      "v": 98
    },
    {
      "midi": 62,
      "hit": false,
      "t": 101156.66399999998,
      "d": 1926.64602083333,
      "v": 97
    },
    {
      "midi": 67,
      "hit": false,
      "t": 101156.66399999998,
      "d": 1926.64602083333,
      "v": 96
    },
    {
      "midi": 67,
      "hit": false,
      "t": 103140.12799999997,
      "d": 1740.6962708333303,
      "v": 101
    },
    {
      "midi": 64,
      "hit": false,
      "t": 103140.12799999997,
      "d": 1779.4358020833315,
      "v": 101
    },
    {
      "midi": 60,
      "hit": false,
      "t": 103140.12799999997,
      "d": 1856.9148645833338,
      "v": 101
    },
    {
      "midi": 48,
      "hit": false,
      "t": 103140.12799999997,
      "d": 1952.4723749999976,
      "v": 101
    },
    {
      "midi": 66,
      "hit": false,
      "t": 105123.59199999996,
      "d": 1740.6962708333303,
      "v": 101
    },
    {
      "midi": 62,
      "hit": false,
      "t": 105123.59199999996,
      "d": 1779.4358020833315,
      "v": 101
    },
    {
      "midi": 59,
      "hit": false,
      "t": 105123.59199999996,
      "d": 1856.9148645833338,
      "v": 101
    },
    {
      "midi": 47,
      "hit": false,
      "t": 105123.59199999996,
      "d": 1952.4723749999976,
      "v": 101
    },
    {
      "midi": 45,
      "hit": false,
      "t": 107107.05599999995,
      "d": 3910.1100208333373,
      "v": 94
    },
    {
      "midi": 57,
      "hit": false,
      "t": 107107.05599999995,
      "d": 3910.1100208333373,
      "v": 98
    },
    {
      "midi": 61,
      "hit": false,
      "t": 107107.05599999995,
      "d": 3910.1100208333373,
      "v": 97
    },
    {
      "midi": 64,
      "hit": false,
      "t": 107107.05599999995,
      "d": 3910.1100208333373,
      "v": 96
    },
    {
      "midi": 69,
      "hit": false,
      "t": 111073.98399999995,
      "d": 1740.6962708333303,
      "v": 94
    },
    {
      "midi": 66,
      "hit": false,
      "t": 111073.98399999995,
      "d": 1779.4358020833315,
      "v": 94
    },
    {
      "midi": 62,
      "hit": false,
      "t": 111073.98399999995,
      "d": 1856.9148645833338,
      "v": 93
    },
    {
      "midi": 50,
      "hit": false,
      "t": 111073.98399999995,
      "d": 1988.6292708333349,
      "v": 94
    },
    {
      "midi": 62,
      "hit": false,
      "t": 113057.44799999996,
      "d": 1820.7579687499965,
      "v": 87
    },
    {
      "midi": 71,
      "hit": false,
      "t": 113057.44799999996,
      "d": 1846.584322916664,
      "v": 94
    },
    {
      "midi": 67,
      "hit": false,
      "t": 113057.44799999996,
      "d": 1877.575947916659,
      "v": 95
    },
    {
      "midi": 55,
      "hit": false,
      "t": 113057.44799999996,
      "d": 1900.8196666666627,
      "v": 94
    },
    {
      "midi": 50,
      "hit": false,
      "t": 115040.91199999995,
      "d": 3788.726156250006,
      "v": 94
    },
    {
      "midi": 62,
      "hit": false,
      "t": 115040.91199999995,
      "d": 3788.726156250006,
      "v": 94
    },
    {
      "midi": 66,
      "hit": false,
      "t": 115040.91199999995,
      "d": 3788.726156250006,
      "v": 95
    },
    {
      "midi": 69,
      "hit": false,
      "t": 115040.91199999995,
      "d": 3788.726156250006,
      "v": 97
    },
    {
      "midi": 74,
      "hit": false,
      "t": 118023.85590624996,
      "d": 1485.0153645833343,
      "v": 105
    },
    {
      "midi": 78,
      "hit": false,
      "t": 118775.40281249996,
      "d": 2228.814364583319,
      "v": 108
    },
    {
      "midi": 57,
      "hit": false,
      "t": 119007.83999999995,
      "d": 1820.7579687499965,
      "v": 87
    },
    {
      "midi": 66,
      "hit": false,
      "t": 119007.83999999995,
      "d": 1877.575947916659,
      "v": 95
    },
    {
      "midi": 50,
      "hit": false,
      "t": 119007.83999999995,
      "d": 1900.8196666666627,
      "v": 94
    },
    {
      "midi": 62,
      "hit": false,
      "t": 120991.30399999995,
      "d": 1771.68789583334,
      "v": 96
    },
    {
      "midi": 67,
      "hit": false,
      "t": 120991.30399999995,
      "d": 1820.757968750011,
      "v": 94
    },
    {
      "midi": 55,
      "hit": false,
      "t": 120991.30399999995,
      "d": 1991.2119062500133,
      "v": 91
    },
    {
      "midi": 45,
      "hit": false,
      "t": 122974.76799999995,
      "d": 3910.1100208333373,
      "v": 91
    },
    {
      "midi": 61,
      "hit": false,
      "t": 122974.76799999995,
      "d": 3910.1100208333373,
      "v": 95
    },
    {
      "midi": 64,
      "hit": false,
      "t": 122974.76799999995,
      "d": 3910.1100208333373,
      "v": 94
    },
    {
      "midi": 69,
      "hit": false,
      "t": 122974.76799999995,
      "d": 3910.1100208333373,
      "v": 93
    },
    {
      "midi": 62,
      "hit": false,
      "t": 126941.69599999995,
      "d": 475.2049166666693,
      "v": 97
    },
    {
      "midi": 69,
      "hit": false,
      "t": 126941.69599999995,
      "d": 712.807375000004,
      "v": 95
    },
    {
      "midi": 50,
      "hit": false,
      "t": 126941.69599999995,
      "d": 1952.472375000012,
      "v": 93
    },
    {
      "midi": 66,
      "hit": false,
      "t": 126941.69599999995,
      "d": 1952.472375000012,
      "v": 94
    },
    {
      "midi": 57,
      "hit": false,
      "t": 127189.62899999996,
      "d": 1528.9201666666631,
      "v": 87
    },
    {
      "midi": 62,
      "hit": false,
      "t": 127437.56199999996,
      "d": 1314.561427083332,
      "v": 87
    },
    {
      "midi": 69,
      "hit": false,
      "t": 127685.49499999995,
      "d": 1045.9673437500023,
      "v": 90
    },
    {
      "midi": 62,
      "hit": false,
      "t": 128925.15999999996,
      "d": 1771.68789583334,
      "v": 96
    },
    {
      "midi": 67,
      "hit": false,
      "t": 128925.15999999996,
      "d": 1820.757968750011,
      "v": 94
    },
    {
      "midi": 71,
      "hit": false,
      "t": 128925.15999999996,
      "d": 1864.66277083334,
      "v": 98
    },
    {
      "midi": 55,
      "hit": false,
      "t": 128925.15999999996,
      "d": 1991.2119062500133,
      "v": 91
    },
    {
      "midi": 50,
      "hit": false,
      "t": 130908.62399999997,
      "d": 3788.726156250006,
      "v": 94
    },
    {
      "midi": 62,
      "hit": false,
      "t": 130908.62399999997,
      "d": 3809.387239583346,
      "v": 94
    },
    {
      "midi": 69,
      "hit": false,
      "t": 130908.62399999997,
      "d": 3809.387239583346,
      "v": 97
    },
    {
      "midi": 66,
      "hit": false,
      "t": 130908.62399999997,
      "d": 3822.3004166666797,
      "v": 95
    },
    {
      "midi": 67,
      "hit": false,
      "t": 134875.55199999997,
      "d": 1740.696270833345,
      "v": 98
    },
    {
      "midi": 64,
      "hit": false,
      "t": 134875.55199999997,
      "d": 1779.435802083346,
      "v": 98
    },
    {
      "midi": 60,
      "hit": false,
      "t": 134875.55199999997,
      "d": 1856.9148645833484,
      "v": 98
    },
    {
      "midi": 48,
      "hit": false,
      "t": 134875.55199999997,
      "d": 1952.472375000012,
      "v": 98
    },
    {
      "midi": 62,
      "hit": false,
      "t": 136859.01599999997,
      "d": 1820.7579687499965,
      "v": 98
    },
    {
      "midi": 67,
      "hit": false,
      "t": 136859.01599999997,
      "d": 1864.6627708333253,
      "v": 98
    },
    {
      "midi": 43,
      "hit": false,
      "t": 136859.01599999997,
      "d": 1975.7160937500012,
      "v": 98
    },
    {
      "midi": 59,
      "hit": false,
      "t": 136859.01599999997,
      "d": 1975.7160937500012,
      "v": 98
    },
    {
      "midi": 62,
      "hit": false,
      "t": 138842.47999999998,
      "d": 3166.3110208333237,
      "v": 95
    },
    {
      "midi": 69,
      "hit": false,
      "t": 138842.47999999998,
      "d": 3414.2440208333137,
      "v": 93
    },
    {
      "midi": 50,
      "hit": false,
      "t": 138842.47999999998,
      "d": 3910.110020833323,
      "v": 91
    },
    {
      "midi": 66,
      "hit": false,
      "t": 138842.47999999998,
      "d": 3910.110020833323,
      "v": 94
    },
    {
      "midi": 62,
      "hit": false,
      "t": 142065.60899999997,
      "d": 741.2163645833498,
      "v": 100
    },
    {
      "midi": 69,
      "hit": false,
      "t": 142313.54199999996,
      "d": 493.2833645833598,
      "v": 100
    },
    {
      "midi": 67,
      "hit": false,
      "t": 142809.408,
      "d": 1740.696270833345,
      "v": 100
    },
    {
      "midi": 64,
      "hit": false,
      "t": 142809.408,
      "d": 1779.435802083346,
      "v": 100
    },
    {
      "midi": 60,
      "hit": false,
      "t": 142809.408,
      "d": 1856.9148645833484,
      "v": 100
    },
    {
      "midi": 48,
      "hit": false,
      "t": 142809.408,
      "d": 1952.472375000012,
      "v": 100
    },
    {
      "midi": 62,
      "hit": false,
      "t": 144792.872,
      "d": 1820.7579687499965,
      "v": 100
    },
    {
      "midi": 67,
      "hit": false,
      "t": 144792.872,
      "d": 1864.6627708333253,
      "v": 100
    },
    {
      "midi": 43,
      "hit": false,
      "t": 144792.872,
      "d": 1975.7160937500012,
      "v": 100
    },
    {
      "midi": 59,
      "hit": false,
      "t": 144792.872,
      "d": 1975.7160937500012,
      "v": 100
    },
    {
      "midi": 62,
      "hit": false,
      "t": 146776.336,
      "d": 3166.3110208333237,
      "v": 97
    },
    {
      "midi": 69,
      "hit": false,
      "t": 146776.336,
      "d": 3414.2440208333137,
      "v": 95
    },
    {
      "midi": 50,
      "hit": false,
      "t": 146776.336,
      "d": 3910.110020833323,
      "v": 93
    },
    {
      "midi": 66,
      "hit": false,
      "t": 146776.336,
      "d": 3910.110020833323,
      "v": 96
    },
    {
      "midi": 62,
      "hit": false,
      "t": 149999.465,
      "d": 741.2163645833498,
      "v": 103
    },
    {
      "midi": 69,
      "hit": false,
      "t": 150247.398,
      "d": 493.2833645833598,
      "v": 103
    },
    {
      "midi": 67,
      "hit": false,
      "t": 150743.26400000002,
      "d": 1740.696270833345,
      "v": 101
    },
    {
      "midi": 64,
      "hit": false,
      "t": 150743.26400000002,
      "d": 1779.435802083346,
      "v": 101
    },
    {
      "midi": 60,
      "hit": false,
      "t": 150743.26400000002,
      "d": 1856.9148645833484,
      "v": 101
    },
    {
      "midi": 48,
      "hit": false,
      "t": 150743.26400000002,
      "d": 1952.472375000012,
      "v": 101
    },
    {
      "midi": 62,
      "hit": false,
      "t": 152726.72800000003,
      "d": 1820.7579687499965,
      "v": 102
    },
    {
      "midi": 67,
      "hit": false,
      "t": 152726.72800000003,
      "d": 1864.6627708333253,
      "v": 102
    },
    {
      "midi": 43,
      "hit": false,
      "t": 152726.72800000003,
      "d": 1975.7160937500012,
      "v": 102
    },
    {
      "midi": 59,
      "hit": false,
      "t": 152726.72800000003,
      "d": 1975.7160937500012,
      "v": 102
    },
    {
      "midi": 62,
      "hit": false,
      "t": 154710.19200000004,
      "d": 3166.3110208333237,
      "v": 99
    },
    {
      "midi": 69,
      "hit": false,
      "t": 154710.19200000004,
      "d": 3414.2440208333137,
      "v": 97
    },
    {
      "midi": 50,
      "hit": false,
      "t": 154710.19200000004,
      "d": 3910.110020833323,
      "v": 95
    },
    {
      "midi": 66,
      "hit": false,
      "t": 154710.19200000004,
      "d": 3910.110020833323,
      "v": 98
    },
    {
      "midi": 62,
      "hit": false,
      "t": 157933.32100000003,
      "d": 741.2163645833498,
      "v": 105
    },
    {
      "midi": 69,
      "hit": false,
      "t": 158181.25400000002,
      "d": 493.2833645833598,
      "v": 105
    },
    {
      "midi": 67,
      "hit": false,
      "t": 158677.12000000005,
      "d": 1740.696270833345,
      "v": 103
    },
    {
      "midi": 64,
      "hit": false,
      "t": 158677.12000000005,
      "d": 1779.435802083346,
      "v": 103
    },
    {
      "midi": 60,
      "hit": false,
      "t": 158677.12000000005,
      "d": 1856.9148645833484,
      "v": 103
    },
    {
      "midi": 48,
      "hit": false,
      "t": 158677.12000000005,
      "d": 1952.472375000012,
      "v": 103
    },
    {
      "midi": 62,
      "hit": false,
      "t": 160660.58400000006,
      "d": 1820.7579687499965,
      "v": 104
    },
    {
      "midi": 67,
      "hit": false,
      "t": 160660.58400000006,
      "d": 1864.6627708333253,
      "v": 104
    },
    {
      "midi": 43,
      "hit": false,
      "t": 160660.58400000006,
      "d": 1975.7160937500012,
      "v": 104
    },
    {
      "midi": 59,
      "hit": false,
      "t": 160660.58400000006,
      "d": 1975.7160937500012,
      "v": 104
    },
    {
      "midi": 50,
      "hit": false,
      "t": 162644.04800000007,
      "d": 3910.110020833381,
      "v": 97
    },
    {
      "midi": 62,
      "hit": false,
      "t": 162644.04800000007,
      "d": 3910.110020833381,
      "v": 101
    },
    {
      "midi": 66,
      "hit": false,
      "t": 162644.04800000007,
      "d": 3910.110020833381,
      "v": 100
    },
    {
      "midi": 69,
      "hit": false,
      "t": 162644.04800000007,
      "d": 3910.110020833381,
      "v": 99
    },
    {
      "midi": 78,
      "hit": false,
      "t": 164627.51200000008,
      "d": 741.2163645833498,
      "v": 108
    },
    {
      "midi": 79,
      "hit": false,
      "t": 164875.44500000007,
      "d": 245.3503645833407,
      "v": 108
    },
    {
      "midi": 74,
      "hit": false,
      "t": 165123.37800000008,
      "d": 493.2833645833598,
      "v": 108
    },
    {
      "midi": 78,
      "hit": false,
      "t": 165371.3110000001,
      "d": 245.3503645833407,
      "v": 108
    },
    {
      "midi": 74,
      "hit": false,
      "t": 165619.24400000012,
      "d": 989.1493645833398,
      "v": 108
    },
    {
      "midi": 67,
      "hit": false,
      "t": 166610.97600000014,
      "d": 1740.696270833345,
      "v": 106
    },
    {
      "midi": 64,
      "hit": false,
      "t": 166610.97600000014,
      "d": 1779.435802083346,
      "v": 106
    },
    {
      "midi": 60,
      "hit": false,
      "t": 166610.97600000014,
      "d": 1856.9148645833484,
      "v": 106
    },
    {
      "midi": 48,
      "hit": false,
      "t": 166610.97600000014,
      "d": 1952.472375000012,
      "v": 106
    },
    {
      "midi": 62,
      "hit": false,
      "t": 168594.44000000015,
      "d": 1820.7579687499965,
      "v": 106
    },
    {
      "midi": 67,
      "hit": false,
      "t": 168594.44000000015,
      "d": 1864.6627708333253,
      "v": 106
    },
    {
      "midi": 43,
      "hit": false,
      "t": 168594.44000000015,
      "d": 1975.7160937500012,
      "v": 106
    },
    {
      "midi": 59,
      "hit": false,
      "t": 168594.44000000015,
      "d": 1975.7160937500012,
      "v": 106
    },
    {
      "midi": 62,
      "hit": false,
      "t": 170577.90400000016,
      "d": 2918.3780208333337,
      "v": 104
    },
    {
      "midi": 66,
      "hit": false,
      "t": 170577.90400000016,
      "d": 3042.3445208333433,
      "v": 103
    },
    {
      "midi": 69,
      "hit": false,
      "t": 170577.90400000016,
      "d": 3414.244020833343,
      "v": 102
    },
    {
      "midi": 50,
      "hit": false,
      "t": 170577.90400000016,
      "d": 3910.110020833352,
      "v": 100
    },
    {
      "midi": 62,
      "hit": false,
      "t": 173553.10000000015,
      "d": 989.1493645833689,
      "v": 110
    },
    {
      "midi": 66,
      "hit": false,
      "t": 173801.03300000017,
      "d": 741.2163645833498,
      "v": 110
    },
    {
      "midi": 69,
      "hit": false,
      "t": 174048.96600000016,
      "d": 493.2833645833598,
      "v": 110
    },
    {
      "midi": 67,
      "hit": false,
      "t": 174544.8320000002,
      "d": 1740.696270833345,
      "v": 108
    },
    {
      "midi": 64,
      "hit": false,
      "t": 174544.8320000002,
      "d": 1779.435802083346,
      "v": 108
    },
    {
      "midi": 60,
      "hit": false,
      "t": 174544.8320000002,
      "d": 1856.9148645833484,
      "v": 108
    },
    {
      "midi": 48,
      "hit": false,
      "t": 174544.8320000002,
      "d": 1952.472375000012,
      "v": 108
    },
    {
      "midi": 62,
      "hit": false,
      "t": 176528.2960000002,
      "d": 1820.7579687499965,
      "v": 108
    },
    {
      "midi": 67,
      "hit": false,
      "t": 176528.2960000002,
      "d": 1864.6627708333253,
      "v": 108
    },
    {
      "midi": 43,
      "hit": false,
      "t": 176528.2960000002,
      "d": 1975.7160937500012,
      "v": 108
    },
    {
      "midi": 59,
      "hit": false,
      "t": 176528.2960000002,
      "d": 1975.7160937500012,
      "v": 108
    },
    {
      "midi": 62,
      "hit": false,
      "t": 178511.7600000002,
      "d": 3166.3110208333237,
      "v": 106
    },
    {
      "midi": 69,
      "hit": false,
      "t": 178511.7600000002,
      "d": 3414.2440208333137,
      "v": 104
    },
    {
      "midi": 50,
      "hit": false,
      "t": 178511.7600000002,
      "d": 3910.110020833323,
      "v": 102
    },
    {
      "midi": 66,
      "hit": false,
      "t": 178511.7600000002,
      "d": 3910.110020833323,
      "v": 105
    },
    {
      "midi": 62,
      "hit": false,
      "t": 181734.8890000002,
      "d": 741.2163645833498,
      "v": 111
    },
    {
      "midi": 69,
      "hit": false,
      "t": 181982.8220000002,
      "d": 493.2833645833598,
      "v": 111
    },
    {
      "midi": 67,
      "hit": false,
      "t": 182478.68800000023,
      "d": 1740.696270833345,
      "v": 110
    },
    {
      "midi": 64,
      "hit": false,
      "t": 182478.68800000023,
      "d": 1779.435802083346,
      "v": 110
    },
    {
      "midi": 60,
      "hit": false,
      "t": 182478.68800000023,
      "d": 1856.9148645833484,
      "v": 110
    },
    {
      "midi": 48,
      "hit": false,
      "t": 182478.68800000023,
      "d": 1952.472375000012,
      "v": 110
    },
    {
      "midi": 43,
      "hit": false,
      "t": 184462.15200000023,
      "d": 1647.7213958333305,
      "v": 110
    },
    {
      "midi": 59,
      "hit": false,
      "t": 184462.15200000023,
      "d": 1647.7213958333305,
      "v": 110
    },
    {
      "midi": 62,
      "hit": false,
      "t": 184462.15200000023,
      "d": 1647.7213958333305,
      "v": 110
    },
    {
      "midi": 67,
      "hit": false,
      "t": 184462.15200000023,
      "d": 1647.7213958333305,
      "v": 110
    },
    {
      "midi": 50,
      "hit": false,
      "t": 186197.68300000022,
      "d": 612.0845937500126,
      "v": 107
    },
    {
      "midi": 62,
      "hit": false,
      "t": 186197.68300000022,
      "d": 612.0845937500126,
      "v": 107
    },
    {
      "midi": 66,
      "hit": false,
      "t": 186197.68300000022,
      "d": 612.0845937500126,
      "v": 106
    },
    {
      "midi": 69,
      "hit": false,
      "t": 186197.68300000022,
      "d": 612.0845937500126,
      "v": 105
    }
  ]
}