{
  "jsonPath": "Soundtracks/Broadway/Andrew Lloyd Webber/mrmistoffelees.json",
  "path": "Soundtracks\\Broadway\\Andrew Lloyd Webber\\MrMistoffelees.mid",
  "name": "MrMistoffelees",
  "difficulty": "Advanced",
  "bpm": 100,
  "notes": [
    {
      "midi": 60,
      "hit": false,
      "t": 1800,
      "d": 600,
      "v": 70
    },
    {
      "midi": 60,
      "hit": false,
      "t": 2400,
      "d": 300,
      "v": 73
    },
    {
      "midi": 48,
      "hit": false,
      "t": 2400,
      "d": 2400,
      "v": 70
    },
    {
      "midi": 52,
      "hit": false,
      "t": 2400,
      "d": 2400,
      "v": 70
    },
    {
      "midi": 55,
      "hit": false,
      "t": 2400,
      "d": 2400,
      "v": 70
    },
    {
      "midi": 60,
      "hit": false,
      "t": 2700,
      "d": 300,
      "v": 76
    },
    {
      "midi": 60,
      "hit": false,
      "t": 3000,
      "d": 600,
      "v": 82
    },
    {
      "midi": 60,
      "hit": false,
      "t": 3600,
      "d": 300,
      "v": 80
    },
    {
      "midi": 60,
      "hit": false,
      "t": 3900,
      "d": 600,
      "v": 78
    },
    {
      "midi": 60,
      "hit": false,
      "t": 4500,
      "d": 300,
      "v": 75
    },
    {
      "midi": 64,
      "hit": false,
      "t": 4800,
      "d": 300,
      "v": 84
    },
    {
      "midi": 52,
      "hit": false,
      "t": 4800,
      "d": 2400,
      "v": 89
    },
    {
      "midi": 55,
      "hit": false,
      "t": 4800,
      "d": 2400,
      "v": 89
    },
    {
      "midi": 60,
      "hit": false,
      "t": 4800,
      "d": 2400,
      "v": 89
    },
    {
      "midi": 64,
      "hit": false,
      "t": 5100,
      "d": 300,
      "v": 78
    },
    {
      "midi": 64,
      "hit": false,
      "t": 5400,
      "d": 600,
      "v": 79
    },
    {
      "midi": 64,
      "hit": false,
      "t": 6000,
      "d": 900,
      "v": 77
    },
    {
      "midi": 64,
      "hit": false,
      "t": 6900,
      "d": 300,
      "v": 77
    },
    {
      "midi": 67,
      "hit": false,
      "t": 7200,
      "d": 300,
      "v": 85
    },
    {
      "midi": 55,
      "hit": false,
      "t": 7200,
      "d": 2400,
      "v": 85
    },
    {
      "midi": 60,
      "hit": false,
      "t": 7200,
      "d": 2400,
      "v": 85
    },
    {
      "midi": 64,
      "hit": false,
      "t": 7200,
      "d": 2400,
      "v": 85
    },
    {
      "midi": 67,
      "hit": false,
      "t": 7500,
      "d": 300,
      "v": 77
    },
    {
      "midi": 67,
      "hit": false,
      "t": 7800,
      "d": 600,
      "v": 74
    },
    {
      "midi": 67,
      "hit": false,
      "t": 8400,
      "d": 300,
      "v": 76
    },
    {
      "midi": 67,
      "hit": false,
      "t": 8700,
      "d": 300,
      "v": 78
    },
    {
      "midi": 67,
      "hit": false,
      "t": 9000,
      "d": 600,
      "v": 73
    },
    {
      "midi": 70,
      "hit": false,
      "t": 9600,
      "d": 300,
      "v": 81
    },
    {
      "midi": 60,
      "hit": false,
      "t": 9600,
      "d": 2400,
      "v": 86
    },
    {
      "midi": 64,
      "hit": false,
      "t": 9600,
      "d": 2400,
      "v": 86
    },
    {
      "midi": 67,
      "hit": false,
      "t": 9600,
      "d": 2400,
      "v": 86
    },
    {
      "midi": 70,
      "hit": false,
      "t": 9900,
      "d": 300,
      "v": 75
    },
    {
      "midi": 70,
      "hit": false,
      "t": 10200,
      "d": 600,
      "v": 77
    },
    {
      "midi": 70,
      "hit": false,
      "t": 10800,
      "d": 2400,
      "v": 80
    },
    {
      "midi": 48,
      "hit": false,
      "t": 12000,
      "d": 2400,
      "v": 66
    },
    {
      "midi": 60,
      "hit": false,
      "t": 13200,
      "d": 600,
      "v": 54
    },
    {
      "midi": 60,
      "hit": false,
      "t": 13800,
      "d": 600,
      "v": 68
    },
    {
      "midi": 62,
      "hit": false,
      "t": 14400,
      "d": 1200,
      "v": 81
    },
    {
      "midi": 50,
      "hit": false,
      "t": 14400,
      "d": 1200,
      "v": 76
    },
    {
      "midi": 60,
      "hit": false,
      "t": 15600,
      "d": 1200,
      "v": 74
    },
    {
      "midi": 48,
      "hit": false,
      "t": 15600,
      "d": 1200,
      "v": 75
    },
    {
      "midi": 65,
      "hit": false,
      "t": 16800,
      "d": 1200,
      "v": 97
    },
    {
      "midi": 69,
      "hit": false,
      "t": 16800,
      "d": 1200,
      "v": 97
    },
    {
      "midi": 72,
      "hit": false,
      "t": 16800,
      "d": 1200,
      "v": 97
    },
    {
      "midi": 41,
      "hit": false,
      "t": 16800,
      "d": 600,
      "v": 69
    },
    {
      "midi": 41,
      "hit": false,
      "t": 17400,
      "d": 1200,
      "v": 74
    },
    {
      "midi": 65,
      "hit": false,
      "t": 18000,
      "d": 900,
      "v": 80
    },
    {
      "midi": 69,
      "hit": false,
      "t": 18000,
      "d": 900,
      "v": 80
    },
    {
      "midi": 72,
      "hit": false,
      "t": 18000,
      "d": 900,
      "v": 80
    },
    {
      "midi": 41,
      "hit": false,
      "t": 18600,
      "d": 600,
      "v": 77
    },
    {
      "midi": 72,
      "hit": false,
      "t": 18900,
      "d": 300,
      "v": 78
    },
    {
      "midi": 64,
      "hit": false,
      "t": 19200,
      "d": 600,
      "v": 69
    },
    {
      "midi": 67,
      "hit": false,
      "t": 19200,
      "d": 600,
      "v": 69
    },
    {
      "midi": 72,
      "hit": false,
      "t": 19200,
      "d": 600,
      "v": 77
    },
    {
      "midi": 40,
      "hit": false,
      "t": 19200,
      "d": 1800,
      "v": 72
    },
    {
      "midi": 72,
      "hit": false,
      "t": 19800,
      "d": 600,
      "v": 78
    },
    {
      "midi": 64,
      "hit": false,
      "t": 20400,
      "d": 300,
      "v": 74
    },
    {
      "midi": 67,
      "hit": false,
      "t": 20400,
      "d": 300,
      "v": 74
    },
    {
      "midi": 72,
      "hit": false,
      "t": 20400,
      "d": 300,
      "v": 76
    },
    {
      "midi": 70,
      "hit": false,
      "t": 20700,
      "d": 300,
      "v": 74
    },
    {
      "midi": 69,
      "hit": false,
      "t": 21000,
      "d": 600,
      "v": 73
    },
    {
      "midi": 41,
      "hit": false,
      "t": 21000,
      "d": 600,
      "v": 79
    },
    {
      "midi": 62,
      "hit": false,
      "t": 21600,
      "d": 1200,
      "v": 81
    },
    {
      "midi": 65,
      "hit": false,
      "t": 21600,
      "d": 1200,
      "v": 81
    },
    {
      "midi": 70,
      "hit": false,
      "t": 21600,
      "d": 1200,
      "v": 81
    },
    {
      "midi": 43,
      "hit": false,
      "t": 21600,
      "d": 600,
      "v": 80
    },
    {
      "midi": 43,
      "hit": false,
      "t": 22200,
      "d": 1200,
      "v": 80
    },
    {
      "midi": 62,
      "hit": false,
      "t": 22800,
      "d": 900,
      "v": 68
    },
    {
      "midi": 65,
      "hit": false,
      "t": 22800,
      "d": 900,
      "v": 68
    },
    {
      "midi": 70,
      "hit": false,
      "t": 22800,
      "d": 900,
      "v": 75
    },
    {
      "midi": 43,
      "hit": false,
      "t": 23400,
      "d": 600,
      "v": 75
    },
    {
      "midi": 70,
      "hit": false,
      "t": 23700,
      "d": 300,
      "v": 77
    },
    {
      "midi": 64,
      "hit": false,
      "t": 24000,
      "d": 600,
      "v": 77
    },
    {
      "midi": 67,
      "hit": false,
      "t": 24000,
      "d": 600,
      "v": 77
    },
    {
      "midi": 70,
      "hit": false,
      "t": 24000,
      "d": 600,
      "v": 77
    },
    {
      "midi": 36,
      "hit": false,
      "t": 24000,
      "d": 1800,
      "v": 68
    },
    {
      "midi": 70,
      "hit": false,
      "t": 24600,
      "d": 600,
      "v": 80
    },
    {
      "midi": 64,
      "hit": false,
      "t": 25200,
      "d": 300,
      "v": 79
    },
    {
      "midi": 70,
      "hit": false,
      "t": 25200,
      "d": 300,
      "v": 73
    },
    {
      "midi": 69,
      "hit": false,
      "t": 25500,
      "d": 300,
      "v": 70
    },
    {
      "midi": 67,
      "hit": false,
      "t": 25800,
      "d": 600,
      "v": 69
    },
    {
      "midi": 36,
      "hit": false,
      "t": 25800,
      "d": 600,
      "v": 71
    },
    {
      "midi": 65,
      "hit": false,
      "t": 26400,
      "d": 600,
      "v": 71
    },
    {
      "midi": 69,
      "hit": false,
      "t": 26400,
      "d": 600,
      "v": 84
    },
    {
      "midi": 41,
      "hit": false,
      "t": 26400,
      "d": 1800,
      "v": 81
    },
    {
      "midi": 72,
      "hit": false,
      "t": 27000,
      "d": 600,
      "v": 88
    },
    {
      "midi": 65,
      "hit": false,
      "t": 27600,
      "d": 1200,
      "v": 68
    },
    {
      "midi": 69,
      "hit": false,
      "t": 27600,
      "d": 1200,
      "v": 68
    },
    {
      "midi": 41,
      "hit": false,
      "t": 28200,
      "d": 600,
      "v": 78
    },
    {
      "midi": 60,
      "hit": false,
      "t": 28800,
      "d": 600,
      "v": 56
    },
    {
      "midi": 45,
      "hit": false,
      "t": 28800,
      "d": 1800,
      "v": 85
    },
    {
      "midi": 53,
      "hit": false,
      "t": 28800,
      "d": 1800,
      "v": 85
    },
    {
      "midi": 60,
      "hit": false,
      "t": 29400,
      "d": 600,
      "v": 71
    },
    {
      "midi": 60,
      "hit": false,
      "t": 30000,
      "d": 1200,
      "v": 70
    },
    {
      "midi": 45,
      "hit": false,
      "t": 30600,
      "d": 600,
      "v": 81
    },
    {
      "midi": 53,
      "hit": false,
      "t": 30600,
      "d": 600,
      "v": 81
    },
    {
      "midi": 62,
      "hit": false,
      "t": 31200,
      "d": 600,
      "v": 83
    },
    {
      "midi": 46,
      "hit": false,
      "t": 31200,
      "d": 1800,
      "v": 75
    },
    {
      "midi": 53,
      "hit": false,
      "t": 31200,
      "d": 1800,
      "v": 75
    },
    {
      "midi": 65,
      "hit": false,
      "t": 31800,
      "d": 600,
      "v": 85
    },
    {
      "midi": 62,
      "hit": false,
      "t": 32400,
      "d": 1200,
      "v": 69
    },
    {
      "midi": 46,
      "hit": false,
      "t": 33000,
      "d": 600,
      "v": 76
    },
    {
      "midi": 53,
      "hit": false,
      "t": 33000,
      "d": 600,
      "v": 76
    },
    {
      "midi": 58,
      "hit": false,
      "t": 33600,
      "d": 1200,
      "v": 71
    },
    {
      "midi": 62,
      "hit": false,
      "t": 33600,
      "d": 1200,
      "v": 78
    },
    {
      "midi": 48,
      "hit": false,
      "t": 33600,
      "d": 600,
      "v": 72
    },
    {
      "midi": 48,
      "hit": false,
      "t": 34200,
      "d": 1200,
      "v": 75
    },
    {
      "midi": 60,
      "hit": false,
      "t": 34800,
      "d": 1200,
      "v": 74
    },
    {
      "midi": 48,
      "hit": false,
      "t": 35400,
      "d": 600,
      "v": 79
    },
    {
      "midi": 65,
      "hit": false,
      "t": 36000,
      "d": 1200,
      "v": 100
    },
    {
      "midi": 69,
      "hit": false,
      "t": 36000,
      "d": 1200,
      "v": 100
    },
    {
      "midi": 72,
      "hit": false,
      "t": 36000,
      "d": 1200,
      "v": 100
    },
    {
      "midi": 41,
      "hit": false,
      "t": 36000,
      "d": 600,
      "v": 69
    },
    {
      "midi": 41,
      "hit": false,
      "t": 36600,
      "d": 1200,
      "v": 77
    },
    {
      "midi": 65,
      "hit": false,
      "t": 37200,
      "d": 900,
      "v": 79
    },
    {
      "midi": 69,
      "hit": false,
      "t": 37200,
      "d": 900,
      "v": 79
    },
    {
      "midi": 72,
      "hit": false,
      "t": 37200,
      "d": 900,
      "v": 79
    },
    {
      "midi": 41,
      "hit": false,
      "t": 37800,
      "d": 600,
      "v": 78
    },
    {
      "midi": 72,
      "hit": false,
      "t": 38100,
      "d": 300,
      "v": 77
    },
    {
      "midi": 64,
      "hit": false,
      "t": 38400,
      "d": 600,
      "v": 87
    },
    {
      "midi": 67,
      "hit": false,
      "t": 38400,
      "d": 600,
      "v": 87
    },
    {
      "midi": 72,
      "hit": false,
      "t": 38400,
      "d": 600,
      "v": 79
    },
    {
      "midi": 40,
      "hit": false,
      "t": 38400,
      "d": 1800,
      "v": 77
    },
    {
      "midi": 72,
      "hit": false,
      "t": 39000,
      "d": 600,
      "v": 77
    },
    {
      "midi": 64,
      "hit": false,
      "t": 39600,
      "d": 300,
      "v": 83
    },
    {
      "midi": 67,
      "hit": false,
      "t": 39600,
      "d": 300,
      "v": 83
    },
    {
      "midi": 72,
      "hit": false,
      "t": 39600,
      "d": 300,
      "v": 74
    },
    {
      "midi": 70,
      "hit": false,
      "t": 39900,
      "d": 300,
      "v": 72
    },
    {
      "midi": 69,
      "hit": false,
      "t": 40200,
      "d": 600,
      "v": 74
    },
    {
      "midi": 41,
      "hit": false,
      "t": 40200,
      "d": 600,
      "v": 81
    },
    {
      "midi": 62,
      "hit": false,
      "t": 40800,
      "d": 1200,
      "v": 78
    },
    {
      "midi": 65,
      "hit": false,
      "t": 40800,
      "d": 1200,
      "v": 78
    },
    {
      "midi": 70,
      "hit": false,
      "t": 40800,
      "d": 1200,
      "v": 78
    },
    {
      "midi": 43,
      "hit": false,
      "t": 40800,
      "d": 600,
      "v": 77
    },
    {
      "midi": 43,
      "hit": false,
      "t": 41400,
      "d": 1200,
      "v": 76
    },
    {
      "midi": 62,
      "hit": false,
      "t": 42000,
      "d": 900,
      "v": 69
    },
    {
      "midi": 65,
      "hit": false,
      "t": 42000,
      "d": 900,
      "v": 69
    },
    {
      "midi": 70,
      "hit": false,
      "t": 42000,
      "d": 900,
      "v": 74
    },
    {
      "midi": 43,
      "hit": false,
      "t": 42600,
      "d": 600,
      "v": 72
    },
    {
      "midi": 70,
      "hit": false,
      "t": 42900,
      "d": 300,
      "v": 77
    },
    {
      "midi": 64,
      "hit": false,
      "t": 43200,
      "d": 600,
      "v": 82
    },
    {
      "midi": 67,
      "hit": false,
      "t": 43200,
      "d": 600,
      "v": 82
    },
    {
      "midi": 70,
      "hit": false,
      "t": 43200,
      "d": 600,
      "v": 73
    },
    {
      "midi": 36,
      "hit": false,
      "t": 43200,
      "d": 1800,
      "v": 68
    },
    {
      "midi": 70,
      "hit": false,
      "t": 43800,
      "d": 600,
      "v": 79
    },
    {
      "midi": 64,
      "hit": false,
      "t": 44400,
      "d": 300,
      "v": 77
    },
    {
      "midi": 70,
      "hit": false,
      "t": 44400,
      "d": 300,
      "v": 77
    },
    {
      "midi": 69,
      "hit": false,
      "t": 44700,
      "d": 300,
      "v": 71
    },
    {
      "midi": 67,
      "hit": false,
      "t": 45000,
      "d": 600,
      "v": 76
    },
    {
      "midi": 36,
      "hit": false,
      "t": 45000,
      "d": 600,
      "v": 73
    },
    {
      "midi": 65,
      "hit": false,
      "t": 45600,
      "d": 600,
      "v": 72
    },
    {
      "midi": 69,
      "hit": false,
      "t": 45600,
      "d": 600,
      "v": 80
    },
    {
      "midi": 41,
      "hit": false,
      "t": 45600,
      "d": 1800,
      "v": 81
    },
    {
      "midi": 72,
      "hit": false,
      "t": 46200,
      "d": 600,
      "v": 86
    },
    {
      "midi": 65,
      "hit": false,
      "t": 46800,
      "d": 1200,
      "v": 68
    },
    {
      "midi": 69,
      "hit": false,
      "t": 46800,
      "d": 1200,
      "v": 68
    },
    {
      "midi": 41,
      "hit": false,
      "t": 47400,
      "d": 600,
      "v": 74
    },
    {
      "midi": 60,
      "hit": false,
      "t": 48000,
      "d": 600,
      "v": 55
    },
    {
      "midi": 45,
      "hit": false,
      "t": 48000,
      "d": 1800,
      "v": 85
    },
    {
      "midi": 53,
      "hit": false,
      "t": 48000,
      "d": 1800,
      "v": 85
    },
    {
      "midi": 60,
      "hit": false,
      "t": 48600,
      "d": 600,
      "v": 73
    },
    {
      "midi": 60,
      "hit": false,
      "t": 49200,
      "d": 1200,
      "v": 75
    },
    {
      "midi": 45,
      "hit": false,
      "t": 49800,
      "d": 600,
      "v": 80
    },
    {
      "midi": 53,
      "hit": false,
      "t": 49800,
      "d": 600,
      "v": 80
    },
    {
      "midi": 62,
      "hit": false,
      "t": 50400,
      "d": 600,
      "v": 83
    },
    {
      "midi": 46,
      "hit": false,
      "t": 50400,
      "d": 1800,
      "v": 79
    },
    {
      "midi": 53,
      "hit": false,
      "t": 50400,
      "d": 1800,
      "v": 79
    },
    {
      "midi": 65,
      "hit": false,
      "t": 51000,
      "d": 600,
      "v": 81
    },
    {
      "midi": 62,
      "hit": false,
      "t": 51600,
      "d": 1200,
      "v": 72
    },
    {
      "midi": 46,
      "hit": false,
      "t": 52200,
      "d": 600,
      "v": 76
    },
    {
      "midi": 53,
      "hit": false,
      "t": 52200,
      "d": 600,
      "v": 76
    },
    {
      "midi": 58,
      "hit": false,
      "t": 52800,
      "d": 1800,
      "v": 74
    },
    {
      "midi": 62,
      "hit": false,
      "t": 52800,
      "d": 1800,
      "v": 74
    },
    {
      "midi": 48,
      "hit": false,
      "t": 52800,
      "d": 600,
      "v": 76
    },
    {
      "midi": 48,
      "hit": false,
      "t": 53400,
      "d": 1200,
      "v": 79
    },
    {
      "midi": 48,
      "hit": false,
      "t": 54600,
      "d": 600,
      "v": 75
    },
    {
      "midi": 60,
      "hit": false,
      "t": 55200,
      "d": 600,
      "v": 66
    },
    {
      "midi": 48,
      "hit": false,
      "t": 55200,
      "d": 2400,
      "v": 82
    },
    {
      "midi": 52,
      "hit": false,
      "t": 55200,
      "d": 2400,
      "v": 82
    },
    {
      "midi": 55,
      "hit": false,
      "t": 55200,
      "d": 2400,
      "v": 82
    },
    {
      "midi": 60,
      "hit": false,
      "t": 55800,
      "d": 300,
      "v": 78
    },
    {
      "midi": 60,
      "hit": false,
      "t": 56100,
      "d": 300,
      "v": 74
    },
    {
      "midi": 60,
      "hit": false,
      "t": 56400,
      "d": 600,
      "v": 78
    },
    {
      "midi": 60,
      "hit": false,
      "t": 57000,
      "d": 300,
      "v": 80
    },
    {
      "midi": 60,
      "hit": false,
      "t": 57300,
      "d": 300,
      "v": 76
    },
    {
      "midi": 64,
      "hit": false,
      "t": 57600,
      "d": 300,
      "v": 84
    },
    {
      "midi": 52,
      "hit": false,
      "t": 57600,
      "d": 2400,
      "v": 93
    },
    {
      "midi": 55,
      "hit": false,
      "t": 57600,
      "d": 2400,
      "v": 93
    },
    {
      "midi": 60,
      "hit": false,
      "t": 57600,
      "d": 2400,
      "v": 93
    },
    {
      "midi": 64,
      "hit": false,
      "t": 57900,
      "d": 300,
      "v": 77
    },
    {
      "midi": 64,
      "hit": false,
      "t": 58200,
      "d": 600,
      "v": 73
    },
    {
      "midi": 64,
      "hit": false,
      "t": 58800,
      "d": 900,
      "v": 75
    },
    {
      "midi": 64,
      "hit": false,
      "t": 59700,
      "d": 300,
      "v": 74
    },
    {
      "midi": 67,
      "hit": false,
      "t": 60000,
      "d": 600,
      "v": 80
    },
    {
      "midi": 55,
      "hit": false,
      "t": 60000,
      "d": 2400,
      "v": 86
    },
    {
      "midi": 60,
      "hit": false,
      "t": 60000,
      "d": 2400,
      "v": 86
    },
    {
      "midi": 64,
      "hit": false,
      "t": 60000,
      "d": 2400,
      "v": 86
    },
    {
      "midi": 67,
      "hit": false,
      "t": 60600,
      "d": 300,
      "v": 79
    },
    {
      "midi": 67,
      "hit": false,
      "t": 60900,
      "d": 300,
      "v": 76
    },
    {
      "midi": 67,
      "hit": false,
      "t": 61200,
      "d": 300,
      "v": 77
    },
    {
      "midi": 67,
      "hit": false,
      "t": 61500,
      "d": 300,
      "v": 78
    },
    {
      "midi": 67,
      "hit": false,
      "t": 61800,
      "d": 600,
      "v": 79
    },
    {
      "midi": 70,
      "hit": false,
      "t": 62400,
      "d": 300,
      "v": 83
    },
    {
      "midi": 60,
      "hit": false,
      "t": 62400,
      "d": 2400,
      "v": 82
    },
    {
      "midi": 64,
      "hit": false,
      "t": 62400,
      "d": 2400,
      "v": 82
    },
    {
      "midi": 67,
      "hit": false,
      "t": 62400,
      "d": 2400,
      "v": 82
    },
    {
      "midi": 70,
      "hit": false,
      "t": 62700,
      "d": 300,
      "v": 76
    },
    {
      "midi": 70,
      "hit": false,
      "t": 63000,
      "d": 600,
      "v": 77
    },
    {
      "midi": 70,
      "hit": false,
      "t": 63600,
      "d": 2400,
      "v": 76
    },
    {
      "midi": 48,
      "hit": false,
      "t": 64800,
      "d": 2400,
      "v": 68
    },
    {
      "midi": 60,
      "hit": false,
      "t": 66000,
      "d": 600,
      "v": 58
    },
    {
      "midi": 60,
      "hit": false,
      "t": 66600,
      "d": 600,
      "v": 72
    },
    {
      "midi": 62,
      "hit": false,
      "t": 67200,
      "d": 1200,
      "v": 81
    },
    {
      "midi": 50,
      "hit": false,
      "t": 67200,
      "d": 1200,
      "v": 80
    },
    {
      "midi": 60,
      "hit": false,
      "t": 68400,
      "d": 1200,
      "v": 72
    },
    {
      "midi": 48,
      "hit": false,
      "t": 68400,
      "d": 1200,
      "v": 77
    },
    {
      "midi": 41,
      "hit": false,
      "t": 69600,
      "d": 4800,
      "v": 72
    },
    {
      "midi": 65,
      "hit": false,
      "t": 70200,
      "d": 300,
      "v": 74
    },
    {
      "midi": 69,
      "hit": false,
      "t": 70200,
      "d": 300,
      "v": 74
    },
    {
      "midi": 72,
      "hit": false,
      "t": 70200,
      "d": 300,
      "v": 74
    },
    {
      "midi": 65,
      "hit": false,
      "t": 70500,
      "d": 300,
      "v": 72
    },
    {
      "midi": 69,
      "hit": false,
      "t": 70500,
      "d": 300,
      "v": 72
    },
    {
      "midi": 72,
      "hit": false,
      "t": 70500,
      "d": 300,
      "v": 72
    },
    {
      "midi": 69,
      "hit": false,
      "t": 70800,
      "d": 600,
      "v": 84
    },
    {
      "midi": 72,
      "hit": false,
      "t": 70800,
      "d": 600,
      "v": 84
    },
    {
      "midi": 77,
      "hit": false,
      "t": 70800,
      "d": 600,
      "v": 84
    },
    {
      "midi": 72,
      "hit": false,
      "t": 71400,
      "d": 600,
      "v": 87
    },
    {
      "midi": 77,
      "hit": false,
      "t": 71400,
      "d": 600,
      "v": 87
    },
    {
      "midi": 81,
      "hit": false,
      "t": 71400,
      "d": 600,
      "v": 87
    },
    {
      "midi": 77,
      "hit": false,
      "t": 72000,
      "d": 600,
      "v": 84
    },
    {
      "midi": 81,
      "hit": false,
      "t": 72000,
      "d": 600,
      "v": 84
    },
    {
      "midi": 84,
      "hit": false,
      "t": 72000,
      "d": 600,
      "v": 84
    },
    {
      "midi": 72,
      "hit": false,
      "t": 72600,
      "d": 600,
      "v": 70
    },
    {
      "midi": 77,
      "hit": false,
      "t": 72600,
      "d": 600,
      "v": 70
    },
    {
      "midi": 81,
      "hit": false,
      "t": 72600,
      "d": 600,
      "v": 70
    },
    {
      "midi": 69,
      "hit": false,
      "t": 73200,
      "d": 600,
      "v": 64
    },
    {
      "midi": 72,
      "hit": false,
      "t": 73200,
      "d": 600,
      "v": 64
    },
    {
      "midi": 77,
      "hit": false,
      "t": 73200,
      "d": 600,
      "v": 64
    },
    {
      "midi": 65,
      "hit": false,
      "t": 73800,
      "d": 600,
      "v": 62
    },
    {
      "midi": 69,
      "hit": false,
      "t": 73800,
      "d": 600,
      "v": 62
    },
    {
      "midi": 72,
      "hit": false,
      "t": 73800,
      "d": 600,
      "v": 62
    },
    {
      "midi": 69,
      "hit": false,
      "t": 74400,
      "d": 3600,
      "v": 83
    },
    {
      "midi": 72,
      "hit": false,
      "t": 74400,
      "d": 3600,
      "v": 83
    },
    {
      "midi": 77,
      "hit": false,
      "t": 74400,
      "d": 3600,
      "v": 83
    },
    {
      "midi": 41,
      "hit": false,
      "t": 74400,
      "d": 3600,
      "v": 80
    }
  ]
}