{
  "jsonPath": "Soundtracks/Broadway/Andrew Lloyd Webber/tell-me-on-a-sunday.json",
  "path": "Soundtracks\\Broadway\\Andrew Lloyd Webber\\Tell Me on a Sunday.mid",
  "name": "Tell Me on a Sunday",
  "difficulty": "Advanced",
  "bpm": 70.00007000007,
  "notes": [
    {
      "midi": 64,
      "hit": false,
      "t": 0,
      "d": 428.571,
      "v": 100
    },
    {
      "midi": 67,
      "hit": false,
      "t": 0,
      "d": 428.571,
      "v": 100
    },
    {
      "midi": 48,
      "hit": false,
      "t": 0,
      "d": 1714.284,
      "v": 100
    },
    {
      "midi": 58,
      "hit": false,
      "t": 0,
      "d": 1714.284,
      "v": 100
    },
    {
      "midi": 72,
      "hit": false,
      "t": 428.571,
      "d": 428.571,
      "v": 100
    },
    {
      "midi": 74,
      "hit": false,
      "t": 857.142,
      "d": 428.57100000000014,
      "v": 100
    },
    {
      "midi": 72,
      "hit": false,
      "t": 1285.7130000000002,
      "d": 428.5709999999999,
      "v": 100
    },
    {
      "midi": 69,
      "hit": false,
      "t": 1714.284,
      "d": 857.1420000000003,
      "v": 100
    },
    {
      "midi": 72,
      "hit": false,
      "t": 1714.284,
      "d": 857.1420000000003,
      "v": 100
    },
    {
      "midi": 53,
      "hit": false,
      "t": 1714.284,
      "d": 1714.284,
      "v": 100
    },
    {
      "midi": 60,
      "hit": false,
      "t": 1714.284,
      "d": 1714.284,
      "v": 100
    },
    {
      "midi": 65,
      "hit": false,
      "t": 2571.4260000000004,
      "d": 857.1419999999998,
      "v": 100
    },
    {
      "midi": 69,
      "hit": false,
      "t": 2571.4260000000004,
      "d": 857.1419999999998,
      "v": 100
    },
    {
      "midi": 62,
      "hit": false,
      "t": 3428.568,
      "d": 428.5709999999999,
      "v": 100
    },
    {
      "midi": 70,
      "hit": false,
      "t": 3428.568,
      "d": 428.5709999999999,
      "v": 100
    },
    {
      "midi": 55,
      "hit": false,
      "t": 3428.568,
      "d": 1714.2840000000006,
      "v": 100
    },
    {
      "midi": 58,
      "hit": false,
      "t": 3428.568,
      "d": 1714.2840000000006,
      "v": 100
    },
    {
      "midi": 69,
      "hit": false,
      "t": 3857.139,
      "d": 428.5709999999999,
      "v": 100
    },
    {
      "midi": 67,
      "hit": false,
      "t": 4285.71,
      "d": 642.8564999999999,
      "v": 100
    },
    {
      "midi": 62,
      "hit": false,
      "t": 4928.5665,
      "d": 214.28549999999996,
      "v": 100
    },
    {
      "midi": 64,
      "hit": false,
      "t": 5142.852,
      "d": 1714.2840000000006,
      "v": 100
    },
    {
      "midi": 67,
      "hit": false,
      "t": 5142.852,
      "d": 1714.2840000000006,
      "v": 100
    },
    {
      "midi": 48,
      "hit": false,
      "t": 5142.852000000001,
      "d": 1714.2839999999997,
      "v": 100
    },
    {
      "midi": 58,
      "hit": false,
      "t": 5142.852000000001,
      "d": 1714.2839999999997,
      "v": 100
    },
    {
      "midi": 64,
      "hit": false,
      "t": 6857.136,
      "d": 428.5709999999999,
      "v": 100
    },
    {
      "midi": 69,
      "hit": false,
      "t": 6857.136,
      "d": 428.5709999999999,
      "v": 100
    },
    {
      "midi": 57,
      "hit": false,
      "t": 6857.136,
      "d": 1714.2839999999997,
      "v": 100
    },
    {
      "midi": 60,
      "hit": false,
      "t": 6857.136,
      "d": 1714.2839999999997,
      "v": 100
    },
    {
      "midi": 72,
      "hit": false,
      "t": 7285.707,
      "d": 428.5709999999999,
      "v": 100
    },
    {
      "midi": 72,
      "hit": false,
      "t": 7714.278,
      "d": 428.5709999999999,
      "v": 100
    },
    {
      "midi": 74,
      "hit": false,
      "t": 8142.849,
      "d": 428.5709999999999,
      "v": 100
    },
    {
      "midi": 65,
      "hit": false,
      "t": 8571.42,
      "d": 428.5709999999999,
      "v": 100
    },
    {
      "midi": 69,
      "hit": false,
      "t": 8571.42,
      "d": 428.5709999999999,
      "v": 100
    },
    {
      "midi": 50,
      "hit": false,
      "t": 8571.42,
      "d": 1714.2839999999997,
      "v": 100
    },
    {
      "midi": 57,
      "hit": false,
      "t": 8571.42,
      "d": 1714.2839999999997,
      "v": 100
    },
    {
      "midi": 67,
      "hit": false,
      "t": 8999.991,
      "d": 428.5709999999999,
      "v": 100
    },
    {
      "midi": 62,
      "hit": false,
      "t": 9428.562,
      "d": 857.1419999999998,
      "v": 100
    },
    {
      "midi": 65,
      "hit": false,
      "t": 9428.562,
      "d": 857.1419999999998,
      "v": 100
    },
    {
      "midi": 62,
      "hit": false,
      "t": 10285.704,
      "d": 428.5709999999999,
      "v": 100
    },
    {
      "midi": 65,
      "hit": false,
      "t": 10285.704,
      "d": 428.5709999999999,
      "v": 100
    },
    {
      "midi": 46,
      "hit": false,
      "t": 10285.704,
      "d": 1714.2839999999997,
      "v": 100
    },
    {
      "midi": 58,
      "hit": false,
      "t": 10285.704,
      "d": 1714.2839999999997,
      "v": 100
    },
    {
      "midi": 65,
      "hit": false,
      "t": 10714.275,
      "d": 428.5709999999999,
      "v": 100
    },
    {
      "midi": 65,
      "hit": false,
      "t": 11142.846,
      "d": 428.5709999999999,
      "v": 100
    },
    {
      "midi": 62,
      "hit": false,
      "t": 11571.417,
      "d": 428.5709999999999,
      "v": 100
    },
    {
      "midi": 62,
      "hit": false,
      "t": 11999.988,
      "d": 857.1419999999998,
      "v": 100
    },
    {
      "midi": 65,
      "hit": false,
      "t": 11999.988,
      "d": 857.1419999999998,
      "v": 100
    },
    {
      "midi": 50,
      "hit": false,
      "t": 11999.988,
      "d": 1714.2839999999997,
      "v": 100
    },
    {
      "midi": 57,
      "hit": false,
      "t": 11999.988,
      "d": 1714.2839999999997,
      "v": 100
    },
    {
      "midi": 65,
      "hit": false,
      "t": 12857.13,
      "d": 428.5709999999999,
      "v": 100
    },
    {
      "midi": 76,
      "hit": false,
      "t": 12857.13,
      "d": 428.5709999999999,
      "v": 100
    },
    {
      "midi": 77,
      "hit": false,
      "t": 13285.701,
      "d": 428.5709999999999,
      "v": 100
    },
    {
      "midi": 62,
      "hit": false,
      "t": 13714.271999999999,
      "d": 642.8564999999999,
      "v": 100
    },
    {
      "midi": 69,
      "hit": false,
      "t": 13714.271999999999,
      "d": 642.8564999999999,
      "v": 100
    },
    {
      "midi": 55,
      "hit": false,
      "t": 13714.271999999999,
      "d": 1714.2839999999997,
      "v": 100
    },
    {
      "midi": 58,
      "hit": false,
      "t": 13714.271999999999,
      "d": 1714.2839999999997,
      "v": 100
    },
    {
      "midi": 67,
      "hit": false,
      "t": 14357.128499999999,
      "d": 214.28549999999996,
      "v": 100
    },
    {
      "midi": 67,
      "hit": false,
      "t": 14571.413999999999,
      "d": 857.1419999999998,
      "v": 100
    },
    {
      "midi": 64,
      "hit": false,
      "t": 15428.555999999999,
      "d": 857.1419999999998,
      "v": 100
    },
    {
      "midi": 57,
      "hit": false,
      "t": 15428.555999999999,
      "d": 1714.2840000000015,
      "v": 100
    },
    {
      "midi": 60,
      "hit": false,
      "t": 15428.555999999999,
      "d": 1714.2840000000015,
      "v": 100
    },
    {
      "midi": 76,
      "hit": false,
      "t": 16285.697999999999,
      "d": 428.57100000000173,
      "v": 100
    },
    {
      "midi": 77,
      "hit": false,
      "t": 16714.269,
      "d": 428.5709999999999,
      "v": 100
    },
    {
      "midi": 67,
      "hit": false,
      "t": 17142.84,
      "d": 857.1419999999998,
      "v": 100
    },
    {
      "midi": 69,
      "hit": false,
      "t": 17142.84,
      "d": 857.1419999999998,
      "v": 100
    },
    {
      "midi": 51,
      "hit": false,
      "t": 17142.84,
      "d": 1714.2839999999997,
      "v": 100
    },
    {
      "midi": 58,
      "hit": false,
      "t": 17142.84,
      "d": 1714.2839999999997,
      "v": 100
    },
    {
      "midi": 72,
      "hit": false,
      "t": 17999.982,
      "d": 428.5709999999999,
      "v": 100
    },
    {
      "midi": 70,
      "hit": false,
      "t": 18428.553,
      "d": 428.5709999999999,
      "v": 100
    },
    {
      "midi": 65,
      "hit": false,
      "t": 18857.124,
      "d": 857.1419999999998,
      "v": 100
    },
    {
      "midi": 50,
      "hit": false,
      "t": 18857.124,
      "d": 1714.2839999999997,
      "v": 100
    },
    {
      "midi": 67,
      "hit": false,
      "t": 19714.266,
      "d": 428.5709999999999,
      "v": 100
    },
    {
      "midi": 65,
      "hit": false,
      "t": 20142.837,
      "d": 428.5709999999999,
      "v": 100
    },
    {
      "midi": 69,
      "hit": false,
      "t": 20571.408,
      "d": 857.1419999999998,
      "v": 100
    },
    {
      "midi": 72,
      "hit": false,
      "t": 20571.408,
      "d": 857.1419999999998,
      "v": 100
    },
    {
      "midi": 53,
      "hit": false,
      "t": 20571.408,
      "d": 1714.2839999999997,
      "v": 100
    },
    {
      "midi": 65,
      "hit": false,
      "t": 21428.55,
      "d": 857.1419999999998,
      "v": 100
    },
    {
      "midi": 64,
      "hit": false,
      "t": 22285.692,
      "d": 1285.7129999999997,
      "v": 100
    },
    {
      "midi": 67,
      "hit": false,
      "t": 22285.692,
      "d": 1285.7129999999997,
      "v": 100
    },
    {
      "midi": 72,
      "hit": false,
      "t": 22285.692,
      "d": 1285.7129999999997,
      "v": 100
    },
    {
      "midi": 48,
      "hit": false,
      "t": 22285.692,
      "d": 1714.2839999999997,
      "v": 100
    },
    {
      "midi": 58,
      "hit": false,
      "t": 22285.692,
      "d": 1714.2839999999997,
      "v": 100
    },
    {
      "midi": 60,
      "hit": false,
      "t": 23571.405,
      "d": 428.5709999999999,
      "v": 100
    },
    {
      "midi": 58,
      "hit": false,
      "t": 23999.976,
      "d": 428.5709999999999,
      "v": 100
    },
    {
      "midi": 62,
      "hit": false,
      "t": 23999.976,
      "d": 428.5709999999999,
      "v": 100
    },
    {
      "midi": 46,
      "hit": false,
      "t": 23999.976,
      "d": 3428.5679999999993,
      "v": 100
    },
    {
      "midi": 53,
      "hit": false,
      "t": 23999.976,
      "d": 3428.5679999999993,
      "v": 100
    },
    {
      "midi": 65,
      "hit": false,
      "t": 24428.547,
      "d": 428.5709999999999,
      "v": 100
    },
    {
      "midi": 63,
      "hit": false,
      "t": 24857.118,
      "d": 428.5709999999999,
      "v": 100
    },
    {
      "midi": 67,
      "hit": false,
      "t": 24857.118,
      "d": 428.5709999999999,
      "v": 100
    },
    {
      "midi": 58,
      "hit": false,
      "t": 25285.689,
      "d": 1285.7129999999997,
      "v": 100
    },
    {
      "midi": 62,
      "hit": false,
      "t": 25285.689,
      "d": 1285.7129999999997,
      "v": 100
    },
    {
      "midi": 65,
      "hit": false,
      "t": 25285.689,
      "d": 1285.7129999999997,
      "v": 100
    },
    {
      "midi": 67,
      "hit": false,
      "t": 26571.402,
      "d": 428.5709999999999,
      "v": 100
    },
    {
      "midi": 65,
      "hit": false,
      "t": 26999.972999999998,
      "d": 428.5709999999999,
      "v": 100
    },
    {
      "midi": 69,
      "hit": false,
      "t": 27428.543999999998,
      "d": 857.1419999999998,
      "v": 100
    },
    {
      "midi": 72,
      "hit": false,
      "t": 27428.543999999998,
      "d": 857.1419999999998,
      "v": 100
    },
    {
      "midi": 53,
      "hit": false,
      "t": 27428.543999999998,
      "d": 1714.2839999999997,
      "v": 100
    },
    {
      "midi": 65,
      "hit": false,
      "t": 28285.685999999998,
      "d": 857.1419999999998,
      "v": 100
    },
    {
      "midi": 67,
      "hit": false,
      "t": 29142.827999999998,
      "d": 857.1419999999998,
      "v": 100
    },
    {
      "midi": 72,
      "hit": false,
      "t": 29142.827999999998,
      "d": 857.1419999999998,
      "v": 100
    },
    {
      "midi": 48,
      "hit": false,
      "t": 29142.827999999998,
      "d": 1714.2839999999997,
      "v": 100
    },
    {
      "midi": 58,
      "hit": false,
      "t": 29142.827999999998,
      "d": 1714.2839999999997,
      "v": 100
    },
    {
      "midi": 64,
      "hit": false,
      "t": 29999.969999999998,
      "d": 857.1419999999998,
      "v": 100
    },
    {
      "midi": 60,
      "hit": false,
      "t": 30857.111999999997,
      "d": 2571.426000000003,
      "v": 100
    },
    {
      "midi": 65,
      "hit": false,
      "t": 30857.111999999997,
      "d": 2571.426000000003,
      "v": 100
    },
    {
      "midi": 53,
      "hit": false,
      "t": 30857.111999999997,
      "d": 2571.426000000003,
      "v": 100
    },
    {
      "midi": 57,
      "hit": false,
      "t": 30857.111999999997,
      "d": 2571.426000000003,
      "v": 100
    },
    {
      "midi": 60,
      "hit": false,
      "t": 34285.68,
      "d": 2571.4259999999995,
      "v": 100
    },
    {
      "midi": 65,
      "hit": false,
      "t": 34285.68,
      "d": 2571.4259999999995,
      "v": 100
    },
    {
      "midi": 53,
      "hit": false,
      "t": 34285.68,
      "d": 2571.4259999999995,
      "v": 100
    },
    {
      "midi": 57,
      "hit": false,
      "t": 34285.68,
      "d": 2571.4259999999995,
      "v": 100
    },
    {
      "midi": 69,
      "hit": false,
      "t": 37285.677,
      "d": 428.57100000000355,
      "v": 100
    },
    {
      "midi": 51,
      "hit": false,
      "t": 37714.248,
      "d": 1714.2839999999997,
      "v": 100
    },
    {
      "midi": 58,
      "hit": false,
      "t": 37714.248,
      "d": 1714.2839999999997,
      "v": 100
    },
    {
      "midi": 67,
      "hit": false,
      "t": 37714.24800000001,
      "d": 428.57100000000355,
      "v": 100
    },
    {
      "midi": 69,
      "hit": false,
      "t": 37714.24800000001,
      "d": 428.57100000000355,
      "v": 100
    },
    {
      "midi": 70,
      "hit": false,
      "t": 38142.81900000001,
      "d": 428.57100000000355,
      "v": 100
    },
    {
      "midi": 70,
      "hit": false,
      "t": 38571.390000000014,
      "d": 857.1419999999998,
      "v": 100
    },
    {
      "midi": 50,
      "hit": false,
      "t": 39428.532,
      "d": 1714.2839999999997,
      "v": 100
    },
    {
      "midi": 58,
      "hit": false,
      "t": 39428.532,
      "d": 1714.2839999999997,
      "v": 100
    },
    {
      "midi": 65,
      "hit": false,
      "t": 39428.532000000014,
      "d": 428.57100000000355,
      "v": 100
    },
    {
      "midi": 72,
      "hit": false,
      "t": 39428.532000000014,
      "d": 428.57100000000355,
      "v": 100
    },
    {
      "midi": 70,
      "hit": false,
      "t": 39857.10300000002,
      "d": 428.57100000000355,
      "v": 100
    },
    {
      "midi": 70,
      "hit": false,
      "t": 40285.67400000002,
      "d": 857.1419999999998,
      "v": 100
    },
    {
      "midi": 49,
      "hit": false,
      "t": 41142.816,
      "d": 1714.2839999999997,
      "v": 100
    },
    {
      "midi": 58,
      "hit": false,
      "t": 41142.816,
      "d": 1714.2839999999997,
      "v": 100
    },
    {
      "midi": 65,
      "hit": false,
      "t": 41142.81600000002,
      "d": 428.57100000000355,
      "v": 100
    },
    {
      "midi": 69,
      "hit": false,
      "t": 41142.81600000002,
      "d": 428.57100000000355,
      "v": 100
    },
    {
      "midi": 70,
      "hit": false,
      "t": 41571.387000000024,
      "d": 428.57100000000355,
      "v": 100
    },
    {
      "midi": 70,
      "hit": false,
      "t": 41999.95800000003,
      "d": 857.1419999999998,
      "v": 100
    },
    {
      "midi": 48,
      "hit": false,
      "t": 42857.1,
      "d": 1714.2839999999997,
      "v": 100
    },
    {
      "midi": 53,
      "hit": false,
      "t": 42857.1,
      "d": 1714.2839999999997,
      "v": 100
    },
    {
      "midi": 65,
      "hit": false,
      "t": 42857.10000000003,
      "d": 428.57100000000355,
      "v": 100
    },
    {
      "midi": 67,
      "hit": false,
      "t": 42857.10000000003,
      "d": 428.57100000000355,
      "v": 100
    },
    {
      "midi": 69,
      "hit": false,
      "t": 43285.67100000003,
      "d": 428.57100000000355,
      "v": 100
    },
    {
      "midi": 72,
      "hit": false,
      "t": 44142.81300000004,
      "d": 428.57100000000355,
      "v": 100
    },
    {
      "midi": 58,
      "hit": false,
      "t": 44571.384,
      "d": 857.1419999999998,
      "v": 100
    },
    {
      "midi": 65,
      "hit": false,
      "t": 44571.384,
      "d": 857.1419999999998,
      "v": 100
    },
    {
      "midi": 70,
      "hit": false,
      "t": 44571.38400000004,
      "d": 428.57100000000355,
      "v": 100
    },
    {
      "midi": 73,
      "hit": false,
      "t": 44571.38400000004,
      "d": 428.57100000000355,
      "v": 100
    },
    {
      "midi": 74,
      "hit": false,
      "t": 44999.955000000045,
      "d": 428.57100000000355,
      "v": 100
    },
    {
      "midi": 58,
      "hit": false,
      "t": 45428.526,
      "d": 857.1419999999998,
      "v": 100
    },
    {
      "midi": 62,
      "hit": false,
      "t": 45428.526,
      "d": 857.1419999999998,
      "v": 100
    },
    {
      "midi": 77,
      "hit": false,
      "t": 45428.52600000005,
      "d": 857.1419999999998,
      "v": 100
    },
    {
      "midi": 63,
      "hit": false,
      "t": 46285.668,
      "d": 857.1419999999998,
      "v": 100
    },
    {
      "midi": 67,
      "hit": false,
      "t": 46285.66800000005,
      "d": 428.57100000000355,
      "v": 100
    },
    {
      "midi": 69,
      "hit": false,
      "t": 46285.66800000005,
      "d": 428.57100000000355,
      "v": 100
    },
    {
      "midi": 70,
      "hit": false,
      "t": 46714.23900000005,
      "d": 428.57100000000355,
      "v": 100
    },
    {
      "midi": 51,
      "hit": false,
      "t": 47142.81,
      "d": 857.1419999999998,
      "v": 100
    },
    {
      "midi": 58,
      "hit": false,
      "t": 47142.81,
      "d": 857.1419999999998,
      "v": 100
    },
    {
      "midi": 63,
      "hit": false,
      "t": 47142.810000000056,
      "d": 857.1419999999998,
      "v": 100
    },
    {
      "midi": 67,
      "hit": false,
      "t": 47142.810000000056,
      "d": 857.1419999999998,
      "v": 100
    },
    {
      "midi": 62,
      "hit": false,
      "t": 47999.952,
      "d": 857.1419999999998,
      "v": 100
    },
    {
      "midi": 65,
      "hit": false,
      "t": 47999.952000000056,
      "d": 428.57100000000355,
      "v": 100
    },
    {
      "midi": 69,
      "hit": false,
      "t": 47999.952000000056,
      "d": 428.57100000000355,
      "v": 100
    },
    {
      "midi": 74,
      "hit": false,
      "t": 48428.52300000006,
      "d": 428.57100000000355,
      "v": 100
    },
    {
      "midi": 57,
      "hit": false,
      "t": 48857.094,
      "d": 857.1419999999998,
      "v": 100
    },
    {
      "midi": 62,
      "hit": false,
      "t": 48857.094,
      "d": 857.1419999999998,
      "v": 100
    },
    {
      "midi": 77,
      "hit": false,
      "t": 48857.09400000006,
      "d": 428.57100000000355,
      "v": 100
    },
    {
      "midi": 69,
      "hit": false,
      "t": 49285.665000000066,
      "d": 428.57100000000355,
      "v": 100
    },
    {
      "midi": 58,
      "hit": false,
      "t": 49714.236,
      "d": 857.1419999999998,
      "v": 100
    },
    {
      "midi": 64,
      "hit": false,
      "t": 49714.23600000007,
      "d": 428.57100000000355,
      "v": 100
    },
    {
      "midi": 67,
      "hit": false,
      "t": 49714.23600000007,
      "d": 428.57100000000355,
      "v": 100
    },
    {
      "midi": 72,
      "hit": false,
      "t": 50142.80700000007,
      "d": 428.57100000000355,
      "v": 100
    },
    {
      "midi": 48,
      "hit": false,
      "t": 50571.378,
      "d": 857.1419999999998,
      "v": 100
    },
    {
      "midi": 58,
      "hit": false,
      "t": 50571.378,
      "d": 857.1419999999998,
      "v": 100
    },
    {
      "midi": 48,
      "hit": false,
      "t": 51428.52,
      "d": 1714.2839999999997,
      "v": 100
    },
    {
      "midi": 58,
      "hit": false,
      "t": 51428.52,
      "d": 1714.2839999999997,
      "v": 100
    },
    {
      "midi": 64,
      "hit": false,
      "t": 51428.52000000008,
      "d": 857.1419999999998,
      "v": 100
    },
    {
      "midi": 67,
      "hit": false,
      "t": 51428.52000000008,
      "d": 857.1419999999998,
      "v": 100
    },
    {
      "midi": 72,
      "hit": false,
      "t": 51428.52000000008,
      "d": 857.1419999999998,
      "v": 100
    },
    {
      "midi": 74,
      "hit": false,
      "t": 52285.66200000008,
      "d": 428.57100000000355,
      "v": 100
    },
    {
      "midi": 72,
      "hit": false,
      "t": 52714.23300000008,
      "d": 428.57100000000355,
      "v": 100
    },
    {
      "midi": 53,
      "hit": false,
      "t": 53142.804,
      "d": 1714.2839999999997,
      "v": 100
    },
    {
      "midi": 60,
      "hit": false,
      "t": 53142.804,
      "d": 1714.2839999999997,
      "v": 100
    },
    {
      "midi": 69,
      "hit": false,
      "t": 53142.804000000084,
      "d": 857.1419999999998,
      "v": 100
    },
    {
      "midi": 77,
      "hit": false,
      "t": 53142.804000000084,
      "d": 857.1419999999998,
      "v": 100
    },
    {
      "midi": 69,
      "hit": false,
      "t": 53999.94600000008,
      "d": 857.1419999999998,
      "v": 100
    },
    {
      "midi": 72,
      "hit": false,
      "t": 53999.94600000008,
      "d": 857.1419999999998,
      "v": 100
    },
    {
      "midi": 55,
      "hit": false,
      "t": 54857.087999999996,
      "d": 1714.2839999999997,
      "v": 100
    },
    {
      "midi": 58,
      "hit": false,
      "t": 54857.087999999996,
      "d": 1714.2839999999997,
      "v": 100
    },
    {
      "midi": 62,
      "hit": false,
      "t": 54857.08800000008,
      "d": 428.57100000000355,
      "v": 100
    },
    {
      "midi": 70,
      "hit": false,
      "t": 54857.08800000008,
      "d": 428.57100000000355,
      "v": 100
    },
    {
      "midi": 69,
      "hit": false,
      "t": 55285.65900000009,
      "d": 428.57100000000355,
      "v": 100
    },
    {
      "midi": 67,
      "hit": false,
      "t": 55714.23000000009,
      "d": 642.8565000000017,
      "v": 100
    },
    {
      "midi": 62,
      "hit": false,
      "t": 56357.08650000009,
      "d": 214.28549999999814,
      "v": 100
    },
    {
      "midi": 48,
      "hit": false,
      "t": 56571.371999999996,
      "d": 1714.2839999999997,
      "v": 100
    },
    {
      "midi": 58,
      "hit": false,
      "t": 56571.371999999996,
      "d": 1714.2839999999997,
      "v": 100
    },
    {
      "midi": 64,
      "hit": false,
      "t": 56571.37200000009,
      "d": 1714.2839999999997,
      "v": 100
    },
    {
      "midi": 67,
      "hit": false,
      "t": 56571.37200000009,
      "d": 1714.2839999999997,
      "v": 100
    },
    {
      "midi": 57,
      "hit": false,
      "t": 58285.655999999995,
      "d": 1714.2839999999997,
      "v": 100
    },
    {
      "midi": 60,
      "hit": false,
      "t": 58285.655999999995,
      "d": 1714.2839999999997,
      "v": 100
    },
    {
      "midi": 64,
      "hit": false,
      "t": 58285.65600000009,
      "d": 428.57100000000355,
      "v": 100
    },
    {
      "midi": 69,
      "hit": false,
      "t": 58285.65600000009,
      "d": 428.57100000000355,
      "v": 100
    },
    {
      "midi": 72,
      "hit": false,
      "t": 58714.22700000009,
      "d": 428.57100000000355,
      "v": 100
    },
    {
      "midi": 72,
      "hit": false,
      "t": 59142.7980000001,
      "d": 428.57100000000355,
      "v": 100
    },
    {
      "midi": 74,
      "hit": false,
      "t": 59571.3690000001,
      "d": 428.57100000000355,
      "v": 100
    },
    {
      "midi": 50,
      "hit": false,
      "t": 59999.939999999995,
      "d": 857.1419999999998,
      "v": 100
    },
    {
      "midi": 57,
      "hit": false,
      "t": 59999.939999999995,
      "d": 857.1419999999998,
      "v": 100
    },
    {
      "midi": 65,
      "hit": false,
      "t": 59999.940000000104,
      "d": 428.57100000000355,
      "v": 100
    },
    {
      "midi": 69,
      "hit": false,
      "t": 59999.940000000104,
      "d": 428.57100000000355,
      "v": 100
    },
    {
      "midi": 67,
      "hit": false,
      "t": 60428.51100000011,
      "d": 428.57100000000355,
      "v": 100
    },
    {
      "midi": 48,
      "hit": false,
      "t": 60857.081999999995,
      "d": 857.1419999999998,
      "v": 100
    },
    {
      "midi": 62,
      "hit": false,
      "t": 60857.08200000011,
      "d": 857.1419999999998,
      "v": 100
    },
    {
      "midi": 65,
      "hit": false,
      "t": 60857.08200000011,
      "d": 857.1419999999998,
      "v": 100
    },
    {
      "midi": 46,
      "hit": false,
      "t": 61714.223999999995,
      "d": 1714.2839999999997,
      "v": 100
    },
    {
      "midi": 58,
      "hit": false,
      "t": 61714.223999999995,
      "d": 1714.2839999999997,
      "v": 100
    },
    {
      "midi": 62,
      "hit": false,
      "t": 61714.22400000011,
      "d": 428.57100000000355,
      "v": 100
    },
    {
      "midi": 65,
      "hit": false,
      "t": 61714.22400000011,
      "d": 428.57100000000355,
      "v": 100
    },
    {
      "midi": 65,
      "hit": false,
      "t": 62142.795000000115,
      "d": 428.57100000000355,
      "v": 100
    },
    {
      "midi": 65,
      "hit": false,
      "t": 62571.36600000012,
      "d": 428.57100000000355,
      "v": 100
    },
    {
      "midi": 62,
      "hit": false,
      "t": 62999.93700000012,
      "d": 428.57100000000355,
      "v": 100
    },
    {
      "midi": 50,
      "hit": false,
      "t": 63428.507999999994,
      "d": 1714.2839999999997,
      "v": 100
    },
    {
      "midi": 57,
      "hit": false,
      "t": 63428.507999999994,
      "d": 1714.2839999999997,
      "v": 100
    },
    {
      "midi": 62,
      "hit": false,
      "t": 63428.508000000125,
      "d": 857.1419999999998,
      "v": 100
    },
    {
      "midi": 65,
      "hit": false,
      "t": 63428.508000000125,
      "d": 857.1419999999998,
      "v": 100
    },
    {
      "midi": 65,
      "hit": false,
      "t": 64285.650000000125,
      "d": 428.57100000000355,
      "v": 100
    },
    {
      "midi": 76,
      "hit": false,
      "t": 64285.650000000125,
      "d": 428.57100000000355,
      "v": 100
    },
    {
      "midi": 77,
      "hit": false,
      "t": 64714.22100000013,
      "d": 428.57100000000355,
      "v": 100
    },
    {
      "midi": 55,
      "hit": false,
      "t": 65142.791999999994,
      "d": 1714.284000000007,
      "v": 100
    },
    {
      "midi": 58,
      "hit": false,
      "t": 65142.791999999994,
      "d": 1714.284000000007,
      "v": 100
    },
    {
      "midi": 62,
      "hit": false,
      "t": 65142.79200000013,
      "d": 642.8564999999944,
      "v": 100
    },
    {
      "midi": 69,
      "hit": false,
      "t": 65142.79200000013,
      "d": 642.8564999999944,
      "v": 100
    },
    {
      "midi": 67,
      "hit": false,
      "t": 65785.64850000013,
      "d": 214.28549999999814,
      "v": 100
    },
    {
      "midi": 67,
      "hit": false,
      "t": 65999.93400000012,
      "d": 857.1420000000071,
      "v": 100
    },
    {
      "midi": 57,
      "hit": false,
      "t": 66857.076,
      "d": 1714.2839999999997,
      "v": 100
    },
    {
      "midi": 60,
      "hit": false,
      "t": 66857.076,
      "d": 1714.2839999999997,
      "v": 100
    },
    {
      "midi": 64,
      "hit": false,
      "t": 66857.07600000013,
      "d": 428.5709999999963,
      "v": 100
    },
    {
      "midi": 76,
      "hit": false,
      "t": 67285.64700000013,
      "d": 428.5709999999963,
      "v": 100
    },
    {
      "midi": 76,
      "hit": false,
      "t": 67714.21800000012,
      "d": 428.5709999999963,
      "v": 100
    },
    {
      "midi": 77,
      "hit": false,
      "t": 68142.78900000012,
      "d": 428.5709999999963,
      "v": 100
    },
    {
      "midi": 51,
      "hit": false,
      "t": 68571.36,
      "d": 1714.2839999999997,
      "v": 100
    },
    {
      "midi": 58,
      "hit": false,
      "t": 68571.36,
      "d": 1714.2839999999997,
      "v": 100
    },
    {
      "midi": 67,
      "hit": false,
      "t": 68571.36000000012,
      "d": 642.8564999999944,
      "v": 100
    },
    {
      "midi": 69,
      "hit": false,
      "t": 68571.36000000012,
      "d": 642.8564999999944,
      "v": 100
    },
    {
      "midi": 72,
      "hit": false,
      "t": 69214.21650000011,
      "d": 214.28549999999814,
      "v": 100
    },
    {
      "midi": 70,
      "hit": false,
      "t": 69428.50200000011,
      "d": 857.1420000000071,
      "v": 100
    },
    {
      "midi": 50,
      "hit": false,
      "t": 70285.644,
      "d": 1714.2839999999997,
      "v": 100
    },
    {
      "midi": 65,
      "hit": false,
      "t": 70285.64400000012,
      "d": 857.1420000000071,
      "v": 100
    },
    {
      "midi": 67,
      "hit": false,
      "t": 71142.78600000012,
      "d": 428.5709999999963,
      "v": 100
    },
    {
      "midi": 65,
      "hit": false,
      "t": 71571.35700000012,
      "d": 428.5709999999963,
      "v": 100
    },
    {
      "midi": 53,
      "hit": false,
      "t": 71999.928,
      "d": 1714.2839999999997,
      "v": 100
    },
    {
      "midi": 69,
      "hit": false,
      "t": 71999.92800000012,
      "d": 857.1420000000071,
      "v": 100
    },
    {
      "midi": 72,
      "hit": false,
      "t": 71999.92800000012,
      "d": 857.1420000000071,
      "v": 100
    },
    {
      "midi": 65,
      "hit": false,
      "t": 72857.07000000012,
      "d": 857.1420000000071,
      "v": 100
    },
    {
      "midi": 48,
      "hit": false,
      "t": 73714.212,
      "d": 1714.2839999999997,
      "v": 100
    },
    {
      "midi": 58,
      "hit": false,
      "t": 73714.212,
      "d": 1714.2839999999997,
      "v": 100
    },
    {
      "midi": 64,
      "hit": false,
      "t": 73714.21200000013,
      "d": 857.1420000000071,
      "v": 100
    },
    {
      "midi": 67,
      "hit": false,
      "t": 73714.21200000013,
      "d": 857.1420000000071,
      "v": 100
    },
    {
      "midi": 72,
      "hit": false,
      "t": 73714.21200000013,
      "d": 857.1420000000071,
      "v": 100
    },
    {
      "midi": 60,
      "hit": false,
      "t": 74571.35400000014,
      "d": 428.5709999999963,
      "v": 100
    },
    {
      "midi": 60,
      "hit": false,
      "t": 74999.92500000013,
      "d": 428.5709999999963,
      "v": 100
    },
    {
      "midi": 46,
      "hit": false,
      "t": 75428.496,
      "d": 3428.5679999999993,
      "v": 100
    },
    {
      "midi": 53,
      "hit": false,
      "t": 75428.496,
      "d": 3428.5679999999993,
      "v": 100
    },
    {
      "midi": 58,
      "hit": false,
      "t": 75428.49600000013,
      "d": 428.5709999999963,
      "v": 100
    },
    {
      "midi": 62,
      "hit": false,
      "t": 75428.49600000013,
      "d": 428.5709999999963,
      "v": 100
    },
    {
      "midi": 65,
      "hit": false,
      "t": 75857.06700000013,
      "d": 428.5709999999963,
      "v": 100
    },
    {
      "midi": 63,
      "hit": false,
      "t": 76285.63800000012,
      "d": 428.5709999999963,
      "v": 100
    },
    {
      "midi": 67,
      "hit": false,
      "t": 76285.63800000012,
      "d": 428.5709999999963,
      "v": 100
    },
    {
      "midi": 58,
      "hit": false,
      "t": 76714.20900000012,
      "d": 1285.7130000000034,
      "v": 100
    },
    {
      "midi": 62,
      "hit": false,
      "t": 76714.20900000012,
      "d": 1285.7130000000034,
      "v": 100
    },
    {
      "midi": 65,
      "hit": false,
      "t": 76714.20900000012,
      "d": 1285.7130000000034,
      "v": 100
    },
    {
      "midi": 67,
      "hit": false,
      "t": 77999.92200000012,
      "d": 428.5709999999963,
      "v": 100
    },
    {
      "midi": 65,
      "hit": false,
      "t": 78428.49300000012,
      "d": 428.5709999999963,
      "v": 100
    },
    {
      "midi": 53,
      "hit": false,
      "t": 78857.064,
      "d": 1714.2839999999997,
      "v": 100
    },
    {
      "midi": 69,
      "hit": false,
      "t": 78857.06400000011,
      "d": 857.1420000000071,
      "v": 100
    },
    {
      "midi": 72,
      "hit": false,
      "t": 78857.06400000011,
      "d": 857.1420000000071,
      "v": 100
    },
    {
      "midi": 65,
      "hit": false,
      "t": 79714.20600000012,
      "d": 857.1420000000071,
      "v": 100
    },
    {
      "midi": 48,
      "hit": false,
      "t": 80571.348,
      "d": 1714.2839999999997,
      "v": 100
    },
    {
      "midi": 58,
      "hit": false,
      "t": 80571.348,
      "d": 1714.2839999999997,
      "v": 100
    },
    {
      "midi": 67,
      "hit": false,
      "t": 80571.34800000013,
      "d": 857.1420000000071,
      "v": 100
    },
    {
      "midi": 72,
      "hit": false,
      "t": 80571.34800000013,
      "d": 857.1420000000071,
      "v": 100
    },
    {
      "midi": 64,
      "hit": false,
      "t": 81428.49000000014,
      "d": 857.1420000000071,
      "v": 100
    },
    {
      "midi": 53,
      "hit": false,
      "t": 82285.632,
      "d": 1714.2839999999997,
      "v": 100
    },
    {
      "midi": 57,
      "hit": false,
      "t": 82285.63200000014,
      "d": 3428.5679999999993,
      "v": 100
    },
    {
      "midi": 60,
      "hit": false,
      "t": 82285.63200000014,
      "d": 3428.5679999999993,
      "v": 100
    },
    {
      "midi": 65,
      "hit": false,
      "t": 82285.63200000014,
      "d": 3428.5679999999993,
      "v": 100
    },
    {
      "midi": 41,
      "hit": false,
      "t": 83999.916,
      "d": 1714.2839999999997,
      "v": 100
    }
  ]
}