{
  "jsonPath": "Country/Deep Contemporary Country/Rick Treviño/looking-for-the-light.json",
  "path": "Country\\Deep Contemporary Country\\Rick Treviño\\Looking For The Light.mid",
  "name": "Looking For The Light",
  "difficulty": "Intermediate",
  "bpm": 91.000091000091,
  "notes": [
    {
      "midi": 70,
      "hit": false,
      "t": 10549.439999999999,
      "d": 525.4115624999995,
      "v": 80
    },
    {
      "midi": 72,
      "hit": false,
      "t": 10549.439999999999,
      "d": 525.4115624999995,
      "v": 80
    },
    {
      "midi": 77,
      "hit": false,
      "t": 10549.439999999999,
      "d": 525.4115624999995,
      "v": 80
    },
    {
      "midi": 74,
      "hit": false,
      "t": 11208.779999999999,
      "d": 260.98875000000044,
      "v": 80
    },
    {
      "midi": 82,
      "hit": false,
      "t": 11208.779999999999,
      "d": 260.98875000000044,
      "v": 80
    },
    {
      "midi": 72,
      "hit": false,
      "t": 11538.449999999999,
      "d": 590.6587500000005,
      "v": 80
    },
    {
      "midi": 81,
      "hit": false,
      "t": 11538.449999999999,
      "d": 590.6587500000005,
      "v": 80
    },
    {
      "midi": 69,
      "hit": false,
      "t": 12197.789999999999,
      "d": 789.8343750000004,
      "v": 80
    },
    {
      "midi": 77,
      "hit": false,
      "t": 12197.789999999999,
      "d": 789.8343750000004,
      "v": 80
    },
    {
      "midi": 70,
      "hit": false,
      "t": 13186.8,
      "d": 2108.514374999999,
      "v": 80
    },
    {
      "midi": 72,
      "hit": false,
      "t": 13186.8,
      "d": 2108.514374999999,
      "v": 80
    },
    {
      "midi": 77,
      "hit": false,
      "t": 13186.8,
      "d": 2108.514374999999,
      "v": 80
    },
    {
      "midi": 70,
      "hit": false,
      "t": 15824.159999999998,
      "d": 789.8343750000004,
      "v": 80
    },
    {
      "midi": 72,
      "hit": false,
      "t": 15824.159999999998,
      "d": 789.8343750000004,
      "v": 80
    },
    {
      "midi": 75,
      "hit": false,
      "t": 15824.159999999998,
      "d": 789.8343750000004,
      "v": 80
    },
    {
      "midi": 77,
      "hit": false,
      "t": 15824.159999999998,
      "d": 789.8343750000004,
      "v": 80
    },
    {
      "midi": 70,
      "hit": false,
      "t": 16813.17,
      "d": 1383.9271875000013,
      "v": 80
    },
    {
      "midi": 72,
      "hit": false,
      "t": 16813.17,
      "d": 1383.9271875000013,
      "v": 80
    },
    {
      "midi": 75,
      "hit": false,
      "t": 16813.17,
      "d": 1383.9271875000013,
      "v": 80
    },
    {
      "midi": 77,
      "hit": false,
      "t": 16813.17,
      "d": 1383.9271875000013,
      "v": 80
    },
    {
      "midi": 70,
      "hit": false,
      "t": 18461.52,
      "d": 2108.514374999999,
      "v": 80
    },
    {
      "midi": 72,
      "hit": false,
      "t": 18461.52,
      "d": 2108.514374999999,
      "v": 80
    },
    {
      "midi": 77,
      "hit": false,
      "t": 18461.52,
      "d": 2108.514374999999,
      "v": 80
    },
    {
      "midi": 70,
      "hit": false,
      "t": 21098.879999999997,
      "d": 789.8343749999985,
      "v": 80
    },
    {
      "midi": 72,
      "hit": false,
      "t": 21098.879999999997,
      "d": 789.8343749999985,
      "v": 80
    },
    {
      "midi": 77,
      "hit": false,
      "t": 21098.879999999997,
      "d": 789.8343749999985,
      "v": 80
    },
    {
      "midi": 70,
      "hit": false,
      "t": 22087.889999999996,
      "d": 2173.7615625,
      "v": 80
    },
    {
      "midi": 72,
      "hit": false,
      "t": 22087.889999999996,
      "d": 2173.7615625,
      "v": 80
    },
    {
      "midi": 77,
      "hit": false,
      "t": 22087.889999999996,
      "d": 2173.7615625,
      "v": 80
    },
    {
      "midi": 74,
      "hit": false,
      "t": 24395.579999999994,
      "d": 260.98875000000044,
      "v": 80
    },
    {
      "midi": 82,
      "hit": false,
      "t": 24395.579999999994,
      "d": 260.98875000000044,
      "v": 80
    },
    {
      "midi": 72,
      "hit": false,
      "t": 24725.249999999996,
      "d": 590.6587499999987,
      "v": 80
    },
    {
      "midi": 81,
      "hit": false,
      "t": 24725.249999999996,
      "d": 590.6587499999987,
      "v": 80
    },
    {
      "midi": 69,
      "hit": false,
      "t": 25384.589999999997,
      "d": 789.8343749999985,
      "v": 80
    },
    {
      "midi": 77,
      "hit": false,
      "t": 25384.589999999997,
      "d": 789.8343749999985,
      "v": 80
    },
    {
      "midi": 70,
      "hit": false,
      "t": 26373.599999999995,
      "d": 2108.514374999999,
      "v": 80
    },
    {
      "midi": 72,
      "hit": false,
      "t": 26373.599999999995,
      "d": 2108.514374999999,
      "v": 80
    },
    {
      "midi": 77,
      "hit": false,
      "t": 26373.599999999995,
      "d": 2108.514374999999,
      "v": 80
    },
    {
      "midi": 70,
      "hit": false,
      "t": 29010.959999999992,
      "d": 2108.514374999999,
      "v": 80
    },
    {
      "midi": 72,
      "hit": false,
      "t": 29010.959999999992,
      "d": 2108.514374999999,
      "v": 80
    },
    {
      "midi": 77,
      "hit": false,
      "t": 29010.959999999992,
      "d": 2108.514374999999,
      "v": 80
    },
    {
      "midi": 70,
      "hit": false,
      "t": 73846.07999999999,
      "d": 789.8343750000058,
      "v": 80
    },
    {
      "midi": 72,
      "hit": false,
      "t": 73846.07999999999,
      "d": 789.8343750000058,
      "v": 80
    },
    {
      "midi": 77,
      "hit": false,
      "t": 73846.07999999999,
      "d": 789.8343750000058,
      "v": 80
    },
    {
      "midi": 70,
      "hit": false,
      "t": 74835.09,
      "d": 2173.7615625000035,
      "v": 80
    },
    {
      "midi": 72,
      "hit": false,
      "t": 74835.09,
      "d": 2173.7615625000035,
      "v": 80
    },
    {
      "midi": 77,
      "hit": false,
      "t": 74835.09,
      "d": 2173.7615625000035,
      "v": 80
    },
    {
      "midi": 74,
      "hit": false,
      "t": 77142.78,
      "d": 260.9887500000041,
      "v": 80
    },
    {
      "midi": 82,
      "hit": false,
      "t": 77142.78,
      "d": 260.9887500000041,
      "v": 80
    },
    {
      "midi": 72,
      "hit": false,
      "t": 77472.45,
      "d": 590.6587500000023,
      "v": 80
    },
    {
      "midi": 81,
      "hit": false,
      "t": 77472.45,
      "d": 590.6587500000023,
      "v": 80
    },
    {
      "midi": 69,
      "hit": false,
      "t": 78131.79,
      "d": 789.8343750000058,
      "v": 80
    },
    {
      "midi": 77,
      "hit": false,
      "t": 78131.79,
      "d": 789.8343750000058,
      "v": 80
    },
    {
      "midi": 70,
      "hit": false,
      "t": 79120.8,
      "d": 789.8343750000058,
      "v": 80
    },
    {
      "midi": 72,
      "hit": false,
      "t": 79120.8,
      "d": 789.8343750000058,
      "v": 80
    },
    {
      "midi": 77,
      "hit": false,
      "t": 79120.8,
      "d": 789.8343750000058,
      "v": 80
    },
    {
      "midi": 70,
      "hit": false,
      "t": 80109.81000000001,
      "d": 1383.9271874999977,
      "v": 80
    },
    {
      "midi": 72,
      "hit": false,
      "t": 80109.81000000001,
      "d": 1383.9271874999977,
      "v": 80
    },
    {
      "midi": 77,
      "hit": false,
      "t": 80109.81000000001,
      "d": 1383.9271874999977,
      "v": 80
    },
    {
      "midi": 70,
      "hit": false,
      "t": 81758.16,
      "d": 2108.514374999999,
      "v": 80
    },
    {
      "midi": 72,
      "hit": false,
      "t": 81758.16,
      "d": 2108.514374999999,
      "v": 80
    },
    {
      "midi": 77,
      "hit": false,
      "t": 81758.16,
      "d": 2108.514374999999,
      "v": 80
    },
    {
      "midi": 70,
      "hit": false,
      "t": 84395.52,
      "d": 789.8343750000058,
      "v": 80
    },
    {
      "midi": 72,
      "hit": false,
      "t": 84395.52,
      "d": 789.8343750000058,
      "v": 80
    },
    {
      "midi": 77,
      "hit": false,
      "t": 84395.52,
      "d": 789.8343750000058,
      "v": 80
    },
    {
      "midi": 70,
      "hit": false,
      "t": 85384.53000000001,
      "d": 2173.7615625000035,
      "v": 80
    },
    {
      "midi": 72,
      "hit": false,
      "t": 85384.53000000001,
      "d": 2173.7615625000035,
      "v": 80
    },
    {
      "midi": 77,
      "hit": false,
      "t": 85384.53000000001,
      "d": 2173.7615625000035,
      "v": 80
    },
    {
      "midi": 74,
      "hit": false,
      "t": 87692.22000000002,
      "d": 260.9887500000041,
      "v": 80
    },
    {
      "midi": 82,
      "hit": false,
      "t": 87692.22000000002,
      "d": 260.9887500000041,
      "v": 80
    },
    {
      "midi": 72,
      "hit": false,
      "t": 88021.89000000001,
      "d": 590.6587500000023,
      "v": 80
    },
    {
      "midi": 81,
      "hit": false,
      "t": 88021.89000000001,
      "d": 590.6587500000023,
      "v": 80
    },
    {
      "midi": 69,
      "hit": false,
      "t": 88681.23000000001,
      "d": 789.8343750000058,
      "v": 80
    },
    {
      "midi": 77,
      "hit": false,
      "t": 88681.23000000001,
      "d": 789.8343750000058,
      "v": 80
    },
    {
      "midi": 70,
      "hit": false,
      "t": 89670.24000000002,
      "d": 2108.514374999999,
      "v": 80
    },
    {
      "midi": 72,
      "hit": false,
      "t": 89670.24000000002,
      "d": 2108.514374999999,
      "v": 80
    },
    {
      "midi": 77,
      "hit": false,
      "t": 89670.24000000002,
      "d": 2108.514374999999,
      "v": 80
    },
    {
      "midi": 70,
      "hit": false,
      "t": 92307.60000000002,
      "d": 2108.514374999999,
      "v": 80
    },
    {
      "midi": 72,
      "hit": false,
      "t": 92307.60000000002,
      "d": 2108.514374999999,
      "v": 80
    },
    {
      "midi": 77,
      "hit": false,
      "t": 92307.60000000002,
      "d": 2108.514374999999,
      "v": 80
    },
    {
      "midi": 70,
      "hit": false,
      "t": 137142.72000000003,
      "d": 789.8343750000058,
      "v": 80
    },
    {
      "midi": 72,
      "hit": false,
      "t": 137142.72000000003,
      "d": 789.8343750000058,
      "v": 80
    },
    {
      "midi": 77,
      "hit": false,
      "t": 137142.72000000003,
      "d": 789.8343750000058,
      "v": 80
    },
    {
      "midi": 70,
      "hit": false,
      "t": 138131.73000000004,
      "d": 2173.7615625000035,
      "v": 80
    },
    {
      "midi": 72,
      "hit": false,
      "t": 138131.73000000004,
      "d": 2173.7615625000035,
      "v": 80
    },
    {
      "midi": 77,
      "hit": false,
      "t": 138131.73000000004,
      "d": 2173.7615625000035,
      "v": 80
    },
    {
      "midi": 74,
      "hit": false,
      "t": 140439.42000000004,
      "d": 260.9887499999895,
      "v": 80
    },
    {
      "midi": 82,
      "hit": false,
      "t": 140439.42000000004,
      "d": 260.9887499999895,
      "v": 80
    },
    {
      "midi": 72,
      "hit": false,
      "t": 140769.09000000003,
      "d": 590.6587500000023,
      "v": 80
    },
    {
      "midi": 81,
      "hit": false,
      "t": 140769.09000000003,
      "d": 590.6587500000023,
      "v": 80
    },
    {
      "midi": 69,
      "hit": false,
      "t": 141428.43000000002,
      "d": 789.8343750000058,
      "v": 80
    },
    {
      "midi": 77,
      "hit": false,
      "t": 141428.43000000002,
      "d": 789.8343750000058,
      "v": 80
    },
    {
      "midi": 70,
      "hit": false,
      "t": 142417.44000000003,
      "d": 789.8343750000058,
      "v": 80
    },
    {
      "midi": 72,
      "hit": false,
      "t": 142417.44000000003,
      "d": 789.8343750000058,
      "v": 80
    },
    {
      "midi": 77,
      "hit": false,
      "t": 142417.44000000003,
      "d": 789.8343750000058,
      "v": 80
    },
    {
      "midi": 70,
      "hit": false,
      "t": 143406.45000000004,
      "d": 1383.9271874999977,
      "v": 80
    },
    {
      "midi": 72,
      "hit": false,
      "t": 143406.45000000004,
      "d": 1383.9271874999977,
      "v": 80
    },
    {
      "midi": 77,
      "hit": false,
      "t": 143406.45000000004,
      "d": 1383.9271874999977,
      "v": 80
    },
    {
      "midi": 70,
      "hit": false,
      "t": 145054.80000000005,
      "d": 2108.514374999999,
      "v": 80
    },
    {
      "midi": 72,
      "hit": false,
      "t": 145054.80000000005,
      "d": 2108.514374999999,
      "v": 80
    },
    {
      "midi": 77,
      "hit": false,
      "t": 145054.80000000005,
      "d": 2108.514374999999,
      "v": 80
    },
    {
      "midi": 70,
      "hit": false,
      "t": 147692.16000000003,
      "d": 789.8343750000058,
      "v": 80
    },
    {
      "midi": 72,
      "hit": false,
      "t": 147692.16000000003,
      "d": 789.8343750000058,
      "v": 80
    },
    {
      "midi": 77,
      "hit": false,
      "t": 147692.16000000003,
      "d": 789.8343750000058,
      "v": 80
    },
    {
      "midi": 70,
      "hit": false,
      "t": 148681.17000000004,
      "d": 2173.7615625000035,
      "v": 80
    },
    {
      "midi": 72,
      "hit": false,
      "t": 148681.17000000004,
      "d": 2173.7615625000035,
      "v": 80
    },
    {
      "midi": 77,
      "hit": false,
      "t": 148681.17000000004,
      "d": 2173.7615625000035,
      "v": 80
    },
    {
      "midi": 74,
      "hit": false,
      "t": 150988.86000000004,
      "d": 260.9887499999895,
      "v": 80
    },
    {
      "midi": 82,
      "hit": false,
      "t": 150988.86000000004,
      "d": 260.9887499999895,
      "v": 80
    },
    {
      "midi": 72,
      "hit": false,
      "t": 151318.53000000003,
      "d": 590.6587500000023,
      "v": 80
    },
    {
      "midi": 81,
      "hit": false,
      "t": 151318.53000000003,
      "d": 590.6587500000023,
      "v": 80
    },
    {
      "midi": 69,
      "hit": false,
      "t": 151977.87000000002,
      "d": 789.8343750000058,
      "v": 80
    },
    {
      "midi": 77,
      "hit": false,
      "t": 151977.87000000002,
      "d": 789.8343750000058,
      "v": 80
    },
    {
      "midi": 70,
      "hit": false,
      "t": 152966.88000000003,
      "d": 2108.514374999999,
      "v": 80
    },
    {
      "midi": 72,
      "hit": false,
      "t": 152966.88000000003,
      "d": 2108.514374999999,
      "v": 80
    },
    {
      "midi": 77,
      "hit": false,
      "t": 152966.88000000003,
      "d": 2108.514374999999,
      "v": 80
    },
    {
      "midi": 70,
      "hit": false,
      "t": 155604.24000000002,
      "d": 2108.514374999999,
      "v": 80
    },
    {
      "midi": 72,
      "hit": false,
      "t": 155604.24000000002,
      "d": 2108.514374999999,
      "v": 80
    },
    {
      "midi": 77,
      "hit": false,
      "t": 155604.24000000002,
      "d": 2108.514374999999,
      "v": 80
    },
    {
      "midi": 84,
      "hit": false,
      "t": 163516.32,
      "d": 2108.514375000028,
      "v": 80
    },
    {
      "midi": 80,
      "hit": false,
      "t": 163598.73750000002,
      "d": 1826.921250000014,
      "v": 80
    },
    {
      "midi": 77,
      "hit": false,
      "t": 163681.15500000003,
      "d": 1744.5037500000035,
      "v": 80
    },
    {
      "midi": 75,
      "hit": false,
      "t": 163845.99000000002,
      "d": 1579.6687500000116,
      "v": 80
    },
    {
      "midi": 84,
      "hit": false,
      "t": 168791.04000000004,
      "d": 2108.514375000028,
      "v": 80
    },
    {
      "midi": 80,
      "hit": false,
      "t": 168873.45750000005,
      "d": 1826.921250000014,
      "v": 80
    },
    {
      "midi": 77,
      "hit": false,
      "t": 168955.87500000006,
      "d": 1744.5037500000035,
      "v": 80
    },
    {
      "midi": 75,
      "hit": false,
      "t": 169120.71000000005,
      "d": 1579.6687500000116,
      "v": 80
    },
    {
      "midi": 84,
      "hit": false,
      "t": 174065.76000000007,
      "d": 2108.514375000028,
      "v": 80
    },
    {
      "midi": 80,
      "hit": false,
      "t": 174148.17750000008,
      "d": 1826.921250000014,
      "v": 80
    },
    {
      "midi": 77,
      "hit": false,
      "t": 174230.5950000001,
      "d": 1744.5037500000035,
      "v": 80
    },
    {
      "midi": 75,
      "hit": false,
      "t": 174395.43000000008,
      "d": 1579.6687500000116,
      "v": 80
    },
    {
      "midi": 72,
      "hit": false,
      "t": 184615.2000000001,
      "d": 260.9887499999895,
      "v": 80
    },
    {
      "midi": 67,
      "hit": false,
      "t": 184944.87000000008,
      "d": 260.9887499999895,
      "v": 80
    },
    {
      "midi": 72,
      "hit": false,
      "t": 185274.54000000007,
      "d": 260.9887499999895,
      "v": 80
    },
    {
      "midi": 67,
      "hit": false,
      "t": 185604.21000000005,
      "d": 260.9887499999895,
      "v": 80
    },
    {
      "midi": 74,
      "hit": false,
      "t": 185933.88000000003,
      "d": 1054.257187500014,
      "v": 80
    },
    {
      "midi": 67,
      "hit": false,
      "t": 187582.23000000004,
      "d": 260.9887499999895,
      "v": 80
    },
    {
      "midi": 72,
      "hit": false,
      "t": 187911.90000000002,
      "d": 260.9887499999895,
      "v": 80
    },
    {
      "midi": 67,
      "hit": false,
      "t": 188241.57,
      "d": 260.9887499999895,
      "v": 80
    },
    {
      "midi": 74,
      "hit": false,
      "t": 188571.24,
      "d": 1054.257187500014,
      "v": 80
    },
    {
      "midi": 72,
      "hit": false,
      "t": 189889.92,
      "d": 260.9887499999895,
      "v": 80
    },
    {
      "midi": 67,
      "hit": false,
      "t": 190219.59,
      "d": 260.9887499999895,
      "v": 80
    },
    {
      "midi": 72,
      "hit": false,
      "t": 190549.25999999998,
      "d": 260.9887499999895,
      "v": 80
    },
    {
      "midi": 67,
      "hit": false,
      "t": 190878.92999999996,
      "d": 260.9887499999895,
      "v": 80
    },
    {
      "midi": 74,
      "hit": false,
      "t": 191208.59999999995,
      "d": 1054.257187500014,
      "v": 80
    },
    {
      "midi": 72,
      "hit": false,
      "t": 192527.27999999997,
      "d": 260.9887499999895,
      "v": 80
    },
    {
      "midi": 67,
      "hit": false,
      "t": 192856.94999999995,
      "d": 260.9887499999895,
      "v": 80
    },
    {
      "midi": 71,
      "hit": false,
      "t": 193186.61999999994,
      "d": 260.9887499999895,
      "v": 80
    },
    {
      "midi": 67,
      "hit": false,
      "t": 193516.28999999992,
      "d": 260.9887499999895,
      "v": 80
    },
    {
      "midi": 72,
      "hit": false,
      "t": 193845.9599999999,
      "d": 260.9887499999895,
      "v": 80
    },
    {
      "midi": 67,
      "hit": false,
      "t": 194175.6299999999,
      "d": 260.9887499999895,
      "v": 80
    },
    {
      "midi": 71,
      "hit": false,
      "t": 194505.29999999987,
      "d": 260.9887499999895,
      "v": 80
    },
    {
      "midi": 67,
      "hit": false,
      "t": 194834.96999999986,
      "d": 260.9887499999895,
      "v": 80
    },
    {
      "midi": 72,
      "hit": false,
      "t": 195164.63999999984,
      "d": 260.9887499999895,
      "v": 80
    },
    {
      "midi": 67,
      "hit": false,
      "t": 195494.30999999982,
      "d": 260.9887499999895,
      "v": 80
    },
    {
      "midi": 72,
      "hit": false,
      "t": 195823.9799999998,
      "d": 260.9887499999895,
      "v": 80
    },
    {
      "midi": 67,
      "hit": false,
      "t": 196153.6499999998,
      "d": 260.9887499999895,
      "v": 80
    },
    {
      "midi": 74,
      "hit": false,
      "t": 196483.31999999977,
      "d": 1054.257187500014,
      "v": 80
    },
    {
      "midi": 67,
      "hit": false,
      "t": 198131.66999999978,
      "d": 260.9887499999895,
      "v": 80
    },
    {
      "midi": 72,
      "hit": false,
      "t": 198461.33999999976,
      "d": 260.9887499999895,
      "v": 80
    },
    {
      "midi": 67,
      "hit": false,
      "t": 198791.00999999975,
      "d": 260.9887499999895,
      "v": 80
    },
    {
      "midi": 74,
      "hit": false,
      "t": 199120.67999999973,
      "d": 1054.257187500014,
      "v": 80
    },
    {
      "midi": 72,
      "hit": false,
      "t": 200439.35999999975,
      "d": 260.9887499999895,
      "v": 80
    },
    {
      "midi": 67,
      "hit": false,
      "t": 200769.02999999974,
      "d": 260.9887499999895,
      "v": 80
    },
    {
      "midi": 72,
      "hit": false,
      "t": 201098.69999999972,
      "d": 260.9887499999895,
      "v": 80
    },
    {
      "midi": 67,
      "hit": false,
      "t": 201428.3699999997,
      "d": 260.9887499999895,
      "v": 80
    },
    {
      "midi": 74,
      "hit": false,
      "t": 201758.0399999997,
      "d": 1054.257187500014,
      "v": 80
    },
    {
      "midi": 72,
      "hit": false,
      "t": 203076.7199999997,
      "d": 260.9887499999895,
      "v": 80
    },
    {
      "midi": 67,
      "hit": false,
      "t": 203406.3899999997,
      "d": 260.9887499999895,
      "v": 80
    },
    {
      "midi": 71,
      "hit": false,
      "t": 203736.05999999968,
      "d": 260.9887499999895,
      "v": 80
    },
    {
      "midi": 67,
      "hit": false,
      "t": 204065.72999999966,
      "d": 260.9887499999895,
      "v": 80
    },
    {
      "midi": 72,
      "hit": false,
      "t": 204395.39999999964,
      "d": 260.9887499999895,
      "v": 80
    },
    {
      "midi": 67,
      "hit": false,
      "t": 204725.06999999963,
      "d": 260.9887499999895,
      "v": 80
    },
    {
      "midi": 71,
      "hit": false,
      "t": 205054.7399999996,
      "d": 260.9887499999895,
      "v": 80
    },
    {
      "midi": 67,
      "hit": false,
      "t": 205384.4099999996,
      "d": 260.9887499999895,
      "v": 80
    },
    {
      "midi": 67,
      "hit": false,
      "t": 205714.07999999958,
      "d": 2108.514374999999,
      "v": 80
    },
    {
      "midi": 72,
      "hit": false,
      "t": 205714.07999999958,
      "d": 2108.514374999999,
      "v": 80
    },
    {
      "midi": 76,
      "hit": false,
      "t": 205714.07999999958,
      "d": 2108.514374999999,
      "v": 80
    },
    {
      "midi": 65,
      "hit": false,
      "t": 208351.43999999957,
      "d": 2108.514374999999,
      "v": 80
    },
    {
      "midi": 69,
      "hit": false,
      "t": 208351.43999999957,
      "d": 2108.514374999999,
      "v": 80
    },
    {
      "midi": 72,
      "hit": false,
      "t": 208351.43999999957,
      "d": 2108.514374999999,
      "v": 80
    },
    {
      "midi": 67,
      "hit": false,
      "t": 210988.79999999955,
      "d": 2108.514374999999,
      "v": 80
    },
    {
      "midi": 72,
      "hit": false,
      "t": 210988.79999999955,
      "d": 2108.514374999999,
      "v": 80
    },
    {
      "midi": 76,
      "hit": false,
      "t": 210988.79999999955,
      "d": 2108.514374999999,
      "v": 80
    },
    {
      "midi": 65,
      "hit": false,
      "t": 213626.15999999954,
      "d": 1579.6687500000116,
      "v": 80
    },
    {
      "midi": 69,
      "hit": false,
      "t": 213626.15999999954,
      "d": 1579.6687500000116,
      "v": 80
    },
    {
      "midi": 72,
      "hit": false,
      "t": 213626.15999999954,
      "d": 1579.6687500000116,
      "v": 80
    },
    {
      "midi": 81,
      "hit": false,
      "t": 215604.17999999956,
      "d": 525.4115624999977,
      "v": 80
    },
    {
      "midi": 67,
      "hit": false,
      "t": 216263.51999999955,
      "d": 2108.514374999999,
      "v": 80
    },
    {
      "midi": 72,
      "hit": false,
      "t": 216263.51999999955,
      "d": 2108.514374999999,
      "v": 80
    },
    {
      "midi": 76,
      "hit": false,
      "t": 216263.51999999955,
      "d": 2108.514374999999,
      "v": 80
    },
    {
      "midi": 65,
      "hit": false,
      "t": 218900.87999999954,
      "d": 2108.514374999999,
      "v": 80
    },
    {
      "midi": 69,
      "hit": false,
      "t": 218900.87999999954,
      "d": 2108.514374999999,
      "v": 80
    },
    {
      "midi": 72,
      "hit": false,
      "t": 218900.87999999954,
      "d": 2108.514374999999,
      "v": 80
    },
    {
      "midi": 67,
      "hit": false,
      "t": 221538.23999999953,
      "d": 2108.514374999999,
      "v": 80
    },
    {
      "midi": 72,
      "hit": false,
      "t": 221538.23999999953,
      "d": 2108.514374999999,
      "v": 80
    },
    {
      "midi": 74,
      "hit": false,
      "t": 221538.23999999953,
      "d": 2108.514374999999,
      "v": 80
    },
    {
      "midi": 67,
      "hit": false,
      "t": 224175.5999999995,
      "d": 1054.257187500014,
      "v": 80
    },
    {
      "midi": 71,
      "hit": false,
      "t": 224175.5999999995,
      "d": 1054.257187500014,
      "v": 80
    },
    {
      "midi": 74,
      "hit": false,
      "t": 224175.5999999995,
      "d": 1054.257187500014,
      "v": 80
    },
    {
      "midi": 70,
      "hit": false,
      "t": 226812.95999999953,
      "d": 789.8343750000058,
      "v": 80
    },
    {
      "midi": 72,
      "hit": false,
      "t": 226812.95999999953,
      "d": 789.8343750000058,
      "v": 80
    },
    {
      "midi": 77,
      "hit": false,
      "t": 226812.95999999953,
      "d": 789.8343750000058,
      "v": 80
    },
    {
      "midi": 70,
      "hit": false,
      "t": 227801.96999999954,
      "d": 2173.7615625000035,
      "v": 80
    },
    {
      "midi": 72,
      "hit": false,
      "t": 227801.96999999954,
      "d": 2173.7615625000035,
      "v": 80
    },
    {
      "midi": 77,
      "hit": false,
      "t": 227801.96999999954,
      "d": 2173.7615625000035,
      "v": 80
    },
    {
      "midi": 74,
      "hit": false,
      "t": 230109.65999999954,
      "d": 260.9887499999895,
      "v": 80
    },
    {
      "midi": 82,
      "hit": false,
      "t": 230109.65999999954,
      "d": 260.9887499999895,
      "v": 80
    },
    {
      "midi": 72,
      "hit": false,
      "t": 230439.32999999952,
      "d": 590.6587500000023,
      "v": 80
    },
    {
      "midi": 81,
      "hit": false,
      "t": 230439.32999999952,
      "d": 590.6587500000023,
      "v": 80
    },
    {
      "midi": 69,
      "hit": false,
      "t": 231098.66999999952,
      "d": 789.8343750000058,
      "v": 80
    },
    {
      "midi": 77,
      "hit": false,
      "t": 231098.66999999952,
      "d": 789.8343750000058,
      "v": 80
    },
    {
      "midi": 70,
      "hit": false,
      "t": 232087.67999999953,
      "d": 789.8343750000058,
      "v": 80
    },
    {
      "midi": 72,
      "hit": false,
      "t": 232087.67999999953,
      "d": 789.8343750000058,
      "v": 80
    },
    {
      "midi": 77,
      "hit": false,
      "t": 232087.67999999953,
      "d": 789.8343750000058,
      "v": 80
    },
    {
      "midi": 82,
      "hit": false,
      "t": 232747.01999999952,
      "d": 260.9887500000186,
      "v": 80
    },
    {
      "midi": 81,
      "hit": false,
      "t": 233076.68999999954,
      "d": 590.6587500000023,
      "v": 80
    },
    {
      "midi": 70,
      "hit": false,
      "t": 233076.68999999954,
      "d": 1383.9271874999977,
      "v": 80
    },
    {
      "midi": 72,
      "hit": false,
      "t": 233076.68999999954,
      "d": 1383.9271874999977,
      "v": 80
    },
    {
      "midi": 77,
      "hit": false,
      "t": 233736.02999999953,
      "d": 724.5871875000012,
      "v": 80
    },
    {
      "midi": 70,
      "hit": false,
      "t": 234725.03999999954,
      "d": 2108.514374999999,
      "v": 80
    },
    {
      "midi": 72,
      "hit": false,
      "t": 234725.03999999954,
      "d": 2108.514374999999,
      "v": 80
    },
    {
      "midi": 77,
      "hit": false,
      "t": 234725.03999999954,
      "d": 2108.514374999999,
      "v": 80
    },
    {
      "midi": 70,
      "hit": false,
      "t": 237362.39999999953,
      "d": 789.8343750000058,
      "v": 80
    },
    {
      "midi": 72,
      "hit": false,
      "t": 237362.39999999953,
      "d": 789.8343750000058,
      "v": 80
    },
    {
      "midi": 77,
      "hit": false,
      "t": 237362.39999999953,
      "d": 789.8343750000058,
      "v": 80
    },
    {
      "midi": 70,
      "hit": false,
      "t": 238351.40999999954,
      "d": 2173.7615625000035,
      "v": 80
    },
    {
      "midi": 72,
      "hit": false,
      "t": 238351.40999999954,
      "d": 2173.7615625000035,
      "v": 80
    },
    {
      "midi": 77,
      "hit": false,
      "t": 238351.40999999954,
      "d": 2173.7615625000035,
      "v": 80
    },
    {
      "midi": 74,
      "hit": false,
      "t": 240659.09999999954,
      "d": 260.9887499999895,
      "v": 80
    },
    {
      "midi": 82,
      "hit": false,
      "t": 240659.09999999954,
      "d": 260.9887499999895,
      "v": 80
    },
    {
      "midi": 72,
      "hit": false,
      "t": 240988.76999999952,
      "d": 590.6587500000023,
      "v": 80
    },
    {
      "midi": 81,
      "hit": false,
      "t": 240988.76999999952,
      "d": 590.6587500000023,
      "v": 80
    },
    {
      "midi": 69,
      "hit": false,
      "t": 241648.10999999952,
      "d": 789.8343750000058,
      "v": 80
    },
    {
      "midi": 77,
      "hit": false,
      "t": 241648.10999999952,
      "d": 789.8343750000058,
      "v": 80
    },
    {
      "midi": 70,
      "hit": false,
      "t": 242637.11999999953,
      "d": 789.8343750000058,
      "v": 80
    },
    {
      "midi": 72,
      "hit": false,
      "t": 242637.11999999953,
      "d": 789.8343750000058,
      "v": 80
    },
    {
      "midi": 77,
      "hit": false,
      "t": 242637.11999999953,
      "d": 789.8343750000058,
      "v": 80
    },
    {
      "midi": 82,
      "hit": false,
      "t": 243296.45999999953,
      "d": 260.9887500000186,
      "v": 80
    },
    {
      "midi": 81,
      "hit": false,
      "t": 243626.12999999954,
      "d": 590.6587500000023,
      "v": 80
    },
    {
      "midi": 70,
      "hit": false,
      "t": 243626.12999999954,
      "d": 1383.9271874999977,
      "v": 80
    },
    {
      "midi": 72,
      "hit": false,
      "t": 243626.12999999954,
      "d": 1383.9271874999977,
      "v": 80
    },
    {
      "midi": 77,
      "hit": false,
      "t": 244285.46999999954,
      "d": 724.5871875000012,
      "v": 80
    },
    {
      "midi": 70,
      "hit": false,
      "t": 245274.47999999954,
      "d": 2108.514374999999,
      "v": 80
    },
    {
      "midi": 72,
      "hit": false,
      "t": 245274.47999999954,
      "d": 2108.514374999999,
      "v": 80
    },
    {
      "midi": 77,
      "hit": false,
      "t": 245274.47999999954,
      "d": 2108.514374999999,
      "v": 80
    },
    {
      "midi": 70,
      "hit": false,
      "t": 247911.83999999953,
      "d": 789.8343750000058,
      "v": 80
    },
    {
      "midi": 72,
      "hit": false,
      "t": 247911.83999999953,
      "d": 789.8343750000058,
      "v": 80
    },
    {
      "midi": 77,
      "hit": false,
      "t": 247911.83999999953,
      "d": 789.8343750000058,
      "v": 80
    },
    {
      "midi": 70,
      "hit": false,
      "t": 248900.84999999954,
      "d": 2173.7615625000035,
      "v": 80
    },
    {
      "midi": 72,
      "hit": false,
      "t": 248900.84999999954,
      "d": 2173.7615625000035,
      "v": 80
    },
    {
      "midi": 77,
      "hit": false,
      "t": 248900.84999999954,
      "d": 2173.7615625000035,
      "v": 80
    },
    {
      "midi": 74,
      "hit": false,
      "t": 251208.53999999954,
      "d": 260.9887499999895,
      "v": 80
    },
    {
      "midi": 82,
      "hit": false,
      "t": 251208.53999999954,
      "d": 260.9887499999895,
      "v": 80
    },
    {
      "midi": 72,
      "hit": false,
      "t": 251538.20999999953,
      "d": 590.6587500000023,
      "v": 80
    },
    {
      "midi": 81,
      "hit": false,
      "t": 251538.20999999953,
      "d": 590.6587500000023,
      "v": 80
    },
    {
      "midi": 69,
      "hit": false,
      "t": 252197.54999999952,
      "d": 789.8343750000058,
      "v": 80
    },
    {
      "midi": 77,
      "hit": false,
      "t": 252197.54999999952,
      "d": 789.8343750000058,
      "v": 80
    },
    {
      "midi": 70,
      "hit": false,
      "t": 253186.55999999953,
      "d": 789.8343750000058,
      "v": 80
    },
    {
      "midi": 72,
      "hit": false,
      "t": 253186.55999999953,
      "d": 789.8343750000058,
      "v": 80
    },
    {
      "midi": 77,
      "hit": false,
      "t": 253186.55999999953,
      "d": 789.8343750000058,
      "v": 80
    },
    {
      "midi": 70,
      "hit": false,
      "t": 254175.56999999954,
      "d": 1383.9271874999977,
      "v": 80
    },
    {
      "midi": 72,
      "hit": false,
      "t": 254175.56999999954,
      "d": 1383.9271874999977,
      "v": 80
    },
    {
      "midi": 77,
      "hit": false,
      "t": 254175.56999999954,
      "d": 1383.9271874999977,
      "v": 80
    },
    {
      "midi": 70,
      "hit": false,
      "t": 255823.91999999955,
      "d": 2108.514374999999,
      "v": 80
    },
    {
      "midi": 72,
      "hit": false,
      "t": 255823.91999999955,
      "d": 2108.514374999999,
      "v": 80
    },
    {
      "midi": 77,
      "hit": false,
      "t": 255823.91999999955,
      "d": 2108.514374999999,
      "v": 80
    },
    {
      "midi": 70,
      "hit": false,
      "t": 258461.27999999953,
      "d": 789.8343750000058,
      "v": 80
    },
    {
      "midi": 72,
      "hit": false,
      "t": 258461.27999999953,
      "d": 789.8343750000058,
      "v": 80
    },
    {
      "midi": 77,
      "hit": false,
      "t": 258461.27999999953,
      "d": 789.8343750000058,
      "v": 80
    },
    {
      "midi": 70,
      "hit": false,
      "t": 259450.28999999954,
      "d": 2173.7615625000035,
      "v": 80
    },
    {
      "midi": 72,
      "hit": false,
      "t": 259450.28999999954,
      "d": 2173.7615625000035,
      "v": 80
    },
    {
      "midi": 77,
      "hit": false,
      "t": 259450.28999999954,
      "d": 2173.7615625000035,
      "v": 80
    },
    {
      "midi": 74,
      "hit": false,
      "t": 261757.97999999954,
      "d": 260.9887499999895,
      "v": 80
    },
    {
      "midi": 82,
      "hit": false,
      "t": 261757.97999999954,
      "d": 260.9887499999895,
      "v": 80
    },
    {
      "midi": 72,
      "hit": false,
      "t": 262087.64999999953,
      "d": 590.6587499999732,
      "v": 80
    },
    {
      "midi": 81,
      "hit": false,
      "t": 262087.64999999953,
      "d": 590.6587499999732,
      "v": 80
    },
    {
      "midi": 69,
      "hit": false,
      "t": 262746.9899999995,
      "d": 789.8343749999767,
      "v": 80
    },
    {
      "midi": 77,
      "hit": false,
      "t": 262746.9899999995,
      "d": 789.8343749999767,
      "v": 80
    },
    {
      "midi": 70,
      "hit": false,
      "t": 263735.9999999995,
      "d": 789.8343749999767,
      "v": 80
    },
    {
      "midi": 72,
      "hit": false,
      "t": 263735.9999999995,
      "d": 789.8343749999767,
      "v": 80
    },
    {
      "midi": 77,
      "hit": false,
      "t": 263735.9999999995,
      "d": 789.8343749999767,
      "v": 80
    },
    {
      "midi": 70,
      "hit": false,
      "t": 264725.0099999994,
      "d": 1383.9271874999977,
      "v": 80
    },
    {
      "midi": 72,
      "hit": false,
      "t": 264725.0099999994,
      "d": 1383.9271874999977,
      "v": 80
    },
    {
      "midi": 77,
      "hit": false,
      "t": 264725.0099999994,
      "d": 1383.9271874999977,
      "v": 80
    },
    {
      "midi": 70,
      "hit": false,
      "t": 266373.3599999994,
      "d": 2108.514375000028,
      "v": 80
    },
    {
      "midi": 72,
      "hit": false,
      "t": 266373.3599999994,
      "d": 2108.514375000028,
      "v": 80
    },
    {
      "midi": 77,
      "hit": false,
      "t": 266373.3599999994,
      "d": 2108.514375000028,
      "v": 80
    },
    {
      "midi": 72,
      "hit": false,
      "t": 269010.71999999945,
      "d": 789.8343749999767,
      "v": 80
    },
    {
      "midi": 74,
      "hit": false,
      "t": 269010.71999999945,
      "d": 789.8343749999767,
      "v": 80
    },
    {
      "midi": 79,
      "hit": false,
      "t": 269010.71999999945,
      "d": 789.8343749999767,
      "v": 80
    },
    {
      "midi": 72,
      "hit": false,
      "t": 269999.7299999994,
      "d": 2173.7615624999744,
      "v": 80
    },
    {
      "midi": 74,
      "hit": false,
      "t": 269999.7299999994,
      "d": 2173.7615624999744,
      "v": 80
    },
    {
      "midi": 79,
      "hit": false,
      "t": 269999.7299999994,
      "d": 2173.7615624999744,
      "v": 80
    },
    {
      "midi": 76,
      "hit": false,
      "t": 272307.4199999994,
      "d": 260.9887500000186,
      "v": 80
    },
    {
      "midi": 84,
      "hit": false,
      "t": 272307.4199999994,
      "d": 260.9887500000186,
      "v": 80
    },
    {
      "midi": 74,
      "hit": false,
      "t": 272637.08999999944,
      "d": 590.6587500000023,
      "v": 80
    },
    {
      "midi": 83,
      "hit": false,
      "t": 272637.08999999944,
      "d": 590.6587500000023,
      "v": 80
    },
    {
      "midi": 71,
      "hit": false,
      "t": 273296.42999999947,
      "d": 789.8343749999767,
      "v": 80
    },
    {
      "midi": 79,
      "hit": false,
      "t": 273296.42999999947,
      "d": 789.8343749999767,
      "v": 80
    },
    {
      "midi": 72,
      "hit": false,
      "t": 274285.4399999994,
      "d": 789.8343750000349,
      "v": 80
    },
    {
      "midi": 74,
      "hit": false,
      "t": 274285.4399999994,
      "d": 789.8343750000349,
      "v": 80
    },
    {
      "midi": 79,
      "hit": false,
      "t": 274285.4399999994,
      "d": 789.8343750000349,
      "v": 80
    },
    {
      "midi": 84,
      "hit": false,
      "t": 274944.77999999945,
      "d": 260.9887500000186,
      "v": 80
    },
    {
      "midi": 83,
      "hit": false,
      "t": 275274.4499999995,
      "d": 590.6587500000023,
      "v": 80
    },
    {
      "midi": 72,
      "hit": false,
      "t": 275274.4499999995,
      "d": 1383.9271874999977,
      "v": 80
    },
    {
      "midi": 74,
      "hit": false,
      "t": 275274.4499999995,
      "d": 1383.9271874999977,
      "v": 80
    },
    {
      "midi": 79,
      "hit": false,
      "t": 275933.7899999995,
      "d": 724.5871874999721,
      "v": 80
    },
    {
      "midi": 72,
      "hit": false,
      "t": 276922.79999999946,
      "d": 2108.514375000028,
      "v": 80
    },
    {
      "midi": 74,
      "hit": false,
      "t": 276922.79999999946,
      "d": 2108.514375000028,
      "v": 80
    },
    {
      "midi": 79,
      "hit": false,
      "t": 276922.79999999946,
      "d": 2108.514375000028,
      "v": 80
    },
    {
      "midi": 72,
      "hit": false,
      "t": 279560.1599999995,
      "d": 789.8343749999767,
      "v": 80
    },
    {
      "midi": 74,
      "hit": false,
      "t": 279560.1599999995,
      "d": 789.8343749999767,
      "v": 80
    },
    {
      "midi": 79,
      "hit": false,
      "t": 279560.1599999995,
      "d": 789.8343749999767,
      "v": 80
    },
    {
      "midi": 72,
      "hit": false,
      "t": 280549.16999999946,
      "d": 2173.7615624999744,
      "v": 80
    },
    {
      "midi": 74,
      "hit": false,
      "t": 280549.16999999946,
      "d": 2173.7615624999744,
      "v": 80
    },
    {
      "midi": 79,
      "hit": false,
      "t": 280549.16999999946,
      "d": 2173.7615624999744,
      "v": 80
    },
    {
      "midi": 76,
      "hit": false,
      "t": 282856.85999999946,
      "d": 260.9887500000186,
      "v": 80
    },
    {
      "midi": 84,
      "hit": false,
      "t": 282856.85999999946,
      "d": 260.9887500000186,
      "v": 80
    },
    {
      "midi": 74,
      "hit": false,
      "t": 283186.5299999995,
      "d": 590.6587500000023,
      "v": 80
    },
    {
      "midi": 83,
      "hit": false,
      "t": 283186.5299999995,
      "d": 590.6587500000023,
      "v": 80
    },
    {
      "midi": 71,
      "hit": false,
      "t": 283845.86999999953,
      "d": 789.8343749999767,
      "v": 80
    },
    {
      "midi": 79,
      "hit": false,
      "t": 283845.86999999953,
      "d": 789.8343749999767,
      "v": 80
    },
    {
      "midi": 72,
      "hit": false,
      "t": 284834.8799999995,
      "d": 789.8343750000349,
      "v": 80
    },
    {
      "midi": 74,
      "hit": false,
      "t": 284834.8799999995,
      "d": 789.8343750000349,
      "v": 80
    },
    {
      "midi": 79,
      "hit": false,
      "t": 284834.8799999995,
      "d": 789.8343750000349,
      "v": 80
    },
    {
      "midi": 84,
      "hit": false,
      "t": 285494.2199999995,
      "d": 260.9887500000186,
      "v": 80
    },
    {
      "midi": 83,
      "hit": false,
      "t": 285823.88999999955,
      "d": 590.6587500000023,
      "v": 80
    },
    {
      "midi": 72,
      "hit": false,
      "t": 285823.88999999955,
      "d": 1383.9271874999977,
      "v": 80
    },
    {
      "midi": 74,
      "hit": false,
      "t": 285823.88999999955,
      "d": 1383.9271874999977,
      "v": 80
    },
    {
      "midi": 79,
      "hit": false,
      "t": 286483.2299999996,
      "d": 724.5871874999721,
      "v": 80
    },
    {
      "midi": 72,
      "hit": false,
      "t": 287472.2399999995,
      "d": 2108.514375000028,
      "v": 80
    },
    {
      "midi": 74,
      "hit": false,
      "t": 287472.2399999995,
      "d": 2108.514375000028,
      "v": 80
    },
    {
      "midi": 79,
      "hit": false,
      "t": 287472.2399999995,
      "d": 2108.514375000028,
      "v": 80
    },
    {
      "midi": 72,
      "hit": false,
      "t": 290109.59999999957,
      "d": 789.8343749999767,
      "v": 80
    },
    {
      "midi": 74,
      "hit": false,
      "t": 290109.59999999957,
      "d": 789.8343749999767,
      "v": 80
    },
    {
      "midi": 79,
      "hit": false,
      "t": 290109.59999999957,
      "d": 789.8343749999767,
      "v": 80
    },
    {
      "midi": 79,
      "hit": false,
      "t": 291098.6099999995,
      "d": 260.9887500000186,
      "v": 80
    },
    {
      "midi": 72,
      "hit": false,
      "t": 291098.6099999995,
      "d": 3756.864375000354,
      "v": 80
    },
    {
      "midi": 74,
      "hit": false,
      "t": 291098.6099999995,
      "d": 3756.864375000354,
      "v": 80
    },
    {
      "midi": 84,
      "hit": false,
      "t": 291428.27999999956,
      "d": 260.9887500000186,
      "v": 80
    },
    {
      "midi": 86,
      "hit": false,
      "t": 291757.9499999996,
      "d": 260.9887500000186,
      "v": 80
    },
    {
      "midi": 84,
      "hit": false,
      "t": 292087.61999999965,
      "d": 260.9887500000186,
      "v": 80
    },
    {
      "midi": 86,
      "hit": false,
      "t": 292417.2899999997,
      "d": 260.9887500000186,
      "v": 80
    },
    {
      "midi": 88,
      "hit": false,
      "t": 292746.95999999973,
      "d": 260.9887500000186,
      "v": 80
    },
    {
      "midi": 84,
      "hit": false,
      "t": 293076.6299999998,
      "d": 525.4115624999977,
      "v": 80
    },
    {
      "midi": 84,
      "hit": false,
      "t": 293735.9699999998,
      "d": 590.6587500000023,
      "v": 80
    },
    {
      "midi": 86,
      "hit": false,
      "t": 294395.3099999998,
      "d": 260.9887500000186,
      "v": 80
    },
    {
      "midi": 84,
      "hit": false,
      "t": 294724.97999999986,
      "d": 260.9887500000186,
      "v": 80
    },
    {
      "midi": 86,
      "hit": false,
      "t": 295054.6499999999,
      "d": 260.9887500000186,
      "v": 80
    },
    {
      "midi": 86,
      "hit": false,
      "t": 295384.31999999995,
      "d": 260.9887500000186,
      "v": 80
    },
    {
      "midi": 72,
      "hit": false,
      "t": 295384.31999999995,
      "d": 789.8343750000931,
      "v": 80
    },
    {
      "midi": 74,
      "hit": false,
      "t": 295384.31999999995,
      "d": 789.8343750000931,
      "v": 80
    },
    {
      "midi": 79,
      "hit": false,
      "t": 295384.31999999995,
      "d": 789.8343750000931,
      "v": 80
    },
    {
      "midi": 86,
      "hit": false,
      "t": 295713.99,
      "d": 260.9887500000186,
      "v": 80
    },
    {
      "midi": 86,
      "hit": false,
      "t": 296043.66000000003,
      "d": 1054.2571874999558,
      "v": 80
    },
    {
      "midi": 72,
      "hit": false,
      "t": 296373.33,
      "d": 1383.9271874999395,
      "v": 80
    },
    {
      "midi": 74,
      "hit": false,
      "t": 296373.33,
      "d": 1383.9271874999395,
      "v": 80
    },
    {
      "midi": 79,
      "hit": false,
      "t": 296373.33,
      "d": 1383.9271874999395,
      "v": 80
    },
    {
      "midi": 88,
      "hit": false,
      "t": 297362.33999999997,
      "d": 525.4115624999977,
      "v": 80
    },
    {
      "midi": 86,
      "hit": false,
      "t": 298021.68,
      "d": 525.4115624999977,
      "v": 80
    },
    {
      "midi": 72,
      "hit": false,
      "t": 298021.68,
      "d": 789.8343750000349,
      "v": 80
    },
    {
      "midi": 74,
      "hit": false,
      "t": 298021.68,
      "d": 789.8343750000349,
      "v": 80
    },
    {
      "midi": 79,
      "hit": false,
      "t": 298021.68,
      "d": 789.8343750000349,
      "v": 80
    },
    {
      "midi": 86,
      "hit": false,
      "t": 298681.02,
      "d": 260.9887500000186,
      "v": 80
    },
    {
      "midi": 72,
      "hit": false,
      "t": 299010.69000000006,
      "d": 1383.9271874999977,
      "v": 80
    },
    {
      "midi": 74,
      "hit": false,
      "t": 299010.69000000006,
      "d": 1383.9271874999977,
      "v": 80
    },
    {
      "midi": 79,
      "hit": false,
      "t": 299010.69000000006,
      "d": 1383.9271874999977,
      "v": 80
    },
    {
      "midi": 86,
      "hit": false,
      "t": 299010.69000000006,
      "d": 1383.9271874999977,
      "v": 80
    }
  ]
}