{
  "jsonPath": "Country/Deep Contemporary Country/Rick Treviño/she-just-left-me-lounge.json",
  "path": "Country\\Deep Contemporary Country\\Rick Treviño\\She Just Left Me Lounge.mid",
  "name": "She Just Left Me Lounge",
  "difficulty": "Advanced",
  "bpm": 120,
  "notes": [
    {
      "midi": 60,
      "hit": false,
      "t": 4000,
      "d": 412.5,
      "v": 45
    },
    {
      "midi": 64,
      "hit": false,
      "t": 4000,
      "d": 520.833333333333,
      "v": 55
    },
    {
      "midi": 67,
      "hit": false,
      "t": 4000,
      "d": 716.6666666666661,
      "v": 58
    },
    {
      "midi": 48,
      "hit": false,
      "t": 4000,
      "d": 1966.666666666666,
      "v": 63
    },
    {
      "midi": 55,
      "hit": false,
      "t": 4250,
      "d": 812.4999999999991,
      "v": 57
    },
    {
      "midi": 60,
      "hit": false,
      "t": 4520.833333333333,
      "d": 916.666666666667,
      "v": 55
    },
    {
      "midi": 64,
      "hit": false,
      "t": 4749.999999999999,
      "d": 516.666666666667,
      "v": 41
    },
    {
      "midi": 67,
      "hit": false,
      "t": 4999.999999999999,
      "d": 345.83333333333394,
      "v": 56
    },
    {
      "midi": 55,
      "hit": false,
      "t": 5249.999999999999,
      "d": 458.33333333333394,
      "v": 52
    },
    {
      "midi": 60,
      "hit": false,
      "t": 5500,
      "d": 283.33333333333303,
      "v": 10
    },
    {
      "midi": 67,
      "hit": false,
      "t": 5500,
      "d": 283.33333333333303,
      "v": 45
    },
    {
      "midi": 69,
      "hit": false,
      "t": 5999.999999999999,
      "d": 29.16666666666697,
      "v": 66
    },
    {
      "midi": 65,
      "hit": false,
      "t": 5999.999999999999,
      "d": 1387.5,
      "v": 64
    },
    {
      "midi": 41,
      "hit": false,
      "t": 5999.999999999999,
      "d": 2000,
      "v": 53
    },
    {
      "midi": 60,
      "hit": false,
      "t": 5999.999999999999,
      "d": 2000,
      "v": 52
    },
    {
      "midi": 57,
      "hit": false,
      "t": 7249.999999999999,
      "d": 750,
      "v": 66
    },
    {
      "midi": 65,
      "hit": false,
      "t": 7499.999999999999,
      "d": 500,
      "v": 58
    },
    {
      "midi": 69,
      "hit": false,
      "t": 7749.999999999999,
      "d": 245.83333333333303,
      "v": 82
    },
    {
      "midi": 55,
      "hit": false,
      "t": 7999.999999999999,
      "d": 1491.666666666667,
      "v": 39
    },
    {
      "midi": 60,
      "hit": false,
      "t": 7999.999999999999,
      "d": 1637.500000000001,
      "v": 58
    },
    {
      "midi": 64,
      "hit": false,
      "t": 7999.999999999999,
      "d": 1704.166666666667,
      "v": 60
    },
    {
      "midi": 48,
      "hit": false,
      "t": 7999.999999999999,
      "d": 2000.000000000001,
      "v": 48
    },
    {
      "midi": 67,
      "hit": false,
      "t": 7999.999999999999,
      "d": 2000.000000000001,
      "v": 59
    },
    {
      "midi": 55,
      "hit": false,
      "t": 9625,
      "d": 375,
      "v": 57
    },
    {
      "midi": 60,
      "hit": false,
      "t": 9750,
      "d": 250,
      "v": 45
    },
    {
      "midi": 64,
      "hit": false,
      "t": 9875,
      "d": 125,
      "v": 68
    },
    {
      "midi": 65,
      "hit": false,
      "t": 10000,
      "d": 1025,
      "v": 63
    },
    {
      "midi": 43,
      "hit": false,
      "t": 10000,
      "d": 2000,
      "v": 46
    },
    {
      "midi": 55,
      "hit": false,
      "t": 10000,
      "d": 2000,
      "v": 55
    },
    {
      "midi": 59,
      "hit": false,
      "t": 10000,
      "d": 2000,
      "v": 43
    },
    {
      "midi": 62,
      "hit": false,
      "t": 10000,
      "d": 2000,
      "v": 53
    },
    {
      "midi": 74,
      "hit": false,
      "t": 11000,
      "d": 545.8333333333339,
      "v": 76
    },
    {
      "midi": 65,
      "hit": false,
      "t": 11500,
      "d": 475,
      "v": 63
    },
    {
      "midi": 60,
      "hit": false,
      "t": 12000,
      "d": 1295.833333333334,
      "v": 55
    },
    {
      "midi": 64,
      "hit": false,
      "t": 12000,
      "d": 1375,
      "v": 78
    },
    {
      "midi": 67,
      "hit": false,
      "t": 12000,
      "d": 1375,
      "v": 54
    },
    {
      "midi": 48,
      "hit": false,
      "t": 12000,
      "d": 2000,
      "v": 72
    },
    {
      "midi": 67,
      "hit": false,
      "t": 12000,
      "d": 1000,
      "v": 78
    },
    {
      "midi": 64,
      "hit": false,
      "t": 13000,
      "d": 500,
      "v": 76
    },
    {
      "midi": 55,
      "hit": false,
      "t": 13250,
      "d": 716.6666666666661,
      "v": 63
    },
    {
      "midi": 60,
      "hit": false,
      "t": 13387.5,
      "d": 562.5,
      "v": 53
    },
    {
      "midi": 64,
      "hit": false,
      "t": 13500,
      "d": 420.83333333333394,
      "v": 59
    },
    {
      "midi": 60,
      "hit": false,
      "t": 13500,
      "d": 500,
      "v": 74
    },
    {
      "midi": 67,
      "hit": false,
      "t": 13625,
      "d": 270.83333333333394,
      "v": 58
    },
    {
      "midi": 69,
      "hit": false,
      "t": 14000,
      "d": 845.8333333333339,
      "v": 51
    },
    {
      "midi": 60,
      "hit": false,
      "t": 14000,
      "d": 858.3333333333339,
      "v": 51
    },
    {
      "midi": 41,
      "hit": false,
      "t": 14000,
      "d": 2000,
      "v": 52
    },
    {
      "midi": 65,
      "hit": false,
      "t": 14000,
      "d": 500,
      "v": 78
    },
    {
      "midi": 67,
      "hit": false,
      "t": 14500,
      "d": 500,
      "v": 74
    },
    {
      "midi": 57,
      "hit": false,
      "t": 14750,
      "d": 1250,
      "v": 46
    },
    {
      "midi": 60,
      "hit": false,
      "t": 15000,
      "d": 1000,
      "v": 43
    },
    {
      "midi": 69,
      "hit": false,
      "t": 15000,
      "d": 1000,
      "v": 51
    },
    {
      "midi": 69,
      "hit": false,
      "t": 15000,
      "d": 1000,
      "v": 76
    },
    {
      "midi": 67,
      "hit": false,
      "t": 16000,
      "d": 845.8333333333321,
      "v": 51
    },
    {
      "midi": 60,
      "hit": false,
      "t": 16000,
      "d": 858.3333333333321,
      "v": 51
    },
    {
      "midi": 48,
      "hit": false,
      "t": 16000,
      "d": 2000,
      "v": 52
    },
    {
      "midi": 67,
      "hit": false,
      "t": 16000,
      "d": 1000,
      "v": 78
    },
    {
      "midi": 55,
      "hit": false,
      "t": 16750,
      "d": 1250,
      "v": 46
    },
    {
      "midi": 60,
      "hit": false,
      "t": 17000,
      "d": 1000,
      "v": 43
    },
    {
      "midi": 67,
      "hit": false,
      "t": 17000,
      "d": 1000,
      "v": 51
    },
    {
      "midi": 64,
      "hit": false,
      "t": 17000,
      "d": 500,
      "v": 76
    },
    {
      "midi": 67,
      "hit": false,
      "t": 17500,
      "d": 500,
      "v": 74
    },
    {
      "midi": 59,
      "hit": false,
      "t": 18000,
      "d": 1295.8333333333321,
      "v": 55
    },
    {
      "midi": 62,
      "hit": false,
      "t": 18000,
      "d": 1375,
      "v": 78
    },
    {
      "midi": 65,
      "hit": false,
      "t": 18000,
      "d": 1375,
      "v": 54
    },
    {
      "midi": 67,
      "hit": false,
      "t": 18000,
      "d": 1387.5,
      "v": 59
    },
    {
      "midi": 43,
      "hit": false,
      "t": 18000,
      "d": 2000,
      "v": 72
    },
    {
      "midi": 65,
      "hit": false,
      "t": 18000,
      "d": 500,
      "v": 78
    },
    {
      "midi": 64,
      "hit": false,
      "t": 18500,
      "d": 500,
      "v": 74
    },
    {
      "midi": 62,
      "hit": false,
      "t": 19000,
      "d": 1000,
      "v": 76
    },
    {
      "midi": 55,
      "hit": false,
      "t": 19250,
      "d": 716.6666666666679,
      "v": 63
    },
    {
      "midi": 59,
      "hit": false,
      "t": 19387.5,
      "d": 562.5,
      "v": 53
    },
    {
      "midi": 62,
      "hit": false,
      "t": 19500,
      "d": 420.8333333333321,
      "v": 59
    },
    {
      "midi": 65,
      "hit": false,
      "t": 19625,
      "d": 270.8333333333321,
      "v": 58
    },
    {
      "midi": 67,
      "hit": false,
      "t": 19750,
      "d": 170.83333333333212,
      "v": 68
    },
    {
      "midi": 67,
      "hit": false,
      "t": 20000,
      "d": 1025,
      "v": 63
    },
    {
      "midi": 48,
      "hit": false,
      "t": 20000,
      "d": 2000,
      "v": 46
    },
    {
      "midi": 55,
      "hit": false,
      "t": 20000,
      "d": 2000,
      "v": 55
    },
    {
      "midi": 60,
      "hit": false,
      "t": 20000,
      "d": 2000,
      "v": 43
    },
    {
      "midi": 64,
      "hit": false,
      "t": 20000,
      "d": 2000,
      "v": 53
    },
    {
      "midi": 67,
      "hit": false,
      "t": 20000,
      "d": 1000,
      "v": 78
    },
    {
      "midi": 76,
      "hit": false,
      "t": 21000,
      "d": 545.8333333333321,
      "v": 76
    },
    {
      "midi": 64,
      "hit": false,
      "t": 21000,
      "d": 500,
      "v": 76
    },
    {
      "midi": 67,
      "hit": false,
      "t": 21500,
      "d": 475,
      "v": 63
    },
    {
      "midi": 60,
      "hit": false,
      "t": 21500,
      "d": 500,
      "v": 74
    },
    {
      "midi": 69,
      "hit": false,
      "t": 22000,
      "d": 29.16666666666788,
      "v": 66
    },
    {
      "midi": 65,
      "hit": false,
      "t": 22000,
      "d": 1387.5,
      "v": 64
    },
    {
      "midi": 41,
      "hit": false,
      "t": 22000,
      "d": 2000,
      "v": 53
    },
    {
      "midi": 60,
      "hit": false,
      "t": 22000,
      "d": 2000,
      "v": 52
    },
    {
      "midi": 65,
      "hit": false,
      "t": 22000,
      "d": 500,
      "v": 78
    },
    {
      "midi": 67,
      "hit": false,
      "t": 22500,
      "d": 500,
      "v": 74
    },
    {
      "midi": 69,
      "hit": false,
      "t": 23000,
      "d": 1000,
      "v": 76
    },
    {
      "midi": 57,
      "hit": false,
      "t": 23250,
      "d": 750,
      "v": 66
    },
    {
      "midi": 65,
      "hit": false,
      "t": 23500,
      "d": 500,
      "v": 58
    },
    {
      "midi": 69,
      "hit": false,
      "t": 23750,
      "d": 245.83333333333212,
      "v": 82
    },
    {
      "midi": 67,
      "hit": false,
      "t": 24000,
      "d": 29.16666666666788,
      "v": 66
    },
    {
      "midi": 64,
      "hit": false,
      "t": 24000,
      "d": 1387.5,
      "v": 64
    },
    {
      "midi": 48,
      "hit": false,
      "t": 24000,
      "d": 2000,
      "v": 53
    },
    {
      "midi": 60,
      "hit": false,
      "t": 24000,
      "d": 2000,
      "v": 52
    },
    {
      "midi": 67,
      "hit": false,
      "t": 24000,
      "d": 1000,
      "v": 78
    },
    {
      "midi": 64,
      "hit": false,
      "t": 25000,
      "d": 500,
      "v": 76
    },
    {
      "midi": 55,
      "hit": false,
      "t": 25250,
      "d": 750,
      "v": 66
    },
    {
      "midi": 64,
      "hit": false,
      "t": 25500,
      "d": 500,
      "v": 58
    },
    {
      "midi": 67,
      "hit": false,
      "t": 25500,
      "d": 500,
      "v": 74
    },
    {
      "midi": 67,
      "hit": false,
      "t": 25750,
      "d": 245.83333333333212,
      "v": 82
    },
    {
      "midi": 43,
      "hit": false,
      "t": 26000,
      "d": 1000,
      "v": 55
    },
    {
      "midi": 59,
      "hit": false,
      "t": 26000,
      "d": 1000,
      "v": 47
    },
    {
      "midi": 62,
      "hit": false,
      "t": 26000,
      "d": 1000,
      "v": 60
    },
    {
      "midi": 65,
      "hit": false,
      "t": 26000,
      "d": 1000,
      "v": 53
    },
    {
      "midi": 67,
      "hit": false,
      "t": 26000,
      "d": 1000,
      "v": 52
    },
    {
      "midi": 65,
      "hit": false,
      "t": 26000,
      "d": 500,
      "v": 78
    },
    {
      "midi": 62,
      "hit": false,
      "t": 26500,
      "d": 500,
      "v": 74
    },
    {
      "midi": 60,
      "hit": false,
      "t": 27000,
      "d": 379.1666666666679,
      "v": 52
    },
    {
      "midi": 64,
      "hit": false,
      "t": 27000,
      "d": 508.3333333333321,
      "v": 59
    },
    {
      "midi": 48,
      "hit": false,
      "t": 27000,
      "d": 1000,
      "v": 72
    },
    {
      "midi": 60,
      "hit": false,
      "t": 27000,
      "d": 1000,
      "v": 76
    },
    {
      "midi": 55,
      "hit": false,
      "t": 27250,
      "d": 750,
      "v": 57
    },
    {
      "midi": 60,
      "hit": false,
      "t": 27500,
      "d": 495.8333333333321,
      "v": 55
    },
    {
      "midi": 67,
      "hit": false,
      "t": 27750,
      "d": 225,
      "v": 62
    },
    {
      "midi": 67,
      "hit": false,
      "t": 28000,
      "d": 1025,
      "v": 63
    },
    {
      "midi": 48,
      "hit": false,
      "t": 28000,
      "d": 2000,
      "v": 46
    },
    {
      "midi": 55,
      "hit": false,
      "t": 28000,
      "d": 2000,
      "v": 55
    },
    {
      "midi": 60,
      "hit": false,
      "t": 28000,
      "d": 2000,
      "v": 43
    },
    {
      "midi": 64,
      "hit": false,
      "t": 28000,
      "d": 2000,
      "v": 53
    },
    {
      "midi": 67,
      "hit": false,
      "t": 28000,
      "d": 1000,
      "v": 78
    },
    {
      "midi": 76,
      "hit": false,
      "t": 29000,
      "d": 545.8333333333321,
      "v": 76
    },
    {
      "midi": 64,
      "hit": false,
      "t": 29000,
      "d": 500,
      "v": 76
    },
    {
      "midi": 67,
      "hit": false,
      "t": 29500,
      "d": 475,
      "v": 63
    },
    {
      "midi": 60,
      "hit": false,
      "t": 29500,
      "d": 500,
      "v": 74
    },
    {
      "midi": 60,
      "hit": false,
      "t": 30000,
      "d": 1295.8333333333321,
      "v": 55
    },
    {
      "midi": 65,
      "hit": false,
      "t": 30000,
      "d": 1375,
      "v": 78
    },
    {
      "midi": 69,
      "hit": false,
      "t": 30000,
      "d": 1375,
      "v": 54
    },
    {
      "midi": 41,
      "hit": false,
      "t": 30000,
      "d": 2000,
      "v": 72
    },
    {
      "midi": 65,
      "hit": false,
      "t": 30000,
      "d": 500,
      "v": 78
    },
    {
      "midi": 67,
      "hit": false,
      "t": 30500,
      "d": 500,
      "v": 74
    },
    {
      "midi": 69,
      "hit": false,
      "t": 31000,
      "d": 1000,
      "v": 76
    },
    {
      "midi": 57,
      "hit": false,
      "t": 31250,
      "d": 716.6666666666679,
      "v": 63
    },
    {
      "midi": 60,
      "hit": false,
      "t": 31387.5,
      "d": 562.5,
      "v": 53
    },
    {
      "midi": 65,
      "hit": false,
      "t": 31500,
      "d": 420.8333333333321,
      "v": 59
    },
    {
      "midi": 69,
      "hit": false,
      "t": 31625,
      "d": 270.8333333333321,
      "v": 58
    },
    {
      "midi": 60,
      "hit": false,
      "t": 32000,
      "d": 412.5,
      "v": 45
    },
    {
      "midi": 64,
      "hit": false,
      "t": 32000,
      "d": 520.8333333333321,
      "v": 55
    },
    {
      "midi": 67,
      "hit": false,
      "t": 32000,
      "d": 716.6666666666642,
      "v": 58
    },
    {
      "midi": 48,
      "hit": false,
      "t": 32000,
      "d": 1966.6666666666642,
      "v": 63
    },
    {
      "midi": 67,
      "hit": false,
      "t": 32000,
      "d": 1000,
      "v": 78
    },
    {
      "midi": 55,
      "hit": false,
      "t": 32250,
      "d": 812.5,
      "v": 57
    },
    {
      "midi": 60,
      "hit": false,
      "t": 32520.833333333332,
      "d": 916.6666666666606,
      "v": 55
    },
    {
      "midi": 64,
      "hit": false,
      "t": 32749.999999999996,
      "d": 516.6666666666679,
      "v": 41
    },
    {
      "midi": 67,
      "hit": false,
      "t": 33000,
      "d": 345.8333333333285,
      "v": 56
    },
    {
      "midi": 64,
      "hit": false,
      "t": 33000,
      "d": 500,
      "v": 76
    },
    {
      "midi": 55,
      "hit": false,
      "t": 33250,
      "d": 458.3333333333285,
      "v": 52
    },
    {
      "midi": 60,
      "hit": false,
      "t": 33499.99999999999,
      "d": 283.33333333333576,
      "v": 10
    },
    {
      "midi": 67,
      "hit": false,
      "t": 33499.99999999999,
      "d": 283.33333333333576,
      "v": 45
    },
    {
      "midi": 67,
      "hit": false,
      "t": 33500,
      "d": 500,
      "v": 74
    },
    {
      "midi": 59,
      "hit": false,
      "t": 34000,
      "d": 1491.6666666666642,
      "v": 39
    },
    {
      "midi": 62,
      "hit": false,
      "t": 34000,
      "d": 1637.5,
      "v": 58
    },
    {
      "midi": 65,
      "hit": false,
      "t": 34000,
      "d": 1704.1666666666642,
      "v": 60
    },
    {
      "midi": 43,
      "hit": false,
      "t": 34000,
      "d": 2000,
      "v": 48
    },
    {
      "midi": 67,
      "hit": false,
      "t": 34000,
      "d": 2000,
      "v": 59
    },
    {
      "midi": 65,
      "hit": false,
      "t": 34000,
      "d": 500,
      "v": 78
    },
    {
      "midi": 64,
      "hit": false,
      "t": 34500,
      "d": 500,
      "v": 74
    },
    {
      "midi": 62,
      "hit": false,
      "t": 35000,
      "d": 1000,
      "v": 76
    },
    {
      "midi": 59,
      "hit": false,
      "t": 35625,
      "d": 375,
      "v": 57
    },
    {
      "midi": 62,
      "hit": false,
      "t": 35750,
      "d": 250,
      "v": 45
    },
    {
      "midi": 65,
      "hit": false,
      "t": 35875,
      "d": 125,
      "v": 68
    },
    {
      "midi": 67,
      "hit": false,
      "t": 36000,
      "d": 845.8333333333358,
      "v": 51
    },
    {
      "midi": 60,
      "hit": false,
      "t": 36000,
      "d": 858.3333333333358,
      "v": 51
    },
    {
      "midi": 48,
      "hit": false,
      "t": 36000,
      "d": 2000,
      "v": 52
    },
    {
      "midi": 67,
      "hit": false,
      "t": 36000,
      "d": 500,
      "v": 78
    },
    {
      "midi": 67,
      "hit": false,
      "t": 36500,
      "d": 500,
      "v": 74
    },
    {
      "midi": 55,
      "hit": false,
      "t": 36750,
      "d": 1250,
      "v": 46
    },
    {
      "midi": 60,
      "hit": false,
      "t": 37000,
      "d": 1000,
      "v": 43
    },
    {
      "midi": 67,
      "hit": false,
      "t": 37000,
      "d": 1000,
      "v": 51
    },
    {
      "midi": 64,
      "hit": false,
      "t": 37000,
      "d": 500,
      "v": 76
    },
    {
      "midi": 60,
      "hit": false,
      "t": 37500,
      "d": 500,
      "v": 74
    },
    {
      "midi": 69,
      "hit": false,
      "t": 38000,
      "d": 845.8333333333358,
      "v": 51
    },
    {
      "midi": 60,
      "hit": false,
      "t": 38000,
      "d": 858.3333333333358,
      "v": 51
    },
    {
      "midi": 41,
      "hit": false,
      "t": 38000,
      "d": 2000,
      "v": 52
    },
    {
      "midi": 65,
      "hit": false,
      "t": 38000,
      "d": 500,
      "v": 78
    },
    {
      "midi": 67,
      "hit": false,
      "t": 38500,
      "d": 500,
      "v": 74
    },
    {
      "midi": 57,
      "hit": false,
      "t": 38750,
      "d": 1250,
      "v": 46
    },
    {
      "midi": 60,
      "hit": false,
      "t": 39000,
      "d": 1000,
      "v": 43
    },
    {
      "midi": 69,
      "hit": false,
      "t": 39000,
      "d": 1000,
      "v": 51
    },
    {
      "midi": 69,
      "hit": false,
      "t": 39000,
      "d": 1000,
      "v": 76
    },
    {
      "midi": 60,
      "hit": false,
      "t": 40000,
      "d": 1295.8333333333358,
      "v": 55
    },
    {
      "midi": 64,
      "hit": false,
      "t": 40000,
      "d": 1375,
      "v": 78
    },
    {
      "midi": 67,
      "hit": false,
      "t": 40000,
      "d": 1375,
      "v": 54
    },
    {
      "midi": 48,
      "hit": false,
      "t": 40000,
      "d": 2000,
      "v": 72
    },
    {
      "midi": 67,
      "hit": false,
      "t": 40000,
      "d": 500,
      "v": 78
    },
    {
      "midi": 67,
      "hit": false,
      "t": 40500,
      "d": 500,
      "v": 74
    },
    {
      "midi": 64,
      "hit": false,
      "t": 41000,
      "d": 500,
      "v": 76
    },
    {
      "midi": 55,
      "hit": false,
      "t": 41250,
      "d": 716.6666666666642,
      "v": 63
    },
    {
      "midi": 60,
      "hit": false,
      "t": 41387.5,
      "d": 562.5,
      "v": 53
    },
    {
      "midi": 64,
      "hit": false,
      "t": 41500,
      "d": 420.83333333333576,
      "v": 59
    },
    {
      "midi": 67,
      "hit": false,
      "t": 41500,
      "d": 500,
      "v": 74
    },
    {
      "midi": 67,
      "hit": false,
      "t": 41625,
      "d": 270.83333333333576,
      "v": 58
    },
    {
      "midi": 59,
      "hit": false,
      "t": 42000,
      "d": 733.3333333333358,
      "v": 47
    },
    {
      "midi": 62,
      "hit": false,
      "t": 42000,
      "d": 995.8333333333285,
      "v": 56
    },
    {
      "midi": 43,
      "hit": false,
      "t": 42000,
      "d": 999.9999999999927,
      "v": 57
    },
    {
      "midi": 65,
      "hit": false,
      "t": 42000,
      "d": 999.9999999999927,
      "v": 37
    },
    {
      "midi": 67,
      "hit": false,
      "t": 42000,
      "d": 999.9999999999927,
      "v": 55
    },
    {
      "midi": 65,
      "hit": false,
      "t": 42000,
      "d": 500,
      "v": 78
    },
    {
      "midi": 55,
      "hit": false,
      "t": 42500,
      "d": 441.66666666666424,
      "v": 32
    },
    {
      "midi": 62,
      "hit": false,
      "t": 42500,
      "d": 500,
      "v": 74
    },
    {
      "midi": 59,
      "hit": false,
      "t": 42750,
      "d": 245.83333333332848,
      "v": 49
    },
    {
      "midi": 60,
      "hit": false,
      "t": 42999.99999999999,
      "d": 379.16666666666424,
      "v": 52
    },
    {
      "midi": 64,
      "hit": false,
      "t": 42999.99999999999,
      "d": 508.33333333333576,
      "v": 59
    },
    {
      "midi": 48,
      "hit": false,
      "t": 42999.99999999999,
      "d": 1000,
      "v": 72
    },
    {
      "midi": 60,
      "hit": false,
      "t": 43000,
      "d": 1000,
      "v": 76
    },
    {
      "midi": 55,
      "hit": false,
      "t": 43249.99999999999,
      "d": 750,
      "v": 57
    },
    {
      "midi": 60,
      "hit": false,
      "t": 43499.99999999999,
      "d": 495.83333333333576,
      "v": 55
    },
    {
      "midi": 67,
      "hit": false,
      "t": 43749.99999999999,
      "d": 225,
      "v": 62
    },
    {
      "midi": 60,
      "hit": false,
      "t": 43999.99999999999,
      "d": 412.5,
      "v": 45
    },
    {
      "midi": 65,
      "hit": false,
      "t": 43999.99999999999,
      "d": 520.8333333333358,
      "v": 55
    },
    {
      "midi": 69,
      "hit": false,
      "t": 43999.99999999999,
      "d": 716.6666666666715,
      "v": 58
    },
    {
      "midi": 41,
      "hit": false,
      "t": 43999.99999999999,
      "d": 1966.6666666666715,
      "v": 63
    },
    {
      "midi": 72,
      "hit": false,
      "t": 44000,
      "d": 1000,
      "v": 78
    },
    {
      "midi": 57,
      "hit": false,
      "t": 44249.99999999999,
      "d": 812.5000000000073,
      "v": 57
    },
    {
      "midi": 60,
      "hit": false,
      "t": 44520.83333333333,
      "d": 916.6666666666642,
      "v": 55
    },
    {
      "midi": 65,
      "hit": false,
      "t": 44750,
      "d": 516.6666666666642,
      "v": 41
    },
    {
      "midi": 69,
      "hit": false,
      "t": 45000,
      "d": 345.8333333333285,
      "v": 56
    },
    {
      "midi": 69,
      "hit": false,
      "t": 45000,
      "d": 500,
      "v": 76
    },
    {
      "midi": 57,
      "hit": false,
      "t": 45250,
      "d": 458.3333333333285,
      "v": 52
    },
    {
      "midi": 60,
      "hit": false,
      "t": 45499.99999999999,
      "d": 283.33333333333576,
      "v": 10
    },
    {
      "midi": 69,
      "hit": false,
      "t": 45499.99999999999,
      "d": 283.33333333333576,
      "v": 45
    },
    {
      "midi": 72,
      "hit": false,
      "t": 45500,
      "d": 500,
      "v": 74
    },
    {
      "midi": 60,
      "hit": false,
      "t": 46000,
      "d": 1295.8333333333358,
      "v": 55
    },
    {
      "midi": 64,
      "hit": false,
      "t": 46000,
      "d": 1375,
      "v": 78
    },
    {
      "midi": 67,
      "hit": false,
      "t": 46000,
      "d": 1375,
      "v": 54
    },
    {
      "midi": 48,
      "hit": false,
      "t": 46000,
      "d": 2000,
      "v": 72
    },
    {
      "midi": 71,
      "hit": false,
      "t": 46000,
      "d": 500,
      "v": 78
    },
    {
      "midi": 69,
      "hit": false,
      "t": 46500,
      "d": 500,
      "v": 74
    },
    {
      "midi": 67,
      "hit": false,
      "t": 47000,
      "d": 1000,
      "v": 76
    },
    {
      "midi": 55,
      "hit": false,
      "t": 47250,
      "d": 716.6666666666642,
      "v": 63
    },
    {
      "midi": 60,
      "hit": false,
      "t": 47387.5,
      "d": 562.5,
      "v": 53
    },
    {
      "midi": 64,
      "hit": false,
      "t": 47500,
      "d": 420.83333333333576,
      "v": 59
    },
    {
      "midi": 67,
      "hit": false,
      "t": 47625,
      "d": 270.83333333333576,
      "v": 58
    },
    {
      "midi": 57,
      "hit": false,
      "t": 48000,
      "d": 1491.6666666666642,
      "v": 39
    },
    {
      "midi": 60,
      "hit": false,
      "t": 48000,
      "d": 1637.5,
      "v": 58
    },
    {
      "midi": 65,
      "hit": false,
      "t": 48000,
      "d": 1704.1666666666642,
      "v": 60
    },
    {
      "midi": 41,
      "hit": false,
      "t": 48000,
      "d": 2000,
      "v": 48
    },
    {
      "midi": 69,
      "hit": false,
      "t": 48000,
      "d": 2000,
      "v": 59
    },
    {
      "midi": 69,
      "hit": false,
      "t": 48000,
      "d": 1000,
      "v": 78
    },
    {
      "midi": 65,
      "hit": false,
      "t": 49000,
      "d": 500,
      "v": 76
    },
    {
      "midi": 69,
      "hit": false,
      "t": 49500,
      "d": 500,
      "v": 74
    },
    {
      "midi": 57,
      "hit": false,
      "t": 49625,
      "d": 375,
      "v": 57
    },
    {
      "midi": 60,
      "hit": false,
      "t": 49750,
      "d": 250,
      "v": 45
    },
    {
      "midi": 65,
      "hit": false,
      "t": 49875,
      "d": 125,
      "v": 68
    },
    {
      "midi": 60,
      "hit": false,
      "t": 50000,
      "d": 1295.8333333333358,
      "v": 55
    },
    {
      "midi": 64,
      "hit": false,
      "t": 50000,
      "d": 1375,
      "v": 78
    },
    {
      "midi": 67,
      "hit": false,
      "t": 50000,
      "d": 1375,
      "v": 54
    },
    {
      "midi": 48,
      "hit": false,
      "t": 50000,
      "d": 2000,
      "v": 72
    },
    {
      "midi": 67,
      "hit": false,
      "t": 50000,
      "d": 500,
      "v": 78
    },
    {
      "midi": 65,
      "hit": false,
      "t": 50500,
      "d": 500,
      "v": 74
    },
    {
      "midi": 64,
      "hit": false,
      "t": 51000,
      "d": 1000,
      "v": 76
    },
    {
      "midi": 55,
      "hit": false,
      "t": 51250,
      "d": 716.6666666666642,
      "v": 63
    },
    {
      "midi": 60,
      "hit": false,
      "t": 51387.5,
      "d": 562.5,
      "v": 53
    },
    {
      "midi": 64,
      "hit": false,
      "t": 51500,
      "d": 420.83333333333576,
      "v": 59
    },
    {
      "midi": 67,
      "hit": false,
      "t": 51625,
      "d": 270.83333333333576,
      "v": 58
    },
    {
      "midi": 69,
      "hit": false,
      "t": 52000,
      "d": 1025,
      "v": 63
    },
    {
      "midi": 50,
      "hit": false,
      "t": 52000,
      "d": 2000,
      "v": 46
    },
    {
      "midi": 57,
      "hit": false,
      "t": 52000,
      "d": 2000,
      "v": 55
    },
    {
      "midi": 62,
      "hit": false,
      "t": 52000,
      "d": 2000,
      "v": 43
    },
    {
      "midi": 65,
      "hit": false,
      "t": 52000,
      "d": 2000,
      "v": 53
    },
    {
      "midi": 65,
      "hit": false,
      "t": 52000,
      "d": 666.6666666666642,
      "v": 78
    },
    {
      "midi": 64,
      "hit": false,
      "t": 52666.666666666664,
      "d": 333.33333333333576,
      "v": 72
    },
    {
      "midi": 77,
      "hit": false,
      "t": 53000,
      "d": 545.8333333333358,
      "v": 76
    },
    {
      "midi": 62,
      "hit": false,
      "t": 53000,
      "d": 500,
      "v": 76
    },
    {
      "midi": 69,
      "hit": false,
      "t": 53500,
      "d": 475,
      "v": 63
    },
    {
      "midi": 65,
      "hit": false,
      "t": 53500,
      "d": 500,
      "v": 74
    },
    {
      "midi": 67,
      "hit": false,
      "t": 54000,
      "d": 1025,
      "v": 63
    },
    {
      "midi": 48,
      "hit": false,
      "t": 54000,
      "d": 2000,
      "v": 46
    },
    {
      "midi": 55,
      "hit": false,
      "t": 54000,
      "d": 2000,
      "v": 55
    },
    {
      "midi": 60,
      "hit": false,
      "t": 54000,
      "d": 2000,
      "v": 43
    },
    {
      "midi": 64,
      "hit": false,
      "t": 54000,
      "d": 2000,
      "v": 53
    },
    {
      "midi": 64,
      "hit": false,
      "t": 54000,
      "d": 500,
      "v": 78
    },
    {
      "midi": 62,
      "hit": false,
      "t": 54500,
      "d": 500,
      "v": 74
    },
    {
      "midi": 76,
      "hit": false,
      "t": 55000,
      "d": 545.8333333333358,
      "v": 76
    },
    {
      "midi": 60,
      "hit": false,
      "t": 55000,
      "d": 1000,
      "v": 76
    },
    {
      "midi": 67,
      "hit": false,
      "t": 55500,
      "d": 475,
      "v": 63
    },
    {
      "midi": 62,
      "hit": false,
      "t": 56000,
      "d": 733.3333333333358,
      "v": 47
    },
    {
      "midi": 65,
      "hit": false,
      "t": 56000,
      "d": 995.8333333333285,
      "v": 56
    },
    {
      "midi": 50,
      "hit": false,
      "t": 56000,
      "d": 999.9999999999927,
      "v": 57
    },
    {
      "midi": 69,
      "hit": false,
      "t": 56000,
      "d": 999.9999999999927,
      "v": 37
    },
    {
      "midi": 62,
      "hit": false,
      "t": 56000,
      "d": 500,
      "v": 78
    },
    {
      "midi": 57,
      "hit": false,
      "t": 56500,
      "d": 441.66666666666424,
      "v": 32
    },
    {
      "midi": 62,
      "hit": false,
      "t": 56500,
      "d": 500,
      "v": 74
    },
    {
      "midi": 62,
      "hit": false,
      "t": 56750,
      "d": 245.83333333332848,
      "v": 49
    },
    {
      "midi": 41,
      "hit": false,
      "t": 56999.99999999999,
      "d": 1000,
      "v": 55
    },
    {
      "midi": 57,
      "hit": false,
      "t": 56999.99999999999,
      "d": 1000,
      "v": 47
    },
    {
      "midi": 60,
      "hit": false,
      "t": 56999.99999999999,
      "d": 1000,
      "v": 60
    },
    {
      "midi": 65,
      "hit": false,
      "t": 56999.99999999999,
      "d": 1000,
      "v": 53
    },
    {
      "midi": 69,
      "hit": false,
      "t": 56999.99999999999,
      "d": 1000,
      "v": 52
    },
    {
      "midi": 72,
      "hit": false,
      "t": 57000,
      "d": 500,
      "v": 76
    },
    {
      "midi": 72,
      "hit": false,
      "t": 57500,
      "d": 500,
      "v": 74
    },
    {
      "midi": 62,
      "hit": false,
      "t": 57999.99999999999,
      "d": 733.3333333333358,
      "v": 47
    },
    {
      "midi": 67,
      "hit": false,
      "t": 57999.99999999999,
      "d": 995.8333333333285,
      "v": 56
    },
    {
      "midi": 43,
      "hit": false,
      "t": 57999.99999999999,
      "d": 999.9999999999927,
      "v": 57
    },
    {
      "midi": 71,
      "hit": false,
      "t": 57999.99999999999,
      "d": 999.9999999999927,
      "v": 37
    },
    {
      "midi": 71,
      "hit": false,
      "t": 58000,
      "d": 500,
      "v": 78
    },
    {
      "midi": 59,
      "hit": false,
      "t": 58499.99999999999,
      "d": 441.66666666666424,
      "v": 32
    },
    {
      "midi": 69,
      "hit": false,
      "t": 58500,
      "d": 500,
      "v": 74
    },
    {
      "midi": 62,
      "hit": false,
      "t": 58749.99999999999,
      "d": 245.83333333332848,
      "v": 49
    },
    {
      "midi": 59,
      "hit": false,
      "t": 58999.999999999985,
      "d": 379.16666666666424,
      "v": 52
    },
    {
      "midi": 62,
      "hit": false,
      "t": 58999.999999999985,
      "d": 508.33333333333576,
      "v": 59
    },
    {
      "midi": 43,
      "hit": false,
      "t": 58999.999999999985,
      "d": 1000,
      "v": 72
    },
    {
      "midi": 67,
      "hit": false,
      "t": 59000,
      "d": 1000,
      "v": 76
    },
    {
      "midi": 55,
      "hit": false,
      "t": 59249.999999999985,
      "d": 750,
      "v": 57
    },
    {
      "midi": 59,
      "hit": false,
      "t": 59499.999999999985,
      "d": 495.83333333333576,
      "v": 55
    },
    {
      "midi": 65,
      "hit": false,
      "t": 59749.999999999985,
      "d": 225,
      "v": 62
    },
    {
      "midi": 60,
      "hit": false,
      "t": 59999.999999999985,
      "d": 412.5,
      "v": 45
    },
    {
      "midi": 64,
      "hit": false,
      "t": 59999.999999999985,
      "d": 520.8333333333358,
      "v": 55
    },
    {
      "midi": 67,
      "hit": false,
      "t": 59999.999999999985,
      "d": 716.6666666666715,
      "v": 58
    },
    {
      "midi": 48,
      "hit": false,
      "t": 59999.999999999985,
      "d": 1966.6666666666715,
      "v": 63
    },
    {
      "midi": 67,
      "hit": false,
      "t": 60000,
      "d": 500,
      "v": 78
    },
    {
      "midi": 55,
      "hit": false,
      "t": 60249.999999999985,
      "d": 812.5000000000073,
      "v": 57
    },
    {
      "midi": 67,
      "hit": false,
      "t": 60500,
      "d": 500,
      "v": 74
    },
    {
      "midi": 60,
      "hit": false,
      "t": 60520.83333333332,
      "d": 916.6666666666642,
      "v": 55
    },
    {
      "midi": 64,
      "hit": false,
      "t": 60749.99999999999,
      "d": 516.6666666666642,
      "v": 41
    },
    {
      "midi": 67,
      "hit": false,
      "t": 60999.99999999999,
      "d": 345.8333333333285,
      "v": 56
    },
    {
      "midi": 64,
      "hit": false,
      "t": 61000,
      "d": 500,
      "v": 76
    },
    {
      "midi": 55,
      "hit": false,
      "t": 61249.99999999999,
      "d": 458.3333333333285,
      "v": 52
    },
    {
      "midi": 60,
      "hit": false,
      "t": 61499.999999999985,
      "d": 283.33333333333576,
      "v": 10
    },
    {
      "midi": 67,
      "hit": false,
      "t": 61499.999999999985,
      "d": 283.33333333333576,
      "v": 45
    },
    {
      "midi": 60,
      "hit": false,
      "t": 61500,
      "d": 500,
      "v": 74
    },
    {
      "midi": 57,
      "hit": false,
      "t": 61999.99999999999,
      "d": 1491.6666666666642,
      "v": 39
    },
    {
      "midi": 60,
      "hit": false,
      "t": 61999.99999999999,
      "d": 1637.5,
      "v": 58
    },
    {
      "midi": 65,
      "hit": false,
      "t": 61999.99999999999,
      "d": 1704.1666666666642,
      "v": 60
    },
    {
      "midi": 41,
      "hit": false,
      "t": 61999.99999999999,
      "d": 2000,
      "v": 48
    },
    {
      "midi": 69,
      "hit": false,
      "t": 61999.99999999999,
      "d": 2000,
      "v": 59
    },
    {
      "midi": 65,
      "hit": false,
      "t": 62000,
      "d": 500,
      "v": 78
    },
    {
      "midi": 67,
      "hit": false,
      "t": 62500,
      "d": 500,
      "v": 74
    },
    {
      "midi": 69,
      "hit": false,
      "t": 63000,
      "d": 1000,
      "v": 76
    },
    {
      "midi": 57,
      "hit": false,
      "t": 63624.99999999999,
      "d": 375,
      "v": 57
    },
    {
      "midi": 60,
      "hit": false,
      "t": 63749.99999999999,
      "d": 250,
      "v": 45
    },
    {
      "midi": 65,
      "hit": false,
      "t": 63874.99999999999,
      "d": 125,
      "v": 68
    },
    {
      "midi": 67,
      "hit": false,
      "t": 63999.99999999999,
      "d": 29.16666666666424,
      "v": 66
    },
    {
      "midi": 64,
      "hit": false,
      "t": 63999.99999999999,
      "d": 1387.5,
      "v": 64
    },
    {
      "midi": 48,
      "hit": false,
      "t": 63999.99999999999,
      "d": 2000.0000000000073,
      "v": 53
    },
    {
      "midi": 60,
      "hit": false,
      "t": 63999.99999999999,
      "d": 2000.0000000000073,
      "v": 52
    },
    {
      "midi": 67,
      "hit": false,
      "t": 64000,
      "d": 500,
      "v": 78
    },
    {
      "midi": 67,
      "hit": false,
      "t": 64500,
      "d": 500,
      "v": 74
    },
    {
      "midi": 64,
      "hit": false,
      "t": 65000,
      "d": 500,
      "v": 76
    },
    {
      "midi": 55,
      "hit": false,
      "t": 65249.99999999999,
      "d": 750.0000000000073,
      "v": 66
    },
    {
      "midi": 64,
      "hit": false,
      "t": 65499.99999999999,
      "d": 500.0000000000073,
      "v": 58
    },
    {
      "midi": 64,
      "hit": false,
      "t": 65500,
      "d": 250,
      "v": 74
    },
    {
      "midi": 67,
      "hit": false,
      "t": 65750,
      "d": 245.83333333332848,
      "v": 82
    },
    {
      "midi": 67,
      "hit": false,
      "t": 65750,
      "d": 250,
      "v": 72
    },
    {
      "midi": 65,
      "hit": false,
      "t": 66000,
      "d": 1025,
      "v": 63
    },
    {
      "midi": 43,
      "hit": false,
      "t": 66000,
      "d": 2000,
      "v": 46
    },
    {
      "midi": 55,
      "hit": false,
      "t": 66000,
      "d": 2000,
      "v": 55
    },
    {
      "midi": 59,
      "hit": false,
      "t": 66000,
      "d": 2000,
      "v": 43
    },
    {
      "midi": 62,
      "hit": false,
      "t": 66000,
      "d": 2000,
      "v": 53
    },
    {
      "midi": 65,
      "hit": false,
      "t": 66000,
      "d": 500,
      "v": 78
    },
    {
      "midi": 64,
      "hit": false,
      "t": 66500,
      "d": 500,
      "v": 74
    },
    {
      "midi": 74,
      "hit": false,
      "t": 67000,
      "d": 545.8333333333285,
      "v": 76
    },
    {
      "midi": 62,
      "hit": false,
      "t": 67000,
      "d": 1000,
      "v": 76
    },
    {
      "midi": 65,
      "hit": false,
      "t": 67500,
      "d": 475,
      "v": 63
    },
    {
      "midi": 60,
      "hit": false,
      "t": 68000,
      "d": 1295.8333333333285,
      "v": 55
    },
    {
      "midi": 64,
      "hit": false,
      "t": 68000,
      "d": 1375,
      "v": 78
    },
    {
      "midi": 67,
      "hit": false,
      "t": 68000,
      "d": 1375,
      "v": 54
    },
    {
      "midi": 48,
      "hit": false,
      "t": 68000,
      "d": 2000,
      "v": 72
    },
    {
      "midi": 67,
      "hit": false,
      "t": 68000,
      "d": 500,
      "v": 78
    },
    {
      "midi": 67,
      "hit": false,
      "t": 68500,
      "d": 500,
      "v": 74
    },
    {
      "midi": 64,
      "hit": false,
      "t": 69000,
      "d": 500,
      "v": 76
    },
    {
      "midi": 55,
      "hit": false,
      "t": 69250,
      "d": 716.6666666666715,
      "v": 63
    },
    {
      "midi": 60,
      "hit": false,
      "t": 69387.5,
      "d": 562.5,
      "v": 53
    },
    {
      "midi": 64,
      "hit": false,
      "t": 69500,
      "d": 420.8333333333285,
      "v": 59
    },
    {
      "midi": 60,
      "hit": false,
      "t": 69500,
      "d": 500,
      "v": 74
    },
    {
      "midi": 67,
      "hit": false,
      "t": 69625,
      "d": 270.8333333333285,
      "v": 58
    },
    {
      "midi": 57,
      "hit": false,
      "t": 70000,
      "d": 1491.6666666666715,
      "v": 39
    },
    {
      "midi": 60,
      "hit": false,
      "t": 70000,
      "d": 1637.5,
      "v": 58
    },
    {
      "midi": 65,
      "hit": false,
      "t": 70000,
      "d": 1704.1666666666715,
      "v": 60
    },
    {
      "midi": 41,
      "hit": false,
      "t": 70000,
      "d": 2000,
      "v": 48
    },
    {
      "midi": 69,
      "hit": false,
      "t": 70000,
      "d": 2000,
      "v": 59
    },
    {
      "midi": 65,
      "hit": false,
      "t": 70000,
      "d": 500,
      "v": 78
    },
    {
      "midi": 67,
      "hit": false,
      "t": 70500,
      "d": 500,
      "v": 74
    },
    {
      "midi": 69,
      "hit": false,
      "t": 71000,
      "d": 1000,
      "v": 76
    },
    {
      "midi": 57,
      "hit": false,
      "t": 71625,
      "d": 375,
      "v": 57
    },
    {
      "midi": 60,
      "hit": false,
      "t": 71750,
      "d": 250,
      "v": 45
    },
    {
      "midi": 65,
      "hit": false,
      "t": 71875,
      "d": 125,
      "v": 68
    },
    {
      "midi": 67,
      "hit": false,
      "t": 72000,
      "d": 29.166666666671517,
      "v": 66
    },
    {
      "midi": 64,
      "hit": false,
      "t": 72000,
      "d": 1387.5,
      "v": 64
    },
    {
      "midi": 48,
      "hit": false,
      "t": 72000,
      "d": 2000,
      "v": 53
    },
    {
      "midi": 60,
      "hit": false,
      "t": 72000,
      "d": 2000,
      "v": 52
    },
    {
      "midi": 67,
      "hit": false,
      "t": 72000,
      "d": 500,
      "v": 78
    },
    {
      "midi": 67,
      "hit": false,
      "t": 72500,
      "d": 500,
      "v": 74
    },
    {
      "midi": 64,
      "hit": false,
      "t": 73000,
      "d": 500,
      "v": 76
    },
    {
      "midi": 55,
      "hit": false,
      "t": 73250,
      "d": 750,
      "v": 66
    },
    {
      "midi": 64,
      "hit": false,
      "t": 73500,
      "d": 500,
      "v": 58
    },
    {
      "midi": 67,
      "hit": false,
      "t": 73500,
      "d": 500,
      "v": 74
    },
    {
      "midi": 67,
      "hit": false,
      "t": 73750,
      "d": 245.83333333332848,
      "v": 82
    },
    {
      "midi": 43,
      "hit": false,
      "t": 74000,
      "d": 1000,
      "v": 55
    },
    {
      "midi": 59,
      "hit": false,
      "t": 74000,
      "d": 1000,
      "v": 47
    },
    {
      "midi": 62,
      "hit": false,
      "t": 74000,
      "d": 1000,
      "v": 60
    },
    {
      "midi": 65,
      "hit": false,
      "t": 74000,
      "d": 1000,
      "v": 53
    },
    {
      "midi": 67,
      "hit": false,
      "t": 74000,
      "d": 1000,
      "v": 52
    },
    {
      "midi": 65,
      "hit": false,
      "t": 74000,
      "d": 500,
      "v": 78
    },
    {
      "midi": 62,
      "hit": false,
      "t": 74500,
      "d": 500,
      "v": 74
    },
    {
      "midi": 60,
      "hit": false,
      "t": 75000,
      "d": 733.3333333333285,
      "v": 47
    },
    {
      "midi": 64,
      "hit": false,
      "t": 75000,
      "d": 995.833333333343,
      "v": 56
    },
    {
      "midi": 48,
      "hit": false,
      "t": 75000,
      "d": 1000.0000000000146,
      "v": 57
    },
    {
      "midi": 67,
      "hit": false,
      "t": 75000,
      "d": 1000.0000000000146,
      "v": 37
    },
    {
      "midi": 60,
      "hit": false,
      "t": 75000,
      "d": 1000,
      "v": 76
    },
    {
      "midi": 55,
      "hit": false,
      "t": 75500,
      "d": 441.6666666666715,
      "v": 32
    },
    {
      "midi": 60,
      "hit": false,
      "t": 75750,
      "d": 245.83333333334303,
      "v": 49
    },
    {
      "midi": 72,
      "hit": false,
      "t": 76000,
      "d": 1000,
      "v": 78
    },
    {
      "midi": 69,
      "hit": false,
      "t": 76000.00000000001,
      "d": 845.8333333333285,
      "v": 51
    },
    {
      "midi": 60,
      "hit": false,
      "t": 76000.00000000001,
      "d": 858.3333333333285,
      "v": 51
    },
    {
      "midi": 41,
      "hit": false,
      "t": 76000.00000000001,
      "d": 2000,
      "v": 52
    },
    {
      "midi": 57,
      "hit": false,
      "t": 76750.00000000001,
      "d": 1250,
      "v": 46
    },
    {
      "midi": 69,
      "hit": false,
      "t": 77000,
      "d": 500,
      "v": 76
    },
    {
      "midi": 60,
      "hit": false,
      "t": 77000.00000000001,
      "d": 1000,
      "v": 43
    },
    {
      "midi": 69,
      "hit": false,
      "t": 77000.00000000001,
      "d": 1000,
      "v": 51
    },
    {
      "midi": 72,
      "hit": false,
      "t": 77500,
      "d": 500,
      "v": 74
    },
    {
      "midi": 71,
      "hit": false,
      "t": 78000,
      "d": 500,
      "v": 78
    },
    {
      "midi": 60,
      "hit": false,
      "t": 78000.00000000001,
      "d": 1295.8333333333285,
      "v": 55
    },
    {
      "midi": 64,
      "hit": false,
      "t": 78000.00000000001,
      "d": 1375,
      "v": 78
    },
    {
      "midi": 67,
      "hit": false,
      "t": 78000.00000000001,
      "d": 1375,
      "v": 54
    },
    {
      "midi": 48,
      "hit": false,
      "t": 78000.00000000001,
      "d": 2000,
      "v": 72
    },
    {
      "midi": 69,
      "hit": false,
      "t": 78500,
      "d": 500,
      "v": 74
    },
    {
      "midi": 67,
      "hit": false,
      "t": 79000,
      "d": 1000,
      "v": 76
    },
    {
      "midi": 55,
      "hit": false,
      "t": 79250.00000000001,
      "d": 716.6666666666715,
      "v": 63
    },
    {
      "midi": 60,
      "hit": false,
      "t": 79387.50000000001,
      "d": 562.5,
      "v": 53
    },
    {
      "midi": 64,
      "hit": false,
      "t": 79500.00000000001,
      "d": 420.8333333333285,
      "v": 59
    },
    {
      "midi": 67,
      "hit": false,
      "t": 79625.00000000001,
      "d": 270.8333333333285,
      "v": 58
    },
    {
      "midi": 69,
      "hit": false,
      "t": 80000,
      "d": 1000,
      "v": 78
    },
    {
      "midi": 69,
      "hit": false,
      "t": 80000.00000000001,
      "d": 1025,
      "v": 63
    },
    {
      "midi": 41,
      "hit": false,
      "t": 80000.00000000001,
      "d": 2000,
      "v": 46
    },
    {
      "midi": 57,
      "hit": false,
      "t": 80000.00000000001,
      "d": 2000,
      "v": 55
    },
    {
      "midi": 60,
      "hit": false,
      "t": 80000.00000000001,
      "d": 2000,
      "v": 43
    },
    {
      "midi": 65,
      "hit": false,
      "t": 80000.00000000001,
      "d": 2000,
      "v": 53
    },
    {
      "midi": 65,
      "hit": false,
      "t": 81000,
      "d": 500,
      "v": 76
    },
    {
      "midi": 77,
      "hit": false,
      "t": 81000.00000000001,
      "d": 545.8333333333285,
      "v": 76
    },
    {
      "midi": 69,
      "hit": false,
      "t": 81500,
      "d": 500,
      "v": 74
    },
    {
      "midi": 69,
      "hit": false,
      "t": 81500.00000000001,
      "d": 475,
      "v": 63
    },
    {
      "midi": 67,
      "hit": false,
      "t": 82000,
      "d": 500,
      "v": 78
    },
    {
      "midi": 60,
      "hit": false,
      "t": 82000.00000000001,
      "d": 1295.8333333333285,
      "v": 55
    },
    {
      "midi": 64,
      "hit": false,
      "t": 82000.00000000001,
      "d": 1375,
      "v": 78
    },
    {
      "midi": 67,
      "hit": false,
      "t": 82000.00000000001,
      "d": 1375,
      "v": 54
    },
    {
      "midi": 48,
      "hit": false,
      "t": 82000.00000000001,
      "d": 2000,
      "v": 72
    },
    {
      "midi": 65,
      "hit": false,
      "t": 82500,
      "d": 500,
      "v": 74
    },
    {
      "midi": 64,
      "hit": false,
      "t": 83000,
      "d": 1000,
      "v": 76
    },
    {
      "midi": 55,
      "hit": false,
      "t": 83250.00000000001,
      "d": 716.6666666666715,
      "v": 63
    },
    {
      "midi": 60,
      "hit": false,
      "t": 83387.50000000001,
      "d": 562.5,
      "v": 53
    },
    {
      "midi": 64,
      "hit": false,
      "t": 83500.00000000001,
      "d": 420.8333333333285,
      "v": 59
    },
    {
      "midi": 67,
      "hit": false,
      "t": 83625.00000000001,
      "d": 270.8333333333285,
      "v": 58
    },
    {
      "midi": 65,
      "hit": false,
      "t": 84000,
      "d": 666.6666666666715,
      "v": 78
    },
    {
      "midi": 69,
      "hit": false,
      "t": 84000.00000000001,
      "d": 1025,
      "v": 63
    },
    {
      "midi": 50,
      "hit": false,
      "t": 84000.00000000001,
      "d": 2000,
      "v": 46
    },
    {
      "midi": 57,
      "hit": false,
      "t": 84000.00000000001,
      "d": 2000,
      "v": 55
    },
    {
      "midi": 62,
      "hit": false,
      "t": 84000.00000000001,
      "d": 2000,
      "v": 43
    },
    {
      "midi": 65,
      "hit": false,
      "t": 84000.00000000001,
      "d": 2000,
      "v": 53
    },
    {
      "midi": 64,
      "hit": false,
      "t": 84666.66666666667,
      "d": 333.3333333333285,
      "v": 72
    },
    {
      "midi": 62,
      "hit": false,
      "t": 85000,
      "d": 500,
      "v": 76
    },
    {
      "midi": 77,
      "hit": false,
      "t": 85000.00000000001,
      "d": 545.8333333333285,
      "v": 76
    },
    {
      "midi": 65,
      "hit": false,
      "t": 85500,
      "d": 500,
      "v": 74
    },
    {
      "midi": 69,
      "hit": false,
      "t": 85500.00000000001,
      "d": 475,
      "v": 63
    },
    {
      "midi": 64,
      "hit": false,
      "t": 86000,
      "d": 500,
      "v": 78
    },
    {
      "midi": 60,
      "hit": false,
      "t": 86000.00000000001,
      "d": 412.5,
      "v": 45
    },
    {
      "midi": 64,
      "hit": false,
      "t": 86000.00000000001,
      "d": 520.8333333333285,
      "v": 55
    },
    {
      "midi": 67,
      "hit": false,
      "t": 86000.00000000001,
      "d": 716.666666666657,
      "v": 58
    },
    {
      "midi": 48,
      "hit": false,
      "t": 86000.00000000001,
      "d": 1966.666666666657,
      "v": 63
    },
    {
      "midi": 55,
      "hit": false,
      "t": 86250.00000000001,
      "d": 812.4999999999854,
      "v": 57
    },
    {
      "midi": 62,
      "hit": false,
      "t": 86500,
      "d": 500,
      "v": 74
    },
    {
      "midi": 60,
      "hit": false,
      "t": 86520.83333333334,
      "d": 916.6666666666715,
      "v": 55
    },
    {
      "midi": 64,
      "hit": false,
      "t": 86750,
      "d": 516.6666666666715,
      "v": 41
    },
    {
      "midi": 67,
      "hit": false,
      "t": 87000,
      "d": 345.83333333334303,
      "v": 56
    },
    {
      "midi": 60,
      "hit": false,
      "t": 87000,
      "d": 1000,
      "v": 76
    },
    {
      "midi": 55,
      "hit": false,
      "t": 87250,
      "d": 458.33333333334303,
      "v": 52
    },
    {
      "midi": 60,
      "hit": false,
      "t": 87500.00000000001,
      "d": 283.3333333333285,
      "v": 10
    },
    {
      "midi": 67,
      "hit": false,
      "t": 87500.00000000001,
      "d": 283.3333333333285,
      "v": 45
    },
    {
      "midi": 62,
      "hit": false,
      "t": 88000,
      "d": 379.1666666666715,
      "v": 52
    },
    {
      "midi": 65,
      "hit": false,
      "t": 88000,
      "d": 508.3333333333285,
      "v": 59
    },
    {
      "midi": 50,
      "hit": false,
      "t": 88000,
      "d": 1000,
      "v": 72
    },
    {
      "midi": 62,
      "hit": false,
      "t": 88000,
      "d": 500,
      "v": 78
    },
    {
      "midi": 57,
      "hit": false,
      "t": 88250,
      "d": 750,
      "v": 57
    },
    {
      "midi": 62,
      "hit": false,
      "t": 88500,
      "d": 495.8333333333285,
      "v": 55
    },
    {
      "midi": 62,
      "hit": false,
      "t": 88500,
      "d": 500,
      "v": 74
    },
    {
      "midi": 69,
      "hit": false,
      "t": 88750,
      "d": 225,
      "v": 62
    },
    {
      "midi": 41,
      "hit": false,
      "t": 89000,
      "d": 1000,
      "v": 55
    },
    {
      "midi": 57,
      "hit": false,
      "t": 89000,
      "d": 1000,
      "v": 47
    },
    {
      "midi": 60,
      "hit": false,
      "t": 89000,
      "d": 1000,
      "v": 60
    },
    {
      "midi": 65,
      "hit": false,
      "t": 89000,
      "d": 1000,
      "v": 53
    },
    {
      "midi": 69,
      "hit": false,
      "t": 89000,
      "d": 1000,
      "v": 52
    },
    {
      "midi": 72,
      "hit": false,
      "t": 89000,
      "d": 500,
      "v": 76
    },
    {
      "midi": 72,
      "hit": false,
      "t": 89500,
      "d": 500,
      "v": 74
    },
    {
      "midi": 62,
      "hit": false,
      "t": 90000,
      "d": 379.1666666666715,
      "v": 52
    },
    {
      "midi": 67,
      "hit": false,
      "t": 90000,
      "d": 508.3333333333285,
      "v": 59
    },
    {
      "midi": 43,
      "hit": false,
      "t": 90000,
      "d": 1000,
      "v": 72
    },
    {
      "midi": 71,
      "hit": false,
      "t": 90000,
      "d": 500,
      "v": 78
    },
    {
      "midi": 59,
      "hit": false,
      "t": 90250,
      "d": 750,
      "v": 57
    },
    {
      "midi": 62,
      "hit": false,
      "t": 90500,
      "d": 495.8333333333285,
      "v": 55
    },
    {
      "midi": 69,
      "hit": false,
      "t": 90500,
      "d": 500,
      "v": 74
    },
    {
      "midi": 71,
      "hit": false,
      "t": 90750,
      "d": 225,
      "v": 62
    },
    {
      "midi": 43,
      "hit": false,
      "t": 91000,
      "d": 1000,
      "v": 55
    },
    {
      "midi": 59,
      "hit": false,
      "t": 91000,
      "d": 1000,
      "v": 47
    },
    {
      "midi": 62,
      "hit": false,
      "t": 91000,
      "d": 1000,
      "v": 60
    },
    {
      "midi": 65,
      "hit": false,
      "t": 91000,
      "d": 1000,
      "v": 53
    },
    {
      "midi": 67,
      "hit": false,
      "t": 91000,
      "d": 1000,
      "v": 52
    },
    {
      "midi": 67,
      "hit": false,
      "t": 91000,
      "d": 1000,
      "v": 76
    },
    {
      "midi": 60,
      "hit": false,
      "t": 92000,
      "d": 1295.8333333333285,
      "v": 55
    },
    {
      "midi": 64,
      "hit": false,
      "t": 92000,
      "d": 1375,
      "v": 78
    },
    {
      "midi": 67,
      "hit": false,
      "t": 92000,
      "d": 1375,
      "v": 54
    },
    {
      "midi": 48,
      "hit": false,
      "t": 92000,
      "d": 2000,
      "v": 72
    },
    {
      "midi": 67,
      "hit": false,
      "t": 92000,
      "d": 500,
      "v": 78
    },
    {
      "midi": 67,
      "hit": false,
      "t": 92500,
      "d": 500,
      "v": 74
    },
    {
      "midi": 64,
      "hit": false,
      "t": 93000,
      "d": 500,
      "v": 76
    },
    {
      "midi": 55,
      "hit": false,
      "t": 93250,
      "d": 716.6666666666715,
      "v": 63
    },
    {
      "midi": 60,
      "hit": false,
      "t": 93387.5,
      "d": 562.5,
      "v": 53
    },
    {
      "midi": 64,
      "hit": false,
      "t": 93500,
      "d": 420.8333333333285,
      "v": 59
    },
    {
      "midi": 60,
      "hit": false,
      "t": 93500,
      "d": 500,
      "v": 74
    },
    {
      "midi": 67,
      "hit": false,
      "t": 93625,
      "d": 270.8333333333285,
      "v": 58
    },
    {
      "midi": 60,
      "hit": false,
      "t": 94000,
      "d": 412.5,
      "v": 45
    },
    {
      "midi": 65,
      "hit": false,
      "t": 94000,
      "d": 520.8333333333285,
      "v": 55
    },
    {
      "midi": 69,
      "hit": false,
      "t": 94000,
      "d": 716.666666666657,
      "v": 58
    },
    {
      "midi": 41,
      "hit": false,
      "t": 94000,
      "d": 1966.666666666657,
      "v": 63
    },
    {
      "midi": 65,
      "hit": false,
      "t": 94000,
      "d": 500,
      "v": 78
    },
    {
      "midi": 57,
      "hit": false,
      "t": 94250,
      "d": 812.4999999999854,
      "v": 57
    },
    {
      "midi": 67,
      "hit": false,
      "t": 94500,
      "d": 500,
      "v": 74
    },
    {
      "midi": 60,
      "hit": false,
      "t": 94520.83333333333,
      "d": 916.6666666666715,
      "v": 55
    },
    {
      "midi": 65,
      "hit": false,
      "t": 94749.99999999999,
      "d": 516.6666666666715,
      "v": 41
    },
    {
      "midi": 69,
      "hit": false,
      "t": 94999.99999999999,
      "d": 345.83333333334303,
      "v": 56
    },
    {
      "midi": 69,
      "hit": false,
      "t": 95000,
      "d": 1000,
      "v": 76
    },
    {
      "midi": 57,
      "hit": false,
      "t": 95249.99999999999,
      "d": 458.33333333334303,
      "v": 52
    },
    {
      "midi": 60,
      "hit": false,
      "t": 95500,
      "d": 283.3333333333285,
      "v": 10
    },
    {
      "midi": 69,
      "hit": false,
      "t": 95500,
      "d": 283.3333333333285,
      "v": 45
    },
    {
      "midi": 60,
      "hit": false,
      "t": 95999.99999999999,
      "d": 1295.8333333333285,
      "v": 55
    },
    {
      "midi": 64,
      "hit": false,
      "t": 95999.99999999999,
      "d": 1375,
      "v": 78
    },
    {
      "midi": 67,
      "hit": false,
      "t": 95999.99999999999,
      "d": 1375,
      "v": 54
    },
    {
      "midi": 48,
      "hit": false,
      "t": 95999.99999999999,
      "d": 2000,
      "v": 72
    },
    {
      "midi": 67,
      "hit": false,
      "t": 96000,
      "d": 500,
      "v": 78
    },
    {
      "midi": 67,
      "hit": false,
      "t": 96500,
      "d": 500,
      "v": 74
    },
    {
      "midi": 64,
      "hit": false,
      "t": 97000,
      "d": 500,
      "v": 76
    },
    {
      "midi": 55,
      "hit": false,
      "t": 97249.99999999999,
      "d": 716.6666666666715,
      "v": 63
    },
    {
      "midi": 60,
      "hit": false,
      "t": 97387.49999999999,
      "d": 562.5,
      "v": 53
    },
    {
      "midi": 64,
      "hit": false,
      "t": 97499.99999999999,
      "d": 420.8333333333285,
      "v": 59
    },
    {
      "midi": 64,
      "hit": false,
      "t": 97500,
      "d": 250,
      "v": 74
    },
    {
      "midi": 67,
      "hit": false,
      "t": 97624.99999999999,
      "d": 270.8333333333285,
      "v": 58
    },
    {
      "midi": 67,
      "hit": false,
      "t": 97750,
      "d": 250,
      "v": 72
    },
    {
      "midi": 65,
      "hit": false,
      "t": 97999.99999999999,
      "d": 1025,
      "v": 63
    },
    {
      "midi": 43,
      "hit": false,
      "t": 97999.99999999999,
      "d": 2000,
      "v": 46
    },
    {
      "midi": 55,
      "hit": false,
      "t": 97999.99999999999,
      "d": 2000,
      "v": 55
    },
    {
      "midi": 59,
      "hit": false,
      "t": 97999.99999999999,
      "d": 2000,
      "v": 43
    },
    {
      "midi": 62,
      "hit": false,
      "t": 97999.99999999999,
      "d": 2000,
      "v": 53
    },
    {
      "midi": 65,
      "hit": false,
      "t": 98000,
      "d": 500,
      "v": 78
    },
    {
      "midi": 64,
      "hit": false,
      "t": 98500,
      "d": 500,
      "v": 74
    },
    {
      "midi": 74,
      "hit": false,
      "t": 98999.99999999999,
      "d": 545.8333333333285,
      "v": 76
    },
    {
      "midi": 62,
      "hit": false,
      "t": 99000,
      "d": 1000,
      "v": 76
    },
    {
      "midi": 65,
      "hit": false,
      "t": 99499.99999999999,
      "d": 475,
      "v": 63
    },
    {
      "midi": 67,
      "hit": false,
      "t": 99999.99999999999,
      "d": 29.166666666671517,
      "v": 66
    },
    {
      "midi": 64,
      "hit": false,
      "t": 99999.99999999999,
      "d": 1387.5,
      "v": 64
    },
    {
      "midi": 48,
      "hit": false,
      "t": 99999.99999999999,
      "d": 2000,
      "v": 53
    },
    {
      "midi": 60,
      "hit": false,
      "t": 99999.99999999999,
      "d": 2000,
      "v": 52
    },
    {
      "midi": 67,
      "hit": false,
      "t": 100000,
      "d": 500,
      "v": 78
    },
    {
      "midi": 67,
      "hit": false,
      "t": 100500,
      "d": 500,
      "v": 74
    },
    {
      "midi": 64,
      "hit": false,
      "t": 101000,
      "d": 500,
      "v": 76
    },
    {
      "midi": 55,
      "hit": false,
      "t": 101249.99999999999,
      "d": 750,
      "v": 66
    },
    {
      "midi": 64,
      "hit": false,
      "t": 101499.99999999999,
      "d": 500,
      "v": 58
    },
    {
      "midi": 60,
      "hit": false,
      "t": 101500,
      "d": 500,
      "v": 74
    },
    {
      "midi": 67,
      "hit": false,
      "t": 101749.99999999999,
      "d": 245.83333333332848,
      "v": 82
    },
    {
      "midi": 69,
      "hit": false,
      "t": 101999.99999999999,
      "d": 1025,
      "v": 63
    },
    {
      "midi": 41,
      "hit": false,
      "t": 101999.99999999999,
      "d": 2000,
      "v": 46
    },
    {
      "midi": 57,
      "hit": false,
      "t": 101999.99999999999,
      "d": 2000,
      "v": 55
    },
    {
      "midi": 60,
      "hit": false,
      "t": 101999.99999999999,
      "d": 2000,
      "v": 43
    },
    {
      "midi": 65,
      "hit": false,
      "t": 101999.99999999999,
      "d": 2000,
      "v": 53
    },
    {
      "midi": 65,
      "hit": false,
      "t": 102000,
      "d": 500,
      "v": 78
    },
    {
      "midi": 67,
      "hit": false,
      "t": 102500,
      "d": 500,
      "v": 74
    },
    {
      "midi": 77,
      "hit": false,
      "t": 102999.99999999999,
      "d": 545.8333333333285,
      "v": 76
    },
    {
      "midi": 69,
      "hit": false,
      "t": 103000,
      "d": 1000,
      "v": 76
    },
    {
      "midi": 69,
      "hit": false,
      "t": 103499.99999999999,
      "d": 475,
      "v": 63
    },
    {
      "midi": 67,
      "hit": false,
      "t": 103999.99999999999,
      "d": 1025,
      "v": 63
    },
    {
      "midi": 48,
      "hit": false,
      "t": 103999.99999999999,
      "d": 2000,
      "v": 46
    },
    {
      "midi": 55,
      "hit": false,
      "t": 103999.99999999999,
      "d": 2000,
      "v": 55
    },
    {
      "midi": 60,
      "hit": false,
      "t": 103999.99999999999,
      "d": 2000,
      "v": 43
    },
    {
      "midi": 64,
      "hit": false,
      "t": 103999.99999999999,
      "d": 2000,
      "v": 53
    },
    {
      "midi": 67,
      "hit": false,
      "t": 104000,
      "d": 500,
      "v": 78
    },
    {
      "midi": 67,
      "hit": false,
      "t": 104500,
      "d": 500,
      "v": 74
    },
    {
      "midi": 76,
      "hit": false,
      "t": 104999.99999999999,
      "d": 545.8333333333285,
      "v": 76
    },
    {
      "midi": 64,
      "hit": false,
      "t": 105000,
      "d": 500,
      "v": 76
    },
    {
      "midi": 67,
      "hit": false,
      "t": 105499.99999999999,
      "d": 475,
      "v": 63
    },
    {
      "midi": 67,
      "hit": false,
      "t": 105500,
      "d": 500,
      "v": 74
    },
    {
      "midi": 59,
      "hit": false,
      "t": 105999.99999999999,
      "d": 379.1666666666715,
      "v": 52
    },
    {
      "midi": 62,
      "hit": false,
      "t": 105999.99999999999,
      "d": 508.3333333333285,
      "v": 59
    },
    {
      "midi": 43,
      "hit": false,
      "t": 105999.99999999999,
      "d": 1000,
      "v": 72
    },
    {
      "midi": 69,
      "hit": false,
      "t": 106000,
      "d": 500,
      "v": 78
    },
    {
      "midi": 55,
      "hit": false,
      "t": 106249.99999999999,
      "d": 750,
      "v": 57
    },
    {
      "midi": 59,
      "hit": false,
      "t": 106499.99999999999,
      "d": 495.8333333333285,
      "v": 55
    },
    {
      "midi": 71,
      "hit": false,
      "t": 106500,
      "d": 500,
      "v": 74
    },
    {
      "midi": 65,
      "hit": false,
      "t": 106749.99999999999,
      "d": 225,
      "v": 62
    },
    {
      "midi": 60,
      "hit": false,
      "t": 106999.99999999999,
      "d": 379.1666666666715,
      "v": 52
    },
    {
      "midi": 64,
      "hit": false,
      "t": 106999.99999999999,
      "d": 508.3333333333285,
      "v": 59
    },
    {
      "midi": 48,
      "hit": false,
      "t": 106999.99999999999,
      "d": 1000,
      "v": 72
    },
    {
      "midi": 72,
      "hit": false,
      "t": 107000,
      "d": 1000,
      "v": 76
    },
    {
      "midi": 55,
      "hit": false,
      "t": 107249.99999999999,
      "d": 750,
      "v": 57
    },
    {
      "midi": 60,
      "hit": false,
      "t": 107499.99999999999,
      "d": 495.8333333333285,
      "v": 55
    },
    {
      "midi": 67,
      "hit": false,
      "t": 107749.99999999999,
      "d": 225,
      "v": 62
    },
    {
      "midi": 55,
      "hit": false,
      "t": 107999.99999999999,
      "d": 1925,
      "v": 45
    },
    {
      "midi": 60,
      "hit": false,
      "t": 107999.99999999999,
      "d": 1925,
      "v": 45
    },
    {
      "midi": 62,
      "hit": false,
      "t": 109249.99999999999,
      "d": 241.66666666667152,
      "v": 31
    },
    {
      "midi": 64,
      "hit": false,
      "t": 109499.99999999999,
      "d": 425,
      "v": 11
    },
    {
      "midi": 64,
      "hit": false,
      "t": 109999.99999999999,
      "d": 75,
      "v": 58
    },
    {
      "midi": 55,
      "hit": false,
      "t": 109999.99999999999,
      "d": 1962.5,
      "v": 58
    },
    {
      "midi": 60,
      "hit": false,
      "t": 109999.99999999999,
      "d": 1962.5,
      "v": 58
    },
    {
      "midi": 36,
      "hit": false,
      "t": 110999.99999999999,
      "d": 1000,
      "v": 23
    }
  ]
}