{
  "jsonPath": "Rock/Album Rock/Electric Light Orchestra (ELO)/hold-on-tight-live.json",
  "path": "Rock\\Album Rock\\Electric Light Orchestra (ELO)\\Hold On Tight - Live.mid",
  "name": "Hold On Tight - Live",
  "difficulty": "Advanced",
  "bpm": 120,
  "notes": [
    {
      "midi": 50,
      "hit": false,
      "t": 8163.2,
      "d": 125.42416666666668,
      "v": 95
    },
    {
      "midi": 55,
      "hit": false,
      "t": 8163.2,
      "d": 133.9275000000007,
      "v": 72
    },
    {
      "midi": 43,
      "hit": false,
      "t": 8163.2,
      "d": 144.5566666666682,
      "v": 104
    },
    {
      "midi": 62,
      "hit": false,
      "t": 8163.2,
      "d": 327.3783333333331,
      "v": 76
    },
    {
      "midi": 55,
      "hit": false,
      "t": 8367.28,
      "d": 106.29166666666606,
      "v": 60
    },
    {
      "midi": 50,
      "hit": false,
      "t": 8367.28,
      "d": 153.0599999999995,
      "v": 87
    },
    {
      "midi": 43,
      "hit": false,
      "t": 8367.28,
      "d": 352.88833333333423,
      "v": 71
    },
    {
      "midi": 55,
      "hit": false,
      "t": 8571.36,
      "d": 95.66250000000036,
      "v": 72
    },
    {
      "midi": 52,
      "hit": false,
      "t": 8571.36,
      "d": 104.16583333333438,
      "v": 113
    },
    {
      "midi": 64,
      "hit": false,
      "t": 8571.36,
      "d": 121.17250000000058,
      "v": 84
    },
    {
      "midi": 55,
      "hit": false,
      "t": 8775.440000000002,
      "d": 102.04000000000087,
      "v": 52
    },
    {
      "midi": 50,
      "hit": false,
      "t": 8775.440000000002,
      "d": 106.29166666666788,
      "v": 87
    },
    {
      "midi": 62,
      "hit": false,
      "t": 8775.440000000002,
      "d": 119.04666666666708,
      "v": 76
    },
    {
      "midi": 43,
      "hit": false,
      "t": 8775.440000000002,
      "d": 140.3050000000003,
      "v": 60
    },
    {
      "midi": 50,
      "hit": false,
      "t": 8979.520000000002,
      "d": 97.78833333333387,
      "v": 91
    },
    {
      "midi": 55,
      "hit": false,
      "t": 8979.520000000002,
      "d": 102.04000000000087,
      "v": 64
    },
    {
      "midi": 62,
      "hit": false,
      "t": 8979.520000000002,
      "d": 110.54333333333489,
      "v": 76
    },
    {
      "midi": 43,
      "hit": false,
      "t": 8979.520000000002,
      "d": 125.42416666666759,
      "v": 75
    },
    {
      "midi": 50,
      "hit": false,
      "t": 9183.600000000004,
      "d": 93.53666666666686,
      "v": 71
    },
    {
      "midi": 55,
      "hit": false,
      "t": 9183.600000000004,
      "d": 123.29833333333409,
      "v": 64
    },
    {
      "midi": 43,
      "hit": false,
      "t": 9183.600000000004,
      "d": 136.05333333333328,
      "v": 62
    },
    {
      "midi": 62,
      "hit": false,
      "t": 9183.600000000004,
      "d": 150.934166666666,
      "v": 68
    },
    {
      "midi": 50,
      "hit": false,
      "t": 9387.680000000004,
      "d": 25.51000000000022,
      "v": 62
    },
    {
      "midi": 52,
      "hit": false,
      "t": 9387.680000000004,
      "d": 104.16583333333438,
      "v": 104
    },
    {
      "midi": 55,
      "hit": false,
      "t": 9387.680000000004,
      "d": 104.16583333333438,
      "v": 76
    },
    {
      "midi": 64,
      "hit": false,
      "t": 9387.680000000004,
      "d": 144.5566666666673,
      "v": 84
    },
    {
      "midi": 43,
      "hit": false,
      "t": 9387.680000000004,
      "d": 161.5633333333335,
      "v": 59
    },
    {
      "midi": 50,
      "hit": false,
      "t": 9591.760000000004,
      "d": 87.15916666666635,
      "v": 91
    },
    {
      "midi": 43,
      "hit": false,
      "t": 9591.760000000004,
      "d": 108.41749999999956,
      "v": 79
    },
    {
      "midi": 55,
      "hit": false,
      "t": 9591.760000000004,
      "d": 110.54333333333307,
      "v": 56
    },
    {
      "midi": 62,
      "hit": false,
      "t": 9591.760000000004,
      "d": 119.04666666666708,
      "v": 68
    },
    {
      "midi": 50,
      "hit": false,
      "t": 9795.840000000004,
      "d": 97.78833333333387,
      "v": 104
    },
    {
      "midi": 55,
      "hit": false,
      "t": 9795.840000000004,
      "d": 112.66916666666657,
      "v": 76
    },
    {
      "midi": 43,
      "hit": false,
      "t": 9795.840000000004,
      "d": 114.79500000000007,
      "v": 95
    },
    {
      "midi": 62,
      "hit": false,
      "t": 9795.840000000004,
      "d": 129.67583333333278,
      "v": 72
    },
    {
      "midi": 50,
      "hit": false,
      "t": 9999.920000000004,
      "d": 91.41083333333336,
      "v": 83
    },
    {
      "midi": 55,
      "hit": false,
      "t": 9999.920000000004,
      "d": 108.41749999999956,
      "v": 64
    },
    {
      "midi": 62,
      "hit": false,
      "t": 9999.920000000004,
      "d": 112.66916666666657,
      "v": 68
    },
    {
      "midi": 43,
      "hit": false,
      "t": 9999.920000000004,
      "d": 138.1791666666668,
      "v": 63
    },
    {
      "midi": 52,
      "hit": false,
      "t": 10204.000000000004,
      "d": 110.54333333333307,
      "v": 95
    },
    {
      "midi": 55,
      "hit": false,
      "t": 10204.000000000004,
      "d": 123.29833333333227,
      "v": 76
    },
    {
      "midi": 64,
      "hit": false,
      "t": 10204.000000000004,
      "d": 129.67583333333278,
      "v": 80
    },
    {
      "midi": 43,
      "hit": false,
      "t": 10204.000000000004,
      "d": 155.185833333333,
      "v": 63
    },
    {
      "midi": 50,
      "hit": false,
      "t": 10408.080000000004,
      "d": 87.15916666666635,
      "v": 91
    },
    {
      "midi": 43,
      "hit": false,
      "t": 10408.080000000004,
      "d": 108.41749999999956,
      "v": 67
    },
    {
      "midi": 55,
      "hit": false,
      "t": 10408.080000000004,
      "d": 114.79500000000007,
      "v": 72
    },
    {
      "midi": 62,
      "hit": false,
      "t": 10408.080000000004,
      "d": 125.42416666666759,
      "v": 72
    },
    {
      "midi": 50,
      "hit": false,
      "t": 10612.160000000005,
      "d": 97.78833333333387,
      "v": 91
    },
    {
      "midi": 55,
      "hit": false,
      "t": 10612.160000000005,
      "d": 108.41750000000138,
      "v": 60
    },
    {
      "midi": 43,
      "hit": false,
      "t": 10612.160000000005,
      "d": 119.0466666666689,
      "v": 87
    },
    {
      "midi": 62,
      "hit": false,
      "t": 10612.160000000005,
      "d": 123.2983333333359,
      "v": 76
    },
    {
      "midi": 50,
      "hit": false,
      "t": 10816.240000000007,
      "d": 89.28499999999985,
      "v": 83
    },
    {
      "midi": 55,
      "hit": false,
      "t": 10816.240000000007,
      "d": 99.91416666666737,
      "v": 68
    },
    {
      "midi": 43,
      "hit": false,
      "t": 10816.240000000007,
      "d": 108.41750000000138,
      "v": 58
    },
    {
      "midi": 62,
      "hit": false,
      "t": 10816.240000000007,
      "d": 114.79500000000189,
      "v": 80
    },
    {
      "midi": 52,
      "hit": false,
      "t": 11020.320000000009,
      "d": 123.29833333333409,
      "v": 95
    },
    {
      "midi": 55,
      "hit": false,
      "t": 11020.320000000009,
      "d": 123.29833333333409,
      "v": 76
    },
    {
      "midi": 64,
      "hit": false,
      "t": 11020.320000000009,
      "d": 138.1791666666668,
      "v": 80
    },
    {
      "midi": 43,
      "hit": false,
      "t": 11020.320000000009,
      "d": 146.6825000000008,
      "v": 75
    },
    {
      "midi": 50,
      "hit": false,
      "t": 11224.400000000009,
      "d": 108.41749999999956,
      "v": 91
    },
    {
      "midi": 55,
      "hit": false,
      "t": 11224.400000000009,
      "d": 116.92083333333358,
      "v": 60
    },
    {
      "midi": 43,
      "hit": false,
      "t": 11224.400000000009,
      "d": 125.42416666666759,
      "v": 79
    },
    {
      "midi": 62,
      "hit": false,
      "t": 11224.400000000009,
      "d": 131.8016666666681,
      "v": 72
    },
    {
      "midi": 50,
      "hit": false,
      "t": 11428.48000000001,
      "d": 112.66916666666657,
      "v": 95
    },
    {
      "midi": 55,
      "hit": false,
      "t": 11428.48000000001,
      "d": 123.29833333333409,
      "v": 68
    },
    {
      "midi": 43,
      "hit": false,
      "t": 11428.48000000001,
      "d": 125.42416666666759,
      "v": 83
    },
    {
      "midi": 62,
      "hit": false,
      "t": 11428.48000000001,
      "d": 133.9275000000016,
      "v": 68
    },
    {
      "midi": 50,
      "hit": false,
      "t": 11632.560000000012,
      "d": 102.04000000000087,
      "v": 83
    },
    {
      "midi": 62,
      "hit": false,
      "t": 11632.560000000012,
      "d": 119.04666666666708,
      "v": 64
    },
    {
      "midi": 55,
      "hit": false,
      "t": 11632.560000000012,
      "d": 129.6758333333346,
      "v": 60
    },
    {
      "midi": 43,
      "hit": false,
      "t": 11632.560000000012,
      "d": 546.3391666666703,
      "v": 67
    },
    {
      "midi": 52,
      "hit": false,
      "t": 11836.640000000014,
      "d": 119.04666666666708,
      "v": 91
    },
    {
      "midi": 55,
      "hit": false,
      "t": 11836.640000000014,
      "d": 136.05333333333328,
      "v": 76
    },
    {
      "midi": 64,
      "hit": false,
      "t": 11836.640000000014,
      "d": 140.3050000000003,
      "v": 84
    },
    {
      "midi": 50,
      "hit": false,
      "t": 12040.720000000014,
      "d": 95.66250000000036,
      "v": 79
    },
    {
      "midi": 55,
      "hit": false,
      "t": 12040.720000000014,
      "d": 127.55000000000109,
      "v": 51
    },
    {
      "midi": 62,
      "hit": false,
      "t": 12040.720000000014,
      "d": 138.1791666666686,
      "v": 64
    },
    {
      "midi": 55,
      "hit": false,
      "t": 12244.800000000016,
      "d": 110.54333333333307,
      "v": 72
    },
    {
      "midi": 50,
      "hit": false,
      "t": 12244.800000000016,
      "d": 112.66916666666657,
      "v": 91
    },
    {
      "midi": 62,
      "hit": false,
      "t": 12244.800000000016,
      "d": 125.42416666666577,
      "v": 76
    },
    {
      "midi": 43,
      "hit": false,
      "t": 12244.800000000016,
      "d": 127.54999999999927,
      "v": 83
    },
    {
      "midi": 50,
      "hit": false,
      "t": 12448.880000000016,
      "d": 95.66250000000036,
      "v": 75
    },
    {
      "midi": 55,
      "hit": false,
      "t": 12448.880000000016,
      "d": 106.29166666666788,
      "v": 50
    },
    {
      "midi": 62,
      "hit": false,
      "t": 12448.880000000016,
      "d": 110.54333333333489,
      "v": 56
    },
    {
      "midi": 43,
      "hit": false,
      "t": 12448.880000000016,
      "d": 114.79500000000189,
      "v": 50
    },
    {
      "midi": 52,
      "hit": false,
      "t": 12652.960000000017,
      "d": 112.66916666666657,
      "v": 95
    },
    {
      "midi": 55,
      "hit": false,
      "t": 12652.960000000017,
      "d": 125.42416666666577,
      "v": 64
    },
    {
      "midi": 64,
      "hit": false,
      "t": 12652.960000000017,
      "d": 136.05333333333328,
      "v": 84
    },
    {
      "midi": 43,
      "hit": false,
      "t": 12652.960000000017,
      "d": 350.7624999999989,
      "v": 75
    },
    {
      "midi": 50,
      "hit": false,
      "t": 12857.040000000017,
      "d": 110.54333333333307,
      "v": 79
    },
    {
      "midi": 55,
      "hit": false,
      "t": 12857.040000000017,
      "d": 114.79500000000007,
      "v": 64
    },
    {
      "midi": 62,
      "hit": false,
      "t": 12857.040000000017,
      "d": 131.80166666666628,
      "v": 76
    },
    {
      "midi": 50,
      "hit": false,
      "t": 13061.120000000015,
      "d": 104.16583333333256,
      "v": 83
    },
    {
      "midi": 55,
      "hit": false,
      "t": 13061.120000000015,
      "d": 110.54333333333307,
      "v": 64
    },
    {
      "midi": 43,
      "hit": false,
      "t": 13061.120000000015,
      "d": 116.92083333333358,
      "v": 75
    },
    {
      "midi": 62,
      "hit": false,
      "t": 13061.120000000015,
      "d": 140.3050000000003,
      "v": 80
    },
    {
      "midi": 50,
      "hit": false,
      "t": 13265.200000000015,
      "d": 87.15916666666635,
      "v": 79
    },
    {
      "midi": 55,
      "hit": false,
      "t": 13265.200000000015,
      "d": 112.66916666666657,
      "v": 64
    },
    {
      "midi": 62,
      "hit": false,
      "t": 13265.200000000015,
      "d": 112.66916666666657,
      "v": 60
    },
    {
      "midi": 43,
      "hit": false,
      "t": 13265.200000000015,
      "d": 114.79500000000007,
      "v": 60
    },
    {
      "midi": 52,
      "hit": false,
      "t": 13469.280000000015,
      "d": 114.79500000000007,
      "v": 104
    },
    {
      "midi": 55,
      "hit": false,
      "t": 13469.280000000015,
      "d": 114.79500000000007,
      "v": 72
    },
    {
      "midi": 64,
      "hit": false,
      "t": 13469.280000000015,
      "d": 133.92749999999978,
      "v": 80
    },
    {
      "midi": 43,
      "hit": false,
      "t": 13469.280000000015,
      "d": 167.940833333334,
      "v": 79
    },
    {
      "midi": 50,
      "hit": false,
      "t": 13673.360000000015,
      "d": 82.90749999999935,
      "v": 91
    },
    {
      "midi": 43,
      "hit": false,
      "t": 13673.360000000015,
      "d": 121.17249999999876,
      "v": 49
    },
    {
      "midi": 55,
      "hit": false,
      "t": 13673.360000000015,
      "d": 121.17249999999876,
      "v": 68
    },
    {
      "midi": 62,
      "hit": false,
      "t": 13673.360000000015,
      "d": 129.67583333333278,
      "v": 72
    },
    {
      "midi": 50,
      "hit": false,
      "t": 13877.440000000015,
      "d": 95.66250000000036,
      "v": 91
    },
    {
      "midi": 43,
      "hit": false,
      "t": 13877.440000000015,
      "d": 114.79500000000007,
      "v": 71
    },
    {
      "midi": 55,
      "hit": false,
      "t": 13877.440000000015,
      "d": 127.54999999999927,
      "v": 60
    },
    {
      "midi": 62,
      "hit": false,
      "t": 13877.440000000015,
      "d": 127.54999999999927,
      "v": 72
    },
    {
      "midi": 50,
      "hit": false,
      "t": 14081.520000000015,
      "d": 93.53666666666686,
      "v": 83
    },
    {
      "midi": 43,
      "hit": false,
      "t": 14081.520000000015,
      "d": 119.04666666666708,
      "v": 56
    },
    {
      "midi": 55,
      "hit": false,
      "t": 14081.520000000015,
      "d": 123.29833333333409,
      "v": 68
    },
    {
      "midi": 62,
      "hit": false,
      "t": 14081.520000000015,
      "d": 127.55000000000109,
      "v": 52
    },
    {
      "midi": 64,
      "hit": false,
      "t": 14285.600000000017,
      "d": 127.54999999999927,
      "v": 84
    },
    {
      "midi": 55,
      "hit": false,
      "t": 14285.600000000017,
      "d": 133.92749999999978,
      "v": 60
    },
    {
      "midi": 52,
      "hit": false,
      "t": 14285.600000000017,
      "d": 148.80833333333248,
      "v": 91
    },
    {
      "midi": 43,
      "hit": false,
      "t": 14285.600000000017,
      "d": 167.9408333333322,
      "v": 75
    },
    {
      "midi": 50,
      "hit": false,
      "t": 14489.680000000015,
      "d": 82.90749999999935,
      "v": 91
    },
    {
      "midi": 43,
      "hit": false,
      "t": 14489.680000000015,
      "d": 104.16583333333256,
      "v": 87
    },
    {
      "midi": 55,
      "hit": false,
      "t": 14489.680000000015,
      "d": 104.16583333333256,
      "v": 76
    },
    {
      "midi": 62,
      "hit": false,
      "t": 14489.680000000015,
      "d": 110.54333333333307,
      "v": 80
    },
    {
      "midi": 55,
      "hit": false,
      "t": 14693.760000000015,
      "d": 87.15916666666635,
      "v": 82
    },
    {
      "midi": 43,
      "hit": false,
      "t": 14693.760000000015,
      "d": 106.29166666666606,
      "v": 82
    },
    {
      "midi": 50,
      "hit": false,
      "t": 14693.760000000015,
      "d": 108.41749999999956,
      "v": 82
    },
    {
      "midi": 62,
      "hit": false,
      "t": 14693.760000000015,
      "d": 108.41749999999956,
      "v": 82
    },
    {
      "midi": 43,
      "hit": false,
      "t": 14897.840000000015,
      "d": 27.63583333333372,
      "v": 82
    },
    {
      "midi": 55,
      "hit": false,
      "t": 14897.840000000015,
      "d": 114.79500000000007,
      "v": 82
    },
    {
      "midi": 62,
      "hit": false,
      "t": 14897.840000000015,
      "d": 116.92083333333358,
      "v": 82
    },
    {
      "midi": 50,
      "hit": false,
      "t": 14897.840000000015,
      "d": 123.29833333333409,
      "v": 82
    },
    {
      "midi": 43,
      "hit": false,
      "t": 15101.920000000015,
      "d": 104.16583333333256,
      "v": 82
    },
    {
      "midi": 55,
      "hit": false,
      "t": 15101.920000000015,
      "d": 110.54333333333307,
      "v": 82
    },
    {
      "midi": 52,
      "hit": false,
      "t": 15101.920000000015,
      "d": 127.54999999999927,
      "v": 82
    },
    {
      "midi": 64,
      "hit": false,
      "t": 15101.920000000015,
      "d": 136.05333333333328,
      "v": 82
    },
    {
      "midi": 50,
      "hit": false,
      "t": 15306.000000000015,
      "d": 78.65583333333416,
      "v": 82
    },
    {
      "midi": 62,
      "hit": false,
      "t": 15306.000000000015,
      "d": 80.78166666666766,
      "v": 82
    },
    {
      "midi": 55,
      "hit": false,
      "t": 15306.000000000015,
      "d": 91.41083333333518,
      "v": 82
    },
    {
      "midi": 43,
      "hit": false,
      "t": 15408.040000000017,
      "d": 10.629166666667516,
      "v": 82
    },
    {
      "midi": 43,
      "hit": false,
      "t": 15510.080000000018,
      "d": 99.91416666666737,
      "v": 82
    },
    {
      "midi": 50,
      "hit": false,
      "t": 15510.080000000018,
      "d": 108.41750000000138,
      "v": 82
    },
    {
      "midi": 55,
      "hit": false,
      "t": 15510.080000000018,
      "d": 108.41750000000138,
      "v": 82
    },
    {
      "midi": 62,
      "hit": false,
      "t": 15510.080000000018,
      "d": 121.17250000000058,
      "v": 82
    },
    {
      "midi": 43,
      "hit": false,
      "t": 15714.160000000018,
      "d": 29.761666666667224,
      "v": 82
    },
    {
      "midi": 50,
      "hit": false,
      "t": 15714.160000000018,
      "d": 110.54333333333307,
      "v": 82
    },
    {
      "midi": 55,
      "hit": false,
      "t": 15714.160000000018,
      "d": 112.66916666666657,
      "v": 82
    },
    {
      "midi": 62,
      "hit": false,
      "t": 15714.160000000018,
      "d": 112.66916666666657,
      "v": 82
    },
    {
      "midi": 43,
      "hit": false,
      "t": 15918.240000000018,
      "d": 99.91416666666737,
      "v": 82
    },
    {
      "midi": 55,
      "hit": false,
      "t": 15918.240000000018,
      "d": 110.54333333333489,
      "v": 82
    },
    {
      "midi": 52,
      "hit": false,
      "t": 15918.240000000018,
      "d": 123.29833333333409,
      "v": 82
    },
    {
      "midi": 64,
      "hit": false,
      "t": 15918.240000000018,
      "d": 142.4308333333338,
      "v": 82
    },
    {
      "midi": 50,
      "hit": false,
      "t": 16122.320000000018,
      "d": 68.02666666666664,
      "v": 82
    },
    {
      "midi": 62,
      "hit": false,
      "t": 16122.320000000018,
      "d": 80.78166666666584,
      "v": 82
    },
    {
      "midi": 43,
      "hit": false,
      "t": 16122.320000000018,
      "d": 89.28499999999985,
      "v": 82
    },
    {
      "midi": 55,
      "hit": false,
      "t": 16122.320000000018,
      "d": 104.16583333333256,
      "v": 82
    },
    {
      "midi": 57,
      "hit": false,
      "t": 16326.400000000018,
      "d": 78.65583333333234,
      "v": 82
    },
    {
      "midi": 38,
      "hit": false,
      "t": 16326.400000000018,
      "d": 85.03333333333103,
      "v": 82
    },
    {
      "midi": 62,
      "hit": false,
      "t": 16326.400000000018,
      "d": 89.28499999999804,
      "v": 82
    },
    {
      "midi": 45,
      "hit": false,
      "t": 16326.400000000018,
      "d": 95.66249999999673,
      "v": 82
    },
    {
      "midi": 38,
      "hit": false,
      "t": 16530.480000000014,
      "d": 31.887500000000728,
      "v": 82
    },
    {
      "midi": 57,
      "hit": false,
      "t": 16530.480000000014,
      "d": 89.28499999999985,
      "v": 82
    },
    {
      "midi": 62,
      "hit": false,
      "t": 16530.480000000014,
      "d": 95.66249999999854,
      "v": 82
    },
    {
      "midi": 45,
      "hit": false,
      "t": 16530.480000000014,
      "d": 102.03999999999724,
      "v": 82
    },
    {
      "midi": 59,
      "hit": false,
      "t": 16734.560000000012,
      "d": 99.91416666666555,
      "v": 82
    },
    {
      "midi": 47,
      "hit": false,
      "t": 16734.560000000012,
      "d": 104.16583333333256,
      "v": 82
    },
    {
      "midi": 38,
      "hit": false,
      "t": 16734.560000000012,
      "d": 108.41749999999956,
      "v": 82
    },
    {
      "midi": 62,
      "hit": false,
      "t": 16734.560000000012,
      "d": 108.41749999999956,
      "v": 82
    },
    {
      "midi": 38,
      "hit": false,
      "t": 16938.64000000001,
      "d": 23.384166666666715,
      "v": 82
    },
    {
      "midi": 45,
      "hit": false,
      "t": 16938.64000000001,
      "d": 74.40416666666715,
      "v": 82
    },
    {
      "midi": 57,
      "hit": false,
      "t": 16938.64000000001,
      "d": 95.66250000000218,
      "v": 82
    },
    {
      "midi": 62,
      "hit": false,
      "t": 16938.64000000001,
      "d": 108.4175000000032,
      "v": 82
    },
    {
      "midi": 38,
      "hit": false,
      "t": 17142.720000000012,
      "d": 89.28499999999985,
      "v": 82
    },
    {
      "midi": 57,
      "hit": false,
      "t": 17142.720000000012,
      "d": 95.66249999999854,
      "v": 82
    },
    {
      "midi": 45,
      "hit": false,
      "t": 17142.720000000012,
      "d": 97.78833333333023,
      "v": 82
    },
    {
      "midi": 62,
      "hit": false,
      "t": 17142.720000000012,
      "d": 99.91416666666191,
      "v": 82
    },
    {
      "midi": 38,
      "hit": false,
      "t": 17346.800000000007,
      "d": 78.65583333333416,
      "v": 82
    },
    {
      "midi": 62,
      "hit": false,
      "t": 17346.800000000007,
      "d": 85.03333333333285,
      "v": 82
    },
    {
      "midi": 45,
      "hit": false,
      "t": 17346.800000000007,
      "d": 93.53666666666686,
      "v": 82
    },
    {
      "midi": 57,
      "hit": false,
      "t": 17346.800000000007,
      "d": 110.54333333333489,
      "v": 82
    },
    {
      "midi": 47,
      "hit": false,
      "t": 17550.88000000001,
      "d": 51.02000000000044,
      "v": 82
    },
    {
      "midi": 59,
      "hit": false,
      "t": 17550.88000000001,
      "d": 93.53666666666686,
      "v": 82
    },
    {
      "midi": 62,
      "hit": false,
      "t": 17550.88000000001,
      "d": 110.54333333333489,
      "v": 82
    },
    {
      "midi": 38,
      "hit": false,
      "t": 17550.88000000001,
      "d": 223.21250000000146,
      "v": 82
    },
    {
      "midi": 45,
      "hit": false,
      "t": 17652.92000000001,
      "d": 89.28499999999985,
      "v": 82
    },
    {
      "midi": 62,
      "hit": false,
      "t": 17754.96000000001,
      "d": 87.15916666666817,
      "v": 82
    },
    {
      "midi": 57,
      "hit": false,
      "t": 17754.96000000001,
      "d": 95.66250000000218,
      "v": 82
    },
    {
      "midi": 50,
      "hit": false,
      "t": 17959.04000000001,
      "d": 80.78166666666584,
      "v": 82
    },
    {
      "midi": 55,
      "hit": false,
      "t": 17959.04000000001,
      "d": 93.53666666666686,
      "v": 82
    },
    {
      "midi": 62,
      "hit": false,
      "t": 17959.04000000001,
      "d": 97.78833333333387,
      "v": 82
    },
    {
      "midi": 43,
      "hit": false,
      "t": 17959.04000000001,
      "d": 102.04000000000087,
      "v": 82
    },
    {
      "midi": 43,
      "hit": false,
      "t": 18163.120000000014,
      "d": 17.006666666668025,
      "v": 82
    },
    {
      "midi": 55,
      "hit": false,
      "t": 18163.120000000014,
      "d": 76.53000000000247,
      "v": 82
    },
    {
      "midi": 50,
      "hit": false,
      "t": 18163.120000000014,
      "d": 85.03333333333649,
      "v": 82
    },
    {
      "midi": 62,
      "hit": false,
      "t": 18163.120000000014,
      "d": 95.66250000000218,
      "v": 82
    },
    {
      "midi": 55,
      "hit": false,
      "t": 18367.200000000015,
      "d": 89.28499999999985,
      "v": 82
    },
    {
      "midi": 43,
      "hit": false,
      "t": 18367.200000000015,
      "d": 91.41083333333154,
      "v": 82
    },
    {
      "midi": 64,
      "hit": false,
      "t": 18367.200000000015,
      "d": 102.03999999999724,
      "v": 82
    },
    {
      "midi": 52,
      "hit": false,
      "t": 18367.200000000015,
      "d": 106.29166666666424,
      "v": 82
    },
    {
      "midi": 50,
      "hit": false,
      "t": 18571.280000000013,
      "d": 78.65583333333416,
      "v": 82
    },
    {
      "midi": 55,
      "hit": false,
      "t": 18571.280000000013,
      "d": 80.78166666666584,
      "v": 82
    },
    {
      "midi": 62,
      "hit": false,
      "t": 18571.280000000013,
      "d": 85.03333333333285,
      "v": 82
    },
    {
      "midi": 43,
      "hit": false,
      "t": 18775.36000000001,
      "d": 63.775000000001455,
      "v": 82
    },
    {
      "midi": 50,
      "hit": false,
      "t": 18775.36000000001,
      "d": 85.03333333333649,
      "v": 82
    },
    {
      "midi": 55,
      "hit": false,
      "t": 18775.36000000001,
      "d": 87.15916666666817,
      "v": 82
    },
    {
      "midi": 62,
      "hit": false,
      "t": 18775.36000000001,
      "d": 91.41083333333518,
      "v": 82
    },
    {
      "midi": 43,
      "hit": false,
      "t": 18979.440000000013,
      "d": 65.90083333333314,
      "v": 82
    },
    {
      "midi": 50,
      "hit": false,
      "t": 18979.440000000013,
      "d": 97.78833333333387,
      "v": 82
    },
    {
      "midi": 55,
      "hit": false,
      "t": 18979.440000000013,
      "d": 97.78833333333387,
      "v": 82
    },
    {
      "midi": 62,
      "hit": false,
      "t": 18979.440000000013,
      "d": 99.91416666666555,
      "v": 82
    },
    {
      "midi": 55,
      "hit": false,
      "t": 19183.52000000001,
      "d": 80.78166666666584,
      "v": 82
    },
    {
      "midi": 43,
      "hit": false,
      "t": 19183.52000000001,
      "d": 89.28499999999985,
      "v": 82
    },
    {
      "midi": 64,
      "hit": false,
      "t": 19183.52000000001,
      "d": 95.66249999999854,
      "v": 82
    },
    {
      "midi": 52,
      "hit": false,
      "t": 19183.52000000001,
      "d": 110.54333333333125,
      "v": 82
    },
    {
      "midi": 43,
      "hit": false,
      "t": 19387.60000000001,
      "d": 17.006666666668025,
      "v": 82
    },
    {
      "midi": 50,
      "hit": false,
      "t": 19387.60000000001,
      "d": 70.15250000000015,
      "v": 82
    },
    {
      "midi": 55,
      "hit": false,
      "t": 19387.60000000001,
      "d": 85.03333333333285,
      "v": 82
    },
    {
      "midi": 62,
      "hit": false,
      "t": 19387.60000000001,
      "d": 89.28499999999985,
      "v": 82
    },
    {
      "midi": 43,
      "hit": false,
      "t": 19591.680000000008,
      "d": 80.78166666666584,
      "v": 82
    },
    {
      "midi": 50,
      "hit": false,
      "t": 19591.680000000008,
      "d": 85.03333333333285,
      "v": 82
    },
    {
      "midi": 55,
      "hit": false,
      "t": 19591.680000000008,
      "d": 89.28499999999985,
      "v": 82
    },
    {
      "midi": 62,
      "hit": false,
      "t": 19591.680000000008,
      "d": 95.66249999999854,
      "v": 82
    },
    {
      "midi": 43,
      "hit": false,
      "t": 19795.760000000006,
      "d": 65.90083333333314,
      "v": 82
    },
    {
      "midi": 55,
      "hit": false,
      "t": 19795.760000000006,
      "d": 93.53666666666686,
      "v": 82
    },
    {
      "midi": 62,
      "hit": false,
      "t": 19795.760000000006,
      "d": 106.29166666666788,
      "v": 82
    },
    {
      "midi": 50,
      "hit": false,
      "t": 19795.760000000006,
      "d": 108.41749999999956,
      "v": 82
    },
    {
      "midi": 50,
      "hit": false,
      "t": 19999.840000000004,
      "d": 10.629166666665697,
      "v": 82
    },
    {
      "midi": 55,
      "hit": false,
      "t": 19999.840000000004,
      "d": 87.15916666666453,
      "v": 82
    },
    {
      "midi": 43,
      "hit": false,
      "t": 19999.840000000004,
      "d": 97.78833333333023,
      "v": 82
    },
    {
      "midi": 64,
      "hit": false,
      "t": 19999.840000000004,
      "d": 97.78833333333023,
      "v": 82
    },
    {
      "midi": 52,
      "hit": false,
      "t": 19999.840000000004,
      "d": 127.54999999999563,
      "v": 82
    },
    {
      "midi": 50,
      "hit": false,
      "t": 20203.92,
      "d": 76.52999999999884,
      "v": 82
    },
    {
      "midi": 55,
      "hit": false,
      "t": 20203.92,
      "d": 82.90749999999753,
      "v": 82
    },
    {
      "midi": 62,
      "hit": false,
      "t": 20203.92,
      "d": 91.41083333333154,
      "v": 82
    },
    {
      "midi": 43,
      "hit": false,
      "t": 20407.999999999996,
      "d": 78.65583333333416,
      "v": 82
    },
    {
      "midi": 50,
      "hit": false,
      "t": 20407.999999999996,
      "d": 89.28499999999985,
      "v": 82
    },
    {
      "midi": 55,
      "hit": false,
      "t": 20407.999999999996,
      "d": 93.53666666666686,
      "v": 82
    },
    {
      "midi": 62,
      "hit": false,
      "t": 20407.999999999996,
      "d": 95.66249999999854,
      "v": 82
    },
    {
      "midi": 43,
      "hit": false,
      "t": 20612.079999999994,
      "d": 63.775000000001455,
      "v": 82
    },
    {
      "midi": 55,
      "hit": false,
      "t": 20612.079999999994,
      "d": 95.66250000000218,
      "v": 82
    },
    {
      "midi": 62,
      "hit": false,
      "t": 20612.079999999994,
      "d": 97.78833333333387,
      "v": 82
    },
    {
      "midi": 50,
      "hit": false,
      "t": 20612.079999999994,
      "d": 104.16583333333256,
      "v": 82
    },
    {
      "midi": 50,
      "hit": false,
      "t": 20816.159999999993,
      "d": 6.37749999999869,
      "v": 82
    },
    {
      "midi": 55,
      "hit": false,
      "t": 20816.159999999993,
      "d": 87.15916666666453,
      "v": 82
    },
    {
      "midi": 43,
      "hit": false,
      "t": 20816.159999999993,
      "d": 91.41083333333154,
      "v": 82
    },
    {
      "midi": 64,
      "hit": false,
      "t": 20816.159999999993,
      "d": 99.91416666666555,
      "v": 82
    },
    {
      "midi": 52,
      "hit": false,
      "t": 20816.159999999993,
      "d": 104.16583333333256,
      "v": 82
    },
    {
      "midi": 43,
      "hit": false,
      "t": 21020.23999999999,
      "d": 63.775000000001455,
      "v": 82
    },
    {
      "midi": 55,
      "hit": false,
      "t": 21020.23999999999,
      "d": 65.90083333333314,
      "v": 82
    },
    {
      "midi": 50,
      "hit": false,
      "t": 21020.23999999999,
      "d": 72.27833333333183,
      "v": 82
    },
    {
      "midi": 62,
      "hit": false,
      "t": 21020.23999999999,
      "d": 93.53666666666686,
      "v": 82
    },
    {
      "midi": 60,
      "hit": false,
      "t": 21224.319999999992,
      "d": 72.27833333333183,
      "v": 82
    },
    {
      "midi": 67,
      "hit": false,
      "t": 21224.319999999992,
      "d": 74.40416666666351,
      "v": 82
    },
    {
      "midi": 43,
      "hit": false,
      "t": 21224.319999999992,
      "d": 76.5299999999952,
      "v": 82
    },
    {
      "midi": 36,
      "hit": false,
      "t": 21224.319999999992,
      "d": 102.0399999999936,
      "v": 82
    },
    {
      "midi": 36,
      "hit": false,
      "t": 21428.399999999987,
      "d": 63.775000000001455,
      "v": 82
    },
    {
      "midi": 43,
      "hit": false,
      "t": 21428.399999999987,
      "d": 91.41083333333518,
      "v": 82
    },
    {
      "midi": 67,
      "hit": false,
      "t": 21428.399999999987,
      "d": 108.4175000000032,
      "v": 82
    },
    {
      "midi": 60,
      "hit": false,
      "t": 21428.399999999987,
      "d": 110.54333333333489,
      "v": 82
    },
    {
      "midi": 36,
      "hit": false,
      "t": 21632.47999999999,
      "d": 87.15916666666817,
      "v": 82
    },
    {
      "midi": 45,
      "hit": false,
      "t": 21632.47999999999,
      "d": 104.1658333333362,
      "v": 82
    },
    {
      "midi": 69,
      "hit": false,
      "t": 21632.47999999999,
      "d": 106.29166666666788,
      "v": 82
    },
    {
      "midi": 60,
      "hit": false,
      "t": 21632.47999999999,
      "d": 127.55000000000291,
      "v": 82
    },
    {
      "midi": 60,
      "hit": false,
      "t": 21836.55999999999,
      "d": 82.90750000000116,
      "v": 82
    },
    {
      "midi": 67,
      "hit": false,
      "t": 21836.55999999999,
      "d": 85.03333333333285,
      "v": 82
    },
    {
      "midi": 43,
      "hit": false,
      "t": 21836.55999999999,
      "d": 104.16583333333256,
      "v": 82
    },
    {
      "midi": 36,
      "hit": false,
      "t": 22040.63999999999,
      "d": 82.90750000000116,
      "v": 82
    },
    {
      "midi": 43,
      "hit": false,
      "t": 22040.63999999999,
      "d": 87.15916666666817,
      "v": 82
    },
    {
      "midi": 67,
      "hit": false,
      "t": 22040.63999999999,
      "d": 99.91416666666919,
      "v": 82
    },
    {
      "midi": 60,
      "hit": false,
      "t": 22040.63999999999,
      "d": 110.54333333333489,
      "v": 82
    },
    {
      "midi": 36,
      "hit": false,
      "t": 22244.71999999999,
      "d": 53.14583333333212,
      "v": 82
    },
    {
      "midi": 43,
      "hit": false,
      "t": 22244.71999999999,
      "d": 93.53666666666686,
      "v": 82
    },
    {
      "midi": 60,
      "hit": false,
      "t": 22244.71999999999,
      "d": 97.78833333333387,
      "v": 82
    },
    {
      "midi": 67,
      "hit": false,
      "t": 22244.71999999999,
      "d": 97.78833333333387,
      "v": 82
    },
    {
      "midi": 36,
      "hit": false,
      "t": 22448.799999999992,
      "d": 82.90750000000116,
      "v": 82
    },
    {
      "midi": 60,
      "hit": false,
      "t": 22448.799999999992,
      "d": 89.28499999999985,
      "v": 82
    },
    {
      "midi": 69,
      "hit": false,
      "t": 22448.799999999992,
      "d": 97.78833333333387,
      "v": 82
    },
    {
      "midi": 45,
      "hit": false,
      "t": 22448.799999999992,
      "d": 108.41749999999956,
      "v": 82
    },
    {
      "midi": 43,
      "hit": false,
      "t": 22652.87999999999,
      "d": 78.65583333333416,
      "v": 82
    },
    {
      "midi": 67,
      "hit": false,
      "t": 22652.87999999999,
      "d": 91.41083333333518,
      "v": 82
    },
    {
      "midi": 60,
      "hit": false,
      "t": 22652.87999999999,
      "d": 104.1658333333362,
      "v": 82
    },
    {
      "midi": 36,
      "hit": false,
      "t": 22856.959999999992,
      "d": 89.28499999999985,
      "v": 82
    },
    {
      "midi": 43,
      "hit": false,
      "t": 22856.959999999992,
      "d": 91.41083333333154,
      "v": 82
    },
    {
      "midi": 60,
      "hit": false,
      "t": 22856.959999999992,
      "d": 104.16583333333256,
      "v": 82
    },
    {
      "midi": 67,
      "hit": false,
      "t": 22856.959999999992,
      "d": 106.29166666666424,
      "v": 82
    },
    {
      "midi": 36,
      "hit": false,
      "t": 23061.03999999999,
      "d": 51.02000000000044,
      "v": 82
    },
    {
      "midi": 43,
      "hit": false,
      "t": 23061.03999999999,
      "d": 89.28499999999985,
      "v": 82
    },
    {
      "midi": 60,
      "hit": false,
      "t": 23061.03999999999,
      "d": 91.41083333333154,
      "v": 82
    },
    {
      "midi": 67,
      "hit": false,
      "t": 23061.03999999999,
      "d": 95.66249999999854,
      "v": 82
    },
    {
      "midi": 60,
      "hit": false,
      "t": 23265.119999999988,
      "d": 89.28499999999985,
      "v": 82
    },
    {
      "midi": 45,
      "hit": false,
      "t": 23265.119999999988,
      "d": 106.29166666666788,
      "v": 82
    },
    {
      "midi": 36,
      "hit": false,
      "t": 23265.119999999988,
      "d": 116.92083333333358,
      "v": 82
    },
    {
      "midi": 69,
      "hit": false,
      "t": 23265.119999999988,
      "d": 116.92083333333358,
      "v": 82
    },
    {
      "midi": 43,
      "hit": false,
      "t": 23469.19999999999,
      "d": 72.27833333333183,
      "v": 82
    },
    {
      "midi": 67,
      "hit": false,
      "t": 23469.19999999999,
      "d": 78.65583333333052,
      "v": 82
    },
    {
      "midi": 60,
      "hit": false,
      "t": 23469.19999999999,
      "d": 89.28499999999622,
      "v": 82
    },
    {
      "midi": 60,
      "hit": false,
      "t": 23673.279999999984,
      "d": 91.41083333333154,
      "v": 82
    },
    {
      "midi": 67,
      "hit": false,
      "t": 23673.279999999984,
      "d": 91.41083333333154,
      "v": 82
    },
    {
      "midi": 36,
      "hit": false,
      "t": 23673.279999999984,
      "d": 97.78833333333023,
      "v": 82
    },
    {
      "midi": 43,
      "hit": false,
      "t": 23673.279999999984,
      "d": 102.03999999999724,
      "v": 82
    },
    {
      "midi": 36,
      "hit": false,
      "t": 23877.359999999982,
      "d": 27.63583333333372,
      "v": 82
    },
    {
      "midi": 43,
      "hit": false,
      "t": 23877.359999999982,
      "d": 91.41083333333518,
      "v": 82
    },
    {
      "midi": 67,
      "hit": false,
      "t": 23877.359999999982,
      "d": 93.53666666666686,
      "v": 82
    },
    {
      "midi": 60,
      "hit": false,
      "t": 23877.359999999982,
      "d": 99.91416666666555,
      "v": 82
    },
    {
      "midi": 36,
      "hit": false,
      "t": 24081.43999999998,
      "d": 97.78833333333387,
      "v": 82
    },
    {
      "midi": 60,
      "hit": false,
      "t": 24081.43999999998,
      "d": 99.91416666666555,
      "v": 82
    },
    {
      "midi": 45,
      "hit": false,
      "t": 24081.43999999998,
      "d": 102.03999999999724,
      "v": 82
    },
    {
      "midi": 69,
      "hit": false,
      "t": 24081.43999999998,
      "d": 119.04666666666526,
      "v": 82
    },
    {
      "midi": 67,
      "hit": false,
      "t": 24285.51999999998,
      "d": 57.39749999999913,
      "v": 82
    },
    {
      "midi": 43,
      "hit": false,
      "t": 24285.51999999998,
      "d": 74.40416666666715,
      "v": 82
    },
    {
      "midi": 60,
      "hit": false,
      "t": 24285.51999999998,
      "d": 78.65583333333416,
      "v": 82
    },
    {
      "midi": 55,
      "hit": false,
      "t": 24489.59999999998,
      "d": 70.15250000000015,
      "v": 82
    },
    {
      "midi": 62,
      "hit": false,
      "t": 24489.59999999998,
      "d": 76.52999999999884,
      "v": 82
    },
    {
      "midi": 50,
      "hit": false,
      "t": 24489.59999999998,
      "d": 82.90749999999753,
      "v": 82
    },
    {
      "midi": 43,
      "hit": false,
      "t": 24489.59999999998,
      "d": 110.54333333333125,
      "v": 82
    },
    {
      "midi": 55,
      "hit": false,
      "t": 24693.67999999998,
      "d": 72.27833333333183,
      "v": 82
    },
    {
      "midi": 50,
      "hit": false,
      "t": 24693.67999999998,
      "d": 95.66249999999854,
      "v": 82
    },
    {
      "midi": 62,
      "hit": false,
      "t": 24693.67999999998,
      "d": 95.66249999999854,
      "v": 82
    },
    {
      "midi": 43,
      "hit": false,
      "t": 24897.759999999977,
      "d": 97.78833333333387,
      "v": 82
    },
    {
      "midi": 55,
      "hit": false,
      "t": 24897.759999999977,
      "d": 106.29166666666788,
      "v": 82
    },
    {
      "midi": 52,
      "hit": false,
      "t": 24897.759999999977,
      "d": 116.92083333333358,
      "v": 82
    },
    {
      "midi": 64,
      "hit": false,
      "t": 24897.759999999977,
      "d": 129.6758333333346,
      "v": 82
    },
    {
      "midi": 50,
      "hit": false,
      "t": 25101.83999999998,
      "d": 76.52999999999884,
      "v": 82
    },
    {
      "midi": 62,
      "hit": false,
      "t": 25101.83999999998,
      "d": 91.41083333333154,
      "v": 82
    },
    {
      "midi": 55,
      "hit": false,
      "t": 25101.83999999998,
      "d": 99.91416666666555,
      "v": 82
    },
    {
      "midi": 43,
      "hit": false,
      "t": 25305.919999999976,
      "d": 91.41083333333154,
      "v": 82
    },
    {
      "midi": 50,
      "hit": false,
      "t": 25305.919999999976,
      "d": 99.91416666666555,
      "v": 82
    },
    {
      "midi": 55,
      "hit": false,
      "t": 25305.919999999976,
      "d": 99.91416666666555,
      "v": 82
    },
    {
      "midi": 62,
      "hit": false,
      "t": 25305.919999999976,
      "d": 110.54333333333125,
      "v": 82
    },
    {
      "midi": 43,
      "hit": false,
      "t": 25509.999999999975,
      "d": 38.26499999999942,
      "v": 82
    },
    {
      "midi": 50,
      "hit": false,
      "t": 25509.999999999975,
      "d": 85.03333333333285,
      "v": 82
    },
    {
      "midi": 55,
      "hit": false,
      "t": 25509.999999999975,
      "d": 102.04000000000087,
      "v": 82
    },
    {
      "midi": 62,
      "hit": false,
      "t": 25509.999999999975,
      "d": 106.29166666666788,
      "v": 82
    },
    {
      "midi": 50,
      "hit": false,
      "t": 25714.079999999976,
      "d": 44.642500000001746,
      "v": 82
    },
    {
      "midi": 43,
      "hit": false,
      "t": 25714.079999999976,
      "d": 108.4175000000032,
      "v": 82
    },
    {
      "midi": 52,
      "hit": false,
      "t": 25714.079999999976,
      "d": 108.4175000000032,
      "v": 82
    },
    {
      "midi": 55,
      "hit": false,
      "t": 25714.079999999976,
      "d": 110.54333333333489,
      "v": 82
    },
    {
      "midi": 64,
      "hit": false,
      "t": 25714.079999999976,
      "d": 123.2983333333359,
      "v": 82
    },
    {
      "midi": 43,
      "hit": false,
      "t": 25918.159999999978,
      "d": 17.006666666668025,
      "v": 82
    },
    {
      "midi": 55,
      "hit": false,
      "t": 25918.159999999978,
      "d": 89.28499999999985,
      "v": 82
    },
    {
      "midi": 62,
      "hit": false,
      "t": 25918.159999999978,
      "d": 91.41083333333154,
      "v": 82
    },
    {
      "midi": 50,
      "hit": false,
      "t": 25918.159999999978,
      "d": 99.91416666666555,
      "v": 82
    },
    {
      "midi": 43,
      "hit": false,
      "t": 26122.239999999976,
      "d": 65.90083333333314,
      "v": 82
    },
    {
      "midi": 50,
      "hit": false,
      "t": 26122.239999999976,
      "d": 91.41083333333154,
      "v": 82
    },
    {
      "midi": 55,
      "hit": false,
      "t": 26122.239999999976,
      "d": 93.53666666666322,
      "v": 82
    },
    {
      "midi": 62,
      "hit": false,
      "t": 26122.239999999976,
      "d": 108.41749999999593,
      "v": 82
    },
    {
      "midi": 55,
      "hit": false,
      "t": 26326.31999999997,
      "d": 57.39749999999913,
      "v": 82
    },
    {
      "midi": 43,
      "hit": false,
      "t": 26326.31999999997,
      "d": 89.28499999999985,
      "v": 82
    },
    {
      "midi": 50,
      "hit": false,
      "t": 26326.31999999997,
      "d": 95.66249999999854,
      "v": 82
    },
    {
      "midi": 62,
      "hit": false,
      "t": 26326.31999999997,
      "d": 108.41749999999956,
      "v": 82
    },
    {
      "midi": 43,
      "hit": false,
      "t": 26530.39999999997,
      "d": 99.91416666666555,
      "v": 82
    },
    {
      "midi": 52,
      "hit": false,
      "t": 26530.39999999997,
      "d": 104.16583333333256,
      "v": 82
    },
    {
      "midi": 55,
      "hit": false,
      "t": 26530.39999999997,
      "d": 104.16583333333256,
      "v": 82
    },
    {
      "midi": 64,
      "hit": false,
      "t": 26530.39999999997,
      "d": 110.54333333333125,
      "v": 82
    },
    {
      "midi": 43,
      "hit": false,
      "t": 26734.479999999967,
      "d": 19.13249999999971,
      "v": 82
    },
    {
      "midi": 55,
      "hit": false,
      "t": 26734.479999999967,
      "d": 68.02666666666482,
      "v": 82
    },
    {
      "midi": 50,
      "hit": false,
      "t": 26734.479999999967,
      "d": 87.15916666666453,
      "v": 82
    },
    {
      "midi": 62,
      "hit": false,
      "t": 26734.479999999967,
      "d": 102.03999999999724,
      "v": 82
    },
    {
      "midi": 55,
      "hit": false,
      "t": 26938.559999999965,
      "d": 76.52999999999884,
      "v": 82
    },
    {
      "midi": 43,
      "hit": false,
      "t": 26938.559999999965,
      "d": 82.90749999999753,
      "v": 82
    },
    {
      "midi": 50,
      "hit": false,
      "t": 26938.559999999965,
      "d": 91.41083333333154,
      "v": 82
    },
    {
      "midi": 62,
      "hit": false,
      "t": 26938.559999999965,
      "d": 104.16583333333256,
      "v": 82
    },
    {
      "midi": 43,
      "hit": false,
      "t": 27142.639999999963,
      "d": 44.642500000001746,
      "v": 82
    },
    {
      "midi": 55,
      "hit": false,
      "t": 27142.639999999963,
      "d": 102.04000000000087,
      "v": 82
    },
    {
      "midi": 50,
      "hit": false,
      "t": 27142.639999999963,
      "d": 106.29166666666788,
      "v": 82
    },
    {
      "midi": 62,
      "hit": false,
      "t": 27142.639999999963,
      "d": 119.0466666666689,
      "v": 82
    },
    {
      "midi": 43,
      "hit": false,
      "t": 27346.719999999965,
      "d": 85.03333333333285,
      "v": 82
    },
    {
      "midi": 55,
      "hit": false,
      "t": 27346.719999999965,
      "d": 95.66249999999854,
      "v": 82
    },
    {
      "midi": 64,
      "hit": false,
      "t": 27346.719999999965,
      "d": 125.42416666666395,
      "v": 82
    },
    {
      "midi": 52,
      "hit": false,
      "t": 27346.719999999965,
      "d": 131.80166666666264,
      "v": 82
    },
    {
      "midi": 43,
      "hit": false,
      "t": 27550.79999999996,
      "d": 53.14583333333212,
      "v": 82
    },
    {
      "midi": 55,
      "hit": false,
      "t": 27550.79999999996,
      "d": 82.90749999999753,
      "v": 82
    },
    {
      "midi": 50,
      "hit": false,
      "t": 27550.79999999996,
      "d": 91.41083333333154,
      "v": 82
    },
    {
      "midi": 62,
      "hit": false,
      "t": 27550.79999999996,
      "d": 102.03999999999724,
      "v": 82
    },
    {
      "midi": 60,
      "hit": false,
      "t": 27754.879999999957,
      "d": 123.29833333333227,
      "v": 90
    },
    {
      "midi": 43,
      "hit": false,
      "t": 27754.879999999957,
      "d": 127.54999999999927,
      "v": 90
    },
    {
      "midi": 36,
      "hit": false,
      "t": 27754.879999999957,
      "d": 138.17916666666497,
      "v": 90
    },
    {
      "midi": 67,
      "hit": false,
      "t": 27754.879999999957,
      "d": 150.934166666666,
      "v": 90
    },
    {
      "midi": 43,
      "hit": false,
      "t": 27958.959999999955,
      "d": 161.56333333333168,
      "v": 90
    },
    {
      "midi": 60,
      "hit": false,
      "t": 27958.959999999955,
      "d": 163.68916666666337,
      "v": 90
    },
    {
      "midi": 67,
      "hit": false,
      "t": 27958.959999999955,
      "d": 178.56999999999607,
      "v": 90
    },
    {
      "midi": 36,
      "hit": false,
      "t": 27958.959999999955,
      "d": 350.76249999999345,
      "v": 90
    },
    {
      "midi": 60,
      "hit": false,
      "t": 28163.03999999995,
      "d": 121.17250000000058,
      "v": 90
    },
    {
      "midi": 45,
      "hit": false,
      "t": 28163.03999999995,
      "d": 129.6758333333346,
      "v": 90
    },
    {
      "midi": 69,
      "hit": false,
      "t": 28163.03999999995,
      "d": 140.3050000000003,
      "v": 90
    },
    {
      "midi": 43,
      "hit": false,
      "t": 28367.119999999948,
      "d": 104.16583333333256,
      "v": 90
    },
    {
      "midi": 60,
      "hit": false,
      "t": 28367.119999999948,
      "d": 110.54333333333125,
      "v": 90
    },
    {
      "midi": 67,
      "hit": false,
      "t": 28367.119999999948,
      "d": 116.92083333332994,
      "v": 90
    },
    {
      "midi": 36,
      "hit": false,
      "t": 28469.15999999995,
      "d": 2.125833333331684,
      "v": 90
    },
    {
      "midi": 60,
      "hit": false,
      "t": 28571.199999999946,
      "d": 104.16583333333256,
      "v": 90
    },
    {
      "midi": 43,
      "hit": false,
      "t": 28571.199999999946,
      "d": 116.92083333333358,
      "v": 90
    },
    {
      "midi": 36,
      "hit": false,
      "t": 28571.199999999946,
      "d": 125.42416666666759,
      "v": 90
    },
    {
      "midi": 67,
      "hit": false,
      "t": 28571.199999999946,
      "d": 133.9275000000016,
      "v": 90
    },
    {
      "midi": 36,
      "hit": false,
      "t": 28775.279999999948,
      "d": 72.27833333333183,
      "v": 90
    },
    {
      "midi": 43,
      "hit": false,
      "t": 28775.279999999948,
      "d": 104.16583333333256,
      "v": 90
    },
    {
      "midi": 60,
      "hit": false,
      "t": 28775.279999999948,
      "d": 106.29166666666424,
      "v": 90
    },
    {
      "midi": 67,
      "hit": false,
      "t": 28775.279999999948,
      "d": 127.54999999999927,
      "v": 90
    },
    {
      "midi": 60,
      "hit": false,
      "t": 28979.359999999946,
      "d": 104.16583333333256,
      "v": 90
    },
    {
      "midi": 45,
      "hit": false,
      "t": 28979.359999999946,
      "d": 112.66916666666657,
      "v": 90
    },
    {
      "midi": 69,
      "hit": false,
      "t": 28979.359999999946,
      "d": 125.42416666666759,
      "v": 90
    },
    {
      "midi": 36,
      "hit": false,
      "t": 28979.359999999946,
      "d": 223.21250000000146,
      "v": 90
    },
    {
      "midi": 60,
      "hit": false,
      "t": 29183.439999999948,
      "d": 78.65583333333416,
      "v": 90
    },
    {
      "midi": 67,
      "hit": false,
      "t": 29183.439999999948,
      "d": 91.41083333333518,
      "v": 90
    },
    {
      "midi": 43,
      "hit": false,
      "t": 29183.439999999948,
      "d": 119.0466666666689,
      "v": 90
    },
    {
      "midi": 50,
      "hit": false,
      "t": 29387.51999999995,
      "d": 70.15250000000015,
      "v": 90
    },
    {
      "midi": 55,
      "hit": false,
      "t": 29387.51999999995,
      "d": 80.78166666666584,
      "v": 90
    },
    {
      "midi": 62,
      "hit": false,
      "t": 29387.51999999995,
      "d": 93.53666666666686,
      "v": 90
    },
    {
      "midi": 43,
      "hit": false,
      "t": 29387.51999999995,
      "d": 119.04666666666526,
      "v": 90
    },
    {
      "midi": 43,
      "hit": false,
      "t": 29591.599999999948,
      "d": 82.90750000000116,
      "v": 90
    },
    {
      "midi": 50,
      "hit": false,
      "t": 29591.599999999948,
      "d": 91.41083333333518,
      "v": 90
    },
    {
      "midi": 55,
      "hit": false,
      "t": 29591.599999999948,
      "d": 95.66250000000218,
      "v": 90
    },
    {
      "midi": 62,
      "hit": false,
      "t": 29591.599999999948,
      "d": 119.0466666666689,
      "v": 90
    },
    {
      "midi": 55,
      "hit": false,
      "t": 29795.67999999995,
      "d": 104.16583333333256,
      "v": 90
    },
    {
      "midi": 52,
      "hit": false,
      "t": 29795.67999999995,
      "d": 119.04666666666526,
      "v": 90
    },
    {
      "midi": 64,
      "hit": false,
      "t": 29795.67999999995,
      "d": 125.42416666666395,
      "v": 90
    },
    {
      "midi": 43,
      "hit": false,
      "t": 29795.67999999995,
      "d": 131.80166666666264,
      "v": 90
    },
    {
      "midi": 50,
      "hit": false,
      "t": 29999.759999999944,
      "d": 102.04000000000087,
      "v": 90
    },
    {
      "midi": 55,
      "hit": false,
      "t": 29999.759999999944,
      "d": 112.66916666666657,
      "v": 90
    },
    {
      "midi": 62,
      "hit": false,
      "t": 29999.759999999944,
      "d": 114.79499999999825,
      "v": 90
    },
    {
      "midi": 43,
      "hit": false,
      "t": 30101.799999999945,
      "d": 10.629166666665697,
      "v": 90
    },
    {
      "midi": 55,
      "hit": false,
      "t": 30203.839999999942,
      "d": 97.78833333333387,
      "v": 90
    },
    {
      "midi": 50,
      "hit": false,
      "t": 30203.839999999942,
      "d": 108.41749999999956,
      "v": 90
    },
    {
      "midi": 62,
      "hit": false,
      "t": 30203.839999999942,
      "d": 116.92083333333358,
      "v": 90
    },
    {
      "midi": 43,
      "hit": false,
      "t": 30203.839999999942,
      "d": 119.04666666666526,
      "v": 90
    },
    {
      "midi": 43,
      "hit": false,
      "t": 30407.91999999994,
      "d": 74.40416666666715,
      "v": 90
    },
    {
      "midi": 55,
      "hit": false,
      "t": 30407.91999999994,
      "d": 89.28499999999985,
      "v": 90
    },
    {
      "midi": 50,
      "hit": false,
      "t": 30407.91999999994,
      "d": 119.04666666666526,
      "v": 90
    },
    {
      "midi": 62,
      "hit": false,
      "t": 30407.91999999994,
      "d": 133.92749999999796,
      "v": 90
    },
    {
      "midi": 55,
      "hit": false,
      "t": 30611.999999999938,
      "d": 110.54333333333489,
      "v": 90
    },
    {
      "midi": 43,
      "hit": false,
      "t": 30611.999999999938,
      "d": 112.66916666666657,
      "v": 90
    },
    {
      "midi": 64,
      "hit": false,
      "t": 30611.999999999938,
      "d": 121.17250000000058,
      "v": 90
    },
    {
      "midi": 52,
      "hit": false,
      "t": 30611.999999999938,
      "d": 136.05333333333328,
      "v": 90
    },
    {
      "midi": 55,
      "hit": false,
      "t": 30816.07999999994,
      "d": 10.629166666665697,
      "v": 90
    },
    {
      "midi": 43,
      "hit": false,
      "t": 30816.07999999994,
      "d": 48.894166666665114,
      "v": 90
    },
    {
      "midi": 50,
      "hit": false,
      "t": 30816.07999999994,
      "d": 63.77499999999782,
      "v": 90
    },
    {
      "midi": 62,
      "hit": false,
      "t": 30816.07999999994,
      "d": 99.91416666666555,
      "v": 90
    },
    {
      "midi": 60,
      "hit": false,
      "t": 31020.159999999938,
      "d": 76.52999999999884,
      "v": 90
    },
    {
      "midi": 67,
      "hit": false,
      "t": 31020.159999999938,
      "d": 91.41083333333154,
      "v": 90
    },
    {
      "midi": 43,
      "hit": false,
      "t": 31020.159999999938,
      "d": 97.78833333333023,
      "v": 90
    },
    {
      "midi": 36,
      "hit": false,
      "t": 31020.159999999938,
      "d": 104.16583333332892,
      "v": 90
    },
    {
      "midi": 36,
      "hit": false,
      "t": 31224.239999999932,
      "d": 29.761666666665406,
      "v": 90
    },
    {
      "midi": 60,
      "hit": false,
      "t": 31224.239999999932,
      "d": 104.16583333333256,
      "v": 90
    },
    {
      "midi": 67,
      "hit": false,
      "t": 31224.239999999932,
      "d": 116.92083333333358,
      "v": 90
    },
    {
      "midi": 43,
      "hit": false,
      "t": 31224.239999999932,
      "d": 123.29833333333227,
      "v": 90
    },
    {
      "midi": 60,
      "hit": false,
      "t": 31428.31999999993,
      "d": 108.41749999999956,
      "v": 90
    },
    {
      "midi": 69,
      "hit": false,
      "t": 31428.31999999993,
      "d": 123.29833333333227,
      "v": 90
    },
    {
      "midi": 45,
      "hit": false,
      "t": 31428.31999999993,
      "d": 131.80166666666628,
      "v": 90
    },
    {
      "midi": 36,
      "hit": false,
      "t": 31428.31999999993,
      "d": 140.3050000000003,
      "v": 90
    },
    {
      "midi": 36,
      "hit": false,
      "t": 31632.399999999932,
      "d": 29.761666666665406,
      "v": 90
    },
    {
      "midi": 60,
      "hit": false,
      "t": 31632.399999999932,
      "d": 93.53666666666686,
      "v": 90
    },
    {
      "midi": 43,
      "hit": false,
      "t": 31632.399999999932,
      "d": 110.54333333333489,
      "v": 90
    },
    {
      "midi": 67,
      "hit": false,
      "t": 31632.399999999932,
      "d": 119.0466666666689,
      "v": 90
    },
    {
      "midi": 60,
      "hit": false,
      "t": 31836.479999999934,
      "d": 102.04000000000087,
      "v": 90
    },
    {
      "midi": 43,
      "hit": false,
      "t": 31836.479999999934,
      "d": 108.41749999999956,
      "v": 90
    },
    {
      "midi": 36,
      "hit": false,
      "t": 31836.479999999934,
      "d": 133.92749999999796,
      "v": 90
    },
    {
      "midi": 67,
      "hit": false,
      "t": 31836.479999999934,
      "d": 136.05333333332965,
      "v": 90
    },
    {
      "midi": 60,
      "hit": false,
      "t": 32040.559999999932,
      "d": 108.41749999999956,
      "v": 90
    },
    {
      "midi": 36,
      "hit": false,
      "t": 32040.559999999932,
      "d": 110.54333333333125,
      "v": 90
    },
    {
      "midi": 43,
      "hit": false,
      "t": 32040.559999999932,
      "d": 112.66916666666293,
      "v": 90
    },
    {
      "midi": 67,
      "hit": false,
      "t": 32040.559999999932,
      "d": 119.04666666666162,
      "v": 90
    },
    {
      "midi": 60,
      "hit": false,
      "t": 32244.639999999927,
      "d": 99.91416666666555,
      "v": 90
    },
    {
      "midi": 45,
      "hit": false,
      "t": 32244.639999999927,
      "d": 108.41749999999956,
      "v": 90
    },
    {
      "midi": 36,
      "hit": false,
      "t": 32244.639999999927,
      "d": 112.66916666666657,
      "v": 90
    },
    {
      "midi": 69,
      "hit": false,
      "t": 32244.639999999927,
      "d": 133.9275000000016,
      "v": 90
    },
    {
      "midi": 67,
      "hit": false,
      "t": 32448.71999999993,
      "d": 74.40416666666715,
      "v": 90
    },
    {
      "midi": 43,
      "hit": false,
      "t": 32448.71999999993,
      "d": 85.03333333333285,
      "v": 90
    },
    {
      "midi": 60,
      "hit": false,
      "t": 32448.71999999993,
      "d": 87.15916666666453,
      "v": 90
    },
    {
      "midi": 62,
      "hit": false,
      "t": 32652.799999999927,
      "d": 85.03333333333285,
      "v": 90
    },
    {
      "midi": 50,
      "hit": false,
      "t": 32652.799999999927,
      "d": 87.15916666666453,
      "v": 90
    },
    {
      "midi": 55,
      "hit": false,
      "t": 32652.799999999927,
      "d": 89.28499999999622,
      "v": 90
    },
    {
      "midi": 43,
      "hit": false,
      "t": 32652.799999999927,
      "d": 119.04666666666526,
      "v": 90
    },
    {
      "midi": 55,
      "hit": false,
      "t": 32856.879999999925,
      "d": 91.41083333333518,
      "v": 90
    },
    {
      "midi": 62,
      "hit": false,
      "t": 32856.879999999925,
      "d": 112.66916666666657,
      "v": 90
    },
    {
      "midi": 50,
      "hit": false,
      "t": 32856.879999999925,
      "d": 116.92083333332994,
      "v": 90
    },
    {
      "midi": 55,
      "hit": false,
      "t": 33060.95999999992,
      "d": 102.04000000000087,
      "v": 90
    },
    {
      "midi": 64,
      "hit": false,
      "t": 33060.95999999992,
      "d": 114.79499999999825,
      "v": 90
    },
    {
      "midi": 43,
      "hit": false,
      "t": 33060.95999999992,
      "d": 127.54999999999563,
      "v": 90
    },
    {
      "midi": 52,
      "hit": false,
      "t": 33060.95999999992,
      "d": 142.43083333333198,
      "v": 90
    },
    {
      "midi": 50,
      "hit": false,
      "t": 33265.03999999992,
      "d": 89.28500000000349,
      "v": 90
    },
    {
      "midi": 55,
      "hit": false,
      "t": 33265.03999999992,
      "d": 89.28500000000349,
      "v": 90
    },
    {
      "midi": 62,
      "hit": false,
      "t": 33265.03999999992,
      "d": 97.7883333333375,
      "v": 90
    },
    {
      "midi": 55,
      "hit": false,
      "t": 33469.11999999992,
      "d": 89.28500000000349,
      "v": 90
    },
    {
      "midi": 50,
      "hit": false,
      "t": 33469.11999999992,
      "d": 102.04000000000087,
      "v": 90
    },
    {
      "midi": 62,
      "hit": false,
      "t": 33469.11999999992,
      "d": 114.79499999999825,
      "v": 90
    },
    {
      "midi": 43,
      "hit": false,
      "t": 33469.11999999992,
      "d": 119.04666666666162,
      "v": 90
    },
    {
      "midi": 55,
      "hit": false,
      "t": 33673.19999999992,
      "d": 112.66916666666657,
      "v": 90
    },
    {
      "midi": 62,
      "hit": false,
      "t": 33673.19999999992,
      "d": 119.0466666666689,
      "v": 90
    },
    {
      "midi": 50,
      "hit": false,
      "t": 33673.19999999992,
      "d": 121.17250000000058,
      "v": 90
    },
    {
      "midi": 43,
      "hit": false,
      "t": 33673.19999999992,
      "d": 380.5241666666625,
      "v": 90
    },
    {
      "midi": 55,
      "hit": false,
      "t": 33877.27999999992,
      "d": 102.04000000000087,
      "v": 90
    },
    {
      "midi": 64,
      "hit": false,
      "t": 33877.27999999992,
      "d": 112.66916666666657,
      "v": 90
    },
    {
      "midi": 52,
      "hit": false,
      "t": 33877.27999999992,
      "d": 136.05333333332965,
      "v": 90
    },
    {
      "midi": 43,
      "hit": false,
      "t": 34081.35999999991,
      "d": 68.02666666666482,
      "v": 90
    },
    {
      "midi": 50,
      "hit": false,
      "t": 34081.35999999991,
      "d": 91.4108333333279,
      "v": 90
    },
    {
      "midi": 55,
      "hit": false,
      "t": 34081.35999999991,
      "d": 95.66249999999127,
      "v": 90
    },
    {
      "midi": 62,
      "hit": false,
      "t": 34081.35999999991,
      "d": 104.16583333332528,
      "v": 90
    },
    {
      "midi": 50,
      "hit": false,
      "t": 34285.43999999991,
      "d": 106.29166666666424,
      "v": 90
    },
    {
      "midi": 55,
      "hit": false,
      "t": 34285.43999999991,
      "d": 108.41749999999593,
      "v": 90
    },
    {
      "midi": 62,
      "hit": false,
      "t": 34285.43999999991,
      "d": 121.1724999999933,
      "v": 90
    },
    {
      "midi": 43,
      "hit": false,
      "t": 34285.43999999991,
      "d": 127.54999999999563,
      "v": 90
    },
    {
      "midi": 50,
      "hit": false,
      "t": 34489.5199999999,
      "d": 29.761666666665406,
      "v": 90
    },
    {
      "midi": 55,
      "hit": false,
      "t": 34489.5199999999,
      "d": 78.65583333333052,
      "v": 90
    },
    {
      "midi": 62,
      "hit": false,
      "t": 34489.5199999999,
      "d": 121.17250000000058,
      "v": 90
    },
    {
      "midi": 43,
      "hit": false,
      "t": 34489.5199999999,
      "d": 159.4375,
      "v": 90
    },
    {
      "midi": 43,
      "hit": false,
      "t": 34693.599999999904,
      "d": 65.90083333333314,
      "v": 90
    },
    {
      "midi": 55,
      "hit": false,
      "t": 34693.599999999904,
      "d": 104.16583333333256,
      "v": 90
    },
    {
      "midi": 52,
      "hit": false,
      "t": 34693.599999999904,
      "d": 112.66916666666657,
      "v": 90
    },
    {
      "midi": 64,
      "hit": false,
      "t": 34693.599999999904,
      "d": 121.17250000000058,
      "v": 90
    },
    {
      "midi": 55,
      "hit": false,
      "t": 34897.679999999906,
      "d": 78.65583333333052,
      "v": 90
    },
    {
      "midi": 43,
      "hit": false,
      "t": 34897.679999999906,
      "d": 91.4108333333279,
      "v": 90
    },
    {
      "midi": 50,
      "hit": false,
      "t": 34897.679999999906,
      "d": 97.78833333333023,
      "v": 90
    },
    {
      "midi": 62,
      "hit": false,
      "t": 34897.679999999906,
      "d": 110.54333333332761,
      "v": 90
    },
    {
      "midi": 50,
      "hit": false,
      "t": 35101.7599999999,
      "d": 93.53666666666686,
      "v": 90
    },
    {
      "midi": 55,
      "hit": false,
      "t": 35101.7599999999,
      "d": 99.91416666666919,
      "v": 90
    },
    {
      "midi": 43,
      "hit": false,
      "t": 35101.7599999999,
      "d": 131.80166666666628,
      "v": 90
    },
    {
      "midi": 62,
      "hit": false,
      "t": 35101.7599999999,
      "d": 133.92749999999796,
      "v": 90
    },
    {
      "midi": 55,
      "hit": false,
      "t": 35305.839999999895,
      "d": 78.65583333333052,
      "v": 90
    },
    {
      "midi": 43,
      "hit": false,
      "t": 35305.839999999895,
      "d": 99.91416666666191,
      "v": 90
    },
    {
      "midi": 50,
      "hit": false,
      "t": 35305.839999999895,
      "d": 104.16583333332528,
      "v": 90
    },
    {
      "midi": 62,
      "hit": false,
      "t": 35305.839999999895,
      "d": 121.1724999999933,
      "v": 90
    },
    {
      "midi": 43,
      "hit": false,
      "t": 35509.91999999989,
      "d": 119.0466666666689,
      "v": 90
    },
    {
      "midi": 55,
      "hit": false,
      "t": 35509.91999999989,
      "d": 121.17250000000058,
      "v": 90
    },
    {
      "midi": 64,
      "hit": false,
      "t": 35509.91999999989,
      "d": 163.68916666667064,
      "v": 90
    },
    {
      "midi": 52,
      "hit": false,
      "t": 35509.91999999989,
      "d": 167.940833333334,
      "v": 90
    },
    {
      "midi": 50,
      "hit": false,
      "t": 35713.99999999989,
      "d": 72.27833333333547,
      "v": 90
    },
    {
      "midi": 55,
      "hit": false,
      "t": 35713.99999999989,
      "d": 78.6558333333378,
      "v": 90
    },
    {
      "midi": 43,
      "hit": false,
      "t": 35713.99999999989,
      "d": 82.90750000000116,
      "v": 90
    },
    {
      "midi": 62,
      "hit": false,
      "t": 35713.99999999989,
      "d": 91.41083333333518,
      "v": 90
    },
    {
      "midi": 57,
      "hit": false,
      "t": 35918.07999999989,
      "d": 89.28500000000349,
      "v": 90
    },
    {
      "midi": 45,
      "hit": false,
      "t": 35918.07999999989,
      "d": 95.66250000000582,
      "v": 90
    },
    {
      "midi": 38,
      "hit": false,
      "t": 35918.07999999989,
      "d": 102.04000000000815,
      "v": 90
    },
    {
      "midi": 62,
      "hit": false,
      "t": 35918.07999999989,
      "d": 102.04000000000815,
      "v": 90
    },
    {
      "midi": 38,
      "hit": false,
      "t": 36122.1599999999,
      "d": 72.27833333333547,
      "v": 90
    },
    {
      "midi": 62,
      "hit": false,
      "t": 36122.1599999999,
      "d": 91.41083333333518,
      "v": 90
    },
    {
      "midi": 57,
      "hit": false,
      "t": 36122.1599999999,
      "d": 99.91416666666919,
      "v": 90
    },
    {
      "midi": 45,
      "hit": false,
      "t": 36122.1599999999,
      "d": 106.29166666667152,
      "v": 90
    },
    {
      "midi": 59,
      "hit": false,
      "t": 36326.2399999999,
      "d": 93.53666666666686,
      "v": 90
    },
    {
      "midi": 38,
      "hit": false,
      "t": 36326.2399999999,
      "d": 97.78833333333023,
      "v": 90
    },
    {
      "midi": 62,
      "hit": false,
      "t": 36326.2399999999,
      "d": 114.79499999999825,
      "v": 90
    },
    {
      "midi": 47,
      "hit": false,
      "t": 36326.2399999999,
      "d": 121.17250000000058,
      "v": 90
    },
    {
      "midi": 38,
      "hit": false,
      "t": 36530.319999999905,
      "d": 57.39749999999913,
      "v": 90
    },
    {
      "midi": 45,
      "hit": false,
      "t": 36530.319999999905,
      "d": 91.41083333333518,
      "v": 90
    },
    {
      "midi": 59,
      "hit": false,
      "t": 36530.319999999905,
      "d": 99.91416666666919,
      "v": 90
    },
    {
      "midi": 62,
      "hit": false,
      "t": 36530.319999999905,
      "d": 114.79500000000553,
      "v": 90
    },
    {
      "midi": 45,
      "hit": false,
      "t": 36734.399999999914,
      "d": 97.78833333333023,
      "v": 90
    },
    {
      "midi": 62,
      "hit": false,
      "t": 36734.399999999914,
      "d": 102.0399999999936,
      "v": 90
    },
    {
      "midi": 57,
      "hit": false,
      "t": 36734.399999999914,
      "d": 119.04666666666162,
      "v": 90
    },
    {
      "midi": 38,
      "hit": false,
      "t": 36734.399999999914,
      "d": 125.42416666666395,
      "v": 90
    },
    {
      "midi": 38,
      "hit": false,
      "t": 36938.47999999991,
      "d": 76.52999999999884,
      "v": 90
    },
    {
      "midi": 45,
      "hit": false,
      "t": 36938.47999999991,
      "d": 104.16583333333256,
      "v": 90
    },
    {
      "midi": 62,
      "hit": false,
      "t": 36938.47999999991,
      "d": 112.66916666666657,
      "v": 90
    },
    {
      "midi": 57,
      "hit": false,
      "t": 36938.47999999991,
      "d": 119.0466666666689,
      "v": 90
    },
    {
      "midi": 59,
      "hit": false,
      "t": 37142.55999999991,
      "d": 102.04000000000087,
      "v": 90
    },
    {
      "midi": 62,
      "hit": false,
      "t": 37142.55999999991,
      "d": 106.29166666666424,
      "v": 90
    },
    {
      "midi": 47,
      "hit": false,
      "t": 37142.55999999991,
      "d": 131.80166666666628,
      "v": 90
    },
    {
      "midi": 38,
      "hit": false,
      "t": 37142.55999999991,
      "d": 148.8083333333343,
      "v": 90
    },
    {
      "midi": 38,
      "hit": false,
      "t": 37346.63999999991,
      "d": 57.39749999999913,
      "v": 90
    },
    {
      "midi": 45,
      "hit": false,
      "t": 37346.63999999991,
      "d": 95.66249999999854,
      "v": 90
    },
    {
      "midi": 62,
      "hit": false,
      "t": 37346.63999999991,
      "d": 123.29833333333227,
      "v": 90
    },
    {
      "midi": 57,
      "hit": false,
      "t": 37346.63999999991,
      "d": 129.6758333333346,
      "v": 90
    },
    {
      "midi": 45,
      "hit": false,
      "t": 37550.719999999914,
      "d": 102.04000000000087,
      "v": 90
    },
    {
      "midi": 38,
      "hit": false,
      "t": 37550.719999999914,
      "d": 125.42416666666395,
      "v": 90
    },
    {
      "midi": 57,
      "hit": false,
      "t": 37550.719999999914,
      "d": 127.54999999999563,
      "v": 90
    },
    {
      "midi": 62,
      "hit": false,
      "t": 37550.719999999914,
      "d": 127.54999999999563,
      "v": 90
    },
    {
      "midi": 62,
      "hit": false,
      "t": 37754.79999999991,
      "d": 104.16583333333256,
      "v": 90
    },
    {
      "midi": 38,
      "hit": false,
      "t": 37754.79999999991,
      "d": 119.0466666666689,
      "v": 90
    },
    {
      "midi": 57,
      "hit": false,
      "t": 37754.79999999991,
      "d": 121.17250000000058,
      "v": 90
    },
    {
      "midi": 45,
      "hit": false,
      "t": 37754.79999999991,
      "d": 123.29833333333227,
      "v": 90
    },
    {
      "midi": 59,
      "hit": false,
      "t": 37958.87999999991,
      "d": 121.17250000000058,
      "v": 90
    },
    {
      "midi": 62,
      "hit": false,
      "t": 37958.87999999991,
      "d": 127.55000000000291,
      "v": 90
    },
    {
      "midi": 47,
      "hit": false,
      "t": 37958.87999999991,
      "d": 144.55666666667094,
      "v": 90
    },
    {
      "midi": 38,
      "hit": false,
      "t": 37958.87999999991,
      "d": 331.63000000000466,
      "v": 90
    },
    {
      "midi": 45,
      "hit": false,
      "t": 38162.95999999991,
      "d": 102.04000000000087,
      "v": 90
    },
    {
      "midi": 62,
      "hit": false,
      "t": 38162.95999999991,
      "d": 112.66916666666657,
      "v": 90
    },
    {
      "midi": 57,
      "hit": false,
      "t": 38162.95999999991,
      "d": 131.80166666666628,
      "v": 90
    },
    {
      "midi": 45,
      "hit": false,
      "t": 38367.03999999991,
      "d": 89.28500000000349,
      "v": 90
    },
    {
      "midi": 62,
      "hit": false,
      "t": 38367.03999999991,
      "d": 102.04000000000087,
      "v": 90
    },
    {
      "midi": 57,
      "hit": false,
      "t": 38367.03999999991,
      "d": 119.0466666666689,
      "v": 90
    },
    {
      "midi": 38,
      "hit": false,
      "t": 38367.03999999991,
      "d": 129.6758333333346,
      "v": 90
    },
    {
      "midi": 38,
      "hit": false,
      "t": 38571.119999999915,
      "d": 99.91416666666919,
      "v": 90
    },
    {
      "midi": 45,
      "hit": false,
      "t": 38571.119999999915,
      "d": 110.54333333333489,
      "v": 90
    },
    {
      "midi": 62,
      "hit": false,
      "t": 38571.119999999915,
      "d": 114.79499999999825,
      "v": 90
    },
    {
      "midi": 57,
      "hit": false,
      "t": 38571.119999999915,
      "d": 127.54999999999563,
      "v": 90
    },
    {
      "midi": 47,
      "hit": false,
      "t": 38775.19999999991,
      "d": 119.0466666666689,
      "v": 90
    },
    {
      "midi": 59,
      "hit": false,
      "t": 38775.19999999991,
      "d": 125.42416666667123,
      "v": 90
    },
    {
      "midi": 62,
      "hit": false,
      "t": 38775.19999999991,
      "d": 125.42416666667123,
      "v": 90
    },
    {
      "midi": 38,
      "hit": false,
      "t": 38775.19999999991,
      "d": 150.93416666667326,
      "v": 90
    },
    {
      "midi": 62,
      "hit": false,
      "t": 38979.27999999992,
      "d": 63.775000000001455,
      "v": 90
    },
    {
      "midi": 45,
      "hit": false,
      "t": 38979.27999999992,
      "d": 80.78166666666948,
      "v": 90
    },
    {
      "midi": 57,
      "hit": false,
      "t": 38979.27999999992,
      "d": 119.0466666666689,
      "v": 90
    },
    {
      "midi": 55,
      "hit": false,
      "t": 39183.35999999992,
      "d": 99.91416666666919,
      "v": 90
    },
    {
      "midi": 62,
      "hit": false,
      "t": 39183.35999999992,
      "d": 102.04000000000087,
      "v": 90
    },
    {
      "midi": 50,
      "hit": false,
      "t": 39183.35999999992,
      "d": 104.16583333333256,
      "v": 90
    },
    {
      "midi": 43,
      "hit": false,
      "t": 39183.35999999992,
      "d": 125.42416666666395,
      "v": 90
    },
    {
      "midi": 43,
      "hit": false,
      "t": 39387.439999999915,
      "d": 25.510000000002037,
      "v": 90
    },
    {
      "midi": 55,
      "hit": false,
      "t": 39387.439999999915,
      "d": 97.7883333333375,
      "v": 90
    },
    {
      "midi": 62,
      "hit": false,
      "t": 39387.439999999915,
      "d": 114.79500000000553,
      "v": 90
    },
    {
      "midi": 50,
      "hit": false,
      "t": 39387.439999999915,
      "d": 121.17250000000786,
      "v": 90
    },
    {
      "midi": 55,
      "hit": false,
      "t": 39591.519999999924,
      "d": 102.04000000000087,
      "v": 90
    },
    {
      "midi": 64,
      "hit": false,
      "t": 39591.519999999924,
      "d": 110.54333333333489,
      "v": 90
    },
    {
      "midi": 43,
      "hit": false,
      "t": 39591.519999999924,
      "d": 144.55666666667094,
      "v": 90
    },
    {
      "midi": 52,
      "hit": false,
      "t": 39591.519999999924,
      "d": 155.18583333333663,
      "v": 90
    },
    {
      "midi": 50,
      "hit": false,
      "t": 39795.599999999926,
      "d": 72.27833333333547,
      "v": 90
    },
    {
      "midi": 55,
      "hit": false,
      "t": 39795.599999999926,
      "d": 91.41083333333518,
      "v": 90
    },
    {
      "midi": 62,
      "hit": false,
      "t": 39795.599999999926,
      "d": 91.41083333333518,
      "v": 90
    },
    {
      "midi": 55,
      "hit": false,
      "t": 39999.67999999993,
      "d": 95.66249999999854,
      "v": 90
    },
    {
      "midi": 50,
      "hit": false,
      "t": 39999.67999999993,
      "d": 99.91416666666191,
      "v": 90
    },
    {
      "midi": 43,
      "hit": false,
      "t": 39999.67999999993,
      "d": 108.41749999999593,
      "v": 90
    },
    {
      "midi": 62,
      "hit": false,
      "t": 39999.67999999993,
      "d": 110.54333333332761,
      "v": 90
    },
    {
      "midi": 43,
      "hit": false,
      "t": 40203.75999999992,
      "d": 57.39749999999913,
      "v": 90
    },
    {
      "midi": 55,
      "hit": false,
      "t": 40203.75999999992,
      "d": 91.41083333333518,
      "v": 90
    },
    {
      "midi": 62,
      "hit": false,
      "t": 40203.75999999992,
      "d": 106.29166666667152,
      "v": 90
    },
    {
      "midi": 50,
      "hit": false,
      "t": 40203.75999999992,
      "d": 110.54333333333489,
      "v": 90
    },
    {
      "midi": 55,
      "hit": false,
      "t": 40407.839999999924,
      "d": 114.79499999999825,
      "v": 90
    },
    {
      "midi": 64,
      "hit": false,
      "t": 40407.839999999924,
      "d": 119.04666666666162,
      "v": 90
    },
    {
      "midi": 43,
      "hit": false,
      "t": 40407.839999999924,
      "d": 140.30499999999302,
      "v": 90
    },
    {
      "midi": 52,
      "hit": false,
      "t": 40407.839999999924,
      "d": 140.30499999999302,
      "v": 90
    },
    {
      "midi": 43,
      "hit": false,
      "t": 40611.91999999992,
      "d": 40.3908333333311,
      "v": 90
    },
    {
      "midi": 50,
      "hit": false,
      "t": 40611.91999999992,
      "d": 91.4108333333279,
      "v": 90
    },
    {
      "midi": 62,
      "hit": false,
      "t": 40611.91999999992,
      "d": 116.92083333332994,
      "v": 90
    },
    {
      "midi": 55,
      "hit": false,
      "t": 40611.91999999992,
      "d": 121.1724999999933,
      "v": 90
    },
    {
      "midi": 43,
      "hit": false,
      "t": 40815.99999999991,
      "d": 110.54333333333489,
      "v": 90
    },
    {
      "midi": 55,
      "hit": false,
      "t": 40815.99999999991,
      "d": 110.54333333333489,
      "v": 90
    },
    {
      "midi": 50,
      "hit": false,
      "t": 40815.99999999991,
      "d": 112.66916666666657,
      "v": 90
    },
    {
      "midi": 62,
      "hit": false,
      "t": 40815.99999999991,
      "d": 114.79499999999825,
      "v": 90
    },
    {
      "midi": 43,
      "hit": false,
      "t": 41020.079999999914,
      "d": 85.03333333333285,
      "v": 90
    },
    {
      "midi": 55,
      "hit": false,
      "t": 41020.079999999914,
      "d": 93.53666666666686,
      "v": 90
    },
    {
      "midi": 62,
      "hit": false,
      "t": 41020.079999999914,
      "d": 104.16583333333256,
      "v": 90
    },
    {
      "midi": 50,
      "hit": false,
      "t": 41020.079999999914,
      "d": 112.66916666666657,
      "v": 90
    },
    {
      "midi": 55,
      "hit": false,
      "t": 41224.159999999916,
      "d": 82.90750000000116,
      "v": 90
    },
    {
      "midi": 64,
      "hit": false,
      "t": 41224.159999999916,
      "d": 104.16583333333256,
      "v": 90
    },
    {
      "midi": 52,
      "hit": false,
      "t": 41224.159999999916,
      "d": 133.92749999999796,
      "v": 90
    },
    {
      "midi": 43,
      "hit": false,
      "t": 41224.159999999916,
      "d": 140.3050000000003,
      "v": 90
    },
    {
      "midi": 43,
      "hit": false,
      "t": 41428.23999999992,
      "d": 91.41083333333518,
      "v": 90
    },
    {
      "midi": 50,
      "hit": false,
      "t": 41428.23999999992,
      "d": 106.29166666667152,
      "v": 90
    },
    {
      "midi": 55,
      "hit": false,
      "t": 41428.23999999992,
      "d": 329.5041666666657,
      "v": 90
    },
    {
      "midi": 62,
      "hit": false,
      "t": 41428.23999999992,
      "d": 338.0074999999997,
      "v": 90
    },
    {
      "midi": 50,
      "hit": false,
      "t": 41632.31999999992,
      "d": 123.29833333333227,
      "v": 90
    },
    {
      "midi": 43,
      "hit": false,
      "t": 41632.31999999992,
      "d": 131.80166666666628,
      "v": 90
    },
    {
      "midi": 55,
      "hit": false,
      "t": 41836.399999999914,
      "d": 82.90750000000116,
      "v": 90
    },
    {
      "midi": 62,
      "hit": false,
      "t": 41836.399999999914,
      "d": 93.53666666666686,
      "v": 90
    },
    {
      "midi": 43,
      "hit": false,
      "t": 41836.399999999914,
      "d": 108.4175000000032,
      "v": 90
    },
    {
      "midi": 50,
      "hit": false,
      "t": 41836.399999999914,
      "d": 110.54333333333489,
      "v": 90
    },
    {
      "midi": 65,
      "hit": false,
      "t": 42023.47333333325,
      "d": 31.887500000004366,
      "v": 94
    },
    {
      "midi": 67,
      "hit": false,
      "t": 42023.47333333325,
      "d": 63.775000000001455,
      "v": 94
    },
    {
      "midi": 69,
      "hit": false,
      "t": 42040.479999999916,
      "d": 65.90083333333314,
      "v": 94
    },
    {
      "midi": 55,
      "hit": false,
      "t": 42040.479999999916,
      "d": 89.28499999999622,
      "v": 90
    },
    {
      "midi": 64,
      "hit": false,
      "t": 42040.479999999916,
      "d": 99.91416666666191,
      "v": 90
    },
    {
      "midi": 43,
      "hit": false,
      "t": 42040.479999999916,
      "d": 112.6691666666593,
      "v": 90
    },
    {
      "midi": 52,
      "hit": false,
      "t": 42040.479999999916,
      "d": 116.92083333332266,
      "v": 90
    },
    {
      "midi": 71,
      "hit": false,
      "t": 42057.486666666584,
      "d": 68.02666666666482,
      "v": 94
    },
    {
      "midi": 72,
      "hit": false,
      "t": 42074.49333333325,
      "d": 65.90083333332586,
      "v": 121
    },
    {
      "midi": 74,
      "hit": false,
      "t": 42108.50666666658,
      "d": 70.15249999998923,
      "v": 112
    },
    {
      "midi": 76,
      "hit": false,
      "t": 42125.51333333325,
      "d": 63.7749999999869,
      "v": 112
    },
    {
      "midi": 77,
      "hit": false,
      "t": 42159.52666666657,
      "d": 55.27166666666017,
      "v": 121
    },
    {
      "midi": 79,
      "hit": false,
      "t": 42176.53333333324,
      "d": 53.14583333332121,
      "v": 103
    },
    {
      "midi": 81,
      "hit": false,
      "t": 42193.5399999999,
      "d": 61.649166666662495,
      "v": 94
    },
    {
      "midi": 83,
      "hit": false,
      "t": 42210.54666666657,
      "d": 55.27166666666017,
      "v": 94
    },
    {
      "midi": 84,
      "hit": false,
      "t": 42227.55333333323,
      "d": 63.775000000001455,
      "v": 74
    },
    {
      "midi": 55,
      "hit": false,
      "t": 42244.559999999896,
      "d": 76.52999999999884,
      "v": 90
    },
    {
      "midi": 62,
      "hit": false,
      "t": 42244.559999999896,
      "d": 91.41083333333518,
      "v": 90
    },
    {
      "midi": 43,
      "hit": false,
      "t": 42244.559999999896,
      "d": 97.7883333333375,
      "v": 90
    },
    {
      "midi": 50,
      "hit": false,
      "t": 42244.559999999896,
      "d": 104.16583333333256,
      "v": 90
    },
    {
      "midi": 86,
      "hit": false,
      "t": 42261.566666666564,
      "d": 51.0199999999968,
      "v": 103
    },
    {
      "midi": 88,
      "hit": false,
      "t": 42261.566666666564,
      "d": 59.52333333333081,
      "v": 127
    },
    {
      "midi": 89,
      "hit": false,
      "t": 42295.57999999989,
      "d": 55.27166666666744,
      "v": 86
    },
    {
      "midi": 91,
      "hit": false,
      "t": 42312.58666666656,
      "d": 34.01333333333605,
      "v": 90
    },
    {
      "midi": 86,
      "hit": false,
      "t": 42448.63999999989,
      "d": 48.894166666665114,
      "v": 103
    },
    {
      "midi": 83,
      "hit": false,
      "t": 42448.63999999989,
      "d": 61.649166666662495,
      "v": 94
    },
    {
      "midi": 91,
      "hit": false,
      "t": 42448.63999999989,
      "d": 76.52999999999884,
      "v": 121
    },
    {
      "midi": 55,
      "hit": false,
      "t": 42448.63999999989,
      "d": 87.15916666666453,
      "v": 75
    },
    {
      "midi": 43,
      "hit": false,
      "t": 42448.63999999989,
      "d": 106.29166666666424,
      "v": 75
    },
    {
      "midi": 62,
      "hit": false,
      "t": 42448.63999999989,
      "d": 108.41749999999593,
      "v": 75
    },
    {
      "midi": 50,
      "hit": false,
      "t": 42448.63999999989,
      "d": 110.54333333332761,
      "v": 75
    },
    {
      "midi": 43,
      "hit": false,
      "t": 42652.719999999885,
      "d": 27.63583333333372,
      "v": 75
    },
    {
      "midi": 86,
      "hit": false,
      "t": 42652.719999999885,
      "d": 51.0199999999968,
      "v": 90
    },
    {
      "midi": 83,
      "hit": false,
      "t": 42652.719999999885,
      "d": 57.39749999999913,
      "v": 78
    },
    {
      "midi": 91,
      "hit": false,
      "t": 42652.719999999885,
      "d": 68.02666666666482,
      "v": 103
    },
    {
      "midi": 55,
      "hit": false,
      "t": 42652.719999999885,
      "d": 114.79499999999825,
      "v": 75
    },
    {
      "midi": 62,
      "hit": false,
      "t": 42652.719999999885,
      "d": 119.04666666666162,
      "v": 75
    },
    {
      "midi": 50,
      "hit": false,
      "t": 42652.719999999885,
      "d": 123.29833333332499,
      "v": 75
    },
    {
      "midi": 86,
      "hit": false,
      "t": 42856.79999999988,
      "d": 48.894166666665114,
      "v": 90
    },
    {
      "midi": 83,
      "hit": false,
      "t": 42856.79999999988,
      "d": 70.15249999999651,
      "v": 82
    },
    {
      "midi": 91,
      "hit": false,
      "t": 42856.79999999988,
      "d": 70.15249999999651,
      "v": 103
    },
    {
      "midi": 43,
      "hit": false,
      "t": 42856.79999999988,
      "d": 104.16583333333256,
      "v": 75
    },
    {
      "midi": 55,
      "hit": false,
      "t": 42856.79999999988,
      "d": 112.66916666666657,
      "v": 75
    },
    {
      "midi": 52,
      "hit": false,
      "t": 42856.79999999988,
      "d": 127.55000000000291,
      "v": 75
    },
    {
      "midi": 64,
      "hit": false,
      "t": 42856.79999999988,
      "d": 136.05333333333692,
      "v": 75
    },
    {
      "midi": 86,
      "hit": false,
      "t": 43060.87999999988,
      "d": 44.642500000001746,
      "v": 86
    },
    {
      "midi": 83,
      "hit": false,
      "t": 43060.87999999988,
      "d": 59.52333333333809,
      "v": 70
    },
    {
      "midi": 91,
      "hit": false,
      "t": 43060.87999999988,
      "d": 61.64916666666977,
      "v": 103
    },
    {
      "midi": 50,
      "hit": false,
      "t": 43060.87999999988,
      "d": 76.53000000000611,
      "v": 75
    },
    {
      "midi": 62,
      "hit": false,
      "t": 43060.87999999988,
      "d": 78.6558333333378,
      "v": 75
    },
    {
      "midi": 55,
      "hit": false,
      "t": 43060.87999999988,
      "d": 91.41083333333518,
      "v": 75
    },
    {
      "midi": 43,
      "hit": false,
      "t": 43162.91999999988,
      "d": 10.629166666665697,
      "v": 75
    },
    {
      "midi": 86,
      "hit": false,
      "t": 43264.95999999988,
      "d": 55.27166666666744,
      "v": 90
    },
    {
      "midi": 83,
      "hit": false,
      "t": 43264.95999999988,
      "d": 68.02666666666482,
      "v": 74
    },
    {
      "midi": 91,
      "hit": false,
      "t": 43264.95999999988,
      "d": 68.02666666666482,
      "v": 90
    },
    {
      "midi": 43,
      "hit": false,
      "t": 43264.95999999988,
      "d": 99.91416666666191,
      "v": 75
    },
    {
      "midi": 50,
      "hit": false,
      "t": 43264.95999999988,
      "d": 104.16583333332528,
      "v": 75
    },
    {
      "midi": 55,
      "hit": false,
      "t": 43264.95999999988,
      "d": 108.41749999998865,
      "v": 75
    },
    {
      "midi": 62,
      "hit": false,
      "t": 43264.95999999988,
      "d": 121.17249999998603,
      "v": 75
    },
    {
      "midi": 43,
      "hit": false,
      "t": 43469.03999999987,
      "d": 29.761666666665406,
      "v": 75
    },
    {
      "midi": 86,
      "hit": false,
      "t": 43469.03999999987,
      "d": 55.27166666666744,
      "v": 86
    },
    {
      "midi": 83,
      "hit": false,
      "t": 43469.03999999987,
      "d": 65.90083333333314,
      "v": 70
    },
    {
      "midi": 91,
      "hit": false,
      "t": 43469.03999999987,
      "d": 85.03333333333285,
      "v": 94
    },
    {
      "midi": 50,
      "hit": false,
      "t": 43469.03999999987,
      "d": 108.41749999999593,
      "v": 75
    },
    {
      "midi": 55,
      "hit": false,
      "t": 43469.03999999987,
      "d": 110.54333333332761,
      "v": 75
    },
    {
      "midi": 62,
      "hit": false,
      "t": 43469.03999999987,
      "d": 112.6691666666593,
      "v": 75
    },
    {
      "midi": 86,
      "hit": false,
      "t": 43673.119999999864,
      "d": 59.52333333333081,
      "v": 90
    },
    {
      "midi": 83,
      "hit": false,
      "t": 43673.119999999864,
      "d": 63.77499999999418,
      "v": 78
    },
    {
      "midi": 91,
      "hit": false,
      "t": 43673.119999999864,
      "d": 82.90749999999389,
      "v": 103
    },
    {
      "midi": 43,
      "hit": false,
      "t": 43673.119999999864,
      "d": 102.0399999999936,
      "v": 75
    },
    {
      "midi": 55,
      "hit": false,
      "t": 43673.119999999864,
      "d": 110.54333333332761,
      "v": 75
    },
    {
      "midi": 52,
      "hit": false,
      "t": 43673.119999999864,
      "d": 121.1724999999933,
      "v": 75
    },
    {
      "midi": 64,
      "hit": false,
      "t": 43673.119999999864,
      "d": 142.4308333333247,
      "v": 75
    },
    {
      "midi": 83,
      "hit": false,
      "t": 43877.19999999986,
      "d": 63.775000000001455,
      "v": 82
    },
    {
      "midi": 86,
      "hit": false,
      "t": 43877.19999999986,
      "d": 65.90083333333314,
      "v": 90
    },
    {
      "midi": 50,
      "hit": false,
      "t": 43877.19999999986,
      "d": 70.15249999999651,
      "v": 75
    },
    {
      "midi": 62,
      "hit": false,
      "t": 43877.19999999986,
      "d": 80.7816666666622,
      "v": 75
    },
    {
      "midi": 43,
      "hit": false,
      "t": 43877.19999999986,
      "d": 91.4108333333279,
      "v": 75
    },
    {
      "midi": 91,
      "hit": false,
      "t": 43877.19999999986,
      "d": 91.4108333333279,
      "v": 103
    },
    {
      "midi": 55,
      "hit": false,
      "t": 43877.19999999986,
      "d": 104.16583333332528,
      "v": 75
    },
    {
      "midi": 81,
      "hit": false,
      "t": 44081.27999999985,
      "d": 25.510000000002037,
      "v": 59
    },
    {
      "midi": 86,
      "hit": false,
      "t": 44081.27999999985,
      "d": 74.40416666666715,
      "v": 90
    },
    {
      "midi": 90,
      "hit": false,
      "t": 44081.27999999985,
      "d": 78.65583333333052,
      "v": 94
    },
    {
      "midi": 57,
      "hit": false,
      "t": 44081.27999999985,
      "d": 82.90749999999389,
      "v": 75
    },
    {
      "midi": 38,
      "hit": false,
      "t": 44081.27999999985,
      "d": 87.15916666665726,
      "v": 75
    },
    {
      "midi": 62,
      "hit": false,
      "t": 44081.27999999985,
      "d": 89.28499999998894,
      "v": 75
    },
    {
      "midi": 45,
      "hit": false,
      "t": 44081.27999999985,
      "d": 95.66249999999127,
      "v": 75
    },
    {
      "midi": 38,
      "hit": false,
      "t": 44285.35999999985,
      "d": 31.88749999999709,
      "v": 75
    },
    {
      "midi": 81,
      "hit": false,
      "t": 44285.35999999985,
      "d": 42.516666666662786,
      "v": 57
    },
    {
      "midi": 86,
      "hit": false,
      "t": 44285.35999999985,
      "d": 55.27166666666017,
      "v": 74
    },
    {
      "midi": 90,
      "hit": false,
      "t": 44285.35999999985,
      "d": 68.02666666665755,
      "v": 86
    },
    {
      "midi": 57,
      "hit": false,
      "t": 44285.35999999985,
      "d": 91.41083333332062,
      "v": 75
    },
    {
      "midi": 62,
      "hit": false,
      "t": 44285.35999999985,
      "d": 97.78833333332295,
      "v": 75
    },
    {
      "midi": 45,
      "hit": false,
      "t": 44285.35999999985,
      "d": 104.16583333332528,
      "v": 75
    },
    {
      "midi": 86,
      "hit": false,
      "t": 44489.43999999984,
      "d": 65.90083333333314,
      "v": 90
    },
    {
      "midi": 81,
      "hit": false,
      "t": 44489.43999999984,
      "d": 80.78166666666948,
      "v": 62
    },
    {
      "midi": 90,
      "hit": false,
      "t": 44489.43999999984,
      "d": 82.90750000000116,
      "v": 94
    },
    {
      "midi": 59,
      "hit": false,
      "t": 44489.43999999984,
      "d": 102.04000000000087,
      "v": 75
    },
    {
      "midi": 38,
      "hit": false,
      "t": 44489.43999999984,
      "d": 108.4175000000032,
      "v": 75
    },
    {
      "midi": 47,
      "hit": false,
      "t": 44489.43999999984,
      "d": 108.4175000000032,
      "v": 75
    },
    {
      "midi": 62,
      "hit": false,
      "t": 44489.43999999984,
      "d": 110.54333333333489,
      "v": 75
    },
    {
      "midi": 38,
      "hit": false,
      "t": 44693.519999999844,
      "d": 23.384166666663077,
      "v": 75
    },
    {
      "midi": 81,
      "hit": false,
      "t": 44693.519999999844,
      "d": 59.52333333333081,
      "v": 61
    },
    {
      "midi": 86,
      "hit": false,
      "t": 44693.519999999844,
      "d": 61.649166666662495,
      "v": 78
    },
    {
      "midi": 90,
      "hit": false,
      "t": 44693.519999999844,
      "d": 70.15249999999651,
      "v": 94
    },
    {
      "midi": 45,
      "hit": false,
      "t": 44693.519999999844,
      "d": 74.40416666665988,
      "v": 75
    },
    {
      "midi": 57,
      "hit": false,
      "t": 44693.519999999844,
      "d": 97.78833333332295,
      "v": 75
    },
    {
      "midi": 62,
      "hit": false,
      "t": 44693.519999999844,
      "d": 106.29166666665697,
      "v": 75
    },
    {
      "midi": 90,
      "hit": false,
      "t": 44897.59999999983,
      "d": 68.02666666666482,
      "v": 90
    },
    {
      "midi": 86,
      "hit": false,
      "t": 44897.59999999983,
      "d": 72.27833333332819,
      "v": 90
    },
    {
      "midi": 81,
      "hit": false,
      "t": 44897.59999999983,
      "d": 85.03333333332557,
      "v": 59
    },
    {
      "midi": 38,
      "hit": false,
      "t": 44897.59999999983,
      "d": 89.28499999998894,
      "v": 75
    },
    {
      "midi": 45,
      "hit": false,
      "t": 44897.59999999983,
      "d": 95.66249999999127,
      "v": 75
    },
    {
      "midi": 57,
      "hit": false,
      "t": 44897.59999999983,
      "d": 95.66249999999127,
      "v": 75
    },
    {
      "midi": 62,
      "hit": false,
      "t": 44897.59999999983,
      "d": 99.91416666665464,
      "v": 75
    },
    {
      "midi": 81,
      "hit": false,
      "t": 45101.67999999982,
      "d": 68.02666666666482,
      "v": 66
    },
    {
      "midi": 86,
      "hit": false,
      "t": 45101.67999999982,
      "d": 70.15249999999651,
      "v": 94
    },
    {
      "midi": 38,
      "hit": false,
      "t": 45101.67999999982,
      "d": 76.52999999999884,
      "v": 75
    },
    {
      "midi": 90,
      "hit": false,
      "t": 45101.67999999982,
      "d": 76.52999999999884,
      "v": 103
    },
    {
      "midi": 62,
      "hit": false,
      "t": 45101.67999999982,
      "d": 85.03333333333285,
      "v": 75
    },
    {
      "midi": 45,
      "hit": false,
      "t": 45101.67999999982,
      "d": 93.53666666666686,
      "v": 75
    },
    {
      "midi": 57,
      "hit": false,
      "t": 45101.67999999982,
      "d": 110.54333333333489,
      "v": 75
    },
    {
      "midi": 47,
      "hit": false,
      "t": 45305.75999999982,
      "d": 51.0199999999968,
      "v": 75
    },
    {
      "midi": 81,
      "hit": false,
      "t": 45305.75999999982,
      "d": 57.39749999999913,
      "v": 61
    },
    {
      "midi": 86,
      "hit": false,
      "t": 45305.75999999982,
      "d": 65.90083333333314,
      "v": 90
    },
    {
      "midi": 90,
      "hit": false,
      "t": 45305.75999999982,
      "d": 78.65583333333052,
      "v": 94
    },
    {
      "midi": 59,
      "hit": false,
      "t": 45305.75999999982,
      "d": 93.53666666666686,
      "v": 75
    },
    {
      "midi": 62,
      "hit": false,
      "t": 45305.75999999982,
      "d": 108.4175000000032,
      "v": 75
    },
    {
      "midi": 38,
      "hit": false,
      "t": 45305.75999999982,
      "d": 223.21250000000146,
      "v": 75
    },
    {
      "midi": 45,
      "hit": false,
      "t": 45407.79999999982,
      "d": 91.41083333333518,
      "v": 75
    },
    {
      "midi": 86,
      "hit": false,
      "t": 45509.83999999982,
      "d": 65.90083333333314,
      "v": 70
    },
    {
      "midi": 90,
      "hit": false,
      "t": 45509.83999999982,
      "d": 80.78166666666948,
      "v": 86
    },
    {
      "midi": 62,
      "hit": false,
      "t": 45509.83999999982,
      "d": 85.03333333333285,
      "v": 75
    },
    {
      "midi": 81,
      "hit": false,
      "t": 45509.83999999982,
      "d": 85.03333333333285,
      "v": 61
    },
    {
      "midi": 57,
      "hit": false,
      "t": 45509.83999999982,
      "d": 95.66249999999854,
      "v": 75
    },
    {
      "midi": 86,
      "hit": false,
      "t": 45713.91999999982,
      "d": 72.27833333333547,
      "v": 90
    },
    {
      "midi": 83,
      "hit": false,
      "t": 45713.91999999982,
      "d": 78.6558333333378,
      "v": 78
    },
    {
      "midi": 50,
      "hit": false,
      "t": 45713.91999999982,
      "d": 80.78166666666948,
      "v": 75
    },
    {
      "midi": 91,
      "hit": false,
      "t": 45713.91999999982,
      "d": 82.90750000000116,
      "v": 94
    },
    {
      "midi": 55,
      "hit": false,
      "t": 45713.91999999982,
      "d": 93.53666666666686,
      "v": 75
    },
    {
      "midi": 62,
      "hit": false,
      "t": 45713.91999999982,
      "d": 95.66249999999854,
      "v": 75
    },
    {
      "midi": 43,
      "hit": false,
      "t": 45713.91999999982,
      "d": 99.91416666666191,
      "v": 75
    },
    {
      "midi": 43,
      "hit": false,
      "t": 45917.99999999982,
      "d": 17.006666666668025,
      "v": 75
    },
    {
      "midi": 86,
      "hit": false,
      "t": 45917.99999999982,
      "d": 57.39749999999913,
      "v": 86
    },
    {
      "midi": 55,
      "hit": false,
      "t": 45917.99999999982,
      "d": 76.52999999999884,
      "v": 75
    },
    {
      "midi": 50,
      "hit": false,
      "t": 45917.99999999982,
      "d": 85.03333333333285,
      "v": 75
    },
    {
      "midi": 83,
      "hit": false,
      "t": 45917.99999999982,
      "d": 85.03333333333285,
      "v": 66
    },
    {
      "midi": 91,
      "hit": false,
      "t": 45917.99999999982,
      "d": 85.03333333333285,
      "v": 94
    },
    {
      "midi": 62,
      "hit": false,
      "t": 45917.99999999982,
      "d": 95.66249999999854,
      "v": 75
    },
    {
      "midi": 86,
      "hit": false,
      "t": 46122.07999999982,
      "d": 57.39749999999913,
      "v": 90
    },
    {
      "midi": 83,
      "hit": false,
      "t": 46122.07999999982,
      "d": 78.65583333333052,
      "v": 74
    },
    {
      "midi": 55,
      "hit": false,
      "t": 46122.07999999982,
      "d": 89.28499999999622,
      "v": 75
    },
    {
      "midi": 91,
      "hit": false,
      "t": 46122.07999999982,
      "d": 89.28499999999622,
      "v": 90
    },
    {
      "midi": 43,
      "hit": false,
      "t": 46122.07999999982,
      "d": 93.53666666665958,
      "v": 75
    },
    {
      "midi": 64,
      "hit": false,
      "t": 46122.07999999982,
      "d": 102.0399999999936,
      "v": 75
    },
    {
      "midi": 52,
      "hit": false,
      "t": 46122.07999999982,
      "d": 106.29166666665697,
      "v": 75
    },
    {
      "midi": 86,
      "hit": false,
      "t": 46326.15999999981,
      "d": 65.90083333333314,
      "v": 86
    },
    {
      "midi": 83,
      "hit": false,
      "t": 46326.15999999981,
      "d": 74.40416666666715,
      "v": 66
    },
    {
      "midi": 50,
      "hit": false,
      "t": 46326.15999999981,
      "d": 80.78166666666948,
      "v": 75
    },
    {
      "midi": 55,
      "hit": false,
      "t": 46326.15999999981,
      "d": 80.78166666666948,
      "v": 75
    },
    {
      "midi": 62,
      "hit": false,
      "t": 46326.15999999981,
      "d": 87.15916666667181,
      "v": 75
    },
    {
      "midi": 91,
      "hit": false,
      "t": 46326.15999999981,
      "d": 89.28500000000349,
      "v": 94
    },
    {
      "midi": 43,
      "hit": false,
      "t": 46530.23999999981,
      "d": 63.775000000001455,
      "v": 75
    },
    {
      "midi": 86,
      "hit": false,
      "t": 46530.23999999981,
      "d": 63.775000000001455,
      "v": 86
    },
    {
      "midi": 83,
      "hit": false,
      "t": 46530.23999999981,
      "d": 68.02666666666482,
      "v": 66
    },
    {
      "midi": 91,
      "hit": false,
      "t": 46530.23999999981,
      "d": 85.03333333333285,
      "v": 94
    },
    {
      "midi": 50,
      "hit": false,
      "t": 46530.23999999981,
      "d": 87.15916666666453,
      "v": 75
    },
    {
      "midi": 55,
      "hit": false,
      "t": 46530.23999999981,
      "d": 89.28499999999622,
      "v": 75
    },
    {
      "midi": 62,
      "hit": false,
      "t": 46530.23999999981,
      "d": 91.4108333333279,
      "v": 75
    },
    {
      "midi": 86,
      "hit": false,
      "t": 46734.3199999998,
      "d": 61.64916666666977,
      "v": 90
    },
    {
      "midi": 43,
      "hit": false,
      "t": 46734.3199999998,
      "d": 65.90083333333314,
      "v": 75
    },
    {
      "midi": 83,
      "hit": false,
      "t": 46734.3199999998,
      "d": 65.90083333333314,
      "v": 74
    },
    {
      "midi": 91,
      "hit": false,
      "t": 46734.3199999998,
      "d": 85.03333333333285,
      "v": 94
    },
    {
      "midi": 50,
      "hit": false,
      "t": 46734.3199999998,
      "d": 97.78833333333023,
      "v": 75
    },
    {
      "midi": 55,
      "hit": false,
      "t": 46734.3199999998,
      "d": 99.91416666666191,
      "v": 75
    },
    {
      "midi": 62,
      "hit": false,
      "t": 46734.3199999998,
      "d": 102.0399999999936,
      "v": 75
    },
    {
      "midi": 86,
      "hit": false,
      "t": 46938.3999999998,
      "d": 65.90083333333314,
      "v": 90
    },
    {
      "midi": 83,
      "hit": false,
      "t": 46938.3999999998,
      "d": 76.52999999999884,
      "v": 74
    },
    {
      "midi": 55,
      "hit": false,
      "t": 46938.3999999998,
      "d": 80.7816666666622,
      "v": 75
    },
    {
      "midi": 91,
      "hit": false,
      "t": 46938.3999999998,
      "d": 80.7816666666622,
      "v": 103
    },
    {
      "midi": 43,
      "hit": false,
      "t": 46938.3999999998,
      "d": 89.28499999999622,
      "v": 75
    },
    {
      "midi": 64,
      "hit": false,
      "t": 46938.3999999998,
      "d": 95.66249999999854,
      "v": 75
    },
    {
      "midi": 52,
      "hit": false,
      "t": 46938.3999999998,
      "d": 112.66916666666657,
      "v": 75
    },
    {
      "midi": 43,
      "hit": false,
      "t": 47142.4799999998,
      "d": 17.006666666668025,
      "v": 75
    },
    {
      "midi": 83,
      "hit": false,
      "t": 47142.4799999998,
      "d": 55.27166666666744,
      "v": 61
    },
    {
      "midi": 50,
      "hit": false,
      "t": 47142.4799999998,
      "d": 70.15250000000378,
      "v": 75
    },
    {
      "midi": 86,
      "hit": false,
      "t": 47142.4799999998,
      "d": 70.15250000000378,
      "v": 86
    },
    {
      "midi": 55,
      "hit": false,
      "t": 47142.4799999998,
      "d": 85.03333333334012,
      "v": 75
    },
    {
      "midi": 91,
      "hit": false,
      "t": 47142.4799999998,
      "d": 85.03333333334012,
      "v": 90
    },
    {
      "midi": 62,
      "hit": false,
      "t": 47142.4799999998,
      "d": 89.28500000000349,
      "v": 75
    },
    {
      "midi": 86,
      "hit": false,
      "t": 47346.5599999998,
      "d": 23.384166666663077,
      "v": 62
    },
    {
      "midi": 91,
      "hit": false,
      "t": 47346.5599999998,
      "d": 57.39749999999913,
      "v": 103
    },
    {
      "midi": 95,
      "hit": false,
      "t": 47346.5599999998,
      "d": 76.52999999999884,
      "v": 112
    },
    {
      "midi": 43,
      "hit": false,
      "t": 47346.5599999998,
      "d": 80.7816666666622,
      "v": 75
    },
    {
      "midi": 50,
      "hit": false,
      "t": 47346.5599999998,
      "d": 85.03333333332557,
      "v": 75
    },
    {
      "midi": 55,
      "hit": false,
      "t": 47346.5599999998,
      "d": 89.28499999998894,
      "v": 75
    },
    {
      "midi": 62,
      "hit": false,
      "t": 47346.5599999998,
      "d": 95.66249999999127,
      "v": 75
    },
    {
      "midi": 86,
      "hit": false,
      "t": 47550.639999999796,
      "d": 31.88749999999709,
      "v": 59
    },
    {
      "midi": 91,
      "hit": false,
      "t": 47550.639999999796,
      "d": 63.77499999999418,
      "v": 94
    },
    {
      "midi": 43,
      "hit": false,
      "t": 47550.639999999796,
      "d": 65.90083333332586,
      "v": 75
    },
    {
      "midi": 95,
      "hit": false,
      "t": 47550.639999999796,
      "d": 78.65583333332324,
      "v": 94
    },
    {
      "midi": 55,
      "hit": false,
      "t": 47550.639999999796,
      "d": 91.41083333332062,
      "v": 75
    },
    {
      "midi": 62,
      "hit": false,
      "t": 47550.639999999796,
      "d": 106.29166666665697,
      "v": 75
    },
    {
      "midi": 50,
      "hit": false,
      "t": 47550.639999999796,
      "d": 108.41749999998865,
      "v": 75
    },
    {
      "midi": 50,
      "hit": false,
      "t": 47754.71999999978,
      "d": 17.006666666668025,
      "v": 75
    },
    {
      "midi": 86,
      "hit": false,
      "t": 47754.71999999978,
      "d": 42.51666666667006,
      "v": 61
    },
    {
      "midi": 91,
      "hit": false,
      "t": 47754.71999999978,
      "d": 72.27833333333547,
      "v": 94
    },
    {
      "midi": 55,
      "hit": false,
      "t": 47754.71999999978,
      "d": 85.03333333333285,
      "v": 75
    },
    {
      "midi": 95,
      "hit": false,
      "t": 47754.71999999978,
      "d": 89.28499999999622,
      "v": 94
    },
    {
      "midi": 43,
      "hit": false,
      "t": 47754.71999999978,
      "d": 95.66249999999854,
      "v": 75
    },
    {
      "midi": 64,
      "hit": false,
      "t": 47754.71999999978,
      "d": 97.78833333333023,
      "v": 75
    },
    {
      "midi": 52,
      "hit": false,
      "t": 47754.71999999978,
      "d": 127.54999999999563,
      "v": 75
    },
    {
      "midi": 86,
      "hit": false,
      "t": 47958.79999999978,
      "d": 59.52333333333081,
      "v": 62
    },
    {
      "midi": 91,
      "hit": false,
      "t": 47958.79999999978,
      "d": 65.90083333333314,
      "v": 86
    },
    {
      "midi": 50,
      "hit": false,
      "t": 47958.79999999978,
      "d": 74.40416666666715,
      "v": 75
    },
    {
      "midi": 55,
      "hit": false,
      "t": 47958.79999999978,
      "d": 82.90750000000116,
      "v": 75
    },
    {
      "midi": 95,
      "hit": false,
      "t": 47958.79999999978,
      "d": 89.28500000000349,
      "v": 90
    },
    {
      "midi": 62,
      "hit": false,
      "t": 47958.79999999978,
      "d": 91.41083333333518,
      "v": 75
    },
    {
      "midi": 86,
      "hit": false,
      "t": 48162.87999999978,
      "d": 65.90083333333314,
      "v": 61
    },
    {
      "midi": 91,
      "hit": false,
      "t": 48162.87999999978,
      "d": 68.02666666666482,
      "v": 90
    },
    {
      "midi": 43,
      "hit": false,
      "t": 48162.87999999978,
      "d": 78.65583333333052,
      "v": 75
    },
    {
      "midi": 50,
      "hit": false,
      "t": 48162.87999999978,
      "d": 89.28499999999622,
      "v": 75
    },
    {
      "midi": 55,
      "hit": false,
      "t": 48162.87999999978,
      "d": 91.4108333333279,
      "v": 75
    },
    {
      "midi": 95,
      "hit": false,
      "t": 48162.87999999978,
      "d": 93.53666666665958,
      "v": 94
    },
    {
      "midi": 62,
      "hit": false,
      "t": 48162.87999999978,
      "d": 95.66249999999127,
      "v": 75
    },
    {
      "midi": 43,
      "hit": false,
      "t": 48366.95999999977,
      "d": 63.775000000001455,
      "v": 75
    },
    {
      "midi": 86,
      "hit": false,
      "t": 48366.95999999977,
      "d": 70.15250000000378,
      "v": 58
    },
    {
      "midi": 91,
      "hit": false,
      "t": 48366.95999999977,
      "d": 72.27833333333547,
      "v": 86
    },
    {
      "midi": 55,
      "hit": false,
      "t": 48366.95999999977,
      "d": 95.66249999999854,
      "v": 75
    },
    {
      "midi": 95,
      "hit": false,
      "t": 48366.95999999977,
      "d": 95.66249999999854,
      "v": 90
    },
    {
      "midi": 62,
      "hit": false,
      "t": 48366.95999999977,
      "d": 97.78833333333023,
      "v": 75
    },
    {
      "midi": 50,
      "hit": false,
      "t": 48366.95999999977,
      "d": 102.0399999999936,
      "v": 75
    },
    {
      "midi": 50,
      "hit": false,
      "t": 48571.03999999977,
      "d": 8.503333333334012,
      "v": 75
    },
    {
      "midi": 91,
      "hit": false,
      "t": 48571.03999999977,
      "d": 59.52333333333081,
      "v": 94
    },
    {
      "midi": 86,
      "hit": false,
      "t": 48571.03999999977,
      "d": 74.40416666666715,
      "v": 74
    },
    {
      "midi": 55,
      "hit": false,
      "t": 48571.03999999977,
      "d": 87.15916666666453,
      "v": 75
    },
    {
      "midi": 95,
      "hit": false,
      "t": 48571.03999999977,
      "d": 87.15916666666453,
      "v": 94
    },
    {
      "midi": 43,
      "hit": false,
      "t": 48571.03999999977,
      "d": 93.53666666666686,
      "v": 75
    },
    {
      "midi": 64,
      "hit": false,
      "t": 48571.03999999977,
      "d": 99.91416666666919,
      "v": 75
    },
    {
      "midi": 52,
      "hit": false,
      "t": 48571.03999999977,
      "d": 104.16583333333256,
      "v": 75
    },
    {
      "midi": 43,
      "hit": false,
      "t": 48775.11999999977,
      "d": 63.775000000001455,
      "v": 75
    },
    {
      "midi": 55,
      "hit": false,
      "t": 48775.11999999977,
      "d": 65.90083333333314,
      "v": 75
    },
    {
      "midi": 91,
      "hit": false,
      "t": 48775.11999999977,
      "d": 70.15249999999651,
      "v": 94
    },
    {
      "midi": 50,
      "hit": false,
      "t": 48775.11999999977,
      "d": 72.27833333332819,
      "v": 75
    },
    {
      "midi": 86,
      "hit": false,
      "t": 48775.11999999977,
      "d": 72.27833333332819,
      "v": 66
    },
    {
      "midi": 95,
      "hit": false,
      "t": 48775.11999999977,
      "d": 89.28499999999622,
      "v": 94
    },
    {
      "midi": 62,
      "hit": false,
      "t": 48775.11999999977,
      "d": 95.66249999999854,
      "v": 75
    },
    {
      "midi": 91,
      "hit": false,
      "t": 48979.19999999977,
      "d": 55.27166666666744,
      "v": 103
    },
    {
      "midi": 88,
      "hit": false,
      "t": 48979.19999999977,
      "d": 59.52333333333081,
      "v": 90
    },
    {
      "midi": 60,
      "hit": false,
      "t": 48979.19999999977,
      "d": 72.27833333332819,
      "v": 75
    },
    {
      "midi": 67,
      "hit": false,
      "t": 48979.19999999977,
      "d": 76.52999999999156,
      "v": 75
    },
    {
      "midi": 43,
      "hit": false,
      "t": 48979.19999999977,
      "d": 82.90749999999389,
      "v": 75
    },
    {
      "midi": 96,
      "hit": false,
      "t": 48979.19999999977,
      "d": 85.03333333332557,
      "v": 103
    },
    {
      "midi": 36,
      "hit": false,
      "t": 48979.19999999977,
      "d": 102.0399999999936,
      "v": 75
    },
    {
      "midi": 36,
      "hit": false,
      "t": 49183.279999999766,
      "d": 63.775000000001455,
      "v": 75
    },
    {
      "midi": 91,
      "hit": false,
      "t": 49183.279999999766,
      "d": 65.90083333333314,
      "v": 90
    },
    {
      "midi": 88,
      "hit": false,
      "t": 49183.279999999766,
      "d": 80.78166666666948,
      "v": 70
    },
    {
      "midi": 43,
      "hit": false,
      "t": 49183.279999999766,
      "d": 91.41083333333518,
      "v": 75
    },
    {
      "midi": 96,
      "hit": false,
      "t": 49183.279999999766,
      "d": 95.66249999999854,
      "v": 103
    },
    {
      "midi": 67,
      "hit": false,
      "t": 49183.279999999766,
      "d": 108.41749999999593,
      "v": 75
    },
    {
      "midi": 60,
      "hit": false,
      "t": 49183.279999999766,
      "d": 112.6691666666593,
      "v": 75
    },
    {
      "midi": 88,
      "hit": false,
      "t": 49387.35999999976,
      "d": 63.775000000001455,
      "v": 61
    },
    {
      "midi": 91,
      "hit": false,
      "t": 49387.35999999976,
      "d": 65.90083333333314,
      "v": 86
    },
    {
      "midi": 36,
      "hit": false,
      "t": 49387.35999999976,
      "d": 87.15916666666453,
      "v": 75
    },
    {
      "midi": 96,
      "hit": false,
      "t": 49387.35999999976,
      "d": 95.66249999999854,
      "v": 90
    },
    {
      "midi": 45,
      "hit": false,
      "t": 49387.35999999976,
      "d": 104.16583333333256,
      "v": 75
    },
    {
      "midi": 69,
      "hit": false,
      "t": 49387.35999999976,
      "d": 106.29166666666424,
      "v": 75
    },
    {
      "midi": 60,
      "hit": false,
      "t": 49387.35999999976,
      "d": 125.42416666666395,
      "v": 75
    },
    {
      "midi": 88,
      "hit": false,
      "t": 49591.439999999755,
      "d": 63.775000000001455,
      "v": 62
    },
    {
      "midi": 91,
      "hit": false,
      "t": 49591.439999999755,
      "d": 68.02666666666482,
      "v": 90
    },
    {
      "midi": 60,
      "hit": false,
      "t": 49591.439999999755,
      "d": 82.90750000000116,
      "v": 75
    },
    {
      "midi": 67,
      "hit": false,
      "t": 49591.439999999755,
      "d": 87.15916666666453,
      "v": 75
    },
    {
      "midi": 96,
      "hit": false,
      "t": 49591.439999999755,
      "d": 95.66249999999854,
      "v": 90
    },
    {
      "midi": 43,
      "hit": false,
      "t": 49591.439999999755,
      "d": 104.16583333333256,
      "v": 75
    },
    {
      "midi": 91,
      "hit": false,
      "t": 49795.51999999976,
      "d": 78.65583333333052,
      "v": 86
    },
    {
      "midi": 36,
      "hit": false,
      "t": 49795.51999999976,
      "d": 82.90749999999389,
      "v": 75
    },
    {
      "midi": 43,
      "hit": false,
      "t": 49795.51999999976,
      "d": 85.03333333332557,
      "v": 75
    },
    {
      "midi": 88,
      "hit": false,
      "t": 49795.51999999976,
      "d": 87.15916666665726,
      "v": 62
    },
    {
      "midi": 67,
      "hit": false,
      "t": 49795.51999999976,
      "d": 99.91416666665464,
      "v": 75
    },
    {
      "midi": 96,
      "hit": false,
      "t": 49795.51999999976,
      "d": 106.29166666665697,
      "v": 94
    },
    {
      "midi": 60,
      "hit": false,
      "t": 49795.51999999976,
      "d": 110.54333333332033,
      "v": 75
    },
    {
      "midi": 36,
      "hit": false,
      "t": 49999.599999999744,
      "d": 53.14583333333576,
      "v": 75
    },
    {
      "midi": 88,
      "hit": false,
      "t": 49999.599999999744,
      "d": 63.775000000001455,
      "v": 61
    },
    {
      "midi": 91,
      "hit": false,
      "t": 49999.599999999744,
      "d": 63.775000000001455,
      "v": 86
    },
    {
      "midi": 96,
      "hit": false,
      "t": 49999.599999999744,
      "d": 89.28500000000349,
      "v": 90
    },
    {
      "midi": 67,
      "hit": false,
      "t": 49999.599999999744,
      "d": 95.66250000000582,
      "v": 75
    },
    {
      "midi": 43,
      "hit": false,
      "t": 49999.599999999744,
      "d": 97.7883333333375,
      "v": 75
    },
    {
      "midi": 60,
      "hit": false,
      "t": 49999.599999999744,
      "d": 97.7883333333375,
      "v": 75
    },
    {
      "midi": 91,
      "hit": false,
      "t": 50203.679999999746,
      "d": 74.40416666666715,
      "v": 90
    },
    {
      "midi": 36,
      "hit": false,
      "t": 50203.679999999746,
      "d": 80.78166666666948,
      "v": 75
    },
    {
      "midi": 60,
      "hit": false,
      "t": 50203.679999999746,
      "d": 87.15916666667181,
      "v": 75
    },
    {
      "midi": 88,
      "hit": false,
      "t": 50203.679999999746,
      "d": 89.28500000000349,
      "v": 74
    },
    {
      "midi": 69,
      "hit": false,
      "t": 50203.679999999746,
      "d": 95.66250000000582,
      "v": 75
    },
    {
      "midi": 96,
      "hit": false,
      "t": 50203.679999999746,
      "d": 95.66250000000582,
      "v": 94
    },
    {
      "midi": 45,
      "hit": false,
      "t": 50203.679999999746,
      "d": 106.29166666667152,
      "v": 75
    },
    {
      "midi": 91,
      "hit": false,
      "t": 50407.75999999975,
      "d": 70.15249999999651,
      "v": 90
    },
    {
      "midi": 43,
      "hit": false,
      "t": 50407.75999999975,
      "d": 76.52999999999884,
      "v": 75
    },
    {
      "midi": 88,
      "hit": false,
      "t": 50407.75999999975,
      "d": 76.52999999999884,
      "v": 66
    },
    {
      "midi": 96,
      "hit": false,
      "t": 50407.75999999975,
      "d": 85.03333333333285,
      "v": 94
    },
    {
      "midi": 67,
      "hit": false,
      "t": 50407.75999999975,
      "d": 89.28499999999622,
      "v": 75
    },
    {
      "midi": 60,
      "hit": false,
      "t": 50407.75999999975,
      "d": 102.0399999999936,
      "v": 75
    },
    {
      "midi": 91,
      "hit": false,
      "t": 50611.83999999974,
      "d": 68.02666666666482,
      "v": 86
    },
    {
      "midi": 88,
      "hit": false,
      "t": 50611.83999999974,
      "d": 85.03333333333285,
      "v": 74
    },
    {
      "midi": 36,
      "hit": false,
      "t": 50611.83999999974,
      "d": 89.28499999999622,
      "v": 75
    },
    {
      "midi": 43,
      "hit": false,
      "t": 50611.83999999974,
      "d": 91.4108333333279,
      "v": 75
    },
    {
      "midi": 60,
      "hit": false,
      "t": 50611.83999999974,
      "d": 104.16583333332528,
      "v": 75
    },
    {
      "midi": 67,
      "hit": false,
      "t": 50611.83999999974,
      "d": 104.16583333332528,
      "v": 75
    },
    {
      "midi": 96,
      "hit": false,
      "t": 50611.83999999974,
      "d": 110.54333333332761,
      "v": 90
    },
    {
      "midi": 36,
      "hit": false,
      "t": 50815.919999999736,
      "d": 51.0199999999968,
      "v": 75
    },
    {
      "midi": 91,
      "hit": false,
      "t": 50815.919999999736,
      "d": 61.649166666662495,
      "v": 82
    },
    {
      "midi": 88,
      "hit": false,
      "t": 50815.919999999736,
      "d": 74.40416666665988,
      "v": 62
    },
    {
      "midi": 43,
      "hit": false,
      "t": 50815.919999999736,
      "d": 89.28499999999622,
      "v": 75
    },
    {
      "midi": 96,
      "hit": false,
      "t": 50815.919999999736,
      "d": 91.4108333333279,
      "v": 94
    },
    {
      "midi": 60,
      "hit": false,
      "t": 50815.919999999736,
      "d": 93.53666666665958,
      "v": 75
    },
    {
      "midi": 67,
      "hit": false,
      "t": 50815.919999999736,
      "d": 95.66249999999127,
      "v": 75
    },
    {
      "midi": 91,
      "hit": false,
      "t": 51019.99999999973,
      "d": 72.27833333333547,
      "v": 86
    },
    {
      "midi": 88,
      "hit": false,
      "t": 51019.99999999973,
      "d": 80.78166666666948,
      "v": 66
    },
    {
      "midi": 60,
      "hit": false,
      "t": 51019.99999999973,
      "d": 89.28500000000349,
      "v": 75
    },
    {
      "midi": 96,
      "hit": false,
      "t": 51019.99999999973,
      "d": 97.7883333333375,
      "v": 90
    },
    {
      "midi": 45,
      "hit": false,
      "t": 51019.99999999973,
      "d": 104.16583333333983,
      "v": 75
    },
    {
      "midi": 36,
      "hit": false,
      "t": 51019.99999999973,
      "d": 114.79500000000553,
      "v": 75
    },
    {
      "midi": 69,
      "hit": false,
      "t": 51019.99999999973,
      "d": 114.79500000000553,
      "v": 75
    },
    {
      "midi": 43,
      "hit": false,
      "t": 51224.07999999974,
      "d": 72.27833333333547,
      "v": 75
    },
    {
      "midi": 67,
      "hit": false,
      "t": 51224.07999999974,
      "d": 78.6558333333378,
      "v": 75
    },
    {
      "midi": 91,
      "hit": false,
      "t": 51224.07999999974,
      "d": 78.6558333333378,
      "v": 86
    },
    {
      "midi": 88,
      "hit": false,
      "t": 51224.07999999974,
      "d": 82.90750000000116,
      "v": 62
    },
    {
      "midi": 60,
      "hit": false,
      "t": 51224.07999999974,
      "d": 89.28500000000349,
      "v": 75
    },
    {
      "midi": 96,
      "hit": false,
      "t": 51224.07999999974,
      "d": 99.91416666666919,
      "v": 90
    },
    {
      "midi": 91,
      "hit": false,
      "t": 51428.15999999974,
      "d": 78.65583333333052,
      "v": 90
    },
    {
      "midi": 88,
      "hit": false,
      "t": 51428.15999999974,
      "d": 85.03333333333285,
      "v": 66
    },
    {
      "midi": 60,
      "hit": false,
      "t": 51428.15999999974,
      "d": 91.41083333333518,
      "v": 75
    },
    {
      "midi": 67,
      "hit": false,
      "t": 51428.15999999974,
      "d": 93.53666666666686,
      "v": 75
    },
    {
      "midi": 96,
      "hit": false,
      "t": 51428.15999999974,
      "d": 95.66249999999854,
      "v": 94
    },
    {
      "midi": 36,
      "hit": false,
      "t": 51428.15999999974,
      "d": 99.91416666666191,
      "v": 75
    },
    {
      "midi": 43,
      "hit": false,
      "t": 51428.15999999974,
      "d": 102.0399999999936,
      "v": 75
    },
    {
      "midi": 36,
      "hit": false,
      "t": 51632.239999999736,
      "d": 27.63583333333372,
      "v": 75
    },
    {
      "midi": 88,
      "hit": false,
      "t": 51632.239999999736,
      "d": 59.52333333333081,
      "v": 59
    },
    {
      "midi": 91,
      "hit": false,
      "t": 51632.239999999736,
      "d": 72.27833333332819,
      "v": 86
    },
    {
      "midi": 43,
      "hit": false,
      "t": 51632.239999999736,
      "d": 91.4108333333279,
      "v": 75
    },
    {
      "midi": 67,
      "hit": false,
      "t": 51632.239999999736,
      "d": 95.66249999999127,
      "v": 75
    },
    {
      "midi": 96,
      "hit": false,
      "t": 51632.239999999736,
      "d": 97.78833333332295,
      "v": 90
    },
    {
      "midi": 60,
      "hit": false,
      "t": 51632.239999999736,
      "d": 102.03999999998632,
      "v": 75
    },
    {
      "midi": 88,
      "hit": false,
      "t": 51836.31999999972,
      "d": 59.52333333333081,
      "v": 56
    },
    {
      "midi": 91,
      "hit": false,
      "t": 51836.31999999972,
      "d": 74.40416666666715,
      "v": 82
    },
    {
      "midi": 96,
      "hit": false,
      "t": 51836.31999999972,
      "d": 95.66249999999854,
      "v": 86
    },
    {
      "midi": 36,
      "hit": false,
      "t": 51836.31999999972,
      "d": 97.78833333333023,
      "v": 75
    },
    {
      "midi": 60,
      "hit": false,
      "t": 51836.31999999972,
      "d": 99.91416666666191,
      "v": 75
    },
    {
      "midi": 45,
      "hit": false,
      "t": 51836.31999999972,
      "d": 106.29166666666424,
      "v": 75
    },
    {
      "midi": 69,
      "hit": false,
      "t": 51836.31999999972,
      "d": 119.04666666666162,
      "v": 75
    },
    {
      "midi": 67,
      "hit": false,
      "t": 52040.39999999972,
      "d": 57.39749999999913,
      "v": 75
    },
    {
      "midi": 43,
      "hit": false,
      "t": 52040.39999999972,
      "d": 74.40416666666715,
      "v": 75
    },
    {
      "midi": 91,
      "hit": false,
      "t": 52040.39999999972,
      "d": 76.52999999999884,
      "v": 86
    },
    {
      "midi": 60,
      "hit": false,
      "t": 52040.39999999972,
      "d": 78.65583333333052,
      "v": 75
    },
    {
      "midi": 88,
      "hit": false,
      "t": 52040.39999999972,
      "d": 78.65583333333052,
      "v": 66
    },
    {
      "midi": 96,
      "hit": false,
      "t": 52040.39999999972,
      "d": 89.28499999999622,
      "v": 90
    },
    {
      "midi": 86,
      "hit": false,
      "t": 52244.47999999971,
      "d": 36.139166666667734,
      "v": 74
    },
    {
      "midi": 55,
      "hit": false,
      "t": 52244.47999999971,
      "d": 68.02666666666482,
      "v": 75
    },
    {
      "midi": 91,
      "hit": false,
      "t": 52244.47999999971,
      "d": 70.15249999999651,
      "v": 94
    },
    {
      "midi": 62,
      "hit": false,
      "t": 52244.47999999971,
      "d": 74.40416666665988,
      "v": 75
    },
    {
      "midi": 50,
      "hit": false,
      "t": 52244.47999999971,
      "d": 80.7816666666622,
      "v": 75
    },
    {
      "midi": 95,
      "hit": false,
      "t": 52244.47999999971,
      "d": 95.66249999999854,
      "v": 103
    },
    {
      "midi": 43,
      "hit": false,
      "t": 52244.47999999971,
      "d": 108.41749999999593,
      "v": 75
    },
    {
      "midi": 86,
      "hit": false,
      "t": 52448.55999999971,
      "d": 57.39749999999913,
      "v": 62
    },
    {
      "midi": 55,
      "hit": false,
      "t": 52448.55999999971,
      "d": 72.27833333333547,
      "v": 75
    },
    {
      "midi": 91,
      "hit": false,
      "t": 52448.55999999971,
      "d": 74.40416666666715,
      "v": 86
    },
    {
      "midi": 50,
      "hit": false,
      "t": 52448.55999999971,
      "d": 93.53666666666686,
      "v": 75
    },
    {
      "midi": 95,
      "hit": false,
      "t": 52448.55999999971,
      "d": 93.53666666666686,
      "v": 90
    },
    {
      "midi": 62,
      "hit": false,
      "t": 52448.55999999971,
      "d": 95.66249999999854,
      "v": 75
    },
    {
      "midi": 91,
      "hit": false,
      "t": 52652.63999999971,
      "d": 78.65583333333052,
      "v": 82
    },
    {
      "midi": 86,
      "hit": false,
      "t": 52652.63999999971,
      "d": 87.15916666666453,
      "v": 66
    },
    {
      "midi": 43,
      "hit": false,
      "t": 52652.63999999971,
      "d": 95.66249999999854,
      "v": 75
    },
    {
      "midi": 95,
      "hit": false,
      "t": 52652.63999999971,
      "d": 104.16583333333256,
      "v": 90
    },
    {
      "midi": 55,
      "hit": false,
      "t": 52652.63999999971,
      "d": 106.29166666666424,
      "v": 75
    },
    {
      "midi": 52,
      "hit": false,
      "t": 52652.63999999971,
      "d": 114.79499999999825,
      "v": 75
    },
    {
      "midi": 64,
      "hit": false,
      "t": 52652.63999999971,
      "d": 129.6758333333346,
      "v": 75
    },
    {
      "midi": 91,
      "hit": false,
      "t": 52856.71999999971,
      "d": 70.15249999999651,
      "v": 90
    },
    {
      "midi": 86,
      "hit": false,
      "t": 52856.71999999971,
      "d": 72.27833333332819,
      "v": 70
    },
    {
      "midi": 50,
      "hit": false,
      "t": 52856.71999999971,
      "d": 76.52999999999156,
      "v": 75
    },
    {
      "midi": 62,
      "hit": false,
      "t": 52856.71999999971,
      "d": 89.28499999998894,
      "v": 75
    },
    {
      "midi": 95,
      "hit": false,
      "t": 52856.71999999971,
      "d": 89.28499999998894,
      "v": 94
    },
    {
      "midi": 55,
      "hit": false,
      "t": 52856.71999999971,
      "d": 99.91416666665464,
      "v": 75
    },
    {
      "midi": 91,
      "hit": false,
      "t": 53060.7999999997,
      "d": 76.52999999999884,
      "v": 94
    },
    {
      "midi": 43,
      "hit": false,
      "t": 53060.7999999997,
      "d": 91.41083333333518,
      "v": 75
    },
    {
      "midi": 50,
      "hit": false,
      "t": 53060.7999999997,
      "d": 97.7883333333375,
      "v": 75
    },
    {
      "midi": 55,
      "hit": false,
      "t": 53060.7999999997,
      "d": 99.91416666666919,
      "v": 75
    },
    {
      "midi": 86,
      "hit": false,
      "t": 53060.7999999997,
      "d": 99.91416666666919,
      "v": 74
    },
    {
      "midi": 95,
      "hit": false,
      "t": 53060.7999999997,
      "d": 106.29166666667152,
      "v": 94
    },
    {
      "midi": 62,
      "hit": false,
      "t": 53060.7999999997,
      "d": 110.54333333333489,
      "v": 75
    },
    {
      "midi": 43,
      "hit": false,
      "t": 53264.8799999997,
      "d": 38.26499999999942,
      "v": 75
    },
    {
      "midi": 91,
      "hit": false,
      "t": 53264.8799999997,
      "d": 74.40416666666715,
      "v": 86
    },
    {
      "midi": 86,
      "hit": false,
      "t": 53264.8799999997,
      "d": 78.65583333333052,
      "v": 62
    },
    {
      "midi": 50,
      "hit": false,
      "t": 53264.8799999997,
      "d": 85.03333333333285,
      "v": 75
    },
    {
      "midi": 95,
      "hit": false,
      "t": 53264.8799999997,
      "d": 91.41083333333518,
      "v": 94
    },
    {
      "midi": 55,
      "hit": false,
      "t": 53264.8799999997,
      "d": 99.91416666666919,
      "v": 75
    },
    {
      "midi": 62,
      "hit": false,
      "t": 53264.8799999997,
      "d": 106.29166666667152,
      "v": 75
    },
    {
      "midi": 50,
      "hit": false,
      "t": 53468.9599999997,
      "d": 46.76833333333343,
      "v": 75
    },
    {
      "midi": 91,
      "hit": false,
      "t": 53468.9599999997,
      "d": 72.27833333333547,
      "v": 90
    },
    {
      "midi": 86,
      "hit": false,
      "t": 53468.9599999997,
      "d": 85.03333333333285,
      "v": 66
    },
    {
      "midi": 95,
      "hit": false,
      "t": 53468.9599999997,
      "d": 95.66249999999854,
      "v": 94
    },
    {
      "midi": 43,
      "hit": false,
      "t": 53468.9599999997,
      "d": 108.41749999999593,
      "v": 75
    },
    {
      "midi": 52,
      "hit": false,
      "t": 53468.9599999997,
      "d": 108.41749999999593,
      "v": 75
    },
    {
      "midi": 55,
      "hit": false,
      "t": 53468.9599999997,
      "d": 110.54333333332761,
      "v": 75
    },
    {
      "midi": 64,
      "hit": false,
      "t": 53468.9599999997,
      "d": 123.29833333332499,
      "v": 75
    },
    {
      "midi": 43,
      "hit": false,
      "t": 53673.039999999695,
      "d": 17.006666666668025,
      "v": 75
    },
    {
      "midi": 91,
      "hit": false,
      "t": 53673.039999999695,
      "d": 68.02666666666482,
      "v": 90
    },
    {
      "midi": 86,
      "hit": false,
      "t": 53673.039999999695,
      "d": 74.40416666666715,
      "v": 60
    },
    {
      "midi": 95,
      "hit": false,
      "t": 53673.039999999695,
      "d": 85.03333333333285,
      "v": 94
    },
    {
      "midi": 55,
      "hit": false,
      "t": 53673.039999999695,
      "d": 89.28499999999622,
      "v": 75
    },
    {
      "midi": 62,
      "hit": false,
      "t": 53673.039999999695,
      "d": 93.53666666665958,
      "v": 75
    },
    {
      "midi": 50,
      "hit": false,
      "t": 53673.039999999695,
      "d": 97.78833333332295,
      "v": 75
    },
    {
      "midi": 43,
      "hit": false,
      "t": 53877.11999999968,
      "d": 63.775000000001455,
      "v": 75
    },
    {
      "midi": 91,
      "hit": false,
      "t": 53877.11999999968,
      "d": 74.40416666666715,
      "v": 90
    },
    {
      "midi": 86,
      "hit": false,
      "t": 53877.11999999968,
      "d": 87.15916666666453,
      "v": 66
    },
    {
      "midi": 55,
      "hit": false,
      "t": 53877.11999999968,
      "d": 91.4108333333279,
      "v": 75
    },
    {
      "midi": 50,
      "hit": false,
      "t": 53877.11999999968,
      "d": 93.53666666665958,
      "v": 75
    },
    {
      "midi": 95,
      "hit": false,
      "t": 53877.11999999968,
      "d": 99.91416666666191,
      "v": 94
    },
    {
      "midi": 62,
      "hit": false,
      "t": 53877.11999999968,
      "d": 106.29166666666424,
      "v": 75
    },
    {
      "midi": 55,
      "hit": false,
      "t": 54081.19999999968,
      "d": 59.52333333333081,
      "v": 75
    },
    {
      "midi": 91,
      "hit": false,
      "t": 54081.19999999968,
      "d": 65.90083333333314,
      "v": 94
    },
    {
      "midi": 86,
      "hit": false,
      "t": 54081.19999999968,
      "d": 72.27833333333547,
      "v": 61
    },
    {
      "midi": 43,
      "hit": false,
      "t": 54081.19999999968,
      "d": 89.28500000000349,
      "v": 75
    },
    {
      "midi": 95,
      "hit": false,
      "t": 54081.19999999968,
      "d": 89.28500000000349,
      "v": 94
    },
    {
      "midi": 50,
      "hit": false,
      "t": 54081.19999999968,
      "d": 97.7883333333375,
      "v": 75
    },
    {
      "midi": 62,
      "hit": false,
      "t": 54081.19999999968,
      "d": 108.4175000000032,
      "v": 75
    },
    {
      "midi": 91,
      "hit": false,
      "t": 54285.27999999968,
      "d": 68.02666666666482,
      "v": 94
    },
    {
      "midi": 86,
      "hit": false,
      "t": 54285.27999999968,
      "d": 82.90750000000116,
      "v": 70
    },
    {
      "midi": 95,
      "hit": false,
      "t": 54285.27999999968,
      "d": 85.03333333333285,
      "v": 94
    },
    {
      "midi": 43,
      "hit": false,
      "t": 54285.27999999968,
      "d": 99.91416666666919,
      "v": 75
    },
    {
      "midi": 52,
      "hit": false,
      "t": 54285.27999999968,
      "d": 104.16583333333256,
      "v": 75
    },
    {
      "midi": 55,
      "hit": false,
      "t": 54285.27999999968,
      "d": 108.41749999999593,
      "v": 75
    },
    {
      "midi": 64,
      "hit": false,
      "t": 54285.27999999968,
      "d": 114.79499999999825,
      "v": 75
    },
    {
      "midi": 43,
      "hit": false,
      "t": 54489.35999999968,
      "d": 19.13249999999971,
      "v": 75
    },
    {
      "midi": 91,
      "hit": false,
      "t": 54489.35999999968,
      "d": 63.775000000001455,
      "v": 103
    },
    {
      "midi": 55,
      "hit": false,
      "t": 54489.35999999968,
      "d": 70.15250000000378,
      "v": 75
    },
    {
      "midi": 95,
      "hit": false,
      "t": 54489.35999999968,
      "d": 78.6558333333378,
      "v": 94
    },
    {
      "midi": 86,
      "hit": false,
      "t": 54489.35999999968,
      "d": 80.78166666666948,
      "v": 70
    },
    {
      "midi": 50,
      "hit": false,
      "t": 54489.35999999968,
      "d": 87.15916666667181,
      "v": 75
    },
    {
      "midi": 62,
      "hit": false,
      "t": 54489.35999999968,
      "d": 102.04000000000815,
      "v": 75
    },
    {
      "midi": 91,
      "hit": false,
      "t": 54693.43999999969,
      "d": 72.27833333333547,
      "v": 86
    },
    {
      "midi": 55,
      "hit": false,
      "t": 54693.43999999969,
      "d": 76.52999999999884,
      "v": 75
    },
    {
      "midi": 43,
      "hit": false,
      "t": 54693.43999999969,
      "d": 80.7816666666622,
      "v": 75
    },
    {
      "midi": 86,
      "hit": false,
      "t": 54693.43999999969,
      "d": 85.03333333332557,
      "v": 66
    },
    {
      "midi": 50,
      "hit": false,
      "t": 54693.43999999969,
      "d": 89.28499999998894,
      "v": 75
    },
    {
      "midi": 95,
      "hit": false,
      "t": 54693.43999999969,
      "d": 89.28499999998894,
      "v": 94
    },
    {
      "midi": 62,
      "hit": false,
      "t": 54693.43999999969,
      "d": 104.16583333332528,
      "v": 75
    },
    {
      "midi": 43,
      "hit": false,
      "t": 54897.519999999684,
      "d": 44.642500000001746,
      "v": 75
    },
    {
      "midi": 91,
      "hit": false,
      "t": 54897.519999999684,
      "d": 63.775000000001455,
      "v": 90
    },
    {
      "midi": 86,
      "hit": false,
      "t": 54897.519999999684,
      "d": 82.90750000000116,
      "v": 70
    },
    {
      "midi": 95,
      "hit": false,
      "t": 54897.519999999684,
      "d": 85.03333333333285,
      "v": 90
    },
    {
      "midi": 55,
      "hit": false,
      "t": 54897.519999999684,
      "d": 99.91416666666919,
      "v": 75
    },
    {
      "midi": 50,
      "hit": false,
      "t": 54897.519999999684,
      "d": 106.29166666667152,
      "v": 75
    },
    {
      "midi": 62,
      "hit": false,
      "t": 54897.519999999684,
      "d": 119.0466666666689,
      "v": 75
    },
    {
      "midi": 91,
      "hit": false,
      "t": 55101.599999999686,
      "d": 72.27833333333547,
      "v": 94
    },
    {
      "midi": 43,
      "hit": false,
      "t": 55101.599999999686,
      "d": 85.03333333333285,
      "v": 75
    },
    {
      "midi": 86,
      "hit": false,
      "t": 55101.599999999686,
      "d": 85.03333333333285,
      "v": 82
    },
    {
      "midi": 95,
      "hit": false,
      "t": 55101.599999999686,
      "d": 89.28499999999622,
      "v": 94
    },
    {
      "midi": 55,
      "hit": false,
      "t": 55101.599999999686,
      "d": 95.66249999999854,
      "v": 75
    },
    {
      "midi": 64,
      "hit": false,
      "t": 55101.599999999686,
      "d": 125.42416666666395,
      "v": 75
    },
    {
      "midi": 52,
      "hit": false,
      "t": 55101.599999999686,
      "d": 129.67583333332732,
      "v": 75
    },
    {
      "midi": 43,
      "hit": false,
      "t": 55305.67999999968,
      "d": 53.14583333333576,
      "v": 75
    },
    {
      "midi": 91,
      "hit": false,
      "t": 55305.67999999968,
      "d": 65.90083333333314,
      "v": 94
    },
    {
      "midi": 95,
      "hit": false,
      "t": 55305.67999999968,
      "d": 70.15249999999651,
      "v": 94
    },
    {
      "midi": 55,
      "hit": false,
      "t": 55305.67999999968,
      "d": 80.7816666666622,
      "v": 75
    },
    {
      "midi": 86,
      "hit": false,
      "t": 55305.67999999968,
      "d": 80.7816666666622,
      "v": 70
    },
    {
      "midi": 50,
      "hit": false,
      "t": 55305.67999999968,
      "d": 89.28499999999622,
      "v": 75
    },
    {
      "midi": 62,
      "hit": false,
      "t": 55305.67999999968,
      "d": 102.0399999999936,
      "v": 75
    },
    {
      "midi": 88,
      "hit": false,
      "t": 55509.759999999675,
      "d": 48.894166666665114,
      "v": 112
    },
    {
      "midi": 84,
      "hit": false,
      "t": 55509.759999999675,
      "d": 53.14583333332848,
      "v": 90
    },
    {
      "midi": 91,
      "hit": false,
      "t": 55509.759999999675,
      "d": 76.52999999999156,
      "v": 112
    },
    {
      "midi": 60,
      "hit": false,
      "t": 55509.759999999675,
      "d": 123.29833333332499,
      "v": 83
    },
    {
      "midi": 43,
      "hit": false,
      "t": 55509.759999999675,
      "d": 125.42416666665667,
      "v": 83
    },
    {
      "midi": 36,
      "hit": false,
      "t": 55509.759999999675,
      "d": 138.17916666665406,
      "v": 83
    },
    {
      "midi": 67,
      "hit": false,
      "t": 55509.759999999675,
      "d": 150.93416666665144,
      "v": 83
    },
    {
      "midi": 88,
      "hit": false,
      "t": 55713.83999999966,
      "d": 53.14583333333576,
      "v": 78
    },
    {
      "midi": 84,
      "hit": false,
      "t": 55713.83999999966,
      "d": 68.0266666666721,
      "v": 70
    },
    {
      "midi": 91,
      "hit": false,
      "t": 55713.83999999966,
      "d": 76.53000000000611,
      "v": 94
    },
    {
      "midi": 43,
      "hit": false,
      "t": 55713.83999999966,
      "d": 161.56333333333896,
      "v": 83
    },
    {
      "midi": 60,
      "hit": false,
      "t": 55713.83999999966,
      "d": 161.56333333333896,
      "v": 83
    },
    {
      "midi": 67,
      "hit": false,
      "t": 55713.83999999966,
      "d": 178.57000000000698,
      "v": 83
    },
    {
      "midi": 36,
      "hit": false,
      "t": 55713.83999999966,
      "d": 350.76250000000437,
      "v": 83
    },
    {
      "midi": 88,
      "hit": false,
      "t": 55917.91999999967,
      "d": 65.90083333333314,
      "v": 82
    },
    {
      "midi": 84,
      "hit": false,
      "t": 55917.91999999967,
      "d": 82.90750000000116,
      "v": 66
    },
    {
      "midi": 91,
      "hit": false,
      "t": 55917.91999999967,
      "d": 85.03333333333285,
      "v": 94
    },
    {
      "midi": 60,
      "hit": false,
      "t": 55917.91999999967,
      "d": 121.17250000000058,
      "v": 83
    },
    {
      "midi": 45,
      "hit": false,
      "t": 55917.91999999967,
      "d": 129.6758333333346,
      "v": 83
    },
    {
      "midi": 69,
      "hit": false,
      "t": 55917.91999999967,
      "d": 142.43083333333198,
      "v": 83
    },
    {
      "midi": 88,
      "hit": false,
      "t": 56121.999999999665,
      "d": 61.64916666666977,
      "v": 78
    },
    {
      "midi": 84,
      "hit": false,
      "t": 56121.999999999665,
      "d": 74.40416666666715,
      "v": 60
    },
    {
      "midi": 91,
      "hit": false,
      "t": 56121.999999999665,
      "d": 87.15916666666453,
      "v": 82
    },
    {
      "midi": 43,
      "hit": false,
      "t": 56121.999999999665,
      "d": 108.41749999999593,
      "v": 83
    },
    {
      "midi": 60,
      "hit": false,
      "t": 56121.999999999665,
      "d": 112.6691666666593,
      "v": 83
    },
    {
      "midi": 67,
      "hit": false,
      "t": 56121.999999999665,
      "d": 116.92083333332266,
      "v": 83
    },
    {
      "midi": 36,
      "hit": false,
      "t": 56224.039999999666,
      "d": 4.251666666663368,
      "v": 83
    },
    {
      "midi": 88,
      "hit": false,
      "t": 56326.07999999965,
      "d": 76.52999999999884,
      "v": 82
    },
    {
      "midi": 84,
      "hit": false,
      "t": 56326.07999999965,
      "d": 87.15916666666453,
      "v": 61
    },
    {
      "midi": 91,
      "hit": false,
      "t": 56326.07999999965,
      "d": 89.28499999999622,
      "v": 86
    },
    {
      "midi": 60,
      "hit": false,
      "t": 56326.07999999965,
      "d": 104.16583333333256,
      "v": 83
    },
    {
      "midi": 43,
      "hit": false,
      "t": 56326.07999999965,
      "d": 116.92083333332994,
      "v": 83
    },
    {
      "midi": 36,
      "hit": false,
      "t": 56326.07999999965,
      "d": 127.54999999999563,
      "v": 83
    },
    {
      "midi": 67,
      "hit": false,
      "t": 56326.07999999965,
      "d": 129.67583333332732,
      "v": 83
    },
    {
      "midi": 36,
      "hit": false,
      "t": 56530.15999999965,
      "d": 72.27833333333547,
      "v": 83
    },
    {
      "midi": 88,
      "hit": false,
      "t": 56530.15999999965,
      "d": 78.6558333333378,
      "v": 82
    },
    {
      "midi": 91,
      "hit": false,
      "t": 56530.15999999965,
      "d": 89.28500000000349,
      "v": 86
    },
    {
      "midi": 84,
      "hit": false,
      "t": 56530.15999999965,
      "d": 95.66250000000582,
      "v": 70
    },
    {
      "midi": 43,
      "hit": false,
      "t": 56530.15999999965,
      "d": 104.16583333333983,
      "v": 83
    },
    {
      "midi": 60,
      "hit": false,
      "t": 56530.15999999965,
      "d": 110.54333333334216,
      "v": 83
    },
    {
      "midi": 67,
      "hit": false,
      "t": 56530.15999999965,
      "d": 127.55000000001019,
      "v": 83
    },
    {
      "midi": 88,
      "hit": false,
      "t": 56734.239999999656,
      "d": 74.40416666666715,
      "v": 82
    },
    {
      "midi": 91,
      "hit": false,
      "t": 56734.239999999656,
      "d": 97.78833333333023,
      "v": 86
    },
    {
      "midi": 60,
      "hit": false,
      "t": 56734.239999999656,
      "d": 104.16583333333256,
      "v": 83
    },
    {
      "midi": 84,
      "hit": false,
      "t": 56734.239999999656,
      "d": 104.16583333333256,
      "v": 70
    },
    {
      "midi": 45,
      "hit": false,
      "t": 56734.239999999656,
      "d": 114.79499999999825,
      "v": 83
    },
    {
      "midi": 69,
      "hit": false,
      "t": 56734.239999999656,
      "d": 127.54999999999563,
      "v": 83
    },
    {
      "midi": 36,
      "hit": false,
      "t": 56734.239999999656,
      "d": 223.21249999999418,
      "v": 83
    },
    {
      "midi": 88,
      "hit": false,
      "t": 56938.31999999965,
      "d": 61.64916666666977,
      "v": 90
    },
    {
      "midi": 60,
      "hit": false,
      "t": 56938.31999999965,
      "d": 76.53000000000611,
      "v": 83
    },
    {
      "midi": 91,
      "hit": false,
      "t": 56938.31999999965,
      "d": 85.03333333334012,
      "v": 90
    },
    {
      "midi": 67,
      "hit": false,
      "t": 56938.31999999965,
      "d": 91.41083333334245,
      "v": 83
    },
    {
      "midi": 84,
      "hit": false,
      "t": 56938.31999999965,
      "d": 91.41083333334245,
      "v": 82
    },
    {
      "midi": 43,
      "hit": false,
      "t": 56938.31999999965,
      "d": 119.04666666667617,
      "v": 83
    },
    {
      "midi": 50,
      "hit": false,
      "t": 57142.39999999966,
      "d": 68.02666666666482,
      "v": 83
    },
    {
      "midi": 86,
      "hit": false,
      "t": 57142.39999999966,
      "d": 76.52999999999884,
      "v": 90
    },
    {
      "midi": 83,
      "hit": false,
      "t": 57142.39999999966,
      "d": 78.65583333333052,
      "v": 82
    },
    {
      "midi": 55,
      "hit": false,
      "t": 57142.39999999966,
      "d": 80.7816666666622,
      "v": 83
    },
    {
      "midi": 62,
      "hit": false,
      "t": 57142.39999999966,
      "d": 93.53666666665958,
      "v": 83
    },
    {
      "midi": 91,
      "hit": false,
      "t": 57142.39999999966,
      "d": 97.78833333332295,
      "v": 90
    },
    {
      "midi": 43,
      "hit": false,
      "t": 57142.39999999966,
      "d": 119.04666666665435,
      "v": 83
    },
    {
      "midi": 86,
      "hit": false,
      "t": 57346.47999999965,
      "d": 68.02666666666482,
      "v": 78
    },
    {
      "midi": 83,
      "hit": false,
      "t": 57346.47999999965,
      "d": 72.27833333332819,
      "v": 59
    },
    {
      "midi": 43,
      "hit": false,
      "t": 57346.47999999965,
      "d": 80.7816666666622,
      "v": 83
    },
    {
      "midi": 50,
      "hit": false,
      "t": 57346.47999999965,
      "d": 93.53666666665958,
      "v": 83
    },
    {
      "midi": 55,
      "hit": false,
      "t": 57346.47999999965,
      "d": 95.66249999999127,
      "v": 83
    },
    {
      "midi": 91,
      "hit": false,
      "t": 57346.47999999965,
      "d": 97.78833333332295,
      "v": 86
    },
    {
      "midi": 62,
      "hit": false,
      "t": 57346.47999999965,
      "d": 119.04666666665435,
      "v": 83
    },
    {
      "midi": 86,
      "hit": false,
      "t": 57550.559999999634,
      "d": 78.65583333333052,
      "v": 86
    },
    {
      "midi": 83,
      "hit": false,
      "t": 57550.559999999634,
      "d": 99.91416666666191,
      "v": 62
    },
    {
      "midi": 91,
      "hit": false,
      "t": 57550.559999999634,
      "d": 102.0399999999936,
      "v": 86
    },
    {
      "midi": 55,
      "hit": false,
      "t": 57550.559999999634,
      "d": 104.16583333332528,
      "v": 83
    },
    {
      "midi": 52,
      "hit": false,
      "t": 57550.559999999634,
      "d": 114.79499999999098,
      "v": 83
    },
    {
      "midi": 64,
      "hit": false,
      "t": 57550.559999999634,
      "d": 121.1724999999933,
      "v": 83
    },
    {
      "midi": 43,
      "hit": false,
      "t": 57550.559999999634,
      "d": 127.54999999999563,
      "v": 83
    },
    {
      "midi": 86,
      "hit": false,
      "t": 57754.63999999963,
      "d": 72.27833333333547,
      "v": 86
    },
    {
      "midi": 83,
      "hit": false,
      "t": 57754.63999999963,
      "d": 85.03333333333285,
      "v": 60
    },
    {
      "midi": 91,
      "hit": false,
      "t": 57754.63999999963,
      "d": 93.53666666666686,
      "v": 90
    },
    {
      "midi": 50,
      "hit": false,
      "t": 57754.63999999963,
      "d": 102.04000000000087,
      "v": 83
    },
    {
      "midi": 55,
      "hit": false,
      "t": 57754.63999999963,
      "d": 114.79499999999825,
      "v": 83
    },
    {
      "midi": 62,
      "hit": false,
      "t": 57754.63999999963,
      "d": 119.04666666666162,
      "v": 83
    },
    {
      "midi": 43,
      "hit": false,
      "t": 57856.67999999963,
      "d": 12.75499999999738,
      "v": 83
    },
    {
      "midi": 86,
      "hit": false,
      "t": 57958.71999999962,
      "d": 76.52999999999884,
      "v": 90
    },
    {
      "midi": 83,
      "hit": false,
      "t": 57958.71999999962,
      "d": 95.66249999999854,
      "v": 62
    },
    {
      "midi": 55,
      "hit": false,
      "t": 57958.71999999962,
      "d": 97.78833333333023,
      "v": 83
    },
    {
      "midi": 91,
      "hit": false,
      "t": 57958.71999999962,
      "d": 97.78833333333023,
      "v": 90
    },
    {
      "midi": 50,
      "hit": false,
      "t": 57958.71999999962,
      "d": 106.29166666666424,
      "v": 83
    },
    {
      "midi": 62,
      "hit": false,
      "t": 57958.71999999962,
      "d": 116.92083333332994,
      "v": 83
    },
    {
      "midi": 43,
      "hit": false,
      "t": 57958.71999999962,
      "d": 119.04666666666162,
      "v": 83
    },
    {
      "midi": 86,
      "hit": false,
      "t": 58162.79999999962,
      "d": 68.02666666666482,
      "v": 86
    },
    {
      "midi": 83,
      "hit": false,
      "t": 58162.79999999962,
      "d": 72.27833333332819,
      "v": 61
    },
    {
      "midi": 43,
      "hit": false,
      "t": 58162.79999999962,
      "d": 76.52999999999156,
      "v": 83
    },
    {
      "midi": 91,
      "hit": false,
      "t": 58162.79999999962,
      "d": 87.15916666665726,
      "v": 94
    },
    {
      "midi": 55,
      "hit": false,
      "t": 58162.79999999962,
      "d": 89.28499999998894,
      "v": 83
    },
    {
      "midi": 50,
      "hit": false,
      "t": 58162.79999999962,
      "d": 116.92083333332266,
      "v": 83
    },
    {
      "midi": 62,
      "hit": false,
      "t": 58162.79999999962,
      "d": 133.9274999999907,
      "v": 83
    },
    {
      "midi": 86,
      "hit": false,
      "t": 58366.879999999604,
      "d": 72.27833333333547,
      "v": 86
    },
    {
      "midi": 83,
      "hit": false,
      "t": 58366.879999999604,
      "d": 80.78166666666948,
      "v": 70
    },
    {
      "midi": 91,
      "hit": false,
      "t": 58366.879999999604,
      "d": 87.15916666667181,
      "v": 90
    },
    {
      "midi": 55,
      "hit": false,
      "t": 58366.879999999604,
      "d": 110.54333333333489,
      "v": 83
    },
    {
      "midi": 43,
      "hit": false,
      "t": 58366.879999999604,
      "d": 112.66916666666657,
      "v": 83
    },
    {
      "midi": 64,
      "hit": false,
      "t": 58366.879999999604,
      "d": 121.17250000000058,
      "v": 83
    },
    {
      "midi": 52,
      "hit": false,
      "t": 58366.879999999604,
      "d": 136.05333333333692,
      "v": 83
    },
    {
      "midi": 55,
      "hit": false,
      "t": 58570.959999999606,
      "d": 12.75499999999738,
      "v": 83
    },
    {
      "midi": 43,
      "hit": false,
      "t": 58570.959999999606,
      "d": 48.894166666665114,
      "v": 83
    },
    {
      "midi": 50,
      "hit": false,
      "t": 58570.959999999606,
      "d": 65.90083333333314,
      "v": 83
    },
    {
      "midi": 86,
      "hit": false,
      "t": 58570.959999999606,
      "d": 70.15249999999651,
      "v": 90
    },
    {
      "midi": 83,
      "hit": false,
      "t": 58570.959999999606,
      "d": 87.15916666666453,
      "v": 66
    },
    {
      "midi": 62,
      "hit": false,
      "t": 58570.959999999606,
      "d": 99.91416666666191,
      "v": 83
    },
    {
      "midi": 91,
      "hit": false,
      "t": 58570.959999999606,
      "d": 99.91416666666191,
      "v": 86
    },
    {
      "midi": 88,
      "hit": false,
      "t": 58775.0399999996,
      "d": 68.02666666666482,
      "v": 90
    },
    {
      "midi": 84,
      "hit": false,
      "t": 58775.0399999996,
      "d": 72.27833333332819,
      "v": 82
    },
    {
      "midi": 60,
      "hit": false,
      "t": 58775.0399999996,
      "d": 78.65583333333052,
      "v": 83
    },
    {
      "midi": 91,
      "hit": false,
      "t": 58775.0399999996,
      "d": 87.15916666666453,
      "v": 94
    },
    {
      "midi": 67,
      "hit": false,
      "t": 58775.0399999996,
      "d": 91.4108333333279,
      "v": 83
    },
    {
      "midi": 43,
      "hit": false,
      "t": 58775.0399999996,
      "d": 99.91416666666191,
      "v": 83
    },
    {
      "midi": 36,
      "hit": false,
      "t": 58775.0399999996,
      "d": 106.29166666666424,
      "v": 83
    },
    {
      "midi": 36,
      "hit": false,
      "t": 58979.119999999595,
      "d": 29.761666666665406,
      "v": 83
    },
    {
      "midi": 88,
      "hit": false,
      "t": 58979.119999999595,
      "d": 68.02666666666482,
      "v": 74
    },
    {
      "midi": 84,
      "hit": false,
      "t": 58979.119999999595,
      "d": 80.7816666666622,
      "v": 58
    },
    {
      "midi": 91,
      "hit": false,
      "t": 58979.119999999595,
      "d": 97.78833333333023,
      "v": 78
    },
    {
      "midi": 60,
      "hit": false,
      "t": 58979.119999999595,
      "d": 104.16583333333256,
      "v": 83
    },
    {
      "midi": 67,
      "hit": false,
      "t": 58979.119999999595,
      "d": 116.92083333332994,
      "v": 83
    },
    {
      "midi": 43,
      "hit": false,
      "t": 58979.119999999595,
      "d": 123.29833333333227,
      "v": 83
    },
    {
      "midi": 88,
      "hit": false,
      "t": 59183.1999999996,
      "d": 72.27833333333547,
      "v": 78
    },
    {
      "midi": 84,
      "hit": false,
      "t": 59183.1999999996,
      "d": 89.28500000000349,
      "v": 62
    },
    {
      "midi": 91,
      "hit": false,
      "t": 59183.1999999996,
      "d": 102.04000000000087,
      "v": 90
    },
    {
      "midi": 60,
      "hit": false,
      "t": 59183.1999999996,
      "d": 110.54333333333489,
      "v": 83
    },
    {
      "midi": 69,
      "hit": false,
      "t": 59183.1999999996,
      "d": 125.42416666667123,
      "v": 83
    },
    {
      "midi": 45,
      "hit": false,
      "t": 59183.1999999996,
      "d": 131.80166666667355,
      "v": 83
    },
    {
      "midi": 36,
      "hit": false,
      "t": 59183.1999999996,
      "d": 142.43083333333925,
      "v": 83
    },
    {
      "midi": 36,
      "hit": false,
      "t": 59387.279999999606,
      "d": 29.761666666665406,
      "v": 83
    },
    {
      "midi": 88,
      "hit": false,
      "t": 59387.279999999606,
      "d": 70.15249999999651,
      "v": 90
    },
    {
      "midi": 84,
      "hit": false,
      "t": 59387.279999999606,
      "d": 93.53666666665958,
      "v": 78
    },
    {
      "midi": 60,
      "hit": false,
      "t": 59387.279999999606,
      "d": 95.66249999999127,
      "v": 83
    },
    {
      "midi": 91,
      "hit": false,
      "t": 59387.279999999606,
      "d": 95.66249999999127,
      "v": 94
    },
    {
      "midi": 43,
      "hit": false,
      "t": 59387.279999999606,
      "d": 112.6691666666593,
      "v": 83
    },
    {
      "midi": 67,
      "hit": false,
      "t": 59387.279999999606,
      "d": 116.92083333332266,
      "v": 83
    },
    {
      "midi": 88,
      "hit": false,
      "t": 59591.35999999959,
      "d": 70.15249999999651,
      "v": 86
    },
    {
      "midi": 84,
      "hit": false,
      "t": 59591.35999999959,
      "d": 87.15916666666453,
      "v": 70
    },
    {
      "midi": 91,
      "hit": false,
      "t": 59591.35999999959,
      "d": 89.28499999999622,
      "v": 86
    },
    {
      "midi": 60,
      "hit": false,
      "t": 59591.35999999959,
      "d": 102.0399999999936,
      "v": 83
    },
    {
      "midi": 43,
      "hit": false,
      "t": 59591.35999999959,
      "d": 108.41749999999593,
      "v": 83
    },
    {
      "midi": 36,
      "hit": false,
      "t": 59591.35999999959,
      "d": 133.92749999999796,
      "v": 83
    },
    {
      "midi": 67,
      "hit": false,
      "t": 59591.35999999959,
      "d": 136.05333333332965,
      "v": 83
    },
    {
      "midi": 88,
      "hit": false,
      "t": 59795.43999999959,
      "d": 65.90083333333314,
      "v": 86
    },
    {
      "midi": 84,
      "hit": false,
      "t": 59795.43999999959,
      "d": 78.65583333333052,
      "v": 70
    },
    {
      "midi": 91,
      "hit": false,
      "t": 59795.43999999959,
      "d": 91.4108333333279,
      "v": 94
    },
    {
      "midi": 60,
      "hit": false,
      "t": 59795.43999999959,
      "d": 108.41749999999593,
      "v": 83
    },
    {
      "midi": 36,
      "hit": false,
      "t": 59795.43999999959,
      "d": 110.54333333332761,
      "v": 83
    },
    {
      "midi": 43,
      "hit": false,
      "t": 59795.43999999959,
      "d": 114.79499999999098,
      "v": 83
    },
    {
      "midi": 67,
      "hit": false,
      "t": 59795.43999999959,
      "d": 119.04666666665435,
      "v": 83
    },
    {
      "midi": 88,
      "hit": false,
      "t": 59999.519999999575,
      "d": 89.28500000000349,
      "v": 90
    },
    {
      "midi": 91,
      "hit": false,
      "t": 59999.519999999575,
      "d": 95.66250000000582,
      "v": 90
    },
    {
      "midi": 60,
      "hit": false,
      "t": 59999.519999999575,
      "d": 99.91416666666919,
      "v": 83
    },
    {
      "midi": 45,
      "hit": false,
      "t": 59999.519999999575,
      "d": 106.29166666667152,
      "v": 83
    },
    {
      "midi": 84,
      "hit": false,
      "t": 59999.519999999575,
      "d": 108.4175000000032,
      "v": 78
    },
    {
      "midi": 36,
      "hit": false,
      "t": 59999.519999999575,
      "d": 110.54333333333489,
      "v": 83
    },
    {
      "midi": 69,
      "hit": false,
      "t": 59999.519999999575,
      "d": 133.92749999999796,
      "v": 83
    },
    {
      "midi": 88,
      "hit": false,
      "t": 60203.59999999957,
      "d": 65.90083333333314,
      "v": 103
    },
    {
      "midi": 91,
      "hit": false,
      "t": 60203.59999999957,
      "d": 70.15249999999651,
      "v": 94
    },
    {
      "midi": 67,
      "hit": false,
      "t": 60203.59999999957,
      "d": 74.40416666665988,
      "v": 83
    },
    {
      "midi": 84,
      "hit": false,
      "t": 60203.59999999957,
      "d": 80.7816666666622,
      "v": 82
    },
    {
      "midi": 43,
      "hit": false,
      "t": 60203.59999999957,
      "d": 85.03333333332557,
      "v": 83
    },
    {
      "midi": 60,
      "hit": false,
      "t": 60203.59999999957,
      "d": 85.03333333332557,
      "v": 83
    },
    {
      "midi": 86,
      "hit": false,
      "t": 60407.679999999564,
      "d": 65.90083333333314,
      "v": 82
    },
    {
      "midi": 91,
      "hit": false,
      "t": 60407.679999999564,
      "d": 76.52999999999884,
      "v": 86
    },
    {
      "midi": 62,
      "hit": false,
      "t": 60407.679999999564,
      "d": 85.03333333333285,
      "v": 83
    },
    {
      "midi": 50,
      "hit": false,
      "t": 60407.679999999564,
      "d": 87.15916666666453,
      "v": 83
    },
    {
      "midi": 83,
      "hit": false,
      "t": 60407.679999999564,
      "d": 87.15916666666453,
      "v": 90
    },
    {
      "midi": 55,
      "hit": false,
      "t": 60407.679999999564,
      "d": 89.28499999999622,
      "v": 83
    },
    {
      "midi": 43,
      "hit": false,
      "t": 60407.679999999564,
      "d": 119.04666666666162,
      "v": 83
    },
    {
      "midi": 86,
      "hit": false,
      "t": 60611.75999999956,
      "d": 68.02666666666482,
      "v": 90
    },
    {
      "midi": 91,
      "hit": false,
      "t": 60611.75999999956,
      "d": 82.90750000000116,
      "v": 94
    },
    {
      "midi": 55,
      "hit": false,
      "t": 60611.75999999956,
      "d": 89.28500000000349,
      "v": 83
    },
    {
      "midi": 83,
      "hit": false,
      "t": 60611.75999999956,
      "d": 91.41083333333518,
      "v": 70
    },
    {
      "midi": 62,
      "hit": false,
      "t": 60611.75999999956,
      "d": 112.66916666666657,
      "v": 83
    },
    {
      "midi": 50,
      "hit": false,
      "t": 60611.75999999956,
      "d": 121.17250000000058,
      "v": 83
    },
    {
      "midi": 86,
      "hit": false,
      "t": 60815.83999999956,
      "d": 68.02666666666482,
      "v": 90
    },
    {
      "midi": 83,
      "hit": false,
      "t": 60815.83999999956,
      "d": 87.15916666666453,
      "v": 62
    },
    {
      "midi": 91,
      "hit": false,
      "t": 60815.83999999956,
      "d": 89.28499999999622,
      "v": 86
    },
    {
      "midi": 55,
      "hit": false,
      "t": 60815.83999999956,
      "d": 102.0399999999936,
      "v": 83
    },
    {
      "midi": 64,
      "hit": false,
      "t": 60815.83999999956,
      "d": 114.79499999999098,
      "v": 83
    },
    {
      "midi": 43,
      "hit": false,
      "t": 60815.83999999956,
      "d": 125.42416666665667,
      "v": 83
    },
    {
      "midi": 52,
      "hit": false,
      "t": 60815.83999999956,
      "d": 142.4308333333247,
      "v": 83
    },
    {
      "midi": 86,
      "hit": false,
      "t": 61019.919999999554,
      "d": 68.02666666666482,
      "v": 86
    },
    {
      "midi": 83,
      "hit": false,
      "t": 61019.919999999554,
      "d": 76.52999999999884,
      "v": 60
    },
    {
      "midi": 91,
      "hit": false,
      "t": 61019.919999999554,
      "d": 82.90750000000116,
      "v": 90
    },
    {
      "midi": 50,
      "hit": false,
      "t": 61019.919999999554,
      "d": 91.41083333333518,
      "v": 83
    },
    {
      "midi": 55,
      "hit": false,
      "t": 61019.919999999554,
      "d": 91.41083333333518,
      "v": 83
    },
    {
      "midi": 62,
      "hit": false,
      "t": 61019.919999999554,
      "d": 99.91416666666919,
      "v": 83
    },
    {
      "midi": 86,
      "hit": false,
      "t": 61223.999999999556,
      "d": 61.64916666666977,
      "v": 82
    },
    {
      "midi": 83,
      "hit": false,
      "t": 61223.999999999556,
      "d": 78.6558333333378,
      "v": 62
    },
    {
      "midi": 91,
      "hit": false,
      "t": 61223.999999999556,
      "d": 82.90750000000116,
      "v": 90
    },
    {
      "midi": 55,
      "hit": false,
      "t": 61223.999999999556,
      "d": 91.41083333333518,
      "v": 83
    },
    {
      "midi": 50,
      "hit": false,
      "t": 61223.999999999556,
      "d": 99.91416666666919,
      "v": 83
    },
    {
      "midi": 62,
      "hit": false,
      "t": 61223.999999999556,
      "d": 114.79500000000553,
      "v": 83
    },
    {
      "midi": 43,
      "hit": false,
      "t": 61223.999999999556,
      "d": 121.17250000000786,
      "v": 83
    },
    {
      "midi": 86,
      "hit": false,
      "t": 61428.079999999565,
      "d": 65.90083333333314,
      "v": 90
    },
    {
      "midi": 83,
      "hit": false,
      "t": 61428.079999999565,
      "d": 76.52999999999884,
      "v": 70
    },
    {
      "midi": 91,
      "hit": false,
      "t": 61428.079999999565,
      "d": 82.90750000000116,
      "v": 94
    },
    {
      "midi": 55,
      "hit": false,
      "t": 61428.079999999565,
      "d": 112.66916666666657,
      "v": 83
    },
    {
      "midi": 62,
      "hit": false,
      "t": 61428.079999999565,
      "d": 119.0466666666689,
      "v": 83
    },
    {
      "midi": 50,
      "hit": false,
      "t": 61428.079999999565,
      "d": 123.29833333333227,
      "v": 83
    },
    {
      "midi": 43,
      "hit": false,
      "t": 61428.079999999565,
      "d": 380.5241666666625,
      "v": 83
    },
    {
      "midi": 86,
      "hit": false,
      "t": 61632.15999999957,
      "d": 61.64916666666977,
      "v": 86
    },
    {
      "midi": 83,
      "hit": false,
      "t": 61632.15999999957,
      "d": 82.90750000000116,
      "v": 70
    },
    {
      "midi": 91,
      "hit": false,
      "t": 61632.15999999957,
      "d": 85.03333333333285,
      "v": 94
    },
    {
      "midi": 55,
      "hit": false,
      "t": 61632.15999999957,
      "d": 104.16583333333256,
      "v": 83
    },
    {
      "midi": 64,
      "hit": false,
      "t": 61632.15999999957,
      "d": 114.79499999999825,
      "v": 83
    },
    {
      "midi": 52,
      "hit": false,
      "t": 61632.15999999957,
      "d": 136.05333333332965,
      "v": 83
    },
    {
      "midi": 86,
      "hit": false,
      "t": 61836.23999999956,
      "d": 65.90083333333314,
      "v": 82
    },
    {
      "midi": 43,
      "hit": false,
      "t": 61836.23999999956,
      "d": 68.02666666666482,
      "v": 83
    },
    {
      "midi": 83,
      "hit": false,
      "t": 61836.23999999956,
      "d": 80.7816666666622,
      "v": 60
    },
    {
      "midi": 50,
      "hit": false,
      "t": 61836.23999999956,
      "d": 91.4108333333279,
      "v": 83
    },
    {
      "midi": 91,
      "hit": false,
      "t": 61836.23999999956,
      "d": 95.66249999999127,
      "v": 86
    },
    {
      "midi": 55,
      "hit": false,
      "t": 61836.23999999956,
      "d": 97.78833333332295,
      "v": 83
    },
    {
      "midi": 62,
      "hit": false,
      "t": 61836.23999999956,
      "d": 104.16583333332528,
      "v": 83
    },
    {
      "midi": 86,
      "hit": false,
      "t": 62040.319999999556,
      "d": 61.64916666666977,
      "v": 82
    },
    {
      "midi": 83,
      "hit": false,
      "t": 62040.319999999556,
      "d": 82.90750000000116,
      "v": 60
    },
    {
      "midi": 91,
      "hit": false,
      "t": 62040.319999999556,
      "d": 97.7883333333375,
      "v": 86
    },
    {
      "midi": 50,
      "hit": false,
      "t": 62040.319999999556,
      "d": 106.29166666667152,
      "v": 83
    },
    {
      "midi": 55,
      "hit": false,
      "t": 62040.319999999556,
      "d": 106.29166666667152,
      "v": 83
    },
    {
      "midi": 62,
      "hit": false,
      "t": 62040.319999999556,
      "d": 121.17250000000786,
      "v": 83
    },
    {
      "midi": 43,
      "hit": false,
      "t": 62040.319999999556,
      "d": 127.55000000001019,
      "v": 83
    },
    {
      "midi": 50,
      "hit": false,
      "t": 62244.399999999565,
      "d": 29.761666666665406,
      "v": 83
    },
    {
      "midi": 86,
      "hit": false,
      "t": 62244.399999999565,
      "d": 61.649166666662495,
      "v": 82
    },
    {
      "midi": 55,
      "hit": false,
      "t": 62244.399999999565,
      "d": 76.52999999999884,
      "v": 83
    },
    {
      "midi": 83,
      "hit": false,
      "t": 62244.399999999565,
      "d": 82.90750000000116,
      "v": 61
    },
    {
      "midi": 91,
      "hit": false,
      "t": 62244.399999999565,
      "d": 85.03333333333285,
      "v": 90
    },
    {
      "midi": 62,
      "hit": false,
      "t": 62244.399999999565,
      "d": 121.17250000000058,
      "v": 83
    },
    {
      "midi": 43,
      "hit": false,
      "t": 62244.399999999565,
      "d": 159.4375,
      "v": 83
    },
    {
      "midi": 86,
      "hit": false,
      "t": 62448.47999999957,
      "d": 57.39749999999913,
      "v": 82
    },
    {
      "midi": 43,
      "hit": false,
      "t": 62448.47999999957,
      "d": 65.90083333333314,
      "v": 83
    },
    {
      "midi": 83,
      "hit": false,
      "t": 62448.47999999957,
      "d": 80.78166666666948,
      "v": 66
    },
    {
      "midi": 91,
      "hit": false,
      "t": 62448.47999999957,
      "d": 82.90750000000116,
      "v": 94
    },
    {
      "midi": 55,
      "hit": false,
      "t": 62448.47999999957,
      "d": 106.29166666666424,
      "v": 83
    },
    {
      "midi": 52,
      "hit": false,
      "t": 62448.47999999957,
      "d": 112.66916666666657,
      "v": 83
    },
    {
      "midi": 64,
      "hit": false,
      "t": 62448.47999999957,
      "d": 121.17250000000058,
      "v": 83
    },
    {
      "midi": 86,
      "hit": false,
      "t": 62652.55999999957,
      "d": 59.52333333333081,
      "v": 82
    },
    {
      "midi": 55,
      "hit": false,
      "t": 62652.55999999957,
      "d": 76.52999999999884,
      "v": 83
    },
    {
      "midi": 83,
      "hit": false,
      "t": 62652.55999999957,
      "d": 87.15916666666453,
      "v": 59
    },
    {
      "midi": 43,
      "hit": false,
      "t": 62652.55999999957,
      "d": 91.4108333333279,
      "v": 83
    },
    {
      "midi": 91,
      "hit": false,
      "t": 62652.55999999957,
      "d": 93.53666666665958,
      "v": 86
    },
    {
      "midi": 50,
      "hit": false,
      "t": 62652.55999999957,
      "d": 95.66249999999127,
      "v": 83
    },
    {
      "midi": 62,
      "hit": false,
      "t": 62652.55999999957,
      "d": 110.54333333332761,
      "v": 83
    },
    {
      "midi": 86,
      "hit": false,
      "t": 62856.63999999956,
      "d": 72.27833333333547,
      "v": 90
    },
    {
      "midi": 50,
      "hit": false,
      "t": 62856.63999999956,
      "d": 93.53666666666686,
      "v": 83
    },
    {
      "midi": 83,
      "hit": false,
      "t": 62856.63999999956,
      "d": 95.66249999999854,
      "v": 70
    },
    {
      "midi": 91,
      "hit": false,
      "t": 62856.63999999956,
      "d": 97.78833333333023,
      "v": 94
    },
    {
      "midi": 55,
      "hit": false,
      "t": 62856.63999999956,
      "d": 99.91416666666191,
      "v": 83
    },
    {
      "midi": 62,
      "hit": false,
      "t": 62856.63999999956,
      "d": 131.801666666659,
      "v": 83
    },
    {
      "midi": 43,
      "hit": false,
      "t": 62856.63999999956,
      "d": 133.9274999999907,
      "v": 83
    },
    {
      "midi": 86,
      "hit": false,
      "t": 63060.71999999955,
      "d": 57.39749999999913,
      "v": 90
    },
    {
      "midi": 83,
      "hit": false,
      "t": 63060.71999999955,
      "d": 76.52999999999884,
      "v": 66
    },
    {
      "midi": 55,
      "hit": false,
      "t": 63060.71999999955,
      "d": 78.65583333333052,
      "v": 83
    },
    {
      "midi": 91,
      "hit": false,
      "t": 63060.71999999955,
      "d": 95.66249999999854,
      "v": 94
    },
    {
      "midi": 43,
      "hit": false,
      "t": 63060.71999999955,
      "d": 102.04000000000087,
      "v": 83
    },
    {
      "midi": 50,
      "hit": false,
      "t": 63060.71999999955,
      "d": 104.16583333333256,
      "v": 83
    },
    {
      "midi": 62,
      "hit": false,
      "t": 63060.71999999955,
      "d": 121.17250000000058,
      "v": 83
    },
    {
      "midi": 86,
      "hit": false,
      "t": 63264.79999999955,
      "d": 68.02666666666482,
      "v": 103
    },
    {
      "midi": 83,
      "hit": false,
      "t": 63264.79999999955,
      "d": 80.7816666666622,
      "v": 78
    },
    {
      "midi": 91,
      "hit": false,
      "t": 63264.79999999955,
      "d": 89.28499999999622,
      "v": 103
    },
    {
      "midi": 43,
      "hit": false,
      "t": 63264.79999999955,
      "d": 119.04666666666162,
      "v": 83
    },
    {
      "midi": 55,
      "hit": false,
      "t": 63264.79999999955,
      "d": 119.04666666666162,
      "v": 83
    },
    {
      "midi": 64,
      "hit": false,
      "t": 63264.79999999955,
      "d": 163.68916666666337,
      "v": 83
    },
    {
      "midi": 52,
      "hit": false,
      "t": 63264.79999999955,
      "d": 165.81499999999505,
      "v": 83
    },
    {
      "midi": 86,
      "hit": false,
      "t": 63468.879999999546,
      "d": 57.39749999999913,
      "v": 86
    },
    {
      "midi": 50,
      "hit": false,
      "t": 63468.879999999546,
      "d": 72.27833333333547,
      "v": 83
    },
    {
      "midi": 55,
      "hit": false,
      "t": 63468.879999999546,
      "d": 76.52999999999884,
      "v": 83
    },
    {
      "midi": 83,
      "hit": false,
      "t": 63468.879999999546,
      "d": 76.52999999999884,
      "v": 78
    },
    {
      "midi": 43,
      "hit": false,
      "t": 63468.879999999546,
      "d": 82.90750000000116,
      "v": 83
    },
    {
      "midi": 62,
      "hit": false,
      "t": 63468.879999999546,
      "d": 91.41083333333518,
      "v": 83
    },
    {
      "midi": 91,
      "hit": false,
      "t": 63468.879999999546,
      "d": 91.41083333333518,
      "v": 94
    },
    {
      "midi": 81,
      "hit": false,
      "t": 63672.95999999955,
      "d": 55.27166666666744,
      "v": 61
    },
    {
      "midi": 86,
      "hit": false,
      "t": 63672.95999999955,
      "d": 87.15916666666453,
      "v": 90
    },
    {
      "midi": 57,
      "hit": false,
      "t": 63672.95999999955,
      "d": 91.4108333333279,
      "v": 83
    },
    {
      "midi": 90,
      "hit": false,
      "t": 63672.95999999955,
      "d": 93.53666666665958,
      "v": 90
    },
    {
      "midi": 45,
      "hit": false,
      "t": 63672.95999999955,
      "d": 95.66249999999127,
      "v": 83
    },
    {
      "midi": 62,
      "hit": false,
      "t": 63672.95999999955,
      "d": 99.91416666665464,
      "v": 83
    },
    {
      "midi": 38,
      "hit": false,
      "t": 63672.95999999955,
      "d": 102.03999999998632,
      "v": 83
    },
    {
      "midi": 81,
      "hit": false,
      "t": 63877.039999999535,
      "d": 61.64916666666977,
      "v": 61
    },
    {
      "midi": 38,
      "hit": false,
      "t": 63877.039999999535,
      "d": 72.27833333333547,
      "v": 83
    },
    {
      "midi": 86,
      "hit": false,
      "t": 63877.039999999535,
      "d": 82.90750000000116,
      "v": 78
    },
    {
      "midi": 90,
      "hit": false,
      "t": 63877.039999999535,
      "d": 89.28500000000349,
      "v": 86
    },
    {
      "midi": 62,
      "hit": false,
      "t": 63877.039999999535,
      "d": 93.53666666666686,
      "v": 83
    },
    {
      "midi": 57,
      "hit": false,
      "t": 63877.039999999535,
      "d": 102.04000000000087,
      "v": 83
    },
    {
      "midi": 45,
      "hit": false,
      "t": 63877.039999999535,
      "d": 106.29166666666424,
      "v": 83
    },
    {
      "midi": 81,
      "hit": false,
      "t": 64081.11999999953,
      "d": 85.03333333333285,
      "v": 62
    },
    {
      "midi": 86,
      "hit": false,
      "t": 64081.11999999953,
      "d": 89.28499999999622,
      "v": 82
    },
    {
      "midi": 59,
      "hit": false,
      "t": 64081.11999999953,
      "d": 95.66249999999854,
      "v": 83
    },
    {
      "midi": 90,
      "hit": false,
      "t": 64081.11999999953,
      "d": 95.66249999999854,
      "v": 86
    },
    {
      "midi": 38,
      "hit": false,
      "t": 64081.11999999953,
      "d": 97.78833333333023,
      "v": 83
    },
    {
      "midi": 62,
      "hit": false,
      "t": 64081.11999999953,
      "d": 114.79499999999825,
      "v": 83
    },
    {
      "midi": 47,
      "hit": false,
      "t": 64081.11999999953,
      "d": 125.42416666666395,
      "v": 83
    },
    {
      "midi": 38,
      "hit": false,
      "t": 64285.199999999524,
      "d": 57.39749999999913,
      "v": 83
    },
    {
      "midi": 86,
      "hit": false,
      "t": 64285.199999999524,
      "d": 80.7816666666622,
      "v": 82
    },
    {
      "midi": 90,
      "hit": false,
      "t": 64285.199999999524,
      "d": 85.03333333332557,
      "v": 82
    },
    {
      "midi": 81,
      "hit": false,
      "t": 64285.199999999524,
      "d": 87.15916666665726,
      "v": 62
    },
    {
      "midi": 45,
      "hit": false,
      "t": 64285.199999999524,
      "d": 93.53666666665958,
      "v": 83
    },
    {
      "midi": 59,
      "hit": false,
      "t": 64285.199999999524,
      "d": 102.0399999999936,
      "v": 83
    },
    {
      "midi": 62,
      "hit": false,
      "t": 64285.199999999524,
      "d": 114.79499999999098,
      "v": 83
    },
    {
      "midi": 86,
      "hit": false,
      "t": 64489.27999999952,
      "d": 72.27833333333547,
      "v": 86
    },
    {
      "midi": 90,
      "hit": false,
      "t": 64489.27999999952,
      "d": 72.27833333333547,
      "v": 94
    },
    {
      "midi": 81,
      "hit": false,
      "t": 64489.27999999952,
      "d": 80.78166666666948,
      "v": 61
    },
    {
      "midi": 45,
      "hit": false,
      "t": 64489.27999999952,
      "d": 95.66250000000582,
      "v": 83
    },
    {
      "midi": 62,
      "hit": false,
      "t": 64489.27999999952,
      "d": 102.04000000000815,
      "v": 83
    },
    {
      "midi": 57,
      "hit": false,
      "t": 64489.27999999952,
      "d": 119.04666666667617,
      "v": 83
    },
    {
      "midi": 38,
      "hit": false,
      "t": 64489.27999999952,
      "d": 125.4241666666785,
      "v": 83
    },
    {
      "midi": 81,
      "hit": false,
      "t": 64693.35999999953,
      "d": 70.15249999999651,
      "v": 59
    },
    {
      "midi": 38,
      "hit": false,
      "t": 64693.35999999953,
      "d": 76.52999999999884,
      "v": 83
    },
    {
      "midi": 86,
      "hit": false,
      "t": 64693.35999999953,
      "d": 78.65583333333052,
      "v": 90
    },
    {
      "midi": 90,
      "hit": false,
      "t": 64693.35999999953,
      "d": 78.65583333333052,
      "v": 90
    },
    {
      "midi": 45,
      "hit": false,
      "t": 64693.35999999953,
      "d": 104.16583333333256,
      "v": 83
    },
    {
      "midi": 62,
      "hit": false,
      "t": 64693.35999999953,
      "d": 112.66916666666657,
      "v": 83
    },
    {
      "midi": 57,
      "hit": false,
      "t": 64693.35999999953,
      "d": 116.92083333332994,
      "v": 83
    },
    {
      "midi": 81,
      "hit": false,
      "t": 64897.43999999952,
      "d": 74.40416666666715,
      "v": 59
    },
    {
      "midi": 86,
      "hit": false,
      "t": 64897.43999999952,
      "d": 80.78166666666948,
      "v": 86
    },
    {
      "midi": 90,
      "hit": false,
      "t": 64897.43999999952,
      "d": 82.90750000000116,
      "v": 94
    },
    {
      "midi": 59,
      "hit": false,
      "t": 64897.43999999952,
      "d": 102.04000000000087,
      "v": 83
    },
    {
      "midi": 62,
      "hit": false,
      "t": 64897.43999999952,
      "d": 106.29166666666424,
      "v": 83
    },
    {
      "midi": 47,
      "hit": false,
      "t": 64897.43999999952,
      "d": 129.67583333332732,
      "v": 83
    },
    {
      "midi": 38,
      "hit": false,
      "t": 64897.43999999952,
      "d": 148.80833333332703,
      "v": 83
    },
    {
      "midi": 38,
      "hit": false,
      "t": 65101.51999999952,
      "d": 57.39749999999913,
      "v": 83
    },
    {
      "midi": 81,
      "hit": false,
      "t": 65101.51999999952,
      "d": 63.775000000001455,
      "v": 59
    },
    {
      "midi": 86,
      "hit": false,
      "t": 65101.51999999952,
      "d": 63.775000000001455,
      "v": 86
    },
    {
      "midi": 90,
      "hit": false,
      "t": 65101.51999999952,
      "d": 70.15250000000378,
      "v": 94
    },
    {
      "midi": 45,
      "hit": false,
      "t": 65101.51999999952,
      "d": 97.7883333333375,
      "v": 83
    },
    {
      "midi": 62,
      "hit": false,
      "t": 65101.51999999952,
      "d": 123.29833333333954,
      "v": 83
    },
    {
      "midi": 57,
      "hit": false,
      "t": 65101.51999999952,
      "d": 129.67583333334187,
      "v": 83
    },
    {
      "midi": 81,
      "hit": false,
      "t": 65305.599999999526,
      "d": 59.52333333333081,
      "v": 55
    },
    {
      "midi": 90,
      "hit": false,
      "t": 65305.599999999526,
      "d": 70.15249999999651,
      "v": 103
    },
    {
      "midi": 86,
      "hit": false,
      "t": 65305.599999999526,
      "d": 72.27833333332819,
      "v": 90
    },
    {
      "midi": 45,
      "hit": false,
      "t": 65305.599999999526,
      "d": 102.0399999999936,
      "v": 83
    },
    {
      "midi": 38,
      "hit": false,
      "t": 65305.599999999526,
      "d": 123.29833333332499,
      "v": 83
    },
    {
      "midi": 57,
      "hit": false,
      "t": 65305.599999999526,
      "d": 125.42416666665667,
      "v": 83
    },
    {
      "midi": 62,
      "hit": false,
      "t": 65305.599999999526,
      "d": 125.42416666665667,
      "v": 83
    },
    {
      "midi": 81,
      "hit": false,
      "t": 65509.67999999951,
      "d": 59.52333333333081,
      "v": 53
    },
    {
      "midi": 86,
      "hit": false,
      "t": 65509.67999999951,
      "d": 65.90083333333314,
      "v": 86
    },
    {
      "midi": 90,
      "hit": false,
      "t": 65509.67999999951,
      "d": 70.15249999999651,
      "v": 90
    },
    {
      "midi": 62,
      "hit": false,
      "t": 65509.67999999951,
      "d": 104.16583333333256,
      "v": 83
    },
    {
      "midi": 38,
      "hit": false,
      "t": 65509.67999999951,
      "d": 119.04666666666162,
      "v": 83
    },
    {
      "midi": 57,
      "hit": false,
      "t": 65509.67999999951,
      "d": 119.04666666666162,
      "v": 83
    },
    {
      "midi": 45,
      "hit": false,
      "t": 65509.67999999951,
      "d": 123.29833333332499,
      "v": 83
    },
    {
      "midi": 81,
      "hit": false,
      "t": 65713.7599999995,
      "d": 55.27166666666744,
      "v": 46
    },
    {
      "midi": 86,
      "hit": false,
      "t": 65713.7599999995,
      "d": 65.90083333333314,
      "v": 86
    },
    {
      "midi": 90,
      "hit": false,
      "t": 65713.7599999995,
      "d": 74.40416666665988,
      "v": 90
    },
    {
      "midi": 59,
      "hit": false,
      "t": 65713.7599999995,
      "d": 119.04666666666162,
      "v": 83
    },
    {
      "midi": 62,
      "hit": false,
      "t": 65713.7599999995,
      "d": 125.42416666666395,
      "v": 83
    },
    {
      "midi": 47,
      "hit": false,
      "t": 65713.7599999995,
      "d": 144.55666666667094,
      "v": 83
    },
    {
      "midi": 38,
      "hit": false,
      "t": 65713.7599999995,
      "d": 329.50416666665114,
      "v": 83
    },
    {
      "midi": 81,
      "hit": false,
      "t": 65917.8399999995,
      "d": 36.13916666666046,
      "v": 46
    },
    {
      "midi": 86,
      "hit": false,
      "t": 65917.8399999995,
      "d": 65.90083333333314,
      "v": 78
    },
    {
      "midi": 90,
      "hit": false,
      "t": 65917.8399999995,
      "d": 74.40416666665988,
      "v": 94
    },
    {
      "midi": 45,
      "hit": false,
      "t": 65917.8399999995,
      "d": 102.0399999999936,
      "v": 83
    },
    {
      "midi": 62,
      "hit": false,
      "t": 65917.8399999995,
      "d": 110.54333333332033,
      "v": 83
    },
    {
      "midi": 57,
      "hit": false,
      "t": 65917.8399999995,
      "d": 129.67583333331277,
      "v": 83
    },
    {
      "midi": 81,
      "hit": false,
      "t": 66121.91999999947,
      "d": 63.77499999999418,
      "v": 56
    },
    {
      "midi": 86,
      "hit": false,
      "t": 66121.91999999947,
      "d": 68.02666666665755,
      "v": 90
    },
    {
      "midi": 90,
      "hit": false,
      "t": 66121.91999999947,
      "d": 78.65583333332324,
      "v": 103
    },
    {
      "midi": 45,
      "hit": false,
      "t": 66121.91999999947,
      "d": 89.28499999998894,
      "v": 83
    },
    {
      "midi": 62,
      "hit": false,
      "t": 66121.91999999947,
      "d": 102.0399999999936,
      "v": 83
    },
    {
      "midi": 57,
      "hit": false,
      "t": 66121.91999999947,
      "d": 119.04666666666162,
      "v": 83
    },
    {
      "midi": 38,
      "hit": false,
      "t": 66121.91999999947,
      "d": 129.67583333332732,
      "v": 83
    },
    {
      "midi": 81,
      "hit": false,
      "t": 66325.99999999946,
      "d": 27.63583333333372,
      "v": 46
    },
    {
      "midi": 86,
      "hit": false,
      "t": 66325.99999999946,
      "d": 68.0266666666721,
      "v": 78
    },
    {
      "midi": 90,
      "hit": false,
      "t": 66325.99999999946,
      "d": 80.78166666667676,
      "v": 90
    },
    {
      "midi": 38,
      "hit": false,
      "t": 66325.99999999946,
      "d": 99.91416666668374,
      "v": 83
    },
    {
      "midi": 45,
      "hit": false,
      "t": 66325.99999999946,
      "d": 114.7950000000128,
      "v": 83
    },
    {
      "midi": 62,
      "hit": false,
      "t": 66325.99999999946,
      "d": 114.7950000000128,
      "v": 83
    },
    {
      "midi": 57,
      "hit": false,
      "t": 66325.99999999946,
      "d": 127.55000000001746,
      "v": 83
    },
    {
      "midi": 81,
      "hit": false,
      "t": 66530.07999999948,
      "d": 40.39083333333838,
      "v": 56
    },
    {
      "midi": 86,
      "hit": false,
      "t": 66530.07999999948,
      "d": 80.78166666667676,
      "v": 90
    },
    {
      "midi": 90,
      "hit": false,
      "t": 66530.07999999948,
      "d": 85.03333333334012,
      "v": 94
    },
    {
      "midi": 47,
      "hit": false,
      "t": 66530.07999999948,
      "d": 123.29833333333954,
      "v": 83
    },
    {
      "midi": 59,
      "hit": false,
      "t": 66530.07999999948,
      "d": 125.4241666666785,
      "v": 83
    },
    {
      "midi": 62,
      "hit": false,
      "t": 66530.07999999948,
      "d": 125.4241666666785,
      "v": 83
    },
    {
      "midi": 38,
      "hit": false,
      "t": 66530.07999999948,
      "d": 150.93416666667326,
      "v": 83
    },
    {
      "midi": 81,
      "hit": false,
      "t": 66734.15999999948,
      "d": 63.77499999999418,
      "v": 59
    },
    {
      "midi": 62,
      "hit": false,
      "t": 66734.15999999948,
      "d": 65.90083333333314,
      "v": 83
    },
    {
      "midi": 86,
      "hit": false,
      "t": 66734.15999999948,
      "d": 78.6558333333378,
      "v": 86
    },
    {
      "midi": 45,
      "hit": false,
      "t": 66734.15999999948,
      "d": 80.78166666667676,
      "v": 83
    },
    {
      "midi": 90,
      "hit": false,
      "t": 66734.15999999948,
      "d": 93.53666666668141,
      "v": 103
    },
    {
      "midi": 57,
      "hit": false,
      "t": 66734.15999999948,
      "d": 119.04666666667617,
      "v": 83
    },
    {
      "midi": 83,
      "hit": false,
      "t": 66938.2399999995,
      "d": 51.020000000004075,
      "v": 78
    },
    {
      "midi": 86,
      "hit": false,
      "t": 66938.2399999995,
      "d": 68.0266666666721,
      "v": 90
    },
    {
      "midi": 55,
      "hit": false,
      "t": 66938.2399999995,
      "d": 97.78833333334478,
      "v": 83
    },
    {
      "midi": 62,
      "hit": false,
      "t": 66938.2399999995,
      "d": 97.78833333334478,
      "v": 83
    },
    {
      "midi": 50,
      "hit": false,
      "t": 66938.2399999995,
      "d": 104.16583333334711,
      "v": 83
    },
    {
      "midi": 91,
      "hit": false,
      "t": 66938.2399999995,
      "d": 108.41750000001048,
      "v": 103
    },
    {
      "midi": 43,
      "hit": false,
      "t": 66938.2399999995,
      "d": 125.4241666666785,
      "v": 83
    },
    {
      "midi": 43,
      "hit": false,
      "t": 67142.31999999951,
      "d": 25.50999999999476,
      "v": 83
    },
    {
      "midi": 86,
      "hit": false,
      "t": 67142.31999999951,
      "d": 70.15249999999651,
      "v": 90
    },
    {
      "midi": 83,
      "hit": false,
      "t": 67142.31999999951,
      "d": 74.40416666665988,
      "v": 62
    },
    {
      "midi": 91,
      "hit": false,
      "t": 67142.31999999951,
      "d": 82.90749999998661,
      "v": 90
    },
    {
      "midi": 55,
      "hit": false,
      "t": 67142.31999999951,
      "d": 97.78833333331568,
      "v": 83
    },
    {
      "midi": 62,
      "hit": false,
      "t": 67142.31999999951,
      "d": 114.7949999999837,
      "v": 83
    },
    {
      "midi": 50,
      "hit": false,
      "t": 67142.31999999951,
      "d": 119.04666666664707,
      "v": 83
    },
    {
      "midi": 86,
      "hit": false,
      "t": 67346.3999999995,
      "d": 70.15249999999651,
      "v": 86
    },
    {
      "midi": 83,
      "hit": false,
      "t": 67346.3999999995,
      "d": 72.27833333333547,
      "v": 60
    },
    {
      "midi": 91,
      "hit": false,
      "t": 67346.3999999995,
      "d": 97.78833333333023,
      "v": 94
    },
    {
      "midi": 55,
      "hit": false,
      "t": 67346.3999999995,
      "d": 99.91416666666919,
      "v": 83
    },
    {
      "midi": 64,
      "hit": false,
      "t": 67346.3999999995,
      "d": 108.41749999999593,
      "v": 83
    },
    {
      "midi": 43,
      "hit": false,
      "t": 67346.3999999995,
      "d": 142.43083333333198,
      "v": 83
    },
    {
      "midi": 52,
      "hit": false,
      "t": 67346.3999999995,
      "d": 153.05999999999767,
      "v": 83
    },
    {
      "midi": 86,
      "hit": false,
      "t": 67550.4799999995,
      "d": 70.15249999999651,
      "v": 82
    },
    {
      "midi": 50,
      "hit": false,
      "t": 67550.4799999995,
      "d": 72.27833333333547,
      "v": 83
    },
    {
      "midi": 83,
      "hit": false,
      "t": 67550.4799999995,
      "d": 72.27833333333547,
      "v": 61
    },
    {
      "midi": 91,
      "hit": false,
      "t": 67550.4799999995,
      "d": 85.03333333334012,
      "v": 94
    },
    {
      "midi": 62,
      "hit": false,
      "t": 67550.4799999995,
      "d": 91.41083333334245,
      "v": 83
    },
    {
      "midi": 55,
      "hit": false,
      "t": 67550.4799999995,
      "d": 93.53666666668141,
      "v": 83
    },
    {
      "midi": 86,
      "hit": false,
      "t": 67754.55999999952,
      "d": 70.15249999999651,
      "v": 90
    },
    {
      "midi": 83,
      "hit": false,
      "t": 67754.55999999952,
      "d": 80.7816666666622,
      "v": 62
    },
    {
      "midi": 55,
      "hit": false,
      "t": 67754.55999999952,
      "d": 93.53666666666686,
      "v": 83
    },
    {
      "midi": 50,
      "hit": false,
      "t": 67754.55999999952,
      "d": 97.78833333333023,
      "v": 83
    },
    {
      "midi": 91,
      "hit": false,
      "t": 67754.55999999952,
      "d": 97.78833333333023,
      "v": 90
    },
    {
      "midi": 43,
      "hit": false,
      "t": 67754.55999999952,
      "d": 108.41749999999593,
      "v": 83
    },
    {
      "midi": 62,
      "hit": false,
      "t": 67754.55999999952,
      "d": 108.41749999999593,
      "v": 83
    },
    {
      "midi": 43,
      "hit": false,
      "t": 67958.63999999952,
      "d": 57.3975000000064,
      "v": 83
    },
    {
      "midi": 83,
      "hit": false,
      "t": 67958.63999999952,
      "d": 68.0266666666721,
      "v": 50
    },
    {
      "midi": 86,
      "hit": false,
      "t": 67958.63999999952,
      "d": 70.15250000001106,
      "v": 82
    },
    {
      "midi": 55,
      "hit": false,
      "t": 67958.63999999952,
      "d": 91.41083333334245,
      "v": 83
    },
    {
      "midi": 91,
      "hit": false,
      "t": 67958.63999999952,
      "d": 91.41083333334245,
      "v": 86
    },
    {
      "midi": 62,
      "hit": false,
      "t": 67958.63999999952,
      "d": 104.16583333334711,
      "v": 83
    },
    {
      "midi": 50,
      "hit": false,
      "t": 67958.63999999952,
      "d": 110.54333333334944,
      "v": 83
    },
    {
      "midi": 86,
      "hit": false,
      "t": 68162.71999999954,
      "d": 72.27833333333547,
      "v": 82
    },
    {
      "midi": 83,
      "hit": false,
      "t": 68162.71999999954,
      "d": 91.41083333334245,
      "v": 70
    },
    {
      "midi": 91,
      "hit": false,
      "t": 68162.71999999954,
      "d": 102.04000000000815,
      "v": 94
    },
    {
      "midi": 55,
      "hit": false,
      "t": 68162.71999999954,
      "d": 114.7950000000128,
      "v": 83
    },
    {
      "midi": 64,
      "hit": false,
      "t": 68162.71999999954,
      "d": 116.92083333335177,
      "v": 83
    },
    {
      "midi": 43,
      "hit": false,
      "t": 68162.71999999954,
      "d": 140.30500000002212,
      "v": 83
    },
    {
      "midi": 52,
      "hit": false,
      "t": 68162.71999999954,
      "d": 140.30500000002212,
      "v": 83
    },
    {
      "midi": 43,
      "hit": false,
      "t": 68366.79999999955,
      "d": 40.39083333333838,
      "v": 83
    },
    {
      "midi": 86,
      "hit": false,
      "t": 68366.79999999955,
      "d": 68.0266666666721,
      "v": 82
    },
    {
      "midi": 83,
      "hit": false,
      "t": 68366.79999999955,
      "d": 76.52999999999884,
      "v": 55
    },
    {
      "midi": 50,
      "hit": false,
      "t": 68366.79999999955,
      "d": 91.4108333333279,
      "v": 83
    },
    {
      "midi": 91,
      "hit": false,
      "t": 68366.79999999955,
      "d": 102.0399999999936,
      "v": 86
    },
    {
      "midi": 62,
      "hit": false,
      "t": 68366.79999999955,
      "d": 116.92083333332266,
      "v": 83
    },
    {
      "midi": 55,
      "hit": false,
      "t": 68366.79999999955,
      "d": 119.04666666666162,
      "v": 83
    },
    {
      "midi": 86,
      "hit": false,
      "t": 68570.87999999955,
      "d": 72.27833333333547,
      "v": 90
    },
    {
      "midi": 83,
      "hit": false,
      "t": 68570.87999999955,
      "d": 93.53666666666686,
      "v": 61
    },
    {
      "midi": 91,
      "hit": false,
      "t": 68570.87999999955,
      "d": 106.29166666667152,
      "v": 90
    },
    {
      "midi": 43,
      "hit": false,
      "t": 68570.87999999955,
      "d": 110.54333333333489,
      "v": 83
    },
    {
      "midi": 55,
      "hit": false,
      "t": 68570.87999999955,
      "d": 110.54333333333489,
      "v": 83
    },
    {
      "midi": 50,
      "hit": false,
      "t": 68570.87999999955,
      "d": 112.66916666667385,
      "v": 83
    },
    {
      "midi": 62,
      "hit": false,
      "t": 68570.87999999955,
      "d": 114.7950000000128,
      "v": 83
    },
    {
      "midi": 86,
      "hit": false,
      "t": 68774.95999999957,
      "d": 65.90083333333314,
      "v": 90
    },
    {
      "midi": 83,
      "hit": false,
      "t": 68774.95999999957,
      "d": 80.7816666666622,
      "v": 59
    },
    {
      "midi": 43,
      "hit": false,
      "t": 68774.95999999957,
      "d": 82.90750000000116,
      "v": 83
    },
    {
      "midi": 91,
      "hit": false,
      "t": 68774.95999999957,
      "d": 87.15916666666453,
      "v": 90
    },
    {
      "midi": 55,
      "hit": false,
      "t": 68774.95999999957,
      "d": 97.78833333333023,
      "v": 83
    },
    {
      "midi": 62,
      "hit": false,
      "t": 68774.95999999957,
      "d": 104.16583333333256,
      "v": 83
    },
    {
      "midi": 50,
      "hit": false,
      "t": 68774.95999999957,
      "d": 114.79499999999825,
      "v": 83
    },
    {
      "midi": 86,
      "hit": false,
      "t": 68979.03999999957,
      "d": 74.40416666665988,
      "v": 90
    },
    {
      "midi": 55,
      "hit": false,
      "t": 68979.03999999957,
      "d": 82.90749999998661,
      "v": 83
    },
    {
      "midi": 64,
      "hit": false,
      "t": 68979.03999999957,
      "d": 104.165833333318,
      "v": 83
    },
    {
      "midi": 91,
      "hit": false,
      "t": 68979.03999999957,
      "d": 104.165833333318,
      "v": 90
    },
    {
      "midi": 83,
      "hit": false,
      "t": 68979.03999999957,
      "d": 112.66916666664474,
      "v": 70
    },
    {
      "midi": 52,
      "hit": false,
      "t": 68979.03999999957,
      "d": 136.0533333333151,
      "v": 83
    },
    {
      "midi": 43,
      "hit": false,
      "t": 68979.03999999957,
      "d": 144.55666666664183,
      "v": 83
    },
    {
      "midi": 86,
      "hit": false,
      "t": 69183.11999999954,
      "d": 68.0266666666721,
      "v": 86
    },
    {
      "midi": 83,
      "hit": false,
      "t": 69183.11999999954,
      "d": 87.15916666667908,
      "v": 60
    },
    {
      "midi": 43,
      "hit": false,
      "t": 69183.11999999954,
      "d": 93.53666666668141,
      "v": 83
    },
    {
      "midi": 91,
      "hit": false,
      "t": 69183.11999999954,
      "d": 97.78833333334478,
      "v": 86
    },
    {
      "midi": 50,
      "hit": false,
      "t": 69183.11999999954,
      "d": 106.29166666667152,
      "v": 83
    },
    {
      "midi": 55,
      "hit": false,
      "t": 69183.11999999954,
      "d": 331.63000000000466,
      "v": 83
    },
    {
      "midi": 62,
      "hit": false,
      "t": 69183.11999999954,
      "d": 335.8816666666826,
      "v": 83
    },
    {
      "midi": 86,
      "hit": false,
      "t": 69387.19999999955,
      "d": 78.6558333333378,
      "v": 86
    },
    {
      "midi": 83,
      "hit": false,
      "t": 69387.19999999955,
      "d": 106.29166666667152,
      "v": 59
    },
    {
      "midi": 91,
      "hit": false,
      "t": 69387.19999999955,
      "d": 114.79499999999825,
      "v": 86
    },
    {
      "midi": 50,
      "hit": false,
      "t": 69387.19999999955,
      "d": 121.17250000000058,
      "v": 83
    },
    {
      "midi": 43,
      "hit": false,
      "t": 69387.19999999955,
      "d": 129.67583333334187,
      "v": 83
    },
    {
      "midi": 86,
      "hit": false,
      "t": 69591.27999999956,
      "d": 65.90083333333314,
      "v": 74
    },
    {
      "midi": 83,
      "hit": false,
      "t": 69591.27999999956,
      "d": 68.0266666666721,
      "v": 62
    },
    {
      "midi": 55,
      "hit": false,
      "t": 69591.27999999956,
      "d": 85.03333333334012,
      "v": 83
    },
    {
      "midi": 62,
      "hit": false,
      "t": 69591.27999999956,
      "d": 93.53666666666686,
      "v": 83
    },
    {
      "midi": 91,
      "hit": false,
      "t": 69591.27999999956,
      "d": 104.16583333333256,
      "v": 86
    },
    {
      "midi": 43,
      "hit": false,
      "t": 69591.27999999956,
      "d": 106.29166666667152,
      "v": 83
    },
    {
      "midi": 50,
      "hit": false,
      "t": 69591.27999999956,
      "d": 112.66916666667385,
      "v": 83
    },
    {
      "midi": 86,
      "hit": false,
      "t": 69795.35999999956,
      "d": 70.15249999999651,
      "v": 90
    },
    {
      "midi": 83,
      "hit": false,
      "t": 69795.35999999956,
      "d": 82.90750000000116,
      "v": 66
    },
    {
      "midi": 55,
      "hit": false,
      "t": 69795.35999999956,
      "d": 87.15916666666453,
      "v": 83
    },
    {
      "midi": 64,
      "hit": false,
      "t": 69795.35999999956,
      "d": 97.78833333333023,
      "v": 83
    },
    {
      "midi": 91,
      "hit": false,
      "t": 69795.35999999956,
      "d": 99.91416666666919,
      "v": 94
    },
    {
      "midi": 43,
      "hit": false,
      "t": 69795.35999999956,
      "d": 110.54333333333489,
      "v": 83
    },
    {
      "midi": 52,
      "hit": false,
      "t": 69795.35999999956,
      "d": 114.79499999999825,
      "v": 83
    },
    {
      "midi": 86,
      "hit": false,
      "t": 69999.43999999957,
      "d": 61.64916666666977,
      "v": 90
    },
    {
      "midi": 83,
      "hit": false,
      "t": 69999.43999999957,
      "d": 63.77500000000873,
      "v": 74
    },
    {
      "midi": 55,
      "hit": false,
      "t": 69999.43999999957,
      "d": 72.27833333333547,
      "v": 83
    },
    {
      "midi": 91,
      "hit": false,
      "t": 69999.43999999957,
      "d": 87.15916666666453,
      "v": 94
    },
    {
      "midi": 62,
      "hit": false,
      "t": 69999.43999999957,
      "d": 91.4108333333279,
      "v": 83
    },
    {
      "midi": 43,
      "hit": false,
      "t": 69999.43999999957,
      "d": 97.78833333333023,
      "v": 83
    },
    {
      "midi": 50,
      "hit": false,
      "t": 69999.43999999957,
      "d": 102.0399999999936,
      "v": 83
    },
    {
      "midi": 86,
      "hit": false,
      "t": 86546.92666666623,
      "d": 42.516666666662786,
      "v": 103
    },
    {
      "midi": 83,
      "hit": false,
      "t": 86546.92666666623,
      "d": 53.14583333332848,
      "v": 94
    },
    {
      "midi": 91,
      "hit": false,
      "t": 86546.92666666623,
      "d": 70.15249999999651,
      "v": 121
    },
    {
      "midi": 55,
      "hit": false,
      "t": 86546.92666666623,
      "d": 80.7816666666622,
      "v": 75
    },
    {
      "midi": 43,
      "hit": false,
      "t": 86546.92666666623,
      "d": 99.91416666666919,
      "v": 75
    },
    {
      "midi": 62,
      "hit": false,
      "t": 86546.92666666623,
      "d": 102.04000000000815,
      "v": 75
    },
    {
      "midi": 50,
      "hit": false,
      "t": 86546.92666666623,
      "d": 104.16583333334711,
      "v": 75
    },
    {
      "midi": 43,
      "hit": false,
      "t": 86733.99999999958,
      "d": 27.63583333333372,
      "v": 75
    },
    {
      "midi": 86,
      "hit": false,
      "t": 86733.99999999958,
      "d": 51.020000000004075,
      "v": 90
    },
    {
      "midi": 83,
      "hit": false,
      "t": 86733.99999999958,
      "d": 57.3975000000064,
      "v": 78
    },
    {
      "midi": 91,
      "hit": false,
      "t": 86733.99999999958,
      "d": 68.0266666666721,
      "v": 103
    },
    {
      "midi": 55,
      "hit": false,
      "t": 86733.99999999958,
      "d": 112.66916666667385,
      "v": 75
    },
    {
      "midi": 62,
      "hit": false,
      "t": 86733.99999999958,
      "d": 116.92083333333721,
      "v": 75
    },
    {
      "midi": 50,
      "hit": false,
      "t": 86733.99999999958,
      "d": 123.29833333333954,
      "v": 75
    },
    {
      "midi": 86,
      "hit": false,
      "t": 86938.07999999958,
      "d": 51.020000000004075,
      "v": 90
    },
    {
      "midi": 83,
      "hit": false,
      "t": 86938.07999999958,
      "d": 70.15250000001106,
      "v": 82
    },
    {
      "midi": 91,
      "hit": false,
      "t": 86938.07999999958,
      "d": 72.27833333335002,
      "v": 103
    },
    {
      "midi": 43,
      "hit": false,
      "t": 86938.07999999958,
      "d": 106.29166666668607,
      "v": 75
    },
    {
      "midi": 55,
      "hit": false,
      "t": 86938.07999999958,
      "d": 112.6691666666884,
      "v": 75
    },
    {
      "midi": 52,
      "hit": false,
      "t": 86938.07999999958,
      "d": 127.55000000001746,
      "v": 75
    },
    {
      "midi": 64,
      "hit": false,
      "t": 86938.07999999958,
      "d": 138.17916666668316,
      "v": 75
    },
    {
      "midi": 86,
      "hit": false,
      "t": 87142.1599999996,
      "d": 42.516666666662786,
      "v": 86
    },
    {
      "midi": 83,
      "hit": false,
      "t": 87142.1599999996,
      "d": 57.39749999999185,
      "v": 70
    },
    {
      "midi": 91,
      "hit": false,
      "t": 87142.1599999996,
      "d": 59.52333333333081,
      "v": 103
    },
    {
      "midi": 50,
      "hit": false,
      "t": 87142.1599999996,
      "d": 74.40416666665988,
      "v": 75
    },
    {
      "midi": 62,
      "hit": false,
      "t": 87142.1599999996,
      "d": 78.65583333332324,
      "v": 75
    },
    {
      "midi": 55,
      "hit": false,
      "t": 87142.1599999996,
      "d": 89.28499999998894,
      "v": 75
    },
    {
      "midi": 43,
      "hit": false,
      "t": 87244.19999999959,
      "d": 10.629166666665697,
      "v": 75
    },
    {
      "midi": 86,
      "hit": false,
      "t": 87346.23999999958,
      "d": 53.14583333332848,
      "v": 90
    },
    {
      "midi": 83,
      "hit": false,
      "t": 87346.23999999958,
      "d": 65.90083333333314,
      "v": 74
    },
    {
      "midi": 43,
      "hit": false,
      "t": 87346.23999999958,
      "d": 97.78833333333023,
      "v": 75
    },
    {
      "midi": 50,
      "hit": false,
      "t": 87346.23999999958,
      "d": 104.16583333333256,
      "v": 75
    },
    {
      "midi": 55,
      "hit": false,
      "t": 87346.23999999958,
      "d": 106.29166666667152,
      "v": 75
    },
    {
      "midi": 62,
      "hit": false,
      "t": 87346.23999999958,
      "d": 119.04666666667617,
      "v": 75
    },
    {
      "midi": 91,
      "hit": false,
      "t": 87363.24666666625,
      "d": 65.90083333333314,
      "v": 90
    },
    {
      "midi": 43,
      "hit": false,
      "t": 87550.3199999996,
      "d": 27.63583333333372,
      "v": 75
    },
    {
      "midi": 86,
      "hit": false,
      "t": 87550.3199999996,
      "d": 53.14583333332848,
      "v": 86
    },
    {
      "midi": 83,
      "hit": false,
      "t": 87550.3199999996,
      "d": 65.90083333333314,
      "v": 70
    },
    {
      "midi": 91,
      "hit": false,
      "t": 87550.3199999996,
      "d": 82.90750000000116,
      "v": 94
    },
    {
      "midi": 50,
      "hit": false,
      "t": 87550.3199999996,
      "d": 108.41749999999593,
      "v": 75
    },
    {
      "midi": 55,
      "hit": false,
      "t": 87550.3199999996,
      "d": 110.54333333333489,
      "v": 75
    },
    {
      "midi": 62,
      "hit": false,
      "t": 87550.3199999996,
      "d": 110.54333333333489,
      "v": 75
    },
    {
      "midi": 86,
      "hit": false,
      "t": 87754.3999999996,
      "d": 59.52333333333081,
      "v": 90
    },
    {
      "midi": 83,
      "hit": false,
      "t": 87754.3999999996,
      "d": 63.77499999999418,
      "v": 78
    },
    {
      "midi": 91,
      "hit": false,
      "t": 87754.3999999996,
      "d": 82.90750000000116,
      "v": 103
    },
    {
      "midi": 43,
      "hit": false,
      "t": 87754.3999999996,
      "d": 102.04000000000815,
      "v": 75
    },
    {
      "midi": 55,
      "hit": false,
      "t": 87754.3999999996,
      "d": 110.54333333333489,
      "v": 75
    },
    {
      "midi": 52,
      "hit": false,
      "t": 87754.3999999996,
      "d": 123.29833333333954,
      "v": 75
    },
    {
      "midi": 64,
      "hit": false,
      "t": 87754.3999999996,
      "d": 144.55666666667094,
      "v": 75
    },
    {
      "midi": 83,
      "hit": false,
      "t": 87958.4799999996,
      "d": 61.64916666666977,
      "v": 82
    },
    {
      "midi": 86,
      "hit": false,
      "t": 87958.4799999996,
      "d": 63.77500000000873,
      "v": 90
    },
    {
      "midi": 50,
      "hit": false,
      "t": 87958.4799999996,
      "d": 68.0266666666721,
      "v": 75
    },
    {
      "midi": 62,
      "hit": false,
      "t": 87958.4799999996,
      "d": 78.6558333333378,
      "v": 75
    },
    {
      "midi": 43,
      "hit": false,
      "t": 87958.4799999996,
      "d": 89.28500000000349,
      "v": 75
    },
    {
      "midi": 91,
      "hit": false,
      "t": 87958.4799999996,
      "d": 89.28500000000349,
      "v": 103
    },
    {
      "midi": 55,
      "hit": false,
      "t": 87958.4799999996,
      "d": 104.16583333333256,
      "v": 75
    },
    {
      "midi": 81,
      "hit": false,
      "t": 88162.5599999996,
      "d": 25.50999999999476,
      "v": 59
    },
    {
      "midi": 86,
      "hit": false,
      "t": 88162.5599999996,
      "d": 76.52999999999884,
      "v": 90
    },
    {
      "midi": 90,
      "hit": false,
      "t": 88162.5599999996,
      "d": 78.6558333333378,
      "v": 94
    },
    {
      "midi": 57,
      "hit": false,
      "t": 88162.5599999996,
      "d": 82.90750000000116,
      "v": 75
    },
    {
      "midi": 38,
      "hit": false,
      "t": 88162.5599999996,
      "d": 89.28500000000349,
      "v": 75
    },
    {
      "midi": 62,
      "hit": false,
      "t": 88162.5599999996,
      "d": 91.41083333334245,
      "v": 75
    },
    {
      "midi": 45,
      "hit": false,
      "t": 88162.5599999996,
      "d": 95.66250000000582,
      "v": 75
    },
    {
      "midi": 38,
      "hit": false,
      "t": 88366.6399999996,
      "d": 31.88749999999709,
      "v": 75
    },
    {
      "midi": 81,
      "hit": false,
      "t": 88366.6399999996,
      "d": 42.516666666662786,
      "v": 57
    },
    {
      "midi": 86,
      "hit": false,
      "t": 88366.6399999996,
      "d": 55.27166666666744,
      "v": 74
    },
    {
      "midi": 90,
      "hit": false,
      "t": 88366.6399999996,
      "d": 68.0266666666721,
      "v": 86
    },
    {
      "midi": 57,
      "hit": false,
      "t": 88366.6399999996,
      "d": 91.41083333334245,
      "v": 75
    },
    {
      "midi": 62,
      "hit": false,
      "t": 88366.6399999996,
      "d": 97.78833333334478,
      "v": 75
    },
    {
      "midi": 45,
      "hit": false,
      "t": 88366.6399999996,
      "d": 104.16583333334711,
      "v": 75
    },
    {
      "midi": 86,
      "hit": false,
      "t": 88570.71999999962,
      "d": 65.90083333333314,
      "v": 90
    },
    {
      "midi": 81,
      "hit": false,
      "t": 88570.71999999962,
      "d": 80.7816666666622,
      "v": 62
    },
    {
      "midi": 90,
      "hit": false,
      "t": 88570.71999999962,
      "d": 82.90750000000116,
      "v": 94
    },
    {
      "midi": 59,
      "hit": false,
      "t": 88570.71999999962,
      "d": 99.91416666666919,
      "v": 75
    },
    {
      "midi": 47,
      "hit": false,
      "t": 88570.71999999962,
      "d": 106.29166666667152,
      "v": 75
    },
    {
      "midi": 62,
      "hit": false,
      "t": 88570.71999999962,
      "d": 108.41750000001048,
      "v": 75
    },
    {
      "midi": 38,
      "hit": false,
      "t": 88570.71999999962,
      "d": 110.54333333334944,
      "v": 75
    },
    {
      "midi": 38,
      "hit": false,
      "t": 88774.79999999964,
      "d": 23.384166666670353,
      "v": 75
    },
    {
      "midi": 81,
      "hit": false,
      "t": 88774.79999999964,
      "d": 59.52333333333081,
      "v": 61
    },
    {
      "midi": 86,
      "hit": false,
      "t": 88774.79999999964,
      "d": 61.64916666666977,
      "v": 78
    },
    {
      "midi": 90,
      "hit": false,
      "t": 88774.79999999964,
      "d": 70.15249999999651,
      "v": 94
    },
    {
      "midi": 45,
      "hit": false,
      "t": 88774.79999999964,
      "d": 74.40416666665988,
      "v": 75
    },
    {
      "midi": 57,
      "hit": false,
      "t": 88774.79999999964,
      "d": 97.78833333333023,
      "v": 75
    },
    {
      "midi": 62,
      "hit": false,
      "t": 88774.79999999964,
      "d": 108.41749999999593,
      "v": 75
    },
    {
      "midi": 86,
      "hit": false,
      "t": 88978.87999999964,
      "d": 70.15249999999651,
      "v": 90
    },
    {
      "midi": 81,
      "hit": false,
      "t": 88978.87999999964,
      "d": 82.90750000000116,
      "v": 59
    },
    {
      "midi": 38,
      "hit": false,
      "t": 88978.87999999964,
      "d": 87.15916666666453,
      "v": 75
    },
    {
      "midi": 45,
      "hit": false,
      "t": 88978.87999999964,
      "d": 93.53666666666686,
      "v": 75
    },
    {
      "midi": 57,
      "hit": false,
      "t": 88978.87999999964,
      "d": 93.53666666666686,
      "v": 75
    },
    {
      "midi": 62,
      "hit": false,
      "t": 88978.87999999964,
      "d": 97.78833333333023,
      "v": 75
    },
    {
      "midi": 90,
      "hit": false,
      "t": 88995.88666666631,
      "d": 65.90083333333314,
      "v": 90
    },
    {
      "midi": 81,
      "hit": false,
      "t": 89182.95999999964,
      "d": 68.0266666666721,
      "v": 66
    },
    {
      "midi": 86,
      "hit": false,
      "t": 89182.95999999964,
      "d": 68.0266666666721,
      "v": 94
    },
    {
      "midi": 38,
      "hit": false,
      "t": 89182.95999999964,
      "d": 76.52999999999884,
      "v": 75
    },
    {
      "midi": 90,
      "hit": false,
      "t": 89182.95999999964,
      "d": 76.52999999999884,
      "v": 103
    },
    {
      "midi": 62,
      "hit": false,
      "t": 89182.95999999964,
      "d": 82.90750000000116,
      "v": 75
    },
    {
      "midi": 45,
      "hit": false,
      "t": 89182.95999999964,
      "d": 93.53666666666686,
      "v": 75
    },
    {
      "midi": 57,
      "hit": false,
      "t": 89182.95999999964,
      "d": 110.54333333333489,
      "v": 75
    },
    {
      "midi": 47,
      "hit": false,
      "t": 89387.03999999964,
      "d": 51.020000000004075,
      "v": 75
    },
    {
      "midi": 81,
      "hit": false,
      "t": 89387.03999999964,
      "d": 57.3975000000064,
      "v": 61
    },
    {
      "midi": 86,
      "hit": false,
      "t": 89387.03999999964,
      "d": 68.0266666666721,
      "v": 90
    },
    {
      "midi": 90,
      "hit": false,
      "t": 89387.03999999964,
      "d": 80.78166666667676,
      "v": 94
    },
    {
      "midi": 59,
      "hit": false,
      "t": 89387.03999999964,
      "d": 95.66250000000582,
      "v": 75
    },
    {
      "midi": 62,
      "hit": false,
      "t": 89387.03999999964,
      "d": 112.66916666667385,
      "v": 75
    },
    {
      "midi": 38,
      "hit": false,
      "t": 89387.03999999964,
      "d": 225.33833333333314,
      "v": 75
    },
    {
      "midi": 45,
      "hit": false,
      "t": 89489.07999999965,
      "d": 91.4108333333279,
      "v": 75
    },
    {
      "midi": 86,
      "hit": false,
      "t": 89591.11999999965,
      "d": 63.77499999999418,
      "v": 70
    },
    {
      "midi": 90,
      "hit": false,
      "t": 89591.11999999965,
      "d": 78.65583333332324,
      "v": 86
    },
    {
      "midi": 62,
      "hit": false,
      "t": 89591.11999999965,
      "d": 82.90749999998661,
      "v": 75
    },
    {
      "midi": 81,
      "hit": false,
      "t": 89591.11999999965,
      "d": 85.03333333332557,
      "v": 61
    },
    {
      "midi": 57,
      "hit": false,
      "t": 89591.11999999965,
      "d": 93.53666666665231,
      "v": 75
    },
    {
      "midi": 86,
      "hit": false,
      "t": 89795.19999999963,
      "d": 74.40416666665988,
      "v": 90
    },
    {
      "midi": 83,
      "hit": false,
      "t": 89795.19999999963,
      "d": 78.65583333332324,
      "v": 78
    },
    {
      "midi": 50,
      "hit": false,
      "t": 89795.19999999963,
      "d": 80.7816666666622,
      "v": 75
    },
    {
      "midi": 91,
      "hit": false,
      "t": 89795.19999999963,
      "d": 82.90750000000116,
      "v": 94
    },
    {
      "midi": 55,
      "hit": false,
      "t": 89795.19999999963,
      "d": 91.4108333333279,
      "v": 75
    },
    {
      "midi": 62,
      "hit": false,
      "t": 89795.19999999963,
      "d": 97.78833333333023,
      "v": 75
    },
    {
      "midi": 43,
      "hit": false,
      "t": 89795.19999999963,
      "d": 102.0399999999936,
      "v": 75
    },
    {
      "midi": 43,
      "hit": false,
      "t": 89999.27999999962,
      "d": 17.006666666668025,
      "v": 75
    },
    {
      "midi": 86,
      "hit": false,
      "t": 89999.27999999962,
      "d": 57.3975000000064,
      "v": 86
    },
    {
      "midi": 55,
      "hit": false,
      "t": 89999.27999999962,
      "d": 76.53000000001339,
      "v": 75
    },
    {
      "midi": 50,
      "hit": false,
      "t": 89999.27999999962,
      "d": 85.03333333334012,
      "v": 75
    },
    {
      "midi": 83,
      "hit": false,
      "t": 89999.27999999962,
      "d": 85.03333333334012,
      "v": 66
    },
    {
      "midi": 91,
      "hit": false,
      "t": 89999.27999999962,
      "d": 87.15916666667908,
      "v": 94
    },
    {
      "midi": 62,
      "hit": false,
      "t": 89999.27999999962,
      "d": 93.53666666668141,
      "v": 75
    },
    {
      "midi": 86,
      "hit": false,
      "t": 90203.35999999964,
      "d": 57.3975000000064,
      "v": 90
    },
    {
      "midi": 83,
      "hit": false,
      "t": 90203.35999999964,
      "d": 78.6558333333378,
      "v": 74
    },
    {
      "midi": 55,
      "hit": false,
      "t": 90203.35999999964,
      "d": 87.15916666666453,
      "v": 75
    },
    {
      "midi": 91,
      "hit": false,
      "t": 90203.35999999964,
      "d": 87.15916666666453,
      "v": 90
    },
    {
      "midi": 43,
      "hit": false,
      "t": 90203.35999999964,
      "d": 89.28500000000349,
      "v": 75
    },
    {
      "midi": 64,
      "hit": false,
      "t": 90203.35999999964,
      "d": 102.04000000000815,
      "v": 75
    },
    {
      "midi": 52,
      "hit": false,
      "t": 90203.35999999964,
      "d": 106.29166666667152,
      "v": 75
    },
    {
      "midi": 86,
      "hit": false,
      "t": 90407.43999999964,
      "d": 65.90083333333314,
      "v": 86
    },
    {
      "midi": 83,
      "hit": false,
      "t": 90407.43999999964,
      "d": 74.40416666665988,
      "v": 66
    },
    {
      "midi": 50,
      "hit": false,
      "t": 90407.43999999964,
      "d": 80.7816666666622,
      "v": 75
    },
    {
      "midi": 55,
      "hit": false,
      "t": 90407.43999999964,
      "d": 80.7816666666622,
      "v": 75
    },
    {
      "midi": 62,
      "hit": false,
      "t": 90407.43999999964,
      "d": 85.03333333332557,
      "v": 75
    },
    {
      "midi": 91,
      "hit": false,
      "t": 90407.43999999964,
      "d": 87.15916666666453,
      "v": 94
    },
    {
      "midi": 43,
      "hit": false,
      "t": 90611.51999999964,
      "d": 63.77499999999418,
      "v": 75
    },
    {
      "midi": 86,
      "hit": false,
      "t": 90611.51999999964,
      "d": 63.77499999999418,
      "v": 86
    },
    {
      "midi": 83,
      "hit": false,
      "t": 90611.51999999964,
      "d": 68.02666666665755,
      "v": 66
    },
    {
      "midi": 50,
      "hit": false,
      "t": 90611.51999999964,
      "d": 85.03333333332557,
      "v": 75
    },
    {
      "midi": 91,
      "hit": false,
      "t": 90611.51999999964,
      "d": 85.03333333332557,
      "v": 94
    },
    {
      "midi": 55,
      "hit": false,
      "t": 90611.51999999964,
      "d": 89.28499999998894,
      "v": 75
    },
    {
      "midi": 62,
      "hit": false,
      "t": 90611.51999999964,
      "d": 93.53666666665231,
      "v": 75
    },
    {
      "midi": 86,
      "hit": false,
      "t": 90815.59999999963,
      "d": 61.64916666666977,
      "v": 90
    },
    {
      "midi": 43,
      "hit": false,
      "t": 90815.59999999963,
      "d": 65.90083333333314,
      "v": 75
    },
    {
      "midi": 83,
      "hit": false,
      "t": 90815.59999999963,
      "d": 65.90083333333314,
      "v": 74
    },
    {
      "midi": 91,
      "hit": false,
      "t": 90815.59999999963,
      "d": 85.03333333334012,
      "v": 94
    },
    {
      "midi": 50,
      "hit": false,
      "t": 90815.59999999963,
      "d": 97.78833333334478,
      "v": 75
    },
    {
      "midi": 55,
      "hit": false,
      "t": 90815.59999999963,
      "d": 99.91416666668374,
      "v": 75
    },
    {
      "midi": 62,
      "hit": false,
      "t": 90815.59999999963,
      "d": 99.91416666668374,
      "v": 75
    },
    {
      "midi": 86,
      "hit": false,
      "t": 91019.67999999964,
      "d": 65.90083333333314,
      "v": 90
    },
    {
      "midi": 83,
      "hit": false,
      "t": 91019.67999999964,
      "d": 76.52999999999884,
      "v": 74
    },
    {
      "midi": 55,
      "hit": false,
      "t": 91019.67999999964,
      "d": 80.7816666666622,
      "v": 75
    },
    {
      "midi": 91,
      "hit": false,
      "t": 91019.67999999964,
      "d": 80.7816666666622,
      "v": 103
    },
    {
      "midi": 43,
      "hit": false,
      "t": 91019.67999999964,
      "d": 91.4108333333279,
      "v": 75
    },
    {
      "midi": 64,
      "hit": false,
      "t": 91019.67999999964,
      "d": 95.66249999999127,
      "v": 75
    },
    {
      "midi": 52,
      "hit": false,
      "t": 91019.67999999964,
      "d": 114.79499999999825,
      "v": 75
    },
    {
      "midi": 43,
      "hit": false,
      "t": 91223.75999999965,
      "d": 17.006666666668025,
      "v": 75
    },
    {
      "midi": 83,
      "hit": false,
      "t": 91223.75999999965,
      "d": 55.27166666666744,
      "v": 61
    },
    {
      "midi": 50,
      "hit": false,
      "t": 91223.75999999965,
      "d": 70.15249999999651,
      "v": 75
    },
    {
      "midi": 86,
      "hit": false,
      "t": 91223.75999999965,
      "d": 70.15249999999651,
      "v": 86
    },
    {
      "midi": 55,
      "hit": false,
      "t": 91223.75999999965,
      "d": 85.03333333332557,
      "v": 75
    },
    {
      "midi": 91,
      "hit": false,
      "t": 91223.75999999965,
      "d": 85.03333333332557,
      "v": 90
    },
    {
      "midi": 62,
      "hit": false,
      "t": 91223.75999999965,
      "d": 89.28499999998894,
      "v": 75
    },
    {
      "midi": 86,
      "hit": false,
      "t": 91427.83999999963,
      "d": 23.384166666670353,
      "v": 62
    },
    {
      "midi": 91,
      "hit": false,
      "t": 91427.83999999963,
      "d": 57.3975000000064,
      "v": 103
    },
    {
      "midi": 95,
      "hit": false,
      "t": 91427.83999999963,
      "d": 76.53000000001339,
      "v": 112
    },
    {
      "midi": 43,
      "hit": false,
      "t": 91427.83999999963,
      "d": 80.78166666667676,
      "v": 75
    },
    {
      "midi": 50,
      "hit": false,
      "t": 91427.83999999963,
      "d": 85.03333333334012,
      "v": 75
    },
    {
      "midi": 55,
      "hit": false,
      "t": 91427.83999999963,
      "d": 89.28500000000349,
      "v": 75
    },
    {
      "midi": 62,
      "hit": false,
      "t": 91427.83999999963,
      "d": 95.66250000000582,
      "v": 75
    },
    {
      "midi": 86,
      "hit": false,
      "t": 91631.91999999963,
      "d": 31.88749999999709,
      "v": 59
    },
    {
      "midi": 91,
      "hit": false,
      "t": 91631.91999999963,
      "d": 63.77499999999418,
      "v": 94
    },
    {
      "midi": 43,
      "hit": false,
      "t": 91631.91999999963,
      "d": 65.90083333333314,
      "v": 75
    },
    {
      "midi": 95,
      "hit": false,
      "t": 91631.91999999963,
      "d": 78.6558333333378,
      "v": 94
    },
    {
      "midi": 55,
      "hit": false,
      "t": 91631.91999999963,
      "d": 91.41083333334245,
      "v": 75
    },
    {
      "midi": 62,
      "hit": false,
      "t": 91631.91999999963,
      "d": 106.29166666667152,
      "v": 75
    },
    {
      "midi": 50,
      "hit": false,
      "t": 91631.91999999963,
      "d": 108.41750000001048,
      "v": 75
    },
    {
      "midi": 50,
      "hit": false,
      "t": 91835.99999999965,
      "d": 10.629166666665697,
      "v": 75
    },
    {
      "midi": 86,
      "hit": false,
      "t": 91835.99999999965,
      "d": 44.642500000001746,
      "v": 61
    },
    {
      "midi": 91,
      "hit": false,
      "t": 91835.99999999965,
      "d": 74.40416666667443,
      "v": 94
    },
    {
      "midi": 55,
      "hit": false,
      "t": 91835.99999999965,
      "d": 87.15916666667908,
      "v": 75
    },
    {
      "midi": 95,
      "hit": false,
      "t": 91835.99999999965,
      "d": 89.28500000001804,
      "v": 94
    },
    {
      "midi": 43,
      "hit": false,
      "t": 91835.99999999965,
      "d": 97.78833333334478,
      "v": 75
    },
    {
      "midi": 64,
      "hit": false,
      "t": 91835.99999999965,
      "d": 97.78833333334478,
      "v": 75
    },
    {
      "midi": 52,
      "hit": false,
      "t": 91835.99999999965,
      "d": 127.55000000001746,
      "v": 75
    },
    {
      "midi": 86,
      "hit": false,
      "t": 92040.07999999967,
      "d": 59.52333333333081,
      "v": 62
    },
    {
      "midi": 91,
      "hit": false,
      "t": 92040.07999999967,
      "d": 65.90083333333314,
      "v": 86
    },
    {
      "midi": 50,
      "hit": false,
      "t": 92040.07999999967,
      "d": 74.40416666665988,
      "v": 75
    },
    {
      "midi": 55,
      "hit": false,
      "t": 92040.07999999967,
      "d": 82.90749999998661,
      "v": 75
    },
    {
      "midi": 62,
      "hit": false,
      "t": 92040.07999999967,
      "d": 89.28499999998894,
      "v": 75
    },
    {
      "midi": 95,
      "hit": false,
      "t": 92040.07999999967,
      "d": 89.28499999998894,
      "v": 90
    },
    {
      "midi": 86,
      "hit": false,
      "t": 92244.15999999965,
      "d": 65.90083333333314,
      "v": 61
    },
    {
      "midi": 91,
      "hit": false,
      "t": 92244.15999999965,
      "d": 68.0266666666721,
      "v": 90
    },
    {
      "midi": 43,
      "hit": false,
      "t": 92244.15999999965,
      "d": 78.6558333333378,
      "v": 75
    },
    {
      "midi": 50,
      "hit": false,
      "t": 92244.15999999965,
      "d": 89.28500000000349,
      "v": 75
    },
    {
      "midi": 55,
      "hit": false,
      "t": 92244.15999999965,
      "d": 91.41083333334245,
      "v": 75
    },
    {
      "midi": 95,
      "hit": false,
      "t": 92244.15999999965,
      "d": 93.53666666668141,
      "v": 94
    },
    {
      "midi": 62,
      "hit": false,
      "t": 92244.15999999965,
      "d": 95.66250000002037,
      "v": 75
    },
    {
      "midi": 43,
      "hit": false,
      "t": 92448.23999999967,
      "d": 63.77499999999418,
      "v": 75
    },
    {
      "midi": 86,
      "hit": false,
      "t": 92448.23999999967,
      "d": 70.15249999999651,
      "v": 58
    },
    {
      "midi": 91,
      "hit": false,
      "t": 92448.23999999967,
      "d": 70.15249999999651,
      "v": 86
    },
    {
      "midi": 55,
      "hit": false,
      "t": 92448.23999999967,
      "d": 95.66249999999127,
      "v": 75
    },
    {
      "midi": 95,
      "hit": false,
      "t": 92448.23999999967,
      "d": 95.66249999999127,
      "v": 90
    },
    {
      "midi": 62,
      "hit": false,
      "t": 92448.23999999967,
      "d": 97.78833333333023,
      "v": 75
    },
    {
      "midi": 50,
      "hit": false,
      "t": 92448.23999999967,
      "d": 102.0399999999936,
      "v": 75
    },
    {
      "midi": 50,
      "hit": false,
      "t": 92652.31999999966,
      "d": 8.503333333326736,
      "v": 75
    },
    {
      "midi": 91,
      "hit": false,
      "t": 92652.31999999966,
      "d": 59.52333333333081,
      "v": 94
    },
    {
      "midi": 86,
      "hit": false,
      "t": 92652.31999999966,
      "d": 74.40416666665988,
      "v": 74
    },
    {
      "midi": 95,
      "hit": false,
      "t": 92652.31999999966,
      "d": 85.03333333332557,
      "v": 94
    },
    {
      "midi": 55,
      "hit": false,
      "t": 92652.31999999966,
      "d": 87.15916666666453,
      "v": 75
    },
    {
      "midi": 43,
      "hit": false,
      "t": 92652.31999999966,
      "d": 93.53666666666686,
      "v": 75
    },
    {
      "midi": 64,
      "hit": false,
      "t": 92652.31999999966,
      "d": 99.91416666666919,
      "v": 75
    },
    {
      "midi": 52,
      "hit": false,
      "t": 92652.31999999966,
      "d": 104.16583333333256,
      "v": 75
    },
    {
      "midi": 43,
      "hit": false,
      "t": 92856.39999999966,
      "d": 63.77499999999418,
      "v": 75
    },
    {
      "midi": 55,
      "hit": false,
      "t": 92856.39999999966,
      "d": 65.90083333333314,
      "v": 75
    },
    {
      "midi": 91,
      "hit": false,
      "t": 92856.39999999966,
      "d": 70.15249999999651,
      "v": 94
    },
    {
      "midi": 50,
      "hit": false,
      "t": 92856.39999999966,
      "d": 72.27833333333547,
      "v": 75
    },
    {
      "midi": 86,
      "hit": false,
      "t": 92856.39999999966,
      "d": 72.27833333333547,
      "v": 66
    },
    {
      "midi": 95,
      "hit": false,
      "t": 92856.39999999966,
      "d": 89.28500000000349,
      "v": 94
    },
    {
      "midi": 62,
      "hit": false,
      "t": 92856.39999999966,
      "d": 95.66250000000582,
      "v": 75
    },
    {
      "midi": 91,
      "hit": false,
      "t": 93060.47999999966,
      "d": 55.27166666666744,
      "v": 103
    },
    {
      "midi": 88,
      "hit": false,
      "t": 93060.47999999966,
      "d": 59.52333333333081,
      "v": 90
    },
    {
      "midi": 60,
      "hit": false,
      "t": 93060.47999999966,
      "d": 72.27833333333547,
      "v": 75
    },
    {
      "midi": 67,
      "hit": false,
      "t": 93060.47999999966,
      "d": 76.52999999999884,
      "v": 75
    },
    {
      "midi": 43,
      "hit": false,
      "t": 93060.47999999966,
      "d": 80.7816666666622,
      "v": 75
    },
    {
      "midi": 96,
      "hit": false,
      "t": 93060.47999999966,
      "d": 85.03333333332557,
      "v": 103
    },
    {
      "midi": 36,
      "hit": false,
      "t": 93060.47999999966,
      "d": 102.0399999999936,
      "v": 75
    },
    {
      "midi": 36,
      "hit": false,
      "t": 93264.55999999965,
      "d": 63.77499999999418,
      "v": 75
    },
    {
      "midi": 91,
      "hit": false,
      "t": 93264.55999999965,
      "d": 65.90083333333314,
      "v": 90
    },
    {
      "midi": 88,
      "hit": false,
      "t": 93264.55999999965,
      "d": 82.90750000000116,
      "v": 70
    },
    {
      "midi": 43,
      "hit": false,
      "t": 93264.55999999965,
      "d": 91.4108333333279,
      "v": 75
    },
    {
      "midi": 96,
      "hit": false,
      "t": 93264.55999999965,
      "d": 95.66249999999127,
      "v": 103
    },
    {
      "midi": 67,
      "hit": false,
      "t": 93264.55999999965,
      "d": 108.41749999999593,
      "v": 75
    },
    {
      "midi": 60,
      "hit": false,
      "t": 93264.55999999965,
      "d": 114.79499999999825,
      "v": 75
    },
    {
      "midi": 88,
      "hit": false,
      "t": 93468.63999999965,
      "d": 61.64916666666977,
      "v": 61
    },
    {
      "midi": 91,
      "hit": false,
      "t": 93468.63999999965,
      "d": 65.90083333333314,
      "v": 86
    },
    {
      "midi": 36,
      "hit": false,
      "t": 93468.63999999965,
      "d": 87.15916666666453,
      "v": 75
    },
    {
      "midi": 45,
      "hit": false,
      "t": 93468.63999999965,
      "d": 104.16583333333256,
      "v": 75
    },
    {
      "midi": 69,
      "hit": false,
      "t": 93468.63999999965,
      "d": 106.29166666667152,
      "v": 75
    },
    {
      "midi": 60,
      "hit": false,
      "t": 93468.63999999965,
      "d": 125.42416666666395,
      "v": 75
    },
    {
      "midi": 96,
      "hit": false,
      "t": 93485.64666666632,
      "d": 93.53666666666686,
      "v": 90
    },
    {
      "midi": 88,
      "hit": false,
      "t": 93672.71999999965,
      "d": 63.77499999999418,
      "v": 62
    },
    {
      "midi": 91,
      "hit": false,
      "t": 93672.71999999965,
      "d": 68.02666666665755,
      "v": 90
    },
    {
      "midi": 60,
      "hit": false,
      "t": 93672.71999999965,
      "d": 82.90749999998661,
      "v": 75
    },
    {
      "midi": 67,
      "hit": false,
      "t": 93672.71999999965,
      "d": 87.15916666664998,
      "v": 75
    },
    {
      "midi": 96,
      "hit": false,
      "t": 93672.71999999965,
      "d": 95.66249999997672,
      "v": 90
    },
    {
      "midi": 43,
      "hit": false,
      "t": 93672.71999999965,
      "d": 104.16583333330345,
      "v": 75
    },
    {
      "midi": 91,
      "hit": false,
      "t": 93876.79999999962,
      "d": 78.6558333333378,
      "v": 86
    },
    {
      "midi": 36,
      "hit": false,
      "t": 93876.79999999962,
      "d": 82.90750000000116,
      "v": 75
    },
    {
      "midi": 43,
      "hit": false,
      "t": 93876.79999999962,
      "d": 85.03333333334012,
      "v": 75
    },
    {
      "midi": 88,
      "hit": false,
      "t": 93876.79999999962,
      "d": 87.15916666667908,
      "v": 62
    },
    {
      "midi": 67,
      "hit": false,
      "t": 93876.79999999962,
      "d": 99.91416666668374,
      "v": 75
    },
    {
      "midi": 96,
      "hit": false,
      "t": 93876.79999999962,
      "d": 106.29166666668607,
      "v": 94
    },
    {
      "midi": 60,
      "hit": false,
      "t": 93876.79999999962,
      "d": 110.54333333334944,
      "v": 75
    },
    {
      "midi": 36,
      "hit": false,
      "t": 94080.87999999964,
      "d": 51.020000000004075,
      "v": 75
    },
    {
      "midi": 88,
      "hit": false,
      "t": 94080.87999999964,
      "d": 61.64916666666977,
      "v": 61
    },
    {
      "midi": 91,
      "hit": false,
      "t": 94080.87999999964,
      "d": 63.77500000000873,
      "v": 86
    },
    {
      "midi": 96,
      "hit": false,
      "t": 94080.87999999964,
      "d": 87.15916666667908,
      "v": 90
    },
    {
      "midi": 67,
      "hit": false,
      "t": 94080.87999999964,
      "d": 93.53666666668141,
      "v": 75
    },
    {
      "midi": 43,
      "hit": false,
      "t": 94080.87999999964,
      "d": 95.66250000002037,
      "v": 75
    },
    {
      "midi": 60,
      "hit": false,
      "t": 94080.87999999964,
      "d": 97.78833333335933,
      "v": 75
    },
    {
      "midi": 91,
      "hit": false,
      "t": 94284.95999999967,
      "d": 76.52999999999884,
      "v": 90
    },
    {
      "midi": 36,
      "hit": false,
      "t": 94284.95999999967,
      "d": 82.90750000000116,
      "v": 75
    },
    {
      "midi": 60,
      "hit": false,
      "t": 94284.95999999967,
      "d": 89.28500000000349,
      "v": 75
    },
    {
      "midi": 88,
      "hit": false,
      "t": 94284.95999999967,
      "d": 89.28500000000349,
      "v": 74
    },
    {
      "midi": 69,
      "hit": false,
      "t": 94284.95999999967,
      "d": 97.78833333333023,
      "v": 75
    },
    {
      "midi": 96,
      "hit": false,
      "t": 94284.95999999967,
      "d": 97.78833333333023,
      "v": 94
    },
    {
      "midi": 45,
      "hit": false,
      "t": 94284.95999999967,
      "d": 106.29166666665697,
      "v": 75
    },
    {
      "midi": 91,
      "hit": false,
      "t": 94489.03999999966,
      "d": 70.15249999999651,
      "v": 90
    },
    {
      "midi": 43,
      "hit": false,
      "t": 94489.03999999966,
      "d": 76.52999999999884,
      "v": 75
    },
    {
      "midi": 88,
      "hit": false,
      "t": 94489.03999999966,
      "d": 76.52999999999884,
      "v": 66
    },
    {
      "midi": 96,
      "hit": false,
      "t": 94489.03999999966,
      "d": 85.03333333332557,
      "v": 94
    },
    {
      "midi": 67,
      "hit": false,
      "t": 94489.03999999966,
      "d": 89.28499999998894,
      "v": 75
    },
    {
      "midi": 60,
      "hit": false,
      "t": 94489.03999999966,
      "d": 102.0399999999936,
      "v": 75
    },
    {
      "midi": 91,
      "hit": false,
      "t": 94693.11999999965,
      "d": 68.0266666666721,
      "v": 86
    },
    {
      "midi": 88,
      "hit": false,
      "t": 94693.11999999965,
      "d": 82.90750000000116,
      "v": 74
    },
    {
      "midi": 36,
      "hit": false,
      "t": 94693.11999999965,
      "d": 89.28500000000349,
      "v": 75
    },
    {
      "midi": 43,
      "hit": false,
      "t": 94693.11999999965,
      "d": 91.41083333334245,
      "v": 75
    },
    {
      "midi": 60,
      "hit": false,
      "t": 94693.11999999965,
      "d": 102.04000000000815,
      "v": 75
    },
    {
      "midi": 67,
      "hit": false,
      "t": 94693.11999999965,
      "d": 104.16583333334711,
      "v": 75
    },
    {
      "midi": 96,
      "hit": false,
      "t": 94710.12666666631,
      "d": 108.41750000001048,
      "v": 90
    },
    {
      "midi": 36,
      "hit": false,
      "t": 94897.19999999966,
      "d": 51.020000000004075,
      "v": 75
    },
    {
      "midi": 91,
      "hit": false,
      "t": 94897.19999999966,
      "d": 59.52333333333081,
      "v": 82
    },
    {
      "midi": 88,
      "hit": false,
      "t": 94897.19999999966,
      "d": 72.27833333333547,
      "v": 62
    },
    {
      "midi": 43,
      "hit": false,
      "t": 94897.19999999966,
      "d": 89.28500000000349,
      "v": 75
    },
    {
      "midi": 60,
      "hit": false,
      "t": 94897.19999999966,
      "d": 89.28500000000349,
      "v": 75
    },
    {
      "midi": 96,
      "hit": false,
      "t": 94897.19999999966,
      "d": 89.28500000000349,
      "v": 94
    },
    {
      "midi": 67,
      "hit": false,
      "t": 94897.19999999966,
      "d": 95.66250000000582,
      "v": 75
    },
    {
      "midi": 91,
      "hit": false,
      "t": 95101.27999999966,
      "d": 72.27833333333547,
      "v": 86
    },
    {
      "midi": 88,
      "hit": false,
      "t": 95101.27999999966,
      "d": 80.7816666666622,
      "v": 66
    },
    {
      "midi": 60,
      "hit": false,
      "t": 95101.27999999966,
      "d": 87.15916666666453,
      "v": 75
    },
    {
      "midi": 96,
      "hit": false,
      "t": 95101.27999999966,
      "d": 97.78833333333023,
      "v": 90
    },
    {
      "midi": 45,
      "hit": false,
      "t": 95101.27999999966,
      "d": 104.16583333333256,
      "v": 75
    },
    {
      "midi": 36,
      "hit": false,
      "t": 95101.27999999966,
      "d": 114.79499999999825,
      "v": 75
    },
    {
      "midi": 69,
      "hit": false,
      "t": 95101.27999999966,
      "d": 114.79499999999825,
      "v": 75
    },
    {
      "midi": 43,
      "hit": false,
      "t": 95305.35999999967,
      "d": 72.27833333333547,
      "v": 75
    },
    {
      "midi": 67,
      "hit": false,
      "t": 95305.35999999967,
      "d": 78.6558333333378,
      "v": 75
    },
    {
      "midi": 91,
      "hit": false,
      "t": 95305.35999999967,
      "d": 78.6558333333378,
      "v": 86
    },
    {
      "midi": 88,
      "hit": false,
      "t": 95305.35999999967,
      "d": 82.90750000000116,
      "v": 62
    },
    {
      "midi": 60,
      "hit": false,
      "t": 95305.35999999967,
      "d": 89.28500000000349,
      "v": 75
    },
    {
      "midi": 96,
      "hit": false,
      "t": 95305.35999999967,
      "d": 99.91416666666919,
      "v": 90
    },
    {
      "midi": 91,
      "hit": false,
      "t": 95509.43999999967,
      "d": 78.6558333333378,
      "v": 90
    },
    {
      "midi": 88,
      "hit": false,
      "t": 95509.43999999967,
      "d": 82.90750000000116,
      "v": 66
    },
    {
      "midi": 60,
      "hit": false,
      "t": 95509.43999999967,
      "d": 89.28500000000349,
      "v": 75
    },
    {
      "midi": 67,
      "hit": false,
      "t": 95509.43999999967,
      "d": 93.53666666666686,
      "v": 75
    },
    {
      "midi": 36,
      "hit": false,
      "t": 95509.43999999967,
      "d": 99.91416666666919,
      "v": 75
    },
    {
      "midi": 43,
      "hit": false,
      "t": 95509.43999999967,
      "d": 102.04000000000815,
      "v": 75
    },
    {
      "midi": 96,
      "hit": false,
      "t": 95526.44666666634,
      "d": 93.53666666666686,
      "v": 94
    },
    {
      "midi": 36,
      "hit": false,
      "t": 95713.51999999967,
      "d": 25.50999999999476,
      "v": 75
    },
    {
      "midi": 88,
      "hit": false,
      "t": 95713.51999999967,
      "d": 59.52333333333081,
      "v": 59
    },
    {
      "midi": 91,
      "hit": false,
      "t": 95713.51999999967,
      "d": 70.15249999999651,
      "v": 86
    },
    {
      "midi": 43,
      "hit": false,
      "t": 95713.51999999967,
      "d": 91.4108333333279,
      "v": 75
    },
    {
      "midi": 67,
      "hit": false,
      "t": 95713.51999999967,
      "d": 93.53666666666686,
      "v": 75
    },
    {
      "midi": 96,
      "hit": false,
      "t": 95713.51999999967,
      "d": 95.66250000000582,
      "v": 90
    },
    {
      "midi": 60,
      "hit": false,
      "t": 95713.51999999967,
      "d": 99.91416666666919,
      "v": 75
    },
    {
      "midi": 88,
      "hit": false,
      "t": 95917.59999999967,
      "d": 59.52333333333081,
      "v": 56
    },
    {
      "midi": 91,
      "hit": false,
      "t": 95917.59999999967,
      "d": 74.40416666665988,
      "v": 82
    },
    {
      "midi": 96,
      "hit": false,
      "t": 95917.59999999967,
      "d": 95.66249999999127,
      "v": 86
    },
    {
      "midi": 36,
      "hit": false,
      "t": 95917.59999999967,
      "d": 97.78833333333023,
      "v": 75
    },
    {
      "midi": 60,
      "hit": false,
      "t": 95917.59999999967,
      "d": 99.91416666666919,
      "v": 75
    },
    {
      "midi": 45,
      "hit": false,
      "t": 95917.59999999967,
      "d": 106.29166666667152,
      "v": 75
    },
    {
      "midi": 69,
      "hit": false,
      "t": 95917.59999999967,
      "d": 119.04666666667617,
      "v": 75
    },
    {
      "midi": 67,
      "hit": false,
      "t": 96121.67999999969,
      "d": 57.3975000000064,
      "v": 75
    },
    {
      "midi": 43,
      "hit": false,
      "t": 96121.67999999969,
      "d": 74.40416666667443,
      "v": 75
    },
    {
      "midi": 91,
      "hit": false,
      "t": 96121.67999999969,
      "d": 74.40416666667443,
      "v": 86
    },
    {
      "midi": 60,
      "hit": false,
      "t": 96121.67999999969,
      "d": 78.6558333333378,
      "v": 75
    },
    {
      "midi": 88,
      "hit": false,
      "t": 96121.67999999969,
      "d": 78.6558333333378,
      "v": 66
    },
    {
      "midi": 96,
      "hit": false,
      "t": 96121.67999999969,
      "d": 89.28500000000349,
      "v": 90
    },
    {
      "midi": 86,
      "hit": false,
      "t": 96325.75999999969,
      "d": 36.13916666666046,
      "v": 74
    },
    {
      "midi": 55,
      "hit": false,
      "t": 96325.75999999969,
      "d": 70.15249999999651,
      "v": 75
    },
    {
      "midi": 91,
      "hit": false,
      "t": 96325.75999999969,
      "d": 72.27833333333547,
      "v": 94
    },
    {
      "midi": 62,
      "hit": false,
      "t": 96325.75999999969,
      "d": 76.52999999999884,
      "v": 75
    },
    {
      "midi": 50,
      "hit": false,
      "t": 96325.75999999969,
      "d": 80.7816666666622,
      "v": 75
    },
    {
      "midi": 95,
      "hit": false,
      "t": 96325.75999999969,
      "d": 95.66249999999127,
      "v": 103
    },
    {
      "midi": 43,
      "hit": false,
      "t": 96325.75999999969,
      "d": 110.54333333332033,
      "v": 75
    },
    {
      "midi": 86,
      "hit": false,
      "t": 96529.83999999968,
      "d": 57.3975000000064,
      "v": 62
    },
    {
      "midi": 55,
      "hit": false,
      "t": 96529.83999999968,
      "d": 72.27833333333547,
      "v": 75
    },
    {
      "midi": 91,
      "hit": false,
      "t": 96529.83999999968,
      "d": 76.52999999999884,
      "v": 86
    },
    {
      "midi": 95,
      "hit": false,
      "t": 96529.83999999968,
      "d": 91.4108333333279,
      "v": 90
    },
    {
      "midi": 50,
      "hit": false,
      "t": 96529.83999999968,
      "d": 95.66249999999127,
      "v": 75
    },
    {
      "midi": 62,
      "hit": false,
      "t": 96529.83999999968,
      "d": 95.66249999999127,
      "v": 75
    },
    {
      "midi": 91,
      "hit": false,
      "t": 96733.91999999966,
      "d": 78.6558333333378,
      "v": 82
    },
    {
      "midi": 86,
      "hit": false,
      "t": 96733.91999999966,
      "d": 89.28500000000349,
      "v": 66
    },
    {
      "midi": 43,
      "hit": false,
      "t": 96733.91999999966,
      "d": 97.78833333333023,
      "v": 75
    },
    {
      "midi": 95,
      "hit": false,
      "t": 96733.91999999966,
      "d": 99.91416666666919,
      "v": 90
    },
    {
      "midi": 55,
      "hit": false,
      "t": 96733.91999999966,
      "d": 106.29166666667152,
      "v": 75
    },
    {
      "midi": 52,
      "hit": false,
      "t": 96733.91999999966,
      "d": 114.79499999999825,
      "v": 75
    },
    {
      "midi": 64,
      "hit": false,
      "t": 96733.91999999966,
      "d": 129.67583333332732,
      "v": 75
    },
    {
      "midi": 91,
      "hit": false,
      "t": 96937.99999999965,
      "d": 68.0266666666721,
      "v": 90
    },
    {
      "midi": 86,
      "hit": false,
      "t": 96937.99999999965,
      "d": 72.27833333333547,
      "v": 70
    },
    {
      "midi": 50,
      "hit": false,
      "t": 96937.99999999965,
      "d": 76.52999999999884,
      "v": 75
    },
    {
      "midi": 62,
      "hit": false,
      "t": 96937.99999999965,
      "d": 89.28500000000349,
      "v": 75
    },
    {
      "midi": 95,
      "hit": false,
      "t": 96937.99999999965,
      "d": 91.41083333334245,
      "v": 94
    },
    {
      "midi": 55,
      "hit": false,
      "t": 96937.99999999965,
      "d": 97.78833333334478,
      "v": 75
    },
    {
      "midi": 91,
      "hit": false,
      "t": 97142.07999999967,
      "d": 76.52999999999884,
      "v": 94
    },
    {
      "midi": 43,
      "hit": false,
      "t": 97142.07999999967,
      "d": 91.4108333333279,
      "v": 75
    },
    {
      "midi": 50,
      "hit": false,
      "t": 97142.07999999967,
      "d": 97.78833333333023,
      "v": 75
    },
    {
      "midi": 55,
      "hit": false,
      "t": 97142.07999999967,
      "d": 99.91416666666919,
      "v": 75
    },
    {
      "midi": 86,
      "hit": false,
      "t": 97142.07999999967,
      "d": 99.91416666666919,
      "v": 74
    },
    {
      "midi": 95,
      "hit": false,
      "t": 97142.07999999967,
      "d": 106.29166666667152,
      "v": 94
    },
    {
      "midi": 62,
      "hit": false,
      "t": 97142.07999999967,
      "d": 110.54333333333489,
      "v": 75
    },
    {
      "midi": 43,
      "hit": false,
      "t": 97346.15999999967,
      "d": 38.26499999999942,
      "v": 75
    },
    {
      "midi": 91,
      "hit": false,
      "t": 97346.15999999967,
      "d": 74.40416666665988,
      "v": 86
    },
    {
      "midi": 86,
      "hit": false,
      "t": 97346.15999999967,
      "d": 78.65583333332324,
      "v": 62
    },
    {
      "midi": 50,
      "hit": false,
      "t": 97346.15999999967,
      "d": 85.03333333332557,
      "v": 75
    },
    {
      "midi": 95,
      "hit": false,
      "t": 97346.15999999967,
      "d": 91.4108333333279,
      "v": 94
    },
    {
      "midi": 55,
      "hit": false,
      "t": 97346.15999999967,
      "d": 102.0399999999936,
      "v": 75
    },
    {
      "midi": 62,
      "hit": false,
      "t": 97346.15999999967,
      "d": 106.29166666665697,
      "v": 75
    },
    {
      "midi": 50,
      "hit": false,
      "t": 97550.23999999966,
      "d": 46.768333333326154,
      "v": 75
    },
    {
      "midi": 91,
      "hit": false,
      "t": 97550.23999999966,
      "d": 72.27833333332092,
      "v": 90
    },
    {
      "midi": 86,
      "hit": false,
      "t": 97550.23999999966,
      "d": 85.03333333332557,
      "v": 66
    },
    {
      "midi": 95,
      "hit": false,
      "t": 97550.23999999966,
      "d": 95.66249999999127,
      "v": 94
    },
    {
      "midi": 43,
      "hit": false,
      "t": 97550.23999999966,
      "d": 108.41749999999593,
      "v": 75
    },
    {
      "midi": 52,
      "hit": false,
      "t": 97550.23999999966,
      "d": 110.54333333333489,
      "v": 75
    },
    {
      "midi": 55,
      "hit": false,
      "t": 97550.23999999966,
      "d": 110.54333333333489,
      "v": 75
    },
    {
      "midi": 64,
      "hit": false,
      "t": 97550.23999999966,
      "d": 123.29833333333954,
      "v": 75
    },
    {
      "midi": 43,
      "hit": false,
      "t": 97754.31999999966,
      "d": 17.006666666668025,
      "v": 75
    },
    {
      "midi": 91,
      "hit": false,
      "t": 97754.31999999966,
      "d": 68.0266666666721,
      "v": 90
    },
    {
      "midi": 86,
      "hit": false,
      "t": 97754.31999999966,
      "d": 76.52999999999884,
      "v": 60
    },
    {
      "midi": 95,
      "hit": false,
      "t": 97754.31999999966,
      "d": 87.15916666666453,
      "v": 94
    },
    {
      "midi": 55,
      "hit": false,
      "t": 97754.31999999966,
      "d": 89.28500000000349,
      "v": 75
    },
    {
      "midi": 62,
      "hit": false,
      "t": 97754.31999999966,
      "d": 93.53666666666686,
      "v": 75
    },
    {
      "midi": 50,
      "hit": false,
      "t": 97754.31999999966,
      "d": 99.91416666666919,
      "v": 75
    },
    {
      "midi": 43,
      "hit": false,
      "t": 97958.39999999966,
      "d": 65.90083333333314,
      "v": 75
    },
    {
      "midi": 91,
      "hit": false,
      "t": 97958.39999999966,
      "d": 76.52999999999884,
      "v": 90
    },
    {
      "midi": 86,
      "hit": false,
      "t": 97958.39999999966,
      "d": 87.15916666666453,
      "v": 66
    },
    {
      "midi": 50,
      "hit": false,
      "t": 97958.39999999966,
      "d": 93.53666666666686,
      "v": 75
    },
    {
      "midi": 55,
      "hit": false,
      "t": 97958.39999999966,
      "d": 93.53666666666686,
      "v": 75
    },
    {
      "midi": 95,
      "hit": false,
      "t": 97958.39999999966,
      "d": 102.0399999999936,
      "v": 94
    },
    {
      "midi": 62,
      "hit": false,
      "t": 97958.39999999966,
      "d": 108.41749999999593,
      "v": 75
    },
    {
      "midi": 55,
      "hit": false,
      "t": 98162.47999999966,
      "d": 59.52333333333081,
      "v": 75
    },
    {
      "midi": 91,
      "hit": false,
      "t": 98162.47999999966,
      "d": 65.90083333333314,
      "v": 94
    },
    {
      "midi": 86,
      "hit": false,
      "t": 98162.47999999966,
      "d": 72.27833333333547,
      "v": 61
    },
    {
      "midi": 43,
      "hit": false,
      "t": 98162.47999999966,
      "d": 89.28500000000349,
      "v": 75
    },
    {
      "midi": 95,
      "hit": false,
      "t": 98162.47999999966,
      "d": 89.28500000000349,
      "v": 94
    },
    {
      "midi": 50,
      "hit": false,
      "t": 98162.47999999966,
      "d": 95.66250000000582,
      "v": 75
    },
    {
      "midi": 62,
      "hit": false,
      "t": 98162.47999999966,
      "d": 108.41750000001048,
      "v": 75
    },
    {
      "midi": 91,
      "hit": false,
      "t": 98366.55999999968,
      "d": 68.0266666666721,
      "v": 94
    },
    {
      "midi": 86,
      "hit": false,
      "t": 98366.55999999968,
      "d": 82.90750000000116,
      "v": 70
    },
    {
      "midi": 95,
      "hit": false,
      "t": 98366.55999999968,
      "d": 85.03333333334012,
      "v": 94
    },
    {
      "midi": 43,
      "hit": false,
      "t": 98366.55999999968,
      "d": 99.91416666666919,
      "v": 75
    },
    {
      "midi": 52,
      "hit": false,
      "t": 98366.55999999968,
      "d": 104.16583333333256,
      "v": 75
    },
    {
      "midi": 55,
      "hit": false,
      "t": 98366.55999999968,
      "d": 108.41749999999593,
      "v": 75
    },
    {
      "midi": 64,
      "hit": false,
      "t": 98366.55999999968,
      "d": 112.6691666666593,
      "v": 75
    },
    {
      "midi": 43,
      "hit": false,
      "t": 98570.63999999966,
      "d": 19.132500000006985,
      "v": 75
    },
    {
      "midi": 91,
      "hit": false,
      "t": 98570.63999999966,
      "d": 63.77500000000873,
      "v": 103
    },
    {
      "midi": 55,
      "hit": false,
      "t": 98570.63999999966,
      "d": 70.15250000001106,
      "v": 75
    },
    {
      "midi": 95,
      "hit": false,
      "t": 98570.63999999966,
      "d": 78.6558333333378,
      "v": 94
    },
    {
      "midi": 86,
      "hit": false,
      "t": 98570.63999999966,
      "d": 80.78166666667676,
      "v": 70
    },
    {
      "midi": 50,
      "hit": false,
      "t": 98570.63999999966,
      "d": 87.15916666667908,
      "v": 75
    },
    {
      "midi": 62,
      "hit": false,
      "t": 98570.63999999966,
      "d": 102.04000000000815,
      "v": 75
    },
    {
      "midi": 91,
      "hit": false,
      "t": 98774.71999999967,
      "d": 72.27833333333547,
      "v": 86
    },
    {
      "midi": 55,
      "hit": false,
      "t": 98774.71999999967,
      "d": 76.52999999999884,
      "v": 75
    },
    {
      "midi": 43,
      "hit": false,
      "t": 98774.71999999967,
      "d": 80.7816666666622,
      "v": 75
    },
    {
      "midi": 86,
      "hit": false,
      "t": 98774.71999999967,
      "d": 85.03333333332557,
      "v": 66
    },
    {
      "midi": 50,
      "hit": false,
      "t": 98774.71999999967,
      "d": 89.28499999998894,
      "v": 75
    },
    {
      "midi": 95,
      "hit": false,
      "t": 98774.71999999967,
      "d": 89.28499999998894,
      "v": 94
    },
    {
      "midi": 62,
      "hit": false,
      "t": 98774.71999999967,
      "d": 104.165833333318,
      "v": 75
    },
    {
      "midi": 43,
      "hit": false,
      "t": 98978.79999999965,
      "d": 44.642500000001746,
      "v": 75
    },
    {
      "midi": 91,
      "hit": false,
      "t": 98978.79999999965,
      "d": 63.77500000000873,
      "v": 90
    },
    {
      "midi": 86,
      "hit": false,
      "t": 98978.79999999965,
      "d": 82.90750000001572,
      "v": 70
    },
    {
      "midi": 95,
      "hit": false,
      "t": 98978.79999999965,
      "d": 85.03333333335468,
      "v": 90
    },
    {
      "midi": 55,
      "hit": false,
      "t": 98978.79999999965,
      "d": 99.91416666668374,
      "v": 75
    },
    {
      "midi": 50,
      "hit": false,
      "t": 98978.79999999965,
      "d": 104.16583333334711,
      "v": 75
    },
    {
      "midi": 62,
      "hit": false,
      "t": 98978.79999999965,
      "d": 119.04666666667617,
      "v": 75
    },
    {
      "midi": 91,
      "hit": false,
      "t": 99182.87999999967,
      "d": 72.27833333333547,
      "v": 94
    },
    {
      "midi": 43,
      "hit": false,
      "t": 99182.87999999967,
      "d": 85.03333333334012,
      "v": 75
    },
    {
      "midi": 86,
      "hit": false,
      "t": 99182.87999999967,
      "d": 87.15916666667908,
      "v": 82
    },
    {
      "midi": 95,
      "hit": false,
      "t": 99182.87999999967,
      "d": 87.15916666667908,
      "v": 94
    },
    {
      "midi": 55,
      "hit": false,
      "t": 99182.87999999967,
      "d": 95.66250000000582,
      "v": 75
    },
    {
      "midi": 64,
      "hit": false,
      "t": 99182.87999999967,
      "d": 125.4241666666785,
      "v": 75
    },
    {
      "midi": 52,
      "hit": false,
      "t": 99182.87999999967,
      "d": 129.67583333334187,
      "v": 75
    },
    {
      "midi": 43,
      "hit": false,
      "t": 99386.95999999967,
      "d": 53.14583333332848,
      "v": 75
    },
    {
      "midi": 91,
      "hit": false,
      "t": 99386.95999999967,
      "d": 65.90083333333314,
      "v": 94
    },
    {
      "midi": 95,
      "hit": false,
      "t": 99386.95999999967,
      "d": 70.15249999999651,
      "v": 94
    },
    {
      "midi": 55,
      "hit": false,
      "t": 99386.95999999967,
      "d": 80.7816666666622,
      "v": 75
    },
    {
      "midi": 86,
      "hit": false,
      "t": 99386.95999999967,
      "d": 80.7816666666622,
      "v": 70
    },
    {
      "midi": 50,
      "hit": false,
      "t": 99386.95999999967,
      "d": 91.4108333333279,
      "v": 75
    },
    {
      "midi": 62,
      "hit": false,
      "t": 99386.95999999967,
      "d": 102.0399999999936,
      "v": 75
    },
    {
      "midi": 88,
      "hit": false,
      "t": 99591.03999999966,
      "d": 48.894166666665114,
      "v": 112
    },
    {
      "midi": 84,
      "hit": false,
      "t": 99591.03999999966,
      "d": 51.020000000004075,
      "v": 90
    },
    {
      "midi": 91,
      "hit": false,
      "t": 99591.03999999966,
      "d": 76.52999999999884,
      "v": 112
    },
    {
      "midi": 60,
      "hit": false,
      "t": 99591.03999999966,
      "d": 123.29833333332499,
      "v": 83
    },
    {
      "midi": 43,
      "hit": false,
      "t": 99591.03999999966,
      "d": 127.54999999998836,
      "v": 83
    },
    {
      "midi": 36,
      "hit": false,
      "t": 99591.03999999966,
      "d": 138.17916666665406,
      "v": 83
    },
    {
      "midi": 67,
      "hit": false,
      "t": 99591.03999999966,
      "d": 150.9341666666587,
      "v": 83
    },
    {
      "midi": 88,
      "hit": false,
      "t": 99795.11999999965,
      "d": 53.14583333332848,
      "v": 78
    },
    {
      "midi": 84,
      "hit": false,
      "t": 99795.11999999965,
      "d": 68.02666666665755,
      "v": 70
    },
    {
      "midi": 91,
      "hit": false,
      "t": 99795.11999999965,
      "d": 78.65583333332324,
      "v": 94
    },
    {
      "midi": 43,
      "hit": false,
      "t": 99795.11999999965,
      "d": 161.5633333333244,
      "v": 83
    },
    {
      "midi": 60,
      "hit": false,
      "t": 99795.11999999965,
      "d": 161.5633333333244,
      "v": 83
    },
    {
      "midi": 67,
      "hit": false,
      "t": 99795.11999999965,
      "d": 178.56999999999243,
      "v": 83
    },
    {
      "midi": 36,
      "hit": false,
      "t": 99795.11999999965,
      "d": 348.63666666665813,
      "v": 83
    },
    {
      "midi": 88,
      "hit": false,
      "t": 99999.19999999963,
      "d": 63.77499999999418,
      "v": 82
    },
    {
      "midi": 84,
      "hit": false,
      "t": 99999.19999999963,
      "d": 82.90750000000116,
      "v": 66
    },
    {
      "midi": 91,
      "hit": false,
      "t": 99999.19999999963,
      "d": 85.03333333334012,
      "v": 94
    },
    {
      "midi": 60,
      "hit": false,
      "t": 99999.19999999963,
      "d": 121.17250000000058,
      "v": 83
    },
    {
      "midi": 45,
      "hit": false,
      "t": 99999.19999999963,
      "d": 127.55000000000291,
      "v": 83
    },
    {
      "midi": 69,
      "hit": false,
      "t": 99999.19999999963,
      "d": 138.1791666666686,
      "v": 83
    },
    {
      "midi": 88,
      "hit": false,
      "t": 100203.27999999964,
      "d": 61.64916666666977,
      "v": 78
    },
    {
      "midi": 84,
      "hit": false,
      "t": 100203.27999999964,
      "d": 72.27833333333547,
      "v": 60
    },
    {
      "midi": 91,
      "hit": false,
      "t": 100203.27999999964,
      "d": 87.15916666666453,
      "v": 82
    },
    {
      "midi": 43,
      "hit": false,
      "t": 100203.27999999964,
      "d": 102.0399999999936,
      "v": 83
    },
    {
      "midi": 60,
      "hit": false,
      "t": 100203.27999999964,
      "d": 110.54333333333489,
      "v": 83
    },
    {
      "midi": 67,
      "hit": false,
      "t": 100203.27999999964,
      "d": 116.92083333333721,
      "v": 83
    },
    {
      "midi": 36,
      "hit": false,
      "t": 100305.31999999963,
      "d": 2.12583333333896,
      "v": 83
    },
    {
      "midi": 88,
      "hit": false,
      "t": 100407.35999999964,
      "d": 76.52999999999884,
      "v": 82
    },
    {
      "midi": 84,
      "hit": false,
      "t": 100407.35999999964,
      "d": 85.03333333332557,
      "v": 61
    },
    {
      "midi": 60,
      "hit": false,
      "t": 100407.35999999964,
      "d": 102.0399999999936,
      "v": 83
    },
    {
      "midi": 43,
      "hit": false,
      "t": 100407.35999999964,
      "d": 114.79499999999825,
      "v": 83
    },
    {
      "midi": 36,
      "hit": false,
      "t": 100407.35999999964,
      "d": 127.55000000000291,
      "v": 83
    },
    {
      "midi": 67,
      "hit": false,
      "t": 100407.35999999964,
      "d": 133.92750000000524,
      "v": 83
    },
    {
      "midi": 91,
      "hit": false,
      "t": 100424.3666666663,
      "d": 87.15916666666453,
      "v": 86
    },
    {
      "midi": 36,
      "hit": false,
      "t": 100611.43999999964,
      "d": 72.27833333333547,
      "v": 83
    },
    {
      "midi": 88,
      "hit": false,
      "t": 100611.43999999964,
      "d": 78.6558333333378,
      "v": 82
    },
    {
      "midi": 91,
      "hit": false,
      "t": 100611.43999999964,
      "d": 89.28500000000349,
      "v": 86
    },
    {
      "midi": 84,
      "hit": false,
      "t": 100611.43999999964,
      "d": 95.66250000000582,
      "v": 70
    },
    {
      "midi": 43,
      "hit": false,
      "t": 100611.43999999964,
      "d": 104.16583333333256,
      "v": 83
    },
    {
      "midi": 60,
      "hit": false,
      "t": 100611.43999999964,
      "d": 108.41749999999593,
      "v": 83
    },
    {
      "midi": 67,
      "hit": false,
      "t": 100611.43999999964,
      "d": 127.55000000000291,
      "v": 83
    },
    {
      "midi": 88,
      "hit": false,
      "t": 100815.51999999964,
      "d": 74.40416666665988,
      "v": 82
    },
    {
      "midi": 91,
      "hit": false,
      "t": 100815.51999999964,
      "d": 97.78833333333023,
      "v": 86
    },
    {
      "midi": 84,
      "hit": false,
      "t": 100815.51999999964,
      "d": 102.0399999999936,
      "v": 70
    },
    {
      "midi": 60,
      "hit": false,
      "t": 100815.51999999964,
      "d": 104.16583333333256,
      "v": 83
    },
    {
      "midi": 45,
      "hit": false,
      "t": 100815.51999999964,
      "d": 114.79499999999825,
      "v": 83
    },
    {
      "midi": 69,
      "hit": false,
      "t": 100815.51999999964,
      "d": 127.55000000000291,
      "v": 83
    },
    {
      "midi": 36,
      "hit": false,
      "t": 100815.51999999964,
      "d": 223.21250000000873,
      "v": 83
    },
    {
      "midi": 88,
      "hit": false,
      "t": 101019.59999999964,
      "d": 61.64916666666977,
      "v": 90
    },
    {
      "midi": 60,
      "hit": false,
      "t": 101019.59999999964,
      "d": 78.6558333333378,
      "v": 83
    },
    {
      "midi": 91,
      "hit": false,
      "t": 101019.59999999964,
      "d": 85.03333333334012,
      "v": 90
    },
    {
      "midi": 67,
      "hit": false,
      "t": 101019.59999999964,
      "d": 91.41083333334245,
      "v": 83
    },
    {
      "midi": 84,
      "hit": false,
      "t": 101019.59999999964,
      "d": 91.41083333334245,
      "v": 82
    },
    {
      "midi": 43,
      "hit": false,
      "t": 101019.59999999964,
      "d": 116.92083333333721,
      "v": 83
    },
    {
      "midi": 50,
      "hit": false,
      "t": 101223.67999999964,
      "d": 68.0266666666721,
      "v": 83
    },
    {
      "midi": 86,
      "hit": false,
      "t": 101223.67999999964,
      "d": 76.52999999999884,
      "v": 90
    },
    {
      "midi": 83,
      "hit": false,
      "t": 101223.67999999964,
      "d": 78.6558333333378,
      "v": 82
    },
    {
      "midi": 55,
      "hit": false,
      "t": 101223.67999999964,
      "d": 80.78166666667676,
      "v": 83
    },
    {
      "midi": 62,
      "hit": false,
      "t": 101223.67999999964,
      "d": 93.53666666668141,
      "v": 83
    },
    {
      "midi": 91,
      "hit": false,
      "t": 101223.67999999964,
      "d": 97.78833333334478,
      "v": 90
    },
    {
      "midi": 43,
      "hit": false,
      "t": 101223.67999999964,
      "d": 119.04666666667617,
      "v": 83
    },
    {
      "midi": 86,
      "hit": false,
      "t": 101427.75999999966,
      "d": 65.90083333333314,
      "v": 78
    },
    {
      "midi": 83,
      "hit": false,
      "t": 101427.75999999966,
      "d": 72.27833333333547,
      "v": 59
    },
    {
      "midi": 43,
      "hit": false,
      "t": 101427.75999999966,
      "d": 80.7816666666622,
      "v": 83
    },
    {
      "midi": 50,
      "hit": false,
      "t": 101427.75999999966,
      "d": 91.4108333333279,
      "v": 83
    },
    {
      "midi": 55,
      "hit": false,
      "t": 101427.75999999966,
      "d": 95.66249999999127,
      "v": 83
    },
    {
      "midi": 91,
      "hit": false,
      "t": 101427.75999999966,
      "d": 95.66249999999127,
      "v": 86
    },
    {
      "midi": 62,
      "hit": false,
      "t": 101427.75999999966,
      "d": 116.92083333332266,
      "v": 83
    },
    {
      "midi": 86,
      "hit": false,
      "t": 101631.83999999965,
      "d": 80.7816666666622,
      "v": 86
    },
    {
      "midi": 83,
      "hit": false,
      "t": 101631.83999999965,
      "d": 97.78833333333023,
      "v": 62
    },
    {
      "midi": 91,
      "hit": false,
      "t": 101631.83999999965,
      "d": 99.91416666666919,
      "v": 86
    },
    {
      "midi": 55,
      "hit": false,
      "t": 101631.83999999965,
      "d": 104.16583333333256,
      "v": 83
    },
    {
      "midi": 52,
      "hit": false,
      "t": 101631.83999999965,
      "d": 116.92083333333721,
      "v": 83
    },
    {
      "midi": 64,
      "hit": false,
      "t": 101631.83999999965,
      "d": 125.42416666666395,
      "v": 83
    },
    {
      "midi": 43,
      "hit": false,
      "t": 101631.83999999965,
      "d": 129.67583333332732,
      "v": 83
    },
    {
      "midi": 86,
      "hit": false,
      "t": 101835.91999999963,
      "d": 72.27833333333547,
      "v": 86
    },
    {
      "midi": 83,
      "hit": false,
      "t": 101835.91999999963,
      "d": 82.90750000000116,
      "v": 60
    },
    {
      "midi": 91,
      "hit": false,
      "t": 101835.91999999963,
      "d": 89.28500000000349,
      "v": 90
    },
    {
      "midi": 50,
      "hit": false,
      "t": 101835.91999999963,
      "d": 99.91416666666919,
      "v": 83
    },
    {
      "midi": 55,
      "hit": false,
      "t": 101835.91999999963,
      "d": 112.66916666667385,
      "v": 83
    },
    {
      "midi": 62,
      "hit": false,
      "t": 101835.91999999963,
      "d": 114.7950000000128,
      "v": 83
    },
    {
      "midi": 43,
      "hit": false,
      "t": 101937.95999999964,
      "d": 10.629166666665697,
      "v": 83
    },
    {
      "midi": 86,
      "hit": false,
      "t": 102039.99999999965,
      "d": 76.52999999999884,
      "v": 90
    },
    {
      "midi": 83,
      "hit": false,
      "t": 102039.99999999965,
      "d": 95.66250000000582,
      "v": 62
    },
    {
      "midi": 55,
      "hit": false,
      "t": 102039.99999999965,
      "d": 97.78833333334478,
      "v": 83
    },
    {
      "midi": 91,
      "hit": false,
      "t": 102039.99999999965,
      "d": 97.78833333334478,
      "v": 90
    },
    {
      "midi": 50,
      "hit": false,
      "t": 102039.99999999965,
      "d": 106.29166666667152,
      "v": 83
    },
    {
      "midi": 62,
      "hit": false,
      "t": 102039.99999999965,
      "d": 114.79499999999825,
      "v": 83
    },
    {
      "midi": 43,
      "hit": false,
      "t": 102039.99999999965,
      "d": 119.04666666666162,
      "v": 83
    },
    {
      "midi": 86,
      "hit": false,
      "t": 102244.07999999965,
      "d": 68.0266666666721,
      "v": 86
    },
    {
      "midi": 43,
      "hit": false,
      "t": 102244.07999999965,
      "d": 74.40416666667443,
      "v": 83
    },
    {
      "midi": 83,
      "hit": false,
      "t": 102244.07999999965,
      "d": 74.40416666667443,
      "v": 61
    },
    {
      "midi": 55,
      "hit": false,
      "t": 102244.07999999965,
      "d": 89.28500000000349,
      "v": 83
    },
    {
      "midi": 91,
      "hit": false,
      "t": 102244.07999999965,
      "d": 89.28500000000349,
      "v": 94
    },
    {
      "midi": 50,
      "hit": false,
      "t": 102244.07999999965,
      "d": 119.04666666667617,
      "v": 83
    },
    {
      "midi": 62,
      "hit": false,
      "t": 102244.07999999965,
      "d": 133.92750000000524,
      "v": 83
    },
    {
      "midi": 86,
      "hit": false,
      "t": 102448.15999999965,
      "d": 72.27833333333547,
      "v": 86
    },
    {
      "midi": 83,
      "hit": false,
      "t": 102448.15999999965,
      "d": 80.7816666666622,
      "v": 70
    },
    {
      "midi": 91,
      "hit": false,
      "t": 102448.15999999965,
      "d": 85.03333333332557,
      "v": 90
    },
    {
      "midi": 43,
      "hit": false,
      "t": 102448.15999999965,
      "d": 110.54333333332033,
      "v": 83
    },
    {
      "midi": 55,
      "hit": false,
      "t": 102448.15999999965,
      "d": 110.54333333332033,
      "v": 83
    },
    {
      "midi": 64,
      "hit": false,
      "t": 102448.15999999965,
      "d": 121.17249999998603,
      "v": 83
    },
    {
      "midi": 52,
      "hit": false,
      "t": 102448.15999999965,
      "d": 136.0533333333151,
      "v": 83
    },
    {
      "midi": 55,
      "hit": false,
      "t": 102652.23999999964,
      "d": 10.629166666665697,
      "v": 83
    },
    {
      "midi": 43,
      "hit": false,
      "t": 102652.23999999964,
      "d": 48.894166666665114,
      "v": 83
    },
    {
      "midi": 50,
      "hit": false,
      "t": 102652.23999999964,
      "d": 65.90083333333314,
      "v": 83
    },
    {
      "midi": 86,
      "hit": false,
      "t": 102652.23999999964,
      "d": 70.15249999999651,
      "v": 90
    },
    {
      "midi": 83,
      "hit": false,
      "t": 102652.23999999964,
      "d": 87.15916666666453,
      "v": 66
    },
    {
      "midi": 62,
      "hit": false,
      "t": 102652.23999999964,
      "d": 99.91416666666919,
      "v": 83
    },
    {
      "midi": 91,
      "hit": false,
      "t": 102652.23999999964,
      "d": 99.91416666666919,
      "v": 86
    },
    {
      "midi": 88,
      "hit": false,
      "t": 102856.31999999964,
      "d": 68.0266666666721,
      "v": 90
    },
    {
      "midi": 84,
      "hit": false,
      "t": 102856.31999999964,
      "d": 72.27833333333547,
      "v": 82
    },
    {
      "midi": 60,
      "hit": false,
      "t": 102856.31999999964,
      "d": 78.6558333333378,
      "v": 83
    },
    {
      "midi": 91,
      "hit": false,
      "t": 102856.31999999964,
      "d": 87.15916666666453,
      "v": 94
    },
    {
      "midi": 67,
      "hit": false,
      "t": 102856.31999999964,
      "d": 91.4108333333279,
      "v": 83
    },
    {
      "midi": 43,
      "hit": false,
      "t": 102856.31999999964,
      "d": 99.91416666665464,
      "v": 83
    },
    {
      "midi": 36,
      "hit": false,
      "t": 102856.31999999964,
      "d": 106.29166666665697,
      "v": 83
    },
    {
      "midi": 36,
      "hit": false,
      "t": 103060.39999999963,
      "d": 29.76166666667268,
      "v": 83
    },
    {
      "midi": 88,
      "hit": false,
      "t": 103060.39999999963,
      "d": 68.0266666666721,
      "v": 74
    },
    {
      "midi": 84,
      "hit": false,
      "t": 103060.39999999963,
      "d": 82.90750000000116,
      "v": 58
    },
    {
      "midi": 91,
      "hit": false,
      "t": 103060.39999999963,
      "d": 99.91416666666919,
      "v": 78
    },
    {
      "midi": 60,
      "hit": false,
      "t": 103060.39999999963,
      "d": 106.29166666667152,
      "v": 83
    },
    {
      "midi": 67,
      "hit": false,
      "t": 103060.39999999963,
      "d": 116.92083333333721,
      "v": 83
    },
    {
      "midi": 43,
      "hit": false,
      "t": 103060.39999999963,
      "d": 125.42416666666395,
      "v": 83
    },
    {
      "midi": 88,
      "hit": false,
      "t": 103264.47999999963,
      "d": 70.15249999999651,
      "v": 78
    },
    {
      "midi": 84,
      "hit": false,
      "t": 103264.47999999963,
      "d": 87.15916666666453,
      "v": 62
    },
    {
      "midi": 60,
      "hit": false,
      "t": 103264.47999999963,
      "d": 106.29166666667152,
      "v": 83
    },
    {
      "midi": 69,
      "hit": false,
      "t": 103264.47999999963,
      "d": 123.29833333332499,
      "v": 83
    },
    {
      "midi": 45,
      "hit": false,
      "t": 103264.47999999963,
      "d": 129.67583333332732,
      "v": 83
    },
    {
      "midi": 36,
      "hit": false,
      "t": 103264.47999999963,
      "d": 138.17916666665406,
      "v": 83
    },
    {
      "midi": 91,
      "hit": false,
      "t": 103281.4866666663,
      "d": 97.78833333333023,
      "v": 90
    },
    {
      "midi": 36,
      "hit": false,
      "t": 103468.55999999962,
      "d": 27.63583333333372,
      "v": 83
    },
    {
      "midi": 88,
      "hit": false,
      "t": 103468.55999999962,
      "d": 68.0266666666721,
      "v": 90
    },
    {
      "midi": 84,
      "hit": false,
      "t": 103468.55999999962,
      "d": 91.41083333334245,
      "v": 78
    },
    {
      "midi": 60,
      "hit": false,
      "t": 103468.55999999962,
      "d": 93.53666666668141,
      "v": 83
    },
    {
      "midi": 91,
      "hit": false,
      "t": 103468.55999999962,
      "d": 95.66250000002037,
      "v": 94
    },
    {
      "midi": 43,
      "hit": false,
      "t": 103468.55999999962,
      "d": 110.54333333334944,
      "v": 83
    },
    {
      "midi": 67,
      "hit": false,
      "t": 103468.55999999962,
      "d": 116.92083333335177,
      "v": 83
    },
    {
      "midi": 88,
      "hit": false,
      "t": 103672.63999999964,
      "d": 70.15249999999651,
      "v": 86
    },
    {
      "midi": 84,
      "hit": false,
      "t": 103672.63999999964,
      "d": 85.03333333332557,
      "v": 70
    },
    {
      "midi": 60,
      "hit": false,
      "t": 103672.63999999964,
      "d": 99.91416666665464,
      "v": 83
    },
    {
      "midi": 43,
      "hit": false,
      "t": 103672.63999999964,
      "d": 106.29166666665697,
      "v": 83
    },
    {
      "midi": 36,
      "hit": false,
      "t": 103672.63999999964,
      "d": 133.9274999999907,
      "v": 83
    },
    {
      "midi": 67,
      "hit": false,
      "t": 103672.63999999964,
      "d": 136.05333333332965,
      "v": 83
    },
    {
      "midi": 91,
      "hit": false,
      "t": 103689.6466666663,
      "d": 87.15916666664998,
      "v": 86
    },
    {
      "midi": 88,
      "hit": false,
      "t": 103876.71999999964,
      "d": 61.64916666666977,
      "v": 86
    },
    {
      "midi": 84,
      "hit": false,
      "t": 103876.71999999964,
      "d": 76.52999999999884,
      "v": 70
    },
    {
      "midi": 91,
      "hit": false,
      "t": 103876.71999999964,
      "d": 89.28500000000349,
      "v": 94
    },
    {
      "midi": 36,
      "hit": false,
      "t": 103876.71999999964,
      "d": 108.41750000001048,
      "v": 83
    },
    {
      "midi": 60,
      "hit": false,
      "t": 103876.71999999964,
      "d": 108.41750000001048,
      "v": 83
    },
    {
      "midi": 43,
      "hit": false,
      "t": 103876.71999999964,
      "d": 110.54333333334944,
      "v": 83
    },
    {
      "midi": 67,
      "hit": false,
      "t": 103876.71999999964,
      "d": 116.92083333335177,
      "v": 83
    },
    {
      "midi": 88,
      "hit": false,
      "t": 104080.79999999965,
      "d": 87.15916666666453,
      "v": 90
    },
    {
      "midi": 91,
      "hit": false,
      "t": 104080.79999999965,
      "d": 93.53666666666686,
      "v": 90
    },
    {
      "midi": 60,
      "hit": false,
      "t": 104080.79999999965,
      "d": 99.91416666666919,
      "v": 83
    },
    {
      "midi": 45,
      "hit": false,
      "t": 104080.79999999965,
      "d": 106.29166666667152,
      "v": 83
    },
    {
      "midi": 36,
      "hit": false,
      "t": 104080.79999999965,
      "d": 108.41750000001048,
      "v": 83
    },
    {
      "midi": 84,
      "hit": false,
      "t": 104080.79999999965,
      "d": 108.41750000001048,
      "v": 78
    },
    {
      "midi": 69,
      "hit": false,
      "t": 104080.79999999965,
      "d": 131.80166666668083,
      "v": 83
    },
    {
      "midi": 88,
      "hit": false,
      "t": 104284.87999999967,
      "d": 65.90083333333314,
      "v": 103
    },
    {
      "midi": 91,
      "hit": false,
      "t": 104284.87999999967,
      "d": 65.90083333333314,
      "v": 94
    },
    {
      "midi": 67,
      "hit": false,
      "t": 104284.87999999967,
      "d": 74.40416666665988,
      "v": 83
    },
    {
      "midi": 84,
      "hit": false,
      "t": 104284.87999999967,
      "d": 80.7816666666622,
      "v": 82
    },
    {
      "midi": 43,
      "hit": false,
      "t": 104284.87999999967,
      "d": 82.90750000000116,
      "v": 83
    },
    {
      "midi": 60,
      "hit": false,
      "t": 104284.87999999967,
      "d": 87.15916666666453,
      "v": 83
    },
    {
      "midi": 86,
      "hit": false,
      "t": 104488.95999999967,
      "d": 65.90083333333314,
      "v": 82
    },
    {
      "midi": 91,
      "hit": false,
      "t": 104488.95999999967,
      "d": 76.52999999999884,
      "v": 86
    },
    {
      "midi": 62,
      "hit": false,
      "t": 104488.95999999967,
      "d": 85.03333333332557,
      "v": 83
    },
    {
      "midi": 50,
      "hit": false,
      "t": 104488.95999999967,
      "d": 87.15916666666453,
      "v": 83
    },
    {
      "midi": 83,
      "hit": false,
      "t": 104488.95999999967,
      "d": 87.15916666666453,
      "v": 90
    },
    {
      "midi": 55,
      "hit": false,
      "t": 104488.95999999967,
      "d": 89.28500000000349,
      "v": 83
    },
    {
      "midi": 43,
      "hit": false,
      "t": 104488.95999999967,
      "d": 119.04666666667617,
      "v": 83
    },
    {
      "midi": 86,
      "hit": false,
      "t": 104693.03999999969,
      "d": 68.0266666666721,
      "v": 90
    },
    {
      "midi": 91,
      "hit": false,
      "t": 104693.03999999969,
      "d": 80.78166666667676,
      "v": 94
    },
    {
      "midi": 55,
      "hit": false,
      "t": 104693.03999999969,
      "d": 89.28500000000349,
      "v": 83
    },
    {
      "midi": 83,
      "hit": false,
      "t": 104693.03999999969,
      "d": 91.41083333334245,
      "v": 70
    },
    {
      "midi": 62,
      "hit": false,
      "t": 104693.03999999969,
      "d": 112.66916666667385,
      "v": 83
    },
    {
      "midi": 50,
      "hit": false,
      "t": 104693.03999999969,
      "d": 119.04666666667617,
      "v": 83
    },
    {
      "midi": 86,
      "hit": false,
      "t": 104897.1199999997,
      "d": 68.0266666666721,
      "v": 90
    },
    {
      "midi": 83,
      "hit": false,
      "t": 104897.1199999997,
      "d": 87.15916666667908,
      "v": 62
    },
    {
      "midi": 91,
      "hit": false,
      "t": 104897.1199999997,
      "d": 89.28500000001804,
      "v": 86
    },
    {
      "midi": 55,
      "hit": false,
      "t": 104897.1199999997,
      "d": 102.0400000000227,
      "v": 83
    },
    {
      "midi": 64,
      "hit": false,
      "t": 104897.1199999997,
      "d": 114.79500000002736,
      "v": 83
    },
    {
      "midi": 43,
      "hit": false,
      "t": 104897.1199999997,
      "d": 127.55000000003201,
      "v": 83
    },
    {
      "midi": 52,
      "hit": false,
      "t": 104897.1199999997,
      "d": 142.43083333336108,
      "v": 83
    },
    {
      "midi": 86,
      "hit": false,
      "t": 105101.19999999974,
      "d": 68.0266666666721,
      "v": 86
    },
    {
      "midi": 83,
      "hit": false,
      "t": 105101.19999999974,
      "d": 74.40416666667443,
      "v": 60
    },
    {
      "midi": 91,
      "hit": false,
      "t": 105101.19999999974,
      "d": 82.90750000000116,
      "v": 90
    },
    {
      "midi": 50,
      "hit": false,
      "t": 105101.19999999974,
      "d": 87.15916666666453,
      "v": 83
    },
    {
      "midi": 55,
      "hit": false,
      "t": 105101.19999999974,
      "d": 91.4108333333279,
      "v": 83
    },
    {
      "midi": 62,
      "hit": false,
      "t": 105101.19999999974,
      "d": 99.91416666665464,
      "v": 83
    },
    {
      "midi": 86,
      "hit": false,
      "t": 105305.27999999972,
      "d": 61.64916666666977,
      "v": 82
    },
    {
      "midi": 83,
      "hit": false,
      "t": 105305.27999999972,
      "d": 78.6558333333378,
      "v": 62
    },
    {
      "midi": 91,
      "hit": false,
      "t": 105305.27999999972,
      "d": 82.90750000000116,
      "v": 90
    },
    {
      "midi": 55,
      "hit": false,
      "t": 105305.27999999972,
      "d": 91.4108333333279,
      "v": 83
    },
    {
      "midi": 50,
      "hit": false,
      "t": 105305.27999999972,
      "d": 99.91416666665464,
      "v": 83
    },
    {
      "midi": 62,
      "hit": false,
      "t": 105305.27999999972,
      "d": 114.7949999999837,
      "v": 83
    },
    {
      "midi": 43,
      "hit": false,
      "t": 105305.27999999972,
      "d": 119.04666666664707,
      "v": 83
    },
    {
      "midi": 86,
      "hit": false,
      "t": 105509.35999999971,
      "d": 63.77499999999418,
      "v": 90
    },
    {
      "midi": 83,
      "hit": false,
      "t": 105509.35999999971,
      "d": 76.52999999999884,
      "v": 70
    },
    {
      "midi": 91,
      "hit": false,
      "t": 105509.35999999971,
      "d": 82.90750000000116,
      "v": 94
    },
    {
      "midi": 55,
      "hit": false,
      "t": 105509.35999999971,
      "d": 114.79499999999825,
      "v": 83
    },
    {
      "midi": 62,
      "hit": false,
      "t": 105509.35999999971,
      "d": 116.92083333333721,
      "v": 83
    },
    {
      "midi": 50,
      "hit": false,
      "t": 105509.35999999971,
      "d": 123.29833333333954,
      "v": 83
    },
    {
      "midi": 43,
      "hit": false,
      "t": 105509.35999999971,
      "d": 378.39833333334536,
      "v": 83
    },
    {
      "midi": 86,
      "hit": false,
      "t": 105713.43999999971,
      "d": 61.64916666666977,
      "v": 86
    },
    {
      "midi": 83,
      "hit": false,
      "t": 105713.43999999971,
      "d": 82.90750000000116,
      "v": 70
    },
    {
      "midi": 91,
      "hit": false,
      "t": 105713.43999999971,
      "d": 85.03333333334012,
      "v": 94
    },
    {
      "midi": 55,
      "hit": false,
      "t": 105713.43999999971,
      "d": 104.16583333334711,
      "v": 83
    },
    {
      "midi": 64,
      "hit": false,
      "t": 105713.43999999971,
      "d": 112.66916666667385,
      "v": 83
    },
    {
      "midi": 52,
      "hit": false,
      "t": 105713.43999999971,
      "d": 136.0533333333442,
      "v": 83
    },
    {
      "midi": 86,
      "hit": false,
      "t": 105917.51999999973,
      "d": 65.90083333333314,
      "v": 82
    },
    {
      "midi": 43,
      "hit": false,
      "t": 105917.51999999973,
      "d": 68.0266666666721,
      "v": 83
    },
    {
      "midi": 83,
      "hit": false,
      "t": 105917.51999999973,
      "d": 80.78166666667676,
      "v": 60
    },
    {
      "midi": 50,
      "hit": false,
      "t": 105917.51999999973,
      "d": 91.41083333334245,
      "v": 83
    },
    {
      "midi": 91,
      "hit": false,
      "t": 105917.51999999973,
      "d": 95.66250000000582,
      "v": 86
    },
    {
      "midi": 55,
      "hit": false,
      "t": 105917.51999999973,
      "d": 97.78833333334478,
      "v": 83
    },
    {
      "midi": 62,
      "hit": false,
      "t": 105917.51999999973,
      "d": 104.16583333334711,
      "v": 83
    },
    {
      "midi": 86,
      "hit": false,
      "t": 106121.59999999974,
      "d": 61.64916666666977,
      "v": 82
    },
    {
      "midi": 83,
      "hit": false,
      "t": 106121.59999999974,
      "d": 82.90750000000116,
      "v": 60
    },
    {
      "midi": 91,
      "hit": false,
      "t": 106121.59999999974,
      "d": 97.78833333333023,
      "v": 86
    },
    {
      "midi": 50,
      "hit": false,
      "t": 106121.59999999974,
      "d": 106.29166666665697,
      "v": 83
    },
    {
      "midi": 55,
      "hit": false,
      "t": 106121.59999999974,
      "d": 106.29166666665697,
      "v": 83
    },
    {
      "midi": 62,
      "hit": false,
      "t": 106121.59999999974,
      "d": 121.17249999998603,
      "v": 83
    },
    {
      "midi": 43,
      "hit": false,
      "t": 106121.59999999974,
      "d": 127.54999999998836,
      "v": 83
    },
    {
      "midi": 50,
      "hit": false,
      "t": 106325.67999999973,
      "d": 29.76166666667268,
      "v": 83
    },
    {
      "midi": 86,
      "hit": false,
      "t": 106325.67999999973,
      "d": 59.52333333334536,
      "v": 82
    },
    {
      "midi": 55,
      "hit": false,
      "t": 106325.67999999973,
      "d": 76.53000000001339,
      "v": 83
    },
    {
      "midi": 83,
      "hit": false,
      "t": 106325.67999999973,
      "d": 85.03333333334012,
      "v": 61
    },
    {
      "midi": 91,
      "hit": false,
      "t": 106325.67999999973,
      "d": 85.03333333334012,
      "v": 90
    },
    {
      "midi": 62,
      "hit": false,
      "t": 106325.67999999973,
      "d": 121.17250000000058,
      "v": 83
    },
    {
      "midi": 43,
      "hit": false,
      "t": 106325.67999999973,
      "d": 159.4375,
      "v": 83
    },
    {
      "midi": 86,
      "hit": false,
      "t": 106529.75999999973,
      "d": 59.52333333333081,
      "v": 82
    },
    {
      "midi": 43,
      "hit": false,
      "t": 106529.75999999973,
      "d": 68.02666666665755,
      "v": 83
    },
    {
      "midi": 83,
      "hit": false,
      "t": 106529.75999999973,
      "d": 80.7816666666622,
      "v": 66
    },
    {
      "midi": 91,
      "hit": false,
      "t": 106529.75999999973,
      "d": 87.15916666666453,
      "v": 94
    },
    {
      "midi": 55,
      "hit": false,
      "t": 106529.75999999973,
      "d": 106.29166666667152,
      "v": 83
    },
    {
      "midi": 52,
      "hit": false,
      "t": 106529.75999999973,
      "d": 112.66916666667385,
      "v": 83
    },
    {
      "midi": 64,
      "hit": false,
      "t": 106529.75999999973,
      "d": 123.29833333333954,
      "v": 83
    },
    {
      "midi": 86,
      "hit": false,
      "t": 106733.83999999973,
      "d": 57.3975000000064,
      "v": 82
    },
    {
      "midi": 55,
      "hit": false,
      "t": 106733.83999999973,
      "d": 76.53000000001339,
      "v": 83
    },
    {
      "midi": 83,
      "hit": false,
      "t": 106733.83999999973,
      "d": 85.03333333334012,
      "v": 59
    },
    {
      "midi": 43,
      "hit": false,
      "t": 106733.83999999973,
      "d": 91.41083333334245,
      "v": 83
    },
    {
      "midi": 91,
      "hit": false,
      "t": 106733.83999999973,
      "d": 91.41083333334245,
      "v": 86
    },
    {
      "midi": 50,
      "hit": false,
      "t": 106733.83999999973,
      "d": 95.66250000000582,
      "v": 83
    },
    {
      "midi": 62,
      "hit": false,
      "t": 106733.83999999973,
      "d": 108.41750000001048,
      "v": 83
    },
    {
      "midi": 86,
      "hit": false,
      "t": 106937.91999999975,
      "d": 70.15249999999651,
      "v": 90
    },
    {
      "midi": 50,
      "hit": false,
      "t": 106937.91999999975,
      "d": 93.53666666666686,
      "v": 83
    },
    {
      "midi": 83,
      "hit": false,
      "t": 106937.91999999975,
      "d": 93.53666666666686,
      "v": 70
    },
    {
      "midi": 55,
      "hit": false,
      "t": 106937.91999999975,
      "d": 97.78833333333023,
      "v": 83
    },
    {
      "midi": 91,
      "hit": false,
      "t": 106937.91999999975,
      "d": 97.78833333333023,
      "v": 94
    },
    {
      "midi": 62,
      "hit": false,
      "t": 106937.91999999975,
      "d": 129.67583333332732,
      "v": 83
    },
    {
      "midi": 43,
      "hit": false,
      "t": 106937.91999999975,
      "d": 131.80166666666628,
      "v": 83
    },
    {
      "midi": 86,
      "hit": false,
      "t": 107141.99999999975,
      "d": 55.27166666666744,
      "v": 90
    },
    {
      "midi": 83,
      "hit": false,
      "t": 107141.99999999975,
      "d": 76.52999999999884,
      "v": 66
    },
    {
      "midi": 55,
      "hit": false,
      "t": 107141.99999999975,
      "d": 78.6558333333378,
      "v": 83
    },
    {
      "midi": 91,
      "hit": false,
      "t": 107141.99999999975,
      "d": 93.53666666666686,
      "v": 94
    },
    {
      "midi": 43,
      "hit": false,
      "t": 107141.99999999975,
      "d": 99.91416666666919,
      "v": 83
    },
    {
      "midi": 50,
      "hit": false,
      "t": 107141.99999999975,
      "d": 106.29166666667152,
      "v": 83
    },
    {
      "midi": 62,
      "hit": false,
      "t": 107141.99999999975,
      "d": 119.04666666667617,
      "v": 83
    },
    {
      "midi": 86,
      "hit": false,
      "t": 107346.07999999977,
      "d": 68.0266666666721,
      "v": 103
    },
    {
      "midi": 83,
      "hit": false,
      "t": 107346.07999999977,
      "d": 80.78166666667676,
      "v": 78
    },
    {
      "midi": 91,
      "hit": false,
      "t": 107346.07999999977,
      "d": 89.28500000000349,
      "v": 103
    },
    {
      "midi": 43,
      "hit": false,
      "t": 107346.07999999977,
      "d": 119.04666666667617,
      "v": 83
    },
    {
      "midi": 55,
      "hit": false,
      "t": 107346.07999999977,
      "d": 119.04666666667617,
      "v": 83
    },
    {
      "midi": 64,
      "hit": false,
      "t": 107346.07999999977,
      "d": 163.68916666667792,
      "v": 83
    },
    {
      "midi": 52,
      "hit": false,
      "t": 107346.07999999977,
      "d": 167.9408333333413,
      "v": 83
    },
    {
      "midi": 86,
      "hit": false,
      "t": 107550.15999999977,
      "d": 57.3975000000064,
      "v": 86
    },
    {
      "midi": 50,
      "hit": false,
      "t": 107550.15999999977,
      "d": 70.15250000001106,
      "v": 83
    },
    {
      "midi": 55,
      "hit": false,
      "t": 107550.15999999977,
      "d": 76.53000000001339,
      "v": 83
    },
    {
      "midi": 83,
      "hit": false,
      "t": 107550.15999999977,
      "d": 76.53000000001339,
      "v": 78
    },
    {
      "midi": 43,
      "hit": false,
      "t": 107550.15999999977,
      "d": 80.78166666667676,
      "v": 83
    },
    {
      "midi": 62,
      "hit": false,
      "t": 107550.15999999977,
      "d": 89.28500000000349,
      "v": 83
    },
    {
      "midi": 91,
      "hit": false,
      "t": 107550.15999999977,
      "d": 91.41083333334245,
      "v": 94
    },
    {
      "midi": 81,
      "hit": false,
      "t": 107754.23999999979,
      "d": 53.14583333332848,
      "v": 61
    },
    {
      "midi": 86,
      "hit": false,
      "t": 107754.23999999979,
      "d": 87.15916666666453,
      "v": 90
    },
    {
      "midi": 57,
      "hit": false,
      "t": 107754.23999999979,
      "d": 89.28500000000349,
      "v": 83
    },
    {
      "midi": 90,
      "hit": false,
      "t": 107754.23999999979,
      "d": 93.53666666666686,
      "v": 90
    },
    {
      "midi": 45,
      "hit": false,
      "t": 107754.23999999979,
      "d": 95.66250000000582,
      "v": 83
    },
    {
      "midi": 38,
      "hit": false,
      "t": 107754.23999999979,
      "d": 104.16583333333256,
      "v": 83
    },
    {
      "midi": 62,
      "hit": false,
      "t": 107754.23999999979,
      "d": 106.29166666667152,
      "v": 83
    },
    {
      "midi": 81,
      "hit": false,
      "t": 107958.31999999979,
      "d": 61.64916666666977,
      "v": 61
    },
    {
      "midi": 38,
      "hit": false,
      "t": 107958.31999999979,
      "d": 72.27833333333547,
      "v": 83
    },
    {
      "midi": 86,
      "hit": false,
      "t": 107958.31999999979,
      "d": 82.90750000000116,
      "v": 78
    },
    {
      "midi": 62,
      "hit": false,
      "t": 107958.31999999979,
      "d": 91.4108333333279,
      "v": 83
    },
    {
      "midi": 90,
      "hit": false,
      "t": 107958.31999999979,
      "d": 93.53666666666686,
      "v": 86
    },
    {
      "midi": 57,
      "hit": false,
      "t": 107958.31999999979,
      "d": 99.91416666666919,
      "v": 83
    },
    {
      "midi": 45,
      "hit": false,
      "t": 107958.31999999979,
      "d": 106.29166666667152,
      "v": 83
    },
    {
      "midi": 81,
      "hit": false,
      "t": 108162.39999999979,
      "d": 85.03333333334012,
      "v": 62
    },
    {
      "midi": 86,
      "hit": false,
      "t": 108162.39999999979,
      "d": 89.28500000000349,
      "v": 82
    },
    {
      "midi": 59,
      "hit": false,
      "t": 108162.39999999979,
      "d": 95.66250000000582,
      "v": 83
    },
    {
      "midi": 90,
      "hit": false,
      "t": 108162.39999999979,
      "d": 95.66250000000582,
      "v": 86
    },
    {
      "midi": 38,
      "hit": false,
      "t": 108162.39999999979,
      "d": 97.78833333334478,
      "v": 83
    },
    {
      "midi": 62,
      "hit": false,
      "t": 108162.39999999979,
      "d": 116.92083333335177,
      "v": 83
    },
    {
      "midi": 47,
      "hit": false,
      "t": 108162.39999999979,
      "d": 125.4241666666785,
      "v": 83
    },
    {
      "midi": 38,
      "hit": false,
      "t": 108366.4799999998,
      "d": 57.3975000000064,
      "v": 83
    },
    {
      "midi": 86,
      "hit": false,
      "t": 108366.4799999998,
      "d": 80.78166666667676,
      "v": 82
    },
    {
      "midi": 90,
      "hit": false,
      "t": 108366.4799999998,
      "d": 85.03333333334012,
      "v": 82
    },
    {
      "midi": 81,
      "hit": false,
      "t": 108366.4799999998,
      "d": 87.15916666667908,
      "v": 62
    },
    {
      "midi": 45,
      "hit": false,
      "t": 108366.4799999998,
      "d": 93.53666666668141,
      "v": 83
    },
    {
      "midi": 59,
      "hit": false,
      "t": 108366.4799999998,
      "d": 102.04000000000815,
      "v": 83
    },
    {
      "midi": 62,
      "hit": false,
      "t": 108366.4799999998,
      "d": 114.7950000000128,
      "v": 83
    },
    {
      "midi": 86,
      "hit": false,
      "t": 108570.55999999982,
      "d": 72.27833333333547,
      "v": 86
    },
    {
      "midi": 90,
      "hit": false,
      "t": 108570.55999999982,
      "d": 74.40416666667443,
      "v": 94
    },
    {
      "midi": 81,
      "hit": false,
      "t": 108570.55999999982,
      "d": 80.78166666667676,
      "v": 61
    },
    {
      "midi": 45,
      "hit": false,
      "t": 108570.55999999982,
      "d": 95.66250000000582,
      "v": 83
    },
    {
      "midi": 62,
      "hit": false,
      "t": 108570.55999999982,
      "d": 102.04000000000815,
      "v": 83
    },
    {
      "midi": 57,
      "hit": false,
      "t": 108570.55999999982,
      "d": 119.04666666667617,
      "v": 83
    },
    {
      "midi": 38,
      "hit": false,
      "t": 108570.55999999982,
      "d": 125.4241666666785,
      "v": 83
    },
    {
      "midi": 81,
      "hit": false,
      "t": 108774.63999999984,
      "d": 70.15249999999651,
      "v": 59
    },
    {
      "midi": 38,
      "hit": false,
      "t": 108774.63999999984,
      "d": 76.52999999999884,
      "v": 83
    },
    {
      "midi": 86,
      "hit": false,
      "t": 108774.63999999984,
      "d": 76.52999999999884,
      "v": 90
    },
    {
      "midi": 90,
      "hit": false,
      "t": 108774.63999999984,
      "d": 78.6558333333378,
      "v": 90
    },
    {
      "midi": 45,
      "hit": false,
      "t": 108774.63999999984,
      "d": 104.16583333333256,
      "v": 83
    },
    {
      "midi": 62,
      "hit": false,
      "t": 108774.63999999984,
      "d": 112.6691666666593,
      "v": 83
    },
    {
      "midi": 57,
      "hit": false,
      "t": 108774.63999999984,
      "d": 119.04666666666162,
      "v": 83
    },
    {
      "midi": 81,
      "hit": false,
      "t": 108978.71999999984,
      "d": 74.40416666665988,
      "v": 59
    },
    {
      "midi": 86,
      "hit": false,
      "t": 108978.71999999984,
      "d": 80.7816666666622,
      "v": 86
    },
    {
      "midi": 90,
      "hit": false,
      "t": 108978.71999999984,
      "d": 82.90750000000116,
      "v": 94
    },
    {
      "midi": 59,
      "hit": false,
      "t": 108978.71999999984,
      "d": 102.04000000000815,
      "v": 83
    },
    {
      "midi": 62,
      "hit": false,
      "t": 108978.71999999984,
      "d": 106.29166666667152,
      "v": 83
    },
    {
      "midi": 47,
      "hit": false,
      "t": 108978.71999999984,
      "d": 129.67583333334187,
      "v": 83
    },
    {
      "midi": 38,
      "hit": false,
      "t": 108978.71999999984,
      "d": 148.80833333334886,
      "v": 83
    },
    {
      "midi": 38,
      "hit": false,
      "t": 109182.79999999986,
      "d": 57.3975000000064,
      "v": 83
    },
    {
      "midi": 81,
      "hit": false,
      "t": 109182.79999999986,
      "d": 63.77500000000873,
      "v": 59
    },
    {
      "midi": 86,
      "hit": false,
      "t": 109182.79999999986,
      "d": 63.77500000000873,
      "v": 86
    },
    {
      "midi": 90,
      "hit": false,
      "t": 109182.79999999986,
      "d": 70.15250000001106,
      "v": 94
    },
    {
      "midi": 45,
      "hit": false,
      "t": 109182.79999999986,
      "d": 97.78833333334478,
      "v": 83
    },
    {
      "midi": 62,
      "hit": false,
      "t": 109182.79999999986,
      "d": 123.29833333333954,
      "v": 83
    },
    {
      "midi": 57,
      "hit": false,
      "t": 109182.79999999986,
      "d": 129.67583333334187,
      "v": 83
    },
    {
      "midi": 81,
      "hit": false,
      "t": 109386.87999999986,
      "d": 57.3975000000064,
      "v": 55
    },
    {
      "midi": 90,
      "hit": false,
      "t": 109386.87999999986,
      "d": 70.15250000001106,
      "v": 103
    },
    {
      "midi": 86,
      "hit": false,
      "t": 109386.87999999986,
      "d": 72.27833333335002,
      "v": 90
    },
    {
      "midi": 45,
      "hit": false,
      "t": 109386.87999999986,
      "d": 102.0400000000227,
      "v": 83
    },
    {
      "midi": 38,
      "hit": false,
      "t": 109386.87999999986,
      "d": 123.2983333333541,
      "v": 83
    },
    {
      "midi": 57,
      "hit": false,
      "t": 109386.87999999986,
      "d": 123.2983333333541,
      "v": 83
    },
    {
      "midi": 62,
      "hit": false,
      "t": 109386.87999999986,
      "d": 125.42416666669305,
      "v": 83
    },
    {
      "midi": 81,
      "hit": false,
      "t": 109590.95999999989,
      "d": 59.52333333333081,
      "v": 53
    },
    {
      "midi": 86,
      "hit": false,
      "t": 109590.95999999989,
      "d": 65.90083333333314,
      "v": 86
    },
    {
      "midi": 90,
      "hit": false,
      "t": 109590.95999999989,
      "d": 68.0266666666721,
      "v": 90
    },
    {
      "midi": 62,
      "hit": false,
      "t": 109590.95999999989,
      "d": 104.16583333333256,
      "v": 83
    },
    {
      "midi": 38,
      "hit": false,
      "t": 109590.95999999989,
      "d": 119.04666666666162,
      "v": 83
    },
    {
      "midi": 57,
      "hit": false,
      "t": 109590.95999999989,
      "d": 119.04666666666162,
      "v": 83
    },
    {
      "midi": 45,
      "hit": false,
      "t": 109590.95999999989,
      "d": 123.29833333332499,
      "v": 83
    },
    {
      "midi": 81,
      "hit": false,
      "t": 109795.03999999988,
      "d": 55.27166666666744,
      "v": 46
    },
    {
      "midi": 86,
      "hit": false,
      "t": 109795.03999999988,
      "d": 65.90083333333314,
      "v": 86
    },
    {
      "midi": 90,
      "hit": false,
      "t": 109795.03999999988,
      "d": 72.27833333333547,
      "v": 90
    },
    {
      "midi": 59,
      "hit": false,
      "t": 109795.03999999988,
      "d": 121.17250000000058,
      "v": 83
    },
    {
      "midi": 62,
      "hit": false,
      "t": 109795.03999999988,
      "d": 125.42416666666395,
      "v": 83
    },
    {
      "midi": 47,
      "hit": false,
      "t": 109795.03999999988,
      "d": 144.55666666667094,
      "v": 83
    },
    {
      "midi": 38,
      "hit": false,
      "t": 109795.03999999988,
      "d": 331.6299999999901,
      "v": 83
    },
    {
      "midi": 81,
      "hit": false,
      "t": 109999.11999999988,
      "d": 36.13916666666046,
      "v": 46
    },
    {
      "midi": 86,
      "hit": false,
      "t": 109999.11999999988,
      "d": 65.90083333333314,
      "v": 78
    },
    {
      "midi": 90,
      "hit": false,
      "t": 109999.11999999988,
      "d": 74.40416666665988,
      "v": 94
    },
    {
      "midi": 45,
      "hit": false,
      "t": 109999.11999999988,
      "d": 102.0399999999936,
      "v": 83
    },
    {
      "midi": 62,
      "hit": false,
      "t": 109999.11999999988,
      "d": 110.54333333332033,
      "v": 83
    },
    {
      "midi": 57,
      "hit": false,
      "t": 109999.11999999988,
      "d": 129.67583333332732,
      "v": 83
    },
    {
      "midi": 81,
      "hit": false,
      "t": 110203.19999999987,
      "d": 65.90083333333314,
      "v": 56
    },
    {
      "midi": 86,
      "hit": false,
      "t": 110203.19999999987,
      "d": 70.15249999999651,
      "v": 90
    },
    {
      "midi": 90,
      "hit": false,
      "t": 110203.19999999987,
      "d": 78.65583333332324,
      "v": 103
    },
    {
      "midi": 45,
      "hit": false,
      "t": 110203.19999999987,
      "d": 89.28499999998894,
      "v": 83
    },
    {
      "midi": 62,
      "hit": false,
      "t": 110203.19999999987,
      "d": 102.0399999999936,
      "v": 83
    },
    {
      "midi": 57,
      "hit": false,
      "t": 110203.19999999987,
      "d": 119.04666666666162,
      "v": 83
    },
    {
      "midi": 38,
      "hit": false,
      "t": 110203.19999999987,
      "d": 129.67583333332732,
      "v": 83
    },
    {
      "midi": 81,
      "hit": false,
      "t": 110407.27999999985,
      "d": 27.63583333333372,
      "v": 46
    },
    {
      "midi": 86,
      "hit": false,
      "t": 110407.27999999985,
      "d": 68.0266666666721,
      "v": 78
    },
    {
      "midi": 90,
      "hit": false,
      "t": 110407.27999999985,
      "d": 80.78166666667676,
      "v": 90
    },
    {
      "midi": 38,
      "hit": false,
      "t": 110407.27999999985,
      "d": 99.91416666668374,
      "v": 83
    },
    {
      "midi": 45,
      "hit": false,
      "t": 110407.27999999985,
      "d": 112.6691666666884,
      "v": 83
    },
    {
      "midi": 62,
      "hit": false,
      "t": 110407.27999999985,
      "d": 116.92083333335177,
      "v": 83
    },
    {
      "midi": 57,
      "hit": false,
      "t": 110407.27999999985,
      "d": 127.55000000001746,
      "v": 83
    },
    {
      "midi": 81,
      "hit": false,
      "t": 110611.35999999987,
      "d": 40.39083333333838,
      "v": 56
    },
    {
      "midi": 86,
      "hit": false,
      "t": 110611.35999999987,
      "d": 80.78166666667676,
      "v": 90
    },
    {
      "midi": 90,
      "hit": false,
      "t": 110611.35999999987,
      "d": 85.03333333334012,
      "v": 94
    },
    {
      "midi": 47,
      "hit": false,
      "t": 110611.35999999987,
      "d": 119.04666666667617,
      "v": 83
    },
    {
      "midi": 59,
      "hit": false,
      "t": 110611.35999999987,
      "d": 123.29833333333954,
      "v": 83
    },
    {
      "midi": 62,
      "hit": false,
      "t": 110611.35999999987,
      "d": 125.4241666666785,
      "v": 83
    },
    {
      "midi": 38,
      "hit": false,
      "t": 110611.35999999987,
      "d": 150.93416666667326,
      "v": 83
    },
    {
      "midi": 81,
      "hit": false,
      "t": 110815.43999999987,
      "d": 63.77499999999418,
      "v": 59
    },
    {
      "midi": 62,
      "hit": false,
      "t": 110815.43999999987,
      "d": 65.90083333333314,
      "v": 83
    },
    {
      "midi": 86,
      "hit": false,
      "t": 110815.43999999987,
      "d": 78.6558333333378,
      "v": 86
    },
    {
      "midi": 45,
      "hit": false,
      "t": 110815.43999999987,
      "d": 80.78166666667676,
      "v": 83
    },
    {
      "midi": 90,
      "hit": false,
      "t": 110815.43999999987,
      "d": 93.53666666668141,
      "v": 103
    },
    {
      "midi": 57,
      "hit": false,
      "t": 110815.43999999987,
      "d": 119.04666666667617,
      "v": 83
    },
    {
      "midi": 83,
      "hit": false,
      "t": 111019.51999999989,
      "d": 51.020000000004075,
      "v": 78
    },
    {
      "midi": 86,
      "hit": false,
      "t": 111019.51999999989,
      "d": 65.90083333333314,
      "v": 90
    },
    {
      "midi": 62,
      "hit": false,
      "t": 111019.51999999989,
      "d": 97.78833333333023,
      "v": 83
    },
    {
      "midi": 55,
      "hit": false,
      "t": 111019.51999999989,
      "d": 99.91416666666919,
      "v": 83
    },
    {
      "midi": 50,
      "hit": false,
      "t": 111019.51999999989,
      "d": 102.04000000000815,
      "v": 83
    },
    {
      "midi": 91,
      "hit": false,
      "t": 111019.51999999989,
      "d": 108.41750000001048,
      "v": 103
    },
    {
      "midi": 43,
      "hit": false,
      "t": 111019.51999999989,
      "d": 125.4241666666785,
      "v": 83
    },
    {
      "midi": 43,
      "hit": false,
      "t": 111223.5999999999,
      "d": 25.50999999999476,
      "v": 83
    },
    {
      "midi": 86,
      "hit": false,
      "t": 111223.5999999999,
      "d": 68.02666666665755,
      "v": 90
    },
    {
      "midi": 83,
      "hit": false,
      "t": 111223.5999999999,
      "d": 74.40416666665988,
      "v": 62
    },
    {
      "midi": 91,
      "hit": false,
      "t": 111223.5999999999,
      "d": 82.90749999998661,
      "v": 90
    },
    {
      "midi": 55,
      "hit": false,
      "t": 111223.5999999999,
      "d": 97.78833333331568,
      "v": 83
    },
    {
      "midi": 62,
      "hit": false,
      "t": 111223.5999999999,
      "d": 114.7949999999837,
      "v": 83
    },
    {
      "midi": 50,
      "hit": false,
      "t": 111223.5999999999,
      "d": 121.17249999998603,
      "v": 83
    },
    {
      "midi": 86,
      "hit": false,
      "t": 111427.67999999989,
      "d": 70.15249999999651,
      "v": 86
    },
    {
      "midi": 83,
      "hit": false,
      "t": 111427.67999999989,
      "d": 74.40416666665988,
      "v": 60
    },
    {
      "midi": 91,
      "hit": false,
      "t": 111427.67999999989,
      "d": 97.78833333333023,
      "v": 94
    },
    {
      "midi": 55,
      "hit": false,
      "t": 111427.67999999989,
      "d": 102.0399999999936,
      "v": 83
    },
    {
      "midi": 64,
      "hit": false,
      "t": 111427.67999999989,
      "d": 108.41749999999593,
      "v": 83
    },
    {
      "midi": 43,
      "hit": false,
      "t": 111427.67999999989,
      "d": 142.43083333333198,
      "v": 83
    },
    {
      "midi": 52,
      "hit": false,
      "t": 111427.67999999989,
      "d": 153.05999999999767,
      "v": 83
    },
    {
      "midi": 86,
      "hit": false,
      "t": 111631.7599999999,
      "d": 70.15249999999651,
      "v": 82
    },
    {
      "midi": 50,
      "hit": false,
      "t": 111631.7599999999,
      "d": 72.27833333333547,
      "v": 83
    },
    {
      "midi": 83,
      "hit": false,
      "t": 111631.7599999999,
      "d": 72.27833333333547,
      "v": 61
    },
    {
      "midi": 91,
      "hit": false,
      "t": 111631.7599999999,
      "d": 85.03333333334012,
      "v": 94
    },
    {
      "midi": 55,
      "hit": false,
      "t": 111631.7599999999,
      "d": 91.41083333334245,
      "v": 83
    },
    {
      "midi": 62,
      "hit": false,
      "t": 111631.7599999999,
      "d": 91.41083333334245,
      "v": 83
    },
    {
      "midi": 86,
      "hit": false,
      "t": 111835.83999999991,
      "d": 70.15249999999651,
      "v": 90
    },
    {
      "midi": 83,
      "hit": false,
      "t": 111835.83999999991,
      "d": 80.7816666666622,
      "v": 62
    },
    {
      "midi": 55,
      "hit": false,
      "t": 111835.83999999991,
      "d": 93.53666666666686,
      "v": 83
    },
    {
      "midi": 50,
      "hit": false,
      "t": 111835.83999999991,
      "d": 97.78833333333023,
      "v": 83
    },
    {
      "midi": 91,
      "hit": false,
      "t": 111835.83999999991,
      "d": 97.78833333333023,
      "v": 90
    },
    {
      "midi": 43,
      "hit": false,
      "t": 111835.83999999991,
      "d": 106.29166666665697,
      "v": 83
    },
    {
      "midi": 62,
      "hit": false,
      "t": 111835.83999999991,
      "d": 108.41749999999593,
      "v": 83
    },
    {
      "midi": 43,
      "hit": false,
      "t": 112039.91999999991,
      "d": 57.3975000000064,
      "v": 83
    },
    {
      "midi": 83,
      "hit": false,
      "t": 112039.91999999991,
      "d": 68.0266666666721,
      "v": 50
    },
    {
      "midi": 86,
      "hit": false,
      "t": 112039.91999999991,
      "d": 68.0266666666721,
      "v": 82
    },
    {
      "midi": 55,
      "hit": false,
      "t": 112039.91999999991,
      "d": 91.41083333334245,
      "v": 83
    },
    {
      "midi": 91,
      "hit": false,
      "t": 112039.91999999991,
      "d": 91.41083333334245,
      "v": 86
    },
    {
      "midi": 62,
      "hit": false,
      "t": 112039.91999999991,
      "d": 104.16583333334711,
      "v": 83
    },
    {
      "midi": 50,
      "hit": false,
      "t": 112039.91999999991,
      "d": 110.54333333334944,
      "v": 83
    },
    {
      "midi": 86,
      "hit": false,
      "t": 112243.99999999993,
      "d": 72.27833333333547,
      "v": 82
    },
    {
      "midi": 83,
      "hit": false,
      "t": 112243.99999999993,
      "d": 91.41083333334245,
      "v": 70
    },
    {
      "midi": 91,
      "hit": false,
      "t": 112243.99999999993,
      "d": 102.04000000000815,
      "v": 94
    },
    {
      "midi": 55,
      "hit": false,
      "t": 112243.99999999993,
      "d": 114.7950000000128,
      "v": 83
    },
    {
      "midi": 64,
      "hit": false,
      "t": 112243.99999999993,
      "d": 116.92083333335177,
      "v": 83
    },
    {
      "midi": 43,
      "hit": false,
      "t": 112243.99999999993,
      "d": 140.30500000002212,
      "v": 83
    },
    {
      "midi": 52,
      "hit": false,
      "t": 112243.99999999993,
      "d": 140.30500000002212,
      "v": 83
    },
    {
      "midi": 43,
      "hit": false,
      "t": 112448.07999999994,
      "d": 40.39083333333838,
      "v": 83
    },
    {
      "midi": 86,
      "hit": false,
      "t": 112448.07999999994,
      "d": 68.0266666666721,
      "v": 82
    },
    {
      "midi": 83,
      "hit": false,
      "t": 112448.07999999994,
      "d": 76.52999999999884,
      "v": 55
    },
    {
      "midi": 50,
      "hit": false,
      "t": 112448.07999999994,
      "d": 91.4108333333279,
      "v": 83
    },
    {
      "midi": 91,
      "hit": false,
      "t": 112448.07999999994,
      "d": 102.0399999999936,
      "v": 86
    },
    {
      "midi": 62,
      "hit": false,
      "t": 112448.07999999994,
      "d": 116.92083333332266,
      "v": 83
    },
    {
      "midi": 55,
      "hit": false,
      "t": 112448.07999999994,
      "d": 119.04666666666162,
      "v": 83
    },
    {
      "midi": 86,
      "hit": false,
      "t": 112652.15999999995,
      "d": 72.27833333333547,
      "v": 90
    },
    {
      "midi": 83,
      "hit": false,
      "t": 112652.15999999995,
      "d": 93.53666666666686,
      "v": 61
    },
    {
      "midi": 91,
      "hit": false,
      "t": 112652.15999999995,
      "d": 104.16583333333256,
      "v": 90
    },
    {
      "midi": 43,
      "hit": false,
      "t": 112652.15999999995,
      "d": 110.54333333333489,
      "v": 83
    },
    {
      "midi": 50,
      "hit": false,
      "t": 112652.15999999995,
      "d": 110.54333333333489,
      "v": 83
    },
    {
      "midi": 55,
      "hit": false,
      "t": 112652.15999999995,
      "d": 110.54333333333489,
      "v": 83
    },
    {
      "midi": 62,
      "hit": false,
      "t": 112652.15999999995,
      "d": 112.66916666667385,
      "v": 83
    },
    {
      "midi": 86,
      "hit": false,
      "t": 112856.23999999995,
      "d": 65.90083333333314,
      "v": 90
    },
    {
      "midi": 83,
      "hit": false,
      "t": 112856.23999999995,
      "d": 82.90750000000116,
      "v": 59
    },
    {
      "midi": 43,
      "hit": false,
      "t": 112856.23999999995,
      "d": 85.03333333334012,
      "v": 83
    },
    {
      "midi": 91,
      "hit": false,
      "t": 112856.23999999995,
      "d": 87.15916666667908,
      "v": 90
    },
    {
      "midi": 55,
      "hit": false,
      "t": 112856.23999999995,
      "d": 95.66250000000582,
      "v": 83
    },
    {
      "midi": 62,
      "hit": false,
      "t": 112856.23999999995,
      "d": 104.16583333333256,
      "v": 83
    },
    {
      "midi": 50,
      "hit": false,
      "t": 112856.23999999995,
      "d": 114.79499999999825,
      "v": 83
    },
    {
      "midi": 86,
      "hit": false,
      "t": 113060.31999999995,
      "d": 74.40416666665988,
      "v": 90
    },
    {
      "midi": 55,
      "hit": false,
      "t": 113060.31999999995,
      "d": 82.90749999998661,
      "v": 83
    },
    {
      "midi": 64,
      "hit": false,
      "t": 113060.31999999995,
      "d": 104.165833333318,
      "v": 83
    },
    {
      "midi": 91,
      "hit": false,
      "t": 113060.31999999995,
      "d": 104.165833333318,
      "v": 90
    },
    {
      "midi": 83,
      "hit": false,
      "t": 113060.31999999995,
      "d": 114.7949999999837,
      "v": 70
    },
    {
      "midi": 52,
      "hit": false,
      "t": 113060.31999999995,
      "d": 136.0533333333151,
      "v": 83
    },
    {
      "midi": 43,
      "hit": false,
      "t": 113060.31999999995,
      "d": 142.43083333331742,
      "v": 83
    },
    {
      "midi": 86,
      "hit": false,
      "t": 113264.39999999994,
      "d": 68.0266666666721,
      "v": 86
    },
    {
      "midi": 83,
      "hit": false,
      "t": 113264.39999999994,
      "d": 87.15916666667908,
      "v": 60
    },
    {
      "midi": 43,
      "hit": false,
      "t": 113264.39999999994,
      "d": 93.53666666668141,
      "v": 83
    },
    {
      "midi": 91,
      "hit": false,
      "t": 113264.39999999994,
      "d": 97.78833333334478,
      "v": 86
    },
    {
      "midi": 50,
      "hit": false,
      "t": 113264.39999999994,
      "d": 106.29166666667152,
      "v": 83
    },
    {
      "midi": 55,
      "hit": false,
      "t": 113264.39999999994,
      "d": 331.6299999999901,
      "v": 83
    },
    {
      "midi": 62,
      "hit": false,
      "t": 113264.39999999994,
      "d": 338.00749999999243,
      "v": 83
    },
    {
      "midi": 86,
      "hit": false,
      "t": 113468.47999999994,
      "d": 80.7816666666622,
      "v": 86
    },
    {
      "midi": 83,
      "hit": false,
      "t": 113468.47999999994,
      "d": 106.29166666665697,
      "v": 59
    },
    {
      "midi": 91,
      "hit": false,
      "t": 113468.47999999994,
      "d": 114.7949999999837,
      "v": 86
    },
    {
      "midi": 50,
      "hit": false,
      "t": 113468.47999999994,
      "d": 121.17249999998603,
      "v": 83
    },
    {
      "midi": 43,
      "hit": false,
      "t": 113468.47999999994,
      "d": 131.80166666665173,
      "v": 83
    },
    {
      "midi": 86,
      "hit": false,
      "t": 113672.55999999992,
      "d": 63.77499999999418,
      "v": 74
    },
    {
      "midi": 83,
      "hit": false,
      "t": 113672.55999999992,
      "d": 70.15249999999651,
      "v": 62
    },
    {
      "midi": 55,
      "hit": false,
      "t": 113672.55999999992,
      "d": 85.03333333332557,
      "v": 83
    },
    {
      "midi": 62,
      "hit": false,
      "t": 113672.55999999992,
      "d": 93.53666666665231,
      "v": 83
    },
    {
      "midi": 91,
      "hit": false,
      "t": 113672.55999999992,
      "d": 104.165833333318,
      "v": 86
    },
    {
      "midi": 43,
      "hit": false,
      "t": 113672.55999999992,
      "d": 108.41749999998137,
      "v": 83
    },
    {
      "midi": 50,
      "hit": false,
      "t": 113672.55999999992,
      "d": 110.54333333332033,
      "v": 83
    },
    {
      "midi": 86,
      "hit": false,
      "t": 113876.63999999991,
      "d": 70.15249999999651,
      "v": 90
    },
    {
      "midi": 83,
      "hit": false,
      "t": 113876.63999999991,
      "d": 82.90750000000116,
      "v": 66
    },
    {
      "midi": 55,
      "hit": false,
      "t": 113876.63999999991,
      "d": 89.28500000000349,
      "v": 83
    },
    {
      "midi": 64,
      "hit": false,
      "t": 113876.63999999991,
      "d": 97.78833333333023,
      "v": 83
    },
    {
      "midi": 91,
      "hit": false,
      "t": 113876.63999999991,
      "d": 99.91416666666919,
      "v": 94
    },
    {
      "midi": 43,
      "hit": false,
      "t": 113876.63999999991,
      "d": 110.54333333333489,
      "v": 83
    },
    {
      "midi": 52,
      "hit": false,
      "t": 113876.63999999991,
      "d": 114.79499999999825,
      "v": 83
    },
    {
      "midi": 86,
      "hit": false,
      "t": 114080.71999999991,
      "d": 59.52333333333081,
      "v": 90
    },
    {
      "midi": 83,
      "hit": false,
      "t": 114080.71999999991,
      "d": 63.77499999999418,
      "v": 74
    },
    {
      "midi": 55,
      "hit": false,
      "t": 114080.71999999991,
      "d": 72.27833333332092,
      "v": 83
    },
    {
      "midi": 91,
      "hit": false,
      "t": 114080.71999999991,
      "d": 87.15916666664998,
      "v": 94
    },
    {
      "midi": 62,
      "hit": false,
      "t": 114080.71999999991,
      "d": 89.28499999998894,
      "v": 83
    },
    {
      "midi": 43,
      "hit": false,
      "t": 114080.71999999991,
      "d": 95.66249999999127,
      "v": 83
    },
    {
      "midi": 50,
      "hit": false,
      "t": 114080.71999999991,
      "d": 102.0399999999936,
      "v": 83
    },
    {
      "midi": 86,
      "hit": false,
      "t": 133077.16666666657,
      "d": 40.39083333333838,
      "v": 103
    },
    {
      "midi": 83,
      "hit": false,
      "t": 133077.16666666657,
      "d": 53.145833333343035,
      "v": 94
    },
    {
      "midi": 91,
      "hit": false,
      "t": 133077.16666666657,
      "d": 68.0266666666721,
      "v": 121
    },
    {
      "midi": 55,
      "hit": false,
      "t": 133077.16666666657,
      "d": 80.78166666667676,
      "v": 75
    },
    {
      "midi": 43,
      "hit": false,
      "t": 133077.16666666657,
      "d": 97.78833333333023,
      "v": 75
    },
    {
      "midi": 62,
      "hit": false,
      "t": 133077.16666666657,
      "d": 99.91416666665464,
      "v": 75
    },
    {
      "midi": 50,
      "hit": false,
      "t": 133077.16666666657,
      "d": 102.03999999997905,
      "v": 75
    },
    {
      "midi": 43,
      "hit": false,
      "t": 133264.23999999987,
      "d": 27.63583333333372,
      "v": 75
    },
    {
      "midi": 86,
      "hit": false,
      "t": 133264.23999999987,
      "d": 51.01999999998952,
      "v": 90
    },
    {
      "midi": 83,
      "hit": false,
      "t": 133264.23999999987,
      "d": 59.52333333331626,
      "v": 78
    },
    {
      "midi": 91,
      "hit": false,
      "t": 133264.23999999987,
      "d": 68.026666666643,
      "v": 103
    },
    {
      "midi": 55,
      "hit": false,
      "t": 133264.23999999987,
      "d": 114.7949999999837,
      "v": 75
    },
    {
      "midi": 62,
      "hit": false,
      "t": 133264.23999999987,
      "d": 116.92083333330811,
      "v": 75
    },
    {
      "midi": 50,
      "hit": false,
      "t": 133264.23999999987,
      "d": 121.17249999998603,
      "v": 75
    },
    {
      "midi": 43,
      "hit": false,
      "t": 133468.31999999986,
      "d": 104.16583333333256,
      "v": 75
    },
    {
      "midi": 55,
      "hit": false,
      "t": 133468.31999999986,
      "d": 110.54333333333489,
      "v": 75
    },
    {
      "midi": 52,
      "hit": false,
      "t": 133468.31999999986,
      "d": 127.54999999998836,
      "v": 75
    },
    {
      "midi": 64,
      "hit": false,
      "t": 133468.31999999986,
      "d": 136.0533333333151,
      "v": 75
    },
    {
      "midi": 86,
      "hit": false,
      "t": 133485.32666666651,
      "d": 46.768333333340706,
      "v": 90
    },
    {
      "midi": 83,
      "hit": false,
      "t": 133485.32666666651,
      "d": 65.90083333334769,
      "v": 82
    },
    {
      "midi": 91,
      "hit": false,
      "t": 133485.32666666651,
      "d": 70.15250000002561,
      "v": 103
    },
    {
      "midi": 86,
      "hit": false,
      "t": 133672.39999999985,
      "d": 46.768333333340706,
      "v": 86
    },
    {
      "midi": 83,
      "hit": false,
      "t": 133672.39999999985,
      "d": 59.52333333334536,
      "v": 70
    },
    {
      "midi": 91,
      "hit": false,
      "t": 133672.39999999985,
      "d": 61.64916666666977,
      "v": 103
    },
    {
      "midi": 50,
      "hit": false,
      "t": 133672.39999999985,
      "d": 76.52999999999884,
      "v": 75
    },
    {
      "midi": 62,
      "hit": false,
      "t": 133672.39999999985,
      "d": 78.65583333332324,
      "v": 75
    },
    {
      "midi": 55,
      "hit": false,
      "t": 133672.39999999985,
      "d": 91.4108333333279,
      "v": 75
    },
    {
      "midi": 43,
      "hit": false,
      "t": 133774.43999999986,
      "d": 10.629166666680248,
      "v": 75
    },
    {
      "midi": 86,
      "hit": false,
      "t": 133876.47999999986,
      "d": 55.27166666666744,
      "v": 90
    },
    {
      "midi": 83,
      "hit": false,
      "t": 133876.47999999986,
      "d": 68.0266666666721,
      "v": 74
    },
    {
      "midi": 91,
      "hit": false,
      "t": 133876.47999999986,
      "d": 68.0266666666721,
      "v": 90
    },
    {
      "midi": 43,
      "hit": false,
      "t": 133876.47999999986,
      "d": 99.91416666668374,
      "v": 75
    },
    {
      "midi": 50,
      "hit": false,
      "t": 133876.47999999986,
      "d": 106.29166666668607,
      "v": 75
    },
    {
      "midi": 55,
      "hit": false,
      "t": 133876.47999999986,
      "d": 108.41750000001048,
      "v": 75
    },
    {
      "midi": 62,
      "hit": false,
      "t": 133876.47999999986,
      "d": 121.17250000001513,
      "v": 75
    },
    {
      "midi": 43,
      "hit": false,
      "t": 134080.55999999988,
      "d": 29.76166666665813,
      "v": 75
    },
    {
      "midi": 86,
      "hit": false,
      "t": 134080.55999999988,
      "d": 53.14583333331393,
      "v": 86
    },
    {
      "midi": 83,
      "hit": false,
      "t": 134080.55999999988,
      "d": 63.77499999999418,
      "v": 70
    },
    {
      "midi": 50,
      "hit": false,
      "t": 134080.55999999988,
      "d": 110.54333333333489,
      "v": 75
    },
    {
      "midi": 55,
      "hit": false,
      "t": 134080.55999999988,
      "d": 110.54333333333489,
      "v": 75
    },
    {
      "midi": 62,
      "hit": false,
      "t": 134080.55999999988,
      "d": 112.6691666666593,
      "v": 75
    },
    {
      "midi": 91,
      "hit": false,
      "t": 134097.56666666653,
      "d": 80.78166666667676,
      "v": 94
    },
    {
      "midi": 86,
      "hit": false,
      "t": 134284.63999999987,
      "d": 57.39749999999185,
      "v": 90
    },
    {
      "midi": 83,
      "hit": false,
      "t": 134284.63999999987,
      "d": 61.64916666666977,
      "v": 78
    },
    {
      "midi": 43,
      "hit": false,
      "t": 134284.63999999987,
      "d": 99.91416666665464,
      "v": 75
    },
    {
      "midi": 55,
      "hit": false,
      "t": 134284.63999999987,
      "d": 108.41749999998137,
      "v": 75
    },
    {
      "midi": 52,
      "hit": false,
      "t": 134284.63999999987,
      "d": 123.29833333331044,
      "v": 75
    },
    {
      "midi": 64,
      "hit": false,
      "t": 134284.63999999987,
      "d": 142.43083333331742,
      "v": 75
    },
    {
      "midi": 91,
      "hit": false,
      "t": 134301.64666666652,
      "d": 80.78166666667676,
      "v": 103
    },
    {
      "midi": 83,
      "hit": false,
      "t": 134488.71999999986,
      "d": 63.77499999999418,
      "v": 82
    },
    {
      "midi": 86,
      "hit": false,
      "t": 134488.71999999986,
      "d": 65.90083333331859,
      "v": 90
    },
    {
      "midi": 50,
      "hit": false,
      "t": 134488.71999999986,
      "d": 70.15249999999651,
      "v": 75
    },
    {
      "midi": 62,
      "hit": false,
      "t": 134488.71999999986,
      "d": 80.78166666667676,
      "v": 75
    },
    {
      "midi": 43,
      "hit": false,
      "t": 134488.71999999986,
      "d": 89.28500000000349,
      "v": 75
    },
    {
      "midi": 91,
      "hit": false,
      "t": 134488.71999999986,
      "d": 89.28500000000349,
      "v": 103
    },
    {
      "midi": 55,
      "hit": false,
      "t": 134488.71999999986,
      "d": 104.16583333333256,
      "v": 75
    },
    {
      "midi": 81,
      "hit": false,
      "t": 134692.79999999984,
      "d": 23.3841666666558,
      "v": 59
    },
    {
      "midi": 86,
      "hit": false,
      "t": 134692.79999999984,
      "d": 74.40416666664532,
      "v": 90
    },
    {
      "midi": 57,
      "hit": false,
      "t": 134692.79999999984,
      "d": 80.78166666664765,
      "v": 75
    },
    {
      "midi": 38,
      "hit": false,
      "t": 134692.79999999984,
      "d": 87.15916666664998,
      "v": 75
    },
    {
      "midi": 62,
      "hit": false,
      "t": 134692.79999999984,
      "d": 89.28499999997439,
      "v": 75
    },
    {
      "midi": 45,
      "hit": false,
      "t": 134692.79999999984,
      "d": 95.66249999997672,
      "v": 75
    },
    {
      "midi": 90,
      "hit": false,
      "t": 134709.8066666665,
      "d": 76.52999999999884,
      "v": 94
    },
    {
      "midi": 38,
      "hit": false,
      "t": 134896.87999999983,
      "d": 31.88750000001164,
      "v": 75
    },
    {
      "midi": 81,
      "hit": false,
      "t": 134896.87999999983,
      "d": 42.51666666669189,
      "v": 57
    },
    {
      "midi": 86,
      "hit": false,
      "t": 134896.87999999983,
      "d": 55.27166666669655,
      "v": 74
    },
    {
      "midi": 90,
      "hit": false,
      "t": 134896.87999999983,
      "d": 68.0266666667012,
      "v": 86
    },
    {
      "midi": 57,
      "hit": false,
      "t": 134896.87999999983,
      "d": 89.2850000000326,
      "v": 75
    },
    {
      "midi": 62,
      "hit": false,
      "t": 134896.87999999983,
      "d": 97.78833333335933,
      "v": 75
    },
    {
      "midi": 45,
      "hit": false,
      "t": 134896.87999999983,
      "d": 104.16583333336166,
      "v": 75
    },
    {
      "midi": 59,
      "hit": false,
      "t": 135100.95999999985,
      "d": 99.91416666665464,
      "v": 75
    },
    {
      "midi": 47,
      "hit": false,
      "t": 135100.95999999985,
      "d": 106.29166666665697,
      "v": 75
    },
    {
      "midi": 62,
      "hit": false,
      "t": 135100.95999999985,
      "d": 108.41749999998137,
      "v": 75
    },
    {
      "midi": 38,
      "hit": false,
      "t": 135100.95999999985,
      "d": 110.54333333330578,
      "v": 75
    },
    {
      "midi": 86,
      "hit": false,
      "t": 135117.9666666665,
      "d": 61.64916666666977,
      "v": 90
    },
    {
      "midi": 81,
      "hit": false,
      "t": 135117.9666666665,
      "d": 76.52999999999884,
      "v": 62
    },
    {
      "midi": 90,
      "hit": false,
      "t": 135117.9666666665,
      "d": 78.65583333332324,
      "v": 94
    },
    {
      "midi": 38,
      "hit": false,
      "t": 135305.0399999998,
      "d": 23.3841666666558,
      "v": 75
    },
    {
      "midi": 81,
      "hit": false,
      "t": 135305.0399999998,
      "d": 59.52333333331626,
      "v": 61
    },
    {
      "midi": 86,
      "hit": false,
      "t": 135305.0399999998,
      "d": 61.64916666664067,
      "v": 78
    },
    {
      "midi": 90,
      "hit": false,
      "t": 135305.0399999998,
      "d": 70.1524999999674,
      "v": 94
    },
    {
      "midi": 45,
      "hit": false,
      "t": 135305.0399999998,
      "d": 74.40416666664532,
      "v": 75
    },
    {
      "midi": 57,
      "hit": false,
      "t": 135305.0399999998,
      "d": 97.78833333330113,
      "v": 75
    },
    {
      "midi": 62,
      "hit": false,
      "t": 135305.0399999998,
      "d": 108.41749999998137,
      "v": 75
    },
    {
      "midi": 86,
      "hit": false,
      "t": 135509.1199999998,
      "d": 72.27833333332092,
      "v": 90
    },
    {
      "midi": 81,
      "hit": false,
      "t": 135509.1199999998,
      "d": 82.90750000000116,
      "v": 59
    },
    {
      "midi": 38,
      "hit": false,
      "t": 135509.1199999998,
      "d": 87.15916666667908,
      "v": 75
    },
    {
      "midi": 57,
      "hit": false,
      "t": 135509.1199999998,
      "d": 93.53666666668141,
      "v": 75
    },
    {
      "midi": 45,
      "hit": false,
      "t": 135509.1199999998,
      "d": 95.66250000000582,
      "v": 75
    },
    {
      "midi": 62,
      "hit": false,
      "t": 135509.1199999998,
      "d": 97.78833333333023,
      "v": 75
    },
    {
      "midi": 90,
      "hit": false,
      "t": 135526.12666666645,
      "d": 65.90083333334769,
      "v": 90
    },
    {
      "midi": 38,
      "hit": false,
      "t": 135713.19999999978,
      "d": 76.52999999999884,
      "v": 75
    },
    {
      "midi": 62,
      "hit": false,
      "t": 135713.19999999978,
      "d": 82.90750000000116,
      "v": 75
    },
    {
      "midi": 45,
      "hit": false,
      "t": 135713.19999999978,
      "d": 93.53666666668141,
      "v": 75
    },
    {
      "midi": 57,
      "hit": false,
      "t": 135713.19999999978,
      "d": 110.54333333333489,
      "v": 75
    },
    {
      "midi": 81,
      "hit": false,
      "t": 135730.20666666643,
      "d": 63.77500000002328,
      "v": 66
    },
    {
      "midi": 86,
      "hit": false,
      "t": 135730.20666666643,
      "d": 65.90083333334769,
      "v": 94
    },
    {
      "midi": 90,
      "hit": false,
      "t": 135730.20666666643,
      "d": 72.27833333335002,
      "v": 103
    },
    {
      "midi": 47,
      "hit": false,
      "t": 135917.27999999977,
      "d": 53.145833333343035,
      "v": 75
    },
    {
      "midi": 81,
      "hit": false,
      "t": 135917.27999999977,
      "d": 59.52333333334536,
      "v": 61
    },
    {
      "midi": 86,
      "hit": false,
      "t": 135917.27999999977,
      "d": 68.0266666666721,
      "v": 90
    },
    {
      "midi": 90,
      "hit": false,
      "t": 135917.27999999977,
      "d": 80.78166666667676,
      "v": 94
    },
    {
      "midi": 59,
      "hit": false,
      "t": 135917.27999999977,
      "d": 95.66250000000582,
      "v": 75
    },
    {
      "midi": 62,
      "hit": false,
      "t": 135917.27999999977,
      "d": 112.6691666666884,
      "v": 75
    },
    {
      "midi": 38,
      "hit": false,
      "t": 135917.27999999977,
      "d": 225.3383333333477,
      "v": 75
    },
    {
      "midi": 45,
      "hit": false,
      "t": 136019.31999999977,
      "d": 89.28500000000349,
      "v": 75
    },
    {
      "midi": 86,
      "hit": false,
      "t": 136121.35999999978,
      "d": 63.77499999999418,
      "v": 70
    },
    {
      "midi": 90,
      "hit": false,
      "t": 136121.35999999978,
      "d": 78.65583333332324,
      "v": 86
    },
    {
      "midi": 62,
      "hit": false,
      "t": 136121.35999999978,
      "d": 85.03333333332557,
      "v": 75
    },
    {
      "midi": 81,
      "hit": false,
      "t": 136121.35999999978,
      "d": 85.03333333332557,
      "v": 61
    },
    {
      "midi": 57,
      "hit": false,
      "t": 136121.35999999978,
      "d": 93.53666666665231,
      "v": 75
    },
    {
      "midi": 86,
      "hit": false,
      "t": 136325.43999999977,
      "d": 74.40416666667443,
      "v": 90
    },
    {
      "midi": 83,
      "hit": false,
      "t": 136325.43999999977,
      "d": 78.65583333335235,
      "v": 78
    },
    {
      "midi": 50,
      "hit": false,
      "t": 136325.43999999977,
      "d": 80.78166666667676,
      "v": 75
    },
    {
      "midi": 91,
      "hit": false,
      "t": 136325.43999999977,
      "d": 82.90750000000116,
      "v": 94
    },
    {
      "midi": 55,
      "hit": false,
      "t": 136325.43999999977,
      "d": 91.4108333333279,
      "v": 75
    },
    {
      "midi": 62,
      "hit": false,
      "t": 136325.43999999977,
      "d": 97.78833333333023,
      "v": 75
    },
    {
      "midi": 43,
      "hit": false,
      "t": 136325.43999999977,
      "d": 102.04000000000815,
      "v": 75
    },
    {
      "midi": 43,
      "hit": false,
      "t": 136529.5199999998,
      "d": 17.006666666653473,
      "v": 75
    },
    {
      "midi": 86,
      "hit": false,
      "t": 136529.5199999998,
      "d": 57.39749999999185,
      "v": 86
    },
    {
      "midi": 55,
      "hit": false,
      "t": 136529.5199999998,
      "d": 76.52999999999884,
      "v": 75
    },
    {
      "midi": 50,
      "hit": false,
      "t": 136529.5199999998,
      "d": 85.03333333332557,
      "v": 75
    },
    {
      "midi": 83,
      "hit": false,
      "t": 136529.5199999998,
      "d": 85.03333333332557,
      "v": 66
    },
    {
      "midi": 91,
      "hit": false,
      "t": 136529.5199999998,
      "d": 87.15916666664998,
      "v": 94
    },
    {
      "midi": 62,
      "hit": false,
      "t": 136529.5199999998,
      "d": 95.66249999997672,
      "v": 75
    },
    {
      "midi": 55,
      "hit": false,
      "t": 136733.59999999977,
      "d": 87.15916666664998,
      "v": 75
    },
    {
      "midi": 43,
      "hit": false,
      "t": 136733.59999999977,
      "d": 91.4108333333279,
      "v": 75
    },
    {
      "midi": 64,
      "hit": false,
      "t": 136733.59999999977,
      "d": 102.04000000000815,
      "v": 75
    },
    {
      "midi": 52,
      "hit": false,
      "t": 136733.59999999977,
      "d": 106.29166666668607,
      "v": 75
    },
    {
      "midi": 86,
      "hit": false,
      "t": 136750.60666666643,
      "d": 55.27166666666744,
      "v": 90
    },
    {
      "midi": 83,
      "hit": false,
      "t": 136750.60666666643,
      "d": 74.40416666667443,
      "v": 74
    },
    {
      "midi": 91,
      "hit": false,
      "t": 136750.60666666643,
      "d": 85.03333333335468,
      "v": 90
    },
    {
      "midi": 86,
      "hit": false,
      "t": 136937.6799999998,
      "d": 65.90083333334769,
      "v": 86
    },
    {
      "midi": 83,
      "hit": false,
      "t": 136937.6799999998,
      "d": 74.40416666667443,
      "v": 66
    },
    {
      "midi": 50,
      "hit": false,
      "t": 136937.6799999998,
      "d": 80.78166666667676,
      "v": 75
    },
    {
      "midi": 55,
      "hit": false,
      "t": 136937.6799999998,
      "d": 80.78166666667676,
      "v": 75
    },
    {
      "midi": 62,
      "hit": false,
      "t": 136937.6799999998,
      "d": 85.03333333335468,
      "v": 75
    },
    {
      "midi": 91,
      "hit": false,
      "t": 136937.6799999998,
      "d": 85.03333333335468,
      "v": 94
    },
    {
      "midi": 43,
      "hit": false,
      "t": 137141.7599999998,
      "d": 63.77499999999418,
      "v": 75
    },
    {
      "midi": 86,
      "hit": false,
      "t": 137141.7599999998,
      "d": 63.77499999999418,
      "v": 86
    },
    {
      "midi": 83,
      "hit": false,
      "t": 137141.7599999998,
      "d": 68.0266666666721,
      "v": 66
    },
    {
      "midi": 50,
      "hit": false,
      "t": 137141.7599999998,
      "d": 85.03333333332557,
      "v": 75
    },
    {
      "midi": 91,
      "hit": false,
      "t": 137141.7599999998,
      "d": 85.03333333332557,
      "v": 94
    },
    {
      "midi": 55,
      "hit": false,
      "t": 137141.7599999998,
      "d": 89.28500000000349,
      "v": 75
    },
    {
      "midi": 62,
      "hit": false,
      "t": 137141.7599999998,
      "d": 91.4108333333279,
      "v": 75
    },
    {
      "midi": 86,
      "hit": false,
      "t": 137345.8399999998,
      "d": 59.52333333331626,
      "v": 90
    },
    {
      "midi": 83,
      "hit": false,
      "t": 137345.8399999998,
      "d": 61.64916666664067,
      "v": 74
    },
    {
      "midi": 43,
      "hit": false,
      "t": 137345.8399999998,
      "d": 65.90083333331859,
      "v": 75
    },
    {
      "midi": 50,
      "hit": false,
      "t": 137345.8399999998,
      "d": 97.78833333333023,
      "v": 75
    },
    {
      "midi": 55,
      "hit": false,
      "t": 137345.8399999998,
      "d": 99.91416666665464,
      "v": 75
    },
    {
      "midi": 62,
      "hit": false,
      "t": 137345.8399999998,
      "d": 102.03999999997905,
      "v": 75
    },
    {
      "midi": 91,
      "hit": false,
      "t": 137362.84666666645,
      "d": 80.78166666667676,
      "v": 94
    },
    {
      "midi": 86,
      "hit": false,
      "t": 137549.91999999978,
      "d": 68.0266666666721,
      "v": 90
    },
    {
      "midi": 83,
      "hit": false,
      "t": 137549.91999999978,
      "d": 76.52999999999884,
      "v": 74
    },
    {
      "midi": 91,
      "hit": false,
      "t": 137549.91999999978,
      "d": 78.65583333332324,
      "v": 103
    },
    {
      "midi": 55,
      "hit": false,
      "t": 137549.91999999978,
      "d": 80.78166666664765,
      "v": 75
    },
    {
      "midi": 43,
      "hit": false,
      "t": 137549.91999999978,
      "d": 87.15916666664998,
      "v": 75
    },
    {
      "midi": 64,
      "hit": false,
      "t": 137549.91999999978,
      "d": 95.66249999997672,
      "v": 75
    },
    {
      "midi": 52,
      "hit": false,
      "t": 137549.91999999978,
      "d": 114.7949999999837,
      "v": 75
    },
    {
      "midi": 43,
      "hit": false,
      "t": 137753.99999999977,
      "d": 17.006666666653473,
      "v": 75
    },
    {
      "midi": 83,
      "hit": false,
      "t": 137753.99999999977,
      "d": 51.01999999998952,
      "v": 61
    },
    {
      "midi": 86,
      "hit": false,
      "t": 137753.99999999977,
      "d": 68.026666666643,
      "v": 86
    },
    {
      "midi": 50,
      "hit": false,
      "t": 137753.99999999977,
      "d": 70.1524999999674,
      "v": 75
    },
    {
      "midi": 55,
      "hit": false,
      "t": 137753.99999999977,
      "d": 85.03333333329647,
      "v": 75
    },
    {
      "midi": 62,
      "hit": false,
      "t": 137753.99999999977,
      "d": 89.28499999997439,
      "v": 75
    },
    {
      "midi": 91,
      "hit": false,
      "t": 137771.00666666642,
      "d": 80.78166666664765,
      "v": 90
    },
    {
      "midi": 86,
      "hit": false,
      "t": 137958.07999999973,
      "d": 23.3841666666558,
      "v": 62
    },
    {
      "midi": 91,
      "hit": false,
      "t": 137958.07999999973,
      "d": 57.39749999999185,
      "v": 103
    },
    {
      "midi": 95,
      "hit": false,
      "t": 137958.07999999973,
      "d": 78.65583333332324,
      "v": 112
    },
    {
      "midi": 43,
      "hit": false,
      "t": 137958.07999999973,
      "d": 80.78166666664765,
      "v": 75
    },
    {
      "midi": 50,
      "hit": false,
      "t": 137958.07999999973,
      "d": 87.15916666664998,
      "v": 75
    },
    {
      "midi": 55,
      "hit": false,
      "t": 137958.07999999973,
      "d": 87.15916666664998,
      "v": 75
    },
    {
      "midi": 62,
      "hit": false,
      "t": 137958.07999999973,
      "d": 95.66249999997672,
      "v": 75
    },
    {
      "midi": 86,
      "hit": false,
      "t": 138162.1599999997,
      "d": 31.88750000001164,
      "v": 59
    },
    {
      "midi": 91,
      "hit": false,
      "t": 138162.1599999997,
      "d": 63.77500000002328,
      "v": 94
    },
    {
      "midi": 43,
      "hit": false,
      "t": 138162.1599999997,
      "d": 65.90083333334769,
      "v": 75
    },
    {
      "midi": 95,
      "hit": false,
      "t": 138162.1599999997,
      "d": 78.65583333335235,
      "v": 94
    },
    {
      "midi": 55,
      "hit": false,
      "t": 138162.1599999997,
      "d": 93.53666666668141,
      "v": 75
    },
    {
      "midi": 62,
      "hit": false,
      "t": 138162.1599999997,
      "d": 106.29166666668607,
      "v": 75
    },
    {
      "midi": 50,
      "hit": false,
      "t": 138162.1599999997,
      "d": 108.41750000001048,
      "v": 75
    },
    {
      "midi": 50,
      "hit": false,
      "t": 138366.23999999973,
      "d": 14.880833333329065,
      "v": 75
    },
    {
      "midi": 55,
      "hit": false,
      "t": 138366.23999999973,
      "d": 87.15916666664998,
      "v": 75
    },
    {
      "midi": 43,
      "hit": false,
      "t": 138366.23999999973,
      "d": 97.78833333333023,
      "v": 75
    },
    {
      "midi": 64,
      "hit": false,
      "t": 138366.23999999973,
      "d": 97.78833333333023,
      "v": 75
    },
    {
      "midi": 52,
      "hit": false,
      "t": 138366.23999999973,
      "d": 127.55000000001746,
      "v": 75
    },
    {
      "midi": 86,
      "hit": false,
      "t": 138383.24666666638,
      "d": 40.39083333333838,
      "v": 61
    },
    {
      "midi": 91,
      "hit": false,
      "t": 138383.24666666638,
      "d": 70.15249999999651,
      "v": 94
    },
    {
      "midi": 95,
      "hit": false,
      "t": 138383.24666666638,
      "d": 85.03333333335468,
      "v": 94
    },
    {
      "midi": 86,
      "hit": false,
      "t": 138570.31999999975,
      "d": 59.52333333334536,
      "v": 62
    },
    {
      "midi": 91,
      "hit": false,
      "t": 138570.31999999975,
      "d": 65.90083333334769,
      "v": 86
    },
    {
      "midi": 50,
      "hit": false,
      "t": 138570.31999999975,
      "d": 76.53000000002794,
      "v": 75
    },
    {
      "midi": 55,
      "hit": false,
      "t": 138570.31999999975,
      "d": 82.90750000003027,
      "v": 75
    },
    {
      "midi": 62,
      "hit": false,
      "t": 138570.31999999975,
      "d": 89.2850000000326,
      "v": 75
    },
    {
      "midi": 95,
      "hit": false,
      "t": 138570.31999999975,
      "d": 89.2850000000326,
      "v": 90
    },
    {
      "midi": 86,
      "hit": false,
      "t": 138774.3999999998,
      "d": 65.90083333334769,
      "v": 61
    },
    {
      "midi": 91,
      "hit": false,
      "t": 138774.3999999998,
      "d": 68.0266666666721,
      "v": 90
    },
    {
      "midi": 43,
      "hit": false,
      "t": 138774.3999999998,
      "d": 78.65583333335235,
      "v": 75
    },
    {
      "midi": 50,
      "hit": false,
      "t": 138774.3999999998,
      "d": 89.2850000000326,
      "v": 75
    },
    {
      "midi": 55,
      "hit": false,
      "t": 138774.3999999998,
      "d": 91.410833333357,
      "v": 75
    },
    {
      "midi": 95,
      "hit": false,
      "t": 138774.3999999998,
      "d": 93.53666666668141,
      "v": 94
    },
    {
      "midi": 62,
      "hit": false,
      "t": 138774.3999999998,
      "d": 95.66250000000582,
      "v": 75
    },
    {
      "midi": 43,
      "hit": false,
      "t": 138978.4799999998,
      "d": 63.77499999999418,
      "v": 75
    },
    {
      "midi": 86,
      "hit": false,
      "t": 138978.4799999998,
      "d": 70.15249999999651,
      "v": 58
    },
    {
      "midi": 91,
      "hit": false,
      "t": 138978.4799999998,
      "d": 70.15249999999651,
      "v": 86
    },
    {
      "midi": 55,
      "hit": false,
      "t": 138978.4799999998,
      "d": 95.66250000000582,
      "v": 75
    },
    {
      "midi": 95,
      "hit": false,
      "t": 138978.4799999998,
      "d": 95.66250000000582,
      "v": 90
    },
    {
      "midi": 62,
      "hit": false,
      "t": 138978.4799999998,
      "d": 97.78833333333023,
      "v": 75
    },
    {
      "midi": 50,
      "hit": false,
      "t": 138978.4799999998,
      "d": 102.04000000000815,
      "v": 75
    },
    {
      "midi": 50,
      "hit": false,
      "t": 139182.55999999982,
      "d": 12.755000000004657,
      "v": 75
    },
    {
      "midi": 55,
      "hit": false,
      "t": 139182.55999999982,
      "d": 87.15916666667908,
      "v": 75
    },
    {
      "midi": 43,
      "hit": false,
      "t": 139182.55999999982,
      "d": 93.53666666668141,
      "v": 75
    },
    {
      "midi": 64,
      "hit": false,
      "t": 139182.55999999982,
      "d": 99.91416666668374,
      "v": 75
    },
    {
      "midi": 52,
      "hit": false,
      "t": 139182.55999999982,
      "d": 104.16583333336166,
      "v": 75
    },
    {
      "midi": 91,
      "hit": false,
      "t": 139199.5666666665,
      "d": 57.39749999999185,
      "v": 94
    },
    {
      "midi": 86,
      "hit": false,
      "t": 139199.5666666665,
      "d": 68.0266666666721,
      "v": 74
    },
    {
      "midi": 95,
      "hit": false,
      "t": 139199.5666666665,
      "d": 82.90750000000116,
      "v": 94
    },
    {
      "midi": 43,
      "hit": false,
      "t": 139386.63999999984,
      "d": 63.77499999999418,
      "v": 75
    },
    {
      "midi": 55,
      "hit": false,
      "t": 139386.63999999984,
      "d": 65.90083333331859,
      "v": 75
    },
    {
      "midi": 86,
      "hit": false,
      "t": 139386.63999999984,
      "d": 68.026666666643,
      "v": 66
    },
    {
      "midi": 91,
      "hit": false,
      "t": 139386.63999999984,
      "d": 68.026666666643,
      "v": 94
    },
    {
      "midi": 50,
      "hit": false,
      "t": 139386.63999999984,
      "d": 72.27833333332092,
      "v": 75
    },
    {
      "midi": 62,
      "hit": false,
      "t": 139386.63999999984,
      "d": 93.53666666665231,
      "v": 75
    },
    {
      "midi": 95,
      "hit": false,
      "t": 139403.6466666665,
      "d": 85.03333333332557,
      "v": 94
    },
    {
      "midi": 91,
      "hit": false,
      "t": 139590.71999999983,
      "d": 55.27166666666744,
      "v": 103
    },
    {
      "midi": 88,
      "hit": false,
      "t": 139590.71999999983,
      "d": 59.52333333334536,
      "v": 90
    },
    {
      "midi": 60,
      "hit": false,
      "t": 139590.71999999983,
      "d": 72.27833333335002,
      "v": 75
    },
    {
      "midi": 67,
      "hit": false,
      "t": 139590.71999999983,
      "d": 76.53000000002794,
      "v": 75
    },
    {
      "midi": 43,
      "hit": false,
      "t": 139590.71999999983,
      "d": 80.78166666670586,
      "v": 75
    },
    {
      "midi": 96,
      "hit": false,
      "t": 139590.71999999983,
      "d": 85.03333333338378,
      "v": 103
    },
    {
      "midi": 36,
      "hit": false,
      "t": 139590.71999999983,
      "d": 102.04000000003725,
      "v": 75
    },
    {
      "midi": 36,
      "hit": false,
      "t": 139794.79999999987,
      "d": 63.77499999999418,
      "v": 75
    },
    {
      "midi": 91,
      "hit": false,
      "t": 139794.79999999987,
      "d": 65.90083333331859,
      "v": 90
    },
    {
      "midi": 88,
      "hit": false,
      "t": 139794.79999999987,
      "d": 82.90749999997206,
      "v": 70
    },
    {
      "midi": 43,
      "hit": false,
      "t": 139794.79999999987,
      "d": 91.4108333332988,
      "v": 75
    },
    {
      "midi": 96,
      "hit": false,
      "t": 139794.79999999987,
      "d": 95.66249999997672,
      "v": 103
    },
    {
      "midi": 67,
      "hit": false,
      "t": 139794.79999999987,
      "d": 108.41749999998137,
      "v": 75
    },
    {
      "midi": 60,
      "hit": false,
      "t": 139794.79999999987,
      "d": 112.6691666666593,
      "v": 75
    },
    {
      "midi": 36,
      "hit": false,
      "t": 139998.87999999986,
      "d": 87.15916666664998,
      "v": 75
    },
    {
      "midi": 45,
      "hit": false,
      "t": 139998.87999999986,
      "d": 104.16583333330345,
      "v": 75
    },
    {
      "midi": 69,
      "hit": false,
      "t": 139998.87999999986,
      "d": 106.29166666662786,
      "v": 75
    },
    {
      "midi": 60,
      "hit": false,
      "t": 139998.87999999986,
      "d": 125.42416666660574,
      "v": 75
    },
    {
      "midi": 88,
      "hit": false,
      "t": 140015.8866666665,
      "d": 59.52333333334536,
      "v": 61
    },
    {
      "midi": 91,
      "hit": false,
      "t": 140015.8866666665,
      "d": 61.64916666666977,
      "v": 86
    },
    {
      "midi": 96,
      "hit": false,
      "t": 140015.8866666665,
      "d": 91.4108333332988,
      "v": 90
    },
    {
      "midi": 88,
      "hit": false,
      "t": 140202.9599999998,
      "d": 63.77499999999418,
      "v": 62
    },
    {
      "midi": 91,
      "hit": false,
      "t": 140202.9599999998,
      "d": 68.0266666666721,
      "v": 90
    },
    {
      "midi": 60,
      "hit": false,
      "t": 140202.9599999998,
      "d": 82.90750000000116,
      "v": 75
    },
    {
      "midi": 67,
      "hit": false,
      "t": 140202.9599999998,
      "d": 87.15916666667908,
      "v": 75
    },
    {
      "midi": 96,
      "hit": false,
      "t": 140202.9599999998,
      "d": 95.66250000000582,
      "v": 90
    },
    {
      "midi": 43,
      "hit": false,
      "t": 140202.9599999998,
      "d": 104.16583333333256,
      "v": 75
    },
    {
      "midi": 91,
      "hit": false,
      "t": 140407.03999999978,
      "d": 78.65583333332324,
      "v": 86
    },
    {
      "midi": 36,
      "hit": false,
      "t": 140407.03999999978,
      "d": 82.90750000000116,
      "v": 75
    },
    {
      "midi": 43,
      "hit": false,
      "t": 140407.03999999978,
      "d": 87.15916666667908,
      "v": 75
    },
    {
      "midi": 88,
      "hit": false,
      "t": 140407.03999999978,
      "d": 87.15916666667908,
      "v": 62
    },
    {
      "midi": 67,
      "hit": false,
      "t": 140407.03999999978,
      "d": 99.91416666668374,
      "v": 75
    },
    {
      "midi": 96,
      "hit": false,
      "t": 140407.03999999978,
      "d": 106.29166666668607,
      "v": 94
    },
    {
      "midi": 60,
      "hit": false,
      "t": 140407.03999999978,
      "d": 110.54333333336399,
      "v": 75
    },
    {
      "midi": 36,
      "hit": false,
      "t": 140611.1199999998,
      "d": 51.01999999998952,
      "v": 75
    },
    {
      "midi": 43,
      "hit": false,
      "t": 140611.1199999998,
      "d": 95.66249999997672,
      "v": 75
    },
    {
      "midi": 60,
      "hit": false,
      "t": 140611.1199999998,
      "d": 95.66249999997672,
      "v": 75
    },
    {
      "midi": 67,
      "hit": false,
      "t": 140611.1199999998,
      "d": 95.66249999997672,
      "v": 75
    },
    {
      "midi": 88,
      "hit": false,
      "t": 140628.12666666645,
      "d": 57.39749999999185,
      "v": 61
    },
    {
      "midi": 91,
      "hit": false,
      "t": 140628.12666666645,
      "d": 61.64916666666977,
      "v": 86
    },
    {
      "midi": 96,
      "hit": false,
      "t": 140628.12666666645,
      "d": 82.90750000000116,
      "v": 90
    },
    {
      "midi": 91,
      "hit": false,
      "t": 140815.19999999978,
      "d": 76.52999999999884,
      "v": 90
    },
    {
      "midi": 36,
      "hit": false,
      "t": 140815.19999999978,
      "d": 85.03333333332557,
      "v": 75
    },
    {
      "midi": 60,
      "hit": false,
      "t": 140815.19999999978,
      "d": 89.28500000000349,
      "v": 75
    },
    {
      "midi": 88,
      "hit": false,
      "t": 140815.19999999978,
      "d": 89.28500000000349,
      "v": 74
    },
    {
      "midi": 96,
      "hit": false,
      "t": 140815.19999999978,
      "d": 95.66250000000582,
      "v": 94
    },
    {
      "midi": 69,
      "hit": false,
      "t": 140815.19999999978,
      "d": 97.78833333333023,
      "v": 75
    },
    {
      "midi": 45,
      "hit": false,
      "t": 140815.19999999978,
      "d": 106.29166666665697,
      "v": 75
    },
    {
      "midi": 91,
      "hit": false,
      "t": 141019.27999999977,
      "d": 70.15249999999651,
      "v": 90
    },
    {
      "midi": 88,
      "hit": false,
      "t": 141019.27999999977,
      "d": 76.52999999999884,
      "v": 66
    },
    {
      "midi": 43,
      "hit": false,
      "t": 141019.27999999977,
      "d": 78.65583333332324,
      "v": 75
    },
    {
      "midi": 96,
      "hit": false,
      "t": 141019.27999999977,
      "d": 85.03333333332557,
      "v": 94
    },
    {
      "midi": 67,
      "hit": false,
      "t": 141019.27999999977,
      "d": 89.28500000000349,
      "v": 75
    },
    {
      "midi": 60,
      "hit": false,
      "t": 141019.27999999977,
      "d": 104.16583333333256,
      "v": 75
    },
    {
      "midi": 91,
      "hit": false,
      "t": 141223.35999999975,
      "d": 68.0266666666721,
      "v": 86
    },
    {
      "midi": 88,
      "hit": false,
      "t": 141223.35999999975,
      "d": 82.90750000000116,
      "v": 74
    },
    {
      "midi": 36,
      "hit": false,
      "t": 141223.35999999975,
      "d": 89.28500000000349,
      "v": 75
    },
    {
      "midi": 43,
      "hit": false,
      "t": 141223.35999999975,
      "d": 91.4108333333279,
      "v": 75
    },
    {
      "midi": 60,
      "hit": false,
      "t": 141223.35999999975,
      "d": 102.04000000000815,
      "v": 75
    },
    {
      "midi": 67,
      "hit": false,
      "t": 141223.35999999975,
      "d": 104.16583333333256,
      "v": 75
    },
    {
      "midi": 96,
      "hit": false,
      "t": 141223.35999999975,
      "d": 110.54333333333489,
      "v": 90
    },
    {
      "midi": 36,
      "hit": false,
      "t": 141427.43999999974,
      "d": 51.01999999998952,
      "v": 75
    },
    {
      "midi": 91,
      "hit": false,
      "t": 141427.43999999974,
      "d": 59.52333333331626,
      "v": 82
    },
    {
      "midi": 88,
      "hit": false,
      "t": 141427.43999999974,
      "d": 72.27833333332092,
      "v": 62
    },
    {
      "midi": 43,
      "hit": false,
      "t": 141427.43999999974,
      "d": 89.28499999997439,
      "v": 75
    },
    {
      "midi": 60,
      "hit": false,
      "t": 141427.43999999974,
      "d": 89.28499999997439,
      "v": 75
    },
    {
      "midi": 96,
      "hit": false,
      "t": 141427.43999999974,
      "d": 89.28499999997439,
      "v": 94
    },
    {
      "midi": 67,
      "hit": false,
      "t": 141427.43999999974,
      "d": 95.66249999997672,
      "v": 75
    },
    {
      "midi": 88,
      "hit": false,
      "t": 141631.51999999973,
      "d": 78.65583333332324,
      "v": 66
    },
    {
      "midi": 60,
      "hit": false,
      "t": 141631.51999999973,
      "d": 87.15916666664998,
      "v": 75
    },
    {
      "midi": 45,
      "hit": false,
      "t": 141631.51999999973,
      "d": 104.16583333330345,
      "v": 75
    },
    {
      "midi": 69,
      "hit": false,
      "t": 141631.51999999973,
      "d": 114.7949999999546,
      "v": 75
    },
    {
      "midi": 36,
      "hit": false,
      "t": 141631.51999999973,
      "d": 116.920833333279,
      "v": 75
    },
    {
      "midi": 91,
      "hit": false,
      "t": 141648.52666666638,
      "d": 68.0266666666721,
      "v": 86
    },
    {
      "midi": 96,
      "hit": false,
      "t": 141648.52666666638,
      "d": 95.66249999997672,
      "v": 90
    },
    {
      "midi": 43,
      "hit": false,
      "t": 141835.5999999997,
      "d": 72.27833333332092,
      "v": 75
    },
    {
      "midi": 67,
      "hit": false,
      "t": 141835.5999999997,
      "d": 78.65583333332324,
      "v": 75
    },
    {
      "midi": 91,
      "hit": false,
      "t": 141835.5999999997,
      "d": 80.78166666664765,
      "v": 86
    },
    {
      "midi": 88,
      "hit": false,
      "t": 141835.5999999997,
      "d": 82.90749999997206,
      "v": 62
    },
    {
      "midi": 60,
      "hit": false,
      "t": 141835.5999999997,
      "d": 87.15916666664998,
      "v": 75
    },
    {
      "midi": 96,
      "hit": false,
      "t": 141835.5999999997,
      "d": 99.91416666665464,
      "v": 90
    },
    {
      "midi": 91,
      "hit": false,
      "t": 142039.67999999967,
      "d": 78.65583333332324,
      "v": 90
    },
    {
      "midi": 88,
      "hit": false,
      "t": 142039.67999999967,
      "d": 82.90750000000116,
      "v": 66
    },
    {
      "midi": 60,
      "hit": false,
      "t": 142039.67999999967,
      "d": 89.28500000000349,
      "v": 75
    },
    {
      "midi": 67,
      "hit": false,
      "t": 142039.67999999967,
      "d": 93.53666666668141,
      "v": 75
    },
    {
      "midi": 36,
      "hit": false,
      "t": 142039.67999999967,
      "d": 99.91416666668374,
      "v": 75
    },
    {
      "midi": 43,
      "hit": false,
      "t": 142039.67999999967,
      "d": 102.04000000000815,
      "v": 75
    },
    {
      "midi": 96,
      "hit": false,
      "t": 142056.68666666633,
      "d": 93.53666666668141,
      "v": 94
    },
    {
      "midi": 36,
      "hit": false,
      "t": 142243.75999999966,
      "d": 25.50999999998021,
      "v": 75
    },
    {
      "midi": 43,
      "hit": false,
      "t": 142243.75999999966,
      "d": 91.4108333333279,
      "v": 75
    },
    {
      "midi": 67,
      "hit": false,
      "t": 142243.75999999966,
      "d": 93.53666666665231,
      "v": 75
    },
    {
      "midi": 60,
      "hit": false,
      "t": 142243.75999999966,
      "d": 99.91416666665464,
      "v": 75
    },
    {
      "midi": 88,
      "hit": false,
      "t": 142260.7666666663,
      "d": 55.27166666666744,
      "v": 59
    },
    {
      "midi": 91,
      "hit": false,
      "t": 142260.7666666663,
      "d": 68.0266666666721,
      "v": 86
    },
    {
      "midi": 96,
      "hit": false,
      "t": 142260.7666666663,
      "d": 95.66250000000582,
      "v": 90
    },
    {
      "midi": 88,
      "hit": false,
      "t": 142447.83999999965,
      "d": 59.52333333334536,
      "v": 56
    },
    {
      "midi": 91,
      "hit": false,
      "t": 142447.83999999965,
      "d": 74.40416666667443,
      "v": 82
    },
    {
      "midi": 96,
      "hit": false,
      "t": 142447.83999999965,
      "d": 95.66250000000582,
      "v": 86
    },
    {
      "midi": 36,
      "hit": false,
      "t": 142447.83999999965,
      "d": 97.78833333333023,
      "v": 75
    },
    {
      "midi": 60,
      "hit": false,
      "t": 142447.83999999965,
      "d": 99.91416666665464,
      "v": 75
    },
    {
      "midi": 45,
      "hit": false,
      "t": 142447.83999999965,
      "d": 106.29166666665697,
      "v": 75
    },
    {
      "midi": 69,
      "hit": false,
      "t": 142447.83999999965,
      "d": 119.04666666666162,
      "v": 75
    },
    {
      "midi": 67,
      "hit": false,
      "t": 142651.91999999963,
      "d": 57.39749999999185,
      "v": 75
    },
    {
      "midi": 43,
      "hit": false,
      "t": 142651.91999999963,
      "d": 74.40416666664532,
      "v": 75
    },
    {
      "midi": 91,
      "hit": false,
      "t": 142651.91999999963,
      "d": 74.40416666664532,
      "v": 86
    },
    {
      "midi": 60,
      "hit": false,
      "t": 142651.91999999963,
      "d": 78.65583333332324,
      "v": 75
    },
    {
      "midi": 88,
      "hit": false,
      "t": 142651.91999999963,
      "d": 78.65583333332324,
      "v": 66
    },
    {
      "midi": 96,
      "hit": false,
      "t": 142651.91999999963,
      "d": 89.28500000000349,
      "v": 90
    },
    {
      "midi": 86,
      "hit": false,
      "t": 142855.99999999965,
      "d": 36.13916666666046,
      "v": 74
    },
    {
      "midi": 55,
      "hit": false,
      "t": 142855.99999999965,
      "d": 70.15249999999651,
      "v": 75
    },
    {
      "midi": 91,
      "hit": false,
      "t": 142855.99999999965,
      "d": 72.27833333332092,
      "v": 94
    },
    {
      "midi": 62,
      "hit": false,
      "t": 142855.99999999965,
      "d": 76.52999999999884,
      "v": 75
    },
    {
      "midi": 50,
      "hit": false,
      "t": 142855.99999999965,
      "d": 82.90750000000116,
      "v": 75
    },
    {
      "midi": 95,
      "hit": false,
      "t": 142855.99999999965,
      "d": 95.66250000000582,
      "v": 103
    },
    {
      "midi": 43,
      "hit": false,
      "t": 142855.99999999965,
      "d": 110.54333333333489,
      "v": 75
    },
    {
      "midi": 86,
      "hit": false,
      "t": 143060.07999999964,
      "d": 57.39749999999185,
      "v": 62
    },
    {
      "midi": 55,
      "hit": false,
      "t": 143060.07999999964,
      "d": 72.27833333332092,
      "v": 75
    },
    {
      "midi": 91,
      "hit": false,
      "t": 143060.07999999964,
      "d": 76.52999999999884,
      "v": 86
    },
    {
      "midi": 95,
      "hit": false,
      "t": 143060.07999999964,
      "d": 91.4108333333279,
      "v": 90
    },
    {
      "midi": 50,
      "hit": false,
      "t": 143060.07999999964,
      "d": 95.66250000000582,
      "v": 75
    },
    {
      "midi": 62,
      "hit": false,
      "t": 143060.07999999964,
      "d": 95.66250000000582,
      "v": 75
    },
    {
      "midi": 86,
      "hit": false,
      "t": 143264.15999999965,
      "d": 87.15916666664998,
      "v": 66
    },
    {
      "midi": 43,
      "hit": false,
      "t": 143264.15999999965,
      "d": 97.78833333333023,
      "v": 75
    },
    {
      "midi": 55,
      "hit": false,
      "t": 143264.15999999965,
      "d": 106.29166666665697,
      "v": 75
    },
    {
      "midi": 52,
      "hit": false,
      "t": 143264.15999999965,
      "d": 114.7949999999837,
      "v": 75
    },
    {
      "midi": 64,
      "hit": false,
      "t": 143264.15999999965,
      "d": 129.67583333331277,
      "v": 75
    },
    {
      "midi": 91,
      "hit": false,
      "t": 143281.1666666663,
      "d": 74.40416666667443,
      "v": 82
    },
    {
      "midi": 95,
      "hit": false,
      "t": 143281.1666666663,
      "d": 97.78833333333023,
      "v": 90
    },
    {
      "midi": 91,
      "hit": false,
      "t": 143468.23999999964,
      "d": 70.15249999999651,
      "v": 90
    },
    {
      "midi": 86,
      "hit": false,
      "t": 143468.23999999964,
      "d": 72.27833333332092,
      "v": 70
    },
    {
      "midi": 50,
      "hit": false,
      "t": 143468.23999999964,
      "d": 76.52999999999884,
      "v": 75
    },
    {
      "midi": 62,
      "hit": false,
      "t": 143468.23999999964,
      "d": 89.28500000000349,
      "v": 75
    },
    {
      "midi": 95,
      "hit": false,
      "t": 143468.23999999964,
      "d": 91.4108333333279,
      "v": 94
    },
    {
      "midi": 55,
      "hit": false,
      "t": 143468.23999999964,
      "d": 99.91416666665464,
      "v": 75
    },
    {
      "midi": 91,
      "hit": false,
      "t": 143672.31999999963,
      "d": 76.52999999999884,
      "v": 94
    },
    {
      "midi": 43,
      "hit": false,
      "t": 143672.31999999963,
      "d": 91.4108333333279,
      "v": 75
    },
    {
      "midi": 50,
      "hit": false,
      "t": 143672.31999999963,
      "d": 97.78833333333023,
      "v": 75
    },
    {
      "midi": 55,
      "hit": false,
      "t": 143672.31999999963,
      "d": 99.91416666665464,
      "v": 75
    },
    {
      "midi": 86,
      "hit": false,
      "t": 143672.31999999963,
      "d": 99.91416666665464,
      "v": 74
    },
    {
      "midi": 95,
      "hit": false,
      "t": 143672.31999999963,
      "d": 106.29166666665697,
      "v": 94
    },
    {
      "midi": 62,
      "hit": false,
      "t": 143672.31999999963,
      "d": 110.54333333333489,
      "v": 75
    },
    {
      "midi": 43,
      "hit": false,
      "t": 143876.39999999962,
      "d": 38.26500000001397,
      "v": 75
    },
    {
      "midi": 91,
      "hit": false,
      "t": 143876.39999999962,
      "d": 74.40416666667443,
      "v": 86
    },
    {
      "midi": 86,
      "hit": false,
      "t": 143876.39999999962,
      "d": 80.78166666667676,
      "v": 62
    },
    {
      "midi": 50,
      "hit": false,
      "t": 143876.39999999962,
      "d": 85.03333333335468,
      "v": 75
    },
    {
      "midi": 95,
      "hit": false,
      "t": 143876.39999999962,
      "d": 91.410833333357,
      "v": 94
    },
    {
      "midi": 55,
      "hit": false,
      "t": 143876.39999999962,
      "d": 102.04000000003725,
      "v": 75
    },
    {
      "midi": 62,
      "hit": false,
      "t": 143876.39999999962,
      "d": 106.29166666671517,
      "v": 75
    },
    {
      "midi": 50,
      "hit": false,
      "t": 144080.47999999966,
      "d": 46.7683333333116,
      "v": 75
    },
    {
      "midi": 43,
      "hit": false,
      "t": 144080.47999999966,
      "d": 108.41750000001048,
      "v": 75
    },
    {
      "midi": 52,
      "hit": false,
      "t": 144080.47999999966,
      "d": 110.54333333333489,
      "v": 75
    },
    {
      "midi": 55,
      "hit": false,
      "t": 144080.47999999966,
      "d": 110.54333333333489,
      "v": 75
    },
    {
      "midi": 64,
      "hit": false,
      "t": 144080.47999999966,
      "d": 123.29833333333954,
      "v": 75
    },
    {
      "midi": 91,
      "hit": false,
      "t": 144097.48666666631,
      "d": 70.15249999999651,
      "v": 90
    },
    {
      "midi": 86,
      "hit": false,
      "t": 144097.48666666631,
      "d": 80.78166666667676,
      "v": 66
    },
    {
      "midi": 95,
      "hit": false,
      "t": 144097.48666666631,
      "d": 91.410833333357,
      "v": 94
    },
    {
      "midi": 43,
      "hit": false,
      "t": 144284.55999999968,
      "d": 17.006666666653473,
      "v": 75
    },
    {
      "midi": 55,
      "hit": false,
      "t": 144284.55999999968,
      "d": 87.15916666664998,
      "v": 75
    },
    {
      "midi": 62,
      "hit": false,
      "t": 144284.55999999968,
      "d": 89.28499999997439,
      "v": 75
    },
    {
      "midi": 50,
      "hit": false,
      "t": 144284.55999999968,
      "d": 95.66249999997672,
      "v": 75
    },
    {
      "midi": 91,
      "hit": false,
      "t": 144301.56666666633,
      "d": 63.77499999999418,
      "v": 90
    },
    {
      "midi": 86,
      "hit": false,
      "t": 144301.56666666633,
      "d": 70.15249999999651,
      "v": 60
    },
    {
      "midi": 95,
      "hit": false,
      "t": 144301.56666666633,
      "d": 82.90750000000116,
      "v": 94
    },
    {
      "midi": 43,
      "hit": false,
      "t": 144488.63999999966,
      "d": 65.90083333334769,
      "v": 75
    },
    {
      "midi": 91,
      "hit": false,
      "t": 144488.63999999966,
      "d": 76.53000000002794,
      "v": 90
    },
    {
      "midi": 86,
      "hit": false,
      "t": 144488.63999999966,
      "d": 87.15916666670819,
      "v": 66
    },
    {
      "midi": 50,
      "hit": false,
      "t": 144488.63999999966,
      "d": 93.53666666671052,
      "v": 75
    },
    {
      "midi": 55,
      "hit": false,
      "t": 144488.63999999966,
      "d": 93.53666666671052,
      "v": 75
    },
    {
      "midi": 95,
      "hit": false,
      "t": 144488.63999999966,
      "d": 102.04000000003725,
      "v": 94
    },
    {
      "midi": 62,
      "hit": false,
      "t": 144488.63999999966,
      "d": 106.29166666671517,
      "v": 75
    },
    {
      "midi": 55,
      "hit": false,
      "t": 144692.7199999997,
      "d": 57.39749999999185,
      "v": 75
    },
    {
      "midi": 91,
      "hit": false,
      "t": 144692.7199999997,
      "d": 65.90083333331859,
      "v": 94
    },
    {
      "midi": 86,
      "hit": false,
      "t": 144692.7199999997,
      "d": 72.27833333332092,
      "v": 61
    },
    {
      "midi": 43,
      "hit": false,
      "t": 144692.7199999997,
      "d": 89.28499999997439,
      "v": 75
    },
    {
      "midi": 95,
      "hit": false,
      "t": 144692.7199999997,
      "d": 89.28499999997439,
      "v": 94
    },
    {
      "midi": 50,
      "hit": false,
      "t": 144692.7199999997,
      "d": 97.78833333330113,
      "v": 75
    },
    {
      "midi": 62,
      "hit": false,
      "t": 144692.7199999997,
      "d": 108.41749999998137,
      "v": 75
    },
    {
      "midi": 43,
      "hit": false,
      "t": 144896.7999999997,
      "d": 102.04000000000815,
      "v": 75
    },
    {
      "midi": 52,
      "hit": false,
      "t": 144896.7999999997,
      "d": 104.16583333333256,
      "v": 75
    },
    {
      "midi": 55,
      "hit": false,
      "t": 144896.7999999997,
      "d": 106.29166666665697,
      "v": 75
    },
    {
      "midi": 64,
      "hit": false,
      "t": 144896.7999999997,
      "d": 112.6691666666593,
      "v": 75
    },
    {
      "midi": 91,
      "hit": false,
      "t": 144913.80666666635,
      "d": 65.90083333334769,
      "v": 94
    },
    {
      "midi": 86,
      "hit": false,
      "t": 144913.80666666635,
      "d": 78.65583333335235,
      "v": 70
    },
    {
      "midi": 95,
      "hit": false,
      "t": 144913.80666666635,
      "d": 80.78166666667676,
      "v": 94
    },
    {
      "midi": 43,
      "hit": false,
      "t": 145100.87999999968,
      "d": 19.132500000006985,
      "v": 75
    },
    {
      "midi": 91,
      "hit": false,
      "t": 145100.87999999968,
      "d": 63.77499999999418,
      "v": 103
    },
    {
      "midi": 55,
      "hit": false,
      "t": 145100.87999999968,
      "d": 72.27833333332092,
      "v": 75
    },
    {
      "midi": 95,
      "hit": false,
      "t": 145100.87999999968,
      "d": 78.65583333332324,
      "v": 94
    },
    {
      "midi": 86,
      "hit": false,
      "t": 145100.87999999968,
      "d": 80.78166666664765,
      "v": 70
    },
    {
      "midi": 50,
      "hit": false,
      "t": 145100.87999999968,
      "d": 87.15916666664998,
      "v": 75
    },
    {
      "midi": 62,
      "hit": false,
      "t": 145100.87999999968,
      "d": 102.03999999997905,
      "v": 75
    },
    {
      "midi": 91,
      "hit": false,
      "t": 145304.95999999967,
      "d": 72.27833333332092,
      "v": 86
    },
    {
      "midi": 55,
      "hit": false,
      "t": 145304.95999999967,
      "d": 78.65583333332324,
      "v": 75
    },
    {
      "midi": 43,
      "hit": false,
      "t": 145304.95999999967,
      "d": 80.78166666664765,
      "v": 75
    },
    {
      "midi": 86,
      "hit": false,
      "t": 145304.95999999967,
      "d": 85.03333333332557,
      "v": 66
    },
    {
      "midi": 95,
      "hit": false,
      "t": 145304.95999999967,
      "d": 89.28500000000349,
      "v": 94
    },
    {
      "midi": 50,
      "hit": false,
      "t": 145304.95999999967,
      "d": 93.53666666668141,
      "v": 75
    },
    {
      "midi": 62,
      "hit": false,
      "t": 145304.95999999967,
      "d": 104.16583333336166,
      "v": 75
    },
    {
      "midi": 43,
      "hit": false,
      "t": 145509.0399999997,
      "d": 44.642499999987194,
      "v": 75
    },
    {
      "midi": 91,
      "hit": false,
      "t": 145509.0399999997,
      "d": 63.77499999999418,
      "v": 90
    },
    {
      "midi": 86,
      "hit": false,
      "t": 145509.0399999997,
      "d": 82.90750000000116,
      "v": 70
    },
    {
      "midi": 95,
      "hit": false,
      "t": 145509.0399999997,
      "d": 85.03333333332557,
      "v": 90
    },
    {
      "midi": 55,
      "hit": false,
      "t": 145509.0399999997,
      "d": 102.03999999997905,
      "v": 75
    },
    {
      "midi": 50,
      "hit": false,
      "t": 145509.0399999997,
      "d": 106.29166666665697,
      "v": 75
    },
    {
      "midi": 62,
      "hit": false,
      "t": 145509.0399999997,
      "d": 119.04666666666162,
      "v": 75
    },
    {
      "midi": 43,
      "hit": false,
      "t": 145713.11999999968,
      "d": 85.03333333332557,
      "v": 75
    },
    {
      "midi": 86,
      "hit": false,
      "t": 145713.11999999968,
      "d": 85.03333333332557,
      "v": 82
    },
    {
      "midi": 55,
      "hit": false,
      "t": 145713.11999999968,
      "d": 95.66250000000582,
      "v": 75
    },
    {
      "midi": 64,
      "hit": false,
      "t": 145713.11999999968,
      "d": 125.42416666666395,
      "v": 75
    },
    {
      "midi": 52,
      "hit": false,
      "t": 145713.11999999968,
      "d": 129.67583333334187,
      "v": 75
    },
    {
      "midi": 91,
      "hit": false,
      "t": 145730.12666666633,
      "d": 68.0266666666721,
      "v": 94
    },
    {
      "midi": 95,
      "hit": false,
      "t": 145730.12666666633,
      "d": 85.03333333335468,
      "v": 94
    },
    {
      "midi": 43,
      "hit": false,
      "t": 145917.1999999997,
      "d": 53.14583333331393,
      "v": 75
    },
    {
      "midi": 91,
      "hit": false,
      "t": 145917.1999999997,
      "d": 63.77499999999418,
      "v": 94
    },
    {
      "midi": 86,
      "hit": false,
      "t": 145917.1999999997,
      "d": 76.52999999999884,
      "v": 70
    },
    {
      "midi": 55,
      "hit": false,
      "t": 145917.1999999997,
      "d": 80.78166666667676,
      "v": 75
    },
    {
      "midi": 50,
      "hit": false,
      "t": 145917.1999999997,
      "d": 91.4108333333279,
      "v": 75
    },
    {
      "midi": 62,
      "hit": false,
      "t": 145917.1999999997,
      "d": 102.04000000000815,
      "v": 75
    },
    {
      "midi": 95,
      "hit": false,
      "t": 145934.20666666634,
      "d": 65.90083333334769,
      "v": 94
    },
    {
      "midi": 88,
      "hit": false,
      "t": 146121.2799999997,
      "d": 48.894166666665114,
      "v": 112
    },
    {
      "midi": 84,
      "hit": false,
      "t": 146121.2799999997,
      "d": 51.01999999998952,
      "v": 90
    },
    {
      "midi": 91,
      "hit": false,
      "t": 146121.2799999997,
      "d": 76.52999999999884,
      "v": 112
    },
    {
      "midi": 60,
      "hit": false,
      "t": 146121.2799999997,
      "d": 123.29833333333954,
      "v": 83
    },
    {
      "midi": 43,
      "hit": false,
      "t": 146121.2799999997,
      "d": 127.55000000001746,
      "v": 83
    },
    {
      "midi": 36,
      "hit": false,
      "t": 146121.2799999997,
      "d": 138.1791666666977,
      "v": 83
    },
    {
      "midi": 67,
      "hit": false,
      "t": 146121.2799999997,
      "d": 150.93416666670237,
      "v": 83
    },
    {
      "midi": 88,
      "hit": false,
      "t": 146325.35999999975,
      "d": 53.145833333343035,
      "v": 78
    },
    {
      "midi": 84,
      "hit": false,
      "t": 146325.35999999975,
      "d": 68.0266666666721,
      "v": 70
    },
    {
      "midi": 91,
      "hit": false,
      "t": 146325.35999999975,
      "d": 78.65583333335235,
      "v": 94
    },
    {
      "midi": 43,
      "hit": false,
      "t": 146325.35999999975,
      "d": 161.5633333333535,
      "v": 83
    },
    {
      "midi": 60,
      "hit": false,
      "t": 146325.35999999975,
      "d": 161.5633333333535,
      "v": 83
    },
    {
      "midi": 67,
      "hit": false,
      "t": 146325.35999999975,
      "d": 178.57000000000698,
      "v": 83
    },
    {
      "midi": 36,
      "hit": false,
      "t": 146325.35999999975,
      "d": 348.63666666668723,
      "v": 83
    },
    {
      "midi": 60,
      "hit": false,
      "t": 146529.43999999977,
      "d": 123.29833333331044,
      "v": 83
    },
    {
      "midi": 45,
      "hit": false,
      "t": 146529.43999999977,
      "d": 127.54999999998836,
      "v": 83
    },
    {
      "midi": 69,
      "hit": false,
      "t": 146529.43999999977,
      "d": 138.1791666666686,
      "v": 83
    },
    {
      "midi": 88,
      "hit": false,
      "t": 146546.44666666642,
      "d": 61.64916666666977,
      "v": 82
    },
    {
      "midi": 84,
      "hit": false,
      "t": 146546.44666666642,
      "d": 78.65583333332324,
      "v": 66
    },
    {
      "midi": 91,
      "hit": false,
      "t": 146546.44666666642,
      "d": 78.65583333332324,
      "v": 94
    },
    {
      "midi": 88,
      "hit": false,
      "t": 146733.5199999998,
      "d": 61.64916666666977,
      "v": 78
    },
    {
      "midi": 84,
      "hit": false,
      "t": 146733.5199999998,
      "d": 72.27833333335002,
      "v": 60
    },
    {
      "midi": 91,
      "hit": false,
      "t": 146733.5199999998,
      "d": 85.03333333335468,
      "v": 82
    },
    {
      "midi": 43,
      "hit": false,
      "t": 146733.5199999998,
      "d": 102.04000000000815,
      "v": 83
    },
    {
      "midi": 60,
      "hit": false,
      "t": 146733.5199999998,
      "d": 110.54333333336399,
      "v": 83
    },
    {
      "midi": 67,
      "hit": false,
      "t": 146733.5199999998,
      "d": 116.92083333336632,
      "v": 83
    },
    {
      "midi": 36,
      "hit": false,
      "t": 146835.5599999998,
      "d": 4.25166666667792,
      "v": 83
    },
    {
      "midi": 88,
      "hit": false,
      "t": 146937.59999999983,
      "d": 76.52999999999884,
      "v": 82
    },
    {
      "midi": 84,
      "hit": false,
      "t": 146937.59999999983,
      "d": 85.03333333332557,
      "v": 61
    },
    {
      "midi": 60,
      "hit": false,
      "t": 146937.59999999983,
      "d": 102.03999999997905,
      "v": 83
    },
    {
      "midi": 43,
      "hit": false,
      "t": 146937.59999999983,
      "d": 116.92083333330811,
      "v": 83
    },
    {
      "midi": 36,
      "hit": false,
      "t": 146937.59999999983,
      "d": 125.42416666663485,
      "v": 83
    },
    {
      "midi": 67,
      "hit": false,
      "t": 146937.59999999983,
      "d": 131.80166666663717,
      "v": 83
    },
    {
      "midi": 91,
      "hit": false,
      "t": 146954.60666666648,
      "d": 87.15916666664998,
      "v": 86
    },
    {
      "midi": 36,
      "hit": false,
      "t": 147141.6799999998,
      "d": 72.27833333332092,
      "v": 83
    },
    {
      "midi": 88,
      "hit": false,
      "t": 147141.6799999998,
      "d": 76.52999999999884,
      "v": 82
    },
    {
      "midi": 84,
      "hit": false,
      "t": 147141.6799999998,
      "d": 91.4108333333279,
      "v": 70
    },
    {
      "midi": 43,
      "hit": false,
      "t": 147141.6799999998,
      "d": 104.16583333333256,
      "v": 83
    },
    {
      "midi": 60,
      "hit": false,
      "t": 147141.6799999998,
      "d": 106.29166666665697,
      "v": 83
    },
    {
      "midi": 67,
      "hit": false,
      "t": 147141.6799999998,
      "d": 127.54999999998836,
      "v": 83
    },
    {
      "midi": 91,
      "hit": false,
      "t": 147158.68666666644,
      "d": 85.03333333335468,
      "v": 86
    },
    {
      "midi": 88,
      "hit": false,
      "t": 147345.75999999978,
      "d": 74.40416666664532,
      "v": 82
    },
    {
      "midi": 84,
      "hit": false,
      "t": 147345.75999999978,
      "d": 99.91416666665464,
      "v": 70
    },
    {
      "midi": 60,
      "hit": false,
      "t": 147345.75999999978,
      "d": 102.03999999997905,
      "v": 83
    },
    {
      "midi": 45,
      "hit": false,
      "t": 147345.75999999978,
      "d": 114.7949999999837,
      "v": 83
    },
    {
      "midi": 69,
      "hit": false,
      "t": 147345.75999999978,
      "d": 127.54999999998836,
      "v": 83
    },
    {
      "midi": 36,
      "hit": false,
      "t": 147345.75999999978,
      "d": 223.21249999999418,
      "v": 83
    },
    {
      "midi": 91,
      "hit": false,
      "t": 147362.76666666643,
      "d": 95.66250000000582,
      "v": 86
    },
    {
      "midi": 88,
      "hit": false,
      "t": 147549.83999999976,
      "d": 61.64916666666977,
      "v": 90
    },
    {
      "midi": 60,
      "hit": false,
      "t": 147549.83999999976,
      "d": 78.65583333332324,
      "v": 83
    },
    {
      "midi": 91,
      "hit": false,
      "t": 147549.83999999976,
      "d": 85.03333333332557,
      "v": 90
    },
    {
      "midi": 67,
      "hit": false,
      "t": 147549.83999999976,
      "d": 91.4108333333279,
      "v": 83
    },
    {
      "midi": 84,
      "hit": false,
      "t": 147549.83999999976,
      "d": 91.4108333333279,
      "v": 82
    },
    {
      "midi": 43,
      "hit": false,
      "t": 147549.83999999976,
      "d": 116.92083333333721,
      "v": 83
    },
    {
      "midi": 50,
      "hit": false,
      "t": 147753.91999999978,
      "d": 70.15249999999651,
      "v": 83
    },
    {
      "midi": 86,
      "hit": false,
      "t": 147753.91999999978,
      "d": 76.52999999999884,
      "v": 90
    },
    {
      "midi": 83,
      "hit": false,
      "t": 147753.91999999978,
      "d": 78.65583333332324,
      "v": 82
    },
    {
      "midi": 55,
      "hit": false,
      "t": 147753.91999999978,
      "d": 80.78166666664765,
      "v": 83
    },
    {
      "midi": 62,
      "hit": false,
      "t": 147753.91999999978,
      "d": 93.53666666665231,
      "v": 83
    },
    {
      "midi": 91,
      "hit": false,
      "t": 147753.91999999978,
      "d": 97.78833333333023,
      "v": 90
    },
    {
      "midi": 43,
      "hit": false,
      "t": 147753.91999999978,
      "d": 119.04666666666162,
      "v": 83
    },
    {
      "midi": 86,
      "hit": false,
      "t": 147957.99999999977,
      "d": 65.90083333334769,
      "v": 78
    },
    {
      "midi": 83,
      "hit": false,
      "t": 147957.99999999977,
      "d": 72.27833333335002,
      "v": 59
    },
    {
      "midi": 43,
      "hit": false,
      "t": 147957.99999999977,
      "d": 80.78166666667676,
      "v": 83
    },
    {
      "midi": 50,
      "hit": false,
      "t": 147957.99999999977,
      "d": 91.410833333357,
      "v": 83
    },
    {
      "midi": 55,
      "hit": false,
      "t": 147957.99999999977,
      "d": 93.53666666668141,
      "v": 83
    },
    {
      "midi": 91,
      "hit": false,
      "t": 147957.99999999977,
      "d": 95.66250000000582,
      "v": 86
    },
    {
      "midi": 62,
      "hit": false,
      "t": 147957.99999999977,
      "d": 116.92083333333721,
      "v": 83
    },
    {
      "midi": 55,
      "hit": false,
      "t": 148162.07999999978,
      "d": 104.16583333333256,
      "v": 83
    },
    {
      "midi": 52,
      "hit": false,
      "t": 148162.07999999978,
      "d": 116.92083333333721,
      "v": 83
    },
    {
      "midi": 64,
      "hit": false,
      "t": 148162.07999999978,
      "d": 123.29833333333954,
      "v": 83
    },
    {
      "midi": 43,
      "hit": false,
      "t": 148162.07999999978,
      "d": 131.80166666666628,
      "v": 83
    },
    {
      "midi": 86,
      "hit": false,
      "t": 148179.08666666644,
      "d": 76.52999999999884,
      "v": 86
    },
    {
      "midi": 83,
      "hit": false,
      "t": 148179.08666666644,
      "d": 93.53666666668141,
      "v": 62
    },
    {
      "midi": 91,
      "hit": false,
      "t": 148179.08666666644,
      "d": 97.78833333335933,
      "v": 86
    },
    {
      "midi": 86,
      "hit": false,
      "t": 148366.15999999977,
      "d": 72.27833333332092,
      "v": 86
    },
    {
      "midi": 83,
      "hit": false,
      "t": 148366.15999999977,
      "d": 82.90750000000116,
      "v": 60
    },
    {
      "midi": 91,
      "hit": false,
      "t": 148366.15999999977,
      "d": 91.4108333333279,
      "v": 90
    },
    {
      "midi": 50,
      "hit": false,
      "t": 148366.15999999977,
      "d": 99.91416666665464,
      "v": 83
    },
    {
      "midi": 55,
      "hit": false,
      "t": 148366.15999999977,
      "d": 112.6691666666593,
      "v": 83
    },
    {
      "midi": 62,
      "hit": false,
      "t": 148366.15999999977,
      "d": 114.7949999999837,
      "v": 83
    },
    {
      "midi": 43,
      "hit": false,
      "t": 148468.19999999975,
      "d": 10.629166666680248,
      "v": 83
    },
    {
      "midi": 86,
      "hit": false,
      "t": 148570.23999999976,
      "d": 76.52999999999884,
      "v": 90
    },
    {
      "midi": 83,
      "hit": false,
      "t": 148570.23999999976,
      "d": 95.66250000000582,
      "v": 62
    },
    {
      "midi": 55,
      "hit": false,
      "t": 148570.23999999976,
      "d": 97.78833333333023,
      "v": 83
    },
    {
      "midi": 91,
      "hit": false,
      "t": 148570.23999999976,
      "d": 99.91416666665464,
      "v": 90
    },
    {
      "midi": 50,
      "hit": false,
      "t": 148570.23999999976,
      "d": 108.41749999998137,
      "v": 83
    },
    {
      "midi": 62,
      "hit": false,
      "t": 148570.23999999976,
      "d": 114.7949999999837,
      "v": 83
    },
    {
      "midi": 43,
      "hit": false,
      "t": 148570.23999999976,
      "d": 119.04666666666162,
      "v": 83
    },
    {
      "midi": 43,
      "hit": false,
      "t": 148774.31999999975,
      "d": 72.27833333332092,
      "v": 83
    },
    {
      "midi": 55,
      "hit": false,
      "t": 148774.31999999975,
      "d": 89.28500000000349,
      "v": 83
    },
    {
      "midi": 50,
      "hit": false,
      "t": 148774.31999999975,
      "d": 119.04666666669073,
      "v": 83
    },
    {
      "midi": 62,
      "hit": false,
      "t": 148774.31999999975,
      "d": 131.80166666669538,
      "v": 83
    },
    {
      "midi": 86,
      "hit": false,
      "t": 148791.3266666664,
      "d": 63.77499999999418,
      "v": 86
    },
    {
      "midi": 83,
      "hit": false,
      "t": 148791.3266666664,
      "d": 68.0266666666721,
      "v": 61
    },
    {
      "midi": 91,
      "hit": false,
      "t": 148791.3266666664,
      "d": 82.90750000003027,
      "v": 94
    },
    {
      "midi": 86,
      "hit": false,
      "t": 148978.39999999976,
      "d": 72.27833333332092,
      "v": 86
    },
    {
      "midi": 83,
      "hit": false,
      "t": 148978.39999999976,
      "d": 80.78166666664765,
      "v": 70
    },
    {
      "midi": 91,
      "hit": false,
      "t": 148978.39999999976,
      "d": 85.03333333332557,
      "v": 90
    },
    {
      "midi": 55,
      "hit": false,
      "t": 148978.39999999976,
      "d": 110.54333333333489,
      "v": 83
    },
    {
      "midi": 43,
      "hit": false,
      "t": 148978.39999999976,
      "d": 112.6691666666593,
      "v": 83
    },
    {
      "midi": 64,
      "hit": false,
      "t": 148978.39999999976,
      "d": 121.17249999998603,
      "v": 83
    },
    {
      "midi": 52,
      "hit": false,
      "t": 148978.39999999976,
      "d": 136.0533333333151,
      "v": 83
    },
    {
      "midi": 55,
      "hit": false,
      "t": 149182.47999999975,
      "d": 10.629166666680248,
      "v": 83
    },
    {
      "midi": 43,
      "hit": false,
      "t": 149182.47999999975,
      "d": 48.89416666669422,
      "v": 83
    },
    {
      "midi": 50,
      "hit": false,
      "t": 149182.47999999975,
      "d": 65.90083333334769,
      "v": 83
    },
    {
      "midi": 86,
      "hit": false,
      "t": 149182.47999999975,
      "d": 70.15250000002561,
      "v": 90
    },
    {
      "midi": 83,
      "hit": false,
      "t": 149182.47999999975,
      "d": 85.03333333335468,
      "v": 66
    },
    {
      "midi": 62,
      "hit": false,
      "t": 149182.47999999975,
      "d": 99.91416666668374,
      "v": 83
    },
    {
      "midi": 91,
      "hit": false,
      "t": 149182.47999999975,
      "d": 99.91416666668374,
      "v": 86
    },
    {
      "midi": 88,
      "hit": false,
      "t": 149386.55999999976,
      "d": 68.0266666666721,
      "v": 90
    },
    {
      "midi": 84,
      "hit": false,
      "t": 149386.55999999976,
      "d": 72.27833333335002,
      "v": 82
    },
    {
      "midi": 60,
      "hit": false,
      "t": 149386.55999999976,
      "d": 78.65583333335235,
      "v": 83
    },
    {
      "midi": 91,
      "hit": false,
      "t": 149386.55999999976,
      "d": 87.15916666667908,
      "v": 94
    },
    {
      "midi": 67,
      "hit": false,
      "t": 149386.55999999976,
      "d": 91.410833333357,
      "v": 83
    },
    {
      "midi": 43,
      "hit": false,
      "t": 149386.55999999976,
      "d": 97.78833333335933,
      "v": 83
    },
    {
      "midi": 36,
      "hit": false,
      "t": 149386.55999999976,
      "d": 104.16583333336166,
      "v": 83
    },
    {
      "midi": 36,
      "hit": false,
      "t": 149590.63999999978,
      "d": 29.76166666665813,
      "v": 83
    },
    {
      "midi": 88,
      "hit": false,
      "t": 149590.63999999978,
      "d": 68.0266666666721,
      "v": 74
    },
    {
      "midi": 84,
      "hit": false,
      "t": 149590.63999999978,
      "d": 82.90750000000116,
      "v": 58
    },
    {
      "midi": 91,
      "hit": false,
      "t": 149590.63999999978,
      "d": 99.91416666665464,
      "v": 78
    },
    {
      "midi": 60,
      "hit": false,
      "t": 149590.63999999978,
      "d": 104.16583333333256,
      "v": 83
    },
    {
      "midi": 67,
      "hit": false,
      "t": 149590.63999999978,
      "d": 116.92083333333721,
      "v": 83
    },
    {
      "midi": 43,
      "hit": false,
      "t": 149590.63999999978,
      "d": 123.29833333333954,
      "v": 83
    },
    {
      "midi": 60,
      "hit": false,
      "t": 149794.7199999998,
      "d": 106.29166666668607,
      "v": 83
    },
    {
      "midi": 69,
      "hit": false,
      "t": 149794.7199999998,
      "d": 123.29833333336865,
      "v": 83
    },
    {
      "midi": 45,
      "hit": false,
      "t": 149794.7199999998,
      "d": 129.67583333337097,
      "v": 83
    },
    {
      "midi": 36,
      "hit": false,
      "t": 149794.7199999998,
      "d": 138.1791666666977,
      "v": 83
    },
    {
      "midi": 88,
      "hit": false,
      "t": 149811.72666666645,
      "d": 65.90083333334769,
      "v": 78
    },
    {
      "midi": 84,
      "hit": false,
      "t": 149811.72666666645,
      "d": 85.03333333335468,
      "v": 62
    },
    {
      "midi": 91,
      "hit": false,
      "t": 149811.72666666645,
      "d": 95.66250000003492,
      "v": 90
    },
    {
      "midi": 36,
      "hit": false,
      "t": 149998.79999999984,
      "d": 27.63583333333372,
      "v": 83
    },
    {
      "midi": 88,
      "hit": false,
      "t": 149998.79999999984,
      "d": 68.0266666666721,
      "v": 90
    },
    {
      "midi": 84,
      "hit": false,
      "t": 149998.79999999984,
      "d": 93.53666666668141,
      "v": 78
    },
    {
      "midi": 60,
      "hit": false,
      "t": 149998.79999999984,
      "d": 95.66250000000582,
      "v": 83
    },
    {
      "midi": 91,
      "hit": false,
      "t": 149998.79999999984,
      "d": 95.66250000000582,
      "v": 94
    },
    {
      "midi": 43,
      "hit": false,
      "t": 149998.79999999984,
      "d": 110.54333333333489,
      "v": 83
    },
    {
      "midi": 67,
      "hit": false,
      "t": 149998.79999999984,
      "d": 116.92083333333721,
      "v": 83
    },
    {
      "midi": 88,
      "hit": false,
      "t": 150202.87999999986,
      "d": 70.15249999999651,
      "v": 86
    },
    {
      "midi": 84,
      "hit": false,
      "t": 150202.87999999986,
      "d": 85.03333333332557,
      "v": 70
    },
    {
      "midi": 91,
      "hit": false,
      "t": 150202.87999999986,
      "d": 89.28500000000349,
      "v": 86
    },
    {
      "midi": 60,
      "hit": false,
      "t": 150202.87999999986,
      "d": 99.91416666668374,
      "v": 83
    },
    {
      "midi": 43,
      "hit": false,
      "t": 150202.87999999986,
      "d": 108.41750000001048,
      "v": 83
    },
    {
      "midi": 36,
      "hit": false,
      "t": 150202.87999999986,
      "d": 133.9275000000198,
      "v": 83
    },
    {
      "midi": 67,
      "hit": false,
      "t": 150202.87999999986,
      "d": 136.0533333333442,
      "v": 83
    },
    {
      "midi": 88,
      "hit": false,
      "t": 150406.95999999988,
      "d": 61.64916666666977,
      "v": 86
    },
    {
      "midi": 84,
      "hit": false,
      "t": 150406.95999999988,
      "d": 76.52999999999884,
      "v": 70
    },
    {
      "midi": 91,
      "hit": false,
      "t": 150406.95999999988,
      "d": 89.28500000000349,
      "v": 94
    },
    {
      "midi": 60,
      "hit": false,
      "t": 150406.95999999988,
      "d": 106.29166666665697,
      "v": 83
    },
    {
      "midi": 36,
      "hit": false,
      "t": 150406.95999999988,
      "d": 108.41749999998137,
      "v": 83
    },
    {
      "midi": 43,
      "hit": false,
      "t": 150406.95999999988,
      "d": 110.54333333330578,
      "v": 83
    },
    {
      "midi": 67,
      "hit": false,
      "t": 150406.95999999988,
      "d": 116.92083333330811,
      "v": 83
    },
    {
      "midi": 60,
      "hit": false,
      "t": 150611.03999999986,
      "d": 99.91416666665464,
      "v": 83
    },
    {
      "midi": 84,
      "hit": false,
      "t": 150611.03999999986,
      "d": 106.29166666665697,
      "v": 78
    },
    {
      "midi": 45,
      "hit": false,
      "t": 150611.03999999986,
      "d": 108.41749999998137,
      "v": 83
    },
    {
      "midi": 36,
      "hit": false,
      "t": 150611.03999999986,
      "d": 112.6691666666593,
      "v": 83
    },
    {
      "midi": 69,
      "hit": false,
      "t": 150611.03999999986,
      "d": 133.9274999999907,
      "v": 83
    },
    {
      "midi": 88,
      "hit": false,
      "t": 150628.04666666652,
      "d": 85.03333333332557,
      "v": 90
    },
    {
      "midi": 91,
      "hit": false,
      "t": 150628.04666666652,
      "d": 91.4108333333279,
      "v": 90
    },
    {
      "midi": 67,
      "hit": false,
      "t": 150815.11999999985,
      "d": 74.40416666664532,
      "v": 83
    },
    {
      "midi": 84,
      "hit": false,
      "t": 150815.11999999985,
      "d": 76.52999999996973,
      "v": 82
    },
    {
      "midi": 43,
      "hit": false,
      "t": 150815.11999999985,
      "d": 82.90749999997206,
      "v": 83
    },
    {
      "midi": 60,
      "hit": false,
      "t": 150815.11999999985,
      "d": 85.03333333329647,
      "v": 83
    },
    {
      "midi": 88,
      "hit": false,
      "t": 150832.1266666665,
      "d": 61.64916666664067,
      "v": 103
    },
    {
      "midi": 91,
      "hit": false,
      "t": 150832.1266666665,
      "d": 65.90083333331859,
      "v": 94
    },
    {
      "midi": 86,
      "hit": false,
      "t": 151019.1999999998,
      "d": 65.90083333334769,
      "v": 82
    },
    {
      "midi": 91,
      "hit": false,
      "t": 151019.1999999998,
      "d": 78.65583333335235,
      "v": 86
    },
    {
      "midi": 62,
      "hit": false,
      "t": 151019.1999999998,
      "d": 85.03333333335468,
      "v": 83
    },
    {
      "midi": 50,
      "hit": false,
      "t": 151019.1999999998,
      "d": 87.15916666667908,
      "v": 83
    },
    {
      "midi": 83,
      "hit": false,
      "t": 151019.1999999998,
      "d": 87.15916666667908,
      "v": 90
    },
    {
      "midi": 55,
      "hit": false,
      "t": 151019.1999999998,
      "d": 89.28500000000349,
      "v": 83
    },
    {
      "midi": 43,
      "hit": false,
      "t": 151019.1999999998,
      "d": 119.04666666666162,
      "v": 83
    },
    {
      "midi": 86,
      "hit": false,
      "t": 151223.2799999998,
      "d": 68.0266666666721,
      "v": 90
    },
    {
      "midi": 91,
      "hit": false,
      "t": 151223.2799999998,
      "d": 80.78166666667676,
      "v": 94
    },
    {
      "midi": 55,
      "hit": false,
      "t": 151223.2799999998,
      "d": 89.28500000000349,
      "v": 83
    },
    {
      "midi": 83,
      "hit": false,
      "t": 151223.2799999998,
      "d": 91.4108333333279,
      "v": 70
    },
    {
      "midi": 62,
      "hit": false,
      "t": 151223.2799999998,
      "d": 112.6691666666593,
      "v": 83
    },
    {
      "midi": 50,
      "hit": false,
      "t": 151223.2799999998,
      "d": 116.92083333333721,
      "v": 83
    },
    {
      "midi": 83,
      "hit": false,
      "t": 151427.3599999998,
      "d": 85.03333333332557,
      "v": 62
    },
    {
      "midi": 55,
      "hit": false,
      "t": 151427.3599999998,
      "d": 102.03999999997905,
      "v": 83
    },
    {
      "midi": 64,
      "hit": false,
      "t": 151427.3599999998,
      "d": 114.7949999999837,
      "v": 83
    },
    {
      "midi": 43,
      "hit": false,
      "t": 151427.3599999998,
      "d": 127.54999999998836,
      "v": 83
    },
    {
      "midi": 52,
      "hit": false,
      "t": 151427.3599999998,
      "d": 142.43083333331742,
      "v": 83
    },
    {
      "midi": 86,
      "hit": false,
      "t": 151444.36666666646,
      "d": 63.77499999999418,
      "v": 90
    },
    {
      "midi": 91,
      "hit": false,
      "t": 151444.36666666646,
      "d": 87.15916666664998,
      "v": 86
    },
    {
      "midi": 86,
      "hit": false,
      "t": 151631.4399999998,
      "d": 68.0266666666721,
      "v": 86
    },
    {
      "midi": 83,
      "hit": false,
      "t": 151631.4399999998,
      "d": 74.40416666667443,
      "v": 60
    },
    {
      "midi": 91,
      "hit": false,
      "t": 151631.4399999998,
      "d": 80.78166666667676,
      "v": 90
    },
    {
      "midi": 50,
      "hit": false,
      "t": 151631.4399999998,
      "d": 87.15916666667908,
      "v": 83
    },
    {
      "midi": 55,
      "hit": false,
      "t": 151631.4399999998,
      "d": 89.28500000000349,
      "v": 83
    },
    {
      "midi": 62,
      "hit": false,
      "t": 151631.4399999998,
      "d": 97.78833333333023,
      "v": 83
    },
    {
      "midi": 86,
      "hit": false,
      "t": 151835.5199999998,
      "d": 61.64916666666977,
      "v": 82
    },
    {
      "midi": 83,
      "hit": false,
      "t": 151835.5199999998,
      "d": 78.65583333332324,
      "v": 62
    },
    {
      "midi": 91,
      "hit": false,
      "t": 151835.5199999998,
      "d": 82.90750000000116,
      "v": 90
    },
    {
      "midi": 55,
      "hit": false,
      "t": 151835.5199999998,
      "d": 91.4108333333279,
      "v": 83
    },
    {
      "midi": 50,
      "hit": false,
      "t": 151835.5199999998,
      "d": 99.91416666665464,
      "v": 83
    },
    {
      "midi": 62,
      "hit": false,
      "t": 151835.5199999998,
      "d": 114.7949999999837,
      "v": 83
    },
    {
      "midi": 43,
      "hit": false,
      "t": 151835.5199999998,
      "d": 119.04666666666162,
      "v": 83
    },
    {
      "midi": 55,
      "hit": false,
      "t": 152039.59999999977,
      "d": 114.7950000000128,
      "v": 83
    },
    {
      "midi": 62,
      "hit": false,
      "t": 152039.59999999977,
      "d": 116.92083333333721,
      "v": 83
    },
    {
      "midi": 50,
      "hit": false,
      "t": 152039.59999999977,
      "d": 123.29833333333954,
      "v": 83
    },
    {
      "midi": 43,
      "hit": false,
      "t": 152039.59999999977,
      "d": 378.39833333334536,
      "v": 83
    },
    {
      "midi": 86,
      "hit": false,
      "t": 152056.60666666643,
      "d": 61.64916666666977,
      "v": 90
    },
    {
      "midi": 83,
      "hit": false,
      "t": 152056.60666666643,
      "d": 72.27833333335002,
      "v": 70
    },
    {
      "midi": 91,
      "hit": false,
      "t": 152056.60666666643,
      "d": 78.65583333335235,
      "v": 94
    },
    {
      "midi": 86,
      "hit": false,
      "t": 152243.6799999998,
      "d": 61.64916666666977,
      "v": 86
    },
    {
      "midi": 83,
      "hit": false,
      "t": 152243.6799999998,
      "d": 82.90750000000116,
      "v": 70
    },
    {
      "midi": 91,
      "hit": false,
      "t": 152243.6799999998,
      "d": 85.03333333332557,
      "v": 94
    },
    {
      "midi": 55,
      "hit": false,
      "t": 152243.6799999998,
      "d": 104.16583333333256,
      "v": 83
    },
    {
      "midi": 64,
      "hit": false,
      "t": 152243.6799999998,
      "d": 112.6691666666593,
      "v": 83
    },
    {
      "midi": 52,
      "hit": false,
      "t": 152243.6799999998,
      "d": 136.0533333333151,
      "v": 83
    },
    {
      "midi": 43,
      "hit": false,
      "t": 152447.75999999978,
      "d": 68.0266666666721,
      "v": 83
    },
    {
      "midi": 86,
      "hit": false,
      "t": 152447.75999999978,
      "d": 68.0266666666721,
      "v": 82
    },
    {
      "midi": 83,
      "hit": false,
      "t": 152447.75999999978,
      "d": 80.78166666667676,
      "v": 60
    },
    {
      "midi": 50,
      "hit": false,
      "t": 152447.75999999978,
      "d": 91.410833333357,
      "v": 83
    },
    {
      "midi": 91,
      "hit": false,
      "t": 152447.75999999978,
      "d": 95.66250000003492,
      "v": 86
    },
    {
      "midi": 55,
      "hit": false,
      "t": 152447.75999999978,
      "d": 97.78833333335933,
      "v": 83
    },
    {
      "midi": 62,
      "hit": false,
      "t": 152447.75999999978,
      "d": 104.16583333336166,
      "v": 83
    },
    {
      "midi": 86,
      "hit": false,
      "t": 152651.8399999998,
      "d": 61.64916666666977,
      "v": 82
    },
    {
      "midi": 83,
      "hit": false,
      "t": 152651.8399999998,
      "d": 82.90750000000116,
      "v": 60
    },
    {
      "midi": 91,
      "hit": false,
      "t": 152651.8399999998,
      "d": 97.78833333333023,
      "v": 86
    },
    {
      "midi": 55,
      "hit": false,
      "t": 152651.8399999998,
      "d": 106.29166666665697,
      "v": 83
    },
    {
      "midi": 50,
      "hit": false,
      "t": 152651.8399999998,
      "d": 108.41749999998137,
      "v": 83
    },
    {
      "midi": 62,
      "hit": false,
      "t": 152651.8399999998,
      "d": 121.17249999998603,
      "v": 83
    },
    {
      "midi": 43,
      "hit": false,
      "t": 152651.8399999998,
      "d": 127.54999999998836,
      "v": 83
    },
    {
      "midi": 50,
      "hit": false,
      "t": 152855.91999999978,
      "d": 29.76166666665813,
      "v": 83
    },
    {
      "midi": 86,
      "hit": false,
      "t": 152855.91999999978,
      "d": 59.52333333331626,
      "v": 82
    },
    {
      "midi": 55,
      "hit": false,
      "t": 152855.91999999978,
      "d": 78.65583333332324,
      "v": 83
    },
    {
      "midi": 83,
      "hit": false,
      "t": 152855.91999999978,
      "d": 85.03333333332557,
      "v": 61
    },
    {
      "midi": 91,
      "hit": false,
      "t": 152855.91999999978,
      "d": 85.03333333332557,
      "v": 90
    },
    {
      "midi": 62,
      "hit": false,
      "t": 152855.91999999978,
      "d": 121.17249999998603,
      "v": 83
    },
    {
      "midi": 43,
      "hit": false,
      "t": 152855.91999999978,
      "d": 159.4375,
      "v": 83
    },
    {
      "midi": 43,
      "hit": false,
      "t": 153059.99999999977,
      "d": 65.90083333331859,
      "v": 83
    },
    {
      "midi": 55,
      "hit": false,
      "t": 153059.99999999977,
      "d": 104.16583333333256,
      "v": 83
    },
    {
      "midi": 52,
      "hit": false,
      "t": 153059.99999999977,
      "d": 110.54333333333489,
      "v": 83
    },
    {
      "midi": 64,
      "hit": false,
      "t": 153059.99999999977,
      "d": 121.17250000001513,
      "v": 83
    },
    {
      "midi": 86,
      "hit": false,
      "t": 153077.00666666642,
      "d": 53.145833333343035,
      "v": 82
    },
    {
      "midi": 83,
      "hit": false,
      "t": 153077.00666666642,
      "d": 76.52999999999884,
      "v": 66
    },
    {
      "midi": 91,
      "hit": false,
      "t": 153077.00666666642,
      "d": 80.78166666667676,
      "v": 94
    },
    {
      "midi": 86,
      "hit": false,
      "t": 153264.07999999978,
      "d": 59.52333333334536,
      "v": 82
    },
    {
      "midi": 55,
      "hit": false,
      "t": 153264.07999999978,
      "d": 76.52999999999884,
      "v": 83
    },
    {
      "midi": 83,
      "hit": false,
      "t": 153264.07999999978,
      "d": 87.15916666667908,
      "v": 59
    },
    {
      "midi": 43,
      "hit": false,
      "t": 153264.07999999978,
      "d": 93.53666666668141,
      "v": 83
    },
    {
      "midi": 91,
      "hit": false,
      "t": 153264.07999999978,
      "d": 93.53666666668141,
      "v": 86
    },
    {
      "midi": 50,
      "hit": false,
      "t": 153264.07999999978,
      "d": 97.78833333335933,
      "v": 83
    },
    {
      "midi": 62,
      "hit": false,
      "t": 153264.07999999978,
      "d": 110.54333333336399,
      "v": 83
    },
    {
      "midi": 86,
      "hit": false,
      "t": 153468.1599999998,
      "d": 72.27833333332092,
      "v": 90
    },
    {
      "midi": 50,
      "hit": false,
      "t": 153468.1599999998,
      "d": 93.53666666665231,
      "v": 83
    },
    {
      "midi": 83,
      "hit": false,
      "t": 153468.1599999998,
      "d": 95.66249999997672,
      "v": 70
    },
    {
      "midi": 55,
      "hit": false,
      "t": 153468.1599999998,
      "d": 99.91416666665464,
      "v": 83
    },
    {
      "midi": 91,
      "hit": false,
      "t": 153468.1599999998,
      "d": 99.91416666665464,
      "v": 94
    },
    {
      "midi": 43,
      "hit": false,
      "t": 153468.1599999998,
      "d": 131.80166666666628,
      "v": 83
    },
    {
      "midi": 62,
      "hit": false,
      "t": 153468.1599999998,
      "d": 133.9274999999907,
      "v": 83
    },
    {
      "midi": 55,
      "hit": false,
      "t": 153672.2399999998,
      "d": 78.65583333332324,
      "v": 83
    },
    {
      "midi": 43,
      "hit": false,
      "t": 153672.2399999998,
      "d": 99.91416666668374,
      "v": 83
    },
    {
      "midi": 50,
      "hit": false,
      "t": 153672.2399999998,
      "d": 106.29166666668607,
      "v": 83
    },
    {
      "midi": 62,
      "hit": false,
      "t": 153672.2399999998,
      "d": 119.04666666669073,
      "v": 83
    },
    {
      "midi": 86,
      "hit": false,
      "t": 153689.24666666644,
      "d": 53.145833333343035,
      "v": 90
    },
    {
      "midi": 83,
      "hit": false,
      "t": 153689.24666666644,
      "d": 72.27833333335002,
      "v": 66
    },
    {
      "midi": 91,
      "hit": false,
      "t": 153689.24666666644,
      "d": 91.410833333357,
      "v": 94
    },
    {
      "midi": 86,
      "hit": false,
      "t": 153876.3199999998,
      "d": 68.0266666666721,
      "v": 103
    },
    {
      "midi": 83,
      "hit": false,
      "t": 153876.3199999998,
      "d": 80.78166666667676,
      "v": 78
    },
    {
      "midi": 91,
      "hit": false,
      "t": 153876.3199999998,
      "d": 89.28500000000349,
      "v": 103
    },
    {
      "midi": 43,
      "hit": false,
      "t": 153876.3199999998,
      "d": 119.04666666666162,
      "v": 83
    },
    {
      "midi": 55,
      "hit": false,
      "t": 153876.3199999998,
      "d": 119.04666666666162,
      "v": 83
    },
    {
      "midi": 64,
      "hit": false,
      "t": 153876.3199999998,
      "d": 163.68916666664882,
      "v": 83
    },
    {
      "midi": 52,
      "hit": false,
      "t": 153876.3199999998,
      "d": 167.94083333332674,
      "v": 83
    },
    {
      "midi": 86,
      "hit": false,
      "t": 154080.3999999998,
      "d": 57.39749999999185,
      "v": 86
    },
    {
      "midi": 50,
      "hit": false,
      "t": 154080.3999999998,
      "d": 72.27833333332092,
      "v": 83
    },
    {
      "midi": 55,
      "hit": false,
      "t": 154080.3999999998,
      "d": 76.52999999999884,
      "v": 83
    },
    {
      "midi": 83,
      "hit": false,
      "t": 154080.3999999998,
      "d": 76.52999999999884,
      "v": 78
    },
    {
      "midi": 43,
      "hit": false,
      "t": 154080.3999999998,
      "d": 82.90750000000116,
      "v": 83
    },
    {
      "midi": 91,
      "hit": false,
      "t": 154080.3999999998,
      "d": 89.28500000000349,
      "v": 94
    },
    {
      "midi": 62,
      "hit": false,
      "t": 154080.3999999998,
      "d": 91.4108333333279,
      "v": 83
    },
    {
      "midi": 81,
      "hit": false,
      "t": 154284.47999999978,
      "d": 55.27166666666744,
      "v": 61
    },
    {
      "midi": 86,
      "hit": false,
      "t": 154284.47999999978,
      "d": 89.28500000000349,
      "v": 90
    },
    {
      "midi": 57,
      "hit": false,
      "t": 154284.47999999978,
      "d": 91.4108333333279,
      "v": 83
    },
    {
      "midi": 90,
      "hit": false,
      "t": 154284.47999999978,
      "d": 91.4108333333279,
      "v": 90
    },
    {
      "midi": 62,
      "hit": false,
      "t": 154284.47999999978,
      "d": 102.04000000000815,
      "v": 83
    },
    {
      "midi": 81,
      "hit": false,
      "t": 154488.5599999998,
      "d": 63.77499999999418,
      "v": 61
    },
    {
      "midi": 86,
      "hit": false,
      "t": 154488.5599999998,
      "d": 82.90750000000116,
      "v": 78
    },
    {
      "midi": 62,
      "hit": false,
      "t": 154488.5599999998,
      "d": 93.53666666668141,
      "v": 83
    },
    {
      "midi": 90,
      "hit": false,
      "t": 154488.5599999998,
      "d": 93.53666666668141,
      "v": 86
    },
    {
      "midi": 57,
      "hit": false,
      "t": 154488.5599999998,
      "d": 102.04000000000815,
      "v": 83
    },
    {
      "midi": 81,
      "hit": false,
      "t": 154692.6399999998,
      "d": 85.03333333332557,
      "v": 62
    },
    {
      "midi": 86,
      "hit": false,
      "t": 154692.6399999998,
      "d": 87.15916666664998,
      "v": 82
    },
    {
      "midi": 90,
      "hit": false,
      "t": 154692.6399999998,
      "d": 93.53666666665231,
      "v": 86
    },
    {
      "midi": 59,
      "hit": false,
      "t": 154692.6399999998,
      "d": 97.78833333333023,
      "v": 83
    },
    {
      "midi": 62,
      "hit": false,
      "t": 154692.6399999998,
      "d": 119.04666666666162,
      "v": 83
    },
    {
      "midi": 86,
      "hit": false,
      "t": 154896.7199999998,
      "d": 82.90750000000116,
      "v": 82
    },
    {
      "midi": 90,
      "hit": false,
      "t": 154896.7199999998,
      "d": 87.15916666667908,
      "v": 82
    },
    {
      "midi": 81,
      "hit": false,
      "t": 154896.7199999998,
      "d": 89.28500000000349,
      "v": 62
    },
    {
      "midi": 59,
      "hit": false,
      "t": 154896.7199999998,
      "d": 102.04000000000815,
      "v": 83
    },
    {
      "midi": 62,
      "hit": false,
      "t": 154896.7199999998,
      "d": 116.92083333333721,
      "v": 83
    },
    {
      "midi": 86,
      "hit": false,
      "t": 155100.7999999998,
      "d": 74.40416666667443,
      "v": 86
    },
    {
      "midi": 90,
      "hit": false,
      "t": 155100.7999999998,
      "d": 76.52999999999884,
      "v": 94
    },
    {
      "midi": 81,
      "hit": false,
      "t": 155100.7999999998,
      "d": 82.90750000000116,
      "v": 61
    },
    {
      "midi": 62,
      "hit": false,
      "t": 155100.7999999998,
      "d": 104.16583333333256,
      "v": 83
    },
    {
      "midi": 57,
      "hit": false,
      "t": 155100.7999999998,
      "d": 121.17249999998603,
      "v": 83
    },
    {
      "midi": 81,
      "hit": false,
      "t": 155304.8799999998,
      "d": 65.90083333334769,
      "v": 59
    },
    {
      "midi": 86,
      "hit": false,
      "t": 155304.8799999998,
      "d": 74.40416666667443,
      "v": 90
    },
    {
      "midi": 90,
      "hit": false,
      "t": 155304.8799999998,
      "d": 76.52999999999884,
      "v": 90
    },
    {
      "midi": 62,
      "hit": false,
      "t": 155304.8799999998,
      "d": 112.6691666666593,
      "v": 83
    },
    {
      "midi": 57,
      "hit": false,
      "t": 155304.8799999998,
      "d": 119.04666666666162,
      "v": 83
    },
    {
      "midi": 81,
      "hit": false,
      "t": 155508.9599999998,
      "d": 74.40416666667443,
      "v": 59
    },
    {
      "midi": 86,
      "hit": false,
      "t": 155508.9599999998,
      "d": 80.78166666667676,
      "v": 86
    },
    {
      "midi": 90,
      "hit": false,
      "t": 155508.9599999998,
      "d": 82.90750000000116,
      "v": 94
    },
    {
      "midi": 59,
      "hit": false,
      "t": 155508.9599999998,
      "d": 102.04000000000815,
      "v": 83
    },
    {
      "midi": 62,
      "hit": false,
      "t": 155508.9599999998,
      "d": 106.29166666668607,
      "v": 83
    },
    {
      "midi": 81,
      "hit": false,
      "t": 155713.0399999998,
      "d": 63.77499999999418,
      "v": 59
    },
    {
      "midi": 86,
      "hit": false,
      "t": 155713.0399999998,
      "d": 65.90083333331859,
      "v": 86
    },
    {
      "midi": 90,
      "hit": false,
      "t": 155713.0399999998,
      "d": 74.40416666664532,
      "v": 94
    },
    {
      "midi": 62,
      "hit": false,
      "t": 155713.0399999998,
      "d": 125.42416666663485,
      "v": 83
    },
    {
      "midi": 57,
      "hit": false,
      "t": 155713.0399999998,
      "d": 131.80166666663717,
      "v": 83
    },
    {
      "midi": 83,
      "hit": false,
      "t": 155917.11999999976,
      "d": 51.01999999998952,
      "v": 78
    },
    {
      "midi": 86,
      "hit": false,
      "t": 155917.11999999976,
      "d": 65.90083333331859,
      "v": 90
    },
    {
      "midi": 55,
      "hit": false,
      "t": 155917.11999999976,
      "d": 97.78833333333023,
      "v": 83
    },
    {
      "midi": 62,
      "hit": false,
      "t": 155917.11999999976,
      "d": 97.78833333333023,
      "v": 83
    },
    {
      "midi": 50,
      "hit": false,
      "t": 155917.11999999976,
      "d": 102.04000000000815,
      "v": 83
    },
    {
      "midi": 91,
      "hit": false,
      "t": 155917.11999999976,
      "d": 108.41750000001048,
      "v": 103
    },
    {
      "midi": 43,
      "hit": false,
      "t": 155917.11999999976,
      "d": 125.42416666666395,
      "v": 83
    },
    {
      "midi": 43,
      "hit": false,
      "t": 156121.19999999975,
      "d": 25.510000000009313,
      "v": 83
    },
    {
      "midi": 86,
      "hit": false,
      "t": 156121.19999999975,
      "d": 68.0266666666721,
      "v": 90
    },
    {
      "midi": 83,
      "hit": false,
      "t": 156121.19999999975,
      "d": 72.27833333335002,
      "v": 62
    },
    {
      "midi": 91,
      "hit": false,
      "t": 156121.19999999975,
      "d": 82.90750000003027,
      "v": 90
    },
    {
      "midi": 55,
      "hit": false,
      "t": 156121.19999999975,
      "d": 93.53666666671052,
      "v": 83
    },
    {
      "midi": 62,
      "hit": false,
      "t": 156121.19999999975,
      "d": 114.79500000004191,
      "v": 83
    },
    {
      "midi": 50,
      "hit": false,
      "t": 156121.19999999975,
      "d": 119.04666666671983,
      "v": 83
    },
    {
      "midi": 55,
      "hit": false,
      "t": 156325.2799999998,
      "d": 99.91416666665464,
      "v": 83
    },
    {
      "midi": 64,
      "hit": false,
      "t": 156325.2799999998,
      "d": 106.29166666665697,
      "v": 83
    },
    {
      "midi": 43,
      "hit": false,
      "t": 156325.2799999998,
      "d": 142.43083333334653,
      "v": 83
    },
    {
      "midi": 52,
      "hit": false,
      "t": 156325.2799999998,
      "d": 153.06000000002678,
      "v": 83
    },
    {
      "midi": 86,
      "hit": false,
      "t": 156342.28666666645,
      "d": 68.0266666666721,
      "v": 86
    },
    {
      "midi": 83,
      "hit": false,
      "t": 156342.28666666645,
      "d": 70.15249999999651,
      "v": 60
    },
    {
      "midi": 91,
      "hit": false,
      "t": 156342.28666666645,
      "d": 93.53666666668141,
      "v": 94
    },
    {
      "midi": 86,
      "hit": false,
      "t": 156529.3599999998,
      "d": 70.15249999999651,
      "v": 82
    },
    {
      "midi": 50,
      "hit": false,
      "t": 156529.3599999998,
      "d": 72.27833333332092,
      "v": 83
    },
    {
      "midi": 83,
      "hit": false,
      "t": 156529.3599999998,
      "d": 74.40416666664532,
      "v": 61
    },
    {
      "midi": 91,
      "hit": false,
      "t": 156529.3599999998,
      "d": 85.03333333332557,
      "v": 94
    },
    {
      "midi": 55,
      "hit": false,
      "t": 156529.3599999998,
      "d": 91.4108333333279,
      "v": 83
    },
    {
      "midi": 62,
      "hit": false,
      "t": 156529.3599999998,
      "d": 91.4108333333279,
      "v": 83
    },
    {
      "midi": 86,
      "hit": false,
      "t": 156733.4399999998,
      "d": 70.15249999999651,
      "v": 90
    },
    {
      "midi": 83,
      "hit": false,
      "t": 156733.4399999998,
      "d": 80.78166666667676,
      "v": 62
    },
    {
      "midi": 55,
      "hit": false,
      "t": 156733.4399999998,
      "d": 95.66250000000582,
      "v": 83
    },
    {
      "midi": 91,
      "hit": false,
      "t": 156733.4399999998,
      "d": 97.78833333333023,
      "v": 90
    },
    {
      "midi": 50,
      "hit": false,
      "t": 156733.4399999998,
      "d": 99.91416666665464,
      "v": 83
    },
    {
      "midi": 43,
      "hit": false,
      "t": 156733.4399999998,
      "d": 106.29166666665697,
      "v": 83
    },
    {
      "midi": 62,
      "hit": false,
      "t": 156733.4399999998,
      "d": 106.29166666665697,
      "v": 83
    },
    {
      "midi": 43,
      "hit": false,
      "t": 156937.5199999998,
      "d": 57.39749999999185,
      "v": 83
    },
    {
      "midi": 83,
      "hit": false,
      "t": 156937.5199999998,
      "d": 68.0266666666721,
      "v": 50
    },
    {
      "midi": 86,
      "hit": false,
      "t": 156937.5199999998,
      "d": 70.15249999999651,
      "v": 82
    },
    {
      "midi": 55,
      "hit": false,
      "t": 156937.5199999998,
      "d": 91.4108333333279,
      "v": 83
    },
    {
      "midi": 91,
      "hit": false,
      "t": 156937.5199999998,
      "d": 93.53666666665231,
      "v": 86
    },
    {
      "midi": 62,
      "hit": false,
      "t": 156937.5199999998,
      "d": 104.16583333333256,
      "v": 83
    },
    {
      "midi": 50,
      "hit": false,
      "t": 156937.5199999998,
      "d": 110.54333333333489,
      "v": 83
    },
    {
      "midi": 83,
      "hit": false,
      "t": 157141.59999999977,
      "d": 91.4108333333279,
      "v": 70
    },
    {
      "midi": 55,
      "hit": false,
      "t": 157141.59999999977,
      "d": 114.7949999999837,
      "v": 83
    },
    {
      "midi": 64,
      "hit": false,
      "t": 157141.59999999977,
      "d": 119.04666666663252,
      "v": 83
    },
    {
      "midi": 43,
      "hit": false,
      "t": 157141.59999999977,
      "d": 140.3049999999639,
      "v": 83
    },
    {
      "midi": 52,
      "hit": false,
      "t": 157141.59999999977,
      "d": 142.43083333328832,
      "v": 83
    },
    {
      "midi": 86,
      "hit": false,
      "t": 157158.60666666643,
      "d": 68.0266666666721,
      "v": 82
    },
    {
      "midi": 91,
      "hit": false,
      "t": 157158.60666666643,
      "d": 99.91416666665464,
      "v": 94
    },
    {
      "midi": 43,
      "hit": false,
      "t": 157345.67999999973,
      "d": 40.390833333309274,
      "v": 83
    },
    {
      "midi": 86,
      "hit": false,
      "t": 157345.67999999973,
      "d": 65.90083333331859,
      "v": 82
    },
    {
      "midi": 83,
      "hit": false,
      "t": 157345.67999999973,
      "d": 72.27833333332092,
      "v": 55
    },
    {
      "midi": 50,
      "hit": false,
      "t": 157345.67999999973,
      "d": 91.4108333333279,
      "v": 83
    },
    {
      "midi": 62,
      "hit": false,
      "t": 157345.67999999973,
      "d": 116.92083333330811,
      "v": 83
    },
    {
      "midi": 55,
      "hit": false,
      "t": 157345.67999999973,
      "d": 123.29833333331044,
      "v": 83
    },
    {
      "midi": 91,
      "hit": false,
      "t": 157362.68666666638,
      "d": 97.78833333333023,
      "v": 86
    },
    {
      "midi": 86,
      "hit": false,
      "t": 157549.75999999972,
      "d": 70.15249999999651,
      "v": 90
    },
    {
      "midi": 83,
      "hit": false,
      "t": 157549.75999999972,
      "d": 93.53666666665231,
      "v": 61
    },
    {
      "midi": 91,
      "hit": false,
      "t": 157549.75999999972,
      "d": 104.16583333333256,
      "v": 90
    },
    {
      "midi": 43,
      "hit": false,
      "t": 157549.75999999972,
      "d": 108.41750000001048,
      "v": 83
    },
    {
      "midi": 55,
      "hit": false,
      "t": 157549.75999999972,
      "d": 110.54333333333489,
      "v": 83
    },
    {
      "midi": 50,
      "hit": false,
      "t": 157549.75999999972,
      "d": 112.6691666666593,
      "v": 83
    },
    {
      "midi": 62,
      "hit": false,
      "t": 157549.75999999972,
      "d": 114.7949999999837,
      "v": 83
    },
    {
      "midi": 86,
      "hit": false,
      "t": 157753.8399999997,
      "d": 65.90083333334769,
      "v": 90
    },
    {
      "midi": 83,
      "hit": false,
      "t": 157753.8399999997,
      "d": 80.78166666667676,
      "v": 59
    },
    {
      "midi": 43,
      "hit": false,
      "t": 157753.8399999997,
      "d": 82.90750000000116,
      "v": 83
    },
    {
      "midi": 91,
      "hit": false,
      "t": 157753.8399999997,
      "d": 87.15916666667908,
      "v": 90
    },
    {
      "midi": 55,
      "hit": false,
      "t": 157753.8399999997,
      "d": 99.91416666668374,
      "v": 83
    },
    {
      "midi": 62,
      "hit": false,
      "t": 157753.8399999997,
      "d": 104.16583333336166,
      "v": 83
    },
    {
      "midi": 50,
      "hit": false,
      "t": 157753.8399999997,
      "d": 114.79500000004191,
      "v": 83
    },
    {
      "midi": 55,
      "hit": false,
      "t": 157957.91999999975,
      "d": 82.90750000000116,
      "v": 83
    },
    {
      "midi": 64,
      "hit": false,
      "t": 157957.91999999975,
      "d": 106.29166666668607,
      "v": 83
    },
    {
      "midi": 83,
      "hit": false,
      "t": 157957.91999999975,
      "d": 110.54333333336399,
      "v": 70
    },
    {
      "midi": 52,
      "hit": false,
      "t": 157957.91999999975,
      "d": 133.9275000000489,
      "v": 83
    },
    {
      "midi": 43,
      "hit": false,
      "t": 157957.91999999975,
      "d": 144.55666666672914,
      "v": 83
    },
    {
      "midi": 86,
      "hit": false,
      "t": 157974.9266666664,
      "d": 70.15250000002561,
      "v": 90
    },
    {
      "midi": 91,
      "hit": false,
      "t": 157974.9266666664,
      "d": 104.16583333339076,
      "v": 90
    },
    {
      "midi": 86,
      "hit": false,
      "t": 158161.99999999983,
      "d": 68.0266666666721,
      "v": 86
    },
    {
      "midi": 83,
      "hit": false,
      "t": 158161.99999999983,
      "d": 85.03333333332557,
      "v": 60
    },
    {
      "midi": 43,
      "hit": false,
      "t": 158161.99999999983,
      "d": 91.4108333333279,
      "v": 83
    },
    {
      "midi": 91,
      "hit": false,
      "t": 158161.99999999983,
      "d": 97.78833333333023,
      "v": 86
    },
    {
      "midi": 50,
      "hit": false,
      "t": 158161.99999999983,
      "d": 104.16583333333256,
      "v": 83
    },
    {
      "midi": 55,
      "hit": false,
      "t": 158161.99999999983,
      "d": 331.63000000000466,
      "v": 83
    },
    {
      "midi": 62,
      "hit": false,
      "t": 158161.99999999983,
      "d": 335.8816666666826,
      "v": 83
    },
    {
      "midi": 86,
      "hit": false,
      "t": 158366.0799999998,
      "d": 80.78166666667676,
      "v": 86
    },
    {
      "midi": 83,
      "hit": false,
      "t": 158366.0799999998,
      "d": 106.29166666668607,
      "v": 59
    },
    {
      "midi": 91,
      "hit": false,
      "t": 158366.0799999998,
      "d": 114.7950000000128,
      "v": 86
    },
    {
      "midi": 50,
      "hit": false,
      "t": 158366.0799999998,
      "d": 121.17250000001513,
      "v": 83
    },
    {
      "midi": 43,
      "hit": false,
      "t": 158366.0799999998,
      "d": 131.80166666669538,
      "v": 83
    },
    {
      "midi": 86,
      "hit": false,
      "t": 158570.15999999983,
      "d": 61.64916666664067,
      "v": 74
    },
    {
      "midi": 83,
      "hit": false,
      "t": 158570.15999999983,
      "d": 63.774999999965075,
      "v": 62
    },
    {
      "midi": 55,
      "hit": false,
      "t": 158570.15999999983,
      "d": 82.90749999997206,
      "v": 83
    },
    {
      "midi": 62,
      "hit": false,
      "t": 158570.15999999983,
      "d": 93.53666666665231,
      "v": 83
    },
    {
      "midi": 43,
      "hit": false,
      "t": 158570.15999999983,
      "d": 106.29166666665697,
      "v": 83
    },
    {
      "midi": 50,
      "hit": false,
      "t": 158570.15999999983,
      "d": 114.7949999999837,
      "v": 83
    },
    {
      "midi": 91,
      "hit": false,
      "t": 158587.16666666648,
      "d": 97.78833333333023,
      "v": 86
    },
    {
      "midi": 86,
      "hit": false,
      "t": 158774.23999999982,
      "d": 72.27833333332092,
      "v": 90
    },
    {
      "midi": 83,
      "hit": false,
      "t": 158774.23999999982,
      "d": 82.90750000000116,
      "v": 66
    },
    {
      "midi": 55,
      "hit": false,
      "t": 158774.23999999982,
      "d": 87.15916666667908,
      "v": 83
    },
    {
      "midi": 91,
      "hit": false,
      "t": 158774.23999999982,
      "d": 97.78833333335933,
      "v": 94
    },
    {
      "midi": 64,
      "hit": false,
      "t": 158774.23999999982,
      "d": 99.91416666668374,
      "v": 83
    },
    {
      "midi": 43,
      "hit": false,
      "t": 158774.23999999982,
      "d": 110.54333333336399,
      "v": 83
    },
    {
      "midi": 52,
      "hit": false,
      "t": 158774.23999999982,
      "d": 114.79500000004191,
      "v": 83
    },
    {
      "midi": 86,
      "hit": false,
      "t": 158978.31999999986,
      "d": 61.64916666666977,
      "v": 90
    },
    {
      "midi": 83,
      "hit": false,
      "t": 158978.31999999986,
      "d": 68.0266666666721,
      "v": 74
    },
    {
      "midi": 55,
      "hit": false,
      "t": 158978.31999999986,
      "d": 74.40416666667443,
      "v": 83
    },
    {
      "midi": 91,
      "hit": false,
      "t": 158978.31999999986,
      "d": 87.15916666667908,
      "v": 94
    },
    {
      "midi": 62,
      "hit": false,
      "t": 158978.31999999986,
      "d": 91.410833333357,
      "v": 83
    },
    {
      "midi": 43,
      "hit": false,
      "t": 158978.31999999986,
      "d": 95.66250000003492,
      "v": 83
    },
    {
      "midi": 50,
      "hit": false,
      "t": 158978.31999999986,
      "d": 102.04000000003725,
      "v": 83
    },
    {
      "midi": 86,
      "hit": false,
      "t": 159182.3999999999,
      "d": 59.52333333334536,
      "v": 82
    },
    {
      "midi": 83,
      "hit": false,
      "t": 159182.3999999999,
      "d": 80.78166666667676,
      "v": 60
    },
    {
      "midi": 91,
      "hit": false,
      "t": 159182.3999999999,
      "d": 97.78833333333023,
      "v": 86
    },
    {
      "midi": 50,
      "hit": false,
      "t": 159182.3999999999,
      "d": 102.04000000000815,
      "v": 83
    },
    {
      "midi": 55,
      "hit": false,
      "t": 159182.3999999999,
      "d": 104.16583333333256,
      "v": 83
    },
    {
      "midi": 62,
      "hit": false,
      "t": 159182.3999999999,
      "d": 119.04666666666162,
      "v": 83
    },
    {
      "midi": 43,
      "hit": false,
      "t": 159182.3999999999,
      "d": 123.29833333333954,
      "v": 83
    },
    {
      "midi": 50,
      "hit": false,
      "t": 159386.47999999992,
      "d": 29.76166666665813,
      "v": 83
    },
    {
      "midi": 86,
      "hit": false,
      "t": 159386.47999999992,
      "d": 59.52333333331626,
      "v": 82
    },
    {
      "midi": 55,
      "hit": false,
      "t": 159386.47999999992,
      "d": 76.52999999996973,
      "v": 83
    },
    {
      "midi": 83,
      "hit": false,
      "t": 159386.47999999992,
      "d": 82.90749999997206,
      "v": 61
    },
    {
      "midi": 91,
      "hit": false,
      "t": 159386.47999999992,
      "d": 85.03333333329647,
      "v": 90
    },
    {
      "midi": 62,
      "hit": false,
      "t": 159386.47999999992,
      "d": 121.17249999995693,
      "v": 83
    },
    {
      "midi": 43,
      "hit": false,
      "t": 159386.47999999992,
      "d": 159.4374999999709,
      "v": 83
    },
    {
      "midi": 43,
      "hit": false,
      "t": 159590.55999999988,
      "d": 65.90083333331859,
      "v": 83
    },
    {
      "midi": 55,
      "hit": false,
      "t": 159590.55999999988,
      "d": 104.16583333333256,
      "v": 83
    },
    {
      "midi": 52,
      "hit": false,
      "t": 159590.55999999988,
      "d": 112.6691666666593,
      "v": 83
    },
    {
      "midi": 64,
      "hit": false,
      "t": 159590.55999999988,
      "d": 121.17249999998603,
      "v": 83
    },
    {
      "midi": 86,
      "hit": false,
      "t": 159607.56666666653,
      "d": 53.145833333343035,
      "v": 82
    },
    {
      "midi": 83,
      "hit": false,
      "t": 159607.56666666653,
      "d": 76.52999999999884,
      "v": 66
    },
    {
      "midi": 91,
      "hit": false,
      "t": 159607.56666666653,
      "d": 80.78166666667676,
      "v": 94
    },
    {
      "midi": 86,
      "hit": false,
      "t": 159794.63999999987,
      "d": 59.52333333334536,
      "v": 82
    },
    {
      "midi": 55,
      "hit": false,
      "t": 159794.63999999987,
      "d": 78.65583333335235,
      "v": 83
    },
    {
      "midi": 83,
      "hit": false,
      "t": 159794.63999999987,
      "d": 87.15916666667908,
      "v": 59
    },
    {
      "midi": 43,
      "hit": false,
      "t": 159794.63999999987,
      "d": 93.53666666668141,
      "v": 83
    },
    {
      "midi": 91,
      "hit": false,
      "t": 159794.63999999987,
      "d": 93.53666666668141,
      "v": 86
    },
    {
      "midi": 50,
      "hit": false,
      "t": 159794.63999999987,
      "d": 97.78833333335933,
      "v": 83
    },
    {
      "midi": 62,
      "hit": false,
      "t": 159794.63999999987,
      "d": 110.54333333336399,
      "v": 83
    },
    {
      "midi": 86,
      "hit": false,
      "t": 159998.71999999988,
      "d": 72.27833333332092,
      "v": 90
    },
    {
      "midi": 50,
      "hit": false,
      "t": 159998.71999999988,
      "d": 95.66249999997672,
      "v": 83
    },
    {
      "midi": 83,
      "hit": false,
      "t": 159998.71999999988,
      "d": 95.66249999997672,
      "v": 70
    },
    {
      "midi": 91,
      "hit": false,
      "t": 159998.71999999988,
      "d": 97.78833333330113,
      "v": 94
    },
    {
      "midi": 55,
      "hit": false,
      "t": 159998.71999999988,
      "d": 102.03999999997905,
      "v": 83
    },
    {
      "midi": 43,
      "hit": false,
      "t": 159998.71999999988,
      "d": 131.80166666663717,
      "v": 83
    },
    {
      "midi": 62,
      "hit": false,
      "t": 159998.71999999988,
      "d": 133.92749999996158,
      "v": 83
    },
    {
      "midi": 55,
      "hit": false,
      "t": 160202.79999999984,
      "d": 76.52999999999884,
      "v": 83
    },
    {
      "midi": 43,
      "hit": false,
      "t": 160202.79999999984,
      "d": 102.04000000000815,
      "v": 83
    },
    {
      "midi": 50,
      "hit": false,
      "t": 160202.79999999984,
      "d": 104.16583333333256,
      "v": 83
    },
    {
      "midi": 62,
      "hit": false,
      "t": 160202.79999999984,
      "d": 119.04666666666162,
      "v": 83
    },
    {
      "midi": 86,
      "hit": false,
      "t": 160219.8066666665,
      "d": 53.145833333343035,
      "v": 90
    },
    {
      "midi": 83,
      "hit": false,
      "t": 160219.8066666665,
      "d": 72.27833333335002,
      "v": 66
    },
    {
      "midi": 91,
      "hit": false,
      "t": 160219.8066666665,
      "d": 89.28500000000349,
      "v": 94
    },
    {
      "midi": 86,
      "hit": false,
      "t": 160406.87999999983,
      "d": 68.0266666666721,
      "v": 103
    },
    {
      "midi": 83,
      "hit": false,
      "t": 160406.87999999983,
      "d": 80.78166666667676,
      "v": 78
    },
    {
      "midi": 91,
      "hit": false,
      "t": 160406.87999999983,
      "d": 91.410833333357,
      "v": 103
    },
    {
      "midi": 43,
      "hit": false,
      "t": 160406.87999999983,
      "d": 119.04666666669073,
      "v": 83
    },
    {
      "midi": 55,
      "hit": false,
      "t": 160406.87999999983,
      "d": 121.17250000001513,
      "v": 83
    },
    {
      "midi": 64,
      "hit": false,
      "t": 160406.87999999983,
      "d": 163.68916666667792,
      "v": 83
    },
    {
      "midi": 52,
      "hit": false,
      "t": 160406.87999999983,
      "d": 167.94083333335584,
      "v": 83
    },
    {
      "midi": 86,
      "hit": false,
      "t": 160610.95999999985,
      "d": 57.39749999999185,
      "v": 86
    },
    {
      "midi": 50,
      "hit": false,
      "t": 160610.95999999985,
      "d": 72.27833333332092,
      "v": 83
    },
    {
      "midi": 55,
      "hit": false,
      "t": 160610.95999999985,
      "d": 76.52999999999884,
      "v": 83
    },
    {
      "midi": 83,
      "hit": false,
      "t": 160610.95999999985,
      "d": 76.52999999999884,
      "v": 78
    },
    {
      "midi": 43,
      "hit": false,
      "t": 160610.95999999985,
      "d": 85.03333333332557,
      "v": 83
    },
    {
      "midi": 62,
      "hit": false,
      "t": 160610.95999999985,
      "d": 89.28500000000349,
      "v": 83
    },
    {
      "midi": 91,
      "hit": false,
      "t": 160610.95999999985,
      "d": 91.4108333333279,
      "v": 94
    },
    {
      "midi": 81,
      "hit": false,
      "t": 160815.03999999983,
      "d": 53.145833333343035,
      "v": 61
    },
    {
      "midi": 86,
      "hit": false,
      "t": 160815.03999999983,
      "d": 89.28500000000349,
      "v": 90
    },
    {
      "midi": 57,
      "hit": false,
      "t": 160815.03999999983,
      "d": 91.4108333333279,
      "v": 83
    },
    {
      "midi": 90,
      "hit": false,
      "t": 160815.03999999983,
      "d": 91.4108333333279,
      "v": 90
    },
    {
      "midi": 62,
      "hit": false,
      "t": 160815.03999999983,
      "d": 104.16583333333256,
      "v": 83
    },
    {
      "midi": 81,
      "hit": false,
      "t": 161019.11999999982,
      "d": 61.64916666666977,
      "v": 61
    },
    {
      "midi": 86,
      "hit": false,
      "t": 161019.11999999982,
      "d": 82.90750000000116,
      "v": 78
    },
    {
      "midi": 62,
      "hit": false,
      "t": 161019.11999999982,
      "d": 91.4108333333279,
      "v": 83
    },
    {
      "midi": 90,
      "hit": false,
      "t": 161019.11999999982,
      "d": 91.4108333333279,
      "v": 86
    },
    {
      "midi": 57,
      "hit": false,
      "t": 161019.11999999982,
      "d": 102.04000000000815,
      "v": 83
    },
    {
      "midi": 81,
      "hit": false,
      "t": 161223.19999999984,
      "d": 82.90750000000116,
      "v": 62
    },
    {
      "midi": 86,
      "hit": false,
      "t": 161223.19999999984,
      "d": 85.03333333332557,
      "v": 82
    },
    {
      "midi": 59,
      "hit": false,
      "t": 161223.19999999984,
      "d": 93.53666666665231,
      "v": 83
    },
    {
      "midi": 90,
      "hit": false,
      "t": 161223.19999999984,
      "d": 95.66249999997672,
      "v": 86
    },
    {
      "midi": 62,
      "hit": false,
      "t": 161223.19999999984,
      "d": 114.7949999999837,
      "v": 83
    },
    {
      "midi": 86,
      "hit": false,
      "t": 161427.27999999982,
      "d": 82.90750000000116,
      "v": 82
    },
    {
      "midi": 81,
      "hit": false,
      "t": 161427.27999999982,
      "d": 85.03333333332557,
      "v": 62
    },
    {
      "midi": 90,
      "hit": false,
      "t": 161427.27999999982,
      "d": 87.15916666664998,
      "v": 82
    },
    {
      "midi": 59,
      "hit": false,
      "t": 161427.27999999982,
      "d": 102.03999999997905,
      "v": 83
    },
    {
      "midi": 62,
      "hit": false,
      "t": 161427.27999999982,
      "d": 116.92083333330811,
      "v": 83
    },
    {
      "midi": 86,
      "hit": false,
      "t": 161631.3599999998,
      "d": 74.40416666667443,
      "v": 86
    },
    {
      "midi": 90,
      "hit": false,
      "t": 161631.3599999998,
      "d": 76.52999999999884,
      "v": 94
    },
    {
      "midi": 81,
      "hit": false,
      "t": 161631.3599999998,
      "d": 82.90750000000116,
      "v": 61
    },
    {
      "midi": 62,
      "hit": false,
      "t": 161631.3599999998,
      "d": 102.04000000000815,
      "v": 83
    },
    {
      "midi": 57,
      "hit": false,
      "t": 161631.3599999998,
      "d": 121.17250000001513,
      "v": 83
    },
    {
      "midi": 81,
      "hit": false,
      "t": 161835.43999999983,
      "d": 65.90083333334769,
      "v": 59
    },
    {
      "midi": 86,
      "hit": false,
      "t": 161835.43999999983,
      "d": 74.40416666667443,
      "v": 90
    },
    {
      "midi": 90,
      "hit": false,
      "t": 161835.43999999983,
      "d": 78.65583333335235,
      "v": 90
    },
    {
      "midi": 62,
      "hit": false,
      "t": 161835.43999999983,
      "d": 112.6691666666884,
      "v": 83
    },
    {
      "midi": 57,
      "hit": false,
      "t": 161835.43999999983,
      "d": 119.04666666669073,
      "v": 83
    },
    {
      "midi": 81,
      "hit": false,
      "t": 162039.51999999984,
      "d": 76.52999999999884,
      "v": 59
    },
    {
      "midi": 86,
      "hit": false,
      "t": 162039.51999999984,
      "d": 80.78166666667676,
      "v": 86
    },
    {
      "midi": 90,
      "hit": false,
      "t": 162039.51999999984,
      "d": 85.03333333335468,
      "v": 94
    },
    {
      "midi": 59,
      "hit": false,
      "t": 162039.51999999984,
      "d": 102.04000000000815,
      "v": 83
    },
    {
      "midi": 62,
      "hit": false,
      "t": 162039.51999999984,
      "d": 106.29166666668607,
      "v": 83
    },
    {
      "midi": 81,
      "hit": false,
      "t": 162243.59999999986,
      "d": 65.90083333334769,
      "v": 59
    },
    {
      "midi": 86,
      "hit": false,
      "t": 162243.59999999986,
      "d": 68.0266666666721,
      "v": 86
    },
    {
      "midi": 90,
      "hit": false,
      "t": 162243.59999999986,
      "d": 74.40416666667443,
      "v": 94
    },
    {
      "midi": 62,
      "hit": false,
      "t": 162243.59999999986,
      "d": 125.42416666666395,
      "v": 83
    },
    {
      "midi": 57,
      "hit": false,
      "t": 162243.59999999986,
      "d": 131.80166666666628,
      "v": 83
    },
    {
      "midi": 83,
      "hit": false,
      "t": 162447.67999999985,
      "d": 51.01999999998952,
      "v": 78
    },
    {
      "midi": 86,
      "hit": false,
      "t": 162447.67999999985,
      "d": 65.90083333331859,
      "v": 90
    },
    {
      "midi": 55,
      "hit": false,
      "t": 162447.67999999985,
      "d": 97.78833333333023,
      "v": 83
    },
    {
      "midi": 62,
      "hit": false,
      "t": 162447.67999999985,
      "d": 97.78833333333023,
      "v": 83
    },
    {
      "midi": 50,
      "hit": false,
      "t": 162447.67999999985,
      "d": 102.04000000000815,
      "v": 83
    },
    {
      "midi": 91,
      "hit": false,
      "t": 162447.67999999985,
      "d": 108.41750000001048,
      "v": 103
    },
    {
      "midi": 43,
      "hit": false,
      "t": 162447.67999999985,
      "d": 125.42416666666395,
      "v": 83
    },
    {
      "midi": 43,
      "hit": false,
      "t": 162651.75999999983,
      "d": 25.510000000009313,
      "v": 83
    },
    {
      "midi": 86,
      "hit": false,
      "t": 162651.75999999983,
      "d": 68.0266666666721,
      "v": 90
    },
    {
      "midi": 83,
      "hit": false,
      "t": 162651.75999999983,
      "d": 74.40416666667443,
      "v": 62
    },
    {
      "midi": 91,
      "hit": false,
      "t": 162651.75999999983,
      "d": 82.90750000000116,
      "v": 90
    },
    {
      "midi": 55,
      "hit": false,
      "t": 162651.75999999983,
      "d": 95.66250000000582,
      "v": 83
    },
    {
      "midi": 62,
      "hit": false,
      "t": 162651.75999999983,
      "d": 114.7950000000128,
      "v": 83
    },
    {
      "midi": 50,
      "hit": false,
      "t": 162651.75999999983,
      "d": 121.17250000001513,
      "v": 83
    },
    {
      "midi": 55,
      "hit": false,
      "t": 162855.83999999985,
      "d": 102.03999999997905,
      "v": 83
    },
    {
      "midi": 64,
      "hit": false,
      "t": 162855.83999999985,
      "d": 110.54333333330578,
      "v": 83
    },
    {
      "midi": 43,
      "hit": false,
      "t": 162855.83999999985,
      "d": 144.55666666664183,
      "v": 83
    },
    {
      "midi": 52,
      "hit": false,
      "t": 162855.83999999985,
      "d": 155.18583333332208,
      "v": 83
    },
    {
      "midi": 86,
      "hit": false,
      "t": 162872.8466666665,
      "d": 68.0266666666721,
      "v": 86
    },
    {
      "midi": 83,
      "hit": false,
      "t": 162872.8466666665,
      "d": 70.15249999999651,
      "v": 60
    },
    {
      "midi": 91,
      "hit": false,
      "t": 162872.8466666665,
      "d": 95.66249999997672,
      "v": 94
    },
    {
      "midi": 86,
      "hit": false,
      "t": 163059.91999999984,
      "d": 70.15249999999651,
      "v": 82
    },
    {
      "midi": 50,
      "hit": false,
      "t": 163059.91999999984,
      "d": 72.27833333332092,
      "v": 83
    },
    {
      "midi": 83,
      "hit": false,
      "t": 163059.91999999984,
      "d": 74.40416666664532,
      "v": 61
    },
    {
      "midi": 91,
      "hit": false,
      "t": 163059.91999999984,
      "d": 85.03333333332557,
      "v": 94
    },
    {
      "midi": 55,
      "hit": false,
      "t": 163059.91999999984,
      "d": 91.4108333333279,
      "v": 83
    },
    {
      "midi": 62,
      "hit": false,
      "t": 163059.91999999984,
      "d": 91.4108333333279,
      "v": 83
    },
    {
      "midi": 86,
      "hit": false,
      "t": 163263.99999999983,
      "d": 70.15249999999651,
      "v": 90
    },
    {
      "midi": 83,
      "hit": false,
      "t": 163263.99999999983,
      "d": 80.78166666667676,
      "v": 62
    },
    {
      "midi": 55,
      "hit": false,
      "t": 163263.99999999983,
      "d": 95.66250000000582,
      "v": 83
    },
    {
      "midi": 91,
      "hit": false,
      "t": 163263.99999999983,
      "d": 97.78833333333023,
      "v": 90
    },
    {
      "midi": 50,
      "hit": false,
      "t": 163263.99999999983,
      "d": 99.91416666665464,
      "v": 83
    },
    {
      "midi": 43,
      "hit": false,
      "t": 163263.99999999983,
      "d": 108.41749999998137,
      "v": 83
    },
    {
      "midi": 62,
      "hit": false,
      "t": 163263.99999999983,
      "d": 108.41749999998137,
      "v": 83
    },
    {
      "midi": 43,
      "hit": false,
      "t": 163468.0799999998,
      "d": 57.39749999999185,
      "v": 83
    },
    {
      "midi": 83,
      "hit": false,
      "t": 163468.0799999998,
      "d": 68.0266666666721,
      "v": 50
    },
    {
      "midi": 86,
      "hit": false,
      "t": 163468.0799999998,
      "d": 68.0266666666721,
      "v": 82
    },
    {
      "midi": 55,
      "hit": false,
      "t": 163468.0799999998,
      "d": 91.4108333333279,
      "v": 83
    },
    {
      "midi": 91,
      "hit": false,
      "t": 163468.0799999998,
      "d": 91.4108333333279,
      "v": 86
    },
    {
      "midi": 62,
      "hit": false,
      "t": 163468.0799999998,
      "d": 106.29166666665697,
      "v": 83
    },
    {
      "midi": 50,
      "hit": false,
      "t": 163468.0799999998,
      "d": 110.54333333333489,
      "v": 83
    },
    {
      "midi": 83,
      "hit": false,
      "t": 163672.1599999998,
      "d": 89.28500000000349,
      "v": 70
    },
    {
      "midi": 55,
      "hit": false,
      "t": 163672.1599999998,
      "d": 114.7950000000128,
      "v": 83
    },
    {
      "midi": 64,
      "hit": false,
      "t": 163672.1599999998,
      "d": 116.92083333333721,
      "v": 83
    },
    {
      "midi": 43,
      "hit": false,
      "t": 163672.1599999998,
      "d": 140.30499999999302,
      "v": 83
    },
    {
      "midi": 52,
      "hit": false,
      "t": 163672.1599999998,
      "d": 140.30499999999302,
      "v": 83
    },
    {
      "midi": 86,
      "hit": false,
      "t": 163689.16666666645,
      "d": 68.0266666666721,
      "v": 82
    },
    {
      "midi": 91,
      "hit": false,
      "t": 163689.16666666645,
      "d": 99.91416666668374,
      "v": 94
    },
    {
      "midi": 43,
      "hit": false,
      "t": 163876.2399999998,
      "d": 40.390833333309274,
      "v": 83
    },
    {
      "midi": 86,
      "hit": false,
      "t": 163876.2399999998,
      "d": 65.90083333331859,
      "v": 82
    },
    {
      "midi": 83,
      "hit": false,
      "t": 163876.2399999998,
      "d": 72.27833333332092,
      "v": 55
    },
    {
      "midi": 50,
      "hit": false,
      "t": 163876.2399999998,
      "d": 91.4108333333279,
      "v": 83
    },
    {
      "midi": 62,
      "hit": false,
      "t": 163876.2399999998,
      "d": 116.92083333333721,
      "v": 83
    },
    {
      "midi": 55,
      "hit": false,
      "t": 163876.2399999998,
      "d": 119.04666666666162,
      "v": 83
    },
    {
      "midi": 91,
      "hit": false,
      "t": 163893.24666666644,
      "d": 95.66250000000582,
      "v": 86
    },
    {
      "midi": 86,
      "hit": false,
      "t": 164080.31999999977,
      "d": 70.15249999999651,
      "v": 90
    },
    {
      "midi": 83,
      "hit": false,
      "t": 164080.31999999977,
      "d": 91.4108333333279,
      "v": 61
    },
    {
      "midi": 43,
      "hit": false,
      "t": 164080.31999999977,
      "d": 108.41749999998137,
      "v": 83
    },
    {
      "midi": 55,
      "hit": false,
      "t": 164080.31999999977,
      "d": 110.54333333330578,
      "v": 83
    },
    {
      "midi": 50,
      "hit": false,
      "t": 164080.31999999977,
      "d": 112.66916666663019,
      "v": 83
    },
    {
      "midi": 62,
      "hit": false,
      "t": 164080.31999999977,
      "d": 112.66916666663019,
      "v": 83
    },
    {
      "midi": 91,
      "hit": false,
      "t": 164097.32666666643,
      "d": 102.03999999997905,
      "v": 90
    },
    {
      "midi": 86,
      "hit": false,
      "t": 164284.39999999973,
      "d": 65.90083333334769,
      "v": 90
    },
    {
      "midi": 83,
      "hit": false,
      "t": 164284.39999999973,
      "d": 80.78166666667676,
      "v": 59
    },
    {
      "midi": 43,
      "hit": false,
      "t": 164284.39999999973,
      "d": 82.90750000000116,
      "v": 83
    },
    {
      "midi": 91,
      "hit": false,
      "t": 164284.39999999973,
      "d": 87.15916666667908,
      "v": 90
    },
    {
      "midi": 55,
      "hit": false,
      "t": 164284.39999999973,
      "d": 97.78833333335933,
      "v": 83
    },
    {
      "midi": 62,
      "hit": false,
      "t": 164284.39999999973,
      "d": 104.16583333336166,
      "v": 83
    },
    {
      "midi": 50,
      "hit": false,
      "t": 164284.39999999973,
      "d": 114.79500000004191,
      "v": 83
    },
    {
      "midi": 55,
      "hit": false,
      "t": 164488.47999999978,
      "d": 82.90750000000116,
      "v": 83
    },
    {
      "midi": 64,
      "hit": false,
      "t": 164488.47999999978,
      "d": 106.29166666668607,
      "v": 83
    },
    {
      "midi": 83,
      "hit": false,
      "t": 164488.47999999978,
      "d": 110.54333333336399,
      "v": 70
    },
    {
      "midi": 52,
      "hit": false,
      "t": 164488.47999999978,
      "d": 133.9275000000489,
      "v": 83
    },
    {
      "midi": 43,
      "hit": false,
      "t": 164488.47999999978,
      "d": 142.43083333337563,
      "v": 83
    },
    {
      "midi": 86,
      "hit": false,
      "t": 164505.48666666643,
      "d": 70.15250000002561,
      "v": 90
    },
    {
      "midi": 91,
      "hit": false,
      "t": 164505.48666666643,
      "d": 104.16583333339076,
      "v": 90
    },
    {
      "midi": 86,
      "hit": false,
      "t": 164692.55999999982,
      "d": 65.90083333334769,
      "v": 86
    },
    {
      "midi": 83,
      "hit": false,
      "t": 164692.55999999982,
      "d": 85.03333333335468,
      "v": 60
    },
    {
      "midi": 43,
      "hit": false,
      "t": 164692.55999999982,
      "d": 91.410833333357,
      "v": 83
    },
    {
      "midi": 91,
      "hit": false,
      "t": 164692.55999999982,
      "d": 95.66250000003492,
      "v": 86
    },
    {
      "midi": 50,
      "hit": false,
      "t": 164692.55999999982,
      "d": 104.16583333336166,
      "v": 83
    },
    {
      "midi": 55,
      "hit": false,
      "t": 164692.55999999982,
      "d": 331.63000000003376,
      "v": 83
    },
    {
      "midi": 62,
      "hit": false,
      "t": 164692.55999999982,
      "d": 335.8816666667117,
      "v": 83
    },
    {
      "midi": 86,
      "hit": false,
      "t": 164896.63999999984,
      "d": 80.78166666667676,
      "v": 86
    },
    {
      "midi": 83,
      "hit": false,
      "t": 164896.63999999984,
      "d": 106.29166666668607,
      "v": 59
    },
    {
      "midi": 91,
      "hit": false,
      "t": 164896.63999999984,
      "d": 114.7950000000128,
      "v": 86
    },
    {
      "midi": 50,
      "hit": false,
      "t": 164896.63999999984,
      "d": 123.29833333333954,
      "v": 83
    },
    {
      "midi": 43,
      "hit": false,
      "t": 164896.63999999984,
      "d": 133.9275000000198,
      "v": 83
    },
    {
      "midi": 86,
      "hit": false,
      "t": 165100.71999999986,
      "d": 61.64916666664067,
      "v": 74
    },
    {
      "midi": 83,
      "hit": false,
      "t": 165100.71999999986,
      "d": 65.90083333331859,
      "v": 62
    },
    {
      "midi": 55,
      "hit": false,
      "t": 165100.71999999986,
      "d": 85.03333333332557,
      "v": 83
    },
    {
      "midi": 62,
      "hit": false,
      "t": 165100.71999999986,
      "d": 93.53666666665231,
      "v": 83
    },
    {
      "midi": 43,
      "hit": false,
      "t": 165100.71999999986,
      "d": 106.29166666665697,
      "v": 83
    },
    {
      "midi": 50,
      "hit": false,
      "t": 165100.71999999986,
      "d": 114.7949999999837,
      "v": 83
    },
    {
      "midi": 91,
      "hit": false,
      "t": 165117.7266666665,
      "d": 97.78833333333023,
      "v": 86
    },
    {
      "midi": 86,
      "hit": false,
      "t": 165304.79999999984,
      "d": 72.27833333332092,
      "v": 90
    },
    {
      "midi": 83,
      "hit": false,
      "t": 165304.79999999984,
      "d": 82.90750000000116,
      "v": 66
    },
    {
      "midi": 55,
      "hit": false,
      "t": 165304.79999999984,
      "d": 89.28500000000349,
      "v": 83
    },
    {
      "midi": 64,
      "hit": false,
      "t": 165304.79999999984,
      "d": 99.91416666668374,
      "v": 83
    },
    {
      "midi": 91,
      "hit": false,
      "t": 165304.79999999984,
      "d": 99.91416666668374,
      "v": 94
    },
    {
      "midi": 43,
      "hit": false,
      "t": 165304.79999999984,
      "d": 112.6691666666884,
      "v": 83
    },
    {
      "midi": 52,
      "hit": false,
      "t": 165304.79999999984,
      "d": 114.7950000000128,
      "v": 83
    },
    {
      "midi": 86,
      "hit": false,
      "t": 165508.87999999986,
      "d": 61.64916666666977,
      "v": 90
    },
    {
      "midi": 83,
      "hit": false,
      "t": 165508.87999999986,
      "d": 65.90083333334769,
      "v": 74
    },
    {
      "midi": 55,
      "hit": false,
      "t": 165508.87999999986,
      "d": 72.27833333335002,
      "v": 83
    },
    {
      "midi": 91,
      "hit": false,
      "t": 165508.87999999986,
      "d": 89.28500000000349,
      "v": 94
    },
    {
      "midi": 62,
      "hit": false,
      "t": 165508.87999999986,
      "d": 91.4108333333279,
      "v": 83
    },
    {
      "midi": 43,
      "hit": false,
      "t": 165508.87999999986,
      "d": 97.78833333333023,
      "v": 83
    },
    {
      "midi": 50,
      "hit": false,
      "t": 165508.87999999986,
      "d": 102.04000000000815,
      "v": 83
    },
    {
      "midi": 74,
      "hit": false,
      "t": 165712.95999999988,
      "d": 65.90083333334769,
      "v": 96
    },
    {
      "midi": 79,
      "hit": false,
      "t": 165712.95999999988,
      "d": 85.03333333335468,
      "v": 87
    },
    {
      "midi": 50,
      "hit": false,
      "t": 165712.95999999988,
      "d": 108.41750000001048,
      "v": 81
    },
    {
      "midi": 55,
      "hit": false,
      "t": 165712.95999999988,
      "d": 110.54333333333489,
      "v": 81
    },
    {
      "midi": 43,
      "hit": false,
      "t": 165712.95999999988,
      "d": 114.7950000000128,
      "v": 81
    },
    {
      "midi": 62,
      "hit": false,
      "t": 165712.95999999988,
      "d": 142.43083333334653,
      "v": 90
    },
    {
      "midi": 43,
      "hit": false,
      "t": 165917.0399999999,
      "d": 53.145833333343035,
      "v": 40
    },
    {
      "midi": 74,
      "hit": false,
      "t": 165917.0399999999,
      "d": 59.52333333334536,
      "v": 78
    },
    {
      "midi": 79,
      "hit": false,
      "t": 165917.0399999999,
      "d": 82.90750000000116,
      "v": 70
    },
    {
      "midi": 55,
      "hit": false,
      "t": 165917.0399999999,
      "d": 127.54999999998836,
      "v": 69
    },
    {
      "midi": 50,
      "hit": false,
      "t": 165917.0399999999,
      "d": 136.0533333333151,
      "v": 69
    },
    {
      "midi": 62,
      "hit": false,
      "t": 165917.0399999999,
      "d": 136.0533333333151,
      "v": 73
    },
    {
      "midi": 74,
      "hit": false,
      "t": 166121.11999999988,
      "d": 72.27833333332092,
      "v": 78
    },
    {
      "midi": 79,
      "hit": false,
      "t": 166121.11999999988,
      "d": 112.6691666666593,
      "v": 78
    },
    {
      "midi": 55,
      "hit": false,
      "t": 166121.11999999988,
      "d": 119.04666666666162,
      "v": 77
    },
    {
      "midi": 43,
      "hit": false,
      "t": 166121.11999999988,
      "d": 121.17249999998603,
      "v": 61
    },
    {
      "midi": 64,
      "hit": false,
      "t": 166121.11999999988,
      "d": 121.17249999998603,
      "v": 81
    },
    {
      "midi": 52,
      "hit": false,
      "t": 166121.11999999988,
      "d": 125.42416666666395,
      "v": 77
    },
    {
      "midi": 74,
      "hit": false,
      "t": 166325.19999999987,
      "d": 74.40416666667443,
      "v": 74
    },
    {
      "midi": 50,
      "hit": false,
      "t": 166325.19999999987,
      "d": 80.78166666667676,
      "v": 69
    },
    {
      "midi": 79,
      "hit": false,
      "t": 166325.19999999987,
      "d": 82.90750000000116,
      "v": 70
    },
    {
      "midi": 62,
      "hit": false,
      "t": 166325.19999999987,
      "d": 91.4108333333279,
      "v": 73
    },
    {
      "midi": 55,
      "hit": false,
      "t": 166325.19999999987,
      "d": 95.66250000000582,
      "v": 69
    },
    {
      "midi": 74,
      "hit": false,
      "t": 166529.27999999988,
      "d": 87.15916666667908,
      "v": 70
    },
    {
      "midi": 79,
      "hit": false,
      "t": 166529.27999999988,
      "d": 91.410833333357,
      "v": 70
    },
    {
      "midi": 62,
      "hit": false,
      "t": 166529.27999999988,
      "d": 121.17250000001513,
      "v": 90
    },
    {
      "midi": 79,
      "hit": false,
      "t": 166733.3599999999,
      "d": 59.52333333334536,
      "v": 44
    },
    {
      "midi": 74,
      "hit": false,
      "t": 166733.3599999999,
      "d": 70.15250000002561,
      "v": 54
    },
    {
      "midi": 62,
      "hit": false,
      "t": 166733.3599999999,
      "d": 106.29166666668607,
      "v": 77
    },
    {
      "midi": 74,
      "hit": false,
      "t": 166937.43999999992,
      "d": 72.27833333332092,
      "v": 78
    },
    {
      "midi": 79,
      "hit": false,
      "t": 166937.43999999992,
      "d": 102.03999999997905,
      "v": 78
    },
    {
      "midi": 64,
      "hit": false,
      "t": 166937.43999999992,
      "d": 140.30499999999302,
      "v": 77
    },
    {
      "midi": 74,
      "hit": false,
      "t": 167141.5199999999,
      "d": 61.64916666666977,
      "v": 74
    },
    {
      "midi": 79,
      "hit": false,
      "t": 167141.5199999999,
      "d": 76.52999999999884,
      "v": 74
    },
    {
      "midi": 62,
      "hit": false,
      "t": 167141.5199999999,
      "d": 78.65583333332324,
      "v": 65
    },
    {
      "midi": 62,
      "hit": false,
      "t": 167345.5999999999,
      "d": 97.78833333333023,
      "v": 81
    },
    {
      "midi": 74,
      "hit": false,
      "t": 167362.60666666654,
      "d": 59.52333333334536,
      "v": 78
    },
    {
      "midi": 81,
      "hit": false,
      "t": 167362.60666666654,
      "d": 87.15916666667908,
      "v": 87
    },
    {
      "midi": 74,
      "hit": false,
      "t": 167549.67999999988,
      "d": 72.27833333332092,
      "v": 78
    },
    {
      "midi": 81,
      "hit": false,
      "t": 167549.67999999988,
      "d": 74.40416666664532,
      "v": 78
    },
    {
      "midi": 62,
      "hit": false,
      "t": 167549.67999999988,
      "d": 76.52999999996973,
      "v": 69
    },
    {
      "midi": 62,
      "hit": false,
      "t": 167753.75999999983,
      "d": 87.15916666667908,
      "v": 73
    },
    {
      "midi": 74,
      "hit": false,
      "t": 167753.75999999983,
      "d": 99.91416666668374,
      "v": 66
    },
    {
      "midi": 81,
      "hit": false,
      "t": 167753.75999999983,
      "d": 102.04000000000815,
      "v": 70
    },
    {
      "midi": 62,
      "hit": false,
      "t": 167957.83999999985,
      "d": 72.27833333332092,
      "v": 57
    },
    {
      "midi": 74,
      "hit": false,
      "t": 167957.83999999985,
      "d": 74.40416666664532,
      "v": 70
    },
    {
      "midi": 81,
      "hit": false,
      "t": 167957.83999999985,
      "d": 80.78166666664765,
      "v": 74
    },
    {
      "midi": 74,
      "hit": false,
      "t": 168161.91999999984,
      "d": 82.90750000000116,
      "v": 87
    },
    {
      "midi": 81,
      "hit": false,
      "t": 168161.91999999984,
      "d": 102.04000000000815,
      "v": 78
    },
    {
      "midi": 62,
      "hit": false,
      "t": 168161.91999999984,
      "d": 108.41750000001048,
      "v": 73
    },
    {
      "midi": 74,
      "hit": false,
      "t": 168365.99999999985,
      "d": 80.78166666667676,
      "v": 54
    },
    {
      "midi": 81,
      "hit": false,
      "t": 168365.99999999985,
      "d": 82.90750000000116,
      "v": 70
    },
    {
      "midi": 62,
      "hit": false,
      "t": 168365.99999999985,
      "d": 112.6691666666593,
      "v": 57
    },
    {
      "midi": 74,
      "hit": false,
      "t": 168570.07999999984,
      "d": 76.52999999999884,
      "v": 78
    },
    {
      "midi": 62,
      "hit": false,
      "t": 168570.07999999984,
      "d": 95.66250000000582,
      "v": 81
    },
    {
      "midi": 81,
      "hit": false,
      "t": 168570.07999999984,
      "d": 97.78833333333023,
      "v": 87
    },
    {
      "midi": 74,
      "hit": false,
      "t": 168774.15999999983,
      "d": 78.65583333332324,
      "v": 70
    },
    {
      "midi": 81,
      "hit": false,
      "t": 168774.15999999983,
      "d": 78.65583333332324,
      "v": 74
    },
    {
      "midi": 62,
      "hit": false,
      "t": 168774.15999999983,
      "d": 106.29166666665697,
      "v": 48
    },
    {
      "midi": 74,
      "hit": false,
      "t": 168978.23999999982,
      "d": 80.78166666664765,
      "v": 87
    },
    {
      "midi": 62,
      "hit": false,
      "t": 168978.23999999982,
      "d": 108.41749999998137,
      "v": 81
    },
    {
      "midi": 81,
      "hit": false,
      "t": 168995.24666666647,
      "d": 91.4108333333279,
      "v": 78
    },
    {
      "midi": 62,
      "hit": false,
      "t": 169182.3199999998,
      "d": 80.78166666667676,
      "v": 65
    },
    {
      "midi": 74,
      "hit": false,
      "t": 169182.3199999998,
      "d": 85.03333333335468,
      "v": 62
    },
    {
      "midi": 81,
      "hit": false,
      "t": 169182.3199999998,
      "d": 91.410833333357,
      "v": 70
    },
    {
      "midi": 74,
      "hit": false,
      "t": 169386.39999999982,
      "d": 89.28500000000349,
      "v": 70
    },
    {
      "midi": 81,
      "hit": false,
      "t": 169386.39999999982,
      "d": 99.91416666668374,
      "v": 78
    },
    {
      "midi": 62,
      "hit": false,
      "t": 169386.39999999982,
      "d": 121.17250000001513,
      "v": 69
    },
    {
      "midi": 74,
      "hit": false,
      "t": 169590.47999999984,
      "d": 76.52999999999884,
      "v": 66
    },
    {
      "midi": 81,
      "hit": false,
      "t": 169590.47999999984,
      "d": 85.03333333332557,
      "v": 74
    },
    {
      "midi": 62,
      "hit": false,
      "t": 169590.47999999984,
      "d": 114.7949999999837,
      "v": 61
    },
    {
      "midi": 74,
      "hit": false,
      "t": 169794.55999999982,
      "d": 91.4108333333279,
      "v": 74
    },
    {
      "midi": 81,
      "hit": false,
      "t": 169794.55999999982,
      "d": 95.66250000000582,
      "v": 74
    },
    {
      "midi": 62,
      "hit": false,
      "t": 169794.55999999982,
      "d": 104.16583333333256,
      "v": 81
    },
    {
      "midi": 62,
      "hit": false,
      "t": 169998.6399999998,
      "d": 76.52999999999884,
      "v": 65
    },
    {
      "midi": 81,
      "hit": false,
      "t": 169998.6399999998,
      "d": 93.53666666665231,
      "v": 70
    },
    {
      "midi": 74,
      "hit": false,
      "t": 169998.6399999998,
      "d": 102.03999999997905,
      "v": 54
    },
    {
      "midi": 62,
      "hit": false,
      "t": 170202.7199999998,
      "d": 97.78833333333023,
      "v": 77
    },
    {
      "midi": 74,
      "hit": false,
      "t": 170202.7199999998,
      "d": 99.91416666665464,
      "v": 87
    },
    {
      "midi": 81,
      "hit": false,
      "t": 170202.7199999998,
      "d": 140.30499999999302,
      "v": 87
    },
    {
      "midi": 74,
      "hit": false,
      "t": 170406.79999999978,
      "d": 85.03333333332557,
      "v": 54
    },
    {
      "midi": 81,
      "hit": false,
      "t": 170406.79999999978,
      "d": 89.28500000000349,
      "v": 74
    },
    {
      "midi": 62,
      "hit": false,
      "t": 170406.79999999978,
      "d": 104.16583333333256,
      "v": 69
    },
    {
      "midi": 74,
      "hit": false,
      "t": 170610.87999999977,
      "d": 93.53666666665231,
      "v": 78
    },
    {
      "midi": 62,
      "hit": false,
      "t": 170610.87999999977,
      "d": 116.92083333330811,
      "v": 81
    },
    {
      "midi": 81,
      "hit": false,
      "t": 170627.88666666643,
      "d": 129.67583333331277,
      "v": 87
    },
    {
      "midi": 74,
      "hit": false,
      "t": 170814.95999999973,
      "d": 91.4108333333279,
      "v": 58
    },
    {
      "midi": 81,
      "hit": false,
      "t": 170814.95999999973,
      "d": 95.66250000000582,
      "v": 70
    },
    {
      "midi": 62,
      "hit": false,
      "t": 170814.95999999973,
      "d": 97.78833333333023,
      "v": 65
    },
    {
      "midi": 62,
      "hit": false,
      "t": 171019.03999999972,
      "d": 102.04000000000815,
      "v": 69
    },
    {
      "midi": 74,
      "hit": false,
      "t": 171019.03999999972,
      "d": 112.6691666666884,
      "v": 78
    },
    {
      "midi": 81,
      "hit": false,
      "t": 171019.03999999972,
      "d": 121.17250000001513,
      "v": 78
    },
    {
      "midi": 62,
      "hit": false,
      "t": 171223.11999999973,
      "d": 82.90750000000116,
      "v": 69
    },
    {
      "midi": 74,
      "hit": false,
      "t": 171223.11999999973,
      "d": 104.16583333333256,
      "v": 66
    },
    {
      "midi": 81,
      "hit": false,
      "t": 171223.11999999973,
      "d": 104.16583333333256,
      "v": 74
    },
    {
      "midi": 62,
      "hit": false,
      "t": 171427.19999999972,
      "d": 87.15916666667908,
      "v": 73
    },
    {
      "midi": 74,
      "hit": false,
      "t": 171427.19999999972,
      "d": 95.66250000000582,
      "v": 70
    },
    {
      "midi": 81,
      "hit": false,
      "t": 171427.19999999972,
      "d": 97.78833333333023,
      "v": 74
    },
    {
      "midi": 62,
      "hit": false,
      "t": 171631.2799999997,
      "d": 65.90083333334769,
      "v": 65
    },
    {
      "midi": 81,
      "hit": false,
      "t": 171631.2799999997,
      "d": 78.65583333335235,
      "v": 66
    },
    {
      "midi": 74,
      "hit": false,
      "t": 171631.2799999997,
      "d": 95.66250000000582,
      "v": 62
    },
    {
      "midi": 62,
      "hit": false,
      "t": 171835.35999999972,
      "d": 119.04666666666162,
      "v": 81
    },
    {
      "midi": 74,
      "hit": false,
      "t": 171835.35999999972,
      "d": 121.17249999998603,
      "v": 74
    },
    {
      "midi": 81,
      "hit": false,
      "t": 171835.35999999972,
      "d": 140.30499999999302,
      "v": 78
    },
    {
      "midi": 62,
      "hit": false,
      "t": 172039.4399999997,
      "d": 78.65583333332324,
      "v": 69
    },
    {
      "midi": 81,
      "hit": false,
      "t": 172039.4399999997,
      "d": 82.90750000000116,
      "v": 70
    },
    {
      "midi": 74,
      "hit": false,
      "t": 172039.4399999997,
      "d": 99.91416666665464,
      "v": 62
    },
    {
      "midi": 74,
      "hit": false,
      "t": 172243.5199999997,
      "d": 97.78833333333023,
      "v": 87
    },
    {
      "midi": 62,
      "hit": false,
      "t": 172243.5199999997,
      "d": 99.91416666665464,
      "v": 81
    },
    {
      "midi": 81,
      "hit": false,
      "t": 172243.5199999997,
      "d": 106.29166666665697,
      "v": 87
    },
    {
      "midi": 62,
      "hit": false,
      "t": 172447.5999999997,
      "d": 82.90750000000116,
      "v": 65
    },
    {
      "midi": 74,
      "hit": false,
      "t": 172447.5999999997,
      "d": 106.29166666665697,
      "v": 62
    },
    {
      "midi": 81,
      "hit": false,
      "t": 172447.5999999997,
      "d": 108.41749999998137,
      "v": 74
    },
    {
      "midi": 62,
      "hit": false,
      "t": 172651.67999999967,
      "d": 85.03333333332557,
      "v": 77
    },
    {
      "midi": 74,
      "hit": false,
      "t": 172651.67999999967,
      "d": 110.54333333333489,
      "v": 74
    },
    {
      "midi": 81,
      "hit": false,
      "t": 172651.67999999967,
      "d": 116.92083333333721,
      "v": 78
    },
    {
      "midi": 74,
      "hit": false,
      "t": 172855.7599999997,
      "d": 87.15916666667908,
      "v": 62
    },
    {
      "midi": 81,
      "hit": false,
      "t": 172855.7599999997,
      "d": 91.410833333357,
      "v": 66
    },
    {
      "midi": 62,
      "hit": false,
      "t": 172855.7599999997,
      "d": 106.29166666668607,
      "v": 57
    },
    {
      "midi": 74,
      "hit": false,
      "t": 173059.8399999997,
      "d": 97.78833333333023,
      "v": 74
    },
    {
      "midi": 81,
      "hit": false,
      "t": 173059.8399999997,
      "d": 108.41750000001048,
      "v": 74
    },
    {
      "midi": 62,
      "hit": false,
      "t": 173059.8399999997,
      "d": 112.6691666666884,
      "v": 77
    },
    {
      "midi": 62,
      "hit": false,
      "t": 173263.91999999972,
      "d": 72.27833333332092,
      "v": 65
    },
    {
      "midi": 81,
      "hit": false,
      "t": 173263.91999999972,
      "d": 85.03333333332557,
      "v": 66
    },
    {
      "midi": 74,
      "hit": false,
      "t": 173263.91999999972,
      "d": 91.4108333333279,
      "v": 62
    },
    {
      "midi": 74,
      "hit": false,
      "t": 173467.9999999997,
      "d": 99.91416666665464,
      "v": 74
    },
    {
      "midi": 81,
      "hit": false,
      "t": 173467.9999999997,
      "d": 114.7949999999837,
      "v": 78
    },
    {
      "midi": 62,
      "hit": false,
      "t": 173467.9999999997,
      "d": 116.92083333330811,
      "v": 81
    },
    {
      "midi": 81,
      "hit": false,
      "t": 173672.0799999997,
      "d": 74.40416666667443,
      "v": 66
    },
    {
      "midi": 62,
      "hit": false,
      "t": 173672.0799999997,
      "d": 89.28500000000349,
      "v": 77
    },
    {
      "midi": 74,
      "hit": false,
      "t": 173672.0799999997,
      "d": 95.66250000000582,
      "v": 74
    },
    {
      "midi": 74,
      "hit": false,
      "t": 173876.1599999997,
      "d": 93.53666666665231,
      "v": 96
    },
    {
      "midi": 79,
      "hit": false,
      "t": 173876.1599999997,
      "d": 108.41749999998137,
      "v": 87
    },
    {
      "midi": 62,
      "hit": false,
      "t": 173876.1599999997,
      "d": 116.92083333330811,
      "v": 77
    },
    {
      "midi": 79,
      "hit": false,
      "t": 174080.2399999997,
      "d": 68.0266666666721,
      "v": 70
    },
    {
      "midi": 74,
      "hit": false,
      "t": 174080.2399999997,
      "d": 104.16583333333256,
      "v": 74
    },
    {
      "midi": 62,
      "hit": false,
      "t": 174080.2399999997,
      "d": 116.92083333333721,
      "v": 90
    },
    {
      "midi": 76,
      "hit": false,
      "t": 174284.31999999972,
      "d": 93.53666666665231,
      "v": 96
    },
    {
      "midi": 64,
      "hit": false,
      "t": 174284.31999999972,
      "d": 125.42416666663485,
      "v": 90
    },
    {
      "midi": 79,
      "hit": false,
      "t": 174301.32666666637,
      "d": 99.91416666665464,
      "v": 74
    },
    {
      "midi": 50,
      "hit": false,
      "t": 174488.39999999967,
      "d": 74.40416666667443,
      "v": 48
    },
    {
      "midi": 74,
      "hit": false,
      "t": 174488.39999999967,
      "d": 82.90750000000116,
      "v": 78
    },
    {
      "midi": 79,
      "hit": false,
      "t": 174488.39999999967,
      "d": 99.91416666665464,
      "v": 74
    },
    {
      "midi": 62,
      "hit": false,
      "t": 174488.39999999967,
      "d": 104.16583333333256,
      "v": 77
    },
    {
      "midi": 55,
      "hit": false,
      "t": 174488.39999999967,
      "d": 108.41750000001048,
      "v": 69
    },
    {
      "midi": 74,
      "hit": false,
      "t": 174692.4799999997,
      "d": 99.91416666665464,
      "v": 87
    },
    {
      "midi": 55,
      "hit": false,
      "t": 174692.4799999997,
      "d": 114.7949999999837,
      "v": 69
    },
    {
      "midi": 79,
      "hit": false,
      "t": 174692.4799999997,
      "d": 114.7949999999837,
      "v": 74
    },
    {
      "midi": 50,
      "hit": false,
      "t": 174692.4799999997,
      "d": 116.92083333330811,
      "v": 73
    },
    {
      "midi": 62,
      "hit": false,
      "t": 174692.4799999997,
      "d": 123.29833333331044,
      "v": 81
    },
    {
      "midi": 43,
      "hit": false,
      "t": 174692.4799999997,
      "d": 131.80166666663717,
      "v": 73
    },
    {
      "midi": 43,
      "hit": false,
      "t": 174896.55999999965,
      "d": 91.4108333333279,
      "v": 39
    },
    {
      "midi": 79,
      "hit": false,
      "t": 174896.55999999965,
      "d": 99.91416666665464,
      "v": 66
    },
    {
      "midi": 74,
      "hit": false,
      "t": 174896.55999999965,
      "d": 106.29166666665697,
      "v": 70
    },
    {
      "midi": 55,
      "hit": false,
      "t": 174896.55999999965,
      "d": 119.04666666666162,
      "v": 65
    },
    {
      "midi": 62,
      "hit": false,
      "t": 174896.55999999965,
      "d": 121.17249999998603,
      "v": 90
    },
    {
      "midi": 50,
      "hit": false,
      "t": 174896.55999999965,
      "d": 123.29833333331044,
      "v": 65
    },
    {
      "midi": 43,
      "hit": false,
      "t": 175100.63999999964,
      "d": 93.53666666665231,
      "v": 73
    },
    {
      "midi": 76,
      "hit": false,
      "t": 175100.63999999964,
      "d": 99.91416666665464,
      "v": 78
    },
    {
      "midi": 55,
      "hit": false,
      "t": 175100.63999999964,
      "d": 104.16583333333256,
      "v": 73
    },
    {
      "midi": 79,
      "hit": false,
      "t": 175100.63999999964,
      "d": 112.6691666666593,
      "v": 70
    },
    {
      "midi": 64,
      "hit": false,
      "t": 175100.63999999964,
      "d": 133.9274999999907,
      "v": 81
    },
    {
      "midi": 52,
      "hit": false,
      "t": 175100.63999999964,
      "d": 142.43083333331742,
      "v": 81
    },
    {
      "midi": 43,
      "hit": false,
      "t": 175304.71999999962,
      "d": 65.90083333334769,
      "v": 65
    },
    {
      "midi": 50,
      "hit": false,
      "t": 175304.71999999962,
      "d": 70.15250000002561,
      "v": 73
    },
    {
      "midi": 79,
      "hit": false,
      "t": 175304.71999999962,
      "d": 76.53000000002794,
      "v": 70
    },
    {
      "midi": 74,
      "hit": false,
      "t": 175304.71999999962,
      "d": 91.410833333357,
      "v": 87
    },
    {
      "midi": 62,
      "hit": false,
      "t": 175304.71999999962,
      "d": 93.53666666668141,
      "v": 77
    },
    {
      "midi": 55,
      "hit": false,
      "t": 175304.71999999962,
      "d": 99.91416666668374,
      "v": 73
    },
    {
      "midi": 45,
      "hit": false,
      "t": 175508.79999999964,
      "d": 61.64916666666977,
      "v": 77
    },
    {
      "midi": 38,
      "hit": false,
      "t": 175508.79999999964,
      "d": 78.65583333332324,
      "v": 73
    },
    {
      "midi": 57,
      "hit": false,
      "t": 175508.79999999964,
      "d": 82.90750000000116,
      "v": 81
    },
    {
      "midi": 74,
      "hit": false,
      "t": 175508.79999999964,
      "d": 97.78833333333023,
      "v": 78
    },
    {
      "midi": 81,
      "hit": false,
      "t": 175508.79999999964,
      "d": 102.04000000000815,
      "v": 87
    },
    {
      "midi": 62,
      "hit": false,
      "t": 175508.79999999964,
      "d": 112.6691666666884,
      "v": 81
    },
    {
      "midi": 62,
      "hit": false,
      "t": 175712.87999999966,
      "d": 68.0266666666721,
      "v": 69
    },
    {
      "midi": 74,
      "hit": false,
      "t": 175712.87999999966,
      "d": 85.03333333332557,
      "v": 74
    },
    {
      "midi": 81,
      "hit": false,
      "t": 175712.87999999966,
      "d": 89.28500000000349,
      "v": 74
    },
    {
      "midi": 45,
      "hit": false,
      "t": 175712.87999999966,
      "d": 108.41750000001048,
      "v": 61
    },
    {
      "midi": 57,
      "hit": false,
      "t": 175712.87999999966,
      "d": 112.6691666666884,
      "v": 77
    },
    {
      "midi": 74,
      "hit": false,
      "t": 175916.95999999967,
      "d": 89.28500000000349,
      "v": 78
    },
    {
      "midi": 38,
      "hit": false,
      "t": 175916.95999999967,
      "d": 95.66250000000582,
      "v": 77
    },
    {
      "midi": 62,
      "hit": false,
      "t": 175916.95999999967,
      "d": 97.78833333333023,
      "v": 81
    },
    {
      "midi": 81,
      "hit": false,
      "t": 175916.95999999967,
      "d": 97.78833333333023,
      "v": 78
    },
    {
      "midi": 59,
      "hit": false,
      "t": 175916.95999999967,
      "d": 99.91416666665464,
      "v": 81
    },
    {
      "midi": 47,
      "hit": false,
      "t": 175916.95999999967,
      "d": 127.54999999998836,
      "v": 90
    },
    {
      "midi": 38,
      "hit": false,
      "t": 176121.03999999966,
      "d": 8.503333333326736,
      "v": 33
    },
    {
      "midi": 74,
      "hit": false,
      "t": 176121.03999999966,
      "d": 76.52999999999884,
      "v": 78
    },
    {
      "midi": 81,
      "hit": false,
      "t": 176121.03999999966,
      "d": 80.78166666667676,
      "v": 78
    },
    {
      "midi": 45,
      "hit": false,
      "t": 176121.03999999966,
      "d": 95.66250000000582,
      "v": 61
    },
    {
      "midi": 62,
      "hit": false,
      "t": 176121.03999999966,
      "d": 95.66250000000582,
      "v": 69
    },
    {
      "midi": 57,
      "hit": false,
      "t": 176121.03999999966,
      "d": 112.6691666666593,
      "v": 81
    },
    {
      "midi": 74,
      "hit": false,
      "t": 176325.11999999965,
      "d": 87.15916666667908,
      "v": 78
    },
    {
      "midi": 62,
      "hit": false,
      "t": 176325.11999999965,
      "d": 95.66250000000582,
      "v": 90
    },
    {
      "midi": 45,
      "hit": false,
      "t": 176325.11999999965,
      "d": 102.04000000000815,
      "v": 81
    },
    {
      "midi": 38,
      "hit": false,
      "t": 176325.11999999965,
      "d": 108.41750000001048,
      "v": 73
    },
    {
      "midi": 81,
      "hit": false,
      "t": 176325.11999999965,
      "d": 110.54333333333489,
      "v": 78
    },
    {
      "midi": 57,
      "hit": false,
      "t": 176325.11999999965,
      "d": 121.17250000001513,
      "v": 90
    },
    {
      "midi": 38,
      "hit": false,
      "t": 176529.19999999966,
      "d": 65.90083333334769,
      "v": 43
    },
    {
      "midi": 74,
      "hit": false,
      "t": 176529.19999999966,
      "d": 85.03333333335468,
      "v": 70
    },
    {
      "midi": 81,
      "hit": false,
      "t": 176529.19999999966,
      "d": 99.91416666668374,
      "v": 74
    },
    {
      "midi": 62,
      "hit": false,
      "t": 176529.19999999966,
      "d": 104.16583333336166,
      "v": 65
    },
    {
      "midi": 45,
      "hit": false,
      "t": 176529.19999999966,
      "d": 108.41750000003958,
      "v": 61
    },
    {
      "midi": 57,
      "hit": false,
      "t": 176529.19999999966,
      "d": 131.80166666669538,
      "v": 69
    },
    {
      "midi": 74,
      "hit": false,
      "t": 176733.27999999968,
      "d": 95.66250000000582,
      "v": 87
    },
    {
      "midi": 62,
      "hit": false,
      "t": 176733.27999999968,
      "d": 102.04000000000815,
      "v": 77
    },
    {
      "midi": 81,
      "hit": false,
      "t": 176733.27999999968,
      "d": 108.41750000001048,
      "v": 87
    },
    {
      "midi": 47,
      "hit": false,
      "t": 176733.27999999968,
      "d": 110.54333333333489,
      "v": 90
    },
    {
      "midi": 38,
      "hit": false,
      "t": 176733.27999999968,
      "d": 116.92083333333721,
      "v": 77
    },
    {
      "midi": 59,
      "hit": false,
      "t": 176733.27999999968,
      "d": 123.29833333333954,
      "v": 90
    },
    {
      "midi": 45,
      "hit": false,
      "t": 176937.3599999997,
      "d": 74.40416666667443,
      "v": 65
    },
    {
      "midi": 81,
      "hit": false,
      "t": 176937.3599999997,
      "d": 74.40416666667443,
      "v": 74
    },
    {
      "midi": 62,
      "hit": false,
      "t": 176937.3599999997,
      "d": 87.15916666667908,
      "v": 73
    },
    {
      "midi": 74,
      "hit": false,
      "t": 176937.3599999997,
      "d": 97.78833333335933,
      "v": 78
    },
    {
      "midi": 57,
      "hit": false,
      "t": 176937.3599999997,
      "d": 104.16583333336166,
      "v": 81
    },
    {
      "midi": 74,
      "hit": false,
      "t": 177141.4399999997,
      "d": 85.03333333332557,
      "v": 78
    },
    {
      "midi": 79,
      "hit": false,
      "t": 177141.4399999997,
      "d": 97.78833333333023,
      "v": 87
    },
    {
      "midi": 55,
      "hit": false,
      "t": 177141.4399999997,
      "d": 106.29166666665697,
      "v": 77
    },
    {
      "midi": 62,
      "hit": false,
      "t": 177141.4399999997,
      "d": 108.41749999998137,
      "v": 90
    },
    {
      "midi": 50,
      "hit": false,
      "t": 177141.4399999997,
      "d": 110.54333333330578,
      "v": 90
    },
    {
      "midi": 43,
      "hit": false,
      "t": 177141.4399999997,
      "d": 133.92749999996158,
      "v": 73
    },
    {
      "midi": 79,
      "hit": false,
      "t": 177345.51999999967,
      "d": 68.0266666666721,
      "v": 70
    },
    {
      "midi": 55,
      "hit": false,
      "t": 177345.51999999967,
      "d": 80.78166666667676,
      "v": 61
    },
    {
      "midi": 74,
      "hit": false,
      "t": 177345.51999999967,
      "d": 97.78833333333023,
      "v": 74
    },
    {
      "midi": 50,
      "hit": false,
      "t": 177345.51999999967,
      "d": 110.54333333333489,
      "v": 65
    },
    {
      "midi": 62,
      "hit": false,
      "t": 177345.51999999967,
      "d": 114.7950000000128,
      "v": 81
    },
    {
      "midi": 55,
      "hit": false,
      "t": 177549.5999999997,
      "d": 102.04000000000815,
      "v": 77
    },
    {
      "midi": 43,
      "hit": false,
      "t": 177549.5999999997,
      "d": 112.6691666666884,
      "v": 73
    },
    {
      "midi": 64,
      "hit": false,
      "t": 177549.5999999997,
      "d": 119.04666666669073,
      "v": 81
    },
    {
      "midi": 52,
      "hit": false,
      "t": 177549.5999999997,
      "d": 133.9275000000198,
      "v": 81
    },
    {
      "midi": 79,
      "hit": false,
      "t": 177566.60666666634,
      "d": 80.78166666667676,
      "v": 70
    },
    {
      "midi": 76,
      "hit": false,
      "t": 177566.60666666634,
      "d": 89.2850000000326,
      "v": 87
    },
    {
      "midi": 55,
      "hit": false,
      "t": 177753.6799999997,
      "d": 85.03333333332557,
      "v": 65
    },
    {
      "midi": 50,
      "hit": false,
      "t": 177753.6799999997,
      "d": 91.4108333333279,
      "v": 65
    },
    {
      "midi": 62,
      "hit": false,
      "t": 177753.6799999997,
      "d": 104.16583333333256,
      "v": 73
    },
    {
      "midi": 74,
      "hit": false,
      "t": 177753.6799999997,
      "d": 104.16583333333256,
      "v": 66
    },
    {
      "midi": 79,
      "hit": false,
      "t": 177753.6799999997,
      "d": 104.16583333333256,
      "v": 70
    },
    {
      "midi": 43,
      "hit": false,
      "t": 177957.7599999997,
      "d": 95.66249999997672,
      "v": 69
    },
    {
      "midi": 74,
      "hit": false,
      "t": 177957.7599999997,
      "d": 102.03999999997905,
      "v": 78
    },
    {
      "midi": 50,
      "hit": false,
      "t": 177957.7599999997,
      "d": 106.29166666665697,
      "v": 73
    },
    {
      "midi": 55,
      "hit": false,
      "t": 177957.7599999997,
      "d": 108.41749999998137,
      "v": 73
    },
    {
      "midi": 62,
      "hit": false,
      "t": 177957.7599999997,
      "d": 114.7949999999837,
      "v": 81
    },
    {
      "midi": 79,
      "hit": false,
      "t": 177974.76666666634,
      "d": 99.91416666665464,
      "v": 78
    },
    {
      "midi": 43,
      "hit": false,
      "t": 178161.83999999968,
      "d": 31.88750000001164,
      "v": 33
    },
    {
      "midi": 55,
      "hit": false,
      "t": 178161.83999999968,
      "d": 91.410833333357,
      "v": 65
    },
    {
      "midi": 79,
      "hit": false,
      "t": 178161.83999999968,
      "d": 106.29166666668607,
      "v": 62
    },
    {
      "midi": 74,
      "hit": false,
      "t": 178161.83999999968,
      "d": 112.6691666666884,
      "v": 70
    },
    {
      "midi": 62,
      "hit": false,
      "t": 178161.83999999968,
      "d": 114.7950000000128,
      "v": 81
    },
    {
      "midi": 50,
      "hit": false,
      "t": 178161.83999999968,
      "d": 119.04666666669073,
      "v": 65
    },
    {
      "midi": 43,
      "hit": false,
      "t": 178365.9199999997,
      "d": 82.90750000000116,
      "v": 61
    },
    {
      "midi": 55,
      "hit": false,
      "t": 178365.9199999997,
      "d": 89.28500000000349,
      "v": 73
    },
    {
      "midi": 76,
      "hit": false,
      "t": 178365.9199999997,
      "d": 89.28500000000349,
      "v": 87
    },
    {
      "midi": 52,
      "hit": false,
      "t": 178365.9199999997,
      "d": 106.29166666668607,
      "v": 81
    },
    {
      "midi": 64,
      "hit": false,
      "t": 178365.9199999997,
      "d": 119.04666666669073,
      "v": 81
    },
    {
      "midi": 79,
      "hit": false,
      "t": 178382.92666666635,
      "d": 82.90750000003027,
      "v": 74
    },
    {
      "midi": 79,
      "hit": false,
      "t": 178569.9999999997,
      "d": 53.145833333343035,
      "v": 62
    },
    {
      "midi": 74,
      "hit": false,
      "t": 178569.9999999997,
      "d": 91.410833333357,
      "v": 78
    },
    {
      "midi": 55,
      "hit": false,
      "t": 178569.9999999997,
      "d": 104.16583333336166,
      "v": 73
    },
    {
      "midi": 50,
      "hit": false,
      "t": 178569.9999999997,
      "d": 106.29166666668607,
      "v": 77
    },
    {
      "midi": 64,
      "hit": false,
      "t": 178569.9999999997,
      "d": 114.7950000000128,
      "v": 90
    },
    {
      "midi": 74,
      "hit": false,
      "t": 178774.07999999973,
      "d": 85.03333333332557,
      "v": 78
    },
    {
      "midi": 79,
      "hit": false,
      "t": 178774.07999999973,
      "d": 97.78833333333023,
      "v": 87
    },
    {
      "midi": 55,
      "hit": false,
      "t": 178774.07999999973,
      "d": 104.16583333333256,
      "v": 77
    },
    {
      "midi": 50,
      "hit": false,
      "t": 178774.07999999973,
      "d": 106.29166666665697,
      "v": 90
    },
    {
      "midi": 62,
      "hit": false,
      "t": 178774.07999999973,
      "d": 108.41749999998137,
      "v": 90
    },
    {
      "midi": 43,
      "hit": false,
      "t": 178774.07999999973,
      "d": 133.9274999999907,
      "v": 73
    },
    {
      "midi": 79,
      "hit": false,
      "t": 178978.1599999997,
      "d": 70.15249999999651,
      "v": 70
    },
    {
      "midi": 55,
      "hit": false,
      "t": 178978.1599999997,
      "d": 82.90750000000116,
      "v": 61
    },
    {
      "midi": 74,
      "hit": false,
      "t": 178978.1599999997,
      "d": 97.78833333333023,
      "v": 74
    },
    {
      "midi": 50,
      "hit": false,
      "t": 178978.1599999997,
      "d": 112.6691666666593,
      "v": 65
    },
    {
      "midi": 62,
      "hit": false,
      "t": 178978.1599999997,
      "d": 112.6691666666593,
      "v": 81
    },
    {
      "midi": 79,
      "hit": false,
      "t": 179182.2399999997,
      "d": 82.90750000000116,
      "v": 70
    },
    {
      "midi": 76,
      "hit": false,
      "t": 179182.2399999997,
      "d": 93.53666666668141,
      "v": 87
    },
    {
      "midi": 55,
      "hit": false,
      "t": 179182.2399999997,
      "d": 102.04000000000815,
      "v": 77
    },
    {
      "midi": 43,
      "hit": false,
      "t": 179182.2399999997,
      "d": 114.7950000000128,
      "v": 73
    },
    {
      "midi": 64,
      "hit": false,
      "t": 179182.2399999997,
      "d": 121.17250000001513,
      "v": 81
    },
    {
      "midi": 52,
      "hit": false,
      "t": 179182.2399999997,
      "d": 136.0533333333442,
      "v": 81
    },
    {
      "midi": 55,
      "hit": false,
      "t": 179386.31999999972,
      "d": 87.15916666667908,
      "v": 65
    },
    {
      "midi": 50,
      "hit": false,
      "t": 179386.31999999972,
      "d": 93.53666666668141,
      "v": 65
    },
    {
      "midi": 62,
      "hit": false,
      "t": 179386.31999999972,
      "d": 104.16583333336166,
      "v": 73
    },
    {
      "midi": 74,
      "hit": false,
      "t": 179386.31999999972,
      "d": 106.29166666668607,
      "v": 66
    },
    {
      "midi": 79,
      "hit": false,
      "t": 179386.31999999972,
      "d": 106.29166666668607,
      "v": 70
    },
    {
      "midi": 43,
      "hit": false,
      "t": 179590.39999999973,
      "d": 99.91416666665464,
      "v": 69
    },
    {
      "midi": 74,
      "hit": false,
      "t": 179590.39999999973,
      "d": 104.16583333333256,
      "v": 78
    },
    {
      "midi": 50,
      "hit": false,
      "t": 179590.39999999973,
      "d": 106.29166666665697,
      "v": 73
    },
    {
      "midi": 79,
      "hit": false,
      "t": 179590.39999999973,
      "d": 106.29166666665697,
      "v": 78
    },
    {
      "midi": 55,
      "hit": false,
      "t": 179590.39999999973,
      "d": 110.54333333333489,
      "v": 73
    },
    {
      "midi": 62,
      "hit": false,
      "t": 179590.39999999973,
      "d": 119.04666666666162,
      "v": 81
    }
  ]
}