{
  "jsonPath": "Animes/Doraemon MIDI Collection/theme-2.json",
  "path": "Animes\\Doraemon MIDI Collection\\Theme 2.mid",
  "name": "Theme 2",
  "difficulty": "Advanced",
  "bpm": 137.00006393336318,
  "notes": [
    {
      "midi": 50,
      "hit": false,
      "t": 0,
      "d": 1177.0067499999998,
      "v": 127
    },
    {
      "midi": 42,
      "hit": false,
      "t": 0,
      "d": 45.62041666666666,
      "v": 98
    },
    {
      "midi": 36,
      "hit": false,
      "t": 0,
      "d": 54.74449999999999,
      "v": 127
    },
    {
      "midi": 35,
      "hit": false,
      "t": 0,
      "d": 85.76638333333332,
      "v": 107
    },
    {
      "midi": 42,
      "hit": false,
      "t": 0,
      "d": 85.76638333333332,
      "v": 107
    },
    {
      "midi": 36,
      "hit": false,
      "t": 0,
      "d": 51.09486666666666,
      "v": 107
    },
    {
      "midi": 36,
      "hit": false,
      "t": 0,
      "d": 51.09486666666666,
      "v": 107
    },
    {
      "midi": 38,
      "hit": false,
      "t": 3.6496333333333326,
      "d": 1204.3789999999997,
      "v": 123
    },
    {
      "midi": 71,
      "hit": false,
      "t": 12.773716666666665,
      "d": 136.86124999999996,
      "v": 103
    },
    {
      "midi": 71,
      "hit": false,
      "t": 12.773716666666665,
      "d": 136.86124999999996,
      "v": 83
    },
    {
      "midi": 71,
      "hit": false,
      "t": 12.773716666666665,
      "d": 136.86124999999996,
      "v": 103
    },
    {
      "midi": 71,
      "hit": false,
      "t": 12.773716666666665,
      "d": 136.86124999999996,
      "v": 103
    },
    {
      "midi": 74,
      "hit": false,
      "t": 18.248166666666663,
      "d": 136.86124999999996,
      "v": 125
    },
    {
      "midi": 59,
      "hit": false,
      "t": 18.248166666666663,
      "d": 136.86124999999998,
      "v": 87
    },
    {
      "midi": 62,
      "hit": false,
      "t": 18.248166666666663,
      "d": 140.5108833333333,
      "v": 127
    },
    {
      "midi": 74,
      "hit": false,
      "t": 18.248166666666663,
      "d": 136.86124999999996,
      "v": 105
    },
    {
      "midi": 74,
      "hit": false,
      "t": 18.248166666666663,
      "d": 136.86124999999996,
      "v": 125
    },
    {
      "midi": 74,
      "hit": false,
      "t": 18.248166666666663,
      "d": 136.86124999999996,
      "v": 125
    },
    {
      "midi": 42,
      "hit": false,
      "t": 109.48899999999998,
      "d": 63.86858333333333,
      "v": 98
    },
    {
      "midi": 69,
      "hit": false,
      "t": 149.63496666666663,
      "d": 145.9853333333333,
      "v": 101
    },
    {
      "midi": 73,
      "hit": false,
      "t": 149.63496666666663,
      "d": 151.4597833333333,
      "v": 121
    },
    {
      "midi": 69,
      "hit": false,
      "t": 149.63496666666663,
      "d": 145.9853333333333,
      "v": 81
    },
    {
      "midi": 73,
      "hit": false,
      "t": 149.63496666666663,
      "d": 151.4597833333333,
      "v": 101
    },
    {
      "midi": 69,
      "hit": false,
      "t": 149.63496666666663,
      "d": 145.9853333333333,
      "v": 101
    },
    {
      "midi": 73,
      "hit": false,
      "t": 149.63496666666663,
      "d": 151.4597833333333,
      "v": 121
    },
    {
      "midi": 69,
      "hit": false,
      "t": 149.63496666666663,
      "d": 145.9853333333333,
      "v": 101
    },
    {
      "midi": 73,
      "hit": false,
      "t": 149.63496666666663,
      "d": 151.4597833333333,
      "v": 121
    },
    {
      "midi": 57,
      "hit": false,
      "t": 155.10941666666665,
      "d": 145.98533333333333,
      "v": 71
    },
    {
      "midi": 61,
      "hit": false,
      "t": 155.10941666666665,
      "d": 149.63496666666666,
      "v": 115
    },
    {
      "midi": 46,
      "hit": false,
      "t": 218.97799999999995,
      "d": 218.97799999999995,
      "v": 98
    },
    {
      "midi": 46,
      "hit": false,
      "t": 218.97799999999998,
      "d": 85.76638333333332,
      "v": 80
    },
    {
      "midi": 67,
      "hit": false,
      "t": 295.62029999999993,
      "d": 127.73716666666667,
      "v": 99
    },
    {
      "midi": 71,
      "hit": false,
      "t": 295.62029999999993,
      "d": 133.21161666666666,
      "v": 121
    },
    {
      "midi": 67,
      "hit": false,
      "t": 295.62029999999993,
      "d": 127.73716666666667,
      "v": 79
    },
    {
      "midi": 71,
      "hit": false,
      "t": 295.62029999999993,
      "d": 133.21161666666666,
      "v": 101
    },
    {
      "midi": 67,
      "hit": false,
      "t": 295.62029999999993,
      "d": 127.73716666666667,
      "v": 99
    },
    {
      "midi": 71,
      "hit": false,
      "t": 295.62029999999993,
      "d": 133.21161666666666,
      "v": 121
    },
    {
      "midi": 67,
      "hit": false,
      "t": 295.62029999999993,
      "d": 127.73716666666667,
      "v": 99
    },
    {
      "midi": 71,
      "hit": false,
      "t": 295.62029999999993,
      "d": 133.21161666666666,
      "v": 121
    },
    {
      "midi": 55,
      "hit": false,
      "t": 301.09475,
      "d": 149.63496666666663,
      "v": 69
    },
    {
      "midi": 59,
      "hit": false,
      "t": 301.09475,
      "d": 149.63496666666663,
      "v": 112
    },
    {
      "midi": 42,
      "hit": false,
      "t": 437.9559999999999,
      "d": 45.62041666666664,
      "v": 98
    },
    {
      "midi": 36,
      "hit": false,
      "t": 437.9559999999999,
      "d": 54.74449999999996,
      "v": 127
    },
    {
      "midi": 36,
      "hit": false,
      "t": 437.9559999999999,
      "d": 51.09486666666669,
      "v": 107
    },
    {
      "midi": 36,
      "hit": false,
      "t": 437.9559999999999,
      "d": 51.09486666666669,
      "v": 107
    },
    {
      "midi": 35,
      "hit": false,
      "t": 437.95599999999996,
      "d": 85.7663833333333,
      "v": 107
    },
    {
      "midi": 42,
      "hit": false,
      "t": 437.95599999999996,
      "d": 85.7663833333333,
      "v": 107
    },
    {
      "midi": 66,
      "hit": false,
      "t": 441.60563333333323,
      "d": 145.9853333333333,
      "v": 98
    },
    {
      "midi": 66,
      "hit": false,
      "t": 441.60563333333323,
      "d": 145.9853333333333,
      "v": 78
    },
    {
      "midi": 66,
      "hit": false,
      "t": 441.60563333333323,
      "d": 145.9853333333333,
      "v": 98
    },
    {
      "midi": 66,
      "hit": false,
      "t": 441.60563333333323,
      "d": 145.9853333333333,
      "v": 98
    },
    {
      "midi": 69,
      "hit": false,
      "t": 447.0800833333332,
      "d": 145.98533333333336,
      "v": 122
    },
    {
      "midi": 69,
      "hit": false,
      "t": 447.0800833333332,
      "d": 145.98533333333336,
      "v": 102
    },
    {
      "midi": 69,
      "hit": false,
      "t": 447.0800833333332,
      "d": 145.98533333333336,
      "v": 122
    },
    {
      "midi": 69,
      "hit": false,
      "t": 447.0800833333332,
      "d": 145.98533333333336,
      "v": 122
    },
    {
      "midi": 54,
      "hit": false,
      "t": 447.0800833333333,
      "d": 145.9853333333333,
      "v": 71
    },
    {
      "midi": 57,
      "hit": false,
      "t": 447.0800833333333,
      "d": 145.9853333333333,
      "v": 119
    },
    {
      "midi": 42,
      "hit": false,
      "t": 547.4449999999998,
      "d": 63.86858333333328,
      "v": 98
    },
    {
      "midi": 67,
      "hit": false,
      "t": 587.5909666666665,
      "d": 145.98533333333341,
      "v": 99
    },
    {
      "midi": 71,
      "hit": false,
      "t": 587.5909666666665,
      "d": 151.45978333333346,
      "v": 117
    },
    {
      "midi": 67,
      "hit": false,
      "t": 587.5909666666665,
      "d": 145.98533333333341,
      "v": 79
    },
    {
      "midi": 71,
      "hit": false,
      "t": 587.5909666666665,
      "d": 151.45978333333346,
      "v": 97
    },
    {
      "midi": 67,
      "hit": false,
      "t": 587.5909666666665,
      "d": 145.98533333333341,
      "v": 99
    },
    {
      "midi": 71,
      "hit": false,
      "t": 587.5909666666665,
      "d": 151.45978333333346,
      "v": 117
    },
    {
      "midi": 67,
      "hit": false,
      "t": 587.5909666666665,
      "d": 145.98533333333341,
      "v": 99
    },
    {
      "midi": 71,
      "hit": false,
      "t": 587.5909666666665,
      "d": 151.45978333333346,
      "v": 117
    },
    {
      "midi": 46,
      "hit": false,
      "t": 656.9339999999997,
      "d": 218.97799999999995,
      "v": 98
    },
    {
      "midi": 46,
      "hit": false,
      "t": 656.934,
      "d": 85.76638333333335,
      "v": 80
    },
    {
      "midi": 69,
      "hit": false,
      "t": 733.5763,
      "d": 127.73716666666667,
      "v": 101
    },
    {
      "midi": 73,
      "hit": false,
      "t": 733.5763,
      "d": 133.2116166666667,
      "v": 121
    },
    {
      "midi": 69,
      "hit": false,
      "t": 733.5763,
      "d": 127.73716666666667,
      "v": 81
    },
    {
      "midi": 73,
      "hit": false,
      "t": 733.5763,
      "d": 133.2116166666667,
      "v": 101
    },
    {
      "midi": 69,
      "hit": false,
      "t": 733.5763,
      "d": 127.73716666666667,
      "v": 101
    },
    {
      "midi": 73,
      "hit": false,
      "t": 733.5763,
      "d": 133.2116166666667,
      "v": 121
    },
    {
      "midi": 69,
      "hit": false,
      "t": 733.5763,
      "d": 127.73716666666667,
      "v": 101
    },
    {
      "midi": 73,
      "hit": false,
      "t": 733.5763,
      "d": 133.2116166666667,
      "v": 121
    },
    {
      "midi": 42,
      "hit": false,
      "t": 875.9119999999997,
      "d": 45.62041666666664,
      "v": 98
    },
    {
      "midi": 36,
      "hit": false,
      "t": 875.9119999999997,
      "d": 72.99266666666665,
      "v": 127
    },
    {
      "midi": 36,
      "hit": false,
      "t": 875.9119999999998,
      "d": 51.09486666666669,
      "v": 107
    },
    {
      "midi": 36,
      "hit": false,
      "t": 875.9119999999998,
      "d": 51.09486666666669,
      "v": 107
    },
    {
      "midi": 35,
      "hit": false,
      "t": 875.912,
      "d": 85.76638333333335,
      "v": 107
    },
    {
      "midi": 42,
      "hit": false,
      "t": 875.912,
      "d": 85.76638333333335,
      "v": 107
    },
    {
      "midi": 71,
      "hit": false,
      "t": 879.5616333333334,
      "d": 145.98533333333341,
      "v": 101
    },
    {
      "midi": 71,
      "hit": false,
      "t": 879.5616333333334,
      "d": 145.98533333333341,
      "v": 81
    },
    {
      "midi": 71,
      "hit": false,
      "t": 879.5616333333334,
      "d": 145.98533333333341,
      "v": 101
    },
    {
      "midi": 71,
      "hit": false,
      "t": 879.5616333333334,
      "d": 145.98533333333341,
      "v": 101
    },
    {
      "midi": 59,
      "hit": false,
      "t": 885.0360833333332,
      "d": 145.9853333333333,
      "v": 74
    },
    {
      "midi": 62,
      "hit": false,
      "t": 885.0360833333332,
      "d": 149.63496666666674,
      "v": 127
    },
    {
      "midi": 74,
      "hit": false,
      "t": 885.0360833333334,
      "d": 145.9853333333333,
      "v": 125
    },
    {
      "midi": 74,
      "hit": false,
      "t": 885.0360833333334,
      "d": 145.9853333333333,
      "v": 105
    },
    {
      "midi": 74,
      "hit": false,
      "t": 885.0360833333334,
      "d": 145.9853333333333,
      "v": 125
    },
    {
      "midi": 74,
      "hit": false,
      "t": 885.0360833333334,
      "d": 145.9853333333333,
      "v": 125
    },
    {
      "midi": 42,
      "hit": false,
      "t": 985.4009999999996,
      "d": 63.86858333333339,
      "v": 98
    },
    {
      "midi": 69,
      "hit": false,
      "t": 1025.5469666666668,
      "d": 145.9853333333333,
      "v": 101
    },
    {
      "midi": 73,
      "hit": false,
      "t": 1025.5469666666668,
      "d": 151.45978333333323,
      "v": 121
    },
    {
      "midi": 69,
      "hit": false,
      "t": 1025.5469666666668,
      "d": 145.9853333333333,
      "v": 81
    },
    {
      "midi": 73,
      "hit": false,
      "t": 1025.5469666666668,
      "d": 151.45978333333323,
      "v": 101
    },
    {
      "midi": 69,
      "hit": false,
      "t": 1025.5469666666668,
      "d": 145.9853333333333,
      "v": 101
    },
    {
      "midi": 73,
      "hit": false,
      "t": 1025.5469666666668,
      "d": 151.45978333333323,
      "v": 121
    },
    {
      "midi": 69,
      "hit": false,
      "t": 1025.5469666666668,
      "d": 145.9853333333333,
      "v": 101
    },
    {
      "midi": 73,
      "hit": false,
      "t": 1025.5469666666668,
      "d": 151.45978333333323,
      "v": 121
    },
    {
      "midi": 57,
      "hit": false,
      "t": 1031.0214166666665,
      "d": 145.98533333333353,
      "v": 71
    },
    {
      "midi": 61,
      "hit": false,
      "t": 1031.0214166666665,
      "d": 149.63496666666697,
      "v": 115
    },
    {
      "midi": 46,
      "hit": false,
      "t": 1094.8899999999996,
      "d": 218.97799999999984,
      "v": 98
    },
    {
      "midi": 46,
      "hit": false,
      "t": 1094.89,
      "d": 85.76638333333335,
      "v": 80
    },
    {
      "midi": 67,
      "hit": false,
      "t": 1171.5323,
      "d": 127.73716666666655,
      "v": 100
    },
    {
      "midi": 71,
      "hit": false,
      "t": 1171.5323,
      "d": 133.2116166666665,
      "v": 119
    },
    {
      "midi": 67,
      "hit": false,
      "t": 1171.5323,
      "d": 127.73716666666655,
      "v": 80
    },
    {
      "midi": 71,
      "hit": false,
      "t": 1171.5323,
      "d": 133.2116166666665,
      "v": 99
    },
    {
      "midi": 67,
      "hit": false,
      "t": 1171.5323,
      "d": 127.73716666666655,
      "v": 100
    },
    {
      "midi": 71,
      "hit": false,
      "t": 1171.5323,
      "d": 133.2116166666665,
      "v": 119
    },
    {
      "midi": 67,
      "hit": false,
      "t": 1171.5323,
      "d": 127.73716666666655,
      "v": 100
    },
    {
      "midi": 71,
      "hit": false,
      "t": 1171.5323,
      "d": 133.2116166666665,
      "v": 119
    },
    {
      "midi": 55,
      "hit": false,
      "t": 1177.00675,
      "d": 155.10941666666668,
      "v": 71
    },
    {
      "midi": 59,
      "hit": false,
      "t": 1177.00675,
      "d": 155.10941666666668,
      "v": 119
    },
    {
      "midi": 42,
      "hit": false,
      "t": 1313.8679999999995,
      "d": 54.744500000000016,
      "v": 98
    },
    {
      "midi": 36,
      "hit": false,
      "t": 1313.8679999999995,
      "d": 63.86858333333339,
      "v": 127
    },
    {
      "midi": 50,
      "hit": false,
      "t": 1313.8679999999997,
      "d": 1189.7804666666664,
      "v": 127
    },
    {
      "midi": 36,
      "hit": false,
      "t": 1313.8679999999997,
      "d": 51.094866666666576,
      "v": 107
    },
    {
      "midi": 36,
      "hit": false,
      "t": 1313.8679999999997,
      "d": 51.094866666666576,
      "v": 107
    },
    {
      "midi": 35,
      "hit": false,
      "t": 1313.8680000000002,
      "d": 85.76638333333335,
      "v": 107
    },
    {
      "midi": 42,
      "hit": false,
      "t": 1313.8680000000002,
      "d": 85.76638333333335,
      "v": 107
    },
    {
      "midi": 38,
      "hit": false,
      "t": 1317.5176333333332,
      "d": 1182.4812,
      "v": 123
    },
    {
      "midi": 66,
      "hit": false,
      "t": 1326.6417166666665,
      "d": 136.86124999999993,
      "v": 98
    },
    {
      "midi": 69,
      "hit": false,
      "t": 1326.6417166666665,
      "d": 142.33569999999986,
      "v": 124
    },
    {
      "midi": 66,
      "hit": false,
      "t": 1326.6417166666665,
      "d": 136.86124999999993,
      "v": 78
    },
    {
      "midi": 69,
      "hit": false,
      "t": 1326.6417166666665,
      "d": 142.33569999999986,
      "v": 104
    },
    {
      "midi": 66,
      "hit": false,
      "t": 1326.6417166666665,
      "d": 136.86124999999993,
      "v": 98
    },
    {
      "midi": 69,
      "hit": false,
      "t": 1326.6417166666665,
      "d": 142.33569999999986,
      "v": 124
    },
    {
      "midi": 66,
      "hit": false,
      "t": 1326.6417166666665,
      "d": 136.86124999999993,
      "v": 98
    },
    {
      "midi": 69,
      "hit": false,
      "t": 1326.6417166666665,
      "d": 142.33569999999986,
      "v": 124
    },
    {
      "midi": 54,
      "hit": false,
      "t": 1332.1161666666667,
      "d": 136.86124999999993,
      "v": 71
    },
    {
      "midi": 57,
      "hit": false,
      "t": 1332.1161666666667,
      "d": 136.86124999999993,
      "v": 127
    },
    {
      "midi": 42,
      "hit": false,
      "t": 1423.3569999999995,
      "d": 72.99266666666654,
      "v": 98
    },
    {
      "midi": 67,
      "hit": false,
      "t": 1463.5029666666665,
      "d": 145.9853333333333,
      "v": 103
    },
    {
      "midi": 71,
      "hit": false,
      "t": 1463.5029666666665,
      "d": 145.9853333333333,
      "v": 118
    },
    {
      "midi": 67,
      "hit": false,
      "t": 1463.5029666666665,
      "d": 145.9853333333333,
      "v": 83
    },
    {
      "midi": 71,
      "hit": false,
      "t": 1463.5029666666665,
      "d": 145.9853333333333,
      "v": 98
    },
    {
      "midi": 67,
      "hit": false,
      "t": 1463.5029666666665,
      "d": 145.9853333333333,
      "v": 103
    },
    {
      "midi": 71,
      "hit": false,
      "t": 1463.5029666666665,
      "d": 145.9853333333333,
      "v": 118
    },
    {
      "midi": 67,
      "hit": false,
      "t": 1463.5029666666665,
      "d": 145.9853333333333,
      "v": 103
    },
    {
      "midi": 71,
      "hit": false,
      "t": 1463.5029666666665,
      "d": 145.9853333333333,
      "v": 118
    },
    {
      "midi": 46,
      "hit": false,
      "t": 1532.8459999999993,
      "d": 218.97799999999984,
      "v": 98
    },
    {
      "midi": 46,
      "hit": false,
      "t": 1532.8460000000002,
      "d": 85.76638333333335,
      "v": 80
    },
    {
      "midi": 69,
      "hit": false,
      "t": 1609.4882999999998,
      "d": 127.73716666666655,
      "v": 101
    },
    {
      "midi": 73,
      "hit": false,
      "t": 1609.4882999999998,
      "d": 133.2116166666665,
      "v": 121
    },
    {
      "midi": 69,
      "hit": false,
      "t": 1609.4882999999998,
      "d": 127.73716666666655,
      "v": 81
    },
    {
      "midi": 73,
      "hit": false,
      "t": 1609.4882999999998,
      "d": 133.2116166666665,
      "v": 101
    },
    {
      "midi": 69,
      "hit": false,
      "t": 1609.4882999999998,
      "d": 127.73716666666655,
      "v": 101
    },
    {
      "midi": 73,
      "hit": false,
      "t": 1609.4882999999998,
      "d": 133.2116166666665,
      "v": 121
    },
    {
      "midi": 69,
      "hit": false,
      "t": 1609.4882999999998,
      "d": 127.73716666666655,
      "v": 101
    },
    {
      "midi": 73,
      "hit": false,
      "t": 1609.4882999999998,
      "d": 133.2116166666665,
      "v": 121
    },
    {
      "midi": 42,
      "hit": false,
      "t": 1751.8239999999992,
      "d": 45.62041666666664,
      "v": 98
    },
    {
      "midi": 36,
      "hit": false,
      "t": 1751.8239999999992,
      "d": 54.744500000000016,
      "v": 127
    },
    {
      "midi": 36,
      "hit": false,
      "t": 1751.8239999999996,
      "d": 51.094866666666576,
      "v": 107
    },
    {
      "midi": 36,
      "hit": false,
      "t": 1751.8239999999996,
      "d": 51.094866666666576,
      "v": 107
    },
    {
      "midi": 35,
      "hit": false,
      "t": 1751.8240000000003,
      "d": 85.76638333333335,
      "v": 107
    },
    {
      "midi": 42,
      "hit": false,
      "t": 1751.8240000000003,
      "d": 85.76638333333335,
      "v": 107
    },
    {
      "midi": 71,
      "hit": false,
      "t": 1760.948083333333,
      "d": 140.51088333333337,
      "v": 101
    },
    {
      "midi": 74,
      "hit": false,
      "t": 1760.948083333333,
      "d": 145.9853333333333,
      "v": 123
    },
    {
      "midi": 71,
      "hit": false,
      "t": 1760.948083333333,
      "d": 140.51088333333337,
      "v": 81
    },
    {
      "midi": 74,
      "hit": false,
      "t": 1760.948083333333,
      "d": 145.9853333333333,
      "v": 103
    },
    {
      "midi": 71,
      "hit": false,
      "t": 1760.948083333333,
      "d": 140.51088333333337,
      "v": 101
    },
    {
      "midi": 74,
      "hit": false,
      "t": 1760.948083333333,
      "d": 145.9853333333333,
      "v": 123
    },
    {
      "midi": 71,
      "hit": false,
      "t": 1760.948083333333,
      "d": 140.51088333333337,
      "v": 101
    },
    {
      "midi": 74,
      "hit": false,
      "t": 1760.948083333333,
      "d": 145.9853333333333,
      "v": 123
    },
    {
      "midi": 59,
      "hit": false,
      "t": 1760.9480833333332,
      "d": 145.98533333333353,
      "v": 74
    },
    {
      "midi": 62,
      "hit": false,
      "t": 1764.5977166666667,
      "d": 145.98533333333353,
      "v": 127
    },
    {
      "midi": 42,
      "hit": false,
      "t": 1861.3129999999992,
      "d": 63.86858333333339,
      "v": 98
    },
    {
      "midi": 69,
      "hit": false,
      "t": 1901.4589666666664,
      "d": 145.9853333333333,
      "v": 99
    },
    {
      "midi": 73,
      "hit": false,
      "t": 1901.4589666666664,
      "d": 151.45978333333346,
      "v": 120
    },
    {
      "midi": 69,
      "hit": false,
      "t": 1901.4589666666664,
      "d": 145.9853333333333,
      "v": 79
    },
    {
      "midi": 73,
      "hit": false,
      "t": 1901.4589666666664,
      "d": 151.45978333333346,
      "v": 100
    },
    {
      "midi": 69,
      "hit": false,
      "t": 1901.4589666666664,
      "d": 145.9853333333333,
      "v": 99
    },
    {
      "midi": 73,
      "hit": false,
      "t": 1901.4589666666664,
      "d": 151.45978333333346,
      "v": 120
    },
    {
      "midi": 69,
      "hit": false,
      "t": 1901.4589666666664,
      "d": 145.9853333333333,
      "v": 99
    },
    {
      "midi": 73,
      "hit": false,
      "t": 1901.4589666666664,
      "d": 151.45978333333346,
      "v": 120
    },
    {
      "midi": 57,
      "hit": false,
      "t": 1906.9334166666667,
      "d": 145.98533333333353,
      "v": 72
    },
    {
      "midi": 61,
      "hit": false,
      "t": 1906.9334166666667,
      "d": 149.63496666666697,
      "v": 119
    },
    {
      "midi": 46,
      "hit": false,
      "t": 1970.8019999999992,
      "d": 218.97800000000007,
      "v": 98
    },
    {
      "midi": 46,
      "hit": false,
      "t": 1970.8020000000004,
      "d": 85.76638333333335,
      "v": 80
    },
    {
      "midi": 67,
      "hit": false,
      "t": 2047.4442999999997,
      "d": 127.73716666666678,
      "v": 98
    },
    {
      "midi": 71,
      "hit": false,
      "t": 2047.4442999999997,
      "d": 133.21161666666694,
      "v": 119
    },
    {
      "midi": 67,
      "hit": false,
      "t": 2047.4442999999997,
      "d": 127.73716666666678,
      "v": 78
    },
    {
      "midi": 71,
      "hit": false,
      "t": 2047.4442999999997,
      "d": 133.21161666666694,
      "v": 99
    },
    {
      "midi": 67,
      "hit": false,
      "t": 2047.4442999999997,
      "d": 127.73716666666678,
      "v": 98
    },
    {
      "midi": 71,
      "hit": false,
      "t": 2047.4442999999997,
      "d": 133.21161666666694,
      "v": 119
    },
    {
      "midi": 67,
      "hit": false,
      "t": 2047.4442999999997,
      "d": 127.73716666666678,
      "v": 98
    },
    {
      "midi": 71,
      "hit": false,
      "t": 2047.4442999999997,
      "d": 133.21161666666694,
      "v": 119
    },
    {
      "midi": 55,
      "hit": false,
      "t": 2052.9187500000003,
      "d": 145.98533333333353,
      "v": 69
    },
    {
      "midi": 59,
      "hit": false,
      "t": 2052.9187500000003,
      "d": 149.63496666666697,
      "v": 114
    },
    {
      "midi": 42,
      "hit": false,
      "t": 2189.7799999999993,
      "d": 45.62041666666664,
      "v": 98
    },
    {
      "midi": 36,
      "hit": false,
      "t": 2189.7799999999993,
      "d": 54.74449999999979,
      "v": 127
    },
    {
      "midi": 36,
      "hit": false,
      "t": 2189.7799999999993,
      "d": 51.0948666666668,
      "v": 107
    },
    {
      "midi": 36,
      "hit": false,
      "t": 2189.7799999999993,
      "d": 51.0948666666668,
      "v": 107
    },
    {
      "midi": 35,
      "hit": false,
      "t": 2189.78,
      "d": 85.76638333333312,
      "v": 107
    },
    {
      "midi": 42,
      "hit": false,
      "t": 2189.78,
      "d": 85.76638333333312,
      "v": 107
    },
    {
      "midi": 66,
      "hit": false,
      "t": 2193.429633333333,
      "d": 145.98533333333353,
      "v": 98
    },
    {
      "midi": 66,
      "hit": false,
      "t": 2193.429633333333,
      "d": 145.98533333333353,
      "v": 78
    },
    {
      "midi": 66,
      "hit": false,
      "t": 2193.429633333333,
      "d": 145.98533333333353,
      "v": 98
    },
    {
      "midi": 66,
      "hit": false,
      "t": 2193.429633333333,
      "d": 145.98533333333353,
      "v": 98
    },
    {
      "midi": 69,
      "hit": false,
      "t": 2198.9040833333333,
      "d": 140.51088333333337,
      "v": 124
    },
    {
      "midi": 69,
      "hit": false,
      "t": 2198.9040833333333,
      "d": 140.51088333333337,
      "v": 104
    },
    {
      "midi": 69,
      "hit": false,
      "t": 2198.9040833333333,
      "d": 140.51088333333337,
      "v": 124
    },
    {
      "midi": 69,
      "hit": false,
      "t": 2198.9040833333333,
      "d": 140.51088333333337,
      "v": 124
    },
    {
      "midi": 54,
      "hit": false,
      "t": 2198.904083333334,
      "d": 145.98533333333353,
      "v": 71
    },
    {
      "midi": 57,
      "hit": false,
      "t": 2198.904083333334,
      "d": 145.98533333333353,
      "v": 127
    },
    {
      "midi": 42,
      "hit": false,
      "t": 2299.268999999999,
      "d": 63.86858333333339,
      "v": 98
    },
    {
      "midi": 67,
      "hit": false,
      "t": 2339.4149666666667,
      "d": 145.98533333333353,
      "v": 100
    },
    {
      "midi": 71,
      "hit": false,
      "t": 2339.4149666666667,
      "d": 151.4597833333337,
      "v": 117
    },
    {
      "midi": 67,
      "hit": false,
      "t": 2339.4149666666667,
      "d": 145.98533333333353,
      "v": 80
    },
    {
      "midi": 71,
      "hit": false,
      "t": 2339.4149666666667,
      "d": 151.4597833333337,
      "v": 97
    },
    {
      "midi": 67,
      "hit": false,
      "t": 2339.4149666666667,
      "d": 145.98533333333353,
      "v": 100
    },
    {
      "midi": 71,
      "hit": false,
      "t": 2339.4149666666667,
      "d": 151.4597833333337,
      "v": 117
    },
    {
      "midi": 67,
      "hit": false,
      "t": 2339.4149666666667,
      "d": 145.98533333333353,
      "v": 100
    },
    {
      "midi": 71,
      "hit": false,
      "t": 2339.4149666666667,
      "d": 151.4597833333337,
      "v": 117
    },
    {
      "midi": 46,
      "hit": false,
      "t": 2408.757999999999,
      "d": 218.97800000000007,
      "v": 98
    },
    {
      "midi": 46,
      "hit": false,
      "t": 2408.758,
      "d": 85.76638333333312,
      "v": 80
    },
    {
      "midi": 69,
      "hit": false,
      "t": 2485.4003000000002,
      "d": 127.73716666666678,
      "v": 101
    },
    {
      "midi": 73,
      "hit": false,
      "t": 2485.4003000000002,
      "d": 133.21161666666694,
      "v": 121
    },
    {
      "midi": 69,
      "hit": false,
      "t": 2485.4003000000002,
      "d": 127.73716666666678,
      "v": 81
    },
    {
      "midi": 73,
      "hit": false,
      "t": 2485.4003000000002,
      "d": 133.21161666666694,
      "v": 101
    },
    {
      "midi": 69,
      "hit": false,
      "t": 2485.4003000000002,
      "d": 127.73716666666678,
      "v": 101
    },
    {
      "midi": 73,
      "hit": false,
      "t": 2485.4003000000002,
      "d": 133.21161666666694,
      "v": 121
    },
    {
      "midi": 69,
      "hit": false,
      "t": 2485.4003000000002,
      "d": 127.73716666666678,
      "v": 101
    },
    {
      "midi": 73,
      "hit": false,
      "t": 2485.4003000000002,
      "d": 133.21161666666694,
      "v": 121
    },
    {
      "midi": 42,
      "hit": false,
      "t": 2627.735999999999,
      "d": 45.62041666666664,
      "v": 98
    },
    {
      "midi": 36,
      "hit": false,
      "t": 2627.735999999999,
      "d": 63.86858333333339,
      "v": 127
    },
    {
      "midi": 50,
      "hit": false,
      "t": 2627.7359999999994,
      "d": 766.4229999999998,
      "v": 126
    },
    {
      "midi": 35,
      "hit": false,
      "t": 2627.7359999999994,
      "d": 85.76638333333312,
      "v": 107
    },
    {
      "midi": 42,
      "hit": false,
      "t": 2627.7359999999994,
      "d": 85.76638333333312,
      "v": 107
    },
    {
      "midi": 36,
      "hit": false,
      "t": 2627.7359999999994,
      "d": 51.0948666666668,
      "v": 107
    },
    {
      "midi": 36,
      "hit": false,
      "t": 2627.7359999999994,
      "d": 51.0948666666668,
      "v": 107
    },
    {
      "midi": 38,
      "hit": false,
      "t": 2631.385633333333,
      "d": 680.6566166666667,
      "v": 122
    },
    {
      "midi": 71,
      "hit": false,
      "t": 2640.5097166666674,
      "d": 136.86124999999993,
      "v": 102
    },
    {
      "midi": 74,
      "hit": false,
      "t": 2640.5097166666674,
      "d": 142.3357000000001,
      "v": 124
    },
    {
      "midi": 71,
      "hit": false,
      "t": 2640.5097166666674,
      "d": 136.86124999999993,
      "v": 82
    },
    {
      "midi": 74,
      "hit": false,
      "t": 2640.5097166666674,
      "d": 142.3357000000001,
      "v": 104
    },
    {
      "midi": 71,
      "hit": false,
      "t": 2640.5097166666674,
      "d": 136.86124999999993,
      "v": 102
    },
    {
      "midi": 74,
      "hit": false,
      "t": 2640.5097166666674,
      "d": 142.3357000000001,
      "v": 124
    },
    {
      "midi": 71,
      "hit": false,
      "t": 2640.5097166666674,
      "d": 136.86124999999993,
      "v": 102
    },
    {
      "midi": 74,
      "hit": false,
      "t": 2640.5097166666674,
      "d": 142.3357000000001,
      "v": 124
    },
    {
      "midi": 59,
      "hit": false,
      "t": 2645.984166666667,
      "d": 136.86124999999993,
      "v": 74
    },
    {
      "midi": 62,
      "hit": false,
      "t": 2645.984166666667,
      "d": 140.51088333333337,
      "v": 127
    },
    {
      "midi": 42,
      "hit": false,
      "t": 2737.224999999999,
      "d": 63.86858333333339,
      "v": 98
    },
    {
      "midi": 69,
      "hit": false,
      "t": 2777.3709666666673,
      "d": 145.98533333333353,
      "v": 101
    },
    {
      "midi": 73,
      "hit": false,
      "t": 2777.3709666666673,
      "d": 151.4597833333337,
      "v": 121
    },
    {
      "midi": 69,
      "hit": false,
      "t": 2777.3709666666673,
      "d": 145.98533333333353,
      "v": 81
    },
    {
      "midi": 73,
      "hit": false,
      "t": 2777.3709666666673,
      "d": 151.4597833333337,
      "v": 101
    },
    {
      "midi": 69,
      "hit": false,
      "t": 2777.3709666666673,
      "d": 145.98533333333353,
      "v": 101
    },
    {
      "midi": 73,
      "hit": false,
      "t": 2777.3709666666673,
      "d": 151.4597833333337,
      "v": 121
    },
    {
      "midi": 69,
      "hit": false,
      "t": 2777.3709666666673,
      "d": 145.98533333333353,
      "v": 101
    },
    {
      "midi": 73,
      "hit": false,
      "t": 2777.3709666666673,
      "d": 151.4597833333337,
      "v": 121
    },
    {
      "midi": 57,
      "hit": false,
      "t": 2782.845416666667,
      "d": 145.98533333333353,
      "v": 74
    },
    {
      "midi": 61,
      "hit": false,
      "t": 2782.845416666667,
      "d": 149.63496666666697,
      "v": 115
    },
    {
      "midi": 46,
      "hit": false,
      "t": 2846.713999999999,
      "d": 218.97800000000007,
      "v": 98
    },
    {
      "midi": 46,
      "hit": false,
      "t": 2846.713999999999,
      "d": 85.76638333333312,
      "v": 80
    },
    {
      "midi": 67,
      "hit": false,
      "t": 2923.356300000001,
      "d": 127.73716666666678,
      "v": 99
    },
    {
      "midi": 71,
      "hit": false,
      "t": 2923.356300000001,
      "d": 133.21161666666694,
      "v": 119
    },
    {
      "midi": 67,
      "hit": false,
      "t": 2923.356300000001,
      "d": 127.73716666666678,
      "v": 79
    },
    {
      "midi": 71,
      "hit": false,
      "t": 2923.356300000001,
      "d": 133.21161666666694,
      "v": 99
    },
    {
      "midi": 67,
      "hit": false,
      "t": 2923.356300000001,
      "d": 127.73716666666678,
      "v": 99
    },
    {
      "midi": 71,
      "hit": false,
      "t": 2923.356300000001,
      "d": 133.21161666666694,
      "v": 119
    },
    {
      "midi": 67,
      "hit": false,
      "t": 2923.356300000001,
      "d": 127.73716666666678,
      "v": 99
    },
    {
      "midi": 71,
      "hit": false,
      "t": 2923.356300000001,
      "d": 133.21161666666694,
      "v": 119
    },
    {
      "midi": 55,
      "hit": false,
      "t": 2928.8307500000005,
      "d": 145.98533333333353,
      "v": 70
    },
    {
      "midi": 59,
      "hit": false,
      "t": 2928.8307500000005,
      "d": 149.63496666666697,
      "v": 115
    },
    {
      "midi": 35,
      "hit": false,
      "t": 3065.6919999999986,
      "d": 85.76638333333312,
      "v": 107
    },
    {
      "midi": 42,
      "hit": false,
      "t": 3065.6919999999986,
      "d": 85.76638333333312,
      "v": 107
    },
    {
      "midi": 42,
      "hit": false,
      "t": 3065.691999999999,
      "d": 54.74449999999979,
      "v": 98
    },
    {
      "midi": 36,
      "hit": false,
      "t": 3065.691999999999,
      "d": 63.868583333332936,
      "v": 127
    },
    {
      "midi": 36,
      "hit": false,
      "t": 3065.6919999999996,
      "d": 51.0948666666668,
      "v": 107
    },
    {
      "midi": 36,
      "hit": false,
      "t": 3065.6919999999996,
      "d": 51.0948666666668,
      "v": 107
    },
    {
      "midi": 66,
      "hit": false,
      "t": 3069.3416333333344,
      "d": 105.83936666666659,
      "v": 105
    },
    {
      "midi": 66,
      "hit": false,
      "t": 3069.3416333333344,
      "d": 105.83936666666659,
      "v": 85
    },
    {
      "midi": 66,
      "hit": false,
      "t": 3069.3416333333344,
      "d": 105.83936666666659,
      "v": 105
    },
    {
      "midi": 66,
      "hit": false,
      "t": 3069.3416333333344,
      "d": 105.83936666666659,
      "v": 105
    },
    {
      "midi": 54,
      "hit": false,
      "t": 3074.816083333334,
      "d": 140.51088333333337,
      "v": 74
    },
    {
      "midi": 57,
      "hit": false,
      "t": 3074.816083333334,
      "d": 140.51088333333337,
      "v": 127
    },
    {
      "midi": 69,
      "hit": false,
      "t": 3074.8160833333345,
      "d": 100.36491666666643,
      "v": 125
    },
    {
      "midi": 69,
      "hit": false,
      "t": 3074.8160833333345,
      "d": 100.36491666666643,
      "v": 105
    },
    {
      "midi": 69,
      "hit": false,
      "t": 3074.8160833333345,
      "d": 100.36491666666643,
      "v": 125
    },
    {
      "midi": 69,
      "hit": false,
      "t": 3074.8160833333345,
      "d": 100.36491666666643,
      "v": 125
    },
    {
      "midi": 42,
      "hit": false,
      "t": 3175.1809999999987,
      "d": 72.99266666666654,
      "v": 98
    },
    {
      "midi": 46,
      "hit": false,
      "t": 3284.6699999999983,
      "d": 85.76638333333312,
      "v": 80
    },
    {
      "midi": 46,
      "hit": false,
      "t": 3284.6699999999987,
      "d": 218.97800000000007,
      "v": 98
    },
    {
      "midi": 35,
      "hit": false,
      "t": 3394.158999999998,
      "d": 85.76638333333312,
      "v": 97
    },
    {
      "midi": 42,
      "hit": false,
      "t": 3394.158999999998,
      "d": 85.76638333333312,
      "v": 107
    },
    {
      "midi": 36,
      "hit": false,
      "t": 3394.1589999999997,
      "d": 51.0948666666668,
      "v": 67
    },
    {
      "midi": 36,
      "hit": false,
      "t": 3394.1589999999997,
      "d": 51.0948666666668,
      "v": 67
    },
    {
      "midi": 35,
      "hit": false,
      "t": 3503.6479999999974,
      "d": 85.76638333333312,
      "v": 107
    },
    {
      "midi": 42,
      "hit": false,
      "t": 3503.6479999999974,
      "d": 85.76638333333312,
      "v": 107
    },
    {
      "midi": 42,
      "hit": false,
      "t": 3503.647999999999,
      "d": 45.62041666666664,
      "v": 98
    },
    {
      "midi": 36,
      "hit": false,
      "t": 3503.647999999999,
      "d": 54.74449999999979,
      "v": 127
    },
    {
      "midi": 52,
      "hit": false,
      "t": 3503.6479999999992,
      "d": 1213.503083333333,
      "v": 127
    },
    {
      "midi": 36,
      "hit": false,
      "t": 3503.6479999999997,
      "d": 51.0948666666668,
      "v": 107
    },
    {
      "midi": 36,
      "hit": false,
      "t": 3503.6479999999997,
      "d": 51.0948666666668,
      "v": 107
    },
    {
      "midi": 40,
      "hit": false,
      "t": 3507.2976333333327,
      "d": 1182.4811999999993,
      "v": 122
    },
    {
      "midi": 73,
      "hit": false,
      "t": 3516.4217166666676,
      "d": 136.86124999999993,
      "v": 102
    },
    {
      "midi": 73,
      "hit": false,
      "t": 3516.4217166666676,
      "d": 136.86124999999993,
      "v": 82
    },
    {
      "midi": 73,
      "hit": false,
      "t": 3516.4217166666676,
      "d": 136.86124999999993,
      "v": 102
    },
    {
      "midi": 73,
      "hit": false,
      "t": 3516.4217166666676,
      "d": 136.86124999999993,
      "v": 102
    },
    {
      "midi": 61,
      "hit": false,
      "t": 3521.8961666666673,
      "d": 136.86124999999993,
      "v": 78
    },
    {
      "midi": 64,
      "hit": false,
      "t": 3521.8961666666673,
      "d": 140.51088333333337,
      "v": 127
    },
    {
      "midi": 76,
      "hit": false,
      "t": 3521.896166666668,
      "d": 136.86124999999993,
      "v": 124
    },
    {
      "midi": 76,
      "hit": false,
      "t": 3521.896166666668,
      "d": 136.86124999999993,
      "v": 104
    },
    {
      "midi": 76,
      "hit": false,
      "t": 3521.896166666668,
      "d": 136.86124999999993,
      "v": 124
    },
    {
      "midi": 76,
      "hit": false,
      "t": 3521.896166666668,
      "d": 136.86124999999993,
      "v": 124
    },
    {
      "midi": 42,
      "hit": false,
      "t": 3613.1369999999984,
      "d": 63.86858333333339,
      "v": 98
    },
    {
      "midi": 71,
      "hit": false,
      "t": 3653.2829666666676,
      "d": 145.98533333333353,
      "v": 101
    },
    {
      "midi": 74,
      "hit": false,
      "t": 3653.2829666666676,
      "d": 151.4597833333337,
      "v": 118
    },
    {
      "midi": 71,
      "hit": false,
      "t": 3653.2829666666676,
      "d": 145.98533333333353,
      "v": 81
    },
    {
      "midi": 74,
      "hit": false,
      "t": 3653.2829666666676,
      "d": 151.4597833333337,
      "v": 98
    },
    {
      "midi": 71,
      "hit": false,
      "t": 3653.2829666666676,
      "d": 145.98533333333353,
      "v": 101
    },
    {
      "midi": 74,
      "hit": false,
      "t": 3653.2829666666676,
      "d": 151.4597833333337,
      "v": 118
    },
    {
      "midi": 71,
      "hit": false,
      "t": 3653.2829666666676,
      "d": 145.98533333333353,
      "v": 101
    },
    {
      "midi": 74,
      "hit": false,
      "t": 3653.2829666666676,
      "d": 151.4597833333337,
      "v": 118
    },
    {
      "midi": 59,
      "hit": false,
      "t": 3658.7574166666673,
      "d": 145.98533333333353,
      "v": 71
    },
    {
      "midi": 62,
      "hit": false,
      "t": 3658.7574166666673,
      "d": 149.63496666666697,
      "v": 127
    },
    {
      "midi": 46,
      "hit": false,
      "t": 3722.625999999997,
      "d": 85.76638333333312,
      "v": 80
    },
    {
      "midi": 46,
      "hit": false,
      "t": 3722.6259999999984,
      "d": 218.97800000000007,
      "v": 98
    },
    {
      "midi": 69,
      "hit": false,
      "t": 3799.268300000001,
      "d": 127.73716666666678,
      "v": 99
    },
    {
      "midi": 73,
      "hit": false,
      "t": 3799.268300000001,
      "d": 133.21161666666694,
      "v": 118
    },
    {
      "midi": 69,
      "hit": false,
      "t": 3799.268300000001,
      "d": 127.73716666666678,
      "v": 79
    },
    {
      "midi": 73,
      "hit": false,
      "t": 3799.268300000001,
      "d": 133.21161666666694,
      "v": 98
    },
    {
      "midi": 69,
      "hit": false,
      "t": 3799.268300000001,
      "d": 127.73716666666678,
      "v": 99
    },
    {
      "midi": 73,
      "hit": false,
      "t": 3799.268300000001,
      "d": 133.21161666666694,
      "v": 118
    },
    {
      "midi": 69,
      "hit": false,
      "t": 3799.268300000001,
      "d": 127.73716666666678,
      "v": 99
    },
    {
      "midi": 73,
      "hit": false,
      "t": 3799.268300000001,
      "d": 133.21161666666694,
      "v": 118
    },
    {
      "midi": 57,
      "hit": false,
      "t": 3804.742750000001,
      "d": 149.63496666666697,
      "v": 71
    },
    {
      "midi": 61,
      "hit": false,
      "t": 3804.742750000001,
      "d": 149.63496666666697,
      "v": 124
    },
    {
      "midi": 35,
      "hit": false,
      "t": 3941.6039999999966,
      "d": 85.76638333333312,
      "v": 107
    },
    {
      "midi": 42,
      "hit": false,
      "t": 3941.6039999999966,
      "d": 85.76638333333312,
      "v": 107
    },
    {
      "midi": 42,
      "hit": false,
      "t": 3941.6039999999985,
      "d": 45.62041666666664,
      "v": 98
    },
    {
      "midi": 36,
      "hit": false,
      "t": 3941.6039999999985,
      "d": 54.74449999999979,
      "v": 127
    },
    {
      "midi": 36,
      "hit": false,
      "t": 3941.604,
      "d": 51.0948666666668,
      "v": 107
    },
    {
      "midi": 36,
      "hit": false,
      "t": 3941.604,
      "d": 51.0948666666668,
      "v": 107
    },
    {
      "midi": 68,
      "hit": false,
      "t": 3945.2536333333346,
      "d": 145.98533333333353,
      "v": 101
    },
    {
      "midi": 68,
      "hit": false,
      "t": 3945.2536333333346,
      "d": 145.98533333333353,
      "v": 81
    },
    {
      "midi": 68,
      "hit": false,
      "t": 3945.2536333333346,
      "d": 145.98533333333353,
      "v": 101
    },
    {
      "midi": 68,
      "hit": false,
      "t": 3945.2536333333346,
      "d": 145.98533333333353,
      "v": 101
    },
    {
      "midi": 56,
      "hit": false,
      "t": 3950.7280833333343,
      "d": 145.98533333333307,
      "v": 74
    },
    {
      "midi": 59,
      "hit": false,
      "t": 3950.7280833333343,
      "d": 145.98533333333307,
      "v": 114
    },
    {
      "midi": 71,
      "hit": false,
      "t": 3950.728083333335,
      "d": 145.98533333333353,
      "v": 124
    },
    {
      "midi": 71,
      "hit": false,
      "t": 3950.728083333335,
      "d": 145.98533333333353,
      "v": 104
    },
    {
      "midi": 71,
      "hit": false,
      "t": 3950.728083333335,
      "d": 145.98533333333353,
      "v": 124
    },
    {
      "midi": 71,
      "hit": false,
      "t": 3950.728083333335,
      "d": 145.98533333333353,
      "v": 124
    },
    {
      "midi": 42,
      "hit": false,
      "t": 4051.092999999998,
      "d": 63.868583333332936,
      "v": 98
    },
    {
      "midi": 69,
      "hit": false,
      "t": 4091.238966666668,
      "d": 145.98533333333353,
      "v": 100
    },
    {
      "midi": 73,
      "hit": false,
      "t": 4091.238966666668,
      "d": 151.45978333333323,
      "v": 118
    },
    {
      "midi": 69,
      "hit": false,
      "t": 4091.238966666668,
      "d": 145.98533333333353,
      "v": 80
    },
    {
      "midi": 73,
      "hit": false,
      "t": 4091.238966666668,
      "d": 151.45978333333323,
      "v": 98
    },
    {
      "midi": 69,
      "hit": false,
      "t": 4091.238966666668,
      "d": 145.98533333333353,
      "v": 100
    },
    {
      "midi": 73,
      "hit": false,
      "t": 4091.238966666668,
      "d": 151.45978333333323,
      "v": 118
    },
    {
      "midi": 69,
      "hit": false,
      "t": 4091.238966666668,
      "d": 145.98533333333353,
      "v": 100
    },
    {
      "midi": 73,
      "hit": false,
      "t": 4091.238966666668,
      "d": 151.45978333333323,
      "v": 118
    },
    {
      "midi": 46,
      "hit": false,
      "t": 4160.581999999997,
      "d": 85.76638333333358,
      "v": 80
    },
    {
      "midi": 46,
      "hit": false,
      "t": 4160.581999999998,
      "d": 218.97800000000007,
      "v": 98
    },
    {
      "midi": 71,
      "hit": false,
      "t": 4237.224300000002,
      "d": 127.73716666666678,
      "v": 101
    },
    {
      "midi": 74,
      "hit": false,
      "t": 4237.224300000002,
      "d": 133.2116166666665,
      "v": 117
    },
    {
      "midi": 71,
      "hit": false,
      "t": 4237.224300000002,
      "d": 127.73716666666678,
      "v": 81
    },
    {
      "midi": 74,
      "hit": false,
      "t": 4237.224300000002,
      "d": 133.2116166666665,
      "v": 97
    },
    {
      "midi": 71,
      "hit": false,
      "t": 4237.224300000002,
      "d": 127.73716666666678,
      "v": 101
    },
    {
      "midi": 74,
      "hit": false,
      "t": 4237.224300000002,
      "d": 133.2116166666665,
      "v": 117
    },
    {
      "midi": 71,
      "hit": false,
      "t": 4237.224300000002,
      "d": 127.73716666666678,
      "v": 101
    },
    {
      "midi": 74,
      "hit": false,
      "t": 4237.224300000002,
      "d": 133.2116166666665,
      "v": 117
    },
    {
      "midi": 35,
      "hit": false,
      "t": 4379.559999999997,
      "d": 85.76638333333358,
      "v": 107
    },
    {
      "midi": 42,
      "hit": false,
      "t": 4379.559999999997,
      "d": 85.76638333333358,
      "v": 107
    },
    {
      "midi": 42,
      "hit": false,
      "t": 4379.559999999998,
      "d": 45.62041666666664,
      "v": 98
    },
    {
      "midi": 36,
      "hit": false,
      "t": 4379.559999999998,
      "d": 54.74449999999979,
      "v": 127
    },
    {
      "midi": 36,
      "hit": false,
      "t": 4379.5599999999995,
      "d": 51.09486666666635,
      "v": 107
    },
    {
      "midi": 36,
      "hit": false,
      "t": 4379.5599999999995,
      "d": 51.09486666666635,
      "v": 107
    },
    {
      "midi": 73,
      "hit": false,
      "t": 4383.209633333335,
      "d": 145.98533333333307,
      "v": 101
    },
    {
      "midi": 73,
      "hit": false,
      "t": 4383.209633333335,
      "d": 145.98533333333307,
      "v": 81
    },
    {
      "midi": 73,
      "hit": false,
      "t": 4383.209633333335,
      "d": 145.98533333333307,
      "v": 101
    },
    {
      "midi": 73,
      "hit": false,
      "t": 4383.209633333335,
      "d": 145.98533333333307,
      "v": 101
    },
    {
      "midi": 61,
      "hit": false,
      "t": 4388.684083333334,
      "d": 149.63496666666651,
      "v": 76
    },
    {
      "midi": 64,
      "hit": false,
      "t": 4388.684083333334,
      "d": 149.63496666666651,
      "v": 127
    },
    {
      "midi": 76,
      "hit": false,
      "t": 4388.6840833333345,
      "d": 145.98533333333307,
      "v": 124
    },
    {
      "midi": 76,
      "hit": false,
      "t": 4388.6840833333345,
      "d": 145.98533333333307,
      "v": 104
    },
    {
      "midi": 76,
      "hit": false,
      "t": 4388.6840833333345,
      "d": 145.98533333333307,
      "v": 124
    },
    {
      "midi": 76,
      "hit": false,
      "t": 4388.6840833333345,
      "d": 145.98533333333307,
      "v": 124
    },
    {
      "midi": 42,
      "hit": false,
      "t": 4489.048999999997,
      "d": 63.868583333332936,
      "v": 98
    },
    {
      "midi": 71,
      "hit": false,
      "t": 4529.194966666668,
      "d": 145.98533333333307,
      "v": 101
    },
    {
      "midi": 74,
      "hit": false,
      "t": 4529.194966666668,
      "d": 151.45978333333278,
      "v": 117
    },
    {
      "midi": 71,
      "hit": false,
      "t": 4529.194966666668,
      "d": 145.98533333333307,
      "v": 81
    },
    {
      "midi": 74,
      "hit": false,
      "t": 4529.194966666668,
      "d": 151.45978333333278,
      "v": 97
    },
    {
      "midi": 71,
      "hit": false,
      "t": 4529.194966666668,
      "d": 145.98533333333307,
      "v": 101
    },
    {
      "midi": 74,
      "hit": false,
      "t": 4529.194966666668,
      "d": 151.45978333333278,
      "v": 117
    },
    {
      "midi": 71,
      "hit": false,
      "t": 4529.194966666668,
      "d": 145.98533333333307,
      "v": 101
    },
    {
      "midi": 74,
      "hit": false,
      "t": 4529.194966666668,
      "d": 151.45978333333278,
      "v": 117
    },
    {
      "midi": 59,
      "hit": false,
      "t": 4534.669416666667,
      "d": 145.98533333333307,
      "v": 71
    },
    {
      "midi": 62,
      "hit": false,
      "t": 4534.669416666667,
      "d": 149.63496666666651,
      "v": 114
    },
    {
      "midi": 46,
      "hit": false,
      "t": 4598.537999999997,
      "d": 218.97800000000007,
      "v": 98
    },
    {
      "midi": 46,
      "hit": false,
      "t": 4598.537999999997,
      "d": 85.76638333333358,
      "v": 80
    },
    {
      "midi": 69,
      "hit": false,
      "t": 4675.180300000001,
      "d": 127.73716666666678,
      "v": 100
    },
    {
      "midi": 73,
      "hit": false,
      "t": 4675.180300000001,
      "d": 133.2116166666665,
      "v": 119
    },
    {
      "midi": 69,
      "hit": false,
      "t": 4675.180300000001,
      "d": 127.73716666666678,
      "v": 80
    },
    {
      "midi": 73,
      "hit": false,
      "t": 4675.180300000001,
      "d": 133.2116166666665,
      "v": 99
    },
    {
      "midi": 69,
      "hit": false,
      "t": 4675.180300000001,
      "d": 127.73716666666678,
      "v": 100
    },
    {
      "midi": 73,
      "hit": false,
      "t": 4675.180300000001,
      "d": 133.2116166666665,
      "v": 119
    },
    {
      "midi": 69,
      "hit": false,
      "t": 4675.180300000001,
      "d": 127.73716666666678,
      "v": 100
    },
    {
      "midi": 73,
      "hit": false,
      "t": 4675.180300000001,
      "d": 133.2116166666665,
      "v": 119
    },
    {
      "midi": 57,
      "hit": false,
      "t": 4680.65475,
      "d": 155.10941666666713,
      "v": 69
    },
    {
      "midi": 61,
      "hit": false,
      "t": 4680.65475,
      "d": 158.75905000000057,
      "v": 112
    },
    {
      "midi": 42,
      "hit": false,
      "t": 4817.515999999997,
      "d": 54.74449999999979,
      "v": 98
    },
    {
      "midi": 36,
      "hit": false,
      "t": 4817.515999999997,
      "d": 54.74449999999979,
      "v": 127
    },
    {
      "midi": 35,
      "hit": false,
      "t": 4817.515999999997,
      "d": 85.76638333333358,
      "v": 107
    },
    {
      "midi": 42,
      "hit": false,
      "t": 4817.515999999997,
      "d": 85.76638333333358,
      "v": 107
    },
    {
      "midi": 52,
      "hit": false,
      "t": 4817.515999999999,
      "d": 1249.9994166666665,
      "v": 121
    },
    {
      "midi": 36,
      "hit": false,
      "t": 4817.515999999999,
      "d": 51.09486666666635,
      "v": 107
    },
    {
      "midi": 36,
      "hit": false,
      "t": 4817.515999999999,
      "d": 51.09486666666635,
      "v": 107
    },
    {
      "midi": 40,
      "hit": false,
      "t": 4821.165633333332,
      "d": 1213.503083333333,
      "v": 122
    },
    {
      "midi": 68,
      "hit": false,
      "t": 4830.289716666667,
      "d": 136.86124999999993,
      "v": 100
    },
    {
      "midi": 68,
      "hit": false,
      "t": 4830.289716666667,
      "d": 136.86124999999993,
      "v": 80
    },
    {
      "midi": 68,
      "hit": false,
      "t": 4830.289716666667,
      "d": 136.86124999999993,
      "v": 100
    },
    {
      "midi": 68,
      "hit": false,
      "t": 4830.289716666667,
      "d": 136.86124999999993,
      "v": 100
    },
    {
      "midi": 71,
      "hit": false,
      "t": 4835.764166666667,
      "d": 136.86124999999993,
      "v": 124
    },
    {
      "midi": 56,
      "hit": false,
      "t": 4835.764166666667,
      "d": 136.86124999999993,
      "v": 71
    },
    {
      "midi": 59,
      "hit": false,
      "t": 4835.764166666667,
      "d": 136.86124999999993,
      "v": 124
    },
    {
      "midi": 71,
      "hit": false,
      "t": 4835.764166666667,
      "d": 136.86124999999993,
      "v": 104
    },
    {
      "midi": 71,
      "hit": false,
      "t": 4835.764166666667,
      "d": 136.86124999999993,
      "v": 124
    },
    {
      "midi": 71,
      "hit": false,
      "t": 4835.764166666667,
      "d": 136.86124999999993,
      "v": 124
    },
    {
      "midi": 42,
      "hit": false,
      "t": 4927.0049999999965,
      "d": 72.99266666666699,
      "v": 98
    },
    {
      "midi": 69,
      "hit": false,
      "t": 4967.150966666667,
      "d": 145.98533333333307,
      "v": 102
    },
    {
      "midi": 73,
      "hit": false,
      "t": 4967.150966666667,
      "d": 151.45978333333278,
      "v": 119
    },
    {
      "midi": 69,
      "hit": false,
      "t": 4967.150966666667,
      "d": 145.98533333333307,
      "v": 82
    },
    {
      "midi": 73,
      "hit": false,
      "t": 4967.150966666667,
      "d": 151.45978333333278,
      "v": 99
    },
    {
      "midi": 69,
      "hit": false,
      "t": 4967.150966666667,
      "d": 145.98533333333307,
      "v": 102
    },
    {
      "midi": 73,
      "hit": false,
      "t": 4967.150966666667,
      "d": 151.45978333333278,
      "v": 119
    },
    {
      "midi": 69,
      "hit": false,
      "t": 4967.150966666667,
      "d": 145.98533333333307,
      "v": 102
    },
    {
      "midi": 73,
      "hit": false,
      "t": 4967.150966666667,
      "d": 151.45978333333278,
      "v": 119
    },
    {
      "midi": 46,
      "hit": false,
      "t": 5036.493999999997,
      "d": 218.97800000000007,
      "v": 98
    },
    {
      "midi": 46,
      "hit": false,
      "t": 5036.493999999997,
      "d": 85.76638333333358,
      "v": 80
    },
    {
      "midi": 71,
      "hit": false,
      "t": 5113.1363,
      "d": 127.73716666666678,
      "v": 99
    },
    {
      "midi": 74,
      "hit": false,
      "t": 5113.1363,
      "d": 133.2116166666665,
      "v": 118
    },
    {
      "midi": 71,
      "hit": false,
      "t": 5113.1363,
      "d": 127.73716666666678,
      "v": 79
    },
    {
      "midi": 74,
      "hit": false,
      "t": 5113.1363,
      "d": 133.2116166666665,
      "v": 98
    },
    {
      "midi": 71,
      "hit": false,
      "t": 5113.1363,
      "d": 127.73716666666678,
      "v": 99
    },
    {
      "midi": 74,
      "hit": false,
      "t": 5113.1363,
      "d": 133.2116166666665,
      "v": 118
    },
    {
      "midi": 71,
      "hit": false,
      "t": 5113.1363,
      "d": 127.73716666666678,
      "v": 99
    },
    {
      "midi": 74,
      "hit": false,
      "t": 5113.1363,
      "d": 133.2116166666665,
      "v": 118
    },
    {
      "midi": 42,
      "hit": false,
      "t": 5255.471999999997,
      "d": 45.62041666666664,
      "v": 98
    },
    {
      "midi": 36,
      "hit": false,
      "t": 5255.471999999997,
      "d": 54.74449999999979,
      "v": 127
    },
    {
      "midi": 35,
      "hit": false,
      "t": 5255.471999999997,
      "d": 85.76638333333358,
      "v": 107
    },
    {
      "midi": 42,
      "hit": false,
      "t": 5255.471999999997,
      "d": 85.76638333333358,
      "v": 107
    },
    {
      "midi": 36,
      "hit": false,
      "t": 5255.471999999998,
      "d": 51.09486666666635,
      "v": 107
    },
    {
      "midi": 36,
      "hit": false,
      "t": 5255.471999999998,
      "d": 51.09486666666635,
      "v": 107
    },
    {
      "midi": 73,
      "hit": false,
      "t": 5264.596083333333,
      "d": 140.51088333333337,
      "v": 101
    },
    {
      "midi": 76,
      "hit": false,
      "t": 5264.596083333333,
      "d": 145.98533333333307,
      "v": 119
    },
    {
      "midi": 73,
      "hit": false,
      "t": 5264.596083333333,
      "d": 140.51088333333337,
      "v": 81
    },
    {
      "midi": 76,
      "hit": false,
      "t": 5264.596083333333,
      "d": 145.98533333333307,
      "v": 99
    },
    {
      "midi": 73,
      "hit": false,
      "t": 5264.596083333333,
      "d": 140.51088333333337,
      "v": 101
    },
    {
      "midi": 76,
      "hit": false,
      "t": 5264.596083333333,
      "d": 145.98533333333307,
      "v": 119
    },
    {
      "midi": 73,
      "hit": false,
      "t": 5264.596083333333,
      "d": 140.51088333333337,
      "v": 101
    },
    {
      "midi": 76,
      "hit": false,
      "t": 5264.596083333333,
      "d": 145.98533333333307,
      "v": 119
    },
    {
      "midi": 61,
      "hit": false,
      "t": 5264.596083333334,
      "d": 145.98533333333307,
      "v": 74
    },
    {
      "midi": 64,
      "hit": false,
      "t": 5268.245716666667,
      "d": 145.98533333333307,
      "v": 127
    },
    {
      "midi": 42,
      "hit": false,
      "t": 5364.960999999997,
      "d": 63.868583333332936,
      "v": 98
    },
    {
      "midi": 71,
      "hit": false,
      "t": 5405.106966666666,
      "d": 145.98533333333307,
      "v": 100
    },
    {
      "midi": 74,
      "hit": false,
      "t": 5405.106966666666,
      "d": 151.45978333333278,
      "v": 117
    },
    {
      "midi": 71,
      "hit": false,
      "t": 5405.106966666666,
      "d": 145.98533333333307,
      "v": 80
    },
    {
      "midi": 74,
      "hit": false,
      "t": 5405.106966666666,
      "d": 151.45978333333278,
      "v": 97
    },
    {
      "midi": 71,
      "hit": false,
      "t": 5405.106966666666,
      "d": 145.98533333333307,
      "v": 100
    },
    {
      "midi": 74,
      "hit": false,
      "t": 5405.106966666666,
      "d": 151.45978333333278,
      "v": 117
    },
    {
      "midi": 71,
      "hit": false,
      "t": 5405.106966666666,
      "d": 145.98533333333307,
      "v": 100
    },
    {
      "midi": 74,
      "hit": false,
      "t": 5405.106966666666,
      "d": 151.45978333333278,
      "v": 117
    },
    {
      "midi": 59,
      "hit": false,
      "t": 5410.581416666667,
      "d": 145.98533333333307,
      "v": 69
    },
    {
      "midi": 62,
      "hit": false,
      "t": 5410.581416666667,
      "d": 149.63496666666651,
      "v": 119
    },
    {
      "midi": 46,
      "hit": false,
      "t": 5474.449999999996,
      "d": 218.97800000000007,
      "v": 98
    },
    {
      "midi": 46,
      "hit": false,
      "t": 5474.449999999997,
      "d": 85.76638333333358,
      "v": 80
    },
    {
      "midi": 69,
      "hit": false,
      "t": 5551.092299999999,
      "d": 127.73716666666678,
      "v": 99
    },
    {
      "midi": 73,
      "hit": false,
      "t": 5551.092299999999,
      "d": 133.2116166666665,
      "v": 119
    },
    {
      "midi": 69,
      "hit": false,
      "t": 5551.092299999999,
      "d": 127.73716666666678,
      "v": 79
    },
    {
      "midi": 73,
      "hit": false,
      "t": 5551.092299999999,
      "d": 133.2116166666665,
      "v": 99
    },
    {
      "midi": 69,
      "hit": false,
      "t": 5551.092299999999,
      "d": 127.73716666666678,
      "v": 99
    },
    {
      "midi": 73,
      "hit": false,
      "t": 5551.092299999999,
      "d": 133.2116166666665,
      "v": 119
    },
    {
      "midi": 69,
      "hit": false,
      "t": 5551.092299999999,
      "d": 127.73716666666678,
      "v": 99
    },
    {
      "midi": 73,
      "hit": false,
      "t": 5551.092299999999,
      "d": 133.2116166666665,
      "v": 119
    },
    {
      "midi": 57,
      "hit": false,
      "t": 5556.56675,
      "d": 145.98533333333307,
      "v": 69
    },
    {
      "midi": 61,
      "hit": false,
      "t": 5556.56675,
      "d": 149.63496666666651,
      "v": 124
    },
    {
      "midi": 42,
      "hit": false,
      "t": 5693.427999999996,
      "d": 45.62041666666664,
      "v": 98
    },
    {
      "midi": 36,
      "hit": false,
      "t": 5693.427999999996,
      "d": 54.74449999999979,
      "v": 127
    },
    {
      "midi": 35,
      "hit": false,
      "t": 5693.427999999997,
      "d": 85.76638333333358,
      "v": 107
    },
    {
      "midi": 42,
      "hit": false,
      "t": 5693.427999999997,
      "d": 85.76638333333358,
      "v": 107
    },
    {
      "midi": 36,
      "hit": false,
      "t": 5693.427999999997,
      "d": 51.09486666666635,
      "v": 107
    },
    {
      "midi": 36,
      "hit": false,
      "t": 5693.427999999997,
      "d": 51.09486666666635,
      "v": 107
    },
    {
      "midi": 68,
      "hit": false,
      "t": 5697.077633333332,
      "d": 145.98533333333307,
      "v": 99
    },
    {
      "midi": 68,
      "hit": false,
      "t": 5697.077633333332,
      "d": 145.98533333333307,
      "v": 79
    },
    {
      "midi": 68,
      "hit": false,
      "t": 5697.077633333332,
      "d": 145.98533333333307,
      "v": 99
    },
    {
      "midi": 68,
      "hit": false,
      "t": 5697.077633333332,
      "d": 145.98533333333307,
      "v": 99
    },
    {
      "midi": 71,
      "hit": false,
      "t": 5702.552083333332,
      "d": 145.98533333333307,
      "v": 119
    },
    {
      "midi": 71,
      "hit": false,
      "t": 5702.552083333332,
      "d": 145.98533333333307,
      "v": 99
    },
    {
      "midi": 71,
      "hit": false,
      "t": 5702.552083333332,
      "d": 145.98533333333307,
      "v": 119
    },
    {
      "midi": 71,
      "hit": false,
      "t": 5702.552083333332,
      "d": 145.98533333333307,
      "v": 119
    },
    {
      "midi": 56,
      "hit": false,
      "t": 5702.552083333333,
      "d": 145.98533333333307,
      "v": 72
    },
    {
      "midi": 59,
      "hit": false,
      "t": 5702.552083333333,
      "d": 145.98533333333307,
      "v": 119
    },
    {
      "midi": 42,
      "hit": false,
      "t": 5802.916999999996,
      "d": 63.868583333332936,
      "v": 98
    },
    {
      "midi": 69,
      "hit": false,
      "t": 5843.0629666666655,
      "d": 145.98533333333307,
      "v": 101
    },
    {
      "midi": 73,
      "hit": false,
      "t": 5843.0629666666655,
      "d": 145.98533333333307,
      "v": 119
    },
    {
      "midi": 69,
      "hit": false,
      "t": 5843.0629666666655,
      "d": 145.98533333333307,
      "v": 81
    },
    {
      "midi": 73,
      "hit": false,
      "t": 5843.0629666666655,
      "d": 145.98533333333307,
      "v": 99
    },
    {
      "midi": 69,
      "hit": false,
      "t": 5843.0629666666655,
      "d": 145.98533333333307,
      "v": 101
    },
    {
      "midi": 73,
      "hit": false,
      "t": 5843.0629666666655,
      "d": 145.98533333333307,
      "v": 119
    },
    {
      "midi": 69,
      "hit": false,
      "t": 5843.0629666666655,
      "d": 145.98533333333307,
      "v": 101
    },
    {
      "midi": 73,
      "hit": false,
      "t": 5843.0629666666655,
      "d": 145.98533333333307,
      "v": 119
    },
    {
      "midi": 46,
      "hit": false,
      "t": 5912.405999999995,
      "d": 218.97800000000007,
      "v": 98
    },
    {
      "midi": 46,
      "hit": false,
      "t": 5912.405999999997,
      "d": 85.76638333333358,
      "v": 80
    },
    {
      "midi": 71,
      "hit": false,
      "t": 5989.048299999999,
      "d": 127.73716666666678,
      "v": 101
    },
    {
      "midi": 74,
      "hit": false,
      "t": 5989.048299999999,
      "d": 133.2116166666665,
      "v": 120
    },
    {
      "midi": 71,
      "hit": false,
      "t": 5989.048299999999,
      "d": 127.73716666666678,
      "v": 81
    },
    {
      "midi": 74,
      "hit": false,
      "t": 5989.048299999999,
      "d": 133.2116166666665,
      "v": 100
    },
    {
      "midi": 71,
      "hit": false,
      "t": 5989.048299999999,
      "d": 127.73716666666678,
      "v": 101
    },
    {
      "midi": 74,
      "hit": false,
      "t": 5989.048299999999,
      "d": 133.2116166666665,
      "v": 120
    },
    {
      "midi": 71,
      "hit": false,
      "t": 5989.048299999999,
      "d": 127.73716666666678,
      "v": 101
    },
    {
      "midi": 74,
      "hit": false,
      "t": 5989.048299999999,
      "d": 133.2116166666665,
      "v": 120
    },
    {
      "midi": 42,
      "hit": false,
      "t": 6131.3839999999955,
      "d": 45.62041666666664,
      "v": 98
    },
    {
      "midi": 36,
      "hit": false,
      "t": 6131.3839999999955,
      "d": 72.99266666666699,
      "v": 127
    },
    {
      "midi": 36,
      "hit": false,
      "t": 6131.383999999996,
      "d": 51.09486666666635,
      "v": 107
    },
    {
      "midi": 36,
      "hit": false,
      "t": 6131.383999999996,
      "d": 51.09486666666635,
      "v": 107
    },
    {
      "midi": 35,
      "hit": false,
      "t": 6131.383999999997,
      "d": 85.76638333333358,
      "v": 107
    },
    {
      "midi": 42,
      "hit": false,
      "t": 6131.383999999997,
      "d": 85.76638333333358,
      "v": 107
    },
    {
      "midi": 45,
      "hit": false,
      "t": 6131.383999999998,
      "d": 724.4522166666666,
      "v": 126
    },
    {
      "midi": 33,
      "hit": false,
      "t": 6135.033633333332,
      "d": 662.4084499999999,
      "v": 121
    },
    {
      "midi": 69,
      "hit": false,
      "t": 6144.157716666665,
      "d": 136.86124999999993,
      "v": 101
    },
    {
      "midi": 73,
      "hit": false,
      "t": 6144.157716666665,
      "d": 142.33569999999963,
      "v": 122
    },
    {
      "midi": 69,
      "hit": false,
      "t": 6144.157716666665,
      "d": 136.86124999999993,
      "v": 81
    },
    {
      "midi": 73,
      "hit": false,
      "t": 6144.157716666665,
      "d": 142.33569999999963,
      "v": 102
    },
    {
      "midi": 69,
      "hit": false,
      "t": 6144.157716666665,
      "d": 136.86124999999993,
      "v": 101
    },
    {
      "midi": 73,
      "hit": false,
      "t": 6144.157716666665,
      "d": 142.33569999999963,
      "v": 122
    },
    {
      "midi": 69,
      "hit": false,
      "t": 6144.157716666665,
      "d": 136.86124999999993,
      "v": 101
    },
    {
      "midi": 73,
      "hit": false,
      "t": 6144.157716666665,
      "d": 142.33569999999963,
      "v": 122
    },
    {
      "midi": 57,
      "hit": false,
      "t": 6149.632166666666,
      "d": 136.86124999999993,
      "v": 72
    },
    {
      "midi": 61,
      "hit": false,
      "t": 6149.632166666666,
      "d": 140.51088333333337,
      "v": 127
    },
    {
      "midi": 42,
      "hit": false,
      "t": 6240.872999999996,
      "d": 63.868583333332936,
      "v": 98
    },
    {
      "midi": 71,
      "hit": false,
      "t": 6281.018966666665,
      "d": 145.98533333333307,
      "v": 100
    },
    {
      "midi": 74,
      "hit": false,
      "t": 6281.018966666665,
      "d": 151.45978333333278,
      "v": 125
    },
    {
      "midi": 71,
      "hit": false,
      "t": 6281.018966666665,
      "d": 145.98533333333307,
      "v": 80
    },
    {
      "midi": 74,
      "hit": false,
      "t": 6281.018966666665,
      "d": 151.45978333333278,
      "v": 105
    },
    {
      "midi": 71,
      "hit": false,
      "t": 6281.018966666665,
      "d": 145.98533333333307,
      "v": 100
    },
    {
      "midi": 74,
      "hit": false,
      "t": 6281.018966666665,
      "d": 151.45978333333278,
      "v": 125
    },
    {
      "midi": 71,
      "hit": false,
      "t": 6281.018966666665,
      "d": 145.98533333333307,
      "v": 100
    },
    {
      "midi": 74,
      "hit": false,
      "t": 6281.018966666665,
      "d": 151.45978333333278,
      "v": 125
    },
    {
      "midi": 59,
      "hit": false,
      "t": 6286.493416666666,
      "d": 145.98533333333307,
      "v": 69
    },
    {
      "midi": 62,
      "hit": false,
      "t": 6286.493416666666,
      "d": 149.63496666666651,
      "v": 125
    },
    {
      "midi": 46,
      "hit": false,
      "t": 6350.3619999999955,
      "d": 218.97800000000007,
      "v": 98
    },
    {
      "midi": 46,
      "hit": false,
      "t": 6350.361999999997,
      "d": 85.76638333333358,
      "v": 80
    },
    {
      "midi": 72,
      "hit": false,
      "t": 6427.004299999998,
      "d": 151.45978333333278,
      "v": 101
    },
    {
      "midi": 75,
      "hit": false,
      "t": 6427.004299999998,
      "d": 151.45978333333278,
      "v": 119
    },
    {
      "midi": 72,
      "hit": false,
      "t": 6427.004299999998,
      "d": 151.45978333333278,
      "v": 81
    },
    {
      "midi": 75,
      "hit": false,
      "t": 6427.004299999998,
      "d": 151.45978333333278,
      "v": 99
    },
    {
      "midi": 72,
      "hit": false,
      "t": 6427.004299999998,
      "d": 151.45978333333278,
      "v": 101
    },
    {
      "midi": 75,
      "hit": false,
      "t": 6427.004299999998,
      "d": 151.45978333333278,
      "v": 119
    },
    {
      "midi": 72,
      "hit": false,
      "t": 6427.004299999998,
      "d": 151.45978333333278,
      "v": 101
    },
    {
      "midi": 75,
      "hit": false,
      "t": 6427.004299999998,
      "d": 151.45978333333278,
      "v": 119
    },
    {
      "midi": 60,
      "hit": false,
      "t": 6432.478749999999,
      "d": 149.63496666666651,
      "v": 68
    },
    {
      "midi": 63,
      "hit": false,
      "t": 6432.478749999999,
      "d": 149.63496666666651,
      "v": 118
    },
    {
      "midi": 42,
      "hit": false,
      "t": 6569.339999999996,
      "d": 54.74449999999979,
      "v": 98
    },
    {
      "midi": 36,
      "hit": false,
      "t": 6569.339999999996,
      "d": 63.868583333332936,
      "v": 127
    },
    {
      "midi": 36,
      "hit": false,
      "t": 6569.339999999996,
      "d": 51.09486666666635,
      "v": 107
    },
    {
      "midi": 36,
      "hit": false,
      "t": 6569.339999999996,
      "d": 51.09486666666635,
      "v": 107
    },
    {
      "midi": 35,
      "hit": false,
      "t": 6569.339999999997,
      "d": 85.76638333333358,
      "v": 107
    },
    {
      "midi": 42,
      "hit": false,
      "t": 6569.339999999997,
      "d": 85.76638333333358,
      "v": 107
    },
    {
      "midi": 73,
      "hit": false,
      "t": 6572.989633333331,
      "d": 82.11675000000014,
      "v": 113
    },
    {
      "midi": 73,
      "hit": false,
      "t": 6572.989633333331,
      "d": 82.11675000000014,
      "v": 93
    },
    {
      "midi": 73,
      "hit": false,
      "t": 6572.989633333331,
      "d": 82.11675000000014,
      "v": 113
    },
    {
      "midi": 73,
      "hit": false,
      "t": 6572.989633333331,
      "d": 82.11675000000014,
      "v": 113
    },
    {
      "midi": 76,
      "hit": false,
      "t": 6578.464083333331,
      "d": 76.64230000000043,
      "v": 125
    },
    {
      "midi": 76,
      "hit": false,
      "t": 6578.464083333331,
      "d": 76.64230000000043,
      "v": 105
    },
    {
      "midi": 76,
      "hit": false,
      "t": 6578.464083333331,
      "d": 76.64230000000043,
      "v": 125
    },
    {
      "midi": 76,
      "hit": false,
      "t": 6578.464083333331,
      "d": 76.64230000000043,
      "v": 125
    },
    {
      "midi": 61,
      "hit": false,
      "t": 6582.113716666666,
      "d": 136.86124999999993,
      "v": 71
    },
    {
      "midi": 64,
      "hit": false,
      "t": 6582.113716666666,
      "d": 136.86124999999993,
      "v": 124
    },
    {
      "midi": 42,
      "hit": false,
      "t": 6678.828999999995,
      "d": 72.99266666666699,
      "v": 98
    },
    {
      "midi": 46,
      "hit": false,
      "t": 6788.317999999996,
      "d": 218.97800000000007,
      "v": 98
    },
    {
      "midi": 46,
      "hit": false,
      "t": 6788.3179999999975,
      "d": 85.76638333333358,
      "v": 80
    },
    {
      "midi": 36,
      "hit": false,
      "t": 7007.295999999995,
      "d": 51.09486666666635,
      "v": 107
    },
    {
      "midi": 36,
      "hit": false,
      "t": 7007.295999999995,
      "d": 51.09486666666635,
      "v": 107
    },
    {
      "midi": 42,
      "hit": false,
      "t": 7007.295999999996,
      "d": 45.62041666666664,
      "v": 98
    },
    {
      "midi": 36,
      "hit": false,
      "t": 7007.295999999996,
      "d": 54.74449999999979,
      "v": 127
    },
    {
      "midi": 35,
      "hit": false,
      "t": 7007.295999999998,
      "d": 85.76638333333358,
      "v": 107
    },
    {
      "midi": 42,
      "hit": false,
      "t": 7007.295999999998,
      "d": 85.76638333333358,
      "v": 107
    },
    {
      "midi": 59,
      "hit": false,
      "t": 7010.945633333331,
      "d": 434.3063666666667,
      "v": 107
    },
    {
      "midi": 55,
      "hit": false,
      "t": 7016.420083333331,
      "d": 428.831916666667,
      "v": 107
    },
    {
      "midi": 62,
      "hit": false,
      "t": 7016.420083333331,
      "d": 428.831916666667,
      "v": 107
    },
    {
      "midi": 42,
      "hit": false,
      "t": 7116.784999999995,
      "d": 63.868583333332936,
      "v": 98
    },
    {
      "midi": 46,
      "hit": false,
      "t": 7226.273999999995,
      "d": 218.97800000000007,
      "v": 98
    },
    {
      "midi": 46,
      "hit": false,
      "t": 7226.273999999998,
      "d": 85.76638333333358,
      "v": 80
    },
    {
      "midi": 36,
      "hit": false,
      "t": 7445.251999999994,
      "d": 51.09486666666635,
      "v": 107
    },
    {
      "midi": 36,
      "hit": false,
      "t": 7445.251999999994,
      "d": 51.09486666666635,
      "v": 107
    },
    {
      "midi": 42,
      "hit": false,
      "t": 7445.251999999995,
      "d": 45.62041666666664,
      "v": 98
    },
    {
      "midi": 36,
      "hit": false,
      "t": 7445.251999999995,
      "d": 54.74449999999979,
      "v": 127
    },
    {
      "midi": 35,
      "hit": false,
      "t": 7445.251999999998,
      "d": 85.76638333333358,
      "v": 107
    },
    {
      "midi": 42,
      "hit": false,
      "t": 7445.251999999998,
      "d": 85.76638333333358,
      "v": 107
    },
    {
      "midi": 55,
      "hit": false,
      "t": 7448.901633333331,
      "d": 434.3063666666667,
      "v": 107
    },
    {
      "midi": 52,
      "hit": false,
      "t": 7448.901633333331,
      "d": 434.3063666666667,
      "v": 107
    },
    {
      "midi": 59,
      "hit": false,
      "t": 7454.376083333331,
      "d": 428.831916666667,
      "v": 107
    },
    {
      "midi": 42,
      "hit": false,
      "t": 7554.7409999999945,
      "d": 63.868583333332936,
      "v": 98
    },
    {
      "midi": 46,
      "hit": false,
      "t": 7664.229999999994,
      "d": 218.97800000000007,
      "v": 98
    },
    {
      "midi": 46,
      "hit": false,
      "t": 7664.229999999998,
      "d": 85.76638333333358,
      "v": 80
    },
    {
      "midi": 36,
      "hit": false,
      "t": 7883.207999999993,
      "d": 51.09486666666635,
      "v": 107
    },
    {
      "midi": 36,
      "hit": false,
      "t": 7883.207999999993,
      "d": 51.09486666666635,
      "v": 107
    },
    {
      "midi": 42,
      "hit": false,
      "t": 7883.207999999994,
      "d": 45.62041666666664,
      "v": 98
    },
    {
      "midi": 36,
      "hit": false,
      "t": 7883.207999999994,
      "d": 63.868583333332936,
      "v": 127
    },
    {
      "midi": 35,
      "hit": false,
      "t": 7883.207999999998,
      "d": 85.76638333333358,
      "v": 107
    },
    {
      "midi": 42,
      "hit": false,
      "t": 7883.207999999998,
      "d": 85.76638333333358,
      "v": 107
    },
    {
      "midi": 57,
      "hit": false,
      "t": 7886.857633333331,
      "d": 434.3063666666658,
      "v": 107
    },
    {
      "midi": 54,
      "hit": false,
      "t": 7886.857633333331,
      "d": 434.3063666666658,
      "v": 107
    },
    {
      "midi": 61,
      "hit": false,
      "t": 7892.332083333331,
      "d": 428.8319166666661,
      "v": 107
    },
    {
      "midi": 42,
      "hit": false,
      "t": 7992.696999999994,
      "d": 63.868583333332936,
      "v": 98
    },
    {
      "midi": 46,
      "hit": false,
      "t": 8102.185999999993,
      "d": 218.97800000000007,
      "v": 98
    },
    {
      "midi": 46,
      "hit": false,
      "t": 8102.185999999998,
      "d": 85.76638333333358,
      "v": 80
    },
    {
      "midi": 42,
      "hit": false,
      "t": 8321.163999999993,
      "d": 54.7445000000007,
      "v": 98
    },
    {
      "midi": 36,
      "hit": false,
      "t": 8321.163999999993,
      "d": 63.868583333334755,
      "v": 127
    },
    {
      "midi": 36,
      "hit": false,
      "t": 8321.163999999993,
      "d": 51.09486666666635,
      "v": 107
    },
    {
      "midi": 36,
      "hit": false,
      "t": 8321.163999999993,
      "d": 51.09486666666635,
      "v": 107
    },
    {
      "midi": 35,
      "hit": false,
      "t": 8321.163999999999,
      "d": 85.76638333333358,
      "v": 107
    },
    {
      "midi": 42,
      "hit": false,
      "t": 8321.163999999999,
      "d": 85.76638333333358,
      "v": 107
    },
    {
      "midi": 50,
      "hit": false,
      "t": 8324.81363333333,
      "d": 434.3063666666658,
      "v": 107
    },
    {
      "midi": 54,
      "hit": false,
      "t": 8324.81363333333,
      "d": 434.3063666666658,
      "v": 107
    },
    {
      "midi": 57,
      "hit": false,
      "t": 8330.28808333333,
      "d": 428.8319166666661,
      "v": 107
    },
    {
      "midi": 42,
      "hit": false,
      "t": 8430.652999999995,
      "d": 72.99266666666699,
      "v": 98
    },
    {
      "midi": 46,
      "hit": false,
      "t": 8540.141999999994,
      "d": 218.97799999999916,
      "v": 98
    },
    {
      "midi": 46,
      "hit": false,
      "t": 8540.142,
      "d": 85.76638333333358,
      "v": 80
    },
    {
      "midi": 36,
      "hit": false,
      "t": 8649.630999999994,
      "d": 51.09486666666635,
      "v": 67
    },
    {
      "midi": 36,
      "hit": false,
      "t": 8649.630999999994,
      "d": 51.09486666666635,
      "v": 67
    },
    {
      "midi": 35,
      "hit": false,
      "t": 8649.631,
      "d": 85.76638333333358,
      "v": 97
    },
    {
      "midi": 42,
      "hit": false,
      "t": 8649.631,
      "d": 85.76638333333358,
      "v": 107
    },
    {
      "midi": 42,
      "hit": false,
      "t": 8759.119999999994,
      "d": 45.62041666666664,
      "v": 98
    },
    {
      "midi": 36,
      "hit": false,
      "t": 8759.119999999994,
      "d": 54.7445000000007,
      "v": 127
    },
    {
      "midi": 36,
      "hit": false,
      "t": 8759.119999999994,
      "d": 51.09486666666635,
      "v": 107
    },
    {
      "midi": 36,
      "hit": false,
      "t": 8759.119999999994,
      "d": 51.09486666666635,
      "v": 107
    },
    {
      "midi": 35,
      "hit": false,
      "t": 8759.119999999999,
      "d": 85.76638333333358,
      "v": 107
    },
    {
      "midi": 42,
      "hit": false,
      "t": 8759.119999999999,
      "d": 85.76638333333358,
      "v": 107
    },
    {
      "midi": 55,
      "hit": false,
      "t": 8762.769633333328,
      "d": 434.3063666666658,
      "v": 107
    },
    {
      "midi": 52,
      "hit": false,
      "t": 8768.244083333328,
      "d": 428.8319166666661,
      "v": 107
    },
    {
      "midi": 59,
      "hit": false,
      "t": 8768.244083333328,
      "d": 428.8319166666661,
      "v": 107
    },
    {
      "midi": 42,
      "hit": false,
      "t": 8868.608999999995,
      "d": 63.868583333332936,
      "v": 98
    },
    {
      "midi": 46,
      "hit": false,
      "t": 8978.097999999994,
      "d": 218.97799999999916,
      "v": 98
    },
    {
      "midi": 46,
      "hit": false,
      "t": 8978.098,
      "d": 85.76638333333358,
      "v": 80
    },
    {
      "midi": 42,
      "hit": false,
      "t": 9197.075999999994,
      "d": 45.62041666666664,
      "v": 98
    },
    {
      "midi": 36,
      "hit": false,
      "t": 9197.075999999994,
      "d": 54.7445000000007,
      "v": 127
    },
    {
      "midi": 36,
      "hit": false,
      "t": 9197.075999999994,
      "d": 51.09486666666635,
      "v": 107
    },
    {
      "midi": 36,
      "hit": false,
      "t": 9197.075999999994,
      "d": 51.09486666666635,
      "v": 107
    },
    {
      "midi": 35,
      "hit": false,
      "t": 9197.076000000001,
      "d": 85.76638333333358,
      "v": 107
    },
    {
      "midi": 42,
      "hit": false,
      "t": 9197.076000000001,
      "d": 85.76638333333358,
      "v": 107
    },
    {
      "midi": 52,
      "hit": false,
      "t": 9200.725633333326,
      "d": 434.3063666666658,
      "v": 107
    },
    {
      "midi": 49,
      "hit": false,
      "t": 9200.725633333326,
      "d": 434.3063666666658,
      "v": 107
    },
    {
      "midi": 55,
      "hit": false,
      "t": 9206.200083333326,
      "d": 428.8319166666661,
      "v": 107
    },
    {
      "midi": 42,
      "hit": false,
      "t": 9306.564999999995,
      "d": 63.868583333332936,
      "v": 98
    },
    {
      "midi": 46,
      "hit": false,
      "t": 9416.053999999995,
      "d": 218.97799999999916,
      "v": 98
    },
    {
      "midi": 46,
      "hit": false,
      "t": 9416.054000000002,
      "d": 85.76638333333358,
      "v": 80
    },
    {
      "midi": 42,
      "hit": false,
      "t": 9635.031999999994,
      "d": 45.62041666666664,
      "v": 98
    },
    {
      "midi": 36,
      "hit": false,
      "t": 9635.031999999994,
      "d": 54.7445000000007,
      "v": 127
    },
    {
      "midi": 36,
      "hit": false,
      "t": 9635.031999999994,
      "d": 51.09486666666635,
      "v": 107
    },
    {
      "midi": 36,
      "hit": false,
      "t": 9635.031999999994,
      "d": 51.09486666666635,
      "v": 107
    },
    {
      "midi": 35,
      "hit": false,
      "t": 9635.032000000003,
      "d": 85.76638333333358,
      "v": 107
    },
    {
      "midi": 42,
      "hit": false,
      "t": 9635.032000000003,
      "d": 85.76638333333358,
      "v": 107
    },
    {
      "midi": 50,
      "hit": false,
      "t": 9638.681633333324,
      "d": 434.3063666666658,
      "v": 107
    },
    {
      "midi": 54,
      "hit": false,
      "t": 9638.681633333324,
      "d": 434.3063666666658,
      "v": 107
    },
    {
      "midi": 57,
      "hit": false,
      "t": 9644.156083333324,
      "d": 428.8319166666661,
      "v": 107
    },
    {
      "midi": 42,
      "hit": false,
      "t": 9744.520999999995,
      "d": 63.868583333332936,
      "v": 98
    },
    {
      "midi": 46,
      "hit": false,
      "t": 9854.009999999995,
      "d": 218.97799999999916,
      "v": 98
    },
    {
      "midi": 46,
      "hit": false,
      "t": 9854.010000000004,
      "d": 85.76638333333358,
      "v": 80
    },
    {
      "midi": 42,
      "hit": false,
      "t": 10072.987999999994,
      "d": 54.7445000000007,
      "v": 98
    },
    {
      "midi": 36,
      "hit": false,
      "t": 10072.987999999994,
      "d": 54.7445000000007,
      "v": 127
    },
    {
      "midi": 36,
      "hit": false,
      "t": 10072.987999999994,
      "d": 51.09486666666635,
      "v": 107
    },
    {
      "midi": 36,
      "hit": false,
      "t": 10072.987999999994,
      "d": 51.09486666666635,
      "v": 107
    },
    {
      "midi": 35,
      "hit": false,
      "t": 10072.988000000005,
      "d": 85.76638333333358,
      "v": 107
    },
    {
      "midi": 42,
      "hit": false,
      "t": 10072.988000000005,
      "d": 85.76638333333358,
      "v": 107
    },
    {
      "midi": 50,
      "hit": false,
      "t": 10076.637633333323,
      "d": 434.3063666666658,
      "v": 107
    },
    {
      "midi": 47,
      "hit": false,
      "t": 10076.637633333323,
      "d": 434.3063666666658,
      "v": 107
    },
    {
      "midi": 54,
      "hit": false,
      "t": 10082.112083333323,
      "d": 428.8319166666661,
      "v": 107
    },
    {
      "midi": 42,
      "hit": false,
      "t": 10182.476999999995,
      "d": 72.99266666666699,
      "v": 98
    },
    {
      "midi": 46,
      "hit": false,
      "t": 10291.965999999995,
      "d": 218.97799999999916,
      "v": 98
    },
    {
      "midi": 46,
      "hit": false,
      "t": 10291.966000000006,
      "d": 85.76638333333358,
      "v": 80
    },
    {
      "midi": 42,
      "hit": false,
      "t": 10510.943999999994,
      "d": 45.62041666666664,
      "v": 98
    },
    {
      "midi": 36,
      "hit": false,
      "t": 10510.943999999994,
      "d": 54.7445000000007,
      "v": 127
    },
    {
      "midi": 36,
      "hit": false,
      "t": 10510.943999999994,
      "d": 51.09486666666635,
      "v": 107
    },
    {
      "midi": 36,
      "hit": false,
      "t": 10510.943999999994,
      "d": 51.09486666666635,
      "v": 107
    },
    {
      "midi": 42,
      "hit": false,
      "t": 10510.943999999998,
      "d": 45.62041666666664,
      "v": 48
    },
    {
      "midi": 38,
      "hit": false,
      "t": 10510.943999999998,
      "d": 54.7445000000007,
      "v": 113
    },
    {
      "midi": 36,
      "hit": false,
      "t": 10510.943999999998,
      "d": 63.868583333334755,
      "v": 119
    },
    {
      "midi": 35,
      "hit": false,
      "t": 10510.944000000007,
      "d": 85.76638333333358,
      "v": 107
    },
    {
      "midi": 42,
      "hit": false,
      "t": 10510.944000000007,
      "d": 85.76638333333358,
      "v": 107
    },
    {
      "midi": 21,
      "hit": false,
      "t": 10514.59363333333,
      "d": 1839.4151999999995,
      "v": 125
    },
    {
      "midi": 75,
      "hit": false,
      "t": 10520.068083333323,
      "d": 82.11674999999923,
      "v": 85
    },
    {
      "midi": 76,
      "hit": false,
      "t": 10520.068083333323,
      "d": 122.26271666666617,
      "v": 103
    },
    {
      "midi": 75,
      "hit": false,
      "t": 10520.06808333333,
      "d": 82.11674999999923,
      "v": 105
    },
    {
      "midi": 76,
      "hit": false,
      "t": 10520.06808333333,
      "d": 122.26271666666617,
      "v": 123
    },
    {
      "midi": 75,
      "hit": false,
      "t": 10520.06808333333,
      "d": 82.11674999999923,
      "v": 105
    },
    {
      "midi": 76,
      "hit": false,
      "t": 10520.06808333333,
      "d": 122.26271666666617,
      "v": 123
    },
    {
      "midi": 75,
      "hit": false,
      "t": 10520.06808333333,
      "d": 82.11674999999923,
      "v": 105
    },
    {
      "midi": 76,
      "hit": false,
      "t": 10520.06808333333,
      "d": 122.26271666666617,
      "v": 123
    },
    {
      "midi": 45,
      "hit": false,
      "t": 10523.717716666664,
      "d": 1739.0502833333321,
      "v": 102
    },
    {
      "midi": 49,
      "hit": false,
      "t": 10523.717716666664,
      "d": 1739.0502833333321,
      "v": 107
    },
    {
      "midi": 52,
      "hit": false,
      "t": 10523.717716666664,
      "d": 1739.0502833333321,
      "v": 103
    },
    {
      "midi": 42,
      "hit": false,
      "t": 10620.432999999995,
      "d": 63.868583333332936,
      "v": 98
    },
    {
      "midi": 38,
      "hit": false,
      "t": 10620.432999999999,
      "d": 54.7445000000007,
      "v": 102
    },
    {
      "midi": 42,
      "hit": false,
      "t": 10620.432999999999,
      "d": 63.868583333334755,
      "v": 48
    },
    {
      "midi": 75,
      "hit": false,
      "t": 10660.578966666655,
      "d": 87.59120000000075,
      "v": 101
    },
    {
      "midi": 75,
      "hit": false,
      "t": 10660.578966666662,
      "d": 87.59120000000075,
      "v": 121
    },
    {
      "midi": 75,
      "hit": false,
      "t": 10660.578966666662,
      "d": 87.59120000000075,
      "v": 121
    },
    {
      "midi": 75,
      "hit": false,
      "t": 10660.578966666662,
      "d": 87.59120000000075,
      "v": 121
    },
    {
      "midi": 46,
      "hit": false,
      "t": 10729.921999999995,
      "d": 218.97799999999916,
      "v": 98
    },
    {
      "midi": 38,
      "hit": false,
      "t": 10729.922,
      "d": 45.62041666666664,
      "v": 105
    },
    {
      "midi": 46,
      "hit": false,
      "t": 10729.922,
      "d": 218.97800000000097,
      "v": 48
    },
    {
      "midi": 46,
      "hit": false,
      "t": 10729.922000000008,
      "d": 85.76638333333358,
      "v": 80
    },
    {
      "midi": 74,
      "hit": false,
      "t": 10806.564299999989,
      "d": 87.59120000000075,
      "v": 98
    },
    {
      "midi": 74,
      "hit": false,
      "t": 10806.564299999996,
      "d": 87.59120000000075,
      "v": 118
    },
    {
      "midi": 74,
      "hit": false,
      "t": 10806.564299999996,
      "d": 87.59120000000075,
      "v": 118
    },
    {
      "midi": 74,
      "hit": false,
      "t": 10806.564299999996,
      "d": 87.59120000000075,
      "v": 118
    },
    {
      "midi": 38,
      "hit": false,
      "t": 10839.411,
      "d": 54.7445000000007,
      "v": 105
    },
    {
      "midi": 42,
      "hit": false,
      "t": 10948.899999999994,
      "d": 45.62041666666664,
      "v": 98
    },
    {
      "midi": 36,
      "hit": false,
      "t": 10948.899999999994,
      "d": 54.7445000000007,
      "v": 127
    },
    {
      "midi": 36,
      "hit": false,
      "t": 10948.899999999994,
      "d": 51.09486666666635,
      "v": 107
    },
    {
      "midi": 36,
      "hit": false,
      "t": 10948.899999999994,
      "d": 51.09486666666635,
      "v": 107
    },
    {
      "midi": 42,
      "hit": false,
      "t": 10948.900000000001,
      "d": 45.62041666666664,
      "v": 48
    },
    {
      "midi": 38,
      "hit": false,
      "t": 10948.900000000001,
      "d": 54.7445000000007,
      "v": 110
    },
    {
      "midi": 36,
      "hit": false,
      "t": 10948.900000000001,
      "d": 63.868583333334755,
      "v": 113
    },
    {
      "midi": 35,
      "hit": false,
      "t": 10948.900000000009,
      "d": 85.76638333333358,
      "v": 107
    },
    {
      "midi": 42,
      "hit": false,
      "t": 10948.900000000009,
      "d": 85.76638333333358,
      "v": 107
    },
    {
      "midi": 73,
      "hit": false,
      "t": 10952.549633333323,
      "d": 87.59120000000075,
      "v": 98
    },
    {
      "midi": 73,
      "hit": false,
      "t": 10952.54963333333,
      "d": 87.59120000000075,
      "v": 118
    },
    {
      "midi": 73,
      "hit": false,
      "t": 10952.54963333333,
      "d": 87.59120000000075,
      "v": 118
    },
    {
      "midi": 73,
      "hit": false,
      "t": 10952.54963333333,
      "d": 87.59120000000075,
      "v": 118
    },
    {
      "midi": 42,
      "hit": false,
      "t": 11058.388999999996,
      "d": 63.868583333332936,
      "v": 98
    },
    {
      "midi": 38,
      "hit": false,
      "t": 11058.389000000003,
      "d": 54.7445000000007,
      "v": 102
    },
    {
      "midi": 42,
      "hit": false,
      "t": 11058.389000000003,
      "d": 63.868583333334755,
      "v": 48
    },
    {
      "midi": 72,
      "hit": false,
      "t": 11098.534966666657,
      "d": 87.59120000000075,
      "v": 102
    },
    {
      "midi": 72,
      "hit": false,
      "t": 11098.534966666664,
      "d": 87.59120000000075,
      "v": 122
    },
    {
      "midi": 72,
      "hit": false,
      "t": 11098.534966666664,
      "d": 87.59120000000075,
      "v": 122
    },
    {
      "midi": 72,
      "hit": false,
      "t": 11098.534966666664,
      "d": 87.59120000000075,
      "v": 122
    },
    {
      "midi": 46,
      "hit": false,
      "t": 11167.877999999995,
      "d": 218.97799999999916,
      "v": 98
    },
    {
      "midi": 38,
      "hit": false,
      "t": 11167.878000000004,
      "d": 54.7445000000007,
      "v": 102
    },
    {
      "midi": 46,
      "hit": false,
      "t": 11167.878000000004,
      "d": 218.9780000000028,
      "v": 48
    },
    {
      "midi": 46,
      "hit": false,
      "t": 11167.87800000001,
      "d": 85.76638333333358,
      "v": 80
    },
    {
      "midi": 71,
      "hit": false,
      "t": 11244.520299999991,
      "d": 87.59120000000075,
      "v": 101
    },
    {
      "midi": 71,
      "hit": false,
      "t": 11244.520299999998,
      "d": 87.59120000000075,
      "v": 121
    },
    {
      "midi": 71,
      "hit": false,
      "t": 11244.520299999998,
      "d": 87.59120000000075,
      "v": 121
    },
    {
      "midi": 71,
      "hit": false,
      "t": 11244.520299999998,
      "d": 87.59120000000075,
      "v": 121
    },
    {
      "midi": 38,
      "hit": false,
      "t": 11277.367000000006,
      "d": 54.7445000000007,
      "v": 110
    },
    {
      "midi": 42,
      "hit": false,
      "t": 11386.855999999994,
      "d": 45.62041666666664,
      "v": 98
    },
    {
      "midi": 36,
      "hit": false,
      "t": 11386.855999999994,
      "d": 72.99266666666699,
      "v": 127
    },
    {
      "midi": 36,
      "hit": false,
      "t": 11386.855999999994,
      "d": 51.09486666666635,
      "v": 107
    },
    {
      "midi": 36,
      "hit": false,
      "t": 11386.855999999994,
      "d": 51.09486666666635,
      "v": 107
    },
    {
      "midi": 42,
      "hit": false,
      "t": 11386.856000000007,
      "d": 45.62041666666664,
      "v": 48
    },
    {
      "midi": 38,
      "hit": false,
      "t": 11386.856000000007,
      "d": 54.7445000000007,
      "v": 107
    },
    {
      "midi": 36,
      "hit": false,
      "t": 11386.856000000007,
      "d": 63.868583333334755,
      "v": 119
    },
    {
      "midi": 35,
      "hit": false,
      "t": 11386.85600000001,
      "d": 85.76638333333358,
      "v": 107
    },
    {
      "midi": 42,
      "hit": false,
      "t": 11386.85600000001,
      "d": 85.76638333333358,
      "v": 107
    },
    {
      "midi": 70,
      "hit": false,
      "t": 11390.505633333325,
      "d": 87.59120000000075,
      "v": 102
    },
    {
      "midi": 70,
      "hit": false,
      "t": 11390.505633333332,
      "d": 87.59120000000075,
      "v": 122
    },
    {
      "midi": 70,
      "hit": false,
      "t": 11390.505633333332,
      "d": 87.59120000000075,
      "v": 122
    },
    {
      "midi": 70,
      "hit": false,
      "t": 11390.505633333332,
      "d": 87.59120000000075,
      "v": 122
    },
    {
      "midi": 42,
      "hit": false,
      "t": 11496.344999999994,
      "d": 63.868583333332936,
      "v": 98
    },
    {
      "midi": 38,
      "hit": false,
      "t": 11496.345000000008,
      "d": 54.7445000000007,
      "v": 110
    },
    {
      "midi": 42,
      "hit": false,
      "t": 11496.345000000008,
      "d": 63.868583333334755,
      "v": 48
    },
    {
      "midi": 69,
      "hit": false,
      "t": 11536.490966666659,
      "d": 87.59120000000075,
      "v": 105
    },
    {
      "midi": 69,
      "hit": false,
      "t": 11536.490966666666,
      "d": 87.59120000000075,
      "v": 125
    },
    {
      "midi": 69,
      "hit": false,
      "t": 11536.490966666666,
      "d": 87.59120000000075,
      "v": 125
    },
    {
      "midi": 69,
      "hit": false,
      "t": 11536.490966666666,
      "d": 87.59120000000075,
      "v": 125
    },
    {
      "midi": 46,
      "hit": false,
      "t": 11605.833999999993,
      "d": 218.97799999999916,
      "v": 98
    },
    {
      "midi": 38,
      "hit": false,
      "t": 11605.83400000001,
      "d": 45.62041666666664,
      "v": 107
    },
    {
      "midi": 46,
      "hit": false,
      "t": 11605.83400000001,
      "d": 218.97799999999916,
      "v": 48
    },
    {
      "midi": 46,
      "hit": false,
      "t": 11605.834000000012,
      "d": 85.76638333333358,
      "v": 80
    },
    {
      "midi": 68,
      "hit": false,
      "t": 11682.476299999993,
      "d": 87.59120000000075,
      "v": 99
    },
    {
      "midi": 68,
      "hit": false,
      "t": 11682.4763,
      "d": 87.59120000000075,
      "v": 119
    },
    {
      "midi": 68,
      "hit": false,
      "t": 11682.4763,
      "d": 87.59120000000075,
      "v": 119
    },
    {
      "midi": 68,
      "hit": false,
      "t": 11682.4763,
      "d": 87.59120000000075,
      "v": 119
    },
    {
      "midi": 38,
      "hit": false,
      "t": 11715.32300000001,
      "d": 45.62041666666664,
      "v": 110
    },
    {
      "midi": 42,
      "hit": false,
      "t": 11824.811999999993,
      "d": 54.7445000000007,
      "v": 98
    },
    {
      "midi": 36,
      "hit": false,
      "t": 11824.811999999993,
      "d": 63.868583333334755,
      "v": 127
    },
    {
      "midi": 36,
      "hit": false,
      "t": 11824.811999999994,
      "d": 51.09486666666635,
      "v": 107
    },
    {
      "midi": 36,
      "hit": false,
      "t": 11824.811999999994,
      "d": 51.09486666666635,
      "v": 107
    },
    {
      "midi": 42,
      "hit": false,
      "t": 11824.812000000009,
      "d": 54.7445000000007,
      "v": 48
    },
    {
      "midi": 36,
      "hit": false,
      "t": 11824.812000000009,
      "d": 54.7445000000007,
      "v": 116
    },
    {
      "midi": 38,
      "hit": false,
      "t": 11824.812000000009,
      "d": 63.868583333334755,
      "v": 107
    },
    {
      "midi": 35,
      "hit": false,
      "t": 11824.812000000013,
      "d": 85.76638333333358,
      "v": 107
    },
    {
      "midi": 42,
      "hit": false,
      "t": 11824.812000000013,
      "d": 85.76638333333358,
      "v": 107
    },
    {
      "midi": 67,
      "hit": false,
      "t": 11828.461633333327,
      "d": 87.59120000000075,
      "v": 102
    },
    {
      "midi": 59,
      "hit": false,
      "t": 11828.461633333332,
      "d": 127.73716666666587,
      "v": 118
    },
    {
      "midi": 67,
      "hit": false,
      "t": 11828.461633333334,
      "d": 87.59120000000075,
      "v": 122
    },
    {
      "midi": 67,
      "hit": false,
      "t": 11828.461633333334,
      "d": 87.59120000000075,
      "v": 122
    },
    {
      "midi": 67,
      "hit": false,
      "t": 11828.461633333334,
      "d": 87.59120000000075,
      "v": 122
    },
    {
      "midi": 42,
      "hit": false,
      "t": 11934.300999999994,
      "d": 72.99266666666699,
      "v": 98
    },
    {
      "midi": 47,
      "hit": false,
      "t": 11934.30100000001,
      "d": 63.868583333332936,
      "v": 110
    },
    {
      "midi": 42,
      "hit": false,
      "t": 11934.30100000001,
      "d": 72.99266666666699,
      "v": 48
    },
    {
      "midi": 66,
      "hit": false,
      "t": 11974.446966666661,
      "d": 87.59120000000075,
      "v": 99
    },
    {
      "midi": 61,
      "hit": false,
      "t": 11974.446966666665,
      "d": 127.73716666666587,
      "v": 127
    },
    {
      "midi": 66,
      "hit": false,
      "t": 11974.446966666668,
      "d": 87.59120000000075,
      "v": 119
    },
    {
      "midi": 66,
      "hit": false,
      "t": 11974.446966666668,
      "d": 87.59120000000075,
      "v": 119
    },
    {
      "midi": 66,
      "hit": false,
      "t": 11974.446966666668,
      "d": 87.59120000000075,
      "v": 119
    },
    {
      "midi": 46,
      "hit": false,
      "t": 12043.789999999994,
      "d": 218.97799999999916,
      "v": 98
    },
    {
      "midi": 45,
      "hit": false,
      "t": 12043.79000000001,
      "d": 54.7445000000007,
      "v": 105
    },
    {
      "midi": 46,
      "hit": false,
      "t": 12043.79000000001,
      "d": 218.9780000000028,
      "v": 48
    },
    {
      "midi": 46,
      "hit": false,
      "t": 12043.790000000014,
      "d": 85.76638333333358,
      "v": 80
    },
    {
      "midi": 65,
      "hit": false,
      "t": 12120.432299999995,
      "d": 87.59120000000075,
      "v": 105
    },
    {
      "midi": 62,
      "hit": false,
      "t": 12120.432299999997,
      "d": 127.73716666666587,
      "v": 127
    },
    {
      "midi": 65,
      "hit": false,
      "t": 12120.432300000002,
      "d": 87.59120000000075,
      "v": 125
    },
    {
      "midi": 65,
      "hit": false,
      "t": 12120.432300000002,
      "d": 87.59120000000075,
      "v": 125
    },
    {
      "midi": 65,
      "hit": false,
      "t": 12120.432300000002,
      "d": 87.59120000000075,
      "v": 125
    },
    {
      "midi": 43,
      "hit": false,
      "t": 12153.279000000011,
      "d": 54.7445000000007,
      "v": 116
    },
    {
      "midi": 42,
      "hit": false,
      "t": 12262.767999999993,
      "d": 45.62041666666664,
      "v": 98
    },
    {
      "midi": 36,
      "hit": false,
      "t": 12262.767999999993,
      "d": 54.7445000000007,
      "v": 127
    },
    {
      "midi": 36,
      "hit": false,
      "t": 12262.767999999995,
      "d": 51.09486666666635,
      "v": 107
    },
    {
      "midi": 36,
      "hit": false,
      "t": 12262.767999999995,
      "d": 51.09486666666635,
      "v": 107
    },
    {
      "midi": 42,
      "hit": false,
      "t": 12262.768000000013,
      "d": 36.496333333334405,
      "v": 45
    },
    {
      "midi": 36,
      "hit": false,
      "t": 12262.768000000013,
      "d": 437.95600000000013,
      "v": 120
    },
    {
      "midi": 35,
      "hit": false,
      "t": 12262.768000000015,
      "d": 85.76638333333358,
      "v": 107
    },
    {
      "midi": 42,
      "hit": false,
      "t": 12262.768000000015,
      "d": 85.76638333333358,
      "v": 107
    },
    {
      "midi": 64,
      "hit": false,
      "t": 12266.417633333329,
      "d": 87.59120000000075,
      "v": 107
    },
    {
      "midi": 64,
      "hit": false,
      "t": 12266.417633333336,
      "d": 87.59120000000075,
      "v": 127
    },
    {
      "midi": 64,
      "hit": false,
      "t": 12266.417633333336,
      "d": 87.59120000000075,
      "v": 127
    },
    {
      "midi": 64,
      "hit": false,
      "t": 12266.417633333336,
      "d": 87.59120000000075,
      "v": 127
    },
    {
      "midi": 64,
      "hit": false,
      "t": 12271.892083333329,
      "d": 122.26271666666617,
      "v": 127
    },
    {
      "midi": 45,
      "hit": false,
      "t": 12271.89208333333,
      "d": 145.98533333333398,
      "v": 100
    },
    {
      "midi": 49,
      "hit": false,
      "t": 12271.89208333333,
      "d": 145.98533333333398,
      "v": 100
    },
    {
      "midi": 52,
      "hit": false,
      "t": 12271.89208333333,
      "d": 158.75905000000057,
      "v": 103
    },
    {
      "midi": 49,
      "hit": false,
      "t": 12290.140250000013,
      "d": 1085.7659166666635,
      "v": 127
    },
    {
      "midi": 42,
      "hit": false,
      "t": 12372.256999999994,
      "d": 63.868583333332936,
      "v": 98
    },
    {
      "midi": 42,
      "hit": false,
      "t": 12372.257000000014,
      "d": 45.62041666666664,
      "v": 45
    },
    {
      "midi": 46,
      "hit": false,
      "t": 12481.745999999994,
      "d": 218.97799999999916,
      "v": 98
    },
    {
      "midi": 42,
      "hit": false,
      "t": 12481.746000000014,
      "d": 45.62041666666664,
      "v": 45
    },
    {
      "midi": 46,
      "hit": false,
      "t": 12481.746000000016,
      "d": 85.76638333333358,
      "v": 80
    },
    {
      "midi": 42,
      "hit": false,
      "t": 12591.235000000013,
      "d": 45.62041666666664,
      "v": 45
    },
    {
      "midi": 42,
      "hit": false,
      "t": 12700.723999999993,
      "d": 45.62041666666664,
      "v": 98
    },
    {
      "midi": 36,
      "hit": false,
      "t": 12700.723999999993,
      "d": 54.7445000000007,
      "v": 127
    },
    {
      "midi": 36,
      "hit": false,
      "t": 12700.723999999995,
      "d": 51.09486666666635,
      "v": 107
    },
    {
      "midi": 36,
      "hit": false,
      "t": 12700.723999999995,
      "d": 51.09486666666635,
      "v": 107
    },
    {
      "midi": 21,
      "hit": false,
      "t": 12700.723999999997,
      "d": 218.97799999999916,
      "v": 121
    },
    {
      "midi": 42,
      "hit": false,
      "t": 12700.724000000013,
      "d": 45.62041666666664,
      "v": 45
    },
    {
      "midi": 38,
      "hit": false,
      "t": 12700.724000000013,
      "d": 437.9559999999983,
      "v": 127
    },
    {
      "midi": 35,
      "hit": false,
      "t": 12700.724000000017,
      "d": 85.76638333333358,
      "v": 107
    },
    {
      "midi": 42,
      "hit": false,
      "t": 12700.724000000017,
      "d": 85.76638333333358,
      "v": 107
    },
    {
      "midi": 42,
      "hit": false,
      "t": 12810.212999999994,
      "d": 63.868583333332936,
      "v": 98
    },
    {
      "midi": 42,
      "hit": false,
      "t": 12810.213000000012,
      "d": 36.496333333332586,
      "v": 45
    },
    {
      "midi": 46,
      "hit": false,
      "t": 12919.701999999994,
      "d": 218.97799999999916,
      "v": 98
    },
    {
      "midi": 42,
      "hit": false,
      "t": 12919.702000000012,
      "d": 36.496333333332586,
      "v": 45
    },
    {
      "midi": 46,
      "hit": false,
      "t": 12919.702000000018,
      "d": 85.76638333333358,
      "v": 80
    },
    {
      "midi": 42,
      "hit": false,
      "t": 13029.191000000012,
      "d": 45.62041666666664,
      "v": 45
    },
    {
      "midi": 36,
      "hit": false,
      "t": 13029.191000000012,
      "d": 109.48899999999958,
      "v": 120
    },
    {
      "midi": 42,
      "hit": false,
      "t": 13138.679999999993,
      "d": 45.62041666666664,
      "v": 98
    },
    {
      "midi": 36,
      "hit": false,
      "t": 13138.679999999993,
      "d": 63.868583333332936,
      "v": 127
    },
    {
      "midi": 21,
      "hit": false,
      "t": 13138.679999999995,
      "d": 218.97799999999916,
      "v": 121
    },
    {
      "midi": 36,
      "hit": false,
      "t": 13138.679999999995,
      "d": 51.09486666666635,
      "v": 107
    },
    {
      "midi": 36,
      "hit": false,
      "t": 13138.679999999995,
      "d": 51.09486666666635,
      "v": 107
    },
    {
      "midi": 42,
      "hit": false,
      "t": 13138.680000000011,
      "d": 45.62041666666664,
      "v": 45
    },
    {
      "midi": 36,
      "hit": false,
      "t": 13138.680000000011,
      "d": 218.97799999999916,
      "v": 120
    },
    {
      "midi": 35,
      "hit": false,
      "t": 13138.680000000018,
      "d": 85.76638333333358,
      "v": 107
    },
    {
      "midi": 42,
      "hit": false,
      "t": 13138.680000000018,
      "d": 85.76638333333358,
      "v": 107
    },
    {
      "midi": 42,
      "hit": false,
      "t": 13248.168999999993,
      "d": 63.868583333332936,
      "v": 98
    },
    {
      "midi": 42,
      "hit": false,
      "t": 13248.16900000001,
      "d": 45.62041666666664,
      "v": 45
    },
    {
      "midi": 46,
      "hit": false,
      "t": 13357.657999999992,
      "d": 218.97799999999916,
      "v": 98
    },
    {
      "midi": 42,
      "hit": false,
      "t": 13357.65800000001,
      "d": 36.496333333332586,
      "v": 45
    },
    {
      "midi": 36,
      "hit": false,
      "t": 13357.65800000001,
      "d": 218.97799999999916,
      "v": 120
    },
    {
      "midi": 46,
      "hit": false,
      "t": 13357.65800000002,
      "d": 85.76638333333358,
      "v": 80
    },
    {
      "midi": 33,
      "hit": false,
      "t": 13421.52658333333,
      "d": 82.11674999999923,
      "v": 121
    },
    {
      "midi": 21,
      "hit": false,
      "t": 13430.650666666661,
      "d": 122.26271666666617,
      "v": 97
    },
    {
      "midi": 42,
      "hit": false,
      "t": 13467.14700000001,
      "d": 36.496333333332586,
      "v": 45
    },
    {
      "midi": 35,
      "hit": false,
      "t": 13567.511916666663,
      "d": 82.11674999999923,
      "v": 116
    },
    {
      "midi": 42,
      "hit": false,
      "t": 13576.635999999991,
      "d": 54.7445000000007,
      "v": 98
    },
    {
      "midi": 36,
      "hit": false,
      "t": 13576.635999999991,
      "d": 63.868583333334755,
      "v": 127
    },
    {
      "midi": 23,
      "hit": false,
      "t": 13576.635999999993,
      "d": 155.10941666666622,
      "v": 97
    },
    {
      "midi": 36,
      "hit": false,
      "t": 13576.635999999995,
      "d": 51.09486666666635,
      "v": 107
    },
    {
      "midi": 36,
      "hit": false,
      "t": 13576.635999999995,
      "d": 51.09486666666635,
      "v": 107
    },
    {
      "midi": 42,
      "hit": false,
      "t": 13576.63600000001,
      "d": 36.496333333332586,
      "v": 45
    },
    {
      "midi": 38,
      "hit": false,
      "t": 13576.63600000001,
      "d": 218.97799999999916,
      "v": 127
    },
    {
      "midi": 35,
      "hit": false,
      "t": 13576.63600000002,
      "d": 85.76638333333358,
      "v": 107
    },
    {
      "midi": 42,
      "hit": false,
      "t": 13576.63600000002,
      "d": 85.76638333333358,
      "v": 107
    },
    {
      "midi": 42,
      "hit": false,
      "t": 13686.124999999993,
      "d": 72.99266666666699,
      "v": 98
    },
    {
      "midi": 42,
      "hit": false,
      "t": 13686.12500000001,
      "d": 36.496333333332586,
      "v": 45
    },
    {
      "midi": 46,
      "hit": false,
      "t": 13795.613999999992,
      "d": 218.97799999999916,
      "v": 98
    },
    {
      "midi": 42,
      "hit": false,
      "t": 13795.614000000009,
      "d": 36.496333333332586,
      "v": 45
    },
    {
      "midi": 36,
      "hit": false,
      "t": 13795.614000000009,
      "d": 218.97799999999916,
      "v": 120
    },
    {
      "midi": 46,
      "hit": false,
      "t": 13795.614000000021,
      "d": 85.76638333333358,
      "v": 80
    },
    {
      "midi": 37,
      "hit": false,
      "t": 13859.482583333329,
      "d": 82.11674999999923,
      "v": 116
    },
    {
      "midi": 25,
      "hit": false,
      "t": 13868.60666666666,
      "d": 122.26271666666617,
      "v": 109
    },
    {
      "midi": 36,
      "hit": false,
      "t": 13905.102999999996,
      "d": 51.09486666666635,
      "v": 67
    },
    {
      "midi": 36,
      "hit": false,
      "t": 13905.102999999996,
      "d": 51.09486666666635,
      "v": 67
    },
    {
      "midi": 42,
      "hit": false,
      "t": 13905.103000000008,
      "d": 45.62041666666664,
      "v": 45
    },
    {
      "midi": 35,
      "hit": false,
      "t": 13905.103000000021,
      "d": 85.76638333333358,
      "v": 97
    },
    {
      "midi": 42,
      "hit": false,
      "t": 13905.103000000021,
      "d": 85.76638333333358,
      "v": 107
    },
    {
      "midi": 42,
      "hit": false,
      "t": 14014.591999999991,
      "d": 45.62041666666664,
      "v": 98
    },
    {
      "midi": 36,
      "hit": false,
      "t": 14014.591999999991,
      "d": 54.7445000000007,
      "v": 127
    },
    {
      "midi": 36,
      "hit": false,
      "t": 14014.591999999995,
      "d": 51.09486666666635,
      "v": 107
    },
    {
      "midi": 36,
      "hit": false,
      "t": 14014.591999999995,
      "d": 51.09486666666635,
      "v": 107
    },
    {
      "midi": 42,
      "hit": false,
      "t": 14014.592000000008,
      "d": 36.496333333332586,
      "v": 45
    },
    {
      "midi": 36,
      "hit": false,
      "t": 14014.592000000008,
      "d": 437.9559999999983,
      "v": 120
    },
    {
      "midi": 35,
      "hit": false,
      "t": 14014.59200000002,
      "d": 85.76638333333358,
      "v": 107
    },
    {
      "midi": 42,
      "hit": false,
      "t": 14014.59200000002,
      "d": 85.76638333333358,
      "v": 107
    },
    {
      "midi": 62,
      "hit": false,
      "t": 14018.24163333333,
      "d": 434.3063666666658,
      "v": 100
    },
    {
      "midi": 66,
      "hit": false,
      "t": 14018.241633333337,
      "d": 1003.6491666666661,
      "v": 97
    },
    {
      "midi": 38,
      "hit": false,
      "t": 14023.716083333326,
      "d": 291.97066666666615,
      "v": 119
    },
    {
      "midi": 66,
      "hit": false,
      "t": 14023.71608333333,
      "d": 428.8319166666661,
      "v": 94
    },
    {
      "midi": 57,
      "hit": false,
      "t": 14023.716083333331,
      "d": 1742.6999166666665,
      "v": 127
    },
    {
      "midi": 69,
      "hit": false,
      "t": 14027.365716666662,
      "d": 425.18228333333354,
      "v": 103
    },
    {
      "midi": 62,
      "hit": false,
      "t": 14032.840166666665,
      "d": 273.72249999999804,
      "v": 87
    },
    {
      "midi": 78,
      "hit": false,
      "t": 14032.84016666667,
      "d": 994.5250833333321,
      "v": 97
    },
    {
      "midi": 66,
      "hit": false,
      "t": 14036.489799999998,
      "d": 270.0728666666655,
      "v": 91
    },
    {
      "midi": 69,
      "hit": false,
      "t": 14041.964249999997,
      "d": 264.5984166666658,
      "v": 88
    },
    {
      "midi": 44,
      "hit": false,
      "t": 14041.964249999997,
      "d": 21.897800000000643,
      "v": 127
    },
    {
      "midi": 44,
      "hit": false,
      "t": 14041.964249999997,
      "d": 21.897800000000643,
      "v": 127
    },
    {
      "midi": 44,
      "hit": false,
      "t": 14041.964250000003,
      "d": 21.897800000000643,
      "v": 127
    },
    {
      "midi": 44,
      "hit": false,
      "t": 14041.964250000003,
      "d": 21.897800000000643,
      "v": 127
    },
    {
      "midi": 45,
      "hit": false,
      "t": 14063.862049999998,
      "d": 255.47433333333174,
      "v": 127
    },
    {
      "midi": 45,
      "hit": false,
      "t": 14063.862049999998,
      "d": 255.47433333333174,
      "v": 127
    },
    {
      "midi": 45,
      "hit": false,
      "t": 14063.862050000003,
      "d": 255.47433333333174,
      "v": 127
    },
    {
      "midi": 45,
      "hit": false,
      "t": 14063.862050000003,
      "d": 255.47433333333174,
      "v": 127
    },
    {
      "midi": 42,
      "hit": false,
      "t": 14124.080999999993,
      "d": 63.868583333332936,
      "v": 98
    },
    {
      "midi": 42,
      "hit": false,
      "t": 14124.081000000007,
      "d": 36.496333333332586,
      "v": 45
    },
    {
      "midi": 46,
      "hit": false,
      "t": 14233.569999999992,
      "d": 218.97799999999916,
      "v": 98
    },
    {
      "midi": 42,
      "hit": false,
      "t": 14233.570000000007,
      "d": 36.496333333332586,
      "v": 45
    },
    {
      "midi": 46,
      "hit": false,
      "t": 14233.570000000022,
      "d": 85.76638333333358,
      "v": 80
    },
    {
      "midi": 62,
      "hit": false,
      "t": 14315.686749999997,
      "d": 58.39413333333323,
      "v": 84
    },
    {
      "midi": 66,
      "hit": false,
      "t": 14315.686749999997,
      "d": 67.51821666666729,
      "v": 93
    },
    {
      "midi": 69,
      "hit": false,
      "t": 14315.686749999997,
      "d": 72.99266666666699,
      "v": 91
    },
    {
      "midi": 50,
      "hit": false,
      "t": 14315.686749999997,
      "d": 136.86124999999993,
      "v": 127
    },
    {
      "midi": 50,
      "hit": false,
      "t": 14315.686749999997,
      "d": 136.86124999999993,
      "v": 127
    },
    {
      "midi": 50,
      "hit": false,
      "t": 14315.686750000003,
      "d": 136.86124999999993,
      "v": 127
    },
    {
      "midi": 50,
      "hit": false,
      "t": 14315.686750000003,
      "d": 136.86124999999993,
      "v": 127
    },
    {
      "midi": 42,
      "hit": false,
      "t": 14343.059000000007,
      "d": 36.496333333332586,
      "v": 45
    },
    {
      "midi": 49,
      "hit": false,
      "t": 14443.423916666661,
      "d": 145.98533333333398,
      "v": 121
    },
    {
      "midi": 42,
      "hit": false,
      "t": 14452.547999999992,
      "d": 45.62041666666664,
      "v": 98
    },
    {
      "midi": 36,
      "hit": false,
      "t": 14452.547999999992,
      "d": 54.7445000000007,
      "v": 127
    },
    {
      "midi": 36,
      "hit": false,
      "t": 14452.547999999995,
      "d": 51.09486666666635,
      "v": 107
    },
    {
      "midi": 36,
      "hit": false,
      "t": 14452.547999999995,
      "d": 51.09486666666635,
      "v": 107
    },
    {
      "midi": 42,
      "hit": false,
      "t": 14452.548000000006,
      "d": 45.62041666666664,
      "v": 45
    },
    {
      "midi": 38,
      "hit": false,
      "t": 14452.548000000006,
      "d": 328.46699999999873,
      "v": 127
    },
    {
      "midi": 35,
      "hit": false,
      "t": 14452.548000000023,
      "d": 85.76638333333358,
      "v": 107
    },
    {
      "midi": 42,
      "hit": false,
      "t": 14452.548000000023,
      "d": 85.76638333333358,
      "v": 107
    },
    {
      "midi": 37,
      "hit": false,
      "t": 14456.197633333324,
      "d": 282.8465833333339,
      "v": 116
    },
    {
      "midi": 62,
      "hit": false,
      "t": 14456.197633333328,
      "d": 434.3063666666658,
      "v": 100
    },
    {
      "midi": 66,
      "hit": false,
      "t": 14461.672083333327,
      "d": 428.8319166666661,
      "v": 94
    },
    {
      "midi": 69,
      "hit": false,
      "t": 14461.672083333327,
      "d": 428.8319166666661,
      "v": 107
    },
    {
      "midi": 50,
      "hit": false,
      "t": 14465.321716666664,
      "d": 264.5984166666658,
      "v": 127
    },
    {
      "midi": 50,
      "hit": false,
      "t": 14465.321716666664,
      "d": 264.5984166666658,
      "v": 127
    },
    {
      "midi": 50,
      "hit": false,
      "t": 14465.321716666669,
      "d": 264.5984166666658,
      "v": 127
    },
    {
      "midi": 50,
      "hit": false,
      "t": 14465.321716666669,
      "d": 264.5984166666658,
      "v": 127
    },
    {
      "midi": 42,
      "hit": false,
      "t": 14562.036999999993,
      "d": 63.868583333332936,
      "v": 98
    },
    {
      "midi": 42,
      "hit": false,
      "t": 14562.037000000006,
      "d": 45.62041666666664,
      "v": 45
    },
    {
      "midi": 46,
      "hit": false,
      "t": 14671.525999999993,
      "d": 218.97799999999916,
      "v": 98
    },
    {
      "midi": 42,
      "hit": false,
      "t": 14671.526000000005,
      "d": 45.62041666666664,
      "v": 45
    },
    {
      "midi": 46,
      "hit": false,
      "t": 14671.526000000023,
      "d": 85.76638333333358,
      "v": 80
    },
    {
      "midi": 52,
      "hit": false,
      "t": 14711.671966666663,
      "d": 45.62041666666482,
      "v": 127
    },
    {
      "midi": 52,
      "hit": false,
      "t": 14711.671966666663,
      "d": 45.62041666666482,
      "v": 127
    },
    {
      "midi": 52,
      "hit": false,
      "t": 14711.671966666669,
      "d": 45.62041666666482,
      "v": 127
    },
    {
      "midi": 52,
      "hit": false,
      "t": 14711.671966666669,
      "d": 45.62041666666482,
      "v": 127
    },
    {
      "midi": 54,
      "hit": false,
      "t": 14753.642749999995,
      "d": 136.86124999999993,
      "v": 127
    },
    {
      "midi": 54,
      "hit": false,
      "t": 14753.642749999995,
      "d": 136.86124999999993,
      "v": 127
    },
    {
      "midi": 66,
      "hit": false,
      "t": 14753.642749999997,
      "d": 67.51821666666729,
      "v": 87
    },
    {
      "midi": 62,
      "hit": false,
      "t": 14753.642749999997,
      "d": 76.64230000000134,
      "v": 88
    },
    {
      "midi": 69,
      "hit": false,
      "t": 14753.642749999997,
      "d": 85.7663833333354,
      "v": 87
    },
    {
      "midi": 54,
      "hit": false,
      "t": 14753.64275,
      "d": 136.86124999999993,
      "v": 127
    },
    {
      "midi": 54,
      "hit": false,
      "t": 14753.64275,
      "d": 136.86124999999993,
      "v": 127
    },
    {
      "midi": 42,
      "hit": false,
      "t": 14781.015000000005,
      "d": 45.62041666666664,
      "v": 45
    },
    {
      "midi": 36,
      "hit": false,
      "t": 14781.015000000005,
      "d": 109.48899999999958,
      "v": 120
    },
    {
      "midi": 47,
      "hit": false,
      "t": 14885.029549999996,
      "d": 142.33569999999963,
      "v": 116
    },
    {
      "midi": 42,
      "hit": false,
      "t": 14890.503999999992,
      "d": 45.62041666666664,
      "v": 98
    },
    {
      "midi": 36,
      "hit": false,
      "t": 14890.503999999992,
      "d": 54.7445000000007,
      "v": 127
    },
    {
      "midi": 36,
      "hit": false,
      "t": 14890.503999999995,
      "d": 51.09486666666635,
      "v": 107
    },
    {
      "midi": 36,
      "hit": false,
      "t": 14890.503999999995,
      "d": 51.09486666666635,
      "v": 107
    },
    {
      "midi": 42,
      "hit": false,
      "t": 14890.504000000004,
      "d": 45.62041666666664,
      "v": 45
    },
    {
      "midi": 36,
      "hit": false,
      "t": 14890.504000000004,
      "d": 218.97799999999916,
      "v": 120
    },
    {
      "midi": 35,
      "hit": false,
      "t": 14890.504000000024,
      "d": 85.76638333333358,
      "v": 107
    },
    {
      "midi": 42,
      "hit": false,
      "t": 14890.504000000024,
      "d": 85.76638333333358,
      "v": 107
    },
    {
      "midi": 35,
      "hit": false,
      "t": 14894.153633333324,
      "d": 306.5691999999999,
      "v": 116
    },
    {
      "midi": 62,
      "hit": false,
      "t": 14894.153633333326,
      "d": 434.3063666666658,
      "v": 100
    },
    {
      "midi": 66,
      "hit": false,
      "t": 14899.628083333326,
      "d": 428.8319166666661,
      "v": 98
    },
    {
      "midi": 69,
      "hit": false,
      "t": 14903.277716666658,
      "d": 425.18228333333354,
      "v": 107
    },
    {
      "midi": 57,
      "hit": false,
      "t": 14903.277716666662,
      "d": 291.97066666666797,
      "v": 127
    },
    {
      "midi": 57,
      "hit": false,
      "t": 14903.277716666662,
      "d": 291.97066666666797,
      "v": 127
    },
    {
      "midi": 57,
      "hit": false,
      "t": 14903.277716666667,
      "d": 291.97066666666797,
      "v": 127
    },
    {
      "midi": 57,
      "hit": false,
      "t": 14903.277716666667,
      "d": 291.97066666666797,
      "v": 127
    },
    {
      "midi": 42,
      "hit": false,
      "t": 14999.992999999993,
      "d": 63.868583333332936,
      "v": 98
    },
    {
      "midi": 42,
      "hit": false,
      "t": 14999.993000000004,
      "d": 45.62041666666664,
      "v": 45
    },
    {
      "midi": 46,
      "hit": false,
      "t": 15109.481999999993,
      "d": 218.97799999999916,
      "v": 98
    },
    {
      "midi": 42,
      "hit": false,
      "t": 15109.482000000004,
      "d": 45.62041666666664,
      "v": 45
    },
    {
      "midi": 36,
      "hit": false,
      "t": 15109.482000000004,
      "d": 218.97799999999916,
      "v": 120
    },
    {
      "midi": 46,
      "hit": false,
      "t": 15109.482000000025,
      "d": 85.76638333333358,
      "v": 80
    },
    {
      "midi": 66,
      "hit": false,
      "t": 15186.124300000003,
      "d": 105.83936666666705,
      "v": 97
    },
    {
      "midi": 66,
      "hit": false,
      "t": 15191.59875,
      "d": 58.39413333333323,
      "v": 87
    },
    {
      "midi": 62,
      "hit": false,
      "t": 15191.59875,
      "d": 67.51821666666729,
      "v": 88
    },
    {
      "midi": 78,
      "hit": false,
      "t": 15191.598750000003,
      "d": 100.36491666666734,
      "v": 97
    },
    {
      "midi": 54,
      "hit": false,
      "t": 15195.24838333333,
      "d": 136.86124999999993,
      "v": 127
    },
    {
      "midi": 54,
      "hit": false,
      "t": 15195.24838333333,
      "d": 136.86124999999993,
      "v": 127
    },
    {
      "midi": 69,
      "hit": false,
      "t": 15195.248383333332,
      "d": 78.46711666666852,
      "v": 91
    },
    {
      "midi": 54,
      "hit": false,
      "t": 15195.248383333335,
      "d": 136.86124999999993,
      "v": 127
    },
    {
      "midi": 54,
      "hit": false,
      "t": 15195.248383333335,
      "d": 136.86124999999993,
      "v": 127
    },
    {
      "midi": 42,
      "hit": false,
      "t": 15218.971000000003,
      "d": 36.496333333332586,
      "v": 45
    },
    {
      "midi": 45,
      "hit": false,
      "t": 15322.985549999996,
      "d": 142.33569999999963,
      "v": 117
    },
    {
      "midi": 42,
      "hit": false,
      "t": 15328.459999999992,
      "d": 54.7445000000007,
      "v": 98
    },
    {
      "midi": 36,
      "hit": false,
      "t": 15328.459999999992,
      "d": 54.7445000000007,
      "v": 127
    },
    {
      "midi": 36,
      "hit": false,
      "t": 15328.459999999995,
      "d": 51.09486666666635,
      "v": 107
    },
    {
      "midi": 36,
      "hit": false,
      "t": 15328.459999999995,
      "d": 51.09486666666635,
      "v": 107
    },
    {
      "midi": 42,
      "hit": false,
      "t": 15328.460000000003,
      "d": 36.496333333332586,
      "v": 45
    },
    {
      "midi": 38,
      "hit": false,
      "t": 15328.460000000003,
      "d": 218.97799999999916,
      "v": 127
    },
    {
      "midi": 35,
      "hit": false,
      "t": 15328.460000000026,
      "d": 85.76638333333358,
      "v": 107
    },
    {
      "midi": 42,
      "hit": false,
      "t": 15328.460000000026,
      "d": 85.76638333333358,
      "v": 107
    },
    {
      "midi": 33,
      "hit": false,
      "t": 15332.109633333324,
      "d": 288.3210333333336,
      "v": 118
    },
    {
      "midi": 62,
      "hit": false,
      "t": 15332.109633333324,
      "d": 434.3063666666658,
      "v": 100
    },
    {
      "midi": 66,
      "hit": false,
      "t": 15332.109633333337,
      "d": 251.82470000000103,
      "v": 97
    },
    {
      "midi": 66,
      "hit": false,
      "t": 15337.584083333324,
      "d": 428.8319166666661,
      "v": 97
    },
    {
      "midi": 69,
      "hit": false,
      "t": 15341.233716666657,
      "d": 425.18228333333354,
      "v": 107
    },
    {
      "midi": 57,
      "hit": false,
      "t": 15346.708166666664,
      "d": 423.35746666666273,
      "v": 127
    },
    {
      "midi": 57,
      "hit": false,
      "t": 15346.708166666664,
      "d": 423.35746666666273,
      "v": 127
    },
    {
      "midi": 57,
      "hit": false,
      "t": 15346.708166666669,
      "d": 423.35746666666273,
      "v": 127
    },
    {
      "midi": 57,
      "hit": false,
      "t": 15346.708166666669,
      "d": 423.35746666666273,
      "v": 127
    },
    {
      "midi": 78,
      "hit": false,
      "t": 15346.70816666667,
      "d": 237.22616666666727,
      "v": 97
    },
    {
      "midi": 42,
      "hit": false,
      "t": 15437.948999999993,
      "d": 72.99266666666699,
      "v": 98
    },
    {
      "midi": 42,
      "hit": false,
      "t": 15437.949000000002,
      "d": 36.496333333332586,
      "v": 45
    },
    {
      "midi": 46,
      "hit": false,
      "t": 15547.437999999993,
      "d": 218.97799999999916,
      "v": 98
    },
    {
      "midi": 46,
      "hit": false,
      "t": 15547.438000000002,
      "d": 45.62041666666664,
      "v": 45
    },
    {
      "midi": 36,
      "hit": false,
      "t": 15547.438000000002,
      "d": 218.97799999999916,
      "v": 120
    },
    {
      "midi": 46,
      "hit": false,
      "t": 15547.438000000027,
      "d": 85.76638333333358,
      "v": 80
    },
    {
      "midi": 62,
      "hit": false,
      "t": 15624.080300000005,
      "d": 127.73716666666587,
      "v": 97
    },
    {
      "midi": 62,
      "hit": false,
      "t": 15629.55475,
      "d": 63.868583333332936,
      "v": 85
    },
    {
      "midi": 74,
      "hit": false,
      "t": 15629.554750000005,
      "d": 127.73716666666587,
      "v": 97
    },
    {
      "midi": 66,
      "hit": false,
      "t": 15633.204383333332,
      "d": 41.97078333333411,
      "v": 91
    },
    {
      "midi": 69,
      "hit": false,
      "t": 15633.204383333332,
      "d": 63.868583333332936,
      "v": 85
    },
    {
      "midi": 50,
      "hit": false,
      "t": 15760.941549999996,
      "d": 118.61308333333363,
      "v": 121
    },
    {
      "midi": 42,
      "hit": false,
      "t": 15766.415999999992,
      "d": 45.62041666666664,
      "v": 98
    },
    {
      "midi": 36,
      "hit": false,
      "t": 15766.415999999992,
      "d": 54.7445000000007,
      "v": 127
    },
    {
      "midi": 36,
      "hit": false,
      "t": 15766.415999999996,
      "d": 51.09486666666635,
      "v": 107
    },
    {
      "midi": 36,
      "hit": false,
      "t": 15766.415999999996,
      "d": 51.09486666666635,
      "v": 107
    },
    {
      "midi": 42,
      "hit": false,
      "t": 15766.416000000001,
      "d": 36.496333333332586,
      "v": 45
    },
    {
      "midi": 36,
      "hit": false,
      "t": 15766.416000000001,
      "d": 437.9559999999983,
      "v": 120
    },
    {
      "midi": 35,
      "hit": false,
      "t": 15766.416000000028,
      "d": 85.76638333333358,
      "v": 107
    },
    {
      "midi": 42,
      "hit": false,
      "t": 15766.416000000028,
      "d": 85.76638333333358,
      "v": 107
    },
    {
      "midi": 57,
      "hit": false,
      "t": 15770.065633333337,
      "d": 1748.174366666668,
      "v": 97
    },
    {
      "midi": 38,
      "hit": false,
      "t": 15775.540083333324,
      "d": 277.3721333333324,
      "v": 119
    },
    {
      "midi": 62,
      "hit": false,
      "t": 15775.540083333324,
      "d": 428.8319166666661,
      "v": 98
    },
    {
      "midi": 66,
      "hit": false,
      "t": 15775.540083333324,
      "d": 428.8319166666661,
      "v": 103
    },
    {
      "midi": 69,
      "hit": false,
      "t": 15779.189716666657,
      "d": 425.18228333333354,
      "v": 107
    },
    {
      "midi": 69,
      "hit": false,
      "t": 15779.189716666664,
      "d": 1739.050283333334,
      "v": 127
    },
    {
      "midi": 69,
      "hit": false,
      "t": 15784.664166666671,
      "d": 1737.2254666666686,
      "v": 97
    },
    {
      "midi": 62,
      "hit": false,
      "t": 15788.313799999998,
      "d": 270.0728666666655,
      "v": 90
    },
    {
      "midi": 66,
      "hit": false,
      "t": 15793.788249999998,
      "d": 264.5984166666658,
      "v": 91
    },
    {
      "midi": 69,
      "hit": false,
      "t": 15793.788249999998,
      "d": 264.5984166666658,
      "v": 92
    },
    {
      "midi": 55,
      "hit": false,
      "t": 15797.437883333327,
      "d": 260.9487833333278,
      "v": 127
    },
    {
      "midi": 55,
      "hit": false,
      "t": 15797.437883333327,
      "d": 260.9487833333278,
      "v": 127
    },
    {
      "midi": 55,
      "hit": false,
      "t": 15797.437883333332,
      "d": 260.9487833333278,
      "v": 127
    },
    {
      "midi": 55,
      "hit": false,
      "t": 15797.437883333332,
      "d": 260.9487833333278,
      "v": 127
    },
    {
      "midi": 42,
      "hit": false,
      "t": 15875.904999999993,
      "d": 63.868583333332936,
      "v": 98
    },
    {
      "midi": 42,
      "hit": false,
      "t": 15875.905,
      "d": 45.62041666666664,
      "v": 45
    },
    {
      "midi": 46,
      "hit": false,
      "t": 15985.393999999993,
      "d": 218.97799999999916,
      "v": 98
    },
    {
      "midi": 42,
      "hit": false,
      "t": 15985.394,
      "d": 45.62041666666664,
      "v": 45
    },
    {
      "midi": 46,
      "hit": false,
      "t": 15985.39400000003,
      "d": 85.76638333333358,
      "v": 80
    },
    {
      "midi": 62,
      "hit": false,
      "t": 16067.510749999998,
      "d": 49.27004999999917,
      "v": 85
    },
    {
      "midi": 66,
      "hit": false,
      "t": 16067.510749999998,
      "d": 58.39413333333323,
      "v": 92
    },
    {
      "midi": 69,
      "hit": false,
      "t": 16067.510749999998,
      "d": 58.39413333333323,
      "v": 91
    },
    {
      "midi": 59,
      "hit": false,
      "t": 16071.160383333321,
      "d": 136.86124999999993,
      "v": 127
    },
    {
      "midi": 59,
      "hit": false,
      "t": 16071.160383333321,
      "d": 136.86124999999993,
      "v": 127
    },
    {
      "midi": 59,
      "hit": false,
      "t": 16071.160383333327,
      "d": 136.86124999999993,
      "v": 127
    },
    {
      "midi": 59,
      "hit": false,
      "t": 16071.160383333327,
      "d": 136.86124999999993,
      "v": 127
    },
    {
      "midi": 42,
      "hit": false,
      "t": 16094.883,
      "d": 45.62041666666664,
      "v": 45
    },
    {
      "midi": 45,
      "hit": false,
      "t": 16198.897549999996,
      "d": 136.86124999999993,
      "v": 117
    },
    {
      "midi": 42,
      "hit": false,
      "t": 16204.371999999992,
      "d": 45.62041666666664,
      "v": 98
    },
    {
      "midi": 36,
      "hit": false,
      "t": 16204.371999999992,
      "d": 54.7445000000007,
      "v": 127
    },
    {
      "midi": 36,
      "hit": false,
      "t": 16204.371999999996,
      "d": 51.09486666666635,
      "v": 107
    },
    {
      "midi": 36,
      "hit": false,
      "t": 16204.371999999996,
      "d": 51.09486666666635,
      "v": 107
    },
    {
      "midi": 42,
      "hit": false,
      "t": 16204.372,
      "d": 45.62041666666664,
      "v": 45
    },
    {
      "midi": 38,
      "hit": false,
      "t": 16204.372,
      "d": 437.95600000000195,
      "v": 127
    },
    {
      "midi": 35,
      "hit": false,
      "t": 16204.37200000003,
      "d": 85.76638333333358,
      "v": 107
    },
    {
      "midi": 42,
      "hit": false,
      "t": 16204.37200000003,
      "d": 85.76638333333358,
      "v": 107
    },
    {
      "midi": 33,
      "hit": false,
      "t": 16208.021633333323,
      "d": 301.0947500000002,
      "v": 116
    },
    {
      "midi": 62,
      "hit": false,
      "t": 16208.021633333323,
      "d": 434.30636666666396,
      "v": 98
    },
    {
      "midi": 66,
      "hit": false,
      "t": 16213.496083333323,
      "d": 428.83191666666426,
      "v": 100
    },
    {
      "midi": 69,
      "hit": false,
      "t": 16217.145716666655,
      "d": 425.1822833333317,
      "v": 107
    },
    {
      "midi": 57,
      "hit": false,
      "t": 16217.145716666655,
      "d": 279.1969500000014,
      "v": 127
    },
    {
      "midi": 57,
      "hit": false,
      "t": 16217.145716666655,
      "d": 279.1969500000014,
      "v": 127
    },
    {
      "midi": 57,
      "hit": false,
      "t": 16217.14571666666,
      "d": 279.19694999999956,
      "v": 127
    },
    {
      "midi": 57,
      "hit": false,
      "t": 16217.14571666666,
      "d": 279.19694999999956,
      "v": 127
    },
    {
      "midi": 42,
      "hit": false,
      "t": 16313.860999999994,
      "d": 63.868583333332936,
      "v": 98
    },
    {
      "midi": 42,
      "hit": false,
      "t": 16313.860999999999,
      "d": 45.62041666666664,
      "v": 45
    },
    {
      "midi": 46,
      "hit": false,
      "t": 16423.349999999995,
      "d": 218.97799999999916,
      "v": 98
    },
    {
      "midi": 42,
      "hit": false,
      "t": 16423.35,
      "d": 45.62041666666846,
      "v": 45
    },
    {
      "midi": 46,
      "hit": false,
      "t": 16423.35000000003,
      "d": 85.76638333333176,
      "v": 80
    },
    {
      "midi": 54,
      "hit": false,
      "t": 16499.99229999999,
      "d": 160.58386666666775,
      "v": 127
    },
    {
      "midi": 54,
      "hit": false,
      "t": 16499.99229999999,
      "d": 160.58386666666775,
      "v": 127
    },
    {
      "midi": 54,
      "hit": false,
      "t": 16499.992299999994,
      "d": 160.58386666666775,
      "v": 127
    },
    {
      "midi": 54,
      "hit": false,
      "t": 16499.992299999994,
      "d": 160.58386666666775,
      "v": 127
    },
    {
      "midi": 42,
      "hit": false,
      "t": 16532.839,
      "d": 45.62041666666846,
      "v": 45
    },
    {
      "midi": 36,
      "hit": false,
      "t": 16532.839,
      "d": 109.4890000000014,
      "v": 120
    },
    {
      "midi": 52,
      "hit": false,
      "t": 16633.203916666662,
      "d": 127.73716666666587,
      "v": 121
    },
    {
      "midi": 42,
      "hit": false,
      "t": 16642.327999999994,
      "d": 45.62041666666846,
      "v": 98
    },
    {
      "midi": 36,
      "hit": false,
      "t": 16642.327999999994,
      "d": 72.99266666666881,
      "v": 127
    },
    {
      "midi": 36,
      "hit": false,
      "t": 16642.327999999994,
      "d": 51.09486666666635,
      "v": 107
    },
    {
      "midi": 36,
      "hit": false,
      "t": 16642.327999999994,
      "d": 51.09486666666635,
      "v": 107
    },
    {
      "midi": 42,
      "hit": false,
      "t": 16642.328,
      "d": 45.62041666666846,
      "v": 45
    },
    {
      "midi": 36,
      "hit": false,
      "t": 16642.328,
      "d": 218.9780000000028,
      "v": 120
    },
    {
      "midi": 35,
      "hit": false,
      "t": 16642.32800000003,
      "d": 85.76638333333176,
      "v": 107
    },
    {
      "midi": 42,
      "hit": false,
      "t": 16642.32800000003,
      "d": 85.76638333333176,
      "v": 107
    },
    {
      "midi": 59,
      "hit": false,
      "t": 16645.97763333332,
      "d": 434.3063666666676,
      "v": 106
    },
    {
      "midi": 40,
      "hit": false,
      "t": 16645.977633333325,
      "d": 246.3502499999995,
      "v": 116
    },
    {
      "midi": 64,
      "hit": false,
      "t": 16651.452083333323,
      "d": 428.8319166666661,
      "v": 100
    },
    {
      "midi": 67,
      "hit": false,
      "t": 16651.452083333323,
      "d": 428.8319166666661,
      "v": 100
    },
    {
      "midi": 61,
      "hit": false,
      "t": 16655.101716666664,
      "d": 279.1969500000014,
      "v": 88
    },
    {
      "midi": 64,
      "hit": false,
      "t": 16655.101716666664,
      "d": 279.1969500000014,
      "v": 92
    },
    {
      "midi": 55,
      "hit": false,
      "t": 16660.57616666666,
      "d": 131.38680000000022,
      "v": 127
    },
    {
      "midi": 55,
      "hit": false,
      "t": 16660.57616666666,
      "d": 131.38680000000022,
      "v": 127
    },
    {
      "midi": 55,
      "hit": false,
      "t": 16660.576166666662,
      "d": 131.38680000000022,
      "v": 127
    },
    {
      "midi": 55,
      "hit": false,
      "t": 16660.576166666662,
      "d": 131.38680000000022,
      "v": 127
    },
    {
      "midi": 69,
      "hit": false,
      "t": 16660.576166666666,
      "d": 273.72249999999985,
      "v": 90
    },
    {
      "midi": 42,
      "hit": false,
      "t": 16751.816999999995,
      "d": 63.868583333332936,
      "v": 98
    },
    {
      "midi": 42,
      "hit": false,
      "t": 16751.817000000003,
      "d": 45.62041666666846,
      "v": 45
    },
    {
      "midi": 54,
      "hit": false,
      "t": 16791.96296666666,
      "d": 145.98533333333398,
      "v": 127
    },
    {
      "midi": 54,
      "hit": false,
      "t": 16791.96296666666,
      "d": 145.98533333333398,
      "v": 127
    },
    {
      "midi": 54,
      "hit": false,
      "t": 16791.962966666662,
      "d": 145.98533333333398,
      "v": 127
    },
    {
      "midi": 54,
      "hit": false,
      "t": 16791.962966666662,
      "d": 145.98533333333398,
      "v": 127
    },
    {
      "midi": 46,
      "hit": false,
      "t": 16861.305999999997,
      "d": 218.97799999999916,
      "v": 98
    },
    {
      "midi": 42,
      "hit": false,
      "t": 16861.306000000004,
      "d": 45.62041666666846,
      "v": 45
    },
    {
      "midi": 36,
      "hit": false,
      "t": 16861.306000000004,
      "d": 218.9780000000028,
      "v": 120
    },
    {
      "midi": 46,
      "hit": false,
      "t": 16861.30600000003,
      "d": 85.76638333333176,
      "v": 80
    },
    {
      "midi": 52,
      "hit": false,
      "t": 16943.422749999994,
      "d": 583.9413333333359,
      "v": 127
    },
    {
      "midi": 52,
      "hit": false,
      "t": 16943.422749999994,
      "d": 583.9413333333359,
      "v": 127
    },
    {
      "midi": 64,
      "hit": false,
      "t": 16943.422749999998,
      "d": 63.868583333332936,
      "v": 93
    },
    {
      "midi": 61,
      "hit": false,
      "t": 16943.422749999998,
      "d": 67.51821666666729,
      "v": 88
    },
    {
      "midi": 69,
      "hit": false,
      "t": 16943.422749999998,
      "d": 85.7663833333354,
      "v": 91
    },
    {
      "midi": 52,
      "hit": false,
      "t": 16943.422749999998,
      "d": 583.9413333333359,
      "v": 127
    },
    {
      "midi": 52,
      "hit": false,
      "t": 16943.422749999998,
      "d": 583.9413333333359,
      "v": 127
    },
    {
      "midi": 42,
      "hit": false,
      "t": 16970.795000000006,
      "d": 45.62041666666846,
      "v": 45
    },
    {
      "midi": 33,
      "hit": false,
      "t": 17080.283999999992,
      "d": 319.3429166666683,
      "v": 117
    },
    {
      "midi": 36,
      "hit": false,
      "t": 17080.283999999992,
      "d": 51.09486666666635,
      "v": 107
    },
    {
      "midi": 36,
      "hit": false,
      "t": 17080.283999999992,
      "d": 51.09486666666635,
      "v": 107
    },
    {
      "midi": 42,
      "hit": false,
      "t": 17080.283999999996,
      "d": 54.7445000000007,
      "v": 98
    },
    {
      "midi": 36,
      "hit": false,
      "t": 17080.283999999996,
      "d": 63.868583333332936,
      "v": 127
    },
    {
      "midi": 42,
      "hit": false,
      "t": 17080.284000000007,
      "d": 45.62041666666846,
      "v": 45
    },
    {
      "midi": 38,
      "hit": false,
      "t": 17080.284000000007,
      "d": 218.9780000000028,
      "v": 127
    },
    {
      "midi": 35,
      "hit": false,
      "t": 17080.28400000003,
      "d": 85.76638333333176,
      "v": 107
    },
    {
      "midi": 42,
      "hit": false,
      "t": 17080.28400000003,
      "d": 85.76638333333176,
      "v": 107
    },
    {
      "midi": 59,
      "hit": false,
      "t": 17083.933633333323,
      "d": 434.3063666666676,
      "v": 100
    },
    {
      "midi": 64,
      "hit": false,
      "t": 17089.408083333325,
      "d": 432.4815500000004,
      "v": 106
    },
    {
      "midi": 67,
      "hit": false,
      "t": 17089.408083333325,
      "d": 437.95600000000195,
      "v": 107
    },
    {
      "midi": 42,
      "hit": false,
      "t": 17189.772999999997,
      "d": 72.99266666666517,
      "v": 98
    },
    {
      "midi": 42,
      "hit": false,
      "t": 17189.77300000001,
      "d": 45.62041666666846,
      "v": 45
    },
    {
      "midi": 46,
      "hit": false,
      "t": 17299.261999999995,
      "d": 218.97799999999916,
      "v": 98
    },
    {
      "midi": 42,
      "hit": false,
      "t": 17299.26200000001,
      "d": 36.496333333332586,
      "v": 45
    },
    {
      "midi": 36,
      "hit": false,
      "t": 17299.26200000001,
      "d": 218.97799999999552,
      "v": 120
    },
    {
      "midi": 46,
      "hit": false,
      "t": 17299.262000000028,
      "d": 85.76638333333176,
      "v": 80
    },
    {
      "midi": 42,
      "hit": false,
      "t": 17408.751000000007,
      "d": 36.496333333332586,
      "v": 45
    },
    {
      "midi": 36,
      "hit": false,
      "t": 17518.23999999999,
      "d": 51.09486666666635,
      "v": 107
    },
    {
      "midi": 36,
      "hit": false,
      "t": 17518.23999999999,
      "d": 51.09486666666635,
      "v": 107
    },
    {
      "midi": 42,
      "hit": false,
      "t": 17518.239999999994,
      "d": 45.62041666666846,
      "v": 98
    },
    {
      "midi": 36,
      "hit": false,
      "t": 17518.239999999994,
      "d": 54.7445000000007,
      "v": 127
    },
    {
      "midi": 42,
      "hit": false,
      "t": 17518.240000000005,
      "d": 36.496333333332586,
      "v": 45
    },
    {
      "midi": 36,
      "hit": false,
      "t": 17518.240000000005,
      "d": 437.9559999999983,
      "v": 120
    },
    {
      "midi": 35,
      "hit": false,
      "t": 17518.240000000027,
      "d": 85.76638333333176,
      "v": 107
    },
    {
      "midi": 42,
      "hit": false,
      "t": 17518.240000000027,
      "d": 85.76638333333176,
      "v": 107
    },
    {
      "midi": 40,
      "hit": false,
      "t": 17531.01371666666,
      "d": 346.715166666665,
      "v": 118
    },
    {
      "midi": 59,
      "hit": false,
      "t": 17531.01371666666,
      "d": 425.18228333333536,
      "v": 97
    },
    {
      "midi": 59,
      "hit": false,
      "t": 17531.013716666665,
      "d": 1739.050283333334,
      "v": 127
    },
    {
      "midi": 67,
      "hit": false,
      "t": 17531.013716666672,
      "d": 881.3864499999981,
      "v": 97
    },
    {
      "midi": 64,
      "hit": false,
      "t": 17536.488166666662,
      "d": 419.70783333333384,
      "v": 100
    },
    {
      "midi": 67,
      "hit": false,
      "t": 17536.488166666662,
      "d": 419.70783333333384,
      "v": 103
    },
    {
      "midi": 79,
      "hit": false,
      "t": 17540.137800000004,
      "d": 875.9120000000003,
      "v": 97
    },
    {
      "midi": 59,
      "hit": false,
      "t": 17545.61225,
      "d": 264.5984166666676,
      "v": 91
    },
    {
      "midi": 64,
      "hit": false,
      "t": 17545.61225,
      "d": 264.5984166666676,
      "v": 91
    },
    {
      "midi": 67,
      "hit": false,
      "t": 17545.61225,
      "d": 264.5984166666676,
      "v": 92
    },
    {
      "midi": 47,
      "hit": false,
      "t": 17545.61225,
      "d": 268.24805000000197,
      "v": 127
    },
    {
      "midi": 47,
      "hit": false,
      "t": 17545.61225,
      "d": 268.24805000000197,
      "v": 127
    },
    {
      "midi": 47,
      "hit": false,
      "t": 17545.612250000002,
      "d": 268.24805000000197,
      "v": 127
    },
    {
      "midi": 47,
      "hit": false,
      "t": 17545.612250000002,
      "d": 268.24805000000197,
      "v": 127
    },
    {
      "midi": 42,
      "hit": false,
      "t": 17627.728999999996,
      "d": 63.868583333332936,
      "v": 98
    },
    {
      "midi": 42,
      "hit": false,
      "t": 17627.729000000003,
      "d": 45.62041666666846,
      "v": 45
    },
    {
      "midi": 46,
      "hit": false,
      "t": 17737.217999999997,
      "d": 218.97799999999916,
      "v": 98
    },
    {
      "midi": 42,
      "hit": false,
      "t": 17737.218000000004,
      "d": 45.62041666666846,
      "v": 45
    },
    {
      "midi": 46,
      "hit": false,
      "t": 17737.218000000026,
      "d": 85.76638333333176,
      "v": 80
    },
    {
      "midi": 59,
      "hit": false,
      "t": 17819.334749999998,
      "d": 63.868583333332936,
      "v": 91
    },
    {
      "midi": 64,
      "hit": false,
      "t": 17819.334749999998,
      "d": 72.99266666666517,
      "v": 94
    },
    {
      "midi": 67,
      "hit": false,
      "t": 17822.984383333333,
      "d": 91.24083333332965,
      "v": 94
    },
    {
      "midi": 52,
      "hit": false,
      "t": 17822.984383333333,
      "d": 133.2116166666674,
      "v": 127
    },
    {
      "midi": 52,
      "hit": false,
      "t": 17822.984383333333,
      "d": 133.2116166666674,
      "v": 127
    },
    {
      "midi": 52,
      "hit": false,
      "t": 17822.984383333336,
      "d": 133.2116166666674,
      "v": 127
    },
    {
      "midi": 52,
      "hit": false,
      "t": 17822.984383333336,
      "d": 133.2116166666674,
      "v": 127
    },
    {
      "midi": 42,
      "hit": false,
      "t": 17846.707000000006,
      "d": 36.496333333332586,
      "v": 45
    },
    {
      "midi": 36,
      "hit": false,
      "t": 17956.19599999999,
      "d": 51.09486666666635,
      "v": 107
    },
    {
      "midi": 36,
      "hit": false,
      "t": 17956.19599999999,
      "d": 51.09486666666635,
      "v": 107
    },
    {
      "midi": 42,
      "hit": false,
      "t": 17956.195999999996,
      "d": 45.62041666666846,
      "v": 98
    },
    {
      "midi": 36,
      "hit": false,
      "t": 17956.195999999996,
      "d": 54.7445000000007,
      "v": 127
    },
    {
      "midi": 42,
      "hit": false,
      "t": 17956.196000000004,
      "d": 45.62041666666846,
      "v": 45
    },
    {
      "midi": 38,
      "hit": false,
      "t": 17956.196000000004,
      "d": 328.4670000000042,
      "v": 127
    },
    {
      "midi": 35,
      "hit": false,
      "t": 17956.196000000025,
      "d": 85.76638333333176,
      "v": 107
    },
    {
      "midi": 42,
      "hit": false,
      "t": 17956.196000000025,
      "d": 85.76638333333176,
      "v": 107
    },
    {
      "midi": 40,
      "hit": false,
      "t": 17959.845633333327,
      "d": 291.97066666666797,
      "v": 117
    },
    {
      "midi": 59,
      "hit": false,
      "t": 17959.84563333333,
      "d": 434.3063666666676,
      "v": 94
    },
    {
      "midi": 64,
      "hit": false,
      "t": 17965.320083333332,
      "d": 428.8319166666661,
      "v": 103
    },
    {
      "midi": 67,
      "hit": false,
      "t": 17965.320083333332,
      "d": 428.8319166666661,
      "v": 103
    },
    {
      "midi": 52,
      "hit": false,
      "t": 17968.969716666666,
      "d": 279.1969500000014,
      "v": 127
    },
    {
      "midi": 52,
      "hit": false,
      "t": 17968.969716666666,
      "d": 279.1969500000014,
      "v": 127
    },
    {
      "midi": 52,
      "hit": false,
      "t": 17968.96971666667,
      "d": 279.1969500000014,
      "v": 127
    },
    {
      "midi": 52,
      "hit": false,
      "t": 17968.96971666667,
      "d": 279.1969500000014,
      "v": 127
    },
    {
      "midi": 42,
      "hit": false,
      "t": 18065.684999999998,
      "d": 63.868583333332936,
      "v": 98
    },
    {
      "midi": 42,
      "hit": false,
      "t": 18065.685000000005,
      "d": 45.62041666666846,
      "v": 45
    },
    {
      "midi": 46,
      "hit": false,
      "t": 18175.174,
      "d": 218.97799999999916,
      "v": 98
    },
    {
      "midi": 42,
      "hit": false,
      "t": 18175.174000000006,
      "d": 45.62041666666846,
      "v": 45
    },
    {
      "midi": 46,
      "hit": false,
      "t": 18175.174000000025,
      "d": 85.76638333333176,
      "v": 80
    },
    {
      "midi": 55,
      "hit": false,
      "t": 18251.816300000002,
      "d": 145.98533333333398,
      "v": 127
    },
    {
      "midi": 55,
      "hit": false,
      "t": 18251.816300000002,
      "d": 145.98533333333398,
      "v": 127
    },
    {
      "midi": 55,
      "hit": false,
      "t": 18251.816300000006,
      "d": 145.98533333333398,
      "v": 127
    },
    {
      "midi": 55,
      "hit": false,
      "t": 18251.816300000006,
      "d": 145.98533333333398,
      "v": 127
    },
    {
      "midi": 42,
      "hit": false,
      "t": 18284.663000000008,
      "d": 45.62041666666846,
      "v": 45
    },
    {
      "midi": 36,
      "hit": false,
      "t": 18284.663000000008,
      "d": 109.4890000000014,
      "v": 120
    },
    {
      "midi": 36,
      "hit": false,
      "t": 18394.151999999987,
      "d": 51.09486666666635,
      "v": 107
    },
    {
      "midi": 36,
      "hit": false,
      "t": 18394.151999999987,
      "d": 51.09486666666635,
      "v": 107
    },
    {
      "midi": 42,
      "hit": false,
      "t": 18394.152,
      "d": 45.62041666666846,
      "v": 98
    },
    {
      "midi": 36,
      "hit": false,
      "t": 18394.152,
      "d": 63.868583333336574,
      "v": 127
    },
    {
      "midi": 42,
      "hit": false,
      "t": 18394.15200000001,
      "d": 45.62041666666846,
      "v": 45
    },
    {
      "midi": 36,
      "hit": false,
      "t": 18394.15200000001,
      "d": 218.9780000000028,
      "v": 120
    },
    {
      "midi": 35,
      "hit": false,
      "t": 18394.152000000024,
      "d": 85.76638333333176,
      "v": 107
    },
    {
      "midi": 42,
      "hit": false,
      "t": 18394.152000000024,
      "d": 85.76638333333176,
      "v": 107
    },
    {
      "midi": 33,
      "hit": false,
      "t": 18397.80163333333,
      "d": 297.44511666666585,
      "v": 117
    },
    {
      "midi": 64,
      "hit": false,
      "t": 18397.801633333336,
      "d": 784.671166666667,
      "v": 97
    },
    {
      "midi": 61,
      "hit": false,
      "t": 18403.27608333333,
      "d": 428.8319166666661,
      "v": 100
    },
    {
      "midi": 64,
      "hit": false,
      "t": 18406.925716666665,
      "d": 425.1822833333317,
      "v": 106
    },
    {
      "midi": 69,
      "hit": false,
      "t": 18406.925716666665,
      "d": 425.1822833333317,
      "v": 100
    },
    {
      "midi": 76,
      "hit": false,
      "t": 18412.40016666667,
      "d": 775.5470833333347,
      "v": 97
    },
    {
      "midi": 61,
      "hit": false,
      "t": 18416.049799999997,
      "d": 270.0728666666655,
      "v": 87
    },
    {
      "midi": 64,
      "hit": false,
      "t": 18416.049799999997,
      "d": 270.0728666666655,
      "v": 94
    },
    {
      "midi": 69,
      "hit": false,
      "t": 18416.049799999997,
      "d": 270.0728666666655,
      "v": 94
    },
    {
      "midi": 61,
      "hit": false,
      "t": 18421.524250000002,
      "d": 195.2553833333368,
      "v": 127
    },
    {
      "midi": 61,
      "hit": false,
      "t": 18421.524250000002,
      "d": 195.2553833333368,
      "v": 127
    },
    {
      "midi": 61,
      "hit": false,
      "t": 18421.524250000006,
      "d": 195.2553833333368,
      "v": 127
    },
    {
      "midi": 61,
      "hit": false,
      "t": 18421.524250000006,
      "d": 195.2553833333368,
      "v": 127
    },
    {
      "midi": 42,
      "hit": false,
      "t": 18503.641000000003,
      "d": 63.868583333332936,
      "v": 98
    },
    {
      "midi": 42,
      "hit": false,
      "t": 18503.64100000001,
      "d": 45.62041666666846,
      "v": 45
    },
    {
      "midi": 46,
      "hit": false,
      "t": 18613.130000000005,
      "d": 218.97799999999916,
      "v": 98
    },
    {
      "midi": 46,
      "hit": false,
      "t": 18613.130000000012,
      "d": 63.868583333332936,
      "v": 45
    },
    {
      "midi": 38,
      "hit": false,
      "t": 18613.130000000012,
      "d": 218.97799999999916,
      "v": 127
    },
    {
      "midi": 46,
      "hit": false,
      "t": 18613.130000000023,
      "d": 85.76638333333176,
      "v": 80
    },
    {
      "midi": 61,
      "hit": false,
      "t": 18695.246749999995,
      "d": 82.11675000000105,
      "v": 91
    },
    {
      "midi": 64,
      "hit": false,
      "t": 18695.246749999995,
      "d": 82.11675000000105,
      "v": 94
    },
    {
      "midi": 69,
      "hit": false,
      "t": 18695.246749999995,
      "d": 104.01454999999987,
      "v": 97
    },
    {
      "midi": 59,
      "hit": false,
      "t": 18695.246750000006,
      "d": 282.84658333333937,
      "v": 127
    },
    {
      "midi": 59,
      "hit": false,
      "t": 18695.246750000006,
      "d": 282.84658333333937,
      "v": 127
    },
    {
      "midi": 59,
      "hit": false,
      "t": 18695.24675000001,
      "d": 282.84658333333937,
      "v": 127
    },
    {
      "midi": 59,
      "hit": false,
      "t": 18695.24675000001,
      "d": 282.84658333333937,
      "v": 127
    },
    {
      "midi": 36,
      "hit": false,
      "t": 18832.107999999986,
      "d": 51.09486666666635,
      "v": 107
    },
    {
      "midi": 36,
      "hit": false,
      "t": 18832.107999999986,
      "d": 51.09486666666635,
      "v": 107
    },
    {
      "midi": 40,
      "hit": false,
      "t": 18832.107999999997,
      "d": 310.21883333333244,
      "v": 118
    },
    {
      "midi": 42,
      "hit": false,
      "t": 18832.108000000004,
      "d": 54.7445000000007,
      "v": 98
    },
    {
      "midi": 36,
      "hit": false,
      "t": 18832.108000000004,
      "d": 63.868583333332936,
      "v": 127
    },
    {
      "midi": 42,
      "hit": false,
      "t": 18832.10800000001,
      "d": 36.496333333332586,
      "v": 45
    },
    {
      "midi": 38,
      "hit": false,
      "t": 18832.10800000001,
      "d": 218.97799999999916,
      "v": 127
    },
    {
      "midi": 35,
      "hit": false,
      "t": 18832.108000000022,
      "d": 85.76638333333176,
      "v": 107
    },
    {
      "midi": 42,
      "hit": false,
      "t": 18832.108000000022,
      "d": 85.76638333333176,
      "v": 107
    },
    {
      "midi": 61,
      "hit": false,
      "t": 18835.75763333333,
      "d": 434.3063666666676,
      "v": 95
    },
    {
      "midi": 64,
      "hit": false,
      "t": 18841.232083333332,
      "d": 428.8319166666661,
      "v": 100
    },
    {
      "midi": 69,
      "hit": false,
      "t": 18841.232083333332,
      "d": 432.4815500000004,
      "v": 107
    },
    {
      "midi": 42,
      "hit": false,
      "t": 18941.597000000005,
      "d": 72.99266666666517,
      "v": 98
    },
    {
      "midi": 42,
      "hit": false,
      "t": 18941.59700000001,
      "d": 45.62041666666846,
      "v": 45
    },
    {
      "midi": 59,
      "hit": false,
      "t": 18981.74296666668,
      "d": 142.33569999999963,
      "v": 127
    },
    {
      "midi": 59,
      "hit": false,
      "t": 18981.74296666668,
      "d": 142.33569999999963,
      "v": 127
    },
    {
      "midi": 59,
      "hit": false,
      "t": 18981.742966666683,
      "d": 142.33569999999963,
      "v": 127
    },
    {
      "midi": 59,
      "hit": false,
      "t": 18981.742966666683,
      "d": 142.33569999999963,
      "v": 127
    },
    {
      "midi": 46,
      "hit": false,
      "t": 19051.086000000003,
      "d": 218.97799999999916,
      "v": 98
    },
    {
      "midi": 46,
      "hit": false,
      "t": 19051.08600000001,
      "d": 36.496333333332586,
      "v": 45
    },
    {
      "midi": 38,
      "hit": false,
      "t": 19051.08600000001,
      "d": 218.97799999999916,
      "v": 127
    },
    {
      "midi": 46,
      "hit": false,
      "t": 19051.08600000002,
      "d": 85.76638333333176,
      "v": 80
    },
    {
      "midi": 57,
      "hit": false,
      "t": 19127.728300000013,
      "d": 145.98533333333398,
      "v": 127
    },
    {
      "midi": 57,
      "hit": false,
      "t": 19127.728300000013,
      "d": 145.98533333333398,
      "v": 127
    },
    {
      "midi": 57,
      "hit": false,
      "t": 19127.728300000017,
      "d": 145.98533333333398,
      "v": 127
    },
    {
      "midi": 57,
      "hit": false,
      "t": 19127.728300000017,
      "d": 145.98533333333398,
      "v": 127
    },
    {
      "midi": 36,
      "hit": false,
      "t": 19160.574999999986,
      "d": 51.09486666666635,
      "v": 67
    },
    {
      "midi": 36,
      "hit": false,
      "t": 19160.574999999986,
      "d": 51.09486666666635,
      "v": 67
    },
    {
      "midi": 35,
      "hit": false,
      "t": 19160.57500000002,
      "d": 85.76638333333176,
      "v": 97
    },
    {
      "midi": 42,
      "hit": false,
      "t": 19160.57500000002,
      "d": 85.76638333333176,
      "v": 107
    },
    {
      "midi": 36,
      "hit": false,
      "t": 19270.063999999988,
      "d": 51.09486666666635,
      "v": 107
    },
    {
      "midi": 36,
      "hit": false,
      "t": 19270.063999999988,
      "d": 51.09486666666635,
      "v": 107
    },
    {
      "midi": 42,
      "hit": false,
      "t": 19270.064000000002,
      "d": 45.62041666666846,
      "v": 98
    },
    {
      "midi": 36,
      "hit": false,
      "t": 19270.064000000002,
      "d": 54.7445000000007,
      "v": 127
    },
    {
      "midi": 42,
      "hit": false,
      "t": 19270.06400000001,
      "d": 36.496333333332586,
      "v": 45
    },
    {
      "midi": 36,
      "hit": false,
      "t": 19270.06400000001,
      "d": 437.95600000000195,
      "v": 120
    },
    {
      "midi": 35,
      "hit": false,
      "t": 19270.064000000017,
      "d": 85.76638333333176,
      "v": 107
    },
    {
      "midi": 42,
      "hit": false,
      "t": 19270.064000000017,
      "d": 85.76638333333176,
      "v": 107
    },
    {
      "midi": 43,
      "hit": false,
      "t": 19279.18808333333,
      "d": 286.49621666666644,
      "v": 118
    },
    {
      "midi": 67,
      "hit": false,
      "t": 19279.18808333333,
      "d": 1742.6999166666683,
      "v": 127
    },
    {
      "midi": 59,
      "hit": false,
      "t": 19279.188083333334,
      "d": 428.8319166666661,
      "v": 95
    },
    {
      "midi": 59,
      "hit": false,
      "t": 19279.188083333338,
      "d": 779.1967166666655,
      "v": 97
    },
    {
      "midi": 64,
      "hit": false,
      "t": 19282.83771666667,
      "d": 425.1822833333317,
      "v": 100
    },
    {
      "midi": 67,
      "hit": false,
      "t": 19282.83771666667,
      "d": 425.1822833333317,
      "v": 106
    },
    {
      "midi": 71,
      "hit": false,
      "t": 19288.31216666667,
      "d": 775.5470833333347,
      "v": 97
    },
    {
      "midi": 59,
      "hit": false,
      "t": 19291.961799999994,
      "d": 270.07286666666914,
      "v": 91
    },
    {
      "midi": 62,
      "hit": false,
      "t": 19297.436249999995,
      "d": 264.5984166666676,
      "v": 98
    },
    {
      "midi": 67,
      "hit": false,
      "t": 19297.436249999995,
      "d": 264.5984166666676,
      "v": 100
    },
    {
      "midi": 49,
      "hit": false,
      "t": 19297.43625000001,
      "d": 1085.7659166666708,
      "v": 127
    },
    {
      "midi": 53,
      "hit": false,
      "t": 19297.436250000013,
      "d": 286.49621666667736,
      "v": 127
    },
    {
      "midi": 53,
      "hit": false,
      "t": 19297.436250000013,
      "d": 286.49621666667736,
      "v": 127
    },
    {
      "midi": 53,
      "hit": false,
      "t": 19297.436250000017,
      "d": 286.49621666667736,
      "v": 127
    },
    {
      "midi": 53,
      "hit": false,
      "t": 19297.436250000017,
      "d": 286.49621666667736,
      "v": 127
    },
    {
      "midi": 42,
      "hit": false,
      "t": 19379.553000000004,
      "d": 63.868583333332936,
      "v": 98
    },
    {
      "midi": 42,
      "hit": false,
      "t": 19379.553000000007,
      "d": 45.62041666666846,
      "v": 45
    },
    {
      "midi": 46,
      "hit": false,
      "t": 19489.042000000005,
      "d": 218.97799999999916,
      "v": 98
    },
    {
      "midi": 42,
      "hit": false,
      "t": 19489.04200000001,
      "d": 45.62041666666846,
      "v": 45
    },
    {
      "midi": 46,
      "hit": false,
      "t": 19489.042000000016,
      "d": 85.76638333333176,
      "v": 80
    },
    {
      "midi": 59,
      "hit": false,
      "t": 19571.158749999995,
      "d": 63.868583333332936,
      "v": 88
    },
    {
      "midi": 62,
      "hit": false,
      "t": 19571.158749999995,
      "d": 67.51821666666729,
      "v": 93
    },
    {
      "midi": 67,
      "hit": false,
      "t": 19571.158749999995,
      "d": 67.51821666666729,
      "v": 97
    },
    {
      "midi": 42,
      "hit": false,
      "t": 19598.53100000001,
      "d": 45.62041666666846,
      "v": 45
    },
    {
      "midi": 36,
      "hit": false,
      "t": 19708.019999999986,
      "d": 51.09486666666635,
      "v": 107
    },
    {
      "midi": 36,
      "hit": false,
      "t": 19708.019999999986,
      "d": 51.09486666666635,
      "v": 107
    },
    {
      "midi": 42,
      "hit": false,
      "t": 19708.020000000004,
      "d": 45.62041666666846,
      "v": 98
    },
    {
      "midi": 36,
      "hit": false,
      "t": 19708.020000000004,
      "d": 54.7445000000007,
      "v": 127
    },
    {
      "midi": 42,
      "hit": false,
      "t": 19708.02000000001,
      "d": 45.62041666666846,
      "v": 45
    },
    {
      "midi": 38,
      "hit": false,
      "t": 19708.02000000001,
      "d": 437.9559999999983,
      "v": 127
    },
    {
      "midi": 35,
      "hit": false,
      "t": 19708.020000000015,
      "d": 85.76638333333176,
      "v": 107
    },
    {
      "midi": 42,
      "hit": false,
      "t": 19708.020000000015,
      "d": 85.76638333333176,
      "v": 107
    },
    {
      "midi": 35,
      "hit": false,
      "t": 19711.66963333333,
      "d": 352.18961666666655,
      "v": 116
    },
    {
      "midi": 59,
      "hit": false,
      "t": 19711.669633333335,
      "d": 434.3063666666676,
      "v": 94
    },
    {
      "midi": 64,
      "hit": false,
      "t": 19717.144083333336,
      "d": 428.8319166666661,
      "v": 100
    },
    {
      "midi": 67,
      "hit": false,
      "t": 19717.144083333336,
      "d": 428.8319166666661,
      "v": 103
    },
    {
      "midi": 53,
      "hit": false,
      "t": 19720.793716666696,
      "d": 279.196950000005,
      "v": 127
    },
    {
      "midi": 53,
      "hit": false,
      "t": 19720.793716666696,
      "d": 279.196950000005,
      "v": 127
    },
    {
      "midi": 53,
      "hit": false,
      "t": 19720.7937166667,
      "d": 279.196950000005,
      "v": 127
    },
    {
      "midi": 53,
      "hit": false,
      "t": 19720.7937166667,
      "d": 279.196950000005,
      "v": 127
    },
    {
      "midi": 42,
      "hit": false,
      "t": 19817.509000000005,
      "d": 63.868583333332936,
      "v": 98
    },
    {
      "midi": 42,
      "hit": false,
      "t": 19817.509000000013,
      "d": 36.496333333332586,
      "v": 45
    },
    {
      "midi": 46,
      "hit": false,
      "t": 19926.998000000007,
      "d": 218.97799999999916,
      "v": 98
    },
    {
      "midi": 42,
      "hit": false,
      "t": 19926.99800000001,
      "d": 36.496333333332586,
      "v": 45
    },
    {
      "midi": 46,
      "hit": false,
      "t": 19926.998000000014,
      "d": 85.76638333333176,
      "v": 80
    },
    {
      "midi": 59,
      "hit": false,
      "t": 20009.114749999997,
      "d": 63.868583333332936,
      "v": 89
    },
    {
      "midi": 62,
      "hit": false,
      "t": 20009.114749999997,
      "d": 85.76638333333176,
      "v": 88
    },
    {
      "midi": 67,
      "hit": false,
      "t": 20009.114749999997,
      "d": 91.24083333333328,
      "v": 90
    },
    {
      "midi": 54,
      "hit": false,
      "t": 20009.114750000033,
      "d": 136.86125000000175,
      "v": 127
    },
    {
      "midi": 54,
      "hit": false,
      "t": 20009.114750000033,
      "d": 136.86125000000175,
      "v": 127
    },
    {
      "midi": 54,
      "hit": false,
      "t": 20009.114750000037,
      "d": 136.86125000000175,
      "v": 127
    },
    {
      "midi": 54,
      "hit": false,
      "t": 20009.114750000037,
      "d": 136.86125000000175,
      "v": 127
    },
    {
      "midi": 42,
      "hit": false,
      "t": 20036.48700000001,
      "d": 45.62041666666846,
      "v": 45
    },
    {
      "midi": 36,
      "hit": false,
      "t": 20036.48700000001,
      "d": 109.4890000000014,
      "v": 120
    },
    {
      "midi": 36,
      "hit": false,
      "t": 20145.975999999984,
      "d": 51.09486666666635,
      "v": 107
    },
    {
      "midi": 36,
      "hit": false,
      "t": 20145.975999999984,
      "d": 51.09486666666635,
      "v": 107
    },
    {
      "midi": 43,
      "hit": false,
      "t": 20145.976,
      "d": 322.992549999999,
      "v": 116
    },
    {
      "midi": 42,
      "hit": false,
      "t": 20145.976000000006,
      "d": 45.62041666666846,
      "v": 98
    },
    {
      "midi": 36,
      "hit": false,
      "t": 20145.976000000006,
      "d": 54.7445000000007,
      "v": 127
    },
    {
      "midi": 42,
      "hit": false,
      "t": 20145.97600000001,
      "d": 45.62041666666846,
      "v": 45
    },
    {
      "midi": 36,
      "hit": false,
      "t": 20145.97600000001,
      "d": 218.9780000000028,
      "v": 120
    },
    {
      "midi": 35,
      "hit": false,
      "t": 20145.976000000013,
      "d": 85.76638333333176,
      "v": 107
    },
    {
      "midi": 42,
      "hit": false,
      "t": 20145.976000000013,
      "d": 85.76638333333176,
      "v": 107
    },
    {
      "midi": 67,
      "hit": false,
      "t": 20149.625633333337,
      "d": 735.4011166666678,
      "v": 97
    },
    {
      "midi": 59,
      "hit": false,
      "t": 20149.625633333337,
      "d": 434.3063666666676,
      "v": 95
    },
    {
      "midi": 64,
      "hit": false,
      "t": 20155.10008333334,
      "d": 428.8319166666661,
      "v": 98
    },
    {
      "midi": 67,
      "hit": false,
      "t": 20155.10008333334,
      "d": 428.8319166666661,
      "v": 106
    },
    {
      "midi": 79,
      "hit": false,
      "t": 20158.74971666667,
      "d": 726.2770333333356,
      "v": 97
    },
    {
      "midi": 47,
      "hit": false,
      "t": 20164.224166666703,
      "d": 127.73716666666587,
      "v": 127
    },
    {
      "midi": 47,
      "hit": false,
      "t": 20164.224166666703,
      "d": 127.73716666666587,
      "v": 127
    },
    {
      "midi": 47,
      "hit": false,
      "t": 20164.224166666707,
      "d": 127.73716666666587,
      "v": 127
    },
    {
      "midi": 47,
      "hit": false,
      "t": 20164.224166666707,
      "d": 127.73716666666587,
      "v": 127
    },
    {
      "midi": 42,
      "hit": false,
      "t": 20255.465000000007,
      "d": 63.868583333332936,
      "v": 98
    },
    {
      "midi": 42,
      "hit": false,
      "t": 20255.46500000001,
      "d": 45.62041666666846,
      "v": 45
    },
    {
      "midi": 46,
      "hit": false,
      "t": 20295.610966666703,
      "d": 142.33569999999963,
      "v": 127
    },
    {
      "midi": 46,
      "hit": false,
      "t": 20295.610966666703,
      "d": 142.33569999999963,
      "v": 127
    },
    {
      "midi": 46,
      "hit": false,
      "t": 20295.610966666707,
      "d": 142.33569999999963,
      "v": 127
    },
    {
      "midi": 46,
      "hit": false,
      "t": 20295.610966666707,
      "d": 142.33569999999963,
      "v": 127
    },
    {
      "midi": 46,
      "hit": false,
      "t": 20364.95400000001,
      "d": 218.97799999999916,
      "v": 98
    },
    {
      "midi": 46,
      "hit": false,
      "t": 20364.954000000012,
      "d": 85.76638333333176,
      "v": 80
    },
    {
      "midi": 42,
      "hit": false,
      "t": 20364.954000000012,
      "d": 36.496333333336224,
      "v": 45
    },
    {
      "midi": 36,
      "hit": false,
      "t": 20364.954000000012,
      "d": 218.97799999999916,
      "v": 120
    },
    {
      "midi": 59,
      "hit": false,
      "t": 20441.596299999997,
      "d": 69.34303333333446,
      "v": 91
    },
    {
      "midi": 62,
      "hit": false,
      "t": 20447.07075,
      "d": 94.89046666666763,
      "v": 94
    },
    {
      "midi": 67,
      "hit": false,
      "t": 20447.07075,
      "d": 100.36491666666916,
      "v": 92
    },
    {
      "midi": 47,
      "hit": false,
      "t": 20447.070750000035,
      "d": 136.86125000000175,
      "v": 127
    },
    {
      "midi": 47,
      "hit": false,
      "t": 20447.070750000035,
      "d": 136.86125000000175,
      "v": 127
    },
    {
      "midi": 47,
      "hit": false,
      "t": 20447.07075000004,
      "d": 136.86125000000175,
      "v": 127
    },
    {
      "midi": 47,
      "hit": false,
      "t": 20447.07075000004,
      "d": 136.86125000000175,
      "v": 127
    },
    {
      "midi": 42,
      "hit": false,
      "t": 20474.443000000014,
      "d": 36.496333333332586,
      "v": 45
    },
    {
      "midi": 36,
      "hit": false,
      "t": 20583.931999999983,
      "d": 51.09486666666635,
      "v": 107
    },
    {
      "midi": 36,
      "hit": false,
      "t": 20583.931999999983,
      "d": 51.09486666666635,
      "v": 107
    },
    {
      "midi": 42,
      "hit": false,
      "t": 20583.931999999997,
      "d": 304.74438333333455,
      "v": 115
    },
    {
      "midi": 42,
      "hit": false,
      "t": 20583.932000000008,
      "d": 54.7445000000007,
      "v": 98
    },
    {
      "midi": 36,
      "hit": false,
      "t": 20583.932000000008,
      "d": 54.7445000000007,
      "v": 127
    },
    {
      "midi": 35,
      "hit": false,
      "t": 20583.93200000001,
      "d": 85.76638333333176,
      "v": 107
    },
    {
      "midi": 42,
      "hit": false,
      "t": 20583.93200000001,
      "d": 85.76638333333176,
      "v": 107
    },
    {
      "midi": 42,
      "hit": false,
      "t": 20583.93200000001,
      "d": 36.496333333332586,
      "v": 45
    },
    {
      "midi": 38,
      "hit": false,
      "t": 20583.93200000001,
      "d": 218.97799999999552,
      "v": 127
    },
    {
      "midi": 59,
      "hit": false,
      "t": 20587.58163333334,
      "d": 434.3063666666676,
      "v": 94
    },
    {
      "midi": 64,
      "hit": false,
      "t": 20593.05608333334,
      "d": 428.8319166666661,
      "v": 100
    },
    {
      "midi": 67,
      "hit": false,
      "t": 20593.05608333334,
      "d": 428.8319166666661,
      "v": 100
    },
    {
      "midi": 49,
      "hit": false,
      "t": 20596.705716666704,
      "d": 133.2116166666674,
      "v": 127
    },
    {
      "midi": 49,
      "hit": false,
      "t": 20596.705716666704,
      "d": 133.2116166666674,
      "v": 127
    },
    {
      "midi": 49,
      "hit": false,
      "t": 20596.705716666707,
      "d": 133.2116166666674,
      "v": 127
    },
    {
      "midi": 49,
      "hit": false,
      "t": 20596.705716666707,
      "d": 133.2116166666674,
      "v": 127
    },
    {
      "midi": 42,
      "hit": false,
      "t": 20693.42100000001,
      "d": 72.99266666666517,
      "v": 98
    },
    {
      "midi": 42,
      "hit": false,
      "t": 20693.42100000001,
      "d": 36.496333333332586,
      "v": 45
    },
    {
      "midi": 50,
      "hit": false,
      "t": 20733.566966666705,
      "d": 142.33569999999963,
      "v": 127
    },
    {
      "midi": 50,
      "hit": false,
      "t": 20733.566966666705,
      "d": 142.33569999999963,
      "v": 127
    },
    {
      "midi": 50,
      "hit": false,
      "t": 20733.56696666671,
      "d": 142.33569999999963,
      "v": 127
    },
    {
      "midi": 50,
      "hit": false,
      "t": 20733.56696666671,
      "d": 142.33569999999963,
      "v": 127
    },
    {
      "midi": 46,
      "hit": false,
      "t": 20802.910000000007,
      "d": 218.97799999999916,
      "v": 98
    },
    {
      "midi": 42,
      "hit": false,
      "t": 20802.910000000007,
      "d": 36.496333333332586,
      "v": 45
    },
    {
      "midi": 36,
      "hit": false,
      "t": 20802.910000000007,
      "d": 218.97799999999916,
      "v": 120
    },
    {
      "midi": 46,
      "hit": false,
      "t": 20802.91000000001,
      "d": 85.76638333333176,
      "v": 80
    },
    {
      "midi": 66,
      "hit": false,
      "t": 20879.552300000003,
      "d": 127.73716666666951,
      "v": 97
    },
    {
      "midi": 78,
      "hit": false,
      "t": 20885.026750000005,
      "d": 127.73716666666951,
      "v": 97
    },
    {
      "midi": 59,
      "hit": false,
      "t": 20888.676383333335,
      "d": 54.7445000000007,
      "v": 87
    },
    {
      "midi": 62,
      "hit": false,
      "t": 20888.676383333335,
      "d": 54.7445000000007,
      "v": 83
    },
    {
      "midi": 67,
      "hit": false,
      "t": 20888.676383333335,
      "d": 78.4671166666667,
      "v": 85
    },
    {
      "midi": 52,
      "hit": false,
      "t": 20894.150833333373,
      "d": 1883.2108000000007,
      "v": 127
    },
    {
      "midi": 52,
      "hit": false,
      "t": 20894.150833333373,
      "d": 1883.2108000000007,
      "v": 127
    },
    {
      "midi": 52,
      "hit": false,
      "t": 20894.150833333377,
      "d": 1883.2108000000007,
      "v": 127
    },
    {
      "midi": 52,
      "hit": false,
      "t": 20894.150833333377,
      "d": 1883.2108000000007,
      "v": 127
    },
    {
      "midi": 42,
      "hit": false,
      "t": 20912.399000000005,
      "d": 45.62041666666846,
      "v": 45
    },
    {
      "midi": 36,
      "hit": false,
      "t": 21021.88799999998,
      "d": 51.09486666666635,
      "v": 107
    },
    {
      "midi": 36,
      "hit": false,
      "t": 21021.88799999998,
      "d": 51.09486666666635,
      "v": 107
    },
    {
      "midi": 42,
      "hit": false,
      "t": 21021.888000000006,
      "d": 45.62041666666846,
      "v": 98
    },
    {
      "midi": 36,
      "hit": false,
      "t": 21021.888000000006,
      "d": 54.7445000000007,
      "v": 127
    },
    {
      "midi": 42,
      "hit": false,
      "t": 21021.888000000006,
      "d": 36.496333333332586,
      "v": 45
    },
    {
      "midi": 36,
      "hit": false,
      "t": 21021.888000000006,
      "d": 437.95599999999104,
      "v": 120
    },
    {
      "midi": 35,
      "hit": false,
      "t": 21021.88800000001,
      "d": 85.76638333333176,
      "v": 107
    },
    {
      "midi": 42,
      "hit": false,
      "t": 21021.88800000001,
      "d": 85.76638333333176,
      "v": 107
    },
    {
      "midi": 40,
      "hit": false,
      "t": 21025.537633333333,
      "d": 301.0947500000002,
      "v": 116
    },
    {
      "midi": 64,
      "hit": false,
      "t": 21025.53763333334,
      "d": 145.98533333333398,
      "v": 97
    },
    {
      "midi": 61,
      "hit": false,
      "t": 21025.53763333334,
      "d": 434.3063666666676,
      "v": 97
    },
    {
      "midi": 57,
      "hit": false,
      "t": 21031.01208333333,
      "d": 1742.6999166666683,
      "v": 127
    },
    {
      "midi": 64,
      "hit": false,
      "t": 21031.012083333342,
      "d": 428.8319166666661,
      "v": 100
    },
    {
      "midi": 69,
      "hit": false,
      "t": 21034.661716666677,
      "d": 425.1822833333317,
      "v": 107
    },
    {
      "midi": 61,
      "hit": false,
      "t": 21040.136166666667,
      "d": 273.72249999999985,
      "v": 91
    },
    {
      "midi": 64,
      "hit": false,
      "t": 21040.136166666667,
      "d": 273.72249999999985,
      "v": 91
    },
    {
      "midi": 76,
      "hit": false,
      "t": 21040.136166666674,
      "d": 136.86125000000175,
      "v": 97
    },
    {
      "midi": 69,
      "hit": false,
      "t": 21043.7858,
      "d": 270.0728666666655,
      "v": 94
    },
    {
      "midi": 42,
      "hit": false,
      "t": 21131.377000000004,
      "d": 36.496333333332586,
      "v": 45
    },
    {
      "midi": 42,
      "hit": false,
      "t": 21131.377000000008,
      "d": 63.868583333332936,
      "v": 98
    },
    {
      "midi": 61,
      "hit": false,
      "t": 21171.522966666675,
      "d": 151.4597833333355,
      "v": 97
    },
    {
      "midi": 73,
      "hit": false,
      "t": 21171.522966666675,
      "d": 151.4597833333355,
      "v": 97
    },
    {
      "midi": 42,
      "hit": false,
      "t": 21240.866,
      "d": 36.496333333332586,
      "v": 45
    },
    {
      "midi": 46,
      "hit": false,
      "t": 21240.86600000001,
      "d": 218.97799999999916,
      "v": 98
    },
    {
      "midi": 46,
      "hit": false,
      "t": 21240.86600000001,
      "d": 85.76638333333176,
      "v": 80
    },
    {
      "midi": 59,
      "hit": false,
      "t": 21317.50830000001,
      "d": 127.73716666666951,
      "v": 97
    },
    {
      "midi": 71,
      "hit": false,
      "t": 21322.98275000001,
      "d": 127.73716666666951,
      "v": 97
    },
    {
      "midi": 64,
      "hit": false,
      "t": 21326.632383333334,
      "d": 63.868583333332936,
      "v": 95
    },
    {
      "midi": 61,
      "hit": false,
      "t": 21326.632383333334,
      "d": 69.34303333333446,
      "v": 93
    },
    {
      "midi": 69,
      "hit": false,
      "t": 21326.632383333334,
      "d": 91.24083333333328,
      "v": 98
    },
    {
      "midi": 42,
      "hit": false,
      "t": 21350.355,
      "d": 36.496333333332586,
      "v": 45
    },
    {
      "midi": 45,
      "hit": false,
      "t": 21450.71991666666,
      "d": 164.23349999999846,
      "v": 109
    },
    {
      "midi": 36,
      "hit": false,
      "t": 21459.84399999998,
      "d": 51.09486666666635,
      "v": 107
    },
    {
      "midi": 36,
      "hit": false,
      "t": 21459.84399999998,
      "d": 51.09486666666635,
      "v": 107
    },
    {
      "midi": 42,
      "hit": false,
      "t": 21459.843999999997,
      "d": 45.62041666666846,
      "v": 45
    },
    {
      "midi": 38,
      "hit": false,
      "t": 21459.843999999997,
      "d": 328.4670000000042,
      "v": 127
    },
    {
      "midi": 42,
      "hit": false,
      "t": 21459.84400000001,
      "d": 45.62041666666846,
      "v": 98
    },
    {
      "midi": 36,
      "hit": false,
      "t": 21459.84400000001,
      "d": 54.7445000000007,
      "v": 127
    },
    {
      "midi": 35,
      "hit": false,
      "t": 21459.84400000001,
      "d": 85.76638333333176,
      "v": 107
    },
    {
      "midi": 42,
      "hit": false,
      "t": 21459.84400000001,
      "d": 85.76638333333176,
      "v": 107
    },
    {
      "midi": 33,
      "hit": false,
      "t": 21463.493633333335,
      "d": 319.3429166666683,
      "v": 116
    },
    {
      "midi": 61,
      "hit": false,
      "t": 21463.493633333343,
      "d": 434.3063666666676,
      "v": 95
    },
    {
      "midi": 57,
      "hit": false,
      "t": 21463.493633333346,
      "d": 145.98533333333398,
      "v": 97
    },
    {
      "midi": 64,
      "hit": false,
      "t": 21468.968083333344,
      "d": 428.8319166666661,
      "v": 100
    },
    {
      "midi": 69,
      "hit": false,
      "t": 21468.968083333344,
      "d": 428.8319166666661,
      "v": 107
    },
    {
      "midi": 69,
      "hit": false,
      "t": 21472.61771666668,
      "d": 136.86125000000175,
      "v": 97
    },
    {
      "midi": 42,
      "hit": false,
      "t": 21569.333,
      "d": 45.62041666666846,
      "v": 45
    },
    {
      "midi": 42,
      "hit": false,
      "t": 21569.33300000001,
      "d": 63.868583333332936,
      "v": 98
    },
    {
      "midi": 59,
      "hit": false,
      "t": 21609.47896666668,
      "d": 151.4597833333355,
      "v": 97
    },
    {
      "midi": 71,
      "hit": false,
      "t": 21609.47896666668,
      "d": 151.4597833333355,
      "v": 97
    },
    {
      "midi": 42,
      "hit": false,
      "t": 21678.822,
      "d": 45.62041666666846,
      "v": 45
    },
    {
      "midi": 46,
      "hit": false,
      "t": 21678.822000000007,
      "d": 85.76638333333176,
      "v": 80
    },
    {
      "midi": 46,
      "hit": false,
      "t": 21678.82200000001,
      "d": 218.97799999999916,
      "v": 98
    },
    {
      "midi": 62,
      "hit": false,
      "t": 21755.464300000014,
      "d": 105.83936666666705,
      "v": 97
    },
    {
      "midi": 74,
      "hit": false,
      "t": 21760.938750000016,
      "d": 100.36491666666552,
      "v": 97
    },
    {
      "midi": 61,
      "hit": false,
      "t": 21764.588383333332,
      "d": 72.99266666666517,
      "v": 91
    },
    {
      "midi": 64,
      "hit": false,
      "t": 21764.588383333332,
      "d": 78.4671166666667,
      "v": 92
    },
    {
      "midi": 69,
      "hit": false,
      "t": 21764.588383333332,
      "d": 96.71528333333481,
      "v": 94
    },
    {
      "midi": 42,
      "hit": false,
      "t": 21788.311,
      "d": 45.62041666666846,
      "v": 45
    },
    {
      "midi": 36,
      "hit": false,
      "t": 21788.311,
      "d": 109.4890000000014,
      "v": 120
    },
    {
      "midi": 45,
      "hit": false,
      "t": 21888.67591666666,
      "d": 155.10941666666622,
      "v": 104
    },
    {
      "midi": 36,
      "hit": false,
      "t": 21897.799999999977,
      "d": 51.09486666666635,
      "v": 107
    },
    {
      "midi": 36,
      "hit": false,
      "t": 21897.799999999977,
      "d": 51.09486666666635,
      "v": 107
    },
    {
      "midi": 42,
      "hit": false,
      "t": 21897.800000000003,
      "d": 45.62041666666846,
      "v": 45
    },
    {
      "midi": 36,
      "hit": false,
      "t": 21897.800000000003,
      "d": 218.9780000000028,
      "v": 120
    },
    {
      "midi": 35,
      "hit": false,
      "t": 21897.800000000007,
      "d": 85.76638333333176,
      "v": 107
    },
    {
      "midi": 42,
      "hit": false,
      "t": 21897.800000000007,
      "d": 85.76638333333176,
      "v": 107
    },
    {
      "midi": 42,
      "hit": false,
      "t": 21897.80000000001,
      "d": 45.62041666666846,
      "v": 98
    },
    {
      "midi": 36,
      "hit": false,
      "t": 21897.80000000001,
      "d": 72.99266666666881,
      "v": 127
    },
    {
      "midi": 33,
      "hit": false,
      "t": 21901.449633333337,
      "d": 173.35758333333433,
      "v": 116
    },
    {
      "midi": 61,
      "hit": false,
      "t": 21901.449633333345,
      "d": 434.3063666666676,
      "v": 95
    },
    {
      "midi": 61,
      "hit": false,
      "t": 21901.449633333348,
      "d": 145.98533333333398,
      "v": 97
    },
    {
      "midi": 64,
      "hit": false,
      "t": 21906.924083333346,
      "d": 428.8319166666661,
      "v": 100
    },
    {
      "midi": 69,
      "hit": false,
      "t": 21906.924083333346,
      "d": 428.8319166666661,
      "v": 107
    },
    {
      "midi": 73,
      "hit": false,
      "t": 21910.57371666668,
      "d": 136.86125000000175,
      "v": 97
    },
    {
      "midi": 42,
      "hit": false,
      "t": 22007.289000000004,
      "d": 45.62041666666846,
      "v": 45
    },
    {
      "midi": 42,
      "hit": false,
      "t": 22007.28900000001,
      "d": 63.868583333332936,
      "v": 98
    },
    {
      "midi": 62,
      "hit": false,
      "t": 22047.434966666682,
      "d": 155.10941666666986,
      "v": 97
    },
    {
      "midi": 74,
      "hit": false,
      "t": 22047.434966666682,
      "d": 155.10941666666986,
      "v": 97
    },
    {
      "midi": 46,
      "hit": false,
      "t": 22116.778000000006,
      "d": 85.76638333333176,
      "v": 80
    },
    {
      "midi": 42,
      "hit": false,
      "t": 22116.778000000006,
      "d": 45.62041666666846,
      "v": 45
    },
    {
      "midi": 36,
      "hit": false,
      "t": 22116.778000000006,
      "d": 218.97799999999916,
      "v": 120
    },
    {
      "midi": 46,
      "hit": false,
      "t": 22116.778000000013,
      "d": 218.97799999999916,
      "v": 98
    },
    {
      "midi": 45,
      "hit": false,
      "t": 22180.646583333328,
      "d": 113.13863333333211,
      "v": 105
    },
    {
      "midi": 33,
      "hit": false,
      "t": 22189.77066666667,
      "d": 113.13863333333211,
      "v": 116
    },
    {
      "midi": 64,
      "hit": false,
      "t": 22193.420300000016,
      "d": 105.83936666667068,
      "v": 97
    },
    {
      "midi": 76,
      "hit": false,
      "t": 22198.894750000018,
      "d": 100.36491666666916,
      "v": 97
    },
    {
      "midi": 61,
      "hit": false,
      "t": 22202.544383333334,
      "d": 72.99266666666881,
      "v": 91
    },
    {
      "midi": 64,
      "hit": false,
      "t": 22208.018833333335,
      "d": 72.99266666666881,
      "v": 92
    },
    {
      "midi": 69,
      "hit": false,
      "t": 22208.018833333335,
      "d": 91.24083333333692,
      "v": 93
    },
    {
      "midi": 42,
      "hit": false,
      "t": 22226.267000000007,
      "d": 36.496333333332586,
      "v": 45
    },
    {
      "midi": 47,
      "hit": false,
      "t": 22326.631916666658,
      "d": 191.6057499999988,
      "v": 94
    },
    {
      "midi": 36,
      "hit": false,
      "t": 22335.755999999976,
      "d": 51.09486666666635,
      "v": 107
    },
    {
      "midi": 36,
      "hit": false,
      "t": 22335.755999999976,
      "d": 51.09486666666635,
      "v": 107
    },
    {
      "midi": 35,
      "hit": false,
      "t": 22335.756000000005,
      "d": 85.76638333333176,
      "v": 107
    },
    {
      "midi": 42,
      "hit": false,
      "t": 22335.756000000005,
      "d": 85.76638333333176,
      "v": 107
    },
    {
      "midi": 42,
      "hit": false,
      "t": 22335.756000000005,
      "d": 36.496333333332586,
      "v": 45
    },
    {
      "midi": 38,
      "hit": false,
      "t": 22335.756000000005,
      "d": 218.97799999999552,
      "v": 127
    },
    {
      "midi": 42,
      "hit": false,
      "t": 22335.756000000012,
      "d": 54.7445000000007,
      "v": 98
    },
    {
      "midi": 36,
      "hit": false,
      "t": 22335.756000000012,
      "d": 63.868583333332936,
      "v": 127
    },
    {
      "midi": 35,
      "hit": false,
      "t": 22339.405633333336,
      "d": 206.20428333333257,
      "v": 116
    },
    {
      "midi": 61,
      "hit": false,
      "t": 22339.405633333346,
      "d": 434.3063666666676,
      "v": 100
    },
    {
      "midi": 57,
      "hit": false,
      "t": 22339.405633333354,
      "d": 105.83936666666705,
      "v": 97
    },
    {
      "midi": 64,
      "hit": false,
      "t": 22344.880083333348,
      "d": 428.8319166666661,
      "v": 106
    },
    {
      "midi": 69,
      "hit": false,
      "t": 22344.880083333348,
      "d": 428.8319166666661,
      "v": 107
    },
    {
      "midi": 69,
      "hit": false,
      "t": 22348.529716666686,
      "d": 96.71528333333481,
      "v": 97
    },
    {
      "midi": 42,
      "hit": false,
      "t": 22445.245000000003,
      "d": 36.496333333332586,
      "v": 45
    },
    {
      "midi": 42,
      "hit": false,
      "t": 22445.245000000014,
      "d": 72.99266666666517,
      "v": 98
    },
    {
      "midi": 46,
      "hit": false,
      "t": 22554.734,
      "d": 45.62041666666846,
      "v": 45
    },
    {
      "midi": 36,
      "hit": false,
      "t": 22554.734,
      "d": 218.9780000000028,
      "v": 120
    },
    {
      "midi": 46,
      "hit": false,
      "t": 22554.734000000004,
      "d": 85.76638333333176,
      "v": 80
    },
    {
      "midi": 46,
      "hit": false,
      "t": 22554.73400000001,
      "d": 218.97799999999916,
      "v": 98
    },
    {
      "midi": 49,
      "hit": false,
      "t": 22618.602583333322,
      "d": 136.86125000000175,
      "v": 97
    },
    {
      "midi": 37,
      "hit": false,
      "t": 22627.72666666667,
      "d": 91.24083333333328,
      "v": 117
    },
    {
      "midi": 61,
      "hit": false,
      "t": 22636.850750000005,
      "d": 63.868583333332936,
      "v": 93
    },
    {
      "midi": 64,
      "hit": false,
      "t": 22636.850750000005,
      "d": 91.24083333333328,
      "v": 94
    },
    {
      "midi": 69,
      "hit": false,
      "t": 22636.850750000005,
      "d": 94.89046666666763,
      "v": 100
    },
    {
      "midi": 36,
      "hit": false,
      "t": 22773.711999999974,
      "d": 51.09486666666635,
      "v": 107
    },
    {
      "midi": 36,
      "hit": false,
      "t": 22773.711999999974,
      "d": 51.09486666666635,
      "v": 107
    },
    {
      "midi": 50,
      "hit": false,
      "t": 22773.711999999992,
      "d": 136.86125000000175,
      "v": 121
    },
    {
      "midi": 35,
      "hit": false,
      "t": 22773.712000000003,
      "d": 85.76638333333176,
      "v": 107
    },
    {
      "midi": 42,
      "hit": false,
      "t": 22773.712000000003,
      "d": 85.76638333333176,
      "v": 107
    },
    {
      "midi": 42,
      "hit": false,
      "t": 22773.712000000003,
      "d": 36.496333333332586,
      "v": 45
    },
    {
      "midi": 36,
      "hit": false,
      "t": 22773.712000000003,
      "d": 437.95600000000195,
      "v": 120
    },
    {
      "midi": 42,
      "hit": false,
      "t": 22773.71200000001,
      "d": 45.62041666666846,
      "v": 98
    },
    {
      "midi": 36,
      "hit": false,
      "t": 22773.71200000001,
      "d": 54.7445000000007,
      "v": 127
    },
    {
      "midi": 62,
      "hit": false,
      "t": 22782.836083333346,
      "d": 428.8319166666697,
      "v": 100
    },
    {
      "midi": 66,
      "hit": false,
      "t": 22782.836083333354,
      "d": 998.1747166666682,
      "v": 97
    },
    {
      "midi": 44,
      "hit": false,
      "t": 22782.836083333375,
      "d": 36.496333333332586,
      "v": 127
    },
    {
      "midi": 44,
      "hit": false,
      "t": 22782.836083333375,
      "d": 36.496333333332586,
      "v": 127
    },
    {
      "midi": 44,
      "hit": false,
      "t": 22782.83608333338,
      "d": 36.496333333332586,
      "v": 127
    },
    {
      "midi": 44,
      "hit": false,
      "t": 22782.83608333338,
      "d": 36.496333333332586,
      "v": 127
    },
    {
      "midi": 57,
      "hit": false,
      "t": 22786.485716666666,
      "d": 1739.050283333334,
      "v": 127
    },
    {
      "midi": 38,
      "hit": false,
      "t": 22786.48571666667,
      "d": 251.82470000000103,
      "v": 118
    },
    {
      "midi": 66,
      "hit": false,
      "t": 22786.48571666668,
      "d": 425.18228333333536,
      "v": 94
    },
    {
      "midi": 69,
      "hit": false,
      "t": 22791.960166666682,
      "d": 419.70783333333384,
      "v": 103
    },
    {
      "midi": 62,
      "hit": false,
      "t": 22801.084250000007,
      "d": 264.5984166666676,
      "v": 87
    },
    {
      "midi": 78,
      "hit": false,
      "t": 22801.08425000002,
      "d": 985.4010000000017,
      "v": 97
    },
    {
      "midi": 66,
      "hit": false,
      "t": 22804.73388333334,
      "d": 260.94878333333327,
      "v": 91
    },
    {
      "midi": 69,
      "hit": false,
      "t": 22804.73388333334,
      "d": 260.94878333333327,
      "v": 88
    },
    {
      "midi": 45,
      "hit": false,
      "t": 22819.332416666708,
      "d": 255.47433333333538,
      "v": 127
    },
    {
      "midi": 45,
      "hit": false,
      "t": 22819.332416666708,
      "d": 255.47433333333538,
      "v": 127
    },
    {
      "midi": 45,
      "hit": false,
      "t": 22819.33241666671,
      "d": 255.47433333333538,
      "v": 127
    },
    {
      "midi": 45,
      "hit": false,
      "t": 22819.33241666671,
      "d": 255.47433333333538,
      "v": 127
    },
    {
      "midi": 42,
      "hit": false,
      "t": 22883.201,
      "d": 45.62041666666846,
      "v": 45
    },
    {
      "midi": 42,
      "hit": false,
      "t": 22883.201000000012,
      "d": 63.868583333332936,
      "v": 98
    },
    {
      "midi": 46,
      "hit": false,
      "t": 22992.690000000002,
      "d": 85.76638333333176,
      "v": 80
    },
    {
      "midi": 42,
      "hit": false,
      "t": 22992.690000000002,
      "d": 45.62041666666846,
      "v": 45
    },
    {
      "midi": 46,
      "hit": false,
      "t": 22992.690000000013,
      "d": 218.97799999999916,
      "v": 98
    },
    {
      "midi": 50,
      "hit": false,
      "t": 23069.332300000042,
      "d": 142.33570000000327,
      "v": 127
    },
    {
      "midi": 50,
      "hit": false,
      "t": 23069.332300000042,
      "d": 142.33570000000327,
      "v": 127
    },
    {
      "midi": 50,
      "hit": false,
      "t": 23069.332300000046,
      "d": 142.33570000000327,
      "v": 127
    },
    {
      "midi": 50,
      "hit": false,
      "t": 23069.332300000046,
      "d": 142.33570000000327,
      "v": 127
    },
    {
      "midi": 62,
      "hit": false,
      "t": 23074.806750000007,
      "d": 58.39413333333505,
      "v": 84
    },
    {
      "midi": 66,
      "hit": false,
      "t": 23074.806750000007,
      "d": 67.51821666666729,
      "v": 93
    },
    {
      "midi": 69,
      "hit": false,
      "t": 23078.45638333334,
      "d": 69.34303333333446,
      "v": 91
    },
    {
      "midi": 42,
      "hit": false,
      "t": 23102.179000000004,
      "d": 45.62041666666846,
      "v": 45
    },
    {
      "midi": 49,
      "hit": false,
      "t": 23206.193549999993,
      "d": 124.08753333333152,
      "v": 114
    },
    {
      "midi": 36,
      "hit": false,
      "t": 23211.667999999972,
      "d": 51.09486666666635,
      "v": 107
    },
    {
      "midi": 36,
      "hit": false,
      "t": 23211.667999999972,
      "d": 51.09486666666635,
      "v": 107
    },
    {
      "midi": 35,
      "hit": false,
      "t": 23211.668,
      "d": 85.76638333333176,
      "v": 107
    },
    {
      "midi": 42,
      "hit": false,
      "t": 23211.668,
      "d": 85.76638333333176,
      "v": 107
    },
    {
      "midi": 42,
      "hit": false,
      "t": 23211.668000000005,
      "d": 45.62041666666846,
      "v": 45
    },
    {
      "midi": 38,
      "hit": false,
      "t": 23211.668000000005,
      "d": 437.9560000000056,
      "v": 127
    },
    {
      "midi": 42,
      "hit": false,
      "t": 23211.668000000012,
      "d": 45.62041666666846,
      "v": 98
    },
    {
      "midi": 36,
      "hit": false,
      "t": 23211.668000000012,
      "d": 54.7445000000007,
      "v": 127
    },
    {
      "midi": 37,
      "hit": false,
      "t": 23215.317633333336,
      "d": 270.0728666666655,
      "v": 119
    },
    {
      "midi": 62,
      "hit": false,
      "t": 23215.31763333335,
      "d": 434.3063666666676,
      "v": 100
    },
    {
      "midi": 50,
      "hit": false,
      "t": 23215.31763333338,
      "d": 279.19694999999774,
      "v": 127
    },
    {
      "midi": 50,
      "hit": false,
      "t": 23215.31763333338,
      "d": 279.19694999999774,
      "v": 127
    },
    {
      "midi": 50,
      "hit": false,
      "t": 23215.317633333383,
      "d": 279.19694999999774,
      "v": 127
    },
    {
      "midi": 50,
      "hit": false,
      "t": 23215.317633333383,
      "d": 279.19694999999774,
      "v": 127
    },
    {
      "midi": 66,
      "hit": false,
      "t": 23220.792083333352,
      "d": 432.4815500000004,
      "v": 94
    },
    {
      "midi": 69,
      "hit": false,
      "t": 23224.441716666686,
      "d": 425.1822833333317,
      "v": 107
    },
    {
      "midi": 42,
      "hit": false,
      "t": 23321.157000000007,
      "d": 45.62041666666846,
      "v": 45
    },
    {
      "midi": 42,
      "hit": false,
      "t": 23321.157000000014,
      "d": 63.868583333332936,
      "v": 98
    },
    {
      "midi": 46,
      "hit": false,
      "t": 23430.646,
      "d": 85.76638333333176,
      "v": 80
    },
    {
      "midi": 42,
      "hit": false,
      "t": 23430.646000000008,
      "d": 45.62041666666846,
      "v": 45
    },
    {
      "midi": 46,
      "hit": false,
      "t": 23430.646000000015,
      "d": 218.97799999999916,
      "v": 98
    },
    {
      "midi": 52,
      "hit": false,
      "t": 23470.79196666671,
      "d": 41.97078333333411,
      "v": 127
    },
    {
      "midi": 52,
      "hit": false,
      "t": 23470.79196666671,
      "d": 41.97078333333411,
      "v": 127
    },
    {
      "midi": 52,
      "hit": false,
      "t": 23470.791966666715,
      "d": 41.97078333333411,
      "v": 127
    },
    {
      "midi": 52,
      "hit": false,
      "t": 23470.791966666715,
      "d": 41.97078333333411,
      "v": 127
    },
    {
      "midi": 54,
      "hit": false,
      "t": 23507.288300000044,
      "d": 142.33570000000327,
      "v": 127
    },
    {
      "midi": 54,
      "hit": false,
      "t": 23507.288300000044,
      "d": 142.33570000000327,
      "v": 127
    },
    {
      "midi": 54,
      "hit": false,
      "t": 23507.288300000047,
      "d": 142.33570000000327,
      "v": 127
    },
    {
      "midi": 54,
      "hit": false,
      "t": 23507.288300000047,
      "d": 142.33570000000327,
      "v": 127
    },
    {
      "midi": 66,
      "hit": false,
      "t": 23512.76275000001,
      "d": 67.51821666666729,
      "v": 87
    },
    {
      "midi": 62,
      "hit": false,
      "t": 23512.76275000001,
      "d": 76.64229999999952,
      "v": 88
    },
    {
      "midi": 69,
      "hit": false,
      "t": 23516.412383333343,
      "d": 82.11674999999741,
      "v": 87
    },
    {
      "midi": 42,
      "hit": false,
      "t": 23540.13500000001,
      "d": 45.62041666666846,
      "v": 45
    },
    {
      "midi": 36,
      "hit": false,
      "t": 23540.13500000001,
      "d": 109.4890000000014,
      "v": 120
    },
    {
      "midi": 47,
      "hit": false,
      "t": 23644.14954999999,
      "d": 142.33569999999963,
      "v": 114
    },
    {
      "midi": 36,
      "hit": false,
      "t": 23649.62399999997,
      "d": 51.09486666666635,
      "v": 107
    },
    {
      "midi": 36,
      "hit": false,
      "t": 23649.62399999997,
      "d": 51.09486666666635,
      "v": 107
    },
    {
      "midi": 35,
      "hit": false,
      "t": 23649.624,
      "d": 85.76638333333176,
      "v": 107
    },
    {
      "midi": 42,
      "hit": false,
      "t": 23649.624,
      "d": 85.76638333333176,
      "v": 107
    },
    {
      "midi": 42,
      "hit": false,
      "t": 23649.62400000001,
      "d": 45.62041666666846,
      "v": 45
    },
    {
      "midi": 36,
      "hit": false,
      "t": 23649.62400000001,
      "d": 218.9780000000028,
      "v": 120
    },
    {
      "midi": 42,
      "hit": false,
      "t": 23649.624000000014,
      "d": 45.62041666666846,
      "v": 98
    },
    {
      "midi": 36,
      "hit": false,
      "t": 23649.624000000014,
      "d": 63.868583333336574,
      "v": 127
    },
    {
      "midi": 35,
      "hit": false,
      "t": 23658.748083333336,
      "d": 295.6202999999987,
      "v": 116
    },
    {
      "midi": 62,
      "hit": false,
      "t": 23658.748083333354,
      "d": 428.8319166666661,
      "v": 100
    },
    {
      "midi": 57,
      "hit": false,
      "t": 23658.748083333383,
      "d": 291.97066666666797,
      "v": 127
    },
    {
      "midi": 57,
      "hit": false,
      "t": 23658.748083333383,
      "d": 291.97066666666797,
      "v": 127
    },
    {
      "midi": 57,
      "hit": false,
      "t": 23658.748083333387,
      "d": 291.97066666666797,
      "v": 127
    },
    {
      "midi": 57,
      "hit": false,
      "t": 23658.748083333387,
      "d": 291.97066666666797,
      "v": 127
    },
    {
      "midi": 66,
      "hit": false,
      "t": 23662.39771666669,
      "d": 425.1822833333317,
      "v": 98
    },
    {
      "midi": 69,
      "hit": false,
      "t": 23662.39771666669,
      "d": 425.1822833333317,
      "v": 107
    },
    {
      "midi": 42,
      "hit": false,
      "t": 23759.113000000012,
      "d": 45.62041666666846,
      "v": 45
    },
    {
      "midi": 42,
      "hit": false,
      "t": 23759.11300000002,
      "d": 63.868583333332936,
      "v": 98
    },
    {
      "midi": 46,
      "hit": false,
      "t": 23868.602,
      "d": 85.76638333333176,
      "v": 80
    },
    {
      "midi": 42,
      "hit": false,
      "t": 23868.602000000014,
      "d": 45.62041666666846,
      "v": 45
    },
    {
      "midi": 36,
      "hit": false,
      "t": 23868.602000000014,
      "d": 218.9780000000028,
      "v": 120
    },
    {
      "midi": 46,
      "hit": false,
      "t": 23868.60200000002,
      "d": 218.97799999999916,
      "v": 98
    },
    {
      "midi": 66,
      "hit": false,
      "t": 23945.244300000024,
      "d": 105.83936666666705,
      "v": 97
    },
    {
      "midi": 54,
      "hit": false,
      "t": 23945.24430000005,
      "d": 145.98533333333398,
      "v": 127
    },
    {
      "midi": 54,
      "hit": false,
      "t": 23945.24430000005,
      "d": 145.98533333333398,
      "v": 127
    },
    {
      "midi": 54,
      "hit": false,
      "t": 23945.244300000053,
      "d": 145.98533333333398,
      "v": 127
    },
    {
      "midi": 54,
      "hit": false,
      "t": 23945.244300000053,
      "d": 145.98533333333398,
      "v": 127
    },
    {
      "midi": 66,
      "hit": false,
      "t": 23954.36838333334,
      "d": 54.7445000000007,
      "v": 87
    },
    {
      "midi": 62,
      "hit": false,
      "t": 23954.36838333334,
      "d": 63.868583333332936,
      "v": 88
    },
    {
      "midi": 69,
      "hit": false,
      "t": 23954.36838333334,
      "d": 78.4671166666667,
      "v": 91
    },
    {
      "midi": 78,
      "hit": false,
      "t": 23954.368383333356,
      "d": 96.71528333333481,
      "v": 97
    },
    {
      "midi": 42,
      "hit": false,
      "t": 23978.091000000015,
      "d": 45.62041666666846,
      "v": 45
    },
    {
      "midi": 45,
      "hit": false,
      "t": 24082.10554999999,
      "d": 169.70794999999998,
      "v": 114
    },
    {
      "midi": 36,
      "hit": false,
      "t": 24087.57999999997,
      "d": 51.09486666666635,
      "v": 107
    },
    {
      "midi": 36,
      "hit": false,
      "t": 24087.57999999997,
      "d": 51.09486666666635,
      "v": 107
    },
    {
      "midi": 35,
      "hit": false,
      "t": 24087.579999999998,
      "d": 85.76638333333176,
      "v": 107
    },
    {
      "midi": 42,
      "hit": false,
      "t": 24087.579999999998,
      "d": 85.76638333333176,
      "v": 107
    },
    {
      "midi": 42,
      "hit": false,
      "t": 24087.580000000016,
      "d": 45.62041666666846,
      "v": 45
    },
    {
      "midi": 38,
      "hit": false,
      "t": 24087.580000000016,
      "d": 218.9780000000028,
      "v": 127
    },
    {
      "midi": 42,
      "hit": false,
      "t": 24087.58000000002,
      "d": 54.7445000000007,
      "v": 98
    },
    {
      "midi": 36,
      "hit": false,
      "t": 24087.58000000002,
      "d": 63.868583333332936,
      "v": 127
    },
    {
      "midi": 62,
      "hit": false,
      "t": 24091.229633333354,
      "d": 434.3063666666676,
      "v": 100
    },
    {
      "midi": 66,
      "hit": false,
      "t": 24091.229633333358,
      "d": 251.82470000000103,
      "v": 97
    },
    {
      "midi": 33,
      "hit": false,
      "t": 24096.704083333334,
      "d": 291.97066666666797,
      "v": 118
    },
    {
      "midi": 66,
      "hit": false,
      "t": 24096.704083333356,
      "d": 428.8319166666661,
      "v": 97
    },
    {
      "midi": 57,
      "hit": false,
      "t": 24096.704083333385,
      "d": 428.8319166666661,
      "v": 127
    },
    {
      "midi": 57,
      "hit": false,
      "t": 24096.704083333385,
      "d": 428.8319166666661,
      "v": 127
    },
    {
      "midi": 57,
      "hit": false,
      "t": 24096.70408333339,
      "d": 428.8319166666661,
      "v": 127
    },
    {
      "midi": 57,
      "hit": false,
      "t": 24096.70408333339,
      "d": 428.8319166666661,
      "v": 127
    },
    {
      "midi": 69,
      "hit": false,
      "t": 24100.35371666669,
      "d": 428.8319166666661,
      "v": 107
    },
    {
      "midi": 78,
      "hit": false,
      "t": 24105.82816666669,
      "d": 237.22616666666727,
      "v": 97
    },
    {
      "midi": 42,
      "hit": false,
      "t": 24197.069000000018,
      "d": 45.62041666666846,
      "v": 45
    },
    {
      "midi": 42,
      "hit": false,
      "t": 24197.06900000002,
      "d": 72.99266666666517,
      "v": 98
    },
    {
      "midi": 46,
      "hit": false,
      "t": 24306.557999999997,
      "d": 85.76638333333176,
      "v": 80
    },
    {
      "midi": 46,
      "hit": false,
      "t": 24306.55800000002,
      "d": 218.97799999999916,
      "v": 98
    },
    {
      "midi": 42,
      "hit": false,
      "t": 24306.55800000002,
      "d": 36.496333333332586,
      "v": 45
    },
    {
      "midi": 36,
      "hit": false,
      "t": 24306.55800000002,
      "d": 218.97799999999552,
      "v": 120
    },
    {
      "midi": 62,
      "hit": false,
      "t": 24383.200300000026,
      "d": 127.73716666666951,
      "v": 97
    },
    {
      "midi": 66,
      "hit": false,
      "t": 24388.67475000001,
      "d": 45.62041666666846,
      "v": 91
    },
    {
      "midi": 62,
      "hit": false,
      "t": 24388.67475000001,
      "d": 63.868583333336574,
      "v": 85
    },
    {
      "midi": 74,
      "hit": false,
      "t": 24388.674750000027,
      "d": 127.73716666666951,
      "v": 97
    },
    {
      "midi": 69,
      "hit": false,
      "t": 24392.324383333344,
      "d": 63.868583333336574,
      "v": 85
    },
    {
      "midi": 36,
      "hit": false,
      "t": 24416.04699999997,
      "d": 51.09486666666635,
      "v": 67
    },
    {
      "midi": 36,
      "hit": false,
      "t": 24416.04699999997,
      "d": 51.09486666666635,
      "v": 67
    },
    {
      "midi": 35,
      "hit": false,
      "t": 24416.046999999995,
      "d": 85.76638333333176,
      "v": 97
    },
    {
      "midi": 42,
      "hit": false,
      "t": 24416.046999999995,
      "d": 85.76638333333176,
      "v": 107
    },
    {
      "midi": 42,
      "hit": false,
      "t": 24416.047000000017,
      "d": 36.496333333332586,
      "v": 45
    },
    {
      "midi": 36,
      "hit": false,
      "t": 24525.53599999997,
      "d": 51.09486666666635,
      "v": 107
    },
    {
      "midi": 36,
      "hit": false,
      "t": 24525.53599999997,
      "d": 51.09486666666635,
      "v": 107
    },
    {
      "midi": 50,
      "hit": false,
      "t": 24525.53599999999,
      "d": 100.36491666666552,
      "v": 119
    },
    {
      "midi": 35,
      "hit": false,
      "t": 24525.535999999993,
      "d": 85.76638333333176,
      "v": 107
    },
    {
      "midi": 42,
      "hit": false,
      "t": 24525.535999999993,
      "d": 85.76638333333176,
      "v": 107
    },
    {
      "midi": 42,
      "hit": false,
      "t": 24525.536000000015,
      "d": 36.496333333332586,
      "v": 45
    },
    {
      "midi": 36,
      "hit": false,
      "t": 24525.536000000015,
      "d": 218.97799999999916,
      "v": 120
    },
    {
      "midi": 42,
      "hit": false,
      "t": 24525.53600000002,
      "d": 45.62041666666846,
      "v": 98
    },
    {
      "midi": 36,
      "hit": false,
      "t": 24525.53600000002,
      "d": 54.7445000000007,
      "v": 127
    },
    {
      "midi": 57,
      "hit": false,
      "t": 24529.185633333364,
      "d": 1748.1743666666662,
      "v": 97
    },
    {
      "midi": 62,
      "hit": false,
      "t": 24534.660083333358,
      "d": 428.8319166666661,
      "v": 98
    },
    {
      "midi": 55,
      "hit": false,
      "t": 24534.660083333383,
      "d": 282.84658333334664,
      "v": 127
    },
    {
      "midi": 55,
      "hit": false,
      "t": 24534.660083333383,
      "d": 282.84658333334664,
      "v": 127
    },
    {
      "midi": 55,
      "hit": false,
      "t": 24534.660083333387,
      "d": 282.84658333334664,
      "v": 127
    },
    {
      "midi": 55,
      "hit": false,
      "t": 24534.660083333387,
      "d": 282.84658333334664,
      "v": 127
    },
    {
      "midi": 69,
      "hit": false,
      "t": 24538.309716666667,
      "d": 1748.1743666666662,
      "v": 127
    },
    {
      "midi": 38,
      "hit": false,
      "t": 24538.30971666667,
      "d": 246.3502499999995,
      "v": 119
    },
    {
      "midi": 66,
      "hit": false,
      "t": 24538.309716666692,
      "d": 425.1822833333317,
      "v": 103
    },
    {
      "midi": 69,
      "hit": false,
      "t": 24538.309716666692,
      "d": 425.1822833333317,
      "v": 107
    },
    {
      "midi": 62,
      "hit": false,
      "t": 24552.908250000015,
      "d": 264.5984166666676,
      "v": 90
    },
    {
      "midi": 66,
      "hit": false,
      "t": 24552.908250000015,
      "d": 264.5984166666676,
      "v": 91
    },
    {
      "midi": 69,
      "hit": false,
      "t": 24552.90825000003,
      "d": 1737.2254666666668,
      "v": 97
    },
    {
      "midi": 69,
      "hit": false,
      "t": 24556.55788333335,
      "d": 264.5984166666676,
      "v": 92
    },
    {
      "midi": 42,
      "hit": false,
      "t": 24635.025000000012,
      "d": 45.62041666666846,
      "v": 45
    },
    {
      "midi": 42,
      "hit": false,
      "t": 24635.02500000002,
      "d": 63.868583333332936,
      "v": 98
    },
    {
      "midi": 46,
      "hit": false,
      "t": 24744.513999999992,
      "d": 85.76638333333176,
      "v": 80
    },
    {
      "midi": 42,
      "hit": false,
      "t": 24744.514000000014,
      "d": 45.62041666666846,
      "v": 45
    },
    {
      "midi": 46,
      "hit": false,
      "t": 24744.51400000002,
      "d": 218.97799999999916,
      "v": 98
    },
    {
      "midi": 59,
      "hit": false,
      "t": 24821.156300000064,
      "d": 145.98533333333398,
      "v": 127
    },
    {
      "midi": 59,
      "hit": false,
      "t": 24821.156300000064,
      "d": 145.98533333333398,
      "v": 127
    },
    {
      "midi": 59,
      "hit": false,
      "t": 24821.156300000068,
      "d": 145.98533333333398,
      "v": 127
    },
    {
      "midi": 59,
      "hit": false,
      "t": 24821.156300000068,
      "d": 145.98533333333398,
      "v": 127
    },
    {
      "midi": 62,
      "hit": false,
      "t": 24826.63075000002,
      "d": 49.27005000000281,
      "v": 85
    },
    {
      "midi": 66,
      "hit": false,
      "t": 24830.280383333353,
      "d": 54.7445000000007,
      "v": 92
    },
    {
      "midi": 69,
      "hit": false,
      "t": 24830.280383333353,
      "d": 54.7445000000007,
      "v": 91
    },
    {
      "midi": 42,
      "hit": false,
      "t": 24854.003000000015,
      "d": 36.496333333332586,
      "v": 45
    },
    {
      "midi": 45,
      "hit": false,
      "t": 24958.01754999999,
      "d": 151.45978333333187,
      "v": 119
    },
    {
      "midi": 36,
      "hit": false,
      "t": 24963.49199999997,
      "d": 51.09486666666635,
      "v": 107
    },
    {
      "midi": 36,
      "hit": false,
      "t": 24963.49199999997,
      "d": 51.09486666666635,
      "v": 107
    },
    {
      "midi": 35,
      "hit": false,
      "t": 24963.49199999999,
      "d": 85.76638333333176,
      "v": 107
    },
    {
      "midi": 42,
      "hit": false,
      "t": 24963.49199999999,
      "d": 85.76638333333176,
      "v": 107
    },
    {
      "midi": 42,
      "hit": false,
      "t": 24963.492000000013,
      "d": 45.62041666666846,
      "v": 45
    },
    {
      "midi": 38,
      "hit": false,
      "t": 24963.492000000013,
      "d": 328.4670000000042,
      "v": 127
    },
    {
      "midi": 42,
      "hit": false,
      "t": 24963.49200000002,
      "d": 45.62041666666846,
      "v": 98
    },
    {
      "midi": 36,
      "hit": false,
      "t": 24963.49200000002,
      "d": 54.7445000000007,
      "v": 127
    },
    {
      "midi": 62,
      "hit": false,
      "t": 24967.14163333336,
      "d": 434.3063666666676,
      "v": 98
    },
    {
      "midi": 33,
      "hit": false,
      "t": 24972.616083333338,
      "d": 291.97066666666797,
      "v": 118
    },
    {
      "midi": 66,
      "hit": false,
      "t": 24972.61608333336,
      "d": 428.8319166666661,
      "v": 100
    },
    {
      "midi": 57,
      "hit": false,
      "t": 24972.6160833334,
      "d": 282.8465833333321,
      "v": 127
    },
    {
      "midi": 57,
      "hit": false,
      "t": 24972.6160833334,
      "d": 282.8465833333321,
      "v": 127
    },
    {
      "midi": 57,
      "hit": false,
      "t": 24972.616083333403,
      "d": 282.8465833333321,
      "v": 127
    },
    {
      "midi": 57,
      "hit": false,
      "t": 24972.616083333403,
      "d": 282.8465833333321,
      "v": 127
    },
    {
      "midi": 69,
      "hit": false,
      "t": 24976.265716666694,
      "d": 425.1822833333317,
      "v": 107
    },
    {
      "midi": 42,
      "hit": false,
      "t": 25072.981000000014,
      "d": 45.62041666666846,
      "v": 45
    },
    {
      "midi": 42,
      "hit": false,
      "t": 25072.98100000002,
      "d": 63.868583333332936,
      "v": 98
    },
    {
      "midi": 46,
      "hit": false,
      "t": 25182.46999999999,
      "d": 85.76638333333176,
      "v": 80
    },
    {
      "midi": 42,
      "hit": false,
      "t": 25182.470000000016,
      "d": 45.62041666666846,
      "v": 45
    },
    {
      "midi": 46,
      "hit": false,
      "t": 25182.470000000023,
      "d": 218.97799999999916,
      "v": 98
    },
    {
      "midi": 54,
      "hit": false,
      "t": 25259.112300000066,
      "d": 151.4597833333355,
      "v": 127
    },
    {
      "midi": 54,
      "hit": false,
      "t": 25259.112300000066,
      "d": 151.4597833333355,
      "v": 127
    },
    {
      "midi": 54,
      "hit": false,
      "t": 25259.11230000007,
      "d": 151.4597833333355,
      "v": 127
    },
    {
      "midi": 54,
      "hit": false,
      "t": 25259.11230000007,
      "d": 151.4597833333355,
      "v": 127
    },
    {
      "midi": 42,
      "hit": false,
      "t": 25291.959000000017,
      "d": 45.62041666666846,
      "v": 45
    },
    {
      "midi": 36,
      "hit": false,
      "t": 25291.959000000017,
      "d": 109.4890000000014,
      "v": 120
    },
    {
      "midi": 52,
      "hit": false,
      "t": 25395.973549999988,
      "d": 133.2116166666674,
      "v": 116
    },
    {
      "midi": 36,
      "hit": false,
      "t": 25401.447999999968,
      "d": 51.09486666666635,
      "v": 107
    },
    {
      "midi": 36,
      "hit": false,
      "t": 25401.447999999968,
      "d": 51.09486666666635,
      "v": 107
    },
    {
      "midi": 35,
      "hit": false,
      "t": 25401.44799999999,
      "d": 85.76638333333176,
      "v": 107
    },
    {
      "midi": 42,
      "hit": false,
      "t": 25401.44799999999,
      "d": 85.76638333333176,
      "v": 107
    },
    {
      "midi": 42,
      "hit": false,
      "t": 25401.44800000002,
      "d": 45.62041666666846,
      "v": 45
    },
    {
      "midi": 38,
      "hit": false,
      "t": 25401.44800000002,
      "d": 109.4890000000014,
      "v": 127
    },
    {
      "midi": 42,
      "hit": false,
      "t": 25401.448000000022,
      "d": 45.62041666666846,
      "v": 98
    },
    {
      "midi": 36,
      "hit": false,
      "t": 25401.448000000022,
      "d": 54.7445000000007,
      "v": 127
    },
    {
      "midi": 59,
      "hit": false,
      "t": 25405.09763333336,
      "d": 434.3063666666676,
      "v": 106
    },
    {
      "midi": 55,
      "hit": false,
      "t": 25405.0976333334,
      "d": 145.98533333333398,
      "v": 127
    },
    {
      "midi": 55,
      "hit": false,
      "t": 25405.0976333334,
      "d": 145.98533333333398,
      "v": 127
    },
    {
      "midi": 55,
      "hit": false,
      "t": 25405.097633333404,
      "d": 145.98533333333398,
      "v": 127
    },
    {
      "midi": 55,
      "hit": false,
      "t": 25405.097633333404,
      "d": 145.98533333333398,
      "v": 127
    },
    {
      "midi": 40,
      "hit": false,
      "t": 25410.57208333334,
      "d": 240.87580000000162,
      "v": 117
    },
    {
      "midi": 64,
      "hit": false,
      "t": 25410.57208333336,
      "d": 428.8319166666661,
      "v": 100
    },
    {
      "midi": 67,
      "hit": false,
      "t": 25414.221716666696,
      "d": 425.1822833333317,
      "v": 100
    },
    {
      "midi": 61,
      "hit": false,
      "t": 25419.696166666687,
      "d": 273.72249999999985,
      "v": 88
    },
    {
      "midi": 64,
      "hit": false,
      "t": 25419.696166666687,
      "d": 273.72249999999985,
      "v": 92
    },
    {
      "midi": 69,
      "hit": false,
      "t": 25419.696166666687,
      "d": 273.72249999999985,
      "v": 90
    },
    {
      "midi": 42,
      "hit": false,
      "t": 25510.93700000002,
      "d": 45.62041666666846,
      "v": 45
    },
    {
      "midi": 38,
      "hit": false,
      "t": 25510.93700000002,
      "d": 109.4890000000014,
      "v": 127
    },
    {
      "midi": 42,
      "hit": false,
      "t": 25510.937000000024,
      "d": 63.868583333332936,
      "v": 98
    },
    {
      "midi": 54,
      "hit": false,
      "t": 25551.082966666734,
      "d": 142.33569999999963,
      "v": 127
    },
    {
      "midi": 54,
      "hit": false,
      "t": 25551.082966666734,
      "d": 142.33569999999963,
      "v": 127
    },
    {
      "midi": 54,
      "hit": false,
      "t": 25551.082966666738,
      "d": 142.33569999999963,
      "v": 127
    },
    {
      "midi": 54,
      "hit": false,
      "t": 25551.082966666738,
      "d": 142.33569999999963,
      "v": 127
    },
    {
      "midi": 46,
      "hit": false,
      "t": 25620.42599999999,
      "d": 85.76638333333176,
      "v": 80
    },
    {
      "midi": 46,
      "hit": false,
      "t": 25620.42600000002,
      "d": 63.868583333332936,
      "v": 45
    },
    {
      "midi": 38,
      "hit": false,
      "t": 25620.42600000002,
      "d": 109.4890000000014,
      "v": 127
    },
    {
      "midi": 46,
      "hit": false,
      "t": 25620.426000000025,
      "d": 218.97799999999916,
      "v": 98
    },
    {
      "midi": 52,
      "hit": false,
      "t": 25697.068300000068,
      "d": 583.9413333333505,
      "v": 127
    },
    {
      "midi": 52,
      "hit": false,
      "t": 25697.068300000068,
      "d": 583.9413333333505,
      "v": 127
    },
    {
      "midi": 52,
      "hit": false,
      "t": 25697.06830000007,
      "d": 583.9413333333505,
      "v": 127
    },
    {
      "midi": 52,
      "hit": false,
      "t": 25697.06830000007,
      "d": 583.9413333333505,
      "v": 127
    },
    {
      "midi": 64,
      "hit": false,
      "t": 25702.54275000002,
      "d": 63.868583333332936,
      "v": 93
    },
    {
      "midi": 61,
      "hit": false,
      "t": 25702.54275000002,
      "d": 67.51821666666729,
      "v": 88
    },
    {
      "midi": 69,
      "hit": false,
      "t": 25706.192383333353,
      "d": 82.11675000000105,
      "v": 91
    },
    {
      "midi": 38,
      "hit": false,
      "t": 25729.915000000023,
      "d": 109.4890000000014,
      "v": 127
    },
    {
      "midi": 36,
      "hit": false,
      "t": 25839.403999999966,
      "d": 51.09486666666635,
      "v": 107
    },
    {
      "midi": 36,
      "hit": false,
      "t": 25839.403999999966,
      "d": 51.09486666666635,
      "v": 107
    },
    {
      "midi": 35,
      "hit": false,
      "t": 25839.403999999988,
      "d": 85.76638333333176,
      "v": 107
    },
    {
      "midi": 42,
      "hit": false,
      "t": 25839.403999999988,
      "d": 85.76638333333176,
      "v": 107
    },
    {
      "midi": 33,
      "hit": false,
      "t": 25839.40400000001,
      "d": 255.47433333333174,
      "v": 119
    },
    {
      "midi": 42,
      "hit": false,
      "t": 25839.404000000024,
      "d": 54.7445000000007,
      "v": 98
    },
    {
      "midi": 36,
      "hit": false,
      "t": 25839.404000000024,
      "d": 54.7445000000007,
      "v": 127
    },
    {
      "midi": 42,
      "hit": false,
      "t": 25839.404000000024,
      "d": 36.496333333332586,
      "v": 45
    },
    {
      "midi": 38,
      "hit": false,
      "t": 25839.404000000024,
      "d": 109.48899999999776,
      "v": 127
    },
    {
      "midi": 59,
      "hit": false,
      "t": 25843.053633333362,
      "d": 434.3063666666676,
      "v": 100
    },
    {
      "midi": 64,
      "hit": false,
      "t": 25848.528083333364,
      "d": 441.60563333333266,
      "v": 106
    },
    {
      "midi": 67,
      "hit": false,
      "t": 25848.528083333364,
      "d": 441.60563333333266,
      "v": 107
    },
    {
      "midi": 42,
      "hit": false,
      "t": 25948.893000000022,
      "d": 45.62041666666846,
      "v": 45
    },
    {
      "midi": 38,
      "hit": false,
      "t": 25948.893000000022,
      "d": 109.4890000000014,
      "v": 127
    },
    {
      "midi": 42,
      "hit": false,
      "t": 25948.893000000025,
      "d": 72.99266666666517,
      "v": 98
    },
    {
      "midi": 46,
      "hit": false,
      "t": 26058.381999999987,
      "d": 85.76638333333176,
      "v": 80
    },
    {
      "midi": 46,
      "hit": false,
      "t": 26058.382000000023,
      "d": 218.97799999999916,
      "v": 98
    },
    {
      "midi": 46,
      "hit": false,
      "t": 26058.382000000023,
      "d": 36.496333333332586,
      "v": 45
    },
    {
      "midi": 38,
      "hit": false,
      "t": 26058.382000000023,
      "d": 109.48899999999776,
      "v": 127
    },
    {
      "midi": 38,
      "hit": false,
      "t": 26167.87100000002,
      "d": 109.4890000000014,
      "v": 127
    },
    {
      "midi": 36,
      "hit": false,
      "t": 26277.359999999964,
      "d": 51.09486666666635,
      "v": 107
    },
    {
      "midi": 36,
      "hit": false,
      "t": 26277.359999999964,
      "d": 51.09486666666635,
      "v": 107
    },
    {
      "midi": 35,
      "hit": false,
      "t": 26277.359999999986,
      "d": 85.76638333333176,
      "v": 107
    },
    {
      "midi": 42,
      "hit": false,
      "t": 26277.359999999986,
      "d": 85.76638333333176,
      "v": 107
    },
    {
      "midi": 42,
      "hit": false,
      "t": 26277.360000000022,
      "d": 45.62041666666846,
      "v": 98
    },
    {
      "midi": 36,
      "hit": false,
      "t": 26277.360000000022,
      "d": 54.7445000000007,
      "v": 127
    },
    {
      "midi": 42,
      "hit": false,
      "t": 26277.360000000022,
      "d": 36.496333333332586,
      "v": 45
    },
    {
      "midi": 36,
      "hit": false,
      "t": 26277.360000000022,
      "d": 437.95600000000195,
      "v": 120
    },
    {
      "midi": 40,
      "hit": false,
      "t": 26290.133716666674,
      "d": 273.72249999999985,
      "v": 117
    },
    {
      "midi": 59,
      "hit": false,
      "t": 26295.608166666665,
      "d": 1733.5758333333324,
      "v": 127
    },
    {
      "midi": 67,
      "hit": false,
      "t": 26295.608166666698,
      "d": 833.9412166666662,
      "v": 97
    },
    {
      "midi": 61,
      "hit": false,
      "t": 26295.608166666698,
      "d": 419.70783333333384,
      "v": 97
    },
    {
      "midi": 64,
      "hit": false,
      "t": 26295.608166666698,
      "d": 419.70783333333384,
      "v": 100
    },
    {
      "midi": 67,
      "hit": false,
      "t": 26295.608166666698,
      "d": 419.70783333333384,
      "v": 103
    },
    {
      "midi": 47,
      "hit": false,
      "t": 26295.608166666752,
      "d": 273.7225000000035,
      "v": 127
    },
    {
      "midi": 47,
      "hit": false,
      "t": 26295.608166666752,
      "d": 273.7225000000035,
      "v": 127
    },
    {
      "midi": 47,
      "hit": false,
      "t": 26295.608166666756,
      "d": 273.7225000000035,
      "v": 127
    },
    {
      "midi": 47,
      "hit": false,
      "t": 26295.608166666756,
      "d": 273.7225000000035,
      "v": 127
    },
    {
      "midi": 59,
      "hit": false,
      "t": 26304.73225000002,
      "d": 264.5984166666676,
      "v": 91
    },
    {
      "midi": 64,
      "hit": false,
      "t": 26304.73225000002,
      "d": 264.5984166666676,
      "v": 91
    },
    {
      "midi": 67,
      "hit": false,
      "t": 26304.73225000002,
      "d": 268.24805000000197,
      "v": 92
    },
    {
      "midi": 49,
      "hit": false,
      "t": 26304.732250000023,
      "d": 1085.7659166666708,
      "v": 127
    },
    {
      "midi": 79,
      "hit": false,
      "t": 26304.73225000003,
      "d": 824.8171333333339,
      "v": 97
    },
    {
      "midi": 42,
      "hit": false,
      "t": 26386.84900000002,
      "d": 45.62041666666846,
      "v": 45
    },
    {
      "midi": 42,
      "hit": false,
      "t": 26386.849000000024,
      "d": 63.868583333332936,
      "v": 98
    },
    {
      "midi": 46,
      "hit": false,
      "t": 26496.337999999985,
      "d": 85.76638333333176,
      "v": 80
    },
    {
      "midi": 42,
      "hit": false,
      "t": 26496.33800000002,
      "d": 45.62041666666846,
      "v": 45
    },
    {
      "midi": 46,
      "hit": false,
      "t": 26496.338000000025,
      "d": 218.97799999999916,
      "v": 98
    },
    {
      "midi": 59,
      "hit": false,
      "t": 26578.454750000023,
      "d": 63.868583333332936,
      "v": 91
    },
    {
      "midi": 52,
      "hit": false,
      "t": 26578.45475000009,
      "d": 136.86125000000175,
      "v": 127
    },
    {
      "midi": 52,
      "hit": false,
      "t": 26578.45475000009,
      "d": 136.86125000000175,
      "v": 127
    },
    {
      "midi": 52,
      "hit": false,
      "t": 26578.454750000095,
      "d": 136.86125000000175,
      "v": 127
    },
    {
      "midi": 52,
      "hit": false,
      "t": 26578.454750000095,
      "d": 136.86125000000175,
      "v": 127
    },
    {
      "midi": 64,
      "hit": false,
      "t": 26582.104383333357,
      "d": 69.34303333333082,
      "v": 94
    },
    {
      "midi": 67,
      "hit": false,
      "t": 26582.104383333357,
      "d": 91.24083333332965,
      "v": 94
    },
    {
      "midi": 42,
      "hit": false,
      "t": 26605.827000000023,
      "d": 45.62041666666846,
      "v": 45
    },
    {
      "midi": 36,
      "hit": false,
      "t": 26715.315999999963,
      "d": 51.09486666666635,
      "v": 107
    },
    {
      "midi": 36,
      "hit": false,
      "t": 26715.315999999963,
      "d": 51.09486666666635,
      "v": 107
    },
    {
      "midi": 35,
      "hit": false,
      "t": 26715.315999999984,
      "d": 85.76638333333176,
      "v": 107
    },
    {
      "midi": 42,
      "hit": false,
      "t": 26715.315999999984,
      "d": 85.76638333333176,
      "v": 107
    },
    {
      "midi": 42,
      "hit": false,
      "t": 26715.316000000024,
      "d": 45.62041666666846,
      "v": 98
    },
    {
      "midi": 36,
      "hit": false,
      "t": 26715.316000000024,
      "d": 54.7445000000007,
      "v": 127
    },
    {
      "midi": 42,
      "hit": false,
      "t": 26715.316000000024,
      "d": 45.62041666666846,
      "v": 45
    },
    {
      "midi": 38,
      "hit": false,
      "t": 26715.316000000024,
      "d": 437.9559999999983,
      "v": 127
    },
    {
      "midi": 33,
      "hit": false,
      "t": 26718.96563333334,
      "d": 328.46700000000055,
      "v": 116
    },
    {
      "midi": 52,
      "hit": false,
      "t": 26718.965633333428,
      "d": 288.3210333333336,
      "v": 127
    },
    {
      "midi": 52,
      "hit": false,
      "t": 26718.965633333428,
      "d": 288.3210333333336,
      "v": 127
    },
    {
      "midi": 52,
      "hit": false,
      "t": 26718.96563333343,
      "d": 288.3210333333336,
      "v": 127
    },
    {
      "midi": 52,
      "hit": false,
      "t": 26718.96563333343,
      "d": 288.3210333333336,
      "v": 127
    },
    {
      "midi": 64,
      "hit": false,
      "t": 26724.440083333364,
      "d": 428.8319166666661,
      "v": 103
    },
    {
      "midi": 61,
      "hit": false,
      "t": 26724.440083333364,
      "d": 432.4815500000004,
      "v": 94
    },
    {
      "midi": 67,
      "hit": false,
      "t": 26728.0897166667,
      "d": 425.1822833333317,
      "v": 103
    },
    {
      "midi": 42,
      "hit": false,
      "t": 26824.805000000026,
      "d": 63.868583333332936,
      "v": 98
    },
    {
      "midi": 42,
      "hit": false,
      "t": 26824.805000000026,
      "d": 36.496333333332586,
      "v": 45
    },
    {
      "midi": 46,
      "hit": false,
      "t": 26934.293999999983,
      "d": 85.76638333333176,
      "v": 80
    },
    {
      "midi": 42,
      "hit": false,
      "t": 26934.294000000024,
      "d": 36.496333333332586,
      "v": 45
    },
    {
      "midi": 46,
      "hit": false,
      "t": 26934.294000000027,
      "d": 218.97799999999916,
      "v": 98
    },
    {
      "midi": 55,
      "hit": false,
      "t": 27010.936300000096,
      "d": 142.33569999999963,
      "v": 127
    },
    {
      "midi": 55,
      "hit": false,
      "t": 27010.936300000096,
      "d": 142.33569999999963,
      "v": 127
    },
    {
      "midi": 55,
      "hit": false,
      "t": 27010.9363000001,
      "d": 142.33569999999963,
      "v": 127
    },
    {
      "midi": 55,
      "hit": false,
      "t": 27010.9363000001,
      "d": 142.33569999999963,
      "v": 127
    },
    {
      "midi": 42,
      "hit": false,
      "t": 27043.78300000002,
      "d": 45.62041666666846,
      "v": 45
    },
    {
      "midi": 36,
      "hit": false,
      "t": 27043.78300000002,
      "d": 109.4890000000014,
      "v": 120
    },
    {
      "midi": 36,
      "hit": false,
      "t": 27153.27199999996,
      "d": 51.09486666666635,
      "v": 107
    },
    {
      "midi": 36,
      "hit": false,
      "t": 27153.27199999996,
      "d": 51.09486666666635,
      "v": 107
    },
    {
      "midi": 35,
      "hit": false,
      "t": 27153.271999999983,
      "d": 85.76638333333176,
      "v": 107
    },
    {
      "midi": 42,
      "hit": false,
      "t": 27153.271999999983,
      "d": 85.76638333333176,
      "v": 107
    },
    {
      "midi": 42,
      "hit": false,
      "t": 27153.272000000023,
      "d": 45.62041666666846,
      "v": 45
    },
    {
      "midi": 36,
      "hit": false,
      "t": 27153.272000000023,
      "d": 218.9780000000028,
      "v": 120
    },
    {
      "midi": 42,
      "hit": false,
      "t": 27153.272000000026,
      "d": 45.62041666666846,
      "v": 98
    },
    {
      "midi": 36,
      "hit": false,
      "t": 27153.272000000026,
      "d": 72.99266666666881,
      "v": 127
    },
    {
      "midi": 40,
      "hit": false,
      "t": 27162.39608333334,
      "d": 277.3721333333342,
      "v": 116
    },
    {
      "midi": 64,
      "hit": false,
      "t": 27162.396083333362,
      "d": 833.9412166666662,
      "v": 97
    },
    {
      "midi": 61,
      "hit": false,
      "t": 27162.396083333366,
      "d": 428.8319166666697,
      "v": 100
    },
    {
      "midi": 64,
      "hit": false,
      "t": 27166.0457166667,
      "d": 425.18228333333536,
      "v": 106
    },
    {
      "midi": 61,
      "hit": false,
      "t": 27166.045716666766,
      "d": 209.85391666667056,
      "v": 127
    },
    {
      "midi": 61,
      "hit": false,
      "t": 27166.045716666766,
      "d": 209.85391666667056,
      "v": 127
    },
    {
      "midi": 61,
      "hit": false,
      "t": 27166.04571666677,
      "d": 209.85391666667056,
      "v": 127
    },
    {
      "midi": 61,
      "hit": false,
      "t": 27166.04571666677,
      "d": 209.85391666667056,
      "v": 127
    },
    {
      "midi": 69,
      "hit": false,
      "t": 27171.5201666667,
      "d": 419.70783333333384,
      "v": 100
    },
    {
      "midi": 76,
      "hit": false,
      "t": 27175.16980000003,
      "d": 821.1674999999996,
      "v": 97
    },
    {
      "midi": 61,
      "hit": false,
      "t": 27180.64425000002,
      "d": 264.5984166666676,
      "v": 87
    },
    {
      "midi": 64,
      "hit": false,
      "t": 27180.64425000002,
      "d": 264.5984166666676,
      "v": 94
    },
    {
      "midi": 69,
      "hit": false,
      "t": 27184.293883333354,
      "d": 260.94878333333327,
      "v": 94
    },
    {
      "midi": 42,
      "hit": false,
      "t": 27262.761000000024,
      "d": 45.62041666666846,
      "v": 45
    },
    {
      "midi": 42,
      "hit": false,
      "t": 27262.761000000028,
      "d": 63.868583333332936,
      "v": 98
    },
    {
      "midi": 46,
      "hit": false,
      "t": 27372.24999999998,
      "d": 85.76638333333176,
      "v": 80
    },
    {
      "midi": 42,
      "hit": false,
      "t": 27372.250000000025,
      "d": 36.496333333336224,
      "v": 45
    },
    {
      "midi": 36,
      "hit": false,
      "t": 27372.250000000025,
      "d": 218.97799999999916,
      "v": 120
    },
    {
      "midi": 46,
      "hit": false,
      "t": 27372.25000000003,
      "d": 218.97799999999916,
      "v": 98
    },
    {
      "midi": 59,
      "hit": false,
      "t": 27448.8923000001,
      "d": 288.32103333333725,
      "v": 127
    },
    {
      "midi": 59,
      "hit": false,
      "t": 27448.8923000001,
      "d": 288.32103333333725,
      "v": 127
    },
    {
      "midi": 59,
      "hit": false,
      "t": 27448.892300000105,
      "d": 288.32103333333725,
      "v": 127
    },
    {
      "midi": 59,
      "hit": false,
      "t": 27448.892300000105,
      "d": 288.32103333333725,
      "v": 127
    },
    {
      "midi": 61,
      "hit": false,
      "t": 27454.36675000002,
      "d": 82.11675000000105,
      "v": 91
    },
    {
      "midi": 64,
      "hit": false,
      "t": 27454.36675000002,
      "d": 82.11675000000105,
      "v": 94
    },
    {
      "midi": 69,
      "hit": false,
      "t": 27454.36675000002,
      "d": 104.01454999999987,
      "v": 97
    },
    {
      "midi": 42,
      "hit": false,
      "t": 27481.739000000027,
      "d": 36.496333333332586,
      "v": 45
    },
    {
      "midi": 36,
      "hit": false,
      "t": 27591.22799999996,
      "d": 51.09486666666635,
      "v": 107
    },
    {
      "midi": 36,
      "hit": false,
      "t": 27591.22799999996,
      "d": 51.09486666666635,
      "v": 107
    },
    {
      "midi": 35,
      "hit": false,
      "t": 27591.22799999998,
      "d": 85.76638333333176,
      "v": 107
    },
    {
      "midi": 42,
      "hit": false,
      "t": 27591.22799999998,
      "d": 85.76638333333176,
      "v": 107
    },
    {
      "midi": 33,
      "hit": false,
      "t": 27591.228000000006,
      "d": 310.21883333333244,
      "v": 115
    },
    {
      "midi": 42,
      "hit": false,
      "t": 27591.228000000025,
      "d": 36.496333333332586,
      "v": 45
    },
    {
      "midi": 38,
      "hit": false,
      "t": 27591.228000000025,
      "d": 218.97799999999552,
      "v": 127
    },
    {
      "midi": 42,
      "hit": false,
      "t": 27591.22800000003,
      "d": 54.7445000000007,
      "v": 98
    },
    {
      "midi": 36,
      "hit": false,
      "t": 27591.22800000003,
      "d": 63.868583333332936,
      "v": 127
    },
    {
      "midi": 61,
      "hit": false,
      "t": 27594.87763333337,
      "d": 434.3063666666676,
      "v": 95
    },
    {
      "midi": 64,
      "hit": false,
      "t": 27600.35208333337,
      "d": 428.8319166666661,
      "v": 100
    },
    {
      "midi": 69,
      "hit": false,
      "t": 27600.35208333337,
      "d": 432.4815500000004,
      "v": 107
    },
    {
      "midi": 42,
      "hit": false,
      "t": 27700.717000000022,
      "d": 36.496333333332586,
      "v": 45
    },
    {
      "midi": 42,
      "hit": false,
      "t": 27700.71700000003,
      "d": 72.99266666666517,
      "v": 98
    },
    {
      "midi": 59,
      "hit": false,
      "t": 27740.862966666773,
      "d": 142.33569999999963,
      "v": 127
    },
    {
      "midi": 59,
      "hit": false,
      "t": 27740.862966666773,
      "d": 142.33569999999963,
      "v": 127
    },
    {
      "midi": 59,
      "hit": false,
      "t": 27740.862966666777,
      "d": 142.33569999999963,
      "v": 127
    },
    {
      "midi": 59,
      "hit": false,
      "t": 27740.862966666777,
      "d": 142.33569999999963,
      "v": 127
    },
    {
      "midi": 46,
      "hit": false,
      "t": 27810.20599999998,
      "d": 85.76638333333176,
      "v": 80
    },
    {
      "midi": 42,
      "hit": false,
      "t": 27810.20600000002,
      "d": 36.496333333332586,
      "v": 45
    },
    {
      "midi": 36,
      "hit": false,
      "t": 27810.20600000002,
      "d": 218.97799999999916,
      "v": 120
    },
    {
      "midi": 46,
      "hit": false,
      "t": 27810.206000000027,
      "d": 218.97799999999916,
      "v": 98
    },
    {
      "midi": 57,
      "hit": false,
      "t": 27886.848300000107,
      "d": 142.33569999999963,
      "v": 127
    },
    {
      "midi": 57,
      "hit": false,
      "t": 27886.848300000107,
      "d": 142.33569999999963,
      "v": 127
    },
    {
      "midi": 57,
      "hit": false,
      "t": 27886.84830000011,
      "d": 142.33569999999963,
      "v": 127
    },
    {
      "midi": 57,
      "hit": false,
      "t": 27886.84830000011,
      "d": 142.33569999999963,
      "v": 127
    },
    {
      "midi": 42,
      "hit": false,
      "t": 27919.695000000018,
      "d": 45.62041666666846,
      "v": 45
    },
    {
      "midi": 36,
      "hit": false,
      "t": 28029.183999999957,
      "d": 51.09486666666635,
      "v": 107
    },
    {
      "midi": 36,
      "hit": false,
      "t": 28029.183999999957,
      "d": 51.09486666666635,
      "v": 107
    },
    {
      "midi": 35,
      "hit": false,
      "t": 28029.18399999998,
      "d": 85.76638333333176,
      "v": 107
    },
    {
      "midi": 42,
      "hit": false,
      "t": 28029.18399999998,
      "d": 85.76638333333176,
      "v": 107
    },
    {
      "midi": 42,
      "hit": false,
      "t": 28029.18400000002,
      "d": 36.496333333332586,
      "v": 45
    },
    {
      "midi": 36,
      "hit": false,
      "t": 28029.18400000002,
      "d": 437.95599999999104,
      "v": 120
    },
    {
      "midi": 42,
      "hit": false,
      "t": 28029.184000000027,
      "d": 45.62041666666846,
      "v": 98
    },
    {
      "midi": 36,
      "hit": false,
      "t": 28029.184000000027,
      "d": 54.7445000000007,
      "v": 127
    },
    {
      "midi": 59,
      "hit": false,
      "t": 28032.83363333336,
      "d": 890.510533333334,
      "v": 97
    },
    {
      "midi": 40,
      "hit": false,
      "t": 28038.30808333334,
      "d": 277.3721333333342,
      "v": 116
    },
    {
      "midi": 61,
      "hit": false,
      "t": 28038.308083333373,
      "d": 428.8319166666661,
      "v": 97
    },
    {
      "midi": 64,
      "hit": false,
      "t": 28038.308083333373,
      "d": 428.8319166666661,
      "v": 100
    },
    {
      "midi": 67,
      "hit": false,
      "t": 28041.957716666664,
      "d": 1739.050283333334,
      "v": 127
    },
    {
      "midi": 67,
      "hit": false,
      "t": 28041.957716666708,
      "d": 425.1822833333317,
      "v": 103
    },
    {
      "midi": 59,
      "hit": false,
      "t": 28051.081800000018,
      "d": 270.0728666666655,
      "v": 91
    },
    {
      "midi": 64,
      "hit": false,
      "t": 28051.081800000018,
      "d": 270.0728666666655,
      "v": 92
    },
    {
      "midi": 67,
      "hit": false,
      "t": 28051.081800000018,
      "d": 270.0728666666655,
      "v": 93
    },
    {
      "midi": 71,
      "hit": false,
      "t": 28051.08180000003,
      "d": 872.2623666666659,
      "v": 97
    },
    {
      "midi": 53,
      "hit": false,
      "t": 28056.556250000107,
      "d": 286.49621666667736,
      "v": 127
    },
    {
      "midi": 53,
      "hit": false,
      "t": 28056.556250000107,
      "d": 286.49621666667736,
      "v": 127
    },
    {
      "midi": 53,
      "hit": false,
      "t": 28056.55625000011,
      "d": 286.49621666667736,
      "v": 127
    },
    {
      "midi": 53,
      "hit": false,
      "t": 28056.55625000011,
      "d": 286.49621666667736,
      "v": 127
    },
    {
      "midi": 42,
      "hit": false,
      "t": 28138.673000000017,
      "d": 36.496333333332586,
      "v": 45
    },
    {
      "midi": 42,
      "hit": false,
      "t": 28138.673000000028,
      "d": 63.868583333332936,
      "v": 98
    },
    {
      "midi": 46,
      "hit": false,
      "t": 28248.16199999998,
      "d": 85.76638333333176,
      "v": 80
    },
    {
      "midi": 42,
      "hit": false,
      "t": 28248.162000000015,
      "d": 36.496333333332586,
      "v": 45
    },
    {
      "midi": 46,
      "hit": false,
      "t": 28248.16200000003,
      "d": 218.97799999999916,
      "v": 98
    },
    {
      "midi": 59,
      "hit": false,
      "t": 28330.278750000016,
      "d": 149.63496666666833,
      "v": 88
    },
    {
      "midi": 64,
      "hit": false,
      "t": 28330.278750000016,
      "d": 167.88313333333645,
      "v": 93
    },
    {
      "midi": 67,
      "hit": false,
      "t": 28330.278750000016,
      "d": 173.35758333333797,
      "v": 91
    },
    {
      "midi": 42,
      "hit": false,
      "t": 28357.651000000013,
      "d": 36.496333333332586,
      "v": 45
    },
    {
      "midi": 36,
      "hit": false,
      "t": 28467.139999999956,
      "d": 51.09486666666635,
      "v": 107
    },
    {
      "midi": 36,
      "hit": false,
      "t": 28467.139999999956,
      "d": 51.09486666666635,
      "v": 107
    },
    {
      "midi": 35,
      "hit": false,
      "t": 28467.139999999978,
      "d": 85.76638333333176,
      "v": 107
    },
    {
      "midi": 42,
      "hit": false,
      "t": 28467.139999999978,
      "d": 85.76638333333176,
      "v": 107
    },
    {
      "midi": 33,
      "hit": false,
      "t": 28467.140000000007,
      "d": 328.46700000000055,
      "v": 116
    },
    {
      "midi": 42,
      "hit": false,
      "t": 28467.14000000001,
      "d": 45.62041666666846,
      "v": 45
    },
    {
      "midi": 38,
      "hit": false,
      "t": 28467.14000000001,
      "d": 328.4670000000042,
      "v": 127
    },
    {
      "midi": 42,
      "hit": false,
      "t": 28467.14000000003,
      "d": 45.62041666666846,
      "v": 98
    },
    {
      "midi": 36,
      "hit": false,
      "t": 28467.14000000003,
      "d": 54.7445000000007,
      "v": 127
    },
    {
      "midi": 61,
      "hit": false,
      "t": 28470.789633333374,
      "d": 434.3063666666676,
      "v": 94
    },
    {
      "midi": 64,
      "hit": false,
      "t": 28476.264083333375,
      "d": 428.8319166666661,
      "v": 103
    },
    {
      "midi": 67,
      "hit": false,
      "t": 28476.264083333375,
      "d": 428.8319166666661,
      "v": 103
    },
    {
      "midi": 52,
      "hit": false,
      "t": 28479.91371666679,
      "d": 279.196950000005,
      "v": 127
    },
    {
      "midi": 52,
      "hit": false,
      "t": 28479.91371666679,
      "d": 279.196950000005,
      "v": 127
    },
    {
      "midi": 52,
      "hit": false,
      "t": 28479.913716666793,
      "d": 279.196950000005,
      "v": 127
    },
    {
      "midi": 52,
      "hit": false,
      "t": 28479.913716666793,
      "d": 279.196950000005,
      "v": 127
    },
    {
      "midi": 42,
      "hit": false,
      "t": 28576.62900000001,
      "d": 45.62041666666846,
      "v": 45
    },
    {
      "midi": 42,
      "hit": false,
      "t": 28576.62900000003,
      "d": 63.868583333332936,
      "v": 98
    },
    {
      "midi": 46,
      "hit": false,
      "t": 28686.117999999977,
      "d": 85.76638333333176,
      "v": 80
    },
    {
      "midi": 42,
      "hit": false,
      "t": 28686.118000000013,
      "d": 45.62041666666846,
      "v": 45
    },
    {
      "midi": 46,
      "hit": false,
      "t": 28686.11800000003,
      "d": 218.97799999999916,
      "v": 98
    },
    {
      "midi": 52,
      "hit": false,
      "t": 28762.76030000013,
      "d": 142.33569999999963,
      "v": 127
    },
    {
      "midi": 52,
      "hit": false,
      "t": 28762.76030000013,
      "d": 142.33569999999963,
      "v": 127
    },
    {
      "midi": 52,
      "hit": false,
      "t": 28762.760300000133,
      "d": 142.33569999999963,
      "v": 127
    },
    {
      "midi": 52,
      "hit": false,
      "t": 28762.760300000133,
      "d": 142.33569999999963,
      "v": 127
    },
    {
      "midi": 42,
      "hit": false,
      "t": 28795.607000000015,
      "d": 45.62041666666846,
      "v": 45
    },
    {
      "midi": 36,
      "hit": false,
      "t": 28795.607000000015,
      "d": 109.4890000000014,
      "v": 120
    },
    {
      "midi": 36,
      "hit": false,
      "t": 28905.095999999954,
      "d": 51.09486666666635,
      "v": 107
    },
    {
      "midi": 36,
      "hit": false,
      "t": 28905.095999999954,
      "d": 51.09486666666635,
      "v": 107
    },
    {
      "midi": 35,
      "hit": false,
      "t": 28905.095999999976,
      "d": 85.76638333333176,
      "v": 107
    },
    {
      "midi": 42,
      "hit": false,
      "t": 28905.095999999976,
      "d": 85.76638333333176,
      "v": 107
    },
    {
      "midi": 40,
      "hit": false,
      "t": 28905.09600000001,
      "d": 291.97066666666797,
      "v": 116
    },
    {
      "midi": 42,
      "hit": false,
      "t": 28905.096000000016,
      "d": 45.62041666666846,
      "v": 45
    },
    {
      "midi": 36,
      "hit": false,
      "t": 28905.096000000016,
      "d": 218.9780000000028,
      "v": 120
    },
    {
      "midi": 42,
      "hit": false,
      "t": 28905.09600000003,
      "d": 45.62041666666846,
      "v": 98
    },
    {
      "midi": 36,
      "hit": false,
      "t": 28905.09600000003,
      "d": 63.868583333336574,
      "v": 127
    },
    {
      "midi": 61,
      "hit": false,
      "t": 28908.74563333336,
      "d": 145.98533333333398,
      "v": 97
    },
    {
      "midi": 61,
      "hit": false,
      "t": 28908.745633333376,
      "d": 434.3063666666676,
      "v": 100
    },
    {
      "midi": 64,
      "hit": false,
      "t": 28914.220083333377,
      "d": 428.8319166666661,
      "v": 106
    },
    {
      "midi": 69,
      "hit": false,
      "t": 28914.220083333377,
      "d": 428.8319166666661,
      "v": 100
    },
    {
      "midi": 73,
      "hit": false,
      "t": 28917.869716666693,
      "d": 142.33570000000327,
      "v": 97
    },
    {
      "midi": 57,
      "hit": false,
      "t": 28923.344166666688,
      "d": 273.72249999999985,
      "v": 94
    },
    {
      "midi": 61,
      "hit": false,
      "t": 28923.344166666688,
      "d": 273.72249999999985,
      "v": 95
    },
    {
      "midi": 64,
      "hit": false,
      "t": 28926.993800000022,
      "d": 270.0728666666655,
      "v": 95
    },
    {
      "midi": 49,
      "hit": false,
      "t": 28932.46825000013,
      "d": 127.73716666666587,
      "v": 127
    },
    {
      "midi": 49,
      "hit": false,
      "t": 28932.46825000013,
      "d": 127.73716666666587,
      "v": 127
    },
    {
      "midi": 49,
      "hit": false,
      "t": 28932.468250000133,
      "d": 127.73716666666587,
      "v": 127
    },
    {
      "midi": 49,
      "hit": false,
      "t": 28932.468250000133,
      "d": 127.73716666666587,
      "v": 127
    },
    {
      "midi": 42,
      "hit": false,
      "t": 29014.585000000017,
      "d": 45.62041666666846,
      "v": 45
    },
    {
      "midi": 42,
      "hit": false,
      "t": 29014.585000000036,
      "d": 63.868583333332936,
      "v": 98
    },
    {
      "midi": 59,
      "hit": false,
      "t": 29054.730966666695,
      "d": 155.10941666666986,
      "v": 97
    },
    {
      "midi": 71,
      "hit": false,
      "t": 29054.730966666695,
      "d": 155.10941666666986,
      "v": 97
    },
    {
      "midi": 48,
      "hit": false,
      "t": 29060.205416666795,
      "d": 155.10941666666622,
      "v": 127
    },
    {
      "midi": 48,
      "hit": false,
      "t": 29060.205416666795,
      "d": 155.10941666666622,
      "v": 127
    },
    {
      "midi": 48,
      "hit": false,
      "t": 29060.2054166668,
      "d": 155.10941666666622,
      "v": 127
    },
    {
      "midi": 48,
      "hit": false,
      "t": 29060.2054166668,
      "d": 155.10941666666622,
      "v": 127
    },
    {
      "midi": 46,
      "hit": false,
      "t": 29124.073999999975,
      "d": 85.76638333333176,
      "v": 80
    },
    {
      "midi": 42,
      "hit": false,
      "t": 29124.07400000002,
      "d": 45.62041666666846,
      "v": 45
    },
    {
      "midi": 36,
      "hit": false,
      "t": 29124.07400000002,
      "d": 218.97799999999916,
      "v": 120
    },
    {
      "midi": 46,
      "hit": false,
      "t": 29124.074000000037,
      "d": 218.97799999999916,
      "v": 98
    },
    {
      "midi": 57,
      "hit": false,
      "t": 29200.71630000003,
      "d": 160.58386666667138,
      "v": 97
    },
    {
      "midi": 69,
      "hit": false,
      "t": 29206.19075000003,
      "d": 155.10941666666986,
      "v": 97
    },
    {
      "midi": 57,
      "hit": false,
      "t": 29209.840383333354,
      "d": 160.58386666666775,
      "v": 90
    },
    {
      "midi": 61,
      "hit": false,
      "t": 29209.840383333354,
      "d": 160.58386666666775,
      "v": 93
    },
    {
      "midi": 64,
      "hit": false,
      "t": 29215.314833333356,
      "d": 127.73716666666587,
      "v": 93
    },
    {
      "midi": 49,
      "hit": false,
      "t": 29215.31483333346,
      "d": 149.63496666666833,
      "v": 127
    },
    {
      "midi": 49,
      "hit": false,
      "t": 29215.31483333346,
      "d": 149.63496666666833,
      "v": 127
    },
    {
      "midi": 49,
      "hit": false,
      "t": 29215.314833333465,
      "d": 149.63496666666833,
      "v": 127
    },
    {
      "midi": 49,
      "hit": false,
      "t": 29215.314833333465,
      "d": 149.63496666666833,
      "v": 127
    },
    {
      "midi": 42,
      "hit": false,
      "t": 29233.56300000002,
      "d": 36.496333333332586,
      "v": 45
    },
    {
      "midi": 36,
      "hit": false,
      "t": 29343.051999999952,
      "d": 51.09486666666635,
      "v": 107
    },
    {
      "midi": 36,
      "hit": false,
      "t": 29343.051999999952,
      "d": 51.09486666666635,
      "v": 107
    },
    {
      "midi": 35,
      "hit": false,
      "t": 29343.051999999974,
      "d": 85.76638333333176,
      "v": 107
    },
    {
      "midi": 42,
      "hit": false,
      "t": 29343.051999999974,
      "d": 85.76638333333176,
      "v": 107
    },
    {
      "midi": 42,
      "hit": false,
      "t": 29343.052000000018,
      "d": 36.496333333332586,
      "v": 45
    },
    {
      "midi": 38,
      "hit": false,
      "t": 29343.052000000018,
      "d": 218.97799999999552,
      "v": 127
    },
    {
      "midi": 42,
      "hit": false,
      "t": 29343.052000000036,
      "d": 54.7445000000007,
      "v": 98
    },
    {
      "midi": 36,
      "hit": false,
      "t": 29343.052000000036,
      "d": 63.868583333332936,
      "v": 127
    },
    {
      "midi": 33,
      "hit": false,
      "t": 29346.701633333345,
      "d": 288.3210333333336,
      "v": 115
    },
    {
      "midi": 64,
      "hit": false,
      "t": 29346.701633333367,
      "d": 145.98533333333398,
      "v": 97
    },
    {
      "midi": 61,
      "hit": false,
      "t": 29346.701633333378,
      "d": 434.3063666666676,
      "v": 95
    },
    {
      "midi": 64,
      "hit": false,
      "t": 29352.17608333338,
      "d": 428.8319166666661,
      "v": 100
    },
    {
      "midi": 76,
      "hit": false,
      "t": 29355.8257166667,
      "d": 136.86125000000175,
      "v": 97
    },
    {
      "midi": 69,
      "hit": false,
      "t": 29355.825716666714,
      "d": 428.8319166666661,
      "v": 107
    },
    {
      "midi": 50,
      "hit": false,
      "t": 29361.300166666795,
      "d": 136.86125000000175,
      "v": 127
    },
    {
      "midi": 50,
      "hit": false,
      "t": 29361.300166666795,
      "d": 136.86125000000175,
      "v": 127
    },
    {
      "midi": 50,
      "hit": false,
      "t": 29361.3001666668,
      "d": 136.86125000000175,
      "v": 127
    },
    {
      "midi": 50,
      "hit": false,
      "t": 29361.3001666668,
      "d": 136.86125000000175,
      "v": 127
    },
    {
      "midi": 42,
      "hit": false,
      "t": 29452.541000000016,
      "d": 36.496333333332586,
      "v": 45
    },
    {
      "midi": 42,
      "hit": false,
      "t": 29452.541000000037,
      "d": 72.99266666666517,
      "v": 98
    },
    {
      "midi": 62,
      "hit": false,
      "t": 29492.6869666667,
      "d": 155.10941666666986,
      "v": 97
    },
    {
      "midi": 74,
      "hit": false,
      "t": 29492.6869666667,
      "d": 155.10941666666986,
      "v": 97
    },
    {
      "midi": 52,
      "hit": false,
      "t": 29498.161416666797,
      "d": 155.10941666666986,
      "v": 127
    },
    {
      "midi": 52,
      "hit": false,
      "t": 29498.161416666797,
      "d": 155.10941666666986,
      "v": 127
    },
    {
      "midi": 52,
      "hit": false,
      "t": 29498.1614166668,
      "d": 155.10941666666986,
      "v": 127
    },
    {
      "midi": 52,
      "hit": false,
      "t": 29498.1614166668,
      "d": 155.10941666666986,
      "v": 127
    },
    {
      "midi": 46,
      "hit": false,
      "t": 29562.029999999973,
      "d": 85.76638333333176,
      "v": 80
    },
    {
      "midi": 46,
      "hit": false,
      "t": 29562.030000000013,
      "d": 45.62041666666846,
      "v": 45
    },
    {
      "midi": 36,
      "hit": false,
      "t": 29562.030000000013,
      "d": 218.9780000000028,
      "v": 120
    },
    {
      "midi": 46,
      "hit": false,
      "t": 29562.030000000035,
      "d": 218.97799999999916,
      "v": 98
    },
    {
      "midi": 61,
      "hit": false,
      "t": 29638.672300000035,
      "d": 151.4597833333355,
      "v": 97
    },
    {
      "midi": 73,
      "hit": false,
      "t": 29644.146750000036,
      "d": 145.98533333333398,
      "v": 97
    },
    {
      "midi": 50,
      "hit": false,
      "t": 29647.796383333465,
      "d": 1912.4078666666755,
      "v": 127
    },
    {
      "midi": 50,
      "hit": false,
      "t": 29647.796383333465,
      "d": 1912.4078666666755,
      "v": 127
    },
    {
      "midi": 50,
      "hit": false,
      "t": 29647.79638333347,
      "d": 1912.4078666666755,
      "v": 127
    },
    {
      "midi": 50,
      "hit": false,
      "t": 29647.79638333347,
      "d": 1912.4078666666755,
      "v": 127
    },
    {
      "midi": 36,
      "hit": false,
      "t": 29671.518999999953,
      "d": 51.09486666666635,
      "v": 67
    },
    {
      "midi": 36,
      "hit": false,
      "t": 29671.518999999953,
      "d": 51.09486666666635,
      "v": 67
    },
    {
      "midi": 35,
      "hit": false,
      "t": 29671.51899999997,
      "d": 85.76638333333176,
      "v": 97
    },
    {
      "midi": 42,
      "hit": false,
      "t": 29671.51899999997,
      "d": 85.76638333333176,
      "v": 107
    },
    {
      "midi": 36,
      "hit": false,
      "t": 29781.007999999954,
      "d": 51.09486666666635,
      "v": 107
    },
    {
      "midi": 36,
      "hit": false,
      "t": 29781.007999999954,
      "d": 51.09486666666635,
      "v": 107
    },
    {
      "midi": 35,
      "hit": false,
      "t": 29781.00799999997,
      "d": 85.76638333333176,
      "v": 107
    },
    {
      "midi": 42,
      "hit": false,
      "t": 29781.00799999997,
      "d": 85.76638333333176,
      "v": 107
    },
    {
      "midi": 50,
      "hit": false,
      "t": 29781.007999999987,
      "d": 131.38680000000022,
      "v": 119
    },
    {
      "midi": 42,
      "hit": false,
      "t": 29781.008000000016,
      "d": 36.496333333332586,
      "v": 45
    },
    {
      "midi": 36,
      "hit": false,
      "t": 29781.008000000016,
      "d": 437.95600000000195,
      "v": 120
    },
    {
      "midi": 42,
      "hit": false,
      "t": 29781.008000000034,
      "d": 45.62041666666846,
      "v": 98
    },
    {
      "midi": 36,
      "hit": false,
      "t": 29781.008000000034,
      "d": 54.7445000000007,
      "v": 127
    },
    {
      "midi": 62,
      "hit": false,
      "t": 29790.13208333337,
      "d": 291.97066666666797,
      "v": 97
    },
    {
      "midi": 62,
      "hit": false,
      "t": 29793.781716666665,
      "d": 1739.050283333334,
      "v": 127
    },
    {
      "midi": 38,
      "hit": false,
      "t": 29793.78171666668,
      "d": 279.1969500000014,
      "v": 115
    },
    {
      "midi": 62,
      "hit": false,
      "t": 29793.781716666712,
      "d": 425.18228333333536,
      "v": 94
    },
    {
      "midi": 66,
      "hit": false,
      "t": 29793.781716666712,
      "d": 425.18228333333536,
      "v": 93
    },
    {
      "midi": 69,
      "hit": false,
      "t": 29799.256166666713,
      "d": 423.3574666666682,
      "v": 100
    },
    {
      "midi": 57,
      "hit": false,
      "t": 29808.38025000002,
      "d": 264.5984166666676,
      "v": 98
    },
    {
      "midi": 74,
      "hit": false,
      "t": 29808.38025000004,
      "d": 277.3721333333342,
      "v": 97
    },
    {
      "midi": 62,
      "hit": false,
      "t": 29812.029883333355,
      "d": 260.94878333333327,
      "v": 98
    },
    {
      "midi": 66,
      "hit": false,
      "t": 29812.029883333355,
      "d": 260.94878333333327,
      "v": 98
    },
    {
      "midi": 42,
      "hit": false,
      "t": 29890.497000000014,
      "d": 45.62041666666846,
      "v": 45
    },
    {
      "midi": 42,
      "hit": false,
      "t": 29890.497000000036,
      "d": 63.868583333332936,
      "v": 98
    },
    {
      "midi": 46,
      "hit": false,
      "t": 29999.985999999968,
      "d": 85.76638333333176,
      "v": 80
    },
    {
      "midi": 42,
      "hit": false,
      "t": 29999.986000000015,
      "d": 45.62041666666846,
      "v": 45
    },
    {
      "midi": 46,
      "hit": false,
      "t": 29999.986000000037,
      "d": 218.97799999999916,
      "v": 98
    },
    {
      "midi": 57,
      "hit": false,
      "t": 30076.628300000037,
      "d": 160.58386666667138,
      "v": 97
    },
    {
      "midi": 69,
      "hit": false,
      "t": 30082.10275000004,
      "d": 158.7590500000042,
      "v": 97
    },
    {
      "midi": 62,
      "hit": false,
      "t": 30085.752383333354,
      "d": 133.2116166666674,
      "v": 90
    },
    {
      "midi": 57,
      "hit": false,
      "t": 30085.752383333354,
      "d": 155.10941666666622,
      "v": 86
    },
    {
      "midi": 66,
      "hit": false,
      "t": 30091.226833333356,
      "d": 127.73716666666587,
      "v": 92
    },
    {
      "midi": 42,
      "hit": false,
      "t": 30109.475000000017,
      "d": 45.62041666666846,
      "v": 45
    },
    {
      "midi": 38,
      "hit": false,
      "t": 30213.489549999988,
      "d": 173.35758333333433,
      "v": 124
    },
    {
      "midi": 36,
      "hit": false,
      "t": 30218.963999999953,
      "d": 51.09486666666635,
      "v": 107
    },
    {
      "midi": 36,
      "hit": false,
      "t": 30218.963999999953,
      "d": 51.09486666666635,
      "v": 107
    },
    {
      "midi": 35,
      "hit": false,
      "t": 30218.963999999967,
      "d": 85.76638333333176,
      "v": 107
    },
    {
      "midi": 42,
      "hit": false,
      "t": 30218.963999999967,
      "d": 85.76638333333176,
      "v": 107
    },
    {
      "midi": 42,
      "hit": false,
      "t": 30218.964000000018,
      "d": 45.62041666666846,
      "v": 45
    },
    {
      "midi": 38,
      "hit": false,
      "t": 30218.964000000018,
      "d": 437.9560000000056,
      "v": 127
    },
    {
      "midi": 42,
      "hit": false,
      "t": 30218.964000000036,
      "d": 45.62041666666846,
      "v": 98
    },
    {
      "midi": 36,
      "hit": false,
      "t": 30218.964000000036,
      "d": 54.7445000000007,
      "v": 127
    },
    {
      "midi": 66,
      "hit": false,
      "t": 30222.613633333374,
      "d": 297.4451166666695,
      "v": 97
    },
    {
      "midi": 38,
      "hit": false,
      "t": 30228.088083333347,
      "d": 328.46700000000055,
      "v": 116
    },
    {
      "midi": 62,
      "hit": false,
      "t": 30228.088083333383,
      "d": 428.8319166666661,
      "v": 100
    },
    {
      "midi": 66,
      "hit": false,
      "t": 30228.088083333383,
      "d": 428.8319166666661,
      "v": 98
    },
    {
      "midi": 69,
      "hit": false,
      "t": 30231.737716666717,
      "d": 425.1822833333317,
      "v": 107
    },
    {
      "midi": 78,
      "hit": false,
      "t": 30237.212166666708,
      "d": 282.84658333333573,
      "v": 97
    },
    {
      "midi": 42,
      "hit": false,
      "t": 30328.45300000002,
      "d": 45.62041666666846,
      "v": 45
    },
    {
      "midi": 42,
      "hit": false,
      "t": 30328.453000000038,
      "d": 63.868583333332936,
      "v": 98
    },
    {
      "midi": 46,
      "hit": false,
      "t": 30437.941999999966,
      "d": 85.76638333333176,
      "v": 80
    },
    {
      "midi": 42,
      "hit": false,
      "t": 30437.94200000002,
      "d": 45.62041666666846,
      "v": 45
    },
    {
      "midi": 46,
      "hit": false,
      "t": 30437.94200000004,
      "d": 218.97799999999916,
      "v": 98
    },
    {
      "midi": 64,
      "hit": false,
      "t": 30514.584300000042,
      "d": 160.58386666666775,
      "v": 97
    },
    {
      "midi": 76,
      "hit": false,
      "t": 30520.058750000044,
      "d": 155.10941666666622,
      "v": 97
    },
    {
      "midi": 66,
      "hit": false,
      "t": 30523.708383333353,
      "d": 109.4890000000014,
      "v": 93
    },
    {
      "midi": 62,
      "hit": false,
      "t": 30523.708383333353,
      "d": 118.61308333333363,
      "v": 91
    },
    {
      "midi": 57,
      "hit": false,
      "t": 30523.708383333353,
      "d": 133.2116166666674,
      "v": 89
    },
    {
      "midi": 42,
      "hit": false,
      "t": 30547.431000000022,
      "d": 45.62041666666846,
      "v": 45
    },
    {
      "midi": 36,
      "hit": false,
      "t": 30547.431000000022,
      "d": 109.4890000000014,
      "v": 120
    },
    {
      "midi": 40,
      "hit": false,
      "t": 30647.795916666655,
      "d": 191.6057499999988,
      "v": 119
    },
    {
      "midi": 36,
      "hit": false,
      "t": 30656.91999999995,
      "d": 51.09486666666635,
      "v": 107
    },
    {
      "midi": 36,
      "hit": false,
      "t": 30656.91999999995,
      "d": 51.09486666666635,
      "v": 107
    },
    {
      "midi": 35,
      "hit": false,
      "t": 30656.919999999966,
      "d": 85.76638333333176,
      "v": 107
    },
    {
      "midi": 42,
      "hit": false,
      "t": 30656.919999999966,
      "d": 85.76638333333176,
      "v": 107
    },
    {
      "midi": 42,
      "hit": false,
      "t": 30656.920000000024,
      "d": 45.62041666666846,
      "v": 45
    },
    {
      "midi": 36,
      "hit": false,
      "t": 30656.920000000024,
      "d": 218.9780000000028,
      "v": 120
    },
    {
      "midi": 42,
      "hit": false,
      "t": 30656.92000000004,
      "d": 45.62041666666846,
      "v": 98
    },
    {
      "midi": 36,
      "hit": false,
      "t": 30656.92000000004,
      "d": 54.7445000000007,
      "v": 127
    },
    {
      "midi": 40,
      "hit": false,
      "t": 30660.569633333347,
      "d": 306.56920000000173,
      "v": 118
    },
    {
      "midi": 62,
      "hit": false,
      "t": 30660.569633333376,
      "d": 297.4451166666695,
      "v": 97
    },
    {
      "midi": 62,
      "hit": false,
      "t": 30660.569633333384,
      "d": 434.3063666666676,
      "v": 95
    },
    {
      "midi": 66,
      "hit": false,
      "t": 30666.044083333385,
      "d": 428.8319166666661,
      "v": 94
    },
    {
      "midi": 69,
      "hit": false,
      "t": 30666.044083333385,
      "d": 428.8319166666661,
      "v": 106
    },
    {
      "midi": 74,
      "hit": false,
      "t": 30675.16816666671,
      "d": 282.84658333333573,
      "v": 97
    },
    {
      "midi": 42,
      "hit": false,
      "t": 30766.409000000025,
      "d": 45.62041666666846,
      "v": 45
    },
    {
      "midi": 42,
      "hit": false,
      "t": 30766.40900000004,
      "d": 63.868583333332936,
      "v": 98
    },
    {
      "midi": 46,
      "hit": false,
      "t": 30875.897999999965,
      "d": 85.76638333333176,
      "v": 80
    },
    {
      "midi": 42,
      "hit": false,
      "t": 30875.898000000027,
      "d": 45.62041666666846,
      "v": 45
    },
    {
      "midi": 36,
      "hit": false,
      "t": 30875.898000000027,
      "d": 218.9780000000028,
      "v": 120
    },
    {
      "midi": 46,
      "hit": false,
      "t": 30875.89800000004,
      "d": 218.97799999999916,
      "v": 98
    },
    {
      "midi": 64,
      "hit": false,
      "t": 30952.540300000044,
      "d": 160.58386666666775,
      "v": 97
    },
    {
      "midi": 76,
      "hit": false,
      "t": 30958.014750000046,
      "d": 155.10941666666622,
      "v": 97
    },
    {
      "midi": 66,
      "hit": false,
      "t": 30961.664383333355,
      "d": 109.4890000000014,
      "v": 92
    },
    {
      "midi": 57,
      "hit": false,
      "t": 30961.664383333355,
      "d": 127.73716666666951,
      "v": 88
    },
    {
      "midi": 62,
      "hit": false,
      "t": 30961.664383333355,
      "d": 133.21161666667103,
      "v": 91
    },
    {
      "midi": 42,
      "hit": false,
      "t": 30985.387000000028,
      "d": 45.62041666666846,
      "v": 45
    },
    {
      "midi": 42,
      "hit": false,
      "t": 31085.751916666653,
      "d": 195.25538333333316,
      "v": 124
    },
    {
      "midi": 36,
      "hit": false,
      "t": 31094.87599999995,
      "d": 51.09486666666635,
      "v": 107
    },
    {
      "midi": 36,
      "hit": false,
      "t": 31094.87599999995,
      "d": 51.09486666666635,
      "v": 107
    },
    {
      "midi": 35,
      "hit": false,
      "t": 31094.875999999964,
      "d": 85.76638333333176,
      "v": 107
    },
    {
      "midi": 42,
      "hit": false,
      "t": 31094.875999999964,
      "d": 85.76638333333176,
      "v": 107
    },
    {
      "midi": 42,
      "hit": false,
      "t": 31094.87600000003,
      "d": 45.62041666666846,
      "v": 45
    },
    {
      "midi": 38,
      "hit": false,
      "t": 31094.87600000003,
      "d": 218.9780000000028,
      "v": 127
    },
    {
      "midi": 42,
      "hit": false,
      "t": 31094.87600000004,
      "d": 54.7445000000007,
      "v": 98
    },
    {
      "midi": 36,
      "hit": false,
      "t": 31094.87600000004,
      "d": 54.7445000000007,
      "v": 127
    },
    {
      "midi": 42,
      "hit": false,
      "t": 31098.52563333335,
      "d": 297.44511666666585,
      "v": 115
    },
    {
      "midi": 66,
      "hit": false,
      "t": 31098.52563333338,
      "d": 151.4597833333355,
      "v": 97
    },
    {
      "midi": 62,
      "hit": false,
      "t": 31098.525633333385,
      "d": 434.3063666666676,
      "v": 103
    },
    {
      "midi": 66,
      "hit": false,
      "t": 31104.000083333387,
      "d": 428.8319166666661,
      "v": 103
    },
    {
      "midi": 69,
      "hit": false,
      "t": 31104.000083333387,
      "d": 428.8319166666661,
      "v": 107
    },
    {
      "midi": 78,
      "hit": false,
      "t": 31107.64971666671,
      "d": 142.33570000000327,
      "v": 97
    },
    {
      "midi": 42,
      "hit": false,
      "t": 31204.36500000003,
      "d": 45.62041666666846,
      "v": 45
    },
    {
      "midi": 42,
      "hit": false,
      "t": 31204.36500000004,
      "d": 72.99266666666517,
      "v": 98
    },
    {
      "midi": 67,
      "hit": false,
      "t": 31244.510966666712,
      "d": 151.4597833333355,
      "v": 97
    },
    {
      "midi": 79,
      "hit": false,
      "t": 31244.510966666712,
      "d": 151.4597833333355,
      "v": 97
    },
    {
      "midi": 46,
      "hit": false,
      "t": 31313.853999999963,
      "d": 85.76638333333176,
      "v": 80
    },
    {
      "midi": 42,
      "hit": false,
      "t": 31313.854000000032,
      "d": 36.496333333332586,
      "v": 45
    },
    {
      "midi": 36,
      "hit": false,
      "t": 31313.854000000032,
      "d": 218.97799999999552,
      "v": 120
    },
    {
      "midi": 46,
      "hit": false,
      "t": 31313.85400000004,
      "d": 218.97799999999916,
      "v": 98
    },
    {
      "midi": 69,
      "hit": false,
      "t": 31390.496300000046,
      "d": 105.83936666666705,
      "v": 97
    },
    {
      "midi": 57,
      "hit": false,
      "t": 31395.970750000026,
      "d": 100.36491666666916,
      "v": 91
    },
    {
      "midi": 81,
      "hit": false,
      "t": 31395.970750000048,
      "d": 100.36491666666552,
      "v": 97
    },
    {
      "midi": 62,
      "hit": false,
      "t": 31399.62038333336,
      "d": 109.4890000000014,
      "v": 92
    },
    {
      "midi": 66,
      "hit": false,
      "t": 31399.62038333336,
      "d": 118.61308333333363,
      "v": 93
    },
    {
      "midi": 42,
      "hit": false,
      "t": 31423.34300000003,
      "d": 36.496333333332586,
      "v": 45
    },
    {
      "midi": 36,
      "hit": false,
      "t": 31532.831999999948,
      "d": 51.09486666666635,
      "v": 107
    },
    {
      "midi": 36,
      "hit": false,
      "t": 31532.831999999948,
      "d": 51.09486666666635,
      "v": 107
    },
    {
      "midi": 35,
      "hit": false,
      "t": 31532.831999999962,
      "d": 85.76638333333176,
      "v": 107
    },
    {
      "midi": 42,
      "hit": false,
      "t": 31532.831999999962,
      "d": 85.76638333333176,
      "v": 107
    },
    {
      "midi": 43,
      "hit": false,
      "t": 31532.831999999988,
      "d": 136.86125000000175,
      "v": 127
    },
    {
      "midi": 36,
      "hit": false,
      "t": 31532.832000000028,
      "d": 0,
      "v": 120
    },
    {
      "midi": 42,
      "hit": false,
      "t": 31532.832000000028,
      "d": 36.496333333332586,
      "v": 45
    },
    {
      "midi": 42,
      "hit": false,
      "t": 31532.83200000004,
      "d": 45.62041666666846,
      "v": 98
    },
    {
      "midi": 36,
      "hit": false,
      "t": 31532.83200000004,
      "d": 54.7445000000007,
      "v": 127
    },
    {
      "midi": 74,
      "hit": false,
      "t": 31541.956083333323,
      "d": 2631.385633333339,
      "v": 118
    },
    {
      "midi": 43,
      "hit": false,
      "t": 31541.95608333335,
      "d": 273.72249999999985,
      "v": 116
    },
    {
      "midi": 62,
      "hit": false,
      "t": 31541.956083333385,
      "d": 428.8319166666661,
      "v": 98
    },
    {
      "midi": 67,
      "hit": false,
      "t": 31541.956083333385,
      "d": 428.8319166666661,
      "v": 98
    },
    {
      "midi": 71,
      "hit": false,
      "t": 31545.60571666672,
      "d": 425.1822833333317,
      "v": 98
    },
    {
      "midi": 59,
      "hit": false,
      "t": 31551.080166666692,
      "d": 273.72249999999985,
      "v": 93
    },
    {
      "midi": 62,
      "hit": false,
      "t": 31551.080166666692,
      "d": 273.72249999999985,
      "v": 94
    },
    {
      "midi": 67,
      "hit": false,
      "t": 31554.729800000026,
      "d": 270.0728666666655,
      "v": 100
    },
    {
      "midi": 49,
      "hit": false,
      "t": 31560.204250000028,
      "d": 1085.7659166666708,
      "v": 127
    },
    {
      "midi": 58,
      "hit": false,
      "t": 31560.20425000014,
      "d": 21.897799999998824,
      "v": 127
    },
    {
      "midi": 58,
      "hit": false,
      "t": 31560.20425000014,
      "d": 21.897799999998824,
      "v": 127
    },
    {
      "midi": 58,
      "hit": false,
      "t": 31560.204250000144,
      "d": 21.897799999998824,
      "v": 127
    },
    {
      "midi": 58,
      "hit": false,
      "t": 31560.204250000144,
      "d": 21.897799999998824,
      "v": 127
    },
    {
      "midi": 59,
      "hit": false,
      "t": 31582.10205000014,
      "d": 273.72249999999985,
      "v": 127
    },
    {
      "midi": 59,
      "hit": false,
      "t": 31582.10205000014,
      "d": 273.72249999999985,
      "v": 127
    },
    {
      "midi": 59,
      "hit": false,
      "t": 31582.102050000143,
      "d": 273.72249999999985,
      "v": 127
    },
    {
      "midi": 59,
      "hit": false,
      "t": 31582.102050000143,
      "d": 273.72249999999985,
      "v": 127
    },
    {
      "midi": 42,
      "hit": false,
      "t": 31642.321000000025,
      "d": 45.62041666666846,
      "v": 45
    },
    {
      "midi": 42,
      "hit": false,
      "t": 31642.32100000004,
      "d": 63.868583333332936,
      "v": 98
    },
    {
      "midi": 46,
      "hit": false,
      "t": 31751.80999999996,
      "d": 85.76638333333176,
      "v": 80
    },
    {
      "midi": 42,
      "hit": false,
      "t": 31751.810000000027,
      "d": 45.62041666666846,
      "v": 45
    },
    {
      "midi": 46,
      "hit": false,
      "t": 31751.81000000004,
      "d": 218.97799999999916,
      "v": 98
    },
    {
      "midi": 59,
      "hit": false,
      "t": 31833.926750000024,
      "d": 131.38680000000022,
      "v": 93
    },
    {
      "midi": 62,
      "hit": false,
      "t": 31833.926750000024,
      "d": 136.86125000000175,
      "v": 98
    },
    {
      "midi": 67,
      "hit": false,
      "t": 31837.57638333336,
      "d": 133.2116166666674,
      "v": 103
    },
    {
      "midi": 42,
      "hit": false,
      "t": 31861.299000000028,
      "d": 45.62041666666846,
      "v": 45
    },
    {
      "midi": 36,
      "hit": false,
      "t": 31970.787999999946,
      "d": 51.09486666666635,
      "v": 107
    },
    {
      "midi": 36,
      "hit": false,
      "t": 31970.787999999946,
      "d": 51.09486666666635,
      "v": 107
    },
    {
      "midi": 35,
      "hit": false,
      "t": 31970.78799999996,
      "d": 85.76638333333176,
      "v": 107
    },
    {
      "midi": 42,
      "hit": false,
      "t": 31970.78799999996,
      "d": 85.76638333333176,
      "v": 107
    },
    {
      "midi": 42,
      "hit": false,
      "t": 31970.78800000003,
      "d": 45.62041666666846,
      "v": 45
    },
    {
      "midi": 38,
      "hit": false,
      "t": 31970.78800000003,
      "d": 437.9559999999983,
      "v": 127
    },
    {
      "midi": 42,
      "hit": false,
      "t": 31970.78800000004,
      "d": 45.62041666666846,
      "v": 98
    },
    {
      "midi": 36,
      "hit": false,
      "t": 31970.78800000004,
      "d": 54.7445000000007,
      "v": 127
    },
    {
      "midi": 43,
      "hit": false,
      "t": 31974.43763333335,
      "d": 270.0728666666655,
      "v": 118
    },
    {
      "midi": 62,
      "hit": false,
      "t": 31974.437633333386,
      "d": 434.3063666666676,
      "v": 95
    },
    {
      "midi": 67,
      "hit": false,
      "t": 31979.912083333387,
      "d": 428.8319166666661,
      "v": 98
    },
    {
      "midi": 71,
      "hit": false,
      "t": 31979.912083333387,
      "d": 428.8319166666661,
      "v": 100
    },
    {
      "midi": 58,
      "hit": false,
      "t": 31983.561716666805,
      "d": 36.496333333332586,
      "v": 127
    },
    {
      "midi": 58,
      "hit": false,
      "t": 31983.561716666805,
      "d": 36.496333333332586,
      "v": 127
    },
    {
      "midi": 58,
      "hit": false,
      "t": 31983.56171666681,
      "d": 36.496333333332586,
      "v": 127
    },
    {
      "midi": 58,
      "hit": false,
      "t": 31983.56171666681,
      "d": 36.496333333332586,
      "v": 127
    },
    {
      "midi": 59,
      "hit": false,
      "t": 32020.058050000138,
      "d": 242.70061666666516,
      "v": 127
    },
    {
      "midi": 59,
      "hit": false,
      "t": 32020.058050000138,
      "d": 242.70061666666516,
      "v": 127
    },
    {
      "midi": 59,
      "hit": false,
      "t": 32020.05805000014,
      "d": 242.70061666666516,
      "v": 127
    },
    {
      "midi": 59,
      "hit": false,
      "t": 32020.05805000014,
      "d": 242.70061666666516,
      "v": 127
    },
    {
      "midi": 42,
      "hit": false,
      "t": 32080.27700000003,
      "d": 36.496333333332586,
      "v": 45
    },
    {
      "midi": 42,
      "hit": false,
      "t": 32080.277000000042,
      "d": 63.868583333332936,
      "v": 98
    },
    {
      "midi": 46,
      "hit": false,
      "t": 32189.76599999996,
      "d": 85.76638333333176,
      "v": 80
    },
    {
      "midi": 42,
      "hit": false,
      "t": 32189.76600000003,
      "d": 36.496333333332586,
      "v": 45
    },
    {
      "midi": 46,
      "hit": false,
      "t": 32189.766000000043,
      "d": 218.97799999999916,
      "v": 98
    },
    {
      "midi": 57,
      "hit": false,
      "t": 32266.408300000137,
      "d": 160.58386666666775,
      "v": 127
    },
    {
      "midi": 57,
      "hit": false,
      "t": 32266.408300000137,
      "d": 160.58386666666775,
      "v": 127
    },
    {
      "midi": 57,
      "hit": false,
      "t": 32266.40830000014,
      "d": 160.58386666666775,
      "v": 127
    },
    {
      "midi": 57,
      "hit": false,
      "t": 32266.40830000014,
      "d": 160.58386666666775,
      "v": 127
    },
    {
      "midi": 42,
      "hit": false,
      "t": 32299.255000000026,
      "d": 45.62041666666846,
      "v": 45
    },
    {
      "midi": 36,
      "hit": false,
      "t": 32299.255000000026,
      "d": 109.4890000000014,
      "v": 120
    },
    {
      "midi": 36,
      "hit": false,
      "t": 32408.743999999944,
      "d": 51.09486666666635,
      "v": 107
    },
    {
      "midi": 36,
      "hit": false,
      "t": 32408.743999999944,
      "d": 51.09486666666635,
      "v": 107
    },
    {
      "midi": 35,
      "hit": false,
      "t": 32408.74399999996,
      "d": 85.76638333333176,
      "v": 107
    },
    {
      "midi": 42,
      "hit": false,
      "t": 32408.74399999996,
      "d": 85.76638333333176,
      "v": 107
    },
    {
      "midi": 38,
      "hit": false,
      "t": 32408.744000000013,
      "d": 291.97066666666797,
      "v": 115
    },
    {
      "midi": 42,
      "hit": false,
      "t": 32408.744000000028,
      "d": 45.62041666666846,
      "v": 45
    },
    {
      "midi": 36,
      "hit": false,
      "t": 32408.744000000028,
      "d": 218.9780000000028,
      "v": 120
    },
    {
      "midi": 42,
      "hit": false,
      "t": 32408.744000000042,
      "d": 45.62041666666846,
      "v": 98
    },
    {
      "midi": 36,
      "hit": false,
      "t": 32408.744000000042,
      "d": 72.99266666666881,
      "v": 127
    },
    {
      "midi": 62,
      "hit": false,
      "t": 32412.393633333388,
      "d": 434.3063666666676,
      "v": 94
    },
    {
      "midi": 66,
      "hit": false,
      "t": 32417.86808333339,
      "d": 428.8319166666661,
      "v": 100
    },
    {
      "midi": 69,
      "hit": false,
      "t": 32417.86808333339,
      "d": 428.8319166666661,
      "v": 98
    },
    {
      "midi": 57,
      "hit": false,
      "t": 32421.51771666669,
      "d": 279.1969500000014,
      "v": 98
    },
    {
      "midi": 62,
      "hit": false,
      "t": 32421.51771666669,
      "d": 279.1969500000014,
      "v": 92
    },
    {
      "midi": 66,
      "hit": false,
      "t": 32421.51771666669,
      "d": 279.1969500000014,
      "v": 98
    },
    {
      "midi": 55,
      "hit": false,
      "t": 32426.992166666805,
      "d": 131.38680000000022,
      "v": 127
    },
    {
      "midi": 55,
      "hit": false,
      "t": 32426.992166666805,
      "d": 131.38680000000022,
      "v": 127
    },
    {
      "midi": 55,
      "hit": false,
      "t": 32426.99216666681,
      "d": 131.38680000000022,
      "v": 127
    },
    {
      "midi": 55,
      "hit": false,
      "t": 32426.99216666681,
      "d": 131.38680000000022,
      "v": 127
    },
    {
      "midi": 42,
      "hit": false,
      "t": 32518.23300000003,
      "d": 45.62041666666846,
      "v": 45
    },
    {
      "midi": 42,
      "hit": false,
      "t": 32518.233000000044,
      "d": 63.868583333332936,
      "v": 98
    },
    {
      "midi": 57,
      "hit": false,
      "t": 32558.378966666805,
      "d": 155.10941666666622,
      "v": 127
    },
    {
      "midi": 57,
      "hit": false,
      "t": 32558.378966666805,
      "d": 155.10941666666622,
      "v": 127
    },
    {
      "midi": 57,
      "hit": false,
      "t": 32558.37896666681,
      "d": 155.10941666666622,
      "v": 127
    },
    {
      "midi": 57,
      "hit": false,
      "t": 32558.37896666681,
      "d": 155.10941666666622,
      "v": 127
    },
    {
      "midi": 46,
      "hit": false,
      "t": 32627.721999999958,
      "d": 85.76638333333176,
      "v": 80
    },
    {
      "midi": 42,
      "hit": false,
      "t": 32627.72200000003,
      "d": 36.496333333336224,
      "v": 45
    },
    {
      "midi": 36,
      "hit": false,
      "t": 32627.72200000003,
      "d": 218.9780000000028,
      "v": 120
    },
    {
      "midi": 46,
      "hit": false,
      "t": 32627.722000000045,
      "d": 218.9780000000028,
      "v": 98
    },
    {
      "midi": 57,
      "hit": false,
      "t": 32709.838750000024,
      "d": 136.86125000000175,
      "v": 95
    },
    {
      "midi": 66,
      "hit": false,
      "t": 32709.838750000024,
      "d": 149.63496666667197,
      "v": 98
    },
    {
      "midi": 62,
      "hit": false,
      "t": 32709.838750000024,
      "d": 155.1094166666735,
      "v": 91
    },
    {
      "midi": 59,
      "hit": false,
      "t": 32713.48838333347,
      "d": 151.4597833333355,
      "v": 127
    },
    {
      "midi": 59,
      "hit": false,
      "t": 32713.48838333347,
      "d": 151.4597833333355,
      "v": 127
    },
    {
      "midi": 59,
      "hit": false,
      "t": 32713.488383333475,
      "d": 151.45978333333187,
      "v": 127
    },
    {
      "midi": 59,
      "hit": false,
      "t": 32713.488383333475,
      "d": 151.45978333333187,
      "v": 127
    },
    {
      "midi": 42,
      "hit": false,
      "t": 32737.211000000032,
      "d": 36.496333333336224,
      "v": 45
    },
    {
      "midi": 36,
      "hit": false,
      "t": 32846.699999999946,
      "d": 51.09486666666635,
      "v": 107
    },
    {
      "midi": 36,
      "hit": false,
      "t": 32846.699999999946,
      "d": 51.09486666666635,
      "v": 107
    },
    {
      "midi": 35,
      "hit": false,
      "t": 32846.69999999995,
      "d": 85.7663833333354,
      "v": 107
    },
    {
      "midi": 42,
      "hit": false,
      "t": 32846.69999999995,
      "d": 85.7663833333354,
      "v": 107
    },
    {
      "midi": 42,
      "hit": false,
      "t": 32846.70000000003,
      "d": 36.496333333336224,
      "v": 45
    },
    {
      "midi": 38,
      "hit": false,
      "t": 32846.70000000003,
      "d": 218.9780000000028,
      "v": 127
    },
    {
      "midi": 42,
      "hit": false,
      "t": 32846.70000000005,
      "d": 54.7445000000007,
      "v": 98
    },
    {
      "midi": 36,
      "hit": false,
      "t": 32846.70000000005,
      "d": 63.868583333336574,
      "v": 127
    },
    {
      "midi": 38,
      "hit": false,
      "t": 32850.349633333346,
      "d": 279.19694999999774,
      "v": 116
    },
    {
      "midi": 62,
      "hit": false,
      "t": 32850.34963333339,
      "d": 434.30636666667124,
      "v": 97
    },
    {
      "midi": 66,
      "hit": false,
      "t": 32855.82408333339,
      "d": 428.8319166666697,
      "v": 100
    },
    {
      "midi": 69,
      "hit": false,
      "t": 32855.82408333339,
      "d": 428.8319166666697,
      "v": 100
    },
    {
      "midi": 57,
      "hit": false,
      "t": 32859.473716666806,
      "d": 425.1822833333281,
      "v": 127
    },
    {
      "midi": 57,
      "hit": false,
      "t": 32859.473716666806,
      "d": 425.1822833333281,
      "v": 127
    },
    {
      "midi": 57,
      "hit": false,
      "t": 32859.473716666806,
      "d": 425.1822833333281,
      "v": 127
    },
    {
      "midi": 57,
      "hit": false,
      "t": 32859.473716666806,
      "d": 425.1822833333281,
      "v": 127
    },
    {
      "midi": 42,
      "hit": false,
      "t": 32956.189000000035,
      "d": 36.496333333336224,
      "v": 45
    },
    {
      "midi": 42,
      "hit": false,
      "t": 32956.18900000005,
      "d": 72.99266666666517,
      "v": 98
    },
    {
      "midi": 46,
      "hit": false,
      "t": 33065.677999999956,
      "d": 85.7663833333354,
      "v": 80
    },
    {
      "midi": 42,
      "hit": false,
      "t": 33065.678000000036,
      "d": 36.496333333336224,
      "v": 45
    },
    {
      "midi": 36,
      "hit": false,
      "t": 33065.678000000036,
      "d": 218.9780000000028,
      "v": 120
    },
    {
      "midi": 46,
      "hit": false,
      "t": 33065.67800000005,
      "d": 218.9780000000028,
      "v": 98
    },
    {
      "midi": 42,
      "hit": false,
      "t": 33175.16700000004,
      "d": 45.62041666666482,
      "v": 45
    },
    {
      "midi": 36,
      "hit": false,
      "t": 33284.655999999944,
      "d": 51.09486666666635,
      "v": 107
    },
    {
      "midi": 36,
      "hit": false,
      "t": 33284.655999999944,
      "d": 51.09486666666635,
      "v": 107
    },
    {
      "midi": 35,
      "hit": false,
      "t": 33284.65599999996,
      "d": 85.7663833333354,
      "v": 107
    },
    {
      "midi": 42,
      "hit": false,
      "t": 33284.65599999996,
      "d": 85.7663833333354,
      "v": 107
    },
    {
      "midi": 42,
      "hit": false,
      "t": 33284.65600000004,
      "d": 36.496333333336224,
      "v": 45
    },
    {
      "midi": 36,
      "hit": false,
      "t": 33284.65600000004,
      "d": 437.9560000000056,
      "v": 120
    },
    {
      "midi": 42,
      "hit": false,
      "t": 33284.65600000005,
      "d": 45.62041666666482,
      "v": 98
    },
    {
      "midi": 36,
      "hit": false,
      "t": 33284.65600000005,
      "d": 54.7445000000007,
      "v": 127
    },
    {
      "midi": 40,
      "hit": false,
      "t": 33288.305633333344,
      "d": 270.07286666666914,
      "v": 115
    },
    {
      "midi": 59,
      "hit": false,
      "t": 33293.7800833334,
      "d": 428.8319166666697,
      "v": 93
    },
    {
      "midi": 64,
      "hit": false,
      "t": 33293.7800833334,
      "d": 428.8319166666697,
      "v": 94
    },
    {
      "midi": 68,
      "hit": false,
      "t": 33297.42971666673,
      "d": 425.18228333333536,
      "v": 97
    },
    {
      "midi": 59,
      "hit": false,
      "t": 33302.904166666696,
      "d": 273.7225000000035,
      "v": 93
    },
    {
      "midi": 64,
      "hit": false,
      "t": 33302.904166666696,
      "d": 273.7225000000035,
      "v": 94
    },
    {
      "midi": 68,
      "hit": false,
      "t": 33302.904166666696,
      "d": 273.7225000000035,
      "v": 94
    },
    {
      "midi": 52,
      "hit": false,
      "t": 33302.9041666668,
      "d": 286.49621666666644,
      "v": 127
    },
    {
      "midi": 52,
      "hit": false,
      "t": 33302.9041666668,
      "d": 286.49621666666644,
      "v": 127
    },
    {
      "midi": 52,
      "hit": false,
      "t": 33302.9041666668,
      "d": 286.49621666666644,
      "v": 127
    },
    {
      "midi": 52,
      "hit": false,
      "t": 33302.9041666668,
      "d": 286.49621666666644,
      "v": 127
    },
    {
      "midi": 42,
      "hit": false,
      "t": 33394.14500000004,
      "d": 36.496333333336224,
      "v": 45
    },
    {
      "midi": 42,
      "hit": false,
      "t": 33394.145000000055,
      "d": 63.868583333336574,
      "v": 98
    },
    {
      "midi": 46,
      "hit": false,
      "t": 33503.63399999996,
      "d": 85.7663833333354,
      "v": 80
    },
    {
      "midi": 42,
      "hit": false,
      "t": 33503.63400000004,
      "d": 36.496333333336224,
      "v": 45
    },
    {
      "midi": 46,
      "hit": false,
      "t": 33503.63400000006,
      "d": 218.9780000000028,
      "v": 98
    },
    {
      "midi": 59,
      "hit": false,
      "t": 33585.750750000036,
      "d": 149.6349666666647,
      "v": 92
    },
    {
      "midi": 64,
      "hit": false,
      "t": 33585.750750000036,
      "d": 155.10941666666622,
      "v": 94
    },
    {
      "midi": 68,
      "hit": false,
      "t": 33585.750750000036,
      "d": 158.75905000000057,
      "v": 94
    },
    {
      "midi": 54,
      "hit": false,
      "t": 33585.75075000013,
      "d": 149.6349666666647,
      "v": 127
    },
    {
      "midi": 54,
      "hit": false,
      "t": 33585.75075000013,
      "d": 149.6349666666647,
      "v": 127
    },
    {
      "midi": 54,
      "hit": false,
      "t": 33585.75075000013,
      "d": 149.6349666666647,
      "v": 127
    },
    {
      "midi": 54,
      "hit": false,
      "t": 33585.75075000013,
      "d": 149.6349666666647,
      "v": 127
    },
    {
      "midi": 42,
      "hit": false,
      "t": 33613.12300000004,
      "d": 36.496333333336224,
      "v": 45
    },
    {
      "midi": 36,
      "hit": false,
      "t": 33722.61199999994,
      "d": 51.09486666666635,
      "v": 107
    },
    {
      "midi": 36,
      "hit": false,
      "t": 33722.61199999994,
      "d": 51.09486666666635,
      "v": 107
    },
    {
      "midi": 35,
      "hit": false,
      "t": 33722.611999999965,
      "d": 85.7663833333354,
      "v": 107
    },
    {
      "midi": 42,
      "hit": false,
      "t": 33722.611999999965,
      "d": 85.7663833333354,
      "v": 107
    },
    {
      "midi": 40,
      "hit": false,
      "t": 33722.612000000016,
      "d": 268.24805000000197,
      "v": 116
    },
    {
      "midi": 42,
      "hit": false,
      "t": 33722.612000000045,
      "d": 45.62041666666482,
      "v": 45
    },
    {
      "midi": 38,
      "hit": false,
      "t": 33722.612000000045,
      "d": 328.4670000000042,
      "v": 127
    },
    {
      "midi": 42,
      "hit": false,
      "t": 33722.61200000006,
      "d": 45.62041666666482,
      "v": 98
    },
    {
      "midi": 36,
      "hit": false,
      "t": 33722.61200000006,
      "d": 54.7445000000007,
      "v": 127
    },
    {
      "midi": 59,
      "hit": false,
      "t": 33726.2616333334,
      "d": 434.30636666667124,
      "v": 94
    },
    {
      "midi": 64,
      "hit": false,
      "t": 33731.7360833334,
      "d": 428.8319166666697,
      "v": 95
    },
    {
      "midi": 68,
      "hit": false,
      "t": 33731.7360833334,
      "d": 428.8319166666697,
      "v": 94
    },
    {
      "midi": 56,
      "hit": false,
      "t": 33735.385716666795,
      "d": 288.3210333333336,
      "v": 127
    },
    {
      "midi": 56,
      "hit": false,
      "t": 33735.385716666795,
      "d": 288.3210333333336,
      "v": 127
    },
    {
      "midi": 56,
      "hit": false,
      "t": 33735.385716666795,
      "d": 288.3210333333336,
      "v": 127
    },
    {
      "midi": 56,
      "hit": false,
      "t": 33735.385716666795,
      "d": 288.3210333333336,
      "v": 127
    },
    {
      "midi": 42,
      "hit": false,
      "t": 33832.101000000046,
      "d": 45.62041666666482,
      "v": 45
    },
    {
      "midi": 42,
      "hit": false,
      "t": 33832.10100000006,
      "d": 63.868583333336574,
      "v": 98
    },
    {
      "midi": 46,
      "hit": false,
      "t": 33941.58999999997,
      "d": 85.7663833333354,
      "v": 80
    },
    {
      "midi": 42,
      "hit": false,
      "t": 33941.59000000005,
      "d": 45.62041666666482,
      "v": 45
    },
    {
      "midi": 46,
      "hit": false,
      "t": 33941.59000000006,
      "d": 218.9780000000028,
      "v": 98
    },
    {
      "midi": 52,
      "hit": false,
      "t": 34018.23230000013,
      "d": 164.2335000000021,
      "v": 127
    },
    {
      "midi": 52,
      "hit": false,
      "t": 34018.23230000013,
      "d": 164.2335000000021,
      "v": 127
    },
    {
      "midi": 52,
      "hit": false,
      "t": 34018.23230000013,
      "d": 164.2335000000021,
      "v": 127
    },
    {
      "midi": 52,
      "hit": false,
      "t": 34018.23230000013,
      "d": 164.2335000000021,
      "v": 127
    },
    {
      "midi": 42,
      "hit": false,
      "t": 34051.07900000005,
      "d": 45.62041666666482,
      "v": 45
    },
    {
      "midi": 36,
      "hit": false,
      "t": 34051.07900000005,
      "d": 109.4890000000014,
      "v": 120
    },
    {
      "midi": 36,
      "hit": false,
      "t": 34160.56799999994,
      "d": 51.09486666666635,
      "v": 107
    },
    {
      "midi": 36,
      "hit": false,
      "t": 34160.56799999994,
      "d": 51.09486666666635,
      "v": 107
    },
    {
      "midi": 35,
      "hit": false,
      "t": 34160.56799999997,
      "d": 85.7663833333354,
      "v": 107
    },
    {
      "midi": 42,
      "hit": false,
      "t": 34160.56799999997,
      "d": 85.7663833333354,
      "v": 107
    },
    {
      "midi": 42,
      "hit": false,
      "t": 34160.56800000005,
      "d": 45.62041666666482,
      "v": 45
    },
    {
      "midi": 36,
      "hit": false,
      "t": 34160.56800000005,
      "d": 218.9780000000028,
      "v": 120
    },
    {
      "midi": 42,
      "hit": false,
      "t": 34160.568000000065,
      "d": 45.62041666666482,
      "v": 98
    },
    {
      "midi": 36,
      "hit": false,
      "t": 34160.568000000065,
      "d": 63.8685833333293,
      "v": 127
    },
    {
      "midi": 73,
      "hit": false,
      "t": 34164.21763333333,
      "d": 72.99266666667245,
      "v": 104
    },
    {
      "midi": 33,
      "hit": false,
      "t": 34164.21763333335,
      "d": 282.8465833333321,
      "v": 115
    },
    {
      "midi": 61,
      "hit": false,
      "t": 34164.21763333341,
      "d": 434.30636666667124,
      "v": 94
    },
    {
      "midi": 64,
      "hit": false,
      "t": 34169.69208333341,
      "d": 428.8319166666697,
      "v": 94
    },
    {
      "midi": 69,
      "hit": false,
      "t": 34169.69208333341,
      "d": 428.8319166666697,
      "v": 95
    },
    {
      "midi": 61,
      "hit": false,
      "t": 34178.8161666667,
      "d": 273.7225000000035,
      "v": 93
    },
    {
      "midi": 64,
      "hit": false,
      "t": 34178.8161666667,
      "d": 273.7225000000035,
      "v": 95
    },
    {
      "midi": 69,
      "hit": false,
      "t": 34178.8161666667,
      "d": 273.7225000000035,
      "v": 100
    },
    {
      "midi": 57,
      "hit": false,
      "t": 34178.816166666795,
      "d": 857.6638333333394,
      "v": 127
    },
    {
      "midi": 57,
      "hit": false,
      "t": 34178.816166666795,
      "d": 857.6638333333394,
      "v": 127
    },
    {
      "midi": 57,
      "hit": false,
      "t": 34178.816166666795,
      "d": 857.6638333333394,
      "v": 127
    },
    {
      "midi": 57,
      "hit": false,
      "t": 34178.816166666795,
      "d": 857.6638333333394,
      "v": 127
    },
    {
      "midi": 42,
      "hit": false,
      "t": 34270.05700000005,
      "d": 45.62041666666482,
      "v": 45
    },
    {
      "midi": 42,
      "hit": false,
      "t": 34270.05700000006,
      "d": 63.868583333336574,
      "v": 98
    },
    {
      "midi": 46,
      "hit": false,
      "t": 34379.54599999997,
      "d": 85.7663833333354,
      "v": 80
    },
    {
      "midi": 42,
      "hit": false,
      "t": 34379.54600000005,
      "d": 45.62041666666482,
      "v": 45
    },
    {
      "midi": 36,
      "hit": false,
      "t": 34379.54600000005,
      "d": 218.9780000000028,
      "v": 120
    },
    {
      "midi": 46,
      "hit": false,
      "t": 34379.54600000006,
      "d": 218.9780000000028,
      "v": 98
    },
    {
      "midi": 61,
      "hit": false,
      "t": 34461.66275000004,
      "d": 118.61308333333,
      "v": 91
    },
    {
      "midi": 64,
      "hit": false,
      "t": 34461.66275000004,
      "d": 131.38680000000022,
      "v": 97
    },
    {
      "midi": 69,
      "hit": false,
      "t": 34461.66275000004,
      "d": 136.86125000000175,
      "v": 95
    },
    {
      "midi": 42,
      "hit": false,
      "t": 34489.035000000054,
      "d": 36.496333333336224,
      "v": 45
    },
    {
      "midi": 36,
      "hit": false,
      "t": 34598.52399999994,
      "d": 51.09486666666635,
      "v": 107
    },
    {
      "midi": 36,
      "hit": false,
      "t": 34598.52399999994,
      "d": 51.09486666666635,
      "v": 107
    },
    {
      "midi": 35,
      "hit": false,
      "t": 34598.523999999976,
      "d": 85.7663833333354,
      "v": 107
    },
    {
      "midi": 42,
      "hit": false,
      "t": 34598.523999999976,
      "d": 85.7663833333354,
      "v": 107
    },
    {
      "midi": 42,
      "hit": false,
      "t": 34598.524000000056,
      "d": 36.496333333336224,
      "v": 45
    },
    {
      "midi": 38,
      "hit": false,
      "t": 34598.524000000056,
      "d": 218.9780000000028,
      "v": 127
    },
    {
      "midi": 42,
      "hit": false,
      "t": 34598.52400000006,
      "d": 54.7445000000007,
      "v": 98
    },
    {
      "midi": 36,
      "hit": false,
      "t": 34598.52400000006,
      "d": 63.868583333336574,
      "v": 127
    },
    {
      "midi": 33,
      "hit": false,
      "t": 34602.17363333335,
      "d": 291.97066666666797,
      "v": 118
    },
    {
      "midi": 61,
      "hit": false,
      "t": 34602.17363333341,
      "d": 434.30636666667124,
      "v": 100
    },
    {
      "midi": 64,
      "hit": false,
      "t": 34607.64808333341,
      "d": 428.8319166666697,
      "v": 100
    },
    {
      "midi": 69,
      "hit": false,
      "t": 34607.64808333341,
      "d": 428.8319166666697,
      "v": 107
    },
    {
      "midi": 42,
      "hit": false,
      "t": 34708.01300000006,
      "d": 36.496333333336224,
      "v": 45
    },
    {
      "midi": 42,
      "hit": false,
      "t": 34708.013000000064,
      "d": 72.99266666666517,
      "v": 98
    },
    {
      "midi": 46,
      "hit": false,
      "t": 34817.50199999998,
      "d": 85.7663833333354,
      "v": 80
    },
    {
      "midi": 46,
      "hit": false,
      "t": 34817.50200000006,
      "d": 45.62041666666482,
      "v": 45
    },
    {
      "midi": 36,
      "hit": false,
      "t": 34817.50200000006,
      "d": 218.97799999999552,
      "v": 120
    },
    {
      "midi": 46,
      "hit": false,
      "t": 34817.502000000066,
      "d": 218.9780000000028,
      "v": 98
    },
    {
      "midi": 36,
      "hit": false,
      "t": 34926.990999999936,
      "d": 51.09486666666635,
      "v": 67
    },
    {
      "midi": 36,
      "hit": false,
      "t": 34926.990999999936,
      "d": 51.09486666666635,
      "v": 67
    },
    {
      "midi": 35,
      "hit": false,
      "t": 34926.99099999998,
      "d": 85.7663833333354,
      "v": 97
    },
    {
      "midi": 42,
      "hit": false,
      "t": 34926.99099999998,
      "d": 85.7663833333354,
      "v": 107
    },
    {
      "midi": 36,
      "hit": false,
      "t": 35036.47999999994,
      "d": 51.09486666666635,
      "v": 107
    },
    {
      "midi": 36,
      "hit": false,
      "t": 35036.47999999994,
      "d": 51.09486666666635,
      "v": 107
    },
    {
      "midi": 35,
      "hit": false,
      "t": 35036.47999999998,
      "d": 85.7663833333354,
      "v": 107
    },
    {
      "midi": 42,
      "hit": false,
      "t": 35036.47999999998,
      "d": 85.7663833333354,
      "v": 107
    },
    {
      "midi": 42,
      "hit": false,
      "t": 35036.480000000054,
      "d": 36.496333333336224,
      "v": 45
    },
    {
      "midi": 36,
      "hit": false,
      "t": 35036.480000000054,
      "d": 437.9560000000056,
      "v": 120
    },
    {
      "midi": 42,
      "hit": false,
      "t": 35036.48000000007,
      "d": 45.62041666666482,
      "v": 98
    },
    {
      "midi": 36,
      "hit": false,
      "t": 35036.48000000007,
      "d": 54.7445000000007,
      "v": 127
    },
    {
      "midi": 40,
      "hit": false,
      "t": 35040.129633333345,
      "d": 242.7006166666688,
      "v": 118
    },
    {
      "midi": 61,
      "hit": false,
      "t": 35049.25371666671,
      "d": 279.19694999999774,
      "v": 88
    },
    {
      "midi": 64,
      "hit": false,
      "t": 35049.25371666671,
      "d": 279.19694999999774,
      "v": 92
    },
    {
      "midi": 71,
      "hit": false,
      "t": 35049.25371666671,
      "d": 279.19694999999774,
      "v": 93
    },
    {
      "midi": 64,
      "hit": false,
      "t": 35067.50188333342,
      "d": 279.196950000005,
      "v": 92
    },
    {
      "midi": 71,
      "hit": false,
      "t": 35067.50188333342,
      "d": 282.84658333333937,
      "v": 94
    },
    {
      "midi": 67,
      "hit": false,
      "t": 35072.97633333342,
      "d": 268.24805000000197,
      "v": 97
    },
    {
      "midi": 42,
      "hit": false,
      "t": 35145.969000000056,
      "d": 45.62041666666482,
      "v": 45
    },
    {
      "midi": 42,
      "hit": false,
      "t": 35145.96900000007,
      "d": 63.868583333336574,
      "v": 98
    },
    {
      "midi": 46,
      "hit": false,
      "t": 35255.457999999984,
      "d": 85.7663833333354,
      "v": 80
    },
    {
      "midi": 42,
      "hit": false,
      "t": 35255.45800000006,
      "d": 45.62041666666482,
      "v": 45
    },
    {
      "midi": 46,
      "hit": false,
      "t": 35255.45800000007,
      "d": 218.9780000000028,
      "v": 98
    },
    {
      "midi": 61,
      "hit": false,
      "t": 35332.10030000004,
      "d": 72.99266666666517,
      "v": 91
    },
    {
      "midi": 64,
      "hit": false,
      "t": 35337.57475000004,
      "d": 76.64229999999952,
      "v": 93
    },
    {
      "midi": 69,
      "hit": false,
      "t": 35337.57475000004,
      "d": 82.11675000000105,
      "v": 95
    },
    {
      "midi": 42,
      "hit": false,
      "t": 35364.94700000006,
      "d": 45.62041666666482,
      "v": 45
    },
    {
      "midi": 36,
      "hit": false,
      "t": 35474.435999999936,
      "d": 51.09486666666635,
      "v": 107
    },
    {
      "midi": 36,
      "hit": false,
      "t": 35474.435999999936,
      "d": 51.09486666666635,
      "v": 107
    },
    {
      "midi": 35,
      "hit": false,
      "t": 35474.43599999999,
      "d": 85.7663833333354,
      "v": 107
    },
    {
      "midi": 42,
      "hit": false,
      "t": 35474.43599999999,
      "d": 85.7663833333354,
      "v": 107
    },
    {
      "midi": 42,
      "hit": false,
      "t": 35474.43600000006,
      "d": 45.62041666666482,
      "v": 45
    },
    {
      "midi": 38,
      "hit": false,
      "t": 35474.43600000006,
      "d": 437.9560000000056,
      "v": 127
    },
    {
      "midi": 42,
      "hit": false,
      "t": 35474.436000000074,
      "d": 45.62041666666482,
      "v": 98
    },
    {
      "midi": 36,
      "hit": false,
      "t": 35474.436000000074,
      "d": 54.7445000000007,
      "v": 127
    },
    {
      "midi": 33,
      "hit": false,
      "t": 35478.08563333335,
      "d": 306.5691999999981,
      "v": 116
    },
    {
      "midi": 71,
      "hit": false,
      "t": 35478.08563333342,
      "d": 333.9414500000057,
      "v": 98
    },
    {
      "midi": 64,
      "hit": false,
      "t": 35483.560083333425,
      "d": 313.8684666666668,
      "v": 94
    },
    {
      "midi": 67,
      "hit": false,
      "t": 35487.20971666676,
      "d": 315.69328333333397,
      "v": 100
    },
    {
      "midi": 42,
      "hit": false,
      "t": 35583.92500000006,
      "d": 45.62041666666482,
      "v": 45
    },
    {
      "midi": 42,
      "hit": false,
      "t": 35583.925000000076,
      "d": 63.868583333336574,
      "v": 98
    },
    {
      "midi": 46,
      "hit": false,
      "t": 35693.41399999999,
      "d": 85.7663833333354,
      "v": 80
    },
    {
      "midi": 42,
      "hit": false,
      "t": 35693.41400000006,
      "d": 45.62041666666482,
      "v": 45
    },
    {
      "midi": 46,
      "hit": false,
      "t": 35693.41400000008,
      "d": 218.9780000000028,
      "v": 98
    },
    {
      "midi": 42,
      "hit": false,
      "t": 35802.903000000064,
      "d": 45.62041666666482,
      "v": 45
    },
    {
      "midi": 36,
      "hit": false,
      "t": 35802.903000000064,
      "d": 109.4890000000014,
      "v": 120
    },
    {
      "midi": 36,
      "hit": false,
      "t": 35912.391999999934,
      "d": 51.09486666666635,
      "v": 107
    },
    {
      "midi": 36,
      "hit": false,
      "t": 35912.391999999934,
      "d": 51.09486666666635,
      "v": 107
    },
    {
      "midi": 35,
      "hit": false,
      "t": 35912.39199999999,
      "d": 85.7663833333354,
      "v": 107
    },
    {
      "midi": 42,
      "hit": false,
      "t": 35912.39199999999,
      "d": 85.7663833333354,
      "v": 107
    },
    {
      "midi": 40,
      "hit": false,
      "t": 35912.392000000014,
      "d": 259.1239666666661,
      "v": 116
    },
    {
      "midi": 42,
      "hit": false,
      "t": 35912.392000000065,
      "d": 45.62041666666482,
      "v": 45
    },
    {
      "midi": 36,
      "hit": false,
      "t": 35912.392000000065,
      "d": 218.9780000000028,
      "v": 120
    },
    {
      "midi": 42,
      "hit": false,
      "t": 35912.39200000008,
      "d": 45.62041666666482,
      "v": 98
    },
    {
      "midi": 36,
      "hit": false,
      "t": 35912.39200000008,
      "d": 54.7445000000007,
      "v": 127
    },
    {
      "midi": 73,
      "hit": false,
      "t": 35921.51608333333,
      "d": 67.51821666666365,
      "v": 104
    },
    {
      "midi": 62,
      "hit": false,
      "t": 35921.51608333338,
      "d": 282.8465833333321,
      "v": 92
    },
    {
      "midi": 67,
      "hit": false,
      "t": 35925.165716666714,
      "d": 279.19694999999774,
      "v": 94
    },
    {
      "midi": 71,
      "hit": false,
      "t": 35925.165716666714,
      "d": 279.19694999999774,
      "v": 95
    },
    {
      "midi": 67,
      "hit": false,
      "t": 35930.64016666676,
      "d": 319.3429166666683,
      "v": 100
    },
    {
      "midi": 71,
      "hit": false,
      "t": 35934.28980000009,
      "d": 315.69328333333397,
      "v": 94
    },
    {
      "midi": 64,
      "hit": false,
      "t": 35939.764250000095,
      "d": 304.7443833333309,
      "v": 93
    },
    {
      "midi": 42,
      "hit": false,
      "t": 36021.88100000007,
      "d": 45.62041666666482,
      "v": 45
    },
    {
      "midi": 42,
      "hit": false,
      "t": 36021.88100000008,
      "d": 63.868583333336574,
      "v": 98
    },
    {
      "midi": 46,
      "hit": false,
      "t": 36131.369999999995,
      "d": 85.7663833333354,
      "v": 80
    },
    {
      "midi": 42,
      "hit": false,
      "t": 36131.37000000007,
      "d": 45.62041666666482,
      "v": 45
    },
    {
      "midi": 36,
      "hit": false,
      "t": 36131.37000000007,
      "d": 218.9780000000028,
      "v": 120
    },
    {
      "midi": 46,
      "hit": false,
      "t": 36131.37000000008,
      "d": 218.9780000000028,
      "v": 98
    },
    {
      "midi": 62,
      "hit": false,
      "t": 36213.48675000005,
      "d": 100.36491666666552,
      "v": 91
    },
    {
      "midi": 67,
      "hit": false,
      "t": 36213.48675000005,
      "d": 122.26271666666435,
      "v": 94
    },
    {
      "midi": 71,
      "hit": false,
      "t": 36213.48675000005,
      "d": 127.73716666666587,
      "v": 94
    },
    {
      "midi": 42,
      "hit": false,
      "t": 36240.85900000007,
      "d": 45.62041666666482,
      "v": 45
    },
    {
      "midi": 36,
      "hit": false,
      "t": 36350.34799999993,
      "d": 51.09486666666635,
      "v": 107
    },
    {
      "midi": 36,
      "hit": false,
      "t": 36350.34799999993,
      "d": 51.09486666666635,
      "v": 107
    },
    {
      "midi": 35,
      "hit": false,
      "t": 36350.348,
      "d": 85.7663833333354,
      "v": 107
    },
    {
      "midi": 42,
      "hit": false,
      "t": 36350.348,
      "d": 85.7663833333354,
      "v": 107
    },
    {
      "midi": 40,
      "hit": false,
      "t": 36350.34800000001,
      "d": 264.5984166666676,
      "v": 116
    },
    {
      "midi": 42,
      "hit": false,
      "t": 36350.34800000007,
      "d": 45.62041666666482,
      "v": 45
    },
    {
      "midi": 38,
      "hit": false,
      "t": 36350.34800000007,
      "d": 218.9780000000028,
      "v": 127
    },
    {
      "midi": 42,
      "hit": false,
      "t": 36350.348000000085,
      "d": 54.7445000000007,
      "v": 98
    },
    {
      "midi": 36,
      "hit": false,
      "t": 36350.348000000085,
      "d": 54.7445000000007,
      "v": 127
    },
    {
      "midi": 67,
      "hit": false,
      "t": 36390.49396666676,
      "d": 328.4670000000042,
      "v": 100
    },
    {
      "midi": 64,
      "hit": false,
      "t": 36395.968416666765,
      "d": 291.97066666666797,
      "v": 93
    },
    {
      "midi": 71,
      "hit": false,
      "t": 36395.968416666765,
      "d": 295.6203000000023,
      "v": 97
    },
    {
      "midi": 42,
      "hit": false,
      "t": 36459.83700000007,
      "d": 45.62041666666482,
      "v": 45
    },
    {
      "midi": 42,
      "hit": false,
      "t": 36459.83700000009,
      "d": 72.99266666666517,
      "v": 98
    },
    {
      "midi": 46,
      "hit": false,
      "t": 36569.326,
      "d": 85.7663833333354,
      "v": 80
    },
    {
      "midi": 42,
      "hit": false,
      "t": 36569.326000000074,
      "d": 36.496333333336224,
      "v": 45
    },
    {
      "midi": 36,
      "hit": false,
      "t": 36569.326000000074,
      "d": 218.9780000000028,
      "v": 120
    },
    {
      "midi": 46,
      "hit": false,
      "t": 36569.32600000009,
      "d": 218.9780000000028,
      "v": 98
    },
    {
      "midi": 42,
      "hit": false,
      "t": 36678.815000000075,
      "d": 36.496333333336224,
      "v": 45
    },
    {
      "midi": 36,
      "hit": false,
      "t": 36788.30399999993,
      "d": 51.09486666666635,
      "v": 107
    },
    {
      "midi": 36,
      "hit": false,
      "t": 36788.30399999993,
      "d": 51.09486666666635,
      "v": 107
    },
    {
      "midi": 35,
      "hit": false,
      "t": 36788.304000000004,
      "d": 85.7663833333354,
      "v": 107
    },
    {
      "midi": 42,
      "hit": false,
      "t": 36788.304000000004,
      "d": 85.7663833333354,
      "v": 107
    },
    {
      "midi": 42,
      "hit": false,
      "t": 36788.30400000008,
      "d": 36.496333333336224,
      "v": 45
    },
    {
      "midi": 36,
      "hit": false,
      "t": 36788.30400000008,
      "d": 437.9560000000056,
      "v": 120
    },
    {
      "midi": 42,
      "hit": false,
      "t": 36788.30400000009,
      "d": 45.62041666666482,
      "v": 98
    },
    {
      "midi": 36,
      "hit": false,
      "t": 36788.30400000009,
      "d": 54.7445000000007,
      "v": 127
    },
    {
      "midi": 33,
      "hit": false,
      "t": 36791.953633333345,
      "d": 288.3210333333336,
      "v": 116
    },
    {
      "midi": 61,
      "hit": false,
      "t": 36797.42808333338,
      "d": 282.8465833333321,
      "v": 90
    },
    {
      "midi": 64,
      "hit": false,
      "t": 36801.07771666672,
      "d": 279.19694999999774,
      "v": 91
    },
    {
      "midi": 69,
      "hit": false,
      "t": 36801.07771666672,
      "d": 282.8465833333321,
      "v": 92
    },
    {
      "midi": 69,
      "hit": false,
      "t": 36810.201800000104,
      "d": 270.07286666666914,
      "v": 100
    },
    {
      "midi": 64,
      "hit": false,
      "t": 36815.676250000106,
      "d": 264.5984166666676,
      "v": 97
    },
    {
      "midi": 61,
      "hit": false,
      "t": 36824.80033333344,
      "d": 255.47433333333174,
      "v": 94
    },
    {
      "midi": 42,
      "hit": false,
      "t": 36897.79300000008,
      "d": 45.62041666666482,
      "v": 45
    },
    {
      "midi": 42,
      "hit": false,
      "t": 36897.79300000009,
      "d": 63.868583333336574,
      "v": 98
    },
    {
      "midi": 46,
      "hit": false,
      "t": 37007.28200000001,
      "d": 85.7663833333354,
      "v": 80
    },
    {
      "midi": 42,
      "hit": false,
      "t": 37007.28200000008,
      "d": 45.62041666666482,
      "v": 45
    },
    {
      "midi": 46,
      "hit": false,
      "t": 37007.282000000094,
      "d": 218.9780000000028,
      "v": 98
    },
    {
      "midi": 61,
      "hit": false,
      "t": 37089.39875000005,
      "d": 109.4890000000014,
      "v": 91
    },
    {
      "midi": 64,
      "hit": false,
      "t": 37093.048383333386,
      "d": 100.36491666666552,
      "v": 92
    },
    {
      "midi": 69,
      "hit": false,
      "t": 37093.048383333386,
      "d": 127.73716666666587,
      "v": 92
    },
    {
      "midi": 42,
      "hit": false,
      "t": 37116.77100000008,
      "d": 36.496333333336224,
      "v": 45
    },
    {
      "midi": 36,
      "hit": false,
      "t": 37226.25999999993,
      "d": 51.09486666666635,
      "v": 107
    },
    {
      "midi": 36,
      "hit": false,
      "t": 37226.25999999993,
      "d": 51.09486666666635,
      "v": 107
    },
    {
      "midi": 33,
      "hit": false,
      "t": 37226.26000000001,
      "d": 301.09474999999657,
      "v": 119
    },
    {
      "midi": 35,
      "hit": false,
      "t": 37226.26000000001,
      "d": 85.7663833333354,
      "v": 107
    },
    {
      "midi": 42,
      "hit": false,
      "t": 37226.26000000001,
      "d": 85.7663833333354,
      "v": 107
    },
    {
      "midi": 42,
      "hit": false,
      "t": 37226.26000000008,
      "d": 45.62041666666482,
      "v": 45
    },
    {
      "midi": 38,
      "hit": false,
      "t": 37226.26000000008,
      "d": 328.4670000000042,
      "v": 127
    },
    {
      "midi": 42,
      "hit": false,
      "t": 37226.2600000001,
      "d": 45.62041666666482,
      "v": 98
    },
    {
      "midi": 36,
      "hit": false,
      "t": 37226.2600000001,
      "d": 54.7445000000007,
      "v": 127
    },
    {
      "midi": 69,
      "hit": false,
      "t": 37229.90963333338,
      "d": 251.8246999999974,
      "v": 97
    },
    {
      "midi": 61,
      "hit": false,
      "t": 37239.033716666774,
      "d": 251.82470000000467,
      "v": 94
    },
    {
      "midi": 69,
      "hit": false,
      "t": 37239.033716666774,
      "d": 273.7225000000035,
      "v": 100
    },
    {
      "midi": 64,
      "hit": false,
      "t": 37244.508166666776,
      "d": 268.24805000000197,
      "v": 97
    },
    {
      "midi": 42,
      "hit": false,
      "t": 37335.74900000008,
      "d": 45.62041666666482,
      "v": 45
    },
    {
      "midi": 42,
      "hit": false,
      "t": 37335.7490000001,
      "d": 63.868583333336574,
      "v": 98
    },
    {
      "midi": 46,
      "hit": false,
      "t": 37445.23800000001,
      "d": 85.7663833333354,
      "v": 80
    },
    {
      "midi": 42,
      "hit": false,
      "t": 37445.238000000085,
      "d": 45.62041666666482,
      "v": 45
    },
    {
      "midi": 46,
      "hit": false,
      "t": 37445.2380000001,
      "d": 218.9780000000028,
      "v": 98
    },
    {
      "midi": 76,
      "hit": false,
      "t": 37521.88030000004,
      "d": 91.24083333333692,
      "v": 97
    },
    {
      "midi": 61,
      "hit": false,
      "t": 37527.35475000005,
      "d": 122.26271666666435,
      "v": 88
    },
    {
      "midi": 64,
      "hit": false,
      "t": 37527.35475000005,
      "d": 127.73716666666587,
      "v": 89
    },
    {
      "midi": 69,
      "hit": false,
      "t": 37527.35475000005,
      "d": 136.86125000000175,
      "v": 91
    },
    {
      "midi": 42,
      "hit": false,
      "t": 37554.727000000086,
      "d": 45.62041666666482,
      "v": 45
    },
    {
      "midi": 36,
      "hit": false,
      "t": 37554.727000000086,
      "d": 109.4890000000014,
      "v": 120
    },
    {
      "midi": 36,
      "hit": false,
      "t": 37664.21599999993,
      "d": 51.09486666666635,
      "v": 107
    },
    {
      "midi": 36,
      "hit": false,
      "t": 37664.21599999993,
      "d": 51.09486666666635,
      "v": 107
    },
    {
      "midi": 45,
      "hit": false,
      "t": 37664.21600000001,
      "d": 286.49621666666644,
      "v": 116
    },
    {
      "midi": 35,
      "hit": false,
      "t": 37664.216000000015,
      "d": 85.7663833333354,
      "v": 107
    },
    {
      "midi": 42,
      "hit": false,
      "t": 37664.216000000015,
      "d": 85.7663833333354,
      "v": 107
    },
    {
      "midi": 42,
      "hit": false,
      "t": 37664.21600000009,
      "d": 45.62041666666482,
      "v": 45
    },
    {
      "midi": 36,
      "hit": false,
      "t": 37664.21600000009,
      "d": 218.9780000000028,
      "v": 120
    },
    {
      "midi": 42,
      "hit": false,
      "t": 37664.2160000001,
      "d": 45.62041666666482,
      "v": 98
    },
    {
      "midi": 36,
      "hit": false,
      "t": 37664.2160000001,
      "d": 72.99266666666517,
      "v": 127
    },
    {
      "midi": 61,
      "hit": false,
      "t": 37664.21600000011,
      "d": 291.97066666666797,
      "v": 94
    },
    {
      "midi": 64,
      "hit": false,
      "t": 37664.21600000011,
      "d": 295.6203000000023,
      "v": 98
    },
    {
      "midi": 69,
      "hit": false,
      "t": 37664.21600000011,
      "d": 304.7443833333382,
      "v": 100
    },
    {
      "midi": 76,
      "hit": false,
      "t": 37667.86563333338,
      "d": 260.94878333333327,
      "v": 97
    },
    {
      "midi": 42,
      "hit": false,
      "t": 37773.70500000009,
      "d": 45.62041666666482,
      "v": 45
    },
    {
      "midi": 42,
      "hit": false,
      "t": 37773.7050000001,
      "d": 63.868583333336574,
      "v": 98
    },
    {
      "midi": 46,
      "hit": false,
      "t": 37883.19400000002,
      "d": 85.7663833333354,
      "v": 80
    },
    {
      "midi": 46,
      "hit": false,
      "t": 37883.19400000009,
      "d": 63.868583333336574,
      "v": 45
    },
    {
      "midi": 38,
      "hit": false,
      "t": 37883.19400000009,
      "d": 218.9780000000028,
      "v": 127
    },
    {
      "midi": 46,
      "hit": false,
      "t": 37883.194000000105,
      "d": 218.9780000000028,
      "v": 98
    },
    {
      "midi": 81,
      "hit": false,
      "t": 37959.836300000046,
      "d": 105.83936666666705,
      "v": 97
    },
    {
      "midi": 61,
      "hit": false,
      "t": 37965.31075000005,
      "d": 113.13863333333575,
      "v": 91
    },
    {
      "midi": 64,
      "hit": false,
      "t": 37965.31075000005,
      "d": 131.38680000000022,
      "v": 92
    },
    {
      "midi": 69,
      "hit": false,
      "t": 37965.31075000005,
      "d": 145.98533333333035,
      "v": 94
    },
    {
      "midi": 36,
      "hit": false,
      "t": 38102.171999999926,
      "d": 51.09486666666635,
      "v": 107
    },
    {
      "midi": 36,
      "hit": false,
      "t": 38102.171999999926,
      "d": 51.09486666666635,
      "v": 107
    },
    {
      "midi": 33,
      "hit": false,
      "t": 38102.172000000006,
      "d": 286.49621666666644,
      "v": 116
    },
    {
      "midi": 35,
      "hit": false,
      "t": 38102.17200000002,
      "d": 85.7663833333354,
      "v": 107
    },
    {
      "midi": 42,
      "hit": false,
      "t": 38102.17200000002,
      "d": 85.7663833333354,
      "v": 107
    },
    {
      "midi": 42,
      "hit": false,
      "t": 38102.17200000009,
      "d": 36.496333333336224,
      "v": 45
    },
    {
      "midi": 38,
      "hit": false,
      "t": 38102.17200000009,
      "d": 218.9780000000028,
      "v": 127
    },
    {
      "midi": 42,
      "hit": false,
      "t": 38102.17200000011,
      "d": 54.7445000000007,
      "v": 98
    },
    {
      "midi": 36,
      "hit": false,
      "t": 38102.17200000011,
      "d": 63.868583333336574,
      "v": 127
    },
    {
      "midi": 81,
      "hit": false,
      "t": 38105.82163333338,
      "d": 270.07286666666914,
      "v": 97
    },
    {
      "midi": 69,
      "hit": false,
      "t": 38114.94571666678,
      "d": 264.5984166666676,
      "v": 107
    },
    {
      "midi": 61,
      "hit": false,
      "t": 38114.94571666678,
      "d": 273.7225000000035,
      "v": 94
    },
    {
      "midi": 64,
      "hit": false,
      "t": 38114.94571666678,
      "d": 279.196950000005,
      "v": 103
    },
    {
      "midi": 42,
      "hit": false,
      "t": 38211.661000000095,
      "d": 45.62041666666482,
      "v": 45
    },
    {
      "midi": 42,
      "hit": false,
      "t": 38211.66100000011,
      "d": 72.99266666666517,
      "v": 98
    },
    {
      "midi": 46,
      "hit": false,
      "t": 38321.15000000002,
      "d": 85.7663833333354,
      "v": 80
    },
    {
      "midi": 46,
      "hit": false,
      "t": 38321.150000000096,
      "d": 36.496333333336224,
      "v": 45
    },
    {
      "midi": 38,
      "hit": false,
      "t": 38321.150000000096,
      "d": 218.9780000000028,
      "v": 127
    },
    {
      "midi": 46,
      "hit": false,
      "t": 38321.15000000011,
      "d": 218.9780000000028,
      "v": 98
    },
    {
      "midi": 79,
      "hit": false,
      "t": 38397.792300000045,
      "d": 91.24083333333692,
      "v": 97
    },
    {
      "midi": 61,
      "hit": false,
      "t": 38403.266750000046,
      "d": 100.36491666666552,
      "v": 93
    },
    {
      "midi": 64,
      "hit": false,
      "t": 38403.266750000046,
      "d": 109.4890000000014,
      "v": 94
    },
    {
      "midi": 69,
      "hit": false,
      "t": 38403.266750000046,
      "d": 122.26271666667162,
      "v": 97
    },
    {
      "midi": 36,
      "hit": false,
      "t": 38540.127999999924,
      "d": 51.09486666666635,
      "v": 107
    },
    {
      "midi": 36,
      "hit": false,
      "t": 38540.127999999924,
      "d": 51.09486666666635,
      "v": 107
    },
    {
      "midi": 35,
      "hit": false,
      "t": 38540.128000000026,
      "d": 85.7663833333354,
      "v": 107
    },
    {
      "midi": 42,
      "hit": false,
      "t": 38540.128000000026,
      "d": 85.7663833333354,
      "v": 107
    },
    {
      "midi": 42,
      "hit": false,
      "t": 38540.1280000001,
      "d": 36.496333333336224,
      "v": 45
    },
    {
      "midi": 36,
      "hit": false,
      "t": 38540.1280000001,
      "d": 437.9560000000056,
      "v": 120
    },
    {
      "midi": 42,
      "hit": false,
      "t": 38540.12800000011,
      "d": 45.62041666666482,
      "v": 98
    },
    {
      "midi": 36,
      "hit": false,
      "t": 38540.12800000011,
      "d": 54.7445000000007,
      "v": 127
    },
    {
      "midi": 43,
      "hit": false,
      "t": 38543.77763333334,
      "d": 297.4451166666695,
      "v": 115
    },
    {
      "midi": 74,
      "hit": false,
      "t": 38543.77763333338,
      "d": 1310.2183666666679,
      "v": 97
    },
    {
      "midi": 62,
      "hit": false,
      "t": 38543.77763333345,
      "d": 434.30636666667124,
      "v": 97
    },
    {
      "midi": 67,
      "hit": false,
      "t": 38549.25208333345,
      "d": 428.8319166666697,
      "v": 100
    },
    {
      "midi": 83,
      "hit": false,
      "t": 38552.90171666672,
      "d": 1301.094283333332,
      "v": 97
    },
    {
      "midi": 71,
      "hit": false,
      "t": 38552.90171666678,
      "d": 425.18228333333536,
      "v": 103
    },
    {
      "midi": 62,
      "hit": false,
      "t": 38558.37616666672,
      "d": 273.7225000000035,
      "v": 93
    },
    {
      "midi": 67,
      "hit": false,
      "t": 38558.37616666672,
      "d": 273.7225000000035,
      "v": 98
    },
    {
      "midi": 71,
      "hit": false,
      "t": 38558.37616666672,
      "d": 273.7225000000035,
      "v": 95
    },
    {
      "midi": 57,
      "hit": false,
      "t": 38562.025800000134,
      "d": 270.07286666669097,
      "v": 127
    },
    {
      "midi": 57,
      "hit": false,
      "t": 38562.025800000134,
      "d": 270.07286666669097,
      "v": 127
    },
    {
      "midi": 57,
      "hit": false,
      "t": 38562.025800000134,
      "d": 270.07286666669097,
      "v": 127
    },
    {
      "midi": 57,
      "hit": false,
      "t": 38562.025800000134,
      "d": 270.07286666669097,
      "v": 127
    },
    {
      "midi": 49,
      "hit": false,
      "t": 38567.5002500001,
      "d": 1085.765916666678,
      "v": 127
    },
    {
      "midi": 42,
      "hit": false,
      "t": 38649.6170000001,
      "d": 45.62041666666482,
      "v": 45
    },
    {
      "midi": 42,
      "hit": false,
      "t": 38649.617000000115,
      "d": 63.868583333336574,
      "v": 98
    },
    {
      "midi": 46,
      "hit": false,
      "t": 38759.10600000003,
      "d": 85.7663833333354,
      "v": 80
    },
    {
      "midi": 42,
      "hit": false,
      "t": 38759.1060000001,
      "d": 45.62041666666482,
      "v": 45
    },
    {
      "midi": 46,
      "hit": false,
      "t": 38759.106000000116,
      "d": 218.9780000000028,
      "v": 98
    },
    {
      "midi": 62,
      "hit": false,
      "t": 38841.22275000006,
      "d": 82.11675000000105,
      "v": 88
    },
    {
      "midi": 67,
      "hit": false,
      "t": 38841.22275000006,
      "d": 100.36491666666552,
      "v": 93
    },
    {
      "midi": 71,
      "hit": false,
      "t": 38841.22275000006,
      "d": 100.36491666666552,
      "v": 94
    },
    {
      "midi": 42,
      "hit": false,
      "t": 38868.5950000001,
      "d": 45.62041666666482,
      "v": 45
    },
    {
      "midi": 36,
      "hit": false,
      "t": 38978.08399999992,
      "d": 51.09486666666635,
      "v": 107
    },
    {
      "midi": 36,
      "hit": false,
      "t": 38978.08399999992,
      "d": 51.09486666666635,
      "v": 107
    },
    {
      "midi": 43,
      "hit": false,
      "t": 38978.08400000001,
      "d": 264.5984166666676,
      "v": 116
    },
    {
      "midi": 35,
      "hit": false,
      "t": 38978.08400000003,
      "d": 85.7663833333354,
      "v": 107
    },
    {
      "midi": 42,
      "hit": false,
      "t": 38978.08400000003,
      "d": 85.7663833333354,
      "v": 107
    },
    {
      "midi": 42,
      "hit": false,
      "t": 38978.084000000104,
      "d": 45.62041666666482,
      "v": 45
    },
    {
      "midi": 38,
      "hit": false,
      "t": 38978.084000000104,
      "d": 437.9560000000056,
      "v": 127
    },
    {
      "midi": 42,
      "hit": false,
      "t": 38978.08400000012,
      "d": 45.62041666666482,
      "v": 98
    },
    {
      "midi": 36,
      "hit": false,
      "t": 38978.08400000012,
      "d": 54.7445000000007,
      "v": 127
    },
    {
      "midi": 62,
      "hit": false,
      "t": 38981.73363333345,
      "d": 434.30636666667124,
      "v": 93
    },
    {
      "midi": 67,
      "hit": false,
      "t": 38987.208083333455,
      "d": 428.8319166666697,
      "v": 94
    },
    {
      "midi": 71,
      "hit": false,
      "t": 38987.208083333455,
      "d": 428.8319166666697,
      "v": 95
    },
    {
      "midi": 57,
      "hit": false,
      "t": 38990.857716666826,
      "d": 425.18228333333536,
      "v": 127
    },
    {
      "midi": 57,
      "hit": false,
      "t": 38990.857716666826,
      "d": 425.18228333333536,
      "v": 127
    },
    {
      "midi": 57,
      "hit": false,
      "t": 38990.857716666826,
      "d": 425.18228333333536,
      "v": 127
    },
    {
      "midi": 57,
      "hit": false,
      "t": 38990.857716666826,
      "d": 425.18228333333536,
      "v": 127
    },
    {
      "midi": 42,
      "hit": false,
      "t": 39087.573000000106,
      "d": 36.496333333336224,
      "v": 45
    },
    {
      "midi": 42,
      "hit": false,
      "t": 39087.57300000012,
      "d": 63.868583333336574,
      "v": 98
    },
    {
      "midi": 46,
      "hit": false,
      "t": 39197.062000000034,
      "d": 85.7663833333354,
      "v": 80
    },
    {
      "midi": 42,
      "hit": false,
      "t": 39197.06200000011,
      "d": 36.496333333336224,
      "v": 45
    },
    {
      "midi": 46,
      "hit": false,
      "t": 39197.06200000012,
      "d": 218.9780000000028,
      "v": 98
    },
    {
      "midi": 62,
      "hit": false,
      "t": 39273.704300000056,
      "d": 105.83936666666705,
      "v": 91
    },
    {
      "midi": 71,
      "hit": false,
      "t": 39279.17875000006,
      "d": 104.01454999999987,
      "v": 94
    },
    {
      "midi": 67,
      "hit": false,
      "t": 39279.17875000006,
      "d": 113.13863333333575,
      "v": 93
    },
    {
      "midi": 42,
      "hit": false,
      "t": 39306.55100000011,
      "d": 45.62041666666482,
      "v": 45
    },
    {
      "midi": 36,
      "hit": false,
      "t": 39306.55100000011,
      "d": 109.4890000000014,
      "v": 120
    },
    {
      "midi": 36,
      "hit": false,
      "t": 39416.03999999992,
      "d": 51.09486666666635,
      "v": 107
    },
    {
      "midi": 36,
      "hit": false,
      "t": 39416.03999999992,
      "d": 51.09486666666635,
      "v": 107
    },
    {
      "midi": 43,
      "hit": false,
      "t": 39416.04000000001,
      "d": 268.24805000000197,
      "v": 118
    },
    {
      "midi": 35,
      "hit": false,
      "t": 39416.04000000004,
      "d": 85.7663833333354,
      "v": 107
    },
    {
      "midi": 42,
      "hit": false,
      "t": 39416.04000000004,
      "d": 85.7663833333354,
      "v": 107
    },
    {
      "midi": 42,
      "hit": false,
      "t": 39416.04000000011,
      "d": 45.62041666666482,
      "v": 45
    },
    {
      "midi": 36,
      "hit": false,
      "t": 39416.04000000011,
      "d": 218.9780000000028,
      "v": 120
    },
    {
      "midi": 42,
      "hit": false,
      "t": 39416.040000000125,
      "d": 45.62041666666482,
      "v": 98
    },
    {
      "midi": 36,
      "hit": false,
      "t": 39416.040000000125,
      "d": 63.8685833333293,
      "v": 127
    },
    {
      "midi": 62,
      "hit": false,
      "t": 39419.68963333346,
      "d": 434.30636666667124,
      "v": 94
    },
    {
      "midi": 67,
      "hit": false,
      "t": 39425.16408333346,
      "d": 428.8319166666697,
      "v": 98
    },
    {
      "midi": 71,
      "hit": false,
      "t": 39425.16408333346,
      "d": 428.8319166666697,
      "v": 98
    },
    {
      "midi": 55,
      "hit": false,
      "t": 39428.81371666683,
      "d": 775.5470833333311,
      "v": 127
    },
    {
      "midi": 55,
      "hit": false,
      "t": 39428.81371666683,
      "d": 775.5470833333311,
      "v": 127
    },
    {
      "midi": 55,
      "hit": false,
      "t": 39428.81371666683,
      "d": 775.5470833333311,
      "v": 127
    },
    {
      "midi": 55,
      "hit": false,
      "t": 39428.81371666683,
      "d": 775.5470833333311,
      "v": 127
    },
    {
      "midi": 42,
      "hit": false,
      "t": 39525.52900000011,
      "d": 45.62041666666482,
      "v": 45
    },
    {
      "midi": 42,
      "hit": false,
      "t": 39525.52900000012,
      "d": 63.868583333336574,
      "v": 98
    },
    {
      "midi": 46,
      "hit": false,
      "t": 39635.01800000004,
      "d": 85.7663833333354,
      "v": 80
    },
    {
      "midi": 42,
      "hit": false,
      "t": 39635.01800000011,
      "d": 36.49633333332895,
      "v": 45
    },
    {
      "midi": 36,
      "hit": false,
      "t": 39635.01800000011,
      "d": 218.97799999999552,
      "v": 120
    },
    {
      "midi": 46,
      "hit": false,
      "t": 39635.01800000012,
      "d": 218.9780000000028,
      "v": 98
    },
    {
      "midi": 62,
      "hit": false,
      "t": 39717.13475000006,
      "d": 109.4890000000014,
      "v": 92
    },
    {
      "midi": 71,
      "hit": false,
      "t": 39717.13475000006,
      "d": 122.26271666667162,
      "v": 95
    },
    {
      "midi": 67,
      "hit": false,
      "t": 39717.13475000006,
      "d": 131.3868000000075,
      "v": 93
    },
    {
      "midi": 42,
      "hit": false,
      "t": 39744.50700000011,
      "d": 36.496333333336224,
      "v": 45
    },
    {
      "midi": 36,
      "hit": false,
      "t": 39853.99599999992,
      "d": 51.09486666666635,
      "v": 107
    },
    {
      "midi": 36,
      "hit": false,
      "t": 39853.99599999992,
      "d": 51.09486666666635,
      "v": 107
    },
    {
      "midi": 43,
      "hit": false,
      "t": 39853.996000000014,
      "d": 268.24805000000197,
      "v": 118
    },
    {
      "midi": 35,
      "hit": false,
      "t": 39853.99600000004,
      "d": 85.7663833333354,
      "v": 107
    },
    {
      "midi": 42,
      "hit": false,
      "t": 39853.99600000004,
      "d": 85.7663833333354,
      "v": 107
    },
    {
      "midi": 42,
      "hit": false,
      "t": 39853.99600000011,
      "d": 36.496333333336224,
      "v": 45
    },
    {
      "midi": 38,
      "hit": false,
      "t": 39853.99600000011,
      "d": 218.9780000000028,
      "v": 127
    },
    {
      "midi": 42,
      "hit": false,
      "t": 39853.99600000012,
      "d": 54.7445000000007,
      "v": 98
    },
    {
      "midi": 36,
      "hit": false,
      "t": 39853.99600000012,
      "d": 63.868583333336574,
      "v": 127
    },
    {
      "midi": 74,
      "hit": false,
      "t": 39857.645633333384,
      "d": 437.9560000000056,
      "v": 97
    },
    {
      "midi": 62,
      "hit": false,
      "t": 39857.645633333465,
      "d": 434.30636666667124,
      "v": 94
    },
    {
      "midi": 67,
      "hit": false,
      "t": 39863.120083333466,
      "d": 428.8319166666697,
      "v": 98
    },
    {
      "midi": 71,
      "hit": false,
      "t": 39863.120083333466,
      "d": 428.8319166666697,
      "v": 100
    },
    {
      "midi": 86,
      "hit": false,
      "t": 39866.76971666672,
      "d": 397.810033333335,
      "v": 97
    },
    {
      "midi": 42,
      "hit": false,
      "t": 39963.48500000011,
      "d": 36.496333333336224,
      "v": 45
    },
    {
      "midi": 42,
      "hit": false,
      "t": 39963.485000000124,
      "d": 72.99266666666517,
      "v": 98
    },
    {
      "midi": 46,
      "hit": false,
      "t": 40072.974000000046,
      "d": 85.7663833333354,
      "v": 80
    },
    {
      "midi": 42,
      "hit": false,
      "t": 40072.97400000011,
      "d": 36.496333333336224,
      "v": 45
    },
    {
      "midi": 36,
      "hit": false,
      "t": 40072.97400000011,
      "d": 218.9780000000028,
      "v": 120
    },
    {
      "midi": 46,
      "hit": false,
      "t": 40072.974000000126,
      "d": 218.9780000000028,
      "v": 98
    },
    {
      "midi": 62,
      "hit": false,
      "t": 40149.61630000007,
      "d": 51.09486666666635,
      "v": 94
    },
    {
      "midi": 67,
      "hit": false,
      "t": 40155.09075000007,
      "d": 67.51821666666365,
      "v": 97
    },
    {
      "midi": 71,
      "hit": false,
      "t": 40155.09075000007,
      "d": 72.99266666666517,
      "v": 97
    },
    {
      "midi": 36,
      "hit": false,
      "t": 40182.462999999916,
      "d": 51.09486666666635,
      "v": 67
    },
    {
      "midi": 36,
      "hit": false,
      "t": 40182.462999999916,
      "d": 51.09486666666635,
      "v": 67
    },
    {
      "midi": 35,
      "hit": false,
      "t": 40182.46300000005,
      "d": 85.7663833333354,
      "v": 97
    },
    {
      "midi": 42,
      "hit": false,
      "t": 40182.46300000005,
      "d": 85.7663833333354,
      "v": 107
    },
    {
      "midi": 42,
      "hit": false,
      "t": 40182.46300000011,
      "d": 45.62041666666482,
      "v": 45
    },
    {
      "midi": 36,
      "hit": false,
      "t": 40291.95199999992,
      "d": 51.09486666666635,
      "v": 107
    },
    {
      "midi": 36,
      "hit": false,
      "t": 40291.95199999992,
      "d": 51.09486666666635,
      "v": 107
    },
    {
      "midi": 35,
      "hit": false,
      "t": 40291.95200000005,
      "d": 85.7663833333354,
      "v": 107
    },
    {
      "midi": 42,
      "hit": false,
      "t": 40291.95200000005,
      "d": 85.7663833333354,
      "v": 107
    },
    {
      "midi": 42,
      "hit": false,
      "t": 40291.952000000114,
      "d": 36.496333333336224,
      "v": 45
    },
    {
      "midi": 36,
      "hit": false,
      "t": 40291.952000000114,
      "d": 437.9560000000056,
      "v": 120
    },
    {
      "midi": 42,
      "hit": false,
      "t": 40291.95200000013,
      "d": 45.62041666666482,
      "v": 98
    },
    {
      "midi": 36,
      "hit": false,
      "t": 40291.95200000013,
      "d": 54.7445000000007,
      "v": 127
    },
    {
      "midi": 45,
      "hit": false,
      "t": 40295.60163333335,
      "d": 273.7225000000035,
      "v": 117
    },
    {
      "midi": 76,
      "hit": false,
      "t": 40295.60163333339,
      "d": 1611.3131166666644,
      "v": 97
    },
    {
      "midi": 61,
      "hit": false,
      "t": 40301.07608333347,
      "d": 428.8319166666697,
      "v": 95
    },
    {
      "midi": 64,
      "hit": false,
      "t": 40301.07608333347,
      "d": 428.8319166666697,
      "v": 95
    },
    {
      "midi": 69,
      "hit": false,
      "t": 40304.725716666806,
      "d": 425.18228333333536,
      "v": 100
    },
    {
      "midi": 85,
      "hit": false,
      "t": 40310.20016666672,
      "d": 1532.8459999999977,
      "v": 97
    },
    {
      "midi": 61,
      "hit": false,
      "t": 40310.200166666735,
      "d": 273.7225000000035,
      "v": 90
    },
    {
      "midi": 64,
      "hit": false,
      "t": 40310.200166666735,
      "d": 273.7225000000035,
      "v": 91
    },
    {
      "midi": 69,
      "hit": false,
      "t": 40313.84980000007,
      "d": 270.07286666666914,
      "v": 93
    },
    {
      "midi": 51,
      "hit": false,
      "t": 40319.324250000165,
      "d": 21.897799999998824,
      "v": 127
    },
    {
      "midi": 51,
      "hit": false,
      "t": 40319.324250000165,
      "d": 21.897799999998824,
      "v": 127
    },
    {
      "midi": 51,
      "hit": false,
      "t": 40319.324250000165,
      "d": 21.897799999998824,
      "v": 127
    },
    {
      "midi": 51,
      "hit": false,
      "t": 40319.324250000165,
      "d": 21.897799999998824,
      "v": 127
    },
    {
      "midi": 52,
      "hit": false,
      "t": 40341.222050000164,
      "d": 319.3429166666683,
      "v": 127
    },
    {
      "midi": 52,
      "hit": false,
      "t": 40341.222050000164,
      "d": 319.3429166666683,
      "v": 127
    },
    {
      "midi": 52,
      "hit": false,
      "t": 40341.222050000164,
      "d": 319.3429166666683,
      "v": 127
    },
    {
      "midi": 52,
      "hit": false,
      "t": 40341.222050000164,
      "d": 319.3429166666683,
      "v": 127
    },
    {
      "midi": 42,
      "hit": false,
      "t": 40401.441000000115,
      "d": 36.496333333336224,
      "v": 45
    },
    {
      "midi": 42,
      "hit": false,
      "t": 40401.44100000013,
      "d": 63.868583333336574,
      "v": 98
    },
    {
      "midi": 46,
      "hit": false,
      "t": 40510.93000000005,
      "d": 85.7663833333354,
      "v": 80
    },
    {
      "midi": 42,
      "hit": false,
      "t": 40510.93000000012,
      "d": 36.496333333336224,
      "v": 45
    },
    {
      "midi": 46,
      "hit": false,
      "t": 40510.93000000013,
      "d": 218.9780000000028,
      "v": 98
    },
    {
      "midi": 61,
      "hit": false,
      "t": 40587.57230000007,
      "d": 114.96345000000292,
      "v": 91
    },
    {
      "midi": 64,
      "hit": false,
      "t": 40593.046750000074,
      "d": 118.61308333333727,
      "v": 94
    },
    {
      "midi": 69,
      "hit": false,
      "t": 40593.046750000074,
      "d": 122.26271666667162,
      "v": 92
    },
    {
      "midi": 42,
      "hit": false,
      "t": 40620.41900000012,
      "d": 36.496333333336224,
      "v": 45
    },
    {
      "midi": 36,
      "hit": false,
      "t": 40729.907999999916,
      "d": 51.09486666666635,
      "v": 107
    },
    {
      "midi": 36,
      "hit": false,
      "t": 40729.907999999916,
      "d": 51.09486666666635,
      "v": 107
    },
    {
      "midi": 45,
      "hit": false,
      "t": 40729.90800000002,
      "d": 231.75171666666574,
      "v": 116
    },
    {
      "midi": 35,
      "hit": false,
      "t": 40729.908000000054,
      "d": 85.7663833333354,
      "v": 107
    },
    {
      "midi": 42,
      "hit": false,
      "t": 40729.908000000054,
      "d": 85.7663833333354,
      "v": 107
    },
    {
      "midi": 42,
      "hit": false,
      "t": 40729.90800000012,
      "d": 45.62041666666482,
      "v": 45
    },
    {
      "midi": 38,
      "hit": false,
      "t": 40729.90800000012,
      "d": 328.4670000000042,
      "v": 127
    },
    {
      "midi": 42,
      "hit": false,
      "t": 40729.908000000134,
      "d": 45.62041666666482,
      "v": 98
    },
    {
      "midi": 36,
      "hit": false,
      "t": 40729.908000000134,
      "d": 54.7445000000007,
      "v": 127
    },
    {
      "midi": 61,
      "hit": false,
      "t": 40733.557633333476,
      "d": 434.30636666667124,
      "v": 95
    },
    {
      "midi": 64,
      "hit": false,
      "t": 40739.03208333348,
      "d": 428.8319166666697,
      "v": 98
    },
    {
      "midi": 69,
      "hit": false,
      "t": 40739.03208333348,
      "d": 428.8319166666697,
      "v": 100
    },
    {
      "midi": 59,
      "hit": false,
      "t": 40742.68171666683,
      "d": 279.19695000001957,
      "v": 127
    },
    {
      "midi": 59,
      "hit": false,
      "t": 40742.68171666683,
      "d": 279.19695000001957,
      "v": 127
    },
    {
      "midi": 59,
      "hit": false,
      "t": 40742.68171666683,
      "d": 279.19695000001957,
      "v": 127
    },
    {
      "midi": 59,
      "hit": false,
      "t": 40742.68171666683,
      "d": 279.19695000001957,
      "v": 127
    },
    {
      "midi": 42,
      "hit": false,
      "t": 40839.39700000012,
      "d": 45.62041666666482,
      "v": 45
    },
    {
      "midi": 42,
      "hit": false,
      "t": 40839.397000000135,
      "d": 63.868583333336574,
      "v": 98
    },
    {
      "midi": 46,
      "hit": false,
      "t": 40948.88600000006,
      "d": 85.7663833333354,
      "v": 80
    },
    {
      "midi": 42,
      "hit": false,
      "t": 40948.88600000012,
      "d": 45.62041666666482,
      "v": 45
    },
    {
      "midi": 46,
      "hit": false,
      "t": 40948.88600000014,
      "d": 218.9780000000028,
      "v": 98
    },
    {
      "midi": 61,
      "hit": false,
      "t": 41031.00275000008,
      "d": 122.26271666666435,
      "v": 91
    },
    {
      "midi": 64,
      "hit": false,
      "t": 41031.00275000008,
      "d": 131.38680000000022,
      "v": 93
    },
    {
      "midi": 69,
      "hit": false,
      "t": 41031.00275000008,
      "d": 149.6349666666647,
      "v": 94
    },
    {
      "midi": 59,
      "hit": false,
      "t": 41031.00275000019,
      "d": 149.6349666666647,
      "v": 127
    },
    {
      "midi": 59,
      "hit": false,
      "t": 41031.00275000019,
      "d": 149.6349666666647,
      "v": 127
    },
    {
      "midi": 59,
      "hit": false,
      "t": 41031.00275000019,
      "d": 149.6349666666647,
      "v": 127
    },
    {
      "midi": 59,
      "hit": false,
      "t": 41031.00275000019,
      "d": 149.6349666666647,
      "v": 127
    },
    {
      "midi": 42,
      "hit": false,
      "t": 41058.375000000124,
      "d": 45.62041666666482,
      "v": 45
    },
    {
      "midi": 36,
      "hit": false,
      "t": 41058.375000000124,
      "d": 109.4890000000014,
      "v": 120
    },
    {
      "midi": 36,
      "hit": false,
      "t": 41167.863999999914,
      "d": 51.09486666666635,
      "v": 107
    },
    {
      "midi": 36,
      "hit": false,
      "t": 41167.863999999914,
      "d": 51.09486666666635,
      "v": 107
    },
    {
      "midi": 45,
      "hit": false,
      "t": 41167.864000000016,
      "d": 259.1239666666661,
      "v": 117
    },
    {
      "midi": 35,
      "hit": false,
      "t": 41167.86400000006,
      "d": 85.7663833333354,
      "v": 107
    },
    {
      "midi": 42,
      "hit": false,
      "t": 41167.86400000006,
      "d": 85.7663833333354,
      "v": 107
    },
    {
      "midi": 42,
      "hit": false,
      "t": 41167.864000000125,
      "d": 45.62041666666482,
      "v": 45
    },
    {
      "midi": 36,
      "hit": false,
      "t": 41167.864000000125,
      "d": 218.9780000000028,
      "v": 120
    },
    {
      "midi": 42,
      "hit": false,
      "t": 41167.86400000014,
      "d": 45.62041666666482,
      "v": 98
    },
    {
      "midi": 36,
      "hit": false,
      "t": 41167.86400000014,
      "d": 54.7445000000007,
      "v": 127
    },
    {
      "midi": 61,
      "hit": false,
      "t": 41171.51363333348,
      "d": 434.30636666667124,
      "v": 93
    },
    {
      "midi": 64,
      "hit": false,
      "t": 41176.98808333348,
      "d": 428.8319166666697,
      "v": 94
    },
    {
      "midi": 69,
      "hit": false,
      "t": 41176.98808333348,
      "d": 428.8319166666697,
      "v": 100
    },
    {
      "midi": 57,
      "hit": false,
      "t": 41180.63771666685,
      "d": 279.19694999999774,
      "v": 127
    },
    {
      "midi": 57,
      "hit": false,
      "t": 41180.63771666685,
      "d": 279.19694999999774,
      "v": 127
    },
    {
      "midi": 57,
      "hit": false,
      "t": 41180.63771666685,
      "d": 279.19694999999774,
      "v": 127
    },
    {
      "midi": 57,
      "hit": false,
      "t": 41180.63771666685,
      "d": 279.19694999999774,
      "v": 127
    },
    {
      "midi": 42,
      "hit": false,
      "t": 41277.35300000013,
      "d": 45.62041666666482,
      "v": 45
    },
    {
      "midi": 42,
      "hit": false,
      "t": 41277.35300000014,
      "d": 63.868583333336574,
      "v": 98
    },
    {
      "midi": 46,
      "hit": false,
      "t": 41386.84200000006,
      "d": 85.7663833333354,
      "v": 80
    },
    {
      "midi": 42,
      "hit": false,
      "t": 41386.84200000013,
      "d": 45.62041666666482,
      "v": 45
    },
    {
      "midi": 36,
      "hit": false,
      "t": 41386.84200000013,
      "d": 218.9780000000028,
      "v": 120
    },
    {
      "midi": 46,
      "hit": false,
      "t": 41386.84200000014,
      "d": 218.9780000000028,
      "v": 98
    },
    {
      "midi": 61,
      "hit": false,
      "t": 41468.95875000008,
      "d": 109.4890000000014,
      "v": 91
    },
    {
      "midi": 64,
      "hit": false,
      "t": 41468.95875000008,
      "d": 122.26271666667162,
      "v": 91
    },
    {
      "midi": 69,
      "hit": false,
      "t": 41468.95875000008,
      "d": 136.86125000000175,
      "v": 91
    },
    {
      "midi": 59,
      "hit": false,
      "t": 41468.95875000019,
      "d": 140.5108833333361,
      "v": 127
    },
    {
      "midi": 59,
      "hit": false,
      "t": 41468.95875000019,
      "d": 140.5108833333361,
      "v": 127
    },
    {
      "midi": 59,
      "hit": false,
      "t": 41468.95875000019,
      "d": 140.5108833333361,
      "v": 127
    },
    {
      "midi": 59,
      "hit": false,
      "t": 41468.95875000019,
      "d": 140.5108833333361,
      "v": 127
    },
    {
      "midi": 42,
      "hit": false,
      "t": 41496.33100000013,
      "d": 36.496333333336224,
      "v": 45
    },
    {
      "midi": 36,
      "hit": false,
      "t": 41605.81999999991,
      "d": 51.09486666666635,
      "v": 107
    },
    {
      "midi": 36,
      "hit": false,
      "t": 41605.81999999991,
      "d": 51.09486666666635,
      "v": 107
    },
    {
      "midi": 35,
      "hit": false,
      "t": 41605.820000000065,
      "d": 85.7663833333354,
      "v": 107
    },
    {
      "midi": 42,
      "hit": false,
      "t": 41605.820000000065,
      "d": 85.7663833333354,
      "v": 107
    },
    {
      "midi": 42,
      "hit": false,
      "t": 41605.82000000013,
      "d": 36.496333333336224,
      "v": 45
    },
    {
      "midi": 38,
      "hit": false,
      "t": 41605.82000000013,
      "d": 218.9780000000028,
      "v": 127
    },
    {
      "midi": 42,
      "hit": false,
      "t": 41605.820000000145,
      "d": 54.7445000000007,
      "v": 98
    },
    {
      "midi": 36,
      "hit": false,
      "t": 41605.820000000145,
      "d": 54.7445000000007,
      "v": 127
    },
    {
      "midi": 45,
      "hit": false,
      "t": 41609.46963333335,
      "d": 206.20428333333257,
      "v": 116
    },
    {
      "midi": 61,
      "hit": false,
      "t": 41614.94408333349,
      "d": 428.8319166666697,
      "v": 94
    },
    {
      "midi": 64,
      "hit": false,
      "t": 41614.94408333349,
      "d": 432.48155000000406,
      "v": 94
    },
    {
      "midi": 69,
      "hit": false,
      "t": 41618.59371666682,
      "d": 434.30636666667124,
      "v": 97
    },
    {
      "midi": 57,
      "hit": false,
      "t": 41618.59371666686,
      "d": 279.19694999999774,
      "v": 127
    },
    {
      "midi": 57,
      "hit": false,
      "t": 41618.59371666686,
      "d": 279.19694999999774,
      "v": 127
    },
    {
      "midi": 57,
      "hit": false,
      "t": 41618.59371666686,
      "d": 279.19694999999774,
      "v": 127
    },
    {
      "midi": 57,
      "hit": false,
      "t": 41618.59371666686,
      "d": 279.19694999999774,
      "v": 127
    },
    {
      "midi": 42,
      "hit": false,
      "t": 41715.30900000013,
      "d": 36.496333333336224,
      "v": 45
    },
    {
      "midi": 42,
      "hit": false,
      "t": 41715.30900000015,
      "d": 72.99266666666517,
      "v": 98
    },
    {
      "midi": 46,
      "hit": false,
      "t": 41824.79800000007,
      "d": 85.7663833333354,
      "v": 80
    },
    {
      "midi": 46,
      "hit": false,
      "t": 41824.79800000013,
      "d": 45.62041666666482,
      "v": 45
    },
    {
      "midi": 36,
      "hit": false,
      "t": 41824.79800000013,
      "d": 218.97799999999552,
      "v": 120
    },
    {
      "midi": 46,
      "hit": false,
      "t": 41824.79800000015,
      "d": 218.9780000000028,
      "v": 98
    },
    {
      "midi": 33,
      "hit": false,
      "t": 41897.79066666668,
      "d": 54.7445000000007,
      "v": 114
    },
    {
      "midi": 74,
      "hit": false,
      "t": 41901.44030000005,
      "d": 151.45978333333187,
      "v": 97
    },
    {
      "midi": 83,
      "hit": false,
      "t": 41906.914750000054,
      "d": 145.98533333333035,
      "v": 97
    },
    {
      "midi": 61,
      "hit": false,
      "t": 41910.56438333341,
      "d": 133.2116166666674,
      "v": 91
    },
    {
      "midi": 64,
      "hit": false,
      "t": 41910.56438333341,
      "d": 133.2116166666674,
      "v": 91
    },
    {
      "midi": 69,
      "hit": false,
      "t": 41910.56438333341,
      "d": 136.86125000000175,
      "v": 88
    },
    {
      "midi": 55,
      "hit": false,
      "t": 41916.03883333352,
      "d": 164.2335000000021,
      "v": 127
    },
    {
      "midi": 55,
      "hit": false,
      "t": 41916.03883333352,
      "d": 164.2335000000021,
      "v": 127
    },
    {
      "midi": 55,
      "hit": false,
      "t": 41916.03883333352,
      "d": 164.2335000000021,
      "v": 127
    },
    {
      "midi": 55,
      "hit": false,
      "t": 41916.03883333352,
      "d": 164.2335000000021,
      "v": 127
    },
    {
      "midi": 36,
      "hit": false,
      "t": 42043.77599999991,
      "d": 51.09486666666635,
      "v": 107
    },
    {
      "midi": 36,
      "hit": false,
      "t": 42043.77599999991,
      "d": 51.09486666666635,
      "v": 107
    },
    {
      "midi": 33,
      "hit": false,
      "t": 42043.77599999998,
      "d": 204.3794666666654,
      "v": 127
    },
    {
      "midi": 35,
      "hit": false,
      "t": 42043.77600000007,
      "d": 85.7663833333354,
      "v": 107
    },
    {
      "midi": 42,
      "hit": false,
      "t": 42043.77600000007,
      "d": 85.7663833333354,
      "v": 107
    },
    {
      "midi": 42,
      "hit": false,
      "t": 42043.77600000013,
      "d": 36.496333333336224,
      "v": 45
    },
    {
      "midi": 36,
      "hit": false,
      "t": 42043.77600000013,
      "d": 437.9560000000056,
      "v": 120
    },
    {
      "midi": 42,
      "hit": false,
      "t": 42043.77600000015,
      "d": 45.62041666666482,
      "v": 98
    },
    {
      "midi": 36,
      "hit": false,
      "t": 42043.77600000015,
      "d": 54.7445000000007,
      "v": 127
    },
    {
      "midi": 73,
      "hit": false,
      "t": 42056.54971666672,
      "d": 100.36491666666552,
      "v": 97
    },
    {
      "midi": 33,
      "hit": false,
      "t": 42062.024166666684,
      "d": 286.49621666666644,
      "v": 121
    },
    {
      "midi": 81,
      "hit": false,
      "t": 42062.02416666672,
      "d": 94.890466666664,
      "v": 97
    },
    {
      "midi": 61,
      "hit": false,
      "t": 42065.67380000008,
      "d": 164.2335000000021,
      "v": 92
    },
    {
      "midi": 64,
      "hit": false,
      "t": 42065.67380000008,
      "d": 173.35758333333797,
      "v": 94
    },
    {
      "midi": 69,
      "hit": false,
      "t": 42065.67380000008,
      "d": 173.35758333333797,
      "v": 94
    },
    {
      "midi": 61,
      "hit": false,
      "t": 42071.14825000016,
      "d": 195.2553833333368,
      "v": 97
    },
    {
      "midi": 64,
      "hit": false,
      "t": 42071.14825000016,
      "d": 195.2553833333368,
      "v": 100
    },
    {
      "midi": 69,
      "hit": false,
      "t": 42071.14825000016,
      "d": 195.2553833333368,
      "v": 106
    },
    {
      "midi": 42,
      "hit": false,
      "t": 42153.26500000013,
      "d": 45.62041666666482,
      "v": 45
    },
    {
      "midi": 42,
      "hit": false,
      "t": 42153.26500000015,
      "d": 63.868583333336574,
      "v": 98
    },
    {
      "midi": 46,
      "hit": false,
      "t": 42262.75400000007,
      "d": 85.7663833333354,
      "v": 80
    },
    {
      "midi": 42,
      "hit": false,
      "t": 42262.75400000013,
      "d": 45.62041666666482,
      "v": 45
    },
    {
      "midi": 46,
      "hit": false,
      "t": 42262.75400000015,
      "d": 218.9780000000028,
      "v": 98
    },
    {
      "midi": 42,
      "hit": false,
      "t": 42372.24300000013,
      "d": 45.62041666666482,
      "v": 45
    },
    {
      "midi": 36,
      "hit": false,
      "t": 42481.73199999991,
      "d": 51.09486666666635,
      "v": 107
    },
    {
      "midi": 36,
      "hit": false,
      "t": 42481.73199999991,
      "d": 51.09486666666635,
      "v": 107
    },
    {
      "midi": 35,
      "hit": false,
      "t": 42481.73200000008,
      "d": 85.7663833333354,
      "v": 107
    },
    {
      "midi": 42,
      "hit": false,
      "t": 42481.73200000008,
      "d": 85.7663833333354,
      "v": 107
    },
    {
      "midi": 42,
      "hit": false,
      "t": 42481.732000000135,
      "d": 45.62041666666482,
      "v": 45
    },
    {
      "midi": 38,
      "hit": false,
      "t": 42481.732000000135,
      "d": 437.9560000000056,
      "v": 127
    },
    {
      "midi": 42,
      "hit": false,
      "t": 42481.73200000016,
      "d": 45.62041666666482,
      "v": 98
    },
    {
      "midi": 36,
      "hit": false,
      "t": 42481.73200000016,
      "d": 54.7445000000007,
      "v": 127
    },
    {
      "midi": 55,
      "hit": false,
      "t": 42485.38163333352,
      "d": 191.605750000017,
      "v": 127
    },
    {
      "midi": 55,
      "hit": false,
      "t": 42485.38163333352,
      "d": 191.605750000017,
      "v": 127
    },
    {
      "midi": 55,
      "hit": false,
      "t": 42485.38163333352,
      "d": 191.605750000017,
      "v": 127
    },
    {
      "midi": 55,
      "hit": false,
      "t": 42485.38163333352,
      "d": 191.605750000017,
      "v": 127
    },
    {
      "midi": 42,
      "hit": false,
      "t": 42591.221000000136,
      "d": 45.62041666666482,
      "v": 45
    },
    {
      "midi": 42,
      "hit": false,
      "t": 42591.22100000016,
      "d": 63.868583333336574,
      "v": 98
    },
    {
      "midi": 46,
      "hit": false,
      "t": 42700.71000000008,
      "d": 85.7663833333354,
      "v": 80
    },
    {
      "midi": 42,
      "hit": false,
      "t": 42700.71000000014,
      "d": 45.62041666666482,
      "v": 45
    },
    {
      "midi": 46,
      "hit": false,
      "t": 42700.71000000016,
      "d": 218.9780000000028,
      "v": 98
    },
    {
      "midi": 59,
      "hit": false,
      "t": 42777.3523000002,
      "d": 136.86125000000175,
      "v": 127
    },
    {
      "midi": 59,
      "hit": false,
      "t": 42777.3523000002,
      "d": 136.86125000000175,
      "v": 127
    },
    {
      "midi": 59,
      "hit": false,
      "t": 42777.3523000002,
      "d": 136.86125000000175,
      "v": 127
    },
    {
      "midi": 59,
      "hit": false,
      "t": 42777.3523000002,
      "d": 136.86125000000175,
      "v": 127
    },
    {
      "midi": 42,
      "hit": false,
      "t": 42810.19900000014,
      "d": 45.62041666666482,
      "v": 45
    },
    {
      "midi": 36,
      "hit": false,
      "t": 42810.19900000014,
      "d": 109.4890000000014,
      "v": 120
    },
    {
      "midi": 36,
      "hit": false,
      "t": 42919.68799999991,
      "d": 51.09486666666635,
      "v": 107
    },
    {
      "midi": 36,
      "hit": false,
      "t": 42919.68799999991,
      "d": 51.09486666666635,
      "v": 107
    },
    {
      "midi": 35,
      "hit": false,
      "t": 42919.68800000008,
      "d": 85.7663833333354,
      "v": 107
    },
    {
      "midi": 42,
      "hit": false,
      "t": 42919.68800000008,
      "d": 85.7663833333354,
      "v": 107
    },
    {
      "midi": 42,
      "hit": false,
      "t": 42919.68800000014,
      "d": 45.62041666666482,
      "v": 45
    },
    {
      "midi": 36,
      "hit": false,
      "t": 42919.68800000014,
      "d": 218.9780000000028,
      "v": 120
    },
    {
      "midi": 42,
      "hit": false,
      "t": 42919.68800000016,
      "d": 45.62041666666482,
      "v": 98
    },
    {
      "midi": 36,
      "hit": false,
      "t": 42919.68800000016,
      "d": 72.99266666666517,
      "v": 127
    },
    {
      "midi": 54,
      "hit": false,
      "t": 42923.33763333354,
      "d": 729.9266666666372,
      "v": 127
    },
    {
      "midi": 54,
      "hit": false,
      "t": 42923.33763333354,
      "d": 729.9266666666372,
      "v": 127
    },
    {
      "midi": 54,
      "hit": false,
      "t": 42923.33763333354,
      "d": 729.9266666666372,
      "v": 127
    },
    {
      "midi": 54,
      "hit": false,
      "t": 42923.33763333354,
      "d": 729.9266666666372,
      "v": 127
    },
    {
      "midi": 42,
      "hit": false,
      "t": 43029.17700000014,
      "d": 45.62041666666482,
      "v": 45
    },
    {
      "midi": 42,
      "hit": false,
      "t": 43029.17700000016,
      "d": 63.868583333336574,
      "v": 98
    },
    {
      "midi": 46,
      "hit": false,
      "t": 43138.666000000085,
      "d": 85.7663833333354,
      "v": 80
    },
    {
      "midi": 42,
      "hit": false,
      "t": 43138.66600000014,
      "d": 45.62041666666482,
      "v": 45
    },
    {
      "midi": 36,
      "hit": false,
      "t": 43138.66600000014,
      "d": 218.9780000000028,
      "v": 120
    },
    {
      "midi": 46,
      "hit": false,
      "t": 43138.666000000165,
      "d": 218.9780000000028,
      "v": 98
    },
    {
      "midi": 42,
      "hit": false,
      "t": 43248.155000000144,
      "d": 45.62041666666482,
      "v": 45
    },
    {
      "midi": 36,
      "hit": false,
      "t": 43357.643999999906,
      "d": 51.09486666666635,
      "v": 107
    },
    {
      "midi": 36,
      "hit": false,
      "t": 43357.643999999906,
      "d": 51.09486666666635,
      "v": 107
    },
    {
      "midi": 35,
      "hit": false,
      "t": 43357.64400000009,
      "d": 85.7663833333354,
      "v": 107
    },
    {
      "midi": 42,
      "hit": false,
      "t": 43357.64400000009,
      "d": 85.7663833333354,
      "v": 107
    },
    {
      "midi": 42,
      "hit": false,
      "t": 43357.644000000146,
      "d": 45.62041666666482,
      "v": 45
    },
    {
      "midi": 38,
      "hit": false,
      "t": 43357.644000000146,
      "d": 218.9780000000028,
      "v": 127
    },
    {
      "midi": 42,
      "hit": false,
      "t": 43357.64400000017,
      "d": 54.7445000000007,
      "v": 98
    },
    {
      "midi": 36,
      "hit": false,
      "t": 43357.64400000017,
      "d": 63.868583333336574,
      "v": 127
    },
    {
      "midi": 42,
      "hit": false,
      "t": 43467.13300000015,
      "d": 45.62041666666482,
      "v": 45
    },
    {
      "midi": 42,
      "hit": false,
      "t": 43467.13300000017,
      "d": 72.99266666666517,
      "v": 98
    },
    {
      "midi": 46,
      "hit": false,
      "t": 43576.62200000009,
      "d": 85.7663833333354,
      "v": 80
    },
    {
      "midi": 42,
      "hit": false,
      "t": 43576.62200000015,
      "d": 36.496333333336224,
      "v": 45
    },
    {
      "midi": 36,
      "hit": false,
      "t": 43576.62200000015,
      "d": 218.9780000000028,
      "v": 120
    },
    {
      "midi": 46,
      "hit": false,
      "t": 43576.62200000017,
      "d": 218.9780000000028,
      "v": 98
    },
    {
      "midi": 52,
      "hit": false,
      "t": 43653.26430000018,
      "d": 145.98533333333035,
      "v": 127
    },
    {
      "midi": 52,
      "hit": false,
      "t": 43653.26430000018,
      "d": 145.98533333333035,
      "v": 127
    },
    {
      "midi": 52,
      "hit": false,
      "t": 43653.26430000018,
      "d": 145.98533333333035,
      "v": 127
    },
    {
      "midi": 52,
      "hit": false,
      "t": 43653.26430000018,
      "d": 145.98533333333035,
      "v": 127
    },
    {
      "midi": 42,
      "hit": false,
      "t": 43686.11100000015,
      "d": 36.496333333336224,
      "v": 45
    },
    {
      "midi": 36,
      "hit": false,
      "t": 43795.599999999904,
      "d": 51.09486666666635,
      "v": 107
    },
    {
      "midi": 36,
      "hit": false,
      "t": 43795.599999999904,
      "d": 51.09486666666635,
      "v": 107
    },
    {
      "midi": 35,
      "hit": false,
      "t": 43795.60000000009,
      "d": 85.7663833333354,
      "v": 107
    },
    {
      "midi": 42,
      "hit": false,
      "t": 43795.60000000009,
      "d": 85.7663833333354,
      "v": 107
    },
    {
      "midi": 42,
      "hit": false,
      "t": 43795.60000000015,
      "d": 36.496333333336224,
      "v": 45
    },
    {
      "midi": 36,
      "hit": false,
      "t": 43795.60000000015,
      "d": 218.9780000000028,
      "v": 120
    },
    {
      "midi": 42,
      "hit": false,
      "t": 43795.60000000017,
      "d": 45.62041666666482,
      "v": 98
    },
    {
      "midi": 36,
      "hit": false,
      "t": 43795.60000000017,
      "d": 54.7445000000007,
      "v": 127
    },
    {
      "midi": 50,
      "hit": false,
      "t": 43799.24963333351,
      "d": 1733.575833333336,
      "v": 127
    },
    {
      "midi": 50,
      "hit": false,
      "t": 43799.24963333351,
      "d": 1733.575833333336,
      "v": 127
    },
    {
      "midi": 50,
      "hit": false,
      "t": 43799.24963333351,
      "d": 1733.575833333336,
      "v": 127
    },
    {
      "midi": 50,
      "hit": false,
      "t": 43799.24963333351,
      "d": 1733.575833333336,
      "v": 127
    },
    {
      "midi": 38,
      "hit": false,
      "t": 43804.72408333335,
      "d": 249.99988333333022,
      "v": 117
    },
    {
      "midi": 62,
      "hit": false,
      "t": 43808.37371666675,
      "d": 279.19694999999774,
      "v": 93
    },
    {
      "midi": 66,
      "hit": false,
      "t": 43808.37371666675,
      "d": 279.19694999999774,
      "v": 94
    },
    {
      "midi": 69,
      "hit": false,
      "t": 43808.37371666675,
      "d": 279.19694999999774,
      "v": 93
    },
    {
      "midi": 62,
      "hit": false,
      "t": 43813.84816666683,
      "d": 419.70783333333384,
      "v": 95
    },
    {
      "midi": 66,
      "hit": false,
      "t": 43813.84816666683,
      "d": 419.70783333333384,
      "v": 94
    },
    {
      "midi": 69,
      "hit": false,
      "t": 43813.84816666683,
      "d": 419.70783333333384,
      "v": 107
    },
    {
      "midi": 42,
      "hit": false,
      "t": 43905.08900000015,
      "d": 45.62041666666482,
      "v": 45
    },
    {
      "midi": 42,
      "hit": false,
      "t": 43905.089000000175,
      "d": 63.868583333336574,
      "v": 98
    },
    {
      "midi": 46,
      "hit": false,
      "t": 44014.578000000096,
      "d": 85.7663833333354,
      "v": 80
    },
    {
      "midi": 42,
      "hit": false,
      "t": 44014.578000000154,
      "d": 45.62041666666482,
      "v": 45
    },
    {
      "midi": 46,
      "hit": false,
      "t": 44014.578000000176,
      "d": 218.9780000000028,
      "v": 98
    },
    {
      "midi": 62,
      "hit": false,
      "t": 44091.22030000008,
      "d": 91.24083333333692,
      "v": 88
    },
    {
      "midi": 66,
      "hit": false,
      "t": 44096.69475000008,
      "d": 100.36491666666552,
      "v": 94
    },
    {
      "midi": 69,
      "hit": false,
      "t": 44096.69475000008,
      "d": 104.01454999999987,
      "v": 93
    },
    {
      "midi": 42,
      "hit": false,
      "t": 44124.067000000156,
      "d": 36.496333333336224,
      "v": 45
    },
    {
      "midi": 36,
      "hit": false,
      "t": 44233.5559999999,
      "d": 51.09486666666635,
      "v": 107
    },
    {
      "midi": 36,
      "hit": false,
      "t": 44233.5559999999,
      "d": 51.09486666666635,
      "v": 107
    },
    {
      "midi": 35,
      "hit": false,
      "t": 44233.5560000001,
      "d": 85.7663833333354,
      "v": 107
    },
    {
      "midi": 42,
      "hit": false,
      "t": 44233.5560000001,
      "d": 85.7663833333354,
      "v": 107
    },
    {
      "midi": 42,
      "hit": false,
      "t": 44233.55600000016,
      "d": 45.62041666666482,
      "v": 45
    },
    {
      "midi": 38,
      "hit": false,
      "t": 44233.55600000016,
      "d": 328.4670000000042,
      "v": 127
    },
    {
      "midi": 42,
      "hit": false,
      "t": 44233.55600000018,
      "d": 45.62041666666482,
      "v": 98
    },
    {
      "midi": 36,
      "hit": false,
      "t": 44233.55600000018,
      "d": 54.7445000000007,
      "v": 127
    },
    {
      "midi": 33,
      "hit": false,
      "t": 44237.205633333346,
      "d": 355.83924999999726,
      "v": 116
    },
    {
      "midi": 66,
      "hit": false,
      "t": 44237.20563333338,
      "d": 297.4451166666695,
      "v": 97
    },
    {
      "midi": 62,
      "hit": false,
      "t": 44242.6800833335,
      "d": 428.8319166666697,
      "v": 97
    },
    {
      "midi": 66,
      "hit": false,
      "t": 44242.6800833335,
      "d": 428.8319166666697,
      "v": 94
    },
    {
      "midi": 69,
      "hit": false,
      "t": 44246.329716666834,
      "d": 425.18228333333536,
      "v": 106
    },
    {
      "midi": 42,
      "hit": false,
      "t": 44343.04500000016,
      "d": 45.62041666666482,
      "v": 45
    },
    {
      "midi": 42,
      "hit": false,
      "t": 44343.04500000018,
      "d": 63.868583333336574,
      "v": 98
    },
    {
      "midi": 46,
      "hit": false,
      "t": 44452.5340000001,
      "d": 85.7663833333354,
      "v": 80
    },
    {
      "midi": 42,
      "hit": false,
      "t": 44452.53400000016,
      "d": 45.62041666666482,
      "v": 45
    },
    {
      "midi": 46,
      "hit": false,
      "t": 44452.53400000018,
      "d": 218.9780000000028,
      "v": 98
    },
    {
      "midi": 69,
      "hit": false,
      "t": 44529.17630000005,
      "d": 127.73716666666587,
      "v": 97
    },
    {
      "midi": 66,
      "hit": false,
      "t": 44534.65075000008,
      "d": 118.61308333333727,
      "v": 94
    },
    {
      "midi": 62,
      "hit": false,
      "t": 44534.65075000008,
      "d": 127.73716666667315,
      "v": 91
    },
    {
      "midi": 69,
      "hit": false,
      "t": 44538.300383333415,
      "d": 127.73716666667315,
      "v": 93
    },
    {
      "midi": 42,
      "hit": false,
      "t": 44562.02300000016,
      "d": 45.62041666666482,
      "v": 45
    },
    {
      "midi": 36,
      "hit": false,
      "t": 44562.02300000016,
      "d": 109.4890000000014,
      "v": 120
    },
    {
      "midi": 36,
      "hit": false,
      "t": 44671.5119999999,
      "d": 51.09486666666635,
      "v": 107
    },
    {
      "midi": 36,
      "hit": false,
      "t": 44671.5119999999,
      "d": 51.09486666666635,
      "v": 107
    },
    {
      "midi": 35,
      "hit": false,
      "t": 44671.512000000104,
      "d": 85.7663833333354,
      "v": 107
    },
    {
      "midi": 42,
      "hit": false,
      "t": 44671.512000000104,
      "d": 85.7663833333354,
      "v": 107
    },
    {
      "midi": 42,
      "hit": false,
      "t": 44671.51200000016,
      "d": 45.62041666666482,
      "v": 45
    },
    {
      "midi": 38,
      "hit": false,
      "t": 44671.51200000016,
      "d": 109.4890000000014,
      "v": 127
    },
    {
      "midi": 42,
      "hit": false,
      "t": 44671.512000000184,
      "d": 45.62041666666482,
      "v": 98
    },
    {
      "midi": 36,
      "hit": false,
      "t": 44671.512000000184,
      "d": 63.8685833333293,
      "v": 127
    },
    {
      "midi": 38,
      "hit": false,
      "t": 44675.161633333344,
      "d": 197.0801999999967,
      "v": 116
    },
    {
      "midi": 74,
      "hit": false,
      "t": 44675.16163333338,
      "d": 297.4451166666695,
      "v": 97
    },
    {
      "midi": 62,
      "hit": false,
      "t": 44680.636083333506,
      "d": 428.8319166666697,
      "v": 95
    },
    {
      "midi": 66,
      "hit": false,
      "t": 44684.28571666684,
      "d": 425.18228333333536,
      "v": 98
    },
    {
      "midi": 69,
      "hit": false,
      "t": 44684.28571666684,
      "d": 425.18228333333536,
      "v": 100
    },
    {
      "midi": 42,
      "hit": false,
      "t": 44781.001000000164,
      "d": 45.62041666666482,
      "v": 45
    },
    {
      "midi": 38,
      "hit": false,
      "t": 44781.001000000164,
      "d": 109.4890000000014,
      "v": 127
    },
    {
      "midi": 42,
      "hit": false,
      "t": 44781.00100000018,
      "d": 63.868583333336574,
      "v": 98
    },
    {
      "midi": 46,
      "hit": false,
      "t": 44890.49000000011,
      "d": 85.7663833333354,
      "v": 80
    },
    {
      "midi": 46,
      "hit": false,
      "t": 44890.490000000165,
      "d": 63.868583333336574,
      "v": 45
    },
    {
      "midi": 38,
      "hit": false,
      "t": 44890.490000000165,
      "d": 109.4890000000014,
      "v": 127
    },
    {
      "midi": 46,
      "hit": false,
      "t": 44890.49000000018,
      "d": 218.9780000000028,
      "v": 98
    },
    {
      "midi": 38,
      "hit": false,
      "t": 44967.132300000005,
      "d": 114.96345000000292,
      "v": 116
    },
    {
      "midi": 76,
      "hit": false,
      "t": 44967.13230000005,
      "d": 151.45978333333915,
      "v": 97
    },
    {
      "midi": 66,
      "hit": false,
      "t": 44972.606750000086,
      "d": 118.61308333333727,
      "v": 94
    },
    {
      "midi": 62,
      "hit": false,
      "t": 44972.606750000086,
      "d": 131.3868000000075,
      "v": 92
    },
    {
      "midi": 69,
      "hit": false,
      "t": 44976.25638333342,
      "d": 142.33570000000327,
      "v": 94
    },
    {
      "midi": 38,
      "hit": false,
      "t": 44999.97900000017,
      "d": 109.4890000000014,
      "v": 127
    },
    {
      "midi": 36,
      "hit": false,
      "t": 45109.4679999999,
      "d": 51.09486666666635,
      "v": 107
    },
    {
      "midi": 36,
      "hit": false,
      "t": 45109.4679999999,
      "d": 51.09486666666635,
      "v": 107
    },
    {
      "midi": 35,
      "hit": false,
      "t": 45109.46800000011,
      "d": 85.7663833333354,
      "v": 107
    },
    {
      "midi": 42,
      "hit": false,
      "t": 45109.46800000011,
      "d": 85.7663833333354,
      "v": 107
    },
    {
      "midi": 42,
      "hit": false,
      "t": 45109.46800000017,
      "d": 36.496333333336224,
      "v": 45
    },
    {
      "midi": 38,
      "hit": false,
      "t": 45109.46800000017,
      "d": 109.4890000000014,
      "v": 127
    },
    {
      "midi": 42,
      "hit": false,
      "t": 45109.46800000018,
      "d": 54.7445000000007,
      "v": 98
    },
    {
      "midi": 36,
      "hit": false,
      "t": 45109.46800000018,
      "d": 63.868583333336574,
      "v": 127
    },
    {
      "midi": 40,
      "hit": false,
      "t": 45113.11763333334,
      "d": 251.8246999999974,
      "v": 116
    },
    {
      "midi": 78,
      "hit": false,
      "t": 45113.117633333386,
      "d": 297.4451166666695,
      "v": 97
    },
    {
      "midi": 62,
      "hit": false,
      "t": 45122.241716666846,
      "d": 425.18228333333536,
      "v": 100
    },
    {
      "midi": 66,
      "hit": false,
      "t": 45122.241716666846,
      "d": 425.18228333333536,
      "v": 97
    },
    {
      "midi": 69,
      "hit": false,
      "t": 45122.241716666846,
      "d": 425.18228333333536,
      "v": 100
    },
    {
      "midi": 42,
      "hit": false,
      "t": 45218.95700000017,
      "d": 45.62041666666482,
      "v": 45
    },
    {
      "midi": 38,
      "hit": false,
      "t": 45218.95700000017,
      "d": 109.4890000000014,
      "v": 127
    },
    {
      "midi": 42,
      "hit": false,
      "t": 45218.957000000184,
      "d": 72.99266666666517,
      "v": 98
    },
    {
      "midi": 46,
      "hit": false,
      "t": 45328.44600000011,
      "d": 85.7663833333354,
      "v": 80
    },
    {
      "midi": 46,
      "hit": false,
      "t": 45328.44600000017,
      "d": 36.496333333336224,
      "v": 45
    },
    {
      "midi": 38,
      "hit": false,
      "t": 45328.44600000017,
      "d": 109.4890000000014,
      "v": 127
    },
    {
      "midi": 46,
      "hit": false,
      "t": 45328.446000000185,
      "d": 218.9780000000028,
      "v": 98
    },
    {
      "midi": 42,
      "hit": false,
      "t": 45405.0883,
      "d": 100.36491666666552,
      "v": 116
    },
    {
      "midi": 81,
      "hit": false,
      "t": 45405.088300000054,
      "d": 105.83936666666705,
      "v": 97
    },
    {
      "midi": 62,
      "hit": false,
      "t": 45410.56275000009,
      "d": 104.01454999999987,
      "v": 92
    },
    {
      "midi": 66,
      "hit": false,
      "t": 45410.56275000009,
      "d": 109.4890000000014,
      "v": 98
    },
    {
      "midi": 69,
      "hit": false,
      "t": 45414.212383333426,
      "d": 127.73716666666587,
      "v": 93
    },
    {
      "midi": 36,
      "hit": false,
      "t": 45437.934999999896,
      "d": 51.09486666666635,
      "v": 67
    },
    {
      "midi": 36,
      "hit": false,
      "t": 45437.934999999896,
      "d": 51.09486666666635,
      "v": 67
    },
    {
      "midi": 35,
      "hit": false,
      "t": 45437.935000000114,
      "d": 85.7663833333354,
      "v": 97
    },
    {
      "midi": 42,
      "hit": false,
      "t": 45437.935000000114,
      "d": 85.7663833333354,
      "v": 107
    },
    {
      "midi": 38,
      "hit": false,
      "t": 45437.93500000017,
      "d": 109.4890000000014,
      "v": 127
    },
    {
      "midi": 36,
      "hit": false,
      "t": 45547.4239999999,
      "d": 51.09486666666635,
      "v": 107
    },
    {
      "midi": 36,
      "hit": false,
      "t": 45547.4239999999,
      "d": 51.09486666666635,
      "v": 107
    },
    {
      "midi": 35,
      "hit": false,
      "t": 45547.424000000115,
      "d": 85.7663833333354,
      "v": 107
    },
    {
      "midi": 42,
      "hit": false,
      "t": 45547.424000000115,
      "d": 85.7663833333354,
      "v": 107
    },
    {
      "midi": 42,
      "hit": false,
      "t": 45547.424000000174,
      "d": 36.496333333336224,
      "v": 45
    },
    {
      "midi": 36,
      "hit": false,
      "t": 45547.424000000174,
      "d": 437.9560000000056,
      "v": 120
    },
    {
      "midi": 42,
      "hit": false,
      "t": 45547.42400000019,
      "d": 45.62041666666482,
      "v": 98
    },
    {
      "midi": 36,
      "hit": false,
      "t": 45547.42400000019,
      "d": 54.7445000000007,
      "v": 127
    },
    {
      "midi": 43,
      "hit": false,
      "t": 45551.07363333333,
      "d": 328.4669999999969,
      "v": 116
    },
    {
      "midi": 74,
      "hit": false,
      "t": 45551.073633333384,
      "d": 1310.2183666666679,
      "v": 97
    },
    {
      "midi": 83,
      "hit": false,
      "t": 45556.548083333386,
      "d": 1304.7439166666663,
      "v": 97
    },
    {
      "midi": 62,
      "hit": false,
      "t": 45560.19771666676,
      "d": 279.19694999999774,
      "v": 93
    },
    {
      "midi": 67,
      "hit": false,
      "t": 45560.19771666676,
      "d": 279.19694999999774,
      "v": 98
    },
    {
      "midi": 71,
      "hit": false,
      "t": 45560.19771666676,
      "d": 279.19694999999774,
      "v": 95
    },
    {
      "midi": 62,
      "hit": false,
      "t": 45565.672166666845,
      "d": 419.70783333333384,
      "v": 100
    },
    {
      "midi": 67,
      "hit": false,
      "t": 45565.672166666845,
      "d": 419.70783333333384,
      "v": 100
    },
    {
      "midi": 71,
      "hit": false,
      "t": 45565.672166666845,
      "d": 419.70783333333384,
      "v": 100
    },
    {
      "midi": 49,
      "hit": false,
      "t": 45574.796250000174,
      "d": 1085.765916666678,
      "v": 127
    },
    {
      "midi": 42,
      "hit": false,
      "t": 45656.913000000175,
      "d": 45.62041666666482,
      "v": 45
    },
    {
      "midi": 42,
      "hit": false,
      "t": 45656.91300000019,
      "d": 63.868583333336574,
      "v": 98
    },
    {
      "midi": 46,
      "hit": false,
      "t": 45766.40200000012,
      "d": 85.7663833333354,
      "v": 80
    },
    {
      "midi": 42,
      "hit": false,
      "t": 45766.40200000018,
      "d": 45.62041666666482,
      "v": 45
    },
    {
      "midi": 46,
      "hit": false,
      "t": 45766.40200000019,
      "d": 218.9780000000028,
      "v": 98
    },
    {
      "midi": 62,
      "hit": false,
      "t": 45843.04430000009,
      "d": 87.59120000000257,
      "v": 88
    },
    {
      "midi": 67,
      "hit": false,
      "t": 45848.51875000009,
      "d": 100.36491666666552,
      "v": 93
    },
    {
      "midi": 71,
      "hit": false,
      "t": 45848.51875000009,
      "d": 100.36491666666552,
      "v": 94
    },
    {
      "midi": 42,
      "hit": false,
      "t": 45875.89100000018,
      "d": 45.62041666666482,
      "v": 45
    },
    {
      "midi": 36,
      "hit": false,
      "t": 45985.379999999896,
      "d": 51.09486666666635,
      "v": 107
    },
    {
      "midi": 36,
      "hit": false,
      "t": 45985.379999999896,
      "d": 51.09486666666635,
      "v": 107
    },
    {
      "midi": 35,
      "hit": false,
      "t": 45985.38000000012,
      "d": 85.7663833333354,
      "v": 107
    },
    {
      "midi": 42,
      "hit": false,
      "t": 45985.38000000012,
      "d": 85.7663833333354,
      "v": 107
    },
    {
      "midi": 42,
      "hit": false,
      "t": 45985.38000000018,
      "d": 45.62041666666482,
      "v": 45
    },
    {
      "midi": 38,
      "hit": false,
      "t": 45985.38000000018,
      "d": 437.9560000000056,
      "v": 127
    },
    {
      "midi": 42,
      "hit": false,
      "t": 45985.380000000194,
      "d": 45.62041666666482,
      "v": 98
    },
    {
      "midi": 36,
      "hit": false,
      "t": 45985.380000000194,
      "d": 54.7445000000007,
      "v": 127
    },
    {
      "midi": 43,
      "hit": false,
      "t": 45989.02963333333,
      "d": 306.5691999999981,
      "v": 119
    },
    {
      "midi": 62,
      "hit": false,
      "t": 45994.504083333515,
      "d": 428.8319166666697,
      "v": 98
    },
    {
      "midi": 67,
      "hit": false,
      "t": 45994.504083333515,
      "d": 428.8319166666697,
      "v": 100
    },
    {
      "midi": 71,
      "hit": false,
      "t": 45994.504083333515,
      "d": 428.8319166666697,
      "v": 107
    },
    {
      "midi": 42,
      "hit": false,
      "t": 46094.86900000018,
      "d": 36.496333333336224,
      "v": 45
    },
    {
      "midi": 42,
      "hit": false,
      "t": 46094.869000000195,
      "d": 63.868583333336574,
      "v": 98
    },
    {
      "midi": 46,
      "hit": false,
      "t": 46204.358000000124,
      "d": 85.7663833333354,
      "v": 80
    },
    {
      "midi": 42,
      "hit": false,
      "t": 46204.35800000018,
      "d": 36.496333333336224,
      "v": 45
    },
    {
      "midi": 46,
      "hit": false,
      "t": 46204.3580000002,
      "d": 218.9780000000028,
      "v": 98
    },
    {
      "midi": 62,
      "hit": false,
      "t": 46281.00030000009,
      "d": 105.83936666666705,
      "v": 91
    },
    {
      "midi": 71,
      "hit": false,
      "t": 46286.47475000009,
      "d": 104.01454999999987,
      "v": 94
    },
    {
      "midi": 67,
      "hit": false,
      "t": 46286.47475000009,
      "d": 113.13863333333575,
      "v": 93
    },
    {
      "midi": 42,
      "hit": false,
      "t": 46313.84700000018,
      "d": 45.62041666666482,
      "v": 45
    },
    {
      "midi": 36,
      "hit": false,
      "t": 46313.84700000018,
      "d": 109.4890000000014,
      "v": 120
    },
    {
      "midi": 36,
      "hit": false,
      "t": 46423.335999999894,
      "d": 51.09486666666635,
      "v": 107
    },
    {
      "midi": 36,
      "hit": false,
      "t": 46423.335999999894,
      "d": 51.09486666666635,
      "v": 107
    },
    {
      "midi": 35,
      "hit": false,
      "t": 46423.33600000013,
      "d": 85.7663833333354,
      "v": 107
    },
    {
      "midi": 42,
      "hit": false,
      "t": 46423.33600000013,
      "d": 85.7663833333354,
      "v": 107
    },
    {
      "midi": 42,
      "hit": false,
      "t": 46423.336000000185,
      "d": 45.62041666666482,
      "v": 45
    },
    {
      "midi": 36,
      "hit": false,
      "t": 46423.336000000185,
      "d": 218.9780000000028,
      "v": 120
    },
    {
      "midi": 42,
      "hit": false,
      "t": 46423.3360000002,
      "d": 45.62041666666482,
      "v": 98
    },
    {
      "midi": 36,
      "hit": false,
      "t": 46423.3360000002,
      "d": 54.7445000000007,
      "v": 127
    },
    {
      "midi": 43,
      "hit": false,
      "t": 46426.98563333333,
      "d": 315.69328333333397,
      "v": 118
    },
    {
      "midi": 62,
      "hit": false,
      "t": 46432.46008333352,
      "d": 428.8319166666697,
      "v": 97
    },
    {
      "midi": 67,
      "hit": false,
      "t": 46432.46008333352,
      "d": 428.8319166666697,
      "v": 100
    },
    {
      "midi": 71,
      "hit": false,
      "t": 46432.46008333352,
      "d": 428.8319166666697,
      "v": 103
    },
    {
      "midi": 42,
      "hit": false,
      "t": 46532.825000000186,
      "d": 45.62041666666482,
      "v": 45
    },
    {
      "midi": 42,
      "hit": false,
      "t": 46532.8250000002,
      "d": 63.868583333336574,
      "v": 98
    },
    {
      "midi": 46,
      "hit": false,
      "t": 46642.31400000013,
      "d": 85.7663833333354,
      "v": 80
    },
    {
      "midi": 42,
      "hit": false,
      "t": 46642.31400000019,
      "d": 36.49633333332895,
      "v": 45
    },
    {
      "midi": 36,
      "hit": false,
      "t": 46642.31400000019,
      "d": 218.97799999999552,
      "v": 120
    },
    {
      "midi": 46,
      "hit": false,
      "t": 46642.3140000002,
      "d": 218.9780000000028,
      "v": 98
    },
    {
      "midi": 62,
      "hit": false,
      "t": 46724.430750000094,
      "d": 109.4890000000014,
      "v": 92
    },
    {
      "midi": 71,
      "hit": false,
      "t": 46724.430750000094,
      "d": 122.26271666667162,
      "v": 95
    },
    {
      "midi": 67,
      "hit": false,
      "t": 46724.430750000094,
      "d": 131.3868000000075,
      "v": 93
    },
    {
      "midi": 42,
      "hit": false,
      "t": 46751.80300000018,
      "d": 36.496333333336224,
      "v": 45
    },
    {
      "midi": 36,
      "hit": false,
      "t": 46861.29199999989,
      "d": 51.09486666666635,
      "v": 107
    },
    {
      "midi": 36,
      "hit": false,
      "t": 46861.29199999989,
      "d": 51.09486666666635,
      "v": 107
    },
    {
      "midi": 35,
      "hit": false,
      "t": 46861.29200000013,
      "d": 85.7663833333354,
      "v": 107
    },
    {
      "midi": 42,
      "hit": false,
      "t": 46861.29200000013,
      "d": 85.7663833333354,
      "v": 107
    },
    {
      "midi": 42,
      "hit": false,
      "t": 46861.29200000018,
      "d": 36.496333333336224,
      "v": 45
    },
    {
      "midi": 38,
      "hit": false,
      "t": 46861.29200000018,
      "d": 218.9780000000028,
      "v": 127
    },
    {
      "midi": 42,
      "hit": false,
      "t": 46861.292000000205,
      "d": 54.7445000000007,
      "v": 98
    },
    {
      "midi": 36,
      "hit": false,
      "t": 46861.292000000205,
      "d": 54.7445000000007,
      "v": 127
    },
    {
      "midi": 43,
      "hit": false,
      "t": 46864.94163333333,
      "d": 355.83924999999726,
      "v": 119
    },
    {
      "midi": 74,
      "hit": false,
      "t": 46864.94163333339,
      "d": 437.9560000000056,
      "v": 97
    },
    {
      "midi": 86,
      "hit": false,
      "t": 46870.41608333339,
      "d": 401.45966666666936,
      "v": 97
    },
    {
      "midi": 62,
      "hit": false,
      "t": 46870.416083333526,
      "d": 428.8319166666697,
      "v": 100
    },
    {
      "midi": 67,
      "hit": false,
      "t": 46874.06571666686,
      "d": 425.18228333333536,
      "v": 103
    },
    {
      "midi": 71,
      "hit": false,
      "t": 46874.06571666686,
      "d": 425.18228333333536,
      "v": 100
    },
    {
      "midi": 42,
      "hit": false,
      "t": 46970.781000000185,
      "d": 36.496333333336224,
      "v": 45
    },
    {
      "midi": 42,
      "hit": false,
      "t": 46970.78100000021,
      "d": 72.99266666666517,
      "v": 98
    },
    {
      "midi": 46,
      "hit": false,
      "t": 47080.270000000135,
      "d": 85.7663833333354,
      "v": 80
    },
    {
      "midi": 42,
      "hit": false,
      "t": 47080.270000000186,
      "d": 36.496333333336224,
      "v": 45
    },
    {
      "midi": 36,
      "hit": false,
      "t": 47080.270000000186,
      "d": 218.9780000000028,
      "v": 120
    },
    {
      "midi": 46,
      "hit": false,
      "t": 47080.27000000021,
      "d": 218.9780000000028,
      "v": 98
    },
    {
      "midi": 62,
      "hit": false,
      "t": 47156.9123000001,
      "d": 51.09486666666635,
      "v": 94
    },
    {
      "midi": 67,
      "hit": false,
      "t": 47162.3867500001,
      "d": 67.51821666666365,
      "v": 97
    },
    {
      "midi": 71,
      "hit": false,
      "t": 47162.3867500001,
      "d": 72.99266666666517,
      "v": 97
    },
    {
      "midi": 42,
      "hit": false,
      "t": 47189.75900000019,
      "d": 45.62041666666482,
      "v": 45
    },
    {
      "midi": 36,
      "hit": false,
      "t": 47299.24799999989,
      "d": 51.09486666666635,
      "v": 107
    },
    {
      "midi": 36,
      "hit": false,
      "t": 47299.24799999989,
      "d": 51.09486666666635,
      "v": 107
    },
    {
      "midi": 35,
      "hit": false,
      "t": 47299.24800000014,
      "d": 85.7663833333354,
      "v": 107
    },
    {
      "midi": 42,
      "hit": false,
      "t": 47299.24800000014,
      "d": 85.7663833333354,
      "v": 107
    },
    {
      "midi": 42,
      "hit": false,
      "t": 47299.24800000019,
      "d": 36.496333333336224,
      "v": 45
    },
    {
      "midi": 36,
      "hit": false,
      "t": 47299.24800000019,
      "d": 437.9560000000056,
      "v": 120
    },
    {
      "midi": 42,
      "hit": false,
      "t": 47299.24800000021,
      "d": 45.62041666666482,
      "v": 98
    },
    {
      "midi": 36,
      "hit": false,
      "t": 47299.24800000021,
      "d": 54.7445000000007,
      "v": 127
    },
    {
      "midi": 76,
      "hit": false,
      "t": 47302.89763333339,
      "d": 1611.3131166666717,
      "v": 97
    },
    {
      "midi": 45,
      "hit": false,
      "t": 47308.37208333333,
      "d": 319.3429166666683,
      "v": 118
    },
    {
      "midi": 85,
      "hit": false,
      "t": 47312.02171666673,
      "d": 1538.3204499999993,
      "v": 97
    },
    {
      "midi": 61,
      "hit": false,
      "t": 47312.021716666764,
      "d": 279.196950000005,
      "v": 90
    },
    {
      "midi": 64,
      "hit": false,
      "t": 47312.021716666764,
      "d": 279.196950000005,
      "v": 91
    },
    {
      "midi": 69,
      "hit": false,
      "t": 47317.496166666766,
      "d": 273.7225000000035,
      "v": 93
    },
    {
      "midi": 61,
      "hit": false,
      "t": 47317.49616666686,
      "d": 419.70783333333384,
      "v": 100
    },
    {
      "midi": 64,
      "hit": false,
      "t": 47317.49616666686,
      "d": 419.70783333333384,
      "v": 100
    },
    {
      "midi": 69,
      "hit": false,
      "t": 47317.49616666686,
      "d": 419.70783333333384,
      "v": 103
    },
    {
      "midi": 51,
      "hit": false,
      "t": 47326.620250000175,
      "d": 21.897799999998824,
      "v": 127
    },
    {
      "midi": 51,
      "hit": false,
      "t": 47326.620250000175,
      "d": 21.897799999998824,
      "v": 127
    },
    {
      "midi": 51,
      "hit": false,
      "t": 47326.62025000018,
      "d": 21.897799999998824,
      "v": 127
    },
    {
      "midi": 51,
      "hit": false,
      "t": 47326.62025000018,
      "d": 21.897799999998824,
      "v": 127
    },
    {
      "midi": 52,
      "hit": false,
      "t": 47348.51805000017,
      "d": 319.3429166666683,
      "v": 127
    },
    {
      "midi": 52,
      "hit": false,
      "t": 47348.51805000017,
      "d": 319.3429166666683,
      "v": 127
    },
    {
      "midi": 52,
      "hit": false,
      "t": 47348.51805000018,
      "d": 319.3429166666683,
      "v": 127
    },
    {
      "midi": 52,
      "hit": false,
      "t": 47348.51805000018,
      "d": 319.3429166666683,
      "v": 127
    },
    {
      "midi": 42,
      "hit": false,
      "t": 47408.73700000019,
      "d": 36.496333333336224,
      "v": 45
    },
    {
      "midi": 42,
      "hit": false,
      "t": 47408.73700000021,
      "d": 63.868583333336574,
      "v": 98
    },
    {
      "midi": 46,
      "hit": false,
      "t": 47518.22600000014,
      "d": 85.7663833333354,
      "v": 80
    },
    {
      "midi": 42,
      "hit": false,
      "t": 47518.22600000019,
      "d": 36.496333333336224,
      "v": 45
    },
    {
      "midi": 46,
      "hit": false,
      "t": 47518.22600000021,
      "d": 218.9780000000028,
      "v": 98
    },
    {
      "midi": 61,
      "hit": false,
      "t": 47600.342750000105,
      "d": 109.4890000000014,
      "v": 91
    },
    {
      "midi": 64,
      "hit": false,
      "t": 47600.342750000105,
      "d": 118.61308333333727,
      "v": 94
    },
    {
      "midi": 69,
      "hit": false,
      "t": 47600.342750000105,
      "d": 122.26271666667162,
      "v": 92
    },
    {
      "midi": 42,
      "hit": false,
      "t": 47627.71500000019,
      "d": 36.496333333336224,
      "v": 45
    },
    {
      "midi": 36,
      "hit": false,
      "t": 47737.20399999989,
      "d": 51.09486666666635,
      "v": 107
    },
    {
      "midi": 36,
      "hit": false,
      "t": 47737.20399999989,
      "d": 51.09486666666635,
      "v": 107
    },
    {
      "midi": 35,
      "hit": false,
      "t": 47737.20400000014,
      "d": 85.7663833333354,
      "v": 107
    },
    {
      "midi": 42,
      "hit": false,
      "t": 47737.20400000014,
      "d": 85.7663833333354,
      "v": 107
    },
    {
      "midi": 42,
      "hit": false,
      "t": 47737.204000000194,
      "d": 45.62041666666482,
      "v": 45
    },
    {
      "midi": 38,
      "hit": false,
      "t": 47737.204000000194,
      "d": 328.4670000000042,
      "v": 127
    },
    {
      "midi": 42,
      "hit": false,
      "t": 47737.204000000216,
      "d": 45.62041666666482,
      "v": 98
    },
    {
      "midi": 36,
      "hit": false,
      "t": 47737.204000000216,
      "d": 54.7445000000007,
      "v": 127
    },
    {
      "midi": 45,
      "hit": false,
      "t": 47740.85363333333,
      "d": 337.5910833333328,
      "v": 117
    },
    {
      "midi": 61,
      "hit": false,
      "t": 47746.32808333353,
      "d": 428.8319166666697,
      "v": 98
    },
    {
      "midi": 64,
      "hit": false,
      "t": 47746.32808333353,
      "d": 428.8319166666697,
      "v": 100
    },
    {
      "midi": 69,
      "hit": false,
      "t": 47746.32808333353,
      "d": 428.8319166666697,
      "v": 106
    },
    {
      "midi": 59,
      "hit": false,
      "t": 47749.97771666684,
      "d": 279.19695000001957,
      "v": 127
    },
    {
      "midi": 59,
      "hit": false,
      "t": 47749.97771666684,
      "d": 279.19695000001957,
      "v": 127
    },
    {
      "midi": 59,
      "hit": false,
      "t": 47749.97771666685,
      "d": 279.19695000001957,
      "v": 127
    },
    {
      "midi": 59,
      "hit": false,
      "t": 47749.97771666685,
      "d": 279.19695000001957,
      "v": 127
    },
    {
      "midi": 42,
      "hit": false,
      "t": 47846.693000000196,
      "d": 45.62041666666482,
      "v": 45
    },
    {
      "midi": 42,
      "hit": false,
      "t": 47846.69300000022,
      "d": 63.868583333336574,
      "v": 98
    },
    {
      "midi": 46,
      "hit": false,
      "t": 47956.182000000146,
      "d": 85.7663833333354,
      "v": 80
    },
    {
      "midi": 42,
      "hit": false,
      "t": 47956.1820000002,
      "d": 45.62041666666482,
      "v": 45
    },
    {
      "midi": 46,
      "hit": false,
      "t": 47956.18200000022,
      "d": 218.9780000000028,
      "v": 98
    },
    {
      "midi": 61,
      "hit": false,
      "t": 48038.29875000011,
      "d": 122.26271666666435,
      "v": 91
    },
    {
      "midi": 64,
      "hit": false,
      "t": 48038.29875000011,
      "d": 131.38680000000022,
      "v": 93
    },
    {
      "midi": 69,
      "hit": false,
      "t": 48038.29875000011,
      "d": 149.6349666666647,
      "v": 94
    },
    {
      "midi": 59,
      "hit": false,
      "t": 48038.2987500002,
      "d": 149.6349666666647,
      "v": 127
    },
    {
      "midi": 59,
      "hit": false,
      "t": 48038.2987500002,
      "d": 149.6349666666647,
      "v": 127
    },
    {
      "midi": 59,
      "hit": false,
      "t": 48038.298750000205,
      "d": 149.6349666666647,
      "v": 127
    },
    {
      "midi": 59,
      "hit": false,
      "t": 48038.298750000205,
      "d": 149.6349666666647,
      "v": 127
    },
    {
      "midi": 42,
      "hit": false,
      "t": 48065.6710000002,
      "d": 45.62041666666482,
      "v": 45
    },
    {
      "midi": 36,
      "hit": false,
      "t": 48065.6710000002,
      "d": 109.4890000000014,
      "v": 120
    },
    {
      "midi": 36,
      "hit": false,
      "t": 48175.15999999989,
      "d": 51.09486666666635,
      "v": 107
    },
    {
      "midi": 36,
      "hit": false,
      "t": 48175.15999999989,
      "d": 51.09486666666635,
      "v": 107
    },
    {
      "midi": 35,
      "hit": false,
      "t": 48175.16000000015,
      "d": 85.7663833333354,
      "v": 107
    },
    {
      "midi": 42,
      "hit": false,
      "t": 48175.16000000015,
      "d": 85.7663833333354,
      "v": 107
    },
    {
      "midi": 42,
      "hit": false,
      "t": 48175.1600000002,
      "d": 45.62041666666482,
      "v": 45
    },
    {
      "midi": 36,
      "hit": false,
      "t": 48175.1600000002,
      "d": 218.9780000000028,
      "v": 120
    },
    {
      "midi": 42,
      "hit": false,
      "t": 48175.16000000022,
      "d": 45.62041666666482,
      "v": 98
    },
    {
      "midi": 36,
      "hit": false,
      "t": 48175.16000000022,
      "d": 72.99266666666517,
      "v": 127
    },
    {
      "midi": 45,
      "hit": false,
      "t": 48178.80963333333,
      "d": 260.94878333333327,
      "v": 118
    },
    {
      "midi": 61,
      "hit": false,
      "t": 48184.284083333536,
      "d": 428.8319166666697,
      "v": 97
    },
    {
      "midi": 64,
      "hit": false,
      "t": 48184.284083333536,
      "d": 428.8319166666697,
      "v": 98
    },
    {
      "midi": 69,
      "hit": false,
      "t": 48184.284083333536,
      "d": 428.8319166666697,
      "v": 103
    },
    {
      "midi": 57,
      "hit": false,
      "t": 48187.93371666686,
      "d": 279.19694999999774,
      "v": 127
    },
    {
      "midi": 57,
      "hit": false,
      "t": 48187.93371666686,
      "d": 279.19694999999774,
      "v": 127
    },
    {
      "midi": 57,
      "hit": false,
      "t": 48187.93371666687,
      "d": 279.19694999999774,
      "v": 127
    },
    {
      "midi": 57,
      "hit": false,
      "t": 48187.93371666687,
      "d": 279.19694999999774,
      "v": 127
    },
    {
      "midi": 42,
      "hit": false,
      "t": 48284.6490000002,
      "d": 45.62041666666482,
      "v": 45
    },
    {
      "midi": 42,
      "hit": false,
      "t": 48284.64900000022,
      "d": 63.868583333336574,
      "v": 98
    },
    {
      "midi": 46,
      "hit": false,
      "t": 48394.13800000015,
      "d": 85.7663833333354,
      "v": 80
    },
    {
      "midi": 42,
      "hit": false,
      "t": 48394.1380000002,
      "d": 45.62041666666482,
      "v": 45
    },
    {
      "midi": 36,
      "hit": false,
      "t": 48394.1380000002,
      "d": 218.9780000000028,
      "v": 120
    },
    {
      "midi": 46,
      "hit": false,
      "t": 48394.138000000225,
      "d": 218.9780000000028,
      "v": 98
    },
    {
      "midi": 61,
      "hit": false,
      "t": 48476.25475000011,
      "d": 109.4890000000014,
      "v": 91
    },
    {
      "midi": 64,
      "hit": false,
      "t": 48476.25475000011,
      "d": 122.26271666667162,
      "v": 91
    },
    {
      "midi": 69,
      "hit": false,
      "t": 48476.25475000011,
      "d": 136.86125000000175,
      "v": 91
    },
    {
      "midi": 59,
      "hit": false,
      "t": 48476.2547500002,
      "d": 140.5108833333361,
      "v": 127
    },
    {
      "midi": 59,
      "hit": false,
      "t": 48476.2547500002,
      "d": 140.5108833333361,
      "v": 127
    },
    {
      "midi": 59,
      "hit": false,
      "t": 48476.254750000204,
      "d": 140.5108833333361,
      "v": 127
    },
    {
      "midi": 59,
      "hit": false,
      "t": 48476.254750000204,
      "d": 140.5108833333361,
      "v": 127
    },
    {
      "midi": 42,
      "hit": false,
      "t": 48503.627000000204,
      "d": 36.496333333336224,
      "v": 45
    },
    {
      "midi": 36,
      "hit": false,
      "t": 48613.115999999885,
      "d": 51.09486666666635,
      "v": 107
    },
    {
      "midi": 36,
      "hit": false,
      "t": 48613.115999999885,
      "d": 51.09486666666635,
      "v": 107
    },
    {
      "midi": 35,
      "hit": false,
      "t": 48613.116000000155,
      "d": 85.7663833333354,
      "v": 107
    },
    {
      "midi": 42,
      "hit": false,
      "t": 48613.116000000155,
      "d": 85.7663833333354,
      "v": 107
    },
    {
      "midi": 42,
      "hit": false,
      "t": 48613.116000000206,
      "d": 36.496333333336224,
      "v": 45
    },
    {
      "midi": 38,
      "hit": false,
      "t": 48613.116000000206,
      "d": 218.9780000000028,
      "v": 127
    },
    {
      "midi": 42,
      "hit": false,
      "t": 48613.11600000023,
      "d": 54.7445000000007,
      "v": 98
    },
    {
      "midi": 36,
      "hit": false,
      "t": 48613.11600000023,
      "d": 63.868583333336574,
      "v": 127
    },
    {
      "midi": 45,
      "hit": false,
      "t": 48616.76563333333,
      "d": 306.5691999999981,
      "v": 118
    },
    {
      "midi": 61,
      "hit": false,
      "t": 48622.24008333354,
      "d": 428.8319166666697,
      "v": 100
    },
    {
      "midi": 64,
      "hit": false,
      "t": 48622.24008333354,
      "d": 428.8319166666697,
      "v": 100
    },
    {
      "midi": 69,
      "hit": false,
      "t": 48622.24008333354,
      "d": 432.48155000000406,
      "v": 103
    },
    {
      "midi": 57,
      "hit": false,
      "t": 48625.88971666687,
      "d": 279.19694999999774,
      "v": 127
    },
    {
      "midi": 57,
      "hit": false,
      "t": 48625.88971666687,
      "d": 279.19694999999774,
      "v": 127
    },
    {
      "midi": 57,
      "hit": false,
      "t": 48625.889716666876,
      "d": 279.19694999999774,
      "v": 127
    },
    {
      "midi": 57,
      "hit": false,
      "t": 48625.889716666876,
      "d": 279.19694999999774,
      "v": 127
    },
    {
      "midi": 42,
      "hit": false,
      "t": 48722.60500000021,
      "d": 36.496333333336224,
      "v": 45
    },
    {
      "midi": 42,
      "hit": false,
      "t": 48722.60500000023,
      "d": 72.99266666666517,
      "v": 98
    },
    {
      "midi": 46,
      "hit": false,
      "t": 48832.09400000016,
      "d": 85.7663833333354,
      "v": 80
    },
    {
      "midi": 46,
      "hit": false,
      "t": 48832.09400000021,
      "d": 45.62041666666482,
      "v": 45
    },
    {
      "midi": 36,
      "hit": false,
      "t": 48832.09400000021,
      "d": 218.97799999999552,
      "v": 120
    },
    {
      "midi": 46,
      "hit": false,
      "t": 48832.09400000023,
      "d": 218.9780000000028,
      "v": 98
    },
    {
      "midi": 74,
      "hit": false,
      "t": 48908.73630000006,
      "d": 145.98533333333762,
      "v": 97
    },
    {
      "midi": 83,
      "hit": false,
      "t": 48914.210750000064,
      "d": 145.98533333333762,
      "v": 97
    },
    {
      "midi": 61,
      "hit": false,
      "t": 48914.21075000011,
      "d": 136.86125000000175,
      "v": 91
    },
    {
      "midi": 64,
      "hit": false,
      "t": 48917.86038333344,
      "d": 133.2116166666674,
      "v": 91
    },
    {
      "midi": 69,
      "hit": false,
      "t": 48917.86038333344,
      "d": 133.2116166666674,
      "v": 88
    },
    {
      "midi": 55,
      "hit": false,
      "t": 48923.33483333353,
      "d": 164.2335000000021,
      "v": 127
    },
    {
      "midi": 55,
      "hit": false,
      "t": 48923.33483333353,
      "d": 164.2335000000021,
      "v": 127
    },
    {
      "midi": 55,
      "hit": false,
      "t": 48923.33483333354,
      "d": 164.2335000000021,
      "v": 127
    },
    {
      "midi": 55,
      "hit": false,
      "t": 48923.33483333354,
      "d": 164.2335000000021,
      "v": 127
    },
    {
      "midi": 36,
      "hit": false,
      "t": 49051.071999999884,
      "d": 51.09486666666635,
      "v": 107
    },
    {
      "midi": 36,
      "hit": false,
      "t": 49051.071999999884,
      "d": 51.09486666666635,
      "v": 107
    },
    {
      "midi": 35,
      "hit": false,
      "t": 49051.07200000016,
      "d": 85.7663833333354,
      "v": 107
    },
    {
      "midi": 42,
      "hit": false,
      "t": 49051.07200000016,
      "d": 85.7663833333354,
      "v": 107
    },
    {
      "midi": 42,
      "hit": false,
      "t": 49051.072000000204,
      "d": 36.496333333336224,
      "v": 45
    },
    {
      "midi": 36,
      "hit": false,
      "t": 49051.072000000204,
      "d": 437.9560000000056,
      "v": 120
    },
    {
      "midi": 42,
      "hit": false,
      "t": 49051.07200000023,
      "d": 45.62041666666482,
      "v": 98
    },
    {
      "midi": 36,
      "hit": false,
      "t": 49051.07200000023,
      "d": 54.7445000000007,
      "v": 127
    },
    {
      "midi": 33,
      "hit": false,
      "t": 49054.72163333331,
      "d": 197.0801999999967,
      "v": 127
    },
    {
      "midi": 73,
      "hit": false,
      "t": 49060.1960833334,
      "d": 104.01454999999987,
      "v": 97
    },
    {
      "midi": 33,
      "hit": false,
      "t": 49063.84571666666,
      "d": 310.21883333333244,
      "v": 117
    },
    {
      "midi": 81,
      "hit": false,
      "t": 49069.32016666674,
      "d": 94.890466666664,
      "v": 97
    },
    {
      "midi": 61,
      "hit": false,
      "t": 49069.320166666774,
      "d": 167.88313333333645,
      "v": 92
    },
    {
      "midi": 64,
      "hit": false,
      "t": 49072.96980000011,
      "d": 173.35758333333797,
      "v": 94
    },
    {
      "midi": 69,
      "hit": false,
      "t": 49078.44425000011,
      "d": 167.88313333333645,
      "v": 94
    },
    {
      "midi": 61,
      "hit": false,
      "t": 49078.44425000021,
      "d": 195.2553833333368,
      "v": 100
    },
    {
      "midi": 64,
      "hit": false,
      "t": 49082.093883333546,
      "d": 191.60575000000244,
      "v": 103
    },
    {
      "midi": 69,
      "hit": false,
      "t": 49082.093883333546,
      "d": 191.60575000000244,
      "v": 107
    },
    {
      "midi": 42,
      "hit": false,
      "t": 49160.561000000205,
      "d": 45.62041666666482,
      "v": 45
    },
    {
      "midi": 42,
      "hit": false,
      "t": 49160.561000000234,
      "d": 63.868583333336574,
      "v": 98
    },
    {
      "midi": 46,
      "hit": false,
      "t": 49270.05000000016,
      "d": 85.7663833333354,
      "v": 80
    },
    {
      "midi": 42,
      "hit": false,
      "t": 49270.05000000021,
      "d": 45.62041666666482,
      "v": 45
    },
    {
      "midi": 46,
      "hit": false,
      "t": 49270.050000000236,
      "d": 218.9780000000028,
      "v": 98
    },
    {
      "midi": 42,
      "hit": false,
      "t": 49379.53900000021,
      "d": 45.62041666666482,
      "v": 45
    },
    {
      "midi": 36,
      "hit": false,
      "t": 49489.02799999988,
      "d": 51.09486666666635,
      "v": 107
    },
    {
      "midi": 36,
      "hit": false,
      "t": 49489.02799999988,
      "d": 51.09486666666635,
      "v": 107
    },
    {
      "midi": 35,
      "hit": false,
      "t": 49489.028000000166,
      "d": 85.7663833333354,
      "v": 107
    },
    {
      "midi": 42,
      "hit": false,
      "t": 49489.028000000166,
      "d": 85.7663833333354,
      "v": 107
    },
    {
      "midi": 42,
      "hit": false,
      "t": 49489.02800000021,
      "d": 45.62041666666482,
      "v": 45
    },
    {
      "midi": 38,
      "hit": false,
      "t": 49489.02800000021,
      "d": 437.9560000000056,
      "v": 127
    },
    {
      "midi": 42,
      "hit": false,
      "t": 49489.02800000024,
      "d": 45.62041666666482,
      "v": 98
    },
    {
      "midi": 36,
      "hit": false,
      "t": 49489.02800000024,
      "d": 54.7445000000007,
      "v": 127
    },
    {
      "midi": 55,
      "hit": false,
      "t": 49492.67763333353,
      "d": 191.605750000017,
      "v": 127
    },
    {
      "midi": 55,
      "hit": false,
      "t": 49492.67763333353,
      "d": 191.605750000017,
      "v": 127
    },
    {
      "midi": 55,
      "hit": false,
      "t": 49492.67763333354,
      "d": 191.605750000017,
      "v": 127
    },
    {
      "midi": 55,
      "hit": false,
      "t": 49492.67763333354,
      "d": 191.605750000017,
      "v": 127
    },
    {
      "midi": 42,
      "hit": false,
      "t": 49598.51700000021,
      "d": 45.62041666666482,
      "v": 45
    },
    {
      "midi": 42,
      "hit": false,
      "t": 49598.51700000024,
      "d": 63.868583333336574,
      "v": 98
    },
    {
      "midi": 46,
      "hit": false,
      "t": 49708.00600000017,
      "d": 85.7663833333354,
      "v": 80
    },
    {
      "midi": 42,
      "hit": false,
      "t": 49708.00600000021,
      "d": 45.62041666666482,
      "v": 45
    },
    {
      "midi": 46,
      "hit": false,
      "t": 49708.00600000024,
      "d": 218.9780000000028,
      "v": 98
    },
    {
      "midi": 59,
      "hit": false,
      "t": 49784.64830000021,
      "d": 136.86125000000175,
      "v": 127
    },
    {
      "midi": 59,
      "hit": false,
      "t": 49784.64830000021,
      "d": 136.86125000000175,
      "v": 127
    },
    {
      "midi": 59,
      "hit": false,
      "t": 49784.64830000022,
      "d": 136.86125000000175,
      "v": 127
    },
    {
      "midi": 59,
      "hit": false,
      "t": 49784.64830000022,
      "d": 136.86125000000175,
      "v": 127
    },
    {
      "midi": 42,
      "hit": false,
      "t": 49817.49500000021,
      "d": 45.62041666666482,
      "v": 45
    },
    {
      "midi": 36,
      "hit": false,
      "t": 49817.49500000021,
      "d": 109.4890000000014,
      "v": 120
    },
    {
      "midi": 36,
      "hit": false,
      "t": 49926.98399999988,
      "d": 51.09486666666635,
      "v": 107
    },
    {
      "midi": 36,
      "hit": false,
      "t": 49926.98399999988,
      "d": 51.09486666666635,
      "v": 107
    },
    {
      "midi": 35,
      "hit": false,
      "t": 49926.98400000017,
      "d": 85.7663833333354,
      "v": 107
    },
    {
      "midi": 42,
      "hit": false,
      "t": 49926.98400000017,
      "d": 85.7663833333354,
      "v": 107
    },
    {
      "midi": 42,
      "hit": false,
      "t": 49926.984000000215,
      "d": 45.62041666666482,
      "v": 45
    },
    {
      "midi": 36,
      "hit": false,
      "t": 49926.984000000215,
      "d": 218.9780000000028,
      "v": 120
    },
    {
      "midi": 42,
      "hit": false,
      "t": 49926.984000000244,
      "d": 45.62041666666482,
      "v": 98
    },
    {
      "midi": 36,
      "hit": false,
      "t": 49926.984000000244,
      "d": 63.8685833333293,
      "v": 127
    },
    {
      "midi": 54,
      "hit": false,
      "t": 49930.63363333355,
      "d": 729.9266666666372,
      "v": 127
    },
    {
      "midi": 54,
      "hit": false,
      "t": 49930.63363333355,
      "d": 729.9266666666372,
      "v": 127
    },
    {
      "midi": 54,
      "hit": false,
      "t": 49930.63363333356,
      "d": 729.9266666666372,
      "v": 127
    },
    {
      "midi": 54,
      "hit": false,
      "t": 49930.63363333356,
      "d": 729.9266666666372,
      "v": 127
    },
    {
      "midi": 42,
      "hit": false,
      "t": 50036.47300000022,
      "d": 45.62041666666482,
      "v": 45
    },
    {
      "midi": 42,
      "hit": false,
      "t": 50036.47300000024,
      "d": 63.868583333336574,
      "v": 98
    },
    {
      "midi": 46,
      "hit": false,
      "t": 50145.962000000174,
      "d": 85.7663833333354,
      "v": 80
    },
    {
      "midi": 42,
      "hit": false,
      "t": 50145.96200000022,
      "d": 45.62041666666482,
      "v": 45
    },
    {
      "midi": 36,
      "hit": false,
      "t": 50145.96200000022,
      "d": 218.9780000000028,
      "v": 120
    },
    {
      "midi": 46,
      "hit": false,
      "t": 50145.96200000024,
      "d": 218.9780000000028,
      "v": 98
    },
    {
      "midi": 42,
      "hit": false,
      "t": 50255.45100000022,
      "d": 45.62041666666482,
      "v": 45
    },
    {
      "midi": 36,
      "hit": false,
      "t": 50364.93999999988,
      "d": 51.09486666666635,
      "v": 107
    },
    {
      "midi": 36,
      "hit": false,
      "t": 50364.93999999988,
      "d": 51.09486666666635,
      "v": 107
    },
    {
      "midi": 35,
      "hit": false,
      "t": 50364.94000000018,
      "d": 85.7663833333354,
      "v": 107
    },
    {
      "midi": 42,
      "hit": false,
      "t": 50364.94000000018,
      "d": 85.7663833333354,
      "v": 107
    },
    {
      "midi": 42,
      "hit": false,
      "t": 50364.94000000022,
      "d": 45.62041666666482,
      "v": 45
    },
    {
      "midi": 38,
      "hit": false,
      "t": 50364.94000000022,
      "d": 218.9780000000028,
      "v": 127
    },
    {
      "midi": 42,
      "hit": false,
      "t": 50364.94000000024,
      "d": 54.7445000000007,
      "v": 98
    },
    {
      "midi": 36,
      "hit": false,
      "t": 50364.94000000024,
      "d": 63.868583333336574,
      "v": 127
    },
    {
      "midi": 42,
      "hit": false,
      "t": 50474.42900000022,
      "d": 45.62041666666482,
      "v": 45
    },
    {
      "midi": 42,
      "hit": false,
      "t": 50474.429000000244,
      "d": 72.99266666666517,
      "v": 98
    },
    {
      "midi": 46,
      "hit": false,
      "t": 50583.91800000018,
      "d": 85.7663833333354,
      "v": 80
    },
    {
      "midi": 42,
      "hit": false,
      "t": 50583.91800000022,
      "d": 36.496333333336224,
      "v": 45
    },
    {
      "midi": 36,
      "hit": false,
      "t": 50583.91800000022,
      "d": 218.9780000000028,
      "v": 120
    },
    {
      "midi": 46,
      "hit": false,
      "t": 50583.918000000245,
      "d": 218.9780000000028,
      "v": 98
    },
    {
      "midi": 52,
      "hit": false,
      "t": 50660.56030000019,
      "d": 145.98533333333035,
      "v": 127
    },
    {
      "midi": 52,
      "hit": false,
      "t": 50660.56030000019,
      "d": 145.98533333333035,
      "v": 127
    },
    {
      "midi": 52,
      "hit": false,
      "t": 50660.560300000194,
      "d": 145.98533333333035,
      "v": 127
    },
    {
      "midi": 52,
      "hit": false,
      "t": 50660.560300000194,
      "d": 145.98533333333035,
      "v": 127
    },
    {
      "midi": 36,
      "hit": false,
      "t": 50693.406999999876,
      "d": 51.09486666666635,
      "v": 67
    },
    {
      "midi": 36,
      "hit": false,
      "t": 50693.406999999876,
      "d": 51.09486666666635,
      "v": 67
    },
    {
      "midi": 35,
      "hit": false,
      "t": 50693.40700000018,
      "d": 85.7663833333354,
      "v": 97
    },
    {
      "midi": 42,
      "hit": false,
      "t": 50693.40700000018,
      "d": 85.7663833333354,
      "v": 107
    },
    {
      "midi": 42,
      "hit": false,
      "t": 50693.407000000225,
      "d": 36.496333333336224,
      "v": 45
    },
    {
      "midi": 36,
      "hit": false,
      "t": 50802.89599999988,
      "d": 51.09486666666635,
      "v": 107
    },
    {
      "midi": 36,
      "hit": false,
      "t": 50802.89599999988,
      "d": 51.09486666666635,
      "v": 107
    },
    {
      "midi": 35,
      "hit": false,
      "t": 50802.89600000018,
      "d": 85.7663833333354,
      "v": 107
    },
    {
      "midi": 42,
      "hit": false,
      "t": 50802.89600000018,
      "d": 85.7663833333354,
      "v": 107
    },
    {
      "midi": 42,
      "hit": false,
      "t": 50802.896000000226,
      "d": 36.496333333336224,
      "v": 45
    },
    {
      "midi": 38,
      "hit": false,
      "t": 50802.896000000226,
      "d": 54.7445000000007,
      "v": 127
    },
    {
      "midi": 42,
      "hit": false,
      "t": 50802.89600000025,
      "d": 45.62041666666482,
      "v": 98
    },
    {
      "midi": 36,
      "hit": false,
      "t": 50802.89600000025,
      "d": 54.7445000000007,
      "v": 127
    },
    {
      "midi": 38,
      "hit": false,
      "t": 50806.54563333333,
      "d": 282.8465833333321,
      "v": 116
    },
    {
      "midi": 50,
      "hit": false,
      "t": 50806.54563333352,
      "d": 1733.575833333336,
      "v": 127
    },
    {
      "midi": 50,
      "hit": false,
      "t": 50806.54563333352,
      "d": 1733.575833333336,
      "v": 127
    },
    {
      "midi": 50,
      "hit": false,
      "t": 50806.545633333524,
      "d": 1733.575833333336,
      "v": 127
    },
    {
      "midi": 50,
      "hit": false,
      "t": 50806.545633333524,
      "d": 1733.575833333336,
      "v": 127
    },
    {
      "midi": 62,
      "hit": false,
      "t": 50812.020083333446,
      "d": 282.8465833333321,
      "v": 91
    },
    {
      "midi": 66,
      "hit": false,
      "t": 50815.66971666678,
      "d": 279.19694999999774,
      "v": 91
    },
    {
      "midi": 69,
      "hit": false,
      "t": 50815.66971666678,
      "d": 279.19694999999774,
      "v": 91
    },
    {
      "midi": 62,
      "hit": false,
      "t": 50815.66971666688,
      "d": 425.18228333333536,
      "v": 100
    },
    {
      "midi": 66,
      "hit": false,
      "t": 50821.14416666688,
      "d": 419.70783333333384,
      "v": 98
    },
    {
      "midi": 69,
      "hit": false,
      "t": 50821.14416666688,
      "d": 419.70783333333384,
      "v": 107
    },
    {
      "midi": 38,
      "hit": false,
      "t": 50857.64050000023,
      "d": 54.7445000000007,
      "v": 127
    },
    {
      "midi": 42,
      "hit": false,
      "t": 50912.38500000023,
      "d": 45.62041666666482,
      "v": 45
    },
    {
      "midi": 38,
      "hit": false,
      "t": 50912.38500000023,
      "d": 54.7445000000007,
      "v": 127
    },
    {
      "midi": 42,
      "hit": false,
      "t": 50912.38500000025,
      "d": 63.868583333336574,
      "v": 98
    },
    {
      "midi": 38,
      "hit": false,
      "t": 50967.12950000023,
      "d": 54.7445000000007,
      "v": 127
    },
    {
      "midi": 46,
      "hit": false,
      "t": 51021.874000000185,
      "d": 85.7663833333354,
      "v": 80
    },
    {
      "midi": 42,
      "hit": false,
      "t": 51021.87400000023,
      "d": 45.62041666666482,
      "v": 45
    },
    {
      "midi": 38,
      "hit": false,
      "t": 51021.87400000023,
      "d": 109.4890000000014,
      "v": 127
    },
    {
      "midi": 46,
      "hit": false,
      "t": 51021.87400000025,
      "d": 218.9780000000028,
      "v": 98
    },
    {
      "midi": 62,
      "hit": false,
      "t": 51098.51630000011,
      "d": 105.83936666666705,
      "v": 84
    },
    {
      "midi": 66,
      "hit": false,
      "t": 51103.99075000011,
      "d": 104.01454999999987,
      "v": 94
    },
    {
      "midi": 69,
      "hit": false,
      "t": 51103.99075000011,
      "d": 109.4890000000014,
      "v": 92
    },
    {
      "midi": 42,
      "hit": false,
      "t": 51131.36300000023,
      "d": 36.496333333336224,
      "v": 45
    },
    {
      "midi": 38,
      "hit": false,
      "t": 51131.36300000023,
      "d": 109.4890000000014,
      "v": 127
    },
    {
      "midi": 36,
      "hit": false,
      "t": 51240.851999999875,
      "d": 51.09486666666635,
      "v": 107
    },
    {
      "midi": 36,
      "hit": false,
      "t": 51240.851999999875,
      "d": 51.09486666666635,
      "v": 107
    },
    {
      "midi": 35,
      "hit": false,
      "t": 51240.85200000019,
      "d": 85.7663833333354,
      "v": 107
    },
    {
      "midi": 42,
      "hit": false,
      "t": 51240.85200000019,
      "d": 85.7663833333354,
      "v": 107
    },
    {
      "midi": 42,
      "hit": false,
      "t": 51240.85200000023,
      "d": 45.62041666666482,
      "v": 45
    },
    {
      "midi": 47,
      "hit": false,
      "t": 51240.85200000023,
      "d": 109.4890000000014,
      "v": 127
    },
    {
      "midi": 42,
      "hit": false,
      "t": 51240.85200000025,
      "d": 45.62041666666482,
      "v": 98
    },
    {
      "midi": 36,
      "hit": false,
      "t": 51240.85200000025,
      "d": 54.7445000000007,
      "v": 127
    },
    {
      "midi": 33,
      "hit": false,
      "t": 51244.501633333326,
      "d": 364.96333333333314,
      "v": 118
    },
    {
      "midi": 62,
      "hit": false,
      "t": 51253.62571666689,
      "d": 425.18228333333536,
      "v": 100
    },
    {
      "midi": 66,
      "hit": false,
      "t": 51253.62571666689,
      "d": 425.18228333333536,
      "v": 95
    },
    {
      "midi": 69,
      "hit": false,
      "t": 51253.62571666689,
      "d": 425.18228333333536,
      "v": 106
    },
    {
      "midi": 42,
      "hit": false,
      "t": 51350.34100000023,
      "d": 45.62041666666482,
      "v": 45
    },
    {
      "midi": 47,
      "hit": false,
      "t": 51350.34100000023,
      "d": 109.4890000000014,
      "v": 127
    },
    {
      "midi": 42,
      "hit": false,
      "t": 51350.341000000255,
      "d": 63.868583333336574,
      "v": 98
    },
    {
      "midi": 46,
      "hit": false,
      "t": 51459.83000000019,
      "d": 85.7663833333354,
      "v": 80
    },
    {
      "midi": 42,
      "hit": false,
      "t": 51459.830000000235,
      "d": 45.62041666666482,
      "v": 45
    },
    {
      "midi": 43,
      "hit": false,
      "t": 51459.830000000235,
      "d": 109.4890000000014,
      "v": 127
    },
    {
      "midi": 46,
      "hit": false,
      "t": 51459.83000000026,
      "d": 218.9780000000028,
      "v": 98
    },
    {
      "midi": 62,
      "hit": false,
      "t": 51541.94675000011,
      "d": 100.36491666666552,
      "v": 85
    },
    {
      "midi": 66,
      "hit": false,
      "t": 51545.596383333446,
      "d": 105.83936666666705,
      "v": 93
    },
    {
      "midi": 69,
      "hit": false,
      "t": 51545.596383333446,
      "d": 114.96345000000292,
      "v": 91
    },
    {
      "midi": 42,
      "hit": false,
      "t": 51569.319000000236,
      "d": 45.62041666666482,
      "v": 45
    },
    {
      "midi": 41,
      "hit": false,
      "t": 51569.319000000236,
      "d": 109.4890000000014,
      "v": 127
    },
    {
      "midi": 36,
      "hit": false,
      "t": 51678.80799999987,
      "d": 51.09486666666635,
      "v": 107
    },
    {
      "midi": 36,
      "hit": false,
      "t": 51678.80799999987,
      "d": 51.09486666666635,
      "v": 107
    },
    {
      "midi": 35,
      "hit": false,
      "t": 51678.808000000194,
      "d": 85.7663833333354,
      "v": 107
    },
    {
      "midi": 42,
      "hit": false,
      "t": 51678.808000000194,
      "d": 85.7663833333354,
      "v": 107
    },
    {
      "midi": 42,
      "hit": false,
      "t": 51678.80800000024,
      "d": 45.62041666666482,
      "v": 45
    },
    {
      "midi": 36,
      "hit": false,
      "t": 51678.80800000024,
      "d": 218.9780000000028,
      "v": 127
    },
    {
      "midi": 42,
      "hit": false,
      "t": 51678.80800000026,
      "d": 45.62041666666482,
      "v": 98
    },
    {
      "midi": 36,
      "hit": false,
      "t": 51678.80800000026,
      "d": 54.7445000000007,
      "v": 127
    },
    {
      "midi": 38,
      "hit": false,
      "t": 51682.457633333324,
      "d": 361.3136999999988,
      "v": 118
    },
    {
      "midi": 62,
      "hit": false,
      "t": 51691.58171666689,
      "d": 425.18228333333536,
      "v": 100
    },
    {
      "midi": 66,
      "hit": false,
      "t": 51691.58171666689,
      "d": 425.18228333333536,
      "v": 100
    },
    {
      "midi": 69,
      "hit": false,
      "t": 51691.58171666689,
      "d": 425.18228333333536,
      "v": 103
    },
    {
      "midi": 42,
      "hit": false,
      "t": 51788.29700000024,
      "d": 45.62041666666482,
      "v": 45
    },
    {
      "midi": 42,
      "hit": false,
      "t": 51788.29700000026,
      "d": 63.868583333336574,
      "v": 98
    },
    {
      "midi": 46,
      "hit": false,
      "t": 51897.7860000002,
      "d": 85.7663833333354,
      "v": 80
    },
    {
      "midi": 46,
      "hit": false,
      "t": 51897.78600000024,
      "d": 63.868583333336574,
      "v": 45
    },
    {
      "midi": 38,
      "hit": false,
      "t": 51897.78600000024,
      "d": 109.4890000000014,
      "v": 127
    },
    {
      "midi": 46,
      "hit": false,
      "t": 51897.78600000026,
      "d": 218.9780000000028,
      "v": 98
    },
    {
      "midi": 62,
      "hit": false,
      "t": 51974.42829999999,
      "d": 114.96345000000292,
      "v": 127
    },
    {
      "midi": 66,
      "hit": false,
      "t": 51979.90275000012,
      "d": 58.39413333333505,
      "v": 85
    },
    {
      "midi": 69,
      "hit": false,
      "t": 51979.90275000012,
      "d": 63.868583333336574,
      "v": 83
    },
    {
      "midi": 36,
      "hit": false,
      "t": 52007.27500000024,
      "d": 218.9780000000028,
      "v": 110
    },
    {
      "midi": 36,
      "hit": false,
      "t": 52116.76399999987,
      "d": 51.09486666666635,
      "v": 107
    },
    {
      "midi": 36,
      "hit": false,
      "t": 52116.76399999987,
      "d": 51.09486666666635,
      "v": 107
    },
    {
      "midi": 35,
      "hit": false,
      "t": 52116.7640000002,
      "d": 85.7663833333354,
      "v": 107
    },
    {
      "midi": 42,
      "hit": false,
      "t": 52116.7640000002,
      "d": 85.7663833333354,
      "v": 107
    },
    {
      "midi": 42,
      "hit": false,
      "t": 52116.76400000024,
      "d": 36.496333333336224,
      "v": 45
    },
    {
      "midi": 42,
      "hit": false,
      "t": 52116.764000000265,
      "d": 54.7445000000007,
      "v": 98
    },
    {
      "midi": 36,
      "hit": false,
      "t": 52116.764000000265,
      "d": 54.7445000000007,
      "v": 127
    },
    {
      "midi": 42,
      "hit": false,
      "t": 52120.41363333332,
      "d": 361.3136999999988,
      "v": 118
    },
    {
      "midi": 64,
      "hit": false,
      "t": 52125.88808333333,
      "d": 277.37213333333057,
      "v": 127
    },
    {
      "midi": 62,
      "hit": false,
      "t": 52125.888083333455,
      "d": 428.8319166666697,
      "v": 91
    },
    {
      "midi": 66,
      "hit": false,
      "t": 52129.53771666679,
      "d": 428.8319166666697,
      "v": 93
    },
    {
      "midi": 69,
      "hit": false,
      "t": 52129.53771666679,
      "d": 428.8319166666697,
      "v": 92
    },
    {
      "midi": 62,
      "hit": false,
      "t": 52129.5377166669,
      "d": 425.18228333333536,
      "v": 100
    },
    {
      "midi": 66,
      "hit": false,
      "t": 52135.0121666669,
      "d": 419.70783333333384,
      "v": 100
    },
    {
      "midi": 69,
      "hit": false,
      "t": 52135.0121666669,
      "d": 419.70783333333384,
      "v": 107
    },
    {
      "midi": 42,
      "hit": false,
      "t": 52226.253000000244,
      "d": 45.62041666666482,
      "v": 45
    },
    {
      "midi": 38,
      "hit": false,
      "t": 52226.253000000244,
      "d": 109.4890000000014,
      "v": 127
    },
    {
      "midi": 42,
      "hit": false,
      "t": 52226.253000000266,
      "d": 72.99266666666517,
      "v": 98
    },
    {
      "midi": 46,
      "hit": false,
      "t": 52335.7420000002,
      "d": 85.7663833333354,
      "v": 80
    },
    {
      "midi": 46,
      "hit": false,
      "t": 52335.742000000246,
      "d": 36.496333333336224,
      "v": 45
    },
    {
      "midi": 36,
      "hit": false,
      "t": 52335.742000000246,
      "d": 109.4890000000014,
      "v": 127
    },
    {
      "midi": 46,
      "hit": false,
      "t": 52335.74200000027,
      "d": 218.9780000000028,
      "v": 98
    },
    {
      "midi": 66,
      "hit": false,
      "t": 52412.3843,
      "d": 109.4890000000014,
      "v": 127
    },
    {
      "midi": 38,
      "hit": false,
      "t": 52445.23100000025,
      "d": 109.4890000000014,
      "v": 127
    },
    {
      "midi": 36,
      "hit": false,
      "t": 52554.71999999987,
      "d": 51.09486666666635,
      "v": 107
    },
    {
      "midi": 36,
      "hit": false,
      "t": 52554.71999999987,
      "d": 51.09486666666635,
      "v": 107
    },
    {
      "midi": 43,
      "hit": false,
      "t": 52554.71999999997,
      "d": 104.01454999999987,
      "v": 127
    },
    {
      "midi": 35,
      "hit": false,
      "t": 52554.720000000205,
      "d": 85.7663833333354,
      "v": 107
    },
    {
      "midi": 42,
      "hit": false,
      "t": 52554.720000000205,
      "d": 85.7663833333354,
      "v": 107
    },
    {
      "midi": 42,
      "hit": false,
      "t": 52554.72000000025,
      "d": 36.496333333336224,
      "v": 45
    },
    {
      "midi": 36,
      "hit": false,
      "t": 52554.72000000025,
      "d": 437.9560000000056,
      "v": 120
    },
    {
      "midi": 42,
      "hit": false,
      "t": 52554.72000000027,
      "d": 45.62041666666482,
      "v": 98
    },
    {
      "midi": 36,
      "hit": false,
      "t": 52554.72000000027,
      "d": 54.7445000000007,
      "v": 127
    },
    {
      "midi": 43,
      "hit": false,
      "t": 52563.84408333332,
      "d": 346.71516666666867,
      "v": 118
    },
    {
      "midi": 71,
      "hit": false,
      "t": 52563.8440833334,
      "d": 1742.6999166666646,
      "v": 97
    },
    {
      "midi": 67,
      "hit": false,
      "t": 52567.493716666664,
      "d": 118.61308333333,
      "v": 127
    },
    {
      "midi": 62,
      "hit": false,
      "t": 52572.96816666679,
      "d": 273.7225000000035,
      "v": 91
    },
    {
      "midi": 67,
      "hit": false,
      "t": 52572.96816666679,
      "d": 273.7225000000035,
      "v": 92
    },
    {
      "midi": 71,
      "hit": false,
      "t": 52572.96816666679,
      "d": 273.7225000000035,
      "v": 92
    },
    {
      "midi": 62,
      "hit": false,
      "t": 52576.61780000023,
      "d": 416.0581999999995,
      "v": 94
    },
    {
      "midi": 67,
      "hit": false,
      "t": 52582.092250000234,
      "d": 410.58374999999796,
      "v": 100
    },
    {
      "midi": 71,
      "hit": false,
      "t": 52582.092250000234,
      "d": 410.58374999999796,
      "v": 97
    },
    {
      "midi": 49,
      "hit": false,
      "t": 52582.09225000025,
      "d": 1085.765916666678,
      "v": 127
    },
    {
      "midi": 42,
      "hit": false,
      "t": 52664.20900000025,
      "d": 45.62041666666482,
      "v": 45
    },
    {
      "midi": 42,
      "hit": false,
      "t": 52664.20900000027,
      "d": 63.868583333336574,
      "v": 98
    },
    {
      "midi": 66,
      "hit": false,
      "t": 52704.35496666666,
      "d": 127.73716666666587,
      "v": 127
    },
    {
      "midi": 46,
      "hit": false,
      "t": 52773.69800000021,
      "d": 85.7663833333354,
      "v": 80
    },
    {
      "midi": 42,
      "hit": false,
      "t": 52773.69800000025,
      "d": 45.62041666666482,
      "v": 45
    },
    {
      "midi": 46,
      "hit": false,
      "t": 52773.69800000027,
      "d": 218.9780000000028,
      "v": 98
    },
    {
      "midi": 67,
      "hit": false,
      "t": 52855.81474999999,
      "d": 122.26271666666435,
      "v": 127
    },
    {
      "midi": 62,
      "hit": false,
      "t": 52855.81475000013,
      "d": 76.64229999999952,
      "v": 87
    },
    {
      "midi": 71,
      "hit": false,
      "t": 52855.81475000013,
      "d": 104.01454999999987,
      "v": 92
    },
    {
      "midi": 67,
      "hit": false,
      "t": 52855.81475000013,
      "d": 113.13863333333575,
      "v": 92
    },
    {
      "midi": 42,
      "hit": false,
      "t": 52883.18700000025,
      "d": 45.62041666666482,
      "v": 45
    },
    {
      "midi": 38,
      "hit": false,
      "t": 52987.20154999997,
      "d": 136.86125000000175,
      "v": 127
    },
    {
      "midi": 36,
      "hit": false,
      "t": 52992.67599999987,
      "d": 51.09486666666635,
      "v": 107
    },
    {
      "midi": 36,
      "hit": false,
      "t": 52992.67599999987,
      "d": 51.09486666666635,
      "v": 107
    },
    {
      "midi": 35,
      "hit": false,
      "t": 52992.67600000021,
      "d": 85.7663833333354,
      "v": 107
    },
    {
      "midi": 42,
      "hit": false,
      "t": 52992.67600000021,
      "d": 85.7663833333354,
      "v": 107
    },
    {
      "midi": 42,
      "hit": false,
      "t": 52992.676000000254,
      "d": 45.62041666666482,
      "v": 45
    },
    {
      "midi": 38,
      "hit": false,
      "t": 52992.676000000254,
      "d": 437.9560000000056,
      "v": 127
    },
    {
      "midi": 42,
      "hit": false,
      "t": 52992.676000000276,
      "d": 45.62041666666482,
      "v": 98
    },
    {
      "midi": 36,
      "hit": false,
      "t": 52992.676000000276,
      "d": 54.7445000000007,
      "v": 127
    },
    {
      "midi": 38,
      "hit": false,
      "t": 52996.32563333333,
      "d": 374.087416666669,
      "v": 116
    },
    {
      "midi": 66,
      "hit": false,
      "t": 53001.80008333332,
      "d": 104.01454999999987,
      "v": 127
    },
    {
      "midi": 62,
      "hit": false,
      "t": 53001.80008333357,
      "d": 428.8319166666697,
      "v": 94
    },
    {
      "midi": 67,
      "hit": false,
      "t": 53005.4497166669,
      "d": 425.18228333333536,
      "v": 98
    },
    {
      "midi": 71,
      "hit": false,
      "t": 53005.4497166669,
      "d": 425.18228333333536,
      "v": 100
    },
    {
      "midi": 42,
      "hit": false,
      "t": 53102.165000000256,
      "d": 36.496333333336224,
      "v": 45
    },
    {
      "midi": 42,
      "hit": false,
      "t": 53102.16500000028,
      "d": 63.868583333336574,
      "v": 98
    },
    {
      "midi": 46,
      "hit": false,
      "t": 53211.65400000021,
      "d": 85.7663833333354,
      "v": 80
    },
    {
      "midi": 42,
      "hit": false,
      "t": 53211.65400000026,
      "d": 36.496333333336224,
      "v": 45
    },
    {
      "midi": 46,
      "hit": false,
      "t": 53211.65400000028,
      "d": 218.9780000000028,
      "v": 98
    },
    {
      "midi": 67,
      "hit": false,
      "t": 53293.77074999999,
      "d": 104.01454999999987,
      "v": 127
    },
    {
      "midi": 67,
      "hit": false,
      "t": 53293.770750000134,
      "d": 136.86125000000175,
      "v": 91
    },
    {
      "midi": 71,
      "hit": false,
      "t": 53293.770750000134,
      "d": 136.86125000000175,
      "v": 94
    },
    {
      "midi": 62,
      "hit": false,
      "t": 53293.770750000134,
      "d": 149.63496666667197,
      "v": 92
    },
    {
      "midi": 42,
      "hit": false,
      "t": 53321.14300000026,
      "d": 45.62041666666482,
      "v": 45
    },
    {
      "midi": 36,
      "hit": false,
      "t": 53321.14300000026,
      "d": 109.4890000000014,
      "v": 120
    },
    {
      "midi": 43,
      "hit": false,
      "t": 53425.15754999997,
      "d": 124.08753333333152,
      "v": 127
    },
    {
      "midi": 36,
      "hit": false,
      "t": 53430.63199999987,
      "d": 51.09486666666635,
      "v": 107
    },
    {
      "midi": 36,
      "hit": false,
      "t": 53430.63199999987,
      "d": 51.09486666666635,
      "v": 107
    },
    {
      "midi": 35,
      "hit": false,
      "t": 53430.632000000216,
      "d": 85.7663833333354,
      "v": 107
    },
    {
      "midi": 42,
      "hit": false,
      "t": 53430.632000000216,
      "d": 85.7663833333354,
      "v": 107
    },
    {
      "midi": 42,
      "hit": false,
      "t": 53430.63200000026,
      "d": 45.62041666666482,
      "v": 45
    },
    {
      "midi": 36,
      "hit": false,
      "t": 53430.63200000026,
      "d": 218.9780000000028,
      "v": 120
    },
    {
      "midi": 42,
      "hit": false,
      "t": 53430.63200000028,
      "d": 45.62041666666482,
      "v": 98
    },
    {
      "midi": 36,
      "hit": false,
      "t": 53430.63200000028,
      "d": 72.99266666666517,
      "v": 127
    },
    {
      "midi": 43,
      "hit": false,
      "t": 53434.28163333333,
      "d": 355.83924999999726,
      "v": 119
    },
    {
      "midi": 66,
      "hit": false,
      "t": 53439.75608333332,
      "d": 264.5984166666676,
      "v": 127
    },
    {
      "midi": 62,
      "hit": false,
      "t": 53439.756083333574,
      "d": 428.8319166666697,
      "v": 94
    },
    {
      "midi": 67,
      "hit": false,
      "t": 53443.40571666691,
      "d": 425.18228333333536,
      "v": 100
    },
    {
      "midi": 71,
      "hit": false,
      "t": 53443.40571666691,
      "d": 425.18228333333536,
      "v": 98
    },
    {
      "midi": 42,
      "hit": false,
      "t": 53540.12100000026,
      "d": 45.62041666666482,
      "v": 45
    },
    {
      "midi": 42,
      "hit": false,
      "t": 53540.12100000028,
      "d": 63.868583333336574,
      "v": 98
    },
    {
      "midi": 46,
      "hit": false,
      "t": 53649.61000000022,
      "d": 85.7663833333354,
      "v": 80
    },
    {
      "midi": 42,
      "hit": false,
      "t": 53649.61000000026,
      "d": 36.49633333332895,
      "v": 45
    },
    {
      "midi": 36,
      "hit": false,
      "t": 53649.61000000026,
      "d": 218.97799999999552,
      "v": 120
    },
    {
      "midi": 46,
      "hit": false,
      "t": 53649.610000000284,
      "d": 218.9780000000028,
      "v": 98
    },
    {
      "midi": 64,
      "hit": false,
      "t": 53731.72674999999,
      "d": 359.4888833333316,
      "v": 127
    },
    {
      "midi": 71,
      "hit": false,
      "t": 53731.72675000014,
      "d": 118.61308333333,
      "v": 93
    },
    {
      "midi": 62,
      "hit": false,
      "t": 53731.72675000014,
      "d": 122.26271666666435,
      "v": 91
    },
    {
      "midi": 67,
      "hit": false,
      "t": 53731.72675000014,
      "d": 136.86124999999447,
      "v": 93
    },
    {
      "midi": 42,
      "hit": false,
      "t": 53759.09900000026,
      "d": 36.496333333336224,
      "v": 45
    },
    {
      "midi": 36,
      "hit": false,
      "t": 53868.587999999865,
      "d": 51.09486666666635,
      "v": 107
    },
    {
      "midi": 36,
      "hit": false,
      "t": 53868.587999999865,
      "d": 51.09486666666635,
      "v": 107
    },
    {
      "midi": 35,
      "hit": false,
      "t": 53868.58800000022,
      "d": 85.7663833333354,
      "v": 107
    },
    {
      "midi": 42,
      "hit": false,
      "t": 53868.58800000022,
      "d": 85.7663833333354,
      "v": 107
    },
    {
      "midi": 42,
      "hit": false,
      "t": 53868.58800000026,
      "d": 36.496333333336224,
      "v": 45
    },
    {
      "midi": 38,
      "hit": false,
      "t": 53868.58800000026,
      "d": 218.9780000000028,
      "v": 127
    },
    {
      "midi": 42,
      "hit": false,
      "t": 53868.58800000029,
      "d": 54.7445000000007,
      "v": 98
    },
    {
      "midi": 36,
      "hit": false,
      "t": 53868.58800000029,
      "d": 63.868583333336574,
      "v": 127
    },
    {
      "midi": 38,
      "hit": false,
      "t": 53872.23763333333,
      "d": 328.4669999999969,
      "v": 116
    },
    {
      "midi": 62,
      "hit": false,
      "t": 53877.71208333358,
      "d": 428.8319166666697,
      "v": 93
    },
    {
      "midi": 67,
      "hit": false,
      "t": 53877.71208333358,
      "d": 432.48155000000406,
      "v": 100
    },
    {
      "midi": 71,
      "hit": false,
      "t": 53877.71208333358,
      "d": 432.48155000000406,
      "v": 98
    },
    {
      "midi": 42,
      "hit": false,
      "t": 53978.07700000026,
      "d": 36.496333333336224,
      "v": 45
    },
    {
      "midi": 42,
      "hit": false,
      "t": 53978.07700000029,
      "d": 72.99266666666517,
      "v": 98
    },
    {
      "midi": 46,
      "hit": false,
      "t": 54087.566000000224,
      "d": 85.7663833333354,
      "v": 80
    },
    {
      "midi": 42,
      "hit": false,
      "t": 54087.56600000026,
      "d": 36.496333333336224,
      "v": 45
    },
    {
      "midi": 36,
      "hit": false,
      "t": 54087.56600000026,
      "d": 218.9780000000028,
      "v": 120
    },
    {
      "midi": 46,
      "hit": false,
      "t": 54087.56600000029,
      "d": 218.9780000000028,
      "v": 98
    },
    {
      "midi": 65,
      "hit": false,
      "t": 54169.682749999985,
      "d": 136.86125000000175,
      "v": 127
    },
    {
      "midi": 62,
      "hit": false,
      "t": 54169.68275000013,
      "d": 72.99266666666517,
      "v": 89
    },
    {
      "midi": 71,
      "hit": false,
      "t": 54169.68275000013,
      "d": 85.7663833333354,
      "v": 91
    },
    {
      "midi": 67,
      "hit": false,
      "t": 54169.68275000013,
      "d": 100.36491666666552,
      "v": 91
    },
    {
      "midi": 42,
      "hit": false,
      "t": 54197.05500000026,
      "d": 45.62041666666482,
      "v": 45
    },
    {
      "midi": 36,
      "hit": false,
      "t": 54306.54399999986,
      "d": 51.09486666666635,
      "v": 107
    },
    {
      "midi": 36,
      "hit": false,
      "t": 54306.54399999986,
      "d": 51.09486666666635,
      "v": 107
    },
    {
      "midi": 45,
      "hit": false,
      "t": 54306.543999999965,
      "d": 100.36491666666552,
      "v": 127
    },
    {
      "midi": 35,
      "hit": false,
      "t": 54306.54400000023,
      "d": 85.7663833333354,
      "v": 107
    },
    {
      "midi": 42,
      "hit": false,
      "t": 54306.54400000023,
      "d": 85.7663833333354,
      "v": 107
    },
    {
      "midi": 42,
      "hit": false,
      "t": 54306.54400000026,
      "d": 36.496333333336224,
      "v": 45
    },
    {
      "midi": 36,
      "hit": false,
      "t": 54306.54400000026,
      "d": 437.9560000000056,
      "v": 120
    },
    {
      "midi": 42,
      "hit": false,
      "t": 54306.54400000029,
      "d": 45.62041666666482,
      "v": 98
    },
    {
      "midi": 36,
      "hit": false,
      "t": 54306.54400000029,
      "d": 54.7445000000007,
      "v": 127
    },
    {
      "midi": 45,
      "hit": false,
      "t": 54310.19363333333,
      "d": 370.43778333333466,
      "v": 118
    },
    {
      "midi": 69,
      "hit": false,
      "t": 54315.6680833334,
      "d": 1742.6999166666646,
      "v": 97
    },
    {
      "midi": 66,
      "hit": false,
      "t": 54319.31771666666,
      "d": 118.61308333333,
      "v": 127
    },
    {
      "midi": 62,
      "hit": false,
      "t": 54324.7921666668,
      "d": 273.7225000000035,
      "v": 94
    },
    {
      "midi": 66,
      "hit": false,
      "t": 54324.7921666668,
      "d": 273.7225000000035,
      "v": 98
    },
    {
      "midi": 69,
      "hit": false,
      "t": 54324.7921666668,
      "d": 273.7225000000035,
      "v": 95
    },
    {
      "midi": 62,
      "hit": false,
      "t": 54324.79216666691,
      "d": 419.70783333333384,
      "v": 98
    },
    {
      "midi": 66,
      "hit": false,
      "t": 54328.44180000025,
      "d": 416.0581999999995,
      "v": 100
    },
    {
      "midi": 69,
      "hit": false,
      "t": 54333.91625000025,
      "d": 410.58374999999796,
      "v": 106
    },
    {
      "midi": 42,
      "hit": false,
      "t": 54416.033000000265,
      "d": 36.496333333336224,
      "v": 45
    },
    {
      "midi": 42,
      "hit": false,
      "t": 54416.033000000294,
      "d": 63.868583333336574,
      "v": 98
    },
    {
      "midi": 65,
      "hit": false,
      "t": 54456.17896666665,
      "d": 127.73716666666587,
      "v": 127
    },
    {
      "midi": 46,
      "hit": false,
      "t": 54525.52200000023,
      "d": 85.7663833333354,
      "v": 80
    },
    {
      "midi": 42,
      "hit": false,
      "t": 54525.52200000027,
      "d": 36.496333333336224,
      "v": 45
    },
    {
      "midi": 46,
      "hit": false,
      "t": 54525.522000000296,
      "d": 218.9780000000028,
      "v": 98
    },
    {
      "midi": 66,
      "hit": false,
      "t": 54607.638749999984,
      "d": 122.26271666666435,
      "v": 127
    },
    {
      "midi": 62,
      "hit": false,
      "t": 54607.63875000014,
      "d": 72.99266666666517,
      "v": 88
    },
    {
      "midi": 66,
      "hit": false,
      "t": 54607.63875000014,
      "d": 82.11675000000105,
      "v": 93
    },
    {
      "midi": 69,
      "hit": false,
      "t": 54607.63875000014,
      "d": 91.24083333333692,
      "v": 92
    },
    {
      "midi": 42,
      "hit": false,
      "t": 54635.01100000027,
      "d": 36.496333333336224,
      "v": 45
    },
    {
      "midi": 38,
      "hit": false,
      "t": 54739.02554999996,
      "d": 136.86125000000175,
      "v": 127
    },
    {
      "midi": 36,
      "hit": false,
      "t": 54744.49999999986,
      "d": 51.09486666666635,
      "v": 107
    },
    {
      "midi": 36,
      "hit": false,
      "t": 54744.49999999986,
      "d": 51.09486666666635,
      "v": 107
    },
    {
      "midi": 35,
      "hit": false,
      "t": 54744.50000000023,
      "d": 85.7663833333354,
      "v": 107
    },
    {
      "midi": 42,
      "hit": false,
      "t": 54744.50000000023,
      "d": 85.7663833333354,
      "v": 107
    },
    {
      "midi": 42,
      "hit": false,
      "t": 54744.50000000027,
      "d": 45.62041666666482,
      "v": 45
    },
    {
      "midi": 38,
      "hit": false,
      "t": 54744.50000000027,
      "d": 328.4670000000042,
      "v": 127
    },
    {
      "midi": 42,
      "hit": false,
      "t": 54744.5000000003,
      "d": 45.62041666666482,
      "v": 98
    },
    {
      "midi": 36,
      "hit": false,
      "t": 54744.5000000003,
      "d": 54.7445000000007,
      "v": 127
    },
    {
      "midi": 38,
      "hit": false,
      "t": 54748.14963333333,
      "d": 370.43778333333466,
      "v": 116
    },
    {
      "midi": 65,
      "hit": false,
      "t": 54753.624083333314,
      "d": 85.7663833333354,
      "v": 127
    },
    {
      "midi": 62,
      "hit": false,
      "t": 54753.62408333358,
      "d": 428.8319166666697,
      "v": 100
    },
    {
      "midi": 66,
      "hit": false,
      "t": 54757.27371666692,
      "d": 425.18228333333536,
      "v": 97
    },
    {
      "midi": 69,
      "hit": false,
      "t": 54757.27371666692,
      "d": 425.18228333333536,
      "v": 106
    },
    {
      "midi": 42,
      "hit": false,
      "t": 54853.98900000027,
      "d": 45.62041666666482,
      "v": 45
    },
    {
      "midi": 42,
      "hit": false,
      "t": 54853.9890000003,
      "d": 63.868583333336574,
      "v": 98
    },
    {
      "midi": 46,
      "hit": false,
      "t": 54963.478000000236,
      "d": 85.7663833333354,
      "v": 80
    },
    {
      "midi": 42,
      "hit": false,
      "t": 54963.47800000027,
      "d": 45.62041666666482,
      "v": 45
    },
    {
      "midi": 46,
      "hit": false,
      "t": 54963.4780000003,
      "d": 218.9780000000028,
      "v": 98
    },
    {
      "midi": 66,
      "hit": false,
      "t": 55040.12029999998,
      "d": 109.4890000000014,
      "v": 127
    },
    {
      "midi": 66,
      "hit": false,
      "t": 55045.59475000014,
      "d": 122.26271666666435,
      "v": 98
    },
    {
      "midi": 62,
      "hit": false,
      "t": 55045.59475000014,
      "d": 136.86124999999447,
      "v": 93
    },
    {
      "midi": 69,
      "hit": false,
      "t": 55045.59475000014,
      "d": 136.86124999999447,
      "v": 97
    },
    {
      "midi": 42,
      "hit": false,
      "t": 55072.96700000027,
      "d": 45.62041666666482,
      "v": 45
    },
    {
      "midi": 36,
      "hit": false,
      "t": 55072.96700000027,
      "d": 109.4890000000014,
      "v": 120
    },
    {
      "midi": 45,
      "hit": false,
      "t": 55176.98154999996,
      "d": 109.4890000000014,
      "v": 127
    },
    {
      "midi": 36,
      "hit": false,
      "t": 55182.45599999986,
      "d": 51.09486666666635,
      "v": 107
    },
    {
      "midi": 36,
      "hit": false,
      "t": 55182.45599999986,
      "d": 51.09486666666635,
      "v": 107
    },
    {
      "midi": 35,
      "hit": false,
      "t": 55182.45600000024,
      "d": 85.7663833333354,
      "v": 107
    },
    {
      "midi": 42,
      "hit": false,
      "t": 55182.45600000024,
      "d": 85.7663833333354,
      "v": 107
    },
    {
      "midi": 42,
      "hit": false,
      "t": 55182.456000000275,
      "d": 45.62041666666482,
      "v": 45
    },
    {
      "midi": 36,
      "hit": false,
      "t": 55182.456000000275,
      "d": 218.9780000000028,
      "v": 120
    },
    {
      "midi": 42,
      "hit": false,
      "t": 55182.456000000304,
      "d": 45.62041666666482,
      "v": 98
    },
    {
      "midi": 36,
      "hit": false,
      "t": 55182.456000000304,
      "d": 63.8685833333293,
      "v": 127
    },
    {
      "midi": 45,
      "hit": false,
      "t": 55186.105633333325,
      "d": 355.83924999999726,
      "v": 118
    },
    {
      "midi": 64,
      "hit": false,
      "t": 55191.58008333331,
      "d": 249.99988333333022,
      "v": 127
    },
    {
      "midi": 62,
      "hit": false,
      "t": 55191.58008333359,
      "d": 428.8319166666697,
      "v": 98
    },
    {
      "midi": 66,
      "hit": false,
      "t": 55195.22971666692,
      "d": 425.18228333333536,
      "v": 98
    },
    {
      "midi": 69,
      "hit": false,
      "t": 55195.22971666692,
      "d": 425.18228333333536,
      "v": 103
    },
    {
      "midi": 42,
      "hit": false,
      "t": 55291.945000000276,
      "d": 45.62041666666482,
      "v": 45
    },
    {
      "midi": 42,
      "hit": false,
      "t": 55291.9450000003,
      "d": 63.868583333336574,
      "v": 98
    },
    {
      "midi": 46,
      "hit": false,
      "t": 55401.43400000024,
      "d": 85.7663833333354,
      "v": 80
    },
    {
      "midi": 42,
      "hit": false,
      "t": 55401.43400000028,
      "d": 45.62041666666482,
      "v": 45
    },
    {
      "midi": 36,
      "hit": false,
      "t": 55401.43400000028,
      "d": 218.9780000000028,
      "v": 120
    },
    {
      "midi": 46,
      "hit": false,
      "t": 55401.4340000003,
      "d": 218.9780000000028,
      "v": 98
    },
    {
      "midi": 62,
      "hit": false,
      "t": 55483.55074999997,
      "d": 428.8319166666697,
      "v": 127
    },
    {
      "midi": 66,
      "hit": false,
      "t": 55483.55075000013,
      "d": 109.4890000000014,
      "v": 93
    },
    {
      "midi": 62,
      "hit": false,
      "t": 55483.55075000013,
      "d": 113.13863333333575,
      "v": 91
    },
    {
      "midi": 69,
      "hit": false,
      "t": 55483.55075000013,
      "d": 122.26271666667162,
      "v": 92
    },
    {
      "midi": 42,
      "hit": false,
      "t": 55510.92300000028,
      "d": 36.496333333336224,
      "v": 45
    },
    {
      "midi": 36,
      "hit": false,
      "t": 55620.41199999986,
      "d": 51.09486666666635,
      "v": 107
    },
    {
      "midi": 36,
      "hit": false,
      "t": 55620.41199999986,
      "d": 51.09486666666635,
      "v": 107
    },
    {
      "midi": 35,
      "hit": false,
      "t": 55620.412000000244,
      "d": 85.7663833333354,
      "v": 107
    },
    {
      "midi": 42,
      "hit": false,
      "t": 55620.412000000244,
      "d": 85.7663833333354,
      "v": 107
    },
    {
      "midi": 42,
      "hit": false,
      "t": 55620.41200000028,
      "d": 36.496333333336224,
      "v": 45
    },
    {
      "midi": 38,
      "hit": false,
      "t": 55620.41200000028,
      "d": 218.9780000000028,
      "v": 127
    },
    {
      "midi": 42,
      "hit": false,
      "t": 55620.4120000003,
      "d": 54.7445000000007,
      "v": 98
    },
    {
      "midi": 36,
      "hit": false,
      "t": 55620.4120000003,
      "d": 63.868583333336574,
      "v": 127
    },
    {
      "midi": 38,
      "hit": false,
      "t": 55624.061633333324,
      "d": 352.1896166666702,
      "v": 119
    },
    {
      "midi": 62,
      "hit": false,
      "t": 55629.536083333594,
      "d": 428.8319166666697,
      "v": 97
    },
    {
      "midi": 66,
      "hit": false,
      "t": 55629.536083333594,
      "d": 428.8319166666697,
      "v": 97
    },
    {
      "midi": 69,
      "hit": false,
      "t": 55629.536083333594,
      "d": 428.8319166666697,
      "v": 100
    },
    {
      "midi": 42,
      "hit": false,
      "t": 55729.90100000028,
      "d": 36.496333333336224,
      "v": 45
    },
    {
      "midi": 42,
      "hit": false,
      "t": 55729.9010000003,
      "d": 72.99266666666517,
      "v": 98
    },
    {
      "midi": 46,
      "hit": false,
      "t": 55839.39000000025,
      "d": 85.7663833333354,
      "v": 80
    },
    {
      "midi": 46,
      "hit": false,
      "t": 55839.39000000028,
      "d": 45.62041666666482,
      "v": 45
    },
    {
      "midi": 36,
      "hit": false,
      "t": 55839.39000000028,
      "d": 218.97799999999552,
      "v": 120
    },
    {
      "midi": 46,
      "hit": false,
      "t": 55839.390000000305,
      "d": 218.9780000000028,
      "v": 98
    },
    {
      "midi": 62,
      "hit": false,
      "t": 55921.50675000014,
      "d": 104.01454999999987,
      "v": 92
    },
    {
      "midi": 66,
      "hit": false,
      "t": 55921.50675000014,
      "d": 113.13863333333575,
      "v": 94
    },
    {
      "midi": 69,
      "hit": false,
      "t": 55921.50675000014,
      "d": 131.38680000000022,
      "v": 95
    },
    {
      "midi": 36,
      "hit": false,
      "t": 55948.878999999855,
      "d": 51.09486666666635,
      "v": 67
    },
    {
      "midi": 36,
      "hit": false,
      "t": 55948.878999999855,
      "d": 51.09486666666635,
      "v": 67
    },
    {
      "midi": 35,
      "hit": false,
      "t": 55948.87900000025,
      "d": 85.7663833333354,
      "v": 97
    },
    {
      "midi": 42,
      "hit": false,
      "t": 55948.87900000025,
      "d": 85.7663833333354,
      "v": 107
    },
    {
      "midi": 36,
      "hit": false,
      "t": 56058.36799999986,
      "d": 51.09486666666635,
      "v": 107
    },
    {
      "midi": 36,
      "hit": false,
      "t": 56058.36799999986,
      "d": 51.09486666666635,
      "v": 107
    },
    {
      "midi": 35,
      "hit": false,
      "t": 56058.36800000025,
      "d": 85.7663833333354,
      "v": 107
    },
    {
      "midi": 42,
      "hit": false,
      "t": 56058.36800000025,
      "d": 85.7663833333354,
      "v": 107
    },
    {
      "midi": 42,
      "hit": false,
      "t": 56058.36800000028,
      "d": 36.496333333336224,
      "v": 45
    },
    {
      "midi": 36,
      "hit": false,
      "t": 56058.36800000028,
      "d": 437.9560000000056,
      "v": 120
    },
    {
      "midi": 42,
      "hit": false,
      "t": 56058.36800000031,
      "d": 45.62041666666482,
      "v": 98
    },
    {
      "midi": 36,
      "hit": false,
      "t": 56058.36800000031,
      "d": 54.7445000000007,
      "v": 127
    },
    {
      "midi": 43,
      "hit": false,
      "t": 56062.01763333329,
      "d": 96.71528333333117,
      "v": 127
    },
    {
      "midi": 43,
      "hit": false,
      "t": 56067.49208333333,
      "d": 264.5984166666676,
      "v": 119
    },
    {
      "midi": 55,
      "hit": false,
      "t": 56076.616166666645,
      "d": 145.98533333333035,
      "v": 127
    },
    {
      "midi": 59,
      "hit": false,
      "t": 56076.616166666645,
      "d": 155.10941666666622,
      "v": 127
    },
    {
      "midi": 62,
      "hit": false,
      "t": 56076.616166666805,
      "d": 222.62763333334442,
      "v": 92
    },
    {
      "midi": 67,
      "hit": false,
      "t": 56080.26580000014,
      "d": 197.08020000000397,
      "v": 93
    },
    {
      "midi": 71,
      "hit": false,
      "t": 56085.74025000014,
      "d": 204.37946666667267,
      "v": 93
    },
    {
      "midi": 62,
      "hit": false,
      "t": 56085.740250000264,
      "d": 195.2553833333368,
      "v": 97
    },
    {
      "midi": 67,
      "hit": false,
      "t": 56089.3898833336,
      "d": 191.60575000000244,
      "v": 103
    },
    {
      "midi": 71,
      "hit": false,
      "t": 56089.3898833336,
      "d": 191.60575000000244,
      "v": 103
    },
    {
      "midi": 42,
      "hit": false,
      "t": 56167.85700000028,
      "d": 45.62041666666482,
      "v": 45
    },
    {
      "midi": 42,
      "hit": false,
      "t": 56167.85700000031,
      "d": 63.868583333336574,
      "v": 98
    },
    {
      "midi": 46,
      "hit": false,
      "t": 56277.34600000025,
      "d": 85.7663833333354,
      "v": 80
    },
    {
      "midi": 42,
      "hit": false,
      "t": 56277.34600000028,
      "d": 45.62041666666482,
      "v": 45
    },
    {
      "midi": 46,
      "hit": false,
      "t": 56277.34600000031,
      "d": 218.9780000000028,
      "v": 98
    },
    {
      "midi": 42,
      "hit": false,
      "t": 56386.83500000028,
      "d": 45.62041666666482,
      "v": 45
    },
    {
      "midi": 36,
      "hit": false,
      "t": 56496.323999999855,
      "d": 51.09486666666635,
      "v": 107
    },
    {
      "midi": 36,
      "hit": false,
      "t": 56496.323999999855,
      "d": 51.09486666666635,
      "v": 107
    },
    {
      "midi": 43,
      "hit": false,
      "t": 56496.32399999996,
      "d": 136.86125000000175,
      "v": 127
    },
    {
      "midi": 35,
      "hit": false,
      "t": 56496.324000000255,
      "d": 85.7663833333354,
      "v": 107
    },
    {
      "midi": 42,
      "hit": false,
      "t": 56496.324000000255,
      "d": 85.7663833333354,
      "v": 107
    },
    {
      "midi": 42,
      "hit": false,
      "t": 56496.324000000284,
      "d": 45.62041666666482,
      "v": 45
    },
    {
      "midi": 38,
      "hit": false,
      "t": 56496.324000000284,
      "d": 437.9560000000056,
      "v": 127
    },
    {
      "midi": 42,
      "hit": false,
      "t": 56496.32400000031,
      "d": 45.62041666666482,
      "v": 98
    },
    {
      "midi": 36,
      "hit": false,
      "t": 56496.32400000031,
      "d": 54.7445000000007,
      "v": 127
    },
    {
      "midi": 43,
      "hit": false,
      "t": 56499.973633333335,
      "d": 270.07286666666914,
      "v": 123
    },
    {
      "midi": 55,
      "hit": false,
      "t": 56509.09771666664,
      "d": 164.2335000000021,
      "v": 127
    },
    {
      "midi": 59,
      "hit": false,
      "t": 56509.09771666664,
      "d": 206.20428333333257,
      "v": 127
    },
    {
      "midi": 71,
      "hit": false,
      "t": 56514.57216666682,
      "d": 167.88313333333645,
      "v": 93
    },
    {
      "midi": 67,
      "hit": false,
      "t": 56514.57216666682,
      "d": 186.13130000000092,
      "v": 94
    },
    {
      "midi": 62,
      "hit": false,
      "t": 56514.57216666682,
      "d": 209.85391666666692,
      "v": 93
    },
    {
      "midi": 62,
      "hit": false,
      "t": 56518.22180000027,
      "d": 200.72983333333832,
      "v": 100
    },
    {
      "midi": 67,
      "hit": false,
      "t": 56523.69625000027,
      "d": 195.2553833333368,
      "v": 106
    },
    {
      "midi": 71,
      "hit": false,
      "t": 56523.69625000027,
      "d": 195.2553833333368,
      "v": 106
    },
    {
      "midi": 42,
      "hit": false,
      "t": 56605.813000000286,
      "d": 45.62041666666482,
      "v": 45
    },
    {
      "midi": 42,
      "hit": false,
      "t": 56605.813000000315,
      "d": 63.868583333336574,
      "v": 98
    },
    {
      "midi": 46,
      "hit": false,
      "t": 56715.30200000026,
      "d": 85.7663833333354,
      "v": 80
    },
    {
      "midi": 42,
      "hit": false,
      "t": 56715.30200000029,
      "d": 45.62041666666482,
      "v": 45
    },
    {
      "midi": 46,
      "hit": false,
      "t": 56715.302000000316,
      "d": 218.9780000000028,
      "v": 98
    },
    {
      "midi": 42,
      "hit": false,
      "t": 56824.79100000029,
      "d": 45.62041666666482,
      "v": 45
    },
    {
      "midi": 36,
      "hit": false,
      "t": 56824.79100000029,
      "d": 109.4890000000014,
      "v": 120
    },
    {
      "midi": 36,
      "hit": false,
      "t": 56934.27999999985,
      "d": 51.09486666666635,
      "v": 107
    },
    {
      "midi": 36,
      "hit": false,
      "t": 56934.27999999985,
      "d": 51.09486666666635,
      "v": 107
    },
    {
      "midi": 45,
      "hit": false,
      "t": 56934.279999999955,
      "d": 136.86125000000175,
      "v": 127
    },
    {
      "midi": 35,
      "hit": false,
      "t": 56934.28000000026,
      "d": 85.7663833333354,
      "v": 107
    },
    {
      "midi": 42,
      "hit": false,
      "t": 56934.28000000026,
      "d": 85.7663833333354,
      "v": 107
    },
    {
      "midi": 42,
      "hit": false,
      "t": 56934.28000000029,
      "d": 45.62041666666482,
      "v": 45
    },
    {
      "midi": 36,
      "hit": false,
      "t": 56934.28000000029,
      "d": 218.9780000000028,
      "v": 120
    },
    {
      "midi": 42,
      "hit": false,
      "t": 56934.28000000032,
      "d": 45.62041666666482,
      "v": 98
    },
    {
      "midi": 36,
      "hit": false,
      "t": 56934.28000000032,
      "d": 54.7445000000007,
      "v": 127
    },
    {
      "midi": 45,
      "hit": false,
      "t": 56937.92963333334,
      "d": 270.07286666666914,
      "v": 119
    },
    {
      "midi": 57,
      "hit": false,
      "t": 56947.05371666664,
      "d": 206.20428333333257,
      "v": 127
    },
    {
      "midi": 61,
      "hit": false,
      "t": 56952.52816666664,
      "d": 255.47433333333174,
      "v": 127
    },
    {
      "midi": 61,
      "hit": false,
      "t": 56952.528166666816,
      "d": 419.70783333333384,
      "v": 94
    },
    {
      "midi": 64,
      "hit": false,
      "t": 56952.528166666816,
      "d": 419.70783333333384,
      "v": 94
    },
    {
      "midi": 69,
      "hit": false,
      "t": 56956.17780000015,
      "d": 416.0581999999995,
      "v": 92
    },
    {
      "midi": 61,
      "hit": false,
      "t": 56961.652250000276,
      "d": 410.58374999999796,
      "v": 97
    },
    {
      "midi": 64,
      "hit": false,
      "t": 56961.652250000276,
      "d": 414.2333833333323,
      "v": 98
    },
    {
      "midi": 69,
      "hit": false,
      "t": 56961.652250000276,
      "d": 414.2333833333323,
      "v": 103
    },
    {
      "midi": 42,
      "hit": false,
      "t": 57043.76900000029,
      "d": 45.62041666666482,
      "v": 45
    },
    {
      "midi": 42,
      "hit": false,
      "t": 57043.76900000032,
      "d": 63.868583333336574,
      "v": 98
    },
    {
      "midi": 46,
      "hit": false,
      "t": 57153.25800000026,
      "d": 85.7663833333354,
      "v": 80
    },
    {
      "midi": 42,
      "hit": false,
      "t": 57153.25800000029,
      "d": 45.62041666666482,
      "v": 45
    },
    {
      "midi": 36,
      "hit": false,
      "t": 57153.25800000029,
      "d": 218.9780000000028,
      "v": 120
    },
    {
      "midi": 46,
      "hit": false,
      "t": 57153.25800000032,
      "d": 218.9780000000028,
      "v": 98
    },
    {
      "midi": 55,
      "hit": false,
      "t": 57239.02438333331,
      "d": 96.71528333333117,
      "v": 127
    },
    {
      "midi": 62,
      "hit": false,
      "t": 57239.02438333331,
      "d": 114.96344999999565,
      "v": 127
    },
    {
      "midi": 42,
      "hit": false,
      "t": 57262.747000000294,
      "d": 45.62041666666482,
      "v": 45
    },
    {
      "midi": 36,
      "hit": false,
      "t": 57372.23599999985,
      "d": 51.09486666666635,
      "v": 107
    },
    {
      "midi": 36,
      "hit": false,
      "t": 57372.23599999985,
      "d": 51.09486666666635,
      "v": 107
    },
    {
      "midi": 35,
      "hit": false,
      "t": 57372.236000000266,
      "d": 85.7663833333354,
      "v": 107
    },
    {
      "midi": 42,
      "hit": false,
      "t": 57372.236000000266,
      "d": 85.7663833333354,
      "v": 107
    },
    {
      "midi": 42,
      "hit": false,
      "t": 57372.236000000295,
      "d": 45.62041666666482,
      "v": 45
    },
    {
      "midi": 38,
      "hit": false,
      "t": 57372.236000000295,
      "d": 218.9780000000028,
      "v": 127
    },
    {
      "midi": 42,
      "hit": false,
      "t": 57372.236000000325,
      "d": 54.7445000000007,
      "v": 98
    },
    {
      "midi": 36,
      "hit": false,
      "t": 57372.236000000325,
      "d": 54.7445000000007,
      "v": 127
    },
    {
      "midi": 45,
      "hit": false,
      "t": 57381.36008333334,
      "d": 264.5984166666676,
      "v": 119
    },
    {
      "midi": 64,
      "hit": false,
      "t": 57390.48416666664,
      "d": 131.38680000000022,
      "v": 127
    },
    {
      "midi": 55,
      "hit": false,
      "t": 57390.48416666664,
      "d": 158.75905000000057,
      "v": 127
    },
    {
      "midi": 61,
      "hit": false,
      "t": 57390.484166666814,
      "d": 104.01454999999987,
      "v": 91
    },
    {
      "midi": 64,
      "hit": false,
      "t": 57394.13380000015,
      "d": 118.61308333333,
      "v": 94
    },
    {
      "midi": 69,
      "hit": false,
      "t": 57399.60825000015,
      "d": 127.7371666666586,
      "v": 92
    },
    {
      "midi": 61,
      "hit": false,
      "t": 57399.608250000274,
      "d": 195.2553833333368,
      "v": 98
    },
    {
      "midi": 64,
      "hit": false,
      "t": 57403.25788333361,
      "d": 191.60575000000244,
      "v": 100
    },
    {
      "midi": 69,
      "hit": false,
      "t": 57403.25788333361,
      "d": 191.60575000000244,
      "v": 100
    },
    {
      "midi": 42,
      "hit": false,
      "t": 57481.7250000003,
      "d": 45.62041666666482,
      "v": 45
    },
    {
      "midi": 42,
      "hit": false,
      "t": 57481.725000000326,
      "d": 72.99266666666517,
      "v": 98
    },
    {
      "midi": 46,
      "hit": false,
      "t": 57591.21400000027,
      "d": 85.7663833333354,
      "v": 80
    },
    {
      "midi": 42,
      "hit": false,
      "t": 57591.2140000003,
      "d": 36.496333333336224,
      "v": 45
    },
    {
      "midi": 36,
      "hit": false,
      "t": 57591.2140000003,
      "d": 218.9780000000028,
      "v": 120
    },
    {
      "midi": 46,
      "hit": false,
      "t": 57591.21400000033,
      "d": 218.9780000000028,
      "v": 98
    },
    {
      "midi": 42,
      "hit": false,
      "t": 57700.7030000003,
      "d": 36.496333333336224,
      "v": 45
    },
    {
      "midi": 36,
      "hit": false,
      "t": 57810.19199999985,
      "d": 51.09486666666635,
      "v": 107
    },
    {
      "midi": 36,
      "hit": false,
      "t": 57810.19199999985,
      "d": 51.09486666666635,
      "v": 107
    },
    {
      "midi": 43,
      "hit": false,
      "t": 57810.19199999996,
      "d": 136.86125000000175,
      "v": 127
    },
    {
      "midi": 35,
      "hit": false,
      "t": 57810.19200000027,
      "d": 85.7663833333354,
      "v": 107
    },
    {
      "midi": 42,
      "hit": false,
      "t": 57810.19200000027,
      "d": 85.7663833333354,
      "v": 107
    },
    {
      "midi": 36,
      "hit": false,
      "t": 57810.1920000003,
      "d": 0,
      "v": 120
    },
    {
      "midi": 42,
      "hit": false,
      "t": 57810.1920000003,
      "d": 36.496333333336224,
      "v": 45
    },
    {
      "midi": 42,
      "hit": false,
      "t": 57810.19200000033,
      "d": 45.62041666666482,
      "v": 98
    },
    {
      "midi": 36,
      "hit": false,
      "t": 57810.19200000033,
      "d": 54.7445000000007,
      "v": 127
    },
    {
      "midi": 43,
      "hit": false,
      "t": 57819.31608333334,
      "d": 264.5984166666676,
      "v": 122
    },
    {
      "midi": 55,
      "hit": false,
      "t": 57828.44016666664,
      "d": 158.75905000000057,
      "v": 127
    },
    {
      "midi": 59,
      "hit": false,
      "t": 57828.44016666664,
      "d": 167.88313333333645,
      "v": 127
    },
    {
      "midi": 62,
      "hit": false,
      "t": 57828.440166666805,
      "d": 167.88313333333645,
      "v": 94
    },
    {
      "midi": 67,
      "hit": false,
      "t": 57832.08980000014,
      "d": 155.10941666666622,
      "v": 94
    },
    {
      "midi": 71,
      "hit": false,
      "t": 57837.56425000014,
      "d": 158.75905000000057,
      "v": 98
    },
    {
      "midi": 62,
      "hit": false,
      "t": 57837.56425000028,
      "d": 195.2553833333368,
      "v": 98
    },
    {
      "midi": 67,
      "hit": false,
      "t": 57837.56425000028,
      "d": 195.2553833333368,
      "v": 106
    },
    {
      "midi": 71,
      "hit": false,
      "t": 57841.213883333614,
      "d": 191.60575000000244,
      "v": 106
    },
    {
      "midi": 42,
      "hit": false,
      "t": 57919.6810000003,
      "d": 36.496333333336224,
      "v": 45
    },
    {
      "midi": 42,
      "hit": false,
      "t": 57919.68100000033,
      "d": 63.868583333336574,
      "v": 98
    },
    {
      "midi": 46,
      "hit": false,
      "t": 58029.170000000275,
      "d": 85.7663833333354,
      "v": 80
    },
    {
      "midi": 42,
      "hit": false,
      "t": 58029.170000000304,
      "d": 36.496333333336224,
      "v": 45
    },
    {
      "midi": 46,
      "hit": false,
      "t": 58029.17000000033,
      "d": 218.9780000000028,
      "v": 98
    },
    {
      "midi": 42,
      "hit": false,
      "t": 58138.659000000305,
      "d": 36.496333333336224,
      "v": 45
    },
    {
      "midi": 36,
      "hit": false,
      "t": 58248.14799999985,
      "d": 51.09486666666635,
      "v": 107
    },
    {
      "midi": 36,
      "hit": false,
      "t": 58248.14799999985,
      "d": 51.09486666666635,
      "v": 107
    },
    {
      "midi": 43,
      "hit": false,
      "t": 58248.14799999996,
      "d": 136.86125000000175,
      "v": 127
    },
    {
      "midi": 35,
      "hit": false,
      "t": 58248.14800000028,
      "d": 85.7663833333354,
      "v": 107
    },
    {
      "midi": 42,
      "hit": false,
      "t": 58248.14800000028,
      "d": 85.7663833333354,
      "v": 107
    },
    {
      "midi": 42,
      "hit": false,
      "t": 58248.14800000031,
      "d": 45.62041666666482,
      "v": 45
    },
    {
      "midi": 38,
      "hit": false,
      "t": 58248.14800000031,
      "d": 328.4670000000042,
      "v": 127
    },
    {
      "midi": 42,
      "hit": false,
      "t": 58248.148000000336,
      "d": 45.62041666666482,
      "v": 98
    },
    {
      "midi": 36,
      "hit": false,
      "t": 58248.148000000336,
      "d": 54.7445000000007,
      "v": 127
    },
    {
      "midi": 43,
      "hit": false,
      "t": 58251.79763333334,
      "d": 270.07286666666914,
      "v": 122
    },
    {
      "midi": 55,
      "hit": false,
      "t": 58260.92171666664,
      "d": 169.70795000000362,
      "v": 127
    },
    {
      "midi": 59,
      "hit": false,
      "t": 58260.92171666664,
      "d": 191.60575000000244,
      "v": 127
    },
    {
      "midi": 71,
      "hit": false,
      "t": 58266.39616666681,
      "d": 136.86125000000175,
      "v": 92
    },
    {
      "midi": 67,
      "hit": false,
      "t": 58266.39616666681,
      "d": 158.75905000000057,
      "v": 93
    },
    {
      "midi": 62,
      "hit": false,
      "t": 58266.39616666681,
      "d": 167.88313333333645,
      "v": 92
    },
    {
      "midi": 62,
      "hit": false,
      "t": 58270.04580000028,
      "d": 200.72983333333832,
      "v": 98
    },
    {
      "midi": 67,
      "hit": false,
      "t": 58275.520250000285,
      "d": 195.2553833333368,
      "v": 103
    },
    {
      "midi": 71,
      "hit": false,
      "t": 58275.520250000285,
      "d": 195.2553833333368,
      "v": 103
    },
    {
      "midi": 42,
      "hit": false,
      "t": 58357.63700000031,
      "d": 45.62041666666482,
      "v": 45
    },
    {
      "midi": 42,
      "hit": false,
      "t": 58357.63700000034,
      "d": 63.868583333336574,
      "v": 98
    },
    {
      "midi": 46,
      "hit": false,
      "t": 58467.12600000028,
      "d": 85.7663833333354,
      "v": 80
    },
    {
      "midi": 42,
      "hit": false,
      "t": 58467.12600000031,
      "d": 45.62041666666482,
      "v": 45
    },
    {
      "midi": 46,
      "hit": false,
      "t": 58467.12600000034,
      "d": 218.9780000000028,
      "v": 98
    },
    {
      "midi": 42,
      "hit": false,
      "t": 58576.61500000031,
      "d": 45.62041666666482,
      "v": 45
    },
    {
      "midi": 36,
      "hit": false,
      "t": 58576.61500000031,
      "d": 109.4890000000014,
      "v": 120
    },
    {
      "midi": 36,
      "hit": false,
      "t": 58686.10399999985,
      "d": 51.09486666666635,
      "v": 107
    },
    {
      "midi": 36,
      "hit": false,
      "t": 58686.10399999985,
      "d": 51.09486666666635,
      "v": 107
    },
    {
      "midi": 45,
      "hit": false,
      "t": 58686.103999999956,
      "d": 155.10941666666622,
      "v": 127
    },
    {
      "midi": 35,
      "hit": false,
      "t": 58686.10400000028,
      "d": 85.7663833333354,
      "v": 107
    },
    {
      "midi": 42,
      "hit": false,
      "t": 58686.10400000028,
      "d": 85.7663833333354,
      "v": 107
    },
    {
      "midi": 42,
      "hit": false,
      "t": 58686.10400000031,
      "d": 45.62041666666482,
      "v": 45
    },
    {
      "midi": 36,
      "hit": false,
      "t": 58686.10400000031,
      "d": 218.9780000000028,
      "v": 120
    },
    {
      "midi": 42,
      "hit": false,
      "t": 58686.10400000034,
      "d": 45.62041666666482,
      "v": 98
    },
    {
      "midi": 36,
      "hit": false,
      "t": 58686.10400000034,
      "d": 72.99266666666517,
      "v": 127
    },
    {
      "midi": 45,
      "hit": false,
      "t": 58689.75363333335,
      "d": 270.07286666666914,
      "v": 122
    },
    {
      "midi": 57,
      "hit": false,
      "t": 58704.35216666664,
      "d": 222.62763333332987,
      "v": 127
    },
    {
      "midi": 61,
      "hit": false,
      "t": 58704.35216666664,
      "d": 273.7224999999962,
      "v": 127
    },
    {
      "midi": 61,
      "hit": false,
      "t": 58704.35216666682,
      "d": 419.70783333333384,
      "v": 94
    },
    {
      "midi": 64,
      "hit": false,
      "t": 58704.35216666682,
      "d": 419.70783333333384,
      "v": 92
    },
    {
      "midi": 69,
      "hit": false,
      "t": 58708.00180000015,
      "d": 416.0581999999995,
      "v": 95
    },
    {
      "midi": 61,
      "hit": false,
      "t": 58713.47625000029,
      "d": 410.58374999999796,
      "v": 100
    },
    {
      "midi": 64,
      "hit": false,
      "t": 58713.47625000029,
      "d": 414.2333833333323,
      "v": 100
    },
    {
      "midi": 69,
      "hit": false,
      "t": 58717.125883333625,
      "d": 410.58374999999796,
      "v": 103
    },
    {
      "midi": 42,
      "hit": false,
      "t": 58795.59300000031,
      "d": 45.62041666666482,
      "v": 45
    },
    {
      "midi": 42,
      "hit": false,
      "t": 58795.59300000034,
      "d": 63.868583333336574,
      "v": 98
    },
    {
      "midi": 46,
      "hit": false,
      "t": 58905.082000000286,
      "d": 85.7663833333354,
      "v": 80
    },
    {
      "midi": 42,
      "hit": false,
      "t": 58905.082000000315,
      "d": 45.62041666666482,
      "v": 45
    },
    {
      "midi": 36,
      "hit": false,
      "t": 58905.082000000315,
      "d": 218.9780000000028,
      "v": 120
    },
    {
      "midi": 46,
      "hit": false,
      "t": 58905.082000000344,
      "d": 218.9780000000028,
      "v": 98
    },
    {
      "midi": 55,
      "hit": false,
      "t": 58987.198749999974,
      "d": 94.89046666667127,
      "v": 127
    },
    {
      "midi": 62,
      "hit": false,
      "t": 58990.84838333331,
      "d": 114.96345000000292,
      "v": 127
    },
    {
      "midi": 42,
      "hit": false,
      "t": 59014.57100000032,
      "d": 36.496333333336224,
      "v": 45
    },
    {
      "midi": 36,
      "hit": false,
      "t": 59124.059999999845,
      "d": 51.09486666666635,
      "v": 107
    },
    {
      "midi": 36,
      "hit": false,
      "t": 59124.059999999845,
      "d": 51.09486666666635,
      "v": 107
    },
    {
      "midi": 35,
      "hit": false,
      "t": 59124.06000000029,
      "d": 85.7663833333354,
      "v": 107
    },
    {
      "midi": 42,
      "hit": false,
      "t": 59124.06000000029,
      "d": 85.7663833333354,
      "v": 107
    },
    {
      "midi": 42,
      "hit": false,
      "t": 59124.06000000032,
      "d": 36.496333333336224,
      "v": 45
    },
    {
      "midi": 38,
      "hit": false,
      "t": 59124.06000000032,
      "d": 218.9780000000028,
      "v": 127
    },
    {
      "midi": 42,
      "hit": false,
      "t": 59124.06000000035,
      "d": 54.7445000000007,
      "v": 98
    },
    {
      "midi": 36,
      "hit": false,
      "t": 59124.06000000035,
      "d": 63.868583333336574,
      "v": 127
    },
    {
      "midi": 45,
      "hit": false,
      "t": 59127.70963333329,
      "d": 151.45978333333187,
      "v": 127
    },
    {
      "midi": 45,
      "hit": false,
      "t": 59133.18408333335,
      "d": 200.72983333333104,
      "v": 118
    },
    {
      "midi": 64,
      "hit": false,
      "t": 59142.30816666665,
      "d": 200.72983333333104,
      "v": 127
    },
    {
      "midi": 55,
      "hit": false,
      "t": 59142.30816666665,
      "d": 218.97799999999552,
      "v": 127
    },
    {
      "midi": 61,
      "hit": false,
      "t": 59145.95780000015,
      "d": 127.73716666666587,
      "v": 91
    },
    {
      "midi": 64,
      "hit": false,
      "t": 59151.43225000015,
      "d": 122.26271666666435,
      "v": 94
    },
    {
      "midi": 69,
      "hit": false,
      "t": 59151.43225000015,
      "d": 136.86124999999447,
      "v": 92
    },
    {
      "midi": 61,
      "hit": false,
      "t": 59155.08188333362,
      "d": 191.60575000000244,
      "v": 97
    },
    {
      "midi": 64,
      "hit": false,
      "t": 59155.08188333362,
      "d": 191.60575000000244,
      "v": 98
    },
    {
      "midi": 69,
      "hit": false,
      "t": 59155.08188333362,
      "d": 191.60575000000244,
      "v": 100
    },
    {
      "midi": 42,
      "hit": false,
      "t": 59233.54900000032,
      "d": 36.496333333336224,
      "v": 45
    },
    {
      "midi": 42,
      "hit": false,
      "t": 59233.54900000035,
      "d": 72.99266666666517,
      "v": 98
    },
    {
      "midi": 46,
      "hit": false,
      "t": 59343.03800000029,
      "d": 85.7663833333354,
      "v": 80
    },
    {
      "midi": 46,
      "hit": false,
      "t": 59343.03800000032,
      "d": 45.62041666666482,
      "v": 45
    },
    {
      "midi": 36,
      "hit": false,
      "t": 59343.03800000032,
      "d": 218.97799999999552,
      "v": 120
    },
    {
      "midi": 46,
      "hit": false,
      "t": 59343.03800000035,
      "d": 218.9780000000028,
      "v": 98
    },
    {
      "midi": 38,
      "hit": false,
      "t": 59416.03066666662,
      "d": 167.88313333333645,
      "v": 127
    },
    {
      "midi": 38,
      "hit": false,
      "t": 59419.680300000015,
      "d": 191.60575000000244,
      "v": 119
    },
    {
      "midi": 54,
      "hit": false,
      "t": 59428.80438333331,
      "d": 133.2116166666674,
      "v": 127
    },
    {
      "midi": 62,
      "hit": false,
      "t": 59428.80438333331,
      "d": 155.10941666666622,
      "v": 127
    },
    {
      "midi": 62,
      "hit": false,
      "t": 59434.278833333476,
      "d": 122.26271666666435,
      "v": 82
    },
    {
      "midi": 57,
      "hit": false,
      "t": 59434.278833333476,
      "d": 158.75905000000057,
      "v": 94
    },
    {
      "midi": 66,
      "hit": false,
      "t": 59434.278833333476,
      "d": 195.2553833333368,
      "v": 98
    },
    {
      "midi": 62,
      "hit": false,
      "t": 59437.92846666696,
      "d": 200.72983333333832,
      "v": 100
    },
    {
      "midi": 66,
      "hit": false,
      "t": 59443.402916666964,
      "d": 195.2553833333368,
      "v": 107
    },
    {
      "midi": 69,
      "hit": false,
      "t": 59443.402916666964,
      "d": 195.2553833333368,
      "v": 106
    },
    {
      "midi": 36,
      "hit": false,
      "t": 59562.01599999984,
      "d": 51.09486666666635,
      "v": 107
    },
    {
      "midi": 36,
      "hit": false,
      "t": 59562.01599999984,
      "d": 51.09486666666635,
      "v": 107
    },
    {
      "midi": 35,
      "hit": false,
      "t": 59562.016000000294,
      "d": 85.7663833333354,
      "v": 107
    },
    {
      "midi": 42,
      "hit": false,
      "t": 59562.016000000294,
      "d": 85.7663833333354,
      "v": 107
    },
    {
      "midi": 42,
      "hit": false,
      "t": 59562.016000000316,
      "d": 36.496333333336224,
      "v": 45
    },
    {
      "midi": 38,
      "hit": false,
      "t": 59562.016000000316,
      "d": 54.7445000000007,
      "v": 127
    },
    {
      "midi": 42,
      "hit": false,
      "t": 59562.01600000035,
      "d": 45.62041666666482,
      "v": 98
    },
    {
      "midi": 36,
      "hit": false,
      "t": 59562.01600000035,
      "d": 54.7445000000007,
      "v": 127
    },
    {
      "midi": 38,
      "hit": false,
      "t": 59616.76050000032,
      "d": 54.7445000000007,
      "v": 127
    },
    {
      "midi": 42,
      "hit": false,
      "t": 59671.50500000032,
      "d": 45.62041666666482,
      "v": 45
    },
    {
      "midi": 38,
      "hit": false,
      "t": 59671.50500000032,
      "d": 54.7445000000007,
      "v": 127
    },
    {
      "midi": 42,
      "hit": false,
      "t": 59671.505000000354,
      "d": 63.868583333336574,
      "v": 98
    },
    {
      "midi": 38,
      "hit": false,
      "t": 59726.24950000032,
      "d": 54.7445000000007,
      "v": 127
    },
    {
      "midi": 46,
      "hit": false,
      "t": 59780.9940000003,
      "d": 85.7663833333354,
      "v": 80
    },
    {
      "midi": 42,
      "hit": false,
      "t": 59780.99400000032,
      "d": 45.62041666666482,
      "v": 45
    },
    {
      "midi": 38,
      "hit": false,
      "t": 59780.99400000032,
      "d": 109.4890000000014,
      "v": 127
    },
    {
      "midi": 46,
      "hit": false,
      "t": 59780.994000000355,
      "d": 218.9780000000028,
      "v": 98
    },
    {
      "midi": 42,
      "hit": false,
      "t": 59890.48300000032,
      "d": 36.496333333336224,
      "v": 45
    },
    {
      "midi": 38,
      "hit": false,
      "t": 59890.48300000032,
      "d": 109.4890000000014,
      "v": 127
    },
    {
      "midi": 36,
      "hit": false,
      "t": 59999.97199999984,
      "d": 51.09486666666635,
      "v": 107
    },
    {
      "midi": 36,
      "hit": false,
      "t": 59999.97199999984,
      "d": 51.09486666666635,
      "v": 107
    },
    {
      "midi": 35,
      "hit": false,
      "t": 59999.9720000003,
      "d": 85.7663833333354,
      "v": 107
    },
    {
      "midi": 42,
      "hit": false,
      "t": 59999.9720000003,
      "d": 85.7663833333354,
      "v": 107
    },
    {
      "midi": 42,
      "hit": false,
      "t": 59999.97200000032,
      "d": 45.62041666666482,
      "v": 45
    },
    {
      "midi": 47,
      "hit": false,
      "t": 59999.97200000032,
      "d": 109.4890000000014,
      "v": 127
    },
    {
      "midi": 42,
      "hit": false,
      "t": 59999.97200000036,
      "d": 45.62041666666482,
      "v": 98
    },
    {
      "midi": 36,
      "hit": false,
      "t": 59999.97200000036,
      "d": 54.7445000000007,
      "v": 127
    },
    {
      "midi": 42,
      "hit": false,
      "t": 60109.46100000032,
      "d": 45.62041666666482,
      "v": 45
    },
    {
      "midi": 47,
      "hit": false,
      "t": 60109.46100000032,
      "d": 109.4890000000014,
      "v": 127
    },
    {
      "midi": 42,
      "hit": false,
      "t": 60109.46100000036,
      "d": 63.868583333336574,
      "v": 98
    },
    {
      "midi": 46,
      "hit": false,
      "t": 60218.9500000003,
      "d": 85.7663833333354,
      "v": 80
    },
    {
      "midi": 42,
      "hit": false,
      "t": 60218.950000000325,
      "d": 45.62041666666482,
      "v": 45
    },
    {
      "midi": 43,
      "hit": false,
      "t": 60218.950000000325,
      "d": 109.4890000000014,
      "v": 127
    },
    {
      "midi": 46,
      "hit": false,
      "t": 60218.95000000036,
      "d": 218.9780000000028,
      "v": 98
    },
    {
      "midi": 42,
      "hit": false,
      "t": 60328.439000000326,
      "d": 45.62041666666482,
      "v": 45
    },
    {
      "midi": 41,
      "hit": false,
      "t": 60328.439000000326,
      "d": 109.4890000000014,
      "v": 127
    },
    {
      "midi": 36,
      "hit": false,
      "t": 60437.92799999984,
      "d": 51.09486666666635,
      "v": 107
    },
    {
      "midi": 36,
      "hit": false,
      "t": 60437.92799999984,
      "d": 51.09486666666635,
      "v": 107
    },
    {
      "midi": 35,
      "hit": false,
      "t": 60437.928000000305,
      "d": 85.7663833333354,
      "v": 107
    },
    {
      "midi": 42,
      "hit": false,
      "t": 60437.928000000305,
      "d": 85.7663833333354,
      "v": 107
    },
    {
      "midi": 42,
      "hit": false,
      "t": 60437.92800000033,
      "d": 45.62041666666482,
      "v": 45
    },
    {
      "midi": 36,
      "hit": false,
      "t": 60437.92800000033,
      "d": 218.9780000000028,
      "v": 127
    },
    {
      "midi": 42,
      "hit": false,
      "t": 60437.928000000364,
      "d": 45.62041666666482,
      "v": 98
    },
    {
      "midi": 36,
      "hit": false,
      "t": 60437.928000000364,
      "d": 63.8685833333293,
      "v": 127
    },
    {
      "midi": 66,
      "hit": false,
      "t": 60441.5776333334,
      "d": 2824.816200000001,
      "v": 97
    },
    {
      "midi": 74,
      "hit": false,
      "t": 60441.5776333334,
      "d": 2824.816200000001,
      "v": 97
    },
    {
      "midi": 38,
      "hit": false,
      "t": 60447.05208333335,
      "d": 2864.9621666666644,
      "v": 125
    },
    {
      "midi": 64,
      "hit": false,
      "t": 60450.70171666664,
      "d": 2773.7213333333348,
      "v": 127
    },
    {
      "midi": 54,
      "hit": false,
      "t": 60450.70171666664,
      "d": 2779.1957833333363,
      "v": 127
    },
    {
      "midi": 62,
      "hit": false,
      "t": 60456.17616666681,
      "d": 2859.487716666663,
      "v": 94
    },
    {
      "midi": 57,
      "hit": false,
      "t": 60456.17616666681,
      "d": 2864.9621666666644,
      "v": 103
    },
    {
      "midi": 66,
      "hit": false,
      "t": 60456.17616666681,
      "d": 2864.9621666666644,
      "v": 94
    },
    {
      "midi": 57,
      "hit": false,
      "t": 60459.825800000304,
      "d": 2855.838083333336,
      "v": 103
    },
    {
      "midi": 66,
      "hit": false,
      "t": 60465.300250000306,
      "d": 2850.3636333333343,
      "v": 103
    },
    {
      "midi": 42,
      "hit": false,
      "t": 60547.41700000033,
      "d": 45.62041666666482,
      "v": 45
    },
    {
      "midi": 42,
      "hit": false,
      "t": 60547.41700000036,
      "d": 63.868583333336574,
      "v": 98
    },
    {
      "midi": 46,
      "hit": false,
      "t": 60656.90600000031,
      "d": 85.7663833333354,
      "v": 80
    },
    {
      "midi": 46,
      "hit": false,
      "t": 60656.90600000033,
      "d": 63.868583333336574,
      "v": 45
    },
    {
      "midi": 38,
      "hit": false,
      "t": 60656.90600000033,
      "d": 109.4890000000014,
      "v": 127
    },
    {
      "midi": 46,
      "hit": false,
      "t": 60656.90600000036,
      "d": 218.9780000000028,
      "v": 98
    },
    {
      "midi": 62,
      "hit": false,
      "t": 60660.55563333364,
      "d": 2874.0862500000003,
      "v": 100
    },
    {
      "midi": 36,
      "hit": false,
      "t": 60766.39500000033,
      "d": 218.9780000000028,
      "v": 110
    },
    {
      "midi": 36,
      "hit": false,
      "t": 60875.88399999984,
      "d": 51.09486666666635,
      "v": 107
    },
    {
      "midi": 36,
      "hit": false,
      "t": 60875.88399999984,
      "d": 51.09486666666635,
      "v": 107
    },
    {
      "midi": 35,
      "hit": false,
      "t": 60875.88400000031,
      "d": 85.7663833333354,
      "v": 107
    },
    {
      "midi": 42,
      "hit": false,
      "t": 60875.88400000031,
      "d": 85.7663833333354,
      "v": 107
    },
    {
      "midi": 42,
      "hit": false,
      "t": 60875.88400000033,
      "d": 36.496333333336224,
      "v": 45
    },
    {
      "midi": 42,
      "hit": false,
      "t": 60875.88400000036,
      "d": 54.7445000000007,
      "v": 98
    },
    {
      "midi": 36,
      "hit": false,
      "t": 60875.88400000036,
      "d": 63.868583333336574,
      "v": 127
    },
    {
      "midi": 42,
      "hit": false,
      "t": 60985.373000000334,
      "d": 45.62041666666482,
      "v": 45
    },
    {
      "midi": 38,
      "hit": false,
      "t": 60985.373000000334,
      "d": 109.4890000000014,
      "v": 127
    },
    {
      "midi": 42,
      "hit": false,
      "t": 60985.37300000036,
      "d": 72.99266666666517,
      "v": 98
    },
    {
      "midi": 46,
      "hit": false,
      "t": 61094.862000000314,
      "d": 85.7663833333354,
      "v": 80
    },
    {
      "midi": 46,
      "hit": false,
      "t": 61094.862000000336,
      "d": 36.496333333336224,
      "v": 45
    },
    {
      "midi": 36,
      "hit": false,
      "t": 61094.862000000336,
      "d": 109.4890000000014,
      "v": 127
    },
    {
      "midi": 46,
      "hit": false,
      "t": 61094.862000000365,
      "d": 218.9780000000028,
      "v": 98
    },
    {
      "midi": 36,
      "hit": false,
      "t": 61204.350999999835,
      "d": 51.09486666666635,
      "v": 67
    },
    {
      "midi": 36,
      "hit": false,
      "t": 61204.350999999835,
      "d": 51.09486666666635,
      "v": 67
    },
    {
      "midi": 35,
      "hit": false,
      "t": 61204.351000000315,
      "d": 85.7663833333354,
      "v": 97
    },
    {
      "midi": 42,
      "hit": false,
      "t": 61204.351000000315,
      "d": 85.7663833333354,
      "v": 107
    },
    {
      "midi": 38,
      "hit": false,
      "t": 61204.35100000034,
      "d": 109.4890000000014,
      "v": 127
    }
  ]
}