{
  "jsonPath": "Rock/Album Rock/Bangles/manic-monday.json",
  "path": "Rock\\Album Rock\\Bangles\\Manic Monday.mid",
  "name": "Manic Monday",
  "difficulty": "Advanced",
  "bpm": 118.0001337334849,
  "notes": [
    {
      "midi": 69,
      "hit": false,
      "t": 2288.133,
      "d": 246.29209374999982,
      "v": 116
    },
    {
      "midi": 57,
      "hit": false,
      "t": 2288.1330000000003,
      "d": 246.29209374999982,
      "v": 126
    },
    {
      "midi": 81,
      "hit": false,
      "t": 2288.1330000000003,
      "d": 246.29209374999982,
      "v": 126
    },
    {
      "midi": 74,
      "hit": false,
      "t": 2542.3699999999994,
      "d": 256.8853020833335,
      "v": 112
    },
    {
      "midi": 62,
      "hit": false,
      "t": 2542.37,
      "d": 256.8853020833335,
      "v": 122
    },
    {
      "midi": 86,
      "hit": false,
      "t": 2542.37,
      "d": 256.8853020833335,
      "v": 122
    },
    {
      "midi": 81,
      "hit": false,
      "t": 2796.6069999999995,
      "d": 254.23700000000008,
      "v": 112
    },
    {
      "midi": 69,
      "hit": false,
      "t": 2796.607,
      "d": 254.23700000000008,
      "v": 122
    },
    {
      "midi": 93,
      "hit": false,
      "t": 2796.607,
      "d": 254.23700000000008,
      "v": 122
    },
    {
      "midi": 79,
      "hit": false,
      "t": 3050.8439999999996,
      "d": 243.64379166666686,
      "v": 109
    },
    {
      "midi": 67,
      "hit": false,
      "t": 3050.844,
      "d": 243.64379166666686,
      "v": 119
    },
    {
      "midi": 91,
      "hit": false,
      "t": 3050.844,
      "d": 243.64379166666686,
      "v": 119
    },
    {
      "midi": 78,
      "hit": false,
      "t": 3305.0809999999997,
      "d": 275.4234166666665,
      "v": 113
    },
    {
      "midi": 66,
      "hit": false,
      "t": 3305.081,
      "d": 275.4234166666665,
      "v": 123
    },
    {
      "midi": 90,
      "hit": false,
      "t": 3305.081,
      "d": 275.4234166666665,
      "v": 123
    },
    {
      "midi": 76,
      "hit": false,
      "t": 3559.3179999999998,
      "d": 272.7751145833331,
      "v": 109
    },
    {
      "midi": 64,
      "hit": false,
      "t": 3559.318,
      "d": 272.7751145833331,
      "v": 119
    },
    {
      "midi": 88,
      "hit": false,
      "t": 3559.318,
      "d": 272.7751145833331,
      "v": 119
    },
    {
      "midi": 78,
      "hit": false,
      "t": 3813.5549999999994,
      "d": 270.12681250000014,
      "v": 104
    },
    {
      "midi": 66,
      "hit": false,
      "t": 3813.555,
      "d": 270.12681250000014,
      "v": 114
    },
    {
      "midi": 90,
      "hit": false,
      "t": 3813.555,
      "d": 270.12681250000014,
      "v": 114
    },
    {
      "midi": 76,
      "hit": false,
      "t": 4067.7919999999995,
      "d": 103.28378125000017,
      "v": 113
    },
    {
      "midi": 64,
      "hit": false,
      "t": 4067.792,
      "d": 103.28378124999972,
      "v": 123
    },
    {
      "midi": 88,
      "hit": false,
      "t": 4067.792,
      "d": 103.28378124999972,
      "v": 123
    },
    {
      "midi": 66,
      "hit": false,
      "t": 4194.9105,
      "d": 121.82189583333366,
      "v": 127
    },
    {
      "midi": 90,
      "hit": false,
      "t": 4194.9105,
      "d": 121.82189583333366,
      "v": 127
    },
    {
      "midi": 78,
      "hit": false,
      "t": 4194.9105,
      "d": 121.82189583333366,
      "v": 118
    },
    {
      "midi": 64,
      "hit": false,
      "t": 4322.029,
      "d": 116.52529166666682,
      "v": 115
    },
    {
      "midi": 88,
      "hit": false,
      "t": 4322.029,
      "d": 116.52529166666682,
      "v": 115
    },
    {
      "midi": 76,
      "hit": false,
      "t": 4322.029,
      "d": 116.52529166666682,
      "v": 105
    },
    {
      "midi": 62,
      "hit": false,
      "t": 4449.147500000001,
      "d": 116.52529166666682,
      "v": 118
    },
    {
      "midi": 86,
      "hit": false,
      "t": 4449.147500000001,
      "d": 116.52529166666682,
      "v": 118
    },
    {
      "midi": 74,
      "hit": false,
      "t": 4449.147500000001,
      "d": 116.52529166666682,
      "v": 108
    },
    {
      "midi": 61,
      "hit": false,
      "t": 4576.266000000001,
      "d": 243.6437916666664,
      "v": 122
    },
    {
      "midi": 85,
      "hit": false,
      "t": 4576.266000000001,
      "d": 243.6437916666664,
      "v": 122
    },
    {
      "midi": 73,
      "hit": false,
      "t": 4576.266000000001,
      "d": 243.6437916666664,
      "v": 112
    },
    {
      "midi": 64,
      "hit": false,
      "t": 4830.5030000000015,
      "d": 240.99548958333344,
      "v": 120
    },
    {
      "midi": 88,
      "hit": false,
      "t": 4830.5030000000015,
      "d": 240.99548958333344,
      "v": 120
    },
    {
      "midi": 76,
      "hit": false,
      "t": 4830.5030000000015,
      "d": 240.99548958333344,
      "v": 110
    },
    {
      "midi": 62,
      "hit": false,
      "t": 5084.740000000002,
      "d": 256.88530208333304,
      "v": 119
    },
    {
      "midi": 86,
      "hit": false,
      "t": 5084.740000000002,
      "d": 256.88530208333304,
      "v": 119
    },
    {
      "midi": 74,
      "hit": false,
      "t": 5084.740000000002,
      "d": 256.88530208333304,
      "v": 109
    },
    {
      "midi": 61,
      "hit": false,
      "t": 5338.977000000002,
      "d": 452.8596562499997,
      "v": 124
    },
    {
      "midi": 85,
      "hit": false,
      "t": 5338.977000000002,
      "d": 452.8596562499997,
      "v": 124
    },
    {
      "midi": 73,
      "hit": false,
      "t": 5338.977000000002,
      "d": 452.8596562499997,
      "v": 114
    },
    {
      "midi": 61,
      "hit": false,
      "t": 5847.451000000002,
      "d": 1769.0657916666669,
      "v": 127
    },
    {
      "midi": 85,
      "hit": false,
      "t": 5847.451000000002,
      "d": 1769.0657916666669,
      "v": 127
    },
    {
      "midi": 73,
      "hit": false,
      "t": 5847.451000000002,
      "d": 1769.0657916666669,
      "v": 120
    },
    {
      "midi": 57,
      "hit": false,
      "t": 10423.717000000002,
      "d": 246.29209375000028,
      "v": 126
    },
    {
      "midi": 81,
      "hit": false,
      "t": 10423.717000000002,
      "d": 246.29209375000028,
      "v": 126
    },
    {
      "midi": 69,
      "hit": false,
      "t": 10423.717000000002,
      "d": 246.29209375000028,
      "v": 116
    },
    {
      "midi": 62,
      "hit": false,
      "t": 10677.954000000003,
      "d": 256.88530208333214,
      "v": 122
    },
    {
      "midi": 86,
      "hit": false,
      "t": 10677.954000000003,
      "d": 256.88530208333214,
      "v": 122
    },
    {
      "midi": 74,
      "hit": false,
      "t": 10677.954000000003,
      "d": 256.88530208333214,
      "v": 112
    },
    {
      "midi": 69,
      "hit": false,
      "t": 10932.191000000003,
      "d": 254.23699999999917,
      "v": 122
    },
    {
      "midi": 93,
      "hit": false,
      "t": 10932.191000000003,
      "d": 254.23699999999917,
      "v": 122
    },
    {
      "midi": 81,
      "hit": false,
      "t": 10932.191000000003,
      "d": 254.23699999999917,
      "v": 112
    },
    {
      "midi": 67,
      "hit": false,
      "t": 11186.428000000002,
      "d": 243.6437916666673,
      "v": 119
    },
    {
      "midi": 91,
      "hit": false,
      "t": 11186.428000000002,
      "d": 243.6437916666673,
      "v": 119
    },
    {
      "midi": 79,
      "hit": false,
      "t": 11186.428000000002,
      "d": 243.6437916666673,
      "v": 109
    },
    {
      "midi": 66,
      "hit": false,
      "t": 11440.665000000003,
      "d": 275.4234166666665,
      "v": 123
    },
    {
      "midi": 90,
      "hit": false,
      "t": 11440.665000000003,
      "d": 275.4234166666665,
      "v": 123
    },
    {
      "midi": 78,
      "hit": false,
      "t": 11440.665000000003,
      "d": 275.4234166666665,
      "v": 113
    },
    {
      "midi": 64,
      "hit": false,
      "t": 11694.902000000002,
      "d": 272.77511458333356,
      "v": 119
    },
    {
      "midi": 88,
      "hit": false,
      "t": 11694.902000000002,
      "d": 272.77511458333356,
      "v": 119
    },
    {
      "midi": 76,
      "hit": false,
      "t": 11694.902000000002,
      "d": 272.77511458333356,
      "v": 109
    },
    {
      "midi": 62,
      "hit": false,
      "t": 11949.139000000003,
      "d": 270.1268124999988,
      "v": 114
    },
    {
      "midi": 86,
      "hit": false,
      "t": 11949.139000000003,
      "d": 270.1268124999988,
      "v": 114
    },
    {
      "midi": 78,
      "hit": false,
      "t": 11949.139000000003,
      "d": 270.1268124999988,
      "v": 104
    },
    {
      "midi": 64,
      "hit": false,
      "t": 12203.376000000002,
      "d": 103.28378125000017,
      "v": 123
    },
    {
      "midi": 88,
      "hit": false,
      "t": 12203.376000000002,
      "d": 103.28378125000017,
      "v": 123
    },
    {
      "midi": 76,
      "hit": false,
      "t": 12203.376000000002,
      "d": 103.28378125000017,
      "v": 113
    },
    {
      "midi": 66,
      "hit": false,
      "t": 12330.494500000003,
      "d": 121.82189583333275,
      "v": 127
    },
    {
      "midi": 90,
      "hit": false,
      "t": 12330.494500000003,
      "d": 121.82189583333275,
      "v": 127
    },
    {
      "midi": 78,
      "hit": false,
      "t": 12330.494500000003,
      "d": 121.82189583333275,
      "v": 118
    },
    {
      "midi": 64,
      "hit": false,
      "t": 12457.613000000001,
      "d": 116.52529166666682,
      "v": 115
    },
    {
      "midi": 88,
      "hit": false,
      "t": 12457.613000000001,
      "d": 116.52529166666682,
      "v": 115
    },
    {
      "midi": 76,
      "hit": false,
      "t": 12457.613000000001,
      "d": 116.52529166666682,
      "v": 105
    },
    {
      "midi": 62,
      "hit": false,
      "t": 12584.731500000002,
      "d": 116.52529166666682,
      "v": 118
    },
    {
      "midi": 86,
      "hit": false,
      "t": 12584.731500000002,
      "d": 116.52529166666682,
      "v": 118
    },
    {
      "midi": 74,
      "hit": false,
      "t": 12584.731500000002,
      "d": 116.52529166666682,
      "v": 108
    },
    {
      "midi": 61,
      "hit": false,
      "t": 12711.850000000002,
      "d": 243.6437916666673,
      "v": 122
    },
    {
      "midi": 85,
      "hit": false,
      "t": 12711.850000000002,
      "d": 243.6437916666673,
      "v": 122
    },
    {
      "midi": 73,
      "hit": false,
      "t": 12711.850000000002,
      "d": 243.6437916666673,
      "v": 112
    },
    {
      "midi": 64,
      "hit": false,
      "t": 12966.087000000003,
      "d": 240.99548958333253,
      "v": 120
    },
    {
      "midi": 88,
      "hit": false,
      "t": 12966.087000000003,
      "d": 240.99548958333253,
      "v": 120
    },
    {
      "midi": 76,
      "hit": false,
      "t": 12966.087000000003,
      "d": 240.99548958333253,
      "v": 110
    },
    {
      "midi": 62,
      "hit": false,
      "t": 13220.324000000002,
      "d": 256.88530208333214,
      "v": 119
    },
    {
      "midi": 86,
      "hit": false,
      "t": 13220.324000000002,
      "d": 256.88530208333214,
      "v": 119
    },
    {
      "midi": 74,
      "hit": false,
      "t": 13220.324000000002,
      "d": 256.88530208333214,
      "v": 109
    },
    {
      "midi": 61,
      "hit": false,
      "t": 13474.561000000002,
      "d": 452.8596562499988,
      "v": 124
    },
    {
      "midi": 85,
      "hit": false,
      "t": 13474.561000000002,
      "d": 452.8596562499988,
      "v": 124
    },
    {
      "midi": 73,
      "hit": false,
      "t": 13474.561000000002,
      "d": 452.8596562499988,
      "v": 114
    },
    {
      "midi": 61,
      "hit": false,
      "t": 13983.035,
      "d": 1769.065791666666,
      "v": 127
    },
    {
      "midi": 85,
      "hit": false,
      "t": 13983.035,
      "d": 1769.065791666666,
      "v": 127
    },
    {
      "midi": 73,
      "hit": false,
      "t": 13983.035,
      "d": 1769.065791666666,
      "v": 120
    },
    {
      "midi": 62,
      "hit": false,
      "t": 16016.930999999999,
      "d": 116.52529166666682,
      "v": 111
    },
    {
      "midi": 86,
      "hit": false,
      "t": 16016.930999999999,
      "d": 116.52529166666682,
      "v": 111
    },
    {
      "midi": 64,
      "hit": false,
      "t": 16144.0495,
      "d": 116.52529166666682,
      "v": 103
    },
    {
      "midi": 88,
      "hit": false,
      "t": 16144.0495,
      "d": 116.52529166666682,
      "v": 103
    },
    {
      "midi": 62,
      "hit": false,
      "t": 16271.168,
      "d": 1514.828791666665,
      "v": 113
    },
    {
      "midi": 86,
      "hit": false,
      "t": 16271.168,
      "d": 1514.828791666665,
      "v": 113
    },
    {
      "midi": 78,
      "hit": false,
      "t": 20338.96,
      "d": 415.78342708333366,
      "v": 112
    },
    {
      "midi": 78,
      "hit": false,
      "t": 20847.434,
      "d": 240.99548958333253,
      "v": 105
    },
    {
      "midi": 74,
      "hit": false,
      "t": 21101.671000000002,
      "d": 230.40228125000067,
      "v": 104
    },
    {
      "midi": 79,
      "hit": false,
      "t": 21355.908000000003,
      "d": 429.0249374999985,
      "v": 108
    },
    {
      "midi": 79,
      "hit": false,
      "t": 21864.382,
      "d": 227.7539791666677,
      "v": 105
    },
    {
      "midi": 74,
      "hit": false,
      "t": 22118.619000000002,
      "d": 240.99548958333253,
      "v": 103
    },
    {
      "midi": 76,
      "hit": false,
      "t": 22372.856000000003,
      "d": 452.8596562499988,
      "v": 113
    },
    {
      "midi": 76,
      "hit": false,
      "t": 22881.33,
      "d": 444.9147499999999,
      "v": 102
    },
    {
      "midi": 76,
      "hit": false,
      "t": 23389.804,
      "d": 201.27095833333442,
      "v": 103
    },
    {
      "midi": 74,
      "hit": false,
      "t": 23644.041,
      "d": 243.6437916666655,
      "v": 107
    },
    {
      "midi": 74,
      "hit": false,
      "t": 23898.278,
      "d": 243.6437916666655,
      "v": 107
    },
    {
      "midi": 78,
      "hit": false,
      "t": 24152.514999999996,
      "d": 497.8807916666665,
      "v": 107
    },
    {
      "midi": 74,
      "hit": false,
      "t": 24660.988999999994,
      "d": 259.5336041666669,
      "v": 107
    },
    {
      "midi": 62,
      "hit": false,
      "t": 24660.988999999998,
      "d": 259.5336041666669,
      "v": 117
    },
    {
      "midi": 86,
      "hit": false,
      "t": 24660.988999999998,
      "d": 259.5336041666669,
      "v": 117
    },
    {
      "midi": 78,
      "hit": false,
      "t": 24915.225999999995,
      "d": 495.2324895833335,
      "v": 114
    },
    {
      "midi": 66,
      "hit": false,
      "t": 24915.226,
      "d": 495.2324895833335,
      "v": 124
    },
    {
      "midi": 90,
      "hit": false,
      "t": 24915.226,
      "d": 495.2324895833335,
      "v": 124
    },
    {
      "midi": 79,
      "hit": false,
      "t": 25423.699999999997,
      "d": 251.58869791666802,
      "v": 104
    },
    {
      "midi": 67,
      "hit": false,
      "t": 25423.7,
      "d": 251.58869791666802,
      "v": 114
    },
    {
      "midi": 91,
      "hit": false,
      "t": 25423.7,
      "d": 251.58869791666802,
      "v": 114
    },
    {
      "midi": 78,
      "hit": false,
      "t": 25677.936999999998,
      "d": 288.66492708333317,
      "v": 108
    },
    {
      "midi": 66,
      "hit": false,
      "t": 25677.937,
      "d": 288.66492708333317,
      "v": 118
    },
    {
      "midi": 90,
      "hit": false,
      "t": 25677.937,
      "d": 288.66492708333317,
      "v": 118
    },
    {
      "midi": 76,
      "hit": false,
      "t": 25932.174,
      "d": 262.18190624999625,
      "v": 104
    },
    {
      "midi": 64,
      "hit": false,
      "t": 25932.174000000003,
      "d": 262.18190624999625,
      "v": 114
    },
    {
      "midi": 88,
      "hit": false,
      "t": 25932.174000000003,
      "d": 262.18190624999625,
      "v": 114
    },
    {
      "midi": 74,
      "hit": false,
      "t": 26186.410999999996,
      "d": 288.66492708332953,
      "v": 102
    },
    {
      "midi": 62,
      "hit": false,
      "t": 26186.411,
      "d": 288.66492708332953,
      "v": 112
    },
    {
      "midi": 86,
      "hit": false,
      "t": 26186.411,
      "d": 288.66492708332953,
      "v": 112
    },
    {
      "midi": 76,
      "hit": false,
      "t": 26440.647999999994,
      "d": 264.8302083333292,
      "v": 104
    },
    {
      "midi": 64,
      "hit": false,
      "t": 26440.647999999997,
      "d": 264.8302083333292,
      "v": 114
    },
    {
      "midi": 88,
      "hit": false,
      "t": 26440.647999999997,
      "d": 264.8302083333292,
      "v": 114
    },
    {
      "midi": 74,
      "hit": false,
      "t": 26694.88499999999,
      "d": 296.60983333333206,
      "v": 102
    },
    {
      "midi": 62,
      "hit": false,
      "t": 26694.884999999995,
      "d": 296.60983333333206,
      "v": 112
    },
    {
      "midi": 86,
      "hit": false,
      "t": 26694.884999999995,
      "d": 296.60983333333206,
      "v": 112
    },
    {
      "midi": 76,
      "hit": false,
      "t": 26949.12199999999,
      "d": 280.7200208333343,
      "v": 105
    },
    {
      "midi": 64,
      "hit": false,
      "t": 26949.121999999992,
      "d": 280.7200208333343,
      "v": 115
    },
    {
      "midi": 88,
      "hit": false,
      "t": 26949.121999999992,
      "d": 280.7200208333343,
      "v": 115
    },
    {
      "midi": 78,
      "hit": false,
      "t": 27203.35899999999,
      "d": 248.94039583333506,
      "v": 106
    },
    {
      "midi": 66,
      "hit": false,
      "t": 27203.358999999993,
      "d": 248.94039583333506,
      "v": 116
    },
    {
      "midi": 90,
      "hit": false,
      "t": 27203.358999999993,
      "d": 248.94039583333506,
      "v": 116
    },
    {
      "midi": 76,
      "hit": false,
      "t": 27457.59599999999,
      "d": 505.8256979166654,
      "v": 107
    },
    {
      "midi": 64,
      "hit": false,
      "t": 27457.595999999994,
      "d": 505.8256979166654,
      "v": 117
    },
    {
      "midi": 88,
      "hit": false,
      "t": 27457.595999999994,
      "d": 505.8256979166654,
      "v": 117
    },
    {
      "midi": 74,
      "hit": false,
      "t": 27966.06999999999,
      "d": 402.5419166666652,
      "v": 104
    },
    {
      "midi": 62,
      "hit": false,
      "t": 27966.069999999992,
      "d": 402.5419166666652,
      "v": 114
    },
    {
      "midi": 86,
      "hit": false,
      "t": 27966.069999999992,
      "d": 402.5419166666652,
      "v": 114
    },
    {
      "midi": 74,
      "hit": false,
      "t": 28474.543999999987,
      "d": 415.78342708333366,
      "v": 112
    },
    {
      "midi": 78,
      "hit": false,
      "t": 28983.01799999999,
      "d": 240.99548958333253,
      "v": 105
    },
    {
      "midi": 74,
      "hit": false,
      "t": 29237.25499999999,
      "d": 230.40228125000067,
      "v": 104
    },
    {
      "midi": 79,
      "hit": false,
      "t": 29491.49199999999,
      "d": 429.0249374999985,
      "v": 108
    },
    {
      "midi": 79,
      "hit": false,
      "t": 29999.96599999999,
      "d": 227.7539791666677,
      "v": 105
    },
    {
      "midi": 74,
      "hit": false,
      "t": 30254.20299999999,
      "d": 240.99548958333253,
      "v": 103
    },
    {
      "midi": 76,
      "hit": false,
      "t": 30508.43999999999,
      "d": 452.8596562499988,
      "v": 113
    },
    {
      "midi": 76,
      "hit": false,
      "t": 31016.91399999999,
      "d": 444.9147499999999,
      "v": 102
    },
    {
      "midi": 76,
      "hit": false,
      "t": 31525.387999999988,
      "d": 201.27095833333442,
      "v": 103
    },
    {
      "midi": 74,
      "hit": false,
      "t": 32033.86199999999,
      "d": 243.6437916666655,
      "v": 107
    },
    {
      "midi": 74,
      "hit": false,
      "t": 32288.098999999987,
      "d": 752.1177916666638,
      "v": 107
    },
    {
      "midi": 57,
      "hit": false,
      "t": 32796.57299999999,
      "d": 243.64379166666913,
      "v": 103
    },
    {
      "midi": 81,
      "hit": false,
      "t": 32796.57299999999,
      "d": 243.64379166666913,
      "v": 103
    },
    {
      "midi": 78,
      "hit": false,
      "t": 33050.80999999998,
      "d": 495.2324895833299,
      "v": 114
    },
    {
      "midi": 66,
      "hit": false,
      "t": 33050.80999999999,
      "d": 495.2324895833299,
      "v": 124
    },
    {
      "midi": 90,
      "hit": false,
      "t": 33050.80999999999,
      "d": 495.2324895833299,
      "v": 124
    },
    {
      "midi": 79,
      "hit": false,
      "t": 33559.28399999998,
      "d": 251.58869791666802,
      "v": 104
    },
    {
      "midi": 67,
      "hit": false,
      "t": 33559.283999999985,
      "d": 251.58869791666802,
      "v": 114
    },
    {
      "midi": 91,
      "hit": false,
      "t": 33559.283999999985,
      "d": 251.58869791666802,
      "v": 114
    },
    {
      "midi": 78,
      "hit": false,
      "t": 33813.52099999998,
      "d": 288.6649270833368,
      "v": 108
    },
    {
      "midi": 66,
      "hit": false,
      "t": 33813.520999999986,
      "d": 288.6649270833368,
      "v": 118
    },
    {
      "midi": 90,
      "hit": false,
      "t": 33813.520999999986,
      "d": 288.6649270833368,
      "v": 118
    },
    {
      "midi": 76,
      "hit": false,
      "t": 34067.75799999998,
      "d": 262.1819062499999,
      "v": 104
    },
    {
      "midi": 64,
      "hit": false,
      "t": 34067.75799999999,
      "d": 262.1819062499999,
      "v": 114
    },
    {
      "midi": 88,
      "hit": false,
      "t": 34067.75799999999,
      "d": 262.1819062499999,
      "v": 114
    },
    {
      "midi": 74,
      "hit": false,
      "t": 34321.99499999998,
      "d": 288.6649270833368,
      "v": 102
    },
    {
      "midi": 62,
      "hit": false,
      "t": 34321.99499999999,
      "d": 288.6649270833368,
      "v": 112
    },
    {
      "midi": 86,
      "hit": false,
      "t": 34321.99499999999,
      "d": 288.6649270833368,
      "v": 112
    },
    {
      "midi": 76,
      "hit": false,
      "t": 34576.23199999998,
      "d": 264.83020833333285,
      "v": 104
    },
    {
      "midi": 64,
      "hit": false,
      "t": 34576.23199999999,
      "d": 264.83020833333285,
      "v": 114
    },
    {
      "midi": 88,
      "hit": false,
      "t": 34576.23199999999,
      "d": 264.83020833333285,
      "v": 114
    },
    {
      "midi": 74,
      "hit": false,
      "t": 34830.46899999998,
      "d": 296.6098333333357,
      "v": 102
    },
    {
      "midi": 62,
      "hit": false,
      "t": 34830.46899999999,
      "d": 296.6098333333357,
      "v": 112
    },
    {
      "midi": 86,
      "hit": false,
      "t": 34830.46899999999,
      "d": 296.6098333333357,
      "v": 112
    },
    {
      "midi": 76,
      "hit": false,
      "t": 35084.705999999984,
      "d": 280.7200208333379,
      "v": 105
    },
    {
      "midi": 64,
      "hit": false,
      "t": 35084.70599999999,
      "d": 280.7200208333379,
      "v": 115
    },
    {
      "midi": 88,
      "hit": false,
      "t": 35084.70599999999,
      "d": 280.7200208333379,
      "v": 115
    },
    {
      "midi": 78,
      "hit": false,
      "t": 35338.942999999985,
      "d": 248.94039583333506,
      "v": 106
    },
    {
      "midi": 66,
      "hit": false,
      "t": 35338.94299999999,
      "d": 248.94039583333506,
      "v": 116
    },
    {
      "midi": 90,
      "hit": false,
      "t": 35338.94299999999,
      "d": 248.94039583333506,
      "v": 116
    },
    {
      "midi": 76,
      "hit": false,
      "t": 35593.179999999986,
      "d": 505.825697916669,
      "v": 107
    },
    {
      "midi": 64,
      "hit": false,
      "t": 35593.17999999999,
      "d": 243.64379166666913,
      "v": 116
    },
    {
      "midi": 88,
      "hit": false,
      "t": 35593.17999999999,
      "d": 243.64379166666913,
      "v": 116
    },
    {
      "midi": 66,
      "hit": false,
      "t": 35847.416999999994,
      "d": 116.525291666665,
      "v": 110
    },
    {
      "midi": 90,
      "hit": false,
      "t": 35847.416999999994,
      "d": 116.525291666665,
      "v": 110
    },
    {
      "midi": 64,
      "hit": false,
      "t": 35974.53549999999,
      "d": 116.525291666665,
      "v": 116
    },
    {
      "midi": 88,
      "hit": false,
      "t": 35974.53549999999,
      "d": 116.525291666665,
      "v": 116
    },
    {
      "midi": 62,
      "hit": false,
      "t": 36101.65399999999,
      "d": 402.54191666666884,
      "v": 114
    },
    {
      "midi": 86,
      "hit": false,
      "t": 36101.65399999999,
      "d": 402.54191666666884,
      "v": 114
    },
    {
      "midi": 74,
      "hit": false,
      "t": 36101.65399999999,
      "d": 402.54191666666884,
      "v": 104
    },
    {
      "midi": 78,
      "hit": false,
      "t": 36610.12799999999,
      "d": 415.78342708333366,
      "v": 112
    },
    {
      "midi": 69,
      "hit": false,
      "t": 36610.128,
      "d": 1009.0030937499978,
      "v": 1
    },
    {
      "midi": 62,
      "hit": false,
      "t": 36610.128,
      "d": 2025.9510937499945,
      "v": 1
    },
    {
      "midi": 78,
      "hit": false,
      "t": 37118.60199999999,
      "d": 240.99548958333617,
      "v": 105
    },
    {
      "midi": 79,
      "hit": false,
      "t": 37372.83899999999,
      "d": 624.999291666667,
      "v": 108
    },
    {
      "midi": 71,
      "hit": false,
      "t": 37627.075999999994,
      "d": 1009.0030937499978,
      "v": 1
    },
    {
      "midi": 79,
      "hit": false,
      "t": 38135.549999999996,
      "d": 227.75397916666407,
      "v": 105
    },
    {
      "midi": 74,
      "hit": false,
      "t": 38389.787,
      "d": 240.99548958333617,
      "v": 103
    },
    {
      "midi": 67,
      "hit": false,
      "t": 38644.02399999999,
      "d": 1517.4770937499998,
      "v": 1
    },
    {
      "midi": 59,
      "hit": false,
      "t": 38644.02399999999,
      "d": 1771.7140937500008,
      "v": 1
    },
    {
      "midi": 76,
      "hit": false,
      "t": 38644.024,
      "d": 452.85965625000244,
      "v": 113
    },
    {
      "midi": 76,
      "hit": false,
      "t": 39152.498,
      "d": 444.91475000000355,
      "v": 102
    },
    {
      "midi": 76,
      "hit": false,
      "t": 39660.972,
      "d": 201.27095833333442,
      "v": 103
    },
    {
      "midi": 76,
      "hit": false,
      "t": 39915.209,
      "d": 497.8807916666701,
      "v": 107
    },
    {
      "midi": 66,
      "hit": false,
      "t": 40169.44599999999,
      "d": 246.2920937500021,
      "v": 1
    },
    {
      "midi": 62,
      "hit": false,
      "t": 40423.68299999999,
      "d": 497.8807916666701,
      "v": 1
    },
    {
      "midi": 69,
      "hit": false,
      "t": 40423.68299999999,
      "d": 497.8807916666701,
      "v": 1
    },
    {
      "midi": 78,
      "hit": false,
      "t": 40423.683000000005,
      "d": 497.8807916666701,
      "v": 107
    },
    {
      "midi": 62,
      "hit": false,
      "t": 40932.15699999999,
      "d": 259.5336041666669,
      "v": 117
    },
    {
      "midi": 86,
      "hit": false,
      "t": 40932.15699999999,
      "d": 259.5336041666669,
      "v": 117
    },
    {
      "midi": 74,
      "hit": false,
      "t": 40932.15700000001,
      "d": 259.5336041666669,
      "v": 107
    },
    {
      "midi": 66,
      "hit": false,
      "t": 41186.39399999999,
      "d": 495.2324895833299,
      "v": 124
    },
    {
      "midi": 90,
      "hit": false,
      "t": 41186.39399999999,
      "d": 495.2324895833299,
      "v": 124
    },
    {
      "midi": 78,
      "hit": false,
      "t": 41186.39400000001,
      "d": 495.2324895833299,
      "v": 114
    },
    {
      "midi": 67,
      "hit": false,
      "t": 41694.86799999999,
      "d": 251.58869791666802,
      "v": 114
    },
    {
      "midi": 91,
      "hit": false,
      "t": 41694.86799999999,
      "d": 251.58869791666802,
      "v": 114
    },
    {
      "midi": 79,
      "hit": false,
      "t": 41694.868,
      "d": 251.58869791666802,
      "v": 104
    },
    {
      "midi": 66,
      "hit": false,
      "t": 41949.10499999999,
      "d": 74.15245833333029,
      "v": 112
    },
    {
      "midi": 90,
      "hit": false,
      "t": 41949.10499999999,
      "d": 74.15245833333029,
      "v": 112
    },
    {
      "midi": 78,
      "hit": false,
      "t": 41949.105,
      "d": 288.6649270833368,
      "v": 108
    },
    {
      "midi": 67,
      "hit": false,
      "t": 42033.85066666665,
      "d": 74.15245833333029,
      "v": 101
    },
    {
      "midi": 91,
      "hit": false,
      "t": 42033.85066666665,
      "d": 74.15245833333029,
      "v": 101
    },
    {
      "midi": 66,
      "hit": false,
      "t": 42118.59633333331,
      "d": 79.44906250000349,
      "v": 104
    },
    {
      "midi": 90,
      "hit": false,
      "t": 42118.59633333331,
      "d": 79.44906250000349,
      "v": 104
    },
    {
      "midi": 64,
      "hit": false,
      "t": 42203.34199999998,
      "d": 262.1819062499999,
      "v": 114
    },
    {
      "midi": 88,
      "hit": false,
      "t": 42203.34199999998,
      "d": 262.1819062499999,
      "v": 114
    },
    {
      "midi": 76,
      "hit": false,
      "t": 42203.342000000004,
      "d": 262.1819062499999,
      "v": 104
    },
    {
      "midi": 62,
      "hit": false,
      "t": 42457.57899999998,
      "d": 288.6649270833368,
      "v": 112
    },
    {
      "midi": 86,
      "hit": false,
      "t": 42457.57899999998,
      "d": 288.6649270833368,
      "v": 112
    },
    {
      "midi": 74,
      "hit": false,
      "t": 42457.579000000005,
      "d": 288.6649270833368,
      "v": 102
    },
    {
      "midi": 64,
      "hit": false,
      "t": 42711.815999999984,
      "d": 264.83020833333285,
      "v": 114
    },
    {
      "midi": 88,
      "hit": false,
      "t": 42711.815999999984,
      "d": 264.83020833333285,
      "v": 114
    },
    {
      "midi": 76,
      "hit": false,
      "t": 42711.816000000006,
      "d": 264.83020833333285,
      "v": 104
    },
    {
      "midi": 62,
      "hit": false,
      "t": 42966.052999999985,
      "d": 296.6098333333357,
      "v": 112
    },
    {
      "midi": 86,
      "hit": false,
      "t": 42966.052999999985,
      "d": 296.6098333333357,
      "v": 112
    },
    {
      "midi": 74,
      "hit": false,
      "t": 42966.05300000001,
      "d": 296.6098333333357,
      "v": 102
    },
    {
      "midi": 64,
      "hit": false,
      "t": 43220.289999999986,
      "d": 280.7200208333379,
      "v": 115
    },
    {
      "midi": 88,
      "hit": false,
      "t": 43220.289999999986,
      "d": 280.7200208333379,
      "v": 115
    },
    {
      "midi": 76,
      "hit": false,
      "t": 43220.29000000001,
      "d": 280.7200208333379,
      "v": 105
    },
    {
      "midi": 66,
      "hit": false,
      "t": 43474.52699999999,
      "d": 248.94039583333506,
      "v": 116
    },
    {
      "midi": 90,
      "hit": false,
      "t": 43474.52699999999,
      "d": 248.94039583333506,
      "v": 116
    },
    {
      "midi": 78,
      "hit": false,
      "t": 43474.52700000001,
      "d": 248.94039583333506,
      "v": 106
    },
    {
      "midi": 64,
      "hit": false,
      "t": 43728.76399999999,
      "d": 505.825697916669,
      "v": 117
    },
    {
      "midi": 88,
      "hit": false,
      "t": 43728.76399999999,
      "d": 505.825697916669,
      "v": 117
    },
    {
      "midi": 76,
      "hit": false,
      "t": 43728.76400000001,
      "d": 505.825697916669,
      "v": 107
    },
    {
      "midi": 62,
      "hit": false,
      "t": 44237.23799999999,
      "d": 402.54191666666884,
      "v": 114
    },
    {
      "midi": 86,
      "hit": false,
      "t": 44237.23799999999,
      "d": 402.54191666666884,
      "v": 114
    },
    {
      "midi": 74,
      "hit": false,
      "t": 44237.23800000001,
      "d": 402.54191666666884,
      "v": 104
    },
    {
      "midi": 62,
      "hit": false,
      "t": 44745.71199999999,
      "d": 1014.2996979166637,
      "v": 1
    },
    {
      "midi": 69,
      "hit": false,
      "t": 44745.71199999999,
      "d": 1014.2996979166637,
      "v": 1
    },
    {
      "midi": 78,
      "hit": false,
      "t": 44745.712000000014,
      "d": 415.78342708333366,
      "v": 112
    },
    {
      "midi": 78,
      "hit": false,
      "t": 45254.186000000016,
      "d": 240.99548958333617,
      "v": 105
    },
    {
      "midi": 74,
      "hit": false,
      "t": 45508.42300000002,
      "d": 230.40228124999703,
      "v": 104
    },
    {
      "midi": 71,
      "hit": false,
      "t": 45762.65999999999,
      "d": 1014.2996979166637,
      "v": 1
    },
    {
      "midi": 74,
      "hit": false,
      "t": 45762.65999999999,
      "d": 1014.2996979166637,
      "v": 1
    },
    {
      "midi": 79,
      "hit": false,
      "t": 45762.66000000001,
      "d": 429.0249374999985,
      "v": 108
    },
    {
      "midi": 79,
      "hit": false,
      "t": 46271.13400000001,
      "d": 227.75397916666407,
      "v": 105
    },
    {
      "midi": 74,
      "hit": false,
      "t": 46525.371000000014,
      "d": 240.99548958333617,
      "v": 103
    },
    {
      "midi": 67,
      "hit": false,
      "t": 46779.607999999986,
      "d": 1771.7140937500008,
      "v": 1
    },
    {
      "midi": 71,
      "hit": false,
      "t": 46779.607999999986,
      "d": 1771.7140937500008,
      "v": 1
    },
    {
      "midi": 76,
      "hit": false,
      "t": 46779.608000000015,
      "d": 452.85965625000244,
      "v": 113
    },
    {
      "midi": 76,
      "hit": false,
      "t": 47288.08200000002,
      "d": 444.91475000000355,
      "v": 102
    },
    {
      "midi": 76,
      "hit": false,
      "t": 47796.55600000002,
      "d": 201.27095833333442,
      "v": 103
    },
    {
      "midi": 76,
      "hit": false,
      "t": 48050.79300000002,
      "d": 214.51246874999924,
      "v": 100
    },
    {
      "midi": 74,
      "hit": false,
      "t": 48305.03000000002,
      "d": 243.64379166666913,
      "v": 107
    },
    {
      "midi": 66,
      "hit": false,
      "t": 48559.266999999985,
      "d": 773.3042083333348,
      "v": 1
    },
    {
      "midi": 69,
      "hit": false,
      "t": 48559.266999999985,
      "d": 773.3042083333348,
      "v": 1
    },
    {
      "midi": 74,
      "hit": false,
      "t": 48559.26700000002,
      "d": 733.5796770833331,
      "v": 107
    },
    {
      "midi": 74,
      "hit": false,
      "t": 49321.978000000025,
      "d": 246.2920937500021,
      "v": 103
    },
    {
      "midi": 62,
      "hit": false,
      "t": 49576.215000000026,
      "d": 153.60152083333378,
      "v": 97
    },
    {
      "midi": 69,
      "hit": false,
      "t": 49830.45200000003,
      "d": 1006.3547916666648,
      "v": 107
    },
    {
      "midi": 74,
      "hit": false,
      "t": 49830.45200000003,
      "d": 1006.3547916666648,
      "v": 107
    },
    {
      "midi": 38,
      "hit": false,
      "t": 52881.296000000024,
      "d": 1927.9639166666675,
      "v": 104
    },
    {
      "midi": 31,
      "hit": false,
      "t": 54915.192000000025,
      "d": 458.1562604166684,
      "v": 121
    },
    {
      "midi": 30,
      "hit": false,
      "t": 55423.66600000003,
      "d": 471.3977708333332,
      "v": 125
    },
    {
      "midi": 28,
      "hit": false,
      "t": 55932.14000000003,
      "d": 918.9608229166697,
      "v": 127
    },
    {
      "midi": 38,
      "hit": false,
      "t": 56949.08800000003,
      "d": 1927.9639166666675,
      "v": 104
    },
    {
      "midi": 31,
      "hit": false,
      "t": 58982.98400000003,
      "d": 458.1562604166684,
      "v": 121
    },
    {
      "midi": 30,
      "hit": false,
      "t": 59491.458000000035,
      "d": 471.3977708333332,
      "v": 125
    },
    {
      "midi": 28,
      "hit": false,
      "t": 59999.93200000004,
      "d": 918.9608229166697,
      "v": 127
    },
    {
      "midi": 38,
      "hit": false,
      "t": 61016.88000000004,
      "d": 1927.9639166666675,
      "v": 104
    },
    {
      "midi": 31,
      "hit": false,
      "t": 63050.77600000004,
      "d": 458.1562604166684,
      "v": 121
    },
    {
      "midi": 30,
      "hit": false,
      "t": 63559.250000000044,
      "d": 471.3977708333332,
      "v": 125
    },
    {
      "midi": 28,
      "hit": false,
      "t": 64067.724000000046,
      "d": 918.9608229166697,
      "v": 127
    },
    {
      "midi": 38,
      "hit": false,
      "t": 65084.67200000005,
      "d": 1927.9639166666602,
      "v": 104
    },
    {
      "midi": 59,
      "hit": false,
      "t": 66864.33099999999,
      "d": 752.1177916666638,
      "v": 1
    },
    {
      "midi": 33,
      "hit": false,
      "t": 67118.56800000004,
      "d": 458.1562604166684,
      "v": 111
    },
    {
      "midi": 57,
      "hit": false,
      "t": 67627.04199999999,
      "d": 492.5841875000042,
      "v": 1
    },
    {
      "midi": 37,
      "hit": false,
      "t": 67627.04200000004,
      "d": 471.3977708333405,
      "v": 115
    },
    {
      "midi": 55,
      "hit": false,
      "t": 68135.51599999999,
      "d": 492.5841875000042,
      "v": 1
    },
    {
      "midi": 40,
      "hit": false,
      "t": 68135.51600000005,
      "d": 458.1562604166684,
      "v": 111
    },
    {
      "midi": 57,
      "hit": false,
      "t": 68643.98999999999,
      "d": 492.5841875000042,
      "v": 1
    },
    {
      "midi": 45,
      "hit": false,
      "t": 68643.99000000005,
      "d": 471.3977708333405,
      "v": 115
    },
    {
      "midi": 55,
      "hit": false,
      "t": 69152.46399999999,
      "d": 492.5841875000042,
      "v": 1
    },
    {
      "midi": 38,
      "hit": false,
      "t": 69152.46400000005,
      "d": 1896.1842916666646,
      "v": 117
    },
    {
      "midi": 54,
      "hit": false,
      "t": 69660.938,
      "d": 971.9268645833363,
      "v": 1
    },
    {
      "midi": 78,
      "hit": false,
      "t": 71186.36000000004,
      "d": 415.7834270833264,
      "v": 112
    },
    {
      "midi": 78,
      "hit": false,
      "t": 71694.83400000003,
      "d": 240.99548958333617,
      "v": 105
    },
    {
      "midi": 74,
      "hit": false,
      "t": 71949.07100000004,
      "d": 230.4022812500043,
      "v": 104
    },
    {
      "midi": 79,
      "hit": false,
      "t": 72203.30800000005,
      "d": 429.0249374999985,
      "v": 108
    },
    {
      "midi": 79,
      "hit": false,
      "t": 72711.78200000005,
      "d": 227.75397916666407,
      "v": 105
    },
    {
      "midi": 74,
      "hit": false,
      "t": 72966.01900000004,
      "d": 240.99548958333617,
      "v": 103
    },
    {
      "midi": 76,
      "hit": false,
      "t": 73220.25600000005,
      "d": 452.85965625000244,
      "v": 113
    },
    {
      "midi": 76,
      "hit": false,
      "t": 73728.73000000005,
      "d": 444.9147499999963,
      "v": 102
    },
    {
      "midi": 76,
      "hit": false,
      "t": 74237.20400000006,
      "d": 201.27095833333442,
      "v": 103
    },
    {
      "midi": 74,
      "hit": false,
      "t": 74491.44100000006,
      "d": 243.64379166666185,
      "v": 107
    },
    {
      "midi": 74,
      "hit": false,
      "t": 74745.67800000006,
      "d": 243.64379166666185,
      "v": 107
    },
    {
      "midi": 78,
      "hit": false,
      "t": 74999.91500000005,
      "d": 497.8807916666701,
      "v": 107
    },
    {
      "midi": 57,
      "hit": false,
      "t": 75508.389,
      "d": 246.2920937500021,
      "v": 126
    },
    {
      "midi": 81,
      "hit": false,
      "t": 75508.389,
      "d": 246.2920937500021,
      "v": 126
    },
    {
      "midi": 69,
      "hit": false,
      "t": 75508.38900000005,
      "d": 246.2920937500021,
      "v": 116
    },
    {
      "midi": 62,
      "hit": false,
      "t": 75762.626,
      "d": 256.88530208333395,
      "v": 122
    },
    {
      "midi": 86,
      "hit": false,
      "t": 75762.626,
      "d": 256.88530208333395,
      "v": 122
    },
    {
      "midi": 74,
      "hit": false,
      "t": 75762.62600000006,
      "d": 256.88530208333395,
      "v": 112
    },
    {
      "midi": 69,
      "hit": false,
      "t": 76016.863,
      "d": 254.23700000000827,
      "v": 122
    },
    {
      "midi": 93,
      "hit": false,
      "t": 76016.863,
      "d": 254.23700000000827,
      "v": 122
    },
    {
      "midi": 81,
      "hit": false,
      "t": 76016.86300000006,
      "d": 254.23700000000827,
      "v": 112
    },
    {
      "midi": 67,
      "hit": false,
      "t": 76271.1,
      "d": 243.64379166666185,
      "v": 119
    },
    {
      "midi": 91,
      "hit": false,
      "t": 76271.1,
      "d": 243.64379166666185,
      "v": 119
    },
    {
      "midi": 79,
      "hit": false,
      "t": 76271.10000000006,
      "d": 243.64379166666185,
      "v": 109
    },
    {
      "midi": 66,
      "hit": false,
      "t": 76525.337,
      "d": 275.42341666665743,
      "v": 123
    },
    {
      "midi": 90,
      "hit": false,
      "t": 76525.337,
      "d": 275.42341666665743,
      "v": 123
    },
    {
      "midi": 78,
      "hit": false,
      "t": 76525.33700000006,
      "d": 275.42341666665743,
      "v": 113
    },
    {
      "midi": 64,
      "hit": false,
      "t": 76779.574,
      "d": 272.77511458333174,
      "v": 119
    },
    {
      "midi": 88,
      "hit": false,
      "t": 76779.574,
      "d": 272.77511458333174,
      "v": 119
    },
    {
      "midi": 76,
      "hit": false,
      "t": 76779.57400000005,
      "d": 272.77511458333174,
      "v": 109
    },
    {
      "midi": 66,
      "hit": false,
      "t": 77033.81099999999,
      "d": 270.12681250000605,
      "v": 114
    },
    {
      "midi": 90,
      "hit": false,
      "t": 77033.81099999999,
      "d": 270.12681250000605,
      "v": 114
    },
    {
      "midi": 78,
      "hit": false,
      "t": 77033.81100000005,
      "d": 270.12681250000605,
      "v": 104
    },
    {
      "midi": 64,
      "hit": false,
      "t": 77288.048,
      "d": 103.2837812499929,
      "v": 123
    },
    {
      "midi": 88,
      "hit": false,
      "t": 77288.048,
      "d": 103.2837812499929,
      "v": 123
    },
    {
      "midi": 76,
      "hit": false,
      "t": 77288.04800000005,
      "d": 103.2837812499929,
      "v": 113
    },
    {
      "midi": 66,
      "hit": false,
      "t": 77415.16649999999,
      "d": 121.82189583333093,
      "v": 127
    },
    {
      "midi": 90,
      "hit": false,
      "t": 77415.16649999999,
      "d": 121.82189583333093,
      "v": 127
    },
    {
      "midi": 78,
      "hit": false,
      "t": 77415.16650000005,
      "d": 121.82189583333093,
      "v": 118
    },
    {
      "midi": 64,
      "hit": false,
      "t": 77542.28499999999,
      "d": 116.525291666665,
      "v": 115
    },
    {
      "midi": 88,
      "hit": false,
      "t": 77542.28499999999,
      "d": 116.525291666665,
      "v": 115
    },
    {
      "midi": 76,
      "hit": false,
      "t": 77542.28500000005,
      "d": 116.525291666665,
      "v": 105
    },
    {
      "midi": 62,
      "hit": false,
      "t": 77669.40349999999,
      "d": 116.525291666665,
      "v": 118
    },
    {
      "midi": 86,
      "hit": false,
      "t": 77669.40349999999,
      "d": 116.525291666665,
      "v": 118
    },
    {
      "midi": 74,
      "hit": false,
      "t": 77669.40350000004,
      "d": 116.525291666665,
      "v": 108
    },
    {
      "midi": 61,
      "hit": false,
      "t": 77796.52199999998,
      "d": 243.64379166666185,
      "v": 122
    },
    {
      "midi": 85,
      "hit": false,
      "t": 77796.52199999998,
      "d": 243.64379166666185,
      "v": 122
    },
    {
      "midi": 73,
      "hit": false,
      "t": 77796.52200000004,
      "d": 243.64379166666185,
      "v": 112
    },
    {
      "midi": 64,
      "hit": false,
      "t": 78050.75899999998,
      "d": 240.99548958333617,
      "v": 120
    },
    {
      "midi": 88,
      "hit": false,
      "t": 78050.75899999998,
      "d": 240.99548958333617,
      "v": 120
    },
    {
      "midi": 76,
      "hit": false,
      "t": 78050.75900000003,
      "d": 240.99548958333617,
      "v": 110
    },
    {
      "midi": 62,
      "hit": false,
      "t": 78304.99599999998,
      "d": 256.88530208333395,
      "v": 119
    },
    {
      "midi": 86,
      "hit": false,
      "t": 78304.99599999998,
      "d": 256.88530208333395,
      "v": 119
    },
    {
      "midi": 74,
      "hit": false,
      "t": 78304.99600000004,
      "d": 256.88530208333395,
      "v": 109
    },
    {
      "midi": 61,
      "hit": false,
      "t": 78559.23299999998,
      "d": 452.85965625000244,
      "v": 124
    },
    {
      "midi": 85,
      "hit": false,
      "t": 78559.23299999998,
      "d": 452.85965625000244,
      "v": 124
    },
    {
      "midi": 73,
      "hit": false,
      "t": 78559.23300000004,
      "d": 452.85965625000244,
      "v": 114
    },
    {
      "midi": 61,
      "hit": false,
      "t": 79067.70699999998,
      "d": 1769.0657916666678,
      "v": 127
    },
    {
      "midi": 85,
      "hit": false,
      "t": 79067.70699999998,
      "d": 1769.0657916666678,
      "v": 127
    },
    {
      "midi": 73,
      "hit": false,
      "t": 79067.70700000004,
      "d": 624.999291666667,
      "v": 120
    },
    {
      "midi": 78,
      "hit": false,
      "t": 79830.41800000003,
      "d": 240.99548958333617,
      "v": 105
    },
    {
      "midi": 74,
      "hit": false,
      "t": 80084.65500000004,
      "d": 230.4022812500043,
      "v": 104
    },
    {
      "midi": 79,
      "hit": false,
      "t": 80338.89200000005,
      "d": 429.0249374999985,
      "v": 108
    },
    {
      "midi": 79,
      "hit": false,
      "t": 80847.36600000005,
      "d": 227.75397916666407,
      "v": 105
    },
    {
      "midi": 74,
      "hit": false,
      "t": 81101.60300000005,
      "d": 240.99548958333617,
      "v": 103
    },
    {
      "midi": 76,
      "hit": false,
      "t": 81355.84000000005,
      "d": 452.85965625000244,
      "v": 113
    },
    {
      "midi": 76,
      "hit": false,
      "t": 81864.31400000006,
      "d": 444.9147499999963,
      "v": 102
    },
    {
      "midi": 76,
      "hit": false,
      "t": 82372.78800000006,
      "d": 201.27095833333442,
      "v": 103
    },
    {
      "midi": 74,
      "hit": false,
      "t": 82627.02500000007,
      "d": 243.64379166666185,
      "v": 107
    },
    {
      "midi": 78,
      "hit": false,
      "t": 83135.49900000007,
      "d": 497.8807916666701,
      "v": 107
    },
    {
      "midi": 57,
      "hit": false,
      "t": 83643.97299999998,
      "d": 246.2920937500021,
      "v": 126
    },
    {
      "midi": 81,
      "hit": false,
      "t": 83643.97299999998,
      "d": 246.2920937500021,
      "v": 126
    },
    {
      "midi": 69,
      "hit": false,
      "t": 83643.97300000007,
      "d": 246.2920937500021,
      "v": 116
    },
    {
      "midi": 62,
      "hit": false,
      "t": 83898.20999999999,
      "d": 256.88530208333395,
      "v": 122
    },
    {
      "midi": 86,
      "hit": false,
      "t": 83898.20999999999,
      "d": 256.88530208333395,
      "v": 122
    },
    {
      "midi": 74,
      "hit": false,
      "t": 83898.21000000008,
      "d": 256.88530208333395,
      "v": 112
    },
    {
      "midi": 69,
      "hit": false,
      "t": 84152.44699999999,
      "d": 254.23700000000827,
      "v": 122
    },
    {
      "midi": 93,
      "hit": false,
      "t": 84152.44699999999,
      "d": 254.23700000000827,
      "v": 122
    },
    {
      "midi": 81,
      "hit": false,
      "t": 84152.44700000007,
      "d": 254.23700000000827,
      "v": 112
    },
    {
      "midi": 67,
      "hit": false,
      "t": 84406.684,
      "d": 243.64379166666185,
      "v": 119
    },
    {
      "midi": 91,
      "hit": false,
      "t": 84406.684,
      "d": 243.64379166666185,
      "v": 119
    },
    {
      "midi": 79,
      "hit": false,
      "t": 84406.68400000008,
      "d": 243.64379166666185,
      "v": 109
    },
    {
      "midi": 66,
      "hit": false,
      "t": 84660.92099999999,
      "d": 275.42341666665743,
      "v": 123
    },
    {
      "midi": 90,
      "hit": false,
      "t": 84660.92099999999,
      "d": 275.42341666665743,
      "v": 123
    },
    {
      "midi": 78,
      "hit": false,
      "t": 84660.92100000007,
      "d": 275.42341666665743,
      "v": 113
    },
    {
      "midi": 64,
      "hit": false,
      "t": 84915.15799999998,
      "d": 272.77511458333174,
      "v": 119
    },
    {
      "midi": 88,
      "hit": false,
      "t": 84915.15799999998,
      "d": 272.77511458333174,
      "v": 119
    },
    {
      "midi": 76,
      "hit": false,
      "t": 84915.15800000007,
      "d": 272.77511458333174,
      "v": 109
    },
    {
      "midi": 66,
      "hit": false,
      "t": 85169.39499999997,
      "d": 270.12681250000605,
      "v": 114
    },
    {
      "midi": 90,
      "hit": false,
      "t": 85169.39499999997,
      "d": 270.12681250000605,
      "v": 114
    },
    {
      "midi": 78,
      "hit": false,
      "t": 85169.39500000006,
      "d": 270.12681250000605,
      "v": 104
    },
    {
      "midi": 64,
      "hit": false,
      "t": 85423.63199999998,
      "d": 103.2837812499929,
      "v": 123
    },
    {
      "midi": 88,
      "hit": false,
      "t": 85423.63199999998,
      "d": 103.2837812499929,
      "v": 123
    },
    {
      "midi": 76,
      "hit": false,
      "t": 85423.63200000007,
      "d": 103.2837812499929,
      "v": 113
    },
    {
      "midi": 66,
      "hit": false,
      "t": 85550.75049999998,
      "d": 121.82189583333093,
      "v": 127
    },
    {
      "midi": 90,
      "hit": false,
      "t": 85550.75049999998,
      "d": 121.82189583333093,
      "v": 127
    },
    {
      "midi": 78,
      "hit": false,
      "t": 85550.75050000007,
      "d": 121.82189583333093,
      "v": 118
    },
    {
      "midi": 64,
      "hit": false,
      "t": 85677.86899999998,
      "d": 116.525291666665,
      "v": 115
    },
    {
      "midi": 88,
      "hit": false,
      "t": 85677.86899999998,
      "d": 116.525291666665,
      "v": 115
    },
    {
      "midi": 76,
      "hit": false,
      "t": 85677.86900000006,
      "d": 116.525291666665,
      "v": 105
    },
    {
      "midi": 62,
      "hit": false,
      "t": 85804.98749999997,
      "d": 116.525291666665,
      "v": 118
    },
    {
      "midi": 86,
      "hit": false,
      "t": 85804.98749999997,
      "d": 116.525291666665,
      "v": 118
    },
    {
      "midi": 74,
      "hit": false,
      "t": 85804.98750000006,
      "d": 116.525291666665,
      "v": 108
    },
    {
      "midi": 61,
      "hit": false,
      "t": 85932.10599999997,
      "d": 243.64379166666185,
      "v": 122
    },
    {
      "midi": 85,
      "hit": false,
      "t": 85932.10599999997,
      "d": 243.64379166666185,
      "v": 122
    },
    {
      "midi": 73,
      "hit": false,
      "t": 85932.10600000006,
      "d": 243.64379166666185,
      "v": 112
    },
    {
      "midi": 64,
      "hit": false,
      "t": 86186.34299999996,
      "d": 240.99548958333617,
      "v": 120
    },
    {
      "midi": 88,
      "hit": false,
      "t": 86186.34299999996,
      "d": 240.99548958333617,
      "v": 120
    },
    {
      "midi": 76,
      "hit": false,
      "t": 86186.34300000005,
      "d": 240.99548958333617,
      "v": 110
    },
    {
      "midi": 62,
      "hit": false,
      "t": 86440.57999999997,
      "d": 256.88530208333395,
      "v": 119
    },
    {
      "midi": 86,
      "hit": false,
      "t": 86440.57999999997,
      "d": 256.88530208333395,
      "v": 119
    },
    {
      "midi": 74,
      "hit": false,
      "t": 86440.58000000006,
      "d": 256.88530208333395,
      "v": 109
    },
    {
      "midi": 61,
      "hit": false,
      "t": 86694.81699999997,
      "d": 452.85965625000244,
      "v": 124
    },
    {
      "midi": 85,
      "hit": false,
      "t": 86694.81699999997,
      "d": 452.85965625000244,
      "v": 124
    },
    {
      "midi": 73,
      "hit": false,
      "t": 86694.81700000005,
      "d": 452.85965625000244,
      "v": 114
    },
    {
      "midi": 61,
      "hit": false,
      "t": 87203.29099999997,
      "d": 1769.0657916666678,
      "v": 127
    },
    {
      "midi": 85,
      "hit": false,
      "t": 87203.29099999997,
      "d": 1769.0657916666678,
      "v": 127
    },
    {
      "midi": 73,
      "hit": false,
      "t": 87203.29100000006,
      "d": 243.64379166666185,
      "v": 120
    },
    {
      "midi": 66,
      "hit": false,
      "t": 87457.52799999999,
      "d": 1027.5412083333358,
      "v": 1
    },
    {
      "midi": 62,
      "hit": false,
      "t": 87457.52799999999,
      "d": 1962.391843749996,
      "v": 1
    },
    {
      "midi": 78,
      "hit": false,
      "t": 87457.52800000005,
      "d": 415.7834270833264,
      "v": 112
    },
    {
      "midi": 78,
      "hit": false,
      "t": 87966.00200000004,
      "d": 240.99548958333617,
      "v": 105
    },
    {
      "midi": 74,
      "hit": false,
      "t": 88220.23900000005,
      "d": 230.4022812500043,
      "v": 104
    },
    {
      "midi": 67,
      "hit": false,
      "t": 88474.476,
      "d": 948.0921458333323,
      "v": 1
    },
    {
      "midi": 79,
      "hit": false,
      "t": 88474.47600000005,
      "d": 429.0249374999985,
      "v": 108
    },
    {
      "midi": 79,
      "hit": false,
      "t": 88982.95000000006,
      "d": 227.75397916666407,
      "v": 105
    },
    {
      "midi": 74,
      "hit": false,
      "t": 89237.18700000005,
      "d": 240.99548958333617,
      "v": 103
    },
    {
      "midi": 59,
      "hit": false,
      "t": 89491.424,
      "d": 1512.1804895833338,
      "v": 1
    },
    {
      "midi": 67,
      "hit": false,
      "t": 89491.424,
      "d": 1512.1804895833338,
      "v": 1
    },
    {
      "midi": 76,
      "hit": false,
      "t": 89491.42400000006,
      "d": 452.85965625000244,
      "v": 113
    },
    {
      "midi": 76,
      "hit": false,
      "t": 89999.89800000006,
      "d": 444.9147499999963,
      "v": 102
    },
    {
      "midi": 76,
      "hit": false,
      "t": 90508.37200000006,
      "d": 201.27095833333442,
      "v": 103
    },
    {
      "midi": 74,
      "hit": false,
      "t": 90762.60900000007,
      "d": 243.64379166666185,
      "v": 107
    },
    {
      "midi": 58,
      "hit": false,
      "t": 91016.846,
      "d": 272.77511458333174,
      "v": 1
    },
    {
      "midi": 66,
      "hit": false,
      "t": 91016.846,
      "d": 272.77511458333174,
      "v": 1
    },
    {
      "midi": 74,
      "hit": false,
      "t": 91016.84600000006,
      "d": 243.64379166666185,
      "v": 107
    },
    {
      "midi": 62,
      "hit": false,
      "t": 91271.083,
      "d": 458.1562604166684,
      "v": 1
    },
    {
      "midi": 69,
      "hit": false,
      "t": 91271.083,
      "d": 458.1562604166684,
      "v": 1
    },
    {
      "midi": 78,
      "hit": false,
      "t": 91271.08300000006,
      "d": 497.8807916666701,
      "v": 107
    },
    {
      "midi": 62,
      "hit": false,
      "t": 91525.31999999996,
      "d": 240.99548958333617,
      "v": 100
    },
    {
      "midi": 86,
      "hit": false,
      "t": 91525.31999999996,
      "d": 240.99548958333617,
      "v": 100
    },
    {
      "midi": 69,
      "hit": false,
      "t": 91779.55699999997,
      "d": 256.88530208333395,
      "v": 104
    },
    {
      "midi": 93,
      "hit": false,
      "t": 91779.55699999997,
      "d": 256.88530208333395,
      "v": 104
    },
    {
      "midi": 66,
      "hit": false,
      "t": 92033.79399999997,
      "d": 291.31322916666977,
      "v": 103
    },
    {
      "midi": 90,
      "hit": false,
      "t": 92033.79399999997,
      "d": 291.31322916666977,
      "v": 103
    },
    {
      "midi": 62,
      "hit": false,
      "t": 92033.79400000007,
      "d": 256.88530208333395,
      "v": 112
    },
    {
      "midi": 67,
      "hit": false,
      "t": 92033.79400000007,
      "d": 256.88530208333395,
      "v": 112
    },
    {
      "midi": 71,
      "hit": false,
      "t": 92033.79400000007,
      "d": 256.88530208333395,
      "v": 112
    },
    {
      "midi": 69,
      "hit": false,
      "t": 92288.03099999997,
      "d": 259.53360416665964,
      "v": 100
    },
    {
      "midi": 93,
      "hit": false,
      "t": 92288.03099999997,
      "d": 259.53360416665964,
      "v": 100
    },
    {
      "midi": 62,
      "hit": false,
      "t": 92542.26799999997,
      "d": 238.34718749999593,
      "v": 98
    },
    {
      "midi": 86,
      "hit": false,
      "t": 92542.26799999997,
      "d": 238.34718749999593,
      "v": 98
    },
    {
      "midi": 62,
      "hit": false,
      "t": 92542.26800000007,
      "d": 164.19472916667291,
      "v": 121
    },
    {
      "midi": 67,
      "hit": false,
      "t": 92542.26800000007,
      "d": 164.19472916667291,
      "v": 121
    },
    {
      "midi": 71,
      "hit": false,
      "t": 92542.26800000007,
      "d": 169.49133333333884,
      "v": 113
    },
    {
      "midi": 57,
      "hit": false,
      "t": 92796.50499999996,
      "d": 296.60983333332115,
      "v": 103
    },
    {
      "midi": 81,
      "hit": false,
      "t": 92796.50499999996,
      "d": 296.60983333332115,
      "v": 103
    },
    {
      "midi": 62,
      "hit": false,
      "t": 92796.50500000008,
      "d": 410.48682291666046,
      "v": 116
    },
    {
      "midi": 66,
      "hit": false,
      "t": 92796.50500000008,
      "d": 410.48682291666046,
      "v": 116
    },
    {
      "midi": 69,
      "hit": false,
      "t": 92796.50500000008,
      "d": 413.1351250000007,
      "v": 109
    },
    {
      "midi": 62,
      "hit": false,
      "t": 93050.74199999995,
      "d": 243.64379166666185,
      "v": 102
    },
    {
      "midi": 86,
      "hit": false,
      "t": 93050.74199999995,
      "d": 243.64379166666185,
      "v": 102
    },
    {
      "midi": 69,
      "hit": false,
      "t": 93304.97899999995,
      "d": 267.4785104166658,
      "v": 101
    },
    {
      "midi": 93,
      "hit": false,
      "t": 93304.97899999995,
      "d": 267.4785104166658,
      "v": 101
    },
    {
      "midi": 62,
      "hit": false,
      "t": 93304.97900000008,
      "d": 407.83852083333477,
      "v": 111
    },
    {
      "midi": 67,
      "hit": false,
      "t": 93304.97900000008,
      "d": 407.83852083333477,
      "v": 111
    },
    {
      "midi": 71,
      "hit": false,
      "t": 93304.97900000008,
      "d": 407.83852083333477,
      "v": 110
    },
    {
      "midi": 67,
      "hit": false,
      "t": 93559.21599999994,
      "d": 278.0717187500122,
      "v": 98
    },
    {
      "midi": 91,
      "hit": false,
      "t": 93559.21599999994,
      "d": 278.0717187500122,
      "v": 98
    },
    {
      "midi": 66,
      "hit": false,
      "t": 93813.45299999995,
      "d": 299.25813541667594,
      "v": 97
    },
    {
      "midi": 90,
      "hit": false,
      "t": 93813.45299999995,
      "d": 299.25813541667594,
      "v": 97
    },
    {
      "midi": 62,
      "hit": false,
      "t": 93813.45300000008,
      "d": 391.948708333337,
      "v": 117
    },
    {
      "midi": 66,
      "hit": false,
      "t": 93813.45300000008,
      "d": 391.948708333337,
      "v": 117
    },
    {
      "midi": 69,
      "hit": false,
      "t": 93813.45300000008,
      "d": 402.54191666666884,
      "v": 110
    },
    {
      "midi": 64,
      "hit": false,
      "t": 94067.68999999996,
      "d": 270.12681250000605,
      "v": 97
    },
    {
      "midi": 88,
      "hit": false,
      "t": 94067.68999999996,
      "d": 270.12681250000605,
      "v": 97
    },
    {
      "midi": 69,
      "hit": false,
      "t": 94321.92699999997,
      "d": 256.88530208333395,
      "v": 99
    },
    {
      "midi": 93,
      "hit": false,
      "t": 94321.92699999997,
      "d": 256.88530208333395,
      "v": 99
    },
    {
      "midi": 62,
      "hit": false,
      "t": 94321.92700000008,
      "d": 439.61814583333035,
      "v": 106
    },
    {
      "midi": 66,
      "hit": false,
      "t": 94321.92700000008,
      "d": 463.4528645833343,
      "v": 117
    },
    {
      "midi": 67,
      "hit": false,
      "t": 94576.16399999996,
      "d": 275.423416666672,
      "v": 97
    },
    {
      "midi": 91,
      "hit": false,
      "t": 94576.16399999996,
      "d": 275.423416666672,
      "v": 97
    },
    {
      "midi": 66,
      "hit": false,
      "t": 94830.40099999997,
      "d": 259.53360416665964,
      "v": 101
    },
    {
      "midi": 90,
      "hit": false,
      "t": 94830.40099999997,
      "d": 259.53360416665964,
      "v": 101
    },
    {
      "midi": 62,
      "hit": false,
      "t": 94830.40100000009,
      "d": 497.8807916666701,
      "v": 123
    },
    {
      "midi": 66,
      "hit": false,
      "t": 94830.40100000009,
      "d": 497.8807916666701,
      "v": 123
    },
    {
      "midi": 69,
      "hit": false,
      "t": 94830.40100000009,
      "d": 497.8807916666701,
      "v": 117
    },
    {
      "midi": 64,
      "hit": false,
      "t": 95084.63799999996,
      "d": 251.58869791666802,
      "v": 95
    },
    {
      "midi": 88,
      "hit": false,
      "t": 95084.63799999996,
      "d": 251.58869791666802,
      "v": 95
    },
    {
      "midi": 62,
      "hit": false,
      "t": 95338.87499999997,
      "d": 828.9185520833271,
      "v": 103
    },
    {
      "midi": 86,
      "hit": false,
      "t": 95338.87499999997,
      "d": 828.9185520833271,
      "v": 103
    },
    {
      "midi": 67,
      "hit": false,
      "t": 95338.87500000009,
      "d": 839.5117604166735,
      "v": 118
    },
    {
      "midi": 62,
      "hit": false,
      "t": 95338.87500000009,
      "d": 847.4566666666797,
      "v": 118
    },
    {
      "midi": 71,
      "hit": false,
      "t": 95338.87500000009,
      "d": 847.4566666666797,
      "v": 118
    },
    {
      "midi": 62,
      "hit": false,
      "t": 95593.112,
      "d": 987.8166770833341,
      "v": 1
    },
    {
      "midi": 69,
      "hit": false,
      "t": 95593.112,
      "d": 987.8166770833341,
      "v": 1
    },
    {
      "midi": 71,
      "hit": false,
      "t": 96610.06,
      "d": 987.8166770833341,
      "v": 1
    },
    {
      "midi": 74,
      "hit": false,
      "t": 96610.06,
      "d": 987.8166770833341,
      "v": 1
    },
    {
      "midi": 67,
      "hit": false,
      "t": 97627.008,
      "d": 1750.5276770833298,
      "v": 1
    },
    {
      "midi": 71,
      "hit": false,
      "t": 97627.008,
      "d": 1750.5276770833298,
      "v": 1
    },
    {
      "midi": 66,
      "hit": false,
      "t": 99406.667,
      "d": 715.0415625000023,
      "v": 1
    },
    {
      "midi": 69,
      "hit": false,
      "t": 99406.667,
      "d": 715.0415625000023,
      "v": 1
    },
    {
      "midi": 38,
      "hit": false,
      "t": 103728.6960000001,
      "d": 1927.9639166666602,
      "v": 104
    },
    {
      "midi": 31,
      "hit": false,
      "t": 105762.59200000009,
      "d": 458.1562604166684,
      "v": 121
    },
    {
      "midi": 30,
      "hit": false,
      "t": 106271.0660000001,
      "d": 471.3977708333405,
      "v": 125
    },
    {
      "midi": 28,
      "hit": false,
      "t": 106779.5400000001,
      "d": 918.9608229166624,
      "v": 127
    },
    {
      "midi": 38,
      "hit": false,
      "t": 107796.48800000008,
      "d": 1927.9639166666602,
      "v": 104
    },
    {
      "midi": 31,
      "hit": false,
      "t": 109830.38400000008,
      "d": 458.1562604166684,
      "v": 121
    },
    {
      "midi": 30,
      "hit": false,
      "t": 110338.85800000008,
      "d": 471.3977708333405,
      "v": 125
    },
    {
      "midi": 28,
      "hit": false,
      "t": 110847.33200000008,
      "d": 918.9608229166624,
      "v": 127
    },
    {
      "midi": 38,
      "hit": false,
      "t": 111864.28000000007,
      "d": 1927.9639166666602,
      "v": 104
    },
    {
      "midi": 31,
      "hit": false,
      "t": 113898.17600000006,
      "d": 458.1562604166684,
      "v": 121
    },
    {
      "midi": 30,
      "hit": false,
      "t": 114406.65000000007,
      "d": 471.3977708333405,
      "v": 125
    },
    {
      "midi": 28,
      "hit": false,
      "t": 114915.12400000007,
      "d": 918.9608229166624,
      "v": 127
    },
    {
      "midi": 38,
      "hit": false,
      "t": 115932.07200000006,
      "d": 1927.9639166666602,
      "v": 104
    },
    {
      "midi": 59,
      "hit": false,
      "t": 117711.731,
      "d": 752.1177916666638,
      "v": 1
    },
    {
      "midi": 33,
      "hit": false,
      "t": 117965.96800000005,
      "d": 458.1562604166684,
      "v": 111
    },
    {
      "midi": 57,
      "hit": false,
      "t": 118474.442,
      "d": 492.5841875000042,
      "v": 1
    },
    {
      "midi": 37,
      "hit": false,
      "t": 118474.44200000005,
      "d": 471.3977708333405,
      "v": 115
    },
    {
      "midi": 55,
      "hit": false,
      "t": 118982.916,
      "d": 492.5841875000042,
      "v": 1
    },
    {
      "midi": 40,
      "hit": false,
      "t": 118982.91600000006,
      "d": 458.1562604166684,
      "v": 111
    },
    {
      "midi": 57,
      "hit": false,
      "t": 119491.39,
      "d": 516.4189062500081,
      "v": 1
    },
    {
      "midi": 45,
      "hit": false,
      "t": 119491.39000000006,
      "d": 471.3977708333405,
      "v": 115
    },
    {
      "midi": 55,
      "hit": false,
      "t": 119999.864,
      "d": 511.1223020833422,
      "v": 1
    },
    {
      "midi": 38,
      "hit": false,
      "t": 119999.86400000006,
      "d": 1896.1842916666646,
      "v": 117
    },
    {
      "midi": 54,
      "hit": false,
      "t": 120508.338,
      "d": 971.9268645833363,
      "v": 1
    },
    {
      "midi": 62,
      "hit": false,
      "t": 122033.75999999997,
      "d": 246.2920937500021,
      "v": 119
    },
    {
      "midi": 86,
      "hit": false,
      "t": 122033.75999999997,
      "d": 246.2920937500021,
      "v": 119
    },
    {
      "midi": 74,
      "hit": false,
      "t": 122033.76000000005,
      "d": 246.2920937500021,
      "v": 104
    },
    {
      "midi": 57,
      "hit": false,
      "t": 122287.99699999997,
      "d": 254.2369999999937,
      "v": 105
    },
    {
      "midi": 81,
      "hit": false,
      "t": 122287.99699999997,
      "d": 254.2369999999937,
      "v": 105
    },
    {
      "midi": 69,
      "hit": false,
      "t": 122287.99700000006,
      "d": 254.2369999999937,
      "v": 90
    },
    {
      "midi": 64,
      "hit": false,
      "t": 122542.23399999997,
      "d": 240.99548958333617,
      "v": 110
    },
    {
      "midi": 88,
      "hit": false,
      "t": 122542.23399999997,
      "d": 240.99548958333617,
      "v": 110
    },
    {
      "midi": 76,
      "hit": false,
      "t": 122542.23400000005,
      "d": 240.99548958333617,
      "v": 95
    },
    {
      "midi": 57,
      "hit": false,
      "t": 122796.47099999998,
      "d": 243.64379166666185,
      "v": 106
    },
    {
      "midi": 81,
      "hit": false,
      "t": 122796.47099999998,
      "d": 243.64379166666185,
      "v": 106
    },
    {
      "midi": 69,
      "hit": false,
      "t": 122796.47100000006,
      "d": 243.64379166666185,
      "v": 91
    },
    {
      "midi": 62,
      "hit": false,
      "t": 123050.70799999997,
      "d": 240.99548958333617,
      "v": 116
    },
    {
      "midi": 86,
      "hit": false,
      "t": 123050.70799999997,
      "d": 240.99548958333617,
      "v": 116
    },
    {
      "midi": 74,
      "hit": false,
      "t": 123050.70800000006,
      "d": 240.99548958333617,
      "v": 101
    },
    {
      "midi": 57,
      "hit": false,
      "t": 123304.94499999998,
      "d": 254.2369999999937,
      "v": 104
    },
    {
      "midi": 81,
      "hit": false,
      "t": 123304.94499999998,
      "d": 254.2369999999937,
      "v": 104
    },
    {
      "midi": 69,
      "hit": false,
      "t": 123304.94500000007,
      "d": 254.2369999999937,
      "v": 89
    },
    {
      "midi": 64,
      "hit": false,
      "t": 123559.18199999997,
      "d": 243.64379166666185,
      "v": 110
    },
    {
      "midi": 88,
      "hit": false,
      "t": 123559.18199999997,
      "d": 243.64379166666185,
      "v": 110
    },
    {
      "midi": 76,
      "hit": false,
      "t": 123559.18200000006,
      "d": 243.64379166666185,
      "v": 95
    },
    {
      "midi": 57,
      "hit": false,
      "t": 123813.41899999997,
      "d": 243.64379166666185,
      "v": 102
    },
    {
      "midi": 81,
      "hit": false,
      "t": 123813.41899999997,
      "d": 243.64379166666185,
      "v": 102
    },
    {
      "midi": 69,
      "hit": false,
      "t": 123813.41900000005,
      "d": 243.64379166666185,
      "v": 87
    },
    {
      "midi": 62,
      "hit": false,
      "t": 124067.65599999996,
      "d": 240.99548958333617,
      "v": 115
    },
    {
      "midi": 86,
      "hit": false,
      "t": 124067.65599999996,
      "d": 240.99548958333617,
      "v": 115
    },
    {
      "midi": 74,
      "hit": false,
      "t": 124067.65600000005,
      "d": 240.99548958333617,
      "v": 100
    },
    {
      "midi": 57,
      "hit": false,
      "t": 124321.89299999997,
      "d": 256.88530208333395,
      "v": 105
    },
    {
      "midi": 81,
      "hit": false,
      "t": 124321.89299999997,
      "d": 256.88530208333395,
      "v": 105
    },
    {
      "midi": 69,
      "hit": false,
      "t": 124321.89300000005,
      "d": 256.88530208333395,
      "v": 90
    },
    {
      "midi": 64,
      "hit": false,
      "t": 124576.12999999996,
      "d": 240.99548958333617,
      "v": 112
    },
    {
      "midi": 88,
      "hit": false,
      "t": 124576.12999999996,
      "d": 240.99548958333617,
      "v": 112
    },
    {
      "midi": 76,
      "hit": false,
      "t": 124576.13000000005,
      "d": 240.99548958333617,
      "v": 97
    },
    {
      "midi": 57,
      "hit": false,
      "t": 124830.36699999997,
      "d": 243.64379166666185,
      "v": 103
    },
    {
      "midi": 81,
      "hit": false,
      "t": 124830.36699999997,
      "d": 243.64379166666185,
      "v": 103
    },
    {
      "midi": 69,
      "hit": false,
      "t": 124830.36700000006,
      "d": 243.64379166666185,
      "v": 88
    },
    {
      "midi": 62,
      "hit": false,
      "t": 125084.60399999996,
      "d": 214.51246875000652,
      "v": 114
    },
    {
      "midi": 86,
      "hit": false,
      "t": 125084.60399999996,
      "d": 214.51246875000652,
      "v": 114
    },
    {
      "midi": 74,
      "hit": false,
      "t": 125084.60400000005,
      "d": 214.51246875000652,
      "v": 99
    },
    {
      "midi": 57,
      "hit": false,
      "t": 125338.84099999997,
      "d": 262.1819062499999,
      "v": 101
    },
    {
      "midi": 81,
      "hit": false,
      "t": 125338.84099999997,
      "d": 262.1819062499999,
      "v": 101
    },
    {
      "midi": 69,
      "hit": false,
      "t": 125338.84100000006,
      "d": 262.1819062499999,
      "v": 86
    },
    {
      "midi": 64,
      "hit": false,
      "t": 125593.07799999996,
      "d": 251.58869791666802,
      "v": 110
    },
    {
      "midi": 88,
      "hit": false,
      "t": 125593.07799999996,
      "d": 251.58869791666802,
      "v": 110
    },
    {
      "midi": 76,
      "hit": false,
      "t": 125593.07800000005,
      "d": 251.58869791666802,
      "v": 95
    },
    {
      "midi": 57,
      "hit": false,
      "t": 125847.31499999997,
      "d": 246.2920937500021,
      "v": 103
    },
    {
      "midi": 81,
      "hit": false,
      "t": 125847.31499999997,
      "d": 246.2920937500021,
      "v": 103
    },
    {
      "midi": 69,
      "hit": false,
      "t": 125847.31500000006,
      "d": 246.2920937500021,
      "v": 88
    },
    {
      "midi": 62,
      "hit": false,
      "t": 126101.55199999998,
      "d": 219.80907291667245,
      "v": 114
    },
    {
      "midi": 86,
      "hit": false,
      "t": 126101.55199999998,
      "d": 219.80907291667245,
      "v": 114
    },
    {
      "midi": 74,
      "hit": false,
      "t": 126101.55200000007,
      "d": 219.80907291667245,
      "v": 99
    },
    {
      "midi": 57,
      "hit": false,
      "t": 126355.78899999999,
      "d": 254.2369999999937,
      "v": 100
    },
    {
      "midi": 81,
      "hit": false,
      "t": 126355.78899999999,
      "d": 254.2369999999937,
      "v": 100
    },
    {
      "midi": 69,
      "hit": false,
      "t": 126355.78900000008,
      "d": 254.2369999999937,
      "v": 85
    },
    {
      "midi": 64,
      "hit": false,
      "t": 126610.02599999998,
      "d": 246.2920937500021,
      "v": 108
    },
    {
      "midi": 88,
      "hit": false,
      "t": 126610.02599999998,
      "d": 246.2920937500021,
      "v": 108
    },
    {
      "midi": 76,
      "hit": false,
      "t": 126610.02600000007,
      "d": 246.2920937500021,
      "v": 93
    },
    {
      "midi": 57,
      "hit": false,
      "t": 126864.26299999999,
      "d": 238.34718749999593,
      "v": 108
    },
    {
      "midi": 81,
      "hit": false,
      "t": 126864.26299999999,
      "d": 238.34718749999593,
      "v": 108
    },
    {
      "midi": 69,
      "hit": false,
      "t": 126864.26300000008,
      "d": 238.34718749999593,
      "v": 93
    },
    {
      "midi": 62,
      "hit": false,
      "t": 127118.49999999999,
      "d": 225.10567708333838,
      "v": 115
    },
    {
      "midi": 86,
      "hit": false,
      "t": 127118.49999999999,
      "d": 225.10567708333838,
      "v": 115
    },
    {
      "midi": 74,
      "hit": false,
      "t": 127118.50000000007,
      "d": 225.10567708333838,
      "v": 100
    },
    {
      "midi": 57,
      "hit": false,
      "t": 127372.737,
      "d": 256.88530208333395,
      "v": 96
    },
    {
      "midi": 81,
      "hit": false,
      "t": 127372.737,
      "d": 256.88530208333395,
      "v": 96
    },
    {
      "midi": 69,
      "hit": false,
      "t": 127372.73700000008,
      "d": 256.88530208333395,
      "v": 81
    },
    {
      "midi": 64,
      "hit": false,
      "t": 127626.97399999999,
      "d": 248.94039583334234,
      "v": 110
    },
    {
      "midi": 88,
      "hit": false,
      "t": 127626.97399999999,
      "d": 248.94039583334234,
      "v": 110
    },
    {
      "midi": 76,
      "hit": false,
      "t": 127626.97400000007,
      "d": 248.94039583334234,
      "v": 95
    },
    {
      "midi": 57,
      "hit": false,
      "t": 127881.211,
      "d": 248.94039583332778,
      "v": 102
    },
    {
      "midi": 81,
      "hit": false,
      "t": 127881.211,
      "d": 248.94039583332778,
      "v": 102
    },
    {
      "midi": 69,
      "hit": false,
      "t": 127881.21100000008,
      "d": 248.94039583332778,
      "v": 87
    },
    {
      "midi": 62,
      "hit": false,
      "t": 128135.44799999999,
      "d": 227.75397916666407,
      "v": 112
    },
    {
      "midi": 86,
      "hit": false,
      "t": 128135.44799999999,
      "d": 227.75397916666407,
      "v": 112
    },
    {
      "midi": 74,
      "hit": false,
      "t": 128135.44800000008,
      "d": 227.75397916666407,
      "v": 97
    },
    {
      "midi": 57,
      "hit": false,
      "t": 128389.68499999998,
      "d": 256.88530208333395,
      "v": 103
    },
    {
      "midi": 81,
      "hit": false,
      "t": 128389.68499999998,
      "d": 256.88530208333395,
      "v": 103
    },
    {
      "midi": 69,
      "hit": false,
      "t": 128389.68500000007,
      "d": 256.88530208333395,
      "v": 88
    },
    {
      "midi": 64,
      "hit": false,
      "t": 128643.92199999998,
      "d": 254.23700000000827,
      "v": 111
    },
    {
      "midi": 88,
      "hit": false,
      "t": 128643.92199999998,
      "d": 254.23700000000827,
      "v": 111
    },
    {
      "midi": 76,
      "hit": false,
      "t": 128643.92200000006,
      "d": 254.23700000000827,
      "v": 96
    },
    {
      "midi": 57,
      "hit": false,
      "t": 128898.15899999999,
      "d": 272.77511458333174,
      "v": 98
    },
    {
      "midi": 81,
      "hit": false,
      "t": 128898.15899999999,
      "d": 272.77511458333174,
      "v": 98
    },
    {
      "midi": 69,
      "hit": false,
      "t": 128898.15900000007,
      "d": 272.77511458333174,
      "v": 83
    },
    {
      "midi": 62,
      "hit": false,
      "t": 129152.39599999998,
      "d": 233.05058333334455,
      "v": 109
    },
    {
      "midi": 86,
      "hit": false,
      "t": 129152.39599999998,
      "d": 233.05058333334455,
      "v": 109
    },
    {
      "midi": 74,
      "hit": false,
      "t": 129152.39600000007,
      "d": 233.05058333334455,
      "v": 94
    },
    {
      "midi": 57,
      "hit": false,
      "t": 129406.63299999999,
      "d": 251.58869791666802,
      "v": 100
    },
    {
      "midi": 81,
      "hit": false,
      "t": 129406.63299999999,
      "d": 251.58869791666802,
      "v": 100
    },
    {
      "midi": 69,
      "hit": false,
      "t": 129406.63300000007,
      "d": 251.58869791666802,
      "v": 85
    },
    {
      "midi": 64,
      "hit": false,
      "t": 129660.87,
      "d": 254.2369999999937,
      "v": 110
    },
    {
      "midi": 88,
      "hit": false,
      "t": 129660.87,
      "d": 254.2369999999937,
      "v": 110
    },
    {
      "midi": 76,
      "hit": false,
      "t": 129660.87000000008,
      "d": 254.2369999999937,
      "v": 95
    },
    {
      "midi": 57,
      "hit": false,
      "t": 129915.10699999999,
      "d": 259.53360416665964,
      "v": 100
    },
    {
      "midi": 81,
      "hit": false,
      "t": 129915.10699999999,
      "d": 259.53360416665964,
      "v": 100
    },
    {
      "midi": 69,
      "hit": false,
      "t": 129915.10700000008,
      "d": 259.53360416665964,
      "v": 85
    },
    {
      "midi": 62,
      "hit": false,
      "t": 130169.34399999998,
      "d": 235.69888541667024,
      "v": 114
    },
    {
      "midi": 86,
      "hit": false,
      "t": 130169.34399999998,
      "d": 235.69888541667024,
      "v": 114
    },
    {
      "midi": 74,
      "hit": false,
      "t": 130169.34400000007,
      "d": 235.69888541667024,
      "v": 99
    },
    {
      "midi": 57,
      "hit": false,
      "t": 130423.58099999999,
      "d": 235.69888541667024,
      "v": 104
    },
    {
      "midi": 81,
      "hit": false,
      "t": 130423.58099999999,
      "d": 235.69888541667024,
      "v": 104
    },
    {
      "midi": 69,
      "hit": false,
      "t": 130423.58100000008,
      "d": 235.69888541667024,
      "v": 89
    },
    {
      "midi": 64,
      "hit": false,
      "t": 130677.818,
      "d": 262.1819062499999,
      "v": 110
    },
    {
      "midi": 88,
      "hit": false,
      "t": 130677.818,
      "d": 262.1819062499999,
      "v": 110
    },
    {
      "midi": 76,
      "hit": false,
      "t": 130677.81800000009,
      "d": 262.1819062499999,
      "v": 95
    },
    {
      "midi": 57,
      "hit": false,
      "t": 130932.055,
      "d": 248.94039583334234,
      "v": 103
    },
    {
      "midi": 81,
      "hit": false,
      "t": 130932.055,
      "d": 248.94039583334234,
      "v": 103
    },
    {
      "midi": 69,
      "hit": false,
      "t": 130932.05500000008,
      "d": 248.94039583334234,
      "v": 88
    },
    {
      "midi": 62,
      "hit": false,
      "t": 131186.29200000002,
      "d": 219.8090729166579,
      "v": 113
    },
    {
      "midi": 86,
      "hit": false,
      "t": 131186.29200000002,
      "d": 219.8090729166579,
      "v": 113
    },
    {
      "midi": 74,
      "hit": false,
      "t": 131186.2920000001,
      "d": 219.8090729166579,
      "v": 98
    },
    {
      "midi": 57,
      "hit": false,
      "t": 131440.529,
      "d": 264.8302083333256,
      "v": 99
    },
    {
      "midi": 81,
      "hit": false,
      "t": 131440.529,
      "d": 264.8302083333256,
      "v": 99
    },
    {
      "midi": 69,
      "hit": false,
      "t": 131440.5290000001,
      "d": 264.8302083333256,
      "v": 84
    },
    {
      "midi": 64,
      "hit": false,
      "t": 131694.766,
      "d": 246.2920937500021,
      "v": 111
    },
    {
      "midi": 88,
      "hit": false,
      "t": 131694.766,
      "d": 246.2920937500021,
      "v": 111
    },
    {
      "midi": 76,
      "hit": false,
      "t": 131694.7660000001,
      "d": 246.2920937500021,
      "v": 96
    },
    {
      "midi": 57,
      "hit": false,
      "t": 131949.003,
      "d": 235.69888541667024,
      "v": 102
    },
    {
      "midi": 81,
      "hit": false,
      "t": 131949.003,
      "d": 235.69888541667024,
      "v": 102
    },
    {
      "midi": 69,
      "hit": false,
      "t": 131949.00300000008,
      "d": 235.69888541667024,
      "v": 87
    },
    {
      "midi": 62,
      "hit": false,
      "t": 132203.24,
      "d": 233.05058333333,
      "v": 110
    },
    {
      "midi": 86,
      "hit": false,
      "t": 132203.24,
      "d": 233.05058333333,
      "v": 110
    },
    {
      "midi": 74,
      "hit": false,
      "t": 132203.24000000008,
      "d": 233.05058333333,
      "v": 95
    },
    {
      "midi": 57,
      "hit": false,
      "t": 132457.47699999998,
      "d": 248.94039583334234,
      "v": 94
    },
    {
      "midi": 81,
      "hit": false,
      "t": 132457.47699999998,
      "d": 248.94039583334234,
      "v": 94
    },
    {
      "midi": 69,
      "hit": false,
      "t": 132457.47700000007,
      "d": 248.94039583334234,
      "v": 79
    },
    {
      "midi": 64,
      "hit": false,
      "t": 132711.714,
      "d": 256.88530208333395,
      "v": 111
    },
    {
      "midi": 88,
      "hit": false,
      "t": 132711.714,
      "d": 256.88530208333395,
      "v": 111
    },
    {
      "midi": 76,
      "hit": false,
      "t": 132711.7140000001,
      "d": 256.88530208333395,
      "v": 96
    },
    {
      "midi": 57,
      "hit": false,
      "t": 132965.951,
      "d": 251.58869791668258,
      "v": 104
    },
    {
      "midi": 81,
      "hit": false,
      "t": 132965.951,
      "d": 251.58869791668258,
      "v": 104
    },
    {
      "midi": 69,
      "hit": false,
      "t": 132965.9510000001,
      "d": 251.58869791668258,
      "v": 89
    },
    {
      "midi": 62,
      "hit": false,
      "t": 133220.18800000002,
      "d": 214.51246875000652,
      "v": 112
    },
    {
      "midi": 86,
      "hit": false,
      "t": 133220.18800000002,
      "d": 214.51246875000652,
      "v": 112
    },
    {
      "midi": 74,
      "hit": false,
      "t": 133220.1880000001,
      "d": 214.51246875000652,
      "v": 97
    },
    {
      "midi": 57,
      "hit": false,
      "t": 133474.42500000002,
      "d": 264.8302083333256,
      "v": 102
    },
    {
      "midi": 81,
      "hit": false,
      "t": 133474.42500000002,
      "d": 264.8302083333256,
      "v": 102
    },
    {
      "midi": 69,
      "hit": false,
      "t": 133474.4250000001,
      "d": 264.8302083333256,
      "v": 87
    },
    {
      "midi": 64,
      "hit": false,
      "t": 133728.662,
      "d": 243.64379166666185,
      "v": 109
    },
    {
      "midi": 88,
      "hit": false,
      "t": 133728.662,
      "d": 243.64379166666185,
      "v": 109
    },
    {
      "midi": 76,
      "hit": false,
      "t": 133728.6620000001,
      "d": 243.64379166666185,
      "v": 94
    },
    {
      "midi": 57,
      "hit": false,
      "t": 133982.899,
      "d": 240.9954895833216,
      "v": 104
    },
    {
      "midi": 81,
      "hit": false,
      "t": 133982.899,
      "d": 240.9954895833216,
      "v": 104
    },
    {
      "midi": 69,
      "hit": false,
      "t": 133982.8990000001,
      "d": 240.9954895833216,
      "v": 89
    },
    {
      "midi": 62,
      "hit": false,
      "t": 134237.136,
      "d": 238.34718750001048,
      "v": 114
    },
    {
      "midi": 86,
      "hit": false,
      "t": 134237.136,
      "d": 238.34718750001048,
      "v": 114
    },
    {
      "midi": 62,
      "hit": false,
      "t": 134237.136,
      "d": 1249.998583333334,
      "v": 1
    },
    {
      "midi": 74,
      "hit": false,
      "t": 134237.1360000001,
      "d": 238.34718750001048,
      "v": 99
    },
    {
      "midi": 57,
      "hit": false,
      "t": 134491.37300000002,
      "d": 233.05058333333,
      "v": 102
    },
    {
      "midi": 81,
      "hit": false,
      "t": 134491.37300000002,
      "d": 233.05058333333,
      "v": 102
    },
    {
      "midi": 69,
      "hit": false,
      "t": 134491.3730000001,
      "d": 233.05058333333,
      "v": 87
    },
    {
      "midi": 64,
      "hit": false,
      "t": 134745.61000000002,
      "d": 251.58869791665347,
      "v": 112
    },
    {
      "midi": 88,
      "hit": false,
      "t": 134745.61000000002,
      "d": 251.58869791665347,
      "v": 112
    },
    {
      "midi": 76,
      "hit": false,
      "t": 134745.6100000001,
      "d": 251.58869791665347,
      "v": 97
    },
    {
      "midi": 57,
      "hit": false,
      "t": 134999.847,
      "d": 246.2920937500021,
      "v": 103
    },
    {
      "midi": 81,
      "hit": false,
      "t": 134999.847,
      "d": 246.2920937500021,
      "v": 103
    },
    {
      "midi": 69,
      "hit": false,
      "t": 134999.8470000001,
      "d": 246.2920937500021,
      "v": 88
    },
    {
      "midi": 62,
      "hit": false,
      "t": 135254.084,
      "d": 225.10567708333838,
      "v": 110
    },
    {
      "midi": 86,
      "hit": false,
      "t": 135254.084,
      "d": 225.10567708333838,
      "v": 110
    },
    {
      "midi": 74,
      "hit": false,
      "t": 135254.0840000001,
      "d": 225.10567708333838,
      "v": 95
    },
    {
      "midi": 57,
      "hit": false,
      "t": 135508.321,
      "d": 251.58869791665347,
      "v": 102
    },
    {
      "midi": 81,
      "hit": false,
      "t": 135508.321,
      "d": 251.58869791665347,
      "v": 102
    },
    {
      "midi": 61,
      "hit": false,
      "t": 135508.321,
      "d": 113.87698958333931,
      "v": 1
    },
    {
      "midi": 69,
      "hit": false,
      "t": 135508.32100000008,
      "d": 251.58869791665347,
      "v": 87
    },
    {
      "midi": 59,
      "hit": false,
      "t": 135635.4395,
      "d": 828.9185520833416,
      "v": 1
    },
    {
      "midi": 64,
      "hit": false,
      "t": 135762.558,
      "d": 251.58869791665347,
      "v": 112
    },
    {
      "midi": 88,
      "hit": false,
      "t": 135762.558,
      "d": 251.58869791665347,
      "v": 112
    },
    {
      "midi": 76,
      "hit": false,
      "t": 135762.55800000008,
      "d": 251.58869791665347,
      "v": 97
    },
    {
      "midi": 57,
      "hit": false,
      "t": 136016.79499999998,
      "d": 243.64379166666185,
      "v": 100
    },
    {
      "midi": 81,
      "hit": false,
      "t": 136016.79499999998,
      "d": 243.64379166666185,
      "v": 100
    },
    {
      "midi": 69,
      "hit": false,
      "t": 136016.79500000007,
      "d": 243.64379166666185,
      "v": 85
    },
    {
      "midi": 62,
      "hit": false,
      "t": 136271.03199999998,
      "d": 233.05058333333,
      "v": 114
    },
    {
      "midi": 86,
      "hit": false,
      "t": 136271.03199999998,
      "d": 233.05058333333,
      "v": 114
    },
    {
      "midi": 74,
      "hit": false,
      "t": 136271.03200000006,
      "d": 233.05058333333,
      "v": 99
    },
    {
      "midi": 57,
      "hit": false,
      "t": 136525.26899999997,
      "d": 246.2920937500021,
      "v": 102
    },
    {
      "midi": 81,
      "hit": false,
      "t": 136525.26899999997,
      "d": 246.2920937500021,
      "v": 102
    },
    {
      "midi": 69,
      "hit": false,
      "t": 136525.26900000006,
      "d": 246.2920937500021,
      "v": 87
    },
    {
      "midi": 64,
      "hit": false,
      "t": 136779.50599999996,
      "d": 217.16077083334676,
      "v": 110
    },
    {
      "midi": 88,
      "hit": false,
      "t": 136779.50599999996,
      "d": 217.16077083334676,
      "v": 110
    },
    {
      "midi": 76,
      "hit": false,
      "t": 136779.50600000005,
      "d": 217.16077083334676,
      "v": 95
    },
    {
      "midi": 57,
      "hit": false,
      "t": 137033.743,
      "d": 246.2920937500021,
      "v": 100
    },
    {
      "midi": 81,
      "hit": false,
      "t": 137033.743,
      "d": 246.2920937500021,
      "v": 100
    },
    {
      "midi": 69,
      "hit": false,
      "t": 137033.74300000007,
      "d": 246.2920937500021,
      "v": 85
    },
    {
      "midi": 62,
      "hit": false,
      "t": 137287.97999999998,
      "d": 233.05058333333,
      "v": 110
    },
    {
      "midi": 86,
      "hit": false,
      "t": 137287.97999999998,
      "d": 233.05058333333,
      "v": 110
    },
    {
      "midi": 74,
      "hit": false,
      "t": 137287.98000000007,
      "d": 233.05058333333,
      "v": 95
    },
    {
      "midi": 57,
      "hit": false,
      "t": 137542.21699999998,
      "d": 256.88530208333395,
      "v": 109
    },
    {
      "midi": 81,
      "hit": false,
      "t": 137542.21699999998,
      "d": 256.88530208333395,
      "v": 109
    },
    {
      "midi": 69,
      "hit": false,
      "t": 137542.21700000006,
      "d": 256.88530208333395,
      "v": 94
    },
    {
      "midi": 64,
      "hit": false,
      "t": 137796.45399999997,
      "d": 238.34718750001048,
      "v": 110
    },
    {
      "midi": 88,
      "hit": false,
      "t": 137796.45399999997,
      "d": 238.34718750001048,
      "v": 110
    },
    {
      "midi": 76,
      "hit": false,
      "t": 137796.45400000006,
      "d": 238.34718750001048,
      "v": 95
    },
    {
      "midi": 57,
      "hit": false,
      "t": 138050.691,
      "d": 166.8430312499986,
      "v": 106
    },
    {
      "midi": 81,
      "hit": false,
      "t": 138050.691,
      "d": 166.8430312499986,
      "v": 106
    },
    {
      "midi": 69,
      "hit": false,
      "t": 138050.69100000008,
      "d": 166.8430312499986,
      "v": 91
    },
    {
      "midi": 67,
      "hit": false,
      "t": 138304.928,
      "d": 1980.9299583333195,
      "v": 1
    },
    {
      "midi": 62,
      "hit": false,
      "t": 138304.928,
      "d": 2004.7646770833235,
      "v": 1
    },
    {
      "midi": 59,
      "hit": false,
      "t": 138304.928,
      "d": 2028.5993958333274,
      "v": 1
    },
    {
      "midi": 59,
      "hit": false,
      "t": 140338.82400000002,
      "d": 2004.7646770833235,
      "v": 1
    },
    {
      "midi": 64,
      "hit": false,
      "t": 140338.82400000002,
      "d": 2004.7646770833235,
      "v": 1
    },
    {
      "midi": 56,
      "hit": false,
      "t": 140338.82400000002,
      "d": 2041.8409062499995,
      "v": 1
    },
    {
      "midi": 68,
      "hit": false,
      "t": 140338.82400000002,
      "d": 2065.6756250000035,
      "v": 1
    },
    {
      "midi": 55,
      "hit": false,
      "t": 146440.51200000002,
      "d": 2028.5993958333274,
      "v": 1
    },
    {
      "midi": 58,
      "hit": false,
      "t": 147457.46000000002,
      "d": 1011.6513958333235,
      "v": 1
    },
    {
      "midi": 64,
      "hit": false,
      "t": 147965.934,
      "d": 503.17739583333605,
      "v": 1
    },
    {
      "midi": 64,
      "hit": false,
      "t": 148474.40800000002,
      "d": 127.11850000001141,
      "v": 1
    },
    {
      "midi": 71,
      "hit": false,
      "t": 148474.40800000002,
      "d": 2020.654489583365,
      "v": 1
    },
    {
      "midi": 61,
      "hit": false,
      "t": 148474.40800000002,
      "d": 2028.5993958333565,
      "v": 1
    },
    {
      "midi": 67,
      "hit": false,
      "t": 148474.40800000002,
      "d": 2028.5993958333565,
      "v": 1
    },
    {
      "midi": 64,
      "hit": false,
      "t": 148728.64500000005,
      "d": 121.82189583333093,
      "v": 1
    },
    {
      "midi": 64,
      "hit": false,
      "t": 148982.88200000004,
      "d": 248.94039583334234,
      "v": 1
    },
    {
      "midi": 66,
      "hit": false,
      "t": 149237.11900000006,
      "d": 407.8385208333202,
      "v": 1
    },
    {
      "midi": 64,
      "hit": false,
      "t": 149745.59300000005,
      "d": 744.1728854166577,
      "v": 1
    },
    {
      "midi": 38,
      "hit": false,
      "t": 152542.20000000007,
      "d": 1927.9639166666602,
      "v": 104
    },
    {
      "midi": 31,
      "hit": false,
      "t": 154576.09600000008,
      "d": 458.1562604166684,
      "v": 121
    },
    {
      "midi": 30,
      "hit": false,
      "t": 155084.57000000007,
      "d": 471.3977708333405,
      "v": 125
    },
    {
      "midi": 28,
      "hit": false,
      "t": 155593.04400000008,
      "d": 918.960822916677,
      "v": 127
    },
    {
      "midi": 38,
      "hit": false,
      "t": 156609.9920000001,
      "d": 1927.9639166666602,
      "v": 104
    },
    {
      "midi": 31,
      "hit": false,
      "t": 158643.8880000001,
      "d": 458.1562604166684,
      "v": 121
    },
    {
      "midi": 30,
      "hit": false,
      "t": 159152.36200000008,
      "d": 471.3977708333405,
      "v": 125
    },
    {
      "midi": 28,
      "hit": false,
      "t": 159660.8360000001,
      "d": 918.960822916677,
      "v": 127
    },
    {
      "midi": 38,
      "hit": false,
      "t": 160677.7840000001,
      "d": 1927.9639166666602,
      "v": 104
    },
    {
      "midi": 31,
      "hit": false,
      "t": 162711.6800000001,
      "d": 458.1562604166684,
      "v": 121
    },
    {
      "midi": 30,
      "hit": false,
      "t": 163220.1540000001,
      "d": 471.3977708333405,
      "v": 125
    },
    {
      "midi": 28,
      "hit": false,
      "t": 163728.6280000001,
      "d": 918.960822916677,
      "v": 127
    },
    {
      "midi": 38,
      "hit": false,
      "t": 164745.57600000012,
      "d": 1927.9639166666602,
      "v": 104
    },
    {
      "midi": 59,
      "hit": false,
      "t": 166525.23500000004,
      "d": 752.1177916666784,
      "v": 1
    },
    {
      "midi": 31,
      "hit": false,
      "t": 166779.47200000013,
      "d": 458.1562604166684,
      "v": 111
    },
    {
      "midi": 57,
      "hit": false,
      "t": 167287.94600000005,
      "d": 492.5841875000042,
      "v": 1
    },
    {
      "midi": 30,
      "hit": false,
      "t": 167287.9460000001,
      "d": 471.3977708333405,
      "v": 115
    },
    {
      "midi": 55,
      "hit": false,
      "t": 167796.42000000007,
      "d": 492.5841875000042,
      "v": 1
    },
    {
      "midi": 33,
      "hit": false,
      "t": 167796.42000000013,
      "d": 1006.3547916666721,
      "v": 111
    },
    {
      "midi": 57,
      "hit": false,
      "t": 168304.8940000001,
      "d": 492.5841875000042,
      "v": 1
    },
    {
      "midi": 62,
      "hit": false,
      "t": 168813.368,
      "d": 243.64379166666185,
      "v": 113
    },
    {
      "midi": 86,
      "hit": false,
      "t": 168813.368,
      "d": 243.64379166666185,
      "v": 113
    },
    {
      "midi": 55,
      "hit": false,
      "t": 168813.3680000001,
      "d": 492.5841875000042,
      "v": 1
    },
    {
      "midi": 38,
      "hit": false,
      "t": 168813.36800000013,
      "d": 1927.9639166666602,
      "v": 104
    },
    {
      "midi": 57,
      "hit": false,
      "t": 169067.60499999998,
      "d": 251.58869791665347,
      "v": 105
    },
    {
      "midi": 81,
      "hit": false,
      "t": 169067.60499999998,
      "d": 251.58869791665347,
      "v": 105
    },
    {
      "midi": 66,
      "hit": false,
      "t": 169321.84199999998,
      "d": 214.51246875000652,
      "v": 111
    },
    {
      "midi": 90,
      "hit": false,
      "t": 169321.84199999998,
      "d": 214.51246875000652,
      "v": 111
    },
    {
      "midi": 54,
      "hit": false,
      "t": 169321.84200000012,
      "d": 503.17739583333605,
      "v": 1
    },
    {
      "midi": 57,
      "hit": false,
      "t": 169576.07899999997,
      "d": 246.2920937500021,
      "v": 104
    },
    {
      "midi": 81,
      "hit": false,
      "t": 169576.07899999997,
      "d": 246.2920937500021,
      "v": 104
    },
    {
      "midi": 62,
      "hit": false,
      "t": 169830.31599999996,
      "d": 230.40228124998976,
      "v": 109
    },
    {
      "midi": 86,
      "hit": false,
      "t": 169830.31599999996,
      "d": 230.40228124998976,
      "v": 109
    },
    {
      "midi": 57,
      "hit": false,
      "t": 170084.55299999996,
      "d": 264.8302083333256,
      "v": 101
    },
    {
      "midi": 81,
      "hit": false,
      "t": 170084.55299999996,
      "d": 264.8302083333256,
      "v": 101
    },
    {
      "midi": 66,
      "hit": false,
      "t": 170338.78999999995,
      "d": 169.49133333333884,
      "v": 107
    },
    {
      "midi": 90,
      "hit": false,
      "t": 170338.78999999995,
      "d": 169.49133333333884,
      "v": 107
    },
    {
      "midi": 57,
      "hit": false,
      "t": 170593.02699999994,
      "d": 233.05058333333,
      "v": 105
    },
    {
      "midi": 81,
      "hit": false,
      "t": 170593.02699999994,
      "d": 233.05058333333,
      "v": 105
    },
    {
      "midi": 62,
      "hit": false,
      "t": 170847.26399999994,
      "d": 238.34718750001048,
      "v": 107
    },
    {
      "midi": 86,
      "hit": false,
      "t": 170847.26399999994,
      "d": 238.34718750001048,
      "v": 107
    },
    {
      "midi": 31,
      "hit": false,
      "t": 170847.26400000014,
      "d": 458.1562604166684,
      "v": 121
    },
    {
      "midi": 59,
      "hit": false,
      "t": 171101.50099999996,
      "d": 243.64379166666185,
      "v": 103
    },
    {
      "midi": 83,
      "hit": false,
      "t": 171101.50099999996,
      "d": 243.64379166666185,
      "v": 103
    },
    {
      "midi": 67,
      "hit": false,
      "t": 171355.73799999995,
      "d": 248.94039583334234,
      "v": 107
    },
    {
      "midi": 91,
      "hit": false,
      "t": 171355.73799999995,
      "d": 248.94039583334234,
      "v": 107
    },
    {
      "midi": 30,
      "hit": false,
      "t": 171355.73800000013,
      "d": 471.3977708333405,
      "v": 125
    },
    {
      "midi": 59,
      "hit": false,
      "t": 171609.97499999998,
      "d": 293.9615312499809,
      "v": 105
    },
    {
      "midi": 83,
      "hit": false,
      "t": 171609.97499999998,
      "d": 293.9615312499809,
      "v": 105
    },
    {
      "midi": 62,
      "hit": false,
      "t": 171864.21199999997,
      "d": 243.64379166666185,
      "v": 108
    },
    {
      "midi": 86,
      "hit": false,
      "t": 171864.21199999997,
      "d": 243.64379166666185,
      "v": 108
    },
    {
      "midi": 28,
      "hit": false,
      "t": 171864.21200000015,
      "d": 918.960822916677,
      "v": 127
    },
    {
      "midi": 59,
      "hit": false,
      "t": 172118.44899999996,
      "d": 270.12681250000605,
      "v": 105
    },
    {
      "midi": 83,
      "hit": false,
      "t": 172118.44899999996,
      "d": 270.12681250000605,
      "v": 105
    },
    {
      "midi": 67,
      "hit": false,
      "t": 172372.68599999996,
      "d": 243.64379166669096,
      "v": 107
    },
    {
      "midi": 91,
      "hit": false,
      "t": 172372.68599999996,
      "d": 243.64379166669096,
      "v": 107
    },
    {
      "midi": 59,
      "hit": false,
      "t": 172626.92299999998,
      "d": 243.64379166666185,
      "v": 108
    },
    {
      "midi": 83,
      "hit": false,
      "t": 172626.92299999998,
      "d": 243.64379166666185,
      "v": 108
    },
    {
      "midi": 62,
      "hit": false,
      "t": 172881.15999999997,
      "d": 240.9954895833216,
      "v": 108
    },
    {
      "midi": 86,
      "hit": false,
      "t": 172881.15999999997,
      "d": 240.9954895833216,
      "v": 108
    },
    {
      "midi": 38,
      "hit": false,
      "t": 172881.16000000015,
      "d": 1927.9639166666602,
      "v": 104
    },
    {
      "midi": 57,
      "hit": false,
      "t": 173135.39699999997,
      "d": 222.45737499999814,
      "v": 105
    },
    {
      "midi": 81,
      "hit": false,
      "t": 173135.39699999997,
      "d": 222.45737499999814,
      "v": 105
    },
    {
      "midi": 66,
      "hit": false,
      "t": 173389.63399999996,
      "d": 217.16077083334676,
      "v": 108
    },
    {
      "midi": 90,
      "hit": false,
      "t": 173389.63399999996,
      "d": 217.16077083334676,
      "v": 108
    },
    {
      "midi": 57,
      "hit": false,
      "t": 173643.87099999998,
      "d": 288.66492708332953,
      "v": 107
    },
    {
      "midi": 81,
      "hit": false,
      "t": 173643.87099999998,
      "d": 288.66492708332953,
      "v": 107
    },
    {
      "midi": 62,
      "hit": false,
      "t": 173898.10799999998,
      "d": 225.10567708333838,
      "v": 107
    },
    {
      "midi": 86,
      "hit": false,
      "t": 173898.10799999998,
      "d": 225.10567708333838,
      "v": 107
    },
    {
      "midi": 57,
      "hit": false,
      "t": 174152.34499999997,
      "d": 256.88530208333395,
      "v": 103
    },
    {
      "midi": 81,
      "hit": false,
      "t": 174152.34499999997,
      "d": 256.88530208333395,
      "v": 103
    },
    {
      "midi": 66,
      "hit": false,
      "t": 174406.58199999997,
      "d": 201.27095833333442,
      "v": 107
    },
    {
      "midi": 90,
      "hit": false,
      "t": 174406.58199999997,
      "d": 201.27095833333442,
      "v": 107
    },
    {
      "midi": 57,
      "hit": false,
      "t": 174660.81899999996,
      "d": 272.7751145833172,
      "v": 107
    },
    {
      "midi": 81,
      "hit": false,
      "t": 174660.81899999996,
      "d": 272.7751145833172,
      "v": 107
    },
    {
      "midi": 62,
      "hit": false,
      "t": 174915.05599999995,
      "d": 254.2369999999937,
      "v": 108
    },
    {
      "midi": 86,
      "hit": false,
      "t": 174915.05599999995,
      "d": 254.2369999999937,
      "v": 108
    },
    {
      "midi": 31,
      "hit": false,
      "t": 174915.05600000016,
      "d": 458.1562604166684,
      "v": 121
    },
    {
      "midi": 59,
      "hit": false,
      "t": 175169.29299999995,
      "d": 254.2369999999937,
      "v": 102
    },
    {
      "midi": 83,
      "hit": false,
      "t": 175169.29299999995,
      "d": 254.2369999999937,
      "v": 102
    },
    {
      "midi": 67,
      "hit": false,
      "t": 175423.52999999994,
      "d": 246.2920937500021,
      "v": 107
    },
    {
      "midi": 91,
      "hit": false,
      "t": 175423.52999999994,
      "d": 246.2920937500021,
      "v": 107
    },
    {
      "midi": 30,
      "hit": false,
      "t": 175423.53000000014,
      "d": 471.3977708333405,
      "v": 125
    },
    {
      "midi": 59,
      "hit": false,
      "t": 175677.76699999993,
      "d": 278.0717187499977,
      "v": 103
    },
    {
      "midi": 83,
      "hit": false,
      "t": 175677.76699999993,
      "d": 278.0717187499977,
      "v": 103
    },
    {
      "midi": 62,
      "hit": false,
      "t": 175932.00399999993,
      "d": 251.58869791668258,
      "v": 107
    },
    {
      "midi": 86,
      "hit": false,
      "t": 175932.00399999993,
      "d": 251.58869791668258,
      "v": 107
    },
    {
      "midi": 28,
      "hit": false,
      "t": 175932.00400000016,
      "d": 918.960822916677,
      "v": 127
    },
    {
      "midi": 59,
      "hit": false,
      "t": 176186.24099999995,
      "d": 256.88530208333395,
      "v": 107
    },
    {
      "midi": 83,
      "hit": false,
      "t": 176186.24099999995,
      "d": 256.88530208333395,
      "v": 107
    },
    {
      "midi": 67,
      "hit": false,
      "t": 176440.47799999994,
      "d": 256.88530208333395,
      "v": 106
    },
    {
      "midi": 91,
      "hit": false,
      "t": 176440.47799999994,
      "d": 256.88530208333395,
      "v": 106
    },
    {
      "midi": 59,
      "hit": false,
      "t": 176694.71499999994,
      "d": 246.2920937500021,
      "v": 108
    },
    {
      "midi": 83,
      "hit": false,
      "t": 176694.71499999994,
      "d": 246.2920937500021,
      "v": 108
    },
    {
      "midi": 62,
      "hit": false,
      "t": 176948.95199999993,
      "d": 262.18190624998533,
      "v": 108
    },
    {
      "midi": 86,
      "hit": false,
      "t": 176948.95199999993,
      "d": 262.18190624998533,
      "v": 108
    },
    {
      "midi": 38,
      "hit": false,
      "t": 176948.95200000016,
      "d": 1927.9639166666602,
      "v": 104
    },
    {
      "midi": 57,
      "hit": false,
      "t": 177203.18899999993,
      "d": 233.05058333333,
      "v": 107
    },
    {
      "midi": 81,
      "hit": false,
      "t": 177203.18899999993,
      "d": 233.05058333333,
      "v": 107
    },
    {
      "midi": 66,
      "hit": false,
      "t": 177457.42599999992,
      "d": 209.21586458332604,
      "v": 108
    },
    {
      "midi": 90,
      "hit": false,
      "t": 177457.42599999992,
      "d": 209.21586458332604,
      "v": 108
    },
    {
      "midi": 57,
      "hit": false,
      "t": 177711.6629999999,
      "d": 270.12681250000605,
      "v": 105
    },
    {
      "midi": 81,
      "hit": false,
      "t": 177711.6629999999,
      "d": 270.12681250000605,
      "v": 105
    },
    {
      "midi": 62,
      "hit": false,
      "t": 177965.8999999999,
      "d": 251.58869791668258,
      "v": 105
    },
    {
      "midi": 86,
      "hit": false,
      "t": 177965.8999999999,
      "d": 251.58869791668258,
      "v": 105
    },
    {
      "midi": 57,
      "hit": false,
      "t": 178220.13699999993,
      "d": 278.0717187499977,
      "v": 104
    },
    {
      "midi": 81,
      "hit": false,
      "t": 178220.13699999993,
      "d": 278.0717187499977,
      "v": 104
    },
    {
      "midi": 66,
      "hit": false,
      "t": 178474.37399999992,
      "d": 227.75397916667862,
      "v": 105
    },
    {
      "midi": 90,
      "hit": false,
      "t": 178474.37399999992,
      "d": 227.75397916667862,
      "v": 105
    },
    {
      "midi": 57,
      "hit": false,
      "t": 178728.61099999995,
      "d": 272.7751145833172,
      "v": 105
    },
    {
      "midi": 81,
      "hit": false,
      "t": 178728.61099999995,
      "d": 272.7751145833172,
      "v": 105
    },
    {
      "midi": 59,
      "hit": false,
      "t": 178728.61100000012,
      "d": 243.64379166666185,
      "v": 1
    },
    {
      "midi": 67,
      "hit": false,
      "t": 178728.61100000012,
      "d": 243.64379166666185,
      "v": 1
    },
    {
      "midi": 62,
      "hit": false,
      "t": 178982.84799999994,
      "d": 256.88530208333395,
      "v": 107
    },
    {
      "midi": 86,
      "hit": false,
      "t": 178982.84799999994,
      "d": 256.88530208333395,
      "v": 107
    },
    {
      "midi": 59,
      "hit": false,
      "t": 178982.84800000011,
      "d": 497.88079166665557,
      "v": 1
    },
    {
      "midi": 62,
      "hit": false,
      "t": 178982.84800000011,
      "d": 497.88079166665557,
      "v": 1
    },
    {
      "midi": 31,
      "hit": false,
      "t": 178982.84800000017,
      "d": 458.1562604166684,
      "v": 111
    },
    {
      "midi": 59,
      "hit": false,
      "t": 179237.08499999993,
      "d": 283.36832291664905,
      "v": 101
    },
    {
      "midi": 83,
      "hit": false,
      "t": 179237.08499999993,
      "d": 283.36832291664905,
      "v": 101
    },
    {
      "midi": 67,
      "hit": false,
      "t": 179491.32199999993,
      "d": 288.66492708332953,
      "v": 107
    },
    {
      "midi": 91,
      "hit": false,
      "t": 179491.32199999993,
      "d": 288.66492708332953,
      "v": 107
    },
    {
      "midi": 57,
      "hit": false,
      "t": 179491.3220000001,
      "d": 497.88079166665557,
      "v": 1
    },
    {
      "midi": 62,
      "hit": false,
      "t": 179491.3220000001,
      "d": 497.88079166665557,
      "v": 1
    },
    {
      "midi": 30,
      "hit": false,
      "t": 179491.32200000016,
      "d": 471.3977708333405,
      "v": 115
    },
    {
      "midi": 59,
      "hit": false,
      "t": 179745.55899999992,
      "d": 270.12681250000605,
      "v": 106
    },
    {
      "midi": 83,
      "hit": false,
      "t": 179745.55899999992,
      "d": 270.12681250000605,
      "v": 106
    },
    {
      "midi": 61,
      "hit": false,
      "t": 179999.79599999991,
      "d": 264.8302083333547,
      "v": 109
    },
    {
      "midi": 85,
      "hit": false,
      "t": 179999.79599999991,
      "d": 264.8302083333547,
      "v": 109
    },
    {
      "midi": 55,
      "hit": false,
      "t": 179999.7960000001,
      "d": 497.88079166665557,
      "v": 1
    },
    {
      "midi": 61,
      "hit": false,
      "t": 179999.7960000001,
      "d": 497.88079166665557,
      "v": 1
    },
    {
      "midi": 33,
      "hit": false,
      "t": 179999.79600000018,
      "d": 1006.3547916666721,
      "v": 111
    },
    {
      "midi": 57,
      "hit": false,
      "t": 180254.03299999994,
      "d": 307.203041666653,
      "v": 105
    },
    {
      "midi": 81,
      "hit": false,
      "t": 180254.03299999994,
      "d": 307.203041666653,
      "v": 105
    },
    {
      "midi": 64,
      "hit": false,
      "t": 180508.26999999993,
      "d": 225.10567708333838,
      "v": 105
    },
    {
      "midi": 88,
      "hit": false,
      "t": 180508.26999999993,
      "d": 225.10567708333838,
      "v": 105
    },
    {
      "midi": 57,
      "hit": false,
      "t": 180508.27000000008,
      "d": 497.88079166665557,
      "v": 1
    },
    {
      "midi": 61,
      "hit": false,
      "t": 180508.27000000008,
      "d": 497.88079166665557,
      "v": 1
    },
    {
      "midi": 57,
      "hit": false,
      "t": 180762.50699999993,
      "d": 198.62265624999418,
      "v": 104
    },
    {
      "midi": 81,
      "hit": false,
      "t": 180762.50699999993,
      "d": 198.62265624999418,
      "v": 104
    },
    {
      "midi": 62,
      "hit": false,
      "t": 181016.74399999992,
      "d": 243.64379166666185,
      "v": 105
    },
    {
      "midi": 86,
      "hit": false,
      "t": 181016.74399999992,
      "d": 243.64379166666185,
      "v": 105
    },
    {
      "midi": 55,
      "hit": false,
      "t": 181016.74400000006,
      "d": 497.88079166665557,
      "v": 1
    },
    {
      "midi": 57,
      "hit": false,
      "t": 181016.74400000006,
      "d": 497.88079166665557,
      "v": 1
    },
    {
      "midi": 38,
      "hit": false,
      "t": 181016.74400000018,
      "d": 1896.1842916666646,
      "v": 117
    },
    {
      "midi": 62,
      "hit": false,
      "t": 181525.2179999999,
      "d": 1514.8287916666595,
      "v": 112
    },
    {
      "midi": 86,
      "hit": false,
      "t": 181525.2179999999,
      "d": 1514.8287916666595,
      "v": 112
    },
    {
      "midi": 54,
      "hit": false,
      "t": 181525.21800000005,
      "d": 1520.12539583334,
      "v": 1
    },
    {
      "midi": 57,
      "hit": false,
      "t": 181525.21800000005,
      "d": 1549.2567187499953,
      "v": 1
    }
  ]
}