{
  "jsonPath": "Rock/Pub Rock/Rachel Sweet/sad-song.json",
  "path": "Rock\\Pub Rock\\Rachel Sweet\\Sad Song.mid",
  "name": "Sad Song",
  "difficulty": "Advanced",
  "bpm": 126.00039060121087,
  "notes": [
    {
      "midi": 57,
      "hit": false,
      "t": 1904.7559999999999,
      "d": 1884.9147916666666,
      "v": 98
    },
    {
      "midi": 62,
      "hit": false,
      "t": 1904.7559999999999,
      "d": 1884.9147916666666,
      "v": 98
    },
    {
      "midi": 66,
      "hit": false,
      "t": 1904.7559999999999,
      "d": 1884.9147916666666,
      "v": 98
    },
    {
      "midi": 64,
      "hit": false,
      "t": 3809.5119999999997,
      "d": 1765.8675416666665,
      "v": 98
    },
    {
      "midi": 59,
      "hit": false,
      "t": 3809.5119999999997,
      "d": 1884.9147916666661,
      "v": 98
    },
    {
      "midi": 68,
      "hit": false,
      "t": 3809.5119999999997,
      "d": 1884.9147916666661,
      "v": 98
    },
    {
      "midi": 57,
      "hit": false,
      "t": 5714.267999999999,
      "d": 1884.914791666667,
      "v": 94
    },
    {
      "midi": 61,
      "hit": false,
      "t": 5714.267999999999,
      "d": 1884.914791666667,
      "v": 87
    },
    {
      "midi": 64,
      "hit": false,
      "t": 5714.267999999999,
      "d": 1884.914791666667,
      "v": 98
    },
    {
      "midi": 69,
      "hit": false,
      "t": 5714.267999999999,
      "d": 1884.914791666667,
      "v": 98
    },
    {
      "midi": 59,
      "hit": false,
      "t": 7619.023999999999,
      "d": 1884.9147916666661,
      "v": 98
    },
    {
      "midi": 62,
      "hit": false,
      "t": 7619.023999999999,
      "d": 1884.9147916666661,
      "v": 98
    },
    {
      "midi": 66,
      "hit": false,
      "t": 7619.023999999999,
      "d": 1884.9147916666661,
      "v": 98
    },
    {
      "midi": 71,
      "hit": false,
      "t": 7619.023999999999,
      "d": 1884.9147916666661,
      "v": 98
    },
    {
      "midi": 61,
      "hit": false,
      "t": 9523.779999999999,
      "d": 1626.9790833333336,
      "v": 98
    },
    {
      "midi": 66,
      "hit": false,
      "t": 9523.779999999999,
      "d": 1626.9790833333336,
      "v": 98
    },
    {
      "midi": 57,
      "hit": false,
      "t": 9523.779999999999,
      "d": 1845.2323749999996,
      "v": 94
    },
    {
      "midi": 73,
      "hit": false,
      "t": 9523.779999999999,
      "d": 1845.2323749999996,
      "v": 98
    },
    {
      "midi": 74,
      "hit": false,
      "t": 11428.535999999998,
      "d": 932.5367916666673,
      "v": 98
    },
    {
      "midi": 56,
      "hit": false,
      "t": 11428.535999999998,
      "d": 1884.914791666668,
      "v": 57
    },
    {
      "midi": 59,
      "hit": false,
      "t": 11428.535999999998,
      "d": 1884.914791666668,
      "v": 90
    },
    {
      "midi": 62,
      "hit": false,
      "t": 11428.535999999998,
      "d": 1884.914791666668,
      "v": 82
    },
    {
      "midi": 66,
      "hit": false,
      "t": 11428.535999999998,
      "d": 1884.914791666668,
      "v": 94
    },
    {
      "midi": 71,
      "hit": false,
      "t": 12380.913999999999,
      "d": 932.5367916666673,
      "v": 98
    },
    {
      "midi": 68,
      "hit": false,
      "t": 13333.292,
      "d": 1408.7257916666658,
      "v": 98
    },
    {
      "midi": 62,
      "hit": false,
      "t": 13333.292,
      "d": 1884.9147916666643,
      "v": 94
    },
    {
      "midi": 66,
      "hit": false,
      "t": 13333.292,
      "d": 2837.292791666665,
      "v": 98
    },
    {
      "midi": 69,
      "hit": false,
      "t": 14761.858999999999,
      "d": 218.25329166666597,
      "v": 98
    },
    {
      "midi": 71,
      "hit": false,
      "t": 14999.953499999998,
      "d": 218.25329166666597,
      "v": 98
    },
    {
      "midi": 69,
      "hit": false,
      "t": 15238.047999999997,
      "d": 932.5367916666673,
      "v": 98
    },
    {
      "midi": 61,
      "hit": false,
      "t": 15238.047999999997,
      "d": 1884.914791666668,
      "v": 98
    },
    {
      "midi": 65,
      "hit": false,
      "t": 16190.425999999998,
      "d": 892.8543750000008,
      "v": 87
    },
    {
      "midi": 68,
      "hit": false,
      "t": 16190.425999999998,
      "d": 892.8543750000008,
      "v": 98
    },
    {
      "midi": 66,
      "hit": false,
      "t": 17142.804,
      "d": 1170.6312916666684,
      "v": 90
    },
    {
      "midi": 61,
      "hit": false,
      "t": 17142.804,
      "d": 1646.8202916666705,
      "v": 90
    },
    {
      "midi": 57,
      "hit": false,
      "t": 17142.804,
      "d": 2837.292791666674,
      "v": 94
    },
    {
      "midi": 64,
      "hit": false,
      "t": 18333.276500000004,
      "d": 753.9659166666679,
      "v": 101
    },
    {
      "midi": 62,
      "hit": false,
      "t": 18809.465500000006,
      "d": 515.871416666665,
      "v": 101
    },
    {
      "midi": 61,
      "hit": false,
      "t": 19285.654500000004,
      "d": 257.93570833333433,
      "v": 86
    },
    {
      "midi": 62,
      "hit": false,
      "t": 19523.749000000003,
      "d": 218.2532916666678,
      "v": 96
    },
    {
      "midi": 64,
      "hit": false,
      "t": 19761.843500000006,
      "d": 476.1890000000021,
      "v": 101
    },
    {
      "midi": 56,
      "hit": false,
      "t": 19999.93800000001,
      "d": 932.5367916666655,
      "v": 49
    },
    {
      "midi": 62,
      "hit": false,
      "t": 20476.127000000008,
      "d": 376.98295833333395,
      "v": 91
    },
    {
      "midi": 57,
      "hit": false,
      "t": 20952.31600000001,
      "d": 932.5367916666655,
      "v": 108
    },
    {
      "midi": 61,
      "hit": false,
      "t": 20952.31600000001,
      "d": 932.5367916666655,
      "v": 108
    },
    {
      "midi": 66,
      "hit": false,
      "t": 21428.50500000001,
      "d": 456.34779166666704,
      "v": 104
    },
    {
      "midi": 59,
      "hit": false,
      "t": 21904.69400000001,
      "d": 892.854374999999,
      "v": 108
    },
    {
      "midi": 64,
      "hit": false,
      "t": 21904.69400000001,
      "d": 892.854374999999,
      "v": 108
    },
    {
      "midi": 56,
      "hit": false,
      "t": 21904.69400000001,
      "d": 932.5367916666655,
      "v": 78
    },
    {
      "midi": 69,
      "hit": false,
      "t": 22380.88300000001,
      "d": 376.98295833333395,
      "v": 108
    },
    {
      "midi": 71,
      "hit": false,
      "t": 22857.07200000001,
      "d": 456.34779166666704,
      "v": 105
    },
    {
      "midi": 57,
      "hit": false,
      "t": 22857.07200000001,
      "d": 654.7598750000034,
      "v": 68
    },
    {
      "midi": 62,
      "hit": false,
      "t": 22857.07200000001,
      "d": 813.4895416666695,
      "v": 73
    },
    {
      "midi": 54,
      "hit": false,
      "t": 22857.07200000001,
      "d": 932.5367916666692,
      "v": 68
    },
    {
      "midi": 60,
      "hit": false,
      "t": 22857.07200000001,
      "d": 932.5367916666692,
      "v": 68
    },
    {
      "midi": 69,
      "hit": false,
      "t": 23333.261000000013,
      "d": 456.34779166666704,
      "v": 108
    },
    {
      "midi": 66,
      "hit": false,
      "t": 23809.450000000015,
      "d": 515.871416666665,
      "v": 73
    },
    {
      "midi": 56,
      "hit": false,
      "t": 23809.450000000015,
      "d": 833.3307499999974,
      "v": 73
    },
    {
      "midi": 68,
      "hit": false,
      "t": 23809.450000000015,
      "d": 833.3307499999974,
      "v": 96
    },
    {
      "midi": 61,
      "hit": false,
      "t": 23809.450000000015,
      "d": 932.5367916666655,
      "v": 68
    },
    {
      "midi": 65,
      "hit": false,
      "t": 24285.639000000014,
      "d": 357.14174999999886,
      "v": 62
    },
    {
      "midi": 61,
      "hit": false,
      "t": 24761.828000000016,
      "d": 357.14174999999886,
      "v": 108
    },
    {
      "midi": 57,
      "hit": false,
      "t": 24761.828000000016,
      "d": 714.2834999999977,
      "v": 92
    },
    {
      "midi": 66,
      "hit": false,
      "t": 25238.017000000014,
      "d": 238.09449999999924,
      "v": 91
    },
    {
      "midi": 56,
      "hit": false,
      "t": 25476.111500000014,
      "d": 714.2835000000014,
      "v": 87
    },
    {
      "midi": 60,
      "hit": false,
      "t": 25476.111500000014,
      "d": 714.2835000000014,
      "v": 87
    },
    {
      "midi": 66,
      "hit": false,
      "t": 26190.395000000015,
      "d": 376.98295833333395,
      "v": 108
    },
    {
      "midi": 60,
      "hit": false,
      "t": 26666.584000000017,
      "d": 972.2192083333357,
      "v": 92
    },
    {
      "midi": 56,
      "hit": false,
      "t": 26666.584000000017,
      "d": 1884.9147916666698,
      "v": 81
    },
    {
      "midi": 66,
      "hit": false,
      "t": 26904.678500000016,
      "d": 99.20604166666817,
      "v": 85
    },
    {
      "midi": 65,
      "hit": false,
      "t": 27380.86750000002,
      "d": 1170.6312916666684,
      "v": 93
    },
    {
      "midi": 59,
      "hit": false,
      "t": 27618.962000000018,
      "d": 932.5367916666692,
      "v": 101
    },
    {
      "midi": 57,
      "hit": false,
      "t": 28571.340000000022,
      "d": 1011.9016249999986,
      "v": 91
    },
    {
      "midi": 61,
      "hit": false,
      "t": 28571.340000000022,
      "d": 2916.6576250000035,
      "v": 86
    },
    {
      "midi": 66,
      "hit": false,
      "t": 28571.340000000022,
      "d": 3095.2285000000047,
      "v": 64
    },
    {
      "midi": 59,
      "hit": false,
      "t": 29761.812500000022,
      "d": 575.3950416666667,
      "v": 105
    },
    {
      "midi": 57,
      "hit": false,
      "t": 30476.096000000023,
      "d": 932.5367916666655,
      "v": 85
    },
    {
      "midi": 56,
      "hit": false,
      "t": 31428.474000000024,
      "d": 952.3780000000006,
      "v": 101
    },
    {
      "midi": 66,
      "hit": false,
      "t": 31666.568500000027,
      "d": 158.72966666666616,
      "v": 62
    },
    {
      "midi": 65,
      "hit": false,
      "t": 31904.663000000026,
      "d": 476.1889999999985,
      "v": 52
    },
    {
      "midi": 61,
      "hit": false,
      "t": 32142.757500000025,
      "d": 238.09449999999924,
      "v": 85
    },
    {
      "midi": 66,
      "hit": false,
      "t": 32380.852000000024,
      "d": 1170.6312916666684,
      "v": 101
    },
    {
      "midi": 57,
      "hit": false,
      "t": 32380.852000000024,
      "d": 2837.2927916666777,
      "v": 105
    },
    {
      "midi": 64,
      "hit": false,
      "t": 33571.324500000024,
      "d": 753.9659166666679,
      "v": 101
    },
    {
      "midi": 62,
      "hit": false,
      "t": 34047.51350000002,
      "d": 515.8714166666759,
      "v": 101
    },
    {
      "midi": 61,
      "hit": false,
      "t": 34523.70250000003,
      "d": 257.93570833333797,
      "v": 86
    },
    {
      "midi": 62,
      "hit": false,
      "t": 34761.797000000035,
      "d": 238.09449999999924,
      "v": 96
    },
    {
      "midi": 64,
      "hit": false,
      "t": 34999.891500000034,
      "d": 476.1889999999985,
      "v": 101
    },
    {
      "midi": 56,
      "hit": false,
      "t": 35237.98600000003,
      "d": 932.5367916666655,
      "v": 49
    },
    {
      "midi": 62,
      "hit": false,
      "t": 35714.17500000003,
      "d": 376.98295833333395,
      "v": 91
    },
    {
      "midi": 57,
      "hit": false,
      "t": 36190.36400000003,
      "d": 932.5367916666655,
      "v": 108
    },
    {
      "midi": 61,
      "hit": false,
      "t": 36190.36400000003,
      "d": 932.5367916666655,
      "v": 108
    },
    {
      "midi": 66,
      "hit": false,
      "t": 36666.55300000003,
      "d": 456.34779166666704,
      "v": 104
    },
    {
      "midi": 59,
      "hit": false,
      "t": 37142.74200000003,
      "d": 892.8543750000026,
      "v": 108
    },
    {
      "midi": 64,
      "hit": false,
      "t": 37142.74200000003,
      "d": 892.8543750000026,
      "v": 108
    },
    {
      "midi": 56,
      "hit": false,
      "t": 37142.74200000003,
      "d": 932.5367916666728,
      "v": 78
    },
    {
      "midi": 69,
      "hit": false,
      "t": 37618.931000000026,
      "d": 376.98295833333395,
      "v": 108
    },
    {
      "midi": 71,
      "hit": false,
      "t": 38095.12000000003,
      "d": 456.34779166666704,
      "v": 105
    },
    {
      "midi": 57,
      "hit": false,
      "t": 38095.12000000003,
      "d": 634.9186666666646,
      "v": 68
    },
    {
      "midi": 62,
      "hit": false,
      "t": 38095.12000000003,
      "d": 813.4895416666623,
      "v": 73
    },
    {
      "midi": 54,
      "hit": false,
      "t": 38095.12000000003,
      "d": 932.5367916666655,
      "v": 68
    },
    {
      "midi": 60,
      "hit": false,
      "t": 38095.12000000003,
      "d": 932.5367916666655,
      "v": 68
    },
    {
      "midi": 69,
      "hit": false,
      "t": 38571.30900000003,
      "d": 456.34779166666704,
      "v": 108
    },
    {
      "midi": 66,
      "hit": false,
      "t": 39047.49800000003,
      "d": 515.8714166666687,
      "v": 73
    },
    {
      "midi": 56,
      "hit": false,
      "t": 39047.49800000003,
      "d": 833.330750000001,
      "v": 73
    },
    {
      "midi": 68,
      "hit": false,
      "t": 39047.49800000003,
      "d": 833.330750000001,
      "v": 96
    },
    {
      "midi": 61,
      "hit": false,
      "t": 39047.49800000003,
      "d": 932.5367916666655,
      "v": 68
    },
    {
      "midi": 65,
      "hit": false,
      "t": 39523.68700000003,
      "d": 357.1417500000025,
      "v": 62
    },
    {
      "midi": 54,
      "hit": false,
      "t": 40237.970500000025,
      "d": 119.04725000000326,
      "v": 82
    },
    {
      "midi": 57,
      "hit": false,
      "t": 40237.970500000025,
      "d": 119.04725000000326,
      "v": 68
    },
    {
      "midi": 64,
      "hit": false,
      "t": 40237.970500000025,
      "d": 119.04725000000326,
      "v": 108
    },
    {
      "midi": 54,
      "hit": false,
      "t": 40714.15950000003,
      "d": 1091.2664583333317,
      "v": 62
    },
    {
      "midi": 57,
      "hit": false,
      "t": 40714.15950000003,
      "d": 1091.2664583333317,
      "v": 108
    },
    {
      "midi": 63,
      "hit": false,
      "t": 40714.15950000003,
      "d": 1130.9488750000019,
      "v": 101
    },
    {
      "midi": 60,
      "hit": false,
      "t": 42142.72650000003,
      "d": 337.3005416666638,
      "v": 108
    },
    {
      "midi": 66,
      "hit": false,
      "t": 42142.72650000003,
      "d": 456.34779166666704,
      "v": 105
    },
    {
      "midi": 69,
      "hit": false,
      "t": 42142.72650000003,
      "d": 456.34779166666704,
      "v": 108
    },
    {
      "midi": 59,
      "hit": false,
      "t": 42618.91550000003,
      "d": 1170.6312916666648,
      "v": 69
    },
    {
      "midi": 65,
      "hit": false,
      "t": 42618.91550000003,
      "d": 1170.6312916666648,
      "v": 69
    },
    {
      "midi": 68,
      "hit": false,
      "t": 42618.91550000003,
      "d": 1210.313708333335,
      "v": 42
    },
    {
      "midi": 56,
      "hit": false,
      "t": 44285.577000000034,
      "d": 198.41208333333634,
      "v": 108
    },
    {
      "midi": 64,
      "hit": false,
      "t": 44285.577000000034,
      "d": 198.41208333333634,
      "v": 108
    },
    {
      "midi": 59,
      "hit": false,
      "t": 44285.577000000034,
      "d": 277.7769166666767,
      "v": 108
    },
    {
      "midi": 57,
      "hit": false,
      "t": 44523.67150000004,
      "d": 79.36483333334036,
      "v": 108
    },
    {
      "midi": 61,
      "hit": false,
      "t": 44523.67150000004,
      "d": 138.888458333342,
      "v": 91
    },
    {
      "midi": 66,
      "hit": false,
      "t": 44523.67150000004,
      "d": 138.888458333342,
      "v": 108
    },
    {
      "midi": 54,
      "hit": false,
      "t": 44999.860500000046,
      "d": 178.5708749999976,
      "v": 108
    },
    {
      "midi": 68,
      "hit": false,
      "t": 45237.955000000045,
      "d": 119.04725000000326,
      "v": 108
    },
    {
      "midi": 64,
      "hit": false,
      "t": 45237.955000000045,
      "d": 238.09450000000652,
      "v": 108
    },
    {
      "midi": 71,
      "hit": false,
      "t": 45237.955000000045,
      "d": 297.61812500000815,
      "v": 108
    },
    {
      "midi": 66,
      "hit": false,
      "t": 45476.04950000005,
      "d": 99.20604166667181,
      "v": 101
    },
    {
      "midi": 69,
      "hit": false,
      "t": 45476.04950000005,
      "d": 99.20604166667181,
      "v": 105
    },
    {
      "midi": 73,
      "hit": false,
      "t": 45476.04950000005,
      "d": 99.20604166667181,
      "v": 108
    },
    {
      "midi": 54,
      "hit": false,
      "t": 45952.23850000006,
      "d": 178.5708749999976,
      "v": 108
    },
    {
      "midi": 68,
      "hit": false,
      "t": 46190.33300000006,
      "d": 138.8884583333347,
      "v": 108
    },
    {
      "midi": 76,
      "hit": false,
      "t": 46190.33300000006,
      "d": 198.41208333333634,
      "v": 108
    },
    {
      "midi": 71,
      "hit": false,
      "t": 46190.33300000006,
      "d": 277.7769166666767,
      "v": 101
    },
    {
      "midi": 69,
      "hit": false,
      "t": 46428.42750000006,
      "d": 99.20604166667181,
      "v": 108
    },
    {
      "midi": 73,
      "hit": false,
      "t": 46428.42750000006,
      "d": 99.20604166667181,
      "v": 101
    },
    {
      "midi": 78,
      "hit": false,
      "t": 46428.42750000006,
      "d": 99.20604166667181,
      "v": 108
    },
    {
      "midi": 54,
      "hit": false,
      "t": 46904.61650000007,
      "d": 238.09449999999924,
      "v": 108
    },
    {
      "midi": 56,
      "hit": false,
      "t": 47142.71100000007,
      "d": 416.66537499999686,
      "v": 108
    },
    {
      "midi": 64,
      "hit": false,
      "t": 47142.71100000007,
      "d": 416.66537499999686,
      "v": 108
    },
    {
      "midi": 71,
      "hit": false,
      "t": 47142.71100000007,
      "d": 416.66537499999686,
      "v": 108
    },
    {
      "midi": 64,
      "hit": false,
      "t": 47618.90000000007,
      "d": 892.8543750000026,
      "v": 108
    },
    {
      "midi": 57,
      "hit": false,
      "t": 47618.90000000007,
      "d": 932.5367916666728,
      "v": 108
    },
    {
      "midi": 73,
      "hit": false,
      "t": 47618.90000000007,
      "d": 932.5367916666728,
      "v": 108
    },
    {
      "midi": 56,
      "hit": false,
      "t": 48571.27800000007,
      "d": 932.5367916666655,
      "v": 68
    },
    {
      "midi": 59,
      "hit": false,
      "t": 48571.27800000007,
      "d": 932.5367916666655,
      "v": 101
    },
    {
      "midi": 61,
      "hit": false,
      "t": 48571.27800000007,
      "d": 932.5367916666655,
      "v": 86
    },
    {
      "midi": 64,
      "hit": false,
      "t": 48571.27800000007,
      "d": 932.5367916666655,
      "v": 108
    },
    {
      "midi": 57,
      "hit": false,
      "t": 49523.65600000007,
      "d": 853.1719583333324,
      "v": 101
    },
    {
      "midi": 62,
      "hit": false,
      "t": 49523.65600000007,
      "d": 892.8543750000026,
      "v": 108
    },
    {
      "midi": 54,
      "hit": false,
      "t": 49523.65600000007,
      "d": 932.5367916666728,
      "v": 86
    },
    {
      "midi": 62,
      "hit": false,
      "t": 50476.03400000007,
      "d": 892.8543750000026,
      "v": 108
    },
    {
      "midi": 57,
      "hit": false,
      "t": 50476.03400000007,
      "d": 932.5367916666728,
      "v": 108
    },
    {
      "midi": 66,
      "hit": false,
      "t": 50476.03400000007,
      "d": 932.5367916666728,
      "v": 108
    },
    {
      "midi": 61,
      "hit": false,
      "t": 51428.41200000008,
      "d": 853.1719583333324,
      "v": 108
    },
    {
      "midi": 57,
      "hit": false,
      "t": 51428.41200000008,
      "d": 932.5367916666655,
      "v": 105
    },
    {
      "midi": 64,
      "hit": false,
      "t": 51428.41200000008,
      "d": 932.5367916666655,
      "v": 108
    },
    {
      "midi": 61,
      "hit": false,
      "t": 52380.79000000007,
      "d": 873.0131666666639,
      "v": 108
    },
    {
      "midi": 59,
      "hit": false,
      "t": 52380.79000000007,
      "d": 932.5367916666655,
      "v": 105
    },
    {
      "midi": 65,
      "hit": false,
      "t": 52380.79000000007,
      "d": 932.5367916666655,
      "v": 108
    },
    {
      "midi": 57,
      "hit": false,
      "t": 53333.16800000007,
      "d": 873.0131666666639,
      "v": 86
    },
    {
      "midi": 61,
      "hit": false,
      "t": 53333.16800000007,
      "d": 873.0131666666639,
      "v": 108
    },
    {
      "midi": 66,
      "hit": false,
      "t": 53333.16800000007,
      "d": 932.5367916666655,
      "v": 108
    },
    {
      "midi": 57,
      "hit": false,
      "t": 54285.54600000007,
      "d": 873.0131666666639,
      "v": 96
    },
    {
      "midi": 61,
      "hit": false,
      "t": 54285.54600000007,
      "d": 873.0131666666639,
      "v": 91
    },
    {
      "midi": 64,
      "hit": false,
      "t": 54285.54600000007,
      "d": 873.0131666666639,
      "v": 108
    },
    {
      "midi": 67,
      "hit": false,
      "t": 54285.54600000007,
      "d": 873.0131666666639,
      "v": 108
    },
    {
      "midi": 57,
      "hit": false,
      "t": 55237.924000000065,
      "d": 833.330750000001,
      "v": 105
    },
    {
      "midi": 62,
      "hit": false,
      "t": 55237.924000000065,
      "d": 833.330750000001,
      "v": 108
    },
    {
      "midi": 66,
      "hit": false,
      "t": 55237.924000000065,
      "d": 932.5367916666655,
      "v": 108
    },
    {
      "midi": 57,
      "hit": false,
      "t": 56190.30200000006,
      "d": 853.1719583333324,
      "v": 78
    },
    {
      "midi": 61,
      "hit": false,
      "t": 56190.30200000006,
      "d": 932.5367916666655,
      "v": 86
    },
    {
      "midi": 64,
      "hit": false,
      "t": 56190.30200000006,
      "d": 932.5367916666655,
      "v": 108
    },
    {
      "midi": 54,
      "hit": false,
      "t": 57142.68000000006,
      "d": 932.5367916666655,
      "v": 91
    },
    {
      "midi": 57,
      "hit": false,
      "t": 57142.68000000006,
      "d": 932.5367916666655,
      "v": 91
    },
    {
      "midi": 62,
      "hit": false,
      "t": 57142.68000000006,
      "d": 932.5367916666655,
      "v": 108
    },
    {
      "midi": 62,
      "hit": false,
      "t": 58095.058000000055,
      "d": 932.5367916666655,
      "v": 108
    },
    {
      "midi": 66,
      "hit": false,
      "t": 58095.058000000055,
      "d": 932.5367916666655,
      "v": 72
    },
    {
      "midi": 69,
      "hit": false,
      "t": 58095.058000000055,
      "d": 932.5367916666655,
      "v": 72
    },
    {
      "midi": 54,
      "hit": false,
      "t": 59047.43600000005,
      "d": 178.5708749999976,
      "v": 108
    },
    {
      "midi": 61,
      "hit": false,
      "t": 59047.43600000005,
      "d": 456.34779166666704,
      "v": 108
    },
    {
      "midi": 64,
      "hit": false,
      "t": 59047.43600000005,
      "d": 456.34779166666704,
      "v": 72
    },
    {
      "midi": 68,
      "hit": false,
      "t": 59047.43600000005,
      "d": 456.34779166666704,
      "v": 72
    },
    {
      "midi": 56,
      "hit": false,
      "t": 59523.62500000005,
      "d": 198.41208333333634,
      "v": 101
    },
    {
      "midi": 64,
      "hit": false,
      "t": 59523.62500000005,
      "d": 198.41208333333634,
      "v": 91
    },
    {
      "midi": 59,
      "hit": false,
      "t": 59523.62500000005,
      "d": 277.7769166666767,
      "v": 86
    },
    {
      "midi": 57,
      "hit": false,
      "t": 59761.71950000006,
      "d": 79.36483333334036,
      "v": 86
    },
    {
      "midi": 61,
      "hit": false,
      "t": 59761.71950000006,
      "d": 138.888458333342,
      "v": 68
    },
    {
      "midi": 66,
      "hit": false,
      "t": 59761.71950000006,
      "d": 138.888458333342,
      "v": 91
    },
    {
      "midi": 54,
      "hit": false,
      "t": 60237.90850000006,
      "d": 178.5708749999976,
      "v": 108
    },
    {
      "midi": 68,
      "hit": false,
      "t": 60476.00300000006,
      "d": 119.04725000000326,
      "v": 86
    },
    {
      "midi": 64,
      "hit": false,
      "t": 60476.00300000006,
      "d": 238.09450000000652,
      "v": 105
    },
    {
      "midi": 71,
      "hit": false,
      "t": 60476.00300000006,
      "d": 297.61812500000815,
      "v": 86
    },
    {
      "midi": 66,
      "hit": false,
      "t": 60714.09750000007,
      "d": 99.20604166667181,
      "v": 78
    },
    {
      "midi": 69,
      "hit": false,
      "t": 60714.09750000007,
      "d": 99.20604166667181,
      "v": 82
    },
    {
      "midi": 73,
      "hit": false,
      "t": 60714.09750000007,
      "d": 99.20604166667181,
      "v": 91
    },
    {
      "midi": 54,
      "hit": false,
      "t": 61190.286500000075,
      "d": 178.5708749999976,
      "v": 108
    },
    {
      "midi": 68,
      "hit": false,
      "t": 61428.381000000074,
      "d": 138.8884583333347,
      "v": 101
    },
    {
      "midi": 76,
      "hit": false,
      "t": 61428.381000000074,
      "d": 198.41208333333634,
      "v": 91
    },
    {
      "midi": 71,
      "hit": false,
      "t": 61428.381000000074,
      "d": 277.7769166666767,
      "v": 78
    },
    {
      "midi": 69,
      "hit": false,
      "t": 61666.47550000008,
      "d": 99.20604166667181,
      "v": 96
    },
    {
      "midi": 73,
      "hit": false,
      "t": 61666.47550000008,
      "d": 99.20604166667181,
      "v": 78
    },
    {
      "midi": 78,
      "hit": false,
      "t": 61666.47550000008,
      "d": 99.20604166667181,
      "v": 86
    },
    {
      "midi": 54,
      "hit": false,
      "t": 62142.664500000086,
      "d": 238.09449999999924,
      "v": 108
    },
    {
      "midi": 56,
      "hit": false,
      "t": 62380.759000000086,
      "d": 416.66537499999686,
      "v": 108
    },
    {
      "midi": 64,
      "hit": false,
      "t": 62380.759000000086,
      "d": 416.66537499999686,
      "v": 108
    },
    {
      "midi": 71,
      "hit": false,
      "t": 62380.759000000086,
      "d": 416.66537499999686,
      "v": 108
    },
    {
      "midi": 76,
      "hit": false,
      "t": 62380.759000000086,
      "d": 416.66537499999686,
      "v": 97
    },
    {
      "midi": 64,
      "hit": false,
      "t": 62856.948000000084,
      "d": 892.8543750000026,
      "v": 108
    },
    {
      "midi": 57,
      "hit": false,
      "t": 62856.948000000084,
      "d": 932.5367916666728,
      "v": 108
    },
    {
      "midi": 73,
      "hit": false,
      "t": 62856.948000000084,
      "d": 932.5367916666728,
      "v": 108
    },
    {
      "midi": 56,
      "hit": false,
      "t": 63809.32600000009,
      "d": 932.5367916666655,
      "v": 68
    },
    {
      "midi": 59,
      "hit": false,
      "t": 63809.32600000009,
      "d": 932.5367916666655,
      "v": 101
    },
    {
      "midi": 61,
      "hit": false,
      "t": 63809.32600000009,
      "d": 932.5367916666655,
      "v": 86
    },
    {
      "midi": 64,
      "hit": false,
      "t": 63809.32600000009,
      "d": 932.5367916666655,
      "v": 108
    },
    {
      "midi": 57,
      "hit": false,
      "t": 64761.704000000085,
      "d": 853.1719583333324,
      "v": 101
    },
    {
      "midi": 62,
      "hit": false,
      "t": 64761.704000000085,
      "d": 892.8543749999953,
      "v": 108
    },
    {
      "midi": 54,
      "hit": false,
      "t": 64761.704000000085,
      "d": 932.5367916666582,
      "v": 86
    },
    {
      "midi": 62,
      "hit": false,
      "t": 65714.08200000008,
      "d": 892.8543749999953,
      "v": 108
    },
    {
      "midi": 57,
      "hit": false,
      "t": 65714.08200000008,
      "d": 932.5367916666582,
      "v": 108
    },
    {
      "midi": 66,
      "hit": false,
      "t": 65714.08200000008,
      "d": 932.5367916666582,
      "v": 108
    },
    {
      "midi": 61,
      "hit": false,
      "t": 66666.46000000008,
      "d": 853.1719583333324,
      "v": 108
    },
    {
      "midi": 57,
      "hit": false,
      "t": 66666.46000000008,
      "d": 932.5367916666728,
      "v": 105
    },
    {
      "midi": 64,
      "hit": false,
      "t": 66666.46000000008,
      "d": 932.5367916666728,
      "v": 108
    },
    {
      "midi": 61,
      "hit": false,
      "t": 67618.83800000009,
      "d": 873.0131666666712,
      "v": 108
    },
    {
      "midi": 59,
      "hit": false,
      "t": 67618.83800000009,
      "d": 932.5367916666728,
      "v": 105
    },
    {
      "midi": 65,
      "hit": false,
      "t": 67618.83800000009,
      "d": 932.5367916666728,
      "v": 108
    },
    {
      "midi": 57,
      "hit": false,
      "t": 68571.2160000001,
      "d": 873.0131666666712,
      "v": 86
    },
    {
      "midi": 61,
      "hit": false,
      "t": 68571.2160000001,
      "d": 873.0131666666712,
      "v": 108
    },
    {
      "midi": 66,
      "hit": false,
      "t": 68571.2160000001,
      "d": 932.5367916666728,
      "v": 108
    },
    {
      "midi": 57,
      "hit": false,
      "t": 69523.59400000011,
      "d": 873.0131666666712,
      "v": 96
    },
    {
      "midi": 61,
      "hit": false,
      "t": 69523.59400000011,
      "d": 873.0131666666712,
      "v": 91
    },
    {
      "midi": 64,
      "hit": false,
      "t": 69523.59400000011,
      "d": 873.0131666666712,
      "v": 108
    },
    {
      "midi": 67,
      "hit": false,
      "t": 69523.59400000011,
      "d": 873.0131666666712,
      "v": 108
    },
    {
      "midi": 57,
      "hit": false,
      "t": 70475.97200000013,
      "d": 833.3307499999937,
      "v": 105
    },
    {
      "midi": 62,
      "hit": false,
      "t": 70475.97200000013,
      "d": 833.3307499999937,
      "v": 108
    },
    {
      "midi": 66,
      "hit": false,
      "t": 70475.97200000013,
      "d": 932.5367916666582,
      "v": 108
    },
    {
      "midi": 57,
      "hit": false,
      "t": 71428.35000000012,
      "d": 833.3307499999937,
      "v": 78
    },
    {
      "midi": 61,
      "hit": false,
      "t": 71428.35000000012,
      "d": 932.5367916666582,
      "v": 86
    },
    {
      "midi": 64,
      "hit": false,
      "t": 71428.35000000012,
      "d": 932.5367916666582,
      "v": 108
    },
    {
      "midi": 54,
      "hit": false,
      "t": 72380.72800000012,
      "d": 932.5367916666728,
      "v": 91
    },
    {
      "midi": 57,
      "hit": false,
      "t": 72380.72800000012,
      "d": 932.5367916666728,
      "v": 91
    },
    {
      "midi": 62,
      "hit": false,
      "t": 72380.72800000012,
      "d": 932.5367916666728,
      "v": 108
    },
    {
      "midi": 54,
      "hit": false,
      "t": 73333.10600000013,
      "d": 932.5367916666728,
      "v": 69
    },
    {
      "midi": 57,
      "hit": false,
      "t": 73333.10600000013,
      "d": 932.5367916666728,
      "v": 87
    },
    {
      "midi": 61,
      "hit": false,
      "t": 73333.10600000013,
      "d": 932.5367916666728,
      "v": 108
    },
    {
      "midi": 56,
      "hit": false,
      "t": 74285.48400000014,
      "d": 1884.9147916666698,
      "v": 108
    },
    {
      "midi": 59,
      "hit": false,
      "t": 74285.48400000014,
      "d": 1884.9147916666698,
      "v": 101
    },
    {
      "midi": 62,
      "hit": false,
      "t": 74285.48400000014,
      "d": 1884.9147916666698,
      "v": 108
    },
    {
      "midi": 56,
      "hit": false,
      "t": 76190.24000000015,
      "d": 1884.9147916666698,
      "v": 108
    },
    {
      "midi": 59,
      "hit": false,
      "t": 76190.24000000015,
      "d": 1884.9147916666698,
      "v": 108
    },
    {
      "midi": 61,
      "hit": false,
      "t": 76190.24000000015,
      "d": 1884.9147916666698,
      "v": 106
    },
    {
      "midi": 65,
      "hit": false,
      "t": 76190.24000000015,
      "d": 1884.9147916666698,
      "v": 65
    },
    {
      "midi": 66,
      "hit": false,
      "t": 78094.99600000016,
      "d": 1170.6312916666648,
      "v": 101
    },
    {
      "midi": 61,
      "hit": false,
      "t": 78094.99600000016,
      "d": 1646.8202916666633,
      "v": 101
    },
    {
      "midi": 57,
      "hit": false,
      "t": 78094.99600000016,
      "d": 2837.2927916666667,
      "v": 105
    },
    {
      "midi": 64,
      "hit": false,
      "t": 79285.46850000016,
      "d": 753.9659166666679,
      "v": 101
    },
    {
      "midi": 62,
      "hit": false,
      "t": 79761.65750000016,
      "d": 515.8714166666614,
      "v": 101
    },
    {
      "midi": 61,
      "hit": false,
      "t": 80237.84650000016,
      "d": 257.9357083333307,
      "v": 86
    },
    {
      "midi": 62,
      "hit": false,
      "t": 80475.94100000015,
      "d": 238.09450000000652,
      "v": 96
    },
    {
      "midi": 64,
      "hit": false,
      "t": 80714.03550000016,
      "d": 476.18900000001304,
      "v": 101
    },
    {
      "midi": 56,
      "hit": false,
      "t": 80952.13000000016,
      "d": 932.5367916666873,
      "v": 49
    },
    {
      "midi": 62,
      "hit": false,
      "t": 81428.31900000018,
      "d": 376.98295833333395,
      "v": 91
    },
    {
      "midi": 57,
      "hit": false,
      "t": 81904.50800000019,
      "d": 932.5367916666582,
      "v": 108
    },
    {
      "midi": 61,
      "hit": false,
      "t": 81904.50800000019,
      "d": 932.5367916666582,
      "v": 108
    },
    {
      "midi": 66,
      "hit": false,
      "t": 82380.69700000019,
      "d": 456.34779166665976,
      "v": 104
    },
    {
      "midi": 59,
      "hit": false,
      "t": 82856.88600000019,
      "d": 892.8543749999953,
      "v": 108
    },
    {
      "midi": 64,
      "hit": false,
      "t": 82856.88600000019,
      "d": 892.8543749999953,
      "v": 108
    },
    {
      "midi": 56,
      "hit": false,
      "t": 82856.88600000019,
      "d": 932.5367916666582,
      "v": 78
    },
    {
      "midi": 69,
      "hit": false,
      "t": 83333.07500000019,
      "d": 376.98295833333395,
      "v": 108
    },
    {
      "midi": 71,
      "hit": false,
      "t": 83809.26400000018,
      "d": 456.34779166665976,
      "v": 105
    },
    {
      "midi": 57,
      "hit": false,
      "t": 83809.26400000018,
      "d": 634.9186666666646,
      "v": 68
    },
    {
      "midi": 62,
      "hit": false,
      "t": 83809.26400000018,
      "d": 813.4895416666695,
      "v": 73
    },
    {
      "midi": 54,
      "hit": false,
      "t": 83809.26400000018,
      "d": 932.5367916666728,
      "v": 68
    },
    {
      "midi": 60,
      "hit": false,
      "t": 83809.26400000018,
      "d": 932.5367916666728,
      "v": 68
    },
    {
      "midi": 69,
      "hit": false,
      "t": 84285.45300000018,
      "d": 456.3477916666743,
      "v": 108
    },
    {
      "midi": 66,
      "hit": false,
      "t": 84761.6420000002,
      "d": 515.8714166666614,
      "v": 73
    },
    {
      "midi": 56,
      "hit": false,
      "t": 84761.6420000002,
      "d": 833.3307499999937,
      "v": 73
    },
    {
      "midi": 68,
      "hit": false,
      "t": 84761.6420000002,
      "d": 833.3307499999937,
      "v": 96
    },
    {
      "midi": 61,
      "hit": false,
      "t": 84761.6420000002,
      "d": 932.5367916666582,
      "v": 68
    },
    {
      "midi": 65,
      "hit": false,
      "t": 85237.8310000002,
      "d": 357.1417499999952,
      "v": 62
    },
    {
      "midi": 61,
      "hit": false,
      "t": 85714.0200000002,
      "d": 357.1417499999952,
      "v": 108
    },
    {
      "midi": 57,
      "hit": false,
      "t": 85714.0200000002,
      "d": 714.283500000005,
      "v": 92
    },
    {
      "midi": 66,
      "hit": false,
      "t": 86190.20900000019,
      "d": 238.09450000000652,
      "v": 91
    },
    {
      "midi": 56,
      "hit": false,
      "t": 86428.3035000002,
      "d": 714.283500000005,
      "v": 87
    },
    {
      "midi": 60,
      "hit": false,
      "t": 86428.3035000002,
      "d": 714.283500000005,
      "v": 87
    },
    {
      "midi": 66,
      "hit": false,
      "t": 87142.5870000002,
      "d": 376.98295833333395,
      "v": 108
    },
    {
      "midi": 60,
      "hit": false,
      "t": 87618.7760000002,
      "d": 972.2192083333503,
      "v": 92
    },
    {
      "midi": 56,
      "hit": false,
      "t": 87618.7760000002,
      "d": 1884.9147916666843,
      "v": 81
    },
    {
      "midi": 66,
      "hit": false,
      "t": 87856.87050000021,
      "d": 99.20604166666453,
      "v": 85
    },
    {
      "midi": 65,
      "hit": false,
      "t": 88333.0595000002,
      "d": 1170.6312916666793,
      "v": 93
    },
    {
      "midi": 59,
      "hit": false,
      "t": 88571.15400000021,
      "d": 932.5367916666728,
      "v": 101
    },
    {
      "midi": 57,
      "hit": false,
      "t": 89523.53200000022,
      "d": 1011.9016249999986,
      "v": 91
    },
    {
      "midi": 61,
      "hit": false,
      "t": 89523.53200000022,
      "d": 2916.657625000007,
      "v": 86
    },
    {
      "midi": 66,
      "hit": false,
      "t": 89523.53200000022,
      "d": 3095.228500000012,
      "v": 64
    },
    {
      "midi": 59,
      "hit": false,
      "t": 90714.00450000023,
      "d": 575.395041666663,
      "v": 105
    },
    {
      "midi": 57,
      "hit": false,
      "t": 91428.28800000022,
      "d": 932.5367916666728,
      "v": 85
    },
    {
      "midi": 56,
      "hit": false,
      "t": 92380.66600000023,
      "d": 952.3780000000261,
      "v": 101
    },
    {
      "midi": 66,
      "hit": false,
      "t": 92618.76050000024,
      "d": 158.72966666666616,
      "v": 62
    },
    {
      "midi": 65,
      "hit": false,
      "t": 92856.85500000024,
      "d": 476.18900000001304,
      "v": 52
    },
    {
      "midi": 61,
      "hit": false,
      "t": 93094.94950000025,
      "d": 238.09450000000652,
      "v": 85
    },
    {
      "midi": 66,
      "hit": false,
      "t": 93333.04400000026,
      "d": 1170.6312916666648,
      "v": 101
    },
    {
      "midi": 57,
      "hit": false,
      "t": 93333.04400000026,
      "d": 2837.2927916666667,
      "v": 105
    },
    {
      "midi": 64,
      "hit": false,
      "t": 94523.51650000026,
      "d": 753.9659166666679,
      "v": 101
    },
    {
      "midi": 62,
      "hit": false,
      "t": 94999.70550000026,
      "d": 515.8714166666614,
      "v": 101
    },
    {
      "midi": 61,
      "hit": false,
      "t": 95475.89450000026,
      "d": 257.9357083333307,
      "v": 86
    },
    {
      "midi": 62,
      "hit": false,
      "t": 95713.98900000025,
      "d": 218.2532916666678,
      "v": 96
    },
    {
      "midi": 64,
      "hit": false,
      "t": 95952.08350000026,
      "d": 476.18900000001304,
      "v": 101
    },
    {
      "midi": 56,
      "hit": false,
      "t": 96190.17800000026,
      "d": 932.5367916666873,
      "v": 49
    },
    {
      "midi": 62,
      "hit": false,
      "t": 96666.36700000027,
      "d": 376.98295833333395,
      "v": 91
    },
    {
      "midi": 57,
      "hit": false,
      "t": 97142.55600000029,
      "d": 932.5367916666582,
      "v": 108
    },
    {
      "midi": 61,
      "hit": false,
      "t": 97142.55600000029,
      "d": 932.5367916666582,
      "v": 108
    },
    {
      "midi": 66,
      "hit": false,
      "t": 97618.74500000029,
      "d": 456.34779166665976,
      "v": 104
    },
    {
      "midi": 59,
      "hit": false,
      "t": 98094.93400000028,
      "d": 892.8543749999953,
      "v": 108
    },
    {
      "midi": 64,
      "hit": false,
      "t": 98094.93400000028,
      "d": 892.8543749999953,
      "v": 108
    },
    {
      "midi": 56,
      "hit": false,
      "t": 98094.93400000028,
      "d": 932.5367916666582,
      "v": 78
    },
    {
      "midi": 69,
      "hit": false,
      "t": 98571.12300000028,
      "d": 376.98295833333395,
      "v": 108
    },
    {
      "midi": 71,
      "hit": false,
      "t": 99047.31200000028,
      "d": 456.34779166665976,
      "v": 105
    },
    {
      "midi": 57,
      "hit": false,
      "t": 99047.31200000028,
      "d": 634.9186666666646,
      "v": 68
    },
    {
      "midi": 62,
      "hit": false,
      "t": 99047.31200000028,
      "d": 813.4895416666695,
      "v": 73
    },
    {
      "midi": 54,
      "hit": false,
      "t": 99047.31200000028,
      "d": 932.5367916666728,
      "v": 68
    },
    {
      "midi": 60,
      "hit": false,
      "t": 99047.31200000028,
      "d": 932.5367916666728,
      "v": 68
    },
    {
      "midi": 69,
      "hit": false,
      "t": 99523.50100000028,
      "d": 456.3477916666743,
      "v": 108
    },
    {
      "midi": 66,
      "hit": false,
      "t": 99999.6900000003,
      "d": 496.0302083333372,
      "v": 73
    },
    {
      "midi": 56,
      "hit": false,
      "t": 99999.6900000003,
      "d": 833.3307500000083,
      "v": 73
    },
    {
      "midi": 68,
      "hit": false,
      "t": 99999.6900000003,
      "d": 833.3307500000083,
      "v": 96
    },
    {
      "midi": 61,
      "hit": false,
      "t": 99999.6900000003,
      "d": 932.5367916666728,
      "v": 68
    },
    {
      "midi": 65,
      "hit": false,
      "t": 100475.87900000029,
      "d": 357.1417500000098,
      "v": 62
    },
    {
      "midi": 54,
      "hit": false,
      "t": 101190.1625000003,
      "d": 99.20604166666453,
      "v": 82
    },
    {
      "midi": 57,
      "hit": false,
      "t": 101190.1625000003,
      "d": 99.20604166666453,
      "v": 68
    },
    {
      "midi": 64,
      "hit": false,
      "t": 101190.1625000003,
      "d": 99.20604166666453,
      "v": 108
    },
    {
      "midi": 54,
      "hit": false,
      "t": 101666.3515000003,
      "d": 1091.266458333339,
      "v": 62
    },
    {
      "midi": 57,
      "hit": false,
      "t": 101666.3515000003,
      "d": 1091.266458333339,
      "v": 108
    },
    {
      "midi": 63,
      "hit": false,
      "t": 101666.3515000003,
      "d": 1130.9488750000019,
      "v": 101
    },
    {
      "midi": 60,
      "hit": false,
      "t": 103094.91850000029,
      "d": 337.30054166667105,
      "v": 108
    },
    {
      "midi": 66,
      "hit": false,
      "t": 103094.91850000029,
      "d": 436.5065833333356,
      "v": 105
    },
    {
      "midi": 69,
      "hit": false,
      "t": 103094.91850000029,
      "d": 436.5065833333356,
      "v": 108
    },
    {
      "midi": 59,
      "hit": false,
      "t": 103571.10750000029,
      "d": 1170.6312916666648,
      "v": 69
    },
    {
      "midi": 65,
      "hit": false,
      "t": 103571.10750000029,
      "d": 1170.6312916666648,
      "v": 69
    },
    {
      "midi": 68,
      "hit": false,
      "t": 103571.10750000029,
      "d": 1210.3137083333277,
      "v": 42
    },
    {
      "midi": 56,
      "hit": false,
      "t": 105237.76900000028,
      "d": 198.41208333332906,
      "v": 108
    },
    {
      "midi": 64,
      "hit": false,
      "t": 105237.76900000028,
      "d": 198.41208333332906,
      "v": 108
    },
    {
      "midi": 59,
      "hit": false,
      "t": 105237.76900000028,
      "d": 277.77691666665487,
      "v": 108
    },
    {
      "midi": 57,
      "hit": false,
      "t": 105475.86350000027,
      "d": 79.3648333333258,
      "v": 108
    },
    {
      "midi": 61,
      "hit": false,
      "t": 105475.86350000027,
      "d": 138.88845833332743,
      "v": 91
    },
    {
      "midi": 66,
      "hit": false,
      "t": 105475.86350000027,
      "d": 138.88845833332743,
      "v": 108
    },
    {
      "midi": 54,
      "hit": false,
      "t": 105952.05250000027,
      "d": 178.5708750000049,
      "v": 108
    },
    {
      "midi": 68,
      "hit": false,
      "t": 106190.14700000027,
      "d": 119.04725000000326,
      "v": 108
    },
    {
      "midi": 64,
      "hit": false,
      "t": 106190.14700000027,
      "d": 238.09450000000652,
      "v": 108
    },
    {
      "midi": 71,
      "hit": false,
      "t": 106190.14700000027,
      "d": 297.61812500000815,
      "v": 108
    },
    {
      "midi": 66,
      "hit": false,
      "t": 106428.24150000028,
      "d": 99.20604166666453,
      "v": 101
    },
    {
      "midi": 69,
      "hit": false,
      "t": 106428.24150000028,
      "d": 99.20604166666453,
      "v": 105
    },
    {
      "midi": 73,
      "hit": false,
      "t": 106428.24150000028,
      "d": 99.20604166666453,
      "v": 108
    },
    {
      "midi": 54,
      "hit": false,
      "t": 106904.43050000028,
      "d": 178.5708750000049,
      "v": 108
    },
    {
      "midi": 68,
      "hit": false,
      "t": 107142.52500000029,
      "d": 138.88845833332743,
      "v": 108
    },
    {
      "midi": 76,
      "hit": false,
      "t": 107142.52500000029,
      "d": 198.41208333332906,
      "v": 108
    },
    {
      "midi": 71,
      "hit": false,
      "t": 107142.52500000029,
      "d": 277.77691666665487,
      "v": 101
    },
    {
      "midi": 69,
      "hit": false,
      "t": 107380.61950000028,
      "d": 99.20604166666453,
      "v": 108
    },
    {
      "midi": 73,
      "hit": false,
      "t": 107380.61950000028,
      "d": 99.20604166666453,
      "v": 101
    },
    {
      "midi": 78,
      "hit": false,
      "t": 107380.61950000028,
      "d": 99.20604166666453,
      "v": 108
    },
    {
      "midi": 54,
      "hit": false,
      "t": 107856.80850000028,
      "d": 238.09450000000652,
      "v": 108
    },
    {
      "midi": 56,
      "hit": false,
      "t": 108094.90300000028,
      "d": 416.66537499999686,
      "v": 108
    },
    {
      "midi": 64,
      "hit": false,
      "t": 108094.90300000028,
      "d": 416.66537499999686,
      "v": 108
    },
    {
      "midi": 71,
      "hit": false,
      "t": 108094.90300000028,
      "d": 416.66537499999686,
      "v": 108
    },
    {
      "midi": 64,
      "hit": false,
      "t": 108571.09200000028,
      "d": 892.8543749999953,
      "v": 108
    },
    {
      "midi": 57,
      "hit": false,
      "t": 108571.09200000028,
      "d": 932.5367916666582,
      "v": 108
    },
    {
      "midi": 73,
      "hit": false,
      "t": 108571.09200000028,
      "d": 932.5367916666582,
      "v": 108
    },
    {
      "midi": 56,
      "hit": false,
      "t": 109523.47000000028,
      "d": 932.5367916666728,
      "v": 68
    },
    {
      "midi": 59,
      "hit": false,
      "t": 109523.47000000028,
      "d": 932.5367916666728,
      "v": 101
    },
    {
      "midi": 61,
      "hit": false,
      "t": 109523.47000000028,
      "d": 932.5367916666728,
      "v": 86
    },
    {
      "midi": 64,
      "hit": false,
      "t": 109523.47000000028,
      "d": 932.5367916666728,
      "v": 108
    },
    {
      "midi": 57,
      "hit": false,
      "t": 110475.84800000029,
      "d": 853.1719583333324,
      "v": 101
    },
    {
      "midi": 62,
      "hit": false,
      "t": 110475.84800000029,
      "d": 892.8543749999953,
      "v": 108
    },
    {
      "midi": 54,
      "hit": false,
      "t": 110475.84800000029,
      "d": 932.5367916666582,
      "v": 86
    },
    {
      "midi": 62,
      "hit": false,
      "t": 111428.22600000029,
      "d": 892.8543749999953,
      "v": 108
    },
    {
      "midi": 57,
      "hit": false,
      "t": 111428.22600000029,
      "d": 932.5367916666582,
      "v": 108
    },
    {
      "midi": 66,
      "hit": false,
      "t": 111428.22600000029,
      "d": 932.5367916666582,
      "v": 108
    },
    {
      "midi": 61,
      "hit": false,
      "t": 112380.60400000028,
      "d": 853.1719583333324,
      "v": 108
    },
    {
      "midi": 57,
      "hit": false,
      "t": 112380.60400000028,
      "d": 932.5367916666728,
      "v": 105
    },
    {
      "midi": 64,
      "hit": false,
      "t": 112380.60400000028,
      "d": 932.5367916666728,
      "v": 108
    },
    {
      "midi": 61,
      "hit": false,
      "t": 113332.9820000003,
      "d": 873.0131666666712,
      "v": 108
    },
    {
      "midi": 59,
      "hit": false,
      "t": 113332.9820000003,
      "d": 932.5367916666728,
      "v": 105
    },
    {
      "midi": 65,
      "hit": false,
      "t": 113332.9820000003,
      "d": 932.5367916666728,
      "v": 108
    },
    {
      "midi": 57,
      "hit": false,
      "t": 114285.3600000003,
      "d": 873.0131666666712,
      "v": 86
    },
    {
      "midi": 61,
      "hit": false,
      "t": 114285.3600000003,
      "d": 873.0131666666712,
      "v": 108
    },
    {
      "midi": 66,
      "hit": false,
      "t": 114285.3600000003,
      "d": 932.5367916666728,
      "v": 108
    },
    {
      "midi": 57,
      "hit": false,
      "t": 115237.73800000032,
      "d": 873.0131666666712,
      "v": 96
    },
    {
      "midi": 61,
      "hit": false,
      "t": 115237.73800000032,
      "d": 873.0131666666712,
      "v": 91
    },
    {
      "midi": 64,
      "hit": false,
      "t": 115237.73800000032,
      "d": 873.0131666666712,
      "v": 108
    },
    {
      "midi": 67,
      "hit": false,
      "t": 115237.73800000032,
      "d": 873.0131666666712,
      "v": 108
    },
    {
      "midi": 57,
      "hit": false,
      "t": 116190.11600000033,
      "d": 833.3307499999937,
      "v": 105
    },
    {
      "midi": 62,
      "hit": false,
      "t": 116190.11600000033,
      "d": 833.3307499999937,
      "v": 108
    },
    {
      "midi": 66,
      "hit": false,
      "t": 116190.11600000033,
      "d": 932.5367916666582,
      "v": 108
    },
    {
      "midi": 57,
      "hit": false,
      "t": 117142.49400000033,
      "d": 833.3307499999937,
      "v": 78
    },
    {
      "midi": 61,
      "hit": false,
      "t": 117142.49400000033,
      "d": 932.5367916666582,
      "v": 86
    },
    {
      "midi": 64,
      "hit": false,
      "t": 117142.49400000033,
      "d": 932.5367916666582,
      "v": 108
    },
    {
      "midi": 54,
      "hit": false,
      "t": 118094.87200000032,
      "d": 932.5367916666728,
      "v": 91
    },
    {
      "midi": 57,
      "hit": false,
      "t": 118094.87200000032,
      "d": 932.5367916666728,
      "v": 91
    },
    {
      "midi": 62,
      "hit": false,
      "t": 118094.87200000032,
      "d": 932.5367916666728,
      "v": 108
    },
    {
      "midi": 62,
      "hit": false,
      "t": 119047.25000000033,
      "d": 912.6955833333341,
      "v": 108
    },
    {
      "midi": 66,
      "hit": false,
      "t": 119047.25000000033,
      "d": 912.6955833333341,
      "v": 72
    },
    {
      "midi": 69,
      "hit": false,
      "t": 119047.25000000033,
      "d": 912.6955833333341,
      "v": 72
    },
    {
      "midi": 54,
      "hit": false,
      "t": 119999.62800000033,
      "d": 178.5708750000049,
      "v": 108
    },
    {
      "midi": 61,
      "hit": false,
      "t": 119999.62800000033,
      "d": 456.3477916666743,
      "v": 108
    },
    {
      "midi": 64,
      "hit": false,
      "t": 119999.62800000033,
      "d": 456.3477916666743,
      "v": 72
    },
    {
      "midi": 68,
      "hit": false,
      "t": 119999.62800000033,
      "d": 456.3477916666743,
      "v": 72
    },
    {
      "midi": 56,
      "hit": false,
      "t": 120475.81700000034,
      "d": 198.41208333332906,
      "v": 101
    },
    {
      "midi": 64,
      "hit": false,
      "t": 120475.81700000034,
      "d": 198.41208333332906,
      "v": 91
    },
    {
      "midi": 59,
      "hit": false,
      "t": 120475.81700000034,
      "d": 277.77691666665487,
      "v": 86
    },
    {
      "midi": 57,
      "hit": false,
      "t": 120713.91150000034,
      "d": 79.3648333333258,
      "v": 86
    },
    {
      "midi": 61,
      "hit": false,
      "t": 120713.91150000034,
      "d": 138.88845833332743,
      "v": 68
    },
    {
      "midi": 66,
      "hit": false,
      "t": 120713.91150000034,
      "d": 138.88845833332743,
      "v": 91
    },
    {
      "midi": 54,
      "hit": false,
      "t": 121190.10050000034,
      "d": 178.5708750000049,
      "v": 108
    },
    {
      "midi": 68,
      "hit": false,
      "t": 121428.19500000034,
      "d": 119.04725000000326,
      "v": 86
    },
    {
      "midi": 64,
      "hit": false,
      "t": 121428.19500000034,
      "d": 238.09450000000652,
      "v": 105
    },
    {
      "midi": 71,
      "hit": false,
      "t": 121428.19500000034,
      "d": 297.61812500000815,
      "v": 86
    },
    {
      "midi": 66,
      "hit": false,
      "t": 121666.28950000035,
      "d": 99.20604166666453,
      "v": 78
    },
    {
      "midi": 69,
      "hit": false,
      "t": 121666.28950000035,
      "d": 99.20604166666453,
      "v": 82
    },
    {
      "midi": 73,
      "hit": false,
      "t": 121666.28950000035,
      "d": 99.20604166666453,
      "v": 91
    },
    {
      "midi": 54,
      "hit": false,
      "t": 122142.47850000035,
      "d": 178.5708750000049,
      "v": 108
    },
    {
      "midi": 68,
      "hit": false,
      "t": 122380.57300000035,
      "d": 138.88845833332743,
      "v": 101
    },
    {
      "midi": 76,
      "hit": false,
      "t": 122380.57300000035,
      "d": 198.41208333332906,
      "v": 91
    },
    {
      "midi": 71,
      "hit": false,
      "t": 122380.57300000035,
      "d": 277.77691666665487,
      "v": 78
    },
    {
      "midi": 69,
      "hit": false,
      "t": 122618.66750000035,
      "d": 99.20604166666453,
      "v": 96
    },
    {
      "midi": 73,
      "hit": false,
      "t": 122618.66750000035,
      "d": 99.20604166666453,
      "v": 78
    },
    {
      "midi": 78,
      "hit": false,
      "t": 122618.66750000035,
      "d": 99.20604166666453,
      "v": 86
    },
    {
      "midi": 54,
      "hit": false,
      "t": 123094.85650000034,
      "d": 238.09450000000652,
      "v": 108
    },
    {
      "midi": 56,
      "hit": false,
      "t": 123332.95100000035,
      "d": 416.66537499999686,
      "v": 108
    },
    {
      "midi": 64,
      "hit": false,
      "t": 123332.95100000035,
      "d": 416.66537499999686,
      "v": 108
    },
    {
      "midi": 71,
      "hit": false,
      "t": 123332.95100000035,
      "d": 416.66537499999686,
      "v": 108
    },
    {
      "midi": 76,
      "hit": false,
      "t": 123332.95100000035,
      "d": 416.66537499999686,
      "v": 97
    },
    {
      "midi": 64,
      "hit": false,
      "t": 123809.14000000035,
      "d": 892.8543749999953,
      "v": 108
    },
    {
      "midi": 57,
      "hit": false,
      "t": 123809.14000000035,
      "d": 932.5367916666582,
      "v": 108
    },
    {
      "midi": 73,
      "hit": false,
      "t": 123809.14000000035,
      "d": 932.5367916666582,
      "v": 108
    },
    {
      "midi": 56,
      "hit": false,
      "t": 124761.51800000035,
      "d": 932.5367916666728,
      "v": 68
    },
    {
      "midi": 59,
      "hit": false,
      "t": 124761.51800000035,
      "d": 932.5367916666728,
      "v": 101
    },
    {
      "midi": 61,
      "hit": false,
      "t": 124761.51800000035,
      "d": 932.5367916666728,
      "v": 86
    },
    {
      "midi": 64,
      "hit": false,
      "t": 124761.51800000035,
      "d": 932.5367916666728,
      "v": 108
    },
    {
      "midi": 57,
      "hit": false,
      "t": 125713.89600000036,
      "d": 853.1719583333324,
      "v": 101
    },
    {
      "midi": 62,
      "hit": false,
      "t": 125713.89600000036,
      "d": 892.8543749999953,
      "v": 108
    },
    {
      "midi": 54,
      "hit": false,
      "t": 125713.89600000036,
      "d": 932.5367916666582,
      "v": 86
    },
    {
      "midi": 62,
      "hit": false,
      "t": 126666.27400000035,
      "d": 892.8543749999953,
      "v": 108
    },
    {
      "midi": 57,
      "hit": false,
      "t": 126666.27400000035,
      "d": 932.5367916666582,
      "v": 108
    },
    {
      "midi": 66,
      "hit": false,
      "t": 126666.27400000035,
      "d": 932.5367916666582,
      "v": 108
    },
    {
      "midi": 61,
      "hit": false,
      "t": 127618.65200000035,
      "d": 853.1719583333324,
      "v": 108
    },
    {
      "midi": 57,
      "hit": false,
      "t": 127618.65200000035,
      "d": 932.5367916666728,
      "v": 105
    },
    {
      "midi": 64,
      "hit": false,
      "t": 127618.65200000035,
      "d": 932.5367916666728,
      "v": 108
    },
    {
      "midi": 61,
      "hit": false,
      "t": 128571.03000000036,
      "d": 873.0131666666712,
      "v": 108
    },
    {
      "midi": 59,
      "hit": false,
      "t": 128571.03000000036,
      "d": 932.5367916666728,
      "v": 105
    },
    {
      "midi": 65,
      "hit": false,
      "t": 128571.03000000036,
      "d": 932.5367916666728,
      "v": 108
    },
    {
      "midi": 57,
      "hit": false,
      "t": 129523.40800000037,
      "d": 873.0131666666712,
      "v": 86
    },
    {
      "midi": 61,
      "hit": false,
      "t": 129523.40800000037,
      "d": 873.0131666666712,
      "v": 108
    },
    {
      "midi": 66,
      "hit": false,
      "t": 129523.40800000037,
      "d": 932.5367916666728,
      "v": 108
    },
    {
      "midi": 57,
      "hit": false,
      "t": 130475.78600000039,
      "d": 873.0131666666566,
      "v": 96
    },
    {
      "midi": 61,
      "hit": false,
      "t": 130475.78600000039,
      "d": 873.0131666666566,
      "v": 91
    },
    {
      "midi": 64,
      "hit": false,
      "t": 130475.78600000039,
      "d": 873.0131666666566,
      "v": 108
    },
    {
      "midi": 67,
      "hit": false,
      "t": 130475.78600000039,
      "d": 873.0131666666566,
      "v": 108
    },
    {
      "midi": 57,
      "hit": false,
      "t": 131428.16400000037,
      "d": 853.171958333347,
      "v": 105
    },
    {
      "midi": 62,
      "hit": false,
      "t": 131428.16400000037,
      "d": 853.171958333347,
      "v": 108
    },
    {
      "midi": 66,
      "hit": false,
      "t": 131428.16400000037,
      "d": 932.5367916666728,
      "v": 108
    },
    {
      "midi": 57,
      "hit": false,
      "t": 132380.54200000037,
      "d": 853.171958333347,
      "v": 78
    },
    {
      "midi": 61,
      "hit": false,
      "t": 132380.54200000037,
      "d": 932.5367916666728,
      "v": 86
    },
    {
      "midi": 64,
      "hit": false,
      "t": 132380.54200000037,
      "d": 932.5367916666728,
      "v": 108
    },
    {
      "midi": 54,
      "hit": false,
      "t": 133332.92000000036,
      "d": 932.5367916666728,
      "v": 91
    },
    {
      "midi": 57,
      "hit": false,
      "t": 133332.92000000036,
      "d": 932.5367916666728,
      "v": 91
    },
    {
      "midi": 62,
      "hit": false,
      "t": 133332.92000000036,
      "d": 932.5367916666728,
      "v": 108
    },
    {
      "midi": 54,
      "hit": false,
      "t": 134285.29800000036,
      "d": 932.5367916666728,
      "v": 69
    },
    {
      "midi": 57,
      "hit": false,
      "t": 134285.29800000036,
      "d": 932.5367916666728,
      "v": 87
    },
    {
      "midi": 61,
      "hit": false,
      "t": 134285.29800000036,
      "d": 932.5367916666728,
      "v": 108
    },
    {
      "midi": 56,
      "hit": false,
      "t": 135237.67600000036,
      "d": 1884.9147916666698,
      "v": 108
    },
    {
      "midi": 59,
      "hit": false,
      "t": 135237.67600000036,
      "d": 1884.9147916666698,
      "v": 101
    },
    {
      "midi": 62,
      "hit": false,
      "t": 135237.67600000036,
      "d": 1884.9147916666698,
      "v": 108
    },
    {
      "midi": 56,
      "hit": false,
      "t": 137142.43200000035,
      "d": 1884.9147916666698,
      "v": 108
    },
    {
      "midi": 59,
      "hit": false,
      "t": 137142.43200000035,
      "d": 1884.9147916666698,
      "v": 108
    },
    {
      "midi": 61,
      "hit": false,
      "t": 137142.43200000035,
      "d": 1884.9147916666698,
      "v": 106
    },
    {
      "midi": 65,
      "hit": false,
      "t": 137142.43200000035,
      "d": 1884.9147916666698,
      "v": 65
    },
    {
      "midi": 62,
      "hit": false,
      "t": 139047.18800000034,
      "d": 1884.9147916666698,
      "v": 91
    },
    {
      "midi": 66,
      "hit": false,
      "t": 139047.18800000034,
      "d": 1884.9147916666698,
      "v": 91
    },
    {
      "midi": 59,
      "hit": false,
      "t": 140951.94400000034,
      "d": 1884.9147916666698,
      "v": 63
    },
    {
      "midi": 64,
      "hit": false,
      "t": 140951.94400000034,
      "d": 1884.9147916666698,
      "v": 86
    },
    {
      "midi": 68,
      "hit": false,
      "t": 140951.94400000034,
      "d": 1884.9147916666698,
      "v": 58
    },
    {
      "midi": 61,
      "hit": false,
      "t": 142856.70000000033,
      "d": 3769.8295833333395,
      "v": 53
    },
    {
      "midi": 64,
      "hit": false,
      "t": 142856.70000000033,
      "d": 3769.8295833333395,
      "v": 63
    },
    {
      "midi": 68,
      "hit": false,
      "t": 142856.70000000033,
      "d": 3769.8295833333395,
      "v": 55
    },
    {
      "midi": 62,
      "hit": false,
      "t": 146666.21200000035,
      "d": 2837.2927916666667,
      "v": 78
    },
    {
      "midi": 66,
      "hit": false,
      "t": 146666.21200000035,
      "d": 2837.2927916666667,
      "v": 73
    },
    {
      "midi": 59,
      "hit": false,
      "t": 146666.21200000035,
      "d": 3789.6707916666055,
      "v": 59
    },
    {
      "midi": 64,
      "hit": false,
      "t": 149523.34600000034,
      "d": 456.34779166665976,
      "v": 108
    },
    {
      "midi": 69,
      "hit": false,
      "t": 149999.53500000032,
      "d": 218.25329166665324,
      "v": 108
    },
    {
      "midi": 71,
      "hit": false,
      "t": 150237.6295000003,
      "d": 1408.7257916666567,
      "v": 108
    },
    {
      "midi": 64,
      "hit": false,
      "t": 150475.72400000028,
      "d": 1884.9147916666407,
      "v": 101
    },
    {
      "midi": 61,
      "hit": false,
      "t": 150475.72400000028,
      "d": 3670.6235416666314,
      "v": 78
    },
    {
      "midi": 76,
      "hit": false,
      "t": 151666.19650000028,
      "d": 456.34779166665976,
      "v": 101
    },
    {
      "midi": 73,
      "hit": false,
      "t": 152142.38550000027,
      "d": 2123.009291666647,
      "v": 96
    },
    {
      "midi": 66,
      "hit": false,
      "t": 152380.48000000024,
      "d": 1884.9147916666698,
      "v": 48
    },
    {
      "midi": 50,
      "hit": false,
      "t": 154285.23600000024,
      "d": 1884.9147916666698,
      "v": 104
    },
    {
      "midi": 62,
      "hit": false,
      "t": 154285.23600000024,
      "d": 1884.9147916666698,
      "v": 91
    },
    {
      "midi": 66,
      "hit": false,
      "t": 154285.23600000024,
      "d": 1884.9147916666698,
      "v": 91
    },
    {
      "midi": 59,
      "hit": false,
      "t": 156189.99200000023,
      "d": 1884.9147916666698,
      "v": 63
    },
    {
      "midi": 64,
      "hit": false,
      "t": 156189.99200000023,
      "d": 1884.9147916666698,
      "v": 86
    },
    {
      "midi": 68,
      "hit": false,
      "t": 156189.99200000023,
      "d": 1884.9147916666698,
      "v": 58
    },
    {
      "midi": 61,
      "hit": false,
      "t": 158094.74800000023,
      "d": 3769.8295833333395,
      "v": 53
    },
    {
      "midi": 64,
      "hit": false,
      "t": 158094.74800000023,
      "d": 3769.8295833333395,
      "v": 63
    },
    {
      "midi": 68,
      "hit": false,
      "t": 158094.74800000023,
      "d": 3769.8295833333395,
      "v": 55
    },
    {
      "midi": 62,
      "hit": false,
      "t": 161904.26000000024,
      "d": 2837.2927916666667,
      "v": 78
    },
    {
      "midi": 66,
      "hit": false,
      "t": 161904.26000000024,
      "d": 2837.2927916666667,
      "v": 73
    },
    {
      "midi": 59,
      "hit": false,
      "t": 161904.26000000024,
      "d": 3789.6707916666055,
      "v": 59
    },
    {
      "midi": 64,
      "hit": false,
      "t": 164761.39400000023,
      "d": 456.34779166665976,
      "v": 108
    },
    {
      "midi": 69,
      "hit": false,
      "t": 165237.58300000022,
      "d": 218.25329166665324,
      "v": 108
    },
    {
      "midi": 71,
      "hit": false,
      "t": 165475.6775000002,
      "d": 1408.7257916666567,
      "v": 108
    },
    {
      "midi": 61,
      "hit": false,
      "t": 165713.77200000017,
      "d": 1170.6312916666793,
      "v": 78
    },
    {
      "midi": 64,
      "hit": false,
      "t": 165713.77200000017,
      "d": 1170.6312916666793,
      "v": 101
    },
    {
      "midi": 68,
      "hit": false,
      "t": 166904.24450000018,
      "d": 59.52362500000163,
      "v": 101
    },
    {
      "midi": 71,
      "hit": false,
      "t": 166904.24450000018,
      "d": 59.52362500000163,
      "v": 96
    },
    {
      "midi": 76,
      "hit": false,
      "t": 166904.24450000018,
      "d": 59.52362500000163,
      "v": 105
    },
    {
      "midi": 69,
      "hit": false,
      "t": 167380.4335000002,
      "d": 2123.0092916666763,
      "v": 86
    },
    {
      "midi": 66,
      "hit": false,
      "t": 167380.4335000002,
      "d": 2162.6917083333246,
      "v": 101
    },
    {
      "midi": 73,
      "hit": false,
      "t": 167380.4335000002,
      "d": 2162.6917083333246,
      "v": 101
    },
    {
      "midi": 69,
      "hit": false,
      "t": 169523.2840000002,
      "d": 19.841208333324175,
      "v": 108
    },
    {
      "midi": 65,
      "hit": false,
      "t": 169523.2840000002,
      "d": 773.8071249999921,
      "v": 123
    },
    {
      "midi": 74,
      "hit": false,
      "t": 169523.2840000002,
      "d": 932.5367916666728,
      "v": 113
    },
    {
      "midi": 69,
      "hit": false,
      "t": 170475.6620000002,
      "d": 773.8071249999921,
      "v": 89
    },
    {
      "midi": 76,
      "hit": false,
      "t": 170475.6620000002,
      "d": 773.8071249999921,
      "v": 89
    },
    {
      "midi": 72,
      "hit": false,
      "t": 170475.6620000002,
      "d": 932.5367916666728,
      "v": 66
    },
    {
      "midi": 69,
      "hit": false,
      "t": 171428.04000000018,
      "d": 753.9659166666679,
      "v": 94
    },
    {
      "midi": 77,
      "hit": false,
      "t": 171428.04000000018,
      "d": 833.3307499999937,
      "v": 82
    },
    {
      "midi": 74,
      "hit": false,
      "t": 171428.04000000018,
      "d": 932.5367916666728,
      "v": 89
    },
    {
      "midi": 67,
      "hit": false,
      "t": 172380.41800000018,
      "d": 833.3307500000228,
      "v": 94
    },
    {
      "midi": 69,
      "hit": false,
      "t": 172380.41800000018,
      "d": 833.3307500000228,
      "v": 107
    },
    {
      "midi": 73,
      "hit": false,
      "t": 172380.41800000018,
      "d": 833.3307500000228,
      "v": 99
    },
    {
      "midi": 76,
      "hit": false,
      "t": 172856.6070000002,
      "d": 357.1417500000098,
      "v": 102
    },
    {
      "midi": 69,
      "hit": false,
      "t": 173332.7960000002,
      "d": 813.4895416666695,
      "v": 100
    },
    {
      "midi": 74,
      "hit": false,
      "t": 173332.7960000002,
      "d": 813.4895416666695,
      "v": 82
    },
    {
      "midi": 77,
      "hit": false,
      "t": 173332.7960000002,
      "d": 892.8543749999953,
      "v": 77
    },
    {
      "midi": 76,
      "hit": false,
      "t": 174285.1740000002,
      "d": 456.34779166665976,
      "v": 85
    },
    {
      "midi": 67,
      "hit": false,
      "t": 174285.1740000002,
      "d": 773.8071249999921,
      "v": 84
    },
    {
      "midi": 72,
      "hit": false,
      "t": 174285.1740000002,
      "d": 773.8071249999921,
      "v": 80
    },
    {
      "midi": 77,
      "hit": false,
      "t": 174761.3630000002,
      "d": 456.34779166668886,
      "v": 85
    },
    {
      "midi": 65,
      "hit": false,
      "t": 175237.5520000002,
      "d": 813.4895416666695,
      "v": 59
    },
    {
      "midi": 70,
      "hit": false,
      "t": 175237.5520000002,
      "d": 873.0131666666712,
      "v": 67
    },
    {
      "midi": 74,
      "hit": false,
      "t": 175237.5520000002,
      "d": 873.0131666666712,
      "v": 59
    },
    {
      "midi": 64,
      "hit": false,
      "t": 176189.9300000002,
      "d": 813.4895416666695,
      "v": 95
    },
    {
      "midi": 72,
      "hit": false,
      "t": 176189.9300000002,
      "d": 892.8543749999953,
      "v": 85
    },
    {
      "midi": 67,
      "hit": false,
      "t": 176189.9300000002,
      "d": 932.5367916666728,
      "v": 77
    },
    {
      "midi": 62,
      "hit": false,
      "t": 177142.3080000002,
      "d": 2837.2927916666667,
      "v": 101
    },
    {
      "midi": 65,
      "hit": false,
      "t": 177142.3080000002,
      "d": 2837.2927916666667,
      "v": 93
    },
    {
      "midi": 70,
      "hit": false,
      "t": 177142.3080000002,
      "d": 2837.2927916666667,
      "v": 79
    },
    {
      "midi": 61,
      "hit": false,
      "t": 179999.44200000018,
      "d": 932.5367916666728,
      "v": 82
    },
    {
      "midi": 64,
      "hit": false,
      "t": 179999.44200000018,
      "d": 932.5367916666728,
      "v": 91
    },
    {
      "midi": 67,
      "hit": false,
      "t": 179999.44200000018,
      "d": 932.5367916666728,
      "v": 86
    },
    {
      "midi": 69,
      "hit": false,
      "t": 180951.82000000018,
      "d": 1329.360958333331,
      "v": 88
    },
    {
      "midi": 62,
      "hit": false,
      "t": 180951.82000000018,
      "d": 1369.0433750000084,
      "v": 101
    },
    {
      "midi": 65,
      "hit": false,
      "t": 180951.82000000018,
      "d": 1369.0433750000084,
      "v": 79
    },
    {
      "midi": 67,
      "hit": false,
      "t": 182142.29250000019,
      "d": 595.2362500000163,
      "v": 116
    },
    {
      "midi": 72,
      "hit": false,
      "t": 182142.29250000019,
      "d": 694.4422916666954,
      "v": 106
    },
    {
      "midi": 76,
      "hit": false,
      "t": 182142.29250000019,
      "d": 694.4422916666954,
      "v": 97
    },
    {
      "midi": 69,
      "hit": false,
      "t": 182856.5760000002,
      "d": 1170.6312916666793,
      "v": 88
    },
    {
      "midi": 74,
      "hit": false,
      "t": 182856.5760000002,
      "d": 1170.6312916666793,
      "v": 83
    },
    {
      "midi": 77,
      "hit": false,
      "t": 182856.5760000002,
      "d": 1170.6312916666793,
      "v": 97
    },
    {
      "midi": 72,
      "hit": false,
      "t": 184047.0485000002,
      "d": 694.4422916666663,
      "v": 93
    },
    {
      "midi": 76,
      "hit": false,
      "t": 184047.0485000002,
      "d": 694.4422916666663,
      "v": 83
    },
    {
      "midi": 79,
      "hit": false,
      "t": 184047.0485000002,
      "d": 734.1247083333146,
      "v": 74
    },
    {
      "midi": 74,
      "hit": false,
      "t": 184761.3320000002,
      "d": 932.5367916666437,
      "v": 96
    },
    {
      "midi": 77,
      "hit": false,
      "t": 184761.3320000002,
      "d": 932.5367916666437,
      "v": 64
    },
    {
      "midi": 81,
      "hit": false,
      "t": 184761.3320000002,
      "d": 1884.9147916666116,
      "v": 78
    },
    {
      "midi": 76,
      "hit": false,
      "t": 185713.71000000017,
      "d": 456.34779166665976,
      "v": 120
    },
    {
      "midi": 72,
      "hit": false,
      "t": 185713.71000000017,
      "d": 992.0604166666453,
      "v": 106
    },
    {
      "midi": 77,
      "hit": false,
      "t": 186189.89900000015,
      "d": 456.34779166665976,
      "v": 83
    },
    {
      "midi": 70,
      "hit": false,
      "t": 186666.08800000013,
      "d": 932.5367916666728,
      "v": 70
    },
    {
      "midi": 74,
      "hit": false,
      "t": 186666.08800000013,
      "d": 932.5367916666728,
      "v": 106
    },
    {
      "midi": 79,
      "hit": false,
      "t": 187142.27700000015,
      "d": 456.34779166665976,
      "v": 83
    },
    {
      "midi": 77,
      "hit": false,
      "t": 187618.46600000013,
      "d": 456.34779166665976,
      "v": 79
    },
    {
      "midi": 73,
      "hit": false,
      "t": 187618.46600000013,
      "d": 773.8071249999921,
      "v": 74
    },
    {
      "midi": 69,
      "hit": false,
      "t": 187618.46600000013,
      "d": 853.1719583333179,
      "v": 88
    },
    {
      "midi": 76,
      "hit": false,
      "t": 188094.65500000012,
      "d": 456.34779166665976,
      "v": 79
    },
    {
      "midi": 69,
      "hit": false,
      "t": 188570.8440000001,
      "d": 932.5367916666728,
      "v": 88
    },
    {
      "midi": 74,
      "hit": false,
      "t": 188570.8440000001,
      "d": 972.2192083333211,
      "v": 93
    },
    {
      "midi": 77,
      "hit": false,
      "t": 188570.8440000001,
      "d": 1428.566999999981,
      "v": 88
    },
    {
      "midi": 67,
      "hit": false,
      "t": 189523.2220000001,
      "d": 1488.0906249999825,
      "v": 101
    },
    {
      "midi": 72,
      "hit": false,
      "t": 189999.41100000008,
      "d": 932.5367916666728,
      "v": 106
    },
    {
      "midi": 70,
      "hit": false,
      "t": 190951.78900000008,
      "d": 456.34779166665976,
      "v": 106
    },
    {
      "midi": 67,
      "hit": false,
      "t": 191427.97800000006,
      "d": 396.82416666665813,
      "v": 65
    },
    {
      "midi": 69,
      "hit": false,
      "t": 191427.97800000006,
      "d": 396.82416666665813,
      "v": 101
    },
    {
      "midi": 64,
      "hit": false,
      "t": 191427.97800000006,
      "d": 773.8071249999921,
      "v": 93
    },
    {
      "midi": 67,
      "hit": false,
      "t": 191904.16700000004,
      "d": 337.3005416666856,
      "v": 61
    },
    {
      "midi": 69,
      "hit": false,
      "t": 191904.16700000004,
      "d": 337.3005416666856,
      "v": 93
    },
    {
      "midi": 65,
      "hit": false,
      "t": 192380.35600000006,
      "d": 873.0131666666712,
      "v": 79
    },
    {
      "midi": 68,
      "hit": false,
      "t": 192380.35600000006,
      "d": 912.6955833333486,
      "v": 70
    },
    {
      "midi": 72,
      "hit": false,
      "t": 192380.35600000006,
      "d": 912.6955833333486,
      "v": 93
    },
    {
      "midi": 62,
      "hit": false,
      "t": 192380.35600000006,
      "d": 1865.0735833333747,
      "v": 97
    },
    {
      "midi": 65,
      "hit": false,
      "t": 193332.73400000008,
      "d": 873.0131666666712,
      "v": 88
    },
    {
      "midi": 71,
      "hit": false,
      "t": 193332.73400000008,
      "d": 912.6955833333486,
      "v": 65
    },
    {
      "midi": 68,
      "hit": false,
      "t": 194285.1120000001,
      "d": 932.5367916666728,
      "v": 96
    },
    {
      "midi": 74,
      "hit": false,
      "t": 194285.1120000001,
      "d": 932.5367916666728,
      "v": 101
    },
    {
      "midi": 67,
      "hit": false,
      "t": 195237.4900000001,
      "d": 853.171958333347,
      "v": 60
    },
    {
      "midi": 73,
      "hit": false,
      "t": 195237.4900000001,
      "d": 892.8543750000244,
      "v": 60
    },
    {
      "midi": 65,
      "hit": false,
      "t": 196666.05700000012,
      "d": 138.88845833332743,
      "v": 101
    },
    {
      "midi": 69,
      "hit": false,
      "t": 196666.05700000012,
      "d": 138.88845833332743,
      "v": 70
    },
    {
      "midi": 74,
      "hit": false,
      "t": 196666.05700000012,
      "d": 1051.584041666676,
      "v": 101
    },
    {
      "midi": 69,
      "hit": false,
      "t": 196904.15150000012,
      "d": 773.8071249999921,
      "v": 101
    },
    {
      "midi": 81,
      "hit": false,
      "t": 196904.15150000012,
      "d": 992.0604166666744,
      "v": 97
    },
    {
      "midi": 65,
      "hit": false,
      "t": 196904.15150000012,
      "d": 3075.3872916666733,
      "v": 101
    },
    {
      "midi": 74,
      "hit": false,
      "t": 197856.52950000012,
      "d": 2083.326874999999,
      "v": 93
    },
    {
      "midi": 69,
      "hit": false,
      "t": 197856.52950000012,
      "d": 2123.0092916666763,
      "v": 97
    },
    {
      "midi": 77,
      "hit": false,
      "t": 197856.52950000012,
      "d": 2123.0092916666763,
      "v": 111
    },
    {
      "midi": 64,
      "hit": false,
      "t": 199999.38000000012,
      "d": 892.8543749999953,
      "v": 108
    },
    {
      "midi": 57,
      "hit": false,
      "t": 199999.38000000012,
      "d": 932.5367916666728,
      "v": 108
    },
    {
      "midi": 73,
      "hit": false,
      "t": 199999.38000000012,
      "d": 932.5367916666728,
      "v": 108
    },
    {
      "midi": 56,
      "hit": false,
      "t": 200951.75800000012,
      "d": 932.5367916666728,
      "v": 68
    },
    {
      "midi": 59,
      "hit": false,
      "t": 200951.75800000012,
      "d": 932.5367916666728,
      "v": 101
    },
    {
      "midi": 61,
      "hit": false,
      "t": 200951.75800000012,
      "d": 932.5367916666728,
      "v": 86
    },
    {
      "midi": 64,
      "hit": false,
      "t": 200951.75800000012,
      "d": 932.5367916666728,
      "v": 108
    },
    {
      "midi": 57,
      "hit": false,
      "t": 201904.13600000012,
      "d": 853.171958333347,
      "v": 101
    },
    {
      "midi": 62,
      "hit": false,
      "t": 201904.13600000012,
      "d": 892.8543750000244,
      "v": 108
    },
    {
      "midi": 54,
      "hit": false,
      "t": 201904.13600000012,
      "d": 932.5367916667019,
      "v": 86
    },
    {
      "midi": 62,
      "hit": false,
      "t": 202856.51400000014,
      "d": 892.8543749999953,
      "v": 108
    },
    {
      "midi": 57,
      "hit": false,
      "t": 202856.51400000014,
      "d": 932.5367916666728,
      "v": 108
    },
    {
      "midi": 66,
      "hit": false,
      "t": 202856.51400000014,
      "d": 932.5367916666728,
      "v": 108
    },
    {
      "midi": 61,
      "hit": false,
      "t": 203808.89200000014,
      "d": 853.171958333347,
      "v": 108
    },
    {
      "midi": 57,
      "hit": false,
      "t": 203808.89200000014,
      "d": 932.5367916666728,
      "v": 105
    },
    {
      "midi": 64,
      "hit": false,
      "t": 203808.89200000014,
      "d": 932.5367916666728,
      "v": 108
    },
    {
      "midi": 61,
      "hit": false,
      "t": 204761.27000000014,
      "d": 873.0131666666712,
      "v": 108
    },
    {
      "midi": 59,
      "hit": false,
      "t": 204761.27000000014,
      "d": 932.5367916666728,
      "v": 105
    },
    {
      "midi": 65,
      "hit": false,
      "t": 204761.27000000014,
      "d": 932.5367916666728,
      "v": 108
    },
    {
      "midi": 57,
      "hit": false,
      "t": 205713.64800000013,
      "d": 873.0131666666712,
      "v": 86
    },
    {
      "midi": 61,
      "hit": false,
      "t": 205713.64800000013,
      "d": 873.0131666666712,
      "v": 108
    },
    {
      "midi": 66,
      "hit": false,
      "t": 205713.64800000013,
      "d": 932.5367916666728,
      "v": 108
    },
    {
      "midi": 57,
      "hit": false,
      "t": 206666.02600000013,
      "d": 873.0131666666712,
      "v": 96
    },
    {
      "midi": 61,
      "hit": false,
      "t": 206666.02600000013,
      "d": 873.0131666666712,
      "v": 91
    },
    {
      "midi": 64,
      "hit": false,
      "t": 206666.02600000013,
      "d": 873.0131666666712,
      "v": 108
    },
    {
      "midi": 67,
      "hit": false,
      "t": 206666.02600000013,
      "d": 873.0131666666712,
      "v": 108
    },
    {
      "midi": 57,
      "hit": false,
      "t": 207618.40400000013,
      "d": 853.171958333347,
      "v": 105
    },
    {
      "midi": 62,
      "hit": false,
      "t": 207618.40400000013,
      "d": 853.171958333347,
      "v": 108
    },
    {
      "midi": 66,
      "hit": false,
      "t": 207618.40400000013,
      "d": 932.5367916666728,
      "v": 108
    },
    {
      "midi": 57,
      "hit": false,
      "t": 208570.78200000012,
      "d": 853.171958333347,
      "v": 78
    },
    {
      "midi": 61,
      "hit": false,
      "t": 208570.78200000012,
      "d": 932.5367916666728,
      "v": 86
    },
    {
      "midi": 64,
      "hit": false,
      "t": 208570.78200000012,
      "d": 932.5367916666728,
      "v": 108
    },
    {
      "midi": 54,
      "hit": false,
      "t": 209523.16000000012,
      "d": 932.5367916666728,
      "v": 91
    },
    {
      "midi": 57,
      "hit": false,
      "t": 209523.16000000012,
      "d": 932.5367916666728,
      "v": 91
    },
    {
      "midi": 62,
      "hit": false,
      "t": 209523.16000000012,
      "d": 932.5367916666728,
      "v": 108
    },
    {
      "midi": 62,
      "hit": false,
      "t": 210475.53800000012,
      "d": 932.5367916666728,
      "v": 108
    },
    {
      "midi": 66,
      "hit": false,
      "t": 210475.53800000012,
      "d": 932.5367916666728,
      "v": 72
    },
    {
      "midi": 69,
      "hit": false,
      "t": 210475.53800000012,
      "d": 932.5367916666728,
      "v": 72
    },
    {
      "midi": 54,
      "hit": false,
      "t": 211427.9160000001,
      "d": 178.5708750000049,
      "v": 108
    },
    {
      "midi": 61,
      "hit": false,
      "t": 211427.9160000001,
      "d": 456.34779166665976,
      "v": 108
    },
    {
      "midi": 64,
      "hit": false,
      "t": 211427.9160000001,
      "d": 456.34779166665976,
      "v": 72
    },
    {
      "midi": 68,
      "hit": false,
      "t": 211427.9160000001,
      "d": 456.34779166665976,
      "v": 72
    },
    {
      "midi": 56,
      "hit": false,
      "t": 211904.1050000001,
      "d": 198.41208333332906,
      "v": 101
    },
    {
      "midi": 64,
      "hit": false,
      "t": 211904.1050000001,
      "d": 198.41208333332906,
      "v": 91
    },
    {
      "midi": 59,
      "hit": false,
      "t": 211904.1050000001,
      "d": 277.776916666684,
      "v": 86
    },
    {
      "midi": 57,
      "hit": false,
      "t": 212142.1995000001,
      "d": 79.36483333335491,
      "v": 86
    },
    {
      "midi": 61,
      "hit": false,
      "t": 212142.1995000001,
      "d": 138.88845833335654,
      "v": 68
    },
    {
      "midi": 66,
      "hit": false,
      "t": 212142.1995000001,
      "d": 138.88845833335654,
      "v": 91
    },
    {
      "midi": 54,
      "hit": false,
      "t": 212618.38850000012,
      "d": 178.5708750000049,
      "v": 108
    },
    {
      "midi": 68,
      "hit": false,
      "t": 212856.48300000012,
      "d": 119.04725000000326,
      "v": 86
    },
    {
      "midi": 64,
      "hit": false,
      "t": 212856.48300000012,
      "d": 238.09450000000652,
      "v": 105
    },
    {
      "midi": 71,
      "hit": false,
      "t": 212856.48300000012,
      "d": 297.61812500000815,
      "v": 86
    },
    {
      "midi": 66,
      "hit": false,
      "t": 213094.57750000013,
      "d": 99.20604166667908,
      "v": 78
    },
    {
      "midi": 69,
      "hit": false,
      "t": 213094.57750000013,
      "d": 99.20604166667908,
      "v": 82
    },
    {
      "midi": 73,
      "hit": false,
      "t": 213094.57750000013,
      "d": 99.20604166667908,
      "v": 91
    },
    {
      "midi": 54,
      "hit": false,
      "t": 213570.76650000014,
      "d": 178.5708750000049,
      "v": 108
    },
    {
      "midi": 68,
      "hit": false,
      "t": 213808.86100000015,
      "d": 138.88845833332743,
      "v": 101
    },
    {
      "midi": 76,
      "hit": false,
      "t": 213808.86100000015,
      "d": 198.41208333332906,
      "v": 91
    },
    {
      "midi": 71,
      "hit": false,
      "t": 213808.86100000015,
      "d": 277.776916666684,
      "v": 78
    },
    {
      "midi": 69,
      "hit": false,
      "t": 214046.95550000016,
      "d": 79.36483333335491,
      "v": 96
    },
    {
      "midi": 73,
      "hit": false,
      "t": 214046.95550000016,
      "d": 119.04725000003236,
      "v": 78
    },
    {
      "midi": 78,
      "hit": false,
      "t": 214046.95550000016,
      "d": 119.04725000003236,
      "v": 86
    },
    {
      "midi": 54,
      "hit": false,
      "t": 214523.1445000002,
      "d": 238.09450000000652,
      "v": 108
    },
    {
      "midi": 56,
      "hit": false,
      "t": 214761.2390000002,
      "d": 416.6653750000114,
      "v": 108
    },
    {
      "midi": 64,
      "hit": false,
      "t": 214761.2390000002,
      "d": 416.6653750000114,
      "v": 108
    },
    {
      "midi": 71,
      "hit": false,
      "t": 214761.2390000002,
      "d": 416.6653750000114,
      "v": 108
    },
    {
      "midi": 76,
      "hit": false,
      "t": 214761.2390000002,
      "d": 416.6653750000114,
      "v": 97
    },
    {
      "midi": 64,
      "hit": false,
      "t": 215237.42800000022,
      "d": 892.8543749999953,
      "v": 108
    },
    {
      "midi": 57,
      "hit": false,
      "t": 215237.42800000022,
      "d": 932.5367916666728,
      "v": 108
    },
    {
      "midi": 73,
      "hit": false,
      "t": 215237.42800000022,
      "d": 932.5367916666728,
      "v": 108
    },
    {
      "midi": 56,
      "hit": false,
      "t": 216189.80600000022,
      "d": 932.5367916666728,
      "v": 68
    },
    {
      "midi": 59,
      "hit": false,
      "t": 216189.80600000022,
      "d": 932.5367916666728,
      "v": 101
    },
    {
      "midi": 61,
      "hit": false,
      "t": 216189.80600000022,
      "d": 932.5367916666728,
      "v": 86
    },
    {
      "midi": 64,
      "hit": false,
      "t": 216189.80600000022,
      "d": 932.5367916666728,
      "v": 108
    },
    {
      "midi": 57,
      "hit": false,
      "t": 217142.1840000002,
      "d": 853.171958333347,
      "v": 101
    },
    {
      "midi": 62,
      "hit": false,
      "t": 217142.1840000002,
      "d": 892.8543750000244,
      "v": 108
    },
    {
      "midi": 54,
      "hit": false,
      "t": 217142.1840000002,
      "d": 932.5367916667019,
      "v": 86
    },
    {
      "midi": 62,
      "hit": false,
      "t": 218094.56200000024,
      "d": 892.8543749999953,
      "v": 108
    },
    {
      "midi": 57,
      "hit": false,
      "t": 218094.56200000024,
      "d": 932.5367916666728,
      "v": 108
    },
    {
      "midi": 66,
      "hit": false,
      "t": 218094.56200000024,
      "d": 932.5367916666728,
      "v": 108
    },
    {
      "midi": 61,
      "hit": false,
      "t": 219046.94000000024,
      "d": 853.171958333347,
      "v": 108
    },
    {
      "midi": 57,
      "hit": false,
      "t": 219046.94000000024,
      "d": 932.5367916666728,
      "v": 105
    },
    {
      "midi": 64,
      "hit": false,
      "t": 219046.94000000024,
      "d": 932.5367916666728,
      "v": 108
    },
    {
      "midi": 61,
      "hit": false,
      "t": 219999.31800000023,
      "d": 873.0131666666712,
      "v": 108
    },
    {
      "midi": 59,
      "hit": false,
      "t": 219999.31800000023,
      "d": 932.5367916666728,
      "v": 105
    },
    {
      "midi": 65,
      "hit": false,
      "t": 219999.31800000023,
      "d": 932.5367916666728,
      "v": 108
    },
    {
      "midi": 57,
      "hit": false,
      "t": 220951.69600000023,
      "d": 873.0131666666712,
      "v": 86
    },
    {
      "midi": 61,
      "hit": false,
      "t": 220951.69600000023,
      "d": 873.0131666666712,
      "v": 108
    },
    {
      "midi": 66,
      "hit": false,
      "t": 220951.69600000023,
      "d": 932.5367916666728,
      "v": 108
    },
    {
      "midi": 57,
      "hit": false,
      "t": 221904.07400000023,
      "d": 873.0131666666712,
      "v": 96
    },
    {
      "midi": 61,
      "hit": false,
      "t": 221904.07400000023,
      "d": 873.0131666666712,
      "v": 91
    },
    {
      "midi": 64,
      "hit": false,
      "t": 221904.07400000023,
      "d": 873.0131666666712,
      "v": 108
    },
    {
      "midi": 67,
      "hit": false,
      "t": 221904.07400000023,
      "d": 873.0131666666712,
      "v": 108
    },
    {
      "midi": 57,
      "hit": false,
      "t": 222856.45200000022,
      "d": 833.3307499999937,
      "v": 105
    },
    {
      "midi": 62,
      "hit": false,
      "t": 222856.45200000022,
      "d": 833.3307499999937,
      "v": 108
    },
    {
      "midi": 66,
      "hit": false,
      "t": 222856.45200000022,
      "d": 932.5367916666728,
      "v": 108
    },
    {
      "midi": 57,
      "hit": false,
      "t": 223808.83000000022,
      "d": 853.171958333347,
      "v": 78
    },
    {
      "midi": 61,
      "hit": false,
      "t": 223808.83000000022,
      "d": 932.5367916666728,
      "v": 86
    },
    {
      "midi": 64,
      "hit": false,
      "t": 223808.83000000022,
      "d": 932.5367916666728,
      "v": 108
    },
    {
      "midi": 54,
      "hit": false,
      "t": 224761.20800000022,
      "d": 932.5367916666728,
      "v": 91
    },
    {
      "midi": 57,
      "hit": false,
      "t": 224761.20800000022,
      "d": 932.5367916666728,
      "v": 91
    },
    {
      "midi": 62,
      "hit": false,
      "t": 224761.20800000022,
      "d": 932.5367916666728,
      "v": 108
    },
    {
      "midi": 54,
      "hit": false,
      "t": 225713.5860000002,
      "d": 932.5367916666728,
      "v": 69
    },
    {
      "midi": 57,
      "hit": false,
      "t": 225713.5860000002,
      "d": 932.5367916666728,
      "v": 87
    },
    {
      "midi": 61,
      "hit": false,
      "t": 225713.5860000002,
      "d": 932.5367916666728,
      "v": 108
    },
    {
      "midi": 56,
      "hit": false,
      "t": 226665.9640000002,
      "d": 1884.9147916666698,
      "v": 108
    },
    {
      "midi": 59,
      "hit": false,
      "t": 226665.9640000002,
      "d": 1884.9147916666698,
      "v": 101
    },
    {
      "midi": 62,
      "hit": false,
      "t": 226665.9640000002,
      "d": 1884.9147916666698,
      "v": 108
    },
    {
      "midi": 56,
      "hit": false,
      "t": 228570.7200000002,
      "d": 1884.9147916666698,
      "v": 108
    },
    {
      "midi": 59,
      "hit": false,
      "t": 228570.7200000002,
      "d": 1884.9147916666698,
      "v": 108
    },
    {
      "midi": 61,
      "hit": false,
      "t": 228570.7200000002,
      "d": 1884.9147916666698,
      "v": 106
    },
    {
      "midi": 65,
      "hit": false,
      "t": 228570.7200000002,
      "d": 1884.9147916666698,
      "v": 65
    },
    {
      "midi": 66,
      "hit": false,
      "t": 230475.4760000002,
      "d": 1170.6312916666793,
      "v": 101
    },
    {
      "midi": 61,
      "hit": false,
      "t": 230475.4760000002,
      "d": 1646.8202916666633,
      "v": 101
    },
    {
      "midi": 57,
      "hit": false,
      "t": 230475.4760000002,
      "d": 2837.2927916666085,
      "v": 105
    },
    {
      "midi": 64,
      "hit": false,
      "t": 231665.9485000002,
      "d": 753.9659166666388,
      "v": 101
    },
    {
      "midi": 62,
      "hit": false,
      "t": 232142.1375000002,
      "d": 515.8714166666614,
      "v": 101
    },
    {
      "midi": 61,
      "hit": false,
      "t": 232618.32650000017,
      "d": 257.9357083333307,
      "v": 86
    },
    {
      "midi": 62,
      "hit": false,
      "t": 232856.42100000018,
      "d": 238.09449999997742,
      "v": 96
    },
    {
      "midi": 64,
      "hit": false,
      "t": 233094.51550000015,
      "d": 476.18899999998393,
      "v": 101
    },
    {
      "midi": 56,
      "hit": false,
      "t": 233332.61000000013,
      "d": 932.5367916666728,
      "v": 49
    },
    {
      "midi": 62,
      "hit": false,
      "t": 233808.79900000014,
      "d": 376.98295833333395,
      "v": 91
    },
    {
      "midi": 57,
      "hit": false,
      "t": 234284.98800000013,
      "d": 932.5367916666728,
      "v": 108
    },
    {
      "midi": 61,
      "hit": false,
      "t": 234284.98800000013,
      "d": 932.5367916666728,
      "v": 108
    },
    {
      "midi": 66,
      "hit": false,
      "t": 234761.17700000014,
      "d": 456.34779166665976,
      "v": 104
    },
    {
      "midi": 59,
      "hit": false,
      "t": 235237.36600000013,
      "d": 892.8543750000244,
      "v": 108
    },
    {
      "midi": 64,
      "hit": false,
      "t": 235237.36600000013,
      "d": 892.8543750000244,
      "v": 108
    },
    {
      "midi": 56,
      "hit": false,
      "t": 235237.36600000013,
      "d": 932.5367916667019,
      "v": 78
    },
    {
      "midi": 69,
      "hit": false,
      "t": 235713.55500000014,
      "d": 376.98295833333395,
      "v": 108
    },
    {
      "midi": 71,
      "hit": false,
      "t": 236189.74400000015,
      "d": 456.34779166665976,
      "v": 105
    },
    {
      "midi": 57,
      "hit": false,
      "t": 236189.74400000015,
      "d": 634.9186666666646,
      "v": 68
    },
    {
      "midi": 62,
      "hit": false,
      "t": 236189.74400000015,
      "d": 813.4895416666695,
      "v": 73
    },
    {
      "midi": 54,
      "hit": false,
      "t": 236189.74400000015,
      "d": 932.5367916666728,
      "v": 68
    },
    {
      "midi": 60,
      "hit": false,
      "t": 236189.74400000015,
      "d": 932.5367916666728,
      "v": 68
    },
    {
      "midi": 69,
      "hit": false,
      "t": 236665.93300000014,
      "d": 456.34779166668886,
      "v": 108
    },
    {
      "midi": 66,
      "hit": false,
      "t": 237142.12200000015,
      "d": 496.0302083333372,
      "v": 73
    },
    {
      "midi": 56,
      "hit": false,
      "t": 237142.12200000015,
      "d": 833.3307499999937,
      "v": 73
    },
    {
      "midi": 68,
      "hit": false,
      "t": 237142.12200000015,
      "d": 833.3307499999937,
      "v": 96
    },
    {
      "midi": 61,
      "hit": false,
      "t": 237142.12200000015,
      "d": 932.5367916666728,
      "v": 68
    },
    {
      "midi": 65,
      "hit": false,
      "t": 237618.31100000016,
      "d": 357.1417499999807,
      "v": 62
    },
    {
      "midi": 57,
      "hit": false,
      "t": 238094.50000000015,
      "d": 3789.6707916666637,
      "v": 46
    },
    {
      "midi": 66,
      "hit": false,
      "t": 238094.50000000015,
      "d": 4821.4136249999865,
      "v": 108
    },
    {
      "midi": 61,
      "hit": false,
      "t": 238094.50000000015,
      "d": 5674.5855833333335,
      "v": 78
    },
    {
      "midi": 59,
      "hit": false,
      "t": 241904.01200000013,
      "d": 932.5367916666728,
      "v": 1
    },
    {
      "midi": 65,
      "hit": false,
      "t": 242856.39000000013,
      "d": 853.171958333347,
      "v": 1
    },
    {
      "midi": 62,
      "hit": false,
      "t": 243808.76800000016,
      "d": 1884.9147916666698,
      "v": 91
    },
    {
      "midi": 66,
      "hit": false,
      "t": 243808.76800000016,
      "d": 1884.9147916666698,
      "v": 91
    },
    {
      "midi": 59,
      "hit": false,
      "t": 245713.52400000015,
      "d": 1884.9147916666698,
      "v": 63
    },
    {
      "midi": 64,
      "hit": false,
      "t": 245713.52400000015,
      "d": 1884.9147916666698,
      "v": 86
    },
    {
      "midi": 68,
      "hit": false,
      "t": 245713.52400000015,
      "d": 1884.9147916666698,
      "v": 58
    },
    {
      "midi": 61,
      "hit": false,
      "t": 247618.28000000014,
      "d": 3769.8295833333395,
      "v": 53
    },
    {
      "midi": 64,
      "hit": false,
      "t": 247618.28000000014,
      "d": 3769.8295833333395,
      "v": 63
    },
    {
      "midi": 68,
      "hit": false,
      "t": 247618.28000000014,
      "d": 3769.8295833333395,
      "v": 55
    },
    {
      "midi": 62,
      "hit": false,
      "t": 251427.79200000016,
      "d": 2837.2927916666667,
      "v": 78
    },
    {
      "midi": 66,
      "hit": false,
      "t": 251427.79200000016,
      "d": 2837.2927916666667,
      "v": 73
    },
    {
      "midi": 59,
      "hit": false,
      "t": 251427.79200000016,
      "d": 3789.6707916666055,
      "v": 59
    },
    {
      "midi": 64,
      "hit": false,
      "t": 254284.92600000015,
      "d": 456.34779166665976,
      "v": 108
    },
    {
      "midi": 69,
      "hit": false,
      "t": 254761.11500000014,
      "d": 218.25329166665324,
      "v": 108
    },
    {
      "midi": 71,
      "hit": false,
      "t": 254999.2095000001,
      "d": 1408.7257916666567,
      "v": 108
    },
    {
      "midi": 64,
      "hit": false,
      "t": 255237.3040000001,
      "d": 1884.9147916666407,
      "v": 101
    },
    {
      "midi": 61,
      "hit": false,
      "t": 255237.3040000001,
      "d": 3670.6235416666314,
      "v": 78
    },
    {
      "midi": 76,
      "hit": false,
      "t": 256427.7765000001,
      "d": 456.34779166665976,
      "v": 101
    },
    {
      "midi": 73,
      "hit": false,
      "t": 256903.96550000008,
      "d": 2123.009291666647,
      "v": 96
    },
    {
      "midi": 66,
      "hit": false,
      "t": 257142.06000000006,
      "d": 1884.9147916666698,
      "v": 48
    },
    {
      "midi": 50,
      "hit": false,
      "t": 259046.81600000005,
      "d": 1884.9147916666698,
      "v": 104
    },
    {
      "midi": 62,
      "hit": false,
      "t": 259046.81600000005,
      "d": 1884.9147916666698,
      "v": 91
    },
    {
      "midi": 66,
      "hit": false,
      "t": 259046.81600000005,
      "d": 1884.9147916666698,
      "v": 91
    },
    {
      "midi": 59,
      "hit": false,
      "t": 260951.57200000004,
      "d": 1884.9147916666698,
      "v": 63
    },
    {
      "midi": 64,
      "hit": false,
      "t": 260951.57200000004,
      "d": 1884.9147916666698,
      "v": 86
    },
    {
      "midi": 68,
      "hit": false,
      "t": 260951.57200000004,
      "d": 1884.9147916666698,
      "v": 58
    },
    {
      "midi": 61,
      "hit": false,
      "t": 262856.32800000004,
      "d": 3769.8295833333395,
      "v": 53
    },
    {
      "midi": 64,
      "hit": false,
      "t": 262856.32800000004,
      "d": 3769.8295833333395,
      "v": 63
    },
    {
      "midi": 68,
      "hit": false,
      "t": 262856.32800000004,
      "d": 3769.8295833333395,
      "v": 55
    },
    {
      "midi": 62,
      "hit": false,
      "t": 266665.84,
      "d": 2837.2927916666376,
      "v": 78
    },
    {
      "midi": 66,
      "hit": false,
      "t": 266665.84,
      "d": 2837.2927916666376,
      "v": 73
    },
    {
      "midi": 59,
      "hit": false,
      "t": 266665.84,
      "d": 3789.6707916666637,
      "v": 59
    },
    {
      "midi": 64,
      "hit": false,
      "t": 269522.974,
      "d": 456.34779166668886,
      "v": 108
    },
    {
      "midi": 69,
      "hit": false,
      "t": 269999.163,
      "d": 218.25329166668234,
      "v": 108
    },
    {
      "midi": 71,
      "hit": false,
      "t": 270237.2575,
      "d": 1408.7257916666567,
      "v": 108
    },
    {
      "midi": 61,
      "hit": false,
      "t": 270475.352,
      "d": 1170.6312916666502,
      "v": 78
    },
    {
      "midi": 64,
      "hit": false,
      "t": 270475.352,
      "d": 1170.6312916666502,
      "v": 101
    },
    {
      "midi": 68,
      "hit": false,
      "t": 271665.8245,
      "d": 59.523624999972526,
      "v": 101
    },
    {
      "midi": 71,
      "hit": false,
      "t": 271665.8245,
      "d": 59.523624999972526,
      "v": 96
    },
    {
      "midi": 76,
      "hit": false,
      "t": 271665.8245,
      "d": 59.523624999972526,
      "v": 105
    },
    {
      "midi": 66,
      "hit": false,
      "t": 272142.01349999994,
      "d": 2142.8505000000005,
      "v": 101
    },
    {
      "midi": 69,
      "hit": false,
      "t": 272142.01349999994,
      "d": 2142.8505000000005,
      "v": 86
    },
    {
      "midi": 73,
      "hit": false,
      "t": 272142.01349999994,
      "d": 2182.532916666649,
      "v": 101
    }
  ]
}