{
  "jsonPath": "Unknown/Unknown/RMB/redemption-20.json",
  "path": "Unknown\\Unknown\\RMB\\Redemption 20.mid",
  "name": "Redemption 20",
  "difficulty": "Advanced",
  "bpm": 133.00024161710562,
  "notes": [
    {
      "midi": 40,
      "hit": false,
      "t": 2030.0715,
      "d": 71.42844166666646,
      "v": 102
    },
    {
      "midi": 40,
      "hit": false,
      "t": 2473.6797166666665,
      "d": 75.1878333333334,
      "v": 102
    },
    {
      "midi": 40,
      "hit": false,
      "t": 2928.5661083333334,
      "d": 75.1878333333334,
      "v": 102
    },
    {
      "midi": 45,
      "hit": false,
      "t": 3270.67075,
      "d": 101.50357499999973,
      "v": 109
    },
    {
      "midi": 40,
      "hit": false,
      "t": 3379.693108333333,
      "d": 26.31574166666678,
      "v": 96
    },
    {
      "midi": 43,
      "hit": false,
      "t": 3496.2342500000004,
      "d": 259.3980250000004,
      "v": 102
    },
    {
      "midi": 43,
      "hit": false,
      "t": 3718.0383583333332,
      "d": 26.31574166666678,
      "v": 49
    },
    {
      "midi": 40,
      "hit": false,
      "t": 3830.8201083333333,
      "d": 26.31574166666678,
      "v": 96
    },
    {
      "midi": 40,
      "hit": false,
      "t": 3830.8201083333342,
      "d": 71.42844166666646,
      "v": 102
    },
    {
      "midi": 40,
      "hit": false,
      "t": 4278.187716666667,
      "d": 75.1878333333334,
      "v": 102
    },
    {
      "midi": 40,
      "hit": false,
      "t": 4507.510608333333,
      "d": 26.315741666666327,
      "v": 58
    },
    {
      "midi": 40,
      "hit": false,
      "t": 4620.292358333332,
      "d": 26.315741666666327,
      "v": 58
    },
    {
      "midi": 40,
      "hit": false,
      "t": 4729.314716666668,
      "d": 75.1878333333334,
      "v": 102
    },
    {
      "midi": 40,
      "hit": false,
      "t": 4733.074108333332,
      "d": 26.315741666666327,
      "v": 99
    },
    {
      "midi": 45,
      "hit": false,
      "t": 5071.4193583333345,
      "d": 101.50357499999973,
      "v": 109
    },
    {
      "midi": 40,
      "hit": false,
      "t": 5184.201108333332,
      "d": 26.315741666666327,
      "v": 96
    },
    {
      "midi": 43,
      "hit": false,
      "t": 5296.982858333334,
      "d": 259.3980249999986,
      "v": 102
    },
    {
      "midi": 43,
      "hit": false,
      "t": 5522.546358333331,
      "d": 26.315741666666327,
      "v": 31
    },
    {
      "midi": 40,
      "hit": false,
      "t": 5635.328108333331,
      "d": 26.315741666666327,
      "v": 88
    },
    {
      "midi": 40,
      "hit": false,
      "t": 5639.087499999999,
      "d": 71.42844166666691,
      "v": 102
    },
    {
      "midi": 40,
      "hit": false,
      "t": 6082.695716666666,
      "d": 75.1878333333334,
      "v": 102
    },
    {
      "midi": 40,
      "hit": false,
      "t": 6537.582108333333,
      "d": 75.1878333333334,
      "v": 102
    },
    {
      "midi": 45,
      "hit": false,
      "t": 6879.68675,
      "d": 101.50357500000064,
      "v": 109
    },
    {
      "midi": 40,
      "hit": false,
      "t": 6988.709108333331,
      "d": 26.315741666666327,
      "v": 96
    },
    {
      "midi": 43,
      "hit": false,
      "t": 7105.25025,
      "d": 259.3980249999995,
      "v": 102
    },
    {
      "midi": 43,
      "hit": false,
      "t": 7327.05435833333,
      "d": 26.315741666666327,
      "v": 43
    },
    {
      "midi": 40,
      "hit": false,
      "t": 7439.836108333329,
      "d": 26.315741666666327,
      "v": 88
    },
    {
      "midi": 40,
      "hit": false,
      "t": 7439.836108333333,
      "d": 71.42844166666691,
      "v": 102
    },
    {
      "midi": 40,
      "hit": false,
      "t": 7887.203716666667,
      "d": 75.1878333333334,
      "v": 102
    },
    {
      "midi": 40,
      "hit": false,
      "t": 8338.330716666667,
      "d": 75.1878333333334,
      "v": 102
    },
    {
      "midi": 45,
      "hit": false,
      "t": 8680.435358333334,
      "d": 101.50357500000064,
      "v": 109
    },
    {
      "midi": 45,
      "hit": false,
      "t": 8793.217108333329,
      "d": 11.278174999999464,
      "v": 93
    },
    {
      "midi": 43,
      "hit": false,
      "t": 8905.998858333334,
      "d": 259.3980249999986,
      "v": 102
    },
    {
      "midi": 43,
      "hit": false,
      "t": 9131.562358333329,
      "d": 26.315741666667236,
      "v": 47
    },
    {
      "midi": 40,
      "hit": false,
      "t": 9244.34410833333,
      "d": 26.315741666667236,
      "v": 88
    },
    {
      "midi": 40,
      "hit": false,
      "t": 9248.1035,
      "d": 71.42844166666691,
      "v": 102
    },
    {
      "midi": 40,
      "hit": false,
      "t": 9691.711716666665,
      "d": 75.1878333333334,
      "v": 102
    },
    {
      "midi": 40,
      "hit": false,
      "t": 10146.598108333332,
      "d": 75.1878333333334,
      "v": 102
    },
    {
      "midi": 45,
      "hit": false,
      "t": 10488.702749999999,
      "d": 101.50357500000064,
      "v": 109
    },
    {
      "midi": 40,
      "hit": false,
      "t": 10597.725108333329,
      "d": 26.315741666667236,
      "v": 96
    },
    {
      "midi": 43,
      "hit": false,
      "t": 10714.266249999999,
      "d": 259.3980249999968,
      "v": 102
    },
    {
      "midi": 43,
      "hit": false,
      "t": 10936.070358333329,
      "d": 26.315741666667236,
      "v": 47
    },
    {
      "midi": 40,
      "hit": false,
      "t": 11048.852108333327,
      "d": 71.42844166666691,
      "v": 102
    },
    {
      "midi": 40,
      "hit": false,
      "t": 11048.852108333329,
      "d": 26.315741666667236,
      "v": 96
    },
    {
      "midi": 40,
      "hit": false,
      "t": 11496.21971666666,
      "d": 75.1878333333334,
      "v": 102
    },
    {
      "midi": 40,
      "hit": false,
      "t": 11725.54260833333,
      "d": 26.315741666667236,
      "v": 58
    },
    {
      "midi": 40,
      "hit": false,
      "t": 11838.32435833333,
      "d": 26.315741666667236,
      "v": 58
    },
    {
      "midi": 40,
      "hit": false,
      "t": 11947.34671666666,
      "d": 75.1878333333334,
      "v": 102
    },
    {
      "midi": 40,
      "hit": false,
      "t": 11951.10610833333,
      "d": 26.315741666667236,
      "v": 99
    },
    {
      "midi": 45,
      "hit": false,
      "t": 12289.451358333326,
      "d": 101.50357500000064,
      "v": 109
    },
    {
      "midi": 40,
      "hit": false,
      "t": 12402.23310833333,
      "d": 26.315741666667236,
      "v": 96
    },
    {
      "midi": 43,
      "hit": false,
      "t": 12515.014858333327,
      "d": 259.3980249999986,
      "v": 102
    },
    {
      "midi": 43,
      "hit": false,
      "t": 12740.57835833333,
      "d": 26.315741666667236,
      "v": 51
    },
    {
      "midi": 40,
      "hit": false,
      "t": 12853.36010833333,
      "d": 26.315741666667236,
      "v": 88
    },
    {
      "midi": 40,
      "hit": false,
      "t": 12857.119499999992,
      "d": 71.42844166666691,
      "v": 102
    },
    {
      "midi": 40,
      "hit": false,
      "t": 13300.727716666657,
      "d": 75.1878333333334,
      "v": 102
    },
    {
      "midi": 40,
      "hit": false,
      "t": 13755.614108333324,
      "d": 75.1878333333334,
      "v": 102
    },
    {
      "midi": 45,
      "hit": false,
      "t": 14097.71874999999,
      "d": 101.50357500000064,
      "v": 109
    },
    {
      "midi": 40,
      "hit": false,
      "t": 14206.741108333332,
      "d": 26.315741666667236,
      "v": 96
    },
    {
      "midi": 43,
      "hit": false,
      "t": 14323.282249999991,
      "d": 259.3980249999968,
      "v": 102
    },
    {
      "midi": 43,
      "hit": false,
      "t": 14545.086358333332,
      "d": 26.315741666667236,
      "v": 51
    },
    {
      "midi": 40,
      "hit": false,
      "t": 14657.86810833332,
      "d": 71.42844166666691,
      "v": 102
    },
    {
      "midi": 40,
      "hit": false,
      "t": 14657.868108333332,
      "d": 26.315741666667236,
      "v": 96
    },
    {
      "midi": 40,
      "hit": false,
      "t": 15105.235716666652,
      "d": 75.1878333333334,
      "v": 102
    },
    {
      "midi": 40,
      "hit": false,
      "t": 15556.362716666652,
      "d": 75.1878333333334,
      "v": 102
    },
    {
      "midi": 45,
      "hit": false,
      "t": 15898.467358333319,
      "d": 101.50357500000064,
      "v": 109
    },
    {
      "midi": 40,
      "hit": false,
      "t": 16011.249108333333,
      "d": 26.315741666667236,
      "v": 96
    },
    {
      "midi": 43,
      "hit": false,
      "t": 16124.030858333319,
      "d": 259.3980249999986,
      "v": 102
    },
    {
      "midi": 52,
      "hit": false,
      "t": 16236.81260833333,
      "d": 447.3676083333339,
      "v": 1
    },
    {
      "midi": 55,
      "hit": false,
      "t": 16236.81260833333,
      "d": 447.3676083333339,
      "v": 1
    },
    {
      "midi": 67,
      "hit": false,
      "t": 16236.81260833333,
      "d": 447.3676083333339,
      "v": 1
    },
    {
      "midi": 40,
      "hit": false,
      "t": 16466.135499999986,
      "d": 71.42844166666691,
      "v": 102
    },
    {
      "midi": 40,
      "hit": false,
      "t": 16909.743716666653,
      "d": 75.1878333333334,
      "v": 102
    },
    {
      "midi": 40,
      "hit": false,
      "t": 17364.630108333316,
      "d": 75.1878333333334,
      "v": 102
    },
    {
      "midi": 45,
      "hit": false,
      "t": 17706.73474999998,
      "d": 101.50357499999882,
      "v": 109
    },
    {
      "midi": 40,
      "hit": false,
      "t": 17815.757108333335,
      "d": 26.315741666665417,
      "v": 96
    },
    {
      "midi": 43,
      "hit": false,
      "t": 17932.29824999998,
      "d": 259.3980250000059,
      "v": 102
    },
    {
      "midi": 52,
      "hit": false,
      "t": 18041.32060833333,
      "d": 447.3676083333339,
      "v": 1
    },
    {
      "midi": 55,
      "hit": false,
      "t": 18041.32060833333,
      "d": 447.3676083333339,
      "v": 1
    },
    {
      "midi": 67,
      "hit": false,
      "t": 18041.32060833333,
      "d": 447.3676083333339,
      "v": 1
    },
    {
      "midi": 40,
      "hit": false,
      "t": 18266.88410833332,
      "d": 71.42844166666691,
      "v": 102
    },
    {
      "midi": 40,
      "hit": false,
      "t": 18714.251716666655,
      "d": 75.1878333333334,
      "v": 102
    },
    {
      "midi": 40,
      "hit": false,
      "t": 18943.574608333332,
      "d": 26.315741666665417,
      "v": 58
    },
    {
      "midi": 40,
      "hit": false,
      "t": 19056.35635833333,
      "d": 26.315741666665417,
      "v": 58
    },
    {
      "midi": 40,
      "hit": false,
      "t": 19165.37871666665,
      "d": 75.1878333333334,
      "v": 102
    },
    {
      "midi": 40,
      "hit": false,
      "t": 19169.13810833333,
      "d": 26.315741666665417,
      "v": 99
    },
    {
      "midi": 45,
      "hit": false,
      "t": 19507.483358333317,
      "d": 101.50357499999882,
      "v": 109
    },
    {
      "midi": 40,
      "hit": false,
      "t": 19620.26510833333,
      "d": 26.315741666665417,
      "v": 96
    },
    {
      "midi": 43,
      "hit": false,
      "t": 19733.046858333317,
      "d": 259.3980250000059,
      "v": 102
    },
    {
      "midi": 52,
      "hit": false,
      "t": 19845.828608333333,
      "d": 447.3676083333339,
      "v": 1
    },
    {
      "midi": 55,
      "hit": false,
      "t": 19845.828608333333,
      "d": 447.3676083333339,
      "v": 1
    },
    {
      "midi": 67,
      "hit": false,
      "t": 19845.828608333333,
      "d": 447.3676083333339,
      "v": 1
    },
    {
      "midi": 40,
      "hit": false,
      "t": 20075.15149999999,
      "d": 71.42844166666691,
      "v": 102
    },
    {
      "midi": 40,
      "hit": false,
      "t": 20518.759716666656,
      "d": 75.1878333333334,
      "v": 102
    },
    {
      "midi": 40,
      "hit": false,
      "t": 20973.64610833332,
      "d": 75.1878333333334,
      "v": 102
    },
    {
      "midi": 45,
      "hit": false,
      "t": 21315.750749999985,
      "d": 101.50357499999882,
      "v": 109
    },
    {
      "midi": 40,
      "hit": false,
      "t": 21424.773108333327,
      "d": 26.315741666665417,
      "v": 96
    },
    {
      "midi": 43,
      "hit": false,
      "t": 21541.314249999985,
      "d": 259.3980250000059,
      "v": 102
    },
    {
      "midi": 40,
      "hit": false,
      "t": 21875.900108333324,
      "d": 71.42844166666691,
      "v": 102
    },
    {
      "midi": 40,
      "hit": false,
      "t": 22323.267716666658,
      "d": 75.1878333333334,
      "v": 102
    },
    {
      "midi": 40,
      "hit": false,
      "t": 22774.394716666655,
      "d": 75.1878333333334,
      "v": 102
    },
    {
      "midi": 45,
      "hit": false,
      "t": 23116.49935833332,
      "d": 101.50357499999882,
      "v": 109
    },
    {
      "midi": 40,
      "hit": false,
      "t": 23229.281108333325,
      "d": 26.315741666665417,
      "v": 96
    },
    {
      "midi": 43,
      "hit": false,
      "t": 23342.06285833332,
      "d": 259.3980250000059,
      "v": 102
    },
    {
      "midi": 52,
      "hit": false,
      "t": 23454.844608333333,
      "d": 447.3676083333339,
      "v": 1
    },
    {
      "midi": 55,
      "hit": false,
      "t": 23454.844608333333,
      "d": 447.3676083333339,
      "v": 1
    },
    {
      "midi": 67,
      "hit": false,
      "t": 23454.844608333333,
      "d": 447.3676083333339,
      "v": 1
    },
    {
      "midi": 40,
      "hit": false,
      "t": 23684.167499999992,
      "d": 71.42844166666691,
      "v": 102
    },
    {
      "midi": 40,
      "hit": false,
      "t": 24127.77571666666,
      "d": 75.1878333333334,
      "v": 102
    },
    {
      "midi": 40,
      "hit": false,
      "t": 24582.662108333323,
      "d": 75.1878333333334,
      "v": 102
    },
    {
      "midi": 45,
      "hit": false,
      "t": 24924.766749999988,
      "d": 101.50357499999882,
      "v": 109
    },
    {
      "midi": 40,
      "hit": false,
      "t": 25033.789108333323,
      "d": 26.315741666665417,
      "v": 96
    },
    {
      "midi": 43,
      "hit": false,
      "t": 25150.330249999988,
      "d": 259.3980250000059,
      "v": 102
    },
    {
      "midi": 52,
      "hit": false,
      "t": 25259.352608333335,
      "d": 447.3676083333339,
      "v": 1
    },
    {
      "midi": 55,
      "hit": false,
      "t": 25259.352608333335,
      "d": 447.3676083333339,
      "v": 1
    },
    {
      "midi": 67,
      "hit": false,
      "t": 25259.352608333335,
      "d": 447.3676083333339,
      "v": 1
    },
    {
      "midi": 40,
      "hit": false,
      "t": 25484.916108333327,
      "d": 71.42844166666691,
      "v": 102
    },
    {
      "midi": 40,
      "hit": false,
      "t": 25932.28371666666,
      "d": 75.1878333333334,
      "v": 102
    },
    {
      "midi": 40,
      "hit": false,
      "t": 26161.60660833332,
      "d": 26.315741666665417,
      "v": 58
    },
    {
      "midi": 40,
      "hit": false,
      "t": 26274.38835833332,
      "d": 26.315741666665417,
      "v": 58
    },
    {
      "midi": 40,
      "hit": false,
      "t": 26383.410716666658,
      "d": 75.1878333333334,
      "v": 102
    },
    {
      "midi": 40,
      "hit": false,
      "t": 26387.170108333317,
      "d": 26.315741666665417,
      "v": 99
    },
    {
      "midi": 45,
      "hit": false,
      "t": 26725.515358333323,
      "d": 101.50357499999882,
      "v": 109
    },
    {
      "midi": 40,
      "hit": false,
      "t": 26838.297108333318,
      "d": 26.315741666665417,
      "v": 96
    },
    {
      "midi": 43,
      "hit": false,
      "t": 26951.078858333323,
      "d": 259.3980250000059,
      "v": 102
    },
    {
      "midi": 52,
      "hit": false,
      "t": 27063.860608333336,
      "d": 447.3676083333339,
      "v": 1
    },
    {
      "midi": 55,
      "hit": false,
      "t": 27063.860608333336,
      "d": 447.3676083333339,
      "v": 1
    },
    {
      "midi": 67,
      "hit": false,
      "t": 27063.860608333336,
      "d": 447.3676083333339,
      "v": 1
    },
    {
      "midi": 40,
      "hit": false,
      "t": 27293.183499999996,
      "d": 71.42844166666691,
      "v": 102
    },
    {
      "midi": 40,
      "hit": false,
      "t": 27736.791716666663,
      "d": 75.1878333333334,
      "v": 102
    },
    {
      "midi": 40,
      "hit": false,
      "t": 28191.678108333326,
      "d": 75.1878333333334,
      "v": 102
    },
    {
      "midi": 45,
      "hit": false,
      "t": 28533.78274999999,
      "d": 101.50357499999882,
      "v": 109
    },
    {
      "midi": 40,
      "hit": false,
      "t": 28642.805108333316,
      "d": 26.315741666665417,
      "v": 96
    },
    {
      "midi": 43,
      "hit": false,
      "t": 28759.34624999999,
      "d": 259.3980250000059,
      "v": 102
    },
    {
      "midi": 40,
      "hit": false,
      "t": 29093.93210833333,
      "d": 71.42844166666691,
      "v": 102
    },
    {
      "midi": 40,
      "hit": false,
      "t": 29541.299716666665,
      "d": 75.1878333333334,
      "v": 102
    },
    {
      "midi": 40,
      "hit": false,
      "t": 29992.42671666666,
      "d": 75.1878333333334,
      "v": 102
    },
    {
      "midi": 45,
      "hit": false,
      "t": 30334.531358333326,
      "d": 101.50357499999882,
      "v": 109
    },
    {
      "midi": 40,
      "hit": false,
      "t": 30447.313108333314,
      "d": 26.315741666665417,
      "v": 96
    },
    {
      "midi": 43,
      "hit": false,
      "t": 30560.094858333327,
      "d": 259.3980250000059,
      "v": 102
    },
    {
      "midi": 52,
      "hit": false,
      "t": 30672.876608333336,
      "d": 447.3676083333339,
      "v": 1
    },
    {
      "midi": 55,
      "hit": false,
      "t": 30672.876608333336,
      "d": 447.3676083333339,
      "v": 1
    },
    {
      "midi": 67,
      "hit": false,
      "t": 30672.876608333336,
      "d": 447.3676083333339,
      "v": 1
    },
    {
      "midi": 40,
      "hit": false,
      "t": 30902.1995,
      "d": 71.42844166666691,
      "v": 102
    },
    {
      "midi": 40,
      "hit": false,
      "t": 31345.807716666666,
      "d": 75.1878333333334,
      "v": 102
    },
    {
      "midi": 40,
      "hit": false,
      "t": 31800.69410833333,
      "d": 75.1878333333334,
      "v": 102
    },
    {
      "midi": 45,
      "hit": false,
      "t": 32142.798749999994,
      "d": 101.50357499999882,
      "v": 109
    },
    {
      "midi": 40,
      "hit": false,
      "t": 32251.82110833331,
      "d": 26.315741666665417,
      "v": 96
    },
    {
      "midi": 43,
      "hit": false,
      "t": 32368.362249999995,
      "d": 259.3980250000059,
      "v": 102
    },
    {
      "midi": 52,
      "hit": false,
      "t": 32477.384608333337,
      "d": 447.3676083333303,
      "v": 1
    },
    {
      "midi": 55,
      "hit": false,
      "t": 32477.384608333337,
      "d": 447.3676083333303,
      "v": 1
    },
    {
      "midi": 67,
      "hit": false,
      "t": 32477.384608333337,
      "d": 447.3676083333303,
      "v": 1
    },
    {
      "midi": 40,
      "hit": false,
      "t": 32702.948108333334,
      "d": 71.42844166666691,
      "v": 102
    },
    {
      "midi": 40,
      "hit": false,
      "t": 33150.315716666664,
      "d": 75.18783333332976,
      "v": 102
    },
    {
      "midi": 40,
      "hit": false,
      "t": 33379.63860833331,
      "d": 26.315741666665417,
      "v": 58
    },
    {
      "midi": 40,
      "hit": false,
      "t": 33492.420358333315,
      "d": 26.315741666665417,
      "v": 58
    },
    {
      "midi": 40,
      "hit": false,
      "t": 33601.44271666666,
      "d": 75.18783333332976,
      "v": 102
    },
    {
      "midi": 40,
      "hit": false,
      "t": 33605.20210833332,
      "d": 26.315741666665417,
      "v": 99
    },
    {
      "midi": 45,
      "hit": false,
      "t": 33943.54735833332,
      "d": 101.50357499999518,
      "v": 109
    },
    {
      "midi": 40,
      "hit": false,
      "t": 34056.32910833332,
      "d": 26.315741666665417,
      "v": 96
    },
    {
      "midi": 43,
      "hit": false,
      "t": 34169.11085833331,
      "d": 259.3980249999877,
      "v": 102
    },
    {
      "midi": 52,
      "hit": false,
      "t": 34281.892608333335,
      "d": 447.3676083333339,
      "v": 1
    },
    {
      "midi": 55,
      "hit": false,
      "t": 34281.892608333335,
      "d": 447.3676083333339,
      "v": 1
    },
    {
      "midi": 67,
      "hit": false,
      "t": 34281.892608333335,
      "d": 447.3676083333339,
      "v": 1
    },
    {
      "midi": 40,
      "hit": false,
      "t": 34511.21549999996,
      "d": 71.42844166666328,
      "v": 102
    },
    {
      "midi": 40,
      "hit": false,
      "t": 34954.82371666662,
      "d": 75.18783333332976,
      "v": 102
    },
    {
      "midi": 40,
      "hit": false,
      "t": 35409.71010833328,
      "d": 75.18783333332976,
      "v": 102
    },
    {
      "midi": 45,
      "hit": false,
      "t": 35751.81474999995,
      "d": 101.50357499999518,
      "v": 109
    },
    {
      "midi": 40,
      "hit": false,
      "t": 35860.83710833332,
      "d": 26.315741666665417,
      "v": 96
    },
    {
      "midi": 43,
      "hit": false,
      "t": 35977.378249999936,
      "d": 259.3980249999877,
      "v": 102
    },
    {
      "midi": 40,
      "hit": false,
      "t": 36311.96410833325,
      "d": 71.42844166666328,
      "v": 102
    },
    {
      "midi": 40,
      "hit": false,
      "t": 36759.33171666658,
      "d": 75.18783333332976,
      "v": 102
    },
    {
      "midi": 40,
      "hit": false,
      "t": 37210.45871666657,
      "d": 75.18783333332976,
      "v": 102
    },
    {
      "midi": 45,
      "hit": false,
      "t": 37552.56335833324,
      "d": 101.50357499999518,
      "v": 109
    },
    {
      "midi": 40,
      "hit": false,
      "t": 37665.34510833332,
      "d": 26.315741666665417,
      "v": 96
    },
    {
      "midi": 43,
      "hit": false,
      "t": 37778.12685833323,
      "d": 259.3980249999877,
      "v": 102
    },
    {
      "midi": 52,
      "hit": false,
      "t": 37890.90860833334,
      "d": 447.3676083333339,
      "v": 1
    },
    {
      "midi": 55,
      "hit": false,
      "t": 37890.90860833334,
      "d": 447.3676083333339,
      "v": 1
    },
    {
      "midi": 67,
      "hit": false,
      "t": 37890.90860833334,
      "d": 447.3676083333339,
      "v": 1
    },
    {
      "midi": 40,
      "hit": false,
      "t": 38120.23149999988,
      "d": 71.42844166666328,
      "v": 102
    },
    {
      "midi": 40,
      "hit": false,
      "t": 38563.83971666654,
      "d": 75.18783333332976,
      "v": 102
    },
    {
      "midi": 40,
      "hit": false,
      "t": 39018.7261083332,
      "d": 75.18783333332976,
      "v": 102
    },
    {
      "midi": 45,
      "hit": false,
      "t": 39360.83074999986,
      "d": 101.50357499999518,
      "v": 109
    },
    {
      "midi": 40,
      "hit": false,
      "t": 39469.85310833332,
      "d": 26.315741666665417,
      "v": 96
    },
    {
      "midi": 43,
      "hit": false,
      "t": 39586.39424999985,
      "d": 259.3980249999877,
      "v": 102
    },
    {
      "midi": 52,
      "hit": false,
      "t": 39695.41660833334,
      "d": 447.3676083333339,
      "v": 1
    },
    {
      "midi": 55,
      "hit": false,
      "t": 39695.41660833334,
      "d": 447.3676083333339,
      "v": 1
    },
    {
      "midi": 67,
      "hit": false,
      "t": 39695.41660833334,
      "d": 447.3676083333339,
      "v": 1
    },
    {
      "midi": 40,
      "hit": false,
      "t": 39920.98010833317,
      "d": 71.42844166666328,
      "v": 102
    },
    {
      "midi": 40,
      "hit": false,
      "t": 40368.347716666496,
      "d": 75.18783333332976,
      "v": 102
    },
    {
      "midi": 40,
      "hit": false,
      "t": 40597.67060833332,
      "d": 26.315741666665417,
      "v": 58
    },
    {
      "midi": 40,
      "hit": false,
      "t": 40710.45235833332,
      "d": 26.315741666665417,
      "v": 58
    },
    {
      "midi": 40,
      "hit": false,
      "t": 40819.47471666649,
      "d": 75.18783333332976,
      "v": 102
    },
    {
      "midi": 40,
      "hit": false,
      "t": 40823.23410833332,
      "d": 26.315741666665417,
      "v": 99
    },
    {
      "midi": 45,
      "hit": false,
      "t": 41161.579358333154,
      "d": 101.50357499999518,
      "v": 109
    },
    {
      "midi": 40,
      "hit": false,
      "t": 41274.36110833332,
      "d": 26.315741666665417,
      "v": 96
    },
    {
      "midi": 43,
      "hit": false,
      "t": 41387.14285833314,
      "d": 259.3980249999877,
      "v": 102
    },
    {
      "midi": 52,
      "hit": false,
      "t": 41499.92460833334,
      "d": 447.3676083333339,
      "v": 1
    },
    {
      "midi": 55,
      "hit": false,
      "t": 41499.92460833334,
      "d": 447.3676083333339,
      "v": 1
    },
    {
      "midi": 67,
      "hit": false,
      "t": 41499.92460833334,
      "d": 447.3676083333339,
      "v": 1
    },
    {
      "midi": 40,
      "hit": false,
      "t": 41729.247499999794,
      "d": 71.42844166666328,
      "v": 102
    },
    {
      "midi": 40,
      "hit": false,
      "t": 42172.855716666454,
      "d": 75.18783333332976,
      "v": 102
    },
    {
      "midi": 40,
      "hit": false,
      "t": 42627.742108333114,
      "d": 75.18783333332976,
      "v": 102
    },
    {
      "midi": 45,
      "hit": false,
      "t": 42969.84674999978,
      "d": 101.50357499999518,
      "v": 109
    },
    {
      "midi": 40,
      "hit": false,
      "t": 43078.869108333325,
      "d": 26.315741666665417,
      "v": 96
    },
    {
      "midi": 43,
      "hit": false,
      "t": 43195.41024999977,
      "d": 259.3980249999877,
      "v": 102
    },
    {
      "midi": 59,
      "hit": false,
      "t": 45112.70000000001,
      "d": 1909.7709666666633,
      "v": 1
    },
    {
      "midi": 64,
      "hit": false,
      "t": 45112.70000000001,
      "d": 1909.7709666666633,
      "v": 1
    },
    {
      "midi": 71,
      "hit": false,
      "t": 45112.70000000001,
      "d": 1909.7709666666633,
      "v": 1
    },
    {
      "midi": 40,
      "hit": false,
      "t": 45338.26349999973,
      "d": 71.42844166666328,
      "v": 102
    },
    {
      "midi": 40,
      "hit": false,
      "t": 45781.87171666639,
      "d": 75.18783333332976,
      "v": 102
    },
    {
      "midi": 40,
      "hit": false,
      "t": 46236.75810833305,
      "d": 75.18783333332976,
      "v": 102
    },
    {
      "midi": 45,
      "hit": false,
      "t": 46578.86274999972,
      "d": 101.50357499999518,
      "v": 109
    },
    {
      "midi": 40,
      "hit": false,
      "t": 46687.88510833332,
      "d": 26.315741666665417,
      "v": 96
    },
    {
      "midi": 43,
      "hit": false,
      "t": 46804.426249999706,
      "d": 259.3980249999877,
      "v": 102
    },
    {
      "midi": 40,
      "hit": false,
      "t": 47139.01210833302,
      "d": 71.42844166666328,
      "v": 102
    },
    {
      "midi": 40,
      "hit": false,
      "t": 47586.37971666635,
      "d": 75.18783333332976,
      "v": 102
    },
    {
      "midi": 40,
      "hit": false,
      "t": 47815.70260833332,
      "d": 26.315741666665417,
      "v": 58
    },
    {
      "midi": 40,
      "hit": false,
      "t": 47928.48435833332,
      "d": 26.315741666665417,
      "v": 58
    },
    {
      "midi": 40,
      "hit": false,
      "t": 48037.50671666634,
      "d": 75.18783333332976,
      "v": 102
    },
    {
      "midi": 40,
      "hit": false,
      "t": 48041.26610833332,
      "d": 26.315741666665417,
      "v": 99
    },
    {
      "midi": 45,
      "hit": false,
      "t": 48379.61135833301,
      "d": 101.50357499999518,
      "v": 109
    },
    {
      "midi": 40,
      "hit": false,
      "t": 48492.39310833332,
      "d": 26.315741666665417,
      "v": 96
    },
    {
      "midi": 43,
      "hit": false,
      "t": 48605.174858333,
      "d": 259.3980249999877,
      "v": 102
    },
    {
      "midi": 59,
      "hit": false,
      "t": 48721.71600000001,
      "d": 1909.7709666666633,
      "v": 1
    },
    {
      "midi": 64,
      "hit": false,
      "t": 48721.71600000001,
      "d": 1909.7709666666633,
      "v": 1
    },
    {
      "midi": 71,
      "hit": false,
      "t": 48721.71600000001,
      "d": 1909.7709666666633,
      "v": 1
    },
    {
      "midi": 40,
      "hit": false,
      "t": 48947.27949999965,
      "d": 71.42844166666328,
      "v": 102
    },
    {
      "midi": 40,
      "hit": false,
      "t": 49390.88771666631,
      "d": 75.18783333332976,
      "v": 102
    },
    {
      "midi": 40,
      "hit": false,
      "t": 49845.77410833297,
      "d": 75.18783333332976,
      "v": 102
    },
    {
      "midi": 45,
      "hit": false,
      "t": 50187.87874999963,
      "d": 101.50357499999518,
      "v": 109
    },
    {
      "midi": 40,
      "hit": false,
      "t": 50296.901108333324,
      "d": 26.315741666665417,
      "v": 96
    },
    {
      "midi": 43,
      "hit": false,
      "t": 50413.44224999962,
      "d": 259.3980249999877,
      "v": 102
    },
    {
      "midi": 40,
      "hit": false,
      "t": 50748.02810833294,
      "d": 71.42844166666328,
      "v": 102
    },
    {
      "midi": 40,
      "hit": false,
      "t": 51195.395716666266,
      "d": 75.18783333332976,
      "v": 102
    },
    {
      "midi": 40,
      "hit": false,
      "t": 51646.52271666626,
      "d": 75.18783333332976,
      "v": 102
    },
    {
      "midi": 45,
      "hit": false,
      "t": 51988.627358332924,
      "d": 101.50357499999518,
      "v": 109
    },
    {
      "midi": 40,
      "hit": false,
      "t": 52101.409108333326,
      "d": 26.315741666665417,
      "v": 96
    },
    {
      "midi": 43,
      "hit": false,
      "t": 52214.19085833291,
      "d": 259.3980249999877,
      "v": 102
    },
    {
      "midi": 59,
      "hit": false,
      "t": 52330.732,
      "d": 1909.7709666666633,
      "v": 1
    },
    {
      "midi": 64,
      "hit": false,
      "t": 52330.732,
      "d": 1909.7709666666633,
      "v": 1
    },
    {
      "midi": 71,
      "hit": false,
      "t": 52330.732,
      "d": 1909.7709666666633,
      "v": 1
    },
    {
      "midi": 40,
      "hit": false,
      "t": 52556.29549999956,
      "d": 71.42844166666328,
      "v": 102
    },
    {
      "midi": 40,
      "hit": false,
      "t": 52999.903716666224,
      "d": 75.18783333332976,
      "v": 102
    },
    {
      "midi": 40,
      "hit": false,
      "t": 53454.79010833288,
      "d": 75.18783333332976,
      "v": 102
    },
    {
      "midi": 45,
      "hit": false,
      "t": 53796.89474999955,
      "d": 101.50357499999518,
      "v": 109
    },
    {
      "midi": 40,
      "hit": false,
      "t": 53905.91710833333,
      "d": 26.315741666665417,
      "v": 96
    },
    {
      "midi": 43,
      "hit": false,
      "t": 54022.45824999954,
      "d": 259.3980249999877,
      "v": 102
    },
    {
      "midi": 40,
      "hit": false,
      "t": 54357.044108332855,
      "d": 71.42844166666328,
      "v": 102
    },
    {
      "midi": 40,
      "hit": false,
      "t": 54804.41171666618,
      "d": 75.18783333332976,
      "v": 102
    },
    {
      "midi": 40,
      "hit": false,
      "t": 55033.734608333325,
      "d": 26.315741666665417,
      "v": 58
    },
    {
      "midi": 40,
      "hit": false,
      "t": 55146.51635833333,
      "d": 26.315741666665417,
      "v": 58
    },
    {
      "midi": 40,
      "hit": false,
      "t": 55255.538716666175,
      "d": 75.18783333332976,
      "v": 102
    },
    {
      "midi": 40,
      "hit": false,
      "t": 55259.29810833333,
      "d": 26.315741666665417,
      "v": 99
    },
    {
      "midi": 45,
      "hit": false,
      "t": 55597.64335833284,
      "d": 101.50357499999518,
      "v": 109
    },
    {
      "midi": 40,
      "hit": false,
      "t": 55710.42510833333,
      "d": 26.315741666665417,
      "v": 96
    },
    {
      "midi": 43,
      "hit": false,
      "t": 55823.20685833283,
      "d": 259.3980249999877,
      "v": 102
    },
    {
      "midi": 59,
      "hit": false,
      "t": 55939.748,
      "d": 1909.7709666666633,
      "v": 1
    },
    {
      "midi": 64,
      "hit": false,
      "t": 55939.748,
      "d": 1909.7709666666633,
      "v": 1
    },
    {
      "midi": 71,
      "hit": false,
      "t": 55939.748,
      "d": 1909.7709666666633,
      "v": 1
    },
    {
      "midi": 40,
      "hit": false,
      "t": 56165.31149999948,
      "d": 71.42844166666328,
      "v": 102
    },
    {
      "midi": 40,
      "hit": false,
      "t": 56608.91971666614,
      "d": 75.18783333332976,
      "v": 102
    },
    {
      "midi": 40,
      "hit": false,
      "t": 57063.8061083328,
      "d": 75.18783333332976,
      "v": 102
    },
    {
      "midi": 45,
      "hit": false,
      "t": 57405.910749999464,
      "d": 101.50357499999518,
      "v": 109
    },
    {
      "midi": 40,
      "hit": false,
      "t": 57514.93310833333,
      "d": 26.315741666665417,
      "v": 96
    },
    {
      "midi": 43,
      "hit": false,
      "t": 57631.47424999945,
      "d": 259.3980249999877,
      "v": 102
    },
    {
      "midi": 40,
      "hit": false,
      "t": 57966.06010833277,
      "d": 71.42844166666328,
      "v": 102
    },
    {
      "midi": 40,
      "hit": false,
      "t": 58413.4277166661,
      "d": 75.18783333332976,
      "v": 102
    },
    {
      "midi": 40,
      "hit": false,
      "t": 58864.55471666609,
      "d": 75.18783333332976,
      "v": 102
    },
    {
      "midi": 45,
      "hit": false,
      "t": 59206.659358332756,
      "d": 101.50357499999518,
      "v": 109
    },
    {
      "midi": 40,
      "hit": false,
      "t": 59319.44110833333,
      "d": 26.315741666665417,
      "v": 96
    },
    {
      "midi": 43,
      "hit": false,
      "t": 59432.222858332745,
      "d": 259.3980249999877,
      "v": 102
    },
    {
      "midi": 40,
      "hit": false,
      "t": 59774.327499999396,
      "d": 71.42844166666328,
      "v": 102
    },
    {
      "midi": 40,
      "hit": false,
      "t": 60217.935716666056,
      "d": 75.18783333332976,
      "v": 102
    },
    {
      "midi": 40,
      "hit": false,
      "t": 60672.822108332715,
      "d": 75.18783333332976,
      "v": 102
    },
    {
      "midi": 45,
      "hit": false,
      "t": 61014.92674999938,
      "d": 101.50357499999518,
      "v": 109
    },
    {
      "midi": 40,
      "hit": false,
      "t": 61123.949108333334,
      "d": 26.315741666665417,
      "v": 96
    },
    {
      "midi": 43,
      "hit": false,
      "t": 61240.49024999937,
      "d": 259.3980249999877,
      "v": 102
    },
    {
      "midi": 43,
      "hit": false,
      "t": 61462.29435833333,
      "d": 26.315741666665417,
      "v": 68
    },
    {
      "midi": 40,
      "hit": false,
      "t": 61575.07610833269,
      "d": 71.42844166666328,
      "v": 102
    },
    {
      "midi": 40,
      "hit": false,
      "t": 62022.443716666014,
      "d": 75.18783333332976,
      "v": 102
    },
    {
      "midi": 40,
      "hit": false,
      "t": 62473.57071666601,
      "d": 75.18783333332976,
      "v": 102
    },
    {
      "midi": 45,
      "hit": false,
      "t": 62815.67535833267,
      "d": 101.50357499999518,
      "v": 109
    },
    {
      "midi": 40,
      "hit": false,
      "t": 62928.45710833333,
      "d": 26.315741666665417,
      "v": 96
    },
    {
      "midi": 43,
      "hit": false,
      "t": 63041.23885833266,
      "d": 259.3980249999877,
      "v": 102
    },
    {
      "midi": 43,
      "hit": false,
      "t": 63266.80235833333,
      "d": 26.315741666665417,
      "v": 80
    },
    {
      "midi": 40,
      "hit": false,
      "t": 63383.34349999931,
      "d": 71.42844166666328,
      "v": 102
    },
    {
      "midi": 40,
      "hit": false,
      "t": 63826.95171666597,
      "d": 75.18783333332976,
      "v": 102
    },
    {
      "midi": 40,
      "hit": false,
      "t": 64281.83810833263,
      "d": 75.18783333332976,
      "v": 102
    },
    {
      "midi": 45,
      "hit": false,
      "t": 64623.942749999296,
      "d": 101.50357499999518,
      "v": 109
    },
    {
      "midi": 40,
      "hit": false,
      "t": 64732.96510833332,
      "d": 26.315741666665417,
      "v": 96
    },
    {
      "midi": 43,
      "hit": false,
      "t": 64849.506249999286,
      "d": 259.3980249999877,
      "v": 102
    },
    {
      "midi": 43,
      "hit": false,
      "t": 65071.31035833332,
      "d": 26.315741666665417,
      "v": 66
    },
    {
      "midi": 40,
      "hit": false,
      "t": 65184.0921083326,
      "d": 71.42844166666328,
      "v": 102
    },
    {
      "midi": 40,
      "hit": false,
      "t": 65631.45971666594,
      "d": 75.18783333332976,
      "v": 102
    },
    {
      "midi": 52,
      "hit": false,
      "t": 66763.03660833332,
      "d": 447.36760833332664,
      "v": 1
    },
    {
      "midi": 55,
      "hit": false,
      "t": 66763.03660833332,
      "d": 447.36760833332664,
      "v": 1
    },
    {
      "midi": 67,
      "hit": false,
      "t": 66763.03660833332,
      "d": 447.36760833332664,
      "v": 1
    },
    {
      "midi": 40,
      "hit": false,
      "t": 66992.35949999925,
      "d": 71.42844166666328,
      "v": 102
    },
    {
      "midi": 40,
      "hit": false,
      "t": 67435.96771666591,
      "d": 75.18783333332976,
      "v": 102
    },
    {
      "midi": 40,
      "hit": false,
      "t": 67890.85410833258,
      "d": 75.18783333332976,
      "v": 102
    },
    {
      "midi": 45,
      "hit": false,
      "t": 68232.95874999925,
      "d": 101.50357499999518,
      "v": 109
    },
    {
      "midi": 40,
      "hit": false,
      "t": 68341.98110833332,
      "d": 26.315741666665417,
      "v": 96
    },
    {
      "midi": 43,
      "hit": false,
      "t": 68458.52224999924,
      "d": 259.3980249999877,
      "v": 102
    },
    {
      "midi": 52,
      "hit": false,
      "t": 68567.54460833331,
      "d": 447.36760833332664,
      "v": 1
    },
    {
      "midi": 55,
      "hit": false,
      "t": 68567.54460833331,
      "d": 447.36760833332664,
      "v": 1
    },
    {
      "midi": 67,
      "hit": false,
      "t": 68567.54460833331,
      "d": 447.36760833332664,
      "v": 1
    },
    {
      "midi": 40,
      "hit": false,
      "t": 68793.10810833256,
      "d": 71.42844166666328,
      "v": 102
    },
    {
      "midi": 40,
      "hit": false,
      "t": 69240.47571666588,
      "d": 75.18783333332976,
      "v": 102
    },
    {
      "midi": 40,
      "hit": false,
      "t": 69469.79860833332,
      "d": 26.315741666665417,
      "v": 58
    },
    {
      "midi": 40,
      "hit": false,
      "t": 69582.58035833332,
      "d": 26.315741666665417,
      "v": 58
    },
    {
      "midi": 40,
      "hit": false,
      "t": 69691.60271666589,
      "d": 75.18783333332976,
      "v": 102
    },
    {
      "midi": 40,
      "hit": false,
      "t": 69695.36210833331,
      "d": 26.315741666665417,
      "v": 99
    },
    {
      "midi": 45,
      "hit": false,
      "t": 70033.70735833255,
      "d": 101.50357499999518,
      "v": 109
    },
    {
      "midi": 40,
      "hit": false,
      "t": 70146.4891083333,
      "d": 26.315741666665417,
      "v": 96
    },
    {
      "midi": 43,
      "hit": false,
      "t": 70259.27085833254,
      "d": 259.3980249999877,
      "v": 102
    },
    {
      "midi": 52,
      "hit": false,
      "t": 70372.0526083333,
      "d": 447.36760833332664,
      "v": 1
    },
    {
      "midi": 55,
      "hit": false,
      "t": 70372.0526083333,
      "d": 447.36760833332664,
      "v": 1
    },
    {
      "midi": 67,
      "hit": false,
      "t": 70372.0526083333,
      "d": 447.36760833332664,
      "v": 1
    },
    {
      "midi": 40,
      "hit": false,
      "t": 70601.3754999992,
      "d": 71.42844166666328,
      "v": 102
    },
    {
      "midi": 40,
      "hit": false,
      "t": 71044.98371666585,
      "d": 75.18783333332976,
      "v": 102
    },
    {
      "midi": 40,
      "hit": false,
      "t": 71499.87010833253,
      "d": 75.18783333332976,
      "v": 102
    },
    {
      "midi": 45,
      "hit": false,
      "t": 71841.9747499992,
      "d": 101.50357499999518,
      "v": 109
    },
    {
      "midi": 40,
      "hit": false,
      "t": 71950.99710833331,
      "d": 26.315741666665417,
      "v": 96
    },
    {
      "midi": 43,
      "hit": false,
      "t": 72067.53824999918,
      "d": 259.3980249999877,
      "v": 102
    },
    {
      "midi": 40,
      "hit": false,
      "t": 72402.1241083325,
      "d": 71.42844166666328,
      "v": 102
    },
    {
      "midi": 40,
      "hit": false,
      "t": 72849.49171666583,
      "d": 75.18783333332976,
      "v": 102
    },
    {
      "midi": 40,
      "hit": false,
      "t": 73300.61871666583,
      "d": 75.18783333332976,
      "v": 102
    },
    {
      "midi": 45,
      "hit": false,
      "t": 73642.7233583325,
      "d": 101.50357499999518,
      "v": 109
    },
    {
      "midi": 40,
      "hit": false,
      "t": 73755.50510833331,
      "d": 26.315741666665417,
      "v": 96
    },
    {
      "midi": 43,
      "hit": false,
      "t": 73868.28685833249,
      "d": 259.3980249999877,
      "v": 102
    },
    {
      "midi": 52,
      "hit": false,
      "t": 73981.06860833328,
      "d": 447.36760833332664,
      "v": 1
    },
    {
      "midi": 55,
      "hit": false,
      "t": 73981.06860833328,
      "d": 447.36760833332664,
      "v": 1
    },
    {
      "midi": 67,
      "hit": false,
      "t": 73981.06860833328,
      "d": 447.36760833332664,
      "v": 1
    },
    {
      "midi": 40,
      "hit": false,
      "t": 74210.39149999914,
      "d": 71.42844166666328,
      "v": 102
    },
    {
      "midi": 40,
      "hit": false,
      "t": 74653.9997166658,
      "d": 75.18783333332976,
      "v": 102
    },
    {
      "midi": 40,
      "hit": false,
      "t": 75108.88610833247,
      "d": 75.18783333332976,
      "v": 102
    },
    {
      "midi": 45,
      "hit": false,
      "t": 75450.99074999914,
      "d": 101.50357499999518,
      "v": 109
    },
    {
      "midi": 40,
      "hit": false,
      "t": 75560.01310833331,
      "d": 26.315741666665417,
      "v": 96
    },
    {
      "midi": 43,
      "hit": false,
      "t": 75676.55424999913,
      "d": 259.3980249999877,
      "v": 102
    },
    {
      "midi": 52,
      "hit": false,
      "t": 75785.57660833327,
      "d": 447.36760833332664,
      "v": 1
    },
    {
      "midi": 55,
      "hit": false,
      "t": 75785.57660833327,
      "d": 447.36760833332664,
      "v": 1
    },
    {
      "midi": 67,
      "hit": false,
      "t": 75785.57660833327,
      "d": 447.36760833332664,
      "v": 1
    },
    {
      "midi": 40,
      "hit": false,
      "t": 76011.14010833245,
      "d": 71.42844166666328,
      "v": 102
    },
    {
      "midi": 40,
      "hit": false,
      "t": 76458.50771666577,
      "d": 75.18783333332976,
      "v": 102
    },
    {
      "midi": 40,
      "hit": false,
      "t": 76687.83060833332,
      "d": 26.315741666665417,
      "v": 58
    },
    {
      "midi": 40,
      "hit": false,
      "t": 76800.61235833331,
      "d": 26.315741666665417,
      "v": 58
    },
    {
      "midi": 40,
      "hit": false,
      "t": 76909.63471666578,
      "d": 75.18783333332976,
      "v": 102
    },
    {
      "midi": 40,
      "hit": false,
      "t": 76913.3941083333,
      "d": 26.315741666665417,
      "v": 99
    },
    {
      "midi": 45,
      "hit": false,
      "t": 77251.73935833244,
      "d": 101.50357499999518,
      "v": 109
    },
    {
      "midi": 40,
      "hit": false,
      "t": 77364.5211083333,
      "d": 26.315741666665417,
      "v": 96
    },
    {
      "midi": 43,
      "hit": false,
      "t": 77477.30285833243,
      "d": 259.3980249999877,
      "v": 102
    },
    {
      "midi": 52,
      "hit": false,
      "t": 77590.08460833326,
      "d": 447.36760833332664,
      "v": 1
    },
    {
      "midi": 55,
      "hit": false,
      "t": 77590.08460833326,
      "d": 447.36760833332664,
      "v": 1
    },
    {
      "midi": 67,
      "hit": false,
      "t": 77590.08460833326,
      "d": 447.36760833332664,
      "v": 1
    },
    {
      "midi": 40,
      "hit": false,
      "t": 77819.40749999908,
      "d": 71.42844166666328,
      "v": 102
    },
    {
      "midi": 40,
      "hit": false,
      "t": 78263.01571666574,
      "d": 75.18783333332976,
      "v": 102
    },
    {
      "midi": 40,
      "hit": false,
      "t": 78717.90210833242,
      "d": 75.18783333332976,
      "v": 102
    },
    {
      "midi": 45,
      "hit": false,
      "t": 79060.00674999908,
      "d": 101.50357499999518,
      "v": 109
    },
    {
      "midi": 40,
      "hit": false,
      "t": 79169.0291083333,
      "d": 26.315741666665417,
      "v": 96
    },
    {
      "midi": 43,
      "hit": false,
      "t": 79285.57024999907,
      "d": 259.3980249999877,
      "v": 102
    },
    {
      "midi": 40,
      "hit": false,
      "t": 79620.15610833239,
      "d": 71.42844166666328,
      "v": 102
    },
    {
      "midi": 40,
      "hit": false,
      "t": 80067.52371666572,
      "d": 75.18783333332976,
      "v": 102
    },
    {
      "midi": 40,
      "hit": false,
      "t": 80518.65071666572,
      "d": 75.18783333332976,
      "v": 102
    },
    {
      "midi": 45,
      "hit": false,
      "t": 80860.75535833239,
      "d": 101.50357499999518,
      "v": 109
    },
    {
      "midi": 40,
      "hit": false,
      "t": 80973.5371083333,
      "d": 26.315741666665417,
      "v": 96
    },
    {
      "midi": 43,
      "hit": false,
      "t": 81086.31885833238,
      "d": 259.3980249999877,
      "v": 102
    },
    {
      "midi": 52,
      "hit": false,
      "t": 81199.10060833325,
      "d": 447.36760833332664,
      "v": 1
    },
    {
      "midi": 55,
      "hit": false,
      "t": 81199.10060833325,
      "d": 447.36760833332664,
      "v": 1
    },
    {
      "midi": 67,
      "hit": false,
      "t": 81199.10060833325,
      "d": 447.36760833332664,
      "v": 1
    },
    {
      "midi": 40,
      "hit": false,
      "t": 81428.42349999903,
      "d": 71.42844166666328,
      "v": 102
    },
    {
      "midi": 40,
      "hit": false,
      "t": 81872.03171666569,
      "d": 75.18783333332976,
      "v": 102
    },
    {
      "midi": 40,
      "hit": false,
      "t": 82326.91810833236,
      "d": 75.18783333332976,
      "v": 102
    },
    {
      "midi": 45,
      "hit": false,
      "t": 82669.02274999903,
      "d": 101.50357499999518,
      "v": 109
    },
    {
      "midi": 40,
      "hit": false,
      "t": 82778.0451083333,
      "d": 26.315741666665417,
      "v": 96
    },
    {
      "midi": 43,
      "hit": false,
      "t": 82894.58624999902,
      "d": 259.3980249999877,
      "v": 102
    },
    {
      "midi": 52,
      "hit": false,
      "t": 83003.60860833323,
      "d": 447.36760833332664,
      "v": 1
    },
    {
      "midi": 55,
      "hit": false,
      "t": 83003.60860833323,
      "d": 447.36760833332664,
      "v": 1
    },
    {
      "midi": 67,
      "hit": false,
      "t": 83003.60860833323,
      "d": 447.36760833332664,
      "v": 1
    },
    {
      "midi": 40,
      "hit": false,
      "t": 83229.17210833234,
      "d": 71.42844166666328,
      "v": 102
    },
    {
      "midi": 40,
      "hit": false,
      "t": 83676.53971666566,
      "d": 75.18783333332976,
      "v": 102
    },
    {
      "midi": 40,
      "hit": false,
      "t": 83905.86260833331,
      "d": 26.315741666665417,
      "v": 58
    },
    {
      "midi": 40,
      "hit": false,
      "t": 84018.6443583333,
      "d": 26.315741666665417,
      "v": 58
    },
    {
      "midi": 40,
      "hit": false,
      "t": 84127.66671666567,
      "d": 75.18783333332976,
      "v": 102
    },
    {
      "midi": 40,
      "hit": false,
      "t": 84131.4261083333,
      "d": 26.315741666665417,
      "v": 99
    },
    {
      "midi": 45,
      "hit": false,
      "t": 84469.77135833233,
      "d": 101.50357499999518,
      "v": 109
    },
    {
      "midi": 40,
      "hit": false,
      "t": 84582.55310833329,
      "d": 26.315741666665417,
      "v": 96
    },
    {
      "midi": 43,
      "hit": false,
      "t": 84695.33485833232,
      "d": 259.3980249999877,
      "v": 102
    },
    {
      "midi": 52,
      "hit": false,
      "t": 84808.11660833322,
      "d": 447.36760833332664,
      "v": 1
    },
    {
      "midi": 55,
      "hit": false,
      "t": 84808.11660833322,
      "d": 447.36760833332664,
      "v": 1
    },
    {
      "midi": 67,
      "hit": false,
      "t": 84808.11660833322,
      "d": 447.36760833332664,
      "v": 1
    },
    {
      "midi": 40,
      "hit": false,
      "t": 85037.43949999897,
      "d": 71.42844166666328,
      "v": 102
    },
    {
      "midi": 40,
      "hit": false,
      "t": 85481.04771666563,
      "d": 75.18783333332976,
      "v": 102
    },
    {
      "midi": 40,
      "hit": false,
      "t": 85935.93410833231,
      "d": 75.18783333332976,
      "v": 102
    },
    {
      "midi": 45,
      "hit": false,
      "t": 86278.03874999897,
      "d": 101.50357499999518,
      "v": 109
    },
    {
      "midi": 40,
      "hit": false,
      "t": 86387.06110833329,
      "d": 26.315741666665417,
      "v": 96
    },
    {
      "midi": 43,
      "hit": false,
      "t": 86503.60224999896,
      "d": 259.3980249999877,
      "v": 102
    },
    {
      "midi": 40,
      "hit": false,
      "t": 86838.18810833228,
      "d": 71.42844166666328,
      "v": 102
    },
    {
      "midi": 40,
      "hit": false,
      "t": 87285.5557166656,
      "d": 75.18783333332976,
      "v": 102
    },
    {
      "midi": 40,
      "hit": false,
      "t": 87736.68271666561,
      "d": 75.18783333332976,
      "v": 102
    },
    {
      "midi": 45,
      "hit": false,
      "t": 88078.78735833228,
      "d": 101.50357499999518,
      "v": 109
    },
    {
      "midi": 40,
      "hit": false,
      "t": 88191.5691083333,
      "d": 26.315741666665417,
      "v": 96
    },
    {
      "midi": 43,
      "hit": false,
      "t": 88304.35085833227,
      "d": 259.3980249999877,
      "v": 102
    },
    {
      "midi": 52,
      "hit": false,
      "t": 88417.13260833321,
      "d": 447.36760833332664,
      "v": 1
    },
    {
      "midi": 55,
      "hit": false,
      "t": 88417.13260833321,
      "d": 447.36760833332664,
      "v": 1
    },
    {
      "midi": 67,
      "hit": false,
      "t": 88417.13260833321,
      "d": 447.36760833332664,
      "v": 1
    },
    {
      "midi": 40,
      "hit": false,
      "t": 88646.45549999892,
      "d": 71.42844166666328,
      "v": 102
    },
    {
      "midi": 40,
      "hit": false,
      "t": 89090.06371666558,
      "d": 75.18783333332976,
      "v": 102
    },
    {
      "midi": 40,
      "hit": false,
      "t": 89544.95010833225,
      "d": 75.18783333332976,
      "v": 102
    },
    {
      "midi": 45,
      "hit": false,
      "t": 89887.05474999892,
      "d": 101.50357499999518,
      "v": 109
    },
    {
      "midi": 40,
      "hit": false,
      "t": 89996.0771083333,
      "d": 26.315741666665417,
      "v": 96
    },
    {
      "midi": 43,
      "hit": false,
      "t": 90112.61824999891,
      "d": 259.3980249999877,
      "v": 102
    },
    {
      "midi": 52,
      "hit": false,
      "t": 90221.6406083332,
      "d": 447.36760833332664,
      "v": 1
    },
    {
      "midi": 55,
      "hit": false,
      "t": 90221.6406083332,
      "d": 447.36760833332664,
      "v": 1
    },
    {
      "midi": 67,
      "hit": false,
      "t": 90221.6406083332,
      "d": 447.36760833332664,
      "v": 1
    },
    {
      "midi": 40,
      "hit": false,
      "t": 90447.20410833223,
      "d": 71.42844166666328,
      "v": 102
    },
    {
      "midi": 40,
      "hit": false,
      "t": 90894.57171666555,
      "d": 75.18783333332976,
      "v": 102
    },
    {
      "midi": 40,
      "hit": false,
      "t": 91123.8946083333,
      "d": 26.315741666665417,
      "v": 58
    },
    {
      "midi": 40,
      "hit": false,
      "t": 91236.6763583333,
      "d": 26.315741666665417,
      "v": 58
    },
    {
      "midi": 40,
      "hit": false,
      "t": 91345.69871666556,
      "d": 75.18783333332976,
      "v": 102
    },
    {
      "midi": 40,
      "hit": false,
      "t": 91349.45810833329,
      "d": 26.315741666665417,
      "v": 99
    },
    {
      "midi": 45,
      "hit": false,
      "t": 91687.80335833222,
      "d": 101.50357499999518,
      "v": 109
    },
    {
      "midi": 40,
      "hit": false,
      "t": 91800.58510833328,
      "d": 26.315741666665417,
      "v": 96
    },
    {
      "midi": 43,
      "hit": false,
      "t": 91913.36685833221,
      "d": 259.3980249999877,
      "v": 102
    },
    {
      "midi": 52,
      "hit": false,
      "t": 92026.14860833318,
      "d": 447.36760833332664,
      "v": 1
    },
    {
      "midi": 55,
      "hit": false,
      "t": 92026.14860833318,
      "d": 447.36760833332664,
      "v": 1
    },
    {
      "midi": 67,
      "hit": false,
      "t": 92026.14860833318,
      "d": 447.36760833332664,
      "v": 1
    },
    {
      "midi": 40,
      "hit": false,
      "t": 92255.47149999886,
      "d": 71.42844166666328,
      "v": 102
    },
    {
      "midi": 40,
      "hit": false,
      "t": 92699.07971666552,
      "d": 75.18783333332976,
      "v": 102
    },
    {
      "midi": 40,
      "hit": false,
      "t": 93153.9661083322,
      "d": 75.18783333332976,
      "v": 102
    },
    {
      "midi": 45,
      "hit": false,
      "t": 93496.07074999886,
      "d": 101.50357499999518,
      "v": 109
    },
    {
      "midi": 40,
      "hit": false,
      "t": 93605.09310833328,
      "d": 26.315741666665417,
      "v": 96
    },
    {
      "midi": 43,
      "hit": false,
      "t": 93721.63424999885,
      "d": 259.3980249999877,
      "v": 102
    },
    {
      "midi": 59,
      "hit": false,
      "t": 95638.92399999984,
      "d": 2022.5527166666725,
      "v": 1
    },
    {
      "midi": 64,
      "hit": false,
      "t": 95638.92399999984,
      "d": 2022.5527166666725,
      "v": 1
    },
    {
      "midi": 71,
      "hit": false,
      "t": 95638.92399999984,
      "d": 2022.5527166666725,
      "v": 1
    },
    {
      "midi": 40,
      "hit": false,
      "t": 95864.48749999881,
      "d": 71.42844166666328,
      "v": 102
    },
    {
      "midi": 40,
      "hit": false,
      "t": 96308.09571666547,
      "d": 75.18783333332976,
      "v": 102
    },
    {
      "midi": 40,
      "hit": false,
      "t": 96762.98210833214,
      "d": 75.18783333332976,
      "v": 102
    },
    {
      "midi": 45,
      "hit": false,
      "t": 97105.08674999881,
      "d": 101.50357499999518,
      "v": 109
    },
    {
      "midi": 40,
      "hit": false,
      "t": 97214.10910833329,
      "d": 26.315741666665417,
      "v": 96
    },
    {
      "midi": 43,
      "hit": false,
      "t": 97330.6502499988,
      "d": 259.3980249999877,
      "v": 102
    },
    {
      "midi": 40,
      "hit": false,
      "t": 97665.23610833212,
      "d": 71.42844166666328,
      "v": 102
    },
    {
      "midi": 69,
      "hit": false,
      "t": 97665.23610833318,
      "d": 447.36760833332664,
      "v": 1
    },
    {
      "midi": 40,
      "hit": false,
      "t": 98112.60371666544,
      "d": 75.18783333332976,
      "v": 102
    },
    {
      "midi": 71,
      "hit": false,
      "t": 98116.36310833317,
      "d": 221.80410833333735,
      "v": 1
    },
    {
      "midi": 69,
      "hit": false,
      "t": 98341.92660833317,
      "d": 221.80410833333735,
      "v": 1
    },
    {
      "midi": 40,
      "hit": false,
      "t": 98341.92660833329,
      "d": 26.315741666665417,
      "v": 58
    },
    {
      "midi": 40,
      "hit": false,
      "t": 98454.70835833329,
      "d": 26.315741666665417,
      "v": 58
    },
    {
      "midi": 40,
      "hit": false,
      "t": 98563.73071666545,
      "d": 75.18783333332976,
      "v": 102
    },
    {
      "midi": 67,
      "hit": false,
      "t": 98567.49010833318,
      "d": 676.690499999997,
      "v": 1
    },
    {
      "midi": 40,
      "hit": false,
      "t": 98567.49010833328,
      "d": 26.315741666665417,
      "v": 99
    },
    {
      "midi": 45,
      "hit": false,
      "t": 98905.83535833211,
      "d": 101.50357499999518,
      "v": 109
    },
    {
      "midi": 40,
      "hit": false,
      "t": 99018.61710833327,
      "d": 26.315741666665417,
      "v": 96
    },
    {
      "midi": 43,
      "hit": false,
      "t": 99131.3988583321,
      "d": 259.3980249999877,
      "v": 102
    },
    {
      "midi": 59,
      "hit": false,
      "t": 99247.93999999984,
      "d": 477.4427416666731,
      "v": 1
    },
    {
      "midi": 71,
      "hit": false,
      "t": 99247.93999999984,
      "d": 492.48030833333905,
      "v": 1
    },
    {
      "midi": 62,
      "hit": false,
      "t": 99247.93999999984,
      "d": 2248.1162166666763,
      "v": 1
    },
    {
      "midi": 40,
      "hit": false,
      "t": 99473.50349999875,
      "d": 71.42844166666328,
      "v": 102
    },
    {
      "midi": 40,
      "hit": false,
      "t": 99917.11171666541,
      "d": 75.18783333332976,
      "v": 102
    },
    {
      "midi": 40,
      "hit": false,
      "t": 100371.99810833209,
      "d": 75.18783333332976,
      "v": 102
    },
    {
      "midi": 45,
      "hit": false,
      "t": 100714.10274999875,
      "d": 101.50357499999518,
      "v": 109
    },
    {
      "midi": 40,
      "hit": false,
      "t": 100823.12510833328,
      "d": 26.315741666665417,
      "v": 96
    },
    {
      "midi": 43,
      "hit": false,
      "t": 100939.66624999874,
      "d": 259.3980249999877,
      "v": 102
    },
    {
      "midi": 40,
      "hit": false,
      "t": 101274.25210833206,
      "d": 71.42844166666328,
      "v": 102
    },
    {
      "midi": 69,
      "hit": false,
      "t": 101499.81560833319,
      "d": 218.04471666667087,
      "v": 1
    },
    {
      "midi": 40,
      "hit": false,
      "t": 101721.61971666539,
      "d": 75.18783333332976,
      "v": 102
    },
    {
      "midi": 71,
      "hit": false,
      "t": 101721.61971666652,
      "d": 244.36045833333628,
      "v": 1
    },
    {
      "midi": 69,
      "hit": false,
      "t": 101965.98017499986,
      "d": 206.7665416666714,
      "v": 1
    },
    {
      "midi": 40,
      "hit": false,
      "t": 102172.7467166654,
      "d": 75.18783333332976,
      "v": 102
    },
    {
      "midi": 67,
      "hit": false,
      "t": 102176.5061083332,
      "d": 676.690499999997,
      "v": 1
    },
    {
      "midi": 45,
      "hit": false,
      "t": 102514.85135833206,
      "d": 101.50357499999518,
      "v": 109
    },
    {
      "midi": 40,
      "hit": false,
      "t": 102627.63310833328,
      "d": 26.315741666665417,
      "v": 96
    },
    {
      "midi": 43,
      "hit": false,
      "t": 102740.41485833205,
      "d": 259.3980249999877,
      "v": 102
    },
    {
      "midi": 59,
      "hit": false,
      "t": 102856.95599999986,
      "d": 2033.830891666672,
      "v": 1
    },
    {
      "midi": 64,
      "hit": false,
      "t": 102856.95599999986,
      "d": 2033.830891666672,
      "v": 1
    },
    {
      "midi": 71,
      "hit": false,
      "t": 102856.95599999986,
      "d": 2033.830891666672,
      "v": 1
    },
    {
      "midi": 40,
      "hit": false,
      "t": 103082.5194999987,
      "d": 71.42844166666328,
      "v": 102
    },
    {
      "midi": 40,
      "hit": false,
      "t": 103526.12771666536,
      "d": 75.18783333332976,
      "v": 102
    },
    {
      "midi": 40,
      "hit": false,
      "t": 103981.01410833203,
      "d": 75.18783333332976,
      "v": 102
    },
    {
      "midi": 45,
      "hit": false,
      "t": 104323.1187499987,
      "d": 101.50357499999518,
      "v": 109
    },
    {
      "midi": 40,
      "hit": false,
      "t": 104432.14110833328,
      "d": 26.315741666665417,
      "v": 96
    },
    {
      "midi": 43,
      "hit": false,
      "t": 104548.68224999869,
      "d": 259.3980249999877,
      "v": 102
    },
    {
      "midi": 40,
      "hit": false,
      "t": 104883.268108332,
      "d": 71.42844166666328,
      "v": 102
    },
    {
      "midi": 70,
      "hit": false,
      "t": 104894.5462833332,
      "d": 657.8935416666645,
      "v": 1
    },
    {
      "midi": 40,
      "hit": false,
      "t": 105330.63571666533,
      "d": 75.18783333332976,
      "v": 102
    },
    {
      "midi": 69,
      "hit": false,
      "t": 105556.19921666653,
      "d": 902.2540000000008,
      "v": 1
    },
    {
      "midi": 40,
      "hit": false,
      "t": 105559.95860833328,
      "d": 26.315741666665417,
      "v": 58
    },
    {
      "midi": 40,
      "hit": false,
      "t": 105672.74035833328,
      "d": 26.315741666665417,
      "v": 58
    },
    {
      "midi": 40,
      "hit": false,
      "t": 105781.76271666534,
      "d": 75.18783333332976,
      "v": 102
    },
    {
      "midi": 40,
      "hit": false,
      "t": 105785.52210833327,
      "d": 26.315741666665417,
      "v": 99
    },
    {
      "midi": 45,
      "hit": false,
      "t": 106123.867358332,
      "d": 101.50357499999518,
      "v": 109
    },
    {
      "midi": 40,
      "hit": false,
      "t": 106236.64910833327,
      "d": 26.315741666665417,
      "v": 96
    },
    {
      "midi": 43,
      "hit": false,
      "t": 106349.430858332,
      "d": 259.3980249999877,
      "v": 102
    },
    {
      "midi": 59,
      "hit": false,
      "t": 106462.2126083332,
      "d": 1800.7486083333351,
      "v": 1
    },
    {
      "midi": 62,
      "hit": false,
      "t": 106462.2126083332,
      "d": 1800.7486083333351,
      "v": 1
    },
    {
      "midi": 71,
      "hit": false,
      "t": 106462.2126083332,
      "d": 1800.7486083333351,
      "v": 1
    },
    {
      "midi": 40,
      "hit": false,
      "t": 106691.53549999864,
      "d": 71.42844166666328,
      "v": 102
    },
    {
      "midi": 40,
      "hit": false,
      "t": 107135.1437166653,
      "d": 75.18783333332976,
      "v": 102
    },
    {
      "midi": 40,
      "hit": false,
      "t": 107590.03010833198,
      "d": 75.18783333332976,
      "v": 102
    },
    {
      "midi": 45,
      "hit": false,
      "t": 107932.13474999864,
      "d": 101.50357499999518,
      "v": 109
    },
    {
      "midi": 40,
      "hit": false,
      "t": 108041.15710833327,
      "d": 26.315741666665417,
      "v": 96
    },
    {
      "midi": 43,
      "hit": false,
      "t": 108157.69824999863,
      "d": 259.3980249999877,
      "v": 102
    },
    {
      "midi": 40,
      "hit": false,
      "t": 108492.28410833195,
      "d": 71.42844166666328,
      "v": 102
    },
    {
      "midi": 40,
      "hit": false,
      "t": 108939.65171666528,
      "d": 75.18783333332976,
      "v": 102
    },
    {
      "midi": 40,
      "hit": false,
      "t": 109390.77871666529,
      "d": 75.18783333332976,
      "v": 102
    },
    {
      "midi": 45,
      "hit": false,
      "t": 109732.88335833195,
      "d": 101.50357499999518,
      "v": 109
    },
    {
      "midi": 40,
      "hit": false,
      "t": 109845.66510833327,
      "d": 26.315741666665417,
      "v": 96
    },
    {
      "midi": 43,
      "hit": false,
      "t": 109958.44685833194,
      "d": 259.3980249999877,
      "v": 102
    },
    {
      "midi": 40,
      "hit": false,
      "t": 110300.55149999859,
      "d": 71.42844166666328,
      "v": 102
    },
    {
      "midi": 40,
      "hit": false,
      "t": 110744.15971666525,
      "d": 75.18783333332976,
      "v": 102
    },
    {
      "midi": 40,
      "hit": false,
      "t": 111199.04610833192,
      "d": 75.18783333332976,
      "v": 102
    },
    {
      "midi": 40,
      "hit": false,
      "t": 111650.17310833192,
      "d": 71.42844166666328,
      "v": 102
    },
    {
      "midi": 40,
      "hit": false,
      "t": 112101.3001083319,
      "d": 71.42844166666328,
      "v": 102
    },
    {
      "midi": 40,
      "hit": false,
      "t": 112548.66771666522,
      "d": 75.18783333332976,
      "v": 102
    },
    {
      "midi": 40,
      "hit": false,
      "t": 112777.99060833326,
      "d": 26.315741666665417,
      "v": 77
    },
    {
      "midi": 40,
      "hit": false,
      "t": 112890.77235833326,
      "d": 26.315741666665417,
      "v": 79
    },
    {
      "midi": 40,
      "hit": false,
      "t": 112999.79471666523,
      "d": 75.18783333332976,
      "v": 102
    },
    {
      "midi": 40,
      "hit": false,
      "t": 113003.55410833325,
      "d": 26.315741666665417,
      "v": 99
    },
    {
      "midi": 40,
      "hit": false,
      "t": 113454.68110833189,
      "d": 71.42844166666328,
      "v": 102
    },
    {
      "midi": 40,
      "hit": false,
      "t": 113909.56749999853,
      "d": 71.42844166666328,
      "v": 102
    },
    {
      "midi": 40,
      "hit": false,
      "t": 114353.1757166652,
      "d": 75.18783333332976,
      "v": 102
    },
    {
      "midi": 40,
      "hit": false,
      "t": 114808.06210833187,
      "d": 75.18783333332976,
      "v": 102
    },
    {
      "midi": 40,
      "hit": false,
      "t": 115259.18910833186,
      "d": 71.42844166666328,
      "v": 102
    },
    {
      "midi": 40,
      "hit": false,
      "t": 115710.31610833184,
      "d": 71.42844166666328,
      "v": 102
    },
    {
      "midi": 40,
      "hit": false,
      "t": 116157.68371666517,
      "d": 75.18783333332976,
      "v": 102
    },
    {
      "midi": 43,
      "hit": false,
      "t": 116612.57010833183,
      "d": 71.42844166666328,
      "v": 102
    },
    {
      "midi": 40,
      "hit": false,
      "t": 117518.58349999848,
      "d": 71.42844166666328,
      "v": 102
    },
    {
      "midi": 40,
      "hit": false,
      "t": 117962.19171666514,
      "d": 75.18783333332976,
      "v": 102
    },
    {
      "midi": 40,
      "hit": false,
      "t": 118417.07810833181,
      "d": 75.18783333332976,
      "v": 102
    },
    {
      "midi": 45,
      "hit": false,
      "t": 118759.18274999848,
      "d": 101.50357499999518,
      "v": 109
    },
    {
      "midi": 40,
      "hit": false,
      "t": 118868.20510833325,
      "d": 26.315741666665417,
      "v": 96
    },
    {
      "midi": 43,
      "hit": false,
      "t": 118984.74624999847,
      "d": 259.3980249999877,
      "v": 102
    },
    {
      "midi": 40,
      "hit": false,
      "t": 119319.33210833179,
      "d": 71.42844166666328,
      "v": 102
    },
    {
      "midi": 40,
      "hit": false,
      "t": 119766.69971666511,
      "d": 75.18783333332976,
      "v": 102
    },
    {
      "midi": 40,
      "hit": false,
      "t": 119996.02260833325,
      "d": 26.315741666665417,
      "v": 58
    },
    {
      "midi": 40,
      "hit": false,
      "t": 120108.80435833325,
      "d": 26.315741666665417,
      "v": 58
    },
    {
      "midi": 40,
      "hit": false,
      "t": 120217.82671666512,
      "d": 75.18783333332976,
      "v": 102
    },
    {
      "midi": 40,
      "hit": false,
      "t": 120221.58610833324,
      "d": 26.315741666665417,
      "v": 99
    },
    {
      "midi": 40,
      "hit": false,
      "t": 121127.59949999843,
      "d": 71.42844166666328,
      "v": 102
    },
    {
      "midi": 40,
      "hit": false,
      "t": 121571.20771666509,
      "d": 75.18783333332976,
      "v": 102
    },
    {
      "midi": 40,
      "hit": false,
      "t": 122026.09410833176,
      "d": 75.18783333332976,
      "v": 102
    },
    {
      "midi": 45,
      "hit": false,
      "t": 122368.19874999842,
      "d": 101.50357499999518,
      "v": 109
    },
    {
      "midi": 40,
      "hit": false,
      "t": 122477.22110833324,
      "d": 26.315741666665417,
      "v": 96
    },
    {
      "midi": 43,
      "hit": false,
      "t": 122593.76224999841,
      "d": 259.3980249999877,
      "v": 102
    },
    {
      "midi": 40,
      "hit": false,
      "t": 122928.34810833173,
      "d": 71.42844166666328,
      "v": 102
    },
    {
      "midi": 40,
      "hit": false,
      "t": 123375.71571666506,
      "d": 75.18783333332976,
      "v": 102
    },
    {
      "midi": 40,
      "hit": false,
      "t": 123605.03860833324,
      "d": 26.315741666665417,
      "v": 58
    },
    {
      "midi": 40,
      "hit": false,
      "t": 123717.82035833324,
      "d": 26.315741666665417,
      "v": 58
    },
    {
      "midi": 40,
      "hit": false,
      "t": 123826.84271666507,
      "d": 75.18783333332976,
      "v": 102
    },
    {
      "midi": 40,
      "hit": false,
      "t": 123830.60210833323,
      "d": 26.315741666665417,
      "v": 99
    },
    {
      "midi": 47,
      "hit": false,
      "t": 153379.4206083332,
      "d": 225.5634999999893,
      "v": 1
    },
    {
      "midi": 59,
      "hit": false,
      "t": 153379.4206083332,
      "d": 225.5634999999893,
      "v": 1
    },
    {
      "midi": 50,
      "hit": false,
      "t": 153604.98410833318,
      "d": 221.80410833333735,
      "v": 1
    },
    {
      "midi": 62,
      "hit": false,
      "t": 153604.98410833318,
      "d": 221.80410833333735,
      "v": 1
    },
    {
      "midi": 40,
      "hit": false,
      "t": 153608.7434999984,
      "d": 71.42844166667783,
      "v": 102
    },
    {
      "midi": 52,
      "hit": false,
      "t": 153830.5476083332,
      "d": 221.80410833333735,
      "v": 1
    },
    {
      "midi": 64,
      "hit": false,
      "t": 153830.5476083332,
      "d": 221.80410833333735,
      "v": 1
    },
    {
      "midi": 40,
      "hit": false,
      "t": 154052.35171666509,
      "d": 75.18783333332976,
      "v": 102
    },
    {
      "midi": 54,
      "hit": false,
      "t": 154056.11110833322,
      "d": 447.36760833332664,
      "v": 1
    },
    {
      "midi": 66,
      "hit": false,
      "t": 154056.11110833322,
      "d": 447.36760833332664,
      "v": 1
    },
    {
      "midi": 40,
      "hit": false,
      "t": 154507.23810833175,
      "d": 75.18783333332976,
      "v": 102
    },
    {
      "midi": 55,
      "hit": false,
      "t": 154507.23810833323,
      "d": 221.80410833333735,
      "v": 1
    },
    {
      "midi": 67,
      "hit": false,
      "t": 154507.23810833323,
      "d": 221.80410833333735,
      "v": 1
    },
    {
      "midi": 54,
      "hit": false,
      "t": 154732.80160833325,
      "d": 229.32289166667033,
      "v": 1
    },
    {
      "midi": 66,
      "hit": false,
      "t": 154732.80160833325,
      "d": 229.32289166667033,
      "v": 1
    },
    {
      "midi": 45,
      "hit": false,
      "t": 154849.3427499984,
      "d": 101.50357500000973,
      "v": 109
    },
    {
      "midi": 40,
      "hit": false,
      "t": 154958.36510833324,
      "d": 26.31574166667997,
      "v": 96
    },
    {
      "midi": 52,
      "hit": false,
      "t": 154958.36510833324,
      "d": 447.36760833335575,
      "v": 1
    },
    {
      "midi": 64,
      "hit": false,
      "t": 154958.36510833324,
      "d": 447.36760833335575,
      "v": 1
    },
    {
      "midi": 43,
      "hit": false,
      "t": 155074.90624999843,
      "d": 259.39802500003134,
      "v": 102
    },
    {
      "midi": 40,
      "hit": false,
      "t": 155409.49210833182,
      "d": 71.42844166667783,
      "v": 102
    },
    {
      "midi": 54,
      "hit": false,
      "t": 155409.49210833327,
      "d": 240.60106666665524,
      "v": 1
    },
    {
      "midi": 66,
      "hit": false,
      "t": 155409.49210833327,
      "d": 240.60106666665524,
      "v": 1
    },
    {
      "midi": 47,
      "hit": false,
      "t": 155635.05560833326,
      "d": 1575.1851083333313,
      "v": 1
    },
    {
      "midi": 59,
      "hit": false,
      "t": 155635.05560833326,
      "d": 1575.1851083333313,
      "v": 1
    },
    {
      "midi": 40,
      "hit": false,
      "t": 155856.85971666517,
      "d": 75.18783333332976,
      "v": 102
    },
    {
      "midi": 40,
      "hit": false,
      "t": 156086.18260833324,
      "d": 26.31574166667997,
      "v": 58
    },
    {
      "midi": 40,
      "hit": false,
      "t": 156198.96435833327,
      "d": 26.31574166667997,
      "v": 58
    },
    {
      "midi": 40,
      "hit": false,
      "t": 156307.98671666515,
      "d": 75.18783333332976,
      "v": 102
    },
    {
      "midi": 40,
      "hit": false,
      "t": 156311.7461083333,
      "d": 26.31574166667997,
      "v": 99
    },
    {
      "midi": 45,
      "hit": false,
      "t": 156650.09135833182,
      "d": 101.50357500003884,
      "v": 109
    },
    {
      "midi": 40,
      "hit": false,
      "t": 156762.8731083333,
      "d": 26.31574166667997,
      "v": 96
    },
    {
      "midi": 43,
      "hit": false,
      "t": 156875.65485833187,
      "d": 259.39802500000224,
      "v": 102
    },
    {
      "midi": 50,
      "hit": false,
      "t": 157214.00010833328,
      "d": 221.80410833333735,
      "v": 1
    },
    {
      "midi": 62,
      "hit": false,
      "t": 157214.00010833328,
      "d": 221.80410833333735,
      "v": 1
    },
    {
      "midi": 40,
      "hit": false,
      "t": 157217.75949999856,
      "d": 71.42844166667783,
      "v": 102
    },
    {
      "midi": 52,
      "hit": false,
      "t": 157439.5636083333,
      "d": 221.80410833333735,
      "v": 1
    },
    {
      "midi": 64,
      "hit": false,
      "t": 157439.5636083333,
      "d": 221.80410833333735,
      "v": 1
    },
    {
      "midi": 40,
      "hit": false,
      "t": 157661.36771666523,
      "d": 75.18783333332976,
      "v": 102
    },
    {
      "midi": 54,
      "hit": false,
      "t": 157665.1271083333,
      "d": 447.36760833332664,
      "v": 1
    },
    {
      "midi": 66,
      "hit": false,
      "t": 157665.1271083333,
      "d": 447.36760833332664,
      "v": 1
    },
    {
      "midi": 40,
      "hit": false,
      "t": 158116.2541083319,
      "d": 75.18783333332976,
      "v": 102
    },
    {
      "midi": 55,
      "hit": false,
      "t": 158116.25410833332,
      "d": 221.80410833333735,
      "v": 1
    },
    {
      "midi": 67,
      "hit": false,
      "t": 158116.25410833332,
      "d": 221.80410833333735,
      "v": 1
    },
    {
      "midi": 54,
      "hit": false,
      "t": 158341.81760833334,
      "d": 229.32289166667033,
      "v": 1
    },
    {
      "midi": 66,
      "hit": false,
      "t": 158341.81760833334,
      "d": 229.32289166667033,
      "v": 1
    },
    {
      "midi": 45,
      "hit": false,
      "t": 158458.35874999856,
      "d": 101.50357500000973,
      "v": 109
    },
    {
      "midi": 40,
      "hit": false,
      "t": 158567.3811083333,
      "d": 26.31574166667997,
      "v": 96
    },
    {
      "midi": 52,
      "hit": false,
      "t": 158567.38110833333,
      "d": 447.36760833335575,
      "v": 1
    },
    {
      "midi": 64,
      "hit": false,
      "t": 158567.38110833333,
      "d": 447.36760833335575,
      "v": 1
    },
    {
      "midi": 43,
      "hit": false,
      "t": 158683.92224999858,
      "d": 259.39802500003134,
      "v": 102
    },
    {
      "midi": 40,
      "hit": false,
      "t": 159018.50810833197,
      "d": 71.42844166667783,
      "v": 102
    },
    {
      "midi": 54,
      "hit": false,
      "t": 159018.50810833336,
      "d": 240.60106666665524,
      "v": 1
    },
    {
      "midi": 66,
      "hit": false,
      "t": 159018.50810833336,
      "d": 240.60106666665524,
      "v": 1
    },
    {
      "midi": 47,
      "hit": false,
      "t": 159244.07160833335,
      "d": 1575.1851083333313,
      "v": 1
    },
    {
      "midi": 59,
      "hit": false,
      "t": 159244.07160833335,
      "d": 1575.1851083333313,
      "v": 1
    },
    {
      "midi": 40,
      "hit": false,
      "t": 159465.87571666532,
      "d": 75.18783333332976,
      "v": 102
    },
    {
      "midi": 40,
      "hit": false,
      "t": 159917.0027166653,
      "d": 75.18783333332976,
      "v": 102
    },
    {
      "midi": 45,
      "hit": false,
      "t": 160259.10735833197,
      "d": 101.50357500003884,
      "v": 109
    },
    {
      "midi": 40,
      "hit": false,
      "t": 160371.8891083333,
      "d": 26.31574166667997,
      "v": 96
    },
    {
      "midi": 43,
      "hit": false,
      "t": 160484.670858332,
      "d": 259.39802500000224,
      "v": 102
    },
    {
      "midi": 50,
      "hit": false,
      "t": 160823.01610833337,
      "d": 221.80410833333735,
      "v": 1
    },
    {
      "midi": 62,
      "hit": false,
      "t": 160823.01610833337,
      "d": 221.80410833333735,
      "v": 1
    },
    {
      "midi": 40,
      "hit": false,
      "t": 160826.7754999987,
      "d": 71.42844166667783,
      "v": 102
    },
    {
      "midi": 52,
      "hit": false,
      "t": 161048.57960833338,
      "d": 221.80410833333735,
      "v": 1
    },
    {
      "midi": 64,
      "hit": false,
      "t": 161048.57960833338,
      "d": 221.80410833333735,
      "v": 1
    },
    {
      "midi": 40,
      "hit": false,
      "t": 161270.38371666538,
      "d": 75.18783333332976,
      "v": 102
    },
    {
      "midi": 54,
      "hit": false,
      "t": 161274.1431083334,
      "d": 447.36760833332664,
      "v": 1
    },
    {
      "midi": 66,
      "hit": false,
      "t": 161274.1431083334,
      "d": 447.36760833332664,
      "v": 1
    },
    {
      "midi": 40,
      "hit": false,
      "t": 161725.27010833204,
      "d": 75.18783333332976,
      "v": 102
    },
    {
      "midi": 55,
      "hit": false,
      "t": 161725.2701083334,
      "d": 221.80410833333735,
      "v": 1
    },
    {
      "midi": 67,
      "hit": false,
      "t": 161725.2701083334,
      "d": 221.80410833333735,
      "v": 1
    },
    {
      "midi": 54,
      "hit": false,
      "t": 161950.83360833343,
      "d": 229.32289166667033,
      "v": 1
    },
    {
      "midi": 66,
      "hit": false,
      "t": 161950.83360833343,
      "d": 229.32289166667033,
      "v": 1
    },
    {
      "midi": 45,
      "hit": false,
      "t": 162067.3747499987,
      "d": 101.50357500000973,
      "v": 109
    },
    {
      "midi": 40,
      "hit": false,
      "t": 162176.3971083333,
      "d": 26.31574166667997,
      "v": 96
    },
    {
      "midi": 52,
      "hit": false,
      "t": 162176.39710833342,
      "d": 447.36760833335575,
      "v": 1
    },
    {
      "midi": 64,
      "hit": false,
      "t": 162176.39710833342,
      "d": 447.36760833335575,
      "v": 1
    },
    {
      "midi": 43,
      "hit": false,
      "t": 162292.93824999873,
      "d": 259.39802500003134,
      "v": 102
    },
    {
      "midi": 40,
      "hit": false,
      "t": 162627.52410833212,
      "d": 71.42844166667783,
      "v": 102
    },
    {
      "midi": 54,
      "hit": false,
      "t": 162627.52410833345,
      "d": 240.60106666665524,
      "v": 1
    },
    {
      "midi": 66,
      "hit": false,
      "t": 162627.52410833345,
      "d": 240.60106666665524,
      "v": 1
    },
    {
      "midi": 47,
      "hit": false,
      "t": 162853.08760833344,
      "d": 1575.1851083333313,
      "v": 1
    },
    {
      "midi": 59,
      "hit": false,
      "t": 162853.08760833344,
      "d": 1575.1851083333313,
      "v": 1
    },
    {
      "midi": 40,
      "hit": false,
      "t": 163074.89171666547,
      "d": 75.18783333332976,
      "v": 102
    },
    {
      "midi": 40,
      "hit": false,
      "t": 163304.2146083333,
      "d": 26.31574166667997,
      "v": 58
    },
    {
      "midi": 40,
      "hit": false,
      "t": 163416.99635833333,
      "d": 26.31574166667997,
      "v": 58
    },
    {
      "midi": 40,
      "hit": false,
      "t": 163526.01871666545,
      "d": 75.18783333332976,
      "v": 102
    },
    {
      "midi": 40,
      "hit": false,
      "t": 163529.77810833335,
      "d": 26.31574166667997,
      "v": 99
    },
    {
      "midi": 45,
      "hit": false,
      "t": 163868.12335833212,
      "d": 101.50357500003884,
      "v": 109
    },
    {
      "midi": 40,
      "hit": false,
      "t": 163980.90510833336,
      "d": 26.31574166667997,
      "v": 96
    },
    {
      "midi": 43,
      "hit": false,
      "t": 164093.68685833216,
      "d": 259.39802500000224,
      "v": 102
    },
    {
      "midi": 50,
      "hit": false,
      "t": 164432.03210833346,
      "d": 221.80410833333735,
      "v": 1
    },
    {
      "midi": 62,
      "hit": false,
      "t": 164432.03210833346,
      "d": 221.80410833333735,
      "v": 1
    },
    {
      "midi": 40,
      "hit": false,
      "t": 164435.79149999886,
      "d": 71.42844166667783,
      "v": 102
    },
    {
      "midi": 52,
      "hit": false,
      "t": 164657.59560833347,
      "d": 221.80410833333735,
      "v": 1
    },
    {
      "midi": 64,
      "hit": false,
      "t": 164657.59560833347,
      "d": 221.80410833333735,
      "v": 1
    },
    {
      "midi": 40,
      "hit": false,
      "t": 164879.39971666553,
      "d": 75.18783333332976,
      "v": 102
    },
    {
      "midi": 54,
      "hit": false,
      "t": 164883.1591083335,
      "d": 447.36760833332664,
      "v": 1
    },
    {
      "midi": 66,
      "hit": false,
      "t": 164883.1591083335,
      "d": 447.36760833332664,
      "v": 1
    },
    {
      "midi": 40,
      "hit": false,
      "t": 165334.2861083322,
      "d": 75.18783333332976,
      "v": 102
    },
    {
      "midi": 55,
      "hit": false,
      "t": 165334.2861083335,
      "d": 221.80410833333735,
      "v": 1
    },
    {
      "midi": 67,
      "hit": false,
      "t": 165334.2861083335,
      "d": 221.80410833333735,
      "v": 1
    },
    {
      "midi": 54,
      "hit": false,
      "t": 165559.84960833352,
      "d": 229.32289166667033,
      "v": 1
    },
    {
      "midi": 66,
      "hit": false,
      "t": 165559.84960833352,
      "d": 229.32289166667033,
      "v": 1
    },
    {
      "midi": 45,
      "hit": false,
      "t": 165676.39074999886,
      "d": 101.50357500000973,
      "v": 109
    },
    {
      "midi": 40,
      "hit": false,
      "t": 165785.41310833336,
      "d": 26.31574166667997,
      "v": 96
    },
    {
      "midi": 52,
      "hit": false,
      "t": 165785.4131083335,
      "d": 447.36760833335575,
      "v": 1
    },
    {
      "midi": 64,
      "hit": false,
      "t": 165785.4131083335,
      "d": 447.36760833335575,
      "v": 1
    },
    {
      "midi": 43,
      "hit": false,
      "t": 165901.95424999887,
      "d": 259.39802500003134,
      "v": 102
    },
    {
      "midi": 40,
      "hit": false,
      "t": 166236.54010833226,
      "d": 71.42844166667783,
      "v": 102
    },
    {
      "midi": 54,
      "hit": false,
      "t": 166236.54010833355,
      "d": 240.60106666665524,
      "v": 1
    },
    {
      "midi": 66,
      "hit": false,
      "t": 166236.54010833355,
      "d": 240.60106666665524,
      "v": 1
    },
    {
      "midi": 47,
      "hit": false,
      "t": 166462.10360833353,
      "d": 1353.380999999994,
      "v": 1
    },
    {
      "midi": 59,
      "hit": false,
      "t": 166462.10360833353,
      "d": 1353.380999999994,
      "v": 1
    },
    {
      "midi": 40,
      "hit": false,
      "t": 166683.90771666562,
      "d": 75.18783333332976,
      "v": 102
    },
    {
      "midi": 40,
      "hit": false,
      "t": 167135.0347166656,
      "d": 75.18783333332976,
      "v": 102
    },
    {
      "midi": 45,
      "hit": false,
      "t": 167477.13935833226,
      "d": 101.50357500003884,
      "v": 109
    },
    {
      "midi": 40,
      "hit": false,
      "t": 167589.92110833336,
      "d": 26.31574166667997,
      "v": 96
    },
    {
      "midi": 43,
      "hit": false,
      "t": 167702.7028583323,
      "d": 259.39802500000224,
      "v": 102
    },
    {
      "midi": 59,
      "hit": false,
      "t": 167819.2440000002,
      "d": 2022.552716666658,
      "v": 1
    },
    {
      "midi": 64,
      "hit": false,
      "t": 167819.2440000002,
      "d": 2022.552716666658,
      "v": 1
    },
    {
      "midi": 71,
      "hit": false,
      "t": 167819.2440000002,
      "d": 2022.552716666658,
      "v": 1
    },
    {
      "midi": 40,
      "hit": false,
      "t": 168044.807499999,
      "d": 71.42844166667783,
      "v": 102
    },
    {
      "midi": 40,
      "hit": false,
      "t": 168488.41571666568,
      "d": 75.18783333332976,
      "v": 102
    },
    {
      "midi": 40,
      "hit": false,
      "t": 168943.30210833234,
      "d": 75.18783333332976,
      "v": 102
    },
    {
      "midi": 45,
      "hit": false,
      "t": 169285.406749999,
      "d": 101.50357500000973,
      "v": 109
    },
    {
      "midi": 40,
      "hit": false,
      "t": 169394.42910833337,
      "d": 26.31574166667997,
      "v": 96
    },
    {
      "midi": 43,
      "hit": false,
      "t": 169510.97024999902,
      "d": 259.39802500003134,
      "v": 102
    },
    {
      "midi": 40,
      "hit": false,
      "t": 169845.5561083324,
      "d": 71.42844166667783,
      "v": 102
    },
    {
      "midi": 69,
      "hit": false,
      "t": 169845.55610833355,
      "d": 447.36760833332664,
      "v": 1
    },
    {
      "midi": 40,
      "hit": false,
      "t": 170292.92371666577,
      "d": 75.18783333332976,
      "v": 102
    },
    {
      "midi": 71,
      "hit": false,
      "t": 170296.68310833356,
      "d": 221.80410833333735,
      "v": 1
    },
    {
      "midi": 40,
      "hit": false,
      "t": 170522.24660833337,
      "d": 26.31574166667997,
      "v": 58
    },
    {
      "midi": 69,
      "hit": false,
      "t": 170522.24660833357,
      "d": 221.80410833333735,
      "v": 1
    },
    {
      "midi": 40,
      "hit": false,
      "t": 170635.0283583334,
      "d": 26.31574166667997,
      "v": 58
    },
    {
      "midi": 40,
      "hit": false,
      "t": 170744.05071666575,
      "d": 75.18783333332976,
      "v": 102
    },
    {
      "midi": 40,
      "hit": false,
      "t": 170747.81010833342,
      "d": 26.31574166667997,
      "v": 99
    },
    {
      "midi": 67,
      "hit": false,
      "t": 170747.8101083336,
      "d": 676.690499999997,
      "v": 1
    },
    {
      "midi": 45,
      "hit": false,
      "t": 171086.1553583324,
      "d": 101.50357500003884,
      "v": 109
    },
    {
      "midi": 40,
      "hit": false,
      "t": 171198.93710833343,
      "d": 26.31574166667997,
      "v": 96
    },
    {
      "midi": 43,
      "hit": false,
      "t": 171311.71885833246,
      "d": 259.39802500000224,
      "v": 102
    },
    {
      "midi": 59,
      "hit": false,
      "t": 171428.26000000027,
      "d": 477.44274166665855,
      "v": 1
    },
    {
      "midi": 71,
      "hit": false,
      "t": 171428.26000000027,
      "d": 492.4803083333245,
      "v": 1
    },
    {
      "midi": 62,
      "hit": false,
      "t": 171428.26000000027,
      "d": 2248.1162166666472,
      "v": 1
    },
    {
      "midi": 40,
      "hit": false,
      "t": 171653.82349999915,
      "d": 71.42844166667783,
      "v": 102
    },
    {
      "midi": 40,
      "hit": false,
      "t": 172097.43171666583,
      "d": 75.18783333332976,
      "v": 102
    },
    {
      "midi": 40,
      "hit": false,
      "t": 172552.3181083325,
      "d": 75.18783333332976,
      "v": 102
    },
    {
      "midi": 45,
      "hit": false,
      "t": 172894.42274999915,
      "d": 101.50357500000973,
      "v": 109
    },
    {
      "midi": 40,
      "hit": false,
      "t": 173003.44510833343,
      "d": 26.31574166667997,
      "v": 96
    },
    {
      "midi": 43,
      "hit": false,
      "t": 173119.98624999917,
      "d": 259.39802500003134,
      "v": 102
    },
    {
      "midi": 40,
      "hit": false,
      "t": 173454.57210833256,
      "d": 71.42844166667783,
      "v": 102
    },
    {
      "midi": 69,
      "hit": false,
      "t": 173680.1356083336,
      "d": 218.0447166666563,
      "v": 1
    },
    {
      "midi": 40,
      "hit": false,
      "t": 173901.93971666592,
      "d": 75.18783333332976,
      "v": 102
    },
    {
      "midi": 71,
      "hit": false,
      "t": 173901.93971666694,
      "d": 244.36045833333628,
      "v": 1
    },
    {
      "midi": 69,
      "hit": false,
      "t": 174146.30017500027,
      "d": 206.7665416666714,
      "v": 1
    },
    {
      "midi": 40,
      "hit": false,
      "t": 174353.0667166659,
      "d": 75.18783333332976,
      "v": 102
    },
    {
      "midi": 67,
      "hit": false,
      "t": 174356.82610833363,
      "d": 676.690499999997,
      "v": 1
    },
    {
      "midi": 45,
      "hit": false,
      "t": 174695.17135833256,
      "d": 101.50357500003884,
      "v": 109
    },
    {
      "midi": 40,
      "hit": false,
      "t": 174807.95310833343,
      "d": 26.31574166667997,
      "v": 96
    },
    {
      "midi": 43,
      "hit": false,
      "t": 174920.7348583326,
      "d": 259.39802500000224,
      "v": 102
    },
    {
      "midi": 59,
      "hit": false,
      "t": 175037.2760000003,
      "d": 2033.830891666672,
      "v": 1
    },
    {
      "midi": 64,
      "hit": false,
      "t": 175037.2760000003,
      "d": 2033.830891666672,
      "v": 1
    },
    {
      "midi": 71,
      "hit": false,
      "t": 175037.2760000003,
      "d": 2033.830891666672,
      "v": 1
    },
    {
      "midi": 40,
      "hit": false,
      "t": 175262.8394999993,
      "d": 71.42844166667783,
      "v": 102
    },
    {
      "midi": 40,
      "hit": false,
      "t": 175706.44771666598,
      "d": 75.18783333332976,
      "v": 102
    },
    {
      "midi": 40,
      "hit": false,
      "t": 176161.33410833264,
      "d": 75.18783333332976,
      "v": 102
    },
    {
      "midi": 45,
      "hit": false,
      "t": 176503.4387499993,
      "d": 101.50357500000973,
      "v": 109
    },
    {
      "midi": 40,
      "hit": false,
      "t": 176612.46110833343,
      "d": 26.31574166667997,
      "v": 96
    },
    {
      "midi": 43,
      "hit": false,
      "t": 176729.00224999932,
      "d": 259.39802500003134,
      "v": 102
    },
    {
      "midi": 40,
      "hit": false,
      "t": 177063.5881083327,
      "d": 71.42844166667783,
      "v": 102
    },
    {
      "midi": 70,
      "hit": false,
      "t": 177074.86628333366,
      "d": 657.8935416666791,
      "v": 1
    },
    {
      "midi": 40,
      "hit": false,
      "t": 177510.95571666607,
      "d": 75.18783333332976,
      "v": 102
    },
    {
      "midi": 69,
      "hit": false,
      "t": 177736.51921666702,
      "d": 902.2539999999863,
      "v": 1
    },
    {
      "midi": 40,
      "hit": false,
      "t": 177740.27860833344,
      "d": 26.31574166667997,
      "v": 58
    },
    {
      "midi": 40,
      "hit": false,
      "t": 177853.06035833346,
      "d": 26.31574166667997,
      "v": 58
    },
    {
      "midi": 40,
      "hit": false,
      "t": 177962.08271666605,
      "d": 75.18783333332976,
      "v": 102
    },
    {
      "midi": 40,
      "hit": false,
      "t": 177965.84210833348,
      "d": 26.31574166667997,
      "v": 99
    },
    {
      "midi": 45,
      "hit": false,
      "t": 178304.1873583327,
      "d": 101.50357500003884,
      "v": 109
    },
    {
      "midi": 40,
      "hit": false,
      "t": 178416.9691083335,
      "d": 26.31574166667997,
      "v": 96
    },
    {
      "midi": 43,
      "hit": false,
      "t": 178529.75085833276,
      "d": 259.39802500000224,
      "v": 102
    },
    {
      "midi": 59,
      "hit": false,
      "t": 178642.53260833368,
      "d": 1800.7486083333206,
      "v": 1
    },
    {
      "midi": 62,
      "hit": false,
      "t": 178642.53260833368,
      "d": 1800.7486083333206,
      "v": 1
    },
    {
      "midi": 71,
      "hit": false,
      "t": 178642.53260833368,
      "d": 1800.7486083333206,
      "v": 1
    },
    {
      "midi": 40,
      "hit": false,
      "t": 178871.85549999945,
      "d": 71.42844166667783,
      "v": 102
    },
    {
      "midi": 40,
      "hit": false,
      "t": 179315.46371666613,
      "d": 75.18783333332976,
      "v": 102
    },
    {
      "midi": 40,
      "hit": false,
      "t": 179770.3501083328,
      "d": 75.18783333332976,
      "v": 102
    },
    {
      "midi": 45,
      "hit": false,
      "t": 180112.45474999945,
      "d": 101.50357500000973,
      "v": 109
    },
    {
      "midi": 40,
      "hit": false,
      "t": 180221.4771083335,
      "d": 26.31574166667997,
      "v": 96
    },
    {
      "midi": 43,
      "hit": false,
      "t": 180338.01824999947,
      "d": 259.39802500003134,
      "v": 102
    },
    {
      "midi": 40,
      "hit": false,
      "t": 180672.60410833286,
      "d": 71.42844166667783,
      "v": 102
    },
    {
      "midi": 40,
      "hit": false,
      "t": 181119.97171666622,
      "d": 75.18783333332976,
      "v": 102
    },
    {
      "midi": 40,
      "hit": false,
      "t": 181571.0987166662,
      "d": 75.18783333332976,
      "v": 102
    },
    {
      "midi": 45,
      "hit": false,
      "t": 181913.20335833286,
      "d": 101.50357500003884,
      "v": 109
    },
    {
      "midi": 40,
      "hit": false,
      "t": 182025.9851083335,
      "d": 26.31574166667997,
      "v": 96
    },
    {
      "midi": 43,
      "hit": false,
      "t": 182138.7668583329,
      "d": 259.39802500000224,
      "v": 102
    },
    {
      "midi": 47,
      "hit": false,
      "t": 182251.54860833366,
      "d": 225.5634999999893,
      "v": 1
    },
    {
      "midi": 59,
      "hit": false,
      "t": 182251.54860833366,
      "d": 225.5634999999893,
      "v": 1
    },
    {
      "midi": 50,
      "hit": false,
      "t": 182477.11210833365,
      "d": 221.80410833333735,
      "v": 1
    },
    {
      "midi": 62,
      "hit": false,
      "t": 182477.11210833365,
      "d": 221.80410833333735,
      "v": 1
    },
    {
      "midi": 40,
      "hit": false,
      "t": 182480.8714999996,
      "d": 71.42844166667783,
      "v": 102
    },
    {
      "midi": 52,
      "hit": false,
      "t": 182702.67560833367,
      "d": 221.80410833333735,
      "v": 1
    },
    {
      "midi": 64,
      "hit": false,
      "t": 182702.67560833367,
      "d": 221.80410833333735,
      "v": 1
    },
    {
      "midi": 40,
      "hit": false,
      "t": 182924.47971666628,
      "d": 75.18783333332976,
      "v": 102
    },
    {
      "midi": 54,
      "hit": false,
      "t": 182928.23910833368,
      "d": 447.36760833332664,
      "v": 1
    },
    {
      "midi": 66,
      "hit": false,
      "t": 182928.23910833368,
      "d": 447.36760833332664,
      "v": 1
    },
    {
      "midi": 40,
      "hit": false,
      "t": 183379.36610833294,
      "d": 75.18783333332976,
      "v": 102
    },
    {
      "midi": 55,
      "hit": false,
      "t": 183379.3661083337,
      "d": 221.80410833333735,
      "v": 1
    },
    {
      "midi": 67,
      "hit": false,
      "t": 183379.3661083337,
      "d": 221.80410833333735,
      "v": 1
    },
    {
      "midi": 54,
      "hit": false,
      "t": 183604.9296083337,
      "d": 229.32289166667033,
      "v": 1
    },
    {
      "midi": 66,
      "hit": false,
      "t": 183604.9296083337,
      "d": 229.32289166667033,
      "v": 1
    },
    {
      "midi": 45,
      "hit": false,
      "t": 183721.4707499996,
      "d": 101.50357500000973,
      "v": 109
    },
    {
      "midi": 40,
      "hit": false,
      "t": 183830.4931083335,
      "d": 26.31574166667997,
      "v": 96
    },
    {
      "midi": 52,
      "hit": false,
      "t": 183830.4931083337,
      "d": 447.36760833335575,
      "v": 1
    },
    {
      "midi": 64,
      "hit": false,
      "t": 183830.4931083337,
      "d": 447.36760833335575,
      "v": 1
    },
    {
      "midi": 43,
      "hit": false,
      "t": 183947.03424999962,
      "d": 259.39802500003134,
      "v": 102
    },
    {
      "midi": 40,
      "hit": false,
      "t": 184281.620108333,
      "d": 71.42844166667783,
      "v": 102
    },
    {
      "midi": 54,
      "hit": false,
      "t": 184281.62010833374,
      "d": 240.60106666665524,
      "v": 1
    },
    {
      "midi": 66,
      "hit": false,
      "t": 184281.62010833374,
      "d": 240.60106666665524,
      "v": 1
    },
    {
      "midi": 47,
      "hit": false,
      "t": 184507.18360833373,
      "d": 1575.1851083333313,
      "v": 1
    },
    {
      "midi": 59,
      "hit": false,
      "t": 184507.18360833373,
      "d": 1575.1851083333313,
      "v": 1
    },
    {
      "midi": 40,
      "hit": false,
      "t": 184728.98771666636,
      "d": 75.18783333332976,
      "v": 102
    },
    {
      "midi": 40,
      "hit": false,
      "t": 184958.3106083335,
      "d": 26.31574166667997,
      "v": 58
    },
    {
      "midi": 40,
      "hit": false,
      "t": 185071.09235833352,
      "d": 26.31574166667997,
      "v": 58
    },
    {
      "midi": 40,
      "hit": false,
      "t": 185180.11471666634,
      "d": 75.18783333332976,
      "v": 102
    },
    {
      "midi": 40,
      "hit": false,
      "t": 185183.87410833355,
      "d": 26.31574166667997,
      "v": 99
    },
    {
      "midi": 45,
      "hit": false,
      "t": 185522.219358333,
      "d": 101.50357500003884,
      "v": 109
    },
    {
      "midi": 40,
      "hit": false,
      "t": 185635.00110833356,
      "d": 26.31574166667997,
      "v": 96
    },
    {
      "midi": 43,
      "hit": false,
      "t": 185747.78285833306,
      "d": 259.39802500000224,
      "v": 102
    },
    {
      "midi": 50,
      "hit": false,
      "t": 186086.12810833374,
      "d": 221.80410833333735,
      "v": 1
    },
    {
      "midi": 62,
      "hit": false,
      "t": 186086.12810833374,
      "d": 221.80410833333735,
      "v": 1
    },
    {
      "midi": 40,
      "hit": false,
      "t": 186089.88749999975,
      "d": 71.42844166667783,
      "v": 102
    },
    {
      "midi": 52,
      "hit": false,
      "t": 186311.69160833376,
      "d": 221.80410833333735,
      "v": 1
    },
    {
      "midi": 64,
      "hit": false,
      "t": 186311.69160833376,
      "d": 221.80410833333735,
      "v": 1
    },
    {
      "midi": 40,
      "hit": false,
      "t": 186533.49571666642,
      "d": 75.18783333332976,
      "v": 102
    },
    {
      "midi": 54,
      "hit": false,
      "t": 186537.25510833377,
      "d": 447.36760833332664,
      "v": 1
    },
    {
      "midi": 66,
      "hit": false,
      "t": 186537.25510833377,
      "d": 447.36760833332664,
      "v": 1
    },
    {
      "midi": 40,
      "hit": false,
      "t": 186988.38210833308,
      "d": 75.18783333332976,
      "v": 102
    },
    {
      "midi": 55,
      "hit": false,
      "t": 186988.38210833378,
      "d": 221.80410833333735,
      "v": 1
    },
    {
      "midi": 67,
      "hit": false,
      "t": 186988.38210833378,
      "d": 221.80410833333735,
      "v": 1
    },
    {
      "midi": 54,
      "hit": false,
      "t": 187213.9456083338,
      "d": 229.32289166667033,
      "v": 1
    },
    {
      "midi": 66,
      "hit": false,
      "t": 187213.9456083338,
      "d": 229.32289166667033,
      "v": 1
    },
    {
      "midi": 45,
      "hit": false,
      "t": 187330.48674999975,
      "d": 101.50357500000973,
      "v": 109
    },
    {
      "midi": 40,
      "hit": false,
      "t": 187439.50910833356,
      "d": 26.31574166667997,
      "v": 96
    },
    {
      "midi": 52,
      "hit": false,
      "t": 187439.5091083338,
      "d": 447.36760833335575,
      "v": 1
    },
    {
      "midi": 64,
      "hit": false,
      "t": 187439.5091083338,
      "d": 447.36760833335575,
      "v": 1
    },
    {
      "midi": 43,
      "hit": false,
      "t": 187556.05024999977,
      "d": 259.39802500003134,
      "v": 102
    },
    {
      "midi": 40,
      "hit": false,
      "t": 187890.63610833316,
      "d": 71.42844166667783,
      "v": 102
    },
    {
      "midi": 54,
      "hit": false,
      "t": 187890.63610833383,
      "d": 240.60106666665524,
      "v": 1
    },
    {
      "midi": 66,
      "hit": false,
      "t": 187890.63610833383,
      "d": 240.60106666665524,
      "v": 1
    },
    {
      "midi": 47,
      "hit": false,
      "t": 188116.19960833382,
      "d": 1575.1851083333313,
      "v": 1
    },
    {
      "midi": 59,
      "hit": false,
      "t": 188116.19960833382,
      "d": 1575.1851083333313,
      "v": 1
    },
    {
      "midi": 40,
      "hit": false,
      "t": 188338.0037166665,
      "d": 75.18783333332976,
      "v": 102
    },
    {
      "midi": 40,
      "hit": false,
      "t": 188789.1307166665,
      "d": 75.18783333332976,
      "v": 102
    },
    {
      "midi": 45,
      "hit": false,
      "t": 189131.23535833316,
      "d": 101.50357500003884,
      "v": 109
    },
    {
      "midi": 40,
      "hit": false,
      "t": 189244.01710833356,
      "d": 26.31574166667997,
      "v": 96
    },
    {
      "midi": 43,
      "hit": false,
      "t": 189356.7988583332,
      "d": 259.39802500000224,
      "v": 102
    },
    {
      "midi": 50,
      "hit": false,
      "t": 189695.14410833383,
      "d": 221.80410833333735,
      "v": 1
    },
    {
      "midi": 62,
      "hit": false,
      "t": 189695.14410833383,
      "d": 221.80410833333735,
      "v": 1
    },
    {
      "midi": 40,
      "hit": false,
      "t": 189698.9034999999,
      "d": 71.42844166667783,
      "v": 102
    },
    {
      "midi": 52,
      "hit": false,
      "t": 189920.70760833385,
      "d": 221.80410833333735,
      "v": 1
    },
    {
      "midi": 64,
      "hit": false,
      "t": 189920.70760833385,
      "d": 221.80410833333735,
      "v": 1
    },
    {
      "midi": 40,
      "hit": false,
      "t": 190142.51171666657,
      "d": 75.18783333332976,
      "v": 102
    },
    {
      "midi": 54,
      "hit": false,
      "t": 190146.27110833387,
      "d": 447.36760833332664,
      "v": 1
    },
    {
      "midi": 66,
      "hit": false,
      "t": 190146.27110833387,
      "d": 447.36760833332664,
      "v": 1
    },
    {
      "midi": 40,
      "hit": false,
      "t": 190597.39810833323,
      "d": 75.18783333332976,
      "v": 102
    },
    {
      "midi": 55,
      "hit": false,
      "t": 190597.39810833387,
      "d": 221.80410833333735,
      "v": 1
    },
    {
      "midi": 67,
      "hit": false,
      "t": 190597.39810833387,
      "d": 221.80410833333735,
      "v": 1
    },
    {
      "midi": 54,
      "hit": false,
      "t": 190822.9616083339,
      "d": 229.32289166667033,
      "v": 1
    },
    {
      "midi": 66,
      "hit": false,
      "t": 190822.9616083339,
      "d": 229.32289166667033,
      "v": 1
    },
    {
      "midi": 45,
      "hit": false,
      "t": 190939.5027499999,
      "d": 101.50357500000973,
      "v": 109
    },
    {
      "midi": 40,
      "hit": false,
      "t": 191048.52510833356,
      "d": 26.31574166667997,
      "v": 96
    },
    {
      "midi": 52,
      "hit": false,
      "t": 191048.52510833388,
      "d": 447.36760833335575,
      "v": 1
    },
    {
      "midi": 64,
      "hit": false,
      "t": 191048.52510833388,
      "d": 447.36760833335575,
      "v": 1
    },
    {
      "midi": 43,
      "hit": false,
      "t": 191165.06624999992,
      "d": 259.39802500003134,
      "v": 102
    },
    {
      "midi": 40,
      "hit": false,
      "t": 191499.6521083333,
      "d": 71.42844166667783,
      "v": 102
    },
    {
      "midi": 54,
      "hit": false,
      "t": 191499.65210833392,
      "d": 240.60106666665524,
      "v": 1
    },
    {
      "midi": 66,
      "hit": false,
      "t": 191499.65210833392,
      "d": 240.60106666665524,
      "v": 1
    },
    {
      "midi": 47,
      "hit": false,
      "t": 191725.2156083339,
      "d": 1575.1851083333313,
      "v": 1
    },
    {
      "midi": 59,
      "hit": false,
      "t": 191725.2156083339,
      "d": 1575.1851083333313,
      "v": 1
    },
    {
      "midi": 40,
      "hit": false,
      "t": 191947.01971666666,
      "d": 75.18783333332976,
      "v": 102
    },
    {
      "midi": 40,
      "hit": false,
      "t": 192176.34260833357,
      "d": 26.31574166667997,
      "v": 58
    },
    {
      "midi": 40,
      "hit": false,
      "t": 192289.1243583336,
      "d": 26.31574166667997,
      "v": 58
    },
    {
      "midi": 40,
      "hit": false,
      "t": 192398.14671666664,
      "d": 75.18783333332976,
      "v": 102
    },
    {
      "midi": 40,
      "hit": false,
      "t": 192401.9061083336,
      "d": 26.31574166667997,
      "v": 99
    },
    {
      "midi": 45,
      "hit": false,
      "t": 192740.2513583333,
      "d": 101.50357500003884,
      "v": 109
    },
    {
      "midi": 40,
      "hit": false,
      "t": 192853.03310833362,
      "d": 26.31574166667997,
      "v": 96
    },
    {
      "midi": 43,
      "hit": false,
      "t": 192965.81485833335,
      "d": 259.39802500000224,
      "v": 102
    },
    {
      "midi": 50,
      "hit": false,
      "t": 193304.16010833392,
      "d": 221.80410833333735,
      "v": 1
    },
    {
      "midi": 62,
      "hit": false,
      "t": 193304.16010833392,
      "d": 221.80410833333735,
      "v": 1
    },
    {
      "midi": 40,
      "hit": false,
      "t": 193307.91950000005,
      "d": 71.42844166667783,
      "v": 102
    },
    {
      "midi": 52,
      "hit": false,
      "t": 193529.72360833394,
      "d": 221.80410833333735,
      "v": 1
    },
    {
      "midi": 64,
      "hit": false,
      "t": 193529.72360833394,
      "d": 221.80410833333735,
      "v": 1
    },
    {
      "midi": 40,
      "hit": false,
      "t": 193751.52771666672,
      "d": 75.18783333332976,
      "v": 102
    },
    {
      "midi": 54,
      "hit": false,
      "t": 193755.28710833396,
      "d": 447.36760833332664,
      "v": 1
    },
    {
      "midi": 66,
      "hit": false,
      "t": 193755.28710833396,
      "d": 447.36760833332664,
      "v": 1
    },
    {
      "midi": 40,
      "hit": false,
      "t": 194206.41410833338,
      "d": 75.18783333332976,
      "v": 102
    },
    {
      "midi": 55,
      "hit": false,
      "t": 194206.41410833396,
      "d": 221.80410833333735,
      "v": 1
    },
    {
      "midi": 67,
      "hit": false,
      "t": 194206.41410833396,
      "d": 221.80410833333735,
      "v": 1
    },
    {
      "midi": 54,
      "hit": false,
      "t": 194431.97760833398,
      "d": 229.32289166667033,
      "v": 1
    },
    {
      "midi": 66,
      "hit": false,
      "t": 194431.97760833398,
      "d": 229.32289166667033,
      "v": 1
    },
    {
      "midi": 45,
      "hit": false,
      "t": 194548.51875000005,
      "d": 101.50357500000973,
      "v": 109
    },
    {
      "midi": 40,
      "hit": false,
      "t": 194657.54110833362,
      "d": 26.31574166667997,
      "v": 96
    },
    {
      "midi": 52,
      "hit": false,
      "t": 194657.54110833397,
      "d": 447.36760833335575,
      "v": 1
    },
    {
      "midi": 64,
      "hit": false,
      "t": 194657.54110833397,
      "d": 447.36760833335575,
      "v": 1
    },
    {
      "midi": 43,
      "hit": false,
      "t": 194774.08225000006,
      "d": 259.39802500003134,
      "v": 102
    },
    {
      "midi": 40,
      "hit": false,
      "t": 195108.66810833346,
      "d": 71.42844166667783,
      "v": 102
    },
    {
      "midi": 54,
      "hit": false,
      "t": 195108.668108334,
      "d": 240.60106666665524,
      "v": 1
    },
    {
      "midi": 66,
      "hit": false,
      "t": 195108.668108334,
      "d": 240.60106666665524,
      "v": 1
    },
    {
      "midi": 47,
      "hit": false,
      "t": 195334.231608334,
      "d": 1353.380999999994,
      "v": 1
    },
    {
      "midi": 59,
      "hit": false,
      "t": 195334.231608334,
      "d": 1353.380999999994,
      "v": 1
    },
    {
      "midi": 40,
      "hit": false,
      "t": 195556.0357166668,
      "d": 75.18783333332976,
      "v": 102
    },
    {
      "midi": 40,
      "hit": false,
      "t": 196007.1627166668,
      "d": 75.18783333332976,
      "v": 102
    },
    {
      "midi": 45,
      "hit": false,
      "t": 196349.26735833345,
      "d": 101.50357500003884,
      "v": 109
    },
    {
      "midi": 40,
      "hit": false,
      "t": 196462.04910833362,
      "d": 26.31574166667997,
      "v": 96
    },
    {
      "midi": 43,
      "hit": false,
      "t": 196574.8308583335,
      "d": 259.39802500000224,
      "v": 102
    },
    {
      "midi": 47,
      "hit": false,
      "t": 196687.612608334,
      "d": 225.5634999999893,
      "v": 1
    },
    {
      "midi": 59,
      "hit": false,
      "t": 196687.612608334,
      "d": 225.5634999999893,
      "v": 1
    },
    {
      "midi": 50,
      "hit": false,
      "t": 196913.17610833398,
      "d": 221.80410833333735,
      "v": 1
    },
    {
      "midi": 62,
      "hit": false,
      "t": 196913.17610833398,
      "d": 221.80410833333735,
      "v": 1
    },
    {
      "midi": 40,
      "hit": false,
      "t": 196916.9355000002,
      "d": 71.42844166667783,
      "v": 102
    },
    {
      "midi": 52,
      "hit": false,
      "t": 197138.739608334,
      "d": 221.80410833333735,
      "v": 1
    },
    {
      "midi": 64,
      "hit": false,
      "t": 197138.739608334,
      "d": 221.80410833333735,
      "v": 1
    },
    {
      "midi": 40,
      "hit": false,
      "t": 197360.54371666687,
      "d": 75.18783333332976,
      "v": 102
    },
    {
      "midi": 54,
      "hit": false,
      "t": 197364.30310833402,
      "d": 447.36760833332664,
      "v": 1
    },
    {
      "midi": 66,
      "hit": false,
      "t": 197364.30310833402,
      "d": 447.36760833332664,
      "v": 1
    },
    {
      "midi": 40,
      "hit": false,
      "t": 197815.43010833353,
      "d": 75.18783333332976,
      "v": 102
    },
    {
      "midi": 55,
      "hit": false,
      "t": 197815.43010833403,
      "d": 221.80410833333735,
      "v": 1
    },
    {
      "midi": 67,
      "hit": false,
      "t": 197815.43010833403,
      "d": 221.80410833333735,
      "v": 1
    },
    {
      "midi": 54,
      "hit": false,
      "t": 198040.99360833404,
      "d": 229.32289166667033,
      "v": 1
    },
    {
      "midi": 66,
      "hit": false,
      "t": 198040.99360833404,
      "d": 229.32289166667033,
      "v": 1
    },
    {
      "midi": 45,
      "hit": false,
      "t": 198157.5347500002,
      "d": 101.50357500000973,
      "v": 109
    },
    {
      "midi": 40,
      "hit": false,
      "t": 198266.55710833363,
      "d": 26.31574166667997,
      "v": 96
    },
    {
      "midi": 52,
      "hit": false,
      "t": 198266.55710833403,
      "d": 447.36760833335575,
      "v": 1
    },
    {
      "midi": 64,
      "hit": false,
      "t": 198266.55710833403,
      "d": 447.36760833335575,
      "v": 1
    },
    {
      "midi": 43,
      "hit": false,
      "t": 198383.0982500002,
      "d": 259.39802500003134,
      "v": 102
    },
    {
      "midi": 40,
      "hit": false,
      "t": 198717.6841083336,
      "d": 71.42844166667783,
      "v": 102
    },
    {
      "midi": 54,
      "hit": false,
      "t": 198717.68410833407,
      "d": 240.60106666665524,
      "v": 1
    },
    {
      "midi": 66,
      "hit": false,
      "t": 198717.68410833407,
      "d": 240.60106666665524,
      "v": 1
    },
    {
      "midi": 47,
      "hit": false,
      "t": 198943.24760833406,
      "d": 1575.1851083333313,
      "v": 1
    },
    {
      "midi": 59,
      "hit": false,
      "t": 198943.24760833406,
      "d": 1575.1851083333313,
      "v": 1
    },
    {
      "midi": 40,
      "hit": false,
      "t": 199165.05171666696,
      "d": 75.18783333332976,
      "v": 102
    },
    {
      "midi": 40,
      "hit": false,
      "t": 199394.37460833363,
      "d": 26.31574166667997,
      "v": 58
    },
    {
      "midi": 40,
      "hit": false,
      "t": 199507.15635833365,
      "d": 26.31574166667997,
      "v": 58
    },
    {
      "midi": 40,
      "hit": false,
      "t": 199616.17871666694,
      "d": 75.18783333332976,
      "v": 102
    },
    {
      "midi": 40,
      "hit": false,
      "t": 199619.93810833368,
      "d": 26.31574166667997,
      "v": 99
    },
    {
      "midi": 45,
      "hit": false,
      "t": 199958.2833583336,
      "d": 101.50357500003884,
      "v": 109
    },
    {
      "midi": 40,
      "hit": false,
      "t": 200071.06510833369,
      "d": 26.31574166667997,
      "v": 96
    },
    {
      "midi": 43,
      "hit": false,
      "t": 200183.84685833365,
      "d": 259.39802500000224,
      "v": 102
    },
    {
      "midi": 50,
      "hit": false,
      "t": 200522.19210833407,
      "d": 221.80410833333735,
      "v": 1
    },
    {
      "midi": 62,
      "hit": false,
      "t": 200522.19210833407,
      "d": 221.80410833333735,
      "v": 1
    },
    {
      "midi": 40,
      "hit": false,
      "t": 200525.95150000034,
      "d": 71.42844166667783,
      "v": 102
    },
    {
      "midi": 52,
      "hit": false,
      "t": 200747.7556083341,
      "d": 221.80410833333735,
      "v": 1
    },
    {
      "midi": 64,
      "hit": false,
      "t": 200747.7556083341,
      "d": 221.80410833333735,
      "v": 1
    },
    {
      "midi": 40,
      "hit": false,
      "t": 200969.55971666702,
      "d": 75.18783333332976,
      "v": 102
    },
    {
      "midi": 54,
      "hit": false,
      "t": 200973.3191083341,
      "d": 447.36760833332664,
      "v": 1
    },
    {
      "midi": 66,
      "hit": false,
      "t": 200973.3191083341,
      "d": 447.36760833332664,
      "v": 1
    },
    {
      "midi": 40,
      "hit": false,
      "t": 201424.44610833368,
      "d": 75.18783333332976,
      "v": 102
    },
    {
      "midi": 55,
      "hit": false,
      "t": 201424.44610833412,
      "d": 221.80410833333735,
      "v": 1
    },
    {
      "midi": 67,
      "hit": false,
      "t": 201424.44610833412,
      "d": 221.80410833333735,
      "v": 1
    },
    {
      "midi": 54,
      "hit": false,
      "t": 201650.00960833413,
      "d": 229.32289166667033,
      "v": 1
    },
    {
      "midi": 66,
      "hit": false,
      "t": 201650.00960833413,
      "d": 229.32289166667033,
      "v": 1
    },
    {
      "midi": 45,
      "hit": false,
      "t": 201766.55075000034,
      "d": 101.50357500000973,
      "v": 109
    },
    {
      "midi": 40,
      "hit": false,
      "t": 201875.5731083337,
      "d": 26.31574166667997,
      "v": 96
    },
    {
      "midi": 52,
      "hit": false,
      "t": 201875.57310833412,
      "d": 447.36760833335575,
      "v": 1
    },
    {
      "midi": 64,
      "hit": false,
      "t": 201875.57310833412,
      "d": 447.36760833335575,
      "v": 1
    },
    {
      "midi": 43,
      "hit": false,
      "t": 201992.11425000036,
      "d": 259.39802500003134,
      "v": 102
    },
    {
      "midi": 40,
      "hit": false,
      "t": 202326.70010833375,
      "d": 71.42844166667783,
      "v": 102
    },
    {
      "midi": 54,
      "hit": false,
      "t": 202326.70010833416,
      "d": 240.60106666665524,
      "v": 1
    },
    {
      "midi": 66,
      "hit": false,
      "t": 202326.70010833416,
      "d": 240.60106666665524,
      "v": 1
    },
    {
      "midi": 47,
      "hit": false,
      "t": 202552.26360833415,
      "d": 1575.1851083333313,
      "v": 1
    },
    {
      "midi": 59,
      "hit": false,
      "t": 202552.26360833415,
      "d": 1575.1851083333313,
      "v": 1
    },
    {
      "midi": 40,
      "hit": false,
      "t": 202774.0677166671,
      "d": 75.18783333332976,
      "v": 102
    },
    {
      "midi": 40,
      "hit": false,
      "t": 203225.1947166671,
      "d": 75.18783333332976,
      "v": 102
    },
    {
      "midi": 45,
      "hit": false,
      "t": 203567.29935833375,
      "d": 101.50357500003884,
      "v": 109
    },
    {
      "midi": 40,
      "hit": false,
      "t": 203680.0811083337,
      "d": 26.31574166667997,
      "v": 96
    },
    {
      "midi": 43,
      "hit": false,
      "t": 203792.8628583338,
      "d": 259.39802500000224,
      "v": 102
    },
    {
      "midi": 50,
      "hit": false,
      "t": 204131.20810833416,
      "d": 221.80410833333735,
      "v": 1
    },
    {
      "midi": 62,
      "hit": false,
      "t": 204131.20810833416,
      "d": 221.80410833333735,
      "v": 1
    },
    {
      "midi": 40,
      "hit": false,
      "t": 204134.9675000005,
      "d": 71.42844166667783,
      "v": 102
    },
    {
      "midi": 52,
      "hit": false,
      "t": 204356.77160833418,
      "d": 221.80410833333735,
      "v": 1
    },
    {
      "midi": 64,
      "hit": false,
      "t": 204356.77160833418,
      "d": 221.80410833333735,
      "v": 1
    },
    {
      "midi": 40,
      "hit": false,
      "t": 204578.57571666717,
      "d": 75.18783333332976,
      "v": 102
    },
    {
      "midi": 54,
      "hit": false,
      "t": 204582.3351083342,
      "d": 447.36760833332664,
      "v": 1
    },
    {
      "midi": 66,
      "hit": false,
      "t": 204582.3351083342,
      "d": 447.36760833332664,
      "v": 1
    },
    {
      "midi": 40,
      "hit": false,
      "t": 205033.46210833383,
      "d": 75.18783333332976,
      "v": 102
    },
    {
      "midi": 55,
      "hit": false,
      "t": 205033.4621083342,
      "d": 221.80410833333735,
      "v": 1
    },
    {
      "midi": 67,
      "hit": false,
      "t": 205033.4621083342,
      "d": 221.80410833333735,
      "v": 1
    },
    {
      "midi": 54,
      "hit": false,
      "t": 205259.02560833422,
      "d": 229.32289166667033,
      "v": 1
    },
    {
      "midi": 66,
      "hit": false,
      "t": 205259.02560833422,
      "d": 229.32289166667033,
      "v": 1
    },
    {
      "midi": 45,
      "hit": false,
      "t": 205375.5667500005,
      "d": 101.50357500000973,
      "v": 109
    },
    {
      "midi": 40,
      "hit": false,
      "t": 205484.5891083337,
      "d": 26.31574166667997,
      "v": 96
    },
    {
      "midi": 52,
      "hit": false,
      "t": 205484.5891083342,
      "d": 447.36760833335575,
      "v": 1
    },
    {
      "midi": 64,
      "hit": false,
      "t": 205484.5891083342,
      "d": 447.36760833335575,
      "v": 1
    },
    {
      "midi": 43,
      "hit": false,
      "t": 205601.1302500005,
      "d": 259.39802500003134,
      "v": 102
    },
    {
      "midi": 40,
      "hit": false,
      "t": 205935.7161083339,
      "d": 71.42844166667783,
      "v": 102
    },
    {
      "midi": 54,
      "hit": false,
      "t": 205935.71610833425,
      "d": 240.60106666665524,
      "v": 1
    },
    {
      "midi": 66,
      "hit": false,
      "t": 205935.71610833425,
      "d": 240.60106666665524,
      "v": 1
    },
    {
      "midi": 47,
      "hit": false,
      "t": 206161.27960833424,
      "d": 1575.1851083333313,
      "v": 1
    },
    {
      "midi": 59,
      "hit": false,
      "t": 206161.27960833424,
      "d": 1575.1851083333313,
      "v": 1
    },
    {
      "midi": 40,
      "hit": false,
      "t": 206383.08371666726,
      "d": 75.18783333332976,
      "v": 102
    },
    {
      "midi": 40,
      "hit": false,
      "t": 206612.4066083337,
      "d": 26.31574166667997,
      "v": 58
    },
    {
      "midi": 40,
      "hit": false,
      "t": 206725.18835833372,
      "d": 26.31574166667997,
      "v": 58
    },
    {
      "midi": 40,
      "hit": false,
      "t": 206834.21071666724,
      "d": 75.18783333332976,
      "v": 102
    },
    {
      "midi": 40,
      "hit": false,
      "t": 206837.97010833374,
      "d": 26.31574166667997,
      "v": 99
    },
    {
      "midi": 45,
      "hit": false,
      "t": 207176.3153583339,
      "d": 101.50357500003884,
      "v": 109
    },
    {
      "midi": 40,
      "hit": false,
      "t": 207289.09710833375,
      "d": 26.31574166667997,
      "v": 96
    },
    {
      "midi": 43,
      "hit": false,
      "t": 207401.87885833395,
      "d": 259.39802500000224,
      "v": 102
    },
    {
      "midi": 50,
      "hit": false,
      "t": 207740.22410833425,
      "d": 221.80410833333735,
      "v": 1
    },
    {
      "midi": 62,
      "hit": false,
      "t": 207740.22410833425,
      "d": 221.80410833333735,
      "v": 1
    },
    {
      "midi": 40,
      "hit": false,
      "t": 207743.98350000064,
      "d": 71.42844166667783,
      "v": 102
    },
    {
      "midi": 52,
      "hit": false,
      "t": 207965.78760833427,
      "d": 221.80410833333735,
      "v": 1
    },
    {
      "midi": 64,
      "hit": false,
      "t": 207965.78760833427,
      "d": 221.80410833333735,
      "v": 1
    },
    {
      "midi": 40,
      "hit": false,
      "t": 208187.59171666732,
      "d": 75.18783333332976,
      "v": 102
    },
    {
      "midi": 54,
      "hit": false,
      "t": 208191.3511083343,
      "d": 447.36760833332664,
      "v": 1
    },
    {
      "midi": 66,
      "hit": false,
      "t": 208191.3511083343,
      "d": 447.36760833332664,
      "v": 1
    },
    {
      "midi": 40,
      "hit": false,
      "t": 208642.47810833398,
      "d": 75.18783333332976,
      "v": 102
    },
    {
      "midi": 55,
      "hit": false,
      "t": 208642.4781083343,
      "d": 221.80410833333735,
      "v": 1
    },
    {
      "midi": 67,
      "hit": false,
      "t": 208642.4781083343,
      "d": 221.80410833333735,
      "v": 1
    },
    {
      "midi": 54,
      "hit": false,
      "t": 208868.04160833432,
      "d": 229.32289166667033,
      "v": 1
    },
    {
      "midi": 66,
      "hit": false,
      "t": 208868.04160833432,
      "d": 229.32289166667033,
      "v": 1
    },
    {
      "midi": 45,
      "hit": false,
      "t": 208984.58275000064,
      "d": 101.50357500000973,
      "v": 109
    },
    {
      "midi": 40,
      "hit": false,
      "t": 209093.60510833375,
      "d": 26.31574166667997,
      "v": 96
    },
    {
      "midi": 52,
      "hit": false,
      "t": 209093.6051083343,
      "d": 447.36760833335575,
      "v": 1
    },
    {
      "midi": 64,
      "hit": false,
      "t": 209093.6051083343,
      "d": 447.36760833335575,
      "v": 1
    },
    {
      "midi": 43,
      "hit": false,
      "t": 209210.14625000066,
      "d": 259.39802500003134,
      "v": 102
    },
    {
      "midi": 40,
      "hit": false,
      "t": 209544.73210833405,
      "d": 71.42844166667783,
      "v": 102
    },
    {
      "midi": 54,
      "hit": false,
      "t": 209544.73210833434,
      "d": 240.60106666665524,
      "v": 1
    },
    {
      "midi": 66,
      "hit": false,
      "t": 209544.73210833434,
      "d": 240.60106666665524,
      "v": 1
    },
    {
      "midi": 47,
      "hit": false,
      "t": 209770.29560833433,
      "d": 1353.380999999994,
      "v": 1
    },
    {
      "midi": 59,
      "hit": false,
      "t": 209770.29560833433,
      "d": 1353.380999999994,
      "v": 1
    },
    {
      "midi": 40,
      "hit": false,
      "t": 209992.0997166674,
      "d": 75.18783333332976,
      "v": 102
    },
    {
      "midi": 40,
      "hit": false,
      "t": 210443.22671666738,
      "d": 75.18783333332976,
      "v": 102
    },
    {
      "midi": 45,
      "hit": false,
      "t": 210785.33135833405,
      "d": 101.50357500003884,
      "v": 109
    },
    {
      "midi": 40,
      "hit": false,
      "t": 210898.11310833375,
      "d": 26.31574166667997,
      "v": 96
    },
    {
      "midi": 43,
      "hit": false,
      "t": 211010.8948583341,
      "d": 259.39802500000224,
      "v": 102
    }
  ]
}