{
  "jsonPath": "Unknown/Unknown/RMB/touch-the-sky-club-mix.json",
  "path": "Unknown\\Unknown\\RMB\\Touch The Sky (Club Mix).mid",
  "name": "Touch The Sky (Club Mix)",
  "difficulty": "Advanced",
  "bpm": 70.00007000007,
  "notes": [
    {
      "midi": 55,
      "hit": false,
      "t": 0,
      "d": 593.75,
      "v": 54
    },
    {
      "midi": 60,
      "hit": false,
      "t": 0,
      "d": 914.0625,
      "v": 68
    },
    {
      "midi": 63,
      "hit": false,
      "t": 0,
      "d": 1484.375,
      "v": 50
    },
    {
      "midi": 36,
      "hit": false,
      "t": 0,
      "d": 1992.1875,
      "v": 51
    },
    {
      "midi": 43,
      "hit": false,
      "t": 750,
      "d": 1406.25,
      "v": 50
    },
    {
      "midi": 60,
      "hit": false,
      "t": 1500,
      "d": 710.9375,
      "v": 63
    },
    {
      "midi": 63,
      "hit": false,
      "t": 2250,
      "d": 351.5625,
      "v": 55
    },
    {
      "midi": 53,
      "hit": false,
      "t": 3000,
      "d": 2265.625,
      "v": 58
    },
    {
      "midi": 58,
      "hit": false,
      "t": 3000,
      "d": 2289.0625,
      "v": 50
    },
    {
      "midi": 62,
      "hit": false,
      "t": 3000,
      "d": 2359.375,
      "v": 60
    },
    {
      "midi": 55,
      "hit": false,
      "t": 6000,
      "d": 351.5625,
      "v": 54
    },
    {
      "midi": 60,
      "hit": false,
      "t": 6000,
      "d": 765.625,
      "v": 71
    },
    {
      "midi": 63,
      "hit": false,
      "t": 6000,
      "d": 859.375,
      "v": 54
    },
    {
      "midi": 36,
      "hit": false,
      "t": 6000,
      "d": 2164.0625,
      "v": 58
    },
    {
      "midi": 43,
      "hit": false,
      "t": 6750,
      "d": 1531.25,
      "v": 51
    },
    {
      "midi": 60,
      "hit": false,
      "t": 7500,
      "d": 531.25,
      "v": 72
    },
    {
      "midi": 67,
      "hit": false,
      "t": 8250,
      "d": 289.0625,
      "v": 74
    },
    {
      "midi": 62,
      "hit": false,
      "t": 9000,
      "d": 1828.125,
      "v": 66
    },
    {
      "midi": 58,
      "hit": false,
      "t": 9000,
      "d": 1867.1875,
      "v": 57
    },
    {
      "midi": 65,
      "hit": false,
      "t": 9000,
      "d": 1914.0625,
      "v": 64
    },
    {
      "midi": 60,
      "hit": false,
      "t": 12000,
      "d": 984.375,
      "v": 74
    },
    {
      "midi": 36,
      "hit": false,
      "t": 12000,
      "d": 1531.25,
      "v": 57
    },
    {
      "midi": 63,
      "hit": false,
      "t": 12000,
      "d": 1945.3125,
      "v": 48
    },
    {
      "midi": 43,
      "hit": false,
      "t": 12750,
      "d": 796.875,
      "v": 46
    },
    {
      "midi": 55,
      "hit": false,
      "t": 13500,
      "d": 593.75,
      "v": 72
    },
    {
      "midi": 63,
      "hit": false,
      "t": 14250,
      "d": 687.5,
      "v": 90
    },
    {
      "midi": 58,
      "hit": false,
      "t": 15000,
      "d": 1000,
      "v": 48
    },
    {
      "midi": 53,
      "hit": false,
      "t": 15000,
      "d": 1117.1875,
      "v": 59
    },
    {
      "midi": 62,
      "hit": false,
      "t": 15000,
      "d": 2765.625,
      "v": 72
    },
    {
      "midi": 55,
      "hit": false,
      "t": 18000,
      "d": 875,
      "v": 61
    },
    {
      "midi": 60,
      "hit": false,
      "t": 18000,
      "d": 906.25,
      "v": 66
    },
    {
      "midi": 63,
      "hit": false,
      "t": 18000,
      "d": 1531.25,
      "v": 53
    },
    {
      "midi": 36,
      "hit": false,
      "t": 18000,
      "d": 1992.1875,
      "v": 48
    },
    {
      "midi": 43,
      "hit": false,
      "t": 18750,
      "d": 1367.1875,
      "v": 56
    },
    {
      "midi": 60,
      "hit": false,
      "t": 19500,
      "d": 820.3125,
      "v": 60
    },
    {
      "midi": 63,
      "hit": false,
      "t": 20250,
      "d": 757.8125,
      "v": 52
    },
    {
      "midi": 58,
      "hit": false,
      "t": 21000,
      "d": 992.1875,
      "v": 36
    },
    {
      "midi": 53,
      "hit": false,
      "t": 21000,
      "d": 1773.4375,
      "v": 62
    },
    {
      "midi": 62,
      "hit": false,
      "t": 21000,
      "d": 2375,
      "v": 71
    },
    {
      "midi": 55,
      "hit": false,
      "t": 24000,
      "d": 148.4375,
      "v": 46
    },
    {
      "midi": 60,
      "hit": false,
      "t": 24000,
      "d": 921.875,
      "v": 64
    },
    {
      "midi": 63,
      "hit": false,
      "t": 24000,
      "d": 1609.375,
      "v": 54
    },
    {
      "midi": 36,
      "hit": false,
      "t": 24000,
      "d": 5148.4375,
      "v": 62
    },
    {
      "midi": 43,
      "hit": false,
      "t": 24750,
      "d": 2210.9375,
      "v": 50
    },
    {
      "midi": 60,
      "hit": false,
      "t": 25500,
      "d": 1273.4375,
      "v": 63
    },
    {
      "midi": 62,
      "hit": false,
      "t": 26250,
      "d": 718.75,
      "v": 40
    },
    {
      "midi": 55,
      "hit": false,
      "t": 27000,
      "d": 140.625,
      "v": 43
    },
    {
      "midi": 60,
      "hit": false,
      "t": 27000,
      "d": 554.6875,
      "v": 58
    },
    {
      "midi": 63,
      "hit": false,
      "t": 27000,
      "d": 773.4375,
      "v": 45
    },
    {
      "midi": 48,
      "hit": false,
      "t": 27000,
      "d": 2648.4375,
      "v": 12
    },
    {
      "midi": 55,
      "hit": false,
      "t": 27750,
      "d": 1375,
      "v": 48
    },
    {
      "midi": 60,
      "hit": false,
      "t": 28500,
      "d": 679.6875,
      "v": 65
    },
    {
      "midi": 63,
      "hit": false,
      "t": 29250,
      "d": 320.3125,
      "v": 58
    },
    {
      "midi": 53,
      "hit": false,
      "t": 30000,
      "d": 320.3125,
      "v": 59
    },
    {
      "midi": 56,
      "hit": false,
      "t": 30000,
      "d": 726.5625,
      "v": 53
    },
    {
      "midi": 60,
      "hit": false,
      "t": 30000,
      "d": 781.25,
      "v": 71
    },
    {
      "midi": 63,
      "hit": false,
      "t": 30000,
      "d": 1398.4375,
      "v": 66
    },
    {
      "midi": 41,
      "hit": false,
      "t": 30000,
      "d": 4070.3125,
      "v": 59
    },
    {
      "midi": 53,
      "hit": false,
      "t": 30750,
      "d": 1789.0625,
      "v": 45
    },
    {
      "midi": 48,
      "hit": false,
      "t": 30750,
      "d": 2453.125,
      "v": 41
    },
    {
      "midi": 56,
      "hit": false,
      "t": 31500,
      "d": 625,
      "v": 51
    },
    {
      "midi": 63,
      "hit": false,
      "t": 32250,
      "d": 484.375,
      "v": 46
    },
    {
      "midi": 53,
      "hit": false,
      "t": 33000,
      "d": 312.5,
      "v": 45
    },
    {
      "midi": 56,
      "hit": false,
      "t": 33000,
      "d": 679.6875,
      "v": 44
    },
    {
      "midi": 60,
      "hit": false,
      "t": 33000,
      "d": 679.6875,
      "v": 56
    },
    {
      "midi": 63,
      "hit": false,
      "t": 33000,
      "d": 1156.25,
      "v": 56
    },
    {
      "midi": 53,
      "hit": false,
      "t": 33750,
      "d": 1031.25,
      "v": 39
    },
    {
      "midi": 60,
      "hit": false,
      "t": 34500,
      "d": 640.625,
      "v": 54
    },
    {
      "midi": 56,
      "hit": false,
      "t": 34500,
      "d": 664.0625,
      "v": 34
    },
    {
      "midi": 41,
      "hit": false,
      "t": 34500,
      "d": 1195.3125,
      "v": 68
    },
    {
      "midi": 60,
      "hit": false,
      "t": 35250,
      "d": 195.3125,
      "v": 36
    },
    {
      "midi": 63,
      "hit": false,
      "t": 35250,
      "d": 593.75,
      "v": 59
    },
    {
      "midi": 53,
      "hit": false,
      "t": 36000,
      "d": 140.625,
      "v": 44
    },
    {
      "midi": 58,
      "hit": false,
      "t": 36000,
      "d": 734.375,
      "v": 50
    },
    {
      "midi": 62,
      "hit": false,
      "t": 36000,
      "d": 835.9375,
      "v": 59
    },
    {
      "midi": 46,
      "hit": false,
      "t": 36000,
      "d": 3265.625,
      "v": 49
    },
    {
      "midi": 53,
      "hit": false,
      "t": 36750,
      "d": 882.8125,
      "v": 42
    },
    {
      "midi": 58,
      "hit": false,
      "t": 37500,
      "d": 1015.625,
      "v": 42
    },
    {
      "midi": 60,
      "hit": false,
      "t": 38250,
      "d": 609.375,
      "v": 55
    },
    {
      "midi": 53,
      "hit": false,
      "t": 39000,
      "d": 125,
      "v": 46
    },
    {
      "midi": 58,
      "hit": false,
      "t": 39000,
      "d": 796.875,
      "v": 50
    },
    {
      "midi": 62,
      "hit": false,
      "t": 39000,
      "d": 828.125,
      "v": 59
    },
    {
      "midi": 53,
      "hit": false,
      "t": 39750,
      "d": 429.6875,
      "v": 42
    },
    {
      "midi": 59,
      "hit": false,
      "t": 40500,
      "d": 648.4375,
      "v": 68
    },
    {
      "midi": 47,
      "hit": false,
      "t": 40500,
      "d": 710.9375,
      "v": 57
    },
    {
      "midi": 62,
      "hit": false,
      "t": 40500,
      "d": 1289.0625,
      "v": 69
    },
    {
      "midi": 55,
      "hit": false,
      "t": 41250,
      "d": 539.0625,
      "v": 47
    },
    {
      "midi": 60,
      "hit": false,
      "t": 42000,
      "d": 617.1875,
      "v": 66
    },
    {
      "midi": 63,
      "hit": false,
      "t": 42000,
      "d": 703.125,
      "v": 52
    },
    {
      "midi": 36,
      "hit": false,
      "t": 42000,
      "d": 2156.25,
      "v": 61
    },
    {
      "midi": 48,
      "hit": false,
      "t": 42000,
      "d": 2359.375,
      "v": 62
    },
    {
      "midi": 55,
      "hit": false,
      "t": 42750,
      "d": 1671.875,
      "v": 56
    },
    {
      "midi": 60,
      "hit": false,
      "t": 43500,
      "d": 695.3125,
      "v": 56
    },
    {
      "midi": 63,
      "hit": false,
      "t": 44250,
      "d": 312.5,
      "v": 50
    },
    {
      "midi": 62,
      "hit": false,
      "t": 45000,
      "d": 2156.25,
      "v": 59
    },
    {
      "midi": 58,
      "hit": false,
      "t": 45000,
      "d": 2171.875,
      "v": 44
    },
    {
      "midi": 53,
      "hit": false,
      "t": 45000,
      "d": 2210.9375,
      "v": 51
    },
    {
      "midi": 43,
      "hit": false,
      "t": 45000,
      "d": 2335.9375,
      "v": 58
    },
    {
      "midi": 55,
      "hit": false,
      "t": 48000,
      "d": 85.9375,
      "v": 41
    },
    {
      "midi": 60,
      "hit": false,
      "t": 48000,
      "d": 664.0625,
      "v": 69
    },
    {
      "midi": 63,
      "hit": false,
      "t": 48000,
      "d": 687.5,
      "v": 53
    },
    {
      "midi": 36,
      "hit": false,
      "t": 48000,
      "d": 4789.0625,
      "v": 57
    },
    {
      "midi": 48,
      "hit": false,
      "t": 48000,
      "d": 5554.6875,
      "v": 56
    },
    {
      "midi": 55,
      "hit": false,
      "t": 48750,
      "d": 1640.625,
      "v": 56
    },
    {
      "midi": 60,
      "hit": false,
      "t": 49500,
      "d": 554.6875,
      "v": 61
    },
    {
      "midi": 60,
      "hit": false,
      "t": 50250,
      "d": 187.5,
      "v": 48
    },
    {
      "midi": 62,
      "hit": false,
      "t": 50250,
      "d": 617.1875,
      "v": 64
    },
    {
      "midi": 55,
      "hit": false,
      "t": 51000,
      "d": 421.875,
      "v": 49
    },
    {
      "midi": 63,
      "hit": false,
      "t": 51000,
      "d": 726.5625,
      "v": 53
    },
    {
      "midi": 60,
      "hit": false,
      "t": 51750,
      "d": 132.8125,
      "v": 53
    },
    {
      "midi": 55,
      "hit": false,
      "t": 51750,
      "d": 1203.125,
      "v": 41
    },
    {
      "midi": 60,
      "hit": false,
      "t": 52500,
      "d": 585.9375,
      "v": 60
    },
    {
      "midi": 55,
      "hit": false,
      "t": 53250,
      "d": 226.5625,
      "v": 42
    },
    {
      "midi": 63,
      "hit": false,
      "t": 53250,
      "d": 281.25,
      "v": 56
    },
    {
      "midi": 53,
      "hit": false,
      "t": 54000,
      "d": 164.0625,
      "v": 50
    },
    {
      "midi": 60,
      "hit": false,
      "t": 54000,
      "d": 648.4375,
      "v": 67
    },
    {
      "midi": 56,
      "hit": false,
      "t": 54000,
      "d": 664.0625,
      "v": 51
    },
    {
      "midi": 63,
      "hit": false,
      "t": 54000,
      "d": 1242.1875,
      "v": 67
    },
    {
      "midi": 41,
      "hit": false,
      "t": 54000,
      "d": 2453.125,
      "v": 67
    },
    {
      "midi": 53,
      "hit": false,
      "t": 54750,
      "d": 617.1875,
      "v": 49
    },
    {
      "midi": 48,
      "hit": false,
      "t": 54750,
      "d": 1406.25,
      "v": 20
    },
    {
      "midi": 60,
      "hit": false,
      "t": 55500,
      "d": 179.6875,
      "v": 52
    },
    {
      "midi": 68,
      "hit": false,
      "t": 56250,
      "d": 320.3125,
      "v": 54
    },
    {
      "midi": 60,
      "hit": false,
      "t": 57000,
      "d": 265.625,
      "v": 64
    },
    {
      "midi": 63,
      "hit": false,
      "t": 57000,
      "d": 656.25,
      "v": 65
    },
    {
      "midi": 53,
      "hit": false,
      "t": 57000,
      "d": 750,
      "v": 54
    },
    {
      "midi": 68,
      "hit": false,
      "t": 57000,
      "d": 2000,
      "v": 64
    },
    {
      "midi": 41,
      "hit": false,
      "t": 57000,
      "d": 2250,
      "v": 49
    },
    {
      "midi": 60,
      "hit": false,
      "t": 57750,
      "d": 304.6875,
      "v": 44
    },
    {
      "midi": 48,
      "hit": false,
      "t": 57750,
      "d": 1414.0625,
      "v": 41
    },
    {
      "midi": 53,
      "hit": false,
      "t": 58500,
      "d": 359.375,
      "v": 16
    },
    {
      "midi": 56,
      "hit": false,
      "t": 58500,
      "d": 515.625,
      "v": 50
    },
    {
      "midi": 60,
      "hit": false,
      "t": 59250,
      "d": 148.4375,
      "v": 59
    },
    {
      "midi": 53,
      "hit": false,
      "t": 60000,
      "d": 132.8125,
      "v": 45
    },
    {
      "midi": 56,
      "hit": false,
      "t": 60000,
      "d": 726.5625,
      "v": 41
    },
    {
      "midi": 60,
      "hit": false,
      "t": 60000,
      "d": 804.6875,
      "v": 56
    },
    {
      "midi": 46,
      "hit": false,
      "t": 60000,
      "d": 2453.125,
      "v": 51
    },
    {
      "midi": 53,
      "hit": false,
      "t": 60750,
      "d": 1632.8125,
      "v": 46
    },
    {
      "midi": 56,
      "hit": false,
      "t": 61500,
      "d": 1242.1875,
      "v": 45
    },
    {
      "midi": 60,
      "hit": false,
      "t": 62250,
      "d": 320.3125,
      "v": 48
    },
    {
      "midi": 46,
      "hit": false,
      "t": 62625,
      "d": 820.3125,
      "v": 12
    },
    {
      "midi": 53,
      "hit": false,
      "t": 63000,
      "d": 375,
      "v": 37
    },
    {
      "midi": 56,
      "hit": false,
      "t": 63000,
      "d": 640.625,
      "v": 44
    },
    {
      "midi": 60,
      "hit": false,
      "t": 63000,
      "d": 726.5625,
      "v": 55
    },
    {
      "midi": 46,
      "hit": false,
      "t": 63750,
      "d": 507.8125,
      "v": 47
    },
    {
      "midi": 46,
      "hit": false,
      "t": 64500,
      "d": 281.25,
      "v": 47
    },
    {
      "midi": 53,
      "hit": false,
      "t": 64500,
      "d": 734.375,
      "v": 56
    },
    {
      "midi": 62,
      "hit": false,
      "t": 64500,
      "d": 742.1875,
      "v": 65
    },
    {
      "midi": 56,
      "hit": false,
      "t": 64500,
      "d": 757.8125,
      "v": 56
    },
    {
      "midi": 46,
      "hit": false,
      "t": 65250,
      "d": 242.1875,
      "v": 45
    },
    {
      "midi": 55,
      "hit": false,
      "t": 66000,
      "d": 187.5,
      "v": 52
    },
    {
      "midi": 58,
      "hit": false,
      "t": 66000,
      "d": 640.625,
      "v": 54
    },
    {
      "midi": 63,
      "hit": false,
      "t": 66000,
      "d": 1203.125,
      "v": 58
    },
    {
      "midi": 39,
      "hit": false,
      "t": 66000,
      "d": 2601.5625,
      "v": 55
    },
    {
      "midi": 51,
      "hit": false,
      "t": 66000,
      "d": 3835.9375,
      "v": 50
    },
    {
      "midi": 55,
      "hit": false,
      "t": 66750,
      "d": 2609.375,
      "v": 49
    },
    {
      "midi": 58,
      "hit": false,
      "t": 67500,
      "d": 1226.5625,
      "v": 44
    },
    {
      "midi": 63,
      "hit": false,
      "t": 68250,
      "d": 492.1875,
      "v": 37
    },
    {
      "midi": 39,
      "hit": false,
      "t": 68625,
      "d": 1015.625,
      "v": 53
    },
    {
      "midi": 58,
      "hit": false,
      "t": 69000,
      "d": 218.75,
      "v": 45
    },
    {
      "midi": 63,
      "hit": false,
      "t": 69000,
      "d": 742.1875,
      "v": 52
    },
    {
      "midi": 62,
      "hit": false,
      "t": 69750,
      "d": 382.8125,
      "v": 63
    },
    {
      "midi": 63,
      "hit": false,
      "t": 70125,
      "d": 320.3125,
      "v": 77
    },
    {
      "midi": 67,
      "hit": false,
      "t": 70500,
      "d": 320.3125,
      "v": 74
    },
    {
      "midi": 50,
      "hit": false,
      "t": 70500,
      "d": 671.875,
      "v": 64
    },
    {
      "midi": 38,
      "hit": false,
      "t": 70500,
      "d": 703.125,
      "v": 60
    },
    {
      "midi": 65,
      "hit": false,
      "t": 70875,
      "d": 343.75,
      "v": 61
    },
    {
      "midi": 63,
      "hit": false,
      "t": 71250,
      "d": 257.8125,
      "v": 82
    },
    {
      "midi": 62,
      "hit": false,
      "t": 71625,
      "d": 125,
      "v": 50
    },
    {
      "midi": 55,
      "hit": false,
      "t": 72000,
      "d": 984.375,
      "v": 45
    },
    {
      "midi": 60,
      "hit": false,
      "t": 72000,
      "d": 1046.875,
      "v": 53
    },
    {
      "midi": 48,
      "hit": false,
      "t": 72000,
      "d": 1078.125,
      "v": 50
    },
    {
      "midi": 36,
      "hit": false,
      "t": 72000,
      "d": 1093.75,
      "v": 49
    },
    {
      "midi": 63,
      "hit": false,
      "t": 72000,
      "d": 1101.5625,
      "v": 47
    }
  ]
}