{
  "jsonPath": "Rock/Danspunk/Wizex/branner-som-eld-a-shot-full-of-love.json",
  "path": "Rock\\Danspunk\\Wizex\\Bränner som eld (A Shot Full Of Love).mid",
  "name": "Bränner som eld (A Shot Full Of Love)",
  "difficulty": "Advanced",
  "bpm": 85.00004250002125,
  "notes": [
    {
      "midi": 60,
      "hit": false,
      "t": 0,
      "d": 535.29385,
      "v": 52
    },
    {
      "midi": 64,
      "hit": false,
      "t": 0,
      "d": 717.6467,
      "v": 59
    },
    {
      "midi": 48,
      "hit": false,
      "t": 0,
      "d": 1411.764,
      "v": 72
    },
    {
      "midi": 55,
      "hit": false,
      "t": 352.941,
      "d": 1058.8229999999999,
      "v": 57
    },
    {
      "midi": 60,
      "hit": false,
      "t": 705.8820000000001,
      "d": 699.9996499999997,
      "v": 55
    },
    {
      "midi": 67,
      "hit": false,
      "t": 1058.8229999999999,
      "d": 317.64689999999996,
      "v": 62
    },
    {
      "midi": 57,
      "hit": false,
      "t": 1411.764,
      "d": 535.29385,
      "v": 52
    },
    {
      "midi": 60,
      "hit": false,
      "t": 1411.764,
      "d": 717.6467,
      "v": 59
    },
    {
      "midi": 45,
      "hit": false,
      "t": 1411.764,
      "d": 1411.7640000000004,
      "v": 72
    },
    {
      "midi": 52,
      "hit": false,
      "t": 1764.705,
      "d": 1058.8230000000003,
      "v": 57
    },
    {
      "midi": 57,
      "hit": false,
      "t": 2117.6459999999997,
      "d": 699.9996500000007,
      "v": 55
    },
    {
      "midi": 64,
      "hit": false,
      "t": 2470.587,
      "d": 317.6469000000002,
      "v": 62
    },
    {
      "midi": 60,
      "hit": false,
      "t": 2823.5280000000002,
      "d": 535.29385,
      "v": 52
    },
    {
      "midi": 65,
      "hit": false,
      "t": 2823.5280000000002,
      "d": 717.6467000000002,
      "v": 59
    },
    {
      "midi": 41,
      "hit": false,
      "t": 2823.5280000000002,
      "d": 1411.7640000000001,
      "v": 72
    },
    {
      "midi": 57,
      "hit": false,
      "t": 3176.469,
      "d": 1058.8230000000003,
      "v": 57
    },
    {
      "midi": 60,
      "hit": false,
      "t": 3529.4100000000003,
      "d": 699.9996500000002,
      "v": 55
    },
    {
      "midi": 69,
      "hit": false,
      "t": 3882.3510000000006,
      "d": 317.64689999999973,
      "v": 62
    },
    {
      "midi": 59,
      "hit": false,
      "t": 4235.292,
      "d": 1035.2936,
      "v": 47
    },
    {
      "midi": 62,
      "hit": false,
      "t": 4235.292,
      "d": 1405.8816500000003,
      "v": 56
    },
    {
      "midi": 43,
      "hit": false,
      "t": 4235.292,
      "d": 1411.7640000000001,
      "v": 57
    },
    {
      "midi": 65,
      "hit": false,
      "t": 4235.292,
      "d": 1411.7640000000001,
      "v": 37
    },
    {
      "midi": 67,
      "hit": false,
      "t": 4235.292,
      "d": 1411.7640000000001,
      "v": 55
    },
    {
      "midi": 55,
      "hit": false,
      "t": 4941.174,
      "d": 623.5291000000007,
      "v": 32
    },
    {
      "midi": 59,
      "hit": false,
      "t": 5294.115000000001,
      "d": 347.05864999999994,
      "v": 49
    },
    {
      "midi": 60,
      "hit": false,
      "t": 5647.0560000000005,
      "d": 1035.2936,
      "v": 47
    },
    {
      "midi": 64,
      "hit": false,
      "t": 5647.0560000000005,
      "d": 1405.8816500000003,
      "v": 56
    },
    {
      "midi": 48,
      "hit": false,
      "t": 5647.0560000000005,
      "d": 1411.7640000000001,
      "v": 57
    },
    {
      "midi": 67,
      "hit": false,
      "t": 5647.0560000000005,
      "d": 1411.7640000000001,
      "v": 37
    },
    {
      "midi": 55,
      "hit": false,
      "t": 6352.938,
      "d": 623.5291000000007,
      "v": 32
    },
    {
      "midi": 60,
      "hit": false,
      "t": 6705.879000000001,
      "d": 347.05864999999994,
      "v": 49
    },
    {
      "midi": 45,
      "hit": false,
      "t": 7058.820000000001,
      "d": 1411.7640000000001,
      "v": 55
    },
    {
      "midi": 52,
      "hit": false,
      "t": 7058.820000000001,
      "d": 1411.7640000000001,
      "v": 47
    },
    {
      "midi": 57,
      "hit": false,
      "t": 7058.820000000001,
      "d": 1411.7640000000001,
      "v": 60
    },
    {
      "midi": 60,
      "hit": false,
      "t": 7058.820000000001,
      "d": 1411.7640000000001,
      "v": 53
    },
    {
      "midi": 64,
      "hit": false,
      "t": 7058.820000000001,
      "d": 1411.7640000000001,
      "v": 52
    },
    {
      "midi": 60,
      "hit": false,
      "t": 8470.584,
      "d": 535.29385,
      "v": 52
    },
    {
      "midi": 65,
      "hit": false,
      "t": 8470.584,
      "d": 717.6466999999993,
      "v": 59
    },
    {
      "midi": 41,
      "hit": false,
      "t": 8470.584,
      "d": 1411.7639999999974,
      "v": 72
    },
    {
      "midi": 57,
      "hit": false,
      "t": 8823.525000000001,
      "d": 1058.8229999999967,
      "v": 57
    },
    {
      "midi": 60,
      "hit": false,
      "t": 9176.466,
      "d": 699.9996499999979,
      "v": 55
    },
    {
      "midi": 69,
      "hit": false,
      "t": 9529.407,
      "d": 317.64689999999973,
      "v": 62
    },
    {
      "midi": 43,
      "hit": false,
      "t": 9882.347999999998,
      "d": 1411.7639999999992,
      "v": 55
    },
    {
      "midi": 59,
      "hit": false,
      "t": 9882.347999999998,
      "d": 1411.7639999999992,
      "v": 47
    },
    {
      "midi": 62,
      "hit": false,
      "t": 9882.347999999998,
      "d": 1411.7639999999992,
      "v": 60
    },
    {
      "midi": 67,
      "hit": false,
      "t": 9882.347999999998,
      "d": 1411.7639999999992,
      "v": 53
    },
    {
      "midi": 71,
      "hit": false,
      "t": 9882.347999999998,
      "d": 1411.7639999999992,
      "v": 52
    },
    {
      "midi": 60,
      "hit": false,
      "t": 11294.111999999997,
      "d": 1035.293599999999,
      "v": 47
    },
    {
      "midi": 64,
      "hit": false,
      "t": 11294.111999999997,
      "d": 1405.8816499999994,
      "v": 56
    },
    {
      "midi": 48,
      "hit": false,
      "t": 11294.111999999997,
      "d": 1411.7639999999992,
      "v": 57
    },
    {
      "midi": 67,
      "hit": false,
      "t": 11294.111999999997,
      "d": 1411.7639999999992,
      "v": 37
    },
    {
      "midi": 55,
      "hit": false,
      "t": 11999.993999999997,
      "d": 623.5290999999997,
      "v": 32
    },
    {
      "midi": 60,
      "hit": false,
      "t": 12352.934999999996,
      "d": 347.05865000000085,
      "v": 49
    },
    {
      "midi": 57,
      "hit": false,
      "t": 12705.875999999997,
      "d": 1035.293599999999,
      "v": 47
    },
    {
      "midi": 60,
      "hit": false,
      "t": 12705.875999999997,
      "d": 1405.8816499999994,
      "v": 56
    },
    {
      "midi": 45,
      "hit": false,
      "t": 12705.875999999997,
      "d": 1411.7639999999992,
      "v": 57
    },
    {
      "midi": 64,
      "hit": false,
      "t": 12705.875999999997,
      "d": 1411.7639999999992,
      "v": 37
    },
    {
      "midi": 52,
      "hit": false,
      "t": 13411.757999999996,
      "d": 623.5290999999997,
      "v": 32
    },
    {
      "midi": 57,
      "hit": false,
      "t": 13764.698999999995,
      "d": 347.05865000000085,
      "v": 49
    },
    {
      "midi": 41,
      "hit": false,
      "t": 14117.639999999996,
      "d": 1411.7639999999992,
      "v": 55
    },
    {
      "midi": 57,
      "hit": false,
      "t": 14117.639999999996,
      "d": 1411.7639999999992,
      "v": 47
    },
    {
      "midi": 60,
      "hit": false,
      "t": 14117.639999999996,
      "d": 1411.7639999999992,
      "v": 60
    },
    {
      "midi": 65,
      "hit": false,
      "t": 14117.639999999996,
      "d": 1411.7639999999992,
      "v": 53
    },
    {
      "midi": 69,
      "hit": false,
      "t": 14117.639999999996,
      "d": 1411.7639999999992,
      "v": 52
    },
    {
      "midi": 59,
      "hit": false,
      "t": 15529.403999999995,
      "d": 1035.2936000000009,
      "v": 47
    },
    {
      "midi": 62,
      "hit": false,
      "t": 15529.403999999995,
      "d": 1405.881650000003,
      "v": 56
    },
    {
      "midi": 43,
      "hit": false,
      "t": 15529.403999999995,
      "d": 1411.7640000000029,
      "v": 57
    },
    {
      "midi": 65,
      "hit": false,
      "t": 15529.403999999995,
      "d": 1411.7640000000029,
      "v": 37
    },
    {
      "midi": 67,
      "hit": false,
      "t": 15529.403999999995,
      "d": 1411.7640000000029,
      "v": 55
    },
    {
      "midi": 55,
      "hit": false,
      "t": 16235.285999999995,
      "d": 623.5291000000016,
      "v": 32
    },
    {
      "midi": 59,
      "hit": false,
      "t": 16588.226999999995,
      "d": 347.0586500000027,
      "v": 49
    },
    {
      "midi": 60,
      "hit": false,
      "t": 16941.167999999998,
      "d": 1035.2936000000009,
      "v": 47
    },
    {
      "midi": 64,
      "hit": false,
      "t": 16941.167999999998,
      "d": 1405.881650000003,
      "v": 56
    },
    {
      "midi": 48,
      "hit": false,
      "t": 16941.167999999998,
      "d": 1411.7640000000029,
      "v": 57
    },
    {
      "midi": 67,
      "hit": false,
      "t": 16941.167999999998,
      "d": 1411.7640000000029,
      "v": 37
    },
    {
      "midi": 55,
      "hit": false,
      "t": 17647.05,
      "d": 623.5290999999997,
      "v": 32
    },
    {
      "midi": 60,
      "hit": false,
      "t": 17999.990999999998,
      "d": 347.0586500000027,
      "v": 49
    },
    {
      "midi": 57,
      "hit": false,
      "t": 18352.932,
      "d": 535.2938499999982,
      "v": 52
    },
    {
      "midi": 60,
      "hit": false,
      "t": 18352.932,
      "d": 717.6466999999975,
      "v": 59
    },
    {
      "midi": 45,
      "hit": false,
      "t": 18352.932,
      "d": 1411.7639999999956,
      "v": 72
    },
    {
      "midi": 52,
      "hit": false,
      "t": 18705.873,
      "d": 1058.8229999999967,
      "v": 57
    },
    {
      "midi": 57,
      "hit": false,
      "t": 19058.814,
      "d": 699.9996499999979,
      "v": 55
    },
    {
      "midi": 64,
      "hit": false,
      "t": 19411.754999999997,
      "d": 317.64689999999973,
      "v": 62
    },
    {
      "midi": 60,
      "hit": false,
      "t": 19764.695999999996,
      "d": 1035.2936000000009,
      "v": 47
    },
    {
      "midi": 65,
      "hit": false,
      "t": 19764.695999999996,
      "d": 1405.881650000003,
      "v": 56
    },
    {
      "midi": 41,
      "hit": false,
      "t": 19764.695999999996,
      "d": 1411.7640000000029,
      "v": 57
    },
    {
      "midi": 69,
      "hit": false,
      "t": 19764.695999999996,
      "d": 1411.7640000000029,
      "v": 37
    },
    {
      "midi": 57,
      "hit": false,
      "t": 20470.577999999998,
      "d": 623.5290999999997,
      "v": 32
    },
    {
      "midi": 60,
      "hit": false,
      "t": 20823.518999999997,
      "d": 347.0586500000027,
      "v": 49
    },
    {
      "midi": 57,
      "hit": false,
      "t": 21176.46,
      "d": 1035.2936000000009,
      "v": 47
    },
    {
      "midi": 60,
      "hit": false,
      "t": 21176.46,
      "d": 1405.881650000003,
      "v": 56
    },
    {
      "midi": 41,
      "hit": false,
      "t": 21176.46,
      "d": 1411.7640000000029,
      "v": 57
    },
    {
      "midi": 63,
      "hit": false,
      "t": 21176.46,
      "d": 1411.7640000000029,
      "v": 37
    },
    {
      "midi": 67,
      "hit": false,
      "t": 21176.46,
      "d": 1411.7640000000029,
      "v": 55
    },
    {
      "midi": 53,
      "hit": false,
      "t": 21882.342,
      "d": 623.5290999999997,
      "v": 32
    },
    {
      "midi": 57,
      "hit": false,
      "t": 22235.283,
      "d": 347.0586500000027,
      "v": 49
    },
    {
      "midi": 67,
      "hit": false,
      "t": 22588.224000000002,
      "d": 41.17644999999902,
      "v": 30
    },
    {
      "midi": 60,
      "hit": false,
      "t": 22588.224000000002,
      "d": 1958.8225499999971,
      "v": 64
    },
    {
      "midi": 63,
      "hit": false,
      "t": 22588.224000000002,
      "d": 2370.5870499999983,
      "v": 66
    },
    {
      "midi": 41,
      "hit": false,
      "t": 22588.224000000002,
      "d": 2823.5279999999984,
      "v": 53
    },
    {
      "midi": 57,
      "hit": false,
      "t": 22588.224000000002,
      "d": 2823.5279999999984,
      "v": 52
    },
    {
      "midi": 53,
      "hit": false,
      "t": 24352.929,
      "d": 1058.8230000000003,
      "v": 66
    },
    {
      "midi": 60,
      "hit": false,
      "t": 24705.87,
      "d": 705.8820000000014,
      "v": 58
    },
    {
      "midi": 63,
      "hit": false,
      "t": 25058.811,
      "d": 347.05864999999903,
      "v": 82
    },
    {
      "midi": 60,
      "hit": false,
      "t": 25411.752,
      "d": 535.2938499999982,
      "v": 52
    },
    {
      "midi": 64,
      "hit": false,
      "t": 25411.752,
      "d": 717.6466999999975,
      "v": 59
    },
    {
      "midi": 48,
      "hit": false,
      "t": 25411.752,
      "d": 1411.7639999999956,
      "v": 72
    },
    {
      "midi": 55,
      "hit": false,
      "t": 25764.693,
      "d": 1058.8229999999967,
      "v": 57
    },
    {
      "midi": 60,
      "hit": false,
      "t": 26117.634,
      "d": 699.9996499999979,
      "v": 55
    },
    {
      "midi": 67,
      "hit": false,
      "t": 26470.574999999997,
      "d": 317.64689999999973,
      "v": 62
    },
    {
      "midi": 45,
      "hit": false,
      "t": 26823.515999999996,
      "d": 1411.7639999999992,
      "v": 55
    },
    {
      "midi": 52,
      "hit": false,
      "t": 26823.515999999996,
      "d": 1411.7639999999992,
      "v": 47
    },
    {
      "midi": 57,
      "hit": false,
      "t": 26823.515999999996,
      "d": 1411.7639999999992,
      "v": 60
    },
    {
      "midi": 60,
      "hit": false,
      "t": 26823.515999999996,
      "d": 1411.7639999999992,
      "v": 53
    },
    {
      "midi": 64,
      "hit": false,
      "t": 26823.515999999996,
      "d": 1411.7639999999992,
      "v": 52
    },
    {
      "midi": 60,
      "hit": false,
      "t": 28235.279999999995,
      "d": 535.2938499999982,
      "v": 52
    },
    {
      "midi": 65,
      "hit": false,
      "t": 28235.279999999995,
      "d": 717.6466999999975,
      "v": 59
    },
    {
      "midi": 41,
      "hit": false,
      "t": 28235.279999999995,
      "d": 1411.7639999999956,
      "v": 72
    },
    {
      "midi": 57,
      "hit": false,
      "t": 28588.220999999994,
      "d": 1058.8229999999967,
      "v": 57
    },
    {
      "midi": 60,
      "hit": false,
      "t": 28941.161999999993,
      "d": 699.9996499999979,
      "v": 55
    },
    {
      "midi": 69,
      "hit": false,
      "t": 29294.102999999992,
      "d": 317.64689999999973,
      "v": 62
    },
    {
      "midi": 59,
      "hit": false,
      "t": 29647.04399999999,
      "d": 1035.2936000000009,
      "v": 47
    },
    {
      "midi": 62,
      "hit": false,
      "t": 29647.04399999999,
      "d": 1405.8816499999994,
      "v": 56
    },
    {
      "midi": 43,
      "hit": false,
      "t": 29647.04399999999,
      "d": 1411.7639999999992,
      "v": 57
    },
    {
      "midi": 65,
      "hit": false,
      "t": 29647.04399999999,
      "d": 1411.7639999999992,
      "v": 37
    },
    {
      "midi": 67,
      "hit": false,
      "t": 29647.04399999999,
      "d": 1411.7639999999992,
      "v": 55
    },
    {
      "midi": 55,
      "hit": false,
      "t": 30352.925999999992,
      "d": 623.5290999999997,
      "v": 32
    },
    {
      "midi": 59,
      "hit": false,
      "t": 30705.86699999999,
      "d": 347.05864999999903,
      "v": 49
    },
    {
      "midi": 60,
      "hit": false,
      "t": 31058.80799999999,
      "d": 535.2938499999982,
      "v": 52
    },
    {
      "midi": 64,
      "hit": false,
      "t": 31058.80799999999,
      "d": 717.6466999999975,
      "v": 59
    },
    {
      "midi": 48,
      "hit": false,
      "t": 31058.80799999999,
      "d": 1411.7639999999956,
      "v": 72
    },
    {
      "midi": 55,
      "hit": false,
      "t": 31411.74899999999,
      "d": 1058.8229999999967,
      "v": 57
    },
    {
      "midi": 60,
      "hit": false,
      "t": 31764.689999999988,
      "d": 699.9996499999979,
      "v": 55
    },
    {
      "midi": 67,
      "hit": false,
      "t": 32117.630999999987,
      "d": 317.64689999999973,
      "v": 62
    },
    {
      "midi": 57,
      "hit": false,
      "t": 32470.571999999986,
      "d": 535.2938500000018,
      "v": 52
    },
    {
      "midi": 60,
      "hit": false,
      "t": 32470.571999999986,
      "d": 717.6467000000048,
      "v": 59
    },
    {
      "midi": 45,
      "hit": false,
      "t": 32470.571999999986,
      "d": 1411.7640000000029,
      "v": 72
    },
    {
      "midi": 52,
      "hit": false,
      "t": 32823.512999999984,
      "d": 1058.823000000004,
      "v": 57
    },
    {
      "midi": 57,
      "hit": false,
      "t": 33176.45399999999,
      "d": 699.9996499999979,
      "v": 55
    },
    {
      "midi": 64,
      "hit": false,
      "t": 33529.39499999999,
      "d": 317.64689999999973,
      "v": 62
    },
    {
      "midi": 69,
      "hit": false,
      "t": 33882.33599999999,
      "d": 41.17644999999902,
      "v": 66
    },
    {
      "midi": 65,
      "hit": false,
      "t": 33882.33599999999,
      "d": 1958.8225500000044,
      "v": 64
    },
    {
      "midi": 41,
      "hit": false,
      "t": 33882.33599999999,
      "d": 2823.5280000000057,
      "v": 53
    },
    {
      "midi": 60,
      "hit": false,
      "t": 33882.33599999999,
      "d": 2823.5280000000057,
      "v": 52
    },
    {
      "midi": 57,
      "hit": false,
      "t": 35647.04099999999,
      "d": 1058.823000000004,
      "v": 66
    },
    {
      "midi": 65,
      "hit": false,
      "t": 35999.981999999996,
      "d": 705.8819999999978,
      "v": 58
    },
    {
      "midi": 69,
      "hit": false,
      "t": 36352.922999999995,
      "d": 347.05864999999903,
      "v": 82
    },
    {
      "midi": 48,
      "hit": false,
      "t": 36705.863999999994,
      "d": 1411.7640000000029,
      "v": 55
    },
    {
      "midi": 55,
      "hit": false,
      "t": 36705.863999999994,
      "d": 1411.7640000000029,
      "v": 47
    },
    {
      "midi": 60,
      "hit": false,
      "t": 36705.863999999994,
      "d": 1411.7640000000029,
      "v": 60
    },
    {
      "midi": 64,
      "hit": false,
      "t": 36705.863999999994,
      "d": 1411.7640000000029,
      "v": 53
    },
    {
      "midi": 67,
      "hit": false,
      "t": 36705.863999999994,
      "d": 1411.7640000000029,
      "v": 52
    },
    {
      "midi": 45,
      "hit": false,
      "t": 38117.628,
      "d": 1411.7640000000029,
      "v": 55
    },
    {
      "midi": 52,
      "hit": false,
      "t": 38117.628,
      "d": 1411.7640000000029,
      "v": 47
    },
    {
      "midi": 57,
      "hit": false,
      "t": 38117.628,
      "d": 1411.7640000000029,
      "v": 60
    },
    {
      "midi": 60,
      "hit": false,
      "t": 38117.628,
      "d": 1411.7640000000029,
      "v": 53
    },
    {
      "midi": 64,
      "hit": false,
      "t": 38117.628,
      "d": 1411.7640000000029,
      "v": 52
    },
    {
      "midi": 60,
      "hit": false,
      "t": 39529.392,
      "d": 1035.2935999999972,
      "v": 47
    },
    {
      "midi": 65,
      "hit": false,
      "t": 39529.392,
      "d": 1405.8816499999957,
      "v": 56
    },
    {
      "midi": 41,
      "hit": false,
      "t": 39529.392,
      "d": 1411.7639999999956,
      "v": 57
    },
    {
      "midi": 69,
      "hit": false,
      "t": 39529.392,
      "d": 1411.7639999999956,
      "v": 37
    },
    {
      "midi": 57,
      "hit": false,
      "t": 40235.274,
      "d": 623.5290999999997,
      "v": 32
    },
    {
      "midi": 60,
      "hit": false,
      "t": 40588.215,
      "d": 347.05864999999903,
      "v": 49
    },
    {
      "midi": 43,
      "hit": false,
      "t": 40941.155999999995,
      "d": 1411.7640000000029,
      "v": 55
    },
    {
      "midi": 59,
      "hit": false,
      "t": 40941.155999999995,
      "d": 1411.7640000000029,
      "v": 47
    },
    {
      "midi": 62,
      "hit": false,
      "t": 40941.155999999995,
      "d": 1411.7640000000029,
      "v": 60
    },
    {
      "midi": 65,
      "hit": false,
      "t": 40941.155999999995,
      "d": 1411.7640000000029,
      "v": 53
    },
    {
      "midi": 67,
      "hit": false,
      "t": 40941.155999999995,
      "d": 1411.7640000000029,
      "v": 52
    },
    {
      "midi": 60,
      "hit": false,
      "t": 42352.92,
      "d": 1035.2935999999972,
      "v": 47
    },
    {
      "midi": 64,
      "hit": false,
      "t": 42352.92,
      "d": 1405.8816499999957,
      "v": 56
    },
    {
      "midi": 48,
      "hit": false,
      "t": 42352.92,
      "d": 1411.7639999999956,
      "v": 57
    },
    {
      "midi": 67,
      "hit": false,
      "t": 42352.92,
      "d": 1411.7639999999956,
      "v": 37
    },
    {
      "midi": 55,
      "hit": false,
      "t": 43058.801999999996,
      "d": 623.5290999999997,
      "v": 32
    },
    {
      "midi": 60,
      "hit": false,
      "t": 43411.742999999995,
      "d": 347.05864999999903,
      "v": 49
    },
    {
      "midi": 57,
      "hit": false,
      "t": 43764.683999999994,
      "d": 535.2938500000018,
      "v": 52
    },
    {
      "midi": 60,
      "hit": false,
      "t": 43764.683999999994,
      "d": 717.6467000000048,
      "v": 59
    },
    {
      "midi": 45,
      "hit": false,
      "t": 43764.683999999994,
      "d": 1411.7640000000029,
      "v": 72
    },
    {
      "midi": 52,
      "hit": false,
      "t": 44117.62499999999,
      "d": 1058.823000000004,
      "v": 57
    },
    {
      "midi": 57,
      "hit": false,
      "t": 44470.566,
      "d": 699.9996499999979,
      "v": 55
    },
    {
      "midi": 64,
      "hit": false,
      "t": 44823.507,
      "d": 317.64689999999973,
      "v": 62
    },
    {
      "midi": 60,
      "hit": false,
      "t": 45176.448,
      "d": 535.2938500000018,
      "v": 52
    },
    {
      "midi": 65,
      "hit": false,
      "t": 45176.448,
      "d": 717.6467000000048,
      "v": 59
    },
    {
      "midi": 41,
      "hit": false,
      "t": 45176.448,
      "d": 1411.7640000000029,
      "v": 72
    },
    {
      "midi": 57,
      "hit": false,
      "t": 45529.388999999996,
      "d": 1058.823000000004,
      "v": 57
    },
    {
      "midi": 60,
      "hit": false,
      "t": 45882.33,
      "d": 699.9996499999979,
      "v": 55
    },
    {
      "midi": 69,
      "hit": false,
      "t": 46235.271,
      "d": 317.64689999999973,
      "v": 62
    },
    {
      "midi": 62,
      "hit": false,
      "t": 46588.212,
      "d": 1035.2935999999972,
      "v": 47
    },
    {
      "midi": 67,
      "hit": false,
      "t": 46588.212,
      "d": 1405.8816499999957,
      "v": 56
    },
    {
      "midi": 43,
      "hit": false,
      "t": 46588.212,
      "d": 1411.7639999999956,
      "v": 57
    },
    {
      "midi": 71,
      "hit": false,
      "t": 46588.212,
      "d": 1411.7639999999956,
      "v": 37
    },
    {
      "midi": 59,
      "hit": false,
      "t": 47294.094,
      "d": 623.5290999999997,
      "v": 32
    },
    {
      "midi": 62,
      "hit": false,
      "t": 47647.034999999996,
      "d": 347.05864999999903,
      "v": 49
    },
    {
      "midi": 64,
      "hit": false,
      "t": 47999.975999999995,
      "d": 1194.1170499999935,
      "v": 51
    },
    {
      "midi": 57,
      "hit": false,
      "t": 47999.975999999995,
      "d": 1211.764099999993,
      "v": 51
    },
    {
      "midi": 45,
      "hit": false,
      "t": 47999.975999999995,
      "d": 2823.527999999991,
      "v": 52
    },
    {
      "midi": 52,
      "hit": false,
      "t": 49058.79899999999,
      "d": 1764.7049999999945,
      "v": 46
    },
    {
      "midi": 57,
      "hit": false,
      "t": 49411.73999999999,
      "d": 1411.7639999999956,
      "v": 43
    },
    {
      "midi": 64,
      "hit": false,
      "t": 49411.73999999999,
      "d": 1411.7639999999956,
      "v": 51
    },
    {
      "midi": 67,
      "hit": false,
      "t": 50823.503999999986,
      "d": 1447.058100000002,
      "v": 63
    },
    {
      "midi": 40,
      "hit": false,
      "t": 50823.503999999986,
      "d": 2823.5279999999984,
      "v": 46
    },
    {
      "midi": 55,
      "hit": false,
      "t": 50823.503999999986,
      "d": 2823.5279999999984,
      "v": 55
    },
    {
      "midi": 59,
      "hit": false,
      "t": 50823.503999999986,
      "d": 2823.5279999999984,
      "v": 43
    },
    {
      "midi": 64,
      "hit": false,
      "t": 50823.503999999986,
      "d": 2823.5279999999984,
      "v": 53
    },
    {
      "midi": 76,
      "hit": false,
      "t": 52235.26799999999,
      "d": 770.5878499999963,
      "v": 76
    },
    {
      "midi": 67,
      "hit": false,
      "t": 52941.14999999999,
      "d": 670.5878999999986,
      "v": 63
    },
    {
      "midi": 69,
      "hit": false,
      "t": 53647.031999999985,
      "d": 41.17644999999902,
      "v": 66
    },
    {
      "midi": 65,
      "hit": false,
      "t": 53647.031999999985,
      "d": 1958.8225500000044,
      "v": 64
    },
    {
      "midi": 41,
      "hit": false,
      "t": 53647.031999999985,
      "d": 2823.5280000000057,
      "v": 53
    },
    {
      "midi": 60,
      "hit": false,
      "t": 53647.031999999985,
      "d": 2823.5280000000057,
      "v": 52
    },
    {
      "midi": 57,
      "hit": false,
      "t": 55411.73699999999,
      "d": 1058.823000000004,
      "v": 66
    },
    {
      "midi": 65,
      "hit": false,
      "t": 55764.67799999999,
      "d": 705.8819999999978,
      "v": 58
    },
    {
      "midi": 69,
      "hit": false,
      "t": 56117.61899999999,
      "d": 347.05864999999903,
      "v": 82
    },
    {
      "midi": 40,
      "hit": false,
      "t": 56470.55999999999,
      "d": 1411.7640000000029,
      "v": 55
    },
    {
      "midi": 57,
      "hit": false,
      "t": 56470.55999999999,
      "d": 1411.7640000000029,
      "v": 47
    },
    {
      "midi": 59,
      "hit": false,
      "t": 56470.55999999999,
      "d": 1411.7640000000029,
      "v": 60
    },
    {
      "midi": 64,
      "hit": false,
      "t": 56470.55999999999,
      "d": 1411.7640000000029,
      "v": 53
    },
    {
      "midi": 69,
      "hit": false,
      "t": 56470.55999999999,
      "d": 1411.7640000000029,
      "v": 52
    },
    {
      "midi": 40,
      "hit": false,
      "t": 57882.32399999999,
      "d": 1411.7640000000029,
      "v": 55
    },
    {
      "midi": 56,
      "hit": false,
      "t": 57882.32399999999,
      "d": 1411.7640000000029,
      "v": 47
    },
    {
      "midi": 59,
      "hit": false,
      "t": 57882.32399999999,
      "d": 1411.7640000000029,
      "v": 60
    },
    {
      "midi": 64,
      "hit": false,
      "t": 57882.32399999999,
      "d": 1411.7640000000029,
      "v": 53
    },
    {
      "midi": 68,
      "hit": false,
      "t": 57882.32399999999,
      "d": 1411.7640000000029,
      "v": 52
    },
    {
      "midi": 60,
      "hit": false,
      "t": 59294.087999999996,
      "d": 2376.4694000000018,
      "v": 54
    },
    {
      "midi": 65,
      "hit": false,
      "t": 59294.087999999996,
      "d": 2452.93995,
      "v": 56
    },
    {
      "midi": 69,
      "hit": false,
      "t": 59294.087999999996,
      "d": 2476.4693499999994,
      "v": 61
    },
    {
      "midi": 41,
      "hit": false,
      "t": 59294.087999999996,
      "d": 5647.056000000011,
      "v": 40
    },
    {
      "midi": 57,
      "hit": false,
      "t": 61588.2045,
      "d": 3152.939600000005,
      "v": 70
    },
    {
      "midi": 60,
      "hit": false,
      "t": 61764.674999999996,
      "d": 682.3526000000056,
      "v": 47
    },
    {
      "midi": 65,
      "hit": false,
      "t": 61941.1455,
      "d": 2976.4691000000093,
      "v": 48
    },
    {
      "midi": 69,
      "hit": false,
      "t": 62117.616,
      "d": 2788.2339000000065,
      "v": 57
    },
    {
      "midi": 60,
      "hit": false,
      "t": 63176.439,
      "d": 535.2938500000018,
      "v": 39
    },
    {
      "midi": 60,
      "hit": false,
      "t": 63882.321,
      "d": 376.47039999999834,
      "v": 48
    },
    {
      "midi": 77,
      "hit": false,
      "t": 64235.262,
      "d": 682.3526000000056,
      "v": 68
    },
    {
      "midi": 59,
      "hit": false,
      "t": 64941.14400000001,
      "d": 1829.410849999993,
      "v": 55
    },
    {
      "midi": 62,
      "hit": false,
      "t": 64941.14400000001,
      "d": 1941.1754999999903,
      "v": 78
    },
    {
      "midi": 65,
      "hit": false,
      "t": 64941.14400000001,
      "d": 1941.1754999999903,
      "v": 54
    },
    {
      "midi": 67,
      "hit": false,
      "t": 64941.14400000001,
      "d": 1958.8225499999899,
      "v": 59
    },
    {
      "midi": 43,
      "hit": false,
      "t": 64941.14400000001,
      "d": 2823.5279999999693,
      "v": 72
    },
    {
      "midi": 55,
      "hit": false,
      "t": 66705.849,
      "d": 1011.764199999976,
      "v": 63
    },
    {
      "midi": 59,
      "hit": false,
      "t": 66899.96655,
      "d": 794.1172499999811,
      "v": 53
    },
    {
      "midi": 62,
      "hit": false,
      "t": 67058.79,
      "d": 594.1173499999859,
      "v": 59
    },
    {
      "midi": 65,
      "hit": false,
      "t": 67235.26049999999,
      "d": 382.3527499999909,
      "v": 58
    },
    {
      "midi": 67,
      "hit": false,
      "t": 67411.73099999999,
      "d": 241.17634999999427,
      "v": 68
    },
    {
      "midi": 67,
      "hit": false,
      "t": 67764.67199999998,
      "d": 41.17644999999902,
      "v": 66
    },
    {
      "midi": 64,
      "hit": false,
      "t": 67764.67199999998,
      "d": 1958.8225499999971,
      "v": 64
    },
    {
      "midi": 48,
      "hit": false,
      "t": 67764.67199999998,
      "d": 2823.5280000000057,
      "v": 53
    },
    {
      "midi": 60,
      "hit": false,
      "t": 67764.67199999998,
      "d": 2823.5280000000057,
      "v": 52
    },
    {
      "midi": 55,
      "hit": false,
      "t": 69529.37699999998,
      "d": 1058.823000000004,
      "v": 66
    },
    {
      "midi": 64,
      "hit": false,
      "t": 69882.31799999997,
      "d": 705.8820000000123,
      "v": 58
    },
    {
      "midi": 67,
      "hit": false,
      "t": 70235.25899999998,
      "d": 347.0586500000063,
      "v": 82
    },
    {
      "midi": 48,
      "hit": false,
      "t": 70588.19999999998,
      "d": 1411.7639999999956,
      "v": 55
    },
    {
      "midi": 55,
      "hit": false,
      "t": 70588.19999999998,
      "d": 1411.7639999999956,
      "v": 47
    },
    {
      "midi": 60,
      "hit": false,
      "t": 70588.19999999998,
      "d": 1411.7639999999956,
      "v": 60
    },
    {
      "midi": 64,
      "hit": false,
      "t": 70588.19999999998,
      "d": 1411.7639999999956,
      "v": 53
    },
    {
      "midi": 67,
      "hit": false,
      "t": 70588.19999999998,
      "d": 1411.7639999999956,
      "v": 52
    },
    {
      "midi": 45,
      "hit": false,
      "t": 71999.96399999998,
      "d": 1411.7639999999956,
      "v": 55
    },
    {
      "midi": 52,
      "hit": false,
      "t": 71999.96399999998,
      "d": 1411.7639999999956,
      "v": 47
    },
    {
      "midi": 57,
      "hit": false,
      "t": 71999.96399999998,
      "d": 1411.7639999999956,
      "v": 60
    },
    {
      "midi": 60,
      "hit": false,
      "t": 71999.96399999998,
      "d": 1411.7639999999956,
      "v": 53
    },
    {
      "midi": 64,
      "hit": false,
      "t": 71999.96399999998,
      "d": 1411.7639999999956,
      "v": 52
    },
    {
      "midi": 41,
      "hit": false,
      "t": 73411.72799999997,
      "d": 1411.7639999999956,
      "v": 55
    },
    {
      "midi": 57,
      "hit": false,
      "t": 73411.72799999997,
      "d": 1411.7639999999956,
      "v": 47
    },
    {
      "midi": 60,
      "hit": false,
      "t": 73411.72799999997,
      "d": 1411.7639999999956,
      "v": 60
    },
    {
      "midi": 65,
      "hit": false,
      "t": 73411.72799999997,
      "d": 1411.7639999999956,
      "v": 53
    },
    {
      "midi": 69,
      "hit": false,
      "t": 73411.72799999997,
      "d": 1411.7639999999956,
      "v": 52
    },
    {
      "midi": 59,
      "hit": false,
      "t": 74823.49199999997,
      "d": 535.2938500000018,
      "v": 52
    },
    {
      "midi": 62,
      "hit": false,
      "t": 74823.49199999997,
      "d": 717.6466999999975,
      "v": 59
    },
    {
      "midi": 43,
      "hit": false,
      "t": 74823.49199999997,
      "d": 1411.7640000000101,
      "v": 72
    },
    {
      "midi": 55,
      "hit": false,
      "t": 75176.43299999998,
      "d": 1058.823000000004,
      "v": 57
    },
    {
      "midi": 59,
      "hit": false,
      "t": 75529.37399999997,
      "d": 699.9996500000125,
      "v": 55
    },
    {
      "midi": 65,
      "hit": false,
      "t": 75882.31499999997,
      "d": 317.646900000007,
      "v": 62
    },
    {
      "midi": 60,
      "hit": false,
      "t": 76235.25599999998,
      "d": 535.2938500000018,
      "v": 52
    },
    {
      "midi": 64,
      "hit": false,
      "t": 76235.25599999998,
      "d": 717.6466999999975,
      "v": 59
    },
    {
      "midi": 48,
      "hit": false,
      "t": 76235.25599999998,
      "d": 1411.7640000000101,
      "v": 72
    },
    {
      "midi": 55,
      "hit": false,
      "t": 76588.19699999999,
      "d": 1058.823000000004,
      "v": 57
    },
    {
      "midi": 60,
      "hit": false,
      "t": 76941.13799999998,
      "d": 699.9996500000125,
      "v": 55
    },
    {
      "midi": 67,
      "hit": false,
      "t": 77294.07899999998,
      "d": 317.646900000007,
      "v": 62
    },
    {
      "midi": 57,
      "hit": false,
      "t": 77647.01999999999,
      "d": 535.2938500000018,
      "v": 52
    },
    {
      "midi": 60,
      "hit": false,
      "t": 77647.01999999999,
      "d": 717.6466999999975,
      "v": 59
    },
    {
      "midi": 45,
      "hit": false,
      "t": 77647.01999999999,
      "d": 1411.7640000000101,
      "v": 72
    },
    {
      "midi": 52,
      "hit": false,
      "t": 77999.961,
      "d": 1058.823000000004,
      "v": 57
    },
    {
      "midi": 57,
      "hit": false,
      "t": 78352.90199999999,
      "d": 699.9996500000125,
      "v": 55
    },
    {
      "midi": 64,
      "hit": false,
      "t": 78705.843,
      "d": 317.646900000007,
      "v": 62
    },
    {
      "midi": 69,
      "hit": false,
      "t": 79058.784,
      "d": 1194.1170500000007,
      "v": 51
    },
    {
      "midi": 60,
      "hit": false,
      "t": 79058.784,
      "d": 1211.7641000000003,
      "v": 51
    },
    {
      "midi": 41,
      "hit": false,
      "t": 79058.784,
      "d": 2823.5280000000057,
      "v": 52
    },
    {
      "midi": 57,
      "hit": false,
      "t": 80117.607,
      "d": 1764.7050000000017,
      "v": 46
    },
    {
      "midi": 60,
      "hit": false,
      "t": 80470.548,
      "d": 1411.7640000000101,
      "v": 43
    },
    {
      "midi": 69,
      "hit": false,
      "t": 80470.548,
      "d": 1411.7640000000101,
      "v": 51
    },
    {
      "midi": 60,
      "hit": false,
      "t": 81882.312,
      "d": 1035.2936000000045,
      "v": 47
    },
    {
      "midi": 64,
      "hit": false,
      "t": 81882.312,
      "d": 1405.8816499999957,
      "v": 56
    },
    {
      "midi": 48,
      "hit": false,
      "t": 81882.312,
      "d": 1411.7639999999956,
      "v": 57
    },
    {
      "midi": 67,
      "hit": false,
      "t": 81882.312,
      "d": 1411.7639999999956,
      "v": 37
    },
    {
      "midi": 55,
      "hit": false,
      "t": 82588.194,
      "d": 623.5290999999997,
      "v": 32
    },
    {
      "midi": 60,
      "hit": false,
      "t": 82941.13500000001,
      "d": 347.05864999999176,
      "v": 49
    },
    {
      "midi": 57,
      "hit": false,
      "t": 83294.076,
      "d": 535.2938500000018,
      "v": 52
    },
    {
      "midi": 60,
      "hit": false,
      "t": 83294.076,
      "d": 717.6466999999975,
      "v": 59
    },
    {
      "midi": 45,
      "hit": false,
      "t": 83294.076,
      "d": 1411.7640000000101,
      "v": 72
    },
    {
      "midi": 52,
      "hit": false,
      "t": 83647.017,
      "d": 1058.823000000004,
      "v": 57
    },
    {
      "midi": 57,
      "hit": false,
      "t": 83999.958,
      "d": 699.9996500000125,
      "v": 55
    },
    {
      "midi": 64,
      "hit": false,
      "t": 84352.899,
      "d": 317.646900000007,
      "v": 62
    },
    {
      "midi": 60,
      "hit": false,
      "t": 84705.84000000001,
      "d": 1035.2936000000045,
      "v": 47
    },
    {
      "midi": 65,
      "hit": false,
      "t": 84705.84000000001,
      "d": 1405.8816499999957,
      "v": 56
    },
    {
      "midi": 41,
      "hit": false,
      "t": 84705.84000000001,
      "d": 1411.7639999999956,
      "v": 57
    },
    {
      "midi": 69,
      "hit": false,
      "t": 84705.84000000001,
      "d": 1411.7639999999956,
      "v": 37
    },
    {
      "midi": 57,
      "hit": false,
      "t": 85411.72200000001,
      "d": 623.5290999999997,
      "v": 32
    },
    {
      "midi": 60,
      "hit": false,
      "t": 85764.66300000002,
      "d": 347.05864999999176,
      "v": 49
    },
    {
      "midi": 59,
      "hit": false,
      "t": 86117.604,
      "d": 1035.2936000000045,
      "v": 47
    },
    {
      "midi": 62,
      "hit": false,
      "t": 86117.604,
      "d": 1405.8816499999957,
      "v": 56
    },
    {
      "midi": 43,
      "hit": false,
      "t": 86117.604,
      "d": 1411.7639999999956,
      "v": 57
    },
    {
      "midi": 65,
      "hit": false,
      "t": 86117.604,
      "d": 1411.7639999999956,
      "v": 37
    },
    {
      "midi": 67,
      "hit": false,
      "t": 86117.604,
      "d": 1411.7639999999956,
      "v": 55
    },
    {
      "midi": 55,
      "hit": false,
      "t": 86823.486,
      "d": 623.5290999999997,
      "v": 32
    },
    {
      "midi": 59,
      "hit": false,
      "t": 87176.42700000001,
      "d": 347.05864999999176,
      "v": 49
    },
    {
      "midi": 48,
      "hit": false,
      "t": 87529.368,
      "d": 1411.7639999999956,
      "v": 55
    },
    {
      "midi": 55,
      "hit": false,
      "t": 87529.368,
      "d": 1411.7639999999956,
      "v": 47
    },
    {
      "midi": 60,
      "hit": false,
      "t": 87529.368,
      "d": 1411.7639999999956,
      "v": 60
    },
    {
      "midi": 64,
      "hit": false,
      "t": 87529.368,
      "d": 1411.7639999999956,
      "v": 53
    },
    {
      "midi": 67,
      "hit": false,
      "t": 87529.368,
      "d": 1411.7639999999956,
      "v": 52
    },
    {
      "midi": 57,
      "hit": false,
      "t": 88941.132,
      "d": 535.2938500000018,
      "v": 52
    },
    {
      "midi": 60,
      "hit": false,
      "t": 88941.132,
      "d": 717.6466999999975,
      "v": 59
    },
    {
      "midi": 45,
      "hit": false,
      "t": 88941.132,
      "d": 1411.7640000000101,
      "v": 72
    },
    {
      "midi": 52,
      "hit": false,
      "t": 89294.073,
      "d": 1058.823000000004,
      "v": 57
    },
    {
      "midi": 57,
      "hit": false,
      "t": 89647.014,
      "d": 699.9996500000125,
      "v": 55
    },
    {
      "midi": 64,
      "hit": false,
      "t": 89999.955,
      "d": 317.646900000007,
      "v": 62
    },
    {
      "midi": 41,
      "hit": false,
      "t": 90352.89600000001,
      "d": 1411.7639999999956,
      "v": 55
    },
    {
      "midi": 57,
      "hit": false,
      "t": 90352.89600000001,
      "d": 1411.7639999999956,
      "v": 47
    },
    {
      "midi": 60,
      "hit": false,
      "t": 90352.89600000001,
      "d": 1411.7639999999956,
      "v": 60
    },
    {
      "midi": 65,
      "hit": false,
      "t": 90352.89600000001,
      "d": 1411.7639999999956,
      "v": 53
    },
    {
      "midi": 69,
      "hit": false,
      "t": 90352.89600000001,
      "d": 1411.7639999999956,
      "v": 52
    },
    {
      "midi": 62,
      "hit": false,
      "t": 91764.66,
      "d": 1035.2936000000045,
      "v": 47
    },
    {
      "midi": 67,
      "hit": false,
      "t": 91764.66,
      "d": 1405.8816499999957,
      "v": 56
    },
    {
      "midi": 43,
      "hit": false,
      "t": 91764.66,
      "d": 1411.7639999999956,
      "v": 57
    },
    {
      "midi": 71,
      "hit": false,
      "t": 91764.66,
      "d": 1411.7639999999956,
      "v": 37
    },
    {
      "midi": 59,
      "hit": false,
      "t": 92470.542,
      "d": 623.5290999999997,
      "v": 32
    },
    {
      "midi": 62,
      "hit": false,
      "t": 92823.48300000001,
      "d": 347.05864999999176,
      "v": 49
    },
    {
      "midi": 52,
      "hit": false,
      "t": 93176.424,
      "d": 2105.8812999999936,
      "v": 39
    },
    {
      "midi": 57,
      "hit": false,
      "t": 93176.424,
      "d": 2311.7635499999888,
      "v": 58
    },
    {
      "midi": 60,
      "hit": false,
      "t": 93176.424,
      "d": 2405.8811499999865,
      "v": 60
    },
    {
      "midi": 45,
      "hit": false,
      "t": 93176.424,
      "d": 2823.5279999999766,
      "v": 48
    },
    {
      "midi": 64,
      "hit": false,
      "t": 93176.424,
      "d": 2823.5279999999766,
      "v": 59
    },
    {
      "midi": 52,
      "hit": false,
      "t": 95470.54049999999,
      "d": 529.4114999999874,
      "v": 57
    },
    {
      "midi": 57,
      "hit": false,
      "t": 95647.01099999998,
      "d": 352.9409999999916,
      "v": 45
    },
    {
      "midi": 60,
      "hit": false,
      "t": 95823.48149999998,
      "d": 176.4704999999958,
      "v": 68
    },
    {
      "midi": 59,
      "hit": false,
      "t": 95999.95199999998,
      "d": 582.3526500000007,
      "v": 45
    },
    {
      "midi": 64,
      "hit": false,
      "t": 95999.95199999998,
      "d": 735.2937499999971,
      "v": 55
    },
    {
      "midi": 67,
      "hit": false,
      "t": 95999.95199999998,
      "d": 1011.7641999999905,
      "v": 58
    },
    {
      "midi": 40,
      "hit": false,
      "t": 95999.95199999998,
      "d": 2776.469199999963,
      "v": 63
    },
    {
      "midi": 55,
      "hit": false,
      "t": 96352.89299999998,
      "d": 1147.0582499999873,
      "v": 57
    },
    {
      "midi": 59,
      "hit": false,
      "t": 96735.24574999997,
      "d": 1294.1169999999838,
      "v": 55
    },
    {
      "midi": 64,
      "hit": false,
      "t": 97058.77499999997,
      "d": 729.4113999999972,
      "v": 41
    },
    {
      "midi": 67,
      "hit": false,
      "t": 97411.71599999997,
      "d": 488.2350499999884,
      "v": 56
    },
    {
      "midi": 55,
      "hit": false,
      "t": 97764.65699999996,
      "d": 647.0584999999846,
      "v": 52
    },
    {
      "midi": 59,
      "hit": false,
      "t": 98117.59799999995,
      "d": 399.9997999999905,
      "v": 10
    },
    {
      "midi": 67,
      "hit": false,
      "t": 98117.59799999995,
      "d": 399.9997999999905,
      "v": 45
    },
    {
      "midi": 69,
      "hit": false,
      "t": 98823.47999999994,
      "d": 41.17644999999902,
      "v": 66
    },
    {
      "midi": 65,
      "hit": false,
      "t": 98823.47999999994,
      "d": 1958.8225499999971,
      "v": 64
    },
    {
      "midi": 41,
      "hit": false,
      "t": 98823.47999999994,
      "d": 2823.5280000000057,
      "v": 53
    },
    {
      "midi": 60,
      "hit": false,
      "t": 98823.47999999994,
      "d": 2823.5280000000057,
      "v": 52
    },
    {
      "midi": 57,
      "hit": false,
      "t": 100588.18499999994,
      "d": 1058.823000000004,
      "v": 66
    },
    {
      "midi": 65,
      "hit": false,
      "t": 100941.12599999993,
      "d": 705.8820000000123,
      "v": 58
    },
    {
      "midi": 69,
      "hit": false,
      "t": 101294.06699999994,
      "d": 347.0586500000063,
      "v": 82
    },
    {
      "midi": 59,
      "hit": false,
      "t": 101647.00799999994,
      "d": 1035.2936000000045,
      "v": 47
    },
    {
      "midi": 64,
      "hit": false,
      "t": 101647.00799999994,
      "d": 1405.8816499999957,
      "v": 56
    },
    {
      "midi": 40,
      "hit": false,
      "t": 101647.00799999994,
      "d": 1411.7639999999956,
      "v": 57
    },
    {
      "midi": 69,
      "hit": false,
      "t": 101647.00799999994,
      "d": 1411.7639999999956,
      "v": 37
    },
    {
      "midi": 57,
      "hit": false,
      "t": 102352.88999999994,
      "d": 623.5290999999997,
      "v": 32
    },
    {
      "midi": 59,
      "hit": false,
      "t": 102705.83099999995,
      "d": 347.05864999999176,
      "v": 49
    },
    {
      "midi": 59,
      "hit": false,
      "t": 103058.77199999994,
      "d": 535.2938500000018,
      "v": 52
    },
    {
      "midi": 64,
      "hit": false,
      "t": 103058.77199999994,
      "d": 717.6466999999975,
      "v": 59
    },
    {
      "midi": 40,
      "hit": false,
      "t": 103058.77199999994,
      "d": 1411.7640000000101,
      "v": 72
    },
    {
      "midi": 56,
      "hit": false,
      "t": 103411.71299999995,
      "d": 1058.823000000004,
      "v": 57
    },
    {
      "midi": 59,
      "hit": false,
      "t": 103764.65399999994,
      "d": 699.9996500000125,
      "v": 55
    },
    {
      "midi": 68,
      "hit": false,
      "t": 104117.59499999994,
      "d": 317.646900000007,
      "v": 62
    },
    {
      "midi": 84,
      "hit": false,
      "t": 104470.53599999995,
      "d": 2623.528099999996,
      "v": 61
    },
    {
      "midi": 41,
      "hit": false,
      "t": 104470.53599999995,
      "d": 5647.055999999997,
      "v": 60
    },
    {
      "midi": 57,
      "hit": false,
      "t": 107117.59349999994,
      "d": 2999.9985000000015,
      "v": 54
    },
    {
      "midi": 60,
      "hit": false,
      "t": 108882.29849999995,
      "d": 652.940849999999,
      "v": 50
    },
    {
      "midi": 65,
      "hit": false,
      "t": 109058.76899999994,
      "d": 1058.823000000004,
      "v": 57
    },
    {
      "midi": 69,
      "hit": false,
      "t": 109411.70999999995,
      "d": 705.8819999999978,
      "v": 59
    },
    {
      "midi": 60,
      "hit": false,
      "t": 109764.65099999994,
      "d": 352.94100000000617,
      "v": 46
    },
    {
      "midi": 65,
      "hit": false,
      "t": 110117.59199999995,
      "d": 1447.0580999999947,
      "v": 63
    },
    {
      "midi": 43,
      "hit": false,
      "t": 110117.59199999995,
      "d": 2823.527999999991,
      "v": 46
    },
    {
      "midi": 55,
      "hit": false,
      "t": 110117.59199999995,
      "d": 2823.527999999991,
      "v": 55
    },
    {
      "midi": 59,
      "hit": false,
      "t": 110117.59199999995,
      "d": 2823.527999999991,
      "v": 43
    },
    {
      "midi": 62,
      "hit": false,
      "t": 110117.59199999995,
      "d": 2823.527999999991,
      "v": 53
    },
    {
      "midi": 74,
      "hit": false,
      "t": 111529.35599999994,
      "d": 770.5878499999963,
      "v": 76
    },
    {
      "midi": 65,
      "hit": false,
      "t": 112235.23799999994,
      "d": 670.5878999999986,
      "v": 63
    },
    {
      "midi": 55,
      "hit": false,
      "t": 112941.11999999994,
      "d": 2105.8812999999936,
      "v": 39
    },
    {
      "midi": 60,
      "hit": false,
      "t": 112941.11999999994,
      "d": 2311.7635499999888,
      "v": 58
    },
    {
      "midi": 64,
      "hit": false,
      "t": 112941.11999999994,
      "d": 2405.8811499999865,
      "v": 60
    },
    {
      "midi": 48,
      "hit": false,
      "t": 112941.11999999994,
      "d": 2823.5279999999766,
      "v": 48
    },
    {
      "midi": 67,
      "hit": false,
      "t": 112941.11999999994,
      "d": 2823.5279999999766,
      "v": 59
    },
    {
      "midi": 55,
      "hit": false,
      "t": 115235.23649999993,
      "d": 529.4114999999874,
      "v": 57
    },
    {
      "midi": 60,
      "hit": false,
      "t": 115411.70699999992,
      "d": 352.9409999999916,
      "v": 45
    },
    {
      "midi": 64,
      "hit": false,
      "t": 115588.17749999992,
      "d": 176.4704999999958,
      "v": 68
    },
    {
      "midi": 59,
      "hit": false,
      "t": 115764.64799999991,
      "d": 1829.4108500000002,
      "v": 55
    },
    {
      "midi": 64,
      "hit": false,
      "t": 115764.64799999991,
      "d": 1941.1754999999976,
      "v": 78
    },
    {
      "midi": 67,
      "hit": false,
      "t": 115764.64799999991,
      "d": 1941.1754999999976,
      "v": 54
    },
    {
      "midi": 40,
      "hit": false,
      "t": 115764.64799999991,
      "d": 2823.527999999991,
      "v": 72
    },
    {
      "midi": 55,
      "hit": false,
      "t": 117529.35299999992,
      "d": 1011.7641999999905,
      "v": 63
    },
    {
      "midi": 59,
      "hit": false,
      "t": 117723.47054999991,
      "d": 794.1172499999957,
      "v": 53
    },
    {
      "midi": 64,
      "hit": false,
      "t": 117882.2939999999,
      "d": 594.1173500000004,
      "v": 59
    },
    {
      "midi": 67,
      "hit": false,
      "t": 118058.7644999999,
      "d": 382.35275000000547,
      "v": 58
    },
    {
      "midi": 69,
      "hit": false,
      "t": 118588.1759999999,
      "d": 1194.1170500000007,
      "v": 51
    },
    {
      "midi": 60,
      "hit": false,
      "t": 118588.1759999999,
      "d": 1211.7641000000003,
      "v": 51
    },
    {
      "midi": 41,
      "hit": false,
      "t": 118588.1759999999,
      "d": 2823.5280000000057,
      "v": 52
    },
    {
      "midi": 57,
      "hit": false,
      "t": 119646.99899999991,
      "d": 1764.7050000000017,
      "v": 46
    },
    {
      "midi": 60,
      "hit": false,
      "t": 119999.9399999999,
      "d": 1411.7640000000101,
      "v": 43
    },
    {
      "midi": 69,
      "hit": false,
      "t": 119999.9399999999,
      "d": 1411.7640000000101,
      "v": 51
    },
    {
      "midi": 48,
      "hit": false,
      "t": 121411.70399999991,
      "d": 1411.7639999999956,
      "v": 55
    },
    {
      "midi": 55,
      "hit": false,
      "t": 121411.70399999991,
      "d": 1411.7639999999956,
      "v": 47
    },
    {
      "midi": 60,
      "hit": false,
      "t": 121411.70399999991,
      "d": 1411.7639999999956,
      "v": 60
    },
    {
      "midi": 64,
      "hit": false,
      "t": 121411.70399999991,
      "d": 1411.7639999999956,
      "v": 53
    },
    {
      "midi": 67,
      "hit": false,
      "t": 121411.70399999991,
      "d": 1411.7639999999956,
      "v": 52
    },
    {
      "midi": 43,
      "hit": false,
      "t": 122823.4679999999,
      "d": 1411.7639999999956,
      "v": 55
    },
    {
      "midi": 59,
      "hit": false,
      "t": 122823.4679999999,
      "d": 1411.7639999999956,
      "v": 47
    },
    {
      "midi": 62,
      "hit": false,
      "t": 122823.4679999999,
      "d": 1411.7639999999956,
      "v": 60
    },
    {
      "midi": 67,
      "hit": false,
      "t": 122823.4679999999,
      "d": 1411.7639999999956,
      "v": 53
    },
    {
      "midi": 71,
      "hit": false,
      "t": 122823.4679999999,
      "d": 1411.7639999999956,
      "v": 52
    },
    {
      "midi": 67,
      "hit": false,
      "t": 124235.2319999999,
      "d": 1194.1170500000007,
      "v": 51
    },
    {
      "midi": 60,
      "hit": false,
      "t": 124235.2319999999,
      "d": 1211.7641000000003,
      "v": 51
    },
    {
      "midi": 48,
      "hit": false,
      "t": 124235.2319999999,
      "d": 2823.5280000000057,
      "v": 52
    },
    {
      "midi": 55,
      "hit": false,
      "t": 125294.0549999999,
      "d": 1764.7050000000017,
      "v": 46
    },
    {
      "midi": 60,
      "hit": false,
      "t": 125646.9959999999,
      "d": 1411.7640000000101,
      "v": 43
    },
    {
      "midi": 67,
      "hit": false,
      "t": 125646.9959999999,
      "d": 1411.7640000000101,
      "v": 51
    },
    {
      "midi": 67,
      "hit": false,
      "t": 127058.75999999991,
      "d": 41.17644999999902,
      "v": 66
    },
    {
      "midi": 64,
      "hit": false,
      "t": 127058.75999999991,
      "d": 1958.8225499999971,
      "v": 64
    },
    {
      "midi": 40,
      "hit": false,
      "t": 127058.75999999991,
      "d": 2823.5280000000057,
      "v": 53
    },
    {
      "midi": 59,
      "hit": false,
      "t": 127058.75999999991,
      "d": 2823.5280000000057,
      "v": 52
    },
    {
      "midi": 55,
      "hit": false,
      "t": 128823.46499999991,
      "d": 1058.823000000004,
      "v": 66
    },
    {
      "midi": 64,
      "hit": false,
      "t": 129176.4059999999,
      "d": 705.8820000000123,
      "v": 58
    },
    {
      "midi": 67,
      "hit": false,
      "t": 129529.3469999999,
      "d": 347.0586500000063,
      "v": 82
    },
    {
      "midi": 60,
      "hit": false,
      "t": 129882.28799999991,
      "d": 582.3526500000007,
      "v": 45
    },
    {
      "midi": 65,
      "hit": false,
      "t": 129882.28799999991,
      "d": 735.2937499999971,
      "v": 55
    },
    {
      "midi": 69,
      "hit": false,
      "t": 129882.28799999991,
      "d": 1011.7641999999905,
      "v": 58
    },
    {
      "midi": 41,
      "hit": false,
      "t": 129882.28799999991,
      "d": 2776.469199999963,
      "v": 63
    },
    {
      "midi": 57,
      "hit": false,
      "t": 130235.22899999992,
      "d": 1147.0582499999873,
      "v": 57
    },
    {
      "midi": 60,
      "hit": false,
      "t": 130617.58174999991,
      "d": 1294.1169999999838,
      "v": 55
    },
    {
      "midi": 65,
      "hit": false,
      "t": 130941.1109999999,
      "d": 729.4113999999972,
      "v": 41
    },
    {
      "midi": 69,
      "hit": false,
      "t": 131294.0519999999,
      "d": 488.2350499999884,
      "v": 56
    },
    {
      "midi": 57,
      "hit": false,
      "t": 131646.9929999999,
      "d": 647.0584999999846,
      "v": 52
    },
    {
      "midi": 60,
      "hit": false,
      "t": 131999.9339999999,
      "d": 399.9997999999905,
      "v": 10
    },
    {
      "midi": 69,
      "hit": false,
      "t": 131999.9339999999,
      "d": 399.9997999999905,
      "v": 45
    },
    {
      "midi": 67,
      "hit": false,
      "t": 132705.81599999988,
      "d": 41.17644999999902,
      "v": 66
    },
    {
      "midi": 64,
      "hit": false,
      "t": 132705.81599999988,
      "d": 1958.8225499999826,
      "v": 64
    },
    {
      "midi": 48,
      "hit": false,
      "t": 132705.81599999988,
      "d": 2823.527999999962,
      "v": 53
    },
    {
      "midi": 60,
      "hit": false,
      "t": 132705.81599999988,
      "d": 2823.527999999962,
      "v": 52
    },
    {
      "midi": 55,
      "hit": false,
      "t": 134470.52099999986,
      "d": 1058.8229999999749,
      "v": 66
    },
    {
      "midi": 64,
      "hit": false,
      "t": 134823.46199999985,
      "d": 705.8819999999832,
      "v": 58
    },
    {
      "midi": 67,
      "hit": false,
      "t": 135176.40299999985,
      "d": 347.05864999999176,
      "v": 82
    },
    {
      "midi": 43,
      "hit": false,
      "t": 135529.34399999984,
      "d": 1411.7639999999956,
      "v": 55
    },
    {
      "midi": 60,
      "hit": false,
      "t": 135529.34399999984,
      "d": 1411.7639999999956,
      "v": 47
    },
    {
      "midi": 62,
      "hit": false,
      "t": 135529.34399999984,
      "d": 1411.7639999999956,
      "v": 60
    },
    {
      "midi": 65,
      "hit": false,
      "t": 135529.34399999984,
      "d": 1411.7639999999956,
      "v": 53
    },
    {
      "midi": 69,
      "hit": false,
      "t": 135529.34399999984,
      "d": 1411.7639999999956,
      "v": 52
    },
    {
      "midi": 59,
      "hit": false,
      "t": 136941.10799999983,
      "d": 535.2938499999873,
      "v": 52
    },
    {
      "midi": 62,
      "hit": false,
      "t": 136941.10799999983,
      "d": 717.646699999983,
      "v": 59
    },
    {
      "midi": 43,
      "hit": false,
      "t": 136941.10799999983,
      "d": 1411.7639999999665,
      "v": 72
    },
    {
      "midi": 55,
      "hit": false,
      "t": 137294.04899999982,
      "d": 1058.8229999999749,
      "v": 57
    },
    {
      "midi": 59,
      "hit": false,
      "t": 137646.98999999982,
      "d": 699.9996499999834,
      "v": 55
    },
    {
      "midi": 65,
      "hit": false,
      "t": 137999.9309999998,
      "d": 317.64689999999246,
      "v": 62
    },
    {
      "midi": 60,
      "hit": false,
      "t": 138352.8719999998,
      "d": 535.2938499999873,
      "v": 52
    },
    {
      "midi": 64,
      "hit": false,
      "t": 138352.8719999998,
      "d": 717.646699999983,
      "v": 59
    },
    {
      "midi": 48,
      "hit": false,
      "t": 138352.8719999998,
      "d": 1411.7639999999665,
      "v": 72
    },
    {
      "midi": 55,
      "hit": false,
      "t": 138705.8129999998,
      "d": 1058.8229999999749,
      "v": 57
    },
    {
      "midi": 60,
      "hit": false,
      "t": 139058.75399999978,
      "d": 699.9996499999834,
      "v": 55
    },
    {
      "midi": 67,
      "hit": false,
      "t": 139411.69499999977,
      "d": 317.64689999999246,
      "v": 62
    },
    {
      "midi": 57,
      "hit": false,
      "t": 139764.63599999977,
      "d": 535.2938499999873,
      "v": 52
    },
    {
      "midi": 60,
      "hit": false,
      "t": 139764.63599999977,
      "d": 717.646699999983,
      "v": 59
    },
    {
      "midi": 45,
      "hit": false,
      "t": 139764.63599999977,
      "d": 1411.7639999999665,
      "v": 72
    },
    {
      "midi": 52,
      "hit": false,
      "t": 140117.57699999976,
      "d": 1058.8229999999749,
      "v": 57
    },
    {
      "midi": 57,
      "hit": false,
      "t": 140470.51799999975,
      "d": 699.9996499999834,
      "v": 55
    },
    {
      "midi": 64,
      "hit": false,
      "t": 140823.45899999974,
      "d": 317.64689999999246,
      "v": 62
    },
    {
      "midi": 60,
      "hit": false,
      "t": 141176.39999999973,
      "d": 1035.2936000000045,
      "v": 47
    },
    {
      "midi": 65,
      "hit": false,
      "t": 141176.39999999973,
      "d": 1405.8816499999957,
      "v": 56
    },
    {
      "midi": 41,
      "hit": false,
      "t": 141176.39999999973,
      "d": 1411.7639999999956,
      "v": 57
    },
    {
      "midi": 69,
      "hit": false,
      "t": 141176.39999999973,
      "d": 1411.7639999999956,
      "v": 37
    },
    {
      "midi": 57,
      "hit": false,
      "t": 141882.28199999974,
      "d": 623.5290999999852,
      "v": 32
    },
    {
      "midi": 60,
      "hit": false,
      "t": 142235.22299999974,
      "d": 347.05864999999176,
      "v": 49
    },
    {
      "midi": 43,
      "hit": false,
      "t": 142588.16399999973,
      "d": 1411.7639999999956,
      "v": 55
    },
    {
      "midi": 59,
      "hit": false,
      "t": 142588.16399999973,
      "d": 1411.7639999999956,
      "v": 47
    },
    {
      "midi": 62,
      "hit": false,
      "t": 142588.16399999973,
      "d": 1411.7639999999956,
      "v": 60
    },
    {
      "midi": 65,
      "hit": false,
      "t": 142588.16399999973,
      "d": 1411.7639999999956,
      "v": 53
    },
    {
      "midi": 67,
      "hit": false,
      "t": 142588.16399999973,
      "d": 1411.7639999999956,
      "v": 52
    },
    {
      "midi": 48,
      "hit": false,
      "t": 143999.92799999972,
      "d": 1411.7639999999956,
      "v": 55
    },
    {
      "midi": 55,
      "hit": false,
      "t": 143999.92799999972,
      "d": 1411.7639999999956,
      "v": 47
    },
    {
      "midi": 60,
      "hit": false,
      "t": 143999.92799999972,
      "d": 1411.7639999999956,
      "v": 60
    },
    {
      "midi": 64,
      "hit": false,
      "t": 143999.92799999972,
      "d": 1411.7639999999956,
      "v": 53
    },
    {
      "midi": 67,
      "hit": false,
      "t": 143999.92799999972,
      "d": 1411.7639999999956,
      "v": 52
    },
    {
      "midi": 45,
      "hit": false,
      "t": 145411.69199999972,
      "d": 1411.7639999999956,
      "v": 55
    },
    {
      "midi": 52,
      "hit": false,
      "t": 145411.69199999972,
      "d": 1411.7639999999956,
      "v": 47
    },
    {
      "midi": 57,
      "hit": false,
      "t": 145411.69199999972,
      "d": 1411.7639999999956,
      "v": 60
    },
    {
      "midi": 60,
      "hit": false,
      "t": 145411.69199999972,
      "d": 1411.7639999999956,
      "v": 53
    },
    {
      "midi": 64,
      "hit": false,
      "t": 145411.69199999972,
      "d": 1411.7639999999956,
      "v": 52
    },
    {
      "midi": 69,
      "hit": false,
      "t": 146823.4559999997,
      "d": 1194.1170500000007,
      "v": 51
    },
    {
      "midi": 60,
      "hit": false,
      "t": 146823.4559999997,
      "d": 1211.7641000000003,
      "v": 51
    },
    {
      "midi": 41,
      "hit": false,
      "t": 146823.4559999997,
      "d": 2823.527999999991,
      "v": 52
    },
    {
      "midi": 57,
      "hit": false,
      "t": 147882.27899999972,
      "d": 1764.7049999999872,
      "v": 46
    },
    {
      "midi": 60,
      "hit": false,
      "t": 148235.2199999997,
      "d": 1411.7639999999956,
      "v": 43
    },
    {
      "midi": 69,
      "hit": false,
      "t": 148235.2199999997,
      "d": 1411.7639999999956,
      "v": 51
    },
    {
      "midi": 60,
      "hit": false,
      "t": 149646.9839999997,
      "d": 535.2938499999873,
      "v": 52
    },
    {
      "midi": 64,
      "hit": false,
      "t": 149646.9839999997,
      "d": 717.646699999983,
      "v": 59
    },
    {
      "midi": 48,
      "hit": false,
      "t": 149646.9839999997,
      "d": 1411.7639999999665,
      "v": 72
    },
    {
      "midi": 55,
      "hit": false,
      "t": 149999.9249999997,
      "d": 1058.8229999999749,
      "v": 57
    },
    {
      "midi": 60,
      "hit": false,
      "t": 150352.8659999997,
      "d": 699.9996499999834,
      "v": 55
    },
    {
      "midi": 67,
      "hit": false,
      "t": 150705.80699999968,
      "d": 317.64689999999246,
      "v": 62
    },
    {
      "midi": 45,
      "hit": false,
      "t": 151058.74799999967,
      "d": 1411.7639999999956,
      "v": 55
    },
    {
      "midi": 52,
      "hit": false,
      "t": 151058.74799999967,
      "d": 1411.7639999999956,
      "v": 47
    },
    {
      "midi": 57,
      "hit": false,
      "t": 151058.74799999967,
      "d": 1411.7639999999956,
      "v": 60
    },
    {
      "midi": 60,
      "hit": false,
      "t": 151058.74799999967,
      "d": 1411.7639999999956,
      "v": 53
    },
    {
      "midi": 64,
      "hit": false,
      "t": 151058.74799999967,
      "d": 1411.7639999999956,
      "v": 52
    },
    {
      "midi": 41,
      "hit": false,
      "t": 152470.51199999967,
      "d": 1411.7639999999956,
      "v": 55
    },
    {
      "midi": 57,
      "hit": false,
      "t": 152470.51199999967,
      "d": 1411.7639999999956,
      "v": 47
    },
    {
      "midi": 60,
      "hit": false,
      "t": 152470.51199999967,
      "d": 1411.7639999999956,
      "v": 60
    },
    {
      "midi": 65,
      "hit": false,
      "t": 152470.51199999967,
      "d": 1411.7639999999956,
      "v": 53
    },
    {
      "midi": 69,
      "hit": false,
      "t": 152470.51199999967,
      "d": 1411.7639999999956,
      "v": 52
    },
    {
      "midi": 59,
      "hit": false,
      "t": 153882.27599999966,
      "d": 535.2938499999873,
      "v": 52
    },
    {
      "midi": 62,
      "hit": false,
      "t": 153882.27599999966,
      "d": 717.646699999983,
      "v": 59
    },
    {
      "midi": 43,
      "hit": false,
      "t": 153882.27599999966,
      "d": 1411.7639999999665,
      "v": 72
    },
    {
      "midi": 55,
      "hit": false,
      "t": 154235.21699999965,
      "d": 1058.8229999999749,
      "v": 57
    },
    {
      "midi": 59,
      "hit": false,
      "t": 154588.15799999965,
      "d": 699.9996499999834,
      "v": 55
    },
    {
      "midi": 65,
      "hit": false,
      "t": 154941.09899999964,
      "d": 317.64689999999246,
      "v": 62
    },
    {
      "midi": 60,
      "hit": false,
      "t": 155294.03999999963,
      "d": 535.2938499999873,
      "v": 52
    },
    {
      "midi": 64,
      "hit": false,
      "t": 155294.03999999963,
      "d": 717.646699999983,
      "v": 59
    },
    {
      "midi": 48,
      "hit": false,
      "t": 155294.03999999963,
      "d": 1411.7639999999665,
      "v": 72
    },
    {
      "midi": 55,
      "hit": false,
      "t": 155646.98099999962,
      "d": 1058.8229999999749,
      "v": 57
    },
    {
      "midi": 60,
      "hit": false,
      "t": 155999.9219999996,
      "d": 699.9996499999834,
      "v": 55
    },
    {
      "midi": 67,
      "hit": false,
      "t": 156352.8629999996,
      "d": 317.64689999999246,
      "v": 62
    },
    {
      "midi": 45,
      "hit": false,
      "t": 156705.8039999996,
      "d": 1411.7639999999956,
      "v": 55
    },
    {
      "midi": 52,
      "hit": false,
      "t": 156705.8039999996,
      "d": 1411.7639999999956,
      "v": 47
    },
    {
      "midi": 57,
      "hit": false,
      "t": 156705.8039999996,
      "d": 1411.7639999999956,
      "v": 60
    },
    {
      "midi": 60,
      "hit": false,
      "t": 156705.8039999996,
      "d": 1411.7639999999956,
      "v": 53
    },
    {
      "midi": 64,
      "hit": false,
      "t": 156705.8039999996,
      "d": 1411.7639999999956,
      "v": 52
    },
    {
      "midi": 60,
      "hit": false,
      "t": 158117.5679999996,
      "d": 1035.2936000000045,
      "v": 47
    },
    {
      "midi": 65,
      "hit": false,
      "t": 158117.5679999996,
      "d": 1405.8816499999957,
      "v": 56
    },
    {
      "midi": 41,
      "hit": false,
      "t": 158117.5679999996,
      "d": 1411.7639999999956,
      "v": 57
    },
    {
      "midi": 69,
      "hit": false,
      "t": 158117.5679999996,
      "d": 1411.7639999999956,
      "v": 37
    },
    {
      "midi": 57,
      "hit": false,
      "t": 158823.4499999996,
      "d": 623.5290999999852,
      "v": 32
    },
    {
      "midi": 60,
      "hit": false,
      "t": 159176.3909999996,
      "d": 347.05864999999176,
      "v": 49
    },
    {
      "midi": 62,
      "hit": false,
      "t": 159529.3319999996,
      "d": 535.2938499999873,
      "v": 52
    },
    {
      "midi": 67,
      "hit": false,
      "t": 159529.3319999996,
      "d": 717.646699999983,
      "v": 59
    },
    {
      "midi": 43,
      "hit": false,
      "t": 159529.3319999996,
      "d": 1411.7639999999665,
      "v": 72
    },
    {
      "midi": 59,
      "hit": false,
      "t": 159882.27299999958,
      "d": 1058.8229999999749,
      "v": 57
    },
    {
      "midi": 62,
      "hit": false,
      "t": 160235.21399999957,
      "d": 699.9996499999834,
      "v": 55
    },
    {
      "midi": 71,
      "hit": false,
      "t": 160588.15499999956,
      "d": 317.64689999999246,
      "v": 62
    },
    {
      "midi": 64,
      "hit": false,
      "t": 160941.09599999955,
      "d": 41.17644999999902,
      "v": 66
    },
    {
      "midi": 60,
      "hit": false,
      "t": 160941.09599999955,
      "d": 1958.8225499999826,
      "v": 64
    },
    {
      "midi": 45,
      "hit": false,
      "t": 160941.09599999955,
      "d": 2823.527999999962,
      "v": 53
    },
    {
      "midi": 57,
      "hit": false,
      "t": 160941.09599999955,
      "d": 2823.527999999962,
      "v": 52
    },
    {
      "midi": 52,
      "hit": false,
      "t": 162705.80099999954,
      "d": 1058.8229999999749,
      "v": 66
    },
    {
      "midi": 60,
      "hit": false,
      "t": 163058.74199999953,
      "d": 705.8819999999832,
      "v": 58
    },
    {
      "midi": 64,
      "hit": false,
      "t": 163411.68299999952,
      "d": 347.05864999999176,
      "v": 82
    },
    {
      "midi": 59,
      "hit": false,
      "t": 163764.62399999952,
      "d": 1829.4108499999857,
      "v": 55
    },
    {
      "midi": 64,
      "hit": false,
      "t": 163764.62399999952,
      "d": 1941.175499999983,
      "v": 78
    },
    {
      "midi": 67,
      "hit": false,
      "t": 163764.62399999952,
      "d": 1941.175499999983,
      "v": 54
    },
    {
      "midi": 40,
      "hit": false,
      "t": 163764.62399999952,
      "d": 2823.527999999962,
      "v": 72
    },
    {
      "midi": 55,
      "hit": false,
      "t": 165529.3289999995,
      "d": 1011.764199999976,
      "v": 63
    },
    {
      "midi": 59,
      "hit": false,
      "t": 165723.4465499995,
      "d": 794.1172499999811,
      "v": 53
    },
    {
      "midi": 64,
      "hit": false,
      "t": 165882.2699999995,
      "d": 594.1173499999859,
      "v": 59
    },
    {
      "midi": 67,
      "hit": false,
      "t": 166058.7404999995,
      "d": 382.3527499999909,
      "v": 58
    },
    {
      "midi": 60,
      "hit": false,
      "t": 166588.15199999948,
      "d": 582.3526499999862,
      "v": 45
    },
    {
      "midi": 65,
      "hit": false,
      "t": 166588.15199999948,
      "d": 735.2937499999825,
      "v": 55
    },
    {
      "midi": 69,
      "hit": false,
      "t": 166588.15199999948,
      "d": 1011.764199999976,
      "v": 58
    },
    {
      "midi": 41,
      "hit": false,
      "t": 166588.15199999948,
      "d": 2776.469199999934,
      "v": 63
    },
    {
      "midi": 57,
      "hit": false,
      "t": 166941.09299999947,
      "d": 1147.0582499999728,
      "v": 57
    },
    {
      "midi": 60,
      "hit": false,
      "t": 167323.44574999946,
      "d": 1294.1169999999693,
      "v": 55
    },
    {
      "midi": 65,
      "hit": false,
      "t": 167646.97499999945,
      "d": 729.4113999999827,
      "v": 41
    },
    {
      "midi": 69,
      "hit": false,
      "t": 167999.91599999944,
      "d": 488.2350499999884,
      "v": 56
    },
    {
      "midi": 57,
      "hit": false,
      "t": 168352.85699999944,
      "d": 647.0584999999846,
      "v": 52
    },
    {
      "midi": 60,
      "hit": false,
      "t": 168705.79799999943,
      "d": 399.9997999999905,
      "v": 10
    },
    {
      "midi": 69,
      "hit": false,
      "t": 168705.79799999943,
      "d": 399.9997999999905,
      "v": 45
    },
    {
      "midi": 59,
      "hit": false,
      "t": 169411.6799999994,
      "d": 1035.2936000000045,
      "v": 47
    },
    {
      "midi": 64,
      "hit": false,
      "t": 169411.6799999994,
      "d": 1405.8816499999957,
      "v": 56
    },
    {
      "midi": 40,
      "hit": false,
      "t": 169411.6799999994,
      "d": 1411.7639999999956,
      "v": 57
    },
    {
      "midi": 69,
      "hit": false,
      "t": 169411.6799999994,
      "d": 1411.7639999999956,
      "v": 37
    },
    {
      "midi": 57,
      "hit": false,
      "t": 170117.56199999942,
      "d": 623.5290999999852,
      "v": 32
    },
    {
      "midi": 59,
      "hit": false,
      "t": 170470.50299999941,
      "d": 347.05864999999176,
      "v": 49
    },
    {
      "midi": 40,
      "hit": false,
      "t": 170823.4439999994,
      "d": 1411.7639999999956,
      "v": 55
    },
    {
      "midi": 56,
      "hit": false,
      "t": 170823.4439999994,
      "d": 1411.7639999999956,
      "v": 47
    },
    {
      "midi": 59,
      "hit": false,
      "t": 170823.4439999994,
      "d": 1411.7639999999956,
      "v": 60
    },
    {
      "midi": 64,
      "hit": false,
      "t": 170823.4439999994,
      "d": 1411.7639999999956,
      "v": 53
    },
    {
      "midi": 68,
      "hit": false,
      "t": 170823.4439999994,
      "d": 1411.7639999999956,
      "v": 52
    },
    {
      "midi": 69,
      "hit": false,
      "t": 172235.2079999994,
      "d": 1194.1170500000007,
      "v": 51
    },
    {
      "midi": 60,
      "hit": false,
      "t": 172235.2079999994,
      "d": 1211.7641000000003,
      "v": 51
    },
    {
      "midi": 41,
      "hit": false,
      "t": 172235.2079999994,
      "d": 2823.527999999991,
      "v": 52
    },
    {
      "midi": 57,
      "hit": false,
      "t": 173294.0309999994,
      "d": 1764.7049999999872,
      "v": 46
    },
    {
      "midi": 60,
      "hit": false,
      "t": 173646.9719999994,
      "d": 1411.7639999999956,
      "v": 43
    },
    {
      "midi": 69,
      "hit": false,
      "t": 173646.9719999994,
      "d": 1411.7639999999956,
      "v": 51
    },
    {
      "midi": 41,
      "hit": false,
      "t": 175058.7359999994,
      "d": 1411.7639999999956,
      "v": 55
    },
    {
      "midi": 57,
      "hit": false,
      "t": 175058.7359999994,
      "d": 1411.7639999999956,
      "v": 47
    },
    {
      "midi": 60,
      "hit": false,
      "t": 175058.7359999994,
      "d": 1411.7639999999956,
      "v": 60
    },
    {
      "midi": 65,
      "hit": false,
      "t": 175058.7359999994,
      "d": 1411.7639999999956,
      "v": 53
    },
    {
      "midi": 69,
      "hit": false,
      "t": 175058.7359999994,
      "d": 1411.7639999999956,
      "v": 52
    },
    {
      "midi": 62,
      "hit": false,
      "t": 176470.4999999994,
      "d": 535.2938499999873,
      "v": 52
    },
    {
      "midi": 67,
      "hit": false,
      "t": 176470.4999999994,
      "d": 717.646699999983,
      "v": 59
    },
    {
      "midi": 43,
      "hit": false,
      "t": 176470.4999999994,
      "d": 1411.7639999999665,
      "v": 72
    },
    {
      "midi": 59,
      "hit": false,
      "t": 176823.44099999938,
      "d": 1058.8229999999749,
      "v": 57
    },
    {
      "midi": 62,
      "hit": false,
      "t": 177176.38199999937,
      "d": 699.9996499999834,
      "v": 55
    },
    {
      "midi": 71,
      "hit": false,
      "t": 177529.32299999936,
      "d": 317.64689999999246,
      "v": 62
    },
    {
      "midi": 67,
      "hit": false,
      "t": 177882.26399999936,
      "d": 1447.0580999999947,
      "v": 63
    },
    {
      "midi": 48,
      "hit": false,
      "t": 177882.26399999936,
      "d": 2823.527999999991,
      "v": 46
    },
    {
      "midi": 55,
      "hit": false,
      "t": 177882.26399999936,
      "d": 2823.527999999991,
      "v": 55
    },
    {
      "midi": 60,
      "hit": false,
      "t": 177882.26399999936,
      "d": 2823.527999999991,
      "v": 43
    },
    {
      "midi": 64,
      "hit": false,
      "t": 177882.26399999936,
      "d": 2823.527999999991,
      "v": 53
    },
    {
      "midi": 76,
      "hit": false,
      "t": 179294.02799999935,
      "d": 770.5878500000108,
      "v": 76
    },
    {
      "midi": 67,
      "hit": false,
      "t": 179999.90999999936,
      "d": 670.5878999999841,
      "v": 63
    },
    {
      "midi": 55,
      "hit": false,
      "t": 180705.79199999935,
      "d": 2717.6456999999646,
      "v": 45
    },
    {
      "midi": 60,
      "hit": false,
      "t": 180705.79199999935,
      "d": 2717.6456999999646,
      "v": 45
    },
    {
      "midi": 62,
      "hit": false,
      "t": 182470.49699999933,
      "d": 341.1762999999919,
      "v": 31
    },
    {
      "midi": 64,
      "hit": false,
      "t": 182823.43799999933,
      "d": 599.9996999999858,
      "v": 11
    },
    {
      "midi": 64,
      "hit": false,
      "t": 183529.3199999993,
      "d": 105.88229999999749,
      "v": 58
    },
    {
      "midi": 55,
      "hit": false,
      "t": 183529.3199999993,
      "d": 2770.5868499999924,
      "v": 58
    },
    {
      "midi": 60,
      "hit": false,
      "t": 183529.3199999993,
      "d": 2770.5868499999924,
      "v": 58
    },
    {
      "midi": 36,
      "hit": false,
      "t": 184941.0839999993,
      "d": 1411.7639999999956,
      "v": 23
    }
  ]
}