{
  "jsonPath": "Rock/Danspunk/Wizex/fran-mig-till-dig.json",
  "path": "Rock\\Danspunk\\Wizex\\Från mig till dig.mid",
  "name": "Från mig till dig",
  "difficulty": "Advanced",
  "bpm": 89.9999550000225,
  "notes": [
    {
      "midi": 57,
      "hit": false,
      "t": 3428.5719999999997,
      "d": 642.85725,
      "v": 60
    },
    {
      "midi": 66,
      "hit": false,
      "t": 3442.8577166666664,
      "d": 685.7143999999998,
      "v": 70
    },
    {
      "midi": 50,
      "hit": false,
      "t": 3450.0005749999996,
      "d": 300.0000500000001,
      "v": 52
    },
    {
      "midi": 38,
      "hit": false,
      "t": 3450.0005749999996,
      "d": 3150.000525000001,
      "v": 41
    },
    {
      "midi": 69,
      "hit": false,
      "t": 3457.1434333333327,
      "d": 700.000116666667,
      "v": 59
    },
    {
      "midi": 62,
      "hit": false,
      "t": 3457.1434333333327,
      "d": 714.2858333333334,
      "v": 68
    },
    {
      "midi": 50,
      "hit": false,
      "t": 3871.4292166666664,
      "d": 1121.4287583333326,
      "v": 47
    },
    {
      "midi": 57,
      "hit": false,
      "t": 4307.143574999999,
      "d": 1300.0002166666663,
      "v": 58
    },
    {
      "midi": 66,
      "hit": false,
      "t": 4692.857924999999,
      "d": 950.0001583333333,
      "v": 60
    },
    {
      "midi": 62,
      "hit": false,
      "t": 4707.143641666666,
      "d": 971.4287333333341,
      "v": 54
    },
    {
      "midi": 69,
      "hit": false,
      "t": 4728.572216666666,
      "d": 950.0001583333342,
      "v": 57
    },
    {
      "midi": 50,
      "hit": false,
      "t": 5564.286641666666,
      "d": 1057.1430333333346,
      "v": 87
    },
    {
      "midi": 57,
      "hit": false,
      "t": 5778.572391666667,
      "d": 878.5715749999999,
      "v": 78
    },
    {
      "midi": 62,
      "hit": false,
      "t": 6000.001,
      "d": 657.1429666666663,
      "v": 61
    },
    {
      "midi": 66,
      "hit": false,
      "t": 6214.28675,
      "d": 392.8572083333338,
      "v": 70
    },
    {
      "midi": 69,
      "hit": false,
      "t": 6450.001075,
      "d": 207.1428916666664,
      "v": 80
    },
    {
      "midi": 57,
      "hit": false,
      "t": 6878.572574999999,
      "d": 435.7143583333336,
      "v": 68
    },
    {
      "midi": 45,
      "hit": false,
      "t": 6878.572574999999,
      "d": 1442.8573833333348,
      "v": 66
    },
    {
      "midi": 67,
      "hit": false,
      "t": 6885.715433333333,
      "d": 421.4286416666664,
      "v": 52
    },
    {
      "midi": 64,
      "hit": false,
      "t": 6885.715433333333,
      "d": 435.7143583333336,
      "v": 56
    },
    {
      "midi": 60,
      "hit": false,
      "t": 6892.858291666666,
      "d": 400.0000666666665,
      "v": 62
    },
    {
      "midi": 52,
      "hit": false,
      "t": 7342.858366666666,
      "d": 985.7144500000004,
      "v": 51
    },
    {
      "midi": 64,
      "hit": false,
      "t": 7728.572716666667,
      "d": 578.5715250000003,
      "v": 58
    },
    {
      "midi": 67,
      "hit": false,
      "t": 7735.715575,
      "d": 592.8572416666666,
      "v": 46
    },
    {
      "midi": 60,
      "hit": false,
      "t": 7750.0012916666665,
      "d": 535.7143750000005,
      "v": 62
    },
    {
      "midi": 57,
      "hit": false,
      "t": 7750.0012916666665,
      "d": 557.1429500000004,
      "v": 68
    },
    {
      "midi": 50,
      "hit": false,
      "t": 8571.43,
      "d": 328.571483333335,
      "v": 47
    },
    {
      "midi": 57,
      "hit": false,
      "t": 8571.43,
      "d": 664.2858250000008,
      "v": 57
    },
    {
      "midi": 62,
      "hit": false,
      "t": 8571.43,
      "d": 700.000116666668,
      "v": 68
    },
    {
      "midi": 66,
      "hit": false,
      "t": 8571.43,
      "d": 700.000116666668,
      "v": 55
    },
    {
      "midi": 60,
      "hit": false,
      "t": 8571.43,
      "d": 757.142983333335,
      "v": 58
    },
    {
      "midi": 38,
      "hit": false,
      "t": 8571.43,
      "d": 1278.5716416666692,
      "v": 47
    },
    {
      "midi": 50,
      "hit": false,
      "t": 9042.858650000002,
      "d": 842.8572833333328,
      "v": 61
    },
    {
      "midi": 57,
      "hit": false,
      "t": 9442.85871666667,
      "d": 650.0001083333318,
      "v": 85
    },
    {
      "midi": 60,
      "hit": false,
      "t": 9857.144500000002,
      "d": 264.2857583333316,
      "v": 66
    },
    {
      "midi": 62,
      "hit": false,
      "t": 9857.144500000002,
      "d": 264.2857583333316,
      "v": 74
    },
    {
      "midi": 66,
      "hit": false,
      "t": 9864.287358333335,
      "d": 250.00004166666622,
      "v": 66
    },
    {
      "midi": 55,
      "hit": false,
      "t": 10307.144575,
      "d": 428.5715,
      "v": 68
    },
    {
      "midi": 43,
      "hit": false,
      "t": 10307.144575,
      "d": 1442.857383333334,
      "v": 66
    },
    {
      "midi": 62,
      "hit": false,
      "t": 10314.287433333333,
      "d": 435.71435833333453,
      "v": 56
    },
    {
      "midi": 59,
      "hit": false,
      "t": 10321.430291666666,
      "d": 400.0000666666674,
      "v": 62
    },
    {
      "midi": 50,
      "hit": false,
      "t": 10771.430366666667,
      "d": 985.7144499999995,
      "v": 51
    },
    {
      "midi": 62,
      "hit": false,
      "t": 11157.144716666668,
      "d": 578.5715249999994,
      "v": 58
    },
    {
      "midi": 67,
      "hit": false,
      "t": 11164.287575,
      "d": 571.4286666666667,
      "v": 46
    },
    {
      "midi": 71,
      "hit": false,
      "t": 11178.573291666668,
      "d": 535.7143749999996,
      "v": 62
    },
    {
      "midi": 78,
      "hit": false,
      "t": 12000.002,
      "d": 578.5715249999976,
      "v": 60
    },
    {
      "midi": 71,
      "hit": false,
      "t": 12014.287716666668,
      "d": 435.7143583333309,
      "v": 51
    },
    {
      "midi": 74,
      "hit": false,
      "t": 12014.287716666668,
      "d": 557.1429499999977,
      "v": 66
    },
    {
      "midi": 68,
      "hit": false,
      "t": 12021.430575,
      "d": 250.00004166666622,
      "v": 37
    },
    {
      "midi": 59,
      "hit": false,
      "t": 12021.430575,
      "d": 1042.8573166666629,
      "v": 50
    },
    {
      "midi": 44,
      "hit": false,
      "t": 12028.573433333333,
      "d": 1307.1430749999963,
      "v": 30
    },
    {
      "midi": 68,
      "hit": false,
      "t": 12421.430641666666,
      "d": 842.857283333331,
      "v": 52
    },
    {
      "midi": 71,
      "hit": false,
      "t": 12657.144966666665,
      "d": 778.5715583333313,
      "v": 57
    },
    {
      "midi": 74,
      "hit": false,
      "t": 12871.430716666664,
      "d": 542.8572333333323,
      "v": 76
    },
    {
      "midi": 78,
      "hit": false,
      "t": 13328.573649999997,
      "d": 128.57144999999946,
      "v": 59
    },
    {
      "midi": 57,
      "hit": false,
      "t": 13714.287999999997,
      "d": 642.8572499999991,
      "v": 60
    },
    {
      "midi": 76,
      "hit": false,
      "t": 13728.573716666664,
      "d": 685.7143999999989,
      "v": 70
    },
    {
      "midi": 45,
      "hit": false,
      "t": 13735.716574999997,
      "d": 300.00004999999874,
      "v": 41
    },
    {
      "midi": 67,
      "hit": false,
      "t": 13742.85943333333,
      "d": 700.0001166666661,
      "v": 59
    },
    {
      "midi": 73,
      "hit": false,
      "t": 13742.85943333333,
      "d": 714.2858333333334,
      "v": 68
    },
    {
      "midi": 45,
      "hit": false,
      "t": 14157.145216666662,
      "d": 1121.4287583333353,
      "v": 47
    },
    {
      "midi": 57,
      "hit": false,
      "t": 14592.859574999997,
      "d": 1300.0002166666673,
      "v": 58
    },
    {
      "midi": 64,
      "hit": false,
      "t": 14978.573924999997,
      "d": 950.0001583333342,
      "v": 60
    },
    {
      "midi": 61,
      "hit": false,
      "t": 14992.859641666664,
      "d": 971.4287333333341,
      "v": 54
    },
    {
      "midi": 67,
      "hit": false,
      "t": 15014.288216666664,
      "d": 950.0001583333342,
      "v": 57
    },
    {
      "midi": 45,
      "hit": false,
      "t": 15850.002641666664,
      "d": 1035.7144583333375,
      "v": 87
    },
    {
      "midi": 57,
      "hit": false,
      "t": 16064.288391666665,
      "d": 878.5715750000018,
      "v": 78
    },
    {
      "midi": 61,
      "hit": false,
      "t": 16285.716999999999,
      "d": 657.1429666666681,
      "v": 61
    },
    {
      "midi": 64,
      "hit": false,
      "t": 16500.00275,
      "d": 392.8572083333347,
      "v": 70
    },
    {
      "midi": 67,
      "hit": false,
      "t": 16735.717075,
      "d": 207.1428916666664,
      "v": 80
    },
    {
      "midi": 57,
      "hit": false,
      "t": 17185.71715,
      "d": 1500.000250000001,
      "v": 61
    },
    {
      "midi": 50,
      "hit": false,
      "t": 17185.71715,
      "d": 2992.8576416666656,
      "v": 46
    },
    {
      "midi": 62,
      "hit": false,
      "t": 17192.860008333333,
      "d": 971.4287333333341,
      "v": 37
    },
    {
      "midi": 66,
      "hit": false,
      "t": 17192.860008333333,
      "d": 1392.8573750000032,
      "v": 43
    },
    {
      "midi": 62,
      "hit": false,
      "t": 18435.717358333335,
      "d": 1721.4288583333291,
      "v": 60
    },
    {
      "midi": 66,
      "hit": false,
      "t": 19278.574641666666,
      "d": 800.0001333333312,
      "v": 41
    },
    {
      "midi": 69,
      "hit": false,
      "t": 19692.860425,
      "d": 378.5714916666657,
      "v": 59
    },
    {
      "midi": 45,
      "hit": false,
      "t": 20592.860575000002,
      "d": 1671.4288499999966,
      "v": 44
    },
    {
      "midi": 55,
      "hit": false,
      "t": 20607.146291666668,
      "d": 642.8572500000009,
      "v": 37
    },
    {
      "midi": 69,
      "hit": false,
      "t": 20614.28915,
      "d": 692.8572583333334,
      "v": 53
    },
    {
      "midi": 64,
      "hit": false,
      "t": 20614.28915,
      "d": 714.2858333333352,
      "v": 42
    },
    {
      "midi": 61,
      "hit": false,
      "t": 20621.432008333333,
      "d": 678.571541666668,
      "v": 49
    },
    {
      "midi": 55,
      "hit": false,
      "t": 21464.289291666668,
      "d": 1178.5716250000005,
      "v": 52
    },
    {
      "midi": 57,
      "hit": false,
      "t": 21850.003641666666,
      "d": 728.5715500000006,
      "v": 55
    },
    {
      "midi": 45,
      "hit": false,
      "t": 22707.14664166667,
      "d": 592.8572416666648,
      "v": 87
    },
    {
      "midi": 55,
      "hit": false,
      "t": 23121.432425000003,
      "d": 571.428666666663,
      "v": 48
    },
    {
      "midi": 69,
      "hit": false,
      "t": 23121.432425000003,
      "d": 578.5715249999957,
      "v": 72
    },
    {
      "midi": 61,
      "hit": false,
      "t": 23128.575283333335,
      "d": 550.000091666665,
      "v": 59
    },
    {
      "midi": 64,
      "hit": false,
      "t": 23128.575283333335,
      "d": 550.000091666665,
      "v": 50
    },
    {
      "midi": 62,
      "hit": false,
      "t": 24000.003999999997,
      "d": 3221.4291083333337,
      "v": 53
    },
    {
      "midi": 50,
      "hit": false,
      "t": 24000.003999999997,
      "d": 3235.714824999999,
      "v": 53
    },
    {
      "midi": 69,
      "hit": false,
      "t": 24000.003999999997,
      "d": 3235.714824999999,
      "v": 53
    },
    {
      "midi": 54,
      "hit": false,
      "t": 24000.003999999997,
      "d": 3250.0005416666645,
      "v": 46
    },
    {
      "midi": 43,
      "hit": false,
      "t": 27428.575999999994,
      "d": 1100.0001833333336,
      "v": 37
    },
    {
      "midi": 67,
      "hit": false,
      "t": 27428.575999999994,
      "d": 1207.143058333335,
      "v": 58
    },
    {
      "midi": 62,
      "hit": false,
      "t": 27428.575999999994,
      "d": 1257.1430666666674,
      "v": 47
    },
    {
      "midi": 71,
      "hit": false,
      "t": 27428.575999999994,
      "d": 1278.5716416666692,
      "v": 51
    },
    {
      "midi": 59,
      "hit": false,
      "t": 27428.575999999994,
      "d": 1314.2859333333363,
      "v": 43
    },
    {
      "midi": 43,
      "hit": false,
      "t": 28728.576216666665,
      "d": 664.2858249999954,
      "v": 55
    },
    {
      "midi": 71,
      "hit": false,
      "t": 29128.57628333333,
      "d": 421.4286416666655,
      "v": 60
    },
    {
      "midi": 59,
      "hit": false,
      "t": 29128.57628333333,
      "d": 450.0000749999963,
      "v": 52
    },
    {
      "midi": 62,
      "hit": false,
      "t": 29142.861999999994,
      "d": 421.4286416666655,
      "v": 68
    },
    {
      "midi": 67,
      "hit": false,
      "t": 29150.004858333326,
      "d": 400.0000666666674,
      "v": 60
    },
    {
      "midi": 43,
      "hit": false,
      "t": 29835.719258333324,
      "d": 71.42858333333425,
      "v": 41
    },
    {
      "midi": 71,
      "hit": false,
      "t": 29964.290708333323,
      "d": 364.2857750000003,
      "v": 80
    },
    {
      "midi": 67,
      "hit": false,
      "t": 29971.433566666656,
      "d": 364.2857750000003,
      "v": 82
    },
    {
      "midi": 59,
      "hit": false,
      "t": 29978.57642499999,
      "d": 378.5714916666693,
      "v": 68
    },
    {
      "midi": 62,
      "hit": false,
      "t": 29978.57642499999,
      "d": 378.5714916666693,
      "v": 82
    },
    {
      "midi": 57,
      "hit": false,
      "t": 30857.14799999999,
      "d": 642.8572499999973,
      "v": 60
    },
    {
      "midi": 66,
      "hit": false,
      "t": 30871.433716666656,
      "d": 685.7143999999971,
      "v": 70
    },
    {
      "midi": 50,
      "hit": false,
      "t": 30878.57657499999,
      "d": 300.00004999999874,
      "v": 52
    },
    {
      "midi": 38,
      "hit": false,
      "t": 30878.57657499999,
      "d": 3150.0005249999995,
      "v": 41
    },
    {
      "midi": 69,
      "hit": false,
      "t": 30885.71943333332,
      "d": 700.0001166666661,
      "v": 59
    },
    {
      "midi": 62,
      "hit": false,
      "t": 30885.71943333332,
      "d": 714.2858333333315,
      "v": 68
    },
    {
      "midi": 50,
      "hit": false,
      "t": 31300.005216666654,
      "d": 1121.428758333328,
      "v": 47
    },
    {
      "midi": 57,
      "hit": false,
      "t": 31735.719574999985,
      "d": 1300.000216666671,
      "v": 58
    },
    {
      "midi": 66,
      "hit": false,
      "t": 32121.433924999983,
      "d": 950.000158333336,
      "v": 60
    },
    {
      "midi": 62,
      "hit": false,
      "t": 32135.71964166665,
      "d": 971.4287333333341,
      "v": 54
    },
    {
      "midi": 69,
      "hit": false,
      "t": 32157.14821666665,
      "d": 950.0001583333324,
      "v": 57
    },
    {
      "midi": 50,
      "hit": false,
      "t": 32992.86264166665,
      "d": 1057.1430333333337,
      "v": 87
    },
    {
      "midi": 57,
      "hit": false,
      "t": 33207.14839166665,
      "d": 878.5715750000018,
      "v": 78
    },
    {
      "midi": 62,
      "hit": false,
      "t": 33428.57699999998,
      "d": 657.1429666666663,
      "v": 61
    },
    {
      "midi": 66,
      "hit": false,
      "t": 33642.862749999986,
      "d": 392.8572083333347,
      "v": 70
    },
    {
      "midi": 69,
      "hit": false,
      "t": 33878.57707499999,
      "d": 207.14289166666276,
      "v": 80
    },
    {
      "midi": 69,
      "hit": false,
      "t": 34285.71999999999,
      "d": 578.5715249999921,
      "v": 60
    },
    {
      "midi": 61,
      "hit": false,
      "t": 34300.00571666665,
      "d": 435.7143583333309,
      "v": 51
    },
    {
      "midi": 64,
      "hit": false,
      "t": 34300.00571666665,
      "d": 557.142949999994,
      "v": 66
    },
    {
      "midi": 57,
      "hit": false,
      "t": 34307.148574999985,
      "d": 250.00004166666622,
      "v": 37
    },
    {
      "midi": 49,
      "hit": false,
      "t": 34307.148574999985,
      "d": 1042.857316666661,
      "v": 50
    },
    {
      "midi": 45,
      "hit": false,
      "t": 34314.29143333332,
      "d": 1307.1430749999927,
      "v": 30
    },
    {
      "midi": 57,
      "hit": false,
      "t": 34707.14864166665,
      "d": 842.8572833333237,
      "v": 52
    },
    {
      "midi": 61,
      "hit": false,
      "t": 34942.862966666646,
      "d": 778.5715583333294,
      "v": 57
    },
    {
      "midi": 64,
      "hit": false,
      "t": 35157.14871666665,
      "d": 542.8572333333286,
      "v": 76
    },
    {
      "midi": 69,
      "hit": false,
      "t": 35614.29164999998,
      "d": 128.57144999999582,
      "v": 59
    },
    {
      "midi": 64,
      "hit": false,
      "t": 36057.14886666664,
      "d": 600.0000999999975,
      "v": 74
    },
    {
      "midi": 57,
      "hit": false,
      "t": 36057.14886666664,
      "d": 628.5715333333283,
      "v": 76
    },
    {
      "midi": 49,
      "hit": false,
      "t": 36064.291724999974,
      "d": 642.8572499999937,
      "v": 50
    },
    {
      "midi": 37,
      "hit": false,
      "t": 36064.291724999974,
      "d": 671.4286833333244,
      "v": 53
    },
    {
      "midi": 52,
      "hit": false,
      "t": 36071.43458333331,
      "d": 621.4286749999956,
      "v": 70
    },
    {
      "midi": 66,
      "hit": false,
      "t": 36914.29186666663,
      "d": 600.0000999999975,
      "v": 74
    },
    {
      "midi": 62,
      "hit": false,
      "t": 36914.29186666663,
      "d": 628.5715333333283,
      "v": 76
    },
    {
      "midi": 50,
      "hit": false,
      "t": 36921.43472499996,
      "d": 642.8572499999937,
      "v": 50
    },
    {
      "midi": 38,
      "hit": false,
      "t": 36921.43472499996,
      "d": 671.4286833333244,
      "v": 53
    },
    {
      "midi": 57,
      "hit": false,
      "t": 36928.577583333295,
      "d": 621.4286749999956,
      "v": 70
    },
    {
      "midi": 55,
      "hit": false,
      "t": 37735.72057499995,
      "d": 428.5714999999982,
      "v": 68
    },
    {
      "midi": 43,
      "hit": false,
      "t": 37735.72057499995,
      "d": 1442.8573833333285,
      "v": 66
    },
    {
      "midi": 62,
      "hit": false,
      "t": 37742.86343333328,
      "d": 435.7143583333309,
      "v": 56
    },
    {
      "midi": 59,
      "hit": false,
      "t": 37750.006291666614,
      "d": 400.0000666666674,
      "v": 62
    },
    {
      "midi": 50,
      "hit": false,
      "t": 38200.00636666661,
      "d": 985.7144499999995,
      "v": 51
    },
    {
      "midi": 62,
      "hit": false,
      "t": 38585.72071666661,
      "d": 578.5715249999994,
      "v": 58
    },
    {
      "midi": 55,
      "hit": false,
      "t": 38592.863574999945,
      "d": 571.4286666666667,
      "v": 46
    },
    {
      "midi": 59,
      "hit": false,
      "t": 38607.14929166661,
      "d": 535.7143750000032,
      "v": 62
    },
    {
      "midi": 45,
      "hit": false,
      "t": 39428.57799999994,
      "d": 1650.0002749999912,
      "v": 42
    },
    {
      "midi": 57,
      "hit": false,
      "t": 39442.86371666661,
      "d": 1642.8574166666585,
      "v": 60
    },
    {
      "midi": 61,
      "hit": false,
      "t": 39450.00657499994,
      "d": 1600.0002666666624,
      "v": 56
    },
    {
      "midi": 52,
      "hit": false,
      "t": 39457.149433333274,
      "d": 1607.143124999995,
      "v": 60
    },
    {
      "midi": 55,
      "hit": false,
      "t": 39457.149433333274,
      "d": 1628.5716999999931,
      "v": 60
    },
    {
      "midi": 62,
      "hit": false,
      "t": 41164.292574999934,
      "d": 428.5714999999982,
      "v": 68
    },
    {
      "midi": 50,
      "hit": false,
      "t": 41164.292574999934,
      "d": 1442.8573833333285,
      "v": 66
    },
    {
      "midi": 57,
      "hit": false,
      "t": 41171.43543333327,
      "d": 435.7143583333309,
      "v": 56
    },
    {
      "midi": 54,
      "hit": false,
      "t": 41178.5782916666,
      "d": 400.0000666666674,
      "v": 62
    },
    {
      "midi": 57,
      "hit": false,
      "t": 41628.578366666596,
      "d": 985.7144499999995,
      "v": 51
    },
    {
      "midi": 69,
      "hit": false,
      "t": 42014.2927166666,
      "d": 578.5715249999994,
      "v": 58
    },
    {
      "midi": 62,
      "hit": false,
      "t": 42021.43557499993,
      "d": 571.4286666666667,
      "v": 46
    },
    {
      "midi": 66,
      "hit": false,
      "t": 42035.721291666596,
      "d": 535.7143750000032,
      "v": 62
    },
    {
      "midi": 66,
      "hit": false,
      "t": 42914.29286666659,
      "d": 600.0000999999975,
      "v": 74
    },
    {
      "midi": 62,
      "hit": false,
      "t": 42914.29286666659,
      "d": 628.5715333333283,
      "v": 76
    },
    {
      "midi": 50,
      "hit": false,
      "t": 42921.43572499992,
      "d": 642.8572499999937,
      "v": 50
    },
    {
      "midi": 38,
      "hit": false,
      "t": 42921.43572499992,
      "d": 671.4286833333244,
      "v": 53
    },
    {
      "midi": 57,
      "hit": false,
      "t": 42928.578583333256,
      "d": 621.4286749999956,
      "v": 70
    },
    {
      "midi": 71,
      "hit": false,
      "t": 43771.43586666658,
      "d": 600.0000999999975,
      "v": 74
    },
    {
      "midi": 67,
      "hit": false,
      "t": 43771.43586666658,
      "d": 628.5715333333283,
      "v": 76
    },
    {
      "midi": 43,
      "hit": false,
      "t": 43778.57872499991,
      "d": 642.8572499999937,
      "v": 53
    },
    {
      "midi": 62,
      "hit": false,
      "t": 43785.721583333245,
      "d": 621.4286749999956,
      "v": 70
    },
    {
      "midi": 57,
      "hit": false,
      "t": 44571.43599999991,
      "d": 642.8572499999864,
      "v": 60
    },
    {
      "midi": 66,
      "hit": false,
      "t": 44585.72171666657,
      "d": 685.7143999999898,
      "v": 70
    },
    {
      "midi": 50,
      "hit": false,
      "t": 44592.864574999905,
      "d": 300.0000499999951,
      "v": 52
    },
    {
      "midi": 38,
      "hit": false,
      "t": 44592.864574999905,
      "d": 3150.0005249999886,
      "v": 41
    },
    {
      "midi": 69,
      "hit": false,
      "t": 44600.00743333324,
      "d": 700.0001166666552,
      "v": 59
    },
    {
      "midi": 62,
      "hit": false,
      "t": 44600.00743333324,
      "d": 714.2858333333206,
      "v": 68
    },
    {
      "midi": 50,
      "hit": false,
      "t": 45014.29321666656,
      "d": 1121.428758333328,
      "v": 47
    },
    {
      "midi": 57,
      "hit": false,
      "t": 45450.007574999894,
      "d": 1300.0002166666673,
      "v": 58
    },
    {
      "midi": 66,
      "hit": false,
      "t": 45835.721924999896,
      "d": 950.0001583333287,
      "v": 60
    },
    {
      "midi": 62,
      "hit": false,
      "t": 45850.00764166656,
      "d": 971.4287333333268,
      "v": 54
    },
    {
      "midi": 69,
      "hit": false,
      "t": 45871.43621666656,
      "d": 950.0001583333287,
      "v": 57
    },
    {
      "midi": 50,
      "hit": false,
      "t": 46707.15064166656,
      "d": 1057.1430333333337,
      "v": 87
    },
    {
      "midi": 57,
      "hit": false,
      "t": 46921.43639166655,
      "d": 878.5715750000018,
      "v": 78
    },
    {
      "midi": 62,
      "hit": false,
      "t": 47142.86499999989,
      "d": 657.1429666666663,
      "v": 61
    },
    {
      "midi": 66,
      "hit": false,
      "t": 47357.15074999989,
      "d": 392.8572083333347,
      "v": 70
    },
    {
      "midi": 69,
      "hit": false,
      "t": 47592.86507499989,
      "d": 207.14289166666276,
      "v": 80
    },
    {
      "midi": 57,
      "hit": false,
      "t": 48000.00799999989,
      "d": 642.8572499999864,
      "v": 60
    },
    {
      "midi": 64,
      "hit": false,
      "t": 48014.29371666656,
      "d": 685.7143999999898,
      "v": 70
    },
    {
      "midi": 45,
      "hit": false,
      "t": 48021.43657499989,
      "d": 300.0000499999951,
      "v": 41
    },
    {
      "midi": 67,
      "hit": false,
      "t": 48028.57943333322,
      "d": 700.0001166666552,
      "v": 59
    },
    {
      "midi": 61,
      "hit": false,
      "t": 48028.57943333322,
      "d": 714.2858333333206,
      "v": 68
    },
    {
      "midi": 45,
      "hit": false,
      "t": 48442.86521666655,
      "d": 1121.428758333328,
      "v": 47
    },
    {
      "midi": 57,
      "hit": false,
      "t": 48878.57957499988,
      "d": 1300.0002166666673,
      "v": 58
    },
    {
      "midi": 64,
      "hit": false,
      "t": 49264.29392499988,
      "d": 950.0001583333287,
      "v": 60
    },
    {
      "midi": 61,
      "hit": false,
      "t": 49278.57964166655,
      "d": 971.4287333333268,
      "v": 54
    },
    {
      "midi": 67,
      "hit": false,
      "t": 49300.008216666545,
      "d": 950.0001583333287,
      "v": 57
    },
    {
      "midi": 45,
      "hit": false,
      "t": 50135.72264166654,
      "d": 1035.7144583333356,
      "v": 87
    },
    {
      "midi": 57,
      "hit": false,
      "t": 50350.00839166654,
      "d": 878.571575000009,
      "v": 78
    },
    {
      "midi": 61,
      "hit": false,
      "t": 50571.436999999874,
      "d": 657.1429666666736,
      "v": 61
    },
    {
      "midi": 64,
      "hit": false,
      "t": 50785.72274999988,
      "d": 392.8572083333347,
      "v": 70
    },
    {
      "midi": 67,
      "hit": false,
      "t": 51021.43707499988,
      "d": 207.14289166667004,
      "v": 80
    },
    {
      "midi": 38,
      "hit": false,
      "t": 51428.57999999988,
      "d": 1650.0002749999912,
      "v": 42
    },
    {
      "midi": 50,
      "hit": false,
      "t": 51442.86571666654,
      "d": 1635.7145583333258,
      "v": 46
    },
    {
      "midi": 62,
      "hit": false,
      "t": 51442.86571666654,
      "d": 1642.8574166666585,
      "v": 60
    },
    {
      "midi": 66,
      "hit": false,
      "t": 51450.008574999876,
      "d": 1600.0002666666624,
      "v": 56
    },
    {
      "midi": 57,
      "hit": false,
      "t": 51457.15143333321,
      "d": 1607.143124999995,
      "v": 60
    },
    {
      "midi": 50,
      "hit": false,
      "t": 53142.86599999987,
      "d": 328.57148333333316,
      "v": 47
    },
    {
      "midi": 57,
      "hit": false,
      "t": 53142.86599999987,
      "d": 664.285824999999,
      "v": 57
    },
    {
      "midi": 62,
      "hit": false,
      "t": 53142.86599999987,
      "d": 700.0001166666625,
      "v": 68
    },
    {
      "midi": 66,
      "hit": false,
      "t": 53142.86599999987,
      "d": 700.0001166666625,
      "v": 55
    },
    {
      "midi": 60,
      "hit": false,
      "t": 53142.86599999987,
      "d": 757.1429833333314,
      "v": 58
    },
    {
      "midi": 38,
      "hit": false,
      "t": 53142.86599999987,
      "d": 1278.571641666662,
      "v": 47
    },
    {
      "midi": 50,
      "hit": false,
      "t": 53614.29464999987,
      "d": 842.8572833333237,
      "v": 61
    },
    {
      "midi": 57,
      "hit": false,
      "t": 54014.29471666653,
      "d": 650.0001083333336,
      "v": 85
    },
    {
      "midi": 60,
      "hit": false,
      "t": 54428.580499999865,
      "d": 264.2857583333316,
      "v": 66
    },
    {
      "midi": 62,
      "hit": false,
      "t": 54428.580499999865,
      "d": 264.2857583333316,
      "v": 74
    },
    {
      "midi": 66,
      "hit": false,
      "t": 54435.7233583332,
      "d": 250.00004166666622,
      "v": 66
    },
    {
      "midi": 43,
      "hit": false,
      "t": 54857.15199999986,
      "d": 1650.0002749999912,
      "v": 42
    },
    {
      "midi": 67,
      "hit": false,
      "t": 54871.43771666653,
      "d": 1642.8574166666585,
      "v": 60
    },
    {
      "midi": 59,
      "hit": false,
      "t": 54878.58057499986,
      "d": 1600.0002666666624,
      "v": 56
    },
    {
      "midi": 62,
      "hit": false,
      "t": 54885.723433333194,
      "d": 1607.143124999995,
      "v": 60
    },
    {
      "midi": 59,
      "hit": false,
      "t": 56628.58086666652,
      "d": 600.0000999999975,
      "v": 74
    },
    {
      "midi": 67,
      "hit": false,
      "t": 56628.58086666652,
      "d": 628.5715333333283,
      "v": 76
    },
    {
      "midi": 43,
      "hit": false,
      "t": 56635.72372499985,
      "d": 642.8572499999937,
      "v": 53
    },
    {
      "midi": 62,
      "hit": false,
      "t": 56642.86658333318,
      "d": 621.4286749999956,
      "v": 70
    },
    {
      "midi": 68,
      "hit": false,
      "t": 57485.723866666514,
      "d": 600.0000999999975,
      "v": 74
    },
    {
      "midi": 65,
      "hit": false,
      "t": 57485.723866666514,
      "d": 628.5715333333283,
      "v": 76
    },
    {
      "midi": 53,
      "hit": false,
      "t": 57492.86672499985,
      "d": 642.8572499999937,
      "v": 50
    },
    {
      "midi": 41,
      "hit": false,
      "t": 57492.86672499985,
      "d": 671.4286833333244,
      "v": 53
    },
    {
      "midi": 59,
      "hit": false,
      "t": 57500.00958333318,
      "d": 621.4286749999956,
      "v": 70
    },
    {
      "midi": 62,
      "hit": false,
      "t": 57500.00958333318,
      "d": 628.5715333333283,
      "v": 59
    },
    {
      "midi": 54,
      "hit": false,
      "t": 58285.723999999835,
      "d": 1600.0002666666696,
      "v": 53
    },
    {
      "midi": 57,
      "hit": false,
      "t": 58914.29553333317,
      "d": 264.2857583333316,
      "v": 53
    },
    {
      "midi": 66,
      "hit": false,
      "t": 59135.724141666506,
      "d": 500.00008333332516,
      "v": 55
    },
    {
      "midi": 69,
      "hit": false,
      "t": 59142.86699999984,
      "d": 485.71436666665977,
      "v": 58
    },
    {
      "midi": 62,
      "hit": false,
      "t": 59164.29557499984,
      "d": 371.42863333332934,
      "v": 46
    },
    {
      "midi": 57,
      "hit": false,
      "t": 59607.1527916665,
      "d": 135.7143083333358,
      "v": 37
    },
    {
      "midi": 35,
      "hit": false,
      "t": 60000.009999999835,
      "d": 1650.0002749999912,
      "v": 42
    },
    {
      "midi": 47,
      "hit": false,
      "t": 60014.2957166665,
      "d": 1635.7145583333258,
      "v": 46
    },
    {
      "midi": 59,
      "hit": false,
      "t": 60014.2957166665,
      "d": 1642.8574166666585,
      "v": 60
    },
    {
      "midi": 62,
      "hit": false,
      "t": 60021.43857499983,
      "d": 1600.0002666666624,
      "v": 56
    },
    {
      "midi": 54,
      "hit": false,
      "t": 60028.581433333165,
      "d": 1607.143124999995,
      "v": 60
    },
    {
      "midi": 45,
      "hit": false,
      "t": 61714.29599999983,
      "d": 1600.0002666666624,
      "v": 53
    },
    {
      "midi": 61,
      "hit": false,
      "t": 62342.86753333316,
      "d": 264.2857583333316,
      "v": 53
    },
    {
      "midi": 69,
      "hit": false,
      "t": 62564.2961416665,
      "d": 500.00008333332516,
      "v": 55
    },
    {
      "midi": 73,
      "hit": false,
      "t": 62571.43899999983,
      "d": 485.71436666665977,
      "v": 58
    },
    {
      "midi": 64,
      "hit": false,
      "t": 62592.86757499983,
      "d": 371.42863333332934,
      "v": 46
    },
    {
      "midi": 61,
      "hit": false,
      "t": 63035.72479166649,
      "d": 135.71430833332852,
      "v": 37
    },
    {
      "midi": 54,
      "hit": false,
      "t": 63428.58199999982,
      "d": 328.57148333333316,
      "v": 47
    },
    {
      "midi": 61,
      "hit": false,
      "t": 63428.58199999982,
      "d": 664.285824999999,
      "v": 57
    },
    {
      "midi": 66,
      "hit": false,
      "t": 63428.58199999982,
      "d": 700.0001166666625,
      "v": 68
    },
    {
      "midi": 70,
      "hit": false,
      "t": 63428.58199999982,
      "d": 700.0001166666625,
      "v": 55
    },
    {
      "midi": 64,
      "hit": false,
      "t": 63428.58199999982,
      "d": 757.1429833333314,
      "v": 58
    },
    {
      "midi": 42,
      "hit": false,
      "t": 63428.58199999982,
      "d": 1278.571641666662,
      "v": 47
    },
    {
      "midi": 54,
      "hit": false,
      "t": 63900.01064999982,
      "d": 842.8572833333237,
      "v": 61
    },
    {
      "midi": 61,
      "hit": false,
      "t": 64300.01071666648,
      "d": 650.0001083333336,
      "v": 85
    },
    {
      "midi": 64,
      "hit": false,
      "t": 64714.296499999815,
      "d": 264.2857583333316,
      "v": 66
    },
    {
      "midi": 66,
      "hit": false,
      "t": 64714.296499999815,
      "d": 264.2857583333316,
      "v": 74
    },
    {
      "midi": 70,
      "hit": false,
      "t": 64721.43935833315,
      "d": 250.00004166666622,
      "v": 66
    },
    {
      "midi": 43,
      "hit": false,
      "t": 65142.86799999981,
      "d": 1650.0002749999985,
      "v": 42
    },
    {
      "midi": 67,
      "hit": false,
      "t": 65157.15371666648,
      "d": 1642.8574166666658,
      "v": 60
    },
    {
      "midi": 71,
      "hit": false,
      "t": 65164.29657499981,
      "d": 1600.0002666666696,
      "v": 56
    },
    {
      "midi": 62,
      "hit": false,
      "t": 65171.439433333144,
      "d": 1607.1431250000023,
      "v": 60
    },
    {
      "midi": 45,
      "hit": false,
      "t": 66857.1539999998,
      "d": 1600.000266666655,
      "v": 53
    },
    {
      "midi": 57,
      "hit": false,
      "t": 67485.72553333314,
      "d": 264.28575833332434,
      "v": 53
    },
    {
      "midi": 64,
      "hit": false,
      "t": 67707.15414166647,
      "d": 500.0000833333179,
      "v": 55
    },
    {
      "midi": 69,
      "hit": false,
      "t": 67714.2969999998,
      "d": 492.8572249999852,
      "v": 58
    },
    {
      "midi": 67,
      "hit": false,
      "t": 67728.58271666647,
      "d": 471.4286499999871,
      "v": 59
    },
    {
      "midi": 61,
      "hit": false,
      "t": 67735.7255749998,
      "d": 371.42863333332934,
      "v": 46
    },
    {
      "midi": 57,
      "hit": false,
      "t": 68178.58279166646,
      "d": 135.7143083333358,
      "v": 37
    },
    {
      "midi": 50,
      "hit": false,
      "t": 68592.8685749998,
      "d": 1671.428849999982,
      "v": 44
    },
    {
      "midi": 62,
      "hit": false,
      "t": 68607.15429166646,
      "d": 642.8572499999864,
      "v": 37
    },
    {
      "midi": 69,
      "hit": false,
      "t": 68614.2971499998,
      "d": 714.2858333333133,
      "v": 42
    },
    {
      "midi": 66,
      "hit": false,
      "t": 68621.44000833313,
      "d": 678.5715416666499,
      "v": 49
    },
    {
      "midi": 38,
      "hit": false,
      "t": 69028.58293333312,
      "d": 2271.4289500000014,
      "v": 37
    },
    {
      "midi": 62,
      "hit": false,
      "t": 69464.29729166644,
      "d": 1114.2859000000026,
      "v": 52
    },
    {
      "midi": 50,
      "hit": false,
      "t": 70707.15464166645,
      "d": 821.4287083333329,
      "v": 87
    },
    {
      "midi": 62,
      "hit": false,
      "t": 71121.44042499979,
      "d": 571.4286666666594,
      "v": 48
    },
    {
      "midi": 54,
      "hit": false,
      "t": 71128.58328333312,
      "d": 550.0000916666613,
      "v": 59
    },
    {
      "midi": 57,
      "hit": false,
      "t": 71128.58328333312,
      "d": 550.0000916666613,
      "v": 50
    },
    {
      "midi": 50,
      "hit": false,
      "t": 72021.44057499978,
      "d": 1671.428849999982,
      "v": 44
    },
    {
      "midi": 62,
      "hit": false,
      "t": 72035.72629166645,
      "d": 642.8572499999864,
      "v": 37
    },
    {
      "midi": 69,
      "hit": false,
      "t": 72042.86914999978,
      "d": 714.2858333333133,
      "v": 42
    },
    {
      "midi": 66,
      "hit": false,
      "t": 72050.01200833311,
      "d": 678.5715416666499,
      "v": 49
    },
    {
      "midi": 38,
      "hit": false,
      "t": 72457.1549333331,
      "d": 2271.4289500000014,
      "v": 37
    },
    {
      "midi": 62,
      "hit": false,
      "t": 72892.86929166643,
      "d": 1114.2859000000026,
      "v": 52
    },
    {
      "midi": 50,
      "hit": false,
      "t": 74135.72664166644,
      "d": 821.4287083333329,
      "v": 87
    },
    {
      "midi": 62,
      "hit": false,
      "t": 74550.01242499978,
      "d": 571.4286666666594,
      "v": 48
    },
    {
      "midi": 57,
      "hit": false,
      "t": 74557.15528333311,
      "d": 550.0000916666613,
      "v": 50
    },
    {
      "midi": 66,
      "hit": false,
      "t": 74557.15528333311,
      "d": 550.0000916666613,
      "v": 59
    },
    {
      "midi": 45,
      "hit": false,
      "t": 75428.58399999977,
      "d": 328.57148333333316,
      "v": 47
    },
    {
      "midi": 64,
      "hit": false,
      "t": 75428.58399999977,
      "d": 664.285824999999,
      "v": 57
    },
    {
      "midi": 57,
      "hit": false,
      "t": 75428.58399999977,
      "d": 700.0001166666625,
      "v": 68
    },
    {
      "midi": 60,
      "hit": false,
      "t": 75428.58399999977,
      "d": 700.0001166666625,
      "v": 55
    },
    {
      "midi": 67,
      "hit": false,
      "t": 75428.58399999977,
      "d": 757.1429833333241,
      "v": 58
    },
    {
      "midi": 45,
      "hit": false,
      "t": 75900.01264999977,
      "d": 807.142991666653,
      "v": 61
    },
    {
      "midi": 64,
      "hit": false,
      "t": 76300.01271666643,
      "d": 650.0001083333336,
      "v": 85
    },
    {
      "midi": 57,
      "hit": false,
      "t": 76714.29849999976,
      "d": 264.2857583333389,
      "v": 74
    },
    {
      "midi": 67,
      "hit": false,
      "t": 76714.29849999976,
      "d": 264.2857583333389,
      "v": 66
    },
    {
      "midi": 60,
      "hit": false,
      "t": 76721.44135833309,
      "d": 250.0000416666735,
      "v": 66
    },
    {
      "midi": 38,
      "hit": false,
      "t": 77142.86999999976,
      "d": 1650.0002749999985,
      "v": 42
    },
    {
      "midi": 50,
      "hit": false,
      "t": 77157.15571666643,
      "d": 1635.7145583333331,
      "v": 46
    },
    {
      "midi": 62,
      "hit": false,
      "t": 77157.15571666643,
      "d": 1642.8574166666658,
      "v": 60
    },
    {
      "midi": 66,
      "hit": false,
      "t": 77164.29857499976,
      "d": 1600.0002666666696,
      "v": 56
    },
    {
      "midi": 57,
      "hit": false,
      "t": 77171.4414333331,
      "d": 1607.1431250000023,
      "v": 60
    },
    {
      "midi": 60,
      "hit": false,
      "t": 77171.4414333331,
      "d": 1628.5717000000004,
      "v": 60
    },
    {
      "midi": 55,
      "hit": false,
      "t": 78878.58457499975,
      "d": 428.5714999999909,
      "v": 68
    },
    {
      "midi": 43,
      "hit": false,
      "t": 78878.58457499975,
      "d": 1442.8573833333066,
      "v": 66
    },
    {
      "midi": 62,
      "hit": false,
      "t": 78885.72743333309,
      "d": 435.7143583333236,
      "v": 56
    },
    {
      "midi": 59,
      "hit": false,
      "t": 78892.87029166642,
      "d": 400.00006666666013,
      "v": 62
    },
    {
      "midi": 50,
      "hit": false,
      "t": 79342.87036666641,
      "d": 985.7144499999849,
      "v": 51
    },
    {
      "midi": 62,
      "hit": false,
      "t": 79728.5847166664,
      "d": 578.5715249999921,
      "v": 58
    },
    {
      "midi": 55,
      "hit": false,
      "t": 79735.72757499974,
      "d": 571.4286666666594,
      "v": 46
    },
    {
      "midi": 59,
      "hit": false,
      "t": 79750.0132916664,
      "d": 535.7143749999959,
      "v": 62
    },
    {
      "midi": 78,
      "hit": false,
      "t": 80571.44199999972,
      "d": 578.5715249999921,
      "v": 60
    },
    {
      "midi": 71,
      "hit": false,
      "t": 80585.72771666638,
      "d": 435.7143583333236,
      "v": 51
    },
    {
      "midi": 74,
      "hit": false,
      "t": 80585.72771666638,
      "d": 557.142949999994,
      "v": 66
    },
    {
      "midi": 68,
      "hit": false,
      "t": 80592.87057499972,
      "d": 250.00004166665894,
      "v": 37
    },
    {
      "midi": 59,
      "hit": false,
      "t": 80592.87057499972,
      "d": 1042.8573166666465,
      "v": 50
    },
    {
      "midi": 44,
      "hit": false,
      "t": 80600.01343333305,
      "d": 1307.1430749999708,
      "v": 30
    },
    {
      "midi": 68,
      "hit": false,
      "t": 80992.87064166638,
      "d": 842.8572833333164,
      "v": 52
    },
    {
      "midi": 71,
      "hit": false,
      "t": 81228.58496666637,
      "d": 778.5715583333076,
      "v": 57
    },
    {
      "midi": 74,
      "hit": false,
      "t": 81442.87071666637,
      "d": 542.8572333333141,
      "v": 76
    },
    {
      "midi": 78,
      "hit": false,
      "t": 81900.01364999969,
      "d": 128.57144999998854,
      "v": 59
    },
    {
      "midi": 67,
      "hit": false,
      "t": 82321.44229166635,
      "d": 1542.857400000008,
      "v": 48
    },
    {
      "midi": 76,
      "hit": false,
      "t": 82328.58514999968,
      "d": 1500.0002500000119,
      "v": 61
    },
    {
      "midi": 45,
      "hit": false,
      "t": 82328.58514999968,
      "d": 2992.8576416666474,
      "v": 46
    },
    {
      "midi": 57,
      "hit": false,
      "t": 82335.72800833301,
      "d": 971.4287333333341,
      "v": 37
    },
    {
      "midi": 73,
      "hit": false,
      "t": 82335.72800833301,
      "d": 1392.8573750000069,
      "v": 43
    },
    {
      "midi": 55,
      "hit": false,
      "t": 83578.58535833302,
      "d": 1721.428858333311,
      "v": 60
    },
    {
      "midi": 61,
      "hit": false,
      "t": 84421.44264166635,
      "d": 800.0001333333203,
      "v": 41
    },
    {
      "midi": 69,
      "hit": false,
      "t": 84828.58556666634,
      "d": 371.42863333332934,
      "v": 85
    },
    {
      "midi": 64,
      "hit": false,
      "t": 84835.72842499967,
      "d": 378.57149166666204,
      "v": 59
    },
    {
      "midi": 62,
      "hit": false,
      "t": 85714.29999999967,
      "d": 278.57147499998973,
      "v": 39
    },
    {
      "midi": 66,
      "hit": false,
      "t": 85714.29999999967,
      "d": 492.8572249999852,
      "v": 47
    },
    {
      "midi": 69,
      "hit": false,
      "t": 85714.29999999967,
      "d": 550.0000916666468,
      "v": 62
    },
    {
      "midi": 74,
      "hit": false,
      "t": 85721.442858333,
      "d": 557.1429499999795,
      "v": 58
    },
    {
      "midi": 54,
      "hit": false,
      "t": 85728.58571666633,
      "d": 2764.2861749999865,
      "v": 52
    },
    {
      "midi": 50,
      "hit": false,
      "t": 85757.15714999966,
      "d": 2992.8576416666474,
      "v": 50
    },
    {
      "midi": 62,
      "hit": false,
      "t": 86157.15721666632,
      "d": 1021.428741666663,
      "v": 26
    },
    {
      "midi": 66,
      "hit": false,
      "t": 86571.44299999965,
      "d": 357.14291666666395,
      "v": 47
    },
    {
      "midi": 69,
      "hit": false,
      "t": 87035.72879166632,
      "d": 150.0000250000012,
      "v": 25
    },
    {
      "midi": 74,
      "hit": false,
      "t": 87414.30028333298,
      "d": 121.4285916666704,
      "v": 54
    },
    {
      "midi": 78,
      "hit": false,
      "t": 87878.58607499965,
      "d": 385.7143500000093,
      "v": 60
    },
    {
      "midi": 62,
      "hit": false,
      "t": 88178.58612499965,
      "d": 228.5714666666754,
      "v": 44
    },
    {
      "midi": 81,
      "hit": false,
      "t": 88278.58614166632,
      "d": 171.42859999999928,
      "v": 85
    },
    {
      "midi": 78,
      "hit": false,
      "t": 88485.72903333299,
      "d": 200.00003333333007,
      "v": 70
    },
    {
      "midi": 74,
      "hit": false,
      "t": 88714.30049999965,
      "d": 171.42859999999928,
      "v": 58
    },
    {
      "midi": 69,
      "hit": false,
      "t": 88964.3005416663,
      "d": 50.00000833332888,
      "v": 36
    },
    {
      "midi": 55,
      "hit": false,
      "t": 89142.87199999964,
      "d": 278.57147499998973,
      "v": 39
    },
    {
      "midi": 61,
      "hit": false,
      "t": 89142.87199999964,
      "d": 492.8572249999852,
      "v": 47
    },
    {
      "midi": 64,
      "hit": false,
      "t": 89142.87199999964,
      "d": 550.0000916666468,
      "v": 62
    },
    {
      "midi": 69,
      "hit": false,
      "t": 89150.01485833297,
      "d": 557.1429499999795,
      "v": 58
    },
    {
      "midi": 49,
      "hit": false,
      "t": 89157.1577166663,
      "d": 2764.2861749999865,
      "v": 52
    },
    {
      "midi": 45,
      "hit": false,
      "t": 89185.72914999964,
      "d": 2992.8576416666474,
      "v": 50
    },
    {
      "midi": 55,
      "hit": false,
      "t": 89585.7292166663,
      "d": 1021.428741666663,
      "v": 26
    },
    {
      "midi": 61,
      "hit": false,
      "t": 90000.01499999962,
      "d": 357.14291666666395,
      "v": 47
    },
    {
      "midi": 64,
      "hit": false,
      "t": 90464.30079166629,
      "d": 150.0000250000012,
      "v": 25
    },
    {
      "midi": 69,
      "hit": false,
      "t": 90842.87228333295,
      "d": 121.4285916666704,
      "v": 54
    },
    {
      "midi": 73,
      "hit": false,
      "t": 91307.15807499962,
      "d": 385.7143500000093,
      "v": 60
    },
    {
      "midi": 55,
      "hit": false,
      "t": 91607.15812499962,
      "d": 228.5714666666754,
      "v": 44
    },
    {
      "midi": 76,
      "hit": false,
      "t": 91707.1581416663,
      "d": 171.42859999999928,
      "v": 85
    },
    {
      "midi": 73,
      "hit": false,
      "t": 91914.30103333296,
      "d": 200.00003333333007,
      "v": 70
    },
    {
      "midi": 69,
      "hit": false,
      "t": 92142.87249999962,
      "d": 171.42859999999928,
      "v": 58
    },
    {
      "midi": 64,
      "hit": false,
      "t": 92392.87254166628,
      "d": 50.00000833332888,
      "v": 36
    },
    {
      "midi": 57,
      "hit": false,
      "t": 92571.44399999961,
      "d": 642.8572500000009,
      "v": 60
    },
    {
      "midi": 66,
      "hit": false,
      "t": 92585.72971666628,
      "d": 685.7143999999971,
      "v": 70
    },
    {
      "midi": 50,
      "hit": false,
      "t": 92592.87257499961,
      "d": 300.0000500000024,
      "v": 52
    },
    {
      "midi": 38,
      "hit": false,
      "t": 92592.87257499961,
      "d": 3150.0005249999667,
      "v": 41
    },
    {
      "midi": 69,
      "hit": false,
      "t": 92600.01543333294,
      "d": 700.0001166666625,
      "v": 59
    },
    {
      "midi": 62,
      "hit": false,
      "t": 92600.01543333294,
      "d": 714.2858333333279,
      "v": 68
    },
    {
      "midi": 50,
      "hit": false,
      "t": 93014.30121666628,
      "d": 1121.4287583333207,
      "v": 47
    },
    {
      "midi": 57,
      "hit": false,
      "t": 93450.0155749996,
      "d": 1300.0002166666527,
      "v": 58
    },
    {
      "midi": 66,
      "hit": false,
      "t": 93835.7299249996,
      "d": 950.0001583333215,
      "v": 60
    },
    {
      "midi": 62,
      "hit": false,
      "t": 93850.01564166626,
      "d": 971.4287333333195,
      "v": 54
    },
    {
      "midi": 69,
      "hit": false,
      "t": 93871.44421666626,
      "d": 950.0001583333215,
      "v": 57
    },
    {
      "midi": 50,
      "hit": false,
      "t": 94707.15864166626,
      "d": 1057.143033333312,
      "v": 87
    },
    {
      "midi": 57,
      "hit": false,
      "t": 94921.44439166626,
      "d": 878.5715749999799,
      "v": 78
    },
    {
      "midi": 62,
      "hit": false,
      "t": 95142.87299999958,
      "d": 657.1429666666518,
      "v": 61
    },
    {
      "midi": 66,
      "hit": false,
      "t": 95357.15874999958,
      "d": 392.85720833332743,
      "v": 70
    },
    {
      "midi": 69,
      "hit": false,
      "t": 95592.87307499957,
      "d": 207.14289166666276,
      "v": 80
    },
    {
      "midi": 59,
      "hit": false,
      "t": 96000.01599999958,
      "d": 642.8572500000009,
      "v": 60
    },
    {
      "midi": 67,
      "hit": false,
      "t": 96014.30171666625,
      "d": 685.7143999999971,
      "v": 70
    },
    {
      "midi": 43,
      "hit": false,
      "t": 96021.44457499958,
      "d": 300.0000500000024,
      "v": 41
    },
    {
      "midi": 71,
      "hit": false,
      "t": 96028.58743333291,
      "d": 700.0001166666625,
      "v": 59
    },
    {
      "midi": 62,
      "hit": false,
      "t": 96028.58743333291,
      "d": 714.2858333333279,
      "v": 68
    },
    {
      "midi": 43,
      "hit": false,
      "t": 96442.87321666625,
      "d": 1121.4287583333207,
      "v": 47
    },
    {
      "midi": 59,
      "hit": false,
      "t": 96878.58757499958,
      "d": 1300.0002166666673,
      "v": 58
    },
    {
      "midi": 67,
      "hit": false,
      "t": 97264.30192499957,
      "d": 950.000158333336,
      "v": 60
    },
    {
      "midi": 62,
      "hit": false,
      "t": 97278.58764166624,
      "d": 971.4287333333341,
      "v": 54
    },
    {
      "midi": 71,
      "hit": false,
      "t": 97300.01621666623,
      "d": 950.000158333336,
      "v": 57
    },
    {
      "midi": 43,
      "hit": false,
      "t": 98135.73064166625,
      "d": 1035.7144583333138,
      "v": 87
    },
    {
      "midi": 59,
      "hit": false,
      "t": 98350.01639166624,
      "d": 878.5715749999799,
      "v": 78
    },
    {
      "midi": 62,
      "hit": false,
      "t": 98571.44499999957,
      "d": 657.1429666666518,
      "v": 61
    },
    {
      "midi": 67,
      "hit": false,
      "t": 98785.73074999957,
      "d": 392.85720833332743,
      "v": 70
    },
    {
      "midi": 71,
      "hit": false,
      "t": 99021.44507499956,
      "d": 207.14289166666276,
      "v": 80
    },
    {
      "midi": 50,
      "hit": false,
      "t": 99428.58799999955,
      "d": 1100.0001833333372,
      "v": 37
    },
    {
      "midi": 66,
      "hit": false,
      "t": 99428.58799999955,
      "d": 1207.1430583333422,
      "v": 58
    },
    {
      "midi": 62,
      "hit": false,
      "t": 99428.58799999955,
      "d": 1257.143066666671,
      "v": 47
    },
    {
      "midi": 69,
      "hit": false,
      "t": 99428.58799999955,
      "d": 1278.5716416666692,
      "v": 51
    },
    {
      "midi": 57,
      "hit": false,
      "t": 99428.58799999955,
      "d": 1314.2859333333327,
      "v": 43
    },
    {
      "midi": 38,
      "hit": false,
      "t": 99442.87371666622,
      "d": 2628.5718666666507,
      "v": 24
    },
    {
      "midi": 50,
      "hit": false,
      "t": 100728.58821666622,
      "d": 664.2858249999845,
      "v": 55
    },
    {
      "midi": 69,
      "hit": false,
      "t": 101128.58828333288,
      "d": 421.4286416666582,
      "v": 60
    },
    {
      "midi": 57,
      "hit": false,
      "t": 101128.58828333288,
      "d": 450.000074999989,
      "v": 52
    },
    {
      "midi": 62,
      "hit": false,
      "t": 101142.87399999955,
      "d": 421.4286416666582,
      "v": 68
    },
    {
      "midi": 66,
      "hit": false,
      "t": 101150.01685833288,
      "d": 400.00006666666013,
      "v": 60
    },
    {
      "midi": 50,
      "hit": false,
      "t": 101835.73125833287,
      "d": 71.42858333332697,
      "v": 41
    },
    {
      "midi": 69,
      "hit": false,
      "t": 101964.30270833286,
      "d": 364.2857750000112,
      "v": 80
    },
    {
      "midi": 66,
      "hit": false,
      "t": 101971.4455666662,
      "d": 364.2857750000112,
      "v": 82
    },
    {
      "midi": 57,
      "hit": false,
      "t": 101978.58842499953,
      "d": 378.5714916666766,
      "v": 68
    },
    {
      "midi": 62,
      "hit": false,
      "t": 101978.58842499953,
      "d": 378.5714916666766,
      "v": 82
    },
    {
      "midi": 45,
      "hit": false,
      "t": 102857.15999999954,
      "d": 1600.0002666666405,
      "v": 53
    },
    {
      "midi": 61,
      "hit": false,
      "t": 103485.73153333287,
      "d": 264.28575833332434,
      "v": 53
    },
    {
      "midi": 69,
      "hit": false,
      "t": 103707.1601416662,
      "d": 500.0000833333179,
      "v": 55
    },
    {
      "midi": 57,
      "hit": false,
      "t": 103714.30299999953,
      "d": 485.7143666666525,
      "v": 58
    },
    {
      "midi": 64,
      "hit": false,
      "t": 103735.73157499953,
      "d": 371.42863333332934,
      "v": 46
    },
    {
      "midi": 61,
      "hit": false,
      "t": 104178.58879166619,
      "d": 135.71430833332124,
      "v": 37
    },
    {
      "midi": 64,
      "hit": false,
      "t": 104628.58886666618,
      "d": 514.2857999999978,
      "v": 74
    },
    {
      "midi": 57,
      "hit": false,
      "t": 104628.58886666618,
      "d": 628.5715333333355,
      "v": 76
    },
    {
      "midi": 49,
      "hit": false,
      "t": 104635.73172499951,
      "d": 642.8572500000009,
      "v": 50
    },
    {
      "midi": 37,
      "hit": false,
      "t": 104635.73172499951,
      "d": 671.4286833333317,
      "v": 53
    },
    {
      "midi": 52,
      "hit": false,
      "t": 104642.87458333284,
      "d": 621.4286750000028,
      "v": 70
    },
    {
      "midi": 66,
      "hit": false,
      "t": 105485.73186666617,
      "d": 600.0001000000047,
      "v": 74
    },
    {
      "midi": 62,
      "hit": false,
      "t": 105485.73186666617,
      "d": 628.5715333333355,
      "v": 76
    },
    {
      "midi": 50,
      "hit": false,
      "t": 105492.8747249995,
      "d": 642.8572500000009,
      "v": 50
    },
    {
      "midi": 38,
      "hit": false,
      "t": 105492.8747249995,
      "d": 671.4286833333317,
      "v": 53
    },
    {
      "midi": 57,
      "hit": false,
      "t": 105500.01758333284,
      "d": 621.4286750000028,
      "v": 70
    },
    {
      "midi": 43,
      "hit": false,
      "t": 106285.73199999951,
      "d": 1650.0002749999985,
      "v": 42
    },
    {
      "midi": 67,
      "hit": false,
      "t": 106300.01771666617,
      "d": 1642.8574166666658,
      "v": 60
    },
    {
      "midi": 59,
      "hit": false,
      "t": 106307.1605749995,
      "d": 1600.0002666666696,
      "v": 56
    },
    {
      "midi": 62,
      "hit": false,
      "t": 106314.30343333284,
      "d": 1607.1431250000023,
      "v": 60
    },
    {
      "midi": 45,
      "hit": false,
      "t": 108000.0179999995,
      "d": 328.57148333333316,
      "v": 47
    },
    {
      "midi": 52,
      "hit": false,
      "t": 108000.0179999995,
      "d": 664.285824999999,
      "v": 57
    },
    {
      "midi": 57,
      "hit": false,
      "t": 108000.0179999995,
      "d": 700.0001166666625,
      "v": 68
    },
    {
      "midi": 61,
      "hit": false,
      "t": 108000.0179999995,
      "d": 700.0001166666625,
      "v": 55
    },
    {
      "midi": 55,
      "hit": false,
      "t": 108000.0179999995,
      "d": 757.1429833333241,
      "v": 58
    },
    {
      "midi": 45,
      "hit": false,
      "t": 108471.4466499995,
      "d": 807.142991666653,
      "v": 61
    },
    {
      "midi": 52,
      "hit": false,
      "t": 108871.44671666616,
      "d": 650.0001083333191,
      "v": 85
    },
    {
      "midi": 55,
      "hit": false,
      "t": 109285.73249999949,
      "d": 264.28575833332434,
      "v": 66
    },
    {
      "midi": 57,
      "hit": false,
      "t": 109285.73249999949,
      "d": 264.28575833332434,
      "v": 74
    },
    {
      "midi": 61,
      "hit": false,
      "t": 109292.87535833282,
      "d": 250.00004166665894,
      "v": 66
    },
    {
      "midi": 50,
      "hit": false,
      "t": 109714.30399999948,
      "d": 1600.0002666666405,
      "v": 53
    },
    {
      "midi": 57,
      "hit": false,
      "t": 110342.87553333282,
      "d": 264.28575833332434,
      "v": 53
    },
    {
      "midi": 66,
      "hit": false,
      "t": 110564.30414166614,
      "d": 500.0000833333179,
      "v": 55
    },
    {
      "midi": 69,
      "hit": false,
      "t": 110571.44699999948,
      "d": 485.7143666666525,
      "v": 58
    },
    {
      "midi": 62,
      "hit": false,
      "t": 110592.87557499947,
      "d": 371.42863333332934,
      "v": 46
    },
    {
      "midi": 57,
      "hit": false,
      "t": 111035.73279166613,
      "d": 135.71430833332124,
      "v": 37
    },
    {
      "midi": 66,
      "hit": false,
      "t": 111485.73286666612,
      "d": 600.0001000000047,
      "v": 74
    },
    {
      "midi": 62,
      "hit": false,
      "t": 111485.73286666612,
      "d": 628.5715333333355,
      "v": 76
    },
    {
      "midi": 50,
      "hit": false,
      "t": 111492.87572499945,
      "d": 642.8572500000009,
      "v": 50
    },
    {
      "midi": 38,
      "hit": false,
      "t": 111492.87572499945,
      "d": 671.4286833333317,
      "v": 53
    },
    {
      "midi": 57,
      "hit": false,
      "t": 111500.01858333279,
      "d": 621.4286750000028,
      "v": 70
    },
    {
      "midi": 71,
      "hit": false,
      "t": 112342.87586666612,
      "d": 600.0001000000047,
      "v": 74
    },
    {
      "midi": 67,
      "hit": false,
      "t": 112342.87586666612,
      "d": 628.5715333333355,
      "v": 76
    },
    {
      "midi": 43,
      "hit": false,
      "t": 112350.01872499945,
      "d": 642.8572500000009,
      "v": 53
    },
    {
      "midi": 62,
      "hit": false,
      "t": 112357.16158333278,
      "d": 621.4286750000028,
      "v": 70
    },
    {
      "midi": 62,
      "hit": false,
      "t": 113142.87599999945,
      "d": 1492.8573916666646,
      "v": 68
    },
    {
      "midi": 69,
      "hit": false,
      "t": 113142.87599999945,
      "d": 1578.5716916666715,
      "v": 68
    },
    {
      "midi": 50,
      "hit": false,
      "t": 113150.01885833278,
      "d": 1057.143033333341,
      "v": 46
    },
    {
      "midi": 38,
      "hit": false,
      "t": 113150.01885833278,
      "d": 3064.2862250000035,
      "v": 47
    },
    {
      "midi": 66,
      "hit": false,
      "t": 113157.16171666612,
      "d": 1464.2859583333338,
      "v": 76
    },
    {
      "midi": 50,
      "hit": false,
      "t": 114414.30478333279,
      "d": 1807.1431583333324,
      "v": 52
    },
    {
      "midi": 62,
      "hit": false,
      "t": 115314.3049333328,
      "d": 792.8572750000021,
      "v": 64
    },
    {
      "midi": 69,
      "hit": false,
      "t": 115728.59071666613,
      "d": 392.85720833332743,
      "v": 72
    },
    {
      "midi": 66,
      "hit": false,
      "t": 115735.73357499947,
      "d": 400.00006666666013,
      "v": 74
    },
    {
      "midi": 57,
      "hit": false,
      "t": 116571.44799999945,
      "d": 642.8572500000009,
      "v": 60
    },
    {
      "midi": 64,
      "hit": false,
      "t": 116585.73371666612,
      "d": 685.7143999999971,
      "v": 70
    },
    {
      "midi": 45,
      "hit": false,
      "t": 116592.87657499945,
      "d": 300.0000500000024,
      "v": 41
    },
    {
      "midi": 67,
      "hit": false,
      "t": 116600.01943333278,
      "d": 700.0001166666625,
      "v": 59
    },
    {
      "midi": 61,
      "hit": false,
      "t": 116600.01943333278,
      "d": 714.2858333333279,
      "v": 68
    },
    {
      "midi": 45,
      "hit": false,
      "t": 117014.30521666612,
      "d": 1121.4287583333207,
      "v": 47
    },
    {
      "midi": 57,
      "hit": false,
      "t": 117450.01957499945,
      "d": 1300.0002166666527,
      "v": 58
    },
    {
      "midi": 64,
      "hit": false,
      "t": 117835.73392499944,
      "d": 950.0001583333215,
      "v": 60
    },
    {
      "midi": 61,
      "hit": false,
      "t": 117850.0196416661,
      "d": 971.4287333333195,
      "v": 54
    },
    {
      "midi": 67,
      "hit": false,
      "t": 117871.4482166661,
      "d": 950.0001583333215,
      "v": 57
    },
    {
      "midi": 45,
      "hit": false,
      "t": 118707.1626416661,
      "d": 1035.7144583333138,
      "v": 87
    },
    {
      "midi": 57,
      "hit": false,
      "t": 118921.4483916661,
      "d": 878.5715749999799,
      "v": 78
    },
    {
      "midi": 61,
      "hit": false,
      "t": 119142.87699999943,
      "d": 657.1429666666518,
      "v": 61
    },
    {
      "midi": 64,
      "hit": false,
      "t": 119357.16274999942,
      "d": 392.85720833332743,
      "v": 70
    },
    {
      "midi": 67,
      "hit": false,
      "t": 119592.87707499941,
      "d": 207.14289166666276,
      "v": 80
    },
    {
      "midi": 50,
      "hit": false,
      "t": 120000.01999999941,
      "d": 1600.000266666655,
      "v": 53
    },
    {
      "midi": 57,
      "hit": false,
      "t": 120628.59153333274,
      "d": 264.28575833332434,
      "v": 53
    },
    {
      "midi": 66,
      "hit": false,
      "t": 120850.02014166607,
      "d": 500.0000833333179,
      "v": 55
    },
    {
      "midi": 69,
      "hit": false,
      "t": 120857.1629999994,
      "d": 485.7143666666525,
      "v": 58
    },
    {
      "midi": 62,
      "hit": false,
      "t": 120878.5915749994,
      "d": 371.42863333332934,
      "v": 46
    },
    {
      "midi": 57,
      "hit": false,
      "t": 121321.44879166606,
      "d": 135.7143083333358,
      "v": 37
    },
    {
      "midi": 50,
      "hit": false,
      "t": 121714.3059999994,
      "d": 1600.000266666655,
      "v": 53
    },
    {
      "midi": 57,
      "hit": false,
      "t": 122342.87753333274,
      "d": 264.28575833332434,
      "v": 53
    },
    {
      "midi": 62,
      "hit": false,
      "t": 122564.30614166606,
      "d": 500.0000833333179,
      "v": 55
    },
    {
      "midi": 69,
      "hit": false,
      "t": 122571.4489999994,
      "d": 492.8572249999852,
      "v": 58
    },
    {
      "midi": 66,
      "hit": false,
      "t": 122585.73471666606,
      "d": 471.4286499999871,
      "v": 59
    },
    {
      "midi": 60,
      "hit": false,
      "t": 122592.8775749994,
      "d": 371.42863333332934,
      "v": 46
    },
    {
      "midi": 57,
      "hit": false,
      "t": 123035.73479166605,
      "d": 135.7143083333358,
      "v": 37
    },
    {
      "midi": 43,
      "hit": false,
      "t": 123428.5919999994,
      "d": 1600.0002666666405,
      "v": 53
    },
    {
      "midi": 59,
      "hit": false,
      "t": 124057.16353333273,
      "d": 264.28575833332434,
      "v": 53
    },
    {
      "midi": 67,
      "hit": false,
      "t": 124278.59214166606,
      "d": 500.0000833333179,
      "v": 55
    },
    {
      "midi": 71,
      "hit": false,
      "t": 124285.73499999939,
      "d": 485.7143666666525,
      "v": 58
    },
    {
      "midi": 62,
      "hit": false,
      "t": 124307.16357499939,
      "d": 371.42863333332934,
      "v": 46
    },
    {
      "midi": 59,
      "hit": false,
      "t": 124750.02079166604,
      "d": 135.71430833332124,
      "v": 37
    },
    {
      "midi": 71,
      "hit": false,
      "t": 125200.02086666603,
      "d": 600.0001000000047,
      "v": 74
    },
    {
      "midi": 67,
      "hit": false,
      "t": 125200.02086666603,
      "d": 628.5715333333355,
      "v": 76
    },
    {
      "midi": 43,
      "hit": false,
      "t": 125207.16372499937,
      "d": 642.8572500000009,
      "v": 53
    },
    {
      "midi": 62,
      "hit": false,
      "t": 125214.3065833327,
      "d": 621.4286750000028,
      "v": 70
    },
    {
      "midi": 68,
      "hit": false,
      "t": 126057.16386666603,
      "d": 600.0001000000047,
      "v": 74
    },
    {
      "midi": 65,
      "hit": false,
      "t": 126057.16386666603,
      "d": 628.5715333333355,
      "v": 76
    },
    {
      "midi": 53,
      "hit": false,
      "t": 126064.30672499936,
      "d": 642.8572500000009,
      "v": 50
    },
    {
      "midi": 41,
      "hit": false,
      "t": 126064.30672499936,
      "d": 671.4286833333317,
      "v": 53
    },
    {
      "midi": 59,
      "hit": false,
      "t": 126071.4495833327,
      "d": 621.4286750000028,
      "v": 70
    },
    {
      "midi": 62,
      "hit": false,
      "t": 126071.4495833327,
      "d": 628.5715333333355,
      "v": 59
    },
    {
      "midi": 42,
      "hit": false,
      "t": 126857.16399999936,
      "d": 1650.0002749999985,
      "v": 42
    },
    {
      "midi": 54,
      "hit": false,
      "t": 126871.44971666603,
      "d": 1635.7145583333331,
      "v": 46
    },
    {
      "midi": 62,
      "hit": false,
      "t": 126871.44971666603,
      "d": 1642.8574166666658,
      "v": 60
    },
    {
      "midi": 66,
      "hit": false,
      "t": 126878.59257499936,
      "d": 1600.0002666666696,
      "v": 56
    },
    {
      "midi": 57,
      "hit": false,
      "t": 126885.7354333327,
      "d": 1607.1431250000023,
      "v": 60
    },
    {
      "midi": 47,
      "hit": false,
      "t": 128571.44999999936,
      "d": 1600.0002666666405,
      "v": 53
    },
    {
      "midi": 62,
      "hit": false,
      "t": 129200.02153333268,
      "d": 264.28575833332434,
      "v": 53
    },
    {
      "midi": 54,
      "hit": false,
      "t": 129421.450141666,
      "d": 500.0000833333179,
      "v": 55
    },
    {
      "midi": 59,
      "hit": false,
      "t": 129428.59299999934,
      "d": 485.7143666666525,
      "v": 58
    },
    {
      "midi": 66,
      "hit": false,
      "t": 129450.02157499934,
      "d": 371.42863333332934,
      "v": 46
    },
    {
      "midi": 62,
      "hit": false,
      "t": 129892.878791666,
      "d": 135.7143083333358,
      "v": 37
    },
    {
      "midi": 45,
      "hit": false,
      "t": 130285.73599999932,
      "d": 328.57148333333316,
      "v": 47
    },
    {
      "midi": 64,
      "hit": false,
      "t": 130285.73599999932,
      "d": 664.285824999999,
      "v": 57
    },
    {
      "midi": 57,
      "hit": false,
      "t": 130285.73599999932,
      "d": 700.0001166666625,
      "v": 68
    },
    {
      "midi": 61,
      "hit": false,
      "t": 130285.73599999932,
      "d": 700.0001166666625,
      "v": 55
    },
    {
      "midi": 45,
      "hit": false,
      "t": 130757.16464999932,
      "d": 807.142991666653,
      "v": 61
    },
    {
      "midi": 52,
      "hit": false,
      "t": 131157.16471666598,
      "d": 650.0001083333045,
      "v": 85
    },
    {
      "midi": 57,
      "hit": false,
      "t": 131571.4504999993,
      "d": 264.2857583333098,
      "v": 74
    },
    {
      "midi": 61,
      "hit": false,
      "t": 131578.59335833264,
      "d": 250.0000416666444,
      "v": 66
    },
    {
      "midi": 54,
      "hit": false,
      "t": 132000.0219999993,
      "d": 328.57148333333316,
      "v": 47
    },
    {
      "midi": 61,
      "hit": false,
      "t": 132000.0219999993,
      "d": 664.285824999999,
      "v": 57
    },
    {
      "midi": 66,
      "hit": false,
      "t": 132000.0219999993,
      "d": 700.0001166666625,
      "v": 68
    },
    {
      "midi": 70,
      "hit": false,
      "t": 132000.0219999993,
      "d": 700.0001166666625,
      "v": 55
    },
    {
      "midi": 64,
      "hit": false,
      "t": 132000.0219999993,
      "d": 757.1429833333241,
      "v": 58
    },
    {
      "midi": 42,
      "hit": false,
      "t": 132000.0219999993,
      "d": 1278.57164166664,
      "v": 47
    },
    {
      "midi": 54,
      "hit": false,
      "t": 132471.4506499993,
      "d": 842.8572833333164,
      "v": 61
    },
    {
      "midi": 61,
      "hit": false,
      "t": 132871.45071666595,
      "d": 650.0001083333336,
      "v": 85
    },
    {
      "midi": 64,
      "hit": false,
      "t": 133285.73649999927,
      "d": 264.2857583333389,
      "v": 66
    },
    {
      "midi": 66,
      "hit": false,
      "t": 133285.73649999927,
      "d": 264.2857583333389,
      "v": 74
    },
    {
      "midi": 70,
      "hit": false,
      "t": 133292.8793583326,
      "d": 250.0000416666735,
      "v": 66
    },
    {
      "midi": 43,
      "hit": false,
      "t": 133714.30799999926,
      "d": 328.57148333333316,
      "v": 47
    },
    {
      "midi": 62,
      "hit": false,
      "t": 133714.30799999926,
      "d": 664.285824999999,
      "v": 57
    },
    {
      "midi": 67,
      "hit": false,
      "t": 133714.30799999926,
      "d": 700.0001166666625,
      "v": 68
    },
    {
      "midi": 71,
      "hit": false,
      "t": 133714.30799999926,
      "d": 700.0001166666625,
      "v": 55
    },
    {
      "midi": 43,
      "hit": false,
      "t": 134185.73664999925,
      "d": 807.1429916666821,
      "v": 61
    },
    {
      "midi": 62,
      "hit": false,
      "t": 134585.73671666594,
      "d": 650.0001083333045,
      "v": 85
    },
    {
      "midi": 67,
      "hit": false,
      "t": 135000.02249999926,
      "d": 264.2857583333098,
      "v": 74
    },
    {
      "midi": 59,
      "hit": false,
      "t": 135007.1653583326,
      "d": 250.0000416666444,
      "v": 66
    },
    {
      "midi": 45,
      "hit": false,
      "t": 135428.59399999926,
      "d": 328.57148333333316,
      "v": 47
    },
    {
      "midi": 64,
      "hit": false,
      "t": 135428.59399999926,
      "d": 664.285824999999,
      "v": 57
    },
    {
      "midi": 57,
      "hit": false,
      "t": 135428.59399999926,
      "d": 700.0001166666625,
      "v": 68
    },
    {
      "midi": 61,
      "hit": false,
      "t": 135428.59399999926,
      "d": 700.0001166666625,
      "v": 55
    },
    {
      "midi": 55,
      "hit": false,
      "t": 135428.59399999926,
      "d": 757.1429833333241,
      "v": 58
    },
    {
      "midi": 45,
      "hit": false,
      "t": 135900.02264999924,
      "d": 807.142991666653,
      "v": 61
    },
    {
      "midi": 52,
      "hit": false,
      "t": 136300.0227166659,
      "d": 650.0001083333336,
      "v": 85
    },
    {
      "midi": 57,
      "hit": false,
      "t": 136714.30849999923,
      "d": 264.2857583333389,
      "v": 74
    },
    {
      "midi": 67,
      "hit": false,
      "t": 136714.30849999923,
      "d": 264.2857583333389,
      "v": 66
    },
    {
      "midi": 61,
      "hit": false,
      "t": 136721.45135833256,
      "d": 250.0000416666735,
      "v": 66
    },
    {
      "midi": 50,
      "hit": false,
      "t": 137164.30857499922,
      "d": 1671.4288499999966,
      "v": 44
    },
    {
      "midi": 62,
      "hit": false,
      "t": 137178.59429166588,
      "d": 642.85725000003,
      "v": 37
    },
    {
      "midi": 57,
      "hit": false,
      "t": 137185.73714999922,
      "d": 714.285833333357,
      "v": 42
    },
    {
      "midi": 66,
      "hit": false,
      "t": 137192.88000833255,
      "d": 678.5715416666935,
      "v": 49
    },
    {
      "midi": 38,
      "hit": false,
      "t": 137600.02293333257,
      "d": 2271.4289499999722,
      "v": 37
    },
    {
      "midi": 62,
      "hit": false,
      "t": 138035.7372916659,
      "d": 1114.285899999988,
      "v": 52
    },
    {
      "midi": 50,
      "hit": false,
      "t": 139278.59464166587,
      "d": 821.4287083333475,
      "v": 87
    },
    {
      "midi": 74,
      "hit": false,
      "t": 139692.8804249992,
      "d": 571.428666666674,
      "v": 48
    },
    {
      "midi": 69,
      "hit": false,
      "t": 139700.02328333253,
      "d": 550.0000916666759,
      "v": 50
    },
    {
      "midi": 78,
      "hit": false,
      "t": 139700.02328333253,
      "d": 550.0000916666759,
      "v": 59
    },
    {
      "midi": 64,
      "hit": false,
      "t": 140571.4519999992,
      "d": 278.5714750000043,
      "v": 39
    },
    {
      "midi": 70,
      "hit": false,
      "t": 140571.4519999992,
      "d": 492.8572250000143,
      "v": 47
    },
    {
      "midi": 74,
      "hit": false,
      "t": 140571.4519999992,
      "d": 550.0000916666759,
      "v": 62
    },
    {
      "midi": 79,
      "hit": false,
      "t": 140578.59485833254,
      "d": 557.1429500000086,
      "v": 58
    },
    {
      "midi": 58,
      "hit": false,
      "t": 140585.73771666587,
      "d": 2764.2861749999574,
      "v": 52
    },
    {
      "midi": 50,
      "hit": false,
      "t": 140614.3091499992,
      "d": 2992.857641666633,
      "v": 50
    },
    {
      "midi": 64,
      "hit": false,
      "t": 141014.3092166659,
      "d": 1021.4287416666339,
      "v": 26
    },
    {
      "midi": 70,
      "hit": false,
      "t": 141428.59499999922,
      "d": 357.14291666666395,
      "v": 47
    },
    {
      "midi": 74,
      "hit": false,
      "t": 141892.88079166587,
      "d": 150.00002499998664,
      "v": 25
    },
    {
      "midi": 79,
      "hit": false,
      "t": 142271.45228333253,
      "d": 121.42859166665585,
      "v": 54
    },
    {
      "midi": 82,
      "hit": false,
      "t": 142735.7380749992,
      "d": 385.71434999999474,
      "v": 60
    },
    {
      "midi": 64,
      "hit": false,
      "t": 143035.7381249992,
      "d": 228.5714666666463,
      "v": 44
    },
    {
      "midi": 86,
      "hit": false,
      "t": 143135.73814166585,
      "d": 171.42859999998473,
      "v": 85
    },
    {
      "midi": 82,
      "hit": false,
      "t": 143342.8810333325,
      "d": 200.00003333334462,
      "v": 70
    },
    {
      "midi": 79,
      "hit": false,
      "t": 143571.45249999917,
      "d": 171.42859999998473,
      "v": 58
    },
    {
      "midi": 74,
      "hit": false,
      "t": 143821.4525416658,
      "d": 50.00000833332888,
      "v": 36
    },
    {
      "midi": 66,
      "hit": false,
      "t": 144000.02399999916,
      "d": 3492.857725000009,
      "v": 46
    },
    {
      "midi": 50,
      "hit": false,
      "t": 144007.1668583325,
      "d": 3514.286300000007,
      "v": 40
    },
    {
      "midi": 57,
      "hit": false,
      "t": 144014.30971666583,
      "d": 2564.286141666671,
      "v": 58
    },
    {
      "midi": 69,
      "hit": false,
      "t": 144021.45257499916,
      "d": 3514.286300000007,
      "v": 72
    },
    {
      "midi": 64,
      "hit": false,
      "t": 144035.73829166582,
      "d": 3478.5720083333435,
      "v": 53
    },
    {
      "midi": 73,
      "hit": false,
      "t": 144042.88114999916,
      "d": 3485.7148666666762,
      "v": 68
    }
  ]
}