{
  "jsonPath": "Soundtracks/Video Game Music/Age of Empires/age-of-empires-title-theme.json",
  "path": "Soundtracks\\Video Game Music\\Age of Empires\\Age_of_Empires_Title_Theme.mid",
  "name": "Age_of_Empires_Title_Theme",
  "difficulty": "Advanced",
  "bpm": 120.00024000048,
  "notes": [
    {
      "midi": 45,
      "hit": false,
      "t": 1010.2599677734376,
      "d": 127.93045507812496,
      "v": 55
    },
    {
      "midi": 45,
      "hit": false,
      "t": 1138.67870703125,
      "d": 120.1179082031249,
      "v": 52
    },
    {
      "midi": 45,
      "hit": false,
      "t": 1259.2848994140625,
      "d": 120.60619238281242,
      "v": 52
    },
    {
      "midi": 45,
      "hit": false,
      "t": 1380.3793759765624,
      "d": 125.00074999999993,
      "v": 52
    },
    {
      "midi": 45,
      "hit": false,
      "t": 1505.8684101562499,
      "d": 125.00074999999993,
      "v": 53
    },
    {
      "midi": 45,
      "hit": false,
      "t": 1631.3574443359373,
      "d": 120.60619238281242,
      "v": 52
    },
    {
      "midi": 45,
      "hit": false,
      "t": 1752.4519208984373,
      "d": 120.60619238281242,
      "v": 52
    },
    {
      "midi": 45,
      "hit": false,
      "t": 1873.5463974609372,
      "d": 133.30158105468763,
      "v": 52
    },
    {
      "midi": 38,
      "hit": false,
      "t": 2001.9651367187498,
      "d": 7997.606579101562,
      "v": 55
    },
    {
      "midi": 50,
      "hit": false,
      "t": 2001.9651367187498,
      "d": 7997.606579101562,
      "v": 66
    },
    {
      "midi": 62,
      "hit": false,
      "t": 2001.96513671875,
      "d": 67.3832167968751,
      "v": 69
    },
    {
      "midi": 62,
      "hit": false,
      "t": 2145.0324013671875,
      "d": 32.71504003906239,
      "v": 64
    },
    {
      "midi": 62,
      "hit": false,
      "t": 2388.1979228515625,
      "d": 50.78155468749992,
      "v": 64
    },
    {
      "midi": 65,
      "hit": false,
      "t": 2514.6635253906247,
      "d": 50.293270507812394,
      "v": 65
    },
    {
      "midi": 57,
      "hit": false,
      "t": 2640.6408437499995,
      "d": 44.92214453125007,
      "v": 64
    },
    {
      "midi": 58,
      "hit": false,
      "t": 2761.247036132812,
      "d": 38.57445019531269,
      "v": 64
    },
    {
      "midi": 62,
      "hit": false,
      "t": 4001.9771367187495,
      "d": 67.38321679687488,
      "v": 69
    },
    {
      "midi": 62,
      "hit": false,
      "t": 4145.044401367187,
      "d": 32.71504003906284,
      "v": 64
    },
    {
      "midi": 62,
      "hit": false,
      "t": 4388.209922851562,
      "d": 50.78155468749992,
      "v": 64
    },
    {
      "midi": 65,
      "hit": false,
      "t": 4514.675525390624,
      "d": 50.29327050781285,
      "v": 65
    },
    {
      "midi": 57,
      "hit": false,
      "t": 4640.652843749999,
      "d": 44.922144531249614,
      "v": 64
    },
    {
      "midi": 58,
      "hit": false,
      "t": 4761.259036132811,
      "d": 38.57445019531224,
      "v": 64
    },
    {
      "midi": 62,
      "hit": false,
      "t": 6001.989136718748,
      "d": 67.38321679687488,
      "v": 69
    },
    {
      "midi": 62,
      "hit": false,
      "t": 6145.056401367186,
      "d": 32.71504003906284,
      "v": 64
    },
    {
      "midi": 62,
      "hit": false,
      "t": 6388.2219228515605,
      "d": 50.78155468749992,
      "v": 64
    },
    {
      "midi": 65,
      "hit": false,
      "t": 6514.687525390623,
      "d": 50.29327050781285,
      "v": 65
    },
    {
      "midi": 57,
      "hit": false,
      "t": 6640.664843749998,
      "d": 44.922144531249614,
      "v": 64
    },
    {
      "midi": 58,
      "hit": false,
      "t": 6761.27103613281,
      "d": 38.57445019531224,
      "v": 64
    },
    {
      "midi": 62,
      "hit": false,
      "t": 8002.001136718747,
      "d": 67.38321679687488,
      "v": 69
    },
    {
      "midi": 62,
      "hit": false,
      "t": 8145.068401367184,
      "d": 32.71504003906284,
      "v": 64
    },
    {
      "midi": 62,
      "hit": false,
      "t": 8388.23392285156,
      "d": 50.78155468750083,
      "v": 64
    },
    {
      "midi": 65,
      "hit": false,
      "t": 8514.699525390623,
      "d": 50.29327050781285,
      "v": 65
    },
    {
      "midi": 57,
      "hit": false,
      "t": 8640.676843749998,
      "d": 44.922144531250524,
      "v": 64
    },
    {
      "midi": 58,
      "hit": false,
      "t": 8761.28303613281,
      "d": 38.57445019531224,
      "v": 64
    },
    {
      "midi": 58,
      "hit": false,
      "t": 10002.013136718748,
      "d": 67.38321679687579,
      "v": 69
    },
    {
      "midi": 55,
      "hit": false,
      "t": 10002.01313671875,
      "d": 1997.5705791015625,
      "v": 70
    },
    {
      "midi": 43,
      "hit": false,
      "t": 10002.01313671875,
      "d": 3997.582579101563,
      "v": 56
    },
    {
      "midi": 58,
      "hit": false,
      "t": 10145.080401367186,
      "d": 32.71504003906193,
      "v": 64
    },
    {
      "midi": 58,
      "hit": false,
      "t": 10388.24592285156,
      "d": 50.78155468750083,
      "v": 64
    },
    {
      "midi": 62,
      "hit": false,
      "t": 10514.711525390623,
      "d": 50.29327050781285,
      "v": 65
    },
    {
      "midi": 55,
      "hit": false,
      "t": 10640.688843749998,
      "d": 44.922144531250524,
      "v": 64
    },
    {
      "midi": 65,
      "hit": false,
      "t": 10761.295036132811,
      "d": 38.57445019531224,
      "v": 64
    },
    {
      "midi": 58,
      "hit": false,
      "t": 12002.025136718748,
      "d": 67.38321679687579,
      "v": 69
    },
    {
      "midi": 57,
      "hit": false,
      "t": 12002.02513671875,
      "d": 1007.8185468749998,
      "v": 69
    },
    {
      "midi": 58,
      "hit": false,
      "t": 12145.092401367187,
      "d": 32.71504003906193,
      "v": 64
    },
    {
      "midi": 58,
      "hit": false,
      "t": 12388.25792285156,
      "d": 50.78155468750083,
      "v": 64
    },
    {
      "midi": 62,
      "hit": false,
      "t": 12514.723525390624,
      "d": 50.29327050781285,
      "v": 65
    },
    {
      "midi": 55,
      "hit": false,
      "t": 12640.700843749999,
      "d": 44.922144531250524,
      "v": 64
    },
    {
      "midi": 65,
      "hit": false,
      "t": 12761.307036132812,
      "d": 38.57445019531224,
      "v": 64
    },
    {
      "midi": 58,
      "hit": false,
      "t": 13010.331967773438,
      "d": 989.2637480468748,
      "v": 67
    },
    {
      "midi": 62,
      "hit": false,
      "t": 14002.037136718749,
      "d": 67.38321679687579,
      "v": 69
    },
    {
      "midi": 74,
      "hit": false,
      "t": 14002.037136718749,
      "d": 67.38321679687579,
      "v": 57
    },
    {
      "midi": 50,
      "hit": false,
      "t": 14002.03713671875,
      "d": 1997.5705791015625,
      "v": 66
    },
    {
      "midi": 38,
      "hit": false,
      "t": 14002.03713671875,
      "d": 3997.582579101563,
      "v": 55
    },
    {
      "midi": 62,
      "hit": false,
      "t": 14145.104401367187,
      "d": 32.71504003906193,
      "v": 64
    },
    {
      "midi": 74,
      "hit": false,
      "t": 14145.104401367187,
      "d": 45.898712890624665,
      "v": 52
    },
    {
      "midi": 62,
      "hit": false,
      "t": 14266.687162109374,
      "d": 37.5978818359381,
      "v": 64
    },
    {
      "midi": 62,
      "hit": false,
      "t": 14388.269922851563,
      "d": 50.78155468750083,
      "v": 64
    },
    {
      "midi": 65,
      "hit": false,
      "t": 14514.735525390626,
      "d": 50.29327050781285,
      "v": 65
    },
    {
      "midi": 57,
      "hit": false,
      "t": 14640.712843750001,
      "d": 44.922144531250524,
      "v": 64
    },
    {
      "midi": 58,
      "hit": false,
      "t": 14761.319036132814,
      "d": 38.57445019531224,
      "v": 64
    },
    {
      "midi": 74,
      "hit": false,
      "t": 15259.368899414065,
      "d": 45.410428710936685,
      "v": 52
    },
    {
      "midi": 74,
      "hit": false,
      "t": 15380.463375976564,
      "d": 49.80498632812487,
      "v": 52
    },
    {
      "midi": 62,
      "hit": false,
      "t": 15752.53592089844,
      "d": 37.109597656250116,
      "v": 64
    },
    {
      "midi": 62,
      "hit": false,
      "t": 16002.049136718751,
      "d": 67.38321679687579,
      "v": 69
    },
    {
      "midi": 74,
      "hit": false,
      "t": 16002.049136718751,
      "d": 67.38321679687579,
      "v": 57
    },
    {
      "midi": 50,
      "hit": false,
      "t": 16002.049136718751,
      "d": 1997.5705791015625,
      "v": 70
    },
    {
      "midi": 62,
      "hit": false,
      "t": 16145.11640136719,
      "d": 32.71504003906193,
      "v": 64
    },
    {
      "midi": 74,
      "hit": false,
      "t": 16145.11640136719,
      "d": 45.898712890624665,
      "v": 52
    },
    {
      "midi": 62,
      "hit": false,
      "t": 16266.699162109377,
      "d": 37.5978818359381,
      "v": 64
    },
    {
      "midi": 62,
      "hit": false,
      "t": 16388.281922851565,
      "d": 50.78155468749901,
      "v": 64
    },
    {
      "midi": 65,
      "hit": false,
      "t": 16514.747525390627,
      "d": 50.29327050781285,
      "v": 65
    },
    {
      "midi": 57,
      "hit": false,
      "t": 16640.724843750002,
      "d": 44.922144531250524,
      "v": 64
    },
    {
      "midi": 58,
      "hit": false,
      "t": 16761.331036132815,
      "d": 38.57445019531224,
      "v": 64
    },
    {
      "midi": 58,
      "hit": false,
      "t": 18002.061136718752,
      "d": 67.38321679687579,
      "v": 69
    },
    {
      "midi": 67,
      "hit": false,
      "t": 18002.061136718752,
      "d": 1997.5705791015644,
      "v": 64
    },
    {
      "midi": 55,
      "hit": false,
      "t": 18002.061136718752,
      "d": 1997.5705791015644,
      "v": 70
    },
    {
      "midi": 43,
      "hit": false,
      "t": 18002.061136718752,
      "d": 3997.582579101567,
      "v": 56
    },
    {
      "midi": 58,
      "hit": false,
      "t": 18145.12840136719,
      "d": 32.71504003906375,
      "v": 64
    },
    {
      "midi": 58,
      "hit": false,
      "t": 18388.293922851568,
      "d": 50.78155468749901,
      "v": 64
    },
    {
      "midi": 62,
      "hit": false,
      "t": 18514.75952539063,
      "d": 50.29327050781285,
      "v": 65
    },
    {
      "midi": 55,
      "hit": false,
      "t": 18640.736843750004,
      "d": 44.922144531250524,
      "v": 64
    },
    {
      "midi": 65,
      "hit": false,
      "t": 18761.343036132817,
      "d": 38.57445019531224,
      "v": 64
    },
    {
      "midi": 58,
      "hit": false,
      "t": 20002.073136718755,
      "d": 67.38321679687579,
      "v": 69
    },
    {
      "midi": 69,
      "hit": false,
      "t": 20002.073136718755,
      "d": 1007.8185468750016,
      "v": 69
    },
    {
      "midi": 57,
      "hit": false,
      "t": 20002.073136718755,
      "d": 1007.8185468750016,
      "v": 69
    },
    {
      "midi": 58,
      "hit": false,
      "t": 20145.140401367193,
      "d": 32.71504003906375,
      "v": 64
    },
    {
      "midi": 58,
      "hit": false,
      "t": 20388.30592285157,
      "d": 50.78155468749901,
      "v": 64
    },
    {
      "midi": 62,
      "hit": false,
      "t": 20514.77152539063,
      "d": 50.29327050781285,
      "v": 65
    },
    {
      "midi": 55,
      "hit": false,
      "t": 20640.748843750007,
      "d": 44.922144531250524,
      "v": 64
    },
    {
      "midi": 65,
      "hit": false,
      "t": 20761.35503613282,
      "d": 38.57445019531224,
      "v": 64
    },
    {
      "midi": 70,
      "hit": false,
      "t": 21010.379967773442,
      "d": 989.2637480468766,
      "v": 67
    },
    {
      "midi": 58,
      "hit": false,
      "t": 21010.379967773442,
      "d": 989.2637480468766,
      "v": 67
    },
    {
      "midi": 62,
      "hit": false,
      "t": 22002.085136718757,
      "d": 67.38321679687579,
      "v": 69
    },
    {
      "midi": 69,
      "hit": false,
      "t": 22002.085136718757,
      "d": 3997.582579101567,
      "v": 64
    },
    {
      "midi": 50,
      "hit": false,
      "t": 22002.085136718757,
      "d": 3997.5825791015595,
      "v": 56
    },
    {
      "midi": 57,
      "hit": false,
      "t": 22002.085136718757,
      "d": 3997.5825791015595,
      "v": 66
    },
    {
      "midi": 62,
      "hit": false,
      "t": 22145.152401367195,
      "d": 32.71504003906375,
      "v": 64
    },
    {
      "midi": 62,
      "hit": false,
      "t": 22388.317922851573,
      "d": 50.78155468749901,
      "v": 64
    },
    {
      "midi": 65,
      "hit": false,
      "t": 22514.783525390634,
      "d": 50.29327050781285,
      "v": 65
    },
    {
      "midi": 57,
      "hit": false,
      "t": 22640.76084375001,
      "d": 44.922144531250524,
      "v": 64
    },
    {
      "midi": 58,
      "hit": false,
      "t": 22761.367036132822,
      "d": 38.57445019531224,
      "v": 64
    },
    {
      "midi": 38,
      "hit": false,
      "t": 24002.097136718756,
      "d": 1997.5705791015607,
      "v": 55
    },
    {
      "midi": 62,
      "hit": false,
      "t": 24002.09713671876,
      "d": 67.38321679687579,
      "v": 69
    },
    {
      "midi": 62,
      "hit": false,
      "t": 24145.164401367198,
      "d": 32.71504003906375,
      "v": 64
    },
    {
      "midi": 62,
      "hit": false,
      "t": 24388.329922851575,
      "d": 50.78155468749901,
      "v": 64
    },
    {
      "midi": 65,
      "hit": false,
      "t": 24514.795525390637,
      "d": 50.29327050781285,
      "v": 65
    },
    {
      "midi": 57,
      "hit": false,
      "t": 24640.77284375001,
      "d": 44.922144531250524,
      "v": 64
    },
    {
      "midi": 58,
      "hit": false,
      "t": 24761.379036132825,
      "d": 38.57445019531224,
      "v": 64
    },
    {
      "midi": 38,
      "hit": false,
      "t": 26002.109136718755,
      "d": 212.4036181640622,
      "v": 60
    },
    {
      "midi": 50,
      "hit": false,
      "t": 26002.109136718755,
      "d": 212.4036181640622,
      "v": 75
    },
    {
      "midi": 62,
      "hit": false,
      "t": 26002.109136718762,
      "d": 67.38321679687579,
      "v": 69
    },
    {
      "midi": 62,
      "hit": false,
      "t": 26514.80752539064,
      "d": 50.29327050781285,
      "v": 65
    },
    {
      "midi": 62,
      "hit": false,
      "t": 27010.415967773453,
      "d": 52.73469140625093,
      "v": 67
    },
    {
      "midi": 62,
      "hit": false,
      "t": 27506.024410156268,
      "d": 49.80498632812669,
      "v": 65
    }
  ]
}