{
  "jsonPath": "Rock/Alternative Rock/Silverchair/miss-you-love.json",
  "path": "Rock\\Alternative Rock\\Silverchair\\Miss You Love.mid",
  "name": "Miss You Love",
  "difficulty": "Advanced",
  "bpm": 73.99998273333736,
  "notes": [
    {
      "midi": 60,
      "hit": false,
      "t": 0,
      "d": 1141.8921583333333,
      "v": 80
    },
    {
      "midi": 67,
      "hit": false,
      "t": 0,
      "d": 1141.8921583333333,
      "v": 80
    },
    {
      "midi": 55,
      "hit": false,
      "t": 0,
      "d": 2351.3519,
      "v": 80
    },
    {
      "midi": 67,
      "hit": false,
      "t": 1216.2165,
      "d": 324.32439999999997,
      "v": 80
    },
    {
      "midi": 60,
      "hit": false,
      "t": 1621.622,
      "d": 324.32439999999997,
      "v": 80
    },
    {
      "midi": 67,
      "hit": false,
      "t": 2027.0275000000001,
      "d": 324.32439999999997,
      "v": 80
    },
    {
      "midi": 55,
      "hit": false,
      "t": 2432.433,
      "d": 972.9732000000004,
      "v": 80
    },
    {
      "midi": 59,
      "hit": false,
      "t": 2432.433,
      "d": 972.9732000000004,
      "v": 80
    },
    {
      "midi": 55,
      "hit": false,
      "t": 3445.9467500000005,
      "d": 162.1622000000002,
      "v": 80
    },
    {
      "midi": 59,
      "hit": false,
      "t": 3648.649500000001,
      "d": 162.1622000000002,
      "v": 80
    },
    {
      "midi": 67,
      "hit": false,
      "t": 3851.3522500000013,
      "d": 162.1622000000002,
      "v": 80
    },
    {
      "midi": 71,
      "hit": false,
      "t": 4054.0550000000017,
      "d": 162.1622000000002,
      "v": 80
    },
    {
      "midi": 67,
      "hit": false,
      "t": 4256.757750000002,
      "d": 162.16219999999976,
      "v": 80
    },
    {
      "midi": 62,
      "hit": false,
      "t": 4459.460500000001,
      "d": 162.16219999999976,
      "v": 80
    },
    {
      "midi": 59,
      "hit": false,
      "t": 4662.1632500000005,
      "d": 162.16219999999976,
      "v": 80
    },
    {
      "midi": 57,
      "hit": false,
      "t": 4864.866,
      "d": 486.4866000000002,
      "v": 80
    },
    {
      "midi": 62,
      "hit": false,
      "t": 4864.866,
      "d": 486.4866000000002,
      "v": 80
    },
    {
      "midi": 54,
      "hit": false,
      "t": 5472.97425,
      "d": 162.16219999999976,
      "v": 80
    },
    {
      "midi": 54,
      "hit": false,
      "t": 5675.677,
      "d": 162.16219999999976,
      "v": 80
    },
    {
      "midi": 50,
      "hit": false,
      "t": 5878.379749999999,
      "d": 162.16219999999976,
      "v": 80
    },
    {
      "midi": 54,
      "hit": false,
      "t": 6081.082499999999,
      "d": 648.6487999999999,
      "v": 80
    },
    {
      "midi": 45,
      "hit": false,
      "t": 6081.082499999999,
      "d": 1175.675949999999,
      "v": 80
    },
    {
      "midi": 54,
      "hit": false,
      "t": 6891.893499999998,
      "d": 162.16219999999976,
      "v": 80
    },
    {
      "midi": 54,
      "hit": false,
      "t": 7094.596249999998,
      "d": 162.16219999999976,
      "v": 80
    },
    {
      "midi": 57,
      "hit": false,
      "t": 7297.298999999997,
      "d": 648.6487999999999,
      "v": 80
    },
    {
      "midi": 62,
      "hit": false,
      "t": 7297.298999999997,
      "d": 648.6487999999999,
      "v": 80
    },
    {
      "midi": 55,
      "hit": false,
      "t": 8108.109999999997,
      "d": 324.3243999999995,
      "v": 80
    },
    {
      "midi": 57,
      "hit": false,
      "t": 8513.515499999996,
      "d": 567.5676999999996,
      "v": 80
    },
    {
      "midi": 62,
      "hit": false,
      "t": 8513.515499999996,
      "d": 567.5676999999996,
      "v": 80
    },
    {
      "midi": 57,
      "hit": false,
      "t": 9121.623749999995,
      "d": 162.16220000000067,
      "v": 80
    },
    {
      "midi": 62,
      "hit": false,
      "t": 9121.623749999995,
      "d": 162.16220000000067,
      "v": 80
    },
    {
      "midi": 57,
      "hit": false,
      "t": 9324.326499999996,
      "d": 364.8649499999992,
      "v": 80
    },
    {
      "midi": 62,
      "hit": false,
      "t": 9324.326499999996,
      "d": 364.8649499999992,
      "v": 80
    },
    {
      "midi": 60,
      "hit": false,
      "t": 9729.731999999995,
      "d": 1141.892158333334,
      "v": 80
    },
    {
      "midi": 55,
      "hit": false,
      "t": 9729.731999999995,
      "d": 2351.351899999998,
      "v": 80
    },
    {
      "midi": 67,
      "hit": false,
      "t": 10945.948499999995,
      "d": 324.3243999999995,
      "v": 80
    },
    {
      "midi": 60,
      "hit": false,
      "t": 11351.353999999994,
      "d": 324.3243999999995,
      "v": 80
    },
    {
      "midi": 67,
      "hit": false,
      "t": 11756.759499999993,
      "d": 324.3243999999995,
      "v": 80
    },
    {
      "midi": 55,
      "hit": false,
      "t": 12162.164999999992,
      "d": 972.9732000000004,
      "v": 80
    },
    {
      "midi": 59,
      "hit": false,
      "t": 12162.164999999992,
      "d": 972.9732000000004,
      "v": 80
    },
    {
      "midi": 55,
      "hit": false,
      "t": 13175.678749999992,
      "d": 162.16220000000067,
      "v": 80
    },
    {
      "midi": 59,
      "hit": false,
      "t": 13378.381499999992,
      "d": 162.16220000000067,
      "v": 80
    },
    {
      "midi": 67,
      "hit": false,
      "t": 13581.084249999993,
      "d": 162.16220000000067,
      "v": 80
    },
    {
      "midi": 71,
      "hit": false,
      "t": 13783.786999999993,
      "d": 162.16220000000067,
      "v": 80
    },
    {
      "midi": 67,
      "hit": false,
      "t": 13986.489749999993,
      "d": 162.16220000000067,
      "v": 80
    },
    {
      "midi": 62,
      "hit": false,
      "t": 14189.192499999994,
      "d": 162.16220000000067,
      "v": 80
    },
    {
      "midi": 59,
      "hit": false,
      "t": 14391.895249999994,
      "d": 162.16220000000067,
      "v": 80
    },
    {
      "midi": 57,
      "hit": false,
      "t": 14594.597999999994,
      "d": 486.4866000000002,
      "v": 80
    },
    {
      "midi": 62,
      "hit": false,
      "t": 14594.597999999994,
      "d": 486.4866000000002,
      "v": 80
    },
    {
      "midi": 54,
      "hit": false,
      "t": 15202.706249999994,
      "d": 162.16220000000067,
      "v": 80
    },
    {
      "midi": 54,
      "hit": false,
      "t": 15405.408999999994,
      "d": 162.16220000000067,
      "v": 80
    },
    {
      "midi": 50,
      "hit": false,
      "t": 15608.111749999995,
      "d": 162.16220000000067,
      "v": 80
    },
    {
      "midi": 54,
      "hit": false,
      "t": 15810.814499999995,
      "d": 648.6488000000008,
      "v": 80
    },
    {
      "midi": 45,
      "hit": false,
      "t": 15810.814499999995,
      "d": 1175.675949999999,
      "v": 80
    },
    {
      "midi": 54,
      "hit": false,
      "t": 16621.625499999995,
      "d": 162.16219999999885,
      "v": 80
    },
    {
      "midi": 54,
      "hit": false,
      "t": 16824.328249999995,
      "d": 162.16219999999885,
      "v": 80
    },
    {
      "midi": 57,
      "hit": false,
      "t": 17027.030999999995,
      "d": 648.648799999999,
      "v": 80
    },
    {
      "midi": 62,
      "hit": false,
      "t": 17027.030999999995,
      "d": 648.648799999999,
      "v": 80
    },
    {
      "midi": 55,
      "hit": false,
      "t": 17837.841999999993,
      "d": 324.32440000000133,
      "v": 80
    },
    {
      "midi": 57,
      "hit": false,
      "t": 18243.247499999994,
      "d": 567.5676999999996,
      "v": 80
    },
    {
      "midi": 62,
      "hit": false,
      "t": 18243.247499999994,
      "d": 567.5676999999996,
      "v": 80
    },
    {
      "midi": 57,
      "hit": false,
      "t": 18851.355749999995,
      "d": 162.16219999999885,
      "v": 80
    },
    {
      "midi": 62,
      "hit": false,
      "t": 18851.355749999995,
      "d": 162.16219999999885,
      "v": 80
    },
    {
      "midi": 57,
      "hit": false,
      "t": 19054.058499999996,
      "d": 364.8649499999992,
      "v": 80
    },
    {
      "midi": 62,
      "hit": false,
      "t": 19054.058499999996,
      "d": 364.8649499999992,
      "v": 80
    },
    {
      "midi": 55,
      "hit": false,
      "t": 19459.463999999996,
      "d": 648.648799999999,
      "v": 80
    },
    {
      "midi": 60,
      "hit": false,
      "t": 19459.463999999996,
      "d": 648.648799999999,
      "v": 80
    },
    {
      "midi": 67,
      "hit": false,
      "t": 19459.463999999996,
      "d": 648.648799999999,
      "v": 80
    },
    {
      "midi": 60,
      "hit": false,
      "t": 20270.274999999994,
      "d": 324.32440000000133,
      "v": 80
    },
    {
      "midi": 55,
      "hit": false,
      "t": 20675.680499999995,
      "d": 486.4866000000002,
      "v": 80
    },
    {
      "midi": 59,
      "hit": false,
      "t": 20675.680499999995,
      "d": 486.4866000000002,
      "v": 80
    },
    {
      "midi": 67,
      "hit": false,
      "t": 20675.680499999995,
      "d": 486.4866000000002,
      "v": 80
    },
    {
      "midi": 55,
      "hit": false,
      "t": 21283.788749999996,
      "d": 162.16219999999885,
      "v": 80
    },
    {
      "midi": 59,
      "hit": false,
      "t": 21486.491499999996,
      "d": 162.16219999999885,
      "v": 80
    },
    {
      "midi": 62,
      "hit": false,
      "t": 21689.194249999997,
      "d": 162.16219999999885,
      "v": 80
    },
    {
      "midi": 55,
      "hit": false,
      "t": 21891.896999999997,
      "d": 648.648799999999,
      "v": 80
    },
    {
      "midi": 60,
      "hit": false,
      "t": 21891.896999999997,
      "d": 648.648799999999,
      "v": 80
    },
    {
      "midi": 67,
      "hit": false,
      "t": 21891.896999999997,
      "d": 648.648799999999,
      "v": 80
    },
    {
      "midi": 60,
      "hit": false,
      "t": 22702.707999999995,
      "d": 324.32440000000133,
      "v": 80
    },
    {
      "midi": 55,
      "hit": false,
      "t": 23108.113499999996,
      "d": 486.4866000000002,
      "v": 80
    },
    {
      "midi": 59,
      "hit": false,
      "t": 23108.113499999996,
      "d": 486.4866000000002,
      "v": 80
    },
    {
      "midi": 67,
      "hit": false,
      "t": 23108.113499999996,
      "d": 486.4866000000002,
      "v": 80
    },
    {
      "midi": 55,
      "hit": false,
      "t": 23716.221749999997,
      "d": 162.16219999999885,
      "v": 80
    },
    {
      "midi": 59,
      "hit": false,
      "t": 23918.924499999997,
      "d": 162.16219999999885,
      "v": 80
    },
    {
      "midi": 62,
      "hit": false,
      "t": 24121.627249999998,
      "d": 162.16219999999885,
      "v": 80
    },
    {
      "midi": 57,
      "hit": false,
      "t": 24324.329999999998,
      "d": 486.4866000000002,
      "v": 80
    },
    {
      "midi": 60,
      "hit": false,
      "t": 24324.329999999998,
      "d": 486.4866000000002,
      "v": 80
    },
    {
      "midi": 69,
      "hit": false,
      "t": 24324.329999999998,
      "d": 486.4866000000002,
      "v": 80
    },
    {
      "midi": 57,
      "hit": false,
      "t": 24932.43825,
      "d": 162.16219999999885,
      "v": 80
    },
    {
      "midi": 60,
      "hit": false,
      "t": 25135.141,
      "d": 162.16219999999885,
      "v": 80
    },
    {
      "midi": 64,
      "hit": false,
      "t": 25337.84375,
      "d": 162.16219999999885,
      "v": 80
    },
    {
      "midi": 57,
      "hit": false,
      "t": 25540.5465,
      "d": 486.4866000000002,
      "v": 80
    },
    {
      "midi": 60,
      "hit": false,
      "t": 25540.5465,
      "d": 486.4866000000002,
      "v": 80
    },
    {
      "midi": 69,
      "hit": false,
      "t": 25540.5465,
      "d": 486.4866000000002,
      "v": 80
    },
    {
      "midi": 57,
      "hit": false,
      "t": 26148.65475,
      "d": 162.16219999999885,
      "v": 80
    },
    {
      "midi": 60,
      "hit": false,
      "t": 26351.357500000002,
      "d": 162.16219999999885,
      "v": 80
    },
    {
      "midi": 64,
      "hit": false,
      "t": 26554.060250000002,
      "d": 162.16219999999885,
      "v": 80
    },
    {
      "midi": 57,
      "hit": false,
      "t": 26756.763000000003,
      "d": 486.4866000000002,
      "v": 80
    },
    {
      "midi": 60,
      "hit": false,
      "t": 26756.763000000003,
      "d": 486.4866000000002,
      "v": 80
    },
    {
      "midi": 69,
      "hit": false,
      "t": 26756.763000000003,
      "d": 486.4866000000002,
      "v": 80
    },
    {
      "midi": 57,
      "hit": false,
      "t": 27364.871250000004,
      "d": 162.16219999999885,
      "v": 80
    },
    {
      "midi": 60,
      "hit": false,
      "t": 27567.574000000004,
      "d": 162.16219999999885,
      "v": 80
    },
    {
      "midi": 64,
      "hit": false,
      "t": 27770.276750000005,
      "d": 162.16219999999885,
      "v": 80
    },
    {
      "midi": 57,
      "hit": false,
      "t": 27972.979500000005,
      "d": 324.32440000000133,
      "v": 80
    },
    {
      "midi": 60,
      "hit": false,
      "t": 27972.979500000005,
      "d": 324.32440000000133,
      "v": 80
    },
    {
      "midi": 69,
      "hit": false,
      "t": 27972.979500000005,
      "d": 324.32440000000133,
      "v": 80
    },
    {
      "midi": 60,
      "hit": false,
      "t": 28378.385000000006,
      "d": 162.16219999999885,
      "v": 80
    },
    {
      "midi": 57,
      "hit": false,
      "t": 28581.087750000006,
      "d": 162.16219999999885,
      "v": 80
    },
    {
      "midi": 52,
      "hit": false,
      "t": 28783.790500000006,
      "d": 162.16219999999885,
      "v": 80
    },
    {
      "midi": 48,
      "hit": false,
      "t": 28986.493250000007,
      "d": 162.16219999999885,
      "v": 80
    },
    {
      "midi": 52,
      "hit": false,
      "t": 29189.196000000007,
      "d": 324.32440000000133,
      "v": 80
    },
    {
      "midi": 59,
      "hit": false,
      "t": 29189.196000000007,
      "d": 324.32440000000133,
      "v": 80
    },
    {
      "midi": 64,
      "hit": false,
      "t": 29189.196000000007,
      "d": 324.32440000000133,
      "v": 80
    },
    {
      "midi": 55,
      "hit": false,
      "t": 29594.601500000008,
      "d": 162.16219999999885,
      "v": 80
    },
    {
      "midi": 59,
      "hit": false,
      "t": 29797.30425000001,
      "d": 162.16219999999885,
      "v": 80
    },
    {
      "midi": 55,
      "hit": false,
      "t": 30000.00700000001,
      "d": 162.16219999999885,
      "v": 80
    },
    {
      "midi": 52,
      "hit": false,
      "t": 30202.70975000001,
      "d": 162.16219999999885,
      "v": 80
    },
    {
      "midi": 59,
      "hit": false,
      "t": 30405.41250000001,
      "d": 324.32440000000133,
      "v": 80
    },
    {
      "midi": 64,
      "hit": false,
      "t": 30405.41250000001,
      "d": 324.32440000000133,
      "v": 80
    },
    {
      "midi": 59,
      "hit": false,
      "t": 30810.81800000001,
      "d": 162.16219999999885,
      "v": 80
    },
    {
      "midi": 64,
      "hit": false,
      "t": 31013.52075000001,
      "d": 162.16219999999885,
      "v": 80
    },
    {
      "midi": 59,
      "hit": false,
      "t": 31216.22350000001,
      "d": 162.16219999999885,
      "v": 80
    },
    {
      "midi": 55,
      "hit": false,
      "t": 31418.92625000001,
      "d": 162.16219999999885,
      "v": 80
    },
    {
      "midi": 52,
      "hit": false,
      "t": 31621.62900000001,
      "d": 324.32440000000133,
      "v": 80
    },
    {
      "midi": 59,
      "hit": false,
      "t": 31621.62900000001,
      "d": 324.32440000000133,
      "v": 80
    },
    {
      "midi": 64,
      "hit": false,
      "t": 31621.62900000001,
      "d": 324.32440000000133,
      "v": 80
    },
    {
      "midi": 55,
      "hit": false,
      "t": 32027.034500000012,
      "d": 162.16219999999885,
      "v": 80
    },
    {
      "midi": 59,
      "hit": false,
      "t": 32229.737250000013,
      "d": 162.16219999999885,
      "v": 80
    },
    {
      "midi": 55,
      "hit": false,
      "t": 32432.440000000013,
      "d": 162.16219999999885,
      "v": 80
    },
    {
      "midi": 52,
      "hit": false,
      "t": 32635.142750000014,
      "d": 162.16219999999885,
      "v": 80
    },
    {
      "midi": 59,
      "hit": false,
      "t": 32837.84550000001,
      "d": 324.3243999999977,
      "v": 80
    },
    {
      "midi": 64,
      "hit": false,
      "t": 32837.84550000001,
      "d": 324.3243999999977,
      "v": 80
    },
    {
      "midi": 59,
      "hit": false,
      "t": 33243.25100000001,
      "d": 162.16219999999885,
      "v": 80
    },
    {
      "midi": 64,
      "hit": false,
      "t": 33445.95375000001,
      "d": 162.16219999999885,
      "v": 80
    },
    {
      "midi": 59,
      "hit": false,
      "t": 33648.656500000005,
      "d": 162.16219999999885,
      "v": 80
    },
    {
      "midi": 55,
      "hit": false,
      "t": 33851.35925,
      "d": 162.16219999999885,
      "v": 80
    },
    {
      "midi": 55,
      "hit": false,
      "t": 34054.062,
      "d": 324.3243999999977,
      "v": 80
    },
    {
      "midi": 60,
      "hit": false,
      "t": 34054.062,
      "d": 324.3243999999977,
      "v": 80
    },
    {
      "midi": 67,
      "hit": false,
      "t": 34054.062,
      "d": 324.3243999999977,
      "v": 80
    },
    {
      "midi": 60,
      "hit": false,
      "t": 34459.4675,
      "d": 162.16219999999885,
      "v": 80
    },
    {
      "midi": 64,
      "hit": false,
      "t": 34662.170249999996,
      "d": 162.16219999999885,
      "v": 80
    },
    {
      "midi": 60,
      "hit": false,
      "t": 34864.87299999999,
      "d": 162.16219999999885,
      "v": 80
    },
    {
      "midi": 55,
      "hit": false,
      "t": 35067.57574999999,
      "d": 162.16219999999885,
      "v": 80
    },
    {
      "midi": 55,
      "hit": false,
      "t": 35270.278499999986,
      "d": 324.3243999999977,
      "v": 80
    },
    {
      "midi": 62,
      "hit": false,
      "t": 35270.278499999986,
      "d": 324.3243999999977,
      "v": 80
    },
    {
      "midi": 59,
      "hit": false,
      "t": 35675.68399999999,
      "d": 162.16219999999885,
      "v": 80
    },
    {
      "midi": 62,
      "hit": false,
      "t": 35878.38674999998,
      "d": 162.16219999999885,
      "v": 80
    },
    {
      "midi": 59,
      "hit": false,
      "t": 36081.08949999998,
      "d": 162.16219999999885,
      "v": 80
    },
    {
      "midi": 55,
      "hit": false,
      "t": 36283.79224999998,
      "d": 162.16219999999885,
      "v": 80
    },
    {
      "midi": 57,
      "hit": false,
      "t": 36486.49499999997,
      "d": 324.3243999999977,
      "v": 80
    },
    {
      "midi": 62,
      "hit": false,
      "t": 36486.49499999997,
      "d": 324.3243999999977,
      "v": 80
    },
    {
      "midi": 57,
      "hit": false,
      "t": 36891.900499999974,
      "d": 162.16219999999885,
      "v": 80
    },
    {
      "midi": 62,
      "hit": false,
      "t": 37094.60324999997,
      "d": 162.16219999999885,
      "v": 80
    },
    {
      "midi": 57,
      "hit": false,
      "t": 37297.30599999997,
      "d": 162.16219999999885,
      "v": 80
    },
    {
      "midi": 54,
      "hit": false,
      "t": 37500.008749999964,
      "d": 162.16219999999885,
      "v": 80
    },
    {
      "midi": 50,
      "hit": false,
      "t": 37702.71149999996,
      "d": 2189.1897000000026,
      "v": 80
    },
    {
      "midi": 55,
      "hit": false,
      "t": 41351.36099999996,
      "d": 1141.8921583333358,
      "v": 80
    },
    {
      "midi": 60,
      "hit": false,
      "t": 41351.36099999996,
      "d": 1141.8921583333358,
      "v": 80
    },
    {
      "midi": 55,
      "hit": false,
      "t": 42567.57749999996,
      "d": 648.6488000000027,
      "v": 80
    },
    {
      "midi": 60,
      "hit": false,
      "t": 42567.57749999996,
      "d": 648.6488000000027,
      "v": 80
    },
    {
      "midi": 55,
      "hit": false,
      "t": 43378.388499999965,
      "d": 324.3243999999977,
      "v": 80
    },
    {
      "midi": 60,
      "hit": false,
      "t": 43378.388499999965,
      "d": 324.3243999999977,
      "v": 80
    },
    {
      "midi": 55,
      "hit": false,
      "t": 43783.793999999965,
      "d": 1135.1353999999992,
      "v": 80
    },
    {
      "midi": 59,
      "hit": false,
      "t": 43783.793999999965,
      "d": 1135.1353999999992,
      "v": 80
    },
    {
      "midi": 55,
      "hit": false,
      "t": 45000.01049999997,
      "d": 648.6488000000027,
      "v": 80
    },
    {
      "midi": 59,
      "hit": false,
      "t": 45000.01049999997,
      "d": 648.6488000000027,
      "v": 80
    },
    {
      "midi": 55,
      "hit": false,
      "t": 45810.82149999997,
      "d": 324.3243999999977,
      "v": 80
    },
    {
      "midi": 59,
      "hit": false,
      "t": 45810.82149999997,
      "d": 324.3243999999977,
      "v": 80
    },
    {
      "midi": 57,
      "hit": false,
      "t": 46216.22699999997,
      "d": 972.9732000000004,
      "v": 80
    },
    {
      "midi": 62,
      "hit": false,
      "t": 46216.22699999997,
      "d": 972.9732000000004,
      "v": 80
    },
    {
      "midi": 57,
      "hit": false,
      "t": 47432.44349999997,
      "d": 648.6488000000027,
      "v": 80
    },
    {
      "midi": 62,
      "hit": false,
      "t": 47432.44349999997,
      "d": 648.6488000000027,
      "v": 80
    },
    {
      "midi": 57,
      "hit": false,
      "t": 48243.25449999997,
      "d": 324.3243999999977,
      "v": 80
    },
    {
      "midi": 57,
      "hit": false,
      "t": 48648.659999999974,
      "d": 486.48659999999654,
      "v": 80
    },
    {
      "midi": 62,
      "hit": false,
      "t": 48648.659999999974,
      "d": 486.48659999999654,
      "v": 80
    },
    {
      "midi": 57,
      "hit": false,
      "t": 49256.76824999997,
      "d": 162.16219999999885,
      "v": 80
    },
    {
      "midi": 62,
      "hit": false,
      "t": 49256.76824999997,
      "d": 162.16219999999885,
      "v": 80
    },
    {
      "midi": 57,
      "hit": false,
      "t": 49459.47099999997,
      "d": 162.16219999999885,
      "v": 80
    },
    {
      "midi": 62,
      "hit": false,
      "t": 49459.47099999997,
      "d": 162.16219999999885,
      "v": 80
    },
    {
      "midi": 57,
      "hit": false,
      "t": 49662.173749999965,
      "d": 162.16219999999885,
      "v": 80
    },
    {
      "midi": 62,
      "hit": false,
      "t": 49662.173749999965,
      "d": 162.16219999999885,
      "v": 80
    },
    {
      "midi": 57,
      "hit": false,
      "t": 49864.87649999996,
      "d": 648.6488000000027,
      "v": 80
    },
    {
      "midi": 62,
      "hit": false,
      "t": 49864.87649999996,
      "d": 648.6488000000027,
      "v": 80
    },
    {
      "midi": 57,
      "hit": false,
      "t": 50675.68749999996,
      "d": 324.3243999999977,
      "v": 80
    },
    {
      "midi": 62,
      "hit": false,
      "t": 50675.68749999996,
      "d": 324.3243999999977,
      "v": 80
    },
    {
      "midi": 55,
      "hit": false,
      "t": 51081.092999999964,
      "d": 1141.8921583333358,
      "v": 80
    },
    {
      "midi": 60,
      "hit": false,
      "t": 51081.092999999964,
      "d": 1141.8921583333358,
      "v": 80
    },
    {
      "midi": 55,
      "hit": false,
      "t": 52297.30949999997,
      "d": 648.6488000000027,
      "v": 80
    },
    {
      "midi": 60,
      "hit": false,
      "t": 52297.30949999997,
      "d": 648.6488000000027,
      "v": 80
    },
    {
      "midi": 55,
      "hit": false,
      "t": 53108.12049999997,
      "d": 324.3243999999977,
      "v": 80
    },
    {
      "midi": 60,
      "hit": false,
      "t": 53108.12049999997,
      "d": 324.3243999999977,
      "v": 80
    },
    {
      "midi": 55,
      "hit": false,
      "t": 53513.52599999997,
      "d": 1135.1353999999992,
      "v": 80
    },
    {
      "midi": 59,
      "hit": false,
      "t": 53513.52599999997,
      "d": 1135.1353999999992,
      "v": 80
    },
    {
      "midi": 55,
      "hit": false,
      "t": 54729.74249999997,
      "d": 648.6488000000027,
      "v": 80
    },
    {
      "midi": 59,
      "hit": false,
      "t": 54729.74249999997,
      "d": 648.6488000000027,
      "v": 80
    },
    {
      "midi": 55,
      "hit": false,
      "t": 55540.55349999997,
      "d": 324.3243999999977,
      "v": 80
    },
    {
      "midi": 59,
      "hit": false,
      "t": 55540.55349999997,
      "d": 324.3243999999977,
      "v": 80
    },
    {
      "midi": 57,
      "hit": false,
      "t": 55945.95899999997,
      "d": 972.9732000000004,
      "v": 80
    },
    {
      "midi": 62,
      "hit": false,
      "t": 55945.95899999997,
      "d": 972.9732000000004,
      "v": 80
    },
    {
      "midi": 57,
      "hit": false,
      "t": 57162.175499999976,
      "d": 648.6488000000027,
      "v": 80
    },
    {
      "midi": 62,
      "hit": false,
      "t": 57162.175499999976,
      "d": 648.6488000000027,
      "v": 80
    },
    {
      "midi": 57,
      "hit": false,
      "t": 57972.98649999998,
      "d": 324.3243999999977,
      "v": 80
    },
    {
      "midi": 57,
      "hit": false,
      "t": 58378.39199999998,
      "d": 486.48659999999654,
      "v": 80
    },
    {
      "midi": 62,
      "hit": false,
      "t": 58378.39199999998,
      "d": 486.48659999999654,
      "v": 80
    },
    {
      "midi": 57,
      "hit": false,
      "t": 58986.500249999975,
      "d": 162.16219999999885,
      "v": 80
    },
    {
      "midi": 62,
      "hit": false,
      "t": 58986.500249999975,
      "d": 162.16219999999885,
      "v": 80
    },
    {
      "midi": 57,
      "hit": false,
      "t": 59189.20299999997,
      "d": 162.16219999999885,
      "v": 80
    },
    {
      "midi": 62,
      "hit": false,
      "t": 59189.20299999997,
      "d": 162.16219999999885,
      "v": 80
    },
    {
      "midi": 57,
      "hit": false,
      "t": 59391.90574999997,
      "d": 162.16219999999885,
      "v": 80
    },
    {
      "midi": 62,
      "hit": false,
      "t": 59391.90574999997,
      "d": 162.16219999999885,
      "v": 80
    },
    {
      "midi": 57,
      "hit": false,
      "t": 59594.608499999966,
      "d": 648.6488000000027,
      "v": 80
    },
    {
      "midi": 62,
      "hit": false,
      "t": 59594.608499999966,
      "d": 648.6488000000027,
      "v": 80
    },
    {
      "midi": 57,
      "hit": false,
      "t": 60405.41949999997,
      "d": 324.3243999999977,
      "v": 80
    },
    {
      "midi": 62,
      "hit": false,
      "t": 60405.41949999997,
      "d": 324.3243999999977,
      "v": 80
    },
    {
      "midi": 55,
      "hit": false,
      "t": 60810.82499999997,
      "d": 648.6488000000027,
      "v": 80
    },
    {
      "midi": 60,
      "hit": false,
      "t": 60810.82499999997,
      "d": 648.6488000000027,
      "v": 80
    },
    {
      "midi": 67,
      "hit": false,
      "t": 60810.82499999997,
      "d": 648.6488000000027,
      "v": 80
    },
    {
      "midi": 60,
      "hit": false,
      "t": 61621.63599999997,
      "d": 162.16219999999885,
      "v": 80
    },
    {
      "midi": 60,
      "hit": false,
      "t": 61824.338749999966,
      "d": 162.16219999999885,
      "v": 80
    },
    {
      "midi": 55,
      "hit": false,
      "t": 62027.04149999996,
      "d": 486.48659999999654,
      "v": 80
    },
    {
      "midi": 59,
      "hit": false,
      "t": 62027.04149999996,
      "d": 486.48659999999654,
      "v": 80
    },
    {
      "midi": 67,
      "hit": false,
      "t": 62027.04149999996,
      "d": 486.48659999999654,
      "v": 80
    },
    {
      "midi": 55,
      "hit": false,
      "t": 62635.14974999996,
      "d": 162.16219999999885,
      "v": 80
    },
    {
      "midi": 59,
      "hit": false,
      "t": 62837.85249999996,
      "d": 162.16219999999885,
      "v": 80
    },
    {
      "midi": 62,
      "hit": false,
      "t": 63040.555249999954,
      "d": 162.16219999999885,
      "v": 80
    },
    {
      "midi": 55,
      "hit": false,
      "t": 63243.25799999995,
      "d": 648.6488000000027,
      "v": 80
    },
    {
      "midi": 60,
      "hit": false,
      "t": 63243.25799999995,
      "d": 648.6488000000027,
      "v": 80
    },
    {
      "midi": 67,
      "hit": false,
      "t": 63243.25799999995,
      "d": 648.6488000000027,
      "v": 80
    },
    {
      "midi": 60,
      "hit": false,
      "t": 64054.06899999995,
      "d": 162.16219999999885,
      "v": 80
    },
    {
      "midi": 60,
      "hit": false,
      "t": 64256.77174999995,
      "d": 162.16219999999885,
      "v": 80
    },
    {
      "midi": 55,
      "hit": false,
      "t": 64459.474499999946,
      "d": 486.48659999999654,
      "v": 80
    },
    {
      "midi": 59,
      "hit": false,
      "t": 64459.474499999946,
      "d": 486.48659999999654,
      "v": 80
    },
    {
      "midi": 67,
      "hit": false,
      "t": 64459.474499999946,
      "d": 486.48659999999654,
      "v": 80
    },
    {
      "midi": 55,
      "hit": false,
      "t": 65067.58274999994,
      "d": 162.16219999999885,
      "v": 80
    },
    {
      "midi": 59,
      "hit": false,
      "t": 65270.28549999994,
      "d": 162.16219999999885,
      "v": 80
    },
    {
      "midi": 62,
      "hit": false,
      "t": 65472.98824999994,
      "d": 162.16220000000612,
      "v": 80
    },
    {
      "midi": 57,
      "hit": false,
      "t": 65675.69099999995,
      "d": 486.4866000000038,
      "v": 80
    },
    {
      "midi": 60,
      "hit": false,
      "t": 65675.69099999995,
      "d": 486.4866000000038,
      "v": 80
    },
    {
      "midi": 69,
      "hit": false,
      "t": 65675.69099999995,
      "d": 486.4866000000038,
      "v": 80
    },
    {
      "midi": 64,
      "hit": false,
      "t": 69121.63774999995,
      "d": 162.16220000000612,
      "v": 80
    },
    {
      "midi": 57,
      "hit": false,
      "t": 69324.34049999996,
      "d": 324.3243999999977,
      "v": 80
    },
    {
      "midi": 60,
      "hit": false,
      "t": 69324.34049999996,
      "d": 324.3243999999977,
      "v": 80
    },
    {
      "midi": 69,
      "hit": false,
      "t": 69324.34049999996,
      "d": 324.3243999999977,
      "v": 80
    },
    {
      "midi": 60,
      "hit": false,
      "t": 69729.74599999996,
      "d": 162.16220000000612,
      "v": 80
    },
    {
      "midi": 57,
      "hit": false,
      "t": 69932.44874999997,
      "d": 162.16220000000612,
      "v": 80
    },
    {
      "midi": 67,
      "hit": false,
      "t": 69932.44874999997,
      "d": 162.16220000000612,
      "v": 80
    },
    {
      "midi": 52,
      "hit": false,
      "t": 70135.15149999998,
      "d": 162.16220000000612,
      "v": 80
    },
    {
      "midi": 67,
      "hit": false,
      "t": 70135.15149999998,
      "d": 162.16220000000612,
      "v": 80
    },
    {
      "midi": 48,
      "hit": false,
      "t": 70337.85424999999,
      "d": 162.16220000000612,
      "v": 80
    },
    {
      "midi": 66,
      "hit": false,
      "t": 70337.85424999999,
      "d": 162.16220000000612,
      "v": 80
    },
    {
      "midi": 52,
      "hit": false,
      "t": 70540.557,
      "d": 324.3243999999977,
      "v": 80
    },
    {
      "midi": 59,
      "hit": false,
      "t": 70540.557,
      "d": 324.3243999999977,
      "v": 80
    },
    {
      "midi": 64,
      "hit": false,
      "t": 70540.557,
      "d": 324.3243999999977,
      "v": 80
    },
    {
      "midi": 55,
      "hit": false,
      "t": 70945.9625,
      "d": 162.16220000000612,
      "v": 80
    },
    {
      "midi": 59,
      "hit": false,
      "t": 71148.66525,
      "d": 162.16220000000612,
      "v": 80
    },
    {
      "midi": 55,
      "hit": false,
      "t": 71351.36800000002,
      "d": 162.16220000000612,
      "v": 80
    },
    {
      "midi": 52,
      "hit": false,
      "t": 71554.07075000003,
      "d": 162.16220000000612,
      "v": 80
    },
    {
      "midi": 59,
      "hit": false,
      "t": 71554.07075000003,
      "d": 162.16220000000612,
      "v": 80
    },
    {
      "midi": 52,
      "hit": false,
      "t": 71756.77350000004,
      "d": 324.3243999999977,
      "v": 80
    },
    {
      "midi": 59,
      "hit": false,
      "t": 71756.77350000004,
      "d": 324.3243999999977,
      "v": 80
    },
    {
      "midi": 64,
      "hit": false,
      "t": 71756.77350000004,
      "d": 324.3243999999977,
      "v": 80
    },
    {
      "midi": 59,
      "hit": false,
      "t": 72162.17900000003,
      "d": 162.16220000000612,
      "v": 80
    },
    {
      "midi": 64,
      "hit": false,
      "t": 72364.88175000004,
      "d": 162.16220000000612,
      "v": 80
    },
    {
      "midi": 59,
      "hit": false,
      "t": 72567.58450000006,
      "d": 162.16220000000612,
      "v": 80
    },
    {
      "midi": 55,
      "hit": false,
      "t": 72770.28725000007,
      "d": 162.16220000000612,
      "v": 80
    },
    {
      "midi": 59,
      "hit": false,
      "t": 72770.28725000007,
      "d": 162.16220000000612,
      "v": 80
    },
    {
      "midi": 52,
      "hit": false,
      "t": 72972.99000000008,
      "d": 324.3243999999977,
      "v": 80
    },
    {
      "midi": 59,
      "hit": false,
      "t": 72972.99000000008,
      "d": 324.3243999999977,
      "v": 80
    },
    {
      "midi": 64,
      "hit": false,
      "t": 72972.99000000008,
      "d": 324.3243999999977,
      "v": 80
    },
    {
      "midi": 55,
      "hit": false,
      "t": 73378.39550000007,
      "d": 162.16220000000612,
      "v": 80
    },
    {
      "midi": 59,
      "hit": false,
      "t": 73581.09825000008,
      "d": 162.16220000000612,
      "v": 80
    },
    {
      "midi": 55,
      "hit": false,
      "t": 73783.8010000001,
      "d": 162.16220000000612,
      "v": 80
    },
    {
      "midi": 52,
      "hit": false,
      "t": 73986.5037500001,
      "d": 162.16220000000612,
      "v": 80
    },
    {
      "midi": 59,
      "hit": false,
      "t": 73986.5037500001,
      "d": 162.16220000000612,
      "v": 80
    },
    {
      "midi": 52,
      "hit": false,
      "t": 74189.20650000012,
      "d": 324.3243999999977,
      "v": 80
    },
    {
      "midi": 59,
      "hit": false,
      "t": 74189.20650000012,
      "d": 324.3243999999977,
      "v": 80
    },
    {
      "midi": 64,
      "hit": false,
      "t": 74189.20650000012,
      "d": 324.3243999999977,
      "v": 80
    },
    {
      "midi": 59,
      "hit": false,
      "t": 74594.61200000011,
      "d": 162.16220000000612,
      "v": 80
    },
    {
      "midi": 64,
      "hit": false,
      "t": 74797.31475000012,
      "d": 162.16220000000612,
      "v": 80
    },
    {
      "midi": 59,
      "hit": false,
      "t": 75000.01750000013,
      "d": 162.16220000000612,
      "v": 80
    },
    {
      "midi": 55,
      "hit": false,
      "t": 75202.72025000014,
      "d": 162.16220000000612,
      "v": 80
    },
    {
      "midi": 57,
      "hit": false,
      "t": 75405.42300000016,
      "d": 324.3243999999977,
      "v": 80
    },
    {
      "midi": 64,
      "hit": false,
      "t": 75405.42300000016,
      "d": 324.3243999999977,
      "v": 80
    },
    {
      "midi": 69,
      "hit": false,
      "t": 75405.42300000016,
      "d": 324.3243999999977,
      "v": 80
    },
    {
      "midi": 60,
      "hit": false,
      "t": 75810.82850000015,
      "d": 162.16220000000612,
      "v": 80
    },
    {
      "midi": 57,
      "hit": false,
      "t": 76013.53125000016,
      "d": 162.16220000000612,
      "v": 80
    },
    {
      "midi": 64,
      "hit": false,
      "t": 76013.53125000016,
      "d": 162.16220000000612,
      "v": 80
    },
    {
      "midi": 60,
      "hit": false,
      "t": 76216.23400000017,
      "d": 162.16220000000612,
      "v": 80
    },
    {
      "midi": 57,
      "hit": false,
      "t": 76418.93675000018,
      "d": 162.16220000000612,
      "v": 80
    },
    {
      "midi": 57,
      "hit": false,
      "t": 76621.6395000002,
      "d": 324.3243999999977,
      "v": 80
    },
    {
      "midi": 64,
      "hit": false,
      "t": 76621.6395000002,
      "d": 324.3243999999977,
      "v": 80
    },
    {
      "midi": 69,
      "hit": false,
      "t": 76621.6395000002,
      "d": 324.3243999999977,
      "v": 80
    },
    {
      "midi": 64,
      "hit": false,
      "t": 77027.04500000019,
      "d": 162.16220000000612,
      "v": 80
    },
    {
      "midi": 57,
      "hit": false,
      "t": 77229.7477500002,
      "d": 162.16220000000612,
      "v": 80
    },
    {
      "midi": 69,
      "hit": false,
      "t": 77229.7477500002,
      "d": 162.16220000000612,
      "v": 80
    },
    {
      "midi": 64,
      "hit": false,
      "t": 77432.45050000021,
      "d": 162.16220000000612,
      "v": 80
    },
    {
      "midi": 57,
      "hit": false,
      "t": 77635.15325000022,
      "d": 162.16220000000612,
      "v": 80
    },
    {
      "midi": 60,
      "hit": false,
      "t": 77635.15325000022,
      "d": 162.16220000000612,
      "v": 80
    },
    {
      "midi": 57,
      "hit": false,
      "t": 77837.85600000023,
      "d": 324.3243999999977,
      "v": 80
    },
    {
      "midi": 64,
      "hit": false,
      "t": 77837.85600000023,
      "d": 324.3243999999977,
      "v": 80
    },
    {
      "midi": 69,
      "hit": false,
      "t": 77837.85600000023,
      "d": 324.3243999999977,
      "v": 80
    },
    {
      "midi": 60,
      "hit": false,
      "t": 78243.26150000023,
      "d": 162.16220000000612,
      "v": 80
    },
    {
      "midi": 64,
      "hit": false,
      "t": 78445.96425000024,
      "d": 162.16220000000612,
      "v": 80
    },
    {
      "midi": 60,
      "hit": false,
      "t": 78648.66700000025,
      "d": 162.16220000000612,
      "v": 80
    },
    {
      "midi": 57,
      "hit": false,
      "t": 78851.36975000026,
      "d": 162.16220000000612,
      "v": 80
    },
    {
      "midi": 57,
      "hit": false,
      "t": 79054.07250000027,
      "d": 324.3243999999977,
      "v": 80
    },
    {
      "midi": 64,
      "hit": false,
      "t": 79054.07250000027,
      "d": 324.3243999999977,
      "v": 80
    },
    {
      "midi": 64,
      "hit": false,
      "t": 79459.47800000026,
      "d": 162.16220000000612,
      "v": 80
    },
    {
      "midi": 60,
      "hit": false,
      "t": 79662.18075000028,
      "d": 162.16220000000612,
      "v": 80
    },
    {
      "midi": 69,
      "hit": false,
      "t": 79662.18075000028,
      "d": 162.16220000000612,
      "v": 80
    },
    {
      "midi": 64,
      "hit": false,
      "t": 79864.88350000029,
      "d": 162.16220000000612,
      "v": 80
    },
    {
      "midi": 57,
      "hit": false,
      "t": 80067.5862500003,
      "d": 162.16220000000612,
      "v": 80
    },
    {
      "midi": 60,
      "hit": false,
      "t": 80067.5862500003,
      "d": 162.16220000000612,
      "v": 80
    },
    {
      "midi": 50,
      "hit": false,
      "t": 80270.28900000031,
      "d": 324.3243999999977,
      "v": 80
    },
    {
      "midi": 57,
      "hit": false,
      "t": 80270.28900000031,
      "d": 324.3243999999977,
      "v": 80
    },
    {
      "midi": 62,
      "hit": false,
      "t": 80270.28900000031,
      "d": 324.3243999999977,
      "v": 80
    },
    {
      "midi": 54,
      "hit": false,
      "t": 80675.6945000003,
      "d": 162.16220000000612,
      "v": 80
    },
    {
      "midi": 57,
      "hit": false,
      "t": 80878.39725000031,
      "d": 162.16220000000612,
      "v": 80
    },
    {
      "midi": 62,
      "hit": false,
      "t": 80878.39725000031,
      "d": 162.16220000000612,
      "v": 80
    },
    {
      "midi": 54,
      "hit": false,
      "t": 81081.10000000033,
      "d": 162.16220000000612,
      "v": 80
    },
    {
      "midi": 57,
      "hit": false,
      "t": 81283.80275000034,
      "d": 162.16220000000612,
      "v": 80
    },
    {
      "midi": 62,
      "hit": false,
      "t": 81283.80275000034,
      "d": 162.16220000000612,
      "v": 80
    },
    {
      "midi": 50,
      "hit": false,
      "t": 81486.50550000035,
      "d": 324.3243999999977,
      "v": 80
    },
    {
      "midi": 57,
      "hit": false,
      "t": 81486.50550000035,
      "d": 324.3243999999977,
      "v": 80
    },
    {
      "midi": 62,
      "hit": false,
      "t": 81486.50550000035,
      "d": 324.3243999999977,
      "v": 80
    },
    {
      "midi": 57,
      "hit": false,
      "t": 81891.91100000034,
      "d": 162.16220000000612,
      "v": 80
    },
    {
      "midi": 62,
      "hit": false,
      "t": 82094.61375000035,
      "d": 162.16220000000612,
      "v": 80
    },
    {
      "midi": 57,
      "hit": false,
      "t": 82297.31650000036,
      "d": 162.16220000000612,
      "v": 80
    },
    {
      "midi": 54,
      "hit": false,
      "t": 82500.01925000038,
      "d": 162.16220000000612,
      "v": 80
    },
    {
      "midi": 62,
      "hit": false,
      "t": 82500.01925000038,
      "d": 162.16220000000612,
      "v": 80
    },
    {
      "midi": 46,
      "hit": false,
      "t": 82702.72200000039,
      "d": 324.3243999999977,
      "v": 80
    },
    {
      "midi": 53,
      "hit": false,
      "t": 82702.72200000039,
      "d": 324.3243999999977,
      "v": 80
    },
    {
      "midi": 58,
      "hit": false,
      "t": 82702.72200000039,
      "d": 324.3243999999977,
      "v": 80
    },
    {
      "midi": 65,
      "hit": false,
      "t": 82702.72200000039,
      "d": 324.3243999999977,
      "v": 80
    },
    {
      "midi": 50,
      "hit": false,
      "t": 83108.12750000038,
      "d": 162.16220000000612,
      "v": 80
    },
    {
      "midi": 53,
      "hit": false,
      "t": 83310.83025000039,
      "d": 162.16220000000612,
      "v": 80
    },
    {
      "midi": 58,
      "hit": false,
      "t": 83310.83025000039,
      "d": 162.16220000000612,
      "v": 80
    },
    {
      "midi": 77,
      "hit": false,
      "t": 83310.83025000039,
      "d": 162.16220000000612,
      "v": 80
    },
    {
      "midi": 50,
      "hit": false,
      "t": 83513.5330000004,
      "d": 162.16220000000612,
      "v": 80
    },
    {
      "midi": 58,
      "hit": false,
      "t": 83513.5330000004,
      "d": 162.16220000000612,
      "v": 80
    },
    {
      "midi": 74,
      "hit": false,
      "t": 83513.5330000004,
      "d": 162.16220000000612,
      "v": 80
    },
    {
      "midi": 46,
      "hit": false,
      "t": 83716.23575000041,
      "d": 162.16220000000612,
      "v": 80
    },
    {
      "midi": 58,
      "hit": false,
      "t": 83716.23575000041,
      "d": 162.16220000000612,
      "v": 80
    },
    {
      "midi": 77,
      "hit": false,
      "t": 83716.23575000041,
      "d": 162.16220000000612,
      "v": 80
    },
    {
      "midi": 48,
      "hit": false,
      "t": 83918.93850000043,
      "d": 324.3243999999977,
      "v": 80
    },
    {
      "midi": 55,
      "hit": false,
      "t": 83918.93850000043,
      "d": 324.3243999999977,
      "v": 80
    },
    {
      "midi": 62,
      "hit": false,
      "t": 83918.93850000043,
      "d": 324.3243999999977,
      "v": 80
    },
    {
      "midi": 52,
      "hit": false,
      "t": 84324.34400000042,
      "d": 162.16220000000612,
      "v": 80
    },
    {
      "midi": 55,
      "hit": false,
      "t": 84527.04675000043,
      "d": 162.16220000000612,
      "v": 80
    },
    {
      "midi": 62,
      "hit": false,
      "t": 84527.04675000043,
      "d": 162.16220000000612,
      "v": 80
    },
    {
      "midi": 74,
      "hit": false,
      "t": 84527.04675000043,
      "d": 162.16220000000612,
      "v": 80
    },
    {
      "midi": 52,
      "hit": false,
      "t": 84729.74950000044,
      "d": 162.16220000000612,
      "v": 80
    },
    {
      "midi": 67,
      "hit": false,
      "t": 84729.74950000044,
      "d": 162.16220000000612,
      "v": 80
    },
    {
      "midi": 48,
      "hit": false,
      "t": 84932.45225000045,
      "d": 162.16220000000612,
      "v": 80
    },
    {
      "midi": 62,
      "hit": false,
      "t": 84932.45225000045,
      "d": 162.16220000000612,
      "v": 80
    },
    {
      "midi": 74,
      "hit": false,
      "t": 84932.45225000045,
      "d": 162.16220000000612,
      "v": 80
    },
    {
      "midi": 42,
      "hit": false,
      "t": 85135.15500000046,
      "d": 972.9731999999931,
      "v": 80
    },
    {
      "midi": 42,
      "hit": false,
      "t": 86351.37150000046,
      "d": 972.9731999999931,
      "v": 80
    },
    {
      "midi": 54,
      "hit": false,
      "t": 86351.37150000046,
      "d": 972.9731999999931,
      "v": 80
    },
    {
      "midi": 57,
      "hit": false,
      "t": 86351.37150000046,
      "d": 972.9731999999931,
      "v": 80
    },
    {
      "midi": 61,
      "hit": false,
      "t": 86351.37150000046,
      "d": 972.9731999999931,
      "v": 80
    },
    {
      "midi": 52,
      "hit": false,
      "t": 87567.58800000045,
      "d": 972.9731999999931,
      "v": 80
    },
    {
      "midi": 52,
      "hit": false,
      "t": 88783.80450000045,
      "d": 972.9731999999931,
      "v": 80
    },
    {
      "midi": 57,
      "hit": false,
      "t": 88783.80450000045,
      "d": 972.9731999999931,
      "v": 80
    },
    {
      "midi": 61,
      "hit": false,
      "t": 88783.80450000045,
      "d": 972.9731999999931,
      "v": 80
    },
    {
      "midi": 50,
      "hit": false,
      "t": 90000.02100000044,
      "d": 1175.6759500000335,
      "v": 80
    },
    {
      "midi": 57,
      "hit": false,
      "t": 90608.12925000045,
      "d": 162.16220000000612,
      "v": 80
    },
    {
      "midi": 54,
      "hit": false,
      "t": 90810.83200000046,
      "d": 162.16220000000612,
      "v": 80
    },
    {
      "midi": 57,
      "hit": false,
      "t": 91013.53475000047,
      "d": 162.16220000000612,
      "v": 80
    },
    {
      "midi": 57,
      "hit": false,
      "t": 91216.23750000048,
      "d": 486.4866000000038,
      "v": 80
    },
    {
      "midi": 62,
      "hit": false,
      "t": 91216.23750000048,
      "d": 486.4866000000038,
      "v": 80
    },
    {
      "midi": 50,
      "hit": false,
      "t": 91216.23750000048,
      "d": 1175.6759500000335,
      "v": 80
    },
    {
      "midi": 57,
      "hit": false,
      "t": 91824.34575000049,
      "d": 162.16220000000612,
      "v": 80
    },
    {
      "midi": 54,
      "hit": false,
      "t": 92027.0485000005,
      "d": 162.16220000000612,
      "v": 80
    },
    {
      "midi": 57,
      "hit": false,
      "t": 92229.75125000051,
      "d": 162.16220000000612,
      "v": 80
    },
    {
      "midi": 59,
      "hit": false,
      "t": 92432.45400000052,
      "d": 486.4866000000038,
      "v": 80
    },
    {
      "midi": 52,
      "hit": false,
      "t": 92432.45400000052,
      "d": 1175.6759500000335,
      "v": 80
    },
    {
      "midi": 59,
      "hit": false,
      "t": 93040.56225000053,
      "d": 162.16220000000612,
      "v": 80
    },
    {
      "midi": 56,
      "hit": false,
      "t": 93243.26500000054,
      "d": 162.16220000000612,
      "v": 80
    },
    {
      "midi": 59,
      "hit": false,
      "t": 93445.96775000055,
      "d": 162.16220000000612,
      "v": 80
    },
    {
      "midi": 59,
      "hit": false,
      "t": 93648.67050000056,
      "d": 486.4866000000038,
      "v": 80
    },
    {
      "midi": 64,
      "hit": false,
      "t": 93648.67050000056,
      "d": 486.4866000000038,
      "v": 80
    },
    {
      "midi": 52,
      "hit": false,
      "t": 93648.67050000056,
      "d": 1175.6759500000335,
      "v": 80
    },
    {
      "midi": 59,
      "hit": false,
      "t": 94256.77875000057,
      "d": 162.16220000000612,
      "v": 80
    },
    {
      "midi": 56,
      "hit": false,
      "t": 94459.48150000058,
      "d": 162.16220000000612,
      "v": 80
    },
    {
      "midi": 59,
      "hit": false,
      "t": 94662.18425000059,
      "d": 162.16220000000612,
      "v": 80
    },
    {
      "midi": 64,
      "hit": false,
      "t": 94662.18425000059,
      "d": 162.16220000000612,
      "v": 80
    },
    {
      "midi": 55,
      "hit": false,
      "t": 126486.5160000006,
      "d": 1141.8921583333286,
      "v": 80
    },
    {
      "midi": 67,
      "hit": false,
      "t": 127702.7325000006,
      "d": 324.3243999999977,
      "v": 80
    },
    {
      "midi": 62,
      "hit": false,
      "t": 128108.13800000059,
      "d": 162.16220000000612,
      "v": 80
    },
    {
      "midi": 60,
      "hit": false,
      "t": 128310.8407500006,
      "d": 324.3243999999977,
      "v": 80
    },
    {
      "midi": 59,
      "hit": false,
      "t": 128716.2462500006,
      "d": 162.16220000000612,
      "v": 80
    },
    {
      "midi": 55,
      "hit": false,
      "t": 128918.9490000006,
      "d": 972.9731999999931,
      "v": 80
    },
    {
      "midi": 71,
      "hit": false,
      "t": 130135.1655000006,
      "d": 324.3243999999977,
      "v": 80
    },
    {
      "midi": 67,
      "hit": false,
      "t": 130540.5710000006,
      "d": 162.16220000000612,
      "v": 80
    },
    {
      "midi": 62,
      "hit": false,
      "t": 130743.2737500006,
      "d": 162.16220000000612,
      "v": 80
    },
    {
      "midi": 60,
      "hit": false,
      "t": 130945.97650000062,
      "d": 162.16220000000612,
      "v": 80
    },
    {
      "midi": 59,
      "hit": false,
      "t": 131148.67925000063,
      "d": 162.16219999999157,
      "v": 80
    },
    {
      "midi": 57,
      "hit": false,
      "t": 131351.38200000062,
      "d": 486.4866000000038,
      "v": 80
    },
    {
      "midi": 57,
      "hit": false,
      "t": 131959.4902500006,
      "d": 324.32440000001225,
      "v": 80
    },
    {
      "midi": 57,
      "hit": false,
      "t": 132364.89575000064,
      "d": 162.16219999999157,
      "v": 80
    },
    {
      "midi": 64,
      "hit": false,
      "t": 132567.59850000063,
      "d": 972.9732000000076,
      "v": 80
    },
    {
      "midi": 55,
      "hit": false,
      "t": 145945.98000000065,
      "d": 648.6487999999954,
      "v": 80
    },
    {
      "midi": 60,
      "hit": false,
      "t": 145945.98000000065,
      "d": 648.6487999999954,
      "v": 80
    },
    {
      "midi": 67,
      "hit": false,
      "t": 145945.98000000065,
      "d": 648.6487999999954,
      "v": 80
    },
    {
      "midi": 60,
      "hit": false,
      "t": 146756.79100000064,
      "d": 162.16219999999157,
      "v": 80
    },
    {
      "midi": 60,
      "hit": false,
      "t": 146959.49375000063,
      "d": 162.16219999999157,
      "v": 80
    },
    {
      "midi": 55,
      "hit": false,
      "t": 147162.19650000063,
      "d": 486.4866000000038,
      "v": 80
    },
    {
      "midi": 59,
      "hit": false,
      "t": 147162.19650000063,
      "d": 486.4866000000038,
      "v": 80
    },
    {
      "midi": 67,
      "hit": false,
      "t": 147162.19650000063,
      "d": 486.4866000000038,
      "v": 80
    },
    {
      "midi": 55,
      "hit": false,
      "t": 147770.30475000062,
      "d": 162.16219999999157,
      "v": 80
    },
    {
      "midi": 59,
      "hit": false,
      "t": 147973.00750000062,
      "d": 162.16219999999157,
      "v": 80
    },
    {
      "midi": 62,
      "hit": false,
      "t": 148175.71025000061,
      "d": 162.16219999999157,
      "v": 80
    },
    {
      "midi": 55,
      "hit": false,
      "t": 148378.4130000006,
      "d": 648.6487999999954,
      "v": 80
    },
    {
      "midi": 60,
      "hit": false,
      "t": 148378.4130000006,
      "d": 648.6487999999954,
      "v": 80
    },
    {
      "midi": 67,
      "hit": false,
      "t": 148378.4130000006,
      "d": 648.6487999999954,
      "v": 80
    },
    {
      "midi": 60,
      "hit": false,
      "t": 149189.2240000006,
      "d": 162.16219999999157,
      "v": 80
    },
    {
      "midi": 60,
      "hit": false,
      "t": 149391.9267500006,
      "d": 162.16219999999157,
      "v": 80
    },
    {
      "midi": 55,
      "hit": false,
      "t": 149594.6295000006,
      "d": 486.4866000000038,
      "v": 80
    },
    {
      "midi": 59,
      "hit": false,
      "t": 149594.6295000006,
      "d": 486.4866000000038,
      "v": 80
    },
    {
      "midi": 67,
      "hit": false,
      "t": 149594.6295000006,
      "d": 486.4866000000038,
      "v": 80
    },
    {
      "midi": 55,
      "hit": false,
      "t": 150202.73775000058,
      "d": 162.16219999999157,
      "v": 80
    },
    {
      "midi": 59,
      "hit": false,
      "t": 150405.44050000058,
      "d": 162.16219999999157,
      "v": 80
    },
    {
      "midi": 62,
      "hit": false,
      "t": 150608.14325000058,
      "d": 162.16219999999157,
      "v": 80
    },
    {
      "midi": 57,
      "hit": false,
      "t": 150810.84600000057,
      "d": 486.4866000000038,
      "v": 80
    },
    {
      "midi": 60,
      "hit": false,
      "t": 150810.84600000057,
      "d": 486.4866000000038,
      "v": 80
    },
    {
      "midi": 69,
      "hit": false,
      "t": 150810.84600000057,
      "d": 486.4866000000038,
      "v": 80
    },
    {
      "midi": 64,
      "hit": false,
      "t": 151418.95425000056,
      "d": 162.16219999999157,
      "v": 80
    },
    {
      "midi": 67,
      "hit": false,
      "t": 151621.65700000056,
      "d": 162.16219999999157,
      "v": 80
    },
    {
      "midi": 64,
      "hit": false,
      "t": 151824.35975000056,
      "d": 162.16219999999157,
      "v": 80
    },
    {
      "midi": 60,
      "hit": false,
      "t": 152027.06250000055,
      "d": 486.4866000000038,
      "v": 80
    },
    {
      "midi": 69,
      "hit": false,
      "t": 152027.06250000055,
      "d": 486.4866000000038,
      "v": 80
    },
    {
      "midi": 64,
      "hit": false,
      "t": 152635.17075000054,
      "d": 162.16219999999157,
      "v": 80
    },
    {
      "midi": 69,
      "hit": false,
      "t": 152837.87350000054,
      "d": 162.16219999999157,
      "v": 80
    },
    {
      "midi": 64,
      "hit": false,
      "t": 153040.57625000054,
      "d": 162.16219999999157,
      "v": 80
    },
    {
      "midi": 57,
      "hit": false,
      "t": 153243.27900000053,
      "d": 972.9732000000076,
      "v": 80
    },
    {
      "midi": 60,
      "hit": false,
      "t": 153243.27900000053,
      "d": 972.9732000000076,
      "v": 80
    },
    {
      "midi": 69,
      "hit": false,
      "t": 153243.27900000053,
      "d": 972.9732000000076,
      "v": 80
    },
    {
      "midi": 64,
      "hit": false,
      "t": 154256.79275000055,
      "d": 162.16219999999157,
      "v": 80
    },
    {
      "midi": 57,
      "hit": false,
      "t": 154459.49550000054,
      "d": 324.32440000001225,
      "v": 80
    },
    {
      "midi": 60,
      "hit": false,
      "t": 154459.49550000054,
      "d": 324.32440000001225,
      "v": 80
    },
    {
      "midi": 69,
      "hit": false,
      "t": 154459.49550000054,
      "d": 324.32440000001225,
      "v": 80
    },
    {
      "midi": 60,
      "hit": false,
      "t": 154864.90100000057,
      "d": 162.16219999999157,
      "v": 80
    },
    {
      "midi": 57,
      "hit": false,
      "t": 155067.60375000056,
      "d": 162.16219999999157,
      "v": 80
    },
    {
      "midi": 67,
      "hit": false,
      "t": 155067.60375000056,
      "d": 162.16219999999157,
      "v": 80
    },
    {
      "midi": 52,
      "hit": false,
      "t": 155270.30650000056,
      "d": 162.16219999999157,
      "v": 80
    },
    {
      "midi": 67,
      "hit": false,
      "t": 155270.30650000056,
      "d": 162.16219999999157,
      "v": 80
    },
    {
      "midi": 48,
      "hit": false,
      "t": 155473.00925000056,
      "d": 162.16219999999157,
      "v": 80
    },
    {
      "midi": 66,
      "hit": false,
      "t": 155473.00925000056,
      "d": 162.16219999999157,
      "v": 80
    },
    {
      "midi": 52,
      "hit": false,
      "t": 155675.71200000055,
      "d": 324.32440000001225,
      "v": 80
    },
    {
      "midi": 59,
      "hit": false,
      "t": 155675.71200000055,
      "d": 324.32440000001225,
      "v": 80
    },
    {
      "midi": 64,
      "hit": false,
      "t": 155675.71200000055,
      "d": 324.32440000001225,
      "v": 80
    },
    {
      "midi": 55,
      "hit": false,
      "t": 156081.11750000058,
      "d": 162.16219999999157,
      "v": 80
    },
    {
      "midi": 59,
      "hit": false,
      "t": 156283.82025000057,
      "d": 162.16219999999157,
      "v": 80
    },
    {
      "midi": 55,
      "hit": false,
      "t": 156486.52300000057,
      "d": 162.16219999999157,
      "v": 80
    },
    {
      "midi": 52,
      "hit": false,
      "t": 156689.22575000057,
      "d": 162.16219999999157,
      "v": 80
    },
    {
      "midi": 59,
      "hit": false,
      "t": 156689.22575000057,
      "d": 162.16219999999157,
      "v": 80
    },
    {
      "midi": 52,
      "hit": false,
      "t": 156891.92850000056,
      "d": 324.32440000001225,
      "v": 80
    },
    {
      "midi": 59,
      "hit": false,
      "t": 156891.92850000056,
      "d": 324.32440000001225,
      "v": 80
    },
    {
      "midi": 64,
      "hit": false,
      "t": 156891.92850000056,
      "d": 324.32440000001225,
      "v": 80
    },
    {
      "midi": 59,
      "hit": false,
      "t": 157297.33400000058,
      "d": 162.16219999999157,
      "v": 80
    },
    {
      "midi": 64,
      "hit": false,
      "t": 157500.03675000058,
      "d": 162.16219999999157,
      "v": 80
    },
    {
      "midi": 59,
      "hit": false,
      "t": 157702.73950000058,
      "d": 162.16219999999157,
      "v": 80
    },
    {
      "midi": 55,
      "hit": false,
      "t": 157905.44225000057,
      "d": 162.16219999999157,
      "v": 80
    },
    {
      "midi": 59,
      "hit": false,
      "t": 157905.44225000057,
      "d": 162.16219999999157,
      "v": 80
    },
    {
      "midi": 52,
      "hit": false,
      "t": 158108.14500000057,
      "d": 324.32440000001225,
      "v": 80
    },
    {
      "midi": 59,
      "hit": false,
      "t": 158108.14500000057,
      "d": 324.32440000001225,
      "v": 80
    },
    {
      "midi": 64,
      "hit": false,
      "t": 158108.14500000057,
      "d": 324.32440000001225,
      "v": 80
    },
    {
      "midi": 55,
      "hit": false,
      "t": 158513.5505000006,
      "d": 162.16219999999157,
      "v": 80
    },
    {
      "midi": 59,
      "hit": false,
      "t": 158716.2532500006,
      "d": 162.16219999999157,
      "v": 80
    },
    {
      "midi": 55,
      "hit": false,
      "t": 158918.9560000006,
      "d": 162.16219999999157,
      "v": 80
    },
    {
      "midi": 52,
      "hit": false,
      "t": 159121.65875000058,
      "d": 162.16219999999157,
      "v": 80
    },
    {
      "midi": 59,
      "hit": false,
      "t": 159121.65875000058,
      "d": 162.16219999999157,
      "v": 80
    },
    {
      "midi": 52,
      "hit": false,
      "t": 159324.36150000058,
      "d": 324.32440000001225,
      "v": 80
    },
    {
      "midi": 59,
      "hit": false,
      "t": 159324.36150000058,
      "d": 324.32440000001225,
      "v": 80
    },
    {
      "midi": 64,
      "hit": false,
      "t": 159324.36150000058,
      "d": 324.32440000001225,
      "v": 80
    },
    {
      "midi": 59,
      "hit": false,
      "t": 159729.7670000006,
      "d": 162.16219999999157,
      "v": 80
    },
    {
      "midi": 64,
      "hit": false,
      "t": 159932.4697500006,
      "d": 162.16219999999157,
      "v": 80
    },
    {
      "midi": 59,
      "hit": false,
      "t": 160135.1725000006,
      "d": 162.16219999999157,
      "v": 80
    },
    {
      "midi": 55,
      "hit": false,
      "t": 160337.8752500006,
      "d": 162.16219999999157,
      "v": 80
    },
    {
      "midi": 57,
      "hit": false,
      "t": 160540.5780000006,
      "d": 324.32440000001225,
      "v": 80
    },
    {
      "midi": 64,
      "hit": false,
      "t": 160540.5780000006,
      "d": 324.32440000001225,
      "v": 80
    },
    {
      "midi": 69,
      "hit": false,
      "t": 160540.5780000006,
      "d": 324.32440000001225,
      "v": 80
    },
    {
      "midi": 60,
      "hit": false,
      "t": 160945.9835000006,
      "d": 162.16219999999157,
      "v": 80
    },
    {
      "midi": 57,
      "hit": false,
      "t": 161148.6862500006,
      "d": 162.16219999999157,
      "v": 80
    },
    {
      "midi": 64,
      "hit": false,
      "t": 161148.6862500006,
      "d": 162.16219999999157,
      "v": 80
    },
    {
      "midi": 60,
      "hit": false,
      "t": 161351.3890000006,
      "d": 162.16219999999157,
      "v": 80
    },
    {
      "midi": 57,
      "hit": false,
      "t": 161554.0917500006,
      "d": 162.16219999999157,
      "v": 80
    },
    {
      "midi": 57,
      "hit": false,
      "t": 161756.7945000006,
      "d": 324.32440000001225,
      "v": 80
    },
    {
      "midi": 64,
      "hit": false,
      "t": 161756.7945000006,
      "d": 324.32440000001225,
      "v": 80
    },
    {
      "midi": 69,
      "hit": false,
      "t": 161756.7945000006,
      "d": 324.32440000001225,
      "v": 80
    },
    {
      "midi": 64,
      "hit": false,
      "t": 162162.20000000062,
      "d": 162.16219999999157,
      "v": 80
    },
    {
      "midi": 57,
      "hit": false,
      "t": 162364.90275000062,
      "d": 162.16219999999157,
      "v": 80
    },
    {
      "midi": 69,
      "hit": false,
      "t": 162364.90275000062,
      "d": 162.16219999999157,
      "v": 80
    },
    {
      "midi": 64,
      "hit": false,
      "t": 162567.60550000062,
      "d": 162.16219999999157,
      "v": 80
    },
    {
      "midi": 57,
      "hit": false,
      "t": 162770.3082500006,
      "d": 162.16219999999157,
      "v": 80
    },
    {
      "midi": 60,
      "hit": false,
      "t": 162770.3082500006,
      "d": 162.16219999999157,
      "v": 80
    },
    {
      "midi": 57,
      "hit": false,
      "t": 162973.0110000006,
      "d": 324.32440000001225,
      "v": 80
    },
    {
      "midi": 64,
      "hit": false,
      "t": 162973.0110000006,
      "d": 324.32440000001225,
      "v": 80
    },
    {
      "midi": 69,
      "hit": false,
      "t": 162973.0110000006,
      "d": 324.32440000001225,
      "v": 80
    },
    {
      "midi": 60,
      "hit": false,
      "t": 163378.41650000063,
      "d": 162.16219999999157,
      "v": 80
    },
    {
      "midi": 64,
      "hit": false,
      "t": 163581.11925000063,
      "d": 162.16219999999157,
      "v": 80
    },
    {
      "midi": 60,
      "hit": false,
      "t": 163783.82200000063,
      "d": 162.16219999999157,
      "v": 80
    },
    {
      "midi": 57,
      "hit": false,
      "t": 163986.52475000062,
      "d": 162.16219999999157,
      "v": 80
    },
    {
      "midi": 57,
      "hit": false,
      "t": 164189.22750000062,
      "d": 324.32440000001225,
      "v": 80
    },
    {
      "midi": 64,
      "hit": false,
      "t": 164189.22750000062,
      "d": 324.32440000001225,
      "v": 80
    },
    {
      "midi": 69,
      "hit": false,
      "t": 164189.22750000062,
      "d": 324.32440000001225,
      "v": 80
    },
    {
      "midi": 64,
      "hit": false,
      "t": 164594.63300000064,
      "d": 162.16219999999157,
      "v": 80
    },
    {
      "midi": 60,
      "hit": false,
      "t": 164797.33575000064,
      "d": 162.16219999999157,
      "v": 80
    },
    {
      "midi": 69,
      "hit": false,
      "t": 164797.33575000064,
      "d": 162.16219999999157,
      "v": 80
    },
    {
      "midi": 64,
      "hit": false,
      "t": 165000.03850000064,
      "d": 162.16219999999157,
      "v": 80
    },
    {
      "midi": 57,
      "hit": false,
      "t": 165202.74125000063,
      "d": 162.16219999999157,
      "v": 80
    },
    {
      "midi": 60,
      "hit": false,
      "t": 165202.74125000063,
      "d": 162.16219999999157,
      "v": 80
    },
    {
      "midi": 50,
      "hit": false,
      "t": 165405.44400000063,
      "d": 324.32440000001225,
      "v": 80
    },
    {
      "midi": 57,
      "hit": false,
      "t": 165405.44400000063,
      "d": 324.32440000001225,
      "v": 80
    },
    {
      "midi": 62,
      "hit": false,
      "t": 165405.44400000063,
      "d": 324.32440000001225,
      "v": 80
    },
    {
      "midi": 54,
      "hit": false,
      "t": 165810.84950000065,
      "d": 162.16219999999157,
      "v": 80
    },
    {
      "midi": 57,
      "hit": false,
      "t": 166013.55225000065,
      "d": 162.16219999999157,
      "v": 80
    },
    {
      "midi": 62,
      "hit": false,
      "t": 166013.55225000065,
      "d": 162.16219999999157,
      "v": 80
    },
    {
      "midi": 54,
      "hit": false,
      "t": 166216.25500000064,
      "d": 162.16219999999157,
      "v": 80
    },
    {
      "midi": 57,
      "hit": false,
      "t": 166418.95775000064,
      "d": 162.16219999999157,
      "v": 80
    },
    {
      "midi": 62,
      "hit": false,
      "t": 166418.95775000064,
      "d": 162.16219999999157,
      "v": 80
    },
    {
      "midi": 50,
      "hit": false,
      "t": 166621.66050000064,
      "d": 324.32440000001225,
      "v": 80
    },
    {
      "midi": 57,
      "hit": false,
      "t": 166621.66050000064,
      "d": 324.32440000001225,
      "v": 80
    },
    {
      "midi": 62,
      "hit": false,
      "t": 166621.66050000064,
      "d": 324.32440000001225,
      "v": 80
    },
    {
      "midi": 69,
      "hit": false,
      "t": 166621.66050000064,
      "d": 324.32440000001225,
      "v": 80
    },
    {
      "midi": 74,
      "hit": false,
      "t": 166621.66050000064,
      "d": 324.32440000001225,
      "v": 80
    },
    {
      "midi": 57,
      "hit": false,
      "t": 167027.06600000066,
      "d": 162.16219999999157,
      "v": 80
    },
    {
      "midi": 62,
      "hit": false,
      "t": 167229.76875000066,
      "d": 162.16219999999157,
      "v": 80
    },
    {
      "midi": 69,
      "hit": false,
      "t": 167229.76875000066,
      "d": 162.16219999999157,
      "v": 80
    },
    {
      "midi": 57,
      "hit": false,
      "t": 167432.47150000065,
      "d": 162.16219999999157,
      "v": 80
    },
    {
      "midi": 62,
      "hit": false,
      "t": 167432.47150000065,
      "d": 162.16219999999157,
      "v": 80
    },
    {
      "midi": 54,
      "hit": false,
      "t": 167635.17425000065,
      "d": 162.16219999999157,
      "v": 80
    },
    {
      "midi": 62,
      "hit": false,
      "t": 167635.17425000065,
      "d": 162.16219999999157,
      "v": 80
    },
    {
      "midi": 69,
      "hit": false,
      "t": 167635.17425000065,
      "d": 162.16219999999157,
      "v": 80
    },
    {
      "midi": 46,
      "hit": false,
      "t": 167837.87700000065,
      "d": 324.32440000001225,
      "v": 80
    },
    {
      "midi": 53,
      "hit": false,
      "t": 167837.87700000065,
      "d": 324.32440000001225,
      "v": 80
    },
    {
      "midi": 58,
      "hit": false,
      "t": 167837.87700000065,
      "d": 324.32440000001225,
      "v": 80
    },
    {
      "midi": 65,
      "hit": false,
      "t": 167837.87700000065,
      "d": 324.32440000001225,
      "v": 80
    },
    {
      "midi": 65,
      "hit": false,
      "t": 168243.28250000067,
      "d": 324.32440000001225,
      "v": 80
    },
    {
      "midi": 74,
      "hit": false,
      "t": 168243.28250000067,
      "d": 324.32440000001225,
      "v": 80
    },
    {
      "midi": 77,
      "hit": false,
      "t": 168243.28250000067,
      "d": 324.32440000001225,
      "v": 80
    },
    {
      "midi": 65,
      "hit": false,
      "t": 168648.6880000007,
      "d": 324.32440000001225,
      "v": 80
    },
    {
      "midi": 74,
      "hit": false,
      "t": 168648.6880000007,
      "d": 324.32440000001225,
      "v": 80
    },
    {
      "midi": 48,
      "hit": false,
      "t": 169054.09350000072,
      "d": 324.32440000001225,
      "v": 80
    },
    {
      "midi": 55,
      "hit": false,
      "t": 169054.09350000072,
      "d": 324.32440000001225,
      "v": 80
    },
    {
      "midi": 62,
      "hit": false,
      "t": 169054.09350000072,
      "d": 324.32440000001225,
      "v": 80
    },
    {
      "midi": 52,
      "hit": false,
      "t": 169459.49900000074,
      "d": 162.16219999999157,
      "v": 80
    },
    {
      "midi": 55,
      "hit": false,
      "t": 169662.20175000074,
      "d": 162.16219999999157,
      "v": 80
    },
    {
      "midi": 62,
      "hit": false,
      "t": 169662.20175000074,
      "d": 162.16219999999157,
      "v": 80
    },
    {
      "midi": 74,
      "hit": false,
      "t": 169662.20175000074,
      "d": 162.16219999999157,
      "v": 80
    },
    {
      "midi": 52,
      "hit": false,
      "t": 169864.90450000073,
      "d": 162.16219999999157,
      "v": 80
    },
    {
      "midi": 67,
      "hit": false,
      "t": 169864.90450000073,
      "d": 162.16219999999157,
      "v": 80
    },
    {
      "midi": 42,
      "hit": false,
      "t": 170270.31000000073,
      "d": 972.9732000000076,
      "v": 80
    },
    {
      "midi": 42,
      "hit": false,
      "t": 171486.52650000073,
      "d": 972.9732000000076,
      "v": 80
    },
    {
      "midi": 54,
      "hit": false,
      "t": 171486.52650000073,
      "d": 972.9732000000076,
      "v": 80
    },
    {
      "midi": 57,
      "hit": false,
      "t": 171486.52650000073,
      "d": 972.9732000000076,
      "v": 80
    },
    {
      "midi": 61,
      "hit": false,
      "t": 171486.52650000073,
      "d": 972.9732000000076,
      "v": 80
    },
    {
      "midi": 52,
      "hit": false,
      "t": 172702.74300000074,
      "d": 972.9732000000076,
      "v": 80
    },
    {
      "midi": 52,
      "hit": false,
      "t": 173918.95950000075,
      "d": 972.9732000000076,
      "v": 80
    },
    {
      "midi": 57,
      "hit": false,
      "t": 173918.95950000075,
      "d": 972.9732000000076,
      "v": 80
    },
    {
      "midi": 61,
      "hit": false,
      "t": 173918.95950000075,
      "d": 972.9732000000076,
      "v": 80
    },
    {
      "midi": 50,
      "hit": false,
      "t": 175135.17600000076,
      "d": 1175.6759499999753,
      "v": 80
    },
    {
      "midi": 57,
      "hit": false,
      "t": 175743.28425000075,
      "d": 162.16219999999157,
      "v": 80
    },
    {
      "midi": 54,
      "hit": false,
      "t": 175945.98700000075,
      "d": 162.16219999999157,
      "v": 80
    },
    {
      "midi": 57,
      "hit": false,
      "t": 176148.68975000075,
      "d": 162.16219999999157,
      "v": 80
    },
    {
      "midi": 57,
      "hit": false,
      "t": 176351.39250000074,
      "d": 486.4866000000038,
      "v": 80
    },
    {
      "midi": 62,
      "hit": false,
      "t": 176351.39250000074,
      "d": 486.4866000000038,
      "v": 80
    },
    {
      "midi": 50,
      "hit": false,
      "t": 176351.39250000074,
      "d": 1175.6759499999753,
      "v": 80
    },
    {
      "midi": 57,
      "hit": false,
      "t": 176959.50075000073,
      "d": 162.16219999999157,
      "v": 80
    },
    {
      "midi": 54,
      "hit": false,
      "t": 177162.20350000073,
      "d": 162.16219999999157,
      "v": 80
    },
    {
      "midi": 57,
      "hit": false,
      "t": 177364.90625000073,
      "d": 162.16219999999157,
      "v": 80
    },
    {
      "midi": 59,
      "hit": false,
      "t": 177567.60900000072,
      "d": 486.4866000000038,
      "v": 80
    },
    {
      "midi": 52,
      "hit": false,
      "t": 177567.60900000072,
      "d": 1175.6759499999753,
      "v": 80
    },
    {
      "midi": 59,
      "hit": false,
      "t": 178175.71725000071,
      "d": 162.16219999999157,
      "v": 80
    },
    {
      "midi": 56,
      "hit": false,
      "t": 178378.4200000007,
      "d": 162.16219999999157,
      "v": 80
    },
    {
      "midi": 59,
      "hit": false,
      "t": 178581.1227500007,
      "d": 162.16219999999157,
      "v": 80
    },
    {
      "midi": 59,
      "hit": false,
      "t": 178783.8255000007,
      "d": 486.4866000000038,
      "v": 80
    },
    {
      "midi": 64,
      "hit": false,
      "t": 178783.8255000007,
      "d": 486.4866000000038,
      "v": 80
    },
    {
      "midi": 52,
      "hit": false,
      "t": 178783.8255000007,
      "d": 1175.6759499999753,
      "v": 80
    },
    {
      "midi": 59,
      "hit": false,
      "t": 179391.9337500007,
      "d": 162.16219999999157,
      "v": 80
    },
    {
      "midi": 56,
      "hit": false,
      "t": 179594.6365000007,
      "d": 162.16219999999157,
      "v": 80
    },
    {
      "midi": 59,
      "hit": false,
      "t": 179797.3392500007,
      "d": 162.16219999999157,
      "v": 80
    },
    {
      "midi": 64,
      "hit": false,
      "t": 179797.3392500007,
      "d": 162.16219999999157,
      "v": 80
    },
    {
      "midi": 42,
      "hit": false,
      "t": 189729.77400000067,
      "d": 972.9732000000076,
      "v": 80
    },
    {
      "midi": 42,
      "hit": false,
      "t": 190945.99050000068,
      "d": 972.9732000000076,
      "v": 80
    },
    {
      "midi": 54,
      "hit": false,
      "t": 190945.99050000068,
      "d": 972.9732000000076,
      "v": 80
    },
    {
      "midi": 57,
      "hit": false,
      "t": 190945.99050000068,
      "d": 972.9732000000076,
      "v": 80
    },
    {
      "midi": 61,
      "hit": false,
      "t": 190945.99050000068,
      "d": 972.9732000000076,
      "v": 80
    },
    {
      "midi": 52,
      "hit": false,
      "t": 192162.2070000007,
      "d": 972.9732000000076,
      "v": 80
    },
    {
      "midi": 52,
      "hit": false,
      "t": 193378.4235000007,
      "d": 972.9732000000076,
      "v": 80
    },
    {
      "midi": 57,
      "hit": false,
      "t": 193378.4235000007,
      "d": 972.9732000000076,
      "v": 80
    },
    {
      "midi": 61,
      "hit": false,
      "t": 193378.4235000007,
      "d": 972.9732000000076,
      "v": 80
    },
    {
      "midi": 50,
      "hit": false,
      "t": 194594.6400000007,
      "d": 1175.6759499999753,
      "v": 80
    },
    {
      "midi": 57,
      "hit": false,
      "t": 195202.7482500007,
      "d": 162.16219999999157,
      "v": 80
    },
    {
      "midi": 54,
      "hit": false,
      "t": 195405.4510000007,
      "d": 162.16219999999157,
      "v": 80
    },
    {
      "midi": 57,
      "hit": false,
      "t": 195608.1537500007,
      "d": 162.16219999999157,
      "v": 80
    },
    {
      "midi": 57,
      "hit": false,
      "t": 195810.8565000007,
      "d": 486.4866000000038,
      "v": 80
    },
    {
      "midi": 62,
      "hit": false,
      "t": 195810.8565000007,
      "d": 486.4866000000038,
      "v": 80
    },
    {
      "midi": 50,
      "hit": false,
      "t": 195810.8565000007,
      "d": 1175.6759499999753,
      "v": 80
    },
    {
      "midi": 57,
      "hit": false,
      "t": 196418.96475000068,
      "d": 162.16219999999157,
      "v": 80
    },
    {
      "midi": 54,
      "hit": false,
      "t": 196621.66750000068,
      "d": 162.16219999999157,
      "v": 80
    },
    {
      "midi": 57,
      "hit": false,
      "t": 196824.37025000068,
      "d": 162.16219999999157,
      "v": 80
    },
    {
      "midi": 59,
      "hit": false,
      "t": 197027.07300000067,
      "d": 486.4866000000038,
      "v": 80
    },
    {
      "midi": 52,
      "hit": false,
      "t": 197027.07300000067,
      "d": 1175.6759499999753,
      "v": 80
    },
    {
      "midi": 59,
      "hit": false,
      "t": 197635.18125000066,
      "d": 162.16219999999157,
      "v": 80
    },
    {
      "midi": 56,
      "hit": false,
      "t": 197837.88400000066,
      "d": 162.16219999999157,
      "v": 80
    },
    {
      "midi": 59,
      "hit": false,
      "t": 198040.58675000066,
      "d": 162.16219999999157,
      "v": 80
    },
    {
      "midi": 59,
      "hit": false,
      "t": 198243.28950000065,
      "d": 486.4866000000038,
      "v": 80
    },
    {
      "midi": 64,
      "hit": false,
      "t": 198243.28950000065,
      "d": 486.4866000000038,
      "v": 80
    },
    {
      "midi": 52,
      "hit": false,
      "t": 198243.28950000065,
      "d": 1175.6759499999753,
      "v": 80
    },
    {
      "midi": 59,
      "hit": false,
      "t": 198851.39775000064,
      "d": 162.16219999999157,
      "v": 80
    },
    {
      "midi": 56,
      "hit": false,
      "t": 199054.10050000064,
      "d": 162.16219999999157,
      "v": 80
    },
    {
      "midi": 59,
      "hit": false,
      "t": 199256.80325000064,
      "d": 162.16219999999157,
      "v": 80
    },
    {
      "midi": 64,
      "hit": false,
      "t": 199256.80325000064,
      "d": 162.16219999999157,
      "v": 80
    },
    {
      "midi": 55,
      "hit": false,
      "t": 211621.67100000064,
      "d": 1141.8921583333286,
      "v": 80
    },
    {
      "midi": 60,
      "hit": false,
      "t": 211621.67100000064,
      "d": 1141.8921583333286,
      "v": 80
    },
    {
      "midi": 55,
      "hit": false,
      "t": 212837.88750000065,
      "d": 324.32440000001225,
      "v": 80
    },
    {
      "midi": 60,
      "hit": false,
      "t": 212837.88750000065,
      "d": 324.32440000001225,
      "v": 80
    },
    {
      "midi": 55,
      "hit": false,
      "t": 213243.29300000067,
      "d": 648.6487999999954,
      "v": 80
    },
    {
      "midi": 60,
      "hit": false,
      "t": 213243.29300000067,
      "d": 648.6487999999954,
      "v": 80
    },
    {
      "midi": 55,
      "hit": false,
      "t": 214054.10400000066,
      "d": 486.4866000000038,
      "v": 80
    },
    {
      "midi": 59,
      "hit": false,
      "t": 214054.10400000066,
      "d": 486.4866000000038,
      "v": 80
    },
    {
      "midi": 59,
      "hit": false,
      "t": 214662.21225000065,
      "d": 162.16219999999157,
      "v": 80
    },
    {
      "midi": 55,
      "hit": false,
      "t": 214864.91500000065,
      "d": 162.16219999999157,
      "v": 80
    },
    {
      "midi": 59,
      "hit": false,
      "t": 215067.61775000065,
      "d": 162.16219999999157,
      "v": 80
    },
    {
      "midi": 55,
      "hit": false,
      "t": 215270.32050000064,
      "d": 486.4866000000038,
      "v": 80
    },
    {
      "midi": 59,
      "hit": false,
      "t": 215878.42875000063,
      "d": 162.16219999999157,
      "v": 80
    },
    {
      "midi": 59,
      "hit": false,
      "t": 216081.13150000063,
      "d": 162.16219999999157,
      "v": 80
    },
    {
      "midi": 55,
      "hit": false,
      "t": 216283.83425000063,
      "d": 162.16219999999157,
      "v": 80
    },
    {
      "midi": 50,
      "hit": false,
      "t": 216486.53700000062,
      "d": 324.32440000001225,
      "v": 80
    },
    {
      "midi": 54,
      "hit": false,
      "t": 216891.94250000064,
      "d": 324.32440000001225,
      "v": 80
    },
    {
      "midi": 57,
      "hit": false,
      "t": 217297.34800000067,
      "d": 324.32440000001225,
      "v": 80
    },
    {
      "midi": 50,
      "hit": false,
      "t": 217702.7535000007,
      "d": 324.32440000001225,
      "v": 80
    },
    {
      "midi": 54,
      "hit": false,
      "t": 218108.1590000007,
      "d": 162.16219999999157,
      "v": 80
    },
    {
      "midi": 57,
      "hit": false,
      "t": 218310.8617500007,
      "d": 162.16219999999157,
      "v": 80
    },
    {
      "midi": 62,
      "hit": false,
      "t": 218310.8617500007,
      "d": 162.16219999999157,
      "v": 80
    },
    {
      "midi": 57,
      "hit": false,
      "t": 218513.5645000007,
      "d": 162.16219999999157,
      "v": 80
    },
    {
      "midi": 62,
      "hit": false,
      "t": 218513.5645000007,
      "d": 162.16219999999157,
      "v": 80
    },
    {
      "midi": 69,
      "hit": false,
      "t": 218513.5645000007,
      "d": 162.16219999999157,
      "v": 80
    },
    {
      "midi": 62,
      "hit": false,
      "t": 218716.2672500007,
      "d": 162.16219999999157,
      "v": 80
    },
    {
      "midi": 69,
      "hit": false,
      "t": 218716.2672500007,
      "d": 162.16219999999157,
      "v": 80
    },
    {
      "midi": 74,
      "hit": false,
      "t": 218716.2672500007,
      "d": 162.16219999999157,
      "v": 80
    },
    {
      "midi": 57,
      "hit": false,
      "t": 218918.9700000007,
      "d": 486.4866000000038,
      "v": 80
    },
    {
      "midi": 62,
      "hit": false,
      "t": 218918.9700000007,
      "d": 486.4866000000038,
      "v": 80
    },
    {
      "midi": 57,
      "hit": false,
      "t": 219527.0782500007,
      "d": 162.16219999999157,
      "v": 80
    },
    {
      "midi": 62,
      "hit": false,
      "t": 219527.0782500007,
      "d": 162.16219999999157,
      "v": 80
    },
    {
      "midi": 57,
      "hit": false,
      "t": 219729.7810000007,
      "d": 162.16219999999157,
      "v": 80
    },
    {
      "midi": 62,
      "hit": false,
      "t": 219729.7810000007,
      "d": 162.16219999999157,
      "v": 80
    },
    {
      "midi": 57,
      "hit": false,
      "t": 219932.48375000068,
      "d": 162.16219999999157,
      "v": 80
    },
    {
      "midi": 62,
      "hit": false,
      "t": 219932.48375000068,
      "d": 162.16219999999157,
      "v": 80
    },
    {
      "midi": 57,
      "hit": false,
      "t": 220135.18650000068,
      "d": 324.32440000001225,
      "v": 80
    },
    {
      "midi": 62,
      "hit": false,
      "t": 220135.18650000068,
      "d": 324.32440000001225,
      "v": 80
    },
    {
      "midi": 57,
      "hit": false,
      "t": 220540.5920000007,
      "d": 162.16219999999157,
      "v": 80
    },
    {
      "midi": 57,
      "hit": false,
      "t": 220743.2947500007,
      "d": 162.16219999999157,
      "v": 80
    },
    {
      "midi": 62,
      "hit": false,
      "t": 220743.2947500007,
      "d": 162.16219999999157,
      "v": 80
    },
    {
      "midi": 57,
      "hit": false,
      "t": 220945.9975000007,
      "d": 162.16219999999157,
      "v": 80
    },
    {
      "midi": 62,
      "hit": false,
      "t": 220945.9975000007,
      "d": 162.16219999999157,
      "v": 80
    },
    {
      "midi": 69,
      "hit": false,
      "t": 220945.9975000007,
      "d": 162.16219999999157,
      "v": 80
    },
    {
      "midi": 62,
      "hit": false,
      "t": 221148.7002500007,
      "d": 162.16219999999157,
      "v": 80
    },
    {
      "midi": 69,
      "hit": false,
      "t": 221148.7002500007,
      "d": 162.16219999999157,
      "v": 80
    },
    {
      "midi": 74,
      "hit": false,
      "t": 221148.7002500007,
      "d": 162.16219999999157,
      "v": 80
    },
    {
      "midi": 55,
      "hit": false,
      "t": 221351.4030000007,
      "d": 486.4866000000038,
      "v": 80
    },
    {
      "midi": 60,
      "hit": false,
      "t": 221351.4030000007,
      "d": 486.4866000000038,
      "v": 80
    },
    {
      "midi": 67,
      "hit": false,
      "t": 221351.4030000007,
      "d": 486.4866000000038,
      "v": 80
    },
    {
      "midi": 67,
      "hit": false,
      "t": 221959.51125000068,
      "d": 162.16219999999157,
      "v": 80
    },
    {
      "midi": 64,
      "hit": false,
      "t": 222162.21400000068,
      "d": 162.16219999999157,
      "v": 80
    },
    {
      "midi": 60,
      "hit": false,
      "t": 222364.91675000067,
      "d": 162.16219999999157,
      "v": 80
    },
    {
      "midi": 60,
      "hit": false,
      "t": 222567.61950000067,
      "d": 324.32440000001225,
      "v": 80
    },
    {
      "midi": 64,
      "hit": false,
      "t": 222567.61950000067,
      "d": 324.32440000001225,
      "v": 80
    },
    {
      "midi": 55,
      "hit": false,
      "t": 222567.61950000067,
      "d": 1175.6759500000044,
      "v": 80
    },
    {
      "midi": 60,
      "hit": false,
      "t": 222973.0250000007,
      "d": 486.4866000000038,
      "v": 80
    },
    {
      "midi": 66,
      "hit": false,
      "t": 222973.0250000007,
      "d": 486.4866000000038,
      "v": 80
    },
    {
      "midi": 60,
      "hit": false,
      "t": 223581.13325000068,
      "d": 162.16219999999157,
      "v": 80
    },
    {
      "midi": 64,
      "hit": false,
      "t": 223581.13325000068,
      "d": 162.16219999999157,
      "v": 80
    },
    {
      "midi": 62,
      "hit": false,
      "t": 223783.83600000068,
      "d": 486.4866000000038,
      "v": 80
    },
    {
      "midi": 55,
      "hit": false,
      "t": 223783.83600000068,
      "d": 1175.6759499999753,
      "v": 80
    },
    {
      "midi": 62,
      "hit": false,
      "t": 224391.94425000067,
      "d": 162.16219999999157,
      "v": 80
    },
    {
      "midi": 59,
      "hit": false,
      "t": 224594.64700000067,
      "d": 162.16219999999157,
      "v": 80
    },
    {
      "midi": 62,
      "hit": false,
      "t": 224797.34975000066,
      "d": 162.16219999999157,
      "v": 80
    },
    {
      "midi": 55,
      "hit": false,
      "t": 225000.05250000066,
      "d": 324.32440000001225,
      "v": 80
    },
    {
      "midi": 62,
      "hit": false,
      "t": 225000.05250000066,
      "d": 324.32440000001225,
      "v": 80
    },
    {
      "midi": 62,
      "hit": false,
      "t": 225405.45800000068,
      "d": 486.4866000000038,
      "v": 80
    },
    {
      "midi": 55,
      "hit": false,
      "t": 225405.45800000068,
      "d": 770.2704499999818,
      "v": 80
    },
    {
      "midi": 59,
      "hit": false,
      "t": 226013.56625000067,
      "d": 162.16219999999157,
      "v": 80
    },
    {
      "midi": 57,
      "hit": false,
      "t": 226216.26900000067,
      "d": 4621.622700000007,
      "v": 80
    },
    {
      "midi": 62,
      "hit": false,
      "t": 226216.26900000067,
      "d": 4621.622700000007,
      "v": 80
    }
  ]
}