{
  "jsonPath": "Pop/C-Pop/CoCo Lee/before-i-fall-in-love.json",
  "path": "Pop\\C-Pop\\CoCo Lee\\Before I Fall In Love.mid",
  "name": "Before I Fall In Love",
  "difficulty": "Advanced",
  "bpm": 57.999986466669824,
  "notes": [
    {
      "midi": 63,
      "hit": false,
      "t": 4137.932000000001,
      "d": 953.6640156249996,
      "v": 83
    },
    {
      "midi": 56,
      "hit": false,
      "t": 4137.932000000001,
      "d": 959.051947916666,
      "v": 92
    },
    {
      "midi": 60,
      "hit": false,
      "t": 4137.932000000001,
      "d": 959.051947916666,
      "v": 95
    },
    {
      "midi": 68,
      "hit": false,
      "t": 4137.932000000001,
      "d": 1255.3882239583327,
      "v": 121
    },
    {
      "midi": 60,
      "hit": false,
      "t": 5172.415,
      "d": 258.62075000000004,
      "v": 103
    },
    {
      "midi": 63,
      "hit": false,
      "t": 5172.415,
      "d": 517.2415000000001,
      "v": 75
    },
    {
      "midi": 56,
      "hit": false,
      "t": 5172.415,
      "d": 829.7415729166669,
      "v": 73
    },
    {
      "midi": 60,
      "hit": false,
      "t": 5431.03575,
      "d": 387.93112500000007,
      "v": 86
    },
    {
      "midi": 63,
      "hit": false,
      "t": 5689.6565,
      "d": 258.62075000000004,
      "v": 112
    },
    {
      "midi": 68,
      "hit": false,
      "t": 5948.27725,
      "d": 258.62075000000004,
      "v": 106
    },
    {
      "midi": 67,
      "hit": false,
      "t": 6206.898,
      "d": 775.8622500000001,
      "v": 102
    },
    {
      "midi": 63,
      "hit": false,
      "t": 6206.898,
      "d": 959.0519479166669,
      "v": 84
    },
    {
      "midi": 58,
      "hit": false,
      "t": 6206.898,
      "d": 964.4398802083333,
      "v": 79
    },
    {
      "midi": 60,
      "hit": false,
      "t": 6206.898,
      "d": 980.6036770833334,
      "v": 85
    },
    {
      "midi": 65,
      "hit": false,
      "t": 6982.76025,
      "d": 775.8622500000001,
      "v": 96
    },
    {
      "midi": 63,
      "hit": false,
      "t": 7241.381,
      "d": 517.2415000000001,
      "v": 76
    },
    {
      "midi": 60,
      "hit": false,
      "t": 7241.381,
      "d": 808.1898437500004,
      "v": 93
    },
    {
      "midi": 58,
      "hit": false,
      "t": 7241.381,
      "d": 878.2329635416672,
      "v": 77
    },
    {
      "midi": 63,
      "hit": false,
      "t": 7758.6225,
      "d": 571.1208229166668,
      "v": 92
    },
    {
      "midi": 61,
      "hit": false,
      "t": 8275.864000000001,
      "d": 1142.2416458333337,
      "v": 92
    },
    {
      "midi": 65,
      "hit": false,
      "t": 8275.864000000001,
      "d": 2753.233401041667,
      "v": 111
    },
    {
      "midi": 49,
      "hit": false,
      "t": 8275.864000000001,
      "d": 3491.3801249999997,
      "v": 102
    },
    {
      "midi": 56,
      "hit": false,
      "t": 8793.105500000001,
      "d": 1233.836494791667,
      "v": 56
    },
    {
      "midi": 53,
      "hit": false,
      "t": 9827.588500000002,
      "d": 2042.0263385416656,
      "v": 73
    },
    {
      "midi": 68,
      "hit": false,
      "t": 10344.830000000002,
      "d": 705.8191302083342,
      "v": 89
    },
    {
      "midi": 56,
      "hit": false,
      "t": 10344.830000000002,
      "d": 1734.9141979166652,
      "v": 75
    },
    {
      "midi": 70,
      "hit": false,
      "t": 11379.313000000002,
      "d": 781.2501822916656,
      "v": 100
    },
    {
      "midi": 67,
      "hit": false,
      "t": 11379.313000000002,
      "d": 786.6381145833329,
      "v": 99
    },
    {
      "midi": 63,
      "hit": false,
      "t": 11379.313000000002,
      "d": 808.1898437500004,
      "v": 84
    },
    {
      "midi": 56,
      "hit": false,
      "t": 12413.796000000002,
      "d": 237.06902083333262,
      "v": 80
    },
    {
      "midi": 60,
      "hit": false,
      "t": 12413.796000000002,
      "d": 835.1295052083333,
      "v": 75
    },
    {
      "midi": 65,
      "hit": false,
      "t": 12413.796000000002,
      "d": 872.8450312500008,
      "v": 76
    },
    {
      "midi": 75,
      "hit": false,
      "t": 12413.796000000002,
      "d": 883.6208958333336,
      "v": 83
    },
    {
      "midi": 68,
      "hit": false,
      "t": 12413.796000000002,
      "d": 894.3967604166664,
      "v": 86
    },
    {
      "midi": 72,
      "hit": false,
      "t": 12413.796000000002,
      "d": 894.3967604166664,
      "v": 91
    },
    {
      "midi": 80,
      "hit": false,
      "t": 12413.796000000002,
      "d": 1163.793375000001,
      "v": 105
    },
    {
      "midi": 53,
      "hit": false,
      "t": 12413.796000000002,
      "d": 1654.0952135416683,
      "v": 90
    },
    {
      "midi": 56,
      "hit": false,
      "t": 12931.037500000002,
      "d": 727.3708593750016,
      "v": 66
    },
    {
      "midi": 72,
      "hit": false,
      "t": 13448.279000000002,
      "d": 258.62075000000186,
      "v": 81
    },
    {
      "midi": 75,
      "hit": false,
      "t": 13448.279000000002,
      "d": 517.2415000000019,
      "v": 76
    },
    {
      "midi": 65,
      "hit": false,
      "t": 13448.279000000002,
      "d": 625.0001458333354,
      "v": 73
    },
    {
      "midi": 60,
      "hit": false,
      "t": 13448.279000000002,
      "d": 678.8794687500013,
      "v": 66
    },
    {
      "midi": 68,
      "hit": false,
      "t": 13448.279000000002,
      "d": 765.0863854166673,
      "v": 73
    },
    {
      "midi": 72,
      "hit": false,
      "t": 13706.899750000004,
      "d": 258.62075000000004,
      "v": 105
    },
    {
      "midi": 75,
      "hit": false,
      "t": 13965.520500000004,
      "d": 258.6207499999982,
      "v": 105
    },
    {
      "midi": 56,
      "hit": false,
      "t": 13965.520500000004,
      "d": 441.810447916665,
      "v": 72
    },
    {
      "midi": 80,
      "hit": false,
      "t": 14224.141250000002,
      "d": 258.62075000000004,
      "v": 105
    },
    {
      "midi": 58,
      "hit": false,
      "t": 14482.762000000002,
      "d": 765.0863854166673,
      "v": 84
    },
    {
      "midi": 79,
      "hit": false,
      "t": 14482.762000000002,
      "d": 775.8622500000001,
      "v": 115
    },
    {
      "midi": 67,
      "hit": false,
      "t": 14482.762000000002,
      "d": 915.9484895833339,
      "v": 72
    },
    {
      "midi": 75,
      "hit": false,
      "t": 14482.762000000002,
      "d": 921.3364218750012,
      "v": 82
    },
    {
      "midi": 70,
      "hit": false,
      "t": 14482.762000000002,
      "d": 937.5002187500013,
      "v": 92
    },
    {
      "midi": 51,
      "hit": false,
      "t": 14482.762000000002,
      "d": 1751.077994791669,
      "v": 87
    },
    {
      "midi": 55,
      "hit": false,
      "t": 15000.003500000003,
      "d": 856.6812343750025,
      "v": 75
    },
    {
      "midi": 77,
      "hit": false,
      "t": 15258.624250000003,
      "d": 775.862250000002,
      "v": 110
    },
    {
      "midi": 75,
      "hit": false,
      "t": 15517.245000000004,
      "d": 517.2415000000001,
      "v": 70
    },
    {
      "midi": 70,
      "hit": false,
      "t": 15517.245000000004,
      "d": 721.9829270833343,
      "v": 82
    },
    {
      "midi": 67,
      "hit": false,
      "t": 15517.245000000004,
      "d": 748.9225885416672,
      "v": 63
    },
    {
      "midi": 58,
      "hit": false,
      "t": 15517.245000000004,
      "d": 754.3105208333345,
      "v": 79
    },
    {
      "midi": 55,
      "hit": false,
      "t": 16034.486500000005,
      "d": 183.18969791666677,
      "v": 69
    },
    {
      "midi": 75,
      "hit": false,
      "t": 16034.486500000005,
      "d": 517.2415000000019,
      "v": 105
    },
    {
      "midi": 56,
      "hit": false,
      "t": 16551.728000000006,
      "d": 651.9398072916665,
      "v": 90
    },
    {
      "midi": 49,
      "hit": false,
      "t": 16551.728000000006,
      "d": 899.7846927083338,
      "v": 98
    },
    {
      "midi": 61,
      "hit": false,
      "t": 16551.728000000006,
      "d": 1939.6556249999994,
      "v": 104
    },
    {
      "midi": 65,
      "hit": false,
      "t": 16551.728000000006,
      "d": 1939.6556249999994,
      "v": 102
    },
    {
      "midi": 77,
      "hit": false,
      "t": 16551.728000000006,
      "d": 2068.9660000000003,
      "v": 105
    },
    {
      "midi": 53,
      "hit": false,
      "t": 17058.193635416672,
      "d": 1492.457244791669,
      "v": 85
    },
    {
      "midi": 56,
      "hit": false,
      "t": 17553.883406250006,
      "d": 1012.9312708333346,
      "v": 67
    },
    {
      "midi": 49,
      "hit": false,
      "t": 18054.961109375006,
      "d": 495.6897708333345,
      "v": 75
    },
    {
      "midi": 58,
      "hit": false,
      "t": 18620.694000000007,
      "d": 2068.9660000000003,
      "v": 105
    },
    {
      "midi": 60,
      "hit": false,
      "t": 18620.694000000007,
      "d": 2068.9660000000003,
      "v": 90
    },
    {
      "midi": 62,
      "hit": false,
      "t": 18620.694000000007,
      "d": 2068.9660000000003,
      "v": 113
    },
    {
      "midi": 67,
      "hit": false,
      "t": 18620.694000000007,
      "d": 2068.9660000000003,
      "v": 109
    },
    {
      "midi": 55,
      "hit": false,
      "t": 20689.660000000007,
      "d": 1470.9055156249997,
      "v": 89
    },
    {
      "midi": 60,
      "hit": false,
      "t": 20689.660000000007,
      "d": 1476.2934479166652,
      "v": 88
    },
    {
      "midi": 65,
      "hit": false,
      "t": 20689.660000000007,
      "d": 1648.707281250001,
      "v": 90
    },
    {
      "midi": 60,
      "hit": false,
      "t": 22241.384500000007,
      "d": 258.62075000000186,
      "v": 81
    },
    {
      "midi": 55,
      "hit": false,
      "t": 22241.384500000007,
      "d": 404.0949218750029,
      "v": 91
    },
    {
      "midi": 58,
      "hit": false,
      "t": 22758.62600000001,
      "d": 1540.9486354166656,
      "v": 91
    },
    {
      "midi": 52,
      "hit": false,
      "t": 22758.62600000001,
      "d": 1616.3796875000007,
      "v": 84
    },
    {
      "midi": 46,
      "hit": false,
      "t": 22758.62600000001,
      "d": 1621.7676197916662,
      "v": 91
    },
    {
      "midi": 60,
      "hit": false,
      "t": 22758.62600000001,
      "d": 1632.5434843750008,
      "v": 81
    },
    {
      "midi": 55,
      "hit": false,
      "t": 24827.59200000001,
      "d": 1460.129651041665,
      "v": 88
    },
    {
      "midi": 60,
      "hit": false,
      "t": 24827.59200000001,
      "d": 1481.6813802083307,
      "v": 84
    },
    {
      "midi": 52,
      "hit": false,
      "t": 24827.59200000001,
      "d": 1659.4831458333283,
      "v": 82
    },
    {
      "midi": 64,
      "hit": false,
      "t": 24827.59200000001,
      "d": 1837.2849114583296,
      "v": 83
    },
    {
      "midi": 60,
      "hit": false,
      "t": 26379.316500000008,
      "d": 183.18969791666677,
      "v": 84
    },
    {
      "midi": 55,
      "hit": false,
      "t": 26379.316500000008,
      "d": 468.75010937499974,
      "v": 81
    },
    {
      "midi": 44,
      "hit": false,
      "t": 26896.558000000008,
      "d": 1551.7245000000003,
      "v": 82
    },
    {
      "midi": 48,
      "hit": false,
      "t": 26896.558000000008,
      "d": 1605.603822916666,
      "v": 83
    },
    {
      "midi": 60,
      "hit": false,
      "t": 26896.558000000008,
      "d": 1610.9917552083316,
      "v": 82
    },
    {
      "midi": 55,
      "hit": false,
      "t": 26896.558000000008,
      "d": 1643.3193489583318,
      "v": 89
    },
    {
      "midi": 53,
      "hit": false,
      "t": 26896.558000000008,
      "d": 1675.646942708332,
      "v": 84
    },
    {
      "midi": 67,
      "hit": false,
      "t": 28965.52400000001,
      "d": 1540.9486354166656,
      "v": 90
    },
    {
      "midi": 62,
      "hit": false,
      "t": 28965.52400000001,
      "d": 1557.1124322916658,
      "v": 86
    },
    {
      "midi": 58,
      "hit": false,
      "t": 28965.52400000001,
      "d": 1567.8882968750004,
      "v": 89
    },
    {
      "midi": 55,
      "hit": false,
      "t": 28965.52400000001,
      "d": 1594.8279583333351,
      "v": 91
    },
    {
      "midi": 64,
      "hit": false,
      "t": 31034.49000000001,
      "d": 80.81898437500058,
      "v": 87
    },
    {
      "midi": 58,
      "hit": false,
      "t": 31034.49000000001,
      "d": 576.5087552083351,
      "v": 85
    },
    {
      "midi": 60,
      "hit": false,
      "t": 31034.49000000001,
      "d": 598.0604843750007,
      "v": 84
    },
    {
      "midi": 52,
      "hit": false,
      "t": 31034.49000000001,
      "d": 614.2242812500008,
      "v": 88
    },
    {
      "midi": 65,
      "hit": false,
      "t": 32068.97300000001,
      "d": 220.9052239583325,
      "v": 89
    },
    {
      "midi": 52,
      "hit": false,
      "t": 32068.97300000001,
      "d": 560.3449583333313,
      "v": 87
    },
    {
      "midi": 48,
      "hit": false,
      "t": 32068.97300000001,
      "d": 635.7760104166664,
      "v": 91
    },
    {
      "midi": 58,
      "hit": false,
      "t": 32068.97300000001,
      "d": 657.327739583332,
      "v": 79
    },
    {
      "midi": 62,
      "hit": false,
      "t": 32068.97300000001,
      "d": 662.7156718749975,
      "v": 85
    },
    {
      "midi": 57,
      "hit": false,
      "t": 33103.456000000006,
      "d": 1519.3969062499964,
      "v": 82
    },
    {
      "midi": 60,
      "hit": false,
      "t": 33103.456000000006,
      "d": 1519.3969062499964,
      "v": 85
    },
    {
      "midi": 52,
      "hit": false,
      "t": 33103.456000000006,
      "d": 1691.8107395833285,
      "v": 83
    },
    {
      "midi": 64,
      "hit": false,
      "t": 33103.456000000006,
      "d": 1821.1211145833295,
      "v": 90
    },
    {
      "midi": 57,
      "hit": false,
      "t": 34655.1805,
      "d": 161.63796875000116,
      "v": 89
    },
    {
      "midi": 60,
      "hit": false,
      "t": 34655.1805,
      "d": 172.41383333333215,
      "v": 85
    },
    {
      "midi": 58,
      "hit": false,
      "t": 35172.422,
      "d": 1567.8882968749967,
      "v": 86
    },
    {
      "midi": 62,
      "hit": false,
      "t": 35172.422,
      "d": 1616.379687499997,
      "v": 81
    },
    {
      "midi": 67,
      "hit": false,
      "t": 35172.422,
      "d": 1654.0952135416665,
      "v": 84
    },
    {
      "midi": 55,
      "hit": false,
      "t": 35172.422,
      "d": 1729.526265624998,
      "v": 86
    },
    {
      "midi": 55,
      "hit": false,
      "t": 37241.388,
      "d": 1470.9055156250033,
      "v": 83
    },
    {
      "midi": 60,
      "hit": false,
      "t": 37241.388,
      "d": 1476.2934479166724,
      "v": 83
    },
    {
      "midi": 65,
      "hit": false,
      "t": 37241.388,
      "d": 1648.7072812500046,
      "v": 83
    },
    {
      "midi": 60,
      "hit": false,
      "t": 38793.1125,
      "d": 258.62075000000186,
      "v": 90
    },
    {
      "midi": 55,
      "hit": false,
      "t": 38793.1125,
      "d": 404.0949218750029,
      "v": 83
    },
    {
      "midi": 58,
      "hit": false,
      "t": 39310.35400000001,
      "d": 1540.9486354166656,
      "v": 91
    },
    {
      "midi": 52,
      "hit": false,
      "t": 39310.35400000001,
      "d": 1616.379687499997,
      "v": 85
    },
    {
      "midi": 46,
      "hit": false,
      "t": 39310.35400000001,
      "d": 1621.7676197916662,
      "v": 89
    },
    {
      "midi": 60,
      "hit": false,
      "t": 39310.35400000001,
      "d": 1632.5434843749972,
      "v": 91
    },
    {
      "midi": 60,
      "hit": false,
      "t": 41379.32000000001,
      "d": 1163.793375000001,
      "v": 85
    },
    {
      "midi": 69,
      "hit": false,
      "t": 41379.32000000001,
      "d": 1174.569239583332,
      "v": 85
    },
    {
      "midi": 67,
      "hit": false,
      "t": 41379.32000000001,
      "d": 1196.1209687500013,
      "v": 86
    },
    {
      "midi": 57,
      "hit": false,
      "t": 41379.32000000001,
      "d": 1212.2847656250015,
      "v": 79
    },
    {
      "midi": 60,
      "hit": false,
      "t": 42931.04450000001,
      "d": 204.74142708333238,
      "v": 81
    },
    {
      "midi": 69,
      "hit": false,
      "t": 42931.04450000001,
      "d": 215.51729166666337,
      "v": 91
    },
    {
      "midi": 67,
      "hit": false,
      "t": 42931.04450000001,
      "d": 237.06902083333262,
      "v": 90
    },
    {
      "midi": 57,
      "hit": false,
      "t": 42931.04450000001,
      "d": 296.33627604166395,
      "v": 83
    },
    {
      "midi": 62,
      "hit": false,
      "t": 43448.28600000001,
      "d": 1664.8710781249974,
      "v": 91
    },
    {
      "midi": 69,
      "hit": false,
      "t": 43448.28600000001,
      "d": 1664.8710781249974,
      "v": 91
    },
    {
      "midi": 65,
      "hit": false,
      "t": 43448.28600000001,
      "d": 1670.2590104166666,
      "v": 91
    },
    {
      "midi": 57,
      "hit": false,
      "t": 43448.28600000001,
      "d": 1718.750401041667,
      "v": 89
    },
    {
      "midi": 58,
      "hit": false,
      "t": 45517.25200000001,
      "d": 1524.7848385416655,
      "v": 79
    },
    {
      "midi": 67,
      "hit": false,
      "t": 45517.25200000001,
      "d": 1524.7848385416655,
      "v": 82
    },
    {
      "midi": 55,
      "hit": false,
      "t": 45517.25200000001,
      "d": 1530.1727708333347,
      "v": 81
    },
    {
      "midi": 62,
      "hit": false,
      "t": 45517.25200000001,
      "d": 1535.5607031250038,
      "v": 83
    },
    {
      "midi": 58,
      "hit": false,
      "t": 47068.97650000001,
      "d": 140.08623958333192,
      "v": 86
    },
    {
      "midi": 67,
      "hit": false,
      "t": 47068.97650000001,
      "d": 150.8621041666629,
      "v": 79
    },
    {
      "midi": 62,
      "hit": false,
      "t": 47068.97650000001,
      "d": 156.25003645833203,
      "v": 81
    },
    {
      "midi": 55,
      "hit": false,
      "t": 47068.97650000001,
      "d": 210.1293593750015,
      "v": 85
    },
    {
      "midi": 58,
      "hit": false,
      "t": 47586.218000000015,
      "d": 1422.414125000003,
      "v": 79
    },
    {
      "midi": 62,
      "hit": false,
      "t": 47586.218000000015,
      "d": 1427.802057291672,
      "v": 88
    },
    {
      "midi": 69,
      "hit": false,
      "t": 47586.218000000015,
      "d": 1487.0693125000034,
      "v": 82
    },
    {
      "midi": 68,
      "hit": false,
      "t": 49655.184000000016,
      "d": 576.5087552083351,
      "v": 84
    },
    {
      "midi": 65,
      "hit": false,
      "t": 49655.184000000016,
      "d": 614.2242812500044,
      "v": 81
    },
    {
      "midi": 56,
      "hit": false,
      "t": 49655.184000000016,
      "d": 619.6122135416736,
      "v": 90
    },
    {
      "midi": 61,
      "hit": false,
      "t": 49655.184000000016,
      "d": 619.6122135416736,
      "v": 90
    },
    {
      "midi": 68,
      "hit": false,
      "t": 50689.66700000002,
      "d": 468.7501093750034,
      "v": 86
    },
    {
      "midi": 63,
      "hit": false,
      "t": 50689.66700000002,
      "d": 501.0777031250036,
      "v": 79
    },
    {
      "midi": 61,
      "hit": false,
      "t": 50689.66700000002,
      "d": 544.1811614583348,
      "v": 91
    },
    {
      "midi": 56,
      "hit": false,
      "t": 50689.66700000002,
      "d": 554.9570260416658,
      "v": 86
    },
    {
      "midi": 65,
      "hit": false,
      "t": 51724.15000000002,
      "d": 673.4915364583358,
      "v": 91
    },
    {
      "midi": 55,
      "hit": false,
      "t": 51724.15000000002,
      "d": 700.4311979166669,
      "v": 91
    },
    {
      "midi": 61,
      "hit": false,
      "t": 51724.15000000002,
      "d": 705.819130208336,
      "v": 91
    },
    {
      "midi": 51,
      "hit": false,
      "t": 51724.15000000002,
      "d": 797.4139791666676,
      "v": 79
    },
    {
      "midi": 56,
      "hit": false,
      "t": 52758.63300000002,
      "d": 533.4052968749966,
      "v": 90
    },
    {
      "midi": 63,
      "hit": false,
      "t": 52758.63300000002,
      "d": 533.4052968749966,
      "v": 80
    },
    {
      "midi": 51,
      "hit": false,
      "t": 52758.63300000002,
      "d": 560.3449583333277,
      "v": 79
    },
    {
      "midi": 60,
      "hit": false,
      "t": 52758.63300000002,
      "d": 614.2242812499971,
      "v": 80
    },
    {
      "midi": 49,
      "hit": false,
      "t": 53793.11600000002,
      "d": 102.37071354166983,
      "v": 87
    },
    {
      "midi": 56,
      "hit": false,
      "t": 53793.11600000002,
      "d": 932.1122864583376,
      "v": 91
    },
    {
      "midi": 60,
      "hit": false,
      "t": 53793.11600000002,
      "d": 942.8881510416686,
      "v": 81
    },
    {
      "midi": 68,
      "hit": false,
      "t": 53793.11600000002,
      "d": 1395.4744635416646,
      "v": 84
    },
    {
      "midi": 65,
      "hit": false,
      "t": 53793.11600000002,
      "d": 1460.129651041665,
      "v": 86
    },
    {
      "midi": 60,
      "hit": false,
      "t": 54827.599000000024,
      "d": 549.5690937499967,
      "v": 86
    },
    {
      "midi": 51,
      "hit": false,
      "t": 55862.082000000024,
      "d": 517.2415000000037,
      "v": 86
    },
    {
      "midi": 55,
      "hit": false,
      "t": 55862.082000000024,
      "d": 603.4484166666734,
      "v": 85
    },
    {
      "midi": 61,
      "hit": false,
      "t": 55862.082000000024,
      "d": 603.4484166666734,
      "v": 85
    },
    {
      "midi": 63,
      "hit": false,
      "t": 55862.082000000024,
      "d": 1018.3192031250073,
      "v": 87
    },
    {
      "midi": 51,
      "hit": false,
      "t": 56379.32350000003,
      "d": 404.0949218750029,
      "v": 79
    },
    {
      "midi": 51,
      "hit": false,
      "t": 56896.56500000003,
      "d": 511.8535677083346,
      "v": 81
    },
    {
      "midi": 55,
      "hit": false,
      "t": 56896.56500000003,
      "d": 538.7932291666657,
      "v": 80
    },
    {
      "midi": 61,
      "hit": false,
      "t": 56896.56500000003,
      "d": 565.7328906249968,
      "v": 90
    },
    {
      "midi": 63,
      "hit": false,
      "t": 56896.56500000003,
      "d": 581.8966874999969,
      "v": 89
    },
    {
      "midi": 55,
      "hit": false,
      "t": 57931.04800000003,
      "d": 759.6984531249982,
      "v": 85
    },
    {
      "midi": 63,
      "hit": false,
      "t": 57931.04800000003,
      "d": 1029.095067708331,
      "v": 83
    },
    {
      "midi": 60,
      "hit": false,
      "t": 57931.04800000003,
      "d": 1034.4830000000002,
      "v": 79
    },
    {
      "midi": 70,
      "hit": false,
      "t": 57931.04800000003,
      "d": 1422.414125000003,
      "v": 84
    },
    {
      "midi": 63,
      "hit": false,
      "t": 58965.53100000003,
      "d": 490.3018385416726,
      "v": 88
    },
    {
      "midi": 55,
      "hit": false,
      "t": 58965.53100000003,
      "d": 495.68977083334175,
      "v": 79
    },
    {
      "midi": 60,
      "hit": false,
      "t": 58965.53100000003,
      "d": 501.0777031250109,
      "v": 80
    },
    {
      "midi": 48,
      "hit": false,
      "t": 60000.01400000004,
      "d": 883.62089583333,
      "v": 85
    },
    {
      "midi": 53,
      "hit": false,
      "t": 60000.01400000004,
      "d": 1002.1554062499999,
      "v": 79
    },
    {
      "midi": 56,
      "hit": false,
      "t": 60000.01400000004,
      "d": 1023.7071354166692,
      "v": 91
    },
    {
      "midi": 63,
      "hit": false,
      "t": 60000.01400000004,
      "d": 1605.603822916666,
      "v": 90
    },
    {
      "midi": 53,
      "hit": false,
      "t": 61034.49700000004,
      "d": 554.9570260416658,
      "v": 91
    },
    {
      "midi": 56,
      "hit": false,
      "t": 61034.49700000004,
      "d": 576.5087552083351,
      "v": 85
    },
    {
      "midi": 53,
      "hit": false,
      "t": 62068.98000000004,
      "d": 883.62089583333,
      "v": 84
    },
    {
      "midi": 58,
      "hit": false,
      "t": 62068.98000000004,
      "d": 975.2157447916616,
      "v": 88
    },
    {
      "midi": 61,
      "hit": false,
      "t": 62068.98000000004,
      "d": 1002.1554062499927,
      "v": 79
    },
    {
      "midi": 68,
      "hit": false,
      "t": 62068.98000000004,
      "d": 1363.146869791657,
      "v": 91
    },
    {
      "midi": 61,
      "hit": false,
      "t": 63103.46300000003,
      "d": 371.7673281249954,
      "v": 82
    },
    {
      "midi": 58,
      "hit": false,
      "t": 63103.46300000003,
      "d": 409.48285416666477,
      "v": 79
    },
    {
      "midi": 53,
      "hit": false,
      "t": 63103.46300000003,
      "d": 425.6466510416649,
      "v": 91
    },
    {
      "midi": 63,
      "hit": false,
      "t": 64137.94600000003,
      "d": 646.5518749999974,
      "v": 87
    },
    {
      "midi": 61,
      "hit": false,
      "t": 64137.94600000003,
      "d": 668.1036041666666,
      "v": 81
    },
    {
      "midi": 56,
      "hit": false,
      "t": 64137.94600000003,
      "d": 711.2070624999978,
      "v": 84
    },
    {
      "midi": 63,
      "hit": false,
      "t": 65172.42900000003,
      "d": 554.9570260416658,
      "v": 90
    },
    {
      "midi": 61,
      "hit": false,
      "t": 65172.42900000003,
      "d": 565.7328906250041,
      "v": 90
    },
    {
      "midi": 55,
      "hit": false,
      "t": 65172.42900000003,
      "d": 587.284619791666,
      "v": 84
    },
    {
      "midi": 51,
      "hit": false,
      "t": 65172.42900000003,
      "d": 619.6122135416663,
      "v": 81
    },
    {
      "midi": 70,
      "hit": false,
      "t": 66206.91200000003,
      "d": 657.3277395833284,
      "v": 84
    },
    {
      "midi": 56,
      "hit": false,
      "t": 66206.91200000003,
      "d": 867.4570989583299,
      "v": 91
    },
    {
      "midi": 60,
      "hit": false,
      "t": 66206.91200000003,
      "d": 991.379541666669,
      "v": 85
    },
    {
      "midi": 66,
      "hit": false,
      "t": 66206.91200000003,
      "d": 996.7674739583308,
      "v": 85
    },
    {
      "midi": 66,
      "hit": false,
      "t": 67241.39500000002,
      "d": 382.5431927083264,
      "v": 81
    },
    {
      "midi": 70,
      "hit": false,
      "t": 67241.39500000002,
      "d": 382.5431927083264,
      "v": 89
    },
    {
      "midi": 60,
      "hit": false,
      "t": 67241.39500000002,
      "d": 414.8707864583266,
      "v": 84
    },
    {
      "midi": 56,
      "hit": false,
      "t": 67241.39500000002,
      "d": 425.6466510416649,
      "v": 87
    },
    {
      "midi": 51,
      "hit": false,
      "t": 68275.87800000001,
      "d": 840.517437500006,
      "v": 91
    },
    {
      "midi": 54,
      "hit": false,
      "t": 68275.87800000001,
      "d": 1034.4830000000075,
      "v": 85
    },
    {
      "midi": 60,
      "hit": false,
      "t": 68275.87800000001,
      "d": 1034.4830000000075,
      "v": 86
    },
    {
      "midi": 66,
      "hit": false,
      "t": 68275.87800000001,
      "d": 1390.08653125001,
      "v": 79
    },
    {
      "midi": 60,
      "hit": false,
      "t": 69310.36100000002,
      "d": 371.7673281250027,
      "v": 84
    },
    {
      "midi": 51,
      "hit": false,
      "t": 69310.36100000002,
      "d": 387.9311250000028,
      "v": 91
    },
    {
      "midi": 54,
      "hit": false,
      "t": 69310.36100000002,
      "d": 387.9311250000028,
      "v": 83
    },
    {
      "midi": 49,
      "hit": false,
      "t": 70344.84400000003,
      "d": 1034.482999999993,
      "v": 85
    },
    {
      "midi": 56,
      "hit": false,
      "t": 70344.84400000003,
      "d": 1034.482999999993,
      "v": 79
    },
    {
      "midi": 60,
      "hit": false,
      "t": 70344.84400000003,
      "d": 1034.482999999993,
      "v": 81
    },
    {
      "midi": 65,
      "hit": false,
      "t": 70344.84400000003,
      "d": 1034.482999999993,
      "v": 86
    },
    {
      "midi": 60,
      "hit": false,
      "t": 71379.32700000002,
      "d": 533.4052968750038,
      "v": 79
    },
    {
      "midi": 65,
      "hit": false,
      "t": 71379.32700000002,
      "d": 549.569093750004,
      "v": 82
    },
    {
      "midi": 49,
      "hit": false,
      "t": 71379.32700000002,
      "d": 592.6725520833425,
      "v": 80
    },
    {
      "midi": 56,
      "hit": false,
      "t": 71379.32700000002,
      "d": 603.4484166666807,
      "v": 90
    },
    {
      "midi": 51,
      "hit": false,
      "t": 72413.81000000003,
      "d": 824.3536406250059,
      "v": 89
    },
    {
      "midi": 55,
      "hit": false,
      "t": 72413.81000000003,
      "d": 942.8881510416686,
      "v": 87
    },
    {
      "midi": 61,
      "hit": false,
      "t": 72413.81000000003,
      "d": 1034.4830000000075,
      "v": 80
    },
    {
      "midi": 63,
      "hit": false,
      "t": 72413.81000000003,
      "d": 1034.4830000000075,
      "v": 86
    },
    {
      "midi": 55,
      "hit": false,
      "t": 73448.29300000003,
      "d": 517.2415000000037,
      "v": 88
    },
    {
      "midi": 61,
      "hit": false,
      "t": 73448.29300000003,
      "d": 522.6294322916656,
      "v": 81
    },
    {
      "midi": 63,
      "hit": false,
      "t": 73448.29300000003,
      "d": 544.1811614583276,
      "v": 84
    },
    {
      "midi": 55,
      "hit": false,
      "t": 74482.77600000003,
      "d": 705.8191302083287,
      "v": 84
    },
    {
      "midi": 60,
      "hit": false,
      "t": 74482.77600000003,
      "d": 996.7674739583308,
      "v": 84
    },
    {
      "midi": 70,
      "hit": false,
      "t": 74482.77600000003,
      "d": 996.7674739583308,
      "v": 87
    },
    {
      "midi": 63,
      "hit": false,
      "t": 74482.77600000003,
      "d": 1007.5433385416691,
      "v": 81
    },
    {
      "midi": 70,
      "hit": false,
      "t": 75517.25900000003,
      "d": 495.6897708333272,
      "v": 85
    },
    {
      "midi": 63,
      "hit": false,
      "t": 75517.25900000003,
      "d": 522.6294322916656,
      "v": 85
    },
    {
      "midi": 60,
      "hit": false,
      "t": 75517.25900000003,
      "d": 533.4052968750038,
      "v": 86
    },
    {
      "midi": 55,
      "hit": false,
      "t": 75517.25900000003,
      "d": 538.7932291666657,
      "v": 85
    },
    {
      "midi": 48,
      "hit": false,
      "t": 76551.74200000003,
      "d": 867.4570989583299,
      "v": 87
    },
    {
      "midi": 53,
      "hit": false,
      "t": 76551.74200000003,
      "d": 899.7846927083301,
      "v": 91
    },
    {
      "midi": 56,
      "hit": false,
      "t": 76551.74200000003,
      "d": 1029.095067708331,
      "v": 87
    },
    {
      "midi": 63,
      "hit": false,
      "t": 76551.74200000003,
      "d": 1034.482999999993,
      "v": 82
    },
    {
      "midi": 56,
      "hit": false,
      "t": 77586.22500000002,
      "d": 387.9311250000028,
      "v": 81
    },
    {
      "midi": 53,
      "hit": false,
      "t": 77586.22500000002,
      "d": 436.42251562500314,
      "v": 86
    },
    {
      "midi": 63,
      "hit": false,
      "t": 77586.22500000002,
      "d": 436.42251562500314,
      "v": 84
    },
    {
      "midi": 53,
      "hit": false,
      "t": 78620.70800000003,
      "d": 765.0863854166673,
      "v": 84
    },
    {
      "midi": 58,
      "hit": false,
      "t": 78620.70800000003,
      "d": 1007.5433385416691,
      "v": 83
    },
    {
      "midi": 61,
      "hit": false,
      "t": 78620.70800000003,
      "d": 1018.3192031250073,
      "v": 84
    },
    {
      "midi": 68,
      "hit": false,
      "t": 78620.70800000003,
      "d": 1029.0950677083456,
      "v": 87
    },
    {
      "midi": 61,
      "hit": false,
      "t": 79655.19100000004,
      "d": 290.9483437500021,
      "v": 84
    },
    {
      "midi": 68,
      "hit": false,
      "t": 79655.19100000004,
      "d": 323.2759375000023,
      "v": 87
    },
    {
      "midi": 53,
      "hit": false,
      "t": 79655.19100000004,
      "d": 355.60353125000256,
      "v": 86
    },
    {
      "midi": 58,
      "hit": false,
      "t": 79655.19100000004,
      "d": 366.3793958333408,
      "v": 89
    },
    {
      "midi": 61,
      "hit": false,
      "t": 80689.67400000004,
      "d": 3130.3886614583316,
      "v": 87
    },
    {
      "midi": 56,
      "hit": false,
      "t": 80689.67400000004,
      "d": 3302.802494791671,
      "v": 86
    },
    {
      "midi": 56,
      "hit": false,
      "t": 84827.60600000004,
      "d": 237.0690208333399,
      "v": 80
    },
    {
      "midi": 60,
      "hit": false,
      "t": 84827.60600000004,
      "d": 835.1295052083442,
      "v": 75
    },
    {
      "midi": 65,
      "hit": false,
      "t": 84827.60600000004,
      "d": 872.8450312500063,
      "v": 76
    },
    {
      "midi": 75,
      "hit": false,
      "t": 84827.60600000004,
      "d": 883.6208958333445,
      "v": 83
    },
    {
      "midi": 68,
      "hit": false,
      "t": 84827.60600000004,
      "d": 894.3967604166828,
      "v": 86
    },
    {
      "midi": 72,
      "hit": false,
      "t": 84827.60600000004,
      "d": 894.3967604166828,
      "v": 91
    },
    {
      "midi": 80,
      "hit": false,
      "t": 84827.60600000004,
      "d": 1163.793375000023,
      "v": 105
    },
    {
      "midi": 53,
      "hit": false,
      "t": 84827.60600000004,
      "d": 1654.0952135416883,
      "v": 90
    },
    {
      "midi": 56,
      "hit": false,
      "t": 85344.84750000005,
      "d": 727.3708593750198,
      "v": 66
    },
    {
      "midi": 72,
      "hit": false,
      "t": 85862.08900000007,
      "d": 258.62075000000186,
      "v": 81
    },
    {
      "midi": 75,
      "hit": false,
      "t": 85862.08900000007,
      "d": 517.2415000000037,
      "v": 76
    },
    {
      "midi": 65,
      "hit": false,
      "t": 85862.08900000007,
      "d": 625.0001458333281,
      "v": 73
    },
    {
      "midi": 60,
      "hit": false,
      "t": 85862.08900000007,
      "d": 678.8794687499903,
      "v": 66
    },
    {
      "midi": 68,
      "hit": false,
      "t": 85862.08900000007,
      "d": 765.0863854166528,
      "v": 73
    },
    {
      "midi": 72,
      "hit": false,
      "t": 86120.70975000007,
      "d": 258.62075000000186,
      "v": 105
    },
    {
      "midi": 75,
      "hit": false,
      "t": 86379.33050000007,
      "d": 258.6207499999873,
      "v": 105
    },
    {
      "midi": 56,
      "hit": false,
      "t": 86379.33050000007,
      "d": 441.81044791665045,
      "v": 72
    },
    {
      "midi": 80,
      "hit": false,
      "t": 86637.95125000006,
      "d": 258.62075000000186,
      "v": 105
    },
    {
      "midi": 58,
      "hit": false,
      "t": 86896.57200000006,
      "d": 765.0863854166673,
      "v": 84
    },
    {
      "midi": 79,
      "hit": false,
      "t": 86896.57200000006,
      "d": 775.8622500000056,
      "v": 115
    },
    {
      "midi": 67,
      "hit": false,
      "t": 86896.57200000006,
      "d": 915.9484895833448,
      "v": 72
    },
    {
      "midi": 75,
      "hit": false,
      "t": 86896.57200000006,
      "d": 921.3364218750066,
      "v": 82
    },
    {
      "midi": 70,
      "hit": false,
      "t": 86896.57200000006,
      "d": 937.5002187500068,
      "v": 92
    },
    {
      "midi": 51,
      "hit": false,
      "t": 86896.57200000006,
      "d": 1751.0779947916744,
      "v": 87
    },
    {
      "midi": 55,
      "hit": false,
      "t": 87413.81350000006,
      "d": 856.6812343750062,
      "v": 75
    },
    {
      "midi": 77,
      "hit": false,
      "t": 87672.43425000006,
      "d": 775.8622500000056,
      "v": 110
    },
    {
      "midi": 75,
      "hit": false,
      "t": 87931.05500000007,
      "d": 517.2415000000037,
      "v": 70
    },
    {
      "midi": 70,
      "hit": false,
      "t": 87931.05500000007,
      "d": 721.9829270833288,
      "v": 82
    },
    {
      "midi": 67,
      "hit": false,
      "t": 87931.05500000007,
      "d": 748.9225885416672,
      "v": 63
    },
    {
      "midi": 58,
      "hit": false,
      "t": 87931.05500000007,
      "d": 754.3105208333291,
      "v": 79
    },
    {
      "midi": 55,
      "hit": false,
      "t": 88448.29650000007,
      "d": 183.18969791666314,
      "v": 69
    },
    {
      "midi": 75,
      "hit": false,
      "t": 88448.29650000007,
      "d": 517.2414999999892,
      "v": 105
    },
    {
      "midi": 56,
      "hit": false,
      "t": 88965.53800000006,
      "d": 651.9398072916665,
      "v": 90
    },
    {
      "midi": 49,
      "hit": false,
      "t": 88965.53800000006,
      "d": 899.7846927083301,
      "v": 98
    },
    {
      "midi": 61,
      "hit": false,
      "t": 88965.53800000006,
      "d": 1939.6556249999994,
      "v": 104
    },
    {
      "midi": 65,
      "hit": false,
      "t": 88965.53800000006,
      "d": 1939.6556249999994,
      "v": 102
    },
    {
      "midi": 77,
      "hit": false,
      "t": 88965.53800000006,
      "d": 2068.9660000000003,
      "v": 105
    },
    {
      "midi": 53,
      "hit": false,
      "t": 89472.00363541672,
      "d": 1492.4572447916726,
      "v": 85
    },
    {
      "midi": 56,
      "hit": false,
      "t": 89967.69340625005,
      "d": 1012.9312708333455,
      "v": 67
    },
    {
      "midi": 49,
      "hit": false,
      "t": 90468.77110937505,
      "d": 495.68977083334175,
      "v": 75
    },
    {
      "midi": 58,
      "hit": false,
      "t": 91034.50400000006,
      "d": 2068.9660000000003,
      "v": 105
    },
    {
      "midi": 60,
      "hit": false,
      "t": 91034.50400000006,
      "d": 2068.9660000000003,
      "v": 90
    },
    {
      "midi": 65,
      "hit": false,
      "t": 91034.50400000006,
      "d": 2068.9660000000003,
      "v": 113
    },
    {
      "midi": 67,
      "hit": false,
      "t": 91034.50400000006,
      "d": 2068.9660000000003,
      "v": 109
    },
    {
      "midi": 55,
      "hit": false,
      "t": 93103.47000000006,
      "d": 1470.905515624996,
      "v": 79
    },
    {
      "midi": 60,
      "hit": false,
      "t": 93103.47000000006,
      "d": 1476.293447916658,
      "v": 86
    },
    {
      "midi": 65,
      "hit": false,
      "t": 93103.47000000006,
      "d": 1648.7072812499973,
      "v": 84
    },
    {
      "midi": 60,
      "hit": false,
      "t": 94655.19450000006,
      "d": 258.62075000000186,
      "v": 91
    },
    {
      "midi": 55,
      "hit": false,
      "t": 94655.19450000006,
      "d": 404.0949218750029,
      "v": 81
    },
    {
      "midi": 58,
      "hit": false,
      "t": 95172.43600000006,
      "d": 1540.948635416673,
      "v": 79
    },
    {
      "midi": 52,
      "hit": false,
      "t": 95172.43600000006,
      "d": 1616.3796875000116,
      "v": 85
    },
    {
      "midi": 46,
      "hit": false,
      "t": 95172.43600000006,
      "d": 1621.7676197916735,
      "v": 81
    },
    {
      "midi": 60,
      "hit": false,
      "t": 95172.43600000006,
      "d": 1632.5434843750118,
      "v": 81
    },
    {
      "midi": 55,
      "hit": false,
      "t": 97241.40200000007,
      "d": 1460.1296510416723,
      "v": 86
    },
    {
      "midi": 60,
      "hit": false,
      "t": 97241.40200000007,
      "d": 1481.6813802083343,
      "v": 91
    },
    {
      "midi": 52,
      "hit": false,
      "t": 97241.40200000007,
      "d": 1659.4831458333356,
      "v": 91
    },
    {
      "midi": 64,
      "hit": false,
      "t": 97241.40200000007,
      "d": 1837.2849114583369,
      "v": 87
    },
    {
      "midi": 60,
      "hit": false,
      "t": 98793.12650000007,
      "d": 183.1896979166777,
      "v": 84
    },
    {
      "midi": 55,
      "hit": false,
      "t": 98793.12650000007,
      "d": 468.7501093750034,
      "v": 91
    },
    {
      "midi": 44,
      "hit": false,
      "t": 99310.36800000007,
      "d": 1551.7244999999966,
      "v": 86
    },
    {
      "midi": 48,
      "hit": false,
      "t": 99310.36800000007,
      "d": 1605.6038229166588,
      "v": 91
    },
    {
      "midi": 60,
      "hit": false,
      "t": 99310.36800000007,
      "d": 1610.9917552083207,
      "v": 91
    },
    {
      "midi": 55,
      "hit": false,
      "t": 99310.36800000007,
      "d": 1643.319348958321,
      "v": 85
    },
    {
      "midi": 53,
      "hit": false,
      "t": 99310.36800000007,
      "d": 1675.6469427083211,
      "v": 90
    },
    {
      "midi": 67,
      "hit": false,
      "t": 101379.33400000006,
      "d": 1540.948635416673,
      "v": 82
    },
    {
      "midi": 62,
      "hit": false,
      "t": 101379.33400000006,
      "d": 1557.112432291673,
      "v": 86
    },
    {
      "midi": 58,
      "hit": false,
      "t": 101379.33400000006,
      "d": 1567.8882968750113,
      "v": 89
    },
    {
      "midi": 55,
      "hit": false,
      "t": 101379.33400000006,
      "d": 1594.8279583333497,
      "v": 91
    },
    {
      "midi": 64,
      "hit": false,
      "t": 103448.30000000008,
      "d": 80.81898437500058,
      "v": 79
    },
    {
      "midi": 58,
      "hit": false,
      "t": 103448.30000000008,
      "d": 576.5087552083278,
      "v": 89
    },
    {
      "midi": 60,
      "hit": false,
      "t": 103448.30000000008,
      "d": 598.0604843749898,
      "v": 91
    },
    {
      "midi": 52,
      "hit": false,
      "t": 103448.30000000008,
      "d": 614.2242812499899,
      "v": 84
    },
    {
      "midi": 65,
      "hit": false,
      "t": 104482.78300000007,
      "d": 220.90522395833977,
      "v": 79
    },
    {
      "midi": 52,
      "hit": false,
      "t": 104482.78300000007,
      "d": 560.3449583333422,
      "v": 84
    },
    {
      "midi": 48,
      "hit": false,
      "t": 104482.78300000007,
      "d": 635.776010416681,
      "v": 88
    },
    {
      "midi": 58,
      "hit": false,
      "t": 104482.78300000007,
      "d": 657.3277395833429,
      "v": 85
    },
    {
      "midi": 62,
      "hit": false,
      "t": 104482.78300000007,
      "d": 662.7156718750048,
      "v": 85
    },
    {
      "midi": 57,
      "hit": false,
      "t": 105517.26600000008,
      "d": 1519.3969062499964,
      "v": 89
    },
    {
      "midi": 60,
      "hit": false,
      "t": 105517.26600000008,
      "d": 1519.3969062499964,
      "v": 80
    },
    {
      "midi": 52,
      "hit": false,
      "t": 105517.26600000008,
      "d": 1691.8107395833358,
      "v": 80
    },
    {
      "midi": 64,
      "hit": false,
      "t": 105517.26600000008,
      "d": 1821.1211145833367,
      "v": 88
    },
    {
      "midi": 57,
      "hit": false,
      "t": 107068.99050000007,
      "d": 161.63796875000116,
      "v": 91
    },
    {
      "midi": 60,
      "hit": false,
      "t": 107068.99050000007,
      "d": 172.41383333333943,
      "v": 79
    },
    {
      "midi": 58,
      "hit": false,
      "t": 107586.23200000008,
      "d": 1567.8882968749967,
      "v": 81
    },
    {
      "midi": 62,
      "hit": false,
      "t": 107586.23200000008,
      "d": 1616.379687499997,
      "v": 85
    },
    {
      "midi": 67,
      "hit": false,
      "t": 107586.23200000008,
      "d": 1654.0952135416592,
      "v": 83
    },
    {
      "midi": 55,
      "hit": false,
      "t": 107586.23200000008,
      "d": 1729.526265624998,
      "v": 83
    },
    {
      "midi": 55,
      "hit": false,
      "t": 109655.19800000008,
      "d": 1470.905515624996,
      "v": 80
    },
    {
      "midi": 60,
      "hit": false,
      "t": 109655.19800000008,
      "d": 1476.293447916658,
      "v": 82
    },
    {
      "midi": 65,
      "hit": false,
      "t": 109655.19800000008,
      "d": 1648.7072812499973,
      "v": 84
    },
    {
      "midi": 60,
      "hit": false,
      "t": 111206.92250000007,
      "d": 258.62075000000186,
      "v": 79
    },
    {
      "midi": 55,
      "hit": false,
      "t": 111206.92250000007,
      "d": 404.0949218750029,
      "v": 84
    },
    {
      "midi": 58,
      "hit": false,
      "t": 111724.16400000008,
      "d": 1540.948635416673,
      "v": 87
    },
    {
      "midi": 52,
      "hit": false,
      "t": 111724.16400000008,
      "d": 1616.3796875000116,
      "v": 88
    },
    {
      "midi": 46,
      "hit": false,
      "t": 111724.16400000008,
      "d": 1621.7676197916735,
      "v": 81
    },
    {
      "midi": 60,
      "hit": false,
      "t": 111724.16400000008,
      "d": 1632.5434843750118,
      "v": 82
    },
    {
      "midi": 60,
      "hit": false,
      "t": 113793.13000000009,
      "d": 1163.7933749999938,
      "v": 79
    },
    {
      "midi": 69,
      "hit": false,
      "t": 113793.13000000009,
      "d": 1174.569239583332,
      "v": 91
    },
    {
      "midi": 67,
      "hit": false,
      "t": 113793.13000000009,
      "d": 1196.120968749994,
      "v": 90
    },
    {
      "midi": 57,
      "hit": false,
      "t": 113793.13000000009,
      "d": 1212.2847656249942,
      "v": 83
    },
    {
      "midi": 60,
      "hit": false,
      "t": 115344.85450000009,
      "d": 204.74142708333966,
      "v": 90
    },
    {
      "midi": 69,
      "hit": false,
      "t": 115344.85450000009,
      "d": 215.51729166667792,
      "v": 89
    },
    {
      "midi": 67,
      "hit": false,
      "t": 115344.85450000009,
      "d": 237.0690208333399,
      "v": 91
    },
    {
      "midi": 57,
      "hit": false,
      "t": 115344.85450000009,
      "d": 296.3362760416785,
      "v": 88
    },
    {
      "midi": 62,
      "hit": false,
      "t": 115862.0960000001,
      "d": 1664.8710781249974,
      "v": 85
    },
    {
      "midi": 69,
      "hit": false,
      "t": 115862.0960000001,
      "d": 1664.8710781249974,
      "v": 80
    },
    {
      "midi": 65,
      "hit": false,
      "t": 115862.0960000001,
      "d": 1670.2590104166593,
      "v": 91
    },
    {
      "midi": 57,
      "hit": false,
      "t": 115862.0960000001,
      "d": 1718.7504010416596,
      "v": 86
    },
    {
      "midi": 58,
      "hit": false,
      "t": 117931.06200000009,
      "d": 1524.7848385416728,
      "v": 85
    },
    {
      "midi": 67,
      "hit": false,
      "t": 117931.06200000009,
      "d": 1524.7848385416728,
      "v": 84
    },
    {
      "midi": 55,
      "hit": false,
      "t": 117931.06200000009,
      "d": 1530.1727708333347,
      "v": 81
    },
    {
      "midi": 62,
      "hit": false,
      "t": 117931.06200000009,
      "d": 1535.5607031249965,
      "v": 85
    },
    {
      "midi": 58,
      "hit": false,
      "t": 119482.78650000009,
      "d": 140.0862395833392,
      "v": 81
    },
    {
      "midi": 67,
      "hit": false,
      "t": 119482.78650000009,
      "d": 150.86210416667745,
      "v": 88
    },
    {
      "midi": 62,
      "hit": false,
      "t": 119482.78650000009,
      "d": 156.2500364583393,
      "v": 85
    },
    {
      "midi": 55,
      "hit": false,
      "t": 119482.78650000009,
      "d": 210.1293593750015,
      "v": 86
    },
    {
      "midi": 58,
      "hit": false,
      "t": 120000.0280000001,
      "d": 1422.4141249999957,
      "v": 79
    },
    {
      "midi": 62,
      "hit": false,
      "t": 120000.0280000001,
      "d": 1427.8020572916575,
      "v": 88
    },
    {
      "midi": 69,
      "hit": false,
      "t": 120000.0280000001,
      "d": 1487.0693124999962,
      "v": 79
    },
    {
      "midi": 56,
      "hit": false,
      "t": 122068.9940000001,
      "d": 786.6381145833293,
      "v": 84
    },
    {
      "midi": 61,
      "hit": false,
      "t": 122068.9940000001,
      "d": 964.4398802083306,
      "v": 81
    },
    {
      "midi": 63,
      "hit": false,
      "t": 122068.9940000001,
      "d": 975.2157447916688,
      "v": 90
    },
    {
      "midi": 68,
      "hit": false,
      "t": 122068.9940000001,
      "d": 980.6036770833307,
      "v": 86
    },
    {
      "midi": 68,
      "hit": false,
      "t": 123103.47700000009,
      "d": 436.42251562500314,
      "v": 81
    },
    {
      "midi": 63,
      "hit": false,
      "t": 123103.47700000009,
      "d": 447.1983802083414,
      "v": 91
    },
    {
      "midi": 56,
      "hit": false,
      "t": 123103.47700000009,
      "d": 457.97424479167967,
      "v": 87
    },
    {
      "midi": 61,
      "hit": false,
      "t": 123103.47700000009,
      "d": 463.3621770833415,
      "v": 86
    },
    {
      "midi": 61,
      "hit": false,
      "t": 124137.9600000001,
      "d": 651.9398072916665,
      "v": 83
    },
    {
      "midi": 63,
      "hit": false,
      "t": 124137.9600000001,
      "d": 673.4915364583285,
      "v": 86
    },
    {
      "midi": 56,
      "hit": false,
      "t": 124137.9600000001,
      "d": 684.2674010416667,
      "v": 86
    },
    {
      "midi": 63,
      "hit": false,
      "t": 125172.44300000009,
      "d": 123.92244270833908,
      "v": 87
    },
    {
      "midi": 56,
      "hit": false,
      "t": 125172.44300000009,
      "d": 129.31037500000093,
      "v": 79
    },
    {
      "midi": 51,
      "hit": false,
      "t": 125172.44300000009,
      "d": 140.0862395833392,
      "v": 81
    },
    {
      "midi": 44,
      "hit": false,
      "t": 125172.44300000009,
      "d": 172.41383333333943,
      "v": 84
    },
    {
      "midi": 60,
      "hit": false,
      "t": 125172.44300000009,
      "d": 258.62075000000186,
      "v": 81
    },
    {
      "midi": 63,
      "hit": false,
      "t": 125517.27066666675,
      "d": 96.9827812500007,
      "v": 91
    },
    {
      "midi": 60,
      "hit": false,
      "t": 125517.27066666675,
      "d": 123.92244270833908,
      "v": 82
    },
    {
      "midi": 56,
      "hit": false,
      "t": 125517.27066666675,
      "d": 145.47417187500105,
      "v": 91
    },
    {
      "midi": 51,
      "hit": false,
      "t": 125517.27066666675,
      "d": 156.2500364583393,
      "v": 79
    },
    {
      "midi": 44,
      "hit": false,
      "t": 125517.27066666675,
      "d": 172.41383333333943,
      "v": 85
    },
    {
      "midi": 63,
      "hit": false,
      "t": 125862.09833333343,
      "d": 91.59484895833884,
      "v": 85
    },
    {
      "midi": 56,
      "hit": false,
      "t": 125862.09833333343,
      "d": 107.75864583333896,
      "v": 79
    },
    {
      "midi": 60,
      "hit": false,
      "t": 125862.09833333343,
      "d": 123.92244270833908,
      "v": 83
    },
    {
      "midi": 44,
      "hit": false,
      "t": 125862.09833333343,
      "d": 172.41383333333943,
      "v": 83
    },
    {
      "midi": 51,
      "hit": false,
      "t": 125862.09833333343,
      "d": 172.41383333333943,
      "v": 84
    },
    {
      "midi": 56,
      "hit": false,
      "t": 126206.92600000011,
      "d": 932.1122864583303,
      "v": 87
    },
    {
      "midi": 60,
      "hit": false,
      "t": 126206.92600000011,
      "d": 942.8881510416686,
      "v": 84
    },
    {
      "midi": 68,
      "hit": false,
      "t": 126206.92600000011,
      "d": 1395.4744635416719,
      "v": 84
    },
    {
      "midi": 65,
      "hit": false,
      "t": 126206.92600000011,
      "d": 1460.1296510416723,
      "v": 82
    },
    {
      "midi": 60,
      "hit": false,
      "t": 127241.40900000012,
      "d": 549.569093750004,
      "v": 86
    },
    {
      "midi": 51,
      "hit": false,
      "t": 128275.89200000012,
      "d": 517.2415000000037,
      "v": 91
    },
    {
      "midi": 55,
      "hit": false,
      "t": 128275.89200000012,
      "d": 603.4484166666662,
      "v": 87
    },
    {
      "midi": 61,
      "hit": false,
      "t": 128275.89200000012,
      "d": 603.4484166666662,
      "v": 86
    },
    {
      "midi": 63,
      "hit": false,
      "t": 128275.89200000012,
      "d": 1018.3192031250073,
      "v": 87
    },
    {
      "midi": 51,
      "hit": false,
      "t": 128793.13350000013,
      "d": 404.0949218750029,
      "v": 90
    },
    {
      "midi": 51,
      "hit": false,
      "t": 129310.37500000013,
      "d": 511.8535677083273,
      "v": 80
    },
    {
      "midi": 55,
      "hit": false,
      "t": 129310.37500000013,
      "d": 538.7932291666657,
      "v": 85
    },
    {
      "midi": 61,
      "hit": false,
      "t": 129310.37500000013,
      "d": 565.7328906250041,
      "v": 88
    },
    {
      "midi": 63,
      "hit": false,
      "t": 129310.37500000013,
      "d": 581.8966875000042,
      "v": 80
    },
    {
      "midi": 55,
      "hit": false,
      "t": 130344.85800000014,
      "d": 759.6984531250055,
      "v": 89
    },
    {
      "midi": 63,
      "hit": false,
      "t": 130344.85800000014,
      "d": 1029.095067708331,
      "v": 91
    },
    {
      "midi": 60,
      "hit": false,
      "t": 130344.85800000014,
      "d": 1034.482999999993,
      "v": 81
    },
    {
      "midi": 70,
      "hit": false,
      "t": 130344.85800000014,
      "d": 1422.4141249999957,
      "v": 81
    },
    {
      "midi": 63,
      "hit": false,
      "t": 131379.34100000013,
      "d": 490.30183854166535,
      "v": 91
    },
    {
      "midi": 55,
      "hit": false,
      "t": 131379.34100000013,
      "d": 495.6897708333272,
      "v": 86
    },
    {
      "midi": 60,
      "hit": false,
      "t": 131379.34100000013,
      "d": 501.07770312498906,
      "v": 85
    },
    {
      "midi": 48,
      "hit": false,
      "t": 132413.8240000001,
      "d": 883.62089583333,
      "v": 90
    },
    {
      "midi": 53,
      "hit": false,
      "t": 132413.8240000001,
      "d": 1002.1554062500072,
      "v": 89
    },
    {
      "midi": 56,
      "hit": false,
      "t": 132413.8240000001,
      "d": 1023.7071354166837,
      "v": 85
    },
    {
      "midi": 63,
      "hit": false,
      "t": 132413.8240000001,
      "d": 1605.6038229166588,
      "v": 79
    },
    {
      "midi": 53,
      "hit": false,
      "t": 133448.30700000012,
      "d": 554.9570260416658,
      "v": 91
    },
    {
      "midi": 56,
      "hit": false,
      "t": 133448.30700000012,
      "d": 576.5087552083132,
      "v": 83
    },
    {
      "midi": 53,
      "hit": false,
      "t": 134482.7900000001,
      "d": 883.62089583333,
      "v": 82
    },
    {
      "midi": 58,
      "hit": false,
      "t": 134482.7900000001,
      "d": 975.2157447916688,
      "v": 84
    },
    {
      "midi": 61,
      "hit": false,
      "t": 134482.7900000001,
      "d": 1002.1554062500072,
      "v": 83
    },
    {
      "midi": 68,
      "hit": false,
      "t": 134482.7900000001,
      "d": 1363.1468697916716,
      "v": 80
    },
    {
      "midi": 61,
      "hit": false,
      "t": 135517.2730000001,
      "d": 371.7673281249881,
      "v": 80
    },
    {
      "midi": 58,
      "hit": false,
      "t": 135517.2730000001,
      "d": 409.4828541666502,
      "v": 80
    },
    {
      "midi": 53,
      "hit": false,
      "t": 135517.2730000001,
      "d": 425.6466510416358,
      "v": 84
    },
    {
      "midi": 63,
      "hit": false,
      "t": 136551.75600000008,
      "d": 646.5518750000047,
      "v": 85
    },
    {
      "midi": 61,
      "hit": false,
      "t": 136551.75600000008,
      "d": 668.1036041666812,
      "v": 89
    },
    {
      "midi": 56,
      "hit": false,
      "t": 136551.75600000008,
      "d": 711.2070625000051,
      "v": 80
    },
    {
      "midi": 63,
      "hit": false,
      "t": 137586.2390000001,
      "d": 554.9570260416658,
      "v": 82
    },
    {
      "midi": 61,
      "hit": false,
      "t": 137586.2390000001,
      "d": 565.7328906249895,
      "v": 84
    },
    {
      "midi": 55,
      "hit": false,
      "t": 137586.2390000001,
      "d": 587.284619791666,
      "v": 81
    },
    {
      "midi": 51,
      "hit": false,
      "t": 137586.2390000001,
      "d": 619.6122135416663,
      "v": 85
    },
    {
      "midi": 70,
      "hit": false,
      "t": 138620.7220000001,
      "d": 657.3277395833284,
      "v": 80
    },
    {
      "midi": 56,
      "hit": false,
      "t": 138620.7220000001,
      "d": 867.4570989583153,
      "v": 85
    },
    {
      "midi": 60,
      "hit": false,
      "t": 138620.7220000001,
      "d": 991.3795416666544,
      "v": 88
    },
    {
      "midi": 66,
      "hit": false,
      "t": 138620.7220000001,
      "d": 996.7674739583163,
      "v": 84
    },
    {
      "midi": 66,
      "hit": false,
      "t": 139655.20500000007,
      "d": 382.54319270834094,
      "v": 86
    },
    {
      "midi": 70,
      "hit": false,
      "t": 139655.20500000007,
      "d": 382.54319270834094,
      "v": 90
    },
    {
      "midi": 60,
      "hit": false,
      "t": 139655.20500000007,
      "d": 414.8707864583412,
      "v": 83
    },
    {
      "midi": 56,
      "hit": false,
      "t": 139655.20500000007,
      "d": 425.6466510416649,
      "v": 83
    },
    {
      "midi": 51,
      "hit": false,
      "t": 140689.68800000008,
      "d": 840.517437500006,
      "v": 79
    },
    {
      "midi": 54,
      "hit": false,
      "t": 140689.68800000008,
      "d": 1034.4830000000075,
      "v": 89
    },
    {
      "midi": 60,
      "hit": false,
      "t": 140689.68800000008,
      "d": 1034.4830000000075,
      "v": 80
    },
    {
      "midi": 66,
      "hit": false,
      "t": 140689.68800000008,
      "d": 1390.08653125001,
      "v": 88
    },
    {
      "midi": 60,
      "hit": false,
      "t": 141724.1710000001,
      "d": 371.7673281249881,
      "v": 80
    },
    {
      "midi": 51,
      "hit": false,
      "t": 141724.1710000001,
      "d": 387.9311249999737,
      "v": 86
    },
    {
      "midi": 54,
      "hit": false,
      "t": 141724.1710000001,
      "d": 387.9311249999737,
      "v": 91
    },
    {
      "midi": 49,
      "hit": false,
      "t": 142758.65400000007,
      "d": 1034.4830000000075,
      "v": 83
    },
    {
      "midi": 56,
      "hit": false,
      "t": 142758.65400000007,
      "d": 1034.4830000000075,
      "v": 84
    },
    {
      "midi": 60,
      "hit": false,
      "t": 142758.65400000007,
      "d": 1034.4830000000075,
      "v": 83
    },
    {
      "midi": 65,
      "hit": false,
      "t": 142758.65400000007,
      "d": 1034.4830000000075,
      "v": 86
    },
    {
      "midi": 60,
      "hit": false,
      "t": 143793.13700000008,
      "d": 533.4052968749893,
      "v": 86
    },
    {
      "midi": 65,
      "hit": false,
      "t": 143793.13700000008,
      "d": 549.5690937499749,
      "v": 82
    },
    {
      "midi": 49,
      "hit": false,
      "t": 143793.13700000008,
      "d": 592.6725520832988,
      "v": 85
    },
    {
      "midi": 56,
      "hit": false,
      "t": 143793.13700000008,
      "d": 603.4484166666225,
      "v": 86
    },
    {
      "midi": 51,
      "hit": false,
      "t": 144827.62000000002,
      "d": 824.3536406249914,
      "v": 90
    },
    {
      "midi": 55,
      "hit": false,
      "t": 144827.62000000002,
      "d": 942.8881510416686,
      "v": 82
    },
    {
      "midi": 61,
      "hit": false,
      "t": 144827.62000000002,
      "d": 1034.4830000000075,
      "v": 85
    },
    {
      "midi": 63,
      "hit": false,
      "t": 144827.62000000002,
      "d": 1034.4830000000075,
      "v": 80
    },
    {
      "midi": 55,
      "hit": false,
      "t": 145862.10300000003,
      "d": 517.2415000000037,
      "v": 85
    },
    {
      "midi": 61,
      "hit": false,
      "t": 145862.10300000003,
      "d": 522.6294322916656,
      "v": 86
    },
    {
      "midi": 63,
      "hit": false,
      "t": 145862.10300000003,
      "d": 544.1811614583421,
      "v": 82
    },
    {
      "midi": 55,
      "hit": false,
      "t": 146896.58600000004,
      "d": 705.8191302083433,
      "v": 90
    },
    {
      "midi": 60,
      "hit": false,
      "t": 146896.58600000004,
      "d": 996.7674739583454,
      "v": 91
    },
    {
      "midi": 70,
      "hit": false,
      "t": 146896.58600000004,
      "d": 996.7674739583454,
      "v": 85
    },
    {
      "midi": 63,
      "hit": false,
      "t": 146896.58600000004,
      "d": 1007.5433385416691,
      "v": 81
    },
    {
      "midi": 70,
      "hit": false,
      "t": 147931.06900000005,
      "d": 495.6897708333272,
      "v": 82
    },
    {
      "midi": 63,
      "hit": false,
      "t": 147931.06900000005,
      "d": 522.6294322916656,
      "v": 82
    },
    {
      "midi": 60,
      "hit": false,
      "t": 147931.06900000005,
      "d": 533.4052968749893,
      "v": 83
    },
    {
      "midi": 55,
      "hit": false,
      "t": 147931.06900000005,
      "d": 538.7932291666511,
      "v": 88
    },
    {
      "midi": 48,
      "hit": false,
      "t": 148965.55200000003,
      "d": 867.4570989583444,
      "v": 91
    },
    {
      "midi": 53,
      "hit": false,
      "t": 148965.55200000003,
      "d": 899.7846927083447,
      "v": 89
    },
    {
      "midi": 56,
      "hit": false,
      "t": 148965.55200000003,
      "d": 1029.0950677083456,
      "v": 91
    },
    {
      "midi": 63,
      "hit": false,
      "t": 148965.55200000003,
      "d": 1034.4830000000075,
      "v": 85
    },
    {
      "midi": 56,
      "hit": false,
      "t": 150000.03500000003,
      "d": 387.9311250000028,
      "v": 86
    },
    {
      "midi": 53,
      "hit": false,
      "t": 150000.03500000003,
      "d": 436.4225156249886,
      "v": 84
    },
    {
      "midi": 63,
      "hit": false,
      "t": 150000.03500000003,
      "d": 436.4225156249886,
      "v": 85
    },
    {
      "midi": 53,
      "hit": false,
      "t": 151034.518,
      "d": 668.1036041666812,
      "v": 86
    },
    {
      "midi": 58,
      "hit": false,
      "t": 151034.518,
      "d": 872.8450312500063,
      "v": 79
    },
    {
      "midi": 61,
      "hit": false,
      "t": 151034.518,
      "d": 932.1122864583449,
      "v": 85
    },
    {
      "midi": 68,
      "hit": false,
      "t": 151034.518,
      "d": 942.8881510416686,
      "v": 85
    },
    {
      "midi": 61,
      "hit": false,
      "t": 152069.00100000002,
      "d": 436.4225156249886,
      "v": 86
    },
    {
      "midi": 68,
      "hit": false,
      "t": 152069.00100000002,
      "d": 495.6897708333272,
      "v": 89
    },
    {
      "midi": 58,
      "hit": false,
      "t": 152069.00100000002,
      "d": 538.7932291666511,
      "v": 84
    },
    {
      "midi": 53,
      "hit": false,
      "t": 152069.00100000002,
      "d": 560.3449583333277,
      "v": 84
    },
    {
      "midi": 63,
      "hit": false,
      "t": 153103.48400000003,
      "d": 463.36217708332697,
      "v": 89
    },
    {
      "midi": 56,
      "hit": false,
      "t": 153103.48400000003,
      "d": 1034.4830000000075,
      "v": 86
    },
    {
      "midi": 61,
      "hit": false,
      "t": 153103.48400000003,
      "d": 1034.4830000000075,
      "v": 79
    },
    {
      "midi": 61,
      "hit": false,
      "t": 154137.96700000003,
      "d": 565.7328906249895,
      "v": 84
    },
    {
      "midi": 56,
      "hit": false,
      "t": 154137.96700000003,
      "d": 571.1208229166514,
      "v": 83
    },
    {
      "midi": 63,
      "hit": false,
      "t": 154137.96700000003,
      "d": 581.8966874999751,
      "v": 86
    },
    {
      "midi": 56,
      "hit": false,
      "t": 155172.45,
      "d": 915.9484895833302,
      "v": 84
    },
    {
      "midi": 60,
      "hit": false,
      "t": 155172.45,
      "d": 1023.7071354166546,
      "v": 85
    },
    {
      "midi": 63,
      "hit": false,
      "t": 155172.45,
      "d": 1023.7071354166546,
      "v": 85
    },
    {
      "midi": 56,
      "hit": false,
      "t": 156206.933,
      "d": 447.1983802083414,
      "v": 90
    },
    {
      "midi": 63,
      "hit": false,
      "t": 156206.933,
      "d": 490.30183854166535,
      "v": 85
    },
    {
      "midi": 60,
      "hit": false,
      "t": 156206.933,
      "d": 501.07770312498906,
      "v": 91
    },
    {
      "midi": 64,
      "hit": false,
      "t": 157241.41599999997,
      "d": 280.1724791666784,
      "v": 88
    },
    {
      "midi": 61,
      "hit": false,
      "t": 157241.41599999997,
      "d": 290.9483437500021,
      "v": 85
    },
    {
      "midi": 56,
      "hit": false,
      "t": 157241.41599999997,
      "d": 323.2759375000023,
      "v": 85
    },
    {
      "midi": 56,
      "hit": false,
      "t": 158017.27824999997,
      "d": 274.7845468749874,
      "v": 79
    },
    {
      "midi": 60,
      "hit": false,
      "t": 158017.27824999997,
      "d": 285.56041145831114,
      "v": 85
    },
    {
      "midi": 63,
      "hit": false,
      "t": 158017.27824999997,
      "d": 296.33627604163485,
      "v": 81
    },
    {
      "midi": 51,
      "hit": false,
      "t": 158534.51974999995,
      "d": 156.2500364583393,
      "v": 83
    },
    {
      "midi": 55,
      "hit": false,
      "t": 158534.51974999995,
      "d": 210.12935937501607,
      "v": 83
    },
    {
      "midi": 58,
      "hit": false,
      "t": 158534.51974999995,
      "d": 215.51729166667792,
      "v": 81
    },
    {
      "midi": 63,
      "hit": false,
      "t": 158534.51974999995,
      "d": 490.30183854166535,
      "v": 80
    },
    {
      "midi": 51,
      "hit": false,
      "t": 158793.14049999995,
      "d": 226.29315625000163,
      "v": 91
    },
    {
      "midi": 58,
      "hit": false,
      "t": 158793.14049999995,
      "d": 264.0086822916637,
      "v": 84
    },
    {
      "midi": 55,
      "hit": false,
      "t": 158793.14049999995,
      "d": 301.7242083333258,
      "v": 85
    },
    {
      "midi": 53,
      "hit": false,
      "t": 159310.38199999995,
      "d": 1411.6382604166574,
      "v": 79
    },
    {
      "midi": 56,
      "hit": false,
      "t": 159310.38199999995,
      "d": 1460.1296510416432,
      "v": 91
    },
    {
      "midi": 60,
      "hit": false,
      "t": 159310.38199999995,
      "d": 1945.0435572916467,
      "v": 91
    },
    {
      "midi": 65,
      "hit": false,
      "t": 159310.38199999995,
      "d": 3793.1043333332927,
      "v": 89
    },
    {
      "midi": 53,
      "hit": false,
      "t": 160862.10649999994,
      "d": 328.6638697916642,
      "v": 91
    },
    {
      "midi": 56,
      "hit": false,
      "t": 160862.10649999994,
      "d": 457.9742447916651,
      "v": 85
    },
    {
      "midi": 56,
      "hit": false,
      "t": 161379.34799999994,
      "d": 1034.4830000000075,
      "v": 79
    },
    {
      "midi": 52,
      "hit": false,
      "t": 161379.34799999994,
      "d": 1600.215890624997,
      "v": 81
    },
    {
      "midi": 60,
      "hit": false,
      "t": 161379.34799999994,
      "d": 1681.034874999983,
      "v": 90
    },
    {
      "midi": 56,
      "hit": false,
      "t": 162413.83099999995,
      "d": 554.9570260416658,
      "v": 86
    },
    {
      "midi": 51,
      "hit": false,
      "t": 163448.31399999993,
      "d": 926.7243541666539,
      "v": 87
    },
    {
      "midi": 56,
      "hit": false,
      "t": 163448.31399999993,
      "d": 1034.4829999999783,
      "v": 83
    },
    {
      "midi": 60,
      "hit": false,
      "t": 163448.31399999993,
      "d": 1034.4829999999783,
      "v": 88
    },
    {
      "midi": 51,
      "hit": false,
      "t": 164482.7969999999,
      "d": 414.8707864583412,
      "v": 81
    },
    {
      "midi": 56,
      "hit": false,
      "t": 164482.7969999999,
      "d": 533.4052968750184,
      "v": 86
    },
    {
      "midi": 60,
      "hit": false,
      "t": 164482.7969999999,
      "d": 538.7932291666802,
      "v": 82
    },
    {
      "midi": 56,
      "hit": false,
      "t": 165517.2799999999,
      "d": 1018.3192031249928,
      "v": 83
    },
    {
      "midi": 60,
      "hit": false,
      "t": 165517.2799999999,
      "d": 1029.0950677083165,
      "v": 86
    },
    {
      "midi": 50,
      "hit": false,
      "t": 165517.2799999999,
      "d": 1390.086531249981,
      "v": 86
    },
    {
      "midi": 65,
      "hit": false,
      "t": 165517.2799999999,
      "d": 1724.138333333307,
      "v": 89
    },
    {
      "midi": 60,
      "hit": false,
      "t": 166551.7629999999,
      "d": 280.1724791666784,
      "v": 85
    },
    {
      "midi": 56,
      "hit": false,
      "t": 166551.7629999999,
      "d": 290.9483437500021,
      "v": 82
    },
    {
      "midi": 64,
      "hit": false,
      "t": 167586.2459999999,
      "d": 996.7674739583454,
      "v": 86
    },
    {
      "midi": 56,
      "hit": false,
      "t": 167586.2459999999,
      "d": 1002.1554062500072,
      "v": 80
    },
    {
      "midi": 61,
      "hit": false,
      "t": 167586.2459999999,
      "d": 1002.1554062500072,
      "v": 86
    },
    {
      "midi": 49,
      "hit": false,
      "t": 167586.2459999999,
      "d": 1487.0693125000107,
      "v": 84
    },
    {
      "midi": 61,
      "hit": false,
      "t": 168620.7289999999,
      "d": 571.1208229166805,
      "v": 85
    },
    {
      "midi": 64,
      "hit": false,
      "t": 168620.7289999999,
      "d": 775.8622500000056,
      "v": 79
    },
    {
      "midi": 56,
      "hit": false,
      "t": 168620.7289999999,
      "d": 1034.4830000000075,
      "v": 85
    },
    {
      "midi": 68,
      "hit": false,
      "t": 168620.7289999999,
      "d": 2408.405734375003,
      "v": 85
    },
    {
      "midi": 49,
      "hit": false,
      "t": 169137.9704999999,
      "d": 1901.9400989583228,
      "v": 82
    },
    {
      "midi": 61,
      "hit": false,
      "t": 169396.5912499999,
      "d": 247.84488541667815,
      "v": 90
    },
    {
      "midi": 56,
      "hit": false,
      "t": 169655.2119999999,
      "d": 1034.4830000000075,
      "v": 86
    },
    {
      "midi": 61,
      "hit": false,
      "t": 169655.2119999999,
      "d": 1034.4830000000075,
      "v": 85
    },
    {
      "midi": 64,
      "hit": false,
      "t": 169655.2119999999,
      "d": 1034.4830000000075,
      "v": 79
    },
    {
      "midi": 64,
      "hit": false,
      "t": 170689.69499999992,
      "d": 393.31905729163554,
      "v": 84
    },
    {
      "midi": 61,
      "hit": false,
      "t": 170689.69499999992,
      "d": 457.974244791636,
      "v": 79
    },
    {
      "midi": 56,
      "hit": false,
      "t": 170689.69499999992,
      "d": 501.07770312495995,
      "v": 86
    },
    {
      "midi": 51,
      "hit": false,
      "t": 171724.17799999987,
      "d": 996.7674739583454,
      "v": 82
    },
    {
      "midi": 56,
      "hit": false,
      "t": 171724.17799999987,
      "d": 1034.4830000000075,
      "v": 90
    },
    {
      "midi": 61,
      "hit": false,
      "t": 171724.17799999987,
      "d": 1034.4830000000075,
      "v": 85
    },
    {
      "midi": 63,
      "hit": false,
      "t": 171724.17799999987,
      "d": 1034.4830000000075,
      "v": 91
    },
    {
      "midi": 63,
      "hit": false,
      "t": 172758.66099999988,
      "d": 350.2155989583407,
      "v": 86
    },
    {
      "midi": 51,
      "hit": false,
      "t": 172758.66099999988,
      "d": 387.9311250000028,
      "v": 79
    },
    {
      "midi": 61,
      "hit": false,
      "t": 172758.66099999988,
      "d": 387.9311250000028,
      "v": 89
    },
    {
      "midi": 56,
      "hit": false,
      "t": 172758.66099999988,
      "d": 404.09492187498836,
      "v": 85
    },
    {
      "midi": 55,
      "hit": false,
      "t": 173534.52324999985,
      "d": 862.0691666666535,
      "v": 84
    },
    {
      "midi": 51,
      "hit": false,
      "t": 173534.52324999985,
      "d": 883.62089583333,
      "v": 85
    },
    {
      "midi": 65,
      "hit": false,
      "t": 173534.52324999985,
      "d": 915.9484895833302,
      "v": 89
    },
    {
      "midi": 61,
      "hit": false,
      "t": 173534.52324999985,
      "d": 926.7243541666539,
      "v": 80
    },
    {
      "midi": 56,
      "hit": false,
      "t": 174827.62699999983,
      "d": 441.81044791667955,
      "v": 91
    },
    {
      "midi": 58,
      "hit": false,
      "t": 175172.4546666665,
      "d": 264.0086822916637,
      "v": 85
    },
    {
      "midi": 60,
      "hit": false,
      "t": 175517.28233333316,
      "d": 258.62075000000186,
      "v": 91
    },
    {
      "midi": 56,
      "hit": false,
      "t": 175862.10999999984,
      "d": 932.1122864583449,
      "v": 91
    },
    {
      "midi": 60,
      "hit": false,
      "t": 175862.10999999984,
      "d": 942.8881510416686,
      "v": 84
    },
    {
      "midi": 68,
      "hit": false,
      "t": 175862.10999999984,
      "d": 1395.4744635416719,
      "v": 88
    },
    {
      "midi": 65,
      "hit": false,
      "t": 175862.10999999984,
      "d": 1460.1296510416723,
      "v": 87
    },
    {
      "midi": 60,
      "hit": false,
      "t": 176896.59299999985,
      "d": 549.569093750004,
      "v": 83
    },
    {
      "midi": 51,
      "hit": false,
      "t": 177931.07599999986,
      "d": 517.2415000000037,
      "v": 85
    },
    {
      "midi": 55,
      "hit": false,
      "t": 177931.07599999986,
      "d": 603.4484166666807,
      "v": 83
    },
    {
      "midi": 61,
      "hit": false,
      "t": 177931.07599999986,
      "d": 603.4484166666807,
      "v": 80
    },
    {
      "midi": 63,
      "hit": false,
      "t": 177931.07599999986,
      "d": 1018.3192031250219,
      "v": 86
    },
    {
      "midi": 51,
      "hit": false,
      "t": 178448.31749999986,
      "d": 404.09492187501746,
      "v": 91
    },
    {
      "midi": 51,
      "hit": false,
      "t": 178965.55899999986,
      "d": 511.85356770834187,
      "v": 79
    },
    {
      "midi": 55,
      "hit": false,
      "t": 178965.55899999986,
      "d": 538.7932291666802,
      "v": 86
    },
    {
      "midi": 61,
      "hit": false,
      "t": 178965.55899999986,
      "d": 565.7328906250186,
      "v": 79
    },
    {
      "midi": 63,
      "hit": false,
      "t": 178965.55899999986,
      "d": 581.8966875000042,
      "v": 82
    },
    {
      "midi": 55,
      "hit": false,
      "t": 180000.04199999987,
      "d": 759.6984531249909,
      "v": 85
    },
    {
      "midi": 63,
      "hit": false,
      "t": 180000.04199999987,
      "d": 1029.0950677083165,
      "v": 79
    },
    {
      "midi": 60,
      "hit": false,
      "t": 180000.04199999987,
      "d": 1034.4829999999783,
      "v": 85
    },
    {
      "midi": 70,
      "hit": false,
      "t": 180000.04199999987,
      "d": 1422.4141249999811,
      "v": 85
    },
    {
      "midi": 63,
      "hit": false,
      "t": 181034.52499999985,
      "d": 490.30183854166535,
      "v": 90
    },
    {
      "midi": 55,
      "hit": false,
      "t": 181034.52499999985,
      "d": 495.6897708333272,
      "v": 79
    },
    {
      "midi": 60,
      "hit": false,
      "t": 181034.52499999985,
      "d": 501.07770312498906,
      "v": 91
    },
    {
      "midi": 48,
      "hit": false,
      "t": 182069.00799999983,
      "d": 883.62089583333,
      "v": 85
    },
    {
      "midi": 53,
      "hit": false,
      "t": 182069.00799999983,
      "d": 1002.1554062500072,
      "v": 86
    },
    {
      "midi": 56,
      "hit": false,
      "t": 182069.00799999983,
      "d": 1023.7071354166837,
      "v": 85
    },
    {
      "midi": 63,
      "hit": false,
      "t": 182069.00799999983,
      "d": 1605.6038229166588,
      "v": 79
    },
    {
      "midi": 53,
      "hit": false,
      "t": 183103.49099999983,
      "d": 554.9570260416658,
      "v": 82
    },
    {
      "midi": 56,
      "hit": false,
      "t": 183103.49099999983,
      "d": 576.5087552083132,
      "v": 85
    },
    {
      "midi": 53,
      "hit": false,
      "t": 184137.9739999998,
      "d": 883.62089583333,
      "v": 79
    },
    {
      "midi": 58,
      "hit": false,
      "t": 184137.9739999998,
      "d": 975.2157447916688,
      "v": 82
    },
    {
      "midi": 61,
      "hit": false,
      "t": 184137.9739999998,
      "d": 1002.1554062500072,
      "v": 88
    },
    {
      "midi": 68,
      "hit": false,
      "t": 184137.9739999998,
      "d": 1363.1468697916716,
      "v": 85
    },
    {
      "midi": 61,
      "hit": false,
      "t": 185172.45699999982,
      "d": 371.7673281249881,
      "v": 85
    },
    {
      "midi": 58,
      "hit": false,
      "t": 185172.45699999982,
      "d": 409.4828541666502,
      "v": 91
    },
    {
      "midi": 53,
      "hit": false,
      "t": 185172.45699999982,
      "d": 425.6466510416358,
      "v": 91
    },
    {
      "midi": 63,
      "hit": false,
      "t": 186206.9399999998,
      "d": 646.5518750000047,
      "v": 84
    },
    {
      "midi": 61,
      "hit": false,
      "t": 186206.9399999998,
      "d": 668.1036041666812,
      "v": 85
    },
    {
      "midi": 56,
      "hit": false,
      "t": 186206.9399999998,
      "d": 711.2070625000051,
      "v": 85
    },
    {
      "midi": 63,
      "hit": false,
      "t": 187241.4229999998,
      "d": 554.9570260416658,
      "v": 85
    },
    {
      "midi": 61,
      "hit": false,
      "t": 187241.4229999998,
      "d": 565.7328906249895,
      "v": 84
    },
    {
      "midi": 55,
      "hit": false,
      "t": 187241.4229999998,
      "d": 587.284619791666,
      "v": 85
    },
    {
      "midi": 51,
      "hit": false,
      "t": 187241.4229999998,
      "d": 619.6122135416663,
      "v": 86
    },
    {
      "midi": 70,
      "hit": false,
      "t": 188275.9059999998,
      "d": 657.3277395833284,
      "v": 91
    },
    {
      "midi": 56,
      "hit": false,
      "t": 188275.9059999998,
      "d": 867.4570989583153,
      "v": 88
    },
    {
      "midi": 60,
      "hit": false,
      "t": 188275.9059999998,
      "d": 991.3795416666544,
      "v": 84
    },
    {
      "midi": 66,
      "hit": false,
      "t": 188275.9059999998,
      "d": 996.7674739583163,
      "v": 85
    },
    {
      "midi": 66,
      "hit": false,
      "t": 189310.3889999998,
      "d": 382.54319270834094,
      "v": 86
    },
    {
      "midi": 70,
      "hit": false,
      "t": 189310.3889999998,
      "d": 382.54319270834094,
      "v": 90
    },
    {
      "midi": 60,
      "hit": false,
      "t": 189310.3889999998,
      "d": 414.8707864583412,
      "v": 82
    },
    {
      "midi": 56,
      "hit": false,
      "t": 189310.3889999998,
      "d": 425.6466510416649,
      "v": 84
    },
    {
      "midi": 51,
      "hit": false,
      "t": 190344.8719999998,
      "d": 840.517437500006,
      "v": 91
    },
    {
      "midi": 54,
      "hit": false,
      "t": 190344.8719999998,
      "d": 1034.4830000000075,
      "v": 86
    },
    {
      "midi": 60,
      "hit": false,
      "t": 190344.8719999998,
      "d": 1034.4830000000075,
      "v": 81
    },
    {
      "midi": 66,
      "hit": false,
      "t": 190344.8719999998,
      "d": 1390.08653125001,
      "v": 84
    },
    {
      "midi": 60,
      "hit": false,
      "t": 191379.3549999998,
      "d": 371.7673281249881,
      "v": 86
    },
    {
      "midi": 51,
      "hit": false,
      "t": 191379.3549999998,
      "d": 387.9311249999737,
      "v": 81
    },
    {
      "midi": 54,
      "hit": false,
      "t": 191379.3549999998,
      "d": 387.9311249999737,
      "v": 84
    },
    {
      "midi": 49,
      "hit": false,
      "t": 192413.83799999979,
      "d": 1034.4830000000075,
      "v": 86
    },
    {
      "midi": 56,
      "hit": false,
      "t": 192413.83799999979,
      "d": 1034.4830000000075,
      "v": 83
    },
    {
      "midi": 60,
      "hit": false,
      "t": 192413.83799999979,
      "d": 1034.4830000000075,
      "v": 79
    },
    {
      "midi": 65,
      "hit": false,
      "t": 192413.83799999979,
      "d": 1034.4830000000075,
      "v": 85
    },
    {
      "midi": 60,
      "hit": false,
      "t": 193448.3209999998,
      "d": 533.4052968749893,
      "v": 79
    },
    {
      "midi": 65,
      "hit": false,
      "t": 193448.3209999998,
      "d": 549.5690937499749,
      "v": 82
    },
    {
      "midi": 49,
      "hit": false,
      "t": 193448.3209999998,
      "d": 592.6725520832988,
      "v": 84
    },
    {
      "midi": 56,
      "hit": false,
      "t": 193448.3209999998,
      "d": 603.4484166666225,
      "v": 84
    },
    {
      "midi": 51,
      "hit": false,
      "t": 194482.80399999974,
      "d": 824.3536406249914,
      "v": 79
    },
    {
      "midi": 55,
      "hit": false,
      "t": 194482.80399999974,
      "d": 942.8881510416686,
      "v": 88
    },
    {
      "midi": 61,
      "hit": false,
      "t": 194482.80399999974,
      "d": 1034.4830000000075,
      "v": 90
    },
    {
      "midi": 63,
      "hit": false,
      "t": 194482.80399999974,
      "d": 1034.4830000000075,
      "v": 91
    },
    {
      "midi": 55,
      "hit": false,
      "t": 195517.28699999975,
      "d": 517.2415000000037,
      "v": 80
    },
    {
      "midi": 61,
      "hit": false,
      "t": 195517.28699999975,
      "d": 522.6294322916656,
      "v": 84
    },
    {
      "midi": 63,
      "hit": false,
      "t": 195517.28699999975,
      "d": 544.1811614583421,
      "v": 83
    },
    {
      "midi": 55,
      "hit": false,
      "t": 196551.76999999976,
      "d": 1007.5433385416691,
      "v": 86
    },
    {
      "midi": 58,
      "hit": false,
      "t": 196551.76999999976,
      "d": 1018.3192031249928,
      "v": 91
    },
    {
      "midi": 63,
      "hit": false,
      "t": 196551.76999999976,
      "d": 1023.7071354166546,
      "v": 86
    },
    {
      "midi": 67,
      "hit": false,
      "t": 196551.76999999976,
      "d": 1029.0950677083165,
      "v": 79
    },
    {
      "midi": 58,
      "hit": false,
      "t": 197586.25299999974,
      "d": 581.8966875000042,
      "v": 82
    },
    {
      "midi": 67,
      "hit": false,
      "t": 197586.25299999974,
      "d": 592.6725520833279,
      "v": 82
    },
    {
      "midi": 63,
      "hit": false,
      "t": 197586.25299999974,
      "d": 619.6122135416663,
      "v": 84
    },
    {
      "midi": 55,
      "hit": false,
      "t": 197586.25299999974,
      "d": 657.3277395833284,
      "v": 79
    },
    {
      "midi": 56,
      "hit": false,
      "t": 198620.73599999974,
      "d": 1034.4830000000075,
      "v": 82
    },
    {
      "midi": 60,
      "hit": false,
      "t": 198620.73599999974,
      "d": 1034.4830000000075,
      "v": 89
    },
    {
      "midi": 65,
      "hit": false,
      "t": 198620.73599999974,
      "d": 1578.6641614583205,
      "v": 91
    },
    {
      "midi": 60,
      "hit": false,
      "t": 199655.21899999975,
      "d": 533.4052968749893,
      "v": 84
    },
    {
      "midi": 56,
      "hit": false,
      "t": 199655.21899999975,
      "d": 538.7932291666511,
      "v": 81
    },
    {
      "midi": 58,
      "hit": false,
      "t": 200689.70199999973,
      "d": 1514.00897395832,
      "v": 87
    },
    {
      "midi": 65,
      "hit": false,
      "t": 200689.70199999973,
      "d": 1519.3969062499818,
      "v": 85
    },
    {
      "midi": 61,
      "hit": false,
      "t": 200689.70199999973,
      "d": 1530.1727708333055,
      "v": 91
    },
    {
      "midi": 53,
      "hit": false,
      "t": 200689.70199999973,
      "d": 1578.6641614582913,
      "v": 80
    },
    {
      "midi": 68,
      "hit": false,
      "t": 202758.66799999968,
      "d": 3313.5783593750093,
      "v": 89
    },
    {
      "midi": 58,
      "hit": false,
      "t": 202758.66799999968,
      "d": 3410.56114062501,
      "v": 79
    },
    {
      "midi": 63,
      "hit": false,
      "t": 202758.66799999968,
      "d": 3421.3370052083337,
      "v": 91
    },
    {
      "midi": 63,
      "hit": false,
      "t": 206896.5999999997,
      "d": 953.6640156249923,
      "v": 83
    },
    {
      "midi": 56,
      "hit": false,
      "t": 206896.5999999997,
      "d": 959.0519479166542,
      "v": 92
    },
    {
      "midi": 60,
      "hit": false,
      "t": 206896.5999999997,
      "d": 959.0519479166542,
      "v": 95
    },
    {
      "midi": 68,
      "hit": false,
      "t": 206896.5999999997,
      "d": 1255.3882239583181,
      "v": 121
    },
    {
      "midi": 60,
      "hit": false,
      "t": 207931.08299999966,
      "d": 258.62075000000186,
      "v": 103
    },
    {
      "midi": 63,
      "hit": false,
      "t": 207931.08299999966,
      "d": 517.2415000000037,
      "v": 75
    },
    {
      "midi": 56,
      "hit": false,
      "t": 207931.08299999966,
      "d": 829.7415729166823,
      "v": 73
    },
    {
      "midi": 60,
      "hit": false,
      "t": 208189.70374999967,
      "d": 387.9311250000028,
      "v": 86
    },
    {
      "midi": 63,
      "hit": false,
      "t": 208448.32449999967,
      "d": 258.62075000000186,
      "v": 112
    },
    {
      "midi": 68,
      "hit": false,
      "t": 208706.94524999967,
      "d": 258.62075000000186,
      "v": 106
    },
    {
      "midi": 67,
      "hit": false,
      "t": 208965.56599999967,
      "d": 775.8622500000056,
      "v": 102
    },
    {
      "midi": 63,
      "hit": false,
      "t": 208965.56599999967,
      "d": 959.0519479166833,
      "v": 84
    },
    {
      "midi": 58,
      "hit": false,
      "t": 208965.56599999967,
      "d": 964.4398802083451,
      "v": 79
    },
    {
      "midi": 60,
      "hit": false,
      "t": 208965.56599999967,
      "d": 980.6036770833307,
      "v": 85
    },
    {
      "midi": 65,
      "hit": false,
      "t": 209741.42824999968,
      "d": 775.8622500000056,
      "v": 96
    },
    {
      "midi": 63,
      "hit": false,
      "t": 210000.04899999968,
      "d": 517.2415000000037,
      "v": 76
    },
    {
      "midi": 60,
      "hit": false,
      "t": 210000.04899999968,
      "d": 808.1898437500058,
      "v": 93
    },
    {
      "midi": 58,
      "hit": false,
      "t": 210000.04899999968,
      "d": 878.2329635416681,
      "v": 77
    },
    {
      "midi": 63,
      "hit": false,
      "t": 210517.29049999968,
      "d": 571.1208229166805,
      "v": 92
    },
    {
      "midi": 61,
      "hit": false,
      "t": 211034.5319999997,
      "d": 1142.2416458333319,
      "v": 97
    },
    {
      "midi": 49,
      "hit": false,
      "t": 211034.5319999997,
      "d": 2068.966000000015,
      "v": 107
    },
    {
      "midi": 65,
      "hit": false,
      "t": 211034.5319999997,
      "d": 2753.2334010416816,
      "v": 116
    },
    {
      "midi": 56,
      "hit": false,
      "t": 211551.7734999997,
      "d": 1233.8364947916707,
      "v": 61
    },
    {
      "midi": 56,
      "hit": false,
      "t": 213103.4979999997,
      "d": 1034.4830000000075,
      "v": 94
    },
    {
      "midi": 60,
      "hit": false,
      "t": 213103.4979999997,
      "d": 1034.4830000000075,
      "v": 78
    },
    {
      "midi": 63,
      "hit": false,
      "t": 213103.4979999997,
      "d": 1034.4830000000075,
      "v": 80
    },
    {
      "midi": 70,
      "hit": false,
      "t": 214137.9809999997,
      "d": 781.2501822916674,
      "v": 105
    },
    {
      "midi": 67,
      "hit": false,
      "t": 214137.9809999997,
      "d": 786.6381145833293,
      "v": 104
    },
    {
      "midi": 63,
      "hit": false,
      "t": 214137.9809999997,
      "d": 808.1898437500058,
      "v": 89
    },
    {
      "midi": 58,
      "hit": false,
      "t": 215172.46399999972,
      "d": 3211.2076458333468,
      "v": 82
    },
    {
      "midi": 56,
      "hit": false,
      "t": 215172.46399999972,
      "d": 3216.5955781250086,
      "v": 85
    },
    {
      "midi": 65,
      "hit": false,
      "t": 215172.46399999972,
      "d": 3221.9835104166705,
      "v": 86
    },
    {
      "midi": 68,
      "hit": false,
      "t": 215172.46399999972,
      "d": 3793.104333333351,
      "v": 100
    }
  ]
}