{
  "jsonPath": "Rock/Pop Rock/Lenny Kravitz/if-you-cant-say-no.json",
  "path": "Rock\\Pop Rock\\Lenny Kravitz\\If You Cant Say No.mid",
  "name": "If You Cant Say No",
  "difficulty": "Advanced",
  "bpm": 78.00017940041262,
  "notes": [
    {
      "midi": 40,
      "hit": false,
      "t": 12307.664,
      "d": 2429.8822317708546,
      "v": 100
    },
    {
      "midi": 47,
      "hit": false,
      "t": 12307.664,
      "d": 2429.8822317708546,
      "v": 100
    },
    {
      "midi": 59,
      "hit": false,
      "t": 12307.664,
      "d": 2558.087065104188,
      "v": 100
    },
    {
      "midi": 64,
      "hit": false,
      "t": 12307.664,
      "d": 2558.087065104188,
      "v": 100
    },
    {
      "midi": 67,
      "hit": false,
      "t": 12307.664,
      "d": 2558.087065104188,
      "v": 100
    },
    {
      "midi": 40,
      "hit": false,
      "t": 14871.760666666689,
      "d": 122.19523177083283,
      "v": 100
    },
    {
      "midi": 47,
      "hit": false,
      "t": 14871.760666666689,
      "d": 122.19523177083283,
      "v": 100
    },
    {
      "midi": 59,
      "hit": false,
      "t": 14999.965500000022,
      "d": 244.3904635416693,
      "v": 100
    },
    {
      "midi": 67,
      "hit": false,
      "t": 14999.965500000022,
      "d": 250.4000651041697,
      "v": 100
    },
    {
      "midi": 64,
      "hit": false,
      "t": 14999.965500000022,
      "d": 252.40326562500377,
      "v": 100
    },
    {
      "midi": 47,
      "hit": false,
      "t": 15256.375166666692,
      "d": 2558.087065104164,
      "v": 100
    },
    {
      "midi": 54,
      "hit": false,
      "t": 15256.375166666692,
      "d": 2558.087065104164,
      "v": 100
    },
    {
      "midi": 59,
      "hit": false,
      "t": 15384.580000000025,
      "d": 2558.087065104164,
      "v": 100
    },
    {
      "midi": 62,
      "hit": false,
      "t": 15384.580000000025,
      "d": 2558.087065104164,
      "v": 100
    },
    {
      "midi": 66,
      "hit": false,
      "t": 15384.580000000025,
      "d": 2558.087065104164,
      "v": 100
    },
    {
      "midi": 47,
      "hit": false,
      "t": 17948.676666666688,
      "d": 146.2336380208326,
      "v": 100
    },
    {
      "midi": 54,
      "hit": false,
      "t": 17948.676666666688,
      "d": 154.24644010416523,
      "v": 100
    },
    {
      "midi": 59,
      "hit": false,
      "t": 18076.88150000002,
      "d": 250.40006510416424,
      "v": 100
    },
    {
      "midi": 62,
      "hit": false,
      "t": 18076.88150000002,
      "d": 250.40006510416424,
      "v": 100
    },
    {
      "midi": 66,
      "hit": false,
      "t": 18076.88150000002,
      "d": 250.40006510416424,
      "v": 100
    },
    {
      "midi": 67,
      "hit": false,
      "t": 18461.496000000017,
      "d": 1788.8580651041484,
      "v": 100
    },
    {
      "midi": 64,
      "hit": false,
      "t": 18461.496000000017,
      "d": 2429.882231770811,
      "v": 100
    },
    {
      "midi": 40,
      "hit": false,
      "t": 18461.496000000017,
      "d": 2942.70156510414,
      "v": 100
    },
    {
      "midi": 47,
      "hit": false,
      "t": 18461.496000000017,
      "d": 2942.70156510414,
      "v": 100
    },
    {
      "midi": 59,
      "hit": false,
      "t": 18461.496000000017,
      "d": 2942.70156510414,
      "v": 100
    },
    {
      "midi": 69,
      "hit": false,
      "t": 20384.568499999998,
      "d": 570.9121484374991,
      "v": 100
    },
    {
      "midi": 67,
      "hit": false,
      "t": 20961.490249999995,
      "d": 442.70731510416226,
      "v": 100
    },
    {
      "midi": 47,
      "hit": false,
      "t": 21538.41199999999,
      "d": 2942.7015651041365,
      "v": 100
    },
    {
      "midi": 54,
      "hit": false,
      "t": 21538.41199999999,
      "d": 2942.7015651041365,
      "v": 100
    },
    {
      "midi": 59,
      "hit": false,
      "t": 21538.41199999999,
      "d": 2942.7015651041365,
      "v": 100
    },
    {
      "midi": 62,
      "hit": false,
      "t": 21538.41199999999,
      "d": 2942.7015651041365,
      "v": 100
    },
    {
      "midi": 66,
      "hit": false,
      "t": 21538.41199999999,
      "d": 2942.7015651041365,
      "v": 100
    },
    {
      "midi": 40,
      "hit": false,
      "t": 24615.327999999958,
      "d": 2814.496731770807,
      "v": 100
    },
    {
      "midi": 47,
      "hit": false,
      "t": 24615.327999999958,
      "d": 2814.496731770807,
      "v": 100
    },
    {
      "midi": 59,
      "hit": false,
      "t": 24615.327999999958,
      "d": 2942.70156510414,
      "v": 100
    },
    {
      "midi": 64,
      "hit": false,
      "t": 24615.327999999958,
      "d": 2942.70156510414,
      "v": 100
    },
    {
      "midi": 67,
      "hit": false,
      "t": 24615.327999999958,
      "d": 2942.70156510414,
      "v": 100
    },
    {
      "midi": 47,
      "hit": false,
      "t": 27564.039166666596,
      "d": 2942.70156510414,
      "v": 100
    },
    {
      "midi": 54,
      "hit": false,
      "t": 27564.039166666596,
      "d": 2942.70156510414,
      "v": 100
    },
    {
      "midi": 59,
      "hit": false,
      "t": 27692.24399999993,
      "d": 2814.496731770807,
      "v": 100
    },
    {
      "midi": 62,
      "hit": false,
      "t": 27692.24399999993,
      "d": 2814.496731770807,
      "v": 100
    },
    {
      "midi": 66,
      "hit": false,
      "t": 27692.24399999993,
      "d": 2814.496731770807,
      "v": 100
    },
    {
      "midi": 47,
      "hit": false,
      "t": 30640.955166666572,
      "d": 122.19523177083465,
      "v": 100
    },
    {
      "midi": 54,
      "hit": false,
      "t": 30640.955166666572,
      "d": 122.19523177083465,
      "v": 100
    },
    {
      "midi": 40,
      "hit": false,
      "t": 30769.159999999905,
      "d": 2942.70156510414,
      "v": 100
    },
    {
      "midi": 47,
      "hit": false,
      "t": 30769.159999999905,
      "d": 2942.70156510414,
      "v": 100
    },
    {
      "midi": 59,
      "hit": false,
      "t": 30769.159999999905,
      "d": 2942.70156510414,
      "v": 100
    },
    {
      "midi": 64,
      "hit": false,
      "t": 30769.159999999905,
      "d": 2942.70156510414,
      "v": 100
    },
    {
      "midi": 67,
      "hit": false,
      "t": 30769.159999999905,
      "d": 2942.70156510414,
      "v": 100
    },
    {
      "midi": 47,
      "hit": false,
      "t": 33846.07599999988,
      "d": 2429.882231770811,
      "v": 100
    },
    {
      "midi": 54,
      "hit": false,
      "t": 33846.07599999988,
      "d": 2429.882231770811,
      "v": 100
    },
    {
      "midi": 59,
      "hit": false,
      "t": 33846.07599999988,
      "d": 2558.0870651041405,
      "v": 100
    },
    {
      "midi": 62,
      "hit": false,
      "t": 33846.07599999988,
      "d": 2558.0870651041405,
      "v": 100
    },
    {
      "midi": 66,
      "hit": false,
      "t": 33846.07599999988,
      "d": 2558.0870651041405,
      "v": 100
    },
    {
      "midi": 47,
      "hit": false,
      "t": 36410.17266666652,
      "d": 378.60489843749383,
      "v": 100
    },
    {
      "midi": 54,
      "hit": false,
      "t": 36410.17266666652,
      "d": 378.60489843749383,
      "v": 100
    },
    {
      "midi": 59,
      "hit": false,
      "t": 36538.37749999985,
      "d": 378.6048984375011,
      "v": 100
    },
    {
      "midi": 62,
      "hit": false,
      "t": 36538.37749999985,
      "d": 378.6048984375011,
      "v": 100
    },
    {
      "midi": 66,
      "hit": false,
      "t": 36538.37749999985,
      "d": 378.6048984375011,
      "v": 100
    },
    {
      "midi": 40,
      "hit": false,
      "t": 36922.99199999985,
      "d": 2429.882231770811,
      "v": 100
    },
    {
      "midi": 47,
      "hit": false,
      "t": 36922.99199999985,
      "d": 2429.882231770811,
      "v": 100
    },
    {
      "midi": 59,
      "hit": false,
      "t": 36922.99199999985,
      "d": 2558.0870651041405,
      "v": 100
    },
    {
      "midi": 64,
      "hit": false,
      "t": 36922.99199999985,
      "d": 2558.0870651041405,
      "v": 100
    },
    {
      "midi": 67,
      "hit": false,
      "t": 36922.99199999985,
      "d": 2558.0870651041405,
      "v": 100
    },
    {
      "midi": 40,
      "hit": false,
      "t": 39487.088666666496,
      "d": 122.19523177083465,
      "v": 100
    },
    {
      "midi": 47,
      "hit": false,
      "t": 39487.088666666496,
      "d": 122.19523177083465,
      "v": 100
    },
    {
      "midi": 59,
      "hit": false,
      "t": 39615.29349999983,
      "d": 244.39046354166203,
      "v": 100
    },
    {
      "midi": 67,
      "hit": false,
      "t": 39615.29349999983,
      "d": 250.40006510416424,
      "v": 100
    },
    {
      "midi": 64,
      "hit": false,
      "t": 39615.29349999983,
      "d": 252.4032656249983,
      "v": 100
    },
    {
      "midi": 47,
      "hit": false,
      "t": 39871.7031666665,
      "d": 2558.0870651041405,
      "v": 100
    },
    {
      "midi": 54,
      "hit": false,
      "t": 39871.7031666665,
      "d": 2558.0870651041405,
      "v": 100
    },
    {
      "midi": 59,
      "hit": false,
      "t": 39999.90799999983,
      "d": 2558.0870651041405,
      "v": 100
    },
    {
      "midi": 62,
      "hit": false,
      "t": 39999.90799999983,
      "d": 2558.0870651041405,
      "v": 100
    },
    {
      "midi": 66,
      "hit": false,
      "t": 39999.90799999983,
      "d": 2558.0870651041405,
      "v": 100
    },
    {
      "midi": 47,
      "hit": false,
      "t": 42564.00466666647,
      "d": 146.23363802082895,
      "v": 100
    },
    {
      "midi": 54,
      "hit": false,
      "t": 42564.00466666647,
      "d": 154.24644010416523,
      "v": 100
    },
    {
      "midi": 59,
      "hit": false,
      "t": 42692.2094999998,
      "d": 250.40006510416424,
      "v": 100
    },
    {
      "midi": 62,
      "hit": false,
      "t": 42692.2094999998,
      "d": 250.40006510416424,
      "v": 100
    },
    {
      "midi": 66,
      "hit": false,
      "t": 42692.2094999998,
      "d": 250.40006510416424,
      "v": 100
    },
    {
      "midi": 40,
      "hit": false,
      "t": 43076.8239999998,
      "d": 2429.882231770811,
      "v": 100
    },
    {
      "midi": 47,
      "hit": false,
      "t": 43076.8239999998,
      "d": 2429.882231770811,
      "v": 100
    },
    {
      "midi": 59,
      "hit": false,
      "t": 43076.8239999998,
      "d": 2558.0870651041405,
      "v": 100
    },
    {
      "midi": 64,
      "hit": false,
      "t": 43076.8239999998,
      "d": 2558.0870651041405,
      "v": 100
    },
    {
      "midi": 67,
      "hit": false,
      "t": 43076.8239999998,
      "d": 2558.0870651041405,
      "v": 100
    },
    {
      "midi": 40,
      "hit": false,
      "t": 45640.92066666644,
      "d": 122.19523177083465,
      "v": 100
    },
    {
      "midi": 47,
      "hit": false,
      "t": 45640.92066666644,
      "d": 122.19523177083465,
      "v": 100
    },
    {
      "midi": 59,
      "hit": false,
      "t": 45769.12549999978,
      "d": 244.39046354166203,
      "v": 100
    },
    {
      "midi": 67,
      "hit": false,
      "t": 45769.12549999978,
      "d": 250.40006510416424,
      "v": 100
    },
    {
      "midi": 64,
      "hit": false,
      "t": 45769.12549999978,
      "d": 252.4032656249983,
      "v": 100
    },
    {
      "midi": 47,
      "hit": false,
      "t": 46025.53516666644,
      "d": 3070.906398437466,
      "v": 100
    },
    {
      "midi": 54,
      "hit": false,
      "t": 46025.53516666644,
      "d": 3070.906398437466,
      "v": 100
    },
    {
      "midi": 59,
      "hit": false,
      "t": 46153.73999999977,
      "d": 2942.7015651041365,
      "v": 100
    },
    {
      "midi": 62,
      "hit": false,
      "t": 46153.73999999977,
      "d": 2942.7015651041365,
      "v": 100
    },
    {
      "midi": 66,
      "hit": false,
      "t": 46153.73999999977,
      "d": 2942.7015651041365,
      "v": 100
    },
    {
      "midi": 40,
      "hit": false,
      "t": 49230.65599999974,
      "d": 2814.496731770807,
      "v": 100
    },
    {
      "midi": 47,
      "hit": false,
      "t": 49230.65599999974,
      "d": 2814.496731770807,
      "v": 100
    },
    {
      "midi": 59,
      "hit": false,
      "t": 49230.65599999974,
      "d": 2942.7015651041365,
      "v": 100
    },
    {
      "midi": 64,
      "hit": false,
      "t": 49230.65599999974,
      "d": 2942.7015651041365,
      "v": 100
    },
    {
      "midi": 67,
      "hit": false,
      "t": 49230.65599999974,
      "d": 2942.7015651041365,
      "v": 100
    },
    {
      "midi": 47,
      "hit": false,
      "t": 52179.36716666638,
      "d": 2942.7015651041365,
      "v": 100
    },
    {
      "midi": 54,
      "hit": false,
      "t": 52179.36716666638,
      "d": 2942.7015651041365,
      "v": 100
    },
    {
      "midi": 59,
      "hit": false,
      "t": 52307.57199999971,
      "d": 2814.496731770807,
      "v": 100
    },
    {
      "midi": 62,
      "hit": false,
      "t": 52307.57199999971,
      "d": 2814.496731770807,
      "v": 100
    },
    {
      "midi": 66,
      "hit": false,
      "t": 52307.57199999971,
      "d": 2814.496731770807,
      "v": 100
    },
    {
      "midi": 47,
      "hit": false,
      "t": 55256.28316666635,
      "d": 122.19523177083465,
      "v": 100
    },
    {
      "midi": 54,
      "hit": false,
      "t": 55256.28316666635,
      "d": 122.19523177083465,
      "v": 100
    },
    {
      "midi": 67,
      "hit": false,
      "t": 55384.487999999685,
      "d": 2481.965445312475,
      "v": 100
    },
    {
      "midi": 40,
      "hit": false,
      "t": 55384.487999999685,
      "d": 2493.984648437472,
      "v": 100
    },
    {
      "midi": 47,
      "hit": false,
      "t": 55384.487999999685,
      "d": 2493.984648437472,
      "v": 100
    },
    {
      "midi": 64,
      "hit": false,
      "t": 55384.487999999685,
      "d": 2493.984648437472,
      "v": 100
    },
    {
      "midi": 59,
      "hit": false,
      "t": 55384.487999999685,
      "d": 2506.0038515624765,
      "v": 100
    },
    {
      "midi": 52,
      "hit": false,
      "t": 57948.58466666633,
      "d": 446.7137161458304,
      "v": 100
    },
    {
      "midi": 59,
      "hit": false,
      "t": 58076.78949999966,
      "d": 338.54088802083425,
      "v": 100
    },
    {
      "midi": 64,
      "hit": false,
      "t": 58076.78949999966,
      "d": 346.5536901041705,
      "v": 100
    },
    {
      "midi": 67,
      "hit": false,
      "t": 58076.78949999966,
      "d": 348.5568906250046,
      "v": 100
    },
    {
      "midi": 47,
      "hit": false,
      "t": 58461.40399999966,
      "d": 2942.7015651041365,
      "v": 100
    },
    {
      "midi": 54,
      "hit": false,
      "t": 58461.40399999966,
      "d": 2942.7015651041365,
      "v": 100
    },
    {
      "midi": 59,
      "hit": false,
      "t": 58461.40399999966,
      "d": 2942.7015651041365,
      "v": 100
    },
    {
      "midi": 62,
      "hit": false,
      "t": 58461.40399999966,
      "d": 2942.7015651041365,
      "v": 100
    },
    {
      "midi": 66,
      "hit": false,
      "t": 58461.40399999966,
      "d": 2942.7015651041365,
      "v": 100
    },
    {
      "midi": 67,
      "hit": false,
      "t": 61538.31999999963,
      "d": 1788.8580651041484,
      "v": 100
    },
    {
      "midi": 64,
      "hit": false,
      "t": 61538.31999999963,
      "d": 2429.882231770811,
      "v": 100
    },
    {
      "midi": 40,
      "hit": false,
      "t": 61538.31999999963,
      "d": 2942.701565104144,
      "v": 100
    },
    {
      "midi": 47,
      "hit": false,
      "t": 61538.31999999963,
      "d": 2942.701565104144,
      "v": 100
    },
    {
      "midi": 59,
      "hit": false,
      "t": 61538.31999999963,
      "d": 2942.701565104144,
      "v": 100
    },
    {
      "midi": 69,
      "hit": false,
      "t": 63461.39249999961,
      "d": 570.9121484374991,
      "v": 100
    },
    {
      "midi": 67,
      "hit": false,
      "t": 64038.31424999961,
      "d": 442.70731510416226,
      "v": 100
    },
    {
      "midi": 47,
      "hit": false,
      "t": 64615.235999999604,
      "d": 2429.88223177092,
      "v": 100
    },
    {
      "midi": 54,
      "hit": false,
      "t": 64615.235999999604,
      "d": 2429.88223177092,
      "v": 100
    },
    {
      "midi": 59,
      "hit": false,
      "t": 64615.235999999604,
      "d": 2429.88223177092,
      "v": 100
    },
    {
      "midi": 62,
      "hit": false,
      "t": 64615.235999999604,
      "d": 2429.88223177092,
      "v": 100
    },
    {
      "midi": 66,
      "hit": false,
      "t": 64615.235999999604,
      "d": 2429.88223177092,
      "v": 100
    },
    {
      "midi": 47,
      "hit": false,
      "t": 67179.33266666635,
      "d": 414.66250781252165,
      "v": 100
    },
    {
      "midi": 54,
      "hit": false,
      "t": 67179.33266666635,
      "d": 414.66250781252165,
      "v": 100
    },
    {
      "midi": 66,
      "hit": false,
      "t": 67307.53749999969,
      "d": 342.5472890625242,
      "v": 100
    },
    {
      "midi": 59,
      "hit": false,
      "t": 67307.53749999969,
      "d": 350.5600911458605,
      "v": 100
    },
    {
      "midi": 62,
      "hit": false,
      "t": 67307.53749999969,
      "d": 354.56649218752864,
      "v": 100
    },
    {
      "midi": 40,
      "hit": false,
      "t": 67692.15199999971,
      "d": 2429.8822317709855,
      "v": 100
    },
    {
      "midi": 47,
      "hit": false,
      "t": 67692.15199999971,
      "d": 2429.8822317709855,
      "v": 100
    },
    {
      "midi": 59,
      "hit": false,
      "t": 67692.15199999971,
      "d": 2558.0870651043224,
      "v": 100
    },
    {
      "midi": 64,
      "hit": false,
      "t": 67692.15199999971,
      "d": 2558.0870651043224,
      "v": 100
    },
    {
      "midi": 67,
      "hit": false,
      "t": 67692.15199999971,
      "d": 2558.0870651043224,
      "v": 100
    },
    {
      "midi": 40,
      "hit": false,
      "t": 70256.24866666654,
      "d": 122.19523177083465,
      "v": 100
    },
    {
      "midi": 47,
      "hit": false,
      "t": 70256.24866666654,
      "d": 122.19523177083465,
      "v": 100
    },
    {
      "midi": 59,
      "hit": false,
      "t": 70384.45349999987,
      "d": 244.39046354168386,
      "v": 100
    },
    {
      "midi": 67,
      "hit": false,
      "t": 70384.45349999987,
      "d": 250.40006510418607,
      "v": 100
    },
    {
      "midi": 64,
      "hit": false,
      "t": 70384.45349999987,
      "d": 252.40326562502014,
      "v": 100
    },
    {
      "midi": 47,
      "hit": false,
      "t": 70640.86316666656,
      "d": 3070.906398437699,
      "v": 100
    },
    {
      "midi": 54,
      "hit": false,
      "t": 70640.86316666656,
      "d": 3070.906398437699,
      "v": 100
    },
    {
      "midi": 59,
      "hit": false,
      "t": 70769.0679999999,
      "d": 2942.701565104362,
      "v": 100
    },
    {
      "midi": 62,
      "hit": false,
      "t": 70769.0679999999,
      "d": 2942.701565104362,
      "v": 100
    },
    {
      "midi": 66,
      "hit": false,
      "t": 70769.0679999999,
      "d": 2942.701565104362,
      "v": 100
    },
    {
      "midi": 40,
      "hit": false,
      "t": 73845.9840000001,
      "d": 2429.8822317709855,
      "v": 100
    },
    {
      "midi": 47,
      "hit": false,
      "t": 73845.9840000001,
      "d": 2429.8822317709855,
      "v": 100
    },
    {
      "midi": 59,
      "hit": false,
      "t": 73845.9840000001,
      "d": 2558.0870651043224,
      "v": 100
    },
    {
      "midi": 64,
      "hit": false,
      "t": 73845.9840000001,
      "d": 2558.0870651043224,
      "v": 100
    },
    {
      "midi": 67,
      "hit": false,
      "t": 73845.9840000001,
      "d": 2558.0870651043224,
      "v": 100
    },
    {
      "midi": 40,
      "hit": false,
      "t": 76410.08066666692,
      "d": 122.19523177083465,
      "v": 100
    },
    {
      "midi": 47,
      "hit": false,
      "t": 76410.08066666692,
      "d": 122.19523177083465,
      "v": 100
    },
    {
      "midi": 59,
      "hit": false,
      "t": 76538.28550000026,
      "d": 244.39046354168386,
      "v": 100
    },
    {
      "midi": 67,
      "hit": false,
      "t": 76538.28550000026,
      "d": 250.40006510418607,
      "v": 100
    },
    {
      "midi": 64,
      "hit": false,
      "t": 76538.28550000026,
      "d": 252.40326562502014,
      "v": 100
    },
    {
      "midi": 47,
      "hit": false,
      "t": 76794.69516666695,
      "d": 2558.0870651043224,
      "v": 100
    },
    {
      "midi": 54,
      "hit": false,
      "t": 76794.69516666695,
      "d": 2558.0870651043224,
      "v": 100
    },
    {
      "midi": 59,
      "hit": false,
      "t": 76922.90000000029,
      "d": 2558.0870651043224,
      "v": 100
    },
    {
      "midi": 62,
      "hit": false,
      "t": 76922.90000000029,
      "d": 2558.0870651043224,
      "v": 100
    },
    {
      "midi": 66,
      "hit": false,
      "t": 76922.90000000029,
      "d": 2558.0870651043224,
      "v": 100
    },
    {
      "midi": 47,
      "hit": false,
      "t": 79486.99666666711,
      "d": 146.2336380208435,
      "v": 100
    },
    {
      "midi": 54,
      "hit": false,
      "t": 79486.99666666711,
      "d": 154.24644010417978,
      "v": 100
    },
    {
      "midi": 59,
      "hit": false,
      "t": 79615.20150000045,
      "d": 250.40006510418607,
      "v": 100
    },
    {
      "midi": 62,
      "hit": false,
      "t": 79615.20150000045,
      "d": 250.40006510418607,
      "v": 100
    },
    {
      "midi": 66,
      "hit": false,
      "t": 79615.20150000045,
      "d": 250.40006510418607,
      "v": 100
    },
    {
      "midi": 40,
      "hit": false,
      "t": 79999.81600000047,
      "d": 2429.8822317709855,
      "v": 100
    },
    {
      "midi": 47,
      "hit": false,
      "t": 79999.81600000047,
      "d": 2429.8822317709855,
      "v": 100
    },
    {
      "midi": 59,
      "hit": false,
      "t": 79999.81600000047,
      "d": 2429.8822317709855,
      "v": 100
    },
    {
      "midi": 64,
      "hit": false,
      "t": 79999.81600000047,
      "d": 2429.8822317709855,
      "v": 100
    },
    {
      "midi": 67,
      "hit": false,
      "t": 79999.81600000047,
      "d": 2429.8822317709855,
      "v": 100
    },
    {
      "midi": 47,
      "hit": false,
      "t": 82563.91266666728,
      "d": 482.77132552085095,
      "v": 100
    },
    {
      "midi": 52,
      "hit": false,
      "t": 82563.91266666728,
      "d": 494.7905286458554,
      "v": 100
    },
    {
      "midi": 59,
      "hit": false,
      "t": 82563.91266666728,
      "d": 498.7969296875235,
      "v": 100
    },
    {
      "midi": 64,
      "hit": false,
      "t": 82563.91266666728,
      "d": 502.80333072919166,
      "v": 100
    },
    {
      "midi": 67,
      "hit": false,
      "t": 82563.91266666728,
      "d": 510.81613281252794,
      "v": 100
    },
    {
      "midi": 47,
      "hit": false,
      "t": 83076.73200000064,
      "d": 2942.701565104362,
      "v": 100
    },
    {
      "midi": 54,
      "hit": false,
      "t": 83076.73200000064,
      "d": 2942.701565104362,
      "v": 100
    },
    {
      "midi": 59,
      "hit": false,
      "t": 83076.73200000064,
      "d": 2942.701565104362,
      "v": 100
    },
    {
      "midi": 62,
      "hit": false,
      "t": 83076.73200000064,
      "d": 2942.701565104362,
      "v": 100
    },
    {
      "midi": 66,
      "hit": false,
      "t": 83076.73200000064,
      "d": 2942.701565104362,
      "v": 100
    },
    {
      "midi": 67,
      "hit": false,
      "t": 86153.64800000085,
      "d": 1788.8580651042867,
      "v": 100
    },
    {
      "midi": 64,
      "hit": false,
      "t": 86153.64800000085,
      "d": 2429.8822317709855,
      "v": 100
    },
    {
      "midi": 40,
      "hit": false,
      "t": 86153.64800000085,
      "d": 2942.7015651043475,
      "v": 100
    },
    {
      "midi": 47,
      "hit": false,
      "t": 86153.64800000085,
      "d": 2942.7015651043475,
      "v": 100
    },
    {
      "midi": 59,
      "hit": false,
      "t": 86153.64800000085,
      "d": 2942.7015651043475,
      "v": 100
    },
    {
      "midi": 69,
      "hit": false,
      "t": 88076.72050000097,
      "d": 570.912148437521,
      "v": 100
    },
    {
      "midi": 67,
      "hit": false,
      "t": 88653.642250001,
      "d": 442.70731510419864,
      "v": 100
    },
    {
      "midi": 47,
      "hit": false,
      "t": 89230.56400000103,
      "d": 2429.8822317709855,
      "v": 100
    },
    {
      "midi": 54,
      "hit": false,
      "t": 89230.56400000103,
      "d": 2429.8822317709855,
      "v": 100
    },
    {
      "midi": 59,
      "hit": false,
      "t": 89230.56400000103,
      "d": 2429.8822317709855,
      "v": 100
    },
    {
      "midi": 62,
      "hit": false,
      "t": 89230.56400000103,
      "d": 2429.8822317709855,
      "v": 100
    },
    {
      "midi": 66,
      "hit": false,
      "t": 89230.56400000103,
      "d": 2429.8822317709855,
      "v": 100
    },
    {
      "midi": 47,
      "hit": false,
      "t": 91794.66066666784,
      "d": 414.66250781252165,
      "v": 100
    },
    {
      "midi": 54,
      "hit": false,
      "t": 91794.66066666784,
      "d": 414.66250781252165,
      "v": 100
    },
    {
      "midi": 66,
      "hit": false,
      "t": 91922.86550000118,
      "d": 342.5472890625242,
      "v": 100
    },
    {
      "midi": 59,
      "hit": false,
      "t": 91922.86550000118,
      "d": 350.5600911458605,
      "v": 100
    },
    {
      "midi": 62,
      "hit": false,
      "t": 91922.86550000118,
      "d": 354.56649218752864,
      "v": 100
    },
    {
      "midi": 40,
      "hit": false,
      "t": 92307.4800000012,
      "d": 2429.8822317709855,
      "v": 100
    },
    {
      "midi": 47,
      "hit": false,
      "t": 92307.4800000012,
      "d": 2429.8822317709855,
      "v": 100
    },
    {
      "midi": 59,
      "hit": false,
      "t": 92307.4800000012,
      "d": 2558.0870651043224,
      "v": 100
    },
    {
      "midi": 64,
      "hit": false,
      "t": 92307.4800000012,
      "d": 2558.0870651043224,
      "v": 100
    },
    {
      "midi": 67,
      "hit": false,
      "t": 92307.4800000012,
      "d": 2558.0870651043224,
      "v": 100
    },
    {
      "midi": 40,
      "hit": false,
      "t": 94871.57666666803,
      "d": 122.19523177083465,
      "v": 100
    },
    {
      "midi": 47,
      "hit": false,
      "t": 94871.57666666803,
      "d": 122.19523177083465,
      "v": 100
    },
    {
      "midi": 59,
      "hit": false,
      "t": 94999.78150000137,
      "d": 244.39046354168386,
      "v": 100
    },
    {
      "midi": 67,
      "hit": false,
      "t": 94999.78150000137,
      "d": 250.40006510418607,
      "v": 100
    },
    {
      "midi": 64,
      "hit": false,
      "t": 94999.78150000137,
      "d": 252.40326562502014,
      "v": 100
    },
    {
      "midi": 47,
      "hit": false,
      "t": 95256.19116666805,
      "d": 3070.906398437699,
      "v": 100
    },
    {
      "midi": 54,
      "hit": false,
      "t": 95256.19116666805,
      "d": 3070.906398437699,
      "v": 100
    },
    {
      "midi": 59,
      "hit": false,
      "t": 95384.39600000139,
      "d": 2942.701565104362,
      "v": 100
    },
    {
      "midi": 62,
      "hit": false,
      "t": 95384.39600000139,
      "d": 2942.701565104362,
      "v": 100
    },
    {
      "midi": 66,
      "hit": false,
      "t": 95384.39600000139,
      "d": 2942.701565104362,
      "v": 100
    },
    {
      "midi": 52,
      "hit": false,
      "t": 98461.312,
      "d": 186.2976484374958,
      "v": 100
    },
    {
      "midi": 59,
      "hit": false,
      "t": 98461.312,
      "d": 188.30084895832988,
      "v": 100
    },
    {
      "midi": 40,
      "hit": false,
      "t": 98461.31200000159,
      "d": 2429.8822317709855,
      "v": 100
    },
    {
      "midi": 47,
      "hit": false,
      "t": 98461.31200000159,
      "d": 2429.8822317709855,
      "v": 100
    },
    {
      "midi": 59,
      "hit": false,
      "t": 98461.31200000159,
      "d": 2558.0870651043224,
      "v": 100
    },
    {
      "midi": 64,
      "hit": false,
      "t": 98461.31200000159,
      "d": 2558.0870651043224,
      "v": 100
    },
    {
      "midi": 67,
      "hit": false,
      "t": 98461.31200000159,
      "d": 2558.0870651043224,
      "v": 100
    },
    {
      "midi": 40,
      "hit": false,
      "t": 98717.72166666666,
      "d": 58.092815104173496,
      "v": 100
    },
    {
      "midi": 47,
      "hit": false,
      "t": 98717.72166666666,
      "d": 58.092815104173496,
      "v": 100
    },
    {
      "midi": 59,
      "hit": false,
      "t": 99230.541,
      "d": 58.092815104173496,
      "v": 100
    },
    {
      "midi": 59,
      "hit": false,
      "t": 99615.15550000001,
      "d": 58.092815104173496,
      "v": 100
    },
    {
      "midi": 59,
      "hit": false,
      "t": 99871.56516666668,
      "d": 58.092815104173496,
      "v": 100
    },
    {
      "midi": 35,
      "hit": false,
      "t": 100256.17966666669,
      "d": 86.13762239583593,
      "v": 100
    },
    {
      "midi": 35,
      "hit": false,
      "t": 101025.4086666667,
      "d": 58.092815104173496,
      "v": 100
    },
    {
      "midi": 40,
      "hit": false,
      "t": 101025.40866666842,
      "d": 122.19523177083465,
      "v": 100
    },
    {
      "midi": 47,
      "hit": false,
      "t": 101025.40866666842,
      "d": 122.19523177083465,
      "v": 100
    },
    {
      "midi": 59,
      "hit": false,
      "t": 101153.61350000175,
      "d": 244.39046354168386,
      "v": 100
    },
    {
      "midi": 67,
      "hit": false,
      "t": 101153.61350000175,
      "d": 250.40006510418607,
      "v": 100
    },
    {
      "midi": 64,
      "hit": false,
      "t": 101153.61350000175,
      "d": 252.40326562502014,
      "v": 100
    },
    {
      "midi": 47,
      "hit": false,
      "t": 101410.02316666671,
      "d": 122.19523177083465,
      "v": 100
    },
    {
      "midi": 47,
      "hit": false,
      "t": 101410.02316666844,
      "d": 2942.7015651043475,
      "v": 100
    },
    {
      "midi": 54,
      "hit": false,
      "t": 101410.02316666844,
      "d": 2942.7015651043475,
      "v": 100
    },
    {
      "midi": 59,
      "hit": false,
      "t": 101538.22800000005,
      "d": 58.092815104173496,
      "v": 100
    },
    {
      "midi": 59,
      "hit": false,
      "t": 101538.22800000178,
      "d": 2814.4967317710107,
      "v": 100
    },
    {
      "midi": 62,
      "hit": false,
      "t": 101538.22800000178,
      "d": 2814.4967317710107,
      "v": 100
    },
    {
      "midi": 66,
      "hit": false,
      "t": 101538.22800000178,
      "d": 2814.4967317710107,
      "v": 100
    },
    {
      "midi": 59,
      "hit": false,
      "t": 101794.63766666672,
      "d": 94.15042447917222,
      "v": 100
    },
    {
      "midi": 35,
      "hit": false,
      "t": 102179.25216666673,
      "d": 58.092815104173496,
      "v": 100
    },
    {
      "midi": 59,
      "hit": false,
      "t": 102692.07150000006,
      "d": 58.092815104173496,
      "v": 100
    },
    {
      "midi": 59,
      "hit": false,
      "t": 102948.48116666674,
      "d": 58.092815104173496,
      "v": 100
    },
    {
      "midi": 59,
      "hit": false,
      "t": 103333.09566666675,
      "d": 58.092815104173496,
      "v": 100
    },
    {
      "midi": 59,
      "hit": false,
      "t": 104102.32466666675,
      "d": 58.092815104173496,
      "v": 100
    },
    {
      "midi": 47,
      "hit": false,
      "t": 104486.93916666861,
      "d": 122.19523177083465,
      "v": 100
    },
    {
      "midi": 54,
      "hit": false,
      "t": 104486.93916666861,
      "d": 122.19523177083465,
      "v": 100
    },
    {
      "midi": 52,
      "hit": false,
      "t": 104615.14400000009,
      "d": 186.2976484374958,
      "v": 100
    },
    {
      "midi": 59,
      "hit": false,
      "t": 104615.14400000009,
      "d": 188.30084895832988,
      "v": 100
    },
    {
      "midi": 40,
      "hit": false,
      "t": 104615.14400000195,
      "d": 2429.8822317709855,
      "v": 100
    },
    {
      "midi": 47,
      "hit": false,
      "t": 104615.14400000195,
      "d": 2429.8822317709855,
      "v": 100
    },
    {
      "midi": 59,
      "hit": false,
      "t": 104615.14400000195,
      "d": 2558.0870651043224,
      "v": 100
    },
    {
      "midi": 64,
      "hit": false,
      "t": 104615.14400000195,
      "d": 2558.0870651043224,
      "v": 100
    },
    {
      "midi": 67,
      "hit": false,
      "t": 104615.14400000195,
      "d": 2558.0870651043224,
      "v": 100
    },
    {
      "midi": 40,
      "hit": false,
      "t": 104871.55366666675,
      "d": 58.092815104173496,
      "v": 100
    },
    {
      "midi": 47,
      "hit": false,
      "t": 104871.55366666675,
      "d": 58.092815104173496,
      "v": 100
    },
    {
      "midi": 59,
      "hit": false,
      "t": 105384.37300000008,
      "d": 58.092815104173496,
      "v": 100
    },
    {
      "midi": 59,
      "hit": false,
      "t": 105768.98750000009,
      "d": 58.092815104173496,
      "v": 100
    },
    {
      "midi": 59,
      "hit": false,
      "t": 106025.39716666676,
      "d": 58.092815104173496,
      "v": 100
    },
    {
      "midi": 47,
      "hit": false,
      "t": 106410.01166666677,
      "d": 86.13762239583593,
      "v": 100
    },
    {
      "midi": 47,
      "hit": false,
      "t": 106794.62616666677,
      "d": 86.13762239583593,
      "v": 100
    },
    {
      "midi": 47,
      "hit": false,
      "t": 107179.24066666677,
      "d": 58.092815104173496,
      "v": 100
    },
    {
      "midi": 40,
      "hit": false,
      "t": 107179.24066666877,
      "d": 122.19523177083465,
      "v": 100
    },
    {
      "midi": 47,
      "hit": false,
      "t": 107179.24066666877,
      "d": 122.19523177083465,
      "v": 100
    },
    {
      "midi": 59,
      "hit": false,
      "t": 107307.44550000211,
      "d": 244.39046354168386,
      "v": 100
    },
    {
      "midi": 67,
      "hit": false,
      "t": 107307.44550000211,
      "d": 250.40006510418607,
      "v": 100
    },
    {
      "midi": 64,
      "hit": false,
      "t": 107307.44550000211,
      "d": 252.40326562502014,
      "v": 100
    },
    {
      "midi": 47,
      "hit": false,
      "t": 107563.85516666678,
      "d": 122.19523177083465,
      "v": 100
    },
    {
      "midi": 47,
      "hit": false,
      "t": 107563.8551666688,
      "d": 3070.906398437699,
      "v": 100
    },
    {
      "midi": 54,
      "hit": false,
      "t": 107563.8551666688,
      "d": 3070.906398437699,
      "v": 100
    },
    {
      "midi": 59,
      "hit": false,
      "t": 107692.06000000011,
      "d": 58.092815104173496,
      "v": 100
    },
    {
      "midi": 59,
      "hit": false,
      "t": 107692.06000000214,
      "d": 2942.701565104362,
      "v": 100
    },
    {
      "midi": 62,
      "hit": false,
      "t": 107692.06000000214,
      "d": 2942.701565104362,
      "v": 100
    },
    {
      "midi": 66,
      "hit": false,
      "t": 107692.06000000214,
      "d": 2942.701565104362,
      "v": 100
    },
    {
      "midi": 59,
      "hit": false,
      "t": 107948.46966666679,
      "d": 94.15042447917222,
      "v": 100
    },
    {
      "midi": 47,
      "hit": false,
      "t": 108333.0841666668,
      "d": 58.092815104173496,
      "v": 100
    },
    {
      "midi": 59,
      "hit": false,
      "t": 108845.90350000013,
      "d": 58.092815104173496,
      "v": 100
    },
    {
      "midi": 59,
      "hit": false,
      "t": 109102.3131666668,
      "d": 58.092815104173496,
      "v": 100
    },
    {
      "midi": 59,
      "hit": false,
      "t": 109486.92766666682,
      "d": 58.092815104173496,
      "v": 100
    },
    {
      "midi": 62,
      "hit": false,
      "t": 109615.13250000015,
      "d": 250.40006510417152,
      "v": 100
    },
    {
      "midi": 59,
      "hit": false,
      "t": 109871.54216666683,
      "d": 146.2336380208435,
      "v": 80
    },
    {
      "midi": 66,
      "hit": false,
      "t": 109999.74700000016,
      "d": 396.633703125015,
      "v": 80
    },
    {
      "midi": 62,
      "hit": false,
      "t": 110384.36150000017,
      "d": 252.4032656250056,
      "v": 80
    },
    {
      "midi": 59,
      "hit": false,
      "t": 110640.77116666685,
      "d": 122.19523177083465,
      "v": 80
    },
    {
      "midi": 64,
      "hit": false,
      "t": 110768.97600000018,
      "d": 188.30084895832988,
      "v": 100
    },
    {
      "midi": 40,
      "hit": false,
      "t": 110768.97600000234,
      "d": 2429.8822317709855,
      "v": 100
    },
    {
      "midi": 47,
      "hit": false,
      "t": 110768.97600000234,
      "d": 2429.8822317709855,
      "v": 100
    },
    {
      "midi": 59,
      "hit": false,
      "t": 110768.97600000234,
      "d": 2558.0870651043224,
      "v": 100
    },
    {
      "midi": 64,
      "hit": false,
      "t": 110768.97600000234,
      "d": 2558.0870651043224,
      "v": 100
    },
    {
      "midi": 67,
      "hit": false,
      "t": 110768.97600000234,
      "d": 2558.0870651043224,
      "v": 100
    },
    {
      "midi": 40,
      "hit": false,
      "t": 111025.38566666684,
      "d": 58.092815104173496,
      "v": 100
    },
    {
      "midi": 47,
      "hit": false,
      "t": 111025.38566666684,
      "d": 58.092815104173496,
      "v": 100
    },
    {
      "midi": 59,
      "hit": false,
      "t": 111538.20500000018,
      "d": 58.092815104173496,
      "v": 100
    },
    {
      "midi": 59,
      "hit": false,
      "t": 111922.81950000019,
      "d": 58.092815104173496,
      "v": 100
    },
    {
      "midi": 59,
      "hit": false,
      "t": 112179.22916666686,
      "d": 58.092815104173496,
      "v": 100
    },
    {
      "midi": 35,
      "hit": false,
      "t": 112563.84366666687,
      "d": 86.13762239583593,
      "v": 100
    },
    {
      "midi": 35,
      "hit": false,
      "t": 113333.07266666688,
      "d": 58.092815104173496,
      "v": 100
    },
    {
      "midi": 40,
      "hit": false,
      "t": 113333.07266666916,
      "d": 122.19523177083465,
      "v": 100
    },
    {
      "midi": 47,
      "hit": false,
      "t": 113333.07266666916,
      "d": 122.19523177083465,
      "v": 100
    },
    {
      "midi": 59,
      "hit": false,
      "t": 113461.2775000025,
      "d": 244.39046354168386,
      "v": 100
    },
    {
      "midi": 67,
      "hit": false,
      "t": 113461.2775000025,
      "d": 250.40006510418607,
      "v": 100
    },
    {
      "midi": 64,
      "hit": false,
      "t": 113461.2775000025,
      "d": 252.40326562502014,
      "v": 100
    },
    {
      "midi": 47,
      "hit": false,
      "t": 113717.68716666689,
      "d": 122.19523177083465,
      "v": 100
    },
    {
      "midi": 47,
      "hit": false,
      "t": 113717.68716666919,
      "d": 2558.0870651043224,
      "v": 100
    },
    {
      "midi": 54,
      "hit": false,
      "t": 113717.68716666919,
      "d": 2558.0870651043224,
      "v": 100
    },
    {
      "midi": 59,
      "hit": false,
      "t": 113845.89200000023,
      "d": 58.092815104173496,
      "v": 100
    },
    {
      "midi": 59,
      "hit": false,
      "t": 113845.89200000252,
      "d": 2429.8822317709855,
      "v": 100
    },
    {
      "midi": 62,
      "hit": false,
      "t": 113845.89200000252,
      "d": 2429.8822317709855,
      "v": 100
    },
    {
      "midi": 66,
      "hit": false,
      "t": 113845.89200000252,
      "d": 2429.8822317709855,
      "v": 100
    },
    {
      "midi": 59,
      "hit": false,
      "t": 114102.3016666669,
      "d": 94.15042447917222,
      "v": 100
    },
    {
      "midi": 35,
      "hit": false,
      "t": 114486.91616666691,
      "d": 58.092815104173496,
      "v": 100
    },
    {
      "midi": 59,
      "hit": false,
      "t": 114999.73550000024,
      "d": 58.092815104173496,
      "v": 100
    },
    {
      "midi": 59,
      "hit": false,
      "t": 115256.14516666692,
      "d": 58.092815104173496,
      "v": 100
    },
    {
      "midi": 59,
      "hit": false,
      "t": 115640.75966666693,
      "d": 58.092815104173496,
      "v": 100
    },
    {
      "midi": 35,
      "hit": false,
      "t": 116025.37416666694,
      "d": 58.092815104173496,
      "v": 100
    },
    {
      "midi": 35,
      "hit": false,
      "t": 116409.98866666695,
      "d": 58.092815104173496,
      "v": 100
    },
    {
      "midi": 54,
      "hit": false,
      "t": 116409.98866666933,
      "d": 398.6369036458491,
      "v": 100
    },
    {
      "midi": 47,
      "hit": false,
      "t": 116409.98866666933,
      "d": 400.64010416668316,
      "v": 100
    },
    {
      "midi": 59,
      "hit": false,
      "t": 116538.19350000267,
      "d": 290.46407552085293,
      "v": 100
    },
    {
      "midi": 62,
      "hit": false,
      "t": 116538.19350000267,
      "d": 290.46407552085293,
      "v": 100
    },
    {
      "midi": 66,
      "hit": false,
      "t": 116538.19350000267,
      "d": 302.48327864585735,
      "v": 100
    },
    {
      "midi": 52,
      "hit": false,
      "t": 116922.80800000028,
      "d": 186.2976484374958,
      "v": 100
    },
    {
      "midi": 59,
      "hit": false,
      "t": 116922.80800000028,
      "d": 188.30084895832988,
      "v": 100
    },
    {
      "midi": 40,
      "hit": false,
      "t": 116922.8080000027,
      "d": 2429.8822317709855,
      "v": 100
    },
    {
      "midi": 47,
      "hit": false,
      "t": 116922.8080000027,
      "d": 2429.8822317709855,
      "v": 100
    },
    {
      "midi": 59,
      "hit": false,
      "t": 116922.8080000027,
      "d": 2558.0870651043224,
      "v": 100
    },
    {
      "midi": 64,
      "hit": false,
      "t": 116922.8080000027,
      "d": 2558.0870651043224,
      "v": 100
    },
    {
      "midi": 67,
      "hit": false,
      "t": 116922.8080000027,
      "d": 2558.0870651043224,
      "v": 100
    },
    {
      "midi": 40,
      "hit": false,
      "t": 117179.21766666694,
      "d": 58.092815104173496,
      "v": 100
    },
    {
      "midi": 47,
      "hit": false,
      "t": 117179.21766666694,
      "d": 58.092815104173496,
      "v": 100
    },
    {
      "midi": 59,
      "hit": false,
      "t": 117692.03700000027,
      "d": 58.092815104173496,
      "v": 100
    },
    {
      "midi": 59,
      "hit": false,
      "t": 118076.65150000028,
      "d": 58.092815104173496,
      "v": 100
    },
    {
      "midi": 59,
      "hit": false,
      "t": 118333.06116666696,
      "d": 58.092815104173496,
      "v": 100
    },
    {
      "midi": 35,
      "hit": false,
      "t": 118717.67566666697,
      "d": 86.13762239583593,
      "v": 100
    },
    {
      "midi": 35,
      "hit": false,
      "t": 119102.29016666696,
      "d": 86.13762239583593,
      "v": 100
    },
    {
      "midi": 35,
      "hit": false,
      "t": 119486.90466666696,
      "d": 58.092815104173496,
      "v": 100
    },
    {
      "midi": 40,
      "hit": false,
      "t": 119486.90466666952,
      "d": 122.19523177083465,
      "v": 100
    },
    {
      "midi": 47,
      "hit": false,
      "t": 119486.90466666952,
      "d": 122.19523177083465,
      "v": 100
    },
    {
      "midi": 59,
      "hit": false,
      "t": 119615.10950000286,
      "d": 244.39046354168386,
      "v": 100
    },
    {
      "midi": 67,
      "hit": false,
      "t": 119615.10950000286,
      "d": 250.40006510418607,
      "v": 100
    },
    {
      "midi": 64,
      "hit": false,
      "t": 119615.10950000286,
      "d": 252.40326562502014,
      "v": 100
    },
    {
      "midi": 35,
      "hit": false,
      "t": 119871.51916666697,
      "d": 122.19523177083465,
      "v": 100
    },
    {
      "midi": 47,
      "hit": false,
      "t": 119871.51916666955,
      "d": 3070.906398437699,
      "v": 100
    },
    {
      "midi": 54,
      "hit": false,
      "t": 119871.51916666955,
      "d": 3070.906398437699,
      "v": 100
    },
    {
      "midi": 59,
      "hit": false,
      "t": 119999.72400000031,
      "d": 58.092815104173496,
      "v": 100
    },
    {
      "midi": 59,
      "hit": false,
      "t": 119999.72400000288,
      "d": 2942.701565104362,
      "v": 100
    },
    {
      "midi": 62,
      "hit": false,
      "t": 119999.72400000288,
      "d": 2942.701565104362,
      "v": 100
    },
    {
      "midi": 66,
      "hit": false,
      "t": 119999.72400000288,
      "d": 2942.701565104362,
      "v": 100
    },
    {
      "midi": 59,
      "hit": false,
      "t": 120256.13366666698,
      "d": 94.15042447917222,
      "v": 100
    },
    {
      "midi": 59,
      "hit": false,
      "t": 120640.74816666699,
      "d": 58.092815104173496,
      "v": 100
    },
    {
      "midi": 59,
      "hit": false,
      "t": 121153.56750000032,
      "d": 58.092815104173496,
      "v": 100
    },
    {
      "midi": 59,
      "hit": false,
      "t": 121409.977166667,
      "d": 58.092815104173496,
      "v": 100
    },
    {
      "midi": 35,
      "hit": false,
      "t": 121794.59166666701,
      "d": 58.092815104173496,
      "v": 100
    },
    {
      "midi": 54,
      "hit": false,
      "t": 122179.20616666702,
      "d": 90.14402343750407,
      "v": 100
    },
    {
      "midi": 47,
      "hit": false,
      "t": 122179.20616666702,
      "d": 94.15042447917222,
      "v": 100
    },
    {
      "midi": 59,
      "hit": false,
      "t": 122307.41100000036,
      "d": 202.32325260416837,
      "v": 100
    },
    {
      "midi": 66,
      "hit": false,
      "t": 122307.41100000036,
      "d": 214.3424557291728,
      "v": 100
    },
    {
      "midi": 59,
      "hit": false,
      "t": 122563.82066666703,
      "d": 108.17282812499616,
      "v": 100
    },
    {
      "midi": 66,
      "hit": false,
      "t": 122563.82066666703,
      "d": 138.22083593749267,
      "v": 100
    },
    {
      "midi": 45,
      "hit": false,
      "t": 123076.64000000308,
      "d": 2429.8822317709855,
      "v": 100
    },
    {
      "midi": 52,
      "hit": false,
      "t": 123076.64000000308,
      "d": 2429.8822317709855,
      "v": 100
    },
    {
      "midi": 57,
      "hit": false,
      "t": 123076.64000000308,
      "d": 2558.0870651043224,
      "v": 100
    },
    {
      "midi": 61,
      "hit": false,
      "t": 123076.64000000308,
      "d": 2558.0870651043224,
      "v": 100
    },
    {
      "midi": 64,
      "hit": false,
      "t": 123076.64000000308,
      "d": 2558.0870651043224,
      "v": 100
    },
    {
      "midi": 45,
      "hit": false,
      "t": 125640.73666666991,
      "d": 350.56009114584594,
      "v": 100
    },
    {
      "midi": 52,
      "hit": false,
      "t": 125640.73666666991,
      "d": 370.5920963541721,
      "v": 100
    },
    {
      "midi": 64,
      "hit": false,
      "t": 125768.94150000325,
      "d": 250.40006510417152,
      "v": 100
    },
    {
      "midi": 57,
      "hit": false,
      "t": 125768.94150000325,
      "d": 252.4032656250056,
      "v": 100
    },
    {
      "midi": 61,
      "hit": false,
      "t": 125768.94150000325,
      "d": 270.4320703125122,
      "v": 100
    },
    {
      "midi": 45,
      "hit": false,
      "t": 126153.55600000326,
      "d": 2445.907835937658,
      "v": 100
    },
    {
      "midi": 52,
      "hit": false,
      "t": 126153.55600000326,
      "d": 2477.9590442709887,
      "v": 100
    },
    {
      "midi": 64,
      "hit": false,
      "t": 126153.55600000326,
      "d": 2510.0102526043192,
      "v": 100
    },
    {
      "midi": 57,
      "hit": false,
      "t": 126153.55600000326,
      "d": 2514.0166536459874,
      "v": 100
    },
    {
      "midi": 61,
      "hit": false,
      "t": 126153.55600000326,
      "d": 2530.04225781266,
      "v": 100
    },
    {
      "midi": 45,
      "hit": false,
      "t": 128717.65266667008,
      "d": 300.48007812500873,
      "v": 100
    },
    {
      "midi": 52,
      "hit": false,
      "t": 128717.65266667008,
      "d": 338.5408880208415,
      "v": 100
    },
    {
      "midi": 57,
      "hit": false,
      "t": 128845.85750000342,
      "d": 220.352057291675,
      "v": 100
    },
    {
      "midi": 64,
      "hit": false,
      "t": 128845.85750000342,
      "d": 236.37766145834757,
      "v": 100
    },
    {
      "midi": 61,
      "hit": false,
      "t": 128845.85750000342,
      "d": 250.40006510418607,
      "v": 100
    },
    {
      "midi": 66,
      "hit": false,
      "t": 129230.47200000344,
      "d": 2455.923838541814,
      "v": 100
    },
    {
      "midi": 59,
      "hit": false,
      "t": 129230.47200000344,
      "d": 2457.9270390626334,
      "v": 100
    },
    {
      "midi": 62,
      "hit": false,
      "t": 129230.47200000344,
      "d": 2461.9334401043016,
      "v": 100
    },
    {
      "midi": 47,
      "hit": false,
      "t": 129230.47200000344,
      "d": 2465.9398411459697,
      "v": 100
    },
    {
      "midi": 54,
      "hit": false,
      "t": 129230.47200000344,
      "d": 2479.9622447917936,
      "v": 100
    },
    {
      "midi": 47,
      "hit": false,
      "t": 131730.46625000358,
      "d": 340.5440885416756,
      "v": 100
    },
    {
      "midi": 54,
      "hit": false,
      "t": 131730.46625000358,
      "d": 342.5472890624951,
      "v": 100
    },
    {
      "midi": 59,
      "hit": false,
      "t": 131730.46625000358,
      "d": 346.55369010416325,
      "v": 100
    },
    {
      "midi": 62,
      "hit": false,
      "t": 131730.46625000358,
      "d": 348.55689062498277,
      "v": 100
    },
    {
      "midi": 66,
      "hit": false,
      "t": 131730.46625000358,
      "d": 364.58249479165534,
      "v": 100
    },
    {
      "midi": 47,
      "hit": false,
      "t": 132307.38800000356,
      "d": 2457.9270390626334,
      "v": 100
    },
    {
      "midi": 54,
      "hit": false,
      "t": 132307.38800000356,
      "d": 2469.946242187638,
      "v": 100
    },
    {
      "midi": 59,
      "hit": false,
      "t": 132307.38800000356,
      "d": 2491.981447916798,
      "v": 100
    },
    {
      "midi": 62,
      "hit": false,
      "t": 132307.38800000356,
      "d": 2504.0006510417734,
      "v": 100
    },
    {
      "midi": 66,
      "hit": false,
      "t": 132307.38800000356,
      "d": 2512.0134531251097,
      "v": 100
    },
    {
      "midi": 47,
      "hit": false,
      "t": 134871.48466667032,
      "d": 328.52488541664206,
      "v": 100
    },
    {
      "midi": 54,
      "hit": false,
      "t": 134871.48466667032,
      "d": 334.5344869791297,
      "v": 100
    },
    {
      "midi": 59,
      "hit": false,
      "t": 134999.68950000365,
      "d": 256.4096666666446,
      "v": 100
    },
    {
      "midi": 62,
      "hit": false,
      "t": 134999.68950000365,
      "d": 266.4256692708004,
      "v": 100
    },
    {
      "midi": 66,
      "hit": false,
      "t": 134999.68950000365,
      "d": 272.4352708332881,
      "v": 100
    },
    {
      "midi": 45,
      "hit": false,
      "t": 135384.30400000358,
      "d": 2443.9046354168095,
      "v": 100
    },
    {
      "midi": 52,
      "hit": false,
      "t": 135384.30400000358,
      "d": 2459.930239583482,
      "v": 100
    },
    {
      "midi": 57,
      "hit": false,
      "t": 135384.30400000358,
      "d": 2483.968645833491,
      "v": 100
    },
    {
      "midi": 61,
      "hit": false,
      "t": 135384.30400000358,
      "d": 2483.968645833491,
      "v": 100
    },
    {
      "midi": 64,
      "hit": false,
      "t": 135384.30400000358,
      "d": 2495.9878489584953,
      "v": 100
    },
    {
      "midi": 45,
      "hit": false,
      "t": 137948.4006666704,
      "d": 358.5728932291677,
      "v": 100
    },
    {
      "midi": 52,
      "hit": false,
      "t": 137948.4006666704,
      "d": 372.5952968749916,
      "v": 100
    },
    {
      "midi": 57,
      "hit": false,
      "t": 138076.60550000373,
      "d": 234.3744609375135,
      "v": 100
    },
    {
      "midi": 61,
      "hit": false,
      "t": 138076.60550000373,
      "d": 234.3744609375135,
      "v": 100
    },
    {
      "midi": 64,
      "hit": false,
      "t": 138076.60550000373,
      "d": 264.42246875001,
      "v": 100
    },
    {
      "midi": 61,
      "hit": false,
      "t": 138461.22000000373,
      "d": 2249.5941848959774,
      "v": 100
    },
    {
      "midi": 57,
      "hit": false,
      "t": 138461.22000000373,
      "d": 2251.597385416797,
      "v": 100
    },
    {
      "midi": 64,
      "hit": false,
      "t": 138461.22000000373,
      "d": 2265.619789062621,
      "v": 100
    },
    {
      "midi": 45,
      "hit": false,
      "t": 138461.22000000373,
      "d": 2275.6357916667766,
      "v": 100
    },
    {
      "midi": 52,
      "hit": false,
      "t": 138461.22000000373,
      "d": 2277.638992187596,
      "v": 100
    },
    {
      "midi": 64,
      "hit": false,
      "t": 140768.90700000382,
      "d": 653.0433697917033,
      "v": 100
    },
    {
      "midi": 57,
      "hit": false,
      "t": 140768.90700000382,
      "d": 671.0721744791954,
      "v": 100
    },
    {
      "midi": 45,
      "hit": false,
      "t": 140768.90700000382,
      "d": 675.0785755208635,
      "v": 100
    },
    {
      "midi": 61,
      "hit": false,
      "t": 140768.90700000382,
      "d": 675.0785755208635,
      "v": 100
    },
    {
      "midi": 52,
      "hit": false,
      "t": 140768.90700000382,
      "d": 679.0849765625317,
      "v": 100
    },
    {
      "midi": 40,
      "hit": false,
      "t": 141538.13600000384,
      "d": 2479.9622447918227,
      "v": 100
    },
    {
      "midi": 47,
      "hit": false,
      "t": 141538.13600000384,
      "d": 2491.981447916827,
      "v": 100
    },
    {
      "midi": 55,
      "hit": false,
      "t": 141538.13600000384,
      "d": 2578.1190703126485,
      "v": 100
    },
    {
      "midi": 52,
      "hit": false,
      "t": 141538.13600000384,
      "d": 2582.1254713543167,
      "v": 100
    },
    {
      "midi": 59,
      "hit": false,
      "t": 141538.13600000384,
      "d": 2588.1350729168043,
      "v": 100
    },
    {
      "midi": 62,
      "hit": false,
      "t": 141538.13600000384,
      "d": 2592.1414739584725,
      "v": 100
    },
    {
      "midi": 40,
      "hit": false,
      "t": 144102.23266667066,
      "d": 328.52488541661296,
      "v": 100
    },
    {
      "midi": 47,
      "hit": false,
      "t": 144102.23266667066,
      "d": 336.53768749994924,
      "v": 100
    },
    {
      "midi": 52,
      "hit": false,
      "t": 144230.43750000396,
      "d": 262.4192682291614,
      "v": 100
    },
    {
      "midi": 62,
      "hit": false,
      "t": 144230.43750000396,
      "d": 266.42566927082953,
      "v": 100
    },
    {
      "midi": 55,
      "hit": false,
      "t": 144230.43750000396,
      "d": 272.4352708333172,
      "v": 100
    },
    {
      "midi": 59,
      "hit": false,
      "t": 144230.43750000396,
      "d": 276.44167187498533,
      "v": 100
    },
    {
      "midi": 42,
      "hit": false,
      "t": 144615.05200000393,
      "d": 2930.6823619793286,
      "v": 100
    },
    {
      "midi": 54,
      "hit": false,
      "t": 144615.05200000393,
      "d": 2934.6887630209967,
      "v": 100
    },
    {
      "midi": 49,
      "hit": false,
      "t": 144615.05200000393,
      "d": 2940.6983645834844,
      "v": 100
    },
    {
      "midi": 58,
      "hit": false,
      "t": 144615.05200000393,
      "d": 2942.701565104304,
      "v": 100
    },
    {
      "midi": 61,
      "hit": false,
      "t": 144615.05200000393,
      "d": 2952.7175677084597,
      "v": 100
    },
    {
      "midi": 64,
      "hit": false,
      "t": 144615.05200000393,
      "d": 2958.7271692709473,
      "v": 100
    },
    {
      "midi": 40,
      "hit": false,
      "t": 147691.96800000404,
      "d": 2942.701565104333,
      "v": 100
    },
    {
      "midi": 47,
      "hit": false,
      "t": 147691.96800000404,
      "d": 2942.701565104333,
      "v": 100
    },
    {
      "midi": 59,
      "hit": false,
      "t": 147691.96800000404,
      "d": 2942.701565104333,
      "v": 100
    },
    {
      "midi": 64,
      "hit": false,
      "t": 147691.96800000404,
      "d": 2942.701565104333,
      "v": 100
    },
    {
      "midi": 67,
      "hit": false,
      "t": 147691.96800000404,
      "d": 2942.701565104333,
      "v": 100
    },
    {
      "midi": 47,
      "hit": false,
      "t": 150768.88400000418,
      "d": 2429.8822317709855,
      "v": 100
    },
    {
      "midi": 54,
      "hit": false,
      "t": 150768.88400000418,
      "d": 2429.8822317709855,
      "v": 100
    },
    {
      "midi": 59,
      "hit": false,
      "t": 150768.88400000418,
      "d": 2558.087065104308,
      "v": 100
    },
    {
      "midi": 62,
      "hit": false,
      "t": 150768.88400000418,
      "d": 2558.087065104308,
      "v": 100
    },
    {
      "midi": 66,
      "hit": false,
      "t": 150768.88400000418,
      "d": 2558.087065104308,
      "v": 100
    },
    {
      "midi": 54,
      "hit": false,
      "t": 153332.98066667098,
      "d": 122.19523177083465,
      "v": 100
    },
    {
      "midi": 47,
      "hit": false,
      "t": 153332.98066667098,
      "d": 192.30724999998347,
      "v": 100
    },
    {
      "midi": 62,
      "hit": false,
      "t": 153461.1855000043,
      "d": 328.52488541667117,
      "v": 100
    },
    {
      "midi": 59,
      "hit": false,
      "t": 153461.1855000043,
      "d": 332.5312864583393,
      "v": 100
    },
    {
      "midi": 66,
      "hit": false,
      "t": 153461.1855000043,
      "d": 338.54088802082697,
      "v": 100
    },
    {
      "midi": 40,
      "hit": false,
      "t": 153845.8000000043,
      "d": 2429.8822317709855,
      "v": 100
    },
    {
      "midi": 47,
      "hit": false,
      "t": 153845.8000000043,
      "d": 2429.8822317709855,
      "v": 100
    },
    {
      "midi": 59,
      "hit": false,
      "t": 153845.8000000043,
      "d": 2558.087065104308,
      "v": 100
    },
    {
      "midi": 64,
      "hit": false,
      "t": 153845.8000000043,
      "d": 2558.087065104308,
      "v": 100
    },
    {
      "midi": 67,
      "hit": false,
      "t": 153845.8000000043,
      "d": 2558.087065104308,
      "v": 100
    },
    {
      "midi": 40,
      "hit": false,
      "t": 156409.8966666711,
      "d": 122.19523177083465,
      "v": 100
    },
    {
      "midi": 47,
      "hit": false,
      "t": 156409.8966666711,
      "d": 122.19523177083465,
      "v": 100
    },
    {
      "midi": 59,
      "hit": false,
      "t": 156538.1015000044,
      "d": 244.3904635416693,
      "v": 100
    },
    {
      "midi": 67,
      "hit": false,
      "t": 156538.1015000044,
      "d": 250.40006510415697,
      "v": 100
    },
    {
      "midi": 64,
      "hit": false,
      "t": 156538.1015000044,
      "d": 252.40326562497648,
      "v": 100
    },
    {
      "midi": 47,
      "hit": false,
      "t": 156794.51116667106,
      "d": 3070.9063984376553,
      "v": 100
    },
    {
      "midi": 54,
      "hit": false,
      "t": 156794.51116667106,
      "d": 3070.9063984376553,
      "v": 100
    },
    {
      "midi": 59,
      "hit": false,
      "t": 156922.71600000438,
      "d": 2942.701565104333,
      "v": 100
    },
    {
      "midi": 62,
      "hit": false,
      "t": 156922.71600000438,
      "d": 2942.701565104333,
      "v": 100
    },
    {
      "midi": 66,
      "hit": false,
      "t": 156922.71600000438,
      "d": 2942.701565104333,
      "v": 100
    },
    {
      "midi": 40,
      "hit": false,
      "t": 159999.63200000452,
      "d": 2942.701565104333,
      "v": 100
    },
    {
      "midi": 47,
      "hit": false,
      "t": 159999.63200000452,
      "d": 2942.701565104333,
      "v": 100
    },
    {
      "midi": 59,
      "hit": false,
      "t": 159999.63200000452,
      "d": 2942.701565104333,
      "v": 100
    },
    {
      "midi": 64,
      "hit": false,
      "t": 159999.63200000452,
      "d": 2942.701565104333,
      "v": 100
    },
    {
      "midi": 67,
      "hit": false,
      "t": 159999.63200000452,
      "d": 2942.701565104333,
      "v": 100
    },
    {
      "midi": 47,
      "hit": false,
      "t": 163076.54800000467,
      "d": 2942.701565104333,
      "v": 100
    },
    {
      "midi": 54,
      "hit": false,
      "t": 163076.54800000467,
      "d": 2942.701565104333,
      "v": 100
    },
    {
      "midi": 59,
      "hit": false,
      "t": 163076.54800000467,
      "d": 2942.701565104333,
      "v": 100
    },
    {
      "midi": 62,
      "hit": false,
      "t": 163076.54800000467,
      "d": 2942.701565104333,
      "v": 100
    },
    {
      "midi": 66,
      "hit": false,
      "t": 163076.54800000467,
      "d": 2942.701565104333,
      "v": 100
    },
    {
      "midi": 40,
      "hit": false,
      "t": 166153.4640000048,
      "d": 2429.8822317709855,
      "v": 100
    },
    {
      "midi": 47,
      "hit": false,
      "t": 166153.4640000048,
      "d": 2429.8822317709855,
      "v": 100
    },
    {
      "midi": 59,
      "hit": false,
      "t": 166153.4640000048,
      "d": 2558.087065104308,
      "v": 100
    },
    {
      "midi": 64,
      "hit": false,
      "t": 166153.4640000048,
      "d": 2558.087065104308,
      "v": 100
    },
    {
      "midi": 67,
      "hit": false,
      "t": 166153.4640000048,
      "d": 2558.087065104308,
      "v": 100
    },
    {
      "midi": 40,
      "hit": false,
      "t": 168717.5606666716,
      "d": 122.19523177083465,
      "v": 100
    },
    {
      "midi": 47,
      "hit": false,
      "t": 168717.5606666716,
      "d": 122.19523177083465,
      "v": 100
    },
    {
      "midi": 59,
      "hit": false,
      "t": 168845.76550000493,
      "d": 244.3904635416693,
      "v": 100
    },
    {
      "midi": 67,
      "hit": false,
      "t": 168845.76550000493,
      "d": 250.40006510415697,
      "v": 100
    },
    {
      "midi": 64,
      "hit": false,
      "t": 168845.76550000493,
      "d": 252.40326562497648,
      "v": 100
    },
    {
      "midi": 47,
      "hit": false,
      "t": 169102.17516667157,
      "d": 3070.9063984376553,
      "v": 100
    },
    {
      "midi": 54,
      "hit": false,
      "t": 169102.17516667157,
      "d": 3070.9063984376553,
      "v": 100
    },
    {
      "midi": 59,
      "hit": false,
      "t": 169230.3800000049,
      "d": 2942.701565104333,
      "v": 100
    },
    {
      "midi": 62,
      "hit": false,
      "t": 169230.3800000049,
      "d": 2942.701565104333,
      "v": 100
    },
    {
      "midi": 66,
      "hit": false,
      "t": 169230.3800000049,
      "d": 2942.701565104333,
      "v": 100
    },
    {
      "midi": 45,
      "hit": false,
      "t": 172307.29600000504,
      "d": 2429.8822317709855,
      "v": 100
    },
    {
      "midi": 52,
      "hit": false,
      "t": 172307.29600000504,
      "d": 2429.8822317709855,
      "v": 100
    },
    {
      "midi": 57,
      "hit": false,
      "t": 172307.29600000504,
      "d": 2558.087065104308,
      "v": 100
    },
    {
      "midi": 61,
      "hit": false,
      "t": 172307.29600000504,
      "d": 2558.087065104308,
      "v": 100
    },
    {
      "midi": 64,
      "hit": false,
      "t": 172307.29600000504,
      "d": 2558.087065104308,
      "v": 100
    },
    {
      "midi": 45,
      "hit": false,
      "t": 174871.39266667183,
      "d": 350.5600911458314,
      "v": 100
    },
    {
      "midi": 52,
      "hit": false,
      "t": 174871.39266667183,
      "d": 370.5920963541721,
      "v": 100
    },
    {
      "midi": 64,
      "hit": false,
      "t": 174999.59750000515,
      "d": 250.40006510418607,
      "v": 100
    },
    {
      "midi": 57,
      "hit": false,
      "t": 174999.59750000515,
      "d": 252.4032656250056,
      "v": 100
    },
    {
      "midi": 61,
      "hit": false,
      "t": 174999.59750000515,
      "d": 270.4320703124977,
      "v": 100
    },
    {
      "midi": 45,
      "hit": false,
      "t": 175384.21200000515,
      "d": 2445.907835937629,
      "v": 100
    },
    {
      "midi": 52,
      "hit": false,
      "t": 175384.21200000515,
      "d": 2477.959044270974,
      "v": 100
    },
    {
      "midi": 64,
      "hit": false,
      "t": 175384.21200000515,
      "d": 2510.0102526043192,
      "v": 100
    },
    {
      "midi": 57,
      "hit": false,
      "t": 175384.21200000515,
      "d": 2514.0166536459874,
      "v": 100
    },
    {
      "midi": 61,
      "hit": false,
      "t": 175384.21200000515,
      "d": 2530.04225781266,
      "v": 100
    },
    {
      "midi": 45,
      "hit": false,
      "t": 177948.30866667198,
      "d": 300.4800781249942,
      "v": 100
    },
    {
      "midi": 52,
      "hit": false,
      "t": 177948.30866667198,
      "d": 338.54088802082697,
      "v": 100
    },
    {
      "midi": 57,
      "hit": false,
      "t": 178076.5135000053,
      "d": 220.35205729166046,
      "v": 100
    },
    {
      "midi": 64,
      "hit": false,
      "t": 178076.5135000053,
      "d": 236.37766145833302,
      "v": 100
    },
    {
      "midi": 61,
      "hit": false,
      "t": 178076.5135000053,
      "d": 250.40006510415697,
      "v": 100
    },
    {
      "midi": 66,
      "hit": false,
      "t": 178461.12800000526,
      "d": 2455.923838541814,
      "v": 100
    },
    {
      "midi": 59,
      "hit": false,
      "t": 178461.12800000526,
      "d": 2457.9270390626334,
      "v": 100
    },
    {
      "midi": 62,
      "hit": false,
      "t": 178461.12800000526,
      "d": 2461.9334401043016,
      "v": 100
    },
    {
      "midi": 47,
      "hit": false,
      "t": 178461.12800000526,
      "d": 2465.9398411459697,
      "v": 100
    },
    {
      "midi": 54,
      "hit": false,
      "t": 178461.12800000526,
      "d": 2479.9622447917936,
      "v": 100
    },
    {
      "midi": 47,
      "hit": false,
      "t": 180961.1222500054,
      "d": 340.5440885416756,
      "v": 100
    },
    {
      "midi": 54,
      "hit": false,
      "t": 180961.1222500054,
      "d": 342.5472890624951,
      "v": 100
    },
    {
      "midi": 59,
      "hit": false,
      "t": 180961.1222500054,
      "d": 346.55369010416325,
      "v": 100
    },
    {
      "midi": 62,
      "hit": false,
      "t": 180961.1222500054,
      "d": 348.55689062498277,
      "v": 100
    },
    {
      "midi": 66,
      "hit": false,
      "t": 180961.1222500054,
      "d": 364.58249479165534,
      "v": 100
    },
    {
      "midi": 47,
      "hit": false,
      "t": 181538.04400000538,
      "d": 2942.701565104333,
      "v": 100
    },
    {
      "midi": 54,
      "hit": false,
      "t": 181538.04400000538,
      "d": 2942.701565104333,
      "v": 100
    },
    {
      "midi": 59,
      "hit": false,
      "t": 181538.04400000538,
      "d": 2942.701565104333,
      "v": 100
    },
    {
      "midi": 62,
      "hit": false,
      "t": 181538.04400000538,
      "d": 2942.701565104333,
      "v": 100
    },
    {
      "midi": 66,
      "hit": false,
      "t": 181538.04400000538,
      "d": 2942.701565104333,
      "v": 100
    },
    {
      "midi": 45,
      "hit": false,
      "t": 184614.96000000552,
      "d": 1788.8580651042575,
      "v": 100
    },
    {
      "midi": 52,
      "hit": false,
      "t": 184614.96000000552,
      "d": 1788.8580651042575,
      "v": 100
    },
    {
      "midi": 57,
      "hit": false,
      "t": 184614.96000000552,
      "d": 1788.8580651042575,
      "v": 100
    },
    {
      "midi": 61,
      "hit": false,
      "t": 184614.96000000552,
      "d": 1788.8580651042575,
      "v": 100
    },
    {
      "midi": 64,
      "hit": false,
      "t": 184614.96000000552,
      "d": 1788.8580651042575,
      "v": 100
    },
    {
      "midi": 45,
      "hit": false,
      "t": 186538.0325000056,
      "d": 378.6048984375084,
      "v": 100
    },
    {
      "midi": 52,
      "hit": false,
      "t": 186538.0325000056,
      "d": 378.6048984375084,
      "v": 100
    },
    {
      "midi": 57,
      "hit": false,
      "t": 186538.0325000056,
      "d": 378.6048984375084,
      "v": 100
    },
    {
      "midi": 61,
      "hit": false,
      "t": 186538.0325000056,
      "d": 378.6048984375084,
      "v": 100
    },
    {
      "midi": 64,
      "hit": false,
      "t": 186538.0325000056,
      "d": 378.6048984375084,
      "v": 100
    },
    {
      "midi": 45,
      "hit": false,
      "t": 187050.85183333894,
      "d": 506.8097317708598,
      "v": 100
    },
    {
      "midi": 52,
      "hit": false,
      "t": 187050.85183333894,
      "d": 506.8097317708598,
      "v": 100
    },
    {
      "midi": 57,
      "hit": false,
      "t": 187050.85183333894,
      "d": 506.8097317708598,
      "v": 100
    },
    {
      "midi": 61,
      "hit": false,
      "t": 187050.85183333894,
      "d": 506.8097317708598,
      "v": 100
    },
    {
      "midi": 64,
      "hit": false,
      "t": 187050.85183333894,
      "d": 506.8097317708598,
      "v": 100
    },
    {
      "midi": 61,
      "hit": false,
      "t": 187691.8760000056,
      "d": 2249.5941848959774,
      "v": 100
    },
    {
      "midi": 57,
      "hit": false,
      "t": 187691.8760000056,
      "d": 2251.597385416797,
      "v": 100
    },
    {
      "midi": 64,
      "hit": false,
      "t": 187691.8760000056,
      "d": 2265.619789062621,
      "v": 100
    },
    {
      "midi": 45,
      "hit": false,
      "t": 187691.8760000056,
      "d": 2275.6357916667766,
      "v": 100
    },
    {
      "midi": 52,
      "hit": false,
      "t": 187691.8760000056,
      "d": 2277.638992187596,
      "v": 100
    },
    {
      "midi": 45,
      "hit": false,
      "t": 189999.5630000057,
      "d": 220.35205729166046,
      "v": 104
    },
    {
      "midi": 64,
      "hit": false,
      "t": 189999.5630000057,
      "d": 653.0433697917033,
      "v": 100
    },
    {
      "midi": 57,
      "hit": false,
      "t": 189999.5630000057,
      "d": 671.0721744791954,
      "v": 100
    },
    {
      "midi": 61,
      "hit": false,
      "t": 189999.5630000057,
      "d": 675.0785755208635,
      "v": 100
    },
    {
      "midi": 52,
      "hit": false,
      "t": 189999.5630000057,
      "d": 679.0849765625317,
      "v": 100
    },
    {
      "midi": 44,
      "hit": false,
      "t": 190255.97266667237,
      "d": 334.53448697918793,
      "v": 104
    },
    {
      "midi": 40,
      "hit": false,
      "t": 190768.79200000572,
      "d": 2479.9622447918227,
      "v": 100
    },
    {
      "midi": 47,
      "hit": false,
      "t": 190768.79200000572,
      "d": 2491.981447916827,
      "v": 100
    },
    {
      "midi": 55,
      "hit": false,
      "t": 190768.79200000572,
      "d": 2578.1190703126485,
      "v": 100
    },
    {
      "midi": 52,
      "hit": false,
      "t": 190768.79200000572,
      "d": 2582.1254713543167,
      "v": 100
    },
    {
      "midi": 59,
      "hit": false,
      "t": 190768.79200000572,
      "d": 2588.1350729168043,
      "v": 100
    },
    {
      "midi": 62,
      "hit": false,
      "t": 190768.79200000572,
      "d": 2592.1414739584725,
      "v": 100
    },
    {
      "midi": 40,
      "hit": false,
      "t": 193332.88866667254,
      "d": 328.52488541661296,
      "v": 100
    },
    {
      "midi": 47,
      "hit": false,
      "t": 193332.88866667254,
      "d": 336.53768749994924,
      "v": 100
    },
    {
      "midi": 52,
      "hit": false,
      "t": 193461.09350000584,
      "d": 262.4192682291614,
      "v": 100
    },
    {
      "midi": 62,
      "hit": false,
      "t": 193461.09350000584,
      "d": 266.42566927082953,
      "v": 100
    },
    {
      "midi": 55,
      "hit": false,
      "t": 193461.09350000584,
      "d": 272.4352708333172,
      "v": 100
    },
    {
      "midi": 59,
      "hit": false,
      "t": 193461.09350000584,
      "d": 276.44167187498533,
      "v": 100
    },
    {
      "midi": 42,
      "hit": false,
      "t": 193845.7080000058,
      "d": 2930.6823619793286,
      "v": 100
    },
    {
      "midi": 54,
      "hit": false,
      "t": 193845.7080000058,
      "d": 2934.6887630209967,
      "v": 100
    },
    {
      "midi": 49,
      "hit": false,
      "t": 193845.7080000058,
      "d": 2940.6983645834844,
      "v": 100
    },
    {
      "midi": 58,
      "hit": false,
      "t": 193845.7080000058,
      "d": 2942.701565104304,
      "v": 100
    },
    {
      "midi": 61,
      "hit": false,
      "t": 193845.7080000058,
      "d": 2952.7175677084597,
      "v": 100
    },
    {
      "midi": 64,
      "hit": false,
      "t": 193845.7080000058,
      "d": 2958.7271692709473,
      "v": 100
    },
    {
      "midi": 52,
      "hit": false,
      "t": 196922.62400000036,
      "d": 186.2976484374958,
      "v": 100
    },
    {
      "midi": 59,
      "hit": false,
      "t": 196922.62400000036,
      "d": 188.30084895831533,
      "v": 100
    },
    {
      "midi": 40,
      "hit": false,
      "t": 196922.62400000592,
      "d": 2429.8822317709855,
      "v": 100
    },
    {
      "midi": 47,
      "hit": false,
      "t": 196922.62400000592,
      "d": 2429.8822317709855,
      "v": 100
    },
    {
      "midi": 59,
      "hit": false,
      "t": 196922.62400000592,
      "d": 2558.087065104308,
      "v": 100
    },
    {
      "midi": 64,
      "hit": false,
      "t": 196922.62400000592,
      "d": 2558.087065104308,
      "v": 100
    },
    {
      "midi": 67,
      "hit": false,
      "t": 196922.62400000592,
      "d": 2558.087065104308,
      "v": 100
    },
    {
      "midi": 40,
      "hit": false,
      "t": 197179.033666667,
      "d": 58.092815104173496,
      "v": 100
    },
    {
      "midi": 47,
      "hit": false,
      "t": 197179.033666667,
      "d": 58.092815104173496,
      "v": 100
    },
    {
      "midi": 59,
      "hit": false,
      "t": 197691.85300000035,
      "d": 58.092815104173496,
      "v": 100
    },
    {
      "midi": 59,
      "hit": false,
      "t": 198076.46750000035,
      "d": 58.092815104173496,
      "v": 100
    },
    {
      "midi": 59,
      "hit": false,
      "t": 198332.87716666702,
      "d": 58.092815104173496,
      "v": 100
    },
    {
      "midi": 35,
      "hit": false,
      "t": 198717.49166666702,
      "d": 86.13762239582138,
      "v": 100
    },
    {
      "midi": 35,
      "hit": false,
      "t": 199486.720666667,
      "d": 58.092815104173496,
      "v": 100
    },
    {
      "midi": 40,
      "hit": false,
      "t": 199486.7206666727,
      "d": 122.19523177083465,
      "v": 100
    },
    {
      "midi": 47,
      "hit": false,
      "t": 199486.7206666727,
      "d": 122.19523177083465,
      "v": 100
    },
    {
      "midi": 59,
      "hit": false,
      "t": 199614.92550000604,
      "d": 244.3904635416693,
      "v": 100
    },
    {
      "midi": 67,
      "hit": false,
      "t": 199614.92550000604,
      "d": 250.40006510415697,
      "v": 100
    },
    {
      "midi": 64,
      "hit": false,
      "t": 199614.92550000604,
      "d": 252.40326562497648,
      "v": 100
    },
    {
      "midi": 47,
      "hit": false,
      "t": 199871.335166667,
      "d": 122.19523177083465,
      "v": 100
    },
    {
      "midi": 47,
      "hit": false,
      "t": 199871.33516667268,
      "d": 2942.701565104333,
      "v": 100
    },
    {
      "midi": 54,
      "hit": false,
      "t": 199871.33516667268,
      "d": 2942.701565104333,
      "v": 100
    },
    {
      "midi": 59,
      "hit": false,
      "t": 199999.54000000033,
      "d": 58.092815104173496,
      "v": 100
    },
    {
      "midi": 59,
      "hit": false,
      "t": 199999.540000006,
      "d": 2814.4967317710107,
      "v": 100
    },
    {
      "midi": 62,
      "hit": false,
      "t": 199999.540000006,
      "d": 2814.4967317710107,
      "v": 100
    },
    {
      "midi": 66,
      "hit": false,
      "t": 199999.540000006,
      "d": 2814.4967317710107,
      "v": 100
    },
    {
      "midi": 59,
      "hit": false,
      "t": 200255.949666667,
      "d": 94.15042447915766,
      "v": 100
    },
    {
      "midi": 35,
      "hit": false,
      "t": 200640.564166667,
      "d": 58.092815104173496,
      "v": 100
    },
    {
      "midi": 59,
      "hit": false,
      "t": 201153.38350000035,
      "d": 58.092815104173496,
      "v": 100
    },
    {
      "midi": 59,
      "hit": false,
      "t": 201409.79316666702,
      "d": 58.092815104173496,
      "v": 100
    },
    {
      "midi": 59,
      "hit": false,
      "t": 201794.40766666702,
      "d": 58.092815104173496,
      "v": 100
    },
    {
      "midi": 59,
      "hit": false,
      "t": 202563.63666666704,
      "d": 58.092815104173496,
      "v": 100
    },
    {
      "midi": 47,
      "hit": false,
      "t": 202948.25116667285,
      "d": 122.19523177083465,
      "v": 100
    },
    {
      "midi": 54,
      "hit": false,
      "t": 202948.25116667285,
      "d": 122.19523177083465,
      "v": 100
    },
    {
      "midi": 52,
      "hit": false,
      "t": 203076.45600000038,
      "d": 186.2976484374958,
      "v": 100
    },
    {
      "midi": 59,
      "hit": false,
      "t": 203076.45600000038,
      "d": 188.30084895831533,
      "v": 100
    },
    {
      "midi": 40,
      "hit": false,
      "t": 203076.45600000618,
      "d": 2429.8822317709855,
      "v": 100
    },
    {
      "midi": 47,
      "hit": false,
      "t": 203076.45600000618,
      "d": 2429.8822317709855,
      "v": 100
    },
    {
      "midi": 59,
      "hit": false,
      "t": 203076.45600000618,
      "d": 2558.087065104308,
      "v": 100
    },
    {
      "midi": 64,
      "hit": false,
      "t": 203076.45600000618,
      "d": 2558.087065104308,
      "v": 100
    },
    {
      "midi": 67,
      "hit": false,
      "t": 203076.45600000618,
      "d": 2558.087065104308,
      "v": 100
    },
    {
      "midi": 40,
      "hit": false,
      "t": 203332.86566666703,
      "d": 58.092815104173496,
      "v": 100
    },
    {
      "midi": 47,
      "hit": false,
      "t": 203332.86566666703,
      "d": 58.092815104173496,
      "v": 100
    },
    {
      "midi": 59,
      "hit": false,
      "t": 203845.68500000038,
      "d": 58.092815104173496,
      "v": 100
    },
    {
      "midi": 59,
      "hit": false,
      "t": 204230.29950000037,
      "d": 58.092815104173496,
      "v": 100
    },
    {
      "midi": 59,
      "hit": false,
      "t": 204486.70916666705,
      "d": 58.092815104173496,
      "v": 100
    },
    {
      "midi": 47,
      "hit": false,
      "t": 204871.32366666704,
      "d": 86.13762239582138,
      "v": 100
    },
    {
      "midi": 47,
      "hit": false,
      "t": 205255.93816666704,
      "d": 86.13762239582138,
      "v": 100
    },
    {
      "midi": 47,
      "hit": false,
      "t": 205640.55266666703,
      "d": 58.092815104173496,
      "v": 100
    },
    {
      "midi": 40,
      "hit": false,
      "t": 205640.55266667297,
      "d": 122.19523177083465,
      "v": 100
    },
    {
      "midi": 47,
      "hit": false,
      "t": 205640.55266667297,
      "d": 122.19523177083465,
      "v": 100
    },
    {
      "midi": 59,
      "hit": false,
      "t": 205768.7575000063,
      "d": 244.3904635416693,
      "v": 100
    },
    {
      "midi": 67,
      "hit": false,
      "t": 205768.7575000063,
      "d": 250.40006510415697,
      "v": 100
    },
    {
      "midi": 64,
      "hit": false,
      "t": 205768.7575000063,
      "d": 252.40326562497648,
      "v": 100
    },
    {
      "midi": 47,
      "hit": false,
      "t": 206025.16716666703,
      "d": 122.19523177083465,
      "v": 100
    },
    {
      "midi": 47,
      "hit": false,
      "t": 206025.16716667294,
      "d": 3070.9063984376553,
      "v": 100
    },
    {
      "midi": 54,
      "hit": false,
      "t": 206025.16716667294,
      "d": 3070.9063984376553,
      "v": 100
    },
    {
      "midi": 59,
      "hit": false,
      "t": 206153.37200000035,
      "d": 58.092815104173496,
      "v": 100
    },
    {
      "midi": 59,
      "hit": false,
      "t": 206153.37200000626,
      "d": 2942.701565104333,
      "v": 100
    },
    {
      "midi": 62,
      "hit": false,
      "t": 206153.37200000626,
      "d": 2942.701565104333,
      "v": 100
    },
    {
      "midi": 66,
      "hit": false,
      "t": 206153.37200000626,
      "d": 2942.701565104333,
      "v": 100
    },
    {
      "midi": 59,
      "hit": false,
      "t": 206409.78166666703,
      "d": 94.15042447915766,
      "v": 100
    },
    {
      "midi": 47,
      "hit": false,
      "t": 206794.39616666702,
      "d": 58.092815104173496,
      "v": 100
    },
    {
      "midi": 59,
      "hit": false,
      "t": 207307.21550000037,
      "d": 58.092815104173496,
      "v": 100
    },
    {
      "midi": 59,
      "hit": false,
      "t": 207563.62516666704,
      "d": 58.092815104173496,
      "v": 100
    },
    {
      "midi": 59,
      "hit": false,
      "t": 207948.23966666704,
      "d": 58.092815104173496,
      "v": 100
    },
    {
      "midi": 62,
      "hit": false,
      "t": 208076.4445000004,
      "d": 250.40006510415697,
      "v": 100
    },
    {
      "midi": 59,
      "hit": false,
      "t": 208332.85416666704,
      "d": 146.2336380208144,
      "v": 80
    },
    {
      "midi": 66,
      "hit": false,
      "t": 208461.05900000036,
      "d": 396.63370312500047,
      "v": 80
    },
    {
      "midi": 62,
      "hit": false,
      "t": 208845.67350000035,
      "d": 252.4032656250056,
      "v": 80
    },
    {
      "midi": 59,
      "hit": false,
      "t": 209102.08316666703,
      "d": 122.19523177083465,
      "v": 80
    },
    {
      "midi": 64,
      "hit": false,
      "t": 209230.28800000035,
      "d": 188.30084895834443,
      "v": 100
    },
    {
      "midi": 40,
      "hit": false,
      "t": 209230.2880000064,
      "d": 2429.8822317709855,
      "v": 100
    },
    {
      "midi": 47,
      "hit": false,
      "t": 209230.2880000064,
      "d": 2429.8822317709855,
      "v": 100
    },
    {
      "midi": 59,
      "hit": false,
      "t": 209230.2880000064,
      "d": 2558.087065104308,
      "v": 100
    },
    {
      "midi": 64,
      "hit": false,
      "t": 209230.2880000064,
      "d": 2558.087065104308,
      "v": 100
    },
    {
      "midi": 67,
      "hit": false,
      "t": 209230.2880000064,
      "d": 2558.087065104308,
      "v": 100
    },
    {
      "midi": 40,
      "hit": false,
      "t": 209486.69766666702,
      "d": 58.092815104173496,
      "v": 100
    },
    {
      "midi": 47,
      "hit": false,
      "t": 209486.69766666702,
      "d": 58.092815104173496,
      "v": 100
    },
    {
      "midi": 59,
      "hit": false,
      "t": 209999.51700000037,
      "d": 58.092815104173496,
      "v": 100
    },
    {
      "midi": 59,
      "hit": false,
      "t": 210384.13150000037,
      "d": 58.092815104173496,
      "v": 100
    },
    {
      "midi": 59,
      "hit": false,
      "t": 210640.54116666704,
      "d": 58.092815104173496,
      "v": 100
    },
    {
      "midi": 35,
      "hit": false,
      "t": 211025.15566666704,
      "d": 86.13762239582138,
      "v": 100
    },
    {
      "midi": 35,
      "hit": false,
      "t": 211794.38466666703,
      "d": 58.092815104173496,
      "v": 100
    },
    {
      "midi": 40,
      "hit": false,
      "t": 211794.3846666732,
      "d": 122.19523177083465,
      "v": 100
    },
    {
      "midi": 47,
      "hit": false,
      "t": 211794.3846666732,
      "d": 122.19523177083465,
      "v": 100
    },
    {
      "midi": 59,
      "hit": false,
      "t": 211922.58950000652,
      "d": 244.3904635416693,
      "v": 100
    },
    {
      "midi": 67,
      "hit": false,
      "t": 211922.58950000652,
      "d": 250.40006510415697,
      "v": 100
    },
    {
      "midi": 64,
      "hit": false,
      "t": 211922.58950000652,
      "d": 252.40326562497648,
      "v": 100
    },
    {
      "midi": 47,
      "hit": false,
      "t": 212178.99916666702,
      "d": 122.19523177083465,
      "v": 100
    },
    {
      "midi": 47,
      "hit": false,
      "t": 212178.99916667317,
      "d": 2558.087065104308,
      "v": 100
    },
    {
      "midi": 54,
      "hit": false,
      "t": 212178.99916667317,
      "d": 2558.087065104308,
      "v": 100
    },
    {
      "midi": 59,
      "hit": false,
      "t": 212307.20400000035,
      "d": 58.092815104173496,
      "v": 100
    },
    {
      "midi": 59,
      "hit": false,
      "t": 212307.2040000065,
      "d": 2429.8822317709855,
      "v": 100
    },
    {
      "midi": 62,
      "hit": false,
      "t": 212307.2040000065,
      "d": 2429.8822317709855,
      "v": 100
    },
    {
      "midi": 66,
      "hit": false,
      "t": 212307.2040000065,
      "d": 2429.8822317709855,
      "v": 100
    },
    {
      "midi": 59,
      "hit": false,
      "t": 212563.61366666702,
      "d": 94.15042447915766,
      "v": 100
    },
    {
      "midi": 35,
      "hit": false,
      "t": 212948.22816666702,
      "d": 58.092815104173496,
      "v": 100
    },
    {
      "midi": 59,
      "hit": false,
      "t": 213461.04750000036,
      "d": 58.092815104173496,
      "v": 100
    },
    {
      "midi": 59,
      "hit": false,
      "t": 213717.45716666704,
      "d": 58.092815104173496,
      "v": 100
    },
    {
      "midi": 59,
      "hit": false,
      "t": 214102.07166666703,
      "d": 58.092815104173496,
      "v": 100
    },
    {
      "midi": 35,
      "hit": false,
      "t": 214486.68616666703,
      "d": 58.092815104173496,
      "v": 100
    },
    {
      "midi": 35,
      "hit": false,
      "t": 214871.30066666703,
      "d": 58.092815104173496,
      "v": 100
    },
    {
      "midi": 54,
      "hit": false,
      "t": 214871.3006666733,
      "d": 398.63690364582,
      "v": 100
    },
    {
      "midi": 47,
      "hit": false,
      "t": 214871.3006666733,
      "d": 400.6401041666395,
      "v": 100
    },
    {
      "midi": 59,
      "hit": false,
      "t": 214999.50550000663,
      "d": 290.4640755208093,
      "v": 100
    },
    {
      "midi": 62,
      "hit": false,
      "t": 214999.50550000663,
      "d": 290.4640755208093,
      "v": 100
    },
    {
      "midi": 66,
      "hit": false,
      "t": 214999.50550000663,
      "d": 302.4832786458137,
      "v": 100
    },
    {
      "midi": 52,
      "hit": false,
      "t": 215384.12000000037,
      "d": 186.2976484374958,
      "v": 100
    },
    {
      "midi": 59,
      "hit": false,
      "t": 215384.12000000037,
      "d": 188.30084895831533,
      "v": 100
    },
    {
      "midi": 40,
      "hit": false,
      "t": 215384.1200000066,
      "d": 2429.8822317709855,
      "v": 100
    },
    {
      "midi": 47,
      "hit": false,
      "t": 215384.1200000066,
      "d": 2429.8822317709855,
      "v": 100
    },
    {
      "midi": 59,
      "hit": false,
      "t": 215384.1200000066,
      "d": 2558.087065104308,
      "v": 100
    },
    {
      "midi": 64,
      "hit": false,
      "t": 215384.1200000066,
      "d": 2558.087065104308,
      "v": 100
    },
    {
      "midi": 67,
      "hit": false,
      "t": 215384.1200000066,
      "d": 2558.087065104308,
      "v": 100
    },
    {
      "midi": 40,
      "hit": false,
      "t": 215640.52966666702,
      "d": 58.092815104173496,
      "v": 100
    },
    {
      "midi": 47,
      "hit": false,
      "t": 215640.52966666702,
      "d": 58.092815104173496,
      "v": 100
    },
    {
      "midi": 59,
      "hit": false,
      "t": 216153.34900000037,
      "d": 58.092815104173496,
      "v": 100
    },
    {
      "midi": 59,
      "hit": false,
      "t": 216537.96350000036,
      "d": 58.092815104173496,
      "v": 100
    },
    {
      "midi": 59,
      "hit": false,
      "t": 216794.37316666704,
      "d": 58.092815104173496,
      "v": 100
    },
    {
      "midi": 35,
      "hit": false,
      "t": 217178.98766666703,
      "d": 86.13762239582138,
      "v": 100
    },
    {
      "midi": 35,
      "hit": false,
      "t": 217563.60216666703,
      "d": 86.13762239582138,
      "v": 100
    },
    {
      "midi": 35,
      "hit": false,
      "t": 217948.21666666702,
      "d": 58.092815104173496,
      "v": 100
    },
    {
      "midi": 40,
      "hit": false,
      "t": 217948.2166666734,
      "d": 122.19523177083465,
      "v": 100
    },
    {
      "midi": 47,
      "hit": false,
      "t": 217948.2166666734,
      "d": 122.19523177083465,
      "v": 100
    },
    {
      "midi": 59,
      "hit": false,
      "t": 218076.42150000672,
      "d": 244.3904635416693,
      "v": 100
    },
    {
      "midi": 67,
      "hit": false,
      "t": 218076.42150000672,
      "d": 250.40006510415697,
      "v": 100
    },
    {
      "midi": 64,
      "hit": false,
      "t": 218076.42150000672,
      "d": 252.40326562497648,
      "v": 100
    },
    {
      "midi": 35,
      "hit": false,
      "t": 218332.83116666702,
      "d": 122.19523177083465,
      "v": 100
    },
    {
      "midi": 47,
      "hit": false,
      "t": 218332.83116667336,
      "d": 3070.9063984376553,
      "v": 100
    },
    {
      "midi": 54,
      "hit": false,
      "t": 218332.83116667336,
      "d": 3070.9063984376553,
      "v": 100
    },
    {
      "midi": 59,
      "hit": false,
      "t": 218461.03600000034,
      "d": 58.092815104173496,
      "v": 100
    },
    {
      "midi": 59,
      "hit": false,
      "t": 218461.0360000067,
      "d": 2942.701565104333,
      "v": 100
    },
    {
      "midi": 62,
      "hit": false,
      "t": 218461.0360000067,
      "d": 2942.701565104333,
      "v": 100
    },
    {
      "midi": 66,
      "hit": false,
      "t": 218461.0360000067,
      "d": 2942.701565104333,
      "v": 100
    },
    {
      "midi": 59,
      "hit": false,
      "t": 218717.44566666702,
      "d": 94.15042447915766,
      "v": 100
    },
    {
      "midi": 59,
      "hit": false,
      "t": 219102.060166667,
      "d": 58.092815104173496,
      "v": 100
    },
    {
      "midi": 59,
      "hit": false,
      "t": 219614.87950000036,
      "d": 58.092815104173496,
      "v": 100
    },
    {
      "midi": 59,
      "hit": false,
      "t": 219871.28916666703,
      "d": 58.092815104173496,
      "v": 100
    },
    {
      "midi": 35,
      "hit": false,
      "t": 220255.90366666703,
      "d": 58.092815104173496,
      "v": 100
    },
    {
      "midi": 54,
      "hit": false,
      "t": 220640.51816666703,
      "d": 90.14402343748952,
      "v": 100
    },
    {
      "midi": 47,
      "hit": false,
      "t": 220640.51816666703,
      "d": 94.15042447915766,
      "v": 100
    },
    {
      "midi": 59,
      "hit": false,
      "t": 220768.72300000035,
      "d": 202.32325260416837,
      "v": 100
    },
    {
      "midi": 66,
      "hit": false,
      "t": 220768.72300000035,
      "d": 214.3424557291728,
      "v": 100
    },
    {
      "midi": 59,
      "hit": false,
      "t": 221025.13266666702,
      "d": 108.17282812501071,
      "v": 100
    },
    {
      "midi": 66,
      "hit": false,
      "t": 221025.13266666702,
      "d": 138.22083593750722,
      "v": 100
    },
    {
      "midi": 52,
      "hit": false,
      "t": 221537.95200000037,
      "d": 186.2976484374958,
      "v": 100
    },
    {
      "midi": 59,
      "hit": false,
      "t": 221537.95200000037,
      "d": 188.30084895831533,
      "v": 100
    },
    {
      "midi": 40,
      "hit": false,
      "t": 221537.95200000683,
      "d": 2429.8822317709855,
      "v": 100
    },
    {
      "midi": 47,
      "hit": false,
      "t": 221537.95200000683,
      "d": 2429.8822317709855,
      "v": 100
    },
    {
      "midi": 59,
      "hit": false,
      "t": 221537.95200000683,
      "d": 2558.087065104308,
      "v": 100
    },
    {
      "midi": 64,
      "hit": false,
      "t": 221537.95200000683,
      "d": 2558.087065104308,
      "v": 100
    },
    {
      "midi": 67,
      "hit": false,
      "t": 221537.95200000683,
      "d": 2558.087065104308,
      "v": 100
    },
    {
      "midi": 40,
      "hit": false,
      "t": 221794.361666667,
      "d": 58.092815104173496,
      "v": 100
    },
    {
      "midi": 47,
      "hit": false,
      "t": 221794.361666667,
      "d": 58.092815104173496,
      "v": 100
    },
    {
      "midi": 59,
      "hit": false,
      "t": 222307.18100000036,
      "d": 58.092815104173496,
      "v": 100
    },
    {
      "midi": 59,
      "hit": false,
      "t": 222691.79550000036,
      "d": 58.092815104173496,
      "v": 100
    },
    {
      "midi": 59,
      "hit": false,
      "t": 222948.20516666703,
      "d": 58.092815104173496,
      "v": 100
    },
    {
      "midi": 35,
      "hit": false,
      "t": 223332.81966666703,
      "d": 86.13762239582138,
      "v": 100
    },
    {
      "midi": 35,
      "hit": false,
      "t": 224102.04866666702,
      "d": 58.092815104173496,
      "v": 100
    },
    {
      "midi": 40,
      "hit": false,
      "t": 224102.04866667363,
      "d": 122.19523177083465,
      "v": 100
    },
    {
      "midi": 47,
      "hit": false,
      "t": 224102.04866667363,
      "d": 122.19523177083465,
      "v": 100
    },
    {
      "midi": 59,
      "hit": false,
      "t": 224230.25350000695,
      "d": 244.3904635416693,
      "v": 100
    },
    {
      "midi": 67,
      "hit": false,
      "t": 224230.25350000695,
      "d": 250.40006510415697,
      "v": 100
    },
    {
      "midi": 64,
      "hit": false,
      "t": 224230.25350000695,
      "d": 252.40326562497648,
      "v": 100
    },
    {
      "midi": 47,
      "hit": false,
      "t": 224486.66316666701,
      "d": 122.19523177083465,
      "v": 100
    },
    {
      "midi": 47,
      "hit": false,
      "t": 224486.6631666736,
      "d": 2942.701565104333,
      "v": 100
    },
    {
      "midi": 54,
      "hit": false,
      "t": 224486.6631666736,
      "d": 2942.701565104333,
      "v": 100
    },
    {
      "midi": 59,
      "hit": false,
      "t": 224614.86800000034,
      "d": 58.092815104173496,
      "v": 100
    },
    {
      "midi": 59,
      "hit": false,
      "t": 224614.8680000069,
      "d": 2814.4967317710107,
      "v": 100
    },
    {
      "midi": 62,
      "hit": false,
      "t": 224614.8680000069,
      "d": 2814.4967317710107,
      "v": 100
    },
    {
      "midi": 66,
      "hit": false,
      "t": 224614.8680000069,
      "d": 2814.4967317710107,
      "v": 100
    },
    {
      "midi": 59,
      "hit": false,
      "t": 224871.277666667,
      "d": 94.15042447915766,
      "v": 100
    },
    {
      "midi": 35,
      "hit": false,
      "t": 225255.892166667,
      "d": 58.092815104173496,
      "v": 100
    },
    {
      "midi": 59,
      "hit": false,
      "t": 225768.71150000035,
      "d": 58.092815104173496,
      "v": 100
    },
    {
      "midi": 59,
      "hit": false,
      "t": 226025.12116666703,
      "d": 58.092815104173496,
      "v": 100
    },
    {
      "midi": 59,
      "hit": false,
      "t": 226409.73566666702,
      "d": 58.092815104173496,
      "v": 100
    },
    {
      "midi": 59,
      "hit": false,
      "t": 227178.96466666705,
      "d": 58.092815104173496,
      "v": 100
    },
    {
      "midi": 47,
      "hit": false,
      "t": 227563.57916667376,
      "d": 122.19523177083465,
      "v": 100
    },
    {
      "midi": 54,
      "hit": false,
      "t": 227563.57916667376,
      "d": 122.19523177083465,
      "v": 100
    },
    {
      "midi": 52,
      "hit": false,
      "t": 227691.7840000004,
      "d": 186.2976484374958,
      "v": 100
    },
    {
      "midi": 59,
      "hit": false,
      "t": 227691.7840000004,
      "d": 188.30084895831533,
      "v": 100
    },
    {
      "midi": 40,
      "hit": false,
      "t": 227691.7840000071,
      "d": 2429.8822317709855,
      "v": 100
    },
    {
      "midi": 47,
      "hit": false,
      "t": 227691.7840000071,
      "d": 2429.8822317709855,
      "v": 100
    },
    {
      "midi": 59,
      "hit": false,
      "t": 227691.7840000071,
      "d": 2558.087065104308,
      "v": 100
    },
    {
      "midi": 64,
      "hit": false,
      "t": 227691.7840000071,
      "d": 2558.087065104308,
      "v": 100
    },
    {
      "midi": 67,
      "hit": false,
      "t": 227691.7840000071,
      "d": 2558.087065104308,
      "v": 100
    },
    {
      "midi": 40,
      "hit": false,
      "t": 227948.19366666704,
      "d": 58.092815104173496,
      "v": 100
    },
    {
      "midi": 47,
      "hit": false,
      "t": 227948.19366666704,
      "d": 58.092815104173496,
      "v": 100
    },
    {
      "midi": 59,
      "hit": false,
      "t": 228461.01300000038,
      "d": 58.092815104173496,
      "v": 100
    },
    {
      "midi": 59,
      "hit": false,
      "t": 228845.62750000038,
      "d": 58.092815104173496,
      "v": 100
    },
    {
      "midi": 59,
      "hit": false,
      "t": 229102.03716666705,
      "d": 58.092815104173496,
      "v": 100
    },
    {
      "midi": 47,
      "hit": false,
      "t": 229486.65166666705,
      "d": 86.13762239582138,
      "v": 100
    },
    {
      "midi": 47,
      "hit": false,
      "t": 229871.26616666705,
      "d": 86.13762239582138,
      "v": 100
    },
    {
      "midi": 47,
      "hit": false,
      "t": 230255.88066666704,
      "d": 58.092815104173496,
      "v": 100
    },
    {
      "midi": 40,
      "hit": false,
      "t": 230255.88066667388,
      "d": 122.19523177083465,
      "v": 100
    },
    {
      "midi": 47,
      "hit": false,
      "t": 230255.88066667388,
      "d": 122.19523177083465,
      "v": 100
    },
    {
      "midi": 59,
      "hit": false,
      "t": 230384.0855000072,
      "d": 244.3904635416693,
      "v": 100
    },
    {
      "midi": 67,
      "hit": false,
      "t": 230384.0855000072,
      "d": 250.40006510415697,
      "v": 100
    },
    {
      "midi": 64,
      "hit": false,
      "t": 230384.0855000072,
      "d": 252.40326562497648,
      "v": 100
    },
    {
      "midi": 47,
      "hit": false,
      "t": 230640.49516666704,
      "d": 122.19523177083465,
      "v": 100
    },
    {
      "midi": 47,
      "hit": false,
      "t": 230640.49516667385,
      "d": 3070.9063984376553,
      "v": 100
    },
    {
      "midi": 54,
      "hit": false,
      "t": 230640.49516667385,
      "d": 3070.9063984376553,
      "v": 100
    },
    {
      "midi": 59,
      "hit": false,
      "t": 230768.70000000036,
      "d": 58.092815104173496,
      "v": 100
    },
    {
      "midi": 59,
      "hit": false,
      "t": 230768.70000000717,
      "d": 2942.701565104333,
      "v": 100
    },
    {
      "midi": 62,
      "hit": false,
      "t": 230768.70000000717,
      "d": 2942.701565104333,
      "v": 100
    },
    {
      "midi": 66,
      "hit": false,
      "t": 230768.70000000717,
      "d": 2942.701565104333,
      "v": 100
    },
    {
      "midi": 59,
      "hit": false,
      "t": 231025.10966666703,
      "d": 94.15042447915766,
      "v": 100
    },
    {
      "midi": 47,
      "hit": false,
      "t": 231409.72416666703,
      "d": 58.092815104173496,
      "v": 100
    },
    {
      "midi": 59,
      "hit": false,
      "t": 231922.54350000038,
      "d": 58.092815104173496,
      "v": 100
    },
    {
      "midi": 59,
      "hit": false,
      "t": 232178.95316666705,
      "d": 58.092815104173496,
      "v": 100
    },
    {
      "midi": 59,
      "hit": false,
      "t": 232563.56766666705,
      "d": 58.092815104173496,
      "v": 100
    },
    {
      "midi": 62,
      "hit": false,
      "t": 232691.7725000004,
      "d": 250.40006510415697,
      "v": 100
    },
    {
      "midi": 59,
      "hit": false,
      "t": 232948.18216666704,
      "d": 146.2336380208144,
      "v": 80
    },
    {
      "midi": 66,
      "hit": false,
      "t": 233076.38700000037,
      "d": 396.63370312500047,
      "v": 80
    },
    {
      "midi": 62,
      "hit": false,
      "t": 233461.00150000036,
      "d": 252.4032656250056,
      "v": 80
    },
    {
      "midi": 59,
      "hit": false,
      "t": 233717.41116666704,
      "d": 122.19523177083465,
      "v": 80
    },
    {
      "midi": 64,
      "hit": false,
      "t": 233845.61600000036,
      "d": 188.30084895834443,
      "v": 100
    },
    {
      "midi": 40,
      "hit": false,
      "t": 233845.6160000073,
      "d": 2429.8822317709855,
      "v": 100
    },
    {
      "midi": 47,
      "hit": false,
      "t": 233845.6160000073,
      "d": 2429.8822317709855,
      "v": 100
    },
    {
      "midi": 59,
      "hit": false,
      "t": 233845.6160000073,
      "d": 2558.087065104308,
      "v": 100
    },
    {
      "midi": 64,
      "hit": false,
      "t": 233845.6160000073,
      "d": 2558.087065104308,
      "v": 100
    },
    {
      "midi": 67,
      "hit": false,
      "t": 233845.6160000073,
      "d": 2558.087065104308,
      "v": 100
    },
    {
      "midi": 40,
      "hit": false,
      "t": 234102.02566666703,
      "d": 58.092815104173496,
      "v": 100
    },
    {
      "midi": 47,
      "hit": false,
      "t": 234102.02566666703,
      "d": 58.092815104173496,
      "v": 100
    },
    {
      "midi": 59,
      "hit": false,
      "t": 234614.84500000038,
      "d": 58.092815104173496,
      "v": 100
    },
    {
      "midi": 59,
      "hit": false,
      "t": 234999.45950000038,
      "d": 58.092815104173496,
      "v": 100
    },
    {
      "midi": 59,
      "hit": false,
      "t": 235255.86916666705,
      "d": 58.092815104173496,
      "v": 100
    },
    {
      "midi": 35,
      "hit": false,
      "t": 235640.48366666705,
      "d": 86.13762239582138,
      "v": 100
    },
    {
      "midi": 35,
      "hit": false,
      "t": 236409.71266666704,
      "d": 58.092815104173496,
      "v": 100
    },
    {
      "midi": 40,
      "hit": false,
      "t": 236409.7126666741,
      "d": 122.19523177083465,
      "v": 100
    },
    {
      "midi": 47,
      "hit": false,
      "t": 236409.7126666741,
      "d": 122.19523177083465,
      "v": 100
    },
    {
      "midi": 59,
      "hit": false,
      "t": 236537.91750000743,
      "d": 244.3904635416693,
      "v": 100
    },
    {
      "midi": 67,
      "hit": false,
      "t": 236537.91750000743,
      "d": 250.40006510415697,
      "v": 100
    },
    {
      "midi": 64,
      "hit": false,
      "t": 236537.91750000743,
      "d": 252.40326562497648,
      "v": 100
    },
    {
      "midi": 47,
      "hit": false,
      "t": 236794.32716666703,
      "d": 122.19523177083465,
      "v": 100
    },
    {
      "midi": 47,
      "hit": false,
      "t": 236794.32716667408,
      "d": 2558.087065104308,
      "v": 100
    },
    {
      "midi": 54,
      "hit": false,
      "t": 236794.32716667408,
      "d": 2558.087065104308,
      "v": 100
    },
    {
      "midi": 59,
      "hit": false,
      "t": 236922.53200000036,
      "d": 58.092815104173496,
      "v": 100
    },
    {
      "midi": 59,
      "hit": false,
      "t": 236922.5320000074,
      "d": 2429.8822317709855,
      "v": 100
    },
    {
      "midi": 62,
      "hit": false,
      "t": 236922.5320000074,
      "d": 2429.8822317709855,
      "v": 100
    },
    {
      "midi": 66,
      "hit": false,
      "t": 236922.5320000074,
      "d": 2429.8822317709855,
      "v": 100
    },
    {
      "midi": 59,
      "hit": false,
      "t": 237178.94166666703,
      "d": 94.15042447915766,
      "v": 100
    },
    {
      "midi": 35,
      "hit": false,
      "t": 237563.55616666703,
      "d": 58.092815104173496,
      "v": 100
    },
    {
      "midi": 59,
      "hit": false,
      "t": 238076.37550000037,
      "d": 58.092815104173496,
      "v": 100
    },
    {
      "midi": 59,
      "hit": false,
      "t": 238332.78516666705,
      "d": 58.092815104173496,
      "v": 100
    },
    {
      "midi": 59,
      "hit": false,
      "t": 238717.39966666704,
      "d": 58.092815104173496,
      "v": 100
    },
    {
      "midi": 35,
      "hit": false,
      "t": 239102.01416666704,
      "d": 58.092815104173496,
      "v": 100
    },
    {
      "midi": 35,
      "hit": false,
      "t": 239486.62866666703,
      "d": 58.092815104173496,
      "v": 100
    },
    {
      "midi": 54,
      "hit": false,
      "t": 239486.62866667422,
      "d": 398.63690364582,
      "v": 100
    },
    {
      "midi": 47,
      "hit": false,
      "t": 239486.62866667422,
      "d": 400.6401041666395,
      "v": 100
    },
    {
      "midi": 59,
      "hit": false,
      "t": 239614.83350000755,
      "d": 290.4640755208093,
      "v": 100
    },
    {
      "midi": 62,
      "hit": false,
      "t": 239614.83350000755,
      "d": 290.4640755208093,
      "v": 100
    },
    {
      "midi": 66,
      "hit": false,
      "t": 239614.83350000755,
      "d": 302.4832786458137,
      "v": 100
    },
    {
      "midi": 52,
      "hit": false,
      "t": 239999.44800000038,
      "d": 186.2976484374958,
      "v": 100
    },
    {
      "midi": 59,
      "hit": false,
      "t": 239999.44800000038,
      "d": 188.30084895831533,
      "v": 100
    },
    {
      "midi": 40,
      "hit": false,
      "t": 239999.4480000075,
      "d": 2429.8822317709855,
      "v": 100
    },
    {
      "midi": 47,
      "hit": false,
      "t": 239999.4480000075,
      "d": 2429.8822317709855,
      "v": 100
    },
    {
      "midi": 59,
      "hit": false,
      "t": 239999.4480000075,
      "d": 2558.087065104308,
      "v": 100
    },
    {
      "midi": 64,
      "hit": false,
      "t": 239999.4480000075,
      "d": 2558.087065104308,
      "v": 100
    },
    {
      "midi": 67,
      "hit": false,
      "t": 239999.4480000075,
      "d": 2558.087065104308,
      "v": 100
    },
    {
      "midi": 40,
      "hit": false,
      "t": 240255.85766666703,
      "d": 58.092815104173496,
      "v": 100
    },
    {
      "midi": 47,
      "hit": false,
      "t": 240255.85766666703,
      "d": 58.092815104173496,
      "v": 100
    },
    {
      "midi": 59,
      "hit": false,
      "t": 240768.67700000037,
      "d": 58.092815104173496,
      "v": 100
    },
    {
      "midi": 59,
      "hit": false,
      "t": 241153.29150000037,
      "d": 58.092815104173496,
      "v": 100
    },
    {
      "midi": 59,
      "hit": false,
      "t": 241409.70116666704,
      "d": 58.092815104173496,
      "v": 100
    },
    {
      "midi": 35,
      "hit": false,
      "t": 241794.31566666704,
      "d": 86.13762239582138,
      "v": 100
    },
    {
      "midi": 35,
      "hit": false,
      "t": 242178.93016666704,
      "d": 86.13762239582138,
      "v": 100
    },
    {
      "midi": 35,
      "hit": false,
      "t": 242563.54466666703,
      "d": 58.092815104173496,
      "v": 100
    },
    {
      "midi": 40,
      "hit": false,
      "t": 242563.5446666743,
      "d": 122.19523177083465,
      "v": 100
    },
    {
      "midi": 47,
      "hit": false,
      "t": 242563.5446666743,
      "d": 122.19523177083465,
      "v": 100
    },
    {
      "midi": 59,
      "hit": false,
      "t": 242691.74950000763,
      "d": 244.3904635416693,
      "v": 100
    },
    {
      "midi": 67,
      "hit": false,
      "t": 242691.74950000763,
      "d": 250.40006510415697,
      "v": 100
    },
    {
      "midi": 64,
      "hit": false,
      "t": 242691.74950000763,
      "d": 252.40326562497648,
      "v": 100
    },
    {
      "midi": 35,
      "hit": false,
      "t": 242948.15916666703,
      "d": 122.19523177083465,
      "v": 100
    },
    {
      "midi": 47,
      "hit": false,
      "t": 242948.15916667428,
      "d": 3070.9063984374516,
      "v": 100
    },
    {
      "midi": 54,
      "hit": false,
      "t": 242948.15916667428,
      "d": 3070.9063984374516,
      "v": 100
    },
    {
      "midi": 59,
      "hit": false,
      "t": 243076.36400000035,
      "d": 58.092815104173496,
      "v": 100
    },
    {
      "midi": 59,
      "hit": false,
      "t": 243076.3640000076,
      "d": 2942.7015651041293,
      "v": 100
    },
    {
      "midi": 62,
      "hit": false,
      "t": 243076.3640000076,
      "d": 2942.7015651041293,
      "v": 100
    },
    {
      "midi": 66,
      "hit": false,
      "t": 243076.3640000076,
      "d": 2942.7015651041293,
      "v": 100
    },
    {
      "midi": 59,
      "hit": false,
      "t": 243332.77366666702,
      "d": 94.15042447915766,
      "v": 100
    },
    {
      "midi": 59,
      "hit": false,
      "t": 243717.38816666702,
      "d": 58.092815104173496,
      "v": 100
    },
    {
      "midi": 59,
      "hit": false,
      "t": 244230.20750000037,
      "d": 58.09281510414439,
      "v": 100
    },
    {
      "midi": 59,
      "hit": false,
      "t": 244486.617166667,
      "d": 58.092815104173496,
      "v": 100
    },
    {
      "midi": 35,
      "hit": false,
      "t": 244871.231666667,
      "d": 58.092815104173496,
      "v": 100
    },
    {
      "midi": 54,
      "hit": false,
      "t": 245255.846166667,
      "d": 90.14402343748952,
      "v": 100
    },
    {
      "midi": 47,
      "hit": false,
      "t": 245255.846166667,
      "d": 94.15042447915766,
      "v": 100
    },
    {
      "midi": 59,
      "hit": false,
      "t": 245384.05100000033,
      "d": 202.32325260413927,
      "v": 100
    },
    {
      "midi": 66,
      "hit": false,
      "t": 245384.05100000033,
      "d": 214.3424557291437,
      "v": 100
    },
    {
      "midi": 59,
      "hit": false,
      "t": 245640.46066666697,
      "d": 108.17282812501071,
      "v": 100
    },
    {
      "midi": 66,
      "hit": false,
      "t": 245640.46066666697,
      "d": 138.22083593750722,
      "v": 100
    },
    {
      "midi": 52,
      "hit": false,
      "t": 246153.28000000032,
      "d": 186.2976484374958,
      "v": 100
    },
    {
      "midi": 59,
      "hit": false,
      "t": 246153.28000000032,
      "d": 188.30084895831533,
      "v": 100
    },
    {
      "midi": 40,
      "hit": false,
      "t": 246153.28000000757,
      "d": 2429.882231770782,
      "v": 100
    },
    {
      "midi": 47,
      "hit": false,
      "t": 246153.28000000757,
      "d": 2429.882231770782,
      "v": 100
    },
    {
      "midi": 59,
      "hit": false,
      "t": 246153.28000000757,
      "d": 2558.087065104104,
      "v": 100
    },
    {
      "midi": 64,
      "hit": false,
      "t": 246153.28000000757,
      "d": 2558.087065104104,
      "v": 100
    },
    {
      "midi": 67,
      "hit": false,
      "t": 246153.28000000757,
      "d": 2558.087065104104,
      "v": 100
    },
    {
      "midi": 40,
      "hit": false,
      "t": 246409.68966666696,
      "d": 58.092815104173496,
      "v": 100
    },
    {
      "midi": 47,
      "hit": false,
      "t": 246409.68966666696,
      "d": 58.092815104173496,
      "v": 100
    },
    {
      "midi": 59,
      "hit": false,
      "t": 246922.5090000003,
      "d": 58.09281510414439,
      "v": 100
    },
    {
      "midi": 59,
      "hit": false,
      "t": 247307.12350000028,
      "d": 58.09281510414439,
      "v": 100
    },
    {
      "midi": 59,
      "hit": false,
      "t": 247563.53316666692,
      "d": 58.092815104173496,
      "v": 100
    },
    {
      "midi": 35,
      "hit": false,
      "t": 247948.14766666692,
      "d": 86.13762239582138,
      "v": 100
    },
    {
      "midi": 35,
      "hit": false,
      "t": 248717.37666666688,
      "d": 58.092815104173496,
      "v": 100
    },
    {
      "midi": 40,
      "hit": false,
      "t": 248717.37666667416,
      "d": 122.19523177083465,
      "v": 100
    },
    {
      "midi": 47,
      "hit": false,
      "t": 248717.37666667416,
      "d": 122.19523177083465,
      "v": 100
    },
    {
      "midi": 59,
      "hit": false,
      "t": 248845.58150000748,
      "d": 244.3904635416402,
      "v": 100
    },
    {
      "midi": 67,
      "hit": false,
      "t": 248845.58150000748,
      "d": 250.40006510412786,
      "v": 100
    },
    {
      "midi": 64,
      "hit": false,
      "t": 248845.58150000748,
      "d": 252.40326562494738,
      "v": 100
    },
    {
      "midi": 47,
      "hit": false,
      "t": 249101.99116666688,
      "d": 122.19523177083465,
      "v": 100
    },
    {
      "midi": 47,
      "hit": false,
      "t": 249101.9911666741,
      "d": 2942.7015651041,
      "v": 100
    },
    {
      "midi": 54,
      "hit": false,
      "t": 249101.9911666741,
      "d": 2942.7015651041,
      "v": 100
    },
    {
      "midi": 59,
      "hit": false,
      "t": 249230.1960000002,
      "d": 58.09281510414439,
      "v": 100
    },
    {
      "midi": 59,
      "hit": false,
      "t": 249230.19600000742,
      "d": 2814.496731770778,
      "v": 100
    },
    {
      "midi": 62,
      "hit": false,
      "t": 249230.19600000742,
      "d": 2814.496731770778,
      "v": 100
    },
    {
      "midi": 66,
      "hit": false,
      "t": 249230.19600000742,
      "d": 2814.496731770778,
      "v": 100
    },
    {
      "midi": 59,
      "hit": false,
      "t": 249486.60566666684,
      "d": 94.15042447915766,
      "v": 100
    },
    {
      "midi": 35,
      "hit": false,
      "t": 249871.22016666684,
      "d": 58.092815104173496,
      "v": 100
    },
    {
      "midi": 59,
      "hit": false,
      "t": 250384.0395000002,
      "d": 58.09281510414439,
      "v": 100
    },
    {
      "midi": 59,
      "hit": false,
      "t": 250640.44916666683,
      "d": 58.092815104173496,
      "v": 100
    },
    {
      "midi": 59,
      "hit": false,
      "t": 251025.06366666683,
      "d": 58.092815104173496,
      "v": 100
    },
    {
      "midi": 59,
      "hit": false,
      "t": 251794.29266666682,
      "d": 58.092815104173496,
      "v": 100
    },
    {
      "midi": 47,
      "hit": false,
      "t": 252178.90716667403,
      "d": 122.19523177083465,
      "v": 100
    },
    {
      "midi": 54,
      "hit": false,
      "t": 252178.90716667403,
      "d": 122.19523177083465,
      "v": 100
    },
    {
      "midi": 52,
      "hit": false,
      "t": 252307.11200000017,
      "d": 186.2976484374958,
      "v": 100
    },
    {
      "midi": 59,
      "hit": false,
      "t": 252307.11200000017,
      "d": 188.30084895831533,
      "v": 100
    },
    {
      "midi": 40,
      "hit": false,
      "t": 252307.11200000736,
      "d": 2429.882231770782,
      "v": 100
    },
    {
      "midi": 47,
      "hit": false,
      "t": 252307.11200000736,
      "d": 2429.882231770782,
      "v": 100
    },
    {
      "midi": 59,
      "hit": false,
      "t": 252307.11200000736,
      "d": 2558.087065104104,
      "v": 100
    },
    {
      "midi": 64,
      "hit": false,
      "t": 252307.11200000736,
      "d": 2558.087065104104,
      "v": 100
    },
    {
      "midi": 67,
      "hit": false,
      "t": 252307.11200000736,
      "d": 2558.087065104104,
      "v": 100
    },
    {
      "midi": 40,
      "hit": false,
      "t": 252563.5216666668,
      "d": 58.092815104173496,
      "v": 100
    },
    {
      "midi": 47,
      "hit": false,
      "t": 252563.5216666668,
      "d": 58.092815104173496,
      "v": 100
    },
    {
      "midi": 59,
      "hit": false,
      "t": 253076.34100000016,
      "d": 58.09281510414439,
      "v": 100
    },
    {
      "midi": 59,
      "hit": false,
      "t": 253460.95550000013,
      "d": 58.09281510414439,
      "v": 100
    },
    {
      "midi": 59,
      "hit": false,
      "t": 253717.36516666677,
      "d": 58.092815104173496,
      "v": 100
    },
    {
      "midi": 47,
      "hit": false,
      "t": 254101.97966666677,
      "d": 86.13762239582138,
      "v": 100
    },
    {
      "midi": 47,
      "hit": false,
      "t": 254486.59416666673,
      "d": 86.13762239582138,
      "v": 100
    },
    {
      "midi": 47,
      "hit": false,
      "t": 254871.2086666667,
      "d": 58.092815104173496,
      "v": 100
    },
    {
      "midi": 40,
      "hit": false,
      "t": 254871.20866667395,
      "d": 122.19523177083465,
      "v": 100
    },
    {
      "midi": 47,
      "hit": false,
      "t": 254871.20866667395,
      "d": 122.19523177083465,
      "v": 100
    },
    {
      "midi": 59,
      "hit": false,
      "t": 254999.41350000727,
      "d": 244.3904635416402,
      "v": 100
    },
    {
      "midi": 67,
      "hit": false,
      "t": 254999.41350000727,
      "d": 250.40006510412786,
      "v": 100
    },
    {
      "midi": 64,
      "hit": false,
      "t": 254999.41350000727,
      "d": 252.40326562494738,
      "v": 100
    },
    {
      "midi": 47,
      "hit": false,
      "t": 255255.8231666667,
      "d": 122.19523177083465,
      "v": 100
    },
    {
      "midi": 47,
      "hit": false,
      "t": 255255.8231666739,
      "d": 3070.9063984374516,
      "v": 100
    },
    {
      "midi": 54,
      "hit": false,
      "t": 255255.8231666739,
      "d": 3070.9063984374516,
      "v": 100
    },
    {
      "midi": 59,
      "hit": false,
      "t": 255384.02800000002,
      "d": 58.09281510414439,
      "v": 100
    },
    {
      "midi": 59,
      "hit": false,
      "t": 255384.0280000072,
      "d": 2942.7015651041293,
      "v": 100
    },
    {
      "midi": 62,
      "hit": false,
      "t": 255384.0280000072,
      "d": 2942.7015651041293,
      "v": 100
    },
    {
      "midi": 66,
      "hit": false,
      "t": 255384.0280000072,
      "d": 2942.7015651041293,
      "v": 100
    },
    {
      "midi": 59,
      "hit": false,
      "t": 255640.43766666666,
      "d": 94.15042447915766,
      "v": 100
    },
    {
      "midi": 47,
      "hit": false,
      "t": 256025.05216666666,
      "d": 58.092815104173496,
      "v": 100
    },
    {
      "midi": 59,
      "hit": false,
      "t": 256537.8715,
      "d": 58.09281510414439,
      "v": 100
    },
    {
      "midi": 59,
      "hit": false,
      "t": 256794.28116666665,
      "d": 58.092815104173496,
      "v": 100
    },
    {
      "midi": 59,
      "hit": false,
      "t": 257178.89566666665,
      "d": 58.092815104173496,
      "v": 100
    },
    {
      "midi": 62,
      "hit": false,
      "t": 257307.1005,
      "d": 250.40006510415697,
      "v": 100
    },
    {
      "midi": 59,
      "hit": false,
      "t": 257563.51016666665,
      "d": 146.2336380208144,
      "v": 80
    },
    {
      "midi": 66,
      "hit": false,
      "t": 257691.71499999997,
      "d": 396.63370312497136,
      "v": 80
    },
    {
      "midi": 62,
      "hit": false,
      "t": 258076.32949999996,
      "d": 252.40326562497648,
      "v": 80
    },
    {
      "midi": 59,
      "hit": false,
      "t": 258332.7391666666,
      "d": 122.19523177083465,
      "v": 80
    },
    {
      "midi": 64,
      "hit": false,
      "t": 258460.94399999993,
      "d": 188.30084895831533,
      "v": 100
    },
    {
      "midi": 40,
      "hit": false,
      "t": 258460.94400000718,
      "d": 2429.882231770782,
      "v": 100
    },
    {
      "midi": 47,
      "hit": false,
      "t": 258460.94400000718,
      "d": 2429.882231770782,
      "v": 100
    },
    {
      "midi": 59,
      "hit": false,
      "t": 258460.94400000718,
      "d": 2558.087065104104,
      "v": 100
    },
    {
      "midi": 64,
      "hit": false,
      "t": 258460.94400000718,
      "d": 2558.087065104104,
      "v": 100
    },
    {
      "midi": 67,
      "hit": false,
      "t": 258460.94400000718,
      "d": 2558.087065104104,
      "v": 100
    },
    {
      "midi": 40,
      "hit": false,
      "t": 258717.35366666658,
      "d": 58.092815104173496,
      "v": 100
    },
    {
      "midi": 47,
      "hit": false,
      "t": 258717.35366666658,
      "d": 58.092815104173496,
      "v": 100
    },
    {
      "midi": 59,
      "hit": false,
      "t": 259230.17299999992,
      "d": 58.09281510414439,
      "v": 100
    },
    {
      "midi": 59,
      "hit": false,
      "t": 259614.7874999999,
      "d": 58.09281510414439,
      "v": 100
    },
    {
      "midi": 59,
      "hit": false,
      "t": 259871.19716666653,
      "d": 58.092815104173496,
      "v": 100
    },
    {
      "midi": 35,
      "hit": false,
      "t": 260255.81166666653,
      "d": 86.13762239582138,
      "v": 100
    },
    {
      "midi": 35,
      "hit": false,
      "t": 261025.0406666665,
      "d": 58.092815104173496,
      "v": 100
    },
    {
      "midi": 40,
      "hit": false,
      "t": 261025.04066667377,
      "d": 122.19523177083465,
      "v": 100
    },
    {
      "midi": 47,
      "hit": false,
      "t": 261025.04066667377,
      "d": 122.19523177083465,
      "v": 100
    },
    {
      "midi": 59,
      "hit": false,
      "t": 261153.2455000071,
      "d": 244.3904635416402,
      "v": 100
    },
    {
      "midi": 67,
      "hit": false,
      "t": 261153.2455000071,
      "d": 250.40006510412786,
      "v": 100
    },
    {
      "midi": 64,
      "hit": false,
      "t": 261153.2455000071,
      "d": 252.40326562494738,
      "v": 100
    },
    {
      "midi": 47,
      "hit": false,
      "t": 261409.6551666665,
      "d": 122.19523177083465,
      "v": 100
    },
    {
      "midi": 47,
      "hit": false,
      "t": 261409.6551666737,
      "d": 2558.0870651042205,
      "v": 100
    },
    {
      "midi": 54,
      "hit": false,
      "t": 261409.6551666737,
      "d": 2558.0870651042205,
      "v": 100
    },
    {
      "midi": 59,
      "hit": false,
      "t": 261537.8599999998,
      "d": 58.09281510414439,
      "v": 100
    },
    {
      "midi": 59,
      "hit": false,
      "t": 261537.86000000703,
      "d": 2429.882231770898,
      "v": 100
    },
    {
      "midi": 62,
      "hit": false,
      "t": 261537.86000000703,
      "d": 2429.882231770898,
      "v": 100
    },
    {
      "midi": 66,
      "hit": false,
      "t": 261537.86000000703,
      "d": 2429.882231770898,
      "v": 100
    },
    {
      "midi": 59,
      "hit": false,
      "t": 261794.26966666646,
      "d": 94.15042447915766,
      "v": 100
    },
    {
      "midi": 35,
      "hit": false,
      "t": 262178.8841666665,
      "d": 58.092815104173496,
      "v": 100
    },
    {
      "midi": 59,
      "hit": false,
      "t": 262691.7034999998,
      "d": 58.092815104173496,
      "v": 100
    },
    {
      "midi": 59,
      "hit": false,
      "t": 262948.1131666665,
      "d": 58.092815104173496,
      "v": 100
    },
    {
      "midi": 59,
      "hit": false,
      "t": 263332.7276666665,
      "d": 58.092815104173496,
      "v": 100
    },
    {
      "midi": 35,
      "hit": false,
      "t": 263717.3421666665,
      "d": 58.092815104173496,
      "v": 100
    },
    {
      "midi": 35,
      "hit": false,
      "t": 264101.95666666655,
      "d": 58.092815104173496,
      "v": 100
    },
    {
      "midi": 54,
      "hit": false,
      "t": 264101.95666667377,
      "d": 398.63690364582,
      "v": 100
    },
    {
      "midi": 47,
      "hit": false,
      "t": 264101.95666667377,
      "d": 400.6401041666395,
      "v": 100
    },
    {
      "midi": 59,
      "hit": false,
      "t": 264230.1615000071,
      "d": 290.4640755208093,
      "v": 100
    },
    {
      "midi": 62,
      "hit": false,
      "t": 264230.1615000071,
      "d": 290.4640755208093,
      "v": 100
    },
    {
      "midi": 66,
      "hit": false,
      "t": 264230.1615000071,
      "d": 302.4832786457846,
      "v": 100
    }
  ]
}