{
  "jsonPath": "Rock/French Rock/Maxime Le Forestier/mon-frere.json",
  "path": "Rock\\French Rock\\Maxime Le Forestier\\Mon Frère.mid",
  "name": "Mon Frère",
  "difficulty": "Advanced",
  "bpm": 78.00017940041262,
  "notes": [
    {
      "midi": 57,
      "hit": false,
      "t": 9230.748,
      "d": 376.60169791666704,
      "v": 98
    },
    {
      "midi": 62,
      "hit": false,
      "t": 9230.748,
      "d": 552.8833437499998,
      "v": 83
    },
    {
      "midi": 65,
      "hit": false,
      "t": 9230.748,
      "d": 560.8961458333324,
      "v": 98
    },
    {
      "midi": 50,
      "hit": false,
      "t": 9230.748,
      "d": 1498.3939895833319,
      "v": 106
    },
    {
      "midi": 38,
      "hit": false,
      "t": 9246.773604166667,
      "d": 1530.4451979166643,
      "v": 77
    },
    {
      "midi": 57,
      "hit": false,
      "t": 9607.349697916667,
      "d": 793.2674062499991,
      "v": 97
    },
    {
      "midi": 62,
      "hit": false,
      "t": 9999.976999999999,
      "d": 568.9089479166669,
      "v": 86
    },
    {
      "midi": 65,
      "hit": false,
      "t": 9999.976999999999,
      "d": 592.9473541666666,
      "v": 98
    },
    {
      "midi": 57,
      "hit": false,
      "t": 10400.617104166666,
      "d": 368.5888958333326,
      "v": 91
    },
    {
      "midi": 57,
      "hit": false,
      "t": 10769.205999999998,
      "d": 384.6144999999997,
      "v": 97
    },
    {
      "midi": 62,
      "hit": false,
      "t": 10769.205999999998,
      "d": 560.8961458333324,
      "v": 80
    },
    {
      "midi": 65,
      "hit": false,
      "t": 10769.205999999998,
      "d": 576.9217499999995,
      "v": 93
    },
    {
      "midi": 36,
      "hit": false,
      "t": 10769.205999999998,
      "d": 1570.509208333333,
      "v": 78
    },
    {
      "midi": 48,
      "hit": false,
      "t": 10777.218802083331,
      "d": 1330.1251458333336,
      "v": 109
    },
    {
      "midi": 57,
      "hit": false,
      "t": 11153.820499999998,
      "d": 769.2289999999994,
      "v": 87
    },
    {
      "midi": 62,
      "hit": false,
      "t": 11538.434999999998,
      "d": 528.8449375,
      "v": 87
    },
    {
      "midi": 65,
      "hit": false,
      "t": 11538.434999999998,
      "d": 608.9729583333337,
      "v": 98
    },
    {
      "midi": 57,
      "hit": false,
      "t": 11923.049499999997,
      "d": 649.0369687500006,
      "v": 95
    },
    {
      "midi": 48,
      "hit": false,
      "t": 12123.369552083332,
      "d": 136.21763541666587,
      "v": 110
    },
    {
      "midi": 67,
      "hit": false,
      "t": 12307.663999999997,
      "d": 576.9217500000013,
      "v": 94
    },
    {
      "midi": 62,
      "hit": false,
      "t": 12307.663999999997,
      "d": 584.934552083334,
      "v": 93
    },
    {
      "midi": 58,
      "hit": false,
      "t": 12307.663999999997,
      "d": 1322.1123437499991,
      "v": 97
    },
    {
      "midi": 46,
      "hit": false,
      "t": 12307.663999999997,
      "d": 1474.355583333332,
      "v": 115
    },
    {
      "midi": 34,
      "hit": false,
      "t": 12323.689604166664,
      "d": 1490.3811874999992,
      "v": 73
    },
    {
      "midi": 55,
      "hit": false,
      "t": 12692.278499999999,
      "d": 641.0241666666661,
      "v": 92
    },
    {
      "midi": 62,
      "hit": false,
      "t": 13076.892999999998,
      "d": 544.8705416666653,
      "v": 99
    },
    {
      "midi": 67,
      "hit": false,
      "t": 13076.892999999998,
      "d": 576.9217499999977,
      "v": 100
    },
    {
      "midi": 55,
      "hit": false,
      "t": 13445.48189583333,
      "d": 600.9601562499993,
      "v": 87
    },
    {
      "midi": 67,
      "hit": false,
      "t": 13846.121999999998,
      "d": 568.9089479166669,
      "v": 96
    },
    {
      "midi": 63,
      "hit": false,
      "t": 13846.121999999998,
      "d": 576.9217499999995,
      "v": 92
    },
    {
      "midi": 58,
      "hit": false,
      "t": 13846.121999999998,
      "d": 1450.3171770833324,
      "v": 85
    },
    {
      "midi": 51,
      "hit": false,
      "t": 13846.121999999998,
      "d": 1530.445197916666,
      "v": 105
    },
    {
      "midi": 39,
      "hit": false,
      "t": 13870.160406249997,
      "d": 1538.4579999999987,
      "v": 88
    },
    {
      "midi": 55,
      "hit": false,
      "t": 14254.774906249997,
      "d": 544.8705416666671,
      "v": 90
    },
    {
      "midi": 63,
      "hit": false,
      "t": 14615.350999999997,
      "d": 576.9217499999995,
      "v": 100
    },
    {
      "midi": 67,
      "hit": false,
      "t": 14615.350999999997,
      "d": 600.9601562499993,
      "v": 99
    },
    {
      "midi": 55,
      "hit": false,
      "t": 14975.927093749997,
      "d": 633.0113645833317,
      "v": 84
    },
    {
      "midi": 57,
      "hit": false,
      "t": 15384.579999999996,
      "d": 400.64010416666497,
      "v": 81
    },
    {
      "midi": 64,
      "hit": false,
      "t": 15384.579999999996,
      "d": 560.8961458333324,
      "v": 95
    },
    {
      "midi": 61,
      "hit": false,
      "t": 15384.579999999996,
      "d": 1370.1891562500005,
      "v": 93
    },
    {
      "midi": 45,
      "hit": false,
      "t": 15384.579999999996,
      "d": 1402.2403645833347,
      "v": 81
    },
    {
      "midi": 33,
      "hit": false,
      "t": 15400.605604166663,
      "d": 1394.2275625000002,
      "v": 82
    },
    {
      "midi": 57,
      "hit": false,
      "t": 15785.220104166661,
      "d": 753.2033958333359,
      "v": 87
    },
    {
      "midi": 69,
      "hit": false,
      "t": 16153.808999999996,
      "d": 849.3570208333349,
      "v": 98
    },
    {
      "midi": 64,
      "hit": false,
      "t": 16153.808999999996,
      "d": 961.5362500000028,
      "v": 100
    },
    {
      "midi": 57,
      "hit": false,
      "t": 16538.423499999997,
      "d": 384.6144999999997,
      "v": 97
    },
    {
      "midi": 57,
      "hit": false,
      "t": 16923.037999999997,
      "d": 192.30725000000166,
      "v": 91
    },
    {
      "midi": 61,
      "hit": false,
      "t": 16923.037999999997,
      "d": 657.0497708333351,
      "v": 83
    },
    {
      "midi": 33,
      "hit": false,
      "t": 16923.037999999997,
      "d": 1506.4067916666681,
      "v": 78
    },
    {
      "midi": 45,
      "hit": false,
      "t": 16931.05080208333,
      "d": 1506.4067916666681,
      "v": 104
    },
    {
      "midi": 57,
      "hit": false,
      "t": 17115.34525,
      "d": 192.30725000000166,
      "v": 122
    },
    {
      "midi": 64,
      "hit": false,
      "t": 17115.34525,
      "d": 384.6144999999997,
      "v": 92
    },
    {
      "midi": 59,
      "hit": false,
      "t": 17307.6525,
      "d": 88.14082291666637,
      "v": 112
    },
    {
      "midi": 57,
      "hit": false,
      "t": 17307.6525,
      "d": 176.28164583333273,
      "v": 85
    },
    {
      "midi": 57,
      "hit": false,
      "t": 17483.934145833333,
      "d": 592.9473541666666,
      "v": 95
    },
    {
      "midi": 59,
      "hit": false,
      "t": 17499.959749999998,
      "d": 232.37126041666852,
      "v": 112
    },
    {
      "midi": 64,
      "hit": false,
      "t": 17499.959749999998,
      "d": 384.6145000000033,
      "v": 99
    },
    {
      "midi": 61,
      "hit": false,
      "t": 17692.267,
      "d": 240.38406250000116,
      "v": 110
    },
    {
      "midi": 59,
      "hit": false,
      "t": 17884.57425,
      "d": 192.30724999999802,
      "v": 120
    },
    {
      "midi": 64,
      "hit": false,
      "t": 17884.57425,
      "d": 232.37126041666488,
      "v": 90
    },
    {
      "midi": 57,
      "hit": false,
      "t": 18076.8815,
      "d": 208.33285416666695,
      "v": 100
    },
    {
      "midi": 55,
      "hit": false,
      "t": 18261.175947916665,
      "d": 192.30724999999802,
      "v": 120
    },
    {
      "midi": 38,
      "hit": false,
      "t": 18461.495999999996,
      "d": 1482.3683854166666,
      "v": 84
    },
    {
      "midi": 38,
      "hit": false,
      "t": 43076.82399999999,
      "d": 1490.3811875000029,
      "v": 84
    },
    {
      "midi": 69,
      "hit": false,
      "t": 68044.71529166667,
      "d": 448.71691666667175,
      "v": 109
    },
    {
      "midi": 74,
      "hit": false,
      "t": 68453.36819791667,
      "d": 368.58889583333803,
      "v": 96
    },
    {
      "midi": 81,
      "hit": false,
      "t": 68813.94429166667,
      "d": 120.19203125000058,
      "v": 105
    },
    {
      "midi": 81,
      "hit": false,
      "t": 69198.55879166667,
      "d": 376.60169791665976,
      "v": 107
    },
    {
      "midi": 79,
      "hit": false,
      "t": 69543.10928125,
      "d": 264.42246874999546,
      "v": 88
    },
    {
      "midi": 78,
      "hit": false,
      "t": 69759.45493749999,
      "d": 248.39686458333745,
      "v": 84
    },
    {
      "midi": 76,
      "hit": false,
      "t": 69967.78779166666,
      "d": 232.37126041666488,
      "v": 94
    },
    {
      "midi": 78,
      "hit": false,
      "t": 70152.08223958332,
      "d": 208.3328541666706,
      "v": 90
    },
    {
      "midi": 74,
      "hit": false,
      "t": 70352.40229166666,
      "d": 232.37126041666488,
      "v": 102
    },
    {
      "midi": 69,
      "hit": false,
      "t": 71161.69530208332,
      "d": 368.58889583333803,
      "v": 100
    },
    {
      "midi": 76,
      "hit": false,
      "t": 71546.30980208333,
      "d": 384.61449999999604,
      "v": 100
    },
    {
      "midi": 81,
      "hit": false,
      "t": 71906.88589583333,
      "d": 112.1792291666643,
      "v": 107
    },
    {
      "midi": 81,
      "hit": false,
      "t": 72283.48759374999,
      "d": 400.64010416665406,
      "v": 107
    },
    {
      "midi": 76,
      "hit": false,
      "t": 72660.08929166665,
      "d": 248.3968645833229,
      "v": 105
    },
    {
      "midi": 74,
      "hit": false,
      "t": 72884.44774999998,
      "d": 176.28164583332546,
      "v": 107
    },
    {
      "midi": 73,
      "hit": false,
      "t": 73068.74219791664,
      "d": 128.20483333333686,
      "v": 98
    },
    {
      "midi": 76,
      "hit": false,
      "t": 73245.02384374998,
      "d": 224.3584583333286,
      "v": 109
    },
    {
      "midi": 69,
      "hit": false,
      "t": 73437.33109374998,
      "d": 256.4096666666592,
      "v": 100
    },
    {
      "midi": 66,
      "hit": false,
      "t": 74030.27844791663,
      "d": 128.20483333333686,
      "v": 111
    },
    {
      "midi": 71,
      "hit": false,
      "t": 74190.5344895833,
      "d": 184.2944479166763,
      "v": 115
    },
    {
      "midi": 66,
      "hit": false,
      "t": 74366.81613541664,
      "d": 136.21763541667315,
      "v": 107
    },
    {
      "midi": 74,
      "hit": false,
      "t": 74583.16179166664,
      "d": 192.30724999999802,
      "v": 105
    },
    {
      "midi": 66,
      "hit": false,
      "t": 74751.43063541665,
      "d": 152.24323958333116,
      "v": 107
    },
    {
      "midi": 78,
      "hit": false,
      "t": 74983.80189583331,
      "d": 176.28164583334,
      "v": 102
    },
    {
      "midi": 66,
      "hit": false,
      "t": 75152.07073958332,
      "d": 152.24323958333116,
      "v": 105
    },
    {
      "midi": 76,
      "hit": false,
      "t": 75352.39079166665,
      "d": 192.30724999999802,
      "v": 102
    },
    {
      "midi": 66,
      "hit": false,
      "t": 75520.65963541665,
      "d": 144.23043749999488,
      "v": 102
    },
    {
      "midi": 74,
      "hit": false,
      "t": 75737.00529166665,
      "d": 176.28164583334,
      "v": 105
    },
    {
      "midi": 66,
      "hit": false,
      "t": 75921.29973958332,
      "d": 152.24323958333116,
      "v": 107
    },
    {
      "midi": 73,
      "hit": false,
      "t": 76137.64539583331,
      "d": 208.3328541666706,
      "v": 107
    },
    {
      "midi": 66,
      "hit": false,
      "t": 76329.95264583331,
      "d": 128.20483333333686,
      "v": 109
    },
    {
      "midi": 71,
      "hit": false,
      "t": 76530.27269791665,
      "d": 208.3328541666706,
      "v": 109
    },
    {
      "midi": 62,
      "hit": false,
      "t": 77107.19444791666,
      "d": 144.23043749999488,
      "v": 115
    },
    {
      "midi": 67,
      "hit": false,
      "t": 77283.47609374998,
      "d": 176.28164583334,
      "v": 115
    },
    {
      "midi": 62,
      "hit": false,
      "t": 77459.75773958332,
      "d": 160.25604166666744,
      "v": 102
    },
    {
      "midi": 71,
      "hit": false,
      "t": 77684.11619791665,
      "d": 176.28164583334,
      "v": 107
    },
    {
      "midi": 62,
      "hit": false,
      "t": 77860.39784374999,
      "d": 136.21763541667315,
      "v": 109
    },
    {
      "midi": 74,
      "hit": false,
      "t": 78060.71789583332,
      "d": 184.29444791666174,
      "v": 111
    },
    {
      "midi": 62,
      "hit": false,
      "t": 78220.97393749999,
      "d": 152.24323958333116,
      "v": 102
    },
    {
      "midi": 72,
      "hit": false,
      "t": 78437.31959374998,
      "d": 176.28164583334,
      "v": 107
    },
    {
      "midi": 62,
      "hit": false,
      "t": 78613.60123958332,
      "d": 136.21763541667315,
      "v": 102
    },
    {
      "midi": 71,
      "hit": false,
      "t": 78805.90848958334,
      "d": 200.3200520833343,
      "v": 105
    },
    {
      "midi": 62,
      "hit": false,
      "t": 78974.17733333334,
      "d": 184.29444791666174,
      "v": 105
    },
    {
      "midi": 69,
      "hit": false,
      "t": 79190.52298958333,
      "d": 192.30725000001257,
      "v": 111
    },
    {
      "midi": 62,
      "hit": false,
      "t": 79366.80463541667,
      "d": 168.26884375000373,
      "v": 92
    },
    {
      "midi": 67,
      "hit": false,
      "t": 79583.15029166668,
      "d": 160.25604166666744,
      "v": 115
    },
    {
      "midi": 62,
      "hit": false,
      "t": 79759.43193750002,
      "d": 112.1792291666643,
      "v": 107
    },
    {
      "midi": 65,
      "hit": false,
      "t": 80368.40489583334,
      "d": 392.6273020833323,
      "v": 92
    },
    {
      "midi": 70,
      "hit": false,
      "t": 80753.01939583334,
      "d": 504.8065312499966,
      "v": 102
    },
    {
      "midi": 77,
      "hit": false,
      "t": 81145.64669791667,
      "d": 112.1792291666643,
      "v": 96
    },
    {
      "midi": 77,
      "hit": false,
      "t": 81514.23559375001,
      "d": 432.6913124999992,
      "v": 92
    },
    {
      "midi": 75,
      "hit": false,
      "t": 81906.86289583334,
      "d": 248.3968645833229,
      "v": 82
    },
    {
      "midi": 74,
      "hit": false,
      "t": 82091.15734375,
      "d": 192.30724999999802,
      "v": 92
    },
    {
      "midi": 72,
      "hit": false,
      "t": 82267.43898958333,
      "d": 176.28164583334,
      "v": 86
    },
    {
      "midi": 74,
      "hit": false,
      "t": 82451.7334375,
      "d": 192.30724999999802,
      "v": 98
    },
    {
      "midi": 70,
      "hit": false,
      "t": 82652.05348958334,
      "d": 240.38406250000116,
      "v": 86
    },
    {
      "midi": 71,
      "hit": false,
      "t": 83277.05205208334,
      "d": 160.25604166666744,
      "v": 120
    },
    {
      "midi": 74,
      "hit": false,
      "t": 83445.32089583334,
      "d": 176.28164583334,
      "v": 107
    },
    {
      "midi": 71,
      "hit": false,
      "t": 83637.62814583335,
      "d": 160.25604166666744,
      "v": 102
    },
    {
      "midi": 79,
      "hit": false,
      "t": 83821.92259375002,
      "d": 192.30724999999802,
      "v": 109
    },
    {
      "midi": 71,
      "hit": false,
      "t": 84006.21704166668,
      "d": 168.26884375000373,
      "v": 105
    },
    {
      "midi": 83,
      "hit": false,
      "t": 84222.56269791668,
      "d": 168.26884375000373,
      "v": 109
    },
    {
      "midi": 71,
      "hit": false,
      "t": 84390.83154166669,
      "d": 160.25604166666744,
      "v": 105
    },
    {
      "midi": 81,
      "hit": false,
      "t": 84591.15159375002,
      "d": 184.29444791666174,
      "v": 109
    },
    {
      "midi": 71,
      "hit": false,
      "t": 84775.44604166668,
      "d": 168.26884375000373,
      "v": 105
    },
    {
      "midi": 79,
      "hit": false,
      "t": 84967.75329166668,
      "d": 200.3200520833343,
      "v": 107
    },
    {
      "midi": 71,
      "hit": false,
      "t": 85160.06054166668,
      "d": 176.28164583334,
      "v": 107
    },
    {
      "midi": 78,
      "hit": false,
      "t": 85392.43180208336,
      "d": 192.30725000001257,
      "v": 102
    },
    {
      "midi": 71,
      "hit": false,
      "t": 85568.7134479167,
      "d": 184.2944479166763,
      "v": 107
    },
    {
      "midi": 79,
      "hit": false,
      "t": 85777.04630208337,
      "d": 160.25604166666744,
      "v": 115
    },
    {
      "midi": 71,
      "hit": false,
      "t": 85969.35355208337,
      "d": 128.20483333333686,
      "v": 88
    },
    {
      "midi": 74,
      "hit": false,
      "t": 86530.2496979167,
      "d": 376.60169791665976,
      "v": 102
    },
    {
      "midi": 77,
      "hit": false,
      "t": 86882.81298958337,
      "d": 472.75532291666605,
      "v": 96
    },
    {
      "midi": 86,
      "hit": false,
      "t": 87299.4786979167,
      "d": 104.16642708334257,
      "v": 92
    },
    {
      "midi": 86,
      "hit": false,
      "t": 87652.04198958338,
      "d": 432.6913124999992,
      "v": 100
    },
    {
      "midi": 84,
      "hit": false,
      "t": 88060.69489583338,
      "d": 232.37126041666488,
      "v": 90
    },
    {
      "midi": 82,
      "hit": false,
      "t": 88253.00214583338,
      "d": 200.3200520833343,
      "v": 82
    },
    {
      "midi": 81,
      "hit": false,
      "t": 88429.28379166672,
      "d": 200.3200520833343,
      "v": 83
    },
    {
      "midi": 82,
      "hit": false,
      "t": 88613.57823958338,
      "d": 200.3200520833343,
      "v": 90
    },
    {
      "midi": 77,
      "hit": false,
      "t": 88821.91109375005,
      "d": 304.4864791666623,
      "v": 86
    },
    {
      "midi": 62,
      "hit": false,
      "t": 89390.82004166671,
      "d": 160.25604166666744,
      "v": 120
    },
    {
      "midi": 67,
      "hit": false,
      "t": 89551.07608333338,
      "d": 144.23043749999488,
      "v": 122
    },
    {
      "midi": 62,
      "hit": false,
      "t": 89735.37053125004,
      "d": 160.25604166666744,
      "v": 102
    },
    {
      "midi": 71,
      "hit": false,
      "t": 89967.7417916667,
      "d": 184.29444791666174,
      "v": 118
    },
    {
      "midi": 62,
      "hit": false,
      "t": 90152.03623958337,
      "d": 136.21763541667315,
      "v": 105
    },
    {
      "midi": 74,
      "hit": false,
      "t": 90352.3562916667,
      "d": 176.28164583334,
      "v": 115
    },
    {
      "midi": 62,
      "hit": false,
      "t": 90528.63793750004,
      "d": 168.26884375000373,
      "v": 111
    },
    {
      "midi": 72,
      "hit": false,
      "t": 90728.95798958337,
      "d": 200.3200520833343,
      "v": 122
    },
    {
      "midi": 62,
      "hit": false,
      "t": 90913.25243750004,
      "d": 168.26884375000373,
      "v": 111
    },
    {
      "midi": 71,
      "hit": false,
      "t": 91121.5852916667,
      "d": 208.3328541666706,
      "v": 118
    },
    {
      "midi": 62,
      "hit": false,
      "t": 91297.86693750005,
      "d": 168.26884375000373,
      "v": 105
    },
    {
      "midi": 69,
      "hit": false,
      "t": 91498.18698958338,
      "d": 192.30724999999802,
      "v": 111
    },
    {
      "midi": 62,
      "hit": false,
      "t": 91682.48143750004,
      "d": 184.2944479166763,
      "v": 109
    },
    {
      "midi": 67,
      "hit": false,
      "t": 91898.82709375005,
      "d": 144.23043749999488,
      "v": 118
    },
    {
      "midi": 65,
      "hit": false,
      "t": 92475.74884375004,
      "d": 136.21763541667315,
      "v": 120
    },
    {
      "midi": 70,
      "hit": false,
      "t": 92660.04329166672,
      "d": 184.29444791666174,
      "v": 92
    },
    {
      "midi": 65,
      "hit": false,
      "t": 92820.29933333339,
      "d": 192.30724999999802,
      "v": 111
    },
    {
      "midi": 74,
      "hit": false,
      "t": 93028.63218750006,
      "d": 184.2944479166763,
      "v": 111
    },
    {
      "midi": 65,
      "hit": false,
      "t": 93204.9138333334,
      "d": 168.26884375000373,
      "v": 102
    },
    {
      "midi": 77,
      "hit": false,
      "t": 93437.28509375006,
      "d": 176.28164583334,
      "v": 107
    },
    {
      "midi": 65,
      "hit": false,
      "t": 93613.5667395834,
      "d": 144.23043749999488,
      "v": 100
    },
    {
      "midi": 75,
      "hit": false,
      "t": 93821.89959375006,
      "d": 224.35845833334315,
      "v": 102
    },
    {
      "midi": 65,
      "hit": false,
      "t": 93998.1812395834,
      "d": 160.25604166666744,
      "v": 100
    },
    {
      "midi": 74,
      "hit": false,
      "t": 94222.53969791673,
      "d": 192.30724999999802,
      "v": 109
    },
    {
      "midi": 65,
      "hit": false,
      "t": 94390.80854166673,
      "d": 184.29444791666174,
      "v": 105
    },
    {
      "midi": 72,
      "hit": false,
      "t": 94623.1798020834,
      "d": 184.29444791666174,
      "v": 109
    },
    {
      "midi": 65,
      "hit": false,
      "t": 94783.43584375006,
      "d": 168.26884374998917,
      "v": 102
    },
    {
      "midi": 70,
      "hit": false,
      "t": 94991.76869791672,
      "d": 160.25604166666744,
      "v": 94
    },
    {
      "midi": 65,
      "hit": false,
      "t": 95160.03754166672,
      "d": 96.15362500000629,
      "v": 98
    },
    {
      "midi": 62,
      "hit": false,
      "t": 95584.7160520834,
      "d": 144.23043749999488,
      "v": 115
    },
    {
      "midi": 67,
      "hit": false,
      "t": 95744.97209375007,
      "d": 176.28164583334,
      "v": 115
    },
    {
      "midi": 62,
      "hit": false,
      "t": 95929.26654166674,
      "d": 176.28164583334,
      "v": 109
    },
    {
      "midi": 71,
      "hit": false,
      "t": 96121.57379166676,
      "d": 184.29444791666174,
      "v": 120
    },
    {
      "midi": 62,
      "hit": false,
      "t": 96305.86823958342,
      "d": 136.21763541667315,
      "v": 105
    },
    {
      "midi": 74,
      "hit": false,
      "t": 96506.18829166675,
      "d": 168.26884375000373,
      "v": 115
    },
    {
      "midi": 62,
      "hit": false,
      "t": 96674.45713541676,
      "d": 112.1792291666643,
      "v": 105
    },
    {
      "midi": 72,
      "hit": false,
      "t": 96882.78998958343,
      "d": 160.25604166666744,
      "v": 120
    },
    {
      "midi": 62,
      "hit": false,
      "t": 97051.05883333343,
      "d": 168.26884375000373,
      "v": 107
    },
    {
      "midi": 71,
      "hit": false,
      "t": 97283.4300937501,
      "d": 192.30724999999802,
      "v": 122
    },
    {
      "midi": 62,
      "hit": false,
      "t": 97467.72454166676,
      "d": 136.21763541667315,
      "v": 98
    },
    {
      "midi": 69,
      "hit": false,
      "t": 97668.04459375009,
      "d": 176.28164583334,
      "v": 111
    },
    {
      "midi": 62,
      "hit": false,
      "t": 97836.3134375001,
      "d": 192.30724999999802,
      "v": 109
    },
    {
      "midi": 67,
      "hit": false,
      "t": 98068.68469791676,
      "d": 128.20483333333686,
      "v": 120
    },
    {
      "midi": 62,
      "hit": false,
      "t": 98260.99194791676,
      "d": 40.06401041666686,
      "v": 84
    },
    {
      "midi": 33,
      "hit": false,
      "t": 98437.27359375,
      "d": 2267.622989583353,
      "v": 90
    },
    {
      "midi": 45,
      "hit": false,
      "t": 98445.28639583333,
      "d": 2251.5973854166805,
      "v": 86
    },
    {
      "midi": 59,
      "hit": false,
      "t": 99999.77,
      "d": 96.15362500000629,
      "v": 88
    },
    {
      "midi": 64,
      "hit": false,
      "t": 99999.77,
      "d": 344.55048958334373,
      "v": 95
    },
    {
      "midi": 61,
      "hit": false,
      "t": 99999.77,
      "d": 408.6529062500049,
      "v": 91
    },
    {
      "midi": 59,
      "hit": false,
      "t": 100192.07725000002,
      "d": 184.29444791666174,
      "v": 87
    },
    {
      "midi": 57,
      "hit": false,
      "t": 100384.38450000001,
      "d": 72.11521874999744,
      "v": 74
    },
    {
      "midi": 59,
      "hit": false,
      "t": 100576.69175000001,
      "d": 168.26884375000373,
      "v": 91
    },
    {
      "midi": 64,
      "hit": false,
      "t": 100576.69175000001,
      "d": 296.4736770833406,
      "v": 95
    },
    {
      "midi": 61,
      "hit": false,
      "t": 100576.69175000001,
      "d": 336.53768750000745,
      "v": 87
    },
    {
      "midi": 59,
      "hit": false,
      "t": 100961.30625000002,
      "d": 448.71691666667175,
      "v": 79
    },
    {
      "midi": 64,
      "hit": false,
      "t": 100961.30625000002,
      "d": 472.75532291666605,
      "v": 93
    },
    {
      "midi": 57,
      "hit": false,
      "t": 101153.61350000002,
      "d": 288.4608750000043,
      "v": 95
    },
    {
      "midi": 38,
      "hit": false,
      "t": 101538.22800000003,
      "d": 1482.3683854166593,
      "v": 84
    },
    {
      "midi": 38,
      "hit": false,
      "t": 126153.55600000003,
      "d": 1482.3683854166738,
      "v": 84
    },
    {
      "midi": 69,
      "hit": false,
      "t": 151121.44729166676,
      "d": 448.7169166666572,
      "v": 99
    },
    {
      "midi": 74,
      "hit": false,
      "t": 151530.10019791676,
      "d": 368.5888958333235,
      "v": 86
    },
    {
      "midi": 81,
      "hit": false,
      "t": 151890.67629166675,
      "d": 120.19203125001513,
      "v": 95
    },
    {
      "midi": 81,
      "hit": false,
      "t": 152275.29079166678,
      "d": 376.60169791665976,
      "v": 97
    },
    {
      "midi": 79,
      "hit": false,
      "t": 152611.82847916678,
      "d": 272.4352708333172,
      "v": 78
    },
    {
      "midi": 78,
      "hit": false,
      "t": 152836.1869375001,
      "d": 248.39686458330834,
      "v": 74
    },
    {
      "midi": 76,
      "hit": false,
      "t": 153044.51979166677,
      "d": 232.37126041663578,
      "v": 84
    },
    {
      "midi": 78,
      "hit": false,
      "t": 153228.81423958341,
      "d": 208.33285416665603,
      "v": 80
    },
    {
      "midi": 74,
      "hit": false,
      "t": 153429.13429166673,
      "d": 232.37126041666488,
      "v": 92
    },
    {
      "midi": 69,
      "hit": false,
      "t": 154230.41450000007,
      "d": 376.60169791665976,
      "v": 90
    },
    {
      "midi": 76,
      "hit": false,
      "t": 154623.0418020834,
      "d": 384.61449999999604,
      "v": 90
    },
    {
      "midi": 81,
      "hit": false,
      "t": 154983.6178958334,
      "d": 112.17922916667885,
      "v": 97
    },
    {
      "midi": 81,
      "hit": false,
      "t": 155352.20679166674,
      "d": 408.6529062500049,
      "v": 97
    },
    {
      "midi": 76,
      "hit": false,
      "t": 155744.83409375008,
      "d": 240.38406250000116,
      "v": 95
    },
    {
      "midi": 74,
      "hit": false,
      "t": 155961.17975000007,
      "d": 176.28164583334,
      "v": 97
    },
    {
      "midi": 73,
      "hit": false,
      "t": 156145.47419791674,
      "d": 128.2048333333223,
      "v": 88
    },
    {
      "midi": 76,
      "hit": false,
      "t": 156313.74304166672,
      "d": 232.37126041666488,
      "v": 99
    },
    {
      "midi": 69,
      "hit": false,
      "t": 156506.05029166673,
      "d": 264.4224687499809,
      "v": 90
    },
    {
      "midi": 66,
      "hit": false,
      "t": 157107.01044791672,
      "d": 128.2048333333223,
      "v": 101
    },
    {
      "midi": 71,
      "hit": false,
      "t": 157267.2664895834,
      "d": 184.2944479166763,
      "v": 105
    },
    {
      "midi": 66,
      "hit": false,
      "t": 157443.54813541673,
      "d": 136.2176354166586,
      "v": 97
    },
    {
      "midi": 74,
      "hit": false,
      "t": 157659.89379166672,
      "d": 192.30725000001257,
      "v": 95
    },
    {
      "midi": 66,
      "hit": false,
      "t": 157828.16263541672,
      "d": 152.24323958333116,
      "v": 97
    },
    {
      "midi": 78,
      "hit": false,
      "t": 158060.5338958334,
      "d": 176.28164583334,
      "v": 92
    },
    {
      "midi": 66,
      "hit": false,
      "t": 158228.8027395834,
      "d": 152.24323958333116,
      "v": 95
    },
    {
      "midi": 76,
      "hit": false,
      "t": 158429.1227916667,
      "d": 192.30725000001257,
      "v": 92
    },
    {
      "midi": 66,
      "hit": false,
      "t": 158597.39163541672,
      "d": 144.23043749999488,
      "v": 92
    },
    {
      "midi": 74,
      "hit": false,
      "t": 158813.7372916667,
      "d": 176.28164583334,
      "v": 95
    },
    {
      "midi": 66,
      "hit": false,
      "t": 158998.03173958338,
      "d": 152.24323958333116,
      "v": 97
    },
    {
      "midi": 73,
      "hit": false,
      "t": 159214.37739583338,
      "d": 208.33285416668514,
      "v": 97
    },
    {
      "midi": 66,
      "hit": false,
      "t": 159406.6846458334,
      "d": 128.20483333335142,
      "v": 99
    },
    {
      "midi": 71,
      "hit": false,
      "t": 159607.00469791674,
      "d": 208.33285416665603,
      "v": 99
    },
    {
      "midi": 62,
      "hit": false,
      "t": 160183.92644791672,
      "d": 144.23043749999488,
      "v": 105
    },
    {
      "midi": 67,
      "hit": false,
      "t": 160352.19529166672,
      "d": 184.2944479166763,
      "v": 105
    },
    {
      "midi": 62,
      "hit": false,
      "t": 160536.4897395834,
      "d": 160.25604166666744,
      "v": 92
    },
    {
      "midi": 71,
      "hit": false,
      "t": 160760.84819791673,
      "d": 176.28164583334,
      "v": 97
    },
    {
      "midi": 62,
      "hit": false,
      "t": 160937.12984375007,
      "d": 136.2176354166586,
      "v": 99
    },
    {
      "midi": 74,
      "hit": false,
      "t": 161129.43709375005,
      "d": 192.30725000001257,
      "v": 101
    },
    {
      "midi": 62,
      "hit": false,
      "t": 161297.70593750005,
      "d": 160.25604166666744,
      "v": 92
    },
    {
      "midi": 72,
      "hit": false,
      "t": 161514.05159375005,
      "d": 176.28164583334,
      "v": 97
    },
    {
      "midi": 62,
      "hit": false,
      "t": 161690.3332395834,
      "d": 136.2176354166586,
      "v": 92
    },
    {
      "midi": 71,
      "hit": false,
      "t": 161882.64048958337,
      "d": 200.32005208334886,
      "v": 95
    },
    {
      "midi": 62,
      "hit": false,
      "t": 162050.90933333337,
      "d": 184.2944479166763,
      "v": 95
    },
    {
      "midi": 69,
      "hit": false,
      "t": 162267.2549895834,
      "d": 192.30725000001257,
      "v": 101
    },
    {
      "midi": 62,
      "hit": false,
      "t": 162443.53663541673,
      "d": 168.26884375000373,
      "v": 82
    },
    {
      "midi": 67,
      "hit": false,
      "t": 162667.89509375006,
      "d": 152.24323958333116,
      "v": 105
    },
    {
      "midi": 62,
      "hit": false,
      "t": 162828.15113541673,
      "d": 120.19203124998603,
      "v": 97
    },
    {
      "midi": 65,
      "hit": false,
      "t": 163445.1368958334,
      "d": 392.6273020833323,
      "v": 82
    },
    {
      "midi": 70,
      "hit": false,
      "t": 163821.73859375005,
      "d": 504.8065312500112,
      "v": 92
    },
    {
      "midi": 77,
      "hit": false,
      "t": 164222.37869791672,
      "d": 112.17922916667885,
      "v": 86
    },
    {
      "midi": 77,
      "hit": false,
      "t": 164582.95479166674,
      "d": 440.7041145833209,
      "v": 82
    },
    {
      "midi": 75,
      "hit": false,
      "t": 164983.5948958334,
      "d": 248.39686458330834,
      "v": 72
    },
    {
      "midi": 74,
      "hit": false,
      "t": 165167.88934375005,
      "d": 192.30725000001257,
      "v": 82
    },
    {
      "midi": 72,
      "hit": false,
      "t": 165344.1709895834,
      "d": 176.28164583334,
      "v": 76
    },
    {
      "midi": 74,
      "hit": false,
      "t": 165528.46543750007,
      "d": 200.32005208331975,
      "v": 88
    },
    {
      "midi": 70,
      "hit": false,
      "t": 165728.7854895834,
      "d": 240.38406250000116,
      "v": 76
    },
    {
      "midi": 71,
      "hit": false,
      "t": 166353.78405208339,
      "d": 160.25604166666744,
      "v": 110
    },
    {
      "midi": 74,
      "hit": false,
      "t": 166522.0528958334,
      "d": 176.28164583334,
      "v": 97
    },
    {
      "midi": 71,
      "hit": false,
      "t": 166706.34734375007,
      "d": 168.26884375000373,
      "v": 92
    },
    {
      "midi": 79,
      "hit": false,
      "t": 166898.65459375008,
      "d": 192.30725000001257,
      "v": 99
    },
    {
      "midi": 71,
      "hit": false,
      "t": 167082.94904166675,
      "d": 168.26884375000373,
      "v": 95
    },
    {
      "midi": 83,
      "hit": false,
      "t": 167299.29469791675,
      "d": 168.26884375000373,
      "v": 99
    },
    {
      "midi": 71,
      "hit": false,
      "t": 167467.56354166675,
      "d": 160.25604166666744,
      "v": 95
    },
    {
      "midi": 81,
      "hit": false,
      "t": 167659.87079166676,
      "d": 192.30725000001257,
      "v": 99
    },
    {
      "midi": 71,
      "hit": false,
      "t": 167852.17804166678,
      "d": 168.26884375000373,
      "v": 95
    },
    {
      "midi": 79,
      "hit": false,
      "t": 168052.49809375012,
      "d": 200.32005208334886,
      "v": 97
    },
    {
      "midi": 71,
      "hit": false,
      "t": 168236.7925416668,
      "d": 176.28164583334,
      "v": 97
    },
    {
      "midi": 78,
      "hit": false,
      "t": 168469.16380208347,
      "d": 192.30725000001257,
      "v": 92
    },
    {
      "midi": 71,
      "hit": false,
      "t": 168637.43264583347,
      "d": 200.32005208334886,
      "v": 97
    },
    {
      "midi": 79,
      "hit": false,
      "t": 168845.76550000015,
      "d": 168.26884375000373,
      "v": 105
    },
    {
      "midi": 71,
      "hit": false,
      "t": 169046.0855520835,
      "d": 128.2048333333223,
      "v": 78
    },
    {
      "midi": 74,
      "hit": false,
      "t": 169606.98169791684,
      "d": 376.60169791668886,
      "v": 92
    },
    {
      "midi": 77,
      "hit": false,
      "t": 169959.54498958352,
      "d": 472.75532291666605,
      "v": 86
    },
    {
      "midi": 86,
      "hit": false,
      "t": 170376.21069791686,
      "d": 104.16642708331347,
      "v": 82
    },
    {
      "midi": 86,
      "hit": false,
      "t": 170728.7739895835,
      "d": 432.69131250001374,
      "v": 90
    },
    {
      "midi": 84,
      "hit": false,
      "t": 171129.41409375018,
      "d": 240.38406250000116,
      "v": 80
    },
    {
      "midi": 82,
      "hit": false,
      "t": 171329.73414583353,
      "d": 200.32005208331975,
      "v": 72
    },
    {
      "midi": 81,
      "hit": false,
      "t": 171506.01579166684,
      "d": 200.32005208334886,
      "v": 73
    },
    {
      "midi": 82,
      "hit": false,
      "t": 171690.31023958352,
      "d": 200.32005208334886,
      "v": 80
    },
    {
      "midi": 77,
      "hit": false,
      "t": 171890.63029166686,
      "d": 312.4992812499986,
      "v": 76
    },
    {
      "midi": 62,
      "hit": false,
      "t": 172467.55204166687,
      "d": 160.25604166666744,
      "v": 110
    },
    {
      "midi": 67,
      "hit": false,
      "t": 172627.80808333354,
      "d": 144.23043749999488,
      "v": 112
    },
    {
      "midi": 62,
      "hit": false,
      "t": 172812.1025312502,
      "d": 160.25604166666744,
      "v": 92
    },
    {
      "midi": 71,
      "hit": false,
      "t": 173044.47379166685,
      "d": 184.2944479166763,
      "v": 108
    },
    {
      "midi": 62,
      "hit": false,
      "t": 173228.76823958353,
      "d": 136.2176354166586,
      "v": 95
    },
    {
      "midi": 74,
      "hit": false,
      "t": 173437.10109375019,
      "d": 168.26884375000373,
      "v": 105
    },
    {
      "midi": 62,
      "hit": false,
      "t": 173605.3699375002,
      "d": 168.26884375000373,
      "v": 101
    },
    {
      "midi": 72,
      "hit": false,
      "t": 173805.68998958354,
      "d": 200.32005208334886,
      "v": 112
    },
    {
      "midi": 62,
      "hit": false,
      "t": 173981.97163541688,
      "d": 176.28164583334,
      "v": 101
    },
    {
      "midi": 71,
      "hit": false,
      "t": 174198.31729166687,
      "d": 208.33285416668514,
      "v": 108
    },
    {
      "midi": 62,
      "hit": false,
      "t": 174374.5989375002,
      "d": 168.26884375000373,
      "v": 95
    },
    {
      "midi": 69,
      "hit": false,
      "t": 174574.91898958356,
      "d": 192.30725000001257,
      "v": 101
    },
    {
      "midi": 62,
      "hit": false,
      "t": 174759.21343750024,
      "d": 184.2944479166763,
      "v": 99
    },
    {
      "midi": 67,
      "hit": false,
      "t": 174975.55909375026,
      "d": 144.23043749999488,
      "v": 108
    },
    {
      "midi": 65,
      "hit": false,
      "t": 175560.49364583357,
      "d": 136.2176354166586,
      "v": 110
    },
    {
      "midi": 70,
      "hit": false,
      "t": 175744.78809375022,
      "d": 168.26884375000373,
      "v": 82
    },
    {
      "midi": 65,
      "hit": false,
      "t": 175897.03133333355,
      "d": 192.30725000001257,
      "v": 101
    },
    {
      "midi": 74,
      "hit": false,
      "t": 176113.37698958357,
      "d": 176.28164583334,
      "v": 101
    },
    {
      "midi": 65,
      "hit": false,
      "t": 176281.64583333358,
      "d": 168.26884375000373,
      "v": 92
    },
    {
      "midi": 77,
      "hit": false,
      "t": 176514.01709375024,
      "d": 176.28164583334,
      "v": 97
    },
    {
      "midi": 65,
      "hit": false,
      "t": 176690.29873958358,
      "d": 144.23043749999488,
      "v": 90
    },
    {
      "midi": 75,
      "hit": false,
      "t": 176890.6187916669,
      "d": 232.37126041666488,
      "v": 92
    },
    {
      "midi": 65,
      "hit": false,
      "t": 177074.91323958358,
      "d": 160.25604166666744,
      "v": 90
    },
    {
      "midi": 74,
      "hit": false,
      "t": 177299.2716979169,
      "d": 192.30725000001257,
      "v": 99
    },
    {
      "midi": 65,
      "hit": false,
      "t": 177467.5405416669,
      "d": 184.2944479166763,
      "v": 95
    },
    {
      "midi": 72,
      "hit": false,
      "t": 177699.91180208357,
      "d": 184.2944479166763,
      "v": 99
    },
    {
      "midi": 65,
      "hit": false,
      "t": 177868.18064583358,
      "d": 160.25604166666744,
      "v": 92
    },
    {
      "midi": 70,
      "hit": false,
      "t": 178068.5006979169,
      "d": 160.25604166666744,
      "v": 84
    },
    {
      "midi": 65,
      "hit": false,
      "t": 178244.78234375024,
      "d": 88.14082291667,
      "v": 88
    },
    {
      "midi": 62,
      "hit": false,
      "t": 178653.43525000024,
      "d": 152.24323958333116,
      "v": 105
    },
    {
      "midi": 67,
      "hit": false,
      "t": 178821.70409375025,
      "d": 176.28164583334,
      "v": 105
    },
    {
      "midi": 62,
      "hit": false,
      "t": 179005.99854166692,
      "d": 176.28164583334,
      "v": 99
    },
    {
      "midi": 71,
      "hit": false,
      "t": 179198.30579166693,
      "d": 184.2944479166763,
      "v": 110
    },
    {
      "midi": 62,
      "hit": false,
      "t": 179382.6002395836,
      "d": 136.2176354166586,
      "v": 95
    },
    {
      "midi": 74,
      "hit": false,
      "t": 179582.92029166693,
      "d": 168.26884375000373,
      "v": 105
    },
    {
      "midi": 62,
      "hit": false,
      "t": 179751.18913541693,
      "d": 112.17922916667885,
      "v": 95
    },
    {
      "midi": 72,
      "hit": false,
      "t": 179951.50918750028,
      "d": 168.26884375000373,
      "v": 110
    },
    {
      "midi": 62,
      "hit": false,
      "t": 180127.79083333362,
      "d": 168.26884375000373,
      "v": 97
    },
    {
      "midi": 71,
      "hit": false,
      "t": 180368.17489583362,
      "d": 184.2944479166763,
      "v": 112
    },
    {
      "midi": 62,
      "hit": false,
      "t": 180544.45654166696,
      "d": 136.2176354166586,
      "v": 88
    },
    {
      "midi": 69,
      "hit": false,
      "t": 180736.76379166695,
      "d": 184.2944479166763,
      "v": 101
    },
    {
      "midi": 62,
      "hit": false,
      "t": 180913.0454375003,
      "d": 192.30725000001257,
      "v": 99
    },
    {
      "midi": 67,
      "hit": false,
      "t": 181145.41669791695,
      "d": 128.2048333333223,
      "v": 110
    },
    {
      "midi": 62,
      "hit": false,
      "t": 181329.7111458336,
      "d": 48.07681249998859,
      "v": 74
    },
    {
      "midi": 33,
      "hit": false,
      "t": 181505.9927916667,
      "d": 2275.63579166666,
      "v": 90
    },
    {
      "midi": 45,
      "hit": false,
      "t": 181514.00559375004,
      "d": 2259.6101874999877,
      "v": 86
    },
    {
      "midi": 59,
      "hit": false,
      "t": 183076.50200000004,
      "d": 96.15362500000629,
      "v": 88
    },
    {
      "midi": 64,
      "hit": false,
      "t": 183076.50200000004,
      "d": 344.55048958334373,
      "v": 95
    },
    {
      "midi": 61,
      "hit": false,
      "t": 183076.50200000004,
      "d": 400.6401041666977,
      "v": 91
    },
    {
      "midi": 59,
      "hit": false,
      "t": 183268.80925000005,
      "d": 184.2944479166763,
      "v": 83
    },
    {
      "midi": 57,
      "hit": false,
      "t": 183461.11650000006,
      "d": 72.11521874999744,
      "v": 75
    },
    {
      "midi": 59,
      "hit": false,
      "t": 183653.42375000005,
      "d": 168.26884374997462,
      "v": 90
    },
    {
      "midi": 64,
      "hit": false,
      "t": 183653.42375000005,
      "d": 296.47367708329693,
      "v": 98
    },
    {
      "midi": 61,
      "hit": false,
      "t": 183653.42375000005,
      "d": 344.5504895832855,
      "v": 85
    },
    {
      "midi": 59,
      "hit": false,
      "t": 184038.03824999998,
      "d": 448.7169166666863,
      "v": 81
    },
    {
      "midi": 64,
      "hit": false,
      "t": 184038.03824999998,
      "d": 472.75532291669515,
      "v": 94
    },
    {
      "midi": 57,
      "hit": false,
      "t": 184230.3455,
      "d": 288.46087500001886,
      "v": 96
    },
    {
      "midi": 38,
      "hit": false,
      "t": 184614.96000000002,
      "d": 1490.3811874999956,
      "v": 84
    },
    {
      "midi": 50,
      "hit": false,
      "t": 209230.288,
      "d": 2315.699802083429,
      "v": 95
    },
    {
      "midi": 67,
      "hit": false,
      "t": 209238.30080208334,
      "d": 56.08961458335398,
      "v": 108
    },
    {
      "midi": 68,
      "hit": false,
      "t": 209246.31360416667,
      "d": 136.2176354166877,
      "v": 94
    },
    {
      "midi": 57,
      "hit": false,
      "t": 209262.33920833335,
      "d": 665.0625729167077,
      "v": 107
    },
    {
      "midi": 69,
      "hit": false,
      "t": 209270.35201041668,
      "d": 592.9473541666812,
      "v": 100
    },
    {
      "midi": 69,
      "hit": false,
      "t": 209863.29936458336,
      "d": 96.15362500003539,
      "v": 95
    },
    {
      "midi": 68,
      "hit": false,
      "t": 209895.3505729167,
      "d": 144.23043750002398,
      "v": 97
    },
    {
      "midi": 67,
      "hit": false,
      "t": 209951.44018750006,
      "d": 104.16642708334257,
      "v": 94
    },
    {
      "midi": 65,
      "hit": false,
      "t": 210031.5682083334,
      "d": 136.2176354166877,
      "v": 92
    },
    {
      "midi": 67,
      "hit": false,
      "t": 210135.73463541674,
      "d": 96.15362500000629,
      "v": 91
    },
    {
      "midi": 65,
      "hit": false,
      "t": 210231.88826041674,
      "d": 96.15362500000629,
      "v": 92
    },
    {
      "midi": 67,
      "hit": false,
      "t": 210304.00347916674,
      "d": 80.12802083333372,
      "v": 75
    },
    {
      "midi": 65,
      "hit": false,
      "t": 210400.15710416675,
      "d": 96.15362500000629,
      "v": 83
    },
    {
      "midi": 67,
      "hit": false,
      "t": 210488.29792708342,
      "d": 80.12802083333372,
      "v": 96
    },
    {
      "midi": 65,
      "hit": false,
      "t": 210576.4387500001,
      "d": 104.16642708334257,
      "v": 85
    },
    {
      "midi": 67,
      "hit": false,
      "t": 210608.48995833343,
      "d": 64.10241666666116,
      "v": 86
    },
    {
      "midi": 65,
      "hit": false,
      "t": 210680.60517708343,
      "d": 88.14082291669911,
      "v": 82
    },
    {
      "midi": 67,
      "hit": false,
      "t": 210696.6307812501,
      "d": 80.12802083336283,
      "v": 84
    },
    {
      "midi": 68,
      "hit": false,
      "t": 210720.6691875001,
      "d": 224.3584583333577,
      "v": 81
    },
    {
      "midi": 69,
      "hit": false,
      "t": 210736.69479166679,
      "d": 280.4480729166826,
      "v": 70
    },
    {
      "midi": 67,
      "hit": false,
      "t": 210840.86121875013,
      "d": 152.24323958333116,
      "v": 83
    },
    {
      "midi": 65,
      "hit": false,
      "t": 210945.02764583347,
      "d": 200.32005208331975,
      "v": 76
    },
    {
      "midi": 62,
      "hit": false,
      "t": 211105.28368750014,
      "d": 1153.84349999993,
      "v": 82
    },
    {
      "midi": 60,
      "hit": false,
      "t": 211265.53972916678,
      "d": 392.6273020833032,
      "v": 83
    },
    {
      "midi": 50,
      "hit": false,
      "t": 211545.98780208343,
      "d": 3205.1208333332906,
      "v": 53
    },
    {
      "midi": 53,
      "hit": false,
      "t": 211586.05181250008,
      "d": 3165.0568229166383,
      "v": 63
    },
    {
      "midi": 57,
      "hit": false,
      "t": 211610.0902187501,
      "d": 3141.0184166666295,
      "v": 79
    }
  ]
}