{
  "jsonPath": "Jazz/Cool Jazz/Duke Ellington/in-a-sentimental-mood.json",
  "path": "Jazz\\Cool Jazz\\Duke Ellington\\In A Sentimental Mood.mid",
  "name": "In A Sentimental Mood",
  "difficulty": "Advanced",
  "bpm": 57.999986466669824,
  "notes": [
    {
      "midi": 65,
      "hit": false,
      "t": 1069.5045598958334,
      "d": 525.3233984375001,
      "v": 81
    },
    {
      "midi": 53,
      "hit": false,
      "t": 1077.5864583333334,
      "d": 589.9785859374999,
      "v": 65
    },
    {
      "midi": 67,
      "hit": false,
      "t": 1594.8279583333335,
      "d": 557.6509921874997,
      "v": 78
    },
    {
      "midi": 55,
      "hit": false,
      "t": 1619.0736536458335,
      "d": 519.9354661458333,
      "v": 74
    },
    {
      "midi": 69,
      "hit": false,
      "t": 2103.9875598958333,
      "d": 492.9958046874999,
      "v": 80
    },
    {
      "midi": 57,
      "hit": false,
      "t": 2130.9272213541667,
      "d": 522.629432291667,
      "v": 68
    },
    {
      "midi": 72,
      "hit": false,
      "t": 2613.1471614583334,
      "d": 501.0777031250004,
      "v": 72
    },
    {
      "midi": 60,
      "hit": false,
      "t": 2621.2290598958334,
      "d": 544.1811614583335,
      "v": 74
    },
    {
      "midi": 74,
      "hit": false,
      "t": 3146.5524583333336,
      "d": 721.9829270833338,
      "v": 58
    },
    {
      "midi": 62,
      "hit": false,
      "t": 3170.7981536458337,
      "d": 474.13804166666705,
      "v": 61
    },
    {
      "midi": 77,
      "hit": false,
      "t": 3906.250911458334,
      "d": 223.5991901041666,
      "v": 60
    },
    {
      "midi": 79,
      "hit": false,
      "t": 4199.8932213541675,
      "d": 611.5303151041671,
      "v": 63
    },
    {
      "midi": 50,
      "hit": false,
      "t": 4221.444950520834,
      "d": 827.0476067708341,
      "v": 40
    },
    {
      "midi": 57,
      "hit": false,
      "t": 4800.647671875001,
      "d": 1214.9787317708342,
      "v": 32
    },
    {
      "midi": 69,
      "hit": false,
      "t": 5336.746934895835,
      "d": 519.9354661458337,
      "v": 32
    },
    {
      "midi": 65,
      "hit": false,
      "t": 5347.5227994791685,
      "d": 441.8104479166668,
      "v": 24
    },
    {
      "midi": 64,
      "hit": false,
      "t": 5363.686596354169,
      "d": 872.8450312499999,
      "v": 22
    },
    {
      "midi": 81,
      "hit": false,
      "t": 6656.790346354169,
      "d": 1524.7848385416673,
      "v": 91
    },
    {
      "midi": 73,
      "hit": false,
      "t": 6923.492994791669,
      "d": 140.08623958333374,
      "v": 55
    },
    {
      "midi": 69,
      "hit": false,
      "t": 6926.186960937503,
      "d": 134.69830729166642,
      "v": 42
    },
    {
      "midi": 73,
      "hit": false,
      "t": 7330.281882812503,
      "d": 150.86210416666654,
      "v": 42
    },
    {
      "midi": 69,
      "hit": false,
      "t": 7335.669815104169,
      "d": 105.06467968749985,
      "v": 40
    },
    {
      "midi": 61,
      "hit": false,
      "t": 7349.139645833336,
      "d": 778.5562161458338,
      "v": 30
    },
    {
      "midi": 64,
      "hit": false,
      "t": 7365.303442708336,
      "d": 654.6337734375002,
      "v": 20
    },
    {
      "midi": 73,
      "hit": false,
      "t": 7720.906973958336,
      "d": 156.25003645833385,
      "v": 37
    },
    {
      "midi": 69,
      "hit": false,
      "t": 7731.682838541669,
      "d": 137.39227343750008,
      "v": 40
    },
    {
      "midi": 69,
      "hit": false,
      "t": 8081.898437500003,
      "d": 145.47417187500014,
      "v": 40
    },
    {
      "midi": 73,
      "hit": false,
      "t": 8089.980335937503,
      "d": 204.7414270833333,
      "v": 43
    },
    {
      "midi": 72,
      "hit": false,
      "t": 8407.868341145837,
      "d": 1018.3192031250001,
      "v": 40
    },
    {
      "midi": 60,
      "hit": false,
      "t": 8407.868341145837,
      "d": 1328.1253098958332,
      "v": 34
    },
    {
      "midi": 64,
      "hit": false,
      "t": 8410.56230729167,
      "d": 1368.5348020833335,
      "v": 24
    },
    {
      "midi": 69,
      "hit": false,
      "t": 8413.256273437502,
      "d": 961.7459140625015,
      "v": 25
    },
    {
      "midi": 89,
      "hit": false,
      "t": 10005.390265625003,
      "d": 153.5560703124993,
      "v": 91
    },
    {
      "midi": 77,
      "hit": false,
      "t": 10008.084231770836,
      "d": 105.06467968750076,
      "v": 94
    },
    {
      "midi": 91,
      "hit": false,
      "t": 10304.420507812501,
      "d": 204.7414270833342,
      "v": 83
    },
    {
      "midi": 79,
      "hit": false,
      "t": 10309.808440104169,
      "d": 202.04746093749964,
      "v": 88
    },
    {
      "midi": 64,
      "hit": false,
      "t": 10614.226614583335,
      "d": 980.6036770833307,
      "v": 37
    },
    {
      "midi": 59,
      "hit": false,
      "t": 10625.002479166667,
      "d": 994.0735078124981,
      "v": 30
    },
    {
      "midi": 60,
      "hit": false,
      "t": 10630.390411458335,
      "d": 975.2157447916634,
      "v": 37
    },
    {
      "midi": 89,
      "hit": false,
      "t": 10649.248174479168,
      "d": 239.76298697916718,
      "v": 82
    },
    {
      "midi": 77,
      "hit": false,
      "t": 10654.636106770835,
      "d": 285.56041145833296,
      "v": 71
    },
    {
      "midi": 88,
      "hit": false,
      "t": 11034.485333333334,
      "d": 234.37505468749987,
      "v": 67
    },
    {
      "midi": 76,
      "hit": false,
      "t": 11037.179299479167,
      "d": 309.80610677083314,
      "v": 59
    },
    {
      "midi": 86,
      "hit": false,
      "t": 11540.95096875,
      "d": 226.2931562499998,
      "v": 64
    },
    {
      "midi": 74,
      "hit": false,
      "t": 11549.0328671875,
      "d": 290.9483437500003,
      "v": 55
    },
    {
      "midi": 84,
      "hit": false,
      "t": 12176.726979166666,
      "d": 37.715526041667545,
      "v": 57
    },
    {
      "midi": 72,
      "hit": false,
      "t": 12198.278708333333,
      "d": 43.10345833333304,
      "v": 32
    },
    {
      "midi": 69,
      "hit": false,
      "t": 12543.106375,
      "d": 956.3579817708323,
      "v": 54
    },
    {
      "midi": 81,
      "hit": false,
      "t": 12559.270171875,
      "d": 1072.198526041666,
      "v": 36
    },
    {
      "midi": 57,
      "hit": false,
      "t": 12559.270171875,
      "d": 1788.7935208333347,
      "v": 32
    },
    {
      "midi": 62,
      "hit": false,
      "t": 12564.658104166667,
      "d": 622.306179687499,
      "v": 33
    },
    {
      "midi": 58,
      "hit": false,
      "t": 12580.821901041667,
      "d": 608.8363489583317,
      "v": 32
    },
    {
      "midi": 62,
      "hit": false,
      "t": 13634.162664062498,
      "d": 554.9570260416676,
      "v": 17
    },
    {
      "midi": 58,
      "hit": false,
      "t": 13785.024768229165,
      "d": 705.819130208336,
      "v": 1
    },
    {
      "midi": 93,
      "hit": false,
      "t": 14140.628299479165,
      "d": 96.9827812500007,
      "v": 80
    },
    {
      "midi": 86,
      "hit": false,
      "t": 14151.404164062498,
      "d": 123.92244270833544,
      "v": 71
    },
    {
      "midi": 81,
      "hit": false,
      "t": 14323.817997395834,
      "d": 53.87932291666766,
      "v": 44
    },
    {
      "midi": 90,
      "hit": false,
      "t": 14329.205929687501,
      "d": 107.7586458333335,
      "v": 51
    },
    {
      "midi": 86,
      "hit": false,
      "t": 14525.865458333334,
      "d": 121.22847656249905,
      "v": 53
    },
    {
      "midi": 93,
      "hit": false,
      "t": 14528.559424479166,
      "d": 94.28881510416613,
      "v": 64
    },
    {
      "midi": 81,
      "hit": false,
      "t": 14700.973257812499,
      "d": 118.53451041666449,
      "v": 42
    },
    {
      "midi": 62,
      "hit": false,
      "t": 14719.831020833331,
      "d": 530.7113307291656,
      "v": 27
    },
    {
      "midi": 58,
      "hit": false,
      "t": 14719.831020833331,
      "d": 608.8363489583317,
      "v": 18
    },
    {
      "midi": 90,
      "hit": false,
      "t": 14730.606885416664,
      "d": 134.6983072916646,
      "v": 38
    },
    {
      "midi": 54,
      "hit": false,
      "t": 14749.464648437497,
      "d": 1632.5434843750008,
      "v": 35
    },
    {
      "midi": 86,
      "hit": false,
      "t": 14932.654346354162,
      "d": 137.392273437501,
      "v": 44
    },
    {
      "midi": 93,
      "hit": false,
      "t": 14940.736244791662,
      "d": 113.14657812500081,
      "v": 52
    },
    {
      "midi": 90,
      "hit": false,
      "t": 15150.865604166664,
      "d": 132.00434114583368,
      "v": 31
    },
    {
      "midi": 81,
      "hit": false,
      "t": 15169.723367187496,
      "d": 156.25003645833385,
      "v": 22
    },
    {
      "midi": 81,
      "hit": false,
      "t": 16026.404601562497,
      "d": 366.37939583333537,
      "v": 47
    },
    {
      "midi": 69,
      "hit": false,
      "t": 16050.650296874997,
      "d": 299.03024218750033,
      "v": 24
    },
    {
      "midi": 81,
      "hit": false,
      "t": 16559.8098984375,
      "d": 1198.814934895836,
      "v": 34
    },
    {
      "midi": 69,
      "hit": false,
      "t": 16570.585763020834,
      "d": 1196.1209687500013,
      "v": 30
    },
    {
      "midi": 58,
      "hit": false,
      "t": 16570.585763020834,
      "d": 1408.9442942708338,
      "v": 25
    },
    {
      "midi": 62,
      "hit": false,
      "t": 16578.667661458334,
      "d": 1126.0778489583354,
      "v": 29
    },
    {
      "midi": 53,
      "hit": false,
      "t": 16581.36162760417,
      "d": 1120.6899166666662,
      "v": 34
    },
    {
      "midi": 81,
      "hit": false,
      "t": 17987.611955729168,
      "d": 167.02590104166666,
      "v": 85
    },
    {
      "midi": 69,
      "hit": false,
      "t": 17992.999888020833,
      "d": 94.28881510416977,
      "v": 92
    },
    {
      "midi": 62,
      "hit": false,
      "t": 17995.693854166668,
      "d": 137.392273437501,
      "v": 76
    },
    {
      "midi": 58,
      "hit": false,
      "t": 17995.693854166668,
      "d": 169.71986718749758,
      "v": 69
    },
    {
      "midi": 53,
      "hit": false,
      "t": 17998.387820312502,
      "d": 161.63796874999753,
      "v": 75
    },
    {
      "midi": 84,
      "hit": false,
      "t": 18337.827554687497,
      "d": 228.98712239583256,
      "v": 94
    },
    {
      "midi": 72,
      "hit": false,
      "t": 18340.521520833332,
      "d": 196.65952864583232,
      "v": 91
    },
    {
      "midi": 53,
      "hit": false,
      "t": 18345.909453124998,
      "d": 215.517291666667,
      "v": 79
    },
    {
      "midi": 62,
      "hit": false,
      "t": 18351.297385416663,
      "d": 177.80176562500128,
      "v": 73
    },
    {
      "midi": 58,
      "hit": false,
      "t": 18353.991351562498,
      "d": 239.76298697916718,
      "v": 68
    },
    {
      "midi": 58,
      "hit": false,
      "t": 18731.146611979166,
      "d": 584.5906536458351,
      "v": 83
    },
    {
      "midi": 62,
      "hit": false,
      "t": 18731.146611979166,
      "d": 600.7544505208352,
      "v": 91
    },
    {
      "midi": 86,
      "hit": false,
      "t": 18733.840578125,
      "d": 317.8880052083332,
      "v": 87
    },
    {
      "midi": 79,
      "hit": false,
      "t": 18739.228510416666,
      "d": 350.21559895833343,
      "v": 79
    },
    {
      "midi": 74,
      "hit": false,
      "t": 18739.228510416666,
      "d": 366.37939583333355,
      "v": 84
    },
    {
      "midi": 52,
      "hit": false,
      "t": 18739.228510416666,
      "d": 536.0992630208348,
      "v": 90
    },
    {
      "midi": 80,
      "hit": false,
      "t": 19485.457132812502,
      "d": 158.9440026041666,
      "v": 67
    },
    {
      "midi": 68,
      "hit": false,
      "t": 19496.232997395837,
      "d": 118.53451041666631,
      "v": 72
    },
    {
      "midi": 65,
      "hit": false,
      "t": 19795.263239583335,
      "d": 61.961221354173176,
      "v": 54
    },
    {
      "midi": 73,
      "hit": false,
      "t": 19797.95720572917,
      "d": 64.6551875000041,
      "v": 45
    },
    {
      "midi": 61,
      "hit": false,
      "t": 19800.651171875004,
      "d": 86.20691666666971,
      "v": 48
    },
    {
      "midi": 79,
      "hit": false,
      "t": 19808.733070312504,
      "d": 88.90088281250428,
      "v": 44
    },
    {
      "midi": 67,
      "hit": false,
      "t": 19811.42703645834,
      "d": 53.87932291666948,
      "v": 48
    },
    {
      "midi": 76,
      "hit": false,
      "t": 19827.59083333334,
      "d": 43.103458333334856,
      "v": 32
    },
    {
      "midi": 55,
      "hit": false,
      "t": 19838.366697916674,
      "d": 32.32759375000023,
      "v": 19
    },
    {
      "midi": 77,
      "hit": false,
      "t": 20164.336601562507,
      "d": 245.15091927083267,
      "v": 49
    },
    {
      "midi": 65,
      "hit": false,
      "t": 20180.500398437507,
      "d": 274.78454687499834,
      "v": 50
    },
    {
      "midi": 61,
      "hit": false,
      "t": 20183.19436458334,
      "d": 342.13370052082973,
      "v": 43
    },
    {
      "midi": 55,
      "hit": false,
      "t": 20196.664195312507,
      "d": 393.31905729166465,
      "v": 42
    },
    {
      "midi": 72,
      "hit": false,
      "t": 20199.35816145834,
      "d": 226.293156249998,
      "v": 36
    },
    {
      "midi": 67,
      "hit": false,
      "t": 20199.35816145834,
      "d": 277.47851302082927,
      "v": 20
    },
    {
      "midi": 73,
      "hit": false,
      "t": 20813.58244270834,
      "d": 325.96990364584053,
      "v": 43
    },
    {
      "midi": 61,
      "hit": false,
      "t": 20816.276408854173,
      "d": 390.62509114583736,
      "v": 49
    },
    {
      "midi": 65,
      "hit": false,
      "t": 20818.970375000008,
      "d": 261.3147161458364,
      "v": 44
    },
    {
      "midi": 69,
      "hit": false,
      "t": 20827.052273437508,
      "d": 261.3147161458364,
      "v": 48
    },
    {
      "midi": 76,
      "hit": false,
      "t": 20829.746239583343,
      "d": 347.5216328125025,
      "v": 42
    },
    {
      "midi": 69,
      "hit": false,
      "t": 21196.12563541668,
      "d": 576.5087552083314,
      "v": 45
    },
    {
      "midi": 74,
      "hit": false,
      "t": 21201.513567708345,
      "d": 781.2501822916674,
      "v": 43
    },
    {
      "midi": 65,
      "hit": false,
      "t": 21209.595466145845,
      "d": 638.469976562501,
      "v": 27
    },
    {
      "midi": 60,
      "hit": false,
      "t": 21220.37133072918,
      "d": 1158.405442708332,
      "v": 49
    },
    {
      "midi": 69,
      "hit": false,
      "t": 22825.975153645846,
      "d": 549.569093750004,
      "v": 46
    },
    {
      "midi": 60,
      "hit": false,
      "t": 22828.66911979168,
      "d": 466.0561432291688,
      "v": 35
    },
    {
      "midi": 65,
      "hit": false,
      "t": 22839.444984375015,
      "d": 546.8751276041694,
      "v": 35
    },
    {
      "midi": 57,
      "hit": false,
      "t": 22855.608781250015,
      "d": 643.8579088541701,
      "v": 31
    },
    {
      "midi": 50,
      "hit": false,
      "t": 22855.608781250015,
      "d": 1023.7071354166692,
      "v": 33
    },
    {
      "midi": 65,
      "hit": false,
      "t": 23661.104658854187,
      "d": 115.84054427083174,
      "v": 65
    },
    {
      "midi": 69,
      "hit": false,
      "t": 23908.94954427085,
      "d": 121.22847656250087,
      "v": 62
    },
    {
      "midi": 60,
      "hit": false,
      "t": 23917.03144270835,
      "d": 59.26725520833497,
      "v": 58
    },
    {
      "midi": 65,
      "hit": false,
      "t": 23917.03144270835,
      "d": 83.51295052083515,
      "v": 53
    },
    {
      "midi": 53,
      "hit": false,
      "t": 23925.11334114585,
      "d": 331.3578359375024,
      "v": 53
    },
    {
      "midi": 69,
      "hit": false,
      "t": 24259.165143229187,
      "d": 296.3362760416676,
      "v": 71
    },
    {
      "midi": 72,
      "hit": false,
      "t": 24261.859109375022,
      "d": 293.642309895833,
      "v": 62
    },
    {
      "midi": 62,
      "hit": false,
      "t": 24264.553075520857,
      "d": 212.82332552083244,
      "v": 66
    },
    {
      "midi": 57,
      "hit": false,
      "t": 24269.941007812522,
      "d": 285.56041145833296,
      "v": 72
    },
    {
      "midi": 65,
      "hit": false,
      "t": 24275.328940104187,
      "d": 239.76298697916718,
      "v": 66
    },
    {
      "midi": 76,
      "hit": false,
      "t": 24940.738578125023,
      "d": 3138.470559895857,
      "v": 87
    },
    {
      "midi": 68,
      "hit": false,
      "t": 24943.432544270858,
      "d": 859.3752005208407,
      "v": 88
    },
    {
      "midi": 71,
      "hit": false,
      "t": 24943.432544270858,
      "d": 867.4570989583408,
      "v": 83
    },
    {
      "midi": 64,
      "hit": false,
      "t": 24946.126510416692,
      "d": 843.211403645837,
      "v": 92
    },
    {
      "midi": 60,
      "hit": false,
      "t": 24948.820476562527,
      "d": 843.211403645837,
      "v": 85
    },
    {
      "midi": 54,
      "hit": false,
      "t": 24956.902375000027,
      "d": 3407.8671744791827,
      "v": 85
    },
    {
      "midi": 74,
      "hit": false,
      "t": 24959.59634114586,
      "d": 37.715526041669364,
      "v": 64
    },
    {
      "midi": 74,
      "hit": false,
      "t": 25697.743065104198,
      "d": 2386.854005208348,
      "v": 1
    },
    {
      "midi": 68,
      "hit": false,
      "t": 26026.406934895866,
      "d": 199.3534947916669,
      "v": 37
    },
    {
      "midi": 71,
      "hit": false,
      "t": 26037.1827994792,
      "d": 204.74142708333238,
      "v": 39
    },
    {
      "midi": 64,
      "hit": false,
      "t": 26039.876765625035,
      "d": 132.00434114583186,
      "v": 42
    },
    {
      "midi": 60,
      "hit": false,
      "t": 26056.040562500035,
      "d": 220.9052239583325,
      "v": 36
    },
    {
      "midi": 64,
      "hit": false,
      "t": 26287.721651041702,
      "d": 142.78020572916648,
      "v": 33
    },
    {
      "midi": 68,
      "hit": false,
      "t": 26392.786330729203,
      "d": 94.28881510416613,
      "v": 35
    },
    {
      "midi": 64,
      "hit": false,
      "t": 26522.096705729204,
      "d": 142.78020572916648,
      "v": 32
    },
    {
      "midi": 68,
      "hit": false,
      "t": 26646.019148437535,
      "d": 96.9827812500007,
      "v": 39
    },
    {
      "midi": 60,
      "hit": false,
      "t": 26745.69589583337,
      "d": 78.12501822916965,
      "v": 17
    },
    {
      "midi": 64,
      "hit": false,
      "t": 26780.717455729206,
      "d": 118.53451041666995,
      "v": 40
    },
    {
      "midi": 68,
      "hit": false,
      "t": 26899.251966145875,
      "d": 94.28881510416613,
      "v": 37
    },
    {
      "midi": 64,
      "hit": false,
      "t": 27015.092510416707,
      "d": 134.69830729166642,
      "v": 40
    },
    {
      "midi": 68,
      "hit": false,
      "t": 27128.239088541708,
      "d": 94.28881510416613,
      "v": 38
    },
    {
      "midi": 64,
      "hit": false,
      "t": 27262.937395833374,
      "d": 118.53451041666631,
      "v": 40
    },
    {
      "midi": 68,
      "hit": false,
      "t": 27368.002075520875,
      "d": 86.20691666666607,
      "v": 36
    },
    {
      "midi": 64,
      "hit": false,
      "t": 27489.230552083376,
      "d": 126.61640885416637,
      "v": 42
    },
    {
      "midi": 68,
      "hit": false,
      "t": 27588.907299479208,
      "d": 78.12501822916965,
      "v": 32
    },
    {
      "midi": 64,
      "hit": false,
      "t": 27712.829742187543,
      "d": 272.0905807291674,
      "v": 24
    },
    {
      "midi": 68,
      "hit": false,
      "t": 27815.20045572921,
      "d": 86.20691666666607,
      "v": 25
    },
    {
      "midi": 68,
      "hit": false,
      "t": 28003.778085937545,
      "d": 347.52163281249886,
      "v": 30
    },
    {
      "midi": 74,
      "hit": false,
      "t": 28830.825692708375,
      "d": 113.14657812500081,
      "v": 54
    },
    {
      "midi": 65,
      "hit": false,
      "t": 29075.976611979208,
      "d": 673.4915364583358,
      "v": 42
    },
    {
      "midi": 58,
      "hit": false,
      "t": 29089.446442708373,
      "d": 633.0820442708355,
      "v": 33
    },
    {
      "midi": 70,
      "hit": false,
      "t": 29092.140408854208,
      "d": 1144.93561197917,
      "v": 46
    },
    {
      "midi": 62,
      "hit": false,
      "t": 29100.222307291708,
      "d": 544.1811614583348,
      "v": 27
    },
    {
      "midi": 55,
      "hit": false,
      "t": 29100.222307291708,
      "d": 1368.5348020833371,
      "v": 32
    },
    {
      "midi": 67,
      "hit": false,
      "t": 29102.916273437542,
      "d": 589.9785859375006,
      "v": 36
    },
    {
      "midi": 62,
      "hit": false,
      "t": 30110.45961197921,
      "d": 404.0949218749993,
      "v": 25
    },
    {
      "midi": 58,
      "hit": false,
      "t": 30115.847544270877,
      "d": 455.2802786458342,
      "v": 25
    },
    {
      "midi": 88,
      "hit": false,
      "t": 30870.15806510421,
      "d": 204.74142708333238,
      "v": 94
    },
    {
      "midi": 80,
      "hit": false,
      "t": 31190.740036458374,
      "d": 417.5647526041648,
      "v": 57
    },
    {
      "midi": 88,
      "hit": false,
      "t": 31193.43400260421,
      "d": 358.29749739582985,
      "v": 66
    },
    {
      "midi": 76,
      "hit": false,
      "t": 31196.127968750043,
      "d": 404.09492187499563,
      "v": 64
    },
    {
      "midi": 85,
      "hit": false,
      "t": 31201.51590104171,
      "d": 374.46129427082997,
      "v": 61
    },
    {
      "midi": 58,
      "hit": false,
      "t": 31201.51590104171,
      "d": 792.0260468749948,
      "v": 38
    },
    {
      "midi": 61,
      "hit": false,
      "t": 31209.59779947921,
      "d": 635.7760104166628,
      "v": 42
    },
    {
      "midi": 64,
      "hit": false,
      "t": 31220.37366406254,
      "d": 490.30183854166535,
      "v": 34
    },
    {
      "midi": 68,
      "hit": false,
      "t": 32163.261815104204,
      "d": 398.7069895833338,
      "v": 77
    },
    {
      "midi": 76,
      "hit": false,
      "t": 32165.95578125004,
      "d": 301.7242083333331,
      "v": 74
    },
    {
      "midi": 73,
      "hit": false,
      "t": 32165.95578125004,
      "d": 342.1337005208334,
      "v": 65
    },
    {
      "midi": 64,
      "hit": false,
      "t": 32168.649747395873,
      "d": 328.6638697916642,
      "v": 77
    },
    {
      "midi": 58,
      "hit": false,
      "t": 32176.731645833373,
      "d": 414.87078645833026,
      "v": 56
    },
    {
      "midi": 61,
      "hit": false,
      "t": 32184.813544270874,
      "d": 355.6035312499989,
      "v": 49
    },
    {
      "midi": 63,
      "hit": false,
      "t": 32707.442976562535,
      "d": 347.52163281250614,
      "v": 69
    },
    {
      "midi": 73,
      "hit": false,
      "t": 32710.13694270837,
      "d": 320.5819713541714,
      "v": 65
    },
    {
      "midi": 68,
      "hit": false,
      "t": 32712.830908854205,
      "d": 355.6035312500062,
      "v": 76
    },
    {
      "midi": 58,
      "hit": false,
      "t": 32720.912807291705,
      "d": 428.3406171875067,
      "v": 64
    },
    {
      "midi": 67,
      "hit": false,
      "t": 33176.19308593754,
      "d": 352.90956510416436,
      "v": 54
    },
    {
      "midi": 72,
      "hit": false,
      "t": 33178.88705208337,
      "d": 374.4612942708336,
      "v": 58
    },
    {
      "midi": 62,
      "hit": false,
      "t": 33181.581018229204,
      "d": 307.1121406250022,
      "v": 53
    },
    {
      "midi": 57,
      "hit": false,
      "t": 33197.744815104204,
      "d": 428.3406171875031,
      "v": 49
    },
    {
      "midi": 65,
      "hit": false,
      "t": 33736.53804427088,
      "d": 393.3190572916574,
      "v": 87
    },
    {
      "midi": 53,
      "hit": false,
      "t": 33739.23201041671,
      "d": 425.6466510416576,
      "v": 89
    },
    {
      "midi": 77,
      "hit": false,
      "t": 33741.92597656254,
      "d": 377.15526041666453,
      "v": 83
    },
    {
      "midi": 53,
      "hit": false,
      "t": 34229.53384895837,
      "d": 522.6294322916729,
      "v": 89
    },
    {
      "midi": 65,
      "hit": false,
      "t": 34243.003679687536,
      "d": 344.8276666666643,
      "v": 85
    },
    {
      "midi": 77,
      "hit": false,
      "t": 34243.003679687536,
      "d": 360.9914635416644,
      "v": 82
    },
    {
      "midi": 67,
      "hit": false,
      "t": 34741.3874166667,
      "d": 296.3362760416712,
      "v": 88
    },
    {
      "midi": 79,
      "hit": false,
      "t": 34741.3874166667,
      "d": 301.72420833334036,
      "v": 82
    },
    {
      "midi": 55,
      "hit": false,
      "t": 34746.77534895837,
      "d": 530.7113307291656,
      "v": 89
    },
    {
      "midi": 81,
      "hit": false,
      "t": 35264.016848958374,
      "d": 210.12935937499424,
      "v": 85
    },
    {
      "midi": 69,
      "hit": false,
      "t": 35266.710815104205,
      "d": 150.8621041666629,
      "v": 88
    },
    {
      "midi": 57,
      "hit": false,
      "t": 35277.486679687536,
      "d": 441.810447916665,
      "v": 73
    },
    {
      "midi": 84,
      "hit": false,
      "t": 35775.8704166667,
      "d": 339.43973437500244,
      "v": 87
    },
    {
      "midi": 72,
      "hit": false,
      "t": 35778.56438281253,
      "d": 331.3578359375024,
      "v": 88
    },
    {
      "midi": 60,
      "hit": false,
      "t": 35783.9523151042,
      "d": 501.0777031250036,
      "v": 83
    },
    {
      "midi": 74,
      "hit": false,
      "t": 36282.336052083374,
      "d": 132.00434114583186,
      "v": 77
    },
    {
      "midi": 86,
      "hit": false,
      "t": 36282.336052083374,
      "d": 180.4957317708322,
      "v": 76
    },
    {
      "midi": 62,
      "hit": false,
      "t": 36293.111916666705,
      "d": 514.5475338541655,
      "v": 71
    },
    {
      "midi": 89,
      "hit": false,
      "t": 36799.57755208337,
      "d": 204.74142708333966,
      "v": 77
    },
    {
      "midi": 77,
      "hit": false,
      "t": 36807.65945052087,
      "d": 142.78020572917012,
      "v": 62
    },
    {
      "midi": 65,
      "hit": false,
      "t": 36821.12928125004,
      "d": 45.79742447916942,
      "v": 36
    },
    {
      "midi": 91,
      "hit": false,
      "t": 37303.349221354205,
      "d": 525.3233984374965,
      "v": 58
    },
    {
      "midi": 79,
      "hit": false,
      "t": 37311.431119791705,
      "d": 528.0173645833274,
      "v": 51
    },
    {
      "midi": 53,
      "hit": false,
      "t": 37319.513018229205,
      "d": 1589.4400260416587,
      "v": 35
    },
    {
      "midi": 57,
      "hit": false,
      "t": 37332.982848958374,
      "d": 1578.6641614583205,
      "v": 30
    },
    {
      "midi": 50,
      "hit": false,
      "t": 37341.064747395874,
      "d": 1559.8063984374894,
      "v": 41
    },
    {
      "midi": 79,
      "hit": false,
      "t": 38882.01338281253,
      "d": 239.76298697916354,
      "v": 92
    },
    {
      "midi": 77,
      "hit": false,
      "t": 39143.328098958365,
      "d": 185.88366406250134,
      "v": 80
    },
    {
      "midi": 79,
      "hit": false,
      "t": 39469.2980026042,
      "d": 290.9483437500021,
      "v": 83
    },
    {
      "midi": 77,
      "hit": false,
      "t": 39762.94031250003,
      "d": 2435.345395833334,
      "v": 66
    },
    {
      "midi": 73,
      "hit": false,
      "t": 40043.112791666696,
      "d": 1247.3063255208326,
      "v": 59
    },
    {
      "midi": 72,
      "hit": false,
      "t": 41400.8717291667,
      "d": 816.2717421874986,
      "v": 29
    },
    {
      "midi": 69,
      "hit": false,
      "t": 41411.64759375003,
      "d": 643.8579088541665,
      "v": 50
    },
    {
      "midi": 60,
      "hit": false,
      "t": 41425.1174244792,
      "d": 1091.0562890625006,
      "v": 36
    },
    {
      "midi": 57,
      "hit": false,
      "t": 41427.81139062503,
      "d": 1163.793375000001,
      "v": 29
    },
    {
      "midi": 50,
      "hit": false,
      "t": 41441.2812213542,
      "d": 1198.8149348958323,
      "v": 36
    },
    {
      "midi": 77,
      "hit": false,
      "t": 43046.885044270864,
      "d": 148.16813802083198,
      "v": 81
    },
    {
      "midi": 65,
      "hit": false,
      "t": 43052.27297656253,
      "d": 110.45261197916261,
      "v": 82
    },
    {
      "midi": 72,
      "hit": false,
      "t": 43057.6609088542,
      "d": 153.55607031249383,
      "v": 71
    },
    {
      "midi": 75,
      "hit": false,
      "t": 43084.600570312534,
      "d": 35.02155989583116,
      "v": 29
    },
    {
      "midi": 79,
      "hit": false,
      "t": 43292.0359635417,
      "d": 123.9224427083318,
      "v": 87
    },
    {
      "midi": 77,
      "hit": false,
      "t": 43564.12654427086,
      "d": 105.06467968749348,
      "v": 78
    },
    {
      "midi": 65,
      "hit": false,
      "t": 43572.20844270836,
      "d": 53.879322916662204,
      "v": 70
    },
    {
      "midi": 72,
      "hit": false,
      "t": 43574.90240885419,
      "d": 70.04311979166232,
      "v": 65
    },
    {
      "midi": 59,
      "hit": false,
      "t": 43580.29034114586,
      "d": 61.96122135416226,
      "v": 56
    },
    {
      "midi": 50,
      "hit": false,
      "t": 43601.84207031252,
      "d": 43.10345833333122,
      "v": 37
    },
    {
      "midi": 76,
      "hit": false,
      "t": 43978.99733072919,
      "d": 1182.6511380208321,
      "v": 53
    },
    {
      "midi": 71,
      "hit": false,
      "t": 44000.54905989586,
      "d": 1179.957171874994,
      "v": 44
    },
    {
      "midi": 65,
      "hit": false,
      "t": 44008.63095833336,
      "d": 1109.9140520833316,
      "v": 25
    },
    {
      "midi": 59,
      "hit": false,
      "t": 44022.100789062526,
      "d": 827.0476067708296,
      "v": 30
    },
    {
      "midi": 50,
      "hit": false,
      "t": 44032.87665364586,
      "d": 773.1682838541674,
      "v": 36
    },
    {
      "midi": 57,
      "hit": false,
      "t": 44032.87665364586,
      "d": 824.3536406249987,
      "v": 28
    },
    {
      "midi": 74,
      "hit": false,
      "t": 45272.10108072918,
      "d": 148.16813802083198,
      "v": 65
    },
    {
      "midi": 62,
      "hit": false,
      "t": 45649.25634114585,
      "d": 2588.9014661458423,
      "v": 49
    },
    {
      "midi": 57,
      "hit": false,
      "t": 45649.25634114585,
      "d": 2599.6773307291733,
      "v": 48
    },
    {
      "midi": 58,
      "hit": false,
      "t": 45657.33823958335,
      "d": 2599.6773307291733,
      "v": 50
    },
    {
      "midi": 72,
      "hit": false,
      "t": 45673.50203645835,
      "d": 404.0949218750029,
      "v": 74
    },
    {
      "midi": 71,
      "hit": false,
      "t": 46039.88143229168,
      "d": 113.14657812500081,
      "v": 66
    },
    {
      "midi": 70,
      "hit": false,
      "t": 46126.08834895835,
      "d": 148.16813802083198,
      "v": 69
    },
    {
      "midi": 69,
      "hit": false,
      "t": 46258.09269010418,
      "d": 703.1251640624978,
      "v": 49
    },
    {
      "midi": 70,
      "hit": false,
      "t": 46942.36009114585,
      "d": 134.6983072916628,
      "v": 69
    },
    {
      "midi": 71,
      "hit": false,
      "t": 47093.22219531251,
      "d": 126.61640885417,
      "v": 66
    },
    {
      "midi": 72,
      "hit": false,
      "t": 47233.30843489585,
      "d": 88.90088281250064,
      "v": 30
    },
    {
      "midi": 73,
      "hit": false,
      "t": 47300.65758854168,
      "d": 172.41383333333943,
      "v": 78
    },
    {
      "midi": 74,
      "hit": false,
      "t": 47440.74382812502,
      "d": 528.0173645833347,
      "v": 82
    },
    {
      "midi": 73,
      "hit": false,
      "t": 48122.31726302086,
      "d": 80.81898437500058,
      "v": 57
    },
    {
      "midi": 72,
      "hit": false,
      "t": 48227.38194270836,
      "d": 115.84054427083174,
      "v": 52
    },
    {
      "midi": 71,
      "hit": false,
      "t": 48343.22248697919,
      "d": 99.67674739583163,
      "v": 48
    },
    {
      "midi": 70,
      "hit": false,
      "t": 48448.28716666669,
      "d": 94.28881510416977,
      "v": 55
    },
    {
      "midi": 69,
      "hit": false,
      "t": 48534.49408333336,
      "d": 1837.2849114583296,
      "v": 53
    },
    {
      "midi": 58,
      "hit": false,
      "t": 48887.403648437525,
      "d": 126.61640885417,
      "v": 37
    },
    {
      "midi": 62,
      "hit": false,
      "t": 48887.403648437525,
      "d": 142.78020572917012,
      "v": 36
    },
    {
      "midi": 54,
      "hit": false,
      "t": 48908.955377604194,
      "d": 107.75864583333168,
      "v": 36
    },
    {
      "midi": 54,
      "hit": false,
      "t": 49259.17097656253,
      "d": 301.7242083333331,
      "v": 45
    },
    {
      "midi": 62,
      "hit": false,
      "t": 49261.86494270836,
      "d": 253.23281770833273,
      "v": 32
    },
    {
      "midi": 58,
      "hit": false,
      "t": 49288.80460416669,
      "d": 255.92678385417094,
      "v": 31
    },
    {
      "midi": 62,
      "hit": false,
      "t": 49671.34779687502,
      "d": 751.6165546874981,
      "v": 31
    },
    {
      "midi": 58,
      "hit": false,
      "t": 49690.205559895854,
      "d": 781.2501822916674,
      "v": 25
    },
    {
      "midi": 53,
      "hit": false,
      "t": 49700.981424479185,
      "d": 711.2070625000051,
      "v": 34
    },
    {
      "midi": 81,
      "hit": false,
      "t": 50802.813578125024,
      "d": 196.6595286458396,
      "v": 91
    },
    {
      "midi": 69,
      "hit": false,
      "t": 50808.20151041669,
      "d": 150.86210416667018,
      "v": 94
    },
    {
      "midi": 58,
      "hit": false,
      "t": 50827.059273437524,
      "d": 261.31471614584007,
      "v": 77
    },
    {
      "midi": 62,
      "hit": false,
      "t": 50827.059273437524,
      "d": 264.008682291671,
      "v": 84
    },
    {
      "midi": 53,
      "hit": false,
      "t": 50832.44720572919,
      "d": 231.68108854167076,
      "v": 80
    },
    {
      "midi": 84,
      "hit": false,
      "t": 51317.3611119792,
      "d": 253.23281770833273,
      "v": 89
    },
    {
      "midi": 72,
      "hit": false,
      "t": 51325.4430104167,
      "d": 231.68108854166348,
      "v": 88
    },
    {
      "midi": 58,
      "hit": false,
      "t": 51328.13697656253,
      "d": 347.5216328125025,
      "v": 74
    },
    {
      "midi": 53,
      "hit": false,
      "t": 51333.5249088542,
      "d": 228.98712239583256,
      "v": 83
    },
    {
      "midi": 62,
      "hit": false,
      "t": 51333.5249088542,
      "d": 296.33627604166395,
      "v": 82
    },
    {
      "midi": 58,
      "hit": false,
      "t": 51842.68451041669,
      "d": 350.21559895832615,
      "v": 72
    },
    {
      "midi": 52,
      "hit": false,
      "t": 51848.07244270836,
      "d": 299.0302421874876,
      "v": 79
    },
    {
      "midi": 62,
      "hit": false,
      "t": 51848.07244270836,
      "d": 358.2974973958262,
      "v": 74
    },
    {
      "midi": 86,
      "hit": false,
      "t": 51850.76640885419,
      "d": 164.3319348958321,
      "v": 84
    },
    {
      "midi": 74,
      "hit": false,
      "t": 51853.460375000024,
      "d": 210.12935937499424,
      "v": 83
    },
    {
      "midi": 79,
      "hit": false,
      "t": 51858.84830729169,
      "d": 167.02590104166302,
      "v": 73
    },
    {
      "midi": 82,
      "hit": false,
      "t": 51861.542273437524,
      "d": 175.10779947916308,
      "v": 64
    },
    {
      "midi": 80,
      "hit": false,
      "t": 52637.40452343752,
      "d": 113.14657812500081,
      "v": 69
    },
    {
      "midi": 68,
      "hit": false,
      "t": 52642.79245572919,
      "d": 107.75864583333168,
      "v": 78
    },
    {
      "midi": 75,
      "hit": false,
      "t": 52658.95625260419,
      "d": 32.32759375000023,
      "v": 60
    },
    {
      "midi": 58,
      "hit": false,
      "t": 52658.95625260419,
      "d": 175.10779947916308,
      "v": 69
    },
    {
      "midi": 62,
      "hit": false,
      "t": 52664.34418489586,
      "d": 43.10345833333122,
      "v": 67
    },
    {
      "midi": 52,
      "hit": false,
      "t": 52680.50798177086,
      "d": 37.71552604166209,
      "v": 48
    },
    {
      "midi": 79,
      "hit": false,
      "t": 52922.964934895856,
      "d": 164.3319348958321,
      "v": 64
    },
    {
      "midi": 73,
      "hit": false,
      "t": 52925.65890104169,
      "d": 172.41383333333215,
      "v": 60
    },
    {
      "midi": 67,
      "hit": false,
      "t": 52928.35286718752,
      "d": 193.9655625000014,
      "v": 62
    },
    {
      "midi": 76,
      "hit": false,
      "t": 52939.12873177085,
      "d": 91.59484895833884,
      "v": 55
    },
    {
      "midi": 61,
      "hit": false,
      "t": 52941.82269791668,
      "d": 183.1896979166704,
      "v": 67
    },
    {
      "midi": 77,
      "hit": false,
      "t": 52955.29252864585,
      "d": 37.715526041669364,
      "v": 41
    },
    {
      "midi": 77,
      "hit": false,
      "t": 53265.09863541668,
      "d": 150.8621041666629,
      "v": 55
    },
    {
      "midi": 61,
      "hit": false,
      "t": 53273.18053385418,
      "d": 334.05180208332604,
      "v": 53
    },
    {
      "midi": 72,
      "hit": false,
      "t": 53283.95639843751,
      "d": 142.78020572916284,
      "v": 54
    },
    {
      "midi": 67,
      "hit": false,
      "t": 53286.65036458334,
      "d": 237.06902083333262,
      "v": 44
    },
    {
      "midi": 76,
      "hit": false,
      "t": 53677.27545572918,
      "d": 713.9010286458288,
      "v": 49
    },
    {
      "midi": 65,
      "hit": false,
      "t": 53688.05132031251,
      "d": 762.3924192708364,
      "v": 48
    },
    {
      "midi": 69,
      "hit": false,
      "t": 53698.82718489584,
      "d": 697.7372317708359,
      "v": 51
    },
    {
      "midi": 60,
      "hit": false,
      "t": 53717.68494791667,
      "d": 748.9225885416745,
      "v": 46
    },
    {
      "midi": 72,
      "hit": false,
      "t": 54838.37486458335,
      "d": 573.8147890625041,
      "v": 44
    },
    {
      "midi": 69,
      "hit": false,
      "t": 54843.76279687502,
      "d": 492.9958046874963,
      "v": 52
    },
    {
      "midi": 65,
      "hit": false,
      "t": 54846.45676302085,
      "d": 732.7587916666744,
      "v": 46
    },
    {
      "midi": 60,
      "hit": false,
      "t": 54857.23262760418,
      "d": 525.3233984375038,
      "v": 41
    },
    {
      "midi": 57,
      "hit": false,
      "t": 54873.39642447918,
      "d": 700.4311979166741,
      "v": 28
    },
    {
      "midi": 65,
      "hit": false,
      "t": 55891.715627604186,
      "d": 43.10345833333122,
      "v": 33
    },
    {
      "midi": 60,
      "hit": false,
      "t": 55902.49149218752,
      "d": 75.43105208333145,
      "v": 40
    },
    {
      "midi": 65,
      "hit": false,
      "t": 56743.008929687516,
      "d": 242.45695312500175,
      "v": 68
    },
    {
      "midi": 57,
      "hit": false,
      "t": 56751.090828125016,
      "d": 228.98712239583256,
      "v": 71
    },
    {
      "midi": 60,
      "hit": false,
      "t": 56751.090828125016,
      "d": 239.76298697917082,
      "v": 73
    },
    {
      "midi": 50,
      "hit": false,
      "t": 56753.78479427085,
      "d": 452.58631250001054,
      "v": 63
    },
    {
      "midi": 64,
      "hit": false,
      "t": 56802.27618489585,
      "d": 237.0690208333399,
      "v": 29
    },
    {
      "midi": 67,
      "hit": false,
      "t": 57182.12541145836,
      "d": 175.10779947916308,
      "v": 68
    },
    {
      "midi": 58,
      "hit": false,
      "t": 57192.90127604169,
      "d": 169.71986718750122,
      "v": 74
    },
    {
      "midi": 61,
      "hit": false,
      "t": 57192.90127604169,
      "d": 210.1293593750015,
      "v": 74
    },
    {
      "midi": 64,
      "hit": false,
      "t": 57214.45300520836,
      "d": 142.78020572916284,
      "v": 59
    },
    {
      "midi": 52,
      "hit": false,
      "t": 57219.84093750003,
      "d": 382.54319270834094,
      "v": 73
    },
    {
      "midi": 65,
      "hit": false,
      "t": 57230.61680208336,
      "d": 51.18535677083128,
      "v": 35
    },
    {
      "midi": 69,
      "hit": false,
      "t": 57559.28067187503,
      "d": 145.47417187500832,
      "v": 78
    },
    {
      "midi": 60,
      "hit": false,
      "t": 57564.6686041667,
      "d": 78.12501822916965,
      "v": 81
    },
    {
      "midi": 62,
      "hit": false,
      "t": 57570.05653645837,
      "d": 86.20691666666971,
      "v": 71
    },
    {
      "midi": 65,
      "hit": false,
      "t": 57572.7505026042,
      "d": 107.75864583333896,
      "v": 67
    },
    {
      "midi": 53,
      "hit": false,
      "t": 57594.30223177087,
      "d": 113.14657812500081,
      "v": 69
    },
    {
      "midi": 72,
      "hit": false,
      "t": 57936.4359322917,
      "d": 180.49573177083948,
      "v": 72
    },
    {
      "midi": 62,
      "hit": false,
      "t": 57941.82386458337,
      "d": 113.14657812500081,
      "v": 71
    },
    {
      "midi": 69,
      "hit": false,
      "t": 57941.82386458337,
      "d": 150.86210416667018,
      "v": 69
    },
    {
      "midi": 65,
      "hit": false,
      "t": 57947.21179687504,
      "d": 105.06467968750076,
      "v": 72
    },
    {
      "midi": 57,
      "hit": false,
      "t": 57960.68162760421,
      "d": 148.16813802083198,
      "v": 59
    },
    {
      "midi": 76,
      "hit": false,
      "t": 58375.55241406254,
      "d": 301.7242083333331,
      "v": 66
    },
    {
      "midi": 68,
      "hit": false,
      "t": 58389.02224479171,
      "d": 264.0086822916637,
      "v": 71
    },
    {
      "midi": 71,
      "hit": false,
      "t": 58405.18604166671,
      "d": 266.70264843749464,
      "v": 49
    },
    {
      "midi": 65,
      "hit": false,
      "t": 58407.88000781254,
      "d": 245.15091927083267,
      "v": 64
    },
    {
      "midi": 64,
      "hit": false,
      "t": 58407.88000781254,
      "d": 274.784546875002,
      "v": 64
    },
    {
      "midi": 74,
      "hit": false,
      "t": 58445.59553385421,
      "d": 196.65952864583232,
      "v": 24
    },
    {
      "midi": 76,
      "hit": false,
      "t": 58782.34130208338,
      "d": 247.8448854166636,
      "v": 61
    },
    {
      "midi": 68,
      "hit": false,
      "t": 58790.42320052088,
      "d": 218.2112578124943,
      "v": 54
    },
    {
      "midi": 65,
      "hit": false,
      "t": 58793.117166666714,
      "d": 207.4353932291633,
      "v": 53
    },
    {
      "midi": 71,
      "hit": false,
      "t": 58793.117166666714,
      "d": 228.98712239583256,
      "v": 52
    },
    {
      "midi": 64,
      "hit": false,
      "t": 58809.280963541714,
      "d": 212.82332552083244,
      "v": 49
    },
    {
      "midi": 74,
      "hit": false,
      "t": 58836.220625000045,
      "d": 202.04746093750146,
      "v": 22
    },
    {
      "midi": 76,
      "hit": false,
      "t": 59143.33276562505,
      "d": 102.37071354166255,
      "v": 57
    },
    {
      "midi": 68,
      "hit": false,
      "t": 59162.19052864588,
      "d": 142.78020572917012,
      "v": 50
    },
    {
      "midi": 65,
      "hit": false,
      "t": 59164.88449479171,
      "d": 123.92244270833908,
      "v": 61
    },
    {
      "midi": 64,
      "hit": false,
      "t": 59170.27242708338,
      "d": 207.4353932291706,
      "v": 35
    },
    {
      "midi": 71,
      "hit": false,
      "t": 59178.35432552088,
      "d": 105.06467968750076,
      "v": 49
    },
    {
      "midi": 75,
      "hit": false,
      "t": 59431.58714322922,
      "d": 142.78020572917012,
      "v": 59
    },
    {
      "midi": 63,
      "hit": false,
      "t": 59453.13887239589,
      "d": 43.10345833333122,
      "v": 38
    },
    {
      "midi": 68,
      "hit": false,
      "t": 59461.22077083339,
      "d": 102.37071354166983,
      "v": 33
    },
    {
      "midi": 65,
      "hit": false,
      "t": 59463.91473697922,
      "d": 94.28881510416977,
      "v": 48
    },
    {
      "midi": 71,
      "hit": false,
      "t": 59765.63894531255,
      "d": 934.8062526041685,
      "v": 40
    },
    {
      "midi": 64,
      "hit": false,
      "t": 59771.02687760422,
      "d": 1004.8493723958381,
      "v": 52
    },
    {
      "midi": 74,
      "hit": false,
      "t": 59771.02687760422,
      "d": 1223.0606302083397,
      "v": 51
    },
    {
      "midi": 68,
      "hit": false,
      "t": 59776.41480989589,
      "d": 985.9916093749998,
      "v": 50
    },
    {
      "midi": 54,
      "hit": false,
      "t": 59800.66050520839,
      "d": 1764.5478255208363,
      "v": 37
    },
    {
      "midi": 60,
      "hit": false,
      "t": 59822.21223437506,
      "d": 762.3924192708291,
      "v": 33
    },
    {
      "midi": 68,
      "hit": false,
      "t": 61026.41510156256,
      "d": 290.9483437499948,
      "v": 35
    },
    {
      "midi": 71,
      "hit": false,
      "t": 61042.57889843756,
      "d": 288.2543776041639,
      "v": 24
    },
    {
      "midi": 64,
      "hit": false,
      "t": 61045.27286458339,
      "d": 220.9052239583325,
      "v": 32
    },
    {
      "midi": 60,
      "hit": false,
      "t": 61045.27286458339,
      "d": 503.77166927083454,
      "v": 32
    },
    {
      "midi": 84,
      "hit": false,
      "t": 61910.03599739589,
      "d": 83.51295052083879,
      "v": 75
    },
    {
      "midi": 72,
      "hit": false,
      "t": 61923.50582812506,
      "d": 83.51295052083879,
      "v": 61
    },
    {
      "midi": 62,
      "hit": false,
      "t": 62122.85932291673,
      "d": 86.20691666666244,
      "v": 24
    },
    {
      "midi": 58,
      "hit": false,
      "t": 62122.85932291673,
      "d": 105.06467968750076,
      "v": 29
    },
    {
      "midi": 53,
      "hit": false,
      "t": 62128.2472552084,
      "d": 94.2888151041625,
      "v": 24
    },
    {
      "midi": 82,
      "hit": false,
      "t": 62130.94122135423,
      "d": 78.12501822916238,
      "v": 57
    },
    {
      "midi": 70,
      "hit": false,
      "t": 62133.63518750006,
      "d": 45.797424479162146,
      "v": 55
    },
    {
      "midi": 57,
      "hit": false,
      "t": 62136.32915364589,
      "d": 56.57328906250041,
      "v": 26
    },
    {
      "midi": 82,
      "hit": false,
      "t": 62470.38095572923,
      "d": 94.2888151041625,
      "v": 67
    },
    {
      "midi": 70,
      "hit": false,
      "t": 62481.156820312564,
      "d": 64.65518750000047,
      "v": 52
    },
    {
      "midi": 58,
      "hit": false,
      "t": 62481.156820312564,
      "d": 118.53451041666267,
      "v": 34
    },
    {
      "midi": 62,
      "hit": false,
      "t": 62491.932684895895,
      "d": 70.0431197916696,
      "v": 29
    },
    {
      "midi": 57,
      "hit": false,
      "t": 62497.320617187564,
      "d": 59.267255208331335,
      "v": 29
    },
    {
      "midi": 53,
      "hit": false,
      "t": 62502.70854947923,
      "d": 72.73708593749325,
      "v": 33
    },
    {
      "midi": 82,
      "hit": false,
      "t": 62718.2258411459,
      "d": 40.409492187493015,
      "v": 37
    },
    {
      "midi": 58,
      "hit": false,
      "t": 62720.91980729173,
      "d": 96.98278124999342,
      "v": 19
    },
    {
      "midi": 70,
      "hit": false,
      "t": 62723.61377343756,
      "d": 35.02155989583116,
      "v": 27
    },
    {
      "midi": 70,
      "hit": false,
      "t": 63025.337981770885,
      "d": 78.12501822916238,
      "v": 52
    },
    {
      "midi": 82,
      "hit": false,
      "t": 63025.337981770885,
      "d": 83.51295052083151,
      "v": 49
    },
    {
      "midi": 62,
      "hit": false,
      "t": 63028.031947916716,
      "d": 80.81898437500058,
      "v": 32
    },
    {
      "midi": 58,
      "hit": false,
      "t": 63033.419880208385,
      "d": 91.59484895833157,
      "v": 32
    },
    {
      "midi": 57,
      "hit": false,
      "t": 63044.195744791716,
      "d": 51.18535677083128,
      "v": 31
    },
    {
      "midi": 53,
      "hit": false,
      "t": 63046.88971093755,
      "d": 61.96122135416954,
      "v": 25
    },
    {
      "midi": 82,
      "hit": false,
      "t": 63254.32510416672,
      "d": 102.37071354165528,
      "v": 56
    },
    {
      "midi": 58,
      "hit": false,
      "t": 63257.01907031255,
      "d": 118.53451041666267,
      "v": 30
    },
    {
      "midi": 70,
      "hit": false,
      "t": 63259.71303645838,
      "d": 78.12501822916238,
      "v": 44
    },
    {
      "midi": 62,
      "hit": false,
      "t": 63262.40700260421,
      "d": 113.14657812500081,
      "v": 24
    },
    {
      "midi": 53,
      "hit": false,
      "t": 63270.48890104171,
      "d": 91.59484895833157,
      "v": 22
    },
    {
      "midi": 57,
      "hit": false,
      "t": 63283.95873177088,
      "d": 51.18535677083128,
      "v": 28
    },
    {
      "midi": 84,
      "hit": false,
      "t": 63526.41568489588,
      "d": 78.12501822916965,
      "v": 65
    },
    {
      "midi": 72,
      "hit": false,
      "t": 63542.57948177088,
      "d": 37.715526041669364,
      "v": 40
    },
    {
      "midi": 82,
      "hit": false,
      "t": 63741.93297656255,
      "d": 167.0259010416703,
      "v": 59
    },
    {
      "midi": 70,
      "hit": false,
      "t": 63747.32090885422,
      "d": 218.21125781250157,
      "v": 50
    },
    {
      "midi": 62,
      "hit": false,
      "t": 63755.40280729172,
      "d": 250.5388515625018,
      "v": 29
    },
    {
      "midi": 58,
      "hit": false,
      "t": 63763.48470572922,
      "d": 255.92678385417094,
      "v": 30
    },
    {
      "midi": 53,
      "hit": false,
      "t": 63774.26057031255,
      "d": 199.35349479167053,
      "v": 24
    },
    {
      "midi": 57,
      "hit": false,
      "t": 63782.34246875005,
      "d": 148.16813802083925,
      "v": 26
    },
    {
      "midi": 64,
      "hit": false,
      "t": 64501.63142968756,
      "d": 56.57328906250041,
      "v": 60
    },
    {
      "midi": 76,
      "hit": false,
      "t": 64507.019361979226,
      "d": 59.267255208331335,
      "v": 45
    },
    {
      "midi": 73,
      "hit": false,
      "t": 64507.019361979226,
      "d": 75.43105208333145,
      "v": 39
    },
    {
      "midi": 68,
      "hit": false,
      "t": 64517.79522656256,
      "d": 32.32759375000023,
      "v": 46
    },
    {
      "midi": 58,
      "hit": false,
      "t": 64523.183158854226,
      "d": 80.81898437500058,
      "v": 46
    },
    {
      "midi": 61,
      "hit": false,
      "t": 64525.87712500006,
      "d": 48.49139062500035,
      "v": 50
    },
    {
      "midi": 76,
      "hit": false,
      "t": 64884.17462239589,
      "d": 196.65952864582505,
      "v": 56
    },
    {
      "midi": 73,
      "hit": false,
      "t": 64886.86858854172,
      "d": 193.96556249999412,
      "v": 48
    },
    {
      "midi": 64,
      "hit": false,
      "t": 64889.56255468755,
      "d": 156.25003645833203,
      "v": 58
    },
    {
      "midi": 68,
      "hit": false,
      "t": 64897.64445312505,
      "d": 137.392273437501,
      "v": 53
    },
    {
      "midi": 61,
      "hit": false,
      "t": 64908.420317708384,
      "d": 156.25003645833203,
      "v": 51
    },
    {
      "midi": 58,
      "hit": false,
      "t": 64911.114283854215,
      "d": 183.1896979166704,
      "v": 44
    },
    {
      "midi": 76,
      "hit": false,
      "t": 65280.187645833386,
      "d": 633.0820442708355,
      "v": 56
    },
    {
      "midi": 73,
      "hit": false,
      "t": 65285.575578125055,
      "d": 608.8363489583353,
      "v": 56
    },
    {
      "midi": 64,
      "hit": false,
      "t": 65290.963510416725,
      "d": 498.3837369791727,
      "v": 53
    },
    {
      "midi": 61,
      "hit": false,
      "t": 65299.045408854225,
      "d": 646.5518749999974,
      "v": 48
    },
    {
      "midi": 68,
      "hit": false,
      "t": 65304.433341145894,
      "d": 506.46563541666546,
      "v": 56
    },
    {
      "midi": 58,
      "hit": false,
      "t": 65309.82127343756,
      "d": 765.08638541666,
      "v": 43
    },
    {
      "midi": 57,
      "hit": false,
      "t": 66252.70942447922,
      "d": 1382.004632812459,
      "v": 47
    },
    {
      "midi": 67,
      "hit": false,
      "t": 66258.09735677089,
      "d": 703.1251640624832,
      "v": 47
    },
    {
      "midi": 77,
      "hit": false,
      "t": 66258.09735677089,
      "d": 1352.3710052083043,
      "v": 51
    },
    {
      "midi": 62,
      "hit": false,
      "t": 66266.17925520838,
      "d": 676.1855026041594,
      "v": 38
    },
    {
      "midi": 72,
      "hit": false,
      "t": 66266.17925520838,
      "d": 730.0648255208216,
      "v": 48
    },
    {
      "midi": 72,
      "hit": false,
      "t": 67324.90795052086,
      "d": 239.76298697915627,
      "v": 44
    },
    {
      "midi": 67,
      "hit": false,
      "t": 67330.29588281253,
      "d": 193.9655625000014,
      "v": 35
    },
    {
      "midi": 62,
      "hit": false,
      "t": 67343.7657135417,
      "d": 334.05180208332604,
      "v": 29
    },
    {
      "midi": 82,
      "hit": false,
      "t": 68335.14525520836,
      "d": 498.38373697915813,
      "v": 83
    },
    {
      "midi": 65,
      "hit": false,
      "t": 68335.14525520836,
      "d": 654.6337734374829,
      "v": 83
    },
    {
      "midi": 61,
      "hit": false,
      "t": 68335.14525520836,
      "d": 813.5777760416531,
      "v": 73
    },
    {
      "midi": 58,
      "hit": false,
      "t": 68335.14525520836,
      "d": 875.5389973958227,
      "v": 71
    },
    {
      "midi": 85,
      "hit": false,
      "t": 68337.8392213542,
      "d": 503.77166927082,
      "v": 78
    },
    {
      "midi": 54,
      "hit": false,
      "t": 68340.53318750003,
      "d": 716.5949947916524,
      "v": 79
    },
    {
      "midi": 77,
      "hit": false,
      "t": 68343.22715364586,
      "d": 431.03458333332674,
      "v": 88
    },
    {
      "midi": 89,
      "hit": false,
      "t": 68343.22715364586,
      "d": 522.629432291651,
      "v": 89
    },
    {
      "midi": 88,
      "hit": false,
      "t": 69695.59815885419,
      "d": 142.78020572915557,
      "v": 78
    },
    {
      "midi": 81,
      "hit": false,
      "t": 69698.29212500002,
      "d": 86.20691666666244,
      "v": 78
    },
    {
      "midi": 93,
      "hit": false,
      "t": 69698.29212500002,
      "d": 156.25003645832476,
      "v": 82
    },
    {
      "midi": 64,
      "hit": false,
      "t": 69714.45592187502,
      "d": 180.49573177081766,
      "v": 65
    },
    {
      "midi": 60,
      "hit": false,
      "t": 69717.14988802085,
      "d": 191.27159635415592,
      "v": 70
    },
    {
      "midi": 54,
      "hit": false,
      "t": 69725.23178645835,
      "d": 164.3319348958321,
      "v": 64
    },
    {
      "midi": 97,
      "hit": false,
      "t": 70056.58962239584,
      "d": 167.02590104164847,
      "v": 73
    },
    {
      "midi": 85,
      "hit": false,
      "t": 70056.58962239584,
      "d": 175.10779947914125,
      "v": 74
    },
    {
      "midi": 92,
      "hit": false,
      "t": 70059.28358854167,
      "d": 123.92244270832452,
      "v": 71
    },
    {
      "midi": 64,
      "hit": false,
      "t": 70072.75341927084,
      "d": 86.20691666666244,
      "v": 52
    },
    {
      "midi": 60,
      "hit": false,
      "t": 70075.44738541667,
      "d": 91.59484895832429,
      "v": 62
    },
    {
      "midi": 54,
      "hit": false,
      "t": 70075.44738541667,
      "d": 175.10779947914125,
      "v": 60
    },
    {
      "midi": 84,
      "hit": false,
      "t": 70401.41728906248,
      "d": 436.4225156249886,
      "v": 68
    },
    {
      "midi": 92,
      "hit": false,
      "t": 70406.80522135414,
      "d": 420.2587187499885,
      "v": 45
    },
    {
      "midi": 63,
      "hit": false,
      "t": 70409.49918749997,
      "d": 781.2501822916674,
      "v": 64
    },
    {
      "midi": 96,
      "hit": false,
      "t": 70414.88711979163,
      "d": 339.43973437500244,
      "v": 48
    },
    {
      "midi": 53,
      "hit": false,
      "t": 70420.27505208329,
      "d": 1422.4141250000102,
      "v": 60
    },
    {
      "midi": 58,
      "hit": false,
      "t": 70431.05091666663,
      "d": 730.0648255208362,
      "v": 57
    },
    {
      "midi": 63,
      "hit": false,
      "t": 71419.73649218747,
      "d": 509.15960156251094,
      "v": 44
    },
    {
      "midi": 58,
      "hit": false,
      "t": 71430.5123567708,
      "d": 487.6078723958344,
      "v": 43
    },
    {
      "midi": 70,
      "hit": false,
      "t": 72112.08579166664,
      "d": 121.2284765624936,
      "v": 62
    },
    {
      "midi": 68,
      "hit": false,
      "t": 72739.7799036458,
      "d": 32.32759374997113,
      "v": 63
    },
    {
      "midi": 72,
      "hit": false,
      "t": 72745.16783593746,
      "d": 35.021559895802056,
      "v": 61
    },
    {
      "midi": 75,
      "hit": false,
      "t": 72747.8618020833,
      "d": 37.715526041632984,
      "v": 53
    },
    {
      "midi": 61,
      "hit": false,
      "t": 72755.94370052079,
      "d": 91.59484895830974,
      "v": 49
    },
    {
      "midi": 63,
      "hit": false,
      "t": 72761.33163281245,
      "d": 75.43105208330962,
      "v": 40
    },
    {
      "midi": 65,
      "hit": false,
      "t": 72769.41353124994,
      "d": 35.02155989581661,
      "v": 40
    },
    {
      "midi": 75,
      "hit": false,
      "t": 73081.91360416659,
      "d": 258.6207499999873,
      "v": 70
    },
    {
      "midi": 68,
      "hit": false,
      "t": 73087.30153645825,
      "d": 237.06902083332534,
      "v": 74
    },
    {
      "midi": 72,
      "hit": false,
      "t": 73092.68946874992,
      "d": 231.68108854166348,
      "v": 68
    },
    {
      "midi": 63,
      "hit": false,
      "t": 73103.46533333325,
      "d": 250.53885156249453,
      "v": 49
    },
    {
      "midi": 61,
      "hit": false,
      "t": 73108.85326562492,
      "d": 253.23281770832546,
      "v": 48
    },
    {
      "midi": 65,
      "hit": false,
      "t": 73116.93516406241,
      "d": 220.90522395833977,
      "v": 53
    },
    {
      "midi": 75,
      "hit": false,
      "t": 73459.06886458324,
      "d": 191.27159635415592,
      "v": 67
    },
    {
      "midi": 68,
      "hit": false,
      "t": 73459.06886458324,
      "d": 299.0302421874803,
      "v": 69
    },
    {
      "midi": 72,
      "hit": false,
      "t": 73464.4567968749,
      "d": 239.76298697915627,
      "v": 73
    },
    {
      "midi": 61,
      "hit": false,
      "t": 73472.5386953124,
      "d": 460.6682109374815,
      "v": 42
    },
    {
      "midi": 63,
      "hit": false,
      "t": 73475.23266145823,
      "d": 417.564752604143,
      "v": 43
    },
    {
      "midi": 65,
      "hit": false,
      "t": 73477.92662760406,
      "d": 374.46129427081905,
      "v": 58
    },
    {
      "midi": 73,
      "hit": false,
      "t": 73814.67239583321,
      "d": 161.63796875000116,
      "v": 71
    },
    {
      "midi": 68,
      "hit": false,
      "t": 73828.14222656238,
      "d": 91.59484895832429,
      "v": 42
    },
    {
      "midi": 72,
      "hit": false,
      "t": 74140.64229947905,
      "d": 115.84054427083174,
      "v": 62
    },
    {
      "midi": 70,
      "hit": false,
      "t": 74334.60786197905,
      "d": 142.78020572917012,
      "v": 52
    },
    {
      "midi": 65,
      "hit": false,
      "t": 74547.43118749988,
      "d": 126.61640885417,
      "v": 34
    },
    {
      "midi": 65,
      "hit": false,
      "t": 74857.23729427072,
      "d": 140.08623958332464,
      "v": 51
    },
    {
      "midi": 61,
      "hit": false,
      "t": 74870.70712499988,
      "d": 150.86210416664835,
      "v": 38
    },
    {
      "midi": 58,
      "hit": false,
      "t": 74886.87092187488,
      "d": 129.31037499998638,
      "v": 33
    },
    {
      "midi": 54,
      "hit": false,
      "t": 74908.42265104155,
      "d": 107.75864583332441,
      "v": 25
    },
    {
      "midi": 61,
      "hit": false,
      "t": 75075.4485520832,
      "d": 266.70264843749464,
      "v": 15
    },
    {
      "midi": 58,
      "hit": false,
      "t": 75078.14251822903,
      "d": 315.194039062495,
      "v": 25
    },
    {
      "midi": 63,
      "hit": false,
      "t": 75078.14251822903,
      "d": 422.95268489583395,
      "v": 50
    },
    {
      "midi": 54,
      "hit": false,
      "t": 75086.22441666652,
      "d": 293.642309895833,
      "v": 13
    },
    {
      "midi": 65,
      "hit": false,
      "t": 75584.60815364569,
      "d": 802.8019114583294,
      "v": 44
    },
    {
      "midi": 61,
      "hit": false,
      "t": 75584.60815364569,
      "d": 964.4398802083306,
      "v": 40
    },
    {
      "midi": 58,
      "hit": false,
      "t": 75589.99608593735,
      "d": 700.4311979166669,
      "v": 32
    },
    {
      "midi": 54,
      "hit": false,
      "t": 75600.77195052069,
      "d": 557.6509921874967,
      "v": 36
    },
    {
      "midi": 63,
      "hit": false,
      "t": 76417.04369270819,
      "d": 83.51295052083151,
      "v": 45
    },
    {
      "midi": 54,
      "hit": false,
      "t": 76422.43162499985,
      "d": 83.51295052083151,
      "v": 39
    },
    {
      "midi": 58,
      "hit": false,
      "t": 76433.20748958319,
      "d": 115.84054427083174,
      "v": 17
    },
    {
      "midi": 66,
      "hit": false,
      "t": 76635.25495052068,
      "d": 323.2759375000169,
      "v": 74
    },
    {
      "midi": 60,
      "hit": false,
      "t": 76646.03081510402,
      "d": 285.56041145834024,
      "v": 60
    },
    {
      "midi": 54,
      "hit": false,
      "t": 76656.80667968736,
      "d": 223.5991901041707,
      "v": 48
    },
    {
      "midi": 54,
      "hit": false,
      "t": 77007.0222786457,
      "d": 835.1295052083151,
      "v": 59
    },
    {
      "midi": 69,
      "hit": false,
      "t": 77009.71624479153,
      "d": 1010.2373046874854,
      "v": 82
    },
    {
      "midi": 65,
      "hit": false,
      "t": 77012.41021093736,
      "d": 843.2114036458224,
      "v": 57
    },
    {
      "midi": 60,
      "hit": false,
      "t": 77020.49210937486,
      "d": 853.9872682291607,
      "v": 60
    },
    {
      "midi": 68,
      "hit": false,
      "t": 77966.07422656236,
      "d": 282.86644531249476,
      "v": 65
    },
    {
      "midi": 65,
      "hit": false,
      "t": 77982.23802343736,
      "d": 164.3319348958321,
      "v": 42
    },
    {
      "midi": 60,
      "hit": false,
      "t": 77982.23802343736,
      "d": 188.577630208325,
      "v": 58
    },
    {
      "midi": 54,
      "hit": false,
      "t": 77987.62595572902,
      "d": 161.63796875000116,
      "v": 39
    },
    {
      "midi": 66,
      "hit": false,
      "t": 78318.98379166651,
      "d": 261.3147161458328,
      "v": 47
    },
    {
      "midi": 60,
      "hit": false,
      "t": 78332.45362239568,
      "d": 59.26725520833861,
      "v": 38
    },
    {
      "midi": 54,
      "hit": false,
      "t": 78332.45362239568,
      "d": 177.80176562500128,
      "v": 48
    },
    {
      "midi": 53,
      "hit": false,
      "t": 78661.11749218735,
      "d": 1457.4356848958414,
      "v": 40
    },
    {
      "midi": 63,
      "hit": false,
      "t": 78663.81145833318,
      "d": 800.1079453124985,
      "v": 35
    },
    {
      "midi": 65,
      "hit": false,
      "t": 78666.50542447901,
      "d": 786.6381145833293,
      "v": 48
    },
    {
      "midi": 58,
      "hit": false,
      "t": 78666.50542447901,
      "d": 813.5777760416677,
      "v": 42
    },
    {
      "midi": 72,
      "hit": false,
      "t": 78984.39342968733,
      "d": 1220.366664062516,
      "v": 52
    },
    {
      "midi": 65,
      "hit": false,
      "t": 79706.37635677068,
      "d": 449.89234635417233,
      "v": 47
    },
    {
      "midi": 58,
      "hit": false,
      "t": 79719.84618749985,
      "d": 439.11648177083407,
      "v": 33
    },
    {
      "midi": 63,
      "hit": false,
      "t": 79730.62205208318,
      "d": 417.5647526041721,
      "v": 25
    },
    {
      "midi": 56,
      "hit": false,
      "t": 80713.91969531236,
      "d": 296.33627604166395,
      "v": 49
    },
    {
      "midi": 78,
      "hit": false,
      "t": 80727.38952604153,
      "d": 366.37939583332627,
      "v": 65
    },
    {
      "midi": 66,
      "hit": false,
      "t": 80732.77745833319,
      "d": 358.2974973958335,
      "v": 60
    },
    {
      "midi": 62,
      "hit": false,
      "t": 80743.55332291653,
      "d": 299.0302421874949,
      "v": 29
    },
    {
      "midi": 79,
      "hit": false,
      "t": 81276.95861979152,
      "d": 460.6682109374815,
      "v": 74
    },
    {
      "midi": 67,
      "hit": false,
      "t": 81279.65258593735,
      "d": 444.5044140624814,
      "v": 73
    },
    {
      "midi": 62,
      "hit": false,
      "t": 81285.04051822901,
      "d": 463.36217708332697,
      "v": 62
    },
    {
      "midi": 56,
      "hit": false,
      "t": 81287.73448437484,
      "d": 571.1208229166659,
      "v": 68
    },
    {
      "midi": 66,
      "hit": false,
      "t": 81290.42845052067,
      "d": 425.6466510416649,
      "v": 64
    },
    {
      "midi": 82,
      "hit": false,
      "t": 82281.80799218734,
      "d": 352.90956510417163,
      "v": 76
    },
    {
      "midi": 70,
      "hit": false,
      "t": 82287.195924479,
      "d": 320.5819713541714,
      "v": 78
    },
    {
      "midi": 66,
      "hit": false,
      "t": 82306.05368749984,
      "d": 269.3966145833401,
      "v": 73
    },
    {
      "midi": 62,
      "hit": false,
      "t": 82308.74765364567,
      "d": 212.823325520847,
      "v": 64
    },
    {
      "midi": 56,
      "hit": false,
      "t": 82308.74765364567,
      "d": 325.9699036458478,
      "v": 70
    },
    {
      "midi": 60,
      "hit": false,
      "t": 82820.60122135401,
      "d": 293.6423098958039,
      "v": 58
    },
    {
      "midi": 65,
      "hit": false,
      "t": 82825.98915364567,
      "d": 293.6423098958039,
      "v": 66
    },
    {
      "midi": 61,
      "hit": false,
      "t": 82828.6831197915,
      "d": 293.6423098958039,
      "v": 57
    },
    {
      "midi": 83,
      "hit": false,
      "t": 82834.07105208316,
      "d": 266.70264843749464,
      "v": 81
    },
    {
      "midi": 71,
      "hit": false,
      "t": 82836.765018229,
      "d": 269.3966145833256,
      "v": 80
    },
    {
      "midi": 55,
      "hit": false,
      "t": 82839.45898437483,
      "d": 245.15091927083267,
      "v": 58
    },
    {
      "midi": 58,
      "hit": false,
      "t": 82850.23484895816,
      "d": 272.09058072914195,
      "v": 33
    },
    {
      "midi": 61,
      "hit": false,
      "t": 83362.08841666648,
      "d": 463.36217708332697,
      "v": 48
    },
    {
      "midi": 60,
      "hit": false,
      "t": 83362.08841666648,
      "d": 600.7544505208207,
      "v": 55
    },
    {
      "midi": 72,
      "hit": false,
      "t": 83364.78238281231,
      "d": 433.72854947915766,
      "v": 75
    },
    {
      "midi": 84,
      "hit": false,
      "t": 83364.78238281231,
      "d": 476.83200781249616,
      "v": 80
    },
    {
      "midi": 65,
      "hit": false,
      "t": 83372.8642812498,
      "d": 439.11648177083407,
      "v": 62
    },
    {
      "midi": 55,
      "hit": false,
      "t": 83389.0280781248,
      "d": 374.4612942708336,
      "v": 51
    },
    {
      "midi": 61,
      "hit": false,
      "t": 84315.75243229147,
      "d": 258.6207499999873,
      "v": 37
    },
    {
      "midi": 65,
      "hit": false,
      "t": 84323.83433072896,
      "d": 223.59919010415615,
      "v": 38
    },
    {
      "midi": 87,
      "hit": false,
      "t": 84323.83433072896,
      "d": 288.2543776041566,
      "v": 64
    },
    {
      "midi": 60,
      "hit": false,
      "t": 84326.52829687479,
      "d": 153.55607031249383,
      "v": 34
    },
    {
      "midi": 55,
      "hit": false,
      "t": 84334.61019531229,
      "d": 196.65952864583232,
      "v": 38
    },
    {
      "midi": 75,
      "hit": false,
      "t": 84337.30416145812,
      "d": 266.7026484375092,
      "v": 46
    },
    {
      "midi": 82,
      "hit": false,
      "t": 84350.77399218729,
      "d": 288.25437760417117,
      "v": 50
    },
    {
      "midi": 76,
      "hit": false,
      "t": 84849.15772916644,
      "d": 169.7198671874794,
      "v": 44
    },
    {
      "midi": 65,
      "hit": false,
      "t": 84849.15772916644,
      "d": 239.76298697912716,
      "v": 45
    },
    {
      "midi": 88,
      "hit": false,
      "t": 84854.5456614581,
      "d": 212.82332552080334,
      "v": 47
    },
    {
      "midi": 83,
      "hit": false,
      "t": 84862.6275598956,
      "d": 196.65952864581777,
      "v": 45
    },
    {
      "midi": 58,
      "hit": false,
      "t": 84865.32152604143,
      "d": 220.90522395831067,
      "v": 32
    },
    {
      "midi": 60,
      "hit": false,
      "t": 84873.40342447892,
      "d": 177.80176562500128,
      "v": 44
    },
    {
      "midi": 54,
      "hit": false,
      "t": 84873.40342447892,
      "d": 223.5991901041416,
      "v": 36
    },
    {
      "midi": 89,
      "hit": false,
      "t": 85352.92939843723,
      "d": 274.7845468749583,
      "v": 56
    },
    {
      "midi": 54,
      "hit": false,
      "t": 85361.01129687473,
      "d": 242.45695312497264,
      "v": 42
    },
    {
      "midi": 65,
      "hit": false,
      "t": 85366.39922916639,
      "d": 245.15091927080357,
      "v": 38
    },
    {
      "midi": 60,
      "hit": false,
      "t": 85369.09319531222,
      "d": 269.396614583311,
      "v": 47
    },
    {
      "midi": 84,
      "hit": false,
      "t": 85374.48112760388,
      "d": 242.45695312497264,
      "v": 50
    },
    {
      "midi": 77,
      "hit": false,
      "t": 85379.86905989554,
      "d": 199.35349479166325,
      "v": 33
    },
    {
      "midi": 92,
      "hit": false,
      "t": 86174.58907291637,
      "d": 145.4741718749865,
      "v": 56
    },
    {
      "midi": 80,
      "hit": false,
      "t": 86190.75286979137,
      "d": 113.14657812498626,
      "v": 38
    },
    {
      "midi": 65,
      "hit": false,
      "t": 86190.75286979137,
      "d": 115.84054427081719,
      "v": 48
    },
    {
      "midi": 54,
      "hit": false,
      "t": 86193.4468359372,
      "d": 164.33193489581754,
      "v": 45
    },
    {
      "midi": 60,
      "hit": false,
      "t": 86201.52873437469,
      "d": 129.31037500000093,
      "v": 47
    },
    {
      "midi": 87,
      "hit": false,
      "t": 86201.52873437469,
      "d": 134.6983072916628,
      "v": 51
    },
    {
      "midi": 94,
      "hit": false,
      "t": 86546.35640104135,
      "d": 134.69830729164823,
      "v": 62
    },
    {
      "midi": 60,
      "hit": false,
      "t": 86554.43829947885,
      "d": 113.14657812498626,
      "v": 49
    },
    {
      "midi": 87,
      "hit": false,
      "t": 86557.13226562468,
      "d": 78.1250182291551,
      "v": 54
    },
    {
      "midi": 54,
      "hit": false,
      "t": 86562.52019791634,
      "d": 191.27159635415592,
      "v": 45
    },
    {
      "midi": 82,
      "hit": false,
      "t": 86570.60209635383,
      "d": 96.9827812500007,
      "v": 31
    },
    {
      "midi": 63,
      "hit": false,
      "t": 86904.65389843716,
      "d": 754.3105208333145,
      "v": 48
    },
    {
      "midi": 96,
      "hit": false,
      "t": 86912.73579687465,
      "d": 412.17682031248114,
      "v": 68
    },
    {
      "midi": 84,
      "hit": false,
      "t": 86918.12372916631,
      "d": 492.9958046874963,
      "v": 56
    },
    {
      "midi": 92,
      "hit": false,
      "t": 86920.81769531214,
      "d": 479.5259739583271,
      "v": 36
    },
    {
      "midi": 58,
      "hit": false,
      "t": 86923.51166145797,
      "d": 789.3320807291602,
      "v": 51
    },
    {
      "midi": 89,
      "hit": false,
      "t": 86926.2056276038,
      "d": 431.03458333332674,
      "v": 58
    },
    {
      "midi": 53,
      "hit": false,
      "t": 86931.59355989547,
      "d": 829.7415729166678,
      "v": 40
    },
    {
      "midi": 82,
      "hit": false,
      "t": 88248.94300520797,
      "d": 153.55607031249383,
      "v": 60
    },
    {
      "midi": 70,
      "hit": false,
      "t": 88259.71886979131,
      "d": 99.67674739581707,
      "v": 59
    },
    {
      "midi": 63,
      "hit": false,
      "t": 88275.88266666631,
      "d": 56.57328906247858,
      "v": 39
    },
    {
      "midi": 58,
      "hit": false,
      "t": 88283.9645651038,
      "d": 140.08623958332464,
      "v": 35
    },
    {
      "midi": 75,
      "hit": false,
      "t": 88292.0464635413,
      "d": 35.02155989583116,
      "v": 37
    },
    {
      "midi": 84,
      "hit": false,
      "t": 88615.3224010413,
      "d": 72.7370859375078,
      "v": 65
    },
    {
      "midi": 72,
      "hit": false,
      "t": 88628.79223177047,
      "d": 80.81898437500058,
      "v": 62
    },
    {
      "midi": 63,
      "hit": false,
      "t": 88639.5680963538,
      "d": 99.67674739583163,
      "v": 50
    },
    {
      "midi": 58,
      "hit": false,
      "t": 88642.26206249963,
      "d": 110.45261197916989,
      "v": 43
    },
    {
      "midi": 75,
      "hit": false,
      "t": 89008.64145833298,
      "d": 328.6638697916642,
      "v": 76
    },
    {
      "midi": 68,
      "hit": false,
      "t": 89019.41732291631,
      "d": 304.41817447915673,
      "v": 76
    },
    {
      "midi": 65,
      "hit": false,
      "t": 89019.41732291631,
      "d": 315.194039062495,
      "v": 80
    },
    {
      "midi": 72,
      "hit": false,
      "t": 89022.11128906214,
      "d": 323.2759374999878,
      "v": 77
    },
    {
      "midi": 63,
      "hit": false,
      "t": 89038.27508593714,
      "d": 304.41817447915673,
      "v": 84
    },
    {
      "midi": 75,
      "hit": false,
      "t": 89418.12431249963,
      "d": 272.0905807291274,
      "v": 51
    },
    {
      "midi": 63,
      "hit": false,
      "t": 89436.98207552046,
      "d": 350.21559895829705,
      "v": 57
    },
    {
      "midi": 65,
      "hit": false,
      "t": 89439.67604166629,
      "d": 228.987122395818,
      "v": 67
    },
    {
      "midi": 68,
      "hit": false,
      "t": 89439.67604166629,
      "d": 237.0690208333108,
      "v": 67
    },
    {
      "midi": 72,
      "hit": false,
      "t": 89442.37000781212,
      "d": 239.76298697914171,
      "v": 52
    },
    {
      "midi": 73,
      "hit": false,
      "t": 89787.19767447875,
      "d": 215.51729166664882,
      "v": 64
    },
    {
      "midi": 68,
      "hit": false,
      "t": 89797.97353906209,
      "d": 172.41383333332487,
      "v": 57
    },
    {
      "midi": 65,
      "hit": false,
      "t": 89797.97353906209,
      "d": 175.1077994791558,
      "v": 50
    },
    {
      "midi": 61,
      "hit": false,
      "t": 89800.66750520792,
      "d": 196.65952864581777,
      "v": 61
    },
    {
      "midi": 73,
      "hit": false,
      "t": 90099.6977473954,
      "d": 107.75864583332441,
      "v": 55
    },
    {
      "midi": 68,
      "hit": false,
      "t": 90110.47361197874,
      "d": 88.90088281249336,
      "v": 64
    },
    {
      "midi": 65,
      "hit": false,
      "t": 90121.24947656208,
      "d": 91.59484895830974,
      "v": 64
    },
    {
      "midi": 61,
      "hit": false,
      "t": 90126.63740885374,
      "d": 239.76298697914171,
      "v": 51
    },
    {
      "midi": 72,
      "hit": false,
      "t": 90431.05558333288,
      "d": 212.8233255208179,
      "v": 61
    },
    {
      "midi": 65,
      "hit": false,
      "t": 90441.83144791622,
      "d": 180.49573177081766,
      "v": 68
    },
    {
      "midi": 61,
      "hit": false,
      "t": 90444.52541406205,
      "d": 202.04746093747963,
      "v": 51
    },
    {
      "midi": 68,
      "hit": false,
      "t": 90444.52541406205,
      "d": 207.43539322914148,
      "v": 53
    },
    {
      "midi": 60,
      "hit": false,
      "t": 90482.24094010371,
      "d": 228.987122395818,
      "v": 50
    },
    {
      "midi": 70,
      "hit": false,
      "t": 90770.49531770787,
      "d": 212.8233255208179,
      "v": 58
    },
    {
      "midi": 68,
      "hit": false,
      "t": 90775.88324999953,
      "d": 183.18969791666314,
      "v": 36
    },
    {
      "midi": 61,
      "hit": false,
      "t": 90778.57721614536,
      "d": 91.59484895833884,
      "v": 34
    },
    {
      "midi": 65,
      "hit": false,
      "t": 90794.74101302036,
      "d": 61.96122135416954,
      "v": 47
    },
    {
      "midi": 58,
      "hit": false,
      "t": 90805.5168776037,
      "d": 70.04311979166232,
      "v": 33
    },
    {
      "midi": 65,
      "hit": false,
      "t": 91107.24108593703,
      "d": 99.67674739581707,
      "v": 61
    },
    {
      "midi": 61,
      "hit": false,
      "t": 91120.7109166662,
      "d": 105.06467968747893,
      "v": 46
    },
    {
      "midi": 58,
      "hit": false,
      "t": 91131.48678124952,
      "d": 121.2284765624936,
      "v": 52
    },
    {
      "midi": 64,
      "hit": false,
      "t": 91136.87471354118,
      "d": 35.02155989583116,
      "v": 25
    },
    {
      "midi": 65,
      "hit": false,
      "t": 91470.92651562451,
      "d": 554.9570260416658,
      "v": 56
    },
    {
      "midi": 61,
      "hit": false,
      "t": 91481.70238020785,
      "d": 517.2415000000037,
      "v": 34
    },
    {
      "midi": 54,
      "hit": false,
      "t": 91492.47824479119,
      "d": 528.0173645833274,
      "v": 32
    },
    {
      "midi": 58,
      "hit": false,
      "t": 91503.25410937452,
      "d": 522.629432291651,
      "v": 31
    },
    {
      "midi": 54,
      "hit": false,
      "t": 92176.74564583284,
      "d": 608.8363489583135,
      "v": 37
    },
    {
      "midi": 63,
      "hit": false,
      "t": 92179.43961197867,
      "d": 75.43105208333873,
      "v": 53
    },
    {
      "midi": 61,
      "hit": false,
      "t": 92179.43961197867,
      "d": 110.45261197916989,
      "v": 29
    },
    {
      "midi": 58,
      "hit": false,
      "t": 92211.76720572867,
      "d": 800.1079453124694,
      "v": 21
    },
    {
      "midi": 65,
      "hit": false,
      "t": 92265.64652864535,
      "d": 110.45261197915534,
      "v": 62
    },
    {
      "midi": 63,
      "hit": false,
      "t": 92362.62930989533,
      "d": 70.04311979166232,
      "v": 39
    },
    {
      "midi": 62,
      "hit": false,
      "t": 92532.34917708283,
      "d": 94.28881510416977,
      "v": 48
    },
    {
      "midi": 61,
      "hit": false,
      "t": 92629.33195833283,
      "d": 215.51729166664882,
      "v": 10
    },
    {
      "midi": 63,
      "hit": false,
      "t": 92704.76301041615,
      "d": 94.28881510416977,
      "v": 50
    },
    {
      "midi": 65,
      "hit": false,
      "t": 92836.76735156198,
      "d": 110.45261197915534,
      "v": 53
    },
    {
      "midi": 63,
      "hit": false,
      "t": 92947.21996354114,
      "d": 121.2284765624936,
      "v": 36
    },
    {
      "midi": 62,
      "hit": false,
      "t": 93084.61223697863,
      "d": 78.12501822916965,
      "v": 31
    },
    {
      "midi": 60,
      "hit": false,
      "t": 93216.61657812446,
      "d": 552.2630598958494,
      "v": 30
    },
    {
      "midi": 54,
      "hit": false,
      "t": 93227.3924427078,
      "d": 563.0389244791731,
      "v": 34
    },
    {
      "midi": 65,
      "hit": false,
      "t": 93270.49590104114,
      "d": 595.3665182291734,
      "v": 30
    },
    {
      "midi": 68,
      "hit": false,
      "t": 93968.23313281198,
      "d": 253.23281770832546,
      "v": 67
    },
    {
      "midi": 64,
      "hit": false,
      "t": 93981.70296354115,
      "d": 239.76298697915627,
      "v": 36
    },
    {
      "midi": 60,
      "hit": false,
      "t": 93984.39692968698,
      "d": 266.70264843749464,
      "v": 38
    },
    {
      "midi": 54,
      "hit": false,
      "t": 93997.86676041615,
      "d": 748.9225885416381,
      "v": 26
    },
    {
      "midi": 65,
      "hit": false,
      "t": 94372.32805468696,
      "d": 169.71986718749395,
      "v": 48
    },
    {
      "midi": 60,
      "hit": false,
      "t": 94388.49185156196,
      "d": 218.2112578124943,
      "v": 22
    },
    {
      "midi": 63,
      "hit": false,
      "t": 94695.60399218695,
      "d": 193.9655625000014,
      "v": 57
    },
    {
      "midi": 60,
      "hit": false,
      "t": 95183.21186458279,
      "d": 210.12935937498696,
      "v": 57
    },
    {
      "midi": 55,
      "hit": false,
      "t": 95204.76359374945,
      "d": 544.1811614583276,
      "v": 34
    },
    {
      "midi": 58,
      "hit": false,
      "t": 95210.15152604111,
      "d": 414.8707864583266,
      "v": 37
    },
    {
      "midi": 72,
      "hit": false,
      "t": 95557.6731588536,
      "d": 239.76298697917082,
      "v": 69
    },
    {
      "midi": 60,
      "hit": false,
      "t": 95915.97065624944,
      "d": 35.02155989583116,
      "v": 65
    },
    {
      "midi": 55,
      "hit": false,
      "t": 97551.20810677027,
      "d": 1231.1425286458689,
      "v": 71
    },
    {
      "midi": 62,
      "hit": false,
      "t": 97618.5572604161,
      "d": 1099.138187500037,
      "v": 31
    },
    {
      "midi": 70,
      "hit": false,
      "t": 97629.33312499944,
      "d": 455.28027864584874,
      "v": 62
    },
    {
      "midi": 77,
      "hit": false,
      "t": 97661.66071874944,
      "d": 1153.0175104166992,
      "v": 68
    },
    {
      "midi": 69,
      "hit": false,
      "t": 97685.90641406194,
      "d": 843.2114036458515,
      "v": 62
    },
    {
      "midi": 84,
      "hit": false,
      "t": 97696.68227864528,
      "d": 280.17247916666383,
      "v": 71
    },
    {
      "midi": 84,
      "hit": false,
      "t": 98100.77720052029,
      "d": 245.15091927083267,
      "v": 80
    },
    {
      "midi": 84,
      "hit": false,
      "t": 98502.17815624946,
      "d": 167.02590104167757,
      "v": 78
    },
    {
      "midi": 84,
      "hit": false,
      "t": 98830.84202604114,
      "d": 185.88366406249406,
      "v": 66
    },
    {
      "midi": 84,
      "hit": false,
      "t": 99269.95850781197,
      "d": 382.54319270831184,
      "v": 65
    },
    {
      "midi": 76,
      "hit": false,
      "t": 99272.6524739578,
      "d": 528.0173645833129,
      "v": 50
    },
    {
      "midi": 80,
      "hit": false,
      "t": 99286.12230468697,
      "d": 546.8751276041439,
      "v": 52
    },
    {
      "midi": 58,
      "hit": false,
      "t": 99294.20420312446,
      "d": 649.245841145821,
      "v": 44
    },
    {
      "midi": 64,
      "hit": false,
      "t": 99296.8981692703,
      "d": 536.0992630208202,
      "v": 32
    },
    {
      "midi": 77,
      "hit": false,
      "t": 101376.64003385362,
      "d": 336.74576822915697,
      "v": 80
    },
    {
      "midi": 65,
      "hit": false,
      "t": 101379.33399999945,
      "d": 336.74576822915697,
      "v": 85
    },
    {
      "midi": 53,
      "hit": false,
      "t": 101400.88572916611,
      "d": 495.6897708333272,
      "v": 77
    },
    {
      "midi": 67,
      "hit": false,
      "t": 101891.18756770778,
      "d": 207.43539322915603,
      "v": 89
    },
    {
      "midi": 79,
      "hit": false,
      "t": 101891.18756770778,
      "d": 234.3750546874944,
      "v": 83
    },
    {
      "midi": 55,
      "hit": false,
      "t": 101899.26946614527,
      "d": 441.810447916665,
      "v": 83
    },
    {
      "midi": 69,
      "hit": false,
      "t": 102351.85577864527,
      "d": 72.73708593749325,
      "v": 79
    },
    {
      "midi": 81,
      "hit": false,
      "t": 102354.5497447911,
      "d": 121.2284765624936,
      "v": 75
    },
    {
      "midi": 57,
      "hit": false,
      "t": 102357.24371093693,
      "d": 237.06902083332534,
      "v": 69
    },
    {
      "midi": 72,
      "hit": false,
      "t": 102729.01103906192,
      "d": 105.06467968749348,
      "v": 80
    },
    {
      "midi": 84,
      "hit": false,
      "t": 102731.70500520775,
      "d": 142.78020572915557,
      "v": 81
    },
    {
      "midi": 62,
      "hit": false,
      "t": 102745.17483593692,
      "d": 35.02155989583116,
      "v": 44
    },
    {
      "midi": 60,
      "hit": false,
      "t": 102747.86880208275,
      "d": 40.409492187493015,
      "v": 49
    },
    {
      "midi": 74,
      "hit": false,
      "t": 103068.45077343691,
      "d": 70.04311979166232,
      "v": 75
    },
    {
      "midi": 86,
      "hit": false,
      "t": 103071.14473958274,
      "d": 86.20691666666244,
      "v": 74
    },
    {
      "midi": 77,
      "hit": false,
      "t": 103286.6620312494,
      "d": 70.04311979166232,
      "v": 73
    },
    {
      "midi": 89,
      "hit": false,
      "t": 103289.35599739524,
      "d": 105.06467968749348,
      "v": 74
    },
    {
      "midi": 91,
      "hit": false,
      "t": 103572.22244270773,
      "d": 288.2543776041566,
      "v": 83
    },
    {
      "midi": 77,
      "hit": false,
      "t": 103577.61037499939,
      "d": 293.642309895833,
      "v": 73
    },
    {
      "midi": 62,
      "hit": false,
      "t": 103580.30434114522,
      "d": 662.7156718749902,
      "v": 41
    },
    {
      "midi": 65,
      "hit": false,
      "t": 103582.99830729105,
      "d": 641.1639427083282,
      "v": 54
    },
    {
      "midi": 57,
      "hit": false,
      "t": 103588.38623958272,
      "d": 646.5518750000047,
      "v": 45
    },
    {
      "midi": 79,
      "hit": false,
      "t": 103973.62339843689,
      "d": 210.1293593750015,
      "v": 66
    },
    {
      "midi": 91,
      "hit": false,
      "t": 103979.01133072855,
      "d": 204.74142708333966,
      "v": 53
    },
    {
      "midi": 91,
      "hit": false,
      "t": 104372.33038802021,
      "d": 156.2500364583102,
      "v": 56
    },
    {
      "midi": 62,
      "hit": false,
      "t": 104375.02435416605,
      "d": 183.18969791663403,
      "v": 37
    },
    {
      "midi": 57,
      "hit": false,
      "t": 104383.10625260354,
      "d": 167.02590104164847,
      "v": 42
    },
    {
      "midi": 65,
      "hit": false,
      "t": 104385.80021874937,
      "d": 156.25003645832476,
      "v": 45
    },
    {
      "midi": 79,
      "hit": false,
      "t": 104391.18815104103,
      "d": 107.75864583332441,
      "v": 42
    },
    {
      "midi": 86,
      "hit": false,
      "t": 104410.04591406186,
      "d": 53.879322916662204,
      "v": 34
    },
    {
      "midi": 91,
      "hit": false,
      "t": 104722.54598697851,
      "d": 126.6164088541409,
      "v": 44
    },
    {
      "midi": 57,
      "hit": false,
      "t": 104730.627885416,
      "d": 145.47417187497194,
      "v": 38
    },
    {
      "midi": 79,
      "hit": false,
      "t": 104733.32185156184,
      "d": 118.53451041664812,
      "v": 44
    },
    {
      "midi": 65,
      "hit": false,
      "t": 104738.7097838535,
      "d": 110.45261197915534,
      "v": 44
    },
    {
      "midi": 62,
      "hit": false,
      "t": 104741.40374999933,
      "d": 140.0862395833101,
      "v": 36
    },
    {
      "midi": 86,
      "hit": false,
      "t": 104749.48564843682,
      "d": 75.43105208333873,
      "v": 46
    },
    {
      "midi": 91,
      "hit": false,
      "t": 105075.45555208264,
      "d": 86.20691666664788,
      "v": 58
    },
    {
      "midi": 62,
      "hit": false,
      "t": 105078.14951822847,
      "d": 94.28881510415522,
      "v": 46
    },
    {
      "midi": 79,
      "hit": false,
      "t": 105078.14951822847,
      "d": 94.28881510415522,
      "v": 57
    },
    {
      "midi": 57,
      "hit": false,
      "t": 105078.14951822847,
      "d": 113.14657812498626,
      "v": 52
    },
    {
      "midi": 65,
      "hit": false,
      "t": 105083.53745052013,
      "d": 53.879322916662204,
      "v": 46
    },
    {
      "midi": 86,
      "hit": false,
      "t": 105097.0072812493,
      "d": 40.409492187493015,
      "v": 47
    },
    {
      "midi": 91,
      "hit": false,
      "t": 105328.68836979095,
      "d": 118.53451041664812,
      "v": 65
    },
    {
      "midi": 79,
      "hit": false,
      "t": 105334.07630208261,
      "d": 80.81898437498603,
      "v": 46
    },
    {
      "midi": 65,
      "hit": false,
      "t": 105342.1582005201,
      "d": 99.67674739583163,
      "v": 33
    },
    {
      "midi": 57,
      "hit": false,
      "t": 105344.85216666594,
      "d": 99.67674739583163,
      "v": 18
    },
    {
      "midi": 62,
      "hit": false,
      "t": 105363.70992968677,
      "d": 67.3491536458314,
      "v": 24
    },
    {
      "midi": 86,
      "hit": false,
      "t": 105377.17976041594,
      "d": 35.02155989583116,
      "v": 20
    },
    {
      "midi": 89,
      "hit": false,
      "t": 105522.65393229094,
      "d": 56.57328906249313,
      "v": 54
    },
    {
      "midi": 62,
      "hit": false,
      "t": 105708.53759635343,
      "d": 533.4052968749893,
      "v": 48
    },
    {
      "midi": 67,
      "hit": false,
      "t": 105708.53759635343,
      "d": 584.5906536458206,
      "v": 53
    },
    {
      "midi": 56,
      "hit": false,
      "t": 105711.23156249926,
      "d": 584.5906536458206,
      "v": 56
    },
    {
      "midi": 79,
      "hit": false,
      "t": 105713.9255286451,
      "d": 541.4871953124966,
      "v": 61
    },
    {
      "midi": 88,
      "hit": false,
      "t": 105716.61949479092,
      "d": 681.5734348958213,
      "v": 64
    },
    {
      "midi": 91,
      "hit": false,
      "t": 105724.70139322842,
      "d": 727.3708593749907,
      "v": 53
    },
    {
      "midi": 79,
      "hit": false,
      "t": 106570.60676302007,
      "d": 738.1467239583435,
      "v": 49
    },
    {
      "midi": 67,
      "hit": false,
      "t": 106581.38262760341,
      "d": 447.1983802083414,
      "v": 36
    },
    {
      "midi": 62,
      "hit": false,
      "t": 106584.07659374924,
      "d": 385.23715885417187,
      "v": 46
    },
    {
      "midi": 56,
      "hit": false,
      "t": 106584.07659374924,
      "d": 519.9354661458492,
      "v": 37
    },
    {
      "midi": 84,
      "hit": false,
      "t": 106584.07659374924,
      "d": 657.3277395833429,
      "v": 55
    },
    {
      "midi": 91,
      "hit": false,
      "t": 107667.05098437425,
      "d": 417.56475260415755,
      "v": 57
    },
    {
      "midi": 84,
      "hit": false,
      "t": 107675.13288281174,
      "d": 436.42251562500314,
      "v": 60
    },
    {
      "midi": 79,
      "hit": false,
      "t": 107677.82684895757,
      "d": 511.85356770834187,
      "v": 49
    },
    {
      "midi": 61,
      "hit": false,
      "t": 107685.90874739506,
      "d": 792.0260468750203,
      "v": 46
    },
    {
      "midi": 60,
      "hit": false,
      "t": 107696.6846119784,
      "d": 703.1251640625123,
      "v": 43
    },
    {
      "midi": 55,
      "hit": false,
      "t": 107696.6846119784,
      "d": 727.3708593750198,
      "v": 50
    },
    {
      "midi": 65,
      "hit": false,
      "t": 107707.46047656173,
      "d": 705.8191302083578,
      "v": 42
    },
    {
      "midi": 58,
      "hit": false,
      "t": 107720.9303072909,
      "d": 721.9829270833579,
      "v": 30
    },
    {
      "midi": 61,
      "hit": false,
      "t": 108685.37018749925,
      "d": 226.29315625000163,
      "v": 48
    },
    {
      "midi": 65,
      "hit": false,
      "t": 108701.53398437425,
      "d": 177.80176562500128,
      "v": 44
    },
    {
      "midi": 60,
      "hit": false,
      "t": 108706.92191666592,
      "d": 175.10779947917035,
      "v": 47
    },
    {
      "midi": 55,
      "hit": false,
      "t": 108717.69778124926,
      "d": 158.94400260417024,
      "v": 40
    },
    {
      "midi": 89,
      "hit": false,
      "t": 109057.13751562426,
      "d": 231.68108854164893,
      "v": 89
    },
    {
      "midi": 77,
      "hit": false,
      "t": 109062.52544791592,
      "d": 180.49573177081766,
      "v": 88
    },
    {
      "midi": 84,
      "hit": false,
      "t": 109065.21941406175,
      "d": 202.04746093749418,
      "v": 85
    },
    {
      "midi": 61,
      "hit": false,
      "t": 109065.21941406175,
      "d": 234.3750546874944,
      "v": 67
    },
    {
      "midi": 65,
      "hit": false,
      "t": 109070.60734635341,
      "d": 183.18969791666314,
      "v": 78
    },
    {
      "midi": 60,
      "hit": false,
      "t": 109070.60734635341,
      "d": 202.04746093749418,
      "v": 76
    },
    {
      "midi": 55,
      "hit": false,
      "t": 109075.99527864507,
      "d": 191.27159635417047,
      "v": 73
    },
    {
      "midi": 61,
      "hit": false,
      "t": 109391.18931770758,
      "d": 264.00868229164917,
      "v": 61
    },
    {
      "midi": 60,
      "hit": false,
      "t": 109410.04708072841,
      "d": 132.00434114583186,
      "v": 66
    },
    {
      "midi": 65,
      "hit": false,
      "t": 109410.04708072841,
      "d": 175.1077994791558,
      "v": 77
    },
    {
      "midi": 91,
      "hit": false,
      "t": 109415.43501302008,
      "d": 150.8621041666629,
      "v": 79
    },
    {
      "midi": 55,
      "hit": false,
      "t": 109415.43501302008,
      "d": 191.27159635415592,
      "v": 78
    },
    {
      "midi": 86,
      "hit": false,
      "t": 109418.12897916591,
      "d": 142.78020572917012,
      "v": 83
    },
    {
      "midi": 79,
      "hit": false,
      "t": 109418.12897916591,
      "d": 153.55607031249383,
      "v": 79
    },
    {
      "midi": 58,
      "hit": false,
      "t": 109450.45657291591,
      "d": 161.6379687499866,
      "v": 28
    },
    {
      "midi": 89,
      "hit": false,
      "t": 109757.5687135409,
      "d": 228.98712239580345,
      "v": 76
    },
    {
      "midi": 65,
      "hit": false,
      "t": 109760.26267968673,
      "d": 307.1121406249731,
      "v": 80
    },
    {
      "midi": 58,
      "hit": false,
      "t": 109760.26267968673,
      "d": 342.13370052080427,
      "v": 65
    },
    {
      "midi": 77,
      "hit": false,
      "t": 109765.65061197839,
      "d": 282.8664453124802,
      "v": 71
    },
    {
      "midi": 86,
      "hit": false,
      "t": 109768.34457812422,
      "d": 210.12935937498696,
      "v": 75
    },
    {
      "midi": 54,
      "hit": false,
      "t": 109768.34457812422,
      "d": 299.0302421874803,
      "v": 74
    },
    {
      "midi": 60,
      "hit": false,
      "t": 109768.34457812422,
      "d": 328.66386979164963,
      "v": 73
    },
    {
      "midi": 88,
      "hit": false,
      "t": 110167.05156770753,
      "d": 339.43973437497334,
      "v": 78
    },
    {
      "midi": 65,
      "hit": false,
      "t": 110175.13346614502,
      "d": 398.70698958331195,
      "v": 64
    },
    {
      "midi": 54,
      "hit": false,
      "t": 110177.82743229085,
      "d": 417.564752604143,
      "v": 69
    },
    {
      "midi": 76,
      "hit": false,
      "t": 110180.52139843669,
      "d": 398.70698958331195,
      "v": 70
    },
    {
      "midi": 60,
      "hit": false,
      "t": 110180.52139843669,
      "d": 404.0949218749738,
      "v": 74
    },
    {
      "midi": 58,
      "hit": false,
      "t": 110180.52139843669,
      "d": 431.0345833333122,
      "v": 52
    },
    {
      "midi": 85,
      "hit": false,
      "t": 110193.99122916585,
      "d": 32.32759374998568,
      "v": 49
    },
    {
      "midi": 86,
      "hit": false,
      "t": 110762.41808593666,
      "d": 204.74142708331055,
      "v": 63
    },
    {
      "midi": 74,
      "hit": false,
      "t": 110778.58188281165,
      "d": 255.92678385415638,
      "v": 51
    },
    {
      "midi": 65,
      "hit": false,
      "t": 110781.27584895748,
      "d": 266.70264843749464,
      "v": 59
    },
    {
      "midi": 54,
      "hit": false,
      "t": 110781.27584895748,
      "d": 307.11214062498766,
      "v": 53
    },
    {
      "midi": 81,
      "hit": false,
      "t": 110786.66378124914,
      "d": 183.18969791666314,
      "v": 61
    },
    {
      "midi": 60,
      "hit": false,
      "t": 110789.35774739497,
      "d": 274.784546875002,
      "v": 56
    },
    {
      "midi": 58,
      "hit": false,
      "t": 110794.74567968663,
      "d": 266.7026484375092,
      "v": 42
    },
    {
      "midi": 54,
      "hit": false,
      "t": 111546.36223437413,
      "d": 180.4957317708322,
      "v": 55
    },
    {
      "midi": 84,
      "hit": false,
      "t": 111562.52603124913,
      "d": 86.20691666666244,
      "v": 73
    },
    {
      "midi": 60,
      "hit": false,
      "t": 111565.21999739496,
      "d": 43.103458333338494,
      "v": 48
    },
    {
      "midi": 65,
      "hit": false,
      "t": 111565.21999739496,
      "d": 59.26725520833861,
      "v": 28
    },
    {
      "midi": 58,
      "hit": false,
      "t": 111567.91396354079,
      "d": 212.82332552083244,
      "v": 43
    },
    {
      "midi": 72,
      "hit": false,
      "t": 111581.38379426996,
      "d": 67.3491536458314,
      "v": 40
    },
    {
      "midi": 79,
      "hit": false,
      "t": 111594.85362499913,
      "d": 37.71552604166209,
      "v": 30
    },
    {
      "midi": 58,
      "hit": false,
      "t": 111853.47437499912,
      "d": 616.9182473958354,
      "v": 31
    },
    {
      "midi": 81,
      "hit": false,
      "t": 111864.25023958246,
      "d": 1026.4011015624856,
      "v": 60
    },
    {
      "midi": 53,
      "hit": false,
      "t": 111877.72007031163,
      "d": 1473.5994817708124,
      "v": 42
    },
    {
      "midi": 62,
      "hit": false,
      "t": 111880.41403645746,
      "d": 498.38373697915813,
      "v": 41
    },
    {
      "midi": 57,
      "hit": false,
      "t": 111883.10800260329,
      "d": 557.6509921874967,
      "v": 51
    },
    {
      "midi": 74,
      "hit": false,
      "t": 111883.10800260329,
      "d": 598.0604843750043,
      "v": 52
    },
    {
      "midi": 69,
      "hit": false,
      "t": 111883.10800260329,
      "d": 633.0820442708355,
      "v": 44
    },
    {
      "midi": 77,
      "hit": false,
      "t": 111888.49593489495,
      "d": 668.1036041666666,
      "v": 45
    },
    {
      "midi": 57,
      "hit": false,
      "t": 112815.22028906162,
      "d": 665.4096380208066,
      "v": 24
    },
    {
      "midi": 74,
      "hit": false,
      "t": 112825.99615364496,
      "d": 363.6854296874808,
      "v": 34
    },
    {
      "midi": 62,
      "hit": false,
      "t": 112834.07805208245,
      "d": 589.9785859374824,
      "v": 32
    },
    {
      "midi": 69,
      "hit": false,
      "t": 112836.77201822828,
      "d": 412.1768203124957,
      "v": 40
    },
    {
      "midi": 58,
      "hit": false,
      "t": 112836.77201822828,
      "d": 832.4355390624842,
      "v": 33
    },
    {
      "midi": 54,
      "hit": false,
      "t": 113825.4575937491,
      "d": 1654.0952135416446,
      "v": 43
    },
    {
      "midi": 58,
      "hit": false,
      "t": 113828.15155989493,
      "d": 2044.7203046874783,
      "v": 44
    },
    {
      "midi": 62,
      "hit": false,
      "t": 113838.92742447827,
      "d": 727.3708593749907,
      "v": 36
    },
    {
      "midi": 81,
      "hit": false,
      "t": 114434.29394270743,
      "d": 126.61640885417,
      "v": 72
    },
    {
      "midi": 74,
      "hit": false,
      "t": 114445.06980729077,
      "d": 134.6983072916628,
      "v": 73
    },
    {
      "midi": 69,
      "hit": false,
      "t": 114606.70777604077,
      "d": 40.409492187493015,
      "v": 47
    },
    {
      "midi": 81,
      "hit": false,
      "t": 114795.2854062491,
      "d": 137.39227343747916,
      "v": 68
    },
    {
      "midi": 74,
      "hit": false,
      "t": 114803.36730468659,
      "d": 140.08623958332464,
      "v": 62
    },
    {
      "midi": 62,
      "hit": false,
      "t": 114859.94059374908,
      "d": 115.84054427083174,
      "v": 20
    },
    {
      "midi": 69,
      "hit": false,
      "t": 114994.63890104074,
      "d": 107.75864583333896,
      "v": 34
    },
    {
      "midi": 78,
      "hit": false,
      "t": 115005.41476562408,
      "d": 123.92244270833908,
      "v": 32
    },
    {
      "midi": 74,
      "hit": false,
      "t": 115207.46222656159,
      "d": 123.92244270832452,
      "v": 57
    },
    {
      "midi": 81,
      "hit": false,
      "t": 115212.85015885325,
      "d": 115.84054427083174,
      "v": 61
    },
    {
      "midi": 62,
      "hit": false,
      "t": 115245.17775260325,
      "d": 331.3578359374951,
      "v": 33
    },
    {
      "midi": 78,
      "hit": false,
      "t": 115412.20365364492,
      "d": 132.00434114583186,
      "v": 46
    },
    {
      "midi": 69,
      "hit": false,
      "t": 115420.28555208241,
      "d": 94.28881510416977,
      "v": 43
    },
    {
      "midi": 81,
      "hit": false,
      "t": 115627.72094531158,
      "d": 137.39227343750827,
      "v": 64
    },
    {
      "midi": 74,
      "hit": false,
      "t": 115654.66060676992,
      "d": 94.28881510416977,
      "v": 45
    },
    {
      "midi": 54,
      "hit": false,
      "t": 115654.66060676992,
      "d": 242.4569531249872,
      "v": 34
    },
    {
      "midi": 69,
      "hit": false,
      "t": 115818.99254166575,
      "d": 83.51295052081696,
      "v": 28
    },
    {
      "midi": 78,
      "hit": false,
      "t": 115827.07444010324,
      "d": 126.61640885415545,
      "v": 33
    },
    {
      "midi": 58,
      "hit": false,
      "t": 116010.26413801989,
      "d": 600.7544505208352,
      "v": 17
    },
    {
      "midi": 53,
      "hit": false,
      "t": 116023.73396874906,
      "d": 1462.8236171875033,
      "v": 40
    },
    {
      "midi": 81,
      "hit": false,
      "t": 116026.42793489489,
      "d": 757.0044869791745,
      "v": 48
    },
    {
      "midi": 62,
      "hit": false,
      "t": 116039.89776562406,
      "d": 474.13804166666523,
      "v": 30
    },
    {
      "midi": 69,
      "hit": false,
      "t": 116042.59173176989,
      "d": 606.1423828124971,
      "v": 25
    },
    {
      "midi": 74,
      "hit": false,
      "t": 116042.59173176989,
      "d": 616.9182473958354,
      "v": 46
    },
    {
      "midi": 74,
      "hit": false,
      "t": 116926.21262760324,
      "d": 105.06467968749348,
      "v": 38
    },
    {
      "midi": 58,
      "hit": false,
      "t": 116936.98849218657,
      "d": 657.3277395833284,
      "v": 34
    },
    {
      "midi": 69,
      "hit": false,
      "t": 116939.6824583324,
      "d": 140.08623958332464,
      "v": 40
    },
    {
      "midi": 62,
      "hit": false,
      "t": 116958.54022135324,
      "d": 457.9742447916651,
      "v": 28
    },
    {
      "midi": 65,
      "hit": false,
      "t": 117753.26023437407,
      "d": 91.59484895833884,
      "v": 53
    },
    {
      "midi": 58,
      "hit": false,
      "t": 117917.5921692699,
      "d": 1053.3407630208385,
      "v": 34
    },
    {
      "midi": 62,
      "hit": false,
      "t": 117936.44993229074,
      "d": 972.5217786458379,
      "v": 29
    },
    {
      "midi": 52,
      "hit": false,
      "t": 117939.14389843657,
      "d": 1834.5909453125205,
      "v": 48
    },
    {
      "midi": 69,
      "hit": false,
      "t": 117963.38959374907,
      "d": 53.879322916662204,
      "v": 60
    },
    {
      "midi": 70,
      "hit": false,
      "t": 118356.70865104074,
      "d": 67.3491536458314,
      "v": 70
    },
    {
      "midi": 72,
      "hit": false,
      "t": 118744.63977604074,
      "d": 226.29315625000163,
      "v": 74
    },
    {
      "midi": 68,
      "hit": false,
      "t": 119604.01497656158,
      "d": 86.20691666667699,
      "v": 69
    },
    {
      "midi": 67,
      "hit": false,
      "t": 119717.1615546866,
      "d": 140.08623958332464,
      "v": 43
    },
    {
      "midi": 65,
      "hit": false,
      "t": 119900.35125260326,
      "d": 115.84054427083174,
      "v": 47
    },
    {
      "midi": 62,
      "hit": false,
      "t": 120016.19179687409,
      "d": 91.59484895833884,
      "v": 50
    },
    {
      "midi": 65,
      "hit": false,
      "t": 120183.21769791575,
      "d": 134.6983072916628,
      "v": 58
    },
    {
      "midi": 60,
      "hit": false,
      "t": 120202.07546093658,
      "d": 746.2286223958363,
      "v": 38
    },
    {
      "midi": 57,
      "hit": false,
      "t": 120202.07546093658,
      "d": 829.7415729166678,
      "v": 31
    },
    {
      "midi": 50,
      "hit": false,
      "t": 120210.15735937408,
      "d": 1408.9442942708265,
      "v": 34
    },
    {
      "midi": 67,
      "hit": false,
      "t": 120371.79532812408,
      "d": 123.92244270833908,
      "v": 53
    },
    {
      "midi": 65,
      "hit": false,
      "t": 120587.31261979075,
      "d": 509.1596015624964,
      "v": 47
    },
    {
      "midi": 62,
      "hit": false,
      "t": 121112.63601822825,
      "d": 431.03458333332674,
      "v": 36
    },
    {
      "midi": 60,
      "hit": false,
      "t": 121144.96361197825,
      "d": 487.60787239581987,
      "v": 35
    },
    {
      "midi": 57,
      "hit": false,
      "t": 121163.82137499908,
      "d": 452.5863124999887,
      "v": 22
    },
    {
      "midi": 79,
      "hit": false,
      "t": 122031.2784739574,
      "d": 250.53885156250908,
      "v": 78
    },
    {
      "midi": 73,
      "hit": false,
      "t": 122042.05433854074,
      "d": 266.7026484375092,
      "v": 77
    },
    {
      "midi": 69,
      "hit": false,
      "t": 122044.74830468657,
      "d": 293.6423098958476,
      "v": 74
    },
    {
      "midi": 64,
      "hit": false,
      "t": 122058.21813541574,
      "d": 307.11214062501676,
      "v": 56
    },
    {
      "midi": 77,
      "hit": false,
      "t": 122389.57597135325,
      "d": 412.17682031248114,
      "v": 60
    },
    {
      "midi": 62,
      "hit": false,
      "t": 122397.65786979074,
      "d": 689.6553333333286,
      "v": 45
    },
    {
      "midi": 69,
      "hit": false,
      "t": 122403.0458020824,
      "d": 441.810447916665,
      "v": 58
    },
    {
      "midi": 72,
      "hit": false,
      "t": 122411.1277005199,
      "d": 377.15526041666453,
      "v": 55
    },
    {
      "midi": 76,
      "hit": false,
      "t": 123084.61923697824,
      "d": 296.33627604166395,
      "v": 53
    },
    {
      "midi": 65,
      "hit": false,
      "t": 123106.1709661449,
      "d": 212.82332552083244,
      "v": 33
    },
    {
      "midi": 61,
      "hit": false,
      "t": 123108.86493229073,
      "d": 374.4612942708336,
      "v": 56
    },
    {
      "midi": 69,
      "hit": false,
      "t": 123114.25286458239,
      "d": 172.41383333333943,
      "v": 51
    },
    {
      "midi": 74,
      "hit": false,
      "t": 123464.46846354073,
      "d": 377.15526041666453,
      "v": 57
    },
    {
      "midi": 65,
      "hit": false,
      "t": 123483.32622656156,
      "d": 422.95268489583395,
      "v": 43
    },
    {
      "midi": 69,
      "hit": false,
      "t": 123494.10209114489,
      "d": 288.25437760417117,
      "v": 51
    },
    {
      "midi": 60,
      "hit": false,
      "t": 123504.87795572823,
      "d": 401.400955729172,
      "v": 40
    },
    {
      "midi": 71,
      "hit": false,
      "t": 124156.81776301989,
      "d": 328.66386979164963,
      "v": 55
    },
    {
      "midi": 64,
      "hit": false,
      "t": 124162.20569531155,
      "d": 250.53885156247998,
      "v": 44
    },
    {
      "midi": 68,
      "hit": false,
      "t": 124164.89966145738,
      "d": 309.8061067708186,
      "v": 49
    },
    {
      "midi": 54,
      "hit": false,
      "t": 124170.28759374905,
      "d": 277.47851302081835,
      "v": 45
    },
    {
      "midi": 60,
      "hit": false,
      "t": 124189.14535676988,
      "d": 215.51729166666337,
      "v": 27
    },
    {
      "midi": 54,
      "hit": false,
      "t": 124531.27905729071,
      "d": 307.1121406250022,
      "v": 18
    },
    {
      "midi": 60,
      "hit": false,
      "t": 124542.05492187405,
      "d": 191.27159635417047,
      "v": 40
    },
    {
      "midi": 69,
      "hit": false,
      "t": 124544.74888801988,
      "d": 285.56041145834024,
      "v": 48
    },
    {
      "midi": 64,
      "hit": false,
      "t": 124555.52475260322,
      "d": 296.33627604166395,
      "v": 15
    },
    {
      "midi": 68,
      "hit": false,
      "t": 125180.52489843655,
      "d": 309.80610677083314,
      "v": 38
    },
    {
      "midi": 60,
      "hit": false,
      "t": 125199.38266145738,
      "d": 264.0086822916637,
      "v": 32
    },
    {
      "midi": 63,
      "hit": false,
      "t": 125202.07662760321,
      "d": 250.53885156249453,
      "v": 33
    },
    {
      "midi": 66,
      "hit": false,
      "t": 125218.24042447821,
      "d": 296.33627604166395,
      "v": 36
    },
    {
      "midi": 49,
      "hit": false,
      "t": 125247.87405208238,
      "d": 299.0302421874949,
      "v": 37
    },
    {
      "midi": 60,
      "hit": false,
      "t": 125552.29222656153,
      "d": 996.7674739583163,
      "v": 47
    },
    {
      "midi": 69,
      "hit": false,
      "t": 125554.98619270737,
      "d": 1171.875273437472,
      "v": 50
    },
    {
      "midi": 50,
      "hit": false,
      "t": 125565.7620572907,
      "d": 83.51295052081696,
      "v": 49
    },
    {
      "midi": 64,
      "hit": false,
      "t": 125568.45602343653,
      "d": 1064.1166276041477,
      "v": 41
    },
    {
      "midi": 66,
      "hit": false,
      "t": 125600.78361718652,
      "d": 1085.6683567708242,
      "v": 19
    },
    {
      "midi": 26,
      "hit": false,
      "t": 126228.47772916568,
      "d": 293.642309895833,
      "v": 53
    },
    {
      "midi": 38,
      "hit": false,
      "t": 126244.64152604068,
      "d": 334.0518020833406,
      "v": 34
    },
    {
      "midi": 65,
      "hit": false,
      "t": 127284.51245833233,
      "d": 724.6768932291598,
      "v": 51
    },
    {
      "midi": 60,
      "hit": false,
      "t": 127295.28832291567,
      "d": 703.1251640624832,
      "v": 48
    },
    {
      "midi": 54,
      "hit": false,
      "t": 127308.75815364484,
      "d": 864.7631328124844,
      "v": 38
    },
    {
      "midi": 58,
      "hit": false,
      "t": 127314.1460859365,
      "d": 1244.6123593749944,
      "v": 33
    },
    {
      "midi": 85,
      "hit": false,
      "t": 127602.40046354067,
      "d": 83.51295052083151,
      "v": 82
    },
    {
      "midi": 73,
      "hit": false,
      "t": 127605.0944296865,
      "d": 99.67674739583163,
      "v": 97
    },
    {
      "midi": 86,
      "hit": false,
      "t": 127637.4220234365,
      "d": 374.46129427081905,
      "v": 66
    },
    {
      "midi": 80,
      "hit": false,
      "t": 127648.19788801984,
      "d": 32.32759375000023,
      "v": 26
    },
    {
      "midi": 84,
      "hit": false,
      "t": 127664.36168489484,
      "d": 350.2155989583116,
      "v": 34
    },
    {
      "midi": 74,
      "hit": false,
      "t": 127710.159109374,
      "d": 363.68542968749534,
      "v": 68
    },
    {
      "midi": 57,
      "hit": false,
      "t": 128283.9738984365,
      "d": 282.86644531249476,
      "v": 34
    },
    {
      "midi": 82,
      "hit": false,
      "t": 128286.66786458233,
      "d": 228.98712239583256,
      "v": 38
    },
    {
      "midi": 62,
      "hit": false,
      "t": 128286.66786458233,
      "d": 239.76298697917082,
      "v": 35
    },
    {
      "midi": 53,
      "hit": false,
      "t": 128297.44372916566,
      "d": 627.6941119791445,
      "v": 35
    },
    {
      "midi": 70,
      "hit": false,
      "t": 128308.21959374899,
      "d": 220.90522395833977,
      "v": 34
    },
    {
      "midi": 82,
      "hit": false,
      "t": 128634.18949739482,
      "d": 110.45261197915534,
      "v": 54
    },
    {
      "midi": 70,
      "hit": false,
      "t": 128650.35329426982,
      "d": 61.96122135416954,
      "v": 49
    },
    {
      "midi": 62,
      "hit": false,
      "t": 128661.12915885316,
      "d": 96.98278124998615,
      "v": 29
    },
    {
      "midi": 58,
      "hit": false,
      "t": 128666.51709114482,
      "d": 118.53451041666267,
      "v": 33
    },
    {
      "midi": 57,
      "hit": false,
      "t": 128698.84468489482,
      "d": 37.71552604166209,
      "v": 20
    },
    {
      "midi": 82,
      "hit": false,
      "t": 128838.93092447815,
      "d": 78.12501822916965,
      "v": 44
    },
    {
      "midi": 58,
      "hit": false,
      "t": 129350.78449218647,
      "d": 703.1251640624687,
      "v": 31
    },
    {
      "midi": 82,
      "hit": false,
      "t": 129353.4784583323,
      "d": 449.8923463541432,
      "v": 59
    },
    {
      "midi": 70,
      "hit": false,
      "t": 129358.86639062397,
      "d": 482.21994010414346,
      "v": 49
    },
    {
      "midi": 62,
      "hit": false,
      "t": 129358.86639062397,
      "d": 630.3880781249754,
      "v": 30
    },
    {
      "midi": 57,
      "hit": false,
      "t": 129377.7241536448,
      "d": 554.9570260416513,
      "v": 25
    },
    {
      "midi": 53,
      "hit": false,
      "t": 129380.41811979063,
      "d": 611.5303151041444,
      "v": 30
    },
    {
      "midi": 73,
      "hit": false,
      "t": 130355.63386458227,
      "d": 91.59484895832429,
      "v": 53
    },
    {
      "midi": 68,
      "hit": false,
      "t": 130358.3278307281,
      "d": 64.65518750000047,
      "v": 54
    },
    {
      "midi": 64,
      "hit": false,
      "t": 130358.3278307281,
      "d": 67.3491536458314,
      "v": 58
    },
    {
      "midi": 76,
      "hit": false,
      "t": 130358.3278307281,
      "d": 83.51295052083151,
      "v": 57
    },
    {
      "midi": 61,
      "hit": false,
      "t": 130705.8494635406,
      "d": 94.28881510414067,
      "v": 59
    },
    {
      "midi": 73,
      "hit": false,
      "t": 130713.93136197809,
      "d": 88.90088281247881,
      "v": 71
    },
    {
      "midi": 68,
      "hit": false,
      "t": 130716.62532812392,
      "d": 67.34915364581684,
      "v": 73
    },
    {
      "midi": 64,
      "hit": false,
      "t": 130722.01326041558,
      "d": 53.879322916662204,
      "v": 72
    },
    {
      "midi": 76,
      "hit": false,
      "t": 130735.48309114475,
      "d": 43.10345833332394,
      "v": 44
    },
    {
      "midi": 64,
      "hit": false,
      "t": 130988.71590885306,
      "d": 61.961221354140434,
      "v": 54
    },
    {
      "midi": 68,
      "hit": false,
      "t": 130991.40987499889,
      "d": 61.961221354140434,
      "v": 48
    },
    {
      "midi": 73,
      "hit": false,
      "t": 130994.10384114472,
      "d": 78.12501822914055,
      "v": 39
    },
    {
      "midi": 61,
      "hit": false,
      "t": 131002.18573958222,
      "d": 83.5129505208024,
      "v": 50
    },
    {
      "midi": 76,
      "hit": false,
      "t": 131010.26763801971,
      "d": 40.409492187493015,
      "v": 24
    },
    {
      "midi": 64,
      "hit": false,
      "t": 131282.35821874885,
      "d": 78.1250182291551,
      "v": 69
    },
    {
      "midi": 61,
      "hit": false,
      "t": 131282.35821874885,
      "d": 83.51295052081696,
      "v": 53
    },
    {
      "midi": 76,
      "hit": false,
      "t": 131285.05218489468,
      "d": 78.1250182291551,
      "v": 60
    },
    {
      "midi": 73,
      "hit": false,
      "t": 131285.05218489468,
      "d": 91.59484895830974,
      "v": 51
    },
    {
      "midi": 68,
      "hit": false,
      "t": 131287.7461510405,
      "d": 67.3491536458314,
      "v": 58
    },
    {
      "midi": 76,
      "hit": false,
      "t": 131522.121205728,
      "d": 96.9827812499716,
      "v": 38
    },
    {
      "midi": 61,
      "hit": false,
      "t": 131522.121205728,
      "d": 312.5000729166204,
      "v": 42
    },
    {
      "midi": 64,
      "hit": false,
      "t": 131538.285002603,
      "d": 207.43539322915603,
      "v": 48
    },
    {
      "midi": 68,
      "hit": false,
      "t": 131538.285002603,
      "d": 215.51729166664882,
      "v": 46
    },
    {
      "midi": 73,
      "hit": false,
      "t": 131546.36690104048,
      "d": 169.71986718749395,
      "v": 33
    },
    {
      "midi": 73,
      "hit": false,
      "t": 131912.74629687378,
      "d": 207.43539322915603,
      "v": 50
    },
    {
      "midi": 68,
      "hit": false,
      "t": 131915.4402630196,
      "d": 264.0086822916346,
      "v": 57
    },
    {
      "midi": 64,
      "hit": false,
      "t": 131918.13422916544,
      "d": 212.8233255208179,
      "v": 43
    },
    {
      "midi": 58,
      "hit": false,
      "t": 131945.07389062378,
      "d": 317.88800520831137,
      "v": 36
    },
    {
      "midi": 72,
      "hit": false,
      "t": 132262.9618958321,
      "d": 501.07770312501816,
      "v": 60
    },
    {
      "midi": 67,
      "hit": false,
      "t": 132268.34982812376,
      "d": 441.81044791667955,
      "v": 53
    },
    {
      "midi": 62,
      "hit": false,
      "t": 132268.34982812376,
      "d": 474.1380416666798,
      "v": 53
    },
    {
      "midi": 57,
      "hit": false,
      "t": 132287.2075911446,
      "d": 695.0432656249905,
      "v": 40
    },
    {
      "midi": 61,
      "hit": false,
      "t": 132955.31119531128,
      "d": 334.05180208329693,
      "v": 37
    },
    {
      "midi": 71,
      "hit": false,
      "t": 132955.31119531128,
      "d": 347.52163281245157,
      "v": 30
    },
    {
      "midi": 66,
      "hit": false,
      "t": 132958.0051614571,
      "d": 363.68542968746624,
      "v": 47
    },
    {
      "midi": 56,
      "hit": false,
      "t": 132971.47499218627,
      "d": 511.85356770828366,
      "v": 35
    },
    {
      "midi": 62,
      "hit": false,
      "t": 133456.38889843624,
      "d": 264.0086822916346,
      "v": 53
    },
    {
      "midi": 67,
      "hit": false,
      "t": 133464.47079687373,
      "d": 568.4268567707913,
      "v": 47
    },
    {
      "midi": 72,
      "hit": false,
      "t": 133467.16476301957,
      "d": 1091.056289062457,
      "v": 51
    },
    {
      "midi": 57,
      "hit": false,
      "t": 133483.32855989455,
      "d": 307.11214062498766,
      "v": 46
    },
    {
      "midi": 61,
      "hit": false,
      "t": 134482.7899999987,
      "d": 767.7803515625128,
      "v": 56
    },
    {
      "midi": 60,
      "hit": false,
      "t": 134485.48396614453,
      "d": 1357.7589374999807,
      "v": 56
    },
    {
      "midi": 65,
      "hit": false,
      "t": 134488.17793229036,
      "d": 821.6596744791896,
      "v": 62
    },
    {
      "midi": 55,
      "hit": false,
      "t": 134498.95379687368,
      "d": 1411.6382604166574,
      "v": 59
    },
    {
      "midi": 61,
      "hit": false,
      "t": 135519.96696614454,
      "d": 342.1337005208188,
      "v": 34
    },
    {
      "midi": 65,
      "hit": false,
      "t": 135536.13076301952,
      "d": 255.92678385417094,
      "v": 40
    },
    {
      "midi": 87,
      "hit": false,
      "t": 135732.79029166535,
      "d": 96.9827812500007,
      "v": 83
    },
    {
      "midi": 87,
      "hit": false,
      "t": 135891.73429426952,
      "d": 35.021559895802056,
      "v": 51
    },
    {
      "midi": 88,
      "hit": false,
      "t": 135905.20412499868,
      "d": 118.53451041664812,
      "v": 92
    },
    {
      "midi": 91,
      "hit": false,
      "t": 136096.47572135282,
      "d": 118.53451041667722,
      "v": 84
    },
    {
      "midi": 89,
      "hit": false,
      "t": 136276.97145312367,
      "d": 142.78020572915557,
      "v": 84
    },
    {
      "midi": 91,
      "hit": false,
      "t": 136301.21714843618,
      "d": 37.71552604166209,
      "v": 32
    },
    {
      "midi": 85,
      "hit": false,
      "t": 136462.85511718615,
      "d": 156.2500364583102,
      "v": 70
    },
    {
      "midi": 57,
      "hit": false,
      "t": 136476.3249479153,
      "d": 1877.6944036457862,
      "v": 28
    },
    {
      "midi": 60,
      "hit": false,
      "t": 136503.26460937364,
      "d": 501.07770312498906,
      "v": 25
    },
    {
      "midi": 53,
      "hit": false,
      "t": 136516.7344401028,
      "d": 1815.7331822916458,
      "v": 30
    },
    {
      "midi": 50,
      "hit": false,
      "t": 136516.7344401028,
      "d": 1845.366809895786,
      "v": 31
    },
    {
      "midi": 88,
      "hit": false,
      "t": 136667.59654426944,
      "d": 167.02590104166302,
      "v": 76
    },
    {
      "midi": 86,
      "hit": false,
      "t": 136858.8681406236,
      "d": 121.22847656250815,
      "v": 64
    },
    {
      "midi": 81,
      "hit": false,
      "t": 137039.36387239446,
      "d": 91.59484895833884,
      "v": 58
    },
    {
      "midi": 79,
      "hit": false,
      "t": 137225.24753645697,
      "d": 169.71986718749395,
      "v": 64
    },
    {
      "midi": 77,
      "hit": false,
      "t": 137408.43723437362,
      "d": 123.92244270833908,
      "v": 53
    },
    {
      "midi": 76,
      "hit": false,
      "t": 137597.01486458196,
      "d": 140.08623958332464,
      "v": 56
    },
    {
      "midi": 79,
      "hit": false,
      "t": 137766.73473176945,
      "d": 148.16813802084653,
      "v": 70
    },
    {
      "midi": 77,
      "hit": false,
      "t": 137963.39426041528,
      "d": 121.22847656247905,
      "v": 73
    },
    {
      "midi": 73,
      "hit": false,
      "t": 138170.82965364444,
      "d": 129.31037500000093,
      "v": 60
    },
    {
      "midi": 76,
      "hit": false,
      "t": 138337.8555546861,
      "d": 188.57763020828133,
      "v": 66
    },
    {
      "midi": 74,
      "hit": false,
      "t": 138523.73921874855,
      "d": 132.00434114583186,
      "v": 61
    },
    {
      "midi": 69,
      "hit": false,
      "t": 138715.01081510272,
      "d": 118.53451041667722,
      "v": 46
    },
    {
      "midi": 67,
      "hit": false,
      "t": 138957.46776822774,
      "d": 64.65518750000047,
      "v": 24
    },
    {
      "midi": 65,
      "hit": false,
      "t": 139224.17041666523,
      "d": 134.6983072916628,
      "v": 34
    },
    {
      "midi": 64,
      "hit": false,
      "t": 140013.5024973944,
      "d": 161.63796875000116,
      "v": 73
    },
    {
      "midi": 61,
      "hit": false,
      "t": 140220.93789062355,
      "d": 331.3578359375242,
      "v": 32
    },
    {
      "midi": 57,
      "hit": false,
      "t": 140533.43796354023,
      "d": 64.65518750000047,
      "v": 44
    },
    {
      "midi": 62,
      "hit": false,
      "t": 140708.54576301939,
      "d": 282.8664453124802,
      "v": 34
    },
    {
      "midi": 57,
      "hit": false,
      "t": 140724.70955989437,
      "d": 140.08623958332464,
      "v": 24
    },
    {
      "midi": 50,
      "hit": false,
      "t": 140740.87335676936,
      "d": 196.65952864583232,
      "v": 24
    },
    {
      "midi": 57,
      "hit": false,
      "t": 141058.7613619777,
      "d": 48.4913906249858,
      "v": 36
    },
    {
      "midi": 57,
      "hit": false,
      "t": 142082.46849739435,
      "d": 91.59484895830974,
      "v": 42
    },
    {
      "midi": 60,
      "hit": false,
      "t": 142085.16246354018,
      "d": 40.409492187493015,
      "v": 35
    },
    {
      "midi": 64,
      "hit": false,
      "t": 142087.856429686,
      "d": 48.4913906249858,
      "v": 31
    },
    {
      "midi": 64,
      "hit": false,
      "t": 142755.96003385267,
      "d": 600.7544505207916,
      "v": 31
    },
    {
      "midi": 59,
      "hit": false,
      "t": 142764.04193229016,
      "d": 633.0820442707918,
      "v": 38
    },
    {
      "midi": 53,
      "hit": false,
      "t": 142774.81779687348,
      "d": 603.4484166666516,
      "v": 30
    },
    {
      "midi": 57,
      "hit": false,
      "t": 142782.89969531097,
      "d": 611.5303151041444,
      "v": 35
    },
    {
      "midi": 89,
      "hit": false,
      "t": 143626.11109895678,
      "d": 142.78020572915557,
      "v": 88
    },
    {
      "midi": 59,
      "hit": false,
      "t": 143626.11109895678,
      "d": 457.974244791636,
      "v": 68
    },
    {
      "midi": 77,
      "hit": false,
      "t": 143631.49903124844,
      "d": 158.94400260417024,
      "v": 90
    },
    {
      "midi": 53,
      "hit": false,
      "t": 143634.19299739428,
      "d": 428.3406171874958,
      "v": 68
    },
    {
      "midi": 64,
      "hit": false,
      "t": 143636.8869635401,
      "d": 169.71986718749395,
      "v": 75
    },
    {
      "midi": 57,
      "hit": false,
      "t": 143639.58092968594,
      "d": 441.81044791665045,
      "v": 63
    },
    {
      "midi": 76,
      "hit": false,
      "t": 143879.34391666512,
      "d": 158.94400260417024,
      "v": 60
    },
    {
      "midi": 88,
      "hit": false,
      "t": 143879.34391666512,
      "d": 169.71986718749395,
      "v": 64
    },
    {
      "midi": 64,
      "hit": false,
      "t": 143879.34391666512,
      "d": 191.27159635414137,
      "v": 57
    },
    {
      "midi": 77,
      "hit": false,
      "t": 144170.2922604151,
      "d": 94.28881510414067,
      "v": 74
    },
    {
      "midi": 89,
      "hit": false,
      "t": 144170.2922604151,
      "d": 99.67674739580252,
      "v": 79
    },
    {
      "midi": 57,
      "hit": false,
      "t": 144175.68019270676,
      "d": 132.00434114580275,
      "v": 53
    },
    {
      "midi": 59,
      "hit": false,
      "t": 144178.3741588526,
      "d": 132.00434114580275,
      "v": 57
    },
    {
      "midi": 53,
      "hit": false,
      "t": 144181.06812499842,
      "d": 105.06467968746438,
      "v": 52
    },
    {
      "midi": 64,
      "hit": false,
      "t": 144186.45605729008,
      "d": 80.81898437498603,
      "v": 49
    },
    {
      "midi": 88,
      "hit": false,
      "t": 144380.42161979005,
      "d": 80.81898437495693,
      "v": 50
    },
    {
      "midi": 76,
      "hit": false,
      "t": 144391.19748437338,
      "d": 70.04311979163322,
      "v": 43
    },
    {
      "midi": 59,
      "hit": false,
      "t": 144393.8914505192,
      "d": 83.51295052078785,
      "v": 40
    },
    {
      "midi": 57,
      "hit": false,
      "t": 144407.36128124836,
      "d": 45.79742447915487,
      "v": 38
    },
    {
      "midi": 74,
      "hit": false,
      "t": 144671.36996354,
      "d": 91.59484895830974,
      "v": 71
    },
    {
      "midi": 86,
      "hit": false,
      "t": 144674.06392968583,
      "d": 99.67674739580252,
      "v": 74
    },
    {
      "midi": 57,
      "hit": false,
      "t": 144682.14582812332,
      "d": 115.84054427081719,
      "v": 50
    },
    {
      "midi": 53,
      "hit": false,
      "t": 144682.14582812332,
      "d": 118.53451041664812,
      "v": 34
    },
    {
      "midi": 57,
      "hit": false,
      "t": 144892.2751874983,
      "d": 288.25437760411296,
      "v": 31
    },
    {
      "midi": 84,
      "hit": false,
      "t": 144900.3570859358,
      "d": 142.78020572912646,
      "v": 60
    },
    {
      "midi": 62,
      "hit": false,
      "t": 144900.3570859358,
      "d": 237.06902083329624,
      "v": 38
    },
    {
      "midi": 72,
      "hit": false,
      "t": 144908.4389843733,
      "d": 218.21125781247974,
      "v": 49
    },
    {
      "midi": 53,
      "hit": false,
      "t": 144908.4389843733,
      "d": 277.47851302078925,
      "v": 25
    },
    {
      "midi": 58,
      "hit": false,
      "t": 144919.21484895662,
      "d": 261.3147161458037,
      "v": 48
    },
    {
      "midi": 80,
      "hit": false,
      "t": 145331.3916692691,
      "d": 207.43539322909783,
      "v": 53
    },
    {
      "midi": 68,
      "hit": false,
      "t": 145334.08563541493,
      "d": 70.04311979163322,
      "v": 56
    },
    {
      "midi": 58,
      "hit": false,
      "t": 145350.24943228991,
      "d": 385.23715885408456,
      "v": 38
    },
    {
      "midi": 62,
      "hit": false,
      "t": 145358.3313307274,
      "d": 334.05180208326783,
      "v": 38
    },
    {
      "midi": 53,
      "hit": false,
      "t": 145361.02529687324,
      "d": 323.2759374999441,
      "v": 31
    },
    {
      "midi": 57,
      "hit": false,
      "t": 145363.71926301907,
      "d": 377.1552604165918,
      "v": 40
    },
    {
      "midi": 69,
      "hit": false,
      "t": 145420.29255208155,
      "d": 264.0086822916346,
      "v": 56
    },
    {
      "midi": 74,
      "hit": false,
      "t": 145433.7623828107,
      "d": 172.41383333332487,
      "v": 15
    },
    {
      "midi": 81,
      "hit": false,
      "t": 145449.9261796857,
      "d": 51.18535677084583,
      "v": 20
    },
    {
      "midi": 77,
      "hit": false,
      "t": 145862.10299999817,
      "d": 1004.849372395809,
      "v": 50
    },
    {
      "midi": 65,
      "hit": false,
      "t": 145883.65472916485,
      "d": 1034.4829999999492,
      "v": 33
    },
    {
      "midi": 58,
      "hit": false,
      "t": 145886.34869531068,
      "d": 783.9441484374693,
      "v": 36
    },
    {
      "midi": 57,
      "hit": false,
      "t": 145894.43059374817,
      "d": 530.7113307291584,
      "v": 30
    },
    {
      "midi": 62,
      "hit": false,
      "t": 145894.43059374817,
      "d": 579.2027213541442,
      "v": 34
    },
    {
      "midi": 53,
      "hit": false,
      "t": 145902.51249218566,
      "d": 525.3233984374965,
      "v": 34
    },
    {
      "midi": 62,
      "hit": false,
      "t": 146907.36186458147,
      "d": 692.3492994791304,
      "v": 36
    },
    {
      "midi": 58,
      "hit": false,
      "t": 146907.36186458147,
      "d": 770.4743177082855,
      "v": 37
    },
    {
      "midi": 54,
      "hit": false,
      "t": 146926.2196276023,
      "d": 1678.3409088540939,
      "v": 38
    },
    {
      "midi": 66,
      "hit": false,
      "t": 147432.68526301894,
      "d": 99.67674739583163,
      "v": 53
    },
    {
      "midi": 67,
      "hit": false,
      "t": 147583.54736718562,
      "d": 107.7586458332953,
      "v": 61
    },
    {
      "midi": 69,
      "hit": false,
      "t": 147764.0430989564,
      "d": 113.14657812498626,
      "v": 83
    },
    {
      "midi": 58,
      "hit": false,
      "t": 147834.08621874807,
      "d": 137.3922734374937,
      "v": 36
    },
    {
      "midi": 66,
      "hit": false,
      "t": 147968.78452603973,
      "d": 261.3147161458328,
      "v": 62
    },
    {
      "midi": 62,
      "hit": false,
      "t": 148316.30615885224,
      "d": 457.9742447916651,
      "v": 34
    },
    {
      "midi": 58,
      "hit": false,
      "t": 148327.08202343556,
      "d": 425.6466510416649,
      "v": 25
    },
    {
      "midi": 54,
      "hit": false,
      "t": 148806.6079973939,
      "d": 72.73708593749325,
      "v": 40
    },
    {
      "midi": 53,
      "hit": false,
      "t": 148968.2459661439,
      "d": 1713.362468749896,
      "v": 35
    },
    {
      "midi": 58,
      "hit": false,
      "t": 148973.63389843557,
      "d": 684.2674010416376,
      "v": 1
    },
    {
      "midi": 62,
      "hit": false,
      "t": 148984.4097630189,
      "d": 557.6509921874967,
      "v": 35
    },
    {
      "midi": 58,
      "hit": false,
      "t": 149835.7030651022,
      "d": 148.16813802081742,
      "v": 38
    },
    {
      "midi": 62,
      "hit": false,
      "t": 149838.39703124802,
      "d": 80.81898437498603,
      "v": 34
    },
    {
      "midi": 74,
      "hit": false,
      "t": 150366.41439583135,
      "d": 132.00434114583186,
      "v": 90
    },
    {
      "midi": 58,
      "hit": false,
      "t": 150366.41439583135,
      "d": 193.9655624999723,
      "v": 38
    },
    {
      "midi": 62,
      "hit": false,
      "t": 150369.10836197718,
      "d": 61.96122135416954,
      "v": 40
    },
    {
      "midi": 69,
      "hit": false,
      "t": 150544.21616145634,
      "d": 96.9827812499716,
      "v": 68
    },
    {
      "midi": 72,
      "hit": false,
      "t": 150700.46619791465,
      "d": 193.9655625000014,
      "v": 81
    },
    {
      "midi": 70,
      "hit": false,
      "t": 150862.10416666465,
      "d": 110.45261197915534,
      "v": 79
    },
    {
      "midi": 58,
      "hit": false,
      "t": 150940.2291848938,
      "d": 43.10345833332394,
      "v": 26
    },
    {
      "midi": 66,
      "hit": false,
      "t": 151053.3757630188,
      "d": 113.14657812498626,
      "v": 52
    },
    {
      "midi": 69,
      "hit": false,
      "t": 151217.70769791462,
      "d": 199.35349479163415,
      "v": 77
    },
    {
      "midi": 67,
      "hit": false,
      "t": 151384.73359895629,
      "d": 129.31037499994272,
      "v": 71
    },
    {
      "midi": 62,
      "hit": false,
      "t": 151408.97929426876,
      "d": 43.10345833332394,
      "v": 53
    },
    {
      "midi": 58,
      "hit": false,
      "t": 151419.7551588521,
      "d": 113.14657812495716,
      "v": 44
    },
    {
      "midi": 52,
      "hit": false,
      "t": 151460.16465103958,
      "d": 56.57328906247858,
      "v": 31
    },
    {
      "midi": 62,
      "hit": false,
      "t": 151576.00519531037,
      "d": 242.4569531249872,
      "v": 45
    },
    {
      "midi": 62,
      "hit": false,
      "t": 151912.75096353953,
      "d": 67.3491536458314,
      "v": 53
    },
    {
      "midi": 60,
      "hit": false,
      "t": 151918.1388958312,
      "d": 70.04311979166232,
      "v": 60
    },
    {
      "midi": 45,
      "hit": false,
      "t": 151934.30269270617,
      "d": 676.185502604174,
      "v": 49
    },
    {
      "midi": 55,
      "hit": false,
      "t": 151953.16045572702,
      "d": 129.31037500000093,
      "v": 38
    },
    {
      "midi": 61,
      "hit": false,
      "t": 152114.79842447702,
      "d": 67.3491536458314,
      "v": 62
    },
    {
      "midi": 64,
      "hit": false,
      "t": 152424.60453124784,
      "d": 129.31037500000093,
      "v": 74
    },
    {
      "midi": 55,
      "hit": false,
      "t": 152435.38039583116,
      "d": 35.02155989583116,
      "v": 54
    },
    {
      "midi": 60,
      "hit": false,
      "t": 152675.14338281035,
      "d": 191.27159635417047,
      "v": 42
    },
    {
      "midi": 57,
      "hit": false,
      "t": 152936.45809895618,
      "d": 115.84054427081719,
      "v": 60
    },
    {
      "midi": 45,
      "hit": false,
      "t": 152947.2339635395,
      "d": 134.6983072916628,
      "v": 40
    },
    {
      "midi": 62,
      "hit": false,
      "t": 153130.42366145615,
      "d": 145.4741718749865,
      "v": 37
    },
    {
      "midi": 56,
      "hit": false,
      "t": 153133.11762760198,
      "d": 61.961221354140434,
      "v": 58
    },
    {
      "midi": 38,
      "hit": false,
      "t": 153178.91505208114,
      "d": 1169.1813072916702,
      "v": 22
    },
    {
      "midi": 55,
      "hit": false,
      "t": 153224.7124765603,
      "d": 134.6983072916919,
      "v": 55
    },
    {
      "midi": 53,
      "hit": false,
      "t": 153380.96251301866,
      "d": 96.9827812500007,
      "v": 49
    },
    {
      "midi": 50,
      "hit": false,
      "t": 153547.98841406032,
      "d": 64.65518750000047,
      "v": 50
    },
    {
      "midi": 53,
      "hit": false,
      "t": 153690.76861978948,
      "d": 290.9483437500021,
      "v": 52
    },
    {
      "midi": 55,
      "hit": false,
      "t": 153992.4928281228,
      "d": 115.8405442708463,
      "v": 71
    },
    {
      "midi": 53,
      "hit": false,
      "t": 154172.98855989365,
      "d": 264.0086822916637,
      "v": 45
    },
    {
      "midi": 50,
      "hit": false,
      "t": 154498.9584635395,
      "d": 51.18535677084583,
      "v": 64
    },
    {
      "midi": 65,
      "hit": false,
      "t": 155684.3035677062,
      "d": 158.94400260417024,
      "v": 79
    },
    {
      "midi": 55,
      "hit": false,
      "t": 155684.3035677062,
      "d": 196.65952864583232,
      "v": 78
    },
    {
      "midi": 60,
      "hit": false,
      "t": 155692.3854661437,
      "d": 148.16813802084653,
      "v": 80
    },
    {
      "midi": 62,
      "hit": false,
      "t": 156557.1485989562,
      "d": 134.69830729163368,
      "v": 53
    },
    {
      "midi": 52,
      "hit": false,
      "t": 156559.84256510204,
      "d": 140.08623958329554,
      "v": 65
    },
    {
      "midi": 57,
      "hit": false,
      "t": 156578.70032812285,
      "d": 110.45261197915534,
      "v": 53
    },
    {
      "midi": 64,
      "hit": false,
      "t": 157268.35566145615,
      "d": 668.1036041666521,
      "v": 44
    },
    {
      "midi": 59,
      "hit": false,
      "t": 157273.74359374781,
      "d": 571.1208229166514,
      "v": 57
    },
    {
      "midi": 54,
      "hit": false,
      "t": 157279.13152603948,
      "d": 627.6941119791591,
      "v": 45
    },
    {
      "midi": 54,
      "hit": false,
      "t": 158278.59296614362,
      "d": 309.8061067707604,
      "v": 80
    },
    {
      "midi": 64,
      "hit": false,
      "t": 158286.67486458112,
      "d": 272.0905807290983,
      "v": 66
    },
    {
      "midi": 76,
      "hit": false,
      "t": 158297.45072916444,
      "d": 210.12935937495786,
      "v": 87
    },
    {
      "midi": 60,
      "hit": false,
      "t": 158297.45072916444,
      "d": 293.6423098957748,
      "v": 64
    },
    {
      "midi": 88,
      "hit": false,
      "t": 158300.14469531027,
      "d": 193.9655624999723,
      "v": 87
    },
    {
      "midi": 81,
      "hit": false,
      "t": 158305.53262760193,
      "d": 35.02155989583116,
      "v": 75
    },
    {
      "midi": 84,
      "hit": false,
      "t": 158308.22659374776,
      "d": 212.82332552078879,
      "v": 72
    },
    {
      "midi": 81,
      "hit": false,
      "t": 158378.26971353943,
      "d": 132.00434114580275,
      "v": 18
    },
    {
      "midi": 87,
      "hit": false,
      "t": 158774.28273697686,
      "d": 272.0905807291274,
      "v": 64
    },
    {
      "midi": 75,
      "hit": false,
      "t": 158776.9767031227,
      "d": 277.47851302078925,
      "v": 62
    },
    {
      "midi": 54,
      "hit": false,
      "t": 158790.44653385185,
      "d": 255.92678385414183,
      "v": 59
    },
    {
      "midi": 84,
      "hit": false,
      "t": 158793.14049999768,
      "d": 228.98712239580345,
      "v": 53
    },
    {
      "midi": 60,
      "hit": false,
      "t": 158793.14049999768,
      "d": 277.47851302078925,
      "v": 55
    },
    {
      "midi": 81,
      "hit": false,
      "t": 158795.8344661435,
      "d": 210.12935937498696,
      "v": 51
    },
    {
      "midi": 64,
      "hit": false,
      "t": 158795.8344661435,
      "d": 245.15091927081812,
      "v": 48
    },
    {
      "midi": 81,
      "hit": false,
      "t": 159151.43799739346,
      "d": 528.0173645832983,
      "v": 57
    },
    {
      "midi": 74,
      "hit": false,
      "t": 159164.9078281226,
      "d": 541.4871953124821,
      "v": 43
    },
    {
      "midi": 86,
      "hit": false,
      "t": 159167.60179426844,
      "d": 482.21994010414346,
      "v": 58
    },
    {
      "midi": 64,
      "hit": false,
      "t": 159183.76559114343,
      "d": 686.9613671874977,
      "v": 32
    },
    {
      "midi": 54,
      "hit": false,
      "t": 159186.45955728926,
      "d": 600.7544505208207,
      "v": 44
    },
    {
      "midi": 60,
      "hit": false,
      "t": 159186.45955728926,
      "d": 775.8622500000056,
      "v": 50
    },
    {
      "midi": 85,
      "hit": false,
      "t": 159210.70525260177,
      "d": 37.71552604166209,
      "v": 25
    },
    {
      "midi": 60,
      "hit": false,
      "t": 160185.92099739343,
      "d": 431.03458333329763,
      "v": 61
    },
    {
      "midi": 54,
      "hit": false,
      "t": 160196.69686197676,
      "d": 851.2933020832716,
      "v": 51
    },
    {
      "midi": 86,
      "hit": false,
      "t": 160199.3908281226,
      "d": 105.06467968749348,
      "v": 85
    },
    {
      "midi": 64,
      "hit": false,
      "t": 160199.3908281226,
      "d": 261.3147161458328,
      "v": 45
    },
    {
      "midi": 79,
      "hit": false,
      "t": 160396.05035676842,
      "d": 126.61640885417,
      "v": 42
    },
    {
      "midi": 80,
      "hit": false,
      "t": 160463.39951041425,
      "d": 91.59484895833884,
      "v": 40
    },
    {
      "midi": 81,
      "hit": false,
      "t": 160568.46419010175,
      "d": 70.04311979166232,
      "v": 57
    },
    {
      "midi": 86,
      "hit": false,
      "t": 160716.63232812256,
      "d": 91.59484895830974,
      "v": 78
    },
    {
      "midi": 60,
      "hit": false,
      "t": 160722.02026041423,
      "d": 94.28881510414067,
      "v": 22
    },
    {
      "midi": 64,
      "hit": false,
      "t": 160730.10215885172,
      "d": 67.3491536458314,
      "v": 36
    },
    {
      "midi": 79,
      "hit": false,
      "t": 160899.8220260392,
      "d": 164.331934895803,
      "v": 27
    },
    {
      "midi": 80,
      "hit": false,
      "t": 161002.19273958087,
      "d": 102.37071354163345,
      "v": 27
    },
    {
      "midi": 81,
      "hit": false,
      "t": 161101.86948697668,
      "d": 94.28881510416977,
      "v": 63
    },
    {
      "midi": 86,
      "hit": false,
      "t": 161241.95572656,
      "d": 99.67674739580252,
      "v": 68
    },
    {
      "midi": 58,
      "hit": false,
      "t": 161274.28332031,
      "d": 226.29315624997253,
      "v": 37
    },
    {
      "midi": 62,
      "hit": false,
      "t": 161285.05918489333,
      "d": 325.96990364583326,
      "v": 28
    },
    {
      "midi": 57,
      "hit": false,
      "t": 161298.52901562248,
      "d": 1139.5476796874718,
      "v": 28
    },
    {
      "midi": 53,
      "hit": false,
      "t": 161303.91694791414,
      "d": 1085.6683567708242,
      "v": 39
    },
    {
      "midi": 80,
      "hit": false,
      "t": 161392.81783072665,
      "d": 137.3922734374937,
      "v": 45
    },
    {
      "midi": 79,
      "hit": false,
      "t": 161554.45579947665,
      "d": 99.67674739583163,
      "v": 38
    },
    {
      "midi": 77,
      "hit": false,
      "t": 161675.68427603916,
      "d": 118.53451041667722,
      "v": 39
    },
    {
      "midi": 74,
      "hit": false,
      "t": 161807.688617185,
      "d": 78.1250182291551,
      "v": 45
    },
    {
      "midi": 77,
      "hit": false,
      "t": 161958.55072135164,
      "d": 255.92678385417094,
      "v": 68
    },
    {
      "midi": 79,
      "hit": false,
      "t": 162257.58096353913,
      "d": 99.67674739583163,
      "v": 57
    },
    {
      "midi": 77,
      "hit": false,
      "t": 162324.93011718497,
      "d": 148.16813802081742,
      "v": 48
    },
    {
      "midi": 74,
      "hit": false,
      "t": 162483.8741197891,
      "d": 164.3319348958321,
      "v": 26
    },
    {
      "midi": 77,
      "hit": false,
      "t": 162796.37419270579,
      "d": 86.20691666664788,
      "v": 71
    },
    {
      "midi": 58,
      "hit": false,
      "t": 162804.45609114328,
      "d": 78.1250182291551,
      "v": 52
    },
    {
      "midi": 62,
      "hit": false,
      "t": 162809.84402343494,
      "d": 37.71552604166209,
      "v": 46
    },
    {
      "midi": 57,
      "hit": false,
      "t": 162815.2319557266,
      "d": 35.02155989583116,
      "v": 44
    },
    {
      "midi": 79,
      "hit": false,
      "t": 163025.3613151016,
      "d": 210.12935937498696,
      "v": 65
    },
    {
      "midi": 77,
      "hit": false,
      "t": 163316.30965885156,
      "d": 78.1250182291551,
      "v": 64
    },
    {
      "midi": 82,
      "hit": false,
      "t": 163448.31399999736,
      "d": 88.90088281250792,
      "v": 64
    },
    {
      "midi": 70,
      "hit": false,
      "t": 163572.2364427057,
      "d": 61.96122135416954,
      "v": 65
    },
    {
      "midi": 82,
      "hit": false,
      "t": 163706.93474999737,
      "d": 91.59484895833884,
      "v": 74
    },
    {
      "midi": 70,
      "hit": false,
      "t": 163833.55115885154,
      "d": 75.43105208332418,
      "v": 74
    },
    {
      "midi": 69,
      "hit": false,
      "t": 163838.9390911432,
      "d": 32.32759375000023,
      "v": 55
    },
    {
      "midi": 61,
      "hit": false,
      "t": 163844.32702343486,
      "d": 99.67674739583163,
      "v": 37
    },
    {
      "midi": 64,
      "hit": false,
      "t": 163847.0209895807,
      "d": 43.10345833332394,
      "v": 42
    },
    {
      "midi": 58,
      "hit": false,
      "t": 163871.2666848932,
      "d": 88.90088281247881,
      "v": 21
    },
    {
      "midi": 80,
      "hit": false,
      "t": 164105.64173958066,
      "d": 64.65518750000047,
      "v": 67
    },
    {
      "midi": 66,
      "hit": false,
      "t": 164124.4995026015,
      "d": 37.71552604166209,
      "v": 38
    },
    {
      "midi": 63,
      "hit": false,
      "t": 164358.874557289,
      "d": 83.51295052081696,
      "v": 57
    },
    {
      "midi": 66,
      "hit": false,
      "t": 164366.9564557265,
      "d": 88.90088281247881,
      "v": 69
    },
    {
      "midi": 78,
      "hit": false,
      "t": 164366.9564557265,
      "d": 91.59484895830974,
      "v": 58
    },
    {
      "midi": 58,
      "hit": false,
      "t": 164369.65042187233,
      "d": 145.4741718749574,
      "v": 45
    },
    {
      "midi": 75,
      "hit": false,
      "t": 164598.63754426813,
      "d": 156.2500364583393,
      "v": 48
    },
    {
      "midi": 58,
      "hit": false,
      "t": 164598.63754426813,
      "d": 161.63796875000116,
      "v": 33
    },
    {
      "midi": 63,
      "hit": false,
      "t": 164606.71944270562,
      "d": 145.4741718750156,
      "v": 44
    },
    {
      "midi": 52,
      "hit": false,
      "t": 164612.1073749973,
      "d": 118.53451041667722,
      "v": 40
    },
    {
      "midi": 75,
      "hit": false,
      "t": 164854.5643281223,
      "d": 91.59484895830974,
      "v": 48
    },
    {
      "midi": 63,
      "hit": false,
      "t": 164873.42209114315,
      "d": 67.34915364580229,
      "v": 51
    },
    {
      "midi": 58,
      "hit": false,
      "t": 164889.58588801813,
      "d": 96.9827812499716,
      "v": 47
    },
    {
      "midi": 52,
      "hit": false,
      "t": 164905.74968489312,
      "d": 113.14657812498626,
      "v": 52
    },
    {
      "midi": 73,
      "hit": false,
      "t": 165043.1419583306,
      "d": 70.04311979166232,
      "v": 44
    },
    {
      "midi": 61,
      "hit": false,
      "t": 165070.08161978895,
      "d": 99.67674739583163,
      "v": 36
    },
    {
      "midi": 70,
      "hit": false,
      "t": 165339.47823437228,
      "d": 115.84054427081719,
      "v": 43
    },
    {
      "midi": 58,
      "hit": false,
      "t": 165355.64203124726,
      "d": 137.3922734374937,
      "v": 57
    },
    {
      "midi": 66,
      "hit": false,
      "t": 165382.5816927056,
      "d": 37.71552604166209,
      "v": 38
    },
    {
      "midi": 51,
      "hit": false,
      "t": 165390.6635911431,
      "d": 61.96122135416954,
      "v": 37
    },
    {
      "midi": 64,
      "hit": false,
      "t": 165563.07742447642,
      "d": 455.2802786458051,
      "v": 42
    },
    {
      "midi": 69,
      "hit": false,
      "t": 165563.07742447642,
      "d": 528.0173645832983,
      "v": 55
    },
    {
      "midi": 57,
      "hit": false,
      "t": 165571.1593229139,
      "d": 579.2027213541442,
      "v": 25
    },
    {
      "midi": 51,
      "hit": false,
      "t": 166430.53452343473,
      "d": 91.59484895830974,
      "v": 17
    },
    {
      "midi": 52,
      "hit": false,
      "t": 166476.3319479139,
      "d": 45.79742447915487,
      "v": 36
    },
    {
      "midi": 65,
      "hit": false,
      "t": 166546.37506770555,
      "d": 129.31037500000093,
      "v": 58
    },
    {
      "midi": 60,
      "hit": false,
      "t": 166565.2328307264,
      "d": 177.80176562498673,
      "v": 53
    },
    {
      "midi": 53,
      "hit": false,
      "t": 166567.92679687223,
      "d": 282.8664453125093,
      "v": 41
    },
    {
      "midi": 62,
      "hit": false,
      "t": 166576.00869530972,
      "d": 113.14657812498626,
      "v": 28
    },
    {
      "midi": 57,
      "hit": false,
      "t": 166578.70266145555,
      "d": 218.21125781250885,
      "v": 41
    },
    {
      "midi": 72,
      "hit": false,
      "t": 167429.9959635389,
      "d": 250.53885156247998,
      "v": 85
    },
    {
      "midi": 65,
      "hit": false,
      "t": 167440.77182812223,
      "d": 172.41383333332487,
      "v": 80
    },
    {
      "midi": 60,
      "hit": false,
      "t": 167440.77182812223,
      "d": 210.12935937498696,
      "v": 91
    },
    {
      "midi": 61,
      "hit": false,
      "t": 167440.77182812223,
      "d": 299.0302421874949,
      "v": 83
    },
    {
      "midi": 69,
      "hit": false,
      "t": 167478.4873541639,
      "d": 67.3491536458314,
      "v": 31
    },
    {
      "midi": 58,
      "hit": false,
      "t": 167621.26755989305,
      "d": 396.0130234374956,
      "v": 60
    },
    {
      "midi": 71,
      "hit": false,
      "t": 167702.08654426807,
      "d": 67.3491536458314,
      "v": 36
    },
    {
      "midi": 75,
      "hit": false,
      "t": 167966.09522655973,
      "d": 220.90522395828157,
      "v": 81
    },
    {
      "midi": 67,
      "hit": false,
      "t": 167971.4831588514,
      "d": 164.331934895803,
      "v": 70
    },
    {
      "midi": 64,
      "hit": false,
      "t": 167976.87109114305,
      "d": 188.57763020831044,
      "v": 73
    },
    {
      "midi": 70,
      "hit": false,
      "t": 167982.25902343472,
      "d": 105.06467968749348,
      "v": 64
    },
    {
      "midi": 63,
      "hit": false,
      "t": 168006.50471874722,
      "d": 188.57763020828133,
      "v": 73
    },
    {
      "midi": 61,
      "hit": false,
      "t": 168176.2245859347,
      "d": 129.31037500000093,
      "v": 55
    },
    {
      "midi": 73,
      "hit": false,
      "t": 168192.38838280967,
      "d": 88.90088281250792,
      "v": 51
    },
    {
      "midi": 63,
      "hit": false,
      "t": 168510.276388018,
      "d": 134.6983072916628,
      "v": 37
    },
    {
      "midi": 81,
      "hit": false,
      "t": 168960.1687343722,
      "d": 126.6164088541118,
      "v": 72
    },
    {
      "midi": 73,
      "hit": false,
      "t": 168968.25063280968,
      "d": 134.69830729160458,
      "v": 67
    },
    {
      "midi": 70,
      "hit": false,
      "t": 168968.25063280968,
      "d": 161.63796874994296,
      "v": 71
    },
    {
      "midi": 76,
      "hit": false,
      "t": 168984.41442968466,
      "d": 53.87932291664765,
      "v": 47
    },
    {
      "midi": 69,
      "hit": false,
      "t": 168989.80236197633,
      "d": 121.22847656244994,
      "v": 69
    },
    {
      "midi": 67,
      "hit": false,
      "t": 169143.35843228878,
      "d": 37.71552604166209,
      "v": 37
    },
    {
      "midi": 79,
      "hit": false,
      "t": 169167.60412760128,
      "d": 37.715526041632984,
      "v": 44
    },
    {
      "midi": 61,
      "hit": false,
      "t": 169488.18609895543,
      "d": 67.3491536458314,
      "v": 50
    },
    {
      "midi": 51,
      "hit": false,
      "t": 169488.18609895543,
      "d": 105.06467968749348,
      "v": 56
    },
    {
      "midi": 82,
      "hit": false,
      "t": 169674.0697630179,
      "d": 59.26725520830951,
      "v": 55
    },
    {
      "midi": 60,
      "hit": false,
      "t": 169690.2335598929,
      "d": 51.185356770816725,
      "v": 55
    },
    {
      "midi": 84,
      "hit": false,
      "t": 169695.62149218455,
      "d": 35.02155989583116,
      "v": 55
    },
    {
      "midi": 72,
      "hit": false,
      "t": 169698.31545833038,
      "d": 32.32759375000023,
      "v": 43
    },
    {
      "midi": 57,
      "hit": false,
      "t": 169701.00942447621,
      "d": 53.87932291664765,
      "v": 32
    },
    {
      "midi": 50,
      "hit": false,
      "t": 169701.00942447621,
      "d": 115.84054427081719,
      "v": 49
    },
    {
      "midi": 68,
      "hit": false,
      "t": 170169.7595338512,
      "d": 80.81898437495693,
      "v": 52
    },
    {
      "midi": 80,
      "hit": false,
      "t": 170169.7595338512,
      "d": 115.84054427078809,
      "v": 34
    },
    {
      "midi": 77,
      "hit": false,
      "t": 170212.86299218453,
      "d": 269.39661458329647,
      "v": 37
    },
    {
      "midi": 60,
      "hit": false,
      "t": 170215.55695833036,
      "d": 323.2759374999441,
      "v": 48
    },
    {
      "midi": 57,
      "hit": false,
      "t": 170215.55695833036,
      "d": 347.52163281245157,
      "v": 33
    },
    {
      "midi": 50,
      "hit": false,
      "t": 170218.2509244762,
      "d": 382.54319270828273,
      "v": 35
    },
    {
      "midi": 74,
      "hit": false,
      "t": 170226.33282291368,
      "d": 264.0086822916346,
      "v": 25
    },
    {
      "midi": 81,
      "hit": false,
      "t": 170237.108687497,
      "d": 207.43539322915603,
      "v": 47
    },
    {
      "midi": 79,
      "hit": false,
      "t": 170258.66041666365,
      "d": 59.26725520833861,
      "v": 30
    },
    {
      "midi": 69,
      "hit": false,
      "t": 170258.66041666365,
      "d": 272.0905807291565,
      "v": 66
    },
    {
      "midi": 77,
      "hit": false,
      "t": 170700.4708645803,
      "d": 202.04746093746508,
      "v": 59
    },
    {
      "midi": 65,
      "hit": false,
      "t": 170727.41052603864,
      "d": 212.82332552078879,
      "v": 48
    },
    {
      "midi": 60,
      "hit": false,
      "t": 170735.49242447614,
      "d": 449.8923463541432,
      "v": 46
    },
    {
      "midi": 57,
      "hit": false,
      "t": 170740.8803567678,
      "d": 686.9613671874686,
      "v": 42
    },
    {
      "midi": 50,
      "hit": false,
      "t": 170743.57432291363,
      "d": 676.1855026041449,
      "v": 33
    },
    {
      "midi": 74,
      "hit": false,
      "t": 171215.01839843445,
      "d": 207.43539322915603,
      "v": 55
    },
    {
      "midi": 62,
      "hit": false,
      "t": 171220.4063307261,
      "d": 177.80176562498673,
      "v": 53
    },
    {
      "midi": 76,
      "hit": false,
      "t": 171732.25989843445,
      "d": 150.86210416661925,
      "v": 64
    },
    {
      "midi": 49,
      "hit": false,
      "t": 171748.42369530944,
      "d": 142.78020572912646,
      "v": 37
    },
    {
      "midi": 57,
      "hit": false,
      "t": 171751.11766145527,
      "d": 107.75864583332441,
      "v": 40
    },
    {
      "midi": 69,
      "hit": false,
      "t": 171756.50559374693,
      "d": 107.75864583332441,
      "v": 40
    },
    {
      "midi": 64,
      "hit": false,
      "t": 171756.50559374693,
      "d": 115.84054427081719,
      "v": 41
    },
    {
      "midi": 73,
      "hit": false,
      "t": 172225.2557031219,
      "d": 150.86210416661925,
      "v": 55
    },
    {
      "midi": 57,
      "hit": false,
      "t": 172249.50139843437,
      "d": 285.56041145828203,
      "v": 49
    },
    {
      "midi": 64,
      "hit": false,
      "t": 172254.88933072603,
      "d": 231.68108854163438,
      "v": 41
    },
    {
      "midi": 49,
      "hit": false,
      "t": 172262.97122916352,
      "d": 328.6638697916351,
      "v": 35
    },
    {
      "midi": 69,
      "hit": false,
      "t": 172273.74709374685,
      "d": 78.1250182291551,
      "v": 31
    },
    {
      "midi": 69,
      "hit": false,
      "t": 172755.967033851,
      "d": 355.60353125000256,
      "v": 64
    },
    {
      "midi": 57,
      "hit": false,
      "t": 172774.82479687184,
      "d": 185.8836640624795,
      "v": 49
    },
    {
      "midi": 64,
      "hit": false,
      "t": 172780.2127291635,
      "d": 226.29315624997253,
      "v": 39
    },
    {
      "midi": 61,
      "hit": false,
      "t": 172782.90669530933,
      "d": 280.1724791666493,
      "v": 36
    },
    {
      "midi": 49,
      "hit": false,
      "t": 172788.294627601,
      "d": 296.33627604166395,
      "v": 33
    },
    {
      "midi": 57,
      "hit": false,
      "t": 173294.76026301767,
      "d": 185.88366406250861,
      "v": 44
    },
    {
      "midi": 64,
      "hit": false,
      "t": 173294.76026301767,
      "d": 237.06902083335444,
      "v": 42
    },
    {
      "midi": 61,
      "hit": false,
      "t": 173294.76026301767,
      "d": 266.70264843752375,
      "v": 40
    },
    {
      "midi": 49,
      "hit": false,
      "t": 173294.76026301767,
      "d": 325.96990364586236,
      "v": 46
    },
    {
      "midi": 48,
      "hit": false,
      "t": 173822.77762760103,
      "d": 202.04746093749418,
      "v": 47
    },
    {
      "midi": 57,
      "hit": false,
      "t": 173825.47159374686,
      "d": 148.16813802081742,
      "v": 32
    },
    {
      "midi": 65,
      "hit": false,
      "t": 173838.941424476,
      "d": 153.55607031250838,
      "v": 26
    },
    {
      "midi": 60,
      "hit": false,
      "t": 173871.269018226,
      "d": 70.04311979166232,
      "v": 19
    },
    {
      "midi": 60,
      "hit": false,
      "t": 174304.9975677052,
      "d": 344.82766666667885,
      "v": 56
    },
    {
      "midi": 57,
      "hit": false,
      "t": 174315.77343228852,
      "d": 204.7414270833542,
      "v": 41
    },
    {
      "midi": 48,
      "hit": false,
      "t": 174318.46739843435,
      "d": 1600.2158906250552,
      "v": 51
    },
    {
      "midi": 62,
      "hit": false,
      "t": 174935.3856458302,
      "d": 59.26725520833861,
      "v": 35
    },
    {
      "midi": 64,
      "hit": false,
      "t": 175021.59256249687,
      "d": 32.32759375000023,
      "v": 58
    },
    {
      "midi": 67,
      "hit": false,
      "t": 175126.65724218436,
      "d": 86.20691666667699,
      "v": 72
    },
    {
      "midi": 69,
      "hit": false,
      "t": 175231.72192187188,
      "d": 32.32759375000023,
      "v": 69
    },
    {
      "midi": 72,
      "hit": false,
      "t": 175358.33833072605,
      "d": 105.06467968752258,
      "v": 52
    },
    {
      "midi": 74,
      "hit": false,
      "t": 175444.54524739273,
      "d": 110.45261197918444,
      "v": 54
    },
    {
      "midi": 76,
      "hit": false,
      "t": 175571.1616562469,
      "d": 75.43105208332418,
      "v": 51
    },
    {
      "midi": 79,
      "hit": false,
      "t": 175700.4720312469,
      "d": 102.37071354166255,
      "v": 82
    },
    {
      "midi": 76,
      "hit": false,
      "t": 175864.80396614273,
      "d": 78.1250182291842,
      "v": 80
    },
    {
      "midi": 74,
      "hit": false,
      "t": 176204.24370051775,
      "d": 88.90088281247881,
      "v": 84
    },
    {
      "midi": 48,
      "hit": false,
      "t": 176252.73509114273,
      "d": 83.51295052081696,
      "v": 25
    },
    {
      "midi": 72,
      "hit": false,
      "t": 176433.23082291355,
      "d": 360.9914635416644,
      "v": 34
    },
    {
      "midi": 57,
      "hit": false,
      "t": 177230.6448020802,
      "d": 40.40949218752212,
      "v": 44
    },
    {
      "midi": 48,
      "hit": false,
      "t": 177249.50256510105,
      "d": 35.02155989583116,
      "v": 32
    },
    {
      "midi": 69,
      "hit": false,
      "t": 177405.75260155936,
      "d": 43.10345833332394,
      "v": 56
    },
    {
      "midi": 70,
      "hit": false,
      "t": 177578.1664348927,
      "d": 72.73708593749325,
      "v": 65
    },
    {
      "midi": 72,
      "hit": false,
      "t": 177753.27423437184,
      "d": 99.67674739580252,
      "v": 76
    },
    {
      "midi": 62,
      "hit": false,
      "t": 177809.84752343435,
      "d": 266.70264843746554,
      "v": 40
    },
    {
      "midi": 58,
      "hit": false,
      "t": 177826.01132030934,
      "d": 285.56041145831114,
      "v": 36
    },
    {
      "midi": 57,
      "hit": false,
      "t": 177839.4811510385,
      "d": 789.3320807291602,
      "v": 27
    },
    {
      "midi": 69,
      "hit": false,
      "t": 177952.62772916348,
      "d": 115.8405442708463,
      "v": 57
    },
    {
      "midi": 65,
      "hit": false,
      "t": 178125.0415624968,
      "d": 61.96122135416954,
      "v": 38
    },
    {
      "midi": 67,
      "hit": false,
      "t": 178297.45539583013,
      "d": 123.92244270833908,
      "v": 60
    },
    {
      "midi": 62,
      "hit": false,
      "t": 178364.80454947596,
      "d": 75.43105208335328,
      "v": 26
    },
    {
      "midi": 58,
      "hit": false,
      "t": 178383.6623124968,
      "d": 113.14657812501537,
      "v": 33
    },
    {
      "midi": 69,
      "hit": false,
      "t": 178491.42095833016,
      "d": 99.67674739583163,
      "v": 57
    },
    {
      "midi": 65,
      "hit": false,
      "t": 178836.2486249968,
      "d": 118.53451041667722,
      "v": 66
    },
    {
      "midi": 58,
      "hit": false,
      "t": 178844.3305234343,
      "d": 118.53451041667722,
      "v": 34
    },
    {
      "midi": 57,
      "hit": false,
      "t": 178865.88225260098,
      "d": 53.879322916676756,
      "v": 20
    },
    {
      "midi": 62,
      "hit": false,
      "t": 179051.76591666348,
      "d": 204.7414270833251,
      "v": 37
    },
    {
      "midi": 62,
      "hit": false,
      "t": 179345.40822655932,
      "d": 67.3491536458314,
      "v": 62
    },
    {
      "midi": 58,
      "hit": false,
      "t": 180002.73596614262,
      "d": 280.1724791666493,
      "v": 46
    },
    {
      "midi": 62,
      "hit": false,
      "t": 180002.73596614262,
      "d": 474.1380416666507,
      "v": 40
    },
    {
      "midi": 54,
      "hit": false,
      "t": 180005.42993228845,
      "d": 1783.4055885416456,
      "v": 46
    },
    {
      "midi": 58,
      "hit": false,
      "t": 180350.2575989551,
      "d": 528.0173645833856,
      "v": 13
    },
    {
      "midi": 66,
      "hit": false,
      "t": 180549.6110937468,
      "d": 115.8405442708463,
      "v": 60
    },
    {
      "midi": 58,
      "hit": false,
      "t": 180959.09394791347,
      "d": 169.71986718749395,
      "v": 15
    },
    {
      "midi": 66,
      "hit": false,
      "t": 181047.99483072598,
      "d": 110.45261197915534,
      "v": 39
    },
    {
      "midi": 67,
      "hit": false,
      "t": 181171.9172734343,
      "d": 123.92244270830997,
      "v": 41
    },
    {
      "midi": 68,
      "hit": false,
      "t": 181252.73625780927,
      "d": 110.45261197915534,
      "v": 60
    },
    {
      "midi": 69,
      "hit": false,
      "t": 181384.7405989551,
      "d": 94.28881510416977,
      "v": 55
    },
    {
      "midi": 67,
      "hit": false,
      "t": 181559.84839843426,
      "d": 102.37071354166255,
      "v": 48
    },
    {
      "midi": 66,
      "hit": false,
      "t": 181705.32257030925,
      "d": 102.37071354169166,
      "v": 23
    },
    {
      "midi": 54,
      "hit": false,
      "t": 181961.24935416345,
      "d": 148.16813802081742,
      "v": 49
    },
    {
      "midi": 58,
      "hit": false,
      "t": 181972.02521874677,
      "d": 754.3105208333291,
      "v": 34
    },
    {
      "midi": 62,
      "hit": false,
      "t": 181974.7191848926,
      "d": 88.90088281250792,
      "v": 34
    },
    {
      "midi": 62,
      "hit": false,
      "t": 182201.0123411426,
      "d": 417.5647526041721,
      "v": 28
    },
    {
      "midi": 53,
      "hit": false,
      "t": 182225.2580364551,
      "d": 592.6725520833279,
      "v": 38
    },
    {
      "midi": 58,
      "hit": false,
      "t": 182952.6288958301,
      "d": 91.59484895833884,
      "v": 44
    },
    {
      "midi": 62,
      "hit": false,
      "t": 182958.01682812176,
      "d": 43.103458333353046,
      "v": 45
    },
    {
      "midi": 53,
      "hit": false,
      "t": 182976.8745911426,
      "d": 37.71552604166209,
      "v": 26
    },
    {
      "midi": 65,
      "hit": false,
      "t": 183300.1505286426,
      "d": 56.57328906250768,
      "v": 62
    },
    {
      "midi": 67,
      "hit": false,
      "t": 183459.09453124678,
      "d": 99.67674739583163,
      "v": 71
    },
    {
      "midi": 58,
      "hit": false,
      "t": 183486.03419270512,
      "d": 115.84054427081719,
      "v": 36
    },
    {
      "midi": 62,
      "hit": false,
      "t": 183494.1160911426,
      "d": 40.409492187493015,
      "v": 30
    },
    {
      "midi": 69,
      "hit": false,
      "t": 183650.36612760092,
      "d": 129.31037500000093,
      "v": 75
    },
    {
      "midi": 58,
      "hit": false,
      "t": 183970.9480989551,
      "d": 110.45261197915534,
      "v": 50
    },
    {
      "midi": 70,
      "hit": false,
      "t": 183976.33603124676,
      "d": 123.92244270830997,
      "v": 71
    },
    {
      "midi": 61,
      "hit": false,
      "t": 184170.30159374673,
      "d": 234.3750546874653,
      "v": 64
    },
    {
      "midi": 72,
      "hit": false,
      "t": 184183.77142447588,
      "d": 231.68108854163438,
      "v": 56
    },
    {
      "midi": 65,
      "hit": false,
      "t": 184186.4653906217,
      "d": 185.8836640624795,
      "v": 57
    },
    {
      "midi": 60,
      "hit": false,
      "t": 184197.24125520504,
      "d": 218.21125781247974,
      "v": 59
    },
    {
      "midi": 69,
      "hit": false,
      "t": 184210.7110859342,
      "d": 158.94400260417024,
      "v": 38
    },
    {
      "midi": 70,
      "hit": false,
      "t": 184633.66377083003,
      "d": 231.68108854163438,
      "v": 62
    },
    {
      "midi": 75,
      "hit": false,
      "t": 184636.35773697586,
      "d": 255.92678385414183,
      "v": 73
    },
    {
      "midi": 63,
      "hit": false,
      "t": 184636.35773697586,
      "d": 272.0905807291274,
      "v": 68
    },
    {
      "midi": 64,
      "hit": false,
      "t": 184641.74566926752,
      "d": 191.27159635414137,
      "v": 63
    },
    {
      "midi": 67,
      "hit": false,
      "t": 184644.43963541335,
      "d": 185.8836640624795,
      "v": 57
    },
    {
      "midi": 78,
      "hit": false,
      "t": 185156.29320312166,
      "d": 107.75864583332441,
      "v": 64
    },
    {
      "midi": 67,
      "hit": false,
      "t": 185164.37510155916,
      "d": 61.96122135416954,
      "v": 40
    },
    {
      "midi": 70,
      "hit": false,
      "t": 185172.45699999665,
      "d": 35.02155989583116,
      "v": 46
    },
    {
      "midi": 66,
      "hit": false,
      "t": 185175.15096614248,
      "d": 393.31905729166465,
      "v": 60
    },
    {
      "midi": 79,
      "hit": false,
      "t": 185525.36656510082,
      "d": 118.53451041664812,
      "v": 56
    },
    {
      "midi": 69,
      "hit": false,
      "t": 185536.14242968414,
      "d": 35.02155989583116,
      "v": 60
    },
    {
      "midi": 76,
      "hit": false,
      "t": 185692.39246614245,
      "d": 204.7414270832669,
      "v": 71
    },
    {
      "midi": 73,
      "hit": false,
      "t": 185692.39246614245,
      "d": 210.12935937492875,
      "v": 77
    },
    {
      "midi": 84,
      "hit": false,
      "t": 185695.08643228828,
      "d": 175.1077994791267,
      "v": 81
    },
    {
      "midi": 72,
      "hit": false,
      "t": 185711.25022916327,
      "d": 239.76298697909806,
      "v": 72
    },
    {
      "midi": 79,
      "hit": false,
      "t": 185722.0260937466,
      "d": 164.331934895803,
      "v": 57
    },
    {
      "midi": 82,
      "hit": false,
      "t": 185738.18989062158,
      "d": 150.86210416664835,
      "v": 39
    },
    {
      "midi": 82,
      "hit": false,
      "t": 186034.5261666632,
      "d": 118.53451041661901,
      "v": 53
    },
    {
      "midi": 70,
      "hit": false,
      "t": 186037.22013280905,
      "d": 150.86210416661925,
      "v": 64
    },
    {
      "midi": 73,
      "hit": false,
      "t": 186045.30203124654,
      "d": 129.31037499997183,
      "v": 67
    },
    {
      "midi": 76,
      "hit": false,
      "t": 186061.46582812152,
      "d": 75.43105208332418,
      "v": 58
    },
    {
      "midi": 69,
      "hit": false,
      "t": 186309.31071353817,
      "d": 94.28881510414067,
      "v": 41
    },
    {
      "midi": 81,
      "hit": false,
      "t": 186314.69864582983,
      "d": 72.73708593749325,
      "v": 48
    },
    {
      "midi": 72,
      "hit": false,
      "t": 186330.86244270482,
      "d": 115.84054427081719,
      "v": 40
    },
    {
      "midi": 76,
      "hit": false,
      "t": 186352.4141718715,
      "d": 40.409492187493015,
      "v": 31
    },
    {
      "midi": 67,
      "hit": false,
      "t": 186702.6297708298,
      "d": 148.16813802084653,
      "v": 31
    },
    {
      "midi": 79,
      "hit": false,
      "t": 186705.32373697564,
      "d": 175.1077994791849,
      "v": 46
    },
    {
      "midi": 69,
      "hit": false,
      "t": 186705.32373697564,
      "d": 212.823325520847,
      "v": 39
    },
    {
      "midi": 76,
      "hit": false,
      "t": 186710.7116692673,
      "d": 161.63796875003027,
      "v": 34
    },
    {
      "midi": 72,
      "hit": false,
      "t": 186732.26339843398,
      "d": 180.49573177084676,
      "v": 44
    },
    {
      "midi": 65,
      "hit": false,
      "t": 187069.00916666316,
      "d": 115.84054427078809,
      "v": 44
    },
    {
      "midi": 77,
      "hit": false,
      "t": 187071.703132809,
      "d": 83.51295052081696,
      "v": 51
    },
    {
      "midi": 69,
      "hit": false,
      "t": 187079.7850312465,
      "d": 88.90088281247881,
      "v": 57
    },
    {
      "midi": 72,
      "hit": false,
      "t": 187082.47899739232,
      "d": 53.87932291664765,
      "v": 45
    },
    {
      "midi": 76,
      "hit": false,
      "t": 187370.73337499646,
      "d": 317.8880052083405,
      "v": 55
    },
    {
      "midi": 69,
      "hit": false,
      "t": 187392.28510416314,
      "d": 234.3750546874944,
      "v": 53
    },
    {
      "midi": 64,
      "hit": false,
      "t": 187392.28510416314,
      "d": 317.8880052083405,
      "v": 32
    },
    {
      "midi": 65,
      "hit": false,
      "t": 187394.97907030897,
      "d": 231.68108854166348,
      "v": 41
    },
    {
      "midi": 74,
      "hit": false,
      "t": 187761.35846614232,
      "d": 358.2974973958335,
      "v": 43
    },
    {
      "midi": 69,
      "hit": false,
      "t": 187769.44036457982,
      "d": 123.92244270833908,
      "v": 47
    },
    {
      "midi": 65,
      "hit": false,
      "t": 187769.44036457982,
      "d": 234.3750546874944,
      "v": 37
    },
    {
      "midi": 61,
      "hit": false,
      "t": 187769.44036457982,
      "d": 406.7888880208484,
      "v": 49
    },
    {
      "midi": 65,
      "hit": false,
      "t": 188259.74220312148,
      "d": 471.44407552081975,
      "v": 36
    },
    {
      "midi": 72,
      "hit": false,
      "t": 188265.13013541314,
      "d": 581.8966875000042,
      "v": 45
    },
    {
      "midi": 69,
      "hit": false,
      "t": 188270.5180677048,
      "d": 436.4225156249886,
      "v": 45
    },
    {
      "midi": 60,
      "hit": false,
      "t": 188275.90599999647,
      "d": 506.46563541668,
      "v": 53
    },
    {
      "midi": 62,
      "hit": false,
      "t": 189286.143304684,
      "d": 412.17682031248114,
      "v": 39
    },
    {
      "midi": 69,
      "hit": false,
      "t": 189286.143304684,
      "d": 554.9570260416367,
      "v": 50
    },
    {
      "midi": 60,
      "hit": false,
      "t": 189302.30710155898,
      "d": 576.5087552083132,
      "v": 36
    },
    {
      "midi": 65,
      "hit": false,
      "t": 189305.0010677048,
      "d": 498.38373697915813,
      "v": 40
    },
    {
      "midi": 57,
      "hit": false,
      "t": 189337.3286614548,
      "d": 660.0217057291593,
      "v": 27
    },
    {
      "midi": 50,
      "hit": false,
      "t": 189342.71659374647,
      "d": 678.8794687500049,
      "v": 30
    },
    {
      "midi": 50,
      "hit": false,
      "t": 190299.0745755173,
      "d": 533.4052968749893,
      "v": 40
    },
    {
      "midi": 60,
      "hit": false,
      "t": 190304.46250780896,
      "d": 517.2415000000037,
      "v": 38
    },
    {
      "midi": 54,
      "hit": false,
      "t": 190312.54440624645,
      "d": 627.6941119791882,
      "v": 39
    },
    {
      "midi": 86,
      "hit": false,
      "t": 190856.7255677048,
      "d": 64.65518750000047,
      "v": 71
    },
    {
      "midi": 87,
      "hit": false,
      "t": 190942.93248437147,
      "d": 145.4741718749865,
      "v": 57
    },
    {
      "midi": 86,
      "hit": false,
      "t": 191023.75146874646,
      "d": 183.1896979166777,
      "v": 48
    },
    {
      "midi": 85,
      "hit": false,
      "t": 191188.0834036423,
      "d": 105.06467968752258,
      "v": 57
    },
    {
      "midi": 84,
      "hit": false,
      "t": 191330.86360937147,
      "d": 75.43105208332418,
      "v": 47
    },
    {
      "midi": 82,
      "hit": false,
      "t": 191643.36368228812,
      "d": 110.45261197918444,
      "v": 75
    },
    {
      "midi": 60,
      "hit": false,
      "t": 191678.38524218395,
      "d": 53.879322916676756,
      "v": 40
    },
    {
      "midi": 78,
      "hit": false,
      "t": 191845.41114322565,
      "d": 121.22847656250815,
      "v": 60
    },
    {
      "midi": 77,
      "hit": false,
      "t": 192017.824976559,
      "d": 78.1250182291551,
      "v": 43
    },
    {
      "midi": 75,
      "hit": false,
      "t": 192190.23880989233,
      "d": 102.37071354163345,
      "v": 60
    },
    {
      "midi": 60,
      "hit": false,
      "t": 192206.4026067673,
      "d": 51.185356770816725,
      "v": 39
    },
    {
      "midi": 54,
      "hit": false,
      "t": 192219.87243749647,
      "d": 94.28881510416977,
      "v": 28
    },
    {
      "midi": 74,
      "hit": false,
      "t": 192370.73454166314,
      "d": 105.06467968749348,
      "v": 55
    },
    {
      "midi": 73,
      "hit": false,
      "t": 192535.06647655898,
      "d": 107.75864583332441,
      "v": 63
    },
    {
      "midi": 72,
      "hit": false,
      "t": 192680.54064843396,
      "d": 78.1250182291842,
      "v": 63
    },
    {
      "midi": 60,
      "hit": false,
      "t": 192707.4803098923,
      "d": 37.71552604169119,
      "v": 46
    },
    {
      "midi": 54,
      "hit": false,
      "t": 192726.33807291315,
      "d": 91.59484895833884,
      "v": 32
    },
    {
      "midi": 70,
      "hit": false,
      "t": 192847.56654947565,
      "d": 134.6983072916628,
      "v": 67
    },
    {
      "midi": 68,
      "hit": false,
      "t": 193003.816585934,
      "d": 113.14657812498626,
      "v": 58
    },
    {
      "midi": 66,
      "hit": false,
      "t": 193130.43299478813,
      "d": 105.06467968752258,
      "v": 46
    },
    {
      "midi": 54,
      "hit": false,
      "t": 193213.94594530898,
      "d": 129.31037500000093,
      "v": 36
    },
    {
      "midi": 65,
      "hit": false,
      "t": 193273.21320051732,
      "d": 75.43105208332418,
      "v": 42
    },
    {
      "midi": 63,
      "hit": false,
      "t": 193418.6873723923,
      "d": 129.31037500000093,
      "v": 31
    },
    {
      "midi": 62,
      "hit": false,
      "t": 193526.44601822563,
      "d": 94.28881510416977,
      "v": 48
    },
    {
      "midi": 61,
      "hit": false,
      "t": 193661.1443255173,
      "d": 78.1250182291551,
      "v": 53
    },
    {
      "midi": 60,
      "hit": false,
      "t": 193760.82107291312,
      "d": 105.06467968749348,
      "v": 62
    },
    {
      "midi": 44,
      "hit": false,
      "t": 193868.57971874645,
      "d": 571.1208229166805,
      "v": 32
    },
    {
      "midi": 59,
      "hit": false,
      "t": 193892.82541405896,
      "d": 83.51295052081696,
      "v": 53
    },
    {
      "midi": 54,
      "hit": false,
      "t": 193895.5193802048,
      "d": 212.8233255208179,
      "v": 27
    },
    {
      "midi": 58,
      "hit": false,
      "t": 194038.29958593394,
      "d": 45.79742447915487,
      "v": 37
    },
    {
      "midi": 57,
      "hit": false,
      "t": 194162.22202864228,
      "d": 78.1250182291551,
      "v": 32
    },
    {
      "midi": 55,
      "hit": false,
      "t": 194331.94189582978,
      "d": 83.51295052084606,
      "v": 44
    },
    {
      "midi": 50,
      "hit": false,
      "t": 194358.8815572881,
      "d": 115.8405442708463,
      "v": 53
    },
    {
      "midi": 53,
      "hit": false,
      "t": 194498.96779687147,
      "d": 185.8836640624795,
      "v": 37
    },
    {
      "midi": 60,
      "hit": false,
      "t": 194504.35572916313,
      "d": 183.18969791664858,
      "v": 69
    },
    {
      "midi": 43,
      "hit": false,
      "t": 194515.13159374645,
      "d": 1134.159747395839,
      "v": 36
    },
    {
      "midi": 57,
      "hit": false,
      "t": 194711.7911223923,
      "d": 67.3491536458314,
      "v": 57
    },
    {
      "midi": 58,
      "hit": false,
      "t": 194854.57132812144,
      "d": 118.53451041667722,
      "v": 64
    },
    {
      "midi": 50,
      "hit": false,
      "t": 194905.7566848923,
      "d": 83.51295052081696,
      "v": 24
    },
    {
      "midi": 54,
      "hit": false,
      "t": 195048.53689062144,
      "d": 180.49573177084676,
      "v": 32
    },
    {
      "midi": 55,
      "hit": false,
      "t": 195390.6705911423,
      "d": 132.00434114583186,
      "v": 64
    },
    {
      "midi": 53,
      "hit": false,
      "t": 195422.9981848923,
      "d": 40.409492187493015,
      "v": 24
    },
    {
      "midi": 57,
      "hit": false,
      "t": 195625.04564582978,
      "d": 202.04746093749418,
      "v": 36
    },
    {
      "midi": 58,
      "hit": false,
      "t": 195883.6663958298,
      "d": 121.22847656250815,
      "v": 55
    },
    {
      "midi": 60,
      "hit": false,
      "t": 196099.18368749646,
      "d": 223.5991901041707,
      "v": 57
    },
    {
      "midi": 62,
      "hit": false,
      "t": 196398.21392968396,
      "d": 140.08623958329554,
      "v": 60
    },
    {
      "midi": 58,
      "hit": false,
      "t": 196444.0113541631,
      "d": 78.1250182291551,
      "v": 45
    },
    {
      "midi": 64,
      "hit": false,
      "t": 196643.36484895475,
      "d": 193.9655625000014,
      "v": 44
    },
    {
      "midi": 58,
      "hit": false,
      "t": 196912.76146353807,
      "d": 107.75864583332441,
      "v": 44
    },
    {
      "midi": 65,
      "hit": false,
      "t": 196918.14939582974,
      "d": 137.3922734374937,
      "v": 61
    },
    {
      "midi": 52,
      "hit": false,
      "t": 196931.6192265589,
      "d": 43.103458333353046,
      "v": 34
    },
    {
      "midi": 67,
      "hit": false,
      "t": 197152.52445051723,
      "d": 202.04746093749418,
      "v": 35
    },
    {
      "midi": 69,
      "hit": false,
      "t": 197438.08486197557,
      "d": 118.53451041664812,
      "v": 75
    },
    {
      "midi": 63,
      "hit": false,
      "t": 197440.7788281214,
      "d": 72.73708593749325,
      "v": 52
    },
    {
      "midi": 58,
      "hit": false,
      "t": 197446.16676041306,
      "d": 102.37071354166255,
      "v": 45
    },
    {
      "midi": 52,
      "hit": false,
      "t": 197454.24865885056,
      "d": 53.879322916676756,
      "v": 50
    },
    {
      "midi": 52,
      "hit": false,
      "t": 197648.21422135056,
      "d": 115.84054427081719,
      "v": 36
    },
    {
      "midi": 58,
      "hit": false,
      "t": 197664.37801822554,
      "d": 115.84054427081719,
      "v": 32
    },
    {
      "midi": 70,
      "hit": false,
      "t": 197694.0116458297,
      "d": 177.80176562498673,
      "v": 57
    },
    {
      "midi": 72,
      "hit": false,
      "t": 197963.40826041304,
      "d": 75.43105208335328,
      "v": 64
    },
    {
      "midi": 58,
      "hit": false,
      "t": 197974.18412499636,
      "d": 88.90088281250792,
      "v": 50
    },
    {
      "midi": 60,
      "hit": false,
      "t": 197976.8780911422,
      "d": 43.103458333353046,
      "v": 68
    },
    {
      "midi": 52,
      "hit": false,
      "t": 197995.73585416304,
      "d": 59.26725520833861,
      "v": 44
    },
    {
      "midi": 52,
      "hit": false,
      "t": 198168.14968749636,
      "d": 99.67674739583163,
      "v": 40
    },
    {
      "midi": 58,
      "hit": false,
      "t": 198178.9255520797,
      "d": 140.08623958335374,
      "v": 33
    },
    {
      "midi": 73,
      "hit": false,
      "t": 198189.701416663,
      "d": 40.409492187493015,
      "v": 48
    },
    {
      "midi": 61,
      "hit": false,
      "t": 198189.701416663,
      "d": 59.26725520833861,
      "v": 44
    },
    {
      "midi": 62,
      "hit": false,
      "t": 198456.40406510053,
      "d": 72.73708593746414,
      "v": 71
    },
    {
      "midi": 74,
      "hit": false,
      "t": 198456.40406510053,
      "d": 83.51295052078785,
      "v": 62
    },
    {
      "midi": 60,
      "hit": false,
      "t": 198472.56786197552,
      "d": 40.409492187493015,
      "v": 50
    },
    {
      "midi": 57,
      "hit": false,
      "t": 198475.26182812135,
      "d": 72.73708593746414,
      "v": 51
    },
    {
      "midi": 53,
      "hit": false,
      "t": 198483.34372655884,
      "d": 45.79742447915487,
      "v": 40
    },
    {
      "midi": 57,
      "hit": false,
      "t": 198693.4730859338,
      "d": 107.7586458332953,
      "v": 41
    },
    {
      "midi": 63,
      "hit": false,
      "t": 198698.86101822546,
      "d": 161.63796874997206,
      "v": 49
    },
    {
      "midi": 75,
      "hit": false,
      "t": 198701.5549843713,
      "d": 156.2500364583102,
      "v": 57
    },
    {
      "midi": 60,
      "hit": false,
      "t": 198706.94291666296,
      "d": 48.4913906249858,
      "v": 31
    },
    {
      "midi": 53,
      "hit": false,
      "t": 198720.4127473921,
      "d": 75.43105208332418,
      "v": 26
    },
    {
      "midi": 60,
      "hit": false,
      "t": 198965.56366666293,
      "d": 96.9827812499716,
      "v": 60
    },
    {
      "midi": 64,
      "hit": false,
      "t": 198973.64556510042,
      "d": 78.1250182291551,
      "v": 68
    },
    {
      "midi": 76,
      "hit": false,
      "t": 198973.64556510042,
      "d": 80.81898437498603,
      "v": 61
    },
    {
      "midi": 57,
      "hit": false,
      "t": 198984.42142968375,
      "d": 96.9827812500007,
      "v": 49
    },
    {
      "midi": 53,
      "hit": false,
      "t": 198992.50332812124,
      "d": 61.96122135416954,
      "v": 36
    },
    {
      "midi": 65,
      "hit": false,
      "t": 199175.69302603792,
      "d": 88.90088281244971,
      "v": 64
    },
    {
      "midi": 77,
      "hit": false,
      "t": 199178.38699218375,
      "d": 129.31037499994272,
      "v": 64
    },
    {
      "midi": 60,
      "hit": false,
      "t": 199186.46889062124,
      "d": 126.6164088541118,
      "v": 48
    },
    {
      "midi": 53,
      "hit": false,
      "t": 199202.63268749623,
      "d": 126.6164088541118,
      "v": 25
    },
    {
      "midi": 57,
      "hit": false,
      "t": 199202.63268749623,
      "d": 134.69830729160458,
      "v": 30
    },
    {
      "midi": 64,
      "hit": false,
      "t": 199218.7964843712,
      "d": 86.20691666664788,
      "v": 30
    },
    {
      "midi": 67,
      "hit": false,
      "t": 199488.1930989545,
      "d": 78.1250182291551,
      "v": 68
    },
    {
      "midi": 79,
      "hit": false,
      "t": 199488.1930989545,
      "d": 88.90088281247881,
      "v": 67
    },
    {
      "midi": 57,
      "hit": false,
      "t": 199501.66292968366,
      "d": 126.6164088541118,
      "v": 56
    },
    {
      "midi": 60,
      "hit": false,
      "t": 199504.3568958295,
      "d": 94.28881510414067,
      "v": 61
    },
    {
      "midi": 53,
      "hit": false,
      "t": 199504.3568958295,
      "d": 110.45261197912623,
      "v": 52
    },
    {
      "midi": 64,
      "hit": false,
      "t": 199507.05086197532,
      "d": 67.3491536458314,
      "v": 57
    },
    {
      "midi": 77,
      "hit": false,
      "t": 199533.99052343366,
      "d": 56.57328906247858,
      "v": 33
    },
    {
      "midi": 80,
      "hit": false,
      "t": 199717.18022135025,
      "d": 153.55607031247928,
      "v": 60
    },
    {
      "midi": 57,
      "hit": false,
      "t": 199722.5681536419,
      "d": 158.94400260414113,
      "v": 53
    },
    {
      "midi": 68,
      "hit": false,
      "t": 199725.26211978775,
      "d": 121.22847656247905,
      "v": 54
    },
    {
      "midi": 53,
      "hit": false,
      "t": 199727.95608593358,
      "d": 156.2500364583102,
      "v": 32
    },
    {
      "midi": 60,
      "hit": false,
      "t": 199730.6500520794,
      "d": 140.08623958332464,
      "v": 43
    },
    {
      "midi": 64,
      "hit": false,
      "t": 199738.7319505169,
      "d": 67.3491536458314,
      "v": 24
    },
    {
      "midi": 81,
      "hit": false,
      "t": 199997.35270051687,
      "d": 72.73708593743504,
      "v": 66
    },
    {
      "midi": 69,
      "hit": false,
      "t": 200002.74063280853,
      "d": 51.18535677078762,
      "v": 76
    },
    {
      "midi": 53,
      "hit": false,
      "t": 200002.74063280853,
      "d": 105.06467968740617,
      "v": 48
    },
    {
      "midi": 75,
      "hit": false,
      "t": 200005.43459895437,
      "d": 83.51295052075875,
      "v": 67
    },
    {
      "midi": 60,
      "hit": false,
      "t": 200013.51649739186,
      "d": 88.9008828124206,
      "v": 54
    },
    {
      "midi": 57,
      "hit": false,
      "t": 200016.2104635377,
      "d": 110.45261197909713,
      "v": 50
    },
    {
      "midi": 64,
      "hit": false,
      "t": 200024.29236197518,
      "d": 43.10345833329484,
      "v": 38
    },
    {
      "midi": 78,
      "hit": false,
      "t": 200037.76219270434,
      "d": 45.797424479125766,
      "v": 28
    },
    {
      "midi": 53,
      "hit": false,
      "t": 200188.62429687096,
      "d": 129.31037499997183,
      "v": 29
    },
    {
      "midi": 60,
      "hit": false,
      "t": 200199.40016145428,
      "d": 148.16813802081742,
      "v": 54
    },
    {
      "midi": 64,
      "hit": false,
      "t": 200199.40016145428,
      "d": 150.86210416664835,
      "v": 47
    },
    {
      "midi": 57,
      "hit": false,
      "t": 200210.1760260376,
      "d": 118.53451041664812,
      "v": 57
    },
    {
      "midi": 82,
      "hit": false,
      "t": 200212.86999218343,
      "d": 172.41383333332487,
      "v": 77
    },
    {
      "midi": 70,
      "hit": false,
      "t": 200218.2579244751,
      "d": 169.71986718749395,
      "v": 69
    },
    {
      "midi": 84,
      "hit": false,
      "t": 200509.2062682251,
      "d": 134.6983072916628,
      "v": 78
    },
    {
      "midi": 65,
      "hit": false,
      "t": 200509.2062682251,
      "d": 175.1077994791558,
      "v": 79
    },
    {
      "midi": 61,
      "hit": false,
      "t": 200514.59420051676,
      "d": 188.57763020831044,
      "v": 68
    },
    {
      "midi": 72,
      "hit": false,
      "t": 200519.98213280842,
      "d": 129.31037500000093,
      "v": 77
    },
    {
      "midi": 58,
      "hit": false,
      "t": 200519.98213280842,
      "d": 177.80176562498673,
      "v": 59
    },
    {
      "midi": 54,
      "hit": false,
      "t": 200519.98213280842,
      "d": 180.49573177081766,
      "v": 67
    },
    {
      "midi": 65,
      "hit": false,
      "t": 200786.68478124592,
      "d": 153.55607031247928,
      "v": 55
    },
    {
      "midi": 85,
      "hit": false,
      "t": 200789.37874739175,
      "d": 142.78020572915557,
      "v": 76
    },
    {
      "midi": 61,
      "hit": false,
      "t": 200792.07271353758,
      "d": 164.331934895803,
      "v": 46
    },
    {
      "midi": 54,
      "hit": false,
      "t": 200797.46064582924,
      "d": 158.94400260414113,
      "v": 56
    },
    {
      "midi": 73,
      "hit": false,
      "t": 200800.15461197507,
      "d": 132.00434114583186,
      "v": 68
    },
    {
      "midi": 58,
      "hit": false,
      "t": 200802.8485781209,
      "d": 164.331934895803,
      "v": 49
    },
    {
      "midi": 75,
      "hit": false,
      "t": 201047.9994973917,
      "d": 110.45261197915534,
      "v": 74
    },
    {
      "midi": 87,
      "hit": false,
      "t": 201053.38742968335,
      "d": 110.45261197915534,
      "v": 74
    },
    {
      "midi": 61,
      "hit": false,
      "t": 201053.38742968335,
      "d": 113.14657812498626,
      "v": 53
    },
    {
      "midi": 58,
      "hit": false,
      "t": 201056.08139582918,
      "d": 126.6164088541409,
      "v": 52
    },
    {
      "midi": 54,
      "hit": false,
      "t": 201061.46932812085,
      "d": 113.14657812498626,
      "v": 54
    },
    {
      "midi": 65,
      "hit": false,
      "t": 201064.16329426668,
      "d": 61.96122135416954,
      "v": 62
    },
    {
      "midi": 54,
      "hit": false,
      "t": 201258.12885676668,
      "d": 134.6983072916628,
      "v": 48
    },
    {
      "midi": 89,
      "hit": false,
      "t": 201263.51678905834,
      "d": 96.9827812500007,
      "v": 77
    },
    {
      "midi": 61,
      "hit": false,
      "t": 201263.51678905834,
      "d": 153.55607031250838,
      "v": 54
    },
    {
      "midi": 77,
      "hit": false,
      "t": 201266.21075520417,
      "d": 96.9827812500007,
      "v": 74
    },
    {
      "midi": 58,
      "hit": false,
      "t": 201268.90472135,
      "d": 145.4741718750156,
      "v": 37
    },
    {
      "midi": 65,
      "hit": false,
      "t": 201274.29265364166,
      "d": 83.51295052084606,
      "v": 50
    },
    {
      "midi": 61,
      "hit": false,
      "t": 201522.13753905834,
      "d": 115.84054427081719,
      "v": 45
    },
    {
      "midi": 54,
      "hit": false,
      "t": 201532.91340364167,
      "d": 115.84054427081719,
      "v": 59
    },
    {
      "midi": 58,
      "hit": false,
      "t": 201538.30133593333,
      "d": 150.86210416664835,
      "v": 48
    },
    {
      "midi": 65,
      "hit": false,
      "t": 201540.99530207916,
      "d": 35.02155989583116,
      "v": 48
    },
    {
      "midi": 90,
      "hit": false,
      "t": 201554.4651328083,
      "d": 72.73708593752235,
      "v": 75
    },
    {
      "midi": 78,
      "hit": false,
      "t": 201554.4651328083,
      "d": 86.20691666667699,
      "v": 74
    },
    {
      "midi": 64,
      "hit": false,
      "t": 201759.20655989164,
      "d": 164.3319348958321,
      "v": 45
    },
    {
      "midi": 54,
      "hit": false,
      "t": 201759.20655989164,
      "d": 175.1077994791558,
      "v": 49
    },
    {
      "midi": 80,
      "hit": false,
      "t": 201761.90052603747,
      "d": 191.27159635417047,
      "v": 60
    },
    {
      "midi": 92,
      "hit": false,
      "t": 201764.5944921833,
      "d": 161.63796875000116,
      "v": 68
    },
    {
      "midi": 60,
      "hit": false,
      "t": 201786.14622134998,
      "d": 145.4741718749865,
      "v": 46
    },
    {
      "midi": 93,
      "hit": false,
      "t": 202052.84886978747,
      "d": 75.43105208329507,
      "v": 72
    },
    {
      "midi": 81,
      "hit": false,
      "t": 202060.93076822496,
      "d": 35.02155989583116,
      "v": 58
    },
    {
      "midi": 54,
      "hit": false,
      "t": 202060.93076822496,
      "d": 83.51295052078785,
      "v": 67
    },
    {
      "midi": 64,
      "hit": false,
      "t": 202069.01266666246,
      "d": 51.185356770816725,
      "v": 57
    },
    {
      "midi": 60,
      "hit": false,
      "t": 202069.01266666246,
      "d": 56.57328906247858,
      "v": 55
    },
    {
      "midi": 87,
      "hit": false,
      "t": 202071.7066328083,
      "d": 32.32759375000023,
      "v": 42
    },
    {
      "midi": 64,
      "hit": false,
      "t": 202241.42649999572,
      "d": 88.90088281247881,
      "v": 52
    },
    {
      "midi": 54,
      "hit": false,
      "t": 202241.42649999572,
      "d": 113.14657812498626,
      "v": 64
    },
    {
      "midi": 84,
      "hit": false,
      "t": 202246.81443228738,
      "d": 37.71552604166209,
      "v": 74
    },
    {
      "midi": 96,
      "hit": false,
      "t": 202246.81443228738,
      "d": 67.3491536458314,
      "v": 80
    },
    {
      "midi": 60,
      "hit": false,
      "t": 202252.20236457905,
      "d": 99.67674739583163,
      "v": 53
    },
    {
      "midi": 54,
      "hit": false,
      "t": 202535.06880989156,
      "d": 134.69830729163368,
      "v": 74
    },
    {
      "midi": 99,
      "hit": false,
      "t": 202559.31450520406,
      "d": 94.28881510414067,
      "v": 87
    },
    {
      "midi": 87,
      "hit": false,
      "t": 202567.39640364156,
      "d": 72.73708593749325,
      "v": 93
    },
    {
      "midi": 63,
      "hit": false,
      "t": 202750.58610155818,
      "d": 554.9570260416367,
      "v": 80
    },
    {
      "midi": 53,
      "hit": false,
      "t": 202755.97403384984,
      "d": 689.6553333332704,
      "v": 78
    },
    {
      "midi": 58,
      "hit": false,
      "t": 202766.74989843316,
      "d": 786.6381145832711,
      "v": 70
    },
    {
      "midi": 96,
      "hit": false,
      "t": 202769.443864579,
      "d": 552.2630598958058,
      "v": 89
    },
    {
      "midi": 84,
      "hit": false,
      "t": 202774.83179687065,
      "d": 627.69411197913,
      "v": 83
    },
    {
      "midi": 92,
      "hit": false,
      "t": 203801.2328984331,
      "d": 533.4052968749602,
      "v": 73
    },
    {
      "midi": 53,
      "hit": false,
      "t": 203806.62083072477,
      "d": 404.09492187498836,
      "v": 72
    },
    {
      "midi": 63,
      "hit": false,
      "t": 203806.62083072477,
      "d": 474.1380416666507,
      "v": 72
    },
    {
      "midi": 58,
      "hit": false,
      "t": 203809.3147968706,
      "d": 466.0561432291579,
      "v": 67
    },
    {
      "midi": 80,
      "hit": false,
      "t": 203812.00876301643,
      "d": 474.1380416666507,
      "v": 65
    },
    {
      "midi": 87,
      "hit": false,
      "t": 203817.3966953081,
      "d": 506.4656354166509,
      "v": 73
    },
    {
      "midi": 56,
      "hit": false,
      "t": 204851.87969530807,
      "d": 253.2328177083109,
      "v": 84
    },
    {
      "midi": 65,
      "hit": false,
      "t": 204854.5736614539,
      "d": 239.76298697915627,
      "v": 88
    },
    {
      "midi": 61,
      "hit": false,
      "t": 204854.5736614539,
      "d": 293.6423098958039,
      "v": 79
    },
    {
      "midi": 87,
      "hit": false,
      "t": 204857.26762759974,
      "d": 255.92678385414183,
      "v": 102
    },
    {
      "midi": 99,
      "hit": false,
      "t": 204859.96159374557,
      "d": 253.2328177083109,
      "v": 94
    },
    {
      "midi": 60,
      "hit": false,
      "t": 204862.6555598914,
      "d": 253.2328177083109,
      "v": 77
    },
    {
      "midi": 94,
      "hit": false,
      "t": 204868.04349218306,
      "d": 258.62074999997276,
      "v": 85
    },
    {
      "midi": 99,
      "hit": false,
      "t": 205218.25909114137,
      "d": 80.81898437498603,
      "v": 72
    },
    {
      "midi": 61,
      "hit": false,
      "t": 205220.9530572872,
      "d": 471.44407552079065,
      "v": 59
    },
    {
      "midi": 87,
      "hit": false,
      "t": 205229.0349557247,
      "d": 67.3491536458314,
      "v": 64
    },
    {
      "midi": 56,
      "hit": false,
      "t": 205231.72892187053,
      "d": 439.1164817707904,
      "v": 69
    },
    {
      "midi": 65,
      "hit": false,
      "t": 205234.42288801636,
      "d": 96.9827812500007,
      "v": 69
    },
    {
      "midi": 60,
      "hit": false,
      "t": 205242.50478645385,
      "d": 88.90088281250792,
      "v": 62
    },
    {
      "midi": 94,
      "hit": false,
      "t": 205242.50478645385,
      "d": 88.90088281250792,
      "v": 67
    },
    {
      "midi": 65,
      "hit": false,
      "t": 205398.7548229122,
      "d": 247.84488541664905,
      "v": 32
    },
    {
      "midi": 97,
      "hit": false,
      "t": 205398.7548229122,
      "d": 299.0302421874658,
      "v": 53
    },
    {
      "midi": 60,
      "hit": false,
      "t": 205414.91861978717,
      "d": 220.90522395833977,
      "v": 36
    },
    {
      "midi": 85,
      "hit": false,
      "t": 205420.30655207884,
      "d": 234.3750546874944,
      "v": 31
    },
    {
      "midi": 92,
      "hit": false,
      "t": 205441.8582812455,
      "d": 196.65952864583232,
      "v": 45
    },
    {
      "midi": 56,
      "hit": false,
      "t": 205907.91442447464,
      "d": 253.2328177083109,
      "v": 61
    },
    {
      "midi": 61,
      "hit": false,
      "t": 205910.60839062047,
      "d": 261.3147161458037,
      "v": 55
    },
    {
      "midi": 84,
      "hit": false,
      "t": 205915.99632291213,
      "d": 218.21125781247974,
      "v": 58
    },
    {
      "midi": 65,
      "hit": false,
      "t": 205915.99632291213,
      "d": 242.4569531249872,
      "v": 61
    },
    {
      "midi": 96,
      "hit": false,
      "t": 205918.69028905797,
      "d": 180.49573177081766,
      "v": 33
    },
    {
      "midi": 60,
      "hit": false,
      "t": 205926.77218749546,
      "d": 226.29315625000163,
      "v": 60
    },
    {
      "midi": 97,
      "hit": false,
      "t": 206379.35849999543,
      "d": 226.29315624994342,
      "v": 64
    },
    {
      "midi": 85,
      "hit": false,
      "t": 206390.13436457876,
      "d": 167.02590104163392,
      "v": 56
    },
    {
      "midi": 61,
      "hit": false,
      "t": 206390.13436457876,
      "d": 207.43539322912693,
      "v": 55
    },
    {
      "midi": 56,
      "hit": false,
      "t": 206390.13436457876,
      "d": 210.12935937495786,
      "v": 60
    },
    {
      "midi": 65,
      "hit": false,
      "t": 206392.8283307246,
      "d": 145.4741718749865,
      "v": 60
    },
    {
      "midi": 91,
      "hit": false,
      "t": 206406.29816145374,
      "d": 137.3922734374937,
      "v": 45
    },
    {
      "midi": 94,
      "hit": false,
      "t": 206406.29816145374,
      "d": 175.1077994791558,
      "v": 45
    },
    {
      "midi": 60,
      "hit": false,
      "t": 206427.84989062042,
      "d": 32.32759375000023,
      "v": 24
    },
    {
      "midi": 99,
      "hit": false,
      "t": 206926.23362759955,
      "d": 579.2027213541733,
      "v": 83
    },
    {
      "midi": 65,
      "hit": false,
      "t": 206928.92759374538,
      "d": 595.3665182291588,
      "v": 78
    },
    {
      "midi": 87,
      "hit": false,
      "t": 206928.92759374538,
      "d": 608.8363489583135,
      "v": 85
    },
    {
      "midi": 58,
      "hit": false,
      "t": 206928.92759374538,
      "d": 651.9398072916374,
      "v": 68
    },
    {
      "midi": 61,
      "hit": false,
      "t": 206934.31552603704,
      "d": 646.5518749999756,
      "v": 60
    },
    {
      "midi": 54,
      "hit": false,
      "t": 206937.00949218287,
      "d": 549.569093750004,
      "v": 77
    },
    {
      "midi": 94,
      "hit": false,
      "t": 206937.00949218287,
      "d": 579.2027213541733,
      "v": 77
    },
    {
      "midi": 97,
      "hit": false,
      "t": 207774.83296353702,
      "d": 328.6638697916351,
      "v": 74
    },
    {
      "midi": 85,
      "hit": false,
      "t": 207780.22089582868,
      "d": 299.0302421874949,
      "v": 69
    },
    {
      "midi": 54,
      "hit": false,
      "t": 207782.9148619745,
      "d": 312.5000729166495,
      "v": 72
    },
    {
      "midi": 58,
      "hit": false,
      "t": 207782.9148619745,
      "d": 360.9914635416353,
      "v": 62
    },
    {
      "midi": 61,
      "hit": false,
      "t": 207782.9148619745,
      "d": 417.564752604143,
      "v": 60
    },
    {
      "midi": 92,
      "hit": false,
      "t": 207785.60882812034,
      "d": 307.11214062498766,
      "v": 71
    },
    {
      "midi": 65,
      "hit": false,
      "t": 207788.30279426617,
      "d": 441.81044791665045,
      "v": 70
    },
    {
      "midi": 58,
      "hit": false,
      "t": 208316.3201588495,
      "d": 75.43105208332418,
      "v": 37
    },
    {
      "midi": 98,
      "hit": false,
      "t": 208461.7943307245,
      "d": 519.9354661458347,
      "v": 90
    },
    {
      "midi": 90,
      "hit": false,
      "t": 208461.7943307245,
      "d": 530.7113307291584,
      "v": 84
    },
    {
      "midi": 86,
      "hit": false,
      "t": 208464.48829687032,
      "d": 541.4871953124821,
      "v": 82
    },
    {
      "midi": 93,
      "hit": false,
      "t": 208467.18226301615,
      "d": 509.15960156251094,
      "v": 83
    },
    {
      "midi": 64,
      "hit": false,
      "t": 208467.18226301615,
      "d": 571.1208229166514,
      "v": 87
    },
    {
      "midi": 54,
      "hit": false,
      "t": 208469.87622916198,
      "d": 533.4052968749893,
      "v": 91
    },
    {
      "midi": 60,
      "hit": false,
      "t": 208472.5701953078,
      "d": 614.2242812499753,
      "v": 83
    },
    {
      "midi": 58,
      "hit": false,
      "t": 208491.42795832866,
      "d": 32.32759375000023,
      "v": 42
    },
    {
      "midi": 93,
      "hit": false,
      "t": 209302.31176822446,
      "d": 363.68542968746624,
      "v": 68
    },
    {
      "midi": 81,
      "hit": false,
      "t": 209310.39366666196,
      "d": 301.7242083333258,
      "v": 53
    },
    {
      "midi": 86,
      "hit": false,
      "t": 209313.0876328078,
      "d": 309.8061067708186,
      "v": 59
    },
    {
      "midi": 89,
      "hit": false,
      "t": 209315.78159895362,
      "d": 312.5000729166495,
      "v": 56
    },
    {
      "midi": 60,
      "hit": false,
      "t": 209326.55746353694,
      "d": 417.564752604143,
      "v": 66
    },
    {
      "midi": 54,
      "hit": false,
      "t": 209326.55746353694,
      "d": 460.66821093749604,
      "v": 69
    },
    {
      "midi": 64,
      "hit": false,
      "t": 209329.25142968277,
      "d": 436.4225156249886,
      "v": 58
    },
    {
      "midi": 96,
      "hit": false,
      "t": 209973.10933853695,
      "d": 32.32759374997113,
      "v": 71
    },
    {
      "midi": 54,
      "hit": false,
      "t": 209978.4972708286,
      "d": 96.98278124994249,
      "v": 55
    },
    {
      "midi": 64,
      "hit": false,
      "t": 209983.88520312027,
      "d": 48.49139062495669,
      "v": 53
    },
    {
      "midi": 60,
      "hit": false,
      "t": 209986.5791692661,
      "d": 35.021559895802056,
      "v": 57
    },
    {
      "midi": 84,
      "hit": false,
      "t": 209989.27313541193,
      "d": 40.40949218746391,
      "v": 58
    },
    {
      "midi": 89,
      "hit": false,
      "t": 210476.8810078077,
      "d": 121.22847656244994,
      "v": 56
    },
    {
      "midi": 77,
      "hit": false,
      "t": 210490.35083853686,
      "d": 80.81898437498603,
      "v": 49
    },
    {
      "midi": 60,
      "hit": false,
      "t": 210498.43273697436,
      "d": 107.7586458332953,
      "v": 46
    },
    {
      "midi": 54,
      "hit": false,
      "t": 210503.82066926602,
      "d": 193.9655624999723,
      "v": 42
    },
    {
      "midi": 64,
      "hit": false,
      "t": 210509.20860155768,
      "d": 61.96122135416954,
      "v": 33
    },
    {
      "midi": 84,
      "hit": false,
      "t": 210517.29049999517,
      "d": 67.3491536458314,
      "v": 39
    },
    {
      "midi": 63,
      "hit": false,
      "t": 211018.36820312016,
      "d": 484.9139062500035,
      "v": 44
    },
    {
      "midi": 92,
      "hit": false,
      "t": 211023.75613541182,
      "d": 115.84054427081719,
      "v": 55
    },
    {
      "midi": 87,
      "hit": false,
      "t": 211034.53199999515,
      "d": 142.78020572918467,
      "v": 46
    },
    {
      "midi": 80,
      "hit": false,
      "t": 211037.22596614098,
      "d": 169.71986718752305,
      "v": 34
    },
    {
      "midi": 58,
      "hit": false,
      "t": 211037.22596614098,
      "d": 501.07770312501816,
      "v": 39
    },
    {
      "midi": 53,
      "hit": false,
      "t": 211048.0018307243,
      "d": 452.58631250003236,
      "v": 36
    },
    {
      "midi": 84,
      "hit": false,
      "t": 211050.69579687013,
      "d": 107.75864583335351,
      "v": 40
    },
    {
      "midi": 61,
      "hit": false,
      "t": 212069.01499999515,
      "d": 183.1896979166777,
      "v": 61
    },
    {
      "midi": 64,
      "hit": false,
      "t": 212077.09689843265,
      "d": 150.86210416667745,
      "v": 80
    },
    {
      "midi": 72,
      "hit": false,
      "t": 212079.79086457848,
      "d": 223.5991901041998,
      "v": 80
    },
    {
      "midi": 60,
      "hit": false,
      "t": 212249.510731766,
      "d": 123.92244270833908,
      "v": 64
    },
    {
      "midi": 64,
      "hit": false,
      "t": 212435.3943958285,
      "d": 175.1077994791558,
      "v": 74
    },
    {
      "midi": 72,
      "hit": false,
      "t": 212448.86422655766,
      "d": 218.21125781250885,
      "v": 69
    },
    {
      "midi": 61,
      "hit": false,
      "t": 212456.94612499516,
      "d": 153.55607031250838,
      "v": 63
    },
    {
      "midi": 60,
      "hit": false,
      "t": 212642.82978905767,
      "d": 75.43105208335328,
      "v": 67
    },
    {
      "midi": 64,
      "hit": false,
      "t": 212820.63155468268,
      "d": 145.4741718749865,
      "v": 43
    },
    {
      "midi": 67,
      "hit": false,
      "t": 212820.63155468268,
      "d": 161.63796874997206,
      "v": 39
    },
    {
      "midi": 72,
      "hit": false,
      "t": 212826.01948697434,
      "d": 188.57763020831044,
      "v": 44
    },
    {
      "midi": 61,
      "hit": false,
      "t": 212842.18328384933,
      "d": 96.9827812500007,
      "v": 50
    },
    {
      "midi": 60,
      "hit": false,
      "t": 213003.82125259933,
      "d": 35.02155989583116,
      "v": 64
    },
    {
      "midi": 46,
      "hit": false,
      "t": 213486.0411927035,
      "d": 80.81898437498603,
      "v": 60
    },
    {
      "midi": 46,
      "hit": false,
      "t": 213976.34303124517,
      "d": 83.51295052084606,
      "v": 54
    },
    {
      "midi": 67,
      "hit": false,
      "t": 214140.674966141,
      "d": 301.7242083333549,
      "v": 60
    },
    {
      "midi": 63,
      "hit": false,
      "t": 214146.06289843266,
      "d": 218.21125781250885,
      "v": 55
    },
    {
      "midi": 59,
      "hit": false,
      "t": 214148.7568645785,
      "d": 301.7242083333549,
      "v": 69
    },
    {
      "midi": 61,
      "hit": false,
      "t": 214151.45083072432,
      "d": 193.9655625000014,
      "v": 57
    },
    {
      "midi": 56,
      "hit": false,
      "t": 214178.39049218266,
      "d": 245.15091927084723,
      "v": 50
    },
    {
      "midi": 64,
      "hit": false,
      "t": 214372.35605468266,
      "d": 118.53451041667722,
      "v": 31
    },
    {
      "midi": 62,
      "hit": false,
      "t": 214396.60174999517,
      "d": 64.65518750000047,
      "v": 20
    },
    {
      "midi": 56,
      "hit": false,
      "t": 214558.23971874517,
      "d": 80.81898437498603,
      "v": 33
    },
    {
      "midi": 67,
      "hit": false,
      "t": 214647.14060155765,
      "d": 325.96990364580415,
      "v": 56
    },
    {
      "midi": 59,
      "hit": false,
      "t": 214655.22249999514,
      "d": 218.21125781247974,
      "v": 59
    },
    {
      "midi": 63,
      "hit": false,
      "t": 214655.22249999514,
      "d": 274.7845468749874,
      "v": 52
    },
    {
      "midi": 61,
      "hit": false,
      "t": 214665.99836457847,
      "d": 105.06467968749348,
      "v": 46
    },
    {
      "midi": 61,
      "hit": false,
      "t": 215196.70969530763,
      "d": 107.7586458332953,
      "v": 60
    },
    {
      "midi": 51,
      "hit": false,
      "t": 215196.70969530763,
      "d": 110.45261197912623,
      "v": 53
    },
    {
      "midi": 70,
      "hit": false,
      "t": 215202.0976275993,
      "d": 121.22847656244994,
      "v": 55
    },
    {
      "midi": 58,
      "hit": false,
      "t": 215218.26142447427,
      "d": 48.4913906249858,
      "v": 34
    },
    {
      "midi": 61,
      "hit": false,
      "t": 216072.2486927034,
      "d": 78.1250182291551,
      "v": 51
    },
    {
      "midi": 60,
      "hit": false,
      "t": 216074.94265884924,
      "d": 37.71552604166209,
      "v": 60
    },
    {
      "midi": 65,
      "hit": false,
      "t": 216083.02455728673,
      "d": 35.02155989583116,
      "v": 55
    },
    {
      "midi": 82,
      "hit": false,
      "t": 216395.5246302034,
      "d": 35.02155989583116,
      "v": 71
    },
    {
      "midi": 71,
      "hit": false,
      "t": 216414.38239322425,
      "d": 164.331934895803,
      "v": 58
    },
    {
      "midi": 69,
      "hit": false,
      "t": 216417.07635937008,
      "d": 32.32759374997113,
      "v": 42
    },
    {
      "midi": 80,
      "hit": false,
      "t": 216422.46429166174,
      "d": 142.78020572915557,
      "v": 45
    },
    {
      "midi": 83,
      "hit": false,
      "t": 216441.32205468256,
      "d": 161.63796875000116,
      "v": 61
    },
    {
      "midi": 61,
      "hit": false,
      "t": 216635.28761718256,
      "d": 35.02155989583116,
      "v": 35
    },
    {
      "midi": 84,
      "hit": false,
      "t": 216732.27039843256,
      "d": 175.1077994791558,
      "v": 80
    },
    {
      "midi": 72,
      "hit": false,
      "t": 216743.0462630159,
      "d": 167.02590104166302,
      "v": 68
    },
    {
      "midi": 65,
      "hit": false,
      "t": 217066.3222005159,
      "d": 40.409492187493015,
      "v": 60
    },
    {
      "midi": 85,
      "hit": false,
      "t": 217071.71013280755,
      "d": 156.2500364583102,
      "v": 61
    },
    {
      "midi": 73,
      "hit": false,
      "t": 217074.40409895338,
      "d": 134.6983072916628,
      "v": 56
    },
    {
      "midi": 60,
      "hit": false,
      "t": 217082.48599739088,
      "d": 35.02155989583116,
      "v": 53
    },
    {
      "midi": 58,
      "hit": false,
      "t": 217087.87392968254,
      "d": 134.6983072916628,
      "v": 36
    },
    {
      "midi": 54,
      "hit": false,
      "t": 217109.4256588492,
      "d": 35.02155989583116,
      "v": 23
    },
    {
      "midi": 75,
      "hit": false,
      "t": 217405.76193489085,
      "d": 196.65952864583232,
      "v": 61
    },
    {
      "midi": 87,
      "hit": false,
      "t": 217408.45590103668,
      "d": 193.9655625000014,
      "v": 65
    },
    {
      "midi": 89,
      "hit": false,
      "t": 217750.58960155753,
      "d": 245.15091927081812,
      "v": 71
    },
    {
      "midi": 65,
      "hit": false,
      "t": 217761.36546614085,
      "d": 261.3147161458328,
      "v": 58
    },
    {
      "midi": 77,
      "hit": false,
      "t": 217764.05943228668,
      "d": 210.12935937498696,
      "v": 49
    },
    {
      "midi": 58,
      "hit": false,
      "t": 217774.83529687,
      "d": 301.7242083333549,
      "v": 36
    },
    {
      "midi": 60,
      "hit": false,
      "t": 217782.9171953075,
      "d": 269.3966145833547,
      "v": 50
    },
    {
      "midi": 54,
      "hit": false,
      "t": 217793.69305989082,
      "d": 239.76298697918537,
      "v": 46
    },
    {
      "midi": 90,
      "hit": false,
      "t": 218149.29659114085,
      "d": 113.14657812495716,
      "v": 70
    },
    {
      "midi": 78,
      "hit": false,
      "t": 218157.37848957835,
      "d": 67.34915364580229,
      "v": 51
    },
    {
      "midi": 60,
      "hit": false,
      "t": 218162.76642187,
      "d": 56.57328906247858,
      "v": 57
    },
    {
      "midi": 64,
      "hit": false,
      "t": 218165.46038801584,
      "d": 51.185356770816725,
      "v": 34
    },
    {
      "midi": 54,
      "hit": false,
      "t": 218170.8483203075,
      "d": 99.67674739580252,
      "v": 30
    },
    {
      "midi": 54,
      "hit": false,
      "t": 218456.4087317658,
      "d": 196.65952864580322,
      "v": 67
    },
    {
      "midi": 64,
      "hit": false,
      "t": 218459.10269791164,
      "d": 164.331934895803,
      "v": 56
    },
    {
      "midi": 91,
      "hit": false,
      "t": 218461.79666405747,
      "d": 148.16813802081742,
      "v": 69
    },
    {
      "midi": 79,
      "hit": false,
      "t": 218464.4906302033,
      "d": 126.61640885417,
      "v": 74
    },
    {
      "midi": 60,
      "hit": false,
      "t": 218467.18459634914,
      "d": 185.8836640624795,
      "v": 58
    },
    {
      "midi": 89,
      "hit": false,
      "t": 218507.59408853663,
      "d": 94.28881510416977,
      "v": 31
    },
    {
      "midi": 54,
      "hit": false,
      "t": 218801.23639843246,
      "d": 175.1077994790976,
      "v": 63
    },
    {
      "midi": 92,
      "hit": false,
      "t": 218812.0122630158,
      "d": 134.69830729160458,
      "v": 67
    },
    {
      "midi": 60,
      "hit": false,
      "t": 218814.70622916162,
      "d": 37.715526041632984,
      "v": 43
    },
    {
      "midi": 80,
      "hit": false,
      "t": 218820.09416145328,
      "d": 83.51295052078785,
      "v": 60
    },
    {
      "midi": 64,
      "hit": false,
      "t": 218828.17605989077,
      "d": 32.32759374997113,
      "v": 24
    },
    {
      "midi": 87,
      "hit": false,
      "t": 218838.9519244741,
      "d": 37.715526041632984,
      "v": 49
    },
    {
      "midi": 94,
      "hit": false,
      "t": 219154.14596353655,
      "d": 150.86210416664835,
      "v": 76
    },
    {
      "midi": 63,
      "hit": false,
      "t": 219156.83992968238,
      "d": 191.27159635411226,
      "v": 64
    },
    {
      "midi": 82,
      "hit": false,
      "t": 219162.22786197404,
      "d": 158.94400260414113,
      "v": 65
    },
    {
      "midi": 87,
      "hit": false,
      "t": 219162.22786197404,
      "d": 183.18969791661948,
      "v": 73
    },
    {
      "midi": 58,
      "hit": false,
      "t": 219164.92182811987,
      "d": 226.29315624994342,
      "v": 52
    },
    {
      "midi": 53,
      "hit": false,
      "t": 219167.6157942657,
      "d": 161.63796874997206,
      "v": 61
    },
    {
      "midi": 89,
      "hit": false,
      "t": 219504.3615624948,
      "d": 177.80176562495762,
      "v": 65
    },
    {
      "midi": 63,
      "hit": false,
      "t": 219515.13742707812,
      "d": 169.71986718746484,
      "v": 56
    },
    {
      "midi": 58,
      "hit": false,
      "t": 219528.60725780728,
      "d": 185.8836640624795,
      "v": 38
    },
    {
      "midi": 77,
      "hit": false,
      "t": 219536.68915624477,
      "d": 113.14657812498626,
      "v": 18
    },
    {
      "midi": 53,
      "hit": false,
      "t": 219542.07708853643,
      "d": 126.61640885417,
      "v": 48
    },
    {
      "midi": 63,
      "hit": false,
      "t": 219843.80129686976,
      "d": 142.78020572909736,
      "v": 56
    },
    {
      "midi": 91,
      "hit": false,
      "t": 219849.18922916142,
      "d": 70.04311979163322,
      "v": 48
    },
    {
      "midi": 79,
      "hit": false,
      "t": 219849.18922916142,
      "d": 83.51295052078785,
      "v": 57
    },
    {
      "midi": 58,
      "hit": false,
      "t": 219857.2711275989,
      "d": 145.4741718749283,
      "v": 42
    },
    {
      "midi": 84,
      "hit": false,
      "t": 219865.3530260364,
      "d": 43.10345833332394,
      "v": 48
    },
    {
      "midi": 87,
      "hit": false,
      "t": 219868.04699218224,
      "d": 61.961221354140434,
      "v": 31
    },
    {
      "midi": 53,
      "hit": false,
      "t": 219873.4349244739,
      "d": 96.9827812499716,
      "v": 43
    },
    {
      "midi": 84,
      "hit": false,
      "t": 220191.32292968218,
      "d": 355.60353124994435,
      "v": 47
    },
    {
      "midi": 72,
      "hit": false,
      "t": 220194.016895828,
      "d": 347.52163281245157,
      "v": 51
    },
    {
      "midi": 63,
      "hit": false,
      "t": 220207.48672655717,
      "d": 350.2155989582825,
      "v": 55
    },
    {
      "midi": 58,
      "hit": false,
      "t": 220218.2625911405,
      "d": 301.7242083332967,
      "v": 46
    },
    {
      "midi": 53,
      "hit": false,
      "t": 220231.73242186964,
      "d": 264.0086822916346,
      "v": 41
    },
    {
      "midi": 58,
      "hit": false,
      "t": 220719.34029426545,
      "d": 280.1724791666493,
      "v": 51
    },
    {
      "midi": 87,
      "hit": false,
      "t": 220864.81446614044,
      "d": 156.2500364583393,
      "v": 78
    },
    {
      "midi": 75,
      "hit": false,
      "t": 220867.50843228627,
      "d": 202.04746093749418,
      "v": 83
    },
    {
      "midi": 82,
      "hit": false,
      "t": 220875.59033072376,
      "d": 169.71986718752305,
      "v": 73
    },
    {
      "midi": 63,
      "hit": false,
      "t": 220878.2842968696,
      "d": 180.49573177084676,
      "v": 71
    },
    {
      "midi": 53,
      "hit": false,
      "t": 220899.83602603627,
      "d": 37.71552604166209,
      "v": 37
    },
    {
      "midi": 85,
      "hit": false,
      "t": 221228.49989582793,
      "d": 177.80176562498673,
      "v": 77
    },
    {
      "midi": 73,
      "hit": false,
      "t": 221236.58179426542,
      "d": 148.16813802084653,
      "v": 77
    },
    {
      "midi": 80,
      "hit": false,
      "t": 221241.9697265571,
      "d": 164.3319348958321,
      "v": 70
    },
    {
      "midi": 65,
      "hit": false,
      "t": 221244.66369270292,
      "d": 88.90088281250792,
      "v": 68
    },
    {
      "midi": 60,
      "hit": false,
      "t": 221252.7455911404,
      "d": 99.67674739586073,
      "v": 66
    },
    {
      "midi": 56,
      "hit": false,
      "t": 221255.43955728624,
      "d": 134.6983072916919,
      "v": 46
    },
    {
      "midi": 61,
      "hit": false,
      "t": 221255.43955728624,
      "d": 145.4741718750156,
      "v": 54
    },
    {
      "midi": 56,
      "hit": false,
      "t": 221492.5085781196,
      "d": 282.8664453124802,
      "v": 38
    },
    {
      "midi": 65,
      "hit": false,
      "t": 221497.89651041126,
      "d": 245.15091927081812,
      "v": 47
    },
    {
      "midi": 84,
      "hit": false,
      "t": 221503.28444270292,
      "d": 177.80176562498673,
      "v": 62
    },
    {
      "midi": 61,
      "hit": false,
      "t": 221503.28444270292,
      "d": 293.642309895833,
      "v": 27
    },
    {
      "midi": 60,
      "hit": false,
      "t": 221516.75427343207,
      "d": 226.29315625000163,
      "v": 38
    },
    {
      "midi": 72,
      "hit": false,
      "t": 221527.5301380154,
      "d": 196.65952864583232,
      "v": 44
    },
    {
      "midi": 79,
      "hit": false,
      "t": 221559.8577317654,
      "d": 158.94400260417024,
      "v": 24
    },
    {
      "midi": 61,
      "hit": false,
      "t": 221907.37936457794,
      "d": 293.6423098958039,
      "v": 39
    },
    {
      "midi": 56,
      "hit": false,
      "t": 221907.37936457794,
      "d": 323.2759374999732,
      "v": 37
    },
    {
      "midi": 65,
      "hit": false,
      "t": 221910.07333072377,
      "d": 226.29315624997253,
      "v": 47
    },
    {
      "midi": 82,
      "hit": false,
      "t": 221912.7672968696,
      "d": 180.49573177081766,
      "v": 56
    },
    {
      "midi": 70,
      "hit": false,
      "t": 221920.8491953071,
      "d": 212.8233255208179,
      "v": 60
    },
    {
      "midi": 60,
      "hit": false,
      "t": 221926.23712759875,
      "d": 43.10345833332394,
      "v": 47
    },
    {
      "midi": 56,
      "hit": false,
      "t": 222405.7631015571,
      "d": 215.5172916666197,
      "v": 37
    },
    {
      "midi": 77,
      "hit": false,
      "t": 222408.45706770293,
      "d": 770.4743177083146,
      "v": 54
    },
    {
      "midi": 72,
      "hit": false,
      "t": 222419.23293228625,
      "d": 358.2974973958044,
      "v": 44
    },
    {
      "midi": 61,
      "hit": false,
      "t": 222419.23293228625,
      "d": 622.3061796874972,
      "v": 43
    },
    {
      "midi": 65,
      "hit": false,
      "t": 222427.31483072374,
      "d": 390.6250911458046,
      "v": 40
    },
    {
      "midi": 60,
      "hit": false,
      "t": 222440.7846614529,
      "d": 239.76298697915627,
      "v": 42
    },
    {
      "midi": 56,
      "hit": false,
      "t": 222904.14683853622,
      "d": 148.16813802084653,
      "v": 48
    },
    {
      "midi": 72,
      "hit": false,
      "t": 222923.00460155707,
      "d": 148.16813802084653,
      "v": 51
    },
    {
      "midi": 77,
      "hit": false,
      "t": 223292.07796353623,
      "d": 301.7242083332967,
      "v": 53
    },
    {
      "midi": 70,
      "hit": false,
      "t": 223300.15986197372,
      "d": 352.9095651041134,
      "v": 53
    },
    {
      "midi": 66,
      "hit": false,
      "t": 223302.85382811955,
      "d": 358.2974973957753,
      "v": 51
    },
    {
      "midi": 61,
      "hit": false,
      "t": 223302.85382811955,
      "d": 377.1552604166209,
      "v": 46
    },
    {
      "midi": 73,
      "hit": false,
      "t": 223308.2417604112,
      "d": 331.357835937466,
      "v": 51
    },
    {
      "midi": 65,
      "hit": false,
      "t": 223319.01762499454,
      "d": 290.948343749973,
      "v": 53
    },
    {
      "midi": 58,
      "hit": false,
      "t": 223319.01762499454,
      "d": 393.31905729163554,
      "v": 42
    },
    {
      "midi": 54,
      "hit": false,
      "t": 223329.79348957786,
      "d": 404.09492187498836,
      "v": 42
    },
    {
      "midi": 51,
      "hit": false,
      "t": 224366.97045572367,
      "d": 102.37071354166255,
      "v": 53
    },
    {
      "midi": 65,
      "hit": false,
      "t": 224501.66876301533,
      "d": 334.05180208332604,
      "v": 74
    },
    {
      "midi": 54,
      "hit": false,
      "t": 224504.36272916116,
      "d": 347.5216328124807,
      "v": 78
    },
    {
      "midi": 58,
      "hit": false,
      "t": 224507.056695307,
      "d": 355.60353124997346,
      "v": 73
    },
    {
      "midi": 61,
      "hit": false,
      "t": 224512.44462759866,
      "d": 344.82766666664975,
      "v": 62
    },
    {
      "midi": 53,
      "hit": false,
      "t": 224523.22049218198,
      "d": 374.46129427081905,
      "v": 76
    },
    {
      "midi": 51,
      "hit": false,
      "t": 224900.37575259863,
      "d": 142.78020572918467,
      "v": 53
    },
    {
      "midi": 54,
      "hit": false,
      "t": 225016.21629686948,
      "d": 334.05180208332604,
      "v": 75
    },
    {
      "midi": 58,
      "hit": false,
      "t": 225016.21629686948,
      "d": 406.7888880208193,
      "v": 71
    },
    {
      "midi": 65,
      "hit": false,
      "t": 225018.9102630153,
      "d": 352.90956510417163,
      "v": 64
    },
    {
      "midi": 61,
      "hit": false,
      "t": 225021.60422916114,
      "d": 247.84488541667815,
      "v": 55
    },
    {
      "midi": 53,
      "hit": false,
      "t": 225053.93182291114,
      "d": 358.2974973958335,
      "v": 67
    },
    {
      "midi": 51,
      "hit": false,
      "t": 225436.47501561945,
      "d": 51.18535677084583,
      "v": 33
    },
    {
      "midi": 62,
      "hit": false,
      "t": 225519.9879661403,
      "d": 412.17682031245204,
      "v": 46
    },
    {
      "midi": 57,
      "hit": false,
      "t": 225522.68193228613,
      "d": 363.68542968746624,
      "v": 71
    },
    {
      "midi": 54,
      "hit": false,
      "t": 225525.37589843196,
      "d": 336.74576822915697,
      "v": 64
    },
    {
      "midi": 65,
      "hit": false,
      "t": 225528.0698645778,
      "d": 342.1337005208188,
      "v": 62
    },
    {
      "midi": 53,
      "hit": false,
      "t": 225544.23366145277,
      "d": 363.68542968749534,
      "v": 53
    },
    {
      "midi": 51,
      "hit": false,
      "t": 225921.38892186942,
      "d": 158.94400260417024,
      "v": 44
    },
    {
      "midi": 65,
      "hit": false,
      "t": 226026.45360155692,
      "d": 447.1983802083123,
      "v": 63
    },
    {
      "midi": 62,
      "hit": false,
      "t": 226029.14756770275,
      "d": 379.8492265624809,
      "v": 53
    },
    {
      "midi": 54,
      "hit": false,
      "t": 226031.84153384858,
      "d": 366.37939583332627,
      "v": 72
    },
    {
      "midi": 57,
      "hit": false,
      "t": 226034.5354999944,
      "d": 379.8492265624809,
      "v": 70
    },
    {
      "midi": 53,
      "hit": false,
      "t": 226061.47516145275,
      "d": 457.974244791636,
      "v": 64
    },
    {
      "midi": 63,
      "hit": false,
      "t": 226538.30716926523,
      "d": 272.0905807291565,
      "v": 21
    },
    {
      "midi": 51,
      "hit": false,
      "t": 226543.6951015569,
      "d": 414.87078645831207,
      "v": 49
    },
    {
      "midi": 54,
      "hit": false,
      "t": 226554.47096614022,
      "d": 191.27159635417047,
      "v": 47
    },
    {
      "midi": 57,
      "hit": false,
      "t": 226592.18649218188,
      "d": 126.61640885417,
      "v": 30
    },
    {
      "midi": 54,
      "hit": false,
      "t": 226893.91070051523,
      "d": 56.57328906247858,
      "v": 78
    },
    {
      "midi": 65,
      "hit": false,
      "t": 226896.60466666106,
      "d": 86.20691666664788,
      "v": 71
    },
    {
      "midi": 57,
      "hit": false,
      "t": 226901.99259895273,
      "d": 78.1250182291551,
      "v": 64
    },
    {
      "midi": 53,
      "hit": false,
      "t": 226907.3805312444,
      "d": 51.185356770816725,
      "v": 68
    },
    {
      "midi": 63,
      "hit": false,
      "t": 226912.76846353605,
      "d": 80.81898437498603,
      "v": 34
    },
    {
      "midi": 60,
      "hit": false,
      "t": 227408.45823436938,
      "d": 78.1250182290969,
      "v": 52
    },
    {
      "midi": 53,
      "hit": false,
      "t": 227411.1522005152,
      "d": 29.6336276041402,
      "v": 61
    },
    {
      "midi": 57,
      "hit": false,
      "t": 227421.92806509853,
      "d": 37.715526041632984,
      "v": 38
    },
    {
      "midi": 43,
      "hit": false,
      "t": 227424.62203124436,
      "d": 32.32759374997113,
      "v": 54
    },
    {
      "midi": 50,
      "hit": false,
      "t": 227424.62203124436,
      "d": 51.18535677078762,
      "v": 53
    },
    {
      "midi": 84,
      "hit": false,
      "t": 227826.02298697346,
      "d": 129.31037500000093,
      "v": 74
    },
    {
      "midi": 72,
      "hit": false,
      "t": 227960.72129426512,
      "d": 48.4913906250149,
      "v": 68
    },
    {
      "midi": 72,
      "hit": false,
      "t": 228119.6652968693,
      "d": 37.71552604166209,
      "v": 54
    },
    {
      "midi": 84,
      "hit": false,
      "t": 228356.73431770262,
      "d": 105.06467968749348,
      "v": 85
    },
    {
      "midi": 72,
      "hit": false,
      "t": 228504.90245572344,
      "d": 45.79742447915487,
      "v": 64
    },
    {
      "midi": 72,
      "hit": false,
      "t": 228682.70422134842,
      "d": 40.409492187493015,
      "v": 54
    },
    {
      "midi": 84,
      "hit": false,
      "t": 228855.11805468175,
      "d": 80.81898437501513,
      "v": 80
    },
    {
      "midi": 58,
      "hit": false,
      "t": 228887.44564843175,
      "d": 94.28881510416977,
      "v": 52
    },
    {
      "midi": 62,
      "hit": false,
      "t": 228906.3034114526,
      "d": 37.71552604166209,
      "v": 34
    },
    {
      "midi": 72,
      "hit": false,
      "t": 229022.1439557234,
      "d": 40.409492187493015,
      "v": 57
    },
    {
      "midi": 72,
      "hit": false,
      "t": 229210.72158593175,
      "d": 35.02155989583116,
      "v": 55
    },
    {
      "midi": 58,
      "hit": false,
      "t": 230008.13556509843,
      "d": 83.51295052081696,
      "v": 52
    },
    {
      "midi": 62,
      "hit": false,
      "t": 230016.21746353593,
      "d": 35.02155989583116,
      "v": 50
    },
    {
      "midi": 58,
      "hit": false,
      "t": 230519.98913280675,
      "d": 129.31037499997183,
      "v": 72
    },
    {
      "midi": 84,
      "hit": false,
      "t": 230525.3770650984,
      "d": 118.53451041664812,
      "v": 89
    },
    {
      "midi": 62,
      "hit": false,
      "t": 230536.15292968173,
      "d": 48.4913906249858,
      "v": 68
    },
    {
      "midi": 57,
      "hit": false,
      "t": 230536.15292968173,
      "d": 80.81898437498603,
      "v": 65
    },
    {
      "midi": 53,
      "hit": false,
      "t": 230573.8684557234,
      "d": 35.02155989583116,
      "v": 26
    },
    {
      "midi": 72,
      "hit": false,
      "t": 230716.64866145255,
      "d": 37.71552604166209,
      "v": 57
    },
    {
      "midi": 72,
      "hit": false,
      "t": 231026.45476822337,
      "d": 83.51295052084606,
      "v": 57
    },
    {
      "midi": 84,
      "hit": false,
      "t": 231204.25653384838,
      "d": 72.73708593746414,
      "v": 76
    },
    {
      "midi": 58,
      "hit": false,
      "t": 231212.33843228588,
      "d": 72.73708593746414,
      "v": 36
    },
    {
      "midi": 62,
      "hit": false,
      "t": 231215.0323984317,
      "d": 37.71552604166209,
      "v": 35
    },
    {
      "midi": 57,
      "hit": false,
      "t": 231217.72636457754,
      "d": 43.10345833332394,
      "v": 30
    },
    {
      "midi": 58,
      "hit": false,
      "t": 231562.5540312442,
      "d": 35.02155989583116,
      "v": 39
    },
    {
      "midi": 72,
      "hit": false,
      "t": 231586.7997265567,
      "d": 35.02155989583116,
      "v": 47
    },
    {
      "midi": 62,
      "hit": false,
      "t": 231748.4376953067,
      "d": 344.82766666662064,
      "v": 66
    },
    {
      "midi": 85,
      "hit": false,
      "t": 231753.82562759836,
      "d": 360.9914635416062,
      "v": 69
    },
    {
      "midi": 58,
      "hit": false,
      "t": 231756.5195937442,
      "d": 393.31905729160644,
      "v": 56
    },
    {
      "midi": 73,
      "hit": false,
      "t": 231759.21355989002,
      "d": 317.88800520831137,
      "v": 63
    },
    {
      "midi": 52,
      "hit": false,
      "t": 231764.60149218168,
      "d": 339.4397343749588,
      "v": 62
    },
    {
      "midi": 58,
      "hit": false,
      "t": 232252.20936457746,
      "d": 374.46129427078995,
      "v": 52
    },
    {
      "midi": 75,
      "hit": false,
      "t": 232254.9033307233,
      "d": 382.54319270828273,
      "v": 71
    },
    {
      "midi": 87,
      "hit": false,
      "t": 232254.9033307233,
      "d": 409.4828541666211,
      "v": 70
    },
    {
      "midi": 82,
      "hit": false,
      "t": 232265.6791953066,
      "d": 299.0302421874658,
      "v": 55
    },
    {
      "midi": 52,
      "hit": false,
      "t": 232268.37316145244,
      "d": 307.11214062495856,
      "v": 62
    },
    {
      "midi": 62,
      "hit": false,
      "t": 232273.7610937441,
      "d": 274.7845468749874,
      "v": 53
    },
    {
      "midi": 77,
      "hit": false,
      "t": 233111.58456509825,
      "d": 102.37071354163345,
      "v": 70
    },
    {
      "midi": 89,
      "hit": false,
      "t": 233116.9724973899,
      "d": 142.78020572912646,
      "v": 71
    },
    {
      "midi": 84,
      "hit": false,
      "t": 233119.66646353574,
      "d": 102.37071354163345,
      "v": 65
    },
    {
      "midi": 58,
      "hit": false,
      "t": 233130.44232811907,
      "d": 94.28881510414067,
      "v": 60
    },
    {
      "midi": 62,
      "hit": false,
      "t": 233138.52422655656,
      "d": 45.79742447915487,
      "v": 66
    },
    {
      "midi": 52,
      "hit": false,
      "t": 233141.2181927024,
      "d": 61.96122135416954,
      "v": 66
    },
    {
      "midi": 79,
      "hit": false,
      "t": 233472.57602863986,
      "d": 140.08623958332464,
      "v": 79
    },
    {
      "midi": 58,
      "hit": false,
      "t": 233472.57602863986,
      "d": 177.80176562498673,
      "v": 73
    },
    {
      "midi": 91,
      "hit": false,
      "t": 233472.57602863986,
      "d": 199.35349479166325,
      "v": 74
    },
    {
      "midi": 52,
      "hit": false,
      "t": 233477.96396093152,
      "d": 94.28881510416977,
      "v": 72
    },
    {
      "midi": 86,
      "hit": false,
      "t": 233477.96396093152,
      "d": 156.2500364583393,
      "v": 74
    },
    {
      "midi": 62,
      "hit": false,
      "t": 233480.65792707735,
      "d": 161.63796875000116,
      "v": 71
    },
    {
      "midi": 55,
      "hit": false,
      "t": 233844.34335676485,
      "d": 625.000145833299,
      "v": 76
    },
    {
      "midi": 61,
      "hit": false,
      "t": 233847.03732291068,
      "d": 490.30183854163624,
      "v": 64
    },
    {
      "midi": 93,
      "hit": false,
      "t": 233849.7312890565,
      "d": 474.1380416666507,
      "v": 85
    },
    {
      "midi": 81,
      "hit": false,
      "t": 233852.42525520234,
      "d": 409.4828541666793,
      "v": 80
    },
    {
      "midi": 64,
      "hit": false,
      "t": 233852.42525520234,
      "d": 455.2802786458342,
      "v": 69
    },
    {
      "midi": 88,
      "hit": false,
      "t": 233855.11922134817,
      "d": 447.1983802083414,
      "v": 75
    },
    {
      "midi": 61,
      "hit": false,
      "t": 234824.94703384815,
      "d": 215.51729166664882,
      "v": 71
    },
    {
      "midi": 58,
      "hit": false,
      "t": 234827.64099999398,
      "d": 204.7414270833251,
      "v": 60
    },
    {
      "midi": 64,
      "hit": false,
      "t": 234833.02893228564,
      "d": 175.1077994791849,
      "v": 72
    },
    {
      "midi": 55,
      "hit": false,
      "t": 234835.72289843147,
      "d": 188.57763020833954,
      "v": 73
    },
    {
      "midi": 96,
      "hit": false,
      "t": 234838.4168645773,
      "d": 196.65952864583232,
      "v": 85
    },
    {
      "midi": 91,
      "hit": false,
      "t": 234841.11083072313,
      "d": 164.3319348958612,
      "v": 74
    },
    {
      "midi": 84,
      "hit": false,
      "t": 234849.19272916063,
      "d": 105.06467968752258,
      "v": 80
    },
    {
      "midi": 88,
      "hit": false,
      "t": 235555.01185936897,
      "d": 35.02155989583116,
      "v": 72
    },
    {
      "midi": 100,
      "hit": false,
      "t": 235560.39979166063,
      "d": 35.02155989583116,
      "v": 71
    },
    {
      "midi": 61,
      "hit": false,
      "t": 235571.17565624396,
      "d": 78.1250182291551,
      "v": 47
    },
    {
      "midi": 55,
      "hit": false,
      "t": 235600.80928384812,
      "d": 37.71552604166209,
      "v": 26
    },
    {
      "midi": 101,
      "hit": false,
      "t": 235719.34379426477,
      "d": 72.73708593749325,
      "v": 74
    },
    {
      "midi": 89,
      "hit": false,
      "t": 235722.0377604106,
      "d": 35.02155989583116,
      "v": 74
    },
    {
      "midi": 96,
      "hit": false,
      "t": 235732.81362499393,
      "d": 35.02155989583116,
      "v": 62
    },
    {
      "midi": 50,
      "hit": false,
      "t": 235899.8395260356,
      "d": 856.6812343749625,
      "v": 68
    },
    {
      "midi": 60,
      "hit": false,
      "t": 235902.53349218142,
      "d": 708.5130963541451,
      "v": 78
    },
    {
      "midi": 103,
      "hit": false,
      "t": 235905.22745832725,
      "d": 390.6250911458046,
      "v": 84
    },
    {
      "midi": 91,
      "hit": false,
      "t": 235910.6153906189,
      "d": 449.8923463541432,
      "v": 73
    },
    {
      "midi": 53,
      "hit": false,
      "t": 235910.6153906189,
      "d": 934.8062526041467,
      "v": 64
    },
    {
      "midi": 98,
      "hit": false,
      "t": 235913.30935676474,
      "d": 414.87078645831207,
      "v": 80
    },
    {
      "midi": 57,
      "hit": false,
      "t": 235913.30935676474,
      "d": 3582.9749739582767,
      "v": 59
    },
    {
      "midi": 100,
      "hit": false,
      "t": 236247.36115884807,
      "d": 48.4913906249858,
      "v": 19
    },
    {
      "midi": 76,
      "hit": false,
      "t": 236923.54666145222,
      "d": 140.08623958332464,
      "v": 80
    },
    {
      "midi": 65,
      "hit": false,
      "t": 236931.6285598897,
      "d": 67.3491536458314,
      "v": 79
    },
    {
      "midi": 64,
      "hit": false,
      "t": 236931.6285598897,
      "d": 99.67674739583163,
      "v": 66
    },
    {
      "midi": 69,
      "hit": false,
      "t": 236942.40442447303,
      "d": 35.02155989583116,
      "v": 69
    },
    {
      "midi": 53,
      "hit": false,
      "t": 237063.63290103554,
      "d": 1926.1857942708302,
      "v": 1
    },
    {
      "midi": 74,
      "hit": false,
      "t": 237122.90015624388,
      "d": 88.90088281250792,
      "v": 45
    },
    {
      "midi": 76,
      "hit": false,
      "t": 237284.53812499388,
      "d": 277.47851302081835,
      "v": 85
    },
    {
      "midi": 69,
      "hit": false,
      "t": 237289.92605728554,
      "d": 288.25437760414206,
      "v": 84
    },
    {
      "midi": 65,
      "hit": false,
      "t": 237292.62002343137,
      "d": 255.92678385417094,
      "v": 80
    },
    {
      "midi": 64,
      "hit": false,
      "t": 237303.3958880147,
      "d": 293.642309895833,
      "v": 71
    },
    {
      "midi": 76,
      "hit": false,
      "t": 237632.05975780636,
      "d": 212.823325520847,
      "v": 72
    },
    {
      "midi": 69,
      "hit": false,
      "t": 237653.61148697304,
      "d": 99.67674739583163,
      "v": 66
    },
    {
      "midi": 65,
      "hit": false,
      "t": 237656.30545311887,
      "d": 99.67674739583163,
      "v": 60
    },
    {
      "midi": 74,
      "hit": false,
      "t": 237815.24945572304,
      "d": 115.8405442708463,
      "v": 51
    },
    {
      "midi": 65,
      "hit": false,
      "t": 237993.05122134805,
      "d": 711.2070625000051,
      "v": 63
    },
    {
      "midi": 76,
      "hit": false,
      "t": 237993.05122134805,
      "d": 1977.3711510416178,
      "v": 60
    },
    {
      "midi": 73,
      "hit": false,
      "t": 238001.13311978555,
      "d": 770.4743177083437,
      "v": 60
    },
    {
      "midi": 69,
      "hit": false,
      "t": 238003.82708593138,
      "d": 695.0432656250196,
      "v": 63
    },
    {
      "midi": 61,
      "hit": false,
      "t": 238006.5210520772,
      "d": 511.85356770834187,
      "v": 64
    },
    {
      "midi": 74,
      "hit": false,
      "t": 238028.07278124389,
      "d": 37.71552604166209,
      "v": 35
    },
    {
      "midi": 69,
      "hit": false,
      "t": 238976.34886457722,
      "d": 794.720013020793,
      "v": 48
    },
    {
      "midi": 65,
      "hit": false,
      "t": 238989.81869530637,
      "d": 786.6381145833002,
      "v": 36
    },
    {
      "midi": 61,
      "hit": false,
      "t": 239337.34032811885,
      "d": 466.0561432291579,
      "v": 76
    },
    {
      "midi": 57,
      "hit": false,
      "t": 239663.31023176468,
      "d": 277.47851302081835,
      "v": 59
    },
    {
      "midi": 50,
      "hit": false,
      "t": 239835.724065098,
      "d": 1029.0950677083165,
      "v": 57
    },
    {
      "midi": 57,
      "hit": false,
      "t": 240026.99566145218,
      "d": 856.6812343749916,
      "v": 24
    },
    {
      "midi": 65,
      "hit": false,
      "t": 240032.38359374384,
      "d": 552.2630598958058,
      "v": 42
    },
    {
      "midi": 69,
      "hit": false,
      "t": 240035.07755988967,
      "d": 767.7803515624837,
      "v": 50
    },
    {
      "midi": 60,
      "hit": false,
      "t": 240048.54739061883,
      "d": 843.211403645837,
      "v": 60
    },
    {
      "midi": 77,
      "hit": false,
      "t": 241371.28476822298,
      "d": 231.68108854163438,
      "v": 85
    },
    {
      "midi": 67,
      "hit": false,
      "t": 241373.9787343688,
      "d": 172.41383333329577,
      "v": 90
    },
    {
      "midi": 72,
      "hit": false,
      "t": 241376.67270051464,
      "d": 202.04746093746508,
      "v": 85
    },
    {
      "midi": 62,
      "hit": false,
      "t": 241387.44856509796,
      "d": 290.948343749973,
      "v": 80
    },
    {
      "midi": 79,
      "hit": false,
      "t": 241710.72450259794,
      "d": 167.02590104166302,
      "v": 80
    },
    {
      "midi": 64,
      "hit": false,
      "t": 241713.41846874377,
      "d": 360.9914635416644,
      "v": 68
    },
    {
      "midi": 74,
      "hit": false,
      "t": 241716.1124348896,
      "d": 193.9655625000014,
      "v": 83
    },
    {
      "midi": 69,
      "hit": false,
      "t": 241716.1124348896,
      "d": 199.35349479166325,
      "v": 82
    },
    {
      "midi": 77,
      "hit": false,
      "t": 242098.65562759794,
      "d": 142.78020572912646,
      "v": 66
    },
    {
      "midi": 72,
      "hit": false,
      "t": 242114.81942447292,
      "d": 148.16813802081742,
      "v": 61
    },
    {
      "midi": 67,
      "hit": false,
      "t": 242120.2073567646,
      "d": 202.04746093749418,
      "v": 43
    },
    {
      "midi": 62,
      "hit": false,
      "t": 242128.28925520208,
      "d": 347.5216328124807,
      "v": 51
    },
    {
      "midi": 76,
      "hit": false,
      "t": 242454.2591588479,
      "d": 172.41383333329577,
      "v": 60
    },
    {
      "midi": 71,
      "hit": false,
      "t": 242459.64709113957,
      "d": 226.29315624997253,
      "v": 59
    },
    {
      "midi": 65,
      "hit": false,
      "t": 242473.11692186873,
      "d": 215.51729166664882,
      "v": 51
    },
    {
      "midi": 61,
      "hit": false,
      "t": 242481.19882030622,
      "d": 325.96990364583326,
      "v": 51
    },
    {
      "midi": 74,
      "hit": false,
      "t": 242820.6385546812,
      "d": 153.55607031250838,
      "v": 43
    },
    {
      "midi": 65,
      "hit": false,
      "t": 242828.7204531187,
      "d": 185.88366406250861,
      "v": 37
    },
    {
      "midi": 60,
      "hit": false,
      "t": 242850.27218228538,
      "d": 320.5819713541714,
      "v": 43
    },
    {
      "midi": 69,
      "hit": false,
      "t": 242852.9661484312,
      "d": 126.61640885417,
      "v": 37
    },
    {
      "midi": 71,
      "hit": false,
      "t": 242863.74201301453,
      "d": 32.32759375000023,
      "v": 25
    },
    {
      "midi": 72,
      "hit": false,
      "t": 243178.93605207704,
      "d": 132.00434114577365,
      "v": 44
    },
    {
      "midi": 62,
      "hit": false,
      "t": 243208.5696796812,
      "d": 134.69830729160458,
      "v": 42
    },
    {
      "midi": 65,
      "hit": false,
      "t": 243211.26364582704,
      "d": 80.81898437495693,
      "v": 36
    },
    {
      "midi": 69,
      "hit": false,
      "t": 243216.6515781187,
      "d": 51.185356770816725,
      "v": 42
    },
    {
      "midi": 68,
      "hit": false,
      "t": 243219.34554426454,
      "d": 83.51295052078785,
      "v": 23
    },
    {
      "midi": 58,
      "hit": false,
      "t": 243224.7334765562,
      "d": 258.62074999994365,
      "v": 35
    },
    {
      "midi": 69,
      "hit": false,
      "t": 243531.84561718113,
      "d": 385.23715885411366,
      "v": 42
    },
    {
      "midi": 60,
      "hit": false,
      "t": 243545.31544791028,
      "d": 293.6423098958039,
      "v": 40
    },
    {
      "midi": 62,
      "hit": false,
      "t": 243548.0094140561,
      "d": 307.11214062495856,
      "v": 36
    },
    {
      "midi": 65,
      "hit": false,
      "t": 243548.0094140561,
      "d": 336.74576822912786,
      "v": 43
    },
    {
      "midi": 57,
      "hit": false,
      "t": 243564.1732109311,
      "d": 91.59484895833884,
      "v": 35
    },
    {
      "midi": 50,
      "hit": false,
      "t": 243852.42758853524,
      "d": 296.33627604166395,
      "v": 34
    },
    {
      "midi": 44,
      "hit": false,
      "t": 244008.67762499358,
      "d": 142.78020572915557,
      "v": 51
    },
    {
      "midi": 43,
      "hit": false,
      "t": 244205.3371536394,
      "d": 455.2802786458342,
      "v": 47
    },
    {
      "midi": 58,
      "hit": false,
      "t": 244210.72508593107,
      "d": 627.6941119791591,
      "v": 42
    },
    {
      "midi": 62,
      "hit": false,
      "t": 244216.11301822274,
      "d": 775.8622500000056,
      "v": 46
    },
    {
      "midi": 50,
      "hit": false,
      "t": 244224.19491666023,
      "d": 447.1983802083414,
      "v": 24
    },
    {
      "midi": 57,
      "hit": false,
      "t": 245185.94083072274,
      "d": 651.9398072916374,
      "v": 31
    },
    {
      "midi": 62,
      "hit": false,
      "t": 245191.3287630144,
      "d": 538.7932291666511,
      "v": 36
    },
    {
      "midi": 58,
      "hit": false,
      "t": 245191.3287630144,
      "d": 1804.9573177082348,
      "v": 37
    },
    {
      "midi": 66,
      "hit": false,
      "t": 245414.92795311857,
      "d": 70.04311979166232,
      "v": 58
    },
    {
      "midi": 69,
      "hit": false,
      "t": 245555.0141927019,
      "d": 48.4913906249858,
      "v": 56
    },
    {
      "midi": 66,
      "hit": false,
      "t": 245662.77283853522,
      "d": 45.79742447915487,
      "v": 45
    },
    {
      "midi": 67,
      "hit": false,
      "t": 245792.08321353522,
      "d": 94.28881510414067,
      "v": 32
    },
    {
      "midi": 69,
      "hit": false,
      "t": 245902.53582551435,
      "d": 88.90088281250792,
      "v": 39
    },
    {
      "midi": 70,
      "hit": false,
      "t": 246026.4582682227,
      "d": 32.32759375000023,
      "v": 56
    },
    {
      "midi": 72,
      "hit": false,
      "t": 246153.07467707686,
      "d": 35.02155989583116,
      "v": 47
    },
    {
      "midi": 62,
      "hit": false,
      "t": 246174.62640624354,
      "d": 272.0905807291274,
      "v": 37
    },
    {
      "midi": 54,
      "hit": false,
      "t": 246228.50572916018,
      "d": 1117.9959505207662,
      "v": 27
    },
    {
      "midi": 76,
      "hit": false,
      "t": 246285.0790182227,
      "d": 40.409492187493015,
      "v": 35
    },
    {
      "midi": 74,
      "hit": false,
      "t": 246285.0790182227,
      "d": 78.1250182291551,
      "v": 37
    },
    {
      "midi": 78,
      "hit": false,
      "t": 246400.9195624935,
      "d": 83.51295052081696,
      "v": 49
    },
    {
      "midi": 69,
      "hit": false,
      "t": 246489.820445306,
      "d": 80.81898437498603,
      "v": 54
    },
    {
      "midi": 74,
      "hit": false,
      "t": 246578.72132811847,
      "d": 64.65518750000047,
      "v": 54
    },
    {
      "midi": 78,
      "hit": false,
      "t": 246667.62221093097,
      "d": 35.02155989583116,
      "v": 35
    },
    {
      "midi": 81,
      "hit": false,
      "t": 246759.2170598893,
      "d": 37.71552604166209,
      "v": 70
    },
    {
      "midi": 86,
      "hit": false,
      "t": 246915.46709634765,
      "d": 43.10345833332394,
      "v": 36
    },
    {
      "midi": 90,
      "hit": false,
      "t": 246945.10072395182,
      "d": 72.73708593749325,
      "v": 64
    },
    {
      "midi": 93,
      "hit": false,
      "t": 247063.63523436847,
      "d": 107.75864583332441,
      "v": 80
    },
    {
      "midi": 90,
      "hit": false,
      "t": 247179.4757786393,
      "d": 45.79742447915487,
      "v": 67
    },
    {
      "midi": 90,
      "hit": false,
      "t": 247586.2646666601,
      "d": 91.59484895833884,
      "v": 80
    },
    {
      "midi": 54,
      "hit": false,
      "t": 247737.12677082678,
      "d": 293.642309895833,
      "v": 32
    },
    {
      "midi": 90,
      "hit": false,
      "t": 247796.39402603512,
      "d": 158.94400260417024,
      "v": 79
    },
    {
      "midi": 86,
      "hit": false,
      "t": 247931.0923333268,
      "d": 53.879322916676756,
      "v": 67
    },
    {
      "midi": 86,
      "hit": false,
      "t": 248084.6484036393,
      "d": 80.81898437498603,
      "v": 68
    },
    {
      "midi": 81,
      "hit": false,
      "t": 248243.59240624344,
      "d": 91.59484895830974,
      "v": 68
    },
    {
      "midi": 58,
      "hit": false,
      "t": 248251.67430468093,
      "d": 730.0648255208216,
      "v": 37
    },
    {
      "midi": 62,
      "hit": false,
      "t": 248262.45016926425,
      "d": 657.3277395833284,
      "v": 32
    },
    {
      "midi": 53,
      "hit": false,
      "t": 248297.47172916008,
      "d": 649.2458411458356,
      "v": 24
    },
    {
      "midi": 81,
      "hit": false,
      "t": 248440.25193488924,
      "d": 56.57328906250768,
      "v": 53
    },
    {
      "midi": 81,
      "hit": false,
      "t": 249113.74347134758,
      "d": 48.4913906249858,
      "v": 57
    },
    {
      "midi": 62,
      "hit": false,
      "t": 249124.5193359309,
      "d": 123.92244270833908,
      "v": 36
    },
    {
      "midi": 58,
      "hit": false,
      "t": 249127.21330207674,
      "d": 315.19403906250955,
      "v": 33
    },
    {
      "midi": 53,
      "hit": false,
      "t": 249146.07106509758,
      "d": 352.90956510417163,
      "v": 32
    },
    {
      "midi": 83,
      "hit": false,
      "t": 249380.44611978508,
      "d": 43.10345833332394,
      "v": 53
    },
    {
      "midi": 84,
      "hit": false,
      "t": 249474.73493488925,
      "d": 172.41383333335398,
      "v": 63
    },
    {
      "midi": 83,
      "hit": false,
      "t": 249582.4935807226,
      "d": 134.6983072916919,
      "v": 58
    },
    {
      "midi": 82,
      "hit": false,
      "t": 249698.33412499345,
      "d": 129.31037500000093,
      "v": 46
    },
    {
      "midi": 81,
      "hit": false,
      "t": 249841.1143307226,
      "d": 226.29315625000163,
      "v": 44
    },
    {
      "midi": 78,
      "hit": false,
      "t": 250172.4721666601,
      "d": 113.14657812501537,
      "v": 60
    },
    {
      "midi": 62,
      "hit": false,
      "t": 250188.63596353508,
      "d": 45.797424479183974,
      "v": 36
    },
    {
      "midi": 58,
      "hit": false,
      "t": 250207.49372655593,
      "d": 45.797424479183974,
      "v": 25
    },
    {
      "midi": 81,
      "hit": false,
      "t": 250371.8256614518,
      "d": 64.65518750000047,
      "v": 59
    },
    {
      "midi": 62,
      "hit": false,
      "t": 250687.0197005143,
      "d": 43.10345833332394,
      "v": 45
    },
    {
      "midi": 79,
      "hit": false,
      "t": 250692.40763280596,
      "d": 94.28881510416977,
      "v": 73
    },
    {
      "midi": 58,
      "hit": false,
      "t": 250692.40763280596,
      "d": 96.9827812500007,
      "v": 37
    },
    {
      "midi": 74,
      "hit": false,
      "t": 250883.67922916013,
      "d": 204.7414270833251,
      "v": 38
    },
    {
      "midi": 73,
      "hit": false,
      "t": 251384.75693228512,
      "d": 110.45261197915534,
      "v": 59
    },
    {
      "midi": 76,
      "hit": false,
      "t": 251557.17076561844,
      "d": 91.59484895833884,
      "v": 74
    },
    {
      "midi": 61,
      "hit": false,
      "t": 251734.97253124346,
      "d": 83.51295052081696,
      "v": 55
    },
    {
      "midi": 64,
      "hit": false,
      "t": 251743.05442968095,
      "d": 35.02155989583116,
      "v": 41
    },
    {
      "midi": 55,
      "hit": false,
      "t": 251769.9940911393,
      "d": 56.57328906247858,
      "v": 32
    },
    {
      "midi": 70,
      "hit": false,
      "t": 251904.69239843093,
      "d": 126.61640885417,
      "v": 69
    },
    {
      "midi": 67,
      "hit": false,
      "t": 252071.7182994726,
      "d": 40.409492187493015,
      "v": 56
    },
    {
      "midi": 60,
      "hit": false,
      "t": 252260.29592968093,
      "d": 48.4913906249858,
      "v": 40
    },
    {
      "midi": 69,
      "hit": false,
      "t": 252265.6838619726,
      "d": 99.67674739583163,
      "v": 77
    },
    {
      "midi": 57,
      "hit": false,
      "t": 252292.62352343093,
      "d": 53.87932291664765,
      "v": 27
    },
    {
      "midi": 53,
      "hit": false,
      "t": 252308.7873203059,
      "d": 86.20691666667699,
      "v": 27
    },
    {
      "midi": 64,
      "hit": false,
      "t": 252465.03735676425,
      "d": 75.43105208332418,
      "v": 43
    },
    {
      "midi": 67,
      "hit": false,
      "t": 252642.83912238924,
      "d": 118.53451041667722,
      "v": 72
    },
    {
      "midi": 65,
      "hit": false,
      "t": 252968.80902603507,
      "d": 366.37939583332627,
      "v": 66
    },
    {
      "midi": 62,
      "hit": false,
      "t": 253351.35221874338,
      "d": 51.18535677084583,
      "v": 49
    },
    {
      "midi": 64,
      "hit": false,
      "t": 253585.7272734309,
      "d": 328.6638697916642,
      "v": 60
    },
    {
      "midi": 60,
      "hit": false,
      "t": 253960.18856770173,
      "d": 210.12935937498696,
      "v": 52
    },
    {
      "midi": 62,
      "hit": false,
      "t": 254305.01623436838,
      "d": 158.94400260417024,
      "v": 57
    },
    {
      "midi": 60,
      "hit": false,
      "t": 254843.80946353506,
      "d": 964.4398802083451,
      "v": 83
    },
    {
      "midi": 55,
      "hit": false,
      "t": 254846.5034296809,
      "d": 959.0519479166833,
      "v": 84
    },
    {
      "midi": 62,
      "hit": false,
      "t": 254846.5034296809,
      "d": 961.7459140625142,
      "v": 84
    },
    {
      "midi": 62,
      "hit": false,
      "t": 256026.46060155588,
      "d": 226.29315624997253,
      "v": 48
    },
    {
      "midi": 55,
      "hit": false,
      "t": 256029.1545677017,
      "d": 226.29315624997253,
      "v": 59
    },
    {
      "midi": 60,
      "hit": false,
      "t": 256039.93043228504,
      "d": 196.65952864583232,
      "v": 55
    },
    {
      "midi": 60,
      "hit": false,
      "t": 256937.02115884752,
      "d": 1212.284765624965,
      "v": 72
    },
    {
      "midi": 59,
      "hit": false,
      "t": 256937.02115884752,
      "d": 1217.672697916627,
      "v": 60
    },
    {
      "midi": 54,
      "hit": false,
      "t": 256947.79702343085,
      "d": 1285.0218515624583,
      "v": 64
    },
    {
      "midi": 74,
      "hit": false,
      "t": 257599.73683072248,
      "d": 299.0302421874949,
      "v": 101
    },
    {
      "midi": 70,
      "hit": false,
      "t": 257939.17656509747,
      "d": 96.9827812500007,
      "v": 46
    },
    {
      "midi": 72,
      "hit": false,
      "t": 258130.44816145164,
      "d": 449.8923463541141,
      "v": 77
    },
    {
      "midi": 66,
      "hit": false,
      "t": 258453.72409895164,
      "d": 113.14657812495716,
      "v": 43
    },
    {
      "midi": 54,
      "hit": false,
      "t": 258464.49996353497,
      "d": 86.20691666664788,
      "v": 51
    },
    {
      "midi": 60,
      "hit": false,
      "t": 258467.1939296808,
      "d": 35.02155989583116,
      "v": 51
    },
    {
      "midi": 50,
      "hit": false,
      "t": 258766.22417186826,
      "d": 339.4397343749879,
      "v": 62
    },
    {
      "midi": 49,
      "hit": false,
      "t": 258782.38796874325,
      "d": 70.04311979166232,
      "v": 47
    },
    {
      "midi": 38,
      "hit": false,
      "t": 259140.68546613908,
      "d": 40.409492187493015,
      "v": 57
    },
    {
      "midi": 64,
      "hit": false,
      "t": 259498.98296353492,
      "d": 940.1941848957795,
      "v": 51
    },
    {
      "midi": 54,
      "hit": false,
      "t": 259504.37089582658,
      "d": 651.9398072916374,
      "v": 46
    },
    {
      "midi": 56,
      "hit": false,
      "t": 259512.45279426407,
      "d": 630.38807812499,
      "v": 51
    },
    {
      "midi": 60,
      "hit": false,
      "t": 259515.1467604099,
      "d": 681.5734348958067,
      "v": 50
    },
    {
      "midi": 44,
      "hit": false,
      "t": 260169.78053384737,
      "d": 282.8664453124802,
      "v": 36
    },
    {
      "midi": 57,
      "hit": false,
      "t": 260522.6900989515,
      "d": 40.409492187493015,
      "v": 39
    },
    {
      "midi": 60,
      "hit": false,
      "t": 260530.771997389,
      "d": 78.1250182291551,
      "v": 42
    },
    {
      "midi": 58,
      "hit": false,
      "t": 260541.54786197233,
      "d": 70.04311979166232,
      "v": 34
    },
    {
      "midi": 43,
      "hit": false,
      "t": 260544.24182811816,
      "d": 48.4913906250149,
      "v": 51
    },
    {
      "midi": 82,
      "hit": false,
      "t": 261034.54366665983,
      "d": 414.87078645828296,
      "v": 53
    },
    {
      "midi": 70,
      "hit": false,
      "t": 261045.31953124315,
      "d": 396.0130234374665,
      "v": 60
    },
    {
      "midi": 58,
      "hit": false,
      "t": 261072.2591927015,
      "d": 468.7501093749597,
      "v": 42
    },
    {
      "midi": 62,
      "hit": false,
      "t": 261074.95315884732,
      "d": 417.5647526041139,
      "v": 44
    },
    {
      "midi": 57,
      "hit": false,
      "t": 261088.42298957647,
      "d": 433.72854947912856,
      "v": 33
    },
    {
      "midi": 53,
      "hit": false,
      "t": 261093.81092186813,
      "d": 406.7888880207902,
      "v": 36
    },
    {
      "midi": 84,
      "hit": false,
      "t": 261726.89296613896,
      "d": 91.59484895828064,
      "v": 62
    },
    {
      "midi": 62,
      "hit": false,
      "t": 261732.28089843062,
      "d": 56.57328906247858,
      "v": 35
    },
    {
      "midi": 58,
      "hit": false,
      "t": 261734.97486457645,
      "d": 99.67674739577342,
      "v": 39
    },
    {
      "midi": 72,
      "hit": false,
      "t": 261745.75072915977,
      "d": 88.90088281244971,
      "v": 41
    },
    {
      "midi": 53,
      "hit": false,
      "t": 261753.83262759726,
      "d": 59.26725520830951,
      "v": 29
    },
    {
      "midi": 57,
      "hit": false,
      "t": 261764.6084921806,
      "d": 35.02155989583116,
      "v": 24
    },
    {
      "midi": 58,
      "hit": false,
      "t": 262227.9706692639,
      "d": 134.6983072916628,
      "v": 38
    },
    {
      "midi": 82,
      "hit": false,
      "t": 262238.74653384724,
      "d": 164.3319348958321,
      "v": 47
    },
    {
      "midi": 62,
      "hit": false,
      "t": 262241.4404999931,
      "d": 59.26725520833861,
      "v": 29
    },
    {
      "midi": 70,
      "hit": false,
      "t": 262252.2163645764,
      "d": 83.51295052084606,
      "v": 38
    },
    {
      "midi": 82,
      "hit": false,
      "t": 263265.1476354097,
      "d": 269.3966145833838,
      "v": 50
    },
    {
      "midi": 70,
      "hit": false,
      "t": 263267.8416015556,
      "d": 228.98712239583256,
      "v": 49
    },
    {
      "midi": 61,
      "hit": false,
      "t": 263286.69936457643,
      "d": 245.15091927081812,
      "v": 38
    },
    {
      "midi": 58,
      "hit": false,
      "t": 263292.0872968681,
      "d": 250.53885156253818,
      "v": 46
    },
    {
      "midi": 64,
      "hit": false,
      "t": 263302.8631614514,
      "d": 207.43539322918514,
      "v": 34
    },
    {
      "midi": 85,
      "hit": false,
      "t": 263650.384794264,
      "d": 339.4397343751043,
      "v": 81
    },
    {
      "midi": 73,
      "hit": false,
      "t": 263653.07876040984,
      "d": 406.7888880209066,
      "v": 74
    },
    {
      "midi": 58,
      "hit": false,
      "t": 263669.2425572849,
      "d": 280.1724791667075,
      "v": 60
    },
    {
      "midi": 61,
      "hit": false,
      "t": 263669.2425572849,
      "d": 280.1724791667075,
      "v": 62
    },
    {
      "midi": 64,
      "hit": false,
      "t": 263669.2425572849,
      "d": 299.0302421875531,
      "v": 62
    },
    {
      "midi": 82,
      "hit": false,
      "t": 264294.24270311825,
      "d": 164.3319348958321,
      "v": 61
    },
    {
      "midi": 61,
      "hit": false,
      "t": 264296.9366692641,
      "d": 193.9655624999432,
      "v": 49
    },
    {
      "midi": 70,
      "hit": false,
      "t": 264302.32460155577,
      "d": 188.57763020828133,
      "v": 55
    },
    {
      "midi": 58,
      "hit": false,
      "t": 264307.7125338474,
      "d": 183.18969791661948,
      "v": 39
    },
    {
      "midi": 81,
      "hit": false,
      "t": 264641.7643359307,
      "d": 312.50007291679503,
      "v": 55
    },
    {
      "midi": 64,
      "hit": false,
      "t": 264647.15226822236,
      "d": 277.47851302090567,
      "v": 42
    },
    {
      "midi": 76,
      "hit": false,
      "t": 264652.540200514,
      "d": 274.78454687510384,
      "v": 44
    },
    {
      "midi": 60,
      "hit": false,
      "t": 264655.2341666599,
      "d": 299.0302421876113,
      "v": 43
    },
    {
      "midi": 57,
      "hit": false,
      "t": 264660.62209895154,
      "d": 304.41817447927315,
      "v": 40
    },
    {
      "midi": 69,
      "hit": false,
      "t": 264663.3160650974,
      "d": 228.98712239589076,
      "v": 50
    },
    {
      "midi": 53,
      "hit": false,
      "t": 264666.01003124326,
      "d": 274.78454687504563,
      "v": 36
    },
    {
      "midi": 60,
      "hit": false,
      "t": 265307.1739739516,
      "d": 110.45261197927175,
      "v": 40
    },
    {
      "midi": 64,
      "hit": false,
      "t": 265317.9498385349,
      "d": 96.98278125008801,
      "v": 48
    },
    {
      "midi": 57,
      "hit": false,
      "t": 265320.6438046808,
      "d": 148.16813802090473,
      "v": 42
    },
    {
      "midi": 84,
      "hit": false,
      "t": 265323.33777082665,
      "d": 156.2500364583684,
      "v": 62
    },
    {
      "midi": 72,
      "hit": false,
      "t": 265331.41966926417,
      "d": 83.51295052084606,
      "v": 50
    },
    {
      "midi": 53,
      "hit": false,
      "t": 265336.80760155583,
      "d": 132.00434114586096,
      "v": 32
    },
    {
      "midi": 79,
      "hit": false,
      "t": 265344.88949999335,
      "d": 96.9827812500298,
      "v": 36
    },
    {
      "midi": 91,
      "hit": false,
      "t": 265856.7430677017,
      "d": 255.92678385425825,
      "v": 76
    },
    {
      "midi": 60,
      "hit": false,
      "t": 265856.7430677017,
      "d": 280.1724791667657,
      "v": 67
    },
    {
      "midi": 57,
      "hit": false,
      "t": 265859.43703384756,
      "d": 269.3966145833838,
      "v": 63
    },
    {
      "midi": 64,
      "hit": false,
      "t": 265864.8249661392,
      "d": 231.6810885417508,
      "v": 71
    },
    {
      "midi": 79,
      "hit": false,
      "t": 265864.8249661392,
      "d": 242.4569531250745,
      "v": 72
    },
    {
      "midi": 86,
      "hit": false,
      "t": 265867.5189322851,
      "d": 255.92678385420004,
      "v": 72
    },
    {
      "midi": 53,
      "hit": false,
      "t": 265870.21289843094,
      "d": 253.23281770834,
      "v": 64
    },
    {
      "midi": 64,
      "hit": false,
      "t": 266382.0664661393,
      "d": 463.3621770833852,
      "v": 64
    },
    {
      "midi": 60,
      "hit": false,
      "t": 266382.0664661393,
      "d": 471.44407552090706,
      "v": 62
    },
    {
      "midi": 53,
      "hit": false,
      "t": 266384.76043228514,
      "d": 439.1164817708777,
      "v": 58
    },
    {
      "midi": 57,
      "hit": false,
      "t": 266392.84233072266,
      "d": 455.2802786458633,
      "v": 49
    },
    {
      "midi": 89,
      "hit": false,
      "t": 266392.84233072266,
      "d": 509.15960156254005,
      "v": 77
    },
    {
      "midi": 77,
      "hit": false,
      "t": 266400.9242291602,
      "d": 528.0173645833856,
      "v": 60
    },
    {
      "midi": 84,
      "hit": false,
      "t": 266411.7000937435,
      "d": 514.5475338542019,
      "v": 68
    },
    {
      "midi": 79,
      "hit": false,
      "t": 266414.39405988937,
      "d": 32.32759374997113,
      "v": 51
    },
    {
      "midi": 61,
      "hit": false,
      "t": 267411.16153384774,
      "d": 600.754450520908,
      "v": 80
    },
    {
      "midi": 88,
      "hit": false,
      "t": 267416.5494661394,
      "d": 436.4225156250759,
      "v": 91
    },
    {
      "midi": 65,
      "hit": false,
      "t": 267419.24343228526,
      "d": 517.2415000000037,
      "v": 87
    },
    {
      "midi": 76,
      "hit": false,
      "t": 267419.24343228526,
      "d": 525.3233984375256,
      "v": 94
    },
    {
      "midi": 60,
      "hit": false,
      "t": 267419.24343228526,
      "d": 673.4915364583721,
      "v": 83
    },
    {
      "midi": 83,
      "hit": false,
      "t": 267424.6313645769,
      "d": 449.89234635420144,
      "v": 89
    },
    {
      "midi": 55,
      "hit": false,
      "t": 267427.3253307228,
      "d": 641.1639427083428,
      "v": 71
    },
    {
      "midi": 85,
      "hit": false,
      "t": 267440.79516145197,
      "d": 29.633627604169305,
      "v": 48
    },
    {
      "midi": 58,
      "hit": false,
      "t": 267446.18309374363,
      "d": 37.71552604169119,
      "v": 34
    },
    {
      "midi": 85,
      "hit": false,
      "t": 268434.8686692644,
      "d": 215.51729166670702,
      "v": 69
    },
    {
      "midi": 61,
      "hit": false,
      "t": 268440.2566015561,
      "d": 121.22847656253725,
      "v": 37
    },
    {
      "midi": 73,
      "hit": false,
      "t": 268442.95056770195,
      "d": 255.92678385420004,
      "v": 67
    },
    {
      "midi": 65,
      "hit": false,
      "t": 268451.03246613947,
      "d": 40.409492187493015,
      "v": 36
    },
    {
      "midi": 80,
      "hit": false,
      "t": 268451.03246613947,
      "d": 228.98712239583256,
      "v": 54
    },
    {
      "midi": 55,
      "hit": false,
      "t": 268494.1359244728,
      "d": 86.20691666664788,
      "v": 24
    },
    {
      "midi": 76,
      "hit": false,
      "t": 269469.3516692645,
      "d": 336.7457682292443,
      "v": 78
    },
    {
      "midi": 65,
      "hit": false,
      "t": 269477.433567702,
      "d": 272.0905807291856,
      "v": 71
    },
    {
      "midi": 64,
      "hit": false,
      "t": 269480.1275338479,
      "d": 312.5000729166786,
      "v": 61
    },
    {
      "midi": 69,
      "hit": false,
      "t": 269485.51546613954,
      "d": 293.642309895833,
      "v": 72
    },
    {
      "midi": 74,
      "hit": false,
      "t": 269843.8129635354,
      "d": 191.27159635419957,
      "v": 50
    },
    {
      "midi": 62,
      "hit": false,
      "t": 269846.5069296813,
      "d": 304.41817447915673,
      "v": 42
    },
    {
      "midi": 65,
      "hit": false,
      "t": 269851.89486197295,
      "d": 115.8405442708754,
      "v": 45
    },
    {
      "midi": 69,
      "hit": false,
      "t": 269854.5888281188,
      "d": 118.53451041667722,
      "v": 59
    },
    {
      "midi": 76,
      "hit": false,
      "t": 270177.86476561875,
      "d": 285.56041145836934,
      "v": 64
    },
    {
      "midi": 69,
      "hit": false,
      "t": 270196.7225286396,
      "d": 226.29315625003073,
      "v": 60
    },
    {
      "midi": 65,
      "hit": false,
      "t": 270199.41649478546,
      "d": 199.35349479166325,
      "v": 36
    },
    {
      "midi": 64,
      "hit": false,
      "t": 270204.8044270771,
      "d": 307.11214062501676,
      "v": 41
    },
    {
      "midi": 62,
      "hit": false,
      "t": 270522.69243228546,
      "d": 315.19403906253865,
      "v": 36
    },
    {
      "midi": 74,
      "hit": false,
      "t": 270533.4682968688,
      "d": 167.02590104169212,
      "v": 40
    },
    {
      "midi": 65,
      "hit": false,
      "t": 270546.93812759797,
      "d": 53.879322916676756,
      "v": 31
    },
    {
      "midi": 69,
      "hit": false,
      "t": 270552.32605988963,
      "d": 61.96122135419864,
      "v": 40
    },
    {
      "midi": 76,
      "hit": false,
      "t": 270862.1321666605,
      "d": 204.7414270833251,
      "v": 57
    },
    {
      "midi": 65,
      "hit": false,
      "t": 270878.2959635355,
      "d": 115.8405442708754,
      "v": 57
    },
    {
      "midi": 69,
      "hit": false,
      "t": 270878.2959635355,
      "d": 148.16813802084653,
      "v": 61
    },
    {
      "midi": 61,
      "hit": false,
      "t": 270894.45976041054,
      "d": 210.12935937498696,
      "v": 43
    },
    {
      "midi": 73,
      "hit": false,
      "t": 270905.23562499386,
      "d": 35.02155989583116,
      "v": 34
    },
    {
      "midi": 65,
      "hit": false,
      "t": 271190.7960364522,
      "d": 169.71986718749395,
      "v": 35
    },
    {
      "midi": 74,
      "hit": false,
      "t": 271190.7960364522,
      "d": 234.3750546874944,
      "v": 53
    },
    {
      "midi": 69,
      "hit": false,
      "t": 271209.653799473,
      "d": 129.31037500000093,
      "v": 40
    },
    {
      "midi": 61,
      "hit": false,
      "t": 271212.3477656189,
      "d": 223.5991901041125,
      "v": 38
    },
    {
      "midi": 76,
      "hit": false,
      "t": 271562.56336457713,
      "d": 277.47851302084746,
      "v": 61
    },
    {
      "midi": 69,
      "hit": false,
      "t": 271584.1150937438,
      "d": 202.04746093752328,
      "v": 51
    },
    {
      "midi": 65,
      "hit": false,
      "t": 271589.50302603544,
      "d": 188.57763020833954,
      "v": 36
    },
    {
      "midi": 61,
      "hit": false,
      "t": 271600.27889061876,
      "d": 228.98712239589076,
      "v": 36
    },
    {
      "midi": 65,
      "hit": false,
      "t": 271928.9427604105,
      "d": 105.06467968755169,
      "v": 37
    },
    {
      "midi": 74,
      "hit": false,
      "t": 271928.9427604105,
      "d": 167.02590104169212,
      "v": 37
    },
    {
      "midi": 61,
      "hit": false,
      "t": 271931.63672655635,
      "d": 169.71986718749395,
      "v": 34
    },
    {
      "midi": 69,
      "hit": false,
      "t": 271939.71862499387,
      "d": 91.59484895830974,
      "v": 45
    },
    {
      "midi": 76,
      "hit": false,
      "t": 272241.44283332716,
      "d": 153.5560703125666,
      "v": 57
    },
    {
      "midi": 69,
      "hit": false,
      "t": 272260.300596348,
      "d": 88.90088281256612,
      "v": 44
    },
    {
      "midi": 61,
      "hit": false,
      "t": 272262.99456249387,
      "d": 161.63796875003027,
      "v": 47
    },
    {
      "midi": 65,
      "hit": false,
      "t": 272271.0764609314,
      "d": 53.879322916676756,
      "v": 33
    },
    {
      "midi": 79,
      "hit": false,
      "t": 272607.8222291605,
      "d": 134.6983072917792,
      "v": 80
    },
    {
      "midi": 73,
      "hit": false,
      "t": 272615.90412759804,
      "d": 123.92244270839728,
      "v": 64
    },
    {
      "midi": 61,
      "hit": false,
      "t": 272615.90412759804,
      "d": 207.43539322924335,
      "v": 60
    },
    {
      "midi": 69,
      "hit": false,
      "t": 272618.5980937439,
      "d": 140.08623958338285,
      "v": 68
    },
    {
      "midi": 76,
      "hit": false,
      "t": 272966.11972655647,
      "d": 185.8836640624795,
      "v": 54
    },
    {
      "midi": 65,
      "hit": false,
      "t": 272982.28352343146,
      "d": 148.16813802084653,
      "v": 36
    },
    {
      "midi": 61,
      "hit": false,
      "t": 272982.28352343146,
      "d": 169.71986718749395,
      "v": 52
    },
    {
      "midi": 69,
      "hit": false,
      "t": 272984.9774895773,
      "d": 156.2500364583102,
      "v": 52
    },
    {
      "midi": 74,
      "hit": false,
      "t": 273238.2103072856,
      "d": 237.06902083335444,
      "v": 53
    },
    {
      "midi": 65,
      "hit": false,
      "t": 273251.6801380148,
      "d": 180.49573177087586,
      "v": 34
    },
    {
      "midi": 60,
      "hit": false,
      "t": 273254.37410416064,
      "d": 193.9655625000014,
      "v": 40
    },
    {
      "midi": 69,
      "hit": false,
      "t": 273292.08963020233,
      "d": 121.22847656247905,
      "v": 24
    },
    {
      "midi": 76,
      "hit": false,
      "t": 273591.11987238977,
      "d": 172.41383333335398,
      "v": 60
    },
    {
      "midi": 69,
      "hit": false,
      "t": 273601.8957369731,
      "d": 121.22847656253725,
      "v": 60
    },
    {
      "midi": 65,
      "hit": false,
      "t": 273607.28366926475,
      "d": 110.45261197921354,
      "v": 49
    },
    {
      "midi": 60,
      "hit": false,
      "t": 273609.9776354106,
      "d": 148.16813802084653,
      "v": 47
    },
    {
      "midi": 79,
      "hit": false,
      "t": 273970.9690989523,
      "d": 75.43105208332418,
      "v": 74
    },
    {
      "midi": 60,
      "hit": false,
      "t": 273995.2147942648,
      "d": 83.51295052078785,
      "v": 69
    },
    {
      "midi": 76,
      "hit": false,
      "t": 274288.85710416065,
      "d": 280.1724791667075,
      "v": 56
    },
    {
      "midi": 65,
      "hit": false,
      "t": 274307.7148671815,
      "d": 191.27159635419957,
      "v": 51
    },
    {
      "midi": 69,
      "hit": false,
      "t": 274310.40883332735,
      "d": 215.51729166664882,
      "v": 57
    },
    {
      "midi": 60,
      "hit": false,
      "t": 274318.4907317649,
      "d": 253.23281770834,
      "v": 58
    },
    {
      "midi": 59,
      "hit": false,
      "t": 274647.15460155654,
      "d": 83.51295052084606,
      "v": 52
    },
    {
      "midi": 65,
      "hit": false,
      "t": 274663.3183984315,
      "d": 91.59484895836795,
      "v": 35
    },
    {
      "midi": 74,
      "hit": false,
      "t": 274663.3183984315,
      "d": 196.65952864586143,
      "v": 40
    },
    {
      "midi": 69,
      "hit": false,
      "t": 274674.09426301485,
      "d": 64.65518750005867,
      "v": 24
    },
    {
      "midi": 76,
      "hit": false,
      "t": 274989.2883020774,
      "d": 929.4183203125722,
      "v": 55
    },
    {
      "midi": 69,
      "hit": false,
      "t": 275002.7581328066,
      "d": 832.4355390625424,
      "v": 57
    },
    {
      "midi": 65,
      "hit": false,
      "t": 275002.7581328066,
      "d": 840.5174375000643,
      "v": 46
    },
    {
      "midi": 71,
      "hit": false,
      "t": 275002.7581328066,
      "d": 840.5174375000643,
      "v": 51
    },
    {
      "midi": 59,
      "hit": false,
      "t": 275040.47365884826,
      "d": 773.1682838542038,
      "v": 46
    },
    {
      "midi": 74,
      "hit": false,
      "t": 276042.6290650983,
      "d": 72.73708593752235,
      "v": 30
    },
    {
      "midi": 65,
      "hit": false,
      "t": 276042.6290650983,
      "d": 75.43105208338238,
      "v": 60
    },
    {
      "midi": 69,
      "hit": false,
      "t": 276066.8747604108,
      "d": 32.32759374997113,
      "v": 50
    },
    {
      "midi": 71,
      "hit": false,
      "t": 276066.8747604108,
      "d": 35.02155989583116,
      "v": 36
    },
    {
      "midi": 59,
      "hit": false,
      "t": 276107.2842525983,
      "d": 665.4096380209085,
      "v": 46
    },
    {
      "midi": 69,
      "hit": false,
      "t": 276716.12060155673,
      "d": 288.25437760417117,
      "v": 73
    },
    {
      "midi": 65,
      "hit": false,
      "t": 277074.41809895256,
      "d": 107.75864583335351,
      "v": 51
    },
    {
      "midi": 58,
      "hit": false,
      "t": 277104.05172655673,
      "d": 132.00434114586096,
      "v": 36
    },
    {
      "midi": 62,
      "hit": false,
      "t": 277106.7456927026,
      "d": 88.90088281250792,
      "v": 35
    },
    {
      "midi": 57,
      "hit": false,
      "t": 277122.9094895776,
      "d": 156.2500364583684,
      "v": 22
    },
    {
      "midi": 67,
      "hit": false,
      "t": 277244.1379661401,
      "d": 315.19403906248044,
      "v": 44
    },
    {
      "midi": 62,
      "hit": false,
      "t": 277623.9871927026,
      "d": 96.9827812499716,
      "v": 35
    },
    {
      "midi": 65,
      "hit": false,
      "t": 277774.84929686924,
      "d": 363.68542968755355,
      "v": 62
    },
    {
      "midi": 50,
      "hit": false,
      "t": 278135.84076041094,
      "d": 40.40949218755122,
      "v": 43
    },
    {
      "midi": 57,
      "hit": false,
      "t": 278243.59940624435,
      "d": 336.74576822918607,
      "v": 34
    },
    {
      "midi": 57,
      "hit": false,
      "t": 278723.1253802027,
      "d": 781.2501822916674,
      "v": 42
    },
    {
      "midi": 43,
      "hit": false,
      "t": 279280.7763723902,
      "d": 132.00434114586096,
      "v": 37
    },
    {
      "midi": 50,
      "hit": false,
      "t": 279305.0220677027,
      "d": 59.26725520833861,
      "v": 32
    },
    {
      "midi": 54,
      "hit": false,
      "t": 279641.7678359319,
      "d": 70.04311979166232,
      "v": 67
    },
    {
      "midi": 50,
      "hit": false,
      "t": 279671.4014635361,
      "d": 96.9827812499716,
      "v": 33
    },
    {
      "midi": 57,
      "hit": false,
      "t": 279795.32390624436,
      "d": 105.06467968749348,
      "v": 61
    },
    {
      "midi": 54,
      "hit": false,
      "t": 279940.79807811935,
      "d": 70.04311979166232,
      "v": 45
    },
    {
      "midi": 55,
      "hit": false,
      "t": 280072.80241926515,
      "d": 123.92244270833908,
      "v": 57
    },
    {
      "midi": 57,
      "hit": false,
      "t": 280204.806760411,
      "d": 113.14657812501537,
      "v": 57
    },
    {
      "midi": 50,
      "hit": false,
      "t": 280218.2765911402,
      "d": 94.28881510416977,
      "v": 32
    },
    {
      "midi": 43,
      "hit": false,
      "t": 280229.0524557235,
      "d": 48.4913906250149,
      "v": 24
    },
    {
      "midi": 58,
      "hit": false,
      "t": 280355.6688645777,
      "d": 78.1250182291842,
      "v": 52
    },
    {
      "midi": 60,
      "hit": false,
      "t": 280506.5309687444,
      "d": 91.59484895830974,
      "v": 54
    },
    {
      "midi": 62,
      "hit": false,
      "t": 280630.4534114527,
      "d": 150.86210416664835,
      "v": 65
    },
    {
      "midi": 66,
      "hit": false,
      "t": 280824.4189739527,
      "d": 32.32759374997113,
      "v": 47
    },
    {
      "midi": 58,
      "hit": false,
      "t": 281190.798369786,
      "d": 64.65518750000047,
      "v": 54
    },
    {
      "midi": 62,
      "hit": false,
      "t": 281193.49233593186,
      "d": 35.02155989583116,
      "v": 59
    },
    {
      "midi": 54,
      "hit": false,
      "t": 281217.7380312444,
      "d": 45.79742447915487,
      "v": 36
    },
    {
      "midi": 66,
      "hit": false,
      "t": 281619.1389869735,
      "d": 67.3491536458605,
      "v": 76
    },
    {
      "midi": 69,
      "hit": false,
      "t": 281770.0010911402,
      "d": 132.00434114586096,
      "v": 77
    },
    {
      "midi": 66,
      "hit": false,
      "t": 281950.4968229111,
      "d": 70.04311979166232,
      "v": 39
    },
    {
      "midi": 67,
      "hit": false,
      "t": 282085.19513020274,
      "d": 72.73708593752235,
      "v": 39
    },
    {
      "midi": 62,
      "hit": false,
      "t": 282726.3590729111,
      "d": 32.32759375002934,
      "v": 53
    },
    {
      "midi": 53,
      "hit": false,
      "t": 282734.4409713486,
      "d": 37.71552604169119,
      "v": 50
    },
    {
      "midi": 58,
      "hit": false,
      "t": 282742.52286978613,
      "d": 32.32759375002934,
      "v": 36
    },
    {
      "midi": 67,
      "hit": false,
      "t": 282947.2642968695,
      "d": 37.71552604169119,
      "v": 33
    },
    {
      "midi": 69,
      "hit": false,
      "t": 283127.7600286404,
      "d": 64.65518750000047,
      "v": 44
    },
    {
      "midi": 58,
      "hit": false,
      "t": 283257.0704036404,
      "d": 96.9827812500298,
      "v": 54
    },
    {
      "midi": 70,
      "hit": false,
      "t": 283265.1523020779,
      "d": 72.73708593752235,
      "v": 70
    },
    {
      "midi": 62,
      "hit": false,
      "t": 283267.8462682238,
      "d": 32.32759374997113,
      "v": 55
    },
    {
      "midi": 52,
      "hit": false,
      "t": 283300.17386197374,
      "d": 35.02155989583116,
      "v": 31
    },
    {
      "midi": 74,
      "hit": false,
      "t": 283480.66959374456,
      "d": 43.103458333353046,
      "v": 26
    },
    {
      "midi": 78,
      "hit": false,
      "t": 283623.44979947375,
      "d": 59.26725520833861,
      "v": 49
    },
    {
      "midi": 81,
      "hit": false,
      "t": 283779.69983593206,
      "d": 110.45261197915534,
      "v": 79
    },
    {
      "midi": 58,
      "hit": false,
      "t": 283795.86363280704,
      "d": 110.45261197915534,
      "v": 54
    },
    {
      "midi": 62,
      "hit": false,
      "t": 283806.63949739037,
      "d": 37.71552604169119,
      "v": 51
    },
    {
      "midi": 78,
      "hit": false,
      "t": 284043.7085182237,
      "d": 26.939661458309274,
      "v": 29
    },
    {
      "midi": 79,
      "hit": false,
      "t": 284129.91543489037,
      "d": 72.73708593752235,
      "v": 36
    },
    {
      "midi": 81,
      "hit": false,
      "t": 284280.7775390571,
      "d": 96.9827812499716,
      "v": 77
    },
    {
      "midi": 61,
      "hit": false,
      "t": 284294.24736978626,
      "d": 102.37071354163345,
      "v": 53
    },
    {
      "midi": 64,
      "hit": false,
      "t": 284302.3292682238,
      "d": 43.10345833329484,
      "v": 52
    },
    {
      "midi": 55,
      "hit": false,
      "t": 284334.65686197375,
      "d": 45.79742447915487,
      "v": 36
    },
    {
      "midi": 82,
      "hit": false,
      "t": 284477.4370677029,
      "d": 80.81898437498603,
      "v": 56
    },
    {
      "midi": 84,
      "hit": false,
      "t": 284647.1569348904,
      "d": 61.961221354140434,
      "v": 71
    },
    {
      "midi": 61,
      "hit": false,
      "t": 284792.63110676536,
      "d": 83.51295052078785,
      "v": 60
    },
    {
      "midi": 85,
      "hit": false,
      "t": 284803.4069713487,
      "d": 80.81898437498603,
      "v": 82
    },
    {
      "midi": 64,
      "hit": false,
      "t": 284819.57076822367,
      "d": 40.409492187493015,
      "v": 33
    },
    {
      "midi": 55,
      "hit": false,
      "t": 284854.5923281195,
      "d": 40.409492187493015,
      "v": 28
    },
    {
      "midi": 87,
      "hit": false,
      "t": 284983.9027031195,
      "d": 56.57328906247858,
      "v": 67
    },
    {
      "midi": 88,
      "hit": false,
      "t": 285153.622570307,
      "d": 75.43105208332418,
      "v": 80
    },
    {
      "midi": 91,
      "hit": false,
      "t": 285336.8122682237,
      "d": 107.75864583341172,
      "v": 92
    },
    {
      "midi": 57,
      "hit": false,
      "t": 285339.50623436953,
      "d": 80.81898437504424,
      "v": 58
    },
    {
      "midi": 60,
      "hit": false,
      "t": 285350.28209895286,
      "d": 32.32759375002934,
      "v": 57
    },
    {
      "midi": 50,
      "hit": false,
      "t": 285350.28209895286,
      "d": 132.00434114591917,
      "v": 48
    },
    {
      "midi": 53,
      "hit": false,
      "t": 285352.9760650987,
      "d": 121.22847656253725,
      "v": 37
    },
    {
      "midi": 89,
      "hit": false,
      "t": 285522.69593228627,
      "d": 113.14657812501537,
      "v": 75
    },
    {
      "midi": 85,
      "hit": false,
      "t": 285700.4976979113,
      "d": 64.65518750000047,
      "v": 58
    },
    {
      "midi": 88,
      "hit": false,
      "t": 285856.7477343696,
      "d": 264.0086822916055,
      "v": 90
    },
    {
      "midi": 57,
      "hit": false,
      "t": 285862.13566666126,
      "d": 115.84054427081719,
      "v": 57
    },
    {
      "midi": 61,
      "hit": false,
      "t": 285872.9115312446,
      "d": 56.57328906247858,
      "v": 55
    },
    {
      "midi": 86,
      "hit": false,
      "t": 286039.9374322862,
      "d": 132.00434114580275,
      "v": 57
    },
    {
      "midi": 81,
      "hit": false,
      "t": 286233.90299478616,
      "d": 96.9827812499716,
      "v": 46
    },
    {
      "midi": 79,
      "hit": false,
      "t": 286409.0107942653,
      "d": 123.92244270833908,
      "v": 53
    },
    {
      "midi": 57,
      "hit": false,
      "t": 286438.6444218695,
      "d": 83.51295052084606,
      "v": 22
    },
    {
      "midi": 77,
      "hit": false,
      "t": 286581.42462759867,
      "d": 132.00434114586096,
      "v": 36
    },
    {
      "midi": 76,
      "hit": false,
      "t": 286764.61432551534,
      "d": 91.59484895830974,
      "v": 55
    },
    {
      "midi": 79,
      "hit": false,
      "t": 286918.1703958278,
      "d": 212.823325520847,
      "v": 83
    },
    {
      "midi": 57,
      "hit": false,
      "t": 286969.3557525986,
      "d": 43.103458333353046,
      "v": 45
    },
    {
      "midi": 76,
      "hit": false,
      "t": 287101.3600937445,
      "d": 105.06467968749348,
      "v": 67
    },
    {
      "midi": 77,
      "hit": false,
      "t": 287257.6101302028,
      "d": 137.39227343752282,
      "v": 72
    },
    {
      "midi": 74,
      "hit": false,
      "t": 287438.10586197366,
      "d": 48.4913906250149,
      "v": 48
    },
    {
      "midi": 64,
      "hit": false,
      "t": 287939.1835650987,
      "d": 35.02155989583116,
      "v": 55
    },
    {
      "midi": 76,
      "hit": false,
      "t": 288098.12756770285,
      "d": 88.90088281250792,
      "v": 65
    },
    {
      "midi": 65,
      "hit": false,
      "t": 288114.29136457783,
      "d": 53.879322916676756,
      "v": 52
    },
    {
      "midi": 69,
      "hit": false,
      "t": 288130.4551614528,
      "d": 37.71552604169119,
      "v": 49
    },
    {
      "midi": 76,
      "hit": false,
      "t": 288284.0112317653,
      "d": 83.51295052084606,
      "v": 54
    },
    {
      "midi": 65,
      "hit": false,
      "t": 288300.1750286403,
      "d": 37.71552604169119,
      "v": 49
    },
    {
      "midi": 69,
      "hit": false,
      "t": 288300.1750286403,
      "d": 37.71552604169119,
      "v": 56
    },
    {
      "midi": 60,
      "hit": false,
      "t": 288973.6665650987,
      "d": 35.02155989583116,
      "v": 48
    },
    {
      "midi": 65,
      "hit": false,
      "t": 289127.2226354112,
      "d": 140.08623958332464,
      "v": 60
    },
    {
      "midi": 72,
      "hit": false,
      "t": 289129.91660155705,
      "d": 250.53885156247998,
      "v": 61
    },
    {
      "midi": 69,
      "hit": false,
      "t": 289140.6924661404,
      "d": 215.51729166664882,
      "v": 55
    },
    {
      "midi": 71,
      "hit": false,
      "t": 289493.60203124455,
      "d": 466.0561432291288,
      "v": 49
    },
    {
      "midi": 68,
      "hit": false,
      "t": 289496.2959973904,
      "d": 387.9311249999446,
      "v": 52
    },
    {
      "midi": 64,
      "hit": false,
      "t": 289509.7658281196,
      "d": 328.663869791606,
      "v": 36
    },
    {
      "midi": 60,
      "hit": false,
      "t": 289520.5416927029,
      "d": 452.58631249994505,
      "v": 46
    },
    {
      "midi": 54,
      "hit": false,
      "t": 289542.09342186956,
      "d": 444.5044140624814,
      "v": 39
    },
    {
      "midi": 89,
      "hit": false,
      "t": 290692.4169661403,
      "d": 102.37071354169166,
      "v": 96
    },
    {
      "midi": 65,
      "hit": false,
      "t": 290700.49886457785,
      "d": 212.823325520847,
      "v": 53
    },
    {
      "midi": 60,
      "hit": false,
      "t": 290700.49886457785,
      "d": 266.70264843752375,
      "v": 56
    },
    {
      "midi": 54,
      "hit": false,
      "t": 290711.2747291612,
      "d": 237.06902083335444,
      "v": 49
    },
    {
      "midi": 87,
      "hit": false,
      "t": 290878.30063020287,
      "d": 78.1250182291842,
      "v": 53
    },
    {
      "midi": 89,
      "hit": false,
      "t": 291064.18429426535,
      "d": 210.12935937498696,
      "v": 94
    },
    {
      "midi": 54,
      "hit": false,
      "t": 291069.572226557,
      "d": 269.3966145833256,
      "v": 52
    },
    {
      "midi": 65,
      "hit": false,
      "t": 291074.96015884867,
      "d": 113.14657812501537,
      "v": 53
    },
    {
      "midi": 60,
      "hit": false,
      "t": 291085.736023432,
      "d": 228.98712239583256,
      "v": 64
    },
    {
      "midi": 87,
      "hit": false,
      "t": 291239.2920937445,
      "d": 250.53885156253818,
      "v": 74
    },
    {
      "midi": 82,
      "hit": false,
      "t": 291406.3179947862,
      "d": 158.94400260417024,
      "v": 74
    },
    {
      "midi": 65,
      "hit": false,
      "t": 291468.27921614033,
      "d": 45.79742447921308,
      "v": 44
    },
    {
      "midi": 60,
      "hit": false,
      "t": 291468.27921614033,
      "d": 245.1509192707599,
      "v": 55
    },
    {
      "midi": 54,
      "hit": false,
      "t": 291470.9731822862,
      "d": 293.6423098957166,
      "v": 46
    },
    {
      "midi": 77,
      "hit": false,
      "t": 291597.58959114033,
      "d": 59.2672552082804,
      "v": 50
    },
    {
      "midi": 65,
      "hit": false,
      "t": 291624.52925259864,
      "d": 53.87932291661855,
      "v": 46
    },
    {
      "midi": 65,
      "hit": false,
      "t": 292050.1759036402,
      "d": 40.409492187493015,
      "v": 64
    },
    {
      "midi": 60,
      "hit": false,
      "t": 292060.95176822355,
      "d": 40.409492187493015,
      "v": 62
    },
    {
      "midi": 54,
      "hit": false,
      "t": 292060.95176822355,
      "d": 75.43105208332418,
      "v": 54
    },
    {
      "midi": 77,
      "hit": false,
      "t": 292448.88289322355,
      "d": 115.84054427081719,
      "v": 92
    },
    {
      "midi": 75,
      "hit": false,
      "t": 292618.60276041104,
      "d": 78.1250182291842,
      "v": 62
    },
    {
      "midi": 77,
      "hit": false,
      "t": 292782.9346953069,
      "d": 110.45261197927175,
      "v": 81
    },
    {
      "midi": 65,
      "hit": false,
      "t": 292785.62866145273,
      "d": 67.3491536458605,
      "v": 55
    },
    {
      "midi": 60,
      "hit": false,
      "t": 292785.62866145273,
      "d": 105.06467968755169,
      "v": 53
    },
    {
      "midi": 54,
      "hit": false,
      "t": 292788.3226275986,
      "d": 218.21125781250885,
      "v": 55
    },
    {
      "midi": 75,
      "hit": false,
      "t": 292944.57266405696,
      "d": 193.9655624999432,
      "v": 69
    },
    {
      "midi": 70,
      "hit": false,
      "t": 293106.21063280693,
      "d": 102.37071354163345,
      "v": 47
    },
    {
      "midi": 65,
      "hit": false,
      "t": 293230.1330755152,
      "d": 48.4913906250149,
      "v": 41
    },
    {
      "midi": 58,
      "hit": false,
      "t": 293294.7882630152,
      "d": 137.3922734374646,
      "v": 26
    },
    {
      "midi": 62,
      "hit": false,
      "t": 293308.2580937444,
      "d": 61.961221354140434,
      "v": 17
    },
    {
      "midi": 72,
      "hit": false,
      "t": 293359.4434505152,
      "d": 121.22847656247905,
      "v": 66
    },
    {
      "midi": 69,
      "hit": false,
      "t": 293502.22365624434,
      "d": 43.103458333353046,
      "v": 51
    },
    {
      "midi": 70,
      "hit": false,
      "t": 293636.921963536,
      "d": 91.59484895830974,
      "v": 79
    },
    {
      "midi": 58,
      "hit": false,
      "t": 293682.71938801516,
      "d": 118.53451041661901,
      "v": 36
    },
    {
      "midi": 66,
      "hit": false,
      "t": 293790.47803384846,
      "d": 35.02155989583116,
      "v": 50
    },
    {
      "midi": 69,
      "hit": false,
      "t": 293898.2366796818,
      "d": 134.6983072916628,
      "v": 75
    },
    {
      "midi": 67,
      "hit": false,
      "t": 294170.327260411,
      "d": 102.37071354169166,
      "v": 65
    },
    {
      "midi": 62,
      "hit": false,
      "t": 294334.6591953068,
      "d": 107.75864583335351,
      "v": 62
    },
    {
      "midi": 62,
      "hit": false,
      "t": 294701.0385911402,
      "d": 53.879322916676756,
      "v": 64
    },
    {
      "midi": 58,
      "hit": false,
      "t": 294730.67221874435,
      "d": 53.879322916676756,
      "v": 37
    },
    {
      "midi": 62,
      "hit": false,
      "t": 294886.9222552027,
      "d": 72.73708593752235,
      "v": 46
    },
    {
      "midi": 58,
      "hit": false,
      "t": 295196.7283619736,
      "d": 43.10345833329484,
      "v": 33
    },
    {
      "midi": 57,
      "hit": false,
      "t": 295212.8921588486,
      "d": 51.185356770816725,
      "v": 27
    },
    {
      "midi": 55,
      "hit": false,
      "t": 295229.05595572357,
      "d": 121.22847656247905,
      "v": 36
    },
    {
      "midi": 67,
      "hit": false,
      "t": 295479.59480728605,
      "d": 118.53451041667722,
      "v": 51
    },
    {
      "midi": 65,
      "hit": false,
      "t": 295581.96552082774,
      "d": 121.22847656247905,
      "v": 48
    },
    {
      "midi": 62,
      "hit": false,
      "t": 295713.96986197354,
      "d": 91.59484895830974,
      "v": 47
    },
    {
      "midi": 58,
      "hit": false,
      "t": 295740.90952343185,
      "d": 91.59484895830974,
      "v": 42
    },
    {
      "midi": 66,
      "hit": false,
      "t": 295926.79318749433,
      "d": 67.3491536458605,
      "v": 47
    },
    {
      "midi": 68,
      "hit": false,
      "t": 296045.327697911,
      "d": 107.75864583335351,
      "v": 59
    },
    {
      "midi": 66,
      "hit": false,
      "t": 296150.3923775985,
      "d": 121.22847656253725,
      "v": 35
    },
    {
      "midi": 58,
      "hit": false,
      "t": 296268.9268880152,
      "d": 35.02155989583116,
      "v": 27
    },
    {
      "midi": 47,
      "hit": false,
      "t": 296724.207166661,
      "d": 32.32759374997113,
      "v": 60
    },
    {
      "midi": 48,
      "hit": false,
      "t": 296740.37096353597,
      "d": 107.7586458332953,
      "v": 81
    },
    {
      "midi": 36,
      "hit": false,
      "t": 297001.6856796818,
      "d": 40.409492187493015,
      "v": 63
    },
    {
      "midi": 60,
      "hit": false,
      "t": 297451.5780260359,
      "d": 121.22847656247905,
      "v": 35
    },
    {
      "midi": 59,
      "hit": false,
      "t": 297753.3022343692,
      "d": 37.71552604169119,
      "v": 54
    },
    {
      "midi": 64,
      "hit": false,
      "t": 297761.38413280674,
      "d": 83.51295052084606,
      "v": 54
    },
    {
      "midi": 69,
      "hit": false,
      "t": 297766.7720650984,
      "d": 88.90088281250792,
      "v": 49
    },
    {
      "midi": 72,
      "hit": false,
      "t": 298044.25057811924,
      "d": 164.3319348959485,
      "v": 61
    },
    {
      "midi": 62,
      "hit": false,
      "t": 298063.1083411401,
      "d": 110.45261197921354,
      "v": 32
    },
    {
      "midi": 67,
      "hit": false,
      "t": 298068.49627343175,
      "d": 121.22847656259546,
      "v": 34
    },
    {
      "midi": 64,
      "hit": false,
      "t": 298076.5781718693,
      "d": 72.73708593752235,
      "v": 28
    },
    {
      "midi": 57,
      "hit": false,
      "t": 298090.04800259846,
      "d": 86.20691666670609,
      "v": 34
    },
    {
      "midi": 63,
      "hit": false,
      "t": 298448.34549999435,
      "d": 193.9655625000014,
      "v": 65
    },
    {
      "midi": 73,
      "hit": false,
      "t": 298448.34549999435,
      "d": 239.76298697915627,
      "v": 70
    },
    {
      "midi": 68,
      "hit": false,
      "t": 298464.50929686934,
      "d": 231.6810885416926,
      "v": 63
    },
    {
      "midi": 58,
      "hit": false,
      "t": 298464.50929686934,
      "d": 247.84488541667815,
      "v": 49
    },
    {
      "midi": 62,
      "hit": false,
      "t": 298803.9490312443,
      "d": 422.95268489583395,
      "v": 61
    },
    {
      "midi": 72,
      "hit": false,
      "t": 298803.9490312443,
      "d": 552.2630598957767,
      "v": 66
    },
    {
      "midi": 67,
      "hit": false,
      "t": 298814.72489582765,
      "d": 509.15960156248184,
      "v": 55
    },
    {
      "midi": 57,
      "hit": false,
      "t": 298814.72489582765,
      "d": 549.5690937499749,
      "v": 61
    },
    {
      "midi": 61,
      "hit": false,
      "t": 299859.983760411,
      "d": 59.26725520833861,
      "v": 62
    },
    {
      "midi": 65,
      "hit": false,
      "t": 299865.37169270264,
      "d": 35.02155989583116,
      "v": 70
    },
    {
      "midi": 77,
      "hit": false,
      "t": 299868.0656588485,
      "d": 43.10345833329484,
      "v": 69
    },
    {
      "midi": 61,
      "hit": false,
      "t": 300059.33725520264,
      "d": 32.32759375002934,
      "v": 30
    },
    {
      "midi": 65,
      "hit": false,
      "t": 300059.33725520264,
      "d": 37.71552604169119,
      "v": 37
    },
    {
      "midi": 67,
      "hit": false,
      "t": 300062.0312213485,
      "d": 35.02155989583116,
      "v": 43
    },
    {
      "midi": 79,
      "hit": false,
      "t": 300064.72518749436,
      "d": 32.32759374997113,
      "v": 53
    },
    {
      "midi": 60,
      "hit": false,
      "t": 300549.63909374434,
      "d": 35.02155989583116,
      "v": 67
    },
    {
      "midi": 65,
      "hit": false,
      "t": 300552.3330598902,
      "d": 35.02155989583116,
      "v": 63
    },
    {
      "midi": 81,
      "hit": false,
      "t": 300557.72099218186,
      "d": 99.67674739583163,
      "v": 74
    },
    {
      "midi": 69,
      "hit": false,
      "t": 300563.1089244735,
      "d": 43.103458333353046,
      "v": 71
    },
    {
      "midi": 84,
      "hit": false,
      "t": 301074.96249218186,
      "d": 145.4741718749865,
      "v": 78
    },
    {
      "midi": 72,
      "hit": false,
      "t": 301083.0443906194,
      "d": 113.14657812495716,
      "v": 71
    },
    {
      "midi": 60,
      "hit": false,
      "t": 301083.0443906194,
      "d": 129.31037499994272,
      "v": 56
    },
    {
      "midi": 65,
      "hit": false,
      "t": 301088.43232291105,
      "d": 37.715526041632984,
      "v": 43
    },
    {
      "midi": 74,
      "hit": false,
      "t": 301454.81171874434,
      "d": 32.32759375002934,
      "v": 65
    },
    {
      "midi": 86,
      "hit": false,
      "t": 301460.199651036,
      "d": 35.02155989588937,
      "v": 62
    },
    {
      "midi": 60,
      "hit": false,
      "t": 301462.89361718186,
      "d": 35.02155989588937,
      "v": 51
    },
    {
      "midi": 65,
      "hit": false,
      "t": 301468.2815494735,
      "d": 40.40949218755122,
      "v": 39
    },
    {
      "midi": 60,
      "hit": false,
      "t": 301589.51002603606,
      "d": 301.7242083333549,
      "v": 68
    },
    {
      "midi": 77,
      "hit": false,
      "t": 301600.2858906194,
      "d": 290.9483437500312,
      "v": 87
    },
    {
      "midi": 65,
      "hit": false,
      "t": 301602.97985676525,
      "d": 223.5991901041707,
      "v": 56
    },
    {
      "midi": 89,
      "hit": false,
      "t": 301602.97985676525,
      "d": 309.8061067708186,
      "v": 85
    },
    {
      "midi": 91,
      "hit": false,
      "t": 302117.5273906194,
      "d": 274.78454687504563,
      "v": 74
    },
    {
      "midi": 79,
      "hit": false,
      "t": 302120.22135676525,
      "d": 264.0086822916637,
      "v": 77
    },
    {
      "midi": 91,
      "hit": false,
      "t": 302613.2171614528,
      "d": 167.02590104169212,
      "v": 68
    },
    {
      "midi": 79,
      "hit": false,
      "t": 302615.91112759867,
      "d": 164.3319348958321,
      "v": 70
    },
    {
      "midi": 86,
      "hit": false,
      "t": 302634.7688906195,
      "d": 140.08623958332464,
      "v": 53
    },
    {
      "midi": 77,
      "hit": false,
      "t": 302960.7387942653,
      "d": 37.71552604169119,
      "v": 47
    },
    {
      "midi": 89,
      "hit": false,
      "t": 302963.4327604112,
      "d": 40.409492187493015,
      "v": 40
    },
    {
      "midi": 91,
      "hit": false,
      "t": 303106.21296614036,
      "d": 156.2500364583684,
      "v": 68
    },
    {
      "midi": 79,
      "hit": false,
      "t": 303108.9069322862,
      "d": 191.27159635419957,
      "v": 60
    },
    {
      "midi": 89,
      "hit": false,
      "t": 303440.26476822374,
      "d": 37.71552604169119,
      "v": 60
    },
    {
      "midi": 77,
      "hit": false,
      "t": 303459.1225312446,
      "d": 40.409492187493015,
      "v": 44
    },
    {
      "midi": 65,
      "hit": false,
      "t": 303469.8983958279,
      "d": 35.02155989583116,
      "v": 43
    },
    {
      "midi": 62,
      "hit": false,
      "t": 303477.98029426544,
      "d": 40.409492187493015,
      "v": 34
    },
    {
      "midi": 79,
      "hit": false,
      "t": 304520.54519270296,
      "d": 309.8061067708768,
      "v": 68
    },
    {
      "midi": 73,
      "hit": false,
      "t": 304525.9331249946,
      "d": 301.7242083333549,
      "v": 64
    },
    {
      "midi": 76,
      "hit": false,
      "t": 304528.6270911405,
      "d": 266.70264843752375,
      "v": 54
    },
    {
      "midi": 67,
      "hit": false,
      "t": 304542.09692186967,
      "d": 234.3750546874944,
      "v": 58
    },
    {
      "midi": 69,
      "hit": false,
      "t": 304550.1788203072,
      "d": 35.02155989583116,
      "v": 50
    },
    {
      "midi": 64,
      "hit": false,
      "t": 304552.87278645305,
      "d": 360.9914635416353,
      "v": 66
    },
    {
      "midi": 77,
      "hit": false,
      "t": 304854.59699478635,
      "d": 245.15091927081812,
      "v": 42
    },
    {
      "midi": 73,
      "hit": false,
      "t": 304862.67889322387,
      "d": 185.8836640624795,
      "v": 25
    },
    {
      "midi": 67,
      "hit": false,
      "t": 304865.37285936973,
      "d": 156.2500364583102,
      "v": 49
    },
    {
      "midi": 62,
      "hit": false,
      "t": 304881.5366562447,
      "d": 347.5216328125098,
      "v": 46
    },
    {
      "midi": 73,
      "hit": false,
      "t": 305212.8944921822,
      "d": 250.53885156247998,
      "v": 51
    },
    {
      "midi": 79,
      "hit": false,
      "t": 305212.8944921822,
      "d": 272.0905807291274,
      "v": 64
    },
    {
      "midi": 76,
      "hit": false,
      "t": 305220.9763906197,
      "d": 228.98712239577435,
      "v": 48
    },
    {
      "midi": 67,
      "hit": false,
      "t": 305229.0582890572,
      "d": 188.57763020828133,
      "v": 32
    },
    {
      "midi": 64,
      "hit": false,
      "t": 305229.0582890572,
      "d": 325.96990364574594,
      "v": 47
    },
    {
      "midi": 73,
      "hit": false,
      "t": 305530.78249739046,
      "d": 70.04311979166232,
      "v": 55
    },
    {
      "midi": 67,
      "hit": false,
      "t": 305541.5583619738,
      "d": 35.02155989583116,
      "v": 40
    },
    {
      "midi": 77,
      "hit": false,
      "t": 305549.6402604113,
      "d": 59.26725520833861,
      "v": 62
    },
    {
      "midi": 62,
      "hit": false,
      "t": 305555.028192703,
      "d": 45.79742447915487,
      "v": 40
    },
    {
      "midi": 76,
      "hit": false,
      "t": 306718.821567703,
      "d": 304.41817447927315,
      "v": 66
    },
    {
      "midi": 73,
      "hit": false,
      "t": 306721.51553384884,
      "d": 498.38373697921634,
      "v": 62
    },
    {
      "midi": 61,
      "hit": false,
      "t": 306726.9034661405,
      "d": 522.6294322917238,
      "v": 62
    },
    {
      "midi": 70,
      "hit": false,
      "t": 306729.59743228636,
      "d": 237.06902083335444,
      "v": 61
    },
    {
      "midi": 79,
      "hit": false,
      "t": 307058.2613020781,
      "d": 134.6983072916628,
      "v": 78
    },
    {
      "midi": 70,
      "hit": false,
      "t": 307066.3432005156,
      "d": 156.2500364583102,
      "v": 70
    },
    {
      "midi": 64,
      "hit": false,
      "t": 307071.73113280727,
      "d": 105.06467968749348,
      "v": 68
    },
    {
      "midi": 77,
      "hit": false,
      "t": 307303.4122213489,
      "d": 126.61640885425732,
      "v": 64
    },
    {
      "midi": 69,
      "hit": false,
      "t": 307303.4122213489,
      "d": 185.88366406259593,
      "v": 53
    },
    {
      "midi": 62,
      "hit": false,
      "t": 307306.10618749476,
      "d": 307.11214062507497,
      "v": 50
    },
    {
      "midi": 72,
      "hit": false,
      "t": 307324.9639505156,
      "d": 91.59484895836795,
      "v": 41
    },
    {
      "midi": 76,
      "hit": false,
      "t": 307720.9769739532,
      "d": 145.4741718750447,
      "v": 52
    },
    {
      "midi": 69,
      "hit": false,
      "t": 307739.83473697404,
      "d": 142.78020572918467,
      "v": 59
    },
    {
      "midi": 65,
      "hit": false,
      "t": 307742.5287031199,
      "d": 175.1077994791558,
      "v": 44
    },
    {
      "midi": 60,
      "hit": false,
      "t": 307742.5287031199,
      "d": 231.68108854163438,
      "v": 54
    },
    {
      "midi": 72,
      "hit": false,
      "t": 308130.45982811984,
      "d": 134.6983072916628,
      "v": 59
    },
    {
      "midi": 62,
      "hit": false,
      "t": 308143.929658849,
      "d": 153.55607031245017,
      "v": 48
    },
    {
      "midi": 57,
      "hit": false,
      "t": 308146.6236249949,
      "d": 180.49573177075945,
      "v": 47
    },
    {
      "midi": 69,
      "hit": false,
      "t": 308149.31759114075,
      "d": 88.90088281244971,
      "v": 54
    },
    {
      "midi": 65,
      "hit": false,
      "t": 308157.39948957827,
      "d": 48.49139062495669,
      "v": 44
    },
    {
      "midi": 69,
      "hit": false,
      "t": 308483.36939322395,
      "d": 177.80176562495762,
      "v": 36
    },
    {
      "midi": 53,
      "hit": false,
      "t": 308494.1452578073,
      "d": 255.92678385414183,
      "v": 54
    },
    {
      "midi": 59,
      "hit": false,
      "t": 308510.30905468226,
      "d": 129.31037500000093,
      "v": 24
    },
    {
      "midi": 59,
      "hit": false,
      "t": 308809.33929686976,
      "d": 45.79742447915487,
      "v": 40
    },
    {
      "midi": 50,
      "hit": false,
      "t": 308825.50309374474,
      "d": 167.02590104169212,
      "v": 41
    },
    {
      "midi": 71,
      "hit": false,
      "t": 309162.24886197393,
      "d": 86.2069166667643,
      "v": 35
    },
    {
      "midi": 62,
      "hit": false,
      "t": 309167.6367942656,
      "d": 64.65518750011688,
      "v": 37
    },
    {
      "midi": 53,
      "hit": false,
      "t": 309173.02472655725,
      "d": 80.81898437510245,
      "v": 48
    },
    {
      "midi": 65,
      "hit": false,
      "t": 309178.412658849,
      "d": 48.4913906250149,
      "v": 44
    },
    {
      "midi": 67,
      "hit": false,
      "t": 309183.80059114064,
      "d": 45.79742447921308,
      "v": 29
    },
    {
      "midi": 70,
      "hit": false,
      "t": 309647.1627682241,
      "d": 309.8061067708186,
      "v": 55
    },
    {
      "midi": 61,
      "hit": false,
      "t": 309652.55070051574,
      "d": 274.7845468749874,
      "v": 52
    },
    {
      "midi": 66,
      "hit": false,
      "t": 309660.63259895326,
      "d": 185.8836640624795,
      "v": 55
    },
    {
      "midi": 51,
      "hit": false,
      "t": 309666.0205312449,
      "d": 137.39227343752282,
      "v": 57
    },
    {
      "midi": 50,
      "hit": false,
      "t": 310183.26203124487,
      "d": 132.00434114586096,
      "v": 38
    },
    {
      "midi": 43,
      "hit": false,
      "t": 310307.1844739532,
      "d": 75.43105208338238,
      "v": 39
    },
    {
      "midi": 58,
      "hit": false,
      "t": 310331.4301692657,
      "d": 86.2069166667643,
      "v": 44
    },
    {
      "midi": 62,
      "hit": false,
      "t": 310339.51206770324,
      "d": 78.12501822924241,
      "v": 47
    },
    {
      "midi": 69,
      "hit": false,
      "t": 310358.3698307241,
      "d": 126.61640885419911,
      "v": 26
    },
    {
      "midi": 55,
      "hit": false,
      "t": 310366.4517291616,
      "d": 37.71552604169119,
      "v": 31
    },
    {
      "midi": 65,
      "hit": false,
      "t": 310382.6155260366,
      "d": 45.79742447921308,
      "v": 32
    },
    {
      "midi": 58,
      "hit": false,
      "t": 310862.14149999496,
      "d": 99.67674739588983,
      "v": 44
    },
    {
      "midi": 62,
      "hit": false,
      "t": 310867.5294322866,
      "d": 78.12501822924241,
      "v": 36
    },
    {
      "midi": 81,
      "hit": false,
      "t": 310872.9173645783,
      "d": 91.59484895842616,
      "v": 71
    },
    {
      "midi": 53,
      "hit": false,
      "t": 310880.9992630158,
      "d": 59.26725520833861,
      "v": 32
    },
    {
      "midi": 69,
      "hit": false,
      "t": 310880.9992630158,
      "d": 61.96122135419864,
      "v": 63
    },
    {
      "midi": 57,
      "hit": false,
      "t": 310891.77512759913,
      "d": 45.79742447915487,
      "v": 34
    },
    {
      "midi": 79,
      "hit": false,
      "t": 311045.3311979117,
      "d": 80.81898437498603,
      "v": 47
    },
    {
      "midi": 69,
      "hit": false,
      "t": 311225.8269296825,
      "d": 509.15960156254005,
      "v": 68
    },
    {
      "midi": 81,
      "hit": false,
      "t": 311228.5208958284,
      "d": 886.3148619791609,
      "v": 68
    },
    {
      "midi": 74,
      "hit": false,
      "t": 311231.21486197424,
      "d": 506.46563541668,
      "v": 57
    },
    {
      "midi": 58,
      "hit": false,
      "t": 311231.21486197424,
      "d": 517.2415000000037,
      "v": 39
    },
    {
      "midi": 62,
      "hit": false,
      "t": 311236.6027942659,
      "d": 487.6078723958344,
      "v": 36
    },
    {
      "midi": 57,
      "hit": false,
      "t": 311236.6027942659,
      "d": 950.9700494791614,
      "v": 36
    },
    {
      "midi": 53,
      "hit": false,
      "t": 311239.29676041176,
      "d": 789.3320807291311,
      "v": 40
    },
    {
      "midi": 74,
      "hit": false,
      "t": 311902.01243228675,
      "d": 382.54319270828273,
      "v": 33
    },
    {
      "midi": 69,
      "hit": false,
      "t": 311902.01243228675,
      "d": 390.6250911458046,
      "v": 54
    },
    {
      "midi": 62,
      "hit": false,
      "t": 311918.17622916173,
      "d": 301.7242083332967,
      "v": 30
    },
    {
      "midi": 58,
      "hit": false,
      "t": 311928.95209374506,
      "d": 401.40095572918653,
      "v": 23
    },
    {
      "midi": 62,
      "hit": false,
      "t": 312403.09013541177,
      "d": 549.5690937499749,
      "v": 41
    },
    {
      "midi": 58,
      "hit": false,
      "t": 312408.4780677034,
      "d": 328.6638697916642,
      "v": 25
    },
    {
      "midi": 54,
      "hit": false,
      "t": 312419.25393228675,
      "d": 1694.5047057291376,
      "v": 38
    },
    {
      "midi": 58,
      "hit": false,
      "t": 312842.2066171826,
      "d": 164.3319348958321,
      "v": 37
    },
    {
      "midi": 69,
      "hit": false,
      "t": 312947.2712968701,
      "d": 75.43105208332418,
      "v": 77
    },
    {
      "midi": 68,
      "hit": false,
      "t": 313028.09028124507,
      "d": 118.53451041667722,
      "v": 51
    },
    {
      "midi": 67,
      "hit": false,
      "t": 313133.15496093256,
      "d": 129.31037500000093,
      "v": 30
    },
    {
      "midi": 66,
      "hit": false,
      "t": 313292.09896353673,
      "d": 67.3491536458605,
      "v": 36
    },
    {
      "midi": 58,
      "hit": false,
      "t": 313362.14208332845,
      "d": 96.9827812499716,
      "v": 18
    },
    {
      "midi": 62,
      "hit": false,
      "t": 313402.55157551594,
      "d": 99.67674739577342,
      "v": 15
    },
    {
      "midi": 69,
      "hit": false,
      "t": 313475.2886614534,
      "d": 158.94400260417024,
      "v": 73
    },
    {
      "midi": 66,
      "hit": false,
      "t": 313698.8878515576,
      "d": 110.45261197915534,
      "v": 74
    },
    {
      "midi": 67,
      "hit": false,
      "t": 313863.2197864534,
      "d": 121.22847656247905,
      "v": 73
    },
    {
      "midi": 62,
      "hit": false,
      "t": 314032.9396536409,
      "d": 132.00434114580275,
      "v": 39
    },
    {
      "midi": 62,
      "hit": false,
      "t": 314288.86643749505,
      "d": 102.37071354169166,
      "v": 52
    },
    {
      "midi": 58,
      "hit": false,
      "t": 314609.44840884925,
      "d": 204.7414270833251,
      "v": 1
    },
    {
      "midi": 55,
      "hit": false,
      "t": 314843.82346353674,
      "d": 53.879322916676756,
      "v": 35
    },
    {
      "midi": 57,
      "hit": false,
      "t": 314981.21573697426,
      "d": 355.60353124997346,
      "v": 69
    },
    {
      "midi": 58,
      "hit": false,
      "t": 315379.9227265576,
      "d": 75.43105208332418,
      "v": 42
    },
    {
      "midi": 57,
      "hit": false,
      "t": 315433.80204947427,
      "d": 88.90088281250792,
      "v": 51
    },
    {
      "midi": 55,
      "hit": false,
      "t": 315520.0089661409,
      "d": 288.25437760417117,
      "v": 53
    },
    {
      "midi": 62,
      "hit": false,
      "t": 316562.57386457844,
      "d": 45.79742447915487,
      "v": 55
    },
    {
      "midi": 58,
      "hit": false,
      "t": 316562.57386457844,
      "d": 86.20691666664788,
      "v": 52
    },
    {
      "midi": 52,
      "hit": false,
      "t": 316589.51352603675,
      "d": 37.71552604169119,
      "v": 34
    },
    {
      "midi": 66,
      "hit": false,
      "t": 317424.6430312451,
      "d": 67.3491536458605,
      "v": 74
    },
    {
      "midi": 61,
      "hit": false,
      "t": 317446.19476041174,
      "d": 118.53451041673543,
      "v": 52
    },
    {
      "midi": 55,
      "hit": false,
      "t": 317454.27665884927,
      "d": 40.40949218755122,
      "v": 44
    },
    {
      "midi": 72,
      "hit": false,
      "t": 317629.3844583285,
      "d": 220.90522395831067,
      "v": 105
    },
    {
      "midi": 70,
      "hit": false,
      "t": 317960.74229426595,
      "d": 137.39227343752282,
      "v": 74
    },
    {
      "midi": 65,
      "hit": false,
      "t": 318189.7294166618,
      "d": 228.98712239583256,
      "v": 43
    },
    {
      "midi": 57,
      "hit": false,
      "t": 318488.7596588493,
      "d": 48.4913906250149,
      "v": 35
    },
    {
      "midi": 61,
      "hit": false,
      "t": 318496.8415572868,
      "d": 164.3319348958321,
      "v": 58
    },
    {
      "midi": 50,
      "hit": false,
      "t": 318515.69932030764,
      "d": 56.57328906247858,
      "v": 33
    },
    {
      "midi": 60,
      "hit": false,
      "t": 318717.7467812451,
      "d": 277.47851302084746,
      "v": 46
    },
    {
      "midi": 61,
      "hit": false,
      "t": 319051.79858332843,
      "d": 67.34915364580229,
      "v": 27
    },
    {
      "midi": 57,
      "hit": false,
      "t": 319057.1865156201,
      "d": 45.79742447915487,
      "v": 24
    },
    {
      "midi": 64,
      "hit": false,
      "t": 319173.0270598909,
      "d": 363.68542968749534,
      "v": 75
    },
    {
      "midi": 61,
      "hit": false,
      "t": 319550.1823203076,
      "d": 148.16813802084653,
      "v": 46
    },
    {
      "midi": 53,
      "hit": false,
      "t": 319574.4280156201,
      "d": 45.79742447915487,
      "v": 24
    },
    {
      "midi": 62,
      "hit": false,
      "t": 319690.2685598909,
      "d": 264.0086822916637,
      "v": 58
    },
    {
      "midi": 57,
      "hit": false,
      "t": 320045.8720911409,
      "d": 40.409492187493015,
      "v": 56
    },
    {
      "midi": 60,
      "hit": false,
      "t": 320705.8937968701,
      "d": 32.32759375002934,
      "v": 60
    },
    {
      "midi": 57,
      "hit": false,
      "t": 320716.6696614534,
      "d": 83.51295052090427,
      "v": 52
    },
    {
      "midi": 50,
      "hit": false,
      "t": 320719.36362759926,
      "d": 43.103458333353046,
      "v": 41
    },
    {
      "midi": 64,
      "hit": false,
      "t": 321589.51469270344,
      "d": 32.32759374997113,
      "v": 69
    },
    {
      "midi": 57,
      "hit": false,
      "t": 321600.29055728676,
      "d": 48.49139062495669,
      "v": 49
    },
    {
      "midi": 75,
      "hit": false,
      "t": 321764.62249218253,
      "d": 282.8664453125675,
      "v": 69
    },
    {
      "midi": 87,
      "hit": false,
      "t": 321775.39835676586,
      "d": 264.0086822917219,
      "v": 64
    },
    {
      "midi": 88,
      "hit": false,
      "t": 322101.3682604118,
      "d": 118.53451041667722,
      "v": 68
    },
    {
      "midi": 76,
      "hit": false,
      "t": 322106.75619270344,
      "d": 105.06467968749348,
      "v": 58
    },
    {
      "midi": 85,
      "hit": false,
      "t": 322157.94154947426,
      "d": 75.43105208338238,
      "v": 25
    },
    {
      "midi": 86,
      "hit": false,
      "t": 322163.3294817659,
      "d": 48.4913906250149,
      "v": 30
    },
    {
      "midi": 88,
      "hit": false,
      "t": 322322.27348437015,
      "d": 169.71986718755215,
      "v": 57
    },
    {
      "midi": 76,
      "hit": false,
      "t": 322341.131247391,
      "d": 148.16813802084653,
      "v": 39
    },
    {
      "midi": 76,
      "hit": false,
      "t": 322610.5278619744,
      "d": 118.53451041673543,
      "v": 69
    },
    {
      "midi": 88,
      "hit": false,
      "t": 322618.6097604119,
      "d": 91.59484895836795,
      "v": 75
    },
    {
      "midi": 60,
      "hit": false,
      "t": 322632.0795911411,
      "d": 32.32759375002934,
      "v": 71
    },
    {
      "midi": 64,
      "hit": false,
      "t": 322634.77355728694,
      "d": 51.185356770816725,
      "v": 72
    },
    {
      "midi": 54,
      "hit": false,
      "t": 322640.1614895786,
      "d": 78.1250182291842,
      "v": 60
    },
    {
      "midi": 87,
      "hit": false,
      "t": 322866.45464582863,
      "d": 199.35349479166325,
      "v": 43
    },
    {
      "midi": 75,
      "hit": false,
      "t": 322874.53654426616,
      "d": 207.43539322912693,
      "v": 48
    },
    {
      "midi": 76,
      "hit": false,
      "t": 323141.2391927036,
      "d": 91.59484895836795,
      "v": 67
    },
    {
      "midi": 88,
      "hit": false,
      "t": 323141.2391927036,
      "d": 110.45261197921354,
      "v": 68
    },
    {
      "midi": 84,
      "hit": false,
      "t": 323154.7090234328,
      "d": 107.75864583335351,
      "v": 58
    },
    {
      "midi": 81,
      "hit": false,
      "t": 323160.09695572447,
      "d": 83.51295052084606,
      "v": 59
    },
    {
      "midi": 86,
      "hit": false,
      "t": 323168.178854162,
      "d": 43.103458333353046,
      "v": 49
    },
    {
      "midi": 88,
      "hit": false,
      "t": 323348.6745859328,
      "d": 96.98278125008801,
      "v": 48
    },
    {
      "midi": 84,
      "hit": false,
      "t": 323372.9202812453,
      "d": 96.98278125008801,
      "v": 35
    },
    {
      "midi": 81,
      "hit": false,
      "t": 323375.6142473912,
      "d": 67.3491536458605,
      "v": 30
    },
    {
      "midi": 88,
      "hit": false,
      "t": 323634.23499739124,
      "d": 86.2069166667643,
      "v": 70
    },
    {
      "midi": 76,
      "hit": false,
      "t": 323645.01086197456,
      "d": 67.3491536459187,
      "v": 68
    },
    {
      "midi": 54,
      "hit": false,
      "t": 323645.01086197456,
      "d": 83.51295052096248,
      "v": 65
    },
    {
      "midi": 64,
      "hit": false,
      "t": 323647.7048281204,
      "d": 61.96122135419864,
      "v": 74
    },
    {
      "midi": 81,
      "hit": false,
      "t": 323655.78672655794,
      "d": 37.71552604169119,
      "v": 60
    },
    {
      "midi": 60,
      "hit": false,
      "t": 323658.4806927038,
      "d": 29.633627604169305,
      "v": 65
    },
    {
      "midi": 86,
      "hit": false,
      "t": 323680.03242187045,
      "d": 37.71552604169119,
      "v": 22
    },
    {
      "midi": 84,
      "hit": false,
      "t": 323682.7263880163,
      "d": 29.633627604169305,
      "v": 33
    },
    {
      "midi": 84,
      "hit": false,
      "t": 323847.0583229122,
      "d": 113.14657812501537,
      "v": 57
    },
    {
      "midi": 72,
      "hit": false,
      "t": 323865.91608593304,
      "d": 148.16813802084653,
      "v": 42
    },
    {
      "midi": 60,
      "hit": false,
      "t": 324226.90754947474,
      "d": 35.02155989583116,
      "v": 42
    },
    {
      "midi": 68,
      "hit": false,
      "t": 324310.4204999956,
      "d": 86.20691666670609,
      "v": 57
    },
    {
      "midi": 80,
      "hit": false,
      "t": 324310.4204999956,
      "d": 94.28881510422798,
      "v": 55
    },
    {
      "midi": 77,
      "hit": false,
      "t": 324361.6058567664,
      "d": 296.33627604169305,
      "v": 45
    },
    {
      "midi": 74,
      "hit": false,
      "t": 324369.6877552039,
      "d": 301.7242083333549,
      "v": 37
    },
    {
      "midi": 81,
      "hit": false,
      "t": 324388.54551822477,
      "d": 242.4569531250163,
      "v": 63
    },
    {
      "midi": 69,
      "hit": false,
      "t": 324396.6274166623,
      "d": 301.7242083332967,
      "v": 76
    },
    {
      "midi": 54,
      "hit": false,
      "t": 324722.5973203081,
      "d": 129.31037500000093,
      "v": 37
    },
    {
      "midi": 77,
      "hit": false,
      "t": 324841.1318307248,
      "d": 220.90522395831067,
      "v": 58
    },
    {
      "midi": 65,
      "hit": false,
      "t": 324846.51976301643,
      "d": 301.7242083333549,
      "v": 54
    },
    {
      "midi": 74,
      "hit": false,
      "t": 324870.76545832894,
      "d": 193.9655625000014,
      "v": 35
    },
    {
      "midi": 60,
      "hit": false,
      "t": 325199.4293281206,
      "d": 32.32759374997113,
      "v": 31
    },
    {
      "midi": 61,
      "hit": false,
      "t": 325326.04573697475,
      "d": 61.96122135419864,
      "v": 64
    },
    {
      "midi": 73,
      "hit": false,
      "t": 325328.7397031206,
      "d": 113.14657812501537,
      "v": 49
    },
    {
      "midi": 66,
      "hit": false,
      "t": 325371.84316145396,
      "d": 358.2974973958335,
      "v": 26
    },
    {
      "midi": 62,
      "hit": false,
      "t": 325404.17075520393,
      "d": 210.12935937504517,
      "v": 53
    },
    {
      "midi": 74,
      "hit": false,
      "t": 325417.6405859331,
      "d": 371.76732812507544,
      "v": 41
    },
    {
      "midi": 69,
      "hit": false,
      "t": 325433.8043828081,
      "d": 126.61640885419911,
      "v": 15
    },
    {
      "midi": 54,
      "hit": false,
      "t": 325738.2225572873,
      "d": 369.0733619792154,
      "v": 35
    },
    {
      "midi": 60,
      "hit": false,
      "t": 325740.9165234332,
      "d": 53.879322916676756,
      "v": 27
    },
    {
      "midi": 64,
      "hit": false,
      "t": 325859.45103384985,
      "d": 269.3966145833256,
      "v": 53
    },
    {
      "midi": 70,
      "hit": false,
      "t": 325870.2268984332,
      "d": 401.4009557291283,
      "v": 70
    },
    {
      "midi": 65,
      "hit": false,
      "t": 325872.92086457903,
      "d": 215.51729166664882,
      "v": 62
    },
    {
      "midi": 60,
      "hit": false,
      "t": 326204.2787005165,
      "d": 45.79742447915487,
      "v": 22
    },
    {
      "midi": 62,
      "hit": false,
      "t": 326360.5287369748,
      "d": 358.2974973958917,
      "v": 40
    },
    {
      "midi": 65,
      "hit": false,
      "t": 326363.2227031207,
      "d": 382.54319270834094,
      "v": 55
    },
    {
      "midi": 54,
      "hit": false,
      "t": 326382.0804661415,
      "d": 352.90956510417163,
      "v": 52
    },
    {
      "midi": 60,
      "hit": false,
      "t": 326411.7140937457,
      "d": 45.79742447915487,
      "v": 26
    },
    {
      "midi": 53,
      "hit": false,
      "t": 326885.85213541234,
      "d": 422.95268489583395,
      "v": 25
    },
    {
      "midi": 58,
      "hit": false,
      "t": 326891.240067704,
      "d": 175.1077994791558,
      "v": 29
    },
    {
      "midi": 62,
      "hit": false,
      "t": 326891.240067704,
      "d": 269.3966145833256,
      "v": 44
    },
    {
      "midi": 57,
      "hit": false,
      "t": 326899.3219661415,
      "d": 231.68108854163438,
      "v": 34
    },
    {
      "midi": 70,
      "hit": false,
      "t": 327403.0936354123,
      "d": 457.9742447916651,
      "v": 74
    },
    {
      "midi": 60,
      "hit": false,
      "t": 327413.8694999956,
      "d": 323.27593750006054,
      "v": 72
    },
    {
      "midi": 65,
      "hit": false,
      "t": 327416.56346614147,
      "d": 352.90956510417163,
      "v": 71
    },
    {
      "midi": 55,
      "hit": false,
      "t": 327419.2574322873,
      "d": 490.30183854157804,
      "v": 62
    },
    {
      "midi": 57,
      "hit": false,
      "t": 327949.9687630164,
      "d": 428.3406171876122,
      "v": 57
    },
    {
      "midi": 72,
      "hit": false,
      "t": 327952.66272916226,
      "d": 285.56041145836934,
      "v": 69
    },
    {
      "midi": 62,
      "hit": false,
      "t": 327955.3566953081,
      "d": 220.90522395836888,
      "v": 59
    },
    {
      "midi": 65,
      "hit": false,
      "t": 327960.7446275998,
      "d": 247.84488541667815,
      "v": 60
    },
    {
      "midi": 62,
      "hit": false,
      "t": 328321.7360911415,
      "d": 53.879322916676756,
      "v": 59
    },
    {
      "midi": 70,
      "hit": false,
      "t": 328321.7360911415,
      "d": 145.4741718750447,
      "v": 65
    },
    {
      "midi": 55,
      "hit": false,
      "t": 328356.7576510373,
      "d": 43.103458333353046,
      "v": 60
    },
    {
      "midi": 68,
      "hit": false,
      "t": 328362.14558332897,
      "d": 56.57328906253679,
      "v": 28
    },
    {
      "midi": 75,
      "hit": false,
      "t": 328814.731895829,
      "d": 651.9398072916665,
      "v": 78
    },
    {
      "midi": 70,
      "hit": false,
      "t": 328822.81379426655,
      "d": 633.0820442708209,
      "v": 80
    },
    {
      "midi": 68,
      "hit": false,
      "t": 328825.5077604124,
      "d": 589.9785859374679,
      "v": 74
    },
    {
      "midi": 64,
      "hit": false,
      "t": 328828.20172655827,
      "d": 576.5087552082841,
      "v": 78
    },
    {
      "midi": 63,
      "hit": false,
      "t": 328844.36552343325,
      "d": 700.4311979166814,
      "v": 91
    },
    {
      "midi": 70,
      "hit": false,
      "t": 329515.1630937457,
      "d": 431.03458333341405,
      "v": 38
    },
    {
      "midi": 64,
      "hit": false,
      "t": 329517.85705989157,
      "d": 342.1337005208479,
      "v": 50
    },
    {
      "midi": 61,
      "hit": false,
      "t": 329520.5510260374,
      "d": 59.26725520833861,
      "v": 53
    },
    {
      "midi": 68,
      "hit": false,
      "t": 329520.5510260374,
      "d": 377.1552604166791,
      "v": 48
    },
    {
      "midi": 73,
      "hit": false,
      "t": 329520.5510260374,
      "d": 409.4828541667084,
      "v": 56
    },
    {
      "midi": 70,
      "hit": false,
      "t": 330027.0166614541,
      "d": 261.3147161458619,
      "v": 58
    },
    {
      "midi": 75,
      "hit": false,
      "t": 330029.71062759997,
      "d": 293.642309895833,
      "v": 72
    },
    {
      "midi": 68,
      "hit": false,
      "t": 330037.7925260375,
      "d": 215.51729166664882,
      "v": 62
    },
    {
      "midi": 61,
      "hit": false,
      "t": 330043.18045832915,
      "d": 355.60353125003166,
      "v": 54
    },
    {
      "midi": 64,
      "hit": false,
      "t": 330048.5683906208,
      "d": 239.76298697915627,
      "v": 47
    },
    {
      "midi": 73,
      "hit": false,
      "t": 330379.9262265583,
      "d": 110.45261197927175,
      "v": 57
    },
    {
      "midi": 70,
      "hit": false,
      "t": 330382.62019270414,
      "d": 107.75864583341172,
      "v": 63
    },
    {
      "midi": 64,
      "hit": false,
      "t": 330385.31415885,
      "d": 91.59484895836795,
      "v": 62
    },
    {
      "midi": 68,
      "hit": false,
      "t": 330388.00812499586,
      "d": 99.67674739583163,
      "v": 60
    },
    {
      "midi": 58,
      "hit": false,
      "t": 330401.47795572504,
      "d": 382.54319270834094,
      "v": 42
    },
    {
      "midi": 56,
      "hit": false,
      "t": 330748.99958853755,
      "d": 113.14657812501537,
      "v": 47
    },
    {
      "midi": 62,
      "hit": false,
      "t": 330862.14616666257,
      "d": 487.6078723958926,
      "v": 77
    },
    {
      "midi": 72,
      "hit": false,
      "t": 330862.14616666257,
      "d": 554.9570260417531,
      "v": 68
    },
    {
      "midi": 67,
      "hit": false,
      "t": 330864.84013280843,
      "d": 487.6078723958926,
      "v": 71
    },
    {
      "midi": 57,
      "hit": false,
      "t": 330872.92203124595,
      "d": 711.2070625000633,
      "v": 71
    },
    {
      "midi": 71,
      "hit": false,
      "t": 331565.27133072517,
      "d": 237.06902083335444,
      "v": 32
    },
    {
      "midi": 56,
      "hit": false,
      "t": 331565.27133072517,
      "d": 393.31905729172286,
      "v": 43
    },
    {
      "midi": 61,
      "hit": false,
      "t": 331584.129093746,
      "d": 164.3319348958321,
      "v": 47
    },
    {
      "midi": 66,
      "hit": false,
      "t": 331592.21099218354,
      "d": 161.63796874997206,
      "v": 48
    },
    {
      "midi": 72,
      "hit": false,
      "t": 331920.8748619752,
      "d": 188.57763020839775,
      "v": 58
    },
    {
      "midi": 66,
      "hit": false,
      "t": 331926.26279426686,
      "d": 245.15091927087633,
      "v": 72
    },
    {
      "midi": 62,
      "hit": false,
      "t": 331945.1205572877,
      "d": 247.84488541667815,
      "v": 65
    },
    {
      "midi": 57,
      "hit": false,
      "t": 331945.1205572877,
      "d": 309.8061067708186,
      "v": 62
    },
    {
      "midi": 48,
      "hit": false,
      "t": 332629.3879583294,
      "d": 51.185356770816725,
      "v": 20
    },
    {
      "midi": 49,
      "hit": false,
      "t": 332694.0431458294,
      "d": 113.14657812495716,
      "v": 36
    },
    {
      "midi": 51,
      "hit": false,
      "t": 332780.25006249605,
      "d": 75.43105208332418,
      "v": 55
    },
    {
      "midi": 52,
      "hit": false,
      "t": 332882.6207760377,
      "d": 99.67674739583163,
      "v": 39
    },
    {
      "midi": 56,
      "hit": false,
      "t": 333065.81047395436,
      "d": 96.9827812500298,
      "v": 35
    },
    {
      "midi": 58,
      "hit": false,
      "t": 333160.09928905853,
      "d": 86.20691666664788,
      "v": 47
    },
    {
      "midi": 32,
      "hit": false,
      "t": 333195.12084895436,
      "d": 83.51295052078785,
      "v": 46
    },
    {
      "midi": 60,
      "hit": false,
      "t": 333337.9010546835,
      "d": 75.43105208332418,
      "v": 62
    },
    {
      "midi": 61,
      "hit": false,
      "t": 333426.801937496,
      "d": 105.06467968749348,
      "v": 45
    },
    {
      "midi": 63,
      "hit": false,
      "t": 333523.78471874597,
      "d": 37.71552604169119,
      "v": 59
    },
    {
      "midi": 65,
      "hit": false,
      "t": 333612.6856015585,
      "d": 78.1250182291842,
      "v": 67
    },
    {
      "midi": 66,
      "hit": false,
      "t": 333704.28045051685,
      "d": 75.43105208332418,
      "v": 56
    },
    {
      "midi": 68,
      "hit": false,
      "t": 333766.241671871,
      "d": 70.04311979166232,
      "v": 54
    },
    {
      "midi": 70,
      "hit": false,
      "t": 333838.9787578085,
      "d": 35.02155989583116,
      "v": 52
    },
    {
      "midi": 72,
      "hit": false,
      "t": 333938.65550520434,
      "d": 64.65518750000047,
      "v": 53
    },
    {
      "midi": 73,
      "hit": false,
      "t": 334016.7805234335,
      "d": 96.9827812500298,
      "v": 63
    },
    {
      "midi": 75,
      "hit": false,
      "t": 334111.0693385377,
      "d": 61.96122135419864,
      "v": 60
    },
    {
      "midi": 77,
      "hit": false,
      "t": 334208.0521197877,
      "d": 83.51295052084606,
      "v": 65
    },
    {
      "midi": 65,
      "hit": false,
      "t": 334234.99178124603,
      "d": 584.590653645806,
      "v": 45
    },
    {
      "midi": 60,
      "hit": false,
      "t": 334243.07367968356,
      "d": 678.8794687499758,
      "v": 48
    },
    {
      "midi": 58,
      "hit": false,
      "t": 334256.54351041274,
      "d": 328.663869791606,
      "v": 27
    },
    {
      "midi": 54,
      "hit": false,
      "t": 334272.7073072877,
      "d": 840.517437500006,
      "v": 40
    },
    {
      "midi": 78,
      "hit": false,
      "t": 334310.4228333294,
      "d": 86.20691666664788,
      "v": 55
    },
    {
      "midi": 80,
      "hit": false,
      "t": 334412.79354687105,
      "d": 56.57328906247858,
      "v": 32
    },
    {
      "midi": 82,
      "hit": false,
      "t": 334485.5306328085,
      "d": 35.02155989583116,
      "v": 46
    },
    {
      "midi": 84,
      "hit": false,
      "t": 334585.20738020435,
      "d": 78.1250182291842,
      "v": 65
    },
    {
      "midi": 85,
      "hit": false,
      "t": 334692.9660260377,
      "d": 75.43105208332418,
      "v": 59
    },
    {
      "midi": 87,
      "hit": false,
      "t": 334792.64277343353,
      "d": 32.32759374997113,
      "v": 34
    },
    {
      "midi": 89,
      "hit": false,
      "t": 334892.31952082936,
      "d": 37.71552604169119,
      "v": 54
    },
    {
      "midi": 92,
      "hit": false,
      "t": 335013.5479973919,
      "d": 175.107799479214,
      "v": 45
    },
    {
      "midi": 93,
      "hit": false,
      "t": 335115.9187109336,
      "d": 118.53451041667722,
      "v": 47
    },
    {
      "midi": 94,
      "hit": false,
      "t": 335185.96183072525,
      "d": 99.67674739583163,
      "v": 42
    },
    {
      "midi": 95,
      "hit": false,
      "t": 335299.10840885027,
      "d": 94.28881510422798,
      "v": 64
    },
    {
      "midi": 53,
      "hit": false,
      "t": 335307.1903072878,
      "d": 1403.5563619792229,
      "v": 36
    },
    {
      "midi": 63,
      "hit": false,
      "t": 335323.3541041628,
      "d": 684.267401041754,
      "v": 30
    },
    {
      "midi": 58,
      "hit": false,
      "t": 335326.04807030864,
      "d": 606.1423828125698,
      "v": 38
    },
    {
      "midi": 96,
      "hit": false,
      "t": 335431.1127499962,
      "d": 719.288960937527,
      "v": 66
    },
    {
      "midi": 84,
      "hit": false,
      "t": 335730.1429921837,
      "d": 490.30183854169445,
      "v": 50
    },
    {
      "midi": 63,
      "hit": false,
      "t": 336295.8758828087,
      "d": 452.58631250000326,
      "v": 39
    },
    {
      "midi": 58,
      "hit": false,
      "t": 336320.1215781212,
      "d": 490.30183854163624,
      "v": 36
    },
    {
      "midi": 82,
      "hit": false,
      "t": 336980.14328385034,
      "d": 75.43105208338238,
      "v": 55
    },
    {
      "midi": 70,
      "hit": false,
      "t": 336982.8372499962,
      "d": 53.879322916676756,
      "v": 56
    },
    {
      "midi": 72,
      "hit": false,
      "t": 337171.41488020454,
      "d": 113.14657812507357,
      "v": 89
    },
    {
      "midi": 84,
      "hit": false,
      "t": 337171.41488020454,
      "d": 126.61640885425732,
      "v": 90
    },
    {
      "midi": 65,
      "hit": false,
      "t": 337192.9666093712,
      "d": 88.90088281256612,
      "v": 66
    },
    {
      "midi": 61,
      "hit": false,
      "t": 337192.9666093712,
      "d": 145.4741718751029,
      "v": 50
    },
    {
      "midi": 56,
      "hit": false,
      "t": 337195.66057551705,
      "d": 121.22847656259546,
      "v": 51
    },
    {
      "midi": 83,
      "hit": false,
      "t": 337198.3545416629,
      "d": 37.71552604169119,
      "v": 46
    },
    {
      "midi": 60,
      "hit": false,
      "t": 337198.3545416629,
      "d": 107.75864583341172,
      "v": 60
    },
    {
      "midi": 56,
      "hit": false,
      "t": 337462.3632239546,
      "d": 228.98712239594897,
      "v": 74
    },
    {
      "midi": 65,
      "hit": false,
      "t": 337470.44512239215,
      "d": 218.21125781256706,
      "v": 76
    },
    {
      "midi": 75,
      "hit": false,
      "t": 337473.139088538,
      "d": 228.98712239594897,
      "v": 87
    },
    {
      "midi": 60,
      "hit": false,
      "t": 337473.139088538,
      "d": 245.15091927093454,
      "v": 68
    },
    {
      "midi": 61,
      "hit": false,
      "t": 337473.139088538,
      "d": 269.396614583442,
      "v": 64
    },
    {
      "midi": 87,
      "hit": false,
      "t": 337475.83305468387,
      "d": 218.21125781256706,
      "v": 88
    },
    {
      "midi": 85,
      "hit": false,
      "t": 337796.4150260381,
      "d": 404.09492187504657,
      "v": 64
    },
    {
      "midi": 61,
      "hit": false,
      "t": 337801.8029583298,
      "d": 398.7069895833847,
      "v": 46
    },
    {
      "midi": 56,
      "hit": false,
      "t": 337804.49692447565,
      "d": 398.7069895833847,
      "v": 53
    },
    {
      "midi": 65,
      "hit": false,
      "t": 337809.8848567673,
      "d": 379.8492265624809,
      "v": 56
    },
    {
      "midi": 73,
      "hit": false,
      "t": 337809.8848567673,
      "d": 382.54319270834094,
      "v": 67
    },
    {
      "midi": 60,
      "hit": false,
      "t": 337820.66072135064,
      "d": 374.46129427087726,
      "v": 60
    },
    {
      "midi": 61,
      "hit": false,
      "t": 338356.75998437154,
      "d": 255.92678385425825,
      "v": 42
    },
    {
      "midi": 65,
      "hit": false,
      "t": 338359.4539505174,
      "d": 218.21125781256706,
      "v": 43
    },
    {
      "midi": 84,
      "hit": false,
      "t": 338362.14791666326,
      "d": 145.4741718750447,
      "v": 58
    },
    {
      "midi": 56,
      "hit": false,
      "t": 338364.8418828091,
      "d": 234.3750546874944,
      "v": 31
    },
    {
      "midi": 72,
      "hit": false,
      "t": 338370.2298151008,
      "d": 196.65952864586143,
      "v": 47
    },
    {
      "midi": 60,
      "hit": false,
      "t": 338383.69964582997,
      "d": 175.1077994791558,
      "v": 43
    },
    {
      "midi": 82,
      "hit": false,
      "t": 338712.36351562163,
      "d": 239.76298697915627,
      "v": 57
    },
    {
      "midi": 61,
      "hit": false,
      "t": 338723.13938020496,
      "d": 315.19403906253865,
      "v": 34
    },
    {
      "midi": 56,
      "hit": false,
      "t": 338723.13938020496,
      "d": 336.74576822918607,
      "v": 36
    },
    {
      "midi": 70,
      "hit": false,
      "t": 338725.8333463508,
      "d": 269.3966145833256,
      "v": 50
    },
    {
      "midi": 65,
      "hit": false,
      "t": 338744.69110937166,
      "d": 231.68108854163438,
      "v": 37
    },
    {
      "midi": 60,
      "hit": false,
      "t": 338766.2428385383,
      "d": 193.9655625000014,
      "v": 29
    },
    {
      "midi": 77,
      "hit": false,
      "t": 339366.99728905916,
      "d": 713.901028645807,
      "v": 51
    },
    {
      "midi": 65,
      "hit": false,
      "t": 339383.1610859342,
      "d": 552.2630598957767,
      "v": 38
    },
    {
      "midi": 73,
      "hit": false,
      "t": 339385.85505208006,
      "d": 670.7975703123957,
      "v": 44
    },
    {
      "midi": 61,
      "hit": false,
      "t": 339385.85505208006,
      "d": 703.125164062425,
      "v": 38
    },
    {
      "midi": 70,
      "hit": false,
      "t": 339391.2429843717,
      "d": 625.0001458332408,
      "v": 40
    },
    {
      "midi": 54,
      "hit": false,
      "t": 339412.7947135384,
      "d": 770.4743177082855,
      "v": 37
    },
    {
      "midi": 58,
      "hit": false,
      "t": 339418.18264583003,
      "d": 649.2458411457483,
      "v": 32
    },
    {
      "midi": 87,
      "hit": false,
      "t": 340377.23459374666,
      "d": 210.12935937510338,
      "v": 73
    },
    {
      "midi": 61,
      "hit": false,
      "t": 340377.23459374666,
      "d": 247.84488541679457,
      "v": 58
    },
    {
      "midi": 75,
      "hit": false,
      "t": 340382.6225260383,
      "d": 207.43539322930155,
      "v": 74
    },
    {
      "midi": 58,
      "hit": false,
      "t": 340385.3164921842,
      "d": 234.37505468761083,
      "v": 56
    },
    {
      "midi": 65,
      "hit": false,
      "t": 340388.01045833004,
      "d": 185.88366406253772,
      "v": 63
    },
    {
      "midi": 54,
      "hit": false,
      "t": 340388.01045833004,
      "d": 204.74142708344152,
      "v": 64
    },
    {
      "midi": 82,
      "hit": false,
      "t": 340390.7044244759,
      "d": 99.67674739583163,
      "v": 71
    },
    {
      "midi": 87,
      "hit": false,
      "t": 340727.45019270515,
      "d": 199.35349479172146,
      "v": 60
    },
    {
      "midi": 75,
      "hit": false,
      "t": 340738.22605728847,
      "d": 145.4741718750447,
      "v": 58
    },
    {
      "midi": 61,
      "hit": false,
      "t": 340746.307955726,
      "d": 191.27159635419957,
      "v": 62
    },
    {
      "midi": 82,
      "hit": false,
      "t": 340749.00192187185,
      "d": 153.55607031250838,
      "v": 59
    },
    {
      "midi": 54,
      "hit": false,
      "t": 340749.00192187185,
      "d": 164.3319348958321,
      "v": 73
    },
    {
      "midi": 58,
      "hit": false,
      "t": 340749.00192187185,
      "d": 188.57763020833954,
      "v": 62
    },
    {
      "midi": 65,
      "hit": false,
      "t": 340751.6958880177,
      "d": 99.67674739583163,
      "v": 68
    },
    {
      "midi": 89,
      "hit": false,
      "t": 341064.19596093433,
      "d": 158.94400260417024,
      "v": 73
    },
    {
      "midi": 61,
      "hit": false,
      "t": 341064.19596093433,
      "d": 223.5991901041707,
      "v": 64
    },
    {
      "midi": 77,
      "hit": false,
      "t": 341074.97182551766,
      "d": 118.53451041667722,
      "v": 61
    },
    {
      "midi": 84,
      "hit": false,
      "t": 341074.97182551766,
      "d": 161.63796875003027,
      "v": 68
    },
    {
      "midi": 54,
      "hit": false,
      "t": 341074.97182551766,
      "d": 196.65952864586143,
      "v": 70
    },
    {
      "midi": 65,
      "hit": false,
      "t": 341080.3597578093,
      "d": 121.22847656253725,
      "v": 64
    },
    {
      "midi": 58,
      "hit": false,
      "t": 341080.3597578093,
      "d": 274.78454687504563,
      "v": 56
    },
    {
      "midi": 90,
      "hit": false,
      "t": 341435.96328905935,
      "d": 207.43539322924335,
      "v": 59
    },
    {
      "midi": 78,
      "hit": false,
      "t": 341444.0451874969,
      "d": 164.3319348958903,
      "v": 48
    },
    {
      "midi": 64,
      "hit": false,
      "t": 341444.0451874969,
      "d": 196.65952864586143,
      "v": 54
    },
    {
      "midi": 85,
      "hit": false,
      "t": 341446.73915364273,
      "d": 161.63796875003027,
      "v": 60
    },
    {
      "midi": 54,
      "hit": false,
      "t": 341446.73915364273,
      "d": 204.74142708338331,
      "v": 57
    },
    {
      "midi": 60,
      "hit": false,
      "t": 341457.51501822605,
      "d": 212.8233255209052,
      "v": 51
    },
    {
      "midi": 58,
      "hit": false,
      "t": 341476.3727812469,
      "d": 164.3319348958321,
      "v": 26
    },
    {
      "midi": 92,
      "hit": false,
      "t": 341775.40302343445,
      "d": 223.5991901042289,
      "v": 63
    },
    {
      "midi": 80,
      "hit": false,
      "t": 341786.1788880178,
      "d": 280.1724791667657,
      "v": 43
    },
    {
      "midi": 87,
      "hit": false,
      "t": 341788.87285416364,
      "d": 223.5991901042289,
      "v": 59
    },
    {
      "midi": 54,
      "hit": false,
      "t": 341788.87285416364,
      "d": 307.11214062507497,
      "v": 60
    },
    {
      "midi": 60,
      "hit": false,
      "t": 341796.95475260116,
      "d": 393.31905729172286,
      "v": 48
    },
    {
      "midi": 64,
      "hit": false,
      "t": 341799.648718747,
      "d": 299.0302421875531,
      "v": 49
    },
    {
      "midi": 89,
      "hit": false,
      "t": 342421.9548984346,
      "d": 360.9914635416935,
      "v": 50
    },
    {
      "midi": 54,
      "hit": false,
      "t": 342430.0367968721,
      "d": 501.07770312507637,
      "v": 51
    },
    {
      "midi": 60,
      "hit": false,
      "t": 342430.0367968721,
      "d": 616.9182473958936,
      "v": 46
    },
    {
      "midi": 64,
      "hit": false,
      "t": 342435.42472916376,
      "d": 476.8320078125689,
      "v": 42
    },
    {
      "midi": 84,
      "hit": false,
      "t": 342443.5066276013,
      "d": 382.54319270834094,
      "v": 45
    },
    {
      "midi": 77,
      "hit": false,
      "t": 342446.20059374714,
      "d": 398.7069895833265,
      "v": 24
    },
    {
      "midi": 60,
      "hit": false,
      "t": 343246.30853905965,
      "d": 80.81898437498603,
      "v": 53
    },
    {
      "midi": 54,
      "hit": false,
      "t": 343257.084403643,
      "d": 150.86210416664835,
      "v": 53
    },
    {
      "midi": 87,
      "hit": false,
      "t": 343273.24820051796,
      "d": 99.67674739583163,
      "v": 55
    },
    {
      "midi": 75,
      "hit": false,
      "t": 343275.9421666638,
      "d": 105.06467968749348,
      "v": 54
    },
    {
      "midi": 82,
      "hit": false,
      "t": 343300.18786197633,
      "d": 75.43105208332418,
      "v": 39
    },
    {
      "midi": 63,
      "hit": false,
      "t": 343558.8086119763,
      "d": 759.69845312502,
      "v": 43
    },
    {
      "midi": 85,
      "hit": false,
      "t": 343566.8905104138,
      "d": 226.29315625003073,
      "v": 46
    },
    {
      "midi": 58,
      "hit": false,
      "t": 343566.8905104138,
      "d": 692.3492994791595,
      "v": 45
    },
    {
      "midi": 73,
      "hit": false,
      "t": 343569.58447655966,
      "d": 239.76298697915627,
      "v": 35
    },
    {
      "midi": 53,
      "hit": false,
      "t": 343580.360341143,
      "d": 1309.2675468749949,
      "v": 32
    },
    {
      "midi": 63,
      "hit": false,
      "t": 344536.7183229138,
      "d": 417.5647526041721,
      "v": 40
    },
    {
      "midi": 58,
      "hit": false,
      "t": 344539.41228905966,
      "d": 398.7069895833265,
      "v": 42
    },
    {
      "midi": 66,
      "hit": false,
      "t": 345530.7918307263,
      "d": 158.94400260428665,
      "v": 47
    },
    {
      "midi": 62,
      "hit": false,
      "t": 345538.87372916384,
      "d": 175.10779947927222,
      "v": 37
    },
    {
      "midi": 56,
      "hit": false,
      "t": 345541.5676953097,
      "d": 158.94400260422844,
      "v": 40
    },
    {
      "midi": 78,
      "hit": false,
      "t": 345544.26166145556,
      "d": 156.2500364583684,
      "v": 46
    },
    {
      "midi": 90,
      "hit": false,
      "t": 345549.6495937472,
      "d": 150.86210416670656,
      "v": 53
    },
    {
      "midi": 85,
      "hit": false,
      "t": 345557.73149218474,
      "d": 137.39227343752282,
      "v": 50
    },
    {
      "midi": 86,
      "hit": false,
      "t": 346018.39970312227,
      "d": 215.51729166670702,
      "v": 47
    },
    {
      "midi": 62,
      "hit": false,
      "t": 346029.1755677056,
      "d": 245.15091927093454,
      "v": 37
    },
    {
      "midi": 91,
      "hit": false,
      "t": 346031.86953385145,
      "d": 188.57763020833954,
      "v": 40
    },
    {
      "midi": 79,
      "hit": false,
      "t": 346034.5634999973,
      "d": 153.55607031250838,
      "v": 37
    },
    {
      "midi": 66,
      "hit": false,
      "t": 346034.5634999973,
      "d": 207.43539322918514,
      "v": 47
    },
    {
      "midi": 56,
      "hit": false,
      "t": 346039.951432289,
      "d": 210.12935937504517,
      "v": 44
    },
    {
      "midi": 62,
      "hit": false,
      "t": 346565.2748307265,
      "d": 519.9354661458638,
      "v": 49
    },
    {
      "midi": 66,
      "hit": false,
      "t": 346565.2748307265,
      "d": 557.650992187555,
      "v": 48
    },
    {
      "midi": 82,
      "hit": false,
      "t": 346567.96879687236,
      "d": 576.5087552083423,
      "v": 55
    },
    {
      "midi": 56,
      "hit": false,
      "t": 346567.96879687236,
      "d": 662.7156718750484,
      "v": 48
    },
    {
      "midi": 94,
      "hit": false,
      "t": 346570.6627630182,
      "d": 592.6725520833279,
      "v": 60
    },
    {
      "midi": 95,
      "hit": false,
      "t": 347650.9431874974,
      "d": 172.4138333334704,
      "v": 73
    },
    {
      "midi": 61,
      "hit": false,
      "t": 347650.9431874974,
      "d": 193.9655625001178,
      "v": 50
    },
    {
      "midi": 60,
      "hit": false,
      "t": 347653.63715364324,
      "d": 161.63796875008848,
      "v": 48
    },
    {
      "midi": 83,
      "hit": false,
      "t": 347656.3311197891,
      "d": 132.00434114586096,
      "v": 72
    },
    {
      "midi": 65,
      "hit": false,
      "t": 347656.3311197891,
      "d": 140.08623958338285,
      "v": 58
    },
    {
      "midi": 90,
      "hit": false,
      "t": 347659.02508593496,
      "d": 123.92244270833908,
      "v": 60
    },
    {
      "midi": 55,
      "hit": false,
      "t": 347680.5768151016,
      "d": 129.31037500005914,
      "v": 46
    },
    {
      "midi": 95,
      "hit": false,
      "t": 347993.07688801835,
      "d": 126.61640885431552,
      "v": 76
    },
    {
      "midi": 60,
      "hit": false,
      "t": 347993.07688801835,
      "d": 140.08623958349926,
      "v": 72
    },
    {
      "midi": 61,
      "hit": false,
      "t": 347993.07688801835,
      "d": 148.16813802102115,
      "v": 62
    },
    {
      "midi": 83,
      "hit": false,
      "t": 348001.15878645587,
      "d": 72.73708593758056,
      "v": 76
    },
    {
      "midi": 65,
      "hit": false,
      "t": 348003.8527526017,
      "d": 88.90088281256612,
      "v": 72
    },
    {
      "midi": 90,
      "hit": false,
      "t": 348003.8527526017,
      "d": 115.8405442709336,
      "v": 69
    },
    {
      "midi": 55,
      "hit": false,
      "t": 348006.5467187476,
      "d": 99.67674739588983,
      "v": 66
    },
    {
      "midi": 58,
      "hit": false,
      "t": 348036.18034635176,
      "d": 64.65518750005867,
      "v": 26
    },
    {
      "midi": 96,
      "hit": false,
      "t": 348232.8398749977,
      "d": 196.65952864597784,
      "v": 81
    },
    {
      "midi": 60,
      "hit": false,
      "t": 348232.8398749977,
      "d": 207.43539322930155,
      "v": 68
    },
    {
      "midi": 61,
      "hit": false,
      "t": 348232.8398749977,
      "d": 207.43539322930155,
      "v": 55
    },
    {
      "midi": 65,
      "hit": false,
      "t": 348240.9217734352,
      "d": 169.71986718761036,
      "v": 71
    },
    {
      "midi": 84,
      "hit": false,
      "t": 348243.61573958106,
      "d": 164.3319348958903,
      "v": 76
    },
    {
      "midi": 55,
      "hit": false,
      "t": 348243.61573958106,
      "d": 185.88366406259593,
      "v": 69
    },
    {
      "midi": 93,
      "hit": false,
      "t": 348251.6976380186,
      "d": 148.16813802084653,
      "v": 69
    },
    {
      "midi": 96,
      "hit": false,
      "t": 348515.7063203103,
      "d": 105.0646796876099,
      "v": 71
    },
    {
      "midi": 84,
      "hit": false,
      "t": 348526.4821848936,
      "d": 37.7155260417494,
      "v": 65
    },
    {
      "midi": 61,
      "hit": false,
      "t": 348529.1761510395,
      "d": 137.39227343758103,
      "v": 55
    },
    {
      "midi": 93,
      "hit": false,
      "t": 348531.87011718535,
      "d": 80.81898437504424,
      "v": 71
    },
    {
      "midi": 60,
      "hit": false,
      "t": 348534.5640833312,
      "d": 96.9827812500298,
      "v": 68
    },
    {
      "midi": 65,
      "hit": false,
      "t": 348545.33994791453,
      "d": 35.02155989583116,
      "v": 64
    },
    {
      "midi": 55,
      "hit": false,
      "t": 348550.7278802062,
      "d": 53.879322916676756,
      "v": 50
    },
    {
      "midi": 95,
      "hit": false,
      "t": 348564.1977109354,
      "d": 43.103458333353046,
      "v": 38
    },
    {
      "midi": 99,
      "hit": false,
      "t": 348752.7753411437,
      "d": 218.21125781262526,
      "v": 73
    },
    {
      "midi": 60,
      "hit": false,
      "t": 348752.7753411437,
      "d": 231.681088541809,
      "v": 62
    },
    {
      "midi": 61,
      "hit": false,
      "t": 348752.7753411437,
      "d": 239.7629869793309,
      "v": 50
    },
    {
      "midi": 87,
      "hit": false,
      "t": 348758.1632734354,
      "d": 188.57763020839775,
      "v": 63
    },
    {
      "midi": 65,
      "hit": false,
      "t": 348763.5512057271,
      "d": 193.9655625000596,
      "v": 66
    },
    {
      "midi": 55,
      "hit": false,
      "t": 348766.24517187296,
      "d": 188.57763020833954,
      "v": 69
    },
    {
      "midi": 99,
      "hit": false,
      "t": 349062.5814479147,
      "d": 185.88366406253772,
      "v": 52
    },
    {
      "midi": 87,
      "hit": false,
      "t": 349070.66334635223,
      "d": 134.698307291721,
      "v": 60
    },
    {
      "midi": 61,
      "hit": false,
      "t": 349073.3573124981,
      "d": 169.71986718749395,
      "v": 56
    },
    {
      "midi": 94,
      "hit": false,
      "t": 349086.8271432273,
      "d": 105.06467968749348,
      "v": 52
    },
    {
      "midi": 60,
      "hit": false,
      "t": 349092.21507551894,
      "d": 59.26725520833861,
      "v": 51
    },
    {
      "midi": 65,
      "hit": false,
      "t": 349092.21507551894,
      "d": 88.90088281250792,
      "v": 63
    },
    {
      "midi": 55,
      "hit": false,
      "t": 349097.6030078106,
      "d": 140.08623958332464,
      "v": 66
    },
    {
      "midi": 58,
      "hit": false,
      "t": 349140.70646614395,
      "d": 75.43105208332418,
      "v": 23
    },
    {
      "midi": 100,
      "hit": false,
      "t": 349480.14620051894,
      "d": 175.10779947927222,
      "v": 80
    },
    {
      "midi": 58,
      "hit": false,
      "t": 349482.8401666648,
      "d": 161.63796875008848,
      "v": 63
    },
    {
      "midi": 88,
      "hit": false,
      "t": 349482.8401666648,
      "d": 161.63796875008848,
      "v": 78
    },
    {
      "midi": 95,
      "hit": false,
      "t": 349482.8401666648,
      "d": 175.10779947927222,
      "v": 76
    },
    {
      "midi": 65,
      "hit": false,
      "t": 349485.53413281066,
      "d": 172.41383333341219,
      "v": 80
    },
    {
      "midi": 54,
      "hit": false,
      "t": 349488.2280989565,
      "d": 193.9655625000596,
      "v": 79
    },
    {
      "midi": 60,
      "hit": false,
      "t": 349488.2280989565,
      "d": 196.65952864591964,
      "v": 74
    },
    {
      "midi": 100,
      "hit": false,
      "t": 349784.56437499827,
      "d": 177.80176562513225,
      "v": 63
    },
    {
      "midi": 95,
      "hit": false,
      "t": 349792.6462734358,
      "d": 153.5560703126248,
      "v": 71
    },
    {
      "midi": 54,
      "hit": false,
      "t": 349792.6462734358,
      "d": 177.80176562513225,
      "v": 69
    },
    {
      "midi": 65,
      "hit": false,
      "t": 349795.34023958165,
      "d": 132.00434114591917,
      "v": 64
    },
    {
      "midi": 88,
      "hit": false,
      "t": 349798.0342057275,
      "d": 110.45261197921354,
      "v": 57
    },
    {
      "midi": 60,
      "hit": false,
      "t": 349800.7281718734,
      "d": 177.80176562507404,
      "v": 61
    },
    {
      "midi": 54,
      "hit": false,
      "t": 350094.37048176926,
      "d": 377.1552604167955,
      "v": 70
    },
    {
      "midi": 101,
      "hit": false,
      "t": 350097.0644479151,
      "d": 280.1724791667657,
      "v": 68
    },
    {
      "midi": 65,
      "hit": false,
      "t": 350099.758414061,
      "d": 363.68542968755355,
      "v": 57
    },
    {
      "midi": 60,
      "hit": false,
      "t": 350099.758414061,
      "d": 428.340617187554,
      "v": 59
    },
    {
      "midi": 96,
      "hit": false,
      "t": 350102.45238020684,
      "d": 264.0086822917219,
      "v": 65
    },
    {
      "midi": 89,
      "hit": false,
      "t": 350110.53427864437,
      "d": 218.21125781250885,
      "v": 53
    },
    {
      "midi": 104,
      "hit": false,
      "t": 350711.2887291652,
      "d": 212.823325520847,
      "v": 64
    },
    {
      "midi": 65,
      "hit": false,
      "t": 350716.6766614569,
      "d": 210.12935937504517,
      "v": 63
    },
    {
      "midi": 60,
      "hit": false,
      "t": 350716.6766614569,
      "d": 264.0086822917219,
      "v": 60
    },
    {
      "midi": 99,
      "hit": false,
      "t": 350722.06459374854,
      "d": 220.90522395836888,
      "v": 55
    },
    {
      "midi": 92,
      "hit": false,
      "t": 350724.7585598944,
      "d": 177.80176562501583,
      "v": 37
    },
    {
      "midi": 54,
      "hit": false,
      "t": 350724.7585598944,
      "d": 218.21125781250885,
      "v": 60
    },
    {
      "midi": 54,
      "hit": false,
      "t": 351066.89226041525,
      "d": 94.28881510428619,
      "v": 55
    },
    {
      "midi": 104,
      "hit": false,
      "t": 351069.5862265611,
      "d": 83.51295052090427,
      "v": 60
    },
    {
      "midi": 65,
      "hit": false,
      "t": 351074.97415885277,
      "d": 48.49139062507311,
      "v": 49
    },
    {
      "midi": 92,
      "hit": false,
      "t": 351077.6681249986,
      "d": 40.40949218755122,
      "v": 48
    },
    {
      "midi": 60,
      "hit": false,
      "t": 351077.6681249986,
      "d": 80.81898437504424,
      "v": 61
    },
    {
      "midi": 99,
      "hit": false,
      "t": 351080.3620911445,
      "d": 78.1250182291842,
      "v": 52
    },
    {
      "midi": 54,
      "hit": false,
      "t": 351244.6940260404,
      "d": 277.47851302084746,
      "v": 67
    },
    {
      "midi": 65,
      "hit": false,
      "t": 351247.38799218624,
      "d": 153.55607031250838,
      "v": 55
    },
    {
      "midi": 106,
      "hit": false,
      "t": 351250.0819583321,
      "d": 207.43539322912693,
      "v": 70
    },
    {
      "midi": 99,
      "hit": false,
      "t": 351255.46989062376,
      "d": 145.4741718749865,
      "v": 50
    },
    {
      "midi": 60,
      "hit": false,
      "t": 351260.8578229154,
      "d": 175.1077994791558,
      "v": 68
    },
    {
      "midi": 94,
      "hit": false,
      "t": 351260.8578229154,
      "d": 185.8836640624795,
      "v": 50
    },
    {
      "midi": 108,
      "hit": false,
      "t": 351721.5260338529,
      "d": 428.340617187554,
      "v": 76
    },
    {
      "midi": 96,
      "hit": false,
      "t": 351732.3018984362,
      "d": 503.7716692708782,
      "v": 53
    },
    {
      "midi": 63,
      "hit": false,
      "t": 351732.3018984362,
      "d": 592.6725520833861,
      "v": 48
    },
    {
      "midi": 101,
      "hit": false,
      "t": 351737.6898307279,
      "d": 452.58631250006147,
      "v": 36
    },
    {
      "midi": 58,
      "hit": false,
      "t": 351740.38379687374,
      "d": 802.8019114583731,
      "v": 54
    },
    {
      "midi": 53,
      "hit": false,
      "t": 351740.38379687374,
      "d": 1861.5306067708298,
      "v": 48
    },
    {
      "midi": 63,
      "hit": false,
      "t": 352782.94869531126,
      "d": 929.4183203124558,
      "v": 32
    },
    {
      "midi": 58,
      "hit": false,
      "t": 352788.3366276029,
      "d": 859.3752005207934,
      "v": 34
    },
    {
      "midi": 70,
      "hit": false,
      "t": 352820.6642213529,
      "d": 48.4913906250149,
      "v": 51
    },
    {
      "midi": 72,
      "hit": false,
      "t": 352890.70734114456,
      "d": 126.6164088541409,
      "v": 56
    },
    {
      "midi": 70,
      "hit": false,
      "t": 352990.3840885404,
      "d": 134.6983072916628,
      "v": 42
    },
    {
      "midi": 69,
      "hit": false,
      "t": 353138.55222656124,
      "d": 43.103458333353046,
      "v": 48
    },
    {
      "midi": 65,
      "hit": false,
      "t": 353909.0265442696,
      "d": 1166.4873411458684,
      "v": 38
    },
    {
      "midi": 56,
      "hit": false,
      "t": 353922.49637499877,
      "d": 1945.0435572916758,
      "v": 25
    },
    {
      "midi": 61,
      "hit": false,
      "t": 353930.5782734363,
      "d": 1888.470268229139,
      "v": 33
    },
    {
      "midi": 60,
      "hit": false,
      "t": 353933.27223958215,
      "d": 1734.9141979166307,
      "v": 33
    },
    {
      "midi": 70,
      "hit": false,
      "t": 354248.4662786446,
      "d": 94.28881510416977,
      "v": 53
    },
    {
      "midi": 71,
      "hit": false,
      "t": 354399.3283828113,
      "d": 61.961221354140434,
      "v": 43
    },
    {
      "midi": 72,
      "hit": false,
      "t": 354493.6171979154,
      "d": 134.6983072916628,
      "v": 36
    },
    {
      "midi": 73,
      "hit": false,
      "t": 354617.5396406237,
      "d": 40.409492187493015,
      "v": 42
    },
    {
      "midi": 74,
      "hit": false,
      "t": 354676.80689583207,
      "d": 137.39227343752282,
      "v": 42
    },
    {
      "midi": 75,
      "hit": false,
      "t": 354814.1991692696,
      "d": 490.30183854169445,
      "v": 68
    },
    {
      "midi": 74,
      "hit": false,
      "t": 355266.7854817696,
      "d": 102.37071354169166,
      "v": 54
    },
    {
      "midi": 73,
      "hit": false,
      "t": 355339.5225677071,
      "d": 129.31037500000093,
      "v": 64
    },
    {
      "midi": 72,
      "hit": false,
      "t": 355458.0570781238,
      "d": 684.2674010416958,
      "v": 51
    },
    {
      "midi": 70,
      "hit": false,
      "t": 356064.1994609363,
      "d": 1120.6899166667135,
      "v": 23
    },
    {
      "midi": 65,
      "hit": false,
      "t": 356963.98415364465,
      "d": 517.2415000000619,
      "v": 50
    },
    {
      "midi": 61,
      "hit": false,
      "t": 356977.45398437383,
      "d": 926.7243541667121,
      "v": 26
    },
    {
      "midi": 58,
      "hit": false,
      "t": 357001.69967968634,
      "d": 654.6337734375265,
      "v": 25
    },
    {
      "midi": 54,
      "hit": false,
      "t": 357004.3936458322,
      "d": 498.38373697915813,
      "v": 31
    },
    {
      "midi": 63,
      "hit": false,
      "t": 357486.6135859364,
      "d": 223.5991901041707,
      "v": 46
    },
    {
      "midi": 65,
      "hit": false,
      "t": 357780.2558958322,
      "d": 113.14657812501537,
      "v": 65
    },
    {
      "midi": 54,
      "hit": false,
      "t": 357791.0317604155,
      "d": 102.37071354169166,
      "v": 44
    },
    {
      "midi": 58,
      "hit": false,
      "t": 357799.11365885305,
      "d": 150.86210416664835,
      "v": 25
    },
    {
      "midi": 54,
      "hit": false,
      "t": 357998.4671536447,
      "d": 231.6810885416926,
      "v": 46
    },
    {
      "midi": 66,
      "hit": false,
      "t": 358028.1007812489,
      "d": 323.2759375000023,
      "v": 49
    },
    {
      "midi": 64,
      "hit": false,
      "t": 358036.1826796864,
      "d": 164.3319348958321,
      "v": 22
    },
    {
      "midi": 60,
      "hit": false,
      "t": 358038.87664583226,
      "d": 207.43539322912693,
      "v": 38
    },
    {
      "midi": 68,
      "hit": false,
      "t": 358324.4370572906,
      "d": 695.0432656250196,
      "v": 64
    },
    {
      "midi": 54,
      "hit": false,
      "t": 358335.2129218739,
      "d": 487.6078723958344,
      "v": 40
    },
    {
      "midi": 64,
      "hit": false,
      "t": 358345.9887864572,
      "d": 439.1164817708195,
      "v": 26
    },
    {
      "midi": 60,
      "hit": false,
      "t": 358351.3767187489,
      "d": 441.81044791667955,
      "v": 36
    },
    {
      "midi": 65,
      "hit": false,
      "t": 359321.20453124895,
      "d": 304.41817447921494,
      "v": 62
    },
    {
      "midi": 54,
      "hit": false,
      "t": 359345.45022656146,
      "d": 175.107799479214,
      "v": 33
    },
    {
      "midi": 60,
      "hit": false,
      "t": 359353.532124999,
      "d": 48.4913906250149,
      "v": 25
    },
    {
      "midi": 58,
      "hit": false,
      "t": 359372.3898880198,
      "d": 137.39227343752282,
      "v": 25
    },
    {
      "midi": 63,
      "hit": false,
      "t": 359660.644265624,
      "d": 339.4397343749879,
      "v": 49
    },
    {
      "midi": 53,
      "hit": false,
      "t": 360013.55383072817,
      "d": 897.0907265624846,
      "v": 36
    },
    {
      "midi": 60,
      "hit": false,
      "t": 360016.247796874,
      "d": 398.7069895833265,
      "v": 52
    },
    {
      "midi": 58,
      "hit": false,
      "t": 360040.49349218654,
      "d": 1007.5433385415818,
      "v": 19
    },
    {
      "midi": 55,
      "hit": false,
      "t": 360064.73918749904,
      "d": 1039.870932291553,
      "v": 22
    },
    {
      "midi": 72,
      "hit": false,
      "t": 360358.3814973949,
      "d": 4326.5096302081365,
      "v": 66
    },
    {
      "midi": 60,
      "hit": false,
      "t": 360584.67465364485,
      "d": 226.29315624997253,
      "v": 45
    },
    {
      "midi": 60,
      "hit": false,
      "t": 360921.420421874,
      "d": 80.81898437498603,
      "v": 55
    },
    {
      "midi": 60,
      "hit": false,
      "t": 361158.4894427073,
      "d": 140.08623958332464,
      "v": 64
    },
    {
      "midi": 58,
      "hit": false,
      "t": 361624.5455859364,
      "d": 312.5000729166786,
      "v": 84
    },
    {
      "midi": 53,
      "hit": false,
      "t": 361629.93351822806,
      "d": 296.33627604169305,
      "v": 89
    },
    {
      "midi": 60,
      "hit": false,
      "t": 361632.6274843739,
      "d": 272.0905807291856,
      "v": 91
    },
    {
      "midi": 53,
      "hit": false,
      "t": 362007.08877864474,
      "d": 129.31037499994272,
      "v": 71
    },
    {
      "midi": 58,
      "hit": false,
      "t": 362007.08877864474,
      "d": 153.55607031245017,
      "v": 69
    },
    {
      "midi": 60,
      "hit": false,
      "t": 362012.4767109364,
      "d": 91.59484895830974,
      "v": 57
    },
    {
      "midi": 58,
      "hit": false,
      "t": 362368.0802421864,
      "d": 80.81898437498603,
      "v": 50
    },
    {
      "midi": 53,
      "hit": false,
      "t": 362373.46817447804,
      "d": 45.79742447915487,
      "v": 53
    },
    {
      "midi": 60,
      "hit": false,
      "t": 362378.8561067697,
      "d": 32.32759374997113,
      "v": 55
    },
    {
      "midi": 58,
      "hit": false,
      "t": 362712.907908853,
      "d": 325.96990364586236,
      "v": 53
    },
    {
      "midi": 60,
      "hit": false,
      "t": 362720.98980729055,
      "d": 285.56041145831114,
      "v": 62
    },
    {
      "midi": 53,
      "hit": false,
      "t": 362720.98980729055,
      "d": 304.41817447915673,
      "v": 60
    },
    {
      "midi": 53,
      "hit": false,
      "t": 363170.88215364475,
      "d": 53.879322916676756,
      "v": 35
    },
    {
      "midi": 58,
      "hit": false,
      "t": 363173.5761197906,
      "d": 75.43105208332418,
      "v": 42
    },
    {
      "midi": 60,
      "hit": false,
      "t": 363178.9640520823,
      "d": 35.02155989583116,
      "v": 41
    },
    {
      "midi": 58,
      "hit": false,
      "t": 363526.4856848948,
      "d": 78.125018229126,
      "v": 55
    },
    {
      "midi": 60,
      "hit": false,
      "t": 363531.87361718644,
      "d": 32.32759374997113,
      "v": 63
    },
    {
      "midi": 53,
      "hit": false,
      "t": 363537.2615494781,
      "d": 40.409492187493015,
      "v": 53
    },
    {
      "midi": 58,
      "hit": false,
      "t": 363879.3952499989,
      "d": 164.3319348958321,
      "v": 56
    },
    {
      "midi": 53,
      "hit": false,
      "t": 363890.1711145822,
      "d": 102.37071354169166,
      "v": 59
    },
    {
      "midi": 60,
      "hit": false,
      "t": 363892.8650807281,
      "d": 40.409492187493015,
      "v": 55
    },
    {
      "midi": 52,
      "hit": false,
      "t": 364224.22291666555,
      "d": 929.4183203124558,
      "v": 49
    },
    {
      "midi": 57,
      "hit": false,
      "t": 364234.99878124887,
      "d": 926.7243541666539,
      "v": 52
    },
    {
      "midi": 58,
      "hit": false,
      "t": 364245.7746458322,
      "d": 560.3449583332986,
      "v": 33
    },
    {
      "midi": 77,
      "hit": false,
      "t": 365242.5421197905,
      "d": 369.0733619792154,
      "v": 87
    },
    {
      "midi": 53,
      "hit": false,
      "t": 365242.5421197905,
      "d": 511.8535677084001,
      "v": 73
    },
    {
      "midi": 65,
      "hit": false,
      "t": 365245.23608593637,
      "d": 336.74576822918607,
      "v": 91
    },
    {
      "midi": 79,
      "hit": false,
      "t": 365770.5594843739,
      "d": 336.74576822918607,
      "v": 85
    },
    {
      "midi": 55,
      "hit": false,
      "t": 365770.5594843739,
      "d": 479.52597395837074,
      "v": 77
    },
    {
      "midi": 67,
      "hit": false,
      "t": 365773.25345051975,
      "d": 290.948343749973,
      "v": 87
    },
    {
      "midi": 81,
      "hit": false,
      "t": 366266.24925520725,
      "d": 193.9655625000014,
      "v": 85
    },
    {
      "midi": 57,
      "hit": false,
      "t": 366268.9432213531,
      "d": 107.75864583335351,
      "v": 73
    },
    {
      "midi": 69,
      "hit": false,
      "t": 366268.9432213531,
      "d": 140.08623958332464,
      "v": 85
    },
    {
      "midi": 60,
      "hit": false,
      "t": 367087.9089296864,
      "d": 242.4569531250745,
      "v": 80
    },
    {
      "midi": 72,
      "hit": false,
      "t": 367098.68479426973,
      "d": 132.00434114586096,
      "v": 84
    },
    {
      "midi": 84,
      "hit": false,
      "t": 367098.68479426973,
      "d": 164.3319348958903,
      "v": 90
    },
    {
      "midi": 62,
      "hit": false,
      "t": 367386.939171874,
      "d": 328.6638697917224,
      "v": 71
    },
    {
      "midi": 86,
      "hit": false,
      "t": 367392.3271041657,
      "d": 153.5560703125666,
      "v": 83
    },
    {
      "midi": 74,
      "hit": false,
      "t": 367395.02107031154,
      "d": 113.14657812501537,
      "v": 83
    },
    {
      "midi": 77,
      "hit": false,
      "t": 368079.28847135324,
      "d": 70.04311979166232,
      "v": 60
    },
    {
      "midi": 89,
      "hit": false,
      "t": 368079.28847135324,
      "d": 115.84054427081719,
      "v": 71
    },
    {
      "midi": 65,
      "hit": false,
      "t": 368327.1333567699,
      "d": 727.3708593751071,
      "v": 46
    },
    {
      "midi": 62,
      "hit": false,
      "t": 368329.8273229158,
      "d": 759.6984531250782,
      "v": 34
    },
    {
      "midi": 57,
      "hit": false,
      "t": 368337.9092213533,
      "d": 1012.9312708334182,
      "v": 46
    },
    {
      "midi": 91,
      "hit": false,
      "t": 368340.60318749916,
      "d": 431.03458333335584,
      "v": 64
    },
    {
      "midi": 79,
      "hit": false,
      "t": 368345.9911197908,
      "d": 506.46563541668,
      "v": 60
    },
    {
      "midi": 91,
      "hit": false,
      "t": 368900.9481458325,
      "d": 301.7242083333549,
      "v": 71
    },
    {
      "midi": 79,
      "hit": false,
      "t": 368941.35763802,
      "d": 48.4913906250149,
      "v": 30
    },
    {
      "midi": 57,
      "hit": false,
      "t": 369396.6379166659,
      "d": 250.5388515625964,
      "v": 27
    },
    {
      "midi": 62,
      "hit": false,
      "t": 369407.4137812492,
      "d": 247.84488541679457,
      "v": 46
    },
    {
      "midi": 91,
      "hit": false,
      "t": 369410.10774739506,
      "d": 172.41383333341219,
      "v": 64
    },
    {
      "midi": 65,
      "hit": false,
      "t": 369412.8017135409,
      "d": 215.51729166670702,
      "v": 54
    },
    {
      "midi": 86,
      "hit": false,
      "t": 369418.1896458326,
      "d": 156.2500364583684,
      "v": 62
    },
    {
      "midi": 79,
      "hit": false,
      "t": 369426.2715442701,
      "d": 153.55607031250838,
      "v": 51
    },
    {
      "midi": 57,
      "hit": false,
      "t": 369806.12077083264,
      "d": 158.94400260428665,
      "v": 68
    },
    {
      "midi": 65,
      "hit": false,
      "t": 369814.20266927016,
      "d": 110.45261197921354,
      "v": 68
    },
    {
      "midi": 91,
      "hit": false,
      "t": 369814.20266927016,
      "d": 145.4741718751029,
      "v": 77
    },
    {
      "midi": 62,
      "hit": false,
      "t": 369814.20266927016,
      "d": 150.86210416676477,
      "v": 53
    },
    {
      "midi": 79,
      "hit": false,
      "t": 369827.67249999935,
      "d": 99.67674739588983,
      "v": 79
    },
    {
      "midi": 86,
      "hit": false,
      "t": 369830.3664661452,
      "d": 121.22847656253725,
      "v": 78
    },
    {
      "midi": 91,
      "hit": false,
      "t": 370115.9268776036,
      "d": 142.78020572924288,
      "v": 75
    },
    {
      "midi": 57,
      "hit": false,
      "t": 370126.7027421869,
      "d": 199.35349479172146,
      "v": 66
    },
    {
      "midi": 86,
      "hit": false,
      "t": 370129.39670833276,
      "d": 94.28881510422798,
      "v": 72
    },
    {
      "midi": 79,
      "hit": false,
      "t": 370134.7846406244,
      "d": 75.43105208338238,
      "v": 64
    },
    {
      "midi": 62,
      "hit": false,
      "t": 370134.7846406244,
      "d": 261.3147161458619,
      "v": 46
    },
    {
      "midi": 65,
      "hit": false,
      "t": 370137.4786067703,
      "d": 226.29315625003073,
      "v": 63
    },
    {
      "midi": 88,
      "hit": false,
      "t": 370309.89244010363,
      "d": 94.28881510416977,
      "v": 63
    },
    {
      "midi": 88,
      "hit": false,
      "t": 370471.53040885366,
      "d": 867.45709895849,
      "v": 80
    },
    {
      "midi": 91,
      "hit": false,
      "t": 370474.2243749995,
      "d": 996.7674739584909,
      "v": 81
    },
    {
      "midi": 56,
      "hit": false,
      "t": 370482.30627343705,
      "d": 651.9398072917247,
      "v": 83
    },
    {
      "midi": 79,
      "hit": false,
      "t": 370482.30627343705,
      "d": 824.3536406250787,
      "v": 82
    },
    {
      "midi": 62,
      "hit": false,
      "t": 370482.30627343705,
      "d": 845.9053697917261,
      "v": 80
    },
    {
      "midi": 67,
      "hit": false,
      "t": 370485.0002395829,
      "d": 654.6337734375265,
      "v": 83
    },
    {
      "midi": 84,
      "hit": false,
      "t": 370503.85800260375,
      "d": 827.0476067708805,
      "v": 68
    },
    {
      "midi": 62,
      "hit": false,
      "t": 371581.4444609372,
      "d": 735.4527578125708,
      "v": 45
    },
    {
      "midi": 88,
      "hit": false,
      "t": 371584.13842708303,
      "d": 697.7372317708796,
      "v": 51
    },
    {
      "midi": 56,
      "hit": false,
      "t": 371589.5263593747,
      "d": 541.4871953125694,
      "v": 47
    },
    {
      "midi": 67,
      "hit": false,
      "t": 371592.22032552055,
      "d": 608.8363489583717,
      "v": 37
    },
    {
      "midi": 79,
      "hit": false,
      "t": 371600.3022239581,
      "d": 592.6725520833279,
      "v": 37
    },
    {
      "midi": 84,
      "hit": false,
      "t": 371608.3841223956,
      "d": 614.2242812499753,
      "v": 43
    },
    {
      "midi": 56,
      "hit": false,
      "t": 372346.5308463539,
      "d": 64.65518750000047,
      "v": 31
    },
    {
      "midi": 60,
      "hit": false,
      "t": 372527.0265781247,
      "d": 654.6337734375848,
      "v": 28
    },
    {
      "midi": 91,
      "hit": false,
      "t": 372543.1903749997,
      "d": 991.3795416667708,
      "v": 45
    },
    {
      "midi": 65,
      "hit": false,
      "t": 372545.8843411456,
      "d": 622.3061796875554,
      "v": 50
    },
    {
      "midi": 79,
      "hit": false,
      "t": 372548.57830729143,
      "d": 969.8278125000652,
      "v": 36
    },
    {
      "midi": 84,
      "hit": false,
      "t": 372551.2722734373,
      "d": 1047.9528307291912,
      "v": 57
    },
    {
      "midi": 61,
      "hit": false,
      "t": 372564.7421041665,
      "d": 713.901028645807,
      "v": 37
    },
    {
      "midi": 55,
      "hit": false,
      "t": 372578.21193489566,
      "d": 746.2286223957781,
      "v": 41
    },
    {
      "midi": 61,
      "hit": false,
      "t": 373456.4448984373,
      "d": 183.1896979166777,
      "v": 40
    },
    {
      "midi": 60,
      "hit": false,
      "t": 373467.2207630206,
      "d": 167.02590104169212,
      "v": 44
    },
    {
      "midi": 55,
      "hit": false,
      "t": 373469.9147291665,
      "d": 169.71986718749395,
      "v": 38
    },
    {
      "midi": 65,
      "hit": false,
      "t": 373472.60869531234,
      "d": 148.16813802078832,
      "v": 46
    },
    {
      "midi": 89,
      "hit": false,
      "t": 373833.600158854,
      "d": 191.271596354316,
      "v": 88
    },
    {
      "midi": 77,
      "hit": false,
      "t": 373836.29412499984,
      "d": 156.25003645842662,
      "v": 88
    },
    {
      "midi": 84,
      "hit": false,
      "t": 373838.9880911457,
      "d": 169.71986718755215,
      "v": 88
    },
    {
      "midi": 61,
      "hit": false,
      "t": 373849.763955729,
      "d": 226.29315625008894,
      "v": 74
    },
    {
      "midi": 60,
      "hit": false,
      "t": 373852.4579218749,
      "d": 199.35349479172146,
      "v": 78
    },
    {
      "midi": 65,
      "hit": false,
      "t": 373860.5398203124,
      "d": 123.92244270833908,
      "v": 80
    },
    {
      "midi": 55,
      "hit": false,
      "t": 373863.23378645827,
      "d": 158.94400260417024,
      "v": 71
    },
    {
      "midi": 61,
      "hit": false,
      "t": 374167.6519609374,
      "d": 234.37505468772724,
      "v": 67
    },
    {
      "midi": 91,
      "hit": false,
      "t": 374170.3459270833,
      "d": 167.02590104175033,
      "v": 84
    },
    {
      "midi": 84,
      "hit": false,
      "t": 374173.03989322914,
      "d": 145.4741718750447,
      "v": 89
    },
    {
      "midi": 79,
      "hit": false,
      "t": 374175.733859375,
      "d": 185.88366406259593,
      "v": 82
    },
    {
      "midi": 55,
      "hit": false,
      "t": 374181.12179166666,
      "d": 172.41383333341219,
      "v": 76
    },
    {
      "midi": 65,
      "hit": false,
      "t": 374183.8157578125,
      "d": 167.02590104169212,
      "v": 76
    },
    {
      "midi": 58,
      "hit": false,
      "t": 374218.83731770836,
      "d": 145.4741718751029,
      "v": 28
    },
    {
      "midi": 89,
      "hit": false,
      "t": 374496.3158307293,
      "d": 272.0905807292438,
      "v": 84
    },
    {
      "midi": 82,
      "hit": false,
      "t": 374496.3158307293,
      "d": 301.7242083334713,
      "v": 75
    },
    {
      "midi": 77,
      "hit": false,
      "t": 374504.39772916684,
      "d": 266.70264843758196,
      "v": 80
    },
    {
      "midi": 86,
      "hit": false,
      "t": 374504.39772916684,
      "d": 277.47851302090567,
      "v": 73
    },
    {
      "midi": 65,
      "hit": false,
      "t": 374507.0916953127,
      "d": 277.47851302090567,
      "v": 78
    },
    {
      "midi": 54,
      "hit": false,
      "t": 374512.47962760436,
      "d": 280.1724791667657,
      "v": 75
    },
    {
      "midi": 60,
      "hit": false,
      "t": 374512.47962760436,
      "d": 309.806106770935,
      "v": 71
    },
    {
      "midi": 58,
      "hit": false,
      "t": 374520.5615260419,
      "d": 309.806106770935,
      "v": 51
    },
    {
      "midi": 88,
      "hit": false,
      "t": 374908.492651042,
      "d": 420.25871875009034,
      "v": 75
    },
    {
      "midi": 82,
      "hit": false,
      "t": 374919.2685156253,
      "d": 501.0777031251346,
      "v": 77
    },
    {
      "midi": 76,
      "hit": false,
      "t": 374921.9624817712,
      "d": 519.935466145922,
      "v": 70
    },
    {
      "midi": 65,
      "hit": false,
      "t": 374924.65644791705,
      "d": 441.81044791673776,
      "v": 70
    },
    {
      "midi": 60,
      "hit": false,
      "t": 374924.65644791705,
      "d": 490.30183854175266,
      "v": 58
    },
    {
      "midi": 58,
      "hit": false,
      "t": 374927.3504140629,
      "d": 457.9742447917233,
      "v": 57
    },
    {
      "midi": 54,
      "hit": false,
      "t": 374927.3504140629,
      "d": 482.2199401042308,
      "v": 70
    },
    {
      "midi": 86,
      "hit": false,
      "t": 375584.6781536463,
      "d": 153.5560703125666,
      "v": 60
    },
    {
      "midi": 65,
      "hit": false,
      "t": 375584.6781536463,
      "d": 231.6810885417508,
      "v": 65
    },
    {
      "midi": 81,
      "hit": false,
      "t": 375587.37211979215,
      "d": 148.16813802084653,
      "v": 66
    },
    {
      "midi": 74,
      "hit": false,
      "t": 375592.7600520838,
      "d": 223.5991901042289,
      "v": 51
    },
    {
      "midi": 54,
      "hit": false,
      "t": 375592.7600520838,
      "d": 253.23281770839822,
      "v": 53
    },
    {
      "midi": 60,
      "hit": false,
      "t": 375595.4540182297,
      "d": 266.70264843758196,
      "v": 59
    },
    {
      "midi": 58,
      "hit": false,
      "t": 375600.84195052134,
      "d": 247.84488541673636,
      "v": 40
    },
    {
      "midi": 84,
      "hit": false,
      "t": 375956.4454817714,
      "d": 188.57763020839775,
      "v": 56
    },
    {
      "midi": 79,
      "hit": false,
      "t": 375969.9153125006,
      "d": 191.27159635419957,
      "v": 62
    },
    {
      "midi": 54,
      "hit": false,
      "t": 375972.6092786465,
      "d": 210.12935937504517,
      "v": 58
    },
    {
      "midi": 72,
      "hit": false,
      "t": 375972.6092786465,
      "d": 247.84488541673636,
      "v": 51
    },
    {
      "midi": 65,
      "hit": false,
      "t": 375977.99721093813,
      "d": 202.04746093752328,
      "v": 57
    },
    {
      "midi": 60,
      "hit": false,
      "t": 375980.691177084,
      "d": 245.15091927087633,
      "v": 59
    },
    {
      "midi": 58,
      "hit": false,
      "t": 375986.07910937566,
      "d": 215.51729166670702,
      "v": 39
    },
    {
      "midi": 54,
      "hit": false,
      "t": 376384.78609895904,
      "d": 110.45261197915534,
      "v": 60
    },
    {
      "midi": 58,
      "hit": false,
      "t": 376417.113692709,
      "d": 123.92244270833908,
      "v": 31
    },
    {
      "midi": 73,
      "hit": false,
      "t": 376592.22149218817,
      "d": 113.14657812513178,
      "v": 69
    },
    {
      "midi": 69,
      "hit": false,
      "t": 376600.3033906257,
      "d": 180.49573177093407,
      "v": 70
    },
    {
      "midi": 58,
      "hit": false,
      "t": 376600.3033906257,
      "d": 320.5819713542587,
      "v": 27
    },
    {
      "midi": 81,
      "hit": false,
      "t": 376602.99735677155,
      "d": 320.5819713542587,
      "v": 65
    },
    {
      "midi": 77,
      "hit": false,
      "t": 376611.0792552091,
      "d": 309.8061067708768,
      "v": 54
    },
    {
      "midi": 62,
      "hit": false,
      "t": 376611.0792552091,
      "d": 614.2242812501499,
      "v": 52
    },
    {
      "midi": 53,
      "hit": false,
      "t": 376613.77322135493,
      "d": 1974.6771848960198,
      "v": 53
    },
    {
      "midi": 57,
      "hit": false,
      "t": 376616.4671875008,
      "d": 2039.3323723960202,
      "v": 55
    },
    {
      "midi": 74,
      "hit": false,
      "t": 376710.75600260496,
      "d": 228.98712239583256,
      "v": 49
    },
    {
      "midi": 69,
      "hit": false,
      "t": 376880.47586979246,
      "d": 123.92244270833908,
      "v": 34
    },
    {
      "midi": 81,
      "hit": false,
      "t": 376980.1526171883,
      "d": 121.22847656253725,
      "v": 13
    },
    {
      "midi": 74,
      "hit": false,
      "t": 377025.95004166744,
      "d": 67.3491536458605,
      "v": 28
    },
    {
      "midi": 77,
      "hit": false,
      "t": 377028.6440078133,
      "d": 88.90088281256612,
      "v": 35
    },
    {
      "midi": 69,
      "hit": false,
      "t": 377104.0750598967,
      "d": 102.37071354169166,
      "v": 45
    },
    {
      "midi": 77,
      "hit": false,
      "t": 377227.9975026051,
      "d": 72.73708593752235,
      "v": 37
    },
    {
      "midi": 74,
      "hit": false,
      "t": 377244.16129948007,
      "d": 43.103458333353046,
      "v": 26
    },
    {
      "midi": 69,
      "hit": false,
      "t": 377306.12252083427,
      "d": 102.37071354169166,
      "v": 46
    },
    {
      "midi": 81,
      "hit": false,
      "t": 377430.0449635426,
      "d": 118.53451041667722,
      "v": 24
    },
    {
      "midi": 77,
      "hit": false,
      "t": 377454.2906588551,
      "d": 80.81898437498603,
      "v": 28
    },
    {
      "midi": 74,
      "hit": false,
      "t": 377465.06652343844,
      "d": 61.961221354140434,
      "v": 24
    },
    {
      "midi": 69,
      "hit": false,
      "t": 377529.72171093844,
      "d": 105.06467968749348,
      "v": 37
    },
    {
      "midi": 81,
      "hit": false,
      "t": 377648.2562213551,
      "d": 107.75864583335351,
      "v": 17
    },
    {
      "midi": 77,
      "hit": false,
      "t": 377672.5019166676,
      "d": 96.9827812500298,
      "v": 40
    },
    {
      "midi": 74,
      "hit": false,
      "t": 377677.8898489593,
      "d": 72.73708593752235,
      "v": 29
    },
    {
      "midi": 58,
      "hit": false,
      "t": 377696.7476119801,
      "d": 207.43539322918514,
      "v": 35
    },
    {
      "midi": 62,
      "hit": false,
      "t": 377699.441578126,
      "d": 169.71986718749395,
      "v": 43
    },
    {
      "midi": 69,
      "hit": false,
      "t": 377769.48469791765,
      "d": 94.28881510416977,
      "v": 39
    },
    {
      "midi": 77,
      "hit": false,
      "t": 377909.570937501,
      "d": 99.67674739583163,
      "v": 29
    },
    {
      "midi": 74,
      "hit": false,
      "t": 377920.3468020843,
      "d": 113.14657812501537,
      "v": 24
    },
    {
      "midi": 69,
      "hit": false,
      "t": 377995.7778541676,
      "d": 126.61640885419911,
      "v": 30
    },
    {
      "midi": 62,
      "hit": false,
      "t": 378235.54084114684,
      "d": 115.84054427081719,
      "v": 24
    },
    {
      "midi": 86,
      "hit": false,
      "t": 378542.6529817718,
      "d": 37.715526041632984,
      "v": 51
    },
    {
      "midi": 62,
      "hit": false,
      "t": 378548.04091406346,
      "d": 132.00434114586096,
      "v": 31
    },
    {
      "midi": 58,
      "hit": false,
      "t": 378553.4288463551,
      "d": 1058.728695312515,
      "v": 28
    },
    {
      "midi": 74,
      "hit": false,
      "t": 378558.8167786468,
      "d": 53.879322916676756,
      "v": 38
    },
    {
      "midi": 81,
      "hit": false,
      "t": 378822.8254609385,
      "d": 1530.1727708333638,
      "v": 58
    },
    {
      "midi": 62,
      "hit": false,
      "t": 378830.907359376,
      "d": 810.8838098957785,
      "v": 39
    },
    {
      "midi": 69,
      "hit": false,
      "t": 378830.907359376,
      "d": 821.6596744791023,
      "v": 47
    },
    {
      "midi": 74,
      "hit": false,
      "t": 378847.071156251,
      "d": 773.1682838541456,
      "v": 51
    },
    {
      "midi": 54,
      "hit": false,
      "t": 379305.0454010427,
      "d": 1029.0950677083456,
      "v": 52
    },
    {
      "midi": 58,
      "hit": false,
      "t": 379849.226562501,
      "d": 1646.0133151042392,
      "v": 30
    },
    {
      "midi": 69,
      "hit": false,
      "t": 379851.92052864685,
      "d": 479.52597395831253,
      "v": 35
    },
    {
      "midi": 74,
      "hit": false,
      "t": 379857.3084609385,
      "d": 476.8320078125107,
      "v": 24
    },
    {
      "midi": 62,
      "hit": false,
      "t": 379857.3084609385,
      "d": 848.5993359375279,
      "v": 30
    },
    {
      "midi": 54,
      "hit": false,
      "t": 380584.67932031356,
      "d": 132.00434114580275,
      "v": 38
    },
    {
      "midi": 70,
      "hit": false,
      "t": 380819.05437500105,
      "d": 514.5475338542019,
      "v": 37
    },
    {
      "midi": 62,
      "hit": false,
      "t": 380819.05437500105,
      "d": 625.0001458333572,
      "v": 38
    },
    {
      "midi": 65,
      "hit": false,
      "t": 380824.4423072927,
      "d": 460.66821093752515,
      "v": 32
    },
    {
      "midi": 53,
      "hit": false,
      "t": 380837.9121380219,
      "d": 1414.3322265625466,
      "v": 34
    },
    {
      "midi": 62,
      "hit": false,
      "t": 381756.5545937511,
      "d": 533.4052968750475,
      "v": 35
    },
    {
      "midi": 58,
      "hit": false,
      "t": 381767.3304583344,
      "d": 608.8363489583717,
      "v": 31
    },
    {
      "midi": 81,
      "hit": false,
      "t": 382082.5244973969,
      "d": 115.8405442708754,
      "v": 69
    },
    {
      "midi": 69,
      "hit": false,
      "t": 382087.91242968856,
      "d": 72.73708593752235,
      "v": 66
    },
    {
      "midi": 53,
      "hit": false,
      "t": 382427.3521640636,
      "d": 199.35349479172146,
      "v": 53
    },
    {
      "midi": 62,
      "hit": false,
      "t": 382432.74009635526,
      "d": 158.94400260422844,
      "v": 36
    },
    {
      "midi": 84,
      "hit": false,
      "t": 382432.74009635526,
      "d": 169.71986718755215,
      "v": 79
    },
    {
      "midi": 58,
      "hit": false,
      "t": 382435.4340625011,
      "d": 261.3147161458619,
      "v": 15
    },
    {
      "midi": 72,
      "hit": false,
      "t": 382438.128028647,
      "d": 150.86210416664835,
      "v": 70
    },
    {
      "midi": 58,
      "hit": false,
      "t": 382807.20139062614,
      "d": 484.9139062500326,
      "v": 42
    },
    {
      "midi": 86,
      "hit": false,
      "t": 382809.895356772,
      "d": 282.8664453125093,
      "v": 64
    },
    {
      "midi": 74,
      "hit": false,
      "t": 382809.895356772,
      "d": 377.1552604166791,
      "v": 62
    },
    {
      "midi": 62,
      "hit": false,
      "t": 382812.58932291786,
      "d": 398.7069895833265,
      "v": 47
    },
    {
      "midi": 52,
      "hit": false,
      "t": 382817.9772552095,
      "d": 808.1898437499767,
      "v": 65
    },
    {
      "midi": 79,
      "hit": false,
      "t": 382820.6712213554,
      "d": 301.7242083332967,
      "v": 45
    },
    {
      "midi": 82,
      "hit": false,
      "t": 383033.4945468762,
      "d": 115.84054427081719,
      "v": 3
    },
    {
      "midi": 54,
      "hit": false,
      "t": 383677.3524557303,
      "d": 118.53451041667722,
      "v": 36
    },
    {
      "midi": 55,
      "hit": false,
      "t": 383715.067981772,
      "d": 59.26725520833861,
      "v": 48
    },
    {
      "midi": 68,
      "hit": false,
      "t": 383763.559372397,
      "d": 115.8405442709336,
      "v": 67
    },
    {
      "midi": 62,
      "hit": false,
      "t": 383790.49903385533,
      "d": 53.879322916734964,
      "v": 37
    },
    {
      "midi": 65,
      "hit": false,
      "t": 383790.49903385533,
      "d": 56.573289062594995,
      "v": 43
    },
    {
      "midi": 59,
      "hit": false,
      "t": 383795.886966147,
      "d": 53.87932291679317,
      "v": 37
    },
    {
      "midi": 56,
      "hit": false,
      "t": 383798.58093229285,
      "d": 86.2069166667643,
      "v": 54
    },
    {
      "midi": 67,
      "hit": false,
      "t": 384146.1025651054,
      "d": 196.65952864586143,
      "v": 67
    },
    {
      "midi": 58,
      "hit": false,
      "t": 384175.7361927096,
      "d": 164.3319348958321,
      "v": 46
    },
    {
      "midi": 61,
      "hit": false,
      "t": 384178.43015885545,
      "d": 164.3319348958321,
      "v": 42
    },
    {
      "midi": 55,
      "hit": false,
      "t": 384183.8180911471,
      "d": 164.3319348958321,
      "v": 48
    },
    {
      "midi": 58,
      "hit": false,
      "t": 384469.3785026054,
      "d": 148.16813802084653,
      "v": 48
    },
    {
      "midi": 61,
      "hit": false,
      "t": 384469.3785026054,
      "d": 169.71986718755215,
      "v": 50
    },
    {
      "midi": 52,
      "hit": false,
      "t": 384472.0724687513,
      "d": 86.20691666664788,
      "v": 41
    },
    {
      "midi": 65,
      "hit": false,
      "t": 384472.0724687513,
      "d": 148.16813802084653,
      "v": 63
    },
    {
      "midi": 49,
      "hit": false,
      "t": 385215.6071250013,
      "d": 247.84488541667815,
      "v": 25
    },
    {
      "midi": 61,
      "hit": false,
      "t": 385245.2407526055,
      "d": 140.08623958332464,
      "v": 50
    },
    {
      "midi": 53,
      "hit": false,
      "t": 385250.62868489715,
      "d": 83.51295052084606,
      "v": 47
    },
    {
      "midi": 64,
      "hit": false,
      "t": 385264.09851562633,
      "d": 110.45261197915534,
      "v": 30
    },
    {
      "midi": 57,
      "hit": false,
      "t": 385272.18041406386,
      "d": 61.961221354140434,
      "v": 53
    },
    {
      "midi": 57,
      "hit": false,
      "t": 385514.6373671888,
      "d": 207.43539322924335,
      "v": 69
    },
    {
      "midi": 67,
      "hit": false,
      "t": 385517.3313333347,
      "d": 167.02590104169212,
      "v": 61
    },
    {
      "midi": 52,
      "hit": false,
      "t": 385546.96496093884,
      "d": 180.49573177087586,
      "v": 50
    },
    {
      "midi": 49,
      "hit": false,
      "t": 385816.3615755222,
      "d": 134.6983072916628,
      "v": 31
    },
    {
      "midi": 65,
      "hit": false,
      "t": 385986.0814427097,
      "d": 113.14657812513178,
      "v": 46
    },
    {
      "midi": 57,
      "hit": false,
      "t": 385994.16334114724,
      "d": 156.25003645842662,
      "v": 40
    },
    {
      "midi": 60,
      "hit": false,
      "t": 386002.24523958476,
      "d": 91.59484895836795,
      "v": 44
    },
    {
      "midi": 50,
      "hit": false,
      "t": 386004.9392057306,
      "d": 414.8707864583703,
      "v": 41
    },
    {
      "midi": 38,
      "hit": false,
      "t": 386309.35738020984,
      "d": 123.92244270833908,
      "v": 42
    },
    {
      "midi": 64,
      "hit": false,
      "t": 386314.7453125015,
      "d": 105.06467968749348,
      "v": 50
    },
    {
      "midi": 57,
      "hit": false,
      "t": 386330.9091093765,
      "d": 61.96122135419864,
      "v": 42
    },
    {
      "midi": 53,
      "hit": false,
      "t": 386341.6849739598,
      "d": 43.103458333353046,
      "v": 38
    },
    {
      "midi": 62,
      "hit": false,
      "t": 386945.1333906265,
      "d": 622.3061796876136,
      "v": 35
    },
    {
      "midi": 53,
      "hit": false,
      "t": 386953.21528906404,
      "d": 482.2199401042308,
      "v": 37
    },
    {
      "midi": 60,
      "hit": false,
      "t": 386966.6851197932,
      "d": 563.0389244792168,
      "v": 44
    },
    {
      "midi": 57,
      "hit": false,
      "t": 386969.3790859391,
      "d": 525.3233984375256,
      "v": 38
    },
    {
      "midi": 50,
      "hit": false,
      "t": 386972.07305208495,
      "d": 746.2286223958363,
      "v": 36
    },
    {
      "midi": 65,
      "hit": false,
      "t": 387939.2068984391,
      "d": 264.0086822916637,
      "v": 85
    },
    {
      "midi": 53,
      "hit": false,
      "t": 387944.59483073076,
      "d": 352.90956510417163,
      "v": 69
    },
    {
      "midi": 69,
      "hit": false,
      "t": 388316.3621588558,
      "d": 199.35349479166325,
      "v": 90
    },
    {
      "midi": 57,
      "hit": false,
      "t": 388332.52595573076,
      "d": 312.5000729166786,
      "v": 70
    },
    {
      "midi": 72,
      "hit": false,
      "t": 388650.4139609391,
      "d": 150.86210416664835,
      "v": 88
    },
    {
      "midi": 60,
      "hit": false,
      "t": 388677.3536223974,
      "d": 191.27159635419957,
      "v": 60
    },
    {
      "midi": 76,
      "hit": false,
      "t": 389022.1812890641,
      "d": 2661.638552083634,
      "v": 56
    },
    {
      "midi": 68,
      "hit": false,
      "t": 389027.5692213558,
      "d": 870.15106510435,
      "v": 53
    },
    {
      "midi": 71,
      "hit": false,
      "t": 389035.6511197933,
      "d": 980.6036770835053,
      "v": 56
    },
    {
      "midi": 64,
      "hit": false,
      "t": 389038.34508593916,
      "d": 843.2114036459825,
      "v": 55
    },
    {
      "midi": 54,
      "hit": false,
      "t": 389049.12095052254,
      "d": 3623.384466146119,
      "v": 55
    },
    {
      "midi": 60,
      "hit": false,
      "t": 389051.8149166684,
      "d": 824.3536406250787,
      "v": 47
    },
    {
      "midi": 74,
      "hit": false,
      "t": 389054.50888281426,
      "d": 2914.8713697918574,
      "v": 38
    },
    {
      "midi": 69,
      "hit": false,
      "t": 390080.9099843768,
      "d": 735.4527578125708,
      "v": 47
    },
    {
      "midi": 64,
      "hit": false,
      "t": 390083.60395052267,
      "d": 786.6381145833875,
      "v": 45
    },
    {
      "midi": 60,
      "hit": false,
      "t": 390086.2979166685,
      "d": 727.3708593749907,
      "v": 34
    },
    {
      "midi": 64,
      "hit": false,
      "t": 391104.61711979355,
      "d": 708.5130963542033,
      "v": 46
    },
    {
      "midi": 67,
      "hit": false,
      "t": 391107.3110859394,
      "d": 730.0648255208507,
      "v": 48
    },
    {
      "midi": 60,
      "hit": false,
      "t": 391110.00505208527,
      "d": 660.0217057291302,
      "v": 43
    },
    {
      "midi": 66,
      "hit": false,
      "t": 392104.0785598978,
      "d": 738.1467239583726,
      "v": 45
    },
    {
      "midi": 64,
      "hit": false,
      "t": 392106.77252604364,
      "d": 401.40095572918653,
      "v": 32
    },
    {
      "midi": 60,
      "hit": false,
      "t": 392120.2423567728,
      "d": 630.3880781250191,
      "v": 35
    },
    {
      "midi": 74,
      "hit": false,
      "t": 392912.2684036478,
      "d": 237.06902083335444,
      "v": 55
    },
    {
      "midi": 70,
      "hit": false,
      "t": 393197.8288151062,
      "d": 786.6381145834457,
      "v": 37
    },
    {
      "midi": 62,
      "hit": false,
      "t": 393208.6046796895,
      "d": 589.9785859375843,
      "v": 34
    },
    {
      "midi": 65,
      "hit": false,
      "t": 393211.29864583537,
      "d": 689.6553333334159,
      "v": 35
    },
    {
      "midi": 58,
      "hit": false,
      "t": 393219.3805442729,
      "d": 751.6165546875563,
      "v": 30
    },
    {
      "midi": 67,
      "hit": false,
      "t": 393222.07451041875,
      "d": 692.3492994792177,
      "v": 37
    },
    {
      "midi": 60,
      "hit": false,
      "t": 393224.7684765646,
      "d": 552.2630598958349,
      "v": 36
    },
    {
      "midi": 70,
      "hit": false,
      "t": 394216.1480182313,
      "d": 309.8061067708186,
      "v": 65
    },
    {
      "midi": 65,
      "hit": false,
      "t": 394216.1480182313,
      "d": 387.9311250000028,
      "v": 60
    },
    {
      "midi": 62,
      "hit": false,
      "t": 394235.00578125217,
      "d": 576.5087552083423,
      "v": 43
    },
    {
      "midi": 58,
      "hit": false,
      "t": 394245.7816458355,
      "d": 630.3880781250191,
      "v": 40
    },
    {
      "midi": 70,
      "hit": false,
      "t": 394717.22572135634,
      "d": 102.37071354169166,
      "v": 62
    },
    {
      "midi": 58,
      "hit": false,
      "t": 395097.0749479188,
      "d": 1268.8580546876183,
      "v": 56
    },
    {
      "midi": 64,
      "hit": false,
      "t": 395220.99739062716,
      "d": 738.1467239584308,
      "v": 62
    },
    {
      "midi": 68,
      "hit": false,
      "t": 395223.691356773,
      "d": 676.1855026042322,
      "v": 74
    },
    {
      "midi": 61,
      "hit": false,
      "t": 395234.46722135635,
      "d": 724.6768932292471,
      "v": 56
    },
    {
      "midi": 73,
      "hit": false,
      "t": 395250.6310182314,
      "d": 767.7803515625419,
      "v": 71
    },
    {
      "midi": 76,
      "hit": false,
      "t": 395266.7948151064,
      "d": 285.56041145836934,
      "v": 75
    },
    {
      "midi": 76,
      "hit": false,
      "t": 395740.9328567731,
      "d": 307.11214062501676,
      "v": 78
    },
    {
      "midi": 64,
      "hit": false,
      "t": 396231.2346953148,
      "d": 393.31905729166465,
      "v": 54
    },
    {
      "midi": 61,
      "hit": false,
      "t": 396247.39849218976,
      "d": 88.90088281250792,
      "v": 45
    },
    {
      "midi": 68,
      "hit": false,
      "t": 396247.39849218976,
      "d": 649.2458411458647,
      "v": 68
    },
    {
      "midi": 73,
      "hit": false,
      "t": 396260.86832291895,
      "d": 406.7888880208484,
      "v": 64
    },
    {
      "midi": 76,
      "hit": false,
      "t": 396282.4200520856,
      "d": 266.70264843752375,
      "v": 67
    },
    {
      "midi": 76,
      "hit": false,
      "t": 396767.3339583356,
      "d": 129.31037500000093,
      "v": 58
    },
    {
      "midi": 64,
      "hit": false,
      "t": 396775.41585677315,
      "d": 40.409492187493015,
      "v": 37
    },
    {
      "midi": 41,
      "hit": false,
      "t": 397289.9633906273,
      "d": 598.0604843751062,
      "v": 47
    },
    {
      "midi": 67,
      "hit": false,
      "t": 397298.0452890648,
      "d": 118.53451041673543,
      "v": 63
    },
    {
      "midi": 77,
      "hit": false,
      "t": 397300.7392552107,
      "d": 223.5991901042289,
      "v": 62
    },
    {
      "midi": 69,
      "hit": false,
      "t": 397306.12718750234,
      "d": 134.698307291721,
      "v": 70
    },
    {
      "midi": 72,
      "hit": false,
      "t": 397308.8211536482,
      "d": 161.63796875003027,
      "v": 60
    },
    {
      "midi": 57,
      "hit": false,
      "t": 397316.9030520857,
      "d": 519.9354661458638,
      "v": 58
    },
    {
      "midi": 48,
      "hit": false,
      "t": 397866.47214583575,
      "d": 45.79742447915487,
      "v": 58
    },
    {
      "midi": 86,
      "hit": false,
      "t": 398416.0412395857,
      "d": 264.0086822917219,
      "v": 85
    },
    {
      "midi": 76,
      "hit": false,
      "t": 398418.7352057316,
      "d": 347.5216328125098,
      "v": 82
    },
    {
      "midi": 81,
      "hit": false,
      "t": 398426.8171041691,
      "d": 258.62075000000186,
      "v": 80
    },
    {
      "midi": 70,
      "hit": false,
      "t": 398426.8171041691,
      "d": 425.6466510416358,
      "v": 76
    },
    {
      "midi": 84,
      "hit": false,
      "t": 398946.7525703149,
      "d": 137.39227343752282,
      "v": 66
    },
    {
      "midi": 79,
      "hit": false,
      "t": 398957.52843489824,
      "d": 150.86210416670656,
      "v": 66
    },
    {
      "midi": 74,
      "hit": false,
      "t": 398960.2224010441,
      "d": 180.49573177081766,
      "v": 56
    },
    {
      "midi": 69,
      "hit": false,
      "t": 398968.3042994816,
      "d": 118.53451041667722,
      "v": 53
    },
    {
      "midi": 79,
      "hit": false,
      "t": 399482.85183333576,
      "d": 239.76298697921447,
      "v": 54
    },
    {
      "midi": 74,
      "hit": false,
      "t": 399496.32166406495,
      "d": 218.21125781250885,
      "v": 53
    },
    {
      "midi": 69,
      "hit": false,
      "t": 399499.0156302108,
      "d": 296.33627604169305,
      "v": 54
    },
    {
      "midi": 64,
      "hit": false,
      "t": 399523.2613255233,
      "d": 428.3406171874958,
      "v": 35
    },
    {
      "midi": 77,
      "hit": false,
      "t": 399989.3174687525,
      "d": 150.86210416670656,
      "v": 51
    },
    {
      "midi": 67,
      "hit": false,
      "t": 400000.0933333358,
      "d": 202.04746093752328,
      "v": 36
    },
    {
      "midi": 62,
      "hit": false,
      "t": 400005.4812656275,
      "d": 145.4741718750447,
      "v": 36
    },
    {
      "midi": 72,
      "hit": false,
      "t": 400005.4812656275,
      "d": 156.2500364583684,
      "v": 58
    },
    {
      "midi": 74,
      "hit": false,
      "t": 400506.5589687525,
      "d": 258.62075000000186,
      "v": 39
    },
    {
      "midi": 64,
      "hit": false,
      "t": 400522.7227656275,
      "d": 320.5819713542005,
      "v": 39
    },
    {
      "midi": 69,
      "hit": false,
      "t": 400528.11069791915,
      "d": 226.29315625003073,
      "v": 59
    },
    {
      "midi": 58,
      "hit": false,
      "t": 400536.1925963567,
      "d": 374.46129427087726,
      "v": 42
    },
    {
      "midi": 72,
      "hit": false,
      "t": 401034.5763333359,
      "d": 158.94400260422844,
      "v": 41
    },
    {
      "midi": 62,
      "hit": false,
      "t": 401053.43409635674,
      "d": 218.21125781256706,
      "v": 34
    },
    {
      "midi": 67,
      "hit": false,
      "t": 401056.1280625026,
      "d": 167.02590104169212,
      "v": 38
    },
    {
      "midi": 57,
      "hit": false,
      "t": 401069.5978932318,
      "d": 105.06467968749348,
      "v": 40
    },
    {
      "midi": 67,
      "hit": false,
      "t": 401619.1669869818,
      "d": 272.0905807291856,
      "v": 38
    },
    {
      "midi": 57,
      "hit": false,
      "t": 401621.8609531277,
      "d": 334.05180208332604,
      "v": 43
    },
    {
      "midi": 62,
      "hit": false,
      "t": 401627.24888541934,
      "d": 245.15091927081812,
      "v": 46
    },
    {
      "midi": 52,
      "hit": false,
      "t": 401648.800614586,
      "d": 511.85356770834187,
      "v": 36
    },
    {
      "midi": 64,
      "hit": false,
      "t": 402209.14557291934,
      "d": 177.80176562507404,
      "v": 36
    },
    {
      "midi": 55,
      "hit": false,
      "t": 402214.533505211,
      "d": 199.35349479172146,
      "v": 31
    },
    {
      "midi": 48,
      "hit": false,
      "t": 402233.39126823185,
      "d": 59.26725520839682,
      "v": 36
    },
    {
      "midi": 60,
      "hit": false,
      "t": 402241.47316666937,
      "d": 145.4741718750447,
      "v": 35
    },
    {
      "midi": 57,
      "hit": false,
      "t": 402249.5550651069,
      "d": 212.823325520847,
      "v": 29
    },
    {
      "midi": 57,
      "hit": false,
      "t": 402788.3482942736,
      "d": 899.7846927083447,
      "v": 39
    },
    {
      "midi": 52,
      "hit": false,
      "t": 402791.04226041946,
      "d": 786.6381145833293,
      "v": 41
    },
    {
      "midi": 62,
      "hit": false,
      "t": 402804.51209114864,
      "d": 959.0519479166251,
      "v": 28
    },
    {
      "midi": 45,
      "hit": false,
      "t": 402936.5164322945,
      "d": 250.53885156247998,
      "v": 1
    },
    {
      "midi": 36,
      "hit": false,
      "t": 403397.184643232,
      "d": 757.0044869791018,
      "v": 44
    },
    {
      "midi": 29,
      "hit": false,
      "t": 404310.4391666694,
      "d": 697.7372317708796,
      "v": 36
    },
    {
      "midi": 45,
      "hit": false,
      "t": 404348.1546927111,
      "d": 770.4743177083437,
      "v": 49
    }
  ]
}