{
  "jsonPath": "Jazz/Cool Jazz/Duke Ellington/warm-valley.json",
  "path": "Jazz\\Cool Jazz\\Duke Ellington\\Warm Valley.mid",
  "name": "Warm Valley",
  "difficulty": "Advanced",
  "bpm": 140.00014000014,
  "notes": [
    {
      "midi": 81,
      "hit": false,
      "t": 1594.6412625000003,
      "d": 742.8563999999997,
      "v": 55
    },
    {
      "midi": 77,
      "hit": false,
      "t": 1646.8733531250002,
      "d": 668.7493312499998,
      "v": 34
    },
    {
      "midi": 74,
      "hit": false,
      "t": 1650.4447781250003,
      "d": 642.4100718749999,
      "v": 40
    },
    {
      "midi": 46,
      "hit": false,
      "t": 1675.4447531250003,
      "d": 152.23199062499998,
      "v": 23
    },
    {
      "midi": 60,
      "hit": false,
      "t": 2037.0515343750003,
      "d": 2360.7119249999996,
      "v": 31
    },
    {
      "midi": 62,
      "hit": false,
      "t": 2326.336959375,
      "d": 334.37466562500003,
      "v": 34
    },
    {
      "midi": 86,
      "hit": false,
      "t": 2608.9259625,
      "d": 387.946040625,
      "v": 39
    },
    {
      "midi": 65,
      "hit": false,
      "t": 2611.158103125,
      "d": 295.0889906250004,
      "v": 34
    },
    {
      "midi": 93,
      "hit": false,
      "t": 2616.9616687499997,
      "d": 238.3926187500001,
      "v": 35
    },
    {
      "midi": 89,
      "hit": false,
      "t": 2899.10424375,
      "d": 143.74985625,
      "v": 40
    },
    {
      "midi": 62,
      "hit": false,
      "t": 2907.586378125,
      "d": 358.4817843750002,
      "v": 30
    },
    {
      "midi": 81,
      "hit": false,
      "t": 2918.300653125,
      "d": 70.08921562500018,
      "v": 25
    },
    {
      "midi": 98,
      "hit": false,
      "t": 3226.7824875,
      "d": 270.98187187500025,
      "v": 51
    },
    {
      "midi": 65,
      "hit": false,
      "t": 3231.2467687500002,
      "d": 367.85677499999974,
      "v": 30
    },
    {
      "midi": 105,
      "hit": false,
      "t": 3235.7110500000003,
      "d": 315.624684375,
      "v": 41
    },
    {
      "midi": 93,
      "hit": false,
      "t": 3589.282125,
      "d": 471.42809999999963,
      "v": 26
    },
    {
      "midi": 101,
      "hit": false,
      "t": 3595.5321187500003,
      "d": 296.4282749999993,
      "v": 28
    },
    {
      "midi": 62,
      "hit": false,
      "t": 3596.871403125,
      "d": 747.7671093749996,
      "v": 24
    },
    {
      "midi": 98,
      "hit": false,
      "t": 3613.38924375,
      "d": 267.85687499999995,
      "v": 24
    },
    {
      "midi": 56,
      "hit": false,
      "t": 4988.38786875,
      "d": 91.96419375000005,
      "v": 50
    },
    {
      "midi": 92,
      "hit": false,
      "t": 5027.67354375,
      "d": 122.3213062499999,
      "v": 53
    },
    {
      "midi": 93,
      "hit": false,
      "t": 5050.4413781250005,
      "d": 49.999949999999444,
      "v": 66
    },
    {
      "midi": 57,
      "hit": false,
      "t": 5057.1378,
      "d": 66.07136249999894,
      "v": 57
    },
    {
      "midi": 58,
      "hit": false,
      "t": 5121.869878125,
      "d": 708.4814343750013,
      "v": 72
    },
    {
      "midi": 94,
      "hit": false,
      "t": 5125.441303125,
      "d": 1189.284525000001,
      "v": 77
    },
    {
      "midi": 92,
      "hit": false,
      "t": 6332.136525000001,
      "d": 351.33893437499955,
      "v": 53
    },
    {
      "midi": 40,
      "hit": false,
      "t": 6362.047209375,
      "d": 378.57104999999956,
      "v": 34
    },
    {
      "midi": 52,
      "hit": false,
      "t": 6780.3503625,
      "d": 90.17848125,
      "v": 41
    },
    {
      "midi": 56,
      "hit": false,
      "t": 7128.5643,
      "d": 1930.355212499997,
      "v": 48
    },
    {
      "midi": 73,
      "hit": false,
      "t": 7405.3497375,
      "d": 166.07126249999965,
      "v": 39
    },
    {
      "midi": 66,
      "hit": false,
      "t": 7411.153303125,
      "d": 105.80346562499926,
      "v": 57
    },
    {
      "midi": 62,
      "hit": false,
      "t": 7412.4925875,
      "d": 281.6961468749996,
      "v": 32
    },
    {
      "midi": 70,
      "hit": false,
      "t": 7439.278275,
      "d": 115.62488437499997,
      "v": 42
    },
    {
      "midi": 82,
      "hit": false,
      "t": 7905.3492375,
      "d": 167.41054687499945,
      "v": 44
    },
    {
      "midi": 62,
      "hit": false,
      "t": 7933.474209374999,
      "d": 206.2497937499993,
      "v": 32
    },
    {
      "midi": 73,
      "hit": false,
      "t": 7939.724203124999,
      "d": 158.0355562499999,
      "v": 54
    },
    {
      "midi": 78,
      "hit": false,
      "t": 8326.330959374998,
      "d": 632.588653124998,
      "v": 37
    },
    {
      "midi": 70,
      "hit": false,
      "t": 8337.491662499999,
      "d": 377.23176562499793,
      "v": 35
    },
    {
      "midi": 62,
      "hit": false,
      "t": 8346.420224999998,
      "d": 233.4819093749993,
      "v": 27
    },
    {
      "midi": 66,
      "hit": false,
      "t": 9466.061962499996,
      "d": 194.64266250000037,
      "v": 30
    },
    {
      "midi": 70,
      "hit": false,
      "t": 9479.901234374996,
      "d": 174.99982500000078,
      "v": 38
    },
    {
      "midi": 56,
      "hit": false,
      "t": 9480.347662499997,
      "d": 225.8926312500007,
      "v": 36
    },
    {
      "midi": 62,
      "hit": false,
      "t": 9489.276224999996,
      "d": 144.1962843750007,
      "v": 29
    },
    {
      "midi": 69,
      "hit": false,
      "t": 10967.846174999997,
      "d": 166.96411875000013,
      "v": 84
    },
    {
      "midi": 70,
      "hit": false,
      "t": 11157.578128124997,
      "d": 203.57122499999969,
      "v": 71
    },
    {
      "midi": 67,
      "hit": false,
      "t": 11362.488637499997,
      "d": 310.7139750000006,
      "v": 75
    },
    {
      "midi": 39,
      "hit": false,
      "t": 11369.631487499997,
      "d": 298.6604156249996,
      "v": 60
    },
    {
      "midi": 46,
      "hit": false,
      "t": 11656.238343749998,
      "d": 225.8926312500007,
      "v": 62
    },
    {
      "midi": 55,
      "hit": false,
      "t": 11904.005953124999,
      "d": 249.55332187500062,
      "v": 51
    },
    {
      "midi": 58,
      "hit": false,
      "t": 12172.755684374999,
      "d": 724.1064187499978,
      "v": 52
    },
    {
      "midi": 72,
      "hit": false,
      "t": 12524.987474999998,
      "d": 556.249443749999,
      "v": 46
    },
    {
      "midi": 67,
      "hit": false,
      "t": 12532.576753124999,
      "d": 348.66036562499903,
      "v": 27
    },
    {
      "midi": 65,
      "hit": false,
      "t": 12535.701749999998,
      "d": 517.8566249999985,
      "v": 43
    },
    {
      "midi": 58,
      "hit": false,
      "t": 13042.844099999997,
      "d": 1198.213087500004,
      "v": 45
    },
    {
      "midi": 77,
      "hit": false,
      "t": 13766.057662499998,
      "d": 216.51764062500115,
      "v": 54
    },
    {
      "midi": 81,
      "hit": false,
      "t": 13769.629087499998,
      "d": 197.3212312500018,
      "v": 60
    },
    {
      "midi": 72,
      "hit": false,
      "t": 13774.093368749998,
      "d": 209.8212187500012,
      "v": 58
    },
    {
      "midi": 67,
      "hit": false,
      "t": 13779.004078124999,
      "d": 199.9997999999996,
      "v": 40
    },
    {
      "midi": 82,
      "hit": false,
      "t": 14137.039434375,
      "d": 195.0890906250006,
      "v": 60
    },
    {
      "midi": 68,
      "hit": false,
      "t": 14137.4858625,
      "d": 38.839246875000754,
      "v": 42
    },
    {
      "midi": 78,
      "hit": false,
      "t": 14140.610859375,
      "d": 182.14267500000096,
      "v": 56
    },
    {
      "midi": 73,
      "hit": false,
      "t": 14141.0572875,
      "d": 148.21413750000102,
      "v": 49
    },
    {
      "midi": 52,
      "hit": false,
      "t": 14522.753334375,
      "d": 1156.2488437500033,
      "v": 29
    },
    {
      "midi": 81,
      "hit": false,
      "t": 14526.324759375,
      "d": 421.42815000000155,
      "v": 45
    },
    {
      "midi": 78,
      "hit": false,
      "t": 14530.3426125,
      "d": 667.4100468750021,
      "v": 36
    },
    {
      "midi": 62,
      "hit": false,
      "t": 14533.467609375,
      "d": 301.338984375001,
      "v": 34
    },
    {
      "midi": 74,
      "hit": false,
      "t": 14534.806893750001,
      "d": 623.6600906250005,
      "v": 50
    },
    {
      "midi": 69,
      "hit": false,
      "t": 14557.1283,
      "d": 392.85675000000083,
      "v": 17
    },
    {
      "midi": 58,
      "hit": false,
      "t": 14858.913712500002,
      "d": 854.463431250002,
      "v": 36
    },
    {
      "midi": 69,
      "hit": false,
      "t": 15173.199112500002,
      "d": 660.7136250000021,
      "v": 32
    },
    {
      "midi": 62,
      "hit": false,
      "t": 15199.091943750003,
      "d": 572.3208562500004,
      "v": 20
    },
    {
      "midi": 70,
      "hit": false,
      "t": 16638.376218750003,
      "d": 1298.6594156249994,
      "v": 44
    },
    {
      "midi": 69,
      "hit": false,
      "t": 16639.269075000004,
      "d": 271.42829999999594,
      "v": 33
    },
    {
      "midi": 73,
      "hit": false,
      "t": 16643.286928125002,
      "d": 1315.177256250001,
      "v": 35
    },
    {
      "midi": 79,
      "hit": false,
      "t": 16651.322634375003,
      "d": 412.05315937499836,
      "v": 40
    },
    {
      "midi": 67,
      "hit": false,
      "t": 17001.7687125,
      "d": 87.94634062499972,
      "v": 36
    },
    {
      "midi": 78,
      "hit": false,
      "t": 18136.142578125004,
      "d": 447.76740937499926,
      "v": 45
    },
    {
      "midi": 50,
      "hit": false,
      "t": 18141.053287500003,
      "d": 1345.9807968750029,
      "v": 32
    },
    {
      "midi": 71,
      "hit": false,
      "t": 18148.196137500003,
      "d": 460.26739687499867,
      "v": 36
    },
    {
      "midi": 73,
      "hit": false,
      "t": 18149.981850000004,
      "d": 445.53526874999807,
      "v": 38
    },
    {
      "midi": 57,
      "hit": false,
      "t": 18512.035059375004,
      "d": 1183.4809593749997,
      "v": 33
    },
    {
      "midi": 71,
      "hit": false,
      "t": 18874.981125000002,
      "d": 188.39266875000249,
      "v": 56
    },
    {
      "midi": 66,
      "hit": false,
      "t": 19046.855953125003,
      "d": 154.91055937500278,
      "v": 49
    },
    {
      "midi": 64,
      "hit": false,
      "t": 19235.695050000006,
      "d": 141.07128749999902,
      "v": 38
    },
    {
      "midi": 74,
      "hit": false,
      "t": 19427.659143750006,
      "d": 120.08916562499871,
      "v": 44
    },
    {
      "midi": 76,
      "hit": false,
      "t": 19428.552000000007,
      "d": 80.3570624999993,
      "v": 42
    },
    {
      "midi": 71,
      "hit": false,
      "t": 19623.194662500006,
      "d": 206.69622187499772,
      "v": 31
    },
    {
      "midi": 50,
      "hit": false,
      "t": 19626.766087500004,
      "d": 1766.0696624999946,
      "v": 30
    },
    {
      "midi": 64,
      "hit": false,
      "t": 19831.230168750004,
      "d": 191.51766562500052,
      "v": 48
    },
    {
      "midi": 66,
      "hit": false,
      "t": 20064.265650000005,
      "d": 655.3564874999975,
      "v": 42
    },
    {
      "midi": 57,
      "hit": false,
      "t": 20070.515643750005,
      "d": 200.89265624999825,
      "v": 34
    },
    {
      "midi": 59,
      "hit": false,
      "t": 20305.336837500003,
      "d": 155.80341562499962,
      "v": 29
    },
    {
      "midi": 59,
      "hit": false,
      "t": 20571.408000000003,
      "d": 257.58902812499946,
      "v": 41
    },
    {
      "midi": 61,
      "hit": false,
      "t": 20828.550600000002,
      "d": 237.49976249999963,
      "v": 42
    },
    {
      "midi": 61,
      "hit": false,
      "t": 21139.264575,
      "d": 639.2850749999998,
      "v": 53
    },
    {
      "midi": 57,
      "hit": false,
      "t": 21164.26455,
      "d": 208.9283624999989,
      "v": 22
    },
    {
      "midi": 62,
      "hit": false,
      "t": 21469.174959375,
      "d": 345.0889406250026,
      "v": 60
    },
    {
      "midi": 65,
      "hit": false,
      "t": 21943.281628125,
      "d": 162.05340937499932,
      "v": 58
    },
    {
      "midi": 32,
      "hit": false,
      "t": 21944.174484375002,
      "d": 154.91055937499914,
      "v": 56
    },
    {
      "midi": 58,
      "hit": false,
      "t": 21948.1923375,
      "d": 128.124871875003,
      "v": 48
    },
    {
      "midi": 62,
      "hit": false,
      "t": 21961.138753125,
      "d": 119.19630937500187,
      "v": 52
    },
    {
      "midi": 70,
      "hit": false,
      "t": 22333.9062375,
      "d": 98.21418750000157,
      "v": 67
    },
    {
      "midi": 77,
      "hit": false,
      "t": 22336.138378125,
      "d": 122.76773437500015,
      "v": 59
    },
    {
      "midi": 74,
      "hit": false,
      "t": 22341.0490875,
      "d": 102.23204062500008,
      "v": 58
    },
    {
      "midi": 65,
      "hit": false,
      "t": 22343.281228125,
      "d": 60.714224999999715,
      "v": 66
    },
    {
      "midi": 54,
      "hit": false,
      "t": 22344.6205125,
      "d": 685.2671718749989,
      "v": 45
    },
    {
      "midi": 89,
      "hit": false,
      "t": 22726.316559375,
      "d": 98.66061562500181,
      "v": 71
    },
    {
      "midi": 60,
      "hit": false,
      "t": 22732.566553125,
      "d": 190.62480937500004,
      "v": 62
    },
    {
      "midi": 82,
      "hit": false,
      "t": 22733.459409375002,
      "d": 110.71417500000098,
      "v": 72
    },
    {
      "midi": 86,
      "hit": false,
      "t": 22733.905837500002,
      "d": 89.28562500000044,
      "v": 74
    },
    {
      "midi": 77,
      "hit": false,
      "t": 22736.137978125003,
      "d": 112.05345937499806,
      "v": 72
    },
    {
      "midi": 65,
      "hit": false,
      "t": 23167.833975,
      "d": 357.1424999999981,
      "v": 60
    },
    {
      "midi": 58,
      "hit": false,
      "t": 23174.976825,
      "d": 274.99972499999785,
      "v": 69
    },
    {
      "midi": 62,
      "hit": false,
      "t": 23178.54825,
      "d": 297.7675593749991,
      "v": 62
    },
    {
      "midi": 57,
      "hit": false,
      "t": 23720.51199375,
      "d": 457.14240000000063,
      "v": 45
    },
    {
      "midi": 31,
      "hit": false,
      "t": 23721.851278125,
      "d": 374.55319687500014,
      "v": 38
    },
    {
      "midi": 65,
      "hit": false,
      "t": 23722.744134375,
      "d": 1504.9092093749969,
      "v": 41
    },
    {
      "midi": 62,
      "hit": false,
      "t": 23728.5477,
      "d": 529.9101843749995,
      "v": 49
    },
    {
      "midi": 60,
      "hit": false,
      "t": 23729.886984375,
      "d": 529.017328124999,
      "v": 46
    },
    {
      "midi": 43,
      "hit": false,
      "t": 23737.029834375,
      "d": 398.6603156249985,
      "v": 24
    },
    {
      "midi": 60,
      "hit": false,
      "t": 24339.707803125,
      "d": 453.1245468750021,
      "v": 45
    },
    {
      "midi": 62,
      "hit": false,
      "t": 24347.743509375,
      "d": 525.4459031250008,
      "v": 51
    },
    {
      "midi": 56,
      "hit": false,
      "t": 24349.97565,
      "d": 436.16027812500033,
      "v": 45
    },
    {
      "midi": 43,
      "hit": false,
      "t": 24945.51076875,
      "d": 784.3742156250009,
      "v": 32
    },
    {
      "midi": 56,
      "hit": false,
      "t": 24952.65361875,
      "d": 275.89258124999833,
      "v": 34
    },
    {
      "midi": 59,
      "hit": false,
      "t": 24958.9036125,
      "d": 858.0348562500003,
      "v": 34
    },
    {
      "midi": 62,
      "hit": false,
      "t": 24971.403599999998,
      "d": 426.78528749999896,
      "v": 9
    },
    {
      "midi": 55,
      "hit": false,
      "t": 24973.1893125,
      "d": 645.9814968749997,
      "v": 29
    },
    {
      "midi": 67,
      "hit": false,
      "t": 25620.51009375,
      "d": 151.33913437500087,
      "v": 57
    },
    {
      "midi": 63,
      "hit": false,
      "t": 26216.045212499997,
      "d": 1505.8020656249973,
      "v": 37
    },
    {
      "midi": 54,
      "hit": false,
      "t": 26229.884484374998,
      "d": 1492.8556499999977,
      "v": 32
    },
    {
      "midi": 58,
      "hit": false,
      "t": 26247.741609374996,
      "d": 1496.4270749999996,
      "v": 38
    },
    {
      "midi": 36,
      "hit": false,
      "t": 26249.080893749997,
      "d": 134.82129375000295,
      "v": 36
    },
    {
      "midi": 60,
      "hit": false,
      "t": 26251.7594625,
      "d": 1535.7127499999988,
      "v": 31
    },
    {
      "midi": 48,
      "hit": false,
      "t": 26254.884459375,
      "d": 263.3925937499989,
      "v": 27
    },
    {
      "midi": 48,
      "hit": false,
      "t": 26624.080518749997,
      "d": 330.8032406249986,
      "v": 82
    },
    {
      "midi": 48,
      "hit": false,
      "t": 27007.115849999995,
      "d": 404.9103093750018,
      "v": 80
    },
    {
      "midi": 43,
      "hit": false,
      "t": 27453.990403124997,
      "d": 490.1780812500001,
      "v": 56
    },
    {
      "midi": 63,
      "hit": false,
      "t": 27964.704178124997,
      "d": 473.6602406250022,
      "v": 44
    },
    {
      "midi": 52,
      "hit": false,
      "t": 27978.543449999997,
      "d": 727.6778437500034,
      "v": 29
    },
    {
      "midi": 58,
      "hit": false,
      "t": 27979.882734374998,
      "d": 944.1954843750027,
      "v": 53
    },
    {
      "midi": 42,
      "hit": false,
      "t": 27991.936293749997,
      "d": 571.4280000000035,
      "v": 37
    },
    {
      "midi": 63,
      "hit": false,
      "t": 28527.65004375,
      "d": 392.85675000000265,
      "v": 40
    },
    {
      "midi": 63,
      "hit": false,
      "t": 29136.131578125,
      "d": 470.9816718749971,
      "v": 40
    },
    {
      "midi": 54,
      "hit": false,
      "t": 29159.792268750003,
      "d": 732.1421249999948,
      "v": 25
    },
    {
      "midi": 41,
      "hit": false,
      "t": 29164.256550000002,
      "d": 1469.1949593749996,
      "v": 34
    },
    {
      "midi": 58,
      "hit": false,
      "t": 29168.274403125,
      "d": 913.8383718749974,
      "v": 35
    },
    {
      "midi": 60,
      "hit": false,
      "t": 29174.970825,
      "d": 707.5885781249963,
      "v": 34
    },
    {
      "midi": 53,
      "hit": false,
      "t": 29197.738659374998,
      "d": 320.0889656250001,
      "v": 17
    },
    {
      "midi": 63,
      "hit": false,
      "t": 29720.505993749997,
      "d": 248.66046562500196,
      "v": 51
    },
    {
      "midi": 65,
      "hit": false,
      "t": 30266.93401875,
      "d": 240.1783312500047,
      "v": 34
    },
    {
      "midi": 58,
      "hit": false,
      "t": 30271.398299999997,
      "d": 195.53551875000267,
      "v": 42
    },
    {
      "midi": 62,
      "hit": false,
      "t": 30278.541149999997,
      "d": 198.2140875000041,
      "v": 43
    },
    {
      "midi": 57,
      "hit": false,
      "t": 30287.023284375,
      "d": 140.62485937500242,
      "v": 49
    },
    {
      "midi": 53,
      "hit": false,
      "t": 30289.255425,
      "d": 384.821043750002,
      "v": 25
    },
    {
      "midi": 74,
      "hit": false,
      "t": 31022.736834375002,
      "d": 306.24969375000364,
      "v": 64
    },
    {
      "midi": 65,
      "hit": false,
      "t": 31030.326112500003,
      "d": 213.83907187500154,
      "v": 37
    },
    {
      "midi": 62,
      "hit": false,
      "t": 31044.165384375003,
      "d": 928.5705000000053,
      "v": 36
    },
    {
      "midi": 60,
      "hit": false,
      "t": 31061.129653125005,
      "d": 883.0348312500028,
      "v": 36
    },
    {
      "midi": 53,
      "hit": false,
      "t": 31502.647068750004,
      "d": 1110.7131750000044,
      "v": 48
    },
    {
      "midi": 77,
      "hit": false,
      "t": 31509.789918750004,
      "d": 198.6605156250007,
      "v": 66
    },
    {
      "midi": 79,
      "hit": false,
      "t": 31825.414603125006,
      "d": 131.69629687500128,
      "v": 89
    },
    {
      "midi": 58,
      "hit": false,
      "t": 32158.44998437501,
      "d": 451.33883437500117,
      "v": 34
    },
    {
      "midi": 70,
      "hit": false,
      "t": 32185.68210000001,
      "d": 1039.2846750000062,
      "v": 49
    },
    {
      "midi": 63,
      "hit": false,
      "t": 32187.02138437501,
      "d": 466.9638187499986,
      "v": 37
    },
    {
      "midi": 75,
      "hit": false,
      "t": 32202.64636875001,
      "d": 1165.6238343750047,
      "v": 57
    },
    {
      "midi": 65,
      "hit": false,
      "t": 32205.324937500012,
      "d": 1157.1417000000038,
      "v": 55
    },
    {
      "midi": 79,
      "hit": false,
      "t": 32242.82490000001,
      "d": 1090.6239093750082,
      "v": 53
    },
    {
      "midi": 82,
      "hit": false,
      "t": 32267.82487500001,
      "d": 1159.8202687500052,
      "v": 57
    },
    {
      "midi": 53,
      "hit": false,
      "t": 32735.68155000001,
      "d": 297.76755937500275,
      "v": 31
    },
    {
      "midi": 53,
      "hit": false,
      "t": 33192.82395000001,
      "d": 2241.06918749999,
      "v": 36
    },
    {
      "midi": 89,
      "hit": false,
      "t": 33701.30558437501,
      "d": 296.4282749999984,
      "v": 69
    },
    {
      "midi": 58,
      "hit": false,
      "t": 33711.12700312501,
      "d": 244.1961843750032,
      "v": 33
    },
    {
      "midi": 63,
      "hit": false,
      "t": 33727.64484375001,
      "d": 285.71399999999994,
      "v": 35
    },
    {
      "midi": 65,
      "hit": false,
      "t": 33741.93054375001,
      "d": 400.8924562500033,
      "v": 46
    },
    {
      "midi": 77,
      "hit": false,
      "t": 33754.87695937501,
      "d": 354.01750312499644,
      "v": 49
    },
    {
      "midi": 79,
      "hit": false,
      "t": 35221.39335000001,
      "d": 844.1955843749965,
      "v": 62
    },
    {
      "midi": 74,
      "hit": false,
      "t": 35240.58975937501,
      "d": 641.9636437499939,
      "v": 64
    },
    {
      "midi": 65,
      "hit": false,
      "t": 35241.03618750001,
      "d": 545.9815968749972,
      "v": 31
    },
    {
      "midi": 62,
      "hit": false,
      "t": 35250.41117812501,
      "d": 613.8386718749971,
      "v": 32
    },
    {
      "midi": 60,
      "hit": false,
      "t": 35274.964725000005,
      "d": 627.6779437500008,
      "v": 24
    },
    {
      "midi": 53,
      "hit": false,
      "t": 35652.64291875,
      "d": 696.4278750000012,
      "v": 31
    },
    {
      "midi": 77,
      "hit": false,
      "t": 36087.46391250001,
      "d": 162.94626562499616,
      "v": 38
    },
    {
      "midi": 74,
      "hit": false,
      "t": 36117.82102500001,
      "d": 121.42844999999215,
      "v": 29
    },
    {
      "midi": 65,
      "hit": false,
      "t": 36122.73173437501,
      "d": 555.8030156249952,
      "v": 24
    },
    {
      "midi": 69,
      "hit": false,
      "t": 36125.41030312501,
      "d": 67.85707499999262,
      "v": 24
    },
    {
      "midi": 62,
      "hit": false,
      "t": 36126.74958750001,
      "d": 602.2315406249982,
      "v": 26
    },
    {
      "midi": 60,
      "hit": false,
      "t": 36133.892437500006,
      "d": 552.2315906250005,
      "v": 20
    },
    {
      "midi": 89,
      "hit": false,
      "t": 36570.49914375001,
      "d": 232.1426250000004,
      "v": 83
    },
    {
      "midi": 53,
      "hit": false,
      "t": 36572.731284375004,
      "d": 862.9455656250138,
      "v": 43
    },
    {
      "midi": 87,
      "hit": false,
      "t": 37053.98080312501,
      "d": 692.8564500000066,
      "v": 52
    },
    {
      "midi": 63,
      "hit": false,
      "t": 37078.53435000001,
      "d": 379.0174781250098,
      "v": 33
    },
    {
      "midi": 75,
      "hit": false,
      "t": 37080.32006250001,
      "d": 729.4635562500043,
      "v": 48
    },
    {
      "midi": 58,
      "hit": false,
      "t": 37085.67720000001,
      "d": 323.21396250000544,
      "v": 28
    },
    {
      "midi": 65,
      "hit": false,
      "t": 37089.248625000015,
      "d": 554.0173031250015,
      "v": 33
    },
    {
      "midi": 79,
      "hit": false,
      "t": 37091.034337500016,
      "d": 662.4993374999976,
      "v": 32
    },
    {
      "midi": 53,
      "hit": false,
      "t": 37571.39100000002,
      "d": 1083.4810593750008,
      "v": 24
    },
    {
      "midi": 63,
      "hit": false,
      "t": 38120.49759375001,
      "d": 427.6781437500031,
      "v": 21
    },
    {
      "midi": 58,
      "hit": false,
      "t": 38125.40830312501,
      "d": 556.6958718750029,
      "v": 29
    },
    {
      "midi": 81,
      "hit": false,
      "t": 38132.10472500001,
      "d": 678.5707500000062,
      "v": 32
    },
    {
      "midi": 78,
      "hit": false,
      "t": 38133.89043750001,
      "d": 747.3206812500066,
      "v": 30
    },
    {
      "midi": 74,
      "hit": false,
      "t": 38147.72970937501,
      "d": 750.4456781250119,
      "v": 27
    },
    {
      "midi": 65,
      "hit": false,
      "t": 38153.97970312501,
      "d": 688.8385968750081,
      "v": 22
    },
    {
      "midi": 53,
      "hit": false,
      "t": 38855.31828750002,
      "d": 294.6425625000047,
      "v": 30
    },
    {
      "midi": 46,
      "hit": false,
      "t": 39933.88863750002,
      "d": 3476.7822375000032,
      "v": 33
    },
    {
      "midi": 57,
      "hit": false,
      "t": 40051.29923437502,
      "d": 1311.159403125006,
      "v": 53
    },
    {
      "midi": 53,
      "hit": false,
      "t": 40058.88851250002,
      "d": 1309.373690625005,
      "v": 32
    },
    {
      "midi": 61,
      "hit": false,
      "t": 40076.745637500026,
      "d": 942.4097718750054,
      "v": 43
    },
    {
      "midi": 64,
      "hit": false,
      "t": 40116.924168750025,
      "d": 889.2848250000025,
      "v": 40
    },
    {
      "midi": 69,
      "hit": false,
      "t": 40178.977678125026,
      "d": 1365.623634375006,
      "v": 68
    },
    {
      "midi": 62,
      "hit": false,
      "t": 41026.29825937503,
      "d": 459.3745406250018,
      "v": 55
    },
    {
      "midi": 53,
      "hit": false,
      "t": 41463.35139375003,
      "d": 1865.6231343749969,
      "v": 30
    },
    {
      "midi": 62,
      "hit": false,
      "t": 41905.315237500035,
      "d": 572.3208562499931,
      "v": 37
    },
    {
      "midi": 65,
      "hit": false,
      "t": 41912.45808750003,
      "d": 628.1243718749975,
      "v": 38
    },
    {
      "midi": 57,
      "hit": false,
      "t": 41928.97592812503,
      "d": 1499.9984999999942,
      "v": 29
    },
    {
      "midi": 82,
      "hit": false,
      "t": 43206.20679375003,
      "d": 440.6245593749918,
      "v": 53
    },
    {
      "midi": 73,
      "hit": false,
      "t": 43259.77816875003,
      "d": 455.80311562499264,
      "v": 53
    },
    {
      "midi": 52,
      "hit": false,
      "t": 45060.66922500003,
      "d": 2542.854600000006,
      "v": 31
    },
    {
      "midi": 62,
      "hit": false,
      "t": 45172.722684375025,
      "d": 521.8744781250061,
      "v": 15
    },
    {
      "midi": 56,
      "hit": false,
      "t": 45191.919093750024,
      "d": 433.4817093750098,
      "v": 33
    },
    {
      "midi": 73,
      "hit": false,
      "t": 45194.597662500026,
      "d": 25.89283124999929,
      "v": 32
    },
    {
      "midi": 70,
      "hit": false,
      "t": 45202.63336875002,
      "d": 24.10711875000561,
      "v": 25
    },
    {
      "midi": 80,
      "hit": false,
      "t": 45285.66900000003,
      "d": 443.3031281250005,
      "v": 59
    },
    {
      "midi": 56,
      "hit": false,
      "t": 45724.06141875003,
      "d": 393.7496062499995,
      "v": 44
    },
    {
      "midi": 66,
      "hit": false,
      "t": 46025.40040312503,
      "d": 563.8387218750067,
      "v": 37
    },
    {
      "midi": 70,
      "hit": false,
      "t": 46035.66825000003,
      "d": 577.6779937500032,
      "v": 39
    },
    {
      "midi": 73,
      "hit": false,
      "t": 46037.00753437503,
      "d": 1313.3915437500036,
      "v": 32
    },
    {
      "midi": 62,
      "hit": false,
      "t": 46040.57895937503,
      "d": 308.4818343750012,
      "v": 31
    },
    {
      "midi": 56,
      "hit": false,
      "t": 46358.43578437503,
      "d": 618.3029531249995,
      "v": 40
    },
    {
      "midi": 66,
      "hit": false,
      "t": 46724.060418750036,
      "d": 616.5172406249985,
      "v": 29
    },
    {
      "midi": 70,
      "hit": false,
      "t": 46725.39970312503,
      "d": 629.9100843749984,
      "v": 32
    },
    {
      "midi": 64,
      "hit": false,
      "t": 46739.68540312503,
      "d": 512.9459156250014,
      "v": 43
    },
    {
      "midi": 56,
      "hit": false,
      "t": 47104.86360937503,
      "d": 773.6599406250025,
      "v": 36
    },
    {
      "midi": 66,
      "hit": false,
      "t": 47462.006109375034,
      "d": 243.30332812500274,
      "v": 37
    },
    {
      "midi": 70,
      "hit": false,
      "t": 47476.291809375034,
      "d": 225.44620312500047,
      "v": 37
    },
    {
      "midi": 73,
      "hit": false,
      "t": 47479.863234375036,
      "d": 257.1425999999992,
      "v": 20
    },
    {
      "midi": 62,
      "hit": false,
      "t": 47480.30966250003,
      "d": 249.55332187500608,
      "v": 28
    },
    {
      "midi": 52,
      "hit": false,
      "t": 47782.54150312504,
      "d": 129.91058437500033,
      "v": 48
    },
    {
      "midi": 67,
      "hit": false,
      "t": 48174.95182500004,
      "d": 450.4459781249898,
      "v": 50
    },
    {
      "midi": 63,
      "hit": false,
      "t": 48176.73753750004,
      "d": 517.4101968749892,
      "v": 53
    },
    {
      "midi": 55,
      "hit": false,
      "t": 48182.54110312504,
      "d": 310.2675468749949,
      "v": 31
    },
    {
      "midi": 39,
      "hit": false,
      "t": 48207.094650000035,
      "d": 317.8568249999953,
      "v": 51
    },
    {
      "midi": 46,
      "hit": false,
      "t": 48501.73721250003,
      "d": 686.6064562500032,
      "v": 59
    },
    {
      "midi": 55,
      "hit": false,
      "t": 48807.09405000003,
      "d": 132.58915312500176,
      "v": 59
    },
    {
      "midi": 69,
      "hit": false,
      "t": 48816.91546875003,
      "d": 166.51769062500534,
      "v": 69
    },
    {
      "midi": 65,
      "hit": false,
      "t": 48821.37975000003,
      "d": 291.0711375000028,
      "v": 71
    },
    {
      "midi": 61,
      "hit": false,
      "t": 48824.05831875003,
      "d": 231.24976874999993,
      "v": 72
    },
    {
      "midi": 57,
      "hit": false,
      "t": 49141.02228750003,
      "d": 102.23204062500008,
      "v": 51
    },
    {
      "midi": 70,
      "hit": false,
      "t": 49155.30798750003,
      "d": 170.08911562499998,
      "v": 73
    },
    {
      "midi": 40,
      "hit": false,
      "t": 49999.05714375003,
      "d": 138.39271875000122,
      "v": 48
    },
    {
      "midi": 66,
      "hit": false,
      "t": 50562.449437500036,
      "d": 335.7139499999903,
      "v": 37
    },
    {
      "midi": 58,
      "hit": false,
      "t": 50564.23515000004,
      "d": 258.481884374989,
      "v": 38
    },
    {
      "midi": 55,
      "hit": false,
      "t": 50565.574434375034,
      "d": 249.10689374999492,
      "v": 24
    },
    {
      "midi": 69,
      "hit": false,
      "t": 50566.91371875003,
      "d": 300.8925562499935,
      "v": 42
    },
    {
      "midi": 57,
      "hit": false,
      "t": 50567.80657500003,
      "d": 241.0711874999979,
      "v": 51
    },
    {
      "midi": 62,
      "hit": false,
      "t": 50568.25300312503,
      "d": 268.74973124999815,
      "v": 37
    },
    {
      "midi": 69,
      "hit": false,
      "t": 51181.198818750025,
      "d": 972.3204562499886,
      "v": 36
    },
    {
      "midi": 58,
      "hit": false,
      "t": 51192.80595000002,
      "d": 600.4458281249899,
      "v": 27
    },
    {
      "midi": 45,
      "hit": false,
      "t": 51193.25237812502,
      "d": 758.0349562499905,
      "v": 44
    },
    {
      "midi": 61,
      "hit": false,
      "t": 51195.48451875002,
      "d": 845.5348687499936,
      "v": 34
    },
    {
      "midi": 55,
      "hit": false,
      "t": 51196.823803125015,
      "d": 915.6240843749983,
      "v": 28
    },
    {
      "midi": 64,
      "hit": false,
      "t": 51197.716659375015,
      "d": 817.8563249999934,
      "v": 45
    },
    {
      "midi": 67,
      "hit": false,
      "t": 52483.42965937501,
      "d": 141.51771562499925,
      "v": 57
    },
    {
      "midi": 69,
      "hit": false,
      "t": 52649.05449375001,
      "d": 151.33913437499723,
      "v": 48
    },
    {
      "midi": 66,
      "hit": false,
      "t": 52851.73286250001,
      "d": 605.8029656250001,
      "v": 49
    },
    {
      "midi": 50,
      "hit": false,
      "t": 52858.42928437501,
      "d": 1370.5343437499978,
      "v": 25
    },
    {
      "midi": 57,
      "hit": false,
      "t": 53174.946825000006,
      "d": 438.3924187500088,
      "v": 36
    },
    {
      "midi": 64,
      "hit": false,
      "t": 53483.87508750001,
      "d": 123.21416250000038,
      "v": 45
    },
    {
      "midi": 66,
      "hit": false,
      "t": 53626.732087500015,
      "d": 120.98202187500283,
      "v": 55
    },
    {
      "midi": 61,
      "hit": false,
      "t": 53791.910493750016,
      "d": 256.24974374999147,
      "v": 59
    },
    {
      "midi": 57,
      "hit": false,
      "t": 53794.14263437501,
      "d": 114.28559999999561,
      "v": 35
    },
    {
      "midi": 57,
      "hit": false,
      "t": 54049.94595000001,
      "d": 89.73205312500068,
      "v": 46
    },
    {
      "midi": 59,
      "hit": false,
      "t": 54196.37437500001,
      "d": 155.35698749999574,
      "v": 46
    },
    {
      "midi": 54,
      "hit": false,
      "t": 54378.963478125,
      "d": 156.69627187499282,
      "v": 50
    },
    {
      "midi": 50,
      "hit": false,
      "t": 54405.302737499995,
      "d": 1183.9273874999926,
      "v": 16
    },
    {
      "midi": 57,
      "hit": false,
      "t": 54644.58821249999,
      "d": 90.17848124999728,
      "v": 50
    },
    {
      "midi": 59,
      "hit": false,
      "t": 54791.01663749999,
      "d": 127.2320156249989,
      "v": 42
    },
    {
      "midi": 61,
      "hit": false,
      "t": 54961.10575312499,
      "d": 133.03558124999836,
      "v": 46
    },
    {
      "midi": 57,
      "hit": false,
      "t": 54967.80217499999,
      "d": 617.8565249999956,
      "v": 37
    },
    {
      "midi": 64,
      "hit": false,
      "t": 55158.87341249999,
      "d": 136.60700625000027,
      "v": 48
    },
    {
      "midi": 66,
      "hit": false,
      "t": 55360.65892499999,
      "d": 131.2498687499974,
      "v": 36
    },
    {
      "midi": 67,
      "hit": false,
      "t": 55619.140809374985,
      "d": 224.9997749999966,
      "v": 25
    },
    {
      "midi": 65,
      "hit": false,
      "t": 55874.94412499998,
      "d": 199.1069437499973,
      "v": 37
    },
    {
      "midi": 44,
      "hit": false,
      "t": 55879.85483437498,
      "d": 230.80334062499605,
      "v": 26
    },
    {
      "midi": 70,
      "hit": false,
      "t": 56083.42605937498,
      "d": 199.99979999999778,
      "v": 52
    },
    {
      "midi": 54,
      "hit": false,
      "t": 56108.42603437498,
      "d": 26.33925937499589,
      "v": 28
    },
    {
      "midi": 77,
      "hit": false,
      "t": 56298.15798749997,
      "d": 58.9285125000024,
      "v": 59
    },
    {
      "midi": 60,
      "hit": false,
      "t": 56304.85440937497,
      "d": 657.142200000002,
      "v": 36
    },
    {
      "midi": 89,
      "hit": false,
      "t": 56519.13990937498,
      "d": 202.6783687499992,
      "v": 77
    },
    {
      "midi": 65,
      "hit": false,
      "t": 56545.47916874998,
      "d": 143.7498562499968,
      "v": 38
    },
    {
      "midi": 89,
      "hit": false,
      "t": 56785.65749999998,
      "d": 253.5711749999973,
      "v": 38
    },
    {
      "midi": 82,
      "hit": false,
      "t": 56806.193193749976,
      "d": 257.1425999999992,
      "v": 54
    },
    {
      "midi": 65,
      "hit": false,
      "t": 56807.086049999976,
      "d": 319.19610937499965,
      "v": 39
    },
    {
      "midi": 77,
      "hit": false,
      "t": 56816.014612499974,
      "d": 254.46403125000506,
      "v": 57
    },
    {
      "midi": 60,
      "hit": false,
      "t": 57069.58578749998,
      "d": 245.08904062499641,
      "v": 40
    },
    {
      "midi": 54,
      "hit": false,
      "t": 57312.44268749998,
      "d": 37.94639062499482,
      "v": 37
    },
    {
      "midi": 44,
      "hit": false,
      "t": 57578.96027812497,
      "d": 126.33915937499842,
      "v": 30
    },
    {
      "midi": 61,
      "hit": false,
      "t": 57886.99568437497,
      "d": 518.3030531250042,
      "v": 38
    },
    {
      "midi": 56,
      "hit": false,
      "t": 57896.37067499997,
      "d": 449.99955000000045,
      "v": 25
    },
    {
      "midi": 43,
      "hit": false,
      "t": 57914.22779999997,
      "d": 1196.8738031250177,
      "v": 24
    },
    {
      "midi": 53,
      "hit": false,
      "t": 57916.90636874997,
      "d": 375.8924812499972,
      "v": 22
    },
    {
      "midi": 59,
      "hit": false,
      "t": 57919.584937499974,
      "d": 910.7133749999994,
      "v": 24
    },
    {
      "midi": 56,
      "hit": false,
      "t": 58471.37009999997,
      "d": 179.91053437500523,
      "v": 44
    },
    {
      "midi": 53,
      "hit": false,
      "t": 58476.727237499974,
      "d": 330.8032406249986,
      "v": 33
    },
    {
      "midi": 62,
      "hit": false,
      "t": 58483.423659374974,
      "d": 279.9104343750005,
      "v": 48
    },
    {
      "midi": 67,
      "hit": false,
      "t": 58907.08394999998,
      "d": 828.5706000000064,
      "v": 64
    },
    {
      "midi": 59,
      "hit": false,
      "t": 58910.65537499998,
      "d": 919.6419375000041,
      "v": 62
    },
    {
      "midi": 56,
      "hit": false,
      "t": 58913.33394374998,
      "d": 973.6597406250003,
      "v": 62
    },
    {
      "midi": 62,
      "hit": false,
      "t": 58919.583937499985,
      "d": 923.2133624999988,
      "v": 50
    },
    {
      "midi": 53,
      "hit": false,
      "t": 58935.655349999986,
      "d": 89.28562500000407,
      "v": 33
    },
    {
      "midi": 50,
      "hit": false,
      "t": 59276.28000937499,
      "d": 437.94599062499765,
      "v": 91
    },
    {
      "midi": 47,
      "hit": false,
      "t": 59683.42245937499,
      "d": 378.5710499999914,
      "v": 57
    },
    {
      "midi": 63,
      "hit": false,
      "t": 60059.76136874998,
      "d": 333.03538124999614,
      "v": 52
    },
    {
      "midi": 54,
      "hit": false,
      "t": 60064.22564999998,
      "d": 197.76765937500022,
      "v": 42
    },
    {
      "midi": 48,
      "hit": false,
      "t": 60077.61849374998,
      "d": 350.8925062499984,
      "v": 51
    },
    {
      "midi": 60,
      "hit": false,
      "t": 60079.850634374976,
      "d": 272.76758437500393,
      "v": 45
    },
    {
      "midi": 58,
      "hit": false,
      "t": 60081.18991874997,
      "d": 297.32113125000615,
      "v": 53
    },
    {
      "midi": 36,
      "hit": false,
      "t": 60370.47534374998,
      "d": 62.94636562499363,
      "v": 62
    },
    {
      "midi": 75,
      "hit": false,
      "t": 60741.01068749998,
      "d": 1541.069887500009,
      "v": 73
    },
    {
      "midi": 66,
      "hit": false,
      "t": 60744.58211249998,
      "d": 1491.516365625008,
      "v": 77
    },
    {
      "midi": 60,
      "hit": false,
      "t": 60746.36782499998,
      "d": 86.16062812499877,
      "v": 66
    },
    {
      "midi": 70,
      "hit": false,
      "t": 60747.70710937498,
      "d": 1512.0520593750116,
      "v": 73
    },
    {
      "midi": 72,
      "hit": false,
      "t": 60751.27853437498,
      "d": 1515.6234843750062,
      "v": 67
    },
    {
      "midi": 36,
      "hit": false,
      "t": 61117.79602499998,
      "d": 98.21418750000157,
      "v": 76
    },
    {
      "midi": 30,
      "hit": false,
      "t": 61803.509624999984,
      "d": 232.1426250000004,
      "v": 67
    },
    {
      "midi": 75,
      "hit": false,
      "t": 63073.151212499986,
      "d": 699.9992999999959,
      "v": 34
    },
    {
      "midi": 64,
      "hit": false,
      "t": 63083.865487499985,
      "d": 665.1779062499991,
      "v": 34
    },
    {
      "midi": 70,
      "hit": false,
      "t": 63092.79404999998,
      "d": 984.8204437499953,
      "v": 43
    },
    {
      "midi": 58,
      "hit": false,
      "t": 63111.99045937498,
      "d": 597.767259375003,
      "v": 33
    },
    {
      "midi": 75,
      "hit": false,
      "t": 63896.81110312498,
      "d": 287.053284374997,
      "v": 39
    },
    {
      "midi": 74,
      "hit": false,
      "t": 64599.93539999997,
      "d": 321.8746781249938,
      "v": 46
    },
    {
      "midi": 65,
      "hit": false,
      "t": 64602.613968749974,
      "d": 485.7137999999977,
      "v": 22
    },
    {
      "midi": 60,
      "hit": false,
      "t": 64619.13180937497,
      "d": 515.6244843750028,
      "v": 29
    },
    {
      "midi": 62,
      "hit": false,
      "t": 64626.72108749997,
      "d": 448.6602656249961,
      "v": 28
    },
    {
      "midi": 53,
      "hit": false,
      "t": 64916.00651249997,
      "d": 474.55309687500994,
      "v": 29
    },
    {
      "midi": 77,
      "hit": false,
      "t": 65201.27408437498,
      "d": 320.53539374999673,
      "v": 62
    },
    {
      "midi": 65,
      "hit": false,
      "t": 65212.43478749998,
      "d": 399.99959999999555,
      "v": 24
    },
    {
      "midi": 62,
      "hit": false,
      "t": 65226.27405937498,
      "d": 412.05315937500563,
      "v": 26
    },
    {
      "midi": 79,
      "hit": false,
      "t": 65486.98808437498,
      "d": 251.33903437499976,
      "v": 67
    },
    {
      "midi": 53,
      "hit": false,
      "t": 65494.130934374974,
      "d": 637.0529343750095,
      "v": 38
    },
    {
      "midi": 58,
      "hit": false,
      "t": 65785.64849999998,
      "d": 374.99962499999674,
      "v": 33
    },
    {
      "midi": 70,
      "hit": false,
      "t": 65786.98778437499,
      "d": 1520.5341937499907,
      "v": 52
    },
    {
      "midi": 75,
      "hit": false,
      "t": 65808.86276249998,
      "d": 1566.0698625000077,
      "v": 58
    },
    {
      "midi": 63,
      "hit": false,
      "t": 65826.27345937498,
      "d": 346.428224999996,
      "v": 35
    },
    {
      "midi": 65,
      "hit": false,
      "t": 65834.75559374997,
      "d": 1020.5346937499999,
      "v": 50
    },
    {
      "midi": 79,
      "hit": false,
      "t": 65849.93414999997,
      "d": 1644.641212500006,
      "v": 53
    },
    {
      "midi": 82,
      "hit": false,
      "t": 65874.04126874998,
      "d": 1115.1774562499922,
      "v": 46
    },
    {
      "midi": 53,
      "hit": false,
      "t": 66203.95165312497,
      "d": 299.9997000000003,
      "v": 44
    },
    {
      "midi": 53,
      "hit": false,
      "t": 66603.95125312496,
      "d": 1147.3202812500385,
      "v": 47
    },
    {
      "midi": 82,
      "hit": false,
      "t": 67062.43293749997,
      "d": 407.1424500000139,
      "v": 42
    },
    {
      "midi": 63,
      "hit": false,
      "t": 67078.95077812497,
      "d": 285.2675718750106,
      "v": 25
    },
    {
      "midi": 58,
      "hit": false,
      "t": 67082.52220312497,
      "d": 176.3391093750106,
      "v": 35
    },
    {
      "midi": 65,
      "hit": false,
      "t": 67093.23647812498,
      "d": 324.5532468750025,
      "v": 27
    },
    {
      "midi": 82,
      "hit": false,
      "t": 67580.28956249998,
      "d": 1035.7132500000153,
      "v": 47
    },
    {
      "midi": 74,
      "hit": false,
      "t": 67592.78954999999,
      "d": 1058.9275125000277,
      "v": 46
    },
    {
      "midi": 77,
      "hit": false,
      "t": 67596.36097499999,
      "d": 1027.6775437500182,
      "v": 44
    },
    {
      "midi": 65,
      "hit": false,
      "t": 67607.07525,
      "d": 696.427874999994,
      "v": 28
    },
    {
      "midi": 62,
      "hit": false,
      "t": 67612.4323875,
      "d": 1018.7489812500135,
      "v": 30
    },
    {
      "midi": 60,
      "hit": false,
      "t": 67625.378803125,
      "d": 610.7136749999918,
      "v": 17
    },
    {
      "midi": 53,
      "hit": false,
      "t": 67921.807078125,
      "d": 263.83902187499916,
      "v": 60
    },
    {
      "midi": 53,
      "hit": false,
      "t": 68286.09242812499,
      "d": 200.89265624999825,
      "v": 65
    },
    {
      "midi": 53,
      "hit": false,
      "t": 68622.699234375,
      "d": 437.9459906250122,
      "v": 70
    },
    {
      "midi": 61,
      "hit": false,
      "t": 69094.12733437502,
      "d": 543.3030281249958,
      "v": 60
    },
    {
      "midi": 71,
      "hit": false,
      "t": 69096.80590312502,
      "d": 456.69597187501495,
      "v": 70
    },
    {
      "midi": 68,
      "hit": false,
      "t": 69098.14518750002,
      "d": 842.4098718750029,
      "v": 69
    },
    {
      "midi": 59,
      "hit": false,
      "t": 69101.27018437503,
      "d": 559.3744406249898,
      "v": 63
    },
    {
      "midi": 64,
      "hit": false,
      "t": 69101.71661250002,
      "d": 730.3564124999975,
      "v": 72
    },
    {
      "midi": 57,
      "hit": false,
      "t": 69108.41303437503,
      "d": 537.0530343749851,
      "v": 67
    },
    {
      "midi": 71,
      "hit": false,
      "t": 69623.14466250002,
      "d": 292.8568499999965,
      "v": 54
    },
    {
      "midi": 71,
      "hit": false,
      "t": 70188.32266875003,
      "d": 445.0888406249869,
      "v": 44
    },
    {
      "midi": 63,
      "hit": false,
      "t": 70189.21552500002,
      "d": 1014.2846999999892,
      "v": 42
    },
    {
      "midi": 47,
      "hit": false,
      "t": 70191.89409375002,
      "d": 517.8566250000003,
      "v": 42
    },
    {
      "midi": 68,
      "hit": false,
      "t": 70201.26908437502,
      "d": 1182.1416749999917,
      "v": 39
    },
    {
      "midi": 57,
      "hit": false,
      "t": 70214.66192812502,
      "d": 538.8387468750007,
      "v": 28
    },
    {
      "midi": 71,
      "hit": false,
      "t": 70864.21485000002,
      "d": 189.73195312499593,
      "v": 42
    },
    {
      "midi": 28,
      "hit": false,
      "t": 71543.23202812501,
      "d": 85.71419999998761,
      "v": 44
    },
    {
      "midi": 75,
      "hit": false,
      "t": 71551.71416250001,
      "d": 2849.99715000001,
      "v": 71
    },
    {
      "midi": 63,
      "hit": false,
      "t": 72388.32046875,
      "d": 445.08884062500147,
      "v": 38
    },
    {
      "midi": 64,
      "hit": false,
      "t": 72896.802103125,
      "d": 1402.2307406250184,
      "v": 38
    },
    {
      "midi": 61,
      "hit": false,
      "t": 72903.944953125,
      "d": 390.17818125001213,
      "v": 31
    },
    {
      "midi": 68,
      "hit": false,
      "t": 72907.06995,
      "d": 1403.5700250000082,
      "v": 37
    },
    {
      "midi": 73,
      "hit": false,
      "t": 74664.65747812501,
      "d": 177.2319656250038,
      "v": 48
    },
    {
      "midi": 69,
      "hit": false,
      "t": 74669.56818750002,
      "d": 140.1784312499949,
      "v": 64
    },
    {
      "midi": 54,
      "hit": false,
      "t": 74669.56818750002,
      "d": 195.0890906249988,
      "v": 58
    },
    {
      "midi": 59,
      "hit": false,
      "t": 74671.35390000002,
      "d": 175.44625312500284,
      "v": 55
    },
    {
      "midi": 64,
      "hit": false,
      "t": 74673.13961250002,
      "d": 212.94621562499378,
      "v": 67
    },
    {
      "midi": 71,
      "hit": false,
      "t": 75089.210625,
      "d": 225.44620312501502,
      "v": 64
    },
    {
      "midi": 57,
      "hit": false,
      "t": 75099.92490000001,
      "d": 213.39264375000494,
      "v": 39
    },
    {
      "midi": 67,
      "hit": false,
      "t": 75101.26418437502,
      "d": 229.91048437501013,
      "v": 59
    },
    {
      "midi": 62,
      "hit": false,
      "t": 75101.71061250001,
      "d": 289.2854250000091,
      "v": 47
    },
    {
      "midi": 52,
      "hit": false,
      "t": 75114.21060000002,
      "d": 194.6426625000022,
      "v": 28
    },
    {
      "midi": 54,
      "hit": false,
      "t": 75628.49580000002,
      "d": 214.28549999999814,
      "v": 30
    },
    {
      "midi": 68,
      "hit": false,
      "t": 75638.31721875002,
      "d": 245.08904062501097,
      "v": 48
    },
    {
      "midi": 64,
      "hit": false,
      "t": 75639.65650312502,
      "d": 233.03548125000088,
      "v": 53
    },
    {
      "midi": 59,
      "hit": false,
      "t": 75645.46006875002,
      "d": 296.42827500001295,
      "v": 32
    },
    {
      "midi": 49,
      "hit": false,
      "t": 75664.65647812502,
      "d": 78.57134999999835,
      "v": 32
    },
    {
      "midi": 59,
      "hit": false,
      "t": 76187.42381250003,
      "d": 636.6065062500275,
      "v": 29
    },
    {
      "midi": 66,
      "hit": false,
      "t": 76187.42381250003,
      "d": 1349.9986500000086,
      "v": 47
    },
    {
      "midi": 61,
      "hit": false,
      "t": 76192.78095000003,
      "d": 591.9636937500181,
      "v": 44
    },
    {
      "midi": 44,
      "hit": false,
      "t": 76205.28093750004,
      "d": 958.0347562500101,
      "v": 35
    },
    {
      "midi": 52,
      "hit": false,
      "t": 76572.69128437505,
      "d": 330.80324062501313,
      "v": 31
    },
    {
      "midi": 61,
      "hit": false,
      "t": 76911.97665937505,
      "d": 660.7136249999749,
      "v": 30
    },
    {
      "midi": 59,
      "hit": false,
      "t": 76918.22665312505,
      "d": 395.98174687499704,
      "v": 30
    },
    {
      "midi": 54,
      "hit": false,
      "t": 76939.20877500005,
      "d": 454.0174031249917,
      "v": 30
    },
    {
      "midi": 44,
      "hit": false,
      "t": 77267.77987500005,
      "d": 338.39251874998445,
      "v": 40
    },
    {
      "midi": 66,
      "hit": false,
      "t": 77666.88661875004,
      "d": 1109.8203187499894,
      "v": 39
    },
    {
      "midi": 61,
      "hit": false,
      "t": 77670.45804375004,
      "d": 1088.3917687499925,
      "v": 33
    },
    {
      "midi": 58,
      "hit": false,
      "t": 77674.02946875004,
      "d": 1020.0882656249887,
      "v": 34
    },
    {
      "midi": 52,
      "hit": false,
      "t": 77678.49375000004,
      "d": 351.33893437498773,
      "v": 36
    },
    {
      "midi": 43,
      "hit": false,
      "t": 77682.06517500003,
      "d": 1010.7132750000019,
      "v": 31
    },
    {
      "midi": 51,
      "hit": false,
      "t": 78028.93982812503,
      "d": 357.1424999999872,
      "v": 80
    },
    {
      "midi": 52,
      "hit": false,
      "t": 78401.26088437502,
      "d": 497.7673593750078,
      "v": 75
    },
    {
      "midi": 64,
      "hit": false,
      "t": 78830.27831250003,
      "d": 192.41052187500463,
      "v": 66
    },
    {
      "midi": 58,
      "hit": false,
      "t": 78834.74259375002,
      "d": 158.03555625000445,
      "v": 62
    },
    {
      "midi": 43,
      "hit": false,
      "t": 78837.42116250002,
      "d": 108.03560625000682,
      "v": 36
    },
    {
      "midi": 61,
      "hit": false,
      "t": 78840.54615937502,
      "d": 183.4819593750144,
      "v": 51
    },
    {
      "midi": 71,
      "hit": false,
      "t": 79469.56338750003,
      "d": 434.37456562499574,
      "v": 72
    },
    {
      "midi": 66,
      "hit": false,
      "t": 79474.02766875003,
      "d": 1017.8561250000057,
      "v": 77
    },
    {
      "midi": 64,
      "hit": false,
      "t": 79478.93837812504,
      "d": 780.8027906249918,
      "v": 81
    },
    {
      "midi": 48,
      "hit": false,
      "t": 79483.40265937503,
      "d": 1977.2301656250056,
      "v": 71
    },
    {
      "midi": 71,
      "hit": false,
      "t": 79998.13428750003,
      "d": 293.74970625000424,
      "v": 49
    },
    {
      "midi": 55,
      "hit": false,
      "t": 80000.36642812502,
      "d": 179.46410625000135,
      "v": 35
    },
    {
      "midi": 71,
      "hit": false,
      "t": 81160.63312500004,
      "d": 356.249643749994,
      "v": 45
    },
    {
      "midi": 55,
      "hit": false,
      "t": 81162.41883750004,
      "d": 263.83902187499916,
      "v": 24
    },
    {
      "midi": 60,
      "hit": false,
      "t": 81168.22240312504,
      "d": 637.9457906249881,
      "v": 32
    },
    {
      "midi": 64,
      "hit": false,
      "t": 81169.56168750004,
      "d": 658.9279124999885,
      "v": 49
    },
    {
      "midi": 66,
      "hit": false,
      "t": 81174.02596875004,
      "d": 710.7135750000016,
      "v": 37
    },
    {
      "midi": 71,
      "hit": false,
      "t": 81662.41833750003,
      "d": 188.83909687500272,
      "v": 45
    },
    {
      "midi": 63,
      "hit": false,
      "t": 82162.41783750003,
      "d": 217.85692499997094,
      "v": 35
    },
    {
      "midi": 71,
      "hit": false,
      "t": 82164.64997812503,
      "d": 267.85687499996857,
      "v": 33
    },
    {
      "midi": 67,
      "hit": false,
      "t": 82173.13211250002,
      "d": 179.4641062499868,
      "v": 40
    },
    {
      "midi": 41,
      "hit": false,
      "t": 82174.02496875002,
      "d": 345.0889406249771,
      "v": 33
    },
    {
      "midi": 59,
      "hit": false,
      "t": 82180.27496250001,
      "d": 153.12484687499818,
      "v": 24
    },
    {
      "midi": 48,
      "hit": false,
      "t": 82507.506778125,
      "d": 36.60710624999774,
      "v": 40
    },
    {
      "midi": 83,
      "hit": false,
      "t": 82882.059975,
      "d": 396.42817499999364,
      "v": 42
    },
    {
      "midi": 75,
      "hit": false,
      "t": 82883.8456875,
      "d": 563.8387218749995,
      "v": 30
    },
    {
      "midi": 63,
      "hit": false,
      "t": 82899.91709999999,
      "d": 819.6420375000162,
      "v": 29
    },
    {
      "midi": 79,
      "hit": false,
      "t": 82901.256384375,
      "d": 525.4459031250008,
      "v": 35
    },
    {
      "midi": 71,
      "hit": false,
      "t": 82907.05995,
      "d": 487.0530843750021,
      "v": 20
    },
    {
      "midi": 67,
      "hit": false,
      "t": 83424.916575,
      "d": 247.76760937500512,
      "v": 30
    },
    {
      "midi": 85,
      "hit": false,
      "t": 83733.398409375,
      "d": 132.58915312499448,
      "v": 51
    },
    {
      "midi": 47,
      "hit": false,
      "t": 84039.648103125,
      "d": 250.89260624999588,
      "v": 34
    },
    {
      "midi": 83,
      "hit": false,
      "t": 84043.219528125,
      "d": 460.26739687498775,
      "v": 57
    },
    {
      "midi": 57,
      "hit": false,
      "t": 84305.2728375,
      "d": 33.03568124999583,
      "v": 41
    },
    {
      "midi": 66,
      "hit": false,
      "t": 85158.84341249999,
      "d": 298.66041562499595,
      "v": 38
    },
    {
      "midi": 71,
      "hit": false,
      "t": 85469.11095937499,
      "d": 314.73182812500454,
      "v": 66
    },
    {
      "midi": 64,
      "hit": false,
      "t": 85771.34279999998,
      "d": 327.6782437500078,
      "v": 51
    },
    {
      "midi": 69,
      "hit": false,
      "t": 86061.07465312499,
      "d": 278.1247218750068,
      "v": 54
    },
    {
      "midi": 68,
      "hit": false,
      "t": 86369.110059375,
      "d": 632.5886531249998,
      "v": 43
    },
    {
      "midi": 40,
      "hit": false,
      "t": 86376.252909375,
      "d": 254.0176031250012,
      "v": 28
    },
    {
      "midi": 62,
      "hit": false,
      "t": 86700.35972812501,
      "d": 281.69614687499416,
      "v": 38
    },
    {
      "midi": 64,
      "hit": false,
      "t": 87039.198675,
      "d": 168.30340312499902,
      "v": 49
    },
    {
      "midi": 62,
      "hit": false,
      "t": 87063.30579375001,
      "d": 414.2853000000032,
      "v": 32
    },
    {
      "midi": 76,
      "hit": false,
      "t": 87384.73404375001,
      "d": 363.39249375001236,
      "v": 58
    },
    {
      "midi": 56,
      "hit": false,
      "t": 87402.59116875,
      "d": 73.66064062500664,
      "v": 34
    },
    {
      "midi": 72,
      "hit": false,
      "t": 87765.53723437502,
      "d": 229.91048437499558,
      "v": 47
    },
    {
      "midi": 67,
      "hit": false,
      "t": 87781.16221875002,
      "d": 167.85697500000242,
      "v": 28
    },
    {
      "midi": 56,
      "hit": false,
      "t": 87801.25148437501,
      "d": 1361.1593531249819,
      "v": 38
    },
    {
      "midi": 62,
      "hit": false,
      "t": 88189.19752500001,
      "d": 943.3026281249768,
      "v": 31
    },
    {
      "midi": 88,
      "hit": false,
      "t": 88195.44751875,
      "d": 313.3925437500002,
      "v": 59
    },
    {
      "midi": 74,
      "hit": false,
      "t": 88662.4113375,
      "d": 1098.659615624987,
      "v": 34
    },
    {
      "midi": 67,
      "hit": false,
      "t": 88686.072028125,
      "d": 390.6246093749942,
      "v": 29
    },
    {
      "midi": 86,
      "hit": false,
      "t": 89119.10730937499,
      "d": 445.08884062500147,
      "v": 66
    },
    {
      "midi": 85,
      "hit": false,
      "t": 89612.41038749999,
      "d": 298.21398749999935,
      "v": 62
    },
    {
      "midi": 45,
      "hit": false,
      "t": 89619.106809375,
      "d": 527.6780437499983,
      "v": 39
    },
    {
      "midi": 52,
      "hit": false,
      "t": 89946.33862499999,
      "d": 2081.247918749985,
      "v": 41
    },
    {
      "midi": 59,
      "hit": false,
      "t": 90257.49902812499,
      "d": 278.1247218750068,
      "v": 71
    },
    {
      "midi": 59,
      "hit": false,
      "t": 90576.248709375,
      "d": 691.9635937499843,
      "v": 68
    },
    {
      "midi": 61,
      "hit": false,
      "t": 90911.06980312499,
      "d": 602.2315406249836,
      "v": 60
    },
    {
      "midi": 64,
      "hit": false,
      "t": 91270.44444374998,
      "d": 221.42835000000196,
      "v": 58
    },
    {
      "midi": 71,
      "hit": false,
      "t": 92249.90774999998,
      "d": 274.9997249999724,
      "v": 58
    },
    {
      "midi": 67,
      "hit": false,
      "t": 92252.58631874998,
      "d": 298.6604156249814,
      "v": 58
    },
    {
      "midi": 57,
      "hit": false,
      "t": 92255.26488749997,
      "d": 205.35693749999336,
      "v": 51
    },
    {
      "midi": 62,
      "hit": false,
      "t": 92257.49702812497,
      "d": 219.19620937498985,
      "v": 55
    },
    {
      "midi": 52,
      "hit": false,
      "t": 92261.96130937496,
      "d": 366.9639187499997,
      "v": 36
    },
    {
      "midi": 69,
      "hit": false,
      "t": 92635.62164999996,
      "d": 216.0712124999991,
      "v": 59
    },
    {
      "midi": 55,
      "hit": false,
      "t": 92646.33592499996,
      "d": 212.05335937500058,
      "v": 34
    },
    {
      "midi": 60,
      "hit": false,
      "t": 92648.12163749996,
      "d": 278.5711500000034,
      "v": 40
    },
    {
      "midi": 65,
      "hit": false,
      "t": 92652.58591874996,
      "d": 247.32118125000852,
      "v": 51
    },
    {
      "midi": 50,
      "hit": false,
      "t": 92680.26446249995,
      "d": 185.26767187501537,
      "v": 24
    },
    {
      "midi": 68,
      "hit": false,
      "t": 93192.76394999996,
      "d": 284.82114374999946,
      "v": 47
    },
    {
      "midi": 64,
      "hit": false,
      "t": 93199.01394374996,
      "d": 258.0354562499997,
      "v": 42
    },
    {
      "midi": 54,
      "hit": false,
      "t": 93200.35322812496,
      "d": 162.0534093749884,
      "v": 27
    },
    {
      "midi": 47,
      "hit": false,
      "t": 93203.92465312497,
      "d": 92.85704999999143,
      "v": 32
    },
    {
      "midi": 59,
      "hit": false,
      "t": 93204.81750937496,
      "d": 218.30335312499665,
      "v": 33
    },
    {
      "midi": 60,
      "hit": false,
      "t": 93520.44219374996,
      "d": 177.2319656250038,
      "v": 45
    },
    {
      "midi": 46,
      "hit": false,
      "t": 93521.78147812496,
      "d": 522.7673343749921,
      "v": 37
    },
    {
      "midi": 64,
      "hit": false,
      "t": 93526.24575937496,
      "d": 234.37476562500524,
      "v": 34
    },
    {
      "midi": 56,
      "hit": false,
      "t": 93528.47789999995,
      "d": 246.87475312499737,
      "v": 34
    },
    {
      "midi": 67,
      "hit": false,
      "t": 93530.26361249996,
      "d": 244.6426124999998,
      "v": 54
    },
    {
      "midi": 53,
      "hit": false,
      "t": 93798.12048749995,
      "d": 224.99977500000386,
      "v": 37
    },
    {
      "midi": 67,
      "hit": false,
      "t": 94041.87024374996,
      "d": 997.766859374984,
      "v": 44
    },
    {
      "midi": 72,
      "hit": false,
      "t": 94042.76309999995,
      "d": 1141.963143749992,
      "v": 37
    },
    {
      "midi": 56,
      "hit": false,
      "t": 94044.54881249995,
      "d": 27.232115624981816,
      "v": 34
    },
    {
      "midi": 79,
      "hit": false,
      "t": 94045.44166874995,
      "d": 1188.3916687499877,
      "v": 44
    },
    {
      "midi": 76,
      "hit": false,
      "t": 94048.12023749994,
      "d": 1171.4274000000005,
      "v": 44
    },
    {
      "midi": 62,
      "hit": false,
      "t": 94342.76279999994,
      "d": 119.64273750000575,
      "v": 37
    },
    {
      "midi": 45,
      "hit": false,
      "t": 94746.33382499995,
      "d": 122.76773437499651,
      "v": 55
    },
    {
      "midi": 55,
      "hit": false,
      "t": 95124.90487499995,
      "d": 1596.4269749999803,
      "v": 30
    },
    {
      "midi": 65,
      "hit": false,
      "t": 95560.61872499993,
      "d": 1107.5881781249918,
      "v": 47
    },
    {
      "midi": 61,
      "hit": false,
      "t": 95569.10085937493,
      "d": 1141.5167156249954,
      "v": 33
    },
    {
      "midi": 81,
      "hit": false,
      "t": 96440.97498749993,
      "d": 312.499687500007,
      "v": 49
    },
    {
      "midi": 69,
      "hit": false,
      "t": 96453.92140312493,
      "d": 362.053209375008,
      "v": 44
    },
    {
      "midi": 78,
      "hit": false,
      "t": 97167.75997499995,
      "d": 240.6247593750013,
      "v": 50
    },
    {
      "midi": 38,
      "hit": false,
      "t": 97171.33139999995,
      "d": 287.4997124999936,
      "v": 38
    },
    {
      "midi": 66,
      "hit": false,
      "t": 97201.68851249995,
      "d": 250.89260624999588,
      "v": 25
    },
    {
      "midi": 45,
      "hit": false,
      "t": 97458.38468437495,
      "d": 954.9097593750048,
      "v": 48
    },
    {
      "midi": 54,
      "hit": false,
      "t": 97768.20580312495,
      "d": 797.7670593750081,
      "v": 53
    },
    {
      "midi": 61,
      "hit": false,
      "t": 98081.15191874995,
      "d": 507.1423500000092,
      "v": 56
    },
    {
      "midi": 64,
      "hit": false,
      "t": 98367.75877499995,
      "d": 290.62470937499893,
      "v": 71
    },
    {
      "midi": 66,
      "hit": false,
      "t": 98603.91925312496,
      "d": 201.33908437499485,
      "v": 77
    },
    {
      "midi": 66,
      "hit": false,
      "t": 98890.52610937496,
      "d": 550.4458781249996,
      "v": 64
    },
    {
      "midi": 64,
      "hit": false,
      "t": 98892.75824999996,
      "d": 344.64251249999506,
      "v": 60
    },
    {
      "midi": 49,
      "hit": false,
      "t": 98894.09753437496,
      "d": 270.5354437499918,
      "v": 43
    },
    {
      "midi": 59,
      "hit": false,
      "t": 98894.54396249996,
      "d": 252.23189062500023,
      "v": 55
    },
    {
      "midi": 49,
      "hit": false,
      "t": 99197.66865937495,
      "d": 473.6602406250022,
      "v": 18
    },
    {
      "midi": 66,
      "hit": false,
      "t": 99550.34687812495,
      "d": 626.3386593749892,
      "v": 46
    },
    {
      "midi": 59,
      "hit": false,
      "t": 99552.57901874995,
      "d": 496.4280749999889,
      "v": 37
    },
    {
      "midi": 64,
      "hit": false,
      "t": 99553.47187499994,
      "d": 533.4816093749978,
      "v": 49
    },
    {
      "midi": 49,
      "hit": false,
      "t": 99878.47154999994,
      "d": 312.49968749999243,
      "v": 53
    },
    {
      "midi": 48,
      "hit": false,
      "t": 100257.04259999994,
      "d": 877.6776937499817,
      "v": 69
    },
    {
      "midi": 66,
      "hit": false,
      "t": 100259.72116874994,
      "d": 331.2496687499952,
      "v": 74
    },
    {
      "midi": 63,
      "hit": false,
      "t": 100265.52473437494,
      "d": 816.5170406249963,
      "v": 71
    },
    {
      "midi": 58,
      "hit": false,
      "t": 100265.97116249993,
      "d": 816.5170406249963,
      "v": 75
    },
    {
      "midi": 66,
      "hit": false,
      "t": 100673.11361249993,
      "d": 237.94619062500715,
      "v": 74
    },
    {
      "midi": 66,
      "hit": false,
      "t": 101120.43459374993,
      "d": 192.85694999998668,
      "v": 56
    },
    {
      "midi": 66,
      "hit": false,
      "t": 101574.89842499992,
      "d": 109.82131874999322,
      "v": 46
    },
    {
      "midi": 61,
      "hit": false,
      "t": 102302.57626874991,
      "d": 252.23189062500023,
      "v": 28
    },
    {
      "midi": 65,
      "hit": false,
      "t": 102306.14769374991,
      "d": 253.5711750000046,
      "v": 35
    },
    {
      "midi": 47,
      "hit": false,
      "t": 102315.52268437491,
      "d": 1855.801715625028,
      "v": 35
    },
    {
      "midi": 57,
      "hit": false,
      "t": 102319.09410937491,
      "d": 188.39266875000612,
      "v": 26
    },
    {
      "midi": 59,
      "hit": false,
      "t": 102325.34410312491,
      "d": 211.60693125000398,
      "v": 40
    },
    {
      "midi": 77,
      "hit": false,
      "t": 102838.29001874992,
      "d": 215.1783562500059,
      "v": 41
    },
    {
      "midi": 77,
      "hit": false,
      "t": 103339.18237499993,
      "d": 441.07098750000296,
      "v": 32
    },
    {
      "midi": 69,
      "hit": false,
      "t": 103350.34307812493,
      "d": 840.6241593750019,
      "v": 24
    },
    {
      "midi": 73,
      "hit": false,
      "t": 103351.23593437493,
      "d": 436.16027812501125,
      "v": 29
    },
    {
      "midi": 59,
      "hit": false,
      "t": 103360.61092499993,
      "d": 739.2849750000169,
      "v": 24
    },
    {
      "midi": 79,
      "hit": false,
      "t": 104044.53881249994,
      "d": 187.49981249998382,
      "v": 49
    },
    {
      "midi": 81,
      "hit": false,
      "t": 104480.25266249993,
      "d": 762.9456656250113,
      "v": 37
    },
    {
      "midi": 74,
      "hit": false,
      "t": 104483.82408749993,
      "d": 630.3565125000023,
      "v": 42
    },
    {
      "midi": 34,
      "hit": false,
      "t": 104496.77050312494,
      "d": 91.51776562500163,
      "v": 34
    },
    {
      "midi": 69,
      "hit": false,
      "t": 104501.68121249994,
      "d": 608.9279624999908,
      "v": 18
    },
    {
      "midi": 62,
      "hit": false,
      "t": 104894.53796249993,
      "d": 489.2852250000142,
      "v": 22
    },
    {
      "midi": 74,
      "hit": false,
      "t": 105263.28759374995,
      "d": 142.8570000000036,
      "v": 40
    },
    {
      "midi": 69,
      "hit": false,
      "t": 105272.66258437495,
      "d": 81.2499187499925,
      "v": 24
    },
    {
      "midi": 65,
      "hit": false,
      "t": 105288.28756874995,
      "d": 255.80331562500214,
      "v": 25
    },
    {
      "midi": 86,
      "hit": false,
      "t": 105683.82288749995,
      "d": 153.12484687501274,
      "v": 68
    },
    {
      "midi": 81,
      "hit": false,
      "t": 105694.53716249995,
      "d": 123.66059062500426,
      "v": 59
    },
    {
      "midi": 65,
      "hit": false,
      "t": 105705.25143749996,
      "d": 178.124821874997,
      "v": 29
    },
    {
      "midi": 62,
      "hit": false,
      "t": 105796.32277499996,
      "d": 330.3568124999874,
      "v": 25
    },
    {
      "midi": 53,
      "hit": false,
      "t": 106064.62607812496,
      "d": 1972.7658843749668,
      "v": 38
    },
    {
      "midi": 93,
      "hit": false,
      "t": 106069.09035937495,
      "d": 457.58882812497905,
      "v": 66
    },
    {
      "midi": 86,
      "hit": false,
      "t": 106071.32249999995,
      "d": 232.14262499999313,
      "v": 44
    },
    {
      "midi": 65,
      "hit": false,
      "t": 106451.23283437494,
      "d": 546.8744531249831,
      "v": 36
    },
    {
      "midi": 81,
      "hit": false,
      "t": 106457.48282812494,
      "d": 194.19623437499104,
      "v": 35
    },
    {
      "midi": 70,
      "hit": false,
      "t": 108332.03452499992,
      "d": 151.78556249999383,
      "v": 42
    },
    {
      "midi": 68,
      "hit": false,
      "t": 109026.67668749992,
      "d": 220.08906562501215,
      "v": 36
    },
    {
      "midi": 40,
      "hit": false,
      "t": 109033.81953749992,
      "d": 273.2140125000151,
      "v": 36
    },
    {
      "midi": 52,
      "hit": false,
      "t": 109317.74782499994,
      "d": 31.249968749994878,
      "v": 39
    },
    {
      "midi": 73,
      "hit": false,
      "t": 109591.85469374993,
      "d": 256.24974374999874,
      "v": 35
    },
    {
      "midi": 56,
      "hit": false,
      "t": 109593.19397812494,
      "d": 713.8385718749923,
      "v": 53
    },
    {
      "midi": 66,
      "hit": false,
      "t": 109594.08683437493,
      "d": 202.2319406250026,
      "v": 33
    },
    {
      "midi": 70,
      "hit": false,
      "t": 109603.90825312493,
      "d": 261.6068812500016,
      "v": 40
    },
    {
      "midi": 78,
      "hit": false,
      "t": 109846.76515312493,
      "d": 49.553521875001024,
      "v": 58
    },
    {
      "midi": 62,
      "hit": false,
      "t": 109859.71156874993,
      "d": 190.17838124999253,
      "v": 39
    },
    {
      "midi": 85,
      "hit": false,
      "t": 110161.94340937493,
      "d": 302.2318406250124,
      "v": 28
    },
    {
      "midi": 78,
      "hit": false,
      "t": 110164.17554999993,
      "d": 276.33900937500584,
      "v": 45
    },
    {
      "midi": 82,
      "hit": false,
      "t": 110176.22910937492,
      "d": 279.01757812501455,
      "v": 37
    },
    {
      "midi": 62,
      "hit": false,
      "t": 110179.80053437492,
      "d": 441.9638437500107,
      "v": 36
    },
    {
      "midi": 56,
      "hit": false,
      "t": 110504.80020937494,
      "d": 384.8210437499947,
      "v": 34
    },
    {
      "midi": 56,
      "hit": false,
      "t": 111209.71021874993,
      "d": 65.62493437499506,
      "v": 46
    },
    {
      "midi": 61,
      "hit": false,
      "t": 111598.10268749992,
      "d": 360.2674968749925,
      "v": 40
    },
    {
      "midi": 67,
      "hit": false,
      "t": 111599.88839999992,
      "d": 327.67824374999327,
      "v": 44
    },
    {
      "midi": 55,
      "hit": false,
      "t": 111608.37053437492,
      "d": 270.5354437499918,
      "v": 25
    },
    {
      "midi": 39,
      "hit": false,
      "t": 111626.22765937491,
      "d": 288.3925687500014,
      "v": 37
    },
    {
      "midi": 46,
      "hit": false,
      "t": 111908.81666249991,
      "d": 289.2854250000091,
      "v": 52
    },
    {
      "midi": 61,
      "hit": false,
      "t": 112178.45924999991,
      "d": 257.58902812501765,
      "v": 60
    },
    {
      "midi": 55,
      "hit": false,
      "t": 112179.79853437492,
      "d": 179.01767812500475,
      "v": 46
    },
    {
      "midi": 69,
      "hit": false,
      "t": 112183.81638749992,
      "d": 105.35703750001267,
      "v": 52
    },
    {
      "midi": 65,
      "hit": false,
      "t": 112185.60209999992,
      "d": 249.10689375000948,
      "v": 65
    },
    {
      "midi": 70,
      "hit": false,
      "t": 112459.70896874992,
      "d": 152.23199062500498,
      "v": 70
    },
    {
      "midi": 61,
      "hit": false,
      "t": 112472.65538437493,
      "d": 64.73207812500186,
      "v": 45
    },
    {
      "midi": 58,
      "hit": false,
      "t": 112476.22680937493,
      "d": 49.107093750004424,
      "v": 51
    },
    {
      "midi": 69,
      "hit": false,
      "t": 112802.56576874993,
      "d": 673.6600406250072,
      "v": 69
    },
    {
      "midi": 66,
      "hit": false,
      "t": 112806.13719374994,
      "d": 673.6600406250072,
      "v": 61
    },
    {
      "midi": 62,
      "hit": false,
      "t": 112809.70861874994,
      "d": 606.2493937500112,
      "v": 66
    },
    {
      "midi": 58,
      "hit": false,
      "t": 112811.94075937493,
      "d": 646.8743531250075,
      "v": 62
    },
    {
      "midi": 57,
      "hit": false,
      "t": 112819.53003749994,
      "d": 306.6961218750075,
      "v": 62
    },
    {
      "midi": 46,
      "hit": false,
      "t": 113180.24396249995,
      "d": 156.6962718750001,
      "v": 49
    },
    {
      "midi": 61,
      "hit": false,
      "t": 113614.61852812493,
      "d": 207.14264999997977,
      "v": 43
    },
    {
      "midi": 58,
      "hit": false,
      "t": 113615.51138437493,
      "d": 148.66056562498852,
      "v": 40
    },
    {
      "midi": 55,
      "hit": false,
      "t": 113615.95781249992,
      "d": 835.267021874999,
      "v": 39
    },
    {
      "midi": 67,
      "hit": false,
      "t": 113617.74352499993,
      "d": 222.76763437499176,
      "v": 51
    },
    {
      "midi": 45,
      "hit": false,
      "t": 113633.81493749992,
      "d": 716.517140625001,
      "v": 39
    },
    {
      "midi": 64,
      "hit": false,
      "t": 113634.70779374991,
      "d": 192.85695000000123,
      "v": 42
    },
    {
      "midi": 81,
      "hit": false,
      "t": 114488.27836874992,
      "d": 391.51746562500193,
      "v": 91
    },
    {
      "midi": 78,
      "hit": false,
      "t": 114922.65293437491,
      "d": 332.58895312499953,
      "v": 67
    },
    {
      "midi": 50,
      "hit": false,
      "t": 114928.45649999991,
      "d": 622.7672343750019,
      "v": 32
    },
    {
      "midi": 69,
      "hit": false,
      "t": 115283.36685937492,
      "d": 69.19635937499697,
      "v": 34
    },
    {
      "midi": 57,
      "hit": false,
      "t": 115296.75970312492,
      "d": 641.5172156249901,
      "v": 28
    },
    {
      "midi": 66,
      "hit": false,
      "t": 115677.56289374991,
      "d": 416.96386874999735,
      "v": 28
    },
    {
      "midi": 57,
      "hit": false,
      "t": 116046.75895312491,
      "d": 452.2316906250053,
      "v": 38
    },
    {
      "midi": 64,
      "hit": false,
      "t": 116457.47282812491,
      "d": 780.8027906250063,
      "v": 50
    },
    {
      "midi": 66,
      "hit": false,
      "t": 116461.04425312491,
      "d": 787.0527843750024,
      "v": 36
    },
    {
      "midi": 61,
      "hit": false,
      "t": 116465.50853437491,
      "d": 457.58882812500815,
      "v": 37
    },
    {
      "midi": 62,
      "hit": false,
      "t": 116928.90092812492,
      "d": 408.0353062499926,
      "v": 63
    },
    {
      "midi": 64,
      "hit": false,
      "t": 117340.50765937491,
      "d": 901.3383843750053,
      "v": 51
    },
    {
      "midi": 66,
      "hit": false,
      "t": 117341.84694374992,
      "d": 864.2848499999964,
      "v": 45
    },
    {
      "midi": 61,
      "hit": false,
      "t": 117353.90050312491,
      "d": 150.89270625000063,
      "v": 42
    },
    {
      "midi": 59,
      "hit": false,
      "t": 117951.66776249991,
      "d": 263.83902187499916,
      "v": 60
    },
    {
      "midi": 58,
      "hit": false,
      "t": 118194.52466249991,
      "d": 204.46408125000016,
      "v": 58
    },
    {
      "midi": 57,
      "hit": false,
      "t": 118403.89945312492,
      "d": 108.03560625000682,
      "v": 65
    },
    {
      "midi": 44,
      "hit": false,
      "t": 118647.64920937493,
      "d": 320.08896562499285,
      "v": 51
    },
    {
      "midi": 65,
      "hit": false,
      "t": 118656.13134374992,
      "d": 202.6783687499992,
      "v": 60
    },
    {
      "midi": 60,
      "hit": false,
      "t": 118664.16704999992,
      "d": 174.99982500000624,
      "v": 53
    },
    {
      "midi": 54,
      "hit": false,
      "t": 118669.52418749992,
      "d": 330.8032406249986,
      "v": 35
    },
    {
      "midi": 54,
      "hit": false,
      "t": 119138.27371874992,
      "d": 418.74958124998375,
      "v": 58
    },
    {
      "midi": 77,
      "hit": false,
      "t": 119457.46982812491,
      "d": 128.57129999998142,
      "v": 66
    },
    {
      "midi": 70,
      "hit": false,
      "t": 119459.70196874991,
      "d": 161.60698124997725,
      "v": 72
    },
    {
      "midi": 74,
      "hit": false,
      "t": 119461.93410937491,
      "d": 120.0891656249878,
      "v": 68
    },
    {
      "midi": 60,
      "hit": false,
      "t": 119464.6126781249,
      "d": 87.05348437499197,
      "v": 55
    },
    {
      "midi": 65,
      "hit": false,
      "t": 119465.5055343749,
      "d": 172.76768437499413,
      "v": 74
    },
    {
      "midi": 44,
      "hit": false,
      "t": 119858.80871249989,
      "d": 158.03555625000445,
      "v": 52
    },
    {
      "midi": 65,
      "hit": false,
      "t": 119862.38013749989,
      "d": 299.5532718750037,
      "v": 71
    },
    {
      "midi": 56,
      "hit": false,
      "t": 119871.75512812489,
      "d": 212.94621562500834,
      "v": 51
    },
    {
      "midi": 60,
      "hit": false,
      "t": 119878.4515499999,
      "d": 304.0175531249988,
      "v": 57
    },
    {
      "midi": 43,
      "hit": false,
      "t": 120303.45112499989,
      "d": 257.1425999999774,
      "v": 41
    },
    {
      "midi": 65,
      "hit": false,
      "t": 120306.12969374988,
      "d": 1104.4631812499865,
      "v": 77
    },
    {
      "midi": 62,
      "hit": false,
      "t": 120310.59397499988,
      "d": 1214.2844999999943,
      "v": 66
    },
    {
      "midi": 56,
      "hit": false,
      "t": 120311.04040312488,
      "d": 1201.338084374991,
      "v": 80
    },
    {
      "midi": 60,
      "hit": false,
      "t": 120313.27254374987,
      "d": 1740.1768312499917,
      "v": 64
    },
    {
      "midi": 55,
      "hit": false,
      "t": 120321.30824999987,
      "d": 187.49981249999837,
      "v": 55
    },
    {
      "midi": 31,
      "hit": false,
      "t": 120785.59349999987,
      "d": 244.6426124999998,
      "v": 46
    },
    {
      "midi": 43,
      "hit": false,
      "t": 120826.21845937487,
      "d": 28.57140000000072,
      "v": 30
    },
    {
      "midi": 31,
      "hit": false,
      "t": 121234.70019374987,
      "d": 408.0353062500071,
      "v": 58
    },
    {
      "midi": 67,
      "hit": false,
      "t": 121796.30677499987,
      "d": 163.39269374999276,
      "v": 69
    },
    {
      "midi": 31,
      "hit": false,
      "t": 121812.37818749987,
      "d": 42.410671874997206,
      "v": 33
    },
    {
      "midi": 63,
      "hit": false,
      "t": 122320.41339374987,
      "d": 341.51751562501886,
      "v": 68
    },
    {
      "midi": 58,
      "hit": false,
      "t": 122339.16337499987,
      "d": 439.73170312501315,
      "v": 71
    },
    {
      "midi": 36,
      "hit": false,
      "t": 122339.60980312487,
      "d": 1215.1773562500312,
      "v": 57
    },
    {
      "midi": 48,
      "hit": false,
      "t": 122341.84194374987,
      "d": 510.71377500002563,
      "v": 57
    },
    {
      "midi": 60,
      "hit": false,
      "t": 122346.75265312487,
      "d": 399.9996000000101,
      "v": 59
    },
    {
      "midi": 52,
      "hit": false,
      "t": 122378.44904999988,
      "d": 108.48203437500342,
      "v": 17
    },
    {
      "midi": 63,
      "hit": false,
      "t": 122782.02007499989,
      "d": 222.7676343750063,
      "v": 74
    },
    {
      "midi": 63,
      "hit": false,
      "t": 123144.5197124999,
      "d": 295.9818468750018,
      "v": 60
    },
    {
      "midi": 48,
      "hit": false,
      "t": 123159.6982687499,
      "d": 440.62455937500636,
      "v": 34
    },
    {
      "midi": 60,
      "hit": false,
      "t": 123165.9482624999,
      "d": 314.28540000000794,
      "v": 53
    },
    {
      "midi": 58,
      "hit": false,
      "t": 123169.5196874999,
      "d": 325.89253125000687,
      "v": 56
    },
    {
      "midi": 51,
      "hit": false,
      "t": 123182.0196749999,
      "d": 232.14262499999313,
      "v": 37
    },
    {
      "midi": 63,
      "hit": false,
      "t": 123551.2157343749,
      "d": 329.0175281249976,
      "v": 74
    },
    {
      "midi": 63,
      "hit": false,
      "t": 123996.7510031249,
      "d": 458.4816843750159,
      "v": 71
    },
    {
      "midi": 58,
      "hit": false,
      "t": 124007.01884999989,
      "d": 935.71335000002,
      "v": 75
    },
    {
      "midi": 54,
      "hit": false,
      "t": 124007.46527812489,
      "d": 875.8919812500244,
      "v": 78
    },
    {
      "midi": 60,
      "hit": false,
      "t": 124013.26884374989,
      "d": 873.6598406250268,
      "v": 66
    },
    {
      "midi": 53,
      "hit": false,
      "t": 124018.1795531249,
      "d": 878.124121875022,
      "v": 70
    },
    {
      "midi": 63,
      "hit": false,
      "t": 124543.17902812491,
      "d": 451.33883437499753,
      "v": 60
    },
    {
      "midi": 63,
      "hit": false,
      "t": 125057.01779999991,
      "d": 603.570824999988,
      "v": 40
    },
    {
      "midi": 54,
      "hit": false,
      "t": 125082.46420312491,
      "d": 1449.5521218749927,
      "v": 28
    },
    {
      "midi": 58,
      "hit": false,
      "t": 125088.26776874991,
      "d": 1728.5696999999927,
      "v": 35
    },
    {
      "midi": 53,
      "hit": false,
      "t": 125094.5177624999,
      "d": 1339.284375000003,
      "v": 32
    },
    {
      "midi": 60,
      "hit": false,
      "t": 125112.3748874999,
      "d": 1543.748456250003,
      "v": 29
    },
    {
      "midi": 63,
      "hit": false,
      "t": 126168.17740312491,
      "d": 647.7672093750007,
      "v": 45
    },
    {
      "midi": 65,
      "hit": false,
      "t": 127468.1761031249,
      "d": 404.91030937498726,
      "v": 32
    },
    {
      "midi": 74,
      "hit": false,
      "t": 127469.0689593749,
      "d": 301.3389843749901,
      "v": 42
    },
    {
      "midi": 62,
      "hit": false,
      "t": 127494.0689343749,
      "d": 639.285075000007,
      "v": 29
    },
    {
      "midi": 60,
      "hit": false,
      "t": 127497.6403593749,
      "d": 629.0172281249979,
      "v": 28
    },
    {
      "midi": 53,
      "hit": false,
      "t": 127778.44364999988,
      "d": 1615.6233843750233,
      "v": 37
    },
    {
      "midi": 77,
      "hit": false,
      "t": 128090.94333749989,
      "d": 761.606381250007,
      "v": 65
    },
    {
      "midi": 79,
      "hit": false,
      "t": 128827.5497437499,
      "d": 338.39251875001355,
      "v": 51
    },
    {
      "midi": 82,
      "hit": false,
      "t": 129143.1744281249,
      "d": 1149.9988500000036,
      "v": 58
    },
    {
      "midi": 63,
      "hit": false,
      "t": 129146.2994249999,
      "d": 291.9639937500033,
      "v": 34
    },
    {
      "midi": 58,
      "hit": false,
      "t": 129157.01369999991,
      "d": 258.4818843749963,
      "v": 35
    },
    {
      "midi": 65,
      "hit": false,
      "t": 129162.37083749991,
      "d": 442.41027187499276,
      "v": 26
    },
    {
      "midi": 53,
      "hit": false,
      "t": 129501.6562124999,
      "d": 2419.640437500013,
      "v": 27
    },
    {
      "midi": 75,
      "hit": false,
      "t": 129903.88795312491,
      "d": 340.62465937499655,
      "v": 37
    },
    {
      "midi": 58,
      "hit": false,
      "t": 129924.87007499991,
      "d": 1474.9985250000173,
      "v": 28
    },
    {
      "midi": 63,
      "hit": false,
      "t": 129933.3522093749,
      "d": 1559.8198687500117,
      "v": 15
    },
    {
      "midi": 65,
      "hit": false,
      "t": 129940.49505937491,
      "d": 1594.1948343750119,
      "v": 18
    },
    {
      "midi": 86,
      "hit": false,
      "t": 131261.0294531249,
      "d": 128.57130000001052,
      "v": 72
    },
    {
      "midi": 91,
      "hit": false,
      "t": 131453.88640312492,
      "d": 231.69619687498198,
      "v": 83
    },
    {
      "midi": 86,
      "hit": false,
      "t": 131689.6004531249,
      "d": 248.66046562499832,
      "v": 59
    },
    {
      "midi": 65,
      "hit": false,
      "t": 131699.86829999991,
      "d": 1766.0696624999982,
      "v": 36
    },
    {
      "midi": 62,
      "hit": false,
      "t": 131704.7790093749,
      "d": 1732.1411249999946,
      "v": 33
    },
    {
      "midi": 60,
      "hit": false,
      "t": 131715.4932843749,
      "d": 1713.391143749992,
      "v": 31
    },
    {
      "midi": 89,
      "hit": false,
      "t": 131903.8859531249,
      "d": 191.51766562499688,
      "v": 60
    },
    {
      "midi": 87,
      "hit": false,
      "t": 132133.3500093749,
      "d": 708.4814343750186,
      "v": 52
    },
    {
      "midi": 53,
      "hit": false,
      "t": 132135.58214999991,
      "d": 2031.2479687499872,
      "v": 29
    },
    {
      "midi": 82,
      "hit": false,
      "t": 132678.4387499999,
      "d": 252.67831874999683,
      "v": 55
    },
    {
      "midi": 81,
      "hit": false,
      "t": 132872.63498437492,
      "d": 169.19625937499222,
      "v": 60
    },
    {
      "midi": 86,
      "hit": false,
      "t": 133051.65266249992,
      "d": 300.89255624997895,
      "v": 68
    },
    {
      "midi": 84,
      "hit": false,
      "t": 133248.0810374999,
      "d": 433.9281375000137,
      "v": 55
    },
    {
      "midi": 79,
      "hit": false,
      "t": 133451.6522624999,
      "d": 249.99975000001723,
      "v": 36
    },
    {
      "midi": 58,
      "hit": false,
      "t": 133690.93773749992,
      "d": 460.71382499998435,
      "v": 33
    },
    {
      "midi": 63,
      "hit": false,
      "t": 133696.74130312493,
      "d": 474.9995249999629,
      "v": 18
    },
    {
      "midi": 77,
      "hit": false,
      "t": 133700.31272812493,
      "d": 247.32118124997942,
      "v": 40
    },
    {
      "midi": 65,
      "hit": false,
      "t": 133714.5984281249,
      "d": 1045.9810968749807,
      "v": 33
    },
    {
      "midi": 75,
      "hit": false,
      "t": 133946.74105312492,
      "d": 253.57117499996093,
      "v": 47
    },
    {
      "midi": 74,
      "hit": false,
      "t": 134233.7943374999,
      "d": 441.0709875000175,
      "v": 44
    },
    {
      "midi": 53,
      "hit": false,
      "t": 134251.2050343749,
      "d": 2938.3899187499483,
      "v": 24
    },
    {
      "midi": 75,
      "hit": false,
      "t": 134638.2582187499,
      "d": 360.7139249999891,
      "v": 47
    },
    {
      "midi": 72,
      "hit": false,
      "t": 134997.6328593749,
      "d": 408.4817343749746,
      "v": 43
    },
    {
      "midi": 75,
      "hit": false,
      "t": 135362.36463749988,
      "d": 619.6422374999966,
      "v": 36
    },
    {
      "midi": 70,
      "hit": false,
      "t": 135823.07846249986,
      "d": 892.8562500000116,
      "v": 35
    },
    {
      "midi": 58,
      "hit": false,
      "t": 135834.68559374986,
      "d": 357.1425000000163,
      "v": 27
    },
    {
      "midi": 63,
      "hit": false,
      "t": 135845.39986874987,
      "d": 331.24966875000973,
      "v": 19
    },
    {
      "midi": 65,
      "hit": false,
      "t": 135857.00699999987,
      "d": 328.571100000001,
      "v": 22
    },
    {
      "midi": 69,
      "hit": false,
      "t": 136751.20253437487,
      "d": 540.624459374987,
      "v": 46
    },
    {
      "midi": 57,
      "hit": false,
      "t": 136753.43467499988,
      "d": 396.4281749999791,
      "v": 40
    },
    {
      "midi": 63,
      "hit": false,
      "t": 136764.14894999986,
      "d": 341.96394375001546,
      "v": 20
    },
    {
      "midi": 65,
      "hit": false,
      "t": 136771.29179999986,
      "d": 347.7675093750004,
      "v": 24
    },
    {
      "midi": 46,
      "hit": false,
      "t": 138686.46845624983,
      "d": 1072.7667843749805,
      "v": 47
    },
    {
      "midi": 69,
      "hit": false,
      "t": 138699.41487187482,
      "d": 884.8205437499855,
      "v": 68
    },
    {
      "midi": 57,
      "hit": false,
      "t": 139640.4853593748,
      "d": 96.87490312498994,
      "v": 49
    },
    {
      "midi": 62,
      "hit": false,
      "t": 139657.4496281248,
      "d": 128.12487187501392,
      "v": 36
    },
    {
      "midi": 65,
      "hit": false,
      "t": 139669.5031874998,
      "d": 175.89268125002855,
      "v": 30
    },
    {
      "midi": 53,
      "hit": false,
      "t": 139694.5031624998,
      "d": 99.10704375000205,
      "v": 18
    },
    {
      "midi": 81,
      "hit": false,
      "t": 140273.52044062482,
      "d": 520.981621874962,
      "v": 66
    },
    {
      "midi": 69,
      "hit": false,
      "t": 140604.32368124984,
      "d": 311.16040312492987,
      "v": 25
    },
    {
      "midi": 74,
      "hit": false,
      "t": 140605.21653749983,
      "d": 248.21403749994352,
      "v": 42
    },
    {
      "midi": 77,
      "hit": false,
      "t": 140624.41294687483,
      "d": 207.1426499999361,
      "v": 32
    },
    {
      "midi": 65,
      "hit": false,
      "t": 140627.53794374983,
      "d": 158.0355562499608,
      "v": 24
    },
    {
      "midi": 62,
      "hit": false,
      "t": 140647.62720937483,
      "d": 124.99987499997951,
      "v": 16
    },
    {
      "midi": 60,
      "hit": false,
      "t": 140668.6093312498,
      "d": 142.85699999995995,
      "v": 20
    },
    {
      "midi": 65,
      "hit": false,
      "t": 141557.44772812477,
      "d": 258.92831250000745,
      "v": 32
    },
    {
      "midi": 62,
      "hit": false,
      "t": 141558.34058437476,
      "d": 267.8568750000268,
      "v": 32
    },
    {
      "midi": 46,
      "hit": false,
      "t": 141559.23344062475,
      "d": 128.12487187501392,
      "v": 23
    },
    {
      "midi": 60,
      "hit": false,
      "t": 141571.28699999975,
      "d": 227.23191562501597,
      "v": 30
    },
    {
      "midi": 57,
      "hit": false,
      "t": 141589.59055312476,
      "d": 121.8748781250033,
      "v": 19
    },
    {
      "midi": 70,
      "hit": false,
      "t": 142233.3399093748,
      "d": 115.17845624999609,
      "v": 62
    },
    {
      "midi": 66,
      "hit": false,
      "t": 142611.4645312498,
      "d": 362.0532093749789,
      "v": 47
    },
    {
      "midi": 40,
      "hit": false,
      "t": 142659.2323406248,
      "d": 643.302928124991,
      "v": 34
    },
    {
      "midi": 68,
      "hit": false,
      "t": 143199.41037187478,
      "d": 412.05315937500563,
      "v": 43
    },
    {
      "midi": 61,
      "hit": false,
      "t": 143904.3203812498,
      "d": 245.08904062499641,
      "v": 35
    },
    {
      "midi": 66,
      "hit": false,
      "t": 143917.26679687478,
      "d": 291.07113749999553,
      "v": 51
    },
    {
      "midi": 56,
      "hit": false,
      "t": 143950.3024781248,
      "d": 2302.229840624961,
      "v": 21
    },
    {
      "midi": 62,
      "hit": false,
      "t": 143954.3203312498,
      "d": 2206.2477937499643,
      "v": 26
    },
    {
      "midi": 70,
      "hit": false,
      "t": 144181.55224687478,
      "d": 79.0177781250095,
      "v": 51
    },
    {
      "midi": 90,
      "hit": false,
      "t": 145017.2656968748,
      "d": 108.03560624999227,
      "v": 54
    },
    {
      "midi": 78,
      "hit": false,
      "t": 145037.35496249978,
      "d": 37.946390625002095,
      "v": 36
    },
    {
      "midi": 94,
      "hit": false,
      "t": 145393.60460624978,
      "d": 74.99992499998189,
      "v": 53
    },
    {
      "midi": 82,
      "hit": false,
      "t": 145410.56887499976,
      "d": 38.8392468749953,
      "v": 34
    },
    {
      "midi": 99,
      "hit": false,
      "t": 145855.21128749975,
      "d": 93.30347812501714,
      "v": 55
    },
    {
      "midi": 87,
      "hit": false,
      "t": 145885.56839999976,
      "d": 55.80351562501164,
      "v": 31
    },
    {
      "midi": 67,
      "hit": false,
      "t": 146701.19258437474,
      "d": 402.2317406249931,
      "v": 53
    },
    {
      "midi": 39,
      "hit": false,
      "t": 146716.37114062475,
      "d": 477.2316656250041,
      "v": 37
    },
    {
      "midi": 55,
      "hit": false,
      "t": 146725.29970312474,
      "d": 295.08899062502314,
      "v": 34
    },
    {
      "midi": 61,
      "hit": false,
      "t": 146726.19255937473,
      "d": 364.2853500000201,
      "v": 43
    },
    {
      "midi": 46,
      "hit": false,
      "t": 146741.37111562473,
      "d": 488.83879687503213,
      "v": 27
    },
    {
      "midi": 69,
      "hit": false,
      "t": 147441.37041562475,
      "d": 141.96414374999586,
      "v": 61
    },
    {
      "midi": 70,
      "hit": false,
      "t": 147671.28089999975,
      "d": 227.23191562498687,
      "v": 78
    },
    {
      "midi": 47,
      "hit": false,
      "t": 147918.60208124973,
      "d": 366.9639187500288,
      "v": 32
    },
    {
      "midi": 40,
      "hit": false,
      "t": 147945.38776874973,
      "d": 307.1425500000187,
      "v": 39
    },
    {
      "midi": 55,
      "hit": false,
      "t": 147960.56632499973,
      "d": 399.9996000000101,
      "v": 30
    },
    {
      "midi": 69,
      "hit": false,
      "t": 147963.24489374974,
      "d": 381.24961875000736,
      "v": 52
    },
    {
      "midi": 61,
      "hit": false,
      "t": 148852.52971874975,
      "d": 847.7670093749766,
      "v": 34
    },
    {
      "midi": 55,
      "hit": false,
      "t": 148876.19040937474,
      "d": 369.1960593749827,
      "v": 24
    },
    {
      "midi": 58,
      "hit": false,
      "t": 148885.56539999973,
      "d": 276.7854374999879,
      "v": 29
    },
    {
      "midi": 45,
      "hit": false,
      "t": 148887.35111249972,
      "d": 263.83902187499916,
      "v": 29
    },
    {
      "midi": 67,
      "hit": false,
      "t": 149467.26124687472,
      "d": 245.98189687498962,
      "v": 50
    },
    {
      "midi": 61,
      "hit": false,
      "t": 149818.60018124973,
      "d": 204.017653124989,
      "v": 19
    },
    {
      "midi": 50,
      "hit": false,
      "t": 149820.3858937497,
      "d": 583.9279875000066,
      "v": 32
    },
    {
      "midi": 66,
      "hit": false,
      "t": 149828.4215999997,
      "d": 226.78548750001937,
      "v": 34
    },
    {
      "midi": 57,
      "hit": false,
      "t": 150427.52814374972,
      "d": 2779.9079343749618,
      "v": 37
    },
    {
      "midi": 66,
      "hit": false,
      "t": 150756.54567187472,
      "d": 83.03563125000801,
      "v": 33
    },
    {
      "midi": 64,
      "hit": false,
      "t": 150784.2242156247,
      "d": 594.1958343750157,
      "v": 31
    },
    {
      "midi": 73,
      "hit": false,
      "t": 150787.3492124997,
      "d": 124.99987500000861,
      "v": 25
    },
    {
      "midi": 76,
      "hit": false,
      "t": 150790.47420937472,
      "d": 137.05343437500414,
      "v": 22
    },
    {
      "midi": 69,
      "hit": false,
      "t": 150797.61705937472,
      "d": 46.87495312499232,
      "v": 22
    },
    {
      "midi": 83,
      "hit": false,
      "t": 151102.52746874973,
      "d": 420.98172187499586,
      "v": 77
    },
    {
      "midi": 76,
      "hit": false,
      "t": 151382.43790312472,
      "d": 274.1068687500083,
      "v": 54
    },
    {
      "midi": 78,
      "hit": false,
      "t": 151703.41972499972,
      "d": 262.05330937498366,
      "v": 67
    },
    {
      "midi": 64,
      "hit": false,
      "t": 151731.5446968747,
      "d": 187.94624062499497,
      "v": 27
    },
    {
      "midi": 71,
      "hit": false,
      "t": 151995.3837187497,
      "d": 254.01760312498664,
      "v": 44
    },
    {
      "midi": 76,
      "hit": false,
      "t": 152293.5977062497,
      "d": 249.99974999998813,
      "v": 68
    },
    {
      "midi": 50,
      "hit": false,
      "t": 152558.3295843747,
      "d": 974.9990249999973,
      "v": 29
    },
    {
      "midi": 73,
      "hit": false,
      "t": 152585.5616999997,
      "d": 374.99962499999674,
      "v": 45
    },
    {
      "midi": 66,
      "hit": false,
      "t": 152896.2756749997,
      "d": 558.03515625,
      "v": 38
    },
    {
      "midi": 64,
      "hit": false,
      "t": 153198.5075156247,
      "d": 199.1069437499973,
      "v": 45
    },
    {
      "midi": 65,
      "hit": false,
      "t": 153563.2392937497,
      "d": 343.30322812503437,
      "v": 40
    },
    {
      "midi": 56,
      "hit": false,
      "t": 153575.2928531247,
      "d": 157.1427000000258,
      "v": 18
    },
    {
      "midi": 60,
      "hit": false,
      "t": 153603.41782499972,
      "d": 365.1782062500133,
      "v": 16
    },
    {
      "midi": 32,
      "hit": false,
      "t": 154168.59583124972,
      "d": 133.92843749996973,
      "v": 42
    },
    {
      "midi": 65,
      "hit": false,
      "t": 154193.5958062497,
      "d": 131.69629687498673,
      "v": 44
    },
    {
      "midi": 44,
      "hit": false,
      "t": 154202.5243687497,
      "d": 79.9106343750027,
      "v": 18
    },
    {
      "midi": 58,
      "hit": false,
      "t": 154217.2564968747,
      "d": 76.33920937500079,
      "v": 21
    },
    {
      "midi": 62,
      "hit": false,
      "t": 154218.5957812497,
      "d": 84.82134374999441,
      "v": 36
    },
    {
      "midi": 58,
      "hit": false,
      "t": 155112.3448874997,
      "d": 275.8925812499365,
      "v": 31
    },
    {
      "midi": 53,
      "hit": false,
      "t": 155123.5055906247,
      "d": 217.85692499994184,
      "v": 19
    },
    {
      "midi": 32,
      "hit": false,
      "t": 155124.3984468747,
      "d": 253.12474687493523,
      "v": 28
    },
    {
      "midi": 62,
      "hit": false,
      "t": 155126.18415937468,
      "d": 264.28544999996666,
      "v": 29
    },
    {
      "midi": 44,
      "hit": false,
      "t": 155135.55914999967,
      "d": 233.03548124997178,
      "v": 19
    },
    {
      "midi": 32,
      "hit": false,
      "t": 155482.43380312464,
      "d": 325.8925312499923,
      "v": 29
    },
    {
      "midi": 44,
      "hit": false,
      "t": 155487.34451249964,
      "d": 323.2139625000127,
      "v": 31
    },
    {
      "midi": 58,
      "hit": false,
      "t": 155490.46950937464,
      "d": 391.0710375000199,
      "v": 26
    },
    {
      "midi": 53,
      "hit": false,
      "t": 155501.18378437465,
      "d": 340.17823124999995,
      "v": 27
    },
    {
      "midi": 62,
      "hit": false,
      "t": 155502.52306874964,
      "d": 246.87475312501192,
      "v": 31
    },
    {
      "midi": 65,
      "hit": false,
      "t": 155623.50509062465,
      "d": 312.9461156250036,
      "v": 1
    },
    {
      "midi": 61,
      "hit": false,
      "t": 156125.29030312464,
      "d": 426.33885937501327,
      "v": 36
    },
    {
      "midi": 65,
      "hit": false,
      "t": 156131.54029687465,
      "d": 333.03538124999614,
      "v": 47
    },
    {
      "midi": 31,
      "hit": false,
      "t": 156135.55814999965,
      "d": 370.98177187499823,
      "v": 33
    },
    {
      "midi": 59,
      "hit": false,
      "t": 156139.57600312465,
      "d": 587.0529843750119,
      "v": 50
    },
    {
      "midi": 53,
      "hit": false,
      "t": 156146.27242499965,
      "d": 295.08899062499404,
      "v": 32
    },
    {
      "midi": 43,
      "hit": false,
      "t": 156148.50456562467,
      "d": 464.73167812498286,
      "v": 26
    },
    {
      "midi": 67,
      "hit": false,
      "t": 156803.41462499966,
      "d": 201.785512500006,
      "v": 77
    },
    {
      "midi": 63,
      "hit": false,
      "t": 157381.53904687465,
      "d": 3827.6747437498416,
      "v": 53
    },
    {
      "midi": 54,
      "hit": false,
      "t": 157400.28902812465,
      "d": 354.0175031249819,
      "v": 35
    },
    {
      "midi": 48,
      "hit": false,
      "t": 157403.41402499966,
      "d": 1162.9452656249632,
      "v": 46
    },
    {
      "midi": 60,
      "hit": false,
      "t": 157411.44973124965,
      "d": 205.80336562500452,
      "v": 48
    },
    {
      "midi": 58,
      "hit": false,
      "t": 157422.61043437466,
      "d": 257.58902812498854,
      "v": 39
    },
    {
      "midi": 54,
      "hit": false,
      "t": 157869.48498749963,
      "d": 107.14274999999907,
      "v": 28
    },
    {
      "midi": 58,
      "hit": false,
      "t": 158002.52056874963,
      "d": 108.03560624999227,
      "v": 23
    },
    {
      "midi": 60,
      "hit": false,
      "t": 158015.46698437462,
      "d": 62.053509374993155,
      "v": 25
    },
    {
      "midi": 54,
      "hit": false,
      "t": 158081.53834687461,
      "d": 104.91060937501607,
      "v": 36
    },
    {
      "midi": 58,
      "hit": false,
      "t": 158199.39537187462,
      "d": 112.94631562498398,
      "v": 44
    },
    {
      "midi": 54,
      "hit": false,
      "t": 158284.2167156246,
      "d": 99.10704375000205,
      "v": 44
    },
    {
      "midi": 58,
      "hit": false,
      "t": 158390.46660937462,
      "d": 120.0891656249878,
      "v": 52
    },
    {
      "midi": 60,
      "hit": false,
      "t": 158393.59160624963,
      "d": 97.76775937498314,
      "v": 41
    },
    {
      "midi": 54,
      "hit": false,
      "t": 158467.25224687462,
      "d": 107.14274999999907,
      "v": 46
    },
    {
      "midi": 58,
      "hit": false,
      "t": 158567.2521468746,
      "d": 128.12487187501392,
      "v": 51
    },
    {
      "midi": 60,
      "hit": false,
      "t": 158582.4307031246,
      "d": 86.16062812501332,
      "v": 57
    },
    {
      "midi": 54,
      "hit": false,
      "t": 158653.41277499963,
      "d": 100.89275624998845,
      "v": 43
    },
    {
      "midi": 58,
      "hit": false,
      "t": 158753.41267499962,
      "d": 123.21416249999311,
      "v": 46
    },
    {
      "midi": 60,
      "hit": false,
      "t": 158769.48408749962,
      "d": 50.89280624999083,
      "v": 54
    },
    {
      "midi": 54,
      "hit": false,
      "t": 158836.4483062496,
      "d": 96.87490312501905,
      "v": 38
    },
    {
      "midi": 58,
      "hit": false,
      "t": 158944.48391249962,
      "d": 113.83917187497718,
      "v": 31
    },
    {
      "midi": 60,
      "hit": false,
      "t": 158976.6267374996,
      "d": 49.999949999997625,
      "v": 32
    },
    {
      "midi": 54,
      "hit": false,
      "t": 159021.26954999962,
      "d": 102.23204062497825,
      "v": 39
    },
    {
      "midi": 60,
      "hit": false,
      "t": 159131.5372968746,
      "d": 112.94631562501309,
      "v": 35
    },
    {
      "midi": 58,
      "hit": false,
      "t": 159138.2337187496,
      "d": 124.99987500000861,
      "v": 31
    },
    {
      "midi": 51,
      "hit": false,
      "t": 159197.60865937461,
      "d": 88.83919687499292,
      "v": 33
    },
    {
      "midi": 54,
      "hit": false,
      "t": 159213.2336437496,
      "d": 119.1963093749946,
      "v": 39
    },
    {
      "midi": 52,
      "hit": false,
      "t": 159284.2157156246,
      "d": 41.071387500007404,
      "v": 37
    },
    {
      "midi": 58,
      "hit": false,
      "t": 159329.3049562496,
      "d": 139.28557499998715,
      "v": 35
    },
    {
      "midi": 53,
      "hit": false,
      "t": 159331.5370968746,
      "d": 1543.7484562498867,
      "v": 58
    },
    {
      "midi": 60,
      "hit": false,
      "t": 159340.4656593746,
      "d": 104.01775312499376,
      "v": 50
    },
    {
      "midi": 54,
      "hit": false,
      "t": 159412.3405874996,
      "d": 119.1963093749655,
      "v": 35
    },
    {
      "midi": 58,
      "hit": false,
      "t": 159530.19761249959,
      "d": 141.07128749997355,
      "v": 32
    },
    {
      "midi": 60,
      "hit": false,
      "t": 159548.50116562456,
      "d": 47.76780937498552,
      "v": 40
    },
    {
      "midi": 54,
      "hit": false,
      "t": 159615.46538437455,
      "d": 100.89275625001756,
      "v": 34
    },
    {
      "midi": 58,
      "hit": false,
      "t": 159727.51884374957,
      "d": 324.1068187499768,
      "v": 15
    },
    {
      "midi": 54,
      "hit": false,
      "t": 159819.48303749957,
      "d": 92.85704999999143,
      "v": 37
    },
    {
      "midi": 54,
      "hit": false,
      "t": 160013.23284374955,
      "d": 104.01775312499376,
      "v": 36
    },
    {
      "midi": 58,
      "hit": false,
      "t": 160126.62558749953,
      "d": 97.76775937501225,
      "v": 18
    },
    {
      "midi": 54,
      "hit": false,
      "t": 160210.55407499953,
      "d": 101.78561250001076,
      "v": 29
    },
    {
      "midi": 41,
      "hit": false,
      "t": 160310.55397499955,
      "d": 1283.034431249922,
      "v": 44
    },
    {
      "midi": 58,
      "hit": false,
      "t": 160317.25039687453,
      "d": 91.96419374999823,
      "v": 27
    },
    {
      "midi": 54,
      "hit": false,
      "t": 160412.33958749953,
      "d": 92.85704999999143,
      "v": 36
    },
    {
      "midi": 54,
      "hit": false,
      "t": 160598.5001156245,
      "d": 112.05345937499078,
      "v": 27
    },
    {
      "midi": 60,
      "hit": false,
      "t": 160753.4106749995,
      "d": 145.08914062500116,
      "v": 17
    },
    {
      "midi": 54,
      "hit": false,
      "t": 160867.2498468745,
      "d": 130.35701249999693,
      "v": 19
    },
    {
      "midi": 58,
      "hit": false,
      "t": 160887.3391124995,
      "d": 302.23184062499786,
      "v": 21
    },
    {
      "midi": 46,
      "hit": false,
      "t": 161136.4460062495,
      "d": 212.05335937501513,
      "v": 23
    },
    {
      "midi": 57,
      "hit": false,
      "t": 161406.5350218745,
      "d": 227.67834374998347,
      "v": 40
    },
    {
      "midi": 53,
      "hit": false,
      "t": 161417.2492968745,
      "d": 314.2853999999643,
      "v": 28
    },
    {
      "midi": 62,
      "hit": false,
      "t": 161418.5885812495,
      "d": 291.96399374998873,
      "v": 38
    },
    {
      "midi": 58,
      "hit": false,
      "t": 161420.37429374948,
      "d": 263.83902187499916,
      "v": 33
    },
    {
      "midi": 65,
      "hit": false,
      "t": 162463.23039374946,
      "d": 407.1424500000139,
      "v": 28
    },
    {
      "midi": 62,
      "hit": false,
      "t": 162497.60535937446,
      "d": 397.7674593750271,
      "v": 22
    },
    {
      "midi": 60,
      "hit": false,
      "t": 162513.23034374946,
      "d": 418.30315312501625,
      "v": 17
    },
    {
      "midi": 74,
      "hit": false,
      "t": 162734.21226562446,
      "d": 279.017578125,
      "v": 58
    },
    {
      "midi": 77,
      "hit": false,
      "t": 163102.51546874945,
      "d": 137.05343437500414,
      "v": 51
    },
    {
      "midi": 81,
      "hit": false,
      "t": 163309.21169062445,
      "d": 109.37489062501118,
      "v": 70
    },
    {
      "midi": 82,
      "hit": false,
      "t": 163532.42575312447,
      "d": 1441.9628437500214,
      "v": 69
    },
    {
      "midi": 70,
      "hit": false,
      "t": 163539.56860312447,
      "d": 763.8385218750336,
      "v": 52
    },
    {
      "midi": 75,
      "hit": false,
      "t": 163547.6043093745,
      "d": 781.6956468750141,
      "v": 53
    },
    {
      "midi": 53,
      "hit": false,
      "t": 163551.6221624995,
      "d": 2476.7832374999707,
      "v": 34
    },
    {
      "midi": 63,
      "hit": false,
      "t": 163555.1935874995,
      "d": 174.10696875001304,
      "v": 25
    },
    {
      "midi": 63,
      "hit": false,
      "t": 164506.5319218745,
      "d": 835.7134499999811,
      "v": 23
    },
    {
      "midi": 58,
      "hit": false,
      "t": 164510.5497749995,
      "d": 608.0351062499976,
      "v": 34
    },
    {
      "midi": 65,
      "hit": false,
      "t": 164534.2104656245,
      "d": 816.0706124999851,
      "v": 35
    },
    {
      "midi": 86,
      "hit": false,
      "t": 165287.3347124995,
      "d": 211.16050312499283,
      "v": 77
    },
    {
      "midi": 81,
      "hit": false,
      "t": 165454.29883124947,
      "d": 170.98197187500773,
      "v": 69
    },
    {
      "midi": 65,
      "hit": false,
      "t": 165644.47721249948,
      "d": 1504.9092093749787,
      "v": 32
    },
    {
      "midi": 62,
      "hit": false,
      "t": 165646.26292499946,
      "d": 1627.2305156250077,
      "v": 32
    },
    {
      "midi": 60,
      "hit": false,
      "t": 165652.51291874947,
      "d": 1556.6948718749918,
      "v": 22
    },
    {
      "midi": 84,
      "hit": false,
      "t": 165675.28075312448,
      "d": 393.3031781250029,
      "v": 64
    },
    {
      "midi": 82,
      "hit": false,
      "t": 165998.49471562446,
      "d": 195.9819468750211,
      "v": 44
    },
    {
      "midi": 81,
      "hit": false,
      "t": 166239.5659031245,
      "d": 224.99977500000386,
      "v": 55
    },
    {
      "midi": 77,
      "hit": false,
      "t": 166412.33358749948,
      "d": 99.10704375000205,
      "v": 46
    },
    {
      "midi": 74,
      "hit": false,
      "t": 166596.26197499948,
      "d": 199.1069437499973,
      "v": 42
    },
    {
      "midi": 53,
      "hit": false,
      "t": 166626.61908749948,
      "d": 1717.855424999987,
      "v": 24
    },
    {
      "midi": 70,
      "hit": false,
      "t": 166835.54744999946,
      "d": 241.0711874999979,
      "v": 34
    },
    {
      "midi": 69,
      "hit": false,
      "t": 167052.51151874947,
      "d": 1227.6773437499942,
      "v": 40
    },
    {
      "midi": 58,
      "hit": false,
      "t": 167559.20744062448,
      "d": 555.3565874999913,
      "v": 33
    },
    {
      "midi": 63,
      "hit": false,
      "t": 167562.33243749948,
      "d": 540.1780312499905,
      "v": 23
    },
    {
      "midi": 65,
      "hit": false,
      "t": 167571.26099999947,
      "d": 1687.0518843749887,
      "v": 31
    },
    {
      "midi": 53,
      "hit": false,
      "t": 168625.27780312445,
      "d": 1282.1415750000451,
      "v": 29
    },
    {
      "midi": 93,
      "hit": false,
      "t": 168976.61673749945,
      "d": 448.6602656250179,
      "v": 76
    },
    {
      "midi": 94,
      "hit": false,
      "t": 169357.41992812447,
      "d": 109.82131875000778,
      "v": 46
    },
    {
      "midi": 95,
      "hit": false,
      "t": 169456.52697187447,
      "d": 41.964243750000605,
      "v": 62
    },
    {
      "midi": 96,
      "hit": false,
      "t": 169565.45543437448,
      "d": 164.7319781249971,
      "v": 81
    },
    {
      "midi": 93,
      "hit": false,
      "t": 169760.54452499948,
      "d": 322.7675343750161,
      "v": 71
    },
    {
      "midi": 65,
      "hit": false,
      "t": 169763.2230937495,
      "d": 78.1249218749872,
      "v": 44
    },
    {
      "midi": 62,
      "hit": false,
      "t": 169778.4016499995,
      "d": 78.1249218749872,
      "v": 35
    },
    {
      "midi": 60,
      "hit": false,
      "t": 169783.31235937448,
      "d": 95.08919062500354,
      "v": 31
    },
    {
      "midi": 46,
      "hit": false,
      "t": 170227.5083437495,
      "d": 1014.731128125015,
      "v": 50
    },
    {
      "midi": 65,
      "hit": false,
      "t": 170734.20426562452,
      "d": 279.017578125,
      "v": 54
    },
    {
      "midi": 57,
      "hit": false,
      "t": 170736.43640624953,
      "d": 147.76770937500987,
      "v": 57
    },
    {
      "midi": 62,
      "hit": false,
      "t": 170737.32926249952,
      "d": 254.91045937500894,
      "v": 57
    },
    {
      "midi": 53,
      "hit": false,
      "t": 170747.59710937453,
      "d": 495.98164687497774,
      "v": 30
    },
    {
      "midi": 57,
      "hit": false,
      "t": 171233.31090937453,
      "d": 156.2498437499744,
      "v": 66
    },
    {
      "midi": 81,
      "hit": false,
      "t": 171729.2925562495,
      "d": 428.1245718749997,
      "v": 78
    },
    {
      "midi": 74,
      "hit": false,
      "t": 171731.52469687452,
      "d": 347.7675093750004,
      "v": 81
    },
    {
      "midi": 62,
      "hit": false,
      "t": 171751.6139624995,
      "d": 541.963743750006,
      "v": 55
    },
    {
      "midi": 77,
      "hit": false,
      "t": 172217.23849687452,
      "d": 99.10704375000205,
      "v": 48
    },
    {
      "midi": 74,
      "hit": false,
      "t": 172224.38134687452,
      "d": 100.89275624998845,
      "v": 53
    },
    {
      "midi": 65,
      "hit": false,
      "t": 172225.2742031245,
      "d": 81.2499187499925,
      "v": 43
    },
    {
      "midi": 69,
      "hit": false,
      "t": 172235.54204999952,
      "d": 142.85699999998906,
      "v": 41
    },
    {
      "midi": 74,
      "hit": false,
      "t": 172717.23799687452,
      "d": 304.01755312501336,
      "v": 36
    },
    {
      "midi": 67,
      "hit": false,
      "t": 172720.36299374953,
      "d": 223.21406250001746,
      "v": 43
    },
    {
      "midi": 57,
      "hit": false,
      "t": 172745.36296874954,
      "d": 425.89243124998757,
      "v": 32
    },
    {
      "midi": 53,
      "hit": false,
      "t": 173230.18391249952,
      "d": 65.17850624999846,
      "v": 29
    },
    {
      "midi": 70,
      "hit": false,
      "t": 173574.37999687452,
      "d": 174.10696875001304,
      "v": 59
    },
    {
      "midi": 28,
      "hit": false,
      "t": 173848.48686562452,
      "d": 230.80334062498878,
      "v": 28
    },
    {
      "midi": 68,
      "hit": false,
      "t": 173879.29040624952,
      "d": 301.33898437500466,
      "v": 42
    },
    {
      "midi": 82,
      "hit": false,
      "t": 174579.28970624952,
      "d": 156.2498437500035,
      "v": 58
    },
    {
      "midi": 78,
      "hit": false,
      "t": 174626.6110874995,
      "d": 125.89273125000182,
      "v": 48
    },
    {
      "midi": 73,
      "hit": false,
      "t": 174668.5753312495,
      "d": 118.749881249998,
      "v": 27
    },
    {
      "midi": 78,
      "hit": false,
      "t": 174944.4679124995,
      "d": 574.1065687500522,
      "v": 33
    },
    {
      "midi": 68,
      "hit": false,
      "t": 174973.4857406245,
      "d": 492.85665000003064,
      "v": 39
    },
    {
      "midi": 56,
      "hit": false,
      "t": 174995.36071874952,
      "d": 700.8921562500182,
      "v": 40
    },
    {
      "midi": 62,
      "hit": false,
      "t": 175009.19999062453,
      "d": 521.4280500000168,
      "v": 30
    },
    {
      "midi": 61,
      "hit": false,
      "t": 176094.46676249953,
      "d": 1574.1055687499756,
      "v": 27
    },
    {
      "midi": 56,
      "hit": false,
      "t": 176097.59175937454,
      "d": 605.8029656249855,
      "v": 35
    },
    {
      "midi": 70,
      "hit": false,
      "t": 176118.57388124953,
      "d": 1598.6591156249924,
      "v": 30
    },
    {
      "midi": 66,
      "hit": false,
      "t": 176119.46673749952,
      "d": 739.7314031250135,
      "v": 33
    },
    {
      "midi": 62,
      "hit": false,
      "t": 176142.23457187452,
      "d": 484.3745156250079,
      "v": 32
    },
    {
      "midi": 66,
      "hit": false,
      "t": 177231.51919687452,
      "d": 456.69597187498584,
      "v": 36
    },
    {
      "midi": 61,
      "hit": false,
      "t": 178282.41100312452,
      "d": 738.8385468749912,
      "v": 34
    },
    {
      "midi": 39,
      "hit": false,
      "t": 178292.2324218745,
      "d": 336.16037812500144,
      "v": 30
    },
    {
      "midi": 55,
      "hit": false,
      "t": 178301.6074124995,
      "d": 395.9817468750116,
      "v": 17
    },
    {
      "midi": 46,
      "hit": false,
      "t": 178456.5179718745,
      "d": 1021.8739781250188,
      "v": 1
    },
    {
      "midi": 67,
      "hit": false,
      "t": 179375.26705312452,
      "d": 143.30342812501476,
      "v": 64
    },
    {
      "midi": 69,
      "hit": false,
      "t": 180064.55207812454,
      "d": 85.71419999998761,
      "v": 56
    },
    {
      "midi": 70,
      "hit": false,
      "t": 180178.39124999952,
      "d": 162.0534093749884,
      "v": 58
    },
    {
      "midi": 69,
      "hit": false,
      "t": 180305.6232656245,
      "d": 112.94631562498398,
      "v": 56
    },
    {
      "midi": 67,
      "hit": false,
      "t": 180437.3195624995,
      "d": 66.96421874998487,
      "v": 43
    },
    {
      "midi": 62,
      "hit": false,
      "t": 180492.2302218745,
      "d": 630.3565125000314,
      "v": 29
    },
    {
      "midi": 57,
      "hit": false,
      "t": 180498.4802156245,
      "d": 576.7851375000027,
      "v": 22
    },
    {
      "midi": 52,
      "hit": false,
      "t": 180500.26592812449,
      "d": 518.3030531250115,
      "v": 25
    },
    {
      "midi": 58,
      "hit": false,
      "t": 180502.4980687495,
      "d": 597.7672593750176,
      "v": 36
    },
    {
      "midi": 69,
      "hit": false,
      "t": 180561.42658124949,
      "d": 1392.855750000017,
      "v": 51
    },
    {
      "midi": 61,
      "hit": false,
      "t": 181573.47914062452,
      "d": 605.8029656249564,
      "v": 32
    },
    {
      "midi": 65,
      "hit": false,
      "t": 181577.49699374952,
      "d": 558.0351562499709,
      "v": 38
    },
    {
      "midi": 55,
      "hit": false,
      "t": 181590.4434093745,
      "d": 613.8386718749825,
      "v": 30
    },
    {
      "midi": 79,
      "hit": false,
      "t": 182366.33549062448,
      "d": 136.16057812501094,
      "v": 56
    },
    {
      "midi": 76,
      "hit": false,
      "t": 182528.3888999995,
      "d": 91.07133750000503,
      "v": 43
    },
    {
      "midi": 38,
      "hit": false,
      "t": 182696.2458749995,
      "d": 135.26772187501774,
      "v": 34
    },
    {
      "midi": 78,
      "hit": false,
      "t": 182714.5494281245,
      "d": 635.7136499999906,
      "v": 51
    },
    {
      "midi": 61,
      "hit": false,
      "t": 183263.20959374952,
      "d": 1244.195184375014,
      "v": 33
    },
    {
      "midi": 64,
      "hit": false,
      "t": 183282.40600312452,
      "d": 875.8919812499953,
      "v": 28
    },
    {
      "midi": 59,
      "hit": false,
      "t": 183286.42385624952,
      "d": 1120.9810218750208,
      "v": 34
    },
    {
      "midi": 54,
      "hit": false,
      "t": 183299.3702718745,
      "d": 2962.050609375001,
      "v": 27
    },
    {
      "midi": 73,
      "hit": false,
      "t": 183818.5661812495,
      "d": 213.83907187500154,
      "v": 58
    },
    {
      "midi": 71,
      "hit": false,
      "t": 183826.6018874995,
      "d": 206.69622187499772,
      "v": 66
    },
    {
      "midi": 73,
      "hit": false,
      "t": 184109.1908906245,
      "d": 208.03550625001662,
      "v": 44
    },
    {
      "midi": 71,
      "hit": false,
      "t": 184126.60158749952,
      "d": 149.99984999999288,
      "v": 40
    },
    {
      "midi": 69,
      "hit": false,
      "t": 184376.60133749954,
      "d": 376.78533749998314,
      "v": 45
    },
    {
      "midi": 76,
      "hit": false,
      "t": 184897.58295937453,
      "d": 154.01770312499139,
      "v": 68
    },
    {
      "midi": 64,
      "hit": false,
      "t": 184906.51152187452,
      "d": 262.05330937498366,
      "v": 31
    },
    {
      "midi": 73,
      "hit": false,
      "t": 184910.52937499952,
      "d": 199.9997999999905,
      "v": 46
    },
    {
      "midi": 71,
      "hit": false,
      "t": 184917.22579687453,
      "d": 177.23196562498924,
      "v": 53
    },
    {
      "midi": 76,
      "hit": false,
      "t": 185183.2969593745,
      "d": 195.0890906249988,
      "v": 66
    },
    {
      "midi": 71,
      "hit": false,
      "t": 185468.56453124952,
      "d": 254.01760312498664,
      "v": 40
    },
    {
      "midi": 73,
      "hit": false,
      "t": 185469.4573874995,
      "d": 403.1245968749863,
      "v": 26
    },
    {
      "midi": 69,
      "hit": false,
      "t": 185474.3680968745,
      "d": 329.9103843749908,
      "v": 35
    },
    {
      "midi": 61,
      "hit": false,
      "t": 185963.2068937495,
      "d": 361.1603531249857,
      "v": 30
    },
    {
      "midi": 64,
      "hit": false,
      "t": 185971.2425999995,
      "d": 207.14264999999432,
      "v": 39
    },
    {
      "midi": 71,
      "hit": false,
      "t": 185981.5104468745,
      "d": 162.0534093749884,
      "v": 61
    },
    {
      "midi": 71,
      "hit": false,
      "t": 186280.6172906245,
      "d": 209.82121874997392,
      "v": 56
    },
    {
      "midi": 66,
      "hit": false,
      "t": 186293.5637062495,
      "d": 85.71419999998761,
      "v": 34
    },
    {
      "midi": 66,
      "hit": false,
      "t": 186549.36702187447,
      "d": 70.98207187501248,
      "v": 35
    },
    {
      "midi": 65,
      "hit": false,
      "t": 187150.2592781245,
      "d": 1885.2659718749346,
      "v": 46
    },
    {
      "midi": 54,
      "hit": false,
      "t": 187152.4914187495,
      "d": 693.7493062499852,
      "v": 25
    },
    {
      "midi": 32,
      "hit": false,
      "t": 187155.6164156245,
      "d": 1160.713124999951,
      "v": 31
    },
    {
      "midi": 60,
      "hit": false,
      "t": 187156.5092718745,
      "d": 720.9814218749816,
      "v": 42
    },
    {
      "midi": 44,
      "hit": false,
      "t": 187167.2235468745,
      "d": 1169.1952593749447,
      "v": 18
    },
    {
      "midi": 58,
      "hit": false,
      "t": 187168.5628312495,
      "d": 751.7849624999799,
      "v": 47
    },
    {
      "midi": 54,
      "hit": false,
      "t": 188314.54382812447,
      "d": 924.9990749999706,
      "v": 37
    },
    {
      "midi": 58,
      "hit": false,
      "t": 188337.31166249944,
      "d": 929.0169281249982,
      "v": 37
    },
    {
      "midi": 60,
      "hit": false,
      "t": 188353.38307499944,
      "d": 754.017103124992,
      "v": 29
    },
    {
      "midi": 45,
      "hit": false,
      "t": 188670.34704374944,
      "d": 291.07113749999553,
      "v": 38
    },
    {
      "midi": 44,
      "hit": false,
      "t": 188978.38244999942,
      "d": 359.821068750025,
      "v": 46
    },
    {
      "midi": 59,
      "hit": false,
      "t": 189348.47136562446,
      "d": 578.1244218749634,
      "v": 44
    },
    {
      "midi": 43,
      "hit": false,
      "t": 189361.41778124945,
      "d": 530.8030406249745,
      "v": 32
    },
    {
      "midi": 53,
      "hit": false,
      "t": 189364.54277812445,
      "d": 464.73167812498286,
      "v": 33
    },
    {
      "midi": 31,
      "hit": false,
      "t": 189718.56028124943,
      "d": 100.89275624998845,
      "v": 53
    },
    {
      "midi": 56,
      "hit": false,
      "t": 190476.59523749942,
      "d": 974.9990249999682,
      "v": 77
    },
    {
      "midi": 67,
      "hit": false,
      "t": 190477.48809374942,
      "d": 726.7849874999956,
      "v": 68
    },
    {
      "midi": 59,
      "hit": false,
      "t": 190479.2738062494,
      "d": 816.9634687499783,
      "v": 66
    },
    {
      "midi": 62,
      "hit": false,
      "t": 190486.4166562494,
      "d": 787.0527843749733,
      "v": 57
    },
    {
      "midi": 53,
      "hit": false,
      "t": 190879.2734062494,
      "d": 170.98197187500773,
      "v": 73
    },
    {
      "midi": 47,
      "hit": false,
      "t": 191232.3980531244,
      "d": 375.89248124996084,
      "v": 66
    },
    {
      "midi": 63,
      "hit": false,
      "t": 191602.48696874938,
      "d": 1029.9096843749867,
      "v": 60
    },
    {
      "midi": 54,
      "hit": false,
      "t": 191606.50482187438,
      "d": 991.0704374999914,
      "v": 70
    },
    {
      "midi": 58,
      "hit": false,
      "t": 191614.54052812437,
      "d": 2051.7836624999763,
      "v": 69
    },
    {
      "midi": 60,
      "hit": false,
      "t": 191615.43338437437,
      "d": 2087.944340624963,
      "v": 63
    },
    {
      "midi": 48,
      "hit": false,
      "t": 191626.59408749937,
      "d": 647.7672093749861,
      "v": 62
    },
    {
      "midi": 36,
      "hit": false,
      "t": 192147.57570937436,
      "d": 109.82131875000778,
      "v": 71
    },
    {
      "midi": 53,
      "hit": false,
      "t": 192706.50372187435,
      "d": 968.7490312499867,
      "v": 87
    },
    {
      "midi": 41,
      "hit": false,
      "t": 193287.30671249935,
      "d": 1986.1587281249522,
      "v": 57
    },
    {
      "midi": 63,
      "hit": false,
      "t": 193858.28828437434,
      "d": 928.1240718749759,
      "v": 35
    },
    {
      "midi": 54,
      "hit": false,
      "t": 193859.62756874933,
      "d": 909.8205187499989,
      "v": 36
    },
    {
      "midi": 60,
      "hit": false,
      "t": 193873.46684062434,
      "d": 922.7669343749876,
      "v": 40
    },
    {
      "midi": 53,
      "hit": false,
      "t": 193874.35969687434,
      "d": 381.24961875000736,
      "v": 28
    },
    {
      "midi": 58,
      "hit": false,
      "t": 193876.59183749935,
      "d": 929.0169281249691,
      "v": 50
    },
    {
      "midi": 53,
      "hit": false,
      "t": 194443.55555624934,
      "d": 294.64256249999744,
      "v": 38
    },
    {
      "midi": 63,
      "hit": false,
      "t": 194997.5728593743,
      "d": 433.9281374999846,
      "v": 35
    },
    {
      "midi": 54,
      "hit": false,
      "t": 195001.5907124993,
      "d": 206.69622187499772,
      "v": 34
    },
    {
      "midi": 53,
      "hit": false,
      "t": 195040.4299593743,
      "d": 695.088590624975,
      "v": 26
    },
    {
      "midi": 58,
      "hit": false,
      "t": 195043.5549562493,
      "d": 299.99969999998575,
      "v": 33
    },
    {
      "midi": 60,
      "hit": false,
      "t": 195052.4835187493,
      "d": 241.9640437499911,
      "v": 31
    },
    {
      "midi": 41,
      "hit": false,
      "t": 195581.5008468743,
      "d": 104.91060937498696,
      "v": 41
    },
    {
      "midi": 77,
      "hit": false,
      "t": 196092.21462187427,
      "d": 737.0528343749756,
      "v": 53
    },
    {
      "midi": 74,
      "hit": false,
      "t": 196126.58958749927,
      "d": 620.9815218749864,
      "v": 55
    },
    {
      "midi": 70,
      "hit": false,
      "t": 196156.50027187425,
      "d": 543.7494562499924,
      "v": 44
    },
    {
      "midi": 65,
      "hit": false,
      "t": 196221.23234999925,
      "d": 524.1066187499964,
      "v": 10
    },
    {
      "midi": 62,
      "hit": false,
      "t": 196248.46446562425,
      "d": 734.8206937499926,
      "v": 17
    },
    {
      "midi": 69,
      "hit": false,
      "t": 196251.58946249925,
      "d": 420.98172187499586,
      "v": 31
    },
    {
      "midi": 60,
      "hit": false,
      "t": 196378.37504999925,
      "d": 633.0350812499819,
      "v": 1
    },
    {
      "midi": 53,
      "hit": false,
      "t": 196692.21402187424,
      "d": 2160.265696874965,
      "v": 31
    },
    {
      "midi": 62,
      "hit": false,
      "t": 197231.49919687424,
      "d": 710.7135749999725,
      "v": 24
    },
    {
      "midi": 74,
      "hit": false,
      "t": 197232.39205312423,
      "d": 219.19620937498985,
      "v": 51
    },
    {
      "midi": 65,
      "hit": false,
      "t": 197248.46346562423,
      "d": 674.9993249999825,
      "v": 19
    },
    {
      "midi": 77,
      "hit": false,
      "t": 197550.24887812423,
      "d": 297.32113125000615,
      "v": 76
    },
    {
      "midi": 79,
      "hit": false,
      "t": 197895.33781874922,
      "d": 258.03545624998515,
      "v": 76
    },
    {
      "midi": 58,
      "hit": false,
      "t": 198255.6053156242,
      "d": 566.9637187499902,
      "v": 36
    },
    {
      "midi": 70,
      "hit": false,
      "t": 198268.5517312492,
      "d": 1776.783937500004,
      "v": 48
    },
    {
      "midi": 63,
      "hit": false,
      "t": 198299.3552718742,
      "d": 548.2137375000166,
      "v": 43
    },
    {
      "midi": 75,
      "hit": false,
      "t": 198303.3731249992,
      "d": 2258.0334562500066,
      "v": 56
    },
    {
      "midi": 65,
      "hit": false,
      "t": 198334.62309374922,
      "d": 1971.8730281249736,
      "v": 48
    },
    {
      "midi": 79,
      "hit": false,
      "t": 198378.3730499992,
      "d": 2361.158353125007,
      "v": 59
    },
    {
      "midi": 82,
      "hit": false,
      "t": 198424.3551468742,
      "d": 2316.069112500001,
      "v": 54
    },
    {
      "midi": 53,
      "hit": false,
      "t": 198948.4617656242,
      "d": 329.9103843749908,
      "v": 36
    },
    {
      "midi": 53,
      "hit": false,
      "t": 199462.3005374992,
      "d": 419.19600937500945,
      "v": 37
    },
    {
      "midi": 53,
      "hit": false,
      "t": 200003.3714249992,
      "d": 825.8920312499977,
      "v": 38
    },
    {
      "midi": 65,
      "hit": false,
      "t": 200543.5494562492,
      "d": 804.9099093749828,
      "v": 53
    },
    {
      "midi": 62,
      "hit": false,
      "t": 200553.3708749992,
      "d": 808.034906249959,
      "v": 46
    },
    {
      "midi": 60,
      "hit": false,
      "t": 200560.5137249992,
      "d": 843.749156249949,
      "v": 38
    },
    {
      "midi": 82,
      "hit": false,
      "t": 201105.6024656242,
      "d": 459.82096874996205,
      "v": 80
    },
    {
      "midi": 53,
      "hit": false,
      "t": 201114.53102812418,
      "d": 697.7671593749837,
      "v": 51
    },
    {
      "midi": 74,
      "hit": false,
      "t": 201122.56673437418,
      "d": 388.8388968749787,
      "v": 80
    },
    {
      "midi": 82,
      "hit": false,
      "t": 201645.33406874916,
      "d": 379.01747812499525,
      "v": 74
    },
    {
      "midi": 62,
      "hit": false,
      "t": 201659.61976874917,
      "d": 531.6958968749677,
      "v": 49
    },
    {
      "midi": 74,
      "hit": false,
      "t": 201660.51262499916,
      "d": 443.7495562499971,
      "v": 71
    },
    {
      "midi": 65,
      "hit": false,
      "t": 201673.45904062415,
      "d": 133.03558125000563,
      "v": 36
    },
    {
      "midi": 60,
      "hit": false,
      "t": 201684.61974374915,
      "d": 470.9816718749935,
      "v": 33
    },
    {
      "midi": 53,
      "hit": false,
      "t": 202164.52997812413,
      "d": 358.0353562500095,
      "v": 57
    },
    {
      "midi": 71,
      "hit": false,
      "t": 202703.36872499913,
      "d": 798.2134875000047,
      "v": 74
    },
    {
      "midi": 61,
      "hit": false,
      "t": 202704.26158124913,
      "d": 474.1066687499988,
      "v": 60
    },
    {
      "midi": 68,
      "hit": false,
      "t": 202711.40443124913,
      "d": 820.0884656250128,
      "v": 70
    },
    {
      "midi": 64,
      "hit": false,
      "t": 202715.42228437413,
      "d": 604.9101093750214,
      "v": 76
    },
    {
      "midi": 59,
      "hit": false,
      "t": 202720.33299374912,
      "d": 467.8566750000173,
      "v": 60
    },
    {
      "midi": 57,
      "hit": false,
      "t": 202722.56513437413,
      "d": 444.6424124999903,
      "v": 62
    },
    {
      "midi": 63,
      "hit": false,
      "t": 203883.27825937414,
      "d": 786.1599281250092,
      "v": 46
    },
    {
      "midi": 71,
      "hit": false,
      "t": 203884.61754374913,
      "d": 689.7314531250158,
      "v": 50
    },
    {
      "midi": 68,
      "hit": false,
      "t": 203891.31396562414,
      "d": 882.1419750000059,
      "v": 44
    },
    {
      "midi": 75,
      "hit": false,
      "t": 204995.33071874914,
      "d": 3116.0683125000214,
      "v": 50
    },
    {
      "midi": 40,
      "hit": false,
      "t": 205034.61639374917,
      "d": 163.8391218750039,
      "v": 28
    },
    {
      "midi": 71,
      "hit": false,
      "t": 206150.24027812417,
      "d": 1945.087340625003,
      "v": 35
    },
    {
      "midi": 68,
      "hit": false,
      "t": 206156.49027187418,
      "d": 1916.9623687499843,
      "v": 37
    },
    {
      "midi": 64,
      "hit": false,
      "t": 206157.38312812417,
      "d": 1833.033881249983,
      "v": 33
    },
    {
      "midi": 57,
      "hit": false,
      "t": 207325.23910312416,
      "d": 1347.3200812499563,
      "v": 45
    },
    {
      "midi": 73,
      "hit": false,
      "t": 208170.32754374915,
      "d": 348.213937499997,
      "v": 37
    },
    {
      "midi": 69,
      "hit": false,
      "t": 208178.36324999915,
      "d": 346.87465312497807,
      "v": 71
    },
    {
      "midi": 64,
      "hit": false,
      "t": 208181.48824687416,
      "d": 655.802915624954,
      "v": 73
    },
    {
      "midi": 63,
      "hit": false,
      "t": 208520.32719374914,
      "d": 70.08921562499017,
      "v": 50
    },
    {
      "midi": 71,
      "hit": false,
      "t": 208896.2196749991,
      "d": 122.3213062499999,
      "v": 60
    },
    {
      "midi": 68,
      "hit": false,
      "t": 209245.3264687491,
      "d": 133.03558125000563,
      "v": 47
    },
    {
      "midi": 66,
      "hit": false,
      "t": 209675.2367531241,
      "d": 1052.2310906249913,
      "v": 46
    },
    {
      "midi": 59,
      "hit": false,
      "t": 209679.2546062491,
      "d": 828.1241718749807,
      "v": 36
    },
    {
      "midi": 64,
      "hit": false,
      "t": 209684.6117437491,
      "d": 829.9098843749962,
      "v": 49
    },
    {
      "midi": 44,
      "hit": false,
      "t": 210070.3256437491,
      "d": 1162.9452656249923,
      "v": 33
    },
    {
      "midi": 64,
      "hit": false,
      "t": 210780.5927906241,
      "d": 640.6243593749823,
      "v": 39
    },
    {
      "midi": 59,
      "hit": false,
      "t": 210806.4856218741,
      "d": 696.8743031249614,
      "v": 33
    },
    {
      "midi": 56,
      "hit": false,
      "t": 210887.2891124991,
      "d": 82.1427749999857,
      "v": 18
    },
    {
      "midi": 56,
      "hit": false,
      "t": 211185.5030999991,
      "d": 274.1068687499792,
      "v": 42
    },
    {
      "midi": 44,
      "hit": false,
      "t": 211506.48492187407,
      "d": 303.12469687499106,
      "v": 33
    },
    {
      "midi": 66,
      "hit": false,
      "t": 211876.57383749908,
      "d": 1671.873328124988,
      "v": 35
    },
    {
      "midi": 61,
      "hit": false,
      "t": 211878.35954999906,
      "d": 1602.2305406249943,
      "v": 36
    },
    {
      "midi": 58,
      "hit": false,
      "t": 211885.50239999907,
      "d": 618.7493812499742,
      "v": 39
    },
    {
      "midi": 43,
      "hit": false,
      "t": 211890.41310937406,
      "d": 1442.8556999999855,
      "v": 36
    },
    {
      "midi": 55,
      "hit": false,
      "t": 211898.44881562405,
      "d": 422.76743437498226,
      "v": 35
    },
    {
      "midi": 55,
      "hit": false,
      "t": 213057.37622812405,
      "d": 281.249718749983,
      "v": 34
    },
    {
      "midi": 64,
      "hit": false,
      "t": 213063.62622187406,
      "d": 405.803165624995,
      "v": 62
    },
    {
      "midi": 58,
      "hit": false,
      "t": 213064.51907812405,
      "d": 371.87462812499143,
      "v": 48
    },
    {
      "midi": 66,
      "hit": false,
      "t": 214222.55363437405,
      "d": 1181.695246874966,
      "v": 46
    },
    {
      "midi": 71,
      "hit": false,
      "t": 214225.23220312406,
      "d": 1136.1595781249634,
      "v": 51
    },
    {
      "midi": 64,
      "hit": false,
      "t": 214235.50004999907,
      "d": 974.9990249999682,
      "v": 55
    },
    {
      "midi": 60,
      "hit": false,
      "t": 214244.42861249906,
      "d": 750.8921062499867,
      "v": 33
    },
    {
      "midi": 48,
      "hit": false,
      "t": 214245.32146874905,
      "d": 1316.0701124999614,
      "v": 32
    },
    {
      "midi": 55,
      "hit": false,
      "t": 214812.28518749904,
      "d": 699.9992999999668,
      "v": 25
    },
    {
      "midi": 64,
      "hit": false,
      "t": 215359.60606874904,
      "d": 843.7491562499781,
      "v": 47
    },
    {
      "midi": 60,
      "hit": false,
      "t": 215378.356049999,
      "d": 833.9277374999947,
      "v": 37
    },
    {
      "midi": 71,
      "hit": false,
      "t": 215927.46264374902,
      "d": 333.03538124999614,
      "v": 68
    },
    {
      "midi": 41,
      "hit": false,
      "t": 216327.46224374903,
      "d": 1649.1054937500157,
      "v": 51
    },
    {
      "midi": 48,
      "hit": false,
      "t": 216401.56931249902,
      "d": 1625.8912312500179,
      "v": 31
    },
    {
      "midi": 59,
      "hit": false,
      "t": 216416.30144062403,
      "d": 756.2492437500041,
      "v": 45
    },
    {
      "midi": 63,
      "hit": false,
      "t": 216450.22997812403,
      "d": 1024.998974999995,
      "v": 49
    },
    {
      "midi": 57,
      "hit": false,
      "t": 216480.58709062403,
      "d": 816.9634687500075,
      "v": 42
    },
    {
      "midi": 67,
      "hit": false,
      "t": 216486.39065624904,
      "d": 962.0526093749795,
      "v": 61
    },
    {
      "midi": 71,
      "hit": false,
      "t": 216516.30134062405,
      "d": 432.1424249999982,
      "v": 67
    },
    {
      "midi": 71,
      "hit": false,
      "t": 217099.33647187403,
      "d": 354.9103593750042,
      "v": 64
    },
    {
      "midi": 71,
      "hit": false,
      "t": 217625.22880312402,
      "d": 216.96406875000685,
      "v": 40
    },
    {
      "midi": 59,
      "hit": false,
      "t": 217626.568087499,
      "d": 193.749806250009,
      "v": 35
    },
    {
      "midi": 63,
      "hit": false,
      "t": 217633.264509374,
      "d": 264.28545000002487,
      "v": 44
    },
    {
      "midi": 57,
      "hit": false,
      "t": 217645.318068749,
      "d": 449.10669375004363,
      "v": 35
    },
    {
      "midi": 67,
      "hit": false,
      "t": 217674.33589687402,
      "d": 189.28552500001388,
      "v": 33
    },
    {
      "midi": 73,
      "hit": false,
      "t": 218194.42466249905,
      "d": 347.7675093750004,
      "v": 42
    },
    {
      "midi": 71,
      "hit": false,
      "t": 218761.38838124904,
      "d": 441.0709874999884,
      "v": 36
    },
    {
      "midi": 47,
      "hit": false,
      "t": 218763.62052187405,
      "d": 210.71407499999623,
      "v": 34
    },
    {
      "midi": 66,
      "hit": false,
      "t": 218777.45979374906,
      "d": 372.76748437495553,
      "v": 32
    },
    {
      "midi": 62,
      "hit": false,
      "t": 218782.37050312405,
      "d": 208.92836249998072,
      "v": 27
    },
    {
      "midi": 57,
      "hit": false,
      "t": 218798.44191562405,
      "d": 254.91045937497984,
      "v": 27
    },
    {
      "midi": 57,
      "hit": false,
      "t": 219974.33359687403,
      "d": 819.1956093750196,
      "v": 36
    },
    {
      "midi": 62,
      "hit": false,
      "t": 219984.60144374904,
      "d": 996.8740031250054,
      "v": 27
    },
    {
      "midi": 65,
      "hit": false,
      "t": 219985.49429999903,
      "d": 906.6955218750227,
      "v": 25
    },
    {
      "midi": 88,
      "hit": false,
      "t": 220329.24395624903,
      "d": 444.1959843750228,
      "v": 95
    },
    {
      "midi": 81,
      "hit": false,
      "t": 220706.47572187404,
      "d": 410.71387499998673,
      "v": 57
    },
    {
      "midi": 84,
      "hit": false,
      "t": 221128.35029999903,
      "d": 1736.158978124964,
      "v": 54
    },
    {
      "midi": 67,
      "hit": false,
      "t": 221147.54670937403,
      "d": 541.0708874999837,
      "v": 24
    },
    {
      "midi": 62,
      "hit": false,
      "t": 221149.33242187402,
      "d": 560.267296874983,
      "v": 32
    },
    {
      "midi": 56,
      "hit": false,
      "t": 221159.60026874903,
      "d": 618.7493812499742,
      "v": 25
    },
    {
      "midi": 56,
      "hit": false,
      "t": 222328.349099999,
      "d": 596.8744031249953,
      "v": 31
    },
    {
      "midi": 62,
      "hit": false,
      "t": 222359.599068749,
      "d": 476.7852375000075,
      "v": 20
    },
    {
      "midi": 52,
      "hit": false,
      "t": 222370.313343749,
      "d": 574.106568749994,
      "v": 20
    },
    {
      "midi": 83,
      "hit": false,
      "t": 222812.277187499,
      "d": 712.0528593749623,
      "v": 49
    },
    {
      "midi": 45,
      "hit": false,
      "t": 223515.401484374,
      "d": 141.96414374999586,
      "v": 36
    },
    {
      "midi": 85,
      "hit": false,
      "t": 223528.34789999897,
      "d": 1087.0524843750172,
      "v": 48
    },
    {
      "midi": 61,
      "hit": false,
      "t": 224076.561637499,
      "d": 354.9103593750042,
      "v": 34
    },
    {
      "midi": 64,
      "hit": false,
      "t": 224091.293765624,
      "d": 285.2675718750106,
      "v": 33
    },
    {
      "midi": 59,
      "hit": false,
      "t": 224120.311593749,
      "d": 273.214012499986,
      "v": 22
    },
    {
      "midi": 61,
      "hit": false,
      "t": 224602.453968749,
      "d": 400.8924562499742,
      "v": 39
    },
    {
      "midi": 64,
      "hit": false,
      "t": 224617.18609687398,
      "d": 342.41037187501206,
      "v": 42
    },
    {
      "midi": 59,
      "hit": false,
      "t": 224628.34679999898,
      "d": 308.0354062500119,
      "v": 44
    },
    {
      "midi": 61,
      "hit": false,
      "t": 225124.328446874,
      "d": 685.2671718749916,
      "v": 45
    },
    {
      "midi": 64,
      "hit": false,
      "t": 225135.489149999,
      "d": 308.928262499976,
      "v": 60
    },
    {
      "midi": 59,
      "hit": false,
      "t": 225144.41771249898,
      "d": 305.80326562499977,
      "v": 59
    },
    {
      "midi": 64,
      "hit": false,
      "t": 225656.47077187398,
      "d": 88.83919687499292,
      "v": 66
    },
    {
      "midi": 59,
      "hit": false,
      "t": 225664.50647812398,
      "d": 145.98199687499437,
      "v": 61
    },
    {
      "midi": 57,
      "hit": false,
      "t": 226228.34519999896,
      "d": 548.2137374999875,
      "v": 74
    },
    {
      "midi": 67,
      "hit": false,
      "t": 226237.27376249895,
      "d": 490.17808124999283,
      "v": 74
    },
    {
      "midi": 71,
      "hit": false,
      "t": 226243.52375624896,
      "d": 479.0173781249905,
      "v": 70
    },
    {
      "midi": 62,
      "hit": false,
      "t": 226247.54160937396,
      "d": 414.73172812498524,
      "v": 74
    },
    {
      "midi": 69,
      "hit": false,
      "t": 226757.36252812395,
      "d": 258.03545624998515,
      "v": 57
    },
    {
      "midi": 55,
      "hit": false,
      "t": 226778.34464999894,
      "d": 525.8923312500119,
      "v": 42
    },
    {
      "midi": 65,
      "hit": false,
      "t": 226785.48749999894,
      "d": 270.0890156250098,
      "v": 59
    },
    {
      "midi": 60,
      "hit": false,
      "t": 226786.38035624893,
      "d": 320.0889656250074,
      "v": 57
    },
    {
      "midi": 64,
      "hit": false,
      "t": 227289.50485312394,
      "d": 387.0531843750214,
      "v": 49
    },
    {
      "midi": 68,
      "hit": false,
      "t": 227291.29056562393,
      "d": 431.2495687500341,
      "v": 46
    },
    {
      "midi": 54,
      "hit": false,
      "t": 227293.52270624894,
      "d": 209.82121875000303,
      "v": 51
    },
    {
      "midi": 59,
      "hit": false,
      "t": 227312.27268749895,
      "d": 281.2497187500121,
      "v": 37
    },
    {
      "midi": 67,
      "hit": false,
      "t": 227824.32574687398,
      "d": 1754.908959374996,
      "v": 51
    },
    {
      "midi": 46,
      "hit": false,
      "t": 227826.557887499,
      "d": 1300.8915562499897,
      "v": 36
    },
    {
      "midi": 64,
      "hit": false,
      "t": 227827.45074374898,
      "d": 799.9991999999911,
      "v": 39
    },
    {
      "midi": 60,
      "hit": false,
      "t": 227829.23645624897,
      "d": 895.981246875017,
      "v": 32
    },
    {
      "midi": 56,
      "hit": false,
      "t": 227835.48644999898,
      "d": 1589.7305531250022,
      "v": 33
    },
    {
      "midi": 53,
      "hit": false,
      "t": 228370.30734374898,
      "d": 906.249093749997,
      "v": 36
    },
    {
      "midi": 64,
      "hit": false,
      "t": 228877.449693749,
      "d": 682.1421749999863,
      "v": 40
    },
    {
      "midi": 60,
      "hit": false,
      "t": 228901.55681249898,
      "d": 764.7313781249977,
      "v": 25
    },
    {
      "midi": 53,
      "hit": false,
      "t": 229331.46709687397,
      "d": 501.78521250002086,
      "v": 32
    },
    {
      "midi": 46,
      "hit": false,
      "t": 229665.39533437398,
      "d": 327.2318156249821,
      "v": 34
    },
    {
      "midi": 63,
      "hit": false,
      "t": 229983.25215937398,
      "d": 840.1777312499471,
      "v": 44
    },
    {
      "midi": 61,
      "hit": false,
      "t": 229984.59144374897,
      "d": 822.7670343749633,
      "v": 39
    },
    {
      "midi": 55,
      "hit": false,
      "t": 229994.41286249895,
      "d": 654.9100593749899,
      "v": 29
    },
    {
      "midi": 45,
      "hit": false,
      "t": 230042.62709999894,
      "d": 1535.7127499999478,
      "v": 34
    },
    {
      "midi": 64,
      "hit": false,
      "t": 231143.51885624893,
      "d": 329.0175281249685,
      "v": 40
    },
    {
      "midi": 61,
      "hit": false,
      "t": 231152.44741874892,
      "d": 263.83902187497006,
      "v": 29
    },
    {
      "midi": 52,
      "hit": false,
      "t": 231154.2331312489,
      "d": 361.1603531249857,
      "v": 25
    },
    {
      "midi": 55,
      "hit": false,
      "t": 231169.4116874989,
      "d": 242.8568999999843,
      "v": 22
    },
    {
      "midi": 67,
      "hit": false,
      "t": 231958.25018437387,
      "d": 128.12487187501392,
      "v": 44
    },
    {
      "midi": 66,
      "hit": false,
      "t": 232294.4105624989,
      "d": 220.08906562498305,
      "v": 36
    },
    {
      "midi": 38,
      "hit": false,
      "t": 232302.4462687489,
      "d": 308.03540624998277,
      "v": 24
    },
    {
      "midi": 26,
      "hit": false,
      "t": 232303.3391249989,
      "d": 204.017653124989,
      "v": 24
    },
    {
      "midi": 57,
      "hit": false,
      "t": 232304.2319812489,
      "d": 149.99984999999288,
      "v": 34
    },
    {
      "midi": 61,
      "hit": false,
      "t": 232305.57126562388,
      "d": 188.83909687501728,
      "v": 30
    },
    {
      "midi": 61,
      "hit": false,
      "t": 233498.42721562387,
      "d": 619.1958093749126,
      "v": 20
    },
    {
      "midi": 64,
      "hit": false,
      "t": 233511.37363124886,
      "d": 552.2315906249569,
      "v": 26
    },
    {
      "midi": 54,
      "hit": false,
      "t": 233512.26648749885,
      "d": 541.9637437499769,
      "v": 25
    },
    {
      "midi": 66,
      "hit": false,
      "t": 233513.60577187384,
      "d": 570.9815718749596,
      "v": 31
    },
    {
      "midi": 73,
      "hit": false,
      "t": 233515.39148437383,
      "d": 571.8744281249528,
      "v": 29
    },
    {
      "midi": 59,
      "hit": false,
      "t": 233536.37360624882,
      "d": 549.9994499999739,
      "v": 32
    },
    {
      "midi": 69,
      "hit": false,
      "t": 233554.23073124883,
      "d": 504.01735312500386,
      "v": 26
    },
    {
      "midi": 79,
      "hit": false,
      "t": 234398.42631562377,
      "d": 150.89270624998608,
      "v": 56
    },
    {
      "midi": 78,
      "hit": false,
      "t": 234720.30099374877,
      "d": 272.3211562499928,
      "v": 32
    },
    {
      "midi": 49,
      "hit": false,
      "t": 234731.46169687377,
      "d": 1424.1057187500119,
      "v": 23
    },
    {
      "midi": 56,
      "hit": false,
      "t": 235270.30044374877,
      "d": 1308.9272625000158,
      "v": 39
    },
    {
      "midi": 66,
      "hit": false,
      "t": 235815.38918437378,
      "d": 875.8919812499953,
      "v": 27
    },
    {
      "midi": 59,
      "hit": false,
      "t": 235818.5141812488,
      "d": 704.9100093749876,
      "v": 35
    },
    {
      "midi": 64,
      "hit": false,
      "t": 235820.29989374877,
      "d": 695.0885906250041,
      "v": 50
    },
    {
      "midi": 49,
      "hit": false,
      "t": 236353.3350749988,
      "d": 311.1604031249881,
      "v": 53
    },
    {
      "midi": 48,
      "hit": false,
      "t": 236919.40593749878,
      "d": 1007.1418499999854,
      "v": 62
    },
    {
      "midi": 66,
      "hit": false,
      "t": 236935.47734999878,
      "d": 482.1423749999958,
      "v": 70
    },
    {
      "midi": 58,
      "hit": false,
      "t": 236943.51305624878,
      "d": 1683.0340312499902,
      "v": 70
    },
    {
      "midi": 63,
      "hit": false,
      "t": 236944.40591249877,
      "d": 1496.8735031250108,
      "v": 69
    },
    {
      "midi": 66,
      "hit": false,
      "t": 237537.26246249877,
      "d": 412.05315937500563,
      "v": 74
    },
    {
      "midi": 66,
      "hit": false,
      "t": 238120.29759374878,
      "d": 223.21406249998836,
      "v": 56
    },
    {
      "midi": 66,
      "hit": false,
      "t": 238692.61844999876,
      "d": 237.9461906249926,
      "v": 42
    },
    {
      "midi": 57,
      "hit": false,
      "t": 239296.18927499876,
      "d": 748.2135375000071,
      "v": 38
    },
    {
      "midi": 51,
      "hit": false,
      "t": 239298.42141562377,
      "d": 708.9278624999861,
      "v": 30
    },
    {
      "midi": 63,
      "hit": false,
      "t": 239303.33212499876,
      "d": 965.1776062500139,
      "v": 32
    },
    {
      "midi": 65,
      "hit": false,
      "t": 239306.45712187377,
      "d": 855.8027156250027,
      "v": 39
    },
    {
      "midi": 41,
      "hit": false,
      "t": 239309.58211874877,
      "d": 1515.6234843750135,
      "v": 36
    },
    {
      "midi": 67,
      "hit": false,
      "t": 240444.40241249878,
      "d": 783.0349312500039,
      "v": 66
    },
    {
      "midi": 63,
      "hit": false,
      "t": 240463.59882187378,
      "d": 801.7849125000066,
      "v": 56
    },
    {
      "midi": 62,
      "hit": false,
      "t": 240476.54523749877,
      "d": 789.7313531250111,
      "v": 68
    },
    {
      "midi": 57,
      "hit": false,
      "t": 240517.61662499877,
      "d": 679.9100343750033,
      "v": 30
    },
    {
      "midi": 41,
      "hit": false,
      "t": 241012.2589874988,
      "d": 1212.9452156249317,
      "v": 50
    },
    {
      "midi": 69,
      "hit": false,
      "t": 241597.5262593738,
      "d": 797.7670593749208,
      "v": 71
    },
    {
      "midi": 65,
      "hit": false,
      "t": 241618.50838124877,
      "d": 772.7670843749365,
      "v": 72
    },
    {
      "midi": 62,
      "hit": false,
      "t": 241633.24050937378,
      "d": 699.1064437499444,
      "v": 66
    },
    {
      "midi": 57,
      "hit": false,
      "t": 241661.36548124877,
      "d": 546.8744531249686,
      "v": 46
    },
    {
      "midi": 53,
      "hit": false,
      "t": 242199.31137187374,
      "d": 95.08919062497444,
      "v": 48
    },
    {
      "midi": 74,
      "hit": false,
      "t": 242758.2393843737,
      "d": 410.26744687501923,
      "v": 79
    },
    {
      "midi": 81,
      "hit": false,
      "t": 242762.2572374987,
      "d": 429.017428125022,
      "v": 78
    },
    {
      "midi": 65,
      "hit": false,
      "t": 242777.4357937487,
      "d": 396.8746031250339,
      "v": 47
    },
    {
      "midi": 62,
      "hit": false,
      "t": 242807.3464781237,
      "d": 91.07133750000503,
      "v": 35
    },
    {
      "midi": 62,
      "hit": false,
      "t": 243221.18534999873,
      "d": 37.053534375008894,
      "v": 32
    },
    {
      "midi": 77,
      "hit": false,
      "t": 243223.41749062375,
      "d": 122.76773437499651,
      "v": 53
    },
    {
      "midi": 74,
      "hit": false,
      "t": 243241.27461562376,
      "d": 106.24989374997676,
      "v": 40
    },
    {
      "midi": 69,
      "hit": false,
      "t": 243250.20317812375,
      "d": 148.21413749997737,
      "v": 38
    },
    {
      "midi": 65,
      "hit": false,
      "t": 243832.34545312374,
      "d": 674.9993249999825,
      "v": 39
    },
    {
      "midi": 46,
      "hit": false,
      "t": 243838.59544687375,
      "d": 558.9280124999932,
      "v": 30
    },
    {
      "midi": 62,
      "hit": false,
      "t": 243842.61329999875,
      "d": 617.856524999981,
      "v": 33
    },
    {
      "midi": 60,
      "hit": false,
      "t": 243850.20257812375,
      "d": 478.1245218749973,
      "v": 30
    },
    {
      "midi": 57,
      "hit": false,
      "t": 243880.55969062375,
      "d": 454.01740312500624,
      "v": 18
    },
    {
      "midi": 53,
      "hit": false,
      "t": 243910.47037499875,
      "d": 316.9639687500021,
      "v": 17
    },
    {
      "midi": 70,
      "hit": false,
      "t": 245747.5221093737,
      "d": 109.82131875000778,
      "v": 48
    },
    {
      "midi": 68,
      "hit": false,
      "t": 246115.37888437373,
      "d": 654.9100593749899,
      "v": 37
    },
    {
      "midi": 40,
      "hit": false,
      "t": 246131.45029687372,
      "d": 283.0354312499985,
      "v": 35
    },
    {
      "midi": 56,
      "hit": false,
      "t": 247264.4848781237,
      "d": 1250.8916062500211,
      "v": 36
    },
    {
      "midi": 62,
      "hit": false,
      "t": 247276.5384374987,
      "d": 945.0883406250214,
      "v": 27
    },
    {
      "midi": 66,
      "hit": false,
      "t": 247634.5737937487,
      "d": 452.67811874998733,
      "v": 33
    },
    {
      "midi": 73,
      "hit": false,
      "t": 247643.5023562487,
      "d": 449.99955000000773,
      "v": 33
    },
    {
      "midi": 70,
      "hit": false,
      "t": 247670.2880437487,
      "d": 415.17815625001094,
      "v": 34
    },
    {
      "midi": 56,
      "hit": false,
      "t": 248891.26896562372,
      "d": 943.3026281250059,
      "v": 37
    },
    {
      "midi": 62,
      "hit": false,
      "t": 248906.44752187372,
      "d": 670.0886156249908,
      "v": 29
    },
    {
      "midi": 52,
      "hit": false,
      "t": 249962.2500374987,
      "d": 124.10701874998631,
      "v": 24
    },
    {
      "midi": 27,
      "hit": false,
      "t": 250536.3566062487,
      "d": 281.249718749983,
      "v": 40
    },
    {
      "midi": 61,
      "hit": false,
      "t": 250537.2494624987,
      "d": 572.3208562499785,
      "v": 32
    },
    {
      "midi": 39,
      "hit": false,
      "t": 250542.6065999987,
      "d": 331.69609687500633,
      "v": 23
    },
    {
      "midi": 67,
      "hit": false,
      "t": 250543.49945624868,
      "d": 709.8207187500084,
      "v": 41
    },
    {
      "midi": 55,
      "hit": false,
      "t": 250551.53516249868,
      "d": 350.8925062500057,
      "v": 29
    },
    {
      "midi": 61,
      "hit": false,
      "t": 251607.3376781237,
      "d": 111.16060312496847,
      "v": 32
    },
    {
      "midi": 65,
      "hit": false,
      "t": 251624.3019468737,
      "d": 66.07136249999166,
      "v": 30
    },
    {
      "midi": 69,
      "hit": false,
      "t": 251997.51585937367,
      "d": 192.85694999998668,
      "v": 94
    },
    {
      "midi": 70,
      "hit": false,
      "t": 252343.49765624866,
      "d": 324.9996749999991,
      "v": 77
    },
    {
      "midi": 47,
      "hit": false,
      "t": 252713.58657187366,
      "d": 354.9103593750042,
      "v": 35
    },
    {
      "midi": 40,
      "hit": false,
      "t": 252722.51513437365,
      "d": 296.87470312500955,
      "v": 33
    },
    {
      "midi": 69,
      "hit": false,
      "t": 252729.21155624866,
      "d": 657.142200000002,
      "v": 47
    },
    {
      "midi": 55,
      "hit": false,
      "t": 252751.53296249866,
      "d": 388.8388968750078,
      "v": 31
    },
    {
      "midi": 61,
      "hit": false,
      "t": 253881.44254687367,
      "d": 821.8741781249992,
      "v": 31
    },
    {
      "midi": 45,
      "hit": false,
      "t": 253901.53181249867,
      "d": 395.9817468750116,
      "v": 34
    },
    {
      "midi": 55,
      "hit": false,
      "t": 253918.49608124865,
      "d": 504.91020937502617,
      "v": 20
    },
    {
      "midi": 67,
      "hit": false,
      "t": 254817.60232499868,
      "d": 181.69624687501346,
      "v": 39
    },
    {
      "midi": 61,
      "hit": false,
      "t": 255083.2270593737,
      "d": 287.053284374997,
      "v": 42
    },
    {
      "midi": 66,
      "hit": false,
      "t": 255115.36988437368,
      "d": 425.89243124998757,
      "v": 42
    },
    {
      "midi": 57,
      "hit": false,
      "t": 255125.1913031237,
      "d": 293.30327812497853,
      "v": 28
    },
    {
      "midi": 50,
      "hit": false,
      "t": 255135.4591499987,
      "d": 247.76760937497602,
      "v": 22
    },
    {
      "midi": 83,
      "hit": false,
      "t": 255999.29757187367,
      "d": 114.28559999997378,
      "v": 55
    },
    {
      "midi": 76,
      "hit": false,
      "t": 256104.20818124866,
      "d": 109.37489062498207,
      "v": 41
    },
    {
      "midi": 78,
      "hit": false,
      "t": 256259.56516874864,
      "d": 560.7137250000378,
      "v": 59
    },
    {
      "midi": 61,
      "hit": false,
      "t": 256299.29727187363,
      "d": 749.1063937500585,
      "v": 25
    },
    {
      "midi": 64,
      "hit": false,
      "t": 256313.58297187363,
      "d": 616.963668750046,
      "v": 33
    },
    {
      "midi": 54,
      "hit": false,
      "t": 256335.45794999864,
      "d": 1139.7310031250527,
      "v": 28
    },
    {
      "midi": 59,
      "hit": false,
      "t": 256345.27936874866,
      "d": 712.0528593750205,
      "v": 33
    },
    {
      "midi": 71,
      "hit": false,
      "t": 256767.60037499867,
      "d": 147.76770937500987,
      "v": 34
    },
    {
      "midi": 71,
      "hit": false,
      "t": 257367.59977499867,
      "d": 136.60700625003665,
      "v": 60
    },
    {
      "midi": 61,
      "hit": false,
      "t": 257381.43904687368,
      "d": 45.089240625005914,
      "v": 25
    },
    {
      "midi": 64,
      "hit": false,
      "t": 257523.4031906237,
      "d": 120.9820218750101,
      "v": 28
    },
    {
      "midi": 66,
      "hit": false,
      "t": 257660.4566249987,
      "d": 1404.0164531249902,
      "v": 43
    },
    {
      "midi": 62,
      "hit": false,
      "t": 257879.2064062487,
      "d": 559.3744406249898,
      "v": 32
    },
    {
      "midi": 64,
      "hit": false,
      "t": 258481.4379468737,
      "d": 332.14252500003204,
      "v": 43
    },
    {
      "midi": 57,
      "hit": false,
      "t": 258503.3129249987,
      "d": 562.0530093749985,
      "v": 31
    },
    {
      "midi": 50,
      "hit": false,
      "t": 258513.5807718737,
      "d": 651.7850624999846,
      "v": 16
    },
    {
      "midi": 59,
      "hit": false,
      "t": 258834.5625937487,
      "d": 362.0532093749789,
      "v": 40
    },
    {
      "midi": 61,
      "hit": false,
      "t": 259181.43724687368,
      "d": 362.053209375008,
      "v": 46
    },
    {
      "midi": 38,
      "hit": false,
      "t": 259619.3832374987,
      "d": 720.9814218749816,
      "v": 33
    },
    {
      "midi": 57,
      "hit": false,
      "t": 259620.2760937487,
      "d": 447.320981249999,
      "v": 37
    },
    {
      "midi": 60,
      "hit": false,
      "t": 259626.5260874987,
      "d": 995.9811468749831,
      "v": 35
    },
    {
      "midi": 50,
      "hit": false,
      "t": 259639.4725031237,
      "d": 433.0352812499914,
      "v": 24
    },
    {
      "midi": 56,
      "hit": false,
      "t": 260202.41836874868,
      "d": 392.8567500000063,
      "v": 56
    },
    {
      "midi": 56,
      "hit": false,
      "t": 260796.6142031237,
      "d": 809.8206187500036,
      "v": 51
    },
    {
      "midi": 60,
      "hit": false,
      "t": 260805.5427656237,
      "d": 784.8206437500194,
      "v": 51
    },
    {
      "midi": 50,
      "hit": false,
      "t": 261344.3815124987,
      "d": 117.8570250000048,
      "v": 58
    },
    {
      "midi": 55,
      "hit": false,
      "t": 261945.2737687487,
      "d": 874.9991249999439,
      "v": 67
    },
    {
      "midi": 60,
      "hit": false,
      "t": 261946.6130531237,
      "d": 922.7669343749294,
      "v": 70
    },
    {
      "midi": 56,
      "hit": false,
      "t": 261954.2023312487,
      "d": 889.2848249999515,
      "v": 71
    },
    {
      "midi": 43,
      "hit": false,
      "t": 261961.3451812487,
      "d": 642.8564999999653,
      "v": 51
    },
    {
      "midi": 31,
      "hit": false,
      "t": 261964.4701781237,
      "d": 570.9815718749596,
      "v": 58
    },
    {
      "midi": 62,
      "hit": false,
      "t": 263188.5760968736,
      "d": 741.9635437499383,
      "v": 55
    },
    {
      "midi": 67,
      "hit": false,
      "t": 263189.4689531236,
      "d": 625.892231249949,
      "v": 70
    },
    {
      "midi": 59,
      "hit": false,
      "t": 263192.5939499986,
      "d": 794.6420624999446,
      "v": 60
    },
    {
      "midi": 56,
      "hit": false,
      "t": 263193.4868062486,
      "d": 929.01692812494,
      "v": 64
    },
    {
      "midi": 55,
      "hit": false,
      "t": 263208.2189343736,
      "d": 642.4100718749687,
      "v": 47
    },
    {
      "midi": 43,
      "hit": false,
      "t": 263790.3612093736,
      "d": 186.16052812500857,
      "v": 45
    },
    {
      "midi": 63,
      "hit": false,
      "t": 264389.46775312355,
      "d": 2312.9441156249377,
      "v": 74
    },
    {
      "midi": 58,
      "hit": false,
      "t": 264398.39631562354,
      "d": 2283.0334312499617,
      "v": 77
    },
    {
      "midi": 60,
      "hit": false,
      "t": 264399.28917187353,
      "d": 2258.0334562499775,
      "v": 71
    },
    {
      "midi": 54,
      "hit": false,
      "t": 264400.62845624855,
      "d": 2248.6584656249615,
      "v": 81
    },
    {
      "midi": 53,
      "hit": false,
      "t": 264404.1998812485,
      "d": 558.03515625,
      "v": 77
    },
    {
      "midi": 53,
      "hit": false,
      "t": 265087.2349124985,
      "d": 468.3031031250139,
      "v": 73
    },
    {
      "midi": 53,
      "hit": false,
      "t": 265715.3592843735,
      "d": 370.08891562500503,
      "v": 40
    },
    {
      "midi": 53,
      "hit": false,
      "t": 266280.5372906235,
      "d": 726.7849874999374,
      "v": 32
    },
    {
      "midi": 63,
      "hit": false,
      "t": 266873.3938406235,
      "d": 1037.9453906249837,
      "v": 34
    },
    {
      "midi": 41,
      "hit": false,
      "t": 266874.2866968735,
      "d": 285.2675718749524,
      "v": 35
    },
    {
      "midi": 54,
      "hit": false,
      "t": 266880.5366906235,
      "d": 450.8924062499427,
      "v": 32
    },
    {
      "midi": 58,
      "hit": false,
      "t": 266895.2688187485,
      "d": 916.0705125000095,
      "v": 43
    },
    {
      "midi": 60,
      "hit": false,
      "t": 266917.5902249985,
      "d": 738.8385468749912,
      "v": 34
    },
    {
      "midi": 63,
      "hit": false,
      "t": 268093.4819062485,
      "d": 408.9281624999712,
      "v": 36
    },
    {
      "midi": 52,
      "hit": false,
      "t": 268120.26759374846,
      "d": 208.92836249998072,
      "v": 25
    },
    {
      "midi": 30,
      "hit": false,
      "t": 268122.4997343735,
      "d": 217.85692499997094,
      "v": 33
    },
    {
      "midi": 42,
      "hit": false,
      "t": 268130.53544062347,
      "d": 220.08906562498305,
      "v": 21
    },
    {
      "midi": 58,
      "hit": false,
      "t": 268131.42829687346,
      "d": 400.8924562499742,
      "v": 36
    },
    {
      "midi": 63,
      "hit": false,
      "t": 268722.49913437344,
      "d": 292.8568499999237,
      "v": 33
    },
    {
      "midi": 54,
      "hit": false,
      "t": 268737.2312624984,
      "d": 209.37479062494822,
      "v": 29
    },
    {
      "midi": 41,
      "hit": false,
      "t": 268753.3026749984,
      "d": 141.07128749997355,
      "v": 24
    },
    {
      "midi": 58,
      "hit": false,
      "t": 268764.4633781234,
      "d": 264.73187812493416,
      "v": 39
    },
    {
      "midi": 57,
      "hit": false,
      "t": 269375.62348124833,
      "d": 848.6598656249698,
      "v": 33
    },
    {
      "midi": 58,
      "hit": false,
      "t": 269388.5698968733,
      "d": 775.8920812499709,
      "v": 28
    },
    {
      "midi": 62,
      "hit": false,
      "t": 269392.5877499983,
      "d": 772.7670843749656,
      "v": 43
    },
    {
      "midi": 65,
      "hit": false,
      "t": 269399.2841718733,
      "d": 645.9814968749997,
      "v": 35
    },
    {
      "midi": 46,
      "hit": false,
      "t": 269421.6055781233,
      "d": 2413.8368718750426,
      "v": 26
    },
    {
      "midi": 55,
      "hit": false,
      "t": 269945.2657687483,
      "d": 668.3029031250044,
      "v": 65
    },
    {
      "midi": 67,
      "hit": false,
      "t": 270589.4615531233,
      "d": 992.8561500000069,
      "v": 56
    },
    {
      "midi": 58,
      "hit": false,
      "t": 270596.6044031233,
      "d": 1154.9095593750244,
      "v": 48
    },
    {
      "midi": 53,
      "hit": false,
      "t": 270605.5329656233,
      "d": 1229.9094843750354,
      "v": 42
    },
    {
      "midi": 62,
      "hit": false,
      "t": 270610.4436749983,
      "d": 975.8918812500197,
      "v": 49
    },
    {
      "midi": 70,
      "hit": false,
      "t": 272508.2096343733,
      "d": 438.3924187499797,
      "v": 39
    },
    {
      "midi": 63,
      "hit": false,
      "t": 272533.2096093733,
      "d": 320.9818218749715,
      "v": 40
    },
    {
      "midi": 53,
      "hit": false,
      "t": 272539.4596031233,
      "d": 324.1068187499768,
      "v": 24
    },
    {
      "midi": 67,
      "hit": false,
      "t": 272543.4774562483,
      "d": 233.03548124997178,
      "v": 37
    },
    {
      "midi": 58,
      "hit": false,
      "t": 272555.5310156233,
      "d": 284.8211437499849,
      "v": 25
    },
    {
      "midi": 70,
      "hit": false,
      "t": 273120.2625937483,
      "d": 1381.2486187500763,
      "v": 42
    },
    {
      "midi": 63,
      "hit": false,
      "t": 273138.5661468733,
      "d": 940.6240593750845,
      "v": 43
    },
    {
      "midi": 67,
      "hit": false,
      "t": 273144.3697124983,
      "d": 1391.0700375000597,
      "v": 43
    },
    {
      "midi": 58,
      "hit": false,
      "t": 273146.6018531233,
      "d": 717.8564250000636,
      "v": 28
    },
    {
      "midi": 53,
      "hit": false,
      "t": 273162.2268374983,
      "d": 259.37474062503316,
      "v": 19
    },
    {
      "midi": 53,
      "hit": false,
      "t": 273749.27982187335,
      "d": 708.9278625000152,
      "v": 31
    },
    {
      "midi": 70,
      "hit": false,
      "t": 274903.2965249983,
      "d": 1691.0697374999872,
      "v": 33
    },
    {
      "midi": 53,
      "hit": false,
      "t": 274904.1893812483,
      "d": 303.12469687499106,
      "v": 27
    },
    {
      "midi": 62,
      "hit": false,
      "t": 274927.4036437483,
      "d": 1571.8734281249926,
      "v": 26
    },
    {
      "midi": 65,
      "hit": false,
      "t": 274941.2429156233,
      "d": 1574.998424999998,
      "v": 32
    },
    {
      "midi": 53,
      "hit": false,
      "t": 275495.2602187483,
      "d": 264.28545000002487,
      "v": 26
    },
    {
      "midi": 53,
      "hit": false,
      "t": 276068.4739312483,
      "d": 230.80334062501788,
      "v": 27
    },
    {
      "midi": 70,
      "hit": false,
      "t": 277198.38351562334,
      "d": 2213.8370718748774,
      "v": 26
    },
    {
      "midi": 67,
      "hit": false,
      "t": 277226.50848749833,
      "d": 1960.712324999913,
      "v": 33
    },
    {
      "midi": 63,
      "hit": false,
      "t": 277227.4013437483,
      "d": 1940.1766312498949,
      "v": 32
    },
    {
      "midi": 53,
      "hit": false,
      "t": 277231.4191968733,
      "d": 216.96406874991953,
      "v": 26
    },
    {
      "midi": 58,
      "hit": false,
      "t": 277239.4549031233,
      "d": 1837.0517343748943,
      "v": 29
    },
    {
      "midi": 53,
      "hit": false,
      "t": 277872.4899843732,
      "d": 216.96406874997774,
      "v": 28
    },
    {
      "midi": 53,
      "hit": false,
      "t": 278514.4536281232,
      "d": 324.1068187499768,
      "v": 18
    },
    {
      "midi": 70,
      "hit": false,
      "t": 279669.36318749824,
      "d": 1885.2659718749928,
      "v": 30
    },
    {
      "midi": 62,
      "hit": false,
      "t": 279681.41674687323,
      "d": 1820.0874656250235,
      "v": 30
    },
    {
      "midi": 53,
      "hit": false,
      "t": 279694.3631624982,
      "d": 270.0890156250098,
      "v": 28
    },
    {
      "midi": 65,
      "hit": false,
      "t": 279710.4345749982,
      "d": 1849.9981499999994,
      "v": 33
    },
    {
      "midi": 53,
      "hit": false,
      "t": 280294.36256249825,
      "d": 215.17835624999134,
      "v": 24
    },
    {
      "midi": 53,
      "hit": false,
      "t": 280965.34403437324,
      "d": 266.07116250001127,
      "v": 26
    },
    {
      "midi": 70,
      "hit": false,
      "t": 282187.2178124982,
      "d": 2308.033406249888,
      "v": 26
    },
    {
      "midi": 63,
      "hit": false,
      "t": 282215.3427843732,
      "d": 1857.140999999945,
      "v": 33
    },
    {
      "midi": 58,
      "hit": false,
      "t": 282225.6106312482,
      "d": 1750.8911062499392,
      "v": 25
    },
    {
      "midi": 53,
      "hit": false,
      "t": 282227.3963437482,
      "d": 215.17835624999134,
      "v": 24
    },
    {
      "midi": 67,
      "hit": false,
      "t": 282231.4141968732,
      "d": 1874.1052687499323,
      "v": 20
    },
    {
      "midi": 53,
      "hit": false,
      "t": 282907.3063781232,
      "d": 227.23191562498687,
      "v": 24
    },
    {
      "midi": 53,
      "hit": false,
      "t": 283689.44845312316,
      "d": 140.17843124998035,
      "v": 19
    },
    {
      "midi": 70,
      "hit": false,
      "t": 285011.32213124813,
      "d": 670.0886156249326,
      "v": 30
    },
    {
      "midi": 22,
      "hit": false,
      "t": 285027.3935437481,
      "d": 699.1064437499153,
      "v": 30
    },
    {
      "midi": 62,
      "hit": false,
      "t": 285032.3042531231,
      "d": 620.9815218749573,
      "v": 24
    },
    {
      "midi": 34,
      "hit": false,
      "t": 285041.2328156231,
      "d": 691.0707374999183,
      "v": 25
    }
  ]
}