{
  "jsonPath": "Soundtracks/Soundtrack/Steps/only-in-my-dreams.json",
  "path": "Soundtracks\\Soundtrack\\Steps\\Only In My Dreams.mid",
  "name": "Only In My Dreams",
  "difficulty": "Advanced",
  "bpm": 134.00005806669182,
  "notes": [
    {
      "midi": 63,
      "hit": false,
      "t": 17910.440000000002,
      "d": 58.30221354166497,
      "v": 109
    },
    {
      "midi": 58,
      "hit": false,
      "t": 17910.440000000002,
      "d": 1570.6616328124983,
      "v": 114
    },
    {
      "midi": 55,
      "hit": false,
      "t": 17910.440000000002,
      "d": 1571.8276770833327,
      "v": 91
    },
    {
      "midi": 39,
      "hit": false,
      "t": 17910.440000000002,
      "d": 1609.1410937500004,
      "v": 109
    },
    {
      "midi": 51,
      "hit": false,
      "t": 17910.440000000002,
      "d": 1609.1410937500004,
      "v": 109
    },
    {
      "midi": 58,
      "hit": false,
      "t": 19701.484000000004,
      "d": 1471.547869791666,
      "v": 104
    },
    {
      "midi": 62,
      "hit": false,
      "t": 19701.484000000004,
      "d": 1471.547869791666,
      "v": 113
    },
    {
      "midi": 65,
      "hit": false,
      "t": 19701.484000000004,
      "d": 1489.0385338541673,
      "v": 103
    },
    {
      "midi": 46,
      "hit": false,
      "t": 19701.484000000004,
      "d": 1568.3295442708331,
      "v": 91
    },
    {
      "midi": 53,
      "hit": false,
      "t": 19701.484000000004,
      "d": 1568.3295442708331,
      "v": 91
    },
    {
      "midi": 63,
      "hit": false,
      "t": 21492.528000000002,
      "d": 58.30221354166497,
      "v": 117
    },
    {
      "midi": 67,
      "hit": false,
      "t": 21492.528000000002,
      "d": 1550.8388802083318,
      "v": 107
    },
    {
      "midi": 48,
      "hit": false,
      "t": 21492.528000000002,
      "d": 1567.1634999999987,
      "v": 64
    },
    {
      "midi": 60,
      "hit": false,
      "t": 21492.528000000002,
      "d": 1568.3295442708331,
      "v": 110
    },
    {
      "midi": 51,
      "hit": false,
      "t": 21492.528000000002,
      "d": 1569.4955885416675,
      "v": 67
    },
    {
      "midi": 55,
      "hit": false,
      "t": 21492.528000000002,
      "d": 1585.8202083333344,
      "v": 80
    },
    {
      "midi": 60,
      "hit": false,
      "t": 23283.572000000004,
      "d": 1710.5869453125015,
      "v": 82
    },
    {
      "midi": 68,
      "hit": false,
      "t": 23283.572000000004,
      "d": 1710.5869453125015,
      "v": 104
    },
    {
      "midi": 63,
      "hit": false,
      "t": 23283.572000000004,
      "d": 1730.409697916668,
      "v": 104
    },
    {
      "midi": 56,
      "hit": false,
      "t": 23283.572000000004,
      "d": 1750.2324505208344,
      "v": 79
    },
    {
      "midi": 51,
      "hit": false,
      "t": 23283.572000000004,
      "d": 1752.5645390624995,
      "v": 90
    },
    {
      "midi": 63,
      "hit": false,
      "t": 25074.616,
      "d": 58.30221354166497,
      "v": 109
    },
    {
      "midi": 58,
      "hit": false,
      "t": 25074.616,
      "d": 1570.6616328124983,
      "v": 114
    },
    {
      "midi": 55,
      "hit": false,
      "t": 25074.616,
      "d": 1571.8276770833327,
      "v": 91
    },
    {
      "midi": 39,
      "hit": false,
      "t": 25074.616,
      "d": 1609.1410937500004,
      "v": 109
    },
    {
      "midi": 51,
      "hit": false,
      "t": 25074.616,
      "d": 1609.1410937500004,
      "v": 109
    },
    {
      "midi": 58,
      "hit": false,
      "t": 26865.660000000003,
      "d": 1471.547869791666,
      "v": 104
    },
    {
      "midi": 62,
      "hit": false,
      "t": 26865.660000000003,
      "d": 1471.547869791666,
      "v": 113
    },
    {
      "midi": 65,
      "hit": false,
      "t": 26865.660000000003,
      "d": 1489.0385338541673,
      "v": 103
    },
    {
      "midi": 46,
      "hit": false,
      "t": 26865.660000000003,
      "d": 1568.3295442708331,
      "v": 91
    },
    {
      "midi": 53,
      "hit": false,
      "t": 26865.660000000003,
      "d": 1568.3295442708331,
      "v": 91
    },
    {
      "midi": 63,
      "hit": false,
      "t": 28656.704,
      "d": 58.30221354166497,
      "v": 117
    },
    {
      "midi": 67,
      "hit": false,
      "t": 28656.704,
      "d": 1550.8388802083318,
      "v": 107
    },
    {
      "midi": 48,
      "hit": false,
      "t": 28656.704,
      "d": 1567.1634999999987,
      "v": 64
    },
    {
      "midi": 60,
      "hit": false,
      "t": 28656.704,
      "d": 1568.3295442708331,
      "v": 110
    },
    {
      "midi": 51,
      "hit": false,
      "t": 28656.704,
      "d": 1569.4955885416675,
      "v": 67
    },
    {
      "midi": 55,
      "hit": false,
      "t": 28656.704,
      "d": 1585.8202083333344,
      "v": 80
    },
    {
      "midi": 60,
      "hit": false,
      "t": 30447.748000000003,
      "d": 1710.5869453125015,
      "v": 82
    },
    {
      "midi": 68,
      "hit": false,
      "t": 30447.748000000003,
      "d": 1710.5869453125015,
      "v": 104
    },
    {
      "midi": 63,
      "hit": false,
      "t": 30447.748000000003,
      "d": 1730.409697916668,
      "v": 104
    },
    {
      "midi": 56,
      "hit": false,
      "t": 30447.748000000003,
      "d": 1750.2324505208344,
      "v": 79
    },
    {
      "midi": 51,
      "hit": false,
      "t": 30447.748000000003,
      "d": 1752.5645390624995,
      "v": 90
    },
    {
      "midi": 63,
      "hit": false,
      "t": 32238.792,
      "d": 58.30221354166497,
      "v": 109
    },
    {
      "midi": 58,
      "hit": false,
      "t": 32238.792,
      "d": 1570.661632812502,
      "v": 114
    },
    {
      "midi": 55,
      "hit": false,
      "t": 32238.792,
      "d": 1571.8276770833327,
      "v": 91
    },
    {
      "midi": 39,
      "hit": false,
      "t": 32238.792,
      "d": 1609.1410937499968,
      "v": 109
    },
    {
      "midi": 51,
      "hit": false,
      "t": 32238.792,
      "d": 1609.1410937499968,
      "v": 109
    },
    {
      "midi": 58,
      "hit": false,
      "t": 34029.835999999996,
      "d": 1471.5478697916697,
      "v": 104
    },
    {
      "midi": 62,
      "hit": false,
      "t": 34029.835999999996,
      "d": 1471.5478697916697,
      "v": 113
    },
    {
      "midi": 65,
      "hit": false,
      "t": 34029.835999999996,
      "d": 1489.0385338541673,
      "v": 103
    },
    {
      "midi": 46,
      "hit": false,
      "t": 34029.835999999996,
      "d": 1568.3295442708331,
      "v": 91
    },
    {
      "midi": 53,
      "hit": false,
      "t": 34029.835999999996,
      "d": 1568.3295442708331,
      "v": 91
    },
    {
      "midi": 67,
      "hit": false,
      "t": 35820.88,
      "d": 1550.8388802083355,
      "v": 107
    },
    {
      "midi": 63,
      "hit": false,
      "t": 35820.88,
      "d": 1565.9974557291716,
      "v": 117
    },
    {
      "midi": 48,
      "hit": false,
      "t": 35820.88,
      "d": 1567.1635000000024,
      "v": 64
    },
    {
      "midi": 60,
      "hit": false,
      "t": 35820.88,
      "d": 1568.3295442708331,
      "v": 110
    },
    {
      "midi": 51,
      "hit": false,
      "t": 35820.88,
      "d": 1569.495588541664,
      "v": 67
    },
    {
      "midi": 55,
      "hit": false,
      "t": 35820.88,
      "d": 1585.8202083333308,
      "v": 80
    },
    {
      "midi": 60,
      "hit": false,
      "t": 37611.92399999999,
      "d": 1710.5869453124978,
      "v": 82
    },
    {
      "midi": 68,
      "hit": false,
      "t": 37611.92399999999,
      "d": 1710.5869453124978,
      "v": 104
    },
    {
      "midi": 63,
      "hit": false,
      "t": 37611.92399999999,
      "d": 1730.4096979166643,
      "v": 104
    },
    {
      "midi": 56,
      "hit": false,
      "t": 37611.92399999999,
      "d": 1750.2324505208308,
      "v": 79
    },
    {
      "midi": 51,
      "hit": false,
      "t": 37611.92399999999,
      "d": 1752.5645390624995,
      "v": 90
    },
    {
      "midi": 58,
      "hit": false,
      "t": 39402.96799999999,
      "d": 1570.661632812502,
      "v": 114
    },
    {
      "midi": 63,
      "hit": false,
      "t": 39402.96799999999,
      "d": 1570.661632812502,
      "v": 109
    },
    {
      "midi": 55,
      "hit": false,
      "t": 39402.96799999999,
      "d": 1571.8276770833327,
      "v": 91
    },
    {
      "midi": 39,
      "hit": false,
      "t": 39402.96799999999,
      "d": 1609.1410937499968,
      "v": 109
    },
    {
      "midi": 51,
      "hit": false,
      "t": 39402.96799999999,
      "d": 1609.1410937499968,
      "v": 109
    },
    {
      "midi": 58,
      "hit": false,
      "t": 41194.01199999999,
      "d": 1471.5478697916697,
      "v": 104
    },
    {
      "midi": 62,
      "hit": false,
      "t": 41194.01199999999,
      "d": 1471.5478697916697,
      "v": 113
    },
    {
      "midi": 65,
      "hit": false,
      "t": 41194.01199999999,
      "d": 1489.0385338541673,
      "v": 103
    },
    {
      "midi": 46,
      "hit": false,
      "t": 41194.01199999999,
      "d": 1568.3295442708331,
      "v": 91
    },
    {
      "midi": 53,
      "hit": false,
      "t": 41194.01199999999,
      "d": 1568.3295442708331,
      "v": 91
    },
    {
      "midi": 67,
      "hit": false,
      "t": 42985.05599999999,
      "d": 1550.8388802083355,
      "v": 107
    },
    {
      "midi": 63,
      "hit": false,
      "t": 42985.05599999999,
      "d": 1565.9974557291716,
      "v": 117
    },
    {
      "midi": 48,
      "hit": false,
      "t": 42985.05599999999,
      "d": 1567.1635000000024,
      "v": 64
    },
    {
      "midi": 60,
      "hit": false,
      "t": 42985.05599999999,
      "d": 1568.3295442708331,
      "v": 110
    },
    {
      "midi": 51,
      "hit": false,
      "t": 42985.05599999999,
      "d": 1569.495588541664,
      "v": 67
    },
    {
      "midi": 55,
      "hit": false,
      "t": 42985.05599999999,
      "d": 1585.8202083333308,
      "v": 80
    },
    {
      "midi": 60,
      "hit": false,
      "t": 44776.099999999984,
      "d": 1710.5869453124978,
      "v": 82
    },
    {
      "midi": 68,
      "hit": false,
      "t": 44776.099999999984,
      "d": 1710.5869453124978,
      "v": 104
    },
    {
      "midi": 63,
      "hit": false,
      "t": 44776.099999999984,
      "d": 1730.4096979166643,
      "v": 104
    },
    {
      "midi": 56,
      "hit": false,
      "t": 44776.099999999984,
      "d": 1750.2324505208308,
      "v": 79
    },
    {
      "midi": 51,
      "hit": false,
      "t": 44776.099999999984,
      "d": 1752.5645390624995,
      "v": 90
    },
    {
      "midi": 63,
      "hit": false,
      "t": 46567.143999999986,
      "d": 58.30221354166861,
      "v": 109
    },
    {
      "midi": 58,
      "hit": false,
      "t": 46567.143999999986,
      "d": 1570.661632812502,
      "v": 114
    },
    {
      "midi": 55,
      "hit": false,
      "t": 46567.143999999986,
      "d": 1571.8276770833327,
      "v": 91
    },
    {
      "midi": 39,
      "hit": false,
      "t": 46567.143999999986,
      "d": 1609.1410937499968,
      "v": 109
    },
    {
      "midi": 51,
      "hit": false,
      "t": 46567.143999999986,
      "d": 1609.1410937499968,
      "v": 109
    },
    {
      "midi": 58,
      "hit": false,
      "t": 48358.18799999998,
      "d": 1471.5478697916697,
      "v": 104
    },
    {
      "midi": 62,
      "hit": false,
      "t": 48358.18799999998,
      "d": 1471.5478697916697,
      "v": 113
    },
    {
      "midi": 65,
      "hit": false,
      "t": 48358.18799999998,
      "d": 1489.0385338541673,
      "v": 103
    },
    {
      "midi": 46,
      "hit": false,
      "t": 48358.18799999998,
      "d": 1568.3295442708331,
      "v": 91
    },
    {
      "midi": 53,
      "hit": false,
      "t": 48358.18799999998,
      "d": 1568.3295442708331,
      "v": 91
    },
    {
      "midi": 67,
      "hit": false,
      "t": 50149.23199999998,
      "d": 1550.8388802083355,
      "v": 107
    },
    {
      "midi": 63,
      "hit": false,
      "t": 50149.23199999998,
      "d": 1565.9974557291716,
      "v": 117
    },
    {
      "midi": 48,
      "hit": false,
      "t": 50149.23199999998,
      "d": 1567.1635000000024,
      "v": 64
    },
    {
      "midi": 60,
      "hit": false,
      "t": 50149.23199999998,
      "d": 1568.3295442708331,
      "v": 110
    },
    {
      "midi": 51,
      "hit": false,
      "t": 50149.23199999998,
      "d": 1569.495588541664,
      "v": 67
    },
    {
      "midi": 55,
      "hit": false,
      "t": 50149.23199999998,
      "d": 1585.8202083333308,
      "v": 80
    },
    {
      "midi": 60,
      "hit": false,
      "t": 51940.275999999976,
      "d": 1710.5869453124978,
      "v": 82
    },
    {
      "midi": 68,
      "hit": false,
      "t": 51940.275999999976,
      "d": 1710.5869453124978,
      "v": 104
    },
    {
      "midi": 63,
      "hit": false,
      "t": 51940.275999999976,
      "d": 1730.4096979166643,
      "v": 104
    },
    {
      "midi": 56,
      "hit": false,
      "t": 51940.275999999976,
      "d": 1750.2324505208308,
      "v": 79
    },
    {
      "midi": 51,
      "hit": false,
      "t": 51940.275999999976,
      "d": 1752.5645390624995,
      "v": 90
    },
    {
      "midi": 58,
      "hit": false,
      "t": 53731.31999999998,
      "d": 1570.661632812502,
      "v": 114
    },
    {
      "midi": 63,
      "hit": false,
      "t": 53731.31999999998,
      "d": 1570.661632812502,
      "v": 109
    },
    {
      "midi": 55,
      "hit": false,
      "t": 53731.31999999998,
      "d": 1571.8276770833327,
      "v": 91
    },
    {
      "midi": 39,
      "hit": false,
      "t": 53731.31999999998,
      "d": 1609.1410937499968,
      "v": 109
    },
    {
      "midi": 51,
      "hit": false,
      "t": 53731.31999999998,
      "d": 1609.1410937499968,
      "v": 109
    },
    {
      "midi": 58,
      "hit": false,
      "t": 55522.36399999997,
      "d": 1471.5478697916697,
      "v": 104
    },
    {
      "midi": 62,
      "hit": false,
      "t": 55522.36399999997,
      "d": 1471.5478697916697,
      "v": 113
    },
    {
      "midi": 65,
      "hit": false,
      "t": 55522.36399999997,
      "d": 1489.0385338541673,
      "v": 103
    },
    {
      "midi": 46,
      "hit": false,
      "t": 55522.36399999997,
      "d": 1568.3295442708331,
      "v": 91
    },
    {
      "midi": 53,
      "hit": false,
      "t": 55522.36399999997,
      "d": 1568.3295442708331,
      "v": 91
    },
    {
      "midi": 67,
      "hit": false,
      "t": 57313.407999999974,
      "d": 1550.8388802083355,
      "v": 107
    },
    {
      "midi": 63,
      "hit": false,
      "t": 57313.407999999974,
      "d": 1565.9974557291716,
      "v": 117
    },
    {
      "midi": 48,
      "hit": false,
      "t": 57313.407999999974,
      "d": 1567.1635000000024,
      "v": 64
    },
    {
      "midi": 60,
      "hit": false,
      "t": 57313.407999999974,
      "d": 1568.3295442708331,
      "v": 110
    },
    {
      "midi": 51,
      "hit": false,
      "t": 57313.407999999974,
      "d": 1569.495588541664,
      "v": 67
    },
    {
      "midi": 55,
      "hit": false,
      "t": 57313.407999999974,
      "d": 1585.8202083333308,
      "v": 80
    },
    {
      "midi": 60,
      "hit": false,
      "t": 59104.45199999997,
      "d": 1710.5869453124978,
      "v": 82
    },
    {
      "midi": 68,
      "hit": false,
      "t": 59104.45199999997,
      "d": 1710.5869453124978,
      "v": 104
    },
    {
      "midi": 63,
      "hit": false,
      "t": 59104.45199999997,
      "d": 1730.4096979166643,
      "v": 104
    },
    {
      "midi": 56,
      "hit": false,
      "t": 59104.45199999997,
      "d": 1750.2324505208308,
      "v": 79
    },
    {
      "midi": 51,
      "hit": false,
      "t": 59104.45199999997,
      "d": 1752.5645390624995,
      "v": 90
    },
    {
      "midi": 63,
      "hit": false,
      "t": 60895.49599999997,
      "d": 58.30221354166861,
      "v": 109
    },
    {
      "midi": 58,
      "hit": false,
      "t": 60895.49599999997,
      "d": 1570.661632812502,
      "v": 114
    },
    {
      "midi": 55,
      "hit": false,
      "t": 60895.49599999997,
      "d": 1571.8276770833327,
      "v": 91
    },
    {
      "midi": 39,
      "hit": false,
      "t": 60895.49599999997,
      "d": 1609.1410937499968,
      "v": 109
    },
    {
      "midi": 51,
      "hit": false,
      "t": 60895.49599999997,
      "d": 1609.1410937499968,
      "v": 109
    },
    {
      "midi": 58,
      "hit": false,
      "t": 62686.539999999964,
      "d": 1471.5478697916697,
      "v": 104
    },
    {
      "midi": 62,
      "hit": false,
      "t": 62686.539999999964,
      "d": 1471.5478697916697,
      "v": 113
    },
    {
      "midi": 65,
      "hit": false,
      "t": 62686.539999999964,
      "d": 1489.0385338541673,
      "v": 103
    },
    {
      "midi": 46,
      "hit": false,
      "t": 62686.539999999964,
      "d": 1568.3295442708331,
      "v": 91
    },
    {
      "midi": 53,
      "hit": false,
      "t": 62686.539999999964,
      "d": 1568.3295442708331,
      "v": 91
    },
    {
      "midi": 67,
      "hit": false,
      "t": 64477.583999999966,
      "d": 1550.8388802083282,
      "v": 107
    },
    {
      "midi": 63,
      "hit": false,
      "t": 64477.583999999966,
      "d": 1565.9974557291644,
      "v": 117
    },
    {
      "midi": 48,
      "hit": false,
      "t": 64477.583999999966,
      "d": 1567.1635000000024,
      "v": 64
    },
    {
      "midi": 60,
      "hit": false,
      "t": 64477.583999999966,
      "d": 1568.3295442708404,
      "v": 110
    },
    {
      "midi": 51,
      "hit": false,
      "t": 64477.583999999966,
      "d": 1569.4955885416784,
      "v": 67
    },
    {
      "midi": 55,
      "hit": false,
      "t": 64477.583999999966,
      "d": 1585.820208333338,
      "v": 80
    },
    {
      "midi": 60,
      "hit": false,
      "t": 66268.62799999997,
      "d": 1710.5869453125051,
      "v": 82
    },
    {
      "midi": 68,
      "hit": false,
      "t": 66268.62799999997,
      "d": 1710.5869453125051,
      "v": 104
    },
    {
      "midi": 63,
      "hit": false,
      "t": 66268.62799999997,
      "d": 1730.4096979166789,
      "v": 104
    },
    {
      "midi": 56,
      "hit": false,
      "t": 66268.62799999997,
      "d": 1750.2324505208526,
      "v": 79
    },
    {
      "midi": 51,
      "hit": false,
      "t": 66268.62799999997,
      "d": 1752.564539062514,
      "v": 90
    },
    {
      "midi": 63,
      "hit": false,
      "t": 68059.67199999998,
      "d": 58.30221354166861,
      "v": 109
    },
    {
      "midi": 58,
      "hit": false,
      "t": 68059.67199999998,
      "d": 1570.6616328125092,
      "v": 114
    },
    {
      "midi": 55,
      "hit": false,
      "t": 68059.67199999998,
      "d": 1571.8276770833472,
      "v": 91
    },
    {
      "midi": 39,
      "hit": false,
      "t": 68059.67199999998,
      "d": 1609.1410937500186,
      "v": 109
    },
    {
      "midi": 51,
      "hit": false,
      "t": 68059.67199999998,
      "d": 1609.1410937500186,
      "v": 109
    },
    {
      "midi": 58,
      "hit": false,
      "t": 69850.716,
      "d": 1471.5478697916697,
      "v": 104
    },
    {
      "midi": 62,
      "hit": false,
      "t": 69850.716,
      "d": 1471.5478697916697,
      "v": 113
    },
    {
      "midi": 65,
      "hit": false,
      "t": 69850.716,
      "d": 1489.0385338541673,
      "v": 103
    },
    {
      "midi": 46,
      "hit": false,
      "t": 69850.716,
      "d": 1568.3295442708331,
      "v": 91
    },
    {
      "midi": 53,
      "hit": false,
      "t": 69850.716,
      "d": 1568.3295442708331,
      "v": 91
    },
    {
      "midi": 63,
      "hit": false,
      "t": 71641.76,
      "d": 58.30221354166861,
      "v": 117
    },
    {
      "midi": 67,
      "hit": false,
      "t": 71641.76,
      "d": 1550.8388802083355,
      "v": 107
    },
    {
      "midi": 48,
      "hit": false,
      "t": 71641.76,
      "d": 1567.163499999995,
      "v": 64
    },
    {
      "midi": 60,
      "hit": false,
      "t": 71641.76,
      "d": 1568.3295442708331,
      "v": 110
    },
    {
      "midi": 51,
      "hit": false,
      "t": 71641.76,
      "d": 1569.4955885416712,
      "v": 67
    },
    {
      "midi": 55,
      "hit": false,
      "t": 71641.76,
      "d": 1585.8202083333308,
      "v": 80
    },
    {
      "midi": 63,
      "hit": false,
      "t": 73432.80399999999,
      "d": 97.94771875000151,
      "v": 104
    },
    {
      "midi": 60,
      "hit": false,
      "t": 73432.80399999999,
      "d": 218.05027864583826,
      "v": 82
    },
    {
      "midi": 56,
      "hit": false,
      "t": 73432.80399999999,
      "d": 237.873031250012,
      "v": 94
    },
    {
      "midi": 68,
      "hit": false,
      "t": 73432.80399999999,
      "d": 237.873031250012,
      "v": 104
    },
    {
      "midi": 63,
      "hit": false,
      "t": 73880.565,
      "d": 79.29101041666581,
      "v": 109
    },
    {
      "midi": 60,
      "hit": false,
      "t": 73880.565,
      "d": 254.19765104167163,
      "v": 91
    },
    {
      "midi": 68,
      "hit": false,
      "t": 73880.565,
      "d": 256.52973958333314,
      "v": 104
    },
    {
      "midi": 56,
      "hit": false,
      "t": 73880.565,
      "d": 274.0204036458308,
      "v": 86
    },
    {
      "midi": 63,
      "hit": false,
      "t": 74328.326,
      "d": 94.44958593750198,
      "v": 109
    },
    {
      "midi": 60,
      "hit": false,
      "t": 74328.326,
      "d": 254.19765104167163,
      "v": 89
    },
    {
      "midi": 56,
      "hit": false,
      "t": 74328.326,
      "d": 257.69578385417117,
      "v": 94
    },
    {
      "midi": 68,
      "hit": false,
      "t": 74328.326,
      "d": 257.69578385417117,
      "v": 104
    },
    {
      "midi": 63,
      "hit": false,
      "t": 74776.087,
      "d": 79.29101041666581,
      "v": 114
    },
    {
      "midi": 60,
      "hit": false,
      "t": 74776.087,
      "d": 195.89543750000303,
      "v": 94
    },
    {
      "midi": 68,
      "hit": false,
      "t": 74776.087,
      "d": 214.55214583333873,
      "v": 104
    },
    {
      "midi": 56,
      "hit": false,
      "t": 74776.087,
      "d": 235.54094270833593,
      "v": 90
    },
    {
      "midi": 63,
      "hit": false,
      "t": 75223.848,
      "d": 58.30221354166861,
      "v": 109
    },
    {
      "midi": 58,
      "hit": false,
      "t": 75223.848,
      "d": 1570.6616328125092,
      "v": 114
    },
    {
      "midi": 55,
      "hit": false,
      "t": 75223.848,
      "d": 1571.8276770833472,
      "v": 91
    },
    {
      "midi": 39,
      "hit": false,
      "t": 75223.848,
      "d": 1609.1410937500186,
      "v": 109
    },
    {
      "midi": 51,
      "hit": false,
      "t": 75223.848,
      "d": 1609.1410937500186,
      "v": 109
    },
    {
      "midi": 58,
      "hit": false,
      "t": 77014.89200000002,
      "d": 1471.5478697916697,
      "v": 104
    },
    {
      "midi": 62,
      "hit": false,
      "t": 77014.89200000002,
      "d": 1471.5478697916697,
      "v": 113
    },
    {
      "midi": 65,
      "hit": false,
      "t": 77014.89200000002,
      "d": 1489.0385338541673,
      "v": 103
    },
    {
      "midi": 46,
      "hit": false,
      "t": 77014.89200000002,
      "d": 1568.3295442708331,
      "v": 91
    },
    {
      "midi": 53,
      "hit": false,
      "t": 77014.89200000002,
      "d": 1568.3295442708331,
      "v": 91
    },
    {
      "midi": 67,
      "hit": false,
      "t": 78805.93600000002,
      "d": 1550.8388802083355,
      "v": 107
    },
    {
      "midi": 63,
      "hit": false,
      "t": 78805.93600000002,
      "d": 1565.9974557291716,
      "v": 117
    },
    {
      "midi": 48,
      "hit": false,
      "t": 78805.93600000002,
      "d": 1567.1635000000097,
      "v": 64
    },
    {
      "midi": 60,
      "hit": false,
      "t": 78805.93600000002,
      "d": 1568.3295442708477,
      "v": 110
    },
    {
      "midi": 51,
      "hit": false,
      "t": 78805.93600000002,
      "d": 1569.4955885416857,
      "v": 67
    },
    {
      "midi": 55,
      "hit": false,
      "t": 78805.93600000002,
      "d": 1585.8202083333454,
      "v": 80
    },
    {
      "midi": 60,
      "hit": false,
      "t": 80596.98000000003,
      "d": 1710.5869453125051,
      "v": 82
    },
    {
      "midi": 68,
      "hit": false,
      "t": 80596.98000000003,
      "d": 1710.5869453125051,
      "v": 104
    },
    {
      "midi": 63,
      "hit": false,
      "t": 80596.98000000003,
      "d": 1730.4096979166789,
      "v": 104
    },
    {
      "midi": 56,
      "hit": false,
      "t": 80596.98000000003,
      "d": 1750.2324505208526,
      "v": 79
    },
    {
      "midi": 51,
      "hit": false,
      "t": 80596.98000000003,
      "d": 1752.564539062514,
      "v": 90
    },
    {
      "midi": 63,
      "hit": false,
      "t": 82388.02400000003,
      "d": 58.30221354166861,
      "v": 109
    },
    {
      "midi": 58,
      "hit": false,
      "t": 82388.02400000003,
      "d": 1570.6616328125092,
      "v": 114
    },
    {
      "midi": 55,
      "hit": false,
      "t": 82388.02400000003,
      "d": 1571.8276770833472,
      "v": 91
    },
    {
      "midi": 39,
      "hit": false,
      "t": 82388.02400000003,
      "d": 1609.1410937500186,
      "v": 109
    },
    {
      "midi": 51,
      "hit": false,
      "t": 82388.02400000003,
      "d": 1609.1410937500186,
      "v": 109
    },
    {
      "midi": 58,
      "hit": false,
      "t": 84179.06800000006,
      "d": 1471.5478697916697,
      "v": 104
    },
    {
      "midi": 62,
      "hit": false,
      "t": 84179.06800000006,
      "d": 1471.5478697916697,
      "v": 113
    },
    {
      "midi": 65,
      "hit": false,
      "t": 84179.06800000006,
      "d": 1489.0385338541673,
      "v": 103
    },
    {
      "midi": 46,
      "hit": false,
      "t": 84179.06800000006,
      "d": 1568.3295442708331,
      "v": 91
    },
    {
      "midi": 53,
      "hit": false,
      "t": 84179.06800000006,
      "d": 1568.3295442708331,
      "v": 91
    },
    {
      "midi": 67,
      "hit": false,
      "t": 85970.11200000005,
      "d": 1550.8388802083355,
      "v": 107
    },
    {
      "midi": 63,
      "hit": false,
      "t": 85970.11200000005,
      "d": 1565.9974557291716,
      "v": 117
    },
    {
      "midi": 48,
      "hit": false,
      "t": 85970.11200000005,
      "d": 1567.1635000000097,
      "v": 64
    },
    {
      "midi": 60,
      "hit": false,
      "t": 85970.11200000005,
      "d": 1568.3295442708477,
      "v": 110
    },
    {
      "midi": 51,
      "hit": false,
      "t": 85970.11200000005,
      "d": 1569.4955885416857,
      "v": 67
    },
    {
      "midi": 55,
      "hit": false,
      "t": 85970.11200000005,
      "d": 1585.8202083333454,
      "v": 80
    },
    {
      "midi": 60,
      "hit": false,
      "t": 87761.15600000006,
      "d": 1710.5869453125051,
      "v": 82
    },
    {
      "midi": 68,
      "hit": false,
      "t": 87761.15600000006,
      "d": 1710.5869453125051,
      "v": 104
    },
    {
      "midi": 63,
      "hit": false,
      "t": 87761.15600000006,
      "d": 1730.4096979166789,
      "v": 104
    },
    {
      "midi": 56,
      "hit": false,
      "t": 87761.15600000006,
      "d": 1750.2324505208526,
      "v": 79
    },
    {
      "midi": 51,
      "hit": false,
      "t": 87761.15600000006,
      "d": 1752.564539062514,
      "v": 90
    },
    {
      "midi": 63,
      "hit": false,
      "t": 93134.28800000007,
      "d": 58.30221354166861,
      "v": 109
    },
    {
      "midi": 58,
      "hit": false,
      "t": 93134.28800000007,
      "d": 1570.6616328125092,
      "v": 114
    },
    {
      "midi": 55,
      "hit": false,
      "t": 93134.28800000007,
      "d": 1571.8276770833472,
      "v": 91
    },
    {
      "midi": 39,
      "hit": false,
      "t": 93134.28800000007,
      "d": 1609.1410937500186,
      "v": 109
    },
    {
      "midi": 51,
      "hit": false,
      "t": 93134.28800000007,
      "d": 1609.1410937500186,
      "v": 109
    },
    {
      "midi": 58,
      "hit": false,
      "t": 94925.3320000001,
      "d": 1471.5478697916697,
      "v": 104
    },
    {
      "midi": 62,
      "hit": false,
      "t": 94925.3320000001,
      "d": 1471.5478697916697,
      "v": 113
    },
    {
      "midi": 65,
      "hit": false,
      "t": 94925.3320000001,
      "d": 1489.0385338541673,
      "v": 103
    },
    {
      "midi": 46,
      "hit": false,
      "t": 94925.3320000001,
      "d": 1568.3295442708331,
      "v": 91
    },
    {
      "midi": 53,
      "hit": false,
      "t": 94925.3320000001,
      "d": 1568.3295442708331,
      "v": 91
    },
    {
      "midi": 67,
      "hit": false,
      "t": 96716.37600000009,
      "d": 1550.8388802083355,
      "v": 107
    },
    {
      "midi": 63,
      "hit": false,
      "t": 96716.37600000009,
      "d": 1565.9974557291716,
      "v": 117
    },
    {
      "midi": 48,
      "hit": false,
      "t": 96716.37600000009,
      "d": 1567.1635000000097,
      "v": 64
    },
    {
      "midi": 60,
      "hit": false,
      "t": 96716.37600000009,
      "d": 1568.3295442708477,
      "v": 110
    },
    {
      "midi": 51,
      "hit": false,
      "t": 96716.37600000009,
      "d": 1569.4955885416857,
      "v": 67
    },
    {
      "midi": 55,
      "hit": false,
      "t": 96716.37600000009,
      "d": 1585.8202083333454,
      "v": 80
    },
    {
      "midi": 60,
      "hit": false,
      "t": 98507.4200000001,
      "d": 1710.5869453125051,
      "v": 82
    },
    {
      "midi": 68,
      "hit": false,
      "t": 98507.4200000001,
      "d": 1710.5869453125051,
      "v": 104
    },
    {
      "midi": 63,
      "hit": false,
      "t": 98507.4200000001,
      "d": 1730.4096979166789,
      "v": 104
    },
    {
      "midi": 56,
      "hit": false,
      "t": 98507.4200000001,
      "d": 1750.2324505208526,
      "v": 79
    },
    {
      "midi": 51,
      "hit": false,
      "t": 98507.4200000001,
      "d": 1752.564539062514,
      "v": 90
    },
    {
      "midi": 58,
      "hit": false,
      "t": 100298.46400000011,
      "d": 1570.6616328124946,
      "v": 114
    },
    {
      "midi": 63,
      "hit": false,
      "t": 100298.46400000011,
      "d": 1570.6616328124946,
      "v": 109
    },
    {
      "midi": 55,
      "hit": false,
      "t": 100298.46400000011,
      "d": 1571.8276770833327,
      "v": 91
    },
    {
      "midi": 39,
      "hit": false,
      "t": 100298.46400000011,
      "d": 1609.141093750004,
      "v": 109
    },
    {
      "midi": 51,
      "hit": false,
      "t": 100298.46400000011,
      "d": 1609.141093750004,
      "v": 109
    },
    {
      "midi": 58,
      "hit": false,
      "t": 102089.50800000012,
      "d": 1471.5478697916697,
      "v": 104
    },
    {
      "midi": 62,
      "hit": false,
      "t": 102089.50800000012,
      "d": 1471.5478697916697,
      "v": 113
    },
    {
      "midi": 65,
      "hit": false,
      "t": 102089.50800000012,
      "d": 1489.0385338541673,
      "v": 103
    },
    {
      "midi": 46,
      "hit": false,
      "t": 102089.50800000012,
      "d": 1568.3295442708331,
      "v": 91
    },
    {
      "midi": 53,
      "hit": false,
      "t": 102089.50800000012,
      "d": 1568.3295442708331,
      "v": 91
    },
    {
      "midi": 67,
      "hit": false,
      "t": 103880.55200000011,
      "d": 1550.8388802083355,
      "v": 107
    },
    {
      "midi": 63,
      "hit": false,
      "t": 103880.55200000011,
      "d": 1565.9974557291716,
      "v": 117
    },
    {
      "midi": 48,
      "hit": false,
      "t": 103880.55200000011,
      "d": 1567.1635000000097,
      "v": 64
    },
    {
      "midi": 60,
      "hit": false,
      "t": 103880.55200000011,
      "d": 1568.3295442708477,
      "v": 110
    },
    {
      "midi": 51,
      "hit": false,
      "t": 103880.55200000011,
      "d": 1569.4955885416857,
      "v": 67
    },
    {
      "midi": 55,
      "hit": false,
      "t": 103880.55200000011,
      "d": 1585.8202083333454,
      "v": 80
    },
    {
      "midi": 60,
      "hit": false,
      "t": 105671.59600000012,
      "d": 1710.5869453125051,
      "v": 82
    },
    {
      "midi": 68,
      "hit": false,
      "t": 105671.59600000012,
      "d": 1710.5869453125051,
      "v": 104
    },
    {
      "midi": 63,
      "hit": false,
      "t": 105671.59600000012,
      "d": 1730.4096979166789,
      "v": 104
    },
    {
      "midi": 56,
      "hit": false,
      "t": 105671.59600000012,
      "d": 1750.2324505208526,
      "v": 79
    },
    {
      "midi": 51,
      "hit": false,
      "t": 105671.59600000012,
      "d": 1752.564539062514,
      "v": 90
    },
    {
      "midi": 63,
      "hit": false,
      "t": 107462.64000000013,
      "d": 58.30221354166861,
      "v": 109
    },
    {
      "midi": 58,
      "hit": false,
      "t": 107462.64000000013,
      "d": 1570.6616328125092,
      "v": 114
    },
    {
      "midi": 55,
      "hit": false,
      "t": 107462.64000000013,
      "d": 1571.8276770833472,
      "v": 91
    },
    {
      "midi": 39,
      "hit": false,
      "t": 107462.64000000013,
      "d": 1609.1410937500186,
      "v": 109
    },
    {
      "midi": 51,
      "hit": false,
      "t": 107462.64000000013,
      "d": 1609.1410937500186,
      "v": 109
    },
    {
      "midi": 58,
      "hit": false,
      "t": 109253.68400000015,
      "d": 1471.5478697916697,
      "v": 104
    },
    {
      "midi": 62,
      "hit": false,
      "t": 109253.68400000015,
      "d": 1471.5478697916697,
      "v": 113
    },
    {
      "midi": 65,
      "hit": false,
      "t": 109253.68400000015,
      "d": 1489.0385338541673,
      "v": 103
    },
    {
      "midi": 46,
      "hit": false,
      "t": 109253.68400000015,
      "d": 1568.3295442708331,
      "v": 91
    },
    {
      "midi": 53,
      "hit": false,
      "t": 109253.68400000015,
      "d": 1568.3295442708331,
      "v": 91
    },
    {
      "midi": 67,
      "hit": false,
      "t": 111044.72800000015,
      "d": 1550.8388802083355,
      "v": 107
    },
    {
      "midi": 63,
      "hit": false,
      "t": 111044.72800000015,
      "d": 1565.9974557291716,
      "v": 117
    },
    {
      "midi": 48,
      "hit": false,
      "t": 111044.72800000015,
      "d": 1567.1635000000097,
      "v": 64
    },
    {
      "midi": 60,
      "hit": false,
      "t": 111044.72800000015,
      "d": 1568.3295442708477,
      "v": 110
    },
    {
      "midi": 51,
      "hit": false,
      "t": 111044.72800000015,
      "d": 1569.4955885416857,
      "v": 67
    },
    {
      "midi": 55,
      "hit": false,
      "t": 111044.72800000015,
      "d": 1585.8202083333454,
      "v": 80
    },
    {
      "midi": 60,
      "hit": false,
      "t": 112835.77200000016,
      "d": 1710.5869453125051,
      "v": 82
    },
    {
      "midi": 68,
      "hit": false,
      "t": 112835.77200000016,
      "d": 1710.5869453125051,
      "v": 104
    },
    {
      "midi": 63,
      "hit": false,
      "t": 112835.77200000016,
      "d": 1730.4096979166789,
      "v": 104
    },
    {
      "midi": 56,
      "hit": false,
      "t": 112835.77200000016,
      "d": 1750.2324505208526,
      "v": 79
    },
    {
      "midi": 51,
      "hit": false,
      "t": 112835.77200000016,
      "d": 1752.564539062514,
      "v": 90
    },
    {
      "midi": 58,
      "hit": false,
      "t": 114626.81600000017,
      "d": 1570.6616328124946,
      "v": 114
    },
    {
      "midi": 63,
      "hit": false,
      "t": 114626.81600000017,
      "d": 1570.6616328124946,
      "v": 109
    },
    {
      "midi": 55,
      "hit": false,
      "t": 114626.81600000017,
      "d": 1571.8276770833327,
      "v": 91
    },
    {
      "midi": 39,
      "hit": false,
      "t": 114626.81600000017,
      "d": 1609.141093750004,
      "v": 109
    },
    {
      "midi": 51,
      "hit": false,
      "t": 114626.81600000017,
      "d": 1609.141093750004,
      "v": 109
    },
    {
      "midi": 58,
      "hit": false,
      "t": 116417.86000000018,
      "d": 1471.5478697916697,
      "v": 104
    },
    {
      "midi": 62,
      "hit": false,
      "t": 116417.86000000018,
      "d": 1471.5478697916697,
      "v": 113
    },
    {
      "midi": 65,
      "hit": false,
      "t": 116417.86000000018,
      "d": 1489.0385338541673,
      "v": 103
    },
    {
      "midi": 46,
      "hit": false,
      "t": 116417.86000000018,
      "d": 1568.3295442708331,
      "v": 91
    },
    {
      "midi": 53,
      "hit": false,
      "t": 116417.86000000018,
      "d": 1568.3295442708331,
      "v": 91
    },
    {
      "midi": 67,
      "hit": false,
      "t": 118208.90400000017,
      "d": 1550.8388802083355,
      "v": 107
    },
    {
      "midi": 63,
      "hit": false,
      "t": 118208.90400000017,
      "d": 1565.9974557291716,
      "v": 117
    },
    {
      "midi": 48,
      "hit": false,
      "t": 118208.90400000017,
      "d": 1567.1635000000097,
      "v": 64
    },
    {
      "midi": 60,
      "hit": false,
      "t": 118208.90400000017,
      "d": 1568.3295442708477,
      "v": 110
    },
    {
      "midi": 51,
      "hit": false,
      "t": 118208.90400000017,
      "d": 1569.4955885416857,
      "v": 67
    },
    {
      "midi": 55,
      "hit": false,
      "t": 118208.90400000017,
      "d": 1585.8202083333454,
      "v": 80
    },
    {
      "midi": 60,
      "hit": false,
      "t": 119999.94800000018,
      "d": 1710.5869453125051,
      "v": 82
    },
    {
      "midi": 68,
      "hit": false,
      "t": 119999.94800000018,
      "d": 1710.5869453125051,
      "v": 104
    },
    {
      "midi": 63,
      "hit": false,
      "t": 119999.94800000018,
      "d": 1730.4096979166789,
      "v": 104
    },
    {
      "midi": 56,
      "hit": false,
      "t": 119999.94800000018,
      "d": 1750.2324505208526,
      "v": 79
    },
    {
      "midi": 51,
      "hit": false,
      "t": 119999.94800000018,
      "d": 1752.564539062514,
      "v": 90
    },
    {
      "midi": 63,
      "hit": false,
      "t": 121790.99200000019,
      "d": 58.30221354166861,
      "v": 109
    },
    {
      "midi": 58,
      "hit": false,
      "t": 121790.99200000019,
      "d": 1570.6616328125092,
      "v": 114
    },
    {
      "midi": 55,
      "hit": false,
      "t": 121790.99200000019,
      "d": 1571.8276770833472,
      "v": 91
    },
    {
      "midi": 39,
      "hit": false,
      "t": 121790.99200000019,
      "d": 1609.1410937500186,
      "v": 109
    },
    {
      "midi": 51,
      "hit": false,
      "t": 121790.99200000019,
      "d": 1609.1410937500186,
      "v": 109
    },
    {
      "midi": 58,
      "hit": false,
      "t": 123582.03600000021,
      "d": 1471.5478697916697,
      "v": 104
    },
    {
      "midi": 62,
      "hit": false,
      "t": 123582.03600000021,
      "d": 1471.5478697916697,
      "v": 113
    },
    {
      "midi": 65,
      "hit": false,
      "t": 123582.03600000021,
      "d": 1489.0385338541673,
      "v": 103
    },
    {
      "midi": 46,
      "hit": false,
      "t": 123582.03600000021,
      "d": 1568.3295442708331,
      "v": 91
    },
    {
      "midi": 53,
      "hit": false,
      "t": 123582.03600000021,
      "d": 1568.3295442708331,
      "v": 91
    },
    {
      "midi": 67,
      "hit": false,
      "t": 125373.0800000002,
      "d": 1550.8388802083355,
      "v": 107
    },
    {
      "midi": 63,
      "hit": false,
      "t": 125373.0800000002,
      "d": 1565.9974557291716,
      "v": 117
    },
    {
      "midi": 48,
      "hit": false,
      "t": 125373.0800000002,
      "d": 1567.1635000000097,
      "v": 64
    },
    {
      "midi": 60,
      "hit": false,
      "t": 125373.0800000002,
      "d": 1568.3295442708477,
      "v": 110
    },
    {
      "midi": 51,
      "hit": false,
      "t": 125373.0800000002,
      "d": 1569.4955885416857,
      "v": 67
    },
    {
      "midi": 55,
      "hit": false,
      "t": 125373.0800000002,
      "d": 1585.8202083333454,
      "v": 80
    },
    {
      "midi": 60,
      "hit": false,
      "t": 127164.12400000021,
      "d": 1710.5869453125051,
      "v": 82
    },
    {
      "midi": 68,
      "hit": false,
      "t": 127164.12400000021,
      "d": 1710.5869453125051,
      "v": 104
    },
    {
      "midi": 63,
      "hit": false,
      "t": 127164.12400000021,
      "d": 1730.4096979166789,
      "v": 104
    },
    {
      "midi": 56,
      "hit": false,
      "t": 127164.12400000021,
      "d": 1750.2324505208526,
      "v": 79
    },
    {
      "midi": 51,
      "hit": false,
      "t": 127164.12400000021,
      "d": 1752.564539062514,
      "v": 90
    },
    {
      "midi": 63,
      "hit": false,
      "t": 128955.16800000022,
      "d": 58.30221354166861,
      "v": 109
    },
    {
      "midi": 58,
      "hit": false,
      "t": 128955.16800000022,
      "d": 1570.6616328125092,
      "v": 114
    },
    {
      "midi": 55,
      "hit": false,
      "t": 128955.16800000022,
      "d": 1571.8276770833472,
      "v": 91
    },
    {
      "midi": 39,
      "hit": false,
      "t": 128955.16800000022,
      "d": 1609.1410937500186,
      "v": 109
    },
    {
      "midi": 51,
      "hit": false,
      "t": 128955.16800000022,
      "d": 1609.1410937500186,
      "v": 109
    },
    {
      "midi": 58,
      "hit": false,
      "t": 130746.21200000025,
      "d": 1471.5478697916697,
      "v": 104
    },
    {
      "midi": 62,
      "hit": false,
      "t": 130746.21200000025,
      "d": 1471.5478697916697,
      "v": 113
    },
    {
      "midi": 65,
      "hit": false,
      "t": 130746.21200000025,
      "d": 1489.0385338541673,
      "v": 103
    },
    {
      "midi": 46,
      "hit": false,
      "t": 130746.21200000025,
      "d": 1568.3295442708331,
      "v": 91
    },
    {
      "midi": 53,
      "hit": false,
      "t": 130746.21200000025,
      "d": 1568.3295442708331,
      "v": 91
    },
    {
      "midi": 63,
      "hit": false,
      "t": 132537.25600000026,
      "d": 58.30221354166861,
      "v": 117
    },
    {
      "midi": 67,
      "hit": false,
      "t": 132537.25600000026,
      "d": 1550.83888020835,
      "v": 107
    },
    {
      "midi": 48,
      "hit": false,
      "t": 132537.25600000026,
      "d": 1567.1635000000242,
      "v": 64
    },
    {
      "midi": 60,
      "hit": false,
      "t": 132537.25600000026,
      "d": 1568.3295442708477,
      "v": 110
    },
    {
      "midi": 51,
      "hit": false,
      "t": 132537.25600000026,
      "d": 1569.4955885416712,
      "v": 67
    },
    {
      "midi": 55,
      "hit": false,
      "t": 132537.25600000026,
      "d": 1585.8202083333454,
      "v": 80
    },
    {
      "midi": 63,
      "hit": false,
      "t": 134328.30000000028,
      "d": 97.94771874998696,
      "v": 104
    },
    {
      "midi": 60,
      "hit": false,
      "t": 134328.30000000028,
      "d": 218.0502786458237,
      "v": 82
    },
    {
      "midi": 56,
      "hit": false,
      "t": 134328.30000000028,
      "d": 237.87303124999744,
      "v": 94
    },
    {
      "midi": 68,
      "hit": false,
      "t": 134328.30000000028,
      "d": 237.87303124999744,
      "v": 104
    },
    {
      "midi": 63,
      "hit": false,
      "t": 134776.06100000028,
      "d": 79.29101041666581,
      "v": 109
    },
    {
      "midi": 60,
      "hit": false,
      "t": 134776.06100000028,
      "d": 254.19765104167163,
      "v": 91
    },
    {
      "midi": 68,
      "hit": false,
      "t": 134776.06100000028,
      "d": 256.5297395833477,
      "v": 104
    },
    {
      "midi": 56,
      "hit": false,
      "t": 134776.06100000028,
      "d": 274.02040364584536,
      "v": 86
    },
    {
      "midi": 63,
      "hit": false,
      "t": 135223.82200000028,
      "d": 94.44958593748743,
      "v": 109
    },
    {
      "midi": 60,
      "hit": false,
      "t": 135223.82200000028,
      "d": 254.19765104164253,
      "v": 89
    },
    {
      "midi": 56,
      "hit": false,
      "t": 135223.82200000028,
      "d": 257.69578385414206,
      "v": 94
    },
    {
      "midi": 68,
      "hit": false,
      "t": 135223.82200000028,
      "d": 257.69578385414206,
      "v": 104
    },
    {
      "midi": 63,
      "hit": false,
      "t": 135671.58300000025,
      "d": 79.29101041666581,
      "v": 114
    },
    {
      "midi": 60,
      "hit": false,
      "t": 135671.58300000025,
      "d": 195.89543750000303,
      "v": 94
    },
    {
      "midi": 68,
      "hit": false,
      "t": 135671.58300000025,
      "d": 214.55214583332418,
      "v": 104
    },
    {
      "midi": 56,
      "hit": false,
      "t": 135671.58300000025,
      "d": 235.54094270832138,
      "v": 90
    },
    {
      "midi": 63,
      "hit": false,
      "t": 136119.34400000024,
      "d": 58.30221354166861,
      "v": 109
    },
    {
      "midi": 58,
      "hit": false,
      "t": 136119.34400000024,
      "d": 1570.6616328124946,
      "v": 114
    },
    {
      "midi": 55,
      "hit": false,
      "t": 136119.34400000024,
      "d": 1571.8276770833181,
      "v": 91
    },
    {
      "midi": 39,
      "hit": false,
      "t": 136119.34400000024,
      "d": 1609.1410937499895,
      "v": 109
    },
    {
      "midi": 51,
      "hit": false,
      "t": 136119.34400000024,
      "d": 1609.1410937499895,
      "v": 109
    },
    {
      "midi": 58,
      "hit": false,
      "t": 137910.38800000024,
      "d": 1471.547869791655,
      "v": 104
    },
    {
      "midi": 62,
      "hit": false,
      "t": 137910.38800000024,
      "d": 1471.547869791655,
      "v": 113
    },
    {
      "midi": 65,
      "hit": false,
      "t": 137910.38800000024,
      "d": 1489.0385338541528,
      "v": 103
    },
    {
      "midi": 46,
      "hit": false,
      "t": 137910.38800000024,
      "d": 1568.3295442708186,
      "v": 91
    },
    {
      "midi": 53,
      "hit": false,
      "t": 137910.38800000024,
      "d": 1568.3295442708186,
      "v": 91
    },
    {
      "midi": 67,
      "hit": false,
      "t": 139701.43200000023,
      "d": 1550.838880208321,
      "v": 107
    },
    {
      "midi": 63,
      "hit": false,
      "t": 139701.43200000023,
      "d": 1565.9974557291425,
      "v": 117
    },
    {
      "midi": 48,
      "hit": false,
      "t": 139701.43200000023,
      "d": 1567.163499999966,
      "v": 64
    },
    {
      "midi": 60,
      "hit": false,
      "t": 139701.43200000023,
      "d": 1568.3295442707895,
      "v": 110
    },
    {
      "midi": 51,
      "hit": false,
      "t": 139701.43200000023,
      "d": 1569.495588541613,
      "v": 67
    },
    {
      "midi": 55,
      "hit": false,
      "t": 139701.43200000023,
      "d": 1585.8202083332872,
      "v": 80
    },
    {
      "midi": 60,
      "hit": false,
      "t": 141492.4760000002,
      "d": 1710.5869453125051,
      "v": 82
    },
    {
      "midi": 68,
      "hit": false,
      "t": 141492.4760000002,
      "d": 1710.5869453125051,
      "v": 104
    },
    {
      "midi": 63,
      "hit": false,
      "t": 141492.4760000002,
      "d": 1730.4096979166789,
      "v": 104
    },
    {
      "midi": 56,
      "hit": false,
      "t": 141492.4760000002,
      "d": 1750.2324505208526,
      "v": 79
    },
    {
      "midi": 51,
      "hit": false,
      "t": 141492.4760000002,
      "d": 1752.5645390625286,
      "v": 90
    },
    {
      "midi": 63,
      "hit": false,
      "t": 143283.52000000022,
      "d": 58.30221354166861,
      "v": 109
    },
    {
      "midi": 58,
      "hit": false,
      "t": 143283.52000000022,
      "d": 1570.6616328124946,
      "v": 114
    },
    {
      "midi": 55,
      "hit": false,
      "t": 143283.52000000022,
      "d": 1571.8276770833181,
      "v": 91
    },
    {
      "midi": 39,
      "hit": false,
      "t": 143283.52000000022,
      "d": 1609.1410937499895,
      "v": 109
    },
    {
      "midi": 51,
      "hit": false,
      "t": 143283.52000000022,
      "d": 1609.1410937499895,
      "v": 109
    },
    {
      "midi": 58,
      "hit": false,
      "t": 145074.56400000022,
      "d": 1471.547869791655,
      "v": 104
    },
    {
      "midi": 62,
      "hit": false,
      "t": 145074.56400000022,
      "d": 1471.547869791655,
      "v": 113
    },
    {
      "midi": 65,
      "hit": false,
      "t": 145074.56400000022,
      "d": 1489.0385338541528,
      "v": 103
    },
    {
      "midi": 46,
      "hit": false,
      "t": 145074.56400000022,
      "d": 1568.3295442708186,
      "v": 91
    },
    {
      "midi": 53,
      "hit": false,
      "t": 145074.56400000022,
      "d": 1568.3295442708186,
      "v": 91
    },
    {
      "midi": 67,
      "hit": false,
      "t": 146865.6080000002,
      "d": 1550.838880208321,
      "v": 107
    },
    {
      "midi": 63,
      "hit": false,
      "t": 146865.6080000002,
      "d": 1565.9974557291425,
      "v": 117
    },
    {
      "midi": 48,
      "hit": false,
      "t": 146865.6080000002,
      "d": 1567.163499999966,
      "v": 64
    },
    {
      "midi": 60,
      "hit": false,
      "t": 146865.6080000002,
      "d": 1568.3295442707895,
      "v": 110
    },
    {
      "midi": 51,
      "hit": false,
      "t": 146865.6080000002,
      "d": 1569.495588541613,
      "v": 67
    },
    {
      "midi": 55,
      "hit": false,
      "t": 146865.6080000002,
      "d": 1585.8202083332872,
      "v": 80
    },
    {
      "midi": 60,
      "hit": false,
      "t": 148656.65200000018,
      "d": 1710.5869453125051,
      "v": 82
    },
    {
      "midi": 68,
      "hit": false,
      "t": 148656.65200000018,
      "d": 1710.5869453125051,
      "v": 104
    },
    {
      "midi": 63,
      "hit": false,
      "t": 148656.65200000018,
      "d": 1730.4096979166789,
      "v": 104
    },
    {
      "midi": 56,
      "hit": false,
      "t": 148656.65200000018,
      "d": 1750.2324505208526,
      "v": 79
    },
    {
      "midi": 51,
      "hit": false,
      "t": 148656.65200000018,
      "d": 1752.5645390625286,
      "v": 90
    },
    {
      "midi": 63,
      "hit": false,
      "t": 157611.8720000002,
      "d": 58.30221354166861,
      "v": 109
    },
    {
      "midi": 58,
      "hit": false,
      "t": 157611.8720000002,
      "d": 1570.6616328124946,
      "v": 114
    },
    {
      "midi": 55,
      "hit": false,
      "t": 157611.8720000002,
      "d": 1571.8276770833181,
      "v": 91
    },
    {
      "midi": 39,
      "hit": false,
      "t": 157611.8720000002,
      "d": 1609.1410937499895,
      "v": 109
    },
    {
      "midi": 51,
      "hit": false,
      "t": 157611.8720000002,
      "d": 1609.1410937499895,
      "v": 109
    },
    {
      "midi": 58,
      "hit": false,
      "t": 159402.9160000002,
      "d": 1471.547869791655,
      "v": 104
    },
    {
      "midi": 62,
      "hit": false,
      "t": 159402.9160000002,
      "d": 1471.547869791655,
      "v": 113
    },
    {
      "midi": 65,
      "hit": false,
      "t": 159402.9160000002,
      "d": 1489.0385338541528,
      "v": 103
    },
    {
      "midi": 46,
      "hit": false,
      "t": 159402.9160000002,
      "d": 1568.3295442708186,
      "v": 91
    },
    {
      "midi": 53,
      "hit": false,
      "t": 159402.9160000002,
      "d": 1568.3295442708186,
      "v": 91
    },
    {
      "midi": 63,
      "hit": false,
      "t": 161193.9600000002,
      "d": 58.30221354166861,
      "v": 117
    },
    {
      "midi": 67,
      "hit": false,
      "t": 161193.9600000002,
      "d": 1550.838880208321,
      "v": 107
    },
    {
      "midi": 48,
      "hit": false,
      "t": 161193.9600000002,
      "d": 1567.163499999995,
      "v": 64
    },
    {
      "midi": 60,
      "hit": false,
      "t": 161193.9600000002,
      "d": 1568.3295442708186,
      "v": 110
    },
    {
      "midi": 51,
      "hit": false,
      "t": 161193.9600000002,
      "d": 1569.495588541642,
      "v": 67
    },
    {
      "midi": 55,
      "hit": false,
      "t": 161193.9600000002,
      "d": 1585.8202083333163,
      "v": 80
    },
    {
      "midi": 63,
      "hit": false,
      "t": 162985.0040000002,
      "d": 97.94771874998696,
      "v": 104
    },
    {
      "midi": 60,
      "hit": false,
      "t": 162985.0040000002,
      "d": 218.0502786458237,
      "v": 82
    },
    {
      "midi": 56,
      "hit": false,
      "t": 162985.0040000002,
      "d": 237.87303124999744,
      "v": 94
    },
    {
      "midi": 68,
      "hit": false,
      "t": 162985.0040000002,
      "d": 237.87303124999744,
      "v": 104
    },
    {
      "midi": 63,
      "hit": false,
      "t": 163432.7650000002,
      "d": 79.29101041666581,
      "v": 109
    },
    {
      "midi": 60,
      "hit": false,
      "t": 163432.7650000002,
      "d": 254.19765104167163,
      "v": 91
    },
    {
      "midi": 68,
      "hit": false,
      "t": 163432.7650000002,
      "d": 256.5297395833477,
      "v": 104
    },
    {
      "midi": 56,
      "hit": false,
      "t": 163432.7650000002,
      "d": 274.02040364584536,
      "v": 86
    },
    {
      "midi": 63,
      "hit": false,
      "t": 163880.5260000002,
      "d": 94.44958593748743,
      "v": 109
    },
    {
      "midi": 60,
      "hit": false,
      "t": 163880.5260000002,
      "d": 254.19765104164253,
      "v": 89
    },
    {
      "midi": 56,
      "hit": false,
      "t": 163880.5260000002,
      "d": 257.69578385414206,
      "v": 94
    },
    {
      "midi": 68,
      "hit": false,
      "t": 163880.5260000002,
      "d": 257.69578385414206,
      "v": 104
    },
    {
      "midi": 63,
      "hit": false,
      "t": 164328.28700000016,
      "d": 79.29101041666581,
      "v": 114
    },
    {
      "midi": 60,
      "hit": false,
      "t": 164328.28700000016,
      "d": 195.89543750000303,
      "v": 94
    },
    {
      "midi": 68,
      "hit": false,
      "t": 164328.28700000016,
      "d": 214.55214583332418,
      "v": 104
    },
    {
      "midi": 56,
      "hit": false,
      "t": 164328.28700000016,
      "d": 235.54094270832138,
      "v": 90
    },
    {
      "midi": 63,
      "hit": false,
      "t": 164776.04800000016,
      "d": 58.30221354166861,
      "v": 109
    },
    {
      "midi": 58,
      "hit": false,
      "t": 164776.04800000016,
      "d": 1570.6616328124946,
      "v": 114
    },
    {
      "midi": 55,
      "hit": false,
      "t": 164776.04800000016,
      "d": 1571.8276770833181,
      "v": 91
    },
    {
      "midi": 39,
      "hit": false,
      "t": 164776.04800000016,
      "d": 1609.1410937499895,
      "v": 109
    },
    {
      "midi": 51,
      "hit": false,
      "t": 164776.04800000016,
      "d": 1609.1410937499895,
      "v": 109
    },
    {
      "midi": 58,
      "hit": false,
      "t": 166567.09200000015,
      "d": 1471.547869791655,
      "v": 104
    },
    {
      "midi": 62,
      "hit": false,
      "t": 166567.09200000015,
      "d": 1471.547869791655,
      "v": 113
    },
    {
      "midi": 65,
      "hit": false,
      "t": 166567.09200000015,
      "d": 1489.0385338541528,
      "v": 103
    },
    {
      "midi": 46,
      "hit": false,
      "t": 166567.09200000015,
      "d": 1568.3295442708186,
      "v": 91
    },
    {
      "midi": 53,
      "hit": false,
      "t": 166567.09200000015,
      "d": 1568.3295442708186,
      "v": 91
    },
    {
      "midi": 63,
      "hit": false,
      "t": 168358.13600000014,
      "d": 58.30221354166861,
      "v": 117
    },
    {
      "midi": 67,
      "hit": false,
      "t": 168358.13600000014,
      "d": 1550.83888020835,
      "v": 107
    },
    {
      "midi": 48,
      "hit": false,
      "t": 168358.13600000014,
      "d": 1567.1635000000242,
      "v": 64
    },
    {
      "midi": 60,
      "hit": false,
      "t": 168358.13600000014,
      "d": 1568.3295442708477,
      "v": 110
    },
    {
      "midi": 51,
      "hit": false,
      "t": 168358.13600000014,
      "d": 1569.4955885416712,
      "v": 67
    },
    {
      "midi": 55,
      "hit": false,
      "t": 168358.13600000014,
      "d": 1585.8202083333454,
      "v": 80
    },
    {
      "midi": 60,
      "hit": false,
      "t": 170149.18000000017,
      "d": 1710.5869453125051,
      "v": 82
    },
    {
      "midi": 68,
      "hit": false,
      "t": 170149.18000000017,
      "d": 1710.5869453125051,
      "v": 104
    },
    {
      "midi": 63,
      "hit": false,
      "t": 170149.18000000017,
      "d": 1730.4096979166789,
      "v": 104
    },
    {
      "midi": 56,
      "hit": false,
      "t": 170149.18000000017,
      "d": 1750.2324505208526,
      "v": 79
    },
    {
      "midi": 51,
      "hit": false,
      "t": 170149.18000000017,
      "d": 1752.5645390625286,
      "v": 90
    },
    {
      "midi": 63,
      "hit": false,
      "t": 175522.3120000002,
      "d": 58.30221354166861,
      "v": 109
    },
    {
      "midi": 58,
      "hit": false,
      "t": 175522.3120000002,
      "d": 1570.6616328124946,
      "v": 114
    },
    {
      "midi": 55,
      "hit": false,
      "t": 175522.3120000002,
      "d": 1571.8276770833181,
      "v": 91
    },
    {
      "midi": 39,
      "hit": false,
      "t": 175522.3120000002,
      "d": 1609.1410937499895,
      "v": 109
    },
    {
      "midi": 51,
      "hit": false,
      "t": 175522.3120000002,
      "d": 1609.1410937499895,
      "v": 109
    },
    {
      "midi": 58,
      "hit": false,
      "t": 177313.3560000002,
      "d": 1471.547869791655,
      "v": 104
    },
    {
      "midi": 62,
      "hit": false,
      "t": 177313.3560000002,
      "d": 1471.547869791655,
      "v": 113
    },
    {
      "midi": 65,
      "hit": false,
      "t": 177313.3560000002,
      "d": 1489.0385338541528,
      "v": 103
    },
    {
      "midi": 46,
      "hit": false,
      "t": 177313.3560000002,
      "d": 1568.3295442708186,
      "v": 91
    },
    {
      "midi": 53,
      "hit": false,
      "t": 177313.3560000002,
      "d": 1568.3295442708186,
      "v": 91
    },
    {
      "midi": 63,
      "hit": false,
      "t": 179104.4000000002,
      "d": 58.30221354166861,
      "v": 117
    },
    {
      "midi": 67,
      "hit": false,
      "t": 179104.4000000002,
      "d": 1550.838880208321,
      "v": 107
    },
    {
      "midi": 48,
      "hit": false,
      "t": 179104.4000000002,
      "d": 1567.163499999995,
      "v": 64
    },
    {
      "midi": 60,
      "hit": false,
      "t": 179104.4000000002,
      "d": 1568.3295442708186,
      "v": 110
    },
    {
      "midi": 51,
      "hit": false,
      "t": 179104.4000000002,
      "d": 1569.495588541642,
      "v": 67
    },
    {
      "midi": 55,
      "hit": false,
      "t": 179104.4000000002,
      "d": 1585.8202083333163,
      "v": 80
    },
    {
      "midi": 60,
      "hit": false,
      "t": 180895.4440000002,
      "d": 1710.5869453125051,
      "v": 82
    },
    {
      "midi": 68,
      "hit": false,
      "t": 180895.4440000002,
      "d": 1710.5869453125051,
      "v": 104
    },
    {
      "midi": 63,
      "hit": false,
      "t": 180895.4440000002,
      "d": 1730.4096979166789,
      "v": 104
    },
    {
      "midi": 56,
      "hit": false,
      "t": 180895.4440000002,
      "d": 1750.2324505208526,
      "v": 79
    },
    {
      "midi": 51,
      "hit": false,
      "t": 180895.4440000002,
      "d": 1752.5645390625286,
      "v": 90
    },
    {
      "midi": 63,
      "hit": false,
      "t": 182686.48800000022,
      "d": 58.30221354166861,
      "v": 109
    },
    {
      "midi": 58,
      "hit": false,
      "t": 182686.48800000022,
      "d": 1570.6616328124946,
      "v": 114
    },
    {
      "midi": 55,
      "hit": false,
      "t": 182686.48800000022,
      "d": 1571.8276770833181,
      "v": 91
    },
    {
      "midi": 39,
      "hit": false,
      "t": 182686.48800000022,
      "d": 1609.1410937499895,
      "v": 109
    },
    {
      "midi": 51,
      "hit": false,
      "t": 182686.48800000022,
      "d": 1609.1410937499895,
      "v": 109
    },
    {
      "midi": 58,
      "hit": false,
      "t": 184477.5320000002,
      "d": 1471.547869791655,
      "v": 104
    },
    {
      "midi": 62,
      "hit": false,
      "t": 184477.5320000002,
      "d": 1471.547869791655,
      "v": 113
    },
    {
      "midi": 65,
      "hit": false,
      "t": 184477.5320000002,
      "d": 1489.0385338541528,
      "v": 103
    },
    {
      "midi": 46,
      "hit": false,
      "t": 184477.5320000002,
      "d": 1568.3295442708186,
      "v": 91
    },
    {
      "midi": 53,
      "hit": false,
      "t": 184477.5320000002,
      "d": 1568.3295442708186,
      "v": 91
    },
    {
      "midi": 63,
      "hit": false,
      "t": 186268.5760000002,
      "d": 58.30221354166861,
      "v": 117
    },
    {
      "midi": 67,
      "hit": false,
      "t": 186268.5760000002,
      "d": 1550.83888020835,
      "v": 107
    },
    {
      "midi": 48,
      "hit": false,
      "t": 186268.5760000002,
      "d": 1567.1635000000242,
      "v": 64
    },
    {
      "midi": 60,
      "hit": false,
      "t": 186268.5760000002,
      "d": 1568.3295442708477,
      "v": 110
    },
    {
      "midi": 51,
      "hit": false,
      "t": 186268.5760000002,
      "d": 1569.4955885416712,
      "v": 67
    },
    {
      "midi": 55,
      "hit": false,
      "t": 186268.5760000002,
      "d": 1585.8202083333454,
      "v": 80
    },
    {
      "midi": 60,
      "hit": false,
      "t": 188059.62000000023,
      "d": 1710.5869453125051,
      "v": 82
    },
    {
      "midi": 68,
      "hit": false,
      "t": 188059.62000000023,
      "d": 1710.5869453125051,
      "v": 104
    },
    {
      "midi": 63,
      "hit": false,
      "t": 188059.62000000023,
      "d": 1730.4096979166789,
      "v": 104
    },
    {
      "midi": 56,
      "hit": false,
      "t": 188059.62000000023,
      "d": 1750.2324505208526,
      "v": 79
    },
    {
      "midi": 51,
      "hit": false,
      "t": 188059.62000000023,
      "d": 1752.5645390625286,
      "v": 90
    },
    {
      "midi": 63,
      "hit": false,
      "t": 189850.66400000025,
      "d": 58.30221354166861,
      "v": 109
    },
    {
      "midi": 58,
      "hit": false,
      "t": 189850.66400000025,
      "d": 1570.6616328124946,
      "v": 114
    },
    {
      "midi": 55,
      "hit": false,
      "t": 189850.66400000025,
      "d": 1571.8276770833181,
      "v": 91
    },
    {
      "midi": 39,
      "hit": false,
      "t": 189850.66400000025,
      "d": 1609.1410937499895,
      "v": 109
    },
    {
      "midi": 51,
      "hit": false,
      "t": 189850.66400000025,
      "d": 1609.1410937499895,
      "v": 109
    },
    {
      "midi": 58,
      "hit": false,
      "t": 191641.70800000025,
      "d": 1471.547869791655,
      "v": 104
    },
    {
      "midi": 62,
      "hit": false,
      "t": 191641.70800000025,
      "d": 1471.547869791655,
      "v": 113
    },
    {
      "midi": 65,
      "hit": false,
      "t": 191641.70800000025,
      "d": 1489.0385338541528,
      "v": 103
    },
    {
      "midi": 46,
      "hit": false,
      "t": 191641.70800000025,
      "d": 1568.3295442708186,
      "v": 91
    },
    {
      "midi": 53,
      "hit": false,
      "t": 191641.70800000025,
      "d": 1568.3295442708186,
      "v": 91
    },
    {
      "midi": 63,
      "hit": false,
      "t": 193432.75200000024,
      "d": 58.30221354166861,
      "v": 117
    },
    {
      "midi": 67,
      "hit": false,
      "t": 193432.75200000024,
      "d": 1550.83888020835,
      "v": 107
    },
    {
      "midi": 48,
      "hit": false,
      "t": 193432.75200000024,
      "d": 1567.1635000000242,
      "v": 64
    },
    {
      "midi": 60,
      "hit": false,
      "t": 193432.75200000024,
      "d": 1568.3295442708477,
      "v": 110
    },
    {
      "midi": 51,
      "hit": false,
      "t": 193432.75200000024,
      "d": 1569.4955885416712,
      "v": 67
    },
    {
      "midi": 55,
      "hit": false,
      "t": 193432.75200000024,
      "d": 1585.8202083333454,
      "v": 80
    },
    {
      "midi": 60,
      "hit": false,
      "t": 195223.79600000026,
      "d": 1710.5869453125051,
      "v": 82
    },
    {
      "midi": 68,
      "hit": false,
      "t": 195223.79600000026,
      "d": 1710.5869453125051,
      "v": 104
    },
    {
      "midi": 63,
      "hit": false,
      "t": 195223.79600000026,
      "d": 1730.4096979166789,
      "v": 104
    },
    {
      "midi": 56,
      "hit": false,
      "t": 195223.79600000026,
      "d": 1750.2324505208526,
      "v": 79
    },
    {
      "midi": 51,
      "hit": false,
      "t": 195223.79600000026,
      "d": 1752.5645390625286,
      "v": 90
    },
    {
      "midi": 63,
      "hit": false,
      "t": 197014.8400000003,
      "d": 58.30221354166861,
      "v": 109
    },
    {
      "midi": 58,
      "hit": false,
      "t": 197014.8400000003,
      "d": 1570.6616328124946,
      "v": 114
    },
    {
      "midi": 55,
      "hit": false,
      "t": 197014.8400000003,
      "d": 1571.8276770833181,
      "v": 91
    },
    {
      "midi": 39,
      "hit": false,
      "t": 197014.8400000003,
      "d": 1609.1410937499895,
      "v": 109
    },
    {
      "midi": 51,
      "hit": false,
      "t": 197014.8400000003,
      "d": 1609.1410937499895,
      "v": 109
    },
    {
      "midi": 58,
      "hit": false,
      "t": 198805.88400000028,
      "d": 1471.547869791655,
      "v": 104
    },
    {
      "midi": 62,
      "hit": false,
      "t": 198805.88400000028,
      "d": 1471.547869791655,
      "v": 113
    },
    {
      "midi": 65,
      "hit": false,
      "t": 198805.88400000028,
      "d": 1489.0385338541528,
      "v": 103
    },
    {
      "midi": 46,
      "hit": false,
      "t": 198805.88400000028,
      "d": 1568.3295442708186,
      "v": 91
    },
    {
      "midi": 53,
      "hit": false,
      "t": 198805.88400000028,
      "d": 1568.3295442708186,
      "v": 91
    },
    {
      "midi": 63,
      "hit": false,
      "t": 200596.92800000028,
      "d": 58.30221354166861,
      "v": 117
    },
    {
      "midi": 67,
      "hit": false,
      "t": 200596.92800000028,
      "d": 1550.83888020835,
      "v": 107
    },
    {
      "midi": 48,
      "hit": false,
      "t": 200596.92800000028,
      "d": 1567.1635000000242,
      "v": 64
    },
    {
      "midi": 60,
      "hit": false,
      "t": 200596.92800000028,
      "d": 1568.3295442708477,
      "v": 110
    },
    {
      "midi": 51,
      "hit": false,
      "t": 200596.92800000028,
      "d": 1569.4955885416712,
      "v": 67
    },
    {
      "midi": 55,
      "hit": false,
      "t": 200596.92800000028,
      "d": 1585.8202083333454,
      "v": 80
    },
    {
      "midi": 60,
      "hit": false,
      "t": 202387.9720000003,
      "d": 1710.5869453125051,
      "v": 82
    },
    {
      "midi": 68,
      "hit": false,
      "t": 202387.9720000003,
      "d": 1710.5869453125051,
      "v": 104
    },
    {
      "midi": 63,
      "hit": false,
      "t": 202387.9720000003,
      "d": 1730.4096979166789,
      "v": 104
    },
    {
      "midi": 56,
      "hit": false,
      "t": 202387.9720000003,
      "d": 1750.2324505208526,
      "v": 79
    },
    {
      "midi": 51,
      "hit": false,
      "t": 202387.9720000003,
      "d": 1752.5645390625286,
      "v": 90
    },
    {
      "midi": 63,
      "hit": false,
      "t": 204179.01600000032,
      "d": 58.30221354166861,
      "v": 109
    },
    {
      "midi": 39,
      "hit": false,
      "t": 204179.01600000032,
      "d": 895.5219999999972,
      "v": 109
    },
    {
      "midi": 51,
      "hit": false,
      "t": 204179.01600000032,
      "d": 895.5219999999972,
      "v": 109
    },
    {
      "midi": 55,
      "hit": false,
      "t": 204179.01600000032,
      "d": 895.5219999999972,
      "v": 91
    },
    {
      "midi": 58,
      "hit": false,
      "t": 204179.01600000032,
      "d": 895.5219999999972,
      "v": 114
    },
    {
      "midi": 51,
      "hit": false,
      "t": 205074.53800000032,
      "d": 58.30221354166861,
      "v": 86
    },
    {
      "midi": 55,
      "hit": false,
      "t": 205074.53800000032,
      "d": 81.62309895834187,
      "v": 63
    },
    {
      "midi": 58,
      "hit": false,
      "t": 205074.53800000032,
      "d": 97.94771875001607,
      "v": 90
    },
    {
      "midi": 63,
      "hit": false,
      "t": 205074.53800000032,
      "d": 99.11376302083954,
      "v": 82
    },
    {
      "midi": 51,
      "hit": false,
      "t": 205298.41850000032,
      "d": 78.12496614584234,
      "v": 79
    },
    {
      "midi": 63,
      "hit": false,
      "t": 205298.41850000032,
      "d": 96.78167447916348,
      "v": 94
    },
    {
      "midi": 58,
      "hit": false,
      "t": 205298.41850000032,
      "d": 97.94771874998696,
      "v": 94
    },
    {
      "midi": 55,
      "hit": false,
      "t": 205298.41850000032,
      "d": 102.61189583330997,
      "v": 73
    },
    {
      "midi": 51,
      "hit": false,
      "t": 205522.2990000003,
      "d": 78.12496614584234,
      "v": 99
    },
    {
      "midi": 55,
      "hit": false,
      "t": 205522.2990000003,
      "d": 99.11376302083954,
      "v": 89
    },
    {
      "midi": 58,
      "hit": false,
      "t": 205522.2990000003,
      "d": 100.27980729166302,
      "v": 114
    },
    {
      "midi": 63,
      "hit": false,
      "t": 205522.2990000003,
      "d": 101.4458515624865,
      "v": 104
    },
    {
      "midi": 51,
      "hit": false,
      "t": 205746.1795000003,
      "d": 79.29101041666581,
      "v": 114
    },
    {
      "midi": 63,
      "hit": false,
      "t": 205746.1795000003,
      "d": 118.93651562501327,
      "v": 116
    },
    {
      "midi": 58,
      "hit": false,
      "t": 205746.1795000003,
      "d": 120.10255989583675,
      "v": 116
    },
    {
      "midi": 55,
      "hit": false,
      "t": 205746.1795000003,
      "d": 139.92531250001048,
      "v": 103
    }
  ]
}