{
  "jsonPath": "Soundtracks/Soundtrack/Steps/wouldnt-hurt-so-bad.json",
  "path": "Soundtracks\\Soundtrack\\Steps\\Wouldnt Hurt So Bad.mid",
  "name": "Wouldnt Hurt So Bad",
  "difficulty": "Advanced",
  "bpm": 63.000129150264755,
  "notes": [
    {
      "midi": 56,
      "hit": false,
      "t": 6857.140000000001,
      "d": 1696.4278645833347,
      "v": 90
    },
    {
      "midi": 63,
      "hit": false,
      "t": 6866.068567708335,
      "d": 1553.5707812500004,
      "v": 88
    },
    {
      "midi": 68,
      "hit": false,
      "t": 6866.068567708335,
      "d": 1562.499348958334,
      "v": 90
    },
    {
      "midi": 72,
      "hit": false,
      "t": 6874.997135416668,
      "d": 1571.4279166666674,
      "v": 93
    },
    {
      "midi": 68,
      "hit": false,
      "t": 8562.49643229167,
      "d": 1508.9279427083347,
      "v": 83
    },
    {
      "midi": 63,
      "hit": false,
      "t": 8571.425000000003,
      "d": 1535.7136458333352,
      "v": 83
    },
    {
      "midi": 72,
      "hit": false,
      "t": 8571.425000000003,
      "d": 1669.642161458336,
      "v": 90
    },
    {
      "midi": 56,
      "hit": false,
      "t": 8589.28213541667,
      "d": 1624.9993229166685,
      "v": 86
    },
    {
      "midi": 67,
      "hit": false,
      "t": 10258.924296875006,
      "d": 1580.356484375001,
      "v": 91
    },
    {
      "midi": 70,
      "hit": false,
      "t": 10267.85286458334,
      "d": 1544.642213541667,
      "v": 91
    },
    {
      "midi": 63,
      "hit": false,
      "t": 10267.85286458334,
      "d": 1553.5707812500004,
      "v": 86
    },
    {
      "midi": 55,
      "hit": false,
      "t": 10276.781432291673,
      "d": 1553.5707812500004,
      "v": 89
    },
    {
      "midi": 55,
      "hit": false,
      "t": 11937.495026041674,
      "d": 1749.9992708333357,
      "v": 85
    },
    {
      "midi": 67,
      "hit": false,
      "t": 11946.423593750007,
      "d": 1366.0708593750005,
      "v": 87
    },
    {
      "midi": 63,
      "hit": false,
      "t": 11955.35216145834,
      "d": 1374.999427083334,
      "v": 78
    },
    {
      "midi": 70,
      "hit": false,
      "t": 11955.35216145834,
      "d": 1419.6422656250015,
      "v": 87
    },
    {
      "midi": 65,
      "hit": false,
      "t": 13642.851458333342,
      "d": 1598.213619791668,
      "v": 94
    },
    {
      "midi": 53,
      "hit": false,
      "t": 13642.851458333342,
      "d": 1616.070755208335,
      "v": 94
    },
    {
      "midi": 68,
      "hit": false,
      "t": 13642.851458333342,
      "d": 1624.9993229166685,
      "v": 91
    },
    {
      "midi": 60,
      "hit": false,
      "t": 13651.780026041675,
      "d": 1562.499348958334,
      "v": 91
    },
    {
      "midi": 65,
      "hit": false,
      "t": 15339.279322916676,
      "d": 1696.4278645833347,
      "v": 89
    },
    {
      "midi": 68,
      "hit": false,
      "t": 15339.279322916676,
      "d": 1714.2850000000017,
      "v": 88
    },
    {
      "midi": 60,
      "hit": false,
      "t": 15357.136458333343,
      "d": 1642.8564583333336,
      "v": 91
    },
    {
      "midi": 53,
      "hit": false,
      "t": 15366.065026041677,
      "d": 1491.0708072916677,
      "v": 91
    },
    {
      "midi": 63,
      "hit": false,
      "t": 17116.06429687501,
      "d": 1580.3564843749919,
      "v": 93
    },
    {
      "midi": 68,
      "hit": false,
      "t": 17124.992864583342,
      "d": 1544.6422135416651,
      "v": 91
    },
    {
      "midi": 60,
      "hit": false,
      "t": 17124.992864583342,
      "d": 1553.5707812499968,
      "v": 86
    },
    {
      "midi": 51,
      "hit": false,
      "t": 17133.921432291674,
      "d": 1553.5707812499968,
      "v": 89
    },
    {
      "midi": 51,
      "hit": false,
      "t": 18794.63502604167,
      "d": 1749.9992708333266,
      "v": 85
    },
    {
      "midi": 63,
      "hit": false,
      "t": 18803.56359375,
      "d": 1535.7136458333298,
      "v": 87
    },
    {
      "midi": 67,
      "hit": false,
      "t": 18812.492161458333,
      "d": 1517.8565104166664,
      "v": 89
    },
    {
      "midi": 60,
      "hit": false,
      "t": 18812.492161458333,
      "d": 1642.8564583333318,
      "v": 78
    },
    {
      "midi": 68,
      "hit": false,
      "t": 20499.99145833333,
      "d": 1598.2136197916661,
      "v": 94
    },
    {
      "midi": 61,
      "hit": false,
      "t": 20499.99145833333,
      "d": 1616.0707552083331,
      "v": 94
    },
    {
      "midi": 73,
      "hit": false,
      "t": 20499.99145833333,
      "d": 1624.9993229166648,
      "v": 91
    },
    {
      "midi": 65,
      "hit": false,
      "t": 20508.920026041662,
      "d": 1562.4993489583358,
      "v": 91
    },
    {
      "midi": 68,
      "hit": false,
      "t": 22196.419322916663,
      "d": 1696.4278645833328,
      "v": 89
    },
    {
      "midi": 73,
      "hit": false,
      "t": 22196.419322916663,
      "d": 1714.2849999999999,
      "v": 88
    },
    {
      "midi": 65,
      "hit": false,
      "t": 22214.27645833333,
      "d": 1642.8564583333318,
      "v": 91
    },
    {
      "midi": 61,
      "hit": false,
      "t": 22223.20502604166,
      "d": 1624.9993229166685,
      "v": 91
    },
    {
      "midi": 65,
      "hit": false,
      "t": 23973.204296874996,
      "d": 1580.3564843749919,
      "v": 93
    },
    {
      "midi": 70,
      "hit": false,
      "t": 23982.132864583327,
      "d": 1544.6422135416651,
      "v": 91
    },
    {
      "midi": 61,
      "hit": false,
      "t": 23982.132864583327,
      "d": 1553.5707812499968,
      "v": 86
    },
    {
      "midi": 58,
      "hit": false,
      "t": 23991.06143229166,
      "d": 1553.5707812499968,
      "v": 89
    },
    {
      "midi": 58,
      "hit": false,
      "t": 25651.775026041654,
      "d": 1607.1421874999942,
      "v": 85
    },
    {
      "midi": 65,
      "hit": false,
      "t": 25660.703593749986,
      "d": 1535.7136458333298,
      "v": 87
    },
    {
      "midi": 70,
      "hit": false,
      "t": 25669.632161458318,
      "d": 1517.8565104166664,
      "v": 89
    },
    {
      "midi": 61,
      "hit": false,
      "t": 25669.632161458318,
      "d": 1642.8564583333318,
      "v": 78
    },
    {
      "midi": 63,
      "hit": false,
      "t": 27357.131458333315,
      "d": 1598.2136197916625,
      "v": 94
    },
    {
      "midi": 58,
      "hit": false,
      "t": 27357.131458333315,
      "d": 1616.0707552083295,
      "v": 89
    },
    {
      "midi": 68,
      "hit": false,
      "t": 27357.131458333315,
      "d": 1624.9993229166612,
      "v": 91
    },
    {
      "midi": 60,
      "hit": false,
      "t": 27366.060026041647,
      "d": 1562.4993489583321,
      "v": 91
    },
    {
      "midi": 63,
      "hit": false,
      "t": 29053.559322916644,
      "d": 1696.4278645833328,
      "v": 84
    },
    {
      "midi": 68,
      "hit": false,
      "t": 29053.559322916644,
      "d": 1714.2849999999999,
      "v": 83
    },
    {
      "midi": 60,
      "hit": false,
      "t": 29071.41645833331,
      "d": 1642.8564583333318,
      "v": 86
    },
    {
      "midi": 58,
      "hit": false,
      "t": 29080.345026041643,
      "d": 1491.0708072916677,
      "v": 81
    },
    {
      "midi": 63,
      "hit": false,
      "t": 30830.344296874977,
      "d": 1580.3564843749919,
      "v": 84
    },
    {
      "midi": 68,
      "hit": false,
      "t": 30839.27286458331,
      "d": 1544.6422135416651,
      "v": 82
    },
    {
      "midi": 60,
      "hit": false,
      "t": 30839.27286458331,
      "d": 1553.5707812499968,
      "v": 76
    },
    {
      "midi": 58,
      "hit": false,
      "t": 30848.20143229164,
      "d": 1553.5707812499968,
      "v": 74
    },
    {
      "midi": 58,
      "hit": false,
      "t": 32508.915026041635,
      "d": 1749.9992708333302,
      "v": 65
    },
    {
      "midi": 63,
      "hit": false,
      "t": 32517.843593749967,
      "d": 1535.7136458333334,
      "v": 72
    },
    {
      "midi": 68,
      "hit": false,
      "t": 32526.7721614583,
      "d": 1517.85651041667,
      "v": 74
    },
    {
      "midi": 60,
      "hit": false,
      "t": 32526.7721614583,
      "d": 1642.8564583333355,
      "v": 63
    },
    {
      "midi": 56,
      "hit": false,
      "t": 34285.69999999997,
      "d": 1696.4278645833256,
      "v": 90
    },
    {
      "midi": 44,
      "hit": false,
      "t": 34285.69999999997,
      "d": 3401.78429687499,
      "v": 106
    },
    {
      "midi": 63,
      "hit": false,
      "t": 34294.6285677083,
      "d": 1553.5707812499968,
      "v": 88
    },
    {
      "midi": 68,
      "hit": false,
      "t": 34294.6285677083,
      "d": 1562.4993489583285,
      "v": 90
    },
    {
      "midi": 72,
      "hit": false,
      "t": 34303.55713541663,
      "d": 1571.4279166666602,
      "v": 93
    },
    {
      "midi": 68,
      "hit": false,
      "t": 35991.056432291625,
      "d": 1508.927942708331,
      "v": 83
    },
    {
      "midi": 63,
      "hit": false,
      "t": 35999.98499999996,
      "d": 1535.7136458333334,
      "v": 83
    },
    {
      "midi": 72,
      "hit": false,
      "t": 35999.98499999996,
      "d": 1669.6421614583378,
      "v": 90
    },
    {
      "midi": 56,
      "hit": false,
      "t": 36017.84213541662,
      "d": 1624.999322916672,
      "v": 86
    },
    {
      "midi": 67,
      "hit": false,
      "t": 37687.48429687496,
      "d": 1580.3564843749919,
      "v": 91
    },
    {
      "midi": 70,
      "hit": false,
      "t": 37696.41286458329,
      "d": 1544.6422135416651,
      "v": 91
    },
    {
      "midi": 63,
      "hit": false,
      "t": 37696.41286458329,
      "d": 1553.5707812499968,
      "v": 86
    },
    {
      "midi": 55,
      "hit": false,
      "t": 37705.34143229162,
      "d": 1553.5707812499968,
      "v": 89
    },
    {
      "midi": 43,
      "hit": false,
      "t": 37714.26999999995,
      "d": 3401.784296874983,
      "v": 101
    },
    {
      "midi": 55,
      "hit": false,
      "t": 39366.05502604161,
      "d": 1749.999270833323,
      "v": 85
    },
    {
      "midi": 67,
      "hit": false,
      "t": 39374.983593749945,
      "d": 1366.070859374995,
      "v": 87
    },
    {
      "midi": 63,
      "hit": false,
      "t": 39383.91216145828,
      "d": 1374.9994270833267,
      "v": 78
    },
    {
      "midi": 70,
      "hit": false,
      "t": 39383.91216145828,
      "d": 1419.6422656249924,
      "v": 87
    },
    {
      "midi": 65,
      "hit": false,
      "t": 41071.41145833327,
      "d": 1598.2136197916698,
      "v": 94
    },
    {
      "midi": 53,
      "hit": false,
      "t": 41071.41145833327,
      "d": 1616.0707552083331,
      "v": 94
    },
    {
      "midi": 68,
      "hit": false,
      "t": 41071.41145833327,
      "d": 1624.9993229166648,
      "v": 91
    },
    {
      "midi": 60,
      "hit": false,
      "t": 41080.3400260416,
      "d": 1562.4993489583358,
      "v": 91
    },
    {
      "midi": 41,
      "hit": false,
      "t": 41142.83999999994,
      "d": 3401.7842968749974,
      "v": 105
    },
    {
      "midi": 65,
      "hit": false,
      "t": 42767.8393229166,
      "d": 1696.4278645833328,
      "v": 89
    },
    {
      "midi": 68,
      "hit": false,
      "t": 42767.8393229166,
      "d": 1714.2849999999962,
      "v": 88
    },
    {
      "midi": 60,
      "hit": false,
      "t": 42785.69645833327,
      "d": 1642.8564583333355,
      "v": 91
    },
    {
      "midi": 53,
      "hit": false,
      "t": 42794.6250260416,
      "d": 1491.0708072916677,
      "v": 91
    },
    {
      "midi": 63,
      "hit": false,
      "t": 44544.624296874936,
      "d": 1580.3564843749919,
      "v": 93
    },
    {
      "midi": 68,
      "hit": false,
      "t": 44553.55286458327,
      "d": 1544.6422135416651,
      "v": 91
    },
    {
      "midi": 60,
      "hit": false,
      "t": 44553.55286458327,
      "d": 1553.5707812499968,
      "v": 86
    },
    {
      "midi": 51,
      "hit": false,
      "t": 44562.4814322916,
      "d": 1553.5707812499968,
      "v": 89
    },
    {
      "midi": 39,
      "hit": false,
      "t": 44571.40999999993,
      "d": 3401.78429687499,
      "v": 106
    },
    {
      "midi": 51,
      "hit": false,
      "t": 46223.19502604159,
      "d": 1749.9992708333302,
      "v": 85
    },
    {
      "midi": 63,
      "hit": false,
      "t": 46232.12359374992,
      "d": 1535.7136458333334,
      "v": 87
    },
    {
      "midi": 67,
      "hit": false,
      "t": 46241.052161458254,
      "d": 1517.85651041667,
      "v": 89
    },
    {
      "midi": 60,
      "hit": false,
      "t": 46241.052161458254,
      "d": 1642.8564583333355,
      "v": 78
    },
    {
      "midi": 68,
      "hit": false,
      "t": 47928.551458333255,
      "d": 1598.2136197916698,
      "v": 94
    },
    {
      "midi": 61,
      "hit": false,
      "t": 47928.551458333255,
      "d": 1616.0707552083331,
      "v": 94
    },
    {
      "midi": 73,
      "hit": false,
      "t": 47928.551458333255,
      "d": 1624.9993229166648,
      "v": 91
    },
    {
      "midi": 65,
      "hit": false,
      "t": 47937.48002604159,
      "d": 1562.4993489583358,
      "v": 91
    },
    {
      "midi": 37,
      "hit": false,
      "t": 47999.97999999992,
      "d": 3401.78429687499,
      "v": 101
    },
    {
      "midi": 68,
      "hit": false,
      "t": 49624.97932291659,
      "d": 1696.4278645833256,
      "v": 89
    },
    {
      "midi": 73,
      "hit": false,
      "t": 49624.97932291659,
      "d": 1714.284999999989,
      "v": 88
    },
    {
      "midi": 65,
      "hit": false,
      "t": 49642.83645833325,
      "d": 1642.8564583333282,
      "v": 91
    },
    {
      "midi": 61,
      "hit": false,
      "t": 49651.76502604158,
      "d": 1624.9993229166648,
      "v": 91
    },
    {
      "midi": 49,
      "hit": false,
      "t": 50571.407499999914,
      "d": 830.3567968749994,
      "v": 89
    },
    {
      "midi": 68,
      "hit": false,
      "t": 51401.76429687491,
      "d": 1580.3564843749919,
      "v": 93
    },
    {
      "midi": 73,
      "hit": false,
      "t": 51410.692864583245,
      "d": 1544.6422135416651,
      "v": 91
    },
    {
      "midi": 65,
      "hit": false,
      "t": 51410.692864583245,
      "d": 1553.5707812499968,
      "v": 86
    },
    {
      "midi": 63,
      "hit": false,
      "t": 51419.62143229158,
      "d": 1553.5707812499968,
      "v": 89
    },
    {
      "midi": 39,
      "hit": false,
      "t": 51428.54999999991,
      "d": 3401.78429687499,
      "v": 101
    },
    {
      "midi": 51,
      "hit": false,
      "t": 51428.54999999991,
      "d": 3401.78429687499,
      "v": 90
    },
    {
      "midi": 63,
      "hit": false,
      "t": 53080.33502604157,
      "d": 1607.1421875000015,
      "v": 85
    },
    {
      "midi": 68,
      "hit": false,
      "t": 53089.2635937499,
      "d": 1535.7136458333334,
      "v": 87
    },
    {
      "midi": 73,
      "hit": false,
      "t": 53098.19216145823,
      "d": 1517.85651041667,
      "v": 89
    },
    {
      "midi": 65,
      "hit": false,
      "t": 53098.19216145823,
      "d": 1642.8564583333355,
      "v": 78
    },
    {
      "midi": 68,
      "hit": false,
      "t": 54785.69145833323,
      "d": 1598.2136197916698,
      "v": 94
    },
    {
      "midi": 56,
      "hit": false,
      "t": 54785.69145833323,
      "d": 1616.0707552083331,
      "v": 89
    },
    {
      "midi": 72,
      "hit": false,
      "t": 54785.69145833323,
      "d": 1624.9993229166648,
      "v": 91
    },
    {
      "midi": 63,
      "hit": false,
      "t": 54794.620026041564,
      "d": 1562.4993489583358,
      "v": 91
    },
    {
      "midi": 44,
      "hit": false,
      "t": 54857.1199999999,
      "d": 6830.3542968749825,
      "v": 102
    },
    {
      "midi": 68,
      "hit": false,
      "t": 56482.119322916566,
      "d": 1696.4278645833328,
      "v": 89
    },
    {
      "midi": 72,
      "hit": false,
      "t": 56482.119322916566,
      "d": 1714.2849999999962,
      "v": 88
    },
    {
      "midi": 63,
      "hit": false,
      "t": 56499.97645833323,
      "d": 1642.8564583333355,
      "v": 91
    },
    {
      "midi": 56,
      "hit": false,
      "t": 56508.90502604156,
      "d": 1491.0708072916677,
      "v": 86
    },
    {
      "midi": 68,
      "hit": false,
      "t": 58258.9042968749,
      "d": 1580.3564843749919,
      "v": 93
    },
    {
      "midi": 72,
      "hit": false,
      "t": 58267.83286458323,
      "d": 1544.6422135416651,
      "v": 91
    },
    {
      "midi": 63,
      "hit": false,
      "t": 58267.83286458323,
      "d": 1553.5707812499968,
      "v": 86
    },
    {
      "midi": 56,
      "hit": false,
      "t": 58276.76143229156,
      "d": 1553.5707812499968,
      "v": 84
    },
    {
      "midi": 56,
      "hit": false,
      "t": 59937.47502604155,
      "d": 1749.9992708333302,
      "v": 80
    },
    {
      "midi": 68,
      "hit": false,
      "t": 59946.403593749885,
      "d": 1535.7136458333334,
      "v": 87
    },
    {
      "midi": 72,
      "hit": false,
      "t": 59955.33216145822,
      "d": 1517.85651041667,
      "v": 89
    },
    {
      "midi": 63,
      "hit": false,
      "t": 59955.33216145822,
      "d": 1642.8564583333355,
      "v": 78
    },
    {
      "midi": 56,
      "hit": false,
      "t": 61714.259999999886,
      "d": 1696.4278645833256,
      "v": 90
    },
    {
      "midi": 44,
      "hit": false,
      "t": 61714.259999999886,
      "d": 3401.78429687499,
      "v": 106
    },
    {
      "midi": 63,
      "hit": false,
      "t": 61723.18856770822,
      "d": 1553.5707812499968,
      "v": 88
    },
    {
      "midi": 68,
      "hit": false,
      "t": 61723.18856770822,
      "d": 1562.4993489583285,
      "v": 90
    },
    {
      "midi": 72,
      "hit": false,
      "t": 61732.11713541655,
      "d": 1571.4279166666602,
      "v": 93
    },
    {
      "midi": 68,
      "hit": false,
      "t": 63419.61643229154,
      "d": 1508.927942708331,
      "v": 83
    },
    {
      "midi": 63,
      "hit": false,
      "t": 63428.544999999875,
      "d": 1535.7136458333334,
      "v": 83
    },
    {
      "midi": 72,
      "hit": false,
      "t": 63428.544999999875,
      "d": 1669.6421614583378,
      "v": 90
    },
    {
      "midi": 56,
      "hit": false,
      "t": 63446.40213541654,
      "d": 1624.999322916672,
      "v": 86
    },
    {
      "midi": 67,
      "hit": false,
      "t": 65116.044296874876,
      "d": 1580.3564843750137,
      "v": 91
    },
    {
      "midi": 70,
      "hit": false,
      "t": 65124.97286458321,
      "d": 1544.6422135416651,
      "v": 91
    },
    {
      "midi": 63,
      "hit": false,
      "t": 65124.97286458321,
      "d": 1553.570781250004,
      "v": 86
    },
    {
      "midi": 55,
      "hit": false,
      "t": 65133.90143229154,
      "d": 1553.5707812500114,
      "v": 89
    },
    {
      "midi": 43,
      "hit": false,
      "t": 65142.82999999987,
      "d": 3401.784296875019,
      "v": 101
    },
    {
      "midi": 55,
      "hit": false,
      "t": 66794.61502604156,
      "d": 1749.9992708333302,
      "v": 85
    },
    {
      "midi": 67,
      "hit": false,
      "t": 66803.5435937499,
      "d": 1366.0708593750023,
      "v": 87
    },
    {
      "midi": 63,
      "hit": false,
      "t": 66812.47216145824,
      "d": 1374.9994270833267,
      "v": 78
    },
    {
      "midi": 70,
      "hit": false,
      "t": 66812.47216145824,
      "d": 1419.6422656249924,
      "v": 87
    },
    {
      "midi": 65,
      "hit": false,
      "t": 68499.97145833322,
      "d": 1598.2136197916698,
      "v": 94
    },
    {
      "midi": 53,
      "hit": false,
      "t": 68499.97145833322,
      "d": 1616.0707552083331,
      "v": 94
    },
    {
      "midi": 68,
      "hit": false,
      "t": 68499.97145833322,
      "d": 1624.999322916672,
      "v": 91
    },
    {
      "midi": 60,
      "hit": false,
      "t": 68508.90002604156,
      "d": 1562.4993489583285,
      "v": 91
    },
    {
      "midi": 41,
      "hit": false,
      "t": 68571.39999999989,
      "d": 3401.78429687499,
      "v": 105
    },
    {
      "midi": 65,
      "hit": false,
      "t": 70196.39932291656,
      "d": 1696.4278645833256,
      "v": 89
    },
    {
      "midi": 68,
      "hit": false,
      "t": 70196.39932291656,
      "d": 1714.284999999989,
      "v": 88
    },
    {
      "midi": 60,
      "hit": false,
      "t": 70214.25645833323,
      "d": 1642.8564583333355,
      "v": 91
    },
    {
      "midi": 53,
      "hit": false,
      "t": 70223.18502604157,
      "d": 1491.0708072916605,
      "v": 91
    },
    {
      "midi": 63,
      "hit": false,
      "t": 71973.18429687488,
      "d": 1580.3564843750355,
      "v": 93
    },
    {
      "midi": 68,
      "hit": false,
      "t": 71982.11286458322,
      "d": 1544.6422135416797,
      "v": 91
    },
    {
      "midi": 60,
      "hit": false,
      "t": 71982.11286458322,
      "d": 1553.5707812500186,
      "v": 86
    },
    {
      "midi": 51,
      "hit": false,
      "t": 71991.04143229156,
      "d": 1553.5707812500186,
      "v": 89
    },
    {
      "midi": 39,
      "hit": false,
      "t": 71999.9699999999,
      "d": 3401.7842968750338,
      "v": 106
    },
    {
      "midi": 51,
      "hit": false,
      "t": 73651.75502604159,
      "d": 1749.9992708333448,
      "v": 85
    },
    {
      "midi": 63,
      "hit": false,
      "t": 73660.68359374993,
      "d": 1535.7136458333407,
      "v": 87
    },
    {
      "midi": 67,
      "hit": false,
      "t": 73669.61216145827,
      "d": 1517.8565104166628,
      "v": 89
    },
    {
      "midi": 60,
      "hit": false,
      "t": 73669.61216145827,
      "d": 1642.8564583333355,
      "v": 78
    },
    {
      "midi": 68,
      "hit": false,
      "t": 75357.11145833327,
      "d": 1598.2136197916698,
      "v": 94
    },
    {
      "midi": 61,
      "hit": false,
      "t": 75357.11145833327,
      "d": 1616.0707552083331,
      "v": 94
    },
    {
      "midi": 73,
      "hit": false,
      "t": 75357.11145833327,
      "d": 1624.999322916672,
      "v": 91
    },
    {
      "midi": 65,
      "hit": false,
      "t": 75366.0400260416,
      "d": 1562.4993489583285,
      "v": 91
    },
    {
      "midi": 37,
      "hit": false,
      "t": 75428.53999999994,
      "d": 3401.78429687499,
      "v": 101
    },
    {
      "midi": 68,
      "hit": false,
      "t": 77053.53932291661,
      "d": 1696.4278645833256,
      "v": 89
    },
    {
      "midi": 73,
      "hit": false,
      "t": 77053.53932291661,
      "d": 1714.284999999989,
      "v": 88
    },
    {
      "midi": 65,
      "hit": false,
      "t": 77071.39645833327,
      "d": 1642.8564583333355,
      "v": 91
    },
    {
      "midi": 61,
      "hit": false,
      "t": 77080.32502604161,
      "d": 1624.9993229166575,
      "v": 91
    },
    {
      "midi": 49,
      "hit": false,
      "t": 77999.96749999994,
      "d": 830.3567968749849,
      "v": 89
    },
    {
      "midi": 68,
      "hit": false,
      "t": 78830.32429687493,
      "d": 1580.3564843750355,
      "v": 93
    },
    {
      "midi": 73,
      "hit": false,
      "t": 78839.25286458326,
      "d": 1544.6422135416797,
      "v": 91
    },
    {
      "midi": 65,
      "hit": false,
      "t": 78839.25286458326,
      "d": 1553.5707812500186,
      "v": 86
    },
    {
      "midi": 63,
      "hit": false,
      "t": 78848.1814322916,
      "d": 1553.5707812500186,
      "v": 89
    },
    {
      "midi": 39,
      "hit": false,
      "t": 78857.10999999994,
      "d": 3401.7842968750338,
      "v": 101
    },
    {
      "midi": 51,
      "hit": false,
      "t": 78857.10999999994,
      "d": 3401.7842968750338,
      "v": 90
    },
    {
      "midi": 63,
      "hit": false,
      "t": 80508.89502604163,
      "d": 1607.1421875000087,
      "v": 85
    },
    {
      "midi": 68,
      "hit": false,
      "t": 80517.82359374997,
      "d": 1535.7136458333407,
      "v": 87
    },
    {
      "midi": 73,
      "hit": false,
      "t": 80526.75216145831,
      "d": 1517.8565104166628,
      "v": 89
    },
    {
      "midi": 65,
      "hit": false,
      "t": 80526.75216145831,
      "d": 1642.8564583333355,
      "v": 78
    },
    {
      "midi": 68,
      "hit": false,
      "t": 82214.25145833331,
      "d": 1598.2136197916698,
      "v": 94
    },
    {
      "midi": 56,
      "hit": false,
      "t": 82214.25145833331,
      "d": 1616.0707552083331,
      "v": 89
    },
    {
      "midi": 72,
      "hit": false,
      "t": 82214.25145833331,
      "d": 1624.999322916672,
      "v": 91
    },
    {
      "midi": 63,
      "hit": false,
      "t": 82223.18002604165,
      "d": 1562.4993489583285,
      "v": 91
    },
    {
      "midi": 44,
      "hit": false,
      "t": 82285.67999999998,
      "d": 6830.354296875041,
      "v": 102
    },
    {
      "midi": 68,
      "hit": false,
      "t": 83910.67932291665,
      "d": 1696.4278645833256,
      "v": 89
    },
    {
      "midi": 72,
      "hit": false,
      "t": 83910.67932291665,
      "d": 1714.284999999989,
      "v": 88
    },
    {
      "midi": 63,
      "hit": false,
      "t": 83928.53645833331,
      "d": 1642.8564583333355,
      "v": 91
    },
    {
      "midi": 56,
      "hit": false,
      "t": 83937.46502604165,
      "d": 1491.0708072916605,
      "v": 86
    },
    {
      "midi": 68,
      "hit": false,
      "t": 85687.46429687497,
      "d": 1580.3564843750355,
      "v": 93
    },
    {
      "midi": 72,
      "hit": false,
      "t": 85696.39286458331,
      "d": 1544.6422135416797,
      "v": 91
    },
    {
      "midi": 63,
      "hit": false,
      "t": 85696.39286458331,
      "d": 1553.5707812500186,
      "v": 86
    },
    {
      "midi": 56,
      "hit": false,
      "t": 85705.32143229165,
      "d": 1553.5707812500186,
      "v": 84
    },
    {
      "midi": 56,
      "hit": false,
      "t": 87366.03502604167,
      "d": 1749.9992708333448,
      "v": 80
    },
    {
      "midi": 68,
      "hit": false,
      "t": 87374.96359375001,
      "d": 1535.7136458333407,
      "v": 87
    },
    {
      "midi": 72,
      "hit": false,
      "t": 87383.89216145835,
      "d": 1517.8565104166628,
      "v": 89
    },
    {
      "midi": 63,
      "hit": false,
      "t": 87383.89216145835,
      "d": 1642.8564583333355,
      "v": 78
    },
    {
      "midi": 39,
      "hit": false,
      "t": 87428.53500000002,
      "d": 1687.4992968750012,
      "v": 99
    },
    {
      "midi": 56,
      "hit": false,
      "t": 89142.82000000002,
      "d": 1696.4278645833401,
      "v": 90
    },
    {
      "midi": 44,
      "hit": false,
      "t": 89142.82000000002,
      "d": 3401.7842968750047,
      "v": 106
    },
    {
      "midi": 63,
      "hit": false,
      "t": 89151.74856770836,
      "d": 1553.570781250004,
      "v": 88
    },
    {
      "midi": 68,
      "hit": false,
      "t": 89151.74856770836,
      "d": 1562.499348958343,
      "v": 90
    },
    {
      "midi": 72,
      "hit": false,
      "t": 89160.6771354167,
      "d": 1571.4279166666674,
      "v": 93
    },
    {
      "midi": 68,
      "hit": false,
      "t": 90848.1764322917,
      "d": 1508.9279427083384,
      "v": 83
    },
    {
      "midi": 63,
      "hit": false,
      "t": 90857.10500000004,
      "d": 1535.7136458333262,
      "v": 83
    },
    {
      "midi": 72,
      "hit": false,
      "t": 90857.10500000004,
      "d": 1669.6421614583232,
      "v": 90
    },
    {
      "midi": 56,
      "hit": false,
      "t": 90874.9621354167,
      "d": 1624.9993229166575,
      "v": 86
    },
    {
      "midi": 67,
      "hit": false,
      "t": 92544.60429687503,
      "d": 1580.3564843750355,
      "v": 91
    },
    {
      "midi": 70,
      "hit": false,
      "t": 92553.53286458337,
      "d": 1544.6422135416797,
      "v": 91
    },
    {
      "midi": 63,
      "hit": false,
      "t": 92553.53286458337,
      "d": 1553.5707812500186,
      "v": 86
    },
    {
      "midi": 55,
      "hit": false,
      "t": 92562.4614322917,
      "d": 1553.5707812500186,
      "v": 89
    },
    {
      "midi": 43,
      "hit": false,
      "t": 92571.39000000004,
      "d": 3401.784296875019,
      "v": 101
    },
    {
      "midi": 55,
      "hit": false,
      "t": 94223.17502604173,
      "d": 1749.9992708333302,
      "v": 85
    },
    {
      "midi": 67,
      "hit": false,
      "t": 94232.10359375007,
      "d": 1366.0708593750023,
      "v": 87
    },
    {
      "midi": 63,
      "hit": false,
      "t": 94241.03216145841,
      "d": 1374.9994270833267,
      "v": 78
    },
    {
      "midi": 70,
      "hit": false,
      "t": 94241.03216145841,
      "d": 1419.6422656249924,
      "v": 87
    },
    {
      "midi": 65,
      "hit": false,
      "t": 95928.5314583334,
      "d": 1598.2136197916698,
      "v": 94
    },
    {
      "midi": 53,
      "hit": false,
      "t": 95928.5314583334,
      "d": 1616.0707552083331,
      "v": 94
    },
    {
      "midi": 68,
      "hit": false,
      "t": 95928.5314583334,
      "d": 1624.999322916672,
      "v": 91
    },
    {
      "midi": 60,
      "hit": false,
      "t": 95937.46002604174,
      "d": 1562.4993489583285,
      "v": 91
    },
    {
      "midi": 41,
      "hit": false,
      "t": 95999.96000000006,
      "d": 3401.78429687499,
      "v": 105
    },
    {
      "midi": 65,
      "hit": false,
      "t": 97624.95932291674,
      "d": 1696.4278645833256,
      "v": 89
    },
    {
      "midi": 68,
      "hit": false,
      "t": 97624.95932291674,
      "d": 1714.284999999989,
      "v": 88
    },
    {
      "midi": 60,
      "hit": false,
      "t": 97642.8164583334,
      "d": 1642.8564583333355,
      "v": 91
    },
    {
      "midi": 53,
      "hit": false,
      "t": 97651.74502604174,
      "d": 1491.0708072916605,
      "v": 91
    },
    {
      "midi": 63,
      "hit": false,
      "t": 99401.74429687505,
      "d": 1580.3564843750355,
      "v": 93
    },
    {
      "midi": 68,
      "hit": false,
      "t": 99410.6728645834,
      "d": 1544.6422135416797,
      "v": 91
    },
    {
      "midi": 60,
      "hit": false,
      "t": 99410.6728645834,
      "d": 1553.5707812500186,
      "v": 86
    },
    {
      "midi": 51,
      "hit": false,
      "t": 99419.60143229173,
      "d": 1553.5707812500186,
      "v": 89
    },
    {
      "midi": 39,
      "hit": false,
      "t": 99428.53000000007,
      "d": 1687.4992968750303,
      "v": 106
    },
    {
      "midi": 51,
      "hit": false,
      "t": 101080.31502604176,
      "d": 1749.9992708333448,
      "v": 85
    },
    {
      "midi": 63,
      "hit": false,
      "t": 101089.2435937501,
      "d": 1535.7136458333407,
      "v": 87
    },
    {
      "midi": 67,
      "hit": false,
      "t": 101098.17216145844,
      "d": 1517.8565104166628,
      "v": 89
    },
    {
      "midi": 60,
      "hit": false,
      "t": 101098.17216145844,
      "d": 1642.8564583333355,
      "v": 78
    },
    {
      "midi": 48,
      "hit": false,
      "t": 101142.8150000001,
      "d": 1687.4992968750012,
      "v": 102
    },
    {
      "midi": 70,
      "hit": false,
      "t": 102785.67145833344,
      "d": 1598.2136197916698,
      "v": 94
    },
    {
      "midi": 61,
      "hit": false,
      "t": 102785.67145833344,
      "d": 1616.0707552083331,
      "v": 94
    },
    {
      "midi": 73,
      "hit": false,
      "t": 102785.67145833344,
      "d": 1624.999322916672,
      "v": 91
    },
    {
      "midi": 65,
      "hit": false,
      "t": 102794.60002604178,
      "d": 1562.4993489583285,
      "v": 91
    },
    {
      "midi": 46,
      "hit": false,
      "t": 102857.10000000011,
      "d": 3401.7842968750047,
      "v": 101
    },
    {
      "midi": 70,
      "hit": false,
      "t": 104482.09932291678,
      "d": 1696.4278645833401,
      "v": 89
    },
    {
      "midi": 73,
      "hit": false,
      "t": 104482.09932291678,
      "d": 1714.2850000000035,
      "v": 88
    },
    {
      "midi": 65,
      "hit": false,
      "t": 104499.95645833344,
      "d": 1642.85645833335,
      "v": 91
    },
    {
      "midi": 61,
      "hit": false,
      "t": 104508.88502604178,
      "d": 1624.999322916672,
      "v": 91
    },
    {
      "midi": 70,
      "hit": false,
      "t": 106258.88429687511,
      "d": 1580.3564843750355,
      "v": 93
    },
    {
      "midi": 73,
      "hit": false,
      "t": 106267.81286458345,
      "d": 1544.6422135416797,
      "v": 91
    },
    {
      "midi": 65,
      "hit": false,
      "t": 106267.81286458345,
      "d": 1553.5707812500186,
      "v": 86
    },
    {
      "midi": 61,
      "hit": false,
      "t": 106276.74143229179,
      "d": 1553.5707812500186,
      "v": 89
    },
    {
      "midi": 46,
      "hit": false,
      "t": 106285.67000000013,
      "d": 1687.4992968750303,
      "v": 101
    },
    {
      "midi": 61,
      "hit": false,
      "t": 107937.45502604182,
      "d": 1607.1421875000087,
      "v": 85
    },
    {
      "midi": 68,
      "hit": false,
      "t": 107946.38359375016,
      "d": 1535.7136458333407,
      "v": 87
    },
    {
      "midi": 73,
      "hit": false,
      "t": 107955.3121614585,
      "d": 1517.8565104166628,
      "v": 89
    },
    {
      "midi": 65,
      "hit": false,
      "t": 107955.3121614585,
      "d": 1642.8564583333355,
      "v": 78
    },
    {
      "midi": 44,
      "hit": false,
      "t": 107999.95500000016,
      "d": 1687.4992968750012,
      "v": 102
    },
    {
      "midi": 70,
      "hit": false,
      "t": 109642.8114583335,
      "d": 1598.2136197916698,
      "v": 94
    },
    {
      "midi": 58,
      "hit": false,
      "t": 109642.8114583335,
      "d": 1616.0707552083331,
      "v": 89
    },
    {
      "midi": 73,
      "hit": false,
      "t": 109642.8114583335,
      "d": 1624.999322916672,
      "v": 91
    },
    {
      "midi": 66,
      "hit": false,
      "t": 109651.74002604184,
      "d": 1562.4993489583285,
      "v": 91
    },
    {
      "midi": 42,
      "hit": false,
      "t": 109714.24000000017,
      "d": 5116.069296875023,
      "v": 102
    },
    {
      "midi": 70,
      "hit": false,
      "t": 111339.23932291684,
      "d": 1696.4278645833256,
      "v": 89
    },
    {
      "midi": 73,
      "hit": false,
      "t": 111339.23932291684,
      "d": 1714.284999999989,
      "v": 88
    },
    {
      "midi": 66,
      "hit": false,
      "t": 111357.0964583335,
      "d": 1642.8564583333355,
      "v": 91
    },
    {
      "midi": 58,
      "hit": false,
      "t": 111366.02502604184,
      "d": 1491.0708072916605,
      "v": 86
    },
    {
      "midi": 70,
      "hit": false,
      "t": 113116.02429687516,
      "d": 1580.356484375021,
      "v": 93
    },
    {
      "midi": 73,
      "hit": false,
      "t": 113124.9528645835,
      "d": 1544.6422135416651,
      "v": 91
    },
    {
      "midi": 66,
      "hit": false,
      "t": 113124.9528645835,
      "d": 1553.570781250004,
      "v": 86
    },
    {
      "midi": 58,
      "hit": false,
      "t": 113133.88143229183,
      "d": 1553.570781250004,
      "v": 84
    },
    {
      "midi": 58,
      "hit": false,
      "t": 114794.59502604185,
      "d": 1749.9992708333448,
      "v": 80
    },
    {
      "midi": 67,
      "hit": false,
      "t": 114803.52359375019,
      "d": 1535.7136458333407,
      "v": 87
    },
    {
      "midi": 70,
      "hit": false,
      "t": 114812.45216145852,
      "d": 1517.8565104166628,
      "v": 89
    },
    {
      "midi": 63,
      "hit": false,
      "t": 114812.45216145852,
      "d": 1642.8564583333355,
      "v": 78
    },
    {
      "midi": 51,
      "hit": false,
      "t": 114857.09500000019,
      "d": 1687.4992968750012,
      "v": 102
    },
    {
      "midi": 56,
      "hit": false,
      "t": 116571.3800000002,
      "d": 1696.4278645833401,
      "v": 90
    },
    {
      "midi": 44,
      "hit": false,
      "t": 116571.3800000002,
      "d": 3401.7842968750047,
      "v": 106
    },
    {
      "midi": 63,
      "hit": false,
      "t": 116580.30856770853,
      "d": 1553.570781250004,
      "v": 88
    },
    {
      "midi": 68,
      "hit": false,
      "t": 116580.30856770853,
      "d": 1562.499348958343,
      "v": 90
    },
    {
      "midi": 72,
      "hit": false,
      "t": 116589.23713541687,
      "d": 1571.4279166666674,
      "v": 93
    },
    {
      "midi": 68,
      "hit": false,
      "t": 118276.73643229187,
      "d": 1508.9279427083384,
      "v": 83
    },
    {
      "midi": 63,
      "hit": false,
      "t": 118285.66500000021,
      "d": 1535.7136458333262,
      "v": 83
    },
    {
      "midi": 72,
      "hit": false,
      "t": 118285.66500000021,
      "d": 1669.6421614583232,
      "v": 90
    },
    {
      "midi": 56,
      "hit": false,
      "t": 118303.52213541688,
      "d": 1624.9993229166575,
      "v": 86
    },
    {
      "midi": 67,
      "hit": false,
      "t": 119973.1642968752,
      "d": 1580.3564843750355,
      "v": 91
    },
    {
      "midi": 70,
      "hit": false,
      "t": 119982.09286458354,
      "d": 1544.6422135416797,
      "v": 91
    },
    {
      "midi": 63,
      "hit": false,
      "t": 119982.09286458354,
      "d": 1553.5707812500186,
      "v": 86
    },
    {
      "midi": 55,
      "hit": false,
      "t": 119991.02143229188,
      "d": 1553.5707812500186,
      "v": 89
    },
    {
      "midi": 43,
      "hit": false,
      "t": 119999.95000000022,
      "d": 3401.784296875019,
      "v": 101
    },
    {
      "midi": 55,
      "hit": false,
      "t": 121651.7350260419,
      "d": 1749.9992708333302,
      "v": 85
    },
    {
      "midi": 67,
      "hit": false,
      "t": 121660.66359375024,
      "d": 1366.0708593750023,
      "v": 87
    },
    {
      "midi": 63,
      "hit": false,
      "t": 121669.59216145858,
      "d": 1374.9994270833267,
      "v": 78
    },
    {
      "midi": 70,
      "hit": false,
      "t": 121669.59216145858,
      "d": 1419.6422656249924,
      "v": 87
    },
    {
      "midi": 65,
      "hit": false,
      "t": 123357.09145833357,
      "d": 1598.2136197916698,
      "v": 94
    },
    {
      "midi": 53,
      "hit": false,
      "t": 123357.09145833357,
      "d": 1616.0707552083331,
      "v": 94
    },
    {
      "midi": 68,
      "hit": false,
      "t": 123357.09145833357,
      "d": 1624.999322916672,
      "v": 91
    },
    {
      "midi": 60,
      "hit": false,
      "t": 123366.02002604191,
      "d": 1562.4993489583285,
      "v": 91
    },
    {
      "midi": 41,
      "hit": false,
      "t": 123428.52000000024,
      "d": 3401.78429687499,
      "v": 105
    },
    {
      "midi": 65,
      "hit": false,
      "t": 125053.51932291691,
      "d": 1696.4278645833256,
      "v": 89
    },
    {
      "midi": 68,
      "hit": false,
      "t": 125053.51932291691,
      "d": 1714.284999999989,
      "v": 88
    },
    {
      "midi": 60,
      "hit": false,
      "t": 125071.37645833357,
      "d": 1642.8564583333355,
      "v": 91
    },
    {
      "midi": 53,
      "hit": false,
      "t": 125080.30502604191,
      "d": 1491.0708072916605,
      "v": 91
    },
    {
      "midi": 63,
      "hit": false,
      "t": 126830.30429687523,
      "d": 1580.3564843750355,
      "v": 93
    },
    {
      "midi": 68,
      "hit": false,
      "t": 126839.23286458357,
      "d": 1544.6422135416797,
      "v": 91
    },
    {
      "midi": 60,
      "hit": false,
      "t": 126839.23286458357,
      "d": 1553.5707812500186,
      "v": 86
    },
    {
      "midi": 51,
      "hit": false,
      "t": 126848.1614322919,
      "d": 1553.5707812500186,
      "v": 89
    },
    {
      "midi": 39,
      "hit": false,
      "t": 126857.09000000024,
      "d": 1687.4992968750303,
      "v": 106
    },
    {
      "midi": 51,
      "hit": false,
      "t": 128508.87502604193,
      "d": 1749.9992708333448,
      "v": 85
    },
    {
      "midi": 63,
      "hit": false,
      "t": 128517.80359375027,
      "d": 1535.7136458333407,
      "v": 87
    },
    {
      "midi": 67,
      "hit": false,
      "t": 128526.73216145861,
      "d": 1517.8565104166628,
      "v": 89
    },
    {
      "midi": 60,
      "hit": false,
      "t": 128526.73216145861,
      "d": 1642.8564583333355,
      "v": 78
    },
    {
      "midi": 48,
      "hit": false,
      "t": 128571.37500000028,
      "d": 1687.4992968750012,
      "v": 102
    },
    {
      "midi": 70,
      "hit": false,
      "t": 130214.23145833361,
      "d": 1598.2136197916698,
      "v": 94
    },
    {
      "midi": 61,
      "hit": false,
      "t": 130214.23145833361,
      "d": 1616.0707552083477,
      "v": 94
    },
    {
      "midi": 73,
      "hit": false,
      "t": 130214.23145833361,
      "d": 1624.999322916672,
      "v": 91
    },
    {
      "midi": 65,
      "hit": false,
      "t": 130223.16002604195,
      "d": 1562.4993489583285,
      "v": 91
    },
    {
      "midi": 46,
      "hit": false,
      "t": 130285.66000000028,
      "d": 3401.78429687499,
      "v": 101
    },
    {
      "midi": 70,
      "hit": false,
      "t": 131910.65932291694,
      "d": 1696.4278645833256,
      "v": 89
    },
    {
      "midi": 73,
      "hit": false,
      "t": 131910.65932291694,
      "d": 1714.2850000000035,
      "v": 88
    },
    {
      "midi": 65,
      "hit": false,
      "t": 131928.51645833362,
      "d": 1642.856458333321,
      "v": 91
    },
    {
      "midi": 61,
      "hit": false,
      "t": 131937.44502604194,
      "d": 1624.999322916672,
      "v": 91
    },
    {
      "midi": 70,
      "hit": false,
      "t": 133687.44429687527,
      "d": 1580.3564843749336,
      "v": 93
    },
    {
      "midi": 73,
      "hit": false,
      "t": 133696.3728645836,
      "d": 1544.642213541636,
      "v": 91
    },
    {
      "midi": 65,
      "hit": false,
      "t": 133696.3728645836,
      "d": 1553.5707812499604,
      "v": 86
    },
    {
      "midi": 61,
      "hit": false,
      "t": 133705.30143229192,
      "d": 1553.5707812499604,
      "v": 89
    },
    {
      "midi": 46,
      "hit": false,
      "t": 133714.23000000024,
      "d": 1687.499296874943,
      "v": 101
    },
    {
      "midi": 61,
      "hit": false,
      "t": 135366.01502604186,
      "d": 1607.1421874999942,
      "v": 85
    },
    {
      "midi": 68,
      "hit": false,
      "t": 135374.94359375018,
      "d": 1535.7136458333407,
      "v": 87
    },
    {
      "midi": 73,
      "hit": false,
      "t": 135383.8721614585,
      "d": 1517.856510416692,
      "v": 89
    },
    {
      "midi": 65,
      "hit": false,
      "t": 135383.8721614585,
      "d": 1642.85645833335,
      "v": 78
    },
    {
      "midi": 44,
      "hit": false,
      "t": 135428.5150000002,
      "d": 1687.4992968750012,
      "v": 102
    },
    {
      "midi": 70,
      "hit": false,
      "t": 137071.37145833354,
      "d": 1598.2136197916698,
      "v": 94
    },
    {
      "midi": 58,
      "hit": false,
      "t": 137071.37145833354,
      "d": 1616.0707552083477,
      "v": 89
    },
    {
      "midi": 73,
      "hit": false,
      "t": 137071.37145833354,
      "d": 1624.999322916672,
      "v": 91
    },
    {
      "midi": 66,
      "hit": false,
      "t": 137080.30002604186,
      "d": 1562.499348958343,
      "v": 91
    },
    {
      "midi": 42,
      "hit": false,
      "t": 137142.8000000002,
      "d": 6830.354296874924,
      "v": 102
    },
    {
      "midi": 70,
      "hit": false,
      "t": 138767.79932291686,
      "d": 1696.4278645833256,
      "v": 89
    },
    {
      "midi": 73,
      "hit": false,
      "t": 138767.79932291686,
      "d": 1714.2850000000035,
      "v": 88
    },
    {
      "midi": 66,
      "hit": false,
      "t": 138785.65645833354,
      "d": 1642.856458333321,
      "v": 91
    },
    {
      "midi": 58,
      "hit": false,
      "t": 138794.58502604187,
      "d": 1491.0708072916605,
      "v": 86
    },
    {
      "midi": 70,
      "hit": false,
      "t": 140544.5842968752,
      "d": 1580.3564843749627,
      "v": 93
    },
    {
      "midi": 73,
      "hit": false,
      "t": 140553.51286458352,
      "d": 1544.6422135416651,
      "v": 91
    },
    {
      "midi": 66,
      "hit": false,
      "t": 140553.51286458352,
      "d": 1553.5707812499895,
      "v": 86
    },
    {
      "midi": 58,
      "hit": false,
      "t": 140562.44143229185,
      "d": 1553.5707812499895,
      "v": 84
    },
    {
      "midi": 58,
      "hit": false,
      "t": 142223.15502604182,
      "d": 1678.5707291666477,
      "v": 80
    },
    {
      "midi": 70,
      "hit": false,
      "t": 142232.08359375014,
      "d": 1535.7136458333116,
      "v": 87
    },
    {
      "midi": 73,
      "hit": false,
      "t": 142241.01216145846,
      "d": 1517.8565104166628,
      "v": 89
    },
    {
      "midi": 66,
      "hit": false,
      "t": 142241.01216145846,
      "d": 1642.856458333321,
      "v": 78
    },
    {
      "midi": 58,
      "hit": false,
      "t": 143928.51145833347,
      "d": 1330.3565885416465,
      "v": 89
    },
    {
      "midi": 70,
      "hit": false,
      "t": 143928.51145833347,
      "d": 1598.2136197916407,
      "v": 94
    },
    {
      "midi": 73,
      "hit": false,
      "t": 143928.51145833347,
      "d": 1624.999322916643,
      "v": 91
    },
    {
      "midi": 66,
      "hit": false,
      "t": 143937.4400260418,
      "d": 1562.499348958314,
      "v": 91
    },
    {
      "midi": 42,
      "hit": false,
      "t": 143999.94000000012,
      "d": 5116.069296874921,
      "v": 102
    },
    {
      "midi": 70,
      "hit": false,
      "t": 145624.93932291676,
      "d": 1696.4278645833256,
      "v": 89
    },
    {
      "midi": 73,
      "hit": false,
      "t": 145624.93932291676,
      "d": 1714.2850000000035,
      "v": 88
    },
    {
      "midi": 66,
      "hit": false,
      "t": 145642.79645833344,
      "d": 1642.856458333321,
      "v": 91
    },
    {
      "midi": 58,
      "hit": false,
      "t": 145651.72502604176,
      "d": 1491.0708072916605,
      "v": 86
    },
    {
      "midi": 70,
      "hit": false,
      "t": 147401.7242968751,
      "d": 1580.3564843749627,
      "v": 93
    },
    {
      "midi": 73,
      "hit": false,
      "t": 147410.65286458342,
      "d": 1544.6422135416651,
      "v": 91
    },
    {
      "midi": 66,
      "hit": false,
      "t": 147410.65286458342,
      "d": 1553.5707812499895,
      "v": 86
    },
    {
      "midi": 58,
      "hit": false,
      "t": 147419.58143229174,
      "d": 1553.5707812499895,
      "v": 84
    },
    {
      "midi": 58,
      "hit": false,
      "t": 149080.2950260417,
      "d": 1749.9992708333302,
      "v": 80
    },
    {
      "midi": 67,
      "hit": false,
      "t": 149089.22359375004,
      "d": 1535.7136458333407,
      "v": 87
    },
    {
      "midi": 70,
      "hit": false,
      "t": 149098.15216145836,
      "d": 1517.856510416692,
      "v": 89
    },
    {
      "midi": 63,
      "hit": false,
      "t": 149098.15216145836,
      "d": 1642.85645833335,
      "v": 78
    },
    {
      "midi": 51,
      "hit": false,
      "t": 149142.79500000004,
      "d": 1687.4992968750012,
      "v": 102
    },
    {
      "midi": 56,
      "hit": false,
      "t": 150857.08000000005,
      "d": 1696.4278645833256,
      "v": 90
    },
    {
      "midi": 44,
      "hit": false,
      "t": 150857.08000000005,
      "d": 3401.7842968750047,
      "v": 106
    },
    {
      "midi": 63,
      "hit": false,
      "t": 150866.00856770837,
      "d": 1553.5707812499895,
      "v": 88
    },
    {
      "midi": 68,
      "hit": false,
      "t": 150866.00856770837,
      "d": 1562.499348958314,
      "v": 90
    },
    {
      "midi": 72,
      "hit": false,
      "t": 150874.9371354167,
      "d": 1571.4279166666674,
      "v": 93
    },
    {
      "midi": 68,
      "hit": false,
      "t": 152562.4364322917,
      "d": 1508.9279427083384,
      "v": 83
    },
    {
      "midi": 63,
      "hit": false,
      "t": 152571.36500000002,
      "d": 1535.7136458333407,
      "v": 83
    },
    {
      "midi": 72,
      "hit": false,
      "t": 152571.36500000002,
      "d": 1669.6421614583523,
      "v": 90
    },
    {
      "midi": 56,
      "hit": false,
      "t": 152589.2221354167,
      "d": 1624.999322916672,
      "v": 86
    },
    {
      "midi": 67,
      "hit": false,
      "t": 154258.86429687505,
      "d": 1580.3564843749336,
      "v": 91
    },
    {
      "midi": 70,
      "hit": false,
      "t": 154267.79286458337,
      "d": 1544.642213541636,
      "v": 91
    },
    {
      "midi": 63,
      "hit": false,
      "t": 154267.79286458337,
      "d": 1553.5707812499604,
      "v": 86
    },
    {
      "midi": 55,
      "hit": false,
      "t": 154276.7214322917,
      "d": 1553.5707812499604,
      "v": 89
    },
    {
      "midi": 43,
      "hit": false,
      "t": 154285.65000000002,
      "d": 3401.7842968749464,
      "v": 101
    },
    {
      "midi": 55,
      "hit": false,
      "t": 155937.43502604164,
      "d": 1749.9992708333302,
      "v": 85
    },
    {
      "midi": 67,
      "hit": false,
      "t": 155946.36359374996,
      "d": 1366.0708593750023,
      "v": 87
    },
    {
      "midi": 63,
      "hit": false,
      "t": 155955.2921614583,
      "d": 1374.9994270833558,
      "v": 78
    },
    {
      "midi": 70,
      "hit": false,
      "t": 155955.2921614583,
      "d": 1419.642265625036,
      "v": 87
    },
    {
      "midi": 65,
      "hit": false,
      "t": 157642.79145833332,
      "d": 1598.2136197916698,
      "v": 94
    },
    {
      "midi": 53,
      "hit": false,
      "t": 157642.79145833332,
      "d": 1616.0707552083477,
      "v": 94
    },
    {
      "midi": 68,
      "hit": false,
      "t": 157642.79145833332,
      "d": 1624.999322916672,
      "v": 91
    },
    {
      "midi": 60,
      "hit": false,
      "t": 157651.72002604164,
      "d": 1562.499348958343,
      "v": 91
    },
    {
      "midi": 41,
      "hit": false,
      "t": 157714.21999999997,
      "d": 3401.7842968750047,
      "v": 105
    },
    {
      "midi": 65,
      "hit": false,
      "t": 159339.21932291664,
      "d": 1696.4278645833256,
      "v": 89
    },
    {
      "midi": 68,
      "hit": false,
      "t": 159339.21932291664,
      "d": 1714.2850000000035,
      "v": 88
    },
    {
      "midi": 60,
      "hit": false,
      "t": 159357.07645833332,
      "d": 1642.856458333321,
      "v": 91
    },
    {
      "midi": 53,
      "hit": false,
      "t": 159366.00502604165,
      "d": 1491.0708072916605,
      "v": 91
    },
    {
      "midi": 63,
      "hit": false,
      "t": 161116.00429687498,
      "d": 1580.3564843749336,
      "v": 93
    },
    {
      "midi": 68,
      "hit": false,
      "t": 161124.9328645833,
      "d": 1544.642213541636,
      "v": 91
    },
    {
      "midi": 60,
      "hit": false,
      "t": 161124.9328645833,
      "d": 1553.5707812499604,
      "v": 86
    },
    {
      "midi": 51,
      "hit": false,
      "t": 161133.86143229163,
      "d": 1553.5707812499604,
      "v": 89
    },
    {
      "midi": 39,
      "hit": false,
      "t": 161142.78999999995,
      "d": 3401.7842968749173,
      "v": 106
    },
    {
      "midi": 51,
      "hit": false,
      "t": 162794.57502604157,
      "d": 1749.9992708333011,
      "v": 85
    },
    {
      "midi": 63,
      "hit": false,
      "t": 162803.5035937499,
      "d": 1535.7136458333116,
      "v": 87
    },
    {
      "midi": 67,
      "hit": false,
      "t": 162812.43216145821,
      "d": 1517.8565104166628,
      "v": 89
    },
    {
      "midi": 60,
      "hit": false,
      "t": 162812.43216145821,
      "d": 1642.856458333321,
      "v": 78
    },
    {
      "midi": 68,
      "hit": false,
      "t": 164499.93145833322,
      "d": 1598.2136197916698,
      "v": 94
    },
    {
      "midi": 61,
      "hit": false,
      "t": 164499.93145833322,
      "d": 1616.0707552083477,
      "v": 94
    },
    {
      "midi": 73,
      "hit": false,
      "t": 164499.93145833322,
      "d": 1624.999322916672,
      "v": 91
    },
    {
      "midi": 65,
      "hit": false,
      "t": 164508.86002604154,
      "d": 1562.499348958343,
      "v": 91
    },
    {
      "midi": 37,
      "hit": false,
      "t": 164571.35999999987,
      "d": 3401.7842968750047,
      "v": 101
    },
    {
      "midi": 68,
      "hit": false,
      "t": 166196.35932291654,
      "d": 1696.4278645833256,
      "v": 89
    },
    {
      "midi": 73,
      "hit": false,
      "t": 166196.35932291654,
      "d": 1714.2850000000035,
      "v": 88
    },
    {
      "midi": 65,
      "hit": false,
      "t": 166214.21645833322,
      "d": 1642.856458333321,
      "v": 91
    },
    {
      "midi": 61,
      "hit": false,
      "t": 166223.14502604154,
      "d": 1624.999322916672,
      "v": 91
    },
    {
      "midi": 49,
      "hit": false,
      "t": 167142.7874999999,
      "d": 830.3567968749849,
      "v": 89
    },
    {
      "midi": 68,
      "hit": false,
      "t": 167973.14429687487,
      "d": 1580.3564843749336,
      "v": 93
    },
    {
      "midi": 73,
      "hit": false,
      "t": 167982.0728645832,
      "d": 1544.642213541636,
      "v": 91
    },
    {
      "midi": 65,
      "hit": false,
      "t": 167982.0728645832,
      "d": 1553.5707812499604,
      "v": 86
    },
    {
      "midi": 63,
      "hit": false,
      "t": 167991.00143229152,
      "d": 1553.5707812499604,
      "v": 89
    },
    {
      "midi": 39,
      "hit": false,
      "t": 167999.92999999985,
      "d": 3401.7842968748882,
      "v": 101
    },
    {
      "midi": 51,
      "hit": false,
      "t": 167999.92999999985,
      "d": 3401.7842968748882,
      "v": 90
    },
    {
      "midi": 63,
      "hit": false,
      "t": 169651.71502604146,
      "d": 1607.142187499965,
      "v": 85
    },
    {
      "midi": 67,
      "hit": false,
      "t": 169660.6435937498,
      "d": 1535.7136458333116,
      "v": 87
    },
    {
      "midi": 73,
      "hit": false,
      "t": 169669.5721614581,
      "d": 1517.8565104166628,
      "v": 89
    },
    {
      "midi": 68,
      "hit": false,
      "t": 171357.07145833308,
      "d": 1598.2136197916698,
      "v": 94
    },
    {
      "midi": 56,
      "hit": false,
      "t": 171357.07145833308,
      "d": 1616.0707552083477,
      "v": 89
    },
    {
      "midi": 72,
      "hit": false,
      "t": 171357.07145833308,
      "d": 1624.999322916672,
      "v": 91
    },
    {
      "midi": 63,
      "hit": false,
      "t": 171366.0000260414,
      "d": 1562.499348958343,
      "v": 91
    },
    {
      "midi": 44,
      "hit": false,
      "t": 171428.49999999974,
      "d": 6830.354296874924,
      "v": 102
    },
    {
      "midi": 68,
      "hit": false,
      "t": 173053.4993229164,
      "d": 1696.4278645833256,
      "v": 89
    },
    {
      "midi": 72,
      "hit": false,
      "t": 173053.4993229164,
      "d": 1714.2850000000035,
      "v": 88
    },
    {
      "midi": 63,
      "hit": false,
      "t": 173071.3564583331,
      "d": 1642.856458333321,
      "v": 91
    },
    {
      "midi": 56,
      "hit": false,
      "t": 173080.2850260414,
      "d": 1491.0708072916605,
      "v": 86
    },
    {
      "midi": 67,
      "hit": false,
      "t": 174830.28429687474,
      "d": 1580.3564843749627,
      "v": 103
    },
    {
      "midi": 70,
      "hit": false,
      "t": 174839.21286458307,
      "d": 1544.6422135416651,
      "v": 101
    },
    {
      "midi": 63,
      "hit": false,
      "t": 174839.21286458307,
      "d": 1553.5707812499895,
      "v": 96
    },
    {
      "midi": 56,
      "hit": false,
      "t": 174848.1414322914,
      "d": 1553.5707812499895,
      "v": 94
    },
    {
      "midi": 56,
      "hit": false,
      "t": 176508.85502604136,
      "d": 1749.9992708333011,
      "v": 95
    },
    {
      "midi": 67,
      "hit": false,
      "t": 176517.7835937497,
      "d": 1535.7136458333116,
      "v": 102
    },
    {
      "midi": 63,
      "hit": false,
      "t": 176526.712161458,
      "d": 1642.856458333321,
      "v": 93
    },
    {
      "midi": 56,
      "hit": false,
      "t": 178285.63999999966,
      "d": 1696.4278645833256,
      "v": 90
    },
    {
      "midi": 44,
      "hit": false,
      "t": 178285.63999999966,
      "d": 3401.7842968750047,
      "v": 106
    },
    {
      "midi": 63,
      "hit": false,
      "t": 178294.568567708,
      "d": 1553.5707812499895,
      "v": 88
    },
    {
      "midi": 68,
      "hit": false,
      "t": 178294.568567708,
      "d": 1562.499348958314,
      "v": 90
    },
    {
      "midi": 72,
      "hit": false,
      "t": 178303.4971354163,
      "d": 1571.4279166666674,
      "v": 93
    },
    {
      "midi": 68,
      "hit": false,
      "t": 179990.99643229131,
      "d": 1508.9279427083384,
      "v": 83
    },
    {
      "midi": 63,
      "hit": false,
      "t": 179999.92499999964,
      "d": 1535.7136458333407,
      "v": 83
    },
    {
      "midi": 72,
      "hit": false,
      "t": 179999.92499999964,
      "d": 1669.6421614583523,
      "v": 90
    },
    {
      "midi": 56,
      "hit": false,
      "t": 180017.78213541632,
      "d": 1624.999322916672,
      "v": 86
    },
    {
      "midi": 67,
      "hit": false,
      "t": 181687.42429687467,
      "d": 1580.3564843749336,
      "v": 91
    },
    {
      "midi": 70,
      "hit": false,
      "t": 181696.352864583,
      "d": 1544.642213541636,
      "v": 91
    },
    {
      "midi": 63,
      "hit": false,
      "t": 181696.352864583,
      "d": 1553.5707812499604,
      "v": 86
    },
    {
      "midi": 55,
      "hit": false,
      "t": 181705.28143229132,
      "d": 1553.5707812499604,
      "v": 89
    },
    {
      "midi": 43,
      "hit": false,
      "t": 181714.20999999964,
      "d": 3401.7842968749464,
      "v": 101
    },
    {
      "midi": 55,
      "hit": false,
      "t": 183365.99502604126,
      "d": 1749.9992708333302,
      "v": 85
    },
    {
      "midi": 67,
      "hit": false,
      "t": 183374.92359374958,
      "d": 1366.0708593750023,
      "v": 87
    },
    {
      "midi": 63,
      "hit": false,
      "t": 183383.8521614579,
      "d": 1374.9994270833558,
      "v": 78
    },
    {
      "midi": 70,
      "hit": false,
      "t": 183383.8521614579,
      "d": 1419.642265625036,
      "v": 87
    },
    {
      "midi": 65,
      "hit": false,
      "t": 185071.35145833294,
      "d": 1598.2136197916698,
      "v": 94
    },
    {
      "midi": 53,
      "hit": false,
      "t": 185071.35145833294,
      "d": 1616.0707552083477,
      "v": 94
    },
    {
      "midi": 68,
      "hit": false,
      "t": 185071.35145833294,
      "d": 1624.999322916672,
      "v": 91
    },
    {
      "midi": 60,
      "hit": false,
      "t": 185080.28002604126,
      "d": 1562.499348958343,
      "v": 91
    },
    {
      "midi": 41,
      "hit": false,
      "t": 185142.7799999996,
      "d": 3401.7842968750047,
      "v": 105
    },
    {
      "midi": 65,
      "hit": false,
      "t": 186767.77932291626,
      "d": 1696.4278645833256,
      "v": 89
    },
    {
      "midi": 68,
      "hit": false,
      "t": 186767.77932291626,
      "d": 1714.2850000000035,
      "v": 88
    },
    {
      "midi": 60,
      "hit": false,
      "t": 186785.63645833294,
      "d": 1642.856458333321,
      "v": 91
    },
    {
      "midi": 53,
      "hit": false,
      "t": 186794.56502604127,
      "d": 1491.0708072916605,
      "v": 91
    },
    {
      "midi": 63,
      "hit": false,
      "t": 188544.5642968746,
      "d": 1580.3564843749336,
      "v": 93
    },
    {
      "midi": 68,
      "hit": false,
      "t": 188553.49286458292,
      "d": 1544.642213541636,
      "v": 91
    },
    {
      "midi": 60,
      "hit": false,
      "t": 188553.49286458292,
      "d": 1553.5707812499604,
      "v": 86
    },
    {
      "midi": 51,
      "hit": false,
      "t": 188562.42143229124,
      "d": 1553.5707812499604,
      "v": 89
    },
    {
      "midi": 39,
      "hit": false,
      "t": 188571.34999999957,
      "d": 3401.7842968749173,
      "v": 106
    },
    {
      "midi": 51,
      "hit": false,
      "t": 190223.1350260412,
      "d": 1749.9992708333011,
      "v": 85
    },
    {
      "midi": 63,
      "hit": false,
      "t": 190232.0635937495,
      "d": 1535.7136458333116,
      "v": 87
    },
    {
      "midi": 67,
      "hit": false,
      "t": 190240.99216145783,
      "d": 1517.8565104166628,
      "v": 89
    },
    {
      "midi": 60,
      "hit": false,
      "t": 190240.99216145783,
      "d": 1642.856458333321,
      "v": 78
    },
    {
      "midi": 68,
      "hit": false,
      "t": 191928.49145833284,
      "d": 1598.2136197916698,
      "v": 94
    },
    {
      "midi": 61,
      "hit": false,
      "t": 191928.49145833284,
      "d": 1616.0707552083477,
      "v": 94
    },
    {
      "midi": 73,
      "hit": false,
      "t": 191928.49145833284,
      "d": 1624.999322916672,
      "v": 91
    },
    {
      "midi": 65,
      "hit": false,
      "t": 191937.42002604116,
      "d": 1562.499348958343,
      "v": 91
    },
    {
      "midi": 37,
      "hit": false,
      "t": 191999.9199999995,
      "d": 3401.7842968750047,
      "v": 101
    },
    {
      "midi": 68,
      "hit": false,
      "t": 193624.91932291616,
      "d": 1696.4278645833256,
      "v": 89
    },
    {
      "midi": 73,
      "hit": false,
      "t": 193624.91932291616,
      "d": 1714.2850000000035,
      "v": 88
    },
    {
      "midi": 65,
      "hit": false,
      "t": 193642.77645833284,
      "d": 1642.856458333321,
      "v": 91
    },
    {
      "midi": 61,
      "hit": false,
      "t": 193651.70502604116,
      "d": 1624.999322916672,
      "v": 91
    },
    {
      "midi": 49,
      "hit": false,
      "t": 194571.3474999995,
      "d": 830.3567968749849,
      "v": 89
    },
    {
      "midi": 68,
      "hit": false,
      "t": 195401.7042968745,
      "d": 1580.3564843749336,
      "v": 93
    },
    {
      "midi": 73,
      "hit": false,
      "t": 195410.63286458282,
      "d": 1544.642213541636,
      "v": 91
    },
    {
      "midi": 65,
      "hit": false,
      "t": 195410.63286458282,
      "d": 1553.5707812499604,
      "v": 86
    },
    {
      "midi": 63,
      "hit": false,
      "t": 195419.56143229114,
      "d": 1553.5707812499604,
      "v": 89
    },
    {
      "midi": 39,
      "hit": false,
      "t": 195428.48999999947,
      "d": 3401.7842968749173,
      "v": 101
    },
    {
      "midi": 51,
      "hit": false,
      "t": 195428.48999999947,
      "d": 3401.7842968749173,
      "v": 90
    },
    {
      "midi": 63,
      "hit": false,
      "t": 197080.27502604108,
      "d": 1607.142187499965,
      "v": 85
    },
    {
      "midi": 68,
      "hit": false,
      "t": 197089.2035937494,
      "d": 1535.7136458333116,
      "v": 87
    },
    {
      "midi": 73,
      "hit": false,
      "t": 197098.13216145773,
      "d": 1517.8565104166628,
      "v": 89
    },
    {
      "midi": 65,
      "hit": false,
      "t": 197098.13216145773,
      "d": 1642.856458333321,
      "v": 78
    },
    {
      "midi": 68,
      "hit": false,
      "t": 198785.63145833273,
      "d": 1598.2136197916698,
      "v": 94
    },
    {
      "midi": 56,
      "hit": false,
      "t": 198785.63145833273,
      "d": 1616.0707552083477,
      "v": 89
    },
    {
      "midi": 72,
      "hit": false,
      "t": 198785.63145833273,
      "d": 1624.999322916672,
      "v": 91
    },
    {
      "midi": 63,
      "hit": false,
      "t": 198794.56002604106,
      "d": 1562.499348958343,
      "v": 91
    },
    {
      "midi": 44,
      "hit": false,
      "t": 198857.0599999994,
      "d": 6830.354296874953,
      "v": 102
    },
    {
      "midi": 68,
      "hit": false,
      "t": 200482.05932291606,
      "d": 1696.4278645833256,
      "v": 89
    },
    {
      "midi": 72,
      "hit": false,
      "t": 200482.05932291606,
      "d": 1714.2850000000035,
      "v": 88
    },
    {
      "midi": 63,
      "hit": false,
      "t": 200499.91645833274,
      "d": 1642.856458333321,
      "v": 91
    },
    {
      "midi": 56,
      "hit": false,
      "t": 200508.84502604106,
      "d": 1491.0708072916605,
      "v": 86
    },
    {
      "midi": 68,
      "hit": false,
      "t": 202258.8442968744,
      "d": 1580.3564843749627,
      "v": 93
    },
    {
      "midi": 72,
      "hit": false,
      "t": 202267.77286458272,
      "d": 1544.6422135416651,
      "v": 91
    },
    {
      "midi": 63,
      "hit": false,
      "t": 202267.77286458272,
      "d": 1553.5707812499895,
      "v": 86
    },
    {
      "midi": 56,
      "hit": false,
      "t": 202276.70143229104,
      "d": 1553.5707812499895,
      "v": 84
    },
    {
      "midi": 56,
      "hit": false,
      "t": 203937.415026041,
      "d": 1749.9992708333302,
      "v": 80
    },
    {
      "midi": 68,
      "hit": false,
      "t": 203946.34359374933,
      "d": 1535.7136458333407,
      "v": 87
    },
    {
      "midi": 72,
      "hit": false,
      "t": 203955.27216145766,
      "d": 1517.856510416692,
      "v": 89
    },
    {
      "midi": 63,
      "hit": false,
      "t": 203955.27216145766,
      "d": 1642.85645833335,
      "v": 78
    },
    {
      "midi": 39,
      "hit": false,
      "t": 203999.91499999934,
      "d": 1687.4992968750012,
      "v": 99
    },
    {
      "midi": 56,
      "hit": false,
      "t": 205714.19999999934,
      "d": 1696.4278645833256,
      "v": 90
    },
    {
      "midi": 44,
      "hit": false,
      "t": 205714.19999999934,
      "d": 3401.7842968750047,
      "v": 106
    },
    {
      "midi": 63,
      "hit": false,
      "t": 205723.12856770767,
      "d": 1553.5707812499895,
      "v": 88
    },
    {
      "midi": 68,
      "hit": false,
      "t": 205723.12856770767,
      "d": 1562.499348958314,
      "v": 90
    },
    {
      "midi": 72,
      "hit": false,
      "t": 205732.057135416,
      "d": 1571.4279166666674,
      "v": 93
    },
    {
      "midi": 68,
      "hit": false,
      "t": 207419.556432291,
      "d": 1508.9279427083384,
      "v": 83
    },
    {
      "midi": 63,
      "hit": false,
      "t": 207428.48499999932,
      "d": 1535.7136458333407,
      "v": 83
    },
    {
      "midi": 72,
      "hit": false,
      "t": 207428.48499999932,
      "d": 1669.6421614583523,
      "v": 90
    },
    {
      "midi": 56,
      "hit": false,
      "t": 207446.342135416,
      "d": 1624.999322916672,
      "v": 86
    },
    {
      "midi": 67,
      "hit": false,
      "t": 209115.98429687435,
      "d": 1580.3564843749336,
      "v": 91
    },
    {
      "midi": 70,
      "hit": false,
      "t": 209124.91286458267,
      "d": 1544.642213541636,
      "v": 91
    },
    {
      "midi": 63,
      "hit": false,
      "t": 209124.91286458267,
      "d": 1553.5707812499604,
      "v": 86
    },
    {
      "midi": 55,
      "hit": false,
      "t": 209133.841432291,
      "d": 1553.5707812499604,
      "v": 89
    },
    {
      "midi": 43,
      "hit": false,
      "t": 209142.76999999932,
      "d": 3401.7842968749464,
      "v": 101
    },
    {
      "midi": 55,
      "hit": false,
      "t": 210794.55502604094,
      "d": 1749.9992708333302,
      "v": 85
    },
    {
      "midi": 67,
      "hit": false,
      "t": 210803.48359374926,
      "d": 1366.0708593750023,
      "v": 87
    },
    {
      "midi": 63,
      "hit": false,
      "t": 210812.41216145759,
      "d": 1374.9994270833558,
      "v": 78
    },
    {
      "midi": 70,
      "hit": false,
      "t": 210812.41216145759,
      "d": 1419.642265625036,
      "v": 87
    },
    {
      "midi": 65,
      "hit": false,
      "t": 212499.91145833262,
      "d": 1598.2136197916698,
      "v": 94
    },
    {
      "midi": 53,
      "hit": false,
      "t": 212499.91145833262,
      "d": 1616.0707552083477,
      "v": 94
    },
    {
      "midi": 68,
      "hit": false,
      "t": 212499.91145833262,
      "d": 1624.999322916672,
      "v": 91
    },
    {
      "midi": 60,
      "hit": false,
      "t": 212508.84002604094,
      "d": 1562.499348958343,
      "v": 91
    },
    {
      "midi": 41,
      "hit": false,
      "t": 212571.33999999927,
      "d": 3401.7842968750047,
      "v": 105
    },
    {
      "midi": 65,
      "hit": false,
      "t": 214196.33932291594,
      "d": 1696.4278645833256,
      "v": 89
    },
    {
      "midi": 68,
      "hit": false,
      "t": 214196.33932291594,
      "d": 1714.2850000000035,
      "v": 88
    },
    {
      "midi": 60,
      "hit": false,
      "t": 214214.19645833262,
      "d": 1642.856458333321,
      "v": 91
    },
    {
      "midi": 53,
      "hit": false,
      "t": 214223.12502604094,
      "d": 1491.0708072916605,
      "v": 91
    },
    {
      "midi": 63,
      "hit": false,
      "t": 215973.12429687427,
      "d": 1580.3564843749336,
      "v": 93
    },
    {
      "midi": 68,
      "hit": false,
      "t": 215982.0528645826,
      "d": 1544.642213541636,
      "v": 91
    },
    {
      "midi": 60,
      "hit": false,
      "t": 215982.0528645826,
      "d": 1553.5707812499604,
      "v": 86
    },
    {
      "midi": 51,
      "hit": false,
      "t": 215990.98143229092,
      "d": 1553.5707812499604,
      "v": 89
    },
    {
      "midi": 39,
      "hit": false,
      "t": 215999.90999999925,
      "d": 1687.499296874943,
      "v": 106
    },
    {
      "midi": 51,
      "hit": false,
      "t": 217651.69502604086,
      "d": 1749.9992708333302,
      "v": 85
    },
    {
      "midi": 63,
      "hit": false,
      "t": 217660.6235937492,
      "d": 1535.7136458333407,
      "v": 87
    },
    {
      "midi": 67,
      "hit": false,
      "t": 217669.5521614575,
      "d": 1517.856510416692,
      "v": 89
    },
    {
      "midi": 60,
      "hit": false,
      "t": 217669.5521614575,
      "d": 1642.85645833335,
      "v": 78
    },
    {
      "midi": 48,
      "hit": false,
      "t": 217714.1949999992,
      "d": 1687.4992968750012,
      "v": 102
    },
    {
      "midi": 70,
      "hit": false,
      "t": 219357.05145833254,
      "d": 1598.2136197916698,
      "v": 94
    },
    {
      "midi": 61,
      "hit": false,
      "t": 219357.05145833254,
      "d": 1616.0707552083477,
      "v": 94
    },
    {
      "midi": 73,
      "hit": false,
      "t": 219357.05145833254,
      "d": 1624.999322916672,
      "v": 91
    },
    {
      "midi": 65,
      "hit": false,
      "t": 219365.98002604087,
      "d": 1562.499348958343,
      "v": 91
    },
    {
      "midi": 46,
      "hit": false,
      "t": 219428.4799999992,
      "d": 3401.7842968750047,
      "v": 101
    },
    {
      "midi": 70,
      "hit": false,
      "t": 221053.47932291587,
      "d": 1696.4278645833256,
      "v": 89
    },
    {
      "midi": 73,
      "hit": false,
      "t": 221053.47932291587,
      "d": 1714.2850000000035,
      "v": 88
    },
    {
      "midi": 65,
      "hit": false,
      "t": 221071.33645833255,
      "d": 1642.856458333321,
      "v": 91
    },
    {
      "midi": 61,
      "hit": false,
      "t": 221080.26502604087,
      "d": 1624.999322916672,
      "v": 91
    },
    {
      "midi": 70,
      "hit": false,
      "t": 222830.2642968742,
      "d": 1580.3564843749336,
      "v": 93
    },
    {
      "midi": 73,
      "hit": false,
      "t": 222839.19286458252,
      "d": 1544.642213541636,
      "v": 91
    },
    {
      "midi": 65,
      "hit": false,
      "t": 222839.19286458252,
      "d": 1553.5707812499604,
      "v": 86
    },
    {
      "midi": 61,
      "hit": false,
      "t": 222848.12143229085,
      "d": 1553.5707812499604,
      "v": 89
    },
    {
      "midi": 46,
      "hit": false,
      "t": 222857.04999999917,
      "d": 1687.499296874943,
      "v": 101
    },
    {
      "midi": 61,
      "hit": false,
      "t": 224508.8350260408,
      "d": 1607.1421874999942,
      "v": 85
    },
    {
      "midi": 68,
      "hit": false,
      "t": 224517.7635937491,
      "d": 1535.7136458333407,
      "v": 87
    },
    {
      "midi": 73,
      "hit": false,
      "t": 224526.69216145744,
      "d": 1517.856510416692,
      "v": 89
    },
    {
      "midi": 65,
      "hit": false,
      "t": 224526.69216145744,
      "d": 1642.85645833335,
      "v": 78
    },
    {
      "midi": 44,
      "hit": false,
      "t": 224571.33499999912,
      "d": 1687.4992968750012,
      "v": 102
    },
    {
      "midi": 70,
      "hit": false,
      "t": 226214.19145833247,
      "d": 1598.2136197916698,
      "v": 94
    },
    {
      "midi": 58,
      "hit": false,
      "t": 226214.19145833247,
      "d": 1616.0707552083477,
      "v": 89
    },
    {
      "midi": 73,
      "hit": false,
      "t": 226214.19145833247,
      "d": 1624.999322916672,
      "v": 91
    },
    {
      "midi": 66,
      "hit": false,
      "t": 226223.1200260408,
      "d": 1562.499348958343,
      "v": 91
    },
    {
      "midi": 42,
      "hit": false,
      "t": 226285.61999999912,
      "d": 5116.06929687495,
      "v": 102
    },
    {
      "midi": 70,
      "hit": false,
      "t": 227910.6193229158,
      "d": 1696.4278645833256,
      "v": 89
    },
    {
      "midi": 73,
      "hit": false,
      "t": 227910.6193229158,
      "d": 1714.2850000000035,
      "v": 88
    },
    {
      "midi": 66,
      "hit": false,
      "t": 227928.47645833247,
      "d": 1642.856458333321,
      "v": 91
    },
    {
      "midi": 58,
      "hit": false,
      "t": 227937.4050260408,
      "d": 1491.0708072916605,
      "v": 86
    },
    {
      "midi": 70,
      "hit": false,
      "t": 229687.40429687413,
      "d": 1580.3564843749627,
      "v": 93
    },
    {
      "midi": 73,
      "hit": false,
      "t": 229696.33286458245,
      "d": 1544.6422135416651,
      "v": 91
    },
    {
      "midi": 66,
      "hit": false,
      "t": 229696.33286458245,
      "d": 1553.5707812499895,
      "v": 86
    },
    {
      "midi": 58,
      "hit": false,
      "t": 229705.26143229078,
      "d": 1553.5707812499895,
      "v": 84
    },
    {
      "midi": 58,
      "hit": false,
      "t": 231365.97502604075,
      "d": 1749.9992708333302,
      "v": 80
    },
    {
      "midi": 67,
      "hit": false,
      "t": 231374.90359374907,
      "d": 1535.7136458333407,
      "v": 87
    },
    {
      "midi": 70,
      "hit": false,
      "t": 231383.8321614574,
      "d": 1517.856510416692,
      "v": 89
    },
    {
      "midi": 63,
      "hit": false,
      "t": 231383.8321614574,
      "d": 1642.85645833335,
      "v": 78
    },
    {
      "midi": 51,
      "hit": false,
      "t": 231428.47499999907,
      "d": 1687.4992968750012,
      "v": 102
    },
    {
      "midi": 56,
      "hit": false,
      "t": 233142.75999999908,
      "d": 1696.4278645833256,
      "v": 90
    },
    {
      "midi": 44,
      "hit": false,
      "t": 233142.75999999908,
      "d": 3401.7842968750047,
      "v": 106
    },
    {
      "midi": 63,
      "hit": false,
      "t": 233151.6885677074,
      "d": 1553.5707812499895,
      "v": 88
    },
    {
      "midi": 68,
      "hit": false,
      "t": 233151.6885677074,
      "d": 1562.499348958314,
      "v": 90
    },
    {
      "midi": 72,
      "hit": false,
      "t": 233160.61713541573,
      "d": 1571.4279166666674,
      "v": 93
    },
    {
      "midi": 68,
      "hit": false,
      "t": 234848.11643229073,
      "d": 1508.9279427083384,
      "v": 83
    },
    {
      "midi": 63,
      "hit": false,
      "t": 234857.04499999905,
      "d": 1535.7136458333407,
      "v": 83
    },
    {
      "midi": 72,
      "hit": false,
      "t": 234857.04499999905,
      "d": 1669.6421614583523,
      "v": 90
    },
    {
      "midi": 56,
      "hit": false,
      "t": 234874.90213541573,
      "d": 1624.999322916672,
      "v": 86
    },
    {
      "midi": 67,
      "hit": false,
      "t": 236544.54429687408,
      "d": 1580.3564843749336,
      "v": 91
    },
    {
      "midi": 70,
      "hit": false,
      "t": 236553.4728645824,
      "d": 1544.642213541636,
      "v": 91
    },
    {
      "midi": 63,
      "hit": false,
      "t": 236553.4728645824,
      "d": 1553.5707812499604,
      "v": 86
    },
    {
      "midi": 55,
      "hit": false,
      "t": 236562.40143229073,
      "d": 1553.5707812499604,
      "v": 89
    },
    {
      "midi": 43,
      "hit": false,
      "t": 236571.32999999906,
      "d": 3401.7842968749464,
      "v": 101
    },
    {
      "midi": 55,
      "hit": false,
      "t": 238223.11502604067,
      "d": 1749.9992708333302,
      "v": 85
    },
    {
      "midi": 67,
      "hit": false,
      "t": 238232.043593749,
      "d": 1366.0708593750023,
      "v": 87
    },
    {
      "midi": 63,
      "hit": false,
      "t": 238240.97216145732,
      "d": 1374.9994270833558,
      "v": 78
    },
    {
      "midi": 70,
      "hit": false,
      "t": 238240.97216145732,
      "d": 1419.642265625036,
      "v": 87
    },
    {
      "midi": 65,
      "hit": false,
      "t": 239928.47145833235,
      "d": 1598.2136197916698,
      "v": 94
    },
    {
      "midi": 53,
      "hit": false,
      "t": 239928.47145833235,
      "d": 1616.0707552083477,
      "v": 94
    },
    {
      "midi": 68,
      "hit": false,
      "t": 239928.47145833235,
      "d": 1624.999322916672,
      "v": 91
    },
    {
      "midi": 60,
      "hit": false,
      "t": 239937.40002604068,
      "d": 1562.499348958343,
      "v": 91
    },
    {
      "midi": 41,
      "hit": false,
      "t": 239999.899999999,
      "d": 3401.7842968750047,
      "v": 105
    },
    {
      "midi": 65,
      "hit": false,
      "t": 241624.89932291568,
      "d": 1696.4278645833256,
      "v": 89
    },
    {
      "midi": 68,
      "hit": false,
      "t": 241624.89932291568,
      "d": 1714.2850000000035,
      "v": 88
    },
    {
      "midi": 60,
      "hit": false,
      "t": 241642.75645833235,
      "d": 1642.856458333321,
      "v": 91
    },
    {
      "midi": 53,
      "hit": false,
      "t": 241651.68502604068,
      "d": 1491.0708072916605,
      "v": 91
    },
    {
      "midi": 63,
      "hit": false,
      "t": 243401.684296874,
      "d": 1580.3564843749336,
      "v": 93
    },
    {
      "midi": 68,
      "hit": false,
      "t": 243410.61286458233,
      "d": 1544.642213541636,
      "v": 91
    },
    {
      "midi": 60,
      "hit": false,
      "t": 243410.61286458233,
      "d": 1553.5707812499604,
      "v": 86
    },
    {
      "midi": 51,
      "hit": false,
      "t": 243419.54143229066,
      "d": 1553.5707812499604,
      "v": 89
    },
    {
      "midi": 39,
      "hit": false,
      "t": 243428.46999999898,
      "d": 1687.499296874943,
      "v": 106
    },
    {
      "midi": 51,
      "hit": false,
      "t": 245080.2550260406,
      "d": 1749.9992708333302,
      "v": 85
    },
    {
      "midi": 63,
      "hit": false,
      "t": 245089.18359374892,
      "d": 1535.7136458333407,
      "v": 87
    },
    {
      "midi": 67,
      "hit": false,
      "t": 245098.11216145725,
      "d": 1517.856510416692,
      "v": 89
    },
    {
      "midi": 60,
      "hit": false,
      "t": 245098.11216145725,
      "d": 1642.85645833335,
      "v": 78
    },
    {
      "midi": 48,
      "hit": false,
      "t": 245142.75499999893,
      "d": 1687.4992968750012,
      "v": 102
    },
    {
      "midi": 70,
      "hit": false,
      "t": 246785.61145833228,
      "d": 1598.2136197916698,
      "v": 94
    },
    {
      "midi": 61,
      "hit": false,
      "t": 246785.61145833228,
      "d": 1616.0707552083477,
      "v": 94
    },
    {
      "midi": 73,
      "hit": false,
      "t": 246785.61145833228,
      "d": 1624.999322916672,
      "v": 91
    },
    {
      "midi": 65,
      "hit": false,
      "t": 246794.5400260406,
      "d": 1562.499348958343,
      "v": 91
    },
    {
      "midi": 46,
      "hit": false,
      "t": 246857.03999999893,
      "d": 3401.7842968750047,
      "v": 101
    },
    {
      "midi": 70,
      "hit": false,
      "t": 248482.0393229156,
      "d": 1696.4278645833256,
      "v": 89
    },
    {
      "midi": 73,
      "hit": false,
      "t": 248482.0393229156,
      "d": 1714.2850000000035,
      "v": 88
    },
    {
      "midi": 65,
      "hit": false,
      "t": 248499.89645833228,
      "d": 1642.856458333321,
      "v": 91
    },
    {
      "midi": 61,
      "hit": false,
      "t": 248508.8250260406,
      "d": 1624.999322916672,
      "v": 91
    },
    {
      "midi": 70,
      "hit": false,
      "t": 250258.82429687394,
      "d": 1580.3564843749336,
      "v": 93
    },
    {
      "midi": 73,
      "hit": false,
      "t": 250267.75286458226,
      "d": 1544.642213541636,
      "v": 91
    },
    {
      "midi": 65,
      "hit": false,
      "t": 250267.75286458226,
      "d": 1553.5707812499604,
      "v": 86
    },
    {
      "midi": 61,
      "hit": false,
      "t": 250276.68143229058,
      "d": 1553.5707812499604,
      "v": 89
    },
    {
      "midi": 46,
      "hit": false,
      "t": 250285.6099999989,
      "d": 1687.499296874943,
      "v": 101
    },
    {
      "midi": 61,
      "hit": false,
      "t": 251937.39502604053,
      "d": 1607.1421874999942,
      "v": 85
    },
    {
      "midi": 68,
      "hit": false,
      "t": 251946.32359374885,
      "d": 1535.7136458333407,
      "v": 87
    },
    {
      "midi": 73,
      "hit": false,
      "t": 251955.25216145717,
      "d": 1517.856510416692,
      "v": 89
    },
    {
      "midi": 65,
      "hit": false,
      "t": 251955.25216145717,
      "d": 1642.85645833335,
      "v": 78
    },
    {
      "midi": 44,
      "hit": false,
      "t": 251999.89499999885,
      "d": 1687.4992968750012,
      "v": 102
    },
    {
      "midi": 70,
      "hit": false,
      "t": 253642.7514583322,
      "d": 1598.2136197916698,
      "v": 94
    },
    {
      "midi": 58,
      "hit": false,
      "t": 253642.7514583322,
      "d": 1616.0707552083477,
      "v": 89
    },
    {
      "midi": 73,
      "hit": false,
      "t": 253642.7514583322,
      "d": 1624.999322916672,
      "v": 91
    },
    {
      "midi": 66,
      "hit": false,
      "t": 253651.68002604053,
      "d": 1562.499348958343,
      "v": 91
    },
    {
      "midi": 42,
      "hit": false,
      "t": 253714.17999999886,
      "d": 6830.354296874924,
      "v": 102
    },
    {
      "midi": 70,
      "hit": false,
      "t": 255339.17932291553,
      "d": 1696.4278645833256,
      "v": 89
    },
    {
      "midi": 73,
      "hit": false,
      "t": 255339.17932291553,
      "d": 1714.2850000000035,
      "v": 88
    },
    {
      "midi": 66,
      "hit": false,
      "t": 255357.0364583322,
      "d": 1642.856458333321,
      "v": 91
    },
    {
      "midi": 58,
      "hit": false,
      "t": 255365.96502604053,
      "d": 1491.0708072916605,
      "v": 86
    },
    {
      "midi": 70,
      "hit": false,
      "t": 257115.96429687386,
      "d": 1580.3564843749627,
      "v": 93
    },
    {
      "midi": 73,
      "hit": false,
      "t": 257124.8928645822,
      "d": 1544.6422135416651,
      "v": 91
    },
    {
      "midi": 66,
      "hit": false,
      "t": 257124.8928645822,
      "d": 1553.5707812499895,
      "v": 86
    },
    {
      "midi": 58,
      "hit": false,
      "t": 257133.8214322905,
      "d": 1553.5707812499895,
      "v": 84
    },
    {
      "midi": 58,
      "hit": false,
      "t": 258794.53502604048,
      "d": 1678.5707291666477,
      "v": 80
    },
    {
      "midi": 70,
      "hit": false,
      "t": 258803.4635937488,
      "d": 1535.7136458333116,
      "v": 87
    },
    {
      "midi": 73,
      "hit": false,
      "t": 258812.39216145713,
      "d": 1517.8565104166628,
      "v": 89
    },
    {
      "midi": 66,
      "hit": false,
      "t": 258812.39216145713,
      "d": 1642.856458333321,
      "v": 78
    },
    {
      "midi": 58,
      "hit": false,
      "t": 260499.89145833213,
      "d": 1330.3565885416465,
      "v": 89
    },
    {
      "midi": 70,
      "hit": false,
      "t": 260499.89145833213,
      "d": 1598.2136197916407,
      "v": 94
    },
    {
      "midi": 73,
      "hit": false,
      "t": 260499.89145833213,
      "d": 1624.999322916643,
      "v": 91
    },
    {
      "midi": 67,
      "hit": false,
      "t": 260508.82002604046,
      "d": 1562.499348958314,
      "v": 91
    },
    {
      "midi": 39,
      "hit": false,
      "t": 260571.31999999878,
      "d": 6830.354296875128,
      "v": 102
    },
    {
      "midi": 70,
      "hit": false,
      "t": 262196.31932291546,
      "d": 1696.4278645833256,
      "v": 89
    },
    {
      "midi": 73,
      "hit": false,
      "t": 262196.31932291546,
      "d": 1714.2849999999744,
      "v": 88
    },
    {
      "midi": 67,
      "hit": false,
      "t": 262214.1764583321,
      "d": 1642.856458333321,
      "v": 91
    },
    {
      "midi": 58,
      "hit": false,
      "t": 262223.10502604046,
      "d": 1491.0708072916605,
      "v": 86
    },
    {
      "midi": 68,
      "hit": false,
      "t": 263973.1042968738,
      "d": 1580.3564843750792,
      "v": 93
    },
    {
      "midi": 72,
      "hit": false,
      "t": 263982.03286458214,
      "d": 1544.6422135416651,
      "v": 91
    },
    {
      "midi": 56,
      "hit": false,
      "t": 263982.03286458214,
      "d": 1553.5707812500186,
      "v": 86
    },
    {
      "midi": 51,
      "hit": false,
      "t": 263990.9614322905,
      "d": 1553.5707812500186,
      "v": 84
    },
    {
      "midi": 58,
      "hit": false,
      "t": 265651.6750260405,
      "d": 1749.9992708333884,
      "v": 80
    },
    {
      "midi": 67,
      "hit": false,
      "t": 265660.6035937489,
      "d": 1535.7136458333698,
      "v": 87
    },
    {
      "midi": 73,
      "hit": false,
      "t": 265669.53216145723,
      "d": 1517.8565104166628,
      "v": 89
    },
    {
      "midi": 63,
      "hit": false,
      "t": 265669.53216145723,
      "d": 1642.856458333321,
      "v": 78
    },
    {
      "midi": 51,
      "hit": false,
      "t": 265714.1749999989,
      "d": 1687.4992968750303,
      "v": 102
    },
    {
      "midi": 56,
      "hit": false,
      "t": 267428.4599999989,
      "d": 1696.4278645833838,
      "v": 90
    },
    {
      "midi": 44,
      "hit": false,
      "t": 267428.4599999989,
      "d": 3401.784296875063,
      "v": 106
    },
    {
      "midi": 63,
      "hit": false,
      "t": 267437.38856770727,
      "d": 1553.5707812500186,
      "v": 88
    },
    {
      "midi": 68,
      "hit": false,
      "t": 267437.38856770727,
      "d": 1562.4993489583721,
      "v": 90
    },
    {
      "midi": 72,
      "hit": false,
      "t": 267446.3171354156,
      "d": 1571.4279166666674,
      "v": 93
    },
    {
      "midi": 68,
      "hit": false,
      "t": 269133.81643229065,
      "d": 1508.9279427083093,
      "v": 83
    },
    {
      "midi": 63,
      "hit": false,
      "t": 269142.744999999,
      "d": 1535.7136458333116,
      "v": 83
    },
    {
      "midi": 72,
      "hit": false,
      "t": 269142.744999999,
      "d": 1669.6421614583232,
      "v": 90
    },
    {
      "midi": 56,
      "hit": false,
      "t": 269160.60213541565,
      "d": 1624.999322916672,
      "v": 86
    },
    {
      "midi": 67,
      "hit": false,
      "t": 270830.244296874,
      "d": 1580.3564843751374,
      "v": 91
    },
    {
      "midi": 70,
      "hit": false,
      "t": 270839.17286458233,
      "d": 1544.6422135417233,
      "v": 91
    },
    {
      "midi": 63,
      "hit": false,
      "t": 270839.17286458233,
      "d": 1553.5707812500768,
      "v": 86
    },
    {
      "midi": 55,
      "hit": false,
      "t": 270848.1014322907,
      "d": 1553.5707812500768,
      "v": 89
    },
    {
      "midi": 43,
      "hit": false,
      "t": 270857.02999999904,
      "d": 3401.784296875121,
      "v": 101
    },
    {
      "midi": 55,
      "hit": false,
      "t": 272508.8150260408,
      "d": 1749.9992708333884,
      "v": 85
    },
    {
      "midi": 67,
      "hit": false,
      "t": 272517.7435937491,
      "d": 1366.0708593750023,
      "v": 87
    },
    {
      "midi": 63,
      "hit": false,
      "t": 272526.6721614575,
      "d": 1374.9994270832976,
      "v": 78
    },
    {
      "midi": 70,
      "hit": false,
      "t": 272526.6721614575,
      "d": 1419.6422656249488,
      "v": 87
    },
    {
      "midi": 65,
      "hit": false,
      "t": 274214.17145833245,
      "d": 1598.213619791728,
      "v": 94
    },
    {
      "midi": 53,
      "hit": false,
      "t": 274214.17145833245,
      "d": 1616.0707552083768,
      "v": 94
    },
    {
      "midi": 68,
      "hit": false,
      "t": 274214.17145833245,
      "d": 1624.9993229167303,
      "v": 91
    },
    {
      "midi": 60,
      "hit": false,
      "t": 274223.1000260408,
      "d": 1562.4993489583721,
      "v": 91
    },
    {
      "midi": 41,
      "hit": false,
      "t": 274285.59999999916,
      "d": 3401.7842968750047,
      "v": 105
    },
    {
      "midi": 65,
      "hit": false,
      "t": 275910.59932291583,
      "d": 1696.4278645833256,
      "v": 89
    },
    {
      "midi": 68,
      "hit": false,
      "t": 275910.59932291583,
      "d": 1714.2849999999744,
      "v": 88
    },
    {
      "midi": 60,
      "hit": false,
      "t": 275928.4564583325,
      "d": 1642.856458333321,
      "v": 91
    },
    {
      "midi": 53,
      "hit": false,
      "t": 275937.38502604084,
      "d": 1491.0708072916605,
      "v": 91
    },
    {
      "midi": 63,
      "hit": false,
      "t": 277687.38429687417,
      "d": 1580.3564843751374,
      "v": 93
    },
    {
      "midi": 68,
      "hit": false,
      "t": 277696.3128645825,
      "d": 1544.6422135417233,
      "v": 91
    },
    {
      "midi": 60,
      "hit": false,
      "t": 277696.3128645825,
      "d": 1553.5707812500768,
      "v": 86
    },
    {
      "midi": 51,
      "hit": false,
      "t": 277705.2414322909,
      "d": 1553.5707812500768,
      "v": 89
    },
    {
      "midi": 39,
      "hit": false,
      "t": 277714.1699999992,
      "d": 3401.784296875121,
      "v": 106
    },
    {
      "midi": 51,
      "hit": false,
      "t": 279365.95502604096,
      "d": 1749.9992708333884,
      "v": 85
    },
    {
      "midi": 63,
      "hit": false,
      "t": 279374.8835937493,
      "d": 1535.7136458333698,
      "v": 87
    },
    {
      "midi": 67,
      "hit": false,
      "t": 279383.81216145767,
      "d": 1517.8565104166628,
      "v": 89
    },
    {
      "midi": 60,
      "hit": false,
      "t": 279383.81216145767,
      "d": 1642.856458333321,
      "v": 78
    },
    {
      "midi": 68,
      "hit": false,
      "t": 281071.31145833264,
      "d": 1598.213619791728,
      "v": 94
    },
    {
      "midi": 61,
      "hit": false,
      "t": 281071.31145833264,
      "d": 1616.0707552083768,
      "v": 94
    },
    {
      "midi": 73,
      "hit": false,
      "t": 281071.31145833264,
      "d": 1624.9993229167303,
      "v": 91
    },
    {
      "midi": 65,
      "hit": false,
      "t": 281080.240026041,
      "d": 1562.4993489583721,
      "v": 91
    },
    {
      "midi": 37,
      "hit": false,
      "t": 281142.73999999935,
      "d": 3401.784296875063,
      "v": 101
    },
    {
      "midi": 68,
      "hit": false,
      "t": 282767.739322916,
      "d": 1696.4278645833838,
      "v": 89
    },
    {
      "midi": 73,
      "hit": false,
      "t": 282767.739322916,
      "d": 1714.2850000000326,
      "v": 88
    },
    {
      "midi": 65,
      "hit": false,
      "t": 282785.5964583327,
      "d": 1642.8564583333791,
      "v": 91
    },
    {
      "midi": 61,
      "hit": false,
      "t": 282794.525026041,
      "d": 1624.999322916672,
      "v": 91
    },
    {
      "midi": 49,
      "hit": false,
      "t": 283714.16749999934,
      "d": 830.3567968750722,
      "v": 89
    },
    {
      "midi": 68,
      "hit": false,
      "t": 284544.5242968744,
      "d": 1580.3564843751374,
      "v": 93
    },
    {
      "midi": 73,
      "hit": false,
      "t": 284553.45286458277,
      "d": 1544.6422135417233,
      "v": 91
    },
    {
      "midi": 65,
      "hit": false,
      "t": 284553.45286458277,
      "d": 1553.5707812500768,
      "v": 86
    },
    {
      "midi": 63,
      "hit": false,
      "t": 284562.3814322911,
      "d": 1553.5707812500768,
      "v": 89
    },
    {
      "midi": 39,
      "hit": false,
      "t": 284571.3099999995,
      "d": 3401.7842968751793,
      "v": 101
    },
    {
      "midi": 51,
      "hit": false,
      "t": 284571.3099999995,
      "d": 3401.7842968751793,
      "v": 90
    },
    {
      "midi": 63,
      "hit": false,
      "t": 286223.0950260412,
      "d": 1607.1421875000815,
      "v": 85
    },
    {
      "midi": 67,
      "hit": false,
      "t": 286232.02359374956,
      "d": 1535.7136458333698,
      "v": 87
    },
    {
      "midi": 73,
      "hit": false,
      "t": 286240.9521614579,
      "d": 1517.8565104166628,
      "v": 89
    },
    {
      "midi": 68,
      "hit": false,
      "t": 287928.45145833294,
      "d": 1598.213619791728,
      "v": 94
    },
    {
      "midi": 56,
      "hit": false,
      "t": 287928.45145833294,
      "d": 1616.0707552083768,
      "v": 89
    },
    {
      "midi": 72,
      "hit": false,
      "t": 287928.45145833294,
      "d": 1624.9993229167303,
      "v": 91
    },
    {
      "midi": 63,
      "hit": false,
      "t": 287937.3800260413,
      "d": 1562.4993489583721,
      "v": 91
    },
    {
      "midi": 44,
      "hit": false,
      "t": 287999.87999999966,
      "d": 6830.354296875128,
      "v": 102
    },
    {
      "midi": 68,
      "hit": false,
      "t": 289624.8793229163,
      "d": 1696.4278645833256,
      "v": 89
    },
    {
      "midi": 72,
      "hit": false,
      "t": 289624.8793229163,
      "d": 1714.2849999999744,
      "v": 88
    },
    {
      "midi": 63,
      "hit": false,
      "t": 289642.736458333,
      "d": 1642.856458333321,
      "v": 91
    },
    {
      "midi": 56,
      "hit": false,
      "t": 289651.66502604133,
      "d": 1491.0708072916605,
      "v": 86
    },
    {
      "midi": 67,
      "hit": false,
      "t": 291401.66429687466,
      "d": 1580.3564843750792,
      "v": 103
    },
    {
      "midi": 70,
      "hit": false,
      "t": 291410.592864583,
      "d": 1544.6422135416651,
      "v": 101
    },
    {
      "midi": 63,
      "hit": false,
      "t": 291410.592864583,
      "d": 1553.5707812500186,
      "v": 96
    },
    {
      "midi": 56,
      "hit": false,
      "t": 291419.52143229137,
      "d": 1553.5707812500186,
      "v": 94
    },
    {
      "midi": 56,
      "hit": false,
      "t": 293080.2350260414,
      "d": 1749.9992708333884,
      "v": 95
    },
    {
      "midi": 67,
      "hit": false,
      "t": 293089.16359374975,
      "d": 1535.7136458333698,
      "v": 102
    },
    {
      "midi": 63,
      "hit": false,
      "t": 293098.0921614581,
      "d": 1642.856458333321,
      "v": 93
    },
    {
      "midi": 56,
      "hit": false,
      "t": 294857.0199999998,
      "d": 1696.4278645833838,
      "v": 90
    },
    {
      "midi": 44,
      "hit": false,
      "t": 294857.0199999998,
      "d": 3401.784296875063,
      "v": 106
    },
    {
      "midi": 63,
      "hit": false,
      "t": 294865.94856770814,
      "d": 1553.5707812500186,
      "v": 88
    },
    {
      "midi": 68,
      "hit": false,
      "t": 294865.94856770814,
      "d": 1562.4993489583721,
      "v": 90
    },
    {
      "midi": 72,
      "hit": false,
      "t": 294874.8771354165,
      "d": 1571.4279166666674,
      "v": 93
    },
    {
      "midi": 68,
      "hit": false,
      "t": 296562.3764322915,
      "d": 1508.9279427083093,
      "v": 83
    },
    {
      "midi": 63,
      "hit": false,
      "t": 296571.3049999999,
      "d": 1535.7136458333116,
      "v": 83
    },
    {
      "midi": 72,
      "hit": false,
      "t": 296571.3049999999,
      "d": 1669.6421614583232,
      "v": 90
    },
    {
      "midi": 56,
      "hit": false,
      "t": 296589.1621354165,
      "d": 1624.999322916672,
      "v": 86
    },
    {
      "midi": 67,
      "hit": false,
      "t": 298258.80429687485,
      "d": 1580.3564843751374,
      "v": 91
    },
    {
      "midi": 70,
      "hit": false,
      "t": 298267.7328645832,
      "d": 1544.6422135417233,
      "v": 91
    },
    {
      "midi": 63,
      "hit": false,
      "t": 298267.7328645832,
      "d": 1553.5707812500768,
      "v": 86
    },
    {
      "midi": 55,
      "hit": false,
      "t": 298276.66143229156,
      "d": 1553.5707812500768,
      "v": 89
    },
    {
      "midi": 43,
      "hit": false,
      "t": 298285.5899999999,
      "d": 3401.784296875121,
      "v": 101
    },
    {
      "midi": 55,
      "hit": false,
      "t": 299937.37502604164,
      "d": 1749.9992708333884,
      "v": 85
    },
    {
      "midi": 67,
      "hit": false,
      "t": 299946.30359375,
      "d": 1366.0708593750023,
      "v": 87
    },
    {
      "midi": 63,
      "hit": false,
      "t": 299955.23216145835,
      "d": 1374.9994270832976,
      "v": 78
    },
    {
      "midi": 70,
      "hit": false,
      "t": 299955.23216145835,
      "d": 1419.6422656249488,
      "v": 87
    },
    {
      "midi": 65,
      "hit": false,
      "t": 301642.7314583333,
      "d": 1598.213619791728,
      "v": 94
    },
    {
      "midi": 53,
      "hit": false,
      "t": 301642.7314583333,
      "d": 1616.0707552083768,
      "v": 94
    },
    {
      "midi": 68,
      "hit": false,
      "t": 301642.7314583333,
      "d": 1624.9993229167303,
      "v": 91
    },
    {
      "midi": 60,
      "hit": false,
      "t": 301651.6600260417,
      "d": 1562.4993489583721,
      "v": 91
    },
    {
      "midi": 41,
      "hit": false,
      "t": 301714.16000000003,
      "d": 3401.7842968750047,
      "v": 105
    },
    {
      "midi": 65,
      "hit": false,
      "t": 303339.1593229167,
      "d": 1696.4278645833256,
      "v": 89
    },
    {
      "midi": 68,
      "hit": false,
      "t": 303339.1593229167,
      "d": 1714.2849999999744,
      "v": 88
    },
    {
      "midi": 60,
      "hit": false,
      "t": 303357.01645833335,
      "d": 1642.856458333321,
      "v": 91
    },
    {
      "midi": 53,
      "hit": false,
      "t": 303365.9450260417,
      "d": 1491.0708072916605,
      "v": 91
    },
    {
      "midi": 63,
      "hit": false,
      "t": 305115.94429687504,
      "d": 1580.3564843751374,
      "v": 93
    },
    {
      "midi": 68,
      "hit": false,
      "t": 305124.8728645834,
      "d": 1544.6422135417233,
      "v": 91
    },
    {
      "midi": 60,
      "hit": false,
      "t": 305124.8728645834,
      "d": 1553.5707812500768,
      "v": 86
    },
    {
      "midi": 51,
      "hit": false,
      "t": 305133.80143229174,
      "d": 1553.5707812500768,
      "v": 89
    },
    {
      "midi": 39,
      "hit": false,
      "t": 305142.7300000001,
      "d": 3401.784296875121,
      "v": 106
    },
    {
      "midi": 51,
      "hit": false,
      "t": 306794.51502604183,
      "d": 1749.9992708333884,
      "v": 85
    },
    {
      "midi": 63,
      "hit": false,
      "t": 306803.4435937502,
      "d": 1535.7136458333698,
      "v": 87
    },
    {
      "midi": 67,
      "hit": false,
      "t": 306812.37216145854,
      "d": 1517.8565104166628,
      "v": 89
    },
    {
      "midi": 60,
      "hit": false,
      "t": 306812.37216145854,
      "d": 1642.856458333321,
      "v": 78
    },
    {
      "midi": 68,
      "hit": false,
      "t": 308499.8714583335,
      "d": 1598.213619791728,
      "v": 94
    },
    {
      "midi": 61,
      "hit": false,
      "t": 308499.8714583335,
      "d": 1616.0707552083768,
      "v": 94
    },
    {
      "midi": 73,
      "hit": false,
      "t": 308499.8714583335,
      "d": 1624.9993229167303,
      "v": 91
    },
    {
      "midi": 65,
      "hit": false,
      "t": 308508.80002604186,
      "d": 1562.4993489583721,
      "v": 91
    },
    {
      "midi": 37,
      "hit": false,
      "t": 308571.3000000002,
      "d": 3401.784296875063,
      "v": 101
    },
    {
      "midi": 68,
      "hit": false,
      "t": 310196.2993229169,
      "d": 1696.4278645833838,
      "v": 89
    },
    {
      "midi": 73,
      "hit": false,
      "t": 310196.2993229169,
      "d": 1714.2850000000326,
      "v": 88
    },
    {
      "midi": 65,
      "hit": false,
      "t": 310214.15645833354,
      "d": 1642.8564583333791,
      "v": 91
    },
    {
      "midi": 61,
      "hit": false,
      "t": 310223.0850260419,
      "d": 1624.999322916672,
      "v": 91
    },
    {
      "midi": 49,
      "hit": false,
      "t": 311142.7275000002,
      "d": 830.3567968750722,
      "v": 89
    },
    {
      "midi": 68,
      "hit": false,
      "t": 311973.0842968753,
      "d": 1580.3564843751374,
      "v": 93
    },
    {
      "midi": 73,
      "hit": false,
      "t": 311982.01286458364,
      "d": 1544.6422135417233,
      "v": 91
    },
    {
      "midi": 65,
      "hit": false,
      "t": 311982.01286458364,
      "d": 1553.5707812500768,
      "v": 86
    },
    {
      "midi": 63,
      "hit": false,
      "t": 311990.941432292,
      "d": 1553.5707812500768,
      "v": 89
    },
    {
      "midi": 39,
      "hit": false,
      "t": 311999.87000000034,
      "d": 3401.7842968751793,
      "v": 101
    },
    {
      "midi": 51,
      "hit": false,
      "t": 311999.87000000034,
      "d": 3401.7842968751793,
      "v": 90
    },
    {
      "midi": 63,
      "hit": false,
      "t": 313651.6550260421,
      "d": 1607.1421875000815,
      "v": 85
    },
    {
      "midi": 68,
      "hit": false,
      "t": 313660.58359375043,
      "d": 1535.7136458333698,
      "v": 87
    },
    {
      "midi": 73,
      "hit": false,
      "t": 313669.5121614588,
      "d": 1517.8565104166628,
      "v": 89
    },
    {
      "midi": 65,
      "hit": false,
      "t": 313669.5121614588,
      "d": 1642.8564583333791,
      "v": 78
    },
    {
      "midi": 56,
      "hit": false,
      "t": 315357.0114583338,
      "d": 758.9282552083605,
      "v": 89
    },
    {
      "midi": 68,
      "hit": false,
      "t": 315357.0114583338,
      "d": 758.9282552083605,
      "v": 94
    },
    {
      "midi": 72,
      "hit": false,
      "t": 315357.0114583338,
      "d": 758.9282552083605,
      "v": 91
    },
    {
      "midi": 63,
      "hit": false,
      "t": 315365.94002604217,
      "d": 758.9282552083605,
      "v": 91
    },
    {
      "midi": 56,
      "hit": false,
      "t": 316214.1539583339,
      "d": 758.9282552083605,
      "v": 83
    },
    {
      "midi": 68,
      "hit": false,
      "t": 316214.1539583339,
      "d": 758.9282552083605,
      "v": 88
    },
    {
      "midi": 72,
      "hit": false,
      "t": 316214.1539583339,
      "d": 758.9282552083605,
      "v": 85
    },
    {
      "midi": 63,
      "hit": false,
      "t": 316223.08252604224,
      "d": 758.9282552083605,
      "v": 85
    },
    {
      "midi": 68,
      "hit": false,
      "t": 317053.43932291726,
      "d": 758.9282552083023,
      "v": 89
    },
    {
      "midi": 72,
      "hit": false,
      "t": 317053.43932291726,
      "d": 758.9282552083023,
      "v": 88
    },
    {
      "midi": 63,
      "hit": false,
      "t": 317071.2964583339,
      "d": 758.9282552083023,
      "v": 91
    },
    {
      "midi": 56,
      "hit": false,
      "t": 317080.22502604226,
      "d": 633.9283072916442,
      "v": 86
    },
    {
      "midi": 68,
      "hit": false,
      "t": 317910.5818229172,
      "d": 758.9282552083023,
      "v": 83
    },
    {
      "midi": 72,
      "hit": false,
      "t": 317910.5818229172,
      "d": 758.9282552083023,
      "v": 82
    },
    {
      "midi": 63,
      "hit": false,
      "t": 317928.43895833386,
      "d": 758.9282552083023,
      "v": 85
    },
    {
      "midi": 56,
      "hit": false,
      "t": 317937.3675260422,
      "d": 633.9283072916442,
      "v": 80
    },
    {
      "midi": 68,
      "hit": false,
      "t": 318830.2242968755,
      "d": 633.9283072917024,
      "v": 93
    },
    {
      "midi": 63,
      "hit": false,
      "t": 318839.1528645838,
      "d": 633.9283072917024,
      "v": 86
    },
    {
      "midi": 72,
      "hit": false,
      "t": 318839.1528645838,
      "d": 633.9283072917024,
      "v": 91
    },
    {
      "midi": 56,
      "hit": false,
      "t": 318848.0814322922,
      "d": 633.9283072917024,
      "v": 84
    },
    {
      "midi": 68,
      "hit": false,
      "t": 319687.36679687555,
      "d": 633.9283072917024,
      "v": 87
    },
    {
      "midi": 63,
      "hit": false,
      "t": 319696.2953645839,
      "d": 633.9283072917024,
      "v": 80
    },
    {
      "midi": 72,
      "hit": false,
      "t": 319696.2953645839,
      "d": 633.9283072917024,
      "v": 85
    },
    {
      "midi": 56,
      "hit": false,
      "t": 319705.22393229225,
      "d": 633.9283072917024,
      "v": 78
    },
    {
      "midi": 56,
      "hit": false,
      "t": 320508.79502604227,
      "d": 633.9283072917024,
      "v": 80
    },
    {
      "midi": 68,
      "hit": false,
      "t": 320517.7235937506,
      "d": 633.9283072917024,
      "v": 87
    },
    {
      "midi": 63,
      "hit": false,
      "t": 320526.652161459,
      "d": 633.9283072917024,
      "v": 78
    },
    {
      "midi": 72,
      "hit": false,
      "t": 320526.652161459,
      "d": 633.9283072917024,
      "v": 89
    },
    {
      "midi": 56,
      "hit": false,
      "t": 321365.93752604234,
      "d": 633.9283072917024,
      "v": 74
    },
    {
      "midi": 68,
      "hit": false,
      "t": 321374.8660937507,
      "d": 633.9283072917024,
      "v": 81
    },
    {
      "midi": 63,
      "hit": false,
      "t": 321383.79466145905,
      "d": 633.9283072917024,
      "v": 72
    },
    {
      "midi": 72,
      "hit": false,
      "t": 321383.79466145905,
      "d": 633.9283072917024,
      "v": 83
    },
    {
      "midi": 67,
      "hit": false,
      "t": 375401.62929687573,
      "d": 1553.5707812499604,
      "v": 91
    },
    {
      "midi": 63,
      "hit": false,
      "t": 375428.41500000074,
      "d": 1499.9993749999558,
      "v": 80
    },
    {
      "midi": 70,
      "hit": false,
      "t": 375446.2721354174,
      "d": 1598.2136197916698,
      "v": 84
    },
    {
      "midi": 63,
      "hit": false,
      "t": 377124.84286458406,
      "d": 1473.2136718749534,
      "v": 82
    },
    {
      "midi": 67,
      "hit": false,
      "t": 377142.7000000007,
      "d": 1499.9993749999558,
      "v": 72
    },
    {
      "midi": 70,
      "hit": false,
      "t": 377142.7000000007,
      "d": 1517.8565104166046,
      "v": 78
    },
    {
      "midi": 63,
      "hit": false,
      "t": 378848.05643229233,
      "d": 1419.642265625007,
      "v": 65
    },
    {
      "midi": 70,
      "hit": false,
      "t": 378865.913567709,
      "d": 1482.1422395833652,
      "v": 72
    },
    {
      "midi": 67,
      "hit": false,
      "t": 378874.84213541733,
      "d": 1464.2851041666581,
      "v": 76
    },
    {
      "midi": 70,
      "hit": false,
      "t": 380544.48429687566,
      "d": 1339.28515625,
      "v": 82
    },
    {
      "midi": 67,
      "hit": false,
      "t": 380562.3414322923,
      "d": 1294.6423177083489,
      "v": 89
    },
    {
      "midi": 63,
      "hit": false,
      "t": 380571.27000000066,
      "d": 1312.4994531249977,
      "v": 80
    },
    {
      "midi": 56,
      "hit": false,
      "t": 382285.55500000063,
      "d": 1696.4278645833838,
      "v": 90
    },
    {
      "midi": 44,
      "hit": false,
      "t": 382285.55500000063,
      "d": 3401.784296875063,
      "v": 106
    },
    {
      "midi": 63,
      "hit": false,
      "t": 382294.483567709,
      "d": 1553.5707812500186,
      "v": 88
    },
    {
      "midi": 68,
      "hit": false,
      "t": 382294.483567709,
      "d": 1562.4993489583721,
      "v": 90
    },
    {
      "midi": 72,
      "hit": false,
      "t": 382303.41213541734,
      "d": 1571.4279166666674,
      "v": 93
    },
    {
      "midi": 68,
      "hit": false,
      "t": 383990.91143229237,
      "d": 1508.9279427083093,
      "v": 83
    },
    {
      "midi": 63,
      "hit": false,
      "t": 383999.8400000007,
      "d": 1535.7136458333116,
      "v": 83
    },
    {
      "midi": 72,
      "hit": false,
      "t": 383999.8400000007,
      "d": 1669.6421614583232,
      "v": 90
    },
    {
      "midi": 56,
      "hit": false,
      "t": 384017.6971354174,
      "d": 1624.999322916672,
      "v": 86
    },
    {
      "midi": 67,
      "hit": false,
      "t": 385687.3392968757,
      "d": 1580.3564843751374,
      "v": 91
    },
    {
      "midi": 70,
      "hit": false,
      "t": 385696.26786458405,
      "d": 1544.6422135417233,
      "v": 91
    },
    {
      "midi": 63,
      "hit": false,
      "t": 385696.26786458405,
      "d": 1553.5707812500768,
      "v": 86
    },
    {
      "midi": 55,
      "hit": false,
      "t": 385705.1964322924,
      "d": 1553.5707812500768,
      "v": 89
    },
    {
      "midi": 43,
      "hit": false,
      "t": 385714.12500000076,
      "d": 3401.784296875121,
      "v": 101
    },
    {
      "midi": 55,
      "hit": false,
      "t": 387365.9100260425,
      "d": 1749.9992708333884,
      "v": 85
    },
    {
      "midi": 67,
      "hit": false,
      "t": 387374.83859375084,
      "d": 1366.0708593750023,
      "v": 87
    },
    {
      "midi": 63,
      "hit": false,
      "t": 387383.7671614592,
      "d": 1374.9994270832976,
      "v": 78
    },
    {
      "midi": 70,
      "hit": false,
      "t": 387383.7671614592,
      "d": 1419.6422656249488,
      "v": 87
    },
    {
      "midi": 65,
      "hit": false,
      "t": 389071.26645833417,
      "d": 1598.213619791728,
      "v": 94
    },
    {
      "midi": 53,
      "hit": false,
      "t": 389071.26645833417,
      "d": 1616.0707552083768,
      "v": 94
    },
    {
      "midi": 68,
      "hit": false,
      "t": 389071.26645833417,
      "d": 1624.9993229167303,
      "v": 91
    },
    {
      "midi": 60,
      "hit": false,
      "t": 389080.1950260425,
      "d": 1562.4993489583721,
      "v": 91
    },
    {
      "midi": 41,
      "hit": false,
      "t": 389142.6950000009,
      "d": 3401.7842968750047,
      "v": 105
    },
    {
      "midi": 65,
      "hit": false,
      "t": 390767.69432291755,
      "d": 1696.4278645833256,
      "v": 89
    },
    {
      "midi": 68,
      "hit": false,
      "t": 390767.69432291755,
      "d": 1714.2849999999744,
      "v": 88
    },
    {
      "midi": 60,
      "hit": false,
      "t": 390785.5514583342,
      "d": 1642.856458333321,
      "v": 91
    },
    {
      "midi": 53,
      "hit": false,
      "t": 390794.48002604255,
      "d": 1491.0708072916605,
      "v": 91
    },
    {
      "midi": 63,
      "hit": false,
      "t": 392544.4792968759,
      "d": 1580.3564843751374,
      "v": 93
    },
    {
      "midi": 68,
      "hit": false,
      "t": 392553.40786458424,
      "d": 1544.6422135417233,
      "v": 91
    },
    {
      "midi": 60,
      "hit": false,
      "t": 392553.40786458424,
      "d": 1553.5707812500768,
      "v": 86
    },
    {
      "midi": 51,
      "hit": false,
      "t": 392562.3364322926,
      "d": 1553.5707812500768,
      "v": 89
    },
    {
      "midi": 39,
      "hit": false,
      "t": 392571.26500000095,
      "d": 3401.784296875121,
      "v": 106
    },
    {
      "midi": 51,
      "hit": false,
      "t": 394223.0500260427,
      "d": 1749.9992708333884,
      "v": 85
    },
    {
      "midi": 63,
      "hit": false,
      "t": 394231.97859375103,
      "d": 1535.7136458333698,
      "v": 87
    },
    {
      "midi": 67,
      "hit": false,
      "t": 394240.9071614594,
      "d": 1517.8565104166628,
      "v": 89
    },
    {
      "midi": 60,
      "hit": false,
      "t": 394240.9071614594,
      "d": 1642.856458333321,
      "v": 78
    },
    {
      "midi": 68,
      "hit": false,
      "t": 395928.40645833436,
      "d": 1598.213619791728,
      "v": 94
    },
    {
      "midi": 61,
      "hit": false,
      "t": 395928.40645833436,
      "d": 1616.0707552083768,
      "v": 94
    },
    {
      "midi": 73,
      "hit": false,
      "t": 395928.40645833436,
      "d": 1624.9993229167303,
      "v": 91
    },
    {
      "midi": 65,
      "hit": false,
      "t": 395937.3350260427,
      "d": 1562.4993489583721,
      "v": 91
    },
    {
      "midi": 37,
      "hit": false,
      "t": 395999.83500000107,
      "d": 3401.784296875063,
      "v": 101
    },
    {
      "midi": 68,
      "hit": false,
      "t": 397624.83432291774,
      "d": 1696.4278645833838,
      "v": 89
    },
    {
      "midi": 73,
      "hit": false,
      "t": 397624.83432291774,
      "d": 1714.2850000000326,
      "v": 88
    },
    {
      "midi": 65,
      "hit": false,
      "t": 397642.6914583344,
      "d": 1642.8564583333791,
      "v": 91
    },
    {
      "midi": 61,
      "hit": false,
      "t": 397651.62002604274,
      "d": 1624.999322916672,
      "v": 91
    },
    {
      "midi": 49,
      "hit": false,
      "t": 398571.26250000106,
      "d": 830.3567968750722,
      "v": 89
    },
    {
      "midi": 68,
      "hit": false,
      "t": 399401.61929687613,
      "d": 1580.3564843751374,
      "v": 93
    },
    {
      "midi": 73,
      "hit": false,
      "t": 399410.5478645845,
      "d": 1544.6422135417233,
      "v": 91
    },
    {
      "midi": 65,
      "hit": false,
      "t": 399410.5478645845,
      "d": 1553.5707812500768,
      "v": 86
    },
    {
      "midi": 63,
      "hit": false,
      "t": 399419.47643229284,
      "d": 1553.5707812500768,
      "v": 89
    },
    {
      "midi": 39,
      "hit": false,
      "t": 399428.4050000012,
      "d": 3401.7842968751793,
      "v": 101
    },
    {
      "midi": 51,
      "hit": false,
      "t": 399428.4050000012,
      "d": 3401.7842968751793,
      "v": 90
    },
    {
      "midi": 63,
      "hit": false,
      "t": 401080.1900260429,
      "d": 1607.1421875000815,
      "v": 85
    },
    {
      "midi": 67,
      "hit": false,
      "t": 401089.1185937513,
      "d": 1535.7136458333698,
      "v": 87
    },
    {
      "midi": 73,
      "hit": false,
      "t": 401098.04716145963,
      "d": 1517.8565104166628,
      "v": 89
    },
    {
      "midi": 68,
      "hit": false,
      "t": 402785.54645833466,
      "d": 1598.213619791728,
      "v": 94
    },
    {
      "midi": 56,
      "hit": false,
      "t": 402785.54645833466,
      "d": 1616.0707552083768,
      "v": 89
    },
    {
      "midi": 72,
      "hit": false,
      "t": 402785.54645833466,
      "d": 1624.9993229167303,
      "v": 91
    },
    {
      "midi": 63,
      "hit": false,
      "t": 402794.475026043,
      "d": 1562.4993489583721,
      "v": 91
    },
    {
      "midi": 44,
      "hit": false,
      "t": 402856.9750000014,
      "d": 6830.354296875128,
      "v": 102
    },
    {
      "midi": 68,
      "hit": false,
      "t": 404481.97432291805,
      "d": 1696.4278645833256,
      "v": 89
    },
    {
      "midi": 72,
      "hit": false,
      "t": 404481.97432291805,
      "d": 1714.2849999999744,
      "v": 88
    },
    {
      "midi": 63,
      "hit": false,
      "t": 404499.8314583347,
      "d": 1642.856458333321,
      "v": 91
    },
    {
      "midi": 56,
      "hit": false,
      "t": 404508.76002604305,
      "d": 1491.0708072916605,
      "v": 86
    },
    {
      "midi": 67,
      "hit": false,
      "t": 406258.7592968764,
      "d": 1580.3564843750792,
      "v": 103
    },
    {
      "midi": 70,
      "hit": false,
      "t": 406267.68786458473,
      "d": 1544.6422135416651,
      "v": 101
    },
    {
      "midi": 63,
      "hit": false,
      "t": 406267.68786458473,
      "d": 1553.5707812500186,
      "v": 96
    },
    {
      "midi": 56,
      "hit": false,
      "t": 406276.6164322931,
      "d": 1553.5707812500186,
      "v": 94
    },
    {
      "midi": 56,
      "hit": false,
      "t": 407937.3300260431,
      "d": 1749.9992708333884,
      "v": 95
    },
    {
      "midi": 67,
      "hit": false,
      "t": 407946.25859375147,
      "d": 1535.7136458333698,
      "v": 102
    },
    {
      "midi": 63,
      "hit": false,
      "t": 407955.1871614598,
      "d": 1642.856458333321,
      "v": 93
    },
    {
      "midi": 56,
      "hit": false,
      "t": 409714.1150000015,
      "d": 1696.4278645833838,
      "v": 90
    },
    {
      "midi": 44,
      "hit": false,
      "t": 409714.1150000015,
      "d": 3401.784296875063,
      "v": 106
    },
    {
      "midi": 63,
      "hit": false,
      "t": 409723.04356770986,
      "d": 1553.5707812500186,
      "v": 88
    },
    {
      "midi": 68,
      "hit": false,
      "t": 409723.04356770986,
      "d": 1562.4993489583721,
      "v": 90
    },
    {
      "midi": 72,
      "hit": false,
      "t": 409731.9721354182,
      "d": 1571.4279166666674,
      "v": 93
    },
    {
      "midi": 68,
      "hit": false,
      "t": 411419.47143229324,
      "d": 1508.9279427083093,
      "v": 83
    },
    {
      "midi": 63,
      "hit": false,
      "t": 411428.4000000016,
      "d": 1535.7136458333116,
      "v": 83
    },
    {
      "midi": 72,
      "hit": false,
      "t": 411428.4000000016,
      "d": 1669.6421614583232,
      "v": 90
    },
    {
      "midi": 56,
      "hit": false,
      "t": 411446.25713541824,
      "d": 1624.999322916672,
      "v": 86
    },
    {
      "midi": 67,
      "hit": false,
      "t": 413115.89929687657,
      "d": 1580.3564843751374,
      "v": 91
    },
    {
      "midi": 70,
      "hit": false,
      "t": 413124.8278645849,
      "d": 1544.6422135417233,
      "v": 91
    },
    {
      "midi": 63,
      "hit": false,
      "t": 413124.8278645849,
      "d": 1553.5707812500768,
      "v": 86
    },
    {
      "midi": 55,
      "hit": false,
      "t": 413133.7564322933,
      "d": 1553.5707812500768,
      "v": 89
    },
    {
      "midi": 43,
      "hit": false,
      "t": 413142.6850000016,
      "d": 3401.784296875121,
      "v": 101
    },
    {
      "midi": 55,
      "hit": false,
      "t": 414794.47002604336,
      "d": 1749.9992708333884,
      "v": 85
    },
    {
      "midi": 67,
      "hit": false,
      "t": 414803.3985937517,
      "d": 1366.0708593750023,
      "v": 87
    },
    {
      "midi": 63,
      "hit": false,
      "t": 414812.32716146007,
      "d": 1374.9994270832976,
      "v": 78
    },
    {
      "midi": 70,
      "hit": false,
      "t": 414812.32716146007,
      "d": 1419.6422656249488,
      "v": 87
    },
    {
      "midi": 65,
      "hit": false,
      "t": 416499.82645833504,
      "d": 1598.213619791728,
      "v": 94
    },
    {
      "midi": 53,
      "hit": false,
      "t": 416499.82645833504,
      "d": 1616.0707552083768,
      "v": 94
    },
    {
      "midi": 68,
      "hit": false,
      "t": 416499.82645833504,
      "d": 1624.9993229167303,
      "v": 91
    },
    {
      "midi": 60,
      "hit": false,
      "t": 416508.7550260434,
      "d": 1562.4993489583721,
      "v": 91
    },
    {
      "midi": 41,
      "hit": false,
      "t": 416571.25500000175,
      "d": 3401.7842968750047,
      "v": 105
    },
    {
      "midi": 65,
      "hit": false,
      "t": 418196.2543229184,
      "d": 1696.4278645833256,
      "v": 89
    },
    {
      "midi": 68,
      "hit": false,
      "t": 418196.2543229184,
      "d": 1714.2849999999744,
      "v": 88
    },
    {
      "midi": 60,
      "hit": false,
      "t": 418214.1114583351,
      "d": 1642.856458333321,
      "v": 91
    },
    {
      "midi": 53,
      "hit": false,
      "t": 418223.0400260434,
      "d": 1491.0708072916605,
      "v": 91
    },
    {
      "midi": 63,
      "hit": false,
      "t": 419973.03929687676,
      "d": 1580.3564843751374,
      "v": 93
    },
    {
      "midi": 68,
      "hit": false,
      "t": 419981.9678645851,
      "d": 1544.6422135417233,
      "v": 91
    },
    {
      "midi": 60,
      "hit": false,
      "t": 419981.9678645851,
      "d": 1553.5707812500768,
      "v": 86
    },
    {
      "midi": 51,
      "hit": false,
      "t": 419990.89643229346,
      "d": 1553.5707812500768,
      "v": 89
    },
    {
      "midi": 39,
      "hit": false,
      "t": 419999.8250000018,
      "d": 3401.784296875121,
      "v": 106
    },
    {
      "midi": 51,
      "hit": false,
      "t": 421651.61002604355,
      "d": 1749.9992708333884,
      "v": 85
    },
    {
      "midi": 63,
      "hit": false,
      "t": 421660.5385937519,
      "d": 1535.7136458333698,
      "v": 87
    },
    {
      "midi": 67,
      "hit": false,
      "t": 421669.46716146026,
      "d": 1517.8565104166628,
      "v": 89
    },
    {
      "midi": 60,
      "hit": false,
      "t": 421669.46716146026,
      "d": 1642.856458333321,
      "v": 78
    },
    {
      "midi": 68,
      "hit": false,
      "t": 423356.9664583352,
      "d": 1598.213619791728,
      "v": 94
    },
    {
      "midi": 61,
      "hit": false,
      "t": 423356.9664583352,
      "d": 1616.0707552083768,
      "v": 94
    },
    {
      "midi": 73,
      "hit": false,
      "t": 423356.9664583352,
      "d": 1624.9993229167303,
      "v": 91
    },
    {
      "midi": 65,
      "hit": false,
      "t": 423365.8950260436,
      "d": 1562.4993489583721,
      "v": 91
    },
    {
      "midi": 37,
      "hit": false,
      "t": 423428.39500000194,
      "d": 3401.784296875063,
      "v": 101
    },
    {
      "midi": 68,
      "hit": false,
      "t": 425053.3943229186,
      "d": 1696.4278645833838,
      "v": 89
    },
    {
      "midi": 73,
      "hit": false,
      "t": 425053.3943229186,
      "d": 1714.2850000000326,
      "v": 88
    },
    {
      "midi": 65,
      "hit": false,
      "t": 425071.25145833526,
      "d": 1642.8564583333791,
      "v": 91
    },
    {
      "midi": 61,
      "hit": false,
      "t": 425080.1800260436,
      "d": 1624.999322916672,
      "v": 91
    },
    {
      "midi": 49,
      "hit": false,
      "t": 425999.82250000193,
      "d": 830.3567968750722,
      "v": 89
    },
    {
      "midi": 68,
      "hit": false,
      "t": 426830.179296877,
      "d": 1580.3564843751374,
      "v": 93
    },
    {
      "midi": 73,
      "hit": false,
      "t": 426839.10786458536,
      "d": 1544.6422135417233,
      "v": 91
    },
    {
      "midi": 65,
      "hit": false,
      "t": 426839.10786458536,
      "d": 1553.5707812500768,
      "v": 86
    },
    {
      "midi": 63,
      "hit": false,
      "t": 426848.0364322937,
      "d": 1553.5707812500768,
      "v": 89
    },
    {
      "midi": 39,
      "hit": false,
      "t": 426856.96500000206,
      "d": 3401.7842968751793,
      "v": 101
    },
    {
      "midi": 51,
      "hit": false,
      "t": 426856.96500000206,
      "d": 3401.7842968751793,
      "v": 90
    },
    {
      "midi": 63,
      "hit": false,
      "t": 428508.7500260438,
      "d": 1607.1421875000815,
      "v": 85
    },
    {
      "midi": 68,
      "hit": false,
      "t": 428517.67859375215,
      "d": 1535.7136458333698,
      "v": 87
    },
    {
      "midi": 73,
      "hit": false,
      "t": 428526.6071614605,
      "d": 1517.8565104166628,
      "v": 89
    },
    {
      "midi": 65,
      "hit": false,
      "t": 428526.6071614605,
      "d": 1642.8564583333791,
      "v": 78
    },
    {
      "midi": 68,
      "hit": false,
      "t": 430214.10645833553,
      "d": 1598.213619791728,
      "v": 94
    },
    {
      "midi": 56,
      "hit": false,
      "t": 430214.10645833553,
      "d": 1616.0707552083768,
      "v": 89
    },
    {
      "midi": 72,
      "hit": false,
      "t": 430214.10645833553,
      "d": 1624.9993229167303,
      "v": 91
    },
    {
      "midi": 63,
      "hit": false,
      "t": 430223.0350260439,
      "d": 1562.4993489583721,
      "v": 91
    },
    {
      "midi": 44,
      "hit": false,
      "t": 430285.53500000224,
      "d": 6830.354296875128,
      "v": 102
    },
    {
      "midi": 68,
      "hit": false,
      "t": 431910.5343229189,
      "d": 1696.4278645833256,
      "v": 89
    },
    {
      "midi": 72,
      "hit": false,
      "t": 431910.5343229189,
      "d": 1714.2849999999744,
      "v": 88
    },
    {
      "midi": 63,
      "hit": false,
      "t": 431928.39145833557,
      "d": 1642.856458333321,
      "v": 91
    },
    {
      "midi": 56,
      "hit": false,
      "t": 431937.3200260439,
      "d": 1491.0708072916605,
      "v": 86
    },
    {
      "midi": 67,
      "hit": false,
      "t": 433687.31929687725,
      "d": 1580.3564843750792,
      "v": 103
    },
    {
      "midi": 70,
      "hit": false,
      "t": 433696.2478645856,
      "d": 1544.6422135416651,
      "v": 101
    },
    {
      "midi": 63,
      "hit": false,
      "t": 433696.2478645856,
      "d": 1553.5707812500186,
      "v": 96
    },
    {
      "midi": 56,
      "hit": false,
      "t": 433705.17643229396,
      "d": 1553.5707812500186,
      "v": 94
    },
    {
      "midi": 56,
      "hit": false,
      "t": 435365.890026044,
      "d": 1749.9992708333884,
      "v": 95
    },
    {
      "midi": 67,
      "hit": false,
      "t": 435374.81859375234,
      "d": 1535.7136458333698,
      "v": 102
    },
    {
      "midi": 63,
      "hit": false,
      "t": 435383.7471614607,
      "d": 1642.856458333321,
      "v": 93
    },
    {
      "midi": 68,
      "hit": false,
      "t": 437071.24645833566,
      "d": 1598.213619791728,
      "v": 94
    },
    {
      "midi": 61,
      "hit": false,
      "t": 437071.24645833566,
      "d": 1616.0707552083768,
      "v": 94
    },
    {
      "midi": 73,
      "hit": false,
      "t": 437071.24645833566,
      "d": 1624.9993229167303,
      "v": 91
    },
    {
      "midi": 65,
      "hit": false,
      "t": 437080.175026044,
      "d": 1562.4993489583721,
      "v": 91
    },
    {
      "midi": 37,
      "hit": false,
      "t": 437142.6750000024,
      "d": 1687.4992968750303,
      "v": 101
    },
    {
      "midi": 68,
      "hit": false,
      "t": 438767.67432291905,
      "d": 1696.4278645833838,
      "v": 89
    },
    {
      "midi": 72,
      "hit": false,
      "t": 438767.67432291905,
      "d": 1714.2850000000326,
      "v": 88
    },
    {
      "midi": 63,
      "hit": false,
      "t": 438785.5314583357,
      "d": 1642.8564583333791,
      "v": 91
    },
    {
      "midi": 60,
      "hit": false,
      "t": 438794.46002604405,
      "d": 1624.999322916672,
      "v": 91
    },
    {
      "midi": 36,
      "hit": false,
      "t": 438856.9600000024,
      "d": 1687.4992968750303,
      "v": 102
    },
    {
      "midi": 68,
      "hit": false,
      "t": 440544.45929687744,
      "d": 1580.3564843751374,
      "v": 93
    },
    {
      "midi": 73,
      "hit": false,
      "t": 440553.3878645858,
      "d": 1544.6422135417233,
      "v": 91
    },
    {
      "midi": 65,
      "hit": false,
      "t": 440553.3878645858,
      "d": 1553.5707812500768,
      "v": 86
    },
    {
      "midi": 58,
      "hit": false,
      "t": 440562.31643229414,
      "d": 1553.5707812500768,
      "v": 89
    },
    {
      "midi": 34,
      "hit": false,
      "t": 440571.2450000025,
      "d": 1687.4992968750885,
      "v": 101
    },
    {
      "midi": 61,
      "hit": false,
      "t": 442223.03002604423,
      "d": 1607.1421875000815,
      "v": 85
    },
    {
      "midi": 68,
      "hit": false,
      "t": 442231.9585937526,
      "d": 1535.7136458333698,
      "v": 87
    },
    {
      "midi": 73,
      "hit": false,
      "t": 442240.88716146094,
      "d": 1517.8565104166628,
      "v": 89
    },
    {
      "midi": 65,
      "hit": false,
      "t": 442240.88716146094,
      "d": 1642.8564583333791,
      "v": 78
    },
    {
      "midi": 29,
      "hit": false,
      "t": 442285.5300000026,
      "d": 1687.4992968750885,
      "v": 99
    },
    {
      "midi": 56,
      "hit": false,
      "t": 443928.38645833597,
      "d": 6330.354505208321,
      "v": 89
    },
    {
      "midi": 68,
      "hit": false,
      "t": 443928.38645833597,
      "d": 6330.354505208321,
      "v": 94
    },
    {
      "midi": 72,
      "hit": false,
      "t": 443928.38645833597,
      "d": 6330.354505208321,
      "v": 91
    },
    {
      "midi": 63,
      "hit": false,
      "t": 443937.3150260443,
      "d": 6330.354505208321,
      "v": 91
    },
    {
      "midi": 32,
      "hit": false,
      "t": 443999.8150000027,
      "d": 6401.783046874974,
      "v": 113
    },
    {
      "midi": 58,
      "hit": false,
      "t": 446999.8137500027,
      "d": 830.3567968749558,
      "v": 62
    },
    {
      "midi": 60,
      "hit": false,
      "t": 447428.3850000027,
      "d": 830.3567968749558,
      "v": 62
    },
    {
      "midi": 58,
      "hit": false,
      "t": 448285.52750000264,
      "d": 401.7855468749767,
      "v": 62
    },
    {
      "midi": 60,
      "hit": false,
      "t": 448714.0987500026,
      "d": 830.356796875014,
      "v": 62
    }
  ]
}