{
  "jsonPath": "Latin/Cumbia/Los Caminantes/por-ese-amor.json",
  "path": "Latin\\Cumbia\\Los Caminantes\\Por Ese Amor.mid",
  "name": "Por Ese Amor",
  "difficulty": "Advanced",
  "bpm": 108.000108000108,
  "notes": [
    {
      "midi": 84,
      "hit": false,
      "t": 3110.529296875,
      "d": 269.0969531249989,
      "v": 60
    },
    {
      "midi": 83,
      "hit": false,
      "t": 3353.5846093749988,
      "d": 179.39796875000002,
      "v": 76
    },
    {
      "midi": 81,
      "hit": false,
      "t": 3874.4174218749986,
      "d": 208.3331250000001,
      "v": 71
    },
    {
      "midi": 79,
      "hit": false,
      "t": 4444.439999999999,
      "d": 2407.4049999999897,
      "v": 79
    },
    {
      "midi": 43,
      "hit": false,
      "t": 4444.4400000000005,
      "d": 972.2212500000005,
      "v": 58
    },
    {
      "midi": 31,
      "hit": false,
      "t": 4444.4400000000005,
      "d": 1111.1100000000006,
      "v": 76
    },
    {
      "midi": 55,
      "hit": false,
      "t": 4999.995000000001,
      "d": 972.2212500000005,
      "v": 35
    },
    {
      "midi": 59,
      "hit": false,
      "t": 4999.995000000001,
      "d": 972.2212500000005,
      "v": 46
    },
    {
      "midi": 65,
      "hit": false,
      "t": 4999.995000000001,
      "d": 972.2212500000005,
      "v": 48
    },
    {
      "midi": 50,
      "hit": false,
      "t": 5555.550000000001,
      "d": 1111.1100000000006,
      "v": 50
    },
    {
      "midi": 38,
      "hit": false,
      "t": 5555.550000000001,
      "d": 1111.1100000000006,
      "v": 75
    },
    {
      "midi": 55,
      "hit": false,
      "t": 6111.105000000001,
      "d": 972.2212500000005,
      "v": 42
    },
    {
      "midi": 59,
      "hit": false,
      "t": 6111.105000000001,
      "d": 972.2212500000005,
      "v": 52
    },
    {
      "midi": 65,
      "hit": false,
      "t": 6111.105000000001,
      "d": 972.2212500000005,
      "v": 55
    },
    {
      "midi": 43,
      "hit": false,
      "t": 6666.660000000002,
      "d": 1111.1100000000006,
      "v": 57
    },
    {
      "midi": 31,
      "hit": false,
      "t": 6666.660000000002,
      "d": 1111.1100000000006,
      "v": 72
    },
    {
      "midi": 55,
      "hit": false,
      "t": 7222.215000000002,
      "d": 972.2212500000005,
      "v": 53
    },
    {
      "midi": 59,
      "hit": false,
      "t": 7222.215000000002,
      "d": 972.2212500000005,
      "v": 43
    },
    {
      "midi": 65,
      "hit": false,
      "t": 7222.215000000002,
      "d": 972.2212500000005,
      "v": 53
    },
    {
      "midi": 89,
      "hit": false,
      "t": 7549.182265624985,
      "d": 248.84234374999778,
      "v": 64
    },
    {
      "midi": 50,
      "hit": false,
      "t": 7777.770000000002,
      "d": 972.2212500000005,
      "v": 53
    },
    {
      "midi": 38,
      "hit": false,
      "t": 7777.770000000002,
      "d": 1111.1100000000006,
      "v": 74
    },
    {
      "midi": 88,
      "hit": false,
      "t": 7806.705156249983,
      "d": 205.43960937500015,
      "v": 67
    },
    {
      "midi": 86,
      "hit": false,
      "t": 8318.857421874984,
      "d": 225.6942187500008,
      "v": 67
    },
    {
      "midi": 65,
      "hit": false,
      "t": 8333.325000000003,
      "d": 555.5550000000003,
      "v": 53
    },
    {
      "midi": 55,
      "hit": false,
      "t": 8333.325000000003,
      "d": 694.4437500000004,
      "v": 41
    },
    {
      "midi": 59,
      "hit": false,
      "t": 8333.325000000003,
      "d": 694.4437500000004,
      "v": 41
    },
    {
      "midi": 84,
      "hit": false,
      "t": 8885.986484374984,
      "d": 2494.210468750007,
      "v": 68
    },
    {
      "midi": 48,
      "hit": false,
      "t": 8888.880000000003,
      "d": 1111.1100000000006,
      "v": 55
    },
    {
      "midi": 36,
      "hit": false,
      "t": 8888.880000000003,
      "d": 1111.1100000000006,
      "v": 74
    },
    {
      "midi": 60,
      "hit": false,
      "t": 9444.435000000003,
      "d": 694.4437500000004,
      "v": 40
    },
    {
      "midi": 55,
      "hit": false,
      "t": 9444.435000000003,
      "d": 833.3325000000004,
      "v": 42
    },
    {
      "midi": 64,
      "hit": false,
      "t": 9444.435000000003,
      "d": 833.3325000000004,
      "v": 48
    },
    {
      "midi": 43,
      "hit": false,
      "t": 9999.990000000003,
      "d": 1111.1100000000006,
      "v": 55
    },
    {
      "midi": 31,
      "hit": false,
      "t": 9999.990000000003,
      "d": 1111.1100000000006,
      "v": 75
    },
    {
      "midi": 55,
      "hit": false,
      "t": 10555.545000000004,
      "d": 694.4437500000004,
      "v": 37
    },
    {
      "midi": 60,
      "hit": false,
      "t": 10555.545000000004,
      "d": 694.4437500000004,
      "v": 45
    },
    {
      "midi": 64,
      "hit": false,
      "t": 10555.545000000004,
      "d": 694.4437500000004,
      "v": 56
    },
    {
      "midi": 48,
      "hit": false,
      "t": 11111.100000000004,
      "d": 1111.1100000000006,
      "v": 56
    },
    {
      "midi": 36,
      "hit": false,
      "t": 11111.100000000004,
      "d": 1111.1100000000006,
      "v": 75
    },
    {
      "midi": 55,
      "hit": false,
      "t": 11666.655000000004,
      "d": 694.4437500000004,
      "v": 46
    },
    {
      "midi": 60,
      "hit": false,
      "t": 11666.655000000004,
      "d": 694.4437500000004,
      "v": 41
    },
    {
      "midi": 64,
      "hit": false,
      "t": 11666.655000000004,
      "d": 694.4437500000004,
      "v": 53
    },
    {
      "midi": 84,
      "hit": false,
      "t": 11984.94171874999,
      "d": 208.3331249999992,
      "v": 66
    },
    {
      "midi": 83,
      "hit": false,
      "t": 12216.422968749988,
      "d": 219.90718750000087,
      "v": 66
    },
    {
      "midi": 43,
      "hit": false,
      "t": 12222.210000000005,
      "d": 694.4437500000004,
      "v": 56
    },
    {
      "midi": 31,
      "hit": false,
      "t": 12222.210000000005,
      "d": 972.2212500000005,
      "v": 82
    },
    {
      "midi": 81,
      "hit": false,
      "t": 12771.977968749989,
      "d": 271.9904687500002,
      "v": 71
    },
    {
      "midi": 55,
      "hit": false,
      "t": 12777.765000000005,
      "d": 555.5550000000003,
      "v": 37
    },
    {
      "midi": 60,
      "hit": false,
      "t": 12777.765000000005,
      "d": 555.5550000000003,
      "v": 42
    },
    {
      "midi": 64,
      "hit": false,
      "t": 12777.765000000005,
      "d": 555.5550000000003,
      "v": 55
    },
    {
      "midi": 79,
      "hit": false,
      "t": 13324.639453124988,
      "d": 2502.8910156249913,
      "v": 71
    },
    {
      "midi": 43,
      "hit": false,
      "t": 13333.320000000005,
      "d": 694.4437500000004,
      "v": 57
    },
    {
      "midi": 31,
      "hit": false,
      "t": 13333.320000000005,
      "d": 1111.1100000000006,
      "v": 82
    },
    {
      "midi": 55,
      "hit": false,
      "t": 13888.875000000005,
      "d": 555.5550000000003,
      "v": 31
    },
    {
      "midi": 59,
      "hit": false,
      "t": 13888.875000000005,
      "d": 555.5550000000003,
      "v": 47
    },
    {
      "midi": 65,
      "hit": false,
      "t": 13888.875000000005,
      "d": 555.5550000000003,
      "v": 37
    },
    {
      "midi": 50,
      "hit": false,
      "t": 14444.430000000006,
      "d": 1111.1100000000006,
      "v": 55
    },
    {
      "midi": 38,
      "hit": false,
      "t": 14444.430000000006,
      "d": 1111.1100000000006,
      "v": 74
    },
    {
      "midi": 55,
      "hit": false,
      "t": 14999.985000000006,
      "d": 555.5550000000003,
      "v": 31
    },
    {
      "midi": 59,
      "hit": false,
      "t": 14999.985000000006,
      "d": 555.5550000000003,
      "v": 38
    },
    {
      "midi": 65,
      "hit": false,
      "t": 14999.985000000006,
      "d": 555.5550000000003,
      "v": 55
    },
    {
      "midi": 43,
      "hit": false,
      "t": 15555.540000000006,
      "d": 1111.1099999999988,
      "v": 55
    },
    {
      "midi": 31,
      "hit": false,
      "t": 15555.540000000006,
      "d": 1111.1099999999988,
      "v": 78
    },
    {
      "midi": 55,
      "hit": false,
      "t": 16111.095000000007,
      "d": 555.5549999999985,
      "v": 35
    },
    {
      "midi": 59,
      "hit": false,
      "t": 16111.095000000007,
      "d": 555.5549999999985,
      "v": 45
    },
    {
      "midi": 65,
      "hit": false,
      "t": 16111.095000000007,
      "d": 555.5549999999985,
      "v": 56
    },
    {
      "midi": 89,
      "hit": false,
      "t": 16426.48820312498,
      "d": 228.58773437501804,
      "v": 68
    },
    {
      "midi": 88,
      "hit": false,
      "t": 16649.288906249996,
      "d": 245.94882812500146,
      "v": 66
    },
    {
      "midi": 50,
      "hit": false,
      "t": 16666.650000000005,
      "d": 833.3325000000004,
      "v": 51
    },
    {
      "midi": 38,
      "hit": false,
      "t": 16666.650000000005,
      "d": 1111.1100000000006,
      "v": 76
    },
    {
      "midi": 86,
      "hit": false,
      "t": 17199.056875,
      "d": 269.09695312500116,
      "v": 71
    },
    {
      "midi": 55,
      "hit": false,
      "t": 17222.205000000005,
      "d": 555.5550000000003,
      "v": 29
    },
    {
      "midi": 59,
      "hit": false,
      "t": 17222.205000000005,
      "d": 555.5550000000003,
      "v": 33
    },
    {
      "midi": 65,
      "hit": false,
      "t": 17222.205000000005,
      "d": 555.5550000000003,
      "v": 57
    },
    {
      "midi": 84,
      "hit": false,
      "t": 17771.97296875,
      "d": 3142.3579687500714,
      "v": 79
    },
    {
      "midi": 48,
      "hit": false,
      "t": 17777.760000000006,
      "d": 1111.1100000000006,
      "v": 52
    },
    {
      "midi": 36,
      "hit": false,
      "t": 17777.760000000006,
      "d": 1111.1100000000006,
      "v": 78
    },
    {
      "midi": 55,
      "hit": false,
      "t": 18333.315000000006,
      "d": 555.5550000000003,
      "v": 40
    },
    {
      "midi": 60,
      "hit": false,
      "t": 18333.315000000006,
      "d": 555.5550000000003,
      "v": 46
    },
    {
      "midi": 64,
      "hit": false,
      "t": 18333.315000000006,
      "d": 555.5550000000003,
      "v": 56
    },
    {
      "midi": 43,
      "hit": false,
      "t": 18888.870000000006,
      "d": 1111.1100000000006,
      "v": 55
    },
    {
      "midi": 31,
      "hit": false,
      "t": 18888.870000000006,
      "d": 1111.1100000000006,
      "v": 76
    },
    {
      "midi": 55,
      "hit": false,
      "t": 19192.689140625,
      "d": 303.8191406250007,
      "v": 62
    },
    {
      "midi": 67,
      "hit": false,
      "t": 19424.170390625,
      "d": 211.22664062499825,
      "v": 79
    },
    {
      "midi": 55,
      "hit": false,
      "t": 19444.425000000007,
      "d": 555.5550000000003,
      "v": 42
    },
    {
      "midi": 60,
      "hit": false,
      "t": 19444.425000000007,
      "d": 555.5550000000003,
      "v": 45
    },
    {
      "midi": 64,
      "hit": false,
      "t": 19444.425000000007,
      "d": 555.5550000000003,
      "v": 57
    },
    {
      "midi": 66,
      "hit": false,
      "t": 19568.846171875,
      "d": 170.71742187500058,
      "v": 64
    },
    {
      "midi": 65,
      "hit": false,
      "t": 19687.4803125,
      "d": 141.78226562500276,
      "v": 64
    },
    {
      "midi": 64,
      "hit": false,
      "t": 19791.646875000002,
      "d": 217.013671875,
      "v": 56
    },
    {
      "midi": 63,
      "hit": false,
      "t": 19959.470781250002,
      "d": 2890.622109374999,
      "v": 58
    },
    {
      "midi": 48,
      "hit": false,
      "t": 19999.980000000007,
      "d": 1111.1100000000006,
      "v": 55
    },
    {
      "midi": 36,
      "hit": false,
      "t": 19999.980000000007,
      "d": 1111.1100000000006,
      "v": 74
    },
    {
      "midi": 55,
      "hit": false,
      "t": 20555.535000000007,
      "d": 555.5550000000003,
      "v": 45
    },
    {
      "midi": 60,
      "hit": false,
      "t": 20555.535000000007,
      "d": 555.5550000000003,
      "v": 46
    },
    {
      "midi": 63,
      "hit": false,
      "t": 20555.535000000007,
      "d": 555.5550000000003,
      "v": 34
    },
    {
      "midi": 43,
      "hit": false,
      "t": 21111.090000000007,
      "d": 1111.1100000000006,
      "v": 52
    },
    {
      "midi": 31,
      "hit": false,
      "t": 21111.090000000007,
      "d": 1111.1100000000006,
      "v": 74
    },
    {
      "midi": 55,
      "hit": false,
      "t": 21666.645000000008,
      "d": 555.5550000000003,
      "v": 35
    },
    {
      "midi": 60,
      "hit": false,
      "t": 21666.645000000008,
      "d": 555.5550000000003,
      "v": 47
    },
    {
      "midi": 63,
      "hit": false,
      "t": 21666.645000000008,
      "d": 555.5550000000003,
      "v": 31
    },
    {
      "midi": 48,
      "hit": false,
      "t": 22222.200000000008,
      "d": 1111.1100000000006,
      "v": 55
    },
    {
      "midi": 36,
      "hit": false,
      "t": 22222.200000000008,
      "d": 1111.1100000000006,
      "v": 74
    },
    {
      "midi": 55,
      "hit": false,
      "t": 22777.75500000001,
      "d": 555.5550000000003,
      "v": 42
    },
    {
      "midi": 60,
      "hit": false,
      "t": 22777.75500000001,
      "d": 555.5550000000003,
      "v": 51
    },
    {
      "midi": 63,
      "hit": false,
      "t": 22777.75500000001,
      "d": 555.5550000000003,
      "v": 43
    },
    {
      "midi": 67,
      "hit": false,
      "t": 23093.148203125,
      "d": 283.56453124999825,
      "v": 62
    },
    {
      "midi": 43,
      "hit": false,
      "t": 23333.31000000001,
      "d": 1111.1100000000006,
      "v": 56
    },
    {
      "midi": 31,
      "hit": false,
      "t": 23333.31000000001,
      "d": 1111.1100000000006,
      "v": 72
    },
    {
      "midi": 75,
      "hit": false,
      "t": 23356.458125,
      "d": 274.8839843749993,
      "v": 60
    },
    {
      "midi": 75,
      "hit": false,
      "t": 23703.68,
      "d": 153.35632812499898,
      "v": 64
    },
    {
      "midi": 55,
      "hit": false,
      "t": 23888.86500000001,
      "d": 555.5550000000003,
      "v": 43
    },
    {
      "midi": 60,
      "hit": false,
      "t": 23888.86500000001,
      "d": 555.5550000000003,
      "v": 47
    },
    {
      "midi": 63,
      "hit": false,
      "t": 23888.86500000001,
      "d": 555.5550000000003,
      "v": 40
    },
    {
      "midi": 74,
      "hit": false,
      "t": 23891.758515625,
      "d": 190.97203124999942,
      "v": 57
    },
    {
      "midi": 74,
      "hit": false,
      "t": 24149.281406249997,
      "d": 147.56929687500087,
      "v": 58
    },
    {
      "midi": 72,
      "hit": false,
      "t": 24331.572890624997,
      "d": 355.90242187499825,
      "v": 55
    },
    {
      "midi": 48,
      "hit": false,
      "t": 24444.42000000001,
      "d": 1111.1100000000006,
      "v": 51
    },
    {
      "midi": 36,
      "hit": false,
      "t": 24444.42000000001,
      "d": 1111.1100000000006,
      "v": 72
    },
    {
      "midi": 72,
      "hit": false,
      "t": 24771.387265624995,
      "d": 245.94882812500146,
      "v": 52
    },
    {
      "midi": 55,
      "hit": false,
      "t": 24999.97500000001,
      "d": 555.5550000000003,
      "v": 45
    },
    {
      "midi": 60,
      "hit": false,
      "t": 24999.97500000001,
      "d": 555.5550000000003,
      "v": 51
    },
    {
      "midi": 63,
      "hit": false,
      "t": 24999.97500000001,
      "d": 555.5550000000003,
      "v": 41
    },
    {
      "midi": 67,
      "hit": false,
      "t": 25361.664453124995,
      "d": 159.14335937500073,
      "v": 46
    },
    {
      "midi": 43,
      "hit": false,
      "t": 25555.53000000001,
      "d": 1111.1100000000006,
      "v": 55
    },
    {
      "midi": 31,
      "hit": false,
      "t": 25555.53000000001,
      "d": 1111.1100000000006,
      "v": 72
    },
    {
      "midi": 75,
      "hit": false,
      "t": 25569.997578124996,
      "d": 219.90718750000087,
      "v": 45
    },
    {
      "midi": 75,
      "hit": false,
      "t": 25885.390781249997,
      "d": 162.0368750000016,
      "v": 50
    },
    {
      "midi": 74,
      "hit": false,
      "t": 26111.085,
      "d": 115.74062499999854,
      "v": 45
    },
    {
      "midi": 55,
      "hit": false,
      "t": 26111.08500000001,
      "d": 555.5550000000003,
      "v": 42
    },
    {
      "midi": 60,
      "hit": false,
      "t": 26111.08500000001,
      "d": 555.5550000000003,
      "v": 48
    },
    {
      "midi": 63,
      "hit": false,
      "t": 26111.08500000001,
      "d": 555.5550000000003,
      "v": 34
    },
    {
      "midi": 74,
      "hit": false,
      "t": 26304.950546875,
      "d": 115.74062499999854,
      "v": 56
    },
    {
      "midi": 72,
      "hit": false,
      "t": 26469.8809375,
      "d": 425.346796875001,
      "v": 48
    },
    {
      "midi": 48,
      "hit": false,
      "t": 26666.64000000001,
      "d": 1111.1100000000006,
      "v": 46
    },
    {
      "midi": 36,
      "hit": false,
      "t": 26666.64000000001,
      "d": 1111.1100000000006,
      "v": 76
    },
    {
      "midi": 72,
      "hit": false,
      "t": 26970.459140625,
      "d": 214.12015624999913,
      "v": 53
    },
    {
      "midi": 55,
      "hit": false,
      "t": 27222.19500000001,
      "d": 555.5550000000003,
      "v": 42
    },
    {
      "midi": 60,
      "hit": false,
      "t": 27222.19500000001,
      "d": 555.5550000000003,
      "v": 43
    },
    {
      "midi": 63,
      "hit": false,
      "t": 27222.19500000001,
      "d": 555.5550000000003,
      "v": 33
    },
    {
      "midi": 67,
      "hit": false,
      "t": 27552.05578125,
      "d": 188.07851562499854,
      "v": 47
    },
    {
      "midi": 75,
      "hit": false,
      "t": 27769.069453125,
      "d": 243.05531250000058,
      "v": 52
    },
    {
      "midi": 43,
      "hit": false,
      "t": 27777.75000000001,
      "d": 1111.1100000000006,
      "v": 53
    },
    {
      "midi": 31,
      "hit": false,
      "t": 27777.75000000001,
      "d": 1111.1100000000006,
      "v": 72
    },
    {
      "midi": 75,
      "hit": false,
      "t": 28104.717265625,
      "d": 133.10171875000015,
      "v": 48
    },
    {
      "midi": 74,
      "hit": false,
      "t": 28307.263359375,
      "d": 95.48601562499971,
      "v": 43
    },
    {
      "midi": 55,
      "hit": false,
      "t": 28333.30500000001,
      "d": 555.5550000000003,
      "v": 42
    },
    {
      "midi": 60,
      "hit": false,
      "t": 28333.30500000001,
      "d": 555.5550000000003,
      "v": 56
    },
    {
      "midi": 63,
      "hit": false,
      "t": 28333.30500000001,
      "d": 555.5550000000003,
      "v": 41
    },
    {
      "midi": 74,
      "hit": false,
      "t": 28486.661328125,
      "d": 115.74062499999854,
      "v": 45
    },
    {
      "midi": 72,
      "hit": false,
      "t": 28680.526875,
      "d": 384.8375781249997,
      "v": 58
    },
    {
      "midi": 48,
      "hit": false,
      "t": 28888.86000000001,
      "d": 1111.1100000000006,
      "v": 42
    },
    {
      "midi": 36,
      "hit": false,
      "t": 28888.86000000001,
      "d": 1111.1100000000006,
      "v": 72
    },
    {
      "midi": 72,
      "hit": false,
      "t": 29175.318046875,
      "d": 193.8655468750003,
      "v": 53
    },
    {
      "midi": 79,
      "hit": false,
      "t": 29398.11875,
      "d": 231.48125000000073,
      "v": 58
    },
    {
      "midi": 55,
      "hit": false,
      "t": 29444.41500000001,
      "d": 555.5550000000003,
      "v": 43
    },
    {
      "midi": 60,
      "hit": false,
      "t": 29444.41500000001,
      "d": 555.5550000000003,
      "v": 53
    },
    {
      "midi": 63,
      "hit": false,
      "t": 29444.41500000001,
      "d": 555.5550000000003,
      "v": 41
    },
    {
      "midi": 79,
      "hit": false,
      "t": 29722.1925,
      "d": 173.61093750000146,
      "v": 58
    },
    {
      "midi": 77,
      "hit": false,
      "t": 29985.502421875004,
      "d": 199.6525781249984,
      "v": 48
    },
    {
      "midi": 43,
      "hit": false,
      "t": 29999.970000000012,
      "d": 833.3325000000004,
      "v": 57
    },
    {
      "midi": 31,
      "hit": false,
      "t": 29999.970000000012,
      "d": 972.2212499999987,
      "v": 74
    },
    {
      "midi": 77,
      "hit": false,
      "t": 30292.215078125002,
      "d": 159.14335937500073,
      "v": 43
    },
    {
      "midi": 75,
      "hit": false,
      "t": 30526.589843750004,
      "d": 193.8655468750003,
      "v": 42
    },
    {
      "midi": 55,
      "hit": false,
      "t": 30555.525000000012,
      "d": 555.5550000000003,
      "v": 40
    },
    {
      "midi": 60,
      "hit": false,
      "t": 30555.525000000012,
      "d": 555.5550000000003,
      "v": 43
    },
    {
      "midi": 63,
      "hit": false,
      "t": 30555.525000000012,
      "d": 555.5550000000003,
      "v": 45
    },
    {
      "midi": 75,
      "hit": false,
      "t": 30839.089531250003,
      "d": 225.69421874999898,
      "v": 45
    },
    {
      "midi": 74,
      "hit": false,
      "t": 31090.825390625003,
      "d": 402.1986718750013,
      "v": 51
    },
    {
      "midi": 31,
      "hit": false,
      "t": 31111.08000000001,
      "d": 1111.1100000000006,
      "v": 74
    },
    {
      "midi": 43,
      "hit": false,
      "t": 31111.080000000013,
      "d": 1111.1100000000006,
      "v": 55
    },
    {
      "midi": 55,
      "hit": false,
      "t": 31666.635000000013,
      "d": 555.5550000000003,
      "v": 38
    },
    {
      "midi": 62,
      "hit": false,
      "t": 31666.635000000013,
      "d": 555.5550000000003,
      "v": 47
    },
    {
      "midi": 65,
      "hit": false,
      "t": 31666.635000000013,
      "d": 555.5550000000003,
      "v": 53
    },
    {
      "midi": 67,
      "hit": false,
      "t": 31964.667109375005,
      "d": 219.90718750000087,
      "v": 63
    },
    {
      "midi": 38,
      "hit": false,
      "t": 32222.19000000001,
      "d": 1111.1100000000006,
      "v": 76
    },
    {
      "midi": 50,
      "hit": false,
      "t": 32222.190000000013,
      "d": 1111.109999999997,
      "v": 55
    },
    {
      "midi": 74,
      "hit": false,
      "t": 32230.870546875005,
      "d": 217.013671875,
      "v": 66
    },
    {
      "midi": 74,
      "hit": false,
      "t": 32546.263750000006,
      "d": 150.46281250000175,
      "v": 58
    },
    {
      "midi": 55,
      "hit": false,
      "t": 32777.74500000001,
      "d": 555.5550000000003,
      "v": 37
    },
    {
      "midi": 62,
      "hit": false,
      "t": 32777.74500000001,
      "d": 555.5550000000003,
      "v": 46
    },
    {
      "midi": 65,
      "hit": false,
      "t": 32777.74500000001,
      "d": 555.5550000000003,
      "v": 52
    },
    {
      "midi": 72,
      "hit": false,
      "t": 32780.63851562501,
      "d": 135.99523437499738,
      "v": 58
    },
    {
      "midi": 72,
      "hit": false,
      "t": 33015.01328125001,
      "d": 112.84710937499767,
      "v": 53
    },
    {
      "midi": 71,
      "hit": false,
      "t": 33179.94367187501,
      "d": 353.0089062499974,
      "v": 57
    },
    {
      "midi": 43,
      "hit": false,
      "t": 33333.30000000001,
      "d": 972.2212500000023,
      "v": 56
    },
    {
      "midi": 31,
      "hit": false,
      "t": 33333.30000000001,
      "d": 1111.1100000000006,
      "v": 74
    },
    {
      "midi": 71,
      "hit": false,
      "t": 33631.332109375006,
      "d": 248.84234375000233,
      "v": 52
    },
    {
      "midi": 55,
      "hit": false,
      "t": 33888.85500000001,
      "d": 555.5550000000003,
      "v": 31
    },
    {
      "midi": 62,
      "hit": false,
      "t": 33888.85500000001,
      "d": 555.5550000000003,
      "v": 43
    },
    {
      "midi": 65,
      "hit": false,
      "t": 33888.85500000001,
      "d": 555.5550000000003,
      "v": 51
    },
    {
      "midi": 67,
      "hit": false,
      "t": 34178.20656250001,
      "d": 214.12015624999913,
      "v": 57
    },
    {
      "midi": 74,
      "hit": false,
      "t": 34412.58132812501,
      "d": 202.5460937500029,
      "v": 63
    },
    {
      "midi": 50,
      "hit": false,
      "t": 34444.41000000001,
      "d": 1111.1100000000006,
      "v": 52
    },
    {
      "midi": 38,
      "hit": false,
      "t": 34444.41000000001,
      "d": 1111.1100000000006,
      "v": 72
    },
    {
      "midi": 74,
      "hit": false,
      "t": 34722.187500000015,
      "d": 130.2082031250029,
      "v": 55
    },
    {
      "midi": 72,
      "hit": false,
      "t": 34944.988203125016,
      "d": 81.01843750000262,
      "v": 57
    },
    {
      "midi": 55,
      "hit": false,
      "t": 34999.96500000001,
      "d": 555.5550000000003,
      "v": 41
    },
    {
      "midi": 62,
      "hit": false,
      "t": 34999.96500000001,
      "d": 555.5550000000003,
      "v": 46
    },
    {
      "midi": 65,
      "hit": false,
      "t": 34999.96500000001,
      "d": 555.5550000000003,
      "v": 55
    },
    {
      "midi": 72,
      "hit": false,
      "t": 35115.70562500002,
      "d": 101.27304687500146,
      "v": 52
    },
    {
      "midi": 71,
      "hit": false,
      "t": 35303.784140625015,
      "d": 416.66625000000204,
      "v": 55
    },
    {
      "midi": 43,
      "hit": false,
      "t": 35555.52000000001,
      "d": 1111.1100000000006,
      "v": 57
    },
    {
      "midi": 31,
      "hit": false,
      "t": 35555.52000000001,
      "d": 1111.1100000000006,
      "v": 72
    },
    {
      "midi": 71,
      "hit": false,
      "t": 35821.72343750002,
      "d": 196.75906250000116,
      "v": 51
    },
    {
      "midi": 55,
      "hit": false,
      "t": 36111.07500000001,
      "d": 555.5550000000003,
      "v": 41
    },
    {
      "midi": 62,
      "hit": false,
      "t": 36111.07500000001,
      "d": 555.5550000000003,
      "v": 46
    },
    {
      "midi": 65,
      "hit": false,
      "t": 36111.07500000001,
      "d": 555.5550000000003,
      "v": 53
    },
    {
      "midi": 67,
      "hit": false,
      "t": 36420.68117187502,
      "d": 173.61093750000146,
      "v": 46
    },
    {
      "midi": 74,
      "hit": false,
      "t": 36649.26890625002,
      "d": 188.07851562499854,
      "v": 57
    },
    {
      "midi": 50,
      "hit": false,
      "t": 36666.63000000001,
      "d": 1111.1100000000006,
      "v": 55
    },
    {
      "midi": 38,
      "hit": false,
      "t": 36666.63000000001,
      "d": 1111.1100000000006,
      "v": 72
    },
    {
      "midi": 74,
      "hit": false,
      "t": 36961.76859375002,
      "d": 147.56929687500087,
      "v": 53
    },
    {
      "midi": 72,
      "hit": false,
      "t": 37175.88875000002,
      "d": 127.31468750000204,
      "v": 61
    },
    {
      "midi": 55,
      "hit": false,
      "t": 37222.18500000001,
      "d": 555.5550000000003,
      "v": 42
    },
    {
      "midi": 62,
      "hit": false,
      "t": 37222.18500000001,
      "d": 555.5550000000003,
      "v": 41
    },
    {
      "midi": 65,
      "hit": false,
      "t": 37222.18500000001,
      "d": 555.5550000000003,
      "v": 50
    },
    {
      "midi": 72,
      "hit": false,
      "t": 37366.86078125002,
      "d": 138.88874999999825,
      "v": 47
    },
    {
      "midi": 71,
      "hit": false,
      "t": 37552.04578125002,
      "d": 347.2218750000029,
      "v": 64
    },
    {
      "midi": 43,
      "hit": false,
      "t": 37777.74000000001,
      "d": 1111.1100000000006,
      "v": 58
    },
    {
      "midi": 31,
      "hit": false,
      "t": 37777.74000000001,
      "d": 1111.1100000000006,
      "v": 72
    },
    {
      "midi": 71,
      "hit": false,
      "t": 38020.79531250002,
      "d": 283.56453124999825,
      "v": 41
    },
    {
      "midi": 55,
      "hit": false,
      "t": 38333.29500000001,
      "d": 555.5550000000003,
      "v": 37
    },
    {
      "midi": 62,
      "hit": false,
      "t": 38333.29500000001,
      "d": 555.5550000000003,
      "v": 41
    },
    {
      "midi": 65,
      "hit": false,
      "t": 38333.29500000001,
      "d": 555.5550000000003,
      "v": 55
    },
    {
      "midi": 77,
      "hit": false,
      "t": 38373.80421875002,
      "d": 115.74062499999854,
      "v": 51
    },
    {
      "midi": 77,
      "hit": false,
      "t": 38576.35031250001,
      "d": 127.31468750000204,
      "v": 53
    },
    {
      "midi": 75,
      "hit": false,
      "t": 38747.067734375014,
      "d": 350.1153906249965,
      "v": 64
    },
    {
      "midi": 50,
      "hit": false,
      "t": 38888.85000000001,
      "d": 972.2212500000023,
      "v": 51
    },
    {
      "midi": 38,
      "hit": false,
      "t": 38888.85000000001,
      "d": 1111.1100000000006,
      "v": 72
    },
    {
      "midi": 75,
      "hit": false,
      "t": 39175.30804687501,
      "d": 170.71742187500058,
      "v": 46
    },
    {
      "midi": 55,
      "hit": false,
      "t": 39444.40500000001,
      "d": 416.66625000000204,
      "v": 36
    },
    {
      "midi": 62,
      "hit": false,
      "t": 39444.40500000001,
      "d": 416.66625000000204,
      "v": 43
    },
    {
      "midi": 65,
      "hit": false,
      "t": 39444.40500000001,
      "d": 416.66625000000204,
      "v": 55
    },
    {
      "midi": 77,
      "hit": false,
      "t": 39470.446640625014,
      "d": 101.27304687500146,
      "v": 53
    },
    {
      "midi": 77,
      "hit": false,
      "t": 39644.057578125015,
      "d": 144.67578125,
      "v": 52
    },
    {
      "midi": 79,
      "hit": false,
      "t": 39800.30742187502,
      "d": 269.09695312500116,
      "v": 64
    },
    {
      "midi": 63,
      "hit": false,
      "t": 39999.960000000014,
      "d": 138.88874999999825,
      "v": 47
    },
    {
      "midi": 48,
      "hit": false,
      "t": 39999.960000000014,
      "d": 277.7774999999965,
      "v": 51
    },
    {
      "midi": 60,
      "hit": false,
      "t": 39999.960000000014,
      "d": 277.7774999999965,
      "v": 56
    },
    {
      "midi": 36,
      "hit": false,
      "t": 39999.960000000014,
      "d": 277.7774999999965,
      "v": 72
    },
    {
      "midi": 67,
      "hit": false,
      "t": 40853.54710937502,
      "d": 260.41640624999854,
      "v": 57
    },
    {
      "midi": 75,
      "hit": false,
      "t": 41113.963515625015,
      "d": 260.41640624999854,
      "v": 60
    },
    {
      "midi": 75,
      "hit": false,
      "t": 41464.07890625001,
      "d": 164.93039062499884,
      "v": 56
    },
    {
      "midi": 74,
      "hit": false,
      "t": 41669.51851562501,
      "d": 153.35632812500262,
      "v": 55
    },
    {
      "midi": 74,
      "hit": false,
      "t": 41898.10625000001,
      "d": 138.88874999999825,
      "v": 57
    },
    {
      "midi": 72,
      "hit": false,
      "t": 42063.03664062501,
      "d": 457.1754687499997,
      "v": 48
    },
    {
      "midi": 60,
      "hit": false,
      "t": 42161.416171875,
      "d": 1145.8321875000038,
      "v": 61
    },
    {
      "midi": 63,
      "hit": false,
      "t": 42170.09671875,
      "d": 1148.7257031250047,
      "v": 71
    },
    {
      "midi": 48,
      "hit": false,
      "t": 42222.18000000001,
      "d": 1111.1100000000006,
      "v": 52
    },
    {
      "midi": 36,
      "hit": false,
      "t": 42222.18000000001,
      "d": 1111.1100000000006,
      "v": 72
    },
    {
      "midi": 72,
      "hit": false,
      "t": 42583.86945312501,
      "d": 153.35632812500262,
      "v": 48
    },
    {
      "midi": 55,
      "hit": false,
      "t": 42777.73500000001,
      "d": 555.5550000000003,
      "v": 45
    },
    {
      "midi": 60,
      "hit": false,
      "t": 42777.73500000001,
      "d": 555.5550000000003,
      "v": 52
    },
    {
      "midi": 63,
      "hit": false,
      "t": 42777.73500000001,
      "d": 555.5550000000003,
      "v": 41
    },
    {
      "midi": 67,
      "hit": false,
      "t": 43116.27632812501,
      "d": 208.33312499999738,
      "v": 57
    },
    {
      "midi": 65,
      "hit": false,
      "t": 43272.526171875,
      "d": 1116.8970312500096,
      "v": 64
    },
    {
      "midi": 62,
      "hit": false,
      "t": 43278.313203125,
      "d": 1114.0035156250087,
      "v": 58
    },
    {
      "midi": 43,
      "hit": false,
      "t": 43333.29000000001,
      "d": 1111.1100000000006,
      "v": 56
    },
    {
      "midi": 31,
      "hit": false,
      "t": 43333.29000000001,
      "d": 1111.1100000000006,
      "v": 72
    },
    {
      "midi": 75,
      "hit": false,
      "t": 43353.54460937501,
      "d": 240.1617968749997,
      "v": 35
    },
    {
      "midi": 75,
      "hit": false,
      "t": 43668.93781250001,
      "d": 156.2498437500035,
      "v": 55
    },
    {
      "midi": 74,
      "hit": false,
      "t": 43868.59039062501,
      "d": 107.0600781250032,
      "v": 53
    },
    {
      "midi": 55,
      "hit": false,
      "t": 43888.84500000001,
      "d": 555.5550000000003,
      "v": 40
    },
    {
      "midi": 60,
      "hit": false,
      "t": 43888.84500000001,
      "d": 555.5550000000003,
      "v": 42
    },
    {
      "midi": 63,
      "hit": false,
      "t": 43888.84500000001,
      "d": 555.5550000000003,
      "v": 41
    },
    {
      "midi": 74,
      "hit": false,
      "t": 44053.775390625015,
      "d": 112.84710937499767,
      "v": 47
    },
    {
      "midi": 72,
      "hit": false,
      "t": 44250.534453125016,
      "d": 468.7495312500032,
      "v": 45
    },
    {
      "midi": 63,
      "hit": false,
      "t": 44337.339921875006,
      "d": 2039.9285156250044,
      "v": 52
    },
    {
      "midi": 67,
      "hit": false,
      "t": 44343.12695312501,
      "d": 2340.8541406250006,
      "v": 55
    },
    {
      "midi": 48,
      "hit": false,
      "t": 44444.40000000001,
      "d": 1111.1100000000006,
      "v": 52
    },
    {
      "midi": 36,
      "hit": false,
      "t": 44444.40000000001,
      "d": 1111.1100000000006,
      "v": 72
    },
    {
      "midi": 72,
      "hit": false,
      "t": 44782.941328125016,
      "d": 167.8239062499997,
      "v": 55
    },
    {
      "midi": 55,
      "hit": false,
      "t": 44999.95500000001,
      "d": 555.5550000000003,
      "v": 36
    },
    {
      "midi": 60,
      "hit": false,
      "t": 44999.95500000001,
      "d": 555.5550000000003,
      "v": 43
    },
    {
      "midi": 63,
      "hit": false,
      "t": 44999.95500000001,
      "d": 555.5550000000003,
      "v": 41
    },
    {
      "midi": 67,
      "hit": false,
      "t": 45329.815781250014,
      "d": 237.26828124999884,
      "v": 50
    },
    {
      "midi": 43,
      "hit": false,
      "t": 45555.51000000001,
      "d": 1111.1100000000006,
      "v": 53
    },
    {
      "midi": 31,
      "hit": false,
      "t": 45555.51000000001,
      "d": 1111.1100000000006,
      "v": 72
    },
    {
      "midi": 75,
      "hit": false,
      "t": 45569.977578125014,
      "d": 243.05531250000058,
      "v": 53
    },
    {
      "midi": 75,
      "hit": false,
      "t": 45911.412421875015,
      "d": 135.99523437499738,
      "v": 57
    },
    {
      "midi": 55,
      "hit": false,
      "t": 46111.06500000001,
      "d": 555.5550000000003,
      "v": 42
    },
    {
      "midi": 60,
      "hit": false,
      "t": 46111.06500000001,
      "d": 555.5550000000003,
      "v": 43
    },
    {
      "midi": 63,
      "hit": false,
      "t": 46111.06500000001,
      "d": 555.5550000000003,
      "v": 41
    },
    {
      "midi": 74,
      "hit": false,
      "t": 46116.85203125001,
      "d": 98.37953125000058,
      "v": 53
    },
    {
      "midi": 74,
      "hit": false,
      "t": 46293.356484375014,
      "d": 109.9535937499968,
      "v": 55
    },
    {
      "midi": 72,
      "hit": false,
      "t": 46475.64796875001,
      "d": 434.02734375,
      "v": 57
    },
    {
      "midi": 64,
      "hit": false,
      "t": 46655.04593750001,
      "d": 1105.322968750006,
      "v": 64
    },
    {
      "midi": 60,
      "hit": false,
      "t": 46657.93945312501,
      "d": 2161.4561718750047,
      "v": 66
    },
    {
      "midi": 48,
      "hit": false,
      "t": 46666.62000000001,
      "d": 833.3324999999968,
      "v": 52
    },
    {
      "midi": 36,
      "hit": false,
      "t": 46666.62000000001,
      "d": 1111.1100000000006,
      "v": 72
    },
    {
      "midi": 72,
      "hit": false,
      "t": 46990.69375000001,
      "d": 107.0600781250032,
      "v": 48
    },
    {
      "midi": 72,
      "hit": false,
      "t": 47204.81390625002,
      "d": 89.69898437499796,
      "v": 51
    },
    {
      "midi": 55,
      "hit": false,
      "t": 47222.17500000001,
      "d": 833.3324999999895,
      "v": 40
    },
    {
      "midi": 60,
      "hit": false,
      "t": 47222.17500000001,
      "d": 833.3324999999895,
      "v": 42
    },
    {
      "midi": 64,
      "hit": false,
      "t": 47222.17500000001,
      "d": 833.3324999999895,
      "v": 51
    },
    {
      "midi": 72,
      "hit": false,
      "t": 47387.105390625016,
      "d": 150.46281250000175,
      "v": 52
    },
    {
      "midi": 76,
      "hit": false,
      "t": 47592.54500000002,
      "d": 434.02734375,
      "v": 53
    },
    {
      "midi": 67,
      "hit": false,
      "t": 47708.28562500001,
      "d": 1163.1932812500017,
      "v": 57
    },
    {
      "midi": 46,
      "hit": false,
      "t": 47777.73,
      "d": 1111.1099999999933,
      "v": 53
    },
    {
      "midi": 34,
      "hit": false,
      "t": 47777.73000000001,
      "d": 1111.1100000000006,
      "v": 72
    },
    {
      "midi": 76,
      "hit": false,
      "t": 48107.59078125002,
      "d": 109.9535937499968,
      "v": 58
    },
    {
      "midi": 55,
      "hit": false,
      "t": 48333.284999999996,
      "d": 555.5550000000003,
      "v": 35
    },
    {
      "midi": 58,
      "hit": false,
      "t": 48333.284999999996,
      "d": 555.5550000000003,
      "v": 37
    },
    {
      "midi": 60,
      "hit": false,
      "t": 48333.284999999996,
      "d": 555.5550000000003,
      "v": 43
    },
    {
      "midi": 64,
      "hit": false,
      "t": 48333.284999999996,
      "d": 555.5550000000003,
      "v": 42
    },
    {
      "midi": 76,
      "hit": false,
      "t": 48368.00718750002,
      "d": 92.59249999999884,
      "v": 55
    },
    {
      "midi": 76,
      "hit": false,
      "t": 48541.61812500002,
      "d": 92.59249999999884,
      "v": 51
    },
    {
      "midi": 77,
      "hit": false,
      "t": 48712.33554687502,
      "d": 1325.2301562499997,
      "v": 52
    },
    {
      "midi": 68,
      "hit": false,
      "t": 48828.076171875015,
      "d": 1177.6608593749988,
      "v": 64
    },
    {
      "midi": 65,
      "hit": false,
      "t": 48833.863203125016,
      "d": 1183.4478906250006,
      "v": 53
    },
    {
      "midi": 41,
      "hit": false,
      "t": 48888.84,
      "d": 1111.1100000000006,
      "v": 55
    },
    {
      "midi": 29,
      "hit": false,
      "t": 48888.84000000001,
      "d": 1111.1100000000006,
      "v": 76
    },
    {
      "midi": 53,
      "hit": false,
      "t": 49444.395,
      "d": 694.4437499999985,
      "v": 25
    },
    {
      "midi": 56,
      "hit": false,
      "t": 49444.395,
      "d": 694.4437499999985,
      "v": 40
    },
    {
      "midi": 60,
      "hit": false,
      "t": 49444.395,
      "d": 694.4437499999985,
      "v": 50
    },
    {
      "midi": 67,
      "hit": false,
      "t": 49950.76023437501,
      "d": 1076.387812500012,
      "v": 51
    },
    {
      "midi": 70,
      "hit": false,
      "t": 49956.54726562501,
      "d": 1099.5359375000116,
      "v": 50
    },
    {
      "midi": 48,
      "hit": false,
      "t": 49999.95,
      "d": 1111.1100000000006,
      "v": 50
    },
    {
      "midi": 36,
      "hit": false,
      "t": 49999.95000000001,
      "d": 1111.1100000000006,
      "v": 74
    },
    {
      "midi": 53,
      "hit": false,
      "t": 50555.505,
      "d": 555.5550000000003,
      "v": 32
    },
    {
      "midi": 56,
      "hit": false,
      "t": 50555.505,
      "d": 555.5550000000003,
      "v": 41
    },
    {
      "midi": 60,
      "hit": false,
      "t": 50555.505,
      "d": 555.5550000000003,
      "v": 52
    },
    {
      "midi": 72,
      "hit": false,
      "t": 50986.63882812502,
      "d": 2178.81726562501,
      "v": 55
    },
    {
      "midi": 68,
      "hit": false,
      "t": 50998.21289062502,
      "d": 2175.923750000009,
      "v": 52
    },
    {
      "midi": 77,
      "hit": false,
      "t": 51067.65726562502,
      "d": 1649.303906250003,
      "v": 73
    },
    {
      "midi": 41,
      "hit": false,
      "t": 51111.06,
      "d": 1111.1100000000006,
      "v": 56
    },
    {
      "midi": 29,
      "hit": false,
      "t": 51111.06000000001,
      "d": 1111.1100000000006,
      "v": 72
    },
    {
      "midi": 53,
      "hit": false,
      "t": 51666.615,
      "d": 555.5550000000003,
      "v": 28
    },
    {
      "midi": 56,
      "hit": false,
      "t": 51666.615,
      "d": 555.5550000000003,
      "v": 34
    },
    {
      "midi": 60,
      "hit": false,
      "t": 51666.615,
      "d": 555.5550000000003,
      "v": 52
    },
    {
      "midi": 48,
      "hit": false,
      "t": 52222.17,
      "d": 694.4437499999985,
      "v": 50
    },
    {
      "midi": 36,
      "hit": false,
      "t": 52222.17000000001,
      "d": 972.2212500000023,
      "v": 72
    },
    {
      "midi": 74,
      "hit": false,
      "t": 52760.36390625002,
      "d": 526.6198437499988,
      "v": 68
    },
    {
      "midi": 53,
      "hit": false,
      "t": 52777.725,
      "d": 555.5550000000003,
      "v": 32
    },
    {
      "midi": 56,
      "hit": false,
      "t": 52777.725,
      "d": 555.5550000000003,
      "v": 32
    },
    {
      "midi": 60,
      "hit": false,
      "t": 52777.725,
      "d": 555.5550000000003,
      "v": 51
    },
    {
      "midi": 63,
      "hit": false,
      "t": 53266.72914062503,
      "d": 1082.1748437500064,
      "v": 79
    },
    {
      "midi": 60,
      "hit": false,
      "t": 53269.62265625003,
      "d": 1151.6192187500055,
      "v": 67
    },
    {
      "midi": 75,
      "hit": false,
      "t": 53318.81242187502,
      "d": 1655.0909374999974,
      "v": 79
    },
    {
      "midi": 48,
      "hit": false,
      "t": 53333.28,
      "d": 1111.1100000000006,
      "v": 43
    },
    {
      "midi": 36,
      "hit": false,
      "t": 53333.28000000001,
      "d": 1111.1100000000006,
      "v": 74
    },
    {
      "midi": 55,
      "hit": false,
      "t": 53888.835,
      "d": 555.5550000000003,
      "v": 37
    },
    {
      "midi": 60,
      "hit": false,
      "t": 53888.835,
      "d": 555.5550000000003,
      "v": 50
    },
    {
      "midi": 63,
      "hit": false,
      "t": 53888.835,
      "d": 555.5550000000003,
      "v": 43
    },
    {
      "midi": 65,
      "hit": false,
      "t": 54343.116953125034,
      "d": 570.0225781250047,
      "v": 62
    },
    {
      "midi": 62,
      "hit": false,
      "t": 54348.903984375036,
      "d": 636.5734375000029,
      "v": 63
    },
    {
      "midi": 43,
      "hit": false,
      "t": 54444.39,
      "d": 972.2212500000023,
      "v": 57
    },
    {
      "midi": 31,
      "hit": false,
      "t": 54444.390000000014,
      "d": 972.2212500000023,
      "v": 80
    },
    {
      "midi": 63,
      "hit": false,
      "t": 54901.565468750036,
      "d": 567.1290625000111,
      "v": 43
    },
    {
      "midi": 67,
      "hit": false,
      "t": 54944.96820312504,
      "d": 593.1707031250044,
      "v": 61
    },
    {
      "midi": 55,
      "hit": false,
      "t": 54999.945,
      "d": 555.5550000000003,
      "v": 48
    },
    {
      "midi": 60,
      "hit": false,
      "t": 54999.945,
      "d": 555.5550000000003,
      "v": 46
    },
    {
      "midi": 63,
      "hit": false,
      "t": 54999.945,
      "d": 555.5550000000003,
      "v": 42
    },
    {
      "midi": 72,
      "hit": false,
      "t": 55005.73203125002,
      "d": 491.8976562500029,
      "v": 64
    },
    {
      "midi": 62,
      "hit": false,
      "t": 55454.22695312504,
      "d": 2259.8357031250052,
      "v": 58
    },
    {
      "midi": 65,
      "hit": false,
      "t": 55457.12046875004,
      "d": 2248.2616406250017,
      "v": 62
    },
    {
      "midi": 74,
      "hit": false,
      "t": 55526.56484375003,
      "d": 1652.1974218750038,
      "v": 64
    },
    {
      "midi": 43,
      "hit": false,
      "t": 55555.5,
      "d": 833.3324999999968,
      "v": 56
    },
    {
      "midi": 31,
      "hit": false,
      "t": 55555.500000000015,
      "d": 1111.1100000000006,
      "v": 80
    },
    {
      "midi": 55,
      "hit": false,
      "t": 56111.055,
      "d": 694.4437499999913,
      "v": 41
    },
    {
      "midi": 62,
      "hit": false,
      "t": 56111.055,
      "d": 694.4437499999913,
      "v": 46
    },
    {
      "midi": 65,
      "hit": false,
      "t": 56111.055,
      "d": 694.4437499999913,
      "v": 47
    },
    {
      "midi": 50,
      "hit": false,
      "t": 56666.60999999999,
      "d": 694.4437499999985,
      "v": 45
    },
    {
      "midi": 38,
      "hit": false,
      "t": 56666.610000000015,
      "d": 1111.1100000000006,
      "v": 78
    },
    {
      "midi": 71,
      "hit": false,
      "t": 57187.442812500034,
      "d": 532.4068750000006,
      "v": 62
    },
    {
      "midi": 55,
      "hit": false,
      "t": 57222.16499999999,
      "d": 555.5550000000003,
      "v": 37
    },
    {
      "midi": 62,
      "hit": false,
      "t": 57222.16499999999,
      "d": 555.5550000000003,
      "v": 43
    },
    {
      "midi": 65,
      "hit": false,
      "t": 57222.16499999999,
      "d": 555.5550000000003,
      "v": 53
    },
    {
      "midi": 64,
      "hit": false,
      "t": 57659.085859375045,
      "d": 2418.9790625000023,
      "v": 52
    },
    {
      "midi": 60,
      "hit": false,
      "t": 57676.44695312504,
      "d": 2401.6179687500044,
      "v": 48
    },
    {
      "midi": 72,
      "hit": false,
      "t": 57731.42375000004,
      "d": 1707.1742187499985,
      "v": 64
    },
    {
      "midi": 48,
      "hit": false,
      "t": 57777.719999999994,
      "d": 1111.1100000000006,
      "v": 48
    },
    {
      "midi": 36,
      "hit": false,
      "t": 57777.720000000016,
      "d": 1111.1100000000006,
      "v": 74
    },
    {
      "midi": 60,
      "hit": false,
      "t": 58333.274999999994,
      "d": 555.5550000000003,
      "v": 51
    },
    {
      "midi": 64,
      "hit": false,
      "t": 58333.274999999994,
      "d": 555.5550000000003,
      "v": 43
    },
    {
      "midi": 55,
      "hit": false,
      "t": 58333.274999999994,
      "d": 694.4437499999985,
      "v": 36
    },
    {
      "midi": 43,
      "hit": false,
      "t": 58888.829999999994,
      "d": 1111.1100000000006,
      "v": 57
    },
    {
      "midi": 31,
      "hit": false,
      "t": 58888.830000000016,
      "d": 1111.1100000000006,
      "v": 74
    },
    {
      "midi": 55,
      "hit": false,
      "t": 59444.384999999995,
      "d": 694.4437499999985,
      "v": 41
    },
    {
      "midi": 60,
      "hit": false,
      "t": 59444.384999999995,
      "d": 694.4437499999985,
      "v": 48
    },
    {
      "midi": 64,
      "hit": false,
      "t": 59444.384999999995,
      "d": 694.4437499999985,
      "v": 47
    },
    {
      "midi": 48,
      "hit": false,
      "t": 59999.939999999995,
      "d": 277.7774999999965,
      "v": 62
    },
    {
      "midi": 36,
      "hit": false,
      "t": 59999.94000000002,
      "d": 277.7774999999965,
      "v": 78
    },
    {
      "midi": 76,
      "hit": false,
      "t": 60549.70796875004,
      "d": 237.26828124999884,
      "v": 66
    },
    {
      "midi": 76,
      "hit": false,
      "t": 60867.99468750004,
      "d": 170.71742187500058,
      "v": 60
    },
    {
      "midi": 76,
      "hit": false,
      "t": 61131.30460937504,
      "d": 185.18499999999767,
      "v": 57
    },
    {
      "midi": 76,
      "hit": false,
      "t": 61409.082109375035,
      "d": 138.88874999999825,
      "v": 58
    },
    {
      "midi": 76,
      "hit": false,
      "t": 61652.137421875035,
      "d": 130.2082031250029,
      "v": 61
    },
    {
      "midi": 76,
      "hit": false,
      "t": 61880.72515625004,
      "d": 92.59249999999884,
      "v": 48
    },
    {
      "midi": 76,
      "hit": false,
      "t": 62057.22960937504,
      "d": 442.7078906250026,
      "v": 61
    },
    {
      "midi": 62,
      "hit": false,
      "t": 62187.43781250005,
      "d": 2144.0950781249994,
      "v": 60
    },
    {
      "midi": 59,
      "hit": false,
      "t": 62190.33132812505,
      "d": 2236.6875781250055,
      "v": 63
    },
    {
      "midi": 43,
      "hit": false,
      "t": 62222.15999999999,
      "d": 1111.1100000000006,
      "v": 63
    },
    {
      "midi": 31,
      "hit": false,
      "t": 62222.16000000001,
      "d": 1111.1100000000006,
      "v": 72
    },
    {
      "midi": 74,
      "hit": false,
      "t": 62560.70132812504,
      "d": 303.8191406249971,
      "v": 58
    },
    {
      "midi": 55,
      "hit": false,
      "t": 62777.71499999999,
      "d": 555.5550000000003,
      "v": 55
    },
    {
      "midi": 62,
      "hit": false,
      "t": 62777.71499999999,
      "d": 555.5550000000003,
      "v": 56
    },
    {
      "midi": 65,
      "hit": false,
      "t": 62777.71499999999,
      "d": 555.5550000000003,
      "v": 57
    },
    {
      "midi": 74,
      "hit": false,
      "t": 62991.83515625004,
      "d": 72.337890625,
      "v": 58
    },
    {
      "midi": 74,
      "hit": false,
      "t": 63165.44609375004,
      "d": 75.23140625000087,
      "v": 61
    },
    {
      "midi": 50,
      "hit": false,
      "t": 63333.26999999999,
      "d": 694.4437499999985,
      "v": 62
    },
    {
      "midi": 38,
      "hit": false,
      "t": 63333.27000000001,
      "d": 1111.1100000000006,
      "v": 76
    },
    {
      "midi": 74,
      "hit": false,
      "t": 63356.41812500004,
      "d": 245.94882812500146,
      "v": 62
    },
    {
      "midi": 74,
      "hit": false,
      "t": 63694.95945312504,
      "d": 83.91195312500349,
      "v": 55
    },
    {
      "midi": 55,
      "hit": false,
      "t": 63888.82499999999,
      "d": 555.5550000000003,
      "v": 45
    },
    {
      "midi": 62,
      "hit": false,
      "t": 63888.82499999999,
      "d": 555.5550000000003,
      "v": 52
    },
    {
      "midi": 65,
      "hit": false,
      "t": 63888.82499999999,
      "d": 555.5550000000003,
      "v": 56
    },
    {
      "midi": 74,
      "hit": false,
      "t": 63888.82500000004,
      "d": 75.23140625000087,
      "v": 57
    },
    {
      "midi": 74,
      "hit": false,
      "t": 64062.43593750004,
      "d": 81.01843750000262,
      "v": 55
    },
    {
      "midi": 74,
      "hit": false,
      "t": 64253.40796875004,
      "d": 457.1754687499997,
      "v": 63
    },
    {
      "midi": 64,
      "hit": false,
      "t": 64357.57453125005,
      "d": 2245.368125000008,
      "v": 51
    },
    {
      "midi": 60,
      "hit": false,
      "t": 64363.36156250005,
      "d": 2013.886875000011,
      "v": 53
    },
    {
      "midi": 55,
      "hit": false,
      "t": 64374.93562500006,
      "d": 1142.938671875003,
      "v": 48
    },
    {
      "midi": 48,
      "hit": false,
      "t": 64444.37999999999,
      "d": 1111.1100000000006,
      "v": 48
    },
    {
      "midi": 36,
      "hit": false,
      "t": 64444.38000000001,
      "d": 1111.1099999999933,
      "v": 76
    },
    {
      "midi": 72,
      "hit": false,
      "t": 64739.51859375004,
      "d": 292.2450781250009,
      "v": 62
    },
    {
      "midi": 55,
      "hit": false,
      "t": 64999.93499999999,
      "d": 555.5550000000003,
      "v": 33
    },
    {
      "midi": 60,
      "hit": false,
      "t": 64999.93499999999,
      "d": 555.5550000000003,
      "v": 47
    },
    {
      "midi": 64,
      "hit": false,
      "t": 64999.93499999999,
      "d": 555.5550000000003,
      "v": 56
    },
    {
      "midi": 72,
      "hit": false,
      "t": 65214.05515625004,
      "d": 81.01843750000262,
      "v": 64
    },
    {
      "midi": 72,
      "hit": false,
      "t": 65390.55960937504,
      "d": 81.01843750000262,
      "v": 57
    },
    {
      "midi": 67,
      "hit": false,
      "t": 65497.61968750006,
      "d": 1148.7257031250047,
      "v": 58
    },
    {
      "midi": 43,
      "hit": false,
      "t": 65555.48999999999,
      "d": 694.4437499999913,
      "v": 56
    },
    {
      "midi": 31,
      "hit": false,
      "t": 65555.49,
      "d": 972.2212500000023,
      "v": 72
    },
    {
      "midi": 72,
      "hit": false,
      "t": 65572.85109375004,
      "d": 251.73585937499593,
      "v": 63
    },
    {
      "midi": 72,
      "hit": false,
      "t": 65911.39242187503,
      "d": 89.69898437500524,
      "v": 55
    },
    {
      "midi": 72,
      "hit": false,
      "t": 66093.68390625004,
      "d": 81.01843749999534,
      "v": 55
    },
    {
      "midi": 55,
      "hit": false,
      "t": 66111.04499999998,
      "d": 555.554999999993,
      "v": 33
    },
    {
      "midi": 60,
      "hit": false,
      "t": 66111.04499999998,
      "d": 555.554999999993,
      "v": 46
    },
    {
      "midi": 64,
      "hit": false,
      "t": 66111.04499999998,
      "d": 555.554999999993,
      "v": 53
    },
    {
      "midi": 72,
      "hit": false,
      "t": 66273.08187500003,
      "d": 75.2314062499936,
      "v": 52
    },
    {
      "midi": 72,
      "hit": false,
      "t": 66464.05390625003,
      "d": 532.4068750000006,
      "v": 62
    },
    {
      "midi": 65,
      "hit": false,
      "t": 66539.28531250007,
      "d": 2297.45140624998,
      "v": 42
    },
    {
      "midi": 59,
      "hit": false,
      "t": 66553.75289062507,
      "d": 2100.6923437499936,
      "v": 50
    },
    {
      "midi": 62,
      "hit": false,
      "t": 66556.64640625006,
      "d": 2282.983828124983,
      "v": 53
    },
    {
      "midi": 43,
      "hit": false,
      "t": 66666.59999999998,
      "d": 1111.109999999986,
      "v": 55
    },
    {
      "midi": 31,
      "hit": false,
      "t": 66666.6,
      "d": 1111.1100000000006,
      "v": 74
    },
    {
      "midi": 71,
      "hit": false,
      "t": 67019.60890625004,
      "d": 251.73585937499593,
      "v": 58
    },
    {
      "midi": 55,
      "hit": false,
      "t": 67222.15499999997,
      "d": 694.4437499999913,
      "v": 40
    },
    {
      "midi": 62,
      "hit": false,
      "t": 67222.15499999997,
      "d": 694.4437499999913,
      "v": 46
    },
    {
      "midi": 65,
      "hit": false,
      "t": 67222.15499999997,
      "d": 694.4437499999913,
      "v": 46
    },
    {
      "midi": 71,
      "hit": false,
      "t": 67381.29835937504,
      "d": 78.12492187500175,
      "v": 47
    },
    {
      "midi": 71,
      "hit": false,
      "t": 67575.16390625005,
      "d": 81.01843749999534,
      "v": 56
    },
    {
      "midi": 50,
      "hit": false,
      "t": 67777.70999999996,
      "d": 972.2212499999878,
      "v": 56
    },
    {
      "midi": 38,
      "hit": false,
      "t": 67777.71,
      "d": 1111.1100000000006,
      "v": 72
    },
    {
      "midi": 71,
      "hit": false,
      "t": 67777.71000000004,
      "d": 245.94882812499418,
      "v": 63
    },
    {
      "midi": 71,
      "hit": false,
      "t": 68113.35781250003,
      "d": 89.69898437500524,
      "v": 53
    },
    {
      "midi": 71,
      "hit": false,
      "t": 68304.32984375003,
      "d": 83.91195312500349,
      "v": 55
    },
    {
      "midi": 55,
      "hit": false,
      "t": 68333.26499999996,
      "d": 555.554999999993,
      "v": 31
    },
    {
      "midi": 62,
      "hit": false,
      "t": 68333.26499999996,
      "d": 555.554999999993,
      "v": 36
    },
    {
      "midi": 65,
      "hit": false,
      "t": 68333.26499999996,
      "d": 555.554999999993,
      "v": 50
    },
    {
      "midi": 71,
      "hit": false,
      "t": 68477.94078125004,
      "d": 83.91195312500349,
      "v": 52
    },
    {
      "midi": 71,
      "hit": false,
      "t": 68680.48687500005,
      "d": 436.9208593749936,
      "v": 64
    },
    {
      "midi": 64,
      "hit": false,
      "t": 68775.97289062505,
      "d": 2311.9189843749773,
      "v": 56
    },
    {
      "midi": 60,
      "hit": false,
      "t": 68781.75992187505,
      "d": 2210.645937499983,
      "v": 53
    },
    {
      "midi": 48,
      "hit": false,
      "t": 68888.81999999995,
      "d": 1111.109999999986,
      "v": 43
    },
    {
      "midi": 36,
      "hit": false,
      "t": 68888.82,
      "d": 1111.1100000000006,
      "v": 76
    },
    {
      "midi": 69,
      "hit": false,
      "t": 69131.87531250004,
      "d": 329.8607812499977,
      "v": 55
    },
    {
      "midi": 55,
      "hit": false,
      "t": 69444.37499999994,
      "d": 555.554999999993,
      "v": 42
    },
    {
      "midi": 60,
      "hit": false,
      "t": 69444.37499999994,
      "d": 555.554999999993,
      "v": 42
    },
    {
      "midi": 64,
      "hit": false,
      "t": 69444.37499999994,
      "d": 555.554999999993,
      "v": 52
    },
    {
      "midi": 69,
      "hit": false,
      "t": 69658.49515625004,
      "d": 57.87031250000291,
      "v": 34
    },
    {
      "midi": 69,
      "hit": false,
      "t": 69823.42554687503,
      "d": 81.01843749999534,
      "v": 56
    },
    {
      "midi": 43,
      "hit": false,
      "t": 69999.92999999993,
      "d": 833.3324999999895,
      "v": 60
    },
    {
      "midi": 31,
      "hit": false,
      "t": 69999.93000000001,
      "d": 972.2212500000023,
      "v": 72
    },
    {
      "midi": 69,
      "hit": false,
      "t": 70008.61054687503,
      "d": 234.37476562500524,
      "v": 62
    },
    {
      "midi": 69,
      "hit": false,
      "t": 70361.61945312504,
      "d": 329.8607812499977,
      "v": 52
    },
    {
      "midi": 55,
      "hit": false,
      "t": 70555.48499999993,
      "d": 555.554999999993,
      "v": 32
    },
    {
      "midi": 60,
      "hit": false,
      "t": 70555.48499999993,
      "d": 555.554999999993,
      "v": 48
    },
    {
      "midi": 64,
      "hit": false,
      "t": 70555.48499999993,
      "d": 555.554999999993,
      "v": 52
    },
    {
      "midi": 72,
      "hit": false,
      "t": 70720.41539062503,
      "d": 162.03687500000524,
      "v": 53
    },
    {
      "midi": 71,
      "hit": false,
      "t": 70899.81335937504,
      "d": 109.95359375000407,
      "v": 45
    },
    {
      "midi": 55,
      "hit": false,
      "t": 71021.34101562503,
      "d": 593.1707031249825,
      "v": 36
    },
    {
      "midi": 62,
      "hit": false,
      "t": 71024.23453125003,
      "d": 480.3235937499994,
      "v": 42
    },
    {
      "midi": 43,
      "hit": false,
      "t": 71111.03999999992,
      "d": 1111.109999999986,
      "v": 53
    },
    {
      "midi": 31,
      "hit": false,
      "t": 71111.04000000001,
      "d": 1111.1100000000006,
      "v": 76
    },
    {
      "midi": 71,
      "hit": false,
      "t": 71113.93351562505,
      "d": 1631.9428124999977,
      "v": 55
    },
    {
      "midi": 71,
      "hit": false,
      "t": 71611.61820312502,
      "d": 630.7864062499866,
      "v": 68
    },
    {
      "midi": 67,
      "hit": false,
      "t": 71617.40523437501,
      "d": 619.2123437499977,
      "v": 62
    },
    {
      "midi": 55,
      "hit": false,
      "t": 71666.59499999991,
      "d": 555.554999999993,
      "v": 38
    },
    {
      "midi": 62,
      "hit": false,
      "t": 71666.59499999991,
      "d": 555.554999999993,
      "v": 43
    },
    {
      "midi": 65,
      "hit": false,
      "t": 71666.59499999991,
      "d": 555.554999999993,
      "v": 50
    },
    {
      "midi": 69,
      "hit": false,
      "t": 72184.534296875,
      "d": 633.6799218750093,
      "v": 57
    },
    {
      "midi": 72,
      "hit": false,
      "t": 72199.001875,
      "d": 396.4116406250105,
      "v": 60
    },
    {
      "midi": 50,
      "hit": false,
      "t": 72222.1499999999,
      "d": 1111.109999999986,
      "v": 52
    },
    {
      "midi": 38,
      "hit": false,
      "t": 72222.15000000001,
      "d": 1111.1100000000006,
      "v": 72
    },
    {
      "midi": 73,
      "hit": false,
      "t": 72725.62171875002,
      "d": 555.554999999993,
      "v": 67
    },
    {
      "midi": 70,
      "hit": false,
      "t": 72728.51523437501,
      "d": 538.1939062500023,
      "v": 53
    },
    {
      "midi": 55,
      "hit": false,
      "t": 72777.7049999999,
      "d": 555.554999999993,
      "v": 34
    },
    {
      "midi": 62,
      "hit": false,
      "t": 72777.7049999999,
      "d": 555.554999999993,
      "v": 46
    },
    {
      "midi": 65,
      "hit": false,
      "t": 72777.7049999999,
      "d": 555.554999999993,
      "v": 50
    },
    {
      "midi": 62,
      "hit": false,
      "t": 73258.02859375002,
      "d": 2219.326484374993,
      "v": 56
    },
    {
      "midi": 71,
      "hit": false,
      "t": 73269.60265625,
      "d": 2265.622734375007,
      "v": 69
    },
    {
      "midi": 74,
      "hit": false,
      "t": 73289.857265625,
      "d": 2239.5810937500064,
      "v": 56
    },
    {
      "midi": 43,
      "hit": false,
      "t": 73333.2599999999,
      "d": 1111.109999999986,
      "v": 57
    },
    {
      "midi": 31,
      "hit": false,
      "t": 73333.26000000001,
      "d": 1111.1100000000006,
      "v": 74
    },
    {
      "midi": 55,
      "hit": false,
      "t": 73888.81499999989,
      "d": 555.554999999993,
      "v": 37
    },
    {
      "midi": 62,
      "hit": false,
      "t": 73888.81499999989,
      "d": 555.554999999993,
      "v": 43
    },
    {
      "midi": 65,
      "hit": false,
      "t": 73888.81499999989,
      "d": 555.554999999993,
      "v": 52
    },
    {
      "midi": 69,
      "hit": false,
      "t": 73903.28257812504,
      "d": 526.6198437499988,
      "v": 64
    },
    {
      "midi": 50,
      "hit": false,
      "t": 74444.36999999988,
      "d": 694.4437499999913,
      "v": 57
    },
    {
      "midi": 38,
      "hit": false,
      "t": 74444.37000000001,
      "d": 1111.1100000000006,
      "v": 74
    },
    {
      "midi": 71,
      "hit": false,
      "t": 74458.83757812504,
      "d": 486.11062500000116,
      "v": 58
    },
    {
      "midi": 69,
      "hit": false,
      "t": 74985.45742187503,
      "d": 517.9392968750035,
      "v": 58
    },
    {
      "midi": 55,
      "hit": false,
      "t": 74999.92499999987,
      "d": 555.554999999993,
      "v": 36
    },
    {
      "midi": 62,
      "hit": false,
      "t": 74999.92499999987,
      "d": 555.554999999993,
      "v": 47
    },
    {
      "midi": 65,
      "hit": false,
      "t": 74999.92499999987,
      "d": 555.554999999993,
      "v": 55
    },
    {
      "midi": 60,
      "hit": false,
      "t": 75457.10046875001,
      "d": 2233.794062499961,
      "v": 55
    },
    {
      "midi": 67,
      "hit": false,
      "t": 75526.54484375005,
      "d": 2644.6732812499977,
      "v": 55
    },
    {
      "midi": 48,
      "hit": false,
      "t": 75555.47999999986,
      "d": 833.3324999999895,
      "v": 52
    },
    {
      "midi": 36,
      "hit": false,
      "t": 75555.48000000001,
      "d": 1111.1100000000006,
      "v": 76
    },
    {
      "midi": 72,
      "hit": false,
      "t": 76050.271171875,
      "d": 627.8928906249785,
      "v": 62
    },
    {
      "midi": 76,
      "hit": false,
      "t": 76053.1646875,
      "d": 633.6799218749802,
      "v": 66
    },
    {
      "midi": 55,
      "hit": false,
      "t": 76111.03499999986,
      "d": 555.554999999993,
      "v": 46
    },
    {
      "midi": 60,
      "hit": false,
      "t": 76111.03499999986,
      "d": 555.554999999993,
      "v": 55
    },
    {
      "midi": 64,
      "hit": false,
      "t": 76111.03499999986,
      "d": 555.554999999993,
      "v": 55
    },
    {
      "midi": 77,
      "hit": false,
      "t": 76640.548359375,
      "d": 413.7727343749866,
      "v": 60
    },
    {
      "midi": 74,
      "hit": false,
      "t": 76643.44187499999,
      "d": 630.7864062500012,
      "v": 58
    },
    {
      "midi": 43,
      "hit": false,
      "t": 76666.58999999985,
      "d": 1111.109999999986,
      "v": 57
    },
    {
      "midi": 31,
      "hit": false,
      "t": 76666.59000000001,
      "d": 1111.1100000000006,
      "v": 80
    },
    {
      "midi": 75,
      "hit": false,
      "t": 77170.06171874999,
      "d": 512.1522656250017,
      "v": 52
    },
    {
      "midi": 78,
      "hit": false,
      "t": 77178.74226562498,
      "d": 515.0457812499808,
      "v": 61
    },
    {
      "midi": 55,
      "hit": false,
      "t": 77222.14499999984,
      "d": 555.554999999993,
      "v": 37
    },
    {
      "midi": 60,
      "hit": false,
      "t": 77222.14499999984,
      "d": 555.554999999993,
      "v": 45
    },
    {
      "midi": 64,
      "hit": false,
      "t": 77222.14499999984,
      "d": 555.554999999993,
      "v": 51
    },
    {
      "midi": 76,
      "hit": false,
      "t": 77685.10749999998,
      "d": 2265.622734374978,
      "v": 63
    },
    {
      "midi": 55,
      "hit": false,
      "t": 77688.00101562498,
      "d": 1814.2342968749872,
      "v": 40
    },
    {
      "midi": 79,
      "hit": false,
      "t": 77705.36210937497,
      "d": 2265.6227343749924,
      "v": 46
    },
    {
      "midi": 48,
      "hit": false,
      "t": 77777.69999999984,
      "d": 833.3324999999895,
      "v": 56
    },
    {
      "midi": 36,
      "hit": false,
      "t": 77777.70000000001,
      "d": 1111.1100000000006,
      "v": 80
    },
    {
      "midi": 55,
      "hit": false,
      "t": 78333.25499999983,
      "d": 555.554999999993,
      "v": 35
    },
    {
      "midi": 60,
      "hit": false,
      "t": 78333.25499999983,
      "d": 555.554999999993,
      "v": 53
    },
    {
      "midi": 64,
      "hit": false,
      "t": 78333.25499999983,
      "d": 555.554999999993,
      "v": 55
    },
    {
      "midi": 67,
      "hit": false,
      "t": 78359.29664062505,
      "d": 462.9624999999942,
      "v": 64
    },
    {
      "midi": 69,
      "hit": false,
      "t": 78880.12945312505,
      "d": 549.7679687500058,
      "v": 60
    },
    {
      "midi": 43,
      "hit": false,
      "t": 78888.80999999982,
      "d": 694.4437499999913,
      "v": 56
    },
    {
      "midi": 31,
      "hit": false,
      "t": 78888.81000000001,
      "d": 972.2212500000023,
      "v": 80
    },
    {
      "midi": 55,
      "hit": false,
      "t": 79444.36499999982,
      "d": 555.554999999993,
      "v": 28
    },
    {
      "midi": 60,
      "hit": false,
      "t": 79444.36499999982,
      "d": 555.554999999993,
      "v": 45
    },
    {
      "midi": 64,
      "hit": false,
      "t": 79444.36499999982,
      "d": 555.554999999993,
      "v": 52
    },
    {
      "midi": 67,
      "hit": false,
      "t": 79453.04554687506,
      "d": 503.4717187500064,
      "v": 53
    },
    {
      "midi": 55,
      "hit": false,
      "t": 79916.00804687497,
      "d": 1108.2164843749924,
      "v": 42
    },
    {
      "midi": 71,
      "hit": false,
      "t": 79979.66539062507,
      "d": 2743.0528124999983,
      "v": 64
    },
    {
      "midi": 43,
      "hit": false,
      "t": 79999.91999999981,
      "d": 1111.109999999986,
      "v": 57
    },
    {
      "midi": 31,
      "hit": false,
      "t": 79999.92000000001,
      "d": 1111.1100000000006,
      "v": 76
    },
    {
      "midi": 67,
      "hit": false,
      "t": 80506.28523437495,
      "d": 590.277187500018,
      "v": 63
    },
    {
      "midi": 71,
      "hit": false,
      "t": 80506.28523437495,
      "d": 596.0642187500198,
      "v": 68
    },
    {
      "midi": 55,
      "hit": false,
      "t": 80555.4749999998,
      "d": 555.554999999993,
      "v": 43
    },
    {
      "midi": 62,
      "hit": false,
      "t": 80555.4749999998,
      "d": 555.554999999993,
      "v": 55
    },
    {
      "midi": 65,
      "hit": false,
      "t": 80555.4749999998,
      "d": 555.554999999993,
      "v": 53
    },
    {
      "midi": 59,
      "hit": false,
      "t": 81024.22453124996,
      "d": 1258.6792968750087,
      "v": 46
    },
    {
      "midi": 69,
      "hit": false,
      "t": 81056.05320312496,
      "d": 645.2539843750274,
      "v": 60
    },
    {
      "midi": 72,
      "hit": false,
      "t": 81073.41429687497,
      "d": 436.92085937500815,
      "v": 58
    },
    {
      "midi": 50,
      "hit": false,
      "t": 81111.0299999998,
      "d": 1111.109999999986,
      "v": 57
    },
    {
      "midi": 38,
      "hit": false,
      "t": 81111.03000000001,
      "d": 1111.1100000000006,
      "v": 76
    },
    {
      "midi": 70,
      "hit": false,
      "t": 81620.28874999998,
      "d": 575.8096093750064,
      "v": 56
    },
    {
      "midi": 73,
      "hit": false,
      "t": 81631.86281249998,
      "d": 590.2771874999889,
      "v": 68
    },
    {
      "midi": 55,
      "hit": false,
      "t": 81666.58499999979,
      "d": 555.554999999993,
      "v": 40
    },
    {
      "midi": 62,
      "hit": false,
      "t": 81666.58499999979,
      "d": 555.554999999993,
      "v": 50
    },
    {
      "midi": 65,
      "hit": false,
      "t": 81666.58499999979,
      "d": 555.554999999993,
      "v": 55
    },
    {
      "midi": 71,
      "hit": false,
      "t": 82198.99187499998,
      "d": 2190.3913281249843,
      "v": 64
    },
    {
      "midi": 62,
      "hit": false,
      "t": 82219.24648437498,
      "d": 2155.6691406249884,
      "v": 36
    },
    {
      "midi": 43,
      "hit": false,
      "t": 82222.13999999978,
      "d": 1111.109999999986,
      "v": 57
    },
    {
      "midi": 31,
      "hit": false,
      "t": 82222.14000000001,
      "d": 1111.1100000000006,
      "v": 78
    },
    {
      "midi": 74,
      "hit": false,
      "t": 82225.03351562496,
      "d": 2161.4561718750047,
      "v": 53
    },
    {
      "midi": 69,
      "hit": false,
      "t": 82751.65335937506,
      "d": 555.554999999993,
      "v": 62
    },
    {
      "midi": 55,
      "hit": false,
      "t": 82777.69499999977,
      "d": 555.554999999993,
      "v": 50
    },
    {
      "midi": 62,
      "hit": false,
      "t": 82777.69499999977,
      "d": 555.554999999993,
      "v": 53
    },
    {
      "midi": 65,
      "hit": false,
      "t": 82777.69499999977,
      "d": 555.554999999993,
      "v": 46
    },
    {
      "midi": 50,
      "hit": false,
      "t": 83333.24999999977,
      "d": 972.2212499999878,
      "v": 57
    },
    {
      "midi": 38,
      "hit": false,
      "t": 83333.25000000001,
      "d": 1111.1100000000006,
      "v": 78
    },
    {
      "midi": 71,
      "hit": false,
      "t": 83333.25000000006,
      "d": 509.2587499999936,
      "v": 62
    },
    {
      "midi": 69,
      "hit": false,
      "t": 83883.01796875005,
      "d": 468.7495312499959,
      "v": 58
    },
    {
      "midi": 55,
      "hit": false,
      "t": 83888.80499999976,
      "d": 555.554999999993,
      "v": 42
    },
    {
      "midi": 62,
      "hit": false,
      "t": 83888.80499999976,
      "d": 555.554999999993,
      "v": 46
    },
    {
      "midi": 65,
      "hit": false,
      "t": 83888.80499999976,
      "d": 555.554999999993,
      "v": 52
    },
    {
      "midi": 60,
      "hit": false,
      "t": 84328.61937499997,
      "d": 2288.7708593749994,
      "v": 47
    },
    {
      "midi": 67,
      "hit": false,
      "t": 84406.74429687504,
      "d": 2190.391328124999,
      "v": 58
    },
    {
      "midi": 48,
      "hit": false,
      "t": 84444.35999999975,
      "d": 1111.109999999986,
      "v": 55
    },
    {
      "midi": 36,
      "hit": false,
      "t": 84444.36000000002,
      "d": 1111.1100000000006,
      "v": 82
    },
    {
      "midi": 76,
      "hit": false,
      "t": 84968.08632812496,
      "d": 552.6614843749849,
      "v": 64
    },
    {
      "midi": 72,
      "hit": false,
      "t": 84970.97984374996,
      "d": 549.7679687499913,
      "v": 63
    },
    {
      "midi": 55,
      "hit": false,
      "t": 84999.91499999975,
      "d": 555.554999999993,
      "v": 38
    },
    {
      "midi": 60,
      "hit": false,
      "t": 84999.91499999975,
      "d": 555.554999999993,
      "v": 43
    },
    {
      "midi": 64,
      "hit": false,
      "t": 84999.91499999975,
      "d": 555.554999999993,
      "v": 52
    },
    {
      "midi": 74,
      "hit": false,
      "t": 85497.59968749995,
      "d": 674.189140625007,
      "v": 57
    },
    {
      "midi": 77,
      "hit": false,
      "t": 85500.49320312495,
      "d": 471.6430468750041,
      "v": 55
    },
    {
      "midi": 43,
      "hit": false,
      "t": 85555.46999999974,
      "d": 1111.109999999986,
      "v": 55
    },
    {
      "midi": 31,
      "hit": false,
      "t": 85555.47000000002,
      "d": 1111.1100000000006,
      "v": 76
    },
    {
      "midi": 75,
      "hit": false,
      "t": 86061.83523437496,
      "d": 526.6198437499988,
      "v": 56
    },
    {
      "midi": 78,
      "hit": false,
      "t": 86087.87687499996,
      "d": 523.7263281250052,
      "v": 62
    },
    {
      "midi": 55,
      "hit": false,
      "t": 86111.02499999973,
      "d": 555.554999999993,
      "v": 34
    },
    {
      "midi": 60,
      "hit": false,
      "t": 86111.02499999973,
      "d": 555.554999999993,
      "v": 43
    },
    {
      "midi": 64,
      "hit": false,
      "t": 86111.02499999973,
      "d": 555.554999999993,
      "v": 52
    },
    {
      "midi": 48,
      "hit": false,
      "t": 86666.57999999973,
      "d": 1111.109999999986,
      "v": 53
    },
    {
      "midi": 79,
      "hit": false,
      "t": 86666.57999999996,
      "d": 1840.2759375000023,
      "v": 58
    },
    {
      "midi": 76,
      "hit": false,
      "t": 86666.57999999996,
      "d": 1857.6370312500076,
      "v": 43
    },
    {
      "midi": 67,
      "hit": false,
      "t": 86666.57999999996,
      "d": 1880.7851562500146,
      "v": 45
    },
    {
      "midi": 36,
      "hit": false,
      "t": 86666.58000000002,
      "d": 1111.1100000000006,
      "v": 80
    },
    {
      "midi": 76,
      "hit": false,
      "t": 87196.09335937504,
      "d": 92.59249999999884,
      "v": 46
    },
    {
      "midi": 55,
      "hit": false,
      "t": 87222.13499999972,
      "d": 555.554999999993,
      "v": 30
    },
    {
      "midi": 60,
      "hit": false,
      "t": 87222.13499999972,
      "d": 555.554999999993,
      "v": 48
    },
    {
      "midi": 64,
      "hit": false,
      "t": 87222.13499999972,
      "d": 555.554999999993,
      "v": 47
    },
    {
      "midi": 76,
      "hit": false,
      "t": 87395.74593750003,
      "d": 86.80546874999709,
      "v": 48
    },
    {
      "midi": 76,
      "hit": false,
      "t": 87598.29203125004,
      "d": 454.28195312499884,
      "v": 68
    },
    {
      "midi": 43,
      "hit": false,
      "t": 87777.68999999971,
      "d": 833.3324999999895,
      "v": 58
    },
    {
      "midi": 31,
      "hit": false,
      "t": 87777.69000000002,
      "d": 833.3325000000041,
      "v": 80
    },
    {
      "midi": 76,
      "hit": false,
      "t": 88136.48593750004,
      "d": 98.37953125000058,
      "v": 43
    },
    {
      "midi": 55,
      "hit": false,
      "t": 88333.2449999997,
      "d": 277.7774999999965,
      "v": 40
    },
    {
      "midi": 60,
      "hit": false,
      "t": 88333.2449999997,
      "d": 277.7774999999965,
      "v": 46
    },
    {
      "midi": 64,
      "hit": false,
      "t": 88333.2449999997,
      "d": 277.7774999999965,
      "v": 55
    },
    {
      "midi": 76,
      "hit": false,
      "t": 88347.71257812504,
      "d": 78.12492187500175,
      "v": 55
    },
    {
      "midi": 76,
      "hit": false,
      "t": 88538.68460937504,
      "d": 72.337890625,
      "v": 63
    },
    {
      "midi": 76,
      "hit": false,
      "t": 88715.18906250004,
      "d": 491.8976562500029,
      "v": 66
    },
    {
      "midi": 55,
      "hit": false,
      "t": 88848.29078124998,
      "d": 1012.73046875,
      "v": 31
    },
    {
      "midi": 59,
      "hit": false,
      "t": 88848.29078124998,
      "d": 2222.220000000001,
      "v": 41
    },
    {
      "midi": 43,
      "hit": false,
      "t": 88888.7999999997,
      "d": 1111.109999999986,
      "v": 64
    },
    {
      "midi": 53,
      "hit": false,
      "t": 88888.8,
      "d": 1192.128437499996,
      "v": 59
    },
    {
      "midi": 31,
      "hit": false,
      "t": 88888.80000000002,
      "d": 1111.1100000000006,
      "v": 89
    },
    {
      "midi": 74,
      "hit": false,
      "t": 89247.59593750004,
      "d": 271.99046874999476,
      "v": 61
    },
    {
      "midi": 62,
      "hit": false,
      "t": 89444.35499999969,
      "d": 972.2212499999878,
      "v": 53
    },
    {
      "midi": 65,
      "hit": false,
      "t": 89444.35499999969,
      "d": 972.2212499999878,
      "v": 56
    },
    {
      "midi": 74,
      "hit": false,
      "t": 89655.58164062504,
      "d": 63.65734375000466,
      "v": 48
    },
    {
      "midi": 74,
      "hit": false,
      "t": 89823.40554687504,
      "d": 81.01843749999534,
      "v": 55
    },
    {
      "midi": 62,
      "hit": false,
      "t": 89944.93320312498,
      "d": 1114.0035156249942,
      "v": 33
    },
    {
      "midi": 59,
      "hit": false,
      "t": 89956.507265625,
      "d": 624.9993749999994,
      "v": 61
    },
    {
      "midi": 50,
      "hit": false,
      "t": 89999.90999999968,
      "d": 833.3324999999895,
      "v": 58
    },
    {
      "midi": 38,
      "hit": false,
      "t": 89999.91000000002,
      "d": 1111.1100000000006,
      "v": 76
    },
    {
      "midi": 74,
      "hit": false,
      "t": 90017.27109375004,
      "d": 243.05531250000058,
      "v": 64
    },
    {
      "midi": 74,
      "hit": false,
      "t": 90358.70593750004,
      "d": 75.2314062499936,
      "v": 56
    },
    {
      "midi": 62,
      "hit": false,
      "t": 90517.84929687499,
      "d": 558.4485156250012,
      "v": 59
    },
    {
      "midi": 74,
      "hit": false,
      "t": 90552.57148437503,
      "d": 69.4443750000064,
      "v": 55
    },
    {
      "midi": 55,
      "hit": false,
      "t": 90555.46499999968,
      "d": 555.554999999993,
      "v": 47
    },
    {
      "midi": 62,
      "hit": false,
      "t": 90555.46499999968,
      "d": 555.554999999993,
      "v": 45
    },
    {
      "midi": 65,
      "hit": false,
      "t": 90555.46499999968,
      "d": 555.554999999993,
      "v": 46
    },
    {
      "midi": 74,
      "hit": false,
      "t": 90740.65000000004,
      "d": 63.65734375000466,
      "v": 51
    },
    {
      "midi": 74,
      "hit": false,
      "t": 90937.40906250004,
      "d": 515.0457812499953,
      "v": 62
    },
    {
      "midi": 64,
      "hit": false,
      "t": 91006.85343749997,
      "d": 2282.9838281249977,
      "v": 60
    },
    {
      "midi": 60,
      "hit": false,
      "t": 91018.42749999998,
      "d": 2042.8220312499907,
      "v": 56
    },
    {
      "midi": 60,
      "hit": false,
      "t": 91056.043203125,
      "d": 578.703125,
      "v": 64
    },
    {
      "midi": 48,
      "hit": false,
      "t": 91111.01999999967,
      "d": 1111.109999999986,
      "v": 55
    },
    {
      "midi": 36,
      "hit": false,
      "t": 91111.02000000002,
      "d": 1111.1100000000006,
      "v": 75
    },
    {
      "midi": 72,
      "hit": false,
      "t": 91478.49648437503,
      "d": 254.62937500000407,
      "v": 60
    },
    {
      "midi": 62,
      "hit": false,
      "t": 91605.811171875,
      "d": 564.2355468749884,
      "v": 66
    },
    {
      "midi": 55,
      "hit": false,
      "t": 91666.57499999966,
      "d": 833.3324999999895,
      "v": 37
    },
    {
      "midi": 60,
      "hit": false,
      "t": 91666.57499999966,
      "d": 833.3324999999895,
      "v": 31
    },
    {
      "midi": 64,
      "hit": false,
      "t": 91666.57499999966,
      "d": 833.3324999999895,
      "v": 48
    },
    {
      "midi": 72,
      "hit": false,
      "t": 91880.69515625003,
      "d": 69.4443750000064,
      "v": 50
    },
    {
      "midi": 72,
      "hit": false,
      "t": 92054.30609375004,
      "d": 75.2314062499936,
      "v": 48
    },
    {
      "midi": 64,
      "hit": false,
      "t": 92155.57914062499,
      "d": 645.2539843749837,
      "v": 68
    },
    {
      "midi": 67,
      "hit": false,
      "t": 92190.30132812497,
      "d": 1093.7489062499953,
      "v": 64
    },
    {
      "midi": 43,
      "hit": false,
      "t": 92222.12999999966,
      "d": 833.3324999999895,
      "v": 57
    },
    {
      "midi": 31,
      "hit": false,
      "t": 92222.13000000002,
      "d": 972.2212500000023,
      "v": 84
    },
    {
      "midi": 72,
      "hit": false,
      "t": 92251.06515625003,
      "d": 257.5228906249977,
      "v": 62
    },
    {
      "midi": 72,
      "hit": false,
      "t": 92609.86109375002,
      "d": 211.22664062499825,
      "v": 55
    },
    {
      "midi": 65,
      "hit": false,
      "t": 92751.64335937498,
      "d": 590.2771874999889,
      "v": 78
    },
    {
      "midi": 55,
      "hit": false,
      "t": 92777.68499999965,
      "d": 555.554999999993,
      "v": 42
    },
    {
      "midi": 60,
      "hit": false,
      "t": 92777.68499999965,
      "d": 555.554999999993,
      "v": 52
    },
    {
      "midi": 64,
      "hit": false,
      "t": 92777.68499999965,
      "d": 555.554999999993,
      "v": 46
    },
    {
      "midi": 72,
      "hit": false,
      "t": 92945.50890625002,
      "d": 86.80546874999709,
      "v": 51
    },
    {
      "midi": 72,
      "hit": false,
      "t": 93130.69390625002,
      "d": 92.59249999999884,
      "v": 53
    },
    {
      "midi": 72,
      "hit": false,
      "t": 93327.45296875002,
      "d": 321.1802343750023,
      "v": 60
    },
    {
      "midi": 43,
      "hit": false,
      "t": 93333.23999999964,
      "d": 1111.109999999986,
      "v": 57
    },
    {
      "midi": 67,
      "hit": false,
      "t": 93333.23999999998,
      "d": 1142.938671875003,
      "v": 68
    },
    {
      "midi": 62,
      "hit": false,
      "t": 93333.23999999998,
      "d": 2309.0254687499837,
      "v": 61
    },
    {
      "midi": 31,
      "hit": false,
      "t": 93333.24000000002,
      "d": 1111.1100000000006,
      "v": 72
    },
    {
      "midi": 59,
      "hit": false,
      "t": 93341.92054687497,
      "d": 2060.183124999996,
      "v": 56
    },
    {
      "midi": 71,
      "hit": false,
      "t": 93718.07757812503,
      "d": 225.69421874999534,
      "v": 57
    },
    {
      "midi": 55,
      "hit": false,
      "t": 93888.79499999963,
      "d": 555.554999999993,
      "v": 29
    },
    {
      "midi": 62,
      "hit": false,
      "t": 93888.79499999963,
      "d": 555.554999999993,
      "v": 41
    },
    {
      "midi": 65,
      "hit": false,
      "t": 93888.79499999963,
      "d": 555.554999999993,
      "v": 41
    },
    {
      "midi": 71,
      "hit": false,
      "t": 94059.51242187503,
      "d": 86.80546874999709,
      "v": 45
    },
    {
      "midi": 71,
      "hit": false,
      "t": 94250.48445312503,
      "d": 83.91195312500349,
      "v": 52
    },
    {
      "midi": 65,
      "hit": false,
      "t": 94374.90562499997,
      "d": 1154.5127343749919,
      "v": 56
    },
    {
      "midi": 71,
      "hit": false,
      "t": 94392.26671874998,
      "d": 639.4669531249965,
      "v": 72
    },
    {
      "midi": 50,
      "hit": false,
      "t": 94444.34999999963,
      "d": 833.3324999999895,
      "v": 48
    },
    {
      "midi": 38,
      "hit": false,
      "t": 94444.35000000002,
      "d": 1111.1100000000006,
      "v": 75
    },
    {
      "midi": 71,
      "hit": false,
      "t": 94458.81757812503,
      "d": 222.80070312500175,
      "v": 64
    },
    {
      "midi": 71,
      "hit": false,
      "t": 94797.35890625004,
      "d": 89.69898437500524,
      "v": 48
    },
    {
      "midi": 74,
      "hit": false,
      "t": 94950.71523437498,
      "d": 581.5966406249936,
      "v": 68
    },
    {
      "midi": 55,
      "hit": false,
      "t": 94999.90499999962,
      "d": 555.554999999993,
      "v": 41
    },
    {
      "midi": 62,
      "hit": false,
      "t": 94999.90499999962,
      "d": 555.554999999993,
      "v": 52
    },
    {
      "midi": 65,
      "hit": false,
      "t": 94999.90499999962,
      "d": 555.554999999993,
      "v": 58
    },
    {
      "midi": 71,
      "hit": false,
      "t": 95002.79851562505,
      "d": 81.01843749999534,
      "v": 48
    },
    {
      "midi": 71,
      "hit": false,
      "t": 95199.55757812505,
      "d": 72.337890625,
      "v": 45
    },
    {
      "midi": 71,
      "hit": false,
      "t": 95390.52960937505,
      "d": 462.9624999999942,
      "v": 63
    },
    {
      "midi": 64,
      "hit": false,
      "t": 95457.08046874996,
      "d": 2248.261640624987,
      "v": 51
    },
    {
      "midi": 60,
      "hit": false,
      "t": 95468.65453124997,
      "d": 2184.6042968749825,
      "v": 41
    },
    {
      "midi": 72,
      "hit": false,
      "t": 95526.52484374997,
      "d": 729.1659375000017,
      "v": 64
    },
    {
      "midi": 48,
      "hit": false,
      "t": 95555.45999999961,
      "d": 1111.109999999986,
      "v": 55
    },
    {
      "midi": 36,
      "hit": false,
      "t": 95555.46000000002,
      "d": 1111.1100000000006,
      "v": 76
    },
    {
      "midi": 69,
      "hit": false,
      "t": 95876.64023437505,
      "d": 295.13859375000175,
      "v": 47
    },
    {
      "midi": 74,
      "hit": false,
      "t": 96096.54742187497,
      "d": 578.703125,
      "v": 68
    },
    {
      "midi": 55,
      "hit": false,
      "t": 96111.0149999996,
      "d": 555.554999999993,
      "v": 45
    },
    {
      "midi": 60,
      "hit": false,
      "t": 96111.0149999996,
      "d": 555.554999999993,
      "v": 45
    },
    {
      "midi": 64,
      "hit": false,
      "t": 96111.0149999996,
      "d": 555.554999999993,
      "v": 53
    },
    {
      "midi": 69,
      "hit": false,
      "t": 96293.30648437505,
      "d": 89.69898437500524,
      "v": 57
    },
    {
      "midi": 69,
      "hit": false,
      "t": 96481.38500000005,
      "d": 92.59249999999884,
      "v": 58
    },
    {
      "midi": 55,
      "hit": false,
      "t": 96576.87101562496,
      "d": 1189.2349218749878,
      "v": 38
    },
    {
      "midi": 76,
      "hit": false,
      "t": 96628.95429687497,
      "d": 740.7400000000052,
      "v": 64
    },
    {
      "midi": 43,
      "hit": false,
      "t": 96666.5699999996,
      "d": 694.4437499999913,
      "v": 62
    },
    {
      "midi": 31,
      "hit": false,
      "t": 96666.57000000002,
      "d": 972.2212500000023,
      "v": 72
    },
    {
      "midi": 69,
      "hit": false,
      "t": 96669.46351562506,
      "d": 193.86554687499302,
      "v": 67
    },
    {
      "midi": 69,
      "hit": false,
      "t": 97010.89835937505,
      "d": 303.8191406249971,
      "v": 66
    },
    {
      "midi": 77,
      "hit": false,
      "t": 97187.40281249997,
      "d": 587.3836718749953,
      "v": 57
    },
    {
      "midi": 55,
      "hit": false,
      "t": 97222.12499999959,
      "d": 555.554999999993,
      "v": 42
    },
    {
      "midi": 60,
      "hit": false,
      "t": 97222.12499999959,
      "d": 555.554999999993,
      "v": 45
    },
    {
      "midi": 64,
      "hit": false,
      "t": 97222.12499999959,
      "d": 555.554999999993,
      "v": 50
    },
    {
      "midi": 72,
      "hit": false,
      "t": 97392.84242187504,
      "d": 167.82390625000698,
      "v": 68
    },
    {
      "midi": 71,
      "hit": false,
      "t": 97572.24039062505,
      "d": 127.31468749999476,
      "v": 61
    },
    {
      "midi": 62,
      "hit": false,
      "t": 97647.47179687496,
      "d": 480.32359374998487,
      "v": 17
    },
    {
      "midi": 59,
      "hit": false,
      "t": 97650.36531249995,
      "d": 2323.4930468749953,
      "v": 40
    },
    {
      "midi": 79,
      "hit": false,
      "t": 97725.59671874998,
      "d": 1151.6192187499837,
      "v": 61
    },
    {
      "midi": 71,
      "hit": false,
      "t": 97771.89296875005,
      "d": 2792.2425781249913,
      "v": 67
    },
    {
      "midi": 43,
      "hit": false,
      "t": 97777.67999999959,
      "d": 1111.109999999986,
      "v": 55
    },
    {
      "midi": 31,
      "hit": false,
      "t": 97777.68000000002,
      "d": 1111.1100000000006,
      "v": 72
    },
    {
      "midi": 67,
      "hit": false,
      "t": 98289.83226562495,
      "d": 624.9993749999994,
      "v": 34
    },
    {
      "midi": 71,
      "hit": false,
      "t": 98298.51281249995,
      "d": 581.5966406250081,
      "v": 32
    },
    {
      "midi": 55,
      "hit": false,
      "t": 98333.23499999958,
      "d": 833.3324999999895,
      "v": 43
    },
    {
      "midi": 62,
      "hit": false,
      "t": 98333.23499999958,
      "d": 833.3324999999895,
      "v": 50
    },
    {
      "midi": 65,
      "hit": false,
      "t": 98333.23499999958,
      "d": 833.3324999999895,
      "v": 55
    },
    {
      "midi": 81,
      "hit": false,
      "t": 98836.70671874996,
      "d": 590.2771875000035,
      "v": 66
    },
    {
      "midi": 69,
      "hit": false,
      "t": 98842.49374999995,
      "d": 668.4021093750052,
      "v": 55
    },
    {
      "midi": 72,
      "hit": false,
      "t": 98848.28078124995,
      "d": 425.34679687500466,
      "v": 63
    },
    {
      "midi": 50,
      "hit": false,
      "t": 98888.78999999957,
      "d": 1111.109999999986,
      "v": 61
    },
    {
      "midi": 38,
      "hit": false,
      "t": 98888.79000000002,
      "d": 1111.1100000000006,
      "v": 72
    },
    {
      "midi": 82,
      "hit": false,
      "t": 99383.58117187496,
      "d": 610.5317968750023,
      "v": 57
    },
    {
      "midi": 70,
      "hit": false,
      "t": 99398.04874999996,
      "d": 543.9809375000041,
      "v": 47
    },
    {
      "midi": 73,
      "hit": false,
      "t": 99406.72929687495,
      "d": 538.1939062500023,
      "v": 56
    },
    {
      "midi": 55,
      "hit": false,
      "t": 99444.34499999956,
      "d": 694.4437499999913,
      "v": 43
    },
    {
      "midi": 62,
      "hit": false,
      "t": 99444.34499999956,
      "d": 694.4437499999913,
      "v": 53
    },
    {
      "midi": 65,
      "hit": false,
      "t": 99444.34499999956,
      "d": 694.4437499999913,
      "v": 53
    },
    {
      "midi": 83,
      "hit": false,
      "t": 99939.13617187497,
      "d": 2190.391328124999,
      "v": 55
    },
    {
      "midi": 71,
      "hit": false,
      "t": 99942.02968749996,
      "d": 2265.6227343749924,
      "v": 63
    },
    {
      "midi": 55,
      "hit": false,
      "t": 99953.60374999995,
      "d": 2294.557890625001,
      "v": 56
    },
    {
      "midi": 74,
      "hit": false,
      "t": 99959.39078124995,
      "d": 2268.5162500000006,
      "v": 45
    },
    {
      "midi": 43,
      "hit": false,
      "t": 99999.89999999956,
      "d": 1111.109999999986,
      "v": 56
    },
    {
      "midi": 31,
      "hit": false,
      "t": 99999.90000000002,
      "d": 1111.1100000000006,
      "v": 72
    },
    {
      "midi": 55,
      "hit": false,
      "t": 100555.45499999955,
      "d": 833.3324999999895,
      "v": 31
    },
    {
      "midi": 62,
      "hit": false,
      "t": 100555.45499999955,
      "d": 833.3324999999895,
      "v": 45
    },
    {
      "midi": 65,
      "hit": false,
      "t": 100555.45499999955,
      "d": 833.3324999999895,
      "v": 46
    },
    {
      "midi": 69,
      "hit": false,
      "t": 100561.24203125005,
      "d": 520.8328124999971,
      "v": 67
    },
    {
      "midi": 50,
      "hit": false,
      "t": 101111.00999999954,
      "d": 833.3324999999895,
      "v": 52
    },
    {
      "midi": 38,
      "hit": false,
      "t": 101111.01000000002,
      "d": 1111.1100000000006,
      "v": 72
    },
    {
      "midi": 71,
      "hit": false,
      "t": 101111.01000000004,
      "d": 781.2492187500029,
      "v": 62
    },
    {
      "midi": 55,
      "hit": false,
      "t": 101666.56499999954,
      "d": 555.554999999993,
      "v": 46
    },
    {
      "midi": 62,
      "hit": false,
      "t": 101666.56499999954,
      "d": 555.554999999993,
      "v": 50
    },
    {
      "midi": 65,
      "hit": false,
      "t": 101666.56499999954,
      "d": 555.554999999993,
      "v": 53
    },
    {
      "midi": 69,
      "hit": false,
      "t": 101953.02304687504,
      "d": 243.05531250000058,
      "v": 67
    },
    {
      "midi": 60,
      "hit": false,
      "t": 102219.22648437496,
      "d": 4406.824296874969,
      "v": 51
    },
    {
      "midi": 84,
      "hit": false,
      "t": 102219.22648437497,
      "d": 1163.1932812500017,
      "v": 54
    },
    {
      "midi": 48,
      "hit": false,
      "t": 102222.11999999953,
      "d": 1111.109999999986,
      "v": 55
    },
    {
      "midi": 36,
      "hit": false,
      "t": 102222.12000000002,
      "d": 1111.1100000000006,
      "v": 72
    },
    {
      "midi": 67,
      "hit": false,
      "t": 102245.26812500003,
      "d": 2563.6548437500023,
      "v": 68
    },
    {
      "midi": 55,
      "hit": false,
      "t": 102777.67499999952,
      "d": 972.2212499999878,
      "v": 35
    },
    {
      "midi": 60,
      "hit": false,
      "t": 102777.67499999952,
      "d": 972.2212499999878,
      "v": 53
    },
    {
      "midi": 64,
      "hit": false,
      "t": 102777.67499999952,
      "d": 972.2212499999878,
      "v": 47
    },
    {
      "midi": 72,
      "hit": false,
      "t": 102780.56851562495,
      "d": 497.6846874999901,
      "v": 62
    },
    {
      "midi": 76,
      "hit": false,
      "t": 102783.46203124995,
      "d": 555.554999999993,
      "v": 64
    },
    {
      "midi": 74,
      "hit": false,
      "t": 103278.25320312494,
      "d": 694.4437499999913,
      "v": 53
    },
    {
      "midi": 77,
      "hit": false,
      "t": 103286.93374999994,
      "d": 439.81437500000175,
      "v": 55
    },
    {
      "midi": 86,
      "hit": false,
      "t": 103327.44296874998,
      "d": 535.3003906249942,
      "v": 61
    },
    {
      "midi": 43,
      "hit": false,
      "t": 103333.22999999952,
      "d": 1111.109999999986,
      "v": 60
    },
    {
      "midi": 31,
      "hit": false,
      "t": 103333.23000000003,
      "d": 1111.1100000000006,
      "v": 74
    },
    {
      "midi": 75,
      "hit": false,
      "t": 103833.80820312494,
      "d": 535.3003906249942,
      "v": 52
    },
    {
      "midi": 87,
      "hit": false,
      "t": 103836.70171874997,
      "d": 668.4021093750052,
      "v": 59
    },
    {
      "midi": 78,
      "hit": false,
      "t": 103842.48874999993,
      "d": 543.9809374999895,
      "v": 52
    },
    {
      "midi": 55,
      "hit": false,
      "t": 103888.78499999951,
      "d": 972.2212499999878,
      "v": 42
    },
    {
      "midi": 60,
      "hit": false,
      "t": 103888.78499999951,
      "d": 972.2212499999878,
      "v": 51
    },
    {
      "midi": 64,
      "hit": false,
      "t": 103888.78499999951,
      "d": 972.2212499999878,
      "v": 51
    },
    {
      "midi": 76,
      "hit": false,
      "t": 104372.00210937492,
      "d": 2248.2616406250017,
      "v": 57
    },
    {
      "midi": 79,
      "hit": false,
      "t": 104398.04374999992,
      "d": 2248.2616406250017,
      "v": 31
    },
    {
      "midi": 88,
      "hit": false,
      "t": 104438.55296874998,
      "d": 2019.6739062499983,
      "v": 54
    },
    {
      "midi": 48,
      "hit": false,
      "t": 104444.3399999995,
      "d": 1111.109999999986,
      "v": 46
    },
    {
      "midi": 36,
      "hit": false,
      "t": 104444.34000000003,
      "d": 1111.1100000000006,
      "v": 74
    },
    {
      "midi": 67,
      "hit": false,
      "t": 104994.10796875003,
      "d": 526.6198437499988,
      "v": 71
    },
    {
      "midi": 55,
      "hit": false,
      "t": 104999.8949999995,
      "d": 694.4437499999913,
      "v": 37
    },
    {
      "midi": 60,
      "hit": false,
      "t": 104999.8949999995,
      "d": 694.4437499999913,
      "v": 45
    },
    {
      "midi": 64,
      "hit": false,
      "t": 104999.8949999995,
      "d": 694.4437499999913,
      "v": 53
    },
    {
      "midi": 69,
      "hit": false,
      "t": 105543.87593750004,
      "d": 827.5454687500023,
      "v": 69
    },
    {
      "midi": 43,
      "hit": false,
      "t": 105555.44999999949,
      "d": 1111.109999999986,
      "v": 55
    },
    {
      "midi": 31,
      "hit": false,
      "t": 105555.45000000003,
      "d": 833.3325000000041,
      "v": 70
    },
    {
      "midi": 55,
      "hit": false,
      "t": 106111.00499999948,
      "d": 555.554999999993,
      "v": 34
    },
    {
      "midi": 60,
      "hit": false,
      "t": 106111.00499999948,
      "d": 555.554999999993,
      "v": 45
    },
    {
      "midi": 64,
      "hit": false,
      "t": 106111.00499999948,
      "d": 555.554999999993,
      "v": 43
    },
    {
      "midi": 67,
      "hit": false,
      "t": 106400.35656250003,
      "d": 248.84234375000233,
      "v": 64
    },
    {
      "midi": 55,
      "hit": false,
      "t": 106602.90265624992,
      "d": 2259.8357031250052,
      "v": 56
    },
    {
      "midi": 79,
      "hit": false,
      "t": 106640.51835937498,
      "d": 1134.258124999993,
      "v": 52
    },
    {
      "midi": 50,
      "hit": false,
      "t": 106666.55999999947,
      "d": 1111.109999999986,
      "v": 56
    },
    {
      "midi": 38,
      "hit": false,
      "t": 106666.56000000003,
      "d": 1111.1100000000006,
      "v": 74
    },
    {
      "midi": 71,
      "hit": false,
      "t": 106669.45351562503,
      "d": 2798.029609374993,
      "v": 67
    },
    {
      "midi": 67,
      "hit": false,
      "t": 107172.92523437492,
      "d": 491.8976562500029,
      "v": 55
    },
    {
      "midi": 71,
      "hit": false,
      "t": 107172.92523437492,
      "d": 561.3420312500093,
      "v": 60
    },
    {
      "midi": 55,
      "hit": false,
      "t": 107222.11499999947,
      "d": 972.2212499999878,
      "v": 42
    },
    {
      "midi": 62,
      "hit": false,
      "t": 107222.11499999947,
      "d": 972.2212499999878,
      "v": 47
    },
    {
      "midi": 65,
      "hit": false,
      "t": 107222.11499999947,
      "d": 972.2212499999878,
      "v": 51
    },
    {
      "midi": 69,
      "hit": false,
      "t": 107687.97101562493,
      "d": 607.6382812499942,
      "v": 56
    },
    {
      "midi": 72,
      "hit": false,
      "t": 107702.43859374993,
      "d": 361.689453125,
      "v": 57
    },
    {
      "midi": 81,
      "hit": false,
      "t": 107725.58671874998,
      "d": 570.0225781249901,
      "v": 54
    },
    {
      "midi": 43,
      "hit": false,
      "t": 107777.66999999946,
      "d": 1111.109999999986,
      "v": 55
    },
    {
      "midi": 31,
      "hit": false,
      "t": 107777.67000000003,
      "d": 1111.1100000000006,
      "v": 74
    },
    {
      "midi": 70,
      "hit": false,
      "t": 108214.59085937493,
      "d": 578.703125,
      "v": 47
    },
    {
      "midi": 73,
      "hit": false,
      "t": 108220.37789062494,
      "d": 587.3836718749953,
      "v": 57
    },
    {
      "midi": 82,
      "hit": false,
      "t": 108263.78062499997,
      "d": 604.7447656250151,
      "v": 49
    },
    {
      "midi": 55,
      "hit": false,
      "t": 108333.22499999945,
      "d": 694.4437499999913,
      "v": 36
    },
    {
      "midi": 62,
      "hit": false,
      "t": 108333.22499999945,
      "d": 694.4437499999913,
      "v": 40
    },
    {
      "midi": 65,
      "hit": false,
      "t": 108333.22499999945,
      "d": 694.4437499999913,
      "v": 38
    },
    {
      "midi": 71,
      "hit": false,
      "t": 108796.18749999993,
      "d": 2204.858906249996,
      "v": 61
    },
    {
      "midi": 83,
      "hit": false,
      "t": 108799.08101562498,
      "d": 2008.0998437500093,
      "v": 50
    },
    {
      "midi": 74,
      "hit": false,
      "t": 108810.65507812492,
      "d": 2228.007031250003,
      "v": 67
    },
    {
      "midi": 59,
      "hit": false,
      "t": 108810.65507812492,
      "d": 2236.6875781249983,
      "v": 47
    },
    {
      "midi": 50,
      "hit": false,
      "t": 108888.77999999945,
      "d": 1111.109999999986,
      "v": 55
    },
    {
      "midi": 38,
      "hit": false,
      "t": 108888.78000000003,
      "d": 1111.1100000000006,
      "v": 72
    },
    {
      "midi": 55,
      "hit": false,
      "t": 109444.33499999944,
      "d": 555.554999999993,
      "v": 32
    },
    {
      "midi": 62,
      "hit": false,
      "t": 109444.33499999944,
      "d": 555.554999999993,
      "v": 51
    },
    {
      "midi": 65,
      "hit": false,
      "t": 109444.33499999944,
      "d": 555.554999999993,
      "v": 48
    },
    {
      "midi": 69,
      "hit": false,
      "t": 109470.37664062502,
      "d": 520.8328124999971,
      "v": 73
    },
    {
      "midi": 43,
      "hit": false,
      "t": 109999.88999999943,
      "d": 1111.109999999986,
      "v": 55
    },
    {
      "midi": 31,
      "hit": false,
      "t": 109999.89000000003,
      "d": 1111.1100000000006,
      "v": 74
    },
    {
      "midi": 71,
      "hit": false,
      "t": 110011.46406250002,
      "d": 810.1843749999971,
      "v": 66
    },
    {
      "midi": 55,
      "hit": false,
      "t": 110555.44499999942,
      "d": 555.554999999993,
      "v": 32
    },
    {
      "midi": 62,
      "hit": false,
      "t": 110555.44499999942,
      "d": 555.554999999993,
      "v": 43
    },
    {
      "midi": 65,
      "hit": false,
      "t": 110555.44499999942,
      "d": 555.554999999993,
      "v": 48
    },
    {
      "midi": 69,
      "hit": false,
      "t": 110841.90304687501,
      "d": 237.26828124999884,
      "v": 67
    },
    {
      "midi": 60,
      "hit": false,
      "t": 111027.08804687492,
      "d": 4424.185390624974,
      "v": 53
    },
    {
      "midi": 84,
      "hit": false,
      "t": 111082.06484374999,
      "d": 1096.6424218750035,
      "v": 44
    },
    {
      "midi": 48,
      "hit": false,
      "t": 111110.99999999942,
      "d": 1111.109999999986,
      "v": 57
    },
    {
      "midi": 36,
      "hit": false,
      "t": 111111.00000000003,
      "d": 1111.1100000000006,
      "v": 72
    },
    {
      "midi": 67,
      "hit": false,
      "t": 111122.57406250002,
      "d": 2193.284843750007,
      "v": 64
    },
    {
      "midi": 76,
      "hit": false,
      "t": 111628.93929687492,
      "d": 570.0225781250047,
      "v": 62
    },
    {
      "midi": 72,
      "hit": false,
      "t": 111631.83281249991,
      "d": 549.7679687500058,
      "v": 58
    },
    {
      "midi": 55,
      "hit": false,
      "t": 111666.55499999941,
      "d": 694.4437499999913,
      "v": 41
    },
    {
      "midi": 60,
      "hit": false,
      "t": 111666.55499999941,
      "d": 694.4437499999913,
      "v": 46
    },
    {
      "midi": 64,
      "hit": false,
      "t": 111666.55499999941,
      "d": 694.4437499999913,
      "v": 52
    },
    {
      "midi": 74,
      "hit": false,
      "t": 112161.34617187492,
      "d": 590.2771875000035,
      "v": 55
    },
    {
      "midi": 86,
      "hit": false,
      "t": 112167.13320312499,
      "d": 570.0225781250047,
      "v": 50
    },
    {
      "midi": 77,
      "hit": false,
      "t": 112172.92023437492,
      "d": 410.87921875000757,
      "v": 53
    },
    {
      "midi": 43,
      "hit": false,
      "t": 112222.1099999994,
      "d": 1111.109999999986,
      "v": 58
    },
    {
      "midi": 31,
      "hit": false,
      "t": 112222.11000000003,
      "d": 1111.1100000000006,
      "v": 75
    },
    {
      "midi": 75,
      "hit": false,
      "t": 112685.07249999992,
      "d": 526.6198437499988,
      "v": 55
    },
    {
      "midi": 78,
      "hit": false,
      "t": 112702.43359374993,
      "d": 512.1522656249872,
      "v": 66
    },
    {
      "midi": 87,
      "hit": false,
      "t": 112719.79468749999,
      "d": 572.9160937500128,
      "v": 56
    },
    {
      "midi": 55,
      "hit": false,
      "t": 112777.6649999994,
      "d": 694.4437499999913,
      "v": 27
    },
    {
      "midi": 60,
      "hit": false,
      "t": 112777.6649999994,
      "d": 694.4437499999913,
      "v": 36
    },
    {
      "midi": 64,
      "hit": false,
      "t": 112777.6649999994,
      "d": 694.4437499999913,
      "v": 46
    },
    {
      "midi": 76,
      "hit": false,
      "t": 113208.79882812493,
      "d": 1290.507968749982,
      "v": 62
    },
    {
      "midi": 79,
      "hit": false,
      "t": 113223.26640624991,
      "d": 538.1939062500023,
      "v": 46
    },
    {
      "midi": 88,
      "hit": false,
      "t": 113266.669140625,
      "d": 561.3420312499948,
      "v": 56
    },
    {
      "midi": 48,
      "hit": false,
      "t": 113333.21999999939,
      "d": 1111.109999999986,
      "v": 55
    },
    {
      "midi": 36,
      "hit": false,
      "t": 113333.22000000003,
      "d": 1111.1100000000006,
      "v": 72
    },
    {
      "midi": 72,
      "hit": false,
      "t": 113784.60843749992,
      "d": 1206.5960156249785,
      "v": 47
    },
    {
      "midi": 84,
      "hit": false,
      "t": 113828.011171875,
      "d": 578.703125,
      "v": 56
    },
    {
      "midi": 55,
      "hit": false,
      "t": 113888.77499999938,
      "d": 694.4437499999913,
      "v": 41
    },
    {
      "midi": 60,
      "hit": false,
      "t": 113888.77499999938,
      "d": 694.4437499999913,
      "v": 47
    },
    {
      "midi": 64,
      "hit": false,
      "t": 113888.77499999938,
      "d": 694.4437499999913,
      "v": 57
    },
    {
      "midi": 79,
      "hit": false,
      "t": 114398.03375,
      "d": 564.2355468749884,
      "v": 50
    },
    {
      "midi": 67,
      "hit": false,
      "t": 114424.07539062492,
      "d": 610.5317968749878,
      "v": 52
    },
    {
      "midi": 43,
      "hit": false,
      "t": 114444.32999999938,
      "d": 833.3324999999895,
      "v": 55
    },
    {
      "midi": 31,
      "hit": false,
      "t": 114444.33000000003,
      "d": 1111.1100000000006,
      "v": 80
    },
    {
      "midi": 64,
      "hit": false,
      "t": 114936.2276562499,
      "d": 515.0457812499953,
      "v": 47
    },
    {
      "midi": 76,
      "hit": false,
      "t": 114965.16281249998,
      "d": 434.02734375,
      "v": 52
    },
    {
      "midi": 76,
      "hit": false,
      "t": 114994.09796875002,
      "d": 448.4949218749971,
      "v": 79
    },
    {
      "midi": 55,
      "hit": false,
      "t": 114999.88499999937,
      "d": 555.554999999993,
      "v": 40
    },
    {
      "midi": 60,
      "hit": false,
      "t": 114999.88499999937,
      "d": 555.554999999993,
      "v": 48
    },
    {
      "midi": 64,
      "hit": false,
      "t": 114999.88499999937,
      "d": 555.554999999993,
      "v": 55
    },
    {
      "midi": 68,
      "hit": false,
      "t": 115503.35671874999,
      "d": 1073.4942968749965,
      "v": 73
    },
    {
      "midi": 62,
      "hit": false,
      "t": 115506.25023437498,
      "d": 1119.790546874996,
      "v": 64
    },
    {
      "midi": 76,
      "hit": false,
      "t": 115538.07890625003,
      "d": 766.7816406250058,
      "v": 76
    },
    {
      "midi": 40,
      "hit": false,
      "t": 115555.43999999936,
      "d": 1111.109999999986,
      "v": 55
    },
    {
      "midi": 28,
      "hit": false,
      "t": 115555.44000000003,
      "d": 1111.1100000000006,
      "v": 82
    },
    {
      "midi": 56,
      "hit": false,
      "t": 116110.99499999936,
      "d": 694.4437499999913,
      "v": 32
    },
    {
      "midi": 59,
      "hit": false,
      "t": 116110.99499999936,
      "d": 694.4437499999913,
      "v": 52
    },
    {
      "midi": 62,
      "hit": false,
      "t": 116110.99499999936,
      "d": 694.4437499999913,
      "v": 51
    },
    {
      "midi": 64,
      "hit": false,
      "t": 116110.99499999936,
      "d": 694.4437499999913,
      "v": 43
    },
    {
      "midi": 76,
      "hit": false,
      "t": 116368.51789062504,
      "d": 193.86554687499302,
      "v": 64
    },
    {
      "midi": 66,
      "hit": false,
      "t": 116556.59640624998,
      "d": 633.6799218750093,
      "v": 61
    },
    {
      "midi": 69,
      "hit": false,
      "t": 116562.38343749999,
      "d": 529.5133593749924,
      "v": 73
    },
    {
      "midi": 76,
      "hit": false,
      "t": 116643.40187500003,
      "d": 737.8464843749971,
      "v": 64
    },
    {
      "midi": 44,
      "hit": false,
      "t": 116666.54999999935,
      "d": 1111.109999999986,
      "v": 52
    },
    {
      "midi": 32,
      "hit": false,
      "t": 116666.55000000003,
      "d": 1111.1100000000006,
      "v": 84
    },
    {
      "midi": 68,
      "hit": false,
      "t": 117115.04492187499,
      "d": 477.4300781250058,
      "v": 56
    },
    {
      "midi": 71,
      "hit": false,
      "t": 117126.61898437499,
      "d": 494.7911718749965,
      "v": 72
    },
    {
      "midi": 56,
      "hit": false,
      "t": 117222.10499999934,
      "d": 555.554999999993,
      "v": 34
    },
    {
      "midi": 59,
      "hit": false,
      "t": 117222.10499999934,
      "d": 555.554999999993,
      "v": 43
    },
    {
      "midi": 62,
      "hit": false,
      "t": 117222.10499999934,
      "d": 555.554999999993,
      "v": 53
    },
    {
      "midi": 64,
      "hit": false,
      "t": 117222.10499999934,
      "d": 555.554999999993,
      "v": 45
    },
    {
      "midi": 76,
      "hit": false,
      "t": 117453.58625000002,
      "d": 176.50445312500233,
      "v": 64
    },
    {
      "midi": 69,
      "hit": false,
      "t": 117635.87773437498,
      "d": 682.8696875000023,
      "v": 61
    },
    {
      "midi": 72,
      "hit": false,
      "t": 117719.78968749999,
      "d": 535.3003906249942,
      "v": 74
    },
    {
      "midi": 76,
      "hit": false,
      "t": 117737.15078125002,
      "d": 740.7400000000052,
      "v": 64
    },
    {
      "midi": 45,
      "hit": false,
      "t": 117777.65999999933,
      "d": 1111.109999999986,
      "v": 55
    },
    {
      "midi": 33,
      "hit": false,
      "t": 117777.66000000003,
      "d": 1111.1100000000006,
      "v": 84
    },
    {
      "midi": 71,
      "hit": false,
      "t": 118237.72898437499,
      "d": 627.892890624993,
      "v": 68
    },
    {
      "midi": 74,
      "hit": false,
      "t": 118252.19656249999,
      "d": 546.8744531249977,
      "v": 72
    },
    {
      "midi": 57,
      "hit": false,
      "t": 118333.21499999933,
      "d": 694.4437499999913,
      "v": 34
    },
    {
      "midi": 60,
      "hit": false,
      "t": 118333.21499999933,
      "d": 694.4437499999913,
      "v": 48
    },
    {
      "midi": 64,
      "hit": false,
      "t": 118333.21499999933,
      "d": 694.4437499999913,
      "v": 52
    },
    {
      "midi": 76,
      "hit": false,
      "t": 118573.37679687503,
      "d": 205.4396093749965,
      "v": 51
    },
    {
      "midi": 76,
      "hit": false,
      "t": 118796.17749999999,
      "d": 561.3420312499948,
      "v": 74
    },
    {
      "midi": 72,
      "hit": false,
      "t": 118819.32562499998,
      "d": 1189.2349218750023,
      "v": 68
    },
    {
      "midi": 76,
      "hit": false,
      "t": 118880.08945312502,
      "d": 662.6150781250035,
      "v": 64
    },
    {
      "midi": 52,
      "hit": false,
      "t": 118888.76999999932,
      "d": 694.4437499999913,
      "v": 56
    },
    {
      "midi": 40,
      "hit": false,
      "t": 118888.77000000003,
      "d": 555.554999999993,
      "v": 84
    },
    {
      "midi": 69,
      "hit": false,
      "t": 119351.73249999998,
      "d": 651.041015625,
      "v": 68
    },
    {
      "midi": 45,
      "hit": false,
      "t": 119444.32499999931,
      "d": 555.554999999993,
      "v": 50
    },
    {
      "midi": 57,
      "hit": false,
      "t": 119444.32499999931,
      "d": 694.4437499999913,
      "v": 42
    },
    {
      "midi": 60,
      "hit": false,
      "t": 119444.32499999931,
      "d": 694.4437499999913,
      "v": 50
    },
    {
      "midi": 64,
      "hit": false,
      "t": 119444.32499999931,
      "d": 694.4437499999913,
      "v": 56
    },
    {
      "midi": 33,
      "hit": false,
      "t": 119444.32500000003,
      "d": 555.554999999993,
      "v": 59
    },
    {
      "midi": 76,
      "hit": false,
      "t": 119652.65812500003,
      "d": 318.2867187499942,
      "v": 64
    },
    {
      "midi": 67,
      "hit": false,
      "t": 119942.00968749999,
      "d": 619.2123437499831,
      "v": 61
    },
    {
      "midi": 71,
      "hit": false,
      "t": 119950.69023437498,
      "d": 549.7679687499913,
      "v": 73
    },
    {
      "midi": 74,
      "hit": false,
      "t": 119994.09296875003,
      "d": 1689.8131250000006,
      "v": 67
    },
    {
      "midi": 43,
      "hit": false,
      "t": 119999.8799999993,
      "d": 1111.109999999986,
      "v": 57
    },
    {
      "midi": 31,
      "hit": false,
      "t": 119999.88000000002,
      "d": 1111.1100000000006,
      "v": 80
    },
    {
      "midi": 72,
      "hit": false,
      "t": 120491.77765624998,
      "d": 561.3420312499948,
      "v": 71
    },
    {
      "midi": 69,
      "hit": false,
      "t": 120491.77765624998,
      "d": 607.6382812499942,
      "v": 67
    },
    {
      "midi": 55,
      "hit": false,
      "t": 120555.4349999993,
      "d": 555.554999999993,
      "v": 46
    },
    {
      "midi": 59,
      "hit": false,
      "t": 120555.4349999993,
      "d": 555.554999999993,
      "v": 51
    },
    {
      "midi": 62,
      "hit": false,
      "t": 120555.4349999993,
      "d": 555.554999999993,
      "v": 53
    },
    {
      "midi": 71,
      "hit": false,
      "t": 121038.65210937498,
      "d": 708.9113281249884,
      "v": 64
    },
    {
      "midi": 74,
      "hit": false,
      "t": 121047.33265624997,
      "d": 622.1058593749913,
      "v": 67
    },
    {
      "midi": 47,
      "hit": false,
      "t": 121110.98999999929,
      "d": 1111.109999999986,
      "v": 56
    },
    {
      "midi": 35,
      "hit": false,
      "t": 121110.99000000002,
      "d": 1111.1100000000006,
      "v": 84
    },
    {
      "midi": 77,
      "hit": false,
      "t": 121646.29039062497,
      "d": 494.7911718749965,
      "v": 56
    },
    {
      "midi": 72,
      "hit": false,
      "t": 121649.18390624996,
      "d": 486.11062500000116,
      "v": 74
    },
    {
      "midi": 53,
      "hit": false,
      "t": 121666.54499999929,
      "d": 555.554999999993,
      "v": 37
    },
    {
      "midi": 59,
      "hit": false,
      "t": 121666.54499999929,
      "d": 555.554999999993,
      "v": 46
    },
    {
      "midi": 62,
      "hit": false,
      "t": 121666.54499999929,
      "d": 555.554999999993,
      "v": 43
    },
    {
      "midi": 77,
      "hit": false,
      "t": 121666.54500000003,
      "d": 393.5181250000023,
      "v": 68
    },
    {
      "midi": 77,
      "hit": false,
      "t": 122196.05835937503,
      "d": 526.6198437499988,
      "v": 67
    },
    {
      "midi": 77,
      "hit": false,
      "t": 122207.63242187497,
      "d": 561.3420312500093,
      "v": 63
    },
    {
      "midi": 72,
      "hit": false,
      "t": 122213.41945312497,
      "d": 2210.645937500012,
      "v": 72
    },
    {
      "midi": 48,
      "hit": false,
      "t": 122222.09999999928,
      "d": 1111.109999999986,
      "v": 58
    },
    {
      "midi": 36,
      "hit": false,
      "t": 122222.10000000002,
      "d": 1111.1100000000006,
      "v": 80
    },
    {
      "midi": 76,
      "hit": false,
      "t": 122705.31710937497,
      "d": 1718.7482812500093,
      "v": 59
    },
    {
      "midi": 76,
      "hit": false,
      "t": 122740.03929687504,
      "d": 1779.5121093750058,
      "v": 63
    },
    {
      "midi": 55,
      "hit": false,
      "t": 122777.65499999927,
      "d": 833.3324999999895,
      "v": 46
    },
    {
      "midi": 60,
      "hit": false,
      "t": 122777.65499999927,
      "d": 833.3324999999895,
      "v": 42
    },
    {
      "midi": 64,
      "hit": false,
      "t": 122777.65499999927,
      "d": 833.3324999999895,
      "v": 55
    },
    {
      "midi": 43,
      "hit": false,
      "t": 123333.20999999926,
      "d": 1111.109999999986,
      "v": 55
    },
    {
      "midi": 31,
      "hit": false,
      "t": 123333.21000000002,
      "d": 1111.1100000000006,
      "v": 80
    },
    {
      "midi": 55,
      "hit": false,
      "t": 123888.76499999926,
      "d": 694.4437499999913,
      "v": 41
    },
    {
      "midi": 60,
      "hit": false,
      "t": 123888.76499999926,
      "d": 694.4437499999913,
      "v": 43
    },
    {
      "midi": 64,
      "hit": false,
      "t": 123888.76499999926,
      "d": 694.4437499999913,
      "v": 47
    },
    {
      "midi": 48,
      "hit": false,
      "t": 124444.31999999925,
      "d": 277.7774999999965,
      "v": 64
    },
    {
      "midi": 36,
      "hit": false,
      "t": 124444.32000000002,
      "d": 277.7774999999965,
      "v": 77
    },
    {
      "midi": 76,
      "hit": false,
      "t": 124991.19445312505,
      "d": 81.01843749999534,
      "v": 62
    },
    {
      "midi": 76,
      "hit": false,
      "t": 125150.33781250005,
      "d": 98.37953125000058,
      "v": 48
    },
    {
      "midi": 77,
      "hit": false,
      "t": 125355.77742187504,
      "d": 439.81437500000175,
      "v": 63
    },
    {
      "midi": 43,
      "hit": false,
      "t": 125376.03203124924,
      "d": 1249.9987499999988,
      "v": 57
    },
    {
      "midi": 53,
      "hit": false,
      "t": 125422.32828124924,
      "d": 972.2212500000023,
      "v": 35
    },
    {
      "midi": 43,
      "hit": false,
      "t": 125477.30507812498,
      "d": 1157.40625,
      "v": 67
    },
    {
      "midi": 53,
      "hit": false,
      "t": 125491.77265624997,
      "d": 1067.7072656249948,
      "v": 45
    },
    {
      "midi": 62,
      "hit": false,
      "t": 125491.77265624997,
      "d": 1189.2349218750023,
      "v": 61
    },
    {
      "midi": 59,
      "hit": false,
      "t": 125497.55968749923,
      "d": 1111.1100000000006,
      "v": 52
    },
    {
      "midi": 59,
      "hit": false,
      "t": 125500.45320312497,
      "d": 1073.4942968749965,
      "v": 58
    },
    {
      "midi": 62,
      "hit": false,
      "t": 125555.42999999924,
      "d": 972.2212500000023,
      "v": 46
    },
    {
      "midi": 31,
      "hit": false,
      "t": 125555.43000000002,
      "d": 1111.1100000000006,
      "v": 76
    },
    {
      "midi": 77,
      "hit": false,
      "t": 125891.07781250005,
      "d": 141.7822656250064,
      "v": 55
    },
    {
      "midi": 74,
      "hit": false,
      "t": 126105.19796875006,
      "d": 92.59249999999884,
      "v": 52
    },
    {
      "midi": 74,
      "hit": false,
      "t": 126270.12835937506,
      "d": 101.27304687499418,
      "v": 55
    },
    {
      "midi": 72,
      "hit": false,
      "t": 126435.05875000005,
      "d": 318.2867187499942,
      "v": 62
    },
    {
      "midi": 60,
      "hit": false,
      "t": 126605.77617187497,
      "d": 292.24507812500815,
      "v": 44
    },
    {
      "midi": 48,
      "hit": false,
      "t": 126628.92429687497,
      "d": 254.62937500000407,
      "v": 56
    },
    {
      "midi": 55,
      "hit": false,
      "t": 126652.07242187498,
      "d": 231.4812499999971,
      "v": 71
    },
    {
      "midi": 48,
      "hit": false,
      "t": 126666.53999999924,
      "d": 277.7774999999965,
      "v": 53
    },
    {
      "midi": 55,
      "hit": false,
      "t": 126666.53999999924,
      "d": 277.7774999999965,
      "v": 28
    },
    {
      "midi": 60,
      "hit": false,
      "t": 126666.53999999924,
      "d": 277.7774999999965,
      "v": 33
    },
    {
      "midi": 64,
      "hit": false,
      "t": 126666.53999999924,
      "d": 277.7774999999965,
      "v": 48
    },
    {
      "midi": 36,
      "hit": false,
      "t": 126666.54000000002,
      "d": 416.66624999999476,
      "v": 78
    },
    {
      "midi": 72,
      "hit": false,
      "t": 126817.00281250005,
      "d": 176.50445312500233,
      "v": 45
    },
    {
      "midi": 76,
      "hit": false,
      "t": 127392.81242187506,
      "d": 78.12492187500175,
      "v": 55
    },
    {
      "midi": 76,
      "hit": false,
      "t": 127566.42335937507,
      "d": 86.80546874999709,
      "v": 55
    },
    {
      "midi": 43,
      "hit": false,
      "t": 127621.40015624923,
      "d": 1249.9987499999988,
      "v": 50
    },
    {
      "midi": 55,
      "hit": false,
      "t": 127676.37695312423,
      "d": 1666.664999999979,
      "v": 38
    },
    {
      "midi": 62,
      "hit": false,
      "t": 127708.20562499997,
      "d": 1131.3646093749558,
      "v": 57
    },
    {
      "midi": 59,
      "hit": false,
      "t": 127716.88617187497,
      "d": 1148.725703124961,
      "v": 50
    },
    {
      "midi": 53,
      "hit": false,
      "t": 127719.77968749996,
      "d": 1004.0499218749901,
      "v": 42
    },
    {
      "midi": 62,
      "hit": false,
      "t": 127722.67320312423,
      "d": 1111.1100000000006,
      "v": 33
    },
    {
      "midi": 43,
      "hit": false,
      "t": 127748.71484374996,
      "d": 1076.38781249999,
      "v": 38
    },
    {
      "midi": 77,
      "hit": false,
      "t": 127768.96945312507,
      "d": 300.9256250000035,
      "v": 63
    },
    {
      "midi": 65,
      "hit": false,
      "t": 127777.64999999922,
      "d": 972.2212500000023,
      "v": 52
    },
    {
      "midi": 31,
      "hit": false,
      "t": 127777.65000000002,
      "d": 1111.1100000000006,
      "v": 78
    },
    {
      "midi": 77,
      "hit": false,
      "t": 128182.74218750007,
      "d": 277.7774999999965,
      "v": 47
    },
    {
      "midi": 74,
      "hit": false,
      "t": 128527.07054687507,
      "d": 89.69898437500524,
      "v": 57
    },
    {
      "midi": 74,
      "hit": false,
      "t": 128692.00093750007,
      "d": 121.52765624999302,
      "v": 55
    },
    {
      "midi": 64,
      "hit": false,
      "t": 128810.63507812495,
      "d": 312.4996874999779,
      "v": 52
    },
    {
      "midi": 60,
      "hit": false,
      "t": 128827.99617187494,
      "d": 309.6061718749843,
      "v": 50
    },
    {
      "midi": 55,
      "hit": false,
      "t": 128830.88968749993,
      "d": 292.2450781249936,
      "v": 58
    },
    {
      "midi": 48,
      "hit": false,
      "t": 128856.93132812493,
      "d": 277.7774999999965,
      "v": 49
    },
    {
      "midi": 72,
      "hit": false,
      "t": 128882.97296875007,
      "d": 269.09695312500116,
      "v": 55
    },
    {
      "midi": 36,
      "hit": false,
      "t": 128888.76000000002,
      "d": 277.7774999999965,
      "v": 80
    },
    {
      "midi": 64,
      "hit": false,
      "t": 128891.65351562423,
      "d": 416.6662499999802,
      "v": 41
    },
    {
      "midi": 60,
      "hit": false,
      "t": 128894.54703124923,
      "d": 416.6662499999802,
      "v": 46
    },
    {
      "midi": 48,
      "hit": false,
      "t": 128903.22757812422,
      "d": 277.7774999999965,
      "v": 52
    },
    {
      "midi": 72,
      "hit": false,
      "t": 129238.87539062506,
      "d": 193.86554687499302,
      "v": 51
    },
    {
      "midi": 76,
      "hit": false,
      "t": 129620.81945312506,
      "d": 83.91195312500349,
      "v": 56
    },
    {
      "midi": 76,
      "hit": false,
      "t": 129800.21742187507,
      "d": 95.48601562500698,
      "v": 52
    },
    {
      "midi": 43,
      "hit": false,
      "t": 129840.72664062421,
      "d": 1111.109999999986,
      "v": 46
    },
    {
      "midi": 53,
      "hit": false,
      "t": 129901.49046874921,
      "d": 972.2212499999878,
      "v": 32
    },
    {
      "midi": 53,
      "hit": false,
      "t": 129947.78671874992,
      "d": 963.540703125007,
      "v": 38
    },
    {
      "midi": 62,
      "hit": false,
      "t": 129947.78671874992,
      "d": 1056.1332031250058,
      "v": 50
    },
    {
      "midi": 59,
      "hit": false,
      "t": 129953.57374999992,
      "d": 1145.8321874999965,
      "v": 50
    },
    {
      "midi": 43,
      "hit": false,
      "t": 129959.36078124992,
      "d": 1093.7489062499808,
      "v": 38
    },
    {
      "midi": 59,
      "hit": false,
      "t": 129968.0413281242,
      "d": 972.2212499999878,
      "v": 33
    },
    {
      "midi": 31,
      "hit": false,
      "t": 129999.87000000002,
      "d": 1111.109999999986,
      "v": 82
    },
    {
      "midi": 77,
      "hit": false,
      "t": 129999.87000000008,
      "d": 225.69421874999534,
      "v": 58
    },
    {
      "midi": 62,
      "hit": false,
      "t": 130002.7635156242,
      "d": 972.2212500000023,
      "v": 56
    },
    {
      "midi": 77,
      "hit": false,
      "t": 130358.66593750007,
      "d": 306.71265625000524,
      "v": 42
    },
    {
      "midi": 74,
      "hit": false,
      "t": 130743.50351562508,
      "d": 107.06007812499593,
      "v": 56
    },
    {
      "midi": 74,
      "hit": false,
      "t": 130925.79500000007,
      "d": 121.52765624999302,
      "v": 55
    },
    {
      "midi": 48,
      "hit": false,
      "t": 130998.13289062421,
      "d": 1111.1100000000006,
      "v": 28
    },
    {
      "midi": 60,
      "hit": false,
      "t": 131038.64210937492,
      "d": 344.3283593750093,
      "v": 38
    },
    {
      "midi": 52,
      "hit": false,
      "t": 131041.53562499922,
      "d": 694.4437499999913,
      "v": 35
    },
    {
      "midi": 64,
      "hit": false,
      "t": 131041.53562499992,
      "d": 332.7542968750204,
      "v": 48
    },
    {
      "midi": 55,
      "hit": false,
      "t": 131044.42914062491,
      "d": 326.9672656250186,
      "v": 48
    },
    {
      "midi": 48,
      "hit": false,
      "t": 131053.1096874999,
      "d": 318.2867187500233,
      "v": 52
    },
    {
      "midi": 55,
      "hit": false,
      "t": 131084.9383593742,
      "d": 555.554999999993,
      "v": 20
    },
    {
      "midi": 36,
      "hit": false,
      "t": 131110.98,
      "d": 416.6662500000093,
      "v": 78
    },
    {
      "midi": 76,
      "hit": false,
      "t": 131125.44757812505,
      "d": 280.67101562500466,
      "v": 61
    },
    {
      "midi": 60,
      "hit": false,
      "t": 131128.34109374922,
      "d": 555.554999999993,
      "v": 47
    },
    {
      "midi": 76,
      "hit": false,
      "t": 131498.71109375005,
      "d": 292.24507812500815,
      "v": 47
    },
    {
      "midi": 74,
      "hit": false,
      "t": 131834.35890625007,
      "d": 167.82390624997788,
      "v": 56
    },
    {
      "midi": 72,
      "hit": false,
      "t": 131996.39578125006,
      "d": 176.50445312497322,
      "v": 52
    },
    {
      "midi": 43,
      "hit": false,
      "t": 132068.73367187422,
      "d": 1111.1100000000151,
      "v": 27
    },
    {
      "midi": 53,
      "hit": false,
      "t": 132103.45585937423,
      "d": 972.2212500000023,
      "v": 23
    },
    {
      "midi": 43,
      "hit": false,
      "t": 132141.07156249994,
      "d": 1087.9618750000081,
      "v": 59
    },
    {
      "midi": 62,
      "hit": false,
      "t": 132141.07156249994,
      "d": 1163.1932812499872,
      "v": 49
    },
    {
      "midi": 59,
      "hit": false,
      "t": 132149.75210937494,
      "d": 1134.258124999993,
      "v": 54
    },
    {
      "midi": 53,
      "hit": false,
      "t": 132152.64562499995,
      "d": 914.350937500014,
      "v": 39
    },
    {
      "midi": 59,
      "hit": false,
      "t": 132178.6872656242,
      "d": 1111.109999999986,
      "v": 19
    },
    {
      "midi": 31,
      "hit": false,
      "t": 132222.09000000003,
      "d": 1111.109999999986,
      "v": 78
    },
    {
      "midi": 62,
      "hit": false,
      "t": 132224.98351562422,
      "d": 972.2212500000023,
      "v": 45
    },
    {
      "midi": 74,
      "hit": false,
      "t": 132227.87703125004,
      "d": 245.94882812499418,
      "v": 52
    },
    {
      "midi": 74,
      "hit": false,
      "t": 132577.99242187504,
      "d": 347.22187499998836,
      "v": 47
    },
    {
      "midi": 72,
      "hit": false,
      "t": 132939.68187500004,
      "d": 156.2498437500035,
      "v": 45
    },
    {
      "midi": 71,
      "hit": false,
      "t": 133127.76039062504,
      "d": 150.4628124999872,
      "v": 52
    },
    {
      "midi": 48,
      "hit": false,
      "t": 133185.63070312422,
      "d": 416.6662499999511,
      "v": 33
    },
    {
      "midi": 55,
      "hit": false,
      "t": 133229.03343749995,
      "d": 344.3283593749802,
      "v": 51
    },
    {
      "midi": 55,
      "hit": false,
      "t": 133234.8204687492,
      "d": 416.6662499999511,
      "v": 31
    },
    {
      "midi": 60,
      "hit": false,
      "t": 133237.71398437495,
      "d": 338.541328124993,
      "v": 67
    },
    {
      "midi": 48,
      "hit": false,
      "t": 133243.50101562493,
      "d": 329.8607812499977,
      "v": 59
    },
    {
      "midi": 60,
      "hit": false,
      "t": 133263.7556249992,
      "d": 416.6662499999511,
      "v": 8
    },
    {
      "midi": 64,
      "hit": false,
      "t": 133315.83890624918,
      "d": 416.6662499999802,
      "v": 22
    },
    {
      "midi": 72,
      "hit": false,
      "t": 133315.83890625002,
      "d": 344.3283593750093,
      "v": 57
    },
    {
      "midi": 36,
      "hit": false,
      "t": 133333.2,
      "d": 416.6662500000093,
      "v": 76
    },
    {
      "midi": 84,
      "hit": false,
      "t": 134221.5092968748,
      "d": 269.096953124681,
      "v": 60
    },
    {
      "midi": 83,
      "hit": false,
      "t": 134464.5646093745,
      "d": 179.39796874998137,
      "v": 76
    },
    {
      "midi": 81,
      "hit": false,
      "t": 134985.39742187448,
      "d": 208.33312500000466,
      "v": 71
    },
    {
      "midi": 91,
      "hit": false,
      "t": 135546.73945312493,
      "d": 98.37953124998603,
      "v": 82
    },
    {
      "midi": 43,
      "hit": false,
      "t": 135555.41999999917,
      "d": 972.2212500000023,
      "v": 58
    },
    {
      "midi": 79,
      "hit": false,
      "t": 135555.4199999995,
      "d": 2407.4049999996205,
      "v": 79
    },
    {
      "midi": 31,
      "hit": false,
      "t": 135555.42,
      "d": 1111.109999999986,
      "v": 76
    },
    {
      "midi": 91,
      "hit": false,
      "t": 136076.2528124999,
      "d": 112.84710937499767,
      "v": 79
    },
    {
      "midi": 55,
      "hit": false,
      "t": 136110.97499999916,
      "d": 972.2212500000314,
      "v": 35
    },
    {
      "midi": 59,
      "hit": false,
      "t": 136110.97499999916,
      "d": 972.2212500000314,
      "v": 46
    },
    {
      "midi": 65,
      "hit": false,
      "t": 136110.97499999916,
      "d": 972.2212500000314,
      "v": 48
    },
    {
      "midi": 91,
      "hit": false,
      "t": 136654.9559374999,
      "d": 118.63414062501397,
      "v": 84
    },
    {
      "midi": 50,
      "hit": false,
      "t": 136666.52999999918,
      "d": 1111.1100000000151,
      "v": 50
    },
    {
      "midi": 38,
      "hit": false,
      "t": 136666.53,
      "d": 1111.109999999986,
      "v": 75
    },
    {
      "midi": 55,
      "hit": false,
      "t": 137222.0849999992,
      "d": 972.2212500000023,
      "v": 42
    },
    {
      "midi": 59,
      "hit": false,
      "t": 137222.0849999992,
      "d": 972.2212500000023,
      "v": 52
    },
    {
      "midi": 65,
      "hit": false,
      "t": 137222.0849999992,
      "d": 972.2212500000023,
      "v": 55
    },
    {
      "midi": 91,
      "hit": false,
      "t": 137222.08499999993,
      "d": 107.06007812501048,
      "v": 79
    },
    {
      "midi": 91,
      "hit": false,
      "t": 137774.74648437495,
      "d": 101.27304687499418,
      "v": 79
    },
    {
      "midi": 43,
      "hit": false,
      "t": 137777.6399999992,
      "d": 1111.1100000000151,
      "v": 57
    },
    {
      "midi": 31,
      "hit": false,
      "t": 137777.63999999998,
      "d": 1111.109999999986,
      "v": 72
    },
    {
      "midi": 91,
      "hit": false,
      "t": 138312.94039062495,
      "d": 98.37953124998603,
      "v": 82
    },
    {
      "midi": 55,
      "hit": false,
      "t": 138333.19499999922,
      "d": 972.2212500000023,
      "v": 53
    },
    {
      "midi": 59,
      "hit": false,
      "t": 138333.19499999922,
      "d": 972.2212500000023,
      "v": 43
    },
    {
      "midi": 65,
      "hit": false,
      "t": 138333.19499999922,
      "d": 972.2212500000023,
      "v": 53
    },
    {
      "midi": 89,
      "hit": false,
      "t": 138660.16226562354,
      "d": 248.84234374965308,
      "v": 64
    },
    {
      "midi": 91,
      "hit": false,
      "t": 138862.70835937493,
      "d": 109.95359374998952,
      "v": 76
    },
    {
      "midi": 50,
      "hit": false,
      "t": 138888.7499999992,
      "d": 972.2212500000314,
      "v": 53
    },
    {
      "midi": 38,
      "hit": false,
      "t": 138888.74999999997,
      "d": 1111.109999999986,
      "v": 74
    },
    {
      "midi": 88,
      "hit": false,
      "t": 138917.6851562482,
      "d": 205.4396093749965,
      "v": 67
    },
    {
      "midi": 91,
      "hit": false,
      "t": 139409.58281249992,
      "d": 104.16656250000233,
      "v": 79
    },
    {
      "midi": 86,
      "hit": false,
      "t": 139429.83742187318,
      "d": 225.69421874999534,
      "v": 67
    },
    {
      "midi": 55,
      "hit": false,
      "t": 139444.30499999924,
      "d": 555.5550000000221,
      "v": 41
    },
    {
      "midi": 59,
      "hit": false,
      "t": 139444.30499999924,
      "d": 555.5550000000221,
      "v": 41
    },
    {
      "midi": 65,
      "hit": false,
      "t": 139444.30499999924,
      "d": 555.5550000000221,
      "v": 53
    },
    {
      "midi": 91,
      "hit": false,
      "t": 139944.88320312492,
      "d": 118.63414062501397,
      "v": 76
    },
    {
      "midi": 84,
      "hit": false,
      "t": 139996.96648437317,
      "d": 2494.210468749312,
      "v": 68
    },
    {
      "midi": 48,
      "hit": false,
      "t": 139999.85999999926,
      "d": 1111.109999999986,
      "v": 55
    },
    {
      "midi": 36,
      "hit": false,
      "t": 139999.85999999996,
      "d": 1111.109999999986,
      "v": 74
    },
    {
      "midi": 91,
      "hit": false,
      "t": 140520.69281249994,
      "d": 109.95359374998952,
      "v": 79
    },
    {
      "midi": 55,
      "hit": false,
      "t": 140555.41499999925,
      "d": 694.4437500000058,
      "v": 42
    },
    {
      "midi": 60,
      "hit": false,
      "t": 140555.41499999925,
      "d": 694.4437500000058,
      "v": 40
    },
    {
      "midi": 64,
      "hit": false,
      "t": 140555.41499999925,
      "d": 694.4437500000058,
      "v": 48
    },
    {
      "midi": 91,
      "hit": false,
      "t": 141087.82187499994,
      "d": 104.16656250000233,
      "v": 76
    },
    {
      "midi": 43,
      "hit": false,
      "t": 141110.96999999924,
      "d": 1111.1100000000151,
      "v": 55
    },
    {
      "midi": 31,
      "hit": false,
      "t": 141110.96999999994,
      "d": 1111.109999999986,
      "v": 75
    },
    {
      "midi": 91,
      "hit": false,
      "t": 141626.01578124994,
      "d": 107.06007812501048,
      "v": 79
    },
    {
      "midi": 55,
      "hit": false,
      "t": 141666.52499999927,
      "d": 694.4437500000058,
      "v": 37
    },
    {
      "midi": 60,
      "hit": false,
      "t": 141666.52499999927,
      "d": 694.4437500000058,
      "v": 45
    },
    {
      "midi": 64,
      "hit": false,
      "t": 141666.52499999927,
      "d": 694.4437500000058,
      "v": 56
    },
    {
      "midi": 91,
      "hit": false,
      "t": 142181.57078124996,
      "d": 115.74062500000582,
      "v": 84
    },
    {
      "midi": 48,
      "hit": false,
      "t": 142222.07999999926,
      "d": 1111.1100000000151,
      "v": 56
    },
    {
      "midi": 36,
      "hit": false,
      "t": 142222.07999999993,
      "d": 1111.109999999986,
      "v": 75
    },
    {
      "midi": 91,
      "hit": false,
      "t": 142740.01929687496,
      "d": 98.37953124998603,
      "v": 79
    },
    {
      "midi": 55,
      "hit": false,
      "t": 142777.63499999928,
      "d": 694.4437500000058,
      "v": 46
    },
    {
      "midi": 60,
      "hit": false,
      "t": 142777.63499999928,
      "d": 694.4437500000058,
      "v": 41
    },
    {
      "midi": 64,
      "hit": false,
      "t": 142777.63499999928,
      "d": 694.4437500000058,
      "v": 53
    },
    {
      "midi": 84,
      "hit": false,
      "t": 143095.92171874727,
      "d": 208.33312499983003,
      "v": 66
    },
    {
      "midi": 91,
      "hit": false,
      "t": 143295.57429687495,
      "d": 104.16656250000233,
      "v": 79
    },
    {
      "midi": 83,
      "hit": false,
      "t": 143327.4029687471,
      "d": 219.90718750000815,
      "v": 66
    },
    {
      "midi": 43,
      "hit": false,
      "t": 143333.18999999927,
      "d": 694.4437500000349,
      "v": 56
    },
    {
      "midi": 31,
      "hit": false,
      "t": 143333.18999999992,
      "d": 972.2212500000023,
      "v": 76
    },
    {
      "midi": 91,
      "hit": false,
      "t": 143856.91632812496,
      "d": 107.06007812501048,
      "v": 79
    },
    {
      "midi": 81,
      "hit": false,
      "t": 143882.95796874713,
      "d": 271.9904687500093,
      "v": 71
    },
    {
      "midi": 55,
      "hit": false,
      "t": 143888.7449999993,
      "d": 555.5550000000221,
      "v": 37
    },
    {
      "midi": 60,
      "hit": false,
      "t": 143888.7449999993,
      "d": 555.5550000000221,
      "v": 42
    },
    {
      "midi": 64,
      "hit": false,
      "t": 143888.7449999993,
      "d": 555.5550000000221,
      "v": 55
    },
    {
      "midi": 91,
      "hit": false,
      "t": 144421.15187499998,
      "d": 104.16656250000233,
      "v": 76
    },
    {
      "midi": 79,
      "hit": false,
      "t": 144435.61945312214,
      "d": 2502.8910156246275,
      "v": 71
    },
    {
      "midi": 43,
      "hit": false,
      "t": 144444.29999999932,
      "d": 694.4437500000058,
      "v": 57
    },
    {
      "midi": 31,
      "hit": false,
      "t": 144444.29999999993,
      "d": 1111.109999999986,
      "v": 71
    },
    {
      "midi": 91,
      "hit": false,
      "t": 144950.665234375,
      "d": 109.95359374998952,
      "v": 76
    },
    {
      "midi": 59,
      "hit": false,
      "t": 144999.8549999993,
      "d": 555.5550000000221,
      "v": 47
    },
    {
      "midi": 65,
      "hit": false,
      "t": 144999.8549999993,
      "d": 555.5550000000221,
      "v": 37
    },
    {
      "midi": 55,
      "hit": false,
      "t": 144999.8549999993,
      "d": 694.4437500000349,
      "v": 31
    },
    {
      "midi": 91,
      "hit": false,
      "t": 145535.15539062498,
      "d": 115.74062500000582,
      "v": 78
    },
    {
      "midi": 50,
      "hit": false,
      "t": 145555.40999999933,
      "d": 1111.1100000000151,
      "v": 55
    },
    {
      "midi": 38,
      "hit": false,
      "t": 145555.40999999992,
      "d": 1111.109999999986,
      "v": 72
    },
    {
      "midi": 91,
      "hit": false,
      "t": 146084.92335937498,
      "d": 107.06007812501048,
      "v": 73
    },
    {
      "midi": 55,
      "hit": false,
      "t": 146110.96499999936,
      "d": 555.554999999993,
      "v": 31
    },
    {
      "midi": 59,
      "hit": false,
      "t": 146110.96499999936,
      "d": 555.554999999993,
      "v": 38
    },
    {
      "midi": 65,
      "hit": false,
      "t": 146110.96499999936,
      "d": 555.554999999993,
      "v": 55
    },
    {
      "midi": 91,
      "hit": false,
      "t": 146643.37187499998,
      "d": 112.84710937499767,
      "v": 79
    },
    {
      "midi": 43,
      "hit": false,
      "t": 146666.51999999935,
      "d": 1111.109999999986,
      "v": 55
    },
    {
      "midi": 31,
      "hit": false,
      "t": 146666.5199999999,
      "d": 1111.109999999986,
      "v": 72
    },
    {
      "midi": 91,
      "hit": false,
      "t": 147178.67226562498,
      "d": 118.63414062501397,
      "v": 76
    },
    {
      "midi": 55,
      "hit": false,
      "t": 147222.07499999934,
      "d": 555.554999999993,
      "v": 35
    },
    {
      "midi": 59,
      "hit": false,
      "t": 147222.07499999934,
      "d": 555.554999999993,
      "v": 45
    },
    {
      "midi": 65,
      "hit": false,
      "t": 147222.07499999934,
      "d": 555.554999999993,
      "v": 56
    },
    {
      "midi": 89,
      "hit": false,
      "t": 147537.4682031215,
      "d": 228.58773437485797,
      "v": 68
    },
    {
      "midi": 91,
      "hit": false,
      "t": 147737.12078124998,
      "d": 118.63414062501397,
      "v": 79
    },
    {
      "midi": 88,
      "hit": false,
      "t": 147760.26890624638,
      "d": 245.94882812499418,
      "v": 66
    },
    {
      "midi": 50,
      "hit": false,
      "t": 147777.62999999934,
      "d": 833.3324999999895,
      "v": 51
    },
    {
      "midi": 38,
      "hit": false,
      "t": 147777.6299999999,
      "d": 1111.109999999986,
      "v": 72
    },
    {
      "midi": 91,
      "hit": false,
      "t": 148289.782265625,
      "d": 107.06007812501048,
      "v": 79
    },
    {
      "midi": 86,
      "hit": false,
      "t": 148310.03687499638,
      "d": 269.09695312500116,
      "v": 71
    },
    {
      "midi": 55,
      "hit": false,
      "t": 148333.18499999933,
      "d": 555.554999999993,
      "v": 29
    },
    {
      "midi": 59,
      "hit": false,
      "t": 148333.18499999933,
      "d": 555.554999999993,
      "v": 33
    },
    {
      "midi": 65,
      "hit": false,
      "t": 148333.18499999933,
      "d": 555.554999999993,
      "v": 57
    },
    {
      "midi": 91,
      "hit": false,
      "t": 148839.550234375,
      "d": 109.95359374998952,
      "v": 68
    },
    {
      "midi": 84,
      "hit": false,
      "t": 148882.9529687464,
      "d": 3142.3579687497986,
      "v": 79
    },
    {
      "midi": 48,
      "hit": false,
      "t": 148888.73999999932,
      "d": 1111.109999999986,
      "v": 52
    },
    {
      "midi": 36,
      "hit": false,
      "t": 148888.73999999987,
      "d": 1111.109999999986,
      "v": 70
    },
    {
      "midi": 91,
      "hit": false,
      "t": 149406.679296875,
      "d": 118.63414062501397,
      "v": 67
    },
    {
      "midi": 55,
      "hit": false,
      "t": 149444.2949999993,
      "d": 555.554999999993,
      "v": 40
    },
    {
      "midi": 60,
      "hit": false,
      "t": 149444.2949999993,
      "d": 555.554999999993,
      "v": 46
    },
    {
      "midi": 64,
      "hit": false,
      "t": 149444.2949999993,
      "d": 555.554999999993,
      "v": 56
    },
    {
      "midi": 91,
      "hit": false,
      "t": 149953.55375000002,
      "d": 133.1017187499965,
      "v": 55
    },
    {
      "midi": 43,
      "hit": false,
      "t": 149999.8499999993,
      "d": 1111.109999999986,
      "v": 55
    },
    {
      "midi": 31,
      "hit": false,
      "t": 149999.84999999986,
      "d": 1111.109999999986,
      "v": 70
    },
    {
      "midi": 55,
      "hit": false,
      "t": 150303.6691406249,
      "d": 303.81914062501164,
      "v": 62
    },
    {
      "midi": 91,
      "hit": false,
      "t": 150497.5346875,
      "d": 208.33312500000466,
      "v": 48
    },
    {
      "midi": 67,
      "hit": false,
      "t": 150535.1503906249,
      "d": 211.2266406250128,
      "v": 79
    },
    {
      "midi": 55,
      "hit": false,
      "t": 150555.4049999993,
      "d": 555.554999999993,
      "v": 42
    },
    {
      "midi": 60,
      "hit": false,
      "t": 150555.4049999993,
      "d": 555.554999999993,
      "v": 45
    },
    {
      "midi": 64,
      "hit": false,
      "t": 150555.4049999993,
      "d": 555.554999999993,
      "v": 57
    },
    {
      "midi": 90,
      "hit": false,
      "t": 150656.67804687502,
      "d": 150.4628124999872,
      "v": 30
    },
    {
      "midi": 66,
      "hit": false,
      "t": 150679.8261718749,
      "d": 170.71742187501513,
      "v": 64
    },
    {
      "midi": 89,
      "hit": false,
      "t": 150755.057578125,
      "d": 159.14335937498254,
      "v": 42
    },
    {
      "midi": 65,
      "hit": false,
      "t": 150798.46031249993,
      "d": 141.78226562499185,
      "v": 64
    },
    {
      "midi": 88,
      "hit": false,
      "t": 150876.585234375,
      "d": 222.8007031249872,
      "v": 38
    },
    {
      "midi": 64,
      "hit": false,
      "t": 150902.62687499993,
      "d": 217.0136718749709,
      "v": 56
    },
    {
      "midi": 87,
      "hit": false,
      "t": 151041.515625,
      "d": 3260.992109374987,
      "v": 36
    },
    {
      "midi": 63,
      "hit": false,
      "t": 151070.4507812499,
      "d": 2890.622109374992,
      "v": 58
    },
    {
      "midi": 48,
      "hit": false,
      "t": 151110.9599999993,
      "d": 1111.109999999986,
      "v": 55
    },
    {
      "midi": 36,
      "hit": false,
      "t": 151110.95999999985,
      "d": 1111.109999999986,
      "v": 70
    },
    {
      "midi": 55,
      "hit": false,
      "t": 151666.5149999993,
      "d": 555.554999999993,
      "v": 45
    },
    {
      "midi": 60,
      "hit": false,
      "t": 151666.5149999993,
      "d": 555.554999999993,
      "v": 46
    },
    {
      "midi": 63,
      "hit": false,
      "t": 151666.5149999993,
      "d": 555.554999999993,
      "v": 34
    },
    {
      "midi": 43,
      "hit": false,
      "t": 152222.06999999928,
      "d": 1111.109999999986,
      "v": 52
    },
    {
      "midi": 31,
      "hit": false,
      "t": 152222.06999999983,
      "d": 1111.109999999986,
      "v": 72
    },
    {
      "midi": 55,
      "hit": false,
      "t": 152777.62499999927,
      "d": 555.554999999993,
      "v": 35
    },
    {
      "midi": 60,
      "hit": false,
      "t": 152777.62499999927,
      "d": 555.554999999993,
      "v": 47
    },
    {
      "midi": 63,
      "hit": false,
      "t": 152777.62499999927,
      "d": 555.554999999993,
      "v": 31
    },
    {
      "midi": 48,
      "hit": false,
      "t": 153333.17999999927,
      "d": 1111.109999999986,
      "v": 55
    },
    {
      "midi": 36,
      "hit": false,
      "t": 153333.17999999982,
      "d": 1111.109999999986,
      "v": 70
    },
    {
      "midi": 55,
      "hit": false,
      "t": 153888.73499999926,
      "d": 555.554999999993,
      "v": 42
    },
    {
      "midi": 60,
      "hit": false,
      "t": 153888.73499999926,
      "d": 555.554999999993,
      "v": 51
    },
    {
      "midi": 63,
      "hit": false,
      "t": 153888.73499999926,
      "d": 555.554999999993,
      "v": 43
    },
    {
      "midi": 67,
      "hit": false,
      "t": 154204.12820312503,
      "d": 225.69421874999534,
      "v": 62
    },
    {
      "midi": 43,
      "hit": false,
      "t": 154444.28999999925,
      "d": 1111.109999999986,
      "v": 56
    },
    {
      "midi": 31,
      "hit": false,
      "t": 154444.2899999998,
      "d": 1111.109999999986,
      "v": 72
    },
    {
      "midi": 75,
      "hit": false,
      "t": 154467.43812500002,
      "d": 274.88398437498836,
      "v": 60
    },
    {
      "midi": 75,
      "hit": false,
      "t": 154814.66,
      "d": 153.35632812499534,
      "v": 64
    },
    {
      "midi": 55,
      "hit": false,
      "t": 154999.84499999924,
      "d": 555.554999999993,
      "v": 43
    },
    {
      "midi": 60,
      "hit": false,
      "t": 154999.84499999924,
      "d": 555.554999999993,
      "v": 47
    },
    {
      "midi": 63,
      "hit": false,
      "t": 154999.84499999924,
      "d": 555.554999999993,
      "v": 40
    },
    {
      "midi": 74,
      "hit": false,
      "t": 155002.738515625,
      "d": 190.97203125001397,
      "v": 57
    },
    {
      "midi": 74,
      "hit": false,
      "t": 155260.26140625004,
      "d": 147.56929687500815,
      "v": 58
    },
    {
      "midi": 72,
      "hit": false,
      "t": 155442.55289062505,
      "d": 355.9024218750128,
      "v": 55
    },
    {
      "midi": 48,
      "hit": false,
      "t": 155555.39999999924,
      "d": 1111.109999999986,
      "v": 51
    },
    {
      "midi": 36,
      "hit": false,
      "t": 155555.3999999998,
      "d": 1111.109999999986,
      "v": 72
    },
    {
      "midi": 72,
      "hit": false,
      "t": 155882.36726562507,
      "d": 245.94882812499418,
      "v": 52
    },
    {
      "midi": 63,
      "hit": false,
      "t": 156102.274453125,
      "d": 520.8328125000116,
      "v": 45
    },
    {
      "midi": 55,
      "hit": false,
      "t": 156110.95499999923,
      "d": 555.554999999993,
      "v": 45
    },
    {
      "midi": 60,
      "hit": false,
      "t": 156110.95499999923,
      "d": 555.554999999993,
      "v": 51
    },
    {
      "midi": 63,
      "hit": false,
      "t": 156110.95499999923,
      "d": 555.554999999993,
      "v": 41
    },
    {
      "midi": 67,
      "hit": false,
      "t": 156110.955,
      "d": 572.9160937500128,
      "v": 63
    },
    {
      "midi": 67,
      "hit": false,
      "t": 156472.64445312507,
      "d": 159.14335937501164,
      "v": 46
    },
    {
      "midi": 62,
      "hit": false,
      "t": 156599.959140625,
      "d": 570.0225781250047,
      "v": 51
    },
    {
      "midi": 65,
      "hit": false,
      "t": 156628.894296875,
      "d": 593.1707031250116,
      "v": 50
    },
    {
      "midi": 43,
      "hit": false,
      "t": 156666.50999999922,
      "d": 1111.109999999986,
      "v": 55
    },
    {
      "midi": 31,
      "hit": false,
      "t": 156666.50999999978,
      "d": 1111.109999999986,
      "v": 72
    },
    {
      "midi": 75,
      "hit": false,
      "t": 156680.97757812508,
      "d": 219.90718750000815,
      "v": 45
    },
    {
      "midi": 75,
      "hit": false,
      "t": 156996.3707812501,
      "d": 162.0368749999907,
      "v": 50
    },
    {
      "midi": 60,
      "hit": false,
      "t": 157161.301171875,
      "d": 243.05531250001513,
      "v": 42
    },
    {
      "midi": 63,
      "hit": false,
      "t": 157164.1946875,
      "d": 193.86554687499302,
      "v": 46
    },
    {
      "midi": 55,
      "hit": false,
      "t": 157222.06499999922,
      "d": 555.554999999993,
      "v": 42
    },
    {
      "midi": 60,
      "hit": false,
      "t": 157222.06499999922,
      "d": 555.554999999993,
      "v": 48
    },
    {
      "midi": 63,
      "hit": false,
      "t": 157222.06499999922,
      "d": 555.554999999993,
      "v": 34
    },
    {
      "midi": 74,
      "hit": false,
      "t": 157222.0650000001,
      "d": 115.74062500000582,
      "v": 45
    },
    {
      "midi": 74,
      "hit": false,
      "t": 157415.93054687508,
      "d": 115.74062500000582,
      "v": 56
    },
    {
      "midi": 72,
      "hit": false,
      "t": 157580.86093750008,
      "d": 425.34679687500466,
      "v": 48
    },
    {
      "midi": 48,
      "hit": false,
      "t": 157777.6199999992,
      "d": 1111.109999999986,
      "v": 46
    },
    {
      "midi": 36,
      "hit": false,
      "t": 157777.61999999976,
      "d": 1111.109999999986,
      "v": 74
    },
    {
      "midi": 72,
      "hit": false,
      "t": 158081.4391406251,
      "d": 214.12015624999185,
      "v": 53
    },
    {
      "midi": 67,
      "hit": false,
      "t": 158298.4528125,
      "d": 572.9160937499837,
      "v": 51
    },
    {
      "midi": 63,
      "hit": false,
      "t": 158304.23984375,
      "d": 549.7679687500058,
      "v": 47
    },
    {
      "midi": 55,
      "hit": false,
      "t": 158333.1749999992,
      "d": 555.554999999993,
      "v": 42
    },
    {
      "midi": 60,
      "hit": false,
      "t": 158333.1749999992,
      "d": 555.554999999993,
      "v": 43
    },
    {
      "midi": 63,
      "hit": false,
      "t": 158333.1749999992,
      "d": 555.554999999993,
      "v": 33
    },
    {
      "midi": 67,
      "hit": false,
      "t": 158663.03578125007,
      "d": 188.07851562500582,
      "v": 47
    },
    {
      "midi": 65,
      "hit": false,
      "t": 158819.285625,
      "d": 596.0642187499907,
      "v": 57
    },
    {
      "midi": 62,
      "hit": false,
      "t": 158851.114296875,
      "d": 512.1522656249872,
      "v": 56
    },
    {
      "midi": 75,
      "hit": false,
      "t": 158880.04945312507,
      "d": 243.05531249998603,
      "v": 52
    },
    {
      "midi": 43,
      "hit": false,
      "t": 158888.7299999992,
      "d": 1111.109999999986,
      "v": 53
    },
    {
      "midi": 31,
      "hit": false,
      "t": 158888.72999999975,
      "d": 1111.109999999986,
      "v": 72
    },
    {
      "midi": 75,
      "hit": false,
      "t": 159215.69726562506,
      "d": 133.1017187499965,
      "v": 48
    },
    {
      "midi": 60,
      "hit": false,
      "t": 159357.47953125,
      "d": 274.88398437498836,
      "v": 47
    },
    {
      "midi": 63,
      "hit": false,
      "t": 159363.26656249998,
      "d": 234.3747656249907,
      "v": 48
    },
    {
      "midi": 74,
      "hit": false,
      "t": 159418.24335937505,
      "d": 95.48601562500698,
      "v": 43
    },
    {
      "midi": 55,
      "hit": false,
      "t": 159444.2849999992,
      "d": 555.554999999993,
      "v": 42
    },
    {
      "midi": 60,
      "hit": false,
      "t": 159444.2849999992,
      "d": 555.554999999993,
      "v": 56
    },
    {
      "midi": 63,
      "hit": false,
      "t": 159444.2849999992,
      "d": 555.554999999993,
      "v": 41
    },
    {
      "midi": 74,
      "hit": false,
      "t": 159597.64132812506,
      "d": 115.74062500000582,
      "v": 45
    },
    {
      "midi": 72,
      "hit": false,
      "t": 159791.50687500005,
      "d": 384.837578125007,
      "v": 58
    },
    {
      "midi": 48,
      "hit": false,
      "t": 159999.83999999918,
      "d": 1111.109999999986,
      "v": 42
    },
    {
      "midi": 36,
      "hit": false,
      "t": 159999.83999999973,
      "d": 1111.109999999986,
      "v": 72
    },
    {
      "midi": 72,
      "hit": false,
      "t": 160286.29804687505,
      "d": 193.86554687499302,
      "v": 53
    },
    {
      "midi": 79,
      "hit": false,
      "t": 160509.09875000003,
      "d": 231.48125000001164,
      "v": 58
    },
    {
      "midi": 67,
      "hit": false,
      "t": 160523.566328125,
      "d": 546.8744531249977,
      "v": 52
    },
    {
      "midi": 63,
      "hit": false,
      "t": 160535.140390625,
      "d": 564.2355468749884,
      "v": 46
    },
    {
      "midi": 55,
      "hit": false,
      "t": 160555.39499999917,
      "d": 555.554999999993,
      "v": 43
    },
    {
      "midi": 60,
      "hit": false,
      "t": 160555.39499999917,
      "d": 555.554999999993,
      "v": 53
    },
    {
      "midi": 63,
      "hit": false,
      "t": 160555.39499999917,
      "d": 555.554999999993,
      "v": 41
    },
    {
      "midi": 79,
      "hit": false,
      "t": 160833.17250000004,
      "d": 173.61093749999418,
      "v": 58
    },
    {
      "midi": 65,
      "hit": false,
      "t": 161018.35749999998,
      "d": 616.3188281249895,
      "v": 55
    },
    {
      "midi": 62,
      "hit": false,
      "t": 161061.760234375,
      "d": 503.47171874999185,
      "v": 55
    },
    {
      "midi": 77,
      "hit": false,
      "t": 161096.48242187503,
      "d": 199.6525781250093,
      "v": 48
    },
    {
      "midi": 43,
      "hit": false,
      "t": 161110.94999999917,
      "d": 833.3324999999895,
      "v": 57
    },
    {
      "midi": 31,
      "hit": false,
      "t": 161110.94999999972,
      "d": 972.2212500000023,
      "v": 76
    },
    {
      "midi": 77,
      "hit": false,
      "t": 161403.19507812505,
      "d": 159.14335937501164,
      "v": 43
    },
    {
      "midi": 63,
      "hit": false,
      "t": 161579.69953125,
      "d": 237.26828124999884,
      "v": 51
    },
    {
      "midi": 60,
      "hit": false,
      "t": 161585.48656249998,
      "d": 217.013671875,
      "v": 41
    },
    {
      "midi": 75,
      "hit": false,
      "t": 161637.56984375007,
      "d": 193.86554687499302,
      "v": 42
    },
    {
      "midi": 55,
      "hit": false,
      "t": 161666.50499999916,
      "d": 555.554999999993,
      "v": 40
    },
    {
      "midi": 60,
      "hit": false,
      "t": 161666.50499999916,
      "d": 555.554999999993,
      "v": 43
    },
    {
      "midi": 63,
      "hit": false,
      "t": 161666.50499999916,
      "d": 555.554999999993,
      "v": 45
    },
    {
      "midi": 75,
      "hit": false,
      "t": 161950.06953125008,
      "d": 225.69421874999534,
      "v": 45
    },
    {
      "midi": 74,
      "hit": false,
      "t": 162201.80539062506,
      "d": 402.1986718749977,
      "v": 51
    },
    {
      "midi": 43,
      "hit": false,
      "t": 162222.05999999915,
      "d": 1111.109999999986,
      "v": 55
    },
    {
      "midi": 31,
      "hit": false,
      "t": 162222.05999999974,
      "d": 1111.109999999986,
      "v": 74
    },
    {
      "midi": 59,
      "hit": false,
      "t": 162716.851171875,
      "d": 575.809609375021,
      "v": 35
    },
    {
      "midi": 62,
      "hit": false,
      "t": 162719.7446875,
      "d": 627.892890624993,
      "v": 48
    },
    {
      "midi": 65,
      "hit": false,
      "t": 162754.466875,
      "d": 601.8512499999779,
      "v": 63
    },
    {
      "midi": 55,
      "hit": false,
      "t": 162777.61499999915,
      "d": 555.554999999993,
      "v": 38
    },
    {
      "midi": 62,
      "hit": false,
      "t": 162777.61499999915,
      "d": 555.554999999993,
      "v": 47
    },
    {
      "midi": 65,
      "hit": false,
      "t": 162777.61499999915,
      "d": 555.554999999993,
      "v": 53
    },
    {
      "midi": 67,
      "hit": false,
      "t": 163075.64710937504,
      "d": 219.90718750000815,
      "v": 63
    },
    {
      "midi": 57,
      "hit": false,
      "t": 163281.08671875,
      "d": 555.5549999999639,
      "v": 50
    },
    {
      "midi": 60,
      "hit": false,
      "t": 163295.55429687502,
      "d": 593.1707031249243,
      "v": 56
    },
    {
      "midi": 63,
      "hit": false,
      "t": 163321.5959375,
      "d": 581.5966406249499,
      "v": 47
    },
    {
      "midi": 50,
      "hit": false,
      "t": 163333.16999999914,
      "d": 1111.109999999986,
      "v": 55
    },
    {
      "midi": 38,
      "hit": false,
      "t": 163333.16999999972,
      "d": 1111.109999999986,
      "v": 72
    },
    {
      "midi": 74,
      "hit": false,
      "t": 163341.85054687507,
      "d": 217.013671875,
      "v": 66
    },
    {
      "midi": 74,
      "hit": false,
      "t": 163657.24375000005,
      "d": 150.4628124999872,
      "v": 58
    },
    {
      "midi": 59,
      "hit": false,
      "t": 163830.8546875,
      "d": 240.16179687497788,
      "v": 48
    },
    {
      "midi": 55,
      "hit": false,
      "t": 163842.42874999996,
      "d": 231.48125000001164,
      "v": 42
    },
    {
      "midi": 62,
      "hit": false,
      "t": 163862.68335937496,
      "d": 240.16179687500698,
      "v": 55
    },
    {
      "midi": 55,
      "hit": false,
      "t": 163888.72499999913,
      "d": 555.554999999993,
      "v": 37
    },
    {
      "midi": 62,
      "hit": false,
      "t": 163888.72499999913,
      "d": 555.554999999993,
      "v": 46
    },
    {
      "midi": 65,
      "hit": false,
      "t": 163888.72499999913,
      "d": 555.554999999993,
      "v": 52
    },
    {
      "midi": 72,
      "hit": false,
      "t": 163891.61851562504,
      "d": 135.99523437500466,
      "v": 58
    },
    {
      "midi": 72,
      "hit": false,
      "t": 164125.99328125003,
      "d": 112.84710937499767,
      "v": 53
    },
    {
      "midi": 71,
      "hit": false,
      "t": 164290.92367187503,
      "d": 353.00890625000466,
      "v": 57
    },
    {
      "midi": 43,
      "hit": false,
      "t": 164444.27999999913,
      "d": 972.2212500000023,
      "v": 56
    },
    {
      "midi": 31,
      "hit": false,
      "t": 164444.2799999997,
      "d": 1111.109999999986,
      "v": 74
    },
    {
      "midi": 71,
      "hit": false,
      "t": 164742.31210937502,
      "d": 248.84234375000233,
      "v": 52
    },
    {
      "midi": 62,
      "hit": false,
      "t": 164970.89984374997,
      "d": 619.2123437499686,
      "v": 62
    },
    {
      "midi": 59,
      "hit": false,
      "t": 164976.68687499996,
      "d": 575.8096093749919,
      "v": 45
    },
    {
      "midi": 55,
      "hit": false,
      "t": 164999.83499999912,
      "d": 555.5550000000221,
      "v": 31
    },
    {
      "midi": 62,
      "hit": false,
      "t": 164999.83499999912,
      "d": 555.5550000000221,
      "v": 43
    },
    {
      "midi": 65,
      "hit": false,
      "t": 164999.83499999912,
      "d": 555.5550000000221,
      "v": 51
    },
    {
      "midi": 65,
      "hit": false,
      "t": 164999.83499999996,
      "d": 526.6198437499988,
      "v": 47
    },
    {
      "midi": 67,
      "hit": false,
      "t": 165289.18656250002,
      "d": 214.12015624999185,
      "v": 57
    },
    {
      "midi": 63,
      "hit": false,
      "t": 165506.20023437496,
      "d": 587.3836718749953,
      "v": 42
    },
    {
      "midi": 74,
      "hit": false,
      "t": 165523.561328125,
      "d": 202.54609374998836,
      "v": 63
    },
    {
      "midi": 60,
      "hit": false,
      "t": 165532.24187499995,
      "d": 549.7679687500058,
      "v": 63
    },
    {
      "midi": 57,
      "hit": false,
      "t": 165538.02890624994,
      "d": 489.0041406250093,
      "v": 53
    },
    {
      "midi": 50,
      "hit": false,
      "t": 165555.38999999914,
      "d": 1111.109999999986,
      "v": 52
    },
    {
      "midi": 38,
      "hit": false,
      "t": 165555.3899999997,
      "d": 1111.109999999986,
      "v": 74
    },
    {
      "midi": 74,
      "hit": false,
      "t": 165833.1675,
      "d": 130.20820312498836,
      "v": 55
    },
    {
      "midi": 59,
      "hit": false,
      "t": 166029.92656249995,
      "d": 263.30992187498487,
      "v": 55
    },
    {
      "midi": 55,
      "hit": false,
      "t": 166032.82007812496,
      "d": 254.62937499998952,
      "v": 46
    },
    {
      "midi": 62,
      "hit": false,
      "t": 166038.60710937495,
      "d": 260.4164062499767,
      "v": 55
    },
    {
      "midi": 72,
      "hit": false,
      "t": 166055.968203125,
      "d": 81.01843749999534,
      "v": 57
    },
    {
      "midi": 55,
      "hit": false,
      "t": 166110.94499999913,
      "d": 555.554999999993,
      "v": 41
    },
    {
      "midi": 62,
      "hit": false,
      "t": 166110.94499999913,
      "d": 555.554999999993,
      "v": 46
    },
    {
      "midi": 65,
      "hit": false,
      "t": 166110.94499999913,
      "d": 555.554999999993,
      "v": 55
    },
    {
      "midi": 72,
      "hit": false,
      "t": 166226.68562499998,
      "d": 101.27304687499418,
      "v": 52
    },
    {
      "midi": 71,
      "hit": false,
      "t": 166414.764140625,
      "d": 416.6662500000093,
      "v": 55
    },
    {
      "midi": 43,
      "hit": false,
      "t": 166666.49999999913,
      "d": 1111.109999999986,
      "v": 57
    },
    {
      "midi": 31,
      "hit": false,
      "t": 166666.49999999968,
      "d": 1111.109999999986,
      "v": 78
    },
    {
      "midi": 71,
      "hit": false,
      "t": 166932.7034375,
      "d": 196.75906250000116,
      "v": 51
    },
    {
      "midi": 62,
      "hit": false,
      "t": 167196.01335937492,
      "d": 610.5317968750605,
      "v": 55
    },
    {
      "midi": 59,
      "hit": false,
      "t": 167198.90687499993,
      "d": 581.5966406250373,
      "v": 46
    },
    {
      "midi": 65,
      "hit": false,
      "t": 167213.37445312494,
      "d": 578.7031250000291,
      "v": 55
    },
    {
      "midi": 55,
      "hit": false,
      "t": 167222.05499999912,
      "d": 555.554999999993,
      "v": 41
    },
    {
      "midi": 62,
      "hit": false,
      "t": 167222.05499999912,
      "d": 555.554999999993,
      "v": 46
    },
    {
      "midi": 65,
      "hit": false,
      "t": 167222.05499999912,
      "d": 555.554999999993,
      "v": 53
    },
    {
      "midi": 67,
      "hit": false,
      "t": 167531.661171875,
      "d": 173.61093749999418,
      "v": 46
    },
    {
      "midi": 60,
      "hit": false,
      "t": 167754.46187499995,
      "d": 564.2355468750175,
      "v": 62
    },
    {
      "midi": 57,
      "hit": false,
      "t": 167757.35539062496,
      "d": 523.7263281250198,
      "v": 56
    },
    {
      "midi": 74,
      "hit": false,
      "t": 167760.24890625,
      "d": 188.07851562500582,
      "v": 57
    },
    {
      "midi": 63,
      "hit": false,
      "t": 167766.03593749995,
      "d": 590.2771875000035,
      "v": 55
    },
    {
      "midi": 50,
      "hit": false,
      "t": 167777.6099999991,
      "d": 1111.109999999986,
      "v": 55
    },
    {
      "midi": 38,
      "hit": false,
      "t": 167777.60999999967,
      "d": 1111.109999999986,
      "v": 76
    },
    {
      "midi": 74,
      "hit": false,
      "t": 168072.74859375,
      "d": 147.56929687500815,
      "v": 53
    },
    {
      "midi": 59,
      "hit": false,
      "t": 168263.720625,
      "d": 245.94882812496508,
      "v": 58
    },
    {
      "midi": 55,
      "hit": false,
      "t": 168272.40117187498,
      "d": 219.90718749997905,
      "v": 45
    },
    {
      "midi": 72,
      "hit": false,
      "t": 168286.86875000002,
      "d": 127.31468750000931,
      "v": 61
    },
    {
      "midi": 62,
      "hit": false,
      "t": 168310.01687499997,
      "d": 211.2266406249837,
      "v": 58
    },
    {
      "midi": 55,
      "hit": false,
      "t": 168333.1649999991,
      "d": 555.554999999993,
      "v": 42
    },
    {
      "midi": 62,
      "hit": false,
      "t": 168333.1649999991,
      "d": 555.554999999993,
      "v": 41
    },
    {
      "midi": 65,
      "hit": false,
      "t": 168333.1649999991,
      "d": 555.554999999993,
      "v": 50
    },
    {
      "midi": 72,
      "hit": false,
      "t": 168477.84078125004,
      "d": 138.8887500000128,
      "v": 47
    },
    {
      "midi": 71,
      "hit": false,
      "t": 168663.02578125006,
      "d": 347.22187499998836,
      "v": 64
    },
    {
      "midi": 43,
      "hit": false,
      "t": 168888.7199999991,
      "d": 1111.109999999986,
      "v": 58
    },
    {
      "midi": 31,
      "hit": false,
      "t": 168888.71999999965,
      "d": 1111.109999999986,
      "v": 76
    },
    {
      "midi": 71,
      "hit": false,
      "t": 169131.77531250005,
      "d": 283.5645312500128,
      "v": 41
    },
    {
      "midi": 62,
      "hit": false,
      "t": 169432.70093749996,
      "d": 558.4485156249721,
      "v": 52
    },
    {
      "midi": 59,
      "hit": false,
      "t": 169438.48796874995,
      "d": 512.1522656250163,
      "v": 37
    },
    {
      "midi": 65,
      "hit": false,
      "t": 169441.38148437496,
      "d": 543.9809374999895,
      "v": 48
    },
    {
      "midi": 55,
      "hit": false,
      "t": 169444.2749999991,
      "d": 555.554999999993,
      "v": 37
    },
    {
      "midi": 62,
      "hit": false,
      "t": 169444.2749999991,
      "d": 555.554999999993,
      "v": 41
    },
    {
      "midi": 65,
      "hit": false,
      "t": 169444.2749999991,
      "d": 555.554999999993,
      "v": 55
    },
    {
      "midi": 77,
      "hit": false,
      "t": 169484.78421875005,
      "d": 115.74062500000582,
      "v": 51
    },
    {
      "midi": 77,
      "hit": false,
      "t": 169687.33031250007,
      "d": 127.31468750000931,
      "v": 53
    },
    {
      "midi": 75,
      "hit": false,
      "t": 169858.04773437508,
      "d": 350.1153906249965,
      "v": 64
    },
    {
      "midi": 57,
      "hit": false,
      "t": 169927.49210937496,
      "d": 543.9809374999895,
      "v": 46
    },
    {
      "midi": 60,
      "hit": false,
      "t": 169939.06617187496,
      "d": 587.3836718749953,
      "v": 56
    },
    {
      "midi": 63,
      "hit": false,
      "t": 169959.32078124996,
      "d": 578.703125,
      "v": 45
    },
    {
      "midi": 50,
      "hit": false,
      "t": 169999.82999999908,
      "d": 972.2212500000023,
      "v": 51
    },
    {
      "midi": 38,
      "hit": false,
      "t": 169999.82999999964,
      "d": 1111.109999999986,
      "v": 78
    },
    {
      "midi": 75,
      "hit": false,
      "t": 170286.28804687507,
      "d": 170.71742187498603,
      "v": 46
    },
    {
      "midi": 55,
      "hit": false,
      "t": 170471.47304687495,
      "d": 567.1290625000256,
      "v": 55
    },
    {
      "midi": 59,
      "hit": false,
      "t": 170477.26007812493,
      "d": 601.8512500000361,
      "v": 56
    },
    {
      "midi": 62,
      "hit": false,
      "t": 170511.98226562495,
      "d": 590.2771875000326,
      "v": 58
    },
    {
      "midi": 55,
      "hit": false,
      "t": 170555.38499999908,
      "d": 416.6662500000093,
      "v": 36
    },
    {
      "midi": 62,
      "hit": false,
      "t": 170555.38499999908,
      "d": 416.6662500000093,
      "v": 43
    },
    {
      "midi": 65,
      "hit": false,
      "t": 170555.38499999908,
      "d": 416.6662500000093,
      "v": 55
    },
    {
      "midi": 77,
      "hit": false,
      "t": 170581.42664062505,
      "d": 101.27304687499418,
      "v": 53
    },
    {
      "midi": 77,
      "hit": false,
      "t": 170755.03757812505,
      "d": 144.67578125,
      "v": 52
    },
    {
      "midi": 79,
      "hit": false,
      "t": 170911.28742187505,
      "d": 269.09695312500116,
      "v": 64
    },
    {
      "midi": 63,
      "hit": false,
      "t": 171058.85671874997,
      "d": 237.26828124999884,
      "v": 61
    },
    {
      "midi": 60,
      "hit": false,
      "t": 171058.85671874997,
      "d": 245.94882812499418,
      "v": 55
    },
    {
      "midi": 63,
      "hit": false,
      "t": 171110.9399999991,
      "d": 138.8887500000128,
      "v": 47
    },
    {
      "midi": 48,
      "hit": false,
      "t": 171110.9399999991,
      "d": 277.7775000000256,
      "v": 51
    },
    {
      "midi": 60,
      "hit": false,
      "t": 171110.9399999991,
      "d": 277.7775000000256,
      "v": 56
    },
    {
      "midi": 36,
      "hit": false,
      "t": 171110.93999999962,
      "d": 277.7774999999965,
      "v": 76
    },
    {
      "midi": 67,
      "hit": false,
      "t": 171964.52710937505,
      "d": 260.4164062500058,
      "v": 57
    },
    {
      "midi": 75,
      "hit": false,
      "t": 172224.94351562505,
      "d": 260.4164062500058,
      "v": 60
    },
    {
      "midi": 75,
      "hit": false,
      "t": 172575.05890625005,
      "d": 164.93039062499884,
      "v": 56
    },
    {
      "midi": 74,
      "hit": false,
      "t": 172780.49851562505,
      "d": 153.35632812499534,
      "v": 55
    },
    {
      "midi": 74,
      "hit": false,
      "t": 173009.08625000005,
      "d": 138.8887500000128,
      "v": 57
    },
    {
      "midi": 72,
      "hit": false,
      "t": 173174.01664062505,
      "d": 457.175468750007,
      "v": 48
    },
    {
      "midi": 60,
      "hit": false,
      "t": 173272.3961718749,
      "d": 1145.8321874999674,
      "v": 61
    },
    {
      "midi": 63,
      "hit": false,
      "t": 173281.0767187499,
      "d": 1148.7257031249756,
      "v": 71
    },
    {
      "midi": 48,
      "hit": false,
      "t": 173333.15999999913,
      "d": 1111.109999999986,
      "v": 52
    },
    {
      "midi": 36,
      "hit": false,
      "t": 173333.15999999963,
      "d": 1111.109999999986,
      "v": 76
    },
    {
      "midi": 72,
      "hit": false,
      "t": 173694.84945312506,
      "d": 153.35632812499534,
      "v": 48
    },
    {
      "midi": 55,
      "hit": false,
      "t": 173888.71499999912,
      "d": 555.554999999993,
      "v": 45
    },
    {
      "midi": 60,
      "hit": false,
      "t": 173888.71499999912,
      "d": 555.554999999993,
      "v": 52
    },
    {
      "midi": 63,
      "hit": false,
      "t": 173888.71499999912,
      "d": 555.554999999993,
      "v": 41
    },
    {
      "midi": 67,
      "hit": false,
      "t": 174227.25632812505,
      "d": 208.33312500000466,
      "v": 57
    },
    {
      "midi": 65,
      "hit": false,
      "t": 174383.50617187488,
      "d": 1116.8970312499732,
      "v": 64
    },
    {
      "midi": 62,
      "hit": false,
      "t": 174389.29320312486,
      "d": 1114.0035156249942,
      "v": 58
    },
    {
      "midi": 43,
      "hit": false,
      "t": 174444.26999999912,
      "d": 1111.109999999986,
      "v": 56
    },
    {
      "midi": 31,
      "hit": false,
      "t": 174444.2699999996,
      "d": 1111.109999999986,
      "v": 76
    },
    {
      "midi": 75,
      "hit": false,
      "t": 174464.52460937505,
      "d": 240.16179687500698,
      "v": 35
    },
    {
      "midi": 75,
      "hit": false,
      "t": 174779.91781250006,
      "d": 156.2498437500035,
      "v": 55
    },
    {
      "midi": 74,
      "hit": false,
      "t": 174979.57039062507,
      "d": 107.06007812501048,
      "v": 53
    },
    {
      "midi": 55,
      "hit": false,
      "t": 174999.8249999991,
      "d": 555.554999999993,
      "v": 40
    },
    {
      "midi": 60,
      "hit": false,
      "t": 174999.8249999991,
      "d": 555.554999999993,
      "v": 42
    },
    {
      "midi": 63,
      "hit": false,
      "t": 174999.8249999991,
      "d": 555.554999999993,
      "v": 41
    },
    {
      "midi": 74,
      "hit": false,
      "t": 175164.75539062507,
      "d": 112.84710937499767,
      "v": 47
    },
    {
      "midi": 72,
      "hit": false,
      "t": 175361.51445312507,
      "d": 468.7495312500105,
      "v": 45
    },
    {
      "midi": 63,
      "hit": false,
      "t": 175448.31992187485,
      "d": 2039.9285156250116,
      "v": 52
    },
    {
      "midi": 67,
      "hit": false,
      "t": 175454.10695312484,
      "d": 2340.854140625015,
      "v": 55
    },
    {
      "midi": 48,
      "hit": false,
      "t": 175555.3799999991,
      "d": 1111.109999999986,
      "v": 52
    },
    {
      "midi": 36,
      "hit": false,
      "t": 175555.3799999996,
      "d": 1111.109999999986,
      "v": 76
    },
    {
      "midi": 72,
      "hit": false,
      "t": 175893.92132812508,
      "d": 167.82390625000698,
      "v": 55
    },
    {
      "midi": 55,
      "hit": false,
      "t": 176110.9349999991,
      "d": 555.554999999993,
      "v": 36
    },
    {
      "midi": 60,
      "hit": false,
      "t": 176110.9349999991,
      "d": 555.554999999993,
      "v": 43
    },
    {
      "midi": 63,
      "hit": false,
      "t": 176110.9349999991,
      "d": 555.554999999993,
      "v": 41
    },
    {
      "midi": 67,
      "hit": false,
      "t": 176440.79578125008,
      "d": 196.75906250000116,
      "v": 50
    },
    {
      "midi": 43,
      "hit": false,
      "t": 176666.4899999991,
      "d": 1111.109999999986,
      "v": 53
    },
    {
      "midi": 31,
      "hit": false,
      "t": 176666.48999999958,
      "d": 1111.109999999986,
      "v": 72
    },
    {
      "midi": 75,
      "hit": false,
      "t": 176680.9575781251,
      "d": 243.05531249998603,
      "v": 53
    },
    {
      "midi": 75,
      "hit": false,
      "t": 177022.39242187506,
      "d": 135.99523437500466,
      "v": 57
    },
    {
      "midi": 55,
      "hit": false,
      "t": 177222.04499999908,
      "d": 555.554999999993,
      "v": 42
    },
    {
      "midi": 60,
      "hit": false,
      "t": 177222.04499999908,
      "d": 555.554999999993,
      "v": 43
    },
    {
      "midi": 63,
      "hit": false,
      "t": 177222.04499999908,
      "d": 555.554999999993,
      "v": 41
    },
    {
      "midi": 74,
      "hit": false,
      "t": 177227.83203125006,
      "d": 98.37953124998603,
      "v": 53
    },
    {
      "midi": 74,
      "hit": false,
      "t": 177404.33648437503,
      "d": 109.95359374998952,
      "v": 55
    },
    {
      "midi": 72,
      "hit": false,
      "t": 177586.62796875002,
      "d": 434.02734375,
      "v": 57
    },
    {
      "midi": 64,
      "hit": false,
      "t": 177766.02593749986,
      "d": 1105.3229687499988,
      "v": 64
    },
    {
      "midi": 60,
      "hit": false,
      "t": 177768.91945312486,
      "d": 2161.4561718750047,
      "v": 66
    },
    {
      "midi": 48,
      "hit": false,
      "t": 177777.59999999907,
      "d": 833.3324999999895,
      "v": 52
    },
    {
      "midi": 36,
      "hit": false,
      "t": 177777.59999999957,
      "d": 1111.109999999986,
      "v": 74
    },
    {
      "midi": 72,
      "hit": false,
      "t": 178101.67375000002,
      "d": 107.06007812501048,
      "v": 48
    },
    {
      "midi": 72,
      "hit": false,
      "t": 178315.79390625004,
      "d": 89.69898437499069,
      "v": 51
    },
    {
      "midi": 60,
      "hit": false,
      "t": 178333.15499999907,
      "d": 833.3324999999895,
      "v": 42
    },
    {
      "midi": 64,
      "hit": false,
      "t": 178333.15499999907,
      "d": 833.3324999999895,
      "v": 51
    },
    {
      "midi": 55,
      "hit": false,
      "t": 178333.15499999907,
      "d": 972.2212500000023,
      "v": 40
    },
    {
      "midi": 72,
      "hit": false,
      "t": 178498.08539062503,
      "d": 150.4628124999872,
      "v": 52
    },
    {
      "midi": 76,
      "hit": false,
      "t": 178703.52500000002,
      "d": 434.02734375,
      "v": 53
    },
    {
      "midi": 67,
      "hit": false,
      "t": 178819.26562499985,
      "d": 1163.1932812499872,
      "v": 57
    },
    {
      "midi": 46,
      "hit": false,
      "t": 178888.70999999906,
      "d": 1111.1100000000151,
      "v": 53
    },
    {
      "midi": 34,
      "hit": false,
      "t": 178888.70999999956,
      "d": 1111.109999999986,
      "v": 71
    },
    {
      "midi": 76,
      "hit": false,
      "t": 179218.57078125002,
      "d": 109.95359374998952,
      "v": 58
    },
    {
      "midi": 55,
      "hit": false,
      "t": 179444.26499999908,
      "d": 555.554999999993,
      "v": 35
    },
    {
      "midi": 58,
      "hit": false,
      "t": 179444.26499999908,
      "d": 555.554999999993,
      "v": 37
    },
    {
      "midi": 60,
      "hit": false,
      "t": 179444.26499999908,
      "d": 555.554999999993,
      "v": 43
    },
    {
      "midi": 64,
      "hit": false,
      "t": 179444.26499999908,
      "d": 555.554999999993,
      "v": 42
    },
    {
      "midi": 76,
      "hit": false,
      "t": 179478.9871875,
      "d": 92.59249999999884,
      "v": 55
    },
    {
      "midi": 76,
      "hit": false,
      "t": 179652.598125,
      "d": 92.59249999999884,
      "v": 51
    },
    {
      "midi": 77,
      "hit": false,
      "t": 179823.31554687498,
      "d": 1290.5079687499965,
      "v": 52
    },
    {
      "midi": 68,
      "hit": false,
      "t": 179939.05617187486,
      "d": 1177.6608593749697,
      "v": 64
    },
    {
      "midi": 77,
      "hit": false,
      "t": 179939.05617187498,
      "d": 697.3372656249849,
      "v": 42
    },
    {
      "midi": 65,
      "hit": false,
      "t": 179944.84320312485,
      "d": 1183.447890624986,
      "v": 53
    },
    {
      "midi": 65,
      "hit": false,
      "t": 179959.31078124998,
      "d": 624.9993749999849,
      "v": 51
    },
    {
      "midi": 41,
      "hit": false,
      "t": 179999.81999999908,
      "d": 1111.109999999986,
      "v": 55
    },
    {
      "midi": 29,
      "hit": false,
      "t": 179999.81999999954,
      "d": 1111.109999999986,
      "v": 76
    },
    {
      "midi": 67,
      "hit": false,
      "t": 180526.43984374998,
      "d": 601.851250000007,
      "v": 56
    },
    {
      "midi": 79,
      "hit": false,
      "t": 180552.48148437496,
      "d": 593.1707031250116,
      "v": 47
    },
    {
      "midi": 53,
      "hit": false,
      "t": 180555.37499999907,
      "d": 694.4437500000058,
      "v": 25
    },
    {
      "midi": 56,
      "hit": false,
      "t": 180555.37499999907,
      "d": 694.4437500000058,
      "v": 40
    },
    {
      "midi": 60,
      "hit": false,
      "t": 180555.37499999907,
      "d": 694.4437500000058,
      "v": 50
    },
    {
      "midi": 67,
      "hit": false,
      "t": 181061.74023437485,
      "d": 1076.3878124999756,
      "v": 51
    },
    {
      "midi": 70,
      "hit": false,
      "t": 181067.52726562484,
      "d": 1099.5359374999825,
      "v": 50
    },
    {
      "midi": 80,
      "hit": false,
      "t": 181073.31429687497,
      "d": 601.851250000007,
      "v": 48
    },
    {
      "midi": 68,
      "hit": false,
      "t": 181093.56890624997,
      "d": 593.1707031250116,
      "v": 45
    },
    {
      "midi": 48,
      "hit": false,
      "t": 181110.92999999906,
      "d": 1111.1100000000151,
      "v": 50
    },
    {
      "midi": 36,
      "hit": false,
      "t": 181110.92999999953,
      "d": 1111.109999999986,
      "v": 76
    },
    {
      "midi": 82,
      "hit": false,
      "t": 181611.50820312498,
      "d": 633.6799218750093,
      "v": 48
    },
    {
      "midi": 70,
      "hit": false,
      "t": 181634.65632812498,
      "d": 561.3420312500093,
      "v": 53
    },
    {
      "midi": 53,
      "hit": false,
      "t": 181666.48499999908,
      "d": 555.554999999993,
      "v": 32
    },
    {
      "midi": 56,
      "hit": false,
      "t": 181666.48499999908,
      "d": 555.554999999993,
      "v": 41
    },
    {
      "midi": 60,
      "hit": false,
      "t": 181666.48499999908,
      "d": 555.554999999993,
      "v": 52
    },
    {
      "midi": 72,
      "hit": false,
      "t": 182097.61882812483,
      "d": 2178.8172656249953,
      "v": 55
    },
    {
      "midi": 68,
      "hit": false,
      "t": 182109.19289062484,
      "d": 2175.923749999987,
      "v": 52
    },
    {
      "midi": 84,
      "hit": false,
      "t": 182172.850234375,
      "d": 1678.2390625000407,
      "v": 51
    },
    {
      "midi": 72,
      "hit": false,
      "t": 182175.74375,
      "d": 1562.4984375000058,
      "v": 37
    },
    {
      "midi": 77,
      "hit": false,
      "t": 182178.63726562497,
      "d": 1701.3871874999895,
      "v": 73
    },
    {
      "midi": 41,
      "hit": false,
      "t": 182222.03999999908,
      "d": 1111.109999999986,
      "v": 56
    },
    {
      "midi": 29,
      "hit": false,
      "t": 182222.0399999995,
      "d": 1111.109999999986,
      "v": 72
    },
    {
      "midi": 53,
      "hit": false,
      "t": 182777.59499999907,
      "d": 555.554999999993,
      "v": 28
    },
    {
      "midi": 56,
      "hit": false,
      "t": 182777.59499999907,
      "d": 555.554999999993,
      "v": 34
    },
    {
      "midi": 60,
      "hit": false,
      "t": 182777.59499999907,
      "d": 555.554999999993,
      "v": 52
    },
    {
      "midi": 48,
      "hit": false,
      "t": 183333.14999999906,
      "d": 694.4437500000058,
      "v": 50
    },
    {
      "midi": 36,
      "hit": false,
      "t": 183333.1499999995,
      "d": 972.2212500000023,
      "v": 72
    },
    {
      "midi": 80,
      "hit": false,
      "t": 183801.89953125,
      "d": 619.2123437499977,
      "v": 45
    },
    {
      "midi": 68,
      "hit": false,
      "t": 183804.793046875,
      "d": 512.1522656250163,
      "v": 41
    },
    {
      "midi": 74,
      "hit": false,
      "t": 183871.34390624997,
      "d": 515.0457812499953,
      "v": 68
    },
    {
      "midi": 53,
      "hit": false,
      "t": 183888.70499999906,
      "d": 555.5550000000221,
      "v": 32
    },
    {
      "midi": 56,
      "hit": false,
      "t": 183888.70499999906,
      "d": 555.5550000000221,
      "v": 32
    },
    {
      "midi": 60,
      "hit": false,
      "t": 183888.70499999906,
      "d": 555.5550000000221,
      "v": 51
    },
    {
      "midi": 67,
      "hit": false,
      "t": 184345.88046875002,
      "d": 2343.747656249994,
      "v": 30
    },
    {
      "midi": 79,
      "hit": false,
      "t": 184351.6675,
      "d": 2361.108750000014,
      "v": 52
    },
    {
      "midi": 63,
      "hit": false,
      "t": 184377.70914062482,
      "d": 1082.1748437499919,
      "v": 79
    },
    {
      "midi": 60,
      "hit": false,
      "t": 184380.60265624983,
      "d": 1151.6192187499837,
      "v": 67
    },
    {
      "midi": 75,
      "hit": false,
      "t": 184429.79242187497,
      "d": 1643.5168750000012,
      "v": 79
    },
    {
      "midi": 48,
      "hit": false,
      "t": 184444.25999999908,
      "d": 1111.109999999986,
      "v": 43
    },
    {
      "midi": 36,
      "hit": false,
      "t": 184444.2599999995,
      "d": 1111.109999999986,
      "v": 76
    },
    {
      "midi": 55,
      "hit": false,
      "t": 184999.81499999907,
      "d": 555.554999999993,
      "v": 37
    },
    {
      "midi": 60,
      "hit": false,
      "t": 184999.81499999907,
      "d": 555.554999999993,
      "v": 50
    },
    {
      "midi": 63,
      "hit": false,
      "t": 184999.81499999907,
      "d": 555.554999999993,
      "v": 43
    },
    {
      "midi": 65,
      "hit": false,
      "t": 185454.09695312483,
      "d": 570.0225781250047,
      "v": 62
    },
    {
      "midi": 62,
      "hit": false,
      "t": 185459.8839843748,
      "d": 636.5734375000175,
      "v": 63
    },
    {
      "midi": 43,
      "hit": false,
      "t": 185555.36999999906,
      "d": 972.2212500000023,
      "v": 57
    },
    {
      "midi": 31,
      "hit": false,
      "t": 185555.3699999995,
      "d": 972.2212500000023,
      "v": 78
    },
    {
      "midi": 63,
      "hit": false,
      "t": 186012.54546874983,
      "d": 567.1290625000256,
      "v": 43
    },
    {
      "midi": 67,
      "hit": false,
      "t": 186055.94820312483,
      "d": 593.1707031250116,
      "v": 61
    },
    {
      "midi": 55,
      "hit": false,
      "t": 186110.92499999906,
      "d": 555.5550000000221,
      "v": 48
    },
    {
      "midi": 60,
      "hit": false,
      "t": 186110.92499999906,
      "d": 555.5550000000221,
      "v": 46
    },
    {
      "midi": 63,
      "hit": false,
      "t": 186110.92499999906,
      "d": 555.5550000000221,
      "v": 42
    },
    {
      "midi": 72,
      "hit": false,
      "t": 186116.71203124998,
      "d": 474.5365624999977,
      "v": 64
    },
    {
      "midi": 62,
      "hit": false,
      "t": 186565.20695312484,
      "d": 2259.8357031249907,
      "v": 58
    },
    {
      "midi": 65,
      "hit": false,
      "t": 186568.10046874985,
      "d": 2248.261640624987,
      "v": 62
    },
    {
      "midi": 74,
      "hit": false,
      "t": 186637.54484375,
      "d": 1652.1974218749965,
      "v": 64
    },
    {
      "midi": 71,
      "hit": false,
      "t": 186646.225390625,
      "d": 2181.7107812500035,
      "v": 21
    },
    {
      "midi": 83,
      "hit": false,
      "t": 186649.11890625002,
      "d": 2204.8589062499814,
      "v": 46
    },
    {
      "midi": 43,
      "hit": false,
      "t": 186666.47999999908,
      "d": 833.3324999999895,
      "v": 56
    },
    {
      "midi": 31,
      "hit": false,
      "t": 186666.47999999952,
      "d": 1111.109999999986,
      "v": 78
    },
    {
      "midi": 55,
      "hit": false,
      "t": 187222.03499999907,
      "d": 555.554999999993,
      "v": 41
    },
    {
      "midi": 62,
      "hit": false,
      "t": 187222.03499999907,
      "d": 555.554999999993,
      "v": 46
    },
    {
      "midi": 65,
      "hit": false,
      "t": 187222.03499999907,
      "d": 555.554999999993,
      "v": 47
    },
    {
      "midi": 50,
      "hit": false,
      "t": 187777.58999999907,
      "d": 694.4437500000058,
      "v": 45
    },
    {
      "midi": 38,
      "hit": false,
      "t": 187777.5899999995,
      "d": 1111.109999999986,
      "v": 76
    },
    {
      "midi": 71,
      "hit": false,
      "t": 188298.42281249998,
      "d": 509.25875000000815,
      "v": 62
    },
    {
      "midi": 55,
      "hit": false,
      "t": 188333.14499999906,
      "d": 555.5550000000221,
      "v": 37
    },
    {
      "midi": 62,
      "hit": false,
      "t": 188333.14499999906,
      "d": 555.5550000000221,
      "v": 43
    },
    {
      "midi": 65,
      "hit": false,
      "t": 188333.14499999906,
      "d": 555.5550000000221,
      "v": 53
    },
    {
      "midi": 64,
      "hit": false,
      "t": 188770.06585937485,
      "d": 2418.979062499973,
      "v": 52
    },
    {
      "midi": 60,
      "hit": false,
      "t": 188787.42695312484,
      "d": 2401.6179687499825,
      "v": 48
    },
    {
      "midi": 84,
      "hit": false,
      "t": 188787.42695312502,
      "d": 2364.002265624993,
      "v": 43
    },
    {
      "midi": 72,
      "hit": false,
      "t": 188807.68156250002,
      "d": 2349.5346874999814,
      "v": 33
    },
    {
      "midi": 72,
      "hit": false,
      "t": 188842.40375,
      "d": 1707.1742187500058,
      "v": 64
    },
    {
      "midi": 48,
      "hit": false,
      "t": 188888.69999999908,
      "d": 1111.109999999986,
      "v": 48
    },
    {
      "midi": 36,
      "hit": false,
      "t": 188888.6999999995,
      "d": 1111.109999999986,
      "v": 78
    },
    {
      "midi": 55,
      "hit": false,
      "t": 189444.25499999907,
      "d": 555.554999999993,
      "v": 36
    },
    {
      "midi": 60,
      "hit": false,
      "t": 189444.25499999907,
      "d": 555.554999999993,
      "v": 51
    },
    {
      "midi": 64,
      "hit": false,
      "t": 189444.25499999907,
      "d": 555.554999999993,
      "v": 43
    },
    {
      "midi": 43,
      "hit": false,
      "t": 189999.80999999907,
      "d": 1111.109999999986,
      "v": 57
    },
    {
      "midi": 31,
      "hit": false,
      "t": 189999.80999999947,
      "d": 1111.109999999986,
      "v": 74
    },
    {
      "midi": 55,
      "hit": false,
      "t": 190555.36499999906,
      "d": 555.554999999993,
      "v": 41
    },
    {
      "midi": 60,
      "hit": false,
      "t": 190555.36499999906,
      "d": 555.554999999993,
      "v": 48
    },
    {
      "midi": 64,
      "hit": false,
      "t": 190555.36499999906,
      "d": 555.554999999993,
      "v": 47
    },
    {
      "midi": 48,
      "hit": false,
      "t": 191110.91999999905,
      "d": 1111.109999999986,
      "v": 53
    },
    {
      "midi": 36,
      "hit": false,
      "t": 191110.91999999946,
      "d": 1111.109999999986,
      "v": 78
    },
    {
      "midi": 79,
      "hit": false,
      "t": 191110.91999999984,
      "d": 1840.2759374999732,
      "v": 58
    },
    {
      "midi": 76,
      "hit": false,
      "t": 191110.91999999984,
      "d": 1857.637031249964,
      "v": 43
    },
    {
      "midi": 67,
      "hit": false,
      "t": 191110.91999999984,
      "d": 1880.785156249971,
      "v": 45
    },
    {
      "midi": 76,
      "hit": false,
      "t": 191640.433359375,
      "d": 92.59249999999884,
      "v": 46
    },
    {
      "midi": 55,
      "hit": false,
      "t": 191666.47499999905,
      "d": 555.554999999993,
      "v": 30
    },
    {
      "midi": 60,
      "hit": false,
      "t": 191666.47499999905,
      "d": 555.554999999993,
      "v": 48
    },
    {
      "midi": 64,
      "hit": false,
      "t": 191666.47499999905,
      "d": 555.554999999993,
      "v": 47
    },
    {
      "midi": 76,
      "hit": false,
      "t": 191840.0859375,
      "d": 86.80546875001164,
      "v": 48
    },
    {
      "midi": 76,
      "hit": false,
      "t": 192042.63203125002,
      "d": 454.28195312499884,
      "v": 68
    },
    {
      "midi": 43,
      "hit": false,
      "t": 192222.02999999904,
      "d": 833.3324999999895,
      "v": 58
    },
    {
      "midi": 31,
      "hit": false,
      "t": 192222.02999999945,
      "d": 833.3324999999895,
      "v": 76
    },
    {
      "midi": 76,
      "hit": false,
      "t": 192580.82593750002,
      "d": 98.37953124998603,
      "v": 43
    },
    {
      "midi": 55,
      "hit": false,
      "t": 192777.58499999903,
      "d": 277.7774999999965,
      "v": 40
    },
    {
      "midi": 60,
      "hit": false,
      "t": 192777.58499999903,
      "d": 277.7774999999965,
      "v": 46
    },
    {
      "midi": 64,
      "hit": false,
      "t": 192777.58499999903,
      "d": 277.7774999999965,
      "v": 55
    },
    {
      "midi": 76,
      "hit": false,
      "t": 192792.052578125,
      "d": 78.1249218749872,
      "v": 55
    },
    {
      "midi": 76,
      "hit": false,
      "t": 192983.024609375,
      "d": 72.337890625,
      "v": 63
    },
    {
      "midi": 76,
      "hit": false,
      "t": 193159.5290625,
      "d": 491.89765624998836,
      "v": 66
    },
    {
      "midi": 55,
      "hit": false,
      "t": 193292.6307812498,
      "d": 1012.73046875,
      "v": 31
    },
    {
      "midi": 59,
      "hit": false,
      "t": 193292.6307812498,
      "d": 2222.220000000001,
      "v": 41
    },
    {
      "midi": 43,
      "hit": false,
      "t": 193333.13999999902,
      "d": 1111.109999999986,
      "v": 64
    },
    {
      "midi": 31,
      "hit": false,
      "t": 193333.13999999943,
      "d": 1111.109999999986,
      "v": 78
    },
    {
      "midi": 53,
      "hit": false,
      "t": 193333.13999999998,
      "d": 1192.1284375000105,
      "v": 59
    },
    {
      "midi": 74,
      "hit": false,
      "t": 193691.93593749998,
      "d": 271.9904687500093,
      "v": 61
    },
    {
      "midi": 62,
      "hit": false,
      "t": 193888.69499999902,
      "d": 972.2212500000023,
      "v": 53
    },
    {
      "midi": 65,
      "hit": false,
      "t": 193888.69499999902,
      "d": 972.2212500000023,
      "v": 56
    },
    {
      "midi": 74,
      "hit": false,
      "t": 194099.921640625,
      "d": 63.65734375000466,
      "v": 48
    },
    {
      "midi": 74,
      "hit": false,
      "t": 194267.745546875,
      "d": 81.01843749999534,
      "v": 55
    },
    {
      "midi": 62,
      "hit": false,
      "t": 194389.27320312482,
      "d": 1114.0035156249942,
      "v": 33
    },
    {
      "midi": 59,
      "hit": false,
      "t": 194400.847265625,
      "d": 624.999375000014,
      "v": 61
    },
    {
      "midi": 50,
      "hit": false,
      "t": 194444.249999999,
      "d": 833.3325000000186,
      "v": 58
    },
    {
      "midi": 38,
      "hit": false,
      "t": 194444.24999999942,
      "d": 1111.109999999986,
      "v": 76
    },
    {
      "midi": 74,
      "hit": false,
      "t": 194461.61109375,
      "d": 243.05531249998603,
      "v": 64
    },
    {
      "midi": 74,
      "hit": false,
      "t": 194803.04593749996,
      "d": 75.23140625000815,
      "v": 56
    },
    {
      "midi": 62,
      "hit": false,
      "t": 194962.189296875,
      "d": 558.4485156250012,
      "v": 59
    },
    {
      "midi": 74,
      "hit": false,
      "t": 194996.91148437498,
      "d": 69.44437499999185,
      "v": 55
    },
    {
      "midi": 55,
      "hit": false,
      "t": 194999.80499999903,
      "d": 555.554999999993,
      "v": 47
    },
    {
      "midi": 62,
      "hit": false,
      "t": 194999.80499999903,
      "d": 555.554999999993,
      "v": 45
    },
    {
      "midi": 65,
      "hit": false,
      "t": 194999.80499999903,
      "d": 555.554999999993,
      "v": 46
    },
    {
      "midi": 74,
      "hit": false,
      "t": 195184.99,
      "d": 63.65734375000466,
      "v": 51
    },
    {
      "midi": 74,
      "hit": false,
      "t": 195381.7490625,
      "d": 520.8328125000116,
      "v": 62
    },
    {
      "midi": 64,
      "hit": false,
      "t": 195451.1934374998,
      "d": 2282.9838281249977,
      "v": 60
    },
    {
      "midi": 60,
      "hit": false,
      "t": 195462.7674999998,
      "d": 2042.8220312500198,
      "v": 56
    },
    {
      "midi": 60,
      "hit": false,
      "t": 195500.383203125,
      "d": 578.703125,
      "v": 64
    },
    {
      "midi": 48,
      "hit": false,
      "t": 195555.35999999903,
      "d": 1111.109999999986,
      "v": 55
    },
    {
      "midi": 36,
      "hit": false,
      "t": 195555.3599999994,
      "d": 1111.109999999986,
      "v": 75
    },
    {
      "midi": 72,
      "hit": false,
      "t": 195922.836484375,
      "d": 254.62937499998952,
      "v": 60
    },
    {
      "midi": 62,
      "hit": false,
      "t": 196050.151171875,
      "d": 564.2355468750175,
      "v": 66
    },
    {
      "midi": 55,
      "hit": false,
      "t": 196110.91499999902,
      "d": 833.3324999999895,
      "v": 37
    },
    {
      "midi": 60,
      "hit": false,
      "t": 196110.91499999902,
      "d": 833.3324999999895,
      "v": 31
    },
    {
      "midi": 64,
      "hit": false,
      "t": 196110.91499999902,
      "d": 833.3324999999895,
      "v": 48
    },
    {
      "midi": 72,
      "hit": false,
      "t": 196325.03515625,
      "d": 69.44437499999185,
      "v": 50
    },
    {
      "midi": 72,
      "hit": false,
      "t": 196498.64609375,
      "d": 75.23140625000815,
      "v": 48
    },
    {
      "midi": 64,
      "hit": false,
      "t": 196599.91914062502,
      "d": 645.2539843750128,
      "v": 68
    },
    {
      "midi": 67,
      "hit": false,
      "t": 196634.64132812482,
      "d": 1093.7489062499953,
      "v": 64
    },
    {
      "midi": 43,
      "hit": false,
      "t": 196666.469999999,
      "d": 833.3324999999895,
      "v": 57
    },
    {
      "midi": 31,
      "hit": false,
      "t": 196666.4699999994,
      "d": 972.2212500000023,
      "v": 84
    },
    {
      "midi": 72,
      "hit": false,
      "t": 196695.40515625,
      "d": 257.5228906249977,
      "v": 62
    },
    {
      "midi": 72,
      "hit": false,
      "t": 197054.20109375,
      "d": 211.2266406250128,
      "v": 55
    },
    {
      "midi": 65,
      "hit": false,
      "t": 197195.98335937504,
      "d": 590.2771874999744,
      "v": 78
    },
    {
      "midi": 55,
      "hit": false,
      "t": 197222.024999999,
      "d": 555.554999999993,
      "v": 42
    },
    {
      "midi": 60,
      "hit": false,
      "t": 197222.024999999,
      "d": 555.554999999993,
      "v": 52
    },
    {
      "midi": 64,
      "hit": false,
      "t": 197222.024999999,
      "d": 555.554999999993,
      "v": 46
    },
    {
      "midi": 72,
      "hit": false,
      "t": 197389.84890625,
      "d": 86.80546875001164,
      "v": 51
    },
    {
      "midi": 72,
      "hit": false,
      "t": 197575.03390625,
      "d": 92.59249999999884,
      "v": 53
    },
    {
      "midi": 72,
      "hit": false,
      "t": 197771.79296875,
      "d": 321.1802343750023,
      "v": 60
    },
    {
      "midi": 43,
      "hit": false,
      "t": 197777.579999999,
      "d": 1111.109999999986,
      "v": 57
    },
    {
      "midi": 31,
      "hit": false,
      "t": 197777.5799999994,
      "d": 1111.109999999986,
      "v": 72
    },
    {
      "midi": 62,
      "hit": false,
      "t": 197777.5799999998,
      "d": 2309.025468750013,
      "v": 61
    },
    {
      "midi": 67,
      "hit": false,
      "t": 197777.58000000002,
      "d": 1142.9386718749884,
      "v": 68
    },
    {
      "midi": 59,
      "hit": false,
      "t": 197786.2605468748,
      "d": 2060.1831250000105,
      "v": 56
    },
    {
      "midi": 71,
      "hit": false,
      "t": 198162.417578125,
      "d": 225.69421874999534,
      "v": 57
    },
    {
      "midi": 55,
      "hit": false,
      "t": 198333.134999999,
      "d": 555.554999999993,
      "v": 29
    },
    {
      "midi": 62,
      "hit": false,
      "t": 198333.134999999,
      "d": 555.554999999993,
      "v": 41
    },
    {
      "midi": 65,
      "hit": false,
      "t": 198333.134999999,
      "d": 555.554999999993,
      "v": 41
    },
    {
      "midi": 71,
      "hit": false,
      "t": 198503.852421875,
      "d": 86.80546875001164,
      "v": 45
    },
    {
      "midi": 71,
      "hit": false,
      "t": 198694.824453125,
      "d": 83.91195312500349,
      "v": 52
    },
    {
      "midi": 65,
      "hit": false,
      "t": 198819.2456249998,
      "d": 1154.512734375021,
      "v": 56
    },
    {
      "midi": 71,
      "hit": false,
      "t": 198836.60671875,
      "d": 639.4669531249965,
      "v": 72
    },
    {
      "midi": 50,
      "hit": false,
      "t": 198888.68999999898,
      "d": 833.3324999999895,
      "v": 48
    },
    {
      "midi": 38,
      "hit": false,
      "t": 198888.6899999994,
      "d": 1111.109999999986,
      "v": 75
    },
    {
      "midi": 71,
      "hit": false,
      "t": 198903.157578125,
      "d": 222.8007031249872,
      "v": 64
    },
    {
      "midi": 71,
      "hit": false,
      "t": 199241.69890625,
      "d": 89.69898437499069,
      "v": 48
    },
    {
      "midi": 74,
      "hit": false,
      "t": 199395.055234375,
      "d": 581.596640624979,
      "v": 68
    },
    {
      "midi": 55,
      "hit": false,
      "t": 199444.24499999898,
      "d": 555.554999999993,
      "v": 41
    },
    {
      "midi": 62,
      "hit": false,
      "t": 199444.24499999898,
      "d": 555.554999999993,
      "v": 52
    },
    {
      "midi": 65,
      "hit": false,
      "t": 199444.24499999898,
      "d": 555.554999999993,
      "v": 58
    },
    {
      "midi": 71,
      "hit": false,
      "t": 199447.138515625,
      "d": 81.01843749999534,
      "v": 48
    },
    {
      "midi": 71,
      "hit": false,
      "t": 199643.897578125,
      "d": 72.337890625,
      "v": 45
    },
    {
      "midi": 71,
      "hit": false,
      "t": 199834.86960937502,
      "d": 445.6014062500035,
      "v": 63
    },
    {
      "midi": 64,
      "hit": false,
      "t": 199901.42046874983,
      "d": 2248.2616406250163,
      "v": 51
    },
    {
      "midi": 60,
      "hit": false,
      "t": 199912.99453124983,
      "d": 2184.6042968750116,
      "v": 41
    },
    {
      "midi": 72,
      "hit": false,
      "t": 199970.86484375,
      "d": 729.1659374999872,
      "v": 64
    },
    {
      "midi": 48,
      "hit": false,
      "t": 199999.79999999897,
      "d": 1111.109999999986,
      "v": 55
    },
    {
      "midi": 36,
      "hit": false,
      "t": 199999.79999999938,
      "d": 1111.109999999986,
      "v": 82
    },
    {
      "midi": 69,
      "hit": false,
      "t": 200320.98023437502,
      "d": 295.1385937499872,
      "v": 47
    },
    {
      "midi": 74,
      "hit": false,
      "t": 200540.88742187497,
      "d": 578.7031250000291,
      "v": 68
    },
    {
      "midi": 55,
      "hit": false,
      "t": 200555.35499999896,
      "d": 694.4437500000058,
      "v": 45
    },
    {
      "midi": 60,
      "hit": false,
      "t": 200555.35499999896,
      "d": 694.4437500000058,
      "v": 45
    },
    {
      "midi": 64,
      "hit": false,
      "t": 200555.35499999896,
      "d": 694.4437500000058,
      "v": 53
    },
    {
      "midi": 69,
      "hit": false,
      "t": 200737.646484375,
      "d": 89.69898437499069,
      "v": 57
    },
    {
      "midi": 69,
      "hit": false,
      "t": 200925.72499999998,
      "d": 92.59249999999884,
      "v": 58
    },
    {
      "midi": 55,
      "hit": false,
      "t": 201021.21101562484,
      "d": 1189.2349218750023,
      "v": 38
    },
    {
      "midi": 76,
      "hit": false,
      "t": 201073.29429687498,
      "d": 740.7399999999907,
      "v": 64
    },
    {
      "midi": 43,
      "hit": false,
      "t": 201110.90999999896,
      "d": 694.4437500000349,
      "v": 62
    },
    {
      "midi": 31,
      "hit": false,
      "t": 201110.90999999936,
      "d": 972.2212500000023,
      "v": 82
    },
    {
      "midi": 69,
      "hit": false,
      "t": 201113.80351562498,
      "d": 193.86554687499302,
      "v": 67
    },
    {
      "midi": 69,
      "hit": false,
      "t": 201455.23835937498,
      "d": 303.81914062501164,
      "v": 66
    },
    {
      "midi": 77,
      "hit": false,
      "t": 201631.7428125,
      "d": 587.3836718749953,
      "v": 57
    },
    {
      "midi": 55,
      "hit": false,
      "t": 201666.46499999898,
      "d": 555.5550000000221,
      "v": 42
    },
    {
      "midi": 60,
      "hit": false,
      "t": 201666.46499999898,
      "d": 555.5550000000221,
      "v": 45
    },
    {
      "midi": 64,
      "hit": false,
      "t": 201666.46499999898,
      "d": 555.5550000000221,
      "v": 50
    },
    {
      "midi": 72,
      "hit": false,
      "t": 201837.18242187498,
      "d": 167.82390625000698,
      "v": 68
    },
    {
      "midi": 71,
      "hit": false,
      "t": 202016.580390625,
      "d": 127.31468750000931,
      "v": 61
    },
    {
      "midi": 62,
      "hit": false,
      "t": 202091.81179687483,
      "d": 480.32359375001397,
      "v": 17
    },
    {
      "midi": 59,
      "hit": false,
      "t": 202094.70531249983,
      "d": 2323.4930468749662,
      "v": 40
    },
    {
      "midi": 79,
      "hit": false,
      "t": 202169.93671875,
      "d": 1151.6192187499837,
      "v": 61
    },
    {
      "midi": 71,
      "hit": false,
      "t": 202216.23296875,
      "d": 2216.432968750014,
      "v": 67
    },
    {
      "midi": 43,
      "hit": false,
      "t": 202222.019999999,
      "d": 1111.109999999986,
      "v": 55
    },
    {
      "midi": 31,
      "hit": false,
      "t": 202222.01999999938,
      "d": 1111.109999999986,
      "v": 80
    },
    {
      "midi": 67,
      "hit": false,
      "t": 202734.17226562483,
      "d": 624.9993749999849,
      "v": 34
    },
    {
      "midi": 71,
      "hit": false,
      "t": 202742.85281249983,
      "d": 581.596640624979,
      "v": 32
    },
    {
      "midi": 62,
      "hit": false,
      "t": 202777.574999999,
      "d": 833.3324999999895,
      "v": 50
    },
    {
      "midi": 55,
      "hit": false,
      "t": 202777.574999999,
      "d": 972.2212500000023,
      "v": 43
    },
    {
      "midi": 65,
      "hit": false,
      "t": 202777.574999999,
      "d": 972.2212500000023,
      "v": 55
    },
    {
      "midi": 81,
      "hit": false,
      "t": 203281.04671874997,
      "d": 590.2771875000035,
      "v": 66
    },
    {
      "midi": 69,
      "hit": false,
      "t": 203286.83374999982,
      "d": 668.4021093749907,
      "v": 55
    },
    {
      "midi": 72,
      "hit": false,
      "t": 203292.6207812498,
      "d": 425.34679687500466,
      "v": 63
    },
    {
      "midi": 50,
      "hit": false,
      "t": 203333.129999999,
      "d": 1111.1100000000151,
      "v": 61
    },
    {
      "midi": 38,
      "hit": false,
      "t": 203333.12999999936,
      "d": 1111.109999999986,
      "v": 78
    },
    {
      "midi": 82,
      "hit": false,
      "t": 203827.92117187497,
      "d": 610.5317968750023,
      "v": 57
    },
    {
      "midi": 70,
      "hit": false,
      "t": 203842.3887499998,
      "d": 543.9809374999895,
      "v": 47
    },
    {
      "midi": 73,
      "hit": false,
      "t": 203851.0692968748,
      "d": 538.1939062500023,
      "v": 56
    },
    {
      "midi": 55,
      "hit": false,
      "t": 203888.684999999,
      "d": 555.554999999993,
      "v": 43
    },
    {
      "midi": 62,
      "hit": false,
      "t": 203888.684999999,
      "d": 555.554999999993,
      "v": 53
    },
    {
      "midi": 65,
      "hit": false,
      "t": 203888.684999999,
      "d": 555.554999999993,
      "v": 53
    },
    {
      "midi": 83,
      "hit": false,
      "t": 204383.47617187497,
      "d": 2190.391328124999,
      "v": 55
    },
    {
      "midi": 71,
      "hit": false,
      "t": 204386.3696874998,
      "d": 2265.622734375007,
      "v": 63
    },
    {
      "midi": 55,
      "hit": false,
      "t": 204397.9437499998,
      "d": 2294.557890625001,
      "v": 56
    },
    {
      "midi": 74,
      "hit": false,
      "t": 204403.7307812498,
      "d": 2268.516250000015,
      "v": 45
    },
    {
      "midi": 43,
      "hit": false,
      "t": 204444.239999999,
      "d": 1111.109999999986,
      "v": 56
    },
    {
      "midi": 31,
      "hit": false,
      "t": 204444.23999999935,
      "d": 1111.109999999986,
      "v": 76
    },
    {
      "midi": 55,
      "hit": false,
      "t": 204999.794999999,
      "d": 833.3324999999895,
      "v": 31
    },
    {
      "midi": 62,
      "hit": false,
      "t": 204999.794999999,
      "d": 833.3324999999895,
      "v": 45
    },
    {
      "midi": 65,
      "hit": false,
      "t": 204999.794999999,
      "d": 833.3324999999895,
      "v": 46
    },
    {
      "midi": 69,
      "hit": false,
      "t": 205005.58203125003,
      "d": 526.6198437499988,
      "v": 67
    },
    {
      "midi": 50,
      "hit": false,
      "t": 205555.349999999,
      "d": 833.3324999999895,
      "v": 52
    },
    {
      "midi": 38,
      "hit": false,
      "t": 205555.34999999934,
      "d": 1111.109999999986,
      "v": 80
    },
    {
      "midi": 71,
      "hit": false,
      "t": 205555.35000000003,
      "d": 833.3324999999895,
      "v": 62
    },
    {
      "midi": 55,
      "hit": false,
      "t": 206110.90499999898,
      "d": 555.554999999993,
      "v": 46
    },
    {
      "midi": 62,
      "hit": false,
      "t": 206110.90499999898,
      "d": 555.554999999993,
      "v": 50
    },
    {
      "midi": 65,
      "hit": false,
      "t": 206110.90499999898,
      "d": 555.554999999993,
      "v": 53
    },
    {
      "midi": 69,
      "hit": false,
      "t": 206397.36304687502,
      "d": 243.05531249998603,
      "v": 67
    },
    {
      "midi": 60,
      "hit": false,
      "t": 206663.5664843748,
      "d": 4406.824296874984,
      "v": 51
    },
    {
      "midi": 84,
      "hit": false,
      "t": 206663.56648437495,
      "d": 1163.1932812500163,
      "v": 54
    },
    {
      "midi": 48,
      "hit": false,
      "t": 206666.45999999897,
      "d": 1111.109999999986,
      "v": 55
    },
    {
      "midi": 36,
      "hit": false,
      "t": 206666.45999999932,
      "d": 1111.109999999986,
      "v": 80
    },
    {
      "midi": 67,
      "hit": false,
      "t": 206689.608125,
      "d": 2563.6548437500023,
      "v": 68
    },
    {
      "midi": 55,
      "hit": false,
      "t": 207222.01499999897,
      "d": 972.2212500000023,
      "v": 35
    },
    {
      "midi": 60,
      "hit": false,
      "t": 207222.01499999897,
      "d": 972.2212500000023,
      "v": 53
    },
    {
      "midi": 64,
      "hit": false,
      "t": 207222.01499999897,
      "d": 972.2212500000023,
      "v": 47
    },
    {
      "midi": 72,
      "hit": false,
      "t": 207224.9085156248,
      "d": 497.68468750000466,
      "v": 62
    },
    {
      "midi": 76,
      "hit": false,
      "t": 207227.8020312498,
      "d": 555.554999999993,
      "v": 64
    },
    {
      "midi": 74,
      "hit": false,
      "t": 207722.5932031248,
      "d": 694.4437499999767,
      "v": 53
    },
    {
      "midi": 77,
      "hit": false,
      "t": 207731.2737499998,
      "d": 439.8143749999872,
      "v": 55
    },
    {
      "midi": 86,
      "hit": false,
      "t": 207771.78296874996,
      "d": 535.3003906249942,
      "v": 61
    },
    {
      "midi": 43,
      "hit": false,
      "t": 207777.56999999896,
      "d": 1111.1100000000151,
      "v": 60
    },
    {
      "midi": 31,
      "hit": false,
      "t": 207777.5699999993,
      "d": 1111.109999999986,
      "v": 78
    },
    {
      "midi": 75,
      "hit": false,
      "t": 208278.1482031248,
      "d": 535.3003906249942,
      "v": 52
    },
    {
      "midi": 87,
      "hit": false,
      "t": 208281.04171874997,
      "d": 668.4021093749907,
      "v": 59
    },
    {
      "midi": 78,
      "hit": false,
      "t": 208286.82874999978,
      "d": 543.9809375000186,
      "v": 52
    },
    {
      "midi": 55,
      "hit": false,
      "t": 208333.12499999898,
      "d": 972.2212500000023,
      "v": 42
    },
    {
      "midi": 60,
      "hit": false,
      "t": 208333.12499999898,
      "d": 972.2212500000023,
      "v": 51
    },
    {
      "midi": 64,
      "hit": false,
      "t": 208333.12499999898,
      "d": 972.2212500000023,
      "v": 51
    },
    {
      "midi": 76,
      "hit": false,
      "t": 208816.3421093748,
      "d": 2248.2616406250163,
      "v": 57
    },
    {
      "midi": 79,
      "hit": false,
      "t": 208842.3837499998,
      "d": 2248.261640624987,
      "v": 31
    },
    {
      "midi": 88,
      "hit": false,
      "t": 208882.89296874995,
      "d": 2019.6739062500128,
      "v": 54
    },
    {
      "midi": 48,
      "hit": false,
      "t": 208888.67999999897,
      "d": 1111.1100000000151,
      "v": 46
    },
    {
      "midi": 36,
      "hit": false,
      "t": 208888.6799999993,
      "d": 1111.109999999986,
      "v": 76
    },
    {
      "midi": 67,
      "hit": false,
      "t": 209438.44796875,
      "d": 532.406874999986,
      "v": 71
    },
    {
      "midi": 55,
      "hit": false,
      "t": 209444.234999999,
      "d": 694.4437500000058,
      "v": 37
    },
    {
      "midi": 60,
      "hit": false,
      "t": 209444.234999999,
      "d": 694.4437500000058,
      "v": 45
    },
    {
      "midi": 64,
      "hit": false,
      "t": 209444.234999999,
      "d": 694.4437500000058,
      "v": 53
    },
    {
      "midi": 69,
      "hit": false,
      "t": 209988.21593749998,
      "d": 815.9714062499988,
      "v": 69
    },
    {
      "midi": 43,
      "hit": false,
      "t": 209999.789999999,
      "d": 1111.1100000000151,
      "v": 55
    },
    {
      "midi": 31,
      "hit": false,
      "t": 209999.78999999928,
      "d": 833.3324999999895,
      "v": 78
    },
    {
      "midi": 55,
      "hit": false,
      "t": 210555.344999999,
      "d": 555.554999999993,
      "v": 34
    },
    {
      "midi": 60,
      "hit": false,
      "t": 210555.344999999,
      "d": 555.554999999993,
      "v": 45
    },
    {
      "midi": 64,
      "hit": false,
      "t": 210555.344999999,
      "d": 555.554999999993,
      "v": 43
    },
    {
      "midi": 67,
      "hit": false,
      "t": 210844.69656249997,
      "d": 248.84234375000233,
      "v": 64
    },
    {
      "midi": 55,
      "hit": false,
      "t": 211047.24265624981,
      "d": 2259.8357031249907,
      "v": 56
    },
    {
      "midi": 79,
      "hit": false,
      "t": 211084.85835937495,
      "d": 1134.258124999993,
      "v": 52
    },
    {
      "midi": 50,
      "hit": false,
      "t": 211110.899999999,
      "d": 1111.109999999986,
      "v": 56
    },
    {
      "midi": 38,
      "hit": false,
      "t": 211110.89999999927,
      "d": 1111.109999999986,
      "v": 72
    },
    {
      "midi": 71,
      "hit": false,
      "t": 211113.79351562497,
      "d": 2754.626874999987,
      "v": 67
    },
    {
      "midi": 67,
      "hit": false,
      "t": 211617.2652343748,
      "d": 491.89765624998836,
      "v": 55
    },
    {
      "midi": 71,
      "hit": false,
      "t": 211617.2652343748,
      "d": 561.3420312500093,
      "v": 60
    },
    {
      "midi": 55,
      "hit": false,
      "t": 211666.454999999,
      "d": 972.2212500000023,
      "v": 42
    },
    {
      "midi": 62,
      "hit": false,
      "t": 211666.454999999,
      "d": 972.2212500000023,
      "v": 47
    },
    {
      "midi": 65,
      "hit": false,
      "t": 211666.454999999,
      "d": 972.2212500000023,
      "v": 51
    },
    {
      "midi": 69,
      "hit": false,
      "t": 212132.3110156248,
      "d": 607.6382812499942,
      "v": 56
    },
    {
      "midi": 72,
      "hit": false,
      "t": 212146.7785937498,
      "d": 361.689453125,
      "v": 57
    },
    {
      "midi": 81,
      "hit": false,
      "t": 212169.92671874995,
      "d": 570.0225781250047,
      "v": 54
    },
    {
      "midi": 43,
      "hit": false,
      "t": 212222.009999999,
      "d": 1111.1100000000151,
      "v": 55
    },
    {
      "midi": 31,
      "hit": false,
      "t": 212222.00999999925,
      "d": 1111.109999999986,
      "v": 72
    },
    {
      "midi": 70,
      "hit": false,
      "t": 212658.93085937478,
      "d": 578.703125,
      "v": 47
    },
    {
      "midi": 73,
      "hit": false,
      "t": 212664.71789062477,
      "d": 587.3836718750244,
      "v": 57
    },
    {
      "midi": 82,
      "hit": false,
      "t": 212708.12062499995,
      "d": 604.744765624986,
      "v": 49
    },
    {
      "midi": 55,
      "hit": false,
      "t": 212777.564999999,
      "d": 694.4437500000058,
      "v": 36
    },
    {
      "midi": 62,
      "hit": false,
      "t": 212777.564999999,
      "d": 694.4437500000058,
      "v": 40
    },
    {
      "midi": 65,
      "hit": false,
      "t": 212777.564999999,
      "d": 694.4437500000058,
      "v": 38
    },
    {
      "midi": 71,
      "hit": false,
      "t": 213240.5274999998,
      "d": 2204.8589062500105,
      "v": 61
    },
    {
      "midi": 83,
      "hit": false,
      "t": 213243.42101562495,
      "d": 2008.0998437499802,
      "v": 50
    },
    {
      "midi": 74,
      "hit": false,
      "t": 213254.9950781248,
      "d": 2228.0070312499884,
      "v": 67
    },
    {
      "midi": 59,
      "hit": false,
      "t": 213254.9950781248,
      "d": 2236.6875781249837,
      "v": 47
    },
    {
      "midi": 50,
      "hit": false,
      "t": 213333.119999999,
      "d": 1111.1100000000151,
      "v": 55
    },
    {
      "midi": 38,
      "hit": false,
      "t": 213333.11999999924,
      "d": 1111.109999999986,
      "v": 69
    },
    {
      "midi": 55,
      "hit": false,
      "t": 213888.67499999903,
      "d": 694.4437500000058,
      "v": 32
    },
    {
      "midi": 62,
      "hit": false,
      "t": 213888.67499999903,
      "d": 694.4437500000058,
      "v": 51
    },
    {
      "midi": 65,
      "hit": false,
      "t": 213888.67499999903,
      "d": 694.4437500000058,
      "v": 48
    },
    {
      "midi": 69,
      "hit": false,
      "t": 213914.71664062497,
      "d": 503.47171874999185,
      "v": 73
    },
    {
      "midi": 43,
      "hit": false,
      "t": 214444.22999999902,
      "d": 1111.1100000000151,
      "v": 55
    },
    {
      "midi": 31,
      "hit": false,
      "t": 214444.22999999922,
      "d": 1111.109999999986,
      "v": 72
    },
    {
      "midi": 71,
      "hit": false,
      "t": 214455.80406249996,
      "d": 815.9714062499988,
      "v": 66
    },
    {
      "midi": 55,
      "hit": false,
      "t": 214999.78499999904,
      "d": 555.554999999993,
      "v": 32
    },
    {
      "midi": 62,
      "hit": false,
      "t": 214999.78499999904,
      "d": 555.554999999993,
      "v": 43
    },
    {
      "midi": 65,
      "hit": false,
      "t": 214999.78499999904,
      "d": 555.554999999993,
      "v": 48
    },
    {
      "midi": 69,
      "hit": false,
      "t": 215286.24304687497,
      "d": 243.05531249998603,
      "v": 67
    },
    {
      "midi": 60,
      "hit": false,
      "t": 215471.4280468748,
      "d": 4424.185390625062,
      "v": 53
    },
    {
      "midi": 84,
      "hit": false,
      "t": 215526.40484374992,
      "d": 1096.6424218750035,
      "v": 44
    },
    {
      "midi": 48,
      "hit": false,
      "t": 215555.33999999904,
      "d": 1111.109999999986,
      "v": 57
    },
    {
      "midi": 36,
      "hit": false,
      "t": 215555.3399999992,
      "d": 1111.109999999986,
      "v": 72
    },
    {
      "midi": 67,
      "hit": false,
      "t": 215566.91406249994,
      "d": 2199.071874999994,
      "v": 64
    },
    {
      "midi": 76,
      "hit": false,
      "t": 216073.2792968748,
      "d": 570.0225781250047,
      "v": 62
    },
    {
      "midi": 72,
      "hit": false,
      "t": 216076.1728124998,
      "d": 549.7679687500058,
      "v": 58
    },
    {
      "midi": 55,
      "hit": false,
      "t": 216110.89499999903,
      "d": 694.4437500000058,
      "v": 41
    },
    {
      "midi": 60,
      "hit": false,
      "t": 216110.89499999903,
      "d": 694.4437500000058,
      "v": 46
    },
    {
      "midi": 64,
      "hit": false,
      "t": 216110.89499999903,
      "d": 694.4437500000058,
      "v": 52
    },
    {
      "midi": 74,
      "hit": false,
      "t": 216605.6861718748,
      "d": 590.2771874999744,
      "v": 55
    },
    {
      "midi": 86,
      "hit": false,
      "t": 216611.47320312492,
      "d": 570.0225781250047,
      "v": 50
    },
    {
      "midi": 77,
      "hit": false,
      "t": 216617.26023437481,
      "d": 410.879218749993,
      "v": 53
    },
    {
      "midi": 43,
      "hit": false,
      "t": 216666.44999999902,
      "d": 1111.1100000000151,
      "v": 58
    },
    {
      "midi": 31,
      "hit": false,
      "t": 216666.4499999992,
      "d": 1111.109999999986,
      "v": 75
    },
    {
      "midi": 75,
      "hit": false,
      "t": 217129.4124999998,
      "d": 526.6198437499988,
      "v": 55
    },
    {
      "midi": 78,
      "hit": false,
      "t": 217146.7735937498,
      "d": 512.1522656250163,
      "v": 66
    },
    {
      "midi": 87,
      "hit": false,
      "t": 217164.13468749993,
      "d": 572.9160937499837,
      "v": 56
    },
    {
      "midi": 55,
      "hit": false,
      "t": 217222.00499999904,
      "d": 555.554999999993,
      "v": 27
    },
    {
      "midi": 60,
      "hit": false,
      "t": 217222.00499999904,
      "d": 555.554999999993,
      "v": 36
    },
    {
      "midi": 64,
      "hit": false,
      "t": 217222.00499999904,
      "d": 555.554999999993,
      "v": 46
    },
    {
      "midi": 76,
      "hit": false,
      "t": 217653.1388281248,
      "d": 1290.5079687500256,
      "v": 62
    },
    {
      "midi": 79,
      "hit": false,
      "t": 217667.6064062498,
      "d": 538.1939062500023,
      "v": 46
    },
    {
      "midi": 88,
      "hit": false,
      "t": 217711.00914062493,
      "d": 561.3420312499802,
      "v": 56
    },
    {
      "midi": 48,
      "hit": false,
      "t": 217777.55999999904,
      "d": 1111.109999999986,
      "v": 55
    },
    {
      "midi": 36,
      "hit": false,
      "t": 217777.55999999918,
      "d": 1111.109999999986,
      "v": 72
    },
    {
      "midi": 72,
      "hit": false,
      "t": 218228.9484374998,
      "d": 1206.5960156250221,
      "v": 47
    },
    {
      "midi": 84,
      "hit": false,
      "t": 218272.3511718749,
      "d": 578.703125,
      "v": 56
    },
    {
      "midi": 55,
      "hit": false,
      "t": 218333.11499999903,
      "d": 694.4437500000058,
      "v": 41
    },
    {
      "midi": 60,
      "hit": false,
      "t": 218333.11499999903,
      "d": 694.4437500000058,
      "v": 47
    },
    {
      "midi": 64,
      "hit": false,
      "t": 218333.11499999903,
      "d": 694.4437500000058,
      "v": 57
    },
    {
      "midi": 79,
      "hit": false,
      "t": 218842.3737499999,
      "d": 564.2355468749884,
      "v": 50
    },
    {
      "midi": 67,
      "hit": false,
      "t": 218868.4153906248,
      "d": 610.5317968750314,
      "v": 52
    },
    {
      "midi": 43,
      "hit": false,
      "t": 218888.66999999902,
      "d": 833.3325000000186,
      "v": 55
    },
    {
      "midi": 31,
      "hit": false,
      "t": 218888.66999999917,
      "d": 1111.109999999986,
      "v": 74
    },
    {
      "midi": 64,
      "hit": false,
      "t": 219380.56765624983,
      "d": 515.0457812500244,
      "v": 47
    },
    {
      "midi": 76,
      "hit": false,
      "t": 219409.5028124999,
      "d": 434.02734375,
      "v": 52
    },
    {
      "midi": 76,
      "hit": false,
      "t": 219438.43796874993,
      "d": 448.49492187501164,
      "v": 79
    },
    {
      "midi": 55,
      "hit": false,
      "t": 219444.22499999905,
      "d": 555.554999999993,
      "v": 40
    },
    {
      "midi": 60,
      "hit": false,
      "t": 219444.22499999905,
      "d": 555.554999999993,
      "v": 48
    },
    {
      "midi": 64,
      "hit": false,
      "t": 219444.22499999905,
      "d": 555.554999999993,
      "v": 55
    },
    {
      "midi": 68,
      "hit": false,
      "t": 219947.6967187499,
      "d": 1073.4942968749965,
      "v": 73
    },
    {
      "midi": 62,
      "hit": false,
      "t": 219950.59023437492,
      "d": 1119.7905468749814,
      "v": 64
    },
    {
      "midi": 76,
      "hit": false,
      "t": 219982.41890624995,
      "d": 766.7816406250058,
      "v": 76
    },
    {
      "midi": 40,
      "hit": false,
      "t": 219999.77999999904,
      "d": 1111.109999999986,
      "v": 55
    },
    {
      "midi": 28,
      "hit": false,
      "t": 219999.77999999915,
      "d": 1111.109999999986,
      "v": 90
    },
    {
      "midi": 56,
      "hit": false,
      "t": 220555.33499999903,
      "d": 694.4437500000058,
      "v": 32
    },
    {
      "midi": 59,
      "hit": false,
      "t": 220555.33499999903,
      "d": 694.4437500000058,
      "v": 52
    },
    {
      "midi": 62,
      "hit": false,
      "t": 220555.33499999903,
      "d": 694.4437500000058,
      "v": 51
    },
    {
      "midi": 64,
      "hit": false,
      "t": 220555.33499999903,
      "d": 694.4437500000058,
      "v": 43
    },
    {
      "midi": 76,
      "hit": false,
      "t": 220812.85789062496,
      "d": 193.86554687499302,
      "v": 64
    },
    {
      "midi": 66,
      "hit": false,
      "t": 221000.9364062499,
      "d": 633.6799218750093,
      "v": 61
    },
    {
      "midi": 69,
      "hit": false,
      "t": 221006.7234374999,
      "d": 529.513359375007,
      "v": 73
    },
    {
      "midi": 76,
      "hit": false,
      "t": 221087.74187499995,
      "d": 737.8464843750116,
      "v": 64
    },
    {
      "midi": 44,
      "hit": false,
      "t": 221110.88999999902,
      "d": 1111.1100000000151,
      "v": 52
    },
    {
      "midi": 32,
      "hit": false,
      "t": 221110.88999999914,
      "d": 1111.109999999986,
      "v": 84
    },
    {
      "midi": 68,
      "hit": false,
      "t": 221559.3849218749,
      "d": 477.4300781250058,
      "v": 56
    },
    {
      "midi": 71,
      "hit": false,
      "t": 221570.9589843749,
      "d": 494.7911718749965,
      "v": 72
    },
    {
      "midi": 56,
      "hit": false,
      "t": 221666.44499999905,
      "d": 555.554999999993,
      "v": 34
    },
    {
      "midi": 59,
      "hit": false,
      "t": 221666.44499999905,
      "d": 555.554999999993,
      "v": 43
    },
    {
      "midi": 62,
      "hit": false,
      "t": 221666.44499999905,
      "d": 555.554999999993,
      "v": 53
    },
    {
      "midi": 64,
      "hit": false,
      "t": 221666.44499999905,
      "d": 555.554999999993,
      "v": 45
    },
    {
      "midi": 76,
      "hit": false,
      "t": 221897.92624999996,
      "d": 176.50445312500233,
      "v": 64
    },
    {
      "midi": 69,
      "hit": false,
      "t": 222080.21773437492,
      "d": 682.8696875000314,
      "v": 61
    },
    {
      "midi": 72,
      "hit": false,
      "t": 222164.12968749992,
      "d": 535.3003906250233,
      "v": 74
    },
    {
      "midi": 76,
      "hit": false,
      "t": 222181.49078124997,
      "d": 740.7399999999907,
      "v": 64
    },
    {
      "midi": 45,
      "hit": false,
      "t": 222221.99999999904,
      "d": 1111.109999999986,
      "v": 55
    },
    {
      "midi": 33,
      "hit": false,
      "t": 222221.99999999913,
      "d": 1111.109999999986,
      "v": 72
    },
    {
      "midi": 71,
      "hit": false,
      "t": 222682.06898437493,
      "d": 627.8928906250512,
      "v": 68
    },
    {
      "midi": 74,
      "hit": false,
      "t": 222696.53656249994,
      "d": 546.8744531250268,
      "v": 72
    },
    {
      "midi": 57,
      "hit": false,
      "t": 222777.55499999903,
      "d": 694.4437500000058,
      "v": 34
    },
    {
      "midi": 60,
      "hit": false,
      "t": 222777.55499999903,
      "d": 694.4437500000058,
      "v": 48
    },
    {
      "midi": 64,
      "hit": false,
      "t": 222777.55499999903,
      "d": 694.4437500000058,
      "v": 52
    },
    {
      "midi": 76,
      "hit": false,
      "t": 223017.71679687497,
      "d": 205.4396093749965,
      "v": 51
    },
    {
      "midi": 76,
      "hit": false,
      "t": 223240.51749999996,
      "d": 561.3420312500093,
      "v": 74
    },
    {
      "midi": 72,
      "hit": false,
      "t": 223263.66562499997,
      "d": 1189.2349218749732,
      "v": 68
    },
    {
      "midi": 76,
      "hit": false,
      "t": 223324.42945312496,
      "d": 662.6150781250035,
      "v": 64
    },
    {
      "midi": 52,
      "hit": false,
      "t": 223333.10999999903,
      "d": 694.4437500000349,
      "v": 56
    },
    {
      "midi": 40,
      "hit": false,
      "t": 223333.1099999991,
      "d": 555.554999999993,
      "v": 80
    },
    {
      "midi": 69,
      "hit": false,
      "t": 223796.07249999998,
      "d": 651.0410156249709,
      "v": 68
    },
    {
      "midi": 45,
      "hit": false,
      "t": 223888.66499999905,
      "d": 555.5550000000221,
      "v": 50
    },
    {
      "midi": 57,
      "hit": false,
      "t": 223888.66499999905,
      "d": 555.5550000000221,
      "v": 42
    },
    {
      "midi": 60,
      "hit": false,
      "t": 223888.66499999905,
      "d": 555.5550000000221,
      "v": 50
    },
    {
      "midi": 64,
      "hit": false,
      "t": 223888.66499999905,
      "d": 555.5550000000221,
      "v": 56
    },
    {
      "midi": 33,
      "hit": false,
      "t": 223888.6649999991,
      "d": 555.554999999993,
      "v": 58
    },
    {
      "midi": 76,
      "hit": false,
      "t": 224096.99812499995,
      "d": 312.499687500007,
      "v": 64
    },
    {
      "midi": 67,
      "hit": false,
      "t": 224386.34968749995,
      "d": 619.2123437499686,
      "v": 61
    },
    {
      "midi": 71,
      "hit": false,
      "t": 224395.03023437495,
      "d": 549.7679687499767,
      "v": 73
    },
    {
      "midi": 74,
      "hit": false,
      "t": 224438.43296874996,
      "d": 1655.0909375000047,
      "v": 67
    },
    {
      "midi": 43,
      "hit": false,
      "t": 224444.21999999907,
      "d": 1111.109999999986,
      "v": 57
    },
    {
      "midi": 31,
      "hit": false,
      "t": 224444.2199999991,
      "d": 1111.109999999986,
      "v": 78
    },
    {
      "midi": 72,
      "hit": false,
      "t": 224936.11765624993,
      "d": 561.3420312499802,
      "v": 71
    },
    {
      "midi": 69,
      "hit": false,
      "t": 224936.11765624993,
      "d": 607.6382812499942,
      "v": 67
    },
    {
      "midi": 55,
      "hit": false,
      "t": 224999.77499999906,
      "d": 555.554999999993,
      "v": 46
    },
    {
      "midi": 59,
      "hit": false,
      "t": 224999.77499999906,
      "d": 694.4437500000058,
      "v": 51
    },
    {
      "midi": 62,
      "hit": false,
      "t": 224999.77499999906,
      "d": 694.4437500000058,
      "v": 53
    },
    {
      "midi": 71,
      "hit": false,
      "t": 225482.99210937493,
      "d": 708.9113281249884,
      "v": 64
    },
    {
      "midi": 74,
      "hit": false,
      "t": 225491.67265624992,
      "d": 622.1058593750058,
      "v": 67
    },
    {
      "midi": 47,
      "hit": false,
      "t": 225555.32999999906,
      "d": 1111.1100000000151,
      "v": 56
    },
    {
      "midi": 35,
      "hit": false,
      "t": 225555.32999999908,
      "d": 1111.109999999986,
      "v": 72
    },
    {
      "midi": 77,
      "hit": false,
      "t": 226090.63039062492,
      "d": 494.7911718749674,
      "v": 56
    },
    {
      "midi": 72,
      "hit": false,
      "t": 226093.52390624993,
      "d": 486.11062499997206,
      "v": 74
    },
    {
      "midi": 53,
      "hit": false,
      "t": 226110.88499999908,
      "d": 555.554999999993,
      "v": 37
    },
    {
      "midi": 59,
      "hit": false,
      "t": 226110.88499999908,
      "d": 555.554999999993,
      "v": 46
    },
    {
      "midi": 62,
      "hit": false,
      "t": 226110.88499999908,
      "d": 555.554999999993,
      "v": 43
    },
    {
      "midi": 77,
      "hit": false,
      "t": 226110.88499999995,
      "d": 393.5181250000023,
      "v": 68
    },
    {
      "midi": 77,
      "hit": false,
      "t": 226640.39835937496,
      "d": 497.68468750000466,
      "v": 67
    },
    {
      "midi": 77,
      "hit": false,
      "t": 226651.9724218749,
      "d": 561.3420312499802,
      "v": 63
    },
    {
      "midi": 72,
      "hit": false,
      "t": 226657.7594531249,
      "d": 2210.6459374999977,
      "v": 72
    },
    {
      "midi": 48,
      "hit": false,
      "t": 226666.43999999907,
      "d": 1111.109999999986,
      "v": 58
    },
    {
      "midi": 36,
      "hit": false,
      "t": 226666.43999999907,
      "d": 1111.109999999986,
      "v": 72
    },
    {
      "midi": 76,
      "hit": false,
      "t": 227149.65710937488,
      "d": 1718.7482812500093,
      "v": 59
    },
    {
      "midi": 76,
      "hit": false,
      "t": 227184.37929687498,
      "d": 1707.1742187500058,
      "v": 63
    },
    {
      "midi": 55,
      "hit": false,
      "t": 227221.99499999906,
      "d": 833.3324999999895,
      "v": 46
    },
    {
      "midi": 60,
      "hit": false,
      "t": 227221.99499999906,
      "d": 833.3324999999895,
      "v": 42
    },
    {
      "midi": 64,
      "hit": false,
      "t": 227221.99499999906,
      "d": 833.3324999999895,
      "v": 55
    },
    {
      "midi": 43,
      "hit": false,
      "t": 227777.54999999906,
      "d": 1111.109999999986,
      "v": 55
    },
    {
      "midi": 31,
      "hit": false,
      "t": 227777.54999999906,
      "d": 1111.109999999986,
      "v": 74
    },
    {
      "midi": 55,
      "hit": false,
      "t": 228333.10499999905,
      "d": 555.554999999993,
      "v": 41
    },
    {
      "midi": 60,
      "hit": false,
      "t": 228333.10499999905,
      "d": 555.554999999993,
      "v": 43
    },
    {
      "midi": 64,
      "hit": false,
      "t": 228333.10499999905,
      "d": 555.554999999993,
      "v": 47
    },
    {
      "midi": 48,
      "hit": false,
      "t": 228888.65999999904,
      "d": 277.7774999999965,
      "v": 64
    },
    {
      "midi": 36,
      "hit": false,
      "t": 228888.65999999904,
      "d": 277.7774999999965,
      "v": 77
    },
    {
      "midi": 76,
      "hit": false,
      "t": 229435.53445312497,
      "d": 81.01843749999534,
      "v": 62
    },
    {
      "midi": 76,
      "hit": false,
      "t": 229594.67781249995,
      "d": 98.37953124998603,
      "v": 48
    },
    {
      "midi": 77,
      "hit": false,
      "t": 229800.11742187495,
      "d": 439.8143749999872,
      "v": 63
    },
    {
      "midi": 43,
      "hit": false,
      "t": 229820.37203124905,
      "d": 1249.9987499999988,
      "v": 57
    },
    {
      "midi": 53,
      "hit": false,
      "t": 229866.66828124906,
      "d": 972.2212500000023,
      "v": 35
    },
    {
      "midi": 43,
      "hit": false,
      "t": 229921.6450781249,
      "d": 1157.406250000029,
      "v": 67
    },
    {
      "midi": 53,
      "hit": false,
      "t": 229936.1126562499,
      "d": 1067.7072656250093,
      "v": 45
    },
    {
      "midi": 62,
      "hit": false,
      "t": 229936.1126562499,
      "d": 1189.2349218750023,
      "v": 61
    },
    {
      "midi": 59,
      "hit": false,
      "t": 229941.89968749907,
      "d": 1111.109999999986,
      "v": 52
    },
    {
      "midi": 59,
      "hit": false,
      "t": 229944.7932031249,
      "d": 1073.4942968750256,
      "v": 58
    },
    {
      "midi": 31,
      "hit": false,
      "t": 229999.76999999903,
      "d": 1111.109999999986,
      "v": 76
    },
    {
      "midi": 62,
      "hit": false,
      "t": 229999.76999999906,
      "d": 972.2212500000023,
      "v": 46
    },
    {
      "midi": 77,
      "hit": false,
      "t": 230335.41781249995,
      "d": 141.78226562499185,
      "v": 55
    },
    {
      "midi": 74,
      "hit": false,
      "t": 230549.53796874994,
      "d": 92.59249999999884,
      "v": 52
    },
    {
      "midi": 74,
      "hit": false,
      "t": 230714.46835937494,
      "d": 101.27304687499418,
      "v": 55
    },
    {
      "midi": 72,
      "hit": false,
      "t": 230879.39874999993,
      "d": 318.2867187499942,
      "v": 62
    },
    {
      "midi": 60,
      "hit": false,
      "t": 231050.11617187492,
      "d": 292.24507812497905,
      "v": 44
    },
    {
      "midi": 48,
      "hit": false,
      "t": 231073.26429687493,
      "d": 254.62937499996042,
      "v": 56
    },
    {
      "midi": 55,
      "hit": false,
      "t": 231096.4124218749,
      "d": 231.48124999998254,
      "v": 71
    },
    {
      "midi": 36,
      "hit": false,
      "t": 231110.87999999902,
      "d": 416.6662500000093,
      "v": 78
    },
    {
      "midi": 48,
      "hit": false,
      "t": 231110.87999999904,
      "d": 277.7774999999965,
      "v": 53
    },
    {
      "midi": 55,
      "hit": false,
      "t": 231110.87999999904,
      "d": 277.7774999999965,
      "v": 28
    },
    {
      "midi": 60,
      "hit": false,
      "t": 231110.87999999904,
      "d": 277.7774999999965,
      "v": 33
    },
    {
      "midi": 64,
      "hit": false,
      "t": 231110.87999999904,
      "d": 277.7774999999965,
      "v": 48
    },
    {
      "midi": 72,
      "hit": false,
      "t": 231261.34281249993,
      "d": 176.50445312500233,
      "v": 45
    },
    {
      "midi": 76,
      "hit": false,
      "t": 231837.15242187493,
      "d": 78.1249218749872,
      "v": 55
    },
    {
      "midi": 76,
      "hit": false,
      "t": 232010.76335937492,
      "d": 86.80546875001164,
      "v": 55
    },
    {
      "midi": 43,
      "hit": false,
      "t": 232065.74015624903,
      "d": 1249.998750000028,
      "v": 50
    },
    {
      "midi": 55,
      "hit": false,
      "t": 232120.71695312404,
      "d": 1666.6650000000373,
      "v": 38
    },
    {
      "midi": 62,
      "hit": false,
      "t": 232152.5456249999,
      "d": 1131.364609375043,
      "v": 57
    },
    {
      "midi": 59,
      "hit": false,
      "t": 232161.2261718749,
      "d": 1148.7257031250338,
      "v": 50
    },
    {
      "midi": 53,
      "hit": false,
      "t": 232164.11968749992,
      "d": 1004.0499218750047,
      "v": 42
    },
    {
      "midi": 62,
      "hit": false,
      "t": 232167.01320312405,
      "d": 1111.1100000000151,
      "v": 33
    },
    {
      "midi": 43,
      "hit": false,
      "t": 232193.0548437499,
      "d": 1076.3878125000338,
      "v": 38
    },
    {
      "midi": 77,
      "hit": false,
      "t": 232213.30945312494,
      "d": 300.9256250000035,
      "v": 63
    },
    {
      "midi": 31,
      "hit": false,
      "t": 232221.98999999903,
      "d": 1111.109999999986,
      "v": 72
    },
    {
      "midi": 65,
      "hit": false,
      "t": 232221.98999999906,
      "d": 972.2212500000023,
      "v": 52
    },
    {
      "midi": 77,
      "hit": false,
      "t": 232627.08218749994,
      "d": 277.7774999999965,
      "v": 47
    },
    {
      "midi": 74,
      "hit": false,
      "t": 232971.41054687495,
      "d": 89.69898437499069,
      "v": 57
    },
    {
      "midi": 74,
      "hit": false,
      "t": 233136.34093749995,
      "d": 121.52765624999302,
      "v": 55
    },
    {
      "midi": 64,
      "hit": false,
      "t": 233254.97507812493,
      "d": 312.499687500007,
      "v": 52
    },
    {
      "midi": 60,
      "hit": false,
      "t": 233272.33617187495,
      "d": 309.60617187499884,
      "v": 50
    },
    {
      "midi": 55,
      "hit": false,
      "t": 233275.22968749996,
      "d": 292.24507812497905,
      "v": 58
    },
    {
      "midi": 48,
      "hit": false,
      "t": 233301.27132812495,
      "d": 277.7774999999965,
      "v": 49
    },
    {
      "midi": 72,
      "hit": false,
      "t": 233327.31296874993,
      "d": 269.09695312500116,
      "v": 55
    },
    {
      "midi": 36,
      "hit": false,
      "t": 233333.09999999902,
      "d": 277.7774999999965,
      "v": 74
    },
    {
      "midi": 64,
      "hit": false,
      "t": 233335.99351562405,
      "d": 416.6662500000093,
      "v": 41
    },
    {
      "midi": 60,
      "hit": false,
      "t": 233338.88703124906,
      "d": 416.6662500000093,
      "v": 46
    },
    {
      "midi": 48,
      "hit": false,
      "t": 233347.56757812406,
      "d": 277.7774999999965,
      "v": 52
    },
    {
      "midi": 72,
      "hit": false,
      "t": 233683.21539062494,
      "d": 193.86554687499302,
      "v": 51
    },
    {
      "midi": 76,
      "hit": false,
      "t": 234065.15945312494,
      "d": 83.91195312500349,
      "v": 56
    },
    {
      "midi": 76,
      "hit": false,
      "t": 234244.55742187495,
      "d": 95.48601562500698,
      "v": 52
    },
    {
      "midi": 43,
      "hit": false,
      "t": 234285.06664062408,
      "d": 1111.1100000000442,
      "v": 46
    },
    {
      "midi": 53,
      "hit": false,
      "t": 234345.83046874907,
      "d": 972.2212500000314,
      "v": 32
    },
    {
      "midi": 53,
      "hit": false,
      "t": 234392.12671874996,
      "d": 963.5407031249779,
      "v": 38
    },
    {
      "midi": 62,
      "hit": false,
      "t": 234392.12671874996,
      "d": 1056.1332031249767,
      "v": 50
    },
    {
      "midi": 59,
      "hit": false,
      "t": 234397.91374999995,
      "d": 1145.8321875000256,
      "v": 50
    },
    {
      "midi": 43,
      "hit": false,
      "t": 234403.70078124994,
      "d": 1093.7489062500244,
      "v": 38
    },
    {
      "midi": 59,
      "hit": false,
      "t": 234412.3813281241,
      "d": 972.2212500000314,
      "v": 33
    },
    {
      "midi": 31,
      "hit": false,
      "t": 234444.209999999,
      "d": 1111.109999999986,
      "v": 72
    },
    {
      "midi": 77,
      "hit": false,
      "t": 234444.20999999996,
      "d": 225.69421874999534,
      "v": 58
    },
    {
      "midi": 62,
      "hit": false,
      "t": 234447.1035156241,
      "d": 972.2212500000314,
      "v": 56
    },
    {
      "midi": 77,
      "hit": false,
      "t": 234803.00593749995,
      "d": 306.7126562499907,
      "v": 42
    },
    {
      "midi": 74,
      "hit": false,
      "t": 235187.84351562493,
      "d": 107.06007812501048,
      "v": 56
    },
    {
      "midi": 74,
      "hit": false,
      "t": 235370.13499999995,
      "d": 121.52765624999302,
      "v": 55
    },
    {
      "midi": 48,
      "hit": false,
      "t": 235442.47289062414,
      "d": 1111.1100000000151,
      "v": 28
    },
    {
      "midi": 60,
      "hit": false,
      "t": 235482.98210937495,
      "d": 344.3283593750384,
      "v": 38
    },
    {
      "midi": 52,
      "hit": false,
      "t": 235485.87562499914,
      "d": 694.4437500000058,
      "v": 35
    },
    {
      "midi": 64,
      "hit": false,
      "t": 235485.87562499996,
      "d": 332.7542968750349,
      "v": 48
    },
    {
      "midi": 55,
      "hit": false,
      "t": 235488.76914062497,
      "d": 326.9672656250186,
      "v": 48
    },
    {
      "midi": 48,
      "hit": false,
      "t": 235497.44968749996,
      "d": 318.2867187500233,
      "v": 52
    },
    {
      "midi": 55,
      "hit": false,
      "t": 235529.27835937415,
      "d": 555.554999999993,
      "v": 20
    },
    {
      "midi": 36,
      "hit": false,
      "t": 235555.319999999,
      "d": 416.6662500000093,
      "v": 76
    },
    {
      "midi": 76,
      "hit": false,
      "t": 235569.78757812493,
      "d": 280.67101562500466,
      "v": 61
    },
    {
      "midi": 60,
      "hit": false,
      "t": 235572.68109374915,
      "d": 555.554999999993,
      "v": 47
    },
    {
      "midi": 76,
      "hit": false,
      "t": 235943.05109374993,
      "d": 292.24507812500815,
      "v": 47
    },
    {
      "midi": 74,
      "hit": false,
      "t": 236278.69890624995,
      "d": 167.82390624997788,
      "v": 56
    },
    {
      "midi": 72,
      "hit": false,
      "t": 236440.73578124994,
      "d": 176.50445312497322,
      "v": 52
    },
    {
      "midi": 43,
      "hit": false,
      "t": 236513.07367187415,
      "d": 1111.1100000000151,
      "v": 27
    },
    {
      "midi": 53,
      "hit": false,
      "t": 236547.79585937416,
      "d": 972.2212500000023,
      "v": 23
    },
    {
      "midi": 43,
      "hit": false,
      "t": 236585.4115625,
      "d": 1087.9618750000081,
      "v": 59
    },
    {
      "midi": 62,
      "hit": false,
      "t": 236585.4115625,
      "d": 1163.1932812499872,
      "v": 49
    },
    {
      "midi": 59,
      "hit": false,
      "t": 236594.092109375,
      "d": 1134.258124999993,
      "v": 54
    },
    {
      "midi": 53,
      "hit": false,
      "t": 236596.985625,
      "d": 914.350937500014,
      "v": 39
    },
    {
      "midi": 59,
      "hit": false,
      "t": 236623.02726562414,
      "d": 1111.109999999986,
      "v": 19
    },
    {
      "midi": 31,
      "hit": false,
      "t": 236666.429999999,
      "d": 1111.109999999986,
      "v": 76
    },
    {
      "midi": 62,
      "hit": false,
      "t": 236669.32351562416,
      "d": 972.2212500000023,
      "v": 45
    },
    {
      "midi": 74,
      "hit": false,
      "t": 236672.21703124992,
      "d": 245.94882812499418,
      "v": 52
    },
    {
      "midi": 74,
      "hit": false,
      "t": 237022.33242187492,
      "d": 335.64781250001397,
      "v": 47
    },
    {
      "midi": 72,
      "hit": false,
      "t": 237384.02187499992,
      "d": 173.61093749999418,
      "v": 45
    },
    {
      "midi": 71,
      "hit": false,
      "t": 237572.10039062492,
      "d": 188.07851562500582,
      "v": 52
    },
    {
      "midi": 48,
      "hit": false,
      "t": 237629.97070312416,
      "d": 416.6662499999511,
      "v": 33
    },
    {
      "midi": 55,
      "hit": false,
      "t": 237673.3734375,
      "d": 344.3283593749802,
      "v": 51
    },
    {
      "midi": 55,
      "hit": false,
      "t": 237679.16046874915,
      "d": 416.6662499999511,
      "v": 31
    },
    {
      "midi": 60,
      "hit": false,
      "t": 237682.053984375,
      "d": 338.541328124993,
      "v": 67
    },
    {
      "midi": 48,
      "hit": false,
      "t": 237687.841015625,
      "d": 329.8607812499977,
      "v": 59
    },
    {
      "midi": 60,
      "hit": false,
      "t": 237708.09562499914,
      "d": 416.6662499999511,
      "v": 8
    },
    {
      "midi": 64,
      "hit": false,
      "t": 237760.17890624912,
      "d": 416.6662499999802,
      "v": 22
    },
    {
      "midi": 72,
      "hit": false,
      "t": 237760.17890624993,
      "d": 344.3283593750093,
      "v": 57
    },
    {
      "midi": 36,
      "hit": false,
      "t": 237777.539999999,
      "d": 416.6662500000093,
      "v": 76
    },
    {
      "midi": 84,
      "hit": false,
      "t": 238665.84929687093,
      "d": 269.096953124681,
      "v": 60
    },
    {
      "midi": 83,
      "hit": false,
      "t": 238908.90460937063,
      "d": 179.39796874998137,
      "v": 76
    },
    {
      "midi": 81,
      "hit": false,
      "t": 239429.7374218706,
      "d": 208.33312500000466,
      "v": 71
    },
    {
      "midi": 79,
      "hit": false,
      "t": 239999.75999999561,
      "d": 2407.4049999996205,
      "v": 79
    },
    {
      "midi": 31,
      "hit": false,
      "t": 239999.759999999,
      "d": 1111.109999999986,
      "v": 76
    },
    {
      "midi": 43,
      "hit": false,
      "t": 239999.7599999991,
      "d": 972.2212500000023,
      "v": 58
    },
    {
      "midi": 91,
      "hit": false,
      "t": 240005.54703125,
      "d": 104.16656250000233,
      "v": 79
    },
    {
      "midi": 91,
      "hit": false,
      "t": 240529.273359375,
      "d": 101.27304687499418,
      "v": 79
    },
    {
      "midi": 55,
      "hit": false,
      "t": 240555.3149999991,
      "d": 972.2212500000314,
      "v": 35
    },
    {
      "midi": 59,
      "hit": false,
      "t": 240555.3149999991,
      "d": 972.2212500000314,
      "v": 46
    },
    {
      "midi": 65,
      "hit": false,
      "t": 240555.3149999991,
      "d": 972.2212500000314,
      "v": 48
    },
    {
      "midi": 91,
      "hit": false,
      "t": 241076.14781249998,
      "d": 104.16656250000233,
      "v": 83
    },
    {
      "midi": 38,
      "hit": false,
      "t": 241110.86999999898,
      "d": 1111.109999999986,
      "v": 75
    },
    {
      "midi": 50,
      "hit": false,
      "t": 241110.86999999912,
      "d": 1111.1100000000151,
      "v": 50
    },
    {
      "midi": 91,
      "hit": false,
      "t": 241608.5546875,
      "d": 107.06007812501048,
      "v": 82
    },
    {
      "midi": 55,
      "hit": false,
      "t": 241666.42499999914,
      "d": 972.2212500000023,
      "v": 42
    },
    {
      "midi": 59,
      "hit": false,
      "t": 241666.42499999914,
      "d": 972.2212500000023,
      "v": 52
    },
    {
      "midi": 65,
      "hit": false,
      "t": 241666.42499999914,
      "d": 972.2212500000023,
      "v": 55
    },
    {
      "midi": 91,
      "hit": false,
      "t": 242172.79023437502,
      "d": 101.27304687499418,
      "v": 82
    },
    {
      "midi": 31,
      "hit": false,
      "t": 242221.97999999896,
      "d": 1111.109999999986,
      "v": 72
    },
    {
      "midi": 43,
      "hit": false,
      "t": 242221.97999999914,
      "d": 1111.1100000000151,
      "v": 57
    },
    {
      "midi": 91,
      "hit": false,
      "t": 242739.919296875,
      "d": 95.48601562500698,
      "v": 84
    },
    {
      "midi": 55,
      "hit": false,
      "t": 242777.53499999916,
      "d": 972.2212500000023,
      "v": 53
    },
    {
      "midi": 59,
      "hit": false,
      "t": 242777.53499999916,
      "d": 972.2212500000023,
      "v": 43
    },
    {
      "midi": 65,
      "hit": false,
      "t": 242777.53499999916,
      "d": 972.2212500000023,
      "v": 53
    },
    {
      "midi": 89,
      "hit": false,
      "t": 243104.50226561967,
      "d": 248.84234374965308,
      "v": 64
    },
    {
      "midi": 91,
      "hit": false,
      "t": 243324.40945312503,
      "d": 101.27304687499418,
      "v": 84
    },
    {
      "midi": 38,
      "hit": false,
      "t": 243333.08999999895,
      "d": 1111.109999999986,
      "v": 74
    },
    {
      "midi": 50,
      "hit": false,
      "t": 243333.08999999915,
      "d": 972.2212500000314,
      "v": 53
    },
    {
      "midi": 88,
      "hit": false,
      "t": 243362.02515624432,
      "d": 205.4396093749965,
      "v": 67
    },
    {
      "midi": 86,
      "hit": false,
      "t": 243874.1774218693,
      "d": 225.69421874999534,
      "v": 67
    },
    {
      "midi": 91,
      "hit": false,
      "t": 243874.17742187504,
      "d": 95.48601562500698,
      "v": 87
    },
    {
      "midi": 55,
      "hit": false,
      "t": 243888.64499999917,
      "d": 555.5550000000221,
      "v": 41
    },
    {
      "midi": 59,
      "hit": false,
      "t": 243888.64499999917,
      "d": 555.5550000000221,
      "v": 41
    },
    {
      "midi": 65,
      "hit": false,
      "t": 243888.64499999917,
      "d": 555.5550000000221,
      "v": 53
    },
    {
      "midi": 91,
      "hit": false,
      "t": 244418.15835937505,
      "d": 95.48601562500698,
      "v": 84
    },
    {
      "midi": 84,
      "hit": false,
      "t": 244441.3064843693,
      "d": 2494.210468749312,
      "v": 68
    },
    {
      "midi": 36,
      "hit": false,
      "t": 244444.19999999893,
      "d": 1111.109999999986,
      "v": 74
    },
    {
      "midi": 48,
      "hit": false,
      "t": 244444.1999999992,
      "d": 1111.109999999986,
      "v": 55
    },
    {
      "midi": 91,
      "hit": false,
      "t": 244956.35226562506,
      "d": 98.37953124998603,
      "v": 84
    },
    {
      "midi": 55,
      "hit": false,
      "t": 244999.7549999992,
      "d": 694.4437500000058,
      "v": 42
    },
    {
      "midi": 60,
      "hit": false,
      "t": 244999.7549999992,
      "d": 694.4437500000058,
      "v": 40
    },
    {
      "midi": 64,
      "hit": false,
      "t": 244999.7549999992,
      "d": 694.4437500000058,
      "v": 48
    },
    {
      "midi": 91,
      "hit": false,
      "t": 245523.48132812505,
      "d": 95.48601562500698,
      "v": 79
    },
    {
      "midi": 31,
      "hit": false,
      "t": 245555.30999999892,
      "d": 1111.109999999986,
      "v": 75
    },
    {
      "midi": 43,
      "hit": false,
      "t": 245555.30999999918,
      "d": 1111.1100000000151,
      "v": 55
    },
    {
      "midi": 91,
      "hit": false,
      "t": 246073.24929687506,
      "d": 101.27304687499418,
      "v": 82
    },
    {
      "midi": 55,
      "hit": false,
      "t": 246110.8649999992,
      "d": 694.4437500000058,
      "v": 37
    },
    {
      "midi": 60,
      "hit": false,
      "t": 246110.8649999992,
      "d": 694.4437500000058,
      "v": 45
    },
    {
      "midi": 64,
      "hit": false,
      "t": 246110.8649999992,
      "d": 694.4437500000058,
      "v": 56
    },
    {
      "midi": 91,
      "hit": false,
      "t": 246625.91078125004,
      "d": 107.06007812501048,
      "v": 82
    },
    {
      "midi": 36,
      "hit": false,
      "t": 246666.4199999989,
      "d": 1111.109999999986,
      "v": 75
    },
    {
      "midi": 48,
      "hit": false,
      "t": 246666.4199999992,
      "d": 1111.1100000000151,
      "v": 56
    },
    {
      "midi": 91,
      "hit": false,
      "t": 247195.93335937505,
      "d": 104.16656250000233,
      "v": 82
    },
    {
      "midi": 55,
      "hit": false,
      "t": 247221.97499999922,
      "d": 694.4437500000058,
      "v": 46
    },
    {
      "midi": 60,
      "hit": false,
      "t": 247221.97499999922,
      "d": 694.4437500000058,
      "v": 41
    },
    {
      "midi": 64,
      "hit": false,
      "t": 247221.97499999922,
      "d": 694.4437500000058,
      "v": 53
    },
    {
      "midi": 84,
      "hit": false,
      "t": 247540.2617187434,
      "d": 208.33312499983003,
      "v": 66
    },
    {
      "midi": 91,
      "hit": false,
      "t": 247737.02078125006,
      "d": 101.27304687499418,
      "v": 79
    },
    {
      "midi": 83,
      "hit": false,
      "t": 247771.74296874323,
      "d": 219.90718750000815,
      "v": 66
    },
    {
      "midi": 31,
      "hit": false,
      "t": 247777.5299999989,
      "d": 972.2212500000023,
      "v": 80
    },
    {
      "midi": 43,
      "hit": false,
      "t": 247777.5299999992,
      "d": 694.4437500000349,
      "v": 56
    },
    {
      "midi": 91,
      "hit": false,
      "t": 248289.68226562504,
      "d": 104.16656250000233,
      "v": 82
    },
    {
      "midi": 81,
      "hit": false,
      "t": 248327.29796874325,
      "d": 271.9904687500093,
      "v": 71
    },
    {
      "midi": 55,
      "hit": false,
      "t": 248333.08499999924,
      "d": 555.5550000000221,
      "v": 37
    },
    {
      "midi": 60,
      "hit": false,
      "t": 248333.08499999924,
      "d": 555.5550000000221,
      "v": 42
    },
    {
      "midi": 64,
      "hit": false,
      "t": 248333.08499999924,
      "d": 555.5550000000221,
      "v": 55
    },
    {
      "midi": 91,
      "hit": false,
      "t": 248845.23726562504,
      "d": 112.84710937499767,
      "v": 84
    },
    {
      "midi": 79,
      "hit": false,
      "t": 248879.95945311827,
      "d": 2502.8910156246275,
      "v": 71
    },
    {
      "midi": 31,
      "hit": false,
      "t": 248888.6399999989,
      "d": 1111.109999999986,
      "v": 76
    },
    {
      "midi": 43,
      "hit": false,
      "t": 248888.63999999926,
      "d": 694.4437500000058,
      "v": 57
    },
    {
      "midi": 91,
      "hit": false,
      "t": 249397.89875000002,
      "d": 107.06007812501048,
      "v": 84
    },
    {
      "midi": 55,
      "hit": false,
      "t": 249444.19499999925,
      "d": 555.5550000000221,
      "v": 31
    },
    {
      "midi": 59,
      "hit": false,
      "t": 249444.19499999925,
      "d": 555.5550000000221,
      "v": 47
    },
    {
      "midi": 65,
      "hit": false,
      "t": 249444.19499999925,
      "d": 555.5550000000221,
      "v": 37
    },
    {
      "midi": 91,
      "hit": false,
      "t": 249959.24078125003,
      "d": 104.16656250000233,
      "v": 79
    },
    {
      "midi": 38,
      "hit": false,
      "t": 249999.7499999989,
      "d": 1111.109999999986,
      "v": 72
    },
    {
      "midi": 50,
      "hit": false,
      "t": 249999.74999999927,
      "d": 1111.109999999986,
      "v": 55
    },
    {
      "midi": 91,
      "hit": false,
      "t": 250517.68929687503,
      "d": 118.63414062501397,
      "v": 79
    },
    {
      "midi": 55,
      "hit": false,
      "t": 250555.30499999927,
      "d": 555.554999999993,
      "v": 31
    },
    {
      "midi": 59,
      "hit": false,
      "t": 250555.30499999927,
      "d": 555.554999999993,
      "v": 38
    },
    {
      "midi": 65,
      "hit": false,
      "t": 250555.30499999927,
      "d": 555.554999999993,
      "v": 55
    },
    {
      "midi": 91,
      "hit": false,
      "t": 251067.45726562504,
      "d": 112.84710937499767,
      "v": 84
    },
    {
      "midi": 31,
      "hit": false,
      "t": 251110.85999999888,
      "d": 1111.109999999986,
      "v": 72
    },
    {
      "midi": 43,
      "hit": false,
      "t": 251110.85999999926,
      "d": 1111.109999999986,
      "v": 55
    },
    {
      "midi": 91,
      "hit": false,
      "t": 251599.86414062502,
      "d": 112.84710937499767,
      "v": 78
    },
    {
      "midi": 55,
      "hit": false,
      "t": 251666.41499999925,
      "d": 555.554999999993,
      "v": 35
    },
    {
      "midi": 59,
      "hit": false,
      "t": 251666.41499999925,
      "d": 555.554999999993,
      "v": 45
    },
    {
      "midi": 65,
      "hit": false,
      "t": 251666.41499999925,
      "d": 555.554999999993,
      "v": 56
    },
    {
      "midi": 89,
      "hit": false,
      "t": 251981.80820311763,
      "d": 228.58773437485797,
      "v": 68
    },
    {
      "midi": 91,
      "hit": false,
      "t": 252175.67375000002,
      "d": 109.95359374998952,
      "v": 79
    },
    {
      "midi": 88,
      "hit": false,
      "t": 252204.6089062425,
      "d": 245.94882812499418,
      "v": 66
    },
    {
      "midi": 38,
      "hit": false,
      "t": 252221.96999999887,
      "d": 1111.109999999986,
      "v": 72
    },
    {
      "midi": 50,
      "hit": false,
      "t": 252221.96999999924,
      "d": 833.3324999999895,
      "v": 51
    },
    {
      "midi": 91,
      "hit": false,
      "t": 252739.909296875,
      "d": 118.63414062501397,
      "v": 76
    },
    {
      "midi": 86,
      "hit": false,
      "t": 252754.3768749925,
      "d": 269.09695312500116,
      "v": 71
    },
    {
      "midi": 55,
      "hit": false,
      "t": 252777.52499999924,
      "d": 555.554999999993,
      "v": 29
    },
    {
      "midi": 59,
      "hit": false,
      "t": 252777.52499999924,
      "d": 555.554999999993,
      "v": 33
    },
    {
      "midi": 65,
      "hit": false,
      "t": 252777.52499999924,
      "d": 555.554999999993,
      "v": 57
    },
    {
      "midi": 96,
      "hit": false,
      "t": 253295.46429687503,
      "d": 159.14335937501164,
      "v": 67
    },
    {
      "midi": 84,
      "hit": false,
      "t": 253327.29296874252,
      "d": 439.8143749999872,
      "v": 79
    },
    {
      "midi": 36,
      "hit": false,
      "t": 253333.07999999885,
      "d": 277.7774999999965,
      "v": 70
    },
    {
      "midi": 48,
      "hit": false,
      "t": 253333.07999999923,
      "d": 277.7774999999965,
      "v": 52
    },
    {
      "midi": 59,
      "hit": false,
      "t": 254308.19476562424,
      "d": 277.7774999999965,
      "v": 28
    },
    {
      "midi": 62,
      "hit": false,
      "t": 254351.59749999925,
      "d": 277.7774999999674,
      "v": 51
    },
    {
      "midi": 79,
      "hit": false,
      "t": 254371.85210937503,
      "d": 173.61093749999418,
      "v": 63
    },
    {
      "midi": 31,
      "hit": false,
      "t": 254444.18999999884,
      "d": 277.7774999999965,
      "v": 70
    },
    {
      "midi": 43,
      "hit": false,
      "t": 254444.18999999925,
      "d": 1111.109999999957,
      "v": 55
    },
    {
      "midi": 65,
      "hit": false,
      "t": 254447.08351562425,
      "d": 138.8887499999837,
      "v": 33
    },
    {
      "midi": 67,
      "hit": false,
      "t": 254473.12515624924,
      "d": 138.8887499999837,
      "v": 55
    },
    {
      "midi": 64,
      "hit": false,
      "t": 255390.3696093742,
      "d": 277.7774999999965,
      "v": 20
    },
    {
      "midi": 67,
      "hit": false,
      "t": 255439.5593749992,
      "d": 277.7774999999965,
      "v": 33
    },
    {
      "midi": 72,
      "hit": false,
      "t": 255511.8972656242,
      "d": 277.7774999999965,
      "v": 48
    },
    {
      "midi": 84,
      "hit": false,
      "t": 255540.83242187503,
      "d": 228.5877343750035,
      "v": 58
    },
    {
      "midi": 24,
      "hit": false,
      "t": 255555.29999999882,
      "d": 277.7774999999965,
      "v": 70
    },
    {
      "midi": 48,
      "hit": false,
      "t": 255555.2999999992,
      "d": 277.7774999999965,
      "v": 55
    }
  ]
}