{
  "jsonPath": "Blues/Texas Blues/Angela Strehli/sweet-little-baby-boy.json",
  "path": "Blues\\Texas Blues\\Angela Strehli\\Sweet Little Baby Boy.mid",
  "name": "Sweet Little Baby Boy",
  "difficulty": "Advanced",
  "bpm": 55.00000458333371,
  "notes": [
    {
      "midi": 28,
      "hit": false,
      "t": 52363.632000000005,
      "d": 90.90908333333209,
      "v": 87
    },
    {
      "midi": 40,
      "hit": false,
      "t": 52363.632000000005,
      "d": 181.81816666666418,
      "v": 87
    },
    {
      "midi": 28,
      "hit": false,
      "t": 52727.26833333333,
      "d": 90.90908333333209,
      "v": 87
    },
    {
      "midi": 40,
      "hit": false,
      "t": 52727.26833333333,
      "d": 181.81816666666418,
      "v": 63
    },
    {
      "midi": 28,
      "hit": false,
      "t": 53090.90466666666,
      "d": 136.36362499999814,
      "v": 80
    },
    {
      "midi": 40,
      "hit": false,
      "t": 53090.90466666666,
      "d": 136.36362499999814,
      "v": 80
    },
    {
      "midi": 28,
      "hit": false,
      "t": 53454.54099999999,
      "d": 181.81816666666418,
      "v": 80
    },
    {
      "midi": 40,
      "hit": false,
      "t": 53454.54099999999,
      "d": 181.81816666666418,
      "v": 63
    },
    {
      "midi": 28,
      "hit": false,
      "t": 53818.17733333332,
      "d": 181.81816666666418,
      "v": 67
    },
    {
      "midi": 40,
      "hit": false,
      "t": 53818.17733333332,
      "d": 181.81816666666418,
      "v": 63
    },
    {
      "midi": 28,
      "hit": false,
      "t": 54181.81366666665,
      "d": 136.36362499999814,
      "v": 80
    },
    {
      "midi": 40,
      "hit": false,
      "t": 54181.81366666665,
      "d": 136.36362499999814,
      "v": 73
    },
    {
      "midi": 28,
      "hit": false,
      "t": 54545.449999999975,
      "d": 136.36362499999814,
      "v": 87
    },
    {
      "midi": 40,
      "hit": false,
      "t": 54545.449999999975,
      "d": 136.36362499999814,
      "v": 73
    },
    {
      "midi": 28,
      "hit": false,
      "t": 54909.0863333333,
      "d": 136.36362499999814,
      "v": 73
    },
    {
      "midi": 40,
      "hit": false,
      "t": 54909.0863333333,
      "d": 136.36362499999814,
      "v": 67
    },
    {
      "midi": 28,
      "hit": false,
      "t": 55272.72266666663,
      "d": 136.36362499999814,
      "v": 80
    },
    {
      "midi": 40,
      "hit": false,
      "t": 55272.72266666663,
      "d": 136.36362499999814,
      "v": 73
    },
    {
      "midi": 28,
      "hit": false,
      "t": 55636.35899999996,
      "d": 136.36362499999814,
      "v": 73
    },
    {
      "midi": 40,
      "hit": false,
      "t": 55636.35899999996,
      "d": 136.36362499999814,
      "v": 73
    },
    {
      "midi": 28,
      "hit": false,
      "t": 55999.99533333329,
      "d": 136.36362499999814,
      "v": 80
    },
    {
      "midi": 40,
      "hit": false,
      "t": 55999.99533333329,
      "d": 136.36362499999814,
      "v": 87
    },
    {
      "midi": 28,
      "hit": false,
      "t": 56363.63166666662,
      "d": 136.36362499999814,
      "v": 80
    },
    {
      "midi": 40,
      "hit": false,
      "t": 56363.63166666662,
      "d": 136.36362499999814,
      "v": 73
    },
    {
      "midi": 72,
      "hit": false,
      "t": 56727.267999999945,
      "d": 181.81816666666418,
      "v": 97
    },
    {
      "midi": 76,
      "hit": false,
      "t": 56727.267999999945,
      "d": 181.81816666666418,
      "v": 97
    },
    {
      "midi": 81,
      "hit": false,
      "t": 56727.267999999945,
      "d": 181.81816666666418,
      "v": 97
    },
    {
      "midi": 72,
      "hit": false,
      "t": 57090.904333333274,
      "d": 90.90908333333209,
      "v": 51
    },
    {
      "midi": 76,
      "hit": false,
      "t": 57090.904333333274,
      "d": 90.90908333333209,
      "v": 58
    },
    {
      "midi": 81,
      "hit": false,
      "t": 57090.904333333274,
      "d": 90.90908333333209,
      "v": 73
    },
    {
      "midi": 72,
      "hit": false,
      "t": 57454.54066666661,
      "d": 90.90908333333209,
      "v": 73
    },
    {
      "midi": 76,
      "hit": false,
      "t": 57454.54066666661,
      "d": 90.90908333333209,
      "v": 73
    },
    {
      "midi": 81,
      "hit": false,
      "t": 57454.54066666661,
      "d": 90.90908333333209,
      "v": 80
    },
    {
      "midi": 72,
      "hit": false,
      "t": 57818.176999999945,
      "d": 136.36362499999814,
      "v": 87
    },
    {
      "midi": 76,
      "hit": false,
      "t": 57818.176999999945,
      "d": 136.36362499999814,
      "v": 97
    },
    {
      "midi": 81,
      "hit": false,
      "t": 57818.176999999945,
      "d": 136.36362499999814,
      "v": 87
    },
    {
      "midi": 72,
      "hit": false,
      "t": 58181.81333333327,
      "d": 90.90908333333209,
      "v": 87
    },
    {
      "midi": 76,
      "hit": false,
      "t": 58181.81333333327,
      "d": 90.90908333333209,
      "v": 80
    },
    {
      "midi": 81,
      "hit": false,
      "t": 58181.81333333327,
      "d": 90.90908333333209,
      "v": 97
    },
    {
      "midi": 72,
      "hit": false,
      "t": 58545.44966666661,
      "d": 90.90908333333209,
      "v": 80
    },
    {
      "midi": 76,
      "hit": false,
      "t": 58545.44966666661,
      "d": 90.90908333333209,
      "v": 87
    },
    {
      "midi": 81,
      "hit": false,
      "t": 58545.44966666661,
      "d": 90.90908333333209,
      "v": 87
    },
    {
      "midi": 71,
      "hit": false,
      "t": 58909.085999999945,
      "d": 136.36362499999814,
      "v": 97
    },
    {
      "midi": 76,
      "hit": false,
      "t": 58909.085999999945,
      "d": 136.36362499999814,
      "v": 80
    },
    {
      "midi": 79,
      "hit": false,
      "t": 58909.085999999945,
      "d": 136.36362499999814,
      "v": 97
    },
    {
      "midi": 71,
      "hit": false,
      "t": 59272.72233333327,
      "d": 90.90908333333209,
      "v": 80
    },
    {
      "midi": 76,
      "hit": false,
      "t": 59272.72233333327,
      "d": 90.90908333333209,
      "v": 80
    },
    {
      "midi": 79,
      "hit": false,
      "t": 59272.72233333327,
      "d": 90.90908333333209,
      "v": 122
    },
    {
      "midi": 71,
      "hit": false,
      "t": 59636.35866666661,
      "d": 90.90908333333209,
      "v": 108
    },
    {
      "midi": 76,
      "hit": false,
      "t": 59636.35866666661,
      "d": 90.90908333333209,
      "v": 73
    },
    {
      "midi": 79,
      "hit": false,
      "t": 59636.35866666661,
      "d": 90.90908333333209,
      "v": 108
    },
    {
      "midi": 71,
      "hit": false,
      "t": 59999.994999999944,
      "d": 90.90908333333209,
      "v": 108
    },
    {
      "midi": 76,
      "hit": false,
      "t": 59999.994999999944,
      "d": 90.90908333333209,
      "v": 87
    },
    {
      "midi": 79,
      "hit": false,
      "t": 59999.994999999944,
      "d": 90.90908333333209,
      "v": 97
    },
    {
      "midi": 71,
      "hit": false,
      "t": 60363.63133333328,
      "d": 90.90908333333209,
      "v": 87
    },
    {
      "midi": 76,
      "hit": false,
      "t": 60363.63133333328,
      "d": 90.90908333333209,
      "v": 87
    },
    {
      "midi": 79,
      "hit": false,
      "t": 60363.63133333328,
      "d": 90.90908333333209,
      "v": 97
    },
    {
      "midi": 71,
      "hit": false,
      "t": 60727.267666666616,
      "d": 90.90908333333209,
      "v": 97
    },
    {
      "midi": 76,
      "hit": false,
      "t": 60727.267666666616,
      "d": 90.90908333333209,
      "v": 80
    },
    {
      "midi": 79,
      "hit": false,
      "t": 60727.267666666616,
      "d": 90.90908333333209,
      "v": 87
    },
    {
      "midi": 72,
      "hit": false,
      "t": 61090.90399999995,
      "d": 90.90908333333209,
      "v": 108
    },
    {
      "midi": 81,
      "hit": false,
      "t": 61090.90399999995,
      "d": 90.90908333333209,
      "v": 108
    },
    {
      "midi": 76,
      "hit": false,
      "t": 61090.90399999995,
      "d": 181.81816666666418,
      "v": 108
    },
    {
      "midi": 72,
      "hit": false,
      "t": 61454.54033333328,
      "d": 90.90908333333209,
      "v": 87
    },
    {
      "midi": 76,
      "hit": false,
      "t": 61454.54033333328,
      "d": 90.90908333333209,
      "v": 80
    },
    {
      "midi": 81,
      "hit": false,
      "t": 61454.54033333328,
      "d": 90.90908333333209,
      "v": 97
    },
    {
      "midi": 72,
      "hit": false,
      "t": 61818.176666666615,
      "d": 90.90908333333209,
      "v": 97
    },
    {
      "midi": 76,
      "hit": false,
      "t": 61818.176666666615,
      "d": 90.90908333333209,
      "v": 87
    },
    {
      "midi": 81,
      "hit": false,
      "t": 61818.176666666615,
      "d": 90.90908333333209,
      "v": 80
    },
    {
      "midi": 72,
      "hit": false,
      "t": 62181.81299999995,
      "d": 90.90908333333209,
      "v": 87
    },
    {
      "midi": 76,
      "hit": false,
      "t": 62181.81299999995,
      "d": 90.90908333333209,
      "v": 87
    },
    {
      "midi": 81,
      "hit": false,
      "t": 62181.81299999995,
      "d": 90.90908333333209,
      "v": 80
    },
    {
      "midi": 72,
      "hit": false,
      "t": 62545.44933333329,
      "d": 90.90908333333209,
      "v": 87
    },
    {
      "midi": 76,
      "hit": false,
      "t": 62545.44933333329,
      "d": 90.90908333333209,
      "v": 80
    },
    {
      "midi": 81,
      "hit": false,
      "t": 62545.44933333329,
      "d": 90.90908333333209,
      "v": 97
    },
    {
      "midi": 72,
      "hit": false,
      "t": 62909.08566666662,
      "d": 90.90908333333209,
      "v": 97
    },
    {
      "midi": 76,
      "hit": false,
      "t": 62909.08566666662,
      "d": 90.90908333333209,
      "v": 87
    },
    {
      "midi": 81,
      "hit": false,
      "t": 62909.08566666662,
      "d": 90.90908333333209,
      "v": 80
    },
    {
      "midi": 72,
      "hit": false,
      "t": 63272.72199999996,
      "d": 90.90908333333209,
      "v": 97
    },
    {
      "midi": 78,
      "hit": false,
      "t": 63272.72199999996,
      "d": 90.90908333333209,
      "v": 122
    },
    {
      "midi": 81,
      "hit": false,
      "t": 63272.72199999996,
      "d": 90.90908333333209,
      "v": 87
    },
    {
      "midi": 72,
      "hit": false,
      "t": 63636.35833333329,
      "d": 90.90908333333209,
      "v": 97
    },
    {
      "midi": 78,
      "hit": false,
      "t": 63636.35833333329,
      "d": 90.90908333333209,
      "v": 122
    },
    {
      "midi": 81,
      "hit": false,
      "t": 63636.35833333329,
      "d": 90.90908333333209,
      "v": 87
    },
    {
      "midi": 72,
      "hit": false,
      "t": 63999.99466666663,
      "d": 90.90908333333209,
      "v": 97
    },
    {
      "midi": 78,
      "hit": false,
      "t": 63999.99466666663,
      "d": 90.90908333333209,
      "v": 122
    },
    {
      "midi": 81,
      "hit": false,
      "t": 63999.99466666663,
      "d": 90.90908333333209,
      "v": 80
    },
    {
      "midi": 72,
      "hit": false,
      "t": 64363.630999999965,
      "d": 90.90908333333209,
      "v": 108
    },
    {
      "midi": 78,
      "hit": false,
      "t": 64363.630999999965,
      "d": 90.90908333333209,
      "v": 87
    },
    {
      "midi": 81,
      "hit": false,
      "t": 64363.630999999965,
      "d": 90.90908333333209,
      "v": 97
    },
    {
      "midi": 72,
      "hit": false,
      "t": 64727.2673333333,
      "d": 90.90908333333209,
      "v": 108
    },
    {
      "midi": 78,
      "hit": false,
      "t": 64727.2673333333,
      "d": 90.90908333333209,
      "v": 80
    },
    {
      "midi": 81,
      "hit": false,
      "t": 64727.2673333333,
      "d": 90.90908333333209,
      "v": 87
    },
    {
      "midi": 72,
      "hit": false,
      "t": 65090.903666666636,
      "d": 136.36362499999814,
      "v": 108
    },
    {
      "midi": 78,
      "hit": false,
      "t": 65090.903666666636,
      "d": 136.36362499999814,
      "v": 80
    },
    {
      "midi": 81,
      "hit": false,
      "t": 65090.903666666636,
      "d": 136.36362499999814,
      "v": 87
    },
    {
      "midi": 28,
      "hit": false,
      "t": 104727.26399999997,
      "d": 90.90908333333209,
      "v": 87
    },
    {
      "midi": 40,
      "hit": false,
      "t": 104727.26399999997,
      "d": 181.81816666666418,
      "v": 87
    },
    {
      "midi": 28,
      "hit": false,
      "t": 105090.9003333333,
      "d": 90.90908333333209,
      "v": 87
    },
    {
      "midi": 40,
      "hit": false,
      "t": 105090.9003333333,
      "d": 181.81816666666418,
      "v": 63
    },
    {
      "midi": 28,
      "hit": false,
      "t": 105454.53666666662,
      "d": 136.36362499999814,
      "v": 80
    },
    {
      "midi": 40,
      "hit": false,
      "t": 105454.53666666662,
      "d": 136.36362499999814,
      "v": 80
    },
    {
      "midi": 28,
      "hit": false,
      "t": 105818.17299999995,
      "d": 181.81816666666418,
      "v": 80
    },
    {
      "midi": 40,
      "hit": false,
      "t": 105818.17299999995,
      "d": 181.81816666666418,
      "v": 63
    },
    {
      "midi": 28,
      "hit": false,
      "t": 106181.80933333328,
      "d": 181.81816666666418,
      "v": 67
    },
    {
      "midi": 40,
      "hit": false,
      "t": 106181.80933333328,
      "d": 181.81816666666418,
      "v": 63
    },
    {
      "midi": 28,
      "hit": false,
      "t": 106545.44566666661,
      "d": 136.36362499999814,
      "v": 80
    },
    {
      "midi": 40,
      "hit": false,
      "t": 106545.44566666661,
      "d": 136.36362499999814,
      "v": 73
    },
    {
      "midi": 28,
      "hit": false,
      "t": 106909.08199999994,
      "d": 136.36362499999814,
      "v": 87
    },
    {
      "midi": 40,
      "hit": false,
      "t": 106909.08199999994,
      "d": 136.36362499999814,
      "v": 73
    },
    {
      "midi": 28,
      "hit": false,
      "t": 107272.71833333327,
      "d": 136.36362499999814,
      "v": 73
    },
    {
      "midi": 40,
      "hit": false,
      "t": 107272.71833333327,
      "d": 136.36362499999814,
      "v": 67
    },
    {
      "midi": 28,
      "hit": false,
      "t": 107636.3546666666,
      "d": 136.36362499999814,
      "v": 80
    },
    {
      "midi": 40,
      "hit": false,
      "t": 107636.3546666666,
      "d": 136.36362499999814,
      "v": 73
    },
    {
      "midi": 28,
      "hit": false,
      "t": 107999.99099999992,
      "d": 136.36362499999814,
      "v": 73
    },
    {
      "midi": 40,
      "hit": false,
      "t": 107999.99099999992,
      "d": 136.36362499999814,
      "v": 73
    },
    {
      "midi": 28,
      "hit": false,
      "t": 108363.62733333325,
      "d": 136.36362499999814,
      "v": 80
    },
    {
      "midi": 40,
      "hit": false,
      "t": 108363.62733333325,
      "d": 136.36362499999814,
      "v": 87
    },
    {
      "midi": 28,
      "hit": false,
      "t": 108727.26366666658,
      "d": 136.36362499999814,
      "v": 80
    },
    {
      "midi": 40,
      "hit": false,
      "t": 108727.26366666658,
      "d": 136.36362499999814,
      "v": 73
    },
    {
      "midi": 72,
      "hit": false,
      "t": 109090.8999999999,
      "d": 181.81816666666418,
      "v": 97
    },
    {
      "midi": 76,
      "hit": false,
      "t": 109090.8999999999,
      "d": 181.81816666666418,
      "v": 97
    },
    {
      "midi": 81,
      "hit": false,
      "t": 109090.8999999999,
      "d": 181.81816666666418,
      "v": 97
    },
    {
      "midi": 72,
      "hit": false,
      "t": 109454.53633333324,
      "d": 90.90908333333209,
      "v": 51
    },
    {
      "midi": 76,
      "hit": false,
      "t": 109454.53633333324,
      "d": 90.90908333333209,
      "v": 58
    },
    {
      "midi": 81,
      "hit": false,
      "t": 109454.53633333324,
      "d": 90.90908333333209,
      "v": 73
    },
    {
      "midi": 72,
      "hit": false,
      "t": 109818.17266666656,
      "d": 90.90908333333209,
      "v": 73
    },
    {
      "midi": 76,
      "hit": false,
      "t": 109818.17266666656,
      "d": 90.90908333333209,
      "v": 73
    },
    {
      "midi": 81,
      "hit": false,
      "t": 109818.17266666656,
      "d": 90.90908333333209,
      "v": 80
    },
    {
      "midi": 72,
      "hit": false,
      "t": 110181.80899999989,
      "d": 136.36362499999814,
      "v": 87
    },
    {
      "midi": 76,
      "hit": false,
      "t": 110181.80899999989,
      "d": 136.36362499999814,
      "v": 97
    },
    {
      "midi": 81,
      "hit": false,
      "t": 110181.80899999989,
      "d": 136.36362499999814,
      "v": 87
    },
    {
      "midi": 72,
      "hit": false,
      "t": 110545.44533333322,
      "d": 90.90908333333209,
      "v": 87
    },
    {
      "midi": 76,
      "hit": false,
      "t": 110545.44533333322,
      "d": 90.90908333333209,
      "v": 80
    },
    {
      "midi": 81,
      "hit": false,
      "t": 110545.44533333322,
      "d": 90.90908333333209,
      "v": 97
    },
    {
      "midi": 72,
      "hit": false,
      "t": 110909.08166666655,
      "d": 90.90908333333209,
      "v": 80
    },
    {
      "midi": 76,
      "hit": false,
      "t": 110909.08166666655,
      "d": 90.90908333333209,
      "v": 87
    },
    {
      "midi": 81,
      "hit": false,
      "t": 110909.08166666655,
      "d": 90.90908333333209,
      "v": 87
    },
    {
      "midi": 71,
      "hit": false,
      "t": 111272.71799999988,
      "d": 136.36362499999814,
      "v": 97
    },
    {
      "midi": 76,
      "hit": false,
      "t": 111272.71799999988,
      "d": 136.36362499999814,
      "v": 80
    },
    {
      "midi": 79,
      "hit": false,
      "t": 111272.71799999988,
      "d": 136.36362499999814,
      "v": 97
    },
    {
      "midi": 71,
      "hit": false,
      "t": 111636.3543333332,
      "d": 90.90908333333209,
      "v": 80
    },
    {
      "midi": 76,
      "hit": false,
      "t": 111636.3543333332,
      "d": 90.90908333333209,
      "v": 80
    },
    {
      "midi": 79,
      "hit": false,
      "t": 111636.3543333332,
      "d": 90.90908333333209,
      "v": 122
    },
    {
      "midi": 71,
      "hit": false,
      "t": 111999.99066666653,
      "d": 90.90908333333209,
      "v": 108
    },
    {
      "midi": 76,
      "hit": false,
      "t": 111999.99066666653,
      "d": 90.90908333333209,
      "v": 73
    },
    {
      "midi": 79,
      "hit": false,
      "t": 111999.99066666653,
      "d": 90.90908333333209,
      "v": 108
    },
    {
      "midi": 71,
      "hit": false,
      "t": 112363.62699999986,
      "d": 90.90908333333209,
      "v": 108
    },
    {
      "midi": 76,
      "hit": false,
      "t": 112363.62699999986,
      "d": 90.90908333333209,
      "v": 87
    },
    {
      "midi": 79,
      "hit": false,
      "t": 112363.62699999986,
      "d": 90.90908333333209,
      "v": 97
    },
    {
      "midi": 71,
      "hit": false,
      "t": 112727.26333333319,
      "d": 90.90908333333209,
      "v": 87
    },
    {
      "midi": 76,
      "hit": false,
      "t": 112727.26333333319,
      "d": 90.90908333333209,
      "v": 87
    },
    {
      "midi": 79,
      "hit": false,
      "t": 112727.26333333319,
      "d": 90.90908333333209,
      "v": 97
    },
    {
      "midi": 71,
      "hit": false,
      "t": 113090.89966666652,
      "d": 136.36362499999814,
      "v": 97
    },
    {
      "midi": 76,
      "hit": false,
      "t": 113090.89966666652,
      "d": 136.36362499999814,
      "v": 80
    },
    {
      "midi": 79,
      "hit": false,
      "t": 113090.89966666652,
      "d": 136.36362499999814,
      "v": 87
    },
    {
      "midi": 72,
      "hit": false,
      "t": 113454.53599999985,
      "d": 90.90908333333209,
      "v": 108
    },
    {
      "midi": 81,
      "hit": false,
      "t": 113454.53599999985,
      "d": 90.90908333333209,
      "v": 108
    },
    {
      "midi": 76,
      "hit": false,
      "t": 113454.53599999985,
      "d": 181.81816666666418,
      "v": 108
    },
    {
      "midi": 72,
      "hit": false,
      "t": 113818.17233333318,
      "d": 90.90908333333209,
      "v": 87
    },
    {
      "midi": 76,
      "hit": false,
      "t": 113818.17233333318,
      "d": 90.90908333333209,
      "v": 80
    },
    {
      "midi": 81,
      "hit": false,
      "t": 113818.17233333318,
      "d": 90.90908333333209,
      "v": 97
    },
    {
      "midi": 72,
      "hit": false,
      "t": 114181.8086666665,
      "d": 90.90908333333209,
      "v": 97
    },
    {
      "midi": 76,
      "hit": false,
      "t": 114181.8086666665,
      "d": 90.90908333333209,
      "v": 87
    },
    {
      "midi": 81,
      "hit": false,
      "t": 114181.8086666665,
      "d": 90.90908333333209,
      "v": 80
    },
    {
      "midi": 72,
      "hit": false,
      "t": 114545.44499999983,
      "d": 90.90908333333209,
      "v": 87
    },
    {
      "midi": 76,
      "hit": false,
      "t": 114545.44499999983,
      "d": 90.90908333333209,
      "v": 87
    },
    {
      "midi": 81,
      "hit": false,
      "t": 114545.44499999983,
      "d": 90.90908333333209,
      "v": 80
    },
    {
      "midi": 72,
      "hit": false,
      "t": 114909.08133333316,
      "d": 90.90908333333209,
      "v": 87
    },
    {
      "midi": 76,
      "hit": false,
      "t": 114909.08133333316,
      "d": 90.90908333333209,
      "v": 80
    },
    {
      "midi": 81,
      "hit": false,
      "t": 114909.08133333316,
      "d": 90.90908333333209,
      "v": 97
    },
    {
      "midi": 72,
      "hit": false,
      "t": 115272.71766666649,
      "d": 90.90908333333209,
      "v": 97
    },
    {
      "midi": 76,
      "hit": false,
      "t": 115272.71766666649,
      "d": 90.90908333333209,
      "v": 87
    },
    {
      "midi": 81,
      "hit": false,
      "t": 115272.71766666649,
      "d": 90.90908333333209,
      "v": 80
    },
    {
      "midi": 72,
      "hit": false,
      "t": 115636.35399999982,
      "d": 90.90908333333209,
      "v": 97
    },
    {
      "midi": 78,
      "hit": false,
      "t": 115636.35399999982,
      "d": 90.90908333333209,
      "v": 122
    },
    {
      "midi": 81,
      "hit": false,
      "t": 115636.35399999982,
      "d": 90.90908333333209,
      "v": 87
    },
    {
      "midi": 72,
      "hit": false,
      "t": 115999.99033333315,
      "d": 90.90908333333209,
      "v": 97
    },
    {
      "midi": 78,
      "hit": false,
      "t": 115999.99033333315,
      "d": 90.90908333333209,
      "v": 122
    },
    {
      "midi": 81,
      "hit": false,
      "t": 115999.99033333315,
      "d": 90.90908333333209,
      "v": 87
    },
    {
      "midi": 72,
      "hit": false,
      "t": 116363.62666666647,
      "d": 90.90908333333209,
      "v": 97
    },
    {
      "midi": 78,
      "hit": false,
      "t": 116363.62666666647,
      "d": 90.90908333333209,
      "v": 122
    },
    {
      "midi": 81,
      "hit": false,
      "t": 116363.62666666647,
      "d": 90.90908333333209,
      "v": 80
    },
    {
      "midi": 72,
      "hit": false,
      "t": 116727.2629999998,
      "d": 90.90908333333209,
      "v": 108
    },
    {
      "midi": 78,
      "hit": false,
      "t": 116727.2629999998,
      "d": 90.90908333333209,
      "v": 87
    },
    {
      "midi": 81,
      "hit": false,
      "t": 116727.2629999998,
      "d": 90.90908333333209,
      "v": 97
    },
    {
      "midi": 72,
      "hit": false,
      "t": 117090.89933333313,
      "d": 90.90908333333209,
      "v": 108
    },
    {
      "midi": 78,
      "hit": false,
      "t": 117090.89933333313,
      "d": 90.90908333333209,
      "v": 80
    },
    {
      "midi": 81,
      "hit": false,
      "t": 117090.89933333313,
      "d": 90.90908333333209,
      "v": 87
    },
    {
      "midi": 72,
      "hit": false,
      "t": 117454.53566666646,
      "d": 136.36362499999814,
      "v": 108
    },
    {
      "midi": 78,
      "hit": false,
      "t": 117454.53566666646,
      "d": 136.36362499999814,
      "v": 80
    },
    {
      "midi": 81,
      "hit": false,
      "t": 117454.53566666646,
      "d": 136.36362499999814,
      "v": 87
    },
    {
      "midi": 66,
      "hit": false,
      "t": 126545.44399999978,
      "d": 136.36362499999814,
      "v": 108
    },
    {
      "midi": 69,
      "hit": false,
      "t": 126545.44399999978,
      "d": 136.36362499999814,
      "v": 122
    },
    {
      "midi": 74,
      "hit": false,
      "t": 126545.44399999978,
      "d": 136.36362499999814,
      "v": 97
    },
    {
      "midi": 66,
      "hit": false,
      "t": 126909.08033333311,
      "d": 90.90908333333209,
      "v": 55
    },
    {
      "midi": 69,
      "hit": false,
      "t": 126909.08033333311,
      "d": 90.90908333333209,
      "v": 87
    },
    {
      "midi": 74,
      "hit": false,
      "t": 126909.08033333311,
      "d": 90.90908333333209,
      "v": 108
    },
    {
      "midi": 66,
      "hit": false,
      "t": 127272.71666666644,
      "d": 90.90908333333209,
      "v": 58
    },
    {
      "midi": 69,
      "hit": false,
      "t": 127272.71666666644,
      "d": 90.90908333333209,
      "v": 97
    },
    {
      "midi": 74,
      "hit": false,
      "t": 127272.71666666644,
      "d": 90.90908333333209,
      "v": 97
    },
    {
      "midi": 66,
      "hit": false,
      "t": 127636.35299999977,
      "d": 90.90908333333209,
      "v": 63
    },
    {
      "midi": 69,
      "hit": false,
      "t": 127636.35299999977,
      "d": 90.90908333333209,
      "v": 97
    },
    {
      "midi": 74,
      "hit": false,
      "t": 127636.35299999977,
      "d": 90.90908333333209,
      "v": 97
    },
    {
      "midi": 66,
      "hit": false,
      "t": 127999.9893333331,
      "d": 90.90908333333209,
      "v": 41
    },
    {
      "midi": 69,
      "hit": false,
      "t": 127999.9893333331,
      "d": 90.90908333333209,
      "v": 97
    },
    {
      "midi": 74,
      "hit": false,
      "t": 127999.9893333331,
      "d": 90.90908333333209,
      "v": 87
    },
    {
      "midi": 66,
      "hit": false,
      "t": 128363.62566666643,
      "d": 90.90908333333209,
      "v": 46
    },
    {
      "midi": 69,
      "hit": false,
      "t": 128363.62566666643,
      "d": 90.90908333333209,
      "v": 108
    },
    {
      "midi": 74,
      "hit": false,
      "t": 128363.62566666643,
      "d": 90.90908333333209,
      "v": 97
    },
    {
      "midi": 64,
      "hit": false,
      "t": 128727.26199999976,
      "d": 90.90908333333209,
      "v": 87
    },
    {
      "midi": 68,
      "hit": false,
      "t": 128727.26199999976,
      "d": 90.90908333333209,
      "v": 97
    },
    {
      "midi": 71,
      "hit": false,
      "t": 128727.26199999976,
      "d": 90.90908333333209,
      "v": 97
    },
    {
      "midi": 74,
      "hit": false,
      "t": 128727.26199999976,
      "d": 90.90908333333209,
      "v": 87
    },
    {
      "midi": 64,
      "hit": false,
      "t": 129090.89833333308,
      "d": 90.90908333333209,
      "v": 73
    },
    {
      "midi": 68,
      "hit": false,
      "t": 129090.89833333308,
      "d": 90.90908333333209,
      "v": 73
    },
    {
      "midi": 71,
      "hit": false,
      "t": 129090.89833333308,
      "d": 90.90908333333209,
      "v": 80
    },
    {
      "midi": 74,
      "hit": false,
      "t": 129090.89833333308,
      "d": 90.90908333333209,
      "v": 87
    },
    {
      "midi": 64,
      "hit": false,
      "t": 129454.53466666641,
      "d": 90.90908333333209,
      "v": 108
    },
    {
      "midi": 68,
      "hit": false,
      "t": 129454.53466666641,
      "d": 90.90908333333209,
      "v": 80
    },
    {
      "midi": 71,
      "hit": false,
      "t": 129454.53466666641,
      "d": 90.90908333333209,
      "v": 108
    },
    {
      "midi": 74,
      "hit": false,
      "t": 129454.53466666641,
      "d": 90.90908333333209,
      "v": 67
    },
    {
      "midi": 64,
      "hit": false,
      "t": 129818.17099999974,
      "d": 90.90908333333209,
      "v": 97
    },
    {
      "midi": 68,
      "hit": false,
      "t": 129818.17099999974,
      "d": 90.90908333333209,
      "v": 97
    },
    {
      "midi": 71,
      "hit": false,
      "t": 129818.17099999974,
      "d": 90.90908333333209,
      "v": 108
    },
    {
      "midi": 74,
      "hit": false,
      "t": 129818.17099999974,
      "d": 90.90908333333209,
      "v": 87
    },
    {
      "midi": 64,
      "hit": false,
      "t": 130181.80733333307,
      "d": 90.90908333333209,
      "v": 87
    },
    {
      "midi": 68,
      "hit": false,
      "t": 130181.80733333307,
      "d": 90.90908333333209,
      "v": 97
    },
    {
      "midi": 71,
      "hit": false,
      "t": 130181.80733333307,
      "d": 90.90908333333209,
      "v": 97
    },
    {
      "midi": 74,
      "hit": false,
      "t": 130181.80733333307,
      "d": 90.90908333333209,
      "v": 87
    },
    {
      "midi": 64,
      "hit": false,
      "t": 130545.4436666664,
      "d": 90.90908333333209,
      "v": 97
    },
    {
      "midi": 68,
      "hit": false,
      "t": 130545.4436666664,
      "d": 90.90908333333209,
      "v": 67
    },
    {
      "midi": 74,
      "hit": false,
      "t": 130545.4436666664,
      "d": 90.90908333333209,
      "v": 73
    },
    {
      "midi": 64,
      "hit": false,
      "t": 130909.07999999973,
      "d": 90.90908333333209,
      "v": 97
    },
    {
      "midi": 69,
      "hit": false,
      "t": 130909.07999999973,
      "d": 90.90908333333209,
      "v": 108
    },
    {
      "midi": 72,
      "hit": false,
      "t": 130909.07999999973,
      "d": 90.90908333333209,
      "v": 97
    },
    {
      "midi": 64,
      "hit": false,
      "t": 131272.71633333305,
      "d": 90.90908333333209,
      "v": 87
    },
    {
      "midi": 69,
      "hit": false,
      "t": 131272.71633333305,
      "d": 90.90908333333209,
      "v": 80
    },
    {
      "midi": 72,
      "hit": false,
      "t": 131272.71633333305,
      "d": 90.90908333333209,
      "v": 73
    },
    {
      "midi": 64,
      "hit": false,
      "t": 131636.35266666638,
      "d": 90.90908333333209,
      "v": 73
    },
    {
      "midi": 69,
      "hit": false,
      "t": 131636.35266666638,
      "d": 90.90908333333209,
      "v": 87
    },
    {
      "midi": 72,
      "hit": false,
      "t": 131636.35266666638,
      "d": 90.90908333333209,
      "v": 63
    },
    {
      "midi": 71,
      "hit": false,
      "t": 131999.9889999997,
      "d": 90.90908333333209,
      "v": 122
    },
    {
      "midi": 74,
      "hit": false,
      "t": 131999.9889999997,
      "d": 90.90908333333209,
      "v": 108
    },
    {
      "midi": 71,
      "hit": false,
      "t": 132363.62533333304,
      "d": 136.36362499999814,
      "v": 80
    },
    {
      "midi": 74,
      "hit": false,
      "t": 132363.62533333304,
      "d": 136.36362499999814,
      "v": 87
    },
    {
      "midi": 71,
      "hit": false,
      "t": 132727.26166666637,
      "d": 136.36362499999814,
      "v": 97
    },
    {
      "midi": 74,
      "hit": false,
      "t": 132727.26166666637,
      "d": 136.36362499999814,
      "v": 97
    },
    {
      "midi": 69,
      "hit": false,
      "t": 133090.8979999997,
      "d": 90.90908333333209,
      "v": 87
    },
    {
      "midi": 72,
      "hit": false,
      "t": 133090.8979999997,
      "d": 90.90908333333209,
      "v": 97
    },
    {
      "midi": 76,
      "hit": false,
      "t": 133090.8979999997,
      "d": 90.90908333333209,
      "v": 87
    },
    {
      "midi": 69,
      "hit": false,
      "t": 133454.53433333302,
      "d": 90.90908333333209,
      "v": 80
    },
    {
      "midi": 72,
      "hit": false,
      "t": 133454.53433333302,
      "d": 90.90908333333209,
      "v": 87
    },
    {
      "midi": 76,
      "hit": false,
      "t": 133454.53433333302,
      "d": 90.90908333333209,
      "v": 73
    },
    {
      "midi": 69,
      "hit": false,
      "t": 133818.17066666635,
      "d": 90.90908333333209,
      "v": 73
    },
    {
      "midi": 72,
      "hit": false,
      "t": 133818.17066666635,
      "d": 90.90908333333209,
      "v": 108
    },
    {
      "midi": 76,
      "hit": false,
      "t": 133818.17066666635,
      "d": 90.90908333333209,
      "v": 73
    },
    {
      "midi": 69,
      "hit": false,
      "t": 134181.80699999968,
      "d": 90.90908333333209,
      "v": 108
    },
    {
      "midi": 72,
      "hit": false,
      "t": 134181.80699999968,
      "d": 90.90908333333209,
      "v": 108
    },
    {
      "midi": 76,
      "hit": false,
      "t": 134181.80699999968,
      "d": 90.90908333333209,
      "v": 80
    },
    {
      "midi": 69,
      "hit": false,
      "t": 134545.443333333,
      "d": 90.90908333333209,
      "v": 80
    },
    {
      "midi": 72,
      "hit": false,
      "t": 134545.443333333,
      "d": 90.90908333333209,
      "v": 97
    },
    {
      "midi": 76,
      "hit": false,
      "t": 134545.443333333,
      "d": 90.90908333333209,
      "v": 73
    },
    {
      "midi": 69,
      "hit": false,
      "t": 134909.07966666634,
      "d": 90.90908333333209,
      "v": 87
    },
    {
      "midi": 72,
      "hit": false,
      "t": 134909.07966666634,
      "d": 90.90908333333209,
      "v": 122
    },
    {
      "midi": 76,
      "hit": false,
      "t": 134909.07966666634,
      "d": 90.90908333333209,
      "v": 73
    },
    {
      "midi": 66,
      "hit": false,
      "t": 135272.71599999967,
      "d": 90.90908333333209,
      "v": 97
    },
    {
      "midi": 69,
      "hit": false,
      "t": 135272.71599999967,
      "d": 90.90908333333209,
      "v": 97
    },
    {
      "midi": 70,
      "hit": false,
      "t": 135272.71599999967,
      "d": 90.90908333333209,
      "v": 63
    },
    {
      "midi": 74,
      "hit": false,
      "t": 135272.71599999967,
      "d": 90.90908333333209,
      "v": 122
    },
    {
      "midi": 66,
      "hit": false,
      "t": 135636.352333333,
      "d": 90.90908333333209,
      "v": 58
    },
    {
      "midi": 69,
      "hit": false,
      "t": 135636.352333333,
      "d": 90.90908333333209,
      "v": 87
    },
    {
      "midi": 74,
      "hit": false,
      "t": 135636.352333333,
      "d": 90.90908333333209,
      "v": 97
    },
    {
      "midi": 66,
      "hit": false,
      "t": 135999.98866666632,
      "d": 90.90908333333209,
      "v": 63
    },
    {
      "midi": 69,
      "hit": false,
      "t": 135999.98866666632,
      "d": 90.90908333333209,
      "v": 87
    },
    {
      "midi": 74,
      "hit": false,
      "t": 135999.98866666632,
      "d": 90.90908333333209,
      "v": 97
    },
    {
      "midi": 66,
      "hit": false,
      "t": 136363.62499999965,
      "d": 90.90908333333209,
      "v": 73
    },
    {
      "midi": 69,
      "hit": false,
      "t": 136363.62499999965,
      "d": 90.90908333333209,
      "v": 122
    },
    {
      "midi": 74,
      "hit": false,
      "t": 136363.62499999965,
      "d": 90.90908333333209,
      "v": 97
    },
    {
      "midi": 66,
      "hit": false,
      "t": 136727.26133333298,
      "d": 90.90908333333209,
      "v": 67
    },
    {
      "midi": 69,
      "hit": false,
      "t": 136727.26133333298,
      "d": 90.90908333333209,
      "v": 97
    },
    {
      "midi": 74,
      "hit": false,
      "t": 136727.26133333298,
      "d": 90.90908333333209,
      "v": 97
    },
    {
      "midi": 66,
      "hit": false,
      "t": 137090.8976666663,
      "d": 90.90908333333209,
      "v": 87
    },
    {
      "midi": 69,
      "hit": false,
      "t": 137090.8976666663,
      "d": 90.90908333333209,
      "v": 122
    },
    {
      "midi": 74,
      "hit": false,
      "t": 137090.8976666663,
      "d": 90.90908333333209,
      "v": 97
    },
    {
      "midi": 64,
      "hit": false,
      "t": 137454.53399999964,
      "d": 90.90908333333209,
      "v": 97
    },
    {
      "midi": 68,
      "hit": false,
      "t": 137454.53399999964,
      "d": 90.90908333333209,
      "v": 108
    },
    {
      "midi": 71,
      "hit": false,
      "t": 137454.53399999964,
      "d": 90.90908333333209,
      "v": 97
    },
    {
      "midi": 74,
      "hit": false,
      "t": 137454.53399999964,
      "d": 90.90908333333209,
      "v": 87
    },
    {
      "midi": 64,
      "hit": false,
      "t": 137818.17033333296,
      "d": 90.90908333333209,
      "v": 108
    },
    {
      "midi": 68,
      "hit": false,
      "t": 137818.17033333296,
      "d": 90.90908333333209,
      "v": 87
    },
    {
      "midi": 71,
      "hit": false,
      "t": 137818.17033333296,
      "d": 90.90908333333209,
      "v": 108
    },
    {
      "midi": 74,
      "hit": false,
      "t": 137818.17033333296,
      "d": 90.90908333333209,
      "v": 87
    },
    {
      "midi": 64,
      "hit": false,
      "t": 138181.8066666663,
      "d": 90.90908333333209,
      "v": 108
    },
    {
      "midi": 68,
      "hit": false,
      "t": 138181.8066666663,
      "d": 90.90908333333209,
      "v": 97
    },
    {
      "midi": 71,
      "hit": false,
      "t": 138181.8066666663,
      "d": 90.90908333333209,
      "v": 122
    },
    {
      "midi": 74,
      "hit": false,
      "t": 138181.8066666663,
      "d": 90.90908333333209,
      "v": 80
    },
    {
      "midi": 64,
      "hit": false,
      "t": 138545.44299999962,
      "d": 90.90908333333209,
      "v": 97
    },
    {
      "midi": 68,
      "hit": false,
      "t": 138545.44299999962,
      "d": 90.90908333333209,
      "v": 97
    },
    {
      "midi": 71,
      "hit": false,
      "t": 138545.44299999962,
      "d": 90.90908333333209,
      "v": 108
    },
    {
      "midi": 74,
      "hit": false,
      "t": 138545.44299999962,
      "d": 90.90908333333209,
      "v": 80
    },
    {
      "midi": 64,
      "hit": false,
      "t": 138909.07933333295,
      "d": 90.90908333333209,
      "v": 108
    },
    {
      "midi": 68,
      "hit": false,
      "t": 138909.07933333295,
      "d": 90.90908333333209,
      "v": 97
    },
    {
      "midi": 71,
      "hit": false,
      "t": 138909.07933333295,
      "d": 90.90908333333209,
      "v": 97
    },
    {
      "midi": 74,
      "hit": false,
      "t": 138909.07933333295,
      "d": 90.90908333333209,
      "v": 80
    },
    {
      "midi": 64,
      "hit": false,
      "t": 139272.71566666628,
      "d": 90.90908333333209,
      "v": 122
    },
    {
      "midi": 68,
      "hit": false,
      "t": 139272.71566666628,
      "d": 90.90908333333209,
      "v": 108
    },
    {
      "midi": 71,
      "hit": false,
      "t": 139272.71566666628,
      "d": 90.90908333333209,
      "v": 97
    },
    {
      "midi": 74,
      "hit": false,
      "t": 139272.71566666628,
      "d": 90.90908333333209,
      "v": 73
    },
    {
      "midi": 72,
      "hit": false,
      "t": 139636.3519999996,
      "d": 1136.3635416666802,
      "v": 87
    },
    {
      "midi": 77,
      "hit": false,
      "t": 139636.3519999996,
      "d": 1136.3635416666802,
      "v": 97
    },
    {
      "midi": 81,
      "hit": false,
      "t": 139636.3519999996,
      "d": 1136.3635416666802,
      "v": 122
    },
    {
      "midi": 60,
      "hit": false,
      "t": 143999.98799999963,
      "d": 90.90908333333209,
      "v": 97
    },
    {
      "midi": 64,
      "hit": false,
      "t": 143999.98799999963,
      "d": 90.90908333333209,
      "v": 87
    },
    {
      "midi": 69,
      "hit": false,
      "t": 143999.98799999963,
      "d": 90.90908333333209,
      "v": 97
    },
    {
      "midi": 60,
      "hit": false,
      "t": 144363.62433333296,
      "d": 90.90908333333209,
      "v": 80
    },
    {
      "midi": 64,
      "hit": false,
      "t": 144363.62433333296,
      "d": 90.90908333333209,
      "v": 108
    },
    {
      "midi": 69,
      "hit": false,
      "t": 144363.62433333296,
      "d": 90.90908333333209,
      "v": 80
    },
    {
      "midi": 60,
      "hit": false,
      "t": 144727.2606666663,
      "d": 90.90908333333209,
      "v": 73
    },
    {
      "midi": 64,
      "hit": false,
      "t": 144727.2606666663,
      "d": 90.90908333333209,
      "v": 80
    },
    {
      "midi": 69,
      "hit": false,
      "t": 144727.2606666663,
      "d": 90.90908333333209,
      "v": 80
    },
    {
      "midi": 60,
      "hit": false,
      "t": 145090.89699999962,
      "d": 90.90908333333209,
      "v": 97
    },
    {
      "midi": 64,
      "hit": false,
      "t": 145090.89699999962,
      "d": 90.90908333333209,
      "v": 108
    },
    {
      "midi": 69,
      "hit": false,
      "t": 145090.89699999962,
      "d": 90.90908333333209,
      "v": 108
    },
    {
      "midi": 60,
      "hit": false,
      "t": 145454.53333333295,
      "d": 90.90908333333209,
      "v": 97
    },
    {
      "midi": 64,
      "hit": false,
      "t": 145454.53333333295,
      "d": 90.90908333333209,
      "v": 80
    },
    {
      "midi": 69,
      "hit": false,
      "t": 145454.53333333295,
      "d": 90.90908333333209,
      "v": 80
    },
    {
      "midi": 60,
      "hit": false,
      "t": 145818.16966666628,
      "d": 90.90908333333209,
      "v": 87
    },
    {
      "midi": 64,
      "hit": false,
      "t": 145818.16966666628,
      "d": 90.90908333333209,
      "v": 97
    },
    {
      "midi": 69,
      "hit": false,
      "t": 145818.16966666628,
      "d": 90.90908333333209,
      "v": 87
    },
    {
      "midi": 60,
      "hit": false,
      "t": 146181.8059999996,
      "d": 90.90908333333209,
      "v": 108
    },
    {
      "midi": 64,
      "hit": false,
      "t": 146181.8059999996,
      "d": 90.90908333333209,
      "v": 108
    },
    {
      "midi": 69,
      "hit": false,
      "t": 146181.8059999996,
      "d": 90.90908333333209,
      "v": 97
    },
    {
      "midi": 28,
      "hit": false,
      "t": 178909.0759999996,
      "d": 136.36362499999814,
      "v": 97
    },
    {
      "midi": 40,
      "hit": false,
      "t": 178909.0759999996,
      "d": 136.36362499999814,
      "v": 87
    },
    {
      "midi": 28,
      "hit": false,
      "t": 179272.71233333292,
      "d": 136.36362499999814,
      "v": 108
    },
    {
      "midi": 40,
      "hit": false,
      "t": 179272.71233333292,
      "d": 136.36362499999814,
      "v": 63
    },
    {
      "midi": 28,
      "hit": false,
      "t": 179636.34866666625,
      "d": 136.36362499999814,
      "v": 122
    },
    {
      "midi": 40,
      "hit": false,
      "t": 179636.34866666625,
      "d": 136.36362499999814,
      "v": 73
    },
    {
      "midi": 28,
      "hit": false,
      "t": 179999.98499999958,
      "d": 136.36362499999814,
      "v": 122
    },
    {
      "midi": 40,
      "hit": false,
      "t": 179999.98499999958,
      "d": 136.36362499999814,
      "v": 80
    },
    {
      "midi": 28,
      "hit": false,
      "t": 180363.6213333329,
      "d": 136.36362499999814,
      "v": 87
    },
    {
      "midi": 40,
      "hit": false,
      "t": 180363.6213333329,
      "d": 136.36362499999814,
      "v": 80
    },
    {
      "midi": 28,
      "hit": false,
      "t": 180727.25766666624,
      "d": 136.36362499999814,
      "v": 87
    },
    {
      "midi": 40,
      "hit": false,
      "t": 180727.25766666624,
      "d": 136.36362499999814,
      "v": 80
    },
    {
      "midi": 28,
      "hit": false,
      "t": 181090.89399999956,
      "d": 181.81816666666418,
      "v": 80
    },
    {
      "midi": 40,
      "hit": false,
      "t": 181090.89399999956,
      "d": 181.81816666666418,
      "v": 80
    },
    {
      "midi": 28,
      "hit": false,
      "t": 181454.5303333329,
      "d": 136.36362499999814,
      "v": 87
    },
    {
      "midi": 40,
      "hit": false,
      "t": 181454.5303333329,
      "d": 136.36362499999814,
      "v": 80
    },
    {
      "midi": 28,
      "hit": false,
      "t": 181818.16666666622,
      "d": 136.36362499999814,
      "v": 108
    },
    {
      "midi": 40,
      "hit": false,
      "t": 181818.16666666622,
      "d": 136.36362499999814,
      "v": 80
    },
    {
      "midi": 28,
      "hit": false,
      "t": 182181.80299999955,
      "d": 136.36362499999814,
      "v": 97
    },
    {
      "midi": 40,
      "hit": false,
      "t": 182181.80299999955,
      "d": 136.36362499999814,
      "v": 80
    },
    {
      "midi": 28,
      "hit": false,
      "t": 182545.43933333288,
      "d": 136.36362499999814,
      "v": 97
    },
    {
      "midi": 40,
      "hit": false,
      "t": 182545.43933333288,
      "d": 136.36362499999814,
      "v": 87
    },
    {
      "midi": 28,
      "hit": false,
      "t": 182909.0756666662,
      "d": 136.36362499999814,
      "v": 97
    },
    {
      "midi": 40,
      "hit": false,
      "t": 182909.0756666662,
      "d": 136.36362499999814,
      "v": 87
    },
    {
      "midi": 72,
      "hit": false,
      "t": 183272.71199999953,
      "d": 136.36362499999814,
      "v": 122
    },
    {
      "midi": 76,
      "hit": false,
      "t": 183272.71199999953,
      "d": 136.36362499999814,
      "v": 108
    },
    {
      "midi": 81,
      "hit": false,
      "t": 183272.71199999953,
      "d": 136.36362499999814,
      "v": 108
    },
    {
      "midi": 72,
      "hit": false,
      "t": 183636.34833333286,
      "d": 90.90908333333209,
      "v": 108
    },
    {
      "midi": 76,
      "hit": false,
      "t": 183636.34833333286,
      "d": 90.90908333333209,
      "v": 108
    },
    {
      "midi": 81,
      "hit": false,
      "t": 183636.34833333286,
      "d": 90.90908333333209,
      "v": 80
    },
    {
      "midi": 72,
      "hit": false,
      "t": 183999.9846666662,
      "d": 90.90908333333209,
      "v": 97
    },
    {
      "midi": 76,
      "hit": false,
      "t": 183999.9846666662,
      "d": 90.90908333333209,
      "v": 108
    },
    {
      "midi": 81,
      "hit": false,
      "t": 183999.9846666662,
      "d": 90.90908333333209,
      "v": 73
    },
    {
      "midi": 72,
      "hit": false,
      "t": 184363.62099999952,
      "d": 90.90908333333209,
      "v": 87
    },
    {
      "midi": 76,
      "hit": false,
      "t": 184363.62099999952,
      "d": 90.90908333333209,
      "v": 80
    },
    {
      "midi": 81,
      "hit": false,
      "t": 184363.62099999952,
      "d": 90.90908333333209,
      "v": 87
    },
    {
      "midi": 72,
      "hit": false,
      "t": 184727.25733333285,
      "d": 90.90908333333209,
      "v": 80
    },
    {
      "midi": 76,
      "hit": false,
      "t": 184727.25733333285,
      "d": 90.90908333333209,
      "v": 80
    },
    {
      "midi": 81,
      "hit": false,
      "t": 184727.25733333285,
      "d": 90.90908333333209,
      "v": 73
    },
    {
      "midi": 72,
      "hit": false,
      "t": 185090.89366666618,
      "d": 90.90908333333209,
      "v": 80
    },
    {
      "midi": 76,
      "hit": false,
      "t": 185090.89366666618,
      "d": 90.90908333333209,
      "v": 87
    },
    {
      "midi": 81,
      "hit": false,
      "t": 185090.89366666618,
      "d": 90.90908333333209,
      "v": 80
    },
    {
      "midi": 71,
      "hit": false,
      "t": 185454.5299999995,
      "d": 90.90908333333209,
      "v": 80
    },
    {
      "midi": 76,
      "hit": false,
      "t": 185454.5299999995,
      "d": 90.90908333333209,
      "v": 87
    },
    {
      "midi": 79,
      "hit": false,
      "t": 185454.5299999995,
      "d": 90.90908333333209,
      "v": 97
    },
    {
      "midi": 71,
      "hit": false,
      "t": 185818.16633333283,
      "d": 90.90908333333209,
      "v": 108
    },
    {
      "midi": 76,
      "hit": false,
      "t": 185818.16633333283,
      "d": 90.90908333333209,
      "v": 80
    },
    {
      "midi": 79,
      "hit": false,
      "t": 185818.16633333283,
      "d": 90.90908333333209,
      "v": 108
    },
    {
      "midi": 71,
      "hit": false,
      "t": 186181.80266666616,
      "d": 90.90908333333209,
      "v": 80
    },
    {
      "midi": 76,
      "hit": false,
      "t": 186181.80266666616,
      "d": 90.90908333333209,
      "v": 73
    },
    {
      "midi": 79,
      "hit": false,
      "t": 186181.80266666616,
      "d": 90.90908333333209,
      "v": 97
    },
    {
      "midi": 71,
      "hit": false,
      "t": 186545.4389999995,
      "d": 90.90908333333209,
      "v": 108
    },
    {
      "midi": 76,
      "hit": false,
      "t": 186545.4389999995,
      "d": 90.90908333333209,
      "v": 87
    },
    {
      "midi": 79,
      "hit": false,
      "t": 186545.4389999995,
      "d": 90.90908333333209,
      "v": 122
    },
    {
      "midi": 71,
      "hit": false,
      "t": 186909.07533333282,
      "d": 90.90908333333209,
      "v": 108
    },
    {
      "midi": 76,
      "hit": false,
      "t": 186909.07533333282,
      "d": 90.90908333333209,
      "v": 73
    },
    {
      "midi": 79,
      "hit": false,
      "t": 186909.07533333282,
      "d": 90.90908333333209,
      "v": 108
    },
    {
      "midi": 71,
      "hit": false,
      "t": 187272.71166666615,
      "d": 90.90908333333209,
      "v": 73
    },
    {
      "midi": 76,
      "hit": false,
      "t": 187272.71166666615,
      "d": 90.90908333333209,
      "v": 73
    },
    {
      "midi": 79,
      "hit": false,
      "t": 187272.71166666615,
      "d": 90.90908333333209,
      "v": 122
    },
    {
      "midi": 72,
      "hit": false,
      "t": 187636.34799999947,
      "d": 90.90908333333209,
      "v": 108
    },
    {
      "midi": 76,
      "hit": false,
      "t": 187636.34799999947,
      "d": 90.90908333333209,
      "v": 108
    },
    {
      "midi": 81,
      "hit": false,
      "t": 187636.34799999947,
      "d": 181.81816666666418,
      "v": 97
    },
    {
      "midi": 72,
      "hit": false,
      "t": 187999.9843333328,
      "d": 90.90908333333209,
      "v": 73
    },
    {
      "midi": 76,
      "hit": false,
      "t": 187999.9843333328,
      "d": 90.90908333333209,
      "v": 87
    },
    {
      "midi": 81,
      "hit": false,
      "t": 187999.9843333328,
      "d": 90.90908333333209,
      "v": 80
    },
    {
      "midi": 72,
      "hit": false,
      "t": 188363.62066666613,
      "d": 90.90908333333209,
      "v": 108
    },
    {
      "midi": 76,
      "hit": false,
      "t": 188363.62066666613,
      "d": 90.90908333333209,
      "v": 108
    },
    {
      "midi": 81,
      "hit": false,
      "t": 188363.62066666613,
      "d": 90.90908333333209,
      "v": 80
    },
    {
      "midi": 72,
      "hit": false,
      "t": 188727.25699999946,
      "d": 90.90908333333209,
      "v": 80
    },
    {
      "midi": 76,
      "hit": false,
      "t": 188727.25699999946,
      "d": 90.90908333333209,
      "v": 80
    },
    {
      "midi": 81,
      "hit": false,
      "t": 188727.25699999946,
      "d": 90.90908333333209,
      "v": 80
    },
    {
      "midi": 72,
      "hit": false,
      "t": 189090.8933333328,
      "d": 90.90908333333209,
      "v": 67
    },
    {
      "midi": 76,
      "hit": false,
      "t": 189090.8933333328,
      "d": 90.90908333333209,
      "v": 67
    },
    {
      "midi": 81,
      "hit": false,
      "t": 189090.8933333328,
      "d": 90.90908333333209,
      "v": 67
    },
    {
      "midi": 72,
      "hit": false,
      "t": 189454.52966666612,
      "d": 90.90908333333209,
      "v": 87
    },
    {
      "midi": 76,
      "hit": false,
      "t": 189454.52966666612,
      "d": 90.90908333333209,
      "v": 122
    },
    {
      "midi": 81,
      "hit": false,
      "t": 189454.52966666612,
      "d": 90.90908333333209,
      "v": 87
    },
    {
      "midi": 72,
      "hit": false,
      "t": 189818.16599999944,
      "d": 90.90908333333209,
      "v": 87
    },
    {
      "midi": 78,
      "hit": false,
      "t": 189818.16599999944,
      "d": 90.90908333333209,
      "v": 108
    },
    {
      "midi": 81,
      "hit": false,
      "t": 189818.16599999944,
      "d": 90.90908333333209,
      "v": 122
    },
    {
      "midi": 72,
      "hit": false,
      "t": 190181.80233333277,
      "d": 90.90908333333209,
      "v": 80
    },
    {
      "midi": 78,
      "hit": false,
      "t": 190181.80233333277,
      "d": 90.90908333333209,
      "v": 67
    },
    {
      "midi": 81,
      "hit": false,
      "t": 190181.80233333277,
      "d": 90.90908333333209,
      "v": 97
    },
    {
      "midi": 72,
      "hit": false,
      "t": 190545.4386666661,
      "d": 90.90908333333209,
      "v": 80
    },
    {
      "midi": 78,
      "hit": false,
      "t": 190545.4386666661,
      "d": 90.90908333333209,
      "v": 108
    },
    {
      "midi": 81,
      "hit": false,
      "t": 190545.4386666661,
      "d": 90.90908333333209,
      "v": 73
    },
    {
      "midi": 72,
      "hit": false,
      "t": 190909.07499999943,
      "d": 90.90908333333209,
      "v": 87
    },
    {
      "midi": 78,
      "hit": false,
      "t": 190909.07499999943,
      "d": 90.90908333333209,
      "v": 108
    },
    {
      "midi": 81,
      "hit": false,
      "t": 190909.07499999943,
      "d": 181.81816666666418,
      "v": 87
    },
    {
      "midi": 72,
      "hit": false,
      "t": 191272.71133333276,
      "d": 90.90908333333209,
      "v": 80
    },
    {
      "midi": 78,
      "hit": false,
      "t": 191272.71133333276,
      "d": 90.90908333333209,
      "v": 97
    },
    {
      "midi": 81,
      "hit": false,
      "t": 191272.71133333276,
      "d": 90.90908333333209,
      "v": 87
    },
    {
      "midi": 72,
      "hit": false,
      "t": 191636.3476666661,
      "d": 90.90908333333209,
      "v": 80
    },
    {
      "midi": 78,
      "hit": false,
      "t": 191636.3476666661,
      "d": 90.90908333333209,
      "v": 108
    },
    {
      "midi": 81,
      "hit": false,
      "t": 191636.3476666661,
      "d": 90.90908333333209,
      "v": 122
    },
    {
      "midi": 69,
      "hit": false,
      "t": 191999.98399999941,
      "d": 1999.9998333333351,
      "v": 122
    },
    {
      "midi": 72,
      "hit": false,
      "t": 191999.98399999941,
      "d": 1999.9998333333351,
      "v": 108
    },
    {
      "midi": 75,
      "hit": false,
      "t": 191999.98399999941,
      "d": 1999.9998333333351,
      "v": 122
    },
    {
      "midi": 79,
      "hit": false,
      "t": 191999.98399999941,
      "d": 1999.9998333333351,
      "v": 97
    },
    {
      "midi": 78,
      "hit": false,
      "t": 194181.8019999994,
      "d": 90.90908333333209,
      "v": 63
    },
    {
      "midi": 68,
      "hit": false,
      "t": 194181.8019999994,
      "d": 1999.9998333333351,
      "v": 122
    },
    {
      "midi": 74,
      "hit": false,
      "t": 194181.8019999994,
      "d": 1999.9998333333351,
      "v": 122
    },
    {
      "midi": 79,
      "hit": false,
      "t": 194181.8019999994,
      "d": 1999.9998333333351,
      "v": 122
    },
    {
      "midi": 71,
      "hit": false,
      "t": 196363.6199999994,
      "d": 90.90908333333209,
      "v": 63
    },
    {
      "midi": 79,
      "hit": false,
      "t": 196363.6199999994,
      "d": 90.90908333333209,
      "v": 122
    },
    {
      "midi": 72,
      "hit": false,
      "t": 196363.6199999994,
      "d": 1818.181666666671,
      "v": 87
    },
    {
      "midi": 76,
      "hit": false,
      "t": 196363.6199999994,
      "d": 1818.181666666671,
      "v": 80
    },
    {
      "midi": 81,
      "hit": false,
      "t": 196363.6199999994,
      "d": 1818.181666666671,
      "v": 97
    },
    {
      "midi": 29,
      "hit": false,
      "t": 198909.07433333274,
      "d": 90.90908333333209,
      "v": 122
    },
    {
      "midi": 28,
      "hit": false,
      "t": 198909.07433333274,
      "d": 181.81816666666418,
      "v": 108
    },
    {
      "midi": 40,
      "hit": false,
      "t": 198909.07433333274,
      "d": 181.81816666666418,
      "v": 108
    },
    {
      "midi": 28,
      "hit": false,
      "t": 199272.71066666607,
      "d": 181.81816666666418,
      "v": 122
    },
    {
      "midi": 40,
      "hit": false,
      "t": 199272.71066666607,
      "d": 181.81816666666418,
      "v": 87
    },
    {
      "midi": 28,
      "hit": false,
      "t": 199636.3469999994,
      "d": 136.36362499999814,
      "v": 122
    },
    {
      "midi": 40,
      "hit": false,
      "t": 199636.3469999994,
      "d": 136.36362499999814,
      "v": 87
    },
    {
      "midi": 28,
      "hit": false,
      "t": 199999.98333333273,
      "d": 136.36362499999814,
      "v": 122
    },
    {
      "midi": 40,
      "hit": false,
      "t": 199999.98333333273,
      "d": 136.36362499999814,
      "v": 80
    },
    {
      "midi": 28,
      "hit": false,
      "t": 200363.61966666605,
      "d": 136.36362499999814,
      "v": 108
    },
    {
      "midi": 40,
      "hit": false,
      "t": 200363.61966666605,
      "d": 136.36362499999814,
      "v": 87
    },
    {
      "midi": 72,
      "hit": false,
      "t": 200727.25599999938,
      "d": 227.27270833333023,
      "v": 122
    },
    {
      "midi": 76,
      "hit": false,
      "t": 200727.25599999938,
      "d": 227.27270833333023,
      "v": 122
    },
    {
      "midi": 81,
      "hit": false,
      "t": 200727.25599999938,
      "d": 227.27270833333023,
      "v": 97
    },
    {
      "midi": 72,
      "hit": false,
      "t": 201090.8923333327,
      "d": 90.90908333333209,
      "v": 108
    },
    {
      "midi": 76,
      "hit": false,
      "t": 201090.8923333327,
      "d": 90.90908333333209,
      "v": 97
    },
    {
      "midi": 81,
      "hit": false,
      "t": 201090.8923333327,
      "d": 90.90908333333209,
      "v": 87
    },
    {
      "midi": 72,
      "hit": false,
      "t": 201454.52866666604,
      "d": 90.90908333333209,
      "v": 108
    },
    {
      "midi": 76,
      "hit": false,
      "t": 201454.52866666604,
      "d": 90.90908333333209,
      "v": 122
    },
    {
      "midi": 81,
      "hit": false,
      "t": 201454.52866666604,
      "d": 90.90908333333209,
      "v": 87
    },
    {
      "midi": 72,
      "hit": false,
      "t": 201818.16499999937,
      "d": 90.90908333333209,
      "v": 97
    },
    {
      "midi": 76,
      "hit": false,
      "t": 201818.16499999937,
      "d": 90.90908333333209,
      "v": 122
    },
    {
      "midi": 81,
      "hit": false,
      "t": 201818.16499999937,
      "d": 90.90908333333209,
      "v": 87
    },
    {
      "midi": 72,
      "hit": false,
      "t": 202181.8013333327,
      "d": 90.90908333333209,
      "v": 87
    },
    {
      "midi": 76,
      "hit": false,
      "t": 202181.8013333327,
      "d": 90.90908333333209,
      "v": 122
    },
    {
      "midi": 81,
      "hit": false,
      "t": 202181.8013333327,
      "d": 90.90908333333209,
      "v": 80
    },
    {
      "midi": 72,
      "hit": false,
      "t": 202545.43766666602,
      "d": 90.90908333333209,
      "v": 108
    },
    {
      "midi": 76,
      "hit": false,
      "t": 202545.43766666602,
      "d": 90.90908333333209,
      "v": 108
    },
    {
      "midi": 81,
      "hit": false,
      "t": 202545.43766666602,
      "d": 90.90908333333209,
      "v": 87
    },
    {
      "midi": 71,
      "hit": false,
      "t": 202909.07399999935,
      "d": 90.90908333333209,
      "v": 108
    },
    {
      "midi": 76,
      "hit": false,
      "t": 202909.07399999935,
      "d": 90.90908333333209,
      "v": 87
    },
    {
      "midi": 79,
      "hit": false,
      "t": 202909.07399999935,
      "d": 90.90908333333209,
      "v": 97
    },
    {
      "midi": 71,
      "hit": false,
      "t": 203272.71033333268,
      "d": 90.90908333333209,
      "v": 108
    },
    {
      "midi": 76,
      "hit": false,
      "t": 203272.71033333268,
      "d": 90.90908333333209,
      "v": 80
    },
    {
      "midi": 79,
      "hit": false,
      "t": 203272.71033333268,
      "d": 90.90908333333209,
      "v": 122
    },
    {
      "midi": 71,
      "hit": false,
      "t": 203636.346666666,
      "d": 90.90908333333209,
      "v": 97
    },
    {
      "midi": 76,
      "hit": false,
      "t": 203636.346666666,
      "d": 90.90908333333209,
      "v": 73
    },
    {
      "midi": 79,
      "hit": false,
      "t": 203636.346666666,
      "d": 90.90908333333209,
      "v": 108
    },
    {
      "midi": 71,
      "hit": false,
      "t": 203999.98299999934,
      "d": 90.90908333333209,
      "v": 87
    },
    {
      "midi": 76,
      "hit": false,
      "t": 203999.98299999934,
      "d": 90.90908333333209,
      "v": 80
    },
    {
      "midi": 79,
      "hit": false,
      "t": 203999.98299999934,
      "d": 90.90908333333209,
      "v": 122
    },
    {
      "midi": 71,
      "hit": false,
      "t": 204363.61933333267,
      "d": 90.90908333333209,
      "v": 80
    },
    {
      "midi": 76,
      "hit": false,
      "t": 204363.61933333267,
      "d": 90.90908333333209,
      "v": 73
    },
    {
      "midi": 79,
      "hit": false,
      "t": 204363.61933333267,
      "d": 90.90908333333209,
      "v": 97
    },
    {
      "midi": 71,
      "hit": false,
      "t": 204727.255666666,
      "d": 90.90908333333209,
      "v": 87
    },
    {
      "midi": 76,
      "hit": false,
      "t": 204727.255666666,
      "d": 90.90908333333209,
      "v": 97
    },
    {
      "midi": 79,
      "hit": false,
      "t": 204727.255666666,
      "d": 90.90908333333209,
      "v": 97
    },
    {
      "midi": 72,
      "hit": false,
      "t": 205090.89199999932,
      "d": 90.90908333333209,
      "v": 122
    },
    {
      "midi": 76,
      "hit": false,
      "t": 205090.89199999932,
      "d": 90.90908333333209,
      "v": 87
    },
    {
      "midi": 81,
      "hit": false,
      "t": 205090.89199999932,
      "d": 90.90908333333209,
      "v": 97
    },
    {
      "midi": 81,
      "hit": false,
      "t": 205090.892,
      "d": 1090.9090000000142,
      "v": 122
    },
    {
      "midi": 72,
      "hit": false,
      "t": 205454.52833333265,
      "d": 90.90908333333209,
      "v": 97
    },
    {
      "midi": 76,
      "hit": false,
      "t": 205454.52833333265,
      "d": 90.90908333333209,
      "v": 87
    },
    {
      "midi": 81,
      "hit": false,
      "t": 205454.52833333265,
      "d": 90.90908333333209,
      "v": 80
    },
    {
      "midi": 72,
      "hit": false,
      "t": 205818.16466666598,
      "d": 90.90908333333209,
      "v": 97
    },
    {
      "midi": 76,
      "hit": false,
      "t": 205818.16466666598,
      "d": 90.90908333333209,
      "v": 108
    },
    {
      "midi": 81,
      "hit": false,
      "t": 205818.16466666598,
      "d": 90.90908333333209,
      "v": 73
    },
    {
      "midi": 72,
      "hit": false,
      "t": 206181.8009999993,
      "d": 90.90908333333209,
      "v": 122
    },
    {
      "midi": 76,
      "hit": false,
      "t": 206181.8009999993,
      "d": 90.90908333333209,
      "v": 87
    },
    {
      "midi": 81,
      "hit": false,
      "t": 206181.8009999993,
      "d": 90.90908333333209,
      "v": 87
    },
    {
      "midi": 72,
      "hit": false,
      "t": 206545.43733333264,
      "d": 90.90908333333209,
      "v": 97
    },
    {
      "midi": 76,
      "hit": false,
      "t": 206545.43733333264,
      "d": 90.90908333333209,
      "v": 97
    },
    {
      "midi": 81,
      "hit": false,
      "t": 206545.43733333264,
      "d": 90.90908333333209,
      "v": 80
    },
    {
      "midi": 72,
      "hit": false,
      "t": 206909.07366666596,
      "d": 90.90908333333209,
      "v": 97
    },
    {
      "midi": 76,
      "hit": false,
      "t": 206909.07366666596,
      "d": 90.90908333333209,
      "v": 87
    },
    {
      "midi": 81,
      "hit": false,
      "t": 206909.07366666596,
      "d": 90.90908333333209,
      "v": 87
    },
    {
      "midi": 72,
      "hit": false,
      "t": 207272.7099999993,
      "d": 90.90908333333209,
      "v": 97
    },
    {
      "midi": 78,
      "hit": false,
      "t": 207272.7099999993,
      "d": 90.90908333333209,
      "v": 122
    },
    {
      "midi": 81,
      "hit": false,
      "t": 207272.7099999993,
      "d": 90.90908333333209,
      "v": 108
    },
    {
      "midi": 72,
      "hit": false,
      "t": 207636.34633333262,
      "d": 90.90908333333209,
      "v": 87
    },
    {
      "midi": 78,
      "hit": false,
      "t": 207636.34633333262,
      "d": 90.90908333333209,
      "v": 122
    },
    {
      "midi": 81,
      "hit": false,
      "t": 207636.34633333262,
      "d": 90.90908333333209,
      "v": 80
    },
    {
      "midi": 72,
      "hit": false,
      "t": 207999.98266666595,
      "d": 90.90908333333209,
      "v": 87
    },
    {
      "midi": 78,
      "hit": false,
      "t": 207999.98266666595,
      "d": 90.90908333333209,
      "v": 87
    },
    {
      "midi": 81,
      "hit": false,
      "t": 207999.98266666595,
      "d": 90.90908333333209,
      "v": 80
    },
    {
      "midi": 72,
      "hit": false,
      "t": 208363.61899999928,
      "d": 90.90908333333209,
      "v": 97
    },
    {
      "midi": 78,
      "hit": false,
      "t": 208363.61899999928,
      "d": 90.90908333333209,
      "v": 97
    },
    {
      "midi": 81,
      "hit": false,
      "t": 208363.61899999928,
      "d": 181.81816666666418,
      "v": 87
    },
    {
      "midi": 72,
      "hit": false,
      "t": 208727.2553333326,
      "d": 90.90908333333209,
      "v": 87
    },
    {
      "midi": 78,
      "hit": false,
      "t": 208727.2553333326,
      "d": 90.90908333333209,
      "v": 87
    },
    {
      "midi": 81,
      "hit": false,
      "t": 208727.2553333326,
      "d": 90.90908333333209,
      "v": 80
    },
    {
      "midi": 72,
      "hit": false,
      "t": 209090.89166666594,
      "d": 90.90908333333209,
      "v": 97
    },
    {
      "midi": 78,
      "hit": false,
      "t": 209090.89166666594,
      "d": 90.90908333333209,
      "v": 108
    },
    {
      "midi": 81,
      "hit": false,
      "t": 209090.89166666594,
      "d": 90.90908333333209,
      "v": 80
    },
    {
      "midi": 69,
      "hit": false,
      "t": 209454.52799999926,
      "d": 4090.9087500000023,
      "v": 122
    },
    {
      "midi": 72,
      "hit": false,
      "t": 209454.52799999926,
      "d": 4090.9087500000023,
      "v": 97
    },
    {
      "midi": 79,
      "hit": false,
      "t": 209454.52799999926,
      "d": 4090.9087500000023,
      "v": 97
    },
    {
      "midi": 75,
      "hit": false,
      "t": 209454.52799999926,
      "d": 4181.817833333334,
      "v": 108
    },
    {
      "midi": 68,
      "hit": false,
      "t": 213818.16399999926,
      "d": 3909.090583333338,
      "v": 122
    },
    {
      "midi": 74,
      "hit": false,
      "t": 213818.16399999926,
      "d": 3909.090583333338,
      "v": 108
    },
    {
      "midi": 79,
      "hit": false,
      "t": 213818.16399999926,
      "d": 3909.090583333338,
      "v": 122
    },
    {
      "midi": 45,
      "hit": false,
      "t": 356727.2429999993,
      "d": 2272.7270833333605,
      "v": 97
    },
    {
      "midi": 60,
      "hit": false,
      "t": 356727.2429999993,
      "d": 2272.7270833333605,
      "v": 108
    },
    {
      "midi": 64,
      "hit": false,
      "t": 356727.2429999993,
      "d": 2272.7270833333605,
      "v": 122
    },
    {
      "midi": 67,
      "hit": false,
      "t": 356727.2429999993,
      "d": 2272.7270833333605,
      "v": 122
    },
    {
      "midi": 71,
      "hit": false,
      "t": 356727.2429999993,
      "d": 2272.7270833333605,
      "v": 122
    }
  ]
}