{
  "jsonPath": "Latin/Latin/Luis Miguel/no-se-tu.json",
  "path": "Latin\\Latin\\Luis Miguel\\No Sé Tú.mid",
  "name": "No Sé Tú",
  "difficulty": "Advanced",
  "bpm": 73.99998273333736,
  "notes": [
    {
      "midi": 44,
      "hit": false,
      "t": 3881.0486458333335,
      "d": 3336.6937708333335,
      "v": 81
    },
    {
      "midi": 51,
      "hit": false,
      "t": 4364.919645833334,
      "d": 3407.258291666666,
      "v": 83
    },
    {
      "midi": 56,
      "hit": false,
      "t": 4848.790645833334,
      "d": 2348.790479166667,
      "v": 87
    },
    {
      "midi": 58,
      "hit": false,
      "t": 5332.661645833334,
      "d": 544.354875,
      "v": 89
    },
    {
      "midi": 60,
      "hit": false,
      "t": 5816.532645833334,
      "d": 2066.532395833333,
      "v": 108
    },
    {
      "midi": 43,
      "hit": false,
      "t": 7752.016645833333,
      "d": 3417.338937499997,
      "v": 76
    },
    {
      "midi": 51,
      "hit": false,
      "t": 8235.887645833332,
      "d": 2802.4195416666644,
      "v": 85
    },
    {
      "midi": 55,
      "hit": false,
      "t": 8719.758645833332,
      "d": 3014.113104166665,
      "v": 97
    },
    {
      "midi": 60,
      "hit": false,
      "t": 9203.62964583333,
      "d": 2560.4840416666666,
      "v": 97
    },
    {
      "midi": 63,
      "hit": false,
      "t": 9687.50064583333,
      "d": 2086.693687500001,
      "v": 102
    },
    {
      "midi": 41,
      "hit": false,
      "t": 11622.98464583333,
      "d": 3195.5647291666646,
      "v": 97
    },
    {
      "midi": 48,
      "hit": false,
      "t": 12106.855645833331,
      "d": 2852.8227708333307,
      "v": 81
    },
    {
      "midi": 56,
      "hit": false,
      "t": 12590.72664583333,
      "d": 1491.935583333332,
      "v": 93
    },
    {
      "midi": 60,
      "hit": false,
      "t": 13074.59764583333,
      "d": 514.1129375,
      "v": 95
    },
    {
      "midi": 65,
      "hit": false,
      "t": 13558.468645833329,
      "d": 1683.467854166669,
      "v": 100
    },
    {
      "midi": 60,
      "hit": false,
      "t": 14042.33964583333,
      "d": 1088.70975,
      "v": 97
    },
    {
      "midi": 56,
      "hit": false,
      "t": 14506.049354166662,
      "d": 715.7258541666688,
      "v": 102
    },
    {
      "midi": 53,
      "hit": false,
      "t": 14989.920354166663,
      "d": 463.7097083333356,
      "v": 93
    },
    {
      "midi": 51,
      "hit": false,
      "t": 15473.791354166666,
      "d": 3397.1776458333316,
      "v": 102
    },
    {
      "midi": 56,
      "hit": false,
      "t": 15957.662354166665,
      "d": 2933.4679374999996,
      "v": 79
    },
    {
      "midi": 60,
      "hit": false,
      "t": 16441.533354166666,
      "d": 3004.0324583333313,
      "v": 78
    },
    {
      "midi": 65,
      "hit": false,
      "t": 16925.404354166665,
      "d": 2399.1937083333323,
      "v": 95
    },
    {
      "midi": 37,
      "hit": false,
      "t": 19364.920645833332,
      "d": 3135.0808541666665,
      "v": 100
    },
    {
      "midi": 44,
      "hit": false,
      "t": 19828.630354166664,
      "d": 3377.0163541666698,
      "v": 81
    },
    {
      "midi": 49,
      "hit": false,
      "t": 20332.66264583333,
      "d": 2590.7259791666693,
      "v": 85
    },
    {
      "midi": 53,
      "hit": false,
      "t": 20796.372354166662,
      "d": 2419.355000000003,
      "v": 79
    },
    {
      "midi": 56,
      "hit": false,
      "t": 21290.323999999997,
      "d": 544.3548750000009,
      "v": 104
    },
    {
      "midi": 61,
      "hit": false,
      "t": 21764.114354166664,
      "d": 574.5968124999999,
      "v": 97
    },
    {
      "midi": 56,
      "hit": false,
      "t": 22258.066,
      "d": 907.2581250000003,
      "v": 95
    },
    {
      "midi": 61,
      "hit": false,
      "t": 22731.856354166666,
      "d": 524.1935833333337,
      "v": 108
    },
    {
      "midi": 38,
      "hit": false,
      "t": 23215.727354166665,
      "d": 3427.4195833333324,
      "v": 93
    },
    {
      "midi": 50,
      "hit": false,
      "t": 23699.59835416667,
      "d": 3256.0486041666627,
      "v": 87
    },
    {
      "midi": 53,
      "hit": false,
      "t": 24183.469354166667,
      "d": 2983.8711666666604,
      "v": 79
    },
    {
      "midi": 58,
      "hit": false,
      "t": 24667.340354166667,
      "d": 2479.838874999994,
      "v": 85
    },
    {
      "midi": 62,
      "hit": false,
      "t": 25151.211354166666,
      "d": 1965.7259374999958,
      "v": 102
    },
    {
      "midi": 39,
      "hit": false,
      "t": 27086.695354166663,
      "d": 7429.435979166661,
      "v": 97
    },
    {
      "midi": 46,
      "hit": false,
      "t": 27570.56635416666,
      "d": 6945.564979166662,
      "v": 81
    },
    {
      "midi": 51,
      "hit": false,
      "t": 28054.43735416666,
      "d": 473.7903541666674,
      "v": 75
    },
    {
      "midi": 55,
      "hit": false,
      "t": 28538.30835416666,
      "d": 574.5968124999999,
      "v": 97
    },
    {
      "midi": 51,
      "hit": false,
      "t": 29042.340645833327,
      "d": 5423.387458333331,
      "v": 78
    },
    {
      "midi": 55,
      "hit": false,
      "t": 29506.05035416666,
      "d": 977.8226458333302,
      "v": 91
    },
    {
      "midi": 58,
      "hit": false,
      "t": 29989.921354166658,
      "d": 604.838749999999,
      "v": 81
    },
    {
      "midi": 63,
      "hit": false,
      "t": 30473.792354166657,
      "d": 473.7903541666674,
      "v": 85
    },
    {
      "midi": 58,
      "hit": false,
      "t": 30967.74399999999,
      "d": 705.6452083333352,
      "v": 100
    },
    {
      "midi": 63,
      "hit": false,
      "t": 31461.695645833326,
      "d": 574.5968124999999,
      "v": 72
    },
    {
      "midi": 67,
      "hit": false,
      "t": 31945.566645833325,
      "d": 574.5968124999999,
      "v": 87
    },
    {
      "midi": 70,
      "hit": false,
      "t": 32429.437645833324,
      "d": 554.4355208333327,
      "v": 93
    },
    {
      "midi": 67,
      "hit": false,
      "t": 32913.30864583333,
      "d": 1491.935583333332,
      "v": 100
    },
    {
      "midi": 75,
      "hit": false,
      "t": 32913.30864583333,
      "d": 1491.935583333332,
      "v": 89
    },
    {
      "midi": 44,
      "hit": false,
      "t": 34848.792645833324,
      "d": 957.6613541666666,
      "v": 93
    },
    {
      "midi": 51,
      "hit": false,
      "t": 35322.58299999999,
      "d": 544.3548749999973,
      "v": 89
    },
    {
      "midi": 80,
      "hit": false,
      "t": 35796.37335416666,
      "d": 1431.4517083333267,
      "v": 97
    },
    {
      "midi": 72,
      "hit": false,
      "t": 35796.37335416666,
      "d": 1622.98397916666,
      "v": 93
    },
    {
      "midi": 56,
      "hit": false,
      "t": 35796.37335416666,
      "d": 1804.4356041666615,
      "v": 89
    },
    {
      "midi": 73,
      "hit": false,
      "t": 38235.88964583332,
      "d": 453.6290625000038,
      "v": 97
    },
    {
      "midi": 43,
      "hit": false,
      "t": 38719.760645833325,
      "d": 745.9677916666697,
      "v": 93
    },
    {
      "midi": 75,
      "hit": false,
      "t": 38719.760645833325,
      "d": 3114.9195625000066,
      "v": 95
    },
    {
      "midi": 51,
      "hit": false,
      "t": 39183.47035416666,
      "d": 443.548416666672,
      "v": 79
    },
    {
      "midi": 55,
      "hit": false,
      "t": 39667.34135416667,
      "d": 584.6774583333317,
      "v": 83
    },
    {
      "midi": 60,
      "hit": false,
      "t": 40151.212354166666,
      "d": 1522.1775208333347,
      "v": 76
    },
    {
      "midi": 41,
      "hit": false,
      "t": 42570.56735416667,
      "d": 493.951645833331,
      "v": 95
    },
    {
      "midi": 77,
      "hit": false,
      "t": 42570.56735416667,
      "d": 1965.7259374999921,
      "v": 104
    },
    {
      "midi": 68,
      "hit": false,
      "t": 42580.648,
      "d": 3346.77441666666,
      "v": 97
    },
    {
      "midi": 48,
      "hit": false,
      "t": 43054.43835416667,
      "d": 463.7097083333283,
      "v": 97
    },
    {
      "midi": 56,
      "hit": false,
      "t": 43538.30935416666,
      "d": 584.6774583333317,
      "v": 79
    },
    {
      "midi": 60,
      "hit": false,
      "t": 44022.18035416666,
      "d": 1300.4033124999987,
      "v": 91
    },
    {
      "midi": 70,
      "hit": false,
      "t": 45957.66435416666,
      "d": 463.7097083333356,
      "v": 75
    },
    {
      "midi": 39,
      "hit": false,
      "t": 46441.53535416666,
      "d": 514.1129375000019,
      "v": 97
    },
    {
      "midi": 72,
      "hit": false,
      "t": 46441.53535416666,
      "d": 3185.4840833333365,
      "v": 102
    },
    {
      "midi": 63,
      "hit": false,
      "t": 46441.53535416666,
      "d": 3397.1776458333334,
      "v": 79
    },
    {
      "midi": 51,
      "hit": false,
      "t": 46925.40635416666,
      "d": 433.4677708333329,
      "v": 81
    },
    {
      "midi": 56,
      "hit": false,
      "t": 47409.27735416666,
      "d": 524.1935833333337,
      "v": 93
    },
    {
      "midi": 60,
      "hit": false,
      "t": 47893.14835416666,
      "d": 1360.887187500004,
      "v": 77
    },
    {
      "midi": 38,
      "hit": false,
      "t": 50322.583999999995,
      "d": 342.7419583333249,
      "v": 95
    },
    {
      "midi": 70,
      "hit": false,
      "t": 50332.66464583333,
      "d": 1441.5323541666585,
      "v": 100
    },
    {
      "midi": 53,
      "hit": false,
      "t": 50816.53564583332,
      "d": 2600.8066250000047,
      "v": 87
    },
    {
      "midi": 58,
      "hit": false,
      "t": 51280.245354166655,
      "d": 2137.096916666669,
      "v": 75
    },
    {
      "midi": 77,
      "hit": false,
      "t": 51764.116354166654,
      "d": 90.72581250000076,
      "v": 108
    },
    {
      "midi": 62,
      "hit": false,
      "t": 51764.116354166654,
      "d": 1149.1936249999999,
      "v": 78
    },
    {
      "midi": 65,
      "hit": false,
      "t": 53215.72935416665,
      "d": 120.96775000000343,
      "v": 120
    },
    {
      "midi": 39,
      "hit": false,
      "t": 54183.47135416666,
      "d": 120.96775000000343,
      "v": 103
    },
    {
      "midi": 65,
      "hit": false,
      "t": 54183.47135416666,
      "d": 977.8226458333374,
      "v": 97
    },
    {
      "midi": 56,
      "hit": false,
      "t": 54667.34235416666,
      "d": 655.2419791666616,
      "v": 78
    },
    {
      "midi": 61,
      "hit": false,
      "t": 55151.21335416666,
      "d": 463.7097083333283,
      "v": 97
    },
    {
      "midi": 66,
      "hit": false,
      "t": 55635.084354166655,
      "d": 20.1612916666636,
      "v": 65
    },
    {
      "midi": 67,
      "hit": false,
      "t": 55635.084354166655,
      "d": 2379.0324166666614,
      "v": 120
    },
    {
      "midi": 37,
      "hit": false,
      "t": 55635.084354166655,
      "d": 2389.1130624999932,
      "v": 91
    },
    {
      "midi": 58,
      "hit": false,
      "t": 55635.084354166655,
      "d": 2399.193708333325,
      "v": 102
    },
    {
      "midi": 67,
      "hit": false,
      "t": 58054.43935416664,
      "d": 1058.4678124999991,
      "v": 108
    },
    {
      "midi": 36,
      "hit": false,
      "t": 58054.43935416664,
      "d": 1310.4839583333378,
      "v": 100
    },
    {
      "midi": 58,
      "hit": false,
      "t": 58538.31035416664,
      "d": 695.5645625000034,
      "v": 93
    },
    {
      "midi": 63,
      "hit": false,
      "t": 59022.18135416664,
      "d": 403.2258333333448,
      "v": 87
    },
    {
      "midi": 66,
      "hit": false,
      "t": 59506.052354166655,
      "d": 1925.403354166665,
      "v": 100
    },
    {
      "midi": 57,
      "hit": false,
      "t": 59506.052354166655,
      "d": 1975.8065833333312,
      "v": 97
    },
    {
      "midi": 63,
      "hit": false,
      "t": 59506.052354166655,
      "d": 1975.8065833333312,
      "v": 89
    },
    {
      "midi": 41,
      "hit": false,
      "t": 59506.052354166655,
      "d": 2076.613041666664,
      "v": 102
    },
    {
      "midi": 65,
      "hit": false,
      "t": 61945.56864583332,
      "d": 564.5161666666681,
      "v": 102
    },
    {
      "midi": 46,
      "hit": false,
      "t": 61945.56864583332,
      "d": 3719.758312500009,
      "v": 100
    },
    {
      "midi": 56,
      "hit": false,
      "t": 62419.35899999999,
      "d": 1028.2258749999964,
      "v": 93
    },
    {
      "midi": 61,
      "hit": false,
      "t": 62893.14935416666,
      "d": 564.5161666666609,
      "v": 97
    },
    {
      "midi": 65,
      "hit": false,
      "t": 63377.020354166656,
      "d": 120.96774999999616,
      "v": 110
    },
    {
      "midi": 75,
      "hit": false,
      "t": 64344.762354166654,
      "d": 534.2742291666655,
      "v": 71
    },
    {
      "midi": 87,
      "hit": false,
      "t": 64828.63335416665,
      "d": 90.72581250000076,
      "v": 110
    },
    {
      "midi": 65,
      "hit": false,
      "t": 65796.37535416667,
      "d": 574.5968124999927,
      "v": 78
    },
    {
      "midi": 39,
      "hit": false,
      "t": 65796.37535416667,
      "d": 1643.1452708333381,
      "v": 100
    },
    {
      "midi": 58,
      "hit": false,
      "t": 66280.24635416667,
      "d": 1098.7903958333336,
      "v": 81
    },
    {
      "midi": 61,
      "hit": false,
      "t": 66764.11735416666,
      "d": 493.95164583333826,
      "v": 95
    },
    {
      "midi": 68,
      "hit": false,
      "t": 67247.98835416666,
      "d": 453.62906250001106,
      "v": 106
    },
    {
      "midi": 55,
      "hit": false,
      "t": 67731.85935416668,
      "d": 927.4194166666712,
      "v": 95
    },
    {
      "midi": 39,
      "hit": false,
      "t": 67731.85935416668,
      "d": 1854.8388333333278,
      "v": 89
    },
    {
      "midi": 63,
      "hit": false,
      "t": 67731.85935416668,
      "d": 2016.1291666666657,
      "v": 102
    },
    {
      "midi": 70,
      "hit": false,
      "t": 69183.47235416668,
      "d": 383.0645416666666,
      "v": 100
    },
    {
      "midi": 68,
      "hit": false,
      "t": 69687.50464583334,
      "d": 1401.2097708333167,
      "v": 92
    },
    {
      "midi": 44,
      "hit": false,
      "t": 69687.50464583334,
      "d": 3235.887312499952,
      "v": 92
    },
    {
      "midi": 51,
      "hit": false,
      "t": 70171.37564583334,
      "d": 3235.8873124999664,
      "v": 92
    },
    {
      "midi": 56,
      "hit": false,
      "t": 70645.166,
      "d": 352.82260416666395,
      "v": 92
    },
    {
      "midi": 60,
      "hit": false,
      "t": 71129.03699999998,
      "d": 504.0322916666628,
      "v": 92
    },
    {
      "midi": 63,
      "hit": false,
      "t": 71602.82735416664,
      "d": 151.20968749999884,
      "v": 92
    },
    {
      "midi": 72,
      "hit": false,
      "t": 71602.82735416664,
      "d": 342.7419583333249,
      "v": 92
    },
    {
      "midi": 63,
      "hit": false,
      "t": 71844.76285416663,
      "d": 342.7419583333249,
      "v": 92
    },
    {
      "midi": 60,
      "hit": false,
      "t": 72086.69835416663,
      "d": 524.1935833333264,
      "v": 92
    },
    {
      "midi": 56,
      "hit": false,
      "t": 72570.56935416663,
      "d": 352.82260416666395,
      "v": 92
    },
    {
      "midi": 68,
      "hit": false,
      "t": 72570.56935416663,
      "d": 483.8709999999992,
      "v": 92
    },
    {
      "midi": 63,
      "hit": false,
      "t": 72570.56935416663,
      "d": 675.4032708333398,
      "v": 92
    },
    {
      "midi": 60,
      "hit": false,
      "t": 73054.44035416663,
      "d": 342.7419583333394,
      "v": 92
    },
    {
      "midi": 67,
      "hit": false,
      "t": 73538.31135416664,
      "d": 1209.6775000000052,
      "v": 93
    },
    {
      "midi": 43,
      "hit": false,
      "t": 73538.31135416664,
      "d": 3397.177645833348,
      "v": 93
    },
    {
      "midi": 51,
      "hit": false,
      "t": 74022.18235416664,
      "d": 2852.8227708333434,
      "v": 93
    },
    {
      "midi": 55,
      "hit": false,
      "t": 74506.05335416664,
      "d": 453.62906250001106,
      "v": 93
    },
    {
      "midi": 60,
      "hit": false,
      "t": 74989.92435416665,
      "d": 756.0484374999942,
      "v": 93
    },
    {
      "midi": 67,
      "hit": false,
      "t": 75957.66635416665,
      "d": 977.8226458333374,
      "v": 93
    },
    {
      "midi": 63,
      "hit": false,
      "t": 75957.66635416665,
      "d": 1058.4678125000064,
      "v": 93
    },
    {
      "midi": 55,
      "hit": false,
      "t": 76441.53735416665,
      "d": 342.7419583333394,
      "v": 93
    },
    {
      "midi": 60,
      "hit": false,
      "t": 76925.40835416665,
      "d": 80.64516666666896,
      "v": 94
    },
    {
      "midi": 56,
      "hit": false,
      "t": 77409.27935416666,
      "d": 987.9032916666765,
      "v": 94
    },
    {
      "midi": 68,
      "hit": false,
      "t": 77409.27935416666,
      "d": 1008.0645833333401,
      "v": 94
    },
    {
      "midi": 41,
      "hit": false,
      "t": 77409.27935416666,
      "d": 2953.629229166676,
      "v": 94
    },
    {
      "midi": 65,
      "hit": false,
      "t": 77419.36,
      "d": 866.9355416666804,
      "v": 94
    },
    {
      "midi": 48,
      "hit": false,
      "t": 77893.15035416668,
      "d": 2520.1614583333285,
      "v": 94
    },
    {
      "midi": 53,
      "hit": false,
      "t": 78377.02135416667,
      "d": 514.1129375000019,
      "v": 94
    },
    {
      "midi": 56,
      "hit": false,
      "t": 78860.89235416667,
      "d": 1451.6129999999976,
      "v": 94
    },
    {
      "midi": 68,
      "hit": false,
      "t": 79344.76335416667,
      "d": 1421.3710624999949,
      "v": 94
    },
    {
      "midi": 53,
      "hit": false,
      "t": 79828.63435416667,
      "d": 493.95164583333826,
      "v": 94
    },
    {
      "midi": 65,
      "hit": false,
      "t": 79828.63435416667,
      "d": 897.1774791666685,
      "v": 94
    },
    {
      "midi": 60,
      "hit": false,
      "t": 80312.50535416667,
      "d": 1905.242062499994,
      "v": 95
    },
    {
      "midi": 56,
      "hit": false,
      "t": 80796.37635416667,
      "d": 1461.6936458333366,
      "v": 95
    },
    {
      "midi": 39,
      "hit": false,
      "t": 81280.24735416667,
      "d": 524.1935833333264,
      "v": 95
    },
    {
      "midi": 48,
      "hit": false,
      "t": 81764.11835416667,
      "d": 1653.2259166666627,
      "v": 95
    },
    {
      "midi": 53,
      "hit": false,
      "t": 82247.98935416667,
      "d": 1129.0323333333363,
      "v": 95
    },
    {
      "midi": 56,
      "hit": false,
      "t": 82731.86035416667,
      "d": 1552.41945833333,
      "v": 95
    },
    {
      "midi": 60,
      "hit": false,
      "t": 83215.73135416667,
      "d": 463.7097083333356,
      "v": 95
    },
    {
      "midi": 68,
      "hit": false,
      "t": 83215.73135416667,
      "d": 967.7419999999984,
      "v": 95
    },
    {
      "midi": 65,
      "hit": false,
      "t": 83699.60235416667,
      "d": 796.3710208333359,
      "v": 96
    },
    {
      "midi": 48,
      "hit": false,
      "t": 84183.47335416666,
      "d": 292.33872916667315,
      "v": 96
    },
    {
      "midi": 60,
      "hit": false,
      "t": 84183.47335416666,
      "d": 514.1129375000019,
      "v": 96
    },
    {
      "midi": 56,
      "hit": false,
      "t": 84667.34435416666,
      "d": 171.37097916666244,
      "v": 96
    },
    {
      "midi": 53,
      "hit": false,
      "t": 85151.21535416666,
      "d": 372.98389583332755,
      "v": 96
    },
    {
      "midi": 58,
      "hit": false,
      "t": 85151.21535416666,
      "d": 473.7903541666601,
      "v": 96
    },
    {
      "midi": 62,
      "hit": false,
      "t": 85151.21535416666,
      "d": 483.8709999999992,
      "v": 96
    },
    {
      "midi": 38,
      "hit": false,
      "t": 85151.21535416666,
      "d": 3044.3550416666403,
      "v": 96
    },
    {
      "midi": 46,
      "hit": false,
      "t": 85635.08635416666,
      "d": 1522.1775208333274,
      "v": 96
    },
    {
      "midi": 58,
      "hit": false,
      "t": 86118.95735416666,
      "d": 514.1129375000019,
      "v": 96
    },
    {
      "midi": 70,
      "hit": false,
      "t": 86602.82835416666,
      "d": 776.2097291666578,
      "v": 96
    },
    {
      "midi": 62,
      "hit": false,
      "t": 86602.82835416666,
      "d": 947.5807083333202,
      "v": 96
    },
    {
      "midi": 50,
      "hit": false,
      "t": 87086.69935416666,
      "d": 1068.5484583333164,
      "v": 97
    },
    {
      "midi": 58,
      "hit": false,
      "t": 87570.57035416664,
      "d": 927.4194166666566,
      "v": 97
    },
    {
      "midi": 46,
      "hit": false,
      "t": 88054.44135416664,
      "d": 141.12904166665976,
      "v": 97
    },
    {
      "midi": 65,
      "hit": false,
      "t": 88054.44135416664,
      "d": 554.4355208333145,
      "v": 97
    },
    {
      "midi": 58,
      "hit": false,
      "t": 88538.31235416663,
      "d": 171.37097916666244,
      "v": 97
    },
    {
      "midi": 62,
      "hit": false,
      "t": 88558.47364583329,
      "d": 110.88710416667163,
      "v": 97
    },
    {
      "midi": 61,
      "hit": false,
      "t": 89022.18335416663,
      "d": 1250.0000833333324,
      "v": 97
    },
    {
      "midi": 65,
      "hit": false,
      "t": 89022.18335416663,
      "d": 1370.9678333333286,
      "v": 97
    },
    {
      "midi": 37,
      "hit": false,
      "t": 89022.18335416663,
      "d": 1572.5807499999937,
      "v": 97
    },
    {
      "midi": 44,
      "hit": false,
      "t": 89506.05435416663,
      "d": 1471.7742916666466,
      "v": 97
    },
    {
      "midi": 49,
      "hit": false,
      "t": 89989.92535416663,
      "d": 897.1774791666539,
      "v": 97
    },
    {
      "midi": 61,
      "hit": false,
      "t": 90473.79635416662,
      "d": 40.3225833333272,
      "v": 98
    },
    {
      "midi": 56,
      "hit": false,
      "t": 90473.79635416662,
      "d": 342.7419583333249,
      "v": 98
    },
    {
      "midi": 58,
      "hit": false,
      "t": 90957.66735416661,
      "d": 635.080687499998,
      "v": 98
    },
    {
      "midi": 67,
      "hit": false,
      "t": 90957.66735416661,
      "d": 947.5807083333348,
      "v": 98
    },
    {
      "midi": 63,
      "hit": false,
      "t": 90957.66735416661,
      "d": 987.903291666662,
      "v": 98
    },
    {
      "midi": 37,
      "hit": false,
      "t": 90957.66735416661,
      "d": 1512.096875000003,
      "v": 98
    },
    {
      "midi": 44,
      "hit": false,
      "t": 91441.53835416661,
      "d": 1441.5323541666585,
      "v": 98
    },
    {
      "midi": 58,
      "hit": false,
      "t": 91925.40935416661,
      "d": 564.5161666666681,
      "v": 98
    },
    {
      "midi": 67,
      "hit": false,
      "t": 92409.2803541666,
      "d": 302.4193749999977,
      "v": 98
    },
    {
      "midi": 63,
      "hit": false,
      "t": 92409.2803541666,
      "d": 352.82260416666395,
      "v": 98
    },
    {
      "midi": 67,
      "hit": false,
      "t": 92893.1513541666,
      "d": 1058.4678125000064,
      "v": 98
    },
    {
      "midi": 63,
      "hit": false,
      "t": 92893.1513541666,
      "d": 1068.5484583333455,
      "v": 98
    },
    {
      "midi": 36,
      "hit": false,
      "t": 92893.1513541666,
      "d": 2983.871166666693,
      "v": 98
    },
    {
      "midi": 43,
      "hit": false,
      "t": 93397.18364583327,
      "d": 493.95164583333826,
      "v": 98
    },
    {
      "midi": 48,
      "hit": false,
      "t": 93860.8933541666,
      "d": 1421.371062500024,
      "v": 99
    },
    {
      "midi": 58,
      "hit": false,
      "t": 94344.76435416662,
      "d": 877.0161875000049,
      "v": 99
    },
    {
      "midi": 67,
      "hit": false,
      "t": 95312.50635416663,
      "d": 897.1774791666685,
      "v": 99
    },
    {
      "midi": 63,
      "hit": false,
      "t": 95312.50635416663,
      "d": 987.903291666662,
      "v": 99
    },
    {
      "midi": 48,
      "hit": false,
      "t": 95796.37735416663,
      "d": 453.6290624999965,
      "v": 99
    },
    {
      "midi": 58,
      "hit": false,
      "t": 96280.24835416663,
      "d": 322.5806666666613,
      "v": 99
    },
    {
      "midi": 57,
      "hit": false,
      "t": 96764.11935416663,
      "d": 1068.548458333331,
      "v": 99
    },
    {
      "midi": 41,
      "hit": false,
      "t": 96764.11935416663,
      "d": 2116.9356249999983,
      "v": 99
    },
    {
      "midi": 48,
      "hit": false,
      "t": 97247.99035416663,
      "d": 1723.7904374999925,
      "v": 100
    },
    {
      "midi": 53,
      "hit": false,
      "t": 97731.86135416663,
      "d": 272.177437499995,
      "v": 100
    },
    {
      "midi": 60,
      "hit": false,
      "t": 97731.86135416663,
      "d": 685.4839166666643,
      "v": 100
    },
    {
      "midi": 63,
      "hit": false,
      "t": 98215.73235416663,
      "d": 483.8709999999992,
      "v": 100
    },
    {
      "midi": 57,
      "hit": false,
      "t": 98699.60335416663,
      "d": 151.20968749999884,
      "v": 100
    },
    {
      "midi": 53,
      "hit": false,
      "t": 98699.60335416663,
      "d": 161.2903333333379,
      "v": 100
    },
    {
      "midi": 60,
      "hit": false,
      "t": 98699.60335416663,
      "d": 433.4677708333329,
      "v": 100
    },
    {
      "midi": 65,
      "hit": false,
      "t": 98699.60335416663,
      "d": 473.7903541666601,
      "v": 100
    },
    {
      "midi": 37,
      "hit": false,
      "t": 100645.16799999995,
      "d": 453.6290624999965,
      "v": 106
    },
    {
      "midi": 56,
      "hit": false,
      "t": 100645.16799999995,
      "d": 806.4516666666605,
      "v": 102
    },
    {
      "midi": 64,
      "hit": false,
      "t": 100645.16799999995,
      "d": 836.6936041666631,
      "v": 113
    },
    {
      "midi": 61,
      "hit": false,
      "t": 100645.16799999995,
      "d": 907.258124999993,
      "v": 110
    },
    {
      "midi": 44,
      "hit": false,
      "t": 101118.9583541666,
      "d": 2419.354999999996,
      "v": 91
    },
    {
      "midi": 52,
      "hit": false,
      "t": 101602.8293541666,
      "d": 453.6290624999965,
      "v": 95
    },
    {
      "midi": 56,
      "hit": false,
      "t": 102086.7003541666,
      "d": 584.6774583333317,
      "v": 102
    },
    {
      "midi": 61,
      "hit": false,
      "t": 102570.5713541666,
      "d": 201.61291666666511,
      "v": 95
    },
    {
      "midi": 68,
      "hit": false,
      "t": 102570.5713541666,
      "d": 413.3064791666693,
      "v": 108
    },
    {
      "midi": 56,
      "hit": false,
      "t": 103054.4423541666,
      "d": 463.7097083333356,
      "v": 77
    },
    {
      "midi": 52,
      "hit": false,
      "t": 103538.3133541666,
      "d": 120.96774999999616,
      "v": 77
    },
    {
      "midi": 61,
      "hit": false,
      "t": 103538.3133541666,
      "d": 151.20968749999884,
      "v": 83
    },
    {
      "midi": 64,
      "hit": false,
      "t": 103538.3133541666,
      "d": 191.53227083332604,
      "v": 87
    },
    {
      "midi": 56,
      "hit": false,
      "t": 104022.1843541666,
      "d": 141.12904166665976,
      "v": 73
    },
    {
      "midi": 58,
      "hit": false,
      "t": 104506.0553541666,
      "d": 917.3387708333321,
      "v": 110
    },
    {
      "midi": 66,
      "hit": false,
      "t": 104506.0553541666,
      "d": 977.8226458333374,
      "v": 108
    },
    {
      "midi": 42,
      "hit": false,
      "t": 104506.0553541666,
      "d": 1471.7742916666612,
      "v": 100
    },
    {
      "midi": 49,
      "hit": false,
      "t": 104989.9263541666,
      "d": 1411.2904166666704,
      "v": 95
    },
    {
      "midi": 54,
      "hit": false,
      "t": 105473.7973541666,
      "d": 483.8709999999992,
      "v": 75
    },
    {
      "midi": 58,
      "hit": false,
      "t": 105957.6683541666,
      "d": 1532.2581666666665,
      "v": 115
    },
    {
      "midi": 40,
      "hit": false,
      "t": 106441.5393541666,
      "d": 1068.548458333331,
      "v": 93
    },
    {
      "midi": 49,
      "hit": false,
      "t": 106925.4103541666,
      "d": 685.4839166666643,
      "v": 83
    },
    {
      "midi": 61,
      "hit": false,
      "t": 107409.2813541666,
      "d": 534.2742291666655,
      "v": 110
    },
    {
      "midi": 58,
      "hit": false,
      "t": 107893.1523541666,
      "d": 60.483875000005355,
      "v": 93
    },
    {
      "midi": 66,
      "hit": false,
      "t": 107893.1523541666,
      "d": 60.483875000005355,
      "v": 95
    },
    {
      "midi": 40,
      "hit": false,
      "t": 107893.1523541666,
      "d": 100.80645833333256,
      "v": 78
    },
    {
      "midi": 55,
      "hit": false,
      "t": 108377.0233541666,
      "d": 413.3064791666693,
      "v": 104
    },
    {
      "midi": 58,
      "hit": false,
      "t": 108377.0233541666,
      "d": 776.2097291666723,
      "v": 108
    },
    {
      "midi": 63,
      "hit": false,
      "t": 108377.0233541666,
      "d": 1028.2258750000183,
      "v": 117
    },
    {
      "midi": 36,
      "hit": false,
      "t": 108377.0233541666,
      "d": 2993.9518125000322,
      "v": 100
    },
    {
      "midi": 55,
      "hit": false,
      "t": 108881.05564583326,
      "d": 161.2903333333379,
      "v": 66
    },
    {
      "midi": 48,
      "hit": false,
      "t": 109344.76535416661,
      "d": 252.01614583334594,
      "v": 83
    },
    {
      "midi": 55,
      "hit": false,
      "t": 109828.63635416662,
      "d": 443.548416666672,
      "v": 97
    },
    {
      "midi": 58,
      "hit": false,
      "t": 110312.50735416662,
      "d": 70.56452083332988,
      "v": 87
    },
    {
      "midi": 67,
      "hit": false,
      "t": 110312.50735416662,
      "d": 80.64516666666896,
      "v": 95
    },
    {
      "midi": 48,
      "hit": false,
      "t": 110312.50735416662,
      "d": 191.5322708333406,
      "v": 79
    },
    {
      "midi": 55,
      "hit": false,
      "t": 110796.37835416663,
      "d": 524.1935833333264,
      "v": 81
    },
    {
      "midi": 48,
      "hit": false,
      "t": 111280.24935416663,
      "d": 161.29033333332336,
      "v": 93
    },
    {
      "midi": 58,
      "hit": false,
      "t": 111280.24935416663,
      "d": 695.5645624999743,
      "v": 100
    },
    {
      "midi": 63,
      "hit": false,
      "t": 111280.24935416663,
      "d": 866.9355416666367,
      "v": 97
    },
    {
      "midi": 55,
      "hit": false,
      "t": 111764.12035416662,
      "d": 171.37097916666244,
      "v": 100
    },
    {
      "midi": 57,
      "hit": false,
      "t": 112247.9913541666,
      "d": 705.6452083333279,
      "v": 95
    },
    {
      "midi": 65,
      "hit": false,
      "t": 112247.9913541666,
      "d": 866.9355416666658,
      "v": 110
    },
    {
      "midi": 41,
      "hit": false,
      "t": 112247.9913541666,
      "d": 3266.129249999998,
      "v": 102
    },
    {
      "midi": 48,
      "hit": false,
      "t": 112731.8623541666,
      "d": 1441.5323541666585,
      "v": 87
    },
    {
      "midi": 57,
      "hit": false,
      "t": 113215.7333541666,
      "d": 201.61291666666511,
      "v": 97
    },
    {
      "midi": 63,
      "hit": false,
      "t": 113215.7333541666,
      "d": 1028.2258750000037,
      "v": 106
    },
    {
      "midi": 57,
      "hit": false,
      "t": 113699.6043541666,
      "d": 544.3548750000045,
      "v": 97
    },
    {
      "midi": 60,
      "hit": false,
      "t": 114183.4753541666,
      "d": 514.1129375000019,
      "v": 102
    },
    {
      "midi": 53,
      "hit": false,
      "t": 114183.4753541666,
      "d": 1401.2097708333313,
      "v": 85
    },
    {
      "midi": 57,
      "hit": false,
      "t": 114667.3463541666,
      "d": 665.3226250000007,
      "v": 95
    },
    {
      "midi": 60,
      "hit": false,
      "t": 115151.2173541666,
      "d": 473.7903541666601,
      "v": 100
    },
    {
      "midi": 48,
      "hit": false,
      "t": 115151.2173541666,
      "d": 483.8709999999992,
      "v": 83
    },
    {
      "midi": 57,
      "hit": false,
      "t": 115635.0883541666,
      "d": 70.56452083332988,
      "v": 79
    },
    {
      "midi": 63,
      "hit": false,
      "t": 115635.0883541666,
      "d": 141.12904166665976,
      "v": 89
    },
    {
      "midi": 56,
      "hit": false,
      "t": 116118.95935416658,
      "d": 302.4193750000122,
      "v": 100
    },
    {
      "midi": 61,
      "hit": false,
      "t": 116118.95935416658,
      "d": 564.5161666666827,
      "v": 110
    },
    {
      "midi": 65,
      "hit": false,
      "t": 116118.95935416658,
      "d": 564.5161666666827,
      "v": 108
    },
    {
      "midi": 46,
      "hit": false,
      "t": 116118.95935416658,
      "d": 2258.0646666667017,
      "v": 110
    },
    {
      "midi": 56,
      "hit": false,
      "t": 116622.99164583326,
      "d": 332.66131250000035,
      "v": 72
    },
    {
      "midi": 68,
      "hit": false,
      "t": 117086.7013541666,
      "d": 161.2903333333379,
      "v": 108
    },
    {
      "midi": 56,
      "hit": false,
      "t": 117570.5723541666,
      "d": 292.33872916667315,
      "v": 85
    },
    {
      "midi": 61,
      "hit": false,
      "t": 118054.44335416661,
      "d": 292.33872916667315,
      "v": 100
    },
    {
      "midi": 65,
      "hit": false,
      "t": 118054.44335416661,
      "d": 393.1451875000057,
      "v": 100
    },
    {
      "midi": 61,
      "hit": false,
      "t": 119022.1853541666,
      "d": 282.25808333333407,
      "v": 97
    },
    {
      "midi": 46,
      "hit": false,
      "t": 119022.1853541666,
      "d": 332.66131250000035,
      "v": 85
    },
    {
      "midi": 61,
      "hit": false,
      "t": 119506.0563541666,
      "d": 40.3225833333272,
      "v": 66
    },
    {
      "midi": 56,
      "hit": false,
      "t": 119506.0563541666,
      "d": 50.40322916666628,
      "v": 61
    },
    {
      "midi": 65,
      "hit": false,
      "t": 119506.0563541666,
      "d": 90.72581249999348,
      "v": 85
    },
    {
      "midi": 56,
      "hit": false,
      "t": 119989.9273541666,
      "d": 352.8226041666785,
      "v": 104
    },
    {
      "midi": 61,
      "hit": false,
      "t": 119989.9273541666,
      "d": 554.4355208333436,
      "v": 110
    },
    {
      "midi": 65,
      "hit": false,
      "t": 119989.9273541666,
      "d": 796.3710208333505,
      "v": 108
    },
    {
      "midi": 39,
      "hit": false,
      "t": 119989.9273541666,
      "d": 1149.1936250000144,
      "v": 100
    },
    {
      "midi": 56,
      "hit": false,
      "t": 120493.95964583328,
      "d": 584.6774583333317,
      "v": 77
    },
    {
      "midi": 51,
      "hit": false,
      "t": 120957.66935416662,
      "d": 262.09679166667047,
      "v": 83
    },
    {
      "midi": 56,
      "hit": false,
      "t": 121441.54035416662,
      "d": 131.04839583333523,
      "v": 52
    },
    {
      "midi": 65,
      "hit": false,
      "t": 121441.54035416662,
      "d": 423.3871250000084,
      "v": 87
    },
    {
      "midi": 61,
      "hit": false,
      "t": 121441.54035416662,
      "d": 433.46777083334746,
      "v": 78
    },
    {
      "midi": 58,
      "hit": false,
      "t": 121925.41135416663,
      "d": 141.12904166665976,
      "v": 85
    },
    {
      "midi": 67,
      "hit": false,
      "t": 121925.41135416663,
      "d": 473.7903541666601,
      "v": 104
    },
    {
      "midi": 63,
      "hit": false,
      "t": 121925.41135416663,
      "d": 514.1129375000019,
      "v": 89
    },
    {
      "midi": 49,
      "hit": false,
      "t": 121925.41135416663,
      "d": 1118.9516874999972,
      "v": 97
    },
    {
      "midi": 58,
      "hit": false,
      "t": 122409.28235416663,
      "d": 685.4839166666643,
      "v": 89
    },
    {
      "midi": 63,
      "hit": false,
      "t": 122893.15335416663,
      "d": 524.1935833333264,
      "v": 100
    },
    {
      "midi": 67,
      "hit": false,
      "t": 123377.02435416663,
      "d": 80.6451666666544,
      "v": 104
    },
    {
      "midi": 58,
      "hit": false,
      "t": 123377.02435416663,
      "d": 90.72581249999348,
      "v": 79
    },
    {
      "midi": 55,
      "hit": false,
      "t": 123860.89535416661,
      "d": 191.53227083332604,
      "v": 110
    },
    {
      "midi": 58,
      "hit": false,
      "t": 123860.89535416661,
      "d": 584.6774583333317,
      "v": 106
    },
    {
      "midi": 63,
      "hit": false,
      "t": 123860.89535416661,
      "d": 604.8387499999953,
      "v": 117
    },
    {
      "midi": 36,
      "hit": false,
      "t": 123860.89535416661,
      "d": 3316.532479166679,
      "v": 100
    },
    {
      "midi": 55,
      "hit": false,
      "t": 124344.76635416661,
      "d": 524.1935833333264,
      "v": 87
    },
    {
      "midi": 48,
      "hit": false,
      "t": 124828.63735416661,
      "d": 191.53227083332604,
      "v": 81
    },
    {
      "midi": 55,
      "hit": false,
      "t": 125312.50835416661,
      "d": 70.56452083332988,
      "v": 73
    },
    {
      "midi": 63,
      "hit": false,
      "t": 125312.50835416661,
      "d": 90.72581249999348,
      "v": 120
    },
    {
      "midi": 55,
      "hit": false,
      "t": 125796.37935416661,
      "d": 70.56452083332988,
      "v": 97
    },
    {
      "midi": 67,
      "hit": false,
      "t": 125796.37935416661,
      "d": 100.80645833333256,
      "v": 110
    },
    {
      "midi": 48,
      "hit": false,
      "t": 125796.37935416661,
      "d": 151.20968749999884,
      "v": 87
    },
    {
      "midi": 48,
      "hit": false,
      "t": 126280.25035416661,
      "d": 241.93550000000687,
      "v": 83
    },
    {
      "midi": 60,
      "hit": false,
      "t": 126764.12135416662,
      "d": 50.40322916666628,
      "v": 77
    },
    {
      "midi": 63,
      "hit": false,
      "t": 126764.12135416662,
      "d": 70.56452083332988,
      "v": 95
    },
    {
      "midi": 72,
      "hit": false,
      "t": 126764.12135416662,
      "d": 80.64516666666896,
      "v": 113
    },
    {
      "midi": 48,
      "hit": false,
      "t": 127258.07299999996,
      "d": 342.7419583333249,
      "v": 100
    },
    {
      "midi": 57,
      "hit": false,
      "t": 127731.86335416662,
      "d": 161.2903333333379,
      "v": 95
    },
    {
      "midi": 65,
      "hit": false,
      "t": 127731.86335416662,
      "d": 463.7097083333356,
      "v": 104
    },
    {
      "midi": 63,
      "hit": false,
      "t": 127731.86335416662,
      "d": 514.1129375000019,
      "v": 95
    },
    {
      "midi": 41,
      "hit": false,
      "t": 127731.86335416662,
      "d": 3457.661520833324,
      "v": 102
    },
    {
      "midi": 57,
      "hit": false,
      "t": 128215.73435416662,
      "d": 483.8709999999992,
      "v": 97
    },
    {
      "midi": 69,
      "hit": false,
      "t": 128699.60535416662,
      "d": 70.56452083332988,
      "v": 97
    },
    {
      "midi": 63,
      "hit": false,
      "t": 128699.60535416662,
      "d": 80.64516666666896,
      "v": 91
    },
    {
      "midi": 53,
      "hit": false,
      "t": 128699.60535416662,
      "d": 151.20968749999884,
      "v": 87
    },
    {
      "midi": 57,
      "hit": false,
      "t": 129183.47635416662,
      "d": 534.2742291666655,
      "v": 110
    },
    {
      "midi": 63,
      "hit": false,
      "t": 129667.34735416662,
      "d": 100.80645833333256,
      "v": 113
    },
    {
      "midi": 53,
      "hit": false,
      "t": 129667.34735416662,
      "d": 322.5806666666613,
      "v": 85
    },
    {
      "midi": 57,
      "hit": false,
      "t": 130151.21835416662,
      "d": 362.903250000003,
      "v": 95
    },
    {
      "midi": 65,
      "hit": false,
      "t": 130635.08935416662,
      "d": 272.177437499995,
      "v": 102
    },
    {
      "midi": 53,
      "hit": false,
      "t": 130635.08935416662,
      "d": 302.4193749999977,
      "v": 87
    },
    {
      "midi": 63,
      "hit": false,
      "t": 130635.08935416662,
      "d": 483.87099999998463,
      "v": 95
    },
    {
      "midi": 57,
      "hit": false,
      "t": 131118.9603541666,
      "d": 80.64516666668351,
      "v": 125
    },
    {
      "midi": 59,
      "hit": false,
      "t": 131602.8313541666,
      "d": 40.3225833333272,
      "v": 100
    },
    {
      "midi": 56,
      "hit": false,
      "t": 131602.8313541666,
      "d": 403.22583333333023,
      "v": 93
    },
    {
      "midi": 64,
      "hit": false,
      "t": 131602.8313541666,
      "d": 564.516166666639,
      "v": 115
    },
    {
      "midi": 61,
      "hit": false,
      "t": 131602.8313541666,
      "d": 594.7581041666272,
      "v": 110
    },
    {
      "midi": 37,
      "hit": false,
      "t": 131602.8313541666,
      "d": 3286.2905416666763,
      "v": 102
    },
    {
      "midi": 56,
      "hit": false,
      "t": 132086.7023541666,
      "d": 504.0322916666628,
      "v": 106
    },
    {
      "midi": 44,
      "hit": false,
      "t": 132570.57335416658,
      "d": 957.6613541666884,
      "v": 79
    },
    {
      "midi": 56,
      "hit": false,
      "t": 133054.4443541666,
      "d": 383.0645416666812,
      "v": 110
    },
    {
      "midi": 61,
      "hit": false,
      "t": 133538.3153541666,
      "d": 100.80645833333256,
      "v": 108
    },
    {
      "midi": 64,
      "hit": false,
      "t": 133538.3153541666,
      "d": 181.45162499998696,
      "v": 113
    },
    {
      "midi": 68,
      "hit": false,
      "t": 133538.3153541666,
      "d": 201.61291666666511,
      "v": 106
    },
    {
      "midi": 49,
      "hit": false,
      "t": 133538.3153541666,
      "d": 1038.3065208333428,
      "v": 77
    },
    {
      "midi": 56,
      "hit": false,
      "t": 134022.1863541666,
      "d": 413.3064791666693,
      "v": 95
    },
    {
      "midi": 44,
      "hit": false,
      "t": 134506.0573541666,
      "d": 453.6290625000256,
      "v": 81
    },
    {
      "midi": 49,
      "hit": false,
      "t": 134989.92835416662,
      "d": 131.04839583332068,
      "v": 72
    },
    {
      "midi": 64,
      "hit": false,
      "t": 134989.92835416662,
      "d": 483.87099999998463,
      "v": 97
    },
    {
      "midi": 61,
      "hit": false,
      "t": 134989.92835416662,
      "d": 534.2742291666509,
      "v": 104
    },
    {
      "midi": 58,
      "hit": false,
      "t": 135473.7993541666,
      "d": 897.177479166683,
      "v": 125
    },
    {
      "midi": 42,
      "hit": false,
      "t": 135473.7993541666,
      "d": 1622.9839791667182,
      "v": 100
    },
    {
      "midi": 49,
      "hit": false,
      "t": 135957.67035416662,
      "d": 493.9516458333528,
      "v": 85
    },
    {
      "midi": 54,
      "hit": false,
      "t": 136441.54135416663,
      "d": 655.2419791666907,
      "v": 87
    },
    {
      "midi": 58,
      "hit": false,
      "t": 136925.41235416665,
      "d": 534.27422916668,
      "v": 120
    },
    {
      "midi": 66,
      "hit": false,
      "t": 137409.28335416666,
      "d": 473.79035416664556,
      "v": 97
    },
    {
      "midi": 61,
      "hit": false,
      "t": 137409.28335416666,
      "d": 514.1129374999728,
      "v": 100
    },
    {
      "midi": 40,
      "hit": false,
      "t": 137409.28335416666,
      "d": 1622.983979166631,
      "v": 79
    },
    {
      "midi": 58,
      "hit": false,
      "t": 137893.15435416665,
      "d": 534.2742291666509,
      "v": 91
    },
    {
      "midi": 64,
      "hit": false,
      "t": 138377.02535416663,
      "d": 514.1129375000019,
      "v": 102
    },
    {
      "midi": 49,
      "hit": false,
      "t": 138377.02535416663,
      "d": 655.2419791666616,
      "v": 83
    },
    {
      "midi": 58,
      "hit": false,
      "t": 138860.89635416665,
      "d": 352.82260416663485,
      "v": 95
    },
    {
      "midi": 63,
      "hit": false,
      "t": 139344.76735416663,
      "d": 483.87099999998463,
      "v": 108
    },
    {
      "midi": 36,
      "hit": false,
      "t": 139344.76735416663,
      "d": 3245.967958333291,
      "v": 100
    },
    {
      "midi": 55,
      "hit": false,
      "t": 139828.63835416661,
      "d": 504.0322916666919,
      "v": 95
    },
    {
      "midi": 58,
      "hit": false,
      "t": 140312.50935416663,
      "d": 100.80645833333256,
      "v": 95
    },
    {
      "midi": 48,
      "hit": false,
      "t": 140312.50935416663,
      "d": 151.20968749999884,
      "v": 75
    },
    {
      "midi": 63,
      "hit": false,
      "t": 140796.3803541666,
      "d": 80.6451666666544,
      "v": 113
    },
    {
      "midi": 48,
      "hit": false,
      "t": 141280.2513541666,
      "d": 393.14518749999115,
      "v": 85
    },
    {
      "midi": 63,
      "hit": false,
      "t": 141764.12235416658,
      "d": 594.7581041666854,
      "v": 100
    },
    {
      "midi": 67,
      "hit": false,
      "t": 141764.12235416658,
      "d": 1038.3065208333428,
      "v": 113
    },
    {
      "midi": 58,
      "hit": false,
      "t": 142247.9933541666,
      "d": 554.4355208333291,
      "v": 115
    },
    {
      "midi": 48,
      "hit": false,
      "t": 142247.9933541666,
      "d": 665.3226250000007,
      "v": 81
    },
    {
      "midi": 63,
      "hit": false,
      "t": 142731.86435416658,
      "d": 443.54841666665743,
      "v": 97
    },
    {
      "midi": 65,
      "hit": false,
      "t": 143215.73535416657,
      "d": 1018.1452291666646,
      "v": 110
    },
    {
      "midi": 57,
      "hit": false,
      "t": 143215.73535416657,
      "d": 1189.5162083333416,
      "v": 95
    },
    {
      "midi": 41,
      "hit": false,
      "t": 143215.73535416657,
      "d": 3790.322833333368,
      "v": 113
    },
    {
      "midi": 48,
      "hit": false,
      "t": 143699.60635416655,
      "d": 483.87100000001374,
      "v": 77
    },
    {
      "midi": 63,
      "hit": false,
      "t": 144183.47735416656,
      "d": 574.5968125000072,
      "v": 97
    },
    {
      "midi": 53,
      "hit": false,
      "t": 144183.47735416656,
      "d": 645.1613333333516,
      "v": 81
    },
    {
      "midi": 57,
      "hit": false,
      "t": 144667.34835416658,
      "d": 60.483875000005355,
      "v": 72
    },
    {
      "midi": 60,
      "hit": false,
      "t": 144667.34835416658,
      "d": 110.88710416667163,
      "v": 102
    },
    {
      "midi": 53,
      "hit": false,
      "t": 145151.2193541666,
      "d": 493.9516458333528,
      "v": 81
    },
    {
      "midi": 60,
      "hit": false,
      "t": 145635.0903541666,
      "d": 100.80645833333256,
      "v": 76
    },
    {
      "midi": 63,
      "hit": false,
      "t": 145635.0903541666,
      "d": 131.04839583332068,
      "v": 79
    },
    {
      "midi": 69,
      "hit": false,
      "t": 145635.0903541666,
      "d": 272.17743749998044,
      "v": 102
    },
    {
      "midi": 65,
      "hit": false,
      "t": 146118.9613541666,
      "d": 483.87100000001374,
      "v": 97
    },
    {
      "midi": 53,
      "hit": false,
      "t": 146118.9613541666,
      "d": 604.8387500000244,
      "v": 72
    },
    {
      "midi": 63,
      "hit": false,
      "t": 146602.8323541666,
      "d": 100.80645833333256,
      "v": 79
    },
    {
      "midi": 48,
      "hit": false,
      "t": 146602.8323541666,
      "d": 393.14518749999115,
      "v": 72
    },
    {
      "midi": 56,
      "hit": false,
      "t": 147086.7033541666,
      "d": 231.85485416665324,
      "v": 100
    },
    {
      "midi": 65,
      "hit": false,
      "t": 147086.7033541666,
      "d": 433.46777083331835,
      "v": 113
    },
    {
      "midi": 61,
      "hit": false,
      "t": 147086.7033541666,
      "d": 483.87099999998463,
      "v": 108
    },
    {
      "midi": 46,
      "hit": false,
      "t": 147086.7033541666,
      "d": 2701.613083333301,
      "v": 106
    },
    {
      "midi": 56,
      "hit": false,
      "t": 147570.57435416657,
      "d": 514.1129375000019,
      "v": 83
    },
    {
      "midi": 68,
      "hit": false,
      "t": 148054.4453541666,
      "d": 181.45162499998696,
      "v": 104
    },
    {
      "midi": 56,
      "hit": false,
      "t": 148538.31635416657,
      "d": 332.6613124999858,
      "v": 78
    },
    {
      "midi": 65,
      "hit": false,
      "t": 149022.18735416656,
      "d": 715.725854166667,
      "v": 104
    },
    {
      "midi": 61,
      "hit": false,
      "t": 149022.18735416656,
      "d": 836.6936041666777,
      "v": 100
    },
    {
      "midi": 61,
      "hit": false,
      "t": 149989.92935416655,
      "d": 50.40322916666628,
      "v": 25
    },
    {
      "midi": 56,
      "hit": false,
      "t": 149989.92935416655,
      "d": 443.54841666665743,
      "v": 102
    },
    {
      "midi": 46,
      "hit": false,
      "t": 150473.80035416654,
      "d": 151.20968749999884,
      "v": 78
    },
    {
      "midi": 56,
      "hit": false,
      "t": 150957.67135416652,
      "d": 191.53227083332604,
      "v": 100
    },
    {
      "midi": 61,
      "hit": false,
      "t": 150957.67135416652,
      "d": 524.1935833333118,
      "v": 102
    },
    {
      "midi": 65,
      "hit": false,
      "t": 150957.67135416652,
      "d": 534.2742291666509,
      "v": 100
    },
    {
      "midi": 39,
      "hit": false,
      "t": 150957.67135416652,
      "d": 1653.2259166666772,
      "v": 97
    },
    {
      "midi": 56,
      "hit": false,
      "t": 151441.5423541665,
      "d": 856.8548958333558,
      "v": 78
    },
    {
      "midi": 61,
      "hit": false,
      "t": 151925.41335416652,
      "d": 635.0806875000126,
      "v": 93
    },
    {
      "midi": 51,
      "hit": false,
      "t": 152409.28435416654,
      "d": 181.45162499998696,
      "v": 78
    },
    {
      "midi": 58,
      "hit": false,
      "t": 152893.15535416655,
      "d": 100.80645833333256,
      "v": 93
    },
    {
      "midi": 67,
      "hit": false,
      "t": 152893.15535416655,
      "d": 453.6290624999965,
      "v": 115
    },
    {
      "midi": 63,
      "hit": false,
      "t": 152893.15535416655,
      "d": 493.9516458333237,
      "v": 102
    },
    {
      "midi": 49,
      "hit": false,
      "t": 152893.15535416655,
      "d": 1622.983979166689,
      "v": 81
    },
    {
      "midi": 58,
      "hit": false,
      "t": 153377.02635416653,
      "d": 1058.467812500021,
      "v": 97
    },
    {
      "midi": 63,
      "hit": false,
      "t": 153860.89735416655,
      "d": 514.1129375000019,
      "v": 91
    },
    {
      "midi": 67,
      "hit": false,
      "t": 154344.76835416656,
      "d": 100.80645833333256,
      "v": 102
    },
    {
      "midi": 37,
      "hit": false,
      "t": 154344.76835416656,
      "d": 201.61291666666511,
      "v": 83
    },
    {
      "midi": 55,
      "hit": false,
      "t": 154828.63935416655,
      "d": 151.20968749999884,
      "v": 102
    },
    {
      "midi": 63,
      "hit": false,
      "t": 154828.63935416655,
      "d": 493.9516458333237,
      "v": 120
    },
    {
      "midi": 58,
      "hit": false,
      "t": 154828.63935416655,
      "d": 554.4355208333291,
      "v": 97
    },
    {
      "midi": 36,
      "hit": false,
      "t": 154828.63935416655,
      "d": 3417.338937499997,
      "v": 110
    },
    {
      "midi": 55,
      "hit": false,
      "t": 155312.51035416653,
      "d": 100.80645833333256,
      "v": 97
    },
    {
      "midi": 63,
      "hit": false,
      "t": 155796.38135416654,
      "d": 70.56452083334443,
      "v": 95
    },
    {
      "midi": 67,
      "hit": false,
      "t": 155796.38135416654,
      "d": 70.56452083334443,
      "v": 95
    },
    {
      "midi": 48,
      "hit": false,
      "t": 155796.38135416654,
      "d": 141.12904166668886,
      "v": 83
    },
    {
      "midi": 60,
      "hit": false,
      "t": 156280.25235416656,
      "d": 292.3387291666586,
      "v": 81
    },
    {
      "midi": 72,
      "hit": false,
      "t": 156764.12335416654,
      "d": 100.80645833333256,
      "v": 100
    },
    {
      "midi": 63,
      "hit": false,
      "t": 156764.12335416654,
      "d": 110.88710416667163,
      "v": 81
    },
    {
      "midi": 48,
      "hit": false,
      "t": 156764.12335416654,
      "d": 161.2903333333379,
      "v": 87
    },
    {
      "midi": 60,
      "hit": false,
      "t": 157026.2201458332,
      "d": 60.483875000005355,
      "v": 95
    },
    {
      "midi": 48,
      "hit": false,
      "t": 157731.86535416654,
      "d": 614.9193958333344,
      "v": 93
    },
    {
      "midi": 55,
      "hit": false,
      "t": 158215.73635416655,
      "d": 70.56452083331533,
      "v": 85
    },
    {
      "midi": 63,
      "hit": false,
      "t": 158215.73635416655,
      "d": 131.04839583332068,
      "v": 100
    },
    {
      "midi": 57,
      "hit": false,
      "t": 158699.60735416654,
      "d": 1018.1452291666938,
      "v": 97
    },
    {
      "midi": 65,
      "hit": false,
      "t": 158699.60735416654,
      "d": 1048.3871666666819,
      "v": 110
    },
    {
      "midi": 41,
      "hit": false,
      "t": 158699.60735416654,
      "d": 3891.1292916665843,
      "v": 115
    },
    {
      "midi": 48,
      "hit": false,
      "t": 159183.47835416655,
      "d": 1491.9355833333102,
      "v": 81
    },
    {
      "midi": 63,
      "hit": false,
      "t": 159667.34935416657,
      "d": 1088.7097499999509,
      "v": 87
    },
    {
      "midi": 60,
      "hit": false,
      "t": 160151.22035416655,
      "d": 282.2580833333195,
      "v": 91
    },
    {
      "midi": 69,
      "hit": false,
      "t": 160635.09135416654,
      "d": 120.9677499999816,
      "v": 91
    },
    {
      "midi": 53,
      "hit": false,
      "t": 160635.09135416654,
      "d": 1048.3871666666237,
      "v": 70
    },
    {
      "midi": 57,
      "hit": false,
      "t": 161118.96235416652,
      "d": 393.14518749999115,
      "v": 79
    },
    {
      "midi": 60,
      "hit": false,
      "t": 161602.8333541665,
      "d": 262.09679166664137,
      "v": 95
    },
    {
      "midi": 65,
      "hit": false,
      "t": 161602.8333541665,
      "d": 352.82260416663485,
      "v": 79
    },
    {
      "midi": 63,
      "hit": false,
      "t": 161602.8333541665,
      "d": 514.1129374999437,
      "v": 81
    },
    {
      "midi": 48,
      "hit": false,
      "t": 161602.8333541665,
      "d": 927.419416666613,
      "v": 85
    },
    {
      "midi": 57,
      "hit": false,
      "t": 162086.70435416646,
      "d": 110.88710416664253,
      "v": 113
    },
    {
      "midi": 56,
      "hit": false,
      "t": 162570.57535416645,
      "d": 443.54841666665743,
      "v": 97
    },
    {
      "midi": 61,
      "hit": false,
      "t": 162570.57535416645,
      "d": 584.6774583333172,
      "v": 97
    },
    {
      "midi": 65,
      "hit": false,
      "t": 162570.57535416645,
      "d": 625.0000416666444,
      "v": 100
    },
    {
      "midi": 46,
      "hit": false,
      "t": 162570.57535416645,
      "d": 1129.0323333333072,
      "v": 106
    },
    {
      "midi": 68,
      "hit": false,
      "t": 163538.31735416641,
      "d": 211.6935625000042,
      "v": 97
    },
    {
      "midi": 56,
      "hit": false,
      "t": 164022.18835416643,
      "d": 493.9516458333528,
      "v": 78
    },
    {
      "midi": 61,
      "hit": false,
      "t": 164506.05935416644,
      "d": 524.1935833333409,
      "v": 100
    },
    {
      "midi": 65,
      "hit": false,
      "t": 164506.05935416644,
      "d": 524.1935833333409,
      "v": 100
    },
    {
      "midi": 53,
      "hit": false,
      "t": 164506.05935416644,
      "d": 997.9839374999865,
      "v": 85
    },
    {
      "midi": 56,
      "hit": false,
      "t": 164989.93035416646,
      "d": 483.87099999998463,
      "v": 72
    },
    {
      "midi": 46,
      "hit": false,
      "t": 165473.80135416644,
      "d": 120.9677499999816,
      "v": 81
    },
    {
      "midi": 61,
      "hit": false,
      "t": 165473.80135416644,
      "d": 181.45162499998696,
      "v": 87
    },
    {
      "midi": 65,
      "hit": false,
      "t": 165473.80135416644,
      "d": 201.61291666666511,
      "v": 93
    },
    {
      "midi": 56,
      "hit": false,
      "t": 165957.67235416643,
      "d": 201.61291666666511,
      "v": 93
    },
    {
      "midi": 56,
      "hit": false,
      "t": 166441.54335416644,
      "d": 493.9516458333237,
      "v": 87
    },
    {
      "midi": 61,
      "hit": false,
      "t": 166441.54335416644,
      "d": 967.7419999999984,
      "v": 97
    },
    {
      "midi": 65,
      "hit": false,
      "t": 166441.54335416644,
      "d": 1048.3871666666819,
      "v": 102
    },
    {
      "midi": 39,
      "hit": false,
      "t": 166441.54335416644,
      "d": 2973.7905208333686,
      "v": 95
    },
    {
      "midi": 56,
      "hit": false,
      "t": 167429.44664583312,
      "d": 312.50002083333675,
      "v": 32
    },
    {
      "midi": 46,
      "hit": false,
      "t": 167893.15635416645,
      "d": 514.1129375000019,
      "v": 70
    },
    {
      "midi": 58,
      "hit": false,
      "t": 168377.02735416646,
      "d": 141.12904166665976,
      "v": 70
    },
    {
      "midi": 67,
      "hit": false,
      "t": 168377.02735416646,
      "d": 977.8226458333374,
      "v": 91
    },
    {
      "midi": 63,
      "hit": false,
      "t": 168377.02735416646,
      "d": 1068.548458333331,
      "v": 79
    },
    {
      "midi": 51,
      "hit": false,
      "t": 168377.02735416646,
      "d": 1189.5162083333416,
      "v": 72
    },
    {
      "midi": 58,
      "hit": false,
      "t": 169344.76935416646,
      "d": 161.2903333333379,
      "v": 73
    },
    {
      "midi": 68,
      "hit": false,
      "t": 170312.5113541665,
      "d": 927.4194166666712,
      "v": 97
    },
    {
      "midi": 44,
      "hit": false,
      "t": 170312.5113541665,
      "d": 3387.097000000067,
      "v": 89
    },
    {
      "midi": 51,
      "hit": false,
      "t": 170796.3823541665,
      "d": 1471.7742916666903,
      "v": 73
    },
    {
      "midi": 60,
      "hit": false,
      "t": 171280.2533541665,
      "d": 1008.0645833333838,
      "v": 91
    },
    {
      "midi": 63,
      "hit": false,
      "t": 171764.1243541665,
      "d": 544.3548750000482,
      "v": 83
    },
    {
      "midi": 72,
      "hit": false,
      "t": 172247.99535416652,
      "d": 1018.1452291667229,
      "v": 102
    },
    {
      "midi": 56,
      "hit": false,
      "t": 172247.99535416652,
      "d": 1048.387166666711,
      "v": 95
    },
    {
      "midi": 68,
      "hit": false,
      "t": 172731.86635416656,
      "d": 655.2419791666616,
      "v": 95
    },
    {
      "midi": 63,
      "hit": false,
      "t": 173215.73735416657,
      "d": 544.35487499999,
      "v": 75
    },
    {
      "midi": 51,
      "hit": false,
      "t": 173215.73735416657,
      "d": 1008.0645833333256,
      "v": 75
    },
    {
      "midi": 60,
      "hit": false,
      "t": 173699.60835416656,
      "d": 524.1935833333409,
      "v": 93
    },
    {
      "midi": 63,
      "hit": false,
      "t": 174183.47935416657,
      "d": 836.6936041666486,
      "v": 83
    },
    {
      "midi": 67,
      "hit": false,
      "t": 174183.47935416657,
      "d": 1350.8065416666504,
      "v": 100
    },
    {
      "midi": 43,
      "hit": false,
      "t": 174183.47935416657,
      "d": 3235.88731250001,
      "v": 91
    },
    {
      "midi": 51,
      "hit": false,
      "t": 174667.35035416656,
      "d": 2782.2582500000135,
      "v": 75
    },
    {
      "midi": 55,
      "hit": false,
      "t": 175151.22135416654,
      "d": 917.3387708333612,
      "v": 70
    },
    {
      "midi": 60,
      "hit": false,
      "t": 175635.09235416655,
      "d": 594.7581041666854,
      "v": 91
    },
    {
      "midi": 72,
      "hit": false,
      "t": 176118.96335416657,
      "d": 1098.7903958333482,
      "v": 108
    },
    {
      "midi": 67,
      "hit": false,
      "t": 176602.83435416658,
      "d": 635.0806875000126,
      "v": 102
    },
    {
      "midi": 55,
      "hit": false,
      "t": 177086.7053541666,
      "d": 282.2580833333195,
      "v": 73
    },
    {
      "midi": 63,
      "hit": false,
      "t": 177086.7053541666,
      "d": 514.1129374999728,
      "v": 83
    },
    {
      "midi": 60,
      "hit": false,
      "t": 177570.57635416658,
      "d": 282.2580833333195,
      "v": 95
    },
    {
      "midi": 65,
      "hit": false,
      "t": 178054.44735416656,
      "d": 947.5807083333493,
      "v": 95
    },
    {
      "midi": 41,
      "hit": false,
      "t": 178054.44735416656,
      "d": 3195.564729166712,
      "v": 93
    },
    {
      "midi": 48,
      "hit": false,
      "t": 178538.31835416658,
      "d": 1552.4194583333447,
      "v": 89
    },
    {
      "midi": 53,
      "hit": false,
      "t": 179022.1893541666,
      "d": 403.22583333333023,
      "v": 64
    },
    {
      "midi": 56,
      "hit": false,
      "t": 179022.1893541666,
      "d": 1179.4355625000026,
      "v": 93
    },
    {
      "midi": 60,
      "hit": false,
      "t": 179506.06035416658,
      "d": 625.0000416666735,
      "v": 93
    },
    {
      "midi": 53,
      "hit": false,
      "t": 179989.9313541666,
      "d": 1098.7903958333482,
      "v": 72
    },
    {
      "midi": 68,
      "hit": false,
      "t": 179989.9313541666,
      "d": 1250.000083333347,
      "v": 110
    },
    {
      "midi": 65,
      "hit": false,
      "t": 180473.8023541666,
      "d": 635.0806875000126,
      "v": 95
    },
    {
      "midi": 48,
      "hit": false,
      "t": 180957.67335416662,
      "d": 362.903250000003,
      "v": 76
    },
    {
      "midi": 60,
      "hit": false,
      "t": 180957.67335416662,
      "d": 544.3548750000191,
      "v": 95
    },
    {
      "midi": 56,
      "hit": false,
      "t": 181441.54435416663,
      "d": 1209.6774999999907,
      "v": 89
    },
    {
      "midi": 39,
      "hit": false,
      "t": 181925.41535416662,
      "d": 997.9839374999865,
      "v": 97
    },
    {
      "midi": 48,
      "hit": false,
      "t": 182429.44764583328,
      "d": 2540.322750000021,
      "v": 75
    },
    {
      "midi": 53,
      "hit": false,
      "t": 182893.15735416661,
      "d": 1935.4840000000258,
      "v": 83
    },
    {
      "midi": 56,
      "hit": false,
      "t": 183377.0283541666,
      "d": 554.4355208333582,
      "v": 100
    },
    {
      "midi": 60,
      "hit": false,
      "t": 183860.8993541666,
      "d": 423.3871250000084,
      "v": 104
    },
    {
      "midi": 68,
      "hit": false,
      "t": 183860.8993541666,
      "d": 1108.8710416666872,
      "v": 115
    },
    {
      "midi": 65,
      "hit": false,
      "t": 184344.77035416663,
      "d": 625.0000416666735,
      "v": 110
    },
    {
      "midi": 60,
      "hit": false,
      "t": 184828.64135416664,
      "d": 604.8387499999953,
      "v": 97
    },
    {
      "midi": 56,
      "hit": false,
      "t": 185312.51235416663,
      "d": 302.4193750000268,
      "v": 91
    },
    {
      "midi": 60,
      "hit": false,
      "t": 185554.44785416665,
      "d": 110.88710416667163,
      "v": 43
    },
    {
      "midi": 58,
      "hit": false,
      "t": 185796.38335416664,
      "d": 211.6935625000042,
      "v": 97
    },
    {
      "midi": 62,
      "hit": false,
      "t": 185796.38335416664,
      "d": 433.46777083334746,
      "v": 117
    },
    {
      "midi": 50,
      "hit": false,
      "t": 185796.38335416664,
      "d": 3054.435687500052,
      "v": 97
    },
    {
      "midi": 58,
      "hit": false,
      "t": 186280.25435416665,
      "d": 1028.2258750000328,
      "v": 115
    },
    {
      "midi": 70,
      "hit": false,
      "t": 186764.12535416667,
      "d": 1199.5968541666807,
      "v": 100
    },
    {
      "midi": 65,
      "hit": false,
      "t": 187247.99635416668,
      "d": 957.6613541666593,
      "v": 100
    },
    {
      "midi": 62,
      "hit": false,
      "t": 187731.8673541667,
      "d": 504.0322916666628,
      "v": 104
    },
    {
      "midi": 58,
      "hit": false,
      "t": 188215.73835416668,
      "d": 1058.4678124999919,
      "v": 104
    },
    {
      "midi": 38,
      "hit": false,
      "t": 188699.6093541667,
      "d": 110.88710416667163,
      "v": 41
    },
    {
      "midi": 62,
      "hit": false,
      "t": 188699.6093541667,
      "d": 483.87099999998463,
      "v": 93
    },
    {
      "midi": 65,
      "hit": false,
      "t": 189183.48035416668,
      "d": 30.241937499988126,
      "v": 76
    },
    {
      "midi": 61,
      "hit": false,
      "t": 189667.35135416666,
      "d": 493.9516458333528,
      "v": 108
    },
    {
      "midi": 65,
      "hit": false,
      "t": 189667.35135416666,
      "d": 524.1935833333409,
      "v": 104
    },
    {
      "midi": 37,
      "hit": false,
      "t": 189667.35135416666,
      "d": 1179.4355625000026,
      "v": 100
    },
    {
      "midi": 56,
      "hit": false,
      "t": 190151.22235416668,
      "d": 655.2419791666616,
      "v": 95
    },
    {
      "midi": 61,
      "hit": false,
      "t": 190635.09335416666,
      "d": 362.903250000003,
      "v": 93
    },
    {
      "midi": 49,
      "hit": false,
      "t": 190635.09335416666,
      "d": 826.6129583333386,
      "v": 70
    },
    {
      "midi": 58,
      "hit": false,
      "t": 191118.96435416667,
      "d": 584.6774583333172,
      "v": 97
    },
    {
      "midi": 67,
      "hit": false,
      "t": 191118.96435416667,
      "d": 877.0161874999758,
      "v": 117
    },
    {
      "midi": 63,
      "hit": false,
      "t": 191118.96435416667,
      "d": 957.6613541666302,
      "v": 102
    },
    {
      "midi": 37,
      "hit": false,
      "t": 191381.06114583334,
      "d": 1562.5001041666546,
      "v": 97
    },
    {
      "midi": 58,
      "hit": false,
      "t": 192086.70635416664,
      "d": 1068.54845833336,
      "v": 110
    },
    {
      "midi": 63,
      "hit": false,
      "t": 192570.57735416666,
      "d": 524.1935833333409,
      "v": 89
    },
    {
      "midi": 49,
      "hit": false,
      "t": 192570.57735416666,
      "d": 574.5968125000072,
      "v": 77
    },
    {
      "midi": 67,
      "hit": false,
      "t": 193054.44835416667,
      "d": 80.6451666666544,
      "v": 102
    },
    {
      "midi": 55,
      "hit": false,
      "t": 193538.31935416668,
      "d": 252.0161458333314,
      "v": 95
    },
    {
      "midi": 63,
      "hit": false,
      "t": 193538.31935416668,
      "d": 836.6936041666486,
      "v": 120
    },
    {
      "midi": 36,
      "hit": false,
      "t": 193538.31935416668,
      "d": 2973.7905208333395,
      "v": 95
    },
    {
      "midi": 55,
      "hit": false,
      "t": 194022.19035416667,
      "d": 1018.1452291666646,
      "v": 70
    },
    {
      "midi": 58,
      "hit": false,
      "t": 194516.142,
      "d": 372.9838958333421,
      "v": 104
    },
    {
      "midi": 48,
      "hit": false,
      "t": 194526.22264583333,
      "d": 463.7097083333356,
      "v": 83
    },
    {
      "midi": 63,
      "hit": false,
      "t": 194989.93235416667,
      "d": 362.903250000003,
      "v": 104
    },
    {
      "midi": 58,
      "hit": false,
      "t": 195473.80335416668,
      "d": 70.56452083334443,
      "v": 76
    },
    {
      "midi": 67,
      "hit": false,
      "t": 195473.80335416668,
      "d": 80.64516666668351,
      "v": 95
    },
    {
      "midi": 55,
      "hit": false,
      "t": 195957.6743541667,
      "d": 514.1129375000019,
      "v": 104
    },
    {
      "midi": 63,
      "hit": false,
      "t": 196441.5453541667,
      "d": 463.7097083333065,
      "v": 125
    },
    {
      "midi": 48,
      "hit": false,
      "t": 196441.5453541667,
      "d": 564.516166666639,
      "v": 91
    },
    {
      "midi": 55,
      "hit": false,
      "t": 196925.4163541667,
      "d": 131.04839583332068,
      "v": 115
    },
    {
      "midi": 57,
      "hit": false,
      "t": 197409.28735416668,
      "d": 493.9516458333528,
      "v": 95
    },
    {
      "midi": 65,
      "hit": false,
      "t": 197409.28735416668,
      "d": 685.4839166666789,
      "v": 115
    },
    {
      "midi": 41,
      "hit": false,
      "t": 197409.28735416668,
      "d": 3387.097000000009,
      "v": 117
    },
    {
      "midi": 48,
      "hit": false,
      "t": 197893.1583541667,
      "d": 514.1129374999728,
      "v": 100
    },
    {
      "midi": 57,
      "hit": false,
      "t": 198377.02935416668,
      "d": 151.20968749999884,
      "v": 100
    },
    {
      "midi": 63,
      "hit": false,
      "t": 198377.02935416668,
      "d": 473.79035416667466,
      "v": 117
    },
    {
      "midi": 53,
      "hit": false,
      "t": 198377.02935416668,
      "d": 967.7420000000275,
      "v": 95
    },
    {
      "midi": 57,
      "hit": false,
      "t": 198860.9003541667,
      "d": 524.1935833333409,
      "v": 113
    },
    {
      "midi": 60,
      "hit": false,
      "t": 199344.7713541667,
      "d": 50.40322916666628,
      "v": 95
    },
    {
      "midi": 65,
      "hit": false,
      "t": 199344.7713541667,
      "d": 614.9193958333344,
      "v": 108
    },
    {
      "midi": 48,
      "hit": false,
      "t": 199344.7713541667,
      "d": 977.8226458333374,
      "v": 102
    },
    {
      "midi": 57,
      "hit": false,
      "t": 199828.64235416672,
      "d": 574.5968124999781,
      "v": 100
    },
    {
      "midi": 60,
      "hit": false,
      "t": 200312.5133541667,
      "d": 141.12904166665976,
      "v": 100
    },
    {
      "midi": 53,
      "hit": false,
      "t": 200312.5133541667,
      "d": 383.0645416666521,
      "v": 97
    },
    {
      "midi": 63,
      "hit": false,
      "t": 200312.5133541667,
      "d": 453.6290624999965,
      "v": 89
    },
    {
      "midi": 57,
      "hit": false,
      "t": 200796.3843541667,
      "d": 120.96775000001071,
      "v": 100
    },
    {
      "midi": 64,
      "hit": false,
      "t": 201280.2553541667,
      "d": 564.516166666639,
      "v": 115
    },
    {
      "midi": 56,
      "hit": false,
      "t": 201280.2553541667,
      "d": 574.5968124999781,
      "v": 97
    },
    {
      "midi": 61,
      "hit": false,
      "t": 201280.2553541667,
      "d": 594.7581041666563,
      "v": 108
    },
    {
      "midi": 37,
      "hit": false,
      "t": 201280.2553541667,
      "d": 2923.3872916667024,
      "v": 113
    },
    {
      "midi": 44,
      "hit": false,
      "t": 201764.12635416668,
      "d": 2469.758229166735,
      "v": 89
    },
    {
      "midi": 49,
      "hit": false,
      "t": 202247.9973541667,
      "d": 977.8226458333666,
      "v": 93
    },
    {
      "midi": 56,
      "hit": false,
      "t": 202731.8683541667,
      "d": 514.112937500031,
      "v": 117
    },
    {
      "midi": 61,
      "hit": false,
      "t": 203215.73935416673,
      "d": 161.2903333333379,
      "v": 97
    },
    {
      "midi": 68,
      "hit": false,
      "t": 203215.73935416673,
      "d": 312.50002083333675,
      "v": 102
    },
    {
      "midi": 64,
      "hit": false,
      "t": 203215.73935416673,
      "d": 443.54841666665743,
      "v": 102
    },
    {
      "midi": 56,
      "hit": false,
      "t": 203699.6103541667,
      "d": 524.19358333337,
      "v": 122
    },
    {
      "midi": 61,
      "hit": false,
      "t": 204183.48135416672,
      "d": 141.12904166668886,
      "v": 110
    },
    {
      "midi": 64,
      "hit": false,
      "t": 204183.48135416672,
      "d": 433.46777083334746,
      "v": 113
    },
    {
      "midi": 49,
      "hit": false,
      "t": 204183.48135416672,
      "d": 514.1129375000019,
      "v": 100
    },
    {
      "midi": 56,
      "hit": false,
      "t": 204667.35235416674,
      "d": 120.9677499999816,
      "v": 108
    },
    {
      "midi": 61,
      "hit": false,
      "t": 204667.35235416674,
      "d": 322.5806666666467,
      "v": 60
    },
    {
      "midi": 58,
      "hit": false,
      "t": 205151.22335416672,
      "d": 675.4032708333398,
      "v": 115
    },
    {
      "midi": 61,
      "hit": false,
      "t": 205151.22335416672,
      "d": 947.5807083333493,
      "v": 102
    },
    {
      "midi": 66,
      "hit": false,
      "t": 205151.22335416672,
      "d": 957.6613541666884,
      "v": 117
    },
    {
      "midi": 42,
      "hit": false,
      "t": 205151.22335416672,
      "d": 1502.0162291667075,
      "v": 108
    },
    {
      "midi": 49,
      "hit": false,
      "t": 205635.09435416674,
      "d": 897.177479166683,
      "v": 97
    },
    {
      "midi": 54,
      "hit": false,
      "t": 206118.96535416675,
      "d": 534.27422916668,
      "v": 104
    },
    {
      "midi": 58,
      "hit": false,
      "t": 206602.83635416676,
      "d": 897.177479166683,
      "v": 127
    },
    {
      "midi": 49,
      "hit": false,
      "t": 207086.70735416678,
      "d": 201.61291666666511,
      "v": 45
    },
    {
      "midi": 40,
      "hit": false,
      "t": 207086.70735416678,
      "d": 1340.7258958333696,
      "v": 93
    },
    {
      "midi": 58,
      "hit": false,
      "t": 207570.5783541668,
      "d": 997.9839375000156,
      "v": 113
    },
    {
      "midi": 49,
      "hit": false,
      "t": 208054.4493541668,
      "d": 433.46777083334746,
      "v": 97
    },
    {
      "midi": 61,
      "hit": false,
      "t": 208054.4493541668,
      "d": 524.1935833333409,
      "v": 104
    },
    {
      "midi": 66,
      "hit": false,
      "t": 208538.32035416682,
      "d": 70.56452083331533,
      "v": 115
    },
    {
      "midi": 54,
      "hit": false,
      "t": 209022.1913541668,
      "d": 655.2419791666616,
      "v": 102
    },
    {
      "midi": 58,
      "hit": false,
      "t": 209022.1913541668,
      "d": 715.725854166667,
      "v": 110
    },
    {
      "midi": 63,
      "hit": false,
      "t": 209022.1913541668,
      "d": 1028.2258750000037,
      "v": 117
    },
    {
      "midi": 39,
      "hit": false,
      "t": 209022.1913541668,
      "d": 3760.08089583338,
      "v": 104
    },
    {
      "midi": 46,
      "hit": false,
      "t": 209506.0623541668,
      "d": 524.1935833333409,
      "v": 93
    },
    {
      "midi": 54,
      "hit": false,
      "t": 209989.9333541668,
      "d": 665.3226250000007,
      "v": 95
    },
    {
      "midi": 51,
      "hit": false,
      "t": 209989.9333541668,
      "d": 1502.0162291666493,
      "v": 83
    },
    {
      "midi": 58,
      "hit": false,
      "t": 210473.80435416682,
      "d": 211.6935624999751,
      "v": 97
    },
    {
      "midi": 58,
      "hit": false,
      "t": 210957.6753541668,
      "d": 110.88710416667163,
      "v": 78
    },
    {
      "midi": 54,
      "hit": false,
      "t": 210957.6753541668,
      "d": 151.20968749999884,
      "v": 79
    },
    {
      "midi": 63,
      "hit": false,
      "t": 210957.6753541668,
      "d": 524.1935833333118,
      "v": 81
    },
    {
      "midi": 54,
      "hit": false,
      "t": 211441.54635416679,
      "d": 221.77420833334327,
      "v": 25
    },
    {
      "midi": 61,
      "hit": false,
      "t": 211441.54635416679,
      "d": 534.27422916668,
      "v": 102
    },
    {
      "midi": 58,
      "hit": false,
      "t": 211925.4173541668,
      "d": 463.7097083333356,
      "v": 102
    },
    {
      "midi": 46,
      "hit": false,
      "t": 211925.4173541668,
      "d": 735.8871458333742,
      "v": 85
    },
    {
      "midi": 54,
      "hit": false,
      "t": 212409.2883541668,
      "d": 191.53227083335514,
      "v": 102
    },
    {
      "midi": 51,
      "hit": false,
      "t": 212429.4496458335,
      "d": 181.45162500001607,
      "v": 35
    },
    {
      "midi": 54,
      "hit": false,
      "t": 212893.15935416686,
      "d": 181.45162499998696,
      "v": 97
    },
    {
      "midi": 60,
      "hit": false,
      "t": 212893.15935416686,
      "d": 453.6290624999965,
      "v": 113
    },
    {
      "midi": 63,
      "hit": false,
      "t": 212893.15935416686,
      "d": 483.87099999998463,
      "v": 100
    },
    {
      "midi": 44,
      "hit": false,
      "t": 212893.15935416686,
      "d": 2056.4517499999492,
      "v": 108
    },
    {
      "midi": 54,
      "hit": false,
      "t": 213377.03035416684,
      "d": 302.4193749999977,
      "v": 91
    },
    {
      "midi": 54,
      "hit": false,
      "t": 213860.90135416682,
      "d": 131.04839583332068,
      "v": 78
    },
    {
      "midi": 66,
      "hit": false,
      "t": 213860.90135416682,
      "d": 161.2903333333088,
      "v": 97
    },
    {
      "midi": 60,
      "hit": false,
      "t": 213860.90135416682,
      "d": 191.53227083329693,
      "v": 100
    },
    {
      "midi": 54,
      "hit": false,
      "t": 214344.77235416678,
      "d": 211.6935625000042,
      "v": 78
    },
    {
      "midi": 54,
      "hit": false,
      "t": 214828.6433541668,
      "d": 120.96775000001071,
      "v": 97
    },
    {
      "midi": 63,
      "hit": false,
      "t": 214828.6433541668,
      "d": 231.85485416668234,
      "v": 97
    },
    {
      "midi": 60,
      "hit": false,
      "t": 214828.6433541668,
      "d": 282.2580833333486,
      "v": 113
    },
    {
      "midi": 54,
      "hit": false,
      "t": 215312.5143541668,
      "d": 625.0000416666735,
      "v": 110
    },
    {
      "midi": 60,
      "hit": false,
      "t": 215796.38535416682,
      "d": 483.87099999998463,
      "v": 110
    },
    {
      "midi": 44,
      "hit": false,
      "t": 215796.38535416682,
      "d": 665.3226249999716,
      "v": 93
    },
    {
      "midi": 54,
      "hit": false,
      "t": 216280.2563541668,
      "d": 241.93549999999232,
      "v": 87
    },
    {
      "midi": 56,
      "hit": false,
      "t": 216784.28864583347,
      "d": 433.46777083334746,
      "v": 87
    },
    {
      "midi": 61,
      "hit": false,
      "t": 216784.28864583347,
      "d": 645.1613333333516,
      "v": 93
    },
    {
      "midi": 64,
      "hit": false,
      "t": 216784.28864583347,
      "d": 665.3226250000298,
      "v": 102
    },
    {
      "midi": 37,
      "hit": false,
      "t": 216784.28864583347,
      "d": 2893.145354166656,
      "v": 89
    },
    {
      "midi": 44,
      "hit": false,
      "t": 217258.07900000014,
      "d": 2570.56468749998,
      "v": 77
    },
    {
      "midi": 49,
      "hit": false,
      "t": 217752.0306458335,
      "d": 453.6290624999965,
      "v": 79
    },
    {
      "midi": 56,
      "hit": false,
      "t": 218215.74035416683,
      "d": 544.35487499999,
      "v": 93
    },
    {
      "midi": 61,
      "hit": false,
      "t": 218709.69200000016,
      "d": 110.88710416667163,
      "v": 89
    },
    {
      "midi": 68,
      "hit": false,
      "t": 218709.69200000016,
      "d": 141.12904166665976,
      "v": 97
    },
    {
      "midi": 56,
      "hit": false,
      "t": 219183.4823541668,
      "d": 443.54841666665743,
      "v": 93
    },
    {
      "midi": 49,
      "hit": false,
      "t": 219667.3533541668,
      "d": 413.3064791666693,
      "v": 76
    },
    {
      "midi": 61,
      "hit": false,
      "t": 219667.3533541668,
      "d": 483.87100000001374,
      "v": 97
    },
    {
      "midi": 64,
      "hit": false,
      "t": 219677.43400000012,
      "d": 372.9838958333421,
      "v": 97
    },
    {
      "midi": 56,
      "hit": false,
      "t": 220151.2243541668,
      "d": 151.20968749999884,
      "v": 72
    },
    {
      "midi": 58,
      "hit": false,
      "t": 220635.09535416678,
      "d": 887.096833333344,
      "v": 122
    },
    {
      "midi": 42,
      "hit": false,
      "t": 220635.09535416678,
      "d": 1693.5485000000335,
      "v": 100
    },
    {
      "midi": 49,
      "hit": false,
      "t": 221118.9663541668,
      "d": 1401.2097708333458,
      "v": 89
    },
    {
      "midi": 54,
      "hit": false,
      "t": 221602.83735416678,
      "d": 554.4355208333582,
      "v": 74
    },
    {
      "midi": 61,
      "hit": false,
      "t": 222086.7083541668,
      "d": 957.6613541666593,
      "v": 102
    },
    {
      "midi": 52,
      "hit": false,
      "t": 222570.5793541668,
      "d": 1633.064624999999,
      "v": 106
    },
    {
      "midi": 58,
      "hit": false,
      "t": 223054.4503541668,
      "d": 534.27422916668,
      "v": 97
    },
    {
      "midi": 61,
      "hit": false,
      "t": 223538.3213541668,
      "d": 70.56452083334443,
      "v": 66
    },
    {
      "midi": 66,
      "hit": false,
      "t": 223538.3213541668,
      "d": 463.7097083333356,
      "v": 102
    },
    {
      "midi": 58,
      "hit": false,
      "t": 224022.19235416682,
      "d": 131.04839583332068,
      "v": 110
    },
    {
      "midi": 39,
      "hit": false,
      "t": 224506.0633541668,
      "d": 3810.4841250000463,
      "v": 104
    },
    {
      "midi": 46,
      "hit": false,
      "t": 224989.93435416682,
      "d": 3427.419583333365,
      "v": 89
    },
    {
      "midi": 51,
      "hit": false,
      "t": 225473.80535416683,
      "d": 997.9839374999865,
      "v": 77
    },
    {
      "midi": 54,
      "hit": false,
      "t": 225473.80535416683,
      "d": 1018.1452291666646,
      "v": 104
    },
    {
      "midi": 58,
      "hit": false,
      "t": 225957.67635416685,
      "d": 393.14518749999115,
      "v": 102
    },
    {
      "midi": 63,
      "hit": false,
      "t": 226441.54735416683,
      "d": 110.88710416667163,
      "v": 113
    },
    {
      "midi": 58,
      "hit": false,
      "t": 226925.41835416685,
      "d": 110.88710416667163,
      "v": 91
    },
    {
      "midi": 54,
      "hit": false,
      "t": 227409.28935416686,
      "d": 191.53227083332604,
      "v": 113
    },
    {
      "midi": 51,
      "hit": false,
      "t": 227409.28935416686,
      "d": 967.7419999999984,
      "v": 70
    },
    {
      "midi": 58,
      "hit": false,
      "t": 227893.16035416684,
      "d": 383.0645416666812,
      "v": 91
    },
    {
      "midi": 63,
      "hit": false,
      "t": 227893.16035416684,
      "d": 383.0645416666812,
      "v": 83
    },
    {
      "midi": 54,
      "hit": false,
      "t": 228377.03135416686,
      "d": 695.5645624999888,
      "v": 95
    },
    {
      "midi": 60,
      "hit": false,
      "t": 228377.03135416686,
      "d": 735.887145833316,
      "v": 120
    },
    {
      "midi": 44,
      "hit": false,
      "t": 228377.03135416686,
      "d": 3155.2421458332683,
      "v": 104
    },
    {
      "midi": 60,
      "hit": false,
      "t": 229344.77335416683,
      "d": 80.6451666666544,
      "v": 93
    },
    {
      "midi": 63,
      "hit": false,
      "t": 229344.77335416683,
      "d": 171.37097916664788,
      "v": 87
    },
    {
      "midi": 54,
      "hit": false,
      "t": 229828.6443541668,
      "d": 292.3387291666586,
      "v": 77
    },
    {
      "midi": 66,
      "hit": false,
      "t": 230312.5153541668,
      "d": 131.04839583332068,
      "v": 75
    },
    {
      "midi": 54,
      "hit": false,
      "t": 230796.38635416678,
      "d": 362.903250000003,
      "v": 79
    },
    {
      "midi": 60,
      "hit": false,
      "t": 231280.2573541668,
      "d": 141.12904166665976,
      "v": 95
    },
    {
      "midi": 63,
      "hit": false,
      "t": 231280.2573541668,
      "d": 352.82260416666395,
      "v": 85
    },
    {
      "midi": 54,
      "hit": false,
      "t": 231764.12835416678,
      "d": 151.20968749999884,
      "v": 78
    },
    {
      "midi": 56,
      "hit": false,
      "t": 232247.99935416676,
      "d": 897.177479166683,
      "v": 72
    },
    {
      "midi": 64,
      "hit": false,
      "t": 232247.99935416676,
      "d": 937.5000625000102,
      "v": 102
    },
    {
      "midi": 61,
      "hit": false,
      "t": 232247.99935416676,
      "d": 997.9839374999865,
      "v": 81
    },
    {
      "midi": 37,
      "hit": false,
      "t": 232247.99935416676,
      "d": 3306.4518333333253,
      "v": 93
    },
    {
      "midi": 44,
      "hit": false,
      "t": 232741.9510000001,
      "d": 3024.193750000006,
      "v": 78
    },
    {
      "midi": 49,
      "hit": false,
      "t": 233215.74135416676,
      "d": 524.1935833333118,
      "v": 73
    },
    {
      "midi": 56,
      "hit": false,
      "t": 233699.61235416675,
      "d": 987.9032916666765,
      "v": 110
    },
    {
      "midi": 49,
      "hit": false,
      "t": 234183.48335416673,
      "d": 554.4355208333582,
      "v": 72
    },
    {
      "midi": 64,
      "hit": false,
      "t": 234667.35435416675,
      "d": 433.46777083334746,
      "v": 104
    },
    {
      "midi": 61,
      "hit": false,
      "t": 234667.35435416675,
      "d": 655.2419791666907,
      "v": 93
    },
    {
      "midi": 56,
      "hit": false,
      "t": 235151.22535416676,
      "d": 554.4355208333291,
      "v": 100
    },
    {
      "midi": 49,
      "hit": false,
      "t": 235635.09635416674,
      "d": 463.7097083333647,
      "v": 89
    },
    {
      "midi": 64,
      "hit": false,
      "t": 236118.9673541668,
      "d": 887.096833333344,
      "v": 110
    },
    {
      "midi": 56,
      "hit": false,
      "t": 236129.04800000013,
      "d": 897.177479166683,
      "v": 97
    },
    {
      "midi": 42,
      "hit": false,
      "t": 236129.04800000013,
      "d": 3780.2421875,
      "v": 108
    },
    {
      "midi": 59,
      "hit": false,
      "t": 236139.12864583347,
      "d": 866.9355416666658,
      "v": 108
    },
    {
      "midi": 54,
      "hit": false,
      "t": 237106.87064583346,
      "d": 2731.855020833318,
      "v": 68
    },
    {
      "midi": 59,
      "hit": false,
      "t": 238054.45135416678,
      "d": 161.2903333333379,
      "v": 45
    },
    {
      "midi": 71,
      "hit": false,
      "t": 238074.61264583346,
      "d": 110.88710416667163,
      "v": 81
    },
    {
      "midi": 64,
      "hit": false,
      "t": 238074.61264583346,
      "d": 141.12904166665976,
      "v": 57
    },
    {
      "midi": 47,
      "hit": false,
      "t": 240010.09664583346,
      "d": 3266.1292500000272,
      "v": 100
    },
    {
      "midi": 54,
      "hit": false,
      "t": 240473.8063541668,
      "d": 2116.935625000042,
      "v": 93
    },
    {
      "midi": 59,
      "hit": false,
      "t": 240957.6773541668,
      "d": 2399.1937083333323,
      "v": 78
    },
    {
      "midi": 63,
      "hit": false,
      "t": 241441.54835416682,
      "d": 1058.467812500021,
      "v": 78
    },
    {
      "midi": 71,
      "hit": false,
      "t": 241925.41935416684,
      "d": 1512.0968749999593,
      "v": 97
    },
    {
      "midi": 66,
      "hit": false,
      "t": 242409.29035416685,
      "d": 534.2742291666509,
      "v": 81
    },
    {
      "midi": 63,
      "hit": false,
      "t": 242893.16135416683,
      "d": 715.7258541666379,
      "v": 72
    },
    {
      "midi": 66,
      "hit": false,
      "t": 243397.19364583347,
      "d": 1491.9355833333684,
      "v": 89
    },
    {
      "midi": 46,
      "hit": false,
      "t": 243870.98400000014,
      "d": 3225.8066666667582,
      "v": 97
    },
    {
      "midi": 54,
      "hit": false,
      "t": 244344.77435416682,
      "d": 2741.9356666667445,
      "v": 85
    },
    {
      "midi": 58,
      "hit": false,
      "t": 244828.64535416683,
      "d": 1169.3549166666926,
      "v": 78
    },
    {
      "midi": 63,
      "hit": false,
      "t": 245312.51635416684,
      "d": 725.806500000006,
      "v": 83
    },
    {
      "midi": 70,
      "hit": false,
      "t": 245796.38735416686,
      "d": 1542.3388125000638,
      "v": 93
    },
    {
      "midi": 66,
      "hit": false,
      "t": 246300.41964583352,
      "d": 554.4355208333582,
      "v": 79
    },
    {
      "midi": 58,
      "hit": false,
      "t": 246784.29064583353,
      "d": 231.85485416668234,
      "v": 71
    },
    {
      "midi": 63,
      "hit": false,
      "t": 246784.29064583353,
      "d": 574.5968125000654,
      "v": 77
    },
    {
      "midi": 66,
      "hit": false,
      "t": 247268.16164583358,
      "d": 645.1613333333808,
      "v": 93
    },
    {
      "midi": 44,
      "hit": false,
      "t": 247752.03264583362,
      "d": 2832.661479166709,
      "v": 97
    },
    {
      "midi": 51,
      "hit": false,
      "t": 248215.74235416696,
      "d": 3387.097000000038,
      "v": 104
    },
    {
      "midi": 56,
      "hit": false,
      "t": 248699.61335416697,
      "d": 1743.9517291666998,
      "v": 100
    },
    {
      "midi": 59,
      "hit": false,
      "t": 249183.48435416698,
      "d": 1008.0645833333547,
      "v": 93
    },
    {
      "midi": 68,
      "hit": false,
      "t": 249667.355354167,
      "d": 967.7419999999984,
      "v": 97
    },
    {
      "midi": 63,
      "hit": false,
      "t": 250151.226354167,
      "d": 564.516166666639,
      "v": 91
    },
    {
      "midi": 59,
      "hit": false,
      "t": 250635.097354167,
      "d": 534.2742291666509,
      "v": 95
    },
    {
      "midi": 63,
      "hit": false,
      "t": 251118.96835416698,
      "d": 907.2581250000221,
      "v": 83
    },
    {
      "midi": 68,
      "hit": false,
      "t": 251118.96835416698,
      "d": 927.4194166667003,
      "v": 85
    },
    {
      "midi": 42,
      "hit": false,
      "t": 251602.839354167,
      "d": 2620.967916666734,
      "v": 102
    },
    {
      "midi": 51,
      "hit": false,
      "t": 252086.710354167,
      "d": 2872.9840625000943,
      "v": 89
    },
    {
      "midi": 56,
      "hit": false,
      "t": 252570.58135416702,
      "d": 2116.935625000071,
      "v": 83
    },
    {
      "midi": 59,
      "hit": false,
      "t": 253054.45235416704,
      "d": 1048.3871666666819,
      "v": 87
    },
    {
      "midi": 68,
      "hit": false,
      "t": 253538.32335416705,
      "d": 1471.7742916667194,
      "v": 104
    },
    {
      "midi": 63,
      "hit": false,
      "t": 254022.19435416706,
      "d": 554.4355208333582,
      "v": 83
    },
    {
      "midi": 42,
      "hit": false,
      "t": 254506.06535416708,
      "d": 483.87100000001374,
      "v": 83
    },
    {
      "midi": 59,
      "hit": false,
      "t": 254506.06535416708,
      "d": 776.2097291666723,
      "v": 97
    },
    {
      "midi": 63,
      "hit": false,
      "t": 254989.9363541671,
      "d": 483.87099999998463,
      "v": 81
    },
    {
      "midi": 40,
      "hit": false,
      "t": 255473.80735416707,
      "d": 2822.58083333337,
      "v": 117
    },
    {
      "midi": 47,
      "hit": false,
      "t": 255957.67835416706,
      "d": 2600.8066250000556,
      "v": 89
    },
    {
      "midi": 52,
      "hit": false,
      "t": 256441.54935416707,
      "d": 2096.7743333333638,
      "v": 81
    },
    {
      "midi": 56,
      "hit": false,
      "t": 256925.4203541671,
      "d": 1602.822687500011,
      "v": 83
    },
    {
      "midi": 68,
      "hit": false,
      "t": 257409.2913541671,
      "d": 665.3226250000007,
      "v": 100
    },
    {
      "midi": 64,
      "hit": false,
      "t": 257893.1623541671,
      "d": 786.2903750000114,
      "v": 93
    },
    {
      "midi": 59,
      "hit": false,
      "t": 258377.0333541671,
      "d": 997.9839375000156,
      "v": 95
    },
    {
      "midi": 56,
      "hit": false,
      "t": 258881.0656458338,
      "d": 504.0322916666628,
      "v": 79
    },
    {
      "midi": 42,
      "hit": false,
      "t": 259344.77535416713,
      "d": 3114.9195624999993,
      "v": 110
    },
    {
      "midi": 49,
      "hit": false,
      "t": 259828.6463541671,
      "d": 1713.7097916667117,
      "v": 100
    },
    {
      "midi": 54,
      "hit": false,
      "t": 260312.51735416712,
      "d": 2459.6775833333377,
      "v": 93
    },
    {
      "midi": 58,
      "hit": false,
      "t": 260796.38835416714,
      "d": 1602.822687500011,
      "v": 83
    },
    {
      "midi": 70,
      "hit": false,
      "t": 261280.25935416715,
      "d": 977.8226458333083,
      "v": 95
    },
    {
      "midi": 66,
      "hit": false,
      "t": 261774.21100000048,
      "d": 695.5645624999888,
      "v": 81
    },
    {
      "midi": 49,
      "hit": false,
      "t": 262248.0013541671,
      "d": 302.4193749999977,
      "v": 89
    },
    {
      "midi": 61,
      "hit": false,
      "t": 262248.0013541671,
      "d": 695.5645624999888,
      "v": 97
    },
    {
      "midi": 58,
      "hit": false,
      "t": 262741.95300000045,
      "d": 554.4355208333,
      "v": 81
    },
    {
      "midi": 61,
      "hit": false,
      "t": 263215.7433541671,
      "d": 110.88710416667163,
      "v": 25
    },
    {
      "midi": 47,
      "hit": false,
      "t": 263215.7433541671,
      "d": 8024.1940833333065,
      "v": 100
    },
    {
      "midi": 54,
      "hit": false,
      "t": 263699.61435416713,
      "d": 7560.484374999942,
      "v": 87
    },
    {
      "midi": 59,
      "hit": false,
      "t": 264183.4853541671,
      "d": 1522.1775208333274,
      "v": 39
    },
    {
      "midi": 66,
      "hit": false,
      "t": 264667.3563541671,
      "d": 635.0806875000126,
      "v": 78
    },
    {
      "midi": 63,
      "hit": false,
      "t": 265151.2273541671,
      "d": 574.5968125000363,
      "v": 72
    },
    {
      "midi": 71,
      "hit": false,
      "t": 265645.17900000047,
      "d": 342.74195833329577,
      "v": 79
    },
    {
      "midi": 66,
      "hit": false,
      "t": 266139.1306458338,
      "d": 584.6774583333172,
      "v": 79
    },
    {
      "midi": 75,
      "hit": false,
      "t": 266623.0016458338,
      "d": 161.2903333333088,
      "v": 72
    },
    {
      "midi": 78,
      "hit": false,
      "t": 267096.7920000004,
      "d": 241.93550000002142,
      "v": 110
    },
    {
      "midi": 71,
      "hit": false,
      "t": 267106.87264583376,
      "d": 181.45162499998696,
      "v": 85
    },
    {
      "midi": 66,
      "hit": false,
      "t": 267106.87264583376,
      "d": 201.61291666666511,
      "v": 67
    },
    {
      "midi": 59,
      "hit": false,
      "t": 267106.87264583376,
      "d": 4062.5002708333195,
      "v": 76
    },
    {
      "midi": 83,
      "hit": false,
      "t": 269042.35664583376,
      "d": 70.56452083331533,
      "v": 78
    },
    {
      "midi": 90,
      "hit": false,
      "t": 269042.35664583376,
      "d": 100.80645833333256,
      "v": 68
    }
  ]
}