{
  "jsonPath": "Animes/Sailor Moon MIDI Collection/ashita-mo-mata-jitensha.json",
  "path": "Animes\\Sailor Moon MIDI Collection\\Ashita Mo Mata Jitensha.mid",
  "name": "Ashita Mo Mata Jitensha",
  "difficulty": "Advanced",
  "bpm": 78.000078000078,
  "notes": [
    {
      "midi": 73,
      "hit": false,
      "t": 3076.9199999999996,
      "d": 384.61500000000024,
      "v": 80
    },
    {
      "midi": 57,
      "hit": false,
      "t": 3076.9199999999996,
      "d": 384.61500000000024,
      "v": 70
    },
    {
      "midi": 85,
      "hit": false,
      "t": 3084.9328124999997,
      "d": 384.61500000000024,
      "v": 80
    },
    {
      "midi": 88,
      "hit": false,
      "t": 3165.0609375,
      "d": 384.61500000000024,
      "v": 80
    },
    {
      "midi": 93,
      "hit": false,
      "t": 3245.1890625,
      "d": 384.61500000000024,
      "v": 80
    },
    {
      "midi": 76,
      "hit": false,
      "t": 3461.535,
      "d": 384.6150000000007,
      "v": 80
    },
    {
      "midi": 81,
      "hit": false,
      "t": 3854.1628125000007,
      "d": 384.6149999999998,
      "v": 80
    },
    {
      "midi": 85,
      "hit": false,
      "t": 4238.7778125,
      "d": 384.6149999999998,
      "v": 80
    },
    {
      "midi": 88,
      "hit": false,
      "t": 4623.3928125,
      "d": 384.6149999999998,
      "v": 80
    },
    {
      "midi": 85,
      "hit": false,
      "t": 5008.0078125,
      "d": 384.6149999999998,
      "v": 80
    },
    {
      "midi": 81,
      "hit": false,
      "t": 5392.6228125,
      "d": 384.6149999999998,
      "v": 80
    },
    {
      "midi": 76,
      "hit": false,
      "t": 5769.224999999999,
      "d": 384.6149999999998,
      "v": 80
    },
    {
      "midi": 74,
      "hit": false,
      "t": 6153.839999999999,
      "d": 384.6149999999998,
      "v": 80
    },
    {
      "midi": 64,
      "hit": false,
      "t": 6153.839999999999,
      "d": 384.6149999999998,
      "v": 70
    },
    {
      "midi": 78,
      "hit": false,
      "t": 6538.454999999999,
      "d": 384.6149999999998,
      "v": 80
    },
    {
      "midi": 81,
      "hit": false,
      "t": 6931.082812499999,
      "d": 384.6149999999998,
      "v": 80
    },
    {
      "midi": 86,
      "hit": false,
      "t": 7315.697812499999,
      "d": 384.6149999999998,
      "v": 80
    },
    {
      "midi": 83,
      "hit": false,
      "t": 7700.3128124999985,
      "d": 384.6149999999998,
      "v": 80
    },
    {
      "midi": 76,
      "hit": false,
      "t": 8076.914999999998,
      "d": 384.6150000000007,
      "v": 80
    },
    {
      "midi": 88,
      "hit": false,
      "t": 8084.927812499998,
      "d": 384.6149999999998,
      "v": 107
    },
    {
      "midi": 78,
      "hit": false,
      "t": 8461.529999999999,
      "d": 384.6149999999998,
      "v": 80
    },
    {
      "midi": 93,
      "hit": false,
      "t": 8469.542812499998,
      "d": 384.6149999999998,
      "v": 107
    },
    {
      "midi": 77,
      "hit": false,
      "t": 8846.144999999999,
      "d": 384.6149999999998,
      "v": 80
    },
    {
      "midi": 95,
      "hit": false,
      "t": 8854.157812499998,
      "d": 384.6149999999998,
      "v": 107
    },
    {
      "midi": 76,
      "hit": false,
      "t": 9230.759999999998,
      "d": 384.6149999999998,
      "v": 80
    },
    {
      "midi": 69,
      "hit": false,
      "t": 9230.759999999998,
      "d": 384.6149999999998,
      "v": 70
    },
    {
      "midi": 97,
      "hit": false,
      "t": 9238.772812499998,
      "d": 384.6149999999998,
      "v": 107
    },
    {
      "midi": 85,
      "hit": false,
      "t": 9623.387812499997,
      "d": 384.6149999999998,
      "v": 80
    },
    {
      "midi": 93,
      "hit": false,
      "t": 10008.002812499997,
      "d": 384.6149999999998,
      "v": 70
    },
    {
      "midi": 88,
      "hit": false,
      "t": 10008.002812499997,
      "d": 384.6149999999998,
      "v": 80
    },
    {
      "midi": 100,
      "hit": false,
      "t": 10016.015624999996,
      "d": 384.6149999999998,
      "v": 107
    },
    {
      "midi": 81,
      "hit": false,
      "t": 10392.617812499997,
      "d": 384.61499999999796,
      "v": 80
    },
    {
      "midi": 76,
      "hit": false,
      "t": 10769.219999999996,
      "d": 384.6149999999998,
      "v": 80
    },
    {
      "midi": 68,
      "hit": false,
      "t": 10769.219999999996,
      "d": 384.6149999999998,
      "v": 70
    },
    {
      "midi": 95,
      "hit": false,
      "t": 10777.232812499995,
      "d": 384.6149999999998,
      "v": 107
    },
    {
      "midi": 92,
      "hit": false,
      "t": 10777.232812499995,
      "d": 384.6149999999998,
      "v": 70
    },
    {
      "midi": 83,
      "hit": false,
      "t": 11161.847812499995,
      "d": 384.6149999999998,
      "v": 80
    },
    {
      "midi": 95,
      "hit": false,
      "t": 11546.462812499994,
      "d": 384.6149999999998,
      "v": 70
    },
    {
      "midi": 88,
      "hit": false,
      "t": 11546.462812499994,
      "d": 384.6149999999998,
      "v": 80
    },
    {
      "midi": 100,
      "hit": false,
      "t": 11554.475624999994,
      "d": 384.6149999999998,
      "v": 107
    },
    {
      "midi": 80,
      "hit": false,
      "t": 11931.077812499994,
      "d": 384.61499999999796,
      "v": 80
    },
    {
      "midi": 93,
      "hit": false,
      "t": 11931.077812499994,
      "d": 769.2299999999977,
      "v": 107
    },
    {
      "midi": 90,
      "hit": false,
      "t": 11931.077812499994,
      "d": 769.2299999999977,
      "v": 80
    },
    {
      "midi": 78,
      "hit": false,
      "t": 12307.679999999993,
      "d": 384.6149999999998,
      "v": 80
    },
    {
      "midi": 66,
      "hit": false,
      "t": 12307.679999999993,
      "d": 384.6149999999998,
      "v": 70
    },
    {
      "midi": 80,
      "hit": false,
      "t": 12700.307812499992,
      "d": 384.6149999999998,
      "v": 80
    },
    {
      "midi": 81,
      "hit": false,
      "t": 13084.922812499992,
      "d": 384.6149999999998,
      "v": 80
    },
    {
      "midi": 85,
      "hit": false,
      "t": 13469.537812499992,
      "d": 384.6149999999998,
      "v": 80
    },
    {
      "midi": 90,
      "hit": false,
      "t": 13854.152812499991,
      "d": 384.6149999999998,
      "v": 80
    },
    {
      "midi": 85,
      "hit": false,
      "t": 14238.767812499991,
      "d": 384.6149999999998,
      "v": 80
    },
    {
      "midi": 66,
      "hit": false,
      "t": 14615.369999999992,
      "d": 384.6149999999998,
      "v": 70
    },
    {
      "midi": 95,
      "hit": false,
      "t": 14623.38281249999,
      "d": 384.6149999999998,
      "v": 107
    },
    {
      "midi": 86,
      "hit": false,
      "t": 14623.38281249999,
      "d": 384.6149999999998,
      "v": 80
    },
    {
      "midi": 97,
      "hit": false,
      "t": 15007.99781249999,
      "d": 384.6149999999998,
      "v": 107
    },
    {
      "midi": 88,
      "hit": false,
      "t": 15007.99781249999,
      "d": 384.6149999999998,
      "v": 80
    },
    {
      "midi": 59,
      "hit": false,
      "t": 15384.599999999991,
      "d": 384.6149999999998,
      "v": 70
    },
    {
      "midi": 98,
      "hit": false,
      "t": 15392.61281249999,
      "d": 384.6149999999998,
      "v": 107
    },
    {
      "midi": 95,
      "hit": false,
      "t": 15392.61281249999,
      "d": 384.6149999999998,
      "v": 80
    },
    {
      "midi": 90,
      "hit": false,
      "t": 15392.61281249999,
      "d": 384.6149999999998,
      "v": 80
    },
    {
      "midi": 83,
      "hit": false,
      "t": 15777.22781249999,
      "d": 384.6149999999998,
      "v": 80
    },
    {
      "midi": 74,
      "hit": false,
      "t": 16153.82999999999,
      "d": 384.61499999999796,
      "v": 80
    },
    {
      "midi": 98,
      "hit": false,
      "t": 16161.84281249999,
      "d": 384.6149999999998,
      "v": 80
    },
    {
      "midi": 102,
      "hit": false,
      "t": 16169.85562499999,
      "d": 384.6150000000016,
      "v": 107
    },
    {
      "midi": 71,
      "hit": false,
      "t": 16538.44499999999,
      "d": 384.6150000000016,
      "v": 80
    },
    {
      "midi": 70,
      "hit": false,
      "t": 16923.05999999999,
      "d": 384.6150000000016,
      "v": 80
    },
    {
      "midi": 66,
      "hit": false,
      "t": 16923.05999999999,
      "d": 384.6150000000016,
      "v": 70
    },
    {
      "midi": 97,
      "hit": false,
      "t": 16931.07281249999,
      "d": 384.6150000000016,
      "v": 107
    },
    {
      "midi": 94,
      "hit": false,
      "t": 16931.07281249999,
      "d": 384.6150000000016,
      "v": 80
    },
    {
      "midi": 76,
      "hit": false,
      "t": 17307.674999999992,
      "d": 384.6150000000016,
      "v": 80
    },
    {
      "midi": 97,
      "hit": false,
      "t": 17700.302812499995,
      "d": 384.6150000000016,
      "v": 80
    },
    {
      "midi": 82,
      "hit": false,
      "t": 17700.302812499995,
      "d": 384.6150000000016,
      "v": 80
    },
    {
      "midi": 102,
      "hit": false,
      "t": 17708.315624999996,
      "d": 384.6150000000016,
      "v": 107
    },
    {
      "midi": 78,
      "hit": false,
      "t": 18076.904999999995,
      "d": 384.6150000000016,
      "v": 80
    },
    {
      "midi": 95,
      "hit": false,
      "t": 18084.917812499996,
      "d": 769.2300000000032,
      "v": 107
    },
    {
      "midi": 74,
      "hit": false,
      "t": 18461.519999999997,
      "d": 384.6150000000016,
      "v": 80
    },
    {
      "midi": 59,
      "hit": false,
      "t": 18461.519999999997,
      "d": 384.6150000000016,
      "v": 70
    },
    {
      "midi": 76,
      "hit": false,
      "t": 18846.135,
      "d": 384.6150000000016,
      "v": 80
    },
    {
      "midi": 78,
      "hit": false,
      "t": 19230.75,
      "d": 384.6150000000016,
      "v": 80
    },
    {
      "midi": 86,
      "hit": false,
      "t": 19623.377812500003,
      "d": 384.6150000000016,
      "v": 80
    },
    {
      "midi": 85,
      "hit": false,
      "t": 20007.992812500004,
      "d": 384.6150000000016,
      "v": 80
    },
    {
      "midi": 83,
      "hit": false,
      "t": 20392.607812500006,
      "d": 384.6150000000016,
      "v": 80
    },
    {
      "midi": 64,
      "hit": false,
      "t": 20769.210000000006,
      "d": 384.6150000000016,
      "v": 70
    },
    {
      "midi": 97,
      "hit": false,
      "t": 20777.222812500007,
      "d": 384.6150000000016,
      "v": 107
    },
    {
      "midi": 81,
      "hit": false,
      "t": 20777.222812500007,
      "d": 384.6150000000016,
      "v": 80
    },
    {
      "midi": 98,
      "hit": false,
      "t": 21161.83781250001,
      "d": 384.6150000000016,
      "v": 107
    },
    {
      "midi": 80,
      "hit": false,
      "t": 21161.83781250001,
      "d": 384.6150000000016,
      "v": 80
    },
    {
      "midi": 76,
      "hit": false,
      "t": 21538.44000000001,
      "d": 384.6150000000016,
      "v": 80
    },
    {
      "midi": 61,
      "hit": false,
      "t": 21538.44000000001,
      "d": 384.6150000000016,
      "v": 70
    },
    {
      "midi": 93,
      "hit": false,
      "t": 21546.45281250001,
      "d": 384.6150000000016,
      "v": 80
    },
    {
      "midi": 97,
      "hit": false,
      "t": 21610.55531250001,
      "d": 384.6150000000016,
      "v": 80
    },
    {
      "midi": 100,
      "hit": false,
      "t": 21682.67062500001,
      "d": 384.6150000000016,
      "v": 107
    },
    {
      "midi": 69,
      "hit": false,
      "t": 21923.05500000001,
      "d": 384.6150000000016,
      "v": 80
    },
    {
      "midi": 71,
      "hit": false,
      "t": 22307.670000000013,
      "d": 384.6150000000016,
      "v": 80
    },
    {
      "midi": 93,
      "hit": false,
      "t": 22315.682812500014,
      "d": 384.6150000000016,
      "v": 107
    },
    {
      "midi": 73,
      "hit": false,
      "t": 22692.285000000014,
      "d": 384.6150000000016,
      "v": 80
    },
    {
      "midi": 93,
      "hit": false,
      "t": 22700.297812500015,
      "d": 384.6150000000016,
      "v": 107
    },
    {
      "midi": 76,
      "hit": false,
      "t": 23076.900000000016,
      "d": 384.6150000000016,
      "v": 80
    },
    {
      "midi": 81,
      "hit": false,
      "t": 23469.52781250002,
      "d": 384.6150000000016,
      "v": 80
    },
    {
      "midi": 83,
      "hit": false,
      "t": 23854.14281250002,
      "d": 384.6150000000016,
      "v": 80
    },
    {
      "midi": 93,
      "hit": false,
      "t": 24238.757812500022,
      "d": 384.6150000000016,
      "v": 107
    },
    {
      "midi": 85,
      "hit": false,
      "t": 24238.757812500022,
      "d": 384.6150000000016,
      "v": 80
    },
    {
      "midi": 78,
      "hit": false,
      "t": 24615.360000000022,
      "d": 384.6150000000016,
      "v": 80
    },
    {
      "midi": 62,
      "hit": false,
      "t": 24615.360000000022,
      "d": 384.6150000000016,
      "v": 70
    },
    {
      "midi": 93,
      "hit": false,
      "t": 24623.372812500023,
      "d": 384.6150000000016,
      "v": 80
    },
    {
      "midi": 98,
      "hit": false,
      "t": 24687.475312500024,
      "d": 384.6150000000016,
      "v": 80
    },
    {
      "midi": 102,
      "hit": false,
      "t": 24759.590625000023,
      "d": 384.6150000000016,
      "v": 107
    },
    {
      "midi": 69,
      "hit": false,
      "t": 24999.975000000024,
      "d": 384.6150000000016,
      "v": 80
    },
    {
      "midi": 74,
      "hit": false,
      "t": 25384.590000000026,
      "d": 384.6150000000016,
      "v": 80
    },
    {
      "midi": 93,
      "hit": false,
      "t": 25392.602812500027,
      "d": 384.6150000000016,
      "v": 107
    },
    {
      "midi": 76,
      "hit": false,
      "t": 25769.205000000027,
      "d": 384.6150000000016,
      "v": 80
    },
    {
      "midi": 93,
      "hit": false,
      "t": 25777.21781250003,
      "d": 384.6150000000016,
      "v": 107
    },
    {
      "midi": 78,
      "hit": false,
      "t": 26153.82000000003,
      "d": 384.6150000000016,
      "v": 80
    },
    {
      "midi": 81,
      "hit": false,
      "t": 26546.44781250003,
      "d": 384.6150000000016,
      "v": 80
    },
    {
      "midi": 86,
      "hit": false,
      "t": 26931.062812500033,
      "d": 384.6150000000016,
      "v": 80
    },
    {
      "midi": 95,
      "hit": false,
      "t": 27315.677812500035,
      "d": 384.6150000000016,
      "v": 107
    },
    {
      "midi": 85,
      "hit": false,
      "t": 27315.677812500035,
      "d": 384.6150000000016,
      "v": 80
    },
    {
      "midi": 59,
      "hit": false,
      "t": 27692.280000000035,
      "d": 384.6150000000016,
      "v": 70
    },
    {
      "midi": 97,
      "hit": false,
      "t": 27700.292812500036,
      "d": 384.6150000000016,
      "v": 107
    },
    {
      "midi": 90,
      "hit": false,
      "t": 27700.292812500036,
      "d": 384.6150000000016,
      "v": 60
    },
    {
      "midi": 83,
      "hit": false,
      "t": 27700.292812500036,
      "d": 384.6150000000016,
      "v": 80
    },
    {
      "midi": 73,
      "hit": false,
      "t": 28076.895000000037,
      "d": 384.6150000000016,
      "v": 80
    },
    {
      "midi": 97,
      "hit": false,
      "t": 28084.907812500038,
      "d": 384.6150000000016,
      "v": 107
    },
    {
      "midi": 78,
      "hit": false,
      "t": 28461.51000000004,
      "d": 384.6150000000016,
      "v": 80
    },
    {
      "midi": 97,
      "hit": false,
      "t": 28469.52281250004,
      "d": 384.6150000000016,
      "v": 107
    },
    {
      "midi": 93,
      "hit": false,
      "t": 28854.13781250004,
      "d": 384.6150000000016,
      "v": 107
    },
    {
      "midi": 81,
      "hit": false,
      "t": 28854.13781250004,
      "d": 384.6150000000016,
      "v": 80
    },
    {
      "midi": 90,
      "hit": false,
      "t": 29238.752812500043,
      "d": 384.6150000000016,
      "v": 107
    },
    {
      "midi": 86,
      "hit": false,
      "t": 29238.752812500043,
      "d": 384.6150000000016,
      "v": 80
    },
    {
      "midi": 83,
      "hit": false,
      "t": 29623.367812500044,
      "d": 384.6150000000016,
      "v": 80
    },
    {
      "midi": 97,
      "hit": false,
      "t": 30007.982812500046,
      "d": 384.6150000000016,
      "v": 107
    },
    {
      "midi": 81,
      "hit": false,
      "t": 30007.982812500046,
      "d": 384.6150000000016,
      "v": 80
    },
    {
      "midi": 78,
      "hit": false,
      "t": 30384.585000000046,
      "d": 384.6150000000016,
      "v": 80
    },
    {
      "midi": 95,
      "hit": false,
      "t": 30392.597812500047,
      "d": 769.2300000000032,
      "v": 107
    },
    {
      "midi": 76,
      "hit": false,
      "t": 30769.200000000048,
      "d": 384.6150000000016,
      "v": 80
    },
    {
      "midi": 64,
      "hit": false,
      "t": 30769.200000000048,
      "d": 384.6150000000016,
      "v": 70
    },
    {
      "midi": 80,
      "hit": false,
      "t": 31161.82781250005,
      "d": 384.6150000000016,
      "v": 80
    },
    {
      "midi": 83,
      "hit": false,
      "t": 31546.442812500052,
      "d": 384.6150000000016,
      "v": 80
    },
    {
      "midi": 86,
      "hit": false,
      "t": 31931.057812500054,
      "d": 384.6150000000016,
      "v": 80
    },
    {
      "midi": 90,
      "hit": false,
      "t": 32315.672812500055,
      "d": 384.6150000000016,
      "v": 80
    },
    {
      "midi": 76,
      "hit": false,
      "t": 32692.275000000056,
      "d": 384.6150000000016,
      "v": 80
    },
    {
      "midi": 88,
      "hit": false,
      "t": 32700.287812500057,
      "d": 384.61499999999796,
      "v": 107
    },
    {
      "midi": 86,
      "hit": false,
      "t": 32700.287812500057,
      "d": 384.61499999999796,
      "v": 70
    },
    {
      "midi": 78,
      "hit": false,
      "t": 33076.89000000006,
      "d": 384.61499999999796,
      "v": 80
    },
    {
      "midi": 93,
      "hit": false,
      "t": 33084.902812500055,
      "d": 384.61499999999796,
      "v": 107
    },
    {
      "midi": 77,
      "hit": false,
      "t": 33461.505000000056,
      "d": 384.61499999999796,
      "v": 80
    },
    {
      "midi": 95,
      "hit": false,
      "t": 33469.51781250005,
      "d": 384.61499999999796,
      "v": 107
    },
    {
      "midi": 76,
      "hit": false,
      "t": 33846.12000000005,
      "d": 384.61499999999796,
      "v": 80
    },
    {
      "midi": 69,
      "hit": false,
      "t": 33846.12000000005,
      "d": 384.61499999999796,
      "v": 70
    },
    {
      "midi": 97,
      "hit": false,
      "t": 33854.13281250005,
      "d": 384.61499999999796,
      "v": 107
    },
    {
      "midi": 85,
      "hit": false,
      "t": 34238.74781250005,
      "d": 384.61499999999796,
      "v": 80
    },
    {
      "midi": 93,
      "hit": false,
      "t": 34623.36281250005,
      "d": 384.61499999999796,
      "v": 70
    },
    {
      "midi": 88,
      "hit": false,
      "t": 34623.36281250005,
      "d": 384.61499999999796,
      "v": 80
    },
    {
      "midi": 100,
      "hit": false,
      "t": 34631.375625000044,
      "d": 384.61499999999796,
      "v": 107
    },
    {
      "midi": 81,
      "hit": false,
      "t": 35007.977812500045,
      "d": 384.61499999999796,
      "v": 80
    },
    {
      "midi": 76,
      "hit": false,
      "t": 35384.580000000045,
      "d": 384.61499999999796,
      "v": 80
    },
    {
      "midi": 68,
      "hit": false,
      "t": 35384.580000000045,
      "d": 384.61499999999796,
      "v": 70
    },
    {
      "midi": 95,
      "hit": false,
      "t": 35392.59281250004,
      "d": 384.61499999999796,
      "v": 107
    },
    {
      "midi": 92,
      "hit": false,
      "t": 35392.59281250004,
      "d": 384.61499999999796,
      "v": 70
    },
    {
      "midi": 83,
      "hit": false,
      "t": 35777.20781250004,
      "d": 384.61499999999796,
      "v": 80
    },
    {
      "midi": 95,
      "hit": false,
      "t": 36161.82281250004,
      "d": 384.61499999999796,
      "v": 70
    },
    {
      "midi": 88,
      "hit": false,
      "t": 36161.82281250004,
      "d": 384.61499999999796,
      "v": 80
    },
    {
      "midi": 100,
      "hit": false,
      "t": 36169.835625000036,
      "d": 384.61499999999796,
      "v": 107
    },
    {
      "midi": 80,
      "hit": false,
      "t": 36546.43781250004,
      "d": 384.61499999999796,
      "v": 80
    },
    {
      "midi": 93,
      "hit": false,
      "t": 36546.43781250004,
      "d": 769.2299999999959,
      "v": 107
    },
    {
      "midi": 90,
      "hit": false,
      "t": 36546.43781250004,
      "d": 769.2299999999959,
      "v": 80
    },
    {
      "midi": 78,
      "hit": false,
      "t": 36923.04000000004,
      "d": 384.61499999999796,
      "v": 80
    },
    {
      "midi": 66,
      "hit": false,
      "t": 36923.04000000004,
      "d": 384.61499999999796,
      "v": 70
    },
    {
      "midi": 80,
      "hit": false,
      "t": 37315.66781250003,
      "d": 384.61499999999796,
      "v": 80
    },
    {
      "midi": 81,
      "hit": false,
      "t": 37700.28281250003,
      "d": 384.61499999999796,
      "v": 80
    },
    {
      "midi": 85,
      "hit": false,
      "t": 38084.89781250003,
      "d": 384.61499999999796,
      "v": 80
    },
    {
      "midi": 90,
      "hit": false,
      "t": 38469.51281250003,
      "d": 384.61499999999796,
      "v": 80
    },
    {
      "midi": 85,
      "hit": false,
      "t": 38854.127812500024,
      "d": 384.61499999999796,
      "v": 80
    },
    {
      "midi": 66,
      "hit": false,
      "t": 39230.730000000025,
      "d": 384.61499999999796,
      "v": 70
    },
    {
      "midi": 95,
      "hit": false,
      "t": 39238.74281250002,
      "d": 384.61499999999796,
      "v": 107
    },
    {
      "midi": 86,
      "hit": false,
      "t": 39238.74281250002,
      "d": 384.61499999999796,
      "v": 80
    },
    {
      "midi": 97,
      "hit": false,
      "t": 39623.35781250002,
      "d": 384.61499999999796,
      "v": 107
    },
    {
      "midi": 88,
      "hit": false,
      "t": 39623.35781250002,
      "d": 384.61499999999796,
      "v": 80
    },
    {
      "midi": 59,
      "hit": false,
      "t": 39999.96000000002,
      "d": 384.61499999999796,
      "v": 70
    },
    {
      "midi": 98,
      "hit": false,
      "t": 40007.97281250002,
      "d": 384.61499999999796,
      "v": 107
    },
    {
      "midi": 95,
      "hit": false,
      "t": 40007.97281250002,
      "d": 384.61499999999796,
      "v": 80
    },
    {
      "midi": 90,
      "hit": false,
      "t": 40007.97281250002,
      "d": 384.61499999999796,
      "v": 80
    },
    {
      "midi": 83,
      "hit": false,
      "t": 40392.587812500016,
      "d": 384.61499999999796,
      "v": 80
    },
    {
      "midi": 74,
      "hit": false,
      "t": 40769.19000000002,
      "d": 384.61499999999796,
      "v": 80
    },
    {
      "midi": 98,
      "hit": false,
      "t": 40777.202812500014,
      "d": 384.61499999999796,
      "v": 80
    },
    {
      "midi": 102,
      "hit": false,
      "t": 40785.21562500001,
      "d": 384.61499999999796,
      "v": 107
    },
    {
      "midi": 71,
      "hit": false,
      "t": 41153.805000000015,
      "d": 384.61499999999796,
      "v": 80
    },
    {
      "midi": 70,
      "hit": false,
      "t": 41538.42000000001,
      "d": 384.61499999999796,
      "v": 80
    },
    {
      "midi": 66,
      "hit": false,
      "t": 41538.42000000001,
      "d": 384.61499999999796,
      "v": 70
    },
    {
      "midi": 97,
      "hit": false,
      "t": 41546.43281250001,
      "d": 384.61499999999796,
      "v": 107
    },
    {
      "midi": 94,
      "hit": false,
      "t": 41546.43281250001,
      "d": 384.61499999999796,
      "v": 80
    },
    {
      "midi": 76,
      "hit": false,
      "t": 41923.03500000001,
      "d": 384.61499999999796,
      "v": 80
    },
    {
      "midi": 97,
      "hit": false,
      "t": 42315.662812500006,
      "d": 384.61499999999796,
      "v": 80
    },
    {
      "midi": 82,
      "hit": false,
      "t": 42315.662812500006,
      "d": 384.61499999999796,
      "v": 80
    },
    {
      "midi": 102,
      "hit": false,
      "t": 42323.675625,
      "d": 384.61499999999796,
      "v": 107
    },
    {
      "midi": 78,
      "hit": false,
      "t": 42692.26500000001,
      "d": 384.61499999999796,
      "v": 80
    },
    {
      "midi": 95,
      "hit": false,
      "t": 42700.277812500004,
      "d": 769.2299999999959,
      "v": 107
    },
    {
      "midi": 74,
      "hit": false,
      "t": 43076.880000000005,
      "d": 384.61499999999796,
      "v": 80
    },
    {
      "midi": 59,
      "hit": false,
      "t": 43076.880000000005,
      "d": 384.61499999999796,
      "v": 70
    },
    {
      "midi": 76,
      "hit": false,
      "t": 43461.495,
      "d": 384.61499999999796,
      "v": 80
    },
    {
      "midi": 78,
      "hit": false,
      "t": 43846.11,
      "d": 384.61499999999796,
      "v": 80
    },
    {
      "midi": 86,
      "hit": false,
      "t": 44238.737812499996,
      "d": 384.61499999999796,
      "v": 80
    },
    {
      "midi": 85,
      "hit": false,
      "t": 44623.352812499994,
      "d": 384.61499999999796,
      "v": 80
    },
    {
      "midi": 83,
      "hit": false,
      "t": 45007.96781249999,
      "d": 384.61499999999796,
      "v": 80
    },
    {
      "midi": 64,
      "hit": false,
      "t": 45384.56999999999,
      "d": 384.61499999999796,
      "v": 70
    },
    {
      "midi": 97,
      "hit": false,
      "t": 45392.58281249999,
      "d": 384.61499999999796,
      "v": 107
    },
    {
      "midi": 81,
      "hit": false,
      "t": 45392.58281249999,
      "d": 384.61499999999796,
      "v": 80
    },
    {
      "midi": 98,
      "hit": false,
      "t": 45777.19781249999,
      "d": 384.61499999999796,
      "v": 107
    },
    {
      "midi": 80,
      "hit": false,
      "t": 45777.19781249999,
      "d": 384.61499999999796,
      "v": 80
    },
    {
      "midi": 76,
      "hit": false,
      "t": 46153.79999999999,
      "d": 384.61499999999796,
      "v": 80
    },
    {
      "midi": 61,
      "hit": false,
      "t": 46153.79999999999,
      "d": 384.61499999999796,
      "v": 70
    },
    {
      "midi": 93,
      "hit": false,
      "t": 46161.812812499986,
      "d": 384.61499999999796,
      "v": 80
    },
    {
      "midi": 97,
      "hit": false,
      "t": 46225.91531249999,
      "d": 384.61499999999796,
      "v": 80
    },
    {
      "midi": 100,
      "hit": false,
      "t": 46298.030624999985,
      "d": 384.61499999999796,
      "v": 107
    },
    {
      "midi": 69,
      "hit": false,
      "t": 46538.414999999986,
      "d": 384.61499999999796,
      "v": 80
    },
    {
      "midi": 71,
      "hit": false,
      "t": 46923.029999999984,
      "d": 384.61499999999796,
      "v": 80
    },
    {
      "midi": 93,
      "hit": false,
      "t": 46931.04281249998,
      "d": 384.61499999999796,
      "v": 107
    },
    {
      "midi": 73,
      "hit": false,
      "t": 47307.64499999998,
      "d": 384.61499999999796,
      "v": 80
    },
    {
      "midi": 93,
      "hit": false,
      "t": 47315.65781249998,
      "d": 384.61499999999796,
      "v": 107
    },
    {
      "midi": 76,
      "hit": false,
      "t": 47692.25999999998,
      "d": 384.61499999999796,
      "v": 80
    },
    {
      "midi": 81,
      "hit": false,
      "t": 48084.887812499976,
      "d": 384.61499999999796,
      "v": 80
    },
    {
      "midi": 83,
      "hit": false,
      "t": 48469.50281249997,
      "d": 384.61499999999796,
      "v": 80
    },
    {
      "midi": 93,
      "hit": false,
      "t": 48854.11781249997,
      "d": 384.61499999999796,
      "v": 107
    },
    {
      "midi": 85,
      "hit": false,
      "t": 48854.11781249997,
      "d": 384.61499999999796,
      "v": 80
    },
    {
      "midi": 78,
      "hit": false,
      "t": 49230.71999999997,
      "d": 384.61499999999796,
      "v": 80
    },
    {
      "midi": 62,
      "hit": false,
      "t": 49230.71999999997,
      "d": 384.61499999999796,
      "v": 70
    },
    {
      "midi": 93,
      "hit": false,
      "t": 49238.73281249997,
      "d": 384.61499999999796,
      "v": 80
    },
    {
      "midi": 98,
      "hit": false,
      "t": 49302.83531249997,
      "d": 384.61499999999796,
      "v": 80
    },
    {
      "midi": 102,
      "hit": false,
      "t": 49374.95062499997,
      "d": 384.61499999999796,
      "v": 107
    },
    {
      "midi": 69,
      "hit": false,
      "t": 49615.33499999997,
      "d": 384.61499999999796,
      "v": 80
    },
    {
      "midi": 74,
      "hit": false,
      "t": 49999.94999999997,
      "d": 384.61499999999796,
      "v": 80
    },
    {
      "midi": 93,
      "hit": false,
      "t": 50007.962812499965,
      "d": 384.61499999999796,
      "v": 107
    },
    {
      "midi": 76,
      "hit": false,
      "t": 50384.564999999966,
      "d": 384.61499999999796,
      "v": 80
    },
    {
      "midi": 93,
      "hit": false,
      "t": 50392.57781249996,
      "d": 384.61499999999796,
      "v": 107
    },
    {
      "midi": 78,
      "hit": false,
      "t": 50769.179999999964,
      "d": 384.61499999999796,
      "v": 80
    },
    {
      "midi": 81,
      "hit": false,
      "t": 51161.80781249996,
      "d": 384.61499999999796,
      "v": 80
    },
    {
      "midi": 86,
      "hit": false,
      "t": 51546.42281249996,
      "d": 384.61499999999796,
      "v": 80
    },
    {
      "midi": 95,
      "hit": false,
      "t": 51931.037812499955,
      "d": 384.61499999999796,
      "v": 107
    },
    {
      "midi": 85,
      "hit": false,
      "t": 51931.037812499955,
      "d": 384.61499999999796,
      "v": 80
    },
    {
      "midi": 59,
      "hit": false,
      "t": 52307.639999999956,
      "d": 384.61499999999796,
      "v": 70
    },
    {
      "midi": 97,
      "hit": false,
      "t": 52315.65281249995,
      "d": 384.61499999999796,
      "v": 107
    },
    {
      "midi": 90,
      "hit": false,
      "t": 52315.65281249995,
      "d": 384.61499999999796,
      "v": 60
    },
    {
      "midi": 83,
      "hit": false,
      "t": 52315.65281249995,
      "d": 384.61499999999796,
      "v": 80
    },
    {
      "midi": 73,
      "hit": false,
      "t": 52692.254999999954,
      "d": 384.61499999999796,
      "v": 80
    },
    {
      "midi": 97,
      "hit": false,
      "t": 52700.26781249995,
      "d": 384.61499999999796,
      "v": 107
    },
    {
      "midi": 78,
      "hit": false,
      "t": 53076.86999999995,
      "d": 384.61499999999796,
      "v": 80
    },
    {
      "midi": 97,
      "hit": false,
      "t": 53084.88281249995,
      "d": 384.61499999999796,
      "v": 107
    },
    {
      "midi": 93,
      "hit": false,
      "t": 53469.49781249995,
      "d": 384.61499999999796,
      "v": 107
    },
    {
      "midi": 81,
      "hit": false,
      "t": 53469.49781249995,
      "d": 384.61499999999796,
      "v": 80
    },
    {
      "midi": 64,
      "hit": false,
      "t": 53846.09999999995,
      "d": 384.61499999999796,
      "v": 80
    },
    {
      "midi": 90,
      "hit": false,
      "t": 53854.112812499945,
      "d": 384.61499999999796,
      "v": 107
    },
    {
      "midi": 86,
      "hit": false,
      "t": 53854.112812499945,
      "d": 384.61499999999796,
      "v": 80
    },
    {
      "midi": 85,
      "hit": false,
      "t": 54238.72781249994,
      "d": 384.61499999999796,
      "v": 80
    },
    {
      "midi": 92,
      "hit": false,
      "t": 54623.34281249994,
      "d": 384.61499999999796,
      "v": 107
    },
    {
      "midi": 83,
      "hit": false,
      "t": 54623.34281249994,
      "d": 384.61499999999796,
      "v": 80
    },
    {
      "midi": 86,
      "hit": false,
      "t": 55007.95781249994,
      "d": 384.61499999999796,
      "v": 80
    },
    {
      "midi": 93,
      "hit": false,
      "t": 55007.95781249994,
      "d": 769.2299999999959,
      "v": 107
    },
    {
      "midi": 57,
      "hit": false,
      "t": 55384.55999999994,
      "d": 384.61499999999796,
      "v": 70
    },
    {
      "midi": 85,
      "hit": false,
      "t": 55392.57281249994,
      "d": 384.61499999999796,
      "v": 80
    },
    {
      "midi": 83,
      "hit": false,
      "t": 55777.187812499935,
      "d": 384.61499999999796,
      "v": 80
    },
    {
      "midi": 81,
      "hit": false,
      "t": 56161.80281249993,
      "d": 384.61499999999796,
      "v": 80
    },
    {
      "midi": 76,
      "hit": false,
      "t": 56538.40499999993,
      "d": 384.61499999999796,
      "v": 80
    },
    {
      "midi": 73,
      "hit": false,
      "t": 56923.01999999993,
      "d": 384.61499999999796,
      "v": 80
    },
    {
      "midi": 79,
      "hit": false,
      "t": 57307.63499999993,
      "d": 384.61499999999796,
      "v": 80
    },
    {
      "midi": 93,
      "hit": false,
      "t": 57700.262812499925,
      "d": 384.61499999999796,
      "v": 107
    },
    {
      "midi": 85,
      "hit": false,
      "t": 57700.262812499925,
      "d": 384.61499999999796,
      "v": 80
    },
    {
      "midi": 88,
      "hit": false,
      "t": 58084.87781249992,
      "d": 384.61499999999796,
      "v": 80
    },
    {
      "midi": 79,
      "hit": false,
      "t": 58461.47999999992,
      "d": 384.61499999999796,
      "v": 70
    },
    {
      "midi": 57,
      "hit": false,
      "t": 58461.47999999992,
      "d": 384.61499999999796,
      "v": 70
    },
    {
      "midi": 91,
      "hit": false,
      "t": 58469.49281249992,
      "d": 384.61499999999796,
      "v": 107
    },
    {
      "midi": 81,
      "hit": false,
      "t": 58517.56968749992,
      "d": 384.61499999999796,
      "v": 70
    },
    {
      "midi": 85,
      "hit": false,
      "t": 58565.64656249992,
      "d": 384.61499999999796,
      "v": 80
    },
    {
      "midi": 83,
      "hit": false,
      "t": 58854.10781249992,
      "d": 384.61499999999796,
      "v": 80
    },
    {
      "midi": 93,
      "hit": false,
      "t": 59238.72281249992,
      "d": 384.61499999999796,
      "v": 107
    },
    {
      "midi": 81,
      "hit": false,
      "t": 59238.72281249992,
      "d": 384.61499999999796,
      "v": 80
    },
    {
      "midi": 76,
      "hit": false,
      "t": 59615.32499999992,
      "d": 384.61499999999796,
      "v": 80
    },
    {
      "midi": 57,
      "hit": false,
      "t": 59615.32499999992,
      "d": 384.61499999999796,
      "v": 70
    },
    {
      "midi": 95,
      "hit": false,
      "t": 59623.337812499914,
      "d": 384.61499999999796,
      "v": 107
    },
    {
      "midi": 73,
      "hit": false,
      "t": 59999.939999999915,
      "d": 384.61499999999796,
      "v": 80
    },
    {
      "midi": 76,
      "hit": false,
      "t": 60384.55499999991,
      "d": 384.61499999999796,
      "v": 80
    },
    {
      "midi": 97,
      "hit": false,
      "t": 60392.56781249991,
      "d": 384.61499999999796,
      "v": 107
    },
    {
      "midi": 69,
      "hit": false,
      "t": 60769.16999999991,
      "d": 384.61499999999796,
      "v": 80
    },
    {
      "midi": 73,
      "hit": false,
      "t": 61153.78499999991,
      "d": 384.61500000000524,
      "v": 80
    },
    {
      "midi": 102,
      "hit": false,
      "t": 61169.81062499991,
      "d": 769.2299999999959,
      "v": 107
    },
    {
      "midi": 73,
      "hit": false,
      "t": 61538.399999999914,
      "d": 384.61499999999796,
      "v": 70
    },
    {
      "midi": 57,
      "hit": false,
      "t": 61538.399999999914,
      "d": 384.61499999999796,
      "v": 70
    },
    {
      "midi": 76,
      "hit": false,
      "t": 61586.47687499991,
      "d": 384.6149999999907,
      "v": 70
    },
    {
      "midi": 79,
      "hit": false,
      "t": 61634.55374999991,
      "d": 384.6149999999907,
      "v": 80
    },
    {
      "midi": 81,
      "hit": false,
      "t": 61931.02781249991,
      "d": 384.6149999999907,
      "v": 80
    },
    {
      "midi": 83,
      "hit": false,
      "t": 62315.6428124999,
      "d": 384.61499999999796,
      "v": 80
    },
    {
      "midi": 57,
      "hit": false,
      "t": 62692.2449999999,
      "d": 384.61499999999796,
      "v": 70
    },
    {
      "midi": 86,
      "hit": false,
      "t": 62700.2578124999,
      "d": 384.61499999999796,
      "v": 80
    },
    {
      "midi": 85,
      "hit": false,
      "t": 63084.872812499896,
      "d": 384.61499999999796,
      "v": 80
    },
    {
      "midi": 83,
      "hit": false,
      "t": 63469.487812499894,
      "d": 384.61499999999796,
      "v": 80
    },
    {
      "midi": 81,
      "hit": false,
      "t": 63854.10281249989,
      "d": 384.61499999999796,
      "v": 80
    },
    {
      "midi": 100,
      "hit": false,
      "t": 63862.11562499989,
      "d": 384.61499999999796,
      "v": 107
    },
    {
      "midi": 76,
      "hit": false,
      "t": 64230.70499999989,
      "d": 384.61499999999796,
      "v": 80
    },
    {
      "midi": 97,
      "hit": false,
      "t": 64238.71781249989,
      "d": 384.61499999999796,
      "v": 107
    },
    {
      "midi": 74,
      "hit": false,
      "t": 64615.31999999989,
      "d": 384.61499999999796,
      "v": 80
    },
    {
      "midi": 62,
      "hit": false,
      "t": 64615.31999999989,
      "d": 384.61499999999796,
      "v": 70
    },
    {
      "midi": 93,
      "hit": false,
      "t": 64623.33281249989,
      "d": 384.61499999999796,
      "v": 107
    },
    {
      "midi": 90,
      "hit": false,
      "t": 64623.33281249989,
      "d": 384.61499999999796,
      "v": 70
    },
    {
      "midi": 78,
      "hit": false,
      "t": 64999.93499999989,
      "d": 384.61499999999796,
      "v": 80
    },
    {
      "midi": 93,
      "hit": false,
      "t": 65007.947812499886,
      "d": 384.61499999999796,
      "v": 107
    },
    {
      "midi": 90,
      "hit": false,
      "t": 65007.947812499886,
      "d": 384.61499999999796,
      "v": 70
    },
    {
      "midi": 81,
      "hit": false,
      "t": 65392.562812499884,
      "d": 384.61499999999796,
      "v": 80
    },
    {
      "midi": 62,
      "hit": false,
      "t": 65769.16499999988,
      "d": 384.61500000000524,
      "v": 70
    },
    {
      "midi": 95,
      "hit": false,
      "t": 65777.17781249988,
      "d": 384.61500000000524,
      "v": 107
    },
    {
      "midi": 90,
      "hit": false,
      "t": 65777.17781249988,
      "d": 384.61500000000524,
      "v": 80
    },
    {
      "midi": 88,
      "hit": false,
      "t": 66161.79281249989,
      "d": 384.61500000000524,
      "v": 80
    },
    {
      "midi": 86,
      "hit": false,
      "t": 66546.40781249989,
      "d": 384.61500000000524,
      "v": 80
    },
    {
      "midi": 81,
      "hit": false,
      "t": 66931.0228124999,
      "d": 384.61500000000524,
      "v": 80
    },
    {
      "midi": 78,
      "hit": false,
      "t": 67307.6249999999,
      "d": 384.61500000000524,
      "v": 80
    },
    {
      "midi": 74,
      "hit": false,
      "t": 67692.2399999999,
      "d": 384.61500000000524,
      "v": 80
    },
    {
      "midi": 62,
      "hit": false,
      "t": 67692.2399999999,
      "d": 384.61500000000524,
      "v": 70
    },
    {
      "midi": 97,
      "hit": false,
      "t": 67700.25281249991,
      "d": 384.61500000000524,
      "v": 107
    },
    {
      "midi": 90,
      "hit": false,
      "t": 67700.25281249991,
      "d": 384.61500000000524,
      "v": 70
    },
    {
      "midi": 78,
      "hit": false,
      "t": 68076.85499999991,
      "d": 384.61500000000524,
      "v": 80
    },
    {
      "midi": 97,
      "hit": false,
      "t": 68084.86781249991,
      "d": 384.61500000000524,
      "v": 107
    },
    {
      "midi": 90,
      "hit": false,
      "t": 68084.86781249991,
      "d": 384.61500000000524,
      "v": 70
    },
    {
      "midi": 81,
      "hit": false,
      "t": 68469.48281249992,
      "d": 384.61500000000524,
      "v": 80
    },
    {
      "midi": 62,
      "hit": false,
      "t": 68846.08499999992,
      "d": 384.61500000000524,
      "v": 70
    },
    {
      "midi": 95,
      "hit": false,
      "t": 68854.09781249992,
      "d": 384.61500000000524,
      "v": 107
    },
    {
      "midi": 90,
      "hit": false,
      "t": 68854.09781249992,
      "d": 384.61500000000524,
      "v": 80
    },
    {
      "midi": 88,
      "hit": false,
      "t": 69238.71281249993,
      "d": 384.61500000000524,
      "v": 80
    },
    {
      "midi": 86,
      "hit": false,
      "t": 69623.32781249993,
      "d": 384.61500000000524,
      "v": 80
    },
    {
      "midi": 81,
      "hit": false,
      "t": 70007.94281249994,
      "d": 384.61500000000524,
      "v": 80
    },
    {
      "midi": 78,
      "hit": false,
      "t": 70384.54499999994,
      "d": 384.61500000000524,
      "v": 80
    },
    {
      "midi": 93,
      "hit": false,
      "t": 70392.55781249994,
      "d": 384.61500000000524,
      "v": 107
    },
    {
      "midi": 75,
      "hit": false,
      "t": 70769.15999999995,
      "d": 384.61500000000524,
      "v": 80
    },
    {
      "midi": 59,
      "hit": false,
      "t": 70769.15999999995,
      "d": 384.61500000000524,
      "v": 70
    },
    {
      "midi": 95,
      "hit": false,
      "t": 70777.17281249995,
      "d": 384.61500000000524,
      "v": 107
    },
    {
      "midi": 90,
      "hit": false,
      "t": 70777.17281249995,
      "d": 384.61500000000524,
      "v": 70
    },
    {
      "midi": 78,
      "hit": false,
      "t": 71153.77499999995,
      "d": 384.61500000000524,
      "v": 80
    },
    {
      "midi": 97,
      "hit": false,
      "t": 71546.40281249996,
      "d": 384.61500000000524,
      "v": 107
    },
    {
      "midi": 81,
      "hit": false,
      "t": 71546.40281249996,
      "d": 384.61500000000524,
      "v": 80
    },
    {
      "midi": 59,
      "hit": false,
      "t": 71923.00499999996,
      "d": 384.61500000000524,
      "v": 70
    },
    {
      "midi": 99,
      "hit": false,
      "t": 71931.01781249997,
      "d": 384.61500000000524,
      "v": 107
    },
    {
      "midi": 95,
      "hit": false,
      "t": 71931.01781249997,
      "d": 384.61500000000524,
      "v": 70
    },
    {
      "midi": 83,
      "hit": false,
      "t": 71931.01781249997,
      "d": 384.61500000000524,
      "v": 80
    },
    {
      "midi": 87,
      "hit": false,
      "t": 72315.63281249997,
      "d": 384.61500000000524,
      "v": 80
    },
    {
      "midi": 99,
      "hit": false,
      "t": 72700.24781249998,
      "d": 384.61500000000524,
      "v": 70
    },
    {
      "midi": 90,
      "hit": false,
      "t": 72700.24781249998,
      "d": 384.61500000000524,
      "v": 80
    },
    {
      "midi": 102,
      "hit": false,
      "t": 72708.26062499998,
      "d": 384.61500000000524,
      "v": 107
    },
    {
      "midi": 75,
      "hit": false,
      "t": 73076.84999999998,
      "d": 384.61500000000524,
      "v": 80
    },
    {
      "midi": 78,
      "hit": false,
      "t": 73461.46499999998,
      "d": 384.61500000000524,
      "v": 80
    },
    {
      "midi": 99,
      "hit": false,
      "t": 73469.47781249999,
      "d": 769.2300000000105,
      "v": 80
    },
    {
      "midi": 104,
      "hit": false,
      "t": 73477.49062499999,
      "d": 769.2300000000105,
      "v": 107
    },
    {
      "midi": 75,
      "hit": false,
      "t": 73846.07999999999,
      "d": 384.61500000000524,
      "v": 80
    },
    {
      "midi": 59,
      "hit": false,
      "t": 73846.07999999999,
      "d": 384.61500000000524,
      "v": 70
    },
    {
      "midi": 78,
      "hit": false,
      "t": 74230.69499999999,
      "d": 384.61500000000524,
      "v": 80
    },
    {
      "midi": 99,
      "hit": false,
      "t": 74623.3228125,
      "d": 384.61500000000524,
      "v": 80
    },
    {
      "midi": 83,
      "hit": false,
      "t": 74623.3228125,
      "d": 384.61500000000524,
      "v": 80
    },
    {
      "midi": 102,
      "hit": false,
      "t": 74631.335625,
      "d": 384.61500000000524,
      "v": 107
    },
    {
      "midi": 59,
      "hit": false,
      "t": 74999.925,
      "d": 384.61500000000524,
      "v": 70
    },
    {
      "midi": 87,
      "hit": false,
      "t": 75007.93781250001,
      "d": 384.61500000000524,
      "v": 80
    },
    {
      "midi": 97,
      "hit": false,
      "t": 75392.55281250001,
      "d": 384.61500000000524,
      "v": 80
    },
    {
      "midi": 85,
      "hit": false,
      "t": 75392.55281250001,
      "d": 384.61500000000524,
      "v": 80
    },
    {
      "midi": 100,
      "hit": false,
      "t": 75400.56562500002,
      "d": 384.61500000000524,
      "v": 107
    },
    {
      "midi": 83,
      "hit": false,
      "t": 75777.16781250002,
      "d": 384.61500000000524,
      "v": 80
    },
    {
      "midi": 99,
      "hit": false,
      "t": 76161.78281250002,
      "d": 384.61500000000524,
      "v": 107
    },
    {
      "midi": 95,
      "hit": false,
      "t": 76161.78281250002,
      "d": 384.61500000000524,
      "v": 80
    },
    {
      "midi": 81,
      "hit": false,
      "t": 76161.78281250002,
      "d": 384.61500000000524,
      "v": 80
    },
    {
      "midi": 83,
      "hit": false,
      "t": 76546.39781250003,
      "d": 384.61500000000524,
      "v": 80
    },
    {
      "midi": 64,
      "hit": false,
      "t": 76923.00000000003,
      "d": 384.61500000000524,
      "v": 70
    },
    {
      "midi": 86,
      "hit": false,
      "t": 76931.01281250003,
      "d": 384.61500000000524,
      "v": 80
    },
    {
      "midi": 102,
      "hit": false,
      "t": 76939.02562500004,
      "d": 384.61500000000524,
      "v": 107
    },
    {
      "midi": 83,
      "hit": false,
      "t": 77315.62781250004,
      "d": 384.61500000000524,
      "v": 80
    },
    {
      "midi": 76,
      "hit": false,
      "t": 77692.23000000004,
      "d": 384.61500000000524,
      "v": 80
    },
    {
      "midi": 64,
      "hit": false,
      "t": 78076.84500000004,
      "d": 384.61500000000524,
      "v": 70
    },
    {
      "midi": 83,
      "hit": false,
      "t": 78084.85781250005,
      "d": 384.61500000000524,
      "v": 80
    },
    {
      "midi": 100,
      "hit": false,
      "t": 78092.87062500005,
      "d": 384.61500000000524,
      "v": 107
    },
    {
      "midi": 82,
      "hit": false,
      "t": 78854.08781250006,
      "d": 384.61500000000524,
      "v": 80
    },
    {
      "midi": 83,
      "hit": false,
      "t": 79238.70281250007,
      "d": 384.61500000000524,
      "v": 80
    },
    {
      "midi": 85,
      "hit": false,
      "t": 79623.31781250007,
      "d": 384.61500000000524,
      "v": 80
    },
    {
      "midi": 64,
      "hit": false,
      "t": 79999.92000000007,
      "d": 384.61500000000524,
      "v": 70
    },
    {
      "midi": 86,
      "hit": false,
      "t": 80007.93281250008,
      "d": 384.61500000000524,
      "v": 80
    },
    {
      "midi": 85,
      "hit": false,
      "t": 80392.54781250008,
      "d": 384.61500000000524,
      "v": 80
    },
    {
      "midi": 83,
      "hit": false,
      "t": 80777.16281250009,
      "d": 384.61500000000524,
      "v": 80
    },
    {
      "midi": 81,
      "hit": false,
      "t": 81161.77781250009,
      "d": 384.61500000000524,
      "v": 80
    },
    {
      "midi": 64,
      "hit": false,
      "t": 81538.38000000009,
      "d": 384.61500000000524,
      "v": 70
    },
    {
      "midi": 80,
      "hit": false,
      "t": 81546.3928125001,
      "d": 384.61500000000524,
      "v": 80
    },
    {
      "midi": 66,
      "hit": false,
      "t": 81922.9950000001,
      "d": 384.61500000000524,
      "v": 70
    },
    {
      "midi": 81,
      "hit": false,
      "t": 81931.0078125001,
      "d": 384.61500000000524,
      "v": 80
    },
    {
      "midi": 68,
      "hit": false,
      "t": 82307.6100000001,
      "d": 384.61500000000524,
      "v": 70
    },
    {
      "midi": 83,
      "hit": false,
      "t": 82315.6228125001,
      "d": 384.61500000000524,
      "v": 80
    },
    {
      "midi": 71,
      "hit": false,
      "t": 82692.22500000011,
      "d": 384.61500000000524,
      "v": 70
    },
    {
      "midi": 86,
      "hit": false,
      "t": 82700.23781250011,
      "d": 384.61500000000524,
      "v": 80
    },
    {
      "midi": 69,
      "hit": false,
      "t": 83076.84000000011,
      "d": 384.61500000000524,
      "v": 70
    },
    {
      "midi": 97,
      "hit": false,
      "t": 83084.85281250012,
      "d": 384.61500000000524,
      "v": 70
    },
    {
      "midi": 85,
      "hit": false,
      "t": 83084.85281250012,
      "d": 384.61500000000524,
      "v": 80
    },
    {
      "midi": 100,
      "hit": false,
      "t": 83092.86562500012,
      "d": 384.61500000000524,
      "v": 107
    },
    {
      "midi": 69,
      "hit": false,
      "t": 84230.68500000013,
      "d": 384.61500000000524,
      "v": 70
    },
    {
      "midi": 93,
      "hit": false,
      "t": 84238.69781250013,
      "d": 384.61500000000524,
      "v": 107
    },
    {
      "midi": 88,
      "hit": false,
      "t": 84238.69781250013,
      "d": 384.61500000000524,
      "v": 70
    },
    {
      "midi": 85,
      "hit": false,
      "t": 84238.69781250013,
      "d": 384.61500000000524,
      "v": 80
    },
    {
      "midi": 71,
      "hit": false,
      "t": 84615.30000000013,
      "d": 384.61500000000524,
      "v": 70
    },
    {
      "midi": 95,
      "hit": false,
      "t": 84623.31281250014,
      "d": 384.61500000000524,
      "v": 107
    },
    {
      "midi": 90,
      "hit": false,
      "t": 84623.31281250014,
      "d": 384.61500000000524,
      "v": 70
    },
    {
      "midi": 86,
      "hit": false,
      "t": 84623.31281250014,
      "d": 384.61500000000524,
      "v": 80
    },
    {
      "midi": 71,
      "hit": false,
      "t": 84999.91500000014,
      "d": 384.61500000000524,
      "v": 70
    },
    {
      "midi": 92,
      "hit": false,
      "t": 85007.92781250014,
      "d": 384.61500000000524,
      "v": 70
    },
    {
      "midi": 86,
      "hit": false,
      "t": 85007.92781250014,
      "d": 384.61500000000524,
      "v": 80
    },
    {
      "midi": 102,
      "hit": false,
      "t": 85015.94062500015,
      "d": 384.61500000000524,
      "v": 107
    },
    {
      "midi": 73,
      "hit": false,
      "t": 85769.14500000015,
      "d": 769.2300000000105,
      "v": 70
    },
    {
      "midi": 93,
      "hit": false,
      "t": 85777.15781250015,
      "d": 769.2300000000105,
      "v": 70
    },
    {
      "midi": 88,
      "hit": false,
      "t": 85777.15781250015,
      "d": 769.2300000000105,
      "v": 80
    },
    {
      "midi": 100,
      "hit": false,
      "t": 85785.17062500016,
      "d": 769.2300000000105,
      "v": 107
    },
    {
      "midi": 76,
      "hit": false,
      "t": 86538.37500000016,
      "d": 384.61500000000524,
      "v": 80
    },
    {
      "midi": 81,
      "hit": false,
      "t": 86931.00281250017,
      "d": 384.61500000000524,
      "v": 80
    },
    {
      "midi": 83,
      "hit": false,
      "t": 87315.61781250018,
      "d": 384.61500000000524,
      "v": 80
    },
    {
      "midi": 69,
      "hit": false,
      "t": 87692.22000000018,
      "d": 384.61500000000524,
      "v": 70
    },
    {
      "midi": 85,
      "hit": false,
      "t": 87700.23281250018,
      "d": 384.61500000000524,
      "v": 80
    },
    {
      "midi": 88,
      "hit": false,
      "t": 88084.84781250019,
      "d": 384.61500000000524,
      "v": 80
    },
    {
      "midi": 93,
      "hit": false,
      "t": 88469.46281250019,
      "d": 384.61500000000524,
      "v": 80
    },
    {
      "midi": 88,
      "hit": false,
      "t": 88854.0778125002,
      "d": 384.61500000000524,
      "v": 80
    },
    {
      "midi": 71,
      "hit": false,
      "t": 89230.6800000002,
      "d": 384.61500000000524,
      "v": 80
    },
    {
      "midi": 62,
      "hit": false,
      "t": 89230.6800000002,
      "d": 384.61500000000524,
      "v": 70
    },
    {
      "midi": 102,
      "hit": false,
      "t": 89246.7056250002,
      "d": 384.61500000000524,
      "v": 107
    },
    {
      "midi": 74,
      "hit": false,
      "t": 89615.2950000002,
      "d": 384.61500000000524,
      "v": 80
    },
    {
      "midi": 98,
      "hit": false,
      "t": 89623.3078125002,
      "d": 384.61500000000524,
      "v": 107
    },
    {
      "midi": 78,
      "hit": false,
      "t": 89999.9100000002,
      "d": 384.61500000000524,
      "v": 80
    },
    {
      "midi": 95,
      "hit": false,
      "t": 90007.92281250021,
      "d": 384.61500000000524,
      "v": 107
    },
    {
      "midi": 93,
      "hit": false,
      "t": 90392.53781250022,
      "d": 384.61500000000524,
      "v": 107
    },
    {
      "midi": 83,
      "hit": false,
      "t": 90392.53781250022,
      "d": 384.61500000000524,
      "v": 80
    },
    {
      "midi": 73,
      "hit": false,
      "t": 90769.14000000022,
      "d": 384.61500000000524,
      "v": 80
    },
    {
      "midi": 61,
      "hit": false,
      "t": 90769.14000000022,
      "d": 400.64062500001455,
      "v": 70
    },
    {
      "midi": 92,
      "hit": false,
      "t": 90777.15281250022,
      "d": 384.61500000000524,
      "v": 107
    },
    {
      "midi": 77,
      "hit": false,
      "t": 91153.75500000022,
      "d": 384.61500000000524,
      "v": 80
    },
    {
      "midi": 73,
      "hit": false,
      "t": 91153.75500000022,
      "d": 384.61500000000524,
      "v": 80
    },
    {
      "midi": 77,
      "hit": false,
      "t": 91538.37000000023,
      "d": 384.61500000000524,
      "v": 80
    },
    {
      "midi": 95,
      "hit": false,
      "t": 91546.38281250023,
      "d": 384.61500000000524,
      "v": 107
    },
    {
      "midi": 80,
      "hit": false,
      "t": 91546.38281250023,
      "d": 384.61500000000524,
      "v": 80
    },
    {
      "midi": 83,
      "hit": false,
      "t": 91930.99781250024,
      "d": 384.61500000000524,
      "v": 80
    },
    {
      "midi": 80,
      "hit": false,
      "t": 91930.99781250024,
      "d": 384.61500000000524,
      "v": 80
    },
    {
      "midi": 97,
      "hit": false,
      "t": 91930.99781250024,
      "d": 769.2300000000105,
      "v": 107
    },
    {
      "midi": 66,
      "hit": false,
      "t": 92307.60000000024,
      "d": 384.61500000000524,
      "v": 70
    },
    {
      "midi": 85,
      "hit": false,
      "t": 92700.22781250025,
      "d": 384.61500000000524,
      "v": 80
    },
    {
      "midi": 90,
      "hit": false,
      "t": 93084.84281250025,
      "d": 384.61500000000524,
      "v": 80
    },
    {
      "midi": 92,
      "hit": false,
      "t": 93469.45781250026,
      "d": 384.61500000000524,
      "v": 80
    },
    {
      "midi": 64,
      "hit": false,
      "t": 93846.06000000026,
      "d": 384.61500000000524,
      "v": 70
    },
    {
      "midi": 93,
      "hit": false,
      "t": 93854.07281250026,
      "d": 384.61500000000524,
      "v": 80
    },
    {
      "midi": 92,
      "hit": false,
      "t": 94238.68781250027,
      "d": 384.61500000000524,
      "v": 80
    },
    {
      "midi": 90,
      "hit": false,
      "t": 94623.30281250027,
      "d": 384.61500000000524,
      "v": 80
    },
    {
      "midi": 97,
      "hit": false,
      "t": 95007.91781250028,
      "d": 384.61500000000524,
      "v": 107
    },
    {
      "midi": 59,
      "hit": false,
      "t": 95384.52000000028,
      "d": 384.6149999999907,
      "v": 70
    },
    {
      "midi": 98,
      "hit": false,
      "t": 95392.53281250029,
      "d": 384.6149999999907,
      "v": 107
    },
    {
      "midi": 83,
      "hit": false,
      "t": 95392.53281250029,
      "d": 384.6149999999907,
      "v": 70
    },
    {
      "midi": 86,
      "hit": false,
      "t": 95456.63531250028,
      "d": 384.6149999999907,
      "v": 70
    },
    {
      "midi": 90,
      "hit": false,
      "t": 95520.73781250027,
      "d": 384.6149999999907,
      "v": 80
    },
    {
      "midi": 97,
      "hit": false,
      "t": 95777.14781250028,
      "d": 384.6149999999907,
      "v": 107
    },
    {
      "midi": 88,
      "hit": false,
      "t": 95777.14781250028,
      "d": 384.6149999999907,
      "v": 80
    },
    {
      "midi": 95,
      "hit": false,
      "t": 96161.76281250027,
      "d": 384.61500000000524,
      "v": 107
    },
    {
      "midi": 86,
      "hit": false,
      "t": 96161.76281250027,
      "d": 384.61500000000524,
      "v": 80
    },
    {
      "midi": 93,
      "hit": false,
      "t": 96546.37781250027,
      "d": 384.61500000000524,
      "v": 107
    },
    {
      "midi": 85,
      "hit": false,
      "t": 96546.37781250027,
      "d": 384.61500000000524,
      "v": 80
    },
    {
      "midi": 61,
      "hit": false,
      "t": 96922.98000000027,
      "d": 384.61500000000524,
      "v": 70
    },
    {
      "midi": 92,
      "hit": false,
      "t": 96930.99281250028,
      "d": 384.61500000000524,
      "v": 107
    },
    {
      "midi": 83,
      "hit": false,
      "t": 96930.99281250028,
      "d": 384.61500000000524,
      "v": 80
    },
    {
      "midi": 77,
      "hit": false,
      "t": 97307.59500000028,
      "d": 384.61500000000524,
      "v": 80
    },
    {
      "midi": 78,
      "hit": false,
      "t": 97692.21000000028,
      "d": 384.61500000000524,
      "v": 80
    },
    {
      "midi": 93,
      "hit": false,
      "t": 97700.22281250029,
      "d": 384.61500000000524,
      "v": 107
    },
    {
      "midi": 95,
      "hit": false,
      "t": 98084.8378125003,
      "d": 384.61500000000524,
      "v": 107
    },
    {
      "midi": 80,
      "hit": false,
      "t": 98084.8378125003,
      "d": 384.61500000000524,
      "v": 80
    },
    {
      "midi": 66,
      "hit": false,
      "t": 98461.4400000003,
      "d": 384.61500000000524,
      "v": 70
    },
    {
      "midi": 97,
      "hit": false,
      "t": 98469.4528125003,
      "d": 384.61500000000524,
      "v": 107
    },
    {
      "midi": 81,
      "hit": false,
      "t": 98469.4528125003,
      "d": 384.61500000000524,
      "v": 80
    },
    {
      "midi": 83,
      "hit": false,
      "t": 98854.0678125003,
      "d": 384.61500000000524,
      "v": 80
    },
    {
      "midi": 85,
      "hit": false,
      "t": 99238.68281250031,
      "d": 384.61500000000524,
      "v": 80
    },
    {
      "midi": 64,
      "hit": false,
      "t": 99615.28500000031,
      "d": 384.61500000000524,
      "v": 70
    },
    {
      "midi": 90,
      "hit": false,
      "t": 99623.29781250031,
      "d": 384.61500000000524,
      "v": 107
    },
    {
      "midi": 85,
      "hit": false,
      "t": 99623.29781250031,
      "d": 384.61500000000524,
      "v": 80
    },
    {
      "midi": 85,
      "hit": false,
      "t": 100007.91281250032,
      "d": 384.61500000000524,
      "v": 80
    },
    {
      "midi": 83,
      "hit": false,
      "t": 100392.52781250032,
      "d": 384.61500000000524,
      "v": 80
    },
    {
      "midi": 81,
      "hit": false,
      "t": 100777.14281250033,
      "d": 384.61500000000524,
      "v": 80
    },
    {
      "midi": 76,
      "hit": false,
      "t": 101153.74500000033,
      "d": 384.61500000000524,
      "v": 80
    },
    {
      "midi": 97,
      "hit": false,
      "t": 101161.75781250033,
      "d": 384.61500000000524,
      "v": 107
    },
    {
      "midi": 75,
      "hit": false,
      "t": 101538.36000000034,
      "d": 384.61500000000524,
      "v": 80
    },
    {
      "midi": 59,
      "hit": false,
      "t": 101538.36000000034,
      "d": 384.61500000000524,
      "v": 70
    },
    {
      "midi": 102,
      "hit": false,
      "t": 101554.38562500034,
      "d": 384.6149999999907,
      "v": 107
    },
    {
      "midi": 76,
      "hit": false,
      "t": 101922.97500000034,
      "d": 384.6149999999907,
      "v": 80
    },
    {
      "midi": 102,
      "hit": false,
      "t": 101939.00062500034,
      "d": 384.6149999999907,
      "v": 107
    },
    {
      "midi": 78,
      "hit": false,
      "t": 102307.59000000033,
      "d": 384.6149999999907,
      "v": 80
    },
    {
      "midi": 102,
      "hit": false,
      "t": 102323.61562500033,
      "d": 384.61500000000524,
      "v": 107
    },
    {
      "midi": 83,
      "hit": false,
      "t": 102700.21781250033,
      "d": 384.61500000000524,
      "v": 80
    },
    {
      "midi": 102,
      "hit": false,
      "t": 102708.23062500033,
      "d": 384.61500000000524,
      "v": 107
    },
    {
      "midi": 95,
      "hit": false,
      "t": 103084.83281250033,
      "d": 384.61500000000524,
      "v": 70
    },
    {
      "midi": 90,
      "hit": false,
      "t": 103084.83281250033,
      "d": 384.61500000000524,
      "v": 80
    },
    {
      "midi": 100,
      "hit": false,
      "t": 103092.84562500034,
      "d": 384.61500000000524,
      "v": 107
    },
    {
      "midi": 83,
      "hit": false,
      "t": 103469.44781250034,
      "d": 384.61500000000524,
      "v": 80
    },
    {
      "midi": 78,
      "hit": false,
      "t": 103846.05000000034,
      "d": 384.61500000000524,
      "v": 80
    },
    {
      "midi": 99,
      "hit": false,
      "t": 103854.06281250034,
      "d": 384.61500000000524,
      "v": 107
    },
    {
      "midi": 93,
      "hit": false,
      "t": 103854.06281250034,
      "d": 384.61500000000524,
      "v": 70
    },
    {
      "midi": 83,
      "hit": false,
      "t": 104238.67781250035,
      "d": 384.61500000000524,
      "v": 80
    },
    {
      "midi": 74,
      "hit": false,
      "t": 104615.28000000035,
      "d": 384.61500000000524,
      "v": 80
    },
    {
      "midi": 64,
      "hit": false,
      "t": 104615.28000000035,
      "d": 384.61500000000524,
      "v": 70
    },
    {
      "midi": 100,
      "hit": false,
      "t": 104631.30562500036,
      "d": 384.6149999999907,
      "v": 107
    },
    {
      "midi": 78,
      "hit": false,
      "t": 104999.89500000035,
      "d": 384.6149999999907,
      "v": 80
    },
    {
      "midi": 81,
      "hit": false,
      "t": 105392.52281250035,
      "d": 384.61500000000524,
      "v": 80
    },
    {
      "midi": 86,
      "hit": false,
      "t": 105777.13781250035,
      "d": 384.61500000000524,
      "v": 80
    },
    {
      "midi": 64,
      "hit": false,
      "t": 106153.74000000035,
      "d": 384.61500000000524,
      "v": 70
    },
    {
      "midi": 92,
      "hit": false,
      "t": 106161.75281250036,
      "d": 384.61500000000524,
      "v": 70
    },
    {
      "midi": 83,
      "hit": false,
      "t": 106161.75281250036,
      "d": 384.61500000000524,
      "v": 80
    },
    {
      "midi": 85,
      "hit": false,
      "t": 106546.36781250036,
      "d": 384.61500000000524,
      "v": 80
    },
    {
      "midi": 86,
      "hit": false,
      "t": 106930.98281250037,
      "d": 384.61500000000524,
      "v": 80
    },
    {
      "midi": 83,
      "hit": false,
      "t": 107315.59781250037,
      "d": 384.61500000000524,
      "v": 80
    },
    {
      "midi": 69,
      "hit": false,
      "t": 107692.20000000038,
      "d": 384.61500000000524,
      "v": 70
    },
    {
      "midi": 97,
      "hit": false,
      "t": 107700.21281250038,
      "d": 384.61500000000524,
      "v": 70
    },
    {
      "midi": 85,
      "hit": false,
      "t": 107700.21281250038,
      "d": 384.61500000000524,
      "v": 80
    },
    {
      "midi": 100,
      "hit": false,
      "t": 107708.22562500038,
      "d": 384.61500000000524,
      "v": 107
    },
    {
      "midi": 69,
      "hit": false,
      "t": 108846.04500000039,
      "d": 384.61500000000524,
      "v": 70
    },
    {
      "midi": 93,
      "hit": false,
      "t": 108854.0578125004,
      "d": 384.61500000000524,
      "v": 107
    },
    {
      "midi": 88,
      "hit": false,
      "t": 108854.0578125004,
      "d": 384.61500000000524,
      "v": 70
    },
    {
      "midi": 85,
      "hit": false,
      "t": 108854.0578125004,
      "d": 384.61500000000524,
      "v": 80
    },
    {
      "midi": 71,
      "hit": false,
      "t": 109230.6600000004,
      "d": 384.61500000000524,
      "v": 70
    },
    {
      "midi": 95,
      "hit": false,
      "t": 109238.6728125004,
      "d": 384.61500000000524,
      "v": 107
    },
    {
      "midi": 90,
      "hit": false,
      "t": 109238.6728125004,
      "d": 384.61500000000524,
      "v": 70
    },
    {
      "midi": 86,
      "hit": false,
      "t": 109238.6728125004,
      "d": 384.61500000000524,
      "v": 80
    },
    {
      "midi": 71,
      "hit": false,
      "t": 109615.2750000004,
      "d": 384.61500000000524,
      "v": 70
    },
    {
      "midi": 92,
      "hit": false,
      "t": 109623.2878125004,
      "d": 384.61500000000524,
      "v": 70
    },
    {
      "midi": 86,
      "hit": false,
      "t": 109623.2878125004,
      "d": 384.61500000000524,
      "v": 80
    },
    {
      "midi": 102,
      "hit": false,
      "t": 109631.30062500041,
      "d": 384.61500000000524,
      "v": 107
    },
    {
      "midi": 73,
      "hit": false,
      "t": 110384.50500000041,
      "d": 769.2300000000105,
      "v": 70
    },
    {
      "midi": 93,
      "hit": false,
      "t": 110392.51781250042,
      "d": 769.2300000000105,
      "v": 70
    },
    {
      "midi": 88,
      "hit": false,
      "t": 110392.51781250042,
      "d": 769.2300000000105,
      "v": 80
    },
    {
      "midi": 100,
      "hit": false,
      "t": 110400.53062500042,
      "d": 769.2300000000105,
      "v": 107
    },
    {
      "midi": 76,
      "hit": false,
      "t": 111153.73500000042,
      "d": 384.61500000000524,
      "v": 80
    },
    {
      "midi": 81,
      "hit": false,
      "t": 111546.36281250043,
      "d": 384.61500000000524,
      "v": 80
    },
    {
      "midi": 83,
      "hit": false,
      "t": 111930.97781250044,
      "d": 384.61500000000524,
      "v": 80
    },
    {
      "midi": 69,
      "hit": false,
      "t": 112307.58000000044,
      "d": 384.61500000000524,
      "v": 70
    },
    {
      "midi": 85,
      "hit": false,
      "t": 112315.59281250044,
      "d": 384.61500000000524,
      "v": 80
    },
    {
      "midi": 88,
      "hit": false,
      "t": 112700.20781250045,
      "d": 384.61500000000524,
      "v": 80
    },
    {
      "midi": 93,
      "hit": false,
      "t": 113084.82281250045,
      "d": 384.61500000000524,
      "v": 80
    },
    {
      "midi": 88,
      "hit": false,
      "t": 113469.43781250046,
      "d": 384.61500000000524,
      "v": 80
    },
    {
      "midi": 71,
      "hit": false,
      "t": 113846.04000000046,
      "d": 384.61500000000524,
      "v": 80
    },
    {
      "midi": 62,
      "hit": false,
      "t": 113846.04000000046,
      "d": 384.61500000000524,
      "v": 70
    },
    {
      "midi": 102,
      "hit": false,
      "t": 113862.06562500047,
      "d": 384.61500000000524,
      "v": 107
    },
    {
      "midi": 74,
      "hit": false,
      "t": 114230.65500000046,
      "d": 384.61500000000524,
      "v": 80
    },
    {
      "midi": 98,
      "hit": false,
      "t": 114238.66781250047,
      "d": 384.61500000000524,
      "v": 107
    },
    {
      "midi": 78,
      "hit": false,
      "t": 114615.27000000047,
      "d": 384.61500000000524,
      "v": 80
    },
    {
      "midi": 95,
      "hit": false,
      "t": 114623.28281250047,
      "d": 384.61500000000524,
      "v": 107
    },
    {
      "midi": 93,
      "hit": false,
      "t": 115007.89781250048,
      "d": 384.61500000000524,
      "v": 107
    },
    {
      "midi": 83,
      "hit": false,
      "t": 115007.89781250048,
      "d": 384.61500000000524,
      "v": 80
    },
    {
      "midi": 73,
      "hit": false,
      "t": 115384.50000000048,
      "d": 384.61500000000524,
      "v": 80
    },
    {
      "midi": 61,
      "hit": false,
      "t": 115384.50000000048,
      "d": 400.64062500001455,
      "v": 70
    },
    {
      "midi": 92,
      "hit": false,
      "t": 115392.51281250048,
      "d": 384.61500000000524,
      "v": 107
    },
    {
      "midi": 77,
      "hit": false,
      "t": 115769.11500000049,
      "d": 384.61500000000524,
      "v": 80
    },
    {
      "midi": 73,
      "hit": false,
      "t": 115769.11500000049,
      "d": 384.61500000000524,
      "v": 80
    },
    {
      "midi": 77,
      "hit": false,
      "t": 116153.73000000049,
      "d": 384.61500000000524,
      "v": 80
    },
    {
      "midi": 95,
      "hit": false,
      "t": 116161.7428125005,
      "d": 384.61500000000524,
      "v": 107
    },
    {
      "midi": 80,
      "hit": false,
      "t": 116161.7428125005,
      "d": 384.61500000000524,
      "v": 80
    },
    {
      "midi": 83,
      "hit": false,
      "t": 116546.3578125005,
      "d": 384.61500000000524,
      "v": 80
    },
    {
      "midi": 80,
      "hit": false,
      "t": 116546.3578125005,
      "d": 384.61500000000524,
      "v": 80
    },
    {
      "midi": 97,
      "hit": false,
      "t": 116546.3578125005,
      "d": 769.2300000000105,
      "v": 107
    },
    {
      "midi": 66,
      "hit": false,
      "t": 116922.9600000005,
      "d": 384.61500000000524,
      "v": 70
    },
    {
      "midi": 85,
      "hit": false,
      "t": 117315.58781250051,
      "d": 384.61500000000524,
      "v": 80
    },
    {
      "midi": 90,
      "hit": false,
      "t": 117700.20281250052,
      "d": 384.61500000000524,
      "v": 80
    },
    {
      "midi": 92,
      "hit": false,
      "t": 118084.81781250052,
      "d": 384.61500000000524,
      "v": 80
    },
    {
      "midi": 64,
      "hit": false,
      "t": 118461.42000000052,
      "d": 384.61500000000524,
      "v": 70
    },
    {
      "midi": 93,
      "hit": false,
      "t": 118469.43281250053,
      "d": 384.61500000000524,
      "v": 80
    },
    {
      "midi": 92,
      "hit": false,
      "t": 118854.04781250053,
      "d": 384.61500000000524,
      "v": 80
    },
    {
      "midi": 90,
      "hit": false,
      "t": 119238.66281250054,
      "d": 384.61500000000524,
      "v": 80
    },
    {
      "midi": 97,
      "hit": false,
      "t": 119623.27781250054,
      "d": 384.61500000000524,
      "v": 107
    },
    {
      "midi": 62,
      "hit": false,
      "t": 119999.88000000054,
      "d": 384.6149999999907,
      "v": 70
    },
    {
      "midi": 98,
      "hit": false,
      "t": 120007.89281250055,
      "d": 384.6149999999907,
      "v": 107
    },
    {
      "midi": 81,
      "hit": false,
      "t": 120007.89281250055,
      "d": 384.6149999999907,
      "v": 70
    },
    {
      "midi": 86,
      "hit": false,
      "t": 120071.99531250054,
      "d": 384.6149999999907,
      "v": 70
    },
    {
      "midi": 90,
      "hit": false,
      "t": 120136.09781250053,
      "d": 384.6149999999907,
      "v": 80
    },
    {
      "midi": 97,
      "hit": false,
      "t": 120392.50781250054,
      "d": 384.6149999999907,
      "v": 107
    },
    {
      "midi": 88,
      "hit": false,
      "t": 120392.50781250054,
      "d": 384.6149999999907,
      "v": 80
    },
    {
      "midi": 95,
      "hit": false,
      "t": 120777.12281250053,
      "d": 384.61500000000524,
      "v": 107
    },
    {
      "midi": 86,
      "hit": false,
      "t": 120777.12281250053,
      "d": 384.61500000000524,
      "v": 80
    },
    {
      "midi": 93,
      "hit": false,
      "t": 121161.73781250053,
      "d": 384.61500000000524,
      "v": 107
    },
    {
      "midi": 85,
      "hit": false,
      "t": 121161.73781250053,
      "d": 384.61500000000524,
      "v": 80
    },
    {
      "midi": 76,
      "hit": false,
      "t": 121538.34000000053,
      "d": 384.61500000000524,
      "v": 70
    },
    {
      "midi": 62,
      "hit": false,
      "t": 121538.34000000053,
      "d": 384.61500000000524,
      "v": 70
    },
    {
      "midi": 95,
      "hit": false,
      "t": 121546.35281250054,
      "d": 384.61500000000524,
      "v": 107
    },
    {
      "midi": 83,
      "hit": false,
      "t": 121610.45531250053,
      "d": 384.61500000000524,
      "v": 80
    },
    {
      "midi": 85,
      "hit": false,
      "t": 121930.96781250054,
      "d": 384.6149999999907,
      "v": 80
    },
    {
      "midi": 93,
      "hit": false,
      "t": 122315.58281250054,
      "d": 384.61500000000524,
      "v": 107
    },
    {
      "midi": 86,
      "hit": false,
      "t": 122315.58281250054,
      "d": 384.61500000000524,
      "v": 80
    },
    {
      "midi": 95,
      "hit": false,
      "t": 122700.19781250054,
      "d": 384.61500000000524,
      "v": 107
    },
    {
      "midi": 80,
      "hit": false,
      "t": 122700.19781250054,
      "d": 384.61500000000524,
      "v": 70
    },
    {
      "midi": 73,
      "hit": false,
      "t": 123076.80000000054,
      "d": 384.61500000000524,
      "v": 80
    },
    {
      "midi": 61,
      "hit": false,
      "t": 123076.80000000054,
      "d": 384.61500000000524,
      "v": 70
    },
    {
      "midi": 88,
      "hit": false,
      "t": 123084.81281250055,
      "d": 384.61500000000524,
      "v": 70
    },
    {
      "midi": 92,
      "hit": false,
      "t": 123132.88968750054,
      "d": 384.61500000000524,
      "v": 70
    },
    {
      "midi": 97,
      "hit": false,
      "t": 123180.96656250054,
      "d": 384.61500000000524,
      "v": 107
    },
    {
      "midi": 76,
      "hit": false,
      "t": 123461.41500000055,
      "d": 384.61500000000524,
      "v": 80
    },
    {
      "midi": 80,
      "hit": false,
      "t": 123854.04281250056,
      "d": 384.61500000000524,
      "v": 80
    },
    {
      "midi": 100,
      "hit": false,
      "t": 123862.05562500056,
      "d": 384.61500000000524,
      "v": 107
    },
    {
      "midi": 66,
      "hit": false,
      "t": 124230.64500000056,
      "d": 384.61500000000524,
      "v": 70
    },
    {
      "midi": 85,
      "hit": false,
      "t": 124238.65781250056,
      "d": 384.61500000000524,
      "v": 70
    },
    {
      "midi": 81,
      "hit": false,
      "t": 124238.65781250056,
      "d": 384.61500000000524,
      "v": 80
    },
    {
      "midi": 90,
      "hit": false,
      "t": 124286.73468750056,
      "d": 384.61500000000524,
      "v": 70
    },
    {
      "midi": 93,
      "hit": false,
      "t": 124334.81156250056,
      "d": 384.61500000000524,
      "v": 107
    },
    {
      "midi": 81,
      "hit": false,
      "t": 125007.88781250056,
      "d": 384.61500000000524,
      "v": 80
    },
    {
      "midi": 78,
      "hit": false,
      "t": 125384.49000000056,
      "d": 384.61500000000524,
      "v": 80
    },
    {
      "midi": 93,
      "hit": false,
      "t": 125392.50281250056,
      "d": 384.61500000000524,
      "v": 107
    },
    {
      "midi": 76,
      "hit": false,
      "t": 125769.10500000056,
      "d": 384.61500000000524,
      "v": 80
    },
    {
      "midi": 92,
      "hit": false,
      "t": 125777.11781250057,
      "d": 384.61500000000524,
      "v": 107
    },
    {
      "midi": 74,
      "hit": false,
      "t": 126153.72000000057,
      "d": 384.61500000000524,
      "v": 80
    },
    {
      "midi": 59,
      "hit": false,
      "t": 126153.72000000057,
      "d": 384.61500000000524,
      "v": 70
    },
    {
      "midi": 90,
      "hit": false,
      "t": 126161.73281250057,
      "d": 384.61500000000524,
      "v": 107
    },
    {
      "midi": 78,
      "hit": false,
      "t": 126538.33500000057,
      "d": 384.61500000000524,
      "v": 80
    },
    {
      "midi": 98,
      "hit": false,
      "t": 126930.96281250058,
      "d": 384.61500000000524,
      "v": 107
    },
    {
      "midi": 83,
      "hit": false,
      "t": 126930.96281250058,
      "d": 384.61500000000524,
      "v": 80
    },
    {
      "midi": 98,
      "hit": false,
      "t": 127315.57781250059,
      "d": 384.61500000000524,
      "v": 107
    },
    {
      "midi": 90,
      "hit": false,
      "t": 127315.57781250059,
      "d": 384.61500000000524,
      "v": 80
    },
    {
      "midi": 93,
      "hit": false,
      "t": 127700.1928125006,
      "d": 384.6149999999907,
      "v": 80
    },
    {
      "midi": 90,
      "hit": false,
      "t": 127892.50031250059,
      "d": 384.6149999999907,
      "v": 80
    },
    {
      "midi": 86,
      "hit": false,
      "t": 128084.80781250058,
      "d": 384.6149999999907,
      "v": 80
    },
    {
      "midi": 85,
      "hit": false,
      "t": 128277.11531250058,
      "d": 384.6149999999907,
      "v": 80
    },
    {
      "midi": 83,
      "hit": false,
      "t": 128469.42281250058,
      "d": 384.61500000000524,
      "v": 80
    },
    {
      "midi": 81,
      "hit": false,
      "t": 128661.73031250057,
      "d": 384.6150000000198,
      "v": 80
    },
    {
      "midi": 78,
      "hit": false,
      "t": 128846.02500000058,
      "d": 384.6150000000198,
      "v": 80
    },
    {
      "midi": 74,
      "hit": false,
      "t": 129038.33250000059,
      "d": 384.61500000000524,
      "v": 80
    },
    {
      "midi": 78,
      "hit": false,
      "t": 129230.6400000006,
      "d": 384.6149999999907,
      "v": 70
    },
    {
      "midi": 64,
      "hit": false,
      "t": 129230.6400000006,
      "d": 384.6149999999907,
      "v": 70
    },
    {
      "midi": 81,
      "hit": false,
      "t": 129286.7296875006,
      "d": 384.6149999999907,
      "v": 70
    },
    {
      "midi": 85,
      "hit": false,
      "t": 129334.8065625006,
      "d": 384.6149999999907,
      "v": 80
    },
    {
      "midi": 97,
      "hit": false,
      "t": 130777.11281250059,
      "d": 384.6149999999907,
      "v": 107
    },
    {
      "midi": 93,
      "hit": false,
      "t": 131161.72781250058,
      "d": 384.6149999999907,
      "v": 107
    },
    {
      "midi": 95,
      "hit": false,
      "t": 131546.34281250057,
      "d": 384.6149999999907,
      "v": 107
    },
    {
      "midi": 73,
      "hit": false,
      "t": 132307.56000000055,
      "d": 384.6149999999907,
      "v": 80
    },
    {
      "midi": 57,
      "hit": false,
      "t": 132307.56000000055,
      "d": 384.6149999999907,
      "v": 70
    },
    {
      "midi": 85,
      "hit": false,
      "t": 132315.57281250056,
      "d": 384.6149999999907,
      "v": 70
    },
    {
      "midi": 88,
      "hit": false,
      "t": 132363.64968750055,
      "d": 384.6149999999907,
      "v": 70
    },
    {
      "midi": 93,
      "hit": false,
      "t": 132411.72656250055,
      "d": 384.6149999999907,
      "v": 107
    },
    {
      "midi": 76,
      "hit": false,
      "t": 132692.17500000054,
      "d": 384.6149999999907,
      "v": 80
    },
    {
      "midi": 81,
      "hit": false,
      "t": 133084.80281250054,
      "d": 384.6149999999907,
      "v": 80
    },
    {
      "midi": 85,
      "hit": false,
      "t": 133469.41781250053,
      "d": 384.6149999999907,
      "v": 80
    },
    {
      "midi": 88,
      "hit": false,
      "t": 133854.03281250052,
      "d": 384.6149999999907,
      "v": 80
    },
    {
      "midi": 85,
      "hit": false,
      "t": 134238.6478125005,
      "d": 384.82586458331207,
      "v": 80
    },
    {
      "midi": 81,
      "hit": false,
      "t": 134623.47367708382,
      "d": 394.73649999999907,
      "v": 80
    },
    {
      "midi": 76,
      "hit": false,
      "t": 135009.9865000005,
      "d": 394.73649999999907,
      "v": 80
    },
    {
      "midi": 74,
      "hit": false,
      "t": 135404.7230000005,
      "d": 405.40499999999884,
      "v": 80
    },
    {
      "midi": 64,
      "hit": false,
      "t": 135404.7230000005,
      "d": 405.40499999999884,
      "v": 70
    },
    {
      "midi": 78,
      "hit": false,
      "t": 135810.1280000005,
      "d": 428.5709999999963,
      "v": 80
    },
    {
      "midi": 81,
      "hit": false,
      "t": 136248.31437500048,
      "d": 462.3392916666635,
      "v": 80
    },
    {
      "midi": 86,
      "hit": false,
      "t": 136710.65366666715,
      "d": 501.1574062500149,
      "v": 80
    },
    {
      "midi": 90,
      "hit": false,
      "t": 137211.81107291716,
      "d": 555.5554999999877,
      "v": 80
    },
    {
      "midi": 81,
      "hit": false,
      "t": 137211.81107291716,
      "d": 555.5554999999877,
      "v": 80
    },
    {
      "midi": 92,
      "hit": false,
      "t": 137767.36657291715,
      "d": 557.0022604166879,
      "v": 80
    },
    {
      "midi": 83,
      "hit": false,
      "t": 137767.36657291715,
      "d": 557.0022604166879,
      "v": 80
    },
    {
      "midi": 93,
      "hit": false,
      "t": 138324.36883333384,
      "d": 625,
      "v": 80
    },
    {
      "midi": 85,
      "hit": false,
      "t": 138324.36883333384,
      "d": 625,
      "v": 80
    },
    {
      "midi": 95,
      "hit": false,
      "t": 138949.36883333384,
      "d": 626.8601145833381,
      "v": 80
    },
    {
      "midi": 86,
      "hit": false,
      "t": 138949.36883333384,
      "d": 626.8601145833381,
      "v": 80
    },
    {
      "midi": 64,
      "hit": false,
      "t": 139561.3480000005,
      "d": 5714.284000000072,
      "v": 70
    },
    {
      "midi": 57,
      "hit": false,
      "t": 139561.3480000005,
      "d": 5714.284000000072,
      "v": 80
    },
    {
      "midi": 69,
      "hit": false,
      "t": 139650.63368750052,
      "d": 5624.9983125000435,
      "v": 70
    },
    {
      "midi": 93,
      "hit": false,
      "t": 139754.8003229172,
      "d": 5535.712625000044,
      "v": 70
    },
    {
      "midi": 73,
      "hit": false,
      "t": 139829.20506250055,
      "d": 5535.712625000044,
      "v": 70
    },
    {
      "midi": 76,
      "hit": false,
      "t": 139918.49075000055,
      "d": 5357.141250000015,
      "v": 70
    },
    {
      "midi": 81,
      "hit": false,
      "t": 139933.37169791723,
      "d": 5357.141250000015,
      "v": 80
    }
  ]
}