{
  "jsonPath": "Animes/Sailor Moon MIDI Collection/cantonese-dub-theme.json",
  "path": "Animes\\Sailor Moon MIDI Collection\\Cantonese Dub Theme.mid",
  "name": "Cantonese Dub Theme",
  "difficulty": "Advanced",
  "bpm": 126.000126000126,
  "notes": [
    {
      "midi": 73,
      "hit": false,
      "t": 0,
      "d": 78.74,
      "v": 127
    },
    {
      "midi": 73,
      "hit": false,
      "t": 118.10999999999999,
      "d": 78.73999999999998,
      "v": 127
    },
    {
      "midi": 76,
      "hit": false,
      "t": 236.21999999999997,
      "d": 78.74000000000001,
      "v": 127
    },
    {
      "midi": 73,
      "hit": false,
      "t": 354.33,
      "d": 78.74000000000001,
      "v": 127
    },
    {
      "midi": 75,
      "hit": false,
      "t": 472.44,
      "d": 78.73999999999995,
      "v": 127
    },
    {
      "midi": 75,
      "hit": false,
      "t": 590.55,
      "d": 78.74000000000001,
      "v": 127
    },
    {
      "midi": 78,
      "hit": false,
      "t": 708.66,
      "d": 78.74000000000001,
      "v": 127
    },
    {
      "midi": 75,
      "hit": false,
      "t": 826.77,
      "d": 78.74000000000001,
      "v": 127
    },
    {
      "midi": 76,
      "hit": false,
      "t": 944.88,
      "d": 78.74000000000001,
      "v": 127
    },
    {
      "midi": 49,
      "hit": false,
      "t": 944.88,
      "d": 78.74000000000001,
      "v": 127
    },
    {
      "midi": 76,
      "hit": false,
      "t": 1062.99,
      "d": 78.74000000000001,
      "v": 127
    },
    {
      "midi": 47,
      "hit": false,
      "t": 1062.99,
      "d": 78.74000000000001,
      "v": 127
    },
    {
      "midi": 80,
      "hit": false,
      "t": 1181.1,
      "d": 78.74000000000001,
      "v": 127
    },
    {
      "midi": 44,
      "hit": false,
      "t": 1181.1,
      "d": 78.74000000000001,
      "v": 127
    },
    {
      "midi": 76,
      "hit": false,
      "t": 1299.2099999999998,
      "d": 78.74000000000001,
      "v": 127
    },
    {
      "midi": 47,
      "hit": false,
      "t": 1299.2099999999998,
      "d": 78.74000000000001,
      "v": 127
    },
    {
      "midi": 78,
      "hit": false,
      "t": 1417.3199999999997,
      "d": 78.74000000000001,
      "v": 127
    },
    {
      "midi": 44,
      "hit": false,
      "t": 1417.3199999999997,
      "d": 78.74000000000001,
      "v": 127
    },
    {
      "midi": 78,
      "hit": false,
      "t": 1535.4299999999996,
      "d": 78.74000000000001,
      "v": 127
    },
    {
      "midi": 47,
      "hit": false,
      "t": 1535.4299999999996,
      "d": 78.74000000000001,
      "v": 127
    },
    {
      "midi": 80,
      "hit": false,
      "t": 1653.5399999999995,
      "d": 78.74000000000001,
      "v": 127
    },
    {
      "midi": 44,
      "hit": false,
      "t": 1653.5399999999995,
      "d": 78.74000000000001,
      "v": 127
    },
    {
      "midi": 83,
      "hit": false,
      "t": 1771.6499999999994,
      "d": 78.74000000000001,
      "v": 127
    },
    {
      "midi": 47,
      "hit": false,
      "t": 1771.6499999999994,
      "d": 78.74000000000001,
      "v": 127
    },
    {
      "midi": 85,
      "hit": false,
      "t": 1889.7599999999993,
      "d": 1263.777,
      "v": 127
    },
    {
      "midi": 49,
      "hit": false,
      "t": 1889.7599999999993,
      "d": 157.48000000000002,
      "v": 127
    },
    {
      "midi": 37,
      "hit": false,
      "t": 1889.76,
      "d": 157.48000000000002,
      "v": 127
    },
    {
      "midi": 61,
      "hit": false,
      "t": 1889.76,
      "d": 157.48000000000002,
      "v": 127
    },
    {
      "midi": 49,
      "hit": false,
      "t": 1889.76,
      "d": 157.48000000000002,
      "v": 127
    },
    {
      "midi": 36,
      "hit": false,
      "t": 2125.979999999999,
      "d": 157.47999999999956,
      "v": 127
    },
    {
      "midi": 37,
      "hit": false,
      "t": 2125.98,
      "d": 157.48000000000002,
      "v": 127
    },
    {
      "midi": 44,
      "hit": false,
      "t": 2125.98,
      "d": 157.48000000000002,
      "v": 127
    },
    {
      "midi": 61,
      "hit": false,
      "t": 2125.98,
      "d": 157.48000000000002,
      "v": 127
    },
    {
      "midi": 49,
      "hit": false,
      "t": 2125.98,
      "d": 157.48000000000002,
      "v": 127
    },
    {
      "midi": 34,
      "hit": false,
      "t": 2362.1999999999985,
      "d": 157.48000000000002,
      "v": 127
    },
    {
      "midi": 61,
      "hit": false,
      "t": 2362.1999999999985,
      "d": 314.9599999999996,
      "v": 127
    },
    {
      "midi": 49,
      "hit": false,
      "t": 2362.2,
      "d": 314.96000000000004,
      "v": 127
    },
    {
      "midi": 44,
      "hit": false,
      "t": 2362.2,
      "d": 157.48000000000002,
      "v": 127
    },
    {
      "midi": 61,
      "hit": false,
      "t": 2362.2,
      "d": 157.48000000000002,
      "v": 127
    },
    {
      "midi": 49,
      "hit": false,
      "t": 2362.2,
      "d": 157.48000000000002,
      "v": 127
    },
    {
      "midi": 52,
      "hit": false,
      "t": 2598.4199999999983,
      "d": 157.47999999999956,
      "v": 127
    },
    {
      "midi": 52,
      "hit": false,
      "t": 2598.4199999999996,
      "d": 236.2199999999998,
      "v": 127
    },
    {
      "midi": 59,
      "hit": false,
      "t": 2598.4199999999996,
      "d": 78.73999999999978,
      "v": 127
    },
    {
      "midi": 47,
      "hit": false,
      "t": 2598.4199999999996,
      "d": 78.73999999999978,
      "v": 127
    },
    {
      "midi": 60,
      "hit": false,
      "t": 2716.5299999999993,
      "d": 78.73999999999978,
      "v": 127
    },
    {
      "midi": 48,
      "hit": false,
      "t": 2716.5299999999993,
      "d": 78.73999999999978,
      "v": 127
    },
    {
      "midi": 47,
      "hit": false,
      "t": 2716.5299999999997,
      "d": 157.48000000000002,
      "v": 127
    },
    {
      "midi": 50,
      "hit": false,
      "t": 2834.6399999999976,
      "d": 236.2199999999998,
      "v": 127
    },
    {
      "midi": 49,
      "hit": false,
      "t": 2834.6399999999976,
      "d": 314.9599999999996,
      "v": 127
    },
    {
      "midi": 61,
      "hit": false,
      "t": 2834.639999999999,
      "d": 78.73999999999978,
      "v": 127
    },
    {
      "midi": 49,
      "hit": false,
      "t": 2834.639999999999,
      "d": 78.73999999999978,
      "v": 127
    },
    {
      "midi": 44,
      "hit": false,
      "t": 2834.6399999999994,
      "d": 236.2199999999998,
      "v": 127
    },
    {
      "midi": 61,
      "hit": false,
      "t": 2952.7499999999986,
      "d": 78.73999999999978,
      "v": 127
    },
    {
      "midi": 49,
      "hit": false,
      "t": 2952.7499999999986,
      "d": 78.73999999999978,
      "v": 127
    },
    {
      "midi": 47,
      "hit": false,
      "t": 2952.7499999999995,
      "d": 157.48000000000002,
      "v": 127
    },
    {
      "midi": 61,
      "hit": false,
      "t": 3070.8599999999983,
      "d": 78.73999999999978,
      "v": 127
    },
    {
      "midi": 49,
      "hit": false,
      "t": 3070.8599999999983,
      "d": 78.73999999999978,
      "v": 127
    },
    {
      "midi": 50,
      "hit": false,
      "t": 3188.969999999997,
      "d": 236.22000000000025,
      "v": 127
    },
    {
      "midi": 61,
      "hit": false,
      "t": 3188.969999999998,
      "d": 78.73999999999978,
      "v": 127
    },
    {
      "midi": 49,
      "hit": false,
      "t": 3188.969999999998,
      "d": 78.73999999999978,
      "v": 127
    },
    {
      "midi": 44,
      "hit": false,
      "t": 3188.9699999999993,
      "d": 78.73999999999978,
      "v": 127
    },
    {
      "midi": 44,
      "hit": false,
      "t": 3188.9699999999993,
      "d": 236.2199999999998,
      "v": 127
    },
    {
      "midi": 61,
      "hit": false,
      "t": 3307.079999999997,
      "d": 314.96000000000004,
      "v": 127
    },
    {
      "midi": 59,
      "hit": false,
      "t": 3307.079999999997,
      "d": 314.96000000000004,
      "v": 127
    },
    {
      "midi": 64,
      "hit": false,
      "t": 3307.0799999999977,
      "d": 78.73999999999978,
      "v": 127
    },
    {
      "midi": 52,
      "hit": false,
      "t": 3307.0799999999977,
      "d": 78.73999999999978,
      "v": 127
    },
    {
      "midi": 42,
      "hit": false,
      "t": 3307.079999999999,
      "d": 157.48000000000002,
      "v": 127
    },
    {
      "midi": 63,
      "hit": false,
      "t": 3425.1899999999973,
      "d": 78.73999999999978,
      "v": 127
    },
    {
      "midi": 51,
      "hit": false,
      "t": 3425.1899999999973,
      "d": 78.73999999999978,
      "v": 127
    },
    {
      "midi": 61,
      "hit": false,
      "t": 3543.299999999997,
      "d": 157.48000000000002,
      "v": 127
    },
    {
      "midi": 49,
      "hit": false,
      "t": 3543.299999999997,
      "d": 157.48000000000002,
      "v": 127
    },
    {
      "midi": 52,
      "hit": false,
      "t": 3543.2999999999975,
      "d": 157.47999999999956,
      "v": 127
    },
    {
      "midi": 44,
      "hit": false,
      "t": 3543.299999999999,
      "d": 157.48000000000002,
      "v": 127
    },
    {
      "midi": 52,
      "hit": false,
      "t": 3543.2999999999993,
      "d": 78.73999999999978,
      "v": 127
    },
    {
      "midi": 49,
      "hit": false,
      "t": 3779.519999999997,
      "d": 157.48000000000002,
      "v": 127
    },
    {
      "midi": 61,
      "hit": false,
      "t": 3779.519999999997,
      "d": 157.48000000000002,
      "v": 127
    },
    {
      "midi": 49,
      "hit": false,
      "t": 3779.519999999997,
      "d": 157.48000000000002,
      "v": 127
    },
    {
      "midi": 37,
      "hit": false,
      "t": 3779.5199999999986,
      "d": 157.48000000000002,
      "v": 127
    },
    {
      "midi": 36,
      "hit": false,
      "t": 4015.7399999999966,
      "d": 157.48000000000002,
      "v": 127
    },
    {
      "midi": 61,
      "hit": false,
      "t": 4015.7399999999966,
      "d": 157.48000000000002,
      "v": 127
    },
    {
      "midi": 49,
      "hit": false,
      "t": 4015.7399999999966,
      "d": 157.48000000000002,
      "v": 127
    },
    {
      "midi": 37,
      "hit": false,
      "t": 4015.7399999999984,
      "d": 157.48000000000002,
      "v": 127
    },
    {
      "midi": 44,
      "hit": false,
      "t": 4015.739999999999,
      "d": 157.47999999999956,
      "v": 127
    },
    {
      "midi": 68,
      "hit": false,
      "t": 4015.74,
      "d": 78.73999999999978,
      "v": 127
    },
    {
      "midi": 68,
      "hit": false,
      "t": 4133.849999999999,
      "d": 157.47999999999956,
      "v": 127
    },
    {
      "midi": 34,
      "hit": false,
      "t": 4251.959999999996,
      "d": 157.47999999999956,
      "v": 127
    },
    {
      "midi": 61,
      "hit": false,
      "t": 4251.959999999996,
      "d": 314.9599999999991,
      "v": 127
    },
    {
      "midi": 61,
      "hit": false,
      "t": 4251.959999999996,
      "d": 157.47999999999956,
      "v": 127
    },
    {
      "midi": 49,
      "hit": false,
      "t": 4251.959999999996,
      "d": 157.47999999999956,
      "v": 127
    },
    {
      "midi": 49,
      "hit": false,
      "t": 4251.959999999998,
      "d": 314.96000000000004,
      "v": 127
    },
    {
      "midi": 44,
      "hit": false,
      "t": 4251.959999999998,
      "d": 157.47999999999956,
      "v": 127
    },
    {
      "midi": 68,
      "hit": false,
      "t": 4370.069999999999,
      "d": 78.73999999999978,
      "v": 127
    },
    {
      "midi": 52,
      "hit": false,
      "t": 4488.179999999996,
      "d": 157.47999999999956,
      "v": 127
    },
    {
      "midi": 59,
      "hit": false,
      "t": 4488.179999999996,
      "d": 78.73999999999978,
      "v": 127
    },
    {
      "midi": 47,
      "hit": false,
      "t": 4488.179999999996,
      "d": 78.73999999999978,
      "v": 127
    },
    {
      "midi": 52,
      "hit": false,
      "t": 4488.179999999998,
      "d": 236.22000000000025,
      "v": 127
    },
    {
      "midi": 68,
      "hit": false,
      "t": 4488.1799999999985,
      "d": 157.47999999999956,
      "v": 127
    },
    {
      "midi": 60,
      "hit": false,
      "t": 4606.289999999995,
      "d": 78.73999999999978,
      "v": 127
    },
    {
      "midi": 48,
      "hit": false,
      "t": 4606.289999999995,
      "d": 78.73999999999978,
      "v": 127
    },
    {
      "midi": 47,
      "hit": false,
      "t": 4606.289999999998,
      "d": 157.47999999999956,
      "v": 127
    },
    {
      "midi": 50,
      "hit": false,
      "t": 4724.399999999995,
      "d": 236.22000000000025,
      "v": 127
    },
    {
      "midi": 49,
      "hit": false,
      "t": 4724.399999999995,
      "d": 314.96000000000004,
      "v": 127
    },
    {
      "midi": 61,
      "hit": false,
      "t": 4724.399999999995,
      "d": 78.73999999999978,
      "v": 127
    },
    {
      "midi": 49,
      "hit": false,
      "t": 4724.399999999995,
      "d": 78.73999999999978,
      "v": 127
    },
    {
      "midi": 68,
      "hit": false,
      "t": 4724.399999999998,
      "d": 78.73999999999978,
      "v": 127
    },
    {
      "midi": 44,
      "hit": false,
      "t": 4724.399999999998,
      "d": 236.22000000000025,
      "v": 127
    },
    {
      "midi": 61,
      "hit": false,
      "t": 4842.509999999995,
      "d": 78.73999999999978,
      "v": 127
    },
    {
      "midi": 49,
      "hit": false,
      "t": 4842.509999999995,
      "d": 78.73999999999978,
      "v": 127
    },
    {
      "midi": 47,
      "hit": false,
      "t": 4842.5099999999975,
      "d": 157.47999999999956,
      "v": 127
    },
    {
      "midi": 68,
      "hit": false,
      "t": 4842.5099999999975,
      "d": 157.47999999999956,
      "v": 127
    },
    {
      "midi": 61,
      "hit": false,
      "t": 4960.619999999994,
      "d": 78.73999999999978,
      "v": 127
    },
    {
      "midi": 49,
      "hit": false,
      "t": 4960.619999999994,
      "d": 78.73999999999978,
      "v": 127
    },
    {
      "midi": 61,
      "hit": false,
      "t": 5078.729999999994,
      "d": 78.73999999999978,
      "v": 127
    },
    {
      "midi": 49,
      "hit": false,
      "t": 5078.729999999994,
      "d": 78.73999999999978,
      "v": 127
    },
    {
      "midi": 50,
      "hit": false,
      "t": 5078.729999999995,
      "d": 236.21999999999935,
      "v": 127
    },
    {
      "midi": 44,
      "hit": false,
      "t": 5078.729999999997,
      "d": 78.73999999999978,
      "v": 127
    },
    {
      "midi": 68,
      "hit": false,
      "t": 5078.729999999997,
      "d": 78.73999999999978,
      "v": 127
    },
    {
      "midi": 44,
      "hit": false,
      "t": 5078.729999999998,
      "d": 236.22000000000025,
      "v": 127
    },
    {
      "midi": 64,
      "hit": false,
      "t": 5196.839999999994,
      "d": 78.73999999999978,
      "v": 127
    },
    {
      "midi": 52,
      "hit": false,
      "t": 5196.839999999994,
      "d": 78.73999999999978,
      "v": 127
    },
    {
      "midi": 61,
      "hit": false,
      "t": 5196.839999999995,
      "d": 314.9599999999991,
      "v": 127
    },
    {
      "midi": 59,
      "hit": false,
      "t": 5196.839999999995,
      "d": 314.9599999999991,
      "v": 127
    },
    {
      "midi": 47,
      "hit": false,
      "t": 5196.8399999999965,
      "d": 157.47999999999956,
      "v": 127
    },
    {
      "midi": 68,
      "hit": false,
      "t": 5196.8399999999965,
      "d": 157.47999999999956,
      "v": 127
    },
    {
      "midi": 63,
      "hit": false,
      "t": 5314.949999999993,
      "d": 78.73999999999978,
      "v": 127
    },
    {
      "midi": 51,
      "hit": false,
      "t": 5314.949999999993,
      "d": 78.73999999999978,
      "v": 127
    },
    {
      "midi": 61,
      "hit": false,
      "t": 5433.059999999993,
      "d": 157.47999999999956,
      "v": 127
    },
    {
      "midi": 49,
      "hit": false,
      "t": 5433.059999999993,
      "d": 157.47999999999956,
      "v": 127
    },
    {
      "midi": 52,
      "hit": false,
      "t": 5433.059999999994,
      "d": 157.47999999999956,
      "v": 127
    },
    {
      "midi": 49,
      "hit": false,
      "t": 5433.059999999996,
      "d": 157.47999999999956,
      "v": 127
    },
    {
      "midi": 73,
      "hit": false,
      "t": 5433.059999999996,
      "d": 157.47999999999956,
      "v": 127
    },
    {
      "midi": 52,
      "hit": false,
      "t": 5433.059999999998,
      "d": 78.73999999999978,
      "v": 127
    },
    {
      "midi": 61,
      "hit": false,
      "t": 5669.2799999999925,
      "d": 157.47999999999956,
      "v": 127
    },
    {
      "midi": 49,
      "hit": false,
      "t": 5669.2799999999925,
      "d": 157.47999999999956,
      "v": 127
    },
    {
      "midi": 49,
      "hit": false,
      "t": 5669.279999999993,
      "d": 157.47999999999956,
      "v": 127
    },
    {
      "midi": 37,
      "hit": false,
      "t": 5669.279999999995,
      "d": 157.47999999999956,
      "v": 127
    },
    {
      "midi": 73,
      "hit": false,
      "t": 5669.279999999995,
      "d": 157.47999999999956,
      "v": 127
    },
    {
      "midi": 68,
      "hit": false,
      "t": 5669.279999999995,
      "d": 3153.5370000000003,
      "v": 127
    },
    {
      "midi": 61,
      "hit": false,
      "t": 5905.499999999992,
      "d": 157.47999999999956,
      "v": 127
    },
    {
      "midi": 49,
      "hit": false,
      "t": 5905.499999999992,
      "d": 157.47999999999956,
      "v": 127
    },
    {
      "midi": 36,
      "hit": false,
      "t": 5905.499999999993,
      "d": 157.47999999999956,
      "v": 127
    },
    {
      "midi": 37,
      "hit": false,
      "t": 5905.4999999999945,
      "d": 157.47999999999956,
      "v": 127
    },
    {
      "midi": 44,
      "hit": false,
      "t": 5905.499999999997,
      "d": 157.47999999999956,
      "v": 127
    },
    {
      "midi": 61,
      "hit": false,
      "t": 6141.719999999991,
      "d": 157.47999999999956,
      "v": 127
    },
    {
      "midi": 49,
      "hit": false,
      "t": 6141.719999999991,
      "d": 157.47999999999956,
      "v": 127
    },
    {
      "midi": 34,
      "hit": false,
      "t": 6141.719999999992,
      "d": 157.47999999999956,
      "v": 127
    },
    {
      "midi": 61,
      "hit": false,
      "t": 6141.719999999992,
      "d": 314.9599999999991,
      "v": 127
    },
    {
      "midi": 49,
      "hit": false,
      "t": 6141.719999999994,
      "d": 314.96000000000004,
      "v": 127
    },
    {
      "midi": 44,
      "hit": false,
      "t": 6141.719999999997,
      "d": 157.47999999999956,
      "v": 127
    },
    {
      "midi": 59,
      "hit": false,
      "t": 6377.9399999999905,
      "d": 78.73999999999978,
      "v": 127
    },
    {
      "midi": 47,
      "hit": false,
      "t": 6377.9399999999905,
      "d": 78.73999999999978,
      "v": 127
    },
    {
      "midi": 52,
      "hit": false,
      "t": 6377.939999999991,
      "d": 157.47999999999956,
      "v": 127
    },
    {
      "midi": 52,
      "hit": false,
      "t": 6377.939999999996,
      "d": 236.22000000000025,
      "v": 127
    },
    {
      "midi": 60,
      "hit": false,
      "t": 6496.04999999999,
      "d": 78.73999999999978,
      "v": 127
    },
    {
      "midi": 48,
      "hit": false,
      "t": 6496.04999999999,
      "d": 78.73999999999978,
      "v": 127
    },
    {
      "midi": 47,
      "hit": false,
      "t": 6496.049999999994,
      "d": 157.47999999999956,
      "v": 127
    },
    {
      "midi": 61,
      "hit": false,
      "t": 6614.15999999999,
      "d": 78.73999999999978,
      "v": 127
    },
    {
      "midi": 49,
      "hit": false,
      "t": 6614.15999999999,
      "d": 78.73999999999978,
      "v": 127
    },
    {
      "midi": 50,
      "hit": false,
      "t": 6614.159999999991,
      "d": 236.22000000000025,
      "v": 127
    },
    {
      "midi": 49,
      "hit": false,
      "t": 6614.159999999991,
      "d": 314.96000000000004,
      "v": 127
    },
    {
      "midi": 44,
      "hit": false,
      "t": 6614.159999999996,
      "d": 236.22000000000025,
      "v": 127
    },
    {
      "midi": 61,
      "hit": false,
      "t": 6732.2699999999895,
      "d": 78.73999999999978,
      "v": 127
    },
    {
      "midi": 49,
      "hit": false,
      "t": 6732.2699999999895,
      "d": 78.73999999999978,
      "v": 127
    },
    {
      "midi": 47,
      "hit": false,
      "t": 6732.269999999993,
      "d": 157.47999999999956,
      "v": 127
    },
    {
      "midi": 61,
      "hit": false,
      "t": 6850.379999999989,
      "d": 78.73999999999978,
      "v": 127
    },
    {
      "midi": 49,
      "hit": false,
      "t": 6850.379999999989,
      "d": 78.73999999999978,
      "v": 127
    },
    {
      "midi": 61,
      "hit": false,
      "t": 6968.489999999989,
      "d": 78.73999999999978,
      "v": 127
    },
    {
      "midi": 49,
      "hit": false,
      "t": 6968.489999999989,
      "d": 78.73999999999978,
      "v": 127
    },
    {
      "midi": 50,
      "hit": false,
      "t": 6968.489999999991,
      "d": 236.21999999999935,
      "v": 127
    },
    {
      "midi": 44,
      "hit": false,
      "t": 6968.4899999999925,
      "d": 78.73999999999978,
      "v": 127
    },
    {
      "midi": 44,
      "hit": false,
      "t": 6968.489999999996,
      "d": 236.22000000000025,
      "v": 127
    },
    {
      "midi": 64,
      "hit": false,
      "t": 7086.5999999999885,
      "d": 78.73999999999978,
      "v": 127
    },
    {
      "midi": 52,
      "hit": false,
      "t": 7086.5999999999885,
      "d": 78.73999999999978,
      "v": 127
    },
    {
      "midi": 61,
      "hit": false,
      "t": 7086.59999999999,
      "d": 314.9599999999991,
      "v": 127
    },
    {
      "midi": 59,
      "hit": false,
      "t": 7086.59999999999,
      "d": 314.9599999999991,
      "v": 127
    },
    {
      "midi": 42,
      "hit": false,
      "t": 7086.599999999992,
      "d": 157.47999999999956,
      "v": 127
    },
    {
      "midi": 63,
      "hit": false,
      "t": 7204.709999999988,
      "d": 78.73999999999978,
      "v": 127
    },
    {
      "midi": 51,
      "hit": false,
      "t": 7204.709999999988,
      "d": 78.73999999999978,
      "v": 127
    },
    {
      "midi": 61,
      "hit": false,
      "t": 7322.819999999988,
      "d": 157.47999999999956,
      "v": 127
    },
    {
      "midi": 49,
      "hit": false,
      "t": 7322.819999999988,
      "d": 157.47999999999956,
      "v": 127
    },
    {
      "midi": 52,
      "hit": false,
      "t": 7322.81999999999,
      "d": 157.47999999999956,
      "v": 127
    },
    {
      "midi": 44,
      "hit": false,
      "t": 7322.8199999999915,
      "d": 157.47999999999956,
      "v": 127
    },
    {
      "midi": 52,
      "hit": false,
      "t": 7322.819999999996,
      "d": 78.73999999999978,
      "v": 127
    },
    {
      "midi": 61,
      "hit": false,
      "t": 7559.039999999987,
      "d": 157.47999999999956,
      "v": 127
    },
    {
      "midi": 49,
      "hit": false,
      "t": 7559.039999999987,
      "d": 157.47999999999956,
      "v": 127
    },
    {
      "midi": 49,
      "hit": false,
      "t": 7559.039999999989,
      "d": 157.47999999999956,
      "v": 127
    },
    {
      "midi": 37,
      "hit": false,
      "t": 7559.039999999991,
      "d": 157.47999999999956,
      "v": 127
    },
    {
      "midi": 61,
      "hit": false,
      "t": 7795.259999999987,
      "d": 157.47999999999956,
      "v": 127
    },
    {
      "midi": 49,
      "hit": false,
      "t": 7795.259999999987,
      "d": 157.47999999999956,
      "v": 127
    },
    {
      "midi": 36,
      "hit": false,
      "t": 7795.259999999988,
      "d": 157.47999999999956,
      "v": 127
    },
    {
      "midi": 37,
      "hit": false,
      "t": 7795.25999999999,
      "d": 157.47999999999956,
      "v": 127
    },
    {
      "midi": 44,
      "hit": false,
      "t": 7795.259999999996,
      "d": 157.47999999999956,
      "v": 127
    },
    {
      "midi": 61,
      "hit": false,
      "t": 8031.479999999986,
      "d": 157.47999999999956,
      "v": 127
    },
    {
      "midi": 49,
      "hit": false,
      "t": 8031.479999999986,
      "d": 157.47999999999956,
      "v": 127
    },
    {
      "midi": 34,
      "hit": false,
      "t": 8031.479999999988,
      "d": 157.47999999999956,
      "v": 127
    },
    {
      "midi": 61,
      "hit": false,
      "t": 8031.479999999988,
      "d": 314.96000000000004,
      "v": 127
    },
    {
      "midi": 49,
      "hit": false,
      "t": 8031.47999999999,
      "d": 314.96000000000004,
      "v": 127
    },
    {
      "midi": 44,
      "hit": false,
      "t": 8031.479999999995,
      "d": 157.47999999999956,
      "v": 127
    },
    {
      "midi": 59,
      "hit": false,
      "t": 8267.699999999986,
      "d": 78.73999999999978,
      "v": 127
    },
    {
      "midi": 47,
      "hit": false,
      "t": 8267.699999999986,
      "d": 78.73999999999978,
      "v": 127
    },
    {
      "midi": 52,
      "hit": false,
      "t": 8267.699999999988,
      "d": 157.47999999999956,
      "v": 127
    },
    {
      "midi": 52,
      "hit": false,
      "t": 8267.699999999995,
      "d": 236.21999999999935,
      "v": 127
    },
    {
      "midi": 60,
      "hit": false,
      "t": 8385.809999999987,
      "d": 78.73999999999978,
      "v": 127
    },
    {
      "midi": 48,
      "hit": false,
      "t": 8385.809999999987,
      "d": 78.73999999999978,
      "v": 127
    },
    {
      "midi": 47,
      "hit": false,
      "t": 8385.80999999999,
      "d": 157.47999999999956,
      "v": 127
    },
    {
      "midi": 50,
      "hit": false,
      "t": 8503.919999999987,
      "d": 236.21999999999935,
      "v": 127
    },
    {
      "midi": 49,
      "hit": false,
      "t": 8503.919999999987,
      "d": 314.9599999999991,
      "v": 127
    },
    {
      "midi": 61,
      "hit": false,
      "t": 8503.919999999987,
      "d": 78.73999999999978,
      "v": 127
    },
    {
      "midi": 49,
      "hit": false,
      "t": 8503.919999999987,
      "d": 78.73999999999978,
      "v": 127
    },
    {
      "midi": 66,
      "hit": false,
      "t": 8503.919999999995,
      "d": 78.73999999999978,
      "v": 127
    },
    {
      "midi": 44,
      "hit": false,
      "t": 8503.919999999995,
      "d": 236.21999999999935,
      "v": 127
    },
    {
      "midi": 66,
      "hit": false,
      "t": 8503.919999999998,
      "d": 78.73999999999978,
      "v": 127
    },
    {
      "midi": 61,
      "hit": false,
      "t": 8622.029999999988,
      "d": 78.73999999999978,
      "v": 127
    },
    {
      "midi": 49,
      "hit": false,
      "t": 8622.029999999988,
      "d": 78.73999999999978,
      "v": 127
    },
    {
      "midi": 47,
      "hit": false,
      "t": 8622.02999999999,
      "d": 157.47999999999956,
      "v": 127
    },
    {
      "midi": 66,
      "hit": false,
      "t": 8622.029999999995,
      "d": 78.73999999999978,
      "v": 127
    },
    {
      "midi": 66,
      "hit": false,
      "t": 8622.029999999999,
      "d": 78.73999999999978,
      "v": 127
    },
    {
      "midi": 61,
      "hit": false,
      "t": 8740.139999999989,
      "d": 78.73999999999978,
      "v": 127
    },
    {
      "midi": 49,
      "hit": false,
      "t": 8740.139999999989,
      "d": 78.73999999999978,
      "v": 127
    },
    {
      "midi": 67,
      "hit": false,
      "t": 8740.139999999996,
      "d": 78.73999999999978,
      "v": 127
    },
    {
      "midi": 67,
      "hit": false,
      "t": 8740.14,
      "d": 78.73999999999978,
      "v": 127
    },
    {
      "midi": 50,
      "hit": false,
      "t": 8858.249999999987,
      "d": 236.22000000000116,
      "v": 127
    },
    {
      "midi": 44,
      "hit": false,
      "t": 8858.249999999989,
      "d": 78.73999999999978,
      "v": 127
    },
    {
      "midi": 61,
      "hit": false,
      "t": 8858.249999999989,
      "d": 78.73999999999978,
      "v": 127
    },
    {
      "midi": 49,
      "hit": false,
      "t": 8858.249999999989,
      "d": 78.73999999999978,
      "v": 127
    },
    {
      "midi": 44,
      "hit": false,
      "t": 8858.249999999995,
      "d": 236.21999999999935,
      "v": 127
    },
    {
      "midi": 68,
      "hit": false,
      "t": 8858.249999999996,
      "d": 157.47999999999956,
      "v": 127
    },
    {
      "midi": 68,
      "hit": false,
      "t": 8858.25,
      "d": 157.47999999999956,
      "v": 127
    },
    {
      "midi": 61,
      "hit": false,
      "t": 8976.359999999988,
      "d": 314.96000000000095,
      "v": 127
    },
    {
      "midi": 59,
      "hit": false,
      "t": 8976.359999999988,
      "d": 314.96000000000095,
      "v": 127
    },
    {
      "midi": 47,
      "hit": false,
      "t": 8976.35999999999,
      "d": 157.47999999999956,
      "v": 127
    },
    {
      "midi": 64,
      "hit": false,
      "t": 8976.35999999999,
      "d": 78.73999999999978,
      "v": 127
    },
    {
      "midi": 52,
      "hit": false,
      "t": 8976.35999999999,
      "d": 78.73999999999978,
      "v": 127
    },
    {
      "midi": 63,
      "hit": false,
      "t": 9094.46999999999,
      "d": 78.73999999999978,
      "v": 127
    },
    {
      "midi": 51,
      "hit": false,
      "t": 9094.46999999999,
      "d": 78.73999999999978,
      "v": 127
    },
    {
      "midi": 68,
      "hit": false,
      "t": 9094.469999999996,
      "d": 78.73999999999978,
      "v": 127
    },
    {
      "midi": 68,
      "hit": false,
      "t": 9094.47,
      "d": 78.73999999999978,
      "v": 127
    },
    {
      "midi": 52,
      "hit": false,
      "t": 9212.579999999989,
      "d": 157.47999999999956,
      "v": 127
    },
    {
      "midi": 49,
      "hit": false,
      "t": 9212.579999999989,
      "d": 157.47999999999956,
      "v": 127
    },
    {
      "midi": 61,
      "hit": false,
      "t": 9212.57999999999,
      "d": 157.47999999999956,
      "v": 127
    },
    {
      "midi": 49,
      "hit": false,
      "t": 9212.57999999999,
      "d": 157.47999999999956,
      "v": 127
    },
    {
      "midi": 52,
      "hit": false,
      "t": 9212.579999999994,
      "d": 78.73999999999978,
      "v": 127
    },
    {
      "midi": 64,
      "hit": false,
      "t": 9212.579999999996,
      "d": 157.47999999999956,
      "v": 127
    },
    {
      "midi": 64,
      "hit": false,
      "t": 9212.58,
      "d": 157.47999999999956,
      "v": 127
    },
    {
      "midi": 37,
      "hit": false,
      "t": 9448.799999999988,
      "d": 157.47999999999956,
      "v": 127
    },
    {
      "midi": 49,
      "hit": false,
      "t": 9448.79999999999,
      "d": 157.47999999999956,
      "v": 127
    },
    {
      "midi": 61,
      "hit": false,
      "t": 9448.79999999999,
      "d": 157.47999999999956,
      "v": 127
    },
    {
      "midi": 64,
      "hit": false,
      "t": 9448.8,
      "d": 2047.2399999999998,
      "v": 127
    },
    {
      "midi": 64,
      "hit": false,
      "t": 9448.8,
      "d": 314.9599999999991,
      "v": 127
    },
    {
      "midi": 49,
      "hit": false,
      "t": 9448.8,
      "d": 157.47999999999956,
      "v": 127
    },
    {
      "midi": 37,
      "hit": false,
      "t": 9685.019999999988,
      "d": 157.47999999999956,
      "v": 127
    },
    {
      "midi": 49,
      "hit": false,
      "t": 9685.01999999999,
      "d": 157.47999999999956,
      "v": 127
    },
    {
      "midi": 61,
      "hit": false,
      "t": 9685.01999999999,
      "d": 157.47999999999956,
      "v": 127
    },
    {
      "midi": 49,
      "hit": false,
      "t": 9685.019999999999,
      "d": 157.47999999999956,
      "v": 127
    },
    {
      "midi": 49,
      "hit": false,
      "t": 9921.239999999987,
      "d": 236.21999999999935,
      "v": 127
    },
    {
      "midi": 49,
      "hit": false,
      "t": 9921.239999999989,
      "d": 157.47999999999956,
      "v": 127
    },
    {
      "midi": 61,
      "hit": false,
      "t": 9921.239999999989,
      "d": 157.47999999999956,
      "v": 127
    },
    {
      "midi": 61,
      "hit": false,
      "t": 9921.239999999998,
      "d": 314.9599999999991,
      "v": 127
    },
    {
      "midi": 49,
      "hit": false,
      "t": 9921.239999999998,
      "d": 236.21999999999935,
      "v": 127
    },
    {
      "midi": 47,
      "hit": false,
      "t": 10157.459999999988,
      "d": 78.73999999999978,
      "v": 127
    },
    {
      "midi": 59,
      "hit": false,
      "t": 10157.459999999988,
      "d": 78.73999999999978,
      "v": 127
    },
    {
      "midi": 47,
      "hit": false,
      "t": 10275.569999999987,
      "d": 157.47999999999956,
      "v": 127
    },
    {
      "midi": 48,
      "hit": false,
      "t": 10275.569999999989,
      "d": 78.73999999999978,
      "v": 127
    },
    {
      "midi": 60,
      "hit": false,
      "t": 10275.569999999989,
      "d": 78.73999999999978,
      "v": 127
    },
    {
      "midi": 47,
      "hit": false,
      "t": 10275.569999999998,
      "d": 78.73999999999978,
      "v": 127
    },
    {
      "midi": 49,
      "hit": false,
      "t": 10393.67999999999,
      "d": 78.73999999999978,
      "v": 127
    },
    {
      "midi": 61,
      "hit": false,
      "t": 10393.67999999999,
      "d": 78.73999999999978,
      "v": 127
    },
    {
      "midi": 59,
      "hit": false,
      "t": 10393.679999999997,
      "d": 157.47999999999956,
      "v": 127
    },
    {
      "midi": 49,
      "hit": false,
      "t": 10393.679999999998,
      "d": 157.47999999999956,
      "v": 127
    },
    {
      "midi": 47,
      "hit": false,
      "t": 10511.789999999986,
      "d": 157.47999999999956,
      "v": 127
    },
    {
      "midi": 49,
      "hit": false,
      "t": 10511.78999999999,
      "d": 78.73999999999978,
      "v": 127
    },
    {
      "midi": 61,
      "hit": false,
      "t": 10511.78999999999,
      "d": 78.73999999999978,
      "v": 127
    },
    {
      "midi": 49,
      "hit": false,
      "t": 10629.89999999999,
      "d": 78.73999999999978,
      "v": 127
    },
    {
      "midi": 61,
      "hit": false,
      "t": 10629.89999999999,
      "d": 78.73999999999978,
      "v": 127
    },
    {
      "midi": 61,
      "hit": false,
      "t": 10629.899999999996,
      "d": 78.73999999999978,
      "v": 127
    },
    {
      "midi": 49,
      "hit": false,
      "t": 10629.899999999998,
      "d": 78.73999999999978,
      "v": 127
    },
    {
      "midi": 44,
      "hit": false,
      "t": 10748.009999999986,
      "d": 78.73999999999978,
      "v": 127
    },
    {
      "midi": 49,
      "hit": false,
      "t": 10748.009999999991,
      "d": 78.73999999999978,
      "v": 127
    },
    {
      "midi": 61,
      "hit": false,
      "t": 10748.009999999991,
      "d": 78.73999999999978,
      "v": 127
    },
    {
      "midi": 61,
      "hit": false,
      "t": 10748.009999999997,
      "d": 314.9599999999991,
      "v": 127
    },
    {
      "midi": 52,
      "hit": false,
      "t": 10748.009999999998,
      "d": 433.0699999999997,
      "v": 127
    },
    {
      "midi": 47,
      "hit": false,
      "t": 10866.119999999986,
      "d": 157.47999999999956,
      "v": 127
    },
    {
      "midi": 52,
      "hit": false,
      "t": 10866.119999999992,
      "d": 78.73999999999978,
      "v": 127
    },
    {
      "midi": 64,
      "hit": false,
      "t": 10866.119999999992,
      "d": 78.73999999999978,
      "v": 127
    },
    {
      "midi": 51,
      "hit": false,
      "t": 10984.229999999992,
      "d": 78.73999999999978,
      "v": 127
    },
    {
      "midi": 64,
      "hit": false,
      "t": 10984.229999999992,
      "d": 78.73999999999978,
      "v": 127
    },
    {
      "midi": 49,
      "hit": false,
      "t": 11102.339999999986,
      "d": 157.47999999999956,
      "v": 127
    },
    {
      "midi": 49,
      "hit": false,
      "t": 11102.339999999993,
      "d": 157.47999999999956,
      "v": 127
    },
    {
      "midi": 61,
      "hit": false,
      "t": 11102.339999999993,
      "d": 157.47999999999956,
      "v": 127
    },
    {
      "midi": 56,
      "hit": false,
      "t": 11220.449999999995,
      "d": 78.73999999999978,
      "v": 127
    },
    {
      "midi": 44,
      "hit": false,
      "t": 11220.449999999999,
      "d": 78.73999999999978,
      "v": 127
    },
    {
      "midi": 35,
      "hit": false,
      "t": 11338.559999999985,
      "d": 157.47999999999956,
      "v": 127
    },
    {
      "midi": 49,
      "hit": false,
      "t": 11338.559999999989,
      "d": 157.47999999999956,
      "v": 127
    },
    {
      "midi": 47,
      "hit": false,
      "t": 11338.559999999992,
      "d": 157.47999999999956,
      "v": 127
    },
    {
      "midi": 59,
      "hit": false,
      "t": 11338.559999999992,
      "d": 157.47999999999956,
      "v": 127
    },
    {
      "midi": 64,
      "hit": false,
      "t": 11338.559999999996,
      "d": 157.47999999999956,
      "v": 127
    },
    {
      "midi": 68,
      "hit": false,
      "t": 11338.559999999996,
      "d": 157.47999999999956,
      "v": 127
    },
    {
      "midi": 63,
      "hit": false,
      "t": 11338.559999999996,
      "d": 2047.2399999999998,
      "v": 127
    },
    {
      "midi": 59,
      "hit": false,
      "t": 11338.559999999996,
      "d": 157.47999999999956,
      "v": 127
    },
    {
      "midi": 68,
      "hit": false,
      "t": 11338.56,
      "d": 314.9599999999991,
      "v": 127
    },
    {
      "midi": 63,
      "hit": false,
      "t": 11338.56,
      "d": 2047.239999999998,
      "v": 127
    },
    {
      "midi": 47,
      "hit": false,
      "t": 11338.56,
      "d": 157.47999999999956,
      "v": 127
    },
    {
      "midi": 35,
      "hit": false,
      "t": 11574.779999999984,
      "d": 157.47999999999956,
      "v": 127
    },
    {
      "midi": 36,
      "hit": false,
      "t": 11574.779999999988,
      "d": 157.47999999999956,
      "v": 127
    },
    {
      "midi": 59,
      "hit": false,
      "t": 11574.779999999992,
      "d": 157.47999999999956,
      "v": 127
    },
    {
      "midi": 47,
      "hit": false,
      "t": 11574.779999999992,
      "d": 157.47999999999956,
      "v": 127
    },
    {
      "midi": 59,
      "hit": false,
      "t": 11574.779999999995,
      "d": 157.47999999999956,
      "v": 127
    },
    {
      "midi": 47,
      "hit": false,
      "t": 11574.779999999999,
      "d": 157.47999999999956,
      "v": 127
    },
    {
      "midi": 47,
      "hit": false,
      "t": 11810.999999999984,
      "d": 236.21999999999935,
      "v": 127
    },
    {
      "midi": 59,
      "hit": false,
      "t": 11810.999999999987,
      "d": 314.9599999999991,
      "v": 127
    },
    {
      "midi": 59,
      "hit": false,
      "t": 11810.99999999999,
      "d": 157.47999999999956,
      "v": 127
    },
    {
      "midi": 47,
      "hit": false,
      "t": 11810.99999999999,
      "d": 157.47999999999956,
      "v": 127
    },
    {
      "midi": 59,
      "hit": false,
      "t": 11810.999999999995,
      "d": 157.47999999999956,
      "v": 127
    },
    {
      "midi": 47,
      "hit": false,
      "t": 11810.999999999998,
      "d": 157.47999999999956,
      "v": 127
    },
    {
      "midi": 52,
      "hit": false,
      "t": 12047.219999999987,
      "d": 157.47999999999956,
      "v": 127
    },
    {
      "midi": 56,
      "hit": false,
      "t": 12047.21999999999,
      "d": 78.73999999999978,
      "v": 127
    },
    {
      "midi": 44,
      "hit": false,
      "t": 12047.21999999999,
      "d": 78.73999999999978,
      "v": 127
    },
    {
      "midi": 61,
      "hit": false,
      "t": 12047.219999999994,
      "d": 78.73999999999978,
      "v": 127
    },
    {
      "midi": 44,
      "hit": false,
      "t": 12047.219999999998,
      "d": 78.73999999999978,
      "v": 127
    },
    {
      "midi": 44,
      "hit": false,
      "t": 12165.329999999984,
      "d": 157.47999999999956,
      "v": 127
    },
    {
      "midi": 59,
      "hit": false,
      "t": 12165.32999999999,
      "d": 78.73999999999978,
      "v": 127
    },
    {
      "midi": 47,
      "hit": false,
      "t": 12165.32999999999,
      "d": 78.73999999999978,
      "v": 127
    },
    {
      "midi": 59,
      "hit": false,
      "t": 12165.329999999994,
      "d": 629.9200000000001,
      "v": 127
    },
    {
      "midi": 47,
      "hit": false,
      "t": 12165.329999999998,
      "d": 157.47999999999956,
      "v": 127
    },
    {
      "midi": 50,
      "hit": false,
      "t": 12283.439999999986,
      "d": 236.21999999999935,
      "v": 127
    },
    {
      "midi": 49,
      "hit": false,
      "t": 12283.439999999986,
      "d": 314.9599999999991,
      "v": 127
    },
    {
      "midi": 59,
      "hit": false,
      "t": 12283.439999999991,
      "d": 78.73999999999978,
      "v": 127
    },
    {
      "midi": 47,
      "hit": false,
      "t": 12283.439999999991,
      "d": 78.73999999999978,
      "v": 127
    },
    {
      "midi": 68,
      "hit": false,
      "t": 12283.439999999999,
      "d": 314.9599999999991,
      "v": 127
    },
    {
      "midi": 44,
      "hit": false,
      "t": 12401.549999999983,
      "d": 157.47999999999956,
      "v": 127
    },
    {
      "midi": 59,
      "hit": false,
      "t": 12401.549999999992,
      "d": 78.73999999999978,
      "v": 127
    },
    {
      "midi": 47,
      "hit": false,
      "t": 12401.549999999992,
      "d": 78.73999999999978,
      "v": 127
    },
    {
      "midi": 47,
      "hit": false,
      "t": 12401.549999999997,
      "d": 157.47999999999956,
      "v": 127
    },
    {
      "midi": 59,
      "hit": false,
      "t": 12519.659999999993,
      "d": 78.73999999999978,
      "v": 127
    },
    {
      "midi": 47,
      "hit": false,
      "t": 12519.659999999993,
      "d": 78.73999999999978,
      "v": 127
    },
    {
      "midi": 42,
      "hit": false,
      "t": 12637.769999999982,
      "d": 78.73999999999978,
      "v": 127
    },
    {
      "midi": 50,
      "hit": false,
      "t": 12637.769999999986,
      "d": 236.22000000000116,
      "v": 127
    },
    {
      "midi": 59,
      "hit": false,
      "t": 12637.769999999993,
      "d": 78.73999999999978,
      "v": 127
    },
    {
      "midi": 47,
      "hit": false,
      "t": 12637.769999999993,
      "d": 78.73999999999978,
      "v": 127
    },
    {
      "midi": 44,
      "hit": false,
      "t": 12637.769999999997,
      "d": 78.73999999999978,
      "v": 127
    },
    {
      "midi": 40,
      "hit": false,
      "t": 12755.879999999983,
      "d": 157.47999999999956,
      "v": 127
    },
    {
      "midi": 59,
      "hit": false,
      "t": 12755.879999999986,
      "d": 314.96000000000095,
      "v": 127
    },
    {
      "midi": 61,
      "hit": false,
      "t": 12755.879999999994,
      "d": 78.73999999999978,
      "v": 127
    },
    {
      "midi": 49,
      "hit": false,
      "t": 12755.879999999994,
      "d": 78.73999999999978,
      "v": 127
    },
    {
      "midi": 47,
      "hit": false,
      "t": 12755.879999999997,
      "d": 157.47999999999956,
      "v": 127
    },
    {
      "midi": 71,
      "hit": false,
      "t": 12755.879999999997,
      "d": 314.9599999999991,
      "v": 127
    },
    {
      "midi": 59,
      "hit": false,
      "t": 12873.989999999994,
      "d": 78.73999999999978,
      "v": 127
    },
    {
      "midi": 47,
      "hit": false,
      "t": 12873.989999999994,
      "d": 78.73999999999978,
      "v": 127
    },
    {
      "midi": 42,
      "hit": false,
      "t": 12992.099999999982,
      "d": 157.47999999999956,
      "v": 127
    },
    {
      "midi": 52,
      "hit": false,
      "t": 12992.099999999988,
      "d": 157.47999999999956,
      "v": 127
    },
    {
      "midi": 57,
      "hit": false,
      "t": 12992.099999999995,
      "d": 157.47999999999956,
      "v": 127
    },
    {
      "midi": 45,
      "hit": false,
      "t": 12992.099999999995,
      "d": 157.47999999999956,
      "v": 127
    },
    {
      "midi": 59,
      "hit": false,
      "t": 12992.099999999995,
      "d": 157.47999999999956,
      "v": 127
    },
    {
      "midi": 49,
      "hit": false,
      "t": 12992.099999999997,
      "d": 157.47999999999956,
      "v": 127
    },
    {
      "midi": 37,
      "hit": false,
      "t": 13228.319999999982,
      "d": 157.47999999999956,
      "v": 127
    },
    {
      "midi": 49,
      "hit": false,
      "t": 13228.319999999987,
      "d": 157.47999999999956,
      "v": 127
    },
    {
      "midi": 49,
      "hit": false,
      "t": 13228.319999999994,
      "d": 157.47999999999956,
      "v": 127
    },
    {
      "midi": 61,
      "hit": false,
      "t": 13228.319999999994,
      "d": 157.47999999999956,
      "v": 127
    },
    {
      "midi": 61,
      "hit": false,
      "t": 13228.319999999994,
      "d": 157.47999999999956,
      "v": 127
    },
    {
      "midi": 61,
      "hit": false,
      "t": 13228.319999999996,
      "d": 944.8799999999992,
      "v": 127
    },
    {
      "midi": 49,
      "hit": false,
      "t": 13228.319999999996,
      "d": 157.47999999999956,
      "v": 127
    },
    {
      "midi": 73,
      "hit": false,
      "t": 13228.319999999996,
      "d": 629.9200000000001,
      "v": 127
    },
    {
      "midi": 61,
      "hit": false,
      "t": 13228.319999999998,
      "d": 944.8799999999992,
      "v": 127
    },
    {
      "midi": 61,
      "hit": false,
      "t": 13228.32,
      "d": 944.8799999999992,
      "v": 109
    },
    {
      "midi": 37,
      "hit": false,
      "t": 13464.53999999998,
      "d": 157.47999999999956,
      "v": 127
    },
    {
      "midi": 36,
      "hit": false,
      "t": 13464.539999999986,
      "d": 157.47999999999956,
      "v": 127
    },
    {
      "midi": 49,
      "hit": false,
      "t": 13464.539999999994,
      "d": 157.47999999999956,
      "v": 127
    },
    {
      "midi": 61,
      "hit": false,
      "t": 13464.539999999994,
      "d": 157.47999999999956,
      "v": 127
    },
    {
      "midi": 61,
      "hit": false,
      "t": 13464.539999999994,
      "d": 157.47999999999956,
      "v": 127
    },
    {
      "midi": 49,
      "hit": false,
      "t": 13464.539999999995,
      "d": 157.47999999999956,
      "v": 127
    },
    {
      "midi": 49,
      "hit": false,
      "t": 13700.75999999998,
      "d": 236.21999999999935,
      "v": 127
    },
    {
      "midi": 34,
      "hit": false,
      "t": 13700.759999999986,
      "d": 157.47999999999956,
      "v": 127
    },
    {
      "midi": 61,
      "hit": false,
      "t": 13700.759999999986,
      "d": 314.9599999999991,
      "v": 127
    },
    {
      "midi": 49,
      "hit": false,
      "t": 13700.759999999993,
      "d": 157.47999999999956,
      "v": 127
    },
    {
      "midi": 61,
      "hit": false,
      "t": 13700.759999999993,
      "d": 157.47999999999956,
      "v": 127
    },
    {
      "midi": 61,
      "hit": false,
      "t": 13700.759999999993,
      "d": 157.47999999999956,
      "v": 127
    },
    {
      "midi": 49,
      "hit": false,
      "t": 13700.759999999995,
      "d": 157.47999999999956,
      "v": 127
    },
    {
      "midi": 52,
      "hit": false,
      "t": 13936.979999999985,
      "d": 157.47999999999956,
      "v": 127
    },
    {
      "midi": 47,
      "hit": false,
      "t": 13936.979999999992,
      "d": 78.73999999999978,
      "v": 127
    },
    {
      "midi": 59,
      "hit": false,
      "t": 13936.979999999992,
      "d": 78.73999999999978,
      "v": 127
    },
    {
      "midi": 64,
      "hit": false,
      "t": 13936.979999999992,
      "d": 157.47999999999956,
      "v": 127
    },
    {
      "midi": 47,
      "hit": false,
      "t": 13936.979999999994,
      "d": 78.73999999999978,
      "v": 127
    },
    {
      "midi": 47,
      "hit": false,
      "t": 14055.08999999998,
      "d": 157.47999999999956,
      "v": 127
    },
    {
      "midi": 48,
      "hit": false,
      "t": 14055.089999999993,
      "d": 78.73999999999978,
      "v": 127
    },
    {
      "midi": 60,
      "hit": false,
      "t": 14055.089999999993,
      "d": 78.73999999999978,
      "v": 127
    },
    {
      "midi": 51,
      "hit": false,
      "t": 14055.089999999995,
      "d": 157.47999999999956,
      "v": 127
    },
    {
      "midi": 50,
      "hit": false,
      "t": 14173.199999999984,
      "d": 157.47999999999956,
      "v": 127
    },
    {
      "midi": 49,
      "hit": false,
      "t": 14173.199999999984,
      "d": 157.47999999999956,
      "v": 127
    },
    {
      "midi": 63,
      "hit": false,
      "t": 14173.199999999992,
      "d": 314.9599999999991,
      "v": 127
    },
    {
      "midi": 49,
      "hit": false,
      "t": 14173.199999999993,
      "d": 78.73999999999978,
      "v": 127
    },
    {
      "midi": 61,
      "hit": false,
      "t": 14173.199999999993,
      "d": 78.73999999999978,
      "v": 127
    },
    {
      "midi": 63,
      "hit": false,
      "t": 14173.199999999995,
      "d": 1102.3599999999988,
      "v": 127
    },
    {
      "midi": 75,
      "hit": false,
      "t": 14173.199999999995,
      "d": 629.9200000000001,
      "v": 127
    },
    {
      "midi": 63,
      "hit": false,
      "t": 14173.199999999997,
      "d": 1102.3599999999988,
      "v": 127
    },
    {
      "midi": 66,
      "hit": false,
      "t": 14173.199999999999,
      "d": 629.9200000000001,
      "v": 127
    },
    {
      "midi": 47,
      "hit": false,
      "t": 14291.30999999998,
      "d": 157.47999999999956,
      "v": 127
    },
    {
      "midi": 49,
      "hit": false,
      "t": 14291.309999999994,
      "d": 78.73999999999978,
      "v": 127
    },
    {
      "midi": 61,
      "hit": false,
      "t": 14291.309999999994,
      "d": 78.73999999999978,
      "v": 127
    },
    {
      "midi": 51,
      "hit": false,
      "t": 14291.309999999994,
      "d": 157.47999999999956,
      "v": 127
    },
    {
      "midi": 50,
      "hit": false,
      "t": 14409.419999999984,
      "d": 157.47999999999956,
      "v": 127
    },
    {
      "midi": 49,
      "hit": false,
      "t": 14409.419999999995,
      "d": 78.73999999999978,
      "v": 127
    },
    {
      "midi": 61,
      "hit": false,
      "t": 14409.419999999995,
      "d": 78.73999999999978,
      "v": 127
    },
    {
      "midi": 44,
      "hit": false,
      "t": 14527.529999999979,
      "d": 78.73999999999978,
      "v": 127
    },
    {
      "midi": 59,
      "hit": false,
      "t": 14527.529999999992,
      "d": 236.21999999999935,
      "v": 127
    },
    {
      "midi": 47,
      "hit": false,
      "t": 14527.529999999993,
      "d": 78.73999999999978,
      "v": 127
    },
    {
      "midi": 49,
      "hit": false,
      "t": 14527.529999999995,
      "d": 78.73999999999978,
      "v": 127
    },
    {
      "midi": 61,
      "hit": false,
      "t": 14527.529999999995,
      "d": 78.73999999999978,
      "v": 127
    },
    {
      "midi": 47,
      "hit": false,
      "t": 14645.63999999998,
      "d": 157.47999999999956,
      "v": 127
    },
    {
      "midi": 59,
      "hit": false,
      "t": 14645.639999999983,
      "d": 157.47999999999956,
      "v": 127
    },
    {
      "midi": 51,
      "hit": false,
      "t": 14645.639999999994,
      "d": 157.47999999999956,
      "v": 127
    },
    {
      "midi": 52,
      "hit": false,
      "t": 14645.639999999996,
      "d": 78.73999999999978,
      "v": 127
    },
    {
      "midi": 64,
      "hit": false,
      "t": 14645.639999999996,
      "d": 78.73999999999978,
      "v": 127
    },
    {
      "midi": 51,
      "hit": false,
      "t": 14763.749999999996,
      "d": 78.73999999999978,
      "v": 127
    },
    {
      "midi": 63,
      "hit": false,
      "t": 14763.749999999996,
      "d": 78.73999999999978,
      "v": 127
    },
    {
      "midi": 49,
      "hit": false,
      "t": 14881.859999999979,
      "d": 157.47999999999956,
      "v": 127
    },
    {
      "midi": 52,
      "hit": false,
      "t": 14881.859999999982,
      "d": 157.47999999999956,
      "v": 127
    },
    {
      "midi": 61,
      "hit": false,
      "t": 14881.859999999991,
      "d": 157.47999999999956,
      "v": 127
    },
    {
      "midi": 47,
      "hit": false,
      "t": 14881.859999999993,
      "d": 157.47999999999956,
      "v": 127
    },
    {
      "midi": 49,
      "hit": false,
      "t": 14881.859999999997,
      "d": 157.47999999999956,
      "v": 127
    },
    {
      "midi": 61,
      "hit": false,
      "t": 14881.859999999997,
      "d": 157.47999999999956,
      "v": 127
    },
    {
      "midi": 44,
      "hit": false,
      "t": 15118.079999999978,
      "d": 157.47999999999956,
      "v": 127
    },
    {
      "midi": 49,
      "hit": false,
      "t": 15118.079999999982,
      "d": 157.47999999999956,
      "v": 127
    },
    {
      "midi": 56,
      "hit": false,
      "t": 15118.07999999999,
      "d": 629.9200000000001,
      "v": 127
    },
    {
      "midi": 59,
      "hit": false,
      "t": 15118.079999999994,
      "d": 1263.7770000000019,
      "v": 127
    },
    {
      "midi": 71,
      "hit": false,
      "t": 15118.079999999994,
      "d": 629.9200000000001,
      "v": 127
    },
    {
      "midi": 59,
      "hit": false,
      "t": 15118.079999999996,
      "d": 1263.7770000000019,
      "v": 127
    },
    {
      "midi": 56,
      "hit": false,
      "t": 15118.079999999996,
      "d": 157.47999999999956,
      "v": 127
    },
    {
      "midi": 44,
      "hit": false,
      "t": 15118.079999999996,
      "d": 157.47999999999956,
      "v": 127
    },
    {
      "midi": 63,
      "hit": false,
      "t": 15118.079999999998,
      "d": 629.9200000000001,
      "v": 127
    },
    {
      "midi": 44,
      "hit": false,
      "t": 15354.299999999977,
      "d": 157.47999999999956,
      "v": 127
    },
    {
      "midi": 36,
      "hit": false,
      "t": 15354.299999999981,
      "d": 157.47999999999956,
      "v": 127
    },
    {
      "midi": 56,
      "hit": false,
      "t": 15354.299999999996,
      "d": 157.47999999999956,
      "v": 127
    },
    {
      "midi": 44,
      "hit": false,
      "t": 15354.299999999996,
      "d": 157.47999999999956,
      "v": 127
    },
    {
      "midi": 47,
      "hit": false,
      "t": 15590.519999999977,
      "d": 157.47999999999956,
      "v": 127
    },
    {
      "midi": 34,
      "hit": false,
      "t": 15590.51999999998,
      "d": 157.47999999999956,
      "v": 127
    },
    {
      "midi": 59,
      "hit": false,
      "t": 15590.51999999998,
      "d": 314.9599999999991,
      "v": 127
    },
    {
      "midi": 56,
      "hit": false,
      "t": 15590.519999999995,
      "d": 157.47999999999956,
      "v": 127
    },
    {
      "midi": 44,
      "hit": false,
      "t": 15590.519999999995,
      "d": 157.47999999999956,
      "v": 127
    },
    {
      "midi": 47,
      "hit": false,
      "t": 15826.739999999976,
      "d": 78.73999999999978,
      "v": 127
    },
    {
      "midi": 52,
      "hit": false,
      "t": 15826.73999999998,
      "d": 157.47999999999956,
      "v": 127
    },
    {
      "midi": 56,
      "hit": false,
      "t": 15826.739999999994,
      "d": 78.73999999999978,
      "v": 127
    },
    {
      "midi": 44,
      "hit": false,
      "t": 15826.739999999994,
      "d": 78.73999999999978,
      "v": 127
    },
    {
      "midi": 47,
      "hit": false,
      "t": 15944.849999999977,
      "d": 78.73999999999978,
      "v": 127
    },
    {
      "midi": 56,
      "hit": false,
      "t": 15944.849999999995,
      "d": 78.73999999999978,
      "v": 127
    },
    {
      "midi": 44,
      "hit": false,
      "t": 15944.849999999995,
      "d": 78.73999999999978,
      "v": 127
    },
    {
      "midi": 49,
      "hit": false,
      "t": 16062.95999999998,
      "d": 157.48000000000138,
      "v": 123
    },
    {
      "midi": 68,
      "hit": false,
      "t": 16062.959999999994,
      "d": 78.73999999999978,
      "v": 127
    },
    {
      "midi": 68,
      "hit": false,
      "t": 16062.959999999995,
      "d": 78.73999999999978,
      "v": 127
    },
    {
      "midi": 68,
      "hit": false,
      "t": 16062.959999999995,
      "d": 78.73999999999978,
      "v": 127
    },
    {
      "midi": 56,
      "hit": false,
      "t": 16062.959999999995,
      "d": 78.73999999999978,
      "v": 127
    },
    {
      "midi": 63,
      "hit": false,
      "t": 16062.959999999995,
      "d": 157.48000000000138,
      "v": 64
    },
    {
      "midi": 68,
      "hit": false,
      "t": 16181.069999999978,
      "d": 39.3700000000008,
      "v": 127
    },
    {
      "midi": 63,
      "hit": false,
      "t": 16181.06999999998,
      "d": 39.3700000000008,
      "v": 123
    },
    {
      "midi": 68,
      "hit": false,
      "t": 16181.069999999994,
      "d": 39.3700000000008,
      "v": 127
    },
    {
      "midi": 68,
      "hit": false,
      "t": 16181.069999999996,
      "d": 39.3700000000008,
      "v": 127
    },
    {
      "midi": 68,
      "hit": false,
      "t": 16181.069999999996,
      "d": 78.7400000000016,
      "v": 127
    },
    {
      "midi": 56,
      "hit": false,
      "t": 16181.069999999996,
      "d": 78.7400000000016,
      "v": 127
    },
    {
      "midi": 36,
      "hit": false,
      "t": 16299.179999999982,
      "d": 157.47999999999956,
      "v": 123
    },
    {
      "midi": 68,
      "hit": false,
      "t": 16299.179999999997,
      "d": 78.73999999999978,
      "v": 127
    },
    {
      "midi": 68,
      "hit": false,
      "t": 16299.179999999998,
      "d": 78.73999999999978,
      "v": 127
    },
    {
      "midi": 68,
      "hit": false,
      "t": 16299.179999999998,
      "d": 78.73999999999978,
      "v": 127
    },
    {
      "midi": 56,
      "hit": false,
      "t": 16299.179999999998,
      "d": 78.73999999999978,
      "v": 127
    },
    {
      "midi": 68,
      "hit": false,
      "t": 16417.28999999998,
      "d": 39.36999999999898,
      "v": 127
    },
    {
      "midi": 68,
      "hit": false,
      "t": 16417.289999999997,
      "d": 39.36999999999898,
      "v": 127
    },
    {
      "midi": 68,
      "hit": false,
      "t": 16417.289999999997,
      "d": 39.36999999999898,
      "v": 127
    },
    {
      "midi": 68,
      "hit": false,
      "t": 16417.289999999997,
      "d": 78.7400000000016,
      "v": 127
    },
    {
      "midi": 56,
      "hit": false,
      "t": 16417.289999999997,
      "d": 78.7400000000016,
      "v": 127
    },
    {
      "midi": 68,
      "hit": false,
      "t": 16535.399999999976,
      "d": 78.7400000000016,
      "v": 127
    },
    {
      "midi": 68,
      "hit": false,
      "t": 16535.399999999994,
      "d": 157.47999999999956,
      "v": 127
    },
    {
      "midi": 68,
      "hit": false,
      "t": 16535.399999999994,
      "d": 157.47999999999956,
      "v": 127
    },
    {
      "midi": 68,
      "hit": false,
      "t": 16535.399999999998,
      "d": 78.7400000000016,
      "v": 127
    },
    {
      "midi": 56,
      "hit": false,
      "t": 16535.399999999998,
      "d": 78.7400000000016,
      "v": 127
    },
    {
      "midi": 63,
      "hit": false,
      "t": 16535.399999999998,
      "d": 157.47999999999956,
      "v": 64
    },
    {
      "midi": 68,
      "hit": false,
      "t": 16653.509999999977,
      "d": 78.7400000000016,
      "v": 127
    },
    {
      "midi": 63,
      "hit": false,
      "t": 16653.509999999984,
      "d": 39.36999999999898,
      "v": 123
    },
    {
      "midi": 68,
      "hit": false,
      "t": 16653.51,
      "d": 78.73999999999796,
      "v": 127
    },
    {
      "midi": 56,
      "hit": false,
      "t": 16653.51,
      "d": 78.73999999999796,
      "v": 127
    },
    {
      "midi": 68,
      "hit": false,
      "t": 16771.619999999977,
      "d": 157.47999999999956,
      "v": 127
    },
    {
      "midi": 63,
      "hit": false,
      "t": 16771.61999999998,
      "d": 157.47999999999956,
      "v": 123
    },
    {
      "midi": 68,
      "hit": false,
      "t": 16771.619999999995,
      "d": 157.47999999999956,
      "v": 127
    },
    {
      "midi": 56,
      "hit": false,
      "t": 16771.619999999995,
      "d": 157.47999999999956,
      "v": 127
    },
    {
      "midi": 37,
      "hit": false,
      "t": 17007.83999999998,
      "d": 157.47999999999956,
      "v": 127
    },
    {
      "midi": 64,
      "hit": false,
      "t": 17007.83999999998,
      "d": 314.96000000000276,
      "v": 127
    },
    {
      "midi": 64,
      "hit": false,
      "t": 17007.839999999993,
      "d": 314.9599999999991,
      "v": 127
    },
    {
      "midi": 64,
      "hit": false,
      "t": 17007.839999999993,
      "d": 314.9599999999991,
      "v": 127
    },
    {
      "midi": 49,
      "hit": false,
      "t": 17007.839999999993,
      "d": 157.47999999999956,
      "v": 127
    },
    {
      "midi": 49,
      "hit": false,
      "t": 17007.839999999997,
      "d": 157.47999999999956,
      "v": 127
    },
    {
      "midi": 61,
      "hit": false,
      "t": 17007.839999999997,
      "d": 157.47999999999956,
      "v": 127
    },
    {
      "midi": 64,
      "hit": false,
      "t": 17007.84,
      "d": 314.9599999999991,
      "v": 127
    },
    {
      "midi": 64,
      "hit": false,
      "t": 17007.84,
      "d": 314.9599999999991,
      "v": 127
    },
    {
      "midi": 37,
      "hit": false,
      "t": 17244.05999999998,
      "d": 157.4800000000032,
      "v": 127
    },
    {
      "midi": 49,
      "hit": false,
      "t": 17244.059999999994,
      "d": 157.47999999999956,
      "v": 127
    },
    {
      "midi": 49,
      "hit": false,
      "t": 17244.059999999998,
      "d": 157.47999999999956,
      "v": 127
    },
    {
      "midi": 61,
      "hit": false,
      "t": 17244.059999999998,
      "d": 157.47999999999956,
      "v": 127
    },
    {
      "midi": 49,
      "hit": false,
      "t": 17480.279999999984,
      "d": 236.22000000000116,
      "v": 127
    },
    {
      "midi": 61,
      "hit": false,
      "t": 17480.279999999984,
      "d": 314.96000000000276,
      "v": 127
    },
    {
      "midi": 61,
      "hit": false,
      "t": 17480.27999999999,
      "d": 314.9599999999991,
      "v": 127
    },
    {
      "midi": 61,
      "hit": false,
      "t": 17480.27999999999,
      "d": 314.9599999999991,
      "v": 127
    },
    {
      "midi": 49,
      "hit": false,
      "t": 17480.279999999995,
      "d": 236.22000000000116,
      "v": 127
    },
    {
      "midi": 49,
      "hit": false,
      "t": 17480.28,
      "d": 157.47999999999956,
      "v": 127
    },
    {
      "midi": 61,
      "hit": false,
      "t": 17480.28,
      "d": 157.47999999999956,
      "v": 127
    },
    {
      "midi": 61,
      "hit": false,
      "t": 17480.28,
      "d": 314.9599999999991,
      "v": 127
    },
    {
      "midi": 61,
      "hit": false,
      "t": 17480.28,
      "d": 314.9599999999991,
      "v": 127
    },
    {
      "midi": 47,
      "hit": false,
      "t": 17716.5,
      "d": 78.7400000000016,
      "v": 127
    },
    {
      "midi": 59,
      "hit": false,
      "t": 17716.5,
      "d": 78.7400000000016,
      "v": 127
    },
    {
      "midi": 47,
      "hit": false,
      "t": 17834.609999999986,
      "d": 157.47999999999956,
      "v": 127
    },
    {
      "midi": 47,
      "hit": false,
      "t": 17834.609999999997,
      "d": 78.7400000000016,
      "v": 127
    },
    {
      "midi": 48,
      "hit": false,
      "t": 17834.61,
      "d": 78.7400000000016,
      "v": 127
    },
    {
      "midi": 60,
      "hit": false,
      "t": 17834.61,
      "d": 78.7400000000016,
      "v": 127
    },
    {
      "midi": 59,
      "hit": false,
      "t": 17952.719999999998,
      "d": 157.47999999999956,
      "v": 127
    },
    {
      "midi": 49,
      "hit": false,
      "t": 17952.719999999998,
      "d": 157.47999999999956,
      "v": 127
    },
    {
      "midi": 59,
      "hit": false,
      "t": 17952.719999999998,
      "d": 157.47999999999956,
      "v": 127
    },
    {
      "midi": 49,
      "hit": false,
      "t": 17952.72,
      "d": 78.7400000000016,
      "v": 127
    },
    {
      "midi": 61,
      "hit": false,
      "t": 17952.72,
      "d": 78.7400000000016,
      "v": 127
    },
    {
      "midi": 47,
      "hit": false,
      "t": 18070.829999999987,
      "d": 157.47999999999956,
      "v": 127
    },
    {
      "midi": 49,
      "hit": false,
      "t": 18070.83,
      "d": 78.7400000000016,
      "v": 127
    },
    {
      "midi": 61,
      "hit": false,
      "t": 18070.83,
      "d": 78.7400000000016,
      "v": 127
    },
    {
      "midi": 61,
      "hit": false,
      "t": 18188.94,
      "d": 78.7400000000016,
      "v": 127
    },
    {
      "midi": 49,
      "hit": false,
      "t": 18188.94,
      "d": 78.7400000000016,
      "v": 127
    },
    {
      "midi": 61,
      "hit": false,
      "t": 18188.94,
      "d": 78.7400000000016,
      "v": 127
    },
    {
      "midi": 49,
      "hit": false,
      "t": 18188.940000000002,
      "d": 78.7400000000016,
      "v": 127
    },
    {
      "midi": 61,
      "hit": false,
      "t": 18188.940000000002,
      "d": 78.7400000000016,
      "v": 127
    },
    {
      "midi": 44,
      "hit": false,
      "t": 18307.04999999999,
      "d": 78.7400000000016,
      "v": 127
    },
    {
      "midi": 61,
      "hit": false,
      "t": 18307.05,
      "d": 314.9599999999991,
      "v": 127
    },
    {
      "midi": 52,
      "hit": false,
      "t": 18307.05,
      "d": 433.0699999999997,
      "v": 127
    },
    {
      "midi": 61,
      "hit": false,
      "t": 18307.05,
      "d": 314.9599999999991,
      "v": 127
    },
    {
      "midi": 49,
      "hit": false,
      "t": 18307.050000000003,
      "d": 78.7400000000016,
      "v": 127
    },
    {
      "midi": 61,
      "hit": false,
      "t": 18307.050000000003,
      "d": 78.7400000000016,
      "v": 127
    },
    {
      "midi": 47,
      "hit": false,
      "t": 18425.15999999999,
      "d": 157.47999999999956,
      "v": 127
    },
    {
      "midi": 52,
      "hit": false,
      "t": 18425.160000000003,
      "d": 78.7400000000016,
      "v": 127
    },
    {
      "midi": 64,
      "hit": false,
      "t": 18425.160000000003,
      "d": 78.7400000000016,
      "v": 127
    },
    {
      "midi": 51,
      "hit": false,
      "t": 18543.270000000004,
      "d": 78.7400000000016,
      "v": 127
    },
    {
      "midi": 64,
      "hit": false,
      "t": 18543.270000000004,
      "d": 78.7400000000016,
      "v": 127
    },
    {
      "midi": 49,
      "hit": false,
      "t": 18661.37999999999,
      "d": 157.47999999999956,
      "v": 127
    },
    {
      "midi": 49,
      "hit": false,
      "t": 18661.380000000005,
      "d": 157.47999999999956,
      "v": 127
    },
    {
      "midi": 61,
      "hit": false,
      "t": 18661.380000000005,
      "d": 157.47999999999956,
      "v": 127
    },
    {
      "midi": 56,
      "hit": false,
      "t": 18779.489999999998,
      "d": 78.7400000000016,
      "v": 127
    },
    {
      "midi": 44,
      "hit": false,
      "t": 18779.489999999998,
      "d": 78.7400000000016,
      "v": 127
    },
    {
      "midi": 56,
      "hit": false,
      "t": 18779.489999999998,
      "d": 78.7400000000016,
      "v": 127
    },
    {
      "midi": 49,
      "hit": false,
      "t": 18897.59999999998,
      "d": 157.47999999999956,
      "v": 127
    },
    {
      "midi": 68,
      "hit": false,
      "t": 18897.59999999999,
      "d": 314.9599999999991,
      "v": 127
    },
    {
      "midi": 63,
      "hit": false,
      "t": 18897.59999999999,
      "d": 2047.239999999998,
      "v": 127
    },
    {
      "midi": 35,
      "hit": false,
      "t": 18897.59999999999,
      "d": 157.47999999999956,
      "v": 127
    },
    {
      "midi": 68,
      "hit": false,
      "t": 18897.59999999999,
      "d": 314.96000000000276,
      "v": 127
    },
    {
      "midi": 64,
      "hit": false,
      "t": 18897.59999999999,
      "d": 157.47999999999956,
      "v": 127
    },
    {
      "midi": 68,
      "hit": false,
      "t": 18897.59999999999,
      "d": 157.47999999999956,
      "v": 127
    },
    {
      "midi": 59,
      "hit": false,
      "t": 18897.6,
      "d": 157.47999999999956,
      "v": 127
    },
    {
      "midi": 47,
      "hit": false,
      "t": 18897.6,
      "d": 157.47999999999956,
      "v": 127
    },
    {
      "midi": 59,
      "hit": false,
      "t": 18897.6,
      "d": 157.47999999999956,
      "v": 127
    },
    {
      "midi": 47,
      "hit": false,
      "t": 18897.600000000006,
      "d": 157.47999999999956,
      "v": 127
    },
    {
      "midi": 59,
      "hit": false,
      "t": 18897.600000000006,
      "d": 157.47999999999956,
      "v": 127
    },
    {
      "midi": 36,
      "hit": false,
      "t": 19133.81999999998,
      "d": 157.4800000000032,
      "v": 127
    },
    {
      "midi": 35,
      "hit": false,
      "t": 19133.819999999992,
      "d": 157.4800000000032,
      "v": 127
    },
    {
      "midi": 59,
      "hit": false,
      "t": 19133.82,
      "d": 157.47999999999956,
      "v": 127
    },
    {
      "midi": 47,
      "hit": false,
      "t": 19133.82,
      "d": 157.47999999999956,
      "v": 127
    },
    {
      "midi": 59,
      "hit": false,
      "t": 19133.82,
      "d": 157.47999999999956,
      "v": 127
    },
    {
      "midi": 59,
      "hit": false,
      "t": 19133.820000000007,
      "d": 157.47999999999956,
      "v": 127
    },
    {
      "midi": 47,
      "hit": false,
      "t": 19133.820000000007,
      "d": 157.47999999999956,
      "v": 127
    },
    {
      "midi": 59,
      "hit": false,
      "t": 19370.039999999986,
      "d": 314.96000000000276,
      "v": 127
    },
    {
      "midi": 47,
      "hit": false,
      "t": 19370.039999999997,
      "d": 236.22000000000116,
      "v": 127
    },
    {
      "midi": 59,
      "hit": false,
      "t": 19370.04,
      "d": 157.47999999999956,
      "v": 127
    },
    {
      "midi": 47,
      "hit": false,
      "t": 19370.04,
      "d": 157.47999999999956,
      "v": 127
    },
    {
      "midi": 59,
      "hit": false,
      "t": 19370.04,
      "d": 157.47999999999956,
      "v": 127
    },
    {
      "midi": 59,
      "hit": false,
      "t": 19370.040000000008,
      "d": 157.47999999999956,
      "v": 127
    },
    {
      "midi": 47,
      "hit": false,
      "t": 19370.040000000008,
      "d": 157.47999999999956,
      "v": 127
    },
    {
      "midi": 52,
      "hit": false,
      "t": 19606.259999999987,
      "d": 157.4800000000032,
      "v": 127
    },
    {
      "midi": 61,
      "hit": false,
      "t": 19606.260000000002,
      "d": 78.7400000000016,
      "v": 127
    },
    {
      "midi": 44,
      "hit": false,
      "t": 19606.260000000002,
      "d": 78.7400000000016,
      "v": 127
    },
    {
      "midi": 61,
      "hit": false,
      "t": 19606.260000000002,
      "d": 78.7400000000016,
      "v": 127
    },
    {
      "midi": 56,
      "hit": false,
      "t": 19606.26000000001,
      "d": 78.7400000000016,
      "v": 127
    },
    {
      "midi": 44,
      "hit": false,
      "t": 19606.26000000001,
      "d": 78.7400000000016,
      "v": 127
    },
    {
      "midi": 44,
      "hit": false,
      "t": 19724.37,
      "d": 157.47999999999956,
      "v": 127
    },
    {
      "midi": 59,
      "hit": false,
      "t": 19724.370000000003,
      "d": 629.9199999999983,
      "v": 127
    },
    {
      "midi": 47,
      "hit": false,
      "t": 19724.370000000003,
      "d": 157.47999999999956,
      "v": 127
    },
    {
      "midi": 59,
      "hit": false,
      "t": 19724.370000000003,
      "d": 629.9199999999983,
      "v": 127
    },
    {
      "midi": 59,
      "hit": false,
      "t": 19724.37000000001,
      "d": 78.7400000000016,
      "v": 127
    },
    {
      "midi": 47,
      "hit": false,
      "t": 19724.37000000001,
      "d": 78.7400000000016,
      "v": 127
    },
    {
      "midi": 50,
      "hit": false,
      "t": 19842.479999999992,
      "d": 236.22000000000116,
      "v": 127
    },
    {
      "midi": 49,
      "hit": false,
      "t": 19842.479999999992,
      "d": 314.96000000000276,
      "v": 127
    },
    {
      "midi": 68,
      "hit": false,
      "t": 19842.479999999996,
      "d": 314.9599999999991,
      "v": 127
    },
    {
      "midi": 59,
      "hit": false,
      "t": 19842.48000000001,
      "d": 78.7400000000016,
      "v": 127
    },
    {
      "midi": 47,
      "hit": false,
      "t": 19842.48000000001,
      "d": 78.7400000000016,
      "v": 127
    },
    {
      "midi": 44,
      "hit": false,
      "t": 19960.59,
      "d": 157.47999999999956,
      "v": 127
    },
    {
      "midi": 47,
      "hit": false,
      "t": 19960.590000000004,
      "d": 157.47999999999956,
      "v": 127
    },
    {
      "midi": 59,
      "hit": false,
      "t": 19960.59000000001,
      "d": 78.7400000000016,
      "v": 127
    },
    {
      "midi": 47,
      "hit": false,
      "t": 19960.59000000001,
      "d": 78.7400000000016,
      "v": 127
    },
    {
      "midi": 59,
      "hit": false,
      "t": 20078.70000000001,
      "d": 78.7400000000016,
      "v": 127
    },
    {
      "midi": 47,
      "hit": false,
      "t": 20078.70000000001,
      "d": 78.7400000000016,
      "v": 127
    },
    {
      "midi": 50,
      "hit": false,
      "t": 20196.809999999994,
      "d": 236.22000000000116,
      "v": 127
    },
    {
      "midi": 42,
      "hit": false,
      "t": 20196.81,
      "d": 78.7400000000016,
      "v": 127
    },
    {
      "midi": 44,
      "hit": false,
      "t": 20196.810000000005,
      "d": 78.7400000000016,
      "v": 127
    },
    {
      "midi": 59,
      "hit": false,
      "t": 20196.810000000012,
      "d": 78.7400000000016,
      "v": 127
    },
    {
      "midi": 47,
      "hit": false,
      "t": 20196.810000000012,
      "d": 78.7400000000016,
      "v": 127
    },
    {
      "midi": 59,
      "hit": false,
      "t": 20314.919999999995,
      "d": 314.96000000000276,
      "v": 127
    },
    {
      "midi": 71,
      "hit": false,
      "t": 20314.919999999995,
      "d": 314.9599999999991,
      "v": 127
    },
    {
      "midi": 40,
      "hit": false,
      "t": 20314.920000000002,
      "d": 157.47999999999956,
      "v": 127
    },
    {
      "midi": 47,
      "hit": false,
      "t": 20314.920000000006,
      "d": 157.47999999999956,
      "v": 127
    },
    {
      "midi": 61,
      "hit": false,
      "t": 20314.920000000013,
      "d": 78.7400000000016,
      "v": 127
    },
    {
      "midi": 49,
      "hit": false,
      "t": 20314.920000000013,
      "d": 78.7400000000016,
      "v": 127
    },
    {
      "midi": 59,
      "hit": false,
      "t": 20433.030000000013,
      "d": 78.7400000000016,
      "v": 127
    },
    {
      "midi": 47,
      "hit": false,
      "t": 20433.030000000013,
      "d": 78.7400000000016,
      "v": 127
    },
    {
      "midi": 52,
      "hit": false,
      "t": 20551.139999999996,
      "d": 157.4800000000032,
      "v": 127
    },
    {
      "midi": 59,
      "hit": false,
      "t": 20551.14,
      "d": 157.47999999999956,
      "v": 127
    },
    {
      "midi": 59,
      "hit": false,
      "t": 20551.14,
      "d": 157.47999999999956,
      "v": 127
    },
    {
      "midi": 42,
      "hit": false,
      "t": 20551.140000000003,
      "d": 157.47999999999956,
      "v": 127
    },
    {
      "midi": 49,
      "hit": false,
      "t": 20551.140000000007,
      "d": 157.47999999999956,
      "v": 127
    },
    {
      "midi": 57,
      "hit": false,
      "t": 20551.140000000014,
      "d": 157.47999999999956,
      "v": 127
    },
    {
      "midi": 45,
      "hit": false,
      "t": 20551.140000000014,
      "d": 157.47999999999956,
      "v": 127
    },
    {
      "midi": 61,
      "hit": false,
      "t": 20787.35999999999,
      "d": 944.880000000001,
      "v": 127
    },
    {
      "midi": 61,
      "hit": false,
      "t": 20787.35999999999,
      "d": 944.880000000001,
      "v": 127
    },
    {
      "midi": 73,
      "hit": false,
      "t": 20787.359999999993,
      "d": 629.9199999999983,
      "v": 127
    },
    {
      "midi": 61,
      "hit": false,
      "t": 20787.36,
      "d": 314.9599999999991,
      "v": 127
    },
    {
      "midi": 61,
      "hit": false,
      "t": 20787.36,
      "d": 314.9599999999991,
      "v": 127
    },
    {
      "midi": 45,
      "hit": false,
      "t": 20787.360000000008,
      "d": 157.47999999999956,
      "v": 127
    },
    {
      "midi": 57,
      "hit": false,
      "t": 20787.360000000015,
      "d": 157.47999999999956,
      "v": 127
    },
    {
      "midi": 45,
      "hit": false,
      "t": 20787.360000000015,
      "d": 157.47999999999956,
      "v": 127
    },
    {
      "midi": 40,
      "hit": false,
      "t": 21023.58000000001,
      "d": 157.47999999999956,
      "v": 127
    },
    {
      "midi": 57,
      "hit": false,
      "t": 21023.580000000016,
      "d": 157.47999999999956,
      "v": 127
    },
    {
      "midi": 45,
      "hit": false,
      "t": 21023.580000000016,
      "d": 157.47999999999956,
      "v": 127
    },
    {
      "midi": 61,
      "hit": false,
      "t": 21259.8,
      "d": 157.47999999999956,
      "v": 127
    },
    {
      "midi": 61,
      "hit": false,
      "t": 21259.8,
      "d": 157.47999999999956,
      "v": 127
    },
    {
      "midi": 45,
      "hit": false,
      "t": 21259.80000000001,
      "d": 157.47999999999956,
      "v": 127
    },
    {
      "midi": 57,
      "hit": false,
      "t": 21259.800000000017,
      "d": 157.47999999999956,
      "v": 127
    },
    {
      "midi": 45,
      "hit": false,
      "t": 21259.800000000017,
      "d": 157.47999999999956,
      "v": 127
    },
    {
      "midi": 64,
      "hit": false,
      "t": 21496.02,
      "d": 157.47999999999956,
      "v": 127
    },
    {
      "midi": 64,
      "hit": false,
      "t": 21496.02,
      "d": 157.47999999999956,
      "v": 127
    },
    {
      "midi": 49,
      "hit": false,
      "t": 21496.02000000001,
      "d": 157.47999999999956,
      "v": 127
    },
    {
      "midi": 57,
      "hit": false,
      "t": 21496.02000000002,
      "d": 78.7400000000016,
      "v": 127
    },
    {
      "midi": 45,
      "hit": false,
      "t": 21496.02000000002,
      "d": 78.7400000000016,
      "v": 127
    },
    {
      "midi": 57,
      "hit": false,
      "t": 21614.13000000002,
      "d": 78.7400000000016,
      "v": 127
    },
    {
      "midi": 45,
      "hit": false,
      "t": 21614.13000000002,
      "d": 78.7400000000016,
      "v": 127
    },
    {
      "midi": 63,
      "hit": false,
      "t": 21732.23999999999,
      "d": 1102.3600000000006,
      "v": 127
    },
    {
      "midi": 75,
      "hit": false,
      "t": 21732.23999999999,
      "d": 629.9199999999983,
      "v": 127
    },
    {
      "midi": 63,
      "hit": false,
      "t": 21732.24,
      "d": 236.22000000000116,
      "v": 127
    },
    {
      "midi": 63,
      "hit": false,
      "t": 21732.24,
      "d": 236.22000000000116,
      "v": 127
    },
    {
      "midi": 47,
      "hit": false,
      "t": 21732.240000000013,
      "d": 236.22000000000116,
      "v": 127
    },
    {
      "midi": 59,
      "hit": false,
      "t": 21732.24000000002,
      "d": 78.7400000000016,
      "v": 127
    },
    {
      "midi": 47,
      "hit": false,
      "t": 21732.24000000002,
      "d": 78.7400000000016,
      "v": 127
    },
    {
      "midi": 59,
      "hit": false,
      "t": 21850.35000000002,
      "d": 78.7400000000016,
      "v": 127
    },
    {
      "midi": 47,
      "hit": false,
      "t": 21850.35000000002,
      "d": 78.7400000000016,
      "v": 127
    },
    {
      "midi": 59,
      "hit": false,
      "t": 21968.46000000002,
      "d": 78.7400000000016,
      "v": 127
    },
    {
      "midi": 47,
      "hit": false,
      "t": 21968.46000000002,
      "d": 78.7400000000016,
      "v": 127
    },
    {
      "midi": 59,
      "hit": false,
      "t": 22086.570000000003,
      "d": 236.22000000000116,
      "v": 127
    },
    {
      "midi": 59,
      "hit": false,
      "t": 22086.570000000003,
      "d": 236.22000000000116,
      "v": 127
    },
    {
      "midi": 42,
      "hit": false,
      "t": 22086.570000000014,
      "d": 236.22000000000116,
      "v": 127
    },
    {
      "midi": 59,
      "hit": false,
      "t": 22086.57000000002,
      "d": 78.7400000000016,
      "v": 127
    },
    {
      "midi": 47,
      "hit": false,
      "t": 22086.57000000002,
      "d": 78.7400000000016,
      "v": 127
    },
    {
      "midi": 59,
      "hit": false,
      "t": 22204.680000000022,
      "d": 78.7400000000016,
      "v": 127
    },
    {
      "midi": 47,
      "hit": false,
      "t": 22204.680000000022,
      "d": 78.7400000000016,
      "v": 127
    },
    {
      "midi": 59,
      "hit": false,
      "t": 22322.790000000023,
      "d": 78.7400000000016,
      "v": 127
    },
    {
      "midi": 47,
      "hit": false,
      "t": 22322.790000000023,
      "d": 78.7400000000016,
      "v": 127
    },
    {
      "midi": 63,
      "hit": false,
      "t": 22440.900000000005,
      "d": 157.47999999999956,
      "v": 127
    },
    {
      "midi": 63,
      "hit": false,
      "t": 22440.900000000005,
      "d": 157.47999999999956,
      "v": 127
    },
    {
      "midi": 51,
      "hit": false,
      "t": 22440.900000000016,
      "d": 157.47999999999956,
      "v": 127
    },
    {
      "midi": 59,
      "hit": false,
      "t": 22440.900000000023,
      "d": 157.47999999999956,
      "v": 127
    },
    {
      "midi": 47,
      "hit": false,
      "t": 22440.900000000023,
      "d": 157.47999999999956,
      "v": 127
    },
    {
      "midi": 73,
      "hit": false,
      "t": 22677.119999999988,
      "d": 629.9199999999983,
      "v": 127
    },
    {
      "midi": 61,
      "hit": false,
      "t": 22677.11999999999,
      "d": 1263.7769999999982,
      "v": 127
    },
    {
      "midi": 61,
      "hit": false,
      "t": 22677.11999999999,
      "d": 1263.7769999999982,
      "v": 127
    },
    {
      "midi": 37,
      "hit": false,
      "t": 22677.120000000003,
      "d": 157.47999999999956,
      "v": 127
    },
    {
      "midi": 61,
      "hit": false,
      "t": 22677.120000000006,
      "d": 314.9599999999991,
      "v": 127
    },
    {
      "midi": 61,
      "hit": false,
      "t": 22677.120000000006,
      "d": 314.9599999999991,
      "v": 127
    },
    {
      "midi": 37,
      "hit": false,
      "t": 22677.120000000017,
      "d": 157.47999999999956,
      "v": 127
    },
    {
      "midi": 49,
      "hit": false,
      "t": 22677.120000000024,
      "d": 157.47999999999956,
      "v": 127
    },
    {
      "midi": 61,
      "hit": false,
      "t": 22677.120000000024,
      "d": 157.47999999999956,
      "v": 127
    },
    {
      "midi": 37,
      "hit": false,
      "t": 22913.340000000004,
      "d": 157.47999999999956,
      "v": 127
    },
    {
      "midi": 37,
      "hit": false,
      "t": 22913.34000000002,
      "d": 157.47999999999956,
      "v": 127
    },
    {
      "midi": 49,
      "hit": false,
      "t": 22913.340000000026,
      "d": 157.47999999999956,
      "v": 127
    },
    {
      "midi": 61,
      "hit": false,
      "t": 22913.340000000026,
      "d": 157.47999999999956,
      "v": 127
    },
    {
      "midi": 49,
      "hit": false,
      "t": 23149.560000000005,
      "d": 236.22000000000116,
      "v": 127
    },
    {
      "midi": 49,
      "hit": false,
      "t": 23149.56000000002,
      "d": 236.22000000000116,
      "v": 127
    },
    {
      "midi": 49,
      "hit": false,
      "t": 23149.560000000027,
      "d": 157.47999999999956,
      "v": 127
    },
    {
      "midi": 61,
      "hit": false,
      "t": 23149.560000000027,
      "d": 157.47999999999956,
      "v": 127
    },
    {
      "midi": 47,
      "hit": false,
      "t": 23385.780000000028,
      "d": 78.7400000000016,
      "v": 127
    },
    {
      "midi": 59,
      "hit": false,
      "t": 23385.780000000028,
      "d": 78.7400000000016,
      "v": 127
    },
    {
      "midi": 47,
      "hit": false,
      "t": 23503.890000000007,
      "d": 157.47999999999956,
      "v": 127
    },
    {
      "midi": 47,
      "hit": false,
      "t": 23503.89000000002,
      "d": 157.47999999999956,
      "v": 127
    },
    {
      "midi": 48,
      "hit": false,
      "t": 23503.89000000003,
      "d": 78.7400000000016,
      "v": 127
    },
    {
      "midi": 60,
      "hit": false,
      "t": 23503.89000000003,
      "d": 78.7400000000016,
      "v": 127
    },
    {
      "midi": 49,
      "hit": false,
      "t": 23622.00000000003,
      "d": 78.7400000000016,
      "v": 127
    },
    {
      "midi": 61,
      "hit": false,
      "t": 23622.00000000003,
      "d": 78.7400000000016,
      "v": 127
    },
    {
      "midi": 47,
      "hit": false,
      "t": 23740.110000000008,
      "d": 157.47999999999956,
      "v": 127
    },
    {
      "midi": 47,
      "hit": false,
      "t": 23740.110000000022,
      "d": 157.47999999999956,
      "v": 127
    },
    {
      "midi": 49,
      "hit": false,
      "t": 23740.11000000003,
      "d": 78.7400000000016,
      "v": 127
    },
    {
      "midi": 61,
      "hit": false,
      "t": 23740.11000000003,
      "d": 78.7400000000016,
      "v": 127
    },
    {
      "midi": 49,
      "hit": false,
      "t": 23858.22000000003,
      "d": 78.7400000000016,
      "v": 127
    },
    {
      "midi": 61,
      "hit": false,
      "t": 23858.22000000003,
      "d": 78.7400000000016,
      "v": 127
    },
    {
      "midi": 44,
      "hit": false,
      "t": 23976.33000000001,
      "d": 78.7400000000016,
      "v": 127
    },
    {
      "midi": 44,
      "hit": false,
      "t": 23976.330000000024,
      "d": 78.7400000000016,
      "v": 127
    },
    {
      "midi": 49,
      "hit": false,
      "t": 23976.33000000003,
      "d": 78.7400000000016,
      "v": 127
    },
    {
      "midi": 61,
      "hit": false,
      "t": 23976.33000000003,
      "d": 78.7400000000016,
      "v": 127
    },
    {
      "midi": 47,
      "hit": false,
      "t": 24094.44000000001,
      "d": 157.47999999999956,
      "v": 127
    },
    {
      "midi": 47,
      "hit": false,
      "t": 24094.440000000024,
      "d": 157.47999999999956,
      "v": 127
    },
    {
      "midi": 52,
      "hit": false,
      "t": 24094.44000000003,
      "d": 78.7400000000016,
      "v": 127
    },
    {
      "midi": 64,
      "hit": false,
      "t": 24094.44000000003,
      "d": 78.7400000000016,
      "v": 127
    },
    {
      "midi": 51,
      "hit": false,
      "t": 24212.550000000032,
      "d": 78.7400000000016,
      "v": 127
    },
    {
      "midi": 64,
      "hit": false,
      "t": 24212.550000000032,
      "d": 78.7400000000016,
      "v": 127
    },
    {
      "midi": 49,
      "hit": false,
      "t": 24330.66000000001,
      "d": 157.47999999999956,
      "v": 127
    },
    {
      "midi": 49,
      "hit": false,
      "t": 24330.660000000025,
      "d": 157.47999999999956,
      "v": 127
    },
    {
      "midi": 49,
      "hit": false,
      "t": 24330.660000000033,
      "d": 157.47999999999956,
      "v": 127
    },
    {
      "midi": 61,
      "hit": false,
      "t": 24330.660000000033,
      "d": 157.47999999999956,
      "v": 127
    },
    {
      "midi": 64,
      "hit": false,
      "t": 24566.87999999999,
      "d": 157.47999999999956,
      "v": 127
    },
    {
      "midi": 49,
      "hit": false,
      "t": 24566.879999999997,
      "d": 157.47999999999956,
      "v": 127
    },
    {
      "midi": 37,
      "hit": false,
      "t": 24566.880000000026,
      "d": 157.47999999999956,
      "v": 117
    },
    {
      "midi": 73,
      "hit": false,
      "t": 24803.09999999999,
      "d": 157.47999999999956,
      "v": 127
    },
    {
      "midi": 64,
      "hit": false,
      "t": 24803.09999999999,
      "d": 157.47999999999956,
      "v": 127
    },
    {
      "midi": 36,
      "hit": false,
      "t": 24803.1,
      "d": 157.4800000000032,
      "v": 127
    },
    {
      "midi": 49,
      "hit": false,
      "t": 24803.100000000028,
      "d": 157.47999999999956,
      "v": 117
    },
    {
      "midi": 37,
      "hit": false,
      "t": 24803.100000000028,
      "d": 157.47999999999956,
      "v": 117
    },
    {
      "midi": 64,
      "hit": false,
      "t": 25039.319999999992,
      "d": 314.9599999999991,
      "v": 127
    },
    {
      "midi": 61,
      "hit": false,
      "t": 25039.320000000003,
      "d": 314.96000000000276,
      "v": 127
    },
    {
      "midi": 37,
      "hit": false,
      "t": 25039.32000000003,
      "d": 78.7400000000016,
      "v": 117
    },
    {
      "midi": 73,
      "hit": false,
      "t": 25157.42999999999,
      "d": 157.47999999999956,
      "v": 127
    },
    {
      "midi": 49,
      "hit": false,
      "t": 25157.43000000003,
      "d": 157.47999999999956,
      "v": 117
    },
    {
      "midi": 52,
      "hit": false,
      "t": 25275.540000000005,
      "d": 157.4800000000032,
      "v": 127
    },
    {
      "midi": 61,
      "hit": false,
      "t": 25393.64999999999,
      "d": 78.7400000000016,
      "v": 127
    },
    {
      "midi": 37,
      "hit": false,
      "t": 25393.65000000003,
      "d": 78.7400000000016,
      "v": 117
    },
    {
      "midi": 35,
      "hit": false,
      "t": 25393.65000000003,
      "d": 78.7400000000016,
      "v": 117
    },
    {
      "midi": 73,
      "hit": false,
      "t": 25511.759999999987,
      "d": 157.47999999999956,
      "v": 127
    },
    {
      "midi": 64,
      "hit": false,
      "t": 25511.75999999999,
      "d": 157.47999999999956,
      "v": 127
    },
    {
      "midi": 50,
      "hit": false,
      "t": 25511.76000000001,
      "d": 236.22000000000116,
      "v": 127
    },
    {
      "midi": 49,
      "hit": false,
      "t": 25511.76000000001,
      "d": 314.96000000000276,
      "v": 127
    },
    {
      "midi": 49,
      "hit": false,
      "t": 25511.76000000003,
      "d": 157.47999999999956,
      "v": 117
    },
    {
      "midi": 37,
      "hit": false,
      "t": 25511.76000000003,
      "d": 157.47999999999956,
      "v": 117
    },
    {
      "midi": 61,
      "hit": false,
      "t": 25747.979999999992,
      "d": 78.7400000000016,
      "v": 127
    },
    {
      "midi": 37,
      "hit": false,
      "t": 25747.980000000032,
      "d": 78.7400000000016,
      "v": 117
    },
    {
      "midi": 73,
      "hit": false,
      "t": 25866.089999999986,
      "d": 236.22000000000116,
      "v": 127
    },
    {
      "midi": 61,
      "hit": false,
      "t": 25866.089999999993,
      "d": 314.9599999999991,
      "v": 127
    },
    {
      "midi": 50,
      "hit": false,
      "t": 25866.09000000001,
      "d": 236.22000000000116,
      "v": 127
    },
    {
      "midi": 49,
      "hit": false,
      "t": 25866.090000000033,
      "d": 236.22000000000116,
      "v": 117
    },
    {
      "midi": 37,
      "hit": false,
      "t": 25866.090000000033,
      "d": 236.22000000000116,
      "v": 117
    },
    {
      "midi": 61,
      "hit": false,
      "t": 25984.20000000001,
      "d": 314.96000000000276,
      "v": 127
    },
    {
      "midi": 73,
      "hit": false,
      "t": 26220.419999999987,
      "d": 157.47999999999956,
      "v": 127
    },
    {
      "midi": 52,
      "hit": false,
      "t": 26220.420000000013,
      "d": 157.4800000000032,
      "v": 127
    },
    {
      "midi": 49,
      "hit": false,
      "t": 26220.420000000035,
      "d": 157.47999999999956,
      "v": 117
    },
    {
      "midi": 35,
      "hit": false,
      "t": 26220.420000000035,
      "d": 157.47999999999956,
      "v": 117
    },
    {
      "midi": 64,
      "hit": false,
      "t": 26456.639999999992,
      "d": 157.47999999999956,
      "v": 127
    },
    {
      "midi": 49,
      "hit": false,
      "t": 26456.640000000018,
      "d": 157.47999999999956,
      "v": 127
    },
    {
      "midi": 37,
      "hit": false,
      "t": 26456.640000000036,
      "d": 157.47999999999956,
      "v": 117
    },
    {
      "midi": 33,
      "hit": false,
      "t": 26456.640000000036,
      "d": 157.47999999999956,
      "v": 117
    },
    {
      "midi": 69,
      "hit": false,
      "t": 26692.859999999986,
      "d": 157.47999999999956,
      "v": 127
    },
    {
      "midi": 64,
      "hit": false,
      "t": 26692.859999999993,
      "d": 157.47999999999956,
      "v": 127
    },
    {
      "midi": 36,
      "hit": false,
      "t": 26692.86000000002,
      "d": 157.4800000000032,
      "v": 127
    },
    {
      "midi": 45,
      "hit": false,
      "t": 26692.860000000037,
      "d": 157.47999999999956,
      "v": 117
    },
    {
      "midi": 33,
      "hit": false,
      "t": 26692.860000000037,
      "d": 157.47999999999956,
      "v": 117
    },
    {
      "midi": 66,
      "hit": false,
      "t": 26929.079999999994,
      "d": 157.47999999999956,
      "v": 127
    },
    {
      "midi": 57,
      "hit": false,
      "t": 26929.080000000024,
      "d": 314.96000000000276,
      "v": 127
    },
    {
      "midi": 37,
      "hit": false,
      "t": 26929.080000000038,
      "d": 78.7400000000016,
      "v": 117
    },
    {
      "midi": 33,
      "hit": false,
      "t": 26929.080000000038,
      "d": 236.22000000000116,
      "v": 117
    },
    {
      "midi": 69,
      "hit": false,
      "t": 27047.189999999984,
      "d": 157.47999999999956,
      "v": 127
    },
    {
      "midi": 45,
      "hit": false,
      "t": 27047.19000000004,
      "d": 157.47999999999956,
      "v": 117
    },
    {
      "midi": 68,
      "hit": false,
      "t": 27165.299999999996,
      "d": 157.47999999999956,
      "v": 127
    },
    {
      "midi": 52,
      "hit": false,
      "t": 27165.300000000025,
      "d": 157.4800000000032,
      "v": 127
    },
    {
      "midi": 37,
      "hit": false,
      "t": 27283.41000000004,
      "d": 78.7400000000016,
      "v": 117
    },
    {
      "midi": 33,
      "hit": false,
      "t": 27283.41000000004,
      "d": 78.7400000000016,
      "v": 117
    },
    {
      "midi": 71,
      "hit": false,
      "t": 27401.519999999982,
      "d": 157.47999999999956,
      "v": 127
    },
    {
      "midi": 66,
      "hit": false,
      "t": 27401.519999999997,
      "d": 157.47999999999956,
      "v": 127
    },
    {
      "midi": 50,
      "hit": false,
      "t": 27401.52000000003,
      "d": 236.22000000000116,
      "v": 127
    },
    {
      "midi": 49,
      "hit": false,
      "t": 27401.52000000003,
      "d": 314.96000000000276,
      "v": 127
    },
    {
      "midi": 47,
      "hit": false,
      "t": 27401.52000000004,
      "d": 157.47999999999956,
      "v": 117
    },
    {
      "midi": 35,
      "hit": false,
      "t": 27401.52000000004,
      "d": 157.47999999999956,
      "v": 117
    },
    {
      "midi": 64,
      "hit": false,
      "t": 27637.739999999998,
      "d": 78.7400000000016,
      "v": 127
    },
    {
      "midi": 37,
      "hit": false,
      "t": 27637.74000000004,
      "d": 78.7400000000016,
      "v": 117
    },
    {
      "midi": 35,
      "hit": false,
      "t": 27637.74000000004,
      "d": 78.7400000000016,
      "v": 117
    },
    {
      "midi": 71,
      "hit": false,
      "t": 27755.84999999998,
      "d": 236.22000000000116,
      "v": 127
    },
    {
      "midi": 64,
      "hit": false,
      "t": 27755.85,
      "d": 314.9599999999991,
      "v": 127
    },
    {
      "midi": 50,
      "hit": false,
      "t": 27755.85000000003,
      "d": 236.22000000000116,
      "v": 127
    },
    {
      "midi": 47,
      "hit": false,
      "t": 27755.850000000042,
      "d": 236.22000000000116,
      "v": 117
    },
    {
      "midi": 35,
      "hit": false,
      "t": 27755.850000000042,
      "d": 236.22000000000116,
      "v": 117
    },
    {
      "midi": 78,
      "hit": false,
      "t": 27873.959999999985,
      "d": 472.4399999999987,
      "v": 115
    },
    {
      "midi": 59,
      "hit": false,
      "t": 27873.960000000032,
      "d": 314.96000000000276,
      "v": 127
    },
    {
      "midi": 71,
      "hit": false,
      "t": 28110.179999999982,
      "d": 157.47999999999956,
      "v": 127
    },
    {
      "midi": 52,
      "hit": false,
      "t": 28110.180000000033,
      "d": 157.4800000000032,
      "v": 127
    },
    {
      "midi": 47,
      "hit": false,
      "t": 28110.180000000044,
      "d": 157.47999999999956,
      "v": 117
    },
    {
      "midi": 35,
      "hit": false,
      "t": 28110.180000000044,
      "d": 157.47999999999956,
      "v": 117
    },
    {
      "midi": 76,
      "hit": false,
      "t": 28346.399999999983,
      "d": 472.4399999999987,
      "v": 115
    },
    {
      "midi": 64,
      "hit": false,
      "t": 28346.400000000005,
      "d": 157.47999999999956,
      "v": 127
    },
    {
      "midi": 64,
      "hit": false,
      "t": 28346.400000000005,
      "d": 157.47999999999956,
      "v": 127
    },
    {
      "midi": 49,
      "hit": false,
      "t": 28346.400000000038,
      "d": 157.47999999999956,
      "v": 127
    },
    {
      "midi": 37,
      "hit": false,
      "t": 28346.400000000045,
      "d": 157.47999999999956,
      "v": 117
    },
    {
      "midi": 73,
      "hit": false,
      "t": 28582.61999999998,
      "d": 157.47999999999956,
      "v": 127
    },
    {
      "midi": 64,
      "hit": false,
      "t": 28582.620000000006,
      "d": 157.47999999999956,
      "v": 127
    },
    {
      "midi": 64,
      "hit": false,
      "t": 28582.620000000006,
      "d": 157.47999999999956,
      "v": 127
    },
    {
      "midi": 36,
      "hit": false,
      "t": 28582.62000000004,
      "d": 157.4800000000032,
      "v": 127
    },
    {
      "midi": 49,
      "hit": false,
      "t": 28582.620000000046,
      "d": 157.47999999999956,
      "v": 117
    },
    {
      "midi": 37,
      "hit": false,
      "t": 28582.620000000046,
      "d": 157.47999999999956,
      "v": 117
    },
    {
      "midi": 64,
      "hit": false,
      "t": 28818.840000000007,
      "d": 314.9599999999991,
      "v": 127
    },
    {
      "midi": 64,
      "hit": false,
      "t": 28818.840000000007,
      "d": 314.9599999999991,
      "v": 127
    },
    {
      "midi": 61,
      "hit": false,
      "t": 28818.840000000044,
      "d": 314.96000000000276,
      "v": 127
    },
    {
      "midi": 37,
      "hit": false,
      "t": 28818.840000000047,
      "d": 78.7400000000016,
      "v": 117
    },
    {
      "midi": 73,
      "hit": false,
      "t": 28936.94999999998,
      "d": 157.47999999999956,
      "v": 127
    },
    {
      "midi": 49,
      "hit": false,
      "t": 28936.950000000048,
      "d": 157.47999999999956,
      "v": 117
    },
    {
      "midi": 52,
      "hit": false,
      "t": 29055.060000000045,
      "d": 157.4800000000032,
      "v": 127
    },
    {
      "midi": 61,
      "hit": false,
      "t": 29173.170000000006,
      "d": 78.7400000000016,
      "v": 127
    },
    {
      "midi": 61,
      "hit": false,
      "t": 29173.170000000006,
      "d": 78.7400000000016,
      "v": 127
    },
    {
      "midi": 37,
      "hit": false,
      "t": 29173.17000000005,
      "d": 78.7400000000016,
      "v": 117
    },
    {
      "midi": 35,
      "hit": false,
      "t": 29173.17000000005,
      "d": 78.7400000000016,
      "v": 117
    },
    {
      "midi": 73,
      "hit": false,
      "t": 29291.279999999977,
      "d": 157.47999999999956,
      "v": 127
    },
    {
      "midi": 64,
      "hit": false,
      "t": 29291.280000000006,
      "d": 157.47999999999956,
      "v": 127
    },
    {
      "midi": 64,
      "hit": false,
      "t": 29291.280000000006,
      "d": 157.47999999999956,
      "v": 127
    },
    {
      "midi": 50,
      "hit": false,
      "t": 29291.28000000005,
      "d": 236.22000000000116,
      "v": 127
    },
    {
      "midi": 49,
      "hit": false,
      "t": 29291.28000000005,
      "d": 314.96000000000276,
      "v": 127
    },
    {
      "midi": 49,
      "hit": false,
      "t": 29291.28000000005,
      "d": 157.47999999999956,
      "v": 117
    },
    {
      "midi": 37,
      "hit": false,
      "t": 29291.28000000005,
      "d": 157.47999999999956,
      "v": 117
    },
    {
      "midi": 61,
      "hit": false,
      "t": 29527.500000000007,
      "d": 78.7400000000016,
      "v": 127
    },
    {
      "midi": 61,
      "hit": false,
      "t": 29527.500000000007,
      "d": 78.7400000000016,
      "v": 127
    },
    {
      "midi": 37,
      "hit": false,
      "t": 29527.50000000005,
      "d": 78.7400000000016,
      "v": 117
    },
    {
      "midi": 73,
      "hit": false,
      "t": 29645.609999999975,
      "d": 236.22000000000116,
      "v": 127
    },
    {
      "midi": 61,
      "hit": false,
      "t": 29645.610000000008,
      "d": 314.9599999999991,
      "v": 127
    },
    {
      "midi": 61,
      "hit": false,
      "t": 29645.610000000008,
      "d": 314.9599999999991,
      "v": 127
    },
    {
      "midi": 50,
      "hit": false,
      "t": 29645.61000000005,
      "d": 236.22000000000116,
      "v": 127
    },
    {
      "midi": 49,
      "hit": false,
      "t": 29645.61000000005,
      "d": 236.22000000000116,
      "v": 117
    },
    {
      "midi": 37,
      "hit": false,
      "t": 29645.61000000005,
      "d": 236.22000000000116,
      "v": 117
    },
    {
      "midi": 61,
      "hit": false,
      "t": 29763.720000000052,
      "d": 314.96000000000276,
      "v": 127
    },
    {
      "midi": 73,
      "hit": false,
      "t": 29999.939999999977,
      "d": 157.47999999999956,
      "v": 127
    },
    {
      "midi": 52,
      "hit": false,
      "t": 29999.940000000053,
      "d": 157.4800000000032,
      "v": 127
    },
    {
      "midi": 49,
      "hit": false,
      "t": 29999.940000000053,
      "d": 157.47999999999956,
      "v": 117
    },
    {
      "midi": 35,
      "hit": false,
      "t": 29999.940000000053,
      "d": 157.47999999999956,
      "v": 117
    },
    {
      "midi": 61,
      "hit": false,
      "t": 30118.050000000007,
      "d": 78.7400000000016,
      "v": 127
    },
    {
      "midi": 61,
      "hit": false,
      "t": 30118.050000000007,
      "d": 78.7400000000016,
      "v": 127
    },
    {
      "midi": 64,
      "hit": false,
      "t": 30236.160000000007,
      "d": 157.47999999999956,
      "v": 127
    },
    {
      "midi": 64,
      "hit": false,
      "t": 30236.160000000007,
      "d": 157.47999999999956,
      "v": 127
    },
    {
      "midi": 37,
      "hit": false,
      "t": 30236.160000000054,
      "d": 157.47999999999956,
      "v": 117
    },
    {
      "midi": 33,
      "hit": false,
      "t": 30236.160000000054,
      "d": 157.47999999999956,
      "v": 117
    },
    {
      "midi": 49,
      "hit": false,
      "t": 30236.160000000058,
      "d": 157.47999999999956,
      "v": 127
    },
    {
      "midi": 69,
      "hit": false,
      "t": 30472.379999999976,
      "d": 157.47999999999956,
      "v": 127
    },
    {
      "midi": 64,
      "hit": false,
      "t": 30472.38000000001,
      "d": 157.47999999999956,
      "v": 127
    },
    {
      "midi": 64,
      "hit": false,
      "t": 30472.38000000001,
      "d": 157.47999999999956,
      "v": 127
    },
    {
      "midi": 45,
      "hit": false,
      "t": 30472.380000000056,
      "d": 157.47999999999956,
      "v": 117
    },
    {
      "midi": 33,
      "hit": false,
      "t": 30472.380000000056,
      "d": 157.47999999999956,
      "v": 117
    },
    {
      "midi": 36,
      "hit": false,
      "t": 30472.38000000006,
      "d": 157.4800000000032,
      "v": 127
    },
    {
      "midi": 66,
      "hit": false,
      "t": 30708.60000000001,
      "d": 157.47999999999956,
      "v": 127
    },
    {
      "midi": 66,
      "hit": false,
      "t": 30708.60000000001,
      "d": 157.47999999999956,
      "v": 127
    },
    {
      "midi": 37,
      "hit": false,
      "t": 30708.600000000057,
      "d": 78.7400000000016,
      "v": 117
    },
    {
      "midi": 33,
      "hit": false,
      "t": 30708.600000000057,
      "d": 236.22000000000116,
      "v": 117
    },
    {
      "midi": 57,
      "hit": false,
      "t": 30708.600000000064,
      "d": 314.96000000000276,
      "v": 127
    },
    {
      "midi": 69,
      "hit": false,
      "t": 30826.709999999974,
      "d": 157.47999999999956,
      "v": 127
    },
    {
      "midi": 45,
      "hit": false,
      "t": 30826.710000000057,
      "d": 157.47999999999956,
      "v": 117
    },
    {
      "midi": 68,
      "hit": false,
      "t": 30944.82000000001,
      "d": 157.47999999999956,
      "v": 127
    },
    {
      "midi": 68,
      "hit": false,
      "t": 30944.82000000001,
      "d": 157.47999999999956,
      "v": 127
    },
    {
      "midi": 52,
      "hit": false,
      "t": 30944.820000000065,
      "d": 157.4800000000032,
      "v": 127
    },
    {
      "midi": 37,
      "hit": false,
      "t": 31062.93000000006,
      "d": 78.7400000000016,
      "v": 117
    },
    {
      "midi": 33,
      "hit": false,
      "t": 31062.93000000006,
      "d": 78.7400000000016,
      "v": 117
    },
    {
      "midi": 71,
      "hit": false,
      "t": 31181.03999999997,
      "d": 157.47999999999956,
      "v": 127
    },
    {
      "midi": 66,
      "hit": false,
      "t": 31181.04000000001,
      "d": 157.47999999999956,
      "v": 127
    },
    {
      "midi": 66,
      "hit": false,
      "t": 31181.04000000001,
      "d": 157.47999999999956,
      "v": 127
    },
    {
      "midi": 47,
      "hit": false,
      "t": 31181.04000000006,
      "d": 157.47999999999956,
      "v": 117
    },
    {
      "midi": 35,
      "hit": false,
      "t": 31181.04000000006,
      "d": 157.47999999999956,
      "v": 117
    },
    {
      "midi": 50,
      "hit": false,
      "t": 31181.04000000007,
      "d": 236.22000000000116,
      "v": 127
    },
    {
      "midi": 49,
      "hit": false,
      "t": 31181.04000000007,
      "d": 314.96000000000276,
      "v": 127
    },
    {
      "midi": 66,
      "hit": false,
      "t": 31417.259999999973,
      "d": 78.7400000000016,
      "v": 127
    },
    {
      "midi": 66,
      "hit": false,
      "t": 31417.259999999987,
      "d": 78.7400000000016,
      "v": 127
    },
    {
      "midi": 68,
      "hit": false,
      "t": 31417.260000000013,
      "d": 78.7400000000016,
      "v": 127
    },
    {
      "midi": 68,
      "hit": false,
      "t": 31417.260000000013,
      "d": 78.7400000000016,
      "v": 127
    },
    {
      "midi": 37,
      "hit": false,
      "t": 31417.26000000006,
      "d": 78.7400000000016,
      "v": 117
    },
    {
      "midi": 35,
      "hit": false,
      "t": 31417.26000000006,
      "d": 78.7400000000016,
      "v": 117
    },
    {
      "midi": 66,
      "hit": false,
      "t": 31535.369999999974,
      "d": 157.47999999999956,
      "v": 127
    },
    {
      "midi": 71,
      "hit": false,
      "t": 31535.369999999974,
      "d": 236.22000000000116,
      "v": 127
    },
    {
      "midi": 66,
      "hit": false,
      "t": 31535.369999999988,
      "d": 157.47999999999956,
      "v": 127
    },
    {
      "midi": 68,
      "hit": false,
      "t": 31535.370000000014,
      "d": 314.9599999999991,
      "v": 127
    },
    {
      "midi": 68,
      "hit": false,
      "t": 31535.370000000014,
      "d": 314.9599999999991,
      "v": 127
    },
    {
      "midi": 47,
      "hit": false,
      "t": 31535.37000000006,
      "d": 236.22000000000116,
      "v": 117
    },
    {
      "midi": 35,
      "hit": false,
      "t": 31535.37000000006,
      "d": 236.22000000000116,
      "v": 117
    },
    {
      "midi": 50,
      "hit": false,
      "t": 31535.37000000007,
      "d": 236.22000000000116,
      "v": 127
    },
    {
      "midi": 59,
      "hit": false,
      "t": 31653.480000000072,
      "d": 314.96000000000276,
      "v": 127
    },
    {
      "midi": 67,
      "hit": false,
      "t": 31771.589999999975,
      "d": 78.7400000000016,
      "v": 127
    },
    {
      "midi": 67,
      "hit": false,
      "t": 31771.58999999999,
      "d": 78.7400000000016,
      "v": 127
    },
    {
      "midi": 71,
      "hit": false,
      "t": 31889.699999999975,
      "d": 157.47999999999956,
      "v": 127
    },
    {
      "midi": 67,
      "hit": false,
      "t": 31889.699999999975,
      "d": 157.47999999999956,
      "v": 127
    },
    {
      "midi": 67,
      "hit": false,
      "t": 31889.69999999999,
      "d": 157.47999999999956,
      "v": 127
    },
    {
      "midi": 47,
      "hit": false,
      "t": 31889.700000000063,
      "d": 157.47999999999956,
      "v": 117
    },
    {
      "midi": 35,
      "hit": false,
      "t": 31889.700000000063,
      "d": 157.47999999999956,
      "v": 117
    },
    {
      "midi": 52,
      "hit": false,
      "t": 31889.700000000073,
      "d": 157.4800000000032,
      "v": 127
    },
    {
      "midi": 80,
      "hit": false,
      "t": 32125.919999999976,
      "d": 236.22000000000116,
      "v": 127
    },
    {
      "midi": 68,
      "hit": false,
      "t": 32125.919999999976,
      "d": 236.22000000000116,
      "v": 127
    },
    {
      "midi": 80,
      "hit": false,
      "t": 32125.91999999999,
      "d": 236.22000000000116,
      "v": 127
    },
    {
      "midi": 68,
      "hit": false,
      "t": 32125.91999999999,
      "d": 236.22000000000116,
      "v": 127
    },
    {
      "midi": 64,
      "hit": false,
      "t": 32125.92,
      "d": 157.47999999999956,
      "v": 127
    },
    {
      "midi": 37,
      "hit": false,
      "t": 32125.920000000064,
      "d": 157.47999999999956,
      "v": 117
    },
    {
      "midi": 49,
      "hit": false,
      "t": 32125.92000000008,
      "d": 157.47999999999956,
      "v": 127
    },
    {
      "midi": 73,
      "hit": false,
      "t": 32362.139999999978,
      "d": 157.47999999999956,
      "v": 127
    },
    {
      "midi": 64,
      "hit": false,
      "t": 32362.14,
      "d": 157.47999999999956,
      "v": 127
    },
    {
      "midi": 49,
      "hit": false,
      "t": 32362.140000000065,
      "d": 157.47999999999956,
      "v": 117
    },
    {
      "midi": 37,
      "hit": false,
      "t": 32362.140000000065,
      "d": 157.47999999999956,
      "v": 117
    },
    {
      "midi": 36,
      "hit": false,
      "t": 32362.14000000008,
      "d": 157.4800000000032,
      "v": 127
    },
    {
      "midi": 80,
      "hit": false,
      "t": 32480.249999999978,
      "d": 78.73999999999796,
      "v": 127
    },
    {
      "midi": 68,
      "hit": false,
      "t": 32480.249999999978,
      "d": 78.73999999999796,
      "v": 127
    },
    {
      "midi": 80,
      "hit": false,
      "t": 32480.249999999993,
      "d": 78.7400000000016,
      "v": 127
    },
    {
      "midi": 68,
      "hit": false,
      "t": 32480.249999999993,
      "d": 78.7400000000016,
      "v": 127
    },
    {
      "midi": 64,
      "hit": false,
      "t": 32598.36,
      "d": 314.9599999999991,
      "v": 127
    },
    {
      "midi": 37,
      "hit": false,
      "t": 32598.360000000066,
      "d": 78.7400000000016,
      "v": 117
    },
    {
      "midi": 61,
      "hit": false,
      "t": 32598.360000000084,
      "d": 314.9599999999955,
      "v": 127
    },
    {
      "midi": 73,
      "hit": false,
      "t": 32716.469999999976,
      "d": 157.47999999999956,
      "v": 127
    },
    {
      "midi": 49,
      "hit": false,
      "t": 32716.470000000067,
      "d": 157.4800000000032,
      "v": 117
    },
    {
      "midi": 52,
      "hit": false,
      "t": 32834.58000000008,
      "d": 157.47999999999593,
      "v": 127
    },
    {
      "midi": 61,
      "hit": false,
      "t": 32952.69,
      "d": 78.73999999999796,
      "v": 127
    },
    {
      "midi": 37,
      "hit": false,
      "t": 32952.69000000007,
      "d": 78.73999999999796,
      "v": 117
    },
    {
      "midi": 35,
      "hit": false,
      "t": 32952.69000000007,
      "d": 78.73999999999796,
      "v": 117
    },
    {
      "midi": 73,
      "hit": false,
      "t": 33070.799999999974,
      "d": 157.4800000000032,
      "v": 127
    },
    {
      "midi": 64,
      "hit": false,
      "t": 33070.8,
      "d": 157.4800000000032,
      "v": 127
    },
    {
      "midi": 49,
      "hit": false,
      "t": 33070.80000000007,
      "d": 157.4800000000032,
      "v": 117
    },
    {
      "midi": 37,
      "hit": false,
      "t": 33070.80000000007,
      "d": 157.4800000000032,
      "v": 117
    },
    {
      "midi": 50,
      "hit": false,
      "t": 33070.800000000076,
      "d": 236.22000000000116,
      "v": 127
    },
    {
      "midi": 49,
      "hit": false,
      "t": 33070.800000000076,
      "d": 314.9599999999991,
      "v": 127
    },
    {
      "midi": 61,
      "hit": false,
      "t": 33307.020000000004,
      "d": 78.73999999999796,
      "v": 127
    },
    {
      "midi": 37,
      "hit": false,
      "t": 33307.02000000007,
      "d": 78.73999999999796,
      "v": 117
    },
    {
      "midi": 73,
      "hit": false,
      "t": 33425.129999999976,
      "d": 236.22000000000116,
      "v": 127
    },
    {
      "midi": 61,
      "hit": false,
      "t": 33425.130000000005,
      "d": 314.9599999999991,
      "v": 127
    },
    {
      "midi": 49,
      "hit": false,
      "t": 33425.13000000007,
      "d": 236.22000000000116,
      "v": 117
    },
    {
      "midi": 37,
      "hit": false,
      "t": 33425.13000000007,
      "d": 236.22000000000116,
      "v": 117
    },
    {
      "midi": 50,
      "hit": false,
      "t": 33425.13000000008,
      "d": 236.22000000000116,
      "v": 127
    },
    {
      "midi": 61,
      "hit": false,
      "t": 33543.24000000008,
      "d": 314.9599999999991,
      "v": 127
    },
    {
      "midi": 73,
      "hit": false,
      "t": 33779.45999999998,
      "d": 157.4800000000032,
      "v": 127
    },
    {
      "midi": 49,
      "hit": false,
      "t": 33779.46000000007,
      "d": 157.4800000000032,
      "v": 117
    },
    {
      "midi": 35,
      "hit": false,
      "t": 33779.46000000007,
      "d": 157.4800000000032,
      "v": 117
    },
    {
      "midi": 52,
      "hit": false,
      "t": 33779.46000000008,
      "d": 157.47999999999593,
      "v": 127
    },
    {
      "midi": 61,
      "hit": false,
      "t": 33897.57000000001,
      "d": 78.73999999999796,
      "v": 127
    },
    {
      "midi": 64,
      "hit": false,
      "t": 34015.68000000001,
      "d": 157.4800000000032,
      "v": 127
    },
    {
      "midi": 49,
      "hit": false,
      "t": 34015.68000000007,
      "d": 157.4800000000032,
      "v": 127
    },
    {
      "midi": 37,
      "hit": false,
      "t": 34015.68000000007,
      "d": 157.4800000000032,
      "v": 117
    },
    {
      "midi": 33,
      "hit": false,
      "t": 34015.68000000007,
      "d": 157.4800000000032,
      "v": 117
    },
    {
      "midi": 69,
      "hit": false,
      "t": 34251.89999999998,
      "d": 157.4800000000032,
      "v": 127
    },
    {
      "midi": 64,
      "hit": false,
      "t": 34251.90000000001,
      "d": 157.4800000000032,
      "v": 127
    },
    {
      "midi": 36,
      "hit": false,
      "t": 34251.900000000074,
      "d": 157.47999999999593,
      "v": 127
    },
    {
      "midi": 45,
      "hit": false,
      "t": 34251.900000000074,
      "d": 157.4800000000032,
      "v": 117
    },
    {
      "midi": 33,
      "hit": false,
      "t": 34251.900000000074,
      "d": 157.4800000000032,
      "v": 117
    },
    {
      "midi": 66,
      "hit": false,
      "t": 34488.12000000001,
      "d": 157.4800000000032,
      "v": 127
    },
    {
      "midi": 57,
      "hit": false,
      "t": 34488.12000000007,
      "d": 314.9599999999991,
      "v": 127
    },
    {
      "midi": 37,
      "hit": false,
      "t": 34488.120000000075,
      "d": 78.73999999999796,
      "v": 117
    },
    {
      "midi": 33,
      "hit": false,
      "t": 34488.120000000075,
      "d": 236.22000000000116,
      "v": 117
    },
    {
      "midi": 69,
      "hit": false,
      "t": 34606.22999999998,
      "d": 157.4800000000032,
      "v": 127
    },
    {
      "midi": 45,
      "hit": false,
      "t": 34606.230000000076,
      "d": 157.4800000000032,
      "v": 117
    },
    {
      "midi": 68,
      "hit": false,
      "t": 34724.34000000001,
      "d": 157.4800000000032,
      "v": 127
    },
    {
      "midi": 52,
      "hit": false,
      "t": 34724.34000000007,
      "d": 157.47999999999593,
      "v": 127
    },
    {
      "midi": 37,
      "hit": false,
      "t": 34842.45000000008,
      "d": 78.73999999999796,
      "v": 117
    },
    {
      "midi": 33,
      "hit": false,
      "t": 34842.45000000008,
      "d": 78.73999999999796,
      "v": 117
    },
    {
      "midi": 71,
      "hit": false,
      "t": 34960.55999999998,
      "d": 157.4800000000032,
      "v": 127
    },
    {
      "midi": 66,
      "hit": false,
      "t": 34960.56000000001,
      "d": 157.4800000000032,
      "v": 127
    },
    {
      "midi": 50,
      "hit": false,
      "t": 34960.56000000006,
      "d": 236.22000000000116,
      "v": 127
    },
    {
      "midi": 49,
      "hit": false,
      "t": 34960.56000000006,
      "d": 314.9599999999991,
      "v": 127
    },
    {
      "midi": 47,
      "hit": false,
      "t": 34960.56000000008,
      "d": 157.4800000000032,
      "v": 117
    },
    {
      "midi": 35,
      "hit": false,
      "t": 34960.56000000008,
      "d": 157.4800000000032,
      "v": 117
    },
    {
      "midi": 64,
      "hit": false,
      "t": 35196.78000000001,
      "d": 78.73999999999796,
      "v": 127
    },
    {
      "midi": 37,
      "hit": false,
      "t": 35196.78000000008,
      "d": 78.73999999999796,
      "v": 117
    },
    {
      "midi": 35,
      "hit": false,
      "t": 35196.78000000008,
      "d": 78.73999999999796,
      "v": 117
    },
    {
      "midi": 71,
      "hit": false,
      "t": 35314.889999999985,
      "d": 236.22000000000116,
      "v": 127
    },
    {
      "midi": 64,
      "hit": false,
      "t": 35314.890000000014,
      "d": 314.9599999999991,
      "v": 127
    },
    {
      "midi": 50,
      "hit": false,
      "t": 35314.890000000065,
      "d": 236.22000000000116,
      "v": 127
    },
    {
      "midi": 47,
      "hit": false,
      "t": 35314.89000000008,
      "d": 236.22000000000116,
      "v": 117
    },
    {
      "midi": 35,
      "hit": false,
      "t": 35314.89000000008,
      "d": 236.22000000000116,
      "v": 117
    },
    {
      "midi": 78,
      "hit": false,
      "t": 35432.999999999985,
      "d": 314.9599999999991,
      "v": 115
    },
    {
      "midi": 59,
      "hit": false,
      "t": 35433.000000000065,
      "d": 314.9599999999991,
      "v": 127
    },
    {
      "midi": 71,
      "hit": false,
      "t": 35669.21999999999,
      "d": 157.4800000000032,
      "v": 127
    },
    {
      "midi": 52,
      "hit": false,
      "t": 35669.22000000007,
      "d": 157.47999999999593,
      "v": 127
    },
    {
      "midi": 47,
      "hit": false,
      "t": 35669.22000000008,
      "d": 157.4800000000032,
      "v": 117
    },
    {
      "midi": 35,
      "hit": false,
      "t": 35669.22000000008,
      "d": 157.4800000000032,
      "v": 117
    },
    {
      "midi": 80,
      "hit": false,
      "t": 35905.43999999999,
      "d": 472.4400000000023,
      "v": 115
    },
    {
      "midi": 64,
      "hit": false,
      "t": 35905.439999999995,
      "d": 157.4800000000032,
      "v": 127
    },
    {
      "midi": 64,
      "hit": false,
      "t": 35905.44000000001,
      "d": 157.4800000000032,
      "v": 127
    },
    {
      "midi": 64,
      "hit": false,
      "t": 35905.44000000001,
      "d": 157.4800000000032,
      "v": 127
    },
    {
      "midi": 64,
      "hit": false,
      "t": 35905.44000000001,
      "d": 157.4800000000032,
      "v": 127
    },
    {
      "midi": 49,
      "hit": false,
      "t": 35905.44000000006,
      "d": 157.4800000000032,
      "v": 127
    },
    {
      "midi": 37,
      "hit": false,
      "t": 35905.44000000008,
      "d": 157.4800000000032,
      "v": 117
    },
    {
      "midi": 73,
      "hit": false,
      "t": 36141.65999999999,
      "d": 157.4800000000032,
      "v": 127
    },
    {
      "midi": 73,
      "hit": false,
      "t": 36141.659999999996,
      "d": 157.4800000000032,
      "v": 127
    },
    {
      "midi": 64,
      "hit": false,
      "t": 36141.659999999996,
      "d": 157.4800000000032,
      "v": 127
    },
    {
      "midi": 64,
      "hit": false,
      "t": 36141.66000000001,
      "d": 157.4800000000032,
      "v": 127
    },
    {
      "midi": 64,
      "hit": false,
      "t": 36141.66000000001,
      "d": 157.4800000000032,
      "v": 127
    },
    {
      "midi": 64,
      "hit": false,
      "t": 36141.66000000001,
      "d": 157.4800000000032,
      "v": 127
    },
    {
      "midi": 36,
      "hit": false,
      "t": 36141.66000000006,
      "d": 157.47999999999593,
      "v": 127
    },
    {
      "midi": 49,
      "hit": false,
      "t": 36141.66000000008,
      "d": 157.4800000000032,
      "v": 117
    },
    {
      "midi": 37,
      "hit": false,
      "t": 36141.66000000008,
      "d": 157.4800000000032,
      "v": 117
    },
    {
      "midi": 64,
      "hit": false,
      "t": 36377.88,
      "d": 314.9599999999991,
      "v": 127
    },
    {
      "midi": 64,
      "hit": false,
      "t": 36377.88000000001,
      "d": 314.9599999999991,
      "v": 127
    },
    {
      "midi": 64,
      "hit": false,
      "t": 36377.88000000001,
      "d": 314.9599999999991,
      "v": 127
    },
    {
      "midi": 64,
      "hit": false,
      "t": 36377.88000000001,
      "d": 314.9599999999991,
      "v": 127
    },
    {
      "midi": 61,
      "hit": false,
      "t": 36377.880000000056,
      "d": 314.9599999999991,
      "v": 127
    },
    {
      "midi": 37,
      "hit": false,
      "t": 36377.880000000085,
      "d": 78.73999999999796,
      "v": 117
    },
    {
      "midi": 73,
      "hit": false,
      "t": 36495.98999999999,
      "d": 157.4800000000032,
      "v": 127
    },
    {
      "midi": 73,
      "hit": false,
      "t": 36495.99,
      "d": 157.4800000000032,
      "v": 127
    },
    {
      "midi": 49,
      "hit": false,
      "t": 36495.990000000085,
      "d": 157.4800000000032,
      "v": 117
    },
    {
      "midi": 52,
      "hit": false,
      "t": 36614.10000000006,
      "d": 157.47999999999593,
      "v": 127
    },
    {
      "midi": 61,
      "hit": false,
      "t": 36732.21,
      "d": 78.73999999999796,
      "v": 127
    },
    {
      "midi": 61,
      "hit": false,
      "t": 36732.210000000014,
      "d": 78.73999999999796,
      "v": 127
    },
    {
      "midi": 61,
      "hit": false,
      "t": 36732.210000000014,
      "d": 78.73999999999796,
      "v": 127
    },
    {
      "midi": 61,
      "hit": false,
      "t": 36732.210000000014,
      "d": 78.73999999999796,
      "v": 127
    },
    {
      "midi": 37,
      "hit": false,
      "t": 36732.21000000009,
      "d": 78.73999999999796,
      "v": 117
    },
    {
      "midi": 35,
      "hit": false,
      "t": 36732.21000000009,
      "d": 78.73999999999796,
      "v": 117
    },
    {
      "midi": 73,
      "hit": false,
      "t": 36850.31999999999,
      "d": 157.4800000000032,
      "v": 127
    },
    {
      "midi": 73,
      "hit": false,
      "t": 36850.32,
      "d": 157.4800000000032,
      "v": 127
    },
    {
      "midi": 64,
      "hit": false,
      "t": 36850.32,
      "d": 157.4800000000032,
      "v": 127
    },
    {
      "midi": 64,
      "hit": false,
      "t": 36850.320000000014,
      "d": 157.4800000000032,
      "v": 127
    },
    {
      "midi": 64,
      "hit": false,
      "t": 36850.320000000014,
      "d": 157.4800000000032,
      "v": 127
    },
    {
      "midi": 64,
      "hit": false,
      "t": 36850.320000000014,
      "d": 157.4800000000032,
      "v": 127
    },
    {
      "midi": 50,
      "hit": false,
      "t": 36850.32000000005,
      "d": 236.22000000000116,
      "v": 127
    },
    {
      "midi": 49,
      "hit": false,
      "t": 36850.32000000005,
      "d": 314.9599999999991,
      "v": 127
    },
    {
      "midi": 49,
      "hit": false,
      "t": 36850.32000000009,
      "d": 157.4800000000032,
      "v": 117
    },
    {
      "midi": 37,
      "hit": false,
      "t": 36850.32000000009,
      "d": 157.4800000000032,
      "v": 117
    },
    {
      "midi": 61,
      "hit": false,
      "t": 37086.54,
      "d": 78.73999999999796,
      "v": 127
    },
    {
      "midi": 61,
      "hit": false,
      "t": 37086.540000000015,
      "d": 78.73999999999796,
      "v": 127
    },
    {
      "midi": 61,
      "hit": false,
      "t": 37086.540000000015,
      "d": 78.73999999999796,
      "v": 127
    },
    {
      "midi": 61,
      "hit": false,
      "t": 37086.540000000015,
      "d": 78.73999999999796,
      "v": 127
    },
    {
      "midi": 37,
      "hit": false,
      "t": 37086.54000000009,
      "d": 78.73999999999796,
      "v": 117
    },
    {
      "midi": 73,
      "hit": false,
      "t": 37204.649999999994,
      "d": 236.22000000000116,
      "v": 127
    },
    {
      "midi": 73,
      "hit": false,
      "t": 37204.65,
      "d": 236.22000000000116,
      "v": 127
    },
    {
      "midi": 61,
      "hit": false,
      "t": 37204.65,
      "d": 314.9599999999991,
      "v": 127
    },
    {
      "midi": 61,
      "hit": false,
      "t": 37204.650000000016,
      "d": 314.9599999999991,
      "v": 127
    },
    {
      "midi": 61,
      "hit": false,
      "t": 37204.650000000016,
      "d": 314.9599999999991,
      "v": 127
    },
    {
      "midi": 61,
      "hit": false,
      "t": 37204.650000000016,
      "d": 314.9599999999991,
      "v": 127
    },
    {
      "midi": 50,
      "hit": false,
      "t": 37204.65000000005,
      "d": 236.22000000000116,
      "v": 127
    },
    {
      "midi": 49,
      "hit": false,
      "t": 37204.65000000009,
      "d": 236.22000000000116,
      "v": 117
    },
    {
      "midi": 37,
      "hit": false,
      "t": 37204.65000000009,
      "d": 236.22000000000116,
      "v": 117
    },
    {
      "midi": 61,
      "hit": false,
      "t": 37322.76000000005,
      "d": 314.9599999999991,
      "v": 127
    },
    {
      "midi": 52,
      "hit": false,
      "t": 37558.980000000054,
      "d": 157.47999999999593,
      "v": 127
    },
    {
      "midi": 49,
      "hit": false,
      "t": 37558.98000000009,
      "d": 157.4800000000032,
      "v": 117
    },
    {
      "midi": 35,
      "hit": false,
      "t": 37558.98000000009,
      "d": 157.4800000000032,
      "v": 117
    },
    {
      "midi": 73,
      "hit": false,
      "t": 37677.09,
      "d": 39.37000000000262,
      "v": 127
    },
    {
      "midi": 73,
      "hit": false,
      "t": 37677.090000000004,
      "d": 39.37000000000262,
      "v": 127
    },
    {
      "midi": 61,
      "hit": false,
      "t": 37677.09000000002,
      "d": 78.73999999999796,
      "v": 127
    },
    {
      "midi": 71,
      "hit": false,
      "t": 37795.2,
      "d": 157.4800000000032,
      "v": 127
    },
    {
      "midi": 71,
      "hit": false,
      "t": 37795.20000000001,
      "d": 157.4800000000032,
      "v": 127
    },
    {
      "midi": 71,
      "hit": false,
      "t": 37795.20000000001,
      "d": 157.4800000000032,
      "v": 127
    },
    {
      "midi": 71,
      "hit": false,
      "t": 37795.20000000002,
      "d": 157.4800000000032,
      "v": 127
    },
    {
      "midi": 49,
      "hit": false,
      "t": 37795.20000000005,
      "d": 157.4800000000032,
      "v": 127
    },
    {
      "midi": 37,
      "hit": false,
      "t": 37795.20000000009,
      "d": 157.4800000000032,
      "v": 117
    },
    {
      "midi": 33,
      "hit": false,
      "t": 37795.20000000009,
      "d": 157.4800000000032,
      "v": 117
    },
    {
      "midi": 69,
      "hit": false,
      "t": 38031.42,
      "d": 157.4800000000032,
      "v": 127
    },
    {
      "midi": 69,
      "hit": false,
      "t": 38031.42,
      "d": 157.4800000000032,
      "v": 127
    },
    {
      "midi": 69,
      "hit": false,
      "t": 38031.420000000006,
      "d": 157.4800000000032,
      "v": 127
    },
    {
      "midi": 69,
      "hit": false,
      "t": 38031.42000000001,
      "d": 157.4800000000032,
      "v": 127
    },
    {
      "midi": 69,
      "hit": false,
      "t": 38031.42000000001,
      "d": 157.4800000000032,
      "v": 127
    },
    {
      "midi": 69,
      "hit": false,
      "t": 38031.42000000002,
      "d": 157.4800000000032,
      "v": 127
    },
    {
      "midi": 36,
      "hit": false,
      "t": 38031.42000000005,
      "d": 157.47999999999593,
      "v": 127
    },
    {
      "midi": 45,
      "hit": false,
      "t": 38031.42000000009,
      "d": 157.4800000000032,
      "v": 117
    },
    {
      "midi": 33,
      "hit": false,
      "t": 38031.42000000009,
      "d": 157.4800000000032,
      "v": 117
    },
    {
      "midi": 68,
      "hit": false,
      "t": 38267.64,
      "d": 157.4800000000032,
      "v": 127
    },
    {
      "midi": 68,
      "hit": false,
      "t": 38267.640000000014,
      "d": 157.4800000000032,
      "v": 127
    },
    {
      "midi": 68,
      "hit": false,
      "t": 38267.640000000014,
      "d": 157.4800000000032,
      "v": 127
    },
    {
      "midi": 68,
      "hit": false,
      "t": 38267.64000000002,
      "d": 157.4800000000032,
      "v": 127
    },
    {
      "midi": 57,
      "hit": false,
      "t": 38267.64000000004,
      "d": 314.9599999999991,
      "v": 127
    },
    {
      "midi": 37,
      "hit": false,
      "t": 38267.640000000094,
      "d": 78.73999999999796,
      "v": 117
    },
    {
      "midi": 33,
      "hit": false,
      "t": 38267.640000000094,
      "d": 236.22000000000116,
      "v": 117
    },
    {
      "midi": 69,
      "hit": false,
      "t": 38385.75,
      "d": 157.4800000000032,
      "v": 127
    },
    {
      "midi": 69,
      "hit": false,
      "t": 38385.75000000001,
      "d": 157.4800000000032,
      "v": 127
    },
    {
      "midi": 45,
      "hit": false,
      "t": 38385.750000000095,
      "d": 157.4800000000032,
      "v": 117
    },
    {
      "midi": 66,
      "hit": false,
      "t": 38503.86,
      "d": 78.73999999999796,
      "v": 127
    },
    {
      "midi": 66,
      "hit": false,
      "t": 38503.860000000015,
      "d": 78.73999999999796,
      "v": 127
    },
    {
      "midi": 66,
      "hit": false,
      "t": 38503.860000000015,
      "d": 78.73999999999796,
      "v": 127
    },
    {
      "midi": 66,
      "hit": false,
      "t": 38503.86000000002,
      "d": 78.73999999999796,
      "v": 127
    },
    {
      "midi": 52,
      "hit": false,
      "t": 38503.860000000044,
      "d": 157.47999999999593,
      "v": 127
    },
    {
      "midi": 68,
      "hit": false,
      "t": 38621.97,
      "d": 314.9599999999991,
      "v": 127
    },
    {
      "midi": 68,
      "hit": false,
      "t": 38621.970000000016,
      "d": 314.9599999999991,
      "v": 127
    },
    {
      "midi": 68,
      "hit": false,
      "t": 38621.970000000016,
      "d": 314.9599999999991,
      "v": 127
    },
    {
      "midi": 68,
      "hit": false,
      "t": 38621.97000000002,
      "d": 314.9599999999991,
      "v": 127
    },
    {
      "midi": 37,
      "hit": false,
      "t": 38621.970000000096,
      "d": 78.73999999999796,
      "v": 117
    },
    {
      "midi": 33,
      "hit": false,
      "t": 38621.970000000096,
      "d": 78.73999999999796,
      "v": 117
    },
    {
      "midi": 68,
      "hit": false,
      "t": 38740.08,
      "d": 78.73999999999796,
      "v": 127
    },
    {
      "midi": 69,
      "hit": false,
      "t": 38740.08,
      "d": 157.4800000000032,
      "v": 127
    },
    {
      "midi": 68,
      "hit": false,
      "t": 38740.08000000001,
      "d": 78.73999999999796,
      "v": 127
    },
    {
      "midi": 69,
      "hit": false,
      "t": 38740.08000000001,
      "d": 157.4800000000032,
      "v": 127
    },
    {
      "midi": 56,
      "hit": false,
      "t": 38740.08000000004,
      "d": 78.73999999999796,
      "v": 127
    },
    {
      "midi": 57,
      "hit": false,
      "t": 38740.08000000004,
      "d": 157.4800000000032,
      "v": 127
    },
    {
      "midi": 50,
      "hit": false,
      "t": 38740.08000000004,
      "d": 236.22000000000844,
      "v": 127
    },
    {
      "midi": 49,
      "hit": false,
      "t": 38740.08000000004,
      "d": 314.9600000000064,
      "v": 127
    },
    {
      "midi": 35,
      "hit": false,
      "t": 38740.080000000096,
      "d": 157.4800000000032,
      "v": 117
    },
    {
      "midi": 44,
      "hit": false,
      "t": 38740.080000000096,
      "d": 157.4800000000032,
      "v": 117
    },
    {
      "midi": 68,
      "hit": false,
      "t": 38858.19,
      "d": 78.74000000000524,
      "v": 127
    },
    {
      "midi": 68,
      "hit": false,
      "t": 38858.19000000001,
      "d": 78.74000000000524,
      "v": 127
    },
    {
      "midi": 56,
      "hit": false,
      "t": 38858.19000000004,
      "d": 78.74000000000524,
      "v": 127
    },
    {
      "midi": 71,
      "hit": false,
      "t": 38976.30000000001,
      "d": 78.73999999999796,
      "v": 127
    },
    {
      "midi": 71,
      "hit": false,
      "t": 38976.30000000002,
      "d": 78.73999999999796,
      "v": 127
    },
    {
      "midi": 59,
      "hit": false,
      "t": 38976.30000000005,
      "d": 78.73999999999796,
      "v": 127
    },
    {
      "midi": 37,
      "hit": false,
      "t": 38976.3000000001,
      "d": 78.73999999999796,
      "v": 117
    },
    {
      "midi": 35,
      "hit": false,
      "t": 38976.3000000001,
      "d": 78.73999999999796,
      "v": 117
    },
    {
      "midi": 68,
      "hit": false,
      "t": 39094.41000000001,
      "d": 157.4800000000032,
      "v": 127
    },
    {
      "midi": 68,
      "hit": false,
      "t": 39094.41000000002,
      "d": 157.4800000000032,
      "v": 127
    },
    {
      "midi": 50,
      "hit": false,
      "t": 39094.41000000005,
      "d": 236.22000000000116,
      "v": 127
    },
    {
      "midi": 35,
      "hit": false,
      "t": 39094.4100000001,
      "d": 236.22000000000116,
      "v": 117
    },
    {
      "midi": 44,
      "hit": false,
      "t": 39094.4100000001,
      "d": 236.22000000000116,
      "v": 117
    },
    {
      "midi": 56,
      "hit": false,
      "t": 39212.52000000005,
      "d": 39.37000000000262,
      "v": 127
    },
    {
      "midi": 57,
      "hit": false,
      "t": 39212.52000000005,
      "d": 314.9599999999991,
      "v": 127
    },
    {
      "midi": 52,
      "hit": false,
      "t": 39448.74000000005,
      "d": 157.47999999999593,
      "v": 127
    },
    {
      "midi": 35,
      "hit": false,
      "t": 39448.7400000001,
      "d": 157.4800000000032,
      "v": 117
    },
    {
      "midi": 44,
      "hit": false,
      "t": 39448.7400000001,
      "d": 157.4800000000032,
      "v": 117
    },
    {
      "midi": 73,
      "hit": false,
      "t": 39684.95999999999,
      "d": 157.4800000000032,
      "v": 115
    },
    {
      "midi": 64,
      "hit": false,
      "t": 39684.96,
      "d": 629.9199999999983,
      "v": 127
    },
    {
      "midi": 64,
      "hit": false,
      "t": 39684.96,
      "d": 629.9199999999983,
      "v": 117
    },
    {
      "midi": 49,
      "hit": false,
      "t": 39684.96000000004,
      "d": 157.4800000000032,
      "v": 127
    },
    {
      "midi": 37,
      "hit": false,
      "t": 39684.9600000001,
      "d": 157.4800000000032,
      "v": 117
    },
    {
      "midi": 61,
      "hit": false,
      "t": 39921.18,
      "d": 157.4800000000032,
      "v": 127
    },
    {
      "midi": 61,
      "hit": false,
      "t": 39921.180000000015,
      "d": 157.4800000000032,
      "v": 127
    },
    {
      "midi": 61,
      "hit": false,
      "t": 39921.180000000015,
      "d": 157.4800000000032,
      "v": 127
    },
    {
      "midi": 61,
      "hit": false,
      "t": 39921.18000000002,
      "d": 157.4800000000032,
      "v": 127
    },
    {
      "midi": 36,
      "hit": false,
      "t": 39921.180000000044,
      "d": 157.47999999999593,
      "v": 127
    },
    {
      "midi": 47,
      "hit": false,
      "t": 39921.1800000001,
      "d": 157.4800000000032,
      "v": 117
    },
    {
      "midi": 37,
      "hit": false,
      "t": 39921.1800000001,
      "d": 157.4800000000032,
      "v": 117
    },
    {
      "midi": 61,
      "hit": false,
      "t": 40157.4,
      "d": 157.4800000000032,
      "v": 127
    },
    {
      "midi": 61,
      "hit": false,
      "t": 40157.400000000016,
      "d": 157.4800000000032,
      "v": 127
    },
    {
      "midi": 61,
      "hit": false,
      "t": 40157.400000000016,
      "d": 157.4800000000032,
      "v": 127
    },
    {
      "midi": 61,
      "hit": false,
      "t": 40157.40000000002,
      "d": 157.4800000000032,
      "v": 127
    },
    {
      "midi": 61,
      "hit": false,
      "t": 40157.40000000004,
      "d": 314.9599999999991,
      "v": 127
    },
    {
      "midi": 37,
      "hit": false,
      "t": 40157.4000000001,
      "d": 78.73999999999796,
      "v": 117
    },
    {
      "midi": 47,
      "hit": false,
      "t": 40157.4000000001,
      "d": 78.73999999999796,
      "v": 117
    },
    {
      "midi": 47,
      "hit": false,
      "t": 40275.510000000104,
      "d": 78.73999999999796,
      "v": 117
    },
    {
      "midi": 61,
      "hit": false,
      "t": 40393.62,
      "d": 157.4800000000032,
      "v": 127
    },
    {
      "midi": 61,
      "hit": false,
      "t": 40393.62000000002,
      "d": 157.4800000000032,
      "v": 127
    },
    {
      "midi": 61,
      "hit": false,
      "t": 40393.62000000002,
      "d": 157.4800000000032,
      "v": 127
    },
    {
      "midi": 61,
      "hit": false,
      "t": 40393.620000000024,
      "d": 157.4800000000032,
      "v": 127
    },
    {
      "midi": 52,
      "hit": false,
      "t": 40393.62000000004,
      "d": 157.47999999999593,
      "v": 127
    },
    {
      "midi": 47,
      "hit": false,
      "t": 40393.620000000104,
      "d": 78.73999999999796,
      "v": 117
    },
    {
      "midi": 36,
      "hit": false,
      "t": 40511.730000000105,
      "d": 78.73999999999796,
      "v": 117
    },
    {
      "midi": 35,
      "hit": false,
      "t": 40511.730000000105,
      "d": 78.73999999999796,
      "v": 117
    },
    {
      "midi": 66,
      "hit": false,
      "t": 40629.84,
      "d": 866.1400000000067,
      "v": 127
    },
    {
      "midi": 66,
      "hit": false,
      "t": 40629.84,
      "d": 866.1400000000067,
      "v": 117
    },
    {
      "midi": 63,
      "hit": false,
      "t": 40629.840000000004,
      "d": 236.22000000000116,
      "v": 127
    },
    {
      "midi": 59,
      "hit": false,
      "t": 40629.84000000001,
      "d": 78.73999999999796,
      "v": 127
    },
    {
      "midi": 63,
      "hit": false,
      "t": 40629.84000000002,
      "d": 236.22000000000116,
      "v": 127
    },
    {
      "midi": 63,
      "hit": false,
      "t": 40629.84000000002,
      "d": 236.22000000000116,
      "v": 127
    },
    {
      "midi": 63,
      "hit": false,
      "t": 40629.840000000026,
      "d": 236.22000000000116,
      "v": 127
    },
    {
      "midi": 50,
      "hit": false,
      "t": 40629.84000000003,
      "d": 236.22000000000116,
      "v": 127
    },
    {
      "midi": 49,
      "hit": false,
      "t": 40629.84000000003,
      "d": 314.9599999999991,
      "v": 127
    },
    {
      "midi": 45,
      "hit": false,
      "t": 40629.840000000106,
      "d": 157.4800000000032,
      "v": 117
    },
    {
      "midi": 37,
      "hit": false,
      "t": 40629.840000000106,
      "d": 157.4800000000032,
      "v": 117
    },
    {
      "midi": 44,
      "hit": false,
      "t": 40629.840000000106,
      "d": 236.22000000000116,
      "v": 117
    },
    {
      "midi": 59,
      "hit": false,
      "t": 40747.95000000001,
      "d": 157.4800000000032,
      "v": 127
    },
    {
      "midi": 37,
      "hit": false,
      "t": 40866.06000000011,
      "d": 78.73999999999796,
      "v": 117
    },
    {
      "midi": 63,
      "hit": false,
      "t": 40984.170000000006,
      "d": 157.4800000000032,
      "v": 127
    },
    {
      "midi": 59,
      "hit": false,
      "t": 40984.17000000001,
      "d": 78.73999999999796,
      "v": 127
    },
    {
      "midi": 63,
      "hit": false,
      "t": 40984.17000000002,
      "d": 157.4800000000032,
      "v": 127
    },
    {
      "midi": 63,
      "hit": false,
      "t": 40984.17000000002,
      "d": 157.4800000000032,
      "v": 127
    },
    {
      "midi": 63,
      "hit": false,
      "t": 40984.17000000003,
      "d": 157.4800000000032,
      "v": 127
    },
    {
      "midi": 50,
      "hit": false,
      "t": 40984.170000000035,
      "d": 236.22000000000116,
      "v": 127
    },
    {
      "midi": 47,
      "hit": false,
      "t": 40984.17000000011,
      "d": 236.22000000000116,
      "v": 117
    },
    {
      "midi": 37,
      "hit": false,
      "t": 40984.17000000011,
      "d": 236.22000000000116,
      "v": 117
    },
    {
      "midi": 56,
      "hit": false,
      "t": 41102.28000000001,
      "d": 157.4800000000032,
      "v": 127
    },
    {
      "midi": 63,
      "hit": false,
      "t": 41102.280000000035,
      "d": 314.9599999999991,
      "v": 127
    },
    {
      "midi": 68,
      "hit": false,
      "t": 41338.5,
      "d": 1338.5800000000017,
      "v": 127
    },
    {
      "midi": 68,
      "hit": false,
      "t": 41338.5,
      "d": 1338.5800000000017,
      "v": 117
    },
    {
      "midi": 59,
      "hit": false,
      "t": 41338.50000000001,
      "d": 236.22000000000116,
      "v": 127
    },
    {
      "midi": 59,
      "hit": false,
      "t": 41338.500000000015,
      "d": 157.4800000000032,
      "v": 127
    },
    {
      "midi": 59,
      "hit": false,
      "t": 41338.50000000002,
      "d": 236.22000000000116,
      "v": 127
    },
    {
      "midi": 59,
      "hit": false,
      "t": 41338.50000000002,
      "d": 236.22000000000116,
      "v": 127
    },
    {
      "midi": 59,
      "hit": false,
      "t": 41338.50000000003,
      "d": 157.4800000000032,
      "v": 127
    },
    {
      "midi": 52,
      "hit": false,
      "t": 41338.50000000004,
      "d": 157.47999999999593,
      "v": 127
    },
    {
      "midi": 49,
      "hit": false,
      "t": 41338.50000000011,
      "d": 157.4800000000032,
      "v": 117
    },
    {
      "midi": 35,
      "hit": false,
      "t": 41338.50000000011,
      "d": 157.4800000000032,
      "v": 117
    },
    {
      "midi": 49,
      "hit": false,
      "t": 41574.72000000003,
      "d": 157.4800000000032,
      "v": 127
    },
    {
      "midi": 37,
      "hit": false,
      "t": 41574.72000000011,
      "d": 157.4800000000032,
      "v": 117
    },
    {
      "midi": 64,
      "hit": false,
      "t": 41810.94000000001,
      "d": 157.4800000000032,
      "v": 127
    },
    {
      "midi": 64,
      "hit": false,
      "t": 41810.940000000024,
      "d": 157.4800000000032,
      "v": 127
    },
    {
      "midi": 64,
      "hit": false,
      "t": 41810.940000000024,
      "d": 157.4800000000032,
      "v": 127
    },
    {
      "midi": 36,
      "hit": false,
      "t": 41810.94000000003,
      "d": 157.47999999999593,
      "v": 127
    },
    {
      "midi": 64,
      "hit": false,
      "t": 41810.94000000003,
      "d": 157.4800000000032,
      "v": 127
    },
    {
      "midi": 52,
      "hit": false,
      "t": 41810.94000000011,
      "d": 157.4800000000032,
      "v": 117
    },
    {
      "midi": 37,
      "hit": false,
      "t": 41810.94000000011,
      "d": 157.4800000000032,
      "v": 117
    },
    {
      "midi": 64,
      "hit": false,
      "t": 42047.16000000001,
      "d": 157.4800000000032,
      "v": 127
    },
    {
      "midi": 64,
      "hit": false,
      "t": 42047.160000000025,
      "d": 314.9599999999991,
      "v": 127
    },
    {
      "midi": 64,
      "hit": false,
      "t": 42047.160000000025,
      "d": 157.4800000000032,
      "v": 127
    },
    {
      "midi": 64,
      "hit": false,
      "t": 42047.160000000025,
      "d": 157.4800000000032,
      "v": 127
    },
    {
      "midi": 64,
      "hit": false,
      "t": 42047.16000000003,
      "d": 157.4800000000032,
      "v": 127
    },
    {
      "midi": 37,
      "hit": false,
      "t": 42047.16000000011,
      "d": 78.73999999999796,
      "v": 117
    },
    {
      "midi": 52,
      "hit": false,
      "t": 42165.27000000011,
      "d": 39.37000000000262,
      "v": 117
    },
    {
      "midi": 61,
      "hit": false,
      "t": 42283.38000000001,
      "d": 157.4800000000032,
      "v": 127
    },
    {
      "midi": 52,
      "hit": false,
      "t": 42283.38000000003,
      "d": 157.47999999999593,
      "v": 127
    },
    {
      "midi": 61,
      "hit": false,
      "t": 42283.38000000003,
      "d": 157.4800000000032,
      "v": 127
    },
    {
      "midi": 61,
      "hit": false,
      "t": 42283.38000000003,
      "d": 157.4800000000032,
      "v": 127
    },
    {
      "midi": 61,
      "hit": false,
      "t": 42283.380000000034,
      "d": 157.4800000000032,
      "v": 127
    },
    {
      "midi": 49,
      "hit": false,
      "t": 42283.380000000114,
      "d": 157.4800000000032,
      "v": 117
    },
    {
      "midi": 37,
      "hit": false,
      "t": 42401.490000000114,
      "d": 78.74000000000524,
      "v": 117
    },
    {
      "midi": 35,
      "hit": false,
      "t": 42401.490000000114,
      "d": 78.74000000000524,
      "v": 117
    },
    {
      "midi": 64,
      "hit": false,
      "t": 42519.60000000001,
      "d": 236.22000000000116,
      "v": 127
    },
    {
      "midi": 50,
      "hit": false,
      "t": 42519.60000000002,
      "d": 236.22000000000116,
      "v": 127
    },
    {
      "midi": 49,
      "hit": false,
      "t": 42519.60000000002,
      "d": 314.9599999999991,
      "v": 127
    },
    {
      "midi": 64,
      "hit": false,
      "t": 42519.60000000003,
      "d": 236.22000000000116,
      "v": 127
    },
    {
      "midi": 64,
      "hit": false,
      "t": 42519.60000000003,
      "d": 236.22000000000116,
      "v": 127
    },
    {
      "midi": 64,
      "hit": false,
      "t": 42519.600000000035,
      "d": 236.22000000000116,
      "v": 127
    },
    {
      "midi": 52,
      "hit": false,
      "t": 42519.60000000012,
      "d": 157.4800000000032,
      "v": 117
    },
    {
      "midi": 37,
      "hit": false,
      "t": 42519.60000000012,
      "d": 157.4800000000032,
      "v": 117
    },
    {
      "midi": 37,
      "hit": false,
      "t": 42755.82000000012,
      "d": 78.73999999999796,
      "v": 117
    },
    {
      "midi": 63,
      "hit": false,
      "t": 42873.930000000015,
      "d": 472.4400000000023,
      "v": 127
    },
    {
      "midi": 50,
      "hit": false,
      "t": 42873.93000000002,
      "d": 236.22000000000116,
      "v": 127
    },
    {
      "midi": 63,
      "hit": false,
      "t": 42873.93000000003,
      "d": 472.4400000000023,
      "v": 127
    },
    {
      "midi": 63,
      "hit": false,
      "t": 42873.93000000003,
      "d": 472.4400000000023,
      "v": 127
    },
    {
      "midi": 51,
      "hit": false,
      "t": 42873.930000000124,
      "d": 236.22000000000116,
      "v": 117
    },
    {
      "midi": 37,
      "hit": false,
      "t": 42873.930000000124,
      "d": 236.22000000000116,
      "v": 117
    },
    {
      "midi": 66,
      "hit": false,
      "t": 42992.04,
      "d": 629.9200000000055,
      "v": 127
    },
    {
      "midi": 66,
      "hit": false,
      "t": 42992.04,
      "d": 629.9200000000055,
      "v": 117
    },
    {
      "midi": 63,
      "hit": false,
      "t": 42992.04000000002,
      "d": 314.9599999999991,
      "v": 127
    },
    {
      "midi": 63,
      "hit": false,
      "t": 42992.04000000004,
      "d": 314.9599999999991,
      "v": 127
    },
    {
      "midi": 52,
      "hit": false,
      "t": 43228.260000000024,
      "d": 157.47999999999593,
      "v": 127
    },
    {
      "midi": 49,
      "hit": false,
      "t": 43228.260000000126,
      "d": 157.4800000000032,
      "v": 117
    },
    {
      "midi": 35,
      "hit": false,
      "t": 43228.260000000126,
      "d": 157.4800000000032,
      "v": 117
    },
    {
      "midi": 64,
      "hit": false,
      "t": 43464.48,
      "d": 629.9200000000055,
      "v": 127
    },
    {
      "midi": 64,
      "hit": false,
      "t": 43464.48,
      "d": 629.9200000000055,
      "v": 117
    },
    {
      "midi": 49,
      "hit": false,
      "t": 43464.48000000002,
      "d": 157.4800000000032,
      "v": 127
    },
    {
      "midi": 37,
      "hit": false,
      "t": 43464.48000000013,
      "d": 157.4800000000032,
      "v": 117
    },
    {
      "midi": 36,
      "hit": false,
      "t": 43700.70000000002,
      "d": 157.47999999999593,
      "v": 127
    },
    {
      "midi": 61,
      "hit": false,
      "t": 43700.70000000002,
      "d": 157.4800000000032,
      "v": 127
    },
    {
      "midi": 61,
      "hit": false,
      "t": 43700.70000000003,
      "d": 157.4800000000032,
      "v": 127
    },
    {
      "midi": 61,
      "hit": false,
      "t": 43700.70000000003,
      "d": 157.4800000000032,
      "v": 127
    },
    {
      "midi": 61,
      "hit": false,
      "t": 43700.70000000003,
      "d": 157.4800000000032,
      "v": 127
    },
    {
      "midi": 47,
      "hit": false,
      "t": 43700.70000000013,
      "d": 157.4800000000032,
      "v": 117
    },
    {
      "midi": 37,
      "hit": false,
      "t": 43700.70000000013,
      "d": 157.4800000000032,
      "v": 117
    },
    {
      "midi": 61,
      "hit": false,
      "t": 43936.92000000001,
      "d": 314.9599999999991,
      "v": 127
    },
    {
      "midi": 61,
      "hit": false,
      "t": 43936.92000000002,
      "d": 157.4800000000032,
      "v": 127
    },
    {
      "midi": 61,
      "hit": false,
      "t": 43936.920000000035,
      "d": 157.4800000000032,
      "v": 127
    },
    {
      "midi": 61,
      "hit": false,
      "t": 43936.920000000035,
      "d": 157.4800000000032,
      "v": 127
    },
    {
      "midi": 61,
      "hit": false,
      "t": 43936.920000000035,
      "d": 157.4800000000032,
      "v": 127
    },
    {
      "midi": 37,
      "hit": false,
      "t": 43936.92000000013,
      "d": 78.73999999999796,
      "v": 117
    },
    {
      "midi": 47,
      "hit": false,
      "t": 44055.03000000013,
      "d": 39.37000000000262,
      "v": 117
    },
    {
      "midi": 52,
      "hit": false,
      "t": 44173.140000000014,
      "d": 157.47999999999593,
      "v": 127
    },
    {
      "midi": 61,
      "hit": false,
      "t": 44173.14000000002,
      "d": 157.4800000000032,
      "v": 127
    },
    {
      "midi": 61,
      "hit": false,
      "t": 44173.140000000036,
      "d": 157.4800000000032,
      "v": 127
    },
    {
      "midi": 61,
      "hit": false,
      "t": 44173.140000000036,
      "d": 157.4800000000032,
      "v": 127
    },
    {
      "midi": 61,
      "hit": false,
      "t": 44173.140000000036,
      "d": 157.4800000000032,
      "v": 127
    },
    {
      "midi": 47,
      "hit": false,
      "t": 44173.14000000013,
      "d": 39.37000000000262,
      "v": 117
    },
    {
      "midi": 37,
      "hit": false,
      "t": 44291.25000000013,
      "d": 78.74000000000524,
      "v": 117
    },
    {
      "midi": 35,
      "hit": false,
      "t": 44291.25000000013,
      "d": 78.74000000000524,
      "v": 117
    },
    {
      "midi": 49,
      "hit": false,
      "t": 44409.36000000001,
      "d": 314.9599999999991,
      "v": 127
    },
    {
      "midi": 50,
      "hit": false,
      "t": 44409.36000000001,
      "d": 314.9599999999991,
      "v": 127
    },
    {
      "midi": 66,
      "hit": false,
      "t": 44409.36000000001,
      "d": 866.1400000000067,
      "v": 127
    },
    {
      "midi": 66,
      "hit": false,
      "t": 44409.36000000001,
      "d": 866.1400000000067,
      "v": 117
    },
    {
      "midi": 63,
      "hit": false,
      "t": 44409.36000000002,
      "d": 236.22000000000116,
      "v": 127
    },
    {
      "midi": 63,
      "hit": false,
      "t": 44409.36000000004,
      "d": 236.22000000000116,
      "v": 127
    },
    {
      "midi": 63,
      "hit": false,
      "t": 44409.36000000004,
      "d": 236.22000000000116,
      "v": 127
    },
    {
      "midi": 63,
      "hit": false,
      "t": 44409.36000000004,
      "d": 236.22000000000116,
      "v": 127
    },
    {
      "midi": 45,
      "hit": false,
      "t": 44409.36000000014,
      "d": 157.4800000000032,
      "v": 117
    },
    {
      "midi": 37,
      "hit": false,
      "t": 44409.36000000014,
      "d": 157.4800000000032,
      "v": 117
    },
    {
      "midi": 44,
      "hit": false,
      "t": 44409.36000000014,
      "d": 236.22000000000116,
      "v": 117
    },
    {
      "midi": 37,
      "hit": false,
      "t": 44645.58000000014,
      "d": 78.73999999999796,
      "v": 117
    },
    {
      "midi": 50,
      "hit": false,
      "t": 44763.69000000001,
      "d": 236.22000000000116,
      "v": 127
    },
    {
      "midi": 63,
      "hit": false,
      "t": 44763.690000000024,
      "d": 157.4800000000032,
      "v": 127
    },
    {
      "midi": 63,
      "hit": false,
      "t": 44763.69000000004,
      "d": 157.4800000000032,
      "v": 127
    },
    {
      "midi": 63,
      "hit": false,
      "t": 44763.69000000004,
      "d": 157.4800000000032,
      "v": 127
    },
    {
      "midi": 63,
      "hit": false,
      "t": 44763.69000000004,
      "d": 157.4800000000032,
      "v": 127
    },
    {
      "midi": 47,
      "hit": false,
      "t": 44763.69000000014,
      "d": 236.22000000000116,
      "v": 117
    },
    {
      "midi": 37,
      "hit": false,
      "t": 44763.69000000014,
      "d": 236.22000000000116,
      "v": 117
    },
    {
      "midi": 63,
      "hit": false,
      "t": 44881.80000000001,
      "d": 314.9599999999991,
      "v": 127
    },
    {
      "midi": 52,
      "hit": false,
      "t": 45118.02000000001,
      "d": 157.47999999999593,
      "v": 127
    },
    {
      "midi": 68,
      "hit": false,
      "t": 45118.02000000001,
      "d": 1338.5800000000017,
      "v": 127
    },
    {
      "midi": 68,
      "hit": false,
      "t": 45118.02000000001,
      "d": 1338.5800000000017,
      "v": 117
    },
    {
      "midi": 63,
      "hit": false,
      "t": 45118.020000000026,
      "d": 236.22000000000116,
      "v": 127
    },
    {
      "midi": 63,
      "hit": false,
      "t": 45118.02000000004,
      "d": 236.22000000000116,
      "v": 127
    },
    {
      "midi": 63,
      "hit": false,
      "t": 45118.02000000004,
      "d": 236.22000000000116,
      "v": 127
    },
    {
      "midi": 63,
      "hit": false,
      "t": 45118.02000000004,
      "d": 236.22000000000116,
      "v": 127
    },
    {
      "midi": 49,
      "hit": false,
      "t": 45118.02000000014,
      "d": 157.4800000000032,
      "v": 117
    },
    {
      "midi": 35,
      "hit": false,
      "t": 45118.02000000014,
      "d": 157.4800000000032,
      "v": 117
    },
    {
      "midi": 49,
      "hit": false,
      "t": 45354.240000000005,
      "d": 157.4800000000032,
      "v": 127
    },
    {
      "midi": 36,
      "hit": false,
      "t": 45590.46000000001,
      "d": 157.47999999999593,
      "v": 127
    },
    {
      "midi": 64,
      "hit": false,
      "t": 45590.46000000003,
      "d": 157.4800000000032,
      "v": 127
    },
    {
      "midi": 64,
      "hit": false,
      "t": 45590.46000000004,
      "d": 157.4800000000032,
      "v": 127
    },
    {
      "midi": 64,
      "hit": false,
      "t": 45590.46000000004,
      "d": 157.4800000000032,
      "v": 127
    },
    {
      "midi": 64,
      "hit": false,
      "t": 45590.46000000004,
      "d": 157.4800000000032,
      "v": 127
    },
    {
      "midi": 64,
      "hit": false,
      "t": 45826.68,
      "d": 314.9599999999991,
      "v": 127
    },
    {
      "midi": 64,
      "hit": false,
      "t": 45826.68000000003,
      "d": 157.4800000000032,
      "v": 127
    },
    {
      "midi": 64,
      "hit": false,
      "t": 45826.680000000044,
      "d": 157.4800000000032,
      "v": 127
    },
    {
      "midi": 64,
      "hit": false,
      "t": 45826.680000000044,
      "d": 157.4800000000032,
      "v": 127
    },
    {
      "midi": 64,
      "hit": false,
      "t": 45826.680000000044,
      "d": 157.4800000000032,
      "v": 127
    },
    {
      "midi": 52,
      "hit": false,
      "t": 46062.9,
      "d": 157.47999999999593,
      "v": 127
    },
    {
      "midi": 61,
      "hit": false,
      "t": 46062.90000000003,
      "d": 157.4800000000032,
      "v": 127
    },
    {
      "midi": 61,
      "hit": false,
      "t": 46062.900000000045,
      "d": 157.4800000000032,
      "v": 127
    },
    {
      "midi": 61,
      "hit": false,
      "t": 46062.900000000045,
      "d": 157.4800000000032,
      "v": 127
    },
    {
      "midi": 61,
      "hit": false,
      "t": 46062.900000000045,
      "d": 157.4800000000032,
      "v": 127
    },
    {
      "midi": 49,
      "hit": false,
      "t": 46299.119999999995,
      "d": 314.9599999999991,
      "v": 127
    },
    {
      "midi": 50,
      "hit": false,
      "t": 46299.119999999995,
      "d": 314.9599999999991,
      "v": 127
    },
    {
      "midi": 64,
      "hit": false,
      "t": 46299.119999999995,
      "d": 236.22000000000116,
      "v": 115
    },
    {
      "midi": 64,
      "hit": false,
      "t": 46299.12000000003,
      "d": 236.22000000000116,
      "v": 127
    },
    {
      "midi": 64,
      "hit": false,
      "t": 46299.120000000046,
      "d": 236.22000000000116,
      "v": 127
    },
    {
      "midi": 64,
      "hit": false,
      "t": 46299.120000000046,
      "d": 236.22000000000116,
      "v": 127
    },
    {
      "midi": 64,
      "hit": false,
      "t": 46299.120000000046,
      "d": 236.22000000000116,
      "v": 127
    },
    {
      "midi": 50,
      "hit": false,
      "t": 46653.45,
      "d": 236.22000000000116,
      "v": 127
    },
    {
      "midi": 66,
      "hit": false,
      "t": 46653.45,
      "d": 236.22000000000116,
      "v": 115
    },
    {
      "midi": 66,
      "hit": false,
      "t": 46653.45000000003,
      "d": 236.22000000000116,
      "v": 127
    },
    {
      "midi": 66,
      "hit": false,
      "t": 46653.45000000005,
      "d": 236.22000000000116,
      "v": 127
    },
    {
      "midi": 66,
      "hit": false,
      "t": 46653.45000000005,
      "d": 236.22000000000116,
      "v": 127
    },
    {
      "midi": 66,
      "hit": false,
      "t": 46653.45000000005,
      "d": 236.22000000000116,
      "v": 127
    },
    {
      "midi": 66,
      "hit": false,
      "t": 46771.56,
      "d": 314.9599999999991,
      "v": 127
    },
    {
      "midi": 52,
      "hit": false,
      "t": 47007.78,
      "d": 157.47999999999593,
      "v": 127
    },
    {
      "midi": 68,
      "hit": false,
      "t": 47007.78,
      "d": 157.4800000000032,
      "v": 115
    },
    {
      "midi": 68,
      "hit": false,
      "t": 47007.780000000035,
      "d": 157.4800000000032,
      "v": 127
    },
    {
      "midi": 68,
      "hit": false,
      "t": 47007.78000000005,
      "d": 157.4800000000032,
      "v": 127
    },
    {
      "midi": 68,
      "hit": false,
      "t": 47007.78000000005,
      "d": 157.4800000000032,
      "v": 127
    },
    {
      "midi": 68,
      "hit": false,
      "t": 47007.78000000005,
      "d": 157.4800000000032,
      "v": 127
    },
    {
      "midi": 49,
      "hit": false,
      "t": 47243.99999999999,
      "d": 157.4800000000032,
      "v": 127
    },
    {
      "midi": 64,
      "hit": false,
      "t": 47244.00000000003,
      "d": 157.4800000000032,
      "v": 127
    },
    {
      "midi": 52,
      "hit": false,
      "t": 47244.00000000003,
      "d": 157.4800000000032,
      "v": 127
    },
    {
      "midi": 68,
      "hit": false,
      "t": 47244.00000000004,
      "d": 629.9199999999983,
      "v": 127
    },
    {
      "midi": 68,
      "hit": false,
      "t": 47244.00000000005,
      "d": 629.9199999999983,
      "v": 127
    },
    {
      "midi": 68,
      "hit": false,
      "t": 47244.00000000005,
      "d": 629.9199999999983,
      "v": 127
    },
    {
      "midi": 68,
      "hit": false,
      "t": 47244.00000000005,
      "d": 629.9199999999983,
      "v": 127
    },
    {
      "midi": 37,
      "hit": false,
      "t": 47244.000000000146,
      "d": 157.4800000000032,
      "v": 117
    },
    {
      "midi": 36,
      "hit": false,
      "t": 47480.219999999994,
      "d": 157.47999999999593,
      "v": 127
    },
    {
      "midi": 68,
      "hit": false,
      "t": 47480.220000000016,
      "d": 236.22000000000116,
      "v": 127
    },
    {
      "midi": 64,
      "hit": false,
      "t": 47480.220000000016,
      "d": 236.22000000000116,
      "v": 127
    },
    {
      "midi": 64,
      "hit": false,
      "t": 47480.22000000003,
      "d": 157.4800000000032,
      "v": 127
    },
    {
      "midi": 52,
      "hit": false,
      "t": 47480.22000000003,
      "d": 157.4800000000032,
      "v": 127
    },
    {
      "midi": 37,
      "hit": false,
      "t": 47480.22000000015,
      "d": 157.4800000000032,
      "v": 117
    },
    {
      "midi": 44,
      "hit": false,
      "t": 47480.22000000015,
      "d": 157.4800000000032,
      "v": 117
    },
    {
      "midi": 63,
      "hit": false,
      "t": 47716.43999999999,
      "d": 314.9599999999991,
      "v": 127
    },
    {
      "midi": 64,
      "hit": false,
      "t": 47716.44000000003,
      "d": 157.4800000000032,
      "v": 127
    },
    {
      "midi": 52,
      "hit": false,
      "t": 47716.44000000003,
      "d": 157.4800000000032,
      "v": 127
    },
    {
      "midi": 37,
      "hit": false,
      "t": 47716.44000000015,
      "d": 78.73999999999796,
      "v": 117
    },
    {
      "midi": 44,
      "hit": false,
      "t": 47716.44000000015,
      "d": 78.73999999999796,
      "v": 117
    },
    {
      "midi": 68,
      "hit": false,
      "t": 47834.55000000002,
      "d": 236.22000000000116,
      "v": 127
    },
    {
      "midi": 64,
      "hit": false,
      "t": 47834.55000000002,
      "d": 236.22000000000116,
      "v": 127
    },
    {
      "midi": 66,
      "hit": false,
      "t": 47834.55000000002,
      "d": 236.22000000000116,
      "v": 127
    },
    {
      "midi": 44,
      "hit": false,
      "t": 47834.55000000015,
      "d": 78.73999999999796,
      "v": 117
    },
    {
      "midi": 52,
      "hit": false,
      "t": 47952.65999999999,
      "d": 157.47999999999593,
      "v": 127
    },
    {
      "midi": 64,
      "hit": false,
      "t": 47952.66000000003,
      "d": 78.73999999999796,
      "v": 127
    },
    {
      "midi": 52,
      "hit": false,
      "t": 47952.66000000003,
      "d": 78.73999999999796,
      "v": 127
    },
    {
      "midi": 44,
      "hit": false,
      "t": 47952.66000000015,
      "d": 78.73999999999796,
      "v": 117
    },
    {
      "midi": 64,
      "hit": false,
      "t": 48070.77000000003,
      "d": 78.73999999999796,
      "v": 127
    },
    {
      "midi": 52,
      "hit": false,
      "t": 48070.77000000003,
      "d": 78.73999999999796,
      "v": 127
    },
    {
      "midi": 37,
      "hit": false,
      "t": 48070.77000000015,
      "d": 78.73999999999796,
      "v": 117
    },
    {
      "midi": 35,
      "hit": false,
      "t": 48070.77000000015,
      "d": 78.73999999999796,
      "v": 117
    },
    {
      "midi": 49,
      "hit": false,
      "t": 48188.87999999998,
      "d": 314.9599999999991,
      "v": 127
    },
    {
      "midi": 50,
      "hit": false,
      "t": 48188.87999999998,
      "d": 314.9599999999991,
      "v": 127
    },
    {
      "midi": 68,
      "hit": false,
      "t": 48188.88000000002,
      "d": 314.9599999999991,
      "v": 127
    },
    {
      "midi": 63,
      "hit": false,
      "t": 48188.88000000002,
      "d": 314.9599999999991,
      "v": 127
    },
    {
      "midi": 63,
      "hit": false,
      "t": 48188.880000000034,
      "d": 78.73999999999796,
      "v": 127
    },
    {
      "midi": 51,
      "hit": false,
      "t": 48188.880000000034,
      "d": 78.73999999999796,
      "v": 127
    },
    {
      "midi": 37,
      "hit": false,
      "t": 48188.88000000015,
      "d": 157.4800000000032,
      "v": 117
    },
    {
      "midi": 44,
      "hit": false,
      "t": 48188.88000000015,
      "d": 157.4800000000032,
      "v": 117
    },
    {
      "midi": 63,
      "hit": false,
      "t": 48306.990000000034,
      "d": 78.73999999999796,
      "v": 127
    },
    {
      "midi": 51,
      "hit": false,
      "t": 48306.990000000034,
      "d": 78.73999999999796,
      "v": 127
    },
    {
      "midi": 68,
      "hit": false,
      "t": 48425.1,
      "d": 157.4800000000032,
      "v": 115
    },
    {
      "midi": 63,
      "hit": false,
      "t": 48425.100000000035,
      "d": 78.73999999999796,
      "v": 127
    },
    {
      "midi": 51,
      "hit": false,
      "t": 48425.100000000035,
      "d": 78.73999999999796,
      "v": 127
    },
    {
      "midi": 37,
      "hit": false,
      "t": 48425.10000000015,
      "d": 78.73999999999796,
      "v": 117
    },
    {
      "midi": 50,
      "hit": false,
      "t": 48543.209999999985,
      "d": 236.22000000000116,
      "v": 127
    },
    {
      "midi": 63,
      "hit": false,
      "t": 48543.210000000036,
      "d": 78.73999999999796,
      "v": 127
    },
    {
      "midi": 51,
      "hit": false,
      "t": 48543.210000000036,
      "d": 78.73999999999796,
      "v": 127
    },
    {
      "midi": 37,
      "hit": false,
      "t": 48543.21000000015,
      "d": 236.22000000000116,
      "v": 117
    },
    {
      "midi": 44,
      "hit": false,
      "t": 48543.21000000015,
      "d": 236.22000000000116,
      "v": 117
    },
    {
      "midi": 63,
      "hit": false,
      "t": 48661.319999999985,
      "d": 314.9599999999991,
      "v": 127
    },
    {
      "midi": 63,
      "hit": false,
      "t": 48661.32,
      "d": 157.4800000000032,
      "v": 115
    },
    {
      "midi": 68,
      "hit": false,
      "t": 48661.32000000002,
      "d": 314.9599999999991,
      "v": 127
    },
    {
      "midi": 63,
      "hit": false,
      "t": 48661.32000000002,
      "d": 314.9599999999991,
      "v": 127
    },
    {
      "midi": 63,
      "hit": false,
      "t": 48661.320000000036,
      "d": 78.73999999999796,
      "v": 127
    },
    {
      "midi": 51,
      "hit": false,
      "t": 48661.320000000036,
      "d": 78.73999999999796,
      "v": 127
    },
    {
      "midi": 63,
      "hit": false,
      "t": 48779.43000000004,
      "d": 78.73999999999796,
      "v": 127
    },
    {
      "midi": 51,
      "hit": false,
      "t": 48779.43000000004,
      "d": 78.73999999999796,
      "v": 127
    },
    {
      "midi": 52,
      "hit": false,
      "t": 48897.539999999986,
      "d": 157.47999999999593,
      "v": 127
    },
    {
      "midi": 56,
      "hit": false,
      "t": 48897.54,
      "d": 157.4800000000032,
      "v": 115
    },
    {
      "midi": 63,
      "hit": false,
      "t": 48897.54000000004,
      "d": 157.4800000000032,
      "v": 127
    },
    {
      "midi": 51,
      "hit": false,
      "t": 48897.54000000004,
      "d": 157.4800000000032,
      "v": 127
    },
    {
      "midi": 35,
      "hit": false,
      "t": 48897.540000000154,
      "d": 157.4800000000032,
      "v": 117
    },
    {
      "midi": 44,
      "hit": false,
      "t": 48897.540000000154,
      "d": 157.4800000000032,
      "v": 117
    },
    {
      "midi": 37,
      "hit": false,
      "t": 49133.76000000001,
      "d": 157.4800000000032,
      "v": 127
    },
    {
      "midi": 64,
      "hit": false,
      "t": 49133.76000000002,
      "d": 2047.2400000000052,
      "v": 127
    },
    {
      "midi": 49,
      "hit": false,
      "t": 49133.76000000004,
      "d": 157.4800000000032,
      "v": 127
    },
    {
      "midi": 61,
      "hit": false,
      "t": 49133.76000000004,
      "d": 157.4800000000032,
      "v": 127
    },
    {
      "midi": 64,
      "hit": false,
      "t": 49133.760000000046,
      "d": 314.9599999999991,
      "v": 127
    },
    {
      "midi": 49,
      "hit": false,
      "t": 49133.760000000155,
      "d": 157.4800000000032,
      "v": 127
    },
    {
      "midi": 37,
      "hit": false,
      "t": 49369.98000000001,
      "d": 157.4800000000032,
      "v": 127
    },
    {
      "midi": 49,
      "hit": false,
      "t": 49369.98000000004,
      "d": 157.4800000000032,
      "v": 127
    },
    {
      "midi": 61,
      "hit": false,
      "t": 49369.98000000004,
      "d": 157.4800000000032,
      "v": 127
    },
    {
      "midi": 49,
      "hit": false,
      "t": 49369.980000000156,
      "d": 157.4800000000032,
      "v": 127
    },
    {
      "midi": 49,
      "hit": false,
      "t": 49606.20000000001,
      "d": 236.22000000000116,
      "v": 127
    },
    {
      "midi": 49,
      "hit": false,
      "t": 49606.20000000004,
      "d": 157.4800000000032,
      "v": 127
    },
    {
      "midi": 61,
      "hit": false,
      "t": 49606.20000000004,
      "d": 157.4800000000032,
      "v": 127
    },
    {
      "midi": 61,
      "hit": false,
      "t": 49606.20000000005,
      "d": 314.9599999999991,
      "v": 127
    },
    {
      "midi": 49,
      "hit": false,
      "t": 49606.20000000016,
      "d": 236.22000000000116,
      "v": 127
    },
    {
      "midi": 47,
      "hit": false,
      "t": 49842.42000000004,
      "d": 78.73999999999796,
      "v": 127
    },
    {
      "midi": 59,
      "hit": false,
      "t": 49842.42000000004,
      "d": 78.73999999999796,
      "v": 127
    },
    {
      "midi": 47,
      "hit": false,
      "t": 49960.53000000001,
      "d": 157.4800000000032,
      "v": 127
    },
    {
      "midi": 48,
      "hit": false,
      "t": 49960.53000000004,
      "d": 78.73999999999796,
      "v": 127
    },
    {
      "midi": 60,
      "hit": false,
      "t": 49960.53000000004,
      "d": 78.73999999999796,
      "v": 127
    },
    {
      "midi": 47,
      "hit": false,
      "t": 49960.53000000016,
      "d": 78.73999999999796,
      "v": 127
    },
    {
      "midi": 49,
      "hit": false,
      "t": 50078.64000000004,
      "d": 78.73999999999796,
      "v": 127
    },
    {
      "midi": 61,
      "hit": false,
      "t": 50078.64000000004,
      "d": 78.73999999999796,
      "v": 127
    },
    {
      "midi": 59,
      "hit": false,
      "t": 50078.64000000005,
      "d": 157.4800000000032,
      "v": 127
    },
    {
      "midi": 49,
      "hit": false,
      "t": 50078.64000000016,
      "d": 157.4800000000032,
      "v": 127
    },
    {
      "midi": 47,
      "hit": false,
      "t": 50196.750000000015,
      "d": 157.4800000000032,
      "v": 127
    },
    {
      "midi": 49,
      "hit": false,
      "t": 50196.750000000044,
      "d": 78.73999999999796,
      "v": 127
    },
    {
      "midi": 61,
      "hit": false,
      "t": 50196.750000000044,
      "d": 78.73999999999796,
      "v": 127
    },
    {
      "midi": 49,
      "hit": false,
      "t": 50314.860000000044,
      "d": 78.73999999999796,
      "v": 127
    },
    {
      "midi": 61,
      "hit": false,
      "t": 50314.860000000044,
      "d": 78.73999999999796,
      "v": 127
    },
    {
      "midi": 61,
      "hit": false,
      "t": 50314.86000000005,
      "d": 78.73999999999796,
      "v": 127
    },
    {
      "midi": 49,
      "hit": false,
      "t": 50314.86000000016,
      "d": 78.73999999999796,
      "v": 127
    },
    {
      "midi": 44,
      "hit": false,
      "t": 50432.970000000016,
      "d": 78.73999999999796,
      "v": 127
    },
    {
      "midi": 49,
      "hit": false,
      "t": 50432.970000000045,
      "d": 78.73999999999796,
      "v": 127
    },
    {
      "midi": 61,
      "hit": false,
      "t": 50432.970000000045,
      "d": 78.73999999999796,
      "v": 127
    },
    {
      "midi": 61,
      "hit": false,
      "t": 50432.97000000005,
      "d": 314.9599999999991,
      "v": 127
    },
    {
      "midi": 52,
      "hit": false,
      "t": 50432.97000000016,
      "d": 433.0699999999997,
      "v": 127
    },
    {
      "midi": 47,
      "hit": false,
      "t": 50551.080000000016,
      "d": 157.4800000000032,
      "v": 127
    },
    {
      "midi": 52,
      "hit": false,
      "t": 50551.080000000045,
      "d": 78.73999999999796,
      "v": 127
    },
    {
      "midi": 64,
      "hit": false,
      "t": 50551.080000000045,
      "d": 78.73999999999796,
      "v": 127
    },
    {
      "midi": 51,
      "hit": false,
      "t": 50669.190000000046,
      "d": 78.73999999999796,
      "v": 127
    },
    {
      "midi": 64,
      "hit": false,
      "t": 50669.190000000046,
      "d": 78.73999999999796,
      "v": 127
    },
    {
      "midi": 49,
      "hit": false,
      "t": 50787.30000000002,
      "d": 157.4800000000032,
      "v": 127
    },
    {
      "midi": 49,
      "hit": false,
      "t": 50787.30000000005,
      "d": 157.4800000000032,
      "v": 127
    },
    {
      "midi": 61,
      "hit": false,
      "t": 50787.30000000005,
      "d": 157.4800000000032,
      "v": 127
    },
    {
      "midi": 56,
      "hit": false,
      "t": 50905.410000000054,
      "d": 78.73999999999796,
      "v": 127
    },
    {
      "midi": 44,
      "hit": false,
      "t": 50905.41000000016,
      "d": 78.73999999999796,
      "v": 127
    },
    {
      "midi": 49,
      "hit": false,
      "t": 51023.51999999998,
      "d": 157.4800000000032,
      "v": 127
    },
    {
      "midi": 68,
      "hit": false,
      "t": 51023.52000000002,
      "d": 314.9600000000064,
      "v": 127
    },
    {
      "midi": 63,
      "hit": false,
      "t": 51023.52000000002,
      "d": 2047.2400000000125,
      "v": 127
    },
    {
      "midi": 35,
      "hit": false,
      "t": 51023.52000000002,
      "d": 157.4800000000032,
      "v": 127
    },
    {
      "midi": 64,
      "hit": false,
      "t": 51023.52000000002,
      "d": 157.4800000000032,
      "v": 127
    },
    {
      "midi": 68,
      "hit": false,
      "t": 51023.52000000002,
      "d": 157.4800000000032,
      "v": 127
    },
    {
      "midi": 47,
      "hit": false,
      "t": 51023.52000000005,
      "d": 157.4800000000032,
      "v": 127
    },
    {
      "midi": 59,
      "hit": false,
      "t": 51023.52000000005,
      "d": 157.4800000000032,
      "v": 127
    },
    {
      "midi": 59,
      "hit": false,
      "t": 51023.520000000055,
      "d": 157.4800000000032,
      "v": 127
    },
    {
      "midi": 47,
      "hit": false,
      "t": 51023.520000000164,
      "d": 157.4800000000032,
      "v": 127
    },
    {
      "midi": 36,
      "hit": false,
      "t": 51259.73999999998,
      "d": 157.47999999999593,
      "v": 127
    },
    {
      "midi": 35,
      "hit": false,
      "t": 51259.74000000002,
      "d": 157.4800000000032,
      "v": 127
    },
    {
      "midi": 59,
      "hit": false,
      "t": 51259.74000000005,
      "d": 157.4800000000032,
      "v": 127
    },
    {
      "midi": 47,
      "hit": false,
      "t": 51259.74000000005,
      "d": 157.4800000000032,
      "v": 127
    },
    {
      "midi": 59,
      "hit": false,
      "t": 51259.740000000056,
      "d": 157.4800000000032,
      "v": 127
    },
    {
      "midi": 47,
      "hit": false,
      "t": 51259.740000000165,
      "d": 157.4800000000032,
      "v": 127
    },
    {
      "midi": 59,
      "hit": false,
      "t": 51495.95999999998,
      "d": 314.9599999999991,
      "v": 127
    },
    {
      "midi": 47,
      "hit": false,
      "t": 51495.96000000002,
      "d": 236.22000000000116,
      "v": 127
    },
    {
      "midi": 59,
      "hit": false,
      "t": 51495.96000000005,
      "d": 157.4800000000032,
      "v": 127
    },
    {
      "midi": 47,
      "hit": false,
      "t": 51495.96000000005,
      "d": 157.4800000000032,
      "v": 127
    },
    {
      "midi": 59,
      "hit": false,
      "t": 51495.96000000006,
      "d": 157.4800000000032,
      "v": 127
    },
    {
      "midi": 47,
      "hit": false,
      "t": 51495.96000000017,
      "d": 157.4800000000032,
      "v": 127
    },
    {
      "midi": 52,
      "hit": false,
      "t": 51732.17999999998,
      "d": 157.47999999999593,
      "v": 127
    },
    {
      "midi": 56,
      "hit": false,
      "t": 51732.18000000005,
      "d": 78.73999999999796,
      "v": 127
    },
    {
      "midi": 44,
      "hit": false,
      "t": 51732.18000000005,
      "d": 78.73999999999796,
      "v": 127
    },
    {
      "midi": 61,
      "hit": false,
      "t": 51732.18000000006,
      "d": 78.73999999999796,
      "v": 127
    },
    {
      "midi": 44,
      "hit": false,
      "t": 51732.18000000017,
      "d": 78.73999999999796,
      "v": 127
    },
    {
      "midi": 44,
      "hit": false,
      "t": 51850.29000000002,
      "d": 157.4800000000032,
      "v": 127
    },
    {
      "midi": 59,
      "hit": false,
      "t": 51850.29000000005,
      "d": 78.73999999999796,
      "v": 127
    },
    {
      "midi": 47,
      "hit": false,
      "t": 51850.29000000005,
      "d": 78.73999999999796,
      "v": 127
    },
    {
      "midi": 59,
      "hit": false,
      "t": 51850.29000000006,
      "d": 629.9199999999983,
      "v": 127
    },
    {
      "midi": 47,
      "hit": false,
      "t": 51850.29000000017,
      "d": 157.4800000000032,
      "v": 127
    },
    {
      "midi": 50,
      "hit": false,
      "t": 51968.39999999997,
      "d": 236.22000000000116,
      "v": 127
    },
    {
      "midi": 49,
      "hit": false,
      "t": 51968.39999999997,
      "d": 314.9599999999991,
      "v": 127
    },
    {
      "midi": 68,
      "hit": false,
      "t": 51968.4,
      "d": 314.9599999999991,
      "v": 127
    },
    {
      "midi": 59,
      "hit": false,
      "t": 51968.40000000005,
      "d": 78.73999999999796,
      "v": 127
    },
    {
      "midi": 47,
      "hit": false,
      "t": 51968.40000000005,
      "d": 78.73999999999796,
      "v": 127
    },
    {
      "midi": 44,
      "hit": false,
      "t": 52086.510000000024,
      "d": 157.4800000000032,
      "v": 127
    },
    {
      "midi": 59,
      "hit": false,
      "t": 52086.51000000005,
      "d": 78.73999999999796,
      "v": 127
    },
    {
      "midi": 47,
      "hit": false,
      "t": 52086.51000000005,
      "d": 78.73999999999796,
      "v": 127
    },
    {
      "midi": 47,
      "hit": false,
      "t": 52086.51000000017,
      "d": 157.4800000000032,
      "v": 127
    },
    {
      "midi": 59,
      "hit": false,
      "t": 52204.62000000005,
      "d": 78.73999999999796,
      "v": 127
    },
    {
      "midi": 47,
      "hit": false,
      "t": 52204.62000000005,
      "d": 78.73999999999796,
      "v": 127
    },
    {
      "midi": 50,
      "hit": false,
      "t": 52322.729999999974,
      "d": 236.22000000000116,
      "v": 127
    },
    {
      "midi": 42,
      "hit": false,
      "t": 52322.730000000025,
      "d": 78.73999999999796,
      "v": 127
    },
    {
      "midi": 59,
      "hit": false,
      "t": 52322.730000000054,
      "d": 78.73999999999796,
      "v": 127
    },
    {
      "midi": 47,
      "hit": false,
      "t": 52322.730000000054,
      "d": 78.73999999999796,
      "v": 127
    },
    {
      "midi": 44,
      "hit": false,
      "t": 52322.73000000017,
      "d": 78.73999999999796,
      "v": 127
    },
    {
      "midi": 59,
      "hit": false,
      "t": 52440.839999999975,
      "d": 314.9599999999991,
      "v": 127
    },
    {
      "midi": 71,
      "hit": false,
      "t": 52440.840000000004,
      "d": 314.9599999999991,
      "v": 127
    },
    {
      "midi": 40,
      "hit": false,
      "t": 52440.840000000026,
      "d": 157.4800000000032,
      "v": 127
    },
    {
      "midi": 61,
      "hit": false,
      "t": 52440.840000000055,
      "d": 78.73999999999796,
      "v": 127
    },
    {
      "midi": 49,
      "hit": false,
      "t": 52440.840000000055,
      "d": 78.73999999999796,
      "v": 127
    },
    {
      "midi": 47,
      "hit": false,
      "t": 52440.84000000017,
      "d": 157.4800000000032,
      "v": 127
    },
    {
      "midi": 59,
      "hit": false,
      "t": 52558.950000000055,
      "d": 78.73999999999796,
      "v": 127
    },
    {
      "midi": 47,
      "hit": false,
      "t": 52558.950000000055,
      "d": 78.73999999999796,
      "v": 127
    },
    {
      "midi": 52,
      "hit": false,
      "t": 52677.059999999976,
      "d": 157.47999999999593,
      "v": 127
    },
    {
      "midi": 42,
      "hit": false,
      "t": 52677.06000000003,
      "d": 157.4800000000032,
      "v": 127
    },
    {
      "midi": 57,
      "hit": false,
      "t": 52677.060000000056,
      "d": 157.4800000000032,
      "v": 127
    },
    {
      "midi": 45,
      "hit": false,
      "t": 52677.060000000056,
      "d": 157.4800000000032,
      "v": 127
    },
    {
      "midi": 59,
      "hit": false,
      "t": 52677.060000000056,
      "d": 157.4800000000032,
      "v": 127
    },
    {
      "midi": 49,
      "hit": false,
      "t": 52677.06000000017,
      "d": 157.4800000000032,
      "v": 127
    },
    {
      "midi": 49,
      "hit": false,
      "t": 52913.27999999997,
      "d": 157.4800000000032,
      "v": 127
    },
    {
      "midi": 73,
      "hit": false,
      "t": 52913.280000000006,
      "d": 629.9199999999983,
      "v": 127
    },
    {
      "midi": 61,
      "hit": false,
      "t": 52913.28000000002,
      "d": 944.8799999999974,
      "v": 127
    },
    {
      "midi": 64,
      "hit": false,
      "t": 52913.28000000002,
      "d": 629.9199999999983,
      "v": 127
    },
    {
      "midi": 61,
      "hit": false,
      "t": 52913.28000000003,
      "d": 944.8800000000047,
      "v": 127
    },
    {
      "midi": 37,
      "hit": false,
      "t": 52913.28000000003,
      "d": 157.4800000000032,
      "v": 127
    },
    {
      "midi": 49,
      "hit": false,
      "t": 52913.28000000006,
      "d": 157.4800000000032,
      "v": 127
    },
    {
      "midi": 61,
      "hit": false,
      "t": 52913.28000000006,
      "d": 157.4800000000032,
      "v": 127
    },
    {
      "midi": 61,
      "hit": false,
      "t": 52913.28000000006,
      "d": 157.4800000000032,
      "v": 127
    },
    {
      "midi": 49,
      "hit": false,
      "t": 52913.28000000017,
      "d": 157.4800000000032,
      "v": 127
    },
    {
      "midi": 36,
      "hit": false,
      "t": 53149.49999999997,
      "d": 157.4800000000032,
      "v": 127
    },
    {
      "midi": 37,
      "hit": false,
      "t": 53149.50000000003,
      "d": 157.4800000000032,
      "v": 127
    },
    {
      "midi": 49,
      "hit": false,
      "t": 53149.50000000006,
      "d": 157.4800000000032,
      "v": 127
    },
    {
      "midi": 61,
      "hit": false,
      "t": 53149.50000000006,
      "d": 157.4800000000032,
      "v": 127
    },
    {
      "midi": 61,
      "hit": false,
      "t": 53149.50000000006,
      "d": 157.4800000000032,
      "v": 127
    },
    {
      "midi": 49,
      "hit": false,
      "t": 53149.500000000175,
      "d": 157.4800000000032,
      "v": 127
    },
    {
      "midi": 34,
      "hit": false,
      "t": 53385.71999999997,
      "d": 157.4800000000032,
      "v": 127
    },
    {
      "midi": 61,
      "hit": false,
      "t": 53385.71999999997,
      "d": 314.9599999999991,
      "v": 127
    },
    {
      "midi": 49,
      "hit": false,
      "t": 53385.72000000003,
      "d": 236.22000000000116,
      "v": 127
    },
    {
      "midi": 49,
      "hit": false,
      "t": 53385.72000000006,
      "d": 157.4800000000032,
      "v": 127
    },
    {
      "midi": 61,
      "hit": false,
      "t": 53385.72000000006,
      "d": 157.4800000000032,
      "v": 127
    },
    {
      "midi": 61,
      "hit": false,
      "t": 53385.72000000006,
      "d": 157.4800000000032,
      "v": 127
    },
    {
      "midi": 49,
      "hit": false,
      "t": 53385.720000000176,
      "d": 157.4800000000032,
      "v": 127
    },
    {
      "midi": 52,
      "hit": false,
      "t": 53621.93999999997,
      "d": 157.47999999999593,
      "v": 127
    },
    {
      "midi": 47,
      "hit": false,
      "t": 53621.94000000006,
      "d": 78.73999999999796,
      "v": 127
    },
    {
      "midi": 59,
      "hit": false,
      "t": 53621.94000000006,
      "d": 78.73999999999796,
      "v": 127
    },
    {
      "midi": 64,
      "hit": false,
      "t": 53621.94000000006,
      "d": 157.4800000000032,
      "v": 127
    },
    {
      "midi": 47,
      "hit": false,
      "t": 53621.94000000018,
      "d": 78.73999999999796,
      "v": 127
    },
    {
      "midi": 47,
      "hit": false,
      "t": 53740.05000000003,
      "d": 157.4800000000032,
      "v": 127
    },
    {
      "midi": 48,
      "hit": false,
      "t": 53740.05000000006,
      "d": 78.73999999999796,
      "v": 127
    },
    {
      "midi": 60,
      "hit": false,
      "t": 53740.05000000006,
      "d": 78.73999999999796,
      "v": 127
    },
    {
      "midi": 51,
      "hit": false,
      "t": 53740.05000000018,
      "d": 157.4800000000032,
      "v": 127
    },
    {
      "midi": 50,
      "hit": false,
      "t": 53858.15999999997,
      "d": 157.4800000000032,
      "v": 127
    },
    {
      "midi": 49,
      "hit": false,
      "t": 53858.15999999997,
      "d": 157.4800000000032,
      "v": 127
    },
    {
      "midi": 75,
      "hit": false,
      "t": 53858.16,
      "d": 629.9199999999983,
      "v": 127
    },
    {
      "midi": 63,
      "hit": false,
      "t": 53858.16000000002,
      "d": 1102.3600000000006,
      "v": 127
    },
    {
      "midi": 66,
      "hit": false,
      "t": 53858.16000000002,
      "d": 629.9199999999983,
      "v": 127
    },
    {
      "midi": 63,
      "hit": false,
      "t": 53858.16000000003,
      "d": 1102.3600000000006,
      "v": 127
    },
    {
      "midi": 49,
      "hit": false,
      "t": 53858.16000000006,
      "d": 78.73999999999796,
      "v": 127
    },
    {
      "midi": 61,
      "hit": false,
      "t": 53858.16000000006,
      "d": 78.73999999999796,
      "v": 127
    },
    {
      "midi": 63,
      "hit": false,
      "t": 53858.16000000006,
      "d": 314.9599999999991,
      "v": 127
    },
    {
      "midi": 47,
      "hit": false,
      "t": 53976.27000000003,
      "d": 157.4800000000032,
      "v": 127
    },
    {
      "midi": 49,
      "hit": false,
      "t": 53976.27000000006,
      "d": 78.73999999999796,
      "v": 127
    },
    {
      "midi": 61,
      "hit": false,
      "t": 53976.27000000006,
      "d": 78.73999999999796,
      "v": 127
    },
    {
      "midi": 51,
      "hit": false,
      "t": 53976.27000000018,
      "d": 157.4800000000032,
      "v": 127
    },
    {
      "midi": 50,
      "hit": false,
      "t": 54094.37999999997,
      "d": 157.4800000000032,
      "v": 127
    },
    {
      "midi": 49,
      "hit": false,
      "t": 54094.38000000006,
      "d": 78.73999999999796,
      "v": 127
    },
    {
      "midi": 61,
      "hit": false,
      "t": 54094.38000000006,
      "d": 78.73999999999796,
      "v": 127
    },
    {
      "midi": 44,
      "hit": false,
      "t": 54212.490000000034,
      "d": 78.73999999999796,
      "v": 127
    },
    {
      "midi": 49,
      "hit": false,
      "t": 54212.49000000006,
      "d": 78.73999999999796,
      "v": 127
    },
    {
      "midi": 61,
      "hit": false,
      "t": 54212.49000000006,
      "d": 78.73999999999796,
      "v": 127
    },
    {
      "midi": 59,
      "hit": false,
      "t": 54212.49000000006,
      "d": 236.22000000000116,
      "v": 127
    },
    {
      "midi": 47,
      "hit": false,
      "t": 54212.49000000018,
      "d": 78.73999999999796,
      "v": 127
    },
    {
      "midi": 59,
      "hit": false,
      "t": 54330.59999999997,
      "d": 157.4800000000032,
      "v": 127
    },
    {
      "midi": 47,
      "hit": false,
      "t": 54330.600000000035,
      "d": 157.4800000000032,
      "v": 127
    },
    {
      "midi": 52,
      "hit": false,
      "t": 54330.600000000064,
      "d": 78.73999999999796,
      "v": 127
    },
    {
      "midi": 64,
      "hit": false,
      "t": 54330.600000000064,
      "d": 78.73999999999796,
      "v": 127
    },
    {
      "midi": 51,
      "hit": false,
      "t": 54330.60000000018,
      "d": 157.4800000000032,
      "v": 127
    },
    {
      "midi": 51,
      "hit": false,
      "t": 54448.710000000065,
      "d": 78.73999999999796,
      "v": 127
    },
    {
      "midi": 63,
      "hit": false,
      "t": 54448.710000000065,
      "d": 78.73999999999796,
      "v": 127
    },
    {
      "midi": 52,
      "hit": false,
      "t": 54566.81999999997,
      "d": 157.4800000000032,
      "v": 127
    },
    {
      "midi": 49,
      "hit": false,
      "t": 54566.820000000036,
      "d": 157.4800000000032,
      "v": 127
    },
    {
      "midi": 49,
      "hit": false,
      "t": 54566.820000000065,
      "d": 157.4800000000032,
      "v": 127
    },
    {
      "midi": 61,
      "hit": false,
      "t": 54566.820000000065,
      "d": 157.4800000000032,
      "v": 127
    },
    {
      "midi": 61,
      "hit": false,
      "t": 54566.820000000065,
      "d": 157.4800000000032,
      "v": 127
    },
    {
      "midi": 47,
      "hit": false,
      "t": 54566.82000000018,
      "d": 157.4800000000032,
      "v": 127
    },
    {
      "midi": 49,
      "hit": false,
      "t": 54803.03999999997,
      "d": 157.4800000000032,
      "v": 127
    },
    {
      "midi": 71,
      "hit": false,
      "t": 54803.04,
      "d": 629.9199999999983,
      "v": 127
    },
    {
      "midi": 59,
      "hit": false,
      "t": 54803.040000000015,
      "d": 1263.7770000000091,
      "v": 127
    },
    {
      "midi": 63,
      "hit": false,
      "t": 54803.040000000015,
      "d": 629.9199999999983,
      "v": 127
    },
    {
      "midi": 59,
      "hit": false,
      "t": 54803.04000000003,
      "d": 1263.7770000000091,
      "v": 127
    },
    {
      "midi": 44,
      "hit": false,
      "t": 54803.04000000004,
      "d": 157.4800000000032,
      "v": 127
    },
    {
      "midi": 56,
      "hit": false,
      "t": 54803.040000000066,
      "d": 157.4800000000032,
      "v": 127
    },
    {
      "midi": 44,
      "hit": false,
      "t": 54803.040000000066,
      "d": 157.4800000000032,
      "v": 127
    },
    {
      "midi": 56,
      "hit": false,
      "t": 54803.040000000066,
      "d": 629.9199999999983,
      "v": 127
    },
    {
      "midi": 36,
      "hit": false,
      "t": 55039.25999999997,
      "d": 157.4800000000032,
      "v": 127
    },
    {
      "midi": 44,
      "hit": false,
      "t": 55039.26000000004,
      "d": 157.4800000000032,
      "v": 127
    },
    {
      "midi": 56,
      "hit": false,
      "t": 55039.26000000007,
      "d": 157.4800000000032,
      "v": 127
    },
    {
      "midi": 44,
      "hit": false,
      "t": 55039.26000000007,
      "d": 157.4800000000032,
      "v": 127
    },
    {
      "midi": 34,
      "hit": false,
      "t": 55275.479999999974,
      "d": 157.4800000000032,
      "v": 127
    },
    {
      "midi": 59,
      "hit": false,
      "t": 55275.479999999974,
      "d": 314.9599999999991,
      "v": 127
    },
    {
      "midi": 47,
      "hit": false,
      "t": 55275.48000000004,
      "d": 157.4800000000032,
      "v": 127
    },
    {
      "midi": 56,
      "hit": false,
      "t": 55275.48000000007,
      "d": 157.4800000000032,
      "v": 127
    },
    {
      "midi": 44,
      "hit": false,
      "t": 55275.48000000007,
      "d": 157.4800000000032,
      "v": 127
    },
    {
      "midi": 52,
      "hit": false,
      "t": 55511.699999999975,
      "d": 157.47999999999593,
      "v": 127
    },
    {
      "midi": 47,
      "hit": false,
      "t": 55511.70000000004,
      "d": 78.73999999999796,
      "v": 127
    },
    {
      "midi": 56,
      "hit": false,
      "t": 55511.70000000007,
      "d": 78.73999999999796,
      "v": 127
    },
    {
      "midi": 44,
      "hit": false,
      "t": 55511.70000000007,
      "d": 78.73999999999796,
      "v": 127
    },
    {
      "midi": 47,
      "hit": false,
      "t": 55629.81000000004,
      "d": 78.73999999999796,
      "v": 127
    },
    {
      "midi": 56,
      "hit": false,
      "t": 55629.81000000007,
      "d": 78.73999999999796,
      "v": 127
    },
    {
      "midi": 44,
      "hit": false,
      "t": 55629.81000000007,
      "d": 78.73999999999796,
      "v": 127
    },
    {
      "midi": 49,
      "hit": false,
      "t": 55747.91999999997,
      "d": 157.4800000000032,
      "v": 123
    },
    {
      "midi": 68,
      "hit": false,
      "t": 55747.92000000002,
      "d": 78.73999999999796,
      "v": 127
    },
    {
      "midi": 68,
      "hit": false,
      "t": 55747.920000000035,
      "d": 78.73999999999796,
      "v": 127
    },
    {
      "midi": 68,
      "hit": false,
      "t": 55747.92000000007,
      "d": 78.73999999999796,
      "v": 127
    },
    {
      "midi": 56,
      "hit": false,
      "t": 55747.92000000007,
      "d": 78.73999999999796,
      "v": 127
    },
    {
      "midi": 63,
      "hit": false,
      "t": 55747.92000000007,
      "d": 157.4800000000032,
      "v": 64
    },
    {
      "midi": 63,
      "hit": false,
      "t": 55866.02999999997,
      "d": 39.37000000000262,
      "v": 123
    },
    {
      "midi": 68,
      "hit": false,
      "t": 55866.03000000002,
      "d": 39.37000000000262,
      "v": 127
    },
    {
      "midi": 68,
      "hit": false,
      "t": 55866.030000000035,
      "d": 39.37000000000262,
      "v": 127
    },
    {
      "midi": 68,
      "hit": false,
      "t": 55866.03000000004,
      "d": 39.37000000000262,
      "v": 127
    },
    {
      "midi": 68,
      "hit": false,
      "t": 55866.03000000007,
      "d": 78.74000000000524,
      "v": 127
    },
    {
      "midi": 56,
      "hit": false,
      "t": 55866.03000000007,
      "d": 78.74000000000524,
      "v": 127
    },
    {
      "midi": 36,
      "hit": false,
      "t": 55984.13999999998,
      "d": 157.4800000000032,
      "v": 123
    },
    {
      "midi": 68,
      "hit": false,
      "t": 55984.14000000003,
      "d": 78.73999999999796,
      "v": 127
    },
    {
      "midi": 68,
      "hit": false,
      "t": 55984.14000000004,
      "d": 78.73999999999796,
      "v": 127
    },
    {
      "midi": 68,
      "hit": false,
      "t": 55984.14000000008,
      "d": 78.73999999999796,
      "v": 127
    },
    {
      "midi": 56,
      "hit": false,
      "t": 55984.14000000008,
      "d": 78.73999999999796,
      "v": 127
    },
    {
      "midi": 68,
      "hit": false,
      "t": 56102.25000000002,
      "d": 39.37000000000262,
      "v": 127
    },
    {
      "midi": 68,
      "hit": false,
      "t": 56102.25000000004,
      "d": 39.37000000000262,
      "v": 127
    },
    {
      "midi": 68,
      "hit": false,
      "t": 56102.25000000005,
      "d": 39.37000000000262,
      "v": 127
    },
    {
      "midi": 68,
      "hit": false,
      "t": 56102.25000000008,
      "d": 78.73999999999796,
      "v": 127
    },
    {
      "midi": 56,
      "hit": false,
      "t": 56102.25000000008,
      "d": 78.73999999999796,
      "v": 127
    },
    {
      "midi": 68,
      "hit": false,
      "t": 56220.36000000003,
      "d": 157.4800000000032,
      "v": 127
    },
    {
      "midi": 68,
      "hit": false,
      "t": 56220.360000000044,
      "d": 157.4800000000032,
      "v": 127
    },
    {
      "midi": 68,
      "hit": false,
      "t": 56220.36000000006,
      "d": 78.73999999999796,
      "v": 127
    },
    {
      "midi": 68,
      "hit": false,
      "t": 56220.36000000008,
      "d": 78.73999999999796,
      "v": 127
    },
    {
      "midi": 56,
      "hit": false,
      "t": 56220.36000000008,
      "d": 78.73999999999796,
      "v": 127
    },
    {
      "midi": 63,
      "hit": false,
      "t": 56220.36000000008,
      "d": 157.4800000000032,
      "v": 64
    },
    {
      "midi": 63,
      "hit": false,
      "t": 56338.46999999998,
      "d": 39.37000000000262,
      "v": 123
    },
    {
      "midi": 68,
      "hit": false,
      "t": 56338.47000000006,
      "d": 78.73999999999796,
      "v": 127
    },
    {
      "midi": 68,
      "hit": false,
      "t": 56338.47000000008,
      "d": 78.74000000000524,
      "v": 127
    },
    {
      "midi": 56,
      "hit": false,
      "t": 56338.47000000008,
      "d": 78.74000000000524,
      "v": 127
    },
    {
      "midi": 63,
      "hit": false,
      "t": 56456.57999999999,
      "d": 157.4800000000032,
      "v": 123
    },
    {
      "midi": 68,
      "hit": false,
      "t": 56456.58000000006,
      "d": 157.4800000000032,
      "v": 127
    },
    {
      "midi": 68,
      "hit": false,
      "t": 56456.58000000009,
      "d": 157.4800000000032,
      "v": 127
    },
    {
      "midi": 56,
      "hit": false,
      "t": 56456.58000000009,
      "d": 157.4800000000032,
      "v": 127
    },
    {
      "midi": 64,
      "hit": false,
      "t": 56692.80000000003,
      "d": 314.9599999999991,
      "v": 127
    },
    {
      "midi": 64,
      "hit": false,
      "t": 56692.80000000003,
      "d": 314.9599999999991,
      "v": 127
    },
    {
      "midi": 64,
      "hit": false,
      "t": 56692.80000000005,
      "d": 314.9599999999991,
      "v": 127
    },
    {
      "midi": 64,
      "hit": false,
      "t": 56692.80000000005,
      "d": 314.9599999999991,
      "v": 127
    },
    {
      "midi": 64,
      "hit": false,
      "t": 56692.80000000005,
      "d": 314.9599999999991,
      "v": 127
    },
    {
      "midi": 37,
      "hit": false,
      "t": 56692.80000000006,
      "d": 157.4800000000032,
      "v": 127
    },
    {
      "midi": 64,
      "hit": false,
      "t": 56692.80000000006,
      "d": 314.9599999999991,
      "v": 127
    },
    {
      "midi": 64,
      "hit": false,
      "t": 56692.80000000006,
      "d": 314.9599999999991,
      "v": 127
    },
    {
      "midi": 49,
      "hit": false,
      "t": 56692.80000000009,
      "d": 157.4800000000032,
      "v": 127
    },
    {
      "midi": 61,
      "hit": false,
      "t": 56692.80000000009,
      "d": 157.4800000000032,
      "v": 127
    },
    {
      "midi": 49,
      "hit": false,
      "t": 56692.800000000185,
      "d": 157.4800000000032,
      "v": 127
    },
    {
      "midi": 37,
      "hit": false,
      "t": 56929.02000000006,
      "d": 157.47999999999593,
      "v": 127
    },
    {
      "midi": 49,
      "hit": false,
      "t": 56929.02000000009,
      "d": 157.4800000000032,
      "v": 127
    },
    {
      "midi": 61,
      "hit": false,
      "t": 56929.02000000009,
      "d": 157.4800000000032,
      "v": 127
    },
    {
      "midi": 49,
      "hit": false,
      "t": 56929.020000000186,
      "d": 157.4800000000032,
      "v": 127
    },
    {
      "midi": 61,
      "hit": false,
      "t": 57165.240000000034,
      "d": 314.9599999999991,
      "v": 127
    },
    {
      "midi": 61,
      "hit": false,
      "t": 57165.240000000034,
      "d": 314.9599999999991,
      "v": 127
    },
    {
      "midi": 61,
      "hit": false,
      "t": 57165.24000000005,
      "d": 314.9599999999991,
      "v": 127
    },
    {
      "midi": 61,
      "hit": false,
      "t": 57165.24000000005,
      "d": 314.9599999999991,
      "v": 127
    },
    {
      "midi": 61,
      "hit": false,
      "t": 57165.24000000005,
      "d": 314.9599999999991,
      "v": 127
    },
    {
      "midi": 49,
      "hit": false,
      "t": 57165.240000000056,
      "d": 236.22000000000116,
      "v": 127
    },
    {
      "midi": 61,
      "hit": false,
      "t": 57165.240000000056,
      "d": 314.9599999999991,
      "v": 127
    },
    {
      "midi": 61,
      "hit": false,
      "t": 57165.24000000006,
      "d": 314.9599999999991,
      "v": 127
    },
    {
      "midi": 49,
      "hit": false,
      "t": 57165.24000000009,
      "d": 157.4800000000032,
      "v": 127
    },
    {
      "midi": 61,
      "hit": false,
      "t": 57165.24000000009,
      "d": 157.4800000000032,
      "v": 127
    },
    {
      "midi": 49,
      "hit": false,
      "t": 57165.24000000019,
      "d": 236.22000000000116,
      "v": 127
    },
    {
      "midi": 47,
      "hit": false,
      "t": 57401.460000000094,
      "d": 78.73999999999796,
      "v": 127
    },
    {
      "midi": 59,
      "hit": false,
      "t": 57401.460000000094,
      "d": 78.73999999999796,
      "v": 127
    },
    {
      "midi": 47,
      "hit": false,
      "t": 57519.57000000006,
      "d": 157.4800000000032,
      "v": 127
    },
    {
      "midi": 48,
      "hit": false,
      "t": 57519.570000000094,
      "d": 78.73999999999796,
      "v": 127
    },
    {
      "midi": 60,
      "hit": false,
      "t": 57519.570000000094,
      "d": 78.73999999999796,
      "v": 127
    },
    {
      "midi": 47,
      "hit": false,
      "t": 57519.57000000019,
      "d": 78.73999999999796,
      "v": 127
    },
    {
      "midi": 59,
      "hit": false,
      "t": 57637.68000000004,
      "d": 157.4800000000032,
      "v": 127
    },
    {
      "midi": 59,
      "hit": false,
      "t": 57637.68000000005,
      "d": 157.4800000000032,
      "v": 127
    },
    {
      "midi": 59,
      "hit": false,
      "t": 57637.68000000005,
      "d": 157.4800000000032,
      "v": 127
    },
    {
      "midi": 59,
      "hit": false,
      "t": 57637.680000000066,
      "d": 157.4800000000032,
      "v": 127
    },
    {
      "midi": 49,
      "hit": false,
      "t": 57637.680000000095,
      "d": 78.73999999999796,
      "v": 127
    },
    {
      "midi": 61,
      "hit": false,
      "t": 57637.680000000095,
      "d": 78.73999999999796,
      "v": 127
    },
    {
      "midi": 49,
      "hit": false,
      "t": 57637.68000000019,
      "d": 157.4800000000032,
      "v": 127
    },
    {
      "midi": 47,
      "hit": false,
      "t": 57755.79000000006,
      "d": 157.4800000000032,
      "v": 127
    },
    {
      "midi": 49,
      "hit": false,
      "t": 57755.790000000095,
      "d": 78.73999999999796,
      "v": 127
    },
    {
      "midi": 61,
      "hit": false,
      "t": 57755.790000000095,
      "d": 78.73999999999796,
      "v": 127
    },
    {
      "midi": 61,
      "hit": false,
      "t": 57873.90000000004,
      "d": 78.73999999999796,
      "v": 127
    },
    {
      "midi": 61,
      "hit": false,
      "t": 57873.90000000005,
      "d": 78.73999999999796,
      "v": 127
    },
    {
      "midi": 61,
      "hit": false,
      "t": 57873.90000000005,
      "d": 78.73999999999796,
      "v": 127
    },
    {
      "midi": 61,
      "hit": false,
      "t": 57873.90000000007,
      "d": 78.73999999999796,
      "v": 127
    },
    {
      "midi": 49,
      "hit": false,
      "t": 57873.900000000096,
      "d": 78.73999999999796,
      "v": 127
    },
    {
      "midi": 61,
      "hit": false,
      "t": 57873.900000000096,
      "d": 78.73999999999796,
      "v": 127
    },
    {
      "midi": 49,
      "hit": false,
      "t": 57873.90000000019,
      "d": 78.73999999999796,
      "v": 127
    },
    {
      "midi": 61,
      "hit": false,
      "t": 57992.01000000004,
      "d": 314.9599999999991,
      "v": 127
    },
    {
      "midi": 61,
      "hit": false,
      "t": 57992.01000000005,
      "d": 314.9599999999991,
      "v": 127
    },
    {
      "midi": 61,
      "hit": false,
      "t": 57992.01000000005,
      "d": 314.9599999999991,
      "v": 127
    },
    {
      "midi": 44,
      "hit": false,
      "t": 57992.01000000006,
      "d": 78.73999999999796,
      "v": 127
    },
    {
      "midi": 61,
      "hit": false,
      "t": 57992.01000000007,
      "d": 314.9599999999991,
      "v": 127
    },
    {
      "midi": 49,
      "hit": false,
      "t": 57992.0100000001,
      "d": 78.73999999999796,
      "v": 127
    },
    {
      "midi": 61,
      "hit": false,
      "t": 57992.0100000001,
      "d": 78.73999999999796,
      "v": 127
    },
    {
      "midi": 52,
      "hit": false,
      "t": 57992.01000000019,
      "d": 433.0699999999997,
      "v": 127
    },
    {
      "midi": 47,
      "hit": false,
      "t": 58110.12000000006,
      "d": 157.4800000000032,
      "v": 127
    },
    {
      "midi": 52,
      "hit": false,
      "t": 58110.1200000001,
      "d": 78.73999999999796,
      "v": 127
    },
    {
      "midi": 64,
      "hit": false,
      "t": 58110.1200000001,
      "d": 78.73999999999796,
      "v": 127
    },
    {
      "midi": 51,
      "hit": false,
      "t": 58228.2300000001,
      "d": 78.73999999999796,
      "v": 127
    },
    {
      "midi": 64,
      "hit": false,
      "t": 58228.2300000001,
      "d": 78.73999999999796,
      "v": 127
    },
    {
      "midi": 49,
      "hit": false,
      "t": 58346.34000000006,
      "d": 157.4800000000032,
      "v": 127
    },
    {
      "midi": 49,
      "hit": false,
      "t": 58346.3400000001,
      "d": 157.4800000000032,
      "v": 127
    },
    {
      "midi": 61,
      "hit": false,
      "t": 58346.3400000001,
      "d": 157.4800000000032,
      "v": 127
    },
    {
      "midi": 56,
      "hit": false,
      "t": 58464.45000000004,
      "d": 78.73999999999796,
      "v": 127
    },
    {
      "midi": 56,
      "hit": false,
      "t": 58464.450000000055,
      "d": 78.73999999999796,
      "v": 127
    },
    {
      "midi": 56,
      "hit": false,
      "t": 58464.450000000055,
      "d": 78.73999999999796,
      "v": 127
    },
    {
      "midi": 56,
      "hit": false,
      "t": 58464.45000000007,
      "d": 78.73999999999796,
      "v": 127
    },
    {
      "midi": 44,
      "hit": false,
      "t": 58464.45000000019,
      "d": 78.73999999999796,
      "v": 127
    },
    {
      "midi": 49,
      "hit": false,
      "t": 58582.55999999999,
      "d": 157.4800000000032,
      "v": 127
    },
    {
      "midi": 64,
      "hit": false,
      "t": 58582.560000000034,
      "d": 157.4800000000032,
      "v": 127
    },
    {
      "midi": 68,
      "hit": false,
      "t": 58582.560000000034,
      "d": 157.4800000000032,
      "v": 127
    },
    {
      "midi": 59,
      "hit": false,
      "t": 58582.56000000004,
      "d": 157.4800000000032,
      "v": 127
    },
    {
      "midi": 68,
      "hit": false,
      "t": 58582.56000000005,
      "d": 314.9600000000064,
      "v": 127
    },
    {
      "midi": 63,
      "hit": false,
      "t": 58582.56000000005,
      "d": 2047.2400000000125,
      "v": 127
    },
    {
      "midi": 59,
      "hit": false,
      "t": 58582.560000000056,
      "d": 157.4800000000032,
      "v": 127
    },
    {
      "midi": 59,
      "hit": false,
      "t": 58582.560000000056,
      "d": 157.4800000000032,
      "v": 127
    },
    {
      "midi": 35,
      "hit": false,
      "t": 58582.56000000006,
      "d": 157.4800000000032,
      "v": 127
    },
    {
      "midi": 68,
      "hit": false,
      "t": 58582.56000000006,
      "d": 314.9599999999991,
      "v": 127
    },
    {
      "midi": 59,
      "hit": false,
      "t": 58582.56000000007,
      "d": 157.4800000000032,
      "v": 127
    },
    {
      "midi": 47,
      "hit": false,
      "t": 58582.5600000001,
      "d": 157.4800000000032,
      "v": 127
    },
    {
      "midi": 59,
      "hit": false,
      "t": 58582.5600000001,
      "d": 157.4800000000032,
      "v": 127
    },
    {
      "midi": 47,
      "hit": false,
      "t": 58582.560000000194,
      "d": 157.4800000000032,
      "v": 127
    },
    {
      "midi": 36,
      "hit": false,
      "t": 58818.77999999999,
      "d": 157.47999999999593,
      "v": 127
    },
    {
      "midi": 59,
      "hit": false,
      "t": 58818.78000000004,
      "d": 157.4800000000032,
      "v": 127
    },
    {
      "midi": 59,
      "hit": false,
      "t": 58818.78000000006,
      "d": 157.4800000000032,
      "v": 127
    },
    {
      "midi": 59,
      "hit": false,
      "t": 58818.78000000006,
      "d": 157.4800000000032,
      "v": 127
    },
    {
      "midi": 35,
      "hit": false,
      "t": 58818.780000000064,
      "d": 157.47999999999593,
      "v": 127
    },
    {
      "midi": 59,
      "hit": false,
      "t": 58818.78000000007,
      "d": 157.4800000000032,
      "v": 127
    },
    {
      "midi": 59,
      "hit": false,
      "t": 58818.7800000001,
      "d": 157.4800000000032,
      "v": 127
    },
    {
      "midi": 47,
      "hit": false,
      "t": 58818.7800000001,
      "d": 157.4800000000032,
      "v": 127
    },
    {
      "midi": 47,
      "hit": false,
      "t": 58818.780000000195,
      "d": 157.4800000000032,
      "v": 127
    },
    {
      "midi": 59,
      "hit": false,
      "t": 59054.999999999985,
      "d": 314.9599999999991,
      "v": 127
    },
    {
      "midi": 59,
      "hit": false,
      "t": 59055.000000000044,
      "d": 157.4800000000032,
      "v": 127
    },
    {
      "midi": 47,
      "hit": false,
      "t": 59055.00000000006,
      "d": 236.22000000000116,
      "v": 127
    },
    {
      "midi": 59,
      "hit": false,
      "t": 59055.00000000006,
      "d": 157.4800000000032,
      "v": 127
    },
    {
      "midi": 59,
      "hit": false,
      "t": 59055.00000000006,
      "d": 157.4800000000032,
      "v": 127
    },
    {
      "midi": 59,
      "hit": false,
      "t": 59055.00000000007,
      "d": 157.4800000000032,
      "v": 127
    },
    {
      "midi": 59,
      "hit": false,
      "t": 59055.0000000001,
      "d": 157.4800000000032,
      "v": 127
    },
    {
      "midi": 47,
      "hit": false,
      "t": 59055.0000000001,
      "d": 157.4800000000032,
      "v": 127
    },
    {
      "midi": 47,
      "hit": false,
      "t": 59055.0000000002,
      "d": 157.4800000000032,
      "v": 127
    },
    {
      "midi": 52,
      "hit": false,
      "t": 59291.21999999999,
      "d": 157.47999999999593,
      "v": 127
    },
    {
      "midi": 61,
      "hit": false,
      "t": 59291.220000000045,
      "d": 78.73999999999796,
      "v": 127
    },
    {
      "midi": 61,
      "hit": false,
      "t": 59291.22000000006,
      "d": 78.73999999999796,
      "v": 127
    },
    {
      "midi": 61,
      "hit": false,
      "t": 59291.22000000006,
      "d": 78.73999999999796,
      "v": 127
    },
    {
      "midi": 61,
      "hit": false,
      "t": 59291.220000000074,
      "d": 78.73999999999796,
      "v": 127
    },
    {
      "midi": 56,
      "hit": false,
      "t": 59291.2200000001,
      "d": 78.73999999999796,
      "v": 127
    },
    {
      "midi": 44,
      "hit": false,
      "t": 59291.2200000001,
      "d": 78.73999999999796,
      "v": 127
    },
    {
      "midi": 44,
      "hit": false,
      "t": 59291.2200000002,
      "d": 78.73999999999796,
      "v": 127
    },
    {
      "midi": 59,
      "hit": false,
      "t": 59409.330000000045,
      "d": 629.9199999999983,
      "v": 127
    },
    {
      "midi": 44,
      "hit": false,
      "t": 59409.33000000006,
      "d": 157.4800000000032,
      "v": 127
    },
    {
      "midi": 59,
      "hit": false,
      "t": 59409.33000000006,
      "d": 629.9199999999983,
      "v": 127
    },
    {
      "midi": 59,
      "hit": false,
      "t": 59409.33000000006,
      "d": 629.9199999999983,
      "v": 127
    },
    {
      "midi": 59,
      "hit": false,
      "t": 59409.330000000075,
      "d": 629.9199999999983,
      "v": 127
    },
    {
      "midi": 59,
      "hit": false,
      "t": 59409.3300000001,
      "d": 78.73999999999796,
      "v": 127
    },
    {
      "midi": 47,
      "hit": false,
      "t": 59409.3300000001,
      "d": 78.73999999999796,
      "v": 127
    },
    {
      "midi": 47,
      "hit": false,
      "t": 59409.3300000002,
      "d": 157.4800000000032,
      "v": 127
    },
    {
      "midi": 50,
      "hit": false,
      "t": 59527.43999999998,
      "d": 236.22000000000116,
      "v": 127
    },
    {
      "midi": 49,
      "hit": false,
      "t": 59527.43999999998,
      "d": 314.9599999999991,
      "v": 127
    },
    {
      "midi": 68,
      "hit": false,
      "t": 59527.44,
      "d": 314.9599999999991,
      "v": 127
    },
    {
      "midi": 59,
      "hit": false,
      "t": 59527.440000000104,
      "d": 78.73999999999796,
      "v": 127
    },
    {
      "midi": 47,
      "hit": false,
      "t": 59527.440000000104,
      "d": 78.73999999999796,
      "v": 127
    },
    {
      "midi": 44,
      "hit": false,
      "t": 59645.55000000006,
      "d": 157.4800000000032,
      "v": 127
    },
    {
      "midi": 59,
      "hit": false,
      "t": 59645.550000000105,
      "d": 78.73999999999796,
      "v": 127
    },
    {
      "midi": 47,
      "hit": false,
      "t": 59645.550000000105,
      "d": 78.73999999999796,
      "v": 127
    },
    {
      "midi": 47,
      "hit": false,
      "t": 59645.5500000002,
      "d": 157.4800000000032,
      "v": 127
    },
    {
      "midi": 59,
      "hit": false,
      "t": 59763.660000000105,
      "d": 78.73999999999796,
      "v": 127
    },
    {
      "midi": 47,
      "hit": false,
      "t": 59763.660000000105,
      "d": 78.73999999999796,
      "v": 127
    },
    {
      "midi": 50,
      "hit": false,
      "t": 59881.76999999998,
      "d": 236.22000000000116,
      "v": 127
    },
    {
      "midi": 42,
      "hit": false,
      "t": 59881.77000000006,
      "d": 78.73999999999796,
      "v": 127
    },
    {
      "midi": 59,
      "hit": false,
      "t": 59881.770000000106,
      "d": 78.73999999999796,
      "v": 127
    },
    {
      "midi": 47,
      "hit": false,
      "t": 59881.770000000106,
      "d": 78.73999999999796,
      "v": 127
    },
    {
      "midi": 44,
      "hit": false,
      "t": 59881.7700000002,
      "d": 78.73999999999796,
      "v": 127
    },
    {
      "midi": 59,
      "hit": false,
      "t": 59999.87999999998,
      "d": 314.9599999999991,
      "v": 127
    },
    {
      "midi": 71,
      "hit": false,
      "t": 59999.880000000005,
      "d": 314.9599999999991,
      "v": 127
    },
    {
      "midi": 40,
      "hit": false,
      "t": 59999.88000000006,
      "d": 157.4800000000032,
      "v": 127
    },
    {
      "midi": 61,
      "hit": false,
      "t": 59999.88000000011,
      "d": 78.73999999999796,
      "v": 127
    },
    {
      "midi": 49,
      "hit": false,
      "t": 59999.88000000011,
      "d": 78.73999999999796,
      "v": 127
    },
    {
      "midi": 47,
      "hit": false,
      "t": 59999.8800000002,
      "d": 157.4800000000032,
      "v": 127
    },
    {
      "midi": 59,
      "hit": false,
      "t": 60117.99000000011,
      "d": 78.73999999999796,
      "v": 127
    },
    {
      "midi": 47,
      "hit": false,
      "t": 60117.99000000011,
      "d": 78.73999999999796,
      "v": 127
    },
    {
      "midi": 52,
      "hit": false,
      "t": 60236.099999999984,
      "d": 157.47999999999593,
      "v": 127
    },
    {
      "midi": 59,
      "hit": false,
      "t": 60236.10000000004,
      "d": 157.4800000000032,
      "v": 127
    },
    {
      "midi": 59,
      "hit": false,
      "t": 60236.10000000006,
      "d": 157.4800000000032,
      "v": 127
    },
    {
      "midi": 59,
      "hit": false,
      "t": 60236.10000000006,
      "d": 157.4800000000032,
      "v": 127
    },
    {
      "midi": 42,
      "hit": false,
      "t": 60236.100000000064,
      "d": 157.4800000000032,
      "v": 127
    },
    {
      "midi": 59,
      "hit": false,
      "t": 60236.10000000007,
      "d": 157.4800000000032,
      "v": 127
    },
    {
      "midi": 57,
      "hit": false,
      "t": 60236.10000000011,
      "d": 157.4800000000032,
      "v": 127
    },
    {
      "midi": 45,
      "hit": false,
      "t": 60236.10000000011,
      "d": 157.4800000000032,
      "v": 127
    },
    {
      "midi": 49,
      "hit": false,
      "t": 60236.1000000002,
      "d": 157.4800000000032,
      "v": 127
    },
    {
      "midi": 73,
      "hit": false,
      "t": 60472.32000000001,
      "d": 629.9199999999983,
      "v": 127
    },
    {
      "midi": 61,
      "hit": false,
      "t": 60472.320000000036,
      "d": 944.8799999999974,
      "v": 127
    },
    {
      "midi": 61,
      "hit": false,
      "t": 60472.32000000004,
      "d": 314.9599999999991,
      "v": 127
    },
    {
      "midi": 61,
      "hit": false,
      "t": 60472.32000000006,
      "d": 944.8800000000047,
      "v": 127
    },
    {
      "midi": 61,
      "hit": false,
      "t": 60472.32000000006,
      "d": 314.9599999999991,
      "v": 127
    },
    {
      "midi": 61,
      "hit": false,
      "t": 60472.32000000006,
      "d": 314.9599999999991,
      "v": 127
    },
    {
      "midi": 61,
      "hit": false,
      "t": 60472.32000000007,
      "d": 314.9599999999991,
      "v": 127
    },
    {
      "midi": 57,
      "hit": false,
      "t": 60472.32000000011,
      "d": 157.4800000000032,
      "v": 127
    },
    {
      "midi": 45,
      "hit": false,
      "t": 60472.32000000011,
      "d": 157.4800000000032,
      "v": 127
    },
    {
      "midi": 45,
      "hit": false,
      "t": 60472.3200000002,
      "d": 157.4800000000032,
      "v": 127
    },
    {
      "midi": 57,
      "hit": false,
      "t": 60708.54000000011,
      "d": 157.4800000000032,
      "v": 127
    },
    {
      "midi": 45,
      "hit": false,
      "t": 60708.54000000011,
      "d": 157.4800000000032,
      "v": 127
    },
    {
      "midi": 40,
      "hit": false,
      "t": 60708.540000000205,
      "d": 157.4800000000032,
      "v": 127
    },
    {
      "midi": 61,
      "hit": false,
      "t": 60944.760000000046,
      "d": 157.4800000000032,
      "v": 127
    },
    {
      "midi": 61,
      "hit": false,
      "t": 60944.76000000006,
      "d": 157.4800000000032,
      "v": 127
    },
    {
      "midi": 61,
      "hit": false,
      "t": 60944.76000000006,
      "d": 157.4800000000032,
      "v": 127
    },
    {
      "midi": 61,
      "hit": false,
      "t": 60944.760000000075,
      "d": 157.4800000000032,
      "v": 127
    },
    {
      "midi": 57,
      "hit": false,
      "t": 60944.76000000011,
      "d": 157.4800000000032,
      "v": 127
    },
    {
      "midi": 45,
      "hit": false,
      "t": 60944.76000000011,
      "d": 157.4800000000032,
      "v": 127
    },
    {
      "midi": 45,
      "hit": false,
      "t": 60944.760000000206,
      "d": 157.4800000000032,
      "v": 127
    },
    {
      "midi": 64,
      "hit": false,
      "t": 61180.98000000005,
      "d": 157.4800000000032,
      "v": 127
    },
    {
      "midi": 64,
      "hit": false,
      "t": 61180.98000000006,
      "d": 157.4800000000032,
      "v": 127
    },
    {
      "midi": 64,
      "hit": false,
      "t": 61180.98000000006,
      "d": 157.4800000000032,
      "v": 127
    },
    {
      "midi": 64,
      "hit": false,
      "t": 61180.980000000076,
      "d": 157.4800000000032,
      "v": 127
    },
    {
      "midi": 57,
      "hit": false,
      "t": 61180.98000000011,
      "d": 78.73999999999796,
      "v": 127
    },
    {
      "midi": 45,
      "hit": false,
      "t": 61180.98000000011,
      "d": 78.73999999999796,
      "v": 127
    },
    {
      "midi": 49,
      "hit": false,
      "t": 61180.98000000021,
      "d": 157.4800000000032,
      "v": 127
    },
    {
      "midi": 57,
      "hit": false,
      "t": 61299.09000000011,
      "d": 78.73999999999796,
      "v": 127
    },
    {
      "midi": 45,
      "hit": false,
      "t": 61299.09000000011,
      "d": 78.73999999999796,
      "v": 127
    },
    {
      "midi": 75,
      "hit": false,
      "t": 61417.200000000004,
      "d": 629.9199999999983,
      "v": 127
    },
    {
      "midi": 63,
      "hit": false,
      "t": 61417.20000000005,
      "d": 236.22000000000116,
      "v": 127
    },
    {
      "midi": 63,
      "hit": false,
      "t": 61417.20000000006,
      "d": 1102.3600000000006,
      "v": 127
    },
    {
      "midi": 63,
      "hit": false,
      "t": 61417.20000000006,
      "d": 236.22000000000116,
      "v": 127
    },
    {
      "midi": 63,
      "hit": false,
      "t": 61417.20000000006,
      "d": 236.22000000000116,
      "v": 127
    },
    {
      "midi": 63,
      "hit": false,
      "t": 61417.20000000008,
      "d": 236.22000000000116,
      "v": 127
    },
    {
      "midi": 59,
      "hit": false,
      "t": 61417.20000000011,
      "d": 78.73999999999796,
      "v": 127
    },
    {
      "midi": 47,
      "hit": false,
      "t": 61417.20000000011,
      "d": 78.73999999999796,
      "v": 127
    },
    {
      "midi": 47,
      "hit": false,
      "t": 61417.20000000021,
      "d": 236.22000000000116,
      "v": 127
    },
    {
      "midi": 59,
      "hit": false,
      "t": 61535.310000000114,
      "d": 78.73999999999796,
      "v": 127
    },
    {
      "midi": 47,
      "hit": false,
      "t": 61535.310000000114,
      "d": 78.73999999999796,
      "v": 127
    },
    {
      "midi": 59,
      "hit": false,
      "t": 61653.420000000115,
      "d": 78.73999999999796,
      "v": 127
    },
    {
      "midi": 47,
      "hit": false,
      "t": 61653.420000000115,
      "d": 78.73999999999796,
      "v": 127
    },
    {
      "midi": 59,
      "hit": false,
      "t": 61771.53000000005,
      "d": 236.22000000000116,
      "v": 127
    },
    {
      "midi": 59,
      "hit": false,
      "t": 61771.530000000064,
      "d": 236.22000000000116,
      "v": 127
    },
    {
      "midi": 59,
      "hit": false,
      "t": 61771.530000000064,
      "d": 236.22000000000116,
      "v": 127
    },
    {
      "midi": 59,
      "hit": false,
      "t": 61771.53000000008,
      "d": 236.22000000000116,
      "v": 127
    },
    {
      "midi": 59,
      "hit": false,
      "t": 61771.530000000115,
      "d": 78.73999999999796,
      "v": 127
    },
    {
      "midi": 47,
      "hit": false,
      "t": 61771.530000000115,
      "d": 78.73999999999796,
      "v": 127
    },
    {
      "midi": 42,
      "hit": false,
      "t": 61771.53000000021,
      "d": 236.22000000000116,
      "v": 127
    },
    {
      "midi": 59,
      "hit": false,
      "t": 61889.640000000116,
      "d": 78.73999999999796,
      "v": 127
    },
    {
      "midi": 47,
      "hit": false,
      "t": 61889.640000000116,
      "d": 78.73999999999796,
      "v": 127
    },
    {
      "midi": 59,
      "hit": false,
      "t": 62007.75000000012,
      "d": 78.73999999999796,
      "v": 127
    },
    {
      "midi": 47,
      "hit": false,
      "t": 62007.75000000012,
      "d": 78.73999999999796,
      "v": 127
    },
    {
      "midi": 63,
      "hit": false,
      "t": 62125.86000000005,
      "d": 157.4800000000032,
      "v": 127
    },
    {
      "midi": 63,
      "hit": false,
      "t": 62125.860000000066,
      "d": 157.4800000000032,
      "v": 127
    },
    {
      "midi": 63,
      "hit": false,
      "t": 62125.860000000066,
      "d": 157.4800000000032,
      "v": 127
    },
    {
      "midi": 63,
      "hit": false,
      "t": 62125.86000000008,
      "d": 157.4800000000032,
      "v": 127
    },
    {
      "midi": 59,
      "hit": false,
      "t": 62125.86000000012,
      "d": 157.4800000000032,
      "v": 127
    },
    {
      "midi": 47,
      "hit": false,
      "t": 62125.86000000012,
      "d": 157.4800000000032,
      "v": 127
    },
    {
      "midi": 51,
      "hit": false,
      "t": 62125.86000000021,
      "d": 157.4800000000032,
      "v": 127
    },
    {
      "midi": 73,
      "hit": false,
      "t": 62362.08,
      "d": 629.9199999999983,
      "v": 127
    },
    {
      "midi": 61,
      "hit": false,
      "t": 62362.08000000003,
      "d": 1263.7770000000019,
      "v": 127
    },
    {
      "midi": 61,
      "hit": false,
      "t": 62362.08000000005,
      "d": 314.9599999999991,
      "v": 127
    },
    {
      "midi": 61,
      "hit": false,
      "t": 62362.08000000006,
      "d": 1263.7770000000019,
      "v": 127
    },
    {
      "midi": 37,
      "hit": false,
      "t": 62362.08000000007,
      "d": 157.4800000000032,
      "v": 127
    },
    {
      "midi": 61,
      "hit": false,
      "t": 62362.08000000007,
      "d": 314.9599999999991,
      "v": 127
    },
    {
      "midi": 61,
      "hit": false,
      "t": 62362.08000000007,
      "d": 314.9599999999991,
      "v": 127
    },
    {
      "midi": 61,
      "hit": false,
      "t": 62362.08000000008,
      "d": 314.9599999999991,
      "v": 127
    },
    {
      "midi": 49,
      "hit": false,
      "t": 62362.08000000012,
      "d": 157.4800000000032,
      "v": 127
    },
    {
      "midi": 61,
      "hit": false,
      "t": 62362.08000000012,
      "d": 157.4800000000032,
      "v": 127
    },
    {
      "midi": 37,
      "hit": false,
      "t": 62362.08000000021,
      "d": 157.4800000000032,
      "v": 127
    },
    {
      "midi": 37,
      "hit": false,
      "t": 62598.30000000007,
      "d": 157.4800000000032,
      "v": 127
    },
    {
      "midi": 49,
      "hit": false,
      "t": 62598.30000000012,
      "d": 157.4800000000032,
      "v": 127
    },
    {
      "midi": 61,
      "hit": false,
      "t": 62598.30000000012,
      "d": 157.4800000000032,
      "v": 127
    },
    {
      "midi": 37,
      "hit": false,
      "t": 62598.300000000214,
      "d": 157.4800000000032,
      "v": 127
    },
    {
      "midi": 49,
      "hit": false,
      "t": 62834.52000000007,
      "d": 236.22000000000116,
      "v": 127
    },
    {
      "midi": 49,
      "hit": false,
      "t": 62834.52000000012,
      "d": 157.4800000000032,
      "v": 127
    },
    {
      "midi": 61,
      "hit": false,
      "t": 62834.52000000012,
      "d": 157.4800000000032,
      "v": 127
    },
    {
      "midi": 49,
      "hit": false,
      "t": 62834.520000000215,
      "d": 236.22000000000116,
      "v": 127
    },
    {
      "midi": 47,
      "hit": false,
      "t": 63070.74000000012,
      "d": 78.73999999999796,
      "v": 127
    },
    {
      "midi": 59,
      "hit": false,
      "t": 63070.74000000012,
      "d": 78.73999999999796,
      "v": 127
    },
    {
      "midi": 47,
      "hit": false,
      "t": 63188.85000000007,
      "d": 157.4800000000032,
      "v": 127
    },
    {
      "midi": 48,
      "hit": false,
      "t": 63188.85000000012,
      "d": 78.73999999999796,
      "v": 127
    },
    {
      "midi": 60,
      "hit": false,
      "t": 63188.85000000012,
      "d": 78.73999999999796,
      "v": 127
    },
    {
      "midi": 47,
      "hit": false,
      "t": 63188.85000000022,
      "d": 157.4800000000032,
      "v": 127
    },
    {
      "midi": 49,
      "hit": false,
      "t": 63306.96000000012,
      "d": 78.73999999999796,
      "v": 127
    },
    {
      "midi": 61,
      "hit": false,
      "t": 63306.96000000012,
      "d": 78.73999999999796,
      "v": 127
    },
    {
      "midi": 47,
      "hit": false,
      "t": 63425.07000000007,
      "d": 157.4800000000032,
      "v": 127
    },
    {
      "midi": 49,
      "hit": false,
      "t": 63425.07000000012,
      "d": 78.73999999999796,
      "v": 127
    },
    {
      "midi": 61,
      "hit": false,
      "t": 63425.07000000012,
      "d": 78.73999999999796,
      "v": 127
    },
    {
      "midi": 47,
      "hit": false,
      "t": 63425.07000000022,
      "d": 157.4800000000032,
      "v": 127
    },
    {
      "midi": 49,
      "hit": false,
      "t": 63543.180000000124,
      "d": 78.73999999999796,
      "v": 127
    },
    {
      "midi": 61,
      "hit": false,
      "t": 63543.180000000124,
      "d": 78.73999999999796,
      "v": 127
    },
    {
      "midi": 44,
      "hit": false,
      "t": 63661.29000000007,
      "d": 78.73999999999796,
      "v": 127
    },
    {
      "midi": 49,
      "hit": false,
      "t": 63661.290000000125,
      "d": 78.73999999999796,
      "v": 127
    },
    {
      "midi": 61,
      "hit": false,
      "t": 63661.290000000125,
      "d": 78.73999999999796,
      "v": 127
    },
    {
      "midi": 44,
      "hit": false,
      "t": 63661.29000000022,
      "d": 78.73999999999796,
      "v": 127
    },
    {
      "midi": 47,
      "hit": false,
      "t": 63779.400000000074,
      "d": 157.4800000000032,
      "v": 127
    },
    {
      "midi": 52,
      "hit": false,
      "t": 63779.400000000125,
      "d": 78.73999999999796,
      "v": 127
    },
    {
      "midi": 64,
      "hit": false,
      "t": 63779.400000000125,
      "d": 78.73999999999796,
      "v": 127
    },
    {
      "midi": 47,
      "hit": false,
      "t": 63779.40000000022,
      "d": 157.4800000000032,
      "v": 127
    },
    {
      "midi": 51,
      "hit": false,
      "t": 63897.510000000126,
      "d": 78.73999999999796,
      "v": 127
    },
    {
      "midi": 64,
      "hit": false,
      "t": 63897.510000000126,
      "d": 78.73999999999796,
      "v": 127
    },
    {
      "midi": 49,
      "hit": false,
      "t": 64015.620000000075,
      "d": 157.4800000000032,
      "v": 127
    },
    {
      "midi": 49,
      "hit": false,
      "t": 64015.620000000126,
      "d": 157.4800000000032,
      "v": 127
    },
    {
      "midi": 61,
      "hit": false,
      "t": 64015.620000000126,
      "d": 157.4800000000032,
      "v": 127
    },
    {
      "midi": 49,
      "hit": false,
      "t": 64015.62000000022,
      "d": 157.4800000000032,
      "v": 127
    },
    {
      "midi": 49,
      "hit": false,
      "t": 64251.83999999998,
      "d": 157.4800000000032,
      "v": 127
    },
    {
      "midi": 64,
      "hit": false,
      "t": 64251.840000000055,
      "d": 157.4800000000032,
      "v": 127
    },
    {
      "midi": 37,
      "hit": false,
      "t": 64251.84000000022,
      "d": 157.4800000000032,
      "v": 117
    },
    {
      "midi": 36,
      "hit": false,
      "t": 64488.05999999998,
      "d": 157.47999999999593,
      "v": 127
    },
    {
      "midi": 73,
      "hit": false,
      "t": 64488.060000000034,
      "d": 157.4800000000032,
      "v": 127
    },
    {
      "midi": 64,
      "hit": false,
      "t": 64488.060000000056,
      "d": 157.4800000000032,
      "v": 127
    },
    {
      "midi": 49,
      "hit": false,
      "t": 64488.06000000022,
      "d": 157.4800000000032,
      "v": 117
    },
    {
      "midi": 37,
      "hit": false,
      "t": 64488.06000000022,
      "d": 157.4800000000032,
      "v": 117
    },
    {
      "midi": 61,
      "hit": false,
      "t": 64724.27999999998,
      "d": 314.9599999999991,
      "v": 127
    },
    {
      "midi": 64,
      "hit": false,
      "t": 64724.28000000006,
      "d": 314.9599999999991,
      "v": 127
    },
    {
      "midi": 37,
      "hit": false,
      "t": 64724.280000000224,
      "d": 78.73999999999796,
      "v": 117
    },
    {
      "midi": 73,
      "hit": false,
      "t": 64842.390000000036,
      "d": 157.4800000000032,
      "v": 127
    },
    {
      "midi": 49,
      "hit": false,
      "t": 64842.390000000225,
      "d": 157.4800000000032,
      "v": 117
    },
    {
      "midi": 52,
      "hit": false,
      "t": 64960.49999999998,
      "d": 157.47999999999593,
      "v": 127
    },
    {
      "midi": 61,
      "hit": false,
      "t": 65078.61000000006,
      "d": 78.73999999999796,
      "v": 127
    },
    {
      "midi": 37,
      "hit": false,
      "t": 65078.610000000226,
      "d": 78.73999999999796,
      "v": 117
    },
    {
      "midi": 35,
      "hit": false,
      "t": 65078.610000000226,
      "d": 78.73999999999796,
      "v": 117
    },
    {
      "midi": 50,
      "hit": false,
      "t": 65196.71999999997,
      "d": 236.22000000000116,
      "v": 127
    },
    {
      "midi": 49,
      "hit": false,
      "t": 65196.71999999997,
      "d": 314.9599999999991,
      "v": 127
    },
    {
      "midi": 73,
      "hit": false,
      "t": 65196.72000000004,
      "d": 157.4800000000032,
      "v": 127
    },
    {
      "midi": 64,
      "hit": false,
      "t": 65196.72000000006,
      "d": 157.4800000000032,
      "v": 127
    },
    {
      "midi": 49,
      "hit": false,
      "t": 65196.72000000023,
      "d": 157.4800000000032,
      "v": 117
    },
    {
      "midi": 37,
      "hit": false,
      "t": 65196.72000000023,
      "d": 157.4800000000032,
      "v": 117
    },
    {
      "midi": 61,
      "hit": false,
      "t": 65432.94000000006,
      "d": 78.73999999999796,
      "v": 127
    },
    {
      "midi": 37,
      "hit": false,
      "t": 65432.94000000023,
      "d": 78.73999999999796,
      "v": 117
    },
    {
      "midi": 50,
      "hit": false,
      "t": 65551.04999999997,
      "d": 236.22000000000116,
      "v": 127
    },
    {
      "midi": 73,
      "hit": false,
      "t": 65551.05000000005,
      "d": 236.22000000000116,
      "v": 127
    },
    {
      "midi": 61,
      "hit": false,
      "t": 65551.05000000006,
      "d": 314.9600000000064,
      "v": 127
    },
    {
      "midi": 49,
      "hit": false,
      "t": 65551.05000000022,
      "d": 236.22000000000116,
      "v": 117
    },
    {
      "midi": 37,
      "hit": false,
      "t": 65551.05000000022,
      "d": 236.22000000000116,
      "v": 117
    },
    {
      "midi": 61,
      "hit": false,
      "t": 65669.15999999997,
      "d": 314.9600000000064,
      "v": 127
    },
    {
      "midi": 52,
      "hit": false,
      "t": 65905.37999999998,
      "d": 157.48000000001048,
      "v": 127
    },
    {
      "midi": 73,
      "hit": false,
      "t": 65905.38000000005,
      "d": 157.47999999999593,
      "v": 127
    },
    {
      "midi": 49,
      "hit": false,
      "t": 65905.38000000022,
      "d": 157.47999999999593,
      "v": 117
    },
    {
      "midi": 35,
      "hit": false,
      "t": 65905.38000000022,
      "d": 157.47999999999593,
      "v": 117
    },
    {
      "midi": 49,
      "hit": false,
      "t": 66141.59999999999,
      "d": 157.47999999999593,
      "v": 127
    },
    {
      "midi": 64,
      "hit": false,
      "t": 66141.60000000006,
      "d": 157.47999999999593,
      "v": 127
    },
    {
      "midi": 37,
      "hit": false,
      "t": 66141.60000000022,
      "d": 157.47999999999593,
      "v": 117
    },
    {
      "midi": 33,
      "hit": false,
      "t": 66141.60000000022,
      "d": 157.47999999999593,
      "v": 117
    },
    {
      "midi": 36,
      "hit": false,
      "t": 66377.81999999999,
      "d": 157.48000000001048,
      "v": 127
    },
    {
      "midi": 69,
      "hit": false,
      "t": 66377.82000000005,
      "d": 157.47999999999593,
      "v": 127
    },
    {
      "midi": 64,
      "hit": false,
      "t": 66377.82000000007,
      "d": 157.47999999999593,
      "v": 127
    },
    {
      "midi": 45,
      "hit": false,
      "t": 66377.82000000023,
      "d": 157.47999999999593,
      "v": 117
    },
    {
      "midi": 33,
      "hit": false,
      "t": 66377.82000000023,
      "d": 157.47999999999593,
      "v": 117
    },
    {
      "midi": 57,
      "hit": false,
      "t": 66614.04000000001,
      "d": 314.9600000000064,
      "v": 127
    },
    {
      "midi": 66,
      "hit": false,
      "t": 66614.04000000007,
      "d": 157.47999999999593,
      "v": 127
    },
    {
      "midi": 37,
      "hit": false,
      "t": 66614.04000000023,
      "d": 78.74000000000524,
      "v": 117
    },
    {
      "midi": 33,
      "hit": false,
      "t": 66614.04000000023,
      "d": 236.22000000000116,
      "v": 117
    },
    {
      "midi": 69,
      "hit": false,
      "t": 66732.15000000005,
      "d": 157.47999999999593,
      "v": 127
    },
    {
      "midi": 45,
      "hit": false,
      "t": 66732.15000000023,
      "d": 157.47999999999593,
      "v": 117
    },
    {
      "midi": 52,
      "hit": false,
      "t": 66850.26000000001,
      "d": 157.48000000001048,
      "v": 127
    },
    {
      "midi": 68,
      "hit": false,
      "t": 66850.26000000007,
      "d": 157.47999999999593,
      "v": 127
    },
    {
      "midi": 37,
      "hit": false,
      "t": 66968.37000000023,
      "d": 78.74000000000524,
      "v": 117
    },
    {
      "midi": 33,
      "hit": false,
      "t": 66968.37000000023,
      "d": 78.74000000000524,
      "v": 117
    },
    {
      "midi": 50,
      "hit": false,
      "t": 67086.48000000003,
      "d": 236.22000000000116,
      "v": 127
    },
    {
      "midi": 49,
      "hit": false,
      "t": 67086.48000000003,
      "d": 314.9600000000064,
      "v": 127
    },
    {
      "midi": 71,
      "hit": false,
      "t": 67086.48000000005,
      "d": 157.47999999999593,
      "v": 127
    },
    {
      "midi": 66,
      "hit": false,
      "t": 67086.48000000007,
      "d": 157.47999999999593,
      "v": 127
    },
    {
      "midi": 47,
      "hit": false,
      "t": 67086.48000000023,
      "d": 157.47999999999593,
      "v": 117
    },
    {
      "midi": 35,
      "hit": false,
      "t": 67086.48000000023,
      "d": 157.47999999999593,
      "v": 117
    },
    {
      "midi": 64,
      "hit": false,
      "t": 67322.70000000007,
      "d": 78.74000000000524,
      "v": 127
    },
    {
      "midi": 37,
      "hit": false,
      "t": 67322.70000000023,
      "d": 78.74000000000524,
      "v": 117
    },
    {
      "midi": 35,
      "hit": false,
      "t": 67322.70000000023,
      "d": 78.74000000000524,
      "v": 117
    },
    {
      "midi": 50,
      "hit": false,
      "t": 67440.81000000003,
      "d": 236.22000000000116,
      "v": 127
    },
    {
      "midi": 71,
      "hit": false,
      "t": 67440.81000000006,
      "d": 236.22000000000116,
      "v": 127
    },
    {
      "midi": 64,
      "hit": false,
      "t": 67440.81000000007,
      "d": 314.9600000000064,
      "v": 127
    },
    {
      "midi": 47,
      "hit": false,
      "t": 67440.81000000023,
      "d": 236.22000000000116,
      "v": 117
    },
    {
      "midi": 35,
      "hit": false,
      "t": 67440.81000000023,
      "d": 236.22000000000116,
      "v": 117
    },
    {
      "midi": 78,
      "hit": false,
      "t": 67558.92,
      "d": 472.4400000000023,
      "v": 115
    },
    {
      "midi": 59,
      "hit": false,
      "t": 67558.92000000003,
      "d": 314.9600000000064,
      "v": 127
    },
    {
      "midi": 52,
      "hit": false,
      "t": 67795.14000000003,
      "d": 157.48000000001048,
      "v": 127
    },
    {
      "midi": 71,
      "hit": false,
      "t": 67795.14000000006,
      "d": 157.47999999999593,
      "v": 127
    },
    {
      "midi": 47,
      "hit": false,
      "t": 67795.14000000023,
      "d": 157.47999999999593,
      "v": 117
    },
    {
      "midi": 35,
      "hit": false,
      "t": 67795.14000000023,
      "d": 157.47999999999593,
      "v": 117
    },
    {
      "midi": 76,
      "hit": false,
      "t": 68031.36,
      "d": 472.4400000000023,
      "v": 115
    },
    {
      "midi": 49,
      "hit": false,
      "t": 68031.36000000004,
      "d": 157.47999999999593,
      "v": 127
    },
    {
      "midi": 64,
      "hit": false,
      "t": 68031.36000000007,
      "d": 157.47999999999593,
      "v": 127
    },
    {
      "midi": 64,
      "hit": false,
      "t": 68031.36000000007,
      "d": 157.47999999999593,
      "v": 127
    },
    {
      "midi": 37,
      "hit": false,
      "t": 68031.36000000023,
      "d": 157.47999999999593,
      "v": 117
    },
    {
      "midi": 36,
      "hit": false,
      "t": 68267.58000000005,
      "d": 157.48000000001048,
      "v": 127
    },
    {
      "midi": 73,
      "hit": false,
      "t": 68267.58000000006,
      "d": 157.47999999999593,
      "v": 127
    },
    {
      "midi": 64,
      "hit": false,
      "t": 68267.58000000007,
      "d": 157.47999999999593,
      "v": 127
    },
    {
      "midi": 64,
      "hit": false,
      "t": 68267.58000000007,
      "d": 157.47999999999593,
      "v": 127
    },
    {
      "midi": 49,
      "hit": false,
      "t": 68267.58000000023,
      "d": 157.47999999999593,
      "v": 117
    },
    {
      "midi": 37,
      "hit": false,
      "t": 68267.58000000023,
      "d": 157.47999999999593,
      "v": 117
    },
    {
      "midi": 61,
      "hit": false,
      "t": 68503.80000000006,
      "d": 314.9600000000064,
      "v": 127
    },
    {
      "midi": 64,
      "hit": false,
      "t": 68503.80000000008,
      "d": 314.9600000000064,
      "v": 127
    },
    {
      "midi": 64,
      "hit": false,
      "t": 68503.80000000008,
      "d": 314.9600000000064,
      "v": 127
    },
    {
      "midi": 37,
      "hit": false,
      "t": 68503.80000000024,
      "d": 78.74000000000524,
      "v": 117
    },
    {
      "midi": 73,
      "hit": false,
      "t": 68621.91000000006,
      "d": 157.47999999999593,
      "v": 127
    },
    {
      "midi": 49,
      "hit": false,
      "t": 68621.91000000024,
      "d": 157.47999999999593,
      "v": 117
    },
    {
      "midi": 52,
      "hit": false,
      "t": 68740.02000000006,
      "d": 157.48000000001048,
      "v": 127
    },
    {
      "midi": 61,
      "hit": false,
      "t": 68858.13000000008,
      "d": 78.74000000000524,
      "v": 127
    },
    {
      "midi": 61,
      "hit": false,
      "t": 68858.13000000008,
      "d": 78.74000000000524,
      "v": 127
    },
    {
      "midi": 37,
      "hit": false,
      "t": 68858.13000000024,
      "d": 78.74000000000524,
      "v": 117
    },
    {
      "midi": 35,
      "hit": false,
      "t": 68858.13000000024,
      "d": 78.74000000000524,
      "v": 117
    },
    {
      "midi": 73,
      "hit": false,
      "t": 68976.24000000006,
      "d": 157.47999999999593,
      "v": 127
    },
    {
      "midi": 50,
      "hit": false,
      "t": 68976.24000000008,
      "d": 236.22000000000116,
      "v": 127
    },
    {
      "midi": 49,
      "hit": false,
      "t": 68976.24000000008,
      "d": 314.9600000000064,
      "v": 127
    },
    {
      "midi": 64,
      "hit": false,
      "t": 68976.24000000008,
      "d": 157.47999999999593,
      "v": 127
    },
    {
      "midi": 64,
      "hit": false,
      "t": 68976.24000000008,
      "d": 157.47999999999593,
      "v": 127
    },
    {
      "midi": 49,
      "hit": false,
      "t": 68976.24000000024,
      "d": 157.47999999999593,
      "v": 117
    },
    {
      "midi": 37,
      "hit": false,
      "t": 68976.24000000024,
      "d": 157.47999999999593,
      "v": 117
    },
    {
      "midi": 61,
      "hit": false,
      "t": 69212.46000000008,
      "d": 78.74000000000524,
      "v": 127
    },
    {
      "midi": 61,
      "hit": false,
      "t": 69212.46000000008,
      "d": 78.74000000000524,
      "v": 127
    },
    {
      "midi": 37,
      "hit": false,
      "t": 69212.46000000024,
      "d": 78.74000000000524,
      "v": 117
    },
    {
      "midi": 73,
      "hit": false,
      "t": 69330.57000000007,
      "d": 236.22000000000116,
      "v": 127
    },
    {
      "midi": 50,
      "hit": false,
      "t": 69330.57000000008,
      "d": 236.22000000000116,
      "v": 127
    },
    {
      "midi": 61,
      "hit": false,
      "t": 69330.57000000008,
      "d": 314.9600000000064,
      "v": 127
    },
    {
      "midi": 61,
      "hit": false,
      "t": 69330.57000000008,
      "d": 314.9600000000064,
      "v": 127
    },
    {
      "midi": 49,
      "hit": false,
      "t": 69330.57000000024,
      "d": 236.22000000000116,
      "v": 117
    },
    {
      "midi": 37,
      "hit": false,
      "t": 69330.57000000024,
      "d": 236.22000000000116,
      "v": 117
    },
    {
      "midi": 61,
      "hit": false,
      "t": 69448.68000000008,
      "d": 314.9600000000064,
      "v": 127
    },
    {
      "midi": 73,
      "hit": false,
      "t": 69684.90000000007,
      "d": 157.47999999999593,
      "v": 127
    },
    {
      "midi": 52,
      "hit": false,
      "t": 69684.90000000008,
      "d": 157.48000000001048,
      "v": 127
    },
    {
      "midi": 49,
      "hit": false,
      "t": 69684.90000000024,
      "d": 157.47999999999593,
      "v": 117
    },
    {
      "midi": 35,
      "hit": false,
      "t": 69684.90000000024,
      "d": 157.47999999999593,
      "v": 117
    },
    {
      "midi": 61,
      "hit": false,
      "t": 69803.01000000008,
      "d": 78.74000000000524,
      "v": 127
    },
    {
      "midi": 61,
      "hit": false,
      "t": 69803.01000000008,
      "d": 78.74000000000524,
      "v": 127
    },
    {
      "midi": 64,
      "hit": false,
      "t": 69921.12000000008,
      "d": 157.47999999999593,
      "v": 127
    },
    {
      "midi": 64,
      "hit": false,
      "t": 69921.12000000008,
      "d": 157.47999999999593,
      "v": 127
    },
    {
      "midi": 49,
      "hit": false,
      "t": 69921.1200000001,
      "d": 157.47999999999593,
      "v": 127
    },
    {
      "midi": 37,
      "hit": false,
      "t": 69921.12000000024,
      "d": 157.47999999999593,
      "v": 117
    },
    {
      "midi": 33,
      "hit": false,
      "t": 69921.12000000024,
      "d": 157.47999999999593,
      "v": 117
    },
    {
      "midi": 69,
      "hit": false,
      "t": 70157.34000000007,
      "d": 157.47999999999593,
      "v": 127
    },
    {
      "midi": 64,
      "hit": false,
      "t": 70157.34000000008,
      "d": 157.47999999999593,
      "v": 127
    },
    {
      "midi": 64,
      "hit": false,
      "t": 70157.34000000008,
      "d": 157.47999999999593,
      "v": 127
    },
    {
      "midi": 36,
      "hit": false,
      "t": 70157.3400000001,
      "d": 157.48000000001048,
      "v": 127
    },
    {
      "midi": 45,
      "hit": false,
      "t": 70157.34000000024,
      "d": 157.47999999999593,
      "v": 117
    },
    {
      "midi": 33,
      "hit": false,
      "t": 70157.34000000024,
      "d": 157.47999999999593,
      "v": 117
    },
    {
      "midi": 66,
      "hit": false,
      "t": 70393.56000000008,
      "d": 157.47999999999593,
      "v": 127
    },
    {
      "midi": 66,
      "hit": false,
      "t": 70393.56000000008,
      "d": 157.47999999999593,
      "v": 127
    },
    {
      "midi": 57,
      "hit": false,
      "t": 70393.56000000011,
      "d": 314.9600000000064,
      "v": 127
    },
    {
      "midi": 37,
      "hit": false,
      "t": 70393.56000000025,
      "d": 78.74000000000524,
      "v": 117
    },
    {
      "midi": 33,
      "hit": false,
      "t": 70393.56000000025,
      "d": 236.22000000000116,
      "v": 117
    },
    {
      "midi": 69,
      "hit": false,
      "t": 70511.67000000007,
      "d": 157.47999999999593,
      "v": 127
    },
    {
      "midi": 45,
      "hit": false,
      "t": 70511.67000000025,
      "d": 157.47999999999593,
      "v": 117
    },
    {
      "midi": 68,
      "hit": false,
      "t": 70629.78000000009,
      "d": 157.47999999999593,
      "v": 127
    },
    {
      "midi": 68,
      "hit": false,
      "t": 70629.78000000009,
      "d": 157.47999999999593,
      "v": 127
    },
    {
      "midi": 52,
      "hit": false,
      "t": 70629.78000000012,
      "d": 157.48000000001048,
      "v": 127
    },
    {
      "midi": 37,
      "hit": false,
      "t": 70747.89000000025,
      "d": 78.74000000000524,
      "v": 117
    },
    {
      "midi": 33,
      "hit": false,
      "t": 70747.89000000025,
      "d": 78.74000000000524,
      "v": 117
    },
    {
      "midi": 71,
      "hit": false,
      "t": 70866.00000000007,
      "d": 157.47999999999593,
      "v": 127
    },
    {
      "midi": 66,
      "hit": false,
      "t": 70866.00000000009,
      "d": 157.47999999999593,
      "v": 127
    },
    {
      "midi": 66,
      "hit": false,
      "t": 70866.00000000009,
      "d": 157.47999999999593,
      "v": 127
    },
    {
      "midi": 50,
      "hit": false,
      "t": 70866.00000000013,
      "d": 236.22000000000116,
      "v": 127
    },
    {
      "midi": 49,
      "hit": false,
      "t": 70866.00000000013,
      "d": 314.9600000000064,
      "v": 127
    },
    {
      "midi": 47,
      "hit": false,
      "t": 70866.00000000025,
      "d": 157.47999999999593,
      "v": 117
    },
    {
      "midi": 35,
      "hit": false,
      "t": 70866.00000000025,
      "d": 157.47999999999593,
      "v": 117
    },
    {
      "midi": 66,
      "hit": false,
      "t": 71102.22000000006,
      "d": 78.74000000000524,
      "v": 127
    },
    {
      "midi": 66,
      "hit": false,
      "t": 71102.22000000007,
      "d": 78.74000000000524,
      "v": 127
    },
    {
      "midi": 68,
      "hit": false,
      "t": 71102.22000000009,
      "d": 78.74000000000524,
      "v": 127
    },
    {
      "midi": 68,
      "hit": false,
      "t": 71102.22000000009,
      "d": 78.74000000000524,
      "v": 127
    },
    {
      "midi": 37,
      "hit": false,
      "t": 71102.22000000025,
      "d": 78.74000000000524,
      "v": 117
    },
    {
      "midi": 35,
      "hit": false,
      "t": 71102.22000000025,
      "d": 78.74000000000524,
      "v": 117
    },
    {
      "midi": 66,
      "hit": false,
      "t": 71220.33000000006,
      "d": 157.47999999999593,
      "v": 127
    },
    {
      "midi": 66,
      "hit": false,
      "t": 71220.33000000007,
      "d": 157.47999999999593,
      "v": 127
    },
    {
      "midi": 71,
      "hit": false,
      "t": 71220.33000000007,
      "d": 236.22000000000116,
      "v": 127
    },
    {
      "midi": 68,
      "hit": false,
      "t": 71220.33000000009,
      "d": 314.9600000000064,
      "v": 127
    },
    {
      "midi": 68,
      "hit": false,
      "t": 71220.33000000009,
      "d": 314.9600000000064,
      "v": 127
    },
    {
      "midi": 50,
      "hit": false,
      "t": 71220.33000000013,
      "d": 236.22000000000116,
      "v": 127
    },
    {
      "midi": 47,
      "hit": false,
      "t": 71220.33000000025,
      "d": 236.22000000000116,
      "v": 117
    },
    {
      "midi": 35,
      "hit": false,
      "t": 71220.33000000025,
      "d": 236.22000000000116,
      "v": 117
    },
    {
      "midi": 59,
      "hit": false,
      "t": 71338.44000000013,
      "d": 314.9600000000064,
      "v": 127
    },
    {
      "midi": 67,
      "hit": false,
      "t": 71456.55000000006,
      "d": 78.74000000000524,
      "v": 127
    },
    {
      "midi": 67,
      "hit": false,
      "t": 71456.55000000008,
      "d": 78.74000000000524,
      "v": 127
    },
    {
      "midi": 67,
      "hit": false,
      "t": 71574.66000000006,
      "d": 157.47999999999593,
      "v": 127
    },
    {
      "midi": 71,
      "hit": false,
      "t": 71574.66000000008,
      "d": 157.47999999999593,
      "v": 127
    },
    {
      "midi": 67,
      "hit": false,
      "t": 71574.66000000008,
      "d": 157.47999999999593,
      "v": 127
    },
    {
      "midi": 52,
      "hit": false,
      "t": 71574.66000000013,
      "d": 157.48000000001048,
      "v": 127
    },
    {
      "midi": 47,
      "hit": false,
      "t": 71574.66000000025,
      "d": 157.47999999999593,
      "v": 117
    },
    {
      "midi": 35,
      "hit": false,
      "t": 71574.66000000025,
      "d": 157.47999999999593,
      "v": 117
    },
    {
      "midi": 80,
      "hit": false,
      "t": 71810.88000000006,
      "d": 236.22000000000116,
      "v": 127
    },
    {
      "midi": 68,
      "hit": false,
      "t": 71810.88000000006,
      "d": 236.22000000000116,
      "v": 127
    },
    {
      "midi": 80,
      "hit": false,
      "t": 71810.88000000008,
      "d": 236.22000000000116,
      "v": 127
    },
    {
      "midi": 68,
      "hit": false,
      "t": 71810.88000000008,
      "d": 236.22000000000116,
      "v": 127
    },
    {
      "midi": 64,
      "hit": false,
      "t": 71810.88000000008,
      "d": 157.47999999999593,
      "v": 127
    },
    {
      "midi": 49,
      "hit": false,
      "t": 71810.88000000015,
      "d": 157.47999999999593,
      "v": 127
    },
    {
      "midi": 37,
      "hit": false,
      "t": 71810.88000000025,
      "d": 157.47999999999593,
      "v": 117
    },
    {
      "midi": 73,
      "hit": false,
      "t": 72047.10000000008,
      "d": 157.47999999999593,
      "v": 127
    },
    {
      "midi": 64,
      "hit": false,
      "t": 72047.10000000008,
      "d": 157.47999999999593,
      "v": 127
    },
    {
      "midi": 36,
      "hit": false,
      "t": 72047.10000000015,
      "d": 157.48000000001048,
      "v": 127
    },
    {
      "midi": 49,
      "hit": false,
      "t": 72047.10000000025,
      "d": 157.47999999999593,
      "v": 117
    },
    {
      "midi": 37,
      "hit": false,
      "t": 72047.10000000025,
      "d": 157.47999999999593,
      "v": 117
    },
    {
      "midi": 80,
      "hit": false,
      "t": 72165.21000000006,
      "d": 78.74000000000524,
      "v": 127
    },
    {
      "midi": 68,
      "hit": false,
      "t": 72165.21000000006,
      "d": 78.74000000000524,
      "v": 127
    },
    {
      "midi": 80,
      "hit": false,
      "t": 72165.21000000008,
      "d": 78.73999999999069,
      "v": 127
    },
    {
      "midi": 68,
      "hit": false,
      "t": 72165.21000000008,
      "d": 78.73999999999069,
      "v": 127
    },
    {
      "midi": 64,
      "hit": false,
      "t": 72283.32000000008,
      "d": 314.9600000000064,
      "v": 127
    },
    {
      "midi": 61,
      "hit": false,
      "t": 72283.32000000017,
      "d": 314.9600000000064,
      "v": 127
    },
    {
      "midi": 37,
      "hit": false,
      "t": 72283.32000000025,
      "d": 78.74000000000524,
      "v": 117
    },
    {
      "midi": 73,
      "hit": false,
      "t": 72401.43000000007,
      "d": 157.47999999999593,
      "v": 127
    },
    {
      "midi": 49,
      "hit": false,
      "t": 72401.43000000025,
      "d": 157.47999999999593,
      "v": 117
    },
    {
      "midi": 52,
      "hit": false,
      "t": 72519.54000000017,
      "d": 157.48000000001048,
      "v": 127
    },
    {
      "midi": 61,
      "hit": false,
      "t": 72637.65000000008,
      "d": 78.74000000000524,
      "v": 127
    },
    {
      "midi": 37,
      "hit": false,
      "t": 72637.65000000026,
      "d": 78.74000000000524,
      "v": 117
    },
    {
      "midi": 35,
      "hit": false,
      "t": 72637.65000000026,
      "d": 78.74000000000524,
      "v": 117
    },
    {
      "midi": 73,
      "hit": false,
      "t": 72755.76000000007,
      "d": 157.47999999999593,
      "v": 127
    },
    {
      "midi": 64,
      "hit": false,
      "t": 72755.76000000008,
      "d": 157.47999999999593,
      "v": 127
    },
    {
      "midi": 50,
      "hit": false,
      "t": 72755.76000000018,
      "d": 236.22000000000116,
      "v": 127
    },
    {
      "midi": 49,
      "hit": false,
      "t": 72755.76000000018,
      "d": 314.9600000000064,
      "v": 127
    },
    {
      "midi": 49,
      "hit": false,
      "t": 72755.76000000026,
      "d": 157.47999999999593,
      "v": 117
    },
    {
      "midi": 37,
      "hit": false,
      "t": 72755.76000000026,
      "d": 157.47999999999593,
      "v": 117
    },
    {
      "midi": 61,
      "hit": false,
      "t": 72991.98000000008,
      "d": 78.74000000000524,
      "v": 127
    },
    {
      "midi": 37,
      "hit": false,
      "t": 72991.98000000026,
      "d": 78.74000000000524,
      "v": 117
    },
    {
      "midi": 73,
      "hit": false,
      "t": 73110.09000000007,
      "d": 236.22000000000116,
      "v": 127
    },
    {
      "midi": 61,
      "hit": false,
      "t": 73110.09000000008,
      "d": 314.9600000000064,
      "v": 127
    },
    {
      "midi": 50,
      "hit": false,
      "t": 73110.09000000019,
      "d": 236.22000000000116,
      "v": 127
    },
    {
      "midi": 49,
      "hit": false,
      "t": 73110.09000000026,
      "d": 236.22000000000116,
      "v": 117
    },
    {
      "midi": 37,
      "hit": false,
      "t": 73110.09000000026,
      "d": 236.22000000000116,
      "v": 117
    },
    {
      "midi": 61,
      "hit": false,
      "t": 73228.20000000019,
      "d": 314.9600000000064,
      "v": 127
    },
    {
      "midi": 73,
      "hit": false,
      "t": 73464.42000000007,
      "d": 157.47999999999593,
      "v": 127
    },
    {
      "midi": 52,
      "hit": false,
      "t": 73464.42000000019,
      "d": 157.48000000001048,
      "v": 127
    },
    {
      "midi": 49,
      "hit": false,
      "t": 73464.42000000026,
      "d": 157.47999999999593,
      "v": 117
    },
    {
      "midi": 35,
      "hit": false,
      "t": 73464.42000000026,
      "d": 157.47999999999593,
      "v": 117
    },
    {
      "midi": 61,
      "hit": false,
      "t": 73582.53000000009,
      "d": 78.74000000000524,
      "v": 127
    },
    {
      "midi": 64,
      "hit": false,
      "t": 73700.64000000009,
      "d": 157.47999999999593,
      "v": 127
    },
    {
      "midi": 49,
      "hit": false,
      "t": 73700.6400000002,
      "d": 157.47999999999593,
      "v": 127
    },
    {
      "midi": 37,
      "hit": false,
      "t": 73700.64000000026,
      "d": 157.47999999999593,
      "v": 117
    },
    {
      "midi": 33,
      "hit": false,
      "t": 73700.64000000026,
      "d": 157.47999999999593,
      "v": 117
    },
    {
      "midi": 69,
      "hit": false,
      "t": 73936.86000000007,
      "d": 157.47999999999593,
      "v": 127
    },
    {
      "midi": 64,
      "hit": false,
      "t": 73936.86000000009,
      "d": 157.47999999999593,
      "v": 127
    },
    {
      "midi": 36,
      "hit": false,
      "t": 73936.8600000002,
      "d": 157.48000000001048,
      "v": 127
    },
    {
      "midi": 45,
      "hit": false,
      "t": 73936.86000000026,
      "d": 157.47999999999593,
      "v": 117
    },
    {
      "midi": 33,
      "hit": false,
      "t": 73936.86000000026,
      "d": 157.47999999999593,
      "v": 117
    },
    {
      "midi": 66,
      "hit": false,
      "t": 74173.08000000009,
      "d": 157.47999999999593,
      "v": 127
    },
    {
      "midi": 57,
      "hit": false,
      "t": 74173.08000000022,
      "d": 314.9600000000064,
      "v": 127
    },
    {
      "midi": 37,
      "hit": false,
      "t": 74173.08000000026,
      "d": 78.74000000000524,
      "v": 117
    },
    {
      "midi": 33,
      "hit": false,
      "t": 74173.08000000026,
      "d": 236.22000000000116,
      "v": 117
    },
    {
      "midi": 69,
      "hit": false,
      "t": 74291.19000000008,
      "d": 157.47999999999593,
      "v": 127
    },
    {
      "midi": 45,
      "hit": false,
      "t": 74291.19000000026,
      "d": 157.47999999999593,
      "v": 117
    },
    {
      "midi": 68,
      "hit": false,
      "t": 74409.30000000009,
      "d": 157.47999999999593,
      "v": 127
    },
    {
      "midi": 52,
      "hit": false,
      "t": 74409.30000000022,
      "d": 157.48000000001048,
      "v": 127
    },
    {
      "midi": 37,
      "hit": false,
      "t": 74527.41000000027,
      "d": 78.74000000000524,
      "v": 117
    },
    {
      "midi": 33,
      "hit": false,
      "t": 74527.41000000027,
      "d": 78.74000000000524,
      "v": 117
    },
    {
      "midi": 71,
      "hit": false,
      "t": 74645.52000000008,
      "d": 157.47999999999593,
      "v": 127
    },
    {
      "midi": 66,
      "hit": false,
      "t": 74645.52000000009,
      "d": 157.47999999999593,
      "v": 127
    },
    {
      "midi": 50,
      "hit": false,
      "t": 74645.52000000024,
      "d": 236.22000000000116,
      "v": 127
    },
    {
      "midi": 49,
      "hit": false,
      "t": 74645.52000000024,
      "d": 314.9600000000064,
      "v": 127
    },
    {
      "midi": 47,
      "hit": false,
      "t": 74645.52000000027,
      "d": 157.47999999999593,
      "v": 117
    },
    {
      "midi": 35,
      "hit": false,
      "t": 74645.52000000027,
      "d": 157.47999999999593,
      "v": 117
    },
    {
      "midi": 64,
      "hit": false,
      "t": 74881.74000000009,
      "d": 78.74000000000524,
      "v": 127
    },
    {
      "midi": 37,
      "hit": false,
      "t": 74881.74000000027,
      "d": 78.74000000000524,
      "v": 117
    },
    {
      "midi": 35,
      "hit": false,
      "t": 74881.74000000027,
      "d": 78.74000000000524,
      "v": 117
    },
    {
      "midi": 71,
      "hit": false,
      "t": 74999.85000000008,
      "d": 236.22000000000116,
      "v": 127
    },
    {
      "midi": 64,
      "hit": false,
      "t": 74999.8500000001,
      "d": 314.9600000000064,
      "v": 127
    },
    {
      "midi": 50,
      "hit": false,
      "t": 74999.85000000024,
      "d": 236.22000000000116,
      "v": 127
    },
    {
      "midi": 47,
      "hit": false,
      "t": 74999.85000000027,
      "d": 236.22000000000116,
      "v": 117
    },
    {
      "midi": 35,
      "hit": false,
      "t": 74999.85000000027,
      "d": 236.22000000000116,
      "v": 117
    },
    {
      "midi": 78,
      "hit": false,
      "t": 75117.96,
      "d": 314.9600000000064,
      "v": 115
    },
    {
      "midi": 59,
      "hit": false,
      "t": 75117.96000000024,
      "d": 314.9600000000064,
      "v": 127
    },
    {
      "midi": 71,
      "hit": false,
      "t": 75354.18000000008,
      "d": 157.47999999999593,
      "v": 127
    },
    {
      "midi": 52,
      "hit": false,
      "t": 75354.18000000024,
      "d": 157.48000000001048,
      "v": 127
    },
    {
      "midi": 47,
      "hit": false,
      "t": 75354.18000000027,
      "d": 157.47999999999593,
      "v": 117
    },
    {
      "midi": 35,
      "hit": false,
      "t": 75354.18000000027,
      "d": 157.47999999999593,
      "v": 117
    },
    {
      "midi": 80,
      "hit": false,
      "t": 75590.40000000001,
      "d": 472.4400000000023,
      "v": 115
    },
    {
      "midi": 68,
      "hit": false,
      "t": 75590.40000000008,
      "d": 157.47999999999593,
      "v": 127
    },
    {
      "midi": 64,
      "hit": false,
      "t": 75590.4000000001,
      "d": 157.47999999999593,
      "v": 127
    },
    {
      "midi": 68,
      "hit": false,
      "t": 75590.4000000001,
      "d": 157.47999999999593,
      "v": 127
    },
    {
      "midi": 64,
      "hit": false,
      "t": 75590.4000000001,
      "d": 157.47999999999593,
      "v": 127
    },
    {
      "midi": 64,
      "hit": false,
      "t": 75590.4000000001,
      "d": 157.47999999999593,
      "v": 127
    },
    {
      "midi": 68,
      "hit": false,
      "t": 75590.4000000001,
      "d": 157.47999999999593,
      "v": 127
    },
    {
      "midi": 49,
      "hit": false,
      "t": 75590.40000000026,
      "d": 157.47999999999593,
      "v": 127
    },
    {
      "midi": 37,
      "hit": false,
      "t": 75590.40000000027,
      "d": 157.47999999999593,
      "v": 117
    },
    {
      "midi": 73,
      "hit": false,
      "t": 75826.62000000007,
      "d": 157.47999999999593,
      "v": 127
    },
    {
      "midi": 73,
      "hit": false,
      "t": 75826.62000000008,
      "d": 157.47999999999593,
      "v": 127
    },
    {
      "midi": 68,
      "hit": false,
      "t": 75826.62000000008,
      "d": 157.47999999999593,
      "v": 127
    },
    {
      "midi": 64,
      "hit": false,
      "t": 75826.6200000001,
      "d": 157.47999999999593,
      "v": 127
    },
    {
      "midi": 68,
      "hit": false,
      "t": 75826.6200000001,
      "d": 157.47999999999593,
      "v": 127
    },
    {
      "midi": 64,
      "hit": false,
      "t": 75826.6200000001,
      "d": 157.47999999999593,
      "v": 127
    },
    {
      "midi": 64,
      "hit": false,
      "t": 75826.6200000001,
      "d": 157.47999999999593,
      "v": 127
    },
    {
      "midi": 68,
      "hit": false,
      "t": 75826.6200000001,
      "d": 157.47999999999593,
      "v": 127
    },
    {
      "midi": 36,
      "hit": false,
      "t": 75826.62000000026,
      "d": 157.48000000001048,
      "v": 127
    },
    {
      "midi": 49,
      "hit": false,
      "t": 75826.62000000027,
      "d": 157.47999999999593,
      "v": 117
    },
    {
      "midi": 37,
      "hit": false,
      "t": 75826.62000000027,
      "d": 157.47999999999593,
      "v": 117
    },
    {
      "midi": 68,
      "hit": false,
      "t": 76062.84000000008,
      "d": 314.9600000000064,
      "v": 127
    },
    {
      "midi": 64,
      "hit": false,
      "t": 76062.8400000001,
      "d": 314.9600000000064,
      "v": 127
    },
    {
      "midi": 68,
      "hit": false,
      "t": 76062.8400000001,
      "d": 314.9600000000064,
      "v": 127
    },
    {
      "midi": 64,
      "hit": false,
      "t": 76062.8400000001,
      "d": 314.9600000000064,
      "v": 127
    },
    {
      "midi": 64,
      "hit": false,
      "t": 76062.8400000001,
      "d": 314.9600000000064,
      "v": 127
    },
    {
      "midi": 68,
      "hit": false,
      "t": 76062.8400000001,
      "d": 314.9600000000064,
      "v": 127
    },
    {
      "midi": 61,
      "hit": false,
      "t": 76062.84000000027,
      "d": 314.9600000000064,
      "v": 127
    },
    {
      "midi": 37,
      "hit": false,
      "t": 76062.84000000027,
      "d": 78.74000000000524,
      "v": 117
    },
    {
      "midi": 73,
      "hit": false,
      "t": 76180.95000000007,
      "d": 157.47999999999593,
      "v": 127
    },
    {
      "midi": 73,
      "hit": false,
      "t": 76180.95000000008,
      "d": 157.47999999999593,
      "v": 127
    },
    {
      "midi": 49,
      "hit": false,
      "t": 76180.95000000027,
      "d": 157.47999999999593,
      "v": 117
    },
    {
      "midi": 52,
      "hit": false,
      "t": 76299.06000000027,
      "d": 157.48000000001048,
      "v": 127
    },
    {
      "midi": 64,
      "hit": false,
      "t": 76417.17000000009,
      "d": 78.74000000000524,
      "v": 127
    },
    {
      "midi": 61,
      "hit": false,
      "t": 76417.1700000001,
      "d": 78.74000000000524,
      "v": 127
    },
    {
      "midi": 64,
      "hit": false,
      "t": 76417.1700000001,
      "d": 78.74000000000524,
      "v": 127
    },
    {
      "midi": 61,
      "hit": false,
      "t": 76417.1700000001,
      "d": 78.74000000000524,
      "v": 127
    },
    {
      "midi": 61,
      "hit": false,
      "t": 76417.1700000001,
      "d": 78.74000000000524,
      "v": 127
    },
    {
      "midi": 64,
      "hit": false,
      "t": 76417.1700000001,
      "d": 78.74000000000524,
      "v": 127
    },
    {
      "midi": 37,
      "hit": false,
      "t": 76417.17000000027,
      "d": 78.74000000000524,
      "v": 117
    },
    {
      "midi": 35,
      "hit": false,
      "t": 76417.17000000027,
      "d": 78.74000000000524,
      "v": 117
    },
    {
      "midi": 73,
      "hit": false,
      "t": 76535.28000000007,
      "d": 157.47999999999593,
      "v": 127
    },
    {
      "midi": 73,
      "hit": false,
      "t": 76535.28000000009,
      "d": 157.47999999999593,
      "v": 127
    },
    {
      "midi": 68,
      "hit": false,
      "t": 76535.28000000009,
      "d": 157.47999999999593,
      "v": 127
    },
    {
      "midi": 64,
      "hit": false,
      "t": 76535.2800000001,
      "d": 157.47999999999593,
      "v": 127
    },
    {
      "midi": 68,
      "hit": false,
      "t": 76535.2800000001,
      "d": 157.47999999999593,
      "v": 127
    },
    {
      "midi": 64,
      "hit": false,
      "t": 76535.2800000001,
      "d": 157.47999999999593,
      "v": 127
    },
    {
      "midi": 64,
      "hit": false,
      "t": 76535.2800000001,
      "d": 157.47999999999593,
      "v": 127
    },
    {
      "midi": 68,
      "hit": false,
      "t": 76535.2800000001,
      "d": 157.47999999999593,
      "v": 127
    },
    {
      "midi": 49,
      "hit": false,
      "t": 76535.28000000028,
      "d": 157.47999999999593,
      "v": 117
    },
    {
      "midi": 37,
      "hit": false,
      "t": 76535.28000000028,
      "d": 157.47999999999593,
      "v": 117
    },
    {
      "midi": 50,
      "hit": false,
      "t": 76535.28000000029,
      "d": 236.22000000000116,
      "v": 127
    },
    {
      "midi": 49,
      "hit": false,
      "t": 76535.28000000029,
      "d": 314.9600000000064,
      "v": 127
    },
    {
      "midi": 64,
      "hit": false,
      "t": 76771.50000000009,
      "d": 78.74000000000524,
      "v": 127
    },
    {
      "midi": 61,
      "hit": false,
      "t": 76771.5000000001,
      "d": 78.74000000000524,
      "v": 127
    },
    {
      "midi": 64,
      "hit": false,
      "t": 76771.5000000001,
      "d": 78.74000000000524,
      "v": 127
    },
    {
      "midi": 61,
      "hit": false,
      "t": 76771.5000000001,
      "d": 78.74000000000524,
      "v": 127
    },
    {
      "midi": 61,
      "hit": false,
      "t": 76771.5000000001,
      "d": 78.74000000000524,
      "v": 127
    },
    {
      "midi": 64,
      "hit": false,
      "t": 76771.5000000001,
      "d": 78.74000000000524,
      "v": 127
    },
    {
      "midi": 37,
      "hit": false,
      "t": 76771.50000000028,
      "d": 78.74000000000524,
      "v": 117
    },
    {
      "midi": 73,
      "hit": false,
      "t": 76889.61000000007,
      "d": 236.22000000000116,
      "v": 127
    },
    {
      "midi": 73,
      "hit": false,
      "t": 76889.61000000009,
      "d": 236.22000000000116,
      "v": 127
    },
    {
      "midi": 64,
      "hit": false,
      "t": 76889.61000000009,
      "d": 314.9600000000064,
      "v": 127
    },
    {
      "midi": 61,
      "hit": false,
      "t": 76889.6100000001,
      "d": 314.9600000000064,
      "v": 127
    },
    {
      "midi": 64,
      "hit": false,
      "t": 76889.6100000001,
      "d": 314.9600000000064,
      "v": 127
    },
    {
      "midi": 61,
      "hit": false,
      "t": 76889.6100000001,
      "d": 314.9600000000064,
      "v": 127
    },
    {
      "midi": 61,
      "hit": false,
      "t": 76889.6100000001,
      "d": 314.9600000000064,
      "v": 127
    },
    {
      "midi": 64,
      "hit": false,
      "t": 76889.6100000001,
      "d": 314.9600000000064,
      "v": 127
    },
    {
      "midi": 49,
      "hit": false,
      "t": 76889.61000000028,
      "d": 236.22000000000116,
      "v": 117
    },
    {
      "midi": 37,
      "hit": false,
      "t": 76889.61000000028,
      "d": 236.22000000000116,
      "v": 117
    },
    {
      "midi": 50,
      "hit": false,
      "t": 76889.61000000029,
      "d": 236.22000000000116,
      "v": 127
    },
    {
      "midi": 61,
      "hit": false,
      "t": 77007.72000000029,
      "d": 314.9600000000064,
      "v": 127
    },
    {
      "midi": 49,
      "hit": false,
      "t": 77243.94000000028,
      "d": 157.47999999999593,
      "v": 117
    },
    {
      "midi": 35,
      "hit": false,
      "t": 77243.94000000028,
      "d": 157.47999999999593,
      "v": 117
    },
    {
      "midi": 52,
      "hit": false,
      "t": 77243.9400000003,
      "d": 157.48000000001048,
      "v": 127
    },
    {
      "midi": 73,
      "hit": false,
      "t": 77362.05000000008,
      "d": 39.36999999999534,
      "v": 127
    },
    {
      "midi": 73,
      "hit": false,
      "t": 77362.05000000009,
      "d": 39.36999999999534,
      "v": 127
    },
    {
      "midi": 64,
      "hit": false,
      "t": 77362.05000000009,
      "d": 78.74000000000524,
      "v": 64
    },
    {
      "midi": 61,
      "hit": false,
      "t": 77362.0500000001,
      "d": 78.74000000000524,
      "v": 127
    },
    {
      "midi": 64,
      "hit": false,
      "t": 77362.0500000001,
      "d": 78.74000000000524,
      "v": 64
    },
    {
      "midi": 61,
      "hit": false,
      "t": 77362.0500000001,
      "d": 78.74000000000524,
      "v": 127
    },
    {
      "midi": 61,
      "hit": false,
      "t": 77362.0500000001,
      "d": 78.74000000000524,
      "v": 127
    },
    {
      "midi": 64,
      "hit": false,
      "t": 77362.0500000001,
      "d": 78.74000000000524,
      "v": 64
    },
    {
      "midi": 71,
      "hit": false,
      "t": 77480.16000000009,
      "d": 157.47999999999593,
      "v": 127
    },
    {
      "midi": 71,
      "hit": false,
      "t": 77480.1600000001,
      "d": 157.47999999999593,
      "v": 127
    },
    {
      "midi": 71,
      "hit": false,
      "t": 77480.1600000001,
      "d": 157.47999999999593,
      "v": 127
    },
    {
      "midi": 71,
      "hit": false,
      "t": 77480.1600000001,
      "d": 157.47999999999593,
      "v": 127
    },
    {
      "midi": 37,
      "hit": false,
      "t": 77480.16000000028,
      "d": 157.47999999999593,
      "v": 117
    },
    {
      "midi": 33,
      "hit": false,
      "t": 77480.16000000028,
      "d": 157.47999999999593,
      "v": 117
    },
    {
      "midi": 49,
      "hit": false,
      "t": 77480.16000000031,
      "d": 157.47999999999593,
      "v": 127
    },
    {
      "midi": 69,
      "hit": false,
      "t": 77716.38000000006,
      "d": 157.47999999999593,
      "v": 127
    },
    {
      "midi": 69,
      "hit": false,
      "t": 77716.38000000008,
      "d": 157.47999999999593,
      "v": 127
    },
    {
      "midi": 69,
      "hit": false,
      "t": 77716.38000000009,
      "d": 157.47999999999593,
      "v": 127
    },
    {
      "midi": 69,
      "hit": false,
      "t": 77716.3800000001,
      "d": 157.47999999999593,
      "v": 127
    },
    {
      "midi": 69,
      "hit": false,
      "t": 77716.3800000001,
      "d": 157.47999999999593,
      "v": 127
    },
    {
      "midi": 69,
      "hit": false,
      "t": 77716.3800000001,
      "d": 157.47999999999593,
      "v": 127
    },
    {
      "midi": 45,
      "hit": false,
      "t": 77716.38000000028,
      "d": 157.47999999999593,
      "v": 117
    },
    {
      "midi": 33,
      "hit": false,
      "t": 77716.38000000028,
      "d": 157.47999999999593,
      "v": 117
    },
    {
      "midi": 36,
      "hit": false,
      "t": 77716.38000000031,
      "d": 157.48000000001048,
      "v": 127
    },
    {
      "midi": 68,
      "hit": false,
      "t": 77952.6000000001,
      "d": 157.47999999999593,
      "v": 127
    },
    {
      "midi": 68,
      "hit": false,
      "t": 77952.60000000011,
      "d": 157.47999999999593,
      "v": 127
    },
    {
      "midi": 68,
      "hit": false,
      "t": 77952.60000000011,
      "d": 157.47999999999593,
      "v": 127
    },
    {
      "midi": 68,
      "hit": false,
      "t": 77952.60000000011,
      "d": 157.47999999999593,
      "v": 127
    },
    {
      "midi": 37,
      "hit": false,
      "t": 77952.60000000028,
      "d": 78.74000000000524,
      "v": 117
    },
    {
      "midi": 33,
      "hit": false,
      "t": 77952.60000000028,
      "d": 236.22000000000116,
      "v": 117
    },
    {
      "midi": 57,
      "hit": false,
      "t": 77952.60000000033,
      "d": 314.9600000000064,
      "v": 127
    },
    {
      "midi": 69,
      "hit": false,
      "t": 78070.71000000006,
      "d": 157.47999999999593,
      "v": 127
    },
    {
      "midi": 69,
      "hit": false,
      "t": 78070.71000000008,
      "d": 157.47999999999593,
      "v": 127
    },
    {
      "midi": 45,
      "hit": false,
      "t": 78070.71000000028,
      "d": 157.47999999999593,
      "v": 117
    },
    {
      "midi": 66,
      "hit": false,
      "t": 78188.8200000001,
      "d": 78.74000000000524,
      "v": 127
    },
    {
      "midi": 66,
      "hit": false,
      "t": 78188.82000000011,
      "d": 78.74000000000524,
      "v": 127
    },
    {
      "midi": 66,
      "hit": false,
      "t": 78188.82000000011,
      "d": 78.74000000000524,
      "v": 127
    },
    {
      "midi": 66,
      "hit": false,
      "t": 78188.82000000011,
      "d": 78.74000000000524,
      "v": 127
    },
    {
      "midi": 52,
      "hit": false,
      "t": 78188.82000000033,
      "d": 157.48000000001048,
      "v": 127
    },
    {
      "midi": 68,
      "hit": false,
      "t": 78306.9300000001,
      "d": 314.9600000000064,
      "v": 127
    },
    {
      "midi": 68,
      "hit": false,
      "t": 78306.93000000011,
      "d": 314.9600000000064,
      "v": 127
    },
    {
      "midi": 68,
      "hit": false,
      "t": 78306.93000000011,
      "d": 314.9600000000064,
      "v": 127
    },
    {
      "midi": 68,
      "hit": false,
      "t": 78306.93000000011,
      "d": 314.9600000000064,
      "v": 127
    },
    {
      "midi": 37,
      "hit": false,
      "t": 78306.93000000028,
      "d": 78.74000000000524,
      "v": 117
    },
    {
      "midi": 33,
      "hit": false,
      "t": 78306.93000000028,
      "d": 78.74000000000524,
      "v": 117
    },
    {
      "midi": 68,
      "hit": false,
      "t": 78425.04000000007,
      "d": 78.74000000000524,
      "v": 127
    },
    {
      "midi": 69,
      "hit": false,
      "t": 78425.04000000007,
      "d": 157.47999999999593,
      "v": 127
    },
    {
      "midi": 68,
      "hit": false,
      "t": 78425.04000000008,
      "d": 78.74000000000524,
      "v": 127
    },
    {
      "midi": 69,
      "hit": false,
      "t": 78425.04000000008,
      "d": 157.47999999999593,
      "v": 127
    },
    {
      "midi": 35,
      "hit": false,
      "t": 78425.04000000028,
      "d": 157.47999999999593,
      "v": 117
    },
    {
      "midi": 44,
      "hit": false,
      "t": 78425.04000000028,
      "d": 157.47999999999593,
      "v": 117
    },
    {
      "midi": 56,
      "hit": false,
      "t": 78425.04000000034,
      "d": 78.74000000000524,
      "v": 127
    },
    {
      "midi": 57,
      "hit": false,
      "t": 78425.04000000034,
      "d": 157.47999999999593,
      "v": 127
    },
    {
      "midi": 50,
      "hit": false,
      "t": 78425.04000000034,
      "d": 236.2199999999866,
      "v": 127
    },
    {
      "midi": 49,
      "hit": false,
      "t": 78425.04000000034,
      "d": 314.95999999999185,
      "v": 127
    },
    {
      "midi": 68,
      "hit": false,
      "t": 78543.15000000007,
      "d": 78.73999999999069,
      "v": 127
    },
    {
      "midi": 68,
      "hit": false,
      "t": 78543.15000000008,
      "d": 78.73999999999069,
      "v": 127
    },
    {
      "midi": 56,
      "hit": false,
      "t": 78543.15000000034,
      "d": 78.73999999999069,
      "v": 127
    },
    {
      "midi": 71,
      "hit": false,
      "t": 78661.26000000005,
      "d": 78.74000000000524,
      "v": 127
    },
    {
      "midi": 71,
      "hit": false,
      "t": 78661.26000000007,
      "d": 78.74000000000524,
      "v": 127
    },
    {
      "midi": 37,
      "hit": false,
      "t": 78661.26000000029,
      "d": 78.74000000000524,
      "v": 117
    },
    {
      "midi": 35,
      "hit": false,
      "t": 78661.26000000029,
      "d": 78.74000000000524,
      "v": 117
    },
    {
      "midi": 59,
      "hit": false,
      "t": 78661.26000000033,
      "d": 78.74000000000524,
      "v": 127
    },
    {
      "midi": 68,
      "hit": false,
      "t": 78779.37000000005,
      "d": 157.47999999999593,
      "v": 127
    },
    {
      "midi": 68,
      "hit": false,
      "t": 78779.37000000007,
      "d": 157.47999999999593,
      "v": 127
    },
    {
      "midi": 35,
      "hit": false,
      "t": 78779.37000000029,
      "d": 236.22000000000116,
      "v": 117
    },
    {
      "midi": 44,
      "hit": false,
      "t": 78779.37000000029,
      "d": 236.22000000000116,
      "v": 117
    },
    {
      "midi": 50,
      "hit": false,
      "t": 78779.37000000033,
      "d": 236.22000000000116,
      "v": 127
    },
    {
      "midi": 56,
      "hit": false,
      "t": 78897.48000000033,
      "d": 39.36999999999534,
      "v": 127
    },
    {
      "midi": 57,
      "hit": false,
      "t": 78897.48000000033,
      "d": 314.9600000000064,
      "v": 127
    },
    {
      "midi": 35,
      "hit": false,
      "t": 79133.70000000029,
      "d": 157.47999999999593,
      "v": 117
    },
    {
      "midi": 44,
      "hit": false,
      "t": 79133.70000000029,
      "d": 157.47999999999593,
      "v": 117
    },
    {
      "midi": 52,
      "hit": false,
      "t": 79133.70000000033,
      "d": 157.48000000001048,
      "v": 127
    },
    {
      "midi": 64,
      "hit": false,
      "t": 79369.92000000001,
      "d": 629.9199999999983,
      "v": 127
    },
    {
      "midi": 73,
      "hit": false,
      "t": 79369.92000000001,
      "d": 157.47999999999593,
      "v": 115
    },
    {
      "midi": 64,
      "hit": false,
      "t": 79369.92000000001,
      "d": 629.9199999999983,
      "v": 117
    },
    {
      "midi": 37,
      "hit": false,
      "t": 79369.92000000029,
      "d": 157.47999999999593,
      "v": 117
    },
    {
      "midi": 49,
      "hit": false,
      "t": 79369.92000000035,
      "d": 157.47999999999593,
      "v": 127
    },
    {
      "midi": 61,
      "hit": false,
      "t": 79606.1400000001,
      "d": 157.47999999999593,
      "v": 127
    },
    {
      "midi": 61,
      "hit": false,
      "t": 79606.14000000012,
      "d": 157.47999999999593,
      "v": 127
    },
    {
      "midi": 61,
      "hit": false,
      "t": 79606.14000000012,
      "d": 157.47999999999593,
      "v": 127
    },
    {
      "midi": 61,
      "hit": false,
      "t": 79606.14000000012,
      "d": 157.47999999999593,
      "v": 127
    },
    {
      "midi": 47,
      "hit": false,
      "t": 79606.14000000029,
      "d": 157.47999999999593,
      "v": 117
    },
    {
      "midi": 37,
      "hit": false,
      "t": 79606.14000000029,
      "d": 157.47999999999593,
      "v": 117
    },
    {
      "midi": 36,
      "hit": false,
      "t": 79606.14000000035,
      "d": 157.48000000001048,
      "v": 127
    },
    {
      "midi": 61,
      "hit": false,
      "t": 79842.3600000001,
      "d": 157.47999999999593,
      "v": 127
    },
    {
      "midi": 61,
      "hit": false,
      "t": 79842.36000000012,
      "d": 157.47999999999593,
      "v": 127
    },
    {
      "midi": 61,
      "hit": false,
      "t": 79842.36000000012,
      "d": 157.47999999999593,
      "v": 127
    },
    {
      "midi": 61,
      "hit": false,
      "t": 79842.36000000012,
      "d": 157.47999999999593,
      "v": 127
    },
    {
      "midi": 37,
      "hit": false,
      "t": 79842.36000000029,
      "d": 78.74000000000524,
      "v": 117
    },
    {
      "midi": 47,
      "hit": false,
      "t": 79842.36000000029,
      "d": 78.74000000000524,
      "v": 117
    },
    {
      "midi": 61,
      "hit": false,
      "t": 79842.36000000036,
      "d": 314.9600000000064,
      "v": 127
    },
    {
      "midi": 47,
      "hit": false,
      "t": 79960.47000000029,
      "d": 78.74000000000524,
      "v": 117
    },
    {
      "midi": 61,
      "hit": false,
      "t": 80078.5800000001,
      "d": 157.47999999999593,
      "v": 127
    },
    {
      "midi": 61,
      "hit": false,
      "t": 80078.58000000012,
      "d": 157.47999999999593,
      "v": 127
    },
    {
      "midi": 61,
      "hit": false,
      "t": 80078.58000000012,
      "d": 157.47999999999593,
      "v": 127
    },
    {
      "midi": 61,
      "hit": false,
      "t": 80078.58000000012,
      "d": 157.47999999999593,
      "v": 127
    },
    {
      "midi": 47,
      "hit": false,
      "t": 80078.5800000003,
      "d": 78.74000000000524,
      "v": 117
    },
    {
      "midi": 52,
      "hit": false,
      "t": 80078.58000000037,
      "d": 157.48000000001048,
      "v": 127
    },
    {
      "midi": 36,
      "hit": false,
      "t": 80196.6900000003,
      "d": 78.74000000000524,
      "v": 117
    },
    {
      "midi": 35,
      "hit": false,
      "t": 80196.6900000003,
      "d": 78.74000000000524,
      "v": 117
    },
    {
      "midi": 66,
      "hit": false,
      "t": 80314.80000000002,
      "d": 866.1399999999849,
      "v": 127
    },
    {
      "midi": 66,
      "hit": false,
      "t": 80314.80000000002,
      "d": 866.1399999999849,
      "v": 117
    },
    {
      "midi": 59,
      "hit": false,
      "t": 80314.80000000008,
      "d": 78.74000000000524,
      "v": 127
    },
    {
      "midi": 63,
      "hit": false,
      "t": 80314.8000000001,
      "d": 236.22000000000116,
      "v": 127
    },
    {
      "midi": 63,
      "hit": false,
      "t": 80314.80000000012,
      "d": 236.22000000000116,
      "v": 127
    },
    {
      "midi": 63,
      "hit": false,
      "t": 80314.80000000012,
      "d": 236.22000000000116,
      "v": 127
    },
    {
      "midi": 63,
      "hit": false,
      "t": 80314.80000000012,
      "d": 236.22000000000116,
      "v": 127
    },
    {
      "midi": 45,
      "hit": false,
      "t": 80314.8000000003,
      "d": 157.47999999999593,
      "v": 117
    },
    {
      "midi": 37,
      "hit": false,
      "t": 80314.8000000003,
      "d": 157.47999999999593,
      "v": 117
    },
    {
      "midi": 44,
      "hit": false,
      "t": 80314.8000000003,
      "d": 236.22000000000116,
      "v": 117
    },
    {
      "midi": 50,
      "hit": false,
      "t": 80314.80000000038,
      "d": 236.22000000000116,
      "v": 127
    },
    {
      "midi": 49,
      "hit": false,
      "t": 80314.80000000038,
      "d": 314.9600000000064,
      "v": 127
    },
    {
      "midi": 59,
      "hit": false,
      "t": 80432.91000000008,
      "d": 157.47999999999593,
      "v": 127
    },
    {
      "midi": 37,
      "hit": false,
      "t": 80551.0200000003,
      "d": 78.74000000000524,
      "v": 117
    },
    {
      "midi": 59,
      "hit": false,
      "t": 80669.13000000008,
      "d": 78.74000000000524,
      "v": 127
    },
    {
      "midi": 63,
      "hit": false,
      "t": 80669.1300000001,
      "d": 157.47999999999593,
      "v": 127
    },
    {
      "midi": 63,
      "hit": false,
      "t": 80669.13000000012,
      "d": 157.47999999999593,
      "v": 127
    },
    {
      "midi": 63,
      "hit": false,
      "t": 80669.13000000012,
      "d": 157.47999999999593,
      "v": 127
    },
    {
      "midi": 63,
      "hit": false,
      "t": 80669.13000000012,
      "d": 157.47999999999593,
      "v": 127
    },
    {
      "midi": 47,
      "hit": false,
      "t": 80669.1300000003,
      "d": 236.22000000000116,
      "v": 117
    },
    {
      "midi": 37,
      "hit": false,
      "t": 80669.1300000003,
      "d": 236.22000000000116,
      "v": 117
    },
    {
      "midi": 50,
      "hit": false,
      "t": 80669.13000000038,
      "d": 236.22000000000116,
      "v": 127
    },
    {
      "midi": 56,
      "hit": false,
      "t": 80787.24000000008,
      "d": 157.47999999999593,
      "v": 127
    },
    {
      "midi": 63,
      "hit": false,
      "t": 80787.24000000038,
      "d": 314.9600000000064,
      "v": 127
    },
    {
      "midi": 68,
      "hit": false,
      "t": 81023.46,
      "d": 1338.5800000000017,
      "v": 127
    },
    {
      "midi": 68,
      "hit": false,
      "t": 81023.46,
      "d": 1338.5800000000017,
      "v": 117
    },
    {
      "midi": 59,
      "hit": false,
      "t": 81023.46000000008,
      "d": 157.47999999999593,
      "v": 127
    },
    {
      "midi": 59,
      "hit": false,
      "t": 81023.46000000011,
      "d": 236.22000000000116,
      "v": 127
    },
    {
      "midi": 59,
      "hit": false,
      "t": 81023.46000000012,
      "d": 236.22000000000116,
      "v": 127
    },
    {
      "midi": 59,
      "hit": false,
      "t": 81023.46000000012,
      "d": 157.47999999999593,
      "v": 127
    },
    {
      "midi": 59,
      "hit": false,
      "t": 81023.46000000012,
      "d": 236.22000000000116,
      "v": 127
    },
    {
      "midi": 49,
      "hit": false,
      "t": 81023.4600000003,
      "d": 157.47999999999593,
      "v": 117
    },
    {
      "midi": 35,
      "hit": false,
      "t": 81023.4600000003,
      "d": 157.47999999999593,
      "v": 117
    },
    {
      "midi": 52,
      "hit": false,
      "t": 81023.46000000038,
      "d": 157.48000000001048,
      "v": 127
    },
    {
      "midi": 37,
      "hit": false,
      "t": 81259.6800000003,
      "d": 157.47999999999593,
      "v": 117
    },
    {
      "midi": 49,
      "hit": false,
      "t": 81259.6800000004,
      "d": 157.47999999999593,
      "v": 127
    },
    {
      "midi": 64,
      "hit": false,
      "t": 81495.90000000011,
      "d": 157.47999999999593,
      "v": 127
    },
    {
      "midi": 64,
      "hit": false,
      "t": 81495.90000000013,
      "d": 157.47999999999593,
      "v": 127
    },
    {
      "midi": 64,
      "hit": false,
      "t": 81495.90000000013,
      "d": 157.47999999999593,
      "v": 127
    },
    {
      "midi": 64,
      "hit": false,
      "t": 81495.90000000013,
      "d": 157.47999999999593,
      "v": 127
    },
    {
      "midi": 52,
      "hit": false,
      "t": 81495.9000000003,
      "d": 157.47999999999593,
      "v": 117
    },
    {
      "midi": 37,
      "hit": false,
      "t": 81495.9000000003,
      "d": 157.47999999999593,
      "v": 117
    },
    {
      "midi": 36,
      "hit": false,
      "t": 81495.9000000004,
      "d": 157.48000000001048,
      "v": 127
    },
    {
      "midi": 64,
      "hit": false,
      "t": 81732.12000000011,
      "d": 157.47999999999593,
      "v": 127
    },
    {
      "midi": 64,
      "hit": false,
      "t": 81732.12000000013,
      "d": 157.47999999999593,
      "v": 127
    },
    {
      "midi": 64,
      "hit": false,
      "t": 81732.12000000013,
      "d": 157.47999999999593,
      "v": 127
    },
    {
      "midi": 64,
      "hit": false,
      "t": 81732.12000000013,
      "d": 157.47999999999593,
      "v": 127
    },
    {
      "midi": 37,
      "hit": false,
      "t": 81732.1200000003,
      "d": 78.74000000000524,
      "v": 117
    },
    {
      "midi": 64,
      "hit": false,
      "t": 81732.12000000042,
      "d": 314.9600000000064,
      "v": 127
    },
    {
      "midi": 52,
      "hit": false,
      "t": 81850.2300000003,
      "d": 39.36999999999534,
      "v": 117
    },
    {
      "midi": 61,
      "hit": false,
      "t": 81968.34000000011,
      "d": 157.47999999999593,
      "v": 127
    },
    {
      "midi": 61,
      "hit": false,
      "t": 81968.34000000013,
      "d": 157.47999999999593,
      "v": 127
    },
    {
      "midi": 61,
      "hit": false,
      "t": 81968.34000000013,
      "d": 157.47999999999593,
      "v": 127
    },
    {
      "midi": 61,
      "hit": false,
      "t": 81968.34000000013,
      "d": 157.47999999999593,
      "v": 127
    },
    {
      "midi": 49,
      "hit": false,
      "t": 81968.3400000003,
      "d": 157.47999999999593,
      "v": 117
    },
    {
      "midi": 52,
      "hit": false,
      "t": 81968.34000000042,
      "d": 157.48000000001048,
      "v": 127
    },
    {
      "midi": 37,
      "hit": false,
      "t": 82086.4500000003,
      "d": 78.73999999999069,
      "v": 117
    },
    {
      "midi": 35,
      "hit": false,
      "t": 82086.4500000003,
      "d": 78.73999999999069,
      "v": 117
    },
    {
      "midi": 64,
      "hit": false,
      "t": 82204.56000000011,
      "d": 236.22000000000116,
      "v": 127
    },
    {
      "midi": 64,
      "hit": false,
      "t": 82204.56000000013,
      "d": 236.22000000000116,
      "v": 127
    },
    {
      "midi": 64,
      "hit": false,
      "t": 82204.56000000013,
      "d": 236.22000000000116,
      "v": 127
    },
    {
      "midi": 64,
      "hit": false,
      "t": 82204.56000000013,
      "d": 236.22000000000116,
      "v": 127
    },
    {
      "midi": 52,
      "hit": false,
      "t": 82204.56000000029,
      "d": 157.47999999999593,
      "v": 117
    },
    {
      "midi": 37,
      "hit": false,
      "t": 82204.56000000029,
      "d": 157.47999999999593,
      "v": 117
    },
    {
      "midi": 50,
      "hit": false,
      "t": 82204.56000000043,
      "d": 236.22000000000116,
      "v": 127
    },
    {
      "midi": 49,
      "hit": false,
      "t": 82204.56000000043,
      "d": 314.9600000000064,
      "v": 127
    },
    {
      "midi": 37,
      "hit": false,
      "t": 82440.78000000029,
      "d": 78.74000000000524,
      "v": 117
    },
    {
      "midi": 63,
      "hit": false,
      "t": 82558.89000000012,
      "d": 472.4400000000023,
      "v": 127
    },
    {
      "midi": 63,
      "hit": false,
      "t": 82558.89000000013,
      "d": 472.4400000000023,
      "v": 127
    },
    {
      "midi": 63,
      "hit": false,
      "t": 82558.89000000013,
      "d": 472.4400000000023,
      "v": 127
    },
    {
      "midi": 51,
      "hit": false,
      "t": 82558.89000000029,
      "d": 236.22000000000116,
      "v": 117
    },
    {
      "midi": 37,
      "hit": false,
      "t": 82558.89000000029,
      "d": 236.22000000000116,
      "v": 117
    },
    {
      "midi": 50,
      "hit": false,
      "t": 82558.89000000044,
      "d": 236.22000000000116,
      "v": 127
    },
    {
      "midi": 66,
      "hit": false,
      "t": 82677.00000000001,
      "d": 629.9199999999983,
      "v": 127
    },
    {
      "midi": 66,
      "hit": false,
      "t": 82677.00000000001,
      "d": 629.9199999999983,
      "v": 117
    },
    {
      "midi": 63,
      "hit": false,
      "t": 82677.00000000013,
      "d": 314.9600000000064,
      "v": 127
    },
    {
      "midi": 63,
      "hit": false,
      "t": 82677.00000000044,
      "d": 314.9600000000064,
      "v": 127
    },
    {
      "midi": 49,
      "hit": false,
      "t": 82913.22000000029,
      "d": 157.47999999999593,
      "v": 117
    },
    {
      "midi": 35,
      "hit": false,
      "t": 82913.22000000029,
      "d": 157.47999999999593,
      "v": 117
    },
    {
      "midi": 52,
      "hit": false,
      "t": 82913.22000000044,
      "d": 157.48000000001048,
      "v": 127
    },
    {
      "midi": 64,
      "hit": false,
      "t": 83149.44000000002,
      "d": 629.9199999999983,
      "v": 127
    },
    {
      "midi": 64,
      "hit": false,
      "t": 83149.44000000002,
      "d": 629.9199999999983,
      "v": 117
    },
    {
      "midi": 37,
      "hit": false,
      "t": 83149.4400000003,
      "d": 157.47999999999593,
      "v": 117
    },
    {
      "midi": 49,
      "hit": false,
      "t": 83149.44000000045,
      "d": 157.47999999999593,
      "v": 127
    },
    {
      "midi": 61,
      "hit": false,
      "t": 83385.66000000012,
      "d": 157.47999999999593,
      "v": 127
    },
    {
      "midi": 61,
      "hit": false,
      "t": 83385.66000000013,
      "d": 157.47999999999593,
      "v": 127
    },
    {
      "midi": 61,
      "hit": false,
      "t": 83385.66000000013,
      "d": 157.47999999999593,
      "v": 127
    },
    {
      "midi": 61,
      "hit": false,
      "t": 83385.66000000013,
      "d": 157.47999999999593,
      "v": 127
    },
    {
      "midi": 47,
      "hit": false,
      "t": 83385.6600000003,
      "d": 157.47999999999593,
      "v": 117
    },
    {
      "midi": 37,
      "hit": false,
      "t": 83385.6600000003,
      "d": 157.47999999999593,
      "v": 117
    },
    {
      "midi": 36,
      "hit": false,
      "t": 83385.66000000045,
      "d": 157.48000000001048,
      "v": 127
    },
    {
      "midi": 61,
      "hit": false,
      "t": 83621.88000000012,
      "d": 157.47999999999593,
      "v": 127
    },
    {
      "midi": 61,
      "hit": false,
      "t": 83621.88000000014,
      "d": 157.47999999999593,
      "v": 127
    },
    {
      "midi": 61,
      "hit": false,
      "t": 83621.88000000014,
      "d": 157.47999999999593,
      "v": 127
    },
    {
      "midi": 61,
      "hit": false,
      "t": 83621.88000000014,
      "d": 157.47999999999593,
      "v": 127
    },
    {
      "midi": 37,
      "hit": false,
      "t": 83621.8800000003,
      "d": 78.74000000000524,
      "v": 117
    },
    {
      "midi": 61,
      "hit": false,
      "t": 83621.88000000047,
      "d": 314.9600000000064,
      "v": 127
    },
    {
      "midi": 47,
      "hit": false,
      "t": 83739.9900000003,
      "d": 39.36999999999534,
      "v": 117
    },
    {
      "midi": 61,
      "hit": false,
      "t": 83858.10000000012,
      "d": 157.47999999999593,
      "v": 127
    },
    {
      "midi": 61,
      "hit": false,
      "t": 83858.10000000014,
      "d": 157.47999999999593,
      "v": 127
    },
    {
      "midi": 61,
      "hit": false,
      "t": 83858.10000000014,
      "d": 157.47999999999593,
      "v": 127
    },
    {
      "midi": 61,
      "hit": false,
      "t": 83858.10000000014,
      "d": 157.47999999999593,
      "v": 127
    },
    {
      "midi": 47,
      "hit": false,
      "t": 83858.1000000003,
      "d": 39.36999999999534,
      "v": 117
    },
    {
      "midi": 52,
      "hit": false,
      "t": 83858.10000000047,
      "d": 157.48000000001048,
      "v": 127
    },
    {
      "midi": 37,
      "hit": false,
      "t": 83976.2100000003,
      "d": 78.73999999999069,
      "v": 117
    },
    {
      "midi": 35,
      "hit": false,
      "t": 83976.2100000003,
      "d": 78.73999999999069,
      "v": 117
    },
    {
      "midi": 66,
      "hit": false,
      "t": 84094.32000000002,
      "d": 866.1399999999849,
      "v": 127
    },
    {
      "midi": 66,
      "hit": false,
      "t": 84094.32000000002,
      "d": 866.1399999999849,
      "v": 117
    },
    {
      "midi": 63,
      "hit": false,
      "t": 84094.32000000012,
      "d": 236.22000000000116,
      "v": 127
    },
    {
      "midi": 63,
      "hit": false,
      "t": 84094.32000000014,
      "d": 236.22000000000116,
      "v": 127
    },
    {
      "midi": 63,
      "hit": false,
      "t": 84094.32000000014,
      "d": 236.22000000000116,
      "v": 127
    },
    {
      "midi": 63,
      "hit": false,
      "t": 84094.32000000014,
      "d": 236.22000000000116,
      "v": 127
    },
    {
      "midi": 45,
      "hit": false,
      "t": 84094.32000000028,
      "d": 157.47999999999593,
      "v": 117
    },
    {
      "midi": 37,
      "hit": false,
      "t": 84094.32000000028,
      "d": 157.47999999999593,
      "v": 117
    },
    {
      "midi": 44,
      "hit": false,
      "t": 84094.32000000028,
      "d": 236.22000000000116,
      "v": 117
    },
    {
      "midi": 49,
      "hit": false,
      "t": 84094.32000000049,
      "d": 314.9600000000064,
      "v": 127
    },
    {
      "midi": 50,
      "hit": false,
      "t": 84094.32000000049,
      "d": 314.9600000000064,
      "v": 127
    },
    {
      "midi": 37,
      "hit": false,
      "t": 84330.54000000028,
      "d": 78.74000000000524,
      "v": 117
    },
    {
      "midi": 63,
      "hit": false,
      "t": 84448.65000000013,
      "d": 157.47999999999593,
      "v": 127
    },
    {
      "midi": 63,
      "hit": false,
      "t": 84448.65000000014,
      "d": 157.47999999999593,
      "v": 127
    },
    {
      "midi": 63,
      "hit": false,
      "t": 84448.65000000014,
      "d": 157.47999999999593,
      "v": 127
    },
    {
      "midi": 63,
      "hit": false,
      "t": 84448.65000000014,
      "d": 157.47999999999593,
      "v": 127
    },
    {
      "midi": 47,
      "hit": false,
      "t": 84448.65000000029,
      "d": 236.22000000000116,
      "v": 117
    },
    {
      "midi": 37,
      "hit": false,
      "t": 84448.65000000029,
      "d": 236.22000000000116,
      "v": 117
    },
    {
      "midi": 50,
      "hit": false,
      "t": 84448.65000000049,
      "d": 236.22000000000116,
      "v": 127
    },
    {
      "midi": 63,
      "hit": false,
      "t": 84566.76000000049,
      "d": 314.9600000000064,
      "v": 127
    },
    {
      "midi": 68,
      "hit": false,
      "t": 84802.98000000001,
      "d": 1338.5800000000017,
      "v": 127
    },
    {
      "midi": 68,
      "hit": false,
      "t": 84802.98000000001,
      "d": 1338.5800000000017,
      "v": 117
    },
    {
      "midi": 63,
      "hit": false,
      "t": 84802.98000000013,
      "d": 236.22000000000116,
      "v": 127
    },
    {
      "midi": 63,
      "hit": false,
      "t": 84802.98000000014,
      "d": 236.22000000000116,
      "v": 127
    },
    {
      "midi": 63,
      "hit": false,
      "t": 84802.98000000014,
      "d": 236.22000000000116,
      "v": 127
    },
    {
      "midi": 63,
      "hit": false,
      "t": 84802.98000000014,
      "d": 236.22000000000116,
      "v": 127
    },
    {
      "midi": 49,
      "hit": false,
      "t": 84802.98000000029,
      "d": 157.47999999999593,
      "v": 117
    },
    {
      "midi": 35,
      "hit": false,
      "t": 84802.98000000029,
      "d": 157.47999999999593,
      "v": 117
    },
    {
      "midi": 52,
      "hit": false,
      "t": 84802.98000000049,
      "d": 157.48000000001048,
      "v": 127
    },
    {
      "midi": 49,
      "hit": false,
      "t": 85039.2000000005,
      "d": 157.47999999999593,
      "v": 127
    },
    {
      "midi": 64,
      "hit": false,
      "t": 85275.42000000013,
      "d": 157.47999999999593,
      "v": 127
    },
    {
      "midi": 64,
      "hit": false,
      "t": 85275.42000000014,
      "d": 157.47999999999593,
      "v": 127
    },
    {
      "midi": 64,
      "hit": false,
      "t": 85275.42000000014,
      "d": 157.47999999999593,
      "v": 127
    },
    {
      "midi": 64,
      "hit": false,
      "t": 85275.42000000014,
      "d": 157.47999999999593,
      "v": 127
    },
    {
      "midi": 36,
      "hit": false,
      "t": 85275.42000000051,
      "d": 157.48000000001048,
      "v": 127
    },
    {
      "midi": 64,
      "hit": false,
      "t": 85511.64000000013,
      "d": 157.47999999999593,
      "v": 127
    },
    {
      "midi": 64,
      "hit": false,
      "t": 85511.64000000014,
      "d": 157.47999999999593,
      "v": 127
    },
    {
      "midi": 64,
      "hit": false,
      "t": 85511.64000000014,
      "d": 157.47999999999593,
      "v": 127
    },
    {
      "midi": 64,
      "hit": false,
      "t": 85511.64000000014,
      "d": 157.47999999999593,
      "v": 127
    },
    {
      "midi": 64,
      "hit": false,
      "t": 85511.64000000052,
      "d": 314.9600000000064,
      "v": 127
    },
    {
      "midi": 61,
      "hit": false,
      "t": 85747.86000000013,
      "d": 157.47999999999593,
      "v": 127
    },
    {
      "midi": 61,
      "hit": false,
      "t": 85747.86000000015,
      "d": 157.47999999999593,
      "v": 127
    },
    {
      "midi": 61,
      "hit": false,
      "t": 85747.86000000015,
      "d": 157.47999999999593,
      "v": 127
    },
    {
      "midi": 61,
      "hit": false,
      "t": 85747.86000000015,
      "d": 157.47999999999593,
      "v": 127
    },
    {
      "midi": 52,
      "hit": false,
      "t": 85747.86000000052,
      "d": 157.48000000001048,
      "v": 127
    },
    {
      "midi": 64,
      "hit": false,
      "t": 85984.08,
      "d": 236.22000000000116,
      "v": 115
    },
    {
      "midi": 64,
      "hit": false,
      "t": 85984.08000000013,
      "d": 236.22000000000116,
      "v": 127
    },
    {
      "midi": 64,
      "hit": false,
      "t": 85984.08000000015,
      "d": 236.22000000000116,
      "v": 127
    },
    {
      "midi": 64,
      "hit": false,
      "t": 85984.08000000015,
      "d": 236.22000000000116,
      "v": 127
    },
    {
      "midi": 64,
      "hit": false,
      "t": 85984.08000000015,
      "d": 236.22000000000116,
      "v": 127
    },
    {
      "midi": 49,
      "hit": false,
      "t": 85984.08000000054,
      "d": 314.9600000000064,
      "v": 127
    },
    {
      "midi": 50,
      "hit": false,
      "t": 85984.08000000054,
      "d": 314.9600000000064,
      "v": 127
    },
    {
      "midi": 66,
      "hit": false,
      "t": 86338.41,
      "d": 236.22000000000116,
      "v": 115
    },
    {
      "midi": 66,
      "hit": false,
      "t": 86338.41000000013,
      "d": 236.22000000000116,
      "v": 127
    },
    {
      "midi": 66,
      "hit": false,
      "t": 86338.41000000015,
      "d": 236.22000000000116,
      "v": 127
    },
    {
      "midi": 66,
      "hit": false,
      "t": 86338.41000000015,
      "d": 236.22000000000116,
      "v": 127
    },
    {
      "midi": 66,
      "hit": false,
      "t": 86338.41000000015,
      "d": 236.22000000000116,
      "v": 127
    },
    {
      "midi": 50,
      "hit": false,
      "t": 86338.41000000054,
      "d": 236.22000000000116,
      "v": 127
    },
    {
      "midi": 66,
      "hit": false,
      "t": 86456.52000000054,
      "d": 314.9600000000064,
      "v": 127
    },
    {
      "midi": 68,
      "hit": false,
      "t": 86692.74,
      "d": 157.47999999999593,
      "v": 115
    },
    {
      "midi": 68,
      "hit": false,
      "t": 86692.74000000014,
      "d": 157.47999999999593,
      "v": 127
    },
    {
      "midi": 68,
      "hit": false,
      "t": 86692.74000000015,
      "d": 157.47999999999593,
      "v": 127
    },
    {
      "midi": 68,
      "hit": false,
      "t": 86692.74000000015,
      "d": 157.47999999999593,
      "v": 127
    },
    {
      "midi": 68,
      "hit": false,
      "t": 86692.74000000015,
      "d": 157.47999999999593,
      "v": 127
    },
    {
      "midi": 52,
      "hit": false,
      "t": 86692.74000000054,
      "d": 157.48000000001048,
      "v": 127
    },
    {
      "midi": 64,
      "hit": false,
      "t": 86928.96000000012,
      "d": 157.47999999999593,
      "v": 127
    },
    {
      "midi": 52,
      "hit": false,
      "t": 86928.96000000012,
      "d": 157.47999999999593,
      "v": 127
    },
    {
      "midi": 68,
      "hit": false,
      "t": 86928.96000000014,
      "d": 629.9199999999983,
      "v": 127
    },
    {
      "midi": 68,
      "hit": false,
      "t": 86928.96000000015,
      "d": 629.9199999999983,
      "v": 127
    },
    {
      "midi": 68,
      "hit": false,
      "t": 86928.96000000015,
      "d": 629.9199999999983,
      "v": 127
    },
    {
      "midi": 68,
      "hit": false,
      "t": 86928.96000000015,
      "d": 629.9199999999983,
      "v": 127
    },
    {
      "midi": 37,
      "hit": false,
      "t": 86928.96000000028,
      "d": 157.47999999999593,
      "v": 117
    },
    {
      "midi": 49,
      "hit": false,
      "t": 86928.96000000056,
      "d": 157.47999999999593,
      "v": 127
    },
    {
      "midi": 68,
      "hit": false,
      "t": 87165.18000000001,
      "d": 236.22000000000116,
      "v": 127
    },
    {
      "midi": 64,
      "hit": false,
      "t": 87165.18000000001,
      "d": 236.22000000000116,
      "v": 127
    },
    {
      "midi": 64,
      "hit": false,
      "t": 87165.18000000012,
      "d": 157.47999999999593,
      "v": 127
    },
    {
      "midi": 52,
      "hit": false,
      "t": 87165.18000000012,
      "d": 157.47999999999593,
      "v": 127
    },
    {
      "midi": 37,
      "hit": false,
      "t": 87165.18000000028,
      "d": 157.47999999999593,
      "v": 117
    },
    {
      "midi": 44,
      "hit": false,
      "t": 87165.18000000028,
      "d": 157.47999999999593,
      "v": 117
    },
    {
      "midi": 36,
      "hit": false,
      "t": 87165.18000000056,
      "d": 157.48000000001048,
      "v": 127
    },
    {
      "midi": 64,
      "hit": false,
      "t": 87401.40000000013,
      "d": 157.47999999999593,
      "v": 127
    },
    {
      "midi": 52,
      "hit": false,
      "t": 87401.40000000013,
      "d": 157.47999999999593,
      "v": 127
    },
    {
      "midi": 37,
      "hit": false,
      "t": 87401.40000000029,
      "d": 78.74000000000524,
      "v": 117
    },
    {
      "midi": 44,
      "hit": false,
      "t": 87401.40000000029,
      "d": 78.74000000000524,
      "v": 117
    },
    {
      "midi": 63,
      "hit": false,
      "t": 87401.40000000058,
      "d": 314.9600000000064,
      "v": 127
    },
    {
      "midi": 68,
      "hit": false,
      "t": 87519.51000000001,
      "d": 236.22000000000116,
      "v": 127
    },
    {
      "midi": 64,
      "hit": false,
      "t": 87519.51000000001,
      "d": 236.22000000000116,
      "v": 127
    },
    {
      "midi": 66,
      "hit": false,
      "t": 87519.51000000001,
      "d": 236.22000000000116,
      "v": 127
    },
    {
      "midi": 44,
      "hit": false,
      "t": 87519.51000000029,
      "d": 78.74000000000524,
      "v": 117
    },
    {
      "midi": 64,
      "hit": false,
      "t": 87637.62000000013,
      "d": 78.74000000000524,
      "v": 127
    },
    {
      "midi": 52,
      "hit": false,
      "t": 87637.62000000013,
      "d": 78.74000000000524,
      "v": 127
    },
    {
      "midi": 44,
      "hit": false,
      "t": 87637.62000000029,
      "d": 78.74000000000524,
      "v": 117
    },
    {
      "midi": 52,
      "hit": false,
      "t": 87637.62000000058,
      "d": 157.48000000001048,
      "v": 127
    },
    {
      "midi": 64,
      "hit": false,
      "t": 87755.73000000013,
      "d": 78.74000000000524,
      "v": 127
    },
    {
      "midi": 52,
      "hit": false,
      "t": 87755.73000000013,
      "d": 78.74000000000524,
      "v": 127
    },
    {
      "midi": 37,
      "hit": false,
      "t": 87755.73000000029,
      "d": 78.74000000000524,
      "v": 117
    },
    {
      "midi": 35,
      "hit": false,
      "t": 87755.73000000029,
      "d": 78.74000000000524,
      "v": 117
    },
    {
      "midi": 68,
      "hit": false,
      "t": 87873.84000000001,
      "d": 314.9600000000064,
      "v": 127
    },
    {
      "midi": 63,
      "hit": false,
      "t": 87873.84000000001,
      "d": 314.9600000000064,
      "v": 127
    },
    {
      "midi": 63,
      "hit": false,
      "t": 87873.84000000013,
      "d": 78.74000000000524,
      "v": 127
    },
    {
      "midi": 51,
      "hit": false,
      "t": 87873.84000000013,
      "d": 78.74000000000524,
      "v": 127
    },
    {
      "midi": 37,
      "hit": false,
      "t": 87873.84000000029,
      "d": 157.47999999999593,
      "v": 117
    },
    {
      "midi": 44,
      "hit": false,
      "t": 87873.84000000029,
      "d": 157.47999999999593,
      "v": 117
    },
    {
      "midi": 49,
      "hit": false,
      "t": 87873.8400000006,
      "d": 314.9600000000064,
      "v": 127
    },
    {
      "midi": 50,
      "hit": false,
      "t": 87873.8400000006,
      "d": 314.9600000000064,
      "v": 127
    },
    {
      "midi": 63,
      "hit": false,
      "t": 87991.95000000013,
      "d": 78.74000000000524,
      "v": 127
    },
    {
      "midi": 51,
      "hit": false,
      "t": 87991.95000000013,
      "d": 78.74000000000524,
      "v": 127
    },
    {
      "midi": 68,
      "hit": false,
      "t": 88110.06,
      "d": 157.47999999999593,
      "v": 115
    },
    {
      "midi": 63,
      "hit": false,
      "t": 88110.06000000013,
      "d": 78.74000000000524,
      "v": 127
    },
    {
      "midi": 51,
      "hit": false,
      "t": 88110.06000000013,
      "d": 78.74000000000524,
      "v": 127
    },
    {
      "midi": 37,
      "hit": false,
      "t": 88110.06000000029,
      "d": 78.74000000000524,
      "v": 117
    },
    {
      "midi": 63,
      "hit": false,
      "t": 88228.17000000013,
      "d": 78.74000000000524,
      "v": 127
    },
    {
      "midi": 51,
      "hit": false,
      "t": 88228.17000000013,
      "d": 78.74000000000524,
      "v": 127
    },
    {
      "midi": 37,
      "hit": false,
      "t": 88228.17000000029,
      "d": 236.22000000000116,
      "v": 117
    },
    {
      "midi": 44,
      "hit": false,
      "t": 88228.17000000029,
      "d": 236.22000000000116,
      "v": 117
    },
    {
      "midi": 50,
      "hit": false,
      "t": 88228.1700000006,
      "d": 236.22000000000116,
      "v": 127
    },
    {
      "midi": 63,
      "hit": false,
      "t": 88346.28,
      "d": 157.47999999999593,
      "v": 115
    },
    {
      "midi": 68,
      "hit": false,
      "t": 88346.28000000001,
      "d": 314.9600000000064,
      "v": 127
    },
    {
      "midi": 63,
      "hit": false,
      "t": 88346.28000000001,
      "d": 314.9600000000064,
      "v": 127
    },
    {
      "midi": 63,
      "hit": false,
      "t": 88346.28000000013,
      "d": 78.74000000000524,
      "v": 127
    },
    {
      "midi": 51,
      "hit": false,
      "t": 88346.28000000013,
      "d": 78.74000000000524,
      "v": 127
    },
    {
      "midi": 63,
      "hit": false,
      "t": 88346.2800000006,
      "d": 314.9600000000064,
      "v": 127
    },
    {
      "midi": 63,
      "hit": false,
      "t": 88464.39000000013,
      "d": 78.74000000000524,
      "v": 127
    },
    {
      "midi": 51,
      "hit": false,
      "t": 88464.39000000013,
      "d": 78.74000000000524,
      "v": 127
    },
    {
      "midi": 56,
      "hit": false,
      "t": 88582.5,
      "d": 157.47999999999593,
      "v": 115
    },
    {
      "midi": 63,
      "hit": false,
      "t": 88582.50000000013,
      "d": 157.47999999999593,
      "v": 127
    },
    {
      "midi": 51,
      "hit": false,
      "t": 88582.50000000013,
      "d": 157.47999999999593,
      "v": 127
    },
    {
      "midi": 35,
      "hit": false,
      "t": 88582.50000000029,
      "d": 157.47999999999593,
      "v": 117
    },
    {
      "midi": 44,
      "hit": false,
      "t": 88582.50000000029,
      "d": 157.47999999999593,
      "v": 117
    },
    {
      "midi": 52,
      "hit": false,
      "t": 88582.5000000006,
      "d": 157.48000000001048,
      "v": 127
    },
    {
      "midi": 64,
      "hit": false,
      "t": 88818.72000000006,
      "d": 2047.2399999999907,
      "v": 127
    },
    {
      "midi": 37,
      "hit": false,
      "t": 88818.72000000007,
      "d": 157.47999999999593,
      "v": 127
    },
    {
      "midi": 49,
      "hit": false,
      "t": 88818.72000000013,
      "d": 157.47999999999593,
      "v": 127
    },
    {
      "midi": 61,
      "hit": false,
      "t": 88818.72000000013,
      "d": 157.47999999999593,
      "v": 127
    },
    {
      "midi": 64,
      "hit": false,
      "t": 88818.72000000013,
      "d": 314.9600000000064,
      "v": 127
    },
    {
      "midi": 64,
      "hit": false,
      "t": 88818.72000000015,
      "d": 314.9600000000064,
      "v": 127
    },
    {
      "midi": 64,
      "hit": false,
      "t": 88818.72000000015,
      "d": 314.9600000000064,
      "v": 127
    },
    {
      "midi": 64,
      "hit": false,
      "t": 88818.72000000015,
      "d": 314.9600000000064,
      "v": 127
    },
    {
      "midi": 49,
      "hit": false,
      "t": 88818.72000000029,
      "d": 157.47999999999593,
      "v": 127
    },
    {
      "midi": 37,
      "hit": false,
      "t": 89054.94000000008,
      "d": 157.47999999999593,
      "v": 127
    },
    {
      "midi": 49,
      "hit": false,
      "t": 89054.94000000013,
      "d": 157.47999999999593,
      "v": 127
    },
    {
      "midi": 61,
      "hit": false,
      "t": 89054.94000000013,
      "d": 157.47999999999593,
      "v": 127
    },
    {
      "midi": 49,
      "hit": false,
      "t": 89054.9400000003,
      "d": 157.47999999999593,
      "v": 127
    },
    {
      "midi": 49,
      "hit": false,
      "t": 89291.16000000008,
      "d": 236.22000000000116,
      "v": 127
    },
    {
      "midi": 49,
      "hit": false,
      "t": 89291.16000000013,
      "d": 157.47999999999593,
      "v": 127
    },
    {
      "midi": 61,
      "hit": false,
      "t": 89291.16000000013,
      "d": 157.47999999999593,
      "v": 127
    },
    {
      "midi": 61,
      "hit": false,
      "t": 89291.16000000013,
      "d": 314.9600000000064,
      "v": 127
    },
    {
      "midi": 61,
      "hit": false,
      "t": 89291.16000000015,
      "d": 314.9600000000064,
      "v": 127
    },
    {
      "midi": 61,
      "hit": false,
      "t": 89291.16000000015,
      "d": 314.9600000000064,
      "v": 127
    },
    {
      "midi": 61,
      "hit": false,
      "t": 89291.16000000015,
      "d": 314.9600000000064,
      "v": 127
    },
    {
      "midi": 49,
      "hit": false,
      "t": 89291.1600000003,
      "d": 236.22000000000116,
      "v": 127
    },
    {
      "midi": 47,
      "hit": false,
      "t": 89527.38000000014,
      "d": 78.74000000000524,
      "v": 127
    },
    {
      "midi": 59,
      "hit": false,
      "t": 89527.38000000014,
      "d": 78.74000000000524,
      "v": 127
    },
    {
      "midi": 47,
      "hit": false,
      "t": 89645.49000000008,
      "d": 157.47999999999593,
      "v": 127
    },
    {
      "midi": 48,
      "hit": false,
      "t": 89645.49000000014,
      "d": 78.74000000000524,
      "v": 127
    },
    {
      "midi": 60,
      "hit": false,
      "t": 89645.49000000014,
      "d": 78.74000000000524,
      "v": 127
    },
    {
      "midi": 47,
      "hit": false,
      "t": 89645.4900000003,
      "d": 78.74000000000524,
      "v": 127
    },
    {
      "midi": 49,
      "hit": false,
      "t": 89763.60000000014,
      "d": 78.74000000000524,
      "v": 127
    },
    {
      "midi": 61,
      "hit": false,
      "t": 89763.60000000014,
      "d": 78.74000000000524,
      "v": 127
    },
    {
      "midi": 59,
      "hit": false,
      "t": 89763.60000000014,
      "d": 157.47999999999593,
      "v": 127
    },
    {
      "midi": 59,
      "hit": false,
      "t": 89763.60000000015,
      "d": 157.47999999999593,
      "v": 127
    },
    {
      "midi": 59,
      "hit": false,
      "t": 89763.60000000015,
      "d": 157.47999999999593,
      "v": 127
    },
    {
      "midi": 59,
      "hit": false,
      "t": 89763.60000000015,
      "d": 157.47999999999593,
      "v": 127
    },
    {
      "midi": 49,
      "hit": false,
      "t": 89763.6000000003,
      "d": 157.47999999999593,
      "v": 127
    },
    {
      "midi": 47,
      "hit": false,
      "t": 89881.71000000008,
      "d": 157.47999999999593,
      "v": 127
    },
    {
      "midi": 49,
      "hit": false,
      "t": 89881.71000000014,
      "d": 78.74000000000524,
      "v": 127
    },
    {
      "midi": 61,
      "hit": false,
      "t": 89881.71000000014,
      "d": 78.74000000000524,
      "v": 127
    },
    {
      "midi": 49,
      "hit": false,
      "t": 89999.82000000014,
      "d": 78.74000000000524,
      "v": 127
    },
    {
      "midi": 61,
      "hit": false,
      "t": 89999.82000000014,
      "d": 78.74000000000524,
      "v": 127
    },
    {
      "midi": 61,
      "hit": false,
      "t": 89999.82000000014,
      "d": 78.74000000000524,
      "v": 127
    },
    {
      "midi": 61,
      "hit": false,
      "t": 89999.82000000015,
      "d": 78.74000000000524,
      "v": 127
    },
    {
      "midi": 61,
      "hit": false,
      "t": 89999.82000000015,
      "d": 78.74000000000524,
      "v": 127
    },
    {
      "midi": 61,
      "hit": false,
      "t": 89999.82000000015,
      "d": 78.74000000000524,
      "v": 127
    },
    {
      "midi": 49,
      "hit": false,
      "t": 89999.8200000003,
      "d": 78.74000000000524,
      "v": 127
    },
    {
      "midi": 44,
      "hit": false,
      "t": 90117.93000000008,
      "d": 78.74000000000524,
      "v": 127
    },
    {
      "midi": 49,
      "hit": false,
      "t": 90117.93000000014,
      "d": 78.74000000000524,
      "v": 127
    },
    {
      "midi": 61,
      "hit": false,
      "t": 90117.93000000014,
      "d": 78.74000000000524,
      "v": 127
    },
    {
      "midi": 61,
      "hit": false,
      "t": 90117.93000000014,
      "d": 314.9600000000064,
      "v": 127
    },
    {
      "midi": 61,
      "hit": false,
      "t": 90117.93000000015,
      "d": 314.9600000000064,
      "v": 127
    },
    {
      "midi": 61,
      "hit": false,
      "t": 90117.93000000015,
      "d": 314.9600000000064,
      "v": 127
    },
    {
      "midi": 61,
      "hit": false,
      "t": 90117.93000000015,
      "d": 314.9600000000064,
      "v": 127
    },
    {
      "midi": 52,
      "hit": false,
      "t": 90117.9300000003,
      "d": 433.070000000007,
      "v": 127
    },
    {
      "midi": 47,
      "hit": false,
      "t": 90236.04000000008,
      "d": 157.47999999999593,
      "v": 127
    },
    {
      "midi": 52,
      "hit": false,
      "t": 90236.04000000014,
      "d": 78.74000000000524,
      "v": 127
    },
    {
      "midi": 64,
      "hit": false,
      "t": 90236.04000000014,
      "d": 78.74000000000524,
      "v": 127
    },
    {
      "midi": 51,
      "hit": false,
      "t": 90354.15000000014,
      "d": 78.74000000000524,
      "v": 127
    },
    {
      "midi": 64,
      "hit": false,
      "t": 90354.15000000014,
      "d": 78.74000000000524,
      "v": 127
    },
    {
      "midi": 49,
      "hit": false,
      "t": 90472.26000000008,
      "d": 157.47999999999593,
      "v": 127
    },
    {
      "midi": 49,
      "hit": false,
      "t": 90472.26000000014,
      "d": 157.47999999999593,
      "v": 127
    },
    {
      "midi": 61,
      "hit": false,
      "t": 90472.26000000014,
      "d": 157.47999999999593,
      "v": 127
    },
    {
      "midi": 56,
      "hit": false,
      "t": 90590.37000000014,
      "d": 78.74000000000524,
      "v": 127
    },
    {
      "midi": 56,
      "hit": false,
      "t": 90590.37000000016,
      "d": 78.74000000000524,
      "v": 127
    },
    {
      "midi": 56,
      "hit": false,
      "t": 90590.37000000016,
      "d": 78.74000000000524,
      "v": 127
    },
    {
      "midi": 56,
      "hit": false,
      "t": 90590.37000000016,
      "d": 78.74000000000524,
      "v": 127
    },
    {
      "midi": 44,
      "hit": false,
      "t": 90590.3700000003,
      "d": 78.74000000000524,
      "v": 127
    },
    {
      "midi": 68,
      "hit": false,
      "t": 90708.48000000005,
      "d": 314.95999999999185,
      "v": 127
    },
    {
      "midi": 63,
      "hit": false,
      "t": 90708.48000000005,
      "d": 2047.2399999999907,
      "v": 127
    },
    {
      "midi": 64,
      "hit": false,
      "t": 90708.48000000007,
      "d": 157.47999999999593,
      "v": 127
    },
    {
      "midi": 68,
      "hit": false,
      "t": 90708.48000000007,
      "d": 157.47999999999593,
      "v": 127
    },
    {
      "midi": 35,
      "hit": false,
      "t": 90708.48000000008,
      "d": 157.47999999999593,
      "v": 127
    },
    {
      "midi": 47,
      "hit": false,
      "t": 90708.48000000014,
      "d": 157.47999999999593,
      "v": 127
    },
    {
      "midi": 59,
      "hit": false,
      "t": 90708.48000000014,
      "d": 157.47999999999593,
      "v": 127
    },
    {
      "midi": 59,
      "hit": false,
      "t": 90708.48000000014,
      "d": 157.47999999999593,
      "v": 127
    },
    {
      "midi": 59,
      "hit": false,
      "t": 90708.48000000016,
      "d": 157.47999999999593,
      "v": 127
    },
    {
      "midi": 59,
      "hit": false,
      "t": 90708.48000000016,
      "d": 157.47999999999593,
      "v": 127
    },
    {
      "midi": 59,
      "hit": false,
      "t": 90708.48000000016,
      "d": 157.47999999999593,
      "v": 127
    },
    {
      "midi": 47,
      "hit": false,
      "t": 90708.4800000003,
      "d": 157.47999999999593,
      "v": 127
    },
    {
      "midi": 49,
      "hit": false,
      "t": 90708.4800000006,
      "d": 157.47999999999593,
      "v": 127
    },
    {
      "midi": 35,
      "hit": false,
      "t": 90944.70000000008,
      "d": 157.47999999999593,
      "v": 127
    },
    {
      "midi": 59,
      "hit": false,
      "t": 90944.70000000014,
      "d": 157.47999999999593,
      "v": 127
    },
    {
      "midi": 47,
      "hit": false,
      "t": 90944.70000000014,
      "d": 157.47999999999593,
      "v": 127
    },
    {
      "midi": 59,
      "hit": false,
      "t": 90944.70000000014,
      "d": 157.47999999999593,
      "v": 127
    },
    {
      "midi": 59,
      "hit": false,
      "t": 90944.70000000016,
      "d": 157.47999999999593,
      "v": 127
    },
    {
      "midi": 59,
      "hit": false,
      "t": 90944.70000000016,
      "d": 157.47999999999593,
      "v": 127
    },
    {
      "midi": 59,
      "hit": false,
      "t": 90944.70000000016,
      "d": 157.47999999999593,
      "v": 127
    },
    {
      "midi": 47,
      "hit": false,
      "t": 90944.7000000003,
      "d": 157.47999999999593,
      "v": 127
    },
    {
      "midi": 36,
      "hit": false,
      "t": 90944.70000000061,
      "d": 157.48000000001048,
      "v": 127
    },
    {
      "midi": 47,
      "hit": false,
      "t": 91180.92000000009,
      "d": 236.22000000000116,
      "v": 127
    },
    {
      "midi": 59,
      "hit": false,
      "t": 91180.92000000014,
      "d": 157.47999999999593,
      "v": 127
    },
    {
      "midi": 47,
      "hit": false,
      "t": 91180.92000000014,
      "d": 157.47999999999593,
      "v": 127
    },
    {
      "midi": 59,
      "hit": false,
      "t": 91180.92000000014,
      "d": 157.47999999999593,
      "v": 127
    },
    {
      "midi": 59,
      "hit": false,
      "t": 91180.92000000016,
      "d": 157.47999999999593,
      "v": 127
    },
    {
      "midi": 59,
      "hit": false,
      "t": 91180.92000000016,
      "d": 157.47999999999593,
      "v": 127
    },
    {
      "midi": 59,
      "hit": false,
      "t": 91180.92000000016,
      "d": 157.47999999999593,
      "v": 127
    },
    {
      "midi": 47,
      "hit": false,
      "t": 91180.9200000003,
      "d": 157.47999999999593,
      "v": 127
    },
    {
      "midi": 59,
      "hit": false,
      "t": 91180.92000000062,
      "d": 314.9600000000064,
      "v": 127
    },
    {
      "midi": 56,
      "hit": false,
      "t": 91417.14000000014,
      "d": 78.74000000000524,
      "v": 127
    },
    {
      "midi": 44,
      "hit": false,
      "t": 91417.14000000014,
      "d": 78.74000000000524,
      "v": 127
    },
    {
      "midi": 61,
      "hit": false,
      "t": 91417.14000000014,
      "d": 78.74000000000524,
      "v": 127
    },
    {
      "midi": 61,
      "hit": false,
      "t": 91417.14000000016,
      "d": 78.74000000000524,
      "v": 127
    },
    {
      "midi": 61,
      "hit": false,
      "t": 91417.14000000016,
      "d": 78.74000000000524,
      "v": 127
    },
    {
      "midi": 61,
      "hit": false,
      "t": 91417.14000000016,
      "d": 78.74000000000524,
      "v": 127
    },
    {
      "midi": 44,
      "hit": false,
      "t": 91417.1400000003,
      "d": 78.74000000000524,
      "v": 127
    },
    {
      "midi": 52,
      "hit": false,
      "t": 91417.14000000063,
      "d": 157.48000000001048,
      "v": 127
    },
    {
      "midi": 44,
      "hit": false,
      "t": 91535.25000000009,
      "d": 157.47999999999593,
      "v": 127
    },
    {
      "midi": 59,
      "hit": false,
      "t": 91535.25000000015,
      "d": 78.74000000000524,
      "v": 127
    },
    {
      "midi": 47,
      "hit": false,
      "t": 91535.25000000015,
      "d": 78.74000000000524,
      "v": 127
    },
    {
      "midi": 59,
      "hit": false,
      "t": 91535.25000000015,
      "d": 629.9199999999983,
      "v": 127
    },
    {
      "midi": 59,
      "hit": false,
      "t": 91535.25000000016,
      "d": 629.9199999999983,
      "v": 127
    },
    {
      "midi": 59,
      "hit": false,
      "t": 91535.25000000016,
      "d": 629.9199999999983,
      "v": 127
    },
    {
      "midi": 59,
      "hit": false,
      "t": 91535.25000000016,
      "d": 629.9199999999983,
      "v": 127
    },
    {
      "midi": 47,
      "hit": false,
      "t": 91535.2500000003,
      "d": 157.47999999999593,
      "v": 127
    },
    {
      "midi": 68,
      "hit": false,
      "t": 91653.36,
      "d": 314.9600000000064,
      "v": 127
    },
    {
      "midi": 59,
      "hit": false,
      "t": 91653.36000000015,
      "d": 78.74000000000524,
      "v": 127
    },
    {
      "midi": 47,
      "hit": false,
      "t": 91653.36000000015,
      "d": 78.74000000000524,
      "v": 127
    },
    {
      "midi": 50,
      "hit": false,
      "t": 91653.36000000064,
      "d": 236.22000000000116,
      "v": 127
    },
    {
      "midi": 49,
      "hit": false,
      "t": 91653.36000000064,
      "d": 314.9600000000064,
      "v": 127
    },
    {
      "midi": 44,
      "hit": false,
      "t": 91771.47000000009,
      "d": 157.47999999999593,
      "v": 127
    },
    {
      "midi": 59,
      "hit": false,
      "t": 91771.47000000015,
      "d": 78.74000000000524,
      "v": 127
    },
    {
      "midi": 47,
      "hit": false,
      "t": 91771.47000000015,
      "d": 78.74000000000524,
      "v": 127
    },
    {
      "midi": 47,
      "hit": false,
      "t": 91771.4700000003,
      "d": 157.47999999999593,
      "v": 127
    },
    {
      "midi": 59,
      "hit": false,
      "t": 91889.58000000015,
      "d": 78.74000000000524,
      "v": 127
    },
    {
      "midi": 47,
      "hit": false,
      "t": 91889.58000000015,
      "d": 78.74000000000524,
      "v": 127
    },
    {
      "midi": 42,
      "hit": false,
      "t": 92007.69000000009,
      "d": 78.74000000000524,
      "v": 127
    },
    {
      "midi": 59,
      "hit": false,
      "t": 92007.69000000015,
      "d": 78.74000000000524,
      "v": 127
    },
    {
      "midi": 47,
      "hit": false,
      "t": 92007.69000000015,
      "d": 78.74000000000524,
      "v": 127
    },
    {
      "midi": 44,
      "hit": false,
      "t": 92007.69000000031,
      "d": 78.74000000000524,
      "v": 127
    },
    {
      "midi": 50,
      "hit": false,
      "t": 92007.69000000064,
      "d": 236.22000000000116,
      "v": 127
    },
    {
      "midi": 71,
      "hit": false,
      "t": 92125.8,
      "d": 314.9600000000064,
      "v": 127
    },
    {
      "midi": 40,
      "hit": false,
      "t": 92125.80000000009,
      "d": 157.47999999999593,
      "v": 127
    },
    {
      "midi": 61,
      "hit": false,
      "t": 92125.80000000015,
      "d": 78.74000000000524,
      "v": 127
    },
    {
      "midi": 49,
      "hit": false,
      "t": 92125.80000000015,
      "d": 78.74000000000524,
      "v": 127
    },
    {
      "midi": 47,
      "hit": false,
      "t": 92125.80000000031,
      "d": 157.47999999999593,
      "v": 127
    },
    {
      "midi": 59,
      "hit": false,
      "t": 92125.80000000064,
      "d": 314.9600000000064,
      "v": 127
    },
    {
      "midi": 59,
      "hit": false,
      "t": 92243.91000000015,
      "d": 78.74000000000524,
      "v": 127
    },
    {
      "midi": 47,
      "hit": false,
      "t": 92243.91000000015,
      "d": 78.74000000000524,
      "v": 127
    },
    {
      "midi": 42,
      "hit": false,
      "t": 92362.02000000009,
      "d": 157.47999999999593,
      "v": 127
    },
    {
      "midi": 57,
      "hit": false,
      "t": 92362.02000000015,
      "d": 157.47999999999593,
      "v": 127
    },
    {
      "midi": 45,
      "hit": false,
      "t": 92362.02000000015,
      "d": 157.47999999999593,
      "v": 127
    },
    {
      "midi": 59,
      "hit": false,
      "t": 92362.02000000015,
      "d": 157.47999999999593,
      "v": 127
    },
    {
      "midi": 59,
      "hit": false,
      "t": 92362.02000000016,
      "d": 157.47999999999593,
      "v": 127
    },
    {
      "midi": 59,
      "hit": false,
      "t": 92362.02000000016,
      "d": 157.47999999999593,
      "v": 127
    },
    {
      "midi": 59,
      "hit": false,
      "t": 92362.02000000016,
      "d": 157.47999999999593,
      "v": 127
    },
    {
      "midi": 49,
      "hit": false,
      "t": 92362.02000000031,
      "d": 157.47999999999593,
      "v": 127
    },
    {
      "midi": 52,
      "hit": false,
      "t": 92362.02000000064,
      "d": 157.48000000001048,
      "v": 127
    },
    {
      "midi": 73,
      "hit": false,
      "t": 92598.24,
      "d": 629.9199999999983,
      "v": 127
    },
    {
      "midi": 64,
      "hit": false,
      "t": 92598.24000000002,
      "d": 629.9199999999983,
      "v": 127
    },
    {
      "midi": 61,
      "hit": false,
      "t": 92598.24000000005,
      "d": 944.8799999999901,
      "v": 127
    },
    {
      "midi": 61,
      "hit": false,
      "t": 92598.24000000006,
      "d": 944.8800000000047,
      "v": 127
    },
    {
      "midi": 37,
      "hit": false,
      "t": 92598.24000000009,
      "d": 157.47999999999593,
      "v": 127
    },
    {
      "midi": 49,
      "hit": false,
      "t": 92598.24000000015,
      "d": 157.47999999999593,
      "v": 127
    },
    {
      "midi": 61,
      "hit": false,
      "t": 92598.24000000015,
      "d": 157.47999999999593,
      "v": 127
    },
    {
      "midi": 61,
      "hit": false,
      "t": 92598.24000000015,
      "d": 157.47999999999593,
      "v": 127
    },
    {
      "midi": 61,
      "hit": false,
      "t": 92598.24000000017,
      "d": 157.47999999999593,
      "v": 127
    },
    {
      "midi": 61,
      "hit": false,
      "t": 92598.24000000017,
      "d": 157.47999999999593,
      "v": 127
    },
    {
      "midi": 61,
      "hit": false,
      "t": 92598.24000000017,
      "d": 157.47999999999593,
      "v": 127
    },
    {
      "midi": 49,
      "hit": false,
      "t": 92598.24000000031,
      "d": 157.47999999999593,
      "v": 127
    },
    {
      "midi": 49,
      "hit": false,
      "t": 92598.24000000066,
      "d": 157.47999999999593,
      "v": 127
    },
    {
      "midi": 37,
      "hit": false,
      "t": 92834.4600000001,
      "d": 157.47999999999593,
      "v": 127
    },
    {
      "midi": 49,
      "hit": false,
      "t": 92834.46000000015,
      "d": 157.47999999999593,
      "v": 127
    },
    {
      "midi": 61,
      "hit": false,
      "t": 92834.46000000015,
      "d": 157.47999999999593,
      "v": 127
    },
    {
      "midi": 61,
      "hit": false,
      "t": 92834.46000000015,
      "d": 157.47999999999593,
      "v": 127
    },
    {
      "midi": 61,
      "hit": false,
      "t": 92834.46000000017,
      "d": 157.47999999999593,
      "v": 127
    },
    {
      "midi": 61,
      "hit": false,
      "t": 92834.46000000017,
      "d": 157.47999999999593,
      "v": 127
    },
    {
      "midi": 61,
      "hit": false,
      "t": 92834.46000000017,
      "d": 157.47999999999593,
      "v": 127
    },
    {
      "midi": 49,
      "hit": false,
      "t": 92834.46000000031,
      "d": 157.47999999999593,
      "v": 127
    },
    {
      "midi": 36,
      "hit": false,
      "t": 92834.46000000066,
      "d": 157.47999999999593,
      "v": 127
    },
    {
      "midi": 49,
      "hit": false,
      "t": 93070.6800000001,
      "d": 236.22000000000116,
      "v": 127
    },
    {
      "midi": 49,
      "hit": false,
      "t": 93070.68000000015,
      "d": 157.47999999999593,
      "v": 127
    },
    {
      "midi": 61,
      "hit": false,
      "t": 93070.68000000015,
      "d": 157.47999999999593,
      "v": 127
    },
    {
      "midi": 61,
      "hit": false,
      "t": 93070.68000000015,
      "d": 157.47999999999593,
      "v": 127
    },
    {
      "midi": 61,
      "hit": false,
      "t": 93070.68000000017,
      "d": 157.47999999999593,
      "v": 127
    },
    {
      "midi": 61,
      "hit": false,
      "t": 93070.68000000017,
      "d": 157.47999999999593,
      "v": 127
    },
    {
      "midi": 61,
      "hit": false,
      "t": 93070.68000000017,
      "d": 157.47999999999593,
      "v": 127
    },
    {
      "midi": 49,
      "hit": false,
      "t": 93070.68000000031,
      "d": 157.47999999999593,
      "v": 127
    },
    {
      "midi": 34,
      "hit": false,
      "t": 93070.68000000066,
      "d": 157.47999999999593,
      "v": 127
    },
    {
      "midi": 61,
      "hit": false,
      "t": 93070.68000000066,
      "d": 314.9600000000064,
      "v": 127
    },
    {
      "midi": 47,
      "hit": false,
      "t": 93306.90000000015,
      "d": 78.74000000000524,
      "v": 127
    },
    {
      "midi": 59,
      "hit": false,
      "t": 93306.90000000015,
      "d": 78.74000000000524,
      "v": 127
    },
    {
      "midi": 64,
      "hit": false,
      "t": 93306.90000000015,
      "d": 157.47999999999593,
      "v": 127
    },
    {
      "midi": 64,
      "hit": false,
      "t": 93306.90000000017,
      "d": 157.47999999999593,
      "v": 127
    },
    {
      "midi": 64,
      "hit": false,
      "t": 93306.90000000017,
      "d": 157.47999999999593,
      "v": 127
    },
    {
      "midi": 64,
      "hit": false,
      "t": 93306.90000000017,
      "d": 157.47999999999593,
      "v": 127
    },
    {
      "midi": 47,
      "hit": false,
      "t": 93306.90000000031,
      "d": 78.74000000000524,
      "v": 127
    },
    {
      "midi": 52,
      "hit": false,
      "t": 93306.90000000066,
      "d": 157.48000000001048,
      "v": 127
    },
    {
      "midi": 47,
      "hit": false,
      "t": 93425.0100000001,
      "d": 157.47999999999593,
      "v": 127
    },
    {
      "midi": 48,
      "hit": false,
      "t": 93425.01000000015,
      "d": 78.74000000000524,
      "v": 127
    },
    {
      "midi": 60,
      "hit": false,
      "t": 93425.01000000015,
      "d": 78.74000000000524,
      "v": 127
    },
    {
      "midi": 51,
      "hit": false,
      "t": 93425.01000000031,
      "d": 157.47999999999593,
      "v": 127
    },
    {
      "midi": 75,
      "hit": false,
      "t": 93543.12000000001,
      "d": 629.9199999999983,
      "v": 127
    },
    {
      "midi": 66,
      "hit": false,
      "t": 93543.12000000002,
      "d": 629.9199999999983,
      "v": 127
    },
    {
      "midi": 63,
      "hit": false,
      "t": 93543.12000000004,
      "d": 1102.3600000000006,
      "v": 127
    },
    {
      "midi": 49,
      "hit": false,
      "t": 93543.12000000016,
      "d": 78.74000000000524,
      "v": 127
    },
    {
      "midi": 61,
      "hit": false,
      "t": 93543.12000000016,
      "d": 78.74000000000524,
      "v": 127
    },
    {
      "midi": 63,
      "hit": false,
      "t": 93543.12000000016,
      "d": 314.9600000000064,
      "v": 127
    },
    {
      "midi": 63,
      "hit": false,
      "t": 93543.12000000017,
      "d": 314.9600000000064,
      "v": 127
    },
    {
      "midi": 63,
      "hit": false,
      "t": 93543.12000000017,
      "d": 314.9600000000064,
      "v": 127
    },
    {
      "midi": 63,
      "hit": false,
      "t": 93543.12000000017,
      "d": 314.9600000000064,
      "v": 127
    },
    {
      "midi": 50,
      "hit": false,
      "t": 93543.12000000068,
      "d": 157.47999999999593,
      "v": 127
    },
    {
      "midi": 49,
      "hit": false,
      "t": 93543.12000000068,
      "d": 157.47999999999593,
      "v": 127
    },
    {
      "midi": 47,
      "hit": false,
      "t": 93661.2300000001,
      "d": 157.47999999999593,
      "v": 127
    },
    {
      "midi": 49,
      "hit": false,
      "t": 93661.23000000016,
      "d": 78.74000000000524,
      "v": 127
    },
    {
      "midi": 61,
      "hit": false,
      "t": 93661.23000000016,
      "d": 78.74000000000524,
      "v": 127
    },
    {
      "midi": 51,
      "hit": false,
      "t": 93661.23000000032,
      "d": 157.47999999999593,
      "v": 127
    },
    {
      "midi": 49,
      "hit": false,
      "t": 93779.34000000016,
      "d": 78.74000000000524,
      "v": 127
    },
    {
      "midi": 61,
      "hit": false,
      "t": 93779.34000000016,
      "d": 78.74000000000524,
      "v": 127
    },
    {
      "midi": 50,
      "hit": false,
      "t": 93779.34000000068,
      "d": 157.47999999999593,
      "v": 127
    },
    {
      "midi": 44,
      "hit": false,
      "t": 93897.4500000001,
      "d": 78.74000000000524,
      "v": 127
    },
    {
      "midi": 49,
      "hit": false,
      "t": 93897.45000000016,
      "d": 78.74000000000524,
      "v": 127
    },
    {
      "midi": 61,
      "hit": false,
      "t": 93897.45000000016,
      "d": 78.74000000000524,
      "v": 127
    },
    {
      "midi": 59,
      "hit": false,
      "t": 93897.45000000016,
      "d": 236.22000000000116,
      "v": 127
    },
    {
      "midi": 59,
      "hit": false,
      "t": 93897.45000000017,
      "d": 236.22000000000116,
      "v": 127
    },
    {
      "midi": 59,
      "hit": false,
      "t": 93897.45000000017,
      "d": 236.22000000000116,
      "v": 127
    },
    {
      "midi": 59,
      "hit": false,
      "t": 93897.45000000017,
      "d": 236.22000000000116,
      "v": 127
    },
    {
      "midi": 47,
      "hit": false,
      "t": 93897.45000000032,
      "d": 78.74000000000524,
      "v": 127
    },
    {
      "midi": 47,
      "hit": false,
      "t": 94015.5600000001,
      "d": 157.47999999999593,
      "v": 127
    },
    {
      "midi": 52,
      "hit": false,
      "t": 94015.56000000016,
      "d": 78.74000000000524,
      "v": 127
    },
    {
      "midi": 64,
      "hit": false,
      "t": 94015.56000000016,
      "d": 78.74000000000524,
      "v": 127
    },
    {
      "midi": 51,
      "hit": false,
      "t": 94015.56000000032,
      "d": 157.47999999999593,
      "v": 127
    },
    {
      "midi": 59,
      "hit": false,
      "t": 94015.56000000068,
      "d": 157.47999999999593,
      "v": 127
    },
    {
      "midi": 51,
      "hit": false,
      "t": 94133.67000000016,
      "d": 78.74000000000524,
      "v": 127
    },
    {
      "midi": 63,
      "hit": false,
      "t": 94133.67000000016,
      "d": 78.74000000000524,
      "v": 127
    },
    {
      "midi": 49,
      "hit": false,
      "t": 94251.7800000001,
      "d": 157.47999999999593,
      "v": 127
    },
    {
      "midi": 49,
      "hit": false,
      "t": 94251.78000000016,
      "d": 157.47999999999593,
      "v": 127
    },
    {
      "midi": 61,
      "hit": false,
      "t": 94251.78000000016,
      "d": 157.47999999999593,
      "v": 127
    },
    {
      "midi": 61,
      "hit": false,
      "t": 94251.78000000016,
      "d": 157.47999999999593,
      "v": 127
    },
    {
      "midi": 61,
      "hit": false,
      "t": 94251.78000000017,
      "d": 157.47999999999593,
      "v": 127
    },
    {
      "midi": 61,
      "hit": false,
      "t": 94251.78000000017,
      "d": 157.47999999999593,
      "v": 127
    },
    {
      "midi": 61,
      "hit": false,
      "t": 94251.78000000017,
      "d": 157.47999999999593,
      "v": 127
    },
    {
      "midi": 47,
      "hit": false,
      "t": 94251.78000000032,
      "d": 157.47999999999593,
      "v": 127
    },
    {
      "midi": 52,
      "hit": false,
      "t": 94251.78000000068,
      "d": 157.47999999999593,
      "v": 127
    },
    {
      "midi": 71,
      "hit": false,
      "t": 94488.00000000001,
      "d": 629.9199999999983,
      "v": 127
    },
    {
      "midi": 63,
      "hit": false,
      "t": 94488.00000000003,
      "d": 629.9199999999983,
      "v": 127
    },
    {
      "midi": 59,
      "hit": false,
      "t": 94488.00000000004,
      "d": 1263.7769999999873,
      "v": 127
    },
    {
      "midi": 59,
      "hit": false,
      "t": 94488.00000000007,
      "d": 1263.7770000000019,
      "v": 127
    },
    {
      "midi": 44,
      "hit": false,
      "t": 94488.0000000001,
      "d": 157.47999999999593,
      "v": 127
    },
    {
      "midi": 56,
      "hit": false,
      "t": 94488.00000000016,
      "d": 157.47999999999593,
      "v": 127
    },
    {
      "midi": 44,
      "hit": false,
      "t": 94488.00000000016,
      "d": 157.47999999999593,
      "v": 127
    },
    {
      "midi": 56,
      "hit": false,
      "t": 94488.00000000016,
      "d": 629.9199999999983,
      "v": 127
    },
    {
      "midi": 56,
      "hit": false,
      "t": 94488.00000000017,
      "d": 629.9199999999983,
      "v": 127
    },
    {
      "midi": 56,
      "hit": false,
      "t": 94488.00000000017,
      "d": 629.9199999999983,
      "v": 127
    },
    {
      "midi": 56,
      "hit": false,
      "t": 94488.00000000017,
      "d": 629.9199999999983,
      "v": 127
    },
    {
      "midi": 49,
      "hit": false,
      "t": 94488.00000000068,
      "d": 157.47999999999593,
      "v": 127
    },
    {
      "midi": 44,
      "hit": false,
      "t": 94724.2200000001,
      "d": 157.47999999999593,
      "v": 127
    },
    {
      "midi": 56,
      "hit": false,
      "t": 94724.22000000016,
      "d": 157.47999999999593,
      "v": 127
    },
    {
      "midi": 44,
      "hit": false,
      "t": 94724.22000000016,
      "d": 157.47999999999593,
      "v": 127
    },
    {
      "midi": 36,
      "hit": false,
      "t": 94724.22000000069,
      "d": 157.47999999999593,
      "v": 127
    },
    {
      "midi": 47,
      "hit": false,
      "t": 94960.4400000001,
      "d": 157.47999999999593,
      "v": 127
    },
    {
      "midi": 56,
      "hit": false,
      "t": 94960.44000000016,
      "d": 157.47999999999593,
      "v": 127
    },
    {
      "midi": 44,
      "hit": false,
      "t": 94960.44000000016,
      "d": 157.47999999999593,
      "v": 127
    },
    {
      "midi": 34,
      "hit": false,
      "t": 94960.44000000069,
      "d": 157.47999999999593,
      "v": 127
    },
    {
      "midi": 59,
      "hit": false,
      "t": 94960.44000000069,
      "d": 314.9600000000064,
      "v": 127
    },
    {
      "midi": 47,
      "hit": false,
      "t": 95196.6600000001,
      "d": 78.74000000000524,
      "v": 127
    },
    {
      "midi": 56,
      "hit": false,
      "t": 95196.66000000016,
      "d": 78.74000000000524,
      "v": 127
    },
    {
      "midi": 44,
      "hit": false,
      "t": 95196.66000000016,
      "d": 78.74000000000524,
      "v": 127
    },
    {
      "midi": 52,
      "hit": false,
      "t": 95196.66000000069,
      "d": 157.48000000001048,
      "v": 127
    },
    {
      "midi": 47,
      "hit": false,
      "t": 95314.7700000001,
      "d": 78.74000000000524,
      "v": 127
    },
    {
      "midi": 56,
      "hit": false,
      "t": 95314.77000000016,
      "d": 78.74000000000524,
      "v": 127
    },
    {
      "midi": 44,
      "hit": false,
      "t": 95314.77000000016,
      "d": 78.74000000000524,
      "v": 127
    },
    {
      "midi": 68,
      "hit": false,
      "t": 95432.88000000003,
      "d": 78.74000000000524,
      "v": 127
    },
    {
      "midi": 68,
      "hit": false,
      "t": 95432.88000000008,
      "d": 78.74000000000524,
      "v": 127
    },
    {
      "midi": 68,
      "hit": false,
      "t": 95432.88000000016,
      "d": 78.74000000000524,
      "v": 127
    },
    {
      "midi": 56,
      "hit": false,
      "t": 95432.88000000016,
      "d": 78.74000000000524,
      "v": 127
    },
    {
      "midi": 63,
      "hit": false,
      "t": 95432.88000000016,
      "d": 157.47999999999593,
      "v": 64
    },
    {
      "midi": 49,
      "hit": false,
      "t": 95432.8800000007,
      "d": 157.47999999999593,
      "v": 123
    },
    {
      "midi": 68,
      "hit": false,
      "t": 95550.99000000003,
      "d": 39.36999999999534,
      "v": 127
    },
    {
      "midi": 68,
      "hit": false,
      "t": 95550.99000000008,
      "d": 39.36999999999534,
      "v": 127
    },
    {
      "midi": 68,
      "hit": false,
      "t": 95550.9900000001,
      "d": 39.36999999999534,
      "v": 127
    },
    {
      "midi": 68,
      "hit": false,
      "t": 95550.99000000017,
      "d": 78.73999999999069,
      "v": 127
    },
    {
      "midi": 56,
      "hit": false,
      "t": 95550.99000000017,
      "d": 78.73999999999069,
      "v": 127
    },
    {
      "midi": 63,
      "hit": false,
      "t": 95550.9900000007,
      "d": 39.36999999999534,
      "v": 123
    },
    {
      "midi": 68,
      "hit": false,
      "t": 95669.10000000002,
      "d": 78.74000000000524,
      "v": 127
    },
    {
      "midi": 68,
      "hit": false,
      "t": 95669.10000000006,
      "d": 78.74000000000524,
      "v": 127
    },
    {
      "midi": 68,
      "hit": false,
      "t": 95669.10000000015,
      "d": 78.74000000000524,
      "v": 127
    },
    {
      "midi": 56,
      "hit": false,
      "t": 95669.10000000015,
      "d": 78.74000000000524,
      "v": 127
    },
    {
      "midi": 36,
      "hit": false,
      "t": 95669.10000000069,
      "d": 157.47999999999593,
      "v": 123
    },
    {
      "midi": 68,
      "hit": false,
      "t": 95787.21000000004,
      "d": 39.36999999999534,
      "v": 127
    },
    {
      "midi": 68,
      "hit": false,
      "t": 95787.21000000008,
      "d": 39.36999999999534,
      "v": 127
    },
    {
      "midi": 68,
      "hit": false,
      "t": 95787.2100000001,
      "d": 39.36999999999534,
      "v": 127
    },
    {
      "midi": 68,
      "hit": false,
      "t": 95787.21000000015,
      "d": 78.74000000000524,
      "v": 127
    },
    {
      "midi": 56,
      "hit": false,
      "t": 95787.21000000015,
      "d": 78.74000000000524,
      "v": 127
    },
    {
      "midi": 68,
      "hit": false,
      "t": 95905.32000000002,
      "d": 157.47999999999593,
      "v": 127
    },
    {
      "midi": 68,
      "hit": false,
      "t": 95905.32000000007,
      "d": 157.47999999999593,
      "v": 127
    },
    {
      "midi": 68,
      "hit": false,
      "t": 95905.32000000008,
      "d": 78.74000000000524,
      "v": 127
    },
    {
      "midi": 68,
      "hit": false,
      "t": 95905.32000000015,
      "d": 78.74000000000524,
      "v": 127
    },
    {
      "midi": 56,
      "hit": false,
      "t": 95905.32000000015,
      "d": 78.74000000000524,
      "v": 127
    },
    {
      "midi": 63,
      "hit": false,
      "t": 95905.32000000015,
      "d": 157.47999999999593,
      "v": 64
    },
    {
      "midi": 68,
      "hit": false,
      "t": 96023.43000000008,
      "d": 78.74000000000524,
      "v": 127
    },
    {
      "midi": 68,
      "hit": false,
      "t": 96023.43000000015,
      "d": 78.73999999999069,
      "v": 127
    },
    {
      "midi": 56,
      "hit": false,
      "t": 96023.43000000015,
      "d": 78.73999999999069,
      "v": 127
    },
    {
      "midi": 63,
      "hit": false,
      "t": 96023.43000000069,
      "d": 39.36999999999534,
      "v": 123
    },
    {
      "midi": 68,
      "hit": false,
      "t": 96141.54000000008,
      "d": 157.47999999999593,
      "v": 127
    },
    {
      "midi": 68,
      "hit": false,
      "t": 96141.54000000014,
      "d": 157.47999999999593,
      "v": 127
    },
    {
      "midi": 56,
      "hit": false,
      "t": 96141.54000000014,
      "d": 157.47999999999593,
      "v": 127
    },
    {
      "midi": 63,
      "hit": false,
      "t": 96141.54000000068,
      "d": 157.47999999999593,
      "v": 123
    },
    {
      "midi": 64,
      "hit": false,
      "t": 96377.76000000002,
      "d": 314.9600000000064,
      "v": 127
    },
    {
      "midi": 64,
      "hit": false,
      "t": 96377.76000000007,
      "d": 314.9600000000064,
      "v": 127
    },
    {
      "midi": 37,
      "hit": false,
      "t": 96377.76000000008,
      "d": 157.47999999999593,
      "v": 127
    },
    {
      "midi": 64,
      "hit": false,
      "t": 96377.76000000008,
      "d": 314.9600000000064,
      "v": 127
    },
    {
      "midi": 49,
      "hit": false,
      "t": 96377.76000000014,
      "d": 157.47999999999593,
      "v": 127
    },
    {
      "midi": 61,
      "hit": false,
      "t": 96377.76000000014,
      "d": 157.47999999999593,
      "v": 127
    },
    {
      "midi": 64,
      "hit": false,
      "t": 96377.76000000015,
      "d": 314.9600000000064,
      "v": 127
    },
    {
      "midi": 64,
      "hit": false,
      "t": 96377.76000000017,
      "d": 314.9600000000064,
      "v": 127
    },
    {
      "midi": 64,
      "hit": false,
      "t": 96377.76000000017,
      "d": 314.9600000000064,
      "v": 127
    },
    {
      "midi": 64,
      "hit": false,
      "t": 96377.76000000017,
      "d": 314.9600000000064,
      "v": 127
    },
    {
      "midi": 49,
      "hit": false,
      "t": 96377.76000000031,
      "d": 157.47999999999593,
      "v": 127
    },
    {
      "midi": 37,
      "hit": false,
      "t": 96613.98000000008,
      "d": 157.48000000001048,
      "v": 127
    },
    {
      "midi": 49,
      "hit": false,
      "t": 96613.98000000014,
      "d": 157.47999999999593,
      "v": 127
    },
    {
      "midi": 61,
      "hit": false,
      "t": 96613.98000000014,
      "d": 157.47999999999593,
      "v": 127
    },
    {
      "midi": 49,
      "hit": false,
      "t": 96613.98000000032,
      "d": 157.47999999999593,
      "v": 127
    },
    {
      "midi": 61,
      "hit": false,
      "t": 96850.20000000003,
      "d": 314.9600000000064,
      "v": 127
    },
    {
      "midi": 61,
      "hit": false,
      "t": 96850.20000000007,
      "d": 314.9600000000064,
      "v": 127
    },
    {
      "midi": 49,
      "hit": false,
      "t": 96850.2000000001,
      "d": 236.22000000000116,
      "v": 127
    },
    {
      "midi": 61,
      "hit": false,
      "t": 96850.2000000001,
      "d": 314.9600000000064,
      "v": 127
    },
    {
      "midi": 49,
      "hit": false,
      "t": 96850.20000000014,
      "d": 157.47999999999593,
      "v": 127
    },
    {
      "midi": 61,
      "hit": false,
      "t": 96850.20000000014,
      "d": 157.47999999999593,
      "v": 127
    },
    {
      "midi": 61,
      "hit": false,
      "t": 96850.20000000016,
      "d": 314.9600000000064,
      "v": 127
    },
    {
      "midi": 61,
      "hit": false,
      "t": 96850.20000000017,
      "d": 314.9600000000064,
      "v": 127
    },
    {
      "midi": 61,
      "hit": false,
      "t": 96850.20000000017,
      "d": 314.9600000000064,
      "v": 127
    },
    {
      "midi": 61,
      "hit": false,
      "t": 96850.20000000017,
      "d": 314.9600000000064,
      "v": 127
    },
    {
      "midi": 49,
      "hit": false,
      "t": 96850.20000000032,
      "d": 236.22000000000116,
      "v": 127
    },
    {
      "midi": 47,
      "hit": false,
      "t": 97086.42000000014,
      "d": 78.74000000000524,
      "v": 127
    },
    {
      "midi": 59,
      "hit": false,
      "t": 97086.42000000014,
      "d": 78.74000000000524,
      "v": 127
    },
    {
      "midi": 47,
      "hit": false,
      "t": 97204.5300000001,
      "d": 157.47999999999593,
      "v": 127
    },
    {
      "midi": 48,
      "hit": false,
      "t": 97204.53000000014,
      "d": 78.74000000000524,
      "v": 127
    },
    {
      "midi": 60,
      "hit": false,
      "t": 97204.53000000014,
      "d": 78.74000000000524,
      "v": 127
    },
    {
      "midi": 47,
      "hit": false,
      "t": 97204.53000000032,
      "d": 78.74000000000524,
      "v": 127
    },
    {
      "midi": 49,
      "hit": false,
      "t": 97322.64000000014,
      "d": 78.74000000000524,
      "v": 127
    },
    {
      "midi": 61,
      "hit": false,
      "t": 97322.64000000014,
      "d": 78.74000000000524,
      "v": 127
    },
    {
      "midi": 59,
      "hit": false,
      "t": 97322.64000000016,
      "d": 157.47999999999593,
      "v": 127
    },
    {
      "midi": 59,
      "hit": false,
      "t": 97322.64000000017,
      "d": 157.47999999999593,
      "v": 127
    },
    {
      "midi": 59,
      "hit": false,
      "t": 97322.64000000017,
      "d": 157.47999999999593,
      "v": 127
    },
    {
      "midi": 59,
      "hit": false,
      "t": 97322.64000000017,
      "d": 157.47999999999593,
      "v": 127
    },
    {
      "midi": 49,
      "hit": false,
      "t": 97322.64000000032,
      "d": 157.47999999999593,
      "v": 127
    },
    {
      "midi": 47,
      "hit": false,
      "t": 97440.7500000001,
      "d": 157.47999999999593,
      "v": 127
    },
    {
      "midi": 49,
      "hit": false,
      "t": 97440.75000000015,
      "d": 78.74000000000524,
      "v": 127
    },
    {
      "midi": 61,
      "hit": false,
      "t": 97440.75000000015,
      "d": 78.74000000000524,
      "v": 127
    },
    {
      "midi": 49,
      "hit": false,
      "t": 97558.86000000015,
      "d": 78.74000000000524,
      "v": 127
    },
    {
      "midi": 61,
      "hit": false,
      "t": 97558.86000000015,
      "d": 78.74000000000524,
      "v": 127
    },
    {
      "midi": 61,
      "hit": false,
      "t": 97558.86000000016,
      "d": 78.74000000000524,
      "v": 127
    },
    {
      "midi": 61,
      "hit": false,
      "t": 97558.86000000018,
      "d": 78.74000000000524,
      "v": 127
    },
    {
      "midi": 61,
      "hit": false,
      "t": 97558.86000000018,
      "d": 78.74000000000524,
      "v": 127
    },
    {
      "midi": 61,
      "hit": false,
      "t": 97558.86000000018,
      "d": 78.74000000000524,
      "v": 127
    },
    {
      "midi": 49,
      "hit": false,
      "t": 97558.86000000032,
      "d": 78.74000000000524,
      "v": 127
    },
    {
      "midi": 44,
      "hit": false,
      "t": 97676.9700000001,
      "d": 78.74000000000524,
      "v": 127
    },
    {
      "midi": 49,
      "hit": false,
      "t": 97676.97000000015,
      "d": 78.74000000000524,
      "v": 127
    },
    {
      "midi": 61,
      "hit": false,
      "t": 97676.97000000015,
      "d": 78.74000000000524,
      "v": 127
    },
    {
      "midi": 61,
      "hit": false,
      "t": 97676.97000000016,
      "d": 314.9600000000064,
      "v": 127
    },
    {
      "midi": 61,
      "hit": false,
      "t": 97676.97000000018,
      "d": 314.9600000000064,
      "v": 127
    },
    {
      "midi": 61,
      "hit": false,
      "t": 97676.97000000018,
      "d": 314.9600000000064,
      "v": 127
    },
    {
      "midi": 61,
      "hit": false,
      "t": 97676.97000000018,
      "d": 314.9600000000064,
      "v": 127
    },
    {
      "midi": 52,
      "hit": false,
      "t": 97676.97000000032,
      "d": 433.070000000007,
      "v": 127
    },
    {
      "midi": 47,
      "hit": false,
      "t": 97795.0800000001,
      "d": 157.47999999999593,
      "v": 127
    },
    {
      "midi": 52,
      "hit": false,
      "t": 97795.08000000015,
      "d": 78.74000000000524,
      "v": 127
    },
    {
      "midi": 64,
      "hit": false,
      "t": 97795.08000000015,
      "d": 78.74000000000524,
      "v": 127
    },
    {
      "midi": 51,
      "hit": false,
      "t": 97913.19000000015,
      "d": 78.74000000000524,
      "v": 127
    },
    {
      "midi": 64,
      "hit": false,
      "t": 97913.19000000015,
      "d": 78.74000000000524,
      "v": 127
    },
    {
      "midi": 49,
      "hit": false,
      "t": 98031.3000000001,
      "d": 157.47999999999593,
      "v": 127
    },
    {
      "midi": 49,
      "hit": false,
      "t": 98031.30000000015,
      "d": 157.47999999999593,
      "v": 127
    },
    {
      "midi": 61,
      "hit": false,
      "t": 98031.30000000015,
      "d": 157.47999999999593,
      "v": 127
    },
    {
      "midi": 56,
      "hit": false,
      "t": 98149.41000000016,
      "d": 78.74000000000524,
      "v": 127
    },
    {
      "midi": 56,
      "hit": false,
      "t": 98149.41000000018,
      "d": 78.74000000000524,
      "v": 127
    },
    {
      "midi": 56,
      "hit": false,
      "t": 98149.41000000018,
      "d": 78.74000000000524,
      "v": 127
    },
    {
      "midi": 56,
      "hit": false,
      "t": 98149.41000000018,
      "d": 78.74000000000524,
      "v": 127
    },
    {
      "midi": 44,
      "hit": false,
      "t": 98149.41000000032,
      "d": 78.74000000000524,
      "v": 127
    },
    {
      "midi": 68,
      "hit": false,
      "t": 98267.52000000003,
      "d": 314.95999999999185,
      "v": 127
    },
    {
      "midi": 63,
      "hit": false,
      "t": 98267.52000000003,
      "d": 2047.2399999999907,
      "v": 127
    },
    {
      "midi": 64,
      "hit": false,
      "t": 98267.52000000008,
      "d": 157.47999999999593,
      "v": 127
    },
    {
      "midi": 68,
      "hit": false,
      "t": 98267.52000000008,
      "d": 157.47999999999593,
      "v": 127
    },
    {
      "midi": 35,
      "hit": false,
      "t": 98267.5200000001,
      "d": 157.47999999999593,
      "v": 127
    },
    {
      "midi": 68,
      "hit": false,
      "t": 98267.5200000001,
      "d": 314.9600000000064,
      "v": 127
    },
    {
      "midi": 47,
      "hit": false,
      "t": 98267.52000000015,
      "d": 157.47999999999593,
      "v": 127
    },
    {
      "midi": 59,
      "hit": false,
      "t": 98267.52000000015,
      "d": 157.47999999999593,
      "v": 127
    },
    {
      "midi": 59,
      "hit": false,
      "t": 98267.52000000016,
      "d": 157.47999999999593,
      "v": 127
    },
    {
      "midi": 59,
      "hit": false,
      "t": 98267.52000000018,
      "d": 157.47999999999593,
      "v": 127
    },
    {
      "midi": 59,
      "hit": false,
      "t": 98267.52000000018,
      "d": 157.47999999999593,
      "v": 127
    },
    {
      "midi": 59,
      "hit": false,
      "t": 98267.52000000018,
      "d": 157.47999999999593,
      "v": 127
    },
    {
      "midi": 47,
      "hit": false,
      "t": 98267.52000000032,
      "d": 157.47999999999593,
      "v": 127
    },
    {
      "midi": 49,
      "hit": false,
      "t": 98267.52000000067,
      "d": 157.47999999999593,
      "v": 127
    },
    {
      "midi": 35,
      "hit": false,
      "t": 98503.7400000001,
      "d": 157.48000000001048,
      "v": 127
    },
    {
      "midi": 59,
      "hit": false,
      "t": 98503.74000000015,
      "d": 157.47999999999593,
      "v": 127
    },
    {
      "midi": 47,
      "hit": false,
      "t": 98503.74000000015,
      "d": 157.47999999999593,
      "v": 127
    },
    {
      "midi": 59,
      "hit": false,
      "t": 98503.74000000017,
      "d": 157.47999999999593,
      "v": 127
    },
    {
      "midi": 59,
      "hit": false,
      "t": 98503.74000000018,
      "d": 157.47999999999593,
      "v": 127
    },
    {
      "midi": 59,
      "hit": false,
      "t": 98503.74000000018,
      "d": 157.47999999999593,
      "v": 127
    },
    {
      "midi": 59,
      "hit": false,
      "t": 98503.74000000018,
      "d": 157.47999999999593,
      "v": 127
    },
    {
      "midi": 47,
      "hit": false,
      "t": 98503.74000000033,
      "d": 157.47999999999593,
      "v": 127
    },
    {
      "midi": 36,
      "hit": false,
      "t": 98503.74000000067,
      "d": 157.48000000001048,
      "v": 127
    },
    {
      "midi": 47,
      "hit": false,
      "t": 98739.96000000012,
      "d": 236.22000000000116,
      "v": 127
    },
    {
      "midi": 59,
      "hit": false,
      "t": 98739.96000000015,
      "d": 157.47999999999593,
      "v": 127
    },
    {
      "midi": 47,
      "hit": false,
      "t": 98739.96000000015,
      "d": 157.47999999999593,
      "v": 127
    },
    {
      "midi": 59,
      "hit": false,
      "t": 98739.96000000017,
      "d": 157.47999999999593,
      "v": 127
    },
    {
      "midi": 59,
      "hit": false,
      "t": 98739.96000000018,
      "d": 157.47999999999593,
      "v": 127
    },
    {
      "midi": 59,
      "hit": false,
      "t": 98739.96000000018,
      "d": 157.47999999999593,
      "v": 127
    },
    {
      "midi": 59,
      "hit": false,
      "t": 98739.96000000018,
      "d": 157.47999999999593,
      "v": 127
    },
    {
      "midi": 47,
      "hit": false,
      "t": 98739.96000000033,
      "d": 157.47999999999593,
      "v": 127
    },
    {
      "midi": 59,
      "hit": false,
      "t": 98739.96000000069,
      "d": 314.9600000000064,
      "v": 127
    },
    {
      "midi": 56,
      "hit": false,
      "t": 98976.18000000015,
      "d": 78.74000000000524,
      "v": 127
    },
    {
      "midi": 44,
      "hit": false,
      "t": 98976.18000000015,
      "d": 78.74000000000524,
      "v": 127
    },
    {
      "midi": 61,
      "hit": false,
      "t": 98976.18000000017,
      "d": 78.74000000000524,
      "v": 127
    },
    {
      "midi": 61,
      "hit": false,
      "t": 98976.18000000018,
      "d": 78.74000000000524,
      "v": 127
    },
    {
      "midi": 61,
      "hit": false,
      "t": 98976.18000000018,
      "d": 78.74000000000524,
      "v": 127
    },
    {
      "midi": 61,
      "hit": false,
      "t": 98976.18000000018,
      "d": 78.74000000000524,
      "v": 127
    },
    {
      "midi": 44,
      "hit": false,
      "t": 98976.18000000033,
      "d": 78.74000000000524,
      "v": 127
    },
    {
      "midi": 52,
      "hit": false,
      "t": 98976.18000000069,
      "d": 157.48000000001048,
      "v": 127
    },
    {
      "midi": 44,
      "hit": false,
      "t": 99094.29000000012,
      "d": 157.47999999999593,
      "v": 127
    },
    {
      "midi": 59,
      "hit": false,
      "t": 99094.29000000015,
      "d": 78.74000000000524,
      "v": 127
    },
    {
      "midi": 47,
      "hit": false,
      "t": 99094.29000000015,
      "d": 78.74000000000524,
      "v": 127
    },
    {
      "midi": 59,
      "hit": false,
      "t": 99094.29000000017,
      "d": 629.9199999999983,
      "v": 127
    },
    {
      "midi": 59,
      "hit": false,
      "t": 99094.29000000018,
      "d": 629.9199999999983,
      "v": 127
    },
    {
      "midi": 59,
      "hit": false,
      "t": 99094.29000000018,
      "d": 629.9199999999983,
      "v": 127
    },
    {
      "midi": 59,
      "hit": false,
      "t": 99094.29000000018,
      "d": 629.9199999999983,
      "v": 127
    },
    {
      "midi": 47,
      "hit": false,
      "t": 99094.29000000033,
      "d": 157.47999999999593,
      "v": 127
    },
    {
      "midi": 68,
      "hit": false,
      "t": 99212.40000000001,
      "d": 314.9600000000064,
      "v": 127
    },
    {
      "midi": 59,
      "hit": false,
      "t": 99212.40000000015,
      "d": 78.74000000000524,
      "v": 127
    },
    {
      "midi": 47,
      "hit": false,
      "t": 99212.40000000015,
      "d": 78.74000000000524,
      "v": 127
    },
    {
      "midi": 50,
      "hit": false,
      "t": 99212.4000000007,
      "d": 236.22000000000116,
      "v": 127
    },
    {
      "midi": 49,
      "hit": false,
      "t": 99212.4000000007,
      "d": 314.9600000000064,
      "v": 127
    },
    {
      "midi": 44,
      "hit": false,
      "t": 99330.51000000013,
      "d": 157.47999999999593,
      "v": 127
    },
    {
      "midi": 59,
      "hit": false,
      "t": 99330.51000000015,
      "d": 78.74000000000524,
      "v": 127
    },
    {
      "midi": 47,
      "hit": false,
      "t": 99330.51000000015,
      "d": 78.74000000000524,
      "v": 127
    },
    {
      "midi": 47,
      "hit": false,
      "t": 99330.51000000033,
      "d": 157.47999999999593,
      "v": 127
    },
    {
      "midi": 59,
      "hit": false,
      "t": 99448.62000000016,
      "d": 78.74000000000524,
      "v": 127
    },
    {
      "midi": 47,
      "hit": false,
      "t": 99448.62000000016,
      "d": 78.74000000000524,
      "v": 127
    },
    {
      "midi": 42,
      "hit": false,
      "t": 99566.73000000013,
      "d": 78.74000000000524,
      "v": 127
    },
    {
      "midi": 59,
      "hit": false,
      "t": 99566.73000000016,
      "d": 78.74000000000524,
      "v": 127
    },
    {
      "midi": 47,
      "hit": false,
      "t": 99566.73000000016,
      "d": 78.74000000000524,
      "v": 127
    },
    {
      "midi": 44,
      "hit": false,
      "t": 99566.73000000033,
      "d": 78.74000000000524,
      "v": 127
    },
    {
      "midi": 50,
      "hit": false,
      "t": 99566.73000000071,
      "d": 236.22000000000116,
      "v": 127
    },
    {
      "midi": 71,
      "hit": false,
      "t": 99684.84000000001,
      "d": 314.9600000000064,
      "v": 127
    },
    {
      "midi": 40,
      "hit": false,
      "t": 99684.84000000013,
      "d": 157.47999999999593,
      "v": 127
    },
    {
      "midi": 61,
      "hit": false,
      "t": 99684.84000000016,
      "d": 78.74000000000524,
      "v": 127
    },
    {
      "midi": 49,
      "hit": false,
      "t": 99684.84000000016,
      "d": 78.74000000000524,
      "v": 127
    },
    {
      "midi": 47,
      "hit": false,
      "t": 99684.84000000033,
      "d": 157.47999999999593,
      "v": 127
    },
    {
      "midi": 59,
      "hit": false,
      "t": 99684.84000000071,
      "d": 314.9600000000064,
      "v": 127
    },
    {
      "midi": 59,
      "hit": false,
      "t": 99802.95000000016,
      "d": 78.74000000000524,
      "v": 127
    },
    {
      "midi": 47,
      "hit": false,
      "t": 99802.95000000016,
      "d": 78.74000000000524,
      "v": 127
    },
    {
      "midi": 42,
      "hit": false,
      "t": 99921.06000000013,
      "d": 157.47999999999593,
      "v": 127
    },
    {
      "midi": 57,
      "hit": false,
      "t": 99921.06000000016,
      "d": 157.47999999999593,
      "v": 127
    },
    {
      "midi": 45,
      "hit": false,
      "t": 99921.06000000016,
      "d": 157.47999999999593,
      "v": 127
    },
    {
      "midi": 59,
      "hit": false,
      "t": 99921.06000000017,
      "d": 157.47999999999593,
      "v": 127
    },
    {
      "midi": 59,
      "hit": false,
      "t": 99921.06000000019,
      "d": 157.47999999999593,
      "v": 127
    },
    {
      "midi": 59,
      "hit": false,
      "t": 99921.06000000019,
      "d": 157.47999999999593,
      "v": 127
    },
    {
      "midi": 59,
      "hit": false,
      "t": 99921.06000000019,
      "d": 157.47999999999593,
      "v": 127
    },
    {
      "midi": 49,
      "hit": false,
      "t": 99921.06000000033,
      "d": 157.47999999999593,
      "v": 127
    },
    {
      "midi": 52,
      "hit": false,
      "t": 99921.06000000071,
      "d": 157.48000000001048,
      "v": 127
    },
    {
      "midi": 73,
      "hit": false,
      "t": 100157.28000000001,
      "d": 629.9199999999983,
      "v": 127
    },
    {
      "midi": 61,
      "hit": false,
      "t": 100157.28000000003,
      "d": 944.8799999999901,
      "v": 127
    },
    {
      "midi": 61,
      "hit": false,
      "t": 100157.28000000007,
      "d": 944.8800000000047,
      "v": 127
    },
    {
      "midi": 57,
      "hit": false,
      "t": 100157.28000000016,
      "d": 157.47999999999593,
      "v": 127
    },
    {
      "midi": 45,
      "hit": false,
      "t": 100157.28000000016,
      "d": 157.47999999999593,
      "v": 127
    },
    {
      "midi": 61,
      "hit": false,
      "t": 100157.28000000017,
      "d": 314.9600000000064,
      "v": 127
    },
    {
      "midi": 61,
      "hit": false,
      "t": 100157.28000000019,
      "d": 314.9600000000064,
      "v": 127
    },
    {
      "midi": 61,
      "hit": false,
      "t": 100157.28000000019,
      "d": 314.9600000000064,
      "v": 127
    },
    {
      "midi": 61,
      "hit": false,
      "t": 100157.28000000019,
      "d": 314.9600000000064,
      "v": 127
    },
    {
      "midi": 45,
      "hit": false,
      "t": 100157.28000000033,
      "d": 157.47999999999593,
      "v": 127
    },
    {
      "midi": 57,
      "hit": false,
      "t": 100393.50000000016,
      "d": 157.47999999999593,
      "v": 127
    },
    {
      "midi": 45,
      "hit": false,
      "t": 100393.50000000016,
      "d": 157.47999999999593,
      "v": 127
    },
    {
      "midi": 40,
      "hit": false,
      "t": 100393.50000000033,
      "d": 157.47999999999593,
      "v": 127
    },
    {
      "midi": 57,
      "hit": false,
      "t": 100629.72000000016,
      "d": 157.47999999999593,
      "v": 127
    },
    {
      "midi": 45,
      "hit": false,
      "t": 100629.72000000016,
      "d": 157.47999999999593,
      "v": 127
    },
    {
      "midi": 61,
      "hit": false,
      "t": 100629.72000000018,
      "d": 157.47999999999593,
      "v": 127
    },
    {
      "midi": 61,
      "hit": false,
      "t": 100629.72000000019,
      "d": 157.47999999999593,
      "v": 127
    },
    {
      "midi": 61,
      "hit": false,
      "t": 100629.72000000019,
      "d": 157.47999999999593,
      "v": 127
    },
    {
      "midi": 61,
      "hit": false,
      "t": 100629.72000000019,
      "d": 157.47999999999593,
      "v": 127
    },
    {
      "midi": 45,
      "hit": false,
      "t": 100629.72000000034,
      "d": 157.47999999999593,
      "v": 127
    },
    {
      "midi": 57,
      "hit": false,
      "t": 100865.94000000016,
      "d": 78.74000000000524,
      "v": 127
    },
    {
      "midi": 45,
      "hit": false,
      "t": 100865.94000000016,
      "d": 78.74000000000524,
      "v": 127
    },
    {
      "midi": 64,
      "hit": false,
      "t": 100865.94000000018,
      "d": 157.47999999999593,
      "v": 127
    },
    {
      "midi": 64,
      "hit": false,
      "t": 100865.94000000019,
      "d": 157.47999999999593,
      "v": 127
    },
    {
      "midi": 64,
      "hit": false,
      "t": 100865.94000000019,
      "d": 157.47999999999593,
      "v": 127
    },
    {
      "midi": 64,
      "hit": false,
      "t": 100865.94000000019,
      "d": 157.47999999999593,
      "v": 127
    },
    {
      "midi": 49,
      "hit": false,
      "t": 100865.94000000034,
      "d": 157.47999999999593,
      "v": 127
    },
    {
      "midi": 57,
      "hit": false,
      "t": 100984.05000000016,
      "d": 78.74000000000524,
      "v": 127
    },
    {
      "midi": 45,
      "hit": false,
      "t": 100984.05000000016,
      "d": 78.74000000000524,
      "v": 127
    },
    {
      "midi": 63,
      "hit": false,
      "t": 101102.16000000002,
      "d": 1102.3600000000006,
      "v": 127
    },
    {
      "midi": 75,
      "hit": false,
      "t": 101102.16000000002,
      "d": 629.9199999999983,
      "v": 127
    },
    {
      "midi": 59,
      "hit": false,
      "t": 101102.16000000016,
      "d": 78.74000000000524,
      "v": 127
    },
    {
      "midi": 47,
      "hit": false,
      "t": 101102.16000000016,
      "d": 78.74000000000524,
      "v": 127
    },
    {
      "midi": 63,
      "hit": false,
      "t": 101102.16000000018,
      "d": 236.22000000000116,
      "v": 127
    },
    {
      "midi": 63,
      "hit": false,
      "t": 101102.16000000019,
      "d": 236.22000000000116,
      "v": 127
    },
    {
      "midi": 63,
      "hit": false,
      "t": 101102.16000000019,
      "d": 236.22000000000116,
      "v": 127
    },
    {
      "midi": 63,
      "hit": false,
      "t": 101102.16000000019,
      "d": 236.22000000000116,
      "v": 127
    },
    {
      "midi": 47,
      "hit": false,
      "t": 101102.16000000034,
      "d": 236.22000000000116,
      "v": 127
    },
    {
      "midi": 59,
      "hit": false,
      "t": 101220.27000000016,
      "d": 78.74000000000524,
      "v": 127
    },
    {
      "midi": 47,
      "hit": false,
      "t": 101220.27000000016,
      "d": 78.74000000000524,
      "v": 127
    },
    {
      "midi": 59,
      "hit": false,
      "t": 101338.38000000016,
      "d": 78.74000000000524,
      "v": 127
    },
    {
      "midi": 47,
      "hit": false,
      "t": 101338.38000000016,
      "d": 78.74000000000524,
      "v": 127
    },
    {
      "midi": 59,
      "hit": false,
      "t": 101456.49000000017,
      "d": 78.74000000000524,
      "v": 127
    },
    {
      "midi": 47,
      "hit": false,
      "t": 101456.49000000017,
      "d": 78.74000000000524,
      "v": 127
    },
    {
      "midi": 59,
      "hit": false,
      "t": 101456.49000000018,
      "d": 236.22000000000116,
      "v": 127
    },
    {
      "midi": 59,
      "hit": false,
      "t": 101456.4900000002,
      "d": 236.22000000000116,
      "v": 127
    },
    {
      "midi": 59,
      "hit": false,
      "t": 101456.4900000002,
      "d": 236.22000000000116,
      "v": 127
    },
    {
      "midi": 59,
      "hit": false,
      "t": 101456.4900000002,
      "d": 236.22000000000116,
      "v": 127
    },
    {
      "midi": 42,
      "hit": false,
      "t": 101456.49000000034,
      "d": 236.22000000000116,
      "v": 127
    },
    {
      "midi": 59,
      "hit": false,
      "t": 101574.60000000017,
      "d": 78.74000000000524,
      "v": 127
    },
    {
      "midi": 47,
      "hit": false,
      "t": 101574.60000000017,
      "d": 78.74000000000524,
      "v": 127
    },
    {
      "midi": 59,
      "hit": false,
      "t": 101692.71000000017,
      "d": 78.74000000000524,
      "v": 127
    },
    {
      "midi": 47,
      "hit": false,
      "t": 101692.71000000017,
      "d": 78.74000000000524,
      "v": 127
    },
    {
      "midi": 59,
      "hit": false,
      "t": 101810.82000000017,
      "d": 157.47999999999593,
      "v": 127
    },
    {
      "midi": 47,
      "hit": false,
      "t": 101810.82000000017,
      "d": 157.47999999999593,
      "v": 127
    },
    {
      "midi": 63,
      "hit": false,
      "t": 101810.82000000018,
      "d": 157.47999999999593,
      "v": 127
    },
    {
      "midi": 63,
      "hit": false,
      "t": 101810.8200000002,
      "d": 157.47999999999593,
      "v": 127
    },
    {
      "midi": 63,
      "hit": false,
      "t": 101810.8200000002,
      "d": 157.47999999999593,
      "v": 127
    },
    {
      "midi": 63,
      "hit": false,
      "t": 101810.8200000002,
      "d": 157.47999999999593,
      "v": 127
    },
    {
      "midi": 51,
      "hit": false,
      "t": 101810.82000000034,
      "d": 157.47999999999593,
      "v": 127
    },
    {
      "midi": 61,
      "hit": false,
      "t": 102047.04000000002,
      "d": 1263.7770000000019,
      "v": 127
    },
    {
      "midi": 73,
      "hit": false,
      "t": 102047.04000000002,
      "d": 629.9199999999983,
      "v": 127
    },
    {
      "midi": 61,
      "hit": false,
      "t": 102047.04000000008,
      "d": 1263.7770000000019,
      "v": 127
    },
    {
      "midi": 37,
      "hit": false,
      "t": 102047.04000000012,
      "d": 157.47999999999593,
      "v": 127
    },
    {
      "midi": 49,
      "hit": false,
      "t": 102047.04000000017,
      "d": 157.47999999999593,
      "v": 127
    },
    {
      "midi": 61,
      "hit": false,
      "t": 102047.04000000017,
      "d": 157.47999999999593,
      "v": 127
    },
    {
      "midi": 61,
      "hit": false,
      "t": 102047.04000000018,
      "d": 314.9600000000064,
      "v": 127
    },
    {
      "midi": 61,
      "hit": false,
      "t": 102047.0400000002,
      "d": 314.9600000000064,
      "v": 127
    },
    {
      "midi": 61,
      "hit": false,
      "t": 102047.0400000002,
      "d": 314.9600000000064,
      "v": 127
    },
    {
      "midi": 61,
      "hit": false,
      "t": 102047.0400000002,
      "d": 314.9600000000064,
      "v": 127
    },
    {
      "midi": 37,
      "hit": false,
      "t": 102047.04000000034,
      "d": 157.47999999999593,
      "v": 127
    },
    {
      "midi": 37,
      "hit": false,
      "t": 102283.26000000013,
      "d": 157.47999999999593,
      "v": 127
    },
    {
      "midi": 49,
      "hit": false,
      "t": 102283.26000000017,
      "d": 157.47999999999593,
      "v": 127
    },
    {
      "midi": 61,
      "hit": false,
      "t": 102283.26000000017,
      "d": 157.47999999999593,
      "v": 127
    },
    {
      "midi": 37,
      "hit": false,
      "t": 102283.26000000034,
      "d": 157.47999999999593,
      "v": 127
    },
    {
      "midi": 49,
      "hit": false,
      "t": 102519.48000000013,
      "d": 236.22000000000116,
      "v": 127
    },
    {
      "midi": 49,
      "hit": false,
      "t": 102519.48000000017,
      "d": 157.47999999999593,
      "v": 127
    },
    {
      "midi": 61,
      "hit": false,
      "t": 102519.48000000017,
      "d": 157.47999999999593,
      "v": 127
    },
    {
      "midi": 49,
      "hit": false,
      "t": 102519.48000000035,
      "d": 236.22000000000116,
      "v": 127
    },
    {
      "midi": 47,
      "hit": false,
      "t": 102755.70000000017,
      "d": 78.74000000000524,
      "v": 127
    },
    {
      "midi": 59,
      "hit": false,
      "t": 102755.70000000017,
      "d": 78.74000000000524,
      "v": 127
    },
    {
      "midi": 47,
      "hit": false,
      "t": 102873.81000000013,
      "d": 157.47999999999593,
      "v": 127
    },
    {
      "midi": 48,
      "hit": false,
      "t": 102873.81000000017,
      "d": 78.74000000000524,
      "v": 127
    },
    {
      "midi": 60,
      "hit": false,
      "t": 102873.81000000017,
      "d": 78.74000000000524,
      "v": 127
    },
    {
      "midi": 47,
      "hit": false,
      "t": 102873.81000000035,
      "d": 157.47999999999593,
      "v": 127
    },
    {
      "midi": 49,
      "hit": false,
      "t": 102991.92000000017,
      "d": 78.74000000000524,
      "v": 127
    },
    {
      "midi": 61,
      "hit": false,
      "t": 102991.92000000017,
      "d": 78.74000000000524,
      "v": 127
    },
    {
      "midi": 47,
      "hit": false,
      "t": 103110.03000000013,
      "d": 157.47999999999593,
      "v": 127
    },
    {
      "midi": 49,
      "hit": false,
      "t": 103110.03000000017,
      "d": 78.74000000000524,
      "v": 127
    },
    {
      "midi": 61,
      "hit": false,
      "t": 103110.03000000017,
      "d": 78.74000000000524,
      "v": 127
    },
    {
      "midi": 47,
      "hit": false,
      "t": 103110.03000000035,
      "d": 157.47999999999593,
      "v": 127
    },
    {
      "midi": 49,
      "hit": false,
      "t": 103228.14000000017,
      "d": 78.74000000000524,
      "v": 127
    },
    {
      "midi": 61,
      "hit": false,
      "t": 103228.14000000017,
      "d": 78.74000000000524,
      "v": 127
    },
    {
      "midi": 44,
      "hit": false,
      "t": 103346.25000000013,
      "d": 78.74000000000524,
      "v": 127
    },
    {
      "midi": 49,
      "hit": false,
      "t": 103346.25000000017,
      "d": 78.74000000000524,
      "v": 127
    },
    {
      "midi": 61,
      "hit": false,
      "t": 103346.25000000017,
      "d": 78.74000000000524,
      "v": 127
    },
    {
      "midi": 44,
      "hit": false,
      "t": 103346.25000000035,
      "d": 78.74000000000524,
      "v": 127
    },
    {
      "midi": 47,
      "hit": false,
      "t": 103464.36000000013,
      "d": 157.47999999999593,
      "v": 127
    },
    {
      "midi": 52,
      "hit": false,
      "t": 103464.36000000018,
      "d": 78.74000000000524,
      "v": 127
    },
    {
      "midi": 64,
      "hit": false,
      "t": 103464.36000000018,
      "d": 78.74000000000524,
      "v": 127
    },
    {
      "midi": 47,
      "hit": false,
      "t": 103464.36000000035,
      "d": 157.47999999999593,
      "v": 127
    },
    {
      "midi": 51,
      "hit": false,
      "t": 103582.47000000018,
      "d": 78.74000000000524,
      "v": 127
    },
    {
      "midi": 64,
      "hit": false,
      "t": 103582.47000000018,
      "d": 78.74000000000524,
      "v": 127
    },
    {
      "midi": 49,
      "hit": false,
      "t": 103700.58000000013,
      "d": 157.47999999999593,
      "v": 127
    },
    {
      "midi": 49,
      "hit": false,
      "t": 103700.58000000018,
      "d": 157.47999999999593,
      "v": 127
    },
    {
      "midi": 61,
      "hit": false,
      "t": 103700.58000000018,
      "d": 157.47999999999593,
      "v": 127
    },
    {
      "midi": 49,
      "hit": false,
      "t": 103700.58000000035,
      "d": 157.47999999999593,
      "v": 127
    },
    {
      "midi": 85,
      "hit": false,
      "t": 103936.80000000002,
      "d": 236.22000000000116,
      "v": 127
    },
    {
      "midi": 80,
      "hit": false,
      "t": 103936.80000000002,
      "d": 236.22000000000116,
      "v": 127
    },
    {
      "midi": 68,
      "hit": false,
      "t": 103936.80000000002,
      "d": 236.22000000000116,
      "v": 127
    },
    {
      "midi": 68,
      "hit": false,
      "t": 103936.80000000008,
      "d": 236.22000000000116,
      "v": 127
    },
    {
      "midi": 85,
      "hit": false,
      "t": 103936.80000000008,
      "d": 236.22000000000116,
      "v": 127
    },
    {
      "midi": 80,
      "hit": false,
      "t": 103936.80000000008,
      "d": 236.22000000000116,
      "v": 127
    },
    {
      "midi": 37,
      "hit": false,
      "t": 103936.80000000013,
      "d": 157.47999999999593,
      "v": 127
    },
    {
      "midi": 61,
      "hit": false,
      "t": 103936.80000000018,
      "d": 157.47999999999593,
      "v": 127
    },
    {
      "midi": 49,
      "hit": false,
      "t": 103936.80000000018,
      "d": 157.47999999999593,
      "v": 127
    },
    {
      "midi": 49,
      "hit": false,
      "t": 103936.80000000072,
      "d": 157.47999999999593,
      "v": 127
    },
    {
      "midi": 44,
      "hit": false,
      "t": 104173.01999999999,
      "d": 157.47999999999593,
      "v": 118
    },
    {
      "midi": 68,
      "hit": false,
      "t": 104173.02000000002,
      "d": 157.47999999999593,
      "v": 127
    },
    {
      "midi": 68,
      "hit": false,
      "t": 104173.02000000008,
      "d": 157.47999999999593,
      "v": 127
    },
    {
      "midi": 37,
      "hit": false,
      "t": 104173.02000000014,
      "d": 157.47999999999593,
      "v": 127
    },
    {
      "midi": 61,
      "hit": false,
      "t": 104173.02000000018,
      "d": 157.47999999999593,
      "v": 127
    },
    {
      "midi": 49,
      "hit": false,
      "t": 104173.02000000018,
      "d": 157.47999999999593,
      "v": 127
    },
    {
      "midi": 36,
      "hit": false,
      "t": 104173.02000000072,
      "d": 157.48000000001048,
      "v": 127
    },
    {
      "midi": 44,
      "hit": false,
      "t": 104409.23999999999,
      "d": 157.47999999999593,
      "v": 118
    },
    {
      "midi": 68,
      "hit": false,
      "t": 104409.24000000002,
      "d": 157.47999999999593,
      "v": 127
    },
    {
      "midi": 68,
      "hit": false,
      "t": 104409.24000000008,
      "d": 157.47999999999593,
      "v": 127
    },
    {
      "midi": 49,
      "hit": false,
      "t": 104409.24000000014,
      "d": 314.9600000000064,
      "v": 127
    },
    {
      "midi": 61,
      "hit": false,
      "t": 104409.24000000018,
      "d": 157.47999999999593,
      "v": 127
    },
    {
      "midi": 49,
      "hit": false,
      "t": 104409.24000000018,
      "d": 157.47999999999593,
      "v": 127
    },
    {
      "midi": 34,
      "hit": false,
      "t": 104409.24000000073,
      "d": 157.47999999999593,
      "v": 127
    },
    {
      "midi": 61,
      "hit": false,
      "t": 104409.24000000073,
      "d": 314.9600000000064,
      "v": 127
    },
    {
      "midi": 52,
      "hit": false,
      "t": 104645.45999999999,
      "d": 236.22000000000116,
      "v": 118
    },
    {
      "midi": 64,
      "hit": false,
      "t": 104645.46000000002,
      "d": 78.74000000000524,
      "v": 127
    },
    {
      "midi": 64,
      "hit": false,
      "t": 104645.46000000008,
      "d": 78.74000000000524,
      "v": 127
    },
    {
      "midi": 59,
      "hit": false,
      "t": 104645.46000000018,
      "d": 78.74000000000524,
      "v": 127
    },
    {
      "midi": 47,
      "hit": false,
      "t": 104645.46000000018,
      "d": 78.74000000000524,
      "v": 127
    },
    {
      "midi": 52,
      "hit": false,
      "t": 104645.46000000073,
      "d": 157.48000000001048,
      "v": 127
    },
    {
      "midi": 68,
      "hit": false,
      "t": 104763.57000000002,
      "d": 236.22000000000116,
      "v": 127
    },
    {
      "midi": 68,
      "hit": false,
      "t": 104763.57000000008,
      "d": 236.22000000000116,
      "v": 127
    },
    {
      "midi": 47,
      "hit": false,
      "t": 104763.57000000014,
      "d": 157.47999999999593,
      "v": 127
    },
    {
      "midi": 60,
      "hit": false,
      "t": 104763.57000000018,
      "d": 78.74000000000524,
      "v": 127
    },
    {
      "midi": 48,
      "hit": false,
      "t": 104763.57000000018,
      "d": 78.74000000000524,
      "v": 127
    },
    {
      "midi": 44,
      "hit": false,
      "t": 104881.68,
      "d": 236.22000000000116,
      "v": 118
    },
    {
      "midi": 61,
      "hit": false,
      "t": 104881.68000000018,
      "d": 78.74000000000524,
      "v": 127
    },
    {
      "midi": 49,
      "hit": false,
      "t": 104881.68000000018,
      "d": 78.74000000000524,
      "v": 127
    },
    {
      "midi": 50,
      "hit": false,
      "t": 104881.68000000075,
      "d": 236.22000000000116,
      "v": 127
    },
    {
      "midi": 49,
      "hit": false,
      "t": 104881.68000000075,
      "d": 314.9600000000064,
      "v": 127
    },
    {
      "midi": 47,
      "hit": false,
      "t": 104999.79000000014,
      "d": 157.47999999999593,
      "v": 127
    },
    {
      "midi": 61,
      "hit": false,
      "t": 104999.79000000018,
      "d": 78.74000000000524,
      "v": 127
    },
    {
      "midi": 49,
      "hit": false,
      "t": 104999.79000000018,
      "d": 78.74000000000524,
      "v": 127
    },
    {
      "midi": 61,
      "hit": false,
      "t": 105117.90000000018,
      "d": 78.74000000000524,
      "v": 127
    },
    {
      "midi": 49,
      "hit": false,
      "t": 105117.90000000018,
      "d": 78.74000000000524,
      "v": 127
    },
    {
      "midi": 44,
      "hit": false,
      "t": 105236.01,
      "d": 236.22000000000116,
      "v": 118
    },
    {
      "midi": 44,
      "hit": false,
      "t": 105236.01000000014,
      "d": 78.74000000000524,
      "v": 127
    },
    {
      "midi": 61,
      "hit": false,
      "t": 105236.01000000018,
      "d": 78.74000000000524,
      "v": 127
    },
    {
      "midi": 49,
      "hit": false,
      "t": 105236.01000000018,
      "d": 78.74000000000524,
      "v": 127
    },
    {
      "midi": 50,
      "hit": false,
      "t": 105236.01000000075,
      "d": 236.22000000000116,
      "v": 127
    },
    {
      "midi": 42,
      "hit": false,
      "t": 105354.12000000014,
      "d": 157.47999999999593,
      "v": 127
    },
    {
      "midi": 64,
      "hit": false,
      "t": 105354.12000000018,
      "d": 78.74000000000524,
      "v": 127
    },
    {
      "midi": 52,
      "hit": false,
      "t": 105354.12000000018,
      "d": 78.74000000000524,
      "v": 127
    },
    {
      "midi": 61,
      "hit": false,
      "t": 105354.12000000075,
      "d": 314.9600000000064,
      "v": 127
    },
    {
      "midi": 59,
      "hit": false,
      "t": 105354.12000000075,
      "d": 314.9600000000064,
      "v": 127
    },
    {
      "midi": 63,
      "hit": false,
      "t": 105472.23000000019,
      "d": 78.74000000000524,
      "v": 127
    },
    {
      "midi": 51,
      "hit": false,
      "t": 105472.23000000019,
      "d": 78.74000000000524,
      "v": 127
    },
    {
      "midi": 52,
      "hit": false,
      "t": 105590.34,
      "d": 78.74000000000524,
      "v": 118
    },
    {
      "midi": 44,
      "hit": false,
      "t": 105590.34000000014,
      "d": 157.47999999999593,
      "v": 127
    },
    {
      "midi": 61,
      "hit": false,
      "t": 105590.34000000019,
      "d": 157.47999999999593,
      "v": 127
    },
    {
      "midi": 49,
      "hit": false,
      "t": 105590.34000000019,
      "d": 157.47999999999593,
      "v": 127
    },
    {
      "midi": 52,
      "hit": false,
      "t": 105590.34000000075,
      "d": 157.48000000001048,
      "v": 127
    },
    {
      "midi": 37,
      "hit": false,
      "t": 105826.56000000014,
      "d": 157.47999999999593,
      "v": 127
    },
    {
      "midi": 61,
      "hit": false,
      "t": 105826.56000000019,
      "d": 157.47999999999593,
      "v": 127
    },
    {
      "midi": 49,
      "hit": false,
      "t": 105826.56000000019,
      "d": 157.47999999999593,
      "v": 127
    },
    {
      "midi": 49,
      "hit": false,
      "t": 105826.56000000077,
      "d": 157.47999999999593,
      "v": 127
    },
    {
      "midi": 44,
      "hit": false,
      "t": 106062.78,
      "d": 157.47999999999593,
      "v": 118
    },
    {
      "midi": 68,
      "hit": false,
      "t": 106062.78000000003,
      "d": 157.47999999999593,
      "v": 127
    },
    {
      "midi": 68,
      "hit": false,
      "t": 106062.78000000009,
      "d": 78.74000000000524,
      "v": 127
    },
    {
      "midi": 37,
      "hit": false,
      "t": 106062.78000000014,
      "d": 157.47999999999593,
      "v": 127
    },
    {
      "midi": 61,
      "hit": false,
      "t": 106062.78000000019,
      "d": 157.47999999999593,
      "v": 127
    },
    {
      "midi": 49,
      "hit": false,
      "t": 106062.78000000019,
      "d": 157.47999999999593,
      "v": 127
    },
    {
      "midi": 36,
      "hit": false,
      "t": 106062.78000000077,
      "d": 157.48000000001048,
      "v": 127
    },
    {
      "midi": 44,
      "hit": false,
      "t": 106299,
      "d": 157.47999999999593,
      "v": 118
    },
    {
      "midi": 68,
      "hit": false,
      "t": 106299.00000000003,
      "d": 157.47999999999593,
      "v": 127
    },
    {
      "midi": 68,
      "hit": false,
      "t": 106299.0000000001,
      "d": 157.47999999999593,
      "v": 127
    },
    {
      "midi": 49,
      "hit": false,
      "t": 106299.00000000015,
      "d": 314.9600000000064,
      "v": 127
    },
    {
      "midi": 61,
      "hit": false,
      "t": 106299.00000000019,
      "d": 157.47999999999593,
      "v": 127
    },
    {
      "midi": 49,
      "hit": false,
      "t": 106299.00000000019,
      "d": 157.47999999999593,
      "v": 127
    },
    {
      "midi": 34,
      "hit": false,
      "t": 106299.00000000079,
      "d": 157.47999999999593,
      "v": 127
    },
    {
      "midi": 61,
      "hit": false,
      "t": 106299.00000000079,
      "d": 314.9600000000064,
      "v": 127
    },
    {
      "midi": 52,
      "hit": false,
      "t": 106535.22,
      "d": 236.22000000000116,
      "v": 118
    },
    {
      "midi": 64,
      "hit": false,
      "t": 106535.22000000003,
      "d": 78.74000000000524,
      "v": 127
    },
    {
      "midi": 64,
      "hit": false,
      "t": 106535.2200000001,
      "d": 78.74000000000524,
      "v": 127
    },
    {
      "midi": 59,
      "hit": false,
      "t": 106535.22000000019,
      "d": 78.74000000000524,
      "v": 127
    },
    {
      "midi": 47,
      "hit": false,
      "t": 106535.22000000019,
      "d": 78.74000000000524,
      "v": 127
    },
    {
      "midi": 52,
      "hit": false,
      "t": 106535.22000000079,
      "d": 157.48000000001048,
      "v": 127
    },
    {
      "midi": 68,
      "hit": false,
      "t": 106653.33000000003,
      "d": 236.22000000000116,
      "v": 127
    },
    {
      "midi": 68,
      "hit": false,
      "t": 106653.3300000001,
      "d": 236.22000000000116,
      "v": 127
    },
    {
      "midi": 47,
      "hit": false,
      "t": 106653.33000000015,
      "d": 157.47999999999593,
      "v": 127
    },
    {
      "midi": 60,
      "hit": false,
      "t": 106653.33000000019,
      "d": 78.74000000000524,
      "v": 127
    },
    {
      "midi": 48,
      "hit": false,
      "t": 106653.33000000019,
      "d": 78.74000000000524,
      "v": 127
    },
    {
      "midi": 44,
      "hit": false,
      "t": 106771.44,
      "d": 236.22000000000116,
      "v": 118
    },
    {
      "midi": 61,
      "hit": false,
      "t": 106771.44000000019,
      "d": 78.74000000000524,
      "v": 127
    },
    {
      "midi": 49,
      "hit": false,
      "t": 106771.44000000019,
      "d": 78.74000000000524,
      "v": 127
    },
    {
      "midi": 50,
      "hit": false,
      "t": 106771.4400000008,
      "d": 236.22000000000116,
      "v": 127
    },
    {
      "midi": 49,
      "hit": false,
      "t": 106771.4400000008,
      "d": 314.9600000000064,
      "v": 127
    },
    {
      "midi": 65,
      "hit": false,
      "t": 106889.55000000003,
      "d": 78.74000000000524,
      "v": 127
    },
    {
      "midi": 65,
      "hit": false,
      "t": 106889.5500000001,
      "d": 78.74000000000524,
      "v": 127
    },
    {
      "midi": 47,
      "hit": false,
      "t": 106889.55000000015,
      "d": 157.47999999999593,
      "v": 127
    },
    {
      "midi": 61,
      "hit": false,
      "t": 106889.55000000019,
      "d": 78.74000000000524,
      "v": 127
    },
    {
      "midi": 49,
      "hit": false,
      "t": 106889.55000000019,
      "d": 78.74000000000524,
      "v": 127
    },
    {
      "midi": 66,
      "hit": false,
      "t": 107007.66000000003,
      "d": 472.4400000000023,
      "v": 127
    },
    {
      "midi": 66,
      "hit": false,
      "t": 107007.6600000001,
      "d": 472.4400000000023,
      "v": 127
    },
    {
      "midi": 61,
      "hit": false,
      "t": 107007.66000000019,
      "d": 78.74000000000524,
      "v": 127
    },
    {
      "midi": 49,
      "hit": false,
      "t": 107007.66000000019,
      "d": 78.74000000000524,
      "v": 127
    },
    {
      "midi": 44,
      "hit": false,
      "t": 107125.77,
      "d": 236.22000000000116,
      "v": 118
    },
    {
      "midi": 44,
      "hit": false,
      "t": 107125.77000000015,
      "d": 78.74000000000524,
      "v": 127
    },
    {
      "midi": 61,
      "hit": false,
      "t": 107125.7700000002,
      "d": 78.74000000000524,
      "v": 127
    },
    {
      "midi": 49,
      "hit": false,
      "t": 107125.7700000002,
      "d": 78.74000000000524,
      "v": 127
    },
    {
      "midi": 50,
      "hit": false,
      "t": 107125.7700000008,
      "d": 236.22000000000116,
      "v": 127
    },
    {
      "midi": 47,
      "hit": false,
      "t": 107243.88000000015,
      "d": 157.47999999999593,
      "v": 127
    },
    {
      "midi": 64,
      "hit": false,
      "t": 107243.8800000002,
      "d": 78.74000000000524,
      "v": 127
    },
    {
      "midi": 52,
      "hit": false,
      "t": 107243.8800000002,
      "d": 78.74000000000524,
      "v": 127
    },
    {
      "midi": 61,
      "hit": false,
      "t": 107243.8800000008,
      "d": 314.9600000000064,
      "v": 127
    },
    {
      "midi": 59,
      "hit": false,
      "t": 107243.8800000008,
      "d": 314.9600000000064,
      "v": 127
    },
    {
      "midi": 63,
      "hit": false,
      "t": 107361.9900000002,
      "d": 78.74000000000524,
      "v": 127
    },
    {
      "midi": 51,
      "hit": false,
      "t": 107361.9900000002,
      "d": 78.74000000000524,
      "v": 127
    },
    {
      "midi": 52,
      "hit": false,
      "t": 107480.1,
      "d": 78.74000000000524,
      "v": 118
    },
    {
      "midi": 73,
      "hit": false,
      "t": 107480.10000000011,
      "d": 157.47999999999593,
      "v": 127
    },
    {
      "midi": 49,
      "hit": false,
      "t": 107480.10000000015,
      "d": 157.47999999999593,
      "v": 127
    },
    {
      "midi": 61,
      "hit": false,
      "t": 107480.1000000002,
      "d": 157.47999999999593,
      "v": 127
    },
    {
      "midi": 49,
      "hit": false,
      "t": 107480.1000000002,
      "d": 157.47999999999593,
      "v": 127
    },
    {
      "midi": 52,
      "hit": false,
      "t": 107480.1000000008,
      "d": 157.48000000001048,
      "v": 127
    },
    {
      "midi": 73,
      "hit": false,
      "t": 107716.32000000011,
      "d": 157.47999999999593,
      "v": 127
    },
    {
      "midi": 37,
      "hit": false,
      "t": 107716.32000000015,
      "d": 157.47999999999593,
      "v": 127
    },
    {
      "midi": 61,
      "hit": false,
      "t": 107716.3200000002,
      "d": 157.47999999999593,
      "v": 127
    },
    {
      "midi": 49,
      "hit": false,
      "t": 107716.3200000002,
      "d": 157.47999999999593,
      "v": 127
    },
    {
      "midi": 49,
      "hit": false,
      "t": 107716.32000000082,
      "d": 157.47999999999593,
      "v": 127
    },
    {
      "midi": 44,
      "hit": false,
      "t": 107952.54000000001,
      "d": 157.47999999999593,
      "v": 118
    },
    {
      "midi": 68,
      "hit": false,
      "t": 107952.54000000004,
      "d": 157.47999999999593,
      "v": 127
    },
    {
      "midi": 68,
      "hit": false,
      "t": 107952.54000000011,
      "d": 157.47999999999593,
      "v": 127
    },
    {
      "midi": 37,
      "hit": false,
      "t": 107952.54000000015,
      "d": 157.47999999999593,
      "v": 127
    },
    {
      "midi": 61,
      "hit": false,
      "t": 107952.5400000002,
      "d": 157.47999999999593,
      "v": 127
    },
    {
      "midi": 49,
      "hit": false,
      "t": 107952.5400000002,
      "d": 157.47999999999593,
      "v": 127
    },
    {
      "midi": 36,
      "hit": false,
      "t": 107952.54000000082,
      "d": 157.48000000001048,
      "v": 127
    },
    {
      "midi": 44,
      "hit": false,
      "t": 108188.76000000001,
      "d": 157.47999999999593,
      "v": 118
    },
    {
      "midi": 68,
      "hit": false,
      "t": 108188.76000000004,
      "d": 157.47999999999593,
      "v": 127
    },
    {
      "midi": 68,
      "hit": false,
      "t": 108188.76000000011,
      "d": 157.47999999999593,
      "v": 127
    },
    {
      "midi": 49,
      "hit": false,
      "t": 108188.76000000015,
      "d": 314.9600000000064,
      "v": 127
    },
    {
      "midi": 61,
      "hit": false,
      "t": 108188.7600000002,
      "d": 157.47999999999593,
      "v": 127
    },
    {
      "midi": 49,
      "hit": false,
      "t": 108188.7600000002,
      "d": 157.47999999999593,
      "v": 127
    },
    {
      "midi": 34,
      "hit": false,
      "t": 108188.76000000084,
      "d": 157.47999999999593,
      "v": 127
    },
    {
      "midi": 61,
      "hit": false,
      "t": 108188.76000000084,
      "d": 314.9600000000064,
      "v": 127
    },
    {
      "midi": 52,
      "hit": false,
      "t": 108424.98000000001,
      "d": 236.22000000000116,
      "v": 118
    },
    {
      "midi": 64,
      "hit": false,
      "t": 108424.98000000004,
      "d": 78.74000000000524,
      "v": 127
    },
    {
      "midi": 64,
      "hit": false,
      "t": 108424.98000000011,
      "d": 78.74000000000524,
      "v": 127
    },
    {
      "midi": 59,
      "hit": false,
      "t": 108424.9800000002,
      "d": 78.74000000000524,
      "v": 127
    },
    {
      "midi": 47,
      "hit": false,
      "t": 108424.9800000002,
      "d": 78.74000000000524,
      "v": 127
    },
    {
      "midi": 52,
      "hit": false,
      "t": 108424.98000000084,
      "d": 157.48000000001048,
      "v": 127
    },
    {
      "midi": 68,
      "hit": false,
      "t": 108543.09000000004,
      "d": 236.22000000000116,
      "v": 127
    },
    {
      "midi": 68,
      "hit": false,
      "t": 108543.09000000011,
      "d": 236.22000000000116,
      "v": 127
    },
    {
      "midi": 47,
      "hit": false,
      "t": 108543.09000000016,
      "d": 157.47999999999593,
      "v": 127
    },
    {
      "midi": 60,
      "hit": false,
      "t": 108543.0900000002,
      "d": 78.74000000000524,
      "v": 127
    },
    {
      "midi": 48,
      "hit": false,
      "t": 108543.0900000002,
      "d": 78.74000000000524,
      "v": 127
    },
    {
      "midi": 44,
      "hit": false,
      "t": 108661.20000000001,
      "d": 236.22000000000116,
      "v": 118
    },
    {
      "midi": 61,
      "hit": false,
      "t": 108661.2000000002,
      "d": 78.74000000000524,
      "v": 127
    },
    {
      "midi": 49,
      "hit": false,
      "t": 108661.2000000002,
      "d": 78.74000000000524,
      "v": 127
    },
    {
      "midi": 50,
      "hit": false,
      "t": 108661.20000000086,
      "d": 236.22000000000116,
      "v": 127
    },
    {
      "midi": 49,
      "hit": false,
      "t": 108661.20000000086,
      "d": 314.9600000000064,
      "v": 127
    },
    {
      "midi": 47,
      "hit": false,
      "t": 108779.31000000016,
      "d": 157.47999999999593,
      "v": 127
    },
    {
      "midi": 61,
      "hit": false,
      "t": 108779.3100000002,
      "d": 78.74000000000524,
      "v": 127
    },
    {
      "midi": 49,
      "hit": false,
      "t": 108779.3100000002,
      "d": 78.74000000000524,
      "v": 127
    },
    {
      "midi": 61,
      "hit": false,
      "t": 108897.4200000002,
      "d": 78.74000000000524,
      "v": 127
    },
    {
      "midi": 49,
      "hit": false,
      "t": 108897.4200000002,
      "d": 78.74000000000524,
      "v": 127
    },
    {
      "midi": 44,
      "hit": false,
      "t": 109015.53000000001,
      "d": 236.22000000000116,
      "v": 118
    },
    {
      "midi": 44,
      "hit": false,
      "t": 109015.53000000016,
      "d": 78.74000000000524,
      "v": 127
    },
    {
      "midi": 61,
      "hit": false,
      "t": 109015.5300000002,
      "d": 78.74000000000524,
      "v": 127
    },
    {
      "midi": 49,
      "hit": false,
      "t": 109015.5300000002,
      "d": 78.74000000000524,
      "v": 127
    },
    {
      "midi": 50,
      "hit": false,
      "t": 109015.53000000086,
      "d": 236.22000000000116,
      "v": 127
    },
    {
      "midi": 42,
      "hit": false,
      "t": 109133.64000000016,
      "d": 157.47999999999593,
      "v": 127
    },
    {
      "midi": 64,
      "hit": false,
      "t": 109133.6400000002,
      "d": 78.74000000000524,
      "v": 127
    },
    {
      "midi": 52,
      "hit": false,
      "t": 109133.6400000002,
      "d": 78.74000000000524,
      "v": 127
    },
    {
      "midi": 61,
      "hit": false,
      "t": 109133.64000000086,
      "d": 314.9600000000064,
      "v": 127
    },
    {
      "midi": 59,
      "hit": false,
      "t": 109133.64000000086,
      "d": 314.9600000000064,
      "v": 127
    },
    {
      "midi": 63,
      "hit": false,
      "t": 109251.7500000002,
      "d": 78.74000000000524,
      "v": 127
    },
    {
      "midi": 51,
      "hit": false,
      "t": 109251.7500000002,
      "d": 78.74000000000524,
      "v": 127
    },
    {
      "midi": 52,
      "hit": false,
      "t": 109369.86000000002,
      "d": 78.74000000000524,
      "v": 118
    },
    {
      "midi": 44,
      "hit": false,
      "t": 109369.86000000016,
      "d": 157.47999999999593,
      "v": 127
    },
    {
      "midi": 61,
      "hit": false,
      "t": 109369.8600000002,
      "d": 157.47999999999593,
      "v": 127
    },
    {
      "midi": 49,
      "hit": false,
      "t": 109369.8600000002,
      "d": 157.47999999999593,
      "v": 127
    },
    {
      "midi": 52,
      "hit": false,
      "t": 109369.86000000086,
      "d": 157.48000000001048,
      "v": 127
    },
    {
      "midi": 37,
      "hit": false,
      "t": 109606.08000000016,
      "d": 157.47999999999593,
      "v": 127
    },
    {
      "midi": 61,
      "hit": false,
      "t": 109606.0800000002,
      "d": 157.47999999999593,
      "v": 127
    },
    {
      "midi": 49,
      "hit": false,
      "t": 109606.0800000002,
      "d": 157.47999999999593,
      "v": 127
    },
    {
      "midi": 49,
      "hit": false,
      "t": 109606.08000000087,
      "d": 157.47999999999593,
      "v": 127
    },
    {
      "midi": 44,
      "hit": false,
      "t": 109842.30000000002,
      "d": 157.47999999999593,
      "v": 118
    },
    {
      "midi": 68,
      "hit": false,
      "t": 109842.30000000005,
      "d": 157.47999999999593,
      "v": 127
    },
    {
      "midi": 68,
      "hit": false,
      "t": 109842.30000000012,
      "d": 157.47999999999593,
      "v": 127
    },
    {
      "midi": 37,
      "hit": false,
      "t": 109842.30000000016,
      "d": 157.47999999999593,
      "v": 127
    },
    {
      "midi": 61,
      "hit": false,
      "t": 109842.3000000002,
      "d": 157.47999999999593,
      "v": 127
    },
    {
      "midi": 49,
      "hit": false,
      "t": 109842.3000000002,
      "d": 157.47999999999593,
      "v": 127
    },
    {
      "midi": 36,
      "hit": false,
      "t": 109842.30000000088,
      "d": 157.48000000001048,
      "v": 127
    },
    {
      "midi": 44,
      "hit": false,
      "t": 110078.52000000002,
      "d": 157.47999999999593,
      "v": 118
    },
    {
      "midi": 68,
      "hit": false,
      "t": 110078.52000000005,
      "d": 157.47999999999593,
      "v": 127
    },
    {
      "midi": 68,
      "hit": false,
      "t": 110078.52000000012,
      "d": 157.47999999999593,
      "v": 127
    },
    {
      "midi": 49,
      "hit": false,
      "t": 110078.52000000016,
      "d": 314.9600000000064,
      "v": 127
    },
    {
      "midi": 61,
      "hit": false,
      "t": 110078.52000000021,
      "d": 157.47999999999593,
      "v": 127
    },
    {
      "midi": 49,
      "hit": false,
      "t": 110078.52000000021,
      "d": 157.47999999999593,
      "v": 127
    },
    {
      "midi": 34,
      "hit": false,
      "t": 110078.52000000089,
      "d": 157.47999999999593,
      "v": 127
    },
    {
      "midi": 61,
      "hit": false,
      "t": 110078.52000000089,
      "d": 314.9600000000064,
      "v": 127
    },
    {
      "midi": 52,
      "hit": false,
      "t": 110314.74000000002,
      "d": 236.22000000000116,
      "v": 118
    },
    {
      "midi": 64,
      "hit": false,
      "t": 110314.74000000005,
      "d": 78.74000000000524,
      "v": 127
    },
    {
      "midi": 64,
      "hit": false,
      "t": 110314.74000000012,
      "d": 78.74000000000524,
      "v": 127
    },
    {
      "midi": 59,
      "hit": false,
      "t": 110314.74000000021,
      "d": 78.74000000000524,
      "v": 127
    },
    {
      "midi": 47,
      "hit": false,
      "t": 110314.74000000021,
      "d": 78.74000000000524,
      "v": 127
    },
    {
      "midi": 52,
      "hit": false,
      "t": 110314.7400000009,
      "d": 157.48000000001048,
      "v": 127
    },
    {
      "midi": 68,
      "hit": false,
      "t": 110432.85000000005,
      "d": 236.22000000000116,
      "v": 127
    },
    {
      "midi": 68,
      "hit": false,
      "t": 110432.85000000012,
      "d": 236.22000000000116,
      "v": 127
    },
    {
      "midi": 47,
      "hit": false,
      "t": 110432.85000000017,
      "d": 157.47999999999593,
      "v": 127
    },
    {
      "midi": 60,
      "hit": false,
      "t": 110432.85000000021,
      "d": 78.74000000000524,
      "v": 127
    },
    {
      "midi": 48,
      "hit": false,
      "t": 110432.85000000021,
      "d": 78.74000000000524,
      "v": 127
    },
    {
      "midi": 44,
      "hit": false,
      "t": 110550.96000000002,
      "d": 236.22000000000116,
      "v": 118
    },
    {
      "midi": 66,
      "hit": false,
      "t": 110550.96000000005,
      "d": 78.74000000000524,
      "v": 127
    },
    {
      "midi": 66,
      "hit": false,
      "t": 110550.96000000012,
      "d": 78.74000000000524,
      "v": 127
    },
    {
      "midi": 61,
      "hit": false,
      "t": 110550.96000000021,
      "d": 78.74000000000524,
      "v": 127
    },
    {
      "midi": 49,
      "hit": false,
      "t": 110550.96000000021,
      "d": 78.74000000000524,
      "v": 127
    },
    {
      "midi": 50,
      "hit": false,
      "t": 110550.96000000091,
      "d": 236.22000000000116,
      "v": 127
    },
    {
      "midi": 49,
      "hit": false,
      "t": 110550.96000000091,
      "d": 314.9600000000064,
      "v": 127
    },
    {
      "midi": 66,
      "hit": false,
      "t": 110669.07000000005,
      "d": 78.74000000000524,
      "v": 127
    },
    {
      "midi": 65,
      "hit": false,
      "t": 110669.07000000005,
      "d": 78.74000000000524,
      "v": 127
    },
    {
      "midi": 66,
      "hit": false,
      "t": 110669.07000000012,
      "d": 78.74000000000524,
      "v": 127
    },
    {
      "midi": 65,
      "hit": false,
      "t": 110669.07000000012,
      "d": 78.74000000000524,
      "v": 127
    },
    {
      "midi": 47,
      "hit": false,
      "t": 110669.07000000017,
      "d": 157.47999999999593,
      "v": 127
    },
    {
      "midi": 61,
      "hit": false,
      "t": 110669.07000000021,
      "d": 78.74000000000524,
      "v": 127
    },
    {
      "midi": 49,
      "hit": false,
      "t": 110669.07000000021,
      "d": 78.74000000000524,
      "v": 127
    },
    {
      "midi": 67,
      "hit": false,
      "t": 110787.18000000005,
      "d": 78.74000000000524,
      "v": 127
    },
    {
      "midi": 66,
      "hit": false,
      "t": 110787.18000000005,
      "d": 472.4400000000023,
      "v": 127
    },
    {
      "midi": 67,
      "hit": false,
      "t": 110787.18000000012,
      "d": 78.74000000000524,
      "v": 127
    },
    {
      "midi": 66,
      "hit": false,
      "t": 110787.18000000012,
      "d": 472.4400000000169,
      "v": 127
    },
    {
      "midi": 61,
      "hit": false,
      "t": 110787.18000000021,
      "d": 78.74000000000524,
      "v": 127
    },
    {
      "midi": 49,
      "hit": false,
      "t": 110787.18000000021,
      "d": 78.74000000000524,
      "v": 127
    },
    {
      "midi": 44,
      "hit": false,
      "t": 110905.29000000002,
      "d": 236.22000000000116,
      "v": 118
    },
    {
      "midi": 68,
      "hit": false,
      "t": 110905.29000000005,
      "d": 157.47999999999593,
      "v": 127
    },
    {
      "midi": 68,
      "hit": false,
      "t": 110905.29000000014,
      "d": 157.47999999999593,
      "v": 127
    },
    {
      "midi": 44,
      "hit": false,
      "t": 110905.29000000017,
      "d": 78.74000000000524,
      "v": 127
    },
    {
      "midi": 61,
      "hit": false,
      "t": 110905.29000000021,
      "d": 78.74000000000524,
      "v": 127
    },
    {
      "midi": 49,
      "hit": false,
      "t": 110905.29000000021,
      "d": 78.74000000000524,
      "v": 127
    },
    {
      "midi": 50,
      "hit": false,
      "t": 110905.29000000091,
      "d": 236.22000000000116,
      "v": 127
    },
    {
      "midi": 47,
      "hit": false,
      "t": 111023.40000000017,
      "d": 157.47999999999593,
      "v": 127
    },
    {
      "midi": 64,
      "hit": false,
      "t": 111023.40000000021,
      "d": 78.74000000000524,
      "v": 127
    },
    {
      "midi": 52,
      "hit": false,
      "t": 111023.40000000021,
      "d": 78.74000000000524,
      "v": 127
    },
    {
      "midi": 61,
      "hit": false,
      "t": 111023.40000000091,
      "d": 314.9600000000064,
      "v": 127
    },
    {
      "midi": 59,
      "hit": false,
      "t": 111023.40000000091,
      "d": 314.9600000000064,
      "v": 127
    },
    {
      "midi": 68,
      "hit": false,
      "t": 111141.51000000005,
      "d": 78.74000000000524,
      "v": 127
    },
    {
      "midi": 68,
      "hit": false,
      "t": 111141.51000000014,
      "d": 78.74000000000524,
      "v": 127
    },
    {
      "midi": 63,
      "hit": false,
      "t": 111141.51000000021,
      "d": 78.74000000000524,
      "v": 127
    },
    {
      "midi": 51,
      "hit": false,
      "t": 111141.51000000021,
      "d": 78.74000000000524,
      "v": 127
    },
    {
      "midi": 52,
      "hit": false,
      "t": 111259.62000000002,
      "d": 78.74000000000524,
      "v": 118
    },
    {
      "midi": 64,
      "hit": false,
      "t": 111259.62000000005,
      "d": 157.47999999999593,
      "v": 127
    },
    {
      "midi": 64,
      "hit": false,
      "t": 111259.62000000014,
      "d": 157.47999999999593,
      "v": 127
    },
    {
      "midi": 49,
      "hit": false,
      "t": 111259.62000000017,
      "d": 157.47999999999593,
      "v": 127
    },
    {
      "midi": 61,
      "hit": false,
      "t": 111259.62000000021,
      "d": 157.47999999999593,
      "v": 127
    },
    {
      "midi": 49,
      "hit": false,
      "t": 111259.62000000021,
      "d": 157.47999999999593,
      "v": 127
    },
    {
      "midi": 52,
      "hit": false,
      "t": 111259.62000000091,
      "d": 157.48000000001048,
      "v": 127
    },
    {
      "midi": 85,
      "hit": false,
      "t": 111495.84000000005,
      "d": 236.22000000000116,
      "v": 127
    },
    {
      "midi": 80,
      "hit": false,
      "t": 111495.84000000005,
      "d": 236.22000000000116,
      "v": 127
    },
    {
      "midi": 68,
      "hit": false,
      "t": 111495.84000000005,
      "d": 236.22000000000116,
      "v": 127
    },
    {
      "midi": 68,
      "hit": false,
      "t": 111495.84000000014,
      "d": 236.22000000000116,
      "v": 127
    },
    {
      "midi": 85,
      "hit": false,
      "t": 111495.84000000014,
      "d": 236.22000000000116,
      "v": 127
    },
    {
      "midi": 80,
      "hit": false,
      "t": 111495.84000000014,
      "d": 236.22000000000116,
      "v": 127
    },
    {
      "midi": 37,
      "hit": false,
      "t": 111495.84000000017,
      "d": 157.47999999999593,
      "v": 127
    },
    {
      "midi": 61,
      "hit": false,
      "t": 111495.84000000021,
      "d": 157.47999999999593,
      "v": 127
    },
    {
      "midi": 49,
      "hit": false,
      "t": 111495.84000000021,
      "d": 157.47999999999593,
      "v": 127
    },
    {
      "midi": 49,
      "hit": false,
      "t": 111495.84000000093,
      "d": 157.47999999999593,
      "v": 127
    },
    {
      "midi": 44,
      "hit": false,
      "t": 111732.06000000003,
      "d": 157.47999999999593,
      "v": 118
    },
    {
      "midi": 68,
      "hit": false,
      "t": 111732.06000000006,
      "d": 157.47999999999593,
      "v": 127
    },
    {
      "midi": 68,
      "hit": false,
      "t": 111732.06000000014,
      "d": 157.47999999999593,
      "v": 127
    },
    {
      "midi": 37,
      "hit": false,
      "t": 111732.06000000017,
      "d": 157.47999999999593,
      "v": 127
    },
    {
      "midi": 61,
      "hit": false,
      "t": 111732.06000000022,
      "d": 157.47999999999593,
      "v": 127
    },
    {
      "midi": 49,
      "hit": false,
      "t": 111732.06000000022,
      "d": 157.47999999999593,
      "v": 127
    },
    {
      "midi": 36,
      "hit": false,
      "t": 111732.06000000093,
      "d": 157.48000000001048,
      "v": 127
    },
    {
      "midi": 44,
      "hit": false,
      "t": 111968.28000000003,
      "d": 157.47999999999593,
      "v": 118
    },
    {
      "midi": 68,
      "hit": false,
      "t": 111968.28000000006,
      "d": 157.47999999999593,
      "v": 127
    },
    {
      "midi": 68,
      "hit": false,
      "t": 111968.28000000014,
      "d": 157.47999999999593,
      "v": 127
    },
    {
      "midi": 49,
      "hit": false,
      "t": 111968.28000000017,
      "d": 314.9600000000064,
      "v": 127
    },
    {
      "midi": 61,
      "hit": false,
      "t": 111968.28000000022,
      "d": 157.47999999999593,
      "v": 127
    },
    {
      "midi": 49,
      "hit": false,
      "t": 111968.28000000022,
      "d": 157.47999999999593,
      "v": 127
    },
    {
      "midi": 34,
      "hit": false,
      "t": 111968.28000000094,
      "d": 157.47999999999593,
      "v": 127
    },
    {
      "midi": 61,
      "hit": false,
      "t": 111968.28000000094,
      "d": 314.9600000000064,
      "v": 127
    },
    {
      "midi": 52,
      "hit": false,
      "t": 112204.50000000003,
      "d": 236.22000000000116,
      "v": 118
    },
    {
      "midi": 64,
      "hit": false,
      "t": 112204.50000000006,
      "d": 78.74000000000524,
      "v": 127
    },
    {
      "midi": 64,
      "hit": false,
      "t": 112204.50000000015,
      "d": 78.74000000000524,
      "v": 127
    },
    {
      "midi": 59,
      "hit": false,
      "t": 112204.50000000022,
      "d": 78.74000000000524,
      "v": 127
    },
    {
      "midi": 47,
      "hit": false,
      "t": 112204.50000000022,
      "d": 78.74000000000524,
      "v": 127
    },
    {
      "midi": 52,
      "hit": false,
      "t": 112204.50000000095,
      "d": 157.48000000001048,
      "v": 127
    },
    {
      "midi": 68,
      "hit": false,
      "t": 112322.61000000006,
      "d": 236.22000000000116,
      "v": 127
    },
    {
      "midi": 68,
      "hit": false,
      "t": 112322.61000000015,
      "d": 236.22000000000116,
      "v": 127
    },
    {
      "midi": 47,
      "hit": false,
      "t": 112322.61000000018,
      "d": 157.47999999999593,
      "v": 127
    },
    {
      "midi": 60,
      "hit": false,
      "t": 112322.61000000022,
      "d": 78.74000000000524,
      "v": 127
    },
    {
      "midi": 48,
      "hit": false,
      "t": 112322.61000000022,
      "d": 78.74000000000524,
      "v": 127
    },
    {
      "midi": 44,
      "hit": false,
      "t": 112440.72000000003,
      "d": 236.22000000000116,
      "v": 118
    },
    {
      "midi": 61,
      "hit": false,
      "t": 112440.72000000022,
      "d": 78.74000000000524,
      "v": 127
    },
    {
      "midi": 49,
      "hit": false,
      "t": 112440.72000000022,
      "d": 78.74000000000524,
      "v": 127
    },
    {
      "midi": 50,
      "hit": false,
      "t": 112440.72000000096,
      "d": 236.22000000000116,
      "v": 127
    },
    {
      "midi": 49,
      "hit": false,
      "t": 112440.72000000096,
      "d": 314.9600000000064,
      "v": 127
    },
    {
      "midi": 59,
      "hit": false,
      "t": 112558.83000000006,
      "d": 157.47999999999593,
      "v": 127
    },
    {
      "midi": 59,
      "hit": false,
      "t": 112558.83000000015,
      "d": 157.47999999999593,
      "v": 127
    },
    {
      "midi": 47,
      "hit": false,
      "t": 112558.83000000018,
      "d": 157.47999999999593,
      "v": 127
    },
    {
      "midi": 61,
      "hit": false,
      "t": 112558.83000000022,
      "d": 78.74000000000524,
      "v": 127
    },
    {
      "midi": 49,
      "hit": false,
      "t": 112558.83000000022,
      "d": 78.74000000000524,
      "v": 127
    },
    {
      "midi": 61,
      "hit": false,
      "t": 112676.94000000022,
      "d": 78.74000000000524,
      "v": 127
    },
    {
      "midi": 49,
      "hit": false,
      "t": 112676.94000000022,
      "d": 78.74000000000524,
      "v": 127
    },
    {
      "midi": 44,
      "hit": false,
      "t": 112795.05000000003,
      "d": 236.22000000000116,
      "v": 118
    },
    {
      "midi": 59,
      "hit": false,
      "t": 112795.05000000006,
      "d": 78.74000000000524,
      "v": 127
    },
    {
      "midi": 59,
      "hit": false,
      "t": 112795.05000000015,
      "d": 78.74000000000524,
      "v": 127
    },
    {
      "midi": 44,
      "hit": false,
      "t": 112795.05000000018,
      "d": 78.74000000000524,
      "v": 127
    },
    {
      "midi": 61,
      "hit": false,
      "t": 112795.05000000022,
      "d": 78.74000000000524,
      "v": 127
    },
    {
      "midi": 49,
      "hit": false,
      "t": 112795.05000000022,
      "d": 78.74000000000524,
      "v": 127
    },
    {
      "midi": 50,
      "hit": false,
      "t": 112795.05000000096,
      "d": 236.22000000000116,
      "v": 127
    },
    {
      "midi": 60,
      "hit": false,
      "t": 112913.16000000006,
      "d": 157.47999999999593,
      "v": 127
    },
    {
      "midi": 60,
      "hit": false,
      "t": 112913.16000000015,
      "d": 157.47999999999593,
      "v": 127
    },
    {
      "midi": 42,
      "hit": false,
      "t": 112913.16000000018,
      "d": 157.47999999999593,
      "v": 127
    },
    {
      "midi": 64,
      "hit": false,
      "t": 112913.16000000022,
      "d": 78.74000000000524,
      "v": 127
    },
    {
      "midi": 52,
      "hit": false,
      "t": 112913.16000000022,
      "d": 78.74000000000524,
      "v": 127
    },
    {
      "midi": 61,
      "hit": false,
      "t": 112913.16000000096,
      "d": 314.9600000000064,
      "v": 127
    },
    {
      "midi": 59,
      "hit": false,
      "t": 112913.16000000096,
      "d": 314.9600000000064,
      "v": 127
    },
    {
      "midi": 63,
      "hit": false,
      "t": 113031.27000000022,
      "d": 78.74000000000524,
      "v": 127
    },
    {
      "midi": 51,
      "hit": false,
      "t": 113031.27000000022,
      "d": 78.74000000000524,
      "v": 127
    },
    {
      "midi": 52,
      "hit": false,
      "t": 113149.38000000003,
      "d": 78.74000000000524,
      "v": 118
    },
    {
      "midi": 61,
      "hit": false,
      "t": 113149.38000000006,
      "d": 157.47999999999593,
      "v": 127
    },
    {
      "midi": 61,
      "hit": false,
      "t": 113149.38000000015,
      "d": 157.47999999999593,
      "v": 127
    },
    {
      "midi": 44,
      "hit": false,
      "t": 113149.38000000018,
      "d": 157.47999999999593,
      "v": 127
    },
    {
      "midi": 61,
      "hit": false,
      "t": 113149.38000000022,
      "d": 157.47999999999593,
      "v": 127
    },
    {
      "midi": 49,
      "hit": false,
      "t": 113149.38000000022,
      "d": 157.47999999999593,
      "v": 127
    },
    {
      "midi": 52,
      "hit": false,
      "t": 113149.38000000097,
      "d": 157.48000000001048,
      "v": 127
    },
    {
      "midi": 37,
      "hit": false,
      "t": 113385.60000000018,
      "d": 157.47999999999593,
      "v": 127
    },
    {
      "midi": 61,
      "hit": false,
      "t": 113385.60000000022,
      "d": 157.47999999999593,
      "v": 127
    },
    {
      "midi": 49,
      "hit": false,
      "t": 113385.60000000022,
      "d": 157.47999999999593,
      "v": 127
    },
    {
      "midi": 49,
      "hit": false,
      "t": 113385.60000000098,
      "d": 157.47999999999593,
      "v": 127
    },
    {
      "midi": 44,
      "hit": false,
      "t": 113621.82000000004,
      "d": 157.47999999999593,
      "v": 118
    },
    {
      "midi": 68,
      "hit": false,
      "t": 113621.82000000007,
      "d": 157.47999999999593,
      "v": 127
    },
    {
      "midi": 68,
      "hit": false,
      "t": 113621.82000000015,
      "d": 78.74000000000524,
      "v": 127
    },
    {
      "midi": 37,
      "hit": false,
      "t": 113621.82000000018,
      "d": 157.47999999999593,
      "v": 127
    },
    {
      "midi": 61,
      "hit": false,
      "t": 113621.82000000023,
      "d": 157.47999999999593,
      "v": 127
    },
    {
      "midi": 49,
      "hit": false,
      "t": 113621.82000000023,
      "d": 157.47999999999593,
      "v": 127
    },
    {
      "midi": 36,
      "hit": false,
      "t": 113621.82000000098,
      "d": 157.48000000001048,
      "v": 127
    },
    {
      "midi": 44,
      "hit": false,
      "t": 113858.04000000004,
      "d": 157.47999999999593,
      "v": 118
    },
    {
      "midi": 68,
      "hit": false,
      "t": 113858.04000000007,
      "d": 157.47999999999593,
      "v": 127
    },
    {
      "midi": 68,
      "hit": false,
      "t": 113858.04000000017,
      "d": 157.47999999999593,
      "v": 127
    },
    {
      "midi": 49,
      "hit": false,
      "t": 113858.04000000018,
      "d": 314.9600000000064,
      "v": 127
    },
    {
      "midi": 61,
      "hit": false,
      "t": 113858.04000000023,
      "d": 157.47999999999593,
      "v": 127
    },
    {
      "midi": 49,
      "hit": false,
      "t": 113858.04000000023,
      "d": 157.47999999999593,
      "v": 127
    },
    {
      "midi": 34,
      "hit": false,
      "t": 113858.040000001,
      "d": 157.47999999999593,
      "v": 127
    },
    {
      "midi": 61,
      "hit": false,
      "t": 113858.040000001,
      "d": 314.9600000000064,
      "v": 127
    },
    {
      "midi": 52,
      "hit": false,
      "t": 114094.26000000004,
      "d": 236.22000000000116,
      "v": 118
    },
    {
      "midi": 64,
      "hit": false,
      "t": 114094.26000000007,
      "d": 78.74000000000524,
      "v": 127
    },
    {
      "midi": 64,
      "hit": false,
      "t": 114094.26000000017,
      "d": 78.74000000000524,
      "v": 127
    },
    {
      "midi": 59,
      "hit": false,
      "t": 114094.26000000023,
      "d": 78.74000000000524,
      "v": 127
    },
    {
      "midi": 47,
      "hit": false,
      "t": 114094.26000000023,
      "d": 78.74000000000524,
      "v": 127
    },
    {
      "midi": 52,
      "hit": false,
      "t": 114094.260000001,
      "d": 157.48000000001048,
      "v": 127
    },
    {
      "midi": 68,
      "hit": false,
      "t": 114212.37000000007,
      "d": 236.22000000000116,
      "v": 127
    },
    {
      "midi": 68,
      "hit": false,
      "t": 114212.37000000017,
      "d": 236.22000000000116,
      "v": 127
    },
    {
      "midi": 47,
      "hit": false,
      "t": 114212.37000000018,
      "d": 157.47999999999593,
      "v": 127
    },
    {
      "midi": 60,
      "hit": false,
      "t": 114212.37000000023,
      "d": 78.74000000000524,
      "v": 127
    },
    {
      "midi": 48,
      "hit": false,
      "t": 114212.37000000023,
      "d": 78.74000000000524,
      "v": 127
    },
    {
      "midi": 44,
      "hit": false,
      "t": 114330.48000000004,
      "d": 236.22000000000116,
      "v": 118
    },
    {
      "midi": 61,
      "hit": false,
      "t": 114330.48000000023,
      "d": 78.74000000000524,
      "v": 127
    },
    {
      "midi": 49,
      "hit": false,
      "t": 114330.48000000023,
      "d": 78.74000000000524,
      "v": 127
    },
    {
      "midi": 50,
      "hit": false,
      "t": 114330.48000000101,
      "d": 236.22000000000116,
      "v": 127
    },
    {
      "midi": 49,
      "hit": false,
      "t": 114330.48000000101,
      "d": 314.9600000000064,
      "v": 127
    },
    {
      "midi": 64,
      "hit": false,
      "t": 114448.59000000007,
      "d": 78.74000000000524,
      "v": 127
    },
    {
      "midi": 64,
      "hit": false,
      "t": 114448.59000000017,
      "d": 78.74000000000524,
      "v": 127
    },
    {
      "midi": 47,
      "hit": false,
      "t": 114448.59000000019,
      "d": 157.47999999999593,
      "v": 127
    },
    {
      "midi": 61,
      "hit": false,
      "t": 114448.59000000023,
      "d": 78.74000000000524,
      "v": 127
    },
    {
      "midi": 49,
      "hit": false,
      "t": 114448.59000000023,
      "d": 78.74000000000524,
      "v": 127
    },
    {
      "midi": 68,
      "hit": false,
      "t": 114566.70000000007,
      "d": 157.47999999999593,
      "v": 127
    },
    {
      "midi": 68,
      "hit": false,
      "t": 114566.70000000017,
      "d": 157.47999999999593,
      "v": 127
    },
    {
      "midi": 61,
      "hit": false,
      "t": 114566.70000000023,
      "d": 78.74000000000524,
      "v": 127
    },
    {
      "midi": 49,
      "hit": false,
      "t": 114566.70000000023,
      "d": 78.74000000000524,
      "v": 127
    },
    {
      "midi": 44,
      "hit": false,
      "t": 114684.81000000004,
      "d": 236.22000000000116,
      "v": 118
    },
    {
      "midi": 44,
      "hit": false,
      "t": 114684.81000000019,
      "d": 78.74000000000524,
      "v": 127
    },
    {
      "midi": 61,
      "hit": false,
      "t": 114684.81000000023,
      "d": 78.74000000000524,
      "v": 127
    },
    {
      "midi": 49,
      "hit": false,
      "t": 114684.81000000023,
      "d": 78.74000000000524,
      "v": 127
    },
    {
      "midi": 50,
      "hit": false,
      "t": 114684.81000000102,
      "d": 236.22000000000116,
      "v": 127
    },
    {
      "midi": 64,
      "hit": false,
      "t": 114802.92000000007,
      "d": 78.74000000000524,
      "v": 127
    },
    {
      "midi": 64,
      "hit": false,
      "t": 114802.92000000017,
      "d": 78.74000000000524,
      "v": 127
    },
    {
      "midi": 47,
      "hit": false,
      "t": 114802.92000000019,
      "d": 157.47999999999593,
      "v": 127
    },
    {
      "midi": 64,
      "hit": false,
      "t": 114802.92000000023,
      "d": 78.74000000000524,
      "v": 127
    },
    {
      "midi": 52,
      "hit": false,
      "t": 114802.92000000023,
      "d": 78.74000000000524,
      "v": 127
    },
    {
      "midi": 61,
      "hit": false,
      "t": 114802.92000000102,
      "d": 314.9600000000064,
      "v": 127
    },
    {
      "midi": 59,
      "hit": false,
      "t": 114802.92000000102,
      "d": 314.9600000000064,
      "v": 127
    },
    {
      "midi": 68,
      "hit": false,
      "t": 114921.03000000007,
      "d": 157.47999999999593,
      "v": 127
    },
    {
      "midi": 68,
      "hit": false,
      "t": 114921.03000000017,
      "d": 157.47999999999593,
      "v": 127
    },
    {
      "midi": 63,
      "hit": false,
      "t": 114921.03000000023,
      "d": 78.74000000000524,
      "v": 127
    },
    {
      "midi": 51,
      "hit": false,
      "t": 114921.03000000023,
      "d": 78.74000000000524,
      "v": 127
    },
    {
      "midi": 52,
      "hit": false,
      "t": 115039.14000000004,
      "d": 78.74000000000524,
      "v": 118
    },
    {
      "midi": 66,
      "hit": false,
      "t": 115039.14000000007,
      "d": 78.73999999999069,
      "v": 127
    },
    {
      "midi": 66,
      "hit": false,
      "t": 115039.14000000017,
      "d": 78.73999999999069,
      "v": 127
    },
    {
      "midi": 73,
      "hit": false,
      "t": 115039.14000000017,
      "d": 157.47999999999593,
      "v": 127
    },
    {
      "midi": 49,
      "hit": false,
      "t": 115039.14000000019,
      "d": 157.47999999999593,
      "v": 127
    },
    {
      "midi": 61,
      "hit": false,
      "t": 115039.14000000023,
      "d": 157.47999999999593,
      "v": 127
    },
    {
      "midi": 49,
      "hit": false,
      "t": 115039.14000000023,
      "d": 157.47999999999593,
      "v": 127
    },
    {
      "midi": 52,
      "hit": false,
      "t": 115039.14000000102,
      "d": 157.48000000001048,
      "v": 127
    },
    {
      "midi": 68,
      "hit": false,
      "t": 115275.36000000006,
      "d": 157.47999999999593,
      "v": 127
    },
    {
      "midi": 85,
      "hit": false,
      "t": 115275.36000000006,
      "d": 236.22000000000116,
      "v": 127
    },
    {
      "midi": 73,
      "hit": false,
      "t": 115275.36000000018,
      "d": 157.47999999999593,
      "v": 127
    },
    {
      "midi": 68,
      "hit": false,
      "t": 115275.36000000018,
      "d": 157.47999999999593,
      "v": 127
    },
    {
      "midi": 85,
      "hit": false,
      "t": 115275.36000000018,
      "d": 236.22000000000116,
      "v": 127
    },
    {
      "midi": 37,
      "hit": false,
      "t": 115275.36000000019,
      "d": 157.47999999999593,
      "v": 127
    },
    {
      "midi": 61,
      "hit": false,
      "t": 115275.36000000023,
      "d": 157.47999999999593,
      "v": 127
    },
    {
      "midi": 49,
      "hit": false,
      "t": 115275.36000000023,
      "d": 157.47999999999593,
      "v": 127
    },
    {
      "midi": 49,
      "hit": false,
      "t": 115275.36000000103,
      "d": 157.47999999999593,
      "v": 127
    },
    {
      "midi": 44,
      "hit": false,
      "t": 115511.58000000005,
      "d": 157.47999999999593,
      "v": 118
    },
    {
      "midi": 85,
      "hit": false,
      "t": 115511.58000000006,
      "d": 157.47999999999593,
      "v": 127
    },
    {
      "midi": 68,
      "hit": false,
      "t": 115511.58000000006,
      "d": 157.47999999999593,
      "v": 127
    },
    {
      "midi": 68,
      "hit": false,
      "t": 115511.58000000018,
      "d": 157.47999999999593,
      "v": 127
    },
    {
      "midi": 85,
      "hit": false,
      "t": 115511.58000000018,
      "d": 157.47999999999593,
      "v": 127
    },
    {
      "midi": 37,
      "hit": false,
      "t": 115511.58000000019,
      "d": 157.47999999999593,
      "v": 127
    },
    {
      "midi": 61,
      "hit": false,
      "t": 115511.58000000023,
      "d": 157.47999999999593,
      "v": 127
    },
    {
      "midi": 49,
      "hit": false,
      "t": 115511.58000000023,
      "d": 157.47999999999593,
      "v": 127
    },
    {
      "midi": 36,
      "hit": false,
      "t": 115511.58000000103,
      "d": 157.48000000001048,
      "v": 127
    },
    {
      "midi": 44,
      "hit": false,
      "t": 115747.80000000005,
      "d": 157.47999999999593,
      "v": 118
    },
    {
      "midi": 85,
      "hit": false,
      "t": 115747.80000000006,
      "d": 157.47999999999593,
      "v": 127
    },
    {
      "midi": 68,
      "hit": false,
      "t": 115747.80000000006,
      "d": 157.47999999999593,
      "v": 127
    },
    {
      "midi": 68,
      "hit": false,
      "t": 115747.80000000018,
      "d": 157.47999999999593,
      "v": 127
    },
    {
      "midi": 85,
      "hit": false,
      "t": 115747.80000000018,
      "d": 157.47999999999593,
      "v": 127
    },
    {
      "midi": 49,
      "hit": false,
      "t": 115747.80000000019,
      "d": 314.9600000000064,
      "v": 127
    },
    {
      "midi": 61,
      "hit": false,
      "t": 115747.80000000024,
      "d": 157.47999999999593,
      "v": 127
    },
    {
      "midi": 49,
      "hit": false,
      "t": 115747.80000000024,
      "d": 157.47999999999593,
      "v": 127
    },
    {
      "midi": 34,
      "hit": false,
      "t": 115747.80000000105,
      "d": 157.47999999999593,
      "v": 127
    },
    {
      "midi": 61,
      "hit": false,
      "t": 115747.80000000105,
      "d": 314.9600000000064,
      "v": 127
    },
    {
      "midi": 52,
      "hit": false,
      "t": 115984.02000000005,
      "d": 236.22000000000116,
      "v": 118
    },
    {
      "midi": 80,
      "hit": false,
      "t": 115984.02000000006,
      "d": 78.74000000000524,
      "v": 127
    },
    {
      "midi": 64,
      "hit": false,
      "t": 115984.02000000006,
      "d": 157.47999999999593,
      "v": 127
    },
    {
      "midi": 80,
      "hit": false,
      "t": 115984.02000000018,
      "d": 78.74000000000524,
      "v": 127
    },
    {
      "midi": 64,
      "hit": false,
      "t": 115984.02000000018,
      "d": 157.47999999999593,
      "v": 127
    },
    {
      "midi": 59,
      "hit": false,
      "t": 115984.02000000024,
      "d": 78.74000000000524,
      "v": 127
    },
    {
      "midi": 47,
      "hit": false,
      "t": 115984.02000000024,
      "d": 78.74000000000524,
      "v": 127
    },
    {
      "midi": 52,
      "hit": false,
      "t": 115984.02000000105,
      "d": 157.48000000001048,
      "v": 127
    },
    {
      "midi": 85,
      "hit": false,
      "t": 116102.13000000006,
      "d": 157.47999999999593,
      "v": 127
    },
    {
      "midi": 68,
      "hit": false,
      "t": 116102.13000000006,
      "d": 157.47999999999593,
      "v": 127
    },
    {
      "midi": 68,
      "hit": false,
      "t": 116102.13000000018,
      "d": 157.47999999999593,
      "v": 127
    },
    {
      "midi": 85,
      "hit": false,
      "t": 116102.13000000018,
      "d": 157.47999999999593,
      "v": 127
    },
    {
      "midi": 47,
      "hit": false,
      "t": 116102.1300000002,
      "d": 157.47999999999593,
      "v": 127
    },
    {
      "midi": 60,
      "hit": false,
      "t": 116102.13000000024,
      "d": 78.74000000000524,
      "v": 127
    },
    {
      "midi": 48,
      "hit": false,
      "t": 116102.13000000024,
      "d": 78.74000000000524,
      "v": 127
    },
    {
      "midi": 44,
      "hit": false,
      "t": 116220.24000000005,
      "d": 236.22000000000116,
      "v": 118
    },
    {
      "midi": 61,
      "hit": false,
      "t": 116220.24000000024,
      "d": 78.74000000000524,
      "v": 127
    },
    {
      "midi": 49,
      "hit": false,
      "t": 116220.24000000024,
      "d": 78.74000000000524,
      "v": 127
    },
    {
      "midi": 50,
      "hit": false,
      "t": 116220.24000000107,
      "d": 236.22000000000116,
      "v": 127
    },
    {
      "midi": 49,
      "hit": false,
      "t": 116220.24000000107,
      "d": 314.9600000000064,
      "v": 127
    },
    {
      "midi": 59,
      "hit": false,
      "t": 116338.35000000006,
      "d": 157.47999999999593,
      "v": 127
    },
    {
      "midi": 59,
      "hit": false,
      "t": 116338.35000000018,
      "d": 157.47999999999593,
      "v": 127
    },
    {
      "midi": 47,
      "hit": false,
      "t": 116338.3500000002,
      "d": 157.47999999999593,
      "v": 127
    },
    {
      "midi": 61,
      "hit": false,
      "t": 116338.35000000024,
      "d": 78.74000000000524,
      "v": 127
    },
    {
      "midi": 49,
      "hit": false,
      "t": 116338.35000000024,
      "d": 78.74000000000524,
      "v": 127
    },
    {
      "midi": 61,
      "hit": false,
      "t": 116456.46000000024,
      "d": 78.74000000000524,
      "v": 127
    },
    {
      "midi": 49,
      "hit": false,
      "t": 116456.46000000024,
      "d": 78.74000000000524,
      "v": 127
    },
    {
      "midi": 44,
      "hit": false,
      "t": 116574.57000000005,
      "d": 236.22000000000116,
      "v": 118
    },
    {
      "midi": 59,
      "hit": false,
      "t": 116574.57000000007,
      "d": 78.74000000000524,
      "v": 127
    },
    {
      "midi": 59,
      "hit": false,
      "t": 116574.57000000018,
      "d": 78.74000000000524,
      "v": 127
    },
    {
      "midi": 44,
      "hit": false,
      "t": 116574.5700000002,
      "d": 78.74000000000524,
      "v": 127
    },
    {
      "midi": 61,
      "hit": false,
      "t": 116574.57000000024,
      "d": 78.74000000000524,
      "v": 127
    },
    {
      "midi": 49,
      "hit": false,
      "t": 116574.57000000024,
      "d": 78.74000000000524,
      "v": 127
    },
    {
      "midi": 50,
      "hit": false,
      "t": 116574.57000000107,
      "d": 236.22000000000116,
      "v": 127
    },
    {
      "midi": 60,
      "hit": false,
      "t": 116692.68000000007,
      "d": 157.47999999999593,
      "v": 127
    },
    {
      "midi": 60,
      "hit": false,
      "t": 116692.68000000018,
      "d": 157.47999999999593,
      "v": 127
    },
    {
      "midi": 42,
      "hit": false,
      "t": 116692.6800000002,
      "d": 157.47999999999593,
      "v": 127
    },
    {
      "midi": 64,
      "hit": false,
      "t": 116692.68000000024,
      "d": 78.74000000000524,
      "v": 127
    },
    {
      "midi": 52,
      "hit": false,
      "t": 116692.68000000024,
      "d": 78.74000000000524,
      "v": 127
    },
    {
      "midi": 61,
      "hit": false,
      "t": 116692.68000000107,
      "d": 314.9600000000064,
      "v": 127
    },
    {
      "midi": 59,
      "hit": false,
      "t": 116692.68000000107,
      "d": 314.9600000000064,
      "v": 127
    },
    {
      "midi": 63,
      "hit": false,
      "t": 116810.79000000024,
      "d": 78.74000000000524,
      "v": 127
    },
    {
      "midi": 51,
      "hit": false,
      "t": 116810.79000000024,
      "d": 78.74000000000524,
      "v": 127
    },
    {
      "midi": 52,
      "hit": false,
      "t": 116928.90000000005,
      "d": 78.74000000000524,
      "v": 118
    },
    {
      "midi": 61,
      "hit": false,
      "t": 116928.90000000007,
      "d": 157.47999999999593,
      "v": 127
    },
    {
      "midi": 61,
      "hit": false,
      "t": 116928.90000000018,
      "d": 157.47999999999593,
      "v": 127
    },
    {
      "midi": 44,
      "hit": false,
      "t": 116928.9000000002,
      "d": 157.47999999999593,
      "v": 127
    },
    {
      "midi": 61,
      "hit": false,
      "t": 116928.90000000024,
      "d": 157.47999999999593,
      "v": 127
    },
    {
      "midi": 49,
      "hit": false,
      "t": 116928.90000000024,
      "d": 157.47999999999593,
      "v": 127
    },
    {
      "midi": 52,
      "hit": false,
      "t": 116928.90000000107,
      "d": 157.48000000001048,
      "v": 127
    },
    {
      "midi": 37,
      "hit": false,
      "t": 117165.1200000002,
      "d": 157.47999999999593,
      "v": 127
    },
    {
      "midi": 61,
      "hit": false,
      "t": 117165.12000000024,
      "d": 157.47999999999593,
      "v": 127
    },
    {
      "midi": 49,
      "hit": false,
      "t": 117165.12000000024,
      "d": 157.47999999999593,
      "v": 127
    },
    {
      "midi": 49,
      "hit": false,
      "t": 117165.12000000109,
      "d": 157.47999999999593,
      "v": 127
    },
    {
      "midi": 44,
      "hit": false,
      "t": 117401.34000000005,
      "d": 157.47999999999593,
      "v": 118
    },
    {
      "midi": 68,
      "hit": false,
      "t": 117401.34000000007,
      "d": 157.47999999999593,
      "v": 127
    },
    {
      "midi": 85,
      "hit": false,
      "t": 117401.34000000007,
      "d": 157.47999999999593,
      "v": 127
    },
    {
      "midi": 68,
      "hit": false,
      "t": 117401.34000000019,
      "d": 157.47999999999593,
      "v": 127
    },
    {
      "midi": 85,
      "hit": false,
      "t": 117401.34000000019,
      "d": 157.47999999999593,
      "v": 127
    },
    {
      "midi": 37,
      "hit": false,
      "t": 117401.3400000002,
      "d": 157.47999999999593,
      "v": 127
    },
    {
      "midi": 61,
      "hit": false,
      "t": 117401.34000000024,
      "d": 157.47999999999593,
      "v": 127
    },
    {
      "midi": 49,
      "hit": false,
      "t": 117401.34000000024,
      "d": 157.47999999999593,
      "v": 127
    },
    {
      "midi": 36,
      "hit": false,
      "t": 117401.34000000109,
      "d": 157.48000000001048,
      "v": 127
    },
    {
      "midi": 44,
      "hit": false,
      "t": 117637.56000000006,
      "d": 157.47999999999593,
      "v": 118
    },
    {
      "midi": 68,
      "hit": false,
      "t": 117637.56000000007,
      "d": 157.47999999999593,
      "v": 127
    },
    {
      "midi": 85,
      "hit": false,
      "t": 117637.56000000007,
      "d": 157.47999999999593,
      "v": 127
    },
    {
      "midi": 68,
      "hit": false,
      "t": 117637.56000000019,
      "d": 157.47999999999593,
      "v": 127
    },
    {
      "midi": 85,
      "hit": false,
      "t": 117637.56000000019,
      "d": 157.47999999999593,
      "v": 127
    },
    {
      "midi": 49,
      "hit": false,
      "t": 117637.5600000002,
      "d": 314.9600000000064,
      "v": 127
    },
    {
      "midi": 61,
      "hit": false,
      "t": 117637.56000000025,
      "d": 157.47999999999593,
      "v": 127
    },
    {
      "midi": 49,
      "hit": false,
      "t": 117637.56000000025,
      "d": 157.47999999999593,
      "v": 127
    },
    {
      "midi": 34,
      "hit": false,
      "t": 117637.5600000011,
      "d": 157.47999999999593,
      "v": 127
    },
    {
      "midi": 61,
      "hit": false,
      "t": 117637.5600000011,
      "d": 314.9600000000064,
      "v": 127
    },
    {
      "midi": 52,
      "hit": false,
      "t": 117873.78000000006,
      "d": 236.22000000000116,
      "v": 118
    },
    {
      "midi": 64,
      "hit": false,
      "t": 117873.78000000007,
      "d": 78.74000000000524,
      "v": 127
    },
    {
      "midi": 80,
      "hit": false,
      "t": 117873.78000000007,
      "d": 78.74000000000524,
      "v": 127
    },
    {
      "midi": 64,
      "hit": false,
      "t": 117873.78000000019,
      "d": 78.74000000000524,
      "v": 127
    },
    {
      "midi": 80,
      "hit": false,
      "t": 117873.78000000019,
      "d": 78.74000000000524,
      "v": 127
    },
    {
      "midi": 59,
      "hit": false,
      "t": 117873.78000000025,
      "d": 78.74000000000524,
      "v": 127
    },
    {
      "midi": 47,
      "hit": false,
      "t": 117873.78000000025,
      "d": 78.74000000000524,
      "v": 127
    },
    {
      "midi": 52,
      "hit": false,
      "t": 117873.7800000011,
      "d": 157.48000000001048,
      "v": 127
    },
    {
      "midi": 85,
      "hit": false,
      "t": 117991.89000000007,
      "d": 157.47999999999593,
      "v": 127
    },
    {
      "midi": 68,
      "hit": false,
      "t": 117991.89000000007,
      "d": 236.2199999999866,
      "v": 127
    },
    {
      "midi": 85,
      "hit": false,
      "t": 117991.89000000019,
      "d": 157.47999999999593,
      "v": 127
    },
    {
      "midi": 68,
      "hit": false,
      "t": 117991.89000000019,
      "d": 236.2199999999866,
      "v": 127
    },
    {
      "midi": 47,
      "hit": false,
      "t": 117991.8900000002,
      "d": 157.47999999999593,
      "v": 127
    },
    {
      "midi": 60,
      "hit": false,
      "t": 117991.89000000025,
      "d": 78.74000000000524,
      "v": 127
    },
    {
      "midi": 48,
      "hit": false,
      "t": 117991.89000000025,
      "d": 78.74000000000524,
      "v": 127
    },
    {
      "midi": 44,
      "hit": false,
      "t": 118110.00000000006,
      "d": 236.22000000000116,
      "v": 118
    },
    {
      "midi": 66,
      "hit": false,
      "t": 118110.00000000007,
      "d": 78.73999999999069,
      "v": 127
    },
    {
      "midi": 66,
      "hit": false,
      "t": 118110.00000000019,
      "d": 78.73999999999069,
      "v": 127
    },
    {
      "midi": 61,
      "hit": false,
      "t": 118110.00000000025,
      "d": 78.74000000000524,
      "v": 127
    },
    {
      "midi": 49,
      "hit": false,
      "t": 118110.00000000025,
      "d": 78.74000000000524,
      "v": 127
    },
    {
      "midi": 50,
      "hit": false,
      "t": 118110.00000000112,
      "d": 236.22000000000116,
      "v": 127
    },
    {
      "midi": 49,
      "hit": false,
      "t": 118110.00000000112,
      "d": 314.9600000000064,
      "v": 127
    },
    {
      "midi": 66,
      "hit": false,
      "t": 118228.11000000006,
      "d": 78.74000000000524,
      "v": 127
    },
    {
      "midi": 66,
      "hit": false,
      "t": 118228.11000000018,
      "d": 78.74000000000524,
      "v": 127
    },
    {
      "midi": 47,
      "hit": false,
      "t": 118228.1100000002,
      "d": 157.47999999999593,
      "v": 127
    },
    {
      "midi": 61,
      "hit": false,
      "t": 118228.11000000025,
      "d": 78.74000000000524,
      "v": 127
    },
    {
      "midi": 49,
      "hit": false,
      "t": 118228.11000000025,
      "d": 78.74000000000524,
      "v": 127
    },
    {
      "midi": 67,
      "hit": false,
      "t": 118346.22000000006,
      "d": 78.74000000000524,
      "v": 127
    },
    {
      "midi": 67,
      "hit": false,
      "t": 118346.22000000018,
      "d": 78.74000000000524,
      "v": 127
    },
    {
      "midi": 61,
      "hit": false,
      "t": 118346.22000000025,
      "d": 78.74000000000524,
      "v": 127
    },
    {
      "midi": 49,
      "hit": false,
      "t": 118346.22000000025,
      "d": 78.74000000000524,
      "v": 127
    },
    {
      "midi": 68,
      "hit": false,
      "t": 118464.33000000006,
      "d": 157.47999999999593,
      "v": 127
    },
    {
      "midi": 44,
      "hit": false,
      "t": 118464.33000000006,
      "d": 236.22000000000116,
      "v": 118
    },
    {
      "midi": 68,
      "hit": false,
      "t": 118464.33000000019,
      "d": 157.47999999999593,
      "v": 127
    },
    {
      "midi": 44,
      "hit": false,
      "t": 118464.3300000002,
      "d": 78.74000000000524,
      "v": 127
    },
    {
      "midi": 61,
      "hit": false,
      "t": 118464.33000000025,
      "d": 78.74000000000524,
      "v": 127
    },
    {
      "midi": 49,
      "hit": false,
      "t": 118464.33000000025,
      "d": 78.74000000000524,
      "v": 127
    },
    {
      "midi": 50,
      "hit": false,
      "t": 118464.33000000112,
      "d": 236.22000000000116,
      "v": 127
    },
    {
      "midi": 47,
      "hit": false,
      "t": 118582.4400000002,
      "d": 157.47999999999593,
      "v": 127
    },
    {
      "midi": 64,
      "hit": false,
      "t": 118582.44000000025,
      "d": 78.74000000000524,
      "v": 127
    },
    {
      "midi": 52,
      "hit": false,
      "t": 118582.44000000025,
      "d": 78.74000000000524,
      "v": 127
    },
    {
      "midi": 61,
      "hit": false,
      "t": 118582.44000000112,
      "d": 314.9600000000064,
      "v": 127
    },
    {
      "midi": 59,
      "hit": false,
      "t": 118582.44000000112,
      "d": 314.9600000000064,
      "v": 127
    },
    {
      "midi": 68,
      "hit": false,
      "t": 118700.55000000006,
      "d": 78.74000000000524,
      "v": 127
    },
    {
      "midi": 68,
      "hit": false,
      "t": 118700.55000000019,
      "d": 78.74000000000524,
      "v": 127
    },
    {
      "midi": 63,
      "hit": false,
      "t": 118700.55000000025,
      "d": 78.74000000000524,
      "v": 127
    },
    {
      "midi": 51,
      "hit": false,
      "t": 118700.55000000025,
      "d": 78.74000000000524,
      "v": 127
    },
    {
      "midi": 64,
      "hit": false,
      "t": 118818.66000000006,
      "d": 157.47999999999593,
      "v": 127
    },
    {
      "midi": 52,
      "hit": false,
      "t": 118818.66000000006,
      "d": 78.74000000000524,
      "v": 118
    },
    {
      "midi": 64,
      "hit": false,
      "t": 118818.66000000019,
      "d": 157.47999999999593,
      "v": 127
    },
    {
      "midi": 49,
      "hit": false,
      "t": 118818.6600000002,
      "d": 157.47999999999593,
      "v": 127
    },
    {
      "midi": 61,
      "hit": false,
      "t": 118818.66000000025,
      "d": 157.47999999999593,
      "v": 127
    },
    {
      "midi": 49,
      "hit": false,
      "t": 118818.66000000025,
      "d": 157.47999999999593,
      "v": 127
    },
    {
      "midi": 52,
      "hit": false,
      "t": 118818.66000000112,
      "d": 157.48000000001048,
      "v": 127
    },
    {
      "midi": 64,
      "hit": false,
      "t": 119054.88,
      "d": 629.9199999999983,
      "v": 117
    },
    {
      "midi": 73,
      "hit": false,
      "t": 119054.88000000002,
      "d": 157.47999999999593,
      "v": 115
    },
    {
      "midi": 64,
      "hit": false,
      "t": 119054.88000000003,
      "d": 629.9199999999983,
      "v": 127
    },
    {
      "midi": 37,
      "hit": false,
      "t": 119054.88000000035,
      "d": 157.47999999999593,
      "v": 117
    },
    {
      "midi": 49,
      "hit": false,
      "t": 119054.88000000114,
      "d": 157.47999999999593,
      "v": 127
    },
    {
      "midi": 61,
      "hit": false,
      "t": 119291.10000000018,
      "d": 157.47999999999593,
      "v": 127
    },
    {
      "midi": 61,
      "hit": false,
      "t": 119291.10000000021,
      "d": 157.47999999999593,
      "v": 127
    },
    {
      "midi": 61,
      "hit": false,
      "t": 119291.10000000021,
      "d": 157.47999999999593,
      "v": 127
    },
    {
      "midi": 61,
      "hit": false,
      "t": 119291.10000000021,
      "d": 157.47999999999593,
      "v": 127
    },
    {
      "midi": 47,
      "hit": false,
      "t": 119291.10000000036,
      "d": 157.47999999999593,
      "v": 117
    },
    {
      "midi": 37,
      "hit": false,
      "t": 119291.10000000036,
      "d": 157.47999999999593,
      "v": 117
    },
    {
      "midi": 36,
      "hit": false,
      "t": 119291.10000000114,
      "d": 157.48000000001048,
      "v": 127
    },
    {
      "midi": 61,
      "hit": false,
      "t": 119527.32000000018,
      "d": 157.47999999999593,
      "v": 127
    },
    {
      "midi": 61,
      "hit": false,
      "t": 119527.32000000021,
      "d": 157.47999999999593,
      "v": 127
    },
    {
      "midi": 61,
      "hit": false,
      "t": 119527.32000000021,
      "d": 157.47999999999593,
      "v": 127
    },
    {
      "midi": 61,
      "hit": false,
      "t": 119527.32000000021,
      "d": 157.47999999999593,
      "v": 127
    },
    {
      "midi": 37,
      "hit": false,
      "t": 119527.32000000036,
      "d": 78.74000000000524,
      "v": 117
    },
    {
      "midi": 47,
      "hit": false,
      "t": 119527.32000000036,
      "d": 78.74000000000524,
      "v": 117
    },
    {
      "midi": 61,
      "hit": false,
      "t": 119527.32000000116,
      "d": 314.9600000000064,
      "v": 127
    },
    {
      "midi": 47,
      "hit": false,
      "t": 119645.43000000036,
      "d": 78.74000000000524,
      "v": 117
    },
    {
      "midi": 61,
      "hit": false,
      "t": 119763.54000000018,
      "d": 157.47999999999593,
      "v": 127
    },
    {
      "midi": 61,
      "hit": false,
      "t": 119763.54000000021,
      "d": 157.47999999999593,
      "v": 127
    },
    {
      "midi": 61,
      "hit": false,
      "t": 119763.54000000021,
      "d": 157.47999999999593,
      "v": 127
    },
    {
      "midi": 61,
      "hit": false,
      "t": 119763.54000000021,
      "d": 157.47999999999593,
      "v": 127
    },
    {
      "midi": 47,
      "hit": false,
      "t": 119763.54000000036,
      "d": 78.74000000000524,
      "v": 117
    },
    {
      "midi": 52,
      "hit": false,
      "t": 119763.54000000116,
      "d": 157.48000000001048,
      "v": 127
    },
    {
      "midi": 36,
      "hit": false,
      "t": 119881.65000000036,
      "d": 78.74000000000524,
      "v": 117
    },
    {
      "midi": 35,
      "hit": false,
      "t": 119881.65000000036,
      "d": 78.74000000000524,
      "v": 117
    },
    {
      "midi": 66,
      "hit": false,
      "t": 119999.76000000001,
      "d": 866.1399999999849,
      "v": 117
    },
    {
      "midi": 66,
      "hit": false,
      "t": 119999.76000000004,
      "d": 866.1399999999849,
      "v": 127
    },
    {
      "midi": 63,
      "hit": false,
      "t": 119999.76000000018,
      "d": 236.22000000000116,
      "v": 127
    },
    {
      "midi": 59,
      "hit": false,
      "t": 119999.7600000002,
      "d": 78.74000000000524,
      "v": 127
    },
    {
      "midi": 63,
      "hit": false,
      "t": 119999.76000000021,
      "d": 236.22000000000116,
      "v": 127
    },
    {
      "midi": 63,
      "hit": false,
      "t": 119999.76000000021,
      "d": 236.22000000000116,
      "v": 127
    },
    {
      "midi": 63,
      "hit": false,
      "t": 119999.76000000021,
      "d": 236.22000000000116,
      "v": 127
    },
    {
      "midi": 45,
      "hit": false,
      "t": 119999.76000000036,
      "d": 157.47999999999593,
      "v": 117
    },
    {
      "midi": 37,
      "hit": false,
      "t": 119999.76000000036,
      "d": 157.47999999999593,
      "v": 117
    },
    {
      "midi": 44,
      "hit": false,
      "t": 119999.76000000036,
      "d": 236.22000000000116,
      "v": 117
    },
    {
      "midi": 50,
      "hit": false,
      "t": 119999.76000000117,
      "d": 236.22000000000116,
      "v": 127
    },
    {
      "midi": 49,
      "hit": false,
      "t": 119999.76000000117,
      "d": 314.9600000000064,
      "v": 127
    },
    {
      "midi": 59,
      "hit": false,
      "t": 120117.8700000002,
      "d": 157.47999999999593,
      "v": 127
    },
    {
      "midi": 37,
      "hit": false,
      "t": 120235.98000000036,
      "d": 78.74000000000524,
      "v": 117
    },
    {
      "midi": 63,
      "hit": false,
      "t": 120354.09000000019,
      "d": 157.47999999999593,
      "v": 127
    },
    {
      "midi": 59,
      "hit": false,
      "t": 120354.0900000002,
      "d": 78.74000000000524,
      "v": 127
    },
    {
      "midi": 63,
      "hit": false,
      "t": 120354.09000000021,
      "d": 157.47999999999593,
      "v": 127
    },
    {
      "midi": 63,
      "hit": false,
      "t": 120354.09000000021,
      "d": 157.47999999999593,
      "v": 127
    },
    {
      "midi": 63,
      "hit": false,
      "t": 120354.09000000021,
      "d": 157.47999999999593,
      "v": 127
    },
    {
      "midi": 47,
      "hit": false,
      "t": 120354.09000000036,
      "d": 236.22000000000116,
      "v": 117
    },
    {
      "midi": 37,
      "hit": false,
      "t": 120354.09000000036,
      "d": 236.22000000000116,
      "v": 117
    },
    {
      "midi": 50,
      "hit": false,
      "t": 120354.09000000118,
      "d": 236.22000000000116,
      "v": 127
    },
    {
      "midi": 56,
      "hit": false,
      "t": 120472.2000000002,
      "d": 157.47999999999593,
      "v": 127
    },
    {
      "midi": 63,
      "hit": false,
      "t": 120472.20000000118,
      "d": 314.9600000000064,
      "v": 127
    },
    {
      "midi": 68,
      "hit": false,
      "t": 120708.42,
      "d": 1338.5800000000017,
      "v": 117
    },
    {
      "midi": 68,
      "hit": false,
      "t": 120708.42000000003,
      "d": 1338.5800000000017,
      "v": 127
    },
    {
      "midi": 59,
      "hit": false,
      "t": 120708.42000000019,
      "d": 236.22000000000116,
      "v": 127
    },
    {
      "midi": 59,
      "hit": false,
      "t": 120708.4200000002,
      "d": 157.47999999999593,
      "v": 127
    },
    {
      "midi": 59,
      "hit": false,
      "t": 120708.42000000022,
      "d": 236.22000000000116,
      "v": 127
    },
    {
      "midi": 59,
      "hit": false,
      "t": 120708.42000000022,
      "d": 157.47999999999593,
      "v": 127
    },
    {
      "midi": 59,
      "hit": false,
      "t": 120708.42000000022,
      "d": 236.22000000000116,
      "v": 127
    },
    {
      "midi": 49,
      "hit": false,
      "t": 120708.42000000036,
      "d": 157.47999999999593,
      "v": 117
    },
    {
      "midi": 35,
      "hit": false,
      "t": 120708.42000000036,
      "d": 157.47999999999593,
      "v": 117
    },
    {
      "midi": 52,
      "hit": false,
      "t": 120708.42000000118,
      "d": 157.48000000001048,
      "v": 127
    },
    {
      "midi": 37,
      "hit": false,
      "t": 120944.64000000036,
      "d": 157.47999999999593,
      "v": 117
    },
    {
      "midi": 49,
      "hit": false,
      "t": 120944.64000000119,
      "d": 157.47999999999593,
      "v": 127
    },
    {
      "midi": 64,
      "hit": false,
      "t": 121180.86000000019,
      "d": 157.47999999999593,
      "v": 127
    },
    {
      "midi": 64,
      "hit": false,
      "t": 121180.86000000022,
      "d": 157.47999999999593,
      "v": 127
    },
    {
      "midi": 64,
      "hit": false,
      "t": 121180.86000000022,
      "d": 157.47999999999593,
      "v": 127
    },
    {
      "midi": 64,
      "hit": false,
      "t": 121180.86000000022,
      "d": 157.47999999999593,
      "v": 127
    },
    {
      "midi": 52,
      "hit": false,
      "t": 121180.86000000036,
      "d": 157.47999999999593,
      "v": 117
    },
    {
      "midi": 37,
      "hit": false,
      "t": 121180.86000000036,
      "d": 157.47999999999593,
      "v": 117
    },
    {
      "midi": 36,
      "hit": false,
      "t": 121180.8600000012,
      "d": 157.48000000001048,
      "v": 127
    },
    {
      "midi": 64,
      "hit": false,
      "t": 121417.08000000019,
      "d": 157.47999999999593,
      "v": 127
    },
    {
      "midi": 64,
      "hit": false,
      "t": 121417.08000000022,
      "d": 157.47999999999593,
      "v": 127
    },
    {
      "midi": 64,
      "hit": false,
      "t": 121417.08000000022,
      "d": 157.47999999999593,
      "v": 127
    },
    {
      "midi": 64,
      "hit": false,
      "t": 121417.08000000022,
      "d": 157.47999999999593,
      "v": 127
    },
    {
      "midi": 37,
      "hit": false,
      "t": 121417.08000000037,
      "d": 78.74000000000524,
      "v": 117
    },
    {
      "midi": 64,
      "hit": false,
      "t": 121417.08000000121,
      "d": 314.9600000000064,
      "v": 127
    },
    {
      "midi": 52,
      "hit": false,
      "t": 121535.19000000037,
      "d": 39.36999999999534,
      "v": 117
    },
    {
      "midi": 61,
      "hit": false,
      "t": 121653.30000000019,
      "d": 157.47999999999593,
      "v": 127
    },
    {
      "midi": 61,
      "hit": false,
      "t": 121653.30000000022,
      "d": 157.47999999999593,
      "v": 127
    },
    {
      "midi": 61,
      "hit": false,
      "t": 121653.30000000022,
      "d": 157.47999999999593,
      "v": 127
    },
    {
      "midi": 61,
      "hit": false,
      "t": 121653.30000000022,
      "d": 157.47999999999593,
      "v": 127
    },
    {
      "midi": 49,
      "hit": false,
      "t": 121653.30000000037,
      "d": 157.47999999999593,
      "v": 117
    },
    {
      "midi": 52,
      "hit": false,
      "t": 121653.30000000121,
      "d": 157.48000000001048,
      "v": 127
    },
    {
      "midi": 37,
      "hit": false,
      "t": 121771.41000000037,
      "d": 78.73999999999069,
      "v": 117
    },
    {
      "midi": 35,
      "hit": false,
      "t": 121771.41000000037,
      "d": 78.73999999999069,
      "v": 117
    },
    {
      "midi": 64,
      "hit": false,
      "t": 121889.5200000002,
      "d": 236.22000000000116,
      "v": 127
    },
    {
      "midi": 64,
      "hit": false,
      "t": 121889.52000000022,
      "d": 236.22000000000116,
      "v": 127
    },
    {
      "midi": 64,
      "hit": false,
      "t": 121889.52000000022,
      "d": 236.22000000000116,
      "v": 127
    },
    {
      "midi": 64,
      "hit": false,
      "t": 121889.52000000022,
      "d": 236.22000000000116,
      "v": 127
    },
    {
      "midi": 52,
      "hit": false,
      "t": 121889.52000000035,
      "d": 157.47999999999593,
      "v": 117
    },
    {
      "midi": 37,
      "hit": false,
      "t": 121889.52000000035,
      "d": 157.47999999999593,
      "v": 117
    },
    {
      "midi": 50,
      "hit": false,
      "t": 121889.52000000123,
      "d": 236.22000000000116,
      "v": 127
    },
    {
      "midi": 49,
      "hit": false,
      "t": 121889.52000000123,
      "d": 314.9600000000064,
      "v": 127
    },
    {
      "midi": 37,
      "hit": false,
      "t": 122125.74000000035,
      "d": 78.74000000000524,
      "v": 117
    },
    {
      "midi": 63,
      "hit": false,
      "t": 122243.8500000002,
      "d": 472.4400000000023,
      "v": 127
    },
    {
      "midi": 63,
      "hit": false,
      "t": 122243.85000000022,
      "d": 472.4400000000023,
      "v": 127
    },
    {
      "midi": 63,
      "hit": false,
      "t": 122243.85000000022,
      "d": 472.4400000000023,
      "v": 127
    },
    {
      "midi": 51,
      "hit": false,
      "t": 122243.85000000036,
      "d": 236.22000000000116,
      "v": 117
    },
    {
      "midi": 37,
      "hit": false,
      "t": 122243.85000000036,
      "d": 236.22000000000116,
      "v": 117
    },
    {
      "midi": 50,
      "hit": false,
      "t": 122243.85000000123,
      "d": 236.22000000000116,
      "v": 127
    },
    {
      "midi": 66,
      "hit": false,
      "t": 122361.96,
      "d": 629.9199999999983,
      "v": 117
    },
    {
      "midi": 66,
      "hit": false,
      "t": 122361.96000000004,
      "d": 629.9199999999983,
      "v": 127
    },
    {
      "midi": 63,
      "hit": false,
      "t": 122361.96000000022,
      "d": 314.9600000000064,
      "v": 127
    },
    {
      "midi": 63,
      "hit": false,
      "t": 122361.96000000123,
      "d": 314.9600000000064,
      "v": 127
    },
    {
      "midi": 49,
      "hit": false,
      "t": 122598.18000000036,
      "d": 157.47999999999593,
      "v": 117
    },
    {
      "midi": 35,
      "hit": false,
      "t": 122598.18000000036,
      "d": 157.47999999999593,
      "v": 117
    },
    {
      "midi": 52,
      "hit": false,
      "t": 122598.18000000123,
      "d": 157.48000000001048,
      "v": 127
    },
    {
      "midi": 64,
      "hit": false,
      "t": 122834.40000000001,
      "d": 629.9199999999983,
      "v": 117
    },
    {
      "midi": 64,
      "hit": false,
      "t": 122834.40000000004,
      "d": 629.9199999999983,
      "v": 127
    },
    {
      "midi": 37,
      "hit": false,
      "t": 122834.40000000036,
      "d": 157.47999999999593,
      "v": 117
    },
    {
      "midi": 49,
      "hit": false,
      "t": 122834.40000000125,
      "d": 157.47999999999593,
      "v": 127
    },
    {
      "midi": 61,
      "hit": false,
      "t": 123070.6200000002,
      "d": 157.47999999999593,
      "v": 127
    },
    {
      "midi": 61,
      "hit": false,
      "t": 123070.62000000023,
      "d": 157.47999999999593,
      "v": 127
    },
    {
      "midi": 61,
      "hit": false,
      "t": 123070.62000000023,
      "d": 157.47999999999593,
      "v": 127
    },
    {
      "midi": 61,
      "hit": false,
      "t": 123070.62000000023,
      "d": 157.47999999999593,
      "v": 127
    },
    {
      "midi": 47,
      "hit": false,
      "t": 123070.62000000036,
      "d": 157.47999999999593,
      "v": 117
    },
    {
      "midi": 37,
      "hit": false,
      "t": 123070.62000000036,
      "d": 157.47999999999593,
      "v": 117
    },
    {
      "midi": 36,
      "hit": false,
      "t": 123070.62000000125,
      "d": 157.48000000001048,
      "v": 127
    },
    {
      "midi": 61,
      "hit": false,
      "t": 123306.8400000002,
      "d": 157.47999999999593,
      "v": 127
    },
    {
      "midi": 61,
      "hit": false,
      "t": 123306.84000000023,
      "d": 157.47999999999593,
      "v": 127
    },
    {
      "midi": 61,
      "hit": false,
      "t": 123306.84000000023,
      "d": 157.47999999999593,
      "v": 127
    },
    {
      "midi": 61,
      "hit": false,
      "t": 123306.84000000023,
      "d": 157.47999999999593,
      "v": 127
    },
    {
      "midi": 37,
      "hit": false,
      "t": 123306.84000000036,
      "d": 78.74000000000524,
      "v": 117
    },
    {
      "midi": 61,
      "hit": false,
      "t": 123306.84000000126,
      "d": 314.9600000000064,
      "v": 127
    },
    {
      "midi": 47,
      "hit": false,
      "t": 123424.95000000036,
      "d": 39.36999999999534,
      "v": 117
    },
    {
      "midi": 61,
      "hit": false,
      "t": 123543.0600000002,
      "d": 157.47999999999593,
      "v": 127
    },
    {
      "midi": 61,
      "hit": false,
      "t": 123543.06000000023,
      "d": 157.47999999999593,
      "v": 127
    },
    {
      "midi": 61,
      "hit": false,
      "t": 123543.06000000023,
      "d": 157.47999999999593,
      "v": 127
    },
    {
      "midi": 61,
      "hit": false,
      "t": 123543.06000000023,
      "d": 157.47999999999593,
      "v": 127
    },
    {
      "midi": 47,
      "hit": false,
      "t": 123543.06000000036,
      "d": 39.36999999999534,
      "v": 117
    },
    {
      "midi": 52,
      "hit": false,
      "t": 123543.06000000126,
      "d": 157.48000000001048,
      "v": 127
    },
    {
      "midi": 37,
      "hit": false,
      "t": 123661.17000000036,
      "d": 78.73999999999069,
      "v": 117
    },
    {
      "midi": 35,
      "hit": false,
      "t": 123661.17000000036,
      "d": 78.73999999999069,
      "v": 117
    },
    {
      "midi": 66,
      "hit": false,
      "t": 123779.28000000001,
      "d": 866.1399999999849,
      "v": 117
    },
    {
      "midi": 66,
      "hit": false,
      "t": 123779.28000000004,
      "d": 866.1399999999849,
      "v": 127
    },
    {
      "midi": 63,
      "hit": false,
      "t": 123779.2800000002,
      "d": 236.22000000000116,
      "v": 127
    },
    {
      "midi": 63,
      "hit": false,
      "t": 123779.28000000023,
      "d": 236.22000000000116,
      "v": 127
    },
    {
      "midi": 63,
      "hit": false,
      "t": 123779.28000000023,
      "d": 236.22000000000116,
      "v": 127
    },
    {
      "midi": 63,
      "hit": false,
      "t": 123779.28000000023,
      "d": 236.22000000000116,
      "v": 127
    },
    {
      "midi": 45,
      "hit": false,
      "t": 123779.28000000035,
      "d": 157.47999999999593,
      "v": 117
    },
    {
      "midi": 37,
      "hit": false,
      "t": 123779.28000000035,
      "d": 157.47999999999593,
      "v": 117
    },
    {
      "midi": 44,
      "hit": false,
      "t": 123779.28000000035,
      "d": 236.22000000000116,
      "v": 117
    },
    {
      "midi": 49,
      "hit": false,
      "t": 123779.28000000128,
      "d": 314.9600000000064,
      "v": 127
    },
    {
      "midi": 50,
      "hit": false,
      "t": 123779.28000000128,
      "d": 314.9600000000064,
      "v": 127
    },
    {
      "midi": 37,
      "hit": false,
      "t": 124015.50000000035,
      "d": 78.74000000000524,
      "v": 117
    },
    {
      "midi": 63,
      "hit": false,
      "t": 124133.6100000002,
      "d": 157.47999999999593,
      "v": 127
    },
    {
      "midi": 63,
      "hit": false,
      "t": 124133.61000000023,
      "d": 157.47999999999593,
      "v": 127
    },
    {
      "midi": 63,
      "hit": false,
      "t": 124133.61000000023,
      "d": 157.47999999999593,
      "v": 127
    },
    {
      "midi": 63,
      "hit": false,
      "t": 124133.61000000023,
      "d": 157.47999999999593,
      "v": 127
    },
    {
      "midi": 47,
      "hit": false,
      "t": 124133.61000000035,
      "d": 236.22000000000116,
      "v": 117
    },
    {
      "midi": 37,
      "hit": false,
      "t": 124133.61000000035,
      "d": 236.22000000000116,
      "v": 117
    },
    {
      "midi": 50,
      "hit": false,
      "t": 124133.61000000128,
      "d": 236.22000000000116,
      "v": 127
    },
    {
      "midi": 63,
      "hit": false,
      "t": 124251.72000000128,
      "d": 314.9600000000064,
      "v": 127
    },
    {
      "midi": 68,
      "hit": false,
      "t": 124487.94,
      "d": 1338.5800000000017,
      "v": 117
    },
    {
      "midi": 68,
      "hit": false,
      "t": 124487.94000000003,
      "d": 1338.5800000000017,
      "v": 127
    },
    {
      "midi": 63,
      "hit": false,
      "t": 124487.9400000002,
      "d": 236.22000000000116,
      "v": 127
    },
    {
      "midi": 63,
      "hit": false,
      "t": 124487.94000000024,
      "d": 236.22000000000116,
      "v": 127
    },
    {
      "midi": 63,
      "hit": false,
      "t": 124487.94000000024,
      "d": 236.22000000000116,
      "v": 127
    },
    {
      "midi": 63,
      "hit": false,
      "t": 124487.94000000024,
      "d": 236.22000000000116,
      "v": 127
    },
    {
      "midi": 49,
      "hit": false,
      "t": 124487.94000000035,
      "d": 157.47999999999593,
      "v": 117
    },
    {
      "midi": 35,
      "hit": false,
      "t": 124487.94000000035,
      "d": 157.47999999999593,
      "v": 117
    },
    {
      "midi": 52,
      "hit": false,
      "t": 124487.94000000128,
      "d": 157.48000000001048,
      "v": 127
    },
    {
      "midi": 49,
      "hit": false,
      "t": 124724.1600000013,
      "d": 157.47999999999593,
      "v": 127
    },
    {
      "midi": 64,
      "hit": false,
      "t": 124960.38000000021,
      "d": 157.47999999999593,
      "v": 127
    },
    {
      "midi": 64,
      "hit": false,
      "t": 124960.38000000024,
      "d": 157.47999999999593,
      "v": 127
    },
    {
      "midi": 64,
      "hit": false,
      "t": 124960.38000000024,
      "d": 157.47999999999593,
      "v": 127
    },
    {
      "midi": 64,
      "hit": false,
      "t": 124960.38000000024,
      "d": 157.47999999999593,
      "v": 127
    },
    {
      "midi": 36,
      "hit": false,
      "t": 124960.3800000013,
      "d": 157.48000000001048,
      "v": 127
    },
    {
      "midi": 64,
      "hit": false,
      "t": 125196.60000000021,
      "d": 157.47999999999593,
      "v": 127
    },
    {
      "midi": 64,
      "hit": false,
      "t": 125196.60000000024,
      "d": 157.47999999999593,
      "v": 127
    },
    {
      "midi": 64,
      "hit": false,
      "t": 125196.60000000024,
      "d": 157.47999999999593,
      "v": 127
    },
    {
      "midi": 64,
      "hit": false,
      "t": 125196.60000000024,
      "d": 157.47999999999593,
      "v": 127
    },
    {
      "midi": 64,
      "hit": false,
      "t": 125196.60000000132,
      "d": 314.9600000000064,
      "v": 127
    },
    {
      "midi": 61,
      "hit": false,
      "t": 125432.82000000021,
      "d": 157.47999999999593,
      "v": 127
    },
    {
      "midi": 61,
      "hit": false,
      "t": 125432.82000000024,
      "d": 157.47999999999593,
      "v": 127
    },
    {
      "midi": 61,
      "hit": false,
      "t": 125432.82000000024,
      "d": 157.47999999999593,
      "v": 127
    },
    {
      "midi": 61,
      "hit": false,
      "t": 125432.82000000024,
      "d": 157.47999999999593,
      "v": 127
    },
    {
      "midi": 52,
      "hit": false,
      "t": 125432.82000000132,
      "d": 157.48000000001048,
      "v": 127
    },
    {
      "midi": 64,
      "hit": false,
      "t": 125669.04000000001,
      "d": 236.22000000000116,
      "v": 115
    },
    {
      "midi": 64,
      "hit": false,
      "t": 125669.04000000021,
      "d": 236.22000000000116,
      "v": 127
    },
    {
      "midi": 64,
      "hit": false,
      "t": 125669.04000000024,
      "d": 236.22000000000116,
      "v": 127
    },
    {
      "midi": 64,
      "hit": false,
      "t": 125669.04000000024,
      "d": 236.22000000000116,
      "v": 127
    },
    {
      "midi": 64,
      "hit": false,
      "t": 125669.04000000024,
      "d": 236.22000000000116,
      "v": 127
    },
    {
      "midi": 49,
      "hit": false,
      "t": 125669.04000000133,
      "d": 314.9600000000064,
      "v": 127
    },
    {
      "midi": 50,
      "hit": false,
      "t": 125669.04000000133,
      "d": 314.9600000000064,
      "v": 127
    },
    {
      "midi": 66,
      "hit": false,
      "t": 126023.37000000001,
      "d": 236.22000000000116,
      "v": 115
    },
    {
      "midi": 66,
      "hit": false,
      "t": 126023.37000000021,
      "d": 236.22000000000116,
      "v": 127
    },
    {
      "midi": 66,
      "hit": false,
      "t": 126023.37000000024,
      "d": 236.22000000000116,
      "v": 127
    },
    {
      "midi": 66,
      "hit": false,
      "t": 126023.37000000024,
      "d": 236.22000000000116,
      "v": 127
    },
    {
      "midi": 66,
      "hit": false,
      "t": 126023.37000000024,
      "d": 236.22000000000116,
      "v": 127
    },
    {
      "midi": 50,
      "hit": false,
      "t": 126023.37000000133,
      "d": 236.22000000000116,
      "v": 127
    },
    {
      "midi": 66,
      "hit": false,
      "t": 126141.48000000133,
      "d": 314.9600000000064,
      "v": 127
    },
    {
      "midi": 68,
      "hit": false,
      "t": 126377.70000000001,
      "d": 157.47999999999593,
      "v": 115
    },
    {
      "midi": 68,
      "hit": false,
      "t": 126377.70000000022,
      "d": 157.47999999999593,
      "v": 127
    },
    {
      "midi": 68,
      "hit": false,
      "t": 126377.70000000024,
      "d": 157.47999999999593,
      "v": 127
    },
    {
      "midi": 68,
      "hit": false,
      "t": 126377.70000000024,
      "d": 157.47999999999593,
      "v": 127
    },
    {
      "midi": 68,
      "hit": false,
      "t": 126377.70000000024,
      "d": 157.47999999999593,
      "v": 127
    },
    {
      "midi": 52,
      "hit": false,
      "t": 126377.70000000134,
      "d": 157.48000000001048,
      "v": 127
    },
    {
      "midi": 68,
      "hit": false,
      "t": 126613.92000000022,
      "d": 629.9199999999983,
      "v": 127
    },
    {
      "midi": 64,
      "hit": false,
      "t": 126613.92000000025,
      "d": 157.47999999999593,
      "v": 127
    },
    {
      "midi": 52,
      "hit": false,
      "t": 126613.92000000025,
      "d": 157.47999999999593,
      "v": 127
    },
    {
      "midi": 68,
      "hit": false,
      "t": 126613.92000000025,
      "d": 629.9199999999983,
      "v": 127
    },
    {
      "midi": 68,
      "hit": false,
      "t": 126613.92000000025,
      "d": 629.9199999999983,
      "v": 127
    },
    {
      "midi": 68,
      "hit": false,
      "t": 126613.92000000025,
      "d": 629.9199999999983,
      "v": 127
    },
    {
      "midi": 37,
      "hit": false,
      "t": 126613.92000000035,
      "d": 157.47999999999593,
      "v": 117
    },
    {
      "midi": 49,
      "hit": false,
      "t": 126613.92000000135,
      "d": 157.47999999999593,
      "v": 127
    },
    {
      "midi": 68,
      "hit": false,
      "t": 126850.14000000003,
      "d": 236.22000000000116,
      "v": 127
    },
    {
      "midi": 64,
      "hit": false,
      "t": 126850.14000000003,
      "d": 236.22000000000116,
      "v": 127
    },
    {
      "midi": 64,
      "hit": false,
      "t": 126850.14000000025,
      "d": 157.47999999999593,
      "v": 127
    },
    {
      "midi": 52,
      "hit": false,
      "t": 126850.14000000025,
      "d": 157.47999999999593,
      "v": 127
    },
    {
      "midi": 37,
      "hit": false,
      "t": 126850.14000000035,
      "d": 157.47999999999593,
      "v": 117
    },
    {
      "midi": 44,
      "hit": false,
      "t": 126850.14000000035,
      "d": 157.47999999999593,
      "v": 117
    },
    {
      "midi": 36,
      "hit": false,
      "t": 126850.14000000135,
      "d": 157.48000000001048,
      "v": 127
    },
    {
      "midi": 64,
      "hit": false,
      "t": 127086.36000000025,
      "d": 157.47999999999593,
      "v": 127
    },
    {
      "midi": 52,
      "hit": false,
      "t": 127086.36000000025,
      "d": 157.47999999999593,
      "v": 127
    },
    {
      "midi": 37,
      "hit": false,
      "t": 127086.36000000035,
      "d": 78.74000000000524,
      "v": 117
    },
    {
      "midi": 44,
      "hit": false,
      "t": 127086.36000000035,
      "d": 78.74000000000524,
      "v": 117
    },
    {
      "midi": 63,
      "hit": false,
      "t": 127086.36000000137,
      "d": 314.9600000000064,
      "v": 127
    },
    {
      "midi": 68,
      "hit": false,
      "t": 127204.47000000003,
      "d": 236.22000000000116,
      "v": 127
    },
    {
      "midi": 64,
      "hit": false,
      "t": 127204.47000000003,
      "d": 236.22000000000116,
      "v": 127
    },
    {
      "midi": 66,
      "hit": false,
      "t": 127204.47000000003,
      "d": 236.22000000000116,
      "v": 127
    },
    {
      "midi": 44,
      "hit": false,
      "t": 127204.47000000035,
      "d": 78.74000000000524,
      "v": 117
    },
    {
      "midi": 64,
      "hit": false,
      "t": 127322.58000000025,
      "d": 78.74000000000524,
      "v": 127
    },
    {
      "midi": 52,
      "hit": false,
      "t": 127322.58000000025,
      "d": 78.74000000000524,
      "v": 127
    },
    {
      "midi": 44,
      "hit": false,
      "t": 127322.58000000035,
      "d": 78.74000000000524,
      "v": 117
    },
    {
      "midi": 52,
      "hit": false,
      "t": 127322.58000000137,
      "d": 157.48000000001048,
      "v": 127
    },
    {
      "midi": 64,
      "hit": false,
      "t": 127440.69000000025,
      "d": 78.74000000000524,
      "v": 127
    },
    {
      "midi": 52,
      "hit": false,
      "t": 127440.69000000025,
      "d": 78.74000000000524,
      "v": 127
    },
    {
      "midi": 37,
      "hit": false,
      "t": 127440.69000000035,
      "d": 78.74000000000524,
      "v": 117
    },
    {
      "midi": 35,
      "hit": false,
      "t": 127440.69000000035,
      "d": 78.74000000000524,
      "v": 117
    },
    {
      "midi": 68,
      "hit": false,
      "t": 127558.80000000003,
      "d": 314.9600000000064,
      "v": 127
    },
    {
      "midi": 63,
      "hit": false,
      "t": 127558.80000000003,
      "d": 314.9600000000064,
      "v": 127
    },
    {
      "midi": 63,
      "hit": false,
      "t": 127558.80000000025,
      "d": 78.74000000000524,
      "v": 127
    },
    {
      "midi": 51,
      "hit": false,
      "t": 127558.80000000025,
      "d": 78.74000000000524,
      "v": 127
    },
    {
      "midi": 37,
      "hit": false,
      "t": 127558.80000000035,
      "d": 157.47999999999593,
      "v": 117
    },
    {
      "midi": 44,
      "hit": false,
      "t": 127558.80000000035,
      "d": 157.47999999999593,
      "v": 117
    },
    {
      "midi": 49,
      "hit": false,
      "t": 127558.80000000139,
      "d": 314.9600000000064,
      "v": 127
    },
    {
      "midi": 50,
      "hit": false,
      "t": 127558.80000000139,
      "d": 314.9600000000064,
      "v": 127
    },
    {
      "midi": 63,
      "hit": false,
      "t": 127676.91000000025,
      "d": 78.74000000000524,
      "v": 127
    },
    {
      "midi": 51,
      "hit": false,
      "t": 127676.91000000025,
      "d": 78.74000000000524,
      "v": 127
    },
    {
      "midi": 68,
      "hit": false,
      "t": 127795.02,
      "d": 157.47999999999593,
      "v": 115
    },
    {
      "midi": 63,
      "hit": false,
      "t": 127795.02000000025,
      "d": 78.74000000000524,
      "v": 127
    },
    {
      "midi": 51,
      "hit": false,
      "t": 127795.02000000025,
      "d": 78.74000000000524,
      "v": 127
    },
    {
      "midi": 37,
      "hit": false,
      "t": 127795.02000000035,
      "d": 78.74000000000524,
      "v": 117
    },
    {
      "midi": 63,
      "hit": false,
      "t": 127913.13000000025,
      "d": 78.74000000000524,
      "v": 127
    },
    {
      "midi": 51,
      "hit": false,
      "t": 127913.13000000025,
      "d": 78.74000000000524,
      "v": 127
    },
    {
      "midi": 37,
      "hit": false,
      "t": 127913.13000000035,
      "d": 236.22000000000116,
      "v": 117
    },
    {
      "midi": 44,
      "hit": false,
      "t": 127913.13000000035,
      "d": 236.22000000000116,
      "v": 117
    },
    {
      "midi": 50,
      "hit": false,
      "t": 127913.13000000139,
      "d": 236.22000000000116,
      "v": 127
    },
    {
      "midi": 63,
      "hit": false,
      "t": 128031.24,
      "d": 157.47999999999593,
      "v": 115
    },
    {
      "midi": 68,
      "hit": false,
      "t": 128031.24000000003,
      "d": 314.9600000000064,
      "v": 127
    },
    {
      "midi": 63,
      "hit": false,
      "t": 128031.24000000003,
      "d": 314.9600000000064,
      "v": 127
    },
    {
      "midi": 63,
      "hit": false,
      "t": 128031.24000000025,
      "d": 78.74000000000524,
      "v": 127
    },
    {
      "midi": 51,
      "hit": false,
      "t": 128031.24000000025,
      "d": 78.74000000000524,
      "v": 127
    },
    {
      "midi": 63,
      "hit": false,
      "t": 128031.24000000139,
      "d": 314.9600000000064,
      "v": 127
    },
    {
      "midi": 63,
      "hit": false,
      "t": 128149.35000000025,
      "d": 78.74000000000524,
      "v": 127
    },
    {
      "midi": 51,
      "hit": false,
      "t": 128149.35000000025,
      "d": 78.74000000000524,
      "v": 127
    },
    {
      "midi": 56,
      "hit": false,
      "t": 128267.46,
      "d": 157.47999999999593,
      "v": 115
    },
    {
      "midi": 63,
      "hit": false,
      "t": 128267.46000000025,
      "d": 157.47999999999593,
      "v": 127
    },
    {
      "midi": 51,
      "hit": false,
      "t": 128267.46000000025,
      "d": 157.47999999999593,
      "v": 127
    },
    {
      "midi": 35,
      "hit": false,
      "t": 128267.46000000036,
      "d": 157.47999999999593,
      "v": 117
    },
    {
      "midi": 44,
      "hit": false,
      "t": 128267.46000000036,
      "d": 157.47999999999593,
      "v": 117
    },
    {
      "midi": 52,
      "hit": false,
      "t": 128267.46000000139,
      "d": 157.48000000001048,
      "v": 127
    },
    {
      "midi": 64,
      "hit": false,
      "t": 128503.68000000005,
      "d": 2047.2399999999907,
      "v": 127
    },
    {
      "midi": 37,
      "hit": false,
      "t": 128503.6800000002,
      "d": 157.47999999999593,
      "v": 127
    },
    {
      "midi": 64,
      "hit": false,
      "t": 128503.68000000021,
      "d": 314.9600000000064,
      "v": 127
    },
    {
      "midi": 64,
      "hit": false,
      "t": 128503.68000000024,
      "d": 314.9600000000064,
      "v": 127
    },
    {
      "midi": 64,
      "hit": false,
      "t": 128503.68000000024,
      "d": 314.9600000000064,
      "v": 127
    },
    {
      "midi": 64,
      "hit": false,
      "t": 128503.68000000024,
      "d": 314.9600000000064,
      "v": 127
    },
    {
      "midi": 49,
      "hit": false,
      "t": 128503.68000000025,
      "d": 157.47999999999593,
      "v": 127
    },
    {
      "midi": 61,
      "hit": false,
      "t": 128503.68000000025,
      "d": 157.47999999999593,
      "v": 127
    },
    {
      "midi": 49,
      "hit": false,
      "t": 128503.68000000036,
      "d": 157.47999999999593,
      "v": 127
    },
    {
      "midi": 37,
      "hit": false,
      "t": 128739.9000000002,
      "d": 157.47999999999593,
      "v": 127
    },
    {
      "midi": 49,
      "hit": false,
      "t": 128739.90000000026,
      "d": 157.47999999999593,
      "v": 127
    },
    {
      "midi": 61,
      "hit": false,
      "t": 128739.90000000026,
      "d": 157.47999999999593,
      "v": 127
    },
    {
      "midi": 49,
      "hit": false,
      "t": 128739.90000000036,
      "d": 157.47999999999593,
      "v": 127
    },
    {
      "midi": 49,
      "hit": false,
      "t": 128976.1200000002,
      "d": 236.22000000000116,
      "v": 127
    },
    {
      "midi": 61,
      "hit": false,
      "t": 128976.12000000021,
      "d": 314.9600000000064,
      "v": 127
    },
    {
      "midi": 61,
      "hit": false,
      "t": 128976.12000000024,
      "d": 314.9600000000064,
      "v": 127
    },
    {
      "midi": 61,
      "hit": false,
      "t": 128976.12000000024,
      "d": 314.9600000000064,
      "v": 127
    },
    {
      "midi": 61,
      "hit": false,
      "t": 128976.12000000024,
      "d": 314.9600000000064,
      "v": 127
    },
    {
      "midi": 49,
      "hit": false,
      "t": 128976.12000000026,
      "d": 157.47999999999593,
      "v": 127
    },
    {
      "midi": 61,
      "hit": false,
      "t": 128976.12000000026,
      "d": 157.47999999999593,
      "v": 127
    },
    {
      "midi": 49,
      "hit": false,
      "t": 128976.12000000036,
      "d": 236.22000000000116,
      "v": 127
    },
    {
      "midi": 47,
      "hit": false,
      "t": 129212.34000000026,
      "d": 78.74000000000524,
      "v": 127
    },
    {
      "midi": 59,
      "hit": false,
      "t": 129212.34000000026,
      "d": 78.74000000000524,
      "v": 127
    },
    {
      "midi": 47,
      "hit": false,
      "t": 129330.4500000002,
      "d": 157.47999999999593,
      "v": 127
    },
    {
      "midi": 48,
      "hit": false,
      "t": 129330.45000000026,
      "d": 78.74000000000524,
      "v": 127
    },
    {
      "midi": 60,
      "hit": false,
      "t": 129330.45000000026,
      "d": 78.74000000000524,
      "v": 127
    },
    {
      "midi": 47,
      "hit": false,
      "t": 129330.45000000036,
      "d": 78.74000000000524,
      "v": 127
    },
    {
      "midi": 59,
      "hit": false,
      "t": 129448.56000000022,
      "d": 157.47999999999593,
      "v": 127
    },
    {
      "midi": 59,
      "hit": false,
      "t": 129448.56000000025,
      "d": 157.47999999999593,
      "v": 127
    },
    {
      "midi": 59,
      "hit": false,
      "t": 129448.56000000025,
      "d": 157.47999999999593,
      "v": 127
    },
    {
      "midi": 59,
      "hit": false,
      "t": 129448.56000000025,
      "d": 157.47999999999593,
      "v": 127
    },
    {
      "midi": 49,
      "hit": false,
      "t": 129448.56000000026,
      "d": 78.74000000000524,
      "v": 127
    },
    {
      "midi": 61,
      "hit": false,
      "t": 129448.56000000026,
      "d": 78.74000000000524,
      "v": 127
    },
    {
      "midi": 49,
      "hit": false,
      "t": 129448.56000000036,
      "d": 157.47999999999593,
      "v": 127
    },
    {
      "midi": 47,
      "hit": false,
      "t": 129566.6700000002,
      "d": 157.47999999999593,
      "v": 127
    },
    {
      "midi": 49,
      "hit": false,
      "t": 129566.67000000026,
      "d": 78.74000000000524,
      "v": 127
    },
    {
      "midi": 61,
      "hit": false,
      "t": 129566.67000000026,
      "d": 78.74000000000524,
      "v": 127
    },
    {
      "midi": 61,
      "hit": false,
      "t": 129684.78000000022,
      "d": 78.74000000000524,
      "v": 127
    },
    {
      "midi": 61,
      "hit": false,
      "t": 129684.78000000025,
      "d": 78.74000000000524,
      "v": 127
    },
    {
      "midi": 61,
      "hit": false,
      "t": 129684.78000000025,
      "d": 78.74000000000524,
      "v": 127
    },
    {
      "midi": 61,
      "hit": false,
      "t": 129684.78000000025,
      "d": 78.74000000000524,
      "v": 127
    },
    {
      "midi": 49,
      "hit": false,
      "t": 129684.78000000026,
      "d": 78.74000000000524,
      "v": 127
    },
    {
      "midi": 61,
      "hit": false,
      "t": 129684.78000000026,
      "d": 78.74000000000524,
      "v": 127
    },
    {
      "midi": 49,
      "hit": false,
      "t": 129684.78000000036,
      "d": 78.74000000000524,
      "v": 127
    },
    {
      "midi": 44,
      "hit": false,
      "t": 129802.8900000002,
      "d": 78.74000000000524,
      "v": 127
    },
    {
      "midi": 61,
      "hit": false,
      "t": 129802.89000000022,
      "d": 314.9600000000064,
      "v": 127
    },
    {
      "midi": 61,
      "hit": false,
      "t": 129802.89000000025,
      "d": 314.9600000000064,
      "v": 127
    },
    {
      "midi": 61,
      "hit": false,
      "t": 129802.89000000025,
      "d": 314.9600000000064,
      "v": 127
    },
    {
      "midi": 61,
      "hit": false,
      "t": 129802.89000000025,
      "d": 314.9600000000064,
      "v": 127
    },
    {
      "midi": 49,
      "hit": false,
      "t": 129802.89000000026,
      "d": 78.74000000000524,
      "v": 127
    },
    {
      "midi": 61,
      "hit": false,
      "t": 129802.89000000026,
      "d": 78.74000000000524,
      "v": 127
    },
    {
      "midi": 52,
      "hit": false,
      "t": 129802.89000000036,
      "d": 433.070000000007,
      "v": 127
    },
    {
      "midi": 47,
      "hit": false,
      "t": 129921.0000000002,
      "d": 157.47999999999593,
      "v": 127
    },
    {
      "midi": 52,
      "hit": false,
      "t": 129921.00000000026,
      "d": 78.74000000000524,
      "v": 127
    },
    {
      "midi": 64,
      "hit": false,
      "t": 129921.00000000026,
      "d": 78.74000000000524,
      "v": 127
    },
    {
      "midi": 51,
      "hit": false,
      "t": 130039.11000000026,
      "d": 78.74000000000524,
      "v": 127
    },
    {
      "midi": 64,
      "hit": false,
      "t": 130039.11000000026,
      "d": 78.74000000000524,
      "v": 127
    },
    {
      "midi": 49,
      "hit": false,
      "t": 130157.2200000002,
      "d": 157.47999999999593,
      "v": 127
    },
    {
      "midi": 49,
      "hit": false,
      "t": 130157.22000000026,
      "d": 157.47999999999593,
      "v": 127
    },
    {
      "midi": 61,
      "hit": false,
      "t": 130157.22000000026,
      "d": 157.47999999999593,
      "v": 127
    },
    {
      "midi": 56,
      "hit": false,
      "t": 130275.33000000022,
      "d": 78.74000000000524,
      "v": 127
    },
    {
      "midi": 56,
      "hit": false,
      "t": 130275.33000000025,
      "d": 78.74000000000524,
      "v": 127
    },
    {
      "midi": 56,
      "hit": false,
      "t": 130275.33000000025,
      "d": 78.74000000000524,
      "v": 127
    },
    {
      "midi": 56,
      "hit": false,
      "t": 130275.33000000025,
      "d": 78.74000000000524,
      "v": 127
    },
    {
      "midi": 44,
      "hit": false,
      "t": 130275.33000000037,
      "d": 78.74000000000524,
      "v": 127
    },
    {
      "midi": 68,
      "hit": false,
      "t": 130393.44000000005,
      "d": 314.95999999999185,
      "v": 127
    },
    {
      "midi": 63,
      "hit": false,
      "t": 130393.44000000005,
      "d": 2047.2400000000052,
      "v": 127
    },
    {
      "midi": 64,
      "hit": false,
      "t": 130393.44000000019,
      "d": 157.47999999999593,
      "v": 127
    },
    {
      "midi": 68,
      "hit": false,
      "t": 130393.44000000019,
      "d": 157.47999999999593,
      "v": 127
    },
    {
      "midi": 63,
      "hit": false,
      "t": 130393.44000000019,
      "d": 2047.2400000000052,
      "v": 127
    },
    {
      "midi": 35,
      "hit": false,
      "t": 130393.4400000002,
      "d": 157.47999999999593,
      "v": 127
    },
    {
      "midi": 59,
      "hit": false,
      "t": 130393.44000000022,
      "d": 157.47999999999593,
      "v": 127
    },
    {
      "midi": 59,
      "hit": false,
      "t": 130393.44000000025,
      "d": 157.47999999999593,
      "v": 127
    },
    {
      "midi": 59,
      "hit": false,
      "t": 130393.44000000025,
      "d": 157.47999999999593,
      "v": 127
    },
    {
      "midi": 59,
      "hit": false,
      "t": 130393.44000000025,
      "d": 157.47999999999593,
      "v": 127
    },
    {
      "midi": 47,
      "hit": false,
      "t": 130393.44000000026,
      "d": 157.47999999999593,
      "v": 127
    },
    {
      "midi": 59,
      "hit": false,
      "t": 130393.44000000026,
      "d": 157.47999999999593,
      "v": 127
    },
    {
      "midi": 47,
      "hit": false,
      "t": 130393.44000000037,
      "d": 157.47999999999593,
      "v": 127
    },
    {
      "midi": 49,
      "hit": false,
      "t": 130393.4400000014,
      "d": 157.47999999999593,
      "v": 127
    },
    {
      "midi": 35,
      "hit": false,
      "t": 130629.6600000002,
      "d": 157.47999999999593,
      "v": 127
    },
    {
      "midi": 59,
      "hit": false,
      "t": 130629.66000000022,
      "d": 157.47999999999593,
      "v": 127
    },
    {
      "midi": 59,
      "hit": false,
      "t": 130629.66000000025,
      "d": 157.47999999999593,
      "v": 127
    },
    {
      "midi": 59,
      "hit": false,
      "t": 130629.66000000025,
      "d": 157.47999999999593,
      "v": 127
    },
    {
      "midi": 59,
      "hit": false,
      "t": 130629.66000000025,
      "d": 157.47999999999593,
      "v": 127
    },
    {
      "midi": 59,
      "hit": false,
      "t": 130629.66000000027,
      "d": 157.47999999999593,
      "v": 127
    },
    {
      "midi": 47,
      "hit": false,
      "t": 130629.66000000027,
      "d": 157.47999999999593,
      "v": 127
    },
    {
      "midi": 47,
      "hit": false,
      "t": 130629.66000000037,
      "d": 157.47999999999593,
      "v": 127
    },
    {
      "midi": 36,
      "hit": false,
      "t": 130629.6600000014,
      "d": 157.48000000001048,
      "v": 127
    },
    {
      "midi": 47,
      "hit": false,
      "t": 130865.88000000021,
      "d": 236.22000000000116,
      "v": 127
    },
    {
      "midi": 59,
      "hit": false,
      "t": 130865.88000000022,
      "d": 157.47999999999593,
      "v": 127
    },
    {
      "midi": 59,
      "hit": false,
      "t": 130865.88000000025,
      "d": 157.47999999999593,
      "v": 127
    },
    {
      "midi": 59,
      "hit": false,
      "t": 130865.88000000025,
      "d": 157.47999999999593,
      "v": 127
    },
    {
      "midi": 59,
      "hit": false,
      "t": 130865.88000000025,
      "d": 157.47999999999593,
      "v": 127
    },
    {
      "midi": 59,
      "hit": false,
      "t": 130865.88000000027,
      "d": 157.47999999999593,
      "v": 127
    },
    {
      "midi": 47,
      "hit": false,
      "t": 130865.88000000027,
      "d": 157.47999999999593,
      "v": 127
    },
    {
      "midi": 47,
      "hit": false,
      "t": 130865.88000000037,
      "d": 157.47999999999593,
      "v": 127
    },
    {
      "midi": 59,
      "hit": false,
      "t": 130865.88000000142,
      "d": 314.9599999999773,
      "v": 127
    },
    {
      "midi": 61,
      "hit": false,
      "t": 131102.1000000002,
      "d": 78.73999999999069,
      "v": 127
    },
    {
      "midi": 61,
      "hit": false,
      "t": 131102.10000000024,
      "d": 78.73999999999069,
      "v": 127
    },
    {
      "midi": 61,
      "hit": false,
      "t": 131102.10000000024,
      "d": 78.73999999999069,
      "v": 127
    },
    {
      "midi": 61,
      "hit": false,
      "t": 131102.10000000024,
      "d": 78.73999999999069,
      "v": 127
    },
    {
      "midi": 56,
      "hit": false,
      "t": 131102.10000000027,
      "d": 78.73999999999069,
      "v": 127
    },
    {
      "midi": 44,
      "hit": false,
      "t": 131102.10000000027,
      "d": 78.73999999999069,
      "v": 127
    },
    {
      "midi": 44,
      "hit": false,
      "t": 131102.10000000036,
      "d": 78.73999999999069,
      "v": 127
    },
    {
      "midi": 52,
      "hit": false,
      "t": 131102.1000000014,
      "d": 157.47999999998137,
      "v": 127
    },
    {
      "midi": 44,
      "hit": false,
      "t": 131220.2100000002,
      "d": 157.48000000001048,
      "v": 127
    },
    {
      "midi": 59,
      "hit": false,
      "t": 131220.2100000002,
      "d": 629.9200000000128,
      "v": 127
    },
    {
      "midi": 59,
      "hit": false,
      "t": 131220.21000000022,
      "d": 629.9200000000128,
      "v": 127
    },
    {
      "midi": 59,
      "hit": false,
      "t": 131220.21000000022,
      "d": 629.9200000000128,
      "v": 127
    },
    {
      "midi": 59,
      "hit": false,
      "t": 131220.21000000022,
      "d": 629.9200000000128,
      "v": 127
    },
    {
      "midi": 59,
      "hit": false,
      "t": 131220.21000000025,
      "d": 78.73999999999069,
      "v": 127
    },
    {
      "midi": 47,
      "hit": false,
      "t": 131220.21000000025,
      "d": 78.73999999999069,
      "v": 127
    },
    {
      "midi": 47,
      "hit": false,
      "t": 131220.21000000034,
      "d": 157.48000000001048,
      "v": 127
    },
    {
      "midi": 68,
      "hit": false,
      "t": 131338.32,
      "d": 314.95999999999185,
      "v": 127
    },
    {
      "midi": 59,
      "hit": false,
      "t": 131338.32000000024,
      "d": 78.73999999999069,
      "v": 127
    },
    {
      "midi": 47,
      "hit": false,
      "t": 131338.32000000024,
      "d": 78.73999999999069,
      "v": 127
    },
    {
      "midi": 50,
      "hit": false,
      "t": 131338.32000000137,
      "d": 236.22000000000116,
      "v": 127
    },
    {
      "midi": 49,
      "hit": false,
      "t": 131338.32000000137,
      "d": 314.95999999999185,
      "v": 127
    },
    {
      "midi": 44,
      "hit": false,
      "t": 131456.4300000002,
      "d": 157.48000000001048,
      "v": 127
    },
    {
      "midi": 59,
      "hit": false,
      "t": 131456.43000000023,
      "d": 78.73999999999069,
      "v": 127
    },
    {
      "midi": 47,
      "hit": false,
      "t": 131456.43000000023,
      "d": 78.73999999999069,
      "v": 127
    },
    {
      "midi": 47,
      "hit": false,
      "t": 131456.43000000034,
      "d": 157.48000000001048,
      "v": 127
    },
    {
      "midi": 59,
      "hit": false,
      "t": 131574.5400000002,
      "d": 78.73999999999069,
      "v": 127
    },
    {
      "midi": 47,
      "hit": false,
      "t": 131574.5400000002,
      "d": 78.73999999999069,
      "v": 127
    },
    {
      "midi": 42,
      "hit": false,
      "t": 131692.6500000002,
      "d": 78.73999999999069,
      "v": 127
    },
    {
      "midi": 59,
      "hit": false,
      "t": 131692.6500000002,
      "d": 78.73999999999069,
      "v": 127
    },
    {
      "midi": 47,
      "hit": false,
      "t": 131692.6500000002,
      "d": 78.73999999999069,
      "v": 127
    },
    {
      "midi": 44,
      "hit": false,
      "t": 131692.65000000034,
      "d": 78.73999999999069,
      "v": 127
    },
    {
      "midi": 50,
      "hit": false,
      "t": 131692.65000000136,
      "d": 236.21999999997206,
      "v": 127
    },
    {
      "midi": 71,
      "hit": false,
      "t": 131810.76,
      "d": 314.95999999999185,
      "v": 127
    },
    {
      "midi": 40,
      "hit": false,
      "t": 131810.76000000018,
      "d": 157.48000000001048,
      "v": 127
    },
    {
      "midi": 61,
      "hit": false,
      "t": 131810.76000000018,
      "d": 78.73999999999069,
      "v": 127
    },
    {
      "midi": 49,
      "hit": false,
      "t": 131810.76000000018,
      "d": 78.73999999999069,
      "v": 127
    },
    {
      "midi": 47,
      "hit": false,
      "t": 131810.76000000033,
      "d": 157.48000000001048,
      "v": 127
    },
    {
      "midi": 59,
      "hit": false,
      "t": 131810.76000000135,
      "d": 314.95999999996275,
      "v": 127
    },
    {
      "midi": 59,
      "hit": false,
      "t": 131928.87000000017,
      "d": 78.73999999999069,
      "v": 127
    },
    {
      "midi": 47,
      "hit": false,
      "t": 131928.87000000017,
      "d": 78.73999999999069,
      "v": 127
    },
    {
      "midi": 57,
      "hit": false,
      "t": 132046.98000000016,
      "d": 157.48000000001048,
      "v": 127
    },
    {
      "midi": 45,
      "hit": false,
      "t": 132046.98000000016,
      "d": 157.48000000001048,
      "v": 127
    },
    {
      "midi": 42,
      "hit": false,
      "t": 132046.98000000019,
      "d": 157.48000000001048,
      "v": 127
    },
    {
      "midi": 59,
      "hit": false,
      "t": 132046.9800000002,
      "d": 157.48000000001048,
      "v": 127
    },
    {
      "midi": 59,
      "hit": false,
      "t": 132046.98000000024,
      "d": 157.48000000001048,
      "v": 127
    },
    {
      "midi": 59,
      "hit": false,
      "t": 132046.98000000024,
      "d": 157.48000000001048,
      "v": 127
    },
    {
      "midi": 59,
      "hit": false,
      "t": 132046.98000000024,
      "d": 157.48000000001048,
      "v": 127
    },
    {
      "midi": 49,
      "hit": false,
      "t": 132046.98000000033,
      "d": 157.48000000001048,
      "v": 127
    },
    {
      "midi": 52,
      "hit": false,
      "t": 132046.98000000132,
      "d": 157.47999999998137,
      "v": 127
    },
    {
      "midi": 73,
      "hit": false,
      "t": 132283.2,
      "d": 629.9200000000128,
      "v": 127
    },
    {
      "midi": 61,
      "hit": false,
      "t": 132283.20000000004,
      "d": 944.8800000000047,
      "v": 127
    },
    {
      "midi": 64,
      "hit": false,
      "t": 132283.20000000004,
      "d": 629.9200000000128,
      "v": 127
    },
    {
      "midi": 49,
      "hit": false,
      "t": 132283.20000000016,
      "d": 157.48000000001048,
      "v": 127
    },
    {
      "midi": 61,
      "hit": false,
      "t": 132283.20000000016,
      "d": 157.48000000001048,
      "v": 127
    },
    {
      "midi": 37,
      "hit": false,
      "t": 132283.2000000002,
      "d": 157.48000000001048,
      "v": 127
    },
    {
      "midi": 61,
      "hit": false,
      "t": 132283.2000000002,
      "d": 944.8800000000047,
      "v": 127
    },
    {
      "midi": 61,
      "hit": false,
      "t": 132283.20000000022,
      "d": 157.48000000001048,
      "v": 127
    },
    {
      "midi": 61,
      "hit": false,
      "t": 132283.20000000024,
      "d": 157.48000000001048,
      "v": 127
    },
    {
      "midi": 61,
      "hit": false,
      "t": 132283.20000000024,
      "d": 157.48000000001048,
      "v": 127
    },
    {
      "midi": 61,
      "hit": false,
      "t": 132283.20000000024,
      "d": 157.48000000001048,
      "v": 127
    },
    {
      "midi": 49,
      "hit": false,
      "t": 132283.20000000033,
      "d": 157.48000000001048,
      "v": 127
    },
    {
      "midi": 49,
      "hit": false,
      "t": 132283.2000000013,
      "d": 157.48000000001048,
      "v": 127
    },
    {
      "midi": 49,
      "hit": false,
      "t": 132519.42000000016,
      "d": 157.48000000001048,
      "v": 127
    },
    {
      "midi": 61,
      "hit": false,
      "t": 132519.42000000016,
      "d": 157.48000000001048,
      "v": 127
    },
    {
      "midi": 37,
      "hit": false,
      "t": 132519.4200000002,
      "d": 157.48000000001048,
      "v": 127
    },
    {
      "midi": 61,
      "hit": false,
      "t": 132519.42000000022,
      "d": 157.48000000001048,
      "v": 127
    },
    {
      "midi": 61,
      "hit": false,
      "t": 132519.42000000025,
      "d": 157.48000000001048,
      "v": 127
    },
    {
      "midi": 61,
      "hit": false,
      "t": 132519.42000000025,
      "d": 157.48000000001048,
      "v": 127
    },
    {
      "midi": 61,
      "hit": false,
      "t": 132519.42000000025,
      "d": 157.48000000001048,
      "v": 127
    },
    {
      "midi": 49,
      "hit": false,
      "t": 132519.42000000033,
      "d": 157.48000000001048,
      "v": 127
    },
    {
      "midi": 36,
      "hit": false,
      "t": 132519.4200000013,
      "d": 157.48000000001048,
      "v": 127
    },
    {
      "midi": 49,
      "hit": false,
      "t": 132755.64000000016,
      "d": 157.48000000001048,
      "v": 127
    },
    {
      "midi": 61,
      "hit": false,
      "t": 132755.64000000016,
      "d": 157.48000000001048,
      "v": 127
    },
    {
      "midi": 49,
      "hit": false,
      "t": 132755.6400000002,
      "d": 236.22000000000116,
      "v": 127
    },
    {
      "midi": 61,
      "hit": false,
      "t": 132755.64000000022,
      "d": 157.48000000001048,
      "v": 127
    },
    {
      "midi": 61,
      "hit": false,
      "t": 132755.64000000025,
      "d": 157.48000000001048,
      "v": 127
    },
    {
      "midi": 61,
      "hit": false,
      "t": 132755.64000000025,
      "d": 157.48000000001048,
      "v": 127
    },
    {
      "midi": 61,
      "hit": false,
      "t": 132755.64000000025,
      "d": 157.48000000001048,
      "v": 127
    },
    {
      "midi": 49,
      "hit": false,
      "t": 132755.64000000033,
      "d": 157.48000000001048,
      "v": 127
    },
    {
      "midi": 34,
      "hit": false,
      "t": 132755.6400000013,
      "d": 157.48000000001048,
      "v": 127
    },
    {
      "midi": 61,
      "hit": false,
      "t": 132755.6400000013,
      "d": 314.95999999999185,
      "v": 127
    },
    {
      "midi": 47,
      "hit": false,
      "t": 132991.86000000016,
      "d": 78.73999999999069,
      "v": 127
    },
    {
      "midi": 59,
      "hit": false,
      "t": 132991.86000000016,
      "d": 78.73999999999069,
      "v": 127
    },
    {
      "midi": 64,
      "hit": false,
      "t": 132991.86000000022,
      "d": 157.48000000001048,
      "v": 127
    },
    {
      "midi": 64,
      "hit": false,
      "t": 132991.86000000025,
      "d": 157.48000000001048,
      "v": 127
    },
    {
      "midi": 64,
      "hit": false,
      "t": 132991.86000000025,
      "d": 157.48000000001048,
      "v": 127
    },
    {
      "midi": 64,
      "hit": false,
      "t": 132991.86000000025,
      "d": 157.48000000001048,
      "v": 127
    },
    {
      "midi": 47,
      "hit": false,
      "t": 132991.86000000034,
      "d": 78.73999999999069,
      "v": 127
    },
    {
      "midi": 52,
      "hit": false,
      "t": 132991.8600000013,
      "d": 157.47999999998137,
      "v": 127
    },
    {
      "midi": 48,
      "hit": false,
      "t": 133109.97000000015,
      "d": 78.73999999999069,
      "v": 127
    },
    {
      "midi": 60,
      "hit": false,
      "t": 133109.97000000015,
      "d": 78.73999999999069,
      "v": 127
    },
    {
      "midi": 47,
      "hit": false,
      "t": 133109.97000000018,
      "d": 157.48000000001048,
      "v": 127
    },
    {
      "midi": 51,
      "hit": false,
      "t": 133109.97000000032,
      "d": 157.48000000001048,
      "v": 127
    },
    {
      "midi": 75,
      "hit": false,
      "t": 133228.08000000002,
      "d": 629.9200000000128,
      "v": 127
    },
    {
      "midi": 63,
      "hit": false,
      "t": 133228.08000000005,
      "d": 1102.3600000000151,
      "v": 127
    },
    {
      "midi": 66,
      "hit": false,
      "t": 133228.08000000005,
      "d": 629.9200000000128,
      "v": 127
    },
    {
      "midi": 49,
      "hit": false,
      "t": 133228.08000000013,
      "d": 78.73999999999069,
      "v": 127
    },
    {
      "midi": 61,
      "hit": false,
      "t": 133228.08000000013,
      "d": 78.73999999999069,
      "v": 127
    },
    {
      "midi": 63,
      "hit": false,
      "t": 133228.0800000002,
      "d": 1102.3600000000151,
      "v": 127
    },
    {
      "midi": 63,
      "hit": false,
      "t": 133228.08000000022,
      "d": 314.95999999999185,
      "v": 127
    },
    {
      "midi": 63,
      "hit": false,
      "t": 133228.08000000025,
      "d": 314.95999999999185,
      "v": 127
    },
    {
      "midi": 63,
      "hit": false,
      "t": 133228.08000000025,
      "d": 314.95999999999185,
      "v": 127
    },
    {
      "midi": 63,
      "hit": false,
      "t": 133228.08000000025,
      "d": 314.95999999999185,
      "v": 127
    },
    {
      "midi": 50,
      "hit": false,
      "t": 133228.08000000127,
      "d": 157.48000000001048,
      "v": 127
    },
    {
      "midi": 49,
      "hit": false,
      "t": 133228.08000000127,
      "d": 157.48000000001048,
      "v": 127
    },
    {
      "midi": 49,
      "hit": false,
      "t": 133346.19000000012,
      "d": 78.73999999999069,
      "v": 127
    },
    {
      "midi": 61,
      "hit": false,
      "t": 133346.19000000012,
      "d": 78.73999999999069,
      "v": 127
    },
    {
      "midi": 47,
      "hit": false,
      "t": 133346.19000000018,
      "d": 157.48000000001048,
      "v": 127
    },
    {
      "midi": 51,
      "hit": false,
      "t": 133346.19000000032,
      "d": 157.48000000001048,
      "v": 127
    },
    {
      "midi": 49,
      "hit": false,
      "t": 133464.3000000001,
      "d": 78.73999999999069,
      "v": 127
    },
    {
      "midi": 61,
      "hit": false,
      "t": 133464.3000000001,
      "d": 78.73999999999069,
      "v": 127
    },
    {
      "midi": 50,
      "hit": false,
      "t": 133464.30000000127,
      "d": 157.48000000001048,
      "v": 127
    },
    {
      "midi": 49,
      "hit": false,
      "t": 133582.4100000001,
      "d": 78.73999999999069,
      "v": 127
    },
    {
      "midi": 61,
      "hit": false,
      "t": 133582.4100000001,
      "d": 78.73999999999069,
      "v": 127
    },
    {
      "midi": 44,
      "hit": false,
      "t": 133582.41000000018,
      "d": 78.73999999999069,
      "v": 127
    },
    {
      "midi": 59,
      "hit": false,
      "t": 133582.4100000002,
      "d": 236.22000000000116,
      "v": 127
    },
    {
      "midi": 59,
      "hit": false,
      "t": 133582.41000000024,
      "d": 236.22000000000116,
      "v": 127
    },
    {
      "midi": 59,
      "hit": false,
      "t": 133582.41000000024,
      "d": 236.22000000000116,
      "v": 127
    },
    {
      "midi": 59,
      "hit": false,
      "t": 133582.41000000024,
      "d": 236.22000000000116,
      "v": 127
    },
    {
      "midi": 47,
      "hit": false,
      "t": 133582.41000000032,
      "d": 78.73999999999069,
      "v": 127
    },
    {
      "midi": 52,
      "hit": false,
      "t": 133700.52000000008,
      "d": 78.73999999999069,
      "v": 127
    },
    {
      "midi": 64,
      "hit": false,
      "t": 133700.52000000008,
      "d": 78.73999999999069,
      "v": 127
    },
    {
      "midi": 47,
      "hit": false,
      "t": 133700.52000000016,
      "d": 157.48000000001048,
      "v": 127
    },
    {
      "midi": 51,
      "hit": false,
      "t": 133700.5200000003,
      "d": 157.48000000001048,
      "v": 127
    },
    {
      "midi": 59,
      "hit": false,
      "t": 133700.52000000127,
      "d": 157.48000000001048,
      "v": 127
    },
    {
      "midi": 51,
      "hit": false,
      "t": 133818.63000000006,
      "d": 78.73999999999069,
      "v": 127
    },
    {
      "midi": 63,
      "hit": false,
      "t": 133818.63000000006,
      "d": 78.73999999999069,
      "v": 127
    },
    {
      "midi": 49,
      "hit": false,
      "t": 133936.74000000005,
      "d": 157.48000000001048,
      "v": 127
    },
    {
      "midi": 61,
      "hit": false,
      "t": 133936.74000000005,
      "d": 157.48000000001048,
      "v": 127
    },
    {
      "midi": 49,
      "hit": false,
      "t": 133936.74000000017,
      "d": 157.48000000001048,
      "v": 127
    },
    {
      "midi": 61,
      "hit": false,
      "t": 133936.7400000002,
      "d": 157.48000000001048,
      "v": 127
    },
    {
      "midi": 61,
      "hit": false,
      "t": 133936.74000000022,
      "d": 157.48000000001048,
      "v": 127
    },
    {
      "midi": 61,
      "hit": false,
      "t": 133936.74000000022,
      "d": 157.48000000001048,
      "v": 127
    },
    {
      "midi": 61,
      "hit": false,
      "t": 133936.74000000022,
      "d": 157.48000000001048,
      "v": 127
    },
    {
      "midi": 47,
      "hit": false,
      "t": 133936.7400000003,
      "d": 157.48000000001048,
      "v": 127
    },
    {
      "midi": 52,
      "hit": false,
      "t": 133936.74000000127,
      "d": 157.48000000001048,
      "v": 127
    },
    {
      "midi": 71,
      "hit": false,
      "t": 134172.96000000002,
      "d": 629.9200000000128,
      "v": 127
    },
    {
      "midi": 59,
      "hit": false,
      "t": 134172.96000000005,
      "d": 1263.7769999999728,
      "v": 127
    },
    {
      "midi": 56,
      "hit": false,
      "t": 134172.96000000005,
      "d": 157.48000000001048,
      "v": 127
    },
    {
      "midi": 44,
      "hit": false,
      "t": 134172.96000000005,
      "d": 157.48000000001048,
      "v": 127
    },
    {
      "midi": 63,
      "hit": false,
      "t": 134172.96000000005,
      "d": 629.9200000000128,
      "v": 127
    },
    {
      "midi": 44,
      "hit": false,
      "t": 134172.96000000017,
      "d": 157.48000000001048,
      "v": 127
    },
    {
      "midi": 59,
      "hit": false,
      "t": 134172.9600000002,
      "d": 1263.7769999999728,
      "v": 127
    },
    {
      "midi": 56,
      "hit": false,
      "t": 134172.9600000002,
      "d": 629.9200000000128,
      "v": 127
    },
    {
      "midi": 56,
      "hit": false,
      "t": 134172.96000000022,
      "d": 629.9200000000128,
      "v": 127
    },
    {
      "midi": 56,
      "hit": false,
      "t": 134172.96000000022,
      "d": 629.9200000000128,
      "v": 127
    },
    {
      "midi": 56,
      "hit": false,
      "t": 134172.96000000022,
      "d": 629.9200000000128,
      "v": 127
    },
    {
      "midi": 49,
      "hit": false,
      "t": 134172.96000000127,
      "d": 157.48000000001048,
      "v": 127
    },
    {
      "midi": 56,
      "hit": false,
      "t": 134409.18000000005,
      "d": 157.48000000001048,
      "v": 127
    },
    {
      "midi": 44,
      "hit": false,
      "t": 134409.18000000005,
      "d": 157.48000000001048,
      "v": 127
    },
    {
      "midi": 44,
      "hit": false,
      "t": 134409.18000000017,
      "d": 157.48000000001048,
      "v": 127
    },
    {
      "midi": 36,
      "hit": false,
      "t": 134409.18000000127,
      "d": 157.48000000001048,
      "v": 127
    },
    {
      "midi": 56,
      "hit": false,
      "t": 134645.40000000005,
      "d": 157.48000000001048,
      "v": 127
    },
    {
      "midi": 44,
      "hit": false,
      "t": 134645.40000000005,
      "d": 157.48000000001048,
      "v": 127
    },
    {
      "midi": 47,
      "hit": false,
      "t": 134645.40000000017,
      "d": 157.48000000001048,
      "v": 127
    },
    {
      "midi": 34,
      "hit": false,
      "t": 134645.40000000127,
      "d": 157.48000000001048,
      "v": 127
    },
    {
      "midi": 59,
      "hit": false,
      "t": 134645.40000000127,
      "d": 314.95999999999185,
      "v": 127
    },
    {
      "midi": 56,
      "hit": false,
      "t": 134881.62000000005,
      "d": 78.73999999999069,
      "v": 127
    },
    {
      "midi": 44,
      "hit": false,
      "t": 134881.62000000005,
      "d": 78.73999999999069,
      "v": 127
    },
    {
      "midi": 47,
      "hit": false,
      "t": 134881.62000000017,
      "d": 78.73999999999069,
      "v": 127
    },
    {
      "midi": 52,
      "hit": false,
      "t": 134881.62000000128,
      "d": 157.47999999998137,
      "v": 127
    },
    {
      "midi": 56,
      "hit": false,
      "t": 134999.73000000004,
      "d": 78.73999999999069,
      "v": 127
    },
    {
      "midi": 44,
      "hit": false,
      "t": 134999.73000000004,
      "d": 78.73999999999069,
      "v": 127
    },
    {
      "midi": 47,
      "hit": false,
      "t": 134999.73000000016,
      "d": 78.73999999999069,
      "v": 127
    },
    {
      "midi": 68,
      "hit": false,
      "t": 135117.84000000003,
      "d": 78.73999999999069,
      "v": 127
    },
    {
      "midi": 56,
      "hit": false,
      "t": 135117.84000000003,
      "d": 78.73999999999069,
      "v": 127
    },
    {
      "midi": 63,
      "hit": false,
      "t": 135117.84000000003,
      "d": 157.47999999998137,
      "v": 64
    },
    {
      "midi": 68,
      "hit": false,
      "t": 135117.84000000005,
      "d": 78.73999999999069,
      "v": 127
    },
    {
      "midi": 68,
      "hit": false,
      "t": 135117.8400000002,
      "d": 78.73999999999069,
      "v": 127
    },
    {
      "midi": 49,
      "hit": false,
      "t": 135117.84000000125,
      "d": 157.47999999998137,
      "v": 123
    },
    {
      "midi": 68,
      "hit": false,
      "t": 135235.95,
      "d": 78.73999999999069,
      "v": 127
    },
    {
      "midi": 56,
      "hit": false,
      "t": 135235.95,
      "d": 78.73999999999069,
      "v": 127
    },
    {
      "midi": 68,
      "hit": false,
      "t": 135235.95000000004,
      "d": 39.36999999999534,
      "v": 127
    },
    {
      "midi": 68,
      "hit": false,
      "t": 135235.95000000013,
      "d": 39.36999999999534,
      "v": 127
    },
    {
      "midi": 68,
      "hit": false,
      "t": 135235.9500000002,
      "d": 39.36999999999534,
      "v": 127
    },
    {
      "midi": 63,
      "hit": false,
      "t": 135235.95000000123,
      "d": 39.36999999999534,
      "v": 123
    },
    {
      "midi": 68,
      "hit": false,
      "t": 135354.06,
      "d": 78.73999999999069,
      "v": 127
    },
    {
      "midi": 56,
      "hit": false,
      "t": 135354.06,
      "d": 78.73999999999069,
      "v": 127
    },
    {
      "midi": 68,
      "hit": false,
      "t": 135354.06000000003,
      "d": 78.73999999999069,
      "v": 127
    },
    {
      "midi": 68,
      "hit": false,
      "t": 135354.06000000017,
      "d": 78.73999999999069,
      "v": 127
    },
    {
      "midi": 36,
      "hit": false,
      "t": 135354.06000000122,
      "d": 157.48000000001048,
      "v": 123
    },
    {
      "midi": 68,
      "hit": false,
      "t": 135472.16999999998,
      "d": 78.73999999999069,
      "v": 127
    },
    {
      "midi": 56,
      "hit": false,
      "t": 135472.16999999998,
      "d": 78.73999999999069,
      "v": 127
    },
    {
      "midi": 68,
      "hit": false,
      "t": 135472.17,
      "d": 39.36999999999534,
      "v": 127
    },
    {
      "midi": 68,
      "hit": false,
      "t": 135472.1700000001,
      "d": 39.36999999999534,
      "v": 127
    },
    {
      "midi": 68,
      "hit": false,
      "t": 135472.17000000016,
      "d": 39.36999999999534,
      "v": 127
    },
    {
      "midi": 68,
      "hit": false,
      "t": 135590.27999999997,
      "d": 78.73999999999069,
      "v": 127
    },
    {
      "midi": 56,
      "hit": false,
      "t": 135590.27999999997,
      "d": 78.73999999999069,
      "v": 127
    },
    {
      "midi": 63,
      "hit": false,
      "t": 135590.27999999997,
      "d": 157.47999999998137,
      "v": 64
    },
    {
      "midi": 68,
      "hit": false,
      "t": 135590.28,
      "d": 157.48000000001048,
      "v": 127
    },
    {
      "midi": 68,
      "hit": false,
      "t": 135590.2800000001,
      "d": 78.73999999999069,
      "v": 127
    },
    {
      "midi": 68,
      "hit": false,
      "t": 135590.28000000014,
      "d": 157.48000000001048,
      "v": 127
    },
    {
      "midi": 68,
      "hit": false,
      "t": 135708.38999999996,
      "d": 78.73999999999069,
      "v": 127
    },
    {
      "midi": 56,
      "hit": false,
      "t": 135708.38999999996,
      "d": 78.73999999999069,
      "v": 127
    },
    {
      "midi": 68,
      "hit": false,
      "t": 135708.39000000007,
      "d": 78.73999999999069,
      "v": 127
    },
    {
      "midi": 63,
      "hit": false,
      "t": 135708.3900000012,
      "d": 39.36999999999534,
      "v": 123
    },
    {
      "midi": 68,
      "hit": false,
      "t": 135826.49999999994,
      "d": 157.48000000001048,
      "v": 127
    },
    {
      "midi": 56,
      "hit": false,
      "t": 135826.49999999994,
      "d": 157.48000000001048,
      "v": 127
    },
    {
      "midi": 68,
      "hit": false,
      "t": 135826.50000000006,
      "d": 157.48000000001048,
      "v": 127
    },
    {
      "midi": 63,
      "hit": false,
      "t": 135826.5000000012,
      "d": 157.48000000001048,
      "v": 123
    },
    {
      "midi": 49,
      "hit": false,
      "t": 136062.71999999994,
      "d": 157.48000000001048,
      "v": 127
    },
    {
      "midi": 61,
      "hit": false,
      "t": 136062.71999999994,
      "d": 157.48000000001048,
      "v": 127
    },
    {
      "midi": 64,
      "hit": false,
      "t": 136062.72,
      "d": 314.95999999999185,
      "v": 127
    },
    {
      "midi": 37,
      "hit": false,
      "t": 136062.72000000006,
      "d": 157.48000000001048,
      "v": 127
    },
    {
      "midi": 64,
      "hit": false,
      "t": 136062.72000000006,
      "d": 314.95999999999185,
      "v": 127
    },
    {
      "midi": 64,
      "hit": false,
      "t": 136062.72000000015,
      "d": 314.95999999999185,
      "v": 127
    },
    {
      "midi": 64,
      "hit": false,
      "t": 136062.7200000002,
      "d": 314.95999999999185,
      "v": 127
    },
    {
      "midi": 64,
      "hit": false,
      "t": 136062.72000000023,
      "d": 314.95999999999185,
      "v": 127
    },
    {
      "midi": 64,
      "hit": false,
      "t": 136062.72000000023,
      "d": 314.95999999999185,
      "v": 127
    },
    {
      "midi": 64,
      "hit": false,
      "t": 136062.72000000023,
      "d": 314.95999999999185,
      "v": 127
    },
    {
      "midi": 49,
      "hit": false,
      "t": 136062.72000000032,
      "d": 157.48000000001048,
      "v": 127
    },
    {
      "midi": 49,
      "hit": false,
      "t": 136298.93999999994,
      "d": 157.48000000001048,
      "v": 127
    },
    {
      "midi": 61,
      "hit": false,
      "t": 136298.93999999994,
      "d": 157.48000000001048,
      "v": 127
    },
    {
      "midi": 37,
      "hit": false,
      "t": 136298.94000000006,
      "d": 157.47999999998137,
      "v": 127
    },
    {
      "midi": 49,
      "hit": false,
      "t": 136298.94000000032,
      "d": 157.48000000001048,
      "v": 127
    },
    {
      "midi": 49,
      "hit": false,
      "t": 136535.15999999995,
      "d": 157.48000000001048,
      "v": 127
    },
    {
      "midi": 61,
      "hit": false,
      "t": 136535.15999999995,
      "d": 157.48000000001048,
      "v": 127
    },
    {
      "midi": 61,
      "hit": false,
      "t": 136535.16,
      "d": 314.95999999999185,
      "v": 127
    },
    {
      "midi": 49,
      "hit": false,
      "t": 136535.16000000003,
      "d": 236.22000000000116,
      "v": 127
    },
    {
      "midi": 61,
      "hit": false,
      "t": 136535.16000000003,
      "d": 314.95999999999185,
      "v": 127
    },
    {
      "midi": 61,
      "hit": false,
      "t": 136535.16000000015,
      "d": 314.95999999999185,
      "v": 127
    },
    {
      "midi": 61,
      "hit": false,
      "t": 136535.1600000002,
      "d": 314.95999999999185,
      "v": 127
    },
    {
      "midi": 61,
      "hit": false,
      "t": 136535.16000000024,
      "d": 314.95999999999185,
      "v": 127
    },
    {
      "midi": 61,
      "hit": false,
      "t": 136535.16000000024,
      "d": 314.95999999999185,
      "v": 127
    },
    {
      "midi": 61,
      "hit": false,
      "t": 136535.16000000024,
      "d": 314.95999999999185,
      "v": 127
    },
    {
      "midi": 49,
      "hit": false,
      "t": 136535.16000000032,
      "d": 236.22000000000116,
      "v": 127
    },
    {
      "midi": 47,
      "hit": false,
      "t": 136771.37999999995,
      "d": 78.73999999999069,
      "v": 127
    },
    {
      "midi": 59,
      "hit": false,
      "t": 136771.37999999995,
      "d": 78.73999999999069,
      "v": 127
    },
    {
      "midi": 48,
      "hit": false,
      "t": 136889.48999999993,
      "d": 78.73999999999069,
      "v": 127
    },
    {
      "midi": 60,
      "hit": false,
      "t": 136889.48999999993,
      "d": 78.73999999999069,
      "v": 127
    },
    {
      "midi": 47,
      "hit": false,
      "t": 136889.49000000002,
      "d": 157.48000000001048,
      "v": 127
    },
    {
      "midi": 47,
      "hit": false,
      "t": 136889.4900000003,
      "d": 78.73999999999069,
      "v": 127
    },
    {
      "midi": 49,
      "hit": false,
      "t": 137007.59999999992,
      "d": 78.73999999999069,
      "v": 127
    },
    {
      "midi": 61,
      "hit": false,
      "t": 137007.59999999992,
      "d": 78.73999999999069,
      "v": 127
    },
    {
      "midi": 59,
      "hit": false,
      "t": 137007.6000000002,
      "d": 157.48000000001048,
      "v": 127
    },
    {
      "midi": 59,
      "hit": false,
      "t": 137007.60000000024,
      "d": 157.48000000001048,
      "v": 127
    },
    {
      "midi": 59,
      "hit": false,
      "t": 137007.60000000024,
      "d": 157.48000000001048,
      "v": 127
    },
    {
      "midi": 59,
      "hit": false,
      "t": 137007.60000000024,
      "d": 157.48000000001048,
      "v": 127
    },
    {
      "midi": 49,
      "hit": false,
      "t": 137007.6000000003,
      "d": 157.48000000001048,
      "v": 127
    },
    {
      "midi": 49,
      "hit": false,
      "t": 137125.7099999999,
      "d": 78.73999999999069,
      "v": 127
    },
    {
      "midi": 61,
      "hit": false,
      "t": 137125.7099999999,
      "d": 78.73999999999069,
      "v": 127
    },
    {
      "midi": 47,
      "hit": false,
      "t": 137125.71000000002,
      "d": 157.48000000001048,
      "v": 127
    },
    {
      "midi": 49,
      "hit": false,
      "t": 137243.8199999999,
      "d": 78.73999999999069,
      "v": 127
    },
    {
      "midi": 61,
      "hit": false,
      "t": 137243.8199999999,
      "d": 78.73999999999069,
      "v": 127
    },
    {
      "midi": 61,
      "hit": false,
      "t": 137243.8200000002,
      "d": 78.73999999999069,
      "v": 127
    },
    {
      "midi": 61,
      "hit": false,
      "t": 137243.82000000024,
      "d": 78.73999999999069,
      "v": 127
    },
    {
      "midi": 61,
      "hit": false,
      "t": 137243.82000000024,
      "d": 78.73999999999069,
      "v": 127
    },
    {
      "midi": 61,
      "hit": false,
      "t": 137243.82000000024,
      "d": 78.73999999999069,
      "v": 127
    },
    {
      "midi": 49,
      "hit": false,
      "t": 137243.8200000003,
      "d": 78.73999999999069,
      "v": 127
    },
    {
      "midi": 49,
      "hit": false,
      "t": 137361.92999999988,
      "d": 78.73999999999069,
      "v": 127
    },
    {
      "midi": 61,
      "hit": false,
      "t": 137361.92999999988,
      "d": 78.73999999999069,
      "v": 127
    },
    {
      "midi": 44,
      "hit": false,
      "t": 137361.93000000002,
      "d": 78.73999999999069,
      "v": 127
    },
    {
      "midi": 61,
      "hit": false,
      "t": 137361.9300000002,
      "d": 314.95999999999185,
      "v": 127
    },
    {
      "midi": 61,
      "hit": false,
      "t": 137361.93000000023,
      "d": 314.95999999999185,
      "v": 127
    },
    {
      "midi": 61,
      "hit": false,
      "t": 137361.93000000023,
      "d": 314.95999999999185,
      "v": 127
    },
    {
      "midi": 61,
      "hit": false,
      "t": 137361.93000000023,
      "d": 314.95999999999185,
      "v": 127
    },
    {
      "midi": 52,
      "hit": false,
      "t": 137361.93000000028,
      "d": 433.070000000007,
      "v": 127
    },
    {
      "midi": 52,
      "hit": false,
      "t": 137480.03999999986,
      "d": 78.73999999999069,
      "v": 127
    },
    {
      "midi": 64,
      "hit": false,
      "t": 137480.03999999986,
      "d": 78.73999999999069,
      "v": 127
    },
    {
      "midi": 47,
      "hit": false,
      "t": 137480.04,
      "d": 157.48000000001048,
      "v": 127
    },
    {
      "midi": 51,
      "hit": false,
      "t": 137598.14999999985,
      "d": 78.73999999999069,
      "v": 127
    },
    {
      "midi": 64,
      "hit": false,
      "t": 137598.14999999985,
      "d": 78.73999999999069,
      "v": 127
    },
    {
      "midi": 49,
      "hit": false,
      "t": 137716.25999999983,
      "d": 157.48000000001048,
      "v": 127
    },
    {
      "midi": 61,
      "hit": false,
      "t": 137716.25999999983,
      "d": 157.48000000001048,
      "v": 127
    },
    {
      "midi": 49,
      "hit": false,
      "t": 137716.26,
      "d": 157.48000000001048,
      "v": 127
    },
    {
      "midi": 56,
      "hit": false,
      "t": 137834.3700000002,
      "d": 78.73999999999069,
      "v": 127
    },
    {
      "midi": 56,
      "hit": false,
      "t": 137834.37000000023,
      "d": 78.73999999999069,
      "v": 127
    },
    {
      "midi": 56,
      "hit": false,
      "t": 137834.37000000023,
      "d": 78.73999999999069,
      "v": 127
    },
    {
      "midi": 56,
      "hit": false,
      "t": 137834.37000000023,
      "d": 78.73999999999069,
      "v": 127
    },
    {
      "midi": 44,
      "hit": false,
      "t": 137834.3700000003,
      "d": 78.73999999999069,
      "v": 127
    },
    {
      "midi": 47,
      "hit": false,
      "t": 137952.47999999984,
      "d": 157.48000000001048,
      "v": 127
    },
    {
      "midi": 59,
      "hit": false,
      "t": 137952.47999999984,
      "d": 157.48000000001048,
      "v": 127
    },
    {
      "midi": 68,
      "hit": false,
      "t": 137952.47999999998,
      "d": 314.96000000002095,
      "v": 127
    },
    {
      "midi": 63,
      "hit": false,
      "t": 137952.47999999998,
      "d": 2047.2400000000198,
      "v": 127
    },
    {
      "midi": 35,
      "hit": false,
      "t": 137952.48,
      "d": 157.48000000001048,
      "v": 127
    },
    {
      "midi": 68,
      "hit": false,
      "t": 137952.48,
      "d": 314.95999999999185,
      "v": 127
    },
    {
      "midi": 64,
      "hit": false,
      "t": 137952.48000000013,
      "d": 157.48000000001048,
      "v": 127
    },
    {
      "midi": 68,
      "hit": false,
      "t": 137952.48000000013,
      "d": 157.48000000001048,
      "v": 127
    },
    {
      "midi": 63,
      "hit": false,
      "t": 137952.48000000013,
      "d": 2047.2400000000198,
      "v": 127
    },
    {
      "midi": 59,
      "hit": false,
      "t": 137952.48000000019,
      "d": 157.48000000001048,
      "v": 127
    },
    {
      "midi": 59,
      "hit": false,
      "t": 137952.4800000002,
      "d": 157.48000000001048,
      "v": 127
    },
    {
      "midi": 59,
      "hit": false,
      "t": 137952.4800000002,
      "d": 157.48000000001048,
      "v": 127
    },
    {
      "midi": 59,
      "hit": false,
      "t": 137952.4800000002,
      "d": 157.48000000001048,
      "v": 127
    },
    {
      "midi": 47,
      "hit": false,
      "t": 137952.48000000027,
      "d": 157.48000000001048,
      "v": 127
    },
    {
      "midi": 49,
      "hit": false,
      "t": 137952.4800000012,
      "d": 157.48000000001048,
      "v": 127
    },
    {
      "midi": 59,
      "hit": false,
      "t": 138188.69999999984,
      "d": 157.48000000001048,
      "v": 127
    },
    {
      "midi": 47,
      "hit": false,
      "t": 138188.69999999984,
      "d": 157.48000000001048,
      "v": 127
    },
    {
      "midi": 35,
      "hit": false,
      "t": 138188.7,
      "d": 157.47999999998137,
      "v": 127
    },
    {
      "midi": 59,
      "hit": false,
      "t": 138188.7000000002,
      "d": 157.48000000001048,
      "v": 127
    },
    {
      "midi": 59,
      "hit": false,
      "t": 138188.70000000022,
      "d": 157.48000000001048,
      "v": 127
    },
    {
      "midi": 59,
      "hit": false,
      "t": 138188.70000000022,
      "d": 157.48000000001048,
      "v": 127
    },
    {
      "midi": 59,
      "hit": false,
      "t": 138188.70000000022,
      "d": 157.48000000001048,
      "v": 127
    },
    {
      "midi": 47,
      "hit": false,
      "t": 138188.70000000027,
      "d": 157.48000000001048,
      "v": 127
    },
    {
      "midi": 36,
      "hit": false,
      "t": 138188.7000000012,
      "d": 157.47999999998137,
      "v": 127
    },
    {
      "midi": 59,
      "hit": false,
      "t": 138424.91999999984,
      "d": 157.48000000001048,
      "v": 127
    },
    {
      "midi": 47,
      "hit": false,
      "t": 138424.91999999984,
      "d": 157.48000000001048,
      "v": 127
    },
    {
      "midi": 47,
      "hit": false,
      "t": 138424.91999999998,
      "d": 236.22000000000116,
      "v": 127
    },
    {
      "midi": 59,
      "hit": false,
      "t": 138424.9200000002,
      "d": 157.48000000001048,
      "v": 127
    },
    {
      "midi": 59,
      "hit": false,
      "t": 138424.92000000022,
      "d": 157.48000000001048,
      "v": 127
    },
    {
      "midi": 59,
      "hit": false,
      "t": 138424.92000000022,
      "d": 157.48000000001048,
      "v": 127
    },
    {
      "midi": 59,
      "hit": false,
      "t": 138424.92000000022,
      "d": 157.48000000001048,
      "v": 127
    },
    {
      "midi": 47,
      "hit": false,
      "t": 138424.92000000027,
      "d": 157.48000000001048,
      "v": 127
    },
    {
      "midi": 59,
      "hit": false,
      "t": 138424.92000000118,
      "d": 314.95999999999185,
      "v": 127
    },
    {
      "midi": 56,
      "hit": false,
      "t": 138661.13999999984,
      "d": 78.73999999999069,
      "v": 127
    },
    {
      "midi": 44,
      "hit": false,
      "t": 138661.13999999984,
      "d": 78.73999999999069,
      "v": 127
    },
    {
      "midi": 61,
      "hit": false,
      "t": 138661.1400000002,
      "d": 78.73999999999069,
      "v": 127
    },
    {
      "midi": 61,
      "hit": false,
      "t": 138661.14000000022,
      "d": 78.73999999999069,
      "v": 127
    },
    {
      "midi": 61,
      "hit": false,
      "t": 138661.14000000022,
      "d": 78.73999999999069,
      "v": 127
    },
    {
      "midi": 61,
      "hit": false,
      "t": 138661.14000000022,
      "d": 78.73999999999069,
      "v": 127
    },
    {
      "midi": 44,
      "hit": false,
      "t": 138661.14000000028,
      "d": 78.73999999999069,
      "v": 127
    },
    {
      "midi": 52,
      "hit": false,
      "t": 138661.14000000118,
      "d": 157.47999999998137,
      "v": 127
    },
    {
      "midi": 59,
      "hit": false,
      "t": 138779.24999999983,
      "d": 78.73999999999069,
      "v": 127
    },
    {
      "midi": 47,
      "hit": false,
      "t": 138779.24999999983,
      "d": 78.73999999999069,
      "v": 127
    },
    {
      "midi": 44,
      "hit": false,
      "t": 138779.24999999997,
      "d": 157.48000000001048,
      "v": 127
    },
    {
      "midi": 59,
      "hit": false,
      "t": 138779.25000000017,
      "d": 629.9200000000128,
      "v": 127
    },
    {
      "midi": 59,
      "hit": false,
      "t": 138779.2500000002,
      "d": 629.9200000000128,
      "v": 127
    },
    {
      "midi": 59,
      "hit": false,
      "t": 138779.2500000002,
      "d": 629.9200000000128,
      "v": 127
    },
    {
      "midi": 59,
      "hit": false,
      "t": 138779.2500000002,
      "d": 629.9200000000128,
      "v": 127
    },
    {
      "midi": 47,
      "hit": false,
      "t": 138779.25000000026,
      "d": 157.48000000001048,
      "v": 127
    },
    {
      "midi": 59,
      "hit": false,
      "t": 138897.3599999998,
      "d": 78.73999999999069,
      "v": 127
    },
    {
      "midi": 47,
      "hit": false,
      "t": 138897.3599999998,
      "d": 78.73999999999069,
      "v": 127
    },
    {
      "midi": 68,
      "hit": false,
      "t": 138897.36000000004,
      "d": 314.95999999999185,
      "v": 127
    },
    {
      "midi": 50,
      "hit": false,
      "t": 138897.36000000115,
      "d": 236.22000000000116,
      "v": 127
    },
    {
      "midi": 49,
      "hit": false,
      "t": 138897.36000000115,
      "d": 314.95999999999185,
      "v": 127
    },
    {
      "midi": 59,
      "hit": false,
      "t": 139015.4699999998,
      "d": 78.73999999999069,
      "v": 127
    },
    {
      "midi": 47,
      "hit": false,
      "t": 139015.4699999998,
      "d": 78.73999999999069,
      "v": 127
    },
    {
      "midi": 44,
      "hit": false,
      "t": 139015.46999999997,
      "d": 157.48000000001048,
      "v": 127
    },
    {
      "midi": 47,
      "hit": false,
      "t": 139015.47000000026,
      "d": 157.48000000001048,
      "v": 127
    },
    {
      "midi": 59,
      "hit": false,
      "t": 139133.57999999978,
      "d": 78.73999999999069,
      "v": 127
    },
    {
      "midi": 47,
      "hit": false,
      "t": 139133.57999999978,
      "d": 78.73999999999069,
      "v": 127
    },
    {
      "midi": 59,
      "hit": false,
      "t": 139251.68999999977,
      "d": 78.73999999999069,
      "v": 127
    },
    {
      "midi": 47,
      "hit": false,
      "t": 139251.68999999977,
      "d": 78.73999999999069,
      "v": 127
    },
    {
      "midi": 42,
      "hit": false,
      "t": 139251.68999999997,
      "d": 78.73999999999069,
      "v": 127
    },
    {
      "midi": 44,
      "hit": false,
      "t": 139251.69000000026,
      "d": 78.73999999999069,
      "v": 127
    },
    {
      "midi": 50,
      "hit": false,
      "t": 139251.69000000114,
      "d": 236.21999999997206,
      "v": 127
    },
    {
      "midi": 61,
      "hit": false,
      "t": 139369.79999999976,
      "d": 78.73999999999069,
      "v": 127
    },
    {
      "midi": 49,
      "hit": false,
      "t": 139369.79999999976,
      "d": 78.73999999999069,
      "v": 127
    },
    {
      "midi": 40,
      "hit": false,
      "t": 139369.79999999996,
      "d": 157.48000000001048,
      "v": 127
    },
    {
      "midi": 71,
      "hit": false,
      "t": 139369.80000000005,
      "d": 314.95999999999185,
      "v": 127
    },
    {
      "midi": 47,
      "hit": false,
      "t": 139369.80000000025,
      "d": 157.48000000001048,
      "v": 127
    },
    {
      "midi": 59,
      "hit": false,
      "t": 139369.80000000112,
      "d": 314.95999999996275,
      "v": 127
    },
    {
      "midi": 59,
      "hit": false,
      "t": 139487.90999999974,
      "d": 78.73999999999069,
      "v": 127
    },
    {
      "midi": 47,
      "hit": false,
      "t": 139487.90999999974,
      "d": 78.73999999999069,
      "v": 127
    },
    {
      "midi": 57,
      "hit": false,
      "t": 139606.01999999973,
      "d": 157.48000000001048,
      "v": 127
    },
    {
      "midi": 45,
      "hit": false,
      "t": 139606.01999999973,
      "d": 157.48000000001048,
      "v": 127
    },
    {
      "midi": 42,
      "hit": false,
      "t": 139606.01999999996,
      "d": 157.48000000001048,
      "v": 127
    },
    {
      "midi": 59,
      "hit": false,
      "t": 139606.0200000002,
      "d": 157.48000000001048,
      "v": 127
    },
    {
      "midi": 59,
      "hit": false,
      "t": 139606.02000000022,
      "d": 157.48000000001048,
      "v": 127
    },
    {
      "midi": 59,
      "hit": false,
      "t": 139606.02000000022,
      "d": 157.48000000001048,
      "v": 127
    },
    {
      "midi": 59,
      "hit": false,
      "t": 139606.02000000022,
      "d": 157.48000000001048,
      "v": 127
    },
    {
      "midi": 49,
      "hit": false,
      "t": 139606.02000000025,
      "d": 157.48000000001048,
      "v": 127
    },
    {
      "midi": 52,
      "hit": false,
      "t": 139606.0200000011,
      "d": 157.47999999998137,
      "v": 127
    },
    {
      "midi": 57,
      "hit": false,
      "t": 139842.23999999973,
      "d": 157.48000000001048,
      "v": 127
    },
    {
      "midi": 45,
      "hit": false,
      "t": 139842.23999999973,
      "d": 157.48000000001048,
      "v": 127
    },
    {
      "midi": 61,
      "hit": false,
      "t": 139842.24,
      "d": 944.8800000000047,
      "v": 127
    },
    {
      "midi": 73,
      "hit": false,
      "t": 139842.24000000005,
      "d": 629.9200000000128,
      "v": 127
    },
    {
      "midi": 61,
      "hit": false,
      "t": 139842.24000000014,
      "d": 944.8800000000047,
      "v": 127
    },
    {
      "midi": 61,
      "hit": false,
      "t": 139842.2400000002,
      "d": 314.95999999999185,
      "v": 127
    },
    {
      "midi": 61,
      "hit": false,
      "t": 139842.24000000022,
      "d": 314.95999999999185,
      "v": 127
    },
    {
      "midi": 61,
      "hit": false,
      "t": 139842.24000000022,
      "d": 314.95999999999185,
      "v": 127
    },
    {
      "midi": 61,
      "hit": false,
      "t": 139842.24000000022,
      "d": 314.95999999999185,
      "v": 127
    },
    {
      "midi": 45,
      "hit": false,
      "t": 139842.24000000025,
      "d": 157.48000000001048,
      "v": 127
    },
    {
      "midi": 57,
      "hit": false,
      "t": 140078.45999999973,
      "d": 157.48000000001048,
      "v": 127
    },
    {
      "midi": 45,
      "hit": false,
      "t": 140078.45999999973,
      "d": 157.48000000001048,
      "v": 127
    },
    {
      "midi": 40,
      "hit": false,
      "t": 140078.46000000025,
      "d": 157.48000000001048,
      "v": 127
    },
    {
      "midi": 57,
      "hit": false,
      "t": 140314.67999999973,
      "d": 157.48000000001048,
      "v": 127
    },
    {
      "midi": 45,
      "hit": false,
      "t": 140314.67999999973,
      "d": 157.48000000001048,
      "v": 127
    },
    {
      "midi": 61,
      "hit": false,
      "t": 140314.6800000002,
      "d": 157.48000000001048,
      "v": 127
    },
    {
      "midi": 61,
      "hit": false,
      "t": 140314.68000000023,
      "d": 157.48000000001048,
      "v": 127
    },
    {
      "midi": 61,
      "hit": false,
      "t": 140314.68000000023,
      "d": 157.48000000001048,
      "v": 127
    },
    {
      "midi": 61,
      "hit": false,
      "t": 140314.68000000023,
      "d": 157.48000000001048,
      "v": 127
    },
    {
      "midi": 45,
      "hit": false,
      "t": 140314.68000000025,
      "d": 157.48000000001048,
      "v": 127
    },
    {
      "midi": 57,
      "hit": false,
      "t": 140550.89999999973,
      "d": 78.73999999999069,
      "v": 127
    },
    {
      "midi": 45,
      "hit": false,
      "t": 140550.89999999973,
      "d": 78.73999999999069,
      "v": 127
    },
    {
      "midi": 64,
      "hit": false,
      "t": 140550.9000000002,
      "d": 157.48000000001048,
      "v": 127
    },
    {
      "midi": 64,
      "hit": false,
      "t": 140550.90000000023,
      "d": 157.48000000001048,
      "v": 127
    },
    {
      "midi": 64,
      "hit": false,
      "t": 140550.90000000023,
      "d": 157.48000000001048,
      "v": 127
    },
    {
      "midi": 64,
      "hit": false,
      "t": 140550.90000000023,
      "d": 157.48000000001048,
      "v": 127
    },
    {
      "midi": 49,
      "hit": false,
      "t": 140550.90000000026,
      "d": 157.48000000001048,
      "v": 127
    },
    {
      "midi": 57,
      "hit": false,
      "t": 140669.00999999972,
      "d": 78.73999999999069,
      "v": 127
    },
    {
      "midi": 45,
      "hit": false,
      "t": 140669.00999999972,
      "d": 78.73999999999069,
      "v": 127
    },
    {
      "midi": 59,
      "hit": false,
      "t": 140787.1199999997,
      "d": 78.73999999999069,
      "v": 127
    },
    {
      "midi": 47,
      "hit": false,
      "t": 140787.1199999997,
      "d": 78.73999999999069,
      "v": 127
    },
    {
      "midi": 63,
      "hit": false,
      "t": 140787.12,
      "d": 1102.3600000000151,
      "v": 127
    },
    {
      "midi": 75,
      "hit": false,
      "t": 140787.12000000005,
      "d": 629.9200000000128,
      "v": 127
    },
    {
      "midi": 63,
      "hit": false,
      "t": 140787.12000000014,
      "d": 1102.3600000000151,
      "v": 127
    },
    {
      "midi": 63,
      "hit": false,
      "t": 140787.1200000002,
      "d": 236.22000000000116,
      "v": 127
    },
    {
      "midi": 63,
      "hit": false,
      "t": 140787.12000000023,
      "d": 236.22000000000116,
      "v": 127
    },
    {
      "midi": 63,
      "hit": false,
      "t": 140787.12000000023,
      "d": 236.22000000000116,
      "v": 127
    },
    {
      "midi": 63,
      "hit": false,
      "t": 140787.12000000023,
      "d": 236.22000000000116,
      "v": 127
    },
    {
      "midi": 47,
      "hit": false,
      "t": 140787.12000000026,
      "d": 236.22000000000116,
      "v": 127
    },
    {
      "midi": 59,
      "hit": false,
      "t": 140905.2299999997,
      "d": 78.73999999999069,
      "v": 127
    },
    {
      "midi": 47,
      "hit": false,
      "t": 140905.2299999997,
      "d": 78.73999999999069,
      "v": 127
    },
    {
      "midi": 59,
      "hit": false,
      "t": 141023.33999999968,
      "d": 78.73999999999069,
      "v": 127
    },
    {
      "midi": 47,
      "hit": false,
      "t": 141023.33999999968,
      "d": 78.73999999999069,
      "v": 127
    },
    {
      "midi": 59,
      "hit": false,
      "t": 141141.44999999966,
      "d": 78.73999999999069,
      "v": 127
    },
    {
      "midi": 47,
      "hit": false,
      "t": 141141.44999999966,
      "d": 78.73999999999069,
      "v": 127
    },
    {
      "midi": 59,
      "hit": false,
      "t": 141141.4500000002,
      "d": 236.22000000000116,
      "v": 127
    },
    {
      "midi": 59,
      "hit": false,
      "t": 141141.45000000022,
      "d": 236.22000000000116,
      "v": 127
    },
    {
      "midi": 59,
      "hit": false,
      "t": 141141.45000000022,
      "d": 236.22000000000116,
      "v": 127
    },
    {
      "midi": 59,
      "hit": false,
      "t": 141141.45000000022,
      "d": 236.22000000000116,
      "v": 127
    },
    {
      "midi": 42,
      "hit": false,
      "t": 141141.45000000024,
      "d": 236.22000000000116,
      "v": 127
    },
    {
      "midi": 59,
      "hit": false,
      "t": 141259.55999999965,
      "d": 78.73999999999069,
      "v": 127
    },
    {
      "midi": 47,
      "hit": false,
      "t": 141259.55999999965,
      "d": 78.73999999999069,
      "v": 127
    },
    {
      "midi": 59,
      "hit": false,
      "t": 141377.66999999963,
      "d": 78.73999999999069,
      "v": 127
    },
    {
      "midi": 47,
      "hit": false,
      "t": 141377.66999999963,
      "d": 78.73999999999069,
      "v": 127
    },
    {
      "midi": 59,
      "hit": false,
      "t": 141495.77999999962,
      "d": 157.48000000001048,
      "v": 127
    },
    {
      "midi": 47,
      "hit": false,
      "t": 141495.77999999962,
      "d": 157.48000000001048,
      "v": 127
    },
    {
      "midi": 63,
      "hit": false,
      "t": 141495.78000000017,
      "d": 157.48000000001048,
      "v": 127
    },
    {
      "midi": 63,
      "hit": false,
      "t": 141495.7800000002,
      "d": 157.48000000001048,
      "v": 127
    },
    {
      "midi": 63,
      "hit": false,
      "t": 141495.7800000002,
      "d": 157.48000000001048,
      "v": 127
    },
    {
      "midi": 63,
      "hit": false,
      "t": 141495.7800000002,
      "d": 157.48000000001048,
      "v": 127
    },
    {
      "midi": 51,
      "hit": false,
      "t": 141495.78000000023,
      "d": 157.48000000001048,
      "v": 127
    },
    {
      "midi": 49,
      "hit": false,
      "t": 141731.99999999962,
      "d": 157.48000000001048,
      "v": 127
    },
    {
      "midi": 61,
      "hit": false,
      "t": 141731.99999999962,
      "d": 157.48000000001048,
      "v": 127
    },
    {
      "midi": 37,
      "hit": false,
      "t": 141731.99999999997,
      "d": 157.48000000001048,
      "v": 127
    },
    {
      "midi": 61,
      "hit": false,
      "t": 141732,
      "d": 1263.7770000000019,
      "v": 127
    },
    {
      "midi": 73,
      "hit": false,
      "t": 141732.00000000006,
      "d": 629.9200000000128,
      "v": 127
    },
    {
      "midi": 61,
      "hit": false,
      "t": 141732.00000000015,
      "d": 1263.7770000000019,
      "v": 127
    },
    {
      "midi": 61,
      "hit": false,
      "t": 141732.00000000017,
      "d": 314.95999999999185,
      "v": 127
    },
    {
      "midi": 61,
      "hit": false,
      "t": 141732.0000000002,
      "d": 314.95999999999185,
      "v": 127
    },
    {
      "midi": 61,
      "hit": false,
      "t": 141732.0000000002,
      "d": 314.95999999999185,
      "v": 127
    },
    {
      "midi": 61,
      "hit": false,
      "t": 141732.0000000002,
      "d": 314.95999999999185,
      "v": 127
    },
    {
      "midi": 37,
      "hit": false,
      "t": 141732.00000000023,
      "d": 157.48000000001048,
      "v": 127
    },
    {
      "midi": 49,
      "hit": false,
      "t": 141968.21999999962,
      "d": 157.48000000001048,
      "v": 127
    },
    {
      "midi": 61,
      "hit": false,
      "t": 141968.21999999962,
      "d": 157.48000000001048,
      "v": 127
    },
    {
      "midi": 37,
      "hit": false,
      "t": 141968.21999999997,
      "d": 157.48000000001048,
      "v": 127
    },
    {
      "midi": 37,
      "hit": false,
      "t": 141968.22000000023,
      "d": 157.48000000001048,
      "v": 127
    },
    {
      "midi": 49,
      "hit": false,
      "t": 142204.43999999962,
      "d": 157.48000000001048,
      "v": 127
    },
    {
      "midi": 61,
      "hit": false,
      "t": 142204.43999999962,
      "d": 157.48000000001048,
      "v": 127
    },
    {
      "midi": 49,
      "hit": false,
      "t": 142204.43999999997,
      "d": 236.22000000000116,
      "v": 127
    },
    {
      "midi": 49,
      "hit": false,
      "t": 142204.44000000024,
      "d": 236.22000000000116,
      "v": 127
    },
    {
      "midi": 47,
      "hit": false,
      "t": 142440.65999999963,
      "d": 78.73999999999069,
      "v": 127
    },
    {
      "midi": 59,
      "hit": false,
      "t": 142440.65999999963,
      "d": 78.73999999999069,
      "v": 127
    },
    {
      "midi": 48,
      "hit": false,
      "t": 142558.7699999996,
      "d": 78.73999999999069,
      "v": 127
    },
    {
      "midi": 60,
      "hit": false,
      "t": 142558.7699999996,
      "d": 78.73999999999069,
      "v": 127
    },
    {
      "midi": 47,
      "hit": false,
      "t": 142558.76999999996,
      "d": 157.48000000001048,
      "v": 127
    },
    {
      "midi": 47,
      "hit": false,
      "t": 142558.77000000022,
      "d": 157.48000000001048,
      "v": 127
    },
    {
      "midi": 49,
      "hit": false,
      "t": 142676.8799999996,
      "d": 78.73999999999069,
      "v": 127
    },
    {
      "midi": 61,
      "hit": false,
      "t": 142676.8799999996,
      "d": 78.73999999999069,
      "v": 127
    },
    {
      "midi": 49,
      "hit": false,
      "t": 142794.98999999958,
      "d": 78.73999999999069,
      "v": 127
    },
    {
      "midi": 61,
      "hit": false,
      "t": 142794.98999999958,
      "d": 78.73999999999069,
      "v": 127
    },
    {
      "midi": 47,
      "hit": false,
      "t": 142794.98999999996,
      "d": 157.48000000001048,
      "v": 127
    },
    {
      "midi": 47,
      "hit": false,
      "t": 142794.99000000022,
      "d": 157.48000000001048,
      "v": 127
    },
    {
      "midi": 49,
      "hit": false,
      "t": 142913.09999999957,
      "d": 78.73999999999069,
      "v": 127
    },
    {
      "midi": 61,
      "hit": false,
      "t": 142913.09999999957,
      "d": 78.73999999999069,
      "v": 127
    },
    {
      "midi": 49,
      "hit": false,
      "t": 143031.20999999956,
      "d": 78.73999999999069,
      "v": 127
    },
    {
      "midi": 61,
      "hit": false,
      "t": 143031.20999999956,
      "d": 78.73999999999069,
      "v": 127
    },
    {
      "midi": 44,
      "hit": false,
      "t": 143031.20999999996,
      "d": 78.73999999999069,
      "v": 127
    },
    {
      "midi": 44,
      "hit": false,
      "t": 143031.21000000022,
      "d": 78.73999999999069,
      "v": 127
    },
    {
      "midi": 52,
      "hit": false,
      "t": 143149.31999999954,
      "d": 78.73999999999069,
      "v": 127
    },
    {
      "midi": 64,
      "hit": false,
      "t": 143149.31999999954,
      "d": 78.73999999999069,
      "v": 127
    },
    {
      "midi": 47,
      "hit": false,
      "t": 143149.31999999995,
      "d": 157.48000000001048,
      "v": 127
    },
    {
      "midi": 47,
      "hit": false,
      "t": 143149.3200000002,
      "d": 157.48000000001048,
      "v": 127
    },
    {
      "midi": 51,
      "hit": false,
      "t": 143267.42999999953,
      "d": 78.73999999999069,
      "v": 127
    },
    {
      "midi": 64,
      "hit": false,
      "t": 143267.42999999953,
      "d": 78.73999999999069,
      "v": 127
    },
    {
      "midi": 49,
      "hit": false,
      "t": 143385.5399999995,
      "d": 157.48000000001048,
      "v": 127
    },
    {
      "midi": 61,
      "hit": false,
      "t": 143385.5399999995,
      "d": 157.48000000001048,
      "v": 127
    },
    {
      "midi": 49,
      "hit": false,
      "t": 143385.53999999995,
      "d": 157.48000000001048,
      "v": 127
    },
    {
      "midi": 49,
      "hit": false,
      "t": 143385.5400000002,
      "d": 157.48000000001048,
      "v": 127
    },
    {
      "midi": 49,
      "hit": false,
      "t": 143621.7599999995,
      "d": 157.48000000001048,
      "v": 127
    },
    {
      "midi": 61,
      "hit": false,
      "t": 143621.7599999995,
      "d": 157.48000000001048,
      "v": 127
    },
    {
      "midi": 37,
      "hit": false,
      "t": 143621.75999999995,
      "d": 157.48000000001048,
      "v": 127
    },
    {
      "midi": 64,
      "hit": false,
      "t": 143621.76,
      "d": 2047.2400000000198,
      "v": 127
    },
    {
      "midi": 64,
      "hit": false,
      "t": 143621.76000000015,
      "d": 314.95999999999185,
      "v": 127
    },
    {
      "midi": 64,
      "hit": false,
      "t": 143621.76000000018,
      "d": 314.95999999999185,
      "v": 127
    },
    {
      "midi": 64,
      "hit": false,
      "t": 143621.76000000018,
      "d": 314.95999999999185,
      "v": 127
    },
    {
      "midi": 64,
      "hit": false,
      "t": 143621.76000000018,
      "d": 314.95999999999185,
      "v": 127
    },
    {
      "midi": 49,
      "hit": false,
      "t": 143621.7600000002,
      "d": 157.48000000001048,
      "v": 127
    },
    {
      "midi": 49,
      "hit": false,
      "t": 143857.97999999952,
      "d": 157.48000000001048,
      "v": 127
    },
    {
      "midi": 61,
      "hit": false,
      "t": 143857.97999999952,
      "d": 157.48000000001048,
      "v": 127
    },
    {
      "midi": 37,
      "hit": false,
      "t": 143857.97999999995,
      "d": 157.48000000001048,
      "v": 127
    },
    {
      "midi": 49,
      "hit": false,
      "t": 143857.9800000002,
      "d": 157.48000000001048,
      "v": 127
    },
    {
      "midi": 49,
      "hit": false,
      "t": 144094.19999999952,
      "d": 157.48000000001048,
      "v": 127
    },
    {
      "midi": 61,
      "hit": false,
      "t": 144094.19999999952,
      "d": 157.48000000001048,
      "v": 127
    },
    {
      "midi": 49,
      "hit": false,
      "t": 144094.19999999995,
      "d": 236.22000000000116,
      "v": 127
    },
    {
      "midi": 61,
      "hit": false,
      "t": 144094.20000000016,
      "d": 314.95999999999185,
      "v": 127
    },
    {
      "midi": 61,
      "hit": false,
      "t": 144094.2000000002,
      "d": 314.95999999999185,
      "v": 127
    },
    {
      "midi": 61,
      "hit": false,
      "t": 144094.2000000002,
      "d": 314.95999999999185,
      "v": 127
    },
    {
      "midi": 61,
      "hit": false,
      "t": 144094.2000000002,
      "d": 314.95999999999185,
      "v": 127
    },
    {
      "midi": 49,
      "hit": false,
      "t": 144094.20000000022,
      "d": 236.22000000000116,
      "v": 127
    },
    {
      "midi": 47,
      "hit": false,
      "t": 144330.41999999952,
      "d": 78.73999999999069,
      "v": 127
    },
    {
      "midi": 59,
      "hit": false,
      "t": 144330.41999999952,
      "d": 78.73999999999069,
      "v": 127
    },
    {
      "midi": 48,
      "hit": false,
      "t": 144448.5299999995,
      "d": 78.73999999999069,
      "v": 127
    },
    {
      "midi": 60,
      "hit": false,
      "t": 144448.5299999995,
      "d": 78.73999999999069,
      "v": 127
    },
    {
      "midi": 47,
      "hit": false,
      "t": 144448.52999999994,
      "d": 157.48000000001048,
      "v": 127
    },
    {
      "midi": 47,
      "hit": false,
      "t": 144448.5300000002,
      "d": 78.73999999999069,
      "v": 127
    },
    {
      "midi": 49,
      "hit": false,
      "t": 144566.6399999995,
      "d": 78.73999999999069,
      "v": 127
    },
    {
      "midi": 61,
      "hit": false,
      "t": 144566.6399999995,
      "d": 78.73999999999069,
      "v": 127
    },
    {
      "midi": 59,
      "hit": false,
      "t": 144566.64000000016,
      "d": 157.48000000001048,
      "v": 127
    },
    {
      "midi": 59,
      "hit": false,
      "t": 144566.6400000002,
      "d": 157.48000000001048,
      "v": 127
    },
    {
      "midi": 59,
      "hit": false,
      "t": 144566.6400000002,
      "d": 157.48000000001048,
      "v": 127
    },
    {
      "midi": 49,
      "hit": false,
      "t": 144566.6400000002,
      "d": 157.48000000001048,
      "v": 127
    },
    {
      "midi": 59,
      "hit": false,
      "t": 144566.6400000002,
      "d": 157.48000000001048,
      "v": 127
    },
    {
      "midi": 49,
      "hit": false,
      "t": 144684.74999999948,
      "d": 78.73999999999069,
      "v": 127
    },
    {
      "midi": 61,
      "hit": false,
      "t": 144684.74999999948,
      "d": 78.73999999999069,
      "v": 127
    },
    {
      "midi": 47,
      "hit": false,
      "t": 144684.74999999994,
      "d": 157.48000000001048,
      "v": 127
    },
    {
      "midi": 49,
      "hit": false,
      "t": 144802.85999999946,
      "d": 78.73999999999069,
      "v": 127
    },
    {
      "midi": 61,
      "hit": false,
      "t": 144802.85999999946,
      "d": 78.73999999999069,
      "v": 127
    },
    {
      "midi": 61,
      "hit": false,
      "t": 144802.86000000016,
      "d": 78.73999999999069,
      "v": 127
    },
    {
      "midi": 61,
      "hit": false,
      "t": 144802.8600000002,
      "d": 78.73999999999069,
      "v": 127
    },
    {
      "midi": 61,
      "hit": false,
      "t": 144802.8600000002,
      "d": 78.73999999999069,
      "v": 127
    },
    {
      "midi": 49,
      "hit": false,
      "t": 144802.8600000002,
      "d": 78.73999999999069,
      "v": 127
    },
    {
      "midi": 61,
      "hit": false,
      "t": 144802.8600000002,
      "d": 78.73999999999069,
      "v": 127
    },
    {
      "midi": 49,
      "hit": false,
      "t": 144920.96999999945,
      "d": 78.73999999999069,
      "v": 127
    },
    {
      "midi": 61,
      "hit": false,
      "t": 144920.96999999945,
      "d": 78.73999999999069,
      "v": 127
    },
    {
      "midi": 44,
      "hit": false,
      "t": 144920.96999999994,
      "d": 78.73999999999069,
      "v": 127
    },
    {
      "midi": 61,
      "hit": false,
      "t": 144920.97000000015,
      "d": 314.95999999999185,
      "v": 127
    },
    {
      "midi": 61,
      "hit": false,
      "t": 144920.97000000018,
      "d": 314.95999999999185,
      "v": 127
    },
    {
      "midi": 61,
      "hit": false,
      "t": 144920.97000000018,
      "d": 314.95999999999185,
      "v": 127
    },
    {
      "midi": 52,
      "hit": false,
      "t": 144920.97000000018,
      "d": 433.070000000007,
      "v": 127
    },
    {
      "midi": 61,
      "hit": false,
      "t": 144920.97000000018,
      "d": 314.95999999999185,
      "v": 127
    },
    {
      "midi": 52,
      "hit": false,
      "t": 145039.07999999943,
      "d": 78.73999999999069,
      "v": 127
    },
    {
      "midi": 64,
      "hit": false,
      "t": 145039.07999999943,
      "d": 78.73999999999069,
      "v": 127
    },
    {
      "midi": 47,
      "hit": false,
      "t": 145039.07999999993,
      "d": 157.48000000001048,
      "v": 127
    },
    {
      "midi": 51,
      "hit": false,
      "t": 145157.18999999942,
      "d": 78.73999999999069,
      "v": 127
    },
    {
      "midi": 64,
      "hit": false,
      "t": 145157.18999999942,
      "d": 78.73999999999069,
      "v": 127
    },
    {
      "midi": 49,
      "hit": false,
      "t": 145275.2999999994,
      "d": 157.48000000001048,
      "v": 127
    },
    {
      "midi": 61,
      "hit": false,
      "t": 145275.2999999994,
      "d": 157.48000000001048,
      "v": 127
    },
    {
      "midi": 49,
      "hit": false,
      "t": 145275.29999999993,
      "d": 157.48000000001048,
      "v": 127
    },
    {
      "midi": 56,
      "hit": false,
      "t": 145393.41000000015,
      "d": 78.73999999999069,
      "v": 127
    },
    {
      "midi": 56,
      "hit": false,
      "t": 145393.41000000018,
      "d": 78.73999999999069,
      "v": 127
    },
    {
      "midi": 56,
      "hit": false,
      "t": 145393.41000000018,
      "d": 78.73999999999069,
      "v": 127
    },
    {
      "midi": 44,
      "hit": false,
      "t": 145393.41000000018,
      "d": 78.73999999999069,
      "v": 127
    },
    {
      "midi": 56,
      "hit": false,
      "t": 145393.41000000018,
      "d": 78.73999999999069,
      "v": 127
    },
    {
      "midi": 47,
      "hit": false,
      "t": 145511.5199999994,
      "d": 157.48000000001048,
      "v": 127
    },
    {
      "midi": 59,
      "hit": false,
      "t": 145511.5199999994,
      "d": 157.48000000001048,
      "v": 127
    },
    {
      "midi": 35,
      "hit": false,
      "t": 145511.51999999993,
      "d": 157.48000000001048,
      "v": 127
    },
    {
      "midi": 68,
      "hit": false,
      "t": 145511.52000000002,
      "d": 314.96000000002095,
      "v": 127
    },
    {
      "midi": 63,
      "hit": false,
      "t": 145511.52000000002,
      "d": 2047.2400000000198,
      "v": 127
    },
    {
      "midi": 59,
      "hit": false,
      "t": 145511.52000000014,
      "d": 157.48000000001048,
      "v": 127
    },
    {
      "midi": 64,
      "hit": false,
      "t": 145511.52000000016,
      "d": 157.48000000001048,
      "v": 127
    },
    {
      "midi": 68,
      "hit": false,
      "t": 145511.52000000016,
      "d": 157.48000000001048,
      "v": 127
    },
    {
      "midi": 63,
      "hit": false,
      "t": 145511.52000000016,
      "d": 2047.2400000000198,
      "v": 127
    },
    {
      "midi": 59,
      "hit": false,
      "t": 145511.52000000016,
      "d": 157.48000000001048,
      "v": 127
    },
    {
      "midi": 59,
      "hit": false,
      "t": 145511.52000000016,
      "d": 157.48000000001048,
      "v": 127
    },
    {
      "midi": 47,
      "hit": false,
      "t": 145511.52000000016,
      "d": 157.48000000001048,
      "v": 127
    },
    {
      "midi": 59,
      "hit": false,
      "t": 145511.52000000016,
      "d": 157.48000000001048,
      "v": 127
    },
    {
      "midi": 49,
      "hit": false,
      "t": 145511.52000000107,
      "d": 157.48000000001048,
      "v": 127
    },
    {
      "midi": 59,
      "hit": false,
      "t": 145747.7399999994,
      "d": 157.48000000001048,
      "v": 127
    },
    {
      "midi": 47,
      "hit": false,
      "t": 145747.7399999994,
      "d": 157.48000000001048,
      "v": 127
    },
    {
      "midi": 35,
      "hit": false,
      "t": 145747.73999999993,
      "d": 157.48000000001048,
      "v": 127
    },
    {
      "midi": 59,
      "hit": false,
      "t": 145747.74000000014,
      "d": 157.48000000001048,
      "v": 127
    },
    {
      "midi": 59,
      "hit": false,
      "t": 145747.74000000017,
      "d": 157.48000000001048,
      "v": 127
    },
    {
      "midi": 59,
      "hit": false,
      "t": 145747.74000000017,
      "d": 157.48000000001048,
      "v": 127
    },
    {
      "midi": 47,
      "hit": false,
      "t": 145747.74000000017,
      "d": 157.48000000001048,
      "v": 127
    },
    {
      "midi": 59,
      "hit": false,
      "t": 145747.74000000017,
      "d": 157.48000000001048,
      "v": 127
    },
    {
      "midi": 36,
      "hit": false,
      "t": 145747.74000000107,
      "d": 157.47999999998137,
      "v": 127
    },
    {
      "midi": 59,
      "hit": false,
      "t": 145983.9599999994,
      "d": 157.48000000001048,
      "v": 127
    },
    {
      "midi": 47,
      "hit": false,
      "t": 145983.9599999994,
      "d": 157.48000000001048,
      "v": 127
    },
    {
      "midi": 47,
      "hit": false,
      "t": 145983.95999999993,
      "d": 236.22000000000116,
      "v": 127
    },
    {
      "midi": 59,
      "hit": false,
      "t": 145983.96000000014,
      "d": 157.48000000001048,
      "v": 127
    },
    {
      "midi": 59,
      "hit": false,
      "t": 145983.96000000017,
      "d": 157.48000000001048,
      "v": 127
    },
    {
      "midi": 59,
      "hit": false,
      "t": 145983.96000000017,
      "d": 157.48000000001048,
      "v": 127
    },
    {
      "midi": 47,
      "hit": false,
      "t": 145983.96000000017,
      "d": 157.48000000001048,
      "v": 127
    },
    {
      "midi": 59,
      "hit": false,
      "t": 145983.96000000017,
      "d": 157.48000000001048,
      "v": 127
    },
    {
      "midi": 59,
      "hit": false,
      "t": 145983.96000000104,
      "d": 314.95999999999185,
      "v": 127
    },
    {
      "midi": 56,
      "hit": false,
      "t": 146220.1799999994,
      "d": 78.73999999999069,
      "v": 127
    },
    {
      "midi": 44,
      "hit": false,
      "t": 146220.1799999994,
      "d": 78.73999999999069,
      "v": 127
    },
    {
      "midi": 61,
      "hit": false,
      "t": 146220.18000000014,
      "d": 78.73999999999069,
      "v": 127
    },
    {
      "midi": 61,
      "hit": false,
      "t": 146220.18000000017,
      "d": 78.73999999999069,
      "v": 127
    },
    {
      "midi": 61,
      "hit": false,
      "t": 146220.18000000017,
      "d": 78.73999999999069,
      "v": 127
    },
    {
      "midi": 44,
      "hit": false,
      "t": 146220.18000000017,
      "d": 78.73999999999069,
      "v": 127
    },
    {
      "midi": 61,
      "hit": false,
      "t": 146220.18000000017,
      "d": 78.73999999999069,
      "v": 127
    },
    {
      "midi": 52,
      "hit": false,
      "t": 146220.18000000104,
      "d": 157.47999999998137,
      "v": 127
    },
    {
      "midi": 59,
      "hit": false,
      "t": 146338.2899999994,
      "d": 78.73999999999069,
      "v": 127
    },
    {
      "midi": 47,
      "hit": false,
      "t": 146338.2899999994,
      "d": 78.73999999999069,
      "v": 127
    },
    {
      "midi": 44,
      "hit": false,
      "t": 146338.28999999992,
      "d": 157.48000000001048,
      "v": 127
    },
    {
      "midi": 59,
      "hit": false,
      "t": 146338.29000000012,
      "d": 629.9200000000128,
      "v": 127
    },
    {
      "midi": 59,
      "hit": false,
      "t": 146338.29000000015,
      "d": 629.9200000000128,
      "v": 127
    },
    {
      "midi": 59,
      "hit": false,
      "t": 146338.29000000015,
      "d": 629.9200000000128,
      "v": 127
    },
    {
      "midi": 47,
      "hit": false,
      "t": 146338.29000000015,
      "d": 157.48000000001048,
      "v": 127
    },
    {
      "midi": 59,
      "hit": false,
      "t": 146338.29000000015,
      "d": 629.9200000000128,
      "v": 127
    },
    {
      "midi": 59,
      "hit": false,
      "t": 146456.39999999938,
      "d": 78.73999999999069,
      "v": 127
    },
    {
      "midi": 47,
      "hit": false,
      "t": 146456.39999999938,
      "d": 78.73999999999069,
      "v": 127
    },
    {
      "midi": 68,
      "hit": false,
      "t": 146456.40000000008,
      "d": 314.95999999999185,
      "v": 127
    },
    {
      "midi": 50,
      "hit": false,
      "t": 146456.400000001,
      "d": 236.22000000000116,
      "v": 127
    },
    {
      "midi": 49,
      "hit": false,
      "t": 146456.400000001,
      "d": 314.95999999999185,
      "v": 127
    },
    {
      "midi": 59,
      "hit": false,
      "t": 146574.50999999937,
      "d": 78.73999999999069,
      "v": 127
    },
    {
      "midi": 47,
      "hit": false,
      "t": 146574.50999999937,
      "d": 78.73999999999069,
      "v": 127
    },
    {
      "midi": 44,
      "hit": false,
      "t": 146574.50999999992,
      "d": 157.48000000001048,
      "v": 127
    },
    {
      "midi": 47,
      "hit": false,
      "t": 146574.51000000015,
      "d": 157.48000000001048,
      "v": 127
    },
    {
      "midi": 59,
      "hit": false,
      "t": 146692.61999999936,
      "d": 78.73999999999069,
      "v": 127
    },
    {
      "midi": 47,
      "hit": false,
      "t": 146692.61999999936,
      "d": 78.73999999999069,
      "v": 127
    },
    {
      "midi": 59,
      "hit": false,
      "t": 146810.72999999934,
      "d": 78.73999999999069,
      "v": 127
    },
    {
      "midi": 47,
      "hit": false,
      "t": 146810.72999999934,
      "d": 78.73999999999069,
      "v": 127
    },
    {
      "midi": 42,
      "hit": false,
      "t": 146810.72999999992,
      "d": 78.73999999999069,
      "v": 127
    },
    {
      "midi": 44,
      "hit": false,
      "t": 146810.73000000016,
      "d": 78.73999999999069,
      "v": 127
    },
    {
      "midi": 50,
      "hit": false,
      "t": 146810.730000001,
      "d": 236.21999999997206,
      "v": 127
    },
    {
      "midi": 61,
      "hit": false,
      "t": 146928.83999999933,
      "d": 78.73999999999069,
      "v": 127
    },
    {
      "midi": 49,
      "hit": false,
      "t": 146928.83999999933,
      "d": 78.73999999999069,
      "v": 127
    },
    {
      "midi": 40,
      "hit": false,
      "t": 146928.8399999999,
      "d": 157.48000000001048,
      "v": 127
    },
    {
      "midi": 71,
      "hit": false,
      "t": 146928.84000000008,
      "d": 314.95999999999185,
      "v": 127
    },
    {
      "midi": 47,
      "hit": false,
      "t": 146928.84000000014,
      "d": 157.48000000001048,
      "v": 127
    },
    {
      "midi": 59,
      "hit": false,
      "t": 146928.840000001,
      "d": 314.95999999996275,
      "v": 127
    },
    {
      "midi": 59,
      "hit": false,
      "t": 147046.9499999993,
      "d": 78.73999999999069,
      "v": 127
    },
    {
      "midi": 47,
      "hit": false,
      "t": 147046.9499999993,
      "d": 78.73999999999069,
      "v": 127
    },
    {
      "midi": 57,
      "hit": false,
      "t": 147165.0599999993,
      "d": 157.48000000001048,
      "v": 127
    },
    {
      "midi": 45,
      "hit": false,
      "t": 147165.0599999993,
      "d": 157.48000000001048,
      "v": 127
    },
    {
      "midi": 42,
      "hit": false,
      "t": 147165.0599999999,
      "d": 157.48000000001048,
      "v": 127
    },
    {
      "midi": 59,
      "hit": false,
      "t": 147165.06000000014,
      "d": 157.48000000001048,
      "v": 127
    },
    {
      "midi": 49,
      "hit": false,
      "t": 147165.06000000014,
      "d": 157.48000000001048,
      "v": 127
    },
    {
      "midi": 59,
      "hit": false,
      "t": 147165.06000000017,
      "d": 157.48000000001048,
      "v": 127
    },
    {
      "midi": 59,
      "hit": false,
      "t": 147165.06000000017,
      "d": 157.48000000001048,
      "v": 127
    },
    {
      "midi": 59,
      "hit": false,
      "t": 147165.06000000017,
      "d": 157.48000000001048,
      "v": 127
    },
    {
      "midi": 52,
      "hit": false,
      "t": 147165.06000000096,
      "d": 157.47999999998137,
      "v": 127
    },
    {
      "midi": 49,
      "hit": false,
      "t": 147401.2799999993,
      "d": 157.48000000001048,
      "v": 127
    },
    {
      "midi": 61,
      "hit": false,
      "t": 147401.2799999993,
      "d": 157.48000000001048,
      "v": 127
    },
    {
      "midi": 37,
      "hit": false,
      "t": 147401.2799999999,
      "d": 157.48000000001048,
      "v": 127
    },
    {
      "midi": 61,
      "hit": false,
      "t": 147401.28000000003,
      "d": 944.8800000000047,
      "v": 127
    },
    {
      "midi": 64,
      "hit": false,
      "t": 147401.28000000006,
      "d": 629.9200000000128,
      "v": 127
    },
    {
      "midi": 73,
      "hit": false,
      "t": 147401.2800000001,
      "d": 629.9200000000128,
      "v": 127
    },
    {
      "midi": 61,
      "hit": false,
      "t": 147401.28000000014,
      "d": 157.48000000001048,
      "v": 127
    },
    {
      "midi": 49,
      "hit": false,
      "t": 147401.28000000014,
      "d": 157.48000000001048,
      "v": 127
    },
    {
      "midi": 61,
      "hit": false,
      "t": 147401.28000000017,
      "d": 944.8800000000047,
      "v": 127
    },
    {
      "midi": 61,
      "hit": false,
      "t": 147401.28000000017,
      "d": 157.48000000001048,
      "v": 127
    },
    {
      "midi": 61,
      "hit": false,
      "t": 147401.28000000017,
      "d": 157.48000000001048,
      "v": 127
    },
    {
      "midi": 61,
      "hit": false,
      "t": 147401.28000000017,
      "d": 157.48000000001048,
      "v": 127
    },
    {
      "midi": 49,
      "hit": false,
      "t": 147401.28000000093,
      "d": 157.48000000001048,
      "v": 127
    },
    {
      "midi": 49,
      "hit": false,
      "t": 147637.4999999993,
      "d": 157.48000000001048,
      "v": 127
    },
    {
      "midi": 61,
      "hit": false,
      "t": 147637.4999999993,
      "d": 157.48000000001048,
      "v": 127
    },
    {
      "midi": 37,
      "hit": false,
      "t": 147637.4999999999,
      "d": 157.48000000001048,
      "v": 127
    },
    {
      "midi": 61,
      "hit": false,
      "t": 147637.50000000015,
      "d": 157.48000000001048,
      "v": 127
    },
    {
      "midi": 49,
      "hit": false,
      "t": 147637.50000000015,
      "d": 157.48000000001048,
      "v": 127
    },
    {
      "midi": 61,
      "hit": false,
      "t": 147637.50000000017,
      "d": 157.48000000001048,
      "v": 127
    },
    {
      "midi": 61,
      "hit": false,
      "t": 147637.50000000017,
      "d": 157.48000000001048,
      "v": 127
    },
    {
      "midi": 61,
      "hit": false,
      "t": 147637.50000000017,
      "d": 157.48000000001048,
      "v": 127
    },
    {
      "midi": 36,
      "hit": false,
      "t": 147637.50000000093,
      "d": 157.48000000001048,
      "v": 127
    },
    {
      "midi": 49,
      "hit": false,
      "t": 147873.7199999993,
      "d": 157.48000000001048,
      "v": 127
    },
    {
      "midi": 61,
      "hit": false,
      "t": 147873.7199999993,
      "d": 157.48000000001048,
      "v": 127
    },
    {
      "midi": 49,
      "hit": false,
      "t": 147873.7199999999,
      "d": 236.22000000000116,
      "v": 127
    },
    {
      "midi": 61,
      "hit": false,
      "t": 147873.72000000015,
      "d": 157.48000000001048,
      "v": 127
    },
    {
      "midi": 49,
      "hit": false,
      "t": 147873.72000000015,
      "d": 157.48000000001048,
      "v": 127
    },
    {
      "midi": 61,
      "hit": false,
      "t": 147873.72000000018,
      "d": 157.48000000001048,
      "v": 127
    },
    {
      "midi": 61,
      "hit": false,
      "t": 147873.72000000018,
      "d": 157.48000000001048,
      "v": 127
    },
    {
      "midi": 61,
      "hit": false,
      "t": 147873.72000000018,
      "d": 157.48000000001048,
      "v": 127
    },
    {
      "midi": 34,
      "hit": false,
      "t": 147873.72000000093,
      "d": 157.48000000001048,
      "v": 127
    },
    {
      "midi": 61,
      "hit": false,
      "t": 147873.72000000093,
      "d": 314.95999999999185,
      "v": 127
    },
    {
      "midi": 47,
      "hit": false,
      "t": 148109.9399999993,
      "d": 78.73999999999069,
      "v": 127
    },
    {
      "midi": 59,
      "hit": false,
      "t": 148109.9399999993,
      "d": 78.73999999999069,
      "v": 127
    },
    {
      "midi": 64,
      "hit": false,
      "t": 148109.94000000015,
      "d": 157.48000000001048,
      "v": 127
    },
    {
      "midi": 47,
      "hit": false,
      "t": 148109.94000000015,
      "d": 78.73999999999069,
      "v": 127
    },
    {
      "midi": 64,
      "hit": false,
      "t": 148109.94000000018,
      "d": 157.48000000001048,
      "v": 127
    },
    {
      "midi": 64,
      "hit": false,
      "t": 148109.94000000018,
      "d": 157.48000000001048,
      "v": 127
    },
    {
      "midi": 64,
      "hit": false,
      "t": 148109.94000000018,
      "d": 157.48000000001048,
      "v": 127
    },
    {
      "midi": 52,
      "hit": false,
      "t": 148109.94000000093,
      "d": 157.47999999998137,
      "v": 127
    },
    {
      "midi": 48,
      "hit": false,
      "t": 148228.0499999993,
      "d": 78.73999999999069,
      "v": 127
    },
    {
      "midi": 60,
      "hit": false,
      "t": 148228.0499999993,
      "d": 78.73999999999069,
      "v": 127
    },
    {
      "midi": 47,
      "hit": false,
      "t": 148228.0499999999,
      "d": 157.48000000001048,
      "v": 127
    },
    {
      "midi": 51,
      "hit": false,
      "t": 148228.05000000013,
      "d": 157.48000000001048,
      "v": 127
    },
    {
      "midi": 49,
      "hit": false,
      "t": 148346.15999999928,
      "d": 78.73999999999069,
      "v": 127
    },
    {
      "midi": 61,
      "hit": false,
      "t": 148346.15999999928,
      "d": 78.73999999999069,
      "v": 127
    },
    {
      "midi": 63,
      "hit": false,
      "t": 148346.16000000003,
      "d": 1102.3600000000151,
      "v": 127
    },
    {
      "midi": 66,
      "hit": false,
      "t": 148346.16000000006,
      "d": 629.9200000000128,
      "v": 127
    },
    {
      "midi": 75,
      "hit": false,
      "t": 148346.1600000001,
      "d": 629.9200000000128,
      "v": 127
    },
    {
      "midi": 63,
      "hit": false,
      "t": 148346.16000000015,
      "d": 314.95999999999185,
      "v": 127
    },
    {
      "midi": 63,
      "hit": false,
      "t": 148346.16000000018,
      "d": 1102.3600000000151,
      "v": 127
    },
    {
      "midi": 63,
      "hit": false,
      "t": 148346.16000000018,
      "d": 314.95999999999185,
      "v": 127
    },
    {
      "midi": 63,
      "hit": false,
      "t": 148346.16000000018,
      "d": 314.95999999999185,
      "v": 127
    },
    {
      "midi": 63,
      "hit": false,
      "t": 148346.16000000018,
      "d": 314.95999999999185,
      "v": 127
    },
    {
      "midi": 50,
      "hit": false,
      "t": 148346.1600000009,
      "d": 157.48000000001048,
      "v": 127
    },
    {
      "midi": 49,
      "hit": false,
      "t": 148346.1600000009,
      "d": 157.48000000001048,
      "v": 127
    },
    {
      "midi": 49,
      "hit": false,
      "t": 148464.26999999926,
      "d": 78.73999999999069,
      "v": 127
    },
    {
      "midi": 61,
      "hit": false,
      "t": 148464.26999999926,
      "d": 78.73999999999069,
      "v": 127
    },
    {
      "midi": 47,
      "hit": false,
      "t": 148464.2699999999,
      "d": 157.48000000001048,
      "v": 127
    },
    {
      "midi": 51,
      "hit": false,
      "t": 148464.27000000014,
      "d": 157.48000000001048,
      "v": 127
    },
    {
      "midi": 49,
      "hit": false,
      "t": 148582.37999999925,
      "d": 78.73999999999069,
      "v": 127
    },
    {
      "midi": 61,
      "hit": false,
      "t": 148582.37999999925,
      "d": 78.73999999999069,
      "v": 127
    },
    {
      "midi": 50,
      "hit": false,
      "t": 148582.3800000009,
      "d": 157.48000000001048,
      "v": 127
    },
    {
      "midi": 49,
      "hit": false,
      "t": 148700.48999999923,
      "d": 78.73999999999069,
      "v": 127
    },
    {
      "midi": 61,
      "hit": false,
      "t": 148700.48999999923,
      "d": 78.73999999999069,
      "v": 127
    },
    {
      "midi": 44,
      "hit": false,
      "t": 148700.4899999999,
      "d": 78.73999999999069,
      "v": 127
    },
    {
      "midi": 59,
      "hit": false,
      "t": 148700.49000000014,
      "d": 236.22000000000116,
      "v": 127
    },
    {
      "midi": 47,
      "hit": false,
      "t": 148700.49000000014,
      "d": 78.73999999999069,
      "v": 127
    },
    {
      "midi": 59,
      "hit": false,
      "t": 148700.49000000017,
      "d": 236.22000000000116,
      "v": 127
    },
    {
      "midi": 59,
      "hit": false,
      "t": 148700.49000000017,
      "d": 236.22000000000116,
      "v": 127
    },
    {
      "midi": 59,
      "hit": false,
      "t": 148700.49000000017,
      "d": 236.22000000000116,
      "v": 127
    },
    {
      "midi": 52,
      "hit": false,
      "t": 148818.59999999922,
      "d": 78.73999999999069,
      "v": 127
    },
    {
      "midi": 64,
      "hit": false,
      "t": 148818.59999999922,
      "d": 78.73999999999069,
      "v": 127
    },
    {
      "midi": 47,
      "hit": false,
      "t": 148818.5999999999,
      "d": 157.48000000001048,
      "v": 127
    },
    {
      "midi": 51,
      "hit": false,
      "t": 148818.60000000012,
      "d": 157.48000000001048,
      "v": 127
    },
    {
      "midi": 59,
      "hit": false,
      "t": 148818.6000000009,
      "d": 157.48000000001048,
      "v": 127
    },
    {
      "midi": 51,
      "hit": false,
      "t": 148936.7099999992,
      "d": 78.73999999999069,
      "v": 127
    },
    {
      "midi": 63,
      "hit": false,
      "t": 148936.7099999992,
      "d": 78.73999999999069,
      "v": 127
    },
    {
      "midi": 49,
      "hit": false,
      "t": 149054.8199999992,
      "d": 157.48000000001048,
      "v": 127
    },
    {
      "midi": 61,
      "hit": false,
      "t": 149054.8199999992,
      "d": 157.48000000001048,
      "v": 127
    },
    {
      "midi": 49,
      "hit": false,
      "t": 149054.8199999999,
      "d": 157.48000000001048,
      "v": 127
    },
    {
      "midi": 61,
      "hit": false,
      "t": 149054.82000000012,
      "d": 157.48000000001048,
      "v": 127
    },
    {
      "midi": 47,
      "hit": false,
      "t": 149054.82000000012,
      "d": 157.48000000001048,
      "v": 127
    },
    {
      "midi": 61,
      "hit": false,
      "t": 149054.82000000015,
      "d": 157.48000000001048,
      "v": 127
    },
    {
      "midi": 61,
      "hit": false,
      "t": 149054.82000000015,
      "d": 157.48000000001048,
      "v": 127
    },
    {
      "midi": 61,
      "hit": false,
      "t": 149054.82000000015,
      "d": 157.48000000001048,
      "v": 127
    },
    {
      "midi": 52,
      "hit": false,
      "t": 149054.8200000009,
      "d": 157.48000000001048,
      "v": 127
    },
    {
      "midi": 56,
      "hit": false,
      "t": 149291.0399999992,
      "d": 157.48000000001048,
      "v": 127
    },
    {
      "midi": 44,
      "hit": false,
      "t": 149291.0399999992,
      "d": 157.48000000001048,
      "v": 127
    },
    {
      "midi": 44,
      "hit": false,
      "t": 149291.0399999999,
      "d": 157.48000000001048,
      "v": 127
    },
    {
      "midi": 59,
      "hit": false,
      "t": 149291.04000000004,
      "d": 1263.7769999999728,
      "v": 127
    },
    {
      "midi": 63,
      "hit": false,
      "t": 149291.04000000007,
      "d": 629.9200000000128,
      "v": 127
    },
    {
      "midi": 71,
      "hit": false,
      "t": 149291.0400000001,
      "d": 629.9200000000128,
      "v": 127
    },
    {
      "midi": 56,
      "hit": false,
      "t": 149291.04000000012,
      "d": 629.9200000000128,
      "v": 127
    },
    {
      "midi": 56,
      "hit": false,
      "t": 149291.04000000015,
      "d": 629.9200000000128,
      "v": 127
    },
    {
      "midi": 56,
      "hit": false,
      "t": 149291.04000000015,
      "d": 629.9200000000128,
      "v": 127
    },
    {
      "midi": 56,
      "hit": false,
      "t": 149291.04000000015,
      "d": 629.9200000000128,
      "v": 127
    },
    {
      "midi": 59,
      "hit": false,
      "t": 149291.04000000018,
      "d": 1263.7769999999728,
      "v": 127
    },
    {
      "midi": 49,
      "hit": false,
      "t": 149291.0400000009,
      "d": 157.48000000001048,
      "v": 127
    },
    {
      "midi": 56,
      "hit": false,
      "t": 149527.2599999992,
      "d": 157.48000000001048,
      "v": 127
    },
    {
      "midi": 44,
      "hit": false,
      "t": 149527.2599999992,
      "d": 157.48000000001048,
      "v": 127
    },
    {
      "midi": 44,
      "hit": false,
      "t": 149527.2599999999,
      "d": 157.48000000001048,
      "v": 127
    },
    {
      "midi": 36,
      "hit": false,
      "t": 149527.2600000009,
      "d": 157.48000000001048,
      "v": 127
    },
    {
      "midi": 56,
      "hit": false,
      "t": 149763.4799999992,
      "d": 157.48000000001048,
      "v": 127
    },
    {
      "midi": 44,
      "hit": false,
      "t": 149763.4799999992,
      "d": 157.48000000001048,
      "v": 127
    },
    {
      "midi": 47,
      "hit": false,
      "t": 149763.4799999999,
      "d": 157.48000000001048,
      "v": 127
    },
    {
      "midi": 34,
      "hit": false,
      "t": 149763.4800000009,
      "d": 157.48000000001048,
      "v": 127
    },
    {
      "midi": 59,
      "hit": false,
      "t": 149763.4800000009,
      "d": 314.95999999999185,
      "v": 127
    },
    {
      "midi": 56,
      "hit": false,
      "t": 149999.6999999992,
      "d": 78.73999999999069,
      "v": 127
    },
    {
      "midi": 44,
      "hit": false,
      "t": 149999.6999999992,
      "d": 78.73999999999069,
      "v": 127
    },
    {
      "midi": 47,
      "hit": false,
      "t": 149999.6999999999,
      "d": 78.73999999999069,
      "v": 127
    },
    {
      "midi": 52,
      "hit": false,
      "t": 149999.7000000009,
      "d": 157.47999999998137,
      "v": 127
    },
    {
      "midi": 56,
      "hit": false,
      "t": 150117.80999999918,
      "d": 78.73999999999069,
      "v": 127
    },
    {
      "midi": 44,
      "hit": false,
      "t": 150117.80999999918,
      "d": 78.73999999999069,
      "v": 127
    },
    {
      "midi": 47,
      "hit": false,
      "t": 150117.80999999988,
      "d": 78.73999999999069,
      "v": 127
    },
    {
      "midi": 68,
      "hit": false,
      "t": 150235.91999999917,
      "d": 78.73999999999069,
      "v": 127
    },
    {
      "midi": 56,
      "hit": false,
      "t": 150235.91999999917,
      "d": 78.73999999999069,
      "v": 127
    },
    {
      "midi": 68,
      "hit": false,
      "t": 150235.92000000004,
      "d": 78.73999999999069,
      "v": 127
    },
    {
      "midi": 68,
      "hit": false,
      "t": 150235.9200000002,
      "d": 78.73999999999069,
      "v": 127
    },
    {
      "midi": 49,
      "hit": false,
      "t": 150235.9200000009,
      "d": 157.47999999998137,
      "v": 123
    },
    {
      "midi": 68,
      "hit": false,
      "t": 150354.02999999915,
      "d": 78.73999999999069,
      "v": 127
    },
    {
      "midi": 56,
      "hit": false,
      "t": 150354.02999999915,
      "d": 78.73999999999069,
      "v": 127
    },
    {
      "midi": 68,
      "hit": false,
      "t": 150354.02999999985,
      "d": 39.36999999999534,
      "v": 127
    },
    {
      "midi": 68,
      "hit": false,
      "t": 150354.03000000003,
      "d": 39.36999999999534,
      "v": 127
    },
    {
      "midi": 68,
      "hit": false,
      "t": 150354.03000000017,
      "d": 39.36999999999534,
      "v": 127
    },
    {
      "midi": 63,
      "hit": false,
      "t": 150354.03000000087,
      "d": 39.36999999999534,
      "v": 123
    },
    {
      "midi": 68,
      "hit": false,
      "t": 150472.13999999914,
      "d": 78.73999999999069,
      "v": 127
    },
    {
      "midi": 56,
      "hit": false,
      "t": 150472.13999999914,
      "d": 78.73999999999069,
      "v": 127
    },
    {
      "midi": 68,
      "hit": false,
      "t": 150472.14,
      "d": 78.73999999999069,
      "v": 127
    },
    {
      "midi": 68,
      "hit": false,
      "t": 150472.14000000016,
      "d": 78.73999999999069,
      "v": 127
    },
    {
      "midi": 36,
      "hit": false,
      "t": 150472.14000000086,
      "d": 157.48000000001048,
      "v": 123
    },
    {
      "midi": 68,
      "hit": false,
      "t": 150590.24999999913,
      "d": 78.73999999999069,
      "v": 127
    },
    {
      "midi": 56,
      "hit": false,
      "t": 150590.24999999913,
      "d": 78.73999999999069,
      "v": 127
    },
    {
      "midi": 68,
      "hit": false,
      "t": 150590.24999999983,
      "d": 39.36999999999534,
      "v": 127
    },
    {
      "midi": 68,
      "hit": false,
      "t": 150590.25,
      "d": 39.36999999999534,
      "v": 127
    },
    {
      "midi": 68,
      "hit": false,
      "t": 150590.25000000015,
      "d": 39.36999999999534,
      "v": 127
    },
    {
      "midi": 68,
      "hit": false,
      "t": 150708.3599999991,
      "d": 78.73999999999069,
      "v": 127
    },
    {
      "midi": 56,
      "hit": false,
      "t": 150708.3599999991,
      "d": 78.73999999999069,
      "v": 127
    },
    {
      "midi": 68,
      "hit": false,
      "t": 150708.3599999998,
      "d": 78.73999999999069,
      "v": 127
    },
    {
      "midi": 68,
      "hit": false,
      "t": 150708.36,
      "d": 157.48000000001048,
      "v": 127
    },
    {
      "midi": 68,
      "hit": false,
      "t": 150708.36000000013,
      "d": 157.48000000001048,
      "v": 127
    },
    {
      "midi": 68,
      "hit": false,
      "t": 150826.4699999991,
      "d": 78.73999999999069,
      "v": 127
    },
    {
      "midi": 56,
      "hit": false,
      "t": 150826.4699999991,
      "d": 78.73999999999069,
      "v": 127
    },
    {
      "midi": 68,
      "hit": false,
      "t": 150826.4699999998,
      "d": 78.73999999999069,
      "v": 127
    },
    {
      "midi": 63,
      "hit": false,
      "t": 150826.47000000085,
      "d": 39.36999999999534,
      "v": 123
    },
    {
      "midi": 68,
      "hit": false,
      "t": 150944.57999999908,
      "d": 157.48000000001048,
      "v": 127
    },
    {
      "midi": 56,
      "hit": false,
      "t": 150944.57999999908,
      "d": 157.48000000001048,
      "v": 127
    },
    {
      "midi": 68,
      "hit": false,
      "t": 150944.57999999978,
      "d": 157.48000000001048,
      "v": 127
    },
    {
      "midi": 63,
      "hit": false,
      "t": 150944.58000000083,
      "d": 157.48000000001048,
      "v": 123
    },
    {
      "midi": 49,
      "hit": false,
      "t": 151180.7999999991,
      "d": 157.48000000001048,
      "v": 127
    },
    {
      "midi": 61,
      "hit": false,
      "t": 151180.7999999991,
      "d": 157.48000000001048,
      "v": 127
    },
    {
      "midi": 37,
      "hit": false,
      "t": 151180.79999999978,
      "d": 157.48000000001048,
      "v": 127
    },
    {
      "midi": 64,
      "hit": false,
      "t": 151180.79999999978,
      "d": 314.95999999999185,
      "v": 127
    },
    {
      "midi": 64,
      "hit": false,
      "t": 151180.8,
      "d": 314.95999999999185,
      "v": 127
    },
    {
      "midi": 64,
      "hit": false,
      "t": 151180.80000000013,
      "d": 314.95999999999185,
      "v": 127
    },
    {
      "midi": 64,
      "hit": false,
      "t": 151180.80000000013,
      "d": 314.95999999999185,
      "v": 127
    },
    {
      "midi": 49,
      "hit": false,
      "t": 151180.80000000013,
      "d": 157.48000000001048,
      "v": 127
    },
    {
      "midi": 64,
      "hit": false,
      "t": 151180.80000000016,
      "d": 314.95999999999185,
      "v": 127
    },
    {
      "midi": 64,
      "hit": false,
      "t": 151180.80000000016,
      "d": 314.95999999999185,
      "v": 127
    },
    {
      "midi": 64,
      "hit": false,
      "t": 151180.80000000016,
      "d": 314.95999999999185,
      "v": 127
    },
    {
      "midi": 49,
      "hit": false,
      "t": 151417.0199999991,
      "d": 157.48000000001048,
      "v": 127
    },
    {
      "midi": 61,
      "hit": false,
      "t": 151417.0199999991,
      "d": 157.48000000001048,
      "v": 127
    },
    {
      "midi": 37,
      "hit": false,
      "t": 151417.0199999998,
      "d": 157.47999999998137,
      "v": 127
    },
    {
      "midi": 49,
      "hit": false,
      "t": 151417.02000000014,
      "d": 157.48000000001048,
      "v": 127
    },
    {
      "midi": 49,
      "hit": false,
      "t": 151653.2399999991,
      "d": 157.48000000001048,
      "v": 127
    },
    {
      "midi": 61,
      "hit": false,
      "t": 151653.2399999991,
      "d": 157.48000000001048,
      "v": 127
    },
    {
      "midi": 49,
      "hit": false,
      "t": 151653.23999999976,
      "d": 236.22000000000116,
      "v": 127
    },
    {
      "midi": 61,
      "hit": false,
      "t": 151653.23999999976,
      "d": 314.95999999999185,
      "v": 127
    },
    {
      "midi": 61,
      "hit": false,
      "t": 151653.24,
      "d": 314.95999999999185,
      "v": 127
    },
    {
      "midi": 61,
      "hit": false,
      "t": 151653.24000000014,
      "d": 314.95999999999185,
      "v": 127
    },
    {
      "midi": 61,
      "hit": false,
      "t": 151653.24000000014,
      "d": 314.95999999999185,
      "v": 127
    },
    {
      "midi": 49,
      "hit": false,
      "t": 151653.24000000014,
      "d": 236.22000000000116,
      "v": 127
    },
    {
      "midi": 61,
      "hit": false,
      "t": 151653.24000000017,
      "d": 314.95999999999185,
      "v": 127
    },
    {
      "midi": 61,
      "hit": false,
      "t": 151653.24000000017,
      "d": 314.95999999999185,
      "v": 127
    },
    {
      "midi": 61,
      "hit": false,
      "t": 151653.24000000017,
      "d": 314.95999999999185,
      "v": 127
    },
    {
      "midi": 47,
      "hit": false,
      "t": 151889.4599999991,
      "d": 78.73999999999069,
      "v": 127
    },
    {
      "midi": 59,
      "hit": false,
      "t": 151889.4599999991,
      "d": 78.73999999999069,
      "v": 127
    },
    {
      "midi": 48,
      "hit": false,
      "t": 152007.56999999908,
      "d": 78.73999999999069,
      "v": 127
    },
    {
      "midi": 60,
      "hit": false,
      "t": 152007.56999999908,
      "d": 78.73999999999069,
      "v": 127
    },
    {
      "midi": 47,
      "hit": false,
      "t": 152007.56999999975,
      "d": 157.48000000001048,
      "v": 127
    },
    {
      "midi": 47,
      "hit": false,
      "t": 152007.57000000012,
      "d": 78.73999999999069,
      "v": 127
    },
    {
      "midi": 49,
      "hit": false,
      "t": 152125.67999999906,
      "d": 78.73999999999069,
      "v": 127
    },
    {
      "midi": 61,
      "hit": false,
      "t": 152125.67999999906,
      "d": 78.73999999999069,
      "v": 127
    },
    {
      "midi": 49,
      "hit": false,
      "t": 152125.6800000001,
      "d": 157.48000000001048,
      "v": 127
    },
    {
      "midi": 59,
      "hit": false,
      "t": 152125.68000000014,
      "d": 157.48000000001048,
      "v": 127
    },
    {
      "midi": 59,
      "hit": false,
      "t": 152125.68000000017,
      "d": 157.48000000001048,
      "v": 127
    },
    {
      "midi": 59,
      "hit": false,
      "t": 152125.68000000017,
      "d": 157.48000000001048,
      "v": 127
    },
    {
      "midi": 59,
      "hit": false,
      "t": 152125.68000000017,
      "d": 157.48000000001048,
      "v": 127
    },
    {
      "midi": 49,
      "hit": false,
      "t": 152243.78999999905,
      "d": 78.73999999999069,
      "v": 127
    },
    {
      "midi": 61,
      "hit": false,
      "t": 152243.78999999905,
      "d": 78.73999999999069,
      "v": 127
    },
    {
      "midi": 47,
      "hit": false,
      "t": 152243.78999999975,
      "d": 157.48000000001048,
      "v": 127
    },
    {
      "midi": 49,
      "hit": false,
      "t": 152361.89999999903,
      "d": 78.73999999999069,
      "v": 127
    },
    {
      "midi": 61,
      "hit": false,
      "t": 152361.89999999903,
      "d": 78.73999999999069,
      "v": 127
    },
    {
      "midi": 49,
      "hit": false,
      "t": 152361.9000000001,
      "d": 78.73999999999069,
      "v": 127
    },
    {
      "midi": 61,
      "hit": false,
      "t": 152361.90000000014,
      "d": 78.73999999999069,
      "v": 127
    },
    {
      "midi": 61,
      "hit": false,
      "t": 152361.90000000017,
      "d": 78.73999999999069,
      "v": 127
    },
    {
      "midi": 61,
      "hit": false,
      "t": 152361.90000000017,
      "d": 78.73999999999069,
      "v": 127
    },
    {
      "midi": 61,
      "hit": false,
      "t": 152361.90000000017,
      "d": 78.73999999999069,
      "v": 127
    },
    {
      "midi": 49,
      "hit": false,
      "t": 152480.00999999902,
      "d": 78.73999999999069,
      "v": 127
    },
    {
      "midi": 61,
      "hit": false,
      "t": 152480.00999999902,
      "d": 78.73999999999069,
      "v": 127
    },
    {
      "midi": 44,
      "hit": false,
      "t": 152480.00999999975,
      "d": 78.73999999999069,
      "v": 127
    },
    {
      "midi": 52,
      "hit": false,
      "t": 152480.0100000001,
      "d": 433.070000000007,
      "v": 127
    },
    {
      "midi": 61,
      "hit": false,
      "t": 152480.01000000013,
      "d": 314.95999999999185,
      "v": 127
    },
    {
      "midi": 61,
      "hit": false,
      "t": 152480.01000000015,
      "d": 314.95999999999185,
      "v": 127
    },
    {
      "midi": 61,
      "hit": false,
      "t": 152480.01000000015,
      "d": 314.95999999999185,
      "v": 127
    },
    {
      "midi": 61,
      "hit": false,
      "t": 152480.01000000015,
      "d": 314.95999999999185,
      "v": 127
    },
    {
      "midi": 52,
      "hit": false,
      "t": 152598.119999999,
      "d": 78.73999999999069,
      "v": 127
    },
    {
      "midi": 64,
      "hit": false,
      "t": 152598.119999999,
      "d": 78.73999999999069,
      "v": 127
    },
    {
      "midi": 47,
      "hit": false,
      "t": 152598.11999999973,
      "d": 157.48000000001048,
      "v": 127
    },
    {
      "midi": 51,
      "hit": false,
      "t": 152716.229999999,
      "d": 78.73999999999069,
      "v": 127
    },
    {
      "midi": 64,
      "hit": false,
      "t": 152716.229999999,
      "d": 78.73999999999069,
      "v": 127
    },
    {
      "midi": 49,
      "hit": false,
      "t": 152834.33999999898,
      "d": 157.48000000001048,
      "v": 127
    },
    {
      "midi": 61,
      "hit": false,
      "t": 152834.33999999898,
      "d": 157.48000000001048,
      "v": 127
    },
    {
      "midi": 49,
      "hit": false,
      "t": 152834.33999999973,
      "d": 157.48000000001048,
      "v": 127
    },
    {
      "midi": 44,
      "hit": false,
      "t": 152952.4500000001,
      "d": 78.73999999999069,
      "v": 127
    },
    {
      "midi": 56,
      "hit": false,
      "t": 152952.45000000013,
      "d": 78.73999999999069,
      "v": 127
    },
    {
      "midi": 56,
      "hit": false,
      "t": 152952.45000000016,
      "d": 78.73999999999069,
      "v": 127
    },
    {
      "midi": 56,
      "hit": false,
      "t": 152952.45000000016,
      "d": 78.73999999999069,
      "v": 127
    },
    {
      "midi": 56,
      "hit": false,
      "t": 152952.45000000016,
      "d": 78.73999999999069,
      "v": 127
    },
    {
      "midi": 47,
      "hit": false,
      "t": 153070.55999999898,
      "d": 157.48000000001048,
      "v": 127
    },
    {
      "midi": 59,
      "hit": false,
      "t": 153070.55999999898,
      "d": 157.48000000001048,
      "v": 127
    },
    {
      "midi": 35,
      "hit": false,
      "t": 153070.55999999974,
      "d": 157.48000000001048,
      "v": 127
    },
    {
      "midi": 68,
      "hit": false,
      "t": 153070.55999999974,
      "d": 314.95999999999185,
      "v": 127
    },
    {
      "midi": 68,
      "hit": false,
      "t": 153070.55999999997,
      "d": 314.96000000002095,
      "v": 127
    },
    {
      "midi": 63,
      "hit": false,
      "t": 153070.55999999997,
      "d": 2047.2400000000198,
      "v": 127
    },
    {
      "midi": 47,
      "hit": false,
      "t": 153070.56000000008,
      "d": 157.48000000001048,
      "v": 127
    },
    {
      "midi": 64,
      "hit": false,
      "t": 153070.5600000001,
      "d": 157.48000000001048,
      "v": 127
    },
    {
      "midi": 68,
      "hit": false,
      "t": 153070.5600000001,
      "d": 157.48000000001048,
      "v": 127
    },
    {
      "midi": 63,
      "hit": false,
      "t": 153070.5600000001,
      "d": 2047.2400000000198,
      "v": 127
    },
    {
      "midi": 59,
      "hit": false,
      "t": 153070.5600000001,
      "d": 157.48000000001048,
      "v": 127
    },
    {
      "midi": 59,
      "hit": false,
      "t": 153070.56000000014,
      "d": 157.48000000001048,
      "v": 127
    },
    {
      "midi": 59,
      "hit": false,
      "t": 153070.56000000014,
      "d": 157.48000000001048,
      "v": 127
    },
    {
      "midi": 59,
      "hit": false,
      "t": 153070.56000000014,
      "d": 157.48000000001048,
      "v": 127
    },
    {
      "midi": 49,
      "hit": false,
      "t": 153070.56000000084,
      "d": 157.48000000001048,
      "v": 127
    },
    {
      "midi": 59,
      "hit": false,
      "t": 153306.77999999898,
      "d": 157.48000000001048,
      "v": 127
    },
    {
      "midi": 47,
      "hit": false,
      "t": 153306.77999999898,
      "d": 157.48000000001048,
      "v": 127
    },
    {
      "midi": 35,
      "hit": false,
      "t": 153306.77999999974,
      "d": 157.47999999998137,
      "v": 127
    },
    {
      "midi": 47,
      "hit": false,
      "t": 153306.7800000001,
      "d": 157.48000000001048,
      "v": 127
    },
    {
      "midi": 59,
      "hit": false,
      "t": 153306.78000000012,
      "d": 157.48000000001048,
      "v": 127
    },
    {
      "midi": 59,
      "hit": false,
      "t": 153306.78000000014,
      "d": 157.48000000001048,
      "v": 127
    },
    {
      "midi": 59,
      "hit": false,
      "t": 153306.78000000014,
      "d": 157.48000000001048,
      "v": 127
    },
    {
      "midi": 59,
      "hit": false,
      "t": 153306.78000000014,
      "d": 157.48000000001048,
      "v": 127
    },
    {
      "midi": 36,
      "hit": false,
      "t": 153306.78000000084,
      "d": 157.47999999998137,
      "v": 127
    },
    {
      "midi": 59,
      "hit": false,
      "t": 153542.99999999898,
      "d": 157.48000000001048,
      "v": 127
    },
    {
      "midi": 47,
      "hit": false,
      "t": 153542.99999999898,
      "d": 157.48000000001048,
      "v": 127
    },
    {
      "midi": 47,
      "hit": false,
      "t": 153542.9999999997,
      "d": 236.22000000000116,
      "v": 127
    },
    {
      "midi": 47,
      "hit": false,
      "t": 153543.0000000001,
      "d": 157.48000000001048,
      "v": 127
    },
    {
      "midi": 59,
      "hit": false,
      "t": 153543.00000000012,
      "d": 157.48000000001048,
      "v": 127
    },
    {
      "midi": 59,
      "hit": false,
      "t": 153543.00000000015,
      "d": 157.48000000001048,
      "v": 127
    },
    {
      "midi": 59,
      "hit": false,
      "t": 153543.00000000015,
      "d": 157.48000000001048,
      "v": 127
    },
    {
      "midi": 59,
      "hit": false,
      "t": 153543.00000000015,
      "d": 157.48000000001048,
      "v": 127
    },
    {
      "midi": 59,
      "hit": false,
      "t": 153543.00000000081,
      "d": 314.95999999999185,
      "v": 127
    },
    {
      "midi": 56,
      "hit": false,
      "t": 153779.21999999898,
      "d": 78.73999999999069,
      "v": 127
    },
    {
      "midi": 44,
      "hit": false,
      "t": 153779.21999999898,
      "d": 78.73999999999069,
      "v": 127
    },
    {
      "midi": 44,
      "hit": false,
      "t": 153779.2200000001,
      "d": 78.73999999999069,
      "v": 127
    },
    {
      "midi": 61,
      "hit": false,
      "t": 153779.22000000012,
      "d": 78.73999999999069,
      "v": 127
    },
    {
      "midi": 61,
      "hit": false,
      "t": 153779.22000000015,
      "d": 78.73999999999069,
      "v": 127
    },
    {
      "midi": 61,
      "hit": false,
      "t": 153779.22000000015,
      "d": 78.73999999999069,
      "v": 127
    },
    {
      "midi": 61,
      "hit": false,
      "t": 153779.22000000015,
      "d": 78.73999999999069,
      "v": 127
    },
    {
      "midi": 52,
      "hit": false,
      "t": 153779.22000000082,
      "d": 157.47999999998137,
      "v": 127
    },
    {
      "midi": 59,
      "hit": false,
      "t": 153897.32999999897,
      "d": 78.73999999999069,
      "v": 127
    },
    {
      "midi": 47,
      "hit": false,
      "t": 153897.32999999897,
      "d": 78.73999999999069,
      "v": 127
    },
    {
      "midi": 44,
      "hit": false,
      "t": 153897.3299999997,
      "d": 157.48000000001048,
      "v": 127
    },
    {
      "midi": 47,
      "hit": false,
      "t": 153897.33000000007,
      "d": 157.48000000001048,
      "v": 127
    },
    {
      "midi": 59,
      "hit": false,
      "t": 153897.3300000001,
      "d": 629.9200000000128,
      "v": 127
    },
    {
      "midi": 59,
      "hit": false,
      "t": 153897.33000000013,
      "d": 629.9200000000128,
      "v": 127
    },
    {
      "midi": 59,
      "hit": false,
      "t": 153897.33000000013,
      "d": 629.9200000000128,
      "v": 127
    },
    {
      "midi": 59,
      "hit": false,
      "t": 153897.33000000013,
      "d": 629.9200000000128,
      "v": 127
    },
    {
      "midi": 59,
      "hit": false,
      "t": 154015.43999999895,
      "d": 78.73999999999069,
      "v": 127
    },
    {
      "midi": 47,
      "hit": false,
      "t": 154015.43999999895,
      "d": 78.73999999999069,
      "v": 127
    },
    {
      "midi": 68,
      "hit": false,
      "t": 154015.44000000012,
      "d": 314.95999999999185,
      "v": 127
    },
    {
      "midi": 50,
      "hit": false,
      "t": 154015.4400000008,
      "d": 236.22000000000116,
      "v": 127
    },
    {
      "midi": 49,
      "hit": false,
      "t": 154015.4400000008,
      "d": 314.95999999999185,
      "v": 127
    },
    {
      "midi": 59,
      "hit": false,
      "t": 154133.54999999894,
      "d": 78.73999999999069,
      "v": 127
    },
    {
      "midi": 47,
      "hit": false,
      "t": 154133.54999999894,
      "d": 78.73999999999069,
      "v": 127
    },
    {
      "midi": 44,
      "hit": false,
      "t": 154133.5499999997,
      "d": 157.48000000001048,
      "v": 127
    },
    {
      "midi": 47,
      "hit": false,
      "t": 154133.55000000008,
      "d": 157.48000000001048,
      "v": 127
    },
    {
      "midi": 59,
      "hit": false,
      "t": 154251.65999999893,
      "d": 78.73999999999069,
      "v": 127
    },
    {
      "midi": 47,
      "hit": false,
      "t": 154251.65999999893,
      "d": 78.73999999999069,
      "v": 127
    },
    {
      "midi": 59,
      "hit": false,
      "t": 154369.7699999989,
      "d": 78.73999999999069,
      "v": 127
    },
    {
      "midi": 47,
      "hit": false,
      "t": 154369.7699999989,
      "d": 78.73999999999069,
      "v": 127
    },
    {
      "midi": 42,
      "hit": false,
      "t": 154369.7699999997,
      "d": 78.73999999999069,
      "v": 127
    },
    {
      "midi": 44,
      "hit": false,
      "t": 154369.77000000008,
      "d": 78.73999999999069,
      "v": 127
    },
    {
      "midi": 50,
      "hit": false,
      "t": 154369.77000000078,
      "d": 236.21999999997206,
      "v": 127
    },
    {
      "midi": 61,
      "hit": false,
      "t": 154487.8799999989,
      "d": 78.73999999999069,
      "v": 127
    },
    {
      "midi": 49,
      "hit": false,
      "t": 154487.8799999989,
      "d": 78.73999999999069,
      "v": 127
    },
    {
      "midi": 40,
      "hit": false,
      "t": 154487.87999999968,
      "d": 157.48000000001048,
      "v": 127
    },
    {
      "midi": 47,
      "hit": false,
      "t": 154487.88000000006,
      "d": 157.48000000001048,
      "v": 127
    },
    {
      "midi": 71,
      "hit": false,
      "t": 154487.88000000012,
      "d": 314.95999999999185,
      "v": 127
    },
    {
      "midi": 59,
      "hit": false,
      "t": 154487.88000000076,
      "d": 314.95999999996275,
      "v": 127
    },
    {
      "midi": 59,
      "hit": false,
      "t": 154605.98999999888,
      "d": 78.73999999999069,
      "v": 127
    },
    {
      "midi": 47,
      "hit": false,
      "t": 154605.98999999888,
      "d": 78.73999999999069,
      "v": 127
    },
    {
      "midi": 57,
      "hit": false,
      "t": 154724.09999999887,
      "d": 157.48000000001048,
      "v": 127
    },
    {
      "midi": 45,
      "hit": false,
      "t": 154724.09999999887,
      "d": 157.48000000001048,
      "v": 127
    },
    {
      "midi": 42,
      "hit": false,
      "t": 154724.0999999997,
      "d": 157.48000000001048,
      "v": 127
    },
    {
      "midi": 49,
      "hit": false,
      "t": 154724.10000000006,
      "d": 157.48000000001048,
      "v": 127
    },
    {
      "midi": 59,
      "hit": false,
      "t": 154724.10000000012,
      "d": 157.48000000001048,
      "v": 127
    },
    {
      "midi": 59,
      "hit": false,
      "t": 154724.10000000015,
      "d": 157.48000000001048,
      "v": 127
    },
    {
      "midi": 59,
      "hit": false,
      "t": 154724.10000000015,
      "d": 157.48000000001048,
      "v": 127
    },
    {
      "midi": 59,
      "hit": false,
      "t": 154724.10000000015,
      "d": 157.48000000001048,
      "v": 127
    },
    {
      "midi": 52,
      "hit": false,
      "t": 154724.10000000073,
      "d": 157.47999999998137,
      "v": 127
    },
    {
      "midi": 57,
      "hit": false,
      "t": 154960.31999999887,
      "d": 157.48000000001048,
      "v": 127
    },
    {
      "midi": 45,
      "hit": false,
      "t": 154960.31999999887,
      "d": 157.48000000001048,
      "v": 127
    },
    {
      "midi": 61,
      "hit": false,
      "t": 154960.31999999998,
      "d": 944.8800000000047,
      "v": 127
    },
    {
      "midi": 45,
      "hit": false,
      "t": 154960.32000000007,
      "d": 157.48000000001048,
      "v": 127
    },
    {
      "midi": 61,
      "hit": false,
      "t": 154960.32000000012,
      "d": 944.8800000000047,
      "v": 127
    },
    {
      "midi": 61,
      "hit": false,
      "t": 154960.32000000012,
      "d": 314.95999999999185,
      "v": 127
    },
    {
      "midi": 73,
      "hit": false,
      "t": 154960.32000000012,
      "d": 629.9200000000128,
      "v": 127
    },
    {
      "midi": 61,
      "hit": false,
      "t": 154960.32000000015,
      "d": 314.95999999999185,
      "v": 127
    },
    {
      "midi": 61,
      "hit": false,
      "t": 154960.32000000015,
      "d": 314.95999999999185,
      "v": 127
    },
    {
      "midi": 61,
      "hit": false,
      "t": 154960.32000000015,
      "d": 314.95999999999185,
      "v": 127
    },
    {
      "midi": 57,
      "hit": false,
      "t": 155196.53999999887,
      "d": 157.48000000001048,
      "v": 127
    },
    {
      "midi": 45,
      "hit": false,
      "t": 155196.53999999887,
      "d": 157.48000000001048,
      "v": 127
    },
    {
      "midi": 40,
      "hit": false,
      "t": 155196.54000000007,
      "d": 157.48000000001048,
      "v": 127
    },
    {
      "midi": 57,
      "hit": false,
      "t": 155432.75999999887,
      "d": 157.48000000001048,
      "v": 127
    },
    {
      "midi": 45,
      "hit": false,
      "t": 155432.75999999887,
      "d": 157.48000000001048,
      "v": 127
    },
    {
      "midi": 45,
      "hit": false,
      "t": 155432.76000000007,
      "d": 157.48000000001048,
      "v": 127
    },
    {
      "midi": 61,
      "hit": false,
      "t": 155432.76000000013,
      "d": 157.48000000001048,
      "v": 127
    },
    {
      "midi": 61,
      "hit": false,
      "t": 155432.76000000015,
      "d": 157.48000000001048,
      "v": 127
    },
    {
      "midi": 61,
      "hit": false,
      "t": 155432.76000000015,
      "d": 157.48000000001048,
      "v": 127
    },
    {
      "midi": 61,
      "hit": false,
      "t": 155432.76000000015,
      "d": 157.48000000001048,
      "v": 127
    },
    {
      "midi": 57,
      "hit": false,
      "t": 155668.97999999888,
      "d": 78.73999999999069,
      "v": 127
    },
    {
      "midi": 45,
      "hit": false,
      "t": 155668.97999999888,
      "d": 78.73999999999069,
      "v": 127
    },
    {
      "midi": 49,
      "hit": false,
      "t": 155668.98000000007,
      "d": 157.48000000001048,
      "v": 127
    },
    {
      "midi": 64,
      "hit": false,
      "t": 155668.98000000013,
      "d": 157.48000000001048,
      "v": 127
    },
    {
      "midi": 64,
      "hit": false,
      "t": 155668.98000000016,
      "d": 157.48000000001048,
      "v": 127
    },
    {
      "midi": 64,
      "hit": false,
      "t": 155668.98000000016,
      "d": 157.48000000001048,
      "v": 127
    },
    {
      "midi": 64,
      "hit": false,
      "t": 155668.98000000016,
      "d": 157.48000000001048,
      "v": 127
    },
    {
      "midi": 57,
      "hit": false,
      "t": 155787.08999999886,
      "d": 78.73999999999069,
      "v": 127
    },
    {
      "midi": 45,
      "hit": false,
      "t": 155787.08999999886,
      "d": 78.73999999999069,
      "v": 127
    },
    {
      "midi": 59,
      "hit": false,
      "t": 155905.19999999885,
      "d": 78.73999999999069,
      "v": 127
    },
    {
      "midi": 47,
      "hit": false,
      "t": 155905.19999999885,
      "d": 78.73999999999069,
      "v": 127
    },
    {
      "midi": 63,
      "hit": false,
      "t": 155905.19999999998,
      "d": 1102.359999999986,
      "v": 127
    },
    {
      "midi": 47,
      "hit": false,
      "t": 155905.20000000007,
      "d": 236.22000000000116,
      "v": 127
    },
    {
      "midi": 63,
      "hit": false,
      "t": 155905.20000000013,
      "d": 1102.359999999986,
      "v": 127
    },
    {
      "midi": 63,
      "hit": false,
      "t": 155905.20000000013,
      "d": 236.22000000000116,
      "v": 127
    },
    {
      "midi": 75,
      "hit": false,
      "t": 155905.20000000013,
      "d": 629.9200000000128,
      "v": 127
    },
    {
      "midi": 63,
      "hit": false,
      "t": 155905.20000000016,
      "d": 236.22000000000116,
      "v": 127
    },
    {
      "midi": 63,
      "hit": false,
      "t": 155905.20000000016,
      "d": 236.22000000000116,
      "v": 127
    },
    {
      "midi": 63,
      "hit": false,
      "t": 155905.20000000016,
      "d": 236.22000000000116,
      "v": 127
    },
    {
      "midi": 59,
      "hit": false,
      "t": 156023.30999999883,
      "d": 78.73999999999069,
      "v": 127
    },
    {
      "midi": 47,
      "hit": false,
      "t": 156023.30999999883,
      "d": 78.73999999999069,
      "v": 127
    },
    {
      "midi": 59,
      "hit": false,
      "t": 156141.41999999882,
      "d": 78.73999999999069,
      "v": 127
    },
    {
      "midi": 47,
      "hit": false,
      "t": 156141.41999999882,
      "d": 78.73999999999069,
      "v": 127
    },
    {
      "midi": 59,
      "hit": false,
      "t": 156259.5299999988,
      "d": 78.73999999999069,
      "v": 127
    },
    {
      "midi": 47,
      "hit": false,
      "t": 156259.5299999988,
      "d": 78.73999999999069,
      "v": 127
    },
    {
      "midi": 42,
      "hit": false,
      "t": 156259.53000000006,
      "d": 236.22000000000116,
      "v": 127
    },
    {
      "midi": 59,
      "hit": false,
      "t": 156259.53000000012,
      "d": 236.22000000000116,
      "v": 127
    },
    {
      "midi": 59,
      "hit": false,
      "t": 156259.53000000014,
      "d": 236.22000000000116,
      "v": 127
    },
    {
      "midi": 59,
      "hit": false,
      "t": 156259.53000000014,
      "d": 236.22000000000116,
      "v": 127
    },
    {
      "midi": 59,
      "hit": false,
      "t": 156259.53000000014,
      "d": 236.22000000000116,
      "v": 127
    },
    {
      "midi": 59,
      "hit": false,
      "t": 156377.6399999988,
      "d": 78.73999999999069,
      "v": 127
    },
    {
      "midi": 47,
      "hit": false,
      "t": 156377.6399999988,
      "d": 78.73999999999069,
      "v": 127
    },
    {
      "midi": 59,
      "hit": false,
      "t": 156495.74999999878,
      "d": 78.73999999999069,
      "v": 127
    },
    {
      "midi": 47,
      "hit": false,
      "t": 156495.74999999878,
      "d": 78.73999999999069,
      "v": 127
    },
    {
      "midi": 59,
      "hit": false,
      "t": 156613.85999999876,
      "d": 157.48000000001048,
      "v": 127
    },
    {
      "midi": 47,
      "hit": false,
      "t": 156613.85999999876,
      "d": 157.48000000001048,
      "v": 127
    },
    {
      "midi": 51,
      "hit": false,
      "t": 156613.86000000004,
      "d": 157.48000000001048,
      "v": 127
    },
    {
      "midi": 63,
      "hit": false,
      "t": 156613.8600000001,
      "d": 157.48000000001048,
      "v": 127
    },
    {
      "midi": 63,
      "hit": false,
      "t": 156613.86000000013,
      "d": 157.48000000001048,
      "v": 127
    },
    {
      "midi": 63,
      "hit": false,
      "t": 156613.86000000013,
      "d": 157.48000000001048,
      "v": 127
    },
    {
      "midi": 63,
      "hit": false,
      "t": 156613.86000000013,
      "d": 157.48000000001048,
      "v": 127
    },
    {
      "midi": 49,
      "hit": false,
      "t": 156850.07999999876,
      "d": 157.48000000001048,
      "v": 127
    },
    {
      "midi": 61,
      "hit": false,
      "t": 156850.07999999876,
      "d": 157.48000000001048,
      "v": 127
    },
    {
      "midi": 68,
      "hit": false,
      "t": 156850.0799999997,
      "d": 78.73999999999069,
      "v": 107
    },
    {
      "midi": 37,
      "hit": false,
      "t": 156850.0799999997,
      "d": 157.47999999998137,
      "v": 127
    },
    {
      "midi": 68,
      "hit": false,
      "t": 156850.08,
      "d": 78.73999999999069,
      "v": 127
    },
    {
      "midi": 37,
      "hit": false,
      "t": 156850.08000000005,
      "d": 157.48000000001048,
      "v": 127
    },
    {
      "midi": 61,
      "hit": false,
      "t": 156850.0800000001,
      "d": 314.95999999999185,
      "v": 127
    },
    {
      "midi": 68,
      "hit": false,
      "t": 156850.08000000013,
      "d": 78.73999999999069,
      "v": 127
    },
    {
      "midi": 61,
      "hit": false,
      "t": 156850.08000000013,
      "d": 314.95999999999185,
      "v": 127
    },
    {
      "midi": 61,
      "hit": false,
      "t": 156850.08000000013,
      "d": 314.95999999999185,
      "v": 127
    },
    {
      "midi": 73,
      "hit": false,
      "t": 156850.08000000013,
      "d": 629.9200000000128,
      "v": 127
    },
    {
      "midi": 61,
      "hit": false,
      "t": 156850.08000000013,
      "d": 314.95999999999185,
      "v": 127
    },
    {
      "midi": 66,
      "hit": false,
      "t": 156968.18999999968,
      "d": 78.73999999999069,
      "v": 107
    },
    {
      "midi": 66,
      "hit": false,
      "t": 156968.18999999997,
      "d": 78.73999999999069,
      "v": 127
    },
    {
      "midi": 66,
      "hit": false,
      "t": 156968.19000000012,
      "d": 78.73999999999069,
      "v": 127
    },
    {
      "midi": 49,
      "hit": false,
      "t": 157086.29999999877,
      "d": 157.48000000001048,
      "v": 127
    },
    {
      "midi": 61,
      "hit": false,
      "t": 157086.29999999877,
      "d": 157.48000000001048,
      "v": 127
    },
    {
      "midi": 64,
      "hit": false,
      "t": 157086.29999999967,
      "d": 78.73999999999069,
      "v": 107
    },
    {
      "midi": 37,
      "hit": false,
      "t": 157086.29999999967,
      "d": 157.47999999998137,
      "v": 127
    },
    {
      "midi": 64,
      "hit": false,
      "t": 157086.29999999996,
      "d": 78.73999999999069,
      "v": 127
    },
    {
      "midi": 37,
      "hit": false,
      "t": 157086.30000000005,
      "d": 157.48000000001048,
      "v": 127
    },
    {
      "midi": 64,
      "hit": false,
      "t": 157086.3000000001,
      "d": 78.73999999999069,
      "v": 127
    },
    {
      "midi": 61,
      "hit": false,
      "t": 157204.40999999965,
      "d": 157.47999999998137,
      "v": 107
    },
    {
      "midi": 61,
      "hit": false,
      "t": 157204.40999999995,
      "d": 157.48000000001048,
      "v": 127
    },
    {
      "midi": 61,
      "hit": false,
      "t": 157204.4100000001,
      "d": 157.48000000001048,
      "v": 127
    },
    {
      "midi": 49,
      "hit": false,
      "t": 157322.51999999877,
      "d": 157.48000000001048,
      "v": 127
    },
    {
      "midi": 61,
      "hit": false,
      "t": 157322.51999999877,
      "d": 157.48000000001048,
      "v": 127
    },
    {
      "midi": 49,
      "hit": false,
      "t": 157322.51999999964,
      "d": 236.21999999997206,
      "v": 127
    },
    {
      "midi": 49,
      "hit": false,
      "t": 157322.52000000005,
      "d": 236.22000000000116,
      "v": 127
    },
    {
      "midi": 61,
      "hit": false,
      "t": 157440.62999999963,
      "d": 157.47999999998137,
      "v": 107
    },
    {
      "midi": 61,
      "hit": false,
      "t": 157440.62999999995,
      "d": 157.48000000001048,
      "v": 127
    },
    {
      "midi": 61,
      "hit": false,
      "t": 157440.6300000001,
      "d": 157.48000000001048,
      "v": 127
    },
    {
      "midi": 47,
      "hit": false,
      "t": 157558.73999999877,
      "d": 78.73999999999069,
      "v": 127
    },
    {
      "midi": 59,
      "hit": false,
      "t": 157558.73999999877,
      "d": 78.73999999999069,
      "v": 127
    },
    {
      "midi": 48,
      "hit": false,
      "t": 157676.84999999875,
      "d": 78.73999999999069,
      "v": 127
    },
    {
      "midi": 60,
      "hit": false,
      "t": 157676.84999999875,
      "d": 78.73999999999069,
      "v": 127
    },
    {
      "midi": 47,
      "hit": false,
      "t": 157676.8499999996,
      "d": 157.48000000001048,
      "v": 127
    },
    {
      "midi": 66,
      "hit": false,
      "t": 157676.8499999996,
      "d": 157.48000000001048,
      "v": 107
    },
    {
      "midi": 66,
      "hit": false,
      "t": 157676.84999999995,
      "d": 157.48000000001048,
      "v": 127
    },
    {
      "midi": 47,
      "hit": false,
      "t": 157676.85000000003,
      "d": 157.48000000001048,
      "v": 127
    },
    {
      "midi": 66,
      "hit": false,
      "t": 157676.8500000001,
      "d": 157.48000000001048,
      "v": 127
    },
    {
      "midi": 49,
      "hit": false,
      "t": 157794.95999999874,
      "d": 78.73999999999069,
      "v": 127
    },
    {
      "midi": 61,
      "hit": false,
      "t": 157794.95999999874,
      "d": 78.73999999999069,
      "v": 127
    },
    {
      "midi": 49,
      "hit": false,
      "t": 157913.06999999873,
      "d": 78.73999999999069,
      "v": 127
    },
    {
      "midi": 61,
      "hit": false,
      "t": 157913.06999999873,
      "d": 78.73999999999069,
      "v": 127
    },
    {
      "midi": 47,
      "hit": false,
      "t": 157913.0699999996,
      "d": 157.47999999998137,
      "v": 127
    },
    {
      "midi": 63,
      "hit": false,
      "t": 157913.0699999996,
      "d": 157.47999999998137,
      "v": 107
    },
    {
      "midi": 63,
      "hit": false,
      "t": 157913.06999999995,
      "d": 157.47999999998137,
      "v": 127
    },
    {
      "midi": 47,
      "hit": false,
      "t": 157913.07000000004,
      "d": 157.48000000001048,
      "v": 127
    },
    {
      "midi": 63,
      "hit": false,
      "t": 157913.0700000001,
      "d": 157.47999999998137,
      "v": 127
    },
    {
      "midi": 49,
      "hit": false,
      "t": 158031.1799999987,
      "d": 78.73999999999069,
      "v": 127
    },
    {
      "midi": 61,
      "hit": false,
      "t": 158031.1799999987,
      "d": 78.73999999999069,
      "v": 127
    },
    {
      "midi": 64,
      "hit": false,
      "t": 158031.1799999996,
      "d": 157.47999999998137,
      "v": 107
    },
    {
      "midi": 64,
      "hit": false,
      "t": 158031.17999999993,
      "d": 157.48000000001048,
      "v": 127
    },
    {
      "midi": 64,
      "hit": false,
      "t": 158031.18000000008,
      "d": 157.48000000001048,
      "v": 127
    },
    {
      "midi": 49,
      "hit": false,
      "t": 158149.2899999987,
      "d": 78.73999999999069,
      "v": 127
    },
    {
      "midi": 61,
      "hit": false,
      "t": 158149.2899999987,
      "d": 78.73999999999069,
      "v": 127
    },
    {
      "midi": 44,
      "hit": false,
      "t": 158149.28999999957,
      "d": 78.73999999999069,
      "v": 127
    },
    {
      "midi": 44,
      "hit": false,
      "t": 158149.29000000004,
      "d": 78.73999999999069,
      "v": 127
    },
    {
      "midi": 52,
      "hit": false,
      "t": 158267.39999999868,
      "d": 78.73999999999069,
      "v": 127
    },
    {
      "midi": 64,
      "hit": false,
      "t": 158267.39999999868,
      "d": 78.73999999999069,
      "v": 127
    },
    {
      "midi": 47,
      "hit": false,
      "t": 158267.39999999956,
      "d": 157.48000000001048,
      "v": 127
    },
    {
      "midi": 59,
      "hit": false,
      "t": 158267.39999999956,
      "d": 157.48000000001048,
      "v": 107
    },
    {
      "midi": 59,
      "hit": false,
      "t": 158267.39999999994,
      "d": 157.48000000001048,
      "v": 127
    },
    {
      "midi": 47,
      "hit": false,
      "t": 158267.40000000002,
      "d": 157.48000000001048,
      "v": 127
    },
    {
      "midi": 59,
      "hit": false,
      "t": 158267.40000000008,
      "d": 157.48000000001048,
      "v": 127
    },
    {
      "midi": 51,
      "hit": false,
      "t": 158385.50999999867,
      "d": 78.73999999999069,
      "v": 127
    },
    {
      "midi": 64,
      "hit": false,
      "t": 158385.50999999867,
      "d": 78.73999999999069,
      "v": 127
    },
    {
      "midi": 49,
      "hit": false,
      "t": 158503.61999999866,
      "d": 157.48000000001048,
      "v": 127
    },
    {
      "midi": 61,
      "hit": false,
      "t": 158503.61999999866,
      "d": 157.48000000001048,
      "v": 127
    },
    {
      "midi": 49,
      "hit": false,
      "t": 158503.61999999956,
      "d": 157.48000000001048,
      "v": 127
    },
    {
      "midi": 66,
      "hit": false,
      "t": 158503.61999999956,
      "d": 3389.7570000000123,
      "v": 107
    },
    {
      "midi": 66,
      "hit": false,
      "t": 158503.61999999994,
      "d": 1499.997000000003,
      "v": 127
    },
    {
      "midi": 49,
      "hit": false,
      "t": 158503.62000000002,
      "d": 157.48000000001048,
      "v": 127
    },
    {
      "midi": 66,
      "hit": false,
      "t": 158503.62000000008,
      "d": 1499.997000000003,
      "v": 127
    }
  ]
}