{
  "jsonPath": "Animes/Sailor Moon MIDI Collection/ending.json",
  "path": "Animes\\Sailor Moon MIDI Collection\\Ending.mid",
  "name": "Ending",
  "difficulty": "Advanced",
  "bpm": 143.000143000143,
  "notes": [
    {
      "midi": 55,
      "hit": false,
      "t": 1269.2295000000001,
      "d": 452.79675,
      "v": 127
    },
    {
      "midi": 55,
      "hit": false,
      "t": 1269.2295000000001,
      "d": 158.21662500000002,
      "v": 127
    },
    {
      "midi": 53,
      "hit": false,
      "t": 1337.41125,
      "d": 159.09075000000007,
      "v": 127
    },
    {
      "midi": 57,
      "hit": false,
      "t": 1382.86575,
      "d": 21.85312500000009,
      "v": 127
    },
    {
      "midi": 51,
      "hit": false,
      "t": 1382.8657500000002,
      "d": 159.09075000000007,
      "v": 127
    },
    {
      "midi": 50,
      "hit": false,
      "t": 1428.3202500000002,
      "d": 159.09075000000007,
      "v": 127
    },
    {
      "midi": 57,
      "hit": false,
      "t": 1485.138375,
      "d": 34.090875000000096,
      "v": 127
    },
    {
      "midi": 48,
      "hit": false,
      "t": 1485.1383750000002,
      "d": 159.09075000000007,
      "v": 127
    },
    {
      "midi": 47,
      "hit": false,
      "t": 1530.5928750000003,
      "d": 159.09075000000007,
      "v": 127
    },
    {
      "midi": 57,
      "hit": false,
      "t": 1587.411,
      "d": 22.727249999999913,
      "v": 127
    },
    {
      "midi": 45,
      "hit": false,
      "t": 1587.4110000000003,
      "d": 158.21662500000002,
      "v": 127
    },
    {
      "midi": 43,
      "hit": false,
      "t": 1644.2291250000003,
      "d": 158.21662500000002,
      "v": 127
    },
    {
      "midi": 42,
      "hit": false,
      "t": 1688.8095,
      "d": 305.94375000000014,
      "v": 127
    },
    {
      "midi": 30,
      "hit": false,
      "t": 1688.8095,
      "d": 305.94375000000014,
      "v": 127
    },
    {
      "midi": 57,
      "hit": false,
      "t": 1688.8095,
      "d": 45.45450000000005,
      "v": 127
    },
    {
      "midi": 39,
      "hit": false,
      "t": 1688.8095,
      "d": 148.60124999999994,
      "v": 127
    },
    {
      "midi": 35,
      "hit": false,
      "t": 1688.8095,
      "d": 297.2025000000001,
      "v": 127
    },
    {
      "midi": 30,
      "hit": false,
      "t": 1688.8095000000003,
      "d": 297.2025000000001,
      "v": 127
    },
    {
      "midi": 42,
      "hit": false,
      "t": 1688.8095000000003,
      "d": 305.94375000000014,
      "v": 127
    },
    {
      "midi": 43,
      "hit": false,
      "t": 1904.7183750000002,
      "d": 305.94375000000014,
      "v": 127
    },
    {
      "midi": 31,
      "hit": false,
      "t": 1904.7183750000002,
      "d": 305.94375000000014,
      "v": 127
    },
    {
      "midi": 39,
      "hit": false,
      "t": 1904.7183750000002,
      "d": 297.2025000000001,
      "v": 127
    },
    {
      "midi": 38,
      "hit": false,
      "t": 1904.7183750000002,
      "d": 297.2025000000001,
      "v": 127
    },
    {
      "midi": 31,
      "hit": false,
      "t": 1904.7183750000004,
      "d": 297.2024999999999,
      "v": 127
    },
    {
      "midi": 43,
      "hit": false,
      "t": 1904.7183750000004,
      "d": 305.9437499999999,
      "v": 127
    },
    {
      "midi": 43,
      "hit": false,
      "t": 2222.0257500000002,
      "d": 74.30062499999985,
      "v": 127
    },
    {
      "midi": 43,
      "hit": false,
      "t": 2324.2983750000003,
      "d": 74.30062499999985,
      "v": 127
    },
    {
      "midi": 45,
      "hit": false,
      "t": 2426.5710000000004,
      "d": 74.30062499999985,
      "v": 127
    },
    {
      "midi": 45,
      "hit": false,
      "t": 2527.9695,
      "d": 74.30062499999985,
      "v": 127
    },
    {
      "midi": 47,
      "hit": false,
      "t": 2641.60575,
      "d": 74.30062499999985,
      "v": 127
    },
    {
      "midi": 51,
      "hit": false,
      "t": 2947.5495,
      "d": 297.2024999999999,
      "v": 127
    },
    {
      "midi": 39,
      "hit": false,
      "t": 2947.5495,
      "d": 297.2024999999999,
      "v": 127
    },
    {
      "midi": 51,
      "hit": false,
      "t": 2947.5495,
      "d": 297.2024999999999,
      "v": 127
    },
    {
      "midi": 27,
      "hit": false,
      "t": 2947.5495,
      "d": 297.2024999999999,
      "v": 127
    },
    {
      "midi": 39,
      "hit": false,
      "t": 2947.5495,
      "d": 148.60125000000016,
      "v": 127
    },
    {
      "midi": 38,
      "hit": false,
      "t": 2947.5495,
      "d": 148.60125000000016,
      "v": 127
    },
    {
      "midi": 40,
      "hit": false,
      "t": 2947.5495,
      "d": 148.60125000000016,
      "v": 127
    },
    {
      "midi": 57,
      "hit": false,
      "t": 2947.5495,
      "d": 305.9437499999999,
      "v": 127
    },
    {
      "midi": 50,
      "hit": false,
      "t": 3163.458375,
      "d": 297.2024999999999,
      "v": 127
    },
    {
      "midi": 50,
      "hit": false,
      "t": 3163.458375,
      "d": 297.2024999999999,
      "v": 127
    },
    {
      "midi": 38,
      "hit": false,
      "t": 3163.458375,
      "d": 297.2024999999999,
      "v": 127
    },
    {
      "midi": 26,
      "hit": false,
      "t": 3163.458375,
      "d": 297.2024999999999,
      "v": 127
    },
    {
      "midi": 35,
      "hit": false,
      "t": 3163.458375,
      "d": 148.6012499999997,
      "v": 127
    },
    {
      "midi": 36,
      "hit": false,
      "t": 3163.458375,
      "d": 148.6012499999997,
      "v": 127
    },
    {
      "midi": 47,
      "hit": false,
      "t": 3367.1295,
      "d": 297.2024999999999,
      "v": 127
    },
    {
      "midi": 47,
      "hit": false,
      "t": 3367.1295,
      "d": 297.2024999999999,
      "v": 127
    },
    {
      "midi": 35,
      "hit": false,
      "t": 3367.1295,
      "d": 297.2024999999999,
      "v": 127
    },
    {
      "midi": 23,
      "hit": false,
      "t": 3367.1295,
      "d": 297.2024999999999,
      "v": 127
    },
    {
      "midi": 39,
      "hit": false,
      "t": 3367.1295,
      "d": 148.60125000000016,
      "v": 127
    },
    {
      "midi": 40,
      "hit": false,
      "t": 3367.1295,
      "d": 148.60125000000016,
      "v": 127
    },
    {
      "midi": 38,
      "hit": false,
      "t": 3367.1295,
      "d": 148.60125000000016,
      "v": 127
    },
    {
      "midi": 48,
      "hit": false,
      "t": 3583.038375,
      "d": 297.2024999999999,
      "v": 127
    },
    {
      "midi": 48,
      "hit": false,
      "t": 3583.038375,
      "d": 297.2024999999999,
      "v": 127
    },
    {
      "midi": 36,
      "hit": false,
      "t": 3583.038375,
      "d": 297.2024999999999,
      "v": 127
    },
    {
      "midi": 24,
      "hit": false,
      "t": 3583.038375,
      "d": 297.2024999999999,
      "v": 127
    },
    {
      "midi": 35,
      "hit": false,
      "t": 3583.038375,
      "d": 148.60125000000016,
      "v": 127
    },
    {
      "midi": 36,
      "hit": false,
      "t": 3583.038375,
      "d": 148.60125000000016,
      "v": 127
    },
    {
      "midi": 56,
      "hit": false,
      "t": 3786.7095,
      "d": 297.2024999999999,
      "v": 127
    },
    {
      "midi": 56,
      "hit": false,
      "t": 3786.7095,
      "d": 297.2024999999999,
      "v": 127
    },
    {
      "midi": 44,
      "hit": false,
      "t": 3786.7095,
      "d": 297.2024999999999,
      "v": 127
    },
    {
      "midi": 32,
      "hit": false,
      "t": 3786.7095,
      "d": 297.2024999999999,
      "v": 127
    },
    {
      "midi": 40,
      "hit": false,
      "t": 3786.7095000000004,
      "d": 148.60125000000016,
      "v": 127
    },
    {
      "midi": 38,
      "hit": false,
      "t": 3786.7095000000004,
      "d": 148.60125000000016,
      "v": 127
    },
    {
      "midi": 39,
      "hit": false,
      "t": 3786.7095000000004,
      "d": 148.60125000000016,
      "v": 127
    },
    {
      "midi": 57,
      "hit": false,
      "t": 3786.7095000000004,
      "d": 305.9437499999999,
      "v": 127
    },
    {
      "midi": 55,
      "hit": false,
      "t": 4002.618375,
      "d": 297.2024999999994,
      "v": 127
    },
    {
      "midi": 55,
      "hit": false,
      "t": 4002.618375,
      "d": 297.2024999999994,
      "v": 127
    },
    {
      "midi": 43,
      "hit": false,
      "t": 4002.618375,
      "d": 297.2024999999994,
      "v": 127
    },
    {
      "midi": 31,
      "hit": false,
      "t": 4002.618375,
      "d": 297.2024999999994,
      "v": 127
    },
    {
      "midi": 35,
      "hit": false,
      "t": 4002.6183750000005,
      "d": 148.60125000000016,
      "v": 127
    },
    {
      "midi": 36,
      "hit": false,
      "t": 4002.6183750000005,
      "d": 148.60125000000016,
      "v": 127
    },
    {
      "midi": 43,
      "hit": false,
      "t": 4422.198375000001,
      "d": 148.6012499999997,
      "v": 127
    },
    {
      "midi": 38,
      "hit": false,
      "t": 4422.198375000001,
      "d": 148.6012499999997,
      "v": 127
    },
    {
      "midi": 38,
      "hit": false,
      "t": 4625.869500000001,
      "d": 148.6012499999997,
      "v": 127
    },
    {
      "midi": 43,
      "hit": false,
      "t": 4625.869500000001,
      "d": 148.6012499999997,
      "v": 127
    },
    {
      "midi": 38,
      "hit": false,
      "t": 4841.778375000001,
      "d": 148.6012499999997,
      "v": 127
    },
    {
      "midi": 43,
      "hit": false,
      "t": 4841.778375000001,
      "d": 148.6012499999997,
      "v": 127
    },
    {
      "midi": 67,
      "hit": false,
      "t": 5045.4495,
      "d": 362.76187500000015,
      "v": 127
    },
    {
      "midi": 48,
      "hit": false,
      "t": 5045.4495,
      "d": 1587.411,
      "v": 127
    },
    {
      "midi": 43,
      "hit": false,
      "t": 5045.4495,
      "d": 1587.411,
      "v": 127
    },
    {
      "midi": 36,
      "hit": false,
      "t": 5045.4495,
      "d": 148.6012499999997,
      "v": 127
    },
    {
      "midi": 55,
      "hit": false,
      "t": 5045.449500000001,
      "d": 305.94375000000036,
      "v": 127
    },
    {
      "midi": 35,
      "hit": false,
      "t": 5045.449500000001,
      "d": 148.6012499999997,
      "v": 127
    },
    {
      "midi": 57,
      "hit": false,
      "t": 5045.449500000001,
      "d": 297.2024999999994,
      "v": 127
    },
    {
      "midi": 67,
      "hit": false,
      "t": 5045.4495000000015,
      "d": 1644.2291249999998,
      "v": 127
    },
    {
      "midi": 63,
      "hit": false,
      "t": 5045.4495000000015,
      "d": 1644.2291249999998,
      "v": 127
    },
    {
      "midi": 60,
      "hit": false,
      "t": 5045.4495000000015,
      "d": 1644.2291249999998,
      "v": 127
    },
    {
      "midi": 24,
      "hit": false,
      "t": 5261.358375,
      "d": 148.6012499999997,
      "v": 127
    },
    {
      "midi": 67,
      "hit": false,
      "t": 5465.0295,
      "d": 226.39837499999976,
      "v": 127
    },
    {
      "midi": 36,
      "hit": false,
      "t": 5465.0295,
      "d": 148.6012499999997,
      "v": 127
    },
    {
      "midi": 38,
      "hit": false,
      "t": 5465.0295,
      "d": 148.6012499999997,
      "v": 127
    },
    {
      "midi": 55,
      "hit": false,
      "t": 5465.029500000001,
      "d": 158.21662500000002,
      "v": 127
    },
    {
      "midi": 65,
      "hit": false,
      "t": 5680.938375,
      "d": 362.76187500000015,
      "v": 127
    },
    {
      "midi": 24,
      "hit": false,
      "t": 5680.938375,
      "d": 148.6012499999997,
      "v": 127
    },
    {
      "midi": 53,
      "hit": false,
      "t": 5680.938375000001,
      "d": 305.94375000000036,
      "v": 127
    },
    {
      "midi": 36,
      "hit": false,
      "t": 5884.6095,
      "d": 148.6012499999997,
      "v": 127
    },
    {
      "midi": 35,
      "hit": false,
      "t": 5884.6095,
      "d": 148.6012499999997,
      "v": 127
    },
    {
      "midi": 65,
      "hit": false,
      "t": 6100.518375,
      "d": 226.39837499999976,
      "v": 127
    },
    {
      "midi": 24,
      "hit": false,
      "t": 6100.518375,
      "d": 148.6012499999997,
      "v": 127
    },
    {
      "midi": 53,
      "hit": false,
      "t": 6100.518375000001,
      "d": 148.6012499999997,
      "v": 127
    },
    {
      "midi": 63,
      "hit": false,
      "t": 6304.1894999999995,
      "d": 419.5799999999999,
      "v": 127
    },
    {
      "midi": 36,
      "hit": false,
      "t": 6304.1894999999995,
      "d": 148.6012499999997,
      "v": 127
    },
    {
      "midi": 38,
      "hit": false,
      "t": 6304.1894999999995,
      "d": 148.6012499999997,
      "v": 127
    },
    {
      "midi": 51,
      "hit": false,
      "t": 6304.1895,
      "d": 305.94375000000036,
      "v": 127
    },
    {
      "midi": 24,
      "hit": false,
      "t": 6520.098375,
      "d": 148.6012499999997,
      "v": 127
    },
    {
      "midi": 62,
      "hit": false,
      "t": 6723.769499999999,
      "d": 452.7967499999995,
      "v": 127
    },
    {
      "midi": 47,
      "hit": false,
      "t": 6723.769499999999,
      "d": 1587.4109999999991,
      "v": 127
    },
    {
      "midi": 43,
      "hit": false,
      "t": 6723.769499999999,
      "d": 1587.4109999999991,
      "v": 127
    },
    {
      "midi": 35,
      "hit": false,
      "t": 6723.769499999999,
      "d": 148.6012499999997,
      "v": 127
    },
    {
      "midi": 35,
      "hit": false,
      "t": 6723.769499999999,
      "d": 148.6012499999997,
      "v": 127
    },
    {
      "midi": 50,
      "hit": false,
      "t": 6723.7695,
      "d": 452.7967499999995,
      "v": 127
    },
    {
      "midi": 59,
      "hit": false,
      "t": 6723.769500000001,
      "d": 1644.2291250000007,
      "v": 127
    },
    {
      "midi": 62,
      "hit": false,
      "t": 6723.769500000001,
      "d": 1644.2291250000007,
      "v": 127
    },
    {
      "midi": 67,
      "hit": false,
      "t": 6723.769500000001,
      "d": 1644.2291250000007,
      "v": 127
    },
    {
      "midi": 26,
      "hit": false,
      "t": 6939.6783749999995,
      "d": 148.6012499999997,
      "v": 127
    },
    {
      "midi": 65,
      "hit": false,
      "t": 7143.349499999999,
      "d": 895.1039999999994,
      "v": 127
    },
    {
      "midi": 35,
      "hit": false,
      "t": 7143.349499999999,
      "d": 148.6012499999997,
      "v": 127
    },
    {
      "midi": 38,
      "hit": false,
      "t": 7143.349499999999,
      "d": 148.6012499999997,
      "v": 127
    },
    {
      "midi": 53,
      "hit": false,
      "t": 7143.3495,
      "d": 895.1039999999994,
      "v": 127
    },
    {
      "midi": 26,
      "hit": false,
      "t": 7359.258374999999,
      "d": 148.6012499999997,
      "v": 127
    },
    {
      "midi": 35,
      "hit": false,
      "t": 7562.929499999999,
      "d": 148.6012499999997,
      "v": 127
    },
    {
      "midi": 35,
      "hit": false,
      "t": 7562.929499999999,
      "d": 148.6012499999997,
      "v": 127
    },
    {
      "midi": 26,
      "hit": false,
      "t": 7778.838374999999,
      "d": 148.6012499999997,
      "v": 127
    },
    {
      "midi": 35,
      "hit": false,
      "t": 7982.509499999999,
      "d": 148.6012499999997,
      "v": 127
    },
    {
      "midi": 38,
      "hit": false,
      "t": 7982.509499999999,
      "d": 148.6012499999997,
      "v": 127
    },
    {
      "midi": 84,
      "hit": false,
      "t": 7982.509500000001,
      "d": 74.30062499999985,
      "v": 127
    },
    {
      "midi": 85,
      "hit": false,
      "t": 8050.691250000001,
      "d": 74.30062499999985,
      "v": 127
    },
    {
      "midi": 86,
      "hit": false,
      "t": 8107.509375000001,
      "d": 74.30062499999985,
      "v": 127
    },
    {
      "midi": 87,
      "hit": false,
      "t": 8164.3275,
      "d": 74.30062500000076,
      "v": 127
    },
    {
      "midi": 26,
      "hit": false,
      "t": 8198.418375,
      "d": 148.6012499999997,
      "v": 127
    },
    {
      "midi": 88,
      "hit": false,
      "t": 8198.418375000001,
      "d": 74.30062499999985,
      "v": 127
    },
    {
      "midi": 89,
      "hit": false,
      "t": 8255.2365,
      "d": 74.30062499999985,
      "v": 127
    },
    {
      "midi": 90,
      "hit": false,
      "t": 8300.691,
      "d": 74.30062499999985,
      "v": 127
    },
    {
      "midi": 91,
      "hit": false,
      "t": 8334.781875,
      "d": 74.30062499999985,
      "v": 127
    },
    {
      "midi": 65,
      "hit": false,
      "t": 8402.089499999998,
      "d": 645.9783749999988,
      "v": 127
    },
    {
      "midi": 47,
      "hit": false,
      "t": 8402.089499999998,
      "d": 1587.411,
      "v": 127
    },
    {
      "midi": 43,
      "hit": false,
      "t": 8402.089499999998,
      "d": 1587.411,
      "v": 127
    },
    {
      "midi": 35,
      "hit": false,
      "t": 8402.089499999998,
      "d": 148.6012499999997,
      "v": 127
    },
    {
      "midi": 35,
      "hit": false,
      "t": 8402.089499999998,
      "d": 148.6012499999997,
      "v": 127
    },
    {
      "midi": 53,
      "hit": false,
      "t": 8402.0895,
      "d": 452.7967499999995,
      "v": 127
    },
    {
      "midi": 92,
      "hit": false,
      "t": 8402.0895,
      "d": 74.30062499999985,
      "v": 127
    },
    {
      "midi": 59,
      "hit": false,
      "t": 8402.089500000002,
      "d": 1644.2291249999998,
      "v": 127
    },
    {
      "midi": 62,
      "hit": false,
      "t": 8402.089500000002,
      "d": 1644.2291249999998,
      "v": 127
    },
    {
      "midi": 67,
      "hit": false,
      "t": 8402.089500000002,
      "d": 1644.2291249999998,
      "v": 127
    },
    {
      "midi": 93,
      "hit": false,
      "t": 8470.27125,
      "d": 74.30062499999985,
      "v": 127
    },
    {
      "midi": 94,
      "hit": false,
      "t": 8515.72575,
      "d": 74.30062499999985,
      "v": 127
    },
    {
      "midi": 95,
      "hit": false,
      "t": 8583.9075,
      "d": 74.30062499999985,
      "v": 127
    },
    {
      "midi": 26,
      "hit": false,
      "t": 8617.998374999997,
      "d": 148.6012499999997,
      "v": 127
    },
    {
      "midi": 96,
      "hit": false,
      "t": 8617.998375,
      "d": 725.5237500000003,
      "v": 127
    },
    {
      "midi": 35,
      "hit": false,
      "t": 8821.669499999996,
      "d": 148.6012499999997,
      "v": 127
    },
    {
      "midi": 38,
      "hit": false,
      "t": 8821.669499999998,
      "d": 148.6012499999997,
      "v": 127
    },
    {
      "midi": 26,
      "hit": false,
      "t": 9037.578374999996,
      "d": 148.6012499999997,
      "v": 127
    },
    {
      "midi": 63,
      "hit": false,
      "t": 9037.578374999997,
      "d": 645.9783749999988,
      "v": 127
    },
    {
      "midi": 51,
      "hit": false,
      "t": 9037.578375,
      "d": 453.6708749999998,
      "v": 127
    },
    {
      "midi": 35,
      "hit": false,
      "t": 9241.249499999994,
      "d": 148.6012499999997,
      "v": 127
    },
    {
      "midi": 35,
      "hit": false,
      "t": 9241.249499999998,
      "d": 148.6012499999997,
      "v": 127
    },
    {
      "midi": 26,
      "hit": false,
      "t": 9457.158374999994,
      "d": 148.6012499999997,
      "v": 127
    },
    {
      "midi": 35,
      "hit": false,
      "t": 9660.829499999993,
      "d": 148.6012499999997,
      "v": 127
    },
    {
      "midi": 62,
      "hit": false,
      "t": 9660.829499999996,
      "d": 419.5799999999999,
      "v": 127
    },
    {
      "midi": 38,
      "hit": false,
      "t": 9660.829499999998,
      "d": 148.6012499999997,
      "v": 127
    },
    {
      "midi": 50,
      "hit": false,
      "t": 9660.8295,
      "d": 297.2024999999994,
      "v": 127
    },
    {
      "midi": 26,
      "hit": false,
      "t": 9876.738374999992,
      "d": 148.6012499999997,
      "v": 127
    },
    {
      "midi": 36,
      "hit": false,
      "t": 10080.40949999999,
      "d": 148.6012499999997,
      "v": 127
    },
    {
      "midi": 60,
      "hit": false,
      "t": 10080.409499999996,
      "d": 452.7967499999995,
      "v": 127
    },
    {
      "midi": 48,
      "hit": false,
      "t": 10080.409499999998,
      "d": 1587.411,
      "v": 127
    },
    {
      "midi": 43,
      "hit": false,
      "t": 10080.409499999998,
      "d": 1587.411,
      "v": 127
    },
    {
      "midi": 35,
      "hit": false,
      "t": 10080.409499999998,
      "d": 148.6012499999997,
      "v": 127
    },
    {
      "midi": 48,
      "hit": false,
      "t": 10080.4095,
      "d": 446.6778749999994,
      "v": 127
    },
    {
      "midi": 67,
      "hit": false,
      "t": 10080.409500000002,
      "d": 1644.2291249999998,
      "v": 127
    },
    {
      "midi": 60,
      "hit": false,
      "t": 10080.409500000002,
      "d": 1644.2291249999998,
      "v": 127
    },
    {
      "midi": 63,
      "hit": false,
      "t": 10080.409500000002,
      "d": 1644.2291249999998,
      "v": 127
    },
    {
      "midi": 24,
      "hit": false,
      "t": 10296.31837499999,
      "d": 148.6012499999997,
      "v": 127
    },
    {
      "midi": 36,
      "hit": false,
      "t": 10499.989499999989,
      "d": 148.6012499999997,
      "v": 127
    },
    {
      "midi": 63,
      "hit": false,
      "t": 10499.989499999996,
      "d": 893.3557499999988,
      "v": 127
    },
    {
      "midi": 38,
      "hit": false,
      "t": 10499.989499999998,
      "d": 148.6012499999997,
      "v": 127
    },
    {
      "midi": 51,
      "hit": false,
      "t": 10499.9895,
      "d": 893.3557499999988,
      "v": 127
    },
    {
      "midi": 24,
      "hit": false,
      "t": 10715.898374999988,
      "d": 148.6012499999997,
      "v": 127
    },
    {
      "midi": 36,
      "hit": false,
      "t": 10919.569499999987,
      "d": 148.6012499999997,
      "v": 127
    },
    {
      "midi": 35,
      "hit": false,
      "t": 10919.569499999998,
      "d": 148.6012499999997,
      "v": 127
    },
    {
      "midi": 24,
      "hit": false,
      "t": 11135.478374999986,
      "d": 148.6012499999997,
      "v": 127
    },
    {
      "midi": 36,
      "hit": false,
      "t": 11339.149499999985,
      "d": 148.6012499999997,
      "v": 127
    },
    {
      "midi": 57,
      "hit": false,
      "t": 11339.149499999998,
      "d": 148.6012499999997,
      "v": 127
    },
    {
      "midi": 38,
      "hit": false,
      "t": 11339.149499999998,
      "d": 148.6012499999997,
      "v": 127
    },
    {
      "midi": 24,
      "hit": false,
      "t": 11555.058374999984,
      "d": 148.6012499999997,
      "v": 127
    },
    {
      "midi": 36,
      "hit": false,
      "t": 11758.729499999983,
      "d": 148.6012499999997,
      "v": 127
    },
    {
      "midi": 60,
      "hit": false,
      "t": 11758.729499999994,
      "d": 351.3982500000002,
      "v": 127
    },
    {
      "midi": 51,
      "hit": false,
      "t": 11758.729499999998,
      "d": 446.6778749999994,
      "v": 127
    },
    {
      "midi": 43,
      "hit": false,
      "t": 11758.729499999998,
      "d": 645.9783749999988,
      "v": 127
    },
    {
      "midi": 48,
      "hit": false,
      "t": 11758.729499999998,
      "d": 645.9783749999988,
      "v": 127
    },
    {
      "midi": 35,
      "hit": false,
      "t": 11758.729499999998,
      "d": 148.6012499999997,
      "v": 127
    },
    {
      "midi": 63,
      "hit": false,
      "t": 11758.729500000001,
      "d": 2937.060000000014,
      "v": 127
    },
    {
      "midi": 39,
      "hit": false,
      "t": 11758.729500000001,
      "d": 2937.060000000014,
      "v": 127
    },
    {
      "midi": 51,
      "hit": false,
      "t": 11758.729500000001,
      "d": 2937.060000000014,
      "v": 127
    },
    {
      "midi": 60,
      "hit": false,
      "t": 11758.729500000001,
      "d": 589.1602500000008,
      "v": 127
    },
    {
      "midi": 63,
      "hit": false,
      "t": 11758.729500000001,
      "d": 589.1602500000008,
      "v": 127
    },
    {
      "midi": 60,
      "hit": false,
      "t": 11758.729500000001,
      "d": 589.1602500000008,
      "v": 127
    },
    {
      "midi": 67,
      "hit": false,
      "t": 11770.093125000001,
      "d": 590.0343750000011,
      "v": 127
    },
    {
      "midi": 67,
      "hit": false,
      "t": 11770.093125000001,
      "d": 590.0343750000011,
      "v": 127
    },
    {
      "midi": 24,
      "hit": false,
      "t": 11974.638374999982,
      "d": 148.6012499999997,
      "v": 127
    },
    {
      "midi": 36,
      "hit": false,
      "t": 12178.309499999981,
      "d": 148.6012499999997,
      "v": 127
    },
    {
      "midi": 38,
      "hit": false,
      "t": 12178.309499999998,
      "d": 148.6012499999997,
      "v": 127
    },
    {
      "midi": 60,
      "hit": false,
      "t": 12189.673124999994,
      "d": 227.27249999999913,
      "v": 127
    },
    {
      "midi": 48,
      "hit": false,
      "t": 12189.673124999998,
      "d": 148.6012499999997,
      "v": 127
    },
    {
      "midi": 24,
      "hit": false,
      "t": 12394.21837499998,
      "d": 148.6012499999997,
      "v": 127
    },
    {
      "midi": 63,
      "hit": false,
      "t": 12394.218374999993,
      "d": 453.6708749999998,
      "v": 127
    },
    {
      "midi": 51,
      "hit": false,
      "t": 12394.218374999997,
      "d": 453.6708749999998,
      "v": 127
    },
    {
      "midi": 51,
      "hit": false,
      "t": 12394.218374999997,
      "d": 998.2507499999992,
      "v": 127
    },
    {
      "midi": 46,
      "hit": false,
      "t": 12394.218374999997,
      "d": 998.2507499999992,
      "v": 127
    },
    {
      "midi": 70,
      "hit": false,
      "t": 12394.218375000002,
      "d": 998.2507499999992,
      "v": 127
    },
    {
      "midi": 63,
      "hit": false,
      "t": 12394.218375000002,
      "d": 998.2507499999992,
      "v": 127
    },
    {
      "midi": 63,
      "hit": false,
      "t": 12394.218375000002,
      "d": 998.2507499999992,
      "v": 127
    },
    {
      "midi": 58,
      "hit": false,
      "t": 12394.218375000002,
      "d": 998.2507499999992,
      "v": 127
    },
    {
      "midi": 39,
      "hit": false,
      "t": 12597.88949999998,
      "d": 148.6012499999997,
      "v": 127
    },
    {
      "midi": 35,
      "hit": false,
      "t": 12597.889499999997,
      "d": 148.6012499999997,
      "v": 127
    },
    {
      "midi": 27,
      "hit": false,
      "t": 12813.798374999978,
      "d": 148.6012499999997,
      "v": 127
    },
    {
      "midi": 60,
      "hit": false,
      "t": 12813.798374999993,
      "d": 226.39837500000067,
      "v": 127
    },
    {
      "midi": 48,
      "hit": false,
      "t": 12813.798374999997,
      "d": 148.6012499999997,
      "v": 127
    },
    {
      "midi": 39,
      "hit": false,
      "t": 13017.469499999977,
      "d": 148.6012499999997,
      "v": 127
    },
    {
      "midi": 63,
      "hit": false,
      "t": 13017.469499999994,
      "d": 226.39837499999885,
      "v": 127
    },
    {
      "midi": 51,
      "hit": false,
      "t": 13017.469499999996,
      "d": 148.6012499999997,
      "v": 127
    },
    {
      "midi": 38,
      "hit": false,
      "t": 13017.469499999997,
      "d": 148.6012499999997,
      "v": 127
    },
    {
      "midi": 27,
      "hit": false,
      "t": 13233.378374999977,
      "d": 148.6012499999997,
      "v": 127
    },
    {
      "midi": 67,
      "hit": false,
      "t": 13233.378374999993,
      "d": 226.39837499999885,
      "v": 127
    },
    {
      "midi": 55,
      "hit": false,
      "t": 13233.378374999995,
      "d": 148.6012499999997,
      "v": 127
    },
    {
      "midi": 29,
      "hit": false,
      "t": 13437.049499999976,
      "d": 148.6012499999997,
      "v": 127
    },
    {
      "midi": 70,
      "hit": false,
      "t": 13437.049499999992,
      "d": 419.5799999999999,
      "v": 127
    },
    {
      "midi": 58,
      "hit": false,
      "t": 13437.049499999994,
      "d": 297.2024999999994,
      "v": 127
    },
    {
      "midi": 48,
      "hit": false,
      "t": 13437.049499999996,
      "d": 297.2024999999994,
      "v": 127
    },
    {
      "midi": 41,
      "hit": false,
      "t": 13437.049499999996,
      "d": 297.2024999999994,
      "v": 127
    },
    {
      "midi": 57,
      "hit": false,
      "t": 13437.049499999997,
      "d": 148.6012499999997,
      "v": 127
    },
    {
      "midi": 38,
      "hit": false,
      "t": 13437.049499999997,
      "d": 148.6012499999997,
      "v": 127
    },
    {
      "midi": 39,
      "hit": false,
      "t": 13437.049499999997,
      "d": 148.6012499999997,
      "v": 127
    },
    {
      "midi": 40,
      "hit": false,
      "t": 13437.049499999997,
      "d": 148.6012499999997,
      "v": 127
    },
    {
      "midi": 65,
      "hit": false,
      "t": 13437.049500000001,
      "d": 577.7966250000009,
      "v": 127
    },
    {
      "midi": 72,
      "hit": false,
      "t": 13437.049500000001,
      "d": 577.7966250000009,
      "v": 127
    },
    {
      "midi": 29,
      "hit": false,
      "t": 13856.629499999975,
      "d": 148.6012499999997,
      "v": 127
    },
    {
      "midi": 68,
      "hit": false,
      "t": 13856.629499999992,
      "d": 419.5799999999999,
      "v": 127
    },
    {
      "midi": 56,
      "hit": false,
      "t": 13856.629499999994,
      "d": 297.2024999999994,
      "v": 127
    },
    {
      "midi": 48,
      "hit": false,
      "t": 13856.629499999995,
      "d": 148.6012499999997,
      "v": 127
    },
    {
      "midi": 41,
      "hit": false,
      "t": 13856.629499999995,
      "d": 148.6012499999997,
      "v": 127
    },
    {
      "midi": 38,
      "hit": false,
      "t": 13856.629499999997,
      "d": 148.6012499999997,
      "v": 127
    },
    {
      "midi": 57,
      "hit": false,
      "t": 13856.629499999997,
      "d": 148.6012499999997,
      "v": 127
    },
    {
      "midi": 40,
      "hit": false,
      "t": 13856.629499999997,
      "d": 148.6012499999997,
      "v": 127
    },
    {
      "midi": 39,
      "hit": false,
      "t": 13856.629499999997,
      "d": 148.6012499999997,
      "v": 127
    },
    {
      "midi": 68,
      "hit": false,
      "t": 14492.118374999991,
      "d": 226.39837500000067,
      "v": 127
    },
    {
      "midi": 56,
      "hit": false,
      "t": 14492.118374999993,
      "d": 148.6012499999997,
      "v": 127
    },
    {
      "midi": 67,
      "hit": false,
      "t": 14695.789499999992,
      "d": 226.39837499999885,
      "v": 127
    },
    {
      "midi": 55,
      "hit": false,
      "t": 14695.789499999992,
      "d": 148.6012499999997,
      "v": 127
    },
    {
      "midi": 39,
      "hit": false,
      "t": 14695.789499999997,
      "d": 297.2024999999994,
      "v": 127
    },
    {
      "midi": 43,
      "hit": false,
      "t": 14695.789499999997,
      "d": 297.2024999999994,
      "v": 127
    },
    {
      "midi": 35,
      "hit": false,
      "t": 14695.789499999997,
      "d": 305.94374999999854,
      "v": 127
    },
    {
      "midi": 65,
      "hit": false,
      "t": 14911.69837499999,
      "d": 226.39837499999885,
      "v": 127
    },
    {
      "midi": 53,
      "hit": false,
      "t": 14911.69837499999,
      "d": 148.6012499999997,
      "v": 127
    },
    {
      "midi": 31,
      "hit": false,
      "t": 15115.369499999975,
      "d": 452.7967499999995,
      "v": 127
    },
    {
      "midi": 67,
      "hit": false,
      "t": 15115.36949999999,
      "d": 452.7967499999995,
      "v": 127
    },
    {
      "midi": 55,
      "hit": false,
      "t": 15115.36949999999,
      "d": 452.7967499999995,
      "v": 127
    },
    {
      "midi": 38,
      "hit": false,
      "t": 15115.369499999995,
      "d": 158.2166249999991,
      "v": 127
    },
    {
      "midi": 39,
      "hit": false,
      "t": 15115.369499999995,
      "d": 158.2166249999991,
      "v": 127
    },
    {
      "midi": 40,
      "hit": false,
      "t": 15115.369499999995,
      "d": 158.2166249999991,
      "v": 127
    },
    {
      "midi": 33,
      "hit": false,
      "t": 15534.949499999975,
      "d": 452.7967499999995,
      "v": 127
    },
    {
      "midi": 65,
      "hit": false,
      "t": 15534.94949999999,
      "d": 452.7967499999995,
      "v": 127
    },
    {
      "midi": 53,
      "hit": false,
      "t": 15534.94949999999,
      "d": 452.7967499999995,
      "v": 127
    },
    {
      "midi": 38,
      "hit": false,
      "t": 15534.949499999995,
      "d": 148.6012499999997,
      "v": 127
    },
    {
      "midi": 39,
      "hit": false,
      "t": 15534.949499999995,
      "d": 148.6012499999997,
      "v": 127
    },
    {
      "midi": 40,
      "hit": false,
      "t": 15534.949499999995,
      "d": 158.2166249999991,
      "v": 127
    },
    {
      "midi": 34,
      "hit": false,
      "t": 15954.529499999975,
      "d": 148.6012499999997,
      "v": 127
    },
    {
      "midi": 63,
      "hit": false,
      "t": 15954.52949999999,
      "d": 226.39837499999885,
      "v": 127
    },
    {
      "midi": 51,
      "hit": false,
      "t": 15954.52949999999,
      "d": 148.6012499999997,
      "v": 127
    },
    {
      "midi": 38,
      "hit": false,
      "t": 15954.529499999995,
      "d": 148.6012499999997,
      "v": 127
    },
    {
      "midi": 39,
      "hit": false,
      "t": 15954.529499999995,
      "d": 148.6012499999997,
      "v": 127
    },
    {
      "midi": 40,
      "hit": false,
      "t": 15954.529499999995,
      "d": 148.6012499999997,
      "v": 127
    },
    {
      "midi": 35,
      "hit": false,
      "t": 16170.438374999974,
      "d": 453.6708750000016,
      "v": 127
    },
    {
      "midi": 62,
      "hit": false,
      "t": 16170.438374999989,
      "d": 453.6708750000016,
      "v": 127
    },
    {
      "midi": 50,
      "hit": false,
      "t": 16170.438374999989,
      "d": 453.6708750000016,
      "v": 127
    },
    {
      "midi": 38,
      "hit": false,
      "t": 16170.438374999994,
      "d": 148.6012499999997,
      "v": 127
    },
    {
      "midi": 39,
      "hit": false,
      "t": 16170.438374999994,
      "d": 148.6012499999997,
      "v": 127
    },
    {
      "midi": 40,
      "hit": false,
      "t": 16170.438374999994,
      "d": 148.6012499999997,
      "v": 127
    },
    {
      "midi": 36,
      "hit": false,
      "t": 16590.018374999974,
      "d": 305.9437500000022,
      "v": 127
    },
    {
      "midi": 60,
      "hit": false,
      "t": 16590.01837499999,
      "d": 419.58000000000175,
      "v": 127
    },
    {
      "midi": 48,
      "hit": false,
      "t": 16590.01837499999,
      "d": 305.9437500000022,
      "v": 127
    },
    {
      "midi": 40,
      "hit": false,
      "t": 16590.018374999992,
      "d": 148.6012499999997,
      "v": 127
    },
    {
      "midi": 35,
      "hit": false,
      "t": 16590.018374999992,
      "d": 159.0907499999994,
      "v": 127
    },
    {
      "midi": 38,
      "hit": false,
      "t": 16590.018374999992,
      "d": 159.0907499999994,
      "v": 127
    },
    {
      "midi": 60,
      "hit": false,
      "t": 17213.26949999999,
      "d": 297.2024999999994,
      "v": 127
    },
    {
      "midi": 39,
      "hit": false,
      "t": 17213.26949999999,
      "d": 305.94374999999854,
      "v": 127
    },
    {
      "midi": 40,
      "hit": false,
      "t": 17429.178374999992,
      "d": 74.30062499999985,
      "v": 127
    },
    {
      "midi": 40,
      "hit": false,
      "t": 17531.45099999999,
      "d": 74.30062499999985,
      "v": 127
    },
    {
      "midi": 40,
      "hit": false,
      "t": 17644.21312499999,
      "d": 74.30062499999985,
      "v": 127
    },
    {
      "midi": 67,
      "hit": false,
      "t": 17848.75837499999,
      "d": 226.39837500000067,
      "v": 127
    },
    {
      "midi": 63,
      "hit": false,
      "t": 18052.42949999999,
      "d": 226.39837500000067,
      "v": 127
    },
    {
      "midi": 43,
      "hit": false,
      "t": 18052.42949999999,
      "d": 297.2024999999994,
      "v": 127
    },
    {
      "midi": 36,
      "hit": false,
      "t": 18052.42949999999,
      "d": 297.2024999999994,
      "v": 127
    },
    {
      "midi": 35,
      "hit": false,
      "t": 18052.42949999999,
      "d": 297.2024999999994,
      "v": 127
    },
    {
      "midi": 41,
      "hit": false,
      "t": 18052.42949999999,
      "d": 297.2024999999994,
      "v": 127
    },
    {
      "midi": 67,
      "hit": false,
      "t": 18279.70199999999,
      "d": 362.76187500000015,
      "v": 127
    },
    {
      "midi": 36,
      "hit": false,
      "t": 18472.00949999998,
      "d": 148.6012499999997,
      "v": 127
    },
    {
      "midi": 35,
      "hit": false,
      "t": 18472.00949999999,
      "d": 148.6012499999997,
      "v": 127
    },
    {
      "midi": 57,
      "hit": false,
      "t": 18472.00949999999,
      "d": 297.2024999999994,
      "v": 127
    },
    {
      "midi": 48,
      "hit": false,
      "t": 18472.009499999993,
      "d": 385.48912500000006,
      "v": 127
    },
    {
      "midi": 43,
      "hit": false,
      "t": 18472.009499999993,
      "d": 385.48912500000006,
      "v": 127
    },
    {
      "midi": 43,
      "hit": false,
      "t": 18472.009499999996,
      "d": 385.48912500000006,
      "v": 127
    },
    {
      "midi": 48,
      "hit": false,
      "t": 18472.009499999996,
      "d": 385.48912500000006,
      "v": 127
    },
    {
      "midi": 60,
      "hit": false,
      "t": 18472.0095,
      "d": 1644.2291250000017,
      "v": 127
    },
    {
      "midi": 63,
      "hit": false,
      "t": 18472.0095,
      "d": 1644.2291250000017,
      "v": 127
    },
    {
      "midi": 67,
      "hit": false,
      "t": 18472.0095,
      "d": 1644.2291250000017,
      "v": 127
    },
    {
      "midi": 24,
      "hit": false,
      "t": 18687.91837499998,
      "d": 148.6012499999997,
      "v": 127
    },
    {
      "midi": 67,
      "hit": false,
      "t": 18687.91837499999,
      "d": 148.6012499999997,
      "v": 127
    },
    {
      "midi": 108,
      "hit": false,
      "t": 18687.918375000012,
      "d": 148.6012499999997,
      "v": 127
    },
    {
      "midi": 103,
      "hit": false,
      "t": 18687.918375000012,
      "d": 148.6012499999997,
      "v": 127
    },
    {
      "midi": 99,
      "hit": false,
      "t": 18687.918375000012,
      "d": 148.6012499999997,
      "v": 127
    },
    {
      "midi": 36,
      "hit": false,
      "t": 18891.58949999998,
      "d": 148.6012499999997,
      "v": 127
    },
    {
      "midi": 38,
      "hit": false,
      "t": 18891.589499999987,
      "d": 148.6012499999997,
      "v": 127
    },
    {
      "midi": 67,
      "hit": false,
      "t": 18891.58949999999,
      "d": 148.6012499999997,
      "v": 127
    },
    {
      "midi": 103,
      "hit": false,
      "t": 18891.589500000013,
      "d": 148.6012499999997,
      "v": 127
    },
    {
      "midi": 96,
      "hit": false,
      "t": 18891.589500000013,
      "d": 148.6012499999997,
      "v": 127
    },
    {
      "midi": 91,
      "hit": false,
      "t": 18891.589500000013,
      "d": 148.6012499999997,
      "v": 127
    },
    {
      "midi": 24,
      "hit": false,
      "t": 19107.49837499998,
      "d": 148.6012499999997,
      "v": 127
    },
    {
      "midi": 67,
      "hit": false,
      "t": 19107.498374999992,
      "d": 226.39837500000067,
      "v": 127
    },
    {
      "midi": 48,
      "hit": false,
      "t": 19107.498374999992,
      "d": 998.2507499999992,
      "v": 127
    },
    {
      "midi": 43,
      "hit": false,
      "t": 19107.498374999992,
      "d": 998.2507499999992,
      "v": 127
    },
    {
      "midi": 43,
      "hit": false,
      "t": 19107.498374999996,
      "d": 998.2507499999992,
      "v": 127
    },
    {
      "midi": 48,
      "hit": false,
      "t": 19107.498374999996,
      "d": 998.2507499999992,
      "v": 127
    },
    {
      "midi": 108,
      "hit": false,
      "t": 19107.498375000014,
      "d": 148.6012499999997,
      "v": 127
    },
    {
      "midi": 103,
      "hit": false,
      "t": 19107.498375000014,
      "d": 148.6012499999997,
      "v": 127
    },
    {
      "midi": 99,
      "hit": false,
      "t": 19107.498375000014,
      "d": 148.6012499999997,
      "v": 127
    },
    {
      "midi": 36,
      "hit": false,
      "t": 19311.16949999998,
      "d": 148.6012499999997,
      "v": 127
    },
    {
      "midi": 35,
      "hit": false,
      "t": 19311.169499999985,
      "d": 148.6012499999997,
      "v": 127
    },
    {
      "midi": 65,
      "hit": false,
      "t": 19311.169499999993,
      "d": 192.30749999999898,
      "v": 127
    },
    {
      "midi": 24,
      "hit": false,
      "t": 19527.078374999983,
      "d": 148.6012499999997,
      "v": 127
    },
    {
      "midi": 65,
      "hit": false,
      "t": 19527.07837499999,
      "d": 226.39837500000067,
      "v": 127
    },
    {
      "midi": 36,
      "hit": false,
      "t": 19730.749499999984,
      "d": 148.6012499999997,
      "v": 127
    },
    {
      "midi": 38,
      "hit": false,
      "t": 19730.749499999984,
      "d": 148.6012499999997,
      "v": 127
    },
    {
      "midi": 63,
      "hit": false,
      "t": 19730.74949999999,
      "d": 226.39837500000067,
      "v": 127
    },
    {
      "midi": 24,
      "hit": false,
      "t": 19946.658374999985,
      "d": 148.6012499999997,
      "v": 127
    },
    {
      "midi": 62,
      "hit": false,
      "t": 19946.65837499999,
      "d": 510.48899999999776,
      "v": 127
    },
    {
      "midi": 35,
      "hit": false,
      "t": 20150.32949999998,
      "d": 148.6012499999997,
      "v": 127
    },
    {
      "midi": 35,
      "hit": false,
      "t": 20150.329499999985,
      "d": 148.6012499999997,
      "v": 127
    },
    {
      "midi": 47,
      "hit": false,
      "t": 20150.329499999993,
      "d": 385.48912500000006,
      "v": 127
    },
    {
      "midi": 43,
      "hit": false,
      "t": 20150.329499999993,
      "d": 385.48912500000006,
      "v": 127
    },
    {
      "midi": 43,
      "hit": false,
      "t": 20150.329499999996,
      "d": 385.48912500000006,
      "v": 127
    },
    {
      "midi": 47,
      "hit": false,
      "t": 20150.329499999996,
      "d": 385.48912500000006,
      "v": 127
    },
    {
      "midi": 59,
      "hit": false,
      "t": 20150.329500000003,
      "d": 1644.2291250000017,
      "v": 127
    },
    {
      "midi": 62,
      "hit": false,
      "t": 20150.329500000003,
      "d": 1644.2291250000017,
      "v": 127
    },
    {
      "midi": 67,
      "hit": false,
      "t": 20150.329500000003,
      "d": 1644.2291250000017,
      "v": 127
    },
    {
      "midi": 26,
      "hit": false,
      "t": 20366.238374999986,
      "d": 148.6012499999997,
      "v": 127
    },
    {
      "midi": 65,
      "hit": false,
      "t": 20366.23837499999,
      "d": 725.5237500000003,
      "v": 127
    },
    {
      "midi": 38,
      "hit": false,
      "t": 20569.90949999998,
      "d": 148.6012499999997,
      "v": 127
    },
    {
      "midi": 35,
      "hit": false,
      "t": 20569.909499999987,
      "d": 148.6012499999997,
      "v": 127
    },
    {
      "midi": 26,
      "hit": false,
      "t": 20785.818374999988,
      "d": 148.6012499999997,
      "v": 127
    },
    {
      "midi": 47,
      "hit": false,
      "t": 20785.81837499999,
      "d": 998.2507499999992,
      "v": 127
    },
    {
      "midi": 43,
      "hit": false,
      "t": 20785.81837499999,
      "d": 998.2507499999992,
      "v": 127
    },
    {
      "midi": 47,
      "hit": false,
      "t": 20785.818374999995,
      "d": 998.2507499999992,
      "v": 127
    },
    {
      "midi": 43,
      "hit": false,
      "t": 20785.818374999995,
      "d": 998.2507499999992,
      "v": 127
    },
    {
      "midi": 35,
      "hit": false,
      "t": 20989.489499999978,
      "d": 148.6012499999997,
      "v": 127
    },
    {
      "midi": 35,
      "hit": false,
      "t": 20989.48949999999,
      "d": 148.6012499999997,
      "v": 127
    },
    {
      "midi": 65,
      "hit": false,
      "t": 21205.39837499999,
      "d": 226.39837500000067,
      "v": 127
    },
    {
      "midi": 26,
      "hit": false,
      "t": 21205.39837499999,
      "d": 148.6012499999997,
      "v": 127
    },
    {
      "midi": 38,
      "hit": false,
      "t": 21409.069499999976,
      "d": 148.6012499999997,
      "v": 127
    },
    {
      "midi": 62,
      "hit": false,
      "t": 21409.06949999999,
      "d": 226.39837500000067,
      "v": 127
    },
    {
      "midi": 35,
      "hit": false,
      "t": 21409.06949999999,
      "d": 148.6012499999997,
      "v": 127
    },
    {
      "midi": 65,
      "hit": false,
      "t": 21624.97837499999,
      "d": 578.6707500000011,
      "v": 127
    },
    {
      "midi": 26,
      "hit": false,
      "t": 21624.97837499999,
      "d": 148.6012499999997,
      "v": 127
    },
    {
      "midi": 35,
      "hit": false,
      "t": 21828.649499999974,
      "d": 148.6012499999997,
      "v": 127
    },
    {
      "midi": 47,
      "hit": false,
      "t": 21828.649499999992,
      "d": 385.48912500000006,
      "v": 127
    },
    {
      "midi": 43,
      "hit": false,
      "t": 21828.649499999992,
      "d": 385.48912500000006,
      "v": 127
    },
    {
      "midi": 35,
      "hit": false,
      "t": 21828.649499999992,
      "d": 148.6012499999997,
      "v": 127
    },
    {
      "midi": 43,
      "hit": false,
      "t": 21828.649499999996,
      "d": 385.48912500000006,
      "v": 127
    },
    {
      "midi": 47,
      "hit": false,
      "t": 21828.649499999996,
      "d": 385.48912500000006,
      "v": 127
    },
    {
      "midi": 59,
      "hit": false,
      "t": 21828.649500000007,
      "d": 1644.2291250000017,
      "v": 127
    },
    {
      "midi": 62,
      "hit": false,
      "t": 21828.649500000007,
      "d": 1644.2291250000017,
      "v": 127
    },
    {
      "midi": 67,
      "hit": false,
      "t": 21828.649500000007,
      "d": 1644.2291250000017,
      "v": 127
    },
    {
      "midi": 26,
      "hit": false,
      "t": 22044.558374999993,
      "d": 148.6012499999997,
      "v": 127
    },
    {
      "midi": 86,
      "hit": false,
      "t": 22044.558375000015,
      "d": 148.6012499999997,
      "v": 127
    },
    {
      "midi": 38,
      "hit": false,
      "t": 22248.229499999972,
      "d": 148.6012499999997,
      "v": 127
    },
    {
      "midi": 65,
      "hit": false,
      "t": 22248.229499999994,
      "d": 226.39837500000067,
      "v": 127
    },
    {
      "midi": 35,
      "hit": false,
      "t": 22248.229499999994,
      "d": 148.6012499999997,
      "v": 127
    },
    {
      "midi": 91,
      "hit": false,
      "t": 22248.229500000016,
      "d": 148.6012499999997,
      "v": 127
    },
    {
      "midi": 47,
      "hit": false,
      "t": 22464.13837499999,
      "d": 998.2507499999992,
      "v": 127
    },
    {
      "midi": 43,
      "hit": false,
      "t": 22464.13837499999,
      "d": 998.2507499999992,
      "v": 127
    },
    {
      "midi": 63,
      "hit": false,
      "t": 22464.138374999995,
      "d": 362.76187500000015,
      "v": 127
    },
    {
      "midi": 47,
      "hit": false,
      "t": 22464.138374999995,
      "d": 998.2507499999992,
      "v": 127
    },
    {
      "midi": 43,
      "hit": false,
      "t": 22464.138374999995,
      "d": 998.2507499999992,
      "v": 127
    },
    {
      "midi": 26,
      "hit": false,
      "t": 22464.138374999995,
      "d": 148.6012499999997,
      "v": 127
    },
    {
      "midi": 103,
      "hit": false,
      "t": 22464.138375000017,
      "d": 148.6012499999997,
      "v": 127
    },
    {
      "midi": 35,
      "hit": false,
      "t": 22667.80949999997,
      "d": 148.6012499999997,
      "v": 127
    },
    {
      "midi": 35,
      "hit": false,
      "t": 22667.809499999996,
      "d": 148.6012499999997,
      "v": 127
    },
    {
      "midi": 63,
      "hit": false,
      "t": 22883.718374999997,
      "d": 226.39837500000067,
      "v": 127
    },
    {
      "midi": 26,
      "hit": false,
      "t": 22883.718374999997,
      "d": 148.6012499999997,
      "v": 127
    },
    {
      "midi": 38,
      "hit": false,
      "t": 23087.38949999997,
      "d": 148.6012499999997,
      "v": 127
    },
    {
      "midi": 62,
      "hit": false,
      "t": 23087.389499999997,
      "d": 452.79675000000134,
      "v": 127
    },
    {
      "midi": 35,
      "hit": false,
      "t": 23087.389499999997,
      "d": 148.6012499999997,
      "v": 127
    },
    {
      "midi": 26,
      "hit": false,
      "t": 23303.298375,
      "d": 148.6012499999997,
      "v": 127
    },
    {
      "midi": 95,
      "hit": false,
      "t": 23496.480000000018,
      "d": 158.21662500000093,
      "v": 127
    },
    {
      "midi": 35,
      "hit": false,
      "t": 23506.969499999967,
      "d": 148.6012499999997,
      "v": 127
    },
    {
      "midi": 48,
      "hit": false,
      "t": 23506.969499999992,
      "d": 385.48912500000006,
      "v": 127
    },
    {
      "midi": 43,
      "hit": false,
      "t": 23506.969499999992,
      "d": 385.48912500000006,
      "v": 127
    },
    {
      "midi": 43,
      "hit": false,
      "t": 23506.969499999996,
      "d": 385.48912500000006,
      "v": 127
    },
    {
      "midi": 48,
      "hit": false,
      "t": 23506.969499999996,
      "d": 385.48912500000006,
      "v": 127
    },
    {
      "midi": 60,
      "hit": false,
      "t": 23506.9695,
      "d": 498.2512499999975,
      "v": 127
    },
    {
      "midi": 36,
      "hit": false,
      "t": 23506.9695,
      "d": 148.6012499999997,
      "v": 127
    },
    {
      "midi": 67,
      "hit": false,
      "t": 23506.96950000001,
      "d": 1644.2291250000017,
      "v": 127
    },
    {
      "midi": 60,
      "hit": false,
      "t": 23506.96950000001,
      "d": 1644.2291250000017,
      "v": 127
    },
    {
      "midi": 63,
      "hit": false,
      "t": 23506.96950000001,
      "d": 1644.2291250000017,
      "v": 127
    },
    {
      "midi": 96,
      "hit": false,
      "t": 23597.878500000017,
      "d": 146.8530000000028,
      "v": 127
    },
    {
      "midi": 94,
      "hit": false,
      "t": 23711.51475000002,
      "d": 159.0907499999994,
      "v": 127
    },
    {
      "midi": 24,
      "hit": false,
      "t": 23722.878375,
      "d": 148.6012499999997,
      "v": 127
    },
    {
      "midi": 95,
      "hit": false,
      "t": 23813.787375000018,
      "d": 159.09075000000303,
      "v": 127
    },
    {
      "midi": 93,
      "hit": false,
      "t": 23916.06000000002,
      "d": 158.21662500000457,
      "v": 127
    },
    {
      "midi": 38,
      "hit": false,
      "t": 23926.549499999965,
      "d": 148.6012499999997,
      "v": 127
    },
    {
      "midi": 63,
      "hit": false,
      "t": 23926.549499999997,
      "d": 895.1039999999994,
      "v": 127
    },
    {
      "midi": 36,
      "hit": false,
      "t": 23926.5495,
      "d": 148.6012499999997,
      "v": 127
    },
    {
      "midi": 94,
      "hit": false,
      "t": 24017.458500000022,
      "d": 158.21662500000457,
      "v": 127
    },
    {
      "midi": 92,
      "hit": false,
      "t": 24131.094750000026,
      "d": 148.6012499999997,
      "v": 127
    },
    {
      "midi": 48,
      "hit": false,
      "t": 24142.45837499999,
      "d": 998.2507499999992,
      "v": 127
    },
    {
      "midi": 43,
      "hit": false,
      "t": 24142.45837499999,
      "d": 998.2507499999992,
      "v": 127
    },
    {
      "midi": 43,
      "hit": false,
      "t": 24142.458374999995,
      "d": 998.2507499999992,
      "v": 127
    },
    {
      "midi": 48,
      "hit": false,
      "t": 24142.458374999995,
      "d": 998.2507499999992,
      "v": 127
    },
    {
      "midi": 24,
      "hit": false,
      "t": 24142.458375000002,
      "d": 148.6012499999997,
      "v": 127
    },
    {
      "midi": 93,
      "hit": false,
      "t": 24233.367375000027,
      "d": 148.60124999999607,
      "v": 127
    },
    {
      "midi": 91,
      "hit": false,
      "t": 24335.640000000025,
      "d": 148.6012499999997,
      "v": 127
    },
    {
      "midi": 35,
      "hit": false,
      "t": 24346.129499999963,
      "d": 148.6012499999997,
      "v": 127
    },
    {
      "midi": 36,
      "hit": false,
      "t": 24346.129500000003,
      "d": 148.6012499999997,
      "v": 127
    },
    {
      "midi": 92,
      "hit": false,
      "t": 24437.038500000024,
      "d": 148.6012499999997,
      "v": 127
    },
    {
      "midi": 90,
      "hit": false,
      "t": 24550.674750000024,
      "d": 148.6012499999997,
      "v": 127
    },
    {
      "midi": 24,
      "hit": false,
      "t": 24562.038375000004,
      "d": 148.6012499999997,
      "v": 127
    },
    {
      "midi": 91,
      "hit": false,
      "t": 24652.947375000025,
      "d": 148.60124999999607,
      "v": 127
    },
    {
      "midi": 89,
      "hit": false,
      "t": 24755.220000000023,
      "d": 148.6012499999997,
      "v": 127
    },
    {
      "midi": 38,
      "hit": false,
      "t": 24765.70949999996,
      "d": 148.6012499999997,
      "v": 127
    },
    {
      "midi": 36,
      "hit": false,
      "t": 24765.709500000004,
      "d": 148.6012499999997,
      "v": 127
    },
    {
      "midi": 90,
      "hit": false,
      "t": 24856.618500000022,
      "d": 148.6012499999997,
      "v": 127
    },
    {
      "midi": 87,
      "hit": false,
      "t": 24970.254750000022,
      "d": 306.81787500000064,
      "v": 127
    },
    {
      "midi": 24,
      "hit": false,
      "t": 24981.618375000005,
      "d": 148.6012499999997,
      "v": 127
    },
    {
      "midi": 84,
      "hit": false,
      "t": 25072.527375000023,
      "d": 305.94374999999854,
      "v": 127
    },
    {
      "midi": 35,
      "hit": false,
      "t": 25185.28949999996,
      "d": 148.6012499999997,
      "v": 127
    },
    {
      "midi": 48,
      "hit": false,
      "t": 25185.28949999999,
      "d": 385.48912500000006,
      "v": 127
    },
    {
      "midi": 43,
      "hit": false,
      "t": 25185.28949999999,
      "d": 385.48912500000006,
      "v": 127
    },
    {
      "midi": 67,
      "hit": false,
      "t": 25185.289499999995,
      "d": 419.58000000000175,
      "v": 127
    },
    {
      "midi": 43,
      "hit": false,
      "t": 25185.289499999995,
      "d": 385.48912500000006,
      "v": 127
    },
    {
      "midi": 48,
      "hit": false,
      "t": 25185.289499999995,
      "d": 385.48912500000006,
      "v": 127
    },
    {
      "midi": 36,
      "hit": false,
      "t": 25185.289500000006,
      "d": 148.6012499999997,
      "v": 127
    },
    {
      "midi": 60,
      "hit": false,
      "t": 25185.289500000014,
      "d": 589.1602500000008,
      "v": 127
    },
    {
      "midi": 67,
      "hit": false,
      "t": 25196.653125000015,
      "d": 590.0343749999993,
      "v": 127
    },
    {
      "midi": 24,
      "hit": false,
      "t": 25401.198375000007,
      "d": 148.6012499999997,
      "v": 127
    },
    {
      "midi": 38,
      "hit": false,
      "t": 25604.869499999957,
      "d": 148.6012499999997,
      "v": 127
    },
    {
      "midi": 63,
      "hit": false,
      "t": 25604.869499999997,
      "d": 226.39837500000067,
      "v": 127
    },
    {
      "midi": 36,
      "hit": false,
      "t": 25604.869500000008,
      "d": 148.6012499999997,
      "v": 127
    },
    {
      "midi": 51,
      "hit": false,
      "t": 25820.77837499999,
      "d": 998.2507499999992,
      "v": 127
    },
    {
      "midi": 46,
      "hit": false,
      "t": 25820.77837499999,
      "d": 998.2507499999992,
      "v": 127
    },
    {
      "midi": 46,
      "hit": false,
      "t": 25820.778374999994,
      "d": 998.2507499999992,
      "v": 127
    },
    {
      "midi": 51,
      "hit": false,
      "t": 25820.778374999994,
      "d": 998.2507499999992,
      "v": 127
    },
    {
      "midi": 65,
      "hit": false,
      "t": 25820.778374999998,
      "d": 453.6708749999998,
      "v": 127
    },
    {
      "midi": 24,
      "hit": false,
      "t": 25820.77837500001,
      "d": 148.6012499999997,
      "v": 127
    },
    {
      "midi": 63,
      "hit": false,
      "t": 25820.778375000016,
      "d": 998.2507499999992,
      "v": 127
    },
    {
      "midi": 58,
      "hit": false,
      "t": 25820.778375000016,
      "d": 998.2507499999992,
      "v": 127
    },
    {
      "midi": 35,
      "hit": false,
      "t": 26024.449499999955,
      "d": 148.6012499999997,
      "v": 127
    },
    {
      "midi": 39,
      "hit": false,
      "t": 26024.44950000001,
      "d": 148.6012499999997,
      "v": 127
    },
    {
      "midi": 67,
      "hit": false,
      "t": 26240.358374999996,
      "d": 453.67087500000343,
      "v": 127
    },
    {
      "midi": 27,
      "hit": false,
      "t": 26240.35837500001,
      "d": 148.6012499999997,
      "v": 127
    },
    {
      "midi": 38,
      "hit": false,
      "t": 26444.029499999953,
      "d": 148.6012499999997,
      "v": 127
    },
    {
      "midi": 39,
      "hit": false,
      "t": 26444.02950000001,
      "d": 148.6012499999997,
      "v": 127
    },
    {
      "midi": 63,
      "hit": false,
      "t": 26659.938374999998,
      "d": 226.39837500000067,
      "v": 127
    },
    {
      "midi": 27,
      "hit": false,
      "t": 26659.938375000012,
      "d": 148.6012499999997,
      "v": 127
    },
    {
      "midi": 35,
      "hit": false,
      "t": 26863.60949999995,
      "d": 148.6012499999997,
      "v": 127
    },
    {
      "midi": 48,
      "hit": false,
      "t": 26863.60949999999,
      "d": 893.3557499999988,
      "v": 127
    },
    {
      "midi": 53,
      "hit": false,
      "t": 26863.60949999999,
      "d": 893.3557499999988,
      "v": 127
    },
    {
      "midi": 48,
      "hit": false,
      "t": 26863.609499999995,
      "d": 893.3557499999988,
      "v": 127
    },
    {
      "midi": 53,
      "hit": false,
      "t": 26863.609499999995,
      "d": 893.3557499999988,
      "v": 127
    },
    {
      "midi": 70,
      "hit": false,
      "t": 26863.6095,
      "d": 452.79675000000134,
      "v": 127
    },
    {
      "midi": 41,
      "hit": false,
      "t": 26863.609500000013,
      "d": 148.6012499999997,
      "v": 127
    },
    {
      "midi": 60,
      "hit": false,
      "t": 26863.609500000017,
      "d": 1644.2291250000017,
      "v": 127
    },
    {
      "midi": 65,
      "hit": false,
      "t": 26863.609500000017,
      "d": 1644.2291250000017,
      "v": 127
    },
    {
      "midi": 29,
      "hit": false,
      "t": 27079.518375000014,
      "d": 148.6012499999997,
      "v": 127
    },
    {
      "midi": 38,
      "hit": false,
      "t": 27283.18949999995,
      "d": 148.6012499999997,
      "v": 127
    },
    {
      "midi": 68,
      "hit": false,
      "t": 27283.1895,
      "d": 452.79675000000134,
      "v": 127
    },
    {
      "midi": 41,
      "hit": false,
      "t": 27283.189500000015,
      "d": 148.6012499999997,
      "v": 127
    },
    {
      "midi": 29,
      "hit": false,
      "t": 27499.098375000016,
      "d": 148.6012499999997,
      "v": 127
    },
    {
      "midi": 35,
      "hit": false,
      "t": 27702.769499999948,
      "d": 148.6012499999997,
      "v": 127
    },
    {
      "midi": 44,
      "hit": false,
      "t": 27702.769500000017,
      "d": 148.6012499999997,
      "v": 127
    },
    {
      "midi": 50,
      "hit": false,
      "t": 27918.67837499999,
      "d": 148.6012499999997,
      "v": 127
    },
    {
      "midi": 68,
      "hit": false,
      "t": 27918.678375000003,
      "d": 226.39837500000067,
      "v": 127
    },
    {
      "midi": 32,
      "hit": false,
      "t": 27918.678375000018,
      "d": 148.6012499999997,
      "v": 127
    },
    {
      "midi": 38,
      "hit": false,
      "t": 28122.349499999946,
      "d": 148.6012499999997,
      "v": 127
    },
    {
      "midi": 51,
      "hit": false,
      "t": 28122.34949999999,
      "d": 148.6012499999997,
      "v": 127
    },
    {
      "midi": 67,
      "hit": false,
      "t": 28122.349500000004,
      "d": 226.39837500000067,
      "v": 127
    },
    {
      "midi": 44,
      "hit": false,
      "t": 28122.34950000002,
      "d": 148.6012499999997,
      "v": 127
    },
    {
      "midi": 53,
      "hit": false,
      "t": 28338.25837499999,
      "d": 148.6012499999997,
      "v": 127
    },
    {
      "midi": 65,
      "hit": false,
      "t": 28338.258375000005,
      "d": 226.39837500000067,
      "v": 127
    },
    {
      "midi": 32,
      "hit": false,
      "t": 28338.25837500002,
      "d": 148.6012499999997,
      "v": 127
    },
    {
      "midi": 35,
      "hit": false,
      "t": 28541.929499999944,
      "d": 148.6012499999997,
      "v": 127
    },
    {
      "midi": 55,
      "hit": false,
      "t": 28541.92949999999,
      "d": 297.2024999999994,
      "v": 127
    },
    {
      "midi": 67,
      "hit": false,
      "t": 28541.929500000006,
      "d": 419.58000000000175,
      "v": 127
    },
    {
      "midi": 62,
      "hit": false,
      "t": 28541.92950000002,
      "d": 1644.2291250000017,
      "v": 127
    },
    {
      "midi": 67,
      "hit": false,
      "t": 28541.92950000002,
      "d": 1644.2291250000017,
      "v": 127
    },
    {
      "midi": 43,
      "hit": false,
      "t": 28541.92950000002,
      "d": 148.6012499999997,
      "v": 127
    },
    {
      "midi": 92,
      "hit": false,
      "t": 28757.83837500002,
      "d": 297.2024999999994,
      "v": 127
    },
    {
      "midi": 31,
      "hit": false,
      "t": 28757.83837500002,
      "d": 148.6012499999997,
      "v": 127
    },
    {
      "midi": 38,
      "hit": false,
      "t": 28961.509499999942,
      "d": 148.6012499999997,
      "v": 127
    },
    {
      "midi": 53,
      "hit": false,
      "t": 28961.50949999999,
      "d": 297.2024999999994,
      "v": 127
    },
    {
      "midi": 65,
      "hit": false,
      "t": 28961.509500000007,
      "d": 419.58000000000175,
      "v": 127
    },
    {
      "midi": 83,
      "hit": false,
      "t": 28961.509500000022,
      "d": 297.2024999999958,
      "v": 127
    },
    {
      "midi": 43,
      "hit": false,
      "t": 28961.509500000022,
      "d": 148.6012499999997,
      "v": 127
    },
    {
      "midi": 91,
      "hit": false,
      "t": 29177.41837500002,
      "d": 297.2024999999994,
      "v": 127
    },
    {
      "midi": 31,
      "hit": false,
      "t": 29177.418375000023,
      "d": 148.6012499999997,
      "v": 127
    },
    {
      "midi": 35,
      "hit": false,
      "t": 29381.08949999994,
      "d": 148.6012499999997,
      "v": 127
    },
    {
      "midi": 51,
      "hit": false,
      "t": 29381.089499999987,
      "d": 148.6012499999997,
      "v": 127
    },
    {
      "midi": 63,
      "hit": false,
      "t": 29381.08950000001,
      "d": 305.9437500000022,
      "v": 127
    },
    {
      "midi": 43,
      "hit": false,
      "t": 29381.089500000024,
      "d": 148.6012499999997,
      "v": 127
    },
    {
      "midi": 50,
      "hit": false,
      "t": 29596.99837499999,
      "d": 595.2791250000009,
      "v": 127
    },
    {
      "midi": 62,
      "hit": false,
      "t": 29596.99837500001,
      "d": 1224.649125,
      "v": 127
    },
    {
      "midi": 31,
      "hit": false,
      "t": 29596.998375000025,
      "d": 148.6012499999997,
      "v": 127
    },
    {
      "midi": 38,
      "hit": false,
      "t": 29800.669499999938,
      "d": 148.6012499999997,
      "v": 127
    },
    {
      "midi": 43,
      "hit": false,
      "t": 29800.669500000025,
      "d": 148.6012499999997,
      "v": 127
    },
    {
      "midi": 45,
      "hit": false,
      "t": 30016.57837499994,
      "d": 74.30062499999985,
      "v": 127
    },
    {
      "midi": 36,
      "hit": false,
      "t": 30016.57837499994,
      "d": 74.30062499999985,
      "v": 127
    },
    {
      "midi": 31,
      "hit": false,
      "t": 30016.578375000026,
      "d": 148.6012499999997,
      "v": 127
    },
    {
      "midi": 45,
      "hit": false,
      "t": 30118.85099999994,
      "d": 74.30062499999985,
      "v": 127
    },
    {
      "midi": 36,
      "hit": false,
      "t": 30118.85099999994,
      "d": 74.30062499999985,
      "v": 127
    },
    {
      "midi": 43,
      "hit": false,
      "t": 30220.24949999994,
      "d": 297.2024999999994,
      "v": 127
    },
    {
      "midi": 35,
      "hit": false,
      "t": 30220.24949999994,
      "d": 305.94374999999854,
      "v": 127
    },
    {
      "midi": 36,
      "hit": false,
      "t": 30220.24949999994,
      "d": 305.94374999999854,
      "v": 127
    },
    {
      "midi": 55,
      "hit": false,
      "t": 30220.2495,
      "d": 148.6012499999997,
      "v": 127
    },
    {
      "midi": 43,
      "hit": false,
      "t": 30220.2495,
      "d": 148.6012499999997,
      "v": 127
    },
    {
      "midi": 43,
      "hit": false,
      "t": 30220.24950000002,
      "d": 148.6012499999997,
      "v": 127
    },
    {
      "midi": 55,
      "hit": false,
      "t": 30220.24950000002,
      "d": 148.6012499999997,
      "v": 127
    },
    {
      "midi": 54,
      "hit": false,
      "t": 30436.158375000003,
      "d": 148.6012499999997,
      "v": 127
    },
    {
      "midi": 42,
      "hit": false,
      "t": 30436.158375000003,
      "d": 148.6012499999997,
      "v": 127
    },
    {
      "midi": 54,
      "hit": false,
      "t": 30436.15837500002,
      "d": 148.6012499999997,
      "v": 127
    },
    {
      "midi": 42,
      "hit": false,
      "t": 30436.15837500002,
      "d": 148.6012499999997,
      "v": 127
    },
    {
      "midi": 43,
      "hit": false,
      "t": 30639.829500000003,
      "d": 148.6012499999997,
      "v": 127
    },
    {
      "midi": 55,
      "hit": false,
      "t": 30639.829500000003,
      "d": 148.6012499999997,
      "v": 127
    },
    {
      "midi": 43,
      "hit": false,
      "t": 30639.82950000002,
      "d": 148.6012499999997,
      "v": 127
    },
    {
      "midi": 55,
      "hit": false,
      "t": 30639.82950000002,
      "d": 148.6012499999997,
      "v": 127
    },
    {
      "midi": 35,
      "hit": false,
      "t": 30855.73837499994,
      "d": 148.6012499999997,
      "v": 127
    },
    {
      "midi": 36,
      "hit": false,
      "t": 30855.73837499994,
      "d": 148.6012499999997,
      "v": 127
    },
    {
      "midi": 43,
      "hit": false,
      "t": 30855.73837499994,
      "d": 148.6012499999997,
      "v": 127
    },
    {
      "midi": 47,
      "hit": false,
      "t": 30855.738375000004,
      "d": 148.6012499999997,
      "v": 127
    },
    {
      "midi": 59,
      "hit": false,
      "t": 30855.738375000004,
      "d": 148.6012499999997,
      "v": 127
    },
    {
      "midi": 47,
      "hit": false,
      "t": 30855.738375000023,
      "d": 148.6012499999997,
      "v": 127
    },
    {
      "midi": 59,
      "hit": false,
      "t": 30855.738375000023,
      "d": 148.6012499999997,
      "v": 127
    },
    {
      "midi": 48,
      "hit": false,
      "t": 31059.409500000005,
      "d": 148.60125000000335,
      "v": 127
    },
    {
      "midi": 48,
      "hit": false,
      "t": 31059.409500000023,
      "d": 148.60125000000335,
      "v": 127
    },
    {
      "midi": 60,
      "hit": false,
      "t": 31070.773125000007,
      "d": 148.60125000000335,
      "v": 127
    },
    {
      "midi": 60,
      "hit": false,
      "t": 31070.773125000025,
      "d": 148.60125000000335,
      "v": 127
    },
    {
      "midi": 35,
      "hit": false,
      "t": 31275.318374999937,
      "d": 148.6012499999997,
      "v": 127
    },
    {
      "midi": 36,
      "hit": false,
      "t": 31275.318374999937,
      "d": 148.6012499999997,
      "v": 127
    },
    {
      "midi": 43,
      "hit": false,
      "t": 31275.318374999937,
      "d": 148.6012499999997,
      "v": 127
    },
    {
      "midi": 51,
      "hit": false,
      "t": 31275.31837500001,
      "d": 148.6012499999997,
      "v": 127
    },
    {
      "midi": 63,
      "hit": false,
      "t": 31275.31837500001,
      "d": 148.6012499999997,
      "v": 127
    },
    {
      "midi": 51,
      "hit": false,
      "t": 31275.318375000028,
      "d": 148.6012499999997,
      "v": 127
    },
    {
      "midi": 63,
      "hit": false,
      "t": 31275.318375000028,
      "d": 148.6012499999997,
      "v": 127
    },
    {
      "midi": 41,
      "hit": false,
      "t": 31478.989499999938,
      "d": 148.6012499999997,
      "v": 127
    },
    {
      "midi": 38,
      "hit": false,
      "t": 31478.989499999938,
      "d": 148.6012499999997,
      "v": 127
    },
    {
      "midi": 39,
      "hit": false,
      "t": 31478.989499999938,
      "d": 148.6012499999997,
      "v": 127
    },
    {
      "midi": 40,
      "hit": false,
      "t": 31478.989499999938,
      "d": 158.21662500000093,
      "v": 127
    },
    {
      "midi": 75,
      "hit": false,
      "t": 31478.989499999996,
      "d": 3322.5491249999977,
      "v": 127
    },
    {
      "midi": 63,
      "hit": false,
      "t": 31478.98950000001,
      "d": 305.9437500000022,
      "v": 127
    },
    {
      "midi": 55,
      "hit": false,
      "t": 31478.98950000001,
      "d": 148.6012499999997,
      "v": 127
    },
    {
      "midi": 67,
      "hit": false,
      "t": 31478.98950000001,
      "d": 148.6012499999997,
      "v": 127
    },
    {
      "midi": 55,
      "hit": false,
      "t": 31478.98950000003,
      "d": 148.6012499999997,
      "v": 127
    },
    {
      "midi": 67,
      "hit": false,
      "t": 31478.98950000003,
      "d": 148.6012499999997,
      "v": 127
    },
    {
      "midi": 35,
      "hit": false,
      "t": 31694.89837499994,
      "d": 148.6012499999997,
      "v": 127
    },
    {
      "midi": 36,
      "hit": false,
      "t": 31694.89837499994,
      "d": 148.6012499999997,
      "v": 127
    },
    {
      "midi": 43,
      "hit": false,
      "t": 31694.89837499994,
      "d": 148.6012499999997,
      "v": 127
    },
    {
      "midi": 62,
      "hit": false,
      "t": 31694.89837500001,
      "d": 226.39837500000067,
      "v": 127
    },
    {
      "midi": 59,
      "hit": false,
      "t": 31694.89837500001,
      "d": 148.6012499999997,
      "v": 127
    },
    {
      "midi": 71,
      "hit": false,
      "t": 31694.89837500001,
      "d": 148.6012499999997,
      "v": 127
    },
    {
      "midi": 59,
      "hit": false,
      "t": 31694.89837500003,
      "d": 148.6012499999997,
      "v": 127
    },
    {
      "midi": 71,
      "hit": false,
      "t": 31694.89837500003,
      "d": 148.6012499999997,
      "v": 127
    },
    {
      "midi": 35,
      "hit": false,
      "t": 31898.56949999994,
      "d": 148.6012499999997,
      "v": 127
    },
    {
      "midi": 57,
      "hit": false,
      "t": 31898.56949999994,
      "d": 297.2024999999994,
      "v": 127
    },
    {
      "midi": 67,
      "hit": false,
      "t": 31898.569500000012,
      "d": 148.6012499999997,
      "v": 127
    },
    {
      "midi": 67,
      "hit": false,
      "t": 31898.569500000012,
      "d": 1644.229124999998,
      "v": 127
    },
    {
      "midi": 63,
      "hit": false,
      "t": 31898.569500000012,
      "d": 1644.229124999998,
      "v": 127
    },
    {
      "midi": 60,
      "hit": false,
      "t": 31898.569500000012,
      "d": 1644.229124999998,
      "v": 127
    },
    {
      "midi": 36,
      "hit": false,
      "t": 31898.569500000027,
      "d": 148.6012499999997,
      "v": 127
    },
    {
      "midi": 67,
      "hit": false,
      "t": 32114.478375000013,
      "d": 930.0690000000031,
      "v": 127
    },
    {
      "midi": 24,
      "hit": false,
      "t": 32114.478375000028,
      "d": 148.6012499999997,
      "v": 127
    },
    {
      "midi": 38,
      "hit": false,
      "t": 32318.149499999938,
      "d": 148.6012499999997,
      "v": 127
    },
    {
      "midi": 51,
      "hit": false,
      "t": 32318.14950000003,
      "d": 148.6012499999997,
      "v": 127
    },
    {
      "midi": 63,
      "hit": false,
      "t": 32318.14950000003,
      "d": 148.6012499999997,
      "v": 127
    },
    {
      "midi": 36,
      "hit": false,
      "t": 32318.14950000003,
      "d": 148.6012499999997,
      "v": 127
    },
    {
      "midi": 36,
      "hit": false,
      "t": 32534.05837499994,
      "d": 148.6012499999997,
      "v": 127
    },
    {
      "midi": 41,
      "hit": false,
      "t": 32534.05837500003,
      "d": 148.6012499999997,
      "v": 127
    },
    {
      "midi": 60,
      "hit": false,
      "t": 32534.05837500003,
      "d": 148.6012499999997,
      "v": 127
    },
    {
      "midi": 65,
      "hit": false,
      "t": 32534.05837500003,
      "d": 148.6012499999997,
      "v": 127
    },
    {
      "midi": 48,
      "hit": false,
      "t": 32534.05837500003,
      "d": 148.6012499999997,
      "v": 127
    },
    {
      "midi": 24,
      "hit": false,
      "t": 32534.05837500003,
      "d": 148.6012499999997,
      "v": 127
    },
    {
      "midi": 35,
      "hit": false,
      "t": 32737.72949999994,
      "d": 148.60125000000335,
      "v": 127
    },
    {
      "midi": 36,
      "hit": false,
      "t": 32737.72950000003,
      "d": 148.6012499999997,
      "v": 127
    },
    {
      "midi": 24,
      "hit": false,
      "t": 32953.63837500003,
      "d": 148.6012499999997,
      "v": 127
    },
    {
      "midi": 38,
      "hit": false,
      "t": 33157.309499999945,
      "d": 148.6012499999997,
      "v": 127
    },
    {
      "midi": 63,
      "hit": false,
      "t": 33157.30950000002,
      "d": 305.94374999999854,
      "v": 127
    },
    {
      "midi": 65,
      "hit": false,
      "t": 33157.30950000003,
      "d": 148.6012499999997,
      "v": 127
    },
    {
      "midi": 36,
      "hit": false,
      "t": 33157.30950000003,
      "d": 148.6012499999997,
      "v": 127
    },
    {
      "midi": 62,
      "hit": false,
      "t": 33373.21837500002,
      "d": 226.3983750000043,
      "v": 127
    },
    {
      "midi": 62,
      "hit": false,
      "t": 33373.21837500003,
      "d": 148.6012499999997,
      "v": 127
    },
    {
      "midi": 24,
      "hit": false,
      "t": 33373.21837500003,
      "d": 148.6012499999997,
      "v": 127
    },
    {
      "midi": 35,
      "hit": false,
      "t": 33576.88949999995,
      "d": 148.6012499999997,
      "v": 127
    },
    {
      "midi": 71,
      "hit": false,
      "t": 33576.88950000001,
      "d": 1644.229124999998,
      "v": 127
    },
    {
      "midi": 62,
      "hit": false,
      "t": 33576.88950000001,
      "d": 1644.229124999998,
      "v": 127
    },
    {
      "midi": 67,
      "hit": false,
      "t": 33576.88950000001,
      "d": 1644.229124999998,
      "v": 127
    },
    {
      "midi": 63,
      "hit": false,
      "t": 33576.88950000002,
      "d": 148.60125000000698,
      "v": 127
    },
    {
      "midi": 67,
      "hit": false,
      "t": 33576.889500000034,
      "d": 148.6012499999997,
      "v": 127
    },
    {
      "midi": 43,
      "hit": false,
      "t": 33576.889500000034,
      "d": 148.6012499999997,
      "v": 127
    },
    {
      "midi": 63,
      "hit": false,
      "t": 33792.79837500003,
      "d": 305.94374999999854,
      "v": 127
    },
    {
      "midi": 31,
      "hit": false,
      "t": 33792.798375000035,
      "d": 148.6012499999997,
      "v": 127
    },
    {
      "midi": 38,
      "hit": false,
      "t": 33996.46949999995,
      "d": 148.6012499999997,
      "v": 127
    },
    {
      "midi": 62,
      "hit": false,
      "t": 33996.46950000003,
      "d": 725.5237500000003,
      "v": 127
    },
    {
      "midi": 50,
      "hit": false,
      "t": 33996.469500000036,
      "d": 148.6012499999997,
      "v": 127
    },
    {
      "midi": 62,
      "hit": false,
      "t": 33996.469500000036,
      "d": 148.6012499999997,
      "v": 127
    },
    {
      "midi": 43,
      "hit": false,
      "t": 33996.469500000036,
      "d": 148.6012499999997,
      "v": 127
    },
    {
      "midi": 36,
      "hit": false,
      "t": 34212.37837499995,
      "d": 148.6012499999997,
      "v": 127
    },
    {
      "midi": 47,
      "hit": false,
      "t": 34212.37837500004,
      "d": 148.6012499999997,
      "v": 127
    },
    {
      "midi": 65,
      "hit": false,
      "t": 34212.37837500004,
      "d": 148.6012499999997,
      "v": 127
    },
    {
      "midi": 53,
      "hit": false,
      "t": 34212.37837500004,
      "d": 148.6012499999997,
      "v": 127
    },
    {
      "midi": 31,
      "hit": false,
      "t": 34212.37837500004,
      "d": 148.6012499999997,
      "v": 127
    },
    {
      "midi": 59,
      "hit": false,
      "t": 34223.742000000035,
      "d": 148.6012499999997,
      "v": 127
    },
    {
      "midi": 35,
      "hit": false,
      "t": 34416.04949999995,
      "d": 148.6012499999997,
      "v": 127
    },
    {
      "midi": 43,
      "hit": false,
      "t": 34416.04950000004,
      "d": 148.6012499999997,
      "v": 127
    },
    {
      "midi": 31,
      "hit": false,
      "t": 34631.95837500004,
      "d": 148.6012499999997,
      "v": 127
    },
    {
      "midi": 38,
      "hit": false,
      "t": 34835.62949999995,
      "d": 148.6012499999997,
      "v": 127
    },
    {
      "midi": 63,
      "hit": false,
      "t": 34835.62950000003,
      "d": 305.94374999999854,
      "v": 127
    },
    {
      "midi": 62,
      "hit": false,
      "t": 34835.62950000003,
      "d": 148.6012499999997,
      "v": 127
    },
    {
      "midi": 43,
      "hit": false,
      "t": 34835.62950000004,
      "d": 148.6012499999997,
      "v": 127
    },
    {
      "midi": 62,
      "hit": false,
      "t": 35051.53837500003,
      "d": 226.3983750000043,
      "v": 127
    },
    {
      "midi": 59,
      "hit": false,
      "t": 35051.53837500003,
      "d": 148.6012499999997,
      "v": 127
    },
    {
      "midi": 31,
      "hit": false,
      "t": 35051.53837500004,
      "d": 148.6012499999997,
      "v": 127
    },
    {
      "midi": 35,
      "hit": false,
      "t": 35255.20949999995,
      "d": 148.6012499999997,
      "v": 127
    },
    {
      "midi": 71,
      "hit": false,
      "t": 35255.20950000001,
      "d": 1644.229124999998,
      "v": 127
    },
    {
      "midi": 62,
      "hit": false,
      "t": 35255.20950000001,
      "d": 1644.229124999998,
      "v": 127
    },
    {
      "midi": 67,
      "hit": false,
      "t": 35255.20950000001,
      "d": 1644.229124999998,
      "v": 127
    },
    {
      "midi": 65,
      "hit": false,
      "t": 35255.20950000003,
      "d": 1145.103750000002,
      "v": 127
    },
    {
      "midi": 59,
      "hit": false,
      "t": 35255.20950000003,
      "d": 148.6012499999997,
      "v": 127
    },
    {
      "midi": 43,
      "hit": false,
      "t": 35255.20950000004,
      "d": 148.6012499999997,
      "v": 127
    },
    {
      "midi": 31,
      "hit": false,
      "t": 35471.11837500004,
      "d": 148.6012499999997,
      "v": 127
    },
    {
      "midi": 38,
      "hit": false,
      "t": 35674.789499999955,
      "d": 148.6012499999997,
      "v": 127
    },
    {
      "midi": 62,
      "hit": false,
      "t": 35674.789500000035,
      "d": 148.6012499999997,
      "v": 127
    },
    {
      "midi": 50,
      "hit": false,
      "t": 35674.789500000035,
      "d": 148.6012499999997,
      "v": 127
    },
    {
      "midi": 43,
      "hit": false,
      "t": 35674.78950000004,
      "d": 148.6012499999997,
      "v": 127
    },
    {
      "midi": 36,
      "hit": false,
      "t": 35890.698374999956,
      "d": 148.6012499999997,
      "v": 127
    },
    {
      "midi": 47,
      "hit": false,
      "t": 35890.698375000036,
      "d": 148.6012499999997,
      "v": 127
    },
    {
      "midi": 65,
      "hit": false,
      "t": 35890.698375000036,
      "d": 148.6012499999997,
      "v": 127
    },
    {
      "midi": 53,
      "hit": false,
      "t": 35890.698375000036,
      "d": 148.6012499999997,
      "v": 127
    },
    {
      "midi": 31,
      "hit": false,
      "t": 35890.69837500004,
      "d": 148.6012499999997,
      "v": 127
    },
    {
      "midi": 59,
      "hit": false,
      "t": 35902.062000000034,
      "d": 148.6012499999997,
      "v": 127
    },
    {
      "midi": 35,
      "hit": false,
      "t": 36094.36949999996,
      "d": 148.6012499999997,
      "v": 127
    },
    {
      "midi": 41,
      "hit": false,
      "t": 36094.369500000044,
      "d": 148.6012499999997,
      "v": 127
    },
    {
      "midi": 29,
      "hit": false,
      "t": 36310.278375000045,
      "d": 148.6012499999997,
      "v": 127
    },
    {
      "midi": 38,
      "hit": false,
      "t": 36513.94949999996,
      "d": 148.6012499999997,
      "v": 127
    },
    {
      "midi": 62,
      "hit": false,
      "t": 36513.94950000003,
      "d": 148.6012499999997,
      "v": 127
    },
    {
      "midi": 63,
      "hit": false,
      "t": 36513.94950000004,
      "d": 305.94374999999854,
      "v": 127
    },
    {
      "midi": 41,
      "hit": false,
      "t": 36513.949500000046,
      "d": 148.6012499999997,
      "v": 127
    },
    {
      "midi": 59,
      "hit": false,
      "t": 36729.85837500003,
      "d": 148.6012499999997,
      "v": 127
    },
    {
      "midi": 62,
      "hit": false,
      "t": 36729.85837500004,
      "d": 226.3983750000043,
      "v": 127
    },
    {
      "midi": 29,
      "hit": false,
      "t": 36729.85837500005,
      "d": 148.6012499999997,
      "v": 127
    },
    {
      "midi": 35,
      "hit": false,
      "t": 36933.52949999996,
      "d": 148.6012499999997,
      "v": 127
    },
    {
      "midi": 67,
      "hit": false,
      "t": 36933.52950000001,
      "d": 1644.229124999998,
      "v": 127
    },
    {
      "midi": 60,
      "hit": false,
      "t": 36933.52950000001,
      "d": 1644.229124999998,
      "v": 127
    },
    {
      "midi": 63,
      "hit": false,
      "t": 36933.52950000001,
      "d": 1644.229124999998,
      "v": 127
    },
    {
      "midi": 60,
      "hit": false,
      "t": 36933.52950000003,
      "d": 148.6012499999997,
      "v": 127
    },
    {
      "midi": 63,
      "hit": false,
      "t": 36933.52950000004,
      "d": 305.94374999999854,
      "v": 127
    },
    {
      "midi": 39,
      "hit": false,
      "t": 36933.52950000005,
      "d": 148.6012499999997,
      "v": 127
    },
    {
      "midi": 65,
      "hit": false,
      "t": 37149.43837500004,
      "d": 305.94374999999854,
      "v": 127
    },
    {
      "midi": 27,
      "hit": false,
      "t": 37149.43837500005,
      "d": 148.6012499999997,
      "v": 127
    },
    {
      "midi": 38,
      "hit": false,
      "t": 37353.10949999996,
      "d": 148.6012499999997,
      "v": 127
    },
    {
      "midi": 51,
      "hit": false,
      "t": 37353.109500000035,
      "d": 148.6012499999997,
      "v": 127
    },
    {
      "midi": 63,
      "hit": false,
      "t": 37353.109500000035,
      "d": 148.6012499999997,
      "v": 127
    },
    {
      "midi": 67,
      "hit": false,
      "t": 37353.10950000004,
      "d": 1145.1037499999948,
      "v": 127
    },
    {
      "midi": 39,
      "hit": false,
      "t": 37353.10950000005,
      "d": 148.6012499999997,
      "v": 127
    },
    {
      "midi": 36,
      "hit": false,
      "t": 37569.01837499996,
      "d": 148.6012499999997,
      "v": 127
    },
    {
      "midi": 65,
      "hit": false,
      "t": 37569.018375000036,
      "d": 148.6012499999997,
      "v": 127
    },
    {
      "midi": 53,
      "hit": false,
      "t": 37569.018375000036,
      "d": 148.6012499999997,
      "v": 127
    },
    {
      "midi": 27,
      "hit": false,
      "t": 37569.01837500005,
      "d": 148.6012499999997,
      "v": 127
    },
    {
      "midi": 35,
      "hit": false,
      "t": 37772.689499999964,
      "d": 148.6012499999997,
      "v": 127
    },
    {
      "midi": 38,
      "hit": false,
      "t": 37772.68950000005,
      "d": 148.6012499999997,
      "v": 127
    },
    {
      "midi": 38,
      "hit": false,
      "t": 37886.32574999997,
      "d": 148.6012499999997,
      "v": 127
    },
    {
      "midi": 40,
      "hit": false,
      "t": 37886.32574999997,
      "d": 215.908875000001,
      "v": 127
    },
    {
      "midi": 26,
      "hit": false,
      "t": 37988.59837500005,
      "d": 148.6012499999997,
      "v": 127
    },
    {
      "midi": 38,
      "hit": false,
      "t": 38192.269499999966,
      "d": 148.6012499999997,
      "v": 127
    },
    {
      "midi": 40,
      "hit": false,
      "t": 38192.269499999966,
      "d": 305.94374999999854,
      "v": 127
    },
    {
      "midi": 51,
      "hit": false,
      "t": 38192.26950000004,
      "d": 148.6012499999997,
      "v": 127
    },
    {
      "midi": 63,
      "hit": false,
      "t": 38192.26950000004,
      "d": 148.6012499999997,
      "v": 127
    },
    {
      "midi": 38,
      "hit": false,
      "t": 38192.26950000005,
      "d": 148.6012499999997,
      "v": 127
    },
    {
      "midi": 60,
      "hit": false,
      "t": 38408.17837500004,
      "d": 148.6012499999997,
      "v": 127
    },
    {
      "midi": 26,
      "hit": false,
      "t": 38408.178375000054,
      "d": 148.6012499999997,
      "v": 127
    },
    {
      "midi": 35,
      "hit": false,
      "t": 38611.84949999997,
      "d": 148.6012499999997,
      "v": 127
    },
    {
      "midi": 72,
      "hit": false,
      "t": 38611.8495,
      "d": 1644.229124999998,
      "v": 127
    },
    {
      "midi": 72,
      "hit": false,
      "t": 38611.8495,
      "d": 1644.2291250000053,
      "v": 127
    },
    {
      "midi": 60,
      "hit": false,
      "t": 38611.84950000001,
      "d": 589.1602500000008,
      "v": 127
    },
    {
      "midi": 67,
      "hit": false,
      "t": 38611.84950000004,
      "d": 419.58000000000175,
      "v": 127
    },
    {
      "midi": 36,
      "hit": false,
      "t": 38611.849500000055,
      "d": 148.6012499999997,
      "v": 127
    },
    {
      "midi": 67,
      "hit": false,
      "t": 38623.21312500001,
      "d": 590.0343750000029,
      "v": 127
    },
    {
      "midi": 24,
      "hit": false,
      "t": 38827.758375000056,
      "d": 148.6012499999997,
      "v": 127
    },
    {
      "midi": 38,
      "hit": false,
      "t": 39031.42949999997,
      "d": 148.6012499999997,
      "v": 127
    },
    {
      "midi": 63,
      "hit": false,
      "t": 39031.42950000004,
      "d": 226.3983750000043,
      "v": 127
    },
    {
      "midi": 63,
      "hit": false,
      "t": 39031.42950000004,
      "d": 159.09075000000303,
      "v": 127
    },
    {
      "midi": 36,
      "hit": false,
      "t": 39031.42950000006,
      "d": 148.6012499999997,
      "v": 127
    },
    {
      "midi": 36,
      "hit": false,
      "t": 39247.33837499997,
      "d": 148.6012499999997,
      "v": 127
    },
    {
      "midi": 63,
      "hit": false,
      "t": 39247.338375000014,
      "d": 998.2507499999992,
      "v": 127
    },
    {
      "midi": 58,
      "hit": false,
      "t": 39247.338375000014,
      "d": 998.2507499999992,
      "v": 127
    },
    {
      "midi": 65,
      "hit": false,
      "t": 39247.33837500004,
      "d": 453.67087500000343,
      "v": 127
    },
    {
      "midi": 71,
      "hit": false,
      "t": 39247.33837500004,
      "d": 305.94374999999854,
      "v": 127
    },
    {
      "midi": 24,
      "hit": false,
      "t": 39247.33837500006,
      "d": 148.6012499999997,
      "v": 127
    },
    {
      "midi": 35,
      "hit": false,
      "t": 39451.00949999997,
      "d": 148.6012499999997,
      "v": 127
    },
    {
      "midi": 39,
      "hit": false,
      "t": 39451.00950000006,
      "d": 148.6012499999997,
      "v": 127
    },
    {
      "midi": 67,
      "hit": false,
      "t": 39666.918375000045,
      "d": 419.58000000000175,
      "v": 127
    },
    {
      "midi": 60,
      "hit": false,
      "t": 39666.918375000045,
      "d": 148.6012499999997,
      "v": 127
    },
    {
      "midi": 27,
      "hit": false,
      "t": 39666.91837500006,
      "d": 148.6012499999997,
      "v": 127
    },
    {
      "midi": 38,
      "hit": false,
      "t": 39870.58949999997,
      "d": 148.6012499999997,
      "v": 127
    },
    {
      "midi": 63,
      "hit": false,
      "t": 39870.589500000046,
      "d": 148.6012499999997,
      "v": 127
    },
    {
      "midi": 39,
      "hit": false,
      "t": 39870.58950000006,
      "d": 148.6012499999997,
      "v": 127
    },
    {
      "midi": 63,
      "hit": false,
      "t": 40086.49837500005,
      "d": 226.3983750000043,
      "v": 127
    },
    {
      "midi": 65,
      "hit": false,
      "t": 40086.49837500005,
      "d": 148.6012499999997,
      "v": 127
    },
    {
      "midi": 27,
      "hit": false,
      "t": 40086.49837500006,
      "d": 148.6012499999997,
      "v": 127
    },
    {
      "midi": 35,
      "hit": false,
      "t": 40290.169499999975,
      "d": 148.6012499999997,
      "v": 127
    },
    {
      "midi": 79,
      "hit": false,
      "t": 40290.1695,
      "d": 645.978375000006,
      "v": 127
    },
    {
      "midi": 65,
      "hit": false,
      "t": 40290.16950000001,
      "d": 1644.229124999998,
      "v": 127
    },
    {
      "midi": 60,
      "hit": false,
      "t": 40290.16950000001,
      "d": 1644.229124999998,
      "v": 127
    },
    {
      "midi": 70,
      "hit": false,
      "t": 40290.16950000005,
      "d": 158.21662500000093,
      "v": 127
    },
    {
      "midi": 70,
      "hit": false,
      "t": 40290.16950000005,
      "d": 452.79675000000134,
      "v": 127
    },
    {
      "midi": 41,
      "hit": false,
      "t": 40290.16950000006,
      "d": 158.21662500000093,
      "v": 127
    },
    {
      "midi": 70,
      "hit": false,
      "t": 40506.07837500005,
      "d": 226.3983750000043,
      "v": 127
    },
    {
      "midi": 29,
      "hit": false,
      "t": 40506.07837500006,
      "d": 148.6012499999997,
      "v": 127
    },
    {
      "midi": 38,
      "hit": false,
      "t": 40709.749499999976,
      "d": 148.6012499999997,
      "v": 127
    },
    {
      "midi": 68,
      "hit": false,
      "t": 40709.74950000005,
      "d": 452.79675000000134,
      "v": 127
    },
    {
      "midi": 41,
      "hit": false,
      "t": 40709.74950000006,
      "d": 148.6012499999997,
      "v": 127
    },
    {
      "midi": 36,
      "hit": false,
      "t": 40925.65837499998,
      "d": 148.6012499999997,
      "v": 127
    },
    {
      "midi": 77,
      "hit": false,
      "t": 40925.658375000006,
      "d": 159.09075000000303,
      "v": 127
    },
    {
      "midi": 70,
      "hit": false,
      "t": 40925.65837500005,
      "d": 74.30062500000349,
      "v": 127
    },
    {
      "midi": 29,
      "hit": false,
      "t": 40925.658375000065,
      "d": 148.6012499999997,
      "v": 127
    },
    {
      "midi": 75,
      "hit": false,
      "t": 41027.93100000001,
      "d": 158.21662499999366,
      "v": 127
    },
    {
      "midi": 70,
      "hit": false,
      "t": 41027.931000000055,
      "d": 74.30062500000349,
      "v": 127
    },
    {
      "midi": 35,
      "hit": false,
      "t": 41129.32949999998,
      "d": 148.6012499999997,
      "v": 127
    },
    {
      "midi": 77,
      "hit": false,
      "t": 41129.32950000001,
      "d": 805.0691249999945,
      "v": 127
    },
    {
      "midi": 68,
      "hit": false,
      "t": 41129.32950000006,
      "d": 158.21662500000093,
      "v": 127
    },
    {
      "midi": 44,
      "hit": false,
      "t": 41129.329500000065,
      "d": 148.6012499999997,
      "v": 127
    },
    {
      "midi": 68,
      "hit": false,
      "t": 41345.23837500005,
      "d": 226.3983750000043,
      "v": 127
    },
    {
      "midi": 68,
      "hit": false,
      "t": 41345.23837500006,
      "d": 148.6012499999997,
      "v": 127
    },
    {
      "midi": 32,
      "hit": false,
      "t": 41345.238375000066,
      "d": 148.6012499999997,
      "v": 127
    },
    {
      "midi": 38,
      "hit": false,
      "t": 41548.90949999998,
      "d": 148.6012499999997,
      "v": 127
    },
    {
      "midi": 67,
      "hit": false,
      "t": 41548.90950000005,
      "d": 226.3983750000043,
      "v": 127
    },
    {
      "midi": 67,
      "hit": false,
      "t": 41548.90950000006,
      "d": 148.6012499999997,
      "v": 127
    },
    {
      "midi": 44,
      "hit": false,
      "t": 41548.90950000007,
      "d": 148.6012499999997,
      "v": 127
    },
    {
      "midi": 36,
      "hit": false,
      "t": 41764.81837499998,
      "d": 148.6012499999997,
      "v": 127
    },
    {
      "midi": 65,
      "hit": false,
      "t": 41764.81837500005,
      "d": 226.3983750000043,
      "v": 127
    },
    {
      "midi": 65,
      "hit": false,
      "t": 41764.81837500006,
      "d": 148.6012499999997,
      "v": 127
    },
    {
      "midi": 32,
      "hit": false,
      "t": 41764.81837500007,
      "d": 148.6012499999997,
      "v": 127
    },
    {
      "midi": 49,
      "hit": false,
      "t": 41968.48949999998,
      "d": 148.6012499999997,
      "v": 127
    },
    {
      "midi": 38,
      "hit": false,
      "t": 41968.48949999998,
      "d": 148.6012499999997,
      "v": 127
    },
    {
      "midi": 39,
      "hit": false,
      "t": 41968.48949999998,
      "d": 148.6012499999997,
      "v": 127
    },
    {
      "midi": 40,
      "hit": false,
      "t": 41968.48949999998,
      "d": 148.6012499999997,
      "v": 127
    },
    {
      "midi": 67,
      "hit": false,
      "t": 41968.489500000054,
      "d": 452.79675000000134,
      "v": 127
    },
    {
      "midi": 67,
      "hit": false,
      "t": 41968.48950000006,
      "d": 158.21662500000093,
      "v": 127
    },
    {
      "midi": 31,
      "hit": false,
      "t": 41968.48950000007,
      "d": 158.21662500000093,
      "v": 127
    },
    {
      "midi": 38,
      "hit": false,
      "t": 42388.06949999998,
      "d": 148.6012499999997,
      "v": 127
    },
    {
      "midi": 49,
      "hit": false,
      "t": 42388.06949999998,
      "d": 148.6012499999997,
      "v": 127
    },
    {
      "midi": 40,
      "hit": false,
      "t": 42388.06949999998,
      "d": 148.6012499999997,
      "v": 127
    },
    {
      "midi": 39,
      "hit": false,
      "t": 42388.06949999998,
      "d": 148.6012499999997,
      "v": 127
    },
    {
      "midi": 65,
      "hit": false,
      "t": 42388.069500000056,
      "d": 452.79675000000134,
      "v": 127
    },
    {
      "midi": 65,
      "hit": false,
      "t": 42388.06950000006,
      "d": 158.21662500000093,
      "v": 127
    },
    {
      "midi": 33,
      "hit": false,
      "t": 42388.06950000007,
      "d": 158.21662500000093,
      "v": 127
    },
    {
      "midi": 38,
      "hit": false,
      "t": 42807.649499999985,
      "d": 148.6012499999997,
      "v": 127
    },
    {
      "midi": 49,
      "hit": false,
      "t": 42807.649499999985,
      "d": 148.6012499999997,
      "v": 127
    },
    {
      "midi": 40,
      "hit": false,
      "t": 42807.649499999985,
      "d": 148.6012499999997,
      "v": 127
    },
    {
      "midi": 39,
      "hit": false,
      "t": 42807.649499999985,
      "d": 148.6012499999997,
      "v": 127
    },
    {
      "midi": 63,
      "hit": false,
      "t": 42807.64950000006,
      "d": 226.3983750000043,
      "v": 127
    },
    {
      "midi": 63,
      "hit": false,
      "t": 42807.649500000065,
      "d": 148.6012499999997,
      "v": 127
    },
    {
      "midi": 34,
      "hit": false,
      "t": 42807.64950000007,
      "d": 148.6012499999997,
      "v": 127
    },
    {
      "midi": 38,
      "hit": false,
      "t": 43023.558374999986,
      "d": 148.6012499999997,
      "v": 127
    },
    {
      "midi": 40,
      "hit": false,
      "t": 43023.558374999986,
      "d": 148.6012499999997,
      "v": 127
    },
    {
      "midi": 39,
      "hit": false,
      "t": 43023.558374999986,
      "d": 148.6012499999997,
      "v": 127
    },
    {
      "midi": 62,
      "hit": false,
      "t": 43023.55837500006,
      "d": 453.67087500000343,
      "v": 127
    },
    {
      "midi": 62,
      "hit": false,
      "t": 43023.558375000066,
      "d": 159.09075000000303,
      "v": 127
    },
    {
      "midi": 35,
      "hit": false,
      "t": 43023.55837500007,
      "d": 159.09075000000303,
      "v": 127
    },
    {
      "midi": 49,
      "hit": false,
      "t": 43034.921999999984,
      "d": 148.6012499999997,
      "v": 127
    },
    {
      "midi": 39,
      "hit": false,
      "t": 43443.13837499998,
      "d": 148.6012499999997,
      "v": 127
    },
    {
      "midi": 49,
      "hit": false,
      "t": 43443.13837499998,
      "d": 148.6012499999997,
      "v": 127
    },
    {
      "midi": 40,
      "hit": false,
      "t": 43443.13837499998,
      "d": 148.6012499999997,
      "v": 127
    },
    {
      "midi": 38,
      "hit": false,
      "t": 43443.13837499998,
      "d": 148.6012499999997,
      "v": 127
    },
    {
      "midi": 60,
      "hit": false,
      "t": 43443.13837500006,
      "d": 305.94374999999854,
      "v": 127
    },
    {
      "midi": 60,
      "hit": false,
      "t": 43443.13837500007,
      "d": 159.09075000000303,
      "v": 127
    },
    {
      "midi": 36,
      "hit": false,
      "t": 43443.138375000075,
      "d": 159.09075000000303,
      "v": 127
    },
    {
      "midi": 60,
      "hit": false,
      "t": 44066.38949999998,
      "d": 297.2025000000067,
      "v": 127
    },
    {
      "midi": 62,
      "hit": false,
      "t": 44066.38949999998,
      "d": 305.9437500000058,
      "v": 127
    },
    {
      "midi": 37,
      "hit": false,
      "t": 44282.298374999984,
      "d": 74.30062500000349,
      "v": 127
    },
    {
      "midi": 37,
      "hit": false,
      "t": 44384.57099999999,
      "d": 74.30062500000349,
      "v": 127
    },
    {
      "midi": 37,
      "hit": false,
      "t": 44497.33312499999,
      "d": 74.30062500000349,
      "v": 127
    },
    {
      "midi": 36,
      "hit": false,
      "t": 44701.87837499999,
      "d": 148.6012499999997,
      "v": 127
    },
    {
      "midi": 47,
      "hit": false,
      "t": 44701.87837499999,
      "d": 148.6012499999997,
      "v": 127
    },
    {
      "midi": 70,
      "hit": false,
      "t": 44905.549499999994,
      "d": 385.48912500000006,
      "v": 127
    },
    {
      "midi": 36,
      "hit": false,
      "t": 44905.549499999994,
      "d": 148.6012499999997,
      "v": 127
    },
    {
      "midi": 45,
      "hit": false,
      "t": 44905.549499999994,
      "d": 148.6012499999997,
      "v": 127
    },
    {
      "midi": 70,
      "hit": false,
      "t": 44905.5495,
      "d": 385.48912500000006,
      "v": 127
    },
    {
      "midi": 70,
      "hit": false,
      "t": 44905.54950000001,
      "d": 385.48912500000006,
      "v": 127
    },
    {
      "midi": 36,
      "hit": false,
      "t": 45121.458374999995,
      "d": 148.6012499999997,
      "v": 127
    },
    {
      "midi": 43,
      "hit": false,
      "t": 45121.458374999995,
      "d": 148.6012499999997,
      "v": 127
    },
    {
      "midi": 72,
      "hit": false,
      "t": 45325.129499999995,
      "d": 1644.229124999998,
      "v": 127
    },
    {
      "midi": 35,
      "hit": false,
      "t": 45325.129499999995,
      "d": 148.6012499999997,
      "v": 127
    },
    {
      "midi": 72,
      "hit": false,
      "t": 45325.1295,
      "d": 1644.229124999998,
      "v": 127
    },
    {
      "midi": 72,
      "hit": false,
      "t": 45325.12950000001,
      "d": 1644.229124999998,
      "v": 127
    },
    {
      "midi": 72,
      "hit": false,
      "t": 45325.12950000007,
      "d": 1644.229124999998,
      "v": 127
    },
    {
      "midi": 60,
      "hit": false,
      "t": 45325.12950000007,
      "d": 1644.229124999998,
      "v": 127
    },
    {
      "midi": 65,
      "hit": false,
      "t": 45325.12950000007,
      "d": 1644.229124999998,
      "v": 127
    },
    {
      "midi": 41,
      "hit": false,
      "t": 45325.129500000075,
      "d": 595.2791250000009,
      "v": 127
    },
    {
      "midi": 38,
      "hit": false,
      "t": 45744.7095,
      "d": 148.6012499999997,
      "v": 127
    },
    {
      "midi": 29,
      "hit": false,
      "t": 45960.61837500008,
      "d": 148.6012499999997,
      "v": 127
    },
    {
      "midi": 35,
      "hit": false,
      "t": 46164.2895,
      "d": 148.6012499999997,
      "v": 127
    },
    {
      "midi": 32,
      "hit": false,
      "t": 46164.28950000008,
      "d": 148.6012499999997,
      "v": 127
    },
    {
      "midi": 36,
      "hit": false,
      "t": 46380.19837500008,
      "d": 148.6012499999997,
      "v": 127
    },
    {
      "midi": 38,
      "hit": false,
      "t": 46583.8695,
      "d": 148.6012499999997,
      "v": 127
    },
    {
      "midi": 38,
      "hit": false,
      "t": 46583.86950000008,
      "d": 148.6012499999997,
      "v": 127
    },
    {
      "midi": 39,
      "hit": false,
      "t": 46799.77837500008,
      "d": 148.6012499999997,
      "v": 127
    },
    {
      "midi": 72,
      "hit": false,
      "t": 47003.449499999995,
      "d": 362.7618749999965,
      "v": 127
    },
    {
      "midi": 72,
      "hit": false,
      "t": 47003.4495,
      "d": 362.7618749999965,
      "v": 127
    },
    {
      "midi": 35,
      "hit": false,
      "t": 47003.4495,
      "d": 148.6012499999997,
      "v": 127
    },
    {
      "midi": 72,
      "hit": false,
      "t": 47003.44950000001,
      "d": 362.7618749999965,
      "v": 127
    },
    {
      "midi": 72,
      "hit": false,
      "t": 47003.44950000007,
      "d": 1644.229124999998,
      "v": 127
    },
    {
      "midi": 60,
      "hit": false,
      "t": 47003.44950000007,
      "d": 1644.229124999998,
      "v": 127
    },
    {
      "midi": 65,
      "hit": false,
      "t": 47003.44950000007,
      "d": 1644.229124999998,
      "v": 127
    },
    {
      "midi": 41,
      "hit": false,
      "t": 47003.44950000008,
      "d": 595.2791250000009,
      "v": 127
    },
    {
      "midi": 74,
      "hit": false,
      "t": 47321.630999999994,
      "d": 385.48912500000006,
      "v": 127
    },
    {
      "midi": 74,
      "hit": false,
      "t": 47321.631,
      "d": 385.48912500000006,
      "v": 127
    },
    {
      "midi": 74,
      "hit": false,
      "t": 47321.63100000001,
      "d": 385.48912500000006,
      "v": 127
    },
    {
      "midi": 38,
      "hit": false,
      "t": 47423.029500000004,
      "d": 148.6012499999997,
      "v": 127
    },
    {
      "midi": 75,
      "hit": false,
      "t": 47638.93837499999,
      "d": 305.94374999999854,
      "v": 127
    },
    {
      "midi": 75,
      "hit": false,
      "t": 47638.938375,
      "d": 305.94374999999854,
      "v": 127
    },
    {
      "midi": 75,
      "hit": false,
      "t": 47638.938375000005,
      "d": 305.94374999999854,
      "v": 127
    },
    {
      "midi": 29,
      "hit": false,
      "t": 47638.938375000085,
      "d": 148.6012499999997,
      "v": 127
    },
    {
      "midi": 74,
      "hit": false,
      "t": 47842.60949999999,
      "d": 645.9783749999988,
      "v": 127
    },
    {
      "midi": 74,
      "hit": false,
      "t": 47842.6095,
      "d": 645.9783749999988,
      "v": 127
    },
    {
      "midi": 74,
      "hit": false,
      "t": 47842.609500000006,
      "d": 645.9783749999988,
      "v": 127
    },
    {
      "midi": 35,
      "hit": false,
      "t": 47842.609500000006,
      "d": 148.6012499999997,
      "v": 127
    },
    {
      "midi": 32,
      "hit": false,
      "t": 47842.609500000086,
      "d": 148.6012499999997,
      "v": 127
    },
    {
      "midi": 36,
      "hit": false,
      "t": 48058.51837500009,
      "d": 148.6012499999997,
      "v": 127
    },
    {
      "midi": 38,
      "hit": false,
      "t": 48262.18950000001,
      "d": 148.6012499999997,
      "v": 127
    },
    {
      "midi": 38,
      "hit": false,
      "t": 48262.18950000009,
      "d": 148.6012499999997,
      "v": 127
    },
    {
      "midi": 70,
      "hit": false,
      "t": 48478.09837499999,
      "d": 305.94374999999854,
      "v": 127
    },
    {
      "midi": 70,
      "hit": false,
      "t": 48478.098374999994,
      "d": 305.94374999999854,
      "v": 127
    },
    {
      "midi": 70,
      "hit": false,
      "t": 48478.098375,
      "d": 305.94374999999854,
      "v": 127
    },
    {
      "midi": 39,
      "hit": false,
      "t": 48478.09837500009,
      "d": 148.6012499999997,
      "v": 127
    },
    {
      "midi": 72,
      "hit": false,
      "t": 48681.76949999999,
      "d": 1644.229124999998,
      "v": 127
    },
    {
      "midi": 72,
      "hit": false,
      "t": 48681.769499999995,
      "d": 1644.229124999998,
      "v": 127
    },
    {
      "midi": 72,
      "hit": false,
      "t": 48681.7695,
      "d": 1644.229124999998,
      "v": 127
    },
    {
      "midi": 35,
      "hit": false,
      "t": 48681.76950000001,
      "d": 148.6012499999997,
      "v": 127
    },
    {
      "midi": 67,
      "hit": false,
      "t": 48681.76950000007,
      "d": 1644.229124999998,
      "v": 127
    },
    {
      "midi": 55,
      "hit": false,
      "t": 48681.76950000007,
      "d": 1644.229124999998,
      "v": 127
    },
    {
      "midi": 60,
      "hit": false,
      "t": 48681.76950000007,
      "d": 1644.229124999998,
      "v": 127
    },
    {
      "midi": 36,
      "hit": false,
      "t": 48681.76950000009,
      "d": 595.2791250000009,
      "v": 127
    },
    {
      "midi": 38,
      "hit": false,
      "t": 49101.34950000001,
      "d": 148.6012499999997,
      "v": 127
    },
    {
      "midi": 24,
      "hit": false,
      "t": 49317.25837500009,
      "d": 148.6012499999997,
      "v": 127
    },
    {
      "midi": 35,
      "hit": false,
      "t": 49520.92950000001,
      "d": 148.6012499999997,
      "v": 127
    },
    {
      "midi": 27,
      "hit": false,
      "t": 49520.92950000009,
      "d": 148.6012499999997,
      "v": 127
    },
    {
      "midi": 31,
      "hit": false,
      "t": 49736.838375000094,
      "d": 148.6012499999997,
      "v": 127
    },
    {
      "midi": 38,
      "hit": false,
      "t": 49940.509500000015,
      "d": 148.6012499999997,
      "v": 127
    },
    {
      "midi": 33,
      "hit": false,
      "t": 49940.509500000095,
      "d": 148.6012499999997,
      "v": 127
    },
    {
      "midi": 34,
      "hit": false,
      "t": 50156.418375000096,
      "d": 148.6012499999997,
      "v": 127
    },
    {
      "midi": 95,
      "hit": false,
      "t": 50349.60000000002,
      "d": 158.21662500000093,
      "v": 127
    },
    {
      "midi": 35,
      "hit": false,
      "t": 50360.08950000002,
      "d": 148.6012499999997,
      "v": 127
    },
    {
      "midi": 67,
      "hit": false,
      "t": 50360.08950000007,
      "d": 1644.229124999998,
      "v": 127
    },
    {
      "midi": 60,
      "hit": false,
      "t": 50360.08950000007,
      "d": 1644.229124999998,
      "v": 127
    },
    {
      "midi": 55,
      "hit": false,
      "t": 50360.08950000007,
      "d": 1644.229124999998,
      "v": 127
    },
    {
      "midi": 36,
      "hit": false,
      "t": 50360.0895000001,
      "d": 595.2791250000009,
      "v": 127
    },
    {
      "midi": 96,
      "hit": false,
      "t": 50450.99850000002,
      "d": 146.85299999999552,
      "v": 127
    },
    {
      "midi": 94,
      "hit": false,
      "t": 50564.63475000002,
      "d": 159.09074999999575,
      "v": 127
    },
    {
      "midi": 79,
      "hit": false,
      "t": 50575.99837499999,
      "d": 453.67087500000343,
      "v": 127
    },
    {
      "midi": 79,
      "hit": false,
      "t": 50575.998374999996,
      "d": 453.67087500000343,
      "v": 127
    },
    {
      "midi": 79,
      "hit": false,
      "t": 50575.998375,
      "d": 453.67087500000343,
      "v": 127
    },
    {
      "midi": 95,
      "hit": false,
      "t": 50666.90737500002,
      "d": 159.09074999999575,
      "v": 127
    },
    {
      "midi": 93,
      "hit": false,
      "t": 50769.180000000015,
      "d": 158.21662499999366,
      "v": 127
    },
    {
      "midi": 38,
      "hit": false,
      "t": 50779.66950000002,
      "d": 148.6012499999997,
      "v": 127
    },
    {
      "midi": 94,
      "hit": false,
      "t": 50870.57850000001,
      "d": 158.21662499999366,
      "v": 127
    },
    {
      "midi": 92,
      "hit": false,
      "t": 50984.21475000001,
      "d": 148.6012499999997,
      "v": 127
    },
    {
      "midi": 74,
      "hit": false,
      "t": 50995.57837499999,
      "d": 159.09075000000303,
      "v": 127
    },
    {
      "midi": 74,
      "hit": false,
      "t": 50995.578375,
      "d": 159.09075000000303,
      "v": 127
    },
    {
      "midi": 74,
      "hit": false,
      "t": 50995.578375000005,
      "d": 159.09075000000303,
      "v": 127
    },
    {
      "midi": 31,
      "hit": false,
      "t": 50995.5783750001,
      "d": 148.6012499999997,
      "v": 127
    },
    {
      "midi": 93,
      "hit": false,
      "t": 51086.487375000004,
      "d": 148.60125000000698,
      "v": 127
    },
    {
      "midi": 75,
      "hit": false,
      "t": 51097.850999999995,
      "d": 158.21662499999366,
      "v": 127
    },
    {
      "midi": 75,
      "hit": false,
      "t": 51097.851,
      "d": 158.21662499999366,
      "v": 127
    },
    {
      "midi": 75,
      "hit": false,
      "t": 51097.85100000001,
      "d": 158.21662499999366,
      "v": 127
    },
    {
      "midi": 91,
      "hit": false,
      "t": 51188.76000000001,
      "d": 148.6012499999997,
      "v": 127
    },
    {
      "midi": 77,
      "hit": false,
      "t": 51199.24949999999,
      "d": 305.94374999999854,
      "v": 127
    },
    {
      "midi": 77,
      "hit": false,
      "t": 51199.2495,
      "d": 305.94374999999854,
      "v": 127
    },
    {
      "midi": 77,
      "hit": false,
      "t": 51199.249500000005,
      "d": 305.94374999999854,
      "v": 127
    },
    {
      "midi": 35,
      "hit": false,
      "t": 51199.24950000002,
      "d": 148.6012499999997,
      "v": 127
    },
    {
      "midi": 34,
      "hit": false,
      "t": 51199.2495000001,
      "d": 148.6012499999997,
      "v": 127
    },
    {
      "midi": 92,
      "hit": false,
      "t": 51290.15850000001,
      "d": 148.60124999999243,
      "v": 127
    },
    {
      "midi": 38,
      "hit": false,
      "t": 51312.88575000002,
      "d": 148.6012499999997,
      "v": 127
    },
    {
      "midi": 90,
      "hit": false,
      "t": 51403.79475000001,
      "d": 148.6012499999997,
      "v": 127
    },
    {
      "midi": 75,
      "hit": false,
      "t": 51415.15837499999,
      "d": 305.94374999999854,
      "v": 127
    },
    {
      "midi": 75,
      "hit": false,
      "t": 51415.158375,
      "d": 305.94374999999854,
      "v": 127
    },
    {
      "midi": 75,
      "hit": false,
      "t": 51415.158375000006,
      "d": 305.94374999999854,
      "v": 127
    },
    {
      "midi": 36,
      "hit": false,
      "t": 51415.15837500002,
      "d": 148.6012499999997,
      "v": 127
    },
    {
      "midi": 36,
      "hit": false,
      "t": 51415.1583750001,
      "d": 148.6012499999997,
      "v": 127
    },
    {
      "midi": 91,
      "hit": false,
      "t": 51506.067375000006,
      "d": 148.60125000000698,
      "v": 127
    },
    {
      "midi": 89,
      "hit": false,
      "t": 51608.34000000001,
      "d": 148.6012499999997,
      "v": 127
    },
    {
      "midi": 74,
      "hit": false,
      "t": 51618.82949999999,
      "d": 305.94374999999854,
      "v": 127
    },
    {
      "midi": 74,
      "hit": false,
      "t": 51618.8295,
      "d": 305.94374999999854,
      "v": 127
    },
    {
      "midi": 74,
      "hit": false,
      "t": 51618.82950000001,
      "d": 305.94374999999854,
      "v": 127
    },
    {
      "midi": 38,
      "hit": false,
      "t": 51618.82950000002,
      "d": 148.6012499999997,
      "v": 127
    },
    {
      "midi": 38,
      "hit": false,
      "t": 51618.8295000001,
      "d": 148.6012499999997,
      "v": 127
    },
    {
      "midi": 90,
      "hit": false,
      "t": 51709.738500000014,
      "d": 148.60124999999243,
      "v": 127
    },
    {
      "midi": 87,
      "hit": false,
      "t": 51823.37475000001,
      "d": 306.81787500000064,
      "v": 127
    },
    {
      "midi": 70,
      "hit": false,
      "t": 51834.73837499999,
      "d": 305.94374999999854,
      "v": 127
    },
    {
      "midi": 70,
      "hit": false,
      "t": 51834.738375,
      "d": 305.94374999999854,
      "v": 127
    },
    {
      "midi": 70,
      "hit": false,
      "t": 51834.73837500001,
      "d": 305.94374999999854,
      "v": 127
    },
    {
      "midi": 39,
      "hit": false,
      "t": 51834.7383750001,
      "d": 148.6012499999997,
      "v": 127
    },
    {
      "midi": 84,
      "hit": false,
      "t": 51925.64737500001,
      "d": 305.9437500000058,
      "v": 127
    },
    {
      "midi": 72,
      "hit": false,
      "t": 52038.409499999994,
      "d": 1644.229124999998,
      "v": 127
    },
    {
      "midi": 72,
      "hit": false,
      "t": 52038.4095,
      "d": 1644.229124999998,
      "v": 127
    },
    {
      "midi": 72,
      "hit": false,
      "t": 52038.40950000001,
      "d": 1644.229124999998,
      "v": 127
    },
    {
      "midi": 35,
      "hit": false,
      "t": 52038.40950000002,
      "d": 148.6012499999997,
      "v": 127
    },
    {
      "midi": 52,
      "hit": false,
      "t": 52038.40950000002,
      "d": 595.2791250000009,
      "v": 127
    },
    {
      "midi": 72,
      "hit": false,
      "t": 52038.40950000007,
      "d": 1644.229124999998,
      "v": 127
    },
    {
      "midi": 65,
      "hit": false,
      "t": 52038.40950000007,
      "d": 1644.229124999998,
      "v": 127
    },
    {
      "midi": 60,
      "hit": false,
      "t": 52038.40950000007,
      "d": 1644.229124999998,
      "v": 127
    },
    {
      "midi": 41,
      "hit": false,
      "t": 52038.4095000001,
      "d": 595.2791250000009,
      "v": 127
    },
    {
      "midi": 38,
      "hit": false,
      "t": 52457.989500000025,
      "d": 148.6012499999997,
      "v": 127
    },
    {
      "midi": 29,
      "hit": false,
      "t": 52673.898375000106,
      "d": 148.6012499999997,
      "v": 127
    },
    {
      "midi": 35,
      "hit": false,
      "t": 52877.56950000003,
      "d": 148.6012499999997,
      "v": 127
    },
    {
      "midi": 32,
      "hit": false,
      "t": 52877.56950000011,
      "d": 148.6012499999997,
      "v": 127
    },
    {
      "midi": 36,
      "hit": false,
      "t": 53093.47837500011,
      "d": 148.6012499999997,
      "v": 127
    },
    {
      "midi": 38,
      "hit": false,
      "t": 53297.14950000003,
      "d": 148.6012499999997,
      "v": 127
    },
    {
      "midi": 38,
      "hit": false,
      "t": 53297.14950000011,
      "d": 148.6012499999997,
      "v": 127
    },
    {
      "midi": 39,
      "hit": false,
      "t": 53513.05837500011,
      "d": 148.6012499999997,
      "v": 127
    },
    {
      "midi": 72,
      "hit": false,
      "t": 53716.729499999994,
      "d": 305.94374999999854,
      "v": 127
    },
    {
      "midi": 72,
      "hit": false,
      "t": 53716.7295,
      "d": 305.94374999999854,
      "v": 127
    },
    {
      "midi": 72,
      "hit": false,
      "t": 53716.72950000001,
      "d": 305.94374999999854,
      "v": 127
    },
    {
      "midi": 36,
      "hit": false,
      "t": 53716.72950000003,
      "d": 148.6012499999997,
      "v": 127
    },
    {
      "midi": 35,
      "hit": false,
      "t": 53716.72950000003,
      "d": 148.6012499999997,
      "v": 127
    },
    {
      "midi": 60,
      "hit": false,
      "t": 53716.72950000007,
      "d": 805.0691250000018,
      "v": 127
    },
    {
      "midi": 65,
      "hit": false,
      "t": 53716.72950000007,
      "d": 805.0691250000018,
      "v": 127
    },
    {
      "midi": 72,
      "hit": false,
      "t": 53716.72950000007,
      "d": 805.0691250000018,
      "v": 127
    },
    {
      "midi": 44,
      "hit": false,
      "t": 53716.72950000011,
      "d": 297.2024999999994,
      "v": 127
    },
    {
      "midi": 74,
      "hit": false,
      "t": 53989.45649999999,
      "d": 305.9437500000058,
      "v": 127
    },
    {
      "midi": 74,
      "hit": false,
      "t": 53989.4565,
      "d": 305.9437500000058,
      "v": 127
    },
    {
      "midi": 74,
      "hit": false,
      "t": 53989.45650000001,
      "d": 305.9437500000058,
      "v": 127
    },
    {
      "midi": 40,
      "hit": false,
      "t": 54136.30950000003,
      "d": 148.6012499999997,
      "v": 127
    },
    {
      "midi": 36,
      "hit": false,
      "t": 54136.30950000003,
      "d": 148.6012499999997,
      "v": 127
    },
    {
      "midi": 38,
      "hit": false,
      "t": 54136.30950000003,
      "d": 148.6012499999997,
      "v": 127
    },
    {
      "midi": 39,
      "hit": false,
      "t": 54136.30950000003,
      "d": 148.6012499999997,
      "v": 127
    },
    {
      "midi": 44,
      "hit": false,
      "t": 54136.30950000011,
      "d": 297.2024999999994,
      "v": 127
    },
    {
      "midi": 75,
      "hit": false,
      "t": 54272.672999999995,
      "d": 305.9437500000058,
      "v": 127
    },
    {
      "midi": 75,
      "hit": false,
      "t": 54272.673,
      "d": 305.9437500000058,
      "v": 127
    },
    {
      "midi": 75,
      "hit": false,
      "t": 54272.67300000001,
      "d": 305.9437500000058,
      "v": 127
    },
    {
      "midi": 77,
      "hit": false,
      "t": 54555.8895,
      "d": 305.9437500000058,
      "v": 127
    },
    {
      "midi": 77,
      "hit": false,
      "t": 54555.889500000005,
      "d": 305.9437500000058,
      "v": 127
    },
    {
      "midi": 77,
      "hit": false,
      "t": 54555.88950000001,
      "d": 305.9437500000058,
      "v": 127
    },
    {
      "midi": 39,
      "hit": false,
      "t": 54555.889500000034,
      "d": 148.6012499999997,
      "v": 127
    },
    {
      "midi": 36,
      "hit": false,
      "t": 54555.889500000034,
      "d": 148.6012499999997,
      "v": 127
    },
    {
      "midi": 35,
      "hit": false,
      "t": 54555.889500000034,
      "d": 148.6012499999997,
      "v": 127
    },
    {
      "midi": 50,
      "hit": false,
      "t": 54555.889500000034,
      "d": 305.94374999999854,
      "v": 127
    },
    {
      "midi": 62,
      "hit": false,
      "t": 54555.88950000007,
      "d": 148.6012499999997,
      "v": 127
    },
    {
      "midi": 74,
      "hit": false,
      "t": 54555.88950000007,
      "d": 148.6012499999997,
      "v": 127
    },
    {
      "midi": 67,
      "hit": false,
      "t": 54555.88950000007,
      "d": 148.6012499999997,
      "v": 127
    },
    {
      "midi": 43,
      "hit": false,
      "t": 54555.889500000114,
      "d": 297.2024999999994,
      "v": 127
    },
    {
      "midi": 39,
      "hit": false,
      "t": 54771.798375000035,
      "d": 148.6012499999997,
      "v": 127
    },
    {
      "midi": 36,
      "hit": false,
      "t": 54771.798375000035,
      "d": 148.6012499999997,
      "v": 127
    },
    {
      "midi": 35,
      "hit": false,
      "t": 54771.798375000035,
      "d": 148.6012499999997,
      "v": 127
    },
    {
      "midi": 47,
      "hit": false,
      "t": 54771.798375000035,
      "d": 305.94374999999854,
      "v": 127
    },
    {
      "midi": 35,
      "hit": false,
      "t": 54975.469500000036,
      "d": 148.6012499999997,
      "v": 127
    },
    {
      "midi": 39,
      "hit": false,
      "t": 54975.469500000036,
      "d": 148.6012499999997,
      "v": 127
    },
    {
      "midi": 36,
      "hit": false,
      "t": 54975.469500000036,
      "d": 148.6012499999997,
      "v": 127
    },
    {
      "midi": 43,
      "hit": false,
      "t": 54975.469500000036,
      "d": 305.94374999999854,
      "v": 127
    },
    {
      "midi": 50,
      "hit": false,
      "t": 55395.0495,
      "d": 2403.84375,
      "v": 127
    },
    {
      "midi": 55,
      "hit": false,
      "t": 55395.0495,
      "d": 2403.84375,
      "v": 127
    },
    {
      "midi": 43,
      "hit": false,
      "t": 55395.0495,
      "d": 2403.84375,
      "v": 127
    },
    {
      "midi": 43,
      "hit": false,
      "t": 55395.04950000001,
      "d": 226.3983750000043,
      "v": 127
    },
    {
      "midi": 35,
      "hit": false,
      "t": 55395.04950000004,
      "d": 222.9018750000032,
      "v": 127
    },
    {
      "midi": 32,
      "hit": false,
      "t": 55395.04950000011,
      "d": 226.3983750000043,
      "v": 127
    },
    {
      "midi": 42,
      "hit": false,
      "t": 55610.95837500001,
      "d": 226.3983750000043,
      "v": 127
    },
    {
      "midi": 31,
      "hit": false,
      "t": 55610.95837500011,
      "d": 226.3983750000043,
      "v": 127
    },
    {
      "midi": 43,
      "hit": false,
      "t": 55814.62950000001,
      "d": 215.03475000000617,
      "v": 127
    },
    {
      "midi": 38,
      "hit": false,
      "t": 55814.62950000004,
      "d": 222.9018750000032,
      "v": 127
    },
    {
      "midi": 33,
      "hit": false,
      "t": 55814.62950000011,
      "d": 215.03475000000617,
      "v": 127
    },
    {
      "midi": 36,
      "hit": false,
      "t": 56030.53837500004,
      "d": 148.6012499999997,
      "v": 127
    },
    {
      "midi": 51,
      "hit": false,
      "t": 56234.20950000002,
      "d": 226.3983750000043,
      "v": 127
    },
    {
      "midi": 35,
      "hit": false,
      "t": 56234.20950000004,
      "d": 222.9018750000032,
      "v": 127
    },
    {
      "midi": 39,
      "hit": false,
      "t": 56234.20950000012,
      "d": 226.3983750000043,
      "v": 127
    },
    {
      "midi": 50,
      "hit": false,
      "t": 56450.11837500002,
      "d": 226.3983750000043,
      "v": 127
    },
    {
      "midi": 38,
      "hit": false,
      "t": 56450.11837500012,
      "d": 226.3983750000043,
      "v": 127
    },
    {
      "midi": 38,
      "hit": false,
      "t": 56653.78950000004,
      "d": 222.9018750000032,
      "v": 127
    },
    {
      "midi": 48,
      "hit": false,
      "t": 56869.69837500002,
      "d": 222.9018750000032,
      "v": 127
    },
    {
      "midi": 36,
      "hit": false,
      "t": 56869.69837500004,
      "d": 148.6012499999997,
      "v": 127
    },
    {
      "midi": 36,
      "hit": false,
      "t": 56869.69837500012,
      "d": 222.9018750000032,
      "v": 127
    },
    {
      "midi": 47,
      "hit": false,
      "t": 57073.36950000002,
      "d": 222.9018750000032,
      "v": 127
    },
    {
      "midi": 35,
      "hit": false,
      "t": 57073.369500000044,
      "d": 222.9018750000032,
      "v": 127
    },
    {
      "midi": 35,
      "hit": false,
      "t": 57073.369500000124,
      "d": 222.9018750000032,
      "v": 127
    },
    {
      "midi": 50,
      "hit": false,
      "t": 57289.27837500002,
      "d": 222.9018750000032,
      "v": 127
    },
    {
      "midi": 36,
      "hit": false,
      "t": 57289.278375000125,
      "d": 222.9018750000032,
      "v": 127
    },
    {
      "midi": 56,
      "hit": false,
      "t": 57492.949500000024,
      "d": 222.9018750000032,
      "v": 127
    },
    {
      "midi": 39,
      "hit": false,
      "t": 57492.949500000046,
      "d": 158.21662500000093,
      "v": 127
    },
    {
      "midi": 38,
      "hit": false,
      "t": 57492.949500000046,
      "d": 158.21662500000093,
      "v": 127
    },
    {
      "midi": 44,
      "hit": false,
      "t": 57492.949500000126,
      "d": 222.9018750000032,
      "v": 127
    },
    {
      "midi": 55,
      "hit": false,
      "t": 57708.858375000025,
      "d": 222.9018750000032,
      "v": 127
    },
    {
      "midi": 39,
      "hit": false,
      "t": 57708.85837500005,
      "d": 148.6012499999997,
      "v": 127
    },
    {
      "midi": 38,
      "hit": false,
      "t": 57708.85837500005,
      "d": 148.6012499999997,
      "v": 127
    },
    {
      "midi": 43,
      "hit": false,
      "t": 57708.85837500013,
      "d": 222.9018750000032,
      "v": 127
    },
    {
      "midi": 35,
      "hit": false,
      "t": 58332.10950000005,
      "d": 222.9018750000032,
      "v": 127
    },
    {
      "midi": 43,
      "hit": false,
      "t": 58332.10950000005,
      "d": 297.2025000000067,
      "v": 127
    },
    {
      "midi": 36,
      "hit": false,
      "t": 58332.10950000005,
      "d": 297.2025000000067,
      "v": 127
    },
    {
      "midi": 55,
      "hit": false,
      "t": 58751.689499999986,
      "d": 148.6012499999997,
      "v": 127
    },
    {
      "midi": 48,
      "hit": false,
      "t": 58751.689499999986,
      "d": 148.6012499999997,
      "v": 127
    },
    {
      "midi": 55,
      "hit": false,
      "t": 58751.6895,
      "d": 577.7966250000027,
      "v": 127
    },
    {
      "midi": 48,
      "hit": false,
      "t": 58751.6895,
      "d": 577.7966250000027,
      "v": 127
    },
    {
      "midi": 55,
      "hit": false,
      "t": 58751.68950000002,
      "d": 577.7966250000027,
      "v": 127
    },
    {
      "midi": 60,
      "hit": false,
      "t": 58751.68950000002,
      "d": 577.7966250000027,
      "v": 127
    },
    {
      "midi": 67,
      "hit": false,
      "t": 58751.68950000006,
      "d": 362.7618749999965,
      "v": 127
    },
    {
      "midi": 35,
      "hit": false,
      "t": 58751.68950000006,
      "d": 148.6012499999997,
      "v": 127
    },
    {
      "midi": 57,
      "hit": false,
      "t": 58751.68950000006,
      "d": 297.2024999999994,
      "v": 127
    },
    {
      "midi": 36,
      "hit": false,
      "t": 58751.68950000013,
      "d": 148.6012499999997,
      "v": 127
    },
    {
      "midi": 24,
      "hit": false,
      "t": 58967.59837500013,
      "d": 148.6012499999997,
      "v": 127
    },
    {
      "midi": 67,
      "hit": false,
      "t": 59171.26950000005,
      "d": 226.3983750000043,
      "v": 127
    },
    {
      "midi": 38,
      "hit": false,
      "t": 59171.26950000006,
      "d": 148.6012499999997,
      "v": 127
    },
    {
      "midi": 36,
      "hit": false,
      "t": 59171.26950000013,
      "d": 148.6012499999997,
      "v": 127
    },
    {
      "midi": 48,
      "hit": false,
      "t": 59387.17837499999,
      "d": 148.6012499999997,
      "v": 127
    },
    {
      "midi": 55,
      "hit": false,
      "t": 59387.17837499999,
      "d": 148.6012499999997,
      "v": 127
    },
    {
      "midi": 55,
      "hit": false,
      "t": 59387.178375,
      "d": 998.2507499999992,
      "v": 127
    },
    {
      "midi": 48,
      "hit": false,
      "t": 59387.178375,
      "d": 998.2507499999992,
      "v": 127
    },
    {
      "midi": 55,
      "hit": false,
      "t": 59387.178375000025,
      "d": 998.2507499999992,
      "v": 127
    },
    {
      "midi": 60,
      "hit": false,
      "t": 59387.178375000025,
      "d": 998.2507499999992,
      "v": 127
    },
    {
      "midi": 65,
      "hit": false,
      "t": 59387.178375000054,
      "d": 362.7618750000038,
      "v": 127
    },
    {
      "midi": 24,
      "hit": false,
      "t": 59387.178375000134,
      "d": 148.6012499999997,
      "v": 127
    },
    {
      "midi": 35,
      "hit": false,
      "t": 59590.84950000006,
      "d": 148.6012499999997,
      "v": 127
    },
    {
      "midi": 36,
      "hit": false,
      "t": 59590.849500000135,
      "d": 148.6012499999997,
      "v": 127
    },
    {
      "midi": 48,
      "hit": false,
      "t": 59806.75837499999,
      "d": 148.6012499999997,
      "v": 127
    },
    {
      "midi": 55,
      "hit": false,
      "t": 59806.75837499999,
      "d": 148.6012499999997,
      "v": 127
    },
    {
      "midi": 65,
      "hit": false,
      "t": 59806.758375000056,
      "d": 226.3983750000043,
      "v": 127
    },
    {
      "midi": 24,
      "hit": false,
      "t": 59806.758375000136,
      "d": 148.6012499999997,
      "v": 127
    },
    {
      "midi": 63,
      "hit": false,
      "t": 60010.42950000006,
      "d": 419.58000000000175,
      "v": 127
    },
    {
      "midi": 38,
      "hit": false,
      "t": 60010.429500000064,
      "d": 148.6012499999997,
      "v": 127
    },
    {
      "midi": 36,
      "hit": false,
      "t": 60010.42950000014,
      "d": 148.6012499999997,
      "v": 127
    },
    {
      "midi": 48,
      "hit": false,
      "t": 60226.33837499999,
      "d": 148.6012499999997,
      "v": 127
    },
    {
      "midi": 55,
      "hit": false,
      "t": 60226.33837499999,
      "d": 148.6012499999997,
      "v": 127
    },
    {
      "midi": 24,
      "hit": false,
      "t": 60226.33837500014,
      "d": 148.6012499999997,
      "v": 127
    },
    {
      "midi": 50,
      "hit": false,
      "t": 60430.00949999999,
      "d": 148.6012499999997,
      "v": 127
    },
    {
      "midi": 55,
      "hit": false,
      "t": 60430.00949999999,
      "d": 148.6012499999997,
      "v": 127
    },
    {
      "midi": 55,
      "hit": false,
      "t": 60430.0095,
      "d": 577.7966250000027,
      "v": 127
    },
    {
      "midi": 50,
      "hit": false,
      "t": 60430.0095,
      "d": 577.7966250000027,
      "v": 127
    },
    {
      "midi": 62,
      "hit": false,
      "t": 60430.00950000002,
      "d": 577.7966250000027,
      "v": 127
    },
    {
      "midi": 55,
      "hit": false,
      "t": 60430.00950000002,
      "d": 577.7966250000027,
      "v": 127
    },
    {
      "midi": 62,
      "hit": false,
      "t": 60430.00950000006,
      "d": 452.79675000000134,
      "v": 127
    },
    {
      "midi": 35,
      "hit": false,
      "t": 60430.009500000066,
      "d": 148.6012499999997,
      "v": 127
    },
    {
      "midi": 43,
      "hit": false,
      "t": 60430.00950000014,
      "d": 148.6012499999997,
      "v": 127
    },
    {
      "midi": 31,
      "hit": false,
      "t": 60645.91837500014,
      "d": 148.6012499999997,
      "v": 127
    },
    {
      "midi": 65,
      "hit": false,
      "t": 60849.58950000006,
      "d": 895.1039999999994,
      "v": 127
    },
    {
      "midi": 38,
      "hit": false,
      "t": 60849.58950000007,
      "d": 148.6012499999997,
      "v": 127
    },
    {
      "midi": 43,
      "hit": false,
      "t": 60849.58950000014,
      "d": 148.6012499999997,
      "v": 127
    },
    {
      "midi": 50,
      "hit": false,
      "t": 61065.498374999996,
      "d": 148.6012499999997,
      "v": 127
    },
    {
      "midi": 55,
      "hit": false,
      "t": 61065.498374999996,
      "d": 148.6012499999997,
      "v": 127
    },
    {
      "midi": 55,
      "hit": false,
      "t": 61065.498375,
      "d": 998.2507499999992,
      "v": 127
    },
    {
      "midi": 50,
      "hit": false,
      "t": 61065.498375,
      "d": 998.2507499999992,
      "v": 127
    },
    {
      "midi": 62,
      "hit": false,
      "t": 61065.498375000025,
      "d": 998.2507499999992,
      "v": 127
    },
    {
      "midi": 55,
      "hit": false,
      "t": 61065.498375000025,
      "d": 998.2507499999992,
      "v": 127
    },
    {
      "midi": 31,
      "hit": false,
      "t": 61065.49837500014,
      "d": 148.6012499999997,
      "v": 127
    },
    {
      "midi": 35,
      "hit": false,
      "t": 61269.16950000007,
      "d": 148.6012499999997,
      "v": 127
    },
    {
      "midi": 43,
      "hit": false,
      "t": 61269.16950000014,
      "d": 148.6012499999997,
      "v": 127
    },
    {
      "midi": 50,
      "hit": false,
      "t": 61485.078375,
      "d": 148.6012499999997,
      "v": 127
    },
    {
      "midi": 55,
      "hit": false,
      "t": 61485.078375,
      "d": 148.6012499999997,
      "v": 127
    },
    {
      "midi": 31,
      "hit": false,
      "t": 61485.07837500014,
      "d": 148.6012499999997,
      "v": 127
    },
    {
      "midi": 38,
      "hit": false,
      "t": 61688.74950000007,
      "d": 148.6012499999997,
      "v": 127
    },
    {
      "midi": 43,
      "hit": false,
      "t": 61688.74950000014,
      "d": 148.6012499999997,
      "v": 127
    },
    {
      "midi": 50,
      "hit": false,
      "t": 61904.658375,
      "d": 148.6012499999997,
      "v": 127
    },
    {
      "midi": 55,
      "hit": false,
      "t": 61904.658375,
      "d": 148.6012499999997,
      "v": 127
    },
    {
      "midi": 31,
      "hit": false,
      "t": 61904.658375000145,
      "d": 148.6012499999997,
      "v": 127
    },
    {
      "midi": 55,
      "hit": false,
      "t": 62108.3295,
      "d": 148.6012499999997,
      "v": 127
    },
    {
      "midi": 50,
      "hit": false,
      "t": 62108.3295,
      "d": 148.6012499999997,
      "v": 127
    },
    {
      "midi": 55,
      "hit": false,
      "t": 62108.3295,
      "d": 577.7966250000027,
      "v": 127
    },
    {
      "midi": 50,
      "hit": false,
      "t": 62108.3295,
      "d": 577.7966250000027,
      "v": 127
    },
    {
      "midi": 62,
      "hit": false,
      "t": 62108.32950000002,
      "d": 577.7966250000027,
      "v": 127
    },
    {
      "midi": 55,
      "hit": false,
      "t": 62108.32950000002,
      "d": 577.7966250000027,
      "v": 127
    },
    {
      "midi": 65,
      "hit": false,
      "t": 62108.32950000006,
      "d": 645.978375000006,
      "v": 127
    },
    {
      "midi": 35,
      "hit": false,
      "t": 62108.32950000007,
      "d": 148.6012499999997,
      "v": 127
    },
    {
      "midi": 43,
      "hit": false,
      "t": 62108.329500000145,
      "d": 148.6012499999997,
      "v": 127
    },
    {
      "midi": 31,
      "hit": false,
      "t": 62324.238375000146,
      "d": 148.6012499999997,
      "v": 127
    },
    {
      "midi": 38,
      "hit": false,
      "t": 62527.909500000074,
      "d": 148.6012499999997,
      "v": 127
    },
    {
      "midi": 43,
      "hit": false,
      "t": 62527.90950000015,
      "d": 148.6012499999997,
      "v": 127
    },
    {
      "midi": 50,
      "hit": false,
      "t": 62743.818375,
      "d": 148.6012499999997,
      "v": 127
    },
    {
      "midi": 55,
      "hit": false,
      "t": 62743.818375,
      "d": 148.6012499999997,
      "v": 127
    },
    {
      "midi": 55,
      "hit": false,
      "t": 62743.818375,
      "d": 998.2507499999992,
      "v": 127
    },
    {
      "midi": 50,
      "hit": false,
      "t": 62743.818375,
      "d": 998.2507499999992,
      "v": 127
    },
    {
      "midi": 62,
      "hit": false,
      "t": 62743.818375000024,
      "d": 998.2507499999992,
      "v": 127
    },
    {
      "midi": 55,
      "hit": false,
      "t": 62743.818375000024,
      "d": 998.2507499999992,
      "v": 127
    },
    {
      "midi": 63,
      "hit": false,
      "t": 62743.81837500006,
      "d": 645.978375000006,
      "v": 127
    },
    {
      "midi": 31,
      "hit": false,
      "t": 62743.81837500015,
      "d": 148.6012499999997,
      "v": 127
    },
    {
      "midi": 35,
      "hit": false,
      "t": 62947.489500000076,
      "d": 148.6012499999997,
      "v": 127
    },
    {
      "midi": 41,
      "hit": false,
      "t": 62947.48950000015,
      "d": 148.6012499999997,
      "v": 127
    },
    {
      "midi": 50,
      "hit": false,
      "t": 63163.398375000004,
      "d": 148.6012499999997,
      "v": 127
    },
    {
      "midi": 55,
      "hit": false,
      "t": 63163.398375000004,
      "d": 148.6012499999997,
      "v": 127
    },
    {
      "midi": 29,
      "hit": false,
      "t": 63163.39837500015,
      "d": 148.6012499999997,
      "v": 127
    },
    {
      "midi": 62,
      "hit": false,
      "t": 63367.06950000006,
      "d": 452.79675000000134,
      "v": 127
    },
    {
      "midi": 38,
      "hit": false,
      "t": 63367.06950000008,
      "d": 148.6012499999997,
      "v": 127
    },
    {
      "midi": 41,
      "hit": false,
      "t": 63367.06950000015,
      "d": 148.6012499999997,
      "v": 127
    },
    {
      "midi": 50,
      "hit": false,
      "t": 63582.978375000006,
      "d": 148.6012499999997,
      "v": 127
    },
    {
      "midi": 55,
      "hit": false,
      "t": 63582.978375000006,
      "d": 148.6012499999997,
      "v": 127
    },
    {
      "midi": 29,
      "hit": false,
      "t": 63582.97837500015,
      "d": 148.6012499999997,
      "v": 127
    },
    {
      "midi": 55,
      "hit": false,
      "t": 63786.6495,
      "d": 577.7966250000027,
      "v": 127
    },
    {
      "midi": 48,
      "hit": false,
      "t": 63786.6495,
      "d": 577.7966250000027,
      "v": 127
    },
    {
      "midi": 60,
      "hit": false,
      "t": 63786.64950000001,
      "d": 148.6012499999997,
      "v": 127
    },
    {
      "midi": 48,
      "hit": false,
      "t": 63786.64950000001,
      "d": 148.6012499999997,
      "v": 127
    },
    {
      "midi": 55,
      "hit": false,
      "t": 63786.64950000001,
      "d": 148.6012499999997,
      "v": 127
    },
    {
      "midi": 60,
      "hit": false,
      "t": 63786.64950000002,
      "d": 577.7966250000027,
      "v": 127
    },
    {
      "midi": 55,
      "hit": false,
      "t": 63786.64950000002,
      "d": 577.7966250000027,
      "v": 127
    },
    {
      "midi": 60,
      "hit": false,
      "t": 63786.649500000065,
      "d": 446.6778750000012,
      "v": 127
    },
    {
      "midi": 60,
      "hit": false,
      "t": 63786.64950000007,
      "d": 148.6012499999997,
      "v": 127
    },
    {
      "midi": 35,
      "hit": false,
      "t": 63786.64950000008,
      "d": 148.6012499999997,
      "v": 127
    },
    {
      "midi": 39,
      "hit": false,
      "t": 63786.64950000015,
      "d": 148.6012499999997,
      "v": 127
    },
    {
      "midi": 27,
      "hit": false,
      "t": 64002.55837500015,
      "d": 148.6012499999997,
      "v": 127
    },
    {
      "midi": 58,
      "hit": false,
      "t": 64206.22950000001,
      "d": 148.6012499999997,
      "v": 127
    },
    {
      "midi": 63,
      "hit": false,
      "t": 64206.22950000007,
      "d": 893.3557500000024,
      "v": 127
    },
    {
      "midi": 58,
      "hit": false,
      "t": 64206.229500000074,
      "d": 148.6012499999997,
      "v": 127
    },
    {
      "midi": 38,
      "hit": false,
      "t": 64206.22950000008,
      "d": 148.6012499999997,
      "v": 127
    },
    {
      "midi": 39,
      "hit": false,
      "t": 64206.229500000154,
      "d": 148.6012499999997,
      "v": 127
    },
    {
      "midi": 55,
      "hit": false,
      "t": 64422.138375,
      "d": 998.2507499999992,
      "v": 127
    },
    {
      "midi": 48,
      "hit": false,
      "t": 64422.138375,
      "d": 998.2507499999992,
      "v": 127
    },
    {
      "midi": 48,
      "hit": false,
      "t": 64422.13837500001,
      "d": 148.6012499999997,
      "v": 127
    },
    {
      "midi": 55,
      "hit": false,
      "t": 64422.13837500001,
      "d": 148.6012499999997,
      "v": 127
    },
    {
      "midi": 60,
      "hit": false,
      "t": 64422.138375000024,
      "d": 998.2507499999992,
      "v": 127
    },
    {
      "midi": 55,
      "hit": false,
      "t": 64422.138375000024,
      "d": 998.2507499999992,
      "v": 127
    },
    {
      "midi": 27,
      "hit": false,
      "t": 64422.138375000155,
      "d": 148.6012499999997,
      "v": 127
    },
    {
      "midi": 57,
      "hit": false,
      "t": 64625.80950000001,
      "d": 148.6012499999997,
      "v": 127
    },
    {
      "midi": 57,
      "hit": false,
      "t": 64625.809500000076,
      "d": 148.6012499999997,
      "v": 127
    },
    {
      "midi": 35,
      "hit": false,
      "t": 64625.80950000008,
      "d": 148.6012499999997,
      "v": 127
    },
    {
      "midi": 38,
      "hit": false,
      "t": 64625.809500000156,
      "d": 148.6012499999997,
      "v": 127
    },
    {
      "midi": 48,
      "hit": false,
      "t": 64841.71837500001,
      "d": 148.6012499999997,
      "v": 127
    },
    {
      "midi": 55,
      "hit": false,
      "t": 64841.71837500001,
      "d": 148.6012499999997,
      "v": 127
    },
    {
      "midi": 26,
      "hit": false,
      "t": 64841.71837500016,
      "d": 148.6012499999997,
      "v": 127
    },
    {
      "midi": 55,
      "hit": false,
      "t": 65045.38950000001,
      "d": 148.6012499999997,
      "v": 127
    },
    {
      "midi": 55,
      "hit": false,
      "t": 65045.38950000008,
      "d": 148.6012499999997,
      "v": 127
    },
    {
      "midi": 38,
      "hit": false,
      "t": 65045.389500000085,
      "d": 148.6012499999997,
      "v": 127
    },
    {
      "midi": 38,
      "hit": false,
      "t": 65045.38950000016,
      "d": 148.6012499999997,
      "v": 127
    },
    {
      "midi": 48,
      "hit": false,
      "t": 65261.29837500001,
      "d": 148.6012499999997,
      "v": 127
    },
    {
      "midi": 55,
      "hit": false,
      "t": 65261.29837500001,
      "d": 148.6012499999997,
      "v": 127
    },
    {
      "midi": 26,
      "hit": false,
      "t": 65261.29837500016,
      "d": 148.6012499999997,
      "v": 127
    },
    {
      "midi": 55,
      "hit": false,
      "t": 65464.9695,
      "d": 577.7966249999954,
      "v": 127
    },
    {
      "midi": 48,
      "hit": false,
      "t": 65464.9695,
      "d": 577.7966249999954,
      "v": 127
    },
    {
      "midi": 48,
      "hit": false,
      "t": 65464.969500000014,
      "d": 148.6012499999997,
      "v": 127
    },
    {
      "midi": 55,
      "hit": false,
      "t": 65464.969500000014,
      "d": 148.6012499999997,
      "v": 127
    },
    {
      "midi": 60,
      "hit": false,
      "t": 65464.96950000002,
      "d": 577.7966250000027,
      "v": 127
    },
    {
      "midi": 55,
      "hit": false,
      "t": 65464.96950000002,
      "d": 577.7966250000027,
      "v": 127
    },
    {
      "midi": 60,
      "hit": false,
      "t": 65464.96950000007,
      "d": 374.1255000000019,
      "v": 127
    },
    {
      "midi": 48,
      "hit": false,
      "t": 65464.96950000008,
      "d": 725.523749999993,
      "v": 127
    },
    {
      "midi": 60,
      "hit": false,
      "t": 65464.96950000008,
      "d": 725.523749999993,
      "v": 127
    },
    {
      "midi": 35,
      "hit": false,
      "t": 65464.96950000009,
      "d": 148.6012499999997,
      "v": 127
    },
    {
      "midi": 49,
      "hit": false,
      "t": 65464.96950000009,
      "d": 595.2791250000082,
      "v": 127
    },
    {
      "midi": 36,
      "hit": false,
      "t": 65464.96950000016,
      "d": 148.6012499999997,
      "v": 127
    },
    {
      "midi": 24,
      "hit": false,
      "t": 65680.87837500016,
      "d": 148.60125000000698,
      "v": 127
    },
    {
      "midi": 38,
      "hit": false,
      "t": 65884.54950000008,
      "d": 148.60125000000698,
      "v": 127
    },
    {
      "midi": 36,
      "hit": false,
      "t": 65884.54950000017,
      "d": 148.60125000000698,
      "v": 127
    },
    {
      "midi": 60,
      "hit": false,
      "t": 65895.91312500008,
      "d": 227.27249999999185,
      "v": 127
    },
    {
      "midi": 55,
      "hit": false,
      "t": 66100.45837499999,
      "d": 998.2507500000065,
      "v": 127
    },
    {
      "midi": 48,
      "hit": false,
      "t": 66100.45837499999,
      "d": 998.2507500000065,
      "v": 127
    },
    {
      "midi": 48,
      "hit": false,
      "t": 66100.45837500002,
      "d": 148.60125000000698,
      "v": 127
    },
    {
      "midi": 55,
      "hit": false,
      "t": 66100.45837500002,
      "d": 148.60125000000698,
      "v": 127
    },
    {
      "midi": 55,
      "hit": false,
      "t": 66100.45837500002,
      "d": 998.2507500000065,
      "v": 127
    },
    {
      "midi": 60,
      "hit": false,
      "t": 66100.45837500002,
      "d": 998.2507500000065,
      "v": 127
    },
    {
      "midi": 63,
      "hit": false,
      "t": 66100.45837500007,
      "d": 453.67087499999616,
      "v": 127
    },
    {
      "midi": 62,
      "hit": false,
      "t": 66100.45837500007,
      "d": 297.2024999999994,
      "v": 127
    },
    {
      "midi": 50,
      "hit": false,
      "t": 66100.45837500007,
      "d": 297.2024999999994,
      "v": 127
    },
    {
      "midi": 24,
      "hit": false,
      "t": 66100.45837500018,
      "d": 148.60125000000698,
      "v": 127
    },
    {
      "midi": 63,
      "hit": false,
      "t": 66304.12950000007,
      "d": 441.4331249999959,
      "v": 127
    },
    {
      "midi": 51,
      "hit": false,
      "t": 66304.12950000007,
      "d": 441.4331249999959,
      "v": 127
    },
    {
      "midi": 35,
      "hit": false,
      "t": 66304.1295000001,
      "d": 148.60125000000698,
      "v": 127
    },
    {
      "midi": 39,
      "hit": false,
      "t": 66304.12950000018,
      "d": 148.60125000000698,
      "v": 127
    },
    {
      "midi": 48,
      "hit": false,
      "t": 66520.03837500002,
      "d": 148.60125000000698,
      "v": 127
    },
    {
      "midi": 55,
      "hit": false,
      "t": 66520.03837500002,
      "d": 148.60125000000698,
      "v": 127
    },
    {
      "midi": 60,
      "hit": false,
      "t": 66520.03837500008,
      "d": 226.39837499998976,
      "v": 127
    },
    {
      "midi": 27,
      "hit": false,
      "t": 66520.0383750002,
      "d": 148.60125000000698,
      "v": 127
    },
    {
      "midi": 63,
      "hit": false,
      "t": 66723.70950000007,
      "d": 226.39837499998976,
      "v": 127
    },
    {
      "midi": 65,
      "hit": false,
      "t": 66723.70950000007,
      "d": 222.90187499999593,
      "v": 127
    },
    {
      "midi": 53,
      "hit": false,
      "t": 66723.70950000007,
      "d": 222.90187499999593,
      "v": 127
    },
    {
      "midi": 38,
      "hit": false,
      "t": 66723.7095000001,
      "d": 148.60125000000698,
      "v": 127
    },
    {
      "midi": 39,
      "hit": false,
      "t": 66723.7095000002,
      "d": 148.60125000000698,
      "v": 127
    },
    {
      "midi": 48,
      "hit": false,
      "t": 66939.61837500002,
      "d": 148.60125000000698,
      "v": 127
    },
    {
      "midi": 55,
      "hit": false,
      "t": 66939.61837500002,
      "d": 148.60125000000698,
      "v": 127
    },
    {
      "midi": 67,
      "hit": false,
      "t": 66939.61837500006,
      "d": 226.39837499998976,
      "v": 127
    },
    {
      "midi": 67,
      "hit": false,
      "t": 66939.61837500006,
      "d": 222.90187500001048,
      "v": 127
    },
    {
      "midi": 55,
      "hit": false,
      "t": 66939.61837500006,
      "d": 222.90187500001048,
      "v": 127
    },
    {
      "midi": 27,
      "hit": false,
      "t": 66939.61837500021,
      "d": 148.60125000000698,
      "v": 127
    },
    {
      "midi": 53,
      "hit": false,
      "t": 67143.2895,
      "d": 577.7966250000027,
      "v": 127
    },
    {
      "midi": 48,
      "hit": false,
      "t": 67143.2895,
      "d": 577.7966250000027,
      "v": 127
    },
    {
      "midi": 53,
      "hit": false,
      "t": 67143.28950000003,
      "d": 148.60125000000698,
      "v": 127
    },
    {
      "midi": 48,
      "hit": false,
      "t": 67143.28950000003,
      "d": 148.60125000000698,
      "v": 127
    },
    {
      "midi": 53,
      "hit": false,
      "t": 67143.28950000003,
      "d": 577.7966250000027,
      "v": 127
    },
    {
      "midi": 60,
      "hit": false,
      "t": 67143.28950000003,
      "d": 577.7966250000027,
      "v": 127
    },
    {
      "midi": 70,
      "hit": false,
      "t": 67143.28950000006,
      "d": 452.7967500000086,
      "v": 127
    },
    {
      "midi": 70,
      "hit": false,
      "t": 67143.28950000007,
      "d": 452.7967500000086,
      "v": 127
    },
    {
      "midi": 58,
      "hit": false,
      "t": 67143.28950000007,
      "d": 452.7967500000086,
      "v": 127
    },
    {
      "midi": 35,
      "hit": false,
      "t": 67143.2895000001,
      "d": 148.60125000000698,
      "v": 127
    },
    {
      "midi": 41,
      "hit": false,
      "t": 67143.28950000022,
      "d": 158.21662500000093,
      "v": 127
    },
    {
      "midi": 29,
      "hit": false,
      "t": 67359.19837500021,
      "d": 148.60125000000698,
      "v": 127
    },
    {
      "midi": 68,
      "hit": false,
      "t": 67562.86950000006,
      "d": 419.58000000000175,
      "v": 127
    },
    {
      "midi": 68,
      "hit": false,
      "t": 67562.86950000007,
      "d": 452.7967500000086,
      "v": 127
    },
    {
      "midi": 56,
      "hit": false,
      "t": 67562.86950000007,
      "d": 452.7967500000086,
      "v": 127
    },
    {
      "midi": 38,
      "hit": false,
      "t": 67562.8695000001,
      "d": 148.60125000000698,
      "v": 127
    },
    {
      "midi": 41,
      "hit": false,
      "t": 67562.86950000022,
      "d": 148.60125000000698,
      "v": 127
    },
    {
      "midi": 53,
      "hit": false,
      "t": 67778.778375,
      "d": 998.2507500000065,
      "v": 127
    },
    {
      "midi": 48,
      "hit": false,
      "t": 67778.778375,
      "d": 998.2507500000065,
      "v": 127
    },
    {
      "midi": 53,
      "hit": false,
      "t": 67778.77837500002,
      "d": 998.2507500000065,
      "v": 127
    },
    {
      "midi": 60,
      "hit": false,
      "t": 67778.77837500002,
      "d": 998.2507500000065,
      "v": 127
    },
    {
      "midi": 53,
      "hit": false,
      "t": 67778.77837500004,
      "d": 148.60125000000698,
      "v": 127
    },
    {
      "midi": 48,
      "hit": false,
      "t": 67778.77837500004,
      "d": 148.60125000000698,
      "v": 127
    },
    {
      "midi": 29,
      "hit": false,
      "t": 67778.77837500023,
      "d": 148.60125000000698,
      "v": 127
    },
    {
      "midi": 35,
      "hit": false,
      "t": 67982.4495000001,
      "d": 148.60125000000698,
      "v": 127
    },
    {
      "midi": 44,
      "hit": false,
      "t": 67982.44950000024,
      "d": 148.60125000000698,
      "v": 127
    },
    {
      "midi": 53,
      "hit": false,
      "t": 68198.35837500004,
      "d": 148.60125000000698,
      "v": 127
    },
    {
      "midi": 48,
      "hit": false,
      "t": 68198.35837500004,
      "d": 148.60125000000698,
      "v": 127
    },
    {
      "midi": 68,
      "hit": false,
      "t": 68198.35837500005,
      "d": 226.39837499998976,
      "v": 127
    },
    {
      "midi": 68,
      "hit": false,
      "t": 68198.35837500008,
      "d": 148.60125000000698,
      "v": 127
    },
    {
      "midi": 32,
      "hit": false,
      "t": 68198.35837500024,
      "d": 148.60125000000698,
      "v": 127
    },
    {
      "midi": 67,
      "hit": false,
      "t": 68402.02950000005,
      "d": 226.39837499998976,
      "v": 127
    },
    {
      "midi": 67,
      "hit": false,
      "t": 68402.02950000009,
      "d": 148.60125000000698,
      "v": 127
    },
    {
      "midi": 38,
      "hit": false,
      "t": 68402.0295000001,
      "d": 148.60125000000698,
      "v": 127
    },
    {
      "midi": 44,
      "hit": false,
      "t": 68402.02950000025,
      "d": 148.60125000000698,
      "v": 127
    },
    {
      "midi": 65,
      "hit": false,
      "t": 68617.93837500004,
      "d": 226.39837499998976,
      "v": 127
    },
    {
      "midi": 53,
      "hit": false,
      "t": 68617.93837500004,
      "d": 148.60125000000698,
      "v": 127
    },
    {
      "midi": 48,
      "hit": false,
      "t": 68617.93837500004,
      "d": 148.60125000000698,
      "v": 127
    },
    {
      "midi": 65,
      "hit": false,
      "t": 68617.9383750001,
      "d": 148.60125000000698,
      "v": 127
    },
    {
      "midi": 32,
      "hit": false,
      "t": 68617.93837500026,
      "d": 148.60125000000698,
      "v": 127
    },
    {
      "midi": 67,
      "hit": false,
      "t": 68821.60950000004,
      "d": 452.7967500000086,
      "v": 127
    },
    {
      "midi": 67,
      "hit": false,
      "t": 68821.60950000011,
      "d": 452.7967500000086,
      "v": 127
    },
    {
      "midi": 49,
      "hit": false,
      "t": 68821.60950000011,
      "d": 148.60125000000698,
      "v": 127
    },
    {
      "midi": 39,
      "hit": false,
      "t": 68821.60950000011,
      "d": 148.60125000000698,
      "v": 127
    },
    {
      "midi": 35,
      "hit": false,
      "t": 68821.60950000011,
      "d": 148.60125000000698,
      "v": 127
    },
    {
      "midi": 38,
      "hit": false,
      "t": 68821.60950000011,
      "d": 148.60125000000698,
      "v": 127
    },
    {
      "midi": 40,
      "hit": false,
      "t": 68821.60950000011,
      "d": 148.60125000000698,
      "v": 127
    },
    {
      "midi": 31,
      "hit": false,
      "t": 68821.60950000027,
      "d": 158.21662500000093,
      "v": 127
    },
    {
      "midi": 65,
      "hit": false,
      "t": 69241.18950000004,
      "d": 452.7967500000086,
      "v": 127
    },
    {
      "midi": 65,
      "hit": false,
      "t": 69241.18950000011,
      "d": 452.7967500000086,
      "v": 127
    },
    {
      "midi": 35,
      "hit": false,
      "t": 69241.18950000011,
      "d": 148.60125000000698,
      "v": 127
    },
    {
      "midi": 39,
      "hit": false,
      "t": 69241.18950000011,
      "d": 148.60125000000698,
      "v": 127
    },
    {
      "midi": 49,
      "hit": false,
      "t": 69241.18950000011,
      "d": 148.60125000000698,
      "v": 127
    },
    {
      "midi": 40,
      "hit": false,
      "t": 69241.18950000011,
      "d": 148.60125000000698,
      "v": 127
    },
    {
      "midi": 38,
      "hit": false,
      "t": 69241.18950000011,
      "d": 148.60125000000698,
      "v": 127
    },
    {
      "midi": 33,
      "hit": false,
      "t": 69241.18950000027,
      "d": 158.21662500000093,
      "v": 127
    },
    {
      "midi": 63,
      "hit": false,
      "t": 69660.76950000004,
      "d": 226.3983750000043,
      "v": 127
    },
    {
      "midi": 63,
      "hit": false,
      "t": 69660.76950000011,
      "d": 148.60125000000698,
      "v": 127
    },
    {
      "midi": 35,
      "hit": false,
      "t": 69660.76950000011,
      "d": 148.60125000000698,
      "v": 127
    },
    {
      "midi": 39,
      "hit": false,
      "t": 69660.76950000011,
      "d": 148.60125000000698,
      "v": 127
    },
    {
      "midi": 49,
      "hit": false,
      "t": 69660.76950000011,
      "d": 148.60125000000698,
      "v": 127
    },
    {
      "midi": 40,
      "hit": false,
      "t": 69660.76950000011,
      "d": 148.60125000000698,
      "v": 127
    },
    {
      "midi": 38,
      "hit": false,
      "t": 69660.76950000011,
      "d": 148.60125000000698,
      "v": 127
    },
    {
      "midi": 34,
      "hit": false,
      "t": 69660.76950000027,
      "d": 148.60125000000698,
      "v": 127
    },
    {
      "midi": 35,
      "hit": false,
      "t": 69875.80425000012,
      "d": 148.60125000000698,
      "v": 127
    },
    {
      "midi": 39,
      "hit": false,
      "t": 69875.80425000012,
      "d": 148.60125000000698,
      "v": 127
    },
    {
      "midi": 49,
      "hit": false,
      "t": 69875.80425000012,
      "d": 148.60125000000698,
      "v": 127
    },
    {
      "midi": 40,
      "hit": false,
      "t": 69875.80425000012,
      "d": 148.60125000000698,
      "v": 127
    },
    {
      "midi": 38,
      "hit": false,
      "t": 69875.80425000012,
      "d": 148.60125000000698,
      "v": 127
    },
    {
      "midi": 62,
      "hit": false,
      "t": 69876.67837500005,
      "d": 453.67087499999616,
      "v": 127
    },
    {
      "midi": 62,
      "hit": false,
      "t": 69876.67837500012,
      "d": 453.67087499999616,
      "v": 127
    },
    {
      "midi": 35,
      "hit": false,
      "t": 69876.67837500028,
      "d": 159.09075000000303,
      "v": 127
    },
    {
      "midi": 35,
      "hit": false,
      "t": 70295.38425000012,
      "d": 148.60125000000698,
      "v": 127
    },
    {
      "midi": 39,
      "hit": false,
      "t": 70295.38425000012,
      "d": 148.60125000000698,
      "v": 127
    },
    {
      "midi": 49,
      "hit": false,
      "t": 70295.38425000012,
      "d": 148.60125000000698,
      "v": 127
    },
    {
      "midi": 40,
      "hit": false,
      "t": 70295.38425000012,
      "d": 148.60125000000698,
      "v": 127
    },
    {
      "midi": 38,
      "hit": false,
      "t": 70295.38425000012,
      "d": 148.60125000000698,
      "v": 127
    },
    {
      "midi": 60,
      "hit": false,
      "t": 70296.25837500005,
      "d": 419.5799999999872,
      "v": 127
    },
    {
      "midi": 60,
      "hit": false,
      "t": 70296.25837500012,
      "d": 305.94374999999127,
      "v": 127
    },
    {
      "midi": 36,
      "hit": false,
      "t": 70296.25837500028,
      "d": 159.09075000000303,
      "v": 127
    },
    {
      "midi": 40,
      "hit": false,
      "t": 70715.83837500012,
      "d": 74.30062500000349,
      "v": 127
    },
    {
      "midi": 40,
      "hit": false,
      "t": 70818.11100000012,
      "d": 74.30062500000349,
      "v": 127
    },
    {
      "midi": 40,
      "hit": false,
      "t": 70919.50950000013,
      "d": 74.30062500000349,
      "v": 127
    },
    {
      "midi": 35,
      "hit": false,
      "t": 71135.41837500014,
      "d": 148.60125000000698,
      "v": 127
    },
    {
      "midi": 36,
      "hit": false,
      "t": 71135.41837500014,
      "d": 148.60125000000698,
      "v": 127
    },
    {
      "midi": 40,
      "hit": false,
      "t": 71339.08950000015,
      "d": 74.30062500000349,
      "v": 127
    },
    {
      "midi": 68,
      "hit": false,
      "t": 71554.99837500004,
      "d": 226.39837499998976,
      "v": 127
    },
    {
      "midi": 68,
      "hit": false,
      "t": 71554.99837500011,
      "d": 148.60125000000698,
      "v": 127
    },
    {
      "midi": 35,
      "hit": false,
      "t": 71554.99837500016,
      "d": 148.60125000000698,
      "v": 127
    },
    {
      "midi": 36,
      "hit": false,
      "t": 71554.99837500016,
      "d": 148.60125000000698,
      "v": 127
    },
    {
      "midi": 67,
      "hit": false,
      "t": 71758.66950000003,
      "d": 226.39837499998976,
      "v": 127
    },
    {
      "midi": 67,
      "hit": false,
      "t": 71758.66950000012,
      "d": 148.60125000000698,
      "v": 127
    },
    {
      "midi": 45,
      "hit": false,
      "t": 71758.66950000016,
      "d": 297.2024999999994,
      "v": 127
    },
    {
      "midi": 65,
      "hit": false,
      "t": 71974.57837500003,
      "d": 226.39837499998976,
      "v": 127
    },
    {
      "midi": 65,
      "hit": false,
      "t": 71974.57837500013,
      "d": 148.60125000000698,
      "v": 127
    },
    {
      "midi": 43,
      "hit": false,
      "t": 71974.57837500016,
      "d": 297.20250000001397,
      "v": 127
    },
    {
      "midi": 67,
      "hit": false,
      "t": 72178.24950000002,
      "d": 452.7967500000086,
      "v": 127
    },
    {
      "midi": 67,
      "hit": false,
      "t": 72178.24950000014,
      "d": 452.7967500000086,
      "v": 127
    },
    {
      "midi": 39,
      "hit": false,
      "t": 72178.24950000017,
      "d": 148.60125000000698,
      "v": 127
    },
    {
      "midi": 38,
      "hit": false,
      "t": 72178.24950000017,
      "d": 148.60125000000698,
      "v": 127
    },
    {
      "midi": 40,
      "hit": false,
      "t": 72178.24950000017,
      "d": 148.60125000000698,
      "v": 127
    },
    {
      "midi": 42,
      "hit": false,
      "t": 72178.24950000017,
      "d": 148.60125000000698,
      "v": 127
    },
    {
      "midi": 35,
      "hit": false,
      "t": 72178.24950000017,
      "d": 148.60125000000698,
      "v": 127
    },
    {
      "midi": 31,
      "hit": false,
      "t": 72178.24950000028,
      "d": 158.21662500000093,
      "v": 127
    },
    {
      "midi": 65,
      "hit": false,
      "t": 72597.82950000002,
      "d": 452.7967500000086,
      "v": 127
    },
    {
      "midi": 65,
      "hit": false,
      "t": 72597.82950000014,
      "d": 452.7967500000086,
      "v": 127
    },
    {
      "midi": 42,
      "hit": false,
      "t": 72597.82950000017,
      "d": 148.60125000000698,
      "v": 127
    },
    {
      "midi": 38,
      "hit": false,
      "t": 72597.82950000017,
      "d": 148.60125000000698,
      "v": 127
    },
    {
      "midi": 40,
      "hit": false,
      "t": 72597.82950000017,
      "d": 148.60125000000698,
      "v": 127
    },
    {
      "midi": 39,
      "hit": false,
      "t": 72597.82950000017,
      "d": 148.60125000000698,
      "v": 127
    },
    {
      "midi": 35,
      "hit": false,
      "t": 72597.82950000017,
      "d": 148.60125000000698,
      "v": 127
    },
    {
      "midi": 33,
      "hit": false,
      "t": 72597.82950000028,
      "d": 158.21662500000093,
      "v": 127
    },
    {
      "midi": 63,
      "hit": false,
      "t": 73017.40950000002,
      "d": 226.3983750000043,
      "v": 127
    },
    {
      "midi": 63,
      "hit": false,
      "t": 73017.40950000014,
      "d": 148.60125000000698,
      "v": 127
    },
    {
      "midi": 42,
      "hit": false,
      "t": 73017.40950000017,
      "d": 148.60125000000698,
      "v": 127
    },
    {
      "midi": 38,
      "hit": false,
      "t": 73017.40950000017,
      "d": 148.60125000000698,
      "v": 127
    },
    {
      "midi": 40,
      "hit": false,
      "t": 73017.40950000017,
      "d": 148.60125000000698,
      "v": 127
    },
    {
      "midi": 39,
      "hit": false,
      "t": 73017.40950000017,
      "d": 148.60125000000698,
      "v": 127
    },
    {
      "midi": 35,
      "hit": false,
      "t": 73017.40950000017,
      "d": 148.60125000000698,
      "v": 127
    },
    {
      "midi": 34,
      "hit": false,
      "t": 73017.40950000029,
      "d": 148.60125000000698,
      "v": 127
    },
    {
      "midi": 42,
      "hit": false,
      "t": 73232.44425000018,
      "d": 148.60125000000698,
      "v": 127
    },
    {
      "midi": 38,
      "hit": false,
      "t": 73232.44425000018,
      "d": 148.60125000000698,
      "v": 127
    },
    {
      "midi": 40,
      "hit": false,
      "t": 73232.44425000018,
      "d": 148.60125000000698,
      "v": 127
    },
    {
      "midi": 39,
      "hit": false,
      "t": 73232.44425000018,
      "d": 148.60125000000698,
      "v": 127
    },
    {
      "midi": 35,
      "hit": false,
      "t": 73232.44425000018,
      "d": 148.60125000000698,
      "v": 127
    },
    {
      "midi": 62,
      "hit": false,
      "t": 73233.31837500003,
      "d": 453.67087499999616,
      "v": 127
    },
    {
      "midi": 62,
      "hit": false,
      "t": 73233.31837500015,
      "d": 453.67087499999616,
      "v": 127
    },
    {
      "midi": 35,
      "hit": false,
      "t": 73233.3183750003,
      "d": 159.09075000000303,
      "v": 127
    },
    {
      "midi": 49,
      "hit": false,
      "t": 73652.02425000018,
      "d": 148.60125000000698,
      "v": 127
    },
    {
      "midi": 38,
      "hit": false,
      "t": 73652.02425000018,
      "d": 148.60125000000698,
      "v": 127
    },
    {
      "midi": 40,
      "hit": false,
      "t": 73652.02425000018,
      "d": 148.60125000000698,
      "v": 127
    },
    {
      "midi": 39,
      "hit": false,
      "t": 73652.02425000018,
      "d": 148.60125000000698,
      "v": 127
    },
    {
      "midi": 35,
      "hit": false,
      "t": 73652.02425000018,
      "d": 148.60125000000698,
      "v": 127
    },
    {
      "midi": 60,
      "hit": false,
      "t": 73652.89837500003,
      "d": 419.5799999999872,
      "v": 127
    },
    {
      "midi": 60,
      "hit": false,
      "t": 73652.89837500015,
      "d": 305.94374999999127,
      "v": 127
    },
    {
      "midi": 36,
      "hit": false,
      "t": 73652.8983750003,
      "d": 159.09075000000303,
      "v": 127
    },
    {
      "midi": 43,
      "hit": false,
      "t": 74072.47837500018,
      "d": 78.67124999999942,
      "v": 127
    },
    {
      "midi": 43,
      "hit": false,
      "t": 74174.75100000018,
      "d": 159.09074999998847,
      "v": 127
    },
    {
      "midi": 75,
      "hit": false,
      "t": 74276.14950000017,
      "d": 297.2024999999994,
      "v": 127
    },
    {
      "midi": 40,
      "hit": false,
      "t": 74492.05837500017,
      "d": 74.30062500000349,
      "v": 127
    },
    {
      "midi": 40,
      "hit": false,
      "t": 74594.33100000018,
      "d": 74.30062500000349,
      "v": 127
    },
    {
      "midi": 40,
      "hit": false,
      "t": 74695.72950000019,
      "d": 78.67124999999942,
      "v": 127
    },
    {
      "midi": 40,
      "hit": false,
      "t": 74900.27475000019,
      "d": 159.09075000000303,
      "v": 127
    },
    {
      "midi": 68,
      "hit": false,
      "t": 74911.63837500002,
      "d": 226.39837499998976,
      "v": 127
    },
    {
      "midi": 68,
      "hit": false,
      "t": 74911.63837500014,
      "d": 148.60125000000698,
      "v": 127
    },
    {
      "midi": 67,
      "hit": false,
      "t": 75115.30950000002,
      "d": 226.39837499998976,
      "v": 127
    },
    {
      "midi": 67,
      "hit": false,
      "t": 75115.30950000015,
      "d": 148.60125000000698,
      "v": 127
    },
    {
      "midi": 40,
      "hit": false,
      "t": 75115.30950000019,
      "d": 148.60125000000698,
      "v": 127
    },
    {
      "midi": 65,
      "hit": false,
      "t": 75331.21837500001,
      "d": 226.39837499998976,
      "v": 127
    },
    {
      "midi": 65,
      "hit": false,
      "t": 75331.21837500016,
      "d": 148.60125000000698,
      "v": 127
    },
    {
      "midi": 40,
      "hit": false,
      "t": 75331.2183750002,
      "d": 148.60125000000698,
      "v": 127
    },
    {
      "midi": 67,
      "hit": false,
      "t": 75534.8895,
      "d": 595.2791250000009,
      "v": 127
    },
    {
      "midi": 67,
      "hit": false,
      "t": 75534.88950000016,
      "d": 595.2791250000009,
      "v": 127
    },
    {
      "midi": 31,
      "hit": false,
      "t": 75534.8895000003,
      "d": 158.21662500000093,
      "v": 127
    },
    {
      "midi": 36,
      "hit": false,
      "t": 75750.7983750002,
      "d": 148.60125000000698,
      "v": 127
    },
    {
      "midi": 40,
      "hit": false,
      "t": 75954.46950000021,
      "d": 148.60125000000698,
      "v": 127
    },
    {
      "midi": 36,
      "hit": false,
      "t": 76170.37837500022,
      "d": 148.60125000000698,
      "v": 127
    },
    {
      "midi": 70,
      "hit": false,
      "t": 76589.958375,
      "d": 226.39837499998976,
      "v": 127
    },
    {
      "midi": 58,
      "hit": false,
      "t": 76589.95837500016,
      "d": 148.60125000000698,
      "v": 127
    },
    {
      "midi": 40,
      "hit": false,
      "t": 76589.95837500022,
      "d": 148.60125000000698,
      "v": 127
    },
    {
      "midi": 34,
      "hit": false,
      "t": 76589.9583750003,
      "d": 148.60125000000698,
      "v": 127
    },
    {
      "midi": 71,
      "hit": false,
      "t": 76793.6295,
      "d": 226.39837499998976,
      "v": 127
    },
    {
      "midi": 59,
      "hit": false,
      "t": 76793.62950000017,
      "d": 148.60125000000698,
      "v": 127
    },
    {
      "midi": 40,
      "hit": false,
      "t": 76793.62950000023,
      "d": 148.60125000000698,
      "v": 127
    },
    {
      "midi": 35,
      "hit": false,
      "t": 76793.6295000003,
      "d": 159.09075000000303,
      "v": 127
    },
    {
      "midi": 72,
      "hit": false,
      "t": 77009.53837499999,
      "d": 419.58000000000175,
      "v": 127
    },
    {
      "midi": 60,
      "hit": false,
      "t": 77009.53837500018,
      "d": 305.9437500000058,
      "v": 127
    },
    {
      "midi": 40,
      "hit": false,
      "t": 77009.53837500024,
      "d": 148.60125000000698,
      "v": 127
    },
    {
      "midi": 49,
      "hit": false,
      "t": 77009.53837500024,
      "d": 297.20250000001397,
      "v": 127
    },
    {
      "midi": 36,
      "hit": false,
      "t": 77009.53837500031,
      "d": 159.09075000000303,
      "v": 127
    },
    {
      "midi": 42,
      "hit": false,
      "t": 77632.78950000017,
      "d": 2097.899999999994,
      "v": 127
    },
    {
      "midi": 45,
      "hit": false,
      "t": 77632.78950000017,
      "d": 2097.899999999994,
      "v": 127
    },
    {
      "midi": 54,
      "hit": false,
      "t": 77632.78950000017,
      "d": 2097.899999999994,
      "v": 127
    },
    {
      "midi": 57,
      "hit": false,
      "t": 77632.78950000017,
      "d": 2097.899999999994,
      "v": 127
    },
    {
      "midi": 57,
      "hit": false,
      "t": 79629.29100000024,
      "d": 297.2024999999994,
      "v": 127
    },
    {
      "midi": 40,
      "hit": false,
      "t": 79629.29100000024,
      "d": 305.9437500000058,
      "v": 127
    },
    {
      "midi": 36,
      "hit": false,
      "t": 79730.68950000024,
      "d": 297.20250000001397,
      "v": 127
    },
    {
      "midi": 49,
      "hit": false,
      "t": 79730.68950000024,
      "d": 297.20250000001397,
      "v": 127
    }
  ]
}