{
  "jsonPath": "Animes/Sailor Moon MIDI Collection/entrance.json",
  "path": "Animes\\Sailor Moon MIDI Collection\\Entrance).mid",
  "name": "Entrance)",
  "difficulty": "Advanced",
  "bpm": 75,
  "notes": [
    {
      "midi": 77,
      "hit": false,
      "t": 3998.022,
      "d": 666.3370000000004,
      "v": 64
    },
    {
      "midi": 69,
      "hit": false,
      "t": 3998.022,
      "d": 1999.0109999999995,
      "v": 40
    },
    {
      "midi": 62,
      "hit": false,
      "t": 3998.022,
      "d": 1999.0109999999995,
      "v": 40
    },
    {
      "midi": 77,
      "hit": false,
      "t": 4664.359,
      "d": 999.5055000000002,
      "v": 64
    },
    {
      "midi": 79,
      "hit": false,
      "t": 5663.864500000001,
      "d": 333.16849999999977,
      "v": 64
    },
    {
      "midi": 67,
      "hit": false,
      "t": 5997.032999999999,
      "d": 1999.0110000000004,
      "v": 24
    },
    {
      "midi": 60,
      "hit": false,
      "t": 5997.032999999999,
      "d": 1999.0110000000004,
      "v": 24
    },
    {
      "midi": 76,
      "hit": false,
      "t": 5997.033,
      "d": 1999.0109999999995,
      "v": 42
    },
    {
      "midi": 76,
      "hit": false,
      "t": 7996.044,
      "d": 666.3369999999995,
      "v": 40
    },
    {
      "midi": 67,
      "hit": false,
      "t": 7996.044,
      "d": 1999.0110000000004,
      "v": 24
    },
    {
      "midi": 61,
      "hit": false,
      "t": 7996.044,
      "d": 1999.0110000000004,
      "v": 24
    },
    {
      "midi": 76,
      "hit": false,
      "t": 8662.381,
      "d": 999.5054999999993,
      "v": 40
    },
    {
      "midi": 77,
      "hit": false,
      "t": 9661.886499999999,
      "d": 333.16849999999977,
      "v": 40
    },
    {
      "midi": 76,
      "hit": false,
      "t": 9995.054999999998,
      "d": 333.16849999999977,
      "v": 36
    },
    {
      "midi": 69,
      "hit": false,
      "t": 9995.055,
      "d": 1999.0110000000004,
      "v": 24
    },
    {
      "midi": 65,
      "hit": false,
      "t": 9995.055,
      "d": 1999.0110000000004,
      "v": 24
    },
    {
      "midi": 62,
      "hit": false,
      "t": 9995.055,
      "d": 1999.0110000000004,
      "v": 24
    },
    {
      "midi": 74,
      "hit": false,
      "t": 10328.223499999998,
      "d": 333.16849999999977,
      "v": 36
    },
    {
      "midi": 74,
      "hit": false,
      "t": 10661.391999999998,
      "d": 666.3369999999995,
      "v": 36
    },
    {
      "midi": 77,
      "hit": false,
      "t": 11994.065999999997,
      "d": 666.3369999999995,
      "v": 64
    },
    {
      "midi": 69,
      "hit": false,
      "t": 11994.066,
      "d": 1999.0110000000004,
      "v": 24
    },
    {
      "midi": 62,
      "hit": false,
      "t": 11994.066,
      "d": 1999.0110000000004,
      "v": 24
    },
    {
      "midi": 77,
      "hit": false,
      "t": 12660.402999999997,
      "d": 999.5054999999993,
      "v": 64
    },
    {
      "midi": 79,
      "hit": false,
      "t": 13659.908499999996,
      "d": 333.16849999999977,
      "v": 64
    },
    {
      "midi": 76,
      "hit": false,
      "t": 13993.076999999996,
      "d": 1999.0110000000004,
      "v": 42
    },
    {
      "midi": 67,
      "hit": false,
      "t": 13993.077000000001,
      "d": 1999.0110000000004,
      "v": 24
    },
    {
      "midi": 60,
      "hit": false,
      "t": 13993.077000000001,
      "d": 1999.0110000000004,
      "v": 24
    },
    {
      "midi": 76,
      "hit": false,
      "t": 15992.087999999996,
      "d": 666.3369999999995,
      "v": 40
    },
    {
      "midi": 67,
      "hit": false,
      "t": 15992.088000000002,
      "d": 1999.0110000000004,
      "v": 24
    },
    {
      "midi": 61,
      "hit": false,
      "t": 15992.088000000002,
      "d": 1999.0110000000004,
      "v": 24
    },
    {
      "midi": 76,
      "hit": false,
      "t": 16658.424999999996,
      "d": 999.5054999999993,
      "v": 40
    },
    {
      "midi": 77,
      "hit": false,
      "t": 17657.930499999995,
      "d": 333.16849999999977,
      "v": 40
    },
    {
      "midi": 76,
      "hit": false,
      "t": 17991.098999999995,
      "d": 333.16849999999977,
      "v": 34
    },
    {
      "midi": 69,
      "hit": false,
      "t": 17991.099000000002,
      "d": 3331.6850000000013,
      "v": 24
    },
    {
      "midi": 65,
      "hit": false,
      "t": 17991.099000000002,
      "d": 3331.6850000000013,
      "v": 24
    },
    {
      "midi": 62,
      "hit": false,
      "t": 17991.099000000002,
      "d": 3331.6850000000013,
      "v": 24
    },
    {
      "midi": 74,
      "hit": false,
      "t": 18324.267499999994,
      "d": 333.16849999999977,
      "v": 34
    },
    {
      "midi": 74,
      "hit": false,
      "t": 18657.435999999994,
      "d": 1999.0109999999986,
      "v": 36
    },
    {
      "midi": 69,
      "hit": false,
      "t": 21322.783999999992,
      "d": 666.3369999999995,
      "v": 64
    },
    {
      "midi": 77,
      "hit": false,
      "t": 21989.120999999992,
      "d": 666.3369999999995,
      "v": 64
    },
    {
      "midi": 50,
      "hit": false,
      "t": 21989.121,
      "d": 1860.1907916666642,
      "v": 64
    },
    {
      "midi": 45,
      "hit": false,
      "t": 22322.2895,
      "d": 610.808916666665,
      "v": 64
    },
    {
      "midi": 77,
      "hit": false,
      "t": 22655.45799999999,
      "d": 999.5054999999993,
      "v": 64
    },
    {
      "midi": 57,
      "hit": false,
      "t": 22655.458,
      "d": 1221.61783333333,
      "v": 64
    },
    {
      "midi": 45,
      "hit": false,
      "t": 22988.6265,
      "d": 943.9774166666648,
      "v": 64
    },
    {
      "midi": 53,
      "hit": false,
      "t": 23321.795,
      "d": 666.3369999999995,
      "v": 64
    },
    {
      "midi": 79,
      "hit": false,
      "t": 23654.96349999999,
      "d": 333.16849999999977,
      "v": 64
    },
    {
      "midi": 76,
      "hit": false,
      "t": 23988.13199999999,
      "d": 1999.0109999999986,
      "v": 64
    },
    {
      "midi": 55,
      "hit": false,
      "t": 23988.131999999998,
      "d": 999.5054999999993,
      "v": 43
    },
    {
      "midi": 48,
      "hit": false,
      "t": 23988.132000000005,
      "d": 1999.0109999999986,
      "v": 64
    },
    {
      "midi": 45,
      "hit": false,
      "t": 24987.637499999997,
      "d": 943.9774166666648,
      "v": 64
    },
    {
      "midi": 52,
      "hit": false,
      "t": 25320.805999999997,
      "d": 333.16849999999977,
      "v": 64
    },
    {
      "midi": 50,
      "hit": false,
      "t": 25653.974499999997,
      "d": 333.16849999999977,
      "v": 64
    },
    {
      "midi": 76,
      "hit": false,
      "t": 25987.14299999999,
      "d": 666.3369999999995,
      "v": 53
    },
    {
      "midi": 57,
      "hit": false,
      "t": 25987.142999999996,
      "d": 1332.673999999999,
      "v": 64
    },
    {
      "midi": 49,
      "hit": false,
      "t": 25987.143000000004,
      "d": 1999.0109999999986,
      "v": 43
    },
    {
      "midi": 76,
      "hit": false,
      "t": 26653.47999999999,
      "d": 999.5054999999993,
      "v": 64
    },
    {
      "midi": 57,
      "hit": false,
      "t": 27319.816999999995,
      "d": 666.3369999999995,
      "v": 64
    },
    {
      "midi": 77,
      "hit": false,
      "t": 27652.985499999988,
      "d": 333.16849999999977,
      "v": 64
    },
    {
      "midi": 76,
      "hit": false,
      "t": 27986.153999999988,
      "d": 333.16849999999977,
      "v": 64
    },
    {
      "midi": 62,
      "hit": false,
      "t": 27986.154000000002,
      "d": 1332.673999999999,
      "v": 64
    },
    {
      "midi": 50,
      "hit": false,
      "t": 27986.154000000002,
      "d": 1332.673999999999,
      "v": 64
    },
    {
      "midi": 74,
      "hit": false,
      "t": 28319.322499999987,
      "d": 333.16849999999977,
      "v": 64
    },
    {
      "midi": 74,
      "hit": false,
      "t": 28652.490999999987,
      "d": 1332.673999999999,
      "v": 50
    },
    {
      "midi": 69,
      "hit": false,
      "t": 28652.490999999987,
      "d": 1332.673999999999,
      "v": 50
    },
    {
      "midi": 65,
      "hit": false,
      "t": 28652.490999999987,
      "d": 1332.673999999999,
      "v": 50
    },
    {
      "midi": 45,
      "hit": false,
      "t": 28985.659499999994,
      "d": 999.5054999999993,
      "v": 64
    },
    {
      "midi": 50,
      "hit": false,
      "t": 29318.828,
      "d": 333.16849999999977,
      "v": 64
    },
    {
      "midi": 52,
      "hit": false,
      "t": 29651.9965,
      "d": 333.16849999999977,
      "v": 64
    },
    {
      "midi": 77,
      "hit": false,
      "t": 29985.164999999986,
      "d": 666.3369999999995,
      "v": 64
    },
    {
      "midi": 50,
      "hit": false,
      "t": 29985.164999999994,
      "d": 1832.4267499999987,
      "v": 64
    },
    {
      "midi": 45,
      "hit": false,
      "t": 30318.333499999993,
      "d": 555.2808333333342,
      "v": 64
    },
    {
      "midi": 77,
      "hit": false,
      "t": 30651.501999999986,
      "d": 999.5054999999993,
      "v": 64
    },
    {
      "midi": 57,
      "hit": false,
      "t": 30651.501999999993,
      "d": 1166.0897499999992,
      "v": 64
    },
    {
      "midi": 45,
      "hit": false,
      "t": 30984.670499999993,
      "d": 916.2133749999994,
      "v": 64
    },
    {
      "midi": 53,
      "hit": false,
      "t": 31317.838999999993,
      "d": 666.3369999999995,
      "v": 64
    },
    {
      "midi": 79,
      "hit": false,
      "t": 31651.007499999985,
      "d": 333.16849999999977,
      "v": 64
    },
    {
      "midi": 76,
      "hit": false,
      "t": 31984.175999999985,
      "d": 1999.0109999999986,
      "v": 64
    },
    {
      "midi": 55,
      "hit": false,
      "t": 31984.175999999992,
      "d": 999.5054999999993,
      "v": 43
    },
    {
      "midi": 48,
      "hit": false,
      "t": 31984.176,
      "d": 1999.0109999999986,
      "v": 64
    },
    {
      "midi": 45,
      "hit": false,
      "t": 32983.68149999999,
      "d": 860.6852916666685,
      "v": 64
    },
    {
      "midi": 52,
      "hit": false,
      "t": 33316.84999999999,
      "d": 333.16849999999977,
      "v": 64
    },
    {
      "midi": 50,
      "hit": false,
      "t": 33650.01849999999,
      "d": 333.16849999999977,
      "v": 64
    },
    {
      "midi": 76,
      "hit": false,
      "t": 33983.18699999998,
      "d": 666.3369999999995,
      "v": 53
    },
    {
      "midi": 57,
      "hit": false,
      "t": 33983.18699999999,
      "d": 1332.673999999999,
      "v": 64
    },
    {
      "midi": 49,
      "hit": false,
      "t": 33983.187,
      "d": 1999.0109999999986,
      "v": 43
    },
    {
      "midi": 76,
      "hit": false,
      "t": 34649.52399999998,
      "d": 999.5054999999993,
      "v": 64
    },
    {
      "midi": 57,
      "hit": false,
      "t": 35315.86099999999,
      "d": 666.3369999999995,
      "v": 64
    },
    {
      "midi": 77,
      "hit": false,
      "t": 35649.02949999998,
      "d": 333.16849999999977,
      "v": 64
    },
    {
      "midi": 76,
      "hit": false,
      "t": 35982.19799999998,
      "d": 333.16849999999977,
      "v": 64
    },
    {
      "midi": 62,
      "hit": false,
      "t": 35982.198,
      "d": 1332.673999999999,
      "v": 64
    },
    {
      "midi": 50,
      "hit": false,
      "t": 35982.198,
      "d": 1332.673999999999,
      "v": 64
    },
    {
      "midi": 74,
      "hit": false,
      "t": 36315.36649999998,
      "d": 333.16849999999977,
      "v": 64
    },
    {
      "midi": 74,
      "hit": false,
      "t": 36648.53499999998,
      "d": 1166.0897499999992,
      "v": 50
    },
    {
      "midi": 69,
      "hit": false,
      "t": 36648.53499999998,
      "d": 1166.0897499999992,
      "v": 50
    },
    {
      "midi": 65,
      "hit": false,
      "t": 36648.53499999998,
      "d": 1166.0897499999992,
      "v": 50
    },
    {
      "midi": 45,
      "hit": false,
      "t": 36981.70349999999,
      "d": 999.5054999999993,
      "v": 64
    },
    {
      "midi": 50,
      "hit": false,
      "t": 37314.871999999996,
      "d": 333.16849999999977,
      "v": 64
    },
    {
      "midi": 48,
      "hit": false,
      "t": 37648.040499999996,
      "d": 166.58424999999988,
      "v": 64
    },
    {
      "midi": 65,
      "hit": false,
      "t": 37814.624749999995,
      "d": 2165.5952499999985,
      "v": 64
    },
    {
      "midi": 70,
      "hit": false,
      "t": 37870.152833333326,
      "d": 2110.0671666666676,
      "v": 64
    },
    {
      "midi": 74,
      "hit": false,
      "t": 37925.68091666665,
      "d": 721.8650833333304,
      "v": 64
    },
    {
      "midi": 84,
      "hit": false,
      "t": 37981.20899999998,
      "d": 666.3369999999995,
      "v": 64
    },
    {
      "midi": 46,
      "hit": false,
      "t": 37981.20899999999,
      "d": 555.2808333333305,
      "v": 64
    },
    {
      "midi": 53,
      "hit": false,
      "t": 38314.37749999999,
      "d": 610.8089166666687,
      "v": 64
    },
    {
      "midi": 84,
      "hit": false,
      "t": 38647.54599999998,
      "d": 999.5054999999993,
      "v": 64
    },
    {
      "midi": 74,
      "hit": false,
      "t": 38647.54599999998,
      "d": 999.5054999999993,
      "v": 64
    },
    {
      "midi": 46,
      "hit": false,
      "t": 38647.54599999999,
      "d": 1277.1459166666682,
      "v": 64
    },
    {
      "midi": 53,
      "hit": false,
      "t": 38980.71449999999,
      "d": 943.9774166666684,
      "v": 64
    },
    {
      "midi": 55,
      "hit": false,
      "t": 39313.88299999999,
      "d": 583.0448749999996,
      "v": 64
    },
    {
      "midi": 60,
      "hit": false,
      "t": 39313.88299999999,
      "d": 610.8089166666687,
      "v": 64
    },
    {
      "midi": 86,
      "hit": false,
      "t": 39647.05149999998,
      "d": 333.16849999999977,
      "v": 64
    },
    {
      "midi": 72,
      "hit": false,
      "t": 39647.05149999998,
      "d": 333.16849999999977,
      "v": 64
    },
    {
      "midi": 84,
      "hit": false,
      "t": 39980.21999999998,
      "d": 666.3369999999995,
      "v": 64
    },
    {
      "midi": 76,
      "hit": false,
      "t": 39980.21999999998,
      "d": 666.3369999999995,
      "v": 64
    },
    {
      "midi": 64,
      "hit": false,
      "t": 39980.21999999999,
      "d": 999.5054999999993,
      "v": 64
    },
    {
      "midi": 60,
      "hit": false,
      "t": 39980.21999999999,
      "d": 999.5054999999993,
      "v": 64
    },
    {
      "midi": 45,
      "hit": false,
      "t": 39980.219999999994,
      "d": 1332.673999999999,
      "v": 64
    },
    {
      "midi": 84,
      "hit": false,
      "t": 40646.55699999998,
      "d": 1166.0897499999992,
      "v": 64
    },
    {
      "midi": 76,
      "hit": false,
      "t": 40646.55699999998,
      "d": 1166.0897499999992,
      "v": 64
    },
    {
      "midi": 53,
      "hit": false,
      "t": 40979.725499999986,
      "d": 305.4044583333307,
      "v": 79
    },
    {
      "midi": 60,
      "hit": false,
      "t": 41312.893999999986,
      "d": 666.3369999999995,
      "v": 77
    },
    {
      "midi": 45,
      "hit": false,
      "t": 41312.89399999999,
      "d": 499.75274999999965,
      "v": 64
    },
    {
      "midi": 50,
      "hit": false,
      "t": 41868.17483333332,
      "d": 666.3369999999995,
      "v": 64
    },
    {
      "midi": 53,
      "hit": false,
      "t": 41923.702916666654,
      "d": 610.8089166666687,
      "v": 64
    },
    {
      "midi": 74,
      "hit": false,
      "t": 41979.23099999998,
      "d": 555.2808333333305,
      "v": 64
    },
    {
      "midi": 82,
      "hit": false,
      "t": 42034.75908333331,
      "d": 333.16849999999977,
      "v": 64
    },
    {
      "midi": 81,
      "hit": false,
      "t": 42367.92758333331,
      "d": 166.58424999999988,
      "v": 64
    },
    {
      "midi": 50,
      "hit": false,
      "t": 42534.51183333332,
      "d": 666.3369999999995,
      "v": 64
    },
    {
      "midi": 53,
      "hit": false,
      "t": 42590.039916666654,
      "d": 610.8089166666687,
      "v": 64
    },
    {
      "midi": 70,
      "hit": false,
      "t": 42645.56799999998,
      "d": 555.2808333333305,
      "v": 64
    },
    {
      "midi": 79,
      "hit": false,
      "t": 42701.09608333331,
      "d": 333.16849999999977,
      "v": 64
    },
    {
      "midi": 81,
      "hit": false,
      "t": 43034.26458333331,
      "d": 166.58424999999988,
      "v": 64
    },
    {
      "midi": 48,
      "hit": false,
      "t": 43200.84883333332,
      "d": 777.3931666666685,
      "v": 64
    },
    {
      "midi": 55,
      "hit": false,
      "t": 43228.61287499999,
      "d": 749.6291249999995,
      "v": 64
    },
    {
      "midi": 58,
      "hit": false,
      "t": 43284.14095833332,
      "d": 694.1010416666686,
      "v": 64
    },
    {
      "midi": 76,
      "hit": false,
      "t": 43311.90499999998,
      "d": 666.3369999999995,
      "v": 64
    },
    {
      "midi": 82,
      "hit": false,
      "t": 43367.43308333331,
      "d": 333.16849999999977,
      "v": 64
    },
    {
      "midi": 84,
      "hit": false,
      "t": 43700.60158333331,
      "d": 277.6404166666689,
      "v": 64
    },
    {
      "midi": 81,
      "hit": false,
      "t": 43978.24199999998,
      "d": 1999.0109999999986,
      "v": 64
    },
    {
      "midi": 77,
      "hit": false,
      "t": 43978.24199999998,
      "d": 1999.0109999999986,
      "v": 64
    },
    {
      "midi": 72,
      "hit": false,
      "t": 43978.24199999998,
      "d": 1999.0109999999986,
      "v": 64
    },
    {
      "midi": 45,
      "hit": false,
      "t": 43978.24199999999,
      "d": 1999.0109999999986,
      "v": 64
    },
    {
      "midi": 48,
      "hit": false,
      "t": 44311.41049999998,
      "d": 333.16849999999977,
      "v": 64
    },
    {
      "midi": 64,
      "hit": false,
      "t": 44644.57899999998,
      "d": 1332.673999999999,
      "v": 64
    },
    {
      "midi": 60,
      "hit": false,
      "t": 44644.57899999998,
      "d": 1332.673999999999,
      "v": 64
    },
    {
      "midi": 79,
      "hit": false,
      "t": 45977.252999999975,
      "d": 333.16849999999977,
      "v": 64
    },
    {
      "midi": 55,
      "hit": false,
      "t": 45977.25299999999,
      "d": 666.3369999999995,
      "v": 64
    },
    {
      "midi": 78,
      "hit": false,
      "t": 46310.421499999975,
      "d": 333.16849999999977,
      "v": 64
    },
    {
      "midi": 78,
      "hit": false,
      "t": 46643.589999999975,
      "d": 333.16849999999977,
      "v": 64
    },
    {
      "midi": 66,
      "hit": false,
      "t": 46643.58999999999,
      "d": 666.3369999999995,
      "v": 64
    },
    {
      "midi": 59,
      "hit": false,
      "t": 46643.58999999999,
      "d": 666.3369999999995,
      "v": 64
    },
    {
      "midi": 55,
      "hit": false,
      "t": 46643.58999999999,
      "d": 666.3369999999995,
      "v": 64
    },
    {
      "midi": 79,
      "hit": false,
      "t": 46976.758499999974,
      "d": 333.16849999999977,
      "v": 64
    },
    {
      "midi": 79,
      "hit": false,
      "t": 47309.926999999974,
      "d": 333.16849999999977,
      "v": 64
    },
    {
      "midi": 67,
      "hit": false,
      "t": 47309.92699999999,
      "d": 666.3369999999995,
      "v": 64
    },
    {
      "midi": 59,
      "hit": false,
      "t": 47309.92699999999,
      "d": 666.3369999999995,
      "v": 64
    },
    {
      "midi": 55,
      "hit": false,
      "t": 47309.92699999999,
      "d": 666.3369999999995,
      "v": 64
    },
    {
      "midi": 81,
      "hit": false,
      "t": 47643.095499999974,
      "d": 333.16849999999977,
      "v": 64
    },
    {
      "midi": 82,
      "hit": false,
      "t": 47976.263999999974,
      "d": 1665.8424999999988,
      "v": 64
    },
    {
      "midi": 73,
      "hit": false,
      "t": 47976.263999999974,
      "d": 1665.8424999999988,
      "v": 64
    },
    {
      "midi": 45,
      "hit": false,
      "t": 47976.26399999999,
      "d": 1999.0109999999986,
      "v": 64
    },
    {
      "midi": 65,
      "hit": false,
      "t": 48642.60099999998,
      "d": 666.3369999999995,
      "v": 56
    },
    {
      "midi": 61,
      "hit": false,
      "t": 48642.60099999998,
      "d": 1332.673999999999,
      "v": 56
    },
    {
      "midi": 57,
      "hit": false,
      "t": 48642.60099999998,
      "d": 1332.673999999999,
      "v": 56
    },
    {
      "midi": 64,
      "hit": false,
      "t": 49308.93799999998,
      "d": 666.3369999999995,
      "v": 56
    },
    {
      "midi": 81,
      "hit": false,
      "t": 49642.10649999997,
      "d": 333.16849999999977,
      "v": 56
    },
    {
      "midi": 79,
      "hit": false,
      "t": 49975.27499999997,
      "d": 1332.673999999999,
      "v": 40
    },
    {
      "midi": 76,
      "hit": false,
      "t": 49975.27499999997,
      "d": 1332.673999999999,
      "v": 40
    },
    {
      "midi": 49,
      "hit": false,
      "t": 49975.27499999999,
      "d": 1999.0109999999986,
      "v": 40
    },
    {
      "midi": 57,
      "hit": false,
      "t": 50308.44349999998,
      "d": 1193.8537916666683,
      "v": 56
    },
    {
      "midi": 64,
      "hit": false,
      "t": 50641.61199999998,
      "d": 1221.61783333333,
      "v": 56
    },
    {
      "midi": 69,
      "hit": false,
      "t": 50974.78049999998,
      "d": 333.16849999999977,
      "v": 56
    },
    {
      "midi": 76,
      "hit": false,
      "t": 51307.94899999997,
      "d": 666.3369999999995,
      "v": 40
    },
    {
      "midi": 69,
      "hit": false,
      "t": 51307.94899999998,
      "d": 555.2808333333305,
      "v": 56
    },
    {
      "midi": 57,
      "hit": false,
      "t": 51641.11749999998,
      "d": 333.16849999999977,
      "v": 56
    },
    {
      "midi": 77,
      "hit": false,
      "t": 51974.28599999997,
      "d": 1332.673999999999,
      "v": 40
    },
    {
      "midi": 69,
      "hit": false,
      "t": 51974.28599999997,
      "d": 1332.673999999999,
      "v": 40
    },
    {
      "midi": 62,
      "hit": false,
      "t": 51974.28599999998,
      "d": 333.16849999999977,
      "v": 40
    },
    {
      "midi": 53,
      "hit": false,
      "t": 51974.285999999986,
      "d": 1332.673999999999,
      "v": 40
    },
    {
      "midi": 57,
      "hit": false,
      "t": 52307.45449999998,
      "d": 333.16849999999977,
      "v": 40
    },
    {
      "midi": 65,
      "hit": false,
      "t": 52640.62299999998,
      "d": 666.3369999999995,
      "v": 40
    },
    {
      "midi": 69,
      "hit": false,
      "t": 53306.95999999997,
      "d": 527.5167916666687,
      "v": 40
    },
    {
      "midi": 52,
      "hit": false,
      "t": 53306.959999999985,
      "d": 666.3369999999995,
      "v": 56
    },
    {
      "midi": 48,
      "hit": false,
      "t": 53306.959999999985,
      "d": 694.1010416666686,
      "v": 56
    },
    {
      "midi": 76,
      "hit": false,
      "t": 53306.96,
      "d": 333.16849999999977,
      "v": 72
    },
    {
      "midi": 57,
      "hit": false,
      "t": 53640.12849999998,
      "d": 111.05616666666901,
      "v": 56
    },
    {
      "midi": 77,
      "hit": false,
      "t": 53640.1285,
      "d": 333.16849999999977,
      "v": 56
    },
    {
      "midi": 45,
      "hit": false,
      "t": 53806.712749999984,
      "d": 2165.5952500000058,
      "v": 56
    },
    {
      "midi": 65,
      "hit": false,
      "t": 53862.240833333315,
      "d": 666.3369999999995,
      "v": 56
    },
    {
      "midi": 69,
      "hit": false,
      "t": 53917.76891666664,
      "d": 721.8650833333304,
      "v": 40
    },
    {
      "midi": 74,
      "hit": false,
      "t": 53973.297,
      "d": 666.3369999999995,
      "v": 73
    },
    {
      "midi": 53,
      "hit": false,
      "t": 54306.465499999984,
      "d": 610.8089166666687,
      "v": 40
    },
    {
      "midi": 69,
      "hit": false,
      "t": 54639.63399999997,
      "d": 999.5054999999993,
      "v": 8
    },
    {
      "midi": 65,
      "hit": false,
      "t": 54639.633999999984,
      "d": 1249.3818749999991,
      "v": 40
    },
    {
      "midi": 74,
      "hit": false,
      "t": 54639.634,
      "d": 999.5054999999993,
      "v": 40
    },
    {
      "midi": 53,
      "hit": false,
      "t": 54972.80249999998,
      "d": 888.4493333333303,
      "v": 40
    },
    {
      "midi": 60,
      "hit": false,
      "t": 55305.97099999998,
      "d": 583.0448749999996,
      "v": 40
    },
    {
      "midi": 55,
      "hit": false,
      "t": 55305.97099999998,
      "d": 583.0448749999996,
      "v": 40
    },
    {
      "midi": 76,
      "hit": false,
      "t": 55639.1395,
      "d": 333.16849999999977,
      "v": 72
    },
    {
      "midi": 67,
      "hit": false,
      "t": 55972.30799999997,
      "d": 666.3369999999995,
      "v": 8
    },
    {
      "midi": 64,
      "hit": false,
      "t": 55972.30799999998,
      "d": 666.3369999999995,
      "v": 24
    },
    {
      "midi": 45,
      "hit": false,
      "t": 55972.30799999999,
      "d": 1999.0109999999986,
      "v": 56
    },
    {
      "midi": 72,
      "hit": false,
      "t": 55972.308,
      "d": 666.3369999999995,
      "v": 56
    },
    {
      "midi": 67,
      "hit": false,
      "t": 56638.64499999997,
      "d": 1332.673999999999,
      "v": 8
    },
    {
      "midi": 64,
      "hit": false,
      "t": 56638.64499999998,
      "d": 1138.32570833333,
      "v": 40
    },
    {
      "midi": 72,
      "hit": false,
      "t": 56638.645,
      "d": 1332.673999999999,
      "v": 40
    },
    {
      "midi": 55,
      "hit": false,
      "t": 56971.81349999998,
      "d": 583.0448749999996,
      "v": 40
    },
    {
      "midi": 60,
      "hit": false,
      "t": 57304.98199999998,
      "d": 583.0448749999996,
      "v": 40
    },
    {
      "midi": 55,
      "hit": false,
      "t": 57638.15049999998,
      "d": 333.16849999999977,
      "v": 40
    },
    {
      "midi": 69,
      "hit": false,
      "t": 57971.31899999997,
      "d": 666.3369999999995,
      "v": 8
    },
    {
      "midi": 65,
      "hit": false,
      "t": 57971.31899999998,
      "d": 610.8089166666687,
      "v": 24
    },
    {
      "midi": 45,
      "hit": false,
      "t": 57971.31899999999,
      "d": 1999.0109999999986,
      "v": 40
    },
    {
      "midi": 74,
      "hit": false,
      "t": 57971.318999999996,
      "d": 666.3369999999995,
      "v": 56
    },
    {
      "midi": 53,
      "hit": false,
      "t": 58304.48749999998,
      "d": 610.8089166666687,
      "v": 40
    },
    {
      "midi": 69,
      "hit": false,
      "t": 58637.655999999966,
      "d": 666.3369999999995,
      "v": 8
    },
    {
      "midi": 65,
      "hit": false,
      "t": 58637.65599999998,
      "d": 610.8089166666687,
      "v": 40
    },
    {
      "midi": 74,
      "hit": false,
      "t": 58637.655999999995,
      "d": 999.5054999999993,
      "v": 40
    },
    {
      "midi": 53,
      "hit": false,
      "t": 58970.82449999998,
      "d": 610.8089166666687,
      "v": 40
    },
    {
      "midi": 60,
      "hit": false,
      "t": 59303.99299999998,
      "d": 666.3369999999995,
      "v": 40
    },
    {
      "midi": 55,
      "hit": false,
      "t": 59303.99299999998,
      "d": 666.3369999999995,
      "v": 40
    },
    {
      "midi": 77,
      "hit": false,
      "t": 59637.161499999995,
      "d": 83.29212499999994,
      "v": 56
    },
    {
      "midi": 76,
      "hit": false,
      "t": 59803.745749999995,
      "d": 83.29212499999994,
      "v": 56
    },
    {
      "midi": 64,
      "hit": false,
      "t": 59970.32999999998,
      "d": 1860.1907916666678,
      "v": 26
    },
    {
      "midi": 45,
      "hit": false,
      "t": 59970.32999999999,
      "d": 1999.0109999999986,
      "v": 40
    },
    {
      "midi": 72,
      "hit": false,
      "t": 59970.329999999994,
      "d": 1332.673999999999,
      "v": 40
    },
    {
      "midi": 48,
      "hit": false,
      "t": 60303.49849999998,
      "d": 583.0448749999996,
      "v": 40
    },
    {
      "midi": 52,
      "hit": false,
      "t": 60636.66699999998,
      "d": 1221.6178333333373,
      "v": 40
    },
    {
      "midi": 48,
      "hit": false,
      "t": 60969.83549999998,
      "d": 916.2133750000066,
      "v": 40
    },
    {
      "midi": 81,
      "hit": false,
      "t": 61303.003999999964,
      "d": 333.16849999999977,
      "v": 64
    },
    {
      "midi": 60,
      "hit": false,
      "t": 61303.00399999998,
      "d": 666.3370000000068,
      "v": 56
    },
    {
      "midi": 57,
      "hit": false,
      "t": 61303.00399999998,
      "d": 666.3370000000068,
      "v": 56
    },
    {
      "midi": 82,
      "hit": false,
      "t": 61636.172499999964,
      "d": 333.16849999999977,
      "v": 64
    },
    {
      "midi": 74,
      "hit": false,
      "t": 61969.340999999964,
      "d": 999.5054999999993,
      "v": 64
    },
    {
      "midi": 38,
      "hit": false,
      "t": 61969.340999999986,
      "d": 1999.0109999999986,
      "v": 56
    },
    {
      "midi": 46,
      "hit": false,
      "t": 62635.677999999985,
      "d": 1332.673999999999,
      "v": 40
    },
    {
      "midi": 57,
      "hit": false,
      "t": 62635.677999999985,
      "d": 1332.673999999999,
      "v": 40
    },
    {
      "midi": 55,
      "hit": false,
      "t": 62635.677999999985,
      "d": 1332.673999999999,
      "v": 40
    },
    {
      "midi": 74,
      "hit": false,
      "t": 62968.84649999996,
      "d": 333.16849999999977,
      "v": 40
    },
    {
      "midi": 81,
      "hit": false,
      "t": 63302.01499999996,
      "d": 333.16849999999977,
      "v": 40
    },
    {
      "midi": 82,
      "hit": false,
      "t": 63635.18349999996,
      "d": 333.16849999999977,
      "v": 40
    },
    {
      "midi": 74,
      "hit": false,
      "t": 63968.35199999996,
      "d": 1415.966124999999,
      "v": 40
    },
    {
      "midi": 36,
      "hit": false,
      "t": 63968.351999999984,
      "d": 666.3369999999995,
      "v": 56
    },
    {
      "midi": 36,
      "hit": false,
      "t": 64634.688999999984,
      "d": 1332.673999999999,
      "v": 40
    },
    {
      "midi": 55,
      "hit": false,
      "t": 64634.688999999984,
      "d": 1332.673999999999,
      "v": 40
    },
    {
      "midi": 46,
      "hit": false,
      "t": 64634.688999999984,
      "d": 1332.673999999999,
      "v": 40
    },
    {
      "midi": 74,
      "hit": false,
      "t": 65384.31812499996,
      "d": 166.58424999999988,
      "v": 40
    },
    {
      "midi": 77,
      "hit": false,
      "t": 65550.90237499996,
      "d": 166.58424999999988,
      "v": 56
    },
    {
      "midi": 76,
      "hit": false,
      "t": 65717.48662499996,
      "d": 249.8763750000071,
      "v": 56
    },
    {
      "midi": 72,
      "hit": false,
      "t": 65967.36299999997,
      "d": 1332.673999999999,
      "v": 36
    },
    {
      "midi": 64,
      "hit": false,
      "t": 65967.36299999997,
      "d": 1332.673999999999,
      "v": 36
    },
    {
      "midi": 36,
      "hit": false,
      "t": 65967.36299999998,
      "d": 1999.0109999999986,
      "v": 24
    },
    {
      "midi": 48,
      "hit": false,
      "t": 66300.53149999998,
      "d": 999.5054999999993,
      "v": 32
    },
    {
      "midi": 55,
      "hit": false,
      "t": 66633.69999999998,
      "d": 666.3369999999995,
      "v": 36
    },
    {
      "midi": 57,
      "hit": false,
      "t": 66966.86849999998,
      "d": 333.16849999999977,
      "v": 45
    },
    {
      "midi": 62,
      "hit": false,
      "t": 67300.03699999998,
      "d": 666.3369999999995,
      "v": 36
    },
    {
      "midi": 57,
      "hit": false,
      "t": 67300.03699999998,
      "d": 666.3369999999995,
      "v": 36
    },
    {
      "midi": 55,
      "hit": false,
      "t": 67300.03699999998,
      "d": 666.3369999999995,
      "v": 36
    },
    {
      "midi": 48,
      "hit": false,
      "t": 67300.03699999998,
      "d": 666.3369999999995,
      "v": 36
    },
    {
      "midi": 69,
      "hit": false,
      "t": 67633.20549999997,
      "d": 166.58424999999988,
      "v": 40
    },
    {
      "midi": 67,
      "hit": false,
      "t": 67799.78974999997,
      "d": 166.58424999999988,
      "v": 40
    },
    {
      "midi": 66,
      "hit": false,
      "t": 67966.37399999997,
      "d": 666.3369999999995,
      "v": 40
    },
    {
      "midi": 45,
      "hit": false,
      "t": 67966.37399999998,
      "d": 666.3369999999995,
      "v": 24
    },
    {
      "midi": 53,
      "hit": false,
      "t": 67966.37399999998,
      "d": 666.3369999999995,
      "v": 41
    },
    {
      "midi": 52,
      "hit": false,
      "t": 67966.37399999998,
      "d": 666.3369999999995,
      "v": 41
    },
    {
      "midi": 49,
      "hit": false,
      "t": 67966.37399999998,
      "d": 666.3369999999995,
      "v": 41
    },
    {
      "midi": 65,
      "hit": false,
      "t": 68632.71099999997,
      "d": 1166.0897499999992,
      "v": 40
    },
    {
      "midi": 43,
      "hit": false,
      "t": 68632.71099999998,
      "d": 1332.673999999999,
      "v": 24
    },
    {
      "midi": 52,
      "hit": false,
      "t": 68632.71099999998,
      "d": 1332.673999999999,
      "v": 41
    },
    {
      "midi": 49,
      "hit": false,
      "t": 68632.71099999998,
      "d": 1332.673999999999,
      "v": 41
    },
    {
      "midi": 77,
      "hit": false,
      "t": 69965.38499999997,
      "d": 666.3369999999995,
      "v": 56
    },
    {
      "midi": 50,
      "hit": false,
      "t": 69965.38499999998,
      "d": 1943.4829166666896,
      "v": 56
    },
    {
      "midi": 81,
      "hit": false,
      "t": 69965.385,
      "d": 7968.27995833334,
      "v": 43
    },
    {
      "midi": 50,
      "hit": false,
      "t": 69965.385,
      "d": 7996.043999999994,
      "v": 24
    },
    {
      "midi": 45,
      "hit": false,
      "t": 70298.55349999998,
      "d": 583.0448750000069,
      "v": 56
    },
    {
      "midi": 77,
      "hit": false,
      "t": 70631.72199999997,
      "d": 999.5054999999993,
      "v": 56
    },
    {
      "midi": 57,
      "hit": false,
      "t": 70631.72199999998,
      "d": 1249.381875000021,
      "v": 56
    },
    {
      "midi": 45,
      "hit": false,
      "t": 70964.8905,
      "d": 943.9774166666757,
      "v": 56
    },
    {
      "midi": 53,
      "hit": false,
      "t": 71298.059,
      "d": 666.3370000000141,
      "v": 56
    },
    {
      "midi": 79,
      "hit": false,
      "t": 71631.22749999996,
      "d": 333.16849999999977,
      "v": 56
    },
    {
      "midi": 76,
      "hit": false,
      "t": 71964.39599999996,
      "d": 1999.0109999999986,
      "v": 56
    },
    {
      "midi": 48,
      "hit": false,
      "t": 71964.39599999998,
      "d": 1999.0109999999986,
      "v": 64
    },
    {
      "midi": 55,
      "hit": false,
      "t": 71964.39600000001,
      "d": 1999.0109999999986,
      "v": 43
    },
    {
      "midi": 76,
      "hit": false,
      "t": 73963.40699999996,
      "d": 666.3369999999995,
      "v": 53
    },
    {
      "midi": 49,
      "hit": false,
      "t": 73963.40699999998,
      "d": 1999.0109999999986,
      "v": 43
    },
    {
      "midi": 57,
      "hit": false,
      "t": 73963.407,
      "d": 1332.673999999999,
      "v": 64
    },
    {
      "midi": 76,
      "hit": false,
      "t": 74629.74399999996,
      "d": 999.5054999999993,
      "v": 64
    },
    {
      "midi": 57,
      "hit": false,
      "t": 75296.081,
      "d": 666.3369999999995,
      "v": 64
    },
    {
      "midi": 77,
      "hit": false,
      "t": 75629.24949999996,
      "d": 333.16849999999977,
      "v": 64
    },
    {
      "midi": 76,
      "hit": false,
      "t": 75962.41799999996,
      "d": 333.16849999999977,
      "v": 64
    },
    {
      "midi": 62,
      "hit": false,
      "t": 75962.41799999998,
      "d": 1999.0109999999986,
      "v": 64
    },
    {
      "midi": 50,
      "hit": false,
      "t": 75962.41799999998,
      "d": 1999.0109999999986,
      "v": 64
    },
    {
      "midi": 74,
      "hit": false,
      "t": 76295.58649999996,
      "d": 333.16849999999977,
      "v": 64
    },
    {
      "midi": 74,
      "hit": false,
      "t": 76628.75499999996,
      "d": 1332.673999999999,
      "v": 50
    },
    {
      "midi": 69,
      "hit": false,
      "t": 76628.75499999996,
      "d": 1332.673999999999,
      "v": 50
    },
    {
      "midi": 65,
      "hit": false,
      "t": 76628.75499999996,
      "d": 1332.673999999999,
      "v": 50
    },
    {
      "midi": 77,
      "hit": false,
      "t": 77961.42899999996,
      "d": 666.3369999999995,
      "v": 64
    },
    {
      "midi": 50,
      "hit": false,
      "t": 77961.42899999999,
      "d": 1999.0109999999986,
      "v": 40
    },
    {
      "midi": 62,
      "hit": false,
      "t": 77961.42899999999,
      "d": 1999.0109999999986,
      "v": 40
    },
    {
      "midi": 50,
      "hit": false,
      "t": 77961.429,
      "d": 1860.1907916666678,
      "v": 64
    },
    {
      "midi": 89,
      "hit": false,
      "t": 77961.429,
      "d": 1999.0109999999986,
      "v": 48
    },
    {
      "midi": 81,
      "hit": false,
      "t": 77961.429,
      "d": 1999.0109999999986,
      "v": 48
    },
    {
      "midi": 45,
      "hit": false,
      "t": 78294.5975,
      "d": 638.5729583333305,
      "v": 64
    },
    {
      "midi": 77,
      "hit": false,
      "t": 78627.76599999996,
      "d": 999.5054999999993,
      "v": 64
    },
    {
      "midi": 57,
      "hit": false,
      "t": 78627.766,
      "d": 1249.3818750000064,
      "v": 64
    },
    {
      "midi": 45,
      "hit": false,
      "t": 78960.9345,
      "d": 1055.033583333352,
      "v": 64
    },
    {
      "midi": 53,
      "hit": false,
      "t": 79294.103,
      "d": 666.3370000000141,
      "v": 64
    },
    {
      "midi": 79,
      "hit": false,
      "t": 79627.27149999996,
      "d": 333.16849999999977,
      "v": 64
    },
    {
      "midi": 76,
      "hit": false,
      "t": 79960.43999999996,
      "d": 1999.0109999999986,
      "v": 64
    },
    {
      "midi": 48,
      "hit": false,
      "t": 79960.43999999997,
      "d": 1999.0109999999986,
      "v": 64
    },
    {
      "midi": 48,
      "hit": false,
      "t": 79960.43999999999,
      "d": 1999.0109999999986,
      "v": 40
    },
    {
      "midi": 64,
      "hit": false,
      "t": 79960.43999999999,
      "d": 1999.0109999999986,
      "v": 40
    },
    {
      "midi": 88,
      "hit": false,
      "t": 79960.44,
      "d": 1999.0109999999986,
      "v": 43
    },
    {
      "midi": 79,
      "hit": false,
      "t": 79960.44,
      "d": 1999.0109999999986,
      "v": 43
    },
    {
      "midi": 55,
      "hit": false,
      "t": 79960.44000000002,
      "d": 1999.0109999999986,
      "v": 43
    },
    {
      "midi": 76,
      "hit": false,
      "t": 81959.45099999996,
      "d": 666.3369999999995,
      "v": 53
    },
    {
      "midi": 49,
      "hit": false,
      "t": 81959.45099999997,
      "d": 1999.0109999999986,
      "v": 43
    },
    {
      "midi": 64,
      "hit": false,
      "t": 81959.45099999999,
      "d": 1671.3953083333327,
      "v": 40
    },
    {
      "midi": 49,
      "hit": false,
      "t": 81959.45099999999,
      "d": 1999.0109999999986,
      "v": 40
    },
    {
      "midi": 88,
      "hit": false,
      "t": 81959.451,
      "d": 666.3369999999995,
      "v": 36
    },
    {
      "midi": 79,
      "hit": false,
      "t": 81959.451,
      "d": 666.3369999999995,
      "v": 36
    },
    {
      "midi": 57,
      "hit": false,
      "t": 81959.45100000002,
      "d": 1332.673999999999,
      "v": 64
    },
    {
      "midi": 76,
      "hit": false,
      "t": 82625.78799999996,
      "d": 999.5054999999993,
      "v": 64
    },
    {
      "midi": 88,
      "hit": false,
      "t": 82625.788,
      "d": 666.3369999999995,
      "v": 28
    },
    {
      "midi": 79,
      "hit": false,
      "t": 82625.788,
      "d": 666.3369999999995,
      "v": 28
    },
    {
      "midi": 88,
      "hit": false,
      "t": 83292.125,
      "d": 666.3369999999995,
      "v": 24
    },
    {
      "midi": 79,
      "hit": false,
      "t": 83292.125,
      "d": 666.3369999999995,
      "v": 24
    },
    {
      "midi": 57,
      "hit": false,
      "t": 83292.12500000001,
      "d": 666.3369999999995,
      "v": 64
    },
    {
      "midi": 77,
      "hit": false,
      "t": 83625.29349999996,
      "d": 333.16849999999977,
      "v": 64
    },
    {
      "midi": 65,
      "hit": false,
      "t": 83625.29349999999,
      "d": 333.16849999999977,
      "v": 40
    },
    {
      "midi": 76,
      "hit": false,
      "t": 83958.46199999996,
      "d": 333.16849999999977,
      "v": 64
    },
    {
      "midi": 62,
      "hit": false,
      "t": 83958.46199999997,
      "d": 1999.0109999999986,
      "v": 64
    },
    {
      "midi": 50,
      "hit": false,
      "t": 83958.46199999997,
      "d": 1999.0109999999986,
      "v": 64
    },
    {
      "midi": 64,
      "hit": false,
      "t": 83958.46199999998,
      "d": 333.16849999999977,
      "v": 40
    },
    {
      "midi": 50,
      "hit": false,
      "t": 83958.46199999998,
      "d": 1999.0109999999986,
      "v": 40
    },
    {
      "midi": 88,
      "hit": false,
      "t": 83958.462,
      "d": 666.3369999999995,
      "v": 18
    },
    {
      "midi": 79,
      "hit": false,
      "t": 83958.462,
      "d": 666.3369999999995,
      "v": 18
    },
    {
      "midi": 62,
      "hit": false,
      "t": 84269.41926666665,
      "d": 333.16849999999977,
      "v": 40
    },
    {
      "midi": 74,
      "hit": false,
      "t": 84291.63049999996,
      "d": 333.16849999999977,
      "v": 64
    },
    {
      "midi": 74,
      "hit": false,
      "t": 84624.79899999996,
      "d": 1332.673999999999,
      "v": 50
    },
    {
      "midi": 69,
      "hit": false,
      "t": 84624.79899999996,
      "d": 1332.673999999999,
      "v": 50
    },
    {
      "midi": 65,
      "hit": false,
      "t": 84624.79899999996,
      "d": 1332.673999999999,
      "v": 50
    },
    {
      "midi": 62,
      "hit": false,
      "t": 84624.79899999998,
      "d": 1332.673999999999,
      "v": 40
    },
    {
      "midi": 88,
      "hit": false,
      "t": 84624.799,
      "d": 1332.673999999999,
      "v": 18
    },
    {
      "midi": 79,
      "hit": false,
      "t": 84624.799,
      "d": 1332.673999999999,
      "v": 18
    },
    {
      "midi": 74,
      "hit": false,
      "t": 85957.47299999995,
      "d": 666.3369999999995,
      "v": 40
    },
    {
      "midi": 65,
      "hit": false,
      "t": 85957.47299999997,
      "d": 666.3369999999995,
      "v": 24
    },
    {
      "midi": 58,
      "hit": false,
      "t": 85957.47299999997,
      "d": 666.3369999999995,
      "v": 24
    },
    {
      "midi": 55,
      "hit": false,
      "t": 85957.47299999997,
      "d": 666.3369999999995,
      "v": 24
    },
    {
      "midi": 50,
      "hit": false,
      "t": 85957.47299999997,
      "d": 666.3369999999995,
      "v": 24
    },
    {
      "midi": 43,
      "hit": false,
      "t": 85957.47299999998,
      "d": 1999.0109999999986,
      "v": 40
    },
    {
      "midi": 86,
      "hit": false,
      "t": 85957.473,
      "d": 1999.0109999999986,
      "v": 22
    },
    {
      "midi": 77,
      "hit": false,
      "t": 85957.473,
      "d": 1999.0109999999986,
      "v": 22
    },
    {
      "midi": 43,
      "hit": false,
      "t": 85957.47300000001,
      "d": 666.3369999999995,
      "v": 40
    },
    {
      "midi": 74,
      "hit": false,
      "t": 86623.80999999995,
      "d": 1332.673999999999,
      "v": 40
    },
    {
      "midi": 65,
      "hit": false,
      "t": 86623.80999999997,
      "d": 1332.673999999999,
      "v": 24
    },
    {
      "midi": 58,
      "hit": false,
      "t": 86623.80999999997,
      "d": 1332.673999999999,
      "v": 24
    },
    {
      "midi": 55,
      "hit": false,
      "t": 86623.80999999997,
      "d": 1332.673999999999,
      "v": 24
    },
    {
      "midi": 50,
      "hit": false,
      "t": 86623.80999999997,
      "d": 1332.673999999999,
      "v": 24
    },
    {
      "midi": 43,
      "hit": false,
      "t": 86623.81000000001,
      "d": 1332.673999999999,
      "v": 40
    },
    {
      "midi": 74,
      "hit": false,
      "t": 87956.48399999995,
      "d": 666.3369999999995,
      "v": 40
    },
    {
      "midi": 65,
      "hit": false,
      "t": 87956.48399999997,
      "d": 666.3369999999995,
      "v": 24
    },
    {
      "midi": 58,
      "hit": false,
      "t": 87956.48399999997,
      "d": 666.3369999999995,
      "v": 24
    },
    {
      "midi": 50,
      "hit": false,
      "t": 87956.48399999997,
      "d": 666.3369999999995,
      "v": 24
    },
    {
      "midi": 45,
      "hit": false,
      "t": 87956.48399999998,
      "d": 1999.0109999999986,
      "v": 40
    },
    {
      "midi": 86,
      "hit": false,
      "t": 87956.484,
      "d": 1999.0109999999986,
      "v": 22
    },
    {
      "midi": 77,
      "hit": false,
      "t": 87956.484,
      "d": 1999.0109999999986,
      "v": 22
    },
    {
      "midi": 38,
      "hit": false,
      "t": 87956.48400000001,
      "d": 666.3369999999995,
      "v": 40
    },
    {
      "midi": 74,
      "hit": false,
      "t": 88622.82099999995,
      "d": 1332.673999999999,
      "v": 40
    },
    {
      "midi": 57,
      "hit": false,
      "t": 88622.82099999997,
      "d": 1332.673999999999,
      "v": 24
    },
    {
      "midi": 65,
      "hit": false,
      "t": 88622.82099999997,
      "d": 1332.673999999999,
      "v": 24
    },
    {
      "midi": 50,
      "hit": false,
      "t": 88622.82099999997,
      "d": 1332.673999999999,
      "v": 24
    },
    {
      "midi": 38,
      "hit": false,
      "t": 88622.82100000001,
      "d": 1332.673999999999,
      "v": 40
    },
    {
      "midi": 74,
      "hit": false,
      "t": 89955.49499999995,
      "d": 666.3369999999995,
      "v": 40
    },
    {
      "midi": 55,
      "hit": false,
      "t": 89955.49499999997,
      "d": 666.3369999999995,
      "v": 24
    },
    {
      "midi": 64,
      "hit": false,
      "t": 89955.49499999997,
      "d": 666.3369999999995,
      "v": 24
    },
    {
      "midi": 50,
      "hit": false,
      "t": 89955.49499999997,
      "d": 666.3369999999995,
      "v": 24
    },
    {
      "midi": 45,
      "hit": false,
      "t": 89955.49499999998,
      "d": 1999.0109999999986,
      "v": 40
    },
    {
      "midi": 86,
      "hit": false,
      "t": 89955.495,
      "d": 1332.673999999999,
      "v": 22
    },
    {
      "midi": 77,
      "hit": false,
      "t": 89955.495,
      "d": 1332.673999999999,
      "v": 22
    },
    {
      "midi": 45,
      "hit": false,
      "t": 89955.49500000001,
      "d": 666.3369999999995,
      "v": 40
    },
    {
      "midi": 74,
      "hit": false,
      "t": 90621.83199999995,
      "d": 666.3369999999995,
      "v": 40
    },
    {
      "midi": 65,
      "hit": false,
      "t": 90621.83199999997,
      "d": 666.3369999999995,
      "v": 24
    },
    {
      "midi": 62,
      "hit": false,
      "t": 90621.83199999997,
      "d": 666.3369999999995,
      "v": 24
    },
    {
      "midi": 55,
      "hit": false,
      "t": 90621.83199999997,
      "d": 666.3369999999995,
      "v": 24
    },
    {
      "midi": 50,
      "hit": false,
      "t": 90621.83199999997,
      "d": 666.3369999999995,
      "v": 24
    },
    {
      "midi": 45,
      "hit": false,
      "t": 90621.83200000001,
      "d": 666.3369999999995,
      "v": 40
    },
    {
      "midi": 73,
      "hit": false,
      "t": 91288.16899999995,
      "d": 666.3369999999995,
      "v": 40
    },
    {
      "midi": 61,
      "hit": false,
      "t": 91288.16899999997,
      "d": 666.3369999999995,
      "v": 24
    },
    {
      "midi": 57,
      "hit": false,
      "t": 91288.16899999997,
      "d": 666.3369999999995,
      "v": 24
    },
    {
      "midi": 67,
      "hit": false,
      "t": 91288.16899999997,
      "d": 666.3369999999995,
      "v": 24
    },
    {
      "midi": 45,
      "hit": false,
      "t": 91288.16899999997,
      "d": 666.3369999999995,
      "v": 24
    },
    {
      "midi": 85,
      "hit": false,
      "t": 91288.169,
      "d": 666.3369999999995,
      "v": 22
    },
    {
      "midi": 79,
      "hit": false,
      "t": 91288.169,
      "d": 666.3369999999995,
      "v": 22
    },
    {
      "midi": 74,
      "hit": false,
      "t": 91954.50599999995,
      "d": 3081.808625000005,
      "v": 40
    },
    {
      "midi": 50,
      "hit": false,
      "t": 91954.50599999998,
      "d": 5080.8196249999455,
      "v": 40
    },
    {
      "midi": 77,
      "hit": false,
      "t": 91954.506,
      "d": 5080.819625000018,
      "v": 22
    },
    {
      "midi": 86,
      "hit": false,
      "t": 91954.506,
      "d": 5080.819625000018,
      "v": 22
    },
    {
      "midi": 38,
      "hit": false,
      "t": 91954.50600000001,
      "d": 5080.819625000004,
      "v": 40
    },
    {
      "midi": 53,
      "hit": false,
      "t": 92121.09024999996,
      "d": 166.58424999999988,
      "v": 24
    },
    {
      "midi": 57,
      "hit": false,
      "t": 92287.67449999996,
      "d": 166.58424999999988,
      "v": 24
    },
    {
      "midi": 62,
      "hit": false,
      "t": 92454.25874999996,
      "d": 138.8202083333308,
      "v": 24
    },
    {
      "midi": 65,
      "hit": false,
      "t": 92593.0789583333,
      "d": 138.8202083333308,
      "v": 24
    },
    {
      "midi": 69,
      "hit": false,
      "t": 92731.89916666663,
      "d": 138.8202083333308,
      "v": 24
    },
    {
      "midi": 74,
      "hit": false,
      "t": 92870.71937499996,
      "d": 138.8202083333308,
      "v": 24
    },
    {
      "midi": 77,
      "hit": false,
      "t": 93009.53958333329,
      "d": 138.8202083333308,
      "v": 24
    },
    {
      "midi": 81,
      "hit": false,
      "t": 93148.35979166662,
      "d": 138.8202083333308,
      "v": 24
    },
    {
      "midi": 86,
      "hit": false,
      "t": 93287.17999999995,
      "d": 83.29212500000722,
      "v": 56
    }
  ]
}