{
  "jsonPath": "Animes/Sailor Moon MIDI Collection/in-others-dreams.json",
  "path": "Animes\\Sailor Moon MIDI Collection\\In Others Dreams.mid",
  "name": "In Others Dreams",
  "difficulty": "Advanced",
  "bpm": 120,
  "notes": [
    {
      "midi": 41,
      "hit": false,
      "t": 2000,
      "d": 436.99108333333334,
      "v": 104
    },
    {
      "midi": 48,
      "hit": false,
      "t": 2487.804,
      "d": 218.49554166666667,
      "v": 104
    },
    {
      "midi": 69,
      "hit": false,
      "t": 2487.804,
      "d": 436.99108333333334,
      "v": 104
    },
    {
      "midi": 41,
      "hit": false,
      "t": 2731.706,
      "d": 218.49554166666667,
      "v": 104
    },
    {
      "midi": 67,
      "hit": false,
      "t": 2975.608,
      "d": 106.7071249999999,
      "v": 104
    },
    {
      "midi": 45,
      "hit": false,
      "t": 2975.608,
      "d": 436.99108333333334,
      "v": 104
    },
    {
      "midi": 65,
      "hit": false,
      "t": 3097.559,
      "d": 325.2026666666666,
      "v": 104
    },
    {
      "midi": 53,
      "hit": false,
      "t": 3463.4120000000003,
      "d": 218.49554166666667,
      "v": 104
    },
    {
      "midi": 45,
      "hit": false,
      "t": 3707.3140000000003,
      "d": 218.49554166666667,
      "v": 104
    },
    {
      "midi": 62,
      "hit": false,
      "t": 3707.3140000000003,
      "d": 436.99108333333334,
      "v": 104
    },
    {
      "midi": 46,
      "hit": false,
      "t": 3951.2160000000003,
      "d": 436.99108333333334,
      "v": 104
    },
    {
      "midi": 62,
      "hit": false,
      "t": 4195.118,
      "d": 218.4955416666662,
      "v": 104
    },
    {
      "midi": 53,
      "hit": false,
      "t": 4439.0199999999995,
      "d": 218.4955416666662,
      "v": 104
    },
    {
      "midi": 65,
      "hit": false,
      "t": 4439.0199999999995,
      "d": 218.4955416666662,
      "v": 104
    },
    {
      "midi": 46,
      "hit": false,
      "t": 4682.921999999999,
      "d": 218.49554166666712,
      "v": 104
    },
    {
      "midi": 70,
      "hit": false,
      "t": 4682.921999999999,
      "d": 218.49554166666712,
      "v": 104
    },
    {
      "midi": 48,
      "hit": false,
      "t": 4926.823999999999,
      "d": 436.99108333333334,
      "v": 104
    },
    {
      "midi": 67,
      "hit": false,
      "t": 4926.823999999999,
      "d": 436.99108333333334,
      "v": 104
    },
    {
      "midi": 64,
      "hit": false,
      "t": 4926.823999999999,
      "d": 436.99108333333334,
      "v": 104
    },
    {
      "midi": 48,
      "hit": false,
      "t": 5414.627999999999,
      "d": 436.99108333333334,
      "v": 104
    },
    {
      "midi": 65,
      "hit": false,
      "t": 5414.627999999999,
      "d": 436.99108333333334,
      "v": 104
    },
    {
      "midi": 62,
      "hit": false,
      "t": 5414.627999999999,
      "d": 436.99108333333334,
      "v": 104
    },
    {
      "midi": 41,
      "hit": false,
      "t": 5902.431999999999,
      "d": 436.99108333333334,
      "v": 104
    },
    {
      "midi": 48,
      "hit": false,
      "t": 6390.235999999999,
      "d": 218.49554166666712,
      "v": 104
    },
    {
      "midi": 69,
      "hit": false,
      "t": 6390.235999999999,
      "d": 436.99108333333334,
      "v": 104
    },
    {
      "midi": 41,
      "hit": false,
      "t": 6634.137999999999,
      "d": 218.4955416666662,
      "v": 104
    },
    {
      "midi": 67,
      "hit": false,
      "t": 6878.039999999998,
      "d": 106.7071249999999,
      "v": 104
    },
    {
      "midi": 45,
      "hit": false,
      "t": 6878.039999999998,
      "d": 436.99108333333334,
      "v": 104
    },
    {
      "midi": 65,
      "hit": false,
      "t": 6999.990999999998,
      "d": 325.202666666667,
      "v": 104
    },
    {
      "midi": 53,
      "hit": false,
      "t": 7365.843999999998,
      "d": 218.4955416666662,
      "v": 104
    },
    {
      "midi": 45,
      "hit": false,
      "t": 7609.745999999997,
      "d": 218.49554166666712,
      "v": 104
    },
    {
      "midi": 70,
      "hit": false,
      "t": 7609.745999999997,
      "d": 436.99108333333334,
      "v": 104
    },
    {
      "midi": 46,
      "hit": false,
      "t": 7853.647999999997,
      "d": 436.99108333333425,
      "v": 104
    },
    {
      "midi": 70,
      "hit": false,
      "t": 8097.549999999997,
      "d": 218.49554166666712,
      "v": 104
    },
    {
      "midi": 53,
      "hit": false,
      "t": 8341.451999999997,
      "d": 218.49554166666712,
      "v": 104
    },
    {
      "midi": 69,
      "hit": false,
      "t": 8341.451999999997,
      "d": 218.49554166666712,
      "v": 104
    },
    {
      "midi": 46,
      "hit": false,
      "t": 8585.353999999998,
      "d": 218.49554166666712,
      "v": 104
    },
    {
      "midi": 67,
      "hit": false,
      "t": 8585.353999999998,
      "d": 218.49554166666712,
      "v": 104
    },
    {
      "midi": 48,
      "hit": false,
      "t": 8829.255999999998,
      "d": 436.99108333333425,
      "v": 104
    },
    {
      "midi": 65,
      "hit": false,
      "t": 8829.255999999998,
      "d": 436.99108333333425,
      "v": 104
    },
    {
      "midi": 62,
      "hit": false,
      "t": 8829.255999999998,
      "d": 436.99108333333425,
      "v": 104
    },
    {
      "midi": 67,
      "hit": false,
      "t": 9317.059999999998,
      "d": 218.49554166666712,
      "v": 104
    },
    {
      "midi": 48,
      "hit": false,
      "t": 9317.059999999998,
      "d": 436.99108333333425,
      "v": 104
    },
    {
      "midi": 65,
      "hit": false,
      "t": 9560.961999999998,
      "d": 218.49554166666712,
      "v": 104
    },
    {
      "midi": 41,
      "hit": false,
      "t": 9804.863999999998,
      "d": 436.99108333333425,
      "v": 104
    },
    {
      "midi": 48,
      "hit": false,
      "t": 10292.667999999998,
      "d": 218.49554166666712,
      "v": 104
    },
    {
      "midi": 69,
      "hit": false,
      "t": 10292.667999999998,
      "d": 436.99108333333425,
      "v": 104
    },
    {
      "midi": 41,
      "hit": false,
      "t": 10536.569999999998,
      "d": 218.49554166666712,
      "v": 104
    },
    {
      "midi": 67,
      "hit": false,
      "t": 10780.471999999998,
      "d": 106.70712500000081,
      "v": 104
    },
    {
      "midi": 45,
      "hit": false,
      "t": 10780.471999999998,
      "d": 436.99108333333425,
      "v": 104
    },
    {
      "midi": 65,
      "hit": false,
      "t": 10902.422999999999,
      "d": 325.2026666666661,
      "v": 104
    },
    {
      "midi": 53,
      "hit": false,
      "t": 11268.275999999998,
      "d": 218.49554166666712,
      "v": 104
    },
    {
      "midi": 45,
      "hit": false,
      "t": 11512.177999999998,
      "d": 218.49554166666712,
      "v": 104
    },
    {
      "midi": 62,
      "hit": false,
      "t": 11512.177999999998,
      "d": 436.99108333333425,
      "v": 104
    },
    {
      "midi": 46,
      "hit": false,
      "t": 11756.079999999998,
      "d": 436.99108333333425,
      "v": 104
    },
    {
      "midi": 62,
      "hit": false,
      "t": 11999.981999999998,
      "d": 218.49554166666712,
      "v": 104
    },
    {
      "midi": 53,
      "hit": false,
      "t": 12243.883999999998,
      "d": 218.49554166666712,
      "v": 104
    },
    {
      "midi": 65,
      "hit": false,
      "t": 12243.883999999998,
      "d": 218.49554166666712,
      "v": 104
    },
    {
      "midi": 46,
      "hit": false,
      "t": 12487.785999999998,
      "d": 218.49554166666712,
      "v": 104
    },
    {
      "midi": 70,
      "hit": false,
      "t": 12487.785999999998,
      "d": 218.49554166666712,
      "v": 104
    },
    {
      "midi": 48,
      "hit": false,
      "t": 12731.687999999998,
      "d": 436.99108333333425,
      "v": 104
    },
    {
      "midi": 67,
      "hit": false,
      "t": 12731.687999999998,
      "d": 436.99108333333425,
      "v": 104
    },
    {
      "midi": 64,
      "hit": false,
      "t": 12731.687999999998,
      "d": 436.99108333333425,
      "v": 104
    },
    {
      "midi": 48,
      "hit": false,
      "t": 13219.491999999998,
      "d": 436.99108333333425,
      "v": 104
    },
    {
      "midi": 65,
      "hit": false,
      "t": 13219.491999999998,
      "d": 436.99108333333425,
      "v": 104
    },
    {
      "midi": 62,
      "hit": false,
      "t": 13219.491999999998,
      "d": 436.99108333333425,
      "v": 104
    },
    {
      "midi": 68,
      "hit": false,
      "t": 13707.295999999998,
      "d": 218.49554166666712,
      "v": 104
    },
    {
      "midi": 56,
      "hit": false,
      "t": 13707.295999999998,
      "d": 655.4866249999995,
      "v": 104
    },
    {
      "midi": 53,
      "hit": false,
      "t": 13707.295999999998,
      "d": 655.4866249999995,
      "v": 104
    },
    {
      "midi": 49,
      "hit": false,
      "t": 13707.295999999998,
      "d": 655.4866249999995,
      "v": 104
    },
    {
      "midi": 67,
      "hit": false,
      "t": 13951.197999999999,
      "d": 218.49554166666712,
      "v": 104
    },
    {
      "midi": 65,
      "hit": false,
      "t": 14195.099999999999,
      "d": 218.4955416666653,
      "v": 104
    },
    {
      "midi": 63,
      "hit": false,
      "t": 14439.001999999997,
      "d": 436.99108333333425,
      "v": 104
    },
    {
      "midi": 51,
      "hit": false,
      "t": 14439.001999999997,
      "d": 873.9821666666667,
      "v": 104
    },
    {
      "midi": 48,
      "hit": false,
      "t": 14439.001999999997,
      "d": 873.9821666666667,
      "v": 104
    },
    {
      "midi": 44,
      "hit": false,
      "t": 14439.001999999997,
      "d": 873.9821666666667,
      "v": 104
    },
    {
      "midi": 61,
      "hit": false,
      "t": 14926.805999999997,
      "d": 218.49554166666712,
      "v": 104
    },
    {
      "midi": 60,
      "hit": false,
      "t": 15170.707999999997,
      "d": 218.49554166666712,
      "v": 104
    },
    {
      "midi": 58,
      "hit": false,
      "t": 15414.609999999997,
      "d": 1534.5500833333317,
      "v": 104
    },
    {
      "midi": 55,
      "hit": false,
      "t": 15414.609999999997,
      "d": 1534.5500833333317,
      "v": 104
    },
    {
      "midi": 51,
      "hit": false,
      "t": 15414.609999999997,
      "d": 1534.5500833333317,
      "v": 104
    },
    {
      "midi": 60,
      "hit": false,
      "t": 17121.923999999995,
      "d": 436.99108333333425,
      "v": 104
    },
    {
      "midi": 48,
      "hit": false,
      "t": 17121.923999999995,
      "d": 436.99108333333425,
      "v": 104
    },
    {
      "midi": 41,
      "hit": false,
      "t": 17609.727999999996,
      "d": 436.99108333333425,
      "v": 104
    },
    {
      "midi": 69,
      "hit": false,
      "t": 17609.727999999996,
      "d": 436.99108333333425,
      "v": 104
    },
    {
      "midi": 48,
      "hit": false,
      "t": 18097.531999999996,
      "d": 218.49554166666712,
      "v": 104
    },
    {
      "midi": 69,
      "hit": false,
      "t": 18097.531999999996,
      "d": 218.49554166666712,
      "v": 104
    },
    {
      "midi": 41,
      "hit": false,
      "t": 18341.433999999997,
      "d": 218.49554166666712,
      "v": 104
    },
    {
      "midi": 69,
      "hit": false,
      "t": 18341.433999999997,
      "d": 218.49554166666712,
      "v": 104
    },
    {
      "midi": 45,
      "hit": false,
      "t": 18585.336,
      "d": 436.99108333333425,
      "v": 104
    },
    {
      "midi": 65,
      "hit": false,
      "t": 18585.336,
      "d": 436.99108333333425,
      "v": 104
    },
    {
      "midi": 53,
      "hit": false,
      "t": 19073.14,
      "d": 218.49554166666712,
      "v": 104
    },
    {
      "midi": 45,
      "hit": false,
      "t": 19317.042,
      "d": 218.49554166666712,
      "v": 104
    },
    {
      "midi": 65,
      "hit": false,
      "t": 19317.042,
      "d": 436.99108333333425,
      "v": 104
    },
    {
      "midi": 46,
      "hit": false,
      "t": 19560.944000000003,
      "d": 436.9910833333306,
      "v": 104
    },
    {
      "midi": 65,
      "hit": false,
      "t": 19804.846,
      "d": 218.49554166666712,
      "v": 104
    },
    {
      "midi": 53,
      "hit": false,
      "t": 20048.748000000003,
      "d": 218.49554166666712,
      "v": 104
    },
    {
      "midi": 67,
      "hit": false,
      "t": 20048.748000000003,
      "d": 218.49554166666712,
      "v": 104
    },
    {
      "midi": 46,
      "hit": false,
      "t": 20292.650000000005,
      "d": 218.49554166666712,
      "v": 104
    },
    {
      "midi": 65,
      "hit": false,
      "t": 20292.650000000005,
      "d": 218.49554166666712,
      "v": 104
    },
    {
      "midi": 69,
      "hit": false,
      "t": 20536.552000000007,
      "d": 218.49554166666712,
      "v": 104
    },
    {
      "midi": 48,
      "hit": false,
      "t": 20536.552000000007,
      "d": 436.99108333333425,
      "v": 104
    },
    {
      "midi": 70,
      "hit": false,
      "t": 20780.45400000001,
      "d": 218.49554166666712,
      "v": 104
    },
    {
      "midi": 69,
      "hit": false,
      "t": 21024.35600000001,
      "d": 218.49554166666712,
      "v": 104
    },
    {
      "midi": 49,
      "hit": false,
      "t": 21024.35600000001,
      "d": 436.99108333333425,
      "v": 104
    },
    {
      "midi": 67,
      "hit": false,
      "t": 21268.258000000013,
      "d": 218.49554166666712,
      "v": 104
    },
    {
      "midi": 69,
      "hit": false,
      "t": 21512.160000000014,
      "d": 218.49554166666712,
      "v": 104
    },
    {
      "midi": 50,
      "hit": false,
      "t": 21512.160000000014,
      "d": 436.99108333333425,
      "v": 104
    },
    {
      "midi": 67,
      "hit": false,
      "t": 21756.062000000016,
      "d": 218.49554166666712,
      "v": 104
    },
    {
      "midi": 57,
      "hit": false,
      "t": 21999.964000000018,
      "d": 218.49554166666712,
      "v": 104
    },
    {
      "midi": 65,
      "hit": false,
      "t": 21999.964000000018,
      "d": 218.49554166666712,
      "v": 104
    },
    {
      "midi": 50,
      "hit": false,
      "t": 22243.86600000002,
      "d": 218.49554166666712,
      "v": 104
    },
    {
      "midi": 67,
      "hit": false,
      "t": 22243.86600000002,
      "d": 655.4866250000014,
      "v": 104
    },
    {
      "midi": 45,
      "hit": false,
      "t": 22487.768000000022,
      "d": 436.99108333333425,
      "v": 104
    },
    {
      "midi": 52,
      "hit": false,
      "t": 22975.572000000022,
      "d": 218.49554166666712,
      "v": 104
    },
    {
      "midi": 45,
      "hit": false,
      "t": 23219.474000000024,
      "d": 218.49554166666712,
      "v": 104
    },
    {
      "midi": 46,
      "hit": false,
      "t": 23463.376000000026,
      "d": 218.49554166666712,
      "v": 104
    },
    {
      "midi": 69,
      "hit": false,
      "t": 23463.376000000026,
      "d": 218.49554166666712,
      "v": 104
    },
    {
      "midi": 45,
      "hit": false,
      "t": 23707.278000000028,
      "d": 218.49554166666712,
      "v": 104
    },
    {
      "midi": 70,
      "hit": false,
      "t": 23707.278000000028,
      "d": 218.49554166666712,
      "v": 104
    },
    {
      "midi": 43,
      "hit": false,
      "t": 23951.18000000003,
      "d": 218.49554166666712,
      "v": 104
    },
    {
      "midi": 69,
      "hit": false,
      "t": 23951.18000000003,
      "d": 218.49554166666712,
      "v": 104
    },
    {
      "midi": 67,
      "hit": false,
      "t": 24195.08200000003,
      "d": 655.4866249999977,
      "v": 104
    },
    {
      "midi": 48,
      "hit": false,
      "t": 24438.98400000003,
      "d": 436.99108333333425,
      "v": 104
    },
    {
      "midi": 48,
      "hit": false,
      "t": 24926.78800000003,
      "d": 436.99108333333425,
      "v": 104
    },
    {
      "midi": 41,
      "hit": false,
      "t": 25414.59200000003,
      "d": 436.99108333333425,
      "v": 104
    },
    {
      "midi": 67,
      "hit": false,
      "t": 25414.59200000003,
      "d": 436.99108333333425,
      "v": 104
    },
    {
      "midi": 48,
      "hit": false,
      "t": 25902.39600000003,
      "d": 218.49554166666712,
      "v": 104
    },
    {
      "midi": 69,
      "hit": false,
      "t": 25902.39600000003,
      "d": 218.49554166666712,
      "v": 104
    },
    {
      "midi": 41,
      "hit": false,
      "t": 26146.29800000003,
      "d": 218.49554166666712,
      "v": 104
    },
    {
      "midi": 69,
      "hit": false,
      "t": 26146.29800000003,
      "d": 218.49554166666712,
      "v": 104
    },
    {
      "midi": 45,
      "hit": false,
      "t": 26390.200000000033,
      "d": 436.99108333333425,
      "v": 104
    },
    {
      "midi": 65,
      "hit": false,
      "t": 26390.200000000033,
      "d": 436.99108333333425,
      "v": 104
    },
    {
      "midi": 53,
      "hit": false,
      "t": 26878.004000000034,
      "d": 218.49554166666712,
      "v": 104
    },
    {
      "midi": 45,
      "hit": false,
      "t": 27121.906000000035,
      "d": 218.49554166666712,
      "v": 104
    },
    {
      "midi": 65,
      "hit": false,
      "t": 27121.906000000035,
      "d": 436.99108333333425,
      "v": 104
    },
    {
      "midi": 46,
      "hit": false,
      "t": 27365.808000000037,
      "d": 436.9910833333306,
      "v": 104
    },
    {
      "midi": 65,
      "hit": false,
      "t": 27609.710000000036,
      "d": 218.49554166666712,
      "v": 104
    },
    {
      "midi": 53,
      "hit": false,
      "t": 27853.612000000037,
      "d": 218.49554166666712,
      "v": 104
    },
    {
      "midi": 67,
      "hit": false,
      "t": 27853.612000000037,
      "d": 218.49554166666712,
      "v": 104
    },
    {
      "midi": 46,
      "hit": false,
      "t": 28097.51400000004,
      "d": 218.49554166666712,
      "v": 104
    },
    {
      "midi": 65,
      "hit": false,
      "t": 28097.51400000004,
      "d": 218.49554166666712,
      "v": 104
    },
    {
      "midi": 69,
      "hit": false,
      "t": 28341.41600000004,
      "d": 218.49554166666712,
      "v": 104
    },
    {
      "midi": 48,
      "hit": false,
      "t": 28341.41600000004,
      "d": 436.99108333333425,
      "v": 104
    },
    {
      "midi": 70,
      "hit": false,
      "t": 28585.318000000043,
      "d": 218.49554166666712,
      "v": 104
    },
    {
      "midi": 69,
      "hit": false,
      "t": 28829.220000000045,
      "d": 218.49554166666712,
      "v": 104
    },
    {
      "midi": 49,
      "hit": false,
      "t": 28829.220000000045,
      "d": 436.99108333333425,
      "v": 104
    },
    {
      "midi": 67,
      "hit": false,
      "t": 29073.122000000047,
      "d": 218.49554166666712,
      "v": 104
    },
    {
      "midi": 69,
      "hit": false,
      "t": 29317.02400000005,
      "d": 218.49554166666712,
      "v": 104
    },
    {
      "midi": 50,
      "hit": false,
      "t": 29317.02400000005,
      "d": 436.99108333333425,
      "v": 104
    },
    {
      "midi": 67,
      "hit": false,
      "t": 29560.92600000005,
      "d": 218.49554166666712,
      "v": 104
    },
    {
      "midi": 57,
      "hit": false,
      "t": 29804.828000000052,
      "d": 218.49554166666712,
      "v": 104
    },
    {
      "midi": 65,
      "hit": false,
      "t": 29804.828000000052,
      "d": 218.49554166666712,
      "v": 104
    },
    {
      "midi": 50,
      "hit": false,
      "t": 30048.730000000054,
      "d": 218.49554166666712,
      "v": 104
    },
    {
      "midi": 67,
      "hit": false,
      "t": 30048.730000000054,
      "d": 655.4866250000014,
      "v": 104
    },
    {
      "midi": 45,
      "hit": false,
      "t": 30292.632000000056,
      "d": 436.99108333333425,
      "v": 104
    },
    {
      "midi": 53,
      "hit": false,
      "t": 30780.436000000056,
      "d": 218.49554166666712,
      "v": 104
    },
    {
      "midi": 45,
      "hit": false,
      "t": 31024.338000000058,
      "d": 218.49554166666712,
      "v": 104
    },
    {
      "midi": 43,
      "hit": false,
      "t": 31268.24000000006,
      "d": 218.49554166666712,
      "v": 104
    },
    {
      "midi": 69,
      "hit": false,
      "t": 31268.24000000006,
      "d": 218.49554166666712,
      "v": 104
    },
    {
      "midi": 46,
      "hit": false,
      "t": 31512.14200000006,
      "d": 218.49554166666712,
      "v": 104
    },
    {
      "midi": 70,
      "hit": false,
      "t": 31512.14200000006,
      "d": 218.49554166666712,
      "v": 104
    },
    {
      "midi": 47,
      "hit": false,
      "t": 31756.044000000064,
      "d": 218.49554166666712,
      "v": 104
    },
    {
      "midi": 69,
      "hit": false,
      "t": 31756.044000000064,
      "d": 218.49554166666712,
      "v": 104
    },
    {
      "midi": 48,
      "hit": false,
      "t": 31999.946000000065,
      "d": 218.49554166666712,
      "v": 104
    },
    {
      "midi": 67,
      "hit": false,
      "t": 31999.946000000065,
      "d": 218.49554166666712,
      "v": 104
    },
    {
      "midi": 46,
      "hit": false,
      "t": 33219.456000000064,
      "d": 218.49554166666348,
      "v": 104
    },
    {
      "midi": 57,
      "hit": false,
      "t": 33463.35800000006,
      "d": 218.49554166666348,
      "v": 104
    },
    {
      "midi": 65,
      "hit": false,
      "t": 33463.35800000006,
      "d": 218.49554166666348,
      "v": 104
    },
    {
      "midi": 53,
      "hit": false,
      "t": 33707.26000000005,
      "d": 218.49554166666348,
      "v": 104
    },
    {
      "midi": 65,
      "hit": false,
      "t": 33707.26000000005,
      "d": 218.49554166666348,
      "v": 104
    },
    {
      "midi": 57,
      "hit": false,
      "t": 33951.16200000005,
      "d": 218.49554166666348,
      "v": 104
    },
    {
      "midi": 65,
      "hit": false,
      "t": 33951.16200000005,
      "d": 218.49554166666348,
      "v": 104
    },
    {
      "midi": 46,
      "hit": false,
      "t": 34195.06400000004,
      "d": 218.49554166666348,
      "v": 104
    },
    {
      "midi": 65,
      "hit": false,
      "t": 34195.06400000004,
      "d": 218.49554166666348,
      "v": 104
    },
    {
      "midi": 57,
      "hit": false,
      "t": 34438.96600000004,
      "d": 218.49554166666348,
      "v": 104
    },
    {
      "midi": 65,
      "hit": false,
      "t": 34438.96600000004,
      "d": 436.99108333332697,
      "v": 104
    },
    {
      "midi": 53,
      "hit": false,
      "t": 34682.86800000003,
      "d": 218.49554166666348,
      "v": 104
    },
    {
      "midi": 57,
      "hit": false,
      "t": 34926.770000000026,
      "d": 218.49554166666348,
      "v": 104
    },
    {
      "midi": 62,
      "hit": false,
      "t": 34926.770000000026,
      "d": 436.99108333332697,
      "v": 104
    },
    {
      "midi": 46,
      "hit": false,
      "t": 35170.67200000002,
      "d": 218.49554166666348,
      "v": 104
    },
    {
      "midi": 57,
      "hit": false,
      "t": 35414.574000000015,
      "d": 218.49554166666348,
      "v": 104
    },
    {
      "midi": 64,
      "hit": false,
      "t": 35414.574000000015,
      "d": 218.49554166666348,
      "v": 104
    },
    {
      "midi": 53,
      "hit": false,
      "t": 35658.47600000001,
      "d": 218.49554166666348,
      "v": 104
    },
    {
      "midi": 65,
      "hit": false,
      "t": 35658.47600000001,
      "d": 218.49554166666348,
      "v": 104
    },
    {
      "midi": 57,
      "hit": false,
      "t": 35902.378000000004,
      "d": 218.49554166666348,
      "v": 104
    },
    {
      "midi": 46,
      "hit": false,
      "t": 36146.28,
      "d": 218.49554166666348,
      "v": 104
    },
    {
      "midi": 57,
      "hit": false,
      "t": 36390.18199999999,
      "d": 218.49554166666348,
      "v": 104
    },
    {
      "midi": 53,
      "hit": false,
      "t": 36634.08399999999,
      "d": 218.49554166666348,
      "v": 104
    },
    {
      "midi": 57,
      "hit": false,
      "t": 36877.98599999998,
      "d": 218.49554166666348,
      "v": 104
    },
    {
      "midi": 45,
      "hit": false,
      "t": 37121.88799999998,
      "d": 218.49554166666348,
      "v": 104
    },
    {
      "midi": 55,
      "hit": false,
      "t": 37365.78999999997,
      "d": 218.49554166666348,
      "v": 104
    },
    {
      "midi": 64,
      "hit": false,
      "t": 37365.78999999997,
      "d": 218.49554166666348,
      "v": 104
    },
    {
      "midi": 52,
      "hit": false,
      "t": 37609.691999999966,
      "d": 218.49554166666348,
      "v": 104
    },
    {
      "midi": 64,
      "hit": false,
      "t": 37609.691999999966,
      "d": 218.49554166666348,
      "v": 104
    },
    {
      "midi": 55,
      "hit": false,
      "t": 37853.59399999996,
      "d": 218.49554166666348,
      "v": 104
    },
    {
      "midi": 64,
      "hit": false,
      "t": 37853.59399999996,
      "d": 218.49554166666348,
      "v": 104
    },
    {
      "midi": 45,
      "hit": false,
      "t": 38097.495999999956,
      "d": 218.49554166666348,
      "v": 104
    },
    {
      "midi": 64,
      "hit": false,
      "t": 38097.495999999956,
      "d": 218.49554166666348,
      "v": 104
    },
    {
      "midi": 55,
      "hit": false,
      "t": 38341.39799999995,
      "d": 218.49554166666348,
      "v": 104
    },
    {
      "midi": 64,
      "hit": false,
      "t": 38341.39799999995,
      "d": 436.99108333332697,
      "v": 104
    },
    {
      "midi": 52,
      "hit": false,
      "t": 38585.299999999945,
      "d": 218.49554166666348,
      "v": 104
    },
    {
      "midi": 55,
      "hit": false,
      "t": 38829.20199999994,
      "d": 218.49554166666348,
      "v": 104
    },
    {
      "midi": 67,
      "hit": false,
      "t": 38829.20199999994,
      "d": 436.99108333332697,
      "v": 104
    },
    {
      "midi": 45,
      "hit": false,
      "t": 39073.103999999934,
      "d": 218.49554166666348,
      "v": 104
    },
    {
      "midi": 55,
      "hit": false,
      "t": 39317.00599999993,
      "d": 218.49554166666348,
      "v": 104
    },
    {
      "midi": 64,
      "hit": false,
      "t": 39317.00599999993,
      "d": 436.99108333332697,
      "v": 104
    },
    {
      "midi": 52,
      "hit": false,
      "t": 39560.90799999992,
      "d": 218.49554166666348,
      "v": 104
    },
    {
      "midi": 55,
      "hit": false,
      "t": 39804.80999999992,
      "d": 218.49554166666348,
      "v": 104
    },
    {
      "midi": 60,
      "hit": false,
      "t": 39804.80999999992,
      "d": 218.49554166666348,
      "v": 104
    },
    {
      "midi": 45,
      "hit": false,
      "t": 40048.71199999991,
      "d": 218.49554166666348,
      "v": 104
    },
    {
      "midi": 55,
      "hit": false,
      "t": 40292.61399999991,
      "d": 218.49554166666348,
      "v": 104
    },
    {
      "midi": 52,
      "hit": false,
      "t": 40536.5159999999,
      "d": 218.49554166666348,
      "v": 104
    },
    {
      "midi": 55,
      "hit": false,
      "t": 40780.417999999896,
      "d": 218.49554166666348,
      "v": 104
    },
    {
      "midi": 43,
      "hit": false,
      "t": 41024.31999999989,
      "d": 218.49554166666348,
      "v": 104
    },
    {
      "midi": 53,
      "hit": false,
      "t": 41268.221999999885,
      "d": 218.49554166666348,
      "v": 104
    },
    {
      "midi": 62,
      "hit": false,
      "t": 41268.221999999885,
      "d": 218.49554166666348,
      "v": 104
    },
    {
      "midi": 50,
      "hit": false,
      "t": 41512.12399999988,
      "d": 218.49554166666348,
      "v": 104
    },
    {
      "midi": 62,
      "hit": false,
      "t": 41512.12399999988,
      "d": 218.49554166666348,
      "v": 104
    },
    {
      "midi": 53,
      "hit": false,
      "t": 41756.025999999874,
      "d": 218.49554166666348,
      "v": 104
    },
    {
      "midi": 62,
      "hit": false,
      "t": 41756.025999999874,
      "d": 218.49554166666348,
      "v": 104
    },
    {
      "midi": 43,
      "hit": false,
      "t": 41999.92799999987,
      "d": 218.49554166666348,
      "v": 104
    },
    {
      "midi": 62,
      "hit": false,
      "t": 41999.92799999987,
      "d": 218.49554166666348,
      "v": 104
    },
    {
      "midi": 53,
      "hit": false,
      "t": 42243.82999999986,
      "d": 218.49554166666348,
      "v": 104
    },
    {
      "midi": 62,
      "hit": false,
      "t": 42243.82999999986,
      "d": 218.49554166666348,
      "v": 104
    },
    {
      "midi": 50,
      "hit": false,
      "t": 42487.73199999986,
      "d": 218.49554166666348,
      "v": 104
    },
    {
      "midi": 64,
      "hit": false,
      "t": 42487.73199999986,
      "d": 218.49554166666348,
      "v": 104
    },
    {
      "midi": 53,
      "hit": false,
      "t": 42731.63399999985,
      "d": 218.49554166666348,
      "v": 104
    },
    {
      "midi": 65,
      "hit": false,
      "t": 42731.63399999985,
      "d": 218.49554166666348,
      "v": 104
    },
    {
      "midi": 48,
      "hit": false,
      "t": 42975.53599999985,
      "d": 218.49554166666348,
      "v": 104
    },
    {
      "midi": 65,
      "hit": false,
      "t": 42975.53599999985,
      "d": 218.49554166666348,
      "v": 104
    },
    {
      "midi": 58,
      "hit": false,
      "t": 43219.43799999984,
      "d": 218.49554166666348,
      "v": 104
    },
    {
      "midi": 64,
      "hit": false,
      "t": 43219.43799999984,
      "d": 436.99108333332697,
      "v": 104
    },
    {
      "midi": 55,
      "hit": false,
      "t": 43463.33999999984,
      "d": 218.49554166666348,
      "v": 104
    },
    {
      "midi": 58,
      "hit": false,
      "t": 43707.24199999983,
      "d": 218.49554166666348,
      "v": 104
    },
    {
      "midi": 62,
      "hit": false,
      "t": 43707.24199999983,
      "d": 436.99108333332697,
      "v": 104
    },
    {
      "midi": 48,
      "hit": false,
      "t": 43951.143999999826,
      "d": 218.49554166666348,
      "v": 104
    },
    {
      "midi": 58,
      "hit": false,
      "t": 44195.04599999982,
      "d": 218.49554166666348,
      "v": 104
    },
    {
      "midi": 65,
      "hit": false,
      "t": 44195.04599999982,
      "d": 436.99108333332697,
      "v": 104
    },
    {
      "midi": 55,
      "hit": false,
      "t": 44438.947999999815,
      "d": 218.49554166666348,
      "v": 104
    },
    {
      "midi": 58,
      "hit": false,
      "t": 44682.84999999981,
      "d": 218.49554166666348,
      "v": 104
    },
    {
      "midi": 60,
      "hit": false,
      "t": 44682.84999999981,
      "d": 655.4866249999905,
      "v": 104
    },
    {
      "midi": 41,
      "hit": false,
      "t": 44926.751999999804,
      "d": 218.49554166666348,
      "v": 104
    },
    {
      "midi": 52,
      "hit": false,
      "t": 45170.6539999998,
      "d": 218.49554166667076,
      "v": 104
    },
    {
      "midi": 48,
      "hit": false,
      "t": 45414.5559999998,
      "d": 218.49554166666348,
      "v": 104
    },
    {
      "midi": 52,
      "hit": false,
      "t": 45658.457999999795,
      "d": 218.49554166666348,
      "v": 104
    },
    {
      "midi": 41,
      "hit": false,
      "t": 45902.35999999979,
      "d": 218.49554166666348,
      "v": 104
    },
    {
      "midi": 84,
      "hit": false,
      "t": 45902.35999999979,
      "d": 218.49554166666348,
      "v": 104
    },
    {
      "midi": 52,
      "hit": false,
      "t": 46146.261999999784,
      "d": 218.49554166666348,
      "v": 104
    },
    {
      "midi": 77,
      "hit": false,
      "t": 46146.261999999784,
      "d": 218.49554166666348,
      "v": 104
    },
    {
      "midi": 48,
      "hit": false,
      "t": 46390.16399999978,
      "d": 218.49554166666348,
      "v": 104
    },
    {
      "midi": 79,
      "hit": false,
      "t": 46390.16399999978,
      "d": 218.49554166666348,
      "v": 104
    },
    {
      "midi": 52,
      "hit": false,
      "t": 46634.06599999977,
      "d": 218.49554166666348,
      "v": 104
    },
    {
      "midi": 77,
      "hit": false,
      "t": 46634.06599999977,
      "d": 218.49554166666348,
      "v": 104
    },
    {
      "midi": 41,
      "hit": false,
      "t": 46877.96799999977,
      "d": 218.49554166666348,
      "v": 104
    },
    {
      "midi": 84,
      "hit": false,
      "t": 46877.96799999977,
      "d": 218.49554166666348,
      "v": 104
    },
    {
      "midi": 52,
      "hit": false,
      "t": 47121.86999999976,
      "d": 218.49554166666348,
      "v": 104
    },
    {
      "midi": 77,
      "hit": false,
      "t": 47121.86999999976,
      "d": 218.49554166666348,
      "v": 104
    },
    {
      "midi": 48,
      "hit": false,
      "t": 47365.77199999976,
      "d": 218.49554166666348,
      "v": 104
    },
    {
      "midi": 79,
      "hit": false,
      "t": 47365.77199999976,
      "d": 218.49554166666348,
      "v": 104
    },
    {
      "midi": 52,
      "hit": false,
      "t": 47609.67399999975,
      "d": 218.49554166666348,
      "v": 104
    },
    {
      "midi": 77,
      "hit": false,
      "t": 47609.67399999975,
      "d": 218.49554166666348,
      "v": 104
    },
    {
      "midi": 41,
      "hit": false,
      "t": 47853.575999999746,
      "d": 218.49554166666348,
      "v": 104
    },
    {
      "midi": 84,
      "hit": false,
      "t": 47853.575999999746,
      "d": 218.49554166666348,
      "v": 104
    },
    {
      "midi": 52,
      "hit": false,
      "t": 48097.47799999974,
      "d": 218.49554166666348,
      "v": 104
    },
    {
      "midi": 77,
      "hit": false,
      "t": 48097.47799999974,
      "d": 218.49554166666348,
      "v": 104
    },
    {
      "midi": 48,
      "hit": false,
      "t": 48341.379999999735,
      "d": 218.49554166666348,
      "v": 104
    },
    {
      "midi": 79,
      "hit": false,
      "t": 48341.379999999735,
      "d": 218.49554166666348,
      "v": 104
    },
    {
      "midi": 52,
      "hit": false,
      "t": 48585.28199999973,
      "d": 218.49554166666348,
      "v": 104
    },
    {
      "midi": 77,
      "hit": false,
      "t": 48585.28199999973,
      "d": 218.49554166666348,
      "v": 104
    },
    {
      "midi": 46,
      "hit": false,
      "t": 48829.183999999725,
      "d": 218.49554166666348,
      "v": 104
    },
    {
      "midi": 57,
      "hit": false,
      "t": 49073.08599999972,
      "d": 218.49554166666348,
      "v": 104
    },
    {
      "midi": 65,
      "hit": false,
      "t": 49073.08599999972,
      "d": 218.49554166666348,
      "v": 104
    },
    {
      "midi": 53,
      "hit": false,
      "t": 49316.987999999714,
      "d": 218.49554166666348,
      "v": 104
    },
    {
      "midi": 65,
      "hit": false,
      "t": 49316.987999999714,
      "d": 218.49554166666348,
      "v": 104
    },
    {
      "midi": 57,
      "hit": false,
      "t": 49560.88999999971,
      "d": 218.49554166666348,
      "v": 104
    },
    {
      "midi": 65,
      "hit": false,
      "t": 49560.88999999971,
      "d": 218.49554166666348,
      "v": 104
    },
    {
      "midi": 46,
      "hit": false,
      "t": 49804.7919999997,
      "d": 218.49554166666348,
      "v": 104
    },
    {
      "midi": 65,
      "hit": false,
      "t": 49804.7919999997,
      "d": 436.99108333332697,
      "v": 104
    },
    {
      "midi": 57,
      "hit": false,
      "t": 50048.6939999997,
      "d": 218.49554166666348,
      "v": 104
    },
    {
      "midi": 53,
      "hit": false,
      "t": 50292.59599999969,
      "d": 218.49554166666348,
      "v": 104
    },
    {
      "midi": 65,
      "hit": false,
      "t": 50292.59599999969,
      "d": 218.49554166666348,
      "v": 104
    },
    {
      "midi": 57,
      "hit": false,
      "t": 50536.49799999969,
      "d": 218.49554166666348,
      "v": 104
    },
    {
      "midi": 62,
      "hit": false,
      "t": 50536.49799999969,
      "d": 436.99108333332697,
      "v": 104
    },
    {
      "midi": 46,
      "hit": false,
      "t": 50780.39999999968,
      "d": 218.49554166666348,
      "v": 104
    },
    {
      "midi": 57,
      "hit": false,
      "t": 51024.301999999676,
      "d": 218.49554166666348,
      "v": 104
    },
    {
      "midi": 64,
      "hit": false,
      "t": 51024.301999999676,
      "d": 218.49554166666348,
      "v": 104
    },
    {
      "midi": 53,
      "hit": false,
      "t": 51268.20399999967,
      "d": 218.49554166666348,
      "v": 104
    },
    {
      "midi": 65,
      "hit": false,
      "t": 51268.20399999967,
      "d": 218.49554166666348,
      "v": 104
    },
    {
      "midi": 57,
      "hit": false,
      "t": 51512.105999999665,
      "d": 218.49554166666348,
      "v": 104
    },
    {
      "midi": 46,
      "hit": false,
      "t": 51756.00799999966,
      "d": 218.49554166666348,
      "v": 104
    },
    {
      "midi": 57,
      "hit": false,
      "t": 51999.909999999654,
      "d": 218.49554166666348,
      "v": 104
    },
    {
      "midi": 53,
      "hit": false,
      "t": 52243.81199999965,
      "d": 218.49554166666348,
      "v": 104
    },
    {
      "midi": 57,
      "hit": false,
      "t": 52487.71399999964,
      "d": 218.49554166666348,
      "v": 104
    },
    {
      "midi": 45,
      "hit": false,
      "t": 52731.61599999964,
      "d": 218.49554166666348,
      "v": 104
    },
    {
      "midi": 55,
      "hit": false,
      "t": 52975.51799999963,
      "d": 218.49554166666348,
      "v": 104
    },
    {
      "midi": 64,
      "hit": false,
      "t": 52975.51799999963,
      "d": 218.49554166666348,
      "v": 104
    },
    {
      "midi": 52,
      "hit": false,
      "t": 53219.41999999963,
      "d": 218.49554166666348,
      "v": 104
    },
    {
      "midi": 64,
      "hit": false,
      "t": 53219.41999999963,
      "d": 218.49554166666348,
      "v": 104
    },
    {
      "midi": 55,
      "hit": false,
      "t": 53463.32199999962,
      "d": 218.49554166666348,
      "v": 104
    },
    {
      "midi": 64,
      "hit": false,
      "t": 53463.32199999962,
      "d": 218.49554166666348,
      "v": 104
    },
    {
      "midi": 45,
      "hit": false,
      "t": 53707.223999999616,
      "d": 218.49554166666348,
      "v": 104
    },
    {
      "midi": 60,
      "hit": false,
      "t": 53707.223999999616,
      "d": 218.49554166666348,
      "v": 104
    },
    {
      "midi": 55,
      "hit": false,
      "t": 53951.12599999961,
      "d": 218.49554166666348,
      "v": 104
    },
    {
      "midi": 57,
      "hit": false,
      "t": 53951.12599999961,
      "d": 436.99108333332697,
      "v": 104
    },
    {
      "midi": 52,
      "hit": false,
      "t": 54195.027999999606,
      "d": 218.49554166666348,
      "v": 104
    },
    {
      "midi": 55,
      "hit": false,
      "t": 54438.9299999996,
      "d": 218.49554166666348,
      "v": 104
    },
    {
      "midi": 64,
      "hit": false,
      "t": 54438.9299999996,
      "d": 873.9821666666539,
      "v": 104
    },
    {
      "midi": 44,
      "hit": false,
      "t": 54682.831999999595,
      "d": 218.49554166666348,
      "v": 104
    },
    {
      "midi": 53,
      "hit": false,
      "t": 54926.73399999959,
      "d": 218.49554166666348,
      "v": 104
    },
    {
      "midi": 50,
      "hit": false,
      "t": 55170.635999999584,
      "d": 218.49554166667076,
      "v": 104
    },
    {
      "midi": 53,
      "hit": false,
      "t": 55414.537999999586,
      "d": 218.49554166666348,
      "v": 104
    },
    {
      "midi": 65,
      "hit": false,
      "t": 55414.537999999586,
      "d": 218.49554166666348,
      "v": 104
    },
    {
      "midi": 44,
      "hit": false,
      "t": 55658.43999999958,
      "d": 218.49554166666348,
      "v": 104
    },
    {
      "midi": 53,
      "hit": false,
      "t": 55902.341999999575,
      "d": 218.49554166666348,
      "v": 104
    },
    {
      "midi": 62,
      "hit": false,
      "t": 55902.341999999575,
      "d": 218.49554166666348,
      "v": 104
    },
    {
      "midi": 50,
      "hit": false,
      "t": 56146.24399999957,
      "d": 218.49554166666348,
      "v": 104
    },
    {
      "midi": 64,
      "hit": false,
      "t": 56146.24399999957,
      "d": 218.49554166666348,
      "v": 104
    },
    {
      "midi": 65,
      "hit": false,
      "t": 56390.145999999564,
      "d": 218.49554166666348,
      "v": 104
    },
    {
      "midi": 50,
      "hit": false,
      "t": 56390.145999999564,
      "d": 873.9821666666612,
      "v": 104
    },
    {
      "midi": 46,
      "hit": false,
      "t": 56390.145999999564,
      "d": 873.9821666666612,
      "v": 104
    },
    {
      "midi": 43,
      "hit": false,
      "t": 56390.145999999564,
      "d": 873.9821666666612,
      "v": 104
    },
    {
      "midi": 62,
      "hit": false,
      "t": 56877.94999999956,
      "d": 218.49554166666348,
      "v": 104
    },
    {
      "midi": 64,
      "hit": false,
      "t": 57121.851999999555,
      "d": 218.49554166667076,
      "v": 104
    },
    {
      "midi": 65,
      "hit": false,
      "t": 57365.75399999956,
      "d": 218.49554166666348,
      "v": 104
    },
    {
      "midi": 53,
      "hit": false,
      "t": 57365.75399999956,
      "d": 873.9821666666612,
      "v": 104
    },
    {
      "midi": 48,
      "hit": false,
      "t": 57365.75399999956,
      "d": 873.9821666666612,
      "v": 104
    },
    {
      "midi": 45,
      "hit": false,
      "t": 57365.75399999956,
      "d": 873.9821666666612,
      "v": 104
    },
    {
      "midi": 62,
      "hit": false,
      "t": 57853.55799999955,
      "d": 218.49554166666348,
      "v": 104
    },
    {
      "midi": 64,
      "hit": false,
      "t": 58097.45999999955,
      "d": 218.49554166667076,
      "v": 104
    },
    {
      "midi": 65,
      "hit": false,
      "t": 58341.36199999955,
      "d": 655.4866249999977,
      "v": 104
    },
    {
      "midi": 53,
      "hit": false,
      "t": 58341.36199999955,
      "d": 873.9821666666685,
      "v": 104
    },
    {
      "midi": 50,
      "hit": false,
      "t": 58341.36199999955,
      "d": 873.9821666666685,
      "v": 104
    },
    {
      "midi": 46,
      "hit": false,
      "t": 58341.36199999955,
      "d": 873.9821666666685,
      "v": 104
    },
    {
      "midi": 69,
      "hit": false,
      "t": 59073.06799999955,
      "d": 218.49554166667076,
      "v": 104
    },
    {
      "midi": 67,
      "hit": false,
      "t": 59316.96999999955,
      "d": 436.99108333333425,
      "v": 104
    },
    {
      "midi": 55,
      "hit": false,
      "t": 59316.96999999955,
      "d": 1092.4777083333393,
      "v": 104
    },
    {
      "midi": 52,
      "hit": false,
      "t": 59316.96999999955,
      "d": 1092.4777083333393,
      "v": 104
    },
    {
      "midi": 48,
      "hit": false,
      "t": 59316.96999999955,
      "d": 1092.4777083333393,
      "v": 104
    },
    {
      "midi": 65,
      "hit": false,
      "t": 59804.773999999554,
      "d": 436.99108333333425,
      "v": 104
    },
    {
      "midi": 65,
      "hit": false,
      "t": 60292.57799999956,
      "d": 1534.5500833333062,
      "v": 104
    },
    {
      "midi": 41,
      "hit": false,
      "t": 60536.47999999956,
      "d": 218.49554166666348,
      "v": 104
    },
    {
      "midi": 48,
      "hit": false,
      "t": 60780.381999999554,
      "d": 218.49554166666348,
      "v": 104
    },
    {
      "midi": 45,
      "hit": false,
      "t": 61024.28399999955,
      "d": 218.49554166666348,
      "v": 104
    },
    {
      "midi": 48,
      "hit": false,
      "t": 61268.18599999954,
      "d": 218.49554166666348,
      "v": 104
    },
    {
      "midi": 41,
      "hit": false,
      "t": 61512.08799999954,
      "d": 218.49554166666348,
      "v": 104
    },
    {
      "midi": 48,
      "hit": false,
      "t": 61755.98999999953,
      "d": 218.49554166666348,
      "v": 104
    },
    {
      "midi": 45,
      "hit": false,
      "t": 61999.89199999953,
      "d": 218.49554166666348,
      "v": 104
    },
    {
      "midi": 48,
      "hit": false,
      "t": 62243.79399999952,
      "d": 218.49554166666348,
      "v": 104
    },
    {
      "midi": 41,
      "hit": false,
      "t": 62487.695999999516,
      "d": 655.4866249999977,
      "v": 104
    },
    {
      "midi": 82,
      "hit": false,
      "t": 62487.695999999516,
      "d": 655.4866249999977,
      "v": 104
    },
    {
      "midi": 74,
      "hit": false,
      "t": 62487.695999999516,
      "d": 655.4866249999977,
      "v": 104
    },
    {
      "midi": 41,
      "hit": false,
      "t": 63219.401999999514,
      "d": 655.4866249999977,
      "v": 104
    },
    {
      "midi": 81,
      "hit": false,
      "t": 63219.401999999514,
      "d": 1092.477708333332,
      "v": 104
    },
    {
      "midi": 72,
      "hit": false,
      "t": 63219.401999999514,
      "d": 1092.477708333332,
      "v": 104
    },
    {
      "midi": 41,
      "hit": false,
      "t": 63951.10799999951,
      "d": 436.99108333333425,
      "v": 104
    },
    {
      "midi": 52,
      "hit": false,
      "t": 64438.91199999952,
      "d": 436.99108333333425,
      "v": 104
    },
    {
      "midi": 45,
      "hit": false,
      "t": 64438.91199999952,
      "d": 436.99108333333425,
      "v": 104
    },
    {
      "midi": 64,
      "hit": false,
      "t": 64926.71599999952,
      "d": 436.99108333333425,
      "v": 104
    },
    {
      "midi": 52,
      "hit": false,
      "t": 65170.61799999952,
      "d": 218.49554166666348,
      "v": 104
    },
    {
      "midi": 45,
      "hit": false,
      "t": 65170.61799999952,
      "d": 218.49554166666348,
      "v": 104
    },
    {
      "midi": 52,
      "hit": false,
      "t": 65414.51999999952,
      "d": 436.99108333333425,
      "v": 104
    },
    {
      "midi": 45,
      "hit": false,
      "t": 65414.51999999952,
      "d": 436.99108333333425,
      "v": 104
    },
    {
      "midi": 69,
      "hit": false,
      "t": 65414.51999999952,
      "d": 436.99108333333425,
      "v": 104
    },
    {
      "midi": 64,
      "hit": false,
      "t": 65902.32399999951,
      "d": 436.9910833333415,
      "v": 104
    },
    {
      "midi": 52,
      "hit": false,
      "t": 66146.22599999951,
      "d": 218.49554166667804,
      "v": 104
    },
    {
      "midi": 45,
      "hit": false,
      "t": 66146.22599999951,
      "d": 218.49554166667804,
      "v": 104
    },
    {
      "midi": 57,
      "hit": false,
      "t": 66390.12799999953,
      "d": 436.99108333332697,
      "v": 104
    },
    {
      "midi": 50,
      "hit": false,
      "t": 66390.12799999953,
      "d": 436.99108333332697,
      "v": 104
    },
    {
      "midi": 64,
      "hit": false,
      "t": 66390.12799999953,
      "d": 655.4866249999905,
      "v": 104
    },
    {
      "midi": 57,
      "hit": false,
      "t": 67121.83399999952,
      "d": 218.49554166666348,
      "v": 104
    },
    {
      "midi": 50,
      "hit": false,
      "t": 67121.83399999952,
      "d": 218.49554166666348,
      "v": 104
    },
    {
      "midi": 65,
      "hit": false,
      "t": 67121.83399999952,
      "d": 218.49554166666348,
      "v": 104
    },
    {
      "midi": 57,
      "hit": false,
      "t": 67365.73599999952,
      "d": 436.99108333332697,
      "v": 104
    },
    {
      "midi": 50,
      "hit": false,
      "t": 67365.73599999952,
      "d": 436.99108333332697,
      "v": 104
    },
    {
      "midi": 57,
      "hit": false,
      "t": 68097.44199999952,
      "d": 218.49554166666348,
      "v": 104
    },
    {
      "midi": 50,
      "hit": false,
      "t": 68097.44199999952,
      "d": 218.49554166666348,
      "v": 104
    },
    {
      "midi": 62,
      "hit": false,
      "t": 68097.44199999952,
      "d": 218.49554166666348,
      "v": 104
    },
    {
      "midi": 53,
      "hit": false,
      "t": 68341.34399999952,
      "d": 436.99108333332697,
      "v": 104
    },
    {
      "midi": 46,
      "hit": false,
      "t": 68341.34399999952,
      "d": 436.99108333332697,
      "v": 104
    },
    {
      "midi": 65,
      "hit": false,
      "t": 68341.34399999952,
      "d": 436.99108333332697,
      "v": 104
    },
    {
      "midi": 64,
      "hit": false,
      "t": 68829.1479999995,
      "d": 218.49554166666348,
      "v": 104
    },
    {
      "midi": 53,
      "hit": false,
      "t": 69073.04999999951,
      "d": 218.49554166666348,
      "v": 104
    },
    {
      "midi": 46,
      "hit": false,
      "t": 69073.04999999951,
      "d": 218.49554166666348,
      "v": 104
    },
    {
      "midi": 62,
      "hit": false,
      "t": 69073.04999999951,
      "d": 436.9910833333415,
      "v": 104
    },
    {
      "midi": 58,
      "hit": false,
      "t": 69316.95199999951,
      "d": 436.9910833333415,
      "v": 104
    },
    {
      "midi": 48,
      "hit": false,
      "t": 69316.95199999951,
      "d": 436.9910833333415,
      "v": 104
    },
    {
      "midi": 60,
      "hit": false,
      "t": 69560.85399999951,
      "d": 436.9910833333415,
      "v": 104
    },
    {
      "midi": 58,
      "hit": false,
      "t": 70048.65799999952,
      "d": 218.49554166666348,
      "v": 104
    },
    {
      "midi": 48,
      "hit": false,
      "t": 70048.65799999952,
      "d": 218.49554166666348,
      "v": 104
    },
    {
      "midi": 62,
      "hit": false,
      "t": 70048.65799999952,
      "d": 655.486625000005,
      "v": 104
    },
    {
      "midi": 57,
      "hit": false,
      "t": 70292.55999999952,
      "d": 436.9910833333415,
      "v": 104
    },
    {
      "midi": 53,
      "hit": false,
      "t": 70292.55999999952,
      "d": 436.9910833333415,
      "v": 104
    },
    {
      "midi": 50,
      "hit": false,
      "t": 70292.55999999952,
      "d": 436.9910833333415,
      "v": 104
    },
    {
      "midi": 57,
      "hit": false,
      "t": 71024.26599999952,
      "d": 218.49554166666348,
      "v": 104
    },
    {
      "midi": 53,
      "hit": false,
      "t": 71024.26599999952,
      "d": 218.49554166666348,
      "v": 104
    },
    {
      "midi": 50,
      "hit": false,
      "t": 71024.26599999952,
      "d": 218.49554166666348,
      "v": 104
    },
    {
      "midi": 57,
      "hit": false,
      "t": 71268.16799999952,
      "d": 436.99108333332697,
      "v": 104
    },
    {
      "midi": 53,
      "hit": false,
      "t": 71268.16799999952,
      "d": 436.99108333332697,
      "v": 104
    },
    {
      "midi": 50,
      "hit": false,
      "t": 71268.16799999952,
      "d": 436.99108333332697,
      "v": 104
    },
    {
      "midi": 57,
      "hit": false,
      "t": 71999.87399999952,
      "d": 218.49554166666348,
      "v": 104
    },
    {
      "midi": 53,
      "hit": false,
      "t": 71999.87399999952,
      "d": 218.49554166666348,
      "v": 104
    },
    {
      "midi": 50,
      "hit": false,
      "t": 71999.87399999952,
      "d": 218.49554166666348,
      "v": 104
    },
    {
      "midi": 52,
      "hit": false,
      "t": 72243.77599999952,
      "d": 436.99108333332697,
      "v": 104
    },
    {
      "midi": 48,
      "hit": false,
      "t": 72243.77599999952,
      "d": 436.99108333332697,
      "v": 104
    },
    {
      "midi": 45,
      "hit": false,
      "t": 72243.77599999952,
      "d": 436.99108333332697,
      "v": 104
    },
    {
      "midi": 64,
      "hit": false,
      "t": 72731.5799999995,
      "d": 436.9910833333415,
      "v": 104
    },
    {
      "midi": 52,
      "hit": false,
      "t": 72975.48199999951,
      "d": 218.49554166667804,
      "v": 104
    },
    {
      "midi": 48,
      "hit": false,
      "t": 72975.48199999951,
      "d": 218.49554166667804,
      "v": 104
    },
    {
      "midi": 45,
      "hit": false,
      "t": 72975.48199999951,
      "d": 218.49554166667804,
      "v": 104
    },
    {
      "midi": 52,
      "hit": false,
      "t": 73219.38399999953,
      "d": 436.99108333332697,
      "v": 104
    },
    {
      "midi": 48,
      "hit": false,
      "t": 73219.38399999953,
      "d": 436.99108333332697,
      "v": 104
    },
    {
      "midi": 45,
      "hit": false,
      "t": 73219.38399999953,
      "d": 436.99108333332697,
      "v": 104
    },
    {
      "midi": 69,
      "hit": false,
      "t": 73219.38399999953,
      "d": 436.99108333332697,
      "v": 104
    },
    {
      "midi": 64,
      "hit": false,
      "t": 73707.18799999951,
      "d": 436.9910833333415,
      "v": 104
    },
    {
      "midi": 52,
      "hit": false,
      "t": 73951.08999999952,
      "d": 218.49554166667804,
      "v": 104
    },
    {
      "midi": 48,
      "hit": false,
      "t": 73951.08999999952,
      "d": 218.49554166667804,
      "v": 104
    },
    {
      "midi": 45,
      "hit": false,
      "t": 73951.08999999952,
      "d": 218.49554166667804,
      "v": 104
    },
    {
      "midi": 53,
      "hit": false,
      "t": 74194.99199999953,
      "d": 436.99108333332697,
      "v": 104
    },
    {
      "midi": 50,
      "hit": false,
      "t": 74194.99199999953,
      "d": 436.99108333332697,
      "v": 104
    },
    {
      "midi": 46,
      "hit": false,
      "t": 74194.99199999953,
      "d": 436.99108333332697,
      "v": 104
    },
    {
      "midi": 64,
      "hit": false,
      "t": 74194.99199999953,
      "d": 655.4866249999905,
      "v": 104
    },
    {
      "midi": 53,
      "hit": false,
      "t": 74926.69799999952,
      "d": 218.49554166666348,
      "v": 104
    },
    {
      "midi": 50,
      "hit": false,
      "t": 74926.69799999952,
      "d": 218.49554166666348,
      "v": 104
    },
    {
      "midi": 46,
      "hit": false,
      "t": 74926.69799999952,
      "d": 218.49554166666348,
      "v": 104
    },
    {
      "midi": 65,
      "hit": false,
      "t": 74926.69799999952,
      "d": 218.49554166666348,
      "v": 104
    },
    {
      "midi": 53,
      "hit": false,
      "t": 75170.59999999953,
      "d": 436.9910833333415,
      "v": 104
    },
    {
      "midi": 50,
      "hit": false,
      "t": 75170.59999999953,
      "d": 436.9910833333415,
      "v": 104
    },
    {
      "midi": 46,
      "hit": false,
      "t": 75170.59999999953,
      "d": 436.9910833333415,
      "v": 104
    },
    {
      "midi": 62,
      "hit": false,
      "t": 75414.50199999953,
      "d": 218.49554166667804,
      "v": 104
    },
    {
      "midi": 62,
      "hit": false,
      "t": 75658.40399999954,
      "d": 218.49554166666348,
      "v": 104
    },
    {
      "midi": 53,
      "hit": false,
      "t": 75902.30599999955,
      "d": 218.49554166666348,
      "v": 104
    },
    {
      "midi": 50,
      "hit": false,
      "t": 75902.30599999955,
      "d": 218.49554166666348,
      "v": 104
    },
    {
      "midi": 46,
      "hit": false,
      "t": 75902.30599999955,
      "d": 218.49554166666348,
      "v": 104
    },
    {
      "midi": 64,
      "hit": false,
      "t": 75902.30599999955,
      "d": 218.49554166666348,
      "v": 104
    },
    {
      "midi": 50,
      "hit": false,
      "t": 76146.20799999955,
      "d": 436.99108333332697,
      "v": 104
    },
    {
      "midi": 65,
      "hit": false,
      "t": 76146.20799999955,
      "d": 436.99108333332697,
      "v": 104
    },
    {
      "midi": 48,
      "hit": false,
      "t": 76634.01199999954,
      "d": 218.49554166666348,
      "v": 104
    },
    {
      "midi": 69,
      "hit": false,
      "t": 76634.01199999954,
      "d": 218.49554166666348,
      "v": 104
    },
    {
      "midi": 67,
      "hit": false,
      "t": 76877.91399999954,
      "d": 436.99108333332697,
      "v": 104
    },
    {
      "midi": 47,
      "hit": false,
      "t": 76877.91399999954,
      "d": 1092.477708333332,
      "v": 104
    },
    {
      "midi": 62,
      "hit": false,
      "t": 77365.71799999953,
      "d": 218.49554166666348,
      "v": 104
    },
    {
      "midi": 62,
      "hit": false,
      "t": 77609.61999999953,
      "d": 218.49554166666348,
      "v": 104
    },
    {
      "midi": 64,
      "hit": false,
      "t": 77853.52199999953,
      "d": 218.49554166667804,
      "v": 104
    },
    {
      "midi": 65,
      "hit": false,
      "t": 78097.42399999955,
      "d": 218.49554166666348,
      "v": 104
    },
    {
      "midi": 53,
      "hit": false,
      "t": 78097.42399999955,
      "d": 655.486625000005,
      "v": 104
    },
    {
      "midi": 50,
      "hit": false,
      "t": 78097.42399999955,
      "d": 655.486625000005,
      "v": 104
    },
    {
      "midi": 46,
      "hit": false,
      "t": 78097.42399999955,
      "d": 655.486625000005,
      "v": 104
    },
    {
      "midi": 65,
      "hit": false,
      "t": 78341.32599999955,
      "d": 218.49554166666348,
      "v": 104
    },
    {
      "midi": 65,
      "hit": false,
      "t": 78585.22799999955,
      "d": 218.49554166666348,
      "v": 104
    },
    {
      "midi": 52,
      "hit": false,
      "t": 78829.12999999955,
      "d": 218.49554166666348,
      "v": 104
    },
    {
      "midi": 48,
      "hit": false,
      "t": 78829.12999999955,
      "d": 218.49554166666348,
      "v": 104
    },
    {
      "midi": 67,
      "hit": false,
      "t": 78829.12999999955,
      "d": 218.49554166666348,
      "v": 104
    },
    {
      "midi": 48,
      "hit": false,
      "t": 79560.83599999954,
      "d": 436.99108333332697,
      "v": 104
    },
    {
      "midi": 41,
      "hit": false,
      "t": 80048.63999999953,
      "d": 436.99108333332697,
      "v": 104
    },
    {
      "midi": 69,
      "hit": false,
      "t": 80048.63999999953,
      "d": 436.99108333332697,
      "v": 104
    },
    {
      "midi": 48,
      "hit": false,
      "t": 80536.44399999952,
      "d": 218.49554166666348,
      "v": 104
    },
    {
      "midi": 69,
      "hit": false,
      "t": 80536.44399999952,
      "d": 218.49554166666348,
      "v": 104
    },
    {
      "midi": 41,
      "hit": false,
      "t": 80780.34599999952,
      "d": 218.49554166666348,
      "v": 104
    },
    {
      "midi": 69,
      "hit": false,
      "t": 80780.34599999952,
      "d": 218.49554166666348,
      "v": 104
    },
    {
      "midi": 45,
      "hit": false,
      "t": 81024.24799999953,
      "d": 436.99108333332697,
      "v": 104
    },
    {
      "midi": 65,
      "hit": false,
      "t": 81024.24799999953,
      "d": 436.99108333332697,
      "v": 104
    },
    {
      "midi": 53,
      "hit": false,
      "t": 81512.05199999952,
      "d": 218.49554166666348,
      "v": 104
    },
    {
      "midi": 45,
      "hit": false,
      "t": 81755.95399999952,
      "d": 218.49554166666348,
      "v": 104
    },
    {
      "midi": 65,
      "hit": false,
      "t": 81755.95399999952,
      "d": 436.9910833333415,
      "v": 104
    },
    {
      "midi": 46,
      "hit": false,
      "t": 81999.85599999952,
      "d": 436.9910833333415,
      "v": 104
    },
    {
      "midi": 65,
      "hit": false,
      "t": 82243.75799999952,
      "d": 218.49554166667804,
      "v": 104
    },
    {
      "midi": 53,
      "hit": false,
      "t": 82487.65999999954,
      "d": 218.49554166666348,
      "v": 104
    },
    {
      "midi": 67,
      "hit": false,
      "t": 82487.65999999954,
      "d": 218.49554166666348,
      "v": 104
    },
    {
      "midi": 46,
      "hit": false,
      "t": 82731.56199999954,
      "d": 218.49554166666348,
      "v": 104
    },
    {
      "midi": 65,
      "hit": false,
      "t": 82731.56199999954,
      "d": 218.49554166666348,
      "v": 104
    },
    {
      "midi": 69,
      "hit": false,
      "t": 82975.46399999954,
      "d": 218.49554166666348,
      "v": 104
    },
    {
      "midi": 48,
      "hit": false,
      "t": 82975.46399999954,
      "d": 436.9910833333415,
      "v": 104
    },
    {
      "midi": 70,
      "hit": false,
      "t": 83219.36599999954,
      "d": 218.49554166667804,
      "v": 104
    },
    {
      "midi": 69,
      "hit": false,
      "t": 83463.26799999956,
      "d": 218.49554166666348,
      "v": 104
    },
    {
      "midi": 49,
      "hit": false,
      "t": 83463.26799999956,
      "d": 436.9910833333415,
      "v": 104
    },
    {
      "midi": 67,
      "hit": false,
      "t": 83707.16999999956,
      "d": 218.49554166667804,
      "v": 104
    },
    {
      "midi": 69,
      "hit": false,
      "t": 83951.07199999958,
      "d": 218.49554166666348,
      "v": 104
    },
    {
      "midi": 50,
      "hit": false,
      "t": 83951.07199999958,
      "d": 436.9910833333415,
      "v": 104
    },
    {
      "midi": 67,
      "hit": false,
      "t": 84194.97399999958,
      "d": 218.49554166667804,
      "v": 104
    },
    {
      "midi": 57,
      "hit": false,
      "t": 84438.8759999996,
      "d": 218.49554166666348,
      "v": 104
    },
    {
      "midi": 65,
      "hit": false,
      "t": 84438.8759999996,
      "d": 218.49554166666348,
      "v": 104
    },
    {
      "midi": 50,
      "hit": false,
      "t": 84682.7779999996,
      "d": 218.49554166666348,
      "v": 104
    },
    {
      "midi": 67,
      "hit": false,
      "t": 84682.7779999996,
      "d": 655.486625000005,
      "v": 104
    },
    {
      "midi": 45,
      "hit": false,
      "t": 84926.6799999996,
      "d": 436.9910833333415,
      "v": 104
    },
    {
      "midi": 52,
      "hit": false,
      "t": 85414.4839999996,
      "d": 218.49554166666348,
      "v": 104
    },
    {
      "midi": 45,
      "hit": false,
      "t": 85658.3859999996,
      "d": 218.49554166666348,
      "v": 104
    },
    {
      "midi": 46,
      "hit": false,
      "t": 85902.28799999961,
      "d": 218.49554166666348,
      "v": 104
    },
    {
      "midi": 69,
      "hit": false,
      "t": 85902.28799999961,
      "d": 218.49554166666348,
      "v": 104
    },
    {
      "midi": 45,
      "hit": false,
      "t": 86146.18999999961,
      "d": 218.49554166666348,
      "v": 104
    },
    {
      "midi": 70,
      "hit": false,
      "t": 86146.18999999961,
      "d": 218.49554166666348,
      "v": 104
    },
    {
      "midi": 69,
      "hit": false,
      "t": 86390.09199999961,
      "d": 218.49554166666348,
      "v": 104
    },
    {
      "midi": 46,
      "hit": false,
      "t": 86390.09199999961,
      "d": 436.9910833333415,
      "v": 104
    },
    {
      "midi": 67,
      "hit": false,
      "t": 86633.99399999961,
      "d": 655.486625000005,
      "v": 104
    },
    {
      "midi": 48,
      "hit": false,
      "t": 87121.79799999962,
      "d": 218.49554166666348,
      "v": 104
    },
    {
      "midi": 48,
      "hit": false,
      "t": 87365.69999999962,
      "d": 436.99108333332697,
      "v": 104
    },
    {
      "midi": 41,
      "hit": false,
      "t": 87853.50399999961,
      "d": 436.99108333332697,
      "v": 104
    },
    {
      "midi": 69,
      "hit": false,
      "t": 87853.50399999961,
      "d": 436.99108333332697,
      "v": 104
    },
    {
      "midi": 48,
      "hit": false,
      "t": 88341.3079999996,
      "d": 218.49554166666348,
      "v": 104
    },
    {
      "midi": 69,
      "hit": false,
      "t": 88341.3079999996,
      "d": 218.49554166666348,
      "v": 104
    },
    {
      "midi": 41,
      "hit": false,
      "t": 88585.2099999996,
      "d": 218.49554166666348,
      "v": 104
    },
    {
      "midi": 69,
      "hit": false,
      "t": 88585.2099999996,
      "d": 218.49554166666348,
      "v": 104
    },
    {
      "midi": 45,
      "hit": false,
      "t": 88829.1119999996,
      "d": 436.99108333332697,
      "v": 104
    },
    {
      "midi": 65,
      "hit": false,
      "t": 88829.1119999996,
      "d": 436.99108333332697,
      "v": 104
    },
    {
      "midi": 53,
      "hit": false,
      "t": 89316.91599999959,
      "d": 218.49554166666348,
      "v": 104
    },
    {
      "midi": 45,
      "hit": false,
      "t": 89560.81799999959,
      "d": 218.49554166666348,
      "v": 104
    },
    {
      "midi": 65,
      "hit": false,
      "t": 89560.81799999959,
      "d": 436.9910833333415,
      "v": 104
    },
    {
      "midi": 46,
      "hit": false,
      "t": 89804.7199999996,
      "d": 436.9910833333415,
      "v": 104
    },
    {
      "midi": 65,
      "hit": false,
      "t": 90048.6219999996,
      "d": 218.49554166667804,
      "v": 104
    },
    {
      "midi": 53,
      "hit": false,
      "t": 90292.52399999961,
      "d": 218.49554166666348,
      "v": 104
    },
    {
      "midi": 67,
      "hit": false,
      "t": 90292.52399999961,
      "d": 218.49554166666348,
      "v": 104
    },
    {
      "midi": 46,
      "hit": false,
      "t": 90536.42599999961,
      "d": 218.49554166666348,
      "v": 104
    },
    {
      "midi": 65,
      "hit": false,
      "t": 90536.42599999961,
      "d": 218.49554166666348,
      "v": 104
    },
    {
      "midi": 69,
      "hit": false,
      "t": 90780.32799999962,
      "d": 218.49554166666348,
      "v": 104
    },
    {
      "midi": 48,
      "hit": false,
      "t": 90780.32799999962,
      "d": 436.9910833333415,
      "v": 104
    },
    {
      "midi": 70,
      "hit": false,
      "t": 91024.22999999962,
      "d": 218.49554166667804,
      "v": 104
    },
    {
      "midi": 69,
      "hit": false,
      "t": 91268.13199999963,
      "d": 218.49554166666348,
      "v": 104
    },
    {
      "midi": 49,
      "hit": false,
      "t": 91268.13199999963,
      "d": 436.9910833333415,
      "v": 104
    },
    {
      "midi": 67,
      "hit": false,
      "t": 91512.03399999964,
      "d": 218.49554166667804,
      "v": 104
    },
    {
      "midi": 69,
      "hit": false,
      "t": 91755.93599999965,
      "d": 218.49554166666348,
      "v": 104
    },
    {
      "midi": 50,
      "hit": false,
      "t": 91755.93599999965,
      "d": 436.9910833333415,
      "v": 104
    },
    {
      "midi": 67,
      "hit": false,
      "t": 91999.83799999965,
      "d": 218.49554166667804,
      "v": 104
    },
    {
      "midi": 57,
      "hit": false,
      "t": 92243.73999999967,
      "d": 218.49554166666348,
      "v": 104
    },
    {
      "midi": 65,
      "hit": false,
      "t": 92243.73999999967,
      "d": 218.49554166666348,
      "v": 104
    },
    {
      "midi": 50,
      "hit": false,
      "t": 92487.64199999967,
      "d": 218.49554166666348,
      "v": 104
    },
    {
      "midi": 67,
      "hit": false,
      "t": 92487.64199999967,
      "d": 655.486625000005,
      "v": 104
    },
    {
      "midi": 45,
      "hit": false,
      "t": 92731.54399999967,
      "d": 436.9910833333415,
      "v": 104
    },
    {
      "midi": 52,
      "hit": false,
      "t": 93219.34799999968,
      "d": 218.49554166666348,
      "v": 104
    },
    {
      "midi": 45,
      "hit": false,
      "t": 93463.24999999968,
      "d": 218.49554166666348,
      "v": 104
    },
    {
      "midi": 46,
      "hit": false,
      "t": 93707.15199999968,
      "d": 218.49554166666348,
      "v": 104
    },
    {
      "midi": 69,
      "hit": false,
      "t": 93707.15199999968,
      "d": 218.49554166666348,
      "v": 104
    },
    {
      "midi": 45,
      "hit": false,
      "t": 93951.05399999968,
      "d": 218.49554166666348,
      "v": 104
    },
    {
      "midi": 70,
      "hit": false,
      "t": 93951.05399999968,
      "d": 218.49554166666348,
      "v": 104
    },
    {
      "midi": 69,
      "hit": false,
      "t": 94194.95599999969,
      "d": 218.49554166666348,
      "v": 104
    },
    {
      "midi": 46,
      "hit": false,
      "t": 94194.95599999969,
      "d": 436.9910833333415,
      "v": 104
    },
    {
      "midi": 67,
      "hit": false,
      "t": 94438.85799999969,
      "d": 218.49554166667804,
      "v": 104
    },
    {
      "midi": 48,
      "hit": false,
      "t": 94926.6619999997,
      "d": 218.49554166666348,
      "v": 104
    },
    {
      "midi": 65,
      "hit": false,
      "t": 94926.6619999997,
      "d": 218.49554166666348,
      "v": 104
    },
    {
      "midi": 65,
      "hit": false,
      "t": 95170.56399999971,
      "d": 218.49554166666348,
      "v": 104
    },
    {
      "midi": 48,
      "hit": false,
      "t": 95170.56399999971,
      "d": 436.9910833333415,
      "v": 104
    },
    {
      "midi": 67,
      "hit": false,
      "t": 95414.46599999971,
      "d": 218.49554166667804,
      "v": 104
    },
    {
      "midi": 53,
      "hit": false,
      "t": 95658.36799999973,
      "d": 218.49554166666348,
      "v": 104
    },
    {
      "midi": 49,
      "hit": false,
      "t": 95658.36799999973,
      "d": 218.49554166666348,
      "v": 104
    },
    {
      "midi": 68,
      "hit": false,
      "t": 95658.36799999973,
      "d": 436.9910833333415,
      "v": 104
    },
    {
      "midi": 53,
      "hit": false,
      "t": 95902.26999999973,
      "d": 218.49554166667804,
      "v": 104
    },
    {
      "midi": 49,
      "hit": false,
      "t": 95902.26999999973,
      "d": 218.49554166667804,
      "v": 104
    },
    {
      "midi": 53,
      "hit": false,
      "t": 96146.17199999974,
      "d": 218.49554166666348,
      "v": 104
    },
    {
      "midi": 49,
      "hit": false,
      "t": 96146.17199999974,
      "d": 218.49554166666348,
      "v": 104
    },
    {
      "midi": 68,
      "hit": false,
      "t": 96146.17199999974,
      "d": 436.9910833333415,
      "v": 104
    },
    {
      "midi": 53,
      "hit": false,
      "t": 96390.07399999975,
      "d": 218.49554166667804,
      "v": 104
    },
    {
      "midi": 49,
      "hit": false,
      "t": 96390.07399999975,
      "d": 218.49554166667804,
      "v": 104
    },
    {
      "midi": 53,
      "hit": false,
      "t": 96633.97599999976,
      "d": 218.49554166666348,
      "v": 104
    },
    {
      "midi": 49,
      "hit": false,
      "t": 96633.97599999976,
      "d": 218.49554166666348,
      "v": 104
    },
    {
      "midi": 68,
      "hit": false,
      "t": 96633.97599999976,
      "d": 218.49554166666348,
      "v": 104
    },
    {
      "midi": 53,
      "hit": false,
      "t": 96877.87799999976,
      "d": 218.49554166666348,
      "v": 104
    },
    {
      "midi": 49,
      "hit": false,
      "t": 96877.87799999976,
      "d": 218.49554166666348,
      "v": 104
    },
    {
      "midi": 68,
      "hit": false,
      "t": 96877.87799999976,
      "d": 218.49554166666348,
      "v": 104
    },
    {
      "midi": 53,
      "hit": false,
      "t": 97121.77999999977,
      "d": 218.49554166666348,
      "v": 104
    },
    {
      "midi": 49,
      "hit": false,
      "t": 97121.77999999977,
      "d": 218.49554166666348,
      "v": 104
    },
    {
      "midi": 53,
      "hit": false,
      "t": 97365.68199999977,
      "d": 218.49554166666348,
      "v": 104
    },
    {
      "midi": 49,
      "hit": false,
      "t": 97365.68199999977,
      "d": 218.49554166666348,
      "v": 104
    },
    {
      "midi": 68,
      "hit": false,
      "t": 97365.68199999977,
      "d": 655.486625000005,
      "v": 104
    },
    {
      "midi": 55,
      "hit": false,
      "t": 97609.58399999977,
      "d": 218.49554166666348,
      "v": 104
    },
    {
      "midi": 51,
      "hit": false,
      "t": 97609.58399999977,
      "d": 218.49554166666348,
      "v": 104
    },
    {
      "midi": 55,
      "hit": false,
      "t": 97853.48599999977,
      "d": 218.49554166666348,
      "v": 104
    },
    {
      "midi": 51,
      "hit": false,
      "t": 97853.48599999977,
      "d": 218.49554166666348,
      "v": 104
    },
    {
      "midi": 55,
      "hit": false,
      "t": 98097.38799999977,
      "d": 218.49554166666348,
      "v": 104
    },
    {
      "midi": 51,
      "hit": false,
      "t": 98097.38799999977,
      "d": 218.49554166666348,
      "v": 104
    },
    {
      "midi": 67,
      "hit": false,
      "t": 98097.38799999977,
      "d": 436.9910833333415,
      "v": 104
    },
    {
      "midi": 55,
      "hit": false,
      "t": 98341.28999999978,
      "d": 218.49554166667804,
      "v": 104
    },
    {
      "midi": 51,
      "hit": false,
      "t": 98341.28999999978,
      "d": 218.49554166667804,
      "v": 104
    },
    {
      "midi": 55,
      "hit": false,
      "t": 98585.19199999979,
      "d": 218.49554166666348,
      "v": 104
    },
    {
      "midi": 51,
      "hit": false,
      "t": 98585.19199999979,
      "d": 218.49554166666348,
      "v": 104
    },
    {
      "midi": 65,
      "hit": false,
      "t": 98585.19199999979,
      "d": 218.49554166666348,
      "v": 104
    },
    {
      "midi": 55,
      "hit": false,
      "t": 98829.0939999998,
      "d": 218.49554166666348,
      "v": 104
    },
    {
      "midi": 51,
      "hit": false,
      "t": 98829.0939999998,
      "d": 218.49554166666348,
      "v": 104
    },
    {
      "midi": 63,
      "hit": false,
      "t": 98829.0939999998,
      "d": 218.49554166666348,
      "v": 104
    },
    {
      "midi": 55,
      "hit": false,
      "t": 99072.9959999998,
      "d": 218.49554166666348,
      "v": 104
    },
    {
      "midi": 51,
      "hit": false,
      "t": 99072.9959999998,
      "d": 218.49554166666348,
      "v": 104
    },
    {
      "midi": 65,
      "hit": false,
      "t": 99072.9959999998,
      "d": 218.49554166666348,
      "v": 104
    },
    {
      "midi": 55,
      "hit": false,
      "t": 99316.8979999998,
      "d": 218.49554166666348,
      "v": 104
    },
    {
      "midi": 51,
      "hit": false,
      "t": 99316.8979999998,
      "d": 218.49554166666348,
      "v": 104
    },
    {
      "midi": 65,
      "hit": false,
      "t": 99316.8979999998,
      "d": 1971.5411666666478,
      "v": 104
    },
    {
      "midi": 41,
      "hit": false,
      "t": 99560.7999999998,
      "d": 436.99108333332697,
      "v": 104
    },
    {
      "midi": 48,
      "hit": false,
      "t": 100048.60399999979,
      "d": 218.49554166666348,
      "v": 104
    },
    {
      "midi": 41,
      "hit": false,
      "t": 100292.50599999979,
      "d": 218.49554166666348,
      "v": 104
    },
    {
      "midi": 45,
      "hit": false,
      "t": 100536.40799999979,
      "d": 436.99108333332697,
      "v": 104
    },
    {
      "midi": 53,
      "hit": false,
      "t": 101024.21199999978,
      "d": 218.49554166666348,
      "v": 104
    },
    {
      "midi": 45,
      "hit": false,
      "t": 101268.11399999978,
      "d": 218.49554166666348,
      "v": 104
    },
    {
      "midi": 46,
      "hit": false,
      "t": 101512.01599999978,
      "d": 218.49554166666348,
      "v": 104
    },
    {
      "midi": 70,
      "hit": false,
      "t": 101512.01599999978,
      "d": 873.9821666666685,
      "v": 104
    },
    {
      "midi": 62,
      "hit": false,
      "t": 101512.01599999978,
      "d": 873.9821666666685,
      "v": 104
    },
    {
      "midi": 45,
      "hit": false,
      "t": 101755.91799999979,
      "d": 218.49554166666348,
      "v": 104
    },
    {
      "midi": 43,
      "hit": false,
      "t": 101999.81999999979,
      "d": 218.49554166666348,
      "v": 104
    },
    {
      "midi": 72,
      "hit": false,
      "t": 102487.62399999979,
      "d": 873.9821666666685,
      "v": 104
    },
    {
      "midi": 64,
      "hit": false,
      "t": 102487.62399999979,
      "d": 873.9821666666685,
      "v": 104
    },
    {
      "midi": 48,
      "hit": false,
      "t": 102731.5259999998,
      "d": 218.49554166666348,
      "v": 104
    },
    {
      "midi": 48,
      "hit": false,
      "t": 102975.4279999998,
      "d": 436.99108333332697,
      "v": 104
    },
    {
      "midi": 41,
      "hit": false,
      "t": 103463.23199999979,
      "d": 436.99108333332697,
      "v": 104
    },
    {
      "midi": 77,
      "hit": false,
      "t": 103463.23199999979,
      "d": 873.9821666666539,
      "v": 104
    },
    {
      "midi": 69,
      "hit": false,
      "t": 103463.23199999979,
      "d": 873.9821666666539,
      "v": 104
    },
    {
      "midi": 48,
      "hit": false,
      "t": 103951.03599999977,
      "d": 218.49554166666348,
      "v": 104
    },
    {
      "midi": 41,
      "hit": false,
      "t": 104194.93799999978,
      "d": 218.49554166666348,
      "v": 104
    },
    {
      "midi": 45,
      "hit": false,
      "t": 104438.83999999978,
      "d": 436.99108333332697,
      "v": 104
    },
    {
      "midi": 77,
      "hit": false,
      "t": 104438.83999999978,
      "d": 873.9821666666539,
      "v": 104
    },
    {
      "midi": 69,
      "hit": false,
      "t": 104438.83999999978,
      "d": 873.9821666666539,
      "v": 104
    },
    {
      "midi": 53,
      "hit": false,
      "t": 104926.64399999977,
      "d": 218.49554166666348,
      "v": 104
    },
    {
      "midi": 45,
      "hit": false,
      "t": 105170.54599999977,
      "d": 218.49554166666348,
      "v": 104
    },
    {
      "midi": 46,
      "hit": false,
      "t": 105414.44799999977,
      "d": 218.49554166666348,
      "v": 104
    },
    {
      "midi": 77,
      "hit": false,
      "t": 105414.44799999977,
      "d": 655.486625000005,
      "v": 104
    },
    {
      "midi": 74,
      "hit": false,
      "t": 105414.44799999977,
      "d": 655.486625000005,
      "v": 104
    },
    {
      "midi": 70,
      "hit": false,
      "t": 105414.44799999977,
      "d": 655.486625000005,
      "v": 104
    },
    {
      "midi": 45,
      "hit": false,
      "t": 105658.34999999977,
      "d": 218.49554166666348,
      "v": 104
    },
    {
      "midi": 43,
      "hit": false,
      "t": 105902.25199999977,
      "d": 218.49554166666348,
      "v": 104
    },
    {
      "midi": 48,
      "hit": false,
      "t": 106146.15399999978,
      "d": 655.486625000005,
      "v": 104
    },
    {
      "midi": 72,
      "hit": false,
      "t": 106146.15399999978,
      "d": 655.486625000005,
      "v": 104
    },
    {
      "midi": 67,
      "hit": false,
      "t": 106146.15399999978,
      "d": 655.486625000005,
      "v": 104
    },
    {
      "midi": 64,
      "hit": false,
      "t": 106146.15399999978,
      "d": 655.486625000005,
      "v": 104
    },
    {
      "midi": 48,
      "hit": false,
      "t": 106877.85999999978,
      "d": 436.99108333332697,
      "v": 104
    },
    {
      "midi": 70,
      "hit": false,
      "t": 106877.85999999978,
      "d": 436.99108333332697,
      "v": 104
    },
    {
      "midi": 65,
      "hit": false,
      "t": 106877.85999999978,
      "d": 436.99108333332697,
      "v": 104
    },
    {
      "midi": 62,
      "hit": false,
      "t": 106877.85999999978,
      "d": 436.99108333332697,
      "v": 104
    },
    {
      "midi": 41,
      "hit": false,
      "t": 107365.66399999977,
      "d": 436.99108333332697,
      "v": 104
    },
    {
      "midi": 69,
      "hit": false,
      "t": 107365.66399999977,
      "d": 873.9821666666539,
      "v": 104
    },
    {
      "midi": 65,
      "hit": false,
      "t": 107365.66399999977,
      "d": 873.9821666666539,
      "v": 104
    },
    {
      "midi": 48,
      "hit": false,
      "t": 107853.46799999976,
      "d": 218.49554166666348,
      "v": 104
    },
    {
      "midi": 41,
      "hit": false,
      "t": 108097.36999999976,
      "d": 218.49554166666348,
      "v": 104
    },
    {
      "midi": 45,
      "hit": false,
      "t": 108341.27199999976,
      "d": 436.99108333332697,
      "v": 104
    },
    {
      "midi": 69,
      "hit": false,
      "t": 108341.27199999976,
      "d": 873.9821666666539,
      "v": 104
    },
    {
      "midi": 65,
      "hit": false,
      "t": 108341.27199999976,
      "d": 873.9821666666539,
      "v": 104
    },
    {
      "midi": 53,
      "hit": false,
      "t": 108829.07599999975,
      "d": 218.49554166666348,
      "v": 104
    },
    {
      "midi": 45,
      "hit": false,
      "t": 109072.97799999976,
      "d": 218.49554166666348,
      "v": 104
    },
    {
      "midi": 46,
      "hit": false,
      "t": 109316.87999999976,
      "d": 218.49554166666348,
      "v": 104
    },
    {
      "midi": 70,
      "hit": false,
      "t": 109316.87999999976,
      "d": 873.9821666666685,
      "v": 104
    },
    {
      "midi": 62,
      "hit": false,
      "t": 109316.87999999976,
      "d": 873.9821666666685,
      "v": 104
    },
    {
      "midi": 45,
      "hit": false,
      "t": 109560.78199999976,
      "d": 218.49554166666348,
      "v": 104
    },
    {
      "midi": 43,
      "hit": false,
      "t": 109804.68399999976,
      "d": 218.49554166666348,
      "v": 104
    },
    {
      "midi": 72,
      "hit": false,
      "t": 110292.48799999976,
      "d": 873.9821666666685,
      "v": 104
    },
    {
      "midi": 64,
      "hit": false,
      "t": 110292.48799999976,
      "d": 873.9821666666685,
      "v": 104
    },
    {
      "midi": 48,
      "hit": false,
      "t": 110536.38999999977,
      "d": 218.49554166666348,
      "v": 104
    },
    {
      "midi": 48,
      "hit": false,
      "t": 110780.29199999977,
      "d": 436.99108333332697,
      "v": 104
    },
    {
      "midi": 41,
      "hit": false,
      "t": 111268.09599999976,
      "d": 436.99108333332697,
      "v": 104
    },
    {
      "midi": 69,
      "hit": false,
      "t": 111268.09599999976,
      "d": 873.9821666666539,
      "v": 104
    },
    {
      "midi": 65,
      "hit": false,
      "t": 111268.09599999976,
      "d": 873.9821666666539,
      "v": 104
    },
    {
      "midi": 48,
      "hit": false,
      "t": 111755.89999999975,
      "d": 218.49554166666348,
      "v": 104
    },
    {
      "midi": 41,
      "hit": false,
      "t": 111999.80199999975,
      "d": 218.49554166666348,
      "v": 104
    },
    {
      "midi": 45,
      "hit": false,
      "t": 112243.70399999975,
      "d": 436.99108333332697,
      "v": 104
    },
    {
      "midi": 69,
      "hit": false,
      "t": 112243.70399999975,
      "d": 655.4866249999905,
      "v": 104
    },
    {
      "midi": 65,
      "hit": false,
      "t": 112243.70399999975,
      "d": 655.4866249999905,
      "v": 104
    },
    {
      "midi": 53,
      "hit": false,
      "t": 112731.50799999974,
      "d": 218.49554166666348,
      "v": 104
    },
    {
      "midi": 49,
      "hit": false,
      "t": 112975.40999999974,
      "d": 436.99108333332697,
      "v": 104
    },
    {
      "midi": 68,
      "hit": false,
      "t": 112975.40999999974,
      "d": 436.99108333332697,
      "v": 104
    },
    {
      "midi": 65,
      "hit": false,
      "t": 112975.40999999974,
      "d": 436.99108333332697,
      "v": 104
    },
    {
      "midi": 63,
      "hit": false,
      "t": 112975.40999999974,
      "d": 436.99108333332697,
      "v": 104
    },
    {
      "midi": 61,
      "hit": false,
      "t": 112975.40999999974,
      "d": 436.99108333332697,
      "v": 104
    },
    {
      "midi": 49,
      "hit": false,
      "t": 113463.21399999973,
      "d": 218.49554166666348,
      "v": 104
    },
    {
      "midi": 68,
      "hit": false,
      "t": 113463.21399999973,
      "d": 218.49554166666348,
      "v": 104
    },
    {
      "midi": 65,
      "hit": false,
      "t": 113463.21399999973,
      "d": 218.49554166666348,
      "v": 104
    },
    {
      "midi": 63,
      "hit": false,
      "t": 113463.21399999973,
      "d": 218.49554166666348,
      "v": 104
    },
    {
      "midi": 61,
      "hit": false,
      "t": 113463.21399999973,
      "d": 218.49554166666348,
      "v": 104
    },
    {
      "midi": 47,
      "hit": false,
      "t": 113707.11599999973,
      "d": 436.99108333332697,
      "v": 104
    },
    {
      "midi": 70,
      "hit": false,
      "t": 113707.11599999973,
      "d": 436.99108333332697,
      "v": 104
    },
    {
      "midi": 66,
      "hit": false,
      "t": 113707.11599999973,
      "d": 436.99108333332697,
      "v": 104
    },
    {
      "midi": 63,
      "hit": false,
      "t": 113707.11599999973,
      "d": 436.99108333332697,
      "v": 104
    },
    {
      "midi": 75,
      "hit": false,
      "t": 115170.52799999973,
      "d": 3218.282187500008,
      "v": 104
    },
    {
      "midi": 77,
      "hit": false,
      "t": 115207.8414166664,
      "d": 3218.282187500008,
      "v": 104
    },
    {
      "midi": 79,
      "hit": false,
      "t": 115245.15483333307,
      "d": 3218.282187500008,
      "v": 104
    },
    {
      "midi": 82,
      "hit": false,
      "t": 115282.46824999974,
      "d": 3218.282187500008,
      "v": 104
    },
    {
      "midi": 58,
      "hit": false,
      "t": 118752.61599999975,
      "d": 401.1192291666812,
      "v": 104
    },
    {
      "midi": 75,
      "hit": false,
      "t": 118752.61599999975,
      "d": 3218.282187500008,
      "v": 104
    },
    {
      "midi": 77,
      "hit": false,
      "t": 118789.92941666642,
      "d": 3218.282187500008,
      "v": 104
    },
    {
      "midi": 79,
      "hit": false,
      "t": 118827.24283333309,
      "d": 3218.282187500008,
      "v": 104
    },
    {
      "midi": 82,
      "hit": false,
      "t": 118864.55624999976,
      "d": 3218.282187500008,
      "v": 104
    },
    {
      "midi": 58,
      "hit": false,
      "t": 119200.37699999976,
      "d": 401.1192291666666,
      "v": 104
    },
    {
      "midi": 60,
      "hit": false,
      "t": 119648.13799999976,
      "d": 401.1192291666666,
      "v": 104
    },
    {
      "midi": 60,
      "hit": false,
      "t": 120095.89899999976,
      "d": 401.1192291666666,
      "v": 104
    },
    {
      "midi": 62,
      "hit": false,
      "t": 120543.65999999976,
      "d": 265.8580937499937,
      "v": 104
    },
    {
      "midi": 62,
      "hit": false,
      "t": 120842.16733333308,
      "d": 401.1192291666666,
      "v": 104
    },
    {
      "midi": 60,
      "hit": false,
      "t": 121289.92833333308,
      "d": 531.716187500002,
      "v": 104
    },
    {
      "midi": 58,
      "hit": false,
      "t": 122334.70399999977,
      "d": 401.1192291666812,
      "v": 104
    },
    {
      "midi": 75,
      "hit": false,
      "t": 122334.70399999977,
      "d": 3218.282187500008,
      "v": 104
    },
    {
      "midi": 77,
      "hit": false,
      "t": 122372.01741666644,
      "d": 3218.282187500008,
      "v": 104
    },
    {
      "midi": 80,
      "hit": false,
      "t": 122409.33083333311,
      "d": 3218.282187500008,
      "v": 104
    },
    {
      "midi": 84,
      "hit": false,
      "t": 122446.64424999978,
      "d": 3218.282187500008,
      "v": 104
    },
    {
      "midi": 58,
      "hit": false,
      "t": 122782.46499999978,
      "d": 401.1192291666666,
      "v": 104
    },
    {
      "midi": 60,
      "hit": false,
      "t": 123230.22599999978,
      "d": 401.1192291666666,
      "v": 104
    },
    {
      "midi": 60,
      "hit": false,
      "t": 123677.98699999978,
      "d": 401.1192291666666,
      "v": 104
    },
    {
      "midi": 62,
      "hit": false,
      "t": 124125.74799999977,
      "d": 265.8580937499937,
      "v": 104
    },
    {
      "midi": 60,
      "hit": false,
      "t": 124424.2553333331,
      "d": 130.59695833333535,
      "v": 104
    },
    {
      "midi": 62,
      "hit": false,
      "t": 124573.50899999977,
      "d": 265.8580937499937,
      "v": 104
    },
    {
      "midi": 60,
      "hit": false,
      "t": 124872.0163333331,
      "d": 531.716187500002,
      "v": 104
    },
    {
      "midi": 58,
      "hit": false,
      "t": 125916.79199999978,
      "d": 401.1192291666812,
      "v": 104
    },
    {
      "midi": 77,
      "hit": false,
      "t": 125916.79199999978,
      "d": 3218.2821874999936,
      "v": 104
    },
    {
      "midi": 79,
      "hit": false,
      "t": 125954.10541666645,
      "d": 3218.2821874999936,
      "v": 104
    },
    {
      "midi": 82,
      "hit": false,
      "t": 125991.41883333313,
      "d": 3218.2821874999936,
      "v": 104
    },
    {
      "midi": 58,
      "hit": false,
      "t": 126364.5529999998,
      "d": 401.1192291666666,
      "v": 104
    },
    {
      "midi": 60,
      "hit": false,
      "t": 126812.3139999998,
      "d": 401.1192291666666,
      "v": 104
    },
    {
      "midi": 60,
      "hit": false,
      "t": 127260.0749999998,
      "d": 401.1192291666666,
      "v": 104
    },
    {
      "midi": 62,
      "hit": false,
      "t": 127707.83599999979,
      "d": 401.1192291666666,
      "v": 104
    },
    {
      "midi": 62,
      "hit": false,
      "t": 128155.59699999979,
      "d": 401.1192291666666,
      "v": 104
    },
    {
      "midi": 63,
      "hit": false,
      "t": 128603.35799999979,
      "d": 265.8580937499937,
      "v": 104
    },
    {
      "midi": 65,
      "hit": false,
      "t": 128901.86533333312,
      "d": 401.1192291666666,
      "v": 104
    },
    {
      "midi": 67,
      "hit": false,
      "t": 129349.62633333312,
      "d": 2807.834604166681,
      "v": 104
    },
    {
      "midi": 77,
      "hit": false,
      "t": 129498.87999999979,
      "d": 2411.3795520833373,
      "v": 104
    },
    {
      "midi": 79,
      "hit": false,
      "t": 129536.19341666646,
      "d": 2411.3795520833373,
      "v": 104
    },
    {
      "midi": 84,
      "hit": false,
      "t": 129573.50683333313,
      "d": 2411.3795520833373,
      "v": 104
    },
    {
      "midi": 84,
      "hit": false,
      "t": 132185.4459999998,
      "d": 802.2384583333042,
      "v": 104
    },
    {
      "midi": 79,
      "hit": false,
      "t": 132185.4459999998,
      "d": 802.2384583333042,
      "v": 104
    },
    {
      "midi": 76,
      "hit": false,
      "t": 132185.4459999998,
      "d": 802.2384583333042,
      "v": 104
    },
    {
      "midi": 67,
      "hit": false,
      "t": 132483.95333333313,
      "d": 130.59695833333535,
      "v": 104
    },
    {
      "midi": 67,
      "hit": false,
      "t": 132633.2069999998,
      "d": 265.8580937499937,
      "v": 104
    },
    {
      "midi": 67,
      "hit": false,
      "t": 132931.7143333331,
      "d": 396.45505208332906,
      "v": 104
    },
    {
      "midi": 75,
      "hit": false,
      "t": 133080.96799999976,
      "d": 1609.1410937499604,
      "v": 104
    },
    {
      "midi": 79,
      "hit": false,
      "t": 133118.28141666643,
      "d": 1609.1410937499604,
      "v": 104
    },
    {
      "midi": 80,
      "hit": false,
      "t": 133155.5948333331,
      "d": 1609.1410937499604,
      "v": 104
    },
    {
      "midi": 84,
      "hit": false,
      "t": 133192.90824999977,
      "d": 1609.1410937499604,
      "v": 104
    },
    {
      "midi": 63,
      "hit": false,
      "t": 133379.4753333331,
      "d": 130.59695833333535,
      "v": 104
    },
    {
      "midi": 60,
      "hit": false,
      "t": 133528.72899999976,
      "d": 265.8580937499937,
      "v": 104
    },
    {
      "midi": 63,
      "hit": false,
      "t": 133827.23633333307,
      "d": 531.7161874999874,
      "v": 104
    },
    {
      "midi": 62,
      "hit": false,
      "t": 134872.01199999973,
      "d": 401.1192291666812,
      "v": 104
    },
    {
      "midi": 75,
      "hit": false,
      "t": 134872.01199999973,
      "d": 1609.1410937500768,
      "v": 104
    },
    {
      "midi": 77,
      "hit": false,
      "t": 134909.3254166664,
      "d": 1609.1410937500768,
      "v": 104
    },
    {
      "midi": 81,
      "hit": false,
      "t": 134946.63883333307,
      "d": 1609.1410937500768,
      "v": 104
    },
    {
      "midi": 84,
      "hit": false,
      "t": 134983.95224999974,
      "d": 1609.1410937500768,
      "v": 104
    },
    {
      "midi": 63,
      "hit": false,
      "t": 135319.77299999975,
      "d": 401.1192291666812,
      "v": 104
    },
    {
      "midi": 65,
      "hit": false,
      "t": 135767.53399999978,
      "d": 401.1192291666812,
      "v": 104
    },
    {
      "midi": 62,
      "hit": false,
      "t": 136215.2949999998,
      "d": 401.1192291666812,
      "v": 104
    },
    {
      "midi": 58,
      "hit": false,
      "t": 136663.05599999984,
      "d": 802.2384583333333,
      "v": 104
    },
    {
      "midi": 72,
      "hit": false,
      "t": 136663.05599999984,
      "d": 1609.1410937499895,
      "v": 104
    },
    {
      "midi": 75,
      "hit": false,
      "t": 136700.3694166665,
      "d": 1609.1410937499895,
      "v": 104
    },
    {
      "midi": 80,
      "hit": false,
      "t": 136737.68283333318,
      "d": 1609.1410937499895,
      "v": 104
    },
    {
      "midi": 71,
      "hit": false,
      "t": 138454.09999999983,
      "d": 1609.1410937500186,
      "v": 104
    },
    {
      "midi": 83,
      "hit": false,
      "t": 138491.4134166665,
      "d": 1609.1410937500186,
      "v": 104
    },
    {
      "midi": 58,
      "hit": false,
      "t": 140245.14399999985,
      "d": 401.1192291666812,
      "v": 104
    },
    {
      "midi": 55,
      "hit": false,
      "t": 140245.14399999985,
      "d": 401.1192291666812,
      "v": 104
    },
    {
      "midi": 51,
      "hit": false,
      "t": 140245.14399999985,
      "d": 401.1192291666812,
      "v": 104
    },
    {
      "midi": 70,
      "hit": false,
      "t": 140245.14399999985,
      "d": 401.1192291666812,
      "v": 104
    },
    {
      "midi": 58,
      "hit": false,
      "t": 140692.90499999988,
      "d": 401.1192291666812,
      "v": 104
    },
    {
      "midi": 55,
      "hit": false,
      "t": 140692.90499999988,
      "d": 401.1192291666812,
      "v": 104
    },
    {
      "midi": 51,
      "hit": false,
      "t": 140692.90499999988,
      "d": 401.1192291666812,
      "v": 104
    },
    {
      "midi": 70,
      "hit": false,
      "t": 140692.90499999988,
      "d": 401.1192291666812,
      "v": 104
    },
    {
      "midi": 72,
      "hit": false,
      "t": 141140.6659999999,
      "d": 401.1192291666812,
      "v": 104
    },
    {
      "midi": 72,
      "hit": false,
      "t": 141588.42699999994,
      "d": 401.1192291666812,
      "v": 104
    },
    {
      "midi": 74,
      "hit": false,
      "t": 142036.18799999997,
      "d": 265.8580937499937,
      "v": 104
    },
    {
      "midi": 58,
      "hit": false,
      "t": 142036.18799999997,
      "d": 401.1192291666521,
      "v": 104
    },
    {
      "midi": 55,
      "hit": false,
      "t": 142036.18799999997,
      "d": 401.1192291666521,
      "v": 104
    },
    {
      "midi": 51,
      "hit": false,
      "t": 142036.18799999997,
      "d": 401.1192291666521,
      "v": 104
    },
    {
      "midi": 74,
      "hit": false,
      "t": 142334.69533333328,
      "d": 401.1192291666812,
      "v": 104
    },
    {
      "midi": 58,
      "hit": false,
      "t": 142483.94899999996,
      "d": 401.1192291666812,
      "v": 104
    },
    {
      "midi": 55,
      "hit": false,
      "t": 142483.94899999996,
      "d": 401.1192291666812,
      "v": 104
    },
    {
      "midi": 51,
      "hit": false,
      "t": 142483.94899999996,
      "d": 401.1192291666812,
      "v": 104
    },
    {
      "midi": 72,
      "hit": false,
      "t": 142782.4563333333,
      "d": 130.59695833333535,
      "v": 104
    },
    {
      "midi": 70,
      "hit": false,
      "t": 143677.9783333333,
      "d": 531.7161874999874,
      "v": 104
    },
    {
      "midi": 60,
      "hit": false,
      "t": 143827.23199999996,
      "d": 401.1192291666521,
      "v": 104
    },
    {
      "midi": 56,
      "hit": false,
      "t": 143827.23199999996,
      "d": 401.1192291666521,
      "v": 104
    },
    {
      "midi": 53,
      "hit": false,
      "t": 143827.23199999996,
      "d": 401.1192291666521,
      "v": 104
    },
    {
      "midi": 60,
      "hit": false,
      "t": 144274.99299999996,
      "d": 401.1192291666812,
      "v": 104
    },
    {
      "midi": 56,
      "hit": false,
      "t": 144274.99299999996,
      "d": 401.1192291666812,
      "v": 104
    },
    {
      "midi": 53,
      "hit": false,
      "t": 144274.99299999996,
      "d": 401.1192291666812,
      "v": 104
    },
    {
      "midi": 70,
      "hit": false,
      "t": 144274.99299999996,
      "d": 401.1192291666812,
      "v": 104
    },
    {
      "midi": 72,
      "hit": false,
      "t": 144722.754,
      "d": 401.1192291666812,
      "v": 104
    },
    {
      "midi": 72,
      "hit": false,
      "t": 145170.515,
      "d": 401.1192291666812,
      "v": 104
    },
    {
      "midi": 74,
      "hit": false,
      "t": 145618.27600000004,
      "d": 265.8580937499937,
      "v": 104
    },
    {
      "midi": 60,
      "hit": false,
      "t": 145618.27600000004,
      "d": 401.1192291666521,
      "v": 104
    },
    {
      "midi": 56,
      "hit": false,
      "t": 145618.27600000004,
      "d": 401.1192291666521,
      "v": 104
    },
    {
      "midi": 53,
      "hit": false,
      "t": 145618.27600000004,
      "d": 401.1192291666521,
      "v": 104
    },
    {
      "midi": 74,
      "hit": false,
      "t": 145916.78333333335,
      "d": 401.1192291666812,
      "v": 104
    },
    {
      "midi": 60,
      "hit": false,
      "t": 146066.03700000004,
      "d": 401.1192291666812,
      "v": 104
    },
    {
      "midi": 56,
      "hit": false,
      "t": 146066.03700000004,
      "d": 401.1192291666812,
      "v": 104
    },
    {
      "midi": 53,
      "hit": false,
      "t": 146066.03700000004,
      "d": 401.1192291666812,
      "v": 104
    },
    {
      "midi": 72,
      "hit": false,
      "t": 146364.54433333338,
      "d": 130.59695833333535,
      "v": 104
    },
    {
      "midi": 62,
      "hit": false,
      "t": 147409.32000000007,
      "d": 401.1192291666812,
      "v": 104
    },
    {
      "midi": 58,
      "hit": false,
      "t": 147409.32000000007,
      "d": 401.1192291666812,
      "v": 104
    },
    {
      "midi": 55,
      "hit": false,
      "t": 147409.32000000007,
      "d": 401.1192291666812,
      "v": 104
    },
    {
      "midi": 70,
      "hit": false,
      "t": 147409.32000000007,
      "d": 401.1192291666812,
      "v": 104
    },
    {
      "midi": 62,
      "hit": false,
      "t": 147857.0810000001,
      "d": 401.1192291666812,
      "v": 104
    },
    {
      "midi": 58,
      "hit": false,
      "t": 147857.0810000001,
      "d": 401.1192291666812,
      "v": 104
    },
    {
      "midi": 55,
      "hit": false,
      "t": 147857.0810000001,
      "d": 401.1192291666812,
      "v": 104
    },
    {
      "midi": 70,
      "hit": false,
      "t": 147857.0810000001,
      "d": 401.1192291666812,
      "v": 104
    },
    {
      "midi": 72,
      "hit": false,
      "t": 148304.84200000012,
      "d": 401.1192291666812,
      "v": 104
    },
    {
      "midi": 72,
      "hit": false,
      "t": 148752.60300000015,
      "d": 401.1192291666812,
      "v": 104
    },
    {
      "midi": 62,
      "hit": false,
      "t": 149200.36400000018,
      "d": 401.1192291666812,
      "v": 104
    },
    {
      "midi": 58,
      "hit": false,
      "t": 149200.36400000018,
      "d": 401.1192291666812,
      "v": 104
    },
    {
      "midi": 55,
      "hit": false,
      "t": 149200.36400000018,
      "d": 401.1192291666812,
      "v": 104
    },
    {
      "midi": 74,
      "hit": false,
      "t": 149200.36400000018,
      "d": 401.1192291666812,
      "v": 104
    },
    {
      "midi": 62,
      "hit": false,
      "t": 149648.1250000002,
      "d": 401.1192291666812,
      "v": 104
    },
    {
      "midi": 58,
      "hit": false,
      "t": 149648.1250000002,
      "d": 401.1192291666812,
      "v": 104
    },
    {
      "midi": 55,
      "hit": false,
      "t": 149648.1250000002,
      "d": 401.1192291666812,
      "v": 104
    },
    {
      "midi": 74,
      "hit": false,
      "t": 149648.1250000002,
      "d": 401.1192291666812,
      "v": 104
    },
    {
      "midi": 75,
      "hit": false,
      "t": 150095.88600000023,
      "d": 265.8580937499937,
      "v": 104
    },
    {
      "midi": 77,
      "hit": false,
      "t": 150394.39333333354,
      "d": 401.1192291666812,
      "v": 104
    },
    {
      "midi": 79,
      "hit": false,
      "t": 150842.15433333357,
      "d": 1739.738052083354,
      "v": 104
    },
    {
      "midi": 67,
      "hit": false,
      "t": 150991.40800000023,
      "d": 401.1192291666812,
      "v": 104
    },
    {
      "midi": 65,
      "hit": false,
      "t": 150991.40800000023,
      "d": 401.1192291666812,
      "v": 104
    },
    {
      "midi": 60,
      "hit": false,
      "t": 150991.40800000023,
      "d": 401.1192291666812,
      "v": 104
    },
    {
      "midi": 67,
      "hit": false,
      "t": 151439.16900000026,
      "d": 401.1192291666812,
      "v": 104
    },
    {
      "midi": 65,
      "hit": false,
      "t": 151439.16900000026,
      "d": 401.1192291666812,
      "v": 104
    },
    {
      "midi": 60,
      "hit": false,
      "t": 151439.16900000026,
      "d": 401.1192291666812,
      "v": 104
    },
    {
      "midi": 67,
      "hit": false,
      "t": 152185.4373333336,
      "d": 531.7161874999874,
      "v": 104
    },
    {
      "midi": 64,
      "hit": false,
      "t": 152185.4373333336,
      "d": 531.7161874999874,
      "v": 104
    },
    {
      "midi": 60,
      "hit": false,
      "t": 152185.4373333336,
      "d": 531.7161874999874,
      "v": 104
    },
    {
      "midi": 67,
      "hit": false,
      "t": 152782.45200000025,
      "d": 401.1192291666812,
      "v": 104
    },
    {
      "midi": 65,
      "hit": false,
      "t": 152782.45200000025,
      "d": 401.1192291666812,
      "v": 104
    },
    {
      "midi": 60,
      "hit": false,
      "t": 152782.45200000025,
      "d": 401.1192291666812,
      "v": 104
    },
    {
      "midi": 67,
      "hit": false,
      "t": 153230.21300000028,
      "d": 401.1192291666812,
      "v": 104
    },
    {
      "midi": 65,
      "hit": false,
      "t": 153230.21300000028,
      "d": 401.1192291666812,
      "v": 104
    },
    {
      "midi": 60,
      "hit": false,
      "t": 153230.21300000028,
      "d": 401.1192291666812,
      "v": 104
    },
    {
      "midi": 79,
      "hit": false,
      "t": 153976.48133333362,
      "d": 130.59695833333535,
      "v": 104
    },
    {
      "midi": 67,
      "hit": false,
      "t": 153976.48133333362,
      "d": 531.7161874999583,
      "v": 104
    },
    {
      "midi": 64,
      "hit": false,
      "t": 153976.48133333362,
      "d": 531.7161874999583,
      "v": 104
    },
    {
      "midi": 60,
      "hit": false,
      "t": 153976.48133333362,
      "d": 531.7161874999583,
      "v": 104
    },
    {
      "midi": 79,
      "hit": false,
      "t": 154125.73500000028,
      "d": 265.8580937499937,
      "v": 104
    },
    {
      "midi": 79,
      "hit": false,
      "t": 154424.2423333336,
      "d": 396.45505208332906,
      "v": 104
    },
    {
      "midi": 63,
      "hit": false,
      "t": 154573.49600000025,
      "d": 401.1192291666812,
      "v": 104
    },
    {
      "midi": 60,
      "hit": false,
      "t": 154573.49600000025,
      "d": 401.1192291666812,
      "v": 104
    },
    {
      "midi": 56,
      "hit": false,
      "t": 154573.49600000025,
      "d": 401.1192291666812,
      "v": 104
    },
    {
      "midi": 75,
      "hit": false,
      "t": 154872.0033333336,
      "d": 130.59695833333535,
      "v": 104
    },
    {
      "midi": 72,
      "hit": false,
      "t": 155021.25700000025,
      "d": 265.8580937499937,
      "v": 104
    },
    {
      "midi": 63,
      "hit": false,
      "t": 155021.25700000025,
      "d": 401.1192291666521,
      "v": 104
    },
    {
      "midi": 60,
      "hit": false,
      "t": 155021.25700000025,
      "d": 401.1192291666521,
      "v": 104
    },
    {
      "midi": 56,
      "hit": false,
      "t": 155021.25700000025,
      "d": 401.1192291666521,
      "v": 104
    },
    {
      "midi": 75,
      "hit": false,
      "t": 155319.76433333356,
      "d": 130.59695833333535,
      "v": 104
    },
    {
      "midi": 63,
      "hit": false,
      "t": 155469.01800000021,
      "d": 401.1192291666812,
      "v": 104
    },
    {
      "midi": 60,
      "hit": false,
      "t": 155469.01800000021,
      "d": 401.1192291666812,
      "v": 104
    },
    {
      "midi": 56,
      "hit": false,
      "t": 155469.01800000021,
      "d": 401.1192291666812,
      "v": 104
    },
    {
      "midi": 63,
      "hit": false,
      "t": 155916.77900000024,
      "d": 401.1192291666812,
      "v": 104
    },
    {
      "midi": 60,
      "hit": false,
      "t": 155916.77900000024,
      "d": 401.1192291666812,
      "v": 104
    },
    {
      "midi": 56,
      "hit": false,
      "t": 155916.77900000024,
      "d": 401.1192291666812,
      "v": 104
    },
    {
      "midi": 65,
      "hit": false,
      "t": 156364.54000000027,
      "d": 401.1192291666812,
      "v": 104
    },
    {
      "midi": 62,
      "hit": false,
      "t": 156364.54000000027,
      "d": 401.1192291666812,
      "v": 104
    },
    {
      "midi": 58,
      "hit": false,
      "t": 156364.54000000027,
      "d": 401.1192291666812,
      "v": 104
    },
    {
      "midi": 74,
      "hit": false,
      "t": 156364.54000000027,
      "d": 401.1192291666812,
      "v": 104
    },
    {
      "midi": 65,
      "hit": false,
      "t": 156812.3010000003,
      "d": 401.1192291666812,
      "v": 104
    },
    {
      "midi": 62,
      "hit": false,
      "t": 156812.3010000003,
      "d": 401.1192291666812,
      "v": 104
    },
    {
      "midi": 58,
      "hit": false,
      "t": 156812.3010000003,
      "d": 401.1192291666812,
      "v": 104
    },
    {
      "midi": 75,
      "hit": false,
      "t": 156812.3010000003,
      "d": 401.1192291666812,
      "v": 104
    },
    {
      "midi": 65,
      "hit": false,
      "t": 157260.06200000033,
      "d": 401.1192291666812,
      "v": 104
    },
    {
      "midi": 62,
      "hit": false,
      "t": 157260.06200000033,
      "d": 401.1192291666812,
      "v": 104
    },
    {
      "midi": 58,
      "hit": false,
      "t": 157260.06200000033,
      "d": 401.1192291666812,
      "v": 104
    },
    {
      "midi": 56,
      "hit": false,
      "t": 157260.06200000033,
      "d": 401.1192291666812,
      "v": 104
    },
    {
      "midi": 77,
      "hit": false,
      "t": 157260.06200000033,
      "d": 401.1192291666812,
      "v": 104
    },
    {
      "midi": 65,
      "hit": false,
      "t": 157707.82300000035,
      "d": 401.1192291666812,
      "v": 104
    },
    {
      "midi": 62,
      "hit": false,
      "t": 157707.82300000035,
      "d": 401.1192291666812,
      "v": 104
    },
    {
      "midi": 58,
      "hit": false,
      "t": 157707.82300000035,
      "d": 401.1192291666812,
      "v": 104
    },
    {
      "midi": 56,
      "hit": false,
      "t": 157707.82300000035,
      "d": 401.1192291666812,
      "v": 104
    },
    {
      "midi": 74,
      "hit": false,
      "t": 157707.82300000035,
      "d": 401.1192291666812,
      "v": 104
    },
    {
      "midi": 65,
      "hit": false,
      "t": 158155.58400000038,
      "d": 401.1192291666812,
      "v": 104
    },
    {
      "midi": 62,
      "hit": false,
      "t": 158155.58400000038,
      "d": 401.1192291666812,
      "v": 104
    },
    {
      "midi": 55,
      "hit": false,
      "t": 158155.58400000038,
      "d": 401.1192291666812,
      "v": 104
    },
    {
      "midi": 70,
      "hit": false,
      "t": 158155.58400000038,
      "d": 401.1192291666812,
      "v": 104
    },
    {
      "midi": 65,
      "hit": false,
      "t": 158603.3450000004,
      "d": 401.1192291666812,
      "v": 104
    },
    {
      "midi": 62,
      "hit": false,
      "t": 158603.3450000004,
      "d": 401.1192291666812,
      "v": 104
    },
    {
      "midi": 55,
      "hit": false,
      "t": 158603.3450000004,
      "d": 401.1192291666812,
      "v": 104
    },
    {
      "midi": 65,
      "hit": false,
      "t": 159051.10600000044,
      "d": 401.1192291666812,
      "v": 104
    },
    {
      "midi": 62,
      "hit": false,
      "t": 159051.10600000044,
      "d": 401.1192291666812,
      "v": 104
    },
    {
      "midi": 55,
      "hit": false,
      "t": 159051.10600000044,
      "d": 401.1192291666812,
      "v": 104
    },
    {
      "midi": 65,
      "hit": false,
      "t": 159498.86700000046,
      "d": 401.1192291666812,
      "v": 104
    },
    {
      "midi": 62,
      "hit": false,
      "t": 159498.86700000046,
      "d": 401.1192291666812,
      "v": 104
    },
    {
      "midi": 55,
      "hit": false,
      "t": 159498.86700000046,
      "d": 401.1192291666812,
      "v": 104
    },
    {
      "midi": 67,
      "hit": false,
      "t": 159946.6280000005,
      "d": 401.1192291666812,
      "v": 104
    },
    {
      "midi": 63,
      "hit": false,
      "t": 159946.6280000005,
      "d": 401.1192291666812,
      "v": 104
    },
    {
      "midi": 60,
      "hit": false,
      "t": 159946.6280000005,
      "d": 401.1192291666812,
      "v": 104
    },
    {
      "midi": 70,
      "hit": false,
      "t": 159946.6280000005,
      "d": 666.977322916704,
      "v": 104
    },
    {
      "midi": 67,
      "hit": false,
      "t": 160394.38900000052,
      "d": 401.1192291666812,
      "v": 104
    },
    {
      "midi": 63,
      "hit": false,
      "t": 160394.38900000052,
      "d": 401.1192291666812,
      "v": 104
    },
    {
      "midi": 60,
      "hit": false,
      "t": 160394.38900000052,
      "d": 401.1192291666812,
      "v": 104
    },
    {
      "midi": 72,
      "hit": false,
      "t": 160692.89633333386,
      "d": 531.7161875000165,
      "v": 104
    },
    {
      "midi": 67,
      "hit": false,
      "t": 160842.15000000055,
      "d": 401.1192291666521,
      "v": 104
    },
    {
      "midi": 63,
      "hit": false,
      "t": 160842.15000000055,
      "d": 401.1192291666521,
      "v": 104
    },
    {
      "midi": 60,
      "hit": false,
      "t": 160842.15000000055,
      "d": 401.1192291666521,
      "v": 104
    },
    {
      "midi": 67,
      "hit": false,
      "t": 161289.91100000055,
      "d": 401.1192291666812,
      "v": 104
    },
    {
      "midi": 63,
      "hit": false,
      "t": 161289.91100000055,
      "d": 401.1192291666812,
      "v": 104
    },
    {
      "midi": 60,
      "hit": false,
      "t": 161289.91100000055,
      "d": 401.1192291666812,
      "v": 104
    },
    {
      "midi": 74,
      "hit": false,
      "t": 161289.91100000055,
      "d": 401.1192291666812,
      "v": 104
    },
    {
      "midi": 60,
      "hit": false,
      "t": 161737.67200000057,
      "d": 401.1192291666812,
      "v": 104
    },
    {
      "midi": 56,
      "hit": false,
      "t": 161737.67200000057,
      "d": 401.1192291666812,
      "v": 104
    },
    {
      "midi": 53,
      "hit": false,
      "t": 161737.67200000057,
      "d": 401.1192291666812,
      "v": 104
    },
    {
      "midi": 75,
      "hit": false,
      "t": 161737.67200000057,
      "d": 2010.2603229167871,
      "v": 104
    },
    {
      "midi": 60,
      "hit": false,
      "t": 162185.4330000006,
      "d": 401.1192291666812,
      "v": 104
    },
    {
      "midi": 56,
      "hit": false,
      "t": 162185.4330000006,
      "d": 401.1192291666812,
      "v": 104
    },
    {
      "midi": 53,
      "hit": false,
      "t": 162185.4330000006,
      "d": 401.1192291666812,
      "v": 104
    },
    {
      "midi": 60,
      "hit": false,
      "t": 162633.19400000063,
      "d": 401.1192291666812,
      "v": 104
    },
    {
      "midi": 56,
      "hit": false,
      "t": 162633.19400000063,
      "d": 401.1192291666812,
      "v": 104
    },
    {
      "midi": 53,
      "hit": false,
      "t": 162633.19400000063,
      "d": 401.1192291666812,
      "v": 104
    },
    {
      "midi": 60,
      "hit": false,
      "t": 163080.95500000066,
      "d": 401.1192291666812,
      "v": 104
    },
    {
      "midi": 56,
      "hit": false,
      "t": 163080.95500000066,
      "d": 401.1192291666812,
      "v": 104
    },
    {
      "midi": 53,
      "hit": false,
      "t": 163080.95500000066,
      "d": 401.1192291666812,
      "v": 104
    },
    {
      "midi": 41,
      "hit": false,
      "t": 163528.71600000068,
      "d": 401.1192291666812,
      "v": 104
    },
    {
      "midi": 43,
      "hit": false,
      "t": 163976.4770000007,
      "d": 401.1192291666812,
      "v": 104
    },
    {
      "midi": 79,
      "hit": false,
      "t": 164424.23800000074,
      "d": 265.8580937499937,
      "v": 104
    },
    {
      "midi": 44,
      "hit": false,
      "t": 164424.23800000074,
      "d": 401.1192291666521,
      "v": 104
    },
    {
      "midi": 80,
      "hit": false,
      "t": 164722.74533333405,
      "d": 130.59695833333535,
      "v": 104
    },
    {
      "midi": 79,
      "hit": false,
      "t": 164871.9990000007,
      "d": 265.8580937499937,
      "v": 104
    },
    {
      "midi": 48,
      "hit": false,
      "t": 164871.9990000007,
      "d": 401.1192291666521,
      "v": 104
    },
    {
      "midi": 77,
      "hit": false,
      "t": 165170.50633333402,
      "d": 1739.7380520834413,
      "v": 104
    },
    {
      "midi": 73,
      "hit": false,
      "t": 165170.50633333402,
      "d": 1739.7380520834413,
      "v": 104
    },
    {
      "midi": 72,
      "hit": false,
      "t": 165170.50633333402,
      "d": 1739.7380520834413,
      "v": 104
    },
    {
      "midi": 68,
      "hit": false,
      "t": 165170.50633333402,
      "d": 1739.7380520834413,
      "v": 104
    },
    {
      "midi": 49,
      "hit": false,
      "t": 165319.7600000007,
      "d": 401.1192291666812,
      "v": 104
    },
    {
      "midi": 51,
      "hit": false,
      "t": 165767.52100000074,
      "d": 401.1192291666812,
      "v": 104
    },
    {
      "midi": 53,
      "hit": false,
      "t": 166215.28200000076,
      "d": 401.1192291666812,
      "v": 104
    },
    {
      "midi": 56,
      "hit": false,
      "t": 166663.0430000008,
      "d": 401.1192291666812,
      "v": 104
    },
    {
      "midi": 46,
      "hit": false,
      "t": 167110.80400000082,
      "d": 666.9773229166749,
      "v": 104
    },
    {
      "midi": 75,
      "hit": false,
      "t": 167110.80400000082,
      "d": 666.9773229166749,
      "v": 104
    },
    {
      "midi": 72,
      "hit": false,
      "t": 167110.80400000082,
      "d": 666.9773229166749,
      "v": 104
    },
    {
      "midi": 68,
      "hit": false,
      "t": 167110.80400000082,
      "d": 666.9773229166749,
      "v": 104
    },
    {
      "midi": 46,
      "hit": false,
      "t": 167857.07233333416,
      "d": 932.8354166666686,
      "v": 104
    },
    {
      "midi": 77,
      "hit": false,
      "t": 167857.07233333416,
      "d": 932.8354166666686,
      "v": 104
    },
    {
      "midi": 74,
      "hit": false,
      "t": 167857.07233333416,
      "d": 932.8354166666686,
      "v": 104
    },
    {
      "midi": 68,
      "hit": false,
      "t": 167857.07233333416,
      "d": 932.8354166666686,
      "v": 104
    },
    {
      "midi": 51,
      "hit": false,
      "t": 168901.84800000084,
      "d": 401.1192291666812,
      "v": 104
    },
    {
      "midi": 48,
      "hit": false,
      "t": 168901.84800000084,
      "d": 401.1192291666812,
      "v": 104
    },
    {
      "midi": 44,
      "hit": false,
      "t": 168901.84800000084,
      "d": 401.1192291666812,
      "v": 104
    },
    {
      "midi": 70,
      "hit": false,
      "t": 168901.84800000084,
      "d": 401.1192291666812,
      "v": 104
    },
    {
      "midi": 51,
      "hit": false,
      "t": 169349.60900000087,
      "d": 401.1192291666812,
      "v": 104
    },
    {
      "midi": 48,
      "hit": false,
      "t": 169349.60900000087,
      "d": 401.1192291666812,
      "v": 104
    },
    {
      "midi": 44,
      "hit": false,
      "t": 169349.60900000087,
      "d": 401.1192291666812,
      "v": 104
    },
    {
      "midi": 63,
      "hit": false,
      "t": 169349.60900000087,
      "d": 401.1192291666812,
      "v": 104
    },
    {
      "midi": 63,
      "hit": false,
      "t": 169797.3700000009,
      "d": 265.8580937499937,
      "v": 104
    },
    {
      "midi": 51,
      "hit": false,
      "t": 169797.3700000009,
      "d": 401.1192291666521,
      "v": 104
    },
    {
      "midi": 48,
      "hit": false,
      "t": 169797.3700000009,
      "d": 401.1192291666521,
      "v": 104
    },
    {
      "midi": 44,
      "hit": false,
      "t": 169797.3700000009,
      "d": 401.1192291666521,
      "v": 104
    },
    {
      "midi": 60,
      "hit": false,
      "t": 170095.8773333342,
      "d": 130.59695833333535,
      "v": 104
    },
    {
      "midi": 63,
      "hit": false,
      "t": 170245.13100000087,
      "d": 265.8580937499937,
      "v": 104
    },
    {
      "midi": 51,
      "hit": false,
      "t": 170245.13100000087,
      "d": 401.1192291666521,
      "v": 104
    },
    {
      "midi": 48,
      "hit": false,
      "t": 170245.13100000087,
      "d": 401.1192291666521,
      "v": 104
    },
    {
      "midi": 44,
      "hit": false,
      "t": 170245.13100000087,
      "d": 401.1192291666521,
      "v": 104
    },
    {
      "midi": 67,
      "hit": false,
      "t": 170543.63833333418,
      "d": 531.7161875000165,
      "v": 104
    },
    {
      "midi": 53,
      "hit": false,
      "t": 170692.89200000087,
      "d": 401.1192291666521,
      "v": 104
    },
    {
      "midi": 50,
      "hit": false,
      "t": 170692.89200000087,
      "d": 401.1192291666521,
      "v": 104
    },
    {
      "midi": 46,
      "hit": false,
      "t": 170692.89200000087,
      "d": 401.1192291666521,
      "v": 104
    },
    {
      "midi": 44,
      "hit": false,
      "t": 170692.89200000087,
      "d": 401.1192291666521,
      "v": 104
    },
    {
      "midi": 53,
      "hit": false,
      "t": 171140.65300000086,
      "d": 401.1192291666812,
      "v": 104
    },
    {
      "midi": 50,
      "hit": false,
      "t": 171140.65300000086,
      "d": 401.1192291666812,
      "v": 104
    },
    {
      "midi": 46,
      "hit": false,
      "t": 171140.65300000086,
      "d": 401.1192291666812,
      "v": 104
    },
    {
      "midi": 44,
      "hit": false,
      "t": 171140.65300000086,
      "d": 401.1192291666812,
      "v": 104
    },
    {
      "midi": 65,
      "hit": false,
      "t": 171140.65300000086,
      "d": 401.1192291666812,
      "v": 104
    },
    {
      "midi": 63,
      "hit": false,
      "t": 171588.4140000009,
      "d": 265.8580937499937,
      "v": 104
    },
    {
      "midi": 53,
      "hit": false,
      "t": 171588.4140000009,
      "d": 401.1192291666521,
      "v": 104
    },
    {
      "midi": 50,
      "hit": false,
      "t": 171588.4140000009,
      "d": 401.1192291666521,
      "v": 104
    },
    {
      "midi": 46,
      "hit": false,
      "t": 171588.4140000009,
      "d": 401.1192291666521,
      "v": 104
    },
    {
      "midi": 44,
      "hit": false,
      "t": 171588.4140000009,
      "d": 401.1192291666521,
      "v": 104
    },
    {
      "midi": 65,
      "hit": false,
      "t": 171886.9213333342,
      "d": 531.7161875000165,
      "v": 104
    },
    {
      "midi": 53,
      "hit": false,
      "t": 172036.1750000009,
      "d": 401.1192291666521,
      "v": 104
    },
    {
      "midi": 50,
      "hit": false,
      "t": 172036.1750000009,
      "d": 401.1192291666521,
      "v": 104
    },
    {
      "midi": 46,
      "hit": false,
      "t": 172036.1750000009,
      "d": 401.1192291666521,
      "v": 104
    },
    {
      "midi": 44,
      "hit": false,
      "t": 172036.1750000009,
      "d": 401.1192291666521,
      "v": 104
    },
    {
      "midi": 53,
      "hit": false,
      "t": 172483.9360000009,
      "d": 401.1192291666812,
      "v": 104
    },
    {
      "midi": 50,
      "hit": false,
      "t": 172483.9360000009,
      "d": 401.1192291666812,
      "v": 104
    },
    {
      "midi": 43,
      "hit": false,
      "t": 172483.9360000009,
      "d": 401.1192291666812,
      "v": 104
    },
    {
      "midi": 70,
      "hit": false,
      "t": 172483.9360000009,
      "d": 401.1192291666812,
      "v": 104
    },
    {
      "midi": 53,
      "hit": false,
      "t": 172931.69700000092,
      "d": 401.1192291666812,
      "v": 104
    },
    {
      "midi": 50,
      "hit": false,
      "t": 172931.69700000092,
      "d": 401.1192291666812,
      "v": 104
    },
    {
      "midi": 43,
      "hit": false,
      "t": 172931.69700000092,
      "d": 401.1192291666812,
      "v": 104
    },
    {
      "midi": 62,
      "hit": false,
      "t": 172931.69700000092,
      "d": 401.1192291666812,
      "v": 104
    },
    {
      "midi": 62,
      "hit": false,
      "t": 173379.45800000094,
      "d": 265.8580937499937,
      "v": 104
    },
    {
      "midi": 53,
      "hit": false,
      "t": 173379.45800000094,
      "d": 401.1192291666521,
      "v": 104
    },
    {
      "midi": 50,
      "hit": false,
      "t": 173379.45800000094,
      "d": 401.1192291666521,
      "v": 104
    },
    {
      "midi": 43,
      "hit": false,
      "t": 173379.45800000094,
      "d": 401.1192291666521,
      "v": 104
    },
    {
      "midi": 61,
      "hit": false,
      "t": 173677.96533333426,
      "d": 130.59695833333535,
      "v": 104
    },
    {
      "midi": 62,
      "hit": false,
      "t": 173827.2190000009,
      "d": 265.8580937499937,
      "v": 104
    },
    {
      "midi": 53,
      "hit": false,
      "t": 173827.2190000009,
      "d": 401.1192291666521,
      "v": 104
    },
    {
      "midi": 50,
      "hit": false,
      "t": 173827.2190000009,
      "d": 401.1192291666521,
      "v": 104
    },
    {
      "midi": 43,
      "hit": false,
      "t": 173827.2190000009,
      "d": 401.1192291666521,
      "v": 104
    },
    {
      "midi": 68,
      "hit": false,
      "t": 174125.72633333423,
      "d": 531.7161875000165,
      "v": 104
    },
    {
      "midi": 48,
      "hit": false,
      "t": 174274.9800000009,
      "d": 401.1192291666521,
      "v": 104
    },
    {
      "midi": 50,
      "hit": false,
      "t": 174722.7410000009,
      "d": 401.1192291666812,
      "v": 104
    },
    {
      "midi": 67,
      "hit": false,
      "t": 174722.7410000009,
      "d": 401.1192291666812,
      "v": 104
    },
    {
      "midi": 66,
      "hit": false,
      "t": 175170.50200000094,
      "d": 265.8580937499937,
      "v": 104
    },
    {
      "midi": 52,
      "hit": false,
      "t": 175170.50200000094,
      "d": 401.1192291666521,
      "v": 104
    },
    {
      "midi": 67,
      "hit": false,
      "t": 175469.00933333425,
      "d": 531.7161875000165,
      "v": 104
    },
    {
      "midi": 48,
      "hit": false,
      "t": 175618.26300000094,
      "d": 401.1192291666521,
      "v": 104
    },
    {
      "midi": 60,
      "hit": false,
      "t": 176066.02400000094,
      "d": 401.1192291666812,
      "v": 104
    },
    {
      "midi": 56,
      "hit": false,
      "t": 176066.02400000094,
      "d": 401.1192291666812,
      "v": 104
    },
    {
      "midi": 53,
      "hit": false,
      "t": 176066.02400000094,
      "d": 401.1192291666812,
      "v": 104
    },
    {
      "midi": 70,
      "hit": false,
      "t": 176066.02400000094,
      "d": 401.1192291666812,
      "v": 104
    },
    {
      "midi": 60,
      "hit": false,
      "t": 176513.78500000096,
      "d": 401.1192291666812,
      "v": 104
    },
    {
      "midi": 56,
      "hit": false,
      "t": 176513.78500000096,
      "d": 401.1192291666812,
      "v": 104
    },
    {
      "midi": 53,
      "hit": false,
      "t": 176513.78500000096,
      "d": 401.1192291666812,
      "v": 104
    },
    {
      "midi": 72,
      "hit": false,
      "t": 176513.78500000096,
      "d": 401.1192291666812,
      "v": 104
    },
    {
      "midi": 60,
      "hit": false,
      "t": 176961.546000001,
      "d": 401.1192291666812,
      "v": 104
    },
    {
      "midi": 56,
      "hit": false,
      "t": 176961.546000001,
      "d": 401.1192291666812,
      "v": 104
    },
    {
      "midi": 53,
      "hit": false,
      "t": 176961.546000001,
      "d": 401.1192291666812,
      "v": 104
    },
    {
      "midi": 63,
      "hit": false,
      "t": 176961.546000001,
      "d": 401.1192291666812,
      "v": 104
    },
    {
      "midi": 60,
      "hit": false,
      "t": 177409.30700000102,
      "d": 265.8580937499937,
      "v": 104
    },
    {
      "midi": 56,
      "hit": false,
      "t": 177409.30700000102,
      "d": 401.1192291666521,
      "v": 104
    },
    {
      "midi": 53,
      "hit": false,
      "t": 177409.30700000102,
      "d": 401.1192291666521,
      "v": 104
    },
    {
      "midi": 68,
      "hit": false,
      "t": 177707.81433333433,
      "d": 531.7161875000165,
      "v": 104
    },
    {
      "midi": 56,
      "hit": false,
      "t": 177857.06800000102,
      "d": 401.1192291666521,
      "v": 104
    },
    {
      "midi": 51,
      "hit": false,
      "t": 177857.06800000102,
      "d": 401.1192291666521,
      "v": 104
    },
    {
      "midi": 46,
      "hit": false,
      "t": 177857.06800000102,
      "d": 401.1192291666521,
      "v": 104
    },
    {
      "midi": 56,
      "hit": false,
      "t": 178304.82900000102,
      "d": 401.1192291666812,
      "v": 104
    },
    {
      "midi": 51,
      "hit": false,
      "t": 178304.82900000102,
      "d": 401.1192291666812,
      "v": 104
    },
    {
      "midi": 46,
      "hit": false,
      "t": 178304.82900000102,
      "d": 401.1192291666812,
      "v": 104
    },
    {
      "midi": 67,
      "hit": false,
      "t": 178304.82900000102,
      "d": 401.1192291666812,
      "v": 104
    },
    {
      "midi": 63,
      "hit": false,
      "t": 178752.59000000104,
      "d": 265.8580937499937,
      "v": 104
    },
    {
      "midi": 56,
      "hit": false,
      "t": 178752.59000000104,
      "d": 401.1192291666521,
      "v": 104
    },
    {
      "midi": 51,
      "hit": false,
      "t": 178752.59000000104,
      "d": 401.1192291666521,
      "v": 104
    },
    {
      "midi": 46,
      "hit": false,
      "t": 178752.59000000104,
      "d": 401.1192291666521,
      "v": 104
    },
    {
      "midi": 65,
      "hit": false,
      "t": 179051.09733333436,
      "d": 401.1192291666812,
      "v": 104
    },
    {
      "midi": 56,
      "hit": false,
      "t": 179200.35100000104,
      "d": 401.1192291666812,
      "v": 104
    },
    {
      "midi": 51,
      "hit": false,
      "t": 179200.35100000104,
      "d": 401.1192291666812,
      "v": 104
    },
    {
      "midi": 46,
      "hit": false,
      "t": 179200.35100000104,
      "d": 401.1192291666812,
      "v": 104
    },
    {
      "midi": 67,
      "hit": false,
      "t": 179498.85833333438,
      "d": 1739.7380520834413,
      "v": 104
    },
    {
      "midi": 62,
      "hit": false,
      "t": 179498.85833333438,
      "d": 1739.7380520834413,
      "v": 104
    },
    {
      "midi": 58,
      "hit": false,
      "t": 179648.11200000107,
      "d": 401.1192291666812,
      "v": 104
    },
    {
      "midi": 55,
      "hit": false,
      "t": 179648.11200000107,
      "d": 401.1192291666812,
      "v": 104
    },
    {
      "midi": 51,
      "hit": false,
      "t": 179648.11200000107,
      "d": 401.1192291666812,
      "v": 104
    },
    {
      "midi": 58,
      "hit": false,
      "t": 180095.8730000011,
      "d": 401.1192291666812,
      "v": 104
    },
    {
      "midi": 55,
      "hit": false,
      "t": 180095.8730000011,
      "d": 401.1192291666812,
      "v": 104
    },
    {
      "midi": 51,
      "hit": false,
      "t": 180095.8730000011,
      "d": 401.1192291666812,
      "v": 104
    },
    {
      "midi": 58,
      "hit": false,
      "t": 180543.63400000113,
      "d": 401.1192291666812,
      "v": 104
    },
    {
      "midi": 55,
      "hit": false,
      "t": 180543.63400000113,
      "d": 401.1192291666812,
      "v": 104
    },
    {
      "midi": 51,
      "hit": false,
      "t": 180543.63400000113,
      "d": 401.1192291666812,
      "v": 104
    },
    {
      "midi": 58,
      "hit": false,
      "t": 180991.39500000115,
      "d": 401.1192291666812,
      "v": 104
    },
    {
      "midi": 55,
      "hit": false,
      "t": 180991.39500000115,
      "d": 401.1192291666812,
      "v": 104
    },
    {
      "midi": 51,
      "hit": false,
      "t": 180991.39500000115,
      "d": 401.1192291666812,
      "v": 104
    },
    {
      "midi": 39,
      "hit": false,
      "t": 181439.15600000118,
      "d": 401.1192291666812,
      "v": 104
    },
    {
      "midi": 67,
      "hit": false,
      "t": 181439.15600000118,
      "d": 401.1192291666812,
      "v": 104
    },
    {
      "midi": 63,
      "hit": false,
      "t": 181439.15600000118,
      "d": 401.1192291666812,
      "v": 104
    },
    {
      "midi": 41,
      "hit": false,
      "t": 181886.9170000012,
      "d": 401.1192291666812,
      "v": 104
    },
    {
      "midi": 68,
      "hit": false,
      "t": 181886.9170000012,
      "d": 401.1192291666812,
      "v": 104
    },
    {
      "midi": 65,
      "hit": false,
      "t": 181886.9170000012,
      "d": 401.1192291666812,
      "v": 104
    },
    {
      "midi": 42,
      "hit": false,
      "t": 182334.67800000124,
      "d": 401.1192291666812,
      "v": 104
    },
    {
      "midi": 69,
      "hit": false,
      "t": 182334.67800000124,
      "d": 401.1192291666812,
      "v": 104
    },
    {
      "midi": 66,
      "hit": false,
      "t": 182334.67800000124,
      "d": 401.1192291666812,
      "v": 104
    },
    {
      "midi": 43,
      "hit": false,
      "t": 182782.43900000126,
      "d": 401.1192291666812,
      "v": 104
    },
    {
      "midi": 70,
      "hit": false,
      "t": 182782.43900000126,
      "d": 401.1192291666812,
      "v": 104
    },
    {
      "midi": 67,
      "hit": false,
      "t": 182782.43900000126,
      "d": 401.1192291666812,
      "v": 104
    },
    {
      "midi": 51,
      "hit": false,
      "t": 183230.2000000013,
      "d": 401.1192291666812,
      "v": 104
    },
    {
      "midi": 48,
      "hit": false,
      "t": 183230.2000000013,
      "d": 401.1192291666812,
      "v": 104
    },
    {
      "midi": 44,
      "hit": false,
      "t": 183230.2000000013,
      "d": 401.1192291666812,
      "v": 104
    },
    {
      "midi": 70,
      "hit": false,
      "t": 183230.2000000013,
      "d": 401.1192291666812,
      "v": 104
    },
    {
      "midi": 51,
      "hit": false,
      "t": 183677.96100000132,
      "d": 401.1192291666812,
      "v": 104
    },
    {
      "midi": 48,
      "hit": false,
      "t": 183677.96100000132,
      "d": 401.1192291666812,
      "v": 104
    },
    {
      "midi": 44,
      "hit": false,
      "t": 183677.96100000132,
      "d": 401.1192291666812,
      "v": 104
    },
    {
      "midi": 63,
      "hit": false,
      "t": 183677.96100000132,
      "d": 401.1192291666812,
      "v": 104
    },
    {
      "midi": 63,
      "hit": false,
      "t": 184125.72200000135,
      "d": 265.8580937499937,
      "v": 104
    },
    {
      "midi": 51,
      "hit": false,
      "t": 184125.72200000135,
      "d": 401.1192291666521,
      "v": 104
    },
    {
      "midi": 48,
      "hit": false,
      "t": 184125.72200000135,
      "d": 401.1192291666521,
      "v": 104
    },
    {
      "midi": 44,
      "hit": false,
      "t": 184125.72200000135,
      "d": 401.1192291666521,
      "v": 104
    },
    {
      "midi": 60,
      "hit": false,
      "t": 184424.22933333466,
      "d": 130.59695833333535,
      "v": 104
    },
    {
      "midi": 63,
      "hit": false,
      "t": 184573.48300000132,
      "d": 265.8580937499937,
      "v": 104
    },
    {
      "midi": 51,
      "hit": false,
      "t": 184573.48300000132,
      "d": 401.1192291666521,
      "v": 104
    },
    {
      "midi": 48,
      "hit": false,
      "t": 184573.48300000132,
      "d": 401.1192291666521,
      "v": 104
    },
    {
      "midi": 44,
      "hit": false,
      "t": 184573.48300000132,
      "d": 401.1192291666521,
      "v": 104
    },
    {
      "midi": 67,
      "hit": false,
      "t": 184871.99033333463,
      "d": 531.7161875000165,
      "v": 104
    },
    {
      "midi": 51,
      "hit": false,
      "t": 185021.24400000132,
      "d": 401.1192291666521,
      "v": 104
    },
    {
      "midi": 48,
      "hit": false,
      "t": 185021.24400000132,
      "d": 401.1192291666521,
      "v": 104
    },
    {
      "midi": 41,
      "hit": false,
      "t": 185021.24400000132,
      "d": 401.1192291666521,
      "v": 104
    },
    {
      "midi": 51,
      "hit": false,
      "t": 185469.0050000013,
      "d": 401.1192291666812,
      "v": 104
    },
    {
      "midi": 48,
      "hit": false,
      "t": 185469.0050000013,
      "d": 401.1192291666812,
      "v": 104
    },
    {
      "midi": 41,
      "hit": false,
      "t": 185469.0050000013,
      "d": 401.1192291666812,
      "v": 104
    },
    {
      "midi": 65,
      "hit": false,
      "t": 185469.0050000013,
      "d": 401.1192291666812,
      "v": 104
    },
    {
      "midi": 63,
      "hit": false,
      "t": 185916.76600000134,
      "d": 265.8580937499937,
      "v": 104
    },
    {
      "midi": 53,
      "hit": false,
      "t": 185916.76600000134,
      "d": 401.1192291666521,
      "v": 104
    },
    {
      "midi": 50,
      "hit": false,
      "t": 185916.76600000134,
      "d": 401.1192291666521,
      "v": 104
    },
    {
      "midi": 46,
      "hit": false,
      "t": 185916.76600000134,
      "d": 401.1192291666521,
      "v": 104
    },
    {
      "midi": 65,
      "hit": false,
      "t": 186215.27333333466,
      "d": 531.7161875000165,
      "v": 104
    },
    {
      "midi": 53,
      "hit": false,
      "t": 186364.52700000134,
      "d": 401.1192291666521,
      "v": 104
    },
    {
      "midi": 50,
      "hit": false,
      "t": 186364.52700000134,
      "d": 401.1192291666521,
      "v": 104
    },
    {
      "midi": 46,
      "hit": false,
      "t": 186364.52700000134,
      "d": 401.1192291666521,
      "v": 104
    },
    {
      "midi": 53,
      "hit": false,
      "t": 186812.28800000134,
      "d": 401.1192291666812,
      "v": 104
    },
    {
      "midi": 50,
      "hit": false,
      "t": 186812.28800000134,
      "d": 401.1192291666812,
      "v": 104
    },
    {
      "midi": 43,
      "hit": false,
      "t": 186812.28800000134,
      "d": 401.1192291666812,
      "v": 104
    },
    {
      "midi": 70,
      "hit": false,
      "t": 186812.28800000134,
      "d": 401.1192291666812,
      "v": 104
    },
    {
      "midi": 53,
      "hit": false,
      "t": 187260.04900000137,
      "d": 401.1192291666812,
      "v": 104
    },
    {
      "midi": 50,
      "hit": false,
      "t": 187260.04900000137,
      "d": 401.1192291666812,
      "v": 104
    },
    {
      "midi": 43,
      "hit": false,
      "t": 187260.04900000137,
      "d": 401.1192291666812,
      "v": 104
    },
    {
      "midi": 62,
      "hit": false,
      "t": 187260.04900000137,
      "d": 401.1192291666812,
      "v": 104
    },
    {
      "midi": 62,
      "hit": false,
      "t": 187707.8100000014,
      "d": 265.8580937499937,
      "v": 104
    },
    {
      "midi": 53,
      "hit": false,
      "t": 187707.8100000014,
      "d": 401.1192291666521,
      "v": 104
    },
    {
      "midi": 50,
      "hit": false,
      "t": 187707.8100000014,
      "d": 401.1192291666521,
      "v": 104
    },
    {
      "midi": 43,
      "hit": false,
      "t": 187707.8100000014,
      "d": 401.1192291666521,
      "v": 104
    },
    {
      "midi": 61,
      "hit": false,
      "t": 188006.3173333347,
      "d": 130.59695833333535,
      "v": 104
    },
    {
      "midi": 62,
      "hit": false,
      "t": 188155.57100000136,
      "d": 265.8580937499937,
      "v": 104
    },
    {
      "midi": 53,
      "hit": false,
      "t": 188155.57100000136,
      "d": 401.1192291666521,
      "v": 104
    },
    {
      "midi": 50,
      "hit": false,
      "t": 188155.57100000136,
      "d": 401.1192291666521,
      "v": 104
    },
    {
      "midi": 43,
      "hit": false,
      "t": 188155.57100000136,
      "d": 401.1192291666521,
      "v": 104
    },
    {
      "midi": 68,
      "hit": false,
      "t": 188454.07833333468,
      "d": 531.7161875000165,
      "v": 104
    },
    {
      "midi": 48,
      "hit": false,
      "t": 188603.33200000136,
      "d": 401.1192291666521,
      "v": 104
    },
    {
      "midi": 50,
      "hit": false,
      "t": 189051.09300000136,
      "d": 401.1192291666812,
      "v": 104
    },
    {
      "midi": 67,
      "hit": false,
      "t": 189051.09300000136,
      "d": 401.1192291666812,
      "v": 104
    },
    {
      "midi": 66,
      "hit": false,
      "t": 189498.8540000014,
      "d": 265.8580937499937,
      "v": 104
    },
    {
      "midi": 52,
      "hit": false,
      "t": 189498.8540000014,
      "d": 401.1192291666521,
      "v": 104
    },
    {
      "midi": 67,
      "hit": false,
      "t": 189797.3613333347,
      "d": 531.7161875000165,
      "v": 104
    },
    {
      "midi": 48,
      "hit": false,
      "t": 189946.6150000014,
      "d": 401.1192291666521,
      "v": 104
    },
    {
      "midi": 41,
      "hit": false,
      "t": 190394.3760000014,
      "d": 401.1192291666812,
      "v": 104
    },
    {
      "midi": 70,
      "hit": false,
      "t": 190394.3760000014,
      "d": 401.1192291666812,
      "v": 104
    },
    {
      "midi": 65,
      "hit": false,
      "t": 190394.3760000014,
      "d": 401.1192291666812,
      "v": 104
    },
    {
      "midi": 43,
      "hit": false,
      "t": 190842.1370000014,
      "d": 401.1192291666812,
      "v": 104
    },
    {
      "midi": 72,
      "hit": false,
      "t": 190842.1370000014,
      "d": 401.1192291666812,
      "v": 104
    },
    {
      "midi": 44,
      "hit": false,
      "t": 191289.89800000144,
      "d": 401.1192291666812,
      "v": 104
    },
    {
      "midi": 63,
      "hit": false,
      "t": 191289.89800000144,
      "d": 401.1192291666812,
      "v": 104
    },
    {
      "midi": 60,
      "hit": false,
      "t": 191737.65900000147,
      "d": 265.8580937499937,
      "v": 104
    },
    {
      "midi": 68,
      "hit": false,
      "t": 192036.16633333478,
      "d": 531.7161874999874,
      "v": 104
    },
    {
      "midi": 56,
      "hit": false,
      "t": 192185.42000000144,
      "d": 401.1192291666521,
      "v": 104
    },
    {
      "midi": 51,
      "hit": false,
      "t": 192185.42000000144,
      "d": 401.1192291666521,
      "v": 104
    },
    {
      "midi": 46,
      "hit": false,
      "t": 192185.42000000144,
      "d": 401.1192291666521,
      "v": 104
    },
    {
      "midi": 67,
      "hit": false,
      "t": 192633.18100000144,
      "d": 265.8580937499937,
      "v": 104
    },
    {
      "midi": 56,
      "hit": false,
      "t": 192633.18100000144,
      "d": 401.1192291666521,
      "v": 104
    },
    {
      "midi": 51,
      "hit": false,
      "t": 192633.18100000144,
      "d": 401.1192291666521,
      "v": 104
    },
    {
      "midi": 46,
      "hit": false,
      "t": 192633.18100000144,
      "d": 401.1192291666521,
      "v": 104
    },
    {
      "midi": 67,
      "hit": false,
      "t": 192931.68833333475,
      "d": 130.59695833333535,
      "v": 104
    },
    {
      "midi": 63,
      "hit": false,
      "t": 193080.9420000014,
      "d": 265.8580937499937,
      "v": 104
    },
    {
      "midi": 56,
      "hit": false,
      "t": 193080.9420000014,
      "d": 401.1192291666521,
      "v": 104
    },
    {
      "midi": 51,
      "hit": false,
      "t": 193080.9420000014,
      "d": 401.1192291666521,
      "v": 104
    },
    {
      "midi": 46,
      "hit": false,
      "t": 193080.9420000014,
      "d": 401.1192291666521,
      "v": 104
    },
    {
      "midi": 60,
      "hit": false,
      "t": 193379.44933333472,
      "d": 401.1192291666812,
      "v": 104
    },
    {
      "midi": 56,
      "hit": false,
      "t": 193528.7030000014,
      "d": 401.1192291666812,
      "v": 104
    },
    {
      "midi": 51,
      "hit": false,
      "t": 193528.7030000014,
      "d": 401.1192291666812,
      "v": 104
    },
    {
      "midi": 46,
      "hit": false,
      "t": 193528.7030000014,
      "d": 401.1192291666812,
      "v": 104
    },
    {
      "midi": 63,
      "hit": false,
      "t": 193827.21033333475,
      "d": 3348.879145833489,
      "v": 104
    },
    {
      "midi": 58,
      "hit": false,
      "t": 193976.46400000143,
      "d": 401.1192291666812,
      "v": 104
    },
    {
      "midi": 55,
      "hit": false,
      "t": 193976.46400000143,
      "d": 401.1192291666812,
      "v": 104
    },
    {
      "midi": 51,
      "hit": false,
      "t": 193976.46400000143,
      "d": 401.1192291666812,
      "v": 104
    },
    {
      "midi": 58,
      "hit": false,
      "t": 194424.22500000146,
      "d": 401.1192291666812,
      "v": 104
    },
    {
      "midi": 55,
      "hit": false,
      "t": 194424.22500000146,
      "d": 401.1192291666812,
      "v": 104
    },
    {
      "midi": 51,
      "hit": false,
      "t": 194424.22500000146,
      "d": 401.1192291666812,
      "v": 104
    },
    {
      "midi": 58,
      "hit": false,
      "t": 195319.7470000015,
      "d": 401.1192291666812,
      "v": 104
    },
    {
      "midi": 55,
      "hit": false,
      "t": 195319.7470000015,
      "d": 401.1192291666812,
      "v": 104
    },
    {
      "midi": 51,
      "hit": false,
      "t": 195319.7470000015,
      "d": 401.1192291666812,
      "v": 104
    },
    {
      "midi": 58,
      "hit": false,
      "t": 195767.50800000152,
      "d": 401.1192291666812,
      "v": 104
    },
    {
      "midi": 55,
      "hit": false,
      "t": 195767.50800000152,
      "d": 401.1192291666812,
      "v": 104
    },
    {
      "midi": 51,
      "hit": false,
      "t": 195767.50800000152,
      "d": 401.1192291666812,
      "v": 104
    },
    {
      "midi": 58,
      "hit": false,
      "t": 196215.26900000154,
      "d": 401.1192291666812,
      "v": 104
    },
    {
      "midi": 55,
      "hit": false,
      "t": 196215.26900000154,
      "d": 401.1192291666812,
      "v": 104
    },
    {
      "midi": 51,
      "hit": false,
      "t": 196215.26900000154,
      "d": 401.1192291666812,
      "v": 104
    },
    {
      "midi": 58,
      "hit": false,
      "t": 197110.79100000157,
      "d": 401.1192291666812,
      "v": 104
    },
    {
      "midi": 55,
      "hit": false,
      "t": 197110.79100000157,
      "d": 401.1192291666812,
      "v": 104
    },
    {
      "midi": 51,
      "hit": false,
      "t": 197110.79100000157,
      "d": 401.1192291666812,
      "v": 104
    },
    {
      "midi": 39,
      "hit": false,
      "t": 197558.5520000016,
      "d": 3218.282187500008,
      "v": 104
    },
    {
      "midi": 82,
      "hit": false,
      "t": 197558.5520000016,
      "d": 3218.282187500008,
      "v": 104
    },
    {
      "midi": 79,
      "hit": false,
      "t": 197558.5520000016,
      "d": 3218.282187500008,
      "v": 104
    },
    {
      "midi": 77,
      "hit": false,
      "t": 197558.5520000016,
      "d": 3218.282187500008,
      "v": 104
    },
    {
      "midi": 75,
      "hit": false,
      "t": 197558.5520000016,
      "d": 3218.282187500008,
      "v": 104
    },
    {
      "midi": 50,
      "hit": false,
      "t": 201140.64000000161,
      "d": 2248.262989583338,
      "v": 104
    },
    {
      "midi": 69,
      "hit": false,
      "t": 201140.64000000161,
      "d": 2994.7904687499977,
      "v": 104
    },
    {
      "midi": 66,
      "hit": false,
      "t": 201140.64000000161,
      "d": 2994.7904687499977,
      "v": 104
    },
    {
      "midi": 62,
      "hit": false,
      "t": 201140.64000000161,
      "d": 2994.7904687499977,
      "v": 104
    },
    {
      "midi": 48,
      "hit": false,
      "t": 203640.63900000163,
      "d": 746.5274791666598,
      "v": 104
    },
    {
      "midi": 47,
      "hit": false,
      "t": 204473.9720000016,
      "d": 2994.7904687499977,
      "v": 104
    },
    {
      "midi": 69,
      "hit": false,
      "t": 204473.9720000016,
      "d": 2994.7904687499977,
      "v": 104
    },
    {
      "midi": 66,
      "hit": false,
      "t": 204473.9720000016,
      "d": 2994.7904687499977,
      "v": 104
    },
    {
      "midi": 62,
      "hit": false,
      "t": 204473.9720000016,
      "d": 2994.7904687499977,
      "v": 104
    },
    {
      "midi": 43,
      "hit": false,
      "t": 207807.3040000016,
      "d": 2994.7904687499977,
      "v": 104
    },
    {
      "midi": 69,
      "hit": false,
      "t": 207807.3040000016,
      "d": 2994.7904687499977,
      "v": 104
    },
    {
      "midi": 66,
      "hit": false,
      "t": 207807.3040000016,
      "d": 2994.7904687499977,
      "v": 104
    },
    {
      "midi": 62,
      "hit": false,
      "t": 207807.3040000016,
      "d": 2994.7904687499977,
      "v": 104
    },
    {
      "midi": 59,
      "hit": false,
      "t": 207807.3040000016,
      "d": 2994.7904687499977,
      "v": 104
    },
    {
      "midi": 67,
      "hit": false,
      "t": 211140.6360000016,
      "d": 1493.0549583333195,
      "v": 104
    },
    {
      "midi": 64,
      "hit": false,
      "t": 211140.6360000016,
      "d": 1493.0549583333195,
      "v": 104
    },
    {
      "midi": 61,
      "hit": false,
      "t": 211140.6360000016,
      "d": 1493.0549583333195,
      "v": 104
    },
    {
      "midi": 52,
      "hit": false,
      "t": 211140.6360000016,
      "d": 2994.7904687499977,
      "v": 104
    },
    {
      "midi": 45,
      "hit": false,
      "t": 211140.6360000016,
      "d": 2994.7904687499977,
      "v": 104
    },
    {
      "midi": 61,
      "hit": false,
      "t": 212807.3020000016,
      "d": 1493.0549583333195,
      "v": 104
    },
    {
      "midi": 57,
      "hit": false,
      "t": 212807.3020000016,
      "d": 1493.0549583333195,
      "v": 104
    },
    {
      "midi": 69,
      "hit": false,
      "t": 214473.9680000016,
      "d": 746.5274791666598,
      "v": 104
    },
    {
      "midi": 66,
      "hit": false,
      "t": 214473.9680000016,
      "d": 746.5274791666598,
      "v": 104
    },
    {
      "midi": 64,
      "hit": false,
      "t": 214473.9680000016,
      "d": 746.5274791666598,
      "v": 104
    },
    {
      "midi": 62,
      "hit": false,
      "t": 214473.9680000016,
      "d": 746.5274791666598,
      "v": 104
    },
    {
      "midi": 69,
      "hit": false,
      "t": 215307.30100000158,
      "d": 746.5274791666598,
      "v": 104
    },
    {
      "midi": 66,
      "hit": false,
      "t": 215307.30100000158,
      "d": 746.5274791666598,
      "v": 104
    },
    {
      "midi": 64,
      "hit": false,
      "t": 215307.30100000158,
      "d": 746.5274791666598,
      "v": 104
    },
    {
      "midi": 62,
      "hit": false,
      "t": 215307.30100000158,
      "d": 746.5274791666598,
      "v": 104
    },
    {
      "midi": 78,
      "hit": false,
      "t": 216140.63400000156,
      "d": 373.26373958334443,
      "v": 104
    },
    {
      "midi": 69,
      "hit": false,
      "t": 216140.63400000156,
      "d": 746.5274791666889,
      "v": 104
    },
    {
      "midi": 66,
      "hit": false,
      "t": 216140.63400000156,
      "d": 746.5274791666889,
      "v": 104
    },
    {
      "midi": 64,
      "hit": false,
      "t": 216140.63400000156,
      "d": 746.5274791666889,
      "v": 104
    },
    {
      "midi": 62,
      "hit": false,
      "t": 216140.63400000156,
      "d": 746.5274791666889,
      "v": 104
    },
    {
      "midi": 78,
      "hit": false,
      "t": 216557.30050000158,
      "d": 182.29159375000745,
      "v": 104
    },
    {
      "midi": 79,
      "hit": false,
      "t": 216765.63375000158,
      "d": 364.5831874999858,
      "v": 104
    },
    {
      "midi": 60,
      "hit": false,
      "t": 216973.96700000158,
      "d": 746.5274791666598,
      "v": 104
    },
    {
      "midi": 81,
      "hit": false,
      "t": 217182.30025000157,
      "d": 364.5831874999858,
      "v": 104
    },
    {
      "midi": 81,
      "hit": false,
      "t": 217598.96675000156,
      "d": 1302.0828124999825,
      "v": 104
    },
    {
      "midi": 66,
      "hit": false,
      "t": 217807.30000000156,
      "d": 746.5274791666598,
      "v": 104
    },
    {
      "midi": 62,
      "hit": false,
      "t": 217807.30000000156,
      "d": 746.5274791666598,
      "v": 104
    },
    {
      "midi": 59,
      "hit": false,
      "t": 217807.30000000156,
      "d": 746.5274791666598,
      "v": 104
    },
    {
      "midi": 66,
      "hit": false,
      "t": 218640.63300000154,
      "d": 746.5274791666598,
      "v": 104
    },
    {
      "midi": 62,
      "hit": false,
      "t": 218640.63300000154,
      "d": 746.5274791666598,
      "v": 104
    },
    {
      "midi": 59,
      "hit": false,
      "t": 218640.63300000154,
      "d": 746.5274791666598,
      "v": 104
    },
    {
      "midi": 79,
      "hit": false,
      "t": 219057.29950000154,
      "d": 373.26373958334443,
      "v": 104
    },
    {
      "midi": 78,
      "hit": false,
      "t": 219473.96600000156,
      "d": 182.29159375000745,
      "v": 104
    },
    {
      "midi": 66,
      "hit": false,
      "t": 219473.96600000156,
      "d": 746.5274791666889,
      "v": 104
    },
    {
      "midi": 62,
      "hit": false,
      "t": 219473.96600000156,
      "d": 746.5274791666889,
      "v": 104
    },
    {
      "midi": 59,
      "hit": false,
      "t": 219473.96600000156,
      "d": 746.5274791666889,
      "v": 104
    },
    {
      "midi": 76,
      "hit": false,
      "t": 219682.29925000155,
      "d": 373.26373958334443,
      "v": 104
    },
    {
      "midi": 74,
      "hit": false,
      "t": 220098.96575000157,
      "d": 182.29159375000745,
      "v": 104
    },
    {
      "midi": 66,
      "hit": false,
      "t": 220307.29900000157,
      "d": 746.5274791666598,
      "v": 104
    },
    {
      "midi": 62,
      "hit": false,
      "t": 220307.29900000157,
      "d": 746.5274791666598,
      "v": 104
    },
    {
      "midi": 59,
      "hit": false,
      "t": 220307.29900000157,
      "d": 746.5274791666598,
      "v": 104
    },
    {
      "midi": 62,
      "hit": false,
      "t": 221140.63200000155,
      "d": 746.5274791666598,
      "v": 104
    },
    {
      "midi": 59,
      "hit": false,
      "t": 221140.63200000155,
      "d": 746.5274791666598,
      "v": 104
    },
    {
      "midi": 55,
      "hit": false,
      "t": 221140.63200000155,
      "d": 746.5274791666598,
      "v": 104
    },
    {
      "midi": 62,
      "hit": false,
      "t": 221973.96500000154,
      "d": 746.5274791666598,
      "v": 104
    },
    {
      "midi": 59,
      "hit": false,
      "t": 221973.96500000154,
      "d": 746.5274791666598,
      "v": 104
    },
    {
      "midi": 55,
      "hit": false,
      "t": 221973.96500000154,
      "d": 746.5274791666598,
      "v": 104
    },
    {
      "midi": 74,
      "hit": false,
      "t": 222807.29800000152,
      "d": 373.26373958334443,
      "v": 104
    },
    {
      "midi": 62,
      "hit": false,
      "t": 222807.29800000152,
      "d": 746.5274791666889,
      "v": 104
    },
    {
      "midi": 59,
      "hit": false,
      "t": 222807.29800000152,
      "d": 746.5274791666889,
      "v": 104
    },
    {
      "midi": 55,
      "hit": false,
      "t": 222807.29800000152,
      "d": 746.5274791666889,
      "v": 104
    },
    {
      "midi": 74,
      "hit": false,
      "t": 223223.96450000154,
      "d": 182.29159375000745,
      "v": 104
    },
    {
      "midi": 76,
      "hit": false,
      "t": 223432.29775000154,
      "d": 373.2637395833153,
      "v": 104
    },
    {
      "midi": 62,
      "hit": false,
      "t": 223640.63100000154,
      "d": 746.5274791666889,
      "v": 104
    },
    {
      "midi": 59,
      "hit": false,
      "t": 223640.63100000154,
      "d": 746.5274791666889,
      "v": 104
    },
    {
      "midi": 55,
      "hit": false,
      "t": 223640.63100000154,
      "d": 746.5274791666889,
      "v": 104
    },
    {
      "midi": 78,
      "hit": false,
      "t": 223848.96425000153,
      "d": 373.26373958334443,
      "v": 104
    },
    {
      "midi": 78,
      "hit": false,
      "t": 224265.63075000155,
      "d": 182.29159375000745,
      "v": 104
    },
    {
      "midi": 78,
      "hit": false,
      "t": 224473.96400000155,
      "d": 373.26373958334443,
      "v": 104
    },
    {
      "midi": 59,
      "hit": false,
      "t": 224473.96400000155,
      "d": 746.5274791666889,
      "v": 104
    },
    {
      "midi": 55,
      "hit": false,
      "t": 224473.96400000155,
      "d": 746.5274791666889,
      "v": 104
    },
    {
      "midi": 52,
      "hit": false,
      "t": 224473.96400000155,
      "d": 746.5274791666889,
      "v": 104
    },
    {
      "midi": 79,
      "hit": false,
      "t": 224890.63050000157,
      "d": 182.29159375000745,
      "v": 104
    },
    {
      "midi": 79,
      "hit": false,
      "t": 225098.96375000157,
      "d": 373.2637395833153,
      "v": 104
    },
    {
      "midi": 59,
      "hit": false,
      "t": 225307.29700000156,
      "d": 746.5274791666598,
      "v": 104
    },
    {
      "midi": 55,
      "hit": false,
      "t": 225307.29700000156,
      "d": 746.5274791666598,
      "v": 104
    },
    {
      "midi": 52,
      "hit": false,
      "t": 225307.29700000156,
      "d": 746.5274791666598,
      "v": 104
    },
    {
      "midi": 78,
      "hit": false,
      "t": 225515.63025000156,
      "d": 182.29159375000745,
      "v": 104
    },
    {
      "midi": 76,
      "hit": false,
      "t": 225723.96350000156,
      "d": 373.26373958334443,
      "v": 104
    },
    {
      "midi": 55,
      "hit": false,
      "t": 226140.63000000158,
      "d": 746.5274791666598,
      "v": 104
    },
    {
      "midi": 52,
      "hit": false,
      "t": 226140.63000000158,
      "d": 746.5274791666598,
      "v": 104
    },
    {
      "midi": 45,
      "hit": false,
      "t": 226140.63000000158,
      "d": 746.5274791666598,
      "v": 104
    },
    {
      "midi": 55,
      "hit": false,
      "t": 226973.96300000156,
      "d": 746.5274791666598,
      "v": 104
    },
    {
      "midi": 52,
      "hit": false,
      "t": 226973.96300000156,
      "d": 746.5274791666598,
      "v": 104
    },
    {
      "midi": 45,
      "hit": false,
      "t": 226973.96300000156,
      "d": 746.5274791666598,
      "v": 104
    },
    {
      "midi": 69,
      "hit": false,
      "t": 227807.29600000154,
      "d": 746.5274791666598,
      "v": 104
    },
    {
      "midi": 66,
      "hit": false,
      "t": 227807.29600000154,
      "d": 746.5274791666598,
      "v": 104
    },
    {
      "midi": 64,
      "hit": false,
      "t": 227807.29600000154,
      "d": 746.5274791666598,
      "v": 104
    },
    {
      "midi": 62,
      "hit": false,
      "t": 227807.29600000154,
      "d": 746.5274791666598,
      "v": 104
    },
    {
      "midi": 69,
      "hit": false,
      "t": 228640.62900000153,
      "d": 746.5274791666598,
      "v": 104
    },
    {
      "midi": 66,
      "hit": false,
      "t": 228640.62900000153,
      "d": 746.5274791666598,
      "v": 104
    },
    {
      "midi": 64,
      "hit": false,
      "t": 228640.62900000153,
      "d": 746.5274791666598,
      "v": 104
    },
    {
      "midi": 62,
      "hit": false,
      "t": 228640.62900000153,
      "d": 746.5274791666598,
      "v": 104
    },
    {
      "midi": 78,
      "hit": false,
      "t": 229473.9620000015,
      "d": 373.26373958334443,
      "v": 104
    },
    {
      "midi": 69,
      "hit": false,
      "t": 229473.9620000015,
      "d": 746.5274791666889,
      "v": 104
    },
    {
      "midi": 66,
      "hit": false,
      "t": 229473.9620000015,
      "d": 746.5274791666889,
      "v": 104
    },
    {
      "midi": 64,
      "hit": false,
      "t": 229473.9620000015,
      "d": 746.5274791666889,
      "v": 104
    },
    {
      "midi": 62,
      "hit": false,
      "t": 229473.9620000015,
      "d": 746.5274791666889,
      "v": 104
    },
    {
      "midi": 78,
      "hit": false,
      "t": 229890.62850000153,
      "d": 182.29159375000745,
      "v": 104
    },
    {
      "midi": 79,
      "hit": false,
      "t": 230098.96175000153,
      "d": 373.2637395833153,
      "v": 104
    },
    {
      "midi": 60,
      "hit": false,
      "t": 230307.29500000153,
      "d": 746.5274791666889,
      "v": 104
    },
    {
      "midi": 81,
      "hit": false,
      "t": 230515.62825000152,
      "d": 373.26373958334443,
      "v": 104
    },
    {
      "midi": 81,
      "hit": false,
      "t": 230932.29475000154,
      "d": 1302.0828124999825,
      "v": 104
    },
    {
      "midi": 66,
      "hit": false,
      "t": 231140.62800000154,
      "d": 746.5274791666598,
      "v": 104
    },
    {
      "midi": 62,
      "hit": false,
      "t": 231140.62800000154,
      "d": 746.5274791666598,
      "v": 104
    },
    {
      "midi": 59,
      "hit": false,
      "t": 231140.62800000154,
      "d": 746.5274791666598,
      "v": 104
    },
    {
      "midi": 66,
      "hit": false,
      "t": 231973.96100000152,
      "d": 746.5274791666598,
      "v": 104
    },
    {
      "midi": 62,
      "hit": false,
      "t": 231973.96100000152,
      "d": 746.5274791666598,
      "v": 104
    },
    {
      "midi": 59,
      "hit": false,
      "t": 231973.96100000152,
      "d": 746.5274791666598,
      "v": 104
    },
    {
      "midi": 79,
      "hit": false,
      "t": 232390.62750000152,
      "d": 373.26373958334443,
      "v": 104
    },
    {
      "midi": 78,
      "hit": false,
      "t": 232807.29400000154,
      "d": 243.05545833334327,
      "v": 104
    },
    {
      "midi": 66,
      "hit": false,
      "t": 232807.29400000154,
      "d": 746.527479166718,
      "v": 104
    },
    {
      "midi": 62,
      "hit": false,
      "t": 232807.29400000154,
      "d": 746.527479166718,
      "v": 104
    },
    {
      "midi": 59,
      "hit": false,
      "t": 232807.29400000154,
      "d": 746.527479166718,
      "v": 104
    },
    {
      "midi": 76,
      "hit": false,
      "t": 233085.07166666823,
      "d": 243.05545833334327,
      "v": 104
    },
    {
      "midi": 74,
      "hit": false,
      "t": 233362.84933333492,
      "d": 243.05545833334327,
      "v": 104
    },
    {
      "midi": 66,
      "hit": false,
      "t": 233640.6270000016,
      "d": 746.5274791666598,
      "v": 104
    },
    {
      "midi": 62,
      "hit": false,
      "t": 233640.6270000016,
      "d": 746.5274791666598,
      "v": 104
    },
    {
      "midi": 59,
      "hit": false,
      "t": 233640.6270000016,
      "d": 746.5274791666598,
      "v": 104
    },
    {
      "midi": 62,
      "hit": false,
      "t": 234473.9600000016,
      "d": 746.5274791666598,
      "v": 104
    },
    {
      "midi": 59,
      "hit": false,
      "t": 234473.9600000016,
      "d": 746.5274791666598,
      "v": 104
    },
    {
      "midi": 55,
      "hit": false,
      "t": 234473.9600000016,
      "d": 746.5274791666598,
      "v": 104
    },
    {
      "midi": 62,
      "hit": false,
      "t": 235307.29300000158,
      "d": 746.5274791666598,
      "v": 104
    },
    {
      "midi": 59,
      "hit": false,
      "t": 235307.29300000158,
      "d": 746.5274791666598,
      "v": 104
    },
    {
      "midi": 55,
      "hit": false,
      "t": 235307.29300000158,
      "d": 746.5274791666598,
      "v": 104
    },
    {
      "midi": 74,
      "hit": false,
      "t": 236140.62600000156,
      "d": 373.26373958334443,
      "v": 104
    },
    {
      "midi": 62,
      "hit": false,
      "t": 236140.62600000156,
      "d": 746.5274791666889,
      "v": 104
    },
    {
      "midi": 59,
      "hit": false,
      "t": 236140.62600000156,
      "d": 746.5274791666889,
      "v": 104
    },
    {
      "midi": 55,
      "hit": false,
      "t": 236140.62600000156,
      "d": 746.5274791666889,
      "v": 104
    },
    {
      "midi": 74,
      "hit": false,
      "t": 236557.29250000158,
      "d": 182.29159375000745,
      "v": 104
    },
    {
      "midi": 76,
      "hit": false,
      "t": 236765.62575000158,
      "d": 373.2637395833153,
      "v": 104
    },
    {
      "midi": 62,
      "hit": false,
      "t": 236973.95900000157,
      "d": 746.5274791666889,
      "v": 104
    },
    {
      "midi": 59,
      "hit": false,
      "t": 236973.95900000157,
      "d": 746.5274791666889,
      "v": 104
    },
    {
      "midi": 55,
      "hit": false,
      "t": 236973.95900000157,
      "d": 746.5274791666889,
      "v": 104
    },
    {
      "midi": 78,
      "hit": false,
      "t": 237182.29225000157,
      "d": 373.26373958334443,
      "v": 104
    },
    {
      "midi": 78,
      "hit": false,
      "t": 237598.9587500016,
      "d": 182.29159375000745,
      "v": 104
    },
    {
      "midi": 78,
      "hit": false,
      "t": 237807.2920000016,
      "d": 373.26373958334443,
      "v": 104
    },
    {
      "midi": 59,
      "hit": false,
      "t": 237807.2920000016,
      "d": 746.5274791666889,
      "v": 104
    },
    {
      "midi": 55,
      "hit": false,
      "t": 237807.2920000016,
      "d": 746.5274791666889,
      "v": 104
    },
    {
      "midi": 52,
      "hit": false,
      "t": 237807.2920000016,
      "d": 746.5274791666889,
      "v": 104
    },
    {
      "midi": 79,
      "hit": false,
      "t": 238223.9585000016,
      "d": 182.29159375000745,
      "v": 104
    },
    {
      "midi": 79,
      "hit": false,
      "t": 238432.2917500016,
      "d": 373.2637395833153,
      "v": 104
    },
    {
      "midi": 59,
      "hit": false,
      "t": 238640.6250000016,
      "d": 746.5274791666598,
      "v": 104
    },
    {
      "midi": 55,
      "hit": false,
      "t": 238640.6250000016,
      "d": 746.5274791666598,
      "v": 104
    },
    {
      "midi": 52,
      "hit": false,
      "t": 238640.6250000016,
      "d": 746.5274791666598,
      "v": 104
    },
    {
      "midi": 78,
      "hit": false,
      "t": 238848.9582500016,
      "d": 182.29159375000745,
      "v": 104
    },
    {
      "midi": 76,
      "hit": false,
      "t": 239057.2915000016,
      "d": 373.26373958334443,
      "v": 104
    },
    {
      "midi": 55,
      "hit": false,
      "t": 239473.9580000016,
      "d": 746.5274791666598,
      "v": 104
    },
    {
      "midi": 52,
      "hit": false,
      "t": 239473.9580000016,
      "d": 746.5274791666598,
      "v": 104
    },
    {
      "midi": 45,
      "hit": false,
      "t": 239473.9580000016,
      "d": 746.5274791666598,
      "v": 104
    },
    {
      "midi": 55,
      "hit": false,
      "t": 240307.2910000016,
      "d": 746.5274791666598,
      "v": 104
    },
    {
      "midi": 52,
      "hit": false,
      "t": 240307.2910000016,
      "d": 746.5274791666598,
      "v": 104
    },
    {
      "midi": 45,
      "hit": false,
      "t": 240307.2910000016,
      "d": 746.5274791666598,
      "v": 104
    },
    {
      "midi": 74,
      "hit": false,
      "t": 240723.9575000016,
      "d": 373.26373958334443,
      "v": 104
    },
    {
      "midi": 55,
      "hit": false,
      "t": 241140.6240000016,
      "d": 373.26373958334443,
      "v": 104
    },
    {
      "midi": 78,
      "hit": false,
      "t": 241140.6240000016,
      "d": 746.5274791666889,
      "v": 104
    },
    {
      "midi": 59,
      "hit": false,
      "t": 241557.29050000163,
      "d": 373.26373958334443,
      "v": 104
    },
    {
      "midi": 62,
      "hit": false,
      "t": 241973.95700000165,
      "d": 373.26373958334443,
      "v": 104
    },
    {
      "midi": 66,
      "hit": false,
      "t": 242390.62350000167,
      "d": 373.26373958334443,
      "v": 104
    },
    {
      "midi": 55,
      "hit": false,
      "t": 242807.2900000017,
      "d": 373.26373958334443,
      "v": 104
    },
    {
      "midi": 59,
      "hit": false,
      "t": 243223.95650000172,
      "d": 373.26373958334443,
      "v": 104
    },
    {
      "midi": 78,
      "hit": false,
      "t": 243640.62300000174,
      "d": 182.29159375000745,
      "v": 104
    },
    {
      "midi": 62,
      "hit": false,
      "t": 243640.62300000174,
      "d": 373.2637395833153,
      "v": 104
    },
    {
      "midi": 76,
      "hit": false,
      "t": 243848.95625000173,
      "d": 182.29159374997835,
      "v": 104
    },
    {
      "midi": 74,
      "hit": false,
      "t": 244057.2895000017,
      "d": 182.29159375000745,
      "v": 104
    },
    {
      "midi": 66,
      "hit": false,
      "t": 244057.2895000017,
      "d": 373.2637395833153,
      "v": 104
    },
    {
      "midi": 78,
      "hit": false,
      "t": 244265.6227500017,
      "d": 182.29159374997835,
      "v": 104
    },
    {
      "midi": 54,
      "hit": false,
      "t": 244473.95600000166,
      "d": 373.26373958334443,
      "v": 104
    },
    {
      "midi": 76,
      "hit": false,
      "t": 244473.95600000166,
      "d": 373.26373958334443,
      "v": 104
    },
    {
      "midi": 69,
      "hit": false,
      "t": 244890.6225000017,
      "d": 182.29159375000745,
      "v": 104
    },
    {
      "midi": 57,
      "hit": false,
      "t": 244890.6225000017,
      "d": 373.2637395833153,
      "v": 104
    },
    {
      "midi": 69,
      "hit": false,
      "t": 245098.95575000168,
      "d": 373.2637395833153,
      "v": 104
    },
    {
      "midi": 61,
      "hit": false,
      "t": 245307.28900000168,
      "d": 373.2637395833153,
      "v": 104
    },
    {
      "midi": 71,
      "hit": false,
      "t": 245515.62225000167,
      "d": 182.29159374997835,
      "v": 104
    },
    {
      "midi": 64,
      "hit": false,
      "t": 245723.95550000164,
      "d": 373.26373958334443,
      "v": 104
    },
    {
      "midi": 69,
      "hit": false,
      "t": 245723.95550000164,
      "d": 373.26373958334443,
      "v": 104
    },
    {
      "midi": 54,
      "hit": false,
      "t": 246140.62200000166,
      "d": 373.26373958334443,
      "v": 104
    },
    {
      "midi": 57,
      "hit": false,
      "t": 246557.28850000168,
      "d": 373.26373958334443,
      "v": 104
    },
    {
      "midi": 61,
      "hit": false,
      "t": 246973.9550000017,
      "d": 373.26373958334443,
      "v": 104
    },
    {
      "midi": 64,
      "hit": false,
      "t": 247390.62150000173,
      "d": 373.26373958334443,
      "v": 104
    },
    {
      "midi": 74,
      "hit": false,
      "t": 247390.62150000173,
      "d": 373.26373958334443,
      "v": 104
    },
    {
      "midi": 55,
      "hit": false,
      "t": 247807.28800000175,
      "d": 373.26373958334443,
      "v": 104
    },
    {
      "midi": 78,
      "hit": false,
      "t": 247807.28800000175,
      "d": 746.5274791666889,
      "v": 104
    },
    {
      "midi": 59,
      "hit": false,
      "t": 248223.95450000177,
      "d": 373.26373958334443,
      "v": 104
    },
    {
      "midi": 62,
      "hit": false,
      "t": 248640.6210000018,
      "d": 373.26373958334443,
      "v": 104
    },
    {
      "midi": 66,
      "hit": false,
      "t": 249057.2875000018,
      "d": 373.26373958334443,
      "v": 104
    },
    {
      "midi": 55,
      "hit": false,
      "t": 249473.95400000183,
      "d": 373.26373958334443,
      "v": 104
    },
    {
      "midi": 59,
      "hit": false,
      "t": 249890.62050000185,
      "d": 373.26373958334443,
      "v": 104
    },
    {
      "midi": 78,
      "hit": false,
      "t": 250307.28700000187,
      "d": 182.29159375000745,
      "v": 104
    },
    {
      "midi": 62,
      "hit": false,
      "t": 250307.28700000187,
      "d": 373.2637395833153,
      "v": 104
    },
    {
      "midi": 76,
      "hit": false,
      "t": 250515.62025000187,
      "d": 182.29159374997835,
      "v": 104
    },
    {
      "midi": 74,
      "hit": false,
      "t": 250723.95350000184,
      "d": 182.29159375000745,
      "v": 104
    },
    {
      "midi": 66,
      "hit": false,
      "t": 250723.95350000184,
      "d": 373.2637395833153,
      "v": 104
    },
    {
      "midi": 74,
      "hit": false,
      "t": 250932.28675000183,
      "d": 182.29159374997835,
      "v": 104
    },
    {
      "midi": 54,
      "hit": false,
      "t": 251140.6200000018,
      "d": 373.26373958334443,
      "v": 104
    },
    {
      "midi": 76,
      "hit": false,
      "t": 251140.6200000018,
      "d": 373.26373958334443,
      "v": 104
    },
    {
      "midi": 81,
      "hit": false,
      "t": 251557.28650000182,
      "d": 182.29159375000745,
      "v": 104
    },
    {
      "midi": 57,
      "hit": false,
      "t": 251557.28650000182,
      "d": 373.2637395833153,
      "v": 104
    },
    {
      "midi": 81,
      "hit": false,
      "t": 251765.61975000182,
      "d": 373.2637395833153,
      "v": 104
    },
    {
      "midi": 61,
      "hit": false,
      "t": 251973.9530000018,
      "d": 373.2637395833153,
      "v": 104
    },
    {
      "midi": 76,
      "hit": false,
      "t": 252182.2862500018,
      "d": 182.29159374997835,
      "v": 104
    },
    {
      "midi": 64,
      "hit": false,
      "t": 252390.61950000178,
      "d": 373.26373958334443,
      "v": 104
    },
    {
      "midi": 76,
      "hit": false,
      "t": 252390.61950000178,
      "d": 373.26373958334443,
      "v": 104
    },
    {
      "midi": 54,
      "hit": false,
      "t": 252807.2860000018,
      "d": 373.26373958334443,
      "v": 104
    },
    {
      "midi": 57,
      "hit": false,
      "t": 253223.95250000182,
      "d": 373.26373958334443,
      "v": 104
    },
    {
      "midi": 61,
      "hit": false,
      "t": 253640.61900000184,
      "d": 373.2637395833153,
      "v": 104
    },
    {
      "midi": 76,
      "hit": false,
      "t": 253848.95225000184,
      "d": 182.29159374997835,
      "v": 104
    },
    {
      "midi": 76,
      "hit": false,
      "t": 254057.2855000018,
      "d": 182.29159375000745,
      "v": 104
    },
    {
      "midi": 64,
      "hit": false,
      "t": 254057.2855000018,
      "d": 373.2637395833153,
      "v": 104
    },
    {
      "midi": 78,
      "hit": false,
      "t": 254265.6187500018,
      "d": 182.29159374997835,
      "v": 104
    },
    {
      "midi": 59,
      "hit": false,
      "t": 254473.95200000177,
      "d": 746.5274791666598,
      "v": 104
    },
    {
      "midi": 55,
      "hit": false,
      "t": 254473.95200000177,
      "d": 746.5274791666598,
      "v": 104
    },
    {
      "midi": 52,
      "hit": false,
      "t": 254473.95200000177,
      "d": 746.5274791666598,
      "v": 104
    },
    {
      "midi": 79,
      "hit": false,
      "t": 254473.95200000177,
      "d": 746.5274791666598,
      "v": 104
    },
    {
      "midi": 78,
      "hit": false,
      "t": 255307.28500000175,
      "d": 182.29159375000745,
      "v": 104
    },
    {
      "midi": 62,
      "hit": false,
      "t": 255307.28500000175,
      "d": 555.5553333333228,
      "v": 104
    },
    {
      "midi": 57,
      "hit": false,
      "t": 255307.28500000175,
      "d": 555.5553333333228,
      "v": 104
    },
    {
      "midi": 54,
      "hit": false,
      "t": 255307.28500000175,
      "d": 555.5553333333228,
      "v": 104
    },
    {
      "midi": 76,
      "hit": false,
      "t": 255515.61825000175,
      "d": 182.29159375000745,
      "v": 104
    },
    {
      "midi": 74,
      "hit": false,
      "t": 255723.95150000174,
      "d": 182.29159375000745,
      "v": 104
    },
    {
      "midi": 74,
      "hit": false,
      "t": 255932.28475000174,
      "d": 182.29159375000745,
      "v": 104
    },
    {
      "midi": 62,
      "hit": false,
      "t": 255932.28475000174,
      "d": 928.8190729166672,
      "v": 104
    },
    {
      "midi": 59,
      "hit": false,
      "t": 255932.28475000174,
      "d": 928.8190729166672,
      "v": 104
    },
    {
      "midi": 55,
      "hit": false,
      "t": 255932.28475000174,
      "d": 928.8190729166672,
      "v": 104
    },
    {
      "midi": 74,
      "hit": false,
      "t": 256973.95100000175,
      "d": 182.29159375000745,
      "v": 104
    },
    {
      "midi": 62,
      "hit": false,
      "t": 256973.95100000175,
      "d": 555.5553333333228,
      "v": 104
    },
    {
      "midi": 59,
      "hit": false,
      "t": 256973.95100000175,
      "d": 555.5553333333228,
      "v": 104
    },
    {
      "midi": 56,
      "hit": false,
      "t": 256973.95100000175,
      "d": 555.5553333333228,
      "v": 104
    },
    {
      "midi": 76,
      "hit": false,
      "t": 257182.28425000174,
      "d": 182.29159375000745,
      "v": 104
    },
    {
      "midi": 78,
      "hit": false,
      "t": 257390.61750000174,
      "d": 182.29159375000745,
      "v": 104
    },
    {
      "midi": 76,
      "hit": false,
      "t": 257598.95075000174,
      "d": 182.29159375000745,
      "v": 104
    },
    {
      "midi": 64,
      "hit": false,
      "t": 257598.95075000174,
      "d": 928.8190729166963,
      "v": 104
    },
    {
      "midi": 62,
      "hit": false,
      "t": 257598.95075000174,
      "d": 928.8190729166963,
      "v": 104
    },
    {
      "midi": 57,
      "hit": false,
      "t": 257598.95075000174,
      "d": 928.8190729166963,
      "v": 104
    },
    {
      "midi": 78,
      "hit": false,
      "t": 257807.28400000173,
      "d": 373.26373958334443,
      "v": 104
    },
    {
      "midi": 76,
      "hit": false,
      "t": 258223.95050000175,
      "d": 2621.5267291666532,
      "v": 104
    },
    {
      "midi": 64,
      "hit": false,
      "t": 258640.61700000177,
      "d": 746.5274791666598,
      "v": 104
    },
    {
      "midi": 62,
      "hit": false,
      "t": 258640.61700000177,
      "d": 746.5274791666598,
      "v": 104
    },
    {
      "midi": 57,
      "hit": false,
      "t": 258640.61700000177,
      "d": 746.5274791666598,
      "v": 104
    },
    {
      "midi": 64,
      "hit": false,
      "t": 259473.95000000176,
      "d": 746.5274791666598,
      "v": 104
    },
    {
      "midi": 61,
      "hit": false,
      "t": 259473.95000000176,
      "d": 746.5274791666598,
      "v": 104
    },
    {
      "midi": 57,
      "hit": false,
      "t": 259473.95000000176,
      "d": 746.5274791666598,
      "v": 104
    },
    {
      "midi": 64,
      "hit": false,
      "t": 260307.28300000174,
      "d": 746.5274791666598,
      "v": 104
    },
    {
      "midi": 61,
      "hit": false,
      "t": 260307.28300000174,
      "d": 746.5274791666598,
      "v": 104
    },
    {
      "midi": 57,
      "hit": false,
      "t": 260307.28300000174,
      "d": 746.5274791666598,
      "v": 104
    },
    {
      "midi": 57,
      "hit": false,
      "t": 261140.61600000173,
      "d": 746.5274791666598,
      "v": 104
    },
    {
      "midi": 54,
      "hit": false,
      "t": 261140.61600000173,
      "d": 746.5274791666598,
      "v": 104
    },
    {
      "midi": 50,
      "hit": false,
      "t": 261140.61600000173,
      "d": 746.5274791666598,
      "v": 104
    },
    {
      "midi": 81,
      "hit": false,
      "t": 261140.61600000173,
      "d": 1119.7912187500042,
      "v": 104
    },
    {
      "midi": 57,
      "hit": false,
      "t": 261973.9490000017,
      "d": 746.5274791666307,
      "v": 104
    },
    {
      "midi": 54,
      "hit": false,
      "t": 261973.9490000017,
      "d": 746.5274791666307,
      "v": 104
    },
    {
      "midi": 50,
      "hit": false,
      "t": 261973.9490000017,
      "d": 746.5274791666307,
      "v": 104
    },
    {
      "midi": 78,
      "hit": false,
      "t": 262390.6155000017,
      "d": 373.2637395833153,
      "v": 104
    },
    {
      "midi": 61,
      "hit": false,
      "t": 262807.2820000017,
      "d": 746.5274791666889,
      "v": 104
    },
    {
      "midi": 57,
      "hit": false,
      "t": 262807.2820000017,
      "d": 746.5274791666889,
      "v": 104
    },
    {
      "midi": 54,
      "hit": false,
      "t": 262807.2820000017,
      "d": 746.5274791666889,
      "v": 104
    },
    {
      "midi": 81,
      "hit": false,
      "t": 262807.2820000017,
      "d": 746.5274791666889,
      "v": 104
    },
    {
      "midi": 61,
      "hit": false,
      "t": 263640.61500000174,
      "d": 746.5274791666889,
      "v": 104
    },
    {
      "midi": 57,
      "hit": false,
      "t": 263640.61500000174,
      "d": 746.5274791666889,
      "v": 104
    },
    {
      "midi": 54,
      "hit": false,
      "t": 263640.61500000174,
      "d": 746.5274791666889,
      "v": 104
    },
    {
      "midi": 81,
      "hit": false,
      "t": 264265.61475000175,
      "d": 182.29159375000745,
      "v": 104
    },
    {
      "midi": 81,
      "hit": false,
      "t": 264473.9480000018,
      "d": 373.2637395833153,
      "v": 104
    },
    {
      "midi": 62,
      "hit": false,
      "t": 264473.9480000018,
      "d": 746.5274791666307,
      "v": 104
    },
    {
      "midi": 59,
      "hit": false,
      "t": 264473.9480000018,
      "d": 746.5274791666307,
      "v": 104
    },
    {
      "midi": 55,
      "hit": false,
      "t": 264473.9480000018,
      "d": 746.5274791666307,
      "v": 104
    },
    {
      "midi": 79,
      "hit": false,
      "t": 264890.6145000018,
      "d": 373.2637395833153,
      "v": 104
    },
    {
      "midi": 79,
      "hit": false,
      "t": 265307.28100000176,
      "d": 182.29159375000745,
      "v": 104
    },
    {
      "midi": 62,
      "hit": false,
      "t": 265307.28100000176,
      "d": 746.5274791666889,
      "v": 104
    },
    {
      "midi": 59,
      "hit": false,
      "t": 265307.28100000176,
      "d": 746.5274791666889,
      "v": 104
    },
    {
      "midi": 55,
      "hit": false,
      "t": 265307.28100000176,
      "d": 746.5274791666889,
      "v": 104
    },
    {
      "midi": 78,
      "hit": false,
      "t": 265515.6142500018,
      "d": 373.2637395833153,
      "v": 104
    },
    {
      "midi": 76,
      "hit": false,
      "t": 265932.2807500018,
      "d": 555.555333333381,
      "v": 104
    },
    {
      "midi": 64,
      "hit": false,
      "t": 266140.6140000018,
      "d": 746.5274791666889,
      "v": 104
    },
    {
      "midi": 61,
      "hit": false,
      "t": 266140.6140000018,
      "d": 746.5274791666889,
      "v": 104
    },
    {
      "midi": 57,
      "hit": false,
      "t": 266140.6140000018,
      "d": 746.5274791666889,
      "v": 104
    },
    {
      "midi": 78,
      "hit": false,
      "t": 266557.28050000186,
      "d": 373.2637395833153,
      "v": 104
    },
    {
      "midi": 79,
      "hit": false,
      "t": 266973.94700000185,
      "d": 182.29159375000745,
      "v": 104
    },
    {
      "midi": 64,
      "hit": false,
      "t": 266973.94700000185,
      "d": 746.5274791666889,
      "v": 104
    },
    {
      "midi": 61,
      "hit": false,
      "t": 266973.94700000185,
      "d": 746.5274791666889,
      "v": 104
    },
    {
      "midi": 57,
      "hit": false,
      "t": 266973.94700000185,
      "d": 746.5274791666889,
      "v": 104
    },
    {
      "midi": 79,
      "hit": false,
      "t": 267182.2802500019,
      "d": 182.29159375000745,
      "v": 104
    },
    {
      "midi": 83,
      "hit": false,
      "t": 267390.6135000019,
      "d": 373.2637395833153,
      "v": 104
    },
    {
      "midi": 57,
      "hit": false,
      "t": 267807.2800000019,
      "d": 746.5274791666889,
      "v": 104
    },
    {
      "midi": 54,
      "hit": false,
      "t": 267807.2800000019,
      "d": 746.5274791666889,
      "v": 104
    },
    {
      "midi": 50,
      "hit": false,
      "t": 267807.2800000019,
      "d": 746.5274791666889,
      "v": 104
    },
    {
      "midi": 81,
      "hit": false,
      "t": 267807.2800000019,
      "d": 1119.7912187500624,
      "v": 104
    },
    {
      "midi": 57,
      "hit": false,
      "t": 268640.61300000193,
      "d": 746.5274791666889,
      "v": 104
    },
    {
      "midi": 54,
      "hit": false,
      "t": 268640.61300000193,
      "d": 746.5274791666889,
      "v": 104
    },
    {
      "midi": 50,
      "hit": false,
      "t": 268640.61300000193,
      "d": 746.5274791666889,
      "v": 104
    },
    {
      "midi": 78,
      "hit": false,
      "t": 269057.2795000019,
      "d": 182.29159375000745,
      "v": 104
    },
    {
      "midi": 81,
      "hit": false,
      "t": 269265.61275000195,
      "d": 928.8190729166963,
      "v": 104
    },
    {
      "midi": 61,
      "hit": false,
      "t": 269473.946000002,
      "d": 746.5274791666889,
      "v": 104
    },
    {
      "midi": 57,
      "hit": false,
      "t": 269473.946000002,
      "d": 746.5274791666889,
      "v": 104
    },
    {
      "midi": 54,
      "hit": false,
      "t": 269473.946000002,
      "d": 746.5274791666889,
      "v": 104
    },
    {
      "midi": 61,
      "hit": false,
      "t": 270307.279000002,
      "d": 746.5274791666889,
      "v": 104
    },
    {
      "midi": 57,
      "hit": false,
      "t": 270307.279000002,
      "d": 746.5274791666889,
      "v": 104
    },
    {
      "midi": 54,
      "hit": false,
      "t": 270307.279000002,
      "d": 746.5274791666889,
      "v": 104
    },
    {
      "midi": 81,
      "hit": false,
      "t": 270932.27875000203,
      "d": 182.29159375000745,
      "v": 104
    },
    {
      "midi": 81,
      "hit": false,
      "t": 271140.61200000206,
      "d": 373.2637395833153,
      "v": 104
    },
    {
      "midi": 62,
      "hit": false,
      "t": 271140.61200000206,
      "d": 746.5274791666307,
      "v": 104
    },
    {
      "midi": 59,
      "hit": false,
      "t": 271140.61200000206,
      "d": 746.5274791666307,
      "v": 104
    },
    {
      "midi": 55,
      "hit": false,
      "t": 271140.61200000206,
      "d": 746.5274791666307,
      "v": 104
    },
    {
      "midi": 79,
      "hit": false,
      "t": 271557.27850000205,
      "d": 373.2637395833153,
      "v": 104
    },
    {
      "midi": 79,
      "hit": false,
      "t": 271973.94500000204,
      "d": 182.29159375000745,
      "v": 104
    },
    {
      "midi": 62,
      "hit": false,
      "t": 271973.94500000204,
      "d": 746.5274791666889,
      "v": 104
    },
    {
      "midi": 59,
      "hit": false,
      "t": 271973.94500000204,
      "d": 746.5274791666889,
      "v": 104
    },
    {
      "midi": 55,
      "hit": false,
      "t": 271973.94500000204,
      "d": 746.5274791666889,
      "v": 104
    },
    {
      "midi": 78,
      "hit": false,
      "t": 272182.27825000207,
      "d": 373.2637395833153,
      "v": 104
    },
    {
      "midi": 78,
      "hit": false,
      "t": 272598.94475000206,
      "d": 182.29159375000745,
      "v": 104
    },
    {
      "midi": 64,
      "hit": false,
      "t": 272807.2780000021,
      "d": 746.5274791666889,
      "v": 104
    },
    {
      "midi": 61,
      "hit": false,
      "t": 272807.2780000021,
      "d": 746.5274791666889,
      "v": 104
    },
    {
      "midi": 57,
      "hit": false,
      "t": 272807.2780000021,
      "d": 746.5274791666889,
      "v": 104
    },
    {
      "midi": 76,
      "hit": false,
      "t": 272807.2780000021,
      "d": 746.5274791666889,
      "v": 104
    },
    {
      "midi": 79,
      "hit": false,
      "t": 273640.6110000021,
      "d": 243.05545833334327,
      "v": 104
    },
    {
      "midi": 64,
      "hit": false,
      "t": 273640.6110000021,
      "d": 746.5274791666307,
      "v": 104
    },
    {
      "midi": 61,
      "hit": false,
      "t": 273640.6110000021,
      "d": 746.5274791666307,
      "v": 104
    },
    {
      "midi": 58,
      "hit": false,
      "t": 273640.6110000021,
      "d": 746.5274791666307,
      "v": 104
    },
    {
      "midi": 78,
      "hit": false,
      "t": 273918.3886666688,
      "d": 243.05545833334327,
      "v": 104
    },
    {
      "midi": 76,
      "hit": false,
      "t": 274196.16633333545,
      "d": 243.05545833328506,
      "v": 104
    },
    {
      "midi": 76,
      "hit": false,
      "t": 274473.94400000205,
      "d": 373.2637395833153,
      "v": 104
    },
    {
      "midi": 66,
      "hit": false,
      "t": 274473.94400000205,
      "d": 746.5274791666889,
      "v": 104
    },
    {
      "midi": 62,
      "hit": false,
      "t": 274473.94400000205,
      "d": 746.5274791666889,
      "v": 104
    },
    {
      "midi": 59,
      "hit": false,
      "t": 274473.94400000205,
      "d": 746.5274791666889,
      "v": 104
    },
    {
      "midi": 74,
      "hit": false,
      "t": 274890.61050000205,
      "d": 182.29159375000745,
      "v": 104
    },
    {
      "midi": 78,
      "hit": false,
      "t": 275098.9437500021,
      "d": 1675.3465520833852,
      "v": 104
    },
    {
      "midi": 66,
      "hit": false,
      "t": 275307.2770000021,
      "d": 746.5274791666889,
      "v": 104
    },
    {
      "midi": 62,
      "hit": false,
      "t": 275307.2770000021,
      "d": 746.5274791666889,
      "v": 104
    },
    {
      "midi": 59,
      "hit": false,
      "t": 275307.2770000021,
      "d": 746.5274791666889,
      "v": 104
    },
    {
      "midi": 66,
      "hit": false,
      "t": 276140.61000000214,
      "d": 746.5274791666307,
      "v": 104
    },
    {
      "midi": 62,
      "hit": false,
      "t": 276140.61000000214,
      "d": 746.5274791666307,
      "v": 104
    },
    {
      "midi": 59,
      "hit": false,
      "t": 276140.61000000214,
      "d": 746.5274791666307,
      "v": 104
    },
    {
      "midi": 66,
      "hit": false,
      "t": 276973.9430000021,
      "d": 746.5274791666889,
      "v": 104
    },
    {
      "midi": 62,
      "hit": false,
      "t": 276973.9430000021,
      "d": 746.5274791666889,
      "v": 104
    },
    {
      "midi": 59,
      "hit": false,
      "t": 276973.9430000021,
      "d": 746.5274791666889,
      "v": 104
    },
    {
      "midi": 76,
      "hit": false,
      "t": 277390.6095000021,
      "d": 182.29159375000745,
      "v": 104
    },
    {
      "midi": 78,
      "hit": false,
      "t": 277598.94275000214,
      "d": 182.29159375000745,
      "v": 104
    },
    {
      "midi": 55,
      "hit": false,
      "t": 277807.27600000217,
      "d": 746.5274791666889,
      "v": 104
    },
    {
      "midi": 52,
      "hit": false,
      "t": 277807.27600000217,
      "d": 746.5274791666889,
      "v": 104
    },
    {
      "midi": 79,
      "hit": false,
      "t": 277807.27600000217,
      "d": 746.5274791666889,
      "v": 104
    },
    {
      "midi": 78,
      "hit": false,
      "t": 278640.6090000022,
      "d": 373.2637395833153,
      "v": 104
    },
    {
      "midi": 57,
      "hit": false,
      "t": 278640.6090000022,
      "d": 746.5274791666889,
      "v": 104
    },
    {
      "midi": 54,
      "hit": false,
      "t": 278640.6090000022,
      "d": 746.5274791666889,
      "v": 104
    },
    {
      "midi": 76,
      "hit": false,
      "t": 279057.2755000022,
      "d": 182.29159375000745,
      "v": 104
    },
    {
      "midi": 76,
      "hit": false,
      "t": 279265.6087500022,
      "d": 182.29159375000745,
      "v": 104
    },
    {
      "midi": 59,
      "hit": false,
      "t": 279473.94200000225,
      "d": 746.5274791666889,
      "v": 104
    },
    {
      "midi": 55,
      "hit": false,
      "t": 279473.94200000225,
      "d": 746.5274791666889,
      "v": 104
    },
    {
      "midi": 74,
      "hit": false,
      "t": 279473.94200000225,
      "d": 1493.0549583333777,
      "v": 104
    },
    {
      "midi": 61,
      "hit": false,
      "t": 280307.2750000023,
      "d": 746.5274791666889,
      "v": 104
    },
    {
      "midi": 57,
      "hit": false,
      "t": 280307.2750000023,
      "d": 746.5274791666889,
      "v": 104
    },
    {
      "midi": 62,
      "hit": false,
      "t": 281140.60800000234,
      "d": 373.2637395833153,
      "v": 104
    },
    {
      "midi": 58,
      "hit": false,
      "t": 281140.60800000234,
      "d": 373.2637395833153,
      "v": 104
    },
    {
      "midi": 81,
      "hit": false,
      "t": 281557.2745000023,
      "d": 182.29159375000745,
      "v": 104
    },
    {
      "midi": 62,
      "hit": false,
      "t": 281557.2745000023,
      "d": 373.26373958337354,
      "v": 104
    },
    {
      "midi": 58,
      "hit": false,
      "t": 281557.2745000023,
      "d": 373.26373958337354,
      "v": 104
    },
    {
      "midi": 81,
      "hit": false,
      "t": 281765.60775000235,
      "d": 182.29159375000745,
      "v": 104
    },
    {
      "midi": 62,
      "hit": false,
      "t": 281973.9410000024,
      "d": 373.2637395833153,
      "v": 104
    },
    {
      "midi": 58,
      "hit": false,
      "t": 281973.9410000024,
      "d": 373.2637395833153,
      "v": 104
    },
    {
      "midi": 81,
      "hit": false,
      "t": 281973.9410000024,
      "d": 373.2637395833153,
      "v": 104
    },
    {
      "midi": 79,
      "hit": false,
      "t": 282390.60750000237,
      "d": 182.29159375000745,
      "v": 104
    },
    {
      "midi": 64,
      "hit": false,
      "t": 282390.60750000237,
      "d": 746.5274791666889,
      "v": 104
    },
    {
      "midi": 60,
      "hit": false,
      "t": 282390.60750000237,
      "d": 746.5274791666889,
      "v": 104
    },
    {
      "midi": 58,
      "hit": false,
      "t": 282390.60750000237,
      "d": 746.5274791666889,
      "v": 104
    },
    {
      "midi": 79,
      "hit": false,
      "t": 282598.9407500024,
      "d": 1302.0828125000116,
      "v": 104
    },
    {
      "midi": 64,
      "hit": false,
      "t": 283223.9405000024,
      "d": 373.2637395833153,
      "v": 104
    },
    {
      "midi": 60,
      "hit": false,
      "t": 283223.9405000024,
      "d": 373.2637395833153,
      "v": 104
    },
    {
      "midi": 58,
      "hit": false,
      "t": 283223.9405000024,
      "d": 373.2637395833153,
      "v": 104
    },
    {
      "midi": 64,
      "hit": false,
      "t": 283640.6070000024,
      "d": 373.2637395833153,
      "v": 104
    },
    {
      "midi": 60,
      "hit": false,
      "t": 283640.6070000024,
      "d": 373.2637395833153,
      "v": 104
    },
    {
      "midi": 58,
      "hit": false,
      "t": 283640.6070000024,
      "d": 373.2637395833153,
      "v": 104
    },
    {
      "midi": 77,
      "hit": false,
      "t": 284057.2735000024,
      "d": 182.29159375000745,
      "v": 104
    },
    {
      "midi": 64,
      "hit": false,
      "t": 284057.2735000024,
      "d": 373.26373958337354,
      "v": 104
    },
    {
      "midi": 60,
      "hit": false,
      "t": 284057.2735000024,
      "d": 373.26373958337354,
      "v": 104
    },
    {
      "midi": 58,
      "hit": false,
      "t": 284057.2735000024,
      "d": 373.26373958337354,
      "v": 104
    },
    {
      "midi": 79,
      "hit": false,
      "t": 284265.6067500024,
      "d": 182.29159375000745,
      "v": 104
    },
    {
      "midi": 62,
      "hit": false,
      "t": 284473.94000000245,
      "d": 373.2637395833153,
      "v": 104
    },
    {
      "midi": 58,
      "hit": false,
      "t": 284473.94000000245,
      "d": 373.2637395833153,
      "v": 104
    },
    {
      "midi": 81,
      "hit": false,
      "t": 284473.94000000245,
      "d": 373.2637395833153,
      "v": 104
    },
    {
      "midi": 81,
      "hit": false,
      "t": 284890.60650000244,
      "d": 182.29159375000745,
      "v": 104
    },
    {
      "midi": 62,
      "hit": false,
      "t": 284890.60650000244,
      "d": 373.26373958337354,
      "v": 104
    },
    {
      "midi": 58,
      "hit": false,
      "t": 284890.60650000244,
      "d": 373.26373958337354,
      "v": 104
    },
    {
      "midi": 81,
      "hit": false,
      "t": 285098.93975000246,
      "d": 373.26373958337354,
      "v": 104
    },
    {
      "midi": 62,
      "hit": false,
      "t": 285307.2730000025,
      "d": 373.26373958337354,
      "v": 104
    },
    {
      "midi": 58,
      "hit": false,
      "t": 285307.2730000025,
      "d": 373.26373958337354,
      "v": 104
    },
    {
      "midi": 79,
      "hit": false,
      "t": 285515.6062500025,
      "d": 182.29159375000745,
      "v": 104
    },
    {
      "midi": 64,
      "hit": false,
      "t": 285723.93950000254,
      "d": 746.5274791666889,
      "v": 104
    },
    {
      "midi": 60,
      "hit": false,
      "t": 285723.93950000254,
      "d": 746.5274791666889,
      "v": 104
    },
    {
      "midi": 58,
      "hit": false,
      "t": 285723.93950000254,
      "d": 746.5274791666889,
      "v": 104
    },
    {
      "midi": 79,
      "hit": false,
      "t": 285723.93950000254,
      "d": 1866.318697916693,
      "v": 104
    },
    {
      "midi": 64,
      "hit": false,
      "t": 286557.2725000026,
      "d": 373.2637395833153,
      "v": 104
    },
    {
      "midi": 60,
      "hit": false,
      "t": 286557.2725000026,
      "d": 373.2637395833153,
      "v": 104
    },
    {
      "midi": 58,
      "hit": false,
      "t": 286557.2725000026,
      "d": 373.2637395833153,
      "v": 104
    },
    {
      "midi": 64,
      "hit": false,
      "t": 286973.9390000026,
      "d": 373.2637395833153,
      "v": 104
    },
    {
      "midi": 60,
      "hit": false,
      "t": 286973.9390000026,
      "d": 373.2637395833153,
      "v": 104
    },
    {
      "midi": 58,
      "hit": false,
      "t": 286973.9390000026,
      "d": 373.2637395833153,
      "v": 104
    },
    {
      "midi": 64,
      "hit": false,
      "t": 287390.60550000257,
      "d": 373.2637395833153,
      "v": 104
    },
    {
      "midi": 60,
      "hit": false,
      "t": 287390.60550000257,
      "d": 373.2637395833153,
      "v": 104
    },
    {
      "midi": 58,
      "hit": false,
      "t": 287390.60550000257,
      "d": 373.2637395833153,
      "v": 104
    },
    {
      "midi": 57,
      "hit": false,
      "t": 287807.27200000256,
      "d": 373.2637395833153,
      "v": 104
    },
    {
      "midi": 53,
      "hit": false,
      "t": 287807.27200000256,
      "d": 373.2637395833153,
      "v": 104
    },
    {
      "midi": 50,
      "hit": false,
      "t": 287807.27200000256,
      "d": 373.2637395833153,
      "v": 104
    },
    {
      "midi": 81,
      "hit": false,
      "t": 288223.93850000255,
      "d": 182.29159375000745,
      "v": 104
    },
    {
      "midi": 57,
      "hit": false,
      "t": 288223.93850000255,
      "d": 373.26373958337354,
      "v": 104
    },
    {
      "midi": 53,
      "hit": false,
      "t": 288223.93850000255,
      "d": 373.26373958337354,
      "v": 104
    },
    {
      "midi": 50,
      "hit": false,
      "t": 288223.93850000255,
      "d": 373.26373958337354,
      "v": 104
    },
    {
      "midi": 81,
      "hit": false,
      "t": 288432.2717500026,
      "d": 182.29159375000745,
      "v": 104
    },
    {
      "midi": 57,
      "hit": false,
      "t": 288640.6050000026,
      "d": 373.2637395833153,
      "v": 104
    },
    {
      "midi": 53,
      "hit": false,
      "t": 288640.6050000026,
      "d": 373.2637395833153,
      "v": 104
    },
    {
      "midi": 50,
      "hit": false,
      "t": 288640.6050000026,
      "d": 373.2637395833153,
      "v": 104
    },
    {
      "midi": 81,
      "hit": false,
      "t": 288640.6050000026,
      "d": 373.2637395833153,
      "v": 104
    },
    {
      "midi": 55,
      "hit": false,
      "t": 289057.2715000026,
      "d": 746.5274791666889,
      "v": 104
    },
    {
      "midi": 52,
      "hit": false,
      "t": 289057.2715000026,
      "d": 746.5274791666889,
      "v": 104
    },
    {
      "midi": 50,
      "hit": false,
      "t": 289057.2715000026,
      "d": 746.5274791666889,
      "v": 104
    },
    {
      "midi": 79,
      "hit": false,
      "t": 289057.2715000026,
      "d": 746.5274791666889,
      "v": 104
    },
    {
      "midi": 55,
      "hit": false,
      "t": 289890.60450000264,
      "d": 373.2637395833153,
      "v": 104
    },
    {
      "midi": 52,
      "hit": false,
      "t": 289890.60450000264,
      "d": 373.2637395833153,
      "v": 104
    },
    {
      "midi": 50,
      "hit": false,
      "t": 289890.60450000264,
      "d": 373.2637395833153,
      "v": 104
    },
    {
      "midi": 77,
      "hit": false,
      "t": 289890.60450000264,
      "d": 373.2637395833153,
      "v": 104
    },
    {
      "midi": 55,
      "hit": false,
      "t": 290307.2710000026,
      "d": 373.2637395833153,
      "v": 104
    },
    {
      "midi": 52,
      "hit": false,
      "t": 290307.2710000026,
      "d": 373.2637395833153,
      "v": 104
    },
    {
      "midi": 50,
      "hit": false,
      "t": 290307.2710000026,
      "d": 373.2637395833153,
      "v": 104
    },
    {
      "midi": 76,
      "hit": false,
      "t": 290307.2710000026,
      "d": 373.2637395833153,
      "v": 104
    },
    {
      "midi": 55,
      "hit": false,
      "t": 290723.9375000026,
      "d": 373.2637395833153,
      "v": 104
    },
    {
      "midi": 52,
      "hit": false,
      "t": 290723.9375000026,
      "d": 373.2637395833153,
      "v": 104
    },
    {
      "midi": 50,
      "hit": false,
      "t": 290723.9375000026,
      "d": 373.2637395833153,
      "v": 104
    },
    {
      "midi": 74,
      "hit": false,
      "t": 290723.9375000026,
      "d": 3368.0542083334294,
      "v": 104
    },
    {
      "midi": 53,
      "hit": false,
      "t": 291140.6040000026,
      "d": 746.5274791666889,
      "v": 104
    },
    {
      "midi": 50,
      "hit": false,
      "t": 291140.6040000026,
      "d": 746.5274791666889,
      "v": 104
    },
    {
      "midi": 55,
      "hit": false,
      "t": 291973.93700000265,
      "d": 746.5274791666889,
      "v": 104
    },
    {
      "midi": 52,
      "hit": false,
      "t": 291973.93700000265,
      "d": 746.5274791666889,
      "v": 104
    },
    {
      "midi": 57,
      "hit": false,
      "t": 292807.2700000027,
      "d": 746.5274791666889,
      "v": 104
    },
    {
      "midi": 53,
      "hit": false,
      "t": 292807.2700000027,
      "d": 746.5274791666889,
      "v": 104
    },
    {
      "midi": 58,
      "hit": false,
      "t": 293640.60300000274,
      "d": 373.2637395833153,
      "v": 104
    },
    {
      "midi": 55,
      "hit": false,
      "t": 293640.60300000274,
      "d": 373.2637395833153,
      "v": 104
    },
    {
      "midi": 60,
      "hit": false,
      "t": 294057.26950000273,
      "d": 373.2637395833153,
      "v": 104
    },
    {
      "midi": 57,
      "hit": false,
      "t": 294057.26950000273,
      "d": 373.2637395833153,
      "v": 104
    },
    {
      "midi": 53,
      "hit": false,
      "t": 294473.9360000027,
      "d": 373.2637395833153,
      "v": 104
    },
    {
      "midi": 50,
      "hit": false,
      "t": 294473.9360000027,
      "d": 373.2637395833153,
      "v": 104
    },
    {
      "midi": 46,
      "hit": false,
      "t": 294473.9360000027,
      "d": 373.2637395833153,
      "v": 104
    },
    {
      "midi": 81,
      "hit": false,
      "t": 294890.6025000027,
      "d": 182.29159375000745,
      "v": 104
    },
    {
      "midi": 53,
      "hit": false,
      "t": 294890.6025000027,
      "d": 373.26373958337354,
      "v": 104
    },
    {
      "midi": 50,
      "hit": false,
      "t": 294890.6025000027,
      "d": 373.26373958337354,
      "v": 104
    },
    {
      "midi": 46,
      "hit": false,
      "t": 294890.6025000027,
      "d": 373.26373958337354,
      "v": 104
    },
    {
      "midi": 81,
      "hit": false,
      "t": 295098.93575000274,
      "d": 182.29159375000745,
      "v": 104
    },
    {
      "midi": 53,
      "hit": false,
      "t": 295307.26900000277,
      "d": 373.2637395833153,
      "v": 104
    },
    {
      "midi": 50,
      "hit": false,
      "t": 295307.26900000277,
      "d": 373.2637395833153,
      "v": 104
    },
    {
      "midi": 46,
      "hit": false,
      "t": 295307.26900000277,
      "d": 373.2637395833153,
      "v": 104
    },
    {
      "midi": 81,
      "hit": false,
      "t": 295307.26900000277,
      "d": 373.2637395833153,
      "v": 104
    },
    {
      "midi": 81,
      "hit": false,
      "t": 295723.93550000276,
      "d": 182.29159375000745,
      "v": 104
    },
    {
      "midi": 55,
      "hit": false,
      "t": 295723.93550000276,
      "d": 746.5274791666889,
      "v": 104
    },
    {
      "midi": 52,
      "hit": false,
      "t": 295723.93550000276,
      "d": 746.5274791666889,
      "v": 104
    },
    {
      "midi": 48,
      "hit": false,
      "t": 295723.93550000276,
      "d": 746.5274791666889,
      "v": 104
    },
    {
      "midi": 46,
      "hit": false,
      "t": 295723.93550000276,
      "d": 746.5274791666889,
      "v": 104
    },
    {
      "midi": 79,
      "hit": false,
      "t": 295932.2687500028,
      "d": 1111.1106666667038,
      "v": 104
    },
    {
      "midi": 55,
      "hit": false,
      "t": 296557.2685000028,
      "d": 373.2637395833153,
      "v": 104
    },
    {
      "midi": 52,
      "hit": false,
      "t": 296557.2685000028,
      "d": 373.2637395833153,
      "v": 104
    },
    {
      "midi": 48,
      "hit": false,
      "t": 296557.2685000028,
      "d": 373.2637395833153,
      "v": 104
    },
    {
      "midi": 46,
      "hit": false,
      "t": 296557.2685000028,
      "d": 373.2637395833153,
      "v": 104
    },
    {
      "midi": 55,
      "hit": false,
      "t": 296973.9350000028,
      "d": 373.26373958337354,
      "v": 104
    },
    {
      "midi": 52,
      "hit": false,
      "t": 296973.9350000028,
      "d": 373.26373958337354,
      "v": 104
    },
    {
      "midi": 48,
      "hit": false,
      "t": 296973.9350000028,
      "d": 373.26373958337354,
      "v": 104
    },
    {
      "midi": 46,
      "hit": false,
      "t": 296973.9350000028,
      "d": 373.26373958337354,
      "v": 104
    },
    {
      "midi": 79,
      "hit": false,
      "t": 297182.2682500028,
      "d": 182.29159375000745,
      "v": 104
    },
    {
      "midi": 77,
      "hit": false,
      "t": 297390.60150000284,
      "d": 182.29159375000745,
      "v": 104
    },
    {
      "midi": 55,
      "hit": false,
      "t": 297390.60150000284,
      "d": 373.26373958337354,
      "v": 104
    },
    {
      "midi": 52,
      "hit": false,
      "t": 297390.60150000284,
      "d": 373.26373958337354,
      "v": 104
    },
    {
      "midi": 48,
      "hit": false,
      "t": 297390.60150000284,
      "d": 373.26373958337354,
      "v": 104
    },
    {
      "midi": 46,
      "hit": false,
      "t": 297390.60150000284,
      "d": 373.26373958337354,
      "v": 104
    },
    {
      "midi": 79,
      "hit": false,
      "t": 297598.93475000287,
      "d": 182.29159375000745,
      "v": 104
    },
    {
      "midi": 53,
      "hit": false,
      "t": 297807.2680000029,
      "d": 373.2637395833153,
      "v": 104
    },
    {
      "midi": 50,
      "hit": false,
      "t": 297807.2680000029,
      "d": 373.2637395833153,
      "v": 104
    },
    {
      "midi": 46,
      "hit": false,
      "t": 297807.2680000029,
      "d": 373.2637395833153,
      "v": 104
    },
    {
      "midi": 81,
      "hit": false,
      "t": 297807.2680000029,
      "d": 373.2637395833153,
      "v": 104
    },
    {
      "midi": 53,
      "hit": false,
      "t": 298223.9345000029,
      "d": 373.2637395833153,
      "v": 104
    },
    {
      "midi": 50,
      "hit": false,
      "t": 298223.9345000029,
      "d": 373.2637395833153,
      "v": 104
    },
    {
      "midi": 46,
      "hit": false,
      "t": 298223.9345000029,
      "d": 373.2637395833153,
      "v": 104
    },
    {
      "midi": 82,
      "hit": false,
      "t": 298223.9345000029,
      "d": 373.2637395833153,
      "v": 104
    },
    {
      "midi": 53,
      "hit": false,
      "t": 298640.6010000029,
      "d": 373.2637395833153,
      "v": 104
    },
    {
      "midi": 50,
      "hit": false,
      "t": 298640.6010000029,
      "d": 373.2637395833153,
      "v": 104
    },
    {
      "midi": 46,
      "hit": false,
      "t": 298640.6010000029,
      "d": 373.2637395833153,
      "v": 104
    },
    {
      "midi": 84,
      "hit": false,
      "t": 298640.6010000029,
      "d": 373.2637395833153,
      "v": 104
    },
    {
      "midi": 55,
      "hit": false,
      "t": 299057.26750000287,
      "d": 746.5274791666889,
      "v": 104
    },
    {
      "midi": 52,
      "hit": false,
      "t": 299057.26750000287,
      "d": 746.5274791666889,
      "v": 104
    },
    {
      "midi": 48,
      "hit": false,
      "t": 299057.26750000287,
      "d": 746.5274791666889,
      "v": 104
    },
    {
      "midi": 46,
      "hit": false,
      "t": 299057.26750000287,
      "d": 746.5274791666889,
      "v": 104
    },
    {
      "midi": 79,
      "hit": false,
      "t": 299057.26750000287,
      "d": 1866.318697916693,
      "v": 104
    },
    {
      "midi": 55,
      "hit": false,
      "t": 299890.6005000029,
      "d": 373.2637395833153,
      "v": 104
    },
    {
      "midi": 52,
      "hit": false,
      "t": 299890.6005000029,
      "d": 373.2637395833153,
      "v": 104
    },
    {
      "midi": 48,
      "hit": false,
      "t": 299890.6005000029,
      "d": 373.2637395833153,
      "v": 104
    },
    {
      "midi": 46,
      "hit": false,
      "t": 299890.6005000029,
      "d": 373.2637395833153,
      "v": 104
    },
    {
      "midi": 55,
      "hit": false,
      "t": 300307.2670000029,
      "d": 373.2637395833153,
      "v": 104
    },
    {
      "midi": 52,
      "hit": false,
      "t": 300307.2670000029,
      "d": 373.2637395833153,
      "v": 104
    },
    {
      "midi": 48,
      "hit": false,
      "t": 300307.2670000029,
      "d": 373.2637395833153,
      "v": 104
    },
    {
      "midi": 46,
      "hit": false,
      "t": 300307.2670000029,
      "d": 373.2637395833153,
      "v": 104
    },
    {
      "midi": 55,
      "hit": false,
      "t": 300723.9335000029,
      "d": 373.2637395833153,
      "v": 104
    },
    {
      "midi": 52,
      "hit": false,
      "t": 300723.9335000029,
      "d": 373.2637395833153,
      "v": 104
    },
    {
      "midi": 48,
      "hit": false,
      "t": 300723.9335000029,
      "d": 373.2637395833153,
      "v": 104
    },
    {
      "midi": 46,
      "hit": false,
      "t": 300723.9335000029,
      "d": 373.2637395833153,
      "v": 104
    },
    {
      "midi": 52,
      "hit": false,
      "t": 301140.6000000029,
      "d": 373.2637395833153,
      "v": 104
    },
    {
      "midi": 45,
      "hit": false,
      "t": 301140.6000000029,
      "d": 373.2637395833153,
      "v": 104
    },
    {
      "midi": 81,
      "hit": false,
      "t": 301557.2665000029,
      "d": 182.29159375000745,
      "v": 104
    },
    {
      "midi": 76,
      "hit": false,
      "t": 301557.2665000029,
      "d": 182.29159375000745,
      "v": 104
    },
    {
      "midi": 74,
      "hit": false,
      "t": 301557.2665000029,
      "d": 182.29159375000745,
      "v": 104
    },
    {
      "midi": 52,
      "hit": false,
      "t": 301557.2665000029,
      "d": 373.26373958337354,
      "v": 104
    },
    {
      "midi": 45,
      "hit": false,
      "t": 301557.2665000029,
      "d": 373.26373958337354,
      "v": 104
    },
    {
      "midi": 81,
      "hit": false,
      "t": 301765.5997500029,
      "d": 182.29159375000745,
      "v": 104
    },
    {
      "midi": 76,
      "hit": false,
      "t": 301765.5997500029,
      "d": 182.29159375000745,
      "v": 104
    },
    {
      "midi": 74,
      "hit": false,
      "t": 301765.5997500029,
      "d": 182.29159375000745,
      "v": 104
    },
    {
      "midi": 81,
      "hit": false,
      "t": 301973.93300000293,
      "d": 243.05545833334327,
      "v": 104
    },
    {
      "midi": 76,
      "hit": false,
      "t": 301973.93300000293,
      "d": 243.05545833334327,
      "v": 104
    },
    {
      "midi": 74,
      "hit": false,
      "t": 301973.93300000293,
      "d": 243.05545833334327,
      "v": 104
    },
    {
      "midi": 52,
      "hit": false,
      "t": 301973.93300000293,
      "d": 373.2637395833153,
      "v": 104
    },
    {
      "midi": 45,
      "hit": false,
      "t": 301973.93300000293,
      "d": 373.2637395833153,
      "v": 104
    },
    {
      "midi": 81,
      "hit": false,
      "t": 302251.7106666696,
      "d": 243.05545833334327,
      "v": 104
    },
    {
      "midi": 76,
      "hit": false,
      "t": 302251.7106666696,
      "d": 243.05545833334327,
      "v": 104
    },
    {
      "midi": 74,
      "hit": false,
      "t": 302251.7106666696,
      "d": 243.05545833334327,
      "v": 104
    },
    {
      "midi": 52,
      "hit": false,
      "t": 302390.5995000029,
      "d": 373.2637395833153,
      "v": 104
    },
    {
      "midi": 45,
      "hit": false,
      "t": 302390.5995000029,
      "d": 373.2637395833153,
      "v": 104
    },
    {
      "midi": 81,
      "hit": false,
      "t": 302529.48833333625,
      "d": 243.05545833334327,
      "v": 104
    },
    {
      "midi": 76,
      "hit": false,
      "t": 302529.48833333625,
      "d": 243.05545833334327,
      "v": 104
    },
    {
      "midi": 74,
      "hit": false,
      "t": 302529.48833333625,
      "d": 243.05545833334327,
      "v": 104
    },
    {
      "midi": 52,
      "hit": false,
      "t": 302807.2660000029,
      "d": 373.2637395833153,
      "v": 104
    },
    {
      "midi": 45,
      "hit": false,
      "t": 302807.2660000029,
      "d": 373.2637395833153,
      "v": 104
    },
    {
      "midi": 81,
      "hit": false,
      "t": 302807.2660000029,
      "d": 1493.0549583333195,
      "v": 104
    },
    {
      "midi": 76,
      "hit": false,
      "t": 302807.2660000029,
      "d": 1493.0549583333195,
      "v": 104
    },
    {
      "midi": 73,
      "hit": false,
      "t": 302807.2660000029,
      "d": 1493.0549583333195,
      "v": 104
    },
    {
      "midi": 52,
      "hit": false,
      "t": 303223.9325000029,
      "d": 373.2637395833153,
      "v": 104
    },
    {
      "midi": 45,
      "hit": false,
      "t": 303223.9325000029,
      "d": 373.2637395833153,
      "v": 104
    },
    {
      "midi": 52,
      "hit": false,
      "t": 303640.5990000029,
      "d": 373.2637395833153,
      "v": 104
    },
    {
      "midi": 45,
      "hit": false,
      "t": 303640.5990000029,
      "d": 373.2637395833153,
      "v": 104
    },
    {
      "midi": 52,
      "hit": false,
      "t": 304057.2655000029,
      "d": 373.2637395833153,
      "v": 104
    },
    {
      "midi": 45,
      "hit": false,
      "t": 304057.2655000029,
      "d": 373.2637395833153,
      "v": 104
    },
    {
      "midi": 53,
      "hit": false,
      "t": 304473.9320000029,
      "d": 373.2637395833153,
      "v": 104
    },
    {
      "midi": 46,
      "hit": false,
      "t": 304473.9320000029,
      "d": 373.2637395833153,
      "v": 104
    },
    {
      "midi": 82,
      "hit": false,
      "t": 304473.9320000029,
      "d": 373.2637395833153,
      "v": 104
    },
    {
      "midi": 77,
      "hit": false,
      "t": 304473.9320000029,
      "d": 373.2637395833153,
      "v": 104
    },
    {
      "midi": 75,
      "hit": false,
      "t": 304473.9320000029,
      "d": 373.2637395833153,
      "v": 104
    },
    {
      "midi": 82,
      "hit": false,
      "t": 304890.5985000029,
      "d": 182.29159375000745,
      "v": 104
    },
    {
      "midi": 77,
      "hit": false,
      "t": 304890.5985000029,
      "d": 182.29159375000745,
      "v": 104
    },
    {
      "midi": 75,
      "hit": false,
      "t": 304890.5985000029,
      "d": 182.29159375000745,
      "v": 104
    },
    {
      "midi": 53,
      "hit": false,
      "t": 304890.5985000029,
      "d": 373.26373958337354,
      "v": 104
    },
    {
      "midi": 46,
      "hit": false,
      "t": 304890.5985000029,
      "d": 373.26373958337354,
      "v": 104
    },
    {
      "midi": 82,
      "hit": false,
      "t": 305098.9317500029,
      "d": 364.5831875000149,
      "v": 104
    },
    {
      "midi": 77,
      "hit": false,
      "t": 305098.9317500029,
      "d": 364.5831875000149,
      "v": 104
    },
    {
      "midi": 75,
      "hit": false,
      "t": 305098.9317500029,
      "d": 364.5831875000149,
      "v": 104
    },
    {
      "midi": 53,
      "hit": false,
      "t": 305307.2650000029,
      "d": 373.2637395833153,
      "v": 104
    },
    {
      "midi": 46,
      "hit": false,
      "t": 305307.2650000029,
      "d": 373.2637395833153,
      "v": 104
    },
    {
      "midi": 82,
      "hit": false,
      "t": 305515.5982500029,
      "d": 182.29159375000745,
      "v": 104
    },
    {
      "midi": 77,
      "hit": false,
      "t": 305515.5982500029,
      "d": 182.29159375000745,
      "v": 104
    },
    {
      "midi": 75,
      "hit": false,
      "t": 305515.5982500029,
      "d": 182.29159375000745,
      "v": 104
    },
    {
      "midi": 53,
      "hit": false,
      "t": 305723.9315000029,
      "d": 373.2637395833153,
      "v": 104
    },
    {
      "midi": 46,
      "hit": false,
      "t": 305723.9315000029,
      "d": 373.2637395833153,
      "v": 104
    },
    {
      "midi": 82,
      "hit": false,
      "t": 305723.9315000029,
      "d": 1866.3186979166348,
      "v": 104
    },
    {
      "midi": 77,
      "hit": false,
      "t": 305723.9315000029,
      "d": 1866.3186979166348,
      "v": 104
    },
    {
      "midi": 74,
      "hit": false,
      "t": 305723.9315000029,
      "d": 1866.3186979166348,
      "v": 104
    },
    {
      "midi": 53,
      "hit": false,
      "t": 306140.5980000029,
      "d": 373.2637395833153,
      "v": 104
    },
    {
      "midi": 46,
      "hit": false,
      "t": 306140.5980000029,
      "d": 373.2637395833153,
      "v": 104
    },
    {
      "midi": 53,
      "hit": false,
      "t": 306557.2645000029,
      "d": 373.2637395833153,
      "v": 104
    },
    {
      "midi": 46,
      "hit": false,
      "t": 306557.2645000029,
      "d": 373.2637395833153,
      "v": 104
    },
    {
      "midi": 53,
      "hit": false,
      "t": 306973.9310000029,
      "d": 373.2637395833153,
      "v": 104
    },
    {
      "midi": 46,
      "hit": false,
      "t": 306973.9310000029,
      "d": 373.2637395833153,
      "v": 104
    },
    {
      "midi": 53,
      "hit": false,
      "t": 307390.5975000029,
      "d": 373.2637395833153,
      "v": 104
    },
    {
      "midi": 46,
      "hit": false,
      "t": 307390.5975000029,
      "d": 373.2637395833153,
      "v": 104
    },
    {
      "midi": 58,
      "hit": false,
      "t": 307807.2640000029,
      "d": 373.2637395833153,
      "v": 104
    },
    {
      "midi": 55,
      "hit": false,
      "t": 307807.2640000029,
      "d": 373.2637395833153,
      "v": 104
    },
    {
      "midi": 51,
      "hit": false,
      "t": 307807.2640000029,
      "d": 373.2637395833153,
      "v": 104
    },
    {
      "midi": 82,
      "hit": false,
      "t": 307807.2640000029,
      "d": 1119.7912187500042,
      "v": 104
    },
    {
      "midi": 58,
      "hit": false,
      "t": 308223.93050000287,
      "d": 373.2637395833153,
      "v": 104
    },
    {
      "midi": 55,
      "hit": false,
      "t": 308223.93050000287,
      "d": 373.2637395833153,
      "v": 104
    },
    {
      "midi": 51,
      "hit": false,
      "t": 308223.93050000287,
      "d": 373.2637395833153,
      "v": 104
    },
    {
      "midi": 58,
      "hit": false,
      "t": 308640.59700000286,
      "d": 373.26373958337354,
      "v": 104
    },
    {
      "midi": 55,
      "hit": false,
      "t": 308640.59700000286,
      "d": 373.26373958337354,
      "v": 104
    },
    {
      "midi": 51,
      "hit": false,
      "t": 308640.59700000286,
      "d": 373.26373958337354,
      "v": 104
    },
    {
      "midi": 84,
      "hit": false,
      "t": 309057.2635000029,
      "d": 182.29159375000745,
      "v": 104
    },
    {
      "midi": 58,
      "hit": false,
      "t": 309057.2635000029,
      "d": 373.26373958337354,
      "v": 104
    },
    {
      "midi": 55,
      "hit": false,
      "t": 309057.2635000029,
      "d": 373.26373958337354,
      "v": 104
    },
    {
      "midi": 51,
      "hit": false,
      "t": 309057.2635000029,
      "d": 373.26373958337354,
      "v": 104
    },
    {
      "midi": 82,
      "hit": false,
      "t": 309265.59675000294,
      "d": 182.29159375000745,
      "v": 104
    },
    {
      "midi": 84,
      "hit": false,
      "t": 309473.93000000296,
      "d": 182.29159375000745,
      "v": 104
    },
    {
      "midi": 62,
      "hit": false,
      "t": 309473.93000000296,
      "d": 373.26373958337354,
      "v": 104
    },
    {
      "midi": 58,
      "hit": false,
      "t": 309473.93000000296,
      "d": 373.26373958337354,
      "v": 104
    },
    {
      "midi": 55,
      "hit": false,
      "t": 309473.93000000296,
      "d": 373.26373958337354,
      "v": 104
    },
    {
      "midi": 82,
      "hit": false,
      "t": 309682.263250003,
      "d": 1111.1106666667038,
      "v": 104
    },
    {
      "midi": 62,
      "hit": false,
      "t": 309890.596500003,
      "d": 373.2637395833153,
      "v": 104
    },
    {
      "midi": 58,
      "hit": false,
      "t": 309890.596500003,
      "d": 373.2637395833153,
      "v": 104
    },
    {
      "midi": 55,
      "hit": false,
      "t": 309890.596500003,
      "d": 373.2637395833153,
      "v": 104
    },
    {
      "midi": 62,
      "hit": false,
      "t": 310307.263000003,
      "d": 373.2637395833153,
      "v": 104
    },
    {
      "midi": 58,
      "hit": false,
      "t": 310307.263000003,
      "d": 373.2637395833153,
      "v": 104
    },
    {
      "midi": 55,
      "hit": false,
      "t": 310307.263000003,
      "d": 373.2637395833153,
      "v": 104
    },
    {
      "midi": 62,
      "hit": false,
      "t": 310723.929500003,
      "d": 373.26373958337354,
      "v": 104
    },
    {
      "midi": 58,
      "hit": false,
      "t": 310723.929500003,
      "d": 373.26373958337354,
      "v": 104
    },
    {
      "midi": 55,
      "hit": false,
      "t": 310723.929500003,
      "d": 373.26373958337354,
      "v": 104
    },
    {
      "midi": 82,
      "hit": false,
      "t": 310932.262750003,
      "d": 182.29159375000745,
      "v": 104
    },
    {
      "midi": 63,
      "hit": false,
      "t": 311140.59600000305,
      "d": 373.2637395833153,
      "v": 104
    },
    {
      "midi": 60,
      "hit": false,
      "t": 311140.59600000305,
      "d": 373.2637395833153,
      "v": 104
    },
    {
      "midi": 56,
      "hit": false,
      "t": 311140.59600000305,
      "d": 373.2637395833153,
      "v": 104
    },
    {
      "midi": 82,
      "hit": false,
      "t": 311140.59600000305,
      "d": 373.2637395833153,
      "v": 104
    },
    {
      "midi": 63,
      "hit": false,
      "t": 311557.26250000304,
      "d": 373.2637395833153,
      "v": 104
    },
    {
      "midi": 60,
      "hit": false,
      "t": 311557.26250000304,
      "d": 373.2637395833153,
      "v": 104
    },
    {
      "midi": 56,
      "hit": false,
      "t": 311557.26250000304,
      "d": 373.2637395833153,
      "v": 104
    },
    {
      "midi": 80,
      "hit": false,
      "t": 311557.26250000304,
      "d": 373.2637395833153,
      "v": 104
    },
    {
      "midi": 80,
      "hit": false,
      "t": 311973.92900000303,
      "d": 182.29159375000745,
      "v": 104
    },
    {
      "midi": 63,
      "hit": false,
      "t": 311973.92900000303,
      "d": 373.26373958337354,
      "v": 104
    },
    {
      "midi": 60,
      "hit": false,
      "t": 311973.92900000303,
      "d": 373.26373958337354,
      "v": 104
    },
    {
      "midi": 56,
      "hit": false,
      "t": 311973.92900000303,
      "d": 373.26373958337354,
      "v": 104
    },
    {
      "midi": 79,
      "hit": false,
      "t": 312182.26225000306,
      "d": 373.26373958337354,
      "v": 104
    },
    {
      "midi": 63,
      "hit": false,
      "t": 312390.5955000031,
      "d": 373.26373958337354,
      "v": 104
    },
    {
      "midi": 60,
      "hit": false,
      "t": 312390.5955000031,
      "d": 373.26373958337354,
      "v": 104
    },
    {
      "midi": 56,
      "hit": false,
      "t": 312390.5955000031,
      "d": 373.26373958337354,
      "v": 104
    },
    {
      "midi": 77,
      "hit": false,
      "t": 312598.9287500031,
      "d": 555.555333333381,
      "v": 104
    },
    {
      "midi": 65,
      "hit": false,
      "t": 312807.26200000313,
      "d": 373.26373958337354,
      "v": 104
    },
    {
      "midi": 62,
      "hit": false,
      "t": 312807.26200000313,
      "d": 373.26373958337354,
      "v": 104
    },
    {
      "midi": 58,
      "hit": false,
      "t": 312807.26200000313,
      "d": 373.26373958337354,
      "v": 104
    },
    {
      "midi": 65,
      "hit": false,
      "t": 313223.9285000032,
      "d": 373.2637395833153,
      "v": 104
    },
    {
      "midi": 62,
      "hit": false,
      "t": 313223.9285000032,
      "d": 373.2637395833153,
      "v": 104
    },
    {
      "midi": 58,
      "hit": false,
      "t": 313223.9285000032,
      "d": 373.2637395833153,
      "v": 104
    },
    {
      "midi": 79,
      "hit": false,
      "t": 313223.9285000032,
      "d": 373.2637395833153,
      "v": 104
    },
    {
      "midi": 80,
      "hit": false,
      "t": 313640.5950000032,
      "d": 182.29159375000745,
      "v": 104
    },
    {
      "midi": 65,
      "hit": false,
      "t": 313640.5950000032,
      "d": 373.26373958337354,
      "v": 104
    },
    {
      "midi": 62,
      "hit": false,
      "t": 313640.5950000032,
      "d": 373.26373958337354,
      "v": 104
    },
    {
      "midi": 58,
      "hit": false,
      "t": 313640.5950000032,
      "d": 373.26373958337354,
      "v": 104
    },
    {
      "midi": 80,
      "hit": false,
      "t": 313848.9282500032,
      "d": 182.29159375000745,
      "v": 104
    },
    {
      "midi": 65,
      "hit": false,
      "t": 314057.2615000032,
      "d": 373.2637395833153,
      "v": 104
    },
    {
      "midi": 62,
      "hit": false,
      "t": 314057.2615000032,
      "d": 373.2637395833153,
      "v": 104
    },
    {
      "midi": 58,
      "hit": false,
      "t": 314057.2615000032,
      "d": 373.2637395833153,
      "v": 104
    },
    {
      "midi": 84,
      "hit": false,
      "t": 314057.2615000032,
      "d": 373.2637395833153,
      "v": 104
    },
    {
      "midi": 58,
      "hit": false,
      "t": 314473.9280000032,
      "d": 373.2637395833153,
      "v": 104
    },
    {
      "midi": 55,
      "hit": false,
      "t": 314473.9280000032,
      "d": 373.2637395833153,
      "v": 104
    },
    {
      "midi": 51,
      "hit": false,
      "t": 314473.9280000032,
      "d": 373.2637395833153,
      "v": 104
    },
    {
      "midi": 82,
      "hit": false,
      "t": 314473.9280000032,
      "d": 1119.7912187500042,
      "v": 104
    },
    {
      "midi": 58,
      "hit": false,
      "t": 314890.5945000032,
      "d": 373.2637395833153,
      "v": 104
    },
    {
      "midi": 55,
      "hit": false,
      "t": 314890.5945000032,
      "d": 373.2637395833153,
      "v": 104
    },
    {
      "midi": 51,
      "hit": false,
      "t": 314890.5945000032,
      "d": 373.2637395833153,
      "v": 104
    },
    {
      "midi": 58,
      "hit": false,
      "t": 315307.2610000032,
      "d": 373.26373958337354,
      "v": 104
    },
    {
      "midi": 55,
      "hit": false,
      "t": 315307.2610000032,
      "d": 373.26373958337354,
      "v": 104
    },
    {
      "midi": 51,
      "hit": false,
      "t": 315307.2610000032,
      "d": 373.26373958337354,
      "v": 104
    },
    {
      "midi": 79,
      "hit": false,
      "t": 315723.92750000325,
      "d": 182.29159375000745,
      "v": 104
    },
    {
      "midi": 58,
      "hit": false,
      "t": 315723.92750000325,
      "d": 373.26373958337354,
      "v": 104
    },
    {
      "midi": 55,
      "hit": false,
      "t": 315723.92750000325,
      "d": 373.26373958337354,
      "v": 104
    },
    {
      "midi": 51,
      "hit": false,
      "t": 315723.92750000325,
      "d": 373.26373958337354,
      "v": 104
    },
    {
      "midi": 82,
      "hit": false,
      "t": 315932.2607500033,
      "d": 928.8190729166963,
      "v": 104
    },
    {
      "midi": 62,
      "hit": false,
      "t": 316140.5940000033,
      "d": 373.2637395833153,
      "v": 104
    },
    {
      "midi": 58,
      "hit": false,
      "t": 316140.5940000033,
      "d": 373.2637395833153,
      "v": 104
    },
    {
      "midi": 55,
      "hit": false,
      "t": 316140.5940000033,
      "d": 373.2637395833153,
      "v": 104
    },
    {
      "midi": 62,
      "hit": false,
      "t": 316557.2605000033,
      "d": 373.26373958337354,
      "v": 104
    },
    {
      "midi": 58,
      "hit": false,
      "t": 316557.2605000033,
      "d": 373.26373958337354,
      "v": 104
    },
    {
      "midi": 55,
      "hit": false,
      "t": 316557.2605000033,
      "d": 373.26373958337354,
      "v": 104
    },
    {
      "midi": 62,
      "hit": false,
      "t": 316973.92700000334,
      "d": 373.2637395833153,
      "v": 104
    },
    {
      "midi": 58,
      "hit": false,
      "t": 316973.92700000334,
      "d": 373.2637395833153,
      "v": 104
    },
    {
      "midi": 55,
      "hit": false,
      "t": 316973.92700000334,
      "d": 373.2637395833153,
      "v": 104
    },
    {
      "midi": 62,
      "hit": false,
      "t": 317390.59350000334,
      "d": 373.26373958337354,
      "v": 104
    },
    {
      "midi": 58,
      "hit": false,
      "t": 317390.59350000334,
      "d": 373.26373958337354,
      "v": 104
    },
    {
      "midi": 55,
      "hit": false,
      "t": 317390.59350000334,
      "d": 373.26373958337354,
      "v": 104
    },
    {
      "midi": 82,
      "hit": false,
      "t": 317598.92675000336,
      "d": 182.29159375000745,
      "v": 104
    },
    {
      "midi": 63,
      "hit": false,
      "t": 317807.2600000034,
      "d": 373.2637395833153,
      "v": 104
    },
    {
      "midi": 60,
      "hit": false,
      "t": 317807.2600000034,
      "d": 373.2637395833153,
      "v": 104
    },
    {
      "midi": 56,
      "hit": false,
      "t": 317807.2600000034,
      "d": 373.2637395833153,
      "v": 104
    },
    {
      "midi": 82,
      "hit": false,
      "t": 317807.2600000034,
      "d": 373.2637395833153,
      "v": 104
    },
    {
      "midi": 63,
      "hit": false,
      "t": 318223.9265000034,
      "d": 373.2637395833153,
      "v": 104
    },
    {
      "midi": 60,
      "hit": false,
      "t": 318223.9265000034,
      "d": 373.2637395833153,
      "v": 104
    },
    {
      "midi": 56,
      "hit": false,
      "t": 318223.9265000034,
      "d": 373.2637395833153,
      "v": 104
    },
    {
      "midi": 80,
      "hit": false,
      "t": 318223.9265000034,
      "d": 373.2637395833153,
      "v": 104
    },
    {
      "midi": 80,
      "hit": false,
      "t": 318640.59300000337,
      "d": 182.29159375000745,
      "v": 104
    },
    {
      "midi": 63,
      "hit": false,
      "t": 318640.59300000337,
      "d": 373.26373958337354,
      "v": 104
    },
    {
      "midi": 60,
      "hit": false,
      "t": 318640.59300000337,
      "d": 373.26373958337354,
      "v": 104
    },
    {
      "midi": 56,
      "hit": false,
      "t": 318640.59300000337,
      "d": 373.26373958337354,
      "v": 104
    },
    {
      "midi": 79,
      "hit": false,
      "t": 318848.9262500034,
      "d": 373.26373958337354,
      "v": 104
    },
    {
      "midi": 63,
      "hit": false,
      "t": 319057.2595000034,
      "d": 373.26373958337354,
      "v": 104
    },
    {
      "midi": 60,
      "hit": false,
      "t": 319057.2595000034,
      "d": 373.26373958337354,
      "v": 104
    },
    {
      "midi": 56,
      "hit": false,
      "t": 319057.2595000034,
      "d": 373.26373958337354,
      "v": 104
    },
    {
      "midi": 79,
      "hit": false,
      "t": 319265.59275000344,
      "d": 182.29159375000745,
      "v": 104
    },
    {
      "midi": 65,
      "hit": false,
      "t": 319473.92600000347,
      "d": 373.2637395833153,
      "v": 104
    },
    {
      "midi": 62,
      "hit": false,
      "t": 319473.92600000347,
      "d": 373.2637395833153,
      "v": 104
    },
    {
      "midi": 58,
      "hit": false,
      "t": 319473.92600000347,
      "d": 373.2637395833153,
      "v": 104
    },
    {
      "midi": 77,
      "hit": false,
      "t": 319473.92600000347,
      "d": 373.2637395833153,
      "v": 104
    },
    {
      "midi": 65,
      "hit": false,
      "t": 319890.59250000346,
      "d": 373.2637395833153,
      "v": 104
    },
    {
      "midi": 62,
      "hit": false,
      "t": 319890.59250000346,
      "d": 373.2637395833153,
      "v": 104
    },
    {
      "midi": 58,
      "hit": false,
      "t": 319890.59250000346,
      "d": 373.2637395833153,
      "v": 104
    },
    {
      "midi": 77,
      "hit": false,
      "t": 319890.59250000346,
      "d": 373.2637395833153,
      "v": 104
    },
    {
      "midi": 80,
      "hit": false,
      "t": 320307.25900000345,
      "d": 243.05545833334327,
      "v": 104
    },
    {
      "midi": 65,
      "hit": false,
      "t": 320307.25900000345,
      "d": 373.2637395833153,
      "v": 104
    },
    {
      "midi": 62,
      "hit": false,
      "t": 320307.25900000345,
      "d": 373.2637395833153,
      "v": 104
    },
    {
      "midi": 59,
      "hit": false,
      "t": 320307.25900000345,
      "d": 373.2637395833153,
      "v": 104
    },
    {
      "midi": 79,
      "hit": false,
      "t": 320585.0366666701,
      "d": 243.05545833334327,
      "v": 104
    },
    {
      "midi": 65,
      "hit": false,
      "t": 320723.92550000345,
      "d": 373.2637395833153,
      "v": 104
    },
    {
      "midi": 62,
      "hit": false,
      "t": 320723.92550000345,
      "d": 373.2637395833153,
      "v": 104
    },
    {
      "midi": 59,
      "hit": false,
      "t": 320723.92550000345,
      "d": 373.2637395833153,
      "v": 104
    },
    {
      "midi": 77,
      "hit": false,
      "t": 320862.8143333368,
      "d": 243.05545833334327,
      "v": 104
    },
    {
      "midi": 67,
      "hit": false,
      "t": 321140.59200000344,
      "d": 373.2637395833153,
      "v": 104
    },
    {
      "midi": 63,
      "hit": false,
      "t": 321140.59200000344,
      "d": 373.2637395833153,
      "v": 104
    },
    {
      "midi": 60,
      "hit": false,
      "t": 321140.59200000344,
      "d": 373.2637395833153,
      "v": 104
    },
    {
      "midi": 77,
      "hit": false,
      "t": 321140.59200000344,
      "d": 373.2637395833153,
      "v": 104
    },
    {
      "midi": 75,
      "hit": false,
      "t": 321557.25850000343,
      "d": 182.29159375000745,
      "v": 104
    },
    {
      "midi": 67,
      "hit": false,
      "t": 321557.25850000343,
      "d": 373.26373958337354,
      "v": 104
    },
    {
      "midi": 63,
      "hit": false,
      "t": 321557.25850000343,
      "d": 373.26373958337354,
      "v": 104
    },
    {
      "midi": 60,
      "hit": false,
      "t": 321557.25850000343,
      "d": 373.26373958337354,
      "v": 104
    },
    {
      "midi": 79,
      "hit": false,
      "t": 321765.59175000346,
      "d": 1675.346552083327,
      "v": 104
    },
    {
      "midi": 67,
      "hit": false,
      "t": 321973.9250000035,
      "d": 373.2637395833153,
      "v": 104
    },
    {
      "midi": 63,
      "hit": false,
      "t": 321973.9250000035,
      "d": 373.2637395833153,
      "v": 104
    },
    {
      "midi": 60,
      "hit": false,
      "t": 321973.9250000035,
      "d": 373.2637395833153,
      "v": 104
    },
    {
      "midi": 67,
      "hit": false,
      "t": 322390.5915000035,
      "d": 373.2637395833153,
      "v": 104
    },
    {
      "midi": 63,
      "hit": false,
      "t": 322390.5915000035,
      "d": 373.2637395833153,
      "v": 104
    },
    {
      "midi": 60,
      "hit": false,
      "t": 322390.5915000035,
      "d": 373.2637395833153,
      "v": 104
    },
    {
      "midi": 67,
      "hit": false,
      "t": 322807.25800000346,
      "d": 373.2637395833153,
      "v": 104
    },
    {
      "midi": 63,
      "hit": false,
      "t": 322807.25800000346,
      "d": 373.2637395833153,
      "v": 104
    },
    {
      "midi": 60,
      "hit": false,
      "t": 322807.25800000346,
      "d": 373.2637395833153,
      "v": 104
    },
    {
      "midi": 67,
      "hit": false,
      "t": 323223.92450000346,
      "d": 373.2637395833153,
      "v": 104
    },
    {
      "midi": 63,
      "hit": false,
      "t": 323223.92450000346,
      "d": 373.2637395833153,
      "v": 104
    },
    {
      "midi": 60,
      "hit": false,
      "t": 323223.92450000346,
      "d": 373.2637395833153,
      "v": 104
    },
    {
      "midi": 75,
      "hit": false,
      "t": 323640.59100000345,
      "d": 182.29159375000745,
      "v": 104
    },
    {
      "midi": 67,
      "hit": false,
      "t": 323640.59100000345,
      "d": 373.26373958337354,
      "v": 104
    },
    {
      "midi": 63,
      "hit": false,
      "t": 323640.59100000345,
      "d": 373.26373958337354,
      "v": 104
    },
    {
      "midi": 60,
      "hit": false,
      "t": 323640.59100000345,
      "d": 373.26373958337354,
      "v": 104
    },
    {
      "midi": 77,
      "hit": false,
      "t": 323848.9242500035,
      "d": 182.29159375000745,
      "v": 104
    },
    {
      "midi": 67,
      "hit": false,
      "t": 324057.2575000035,
      "d": 373.2637395833153,
      "v": 104
    },
    {
      "midi": 63,
      "hit": false,
      "t": 324057.2575000035,
      "d": 373.2637395833153,
      "v": 104
    },
    {
      "midi": 60,
      "hit": false,
      "t": 324057.2575000035,
      "d": 373.2637395833153,
      "v": 104
    },
    {
      "midi": 79,
      "hit": false,
      "t": 324057.2575000035,
      "d": 373.2637395833153,
      "v": 104
    },
    {
      "midi": 56,
      "hit": false,
      "t": 324473.9240000035,
      "d": 746.5274791666889,
      "v": 104
    },
    {
      "midi": 53,
      "hit": false,
      "t": 324473.9240000035,
      "d": 746.5274791666889,
      "v": 104
    },
    {
      "midi": 80,
      "hit": false,
      "t": 324473.9240000035,
      "d": 746.5274791666889,
      "v": 104
    },
    {
      "midi": 79,
      "hit": false,
      "t": 325307.25700000353,
      "d": 373.2637395833153,
      "v": 104
    },
    {
      "midi": 58,
      "hit": false,
      "t": 325307.25700000353,
      "d": 746.5274791666889,
      "v": 104
    },
    {
      "midi": 55,
      "hit": false,
      "t": 325307.25700000353,
      "d": 746.5274791666889,
      "v": 104
    },
    {
      "midi": 77,
      "hit": false,
      "t": 325723.9235000035,
      "d": 182.29159375000745,
      "v": 104
    },
    {
      "midi": 75,
      "hit": false,
      "t": 325932.25675000355,
      "d": 928.8190729166963,
      "v": 104
    },
    {
      "midi": 60,
      "hit": false,
      "t": 326140.5900000036,
      "d": 746.5274791666889,
      "v": 104
    },
    {
      "midi": 56,
      "hit": false,
      "t": 326140.5900000036,
      "d": 746.5274791666889,
      "v": 104
    },
    {
      "midi": 62,
      "hit": false,
      "t": 326973.9230000036,
      "d": 746.5274791666889,
      "v": 104
    },
    {
      "midi": 58,
      "hit": false,
      "t": 326973.9230000036,
      "d": 746.5274791666889,
      "v": 104
    },
    {
      "midi": 77,
      "hit": false,
      "t": 326973.9230000036,
      "d": 746.5274791666889,
      "v": 104
    },
    {
      "midi": 58,
      "hit": false,
      "t": 327807.25600000366,
      "d": 373.2637395833153,
      "v": 104
    },
    {
      "midi": 55,
      "hit": false,
      "t": 327807.25600000366,
      "d": 373.2637395833153,
      "v": 104
    },
    {
      "midi": 51,
      "hit": false,
      "t": 327807.25600000366,
      "d": 373.2637395833153,
      "v": 104
    },
    {
      "midi": 82,
      "hit": false,
      "t": 327807.25600000366,
      "d": 1119.7912187500042,
      "v": 104
    },
    {
      "midi": 58,
      "hit": false,
      "t": 328223.92250000365,
      "d": 373.2637395833153,
      "v": 104
    },
    {
      "midi": 55,
      "hit": false,
      "t": 328223.92250000365,
      "d": 373.2637395833153,
      "v": 104
    },
    {
      "midi": 51,
      "hit": false,
      "t": 328223.92250000365,
      "d": 373.2637395833153,
      "v": 104
    },
    {
      "midi": 58,
      "hit": false,
      "t": 328640.58900000365,
      "d": 373.26373958337354,
      "v": 104
    },
    {
      "midi": 55,
      "hit": false,
      "t": 328640.58900000365,
      "d": 373.26373958337354,
      "v": 104
    },
    {
      "midi": 51,
      "hit": false,
      "t": 328640.58900000365,
      "d": 373.26373958337354,
      "v": 104
    },
    {
      "midi": 79,
      "hit": false,
      "t": 329057.2555000037,
      "d": 182.29159375000745,
      "v": 104
    },
    {
      "midi": 58,
      "hit": false,
      "t": 329057.2555000037,
      "d": 373.26373958337354,
      "v": 104
    },
    {
      "midi": 55,
      "hit": false,
      "t": 329057.2555000037,
      "d": 373.26373958337354,
      "v": 104
    },
    {
      "midi": 51,
      "hit": false,
      "t": 329057.2555000037,
      "d": 373.26373958337354,
      "v": 104
    },
    {
      "midi": 79,
      "hit": false,
      "t": 329265.5887500037,
      "d": 182.29159375000745,
      "v": 104
    },
    {
      "midi": 62,
      "hit": false,
      "t": 329473.92200000375,
      "d": 373.2637395833153,
      "v": 104
    },
    {
      "midi": 58,
      "hit": false,
      "t": 329473.92200000375,
      "d": 373.2637395833153,
      "v": 104
    },
    {
      "midi": 55,
      "hit": false,
      "t": 329473.92200000375,
      "d": 373.2637395833153,
      "v": 104
    },
    {
      "midi": 82,
      "hit": false,
      "t": 329473.92200000375,
      "d": 1276.041156249994,
      "v": 104
    },
    {
      "midi": 62,
      "hit": false,
      "t": 329890.58850000374,
      "d": 373.2637395833153,
      "v": 104
    },
    {
      "midi": 58,
      "hit": false,
      "t": 329890.58850000374,
      "d": 373.2637395833153,
      "v": 104
    },
    {
      "midi": 55,
      "hit": false,
      "t": 329890.58850000374,
      "d": 373.2637395833153,
      "v": 104
    },
    {
      "midi": 62,
      "hit": false,
      "t": 330307.25500000373,
      "d": 373.2637395833153,
      "v": 104
    },
    {
      "midi": 58,
      "hit": false,
      "t": 330307.25500000373,
      "d": 373.2637395833153,
      "v": 104
    },
    {
      "midi": 55,
      "hit": false,
      "t": 330307.25500000373,
      "d": 373.2637395833153,
      "v": 104
    },
    {
      "midi": 62,
      "hit": false,
      "t": 330723.9215000037,
      "d": 373.26373958337354,
      "v": 104
    },
    {
      "midi": 58,
      "hit": false,
      "t": 330723.9215000037,
      "d": 373.26373958337354,
      "v": 104
    },
    {
      "midi": 55,
      "hit": false,
      "t": 330723.9215000037,
      "d": 373.26373958337354,
      "v": 104
    },
    {
      "midi": 82,
      "hit": false,
      "t": 330932.25475000375,
      "d": 182.29159375000745,
      "v": 104
    },
    {
      "midi": 63,
      "hit": false,
      "t": 331140.5880000038,
      "d": 373.2637395833153,
      "v": 104
    },
    {
      "midi": 60,
      "hit": false,
      "t": 331140.5880000038,
      "d": 373.2637395833153,
      "v": 104
    },
    {
      "midi": 56,
      "hit": false,
      "t": 331140.5880000038,
      "d": 373.2637395833153,
      "v": 104
    },
    {
      "midi": 82,
      "hit": false,
      "t": 331140.5880000038,
      "d": 373.2637395833153,
      "v": 104
    },
    {
      "midi": 63,
      "hit": false,
      "t": 331557.25450000376,
      "d": 373.2637395833153,
      "v": 104
    },
    {
      "midi": 60,
      "hit": false,
      "t": 331557.25450000376,
      "d": 373.2637395833153,
      "v": 104
    },
    {
      "midi": 56,
      "hit": false,
      "t": 331557.25450000376,
      "d": 373.2637395833153,
      "v": 104
    },
    {
      "midi": 80,
      "hit": false,
      "t": 331557.25450000376,
      "d": 373.2637395833153,
      "v": 104
    },
    {
      "midi": 80,
      "hit": false,
      "t": 331973.92100000376,
      "d": 182.29159375000745,
      "v": 104
    },
    {
      "midi": 63,
      "hit": false,
      "t": 331973.92100000376,
      "d": 373.26373958337354,
      "v": 104
    },
    {
      "midi": 60,
      "hit": false,
      "t": 331973.92100000376,
      "d": 373.26373958337354,
      "v": 104
    },
    {
      "midi": 56,
      "hit": false,
      "t": 331973.92100000376,
      "d": 373.26373958337354,
      "v": 104
    },
    {
      "midi": 79,
      "hit": false,
      "t": 332182.2542500038,
      "d": 373.26373958337354,
      "v": 104
    },
    {
      "midi": 63,
      "hit": false,
      "t": 332390.5875000038,
      "d": 373.26373958337354,
      "v": 104
    },
    {
      "midi": 60,
      "hit": false,
      "t": 332390.5875000038,
      "d": 373.26373958337354,
      "v": 104
    },
    {
      "midi": 56,
      "hit": false,
      "t": 332390.5875000038,
      "d": 373.26373958337354,
      "v": 104
    },
    {
      "midi": 77,
      "hit": false,
      "t": 332598.92075000383,
      "d": 555.555333333381,
      "v": 104
    },
    {
      "midi": 65,
      "hit": false,
      "t": 332807.25400000386,
      "d": 373.26373958337354,
      "v": 104
    },
    {
      "midi": 62,
      "hit": false,
      "t": 332807.25400000386,
      "d": 373.26373958337354,
      "v": 104
    },
    {
      "midi": 58,
      "hit": false,
      "t": 332807.25400000386,
      "d": 373.26373958337354,
      "v": 104
    },
    {
      "midi": 65,
      "hit": false,
      "t": 333223.9205000039,
      "d": 373.2637395833153,
      "v": 104
    },
    {
      "midi": 62,
      "hit": false,
      "t": 333223.9205000039,
      "d": 373.2637395833153,
      "v": 104
    },
    {
      "midi": 58,
      "hit": false,
      "t": 333223.9205000039,
      "d": 373.2637395833153,
      "v": 104
    },
    {
      "midi": 79,
      "hit": false,
      "t": 333223.9205000039,
      "d": 373.2637395833153,
      "v": 104
    },
    {
      "midi": 80,
      "hit": false,
      "t": 333640.5870000039,
      "d": 182.29159375000745,
      "v": 104
    },
    {
      "midi": 65,
      "hit": false,
      "t": 333640.5870000039,
      "d": 373.26373958337354,
      "v": 104
    },
    {
      "midi": 62,
      "hit": false,
      "t": 333640.5870000039,
      "d": 373.26373958337354,
      "v": 104
    },
    {
      "midi": 58,
      "hit": false,
      "t": 333640.5870000039,
      "d": 373.26373958337354,
      "v": 104
    },
    {
      "midi": 80,
      "hit": false,
      "t": 333848.9202500039,
      "d": 182.29159375000745,
      "v": 104
    },
    {
      "midi": 65,
      "hit": false,
      "t": 334057.25350000395,
      "d": 373.2637395833153,
      "v": 104
    },
    {
      "midi": 62,
      "hit": false,
      "t": 334057.25350000395,
      "d": 373.2637395833153,
      "v": 104
    },
    {
      "midi": 58,
      "hit": false,
      "t": 334057.25350000395,
      "d": 373.2637395833153,
      "v": 104
    },
    {
      "midi": 84,
      "hit": false,
      "t": 334057.25350000395,
      "d": 373.2637395833153,
      "v": 104
    },
    {
      "midi": 58,
      "hit": false,
      "t": 334473.92000000394,
      "d": 373.2637395833153,
      "v": 104
    },
    {
      "midi": 55,
      "hit": false,
      "t": 334473.92000000394,
      "d": 373.2637395833153,
      "v": 104
    },
    {
      "midi": 51,
      "hit": false,
      "t": 334473.92000000394,
      "d": 373.2637395833153,
      "v": 104
    },
    {
      "midi": 82,
      "hit": false,
      "t": 334473.92000000394,
      "d": 1119.7912187500042,
      "v": 104
    },
    {
      "midi": 58,
      "hit": false,
      "t": 334890.58650000393,
      "d": 373.2637395833153,
      "v": 104
    },
    {
      "midi": 55,
      "hit": false,
      "t": 334890.58650000393,
      "d": 373.2637395833153,
      "v": 104
    },
    {
      "midi": 51,
      "hit": false,
      "t": 334890.58650000393,
      "d": 373.2637395833153,
      "v": 104
    },
    {
      "midi": 58,
      "hit": false,
      "t": 335307.2530000039,
      "d": 373.26373958337354,
      "v": 104
    },
    {
      "midi": 55,
      "hit": false,
      "t": 335307.2530000039,
      "d": 373.26373958337354,
      "v": 104
    },
    {
      "midi": 51,
      "hit": false,
      "t": 335307.2530000039,
      "d": 373.26373958337354,
      "v": 104
    },
    {
      "midi": 79,
      "hit": false,
      "t": 335723.919500004,
      "d": 182.29159375000745,
      "v": 104
    },
    {
      "midi": 58,
      "hit": false,
      "t": 335723.919500004,
      "d": 373.26373958337354,
      "v": 104
    },
    {
      "midi": 55,
      "hit": false,
      "t": 335723.919500004,
      "d": 373.26373958337354,
      "v": 104
    },
    {
      "midi": 51,
      "hit": false,
      "t": 335723.919500004,
      "d": 373.26373958337354,
      "v": 104
    },
    {
      "midi": 82,
      "hit": false,
      "t": 335932.252750004,
      "d": 928.8190729166963,
      "v": 104
    },
    {
      "midi": 62,
      "hit": false,
      "t": 336140.586000004,
      "d": 373.2637395833153,
      "v": 104
    },
    {
      "midi": 58,
      "hit": false,
      "t": 336140.586000004,
      "d": 373.2637395833153,
      "v": 104
    },
    {
      "midi": 55,
      "hit": false,
      "t": 336140.586000004,
      "d": 373.2637395833153,
      "v": 104
    },
    {
      "midi": 62,
      "hit": false,
      "t": 336557.252500004,
      "d": 373.26373958337354,
      "v": 104
    },
    {
      "midi": 58,
      "hit": false,
      "t": 336557.252500004,
      "d": 373.26373958337354,
      "v": 104
    },
    {
      "midi": 55,
      "hit": false,
      "t": 336557.252500004,
      "d": 373.26373958337354,
      "v": 104
    },
    {
      "midi": 62,
      "hit": false,
      "t": 336973.91900000407,
      "d": 373.2637395833153,
      "v": 104
    },
    {
      "midi": 58,
      "hit": false,
      "t": 336973.91900000407,
      "d": 373.2637395833153,
      "v": 104
    },
    {
      "midi": 55,
      "hit": false,
      "t": 336973.91900000407,
      "d": 373.2637395833153,
      "v": 104
    },
    {
      "midi": 62,
      "hit": false,
      "t": 337390.58550000406,
      "d": 373.26373958337354,
      "v": 104
    },
    {
      "midi": 58,
      "hit": false,
      "t": 337390.58550000406,
      "d": 373.26373958337354,
      "v": 104
    },
    {
      "midi": 55,
      "hit": false,
      "t": 337390.58550000406,
      "d": 373.26373958337354,
      "v": 104
    },
    {
      "midi": 82,
      "hit": false,
      "t": 337598.9187500041,
      "d": 182.29159375000745,
      "v": 104
    },
    {
      "midi": 63,
      "hit": false,
      "t": 337807.2520000041,
      "d": 373.2637395833153,
      "v": 104
    },
    {
      "midi": 60,
      "hit": false,
      "t": 337807.2520000041,
      "d": 373.2637395833153,
      "v": 104
    },
    {
      "midi": 56,
      "hit": false,
      "t": 337807.2520000041,
      "d": 373.2637395833153,
      "v": 104
    },
    {
      "midi": 82,
      "hit": false,
      "t": 337807.2520000041,
      "d": 373.2637395833153,
      "v": 104
    },
    {
      "midi": 63,
      "hit": false,
      "t": 338223.9185000041,
      "d": 373.2637395833153,
      "v": 104
    },
    {
      "midi": 60,
      "hit": false,
      "t": 338223.9185000041,
      "d": 373.2637395833153,
      "v": 104
    },
    {
      "midi": 56,
      "hit": false,
      "t": 338223.9185000041,
      "d": 373.2637395833153,
      "v": 104
    },
    {
      "midi": 80,
      "hit": false,
      "t": 338223.9185000041,
      "d": 373.2637395833153,
      "v": 104
    },
    {
      "midi": 80,
      "hit": false,
      "t": 338640.5850000041,
      "d": 182.29159375000745,
      "v": 104
    },
    {
      "midi": 63,
      "hit": false,
      "t": 338640.5850000041,
      "d": 373.26373958337354,
      "v": 104
    },
    {
      "midi": 60,
      "hit": false,
      "t": 338640.5850000041,
      "d": 373.26373958337354,
      "v": 104
    },
    {
      "midi": 56,
      "hit": false,
      "t": 338640.5850000041,
      "d": 373.26373958337354,
      "v": 104
    },
    {
      "midi": 79,
      "hit": false,
      "t": 338848.9182500041,
      "d": 373.26373958337354,
      "v": 104
    },
    {
      "midi": 63,
      "hit": false,
      "t": 339057.25150000415,
      "d": 373.26373958337354,
      "v": 104
    },
    {
      "midi": 60,
      "hit": false,
      "t": 339057.25150000415,
      "d": 373.26373958337354,
      "v": 104
    },
    {
      "midi": 56,
      "hit": false,
      "t": 339057.25150000415,
      "d": 373.26373958337354,
      "v": 104
    },
    {
      "midi": 79,
      "hit": false,
      "t": 339265.5847500042,
      "d": 182.29159375000745,
      "v": 104
    },
    {
      "midi": 65,
      "hit": false,
      "t": 339473.9180000042,
      "d": 373.2637395833153,
      "v": 104
    },
    {
      "midi": 62,
      "hit": false,
      "t": 339473.9180000042,
      "d": 373.2637395833153,
      "v": 104
    },
    {
      "midi": 58,
      "hit": false,
      "t": 339473.9180000042,
      "d": 373.2637395833153,
      "v": 104
    },
    {
      "midi": 77,
      "hit": false,
      "t": 339473.9180000042,
      "d": 373.2637395833153,
      "v": 104
    },
    {
      "midi": 65,
      "hit": false,
      "t": 339890.5845000042,
      "d": 373.2637395833153,
      "v": 104
    },
    {
      "midi": 62,
      "hit": false,
      "t": 339890.5845000042,
      "d": 373.2637395833153,
      "v": 104
    },
    {
      "midi": 58,
      "hit": false,
      "t": 339890.5845000042,
      "d": 373.2637395833153,
      "v": 104
    },
    {
      "midi": 77,
      "hit": false,
      "t": 339890.5845000042,
      "d": 373.2637395833153,
      "v": 104
    },
    {
      "midi": 80,
      "hit": false,
      "t": 340307.2510000042,
      "d": 243.05545833334327,
      "v": 104
    },
    {
      "midi": 65,
      "hit": false,
      "t": 340307.2510000042,
      "d": 373.2637395833153,
      "v": 104
    },
    {
      "midi": 62,
      "hit": false,
      "t": 340307.2510000042,
      "d": 373.2637395833153,
      "v": 104
    },
    {
      "midi": 59,
      "hit": false,
      "t": 340307.2510000042,
      "d": 373.2637395833153,
      "v": 104
    },
    {
      "midi": 79,
      "hit": false,
      "t": 340585.02866667084,
      "d": 243.05545833334327,
      "v": 104
    },
    {
      "midi": 65,
      "hit": false,
      "t": 340723.9175000042,
      "d": 373.2637395833153,
      "v": 104
    },
    {
      "midi": 62,
      "hit": false,
      "t": 340723.9175000042,
      "d": 373.2637395833153,
      "v": 104
    },
    {
      "midi": 59,
      "hit": false,
      "t": 340723.9175000042,
      "d": 373.2637395833153,
      "v": 104
    },
    {
      "midi": 77,
      "hit": false,
      "t": 340862.8063333375,
      "d": 243.05545833334327,
      "v": 104
    },
    {
      "midi": 67,
      "hit": false,
      "t": 341140.58400000416,
      "d": 373.2637395833153,
      "v": 104
    },
    {
      "midi": 63,
      "hit": false,
      "t": 341140.58400000416,
      "d": 373.2637395833153,
      "v": 104
    },
    {
      "midi": 60,
      "hit": false,
      "t": 341140.58400000416,
      "d": 373.2637395833153,
      "v": 104
    },
    {
      "midi": 77,
      "hit": false,
      "t": 341140.58400000416,
      "d": 373.2637395833153,
      "v": 104
    },
    {
      "midi": 75,
      "hit": false,
      "t": 341557.25050000416,
      "d": 182.29159375000745,
      "v": 104
    },
    {
      "midi": 67,
      "hit": false,
      "t": 341557.25050000416,
      "d": 373.26373958337354,
      "v": 104
    },
    {
      "midi": 63,
      "hit": false,
      "t": 341557.25050000416,
      "d": 373.26373958337354,
      "v": 104
    },
    {
      "midi": 60,
      "hit": false,
      "t": 341557.25050000416,
      "d": 373.26373958337354,
      "v": 104
    },
    {
      "midi": 79,
      "hit": false,
      "t": 341765.5837500042,
      "d": 1675.346552083327,
      "v": 104
    },
    {
      "midi": 67,
      "hit": false,
      "t": 341973.9170000042,
      "d": 373.2637395833153,
      "v": 104
    },
    {
      "midi": 63,
      "hit": false,
      "t": 341973.9170000042,
      "d": 373.2637395833153,
      "v": 104
    },
    {
      "midi": 60,
      "hit": false,
      "t": 341973.9170000042,
      "d": 373.2637395833153,
      "v": 104
    },
    {
      "midi": 67,
      "hit": false,
      "t": 342390.5835000042,
      "d": 373.2637395833153,
      "v": 104
    },
    {
      "midi": 63,
      "hit": false,
      "t": 342390.5835000042,
      "d": 373.2637395833153,
      "v": 104
    },
    {
      "midi": 60,
      "hit": false,
      "t": 342390.5835000042,
      "d": 373.2637395833153,
      "v": 104
    },
    {
      "midi": 67,
      "hit": false,
      "t": 342807.2500000042,
      "d": 373.2637395833153,
      "v": 104
    },
    {
      "midi": 63,
      "hit": false,
      "t": 342807.2500000042,
      "d": 373.2637395833153,
      "v": 104
    },
    {
      "midi": 60,
      "hit": false,
      "t": 342807.2500000042,
      "d": 373.2637395833153,
      "v": 104
    },
    {
      "midi": 67,
      "hit": false,
      "t": 343223.9165000042,
      "d": 373.2637395833153,
      "v": 104
    },
    {
      "midi": 63,
      "hit": false,
      "t": 343223.9165000042,
      "d": 373.2637395833153,
      "v": 104
    },
    {
      "midi": 60,
      "hit": false,
      "t": 343223.9165000042,
      "d": 373.2637395833153,
      "v": 104
    },
    {
      "midi": 75,
      "hit": false,
      "t": 343640.5830000042,
      "d": 182.29159375000745,
      "v": 104
    },
    {
      "midi": 67,
      "hit": false,
      "t": 343640.5830000042,
      "d": 373.26373958337354,
      "v": 104
    },
    {
      "midi": 63,
      "hit": false,
      "t": 343640.5830000042,
      "d": 373.26373958337354,
      "v": 104
    },
    {
      "midi": 60,
      "hit": false,
      "t": 343640.5830000042,
      "d": 373.26373958337354,
      "v": 104
    },
    {
      "midi": 77,
      "hit": false,
      "t": 343848.9162500042,
      "d": 182.29159375000745,
      "v": 104
    },
    {
      "midi": 67,
      "hit": false,
      "t": 344057.2495000042,
      "d": 373.2637395833153,
      "v": 104
    },
    {
      "midi": 63,
      "hit": false,
      "t": 344057.2495000042,
      "d": 373.2637395833153,
      "v": 104
    },
    {
      "midi": 60,
      "hit": false,
      "t": 344057.2495000042,
      "d": 373.2637395833153,
      "v": 104
    },
    {
      "midi": 79,
      "hit": false,
      "t": 344057.2495000042,
      "d": 373.2637395833153,
      "v": 104
    },
    {
      "midi": 80,
      "hit": false,
      "t": 344473.9160000042,
      "d": 746.5274791666889,
      "v": 104
    },
    {
      "midi": 75,
      "hit": false,
      "t": 344473.9160000042,
      "d": 746.5274791666889,
      "v": 104
    },
    {
      "midi": 72,
      "hit": false,
      "t": 344473.9160000042,
      "d": 746.5274791666889,
      "v": 104
    },
    {
      "midi": 58,
      "hit": false,
      "t": 344473.9160000042,
      "d": 2994.790468750056,
      "v": 104
    },
    {
      "midi": 82,
      "hit": false,
      "t": 345307.24900000426,
      "d": 2248.262989583367,
      "v": 104
    },
    {
      "midi": 75,
      "hit": false,
      "t": 345307.24900000426,
      "d": 2248.262989583367,
      "v": 104
    },
    {
      "midi": 72,
      "hit": false,
      "t": 345307.24900000426,
      "d": 2248.262989583367,
      "v": 104
    },
    {
      "midi": 79,
      "hit": false,
      "t": 347807.24800000427,
      "d": 182.29159375000745,
      "v": 104
    },
    {
      "midi": 77,
      "hit": false,
      "t": 348015.5812500043,
      "d": 182.29159375000745,
      "v": 104
    },
    {
      "midi": 75,
      "hit": false,
      "t": 348223.9145000043,
      "d": 2621.5267291666823,
      "v": 104
    },
    {
      "midi": 51,
      "hit": false,
      "t": 351140.5800000043,
      "d": 2248.262989583309,
      "v": 104
    },
    {
      "midi": 63,
      "hit": false,
      "t": 351140.5800000043,
      "d": 2994.7904687499395,
      "v": 104
    },
    {
      "midi": 58,
      "hit": false,
      "t": 351140.5800000043,
      "d": 2994.7904687499395,
      "v": 104
    },
    {
      "midi": 55,
      "hit": false,
      "t": 351140.5800000043,
      "d": 2994.7904687499395,
      "v": 104
    },
    {
      "midi": 50,
      "hit": false,
      "t": 353640.5790000043,
      "d": 746.5274791666307,
      "v": 104
    },
    {
      "midi": 48,
      "hit": false,
      "t": 354473.91200000426,
      "d": 2994.7904687499977,
      "v": 104
    },
    {
      "midi": 63,
      "hit": false,
      "t": 354473.91200000426,
      "d": 2994.7904687499977,
      "v": 104
    },
    {
      "midi": 58,
      "hit": false,
      "t": 354473.91200000426,
      "d": 2994.7904687499977,
      "v": 104
    },
    {
      "midi": 55,
      "hit": false,
      "t": 354473.91200000426,
      "d": 2994.7904687499977,
      "v": 104
    },
    {
      "midi": 44,
      "hit": false,
      "t": 357807.24400000426,
      "d": 2994.7904687499977,
      "v": 104
    },
    {
      "midi": 67,
      "hit": false,
      "t": 357807.24400000426,
      "d": 2994.7904687499977,
      "v": 104
    },
    {
      "midi": 63,
      "hit": false,
      "t": 357807.24400000426,
      "d": 2994.7904687499977,
      "v": 104
    },
    {
      "midi": 60,
      "hit": false,
      "t": 357807.24400000426,
      "d": 2994.7904687499977,
      "v": 104
    },
    {
      "midi": 46,
      "hit": false,
      "t": 361140.57600000425,
      "d": 2994.7904687499977,
      "v": 104
    },
    {
      "midi": 67,
      "hit": false,
      "t": 361140.57600000425,
      "d": 2994.7904687499977,
      "v": 104
    },
    {
      "midi": 63,
      "hit": false,
      "t": 361140.57600000425,
      "d": 2994.7904687499977,
      "v": 104
    },
    {
      "midi": 60,
      "hit": false,
      "t": 361140.57600000425,
      "d": 2994.7904687499977,
      "v": 104
    },
    {
      "midi": 48,
      "hit": false,
      "t": 364473.90800000424,
      "d": 2994.7904687499977,
      "v": 104
    },
    {
      "midi": 67,
      "hit": false,
      "t": 364473.90800000424,
      "d": 2994.7904687499977,
      "v": 104
    },
    {
      "midi": 64,
      "hit": false,
      "t": 364473.90800000424,
      "d": 2994.7904687499977,
      "v": 104
    },
    {
      "midi": 60,
      "hit": false,
      "t": 364473.90800000424,
      "d": 2994.7904687499977,
      "v": 104
    },
    {
      "midi": 59,
      "hit": false,
      "t": 364473.90800000424,
      "d": 2994.7904687499977,
      "v": 104
    },
    {
      "midi": 50,
      "hit": false,
      "t": 367807.24000000424,
      "d": 426.58687499997905,
      "v": 104
    },
    {
      "midi": 57,
      "hit": false,
      "t": 368283.43000000424,
      "d": 426.58687499997905,
      "v": 104
    },
    {
      "midi": 81,
      "hit": false,
      "t": 368283.43000000424,
      "d": 426.58687499997905,
      "v": 104
    },
    {
      "midi": 53,
      "hit": false,
      "t": 368759.62000000424,
      "d": 426.58687499997905,
      "v": 104
    },
    {
      "midi": 77,
      "hit": false,
      "t": 368759.62000000424,
      "d": 426.58687499997905,
      "v": 104
    },
    {
      "midi": 74,
      "hit": false,
      "t": 369235.81000000425,
      "d": 213.29343750001863,
      "v": 104
    },
    {
      "midi": 57,
      "hit": false,
      "t": 369235.81000000425,
      "d": 426.58687500003725,
      "v": 104
    },
    {
      "midi": 76,
      "hit": false,
      "t": 369473.9050000043,
      "d": 426.58687500003725,
      "v": 104
    },
    {
      "midi": 50,
      "hit": false,
      "t": 369712.0000000043,
      "d": 426.58687500003725,
      "v": 104
    },
    {
      "midi": 77,
      "hit": false,
      "t": 369950.09500000434,
      "d": 213.29343750001863,
      "v": 104
    },
    {
      "midi": 76,
      "hit": false,
      "t": 370188.19000000437,
      "d": 213.29343750001863,
      "v": 104
    },
    {
      "midi": 57,
      "hit": false,
      "t": 370188.19000000437,
      "d": 426.58687500003725,
      "v": 104
    },
    {
      "midi": 72,
      "hit": false,
      "t": 370426.2850000044,
      "d": 426.58687500003725,
      "v": 104
    },
    {
      "midi": 53,
      "hit": false,
      "t": 370664.3800000044,
      "d": 426.58687500003725,
      "v": 104
    },
    {
      "midi": 69,
      "hit": false,
      "t": 370902.47500000446,
      "d": 426.58687500003725,
      "v": 104
    },
    {
      "midi": 57,
      "hit": false,
      "t": 371140.5700000045,
      "d": 426.58687500003725,
      "v": 104
    },
    {
      "midi": 74,
      "hit": false,
      "t": 371378.6650000045,
      "d": 1924.6012500000652,
      "v": 104
    },
    {
      "midi": 69,
      "hit": false,
      "t": 371378.6650000045,
      "d": 1924.6012500000652,
      "v": 104
    },
    {
      "midi": 46,
      "hit": false,
      "t": 371616.76000000455,
      "d": 426.58687499997905,
      "v": 104
    },
    {
      "midi": 53,
      "hit": false,
      "t": 372092.95000000455,
      "d": 426.58687499997905,
      "v": 104
    },
    {
      "midi": 50,
      "hit": false,
      "t": 372569.14000000455,
      "d": 426.58687499997905,
      "v": 104
    },
    {
      "midi": 53,
      "hit": false,
      "t": 373045.33000000456,
      "d": 426.58687500003725,
      "v": 104
    },
    {
      "midi": 48,
      "hit": false,
      "t": 373521.5200000046,
      "d": 426.58687499997905,
      "v": 104
    },
    {
      "midi": 55,
      "hit": false,
      "t": 373997.7100000046,
      "d": 426.58687499997905,
      "v": 104
    },
    {
      "midi": 52,
      "hit": false,
      "t": 374473.9000000046,
      "d": 426.58687499997905,
      "v": 104
    },
    {
      "midi": 55,
      "hit": false,
      "t": 374950.0900000046,
      "d": 426.58687499997905,
      "v": 104
    },
    {
      "midi": 50,
      "hit": false,
      "t": 375426.2800000046,
      "d": 426.58687499997905,
      "v": 104
    },
    {
      "midi": 65,
      "hit": false,
      "t": 375902.4700000046,
      "d": 213.29343750001863,
      "v": 104
    },
    {
      "midi": 62,
      "hit": false,
      "t": 375902.4700000046,
      "d": 213.29343750001863,
      "v": 104
    },
    {
      "midi": 76,
      "hit": false,
      "t": 375902.4700000046,
      "d": 213.29343750001863,
      "v": 104
    },
    {
      "midi": 72,
      "hit": false,
      "t": 375902.4700000046,
      "d": 213.29343750001863,
      "v": 104
    },
    {
      "midi": 69,
      "hit": false,
      "t": 375902.4700000046,
      "d": 213.29343750001863,
      "v": 104
    },
    {
      "midi": 65,
      "hit": false,
      "t": 376140.56500000466,
      "d": 213.29343750001863,
      "v": 104
    },
    {
      "midi": 62,
      "hit": false,
      "t": 376140.56500000466,
      "d": 213.29343750001863,
      "v": 104
    },
    {
      "midi": 76,
      "hit": false,
      "t": 376140.56500000466,
      "d": 213.29343750001863,
      "v": 104
    },
    {
      "midi": 72,
      "hit": false,
      "t": 376140.56500000466,
      "d": 213.29343750001863,
      "v": 104
    },
    {
      "midi": 69,
      "hit": false,
      "t": 376140.56500000466,
      "d": 213.29343750001863,
      "v": 104
    },
    {
      "midi": 65,
      "hit": false,
      "t": 376378.6600000047,
      "d": 213.29343750001863,
      "v": 104
    },
    {
      "midi": 62,
      "hit": false,
      "t": 376378.6600000047,
      "d": 213.29343750001863,
      "v": 104
    },
    {
      "midi": 76,
      "hit": false,
      "t": 376378.6600000047,
      "d": 213.29343750001863,
      "v": 104
    },
    {
      "midi": 72,
      "hit": false,
      "t": 376378.6600000047,
      "d": 213.29343750001863,
      "v": 104
    },
    {
      "midi": 69,
      "hit": false,
      "t": 376378.6600000047,
      "d": 213.29343750001863,
      "v": 104
    },
    {
      "midi": 65,
      "hit": false,
      "t": 376616.7550000047,
      "d": 426.58687499997905,
      "v": 104
    },
    {
      "midi": 62,
      "hit": false,
      "t": 376616.7550000047,
      "d": 426.58687499997905,
      "v": 104
    },
    {
      "midi": 76,
      "hit": false,
      "t": 376616.7550000047,
      "d": 426.58687499997905,
      "v": 104
    },
    {
      "midi": 72,
      "hit": false,
      "t": 376616.7550000047,
      "d": 426.58687499997905,
      "v": 104
    },
    {
      "midi": 69,
      "hit": false,
      "t": 376616.7550000047,
      "d": 426.58687499997905,
      "v": 104
    },
    {
      "midi": 67,
      "hit": false,
      "t": 377092.9450000047,
      "d": 1924.601250000007,
      "v": 104
    },
    {
      "midi": 63,
      "hit": false,
      "t": 377092.9450000047,
      "d": 1924.601250000007,
      "v": 104
    },
    {
      "midi": 77,
      "hit": false,
      "t": 377092.9450000047,
      "d": 1924.601250000007,
      "v": 104
    },
    {
      "midi": 74,
      "hit": false,
      "t": 377092.9450000047,
      "d": 1924.601250000007,
      "v": 104
    },
    {
      "midi": 70,
      "hit": false,
      "t": 377092.9450000047,
      "d": 1924.601250000007,
      "v": 104
    },
    {
      "midi": 50,
      "hit": false,
      "t": 379235.8000000047,
      "d": 426.58687499997905,
      "v": 104
    },
    {
      "midi": 65,
      "hit": false,
      "t": 379711.9900000047,
      "d": 213.29343750001863,
      "v": 104
    },
    {
      "midi": 62,
      "hit": false,
      "t": 379711.9900000047,
      "d": 213.29343750001863,
      "v": 104
    },
    {
      "midi": 76,
      "hit": false,
      "t": 379711.9900000047,
      "d": 213.29343750001863,
      "v": 104
    },
    {
      "midi": 72,
      "hit": false,
      "t": 379711.9900000047,
      "d": 213.29343750001863,
      "v": 104
    },
    {
      "midi": 69,
      "hit": false,
      "t": 379711.9900000047,
      "d": 213.29343750001863,
      "v": 104
    },
    {
      "midi": 65,
      "hit": false,
      "t": 379950.08500000474,
      "d": 213.29343750001863,
      "v": 104
    },
    {
      "midi": 62,
      "hit": false,
      "t": 379950.08500000474,
      "d": 213.29343750001863,
      "v": 104
    },
    {
      "midi": 76,
      "hit": false,
      "t": 379950.08500000474,
      "d": 213.29343750001863,
      "v": 104
    },
    {
      "midi": 72,
      "hit": false,
      "t": 379950.08500000474,
      "d": 213.29343750001863,
      "v": 104
    },
    {
      "midi": 69,
      "hit": false,
      "t": 379950.08500000474,
      "d": 213.29343750001863,
      "v": 104
    },
    {
      "midi": 65,
      "hit": false,
      "t": 380188.18000000477,
      "d": 213.29343750001863,
      "v": 104
    },
    {
      "midi": 62,
      "hit": false,
      "t": 380188.18000000477,
      "d": 213.29343750001863,
      "v": 104
    },
    {
      "midi": 76,
      "hit": false,
      "t": 380188.18000000477,
      "d": 213.29343750001863,
      "v": 104
    },
    {
      "midi": 72,
      "hit": false,
      "t": 380188.18000000477,
      "d": 213.29343750001863,
      "v": 104
    },
    {
      "midi": 69,
      "hit": false,
      "t": 380188.18000000477,
      "d": 213.29343750001863,
      "v": 104
    },
    {
      "midi": 65,
      "hit": false,
      "t": 380426.2750000048,
      "d": 426.58687499997905,
      "v": 104
    },
    {
      "midi": 62,
      "hit": false,
      "t": 380426.2750000048,
      "d": 426.58687499997905,
      "v": 104
    },
    {
      "midi": 76,
      "hit": false,
      "t": 380426.2750000048,
      "d": 426.58687499997905,
      "v": 104
    },
    {
      "midi": 72,
      "hit": false,
      "t": 380426.2750000048,
      "d": 426.58687499997905,
      "v": 104
    },
    {
      "midi": 69,
      "hit": false,
      "t": 380426.2750000048,
      "d": 426.58687499997905,
      "v": 104
    },
    {
      "midi": 62,
      "hit": false,
      "t": 380902.4650000048,
      "d": 853.1737500000163,
      "v": 104
    },
    {
      "midi": 58,
      "hit": false,
      "t": 380902.4650000048,
      "d": 853.1737500000163,
      "v": 104
    },
    {
      "midi": 77,
      "hit": false,
      "t": 380902.4650000048,
      "d": 853.1737500000163,
      "v": 104
    },
    {
      "midi": 74,
      "hit": false,
      "t": 380902.4650000048,
      "d": 853.1737500000163,
      "v": 104
    },
    {
      "midi": 70,
      "hit": false,
      "t": 380902.4650000048,
      "d": 853.1737500000163,
      "v": 104
    },
    {
      "midi": 69,
      "hit": false,
      "t": 380902.4650000048,
      "d": 853.1737500000163,
      "v": 104
    },
    {
      "midi": 61,
      "hit": false,
      "t": 381854.8450000048,
      "d": 639.8803124999977,
      "v": 104
    },
    {
      "midi": 57,
      "hit": false,
      "t": 381854.8450000048,
      "d": 639.8803124999977,
      "v": 104
    },
    {
      "midi": 76,
      "hit": false,
      "t": 381854.8450000048,
      "d": 639.8803124999977,
      "v": 104
    },
    {
      "midi": 73,
      "hit": false,
      "t": 381854.8450000048,
      "d": 639.8803124999977,
      "v": 104
    },
    {
      "midi": 67,
      "hit": false,
      "t": 381854.8450000048,
      "d": 639.8803124999977,
      "v": 104
    },
    {
      "midi": 69,
      "hit": false,
      "t": 382569.1300000048,
      "d": 213.29343750001863,
      "v": 104
    },
    {
      "midi": 69,
      "hit": false,
      "t": 382807.2250000048,
      "d": 213.29343750001863,
      "v": 104
    },
    {
      "midi": 50,
      "hit": false,
      "t": 383045.32000000484,
      "d": 426.58687499997905,
      "v": 104
    },
    {
      "midi": 77,
      "hit": false,
      "t": 383045.32000000484,
      "d": 1284.7209375000093,
      "v": 104
    },
    {
      "midi": 57,
      "hit": false,
      "t": 383521.51000000484,
      "d": 426.58687499997905,
      "v": 104
    },
    {
      "midi": 53,
      "hit": false,
      "t": 383997.70000000484,
      "d": 426.58687499997905,
      "v": 104
    },
    {
      "midi": 57,
      "hit": false,
      "t": 384473.89000000485,
      "d": 426.58687499997905,
      "v": 104
    },
    {
      "midi": 50,
      "hit": false,
      "t": 384950.08000000485,
      "d": 426.58687499997905,
      "v": 104
    },
    {
      "midi": 79,
      "hit": false,
      "t": 385426.27000000485,
      "d": 213.29343750001863,
      "v": 104
    },
    {
      "midi": 57,
      "hit": false,
      "t": 385426.27000000485,
      "d": 426.58687500003725,
      "v": 104
    },
    {
      "midi": 77,
      "hit": false,
      "t": 385664.3650000049,
      "d": 213.29343750001863,
      "v": 104
    },
    {
      "midi": 76,
      "hit": false,
      "t": 385902.4600000049,
      "d": 282.7378124999814,
      "v": 104
    },
    {
      "midi": 53,
      "hit": false,
      "t": 385902.4600000049,
      "d": 426.58687499997905,
      "v": 104
    },
    {
      "midi": 74,
      "hit": false,
      "t": 386219.9200000049,
      "d": 282.7378125000396,
      "v": 104
    },
    {
      "midi": 57,
      "hit": false,
      "t": 386378.6500000049,
      "d": 426.58687499997905,
      "v": 104
    },
    {
      "midi": 72,
      "hit": false,
      "t": 386537.3800000049,
      "d": 282.7378124999814,
      "v": 104
    },
    {
      "midi": 55,
      "hit": false,
      "t": 386854.84000000486,
      "d": 426.58687499997905,
      "v": 104
    },
    {
      "midi": 72,
      "hit": false,
      "t": 386854.84000000486,
      "d": 426.58687499997905,
      "v": 104
    },
    {
      "midi": 70,
      "hit": false,
      "t": 387331.03000000486,
      "d": 213.29343750001863,
      "v": 104
    },
    {
      "midi": 62,
      "hit": false,
      "t": 387331.03000000486,
      "d": 426.58687500003725,
      "v": 104
    },
    {
      "midi": 74,
      "hit": false,
      "t": 387569.1250000049,
      "d": 1919.6409375000512,
      "v": 104
    },
    {
      "midi": 58,
      "hit": false,
      "t": 387807.2200000049,
      "d": 426.58687499997905,
      "v": 104
    },
    {
      "midi": 62,
      "hit": false,
      "t": 388283.4100000049,
      "d": 426.58687499997905,
      "v": 104
    },
    {
      "midi": 55,
      "hit": false,
      "t": 388759.6000000049,
      "d": 426.58687499997905,
      "v": 104
    },
    {
      "midi": 62,
      "hit": false,
      "t": 389235.7900000049,
      "d": 426.58687500003725,
      "v": 104
    },
    {
      "midi": 58,
      "hit": false,
      "t": 389711.980000005,
      "d": 426.58687499997905,
      "v": 104
    },
    {
      "midi": 62,
      "hit": false,
      "t": 390188.170000005,
      "d": 426.58687499997905,
      "v": 104
    },
    {
      "midi": 70,
      "hit": false,
      "t": 390188.170000005,
      "d": 426.58687499997905,
      "v": 104
    },
    {
      "midi": 57,
      "hit": false,
      "t": 390664.360000005,
      "d": 426.58687499997905,
      "v": 104
    },
    {
      "midi": 69,
      "hit": false,
      "t": 390664.360000005,
      "d": 426.58687499997905,
      "v": 104
    },
    {
      "midi": 64,
      "hit": false,
      "t": 391140.550000005,
      "d": 426.58687499997905,
      "v": 104
    },
    {
      "midi": 69,
      "hit": false,
      "t": 391378.64500000497,
      "d": 213.29343750001863,
      "v": 104
    },
    {
      "midi": 73,
      "hit": false,
      "t": 391616.740000005,
      "d": 282.7378124999814,
      "v": 104
    },
    {
      "midi": 61,
      "hit": false,
      "t": 391616.740000005,
      "d": 426.58687499997905,
      "v": 104
    },
    {
      "midi": 76,
      "hit": false,
      "t": 391934.20000000496,
      "d": 282.7378125000396,
      "v": 104
    },
    {
      "midi": 64,
      "hit": false,
      "t": 392092.930000005,
      "d": 426.58687499997905,
      "v": 104
    },
    {
      "midi": 79,
      "hit": false,
      "t": 392251.660000005,
      "d": 709.3246875000186,
      "v": 104
    },
    {
      "midi": 57,
      "hit": false,
      "t": 392569.120000005,
      "d": 426.58687499997905,
      "v": 104
    },
    {
      "midi": 64,
      "hit": false,
      "t": 393045.310000005,
      "d": 426.58687499997905,
      "v": 104
    },
    {
      "midi": 79,
      "hit": false,
      "t": 393521.500000005,
      "d": 282.7378124999814,
      "v": 104
    },
    {
      "midi": 61,
      "hit": false,
      "t": 393521.500000005,
      "d": 426.58687499997905,
      "v": 104
    },
    {
      "midi": 77,
      "hit": false,
      "t": 393838.96000000497,
      "d": 282.7378125000396,
      "v": 104
    },
    {
      "midi": 64,
      "hit": false,
      "t": 393997.690000005,
      "d": 426.58687499997905,
      "v": 104
    },
    {
      "midi": 76,
      "hit": false,
      "t": 394156.420000005,
      "d": 282.7378124999814,
      "v": 104
    },
    {
      "midi": 50,
      "hit": false,
      "t": 394473.88000000495,
      "d": 426.58687499997905,
      "v": 104
    },
    {
      "midi": 69,
      "hit": false,
      "t": 394473.88000000495,
      "d": 2564.4815625000047,
      "v": 104
    },
    {
      "midi": 57,
      "hit": false,
      "t": 394950.07000000495,
      "d": 426.58687499997905,
      "v": 104
    },
    {
      "midi": 53,
      "hit": false,
      "t": 395426.26000000496,
      "d": 426.58687499997905,
      "v": 104
    },
    {
      "midi": 57,
      "hit": false,
      "t": 395902.45000000496,
      "d": 426.58687499997905,
      "v": 104
    },
    {
      "midi": 53,
      "hit": false,
      "t": 396378.64000000496,
      "d": 639.8803124999977,
      "v": 104
    },
    {
      "midi": 50,
      "hit": false,
      "t": 396378.64000000496,
      "d": 639.8803124999977,
      "v": 104
    },
    {
      "midi": 46,
      "hit": false,
      "t": 396378.64000000496,
      "d": 639.8803124999977,
      "v": 104
    },
    {
      "midi": 52,
      "hit": false,
      "t": 397092.92500000494,
      "d": 1066.4671874999767,
      "v": 104
    },
    {
      "midi": 49,
      "hit": false,
      "t": 397092.92500000494,
      "d": 1066.4671874999767,
      "v": 104
    },
    {
      "midi": 45,
      "hit": false,
      "t": 397092.92500000494,
      "d": 1066.4671874999767,
      "v": 104
    },
    {
      "midi": 69,
      "hit": false,
      "t": 397807.2100000049,
      "d": 426.58687499997905,
      "v": 104
    },
    {
      "midi": 50,
      "hit": false,
      "t": 398283.4000000049,
      "d": 426.58687499997905,
      "v": 104
    },
    {
      "midi": 77,
      "hit": false,
      "t": 398283.4000000049,
      "d": 1284.7209375000093,
      "v": 104
    },
    {
      "midi": 57,
      "hit": false,
      "t": 398759.5900000049,
      "d": 426.58687499997905,
      "v": 104
    },
    {
      "midi": 53,
      "hit": false,
      "t": 399235.7800000049,
      "d": 426.58687499997905,
      "v": 104
    },
    {
      "midi": 57,
      "hit": false,
      "t": 399711.9700000049,
      "d": 426.58687499997905,
      "v": 104
    },
    {
      "midi": 50,
      "hit": false,
      "t": 400188.1600000049,
      "d": 426.58687499997905,
      "v": 104
    },
    {
      "midi": 79,
      "hit": false,
      "t": 400664.3500000049,
      "d": 213.29343750001863,
      "v": 104
    },
    {
      "midi": 57,
      "hit": false,
      "t": 400664.3500000049,
      "d": 426.58687500003725,
      "v": 104
    },
    {
      "midi": 77,
      "hit": false,
      "t": 400902.44500000495,
      "d": 213.29343750001863,
      "v": 104
    },
    {
      "midi": 76,
      "hit": false,
      "t": 401140.540000005,
      "d": 213.29343750001863,
      "v": 104
    },
    {
      "midi": 53,
      "hit": false,
      "t": 401140.540000005,
      "d": 426.58687500003725,
      "v": 104
    },
    {
      "midi": 74,
      "hit": false,
      "t": 401378.635000005,
      "d": 426.58687500003725,
      "v": 104
    },
    {
      "midi": 57,
      "hit": false,
      "t": 401616.73000000505,
      "d": 426.58687500003725,
      "v": 104
    },
    {
      "midi": 72,
      "hit": false,
      "t": 401854.8250000051,
      "d": 213.29343750001863,
      "v": 104
    },
    {
      "midi": 55,
      "hit": false,
      "t": 402092.9200000051,
      "d": 426.58687499997905,
      "v": 104
    },
    {
      "midi": 72,
      "hit": false,
      "t": 402092.9200000051,
      "d": 426.58687499997905,
      "v": 104
    },
    {
      "midi": 70,
      "hit": false,
      "t": 402569.1100000051,
      "d": 213.29343750001863,
      "v": 104
    },
    {
      "midi": 62,
      "hit": false,
      "t": 402569.1100000051,
      "d": 426.58687500003725,
      "v": 104
    },
    {
      "midi": 74,
      "hit": false,
      "t": 402807.20500000514,
      "d": 1919.6409375000512,
      "v": 104
    },
    {
      "midi": 58,
      "hit": false,
      "t": 403045.30000000517,
      "d": 426.58687499997905,
      "v": 104
    },
    {
      "midi": 62,
      "hit": false,
      "t": 403521.4900000052,
      "d": 426.58687499997905,
      "v": 104
    },
    {
      "midi": 55,
      "hit": false,
      "t": 403997.6800000052,
      "d": 426.58687499997905,
      "v": 104
    },
    {
      "midi": 62,
      "hit": false,
      "t": 404473.8700000052,
      "d": 426.58687500003725,
      "v": 104
    },
    {
      "midi": 58,
      "hit": false,
      "t": 404950.06000000524,
      "d": 426.58687499997905,
      "v": 104
    },
    {
      "midi": 62,
      "hit": false,
      "t": 405426.25000000524,
      "d": 426.58687499997905,
      "v": 104
    },
    {
      "midi": 74,
      "hit": false,
      "t": 405426.25000000524,
      "d": 426.58687499997905,
      "v": 104
    },
    {
      "midi": 57,
      "hit": false,
      "t": 405902.44000000524,
      "d": 426.58687499997905,
      "v": 104
    },
    {
      "midi": 73,
      "hit": false,
      "t": 405902.44000000524,
      "d": 426.58687499997905,
      "v": 104
    },
    {
      "midi": 74,
      "hit": false,
      "t": 406378.63000000524,
      "d": 213.29343750001863,
      "v": 104
    },
    {
      "midi": 64,
      "hit": false,
      "t": 406378.63000000524,
      "d": 426.58687500003725,
      "v": 104
    },
    {
      "midi": 76,
      "hit": false,
      "t": 406616.7250000053,
      "d": 639.8803125000559,
      "v": 104
    },
    {
      "midi": 61,
      "hit": false,
      "t": 406854.8200000053,
      "d": 426.58687500003725,
      "v": 104
    },
    {
      "midi": 64,
      "hit": false,
      "t": 407331.01000000536,
      "d": 426.58687499997905,
      "v": 104
    },
    {
      "midi": 77,
      "hit": false,
      "t": 407569.10500000534,
      "d": 213.29343750001863,
      "v": 104
    },
    {
      "midi": 79,
      "hit": false,
      "t": 407807.20000000537,
      "d": 282.7378124999814,
      "v": 104
    },
    {
      "midi": 62,
      "hit": false,
      "t": 407807.20000000537,
      "d": 853.1737499998999,
      "v": 104
    },
    {
      "midi": 58,
      "hit": false,
      "t": 407807.20000000537,
      "d": 853.1737499998999,
      "v": 104
    },
    {
      "midi": 81,
      "hit": false,
      "t": 408124.66000000533,
      "d": 282.7378124999814,
      "v": 104
    },
    {
      "midi": 79,
      "hit": false,
      "t": 408442.1200000053,
      "d": 282.7378124999814,
      "v": 104
    },
    {
      "midi": 77,
      "hit": false,
      "t": 408759.58000000525,
      "d": 282.7378124999814,
      "v": 104
    },
    {
      "midi": 58,
      "hit": false,
      "t": 408759.58000000525,
      "d": 853.1737499998999,
      "v": 104
    },
    {
      "midi": 55,
      "hit": false,
      "t": 408759.58000000525,
      "d": 853.1737499998999,
      "v": 104
    },
    {
      "midi": 79,
      "hit": false,
      "t": 409077.0400000052,
      "d": 282.7378124999814,
      "v": 104
    },
    {
      "midi": 77,
      "hit": false,
      "t": 409394.5000000052,
      "d": 282.7378124999814,
      "v": 104
    },
    {
      "midi": 61,
      "hit": false,
      "t": 409711.96000000514,
      "d": 426.58687499997905,
      "v": 104
    },
    {
      "midi": 57,
      "hit": false,
      "t": 409711.96000000514,
      "d": 426.58687499997905,
      "v": 104
    },
    {
      "midi": 76,
      "hit": false,
      "t": 409711.96000000514,
      "d": 426.58687499997905,
      "v": 104
    },
    {
      "midi": 61,
      "hit": false,
      "t": 410188.15000000515,
      "d": 853.1737500000163,
      "v": 104
    },
    {
      "midi": 57,
      "hit": false,
      "t": 410188.15000000515,
      "d": 853.1737500000163,
      "v": 104
    },
    {
      "midi": 74,
      "hit": false,
      "t": 410664.34000000515,
      "d": 426.58687500003725,
      "v": 104
    },
    {
      "midi": 61,
      "hit": false,
      "t": 411140.5300000052,
      "d": 426.58687499997905,
      "v": 104
    },
    {
      "midi": 57,
      "hit": false,
      "t": 411140.5300000052,
      "d": 426.58687499997905,
      "v": 104
    },
    {
      "midi": 73,
      "hit": false,
      "t": 411140.5300000052,
      "d": 426.58687499997905,
      "v": 104
    },
    {
      "midi": 50,
      "hit": false,
      "t": 411616.7200000052,
      "d": 426.58687499997905,
      "v": 104
    },
    {
      "midi": 76,
      "hit": false,
      "t": 411616.7200000052,
      "d": 639.8803124999977,
      "v": 104
    },
    {
      "midi": 57,
      "hit": false,
      "t": 412092.9100000052,
      "d": 426.58687499997905,
      "v": 104
    },
    {
      "midi": 74,
      "hit": false,
      "t": 412331.0050000052,
      "d": 2351.1881250000442,
      "v": 104
    },
    {
      "midi": 53,
      "hit": false,
      "t": 412569.1000000052,
      "d": 426.58687499997905,
      "v": 104
    },
    {
      "midi": 57,
      "hit": false,
      "t": 413045.2900000052,
      "d": 426.58687499997905,
      "v": 104
    },
    {
      "midi": 50,
      "hit": false,
      "t": 413521.4800000052,
      "d": 426.58687499997905,
      "v": 104
    },
    {
      "midi": 57,
      "hit": false,
      "t": 413997.6700000052,
      "d": 426.58687499997905,
      "v": 104
    },
    {
      "midi": 53,
      "hit": false,
      "t": 414473.8600000052,
      "d": 426.58687499997905,
      "v": 104
    },
    {
      "midi": 57,
      "hit": false,
      "t": 414950.0500000052,
      "d": 426.58687499997905,
      "v": 104
    },
    {
      "midi": 74,
      "hit": false,
      "t": 414950.0500000052,
      "d": 426.58687499997905,
      "v": 104
    },
    {
      "midi": 48,
      "hit": false,
      "t": 415426.24000000523,
      "d": 426.58687499997905,
      "v": 104
    },
    {
      "midi": 72,
      "hit": false,
      "t": 415426.24000000523,
      "d": 639.8803124999977,
      "v": 104
    },
    {
      "midi": 55,
      "hit": false,
      "t": 415902.43000000523,
      "d": 426.58687499997905,
      "v": 104
    },
    {
      "midi": 72,
      "hit": false,
      "t": 416140.5250000052,
      "d": 213.29343750001863,
      "v": 104
    },
    {
      "midi": 72,
      "hit": false,
      "t": 416378.62000000523,
      "d": 213.29343750001863,
      "v": 104
    },
    {
      "midi": 52,
      "hit": false,
      "t": 416378.62000000523,
      "d": 426.58687500003725,
      "v": 104
    },
    {
      "midi": 74,
      "hit": false,
      "t": 416616.71500000526,
      "d": 426.58687500003725,
      "v": 104
    },
    {
      "midi": 55,
      "hit": false,
      "t": 416854.8100000053,
      "d": 426.58687500003725,
      "v": 104
    },
    {
      "midi": 76,
      "hit": false,
      "t": 417092.9050000053,
      "d": 1066.467187500035,
      "v": 104
    },
    {
      "midi": 48,
      "hit": false,
      "t": 417331.00000000536,
      "d": 426.58687499997905,
      "v": 104
    },
    {
      "midi": 55,
      "hit": false,
      "t": 417807.19000000536,
      "d": 426.58687499997905,
      "v": 104
    },
    {
      "midi": 52,
      "hit": false,
      "t": 418283.38000000536,
      "d": 426.58687499997905,
      "v": 104
    },
    {
      "midi": 55,
      "hit": false,
      "t": 418759.57000000536,
      "d": 426.58687499997905,
      "v": 104
    },
    {
      "midi": 82,
      "hit": false,
      "t": 418759.57000000536,
      "d": 426.58687499997905,
      "v": 104
    },
    {
      "midi": 50,
      "hit": false,
      "t": 419235.76000000536,
      "d": 426.58687499997905,
      "v": 104
    },
    {
      "midi": 82,
      "hit": false,
      "t": 419235.76000000536,
      "d": 426.58687499997905,
      "v": 104
    },
    {
      "midi": 81,
      "hit": false,
      "t": 419711.95000000537,
      "d": 213.29343750001863,
      "v": 104
    },
    {
      "midi": 57,
      "hit": false,
      "t": 419711.95000000537,
      "d": 426.58687500003725,
      "v": 104
    },
    {
      "midi": 81,
      "hit": false,
      "t": 419950.0450000054,
      "d": 2351.1881250000442,
      "v": 104
    },
    {
      "midi": 53,
      "hit": false,
      "t": 420188.1400000054,
      "d": 426.58687499997905,
      "v": 104
    },
    {
      "midi": 57,
      "hit": false,
      "t": 420664.33000000543,
      "d": 426.58687499997905,
      "v": 104
    },
    {
      "midi": 50,
      "hit": false,
      "t": 421140.52000000543,
      "d": 426.58687499997905,
      "v": 104
    },
    {
      "midi": 57,
      "hit": false,
      "t": 421616.71000000543,
      "d": 426.58687499997905,
      "v": 104
    },
    {
      "midi": 53,
      "hit": false,
      "t": 422092.90000000544,
      "d": 426.58687499997905,
      "v": 104
    },
    {
      "midi": 57,
      "hit": false,
      "t": 422569.09000000544,
      "d": 426.58687499997905,
      "v": 104
    },
    {
      "midi": 74,
      "hit": false,
      "t": 422569.09000000544,
      "d": 426.58687499997905,
      "v": 104
    },
    {
      "midi": 48,
      "hit": false,
      "t": 423045.28000000544,
      "d": 426.58687499997905,
      "v": 104
    },
    {
      "midi": 72,
      "hit": false,
      "t": 423045.28000000544,
      "d": 639.8803124999977,
      "v": 104
    },
    {
      "midi": 55,
      "hit": false,
      "t": 423521.47000000544,
      "d": 426.58687499997905,
      "v": 104
    },
    {
      "midi": 72,
      "hit": false,
      "t": 423759.5650000054,
      "d": 213.29343750001863,
      "v": 104
    },
    {
      "midi": 72,
      "hit": false,
      "t": 423997.66000000545,
      "d": 213.29343750001863,
      "v": 104
    },
    {
      "midi": 52,
      "hit": false,
      "t": 423997.66000000545,
      "d": 426.58687500003725,
      "v": 104
    },
    {
      "midi": 74,
      "hit": false,
      "t": 424235.7550000055,
      "d": 426.58687500003725,
      "v": 104
    },
    {
      "midi": 55,
      "hit": false,
      "t": 424473.8500000055,
      "d": 426.58687500003725,
      "v": 104
    },
    {
      "midi": 76,
      "hit": false,
      "t": 424711.94500000554,
      "d": 1066.467187500035,
      "v": 104
    },
    {
      "midi": 48,
      "hit": false,
      "t": 424950.04000000557,
      "d": 426.58687499997905,
      "v": 104
    },
    {
      "midi": 55,
      "hit": false,
      "t": 425426.23000000557,
      "d": 426.58687499997905,
      "v": 104
    },
    {
      "midi": 52,
      "hit": false,
      "t": 425902.4200000056,
      "d": 426.58687499997905,
      "v": 104
    },
    {
      "midi": 55,
      "hit": false,
      "t": 426378.6100000056,
      "d": 426.58687499997905,
      "v": 104
    },
    {
      "midi": 82,
      "hit": false,
      "t": 426378.6100000056,
      "d": 426.58687499997905,
      "v": 104
    },
    {
      "midi": 61,
      "hit": false,
      "t": 426854.8000000056,
      "d": 639.8803124999977,
      "v": 104
    },
    {
      "midi": 57,
      "hit": false,
      "t": 426854.8000000056,
      "d": 639.8803124999977,
      "v": 104
    },
    {
      "midi": 82,
      "hit": false,
      "t": 426854.8000000056,
      "d": 639.8803124999977,
      "v": 104
    },
    {
      "midi": 61,
      "hit": false,
      "t": 427569.08500000555,
      "d": 639.8803124999977,
      "v": 104
    },
    {
      "midi": 57,
      "hit": false,
      "t": 427569.08500000555,
      "d": 639.8803124999977,
      "v": 104
    },
    {
      "midi": 81,
      "hit": false,
      "t": 427569.08500000555,
      "d": 639.8803124999977,
      "v": 104
    },
    {
      "midi": 79,
      "hit": false,
      "t": 428283.3700000055,
      "d": 213.29343750001863,
      "v": 104
    },
    {
      "midi": 61,
      "hit": false,
      "t": 428283.3700000055,
      "d": 426.58687500003725,
      "v": 104
    },
    {
      "midi": 57,
      "hit": false,
      "t": 428283.3700000055,
      "d": 426.58687500003725,
      "v": 104
    },
    {
      "midi": 81,
      "hit": false,
      "t": 428521.46500000556,
      "d": 1498.014375000028,
      "v": 104
    },
    {
      "midi": 61,
      "hit": false,
      "t": 428759.5600000056,
      "d": 639.8803124999977,
      "v": 104
    },
    {
      "midi": 57,
      "hit": false,
      "t": 428759.5600000056,
      "d": 639.8803124999977,
      "v": 104
    },
    {
      "midi": 60,
      "hit": false,
      "t": 429473.84500000556,
      "d": 1066.467187500035,
      "v": 104
    },
    {
      "midi": 56,
      "hit": false,
      "t": 429473.84500000556,
      "d": 1066.467187500035,
      "v": 104
    },
    {
      "midi": 81,
      "hit": false,
      "t": 430188.1300000056,
      "d": 213.29343750001863,
      "v": 104
    },
    {
      "midi": 81,
      "hit": false,
      "t": 430426.2250000056,
      "d": 213.29343749996042,
      "v": 104
    },
    {
      "midi": 55,
      "hit": false,
      "t": 430664.3200000056,
      "d": 426.58687499997905,
      "v": 104
    },
    {
      "midi": 84,
      "hit": false,
      "t": 430664.3200000056,
      "d": 639.8803124999977,
      "v": 104
    },
    {
      "midi": 62,
      "hit": false,
      "t": 431140.5100000056,
      "d": 426.58687499997905,
      "v": 104
    },
    {
      "midi": 82,
      "hit": false,
      "t": 431378.60500000557,
      "d": 213.29343750001863,
      "v": 104
    },
    {
      "midi": 81,
      "hit": false,
      "t": 431616.7000000056,
      "d": 213.29343750001863,
      "v": 104
    },
    {
      "midi": 58,
      "hit": false,
      "t": 431616.7000000056,
      "d": 426.58687500003725,
      "v": 104
    },
    {
      "midi": 82,
      "hit": false,
      "t": 431854.79500000563,
      "d": 426.58687500003725,
      "v": 104
    },
    {
      "midi": 62,
      "hit": false,
      "t": 432092.89000000566,
      "d": 426.58687500003725,
      "v": 104
    },
    {
      "midi": 79,
      "hit": false,
      "t": 432330.9850000057,
      "d": 639.8803125000559,
      "v": 104
    },
    {
      "midi": 48,
      "hit": false,
      "t": 432569.0800000057,
      "d": 426.58687500003725,
      "v": 104
    },
    {
      "midi": 55,
      "hit": false,
      "t": 433045.2700000058,
      "d": 426.58687499997905,
      "v": 104
    },
    {
      "midi": 52,
      "hit": false,
      "t": 433521.4600000058,
      "d": 426.58687499997905,
      "v": 104
    },
    {
      "midi": 72,
      "hit": false,
      "t": 433997.6500000058,
      "d": 213.29343750001863,
      "v": 104
    },
    {
      "midi": 55,
      "hit": false,
      "t": 433997.6500000058,
      "d": 426.58687500003725,
      "v": 104
    },
    {
      "midi": 72,
      "hit": false,
      "t": 434235.7450000058,
      "d": 213.29343750001863,
      "v": 104
    },
    {
      "midi": 53,
      "hit": false,
      "t": 434473.84000000585,
      "d": 426.58687499997905,
      "v": 104
    },
    {
      "midi": 82,
      "hit": false,
      "t": 434473.84000000585,
      "d": 639.8803124999977,
      "v": 104
    },
    {
      "midi": 60,
      "hit": false,
      "t": 434950.03000000585,
      "d": 426.58687499997905,
      "v": 104
    },
    {
      "midi": 81,
      "hit": false,
      "t": 435188.1250000058,
      "d": 213.29343750001863,
      "v": 104
    },
    {
      "midi": 79,
      "hit": false,
      "t": 435426.22000000585,
      "d": 213.29343750001863,
      "v": 104
    },
    {
      "midi": 57,
      "hit": false,
      "t": 435426.22000000585,
      "d": 426.58687500003725,
      "v": 104
    },
    {
      "midi": 81,
      "hit": false,
      "t": 435664.3150000059,
      "d": 426.58687500003725,
      "v": 104
    },
    {
      "midi": 60,
      "hit": false,
      "t": 435902.4100000059,
      "d": 426.58687500003725,
      "v": 104
    },
    {
      "midi": 77,
      "hit": false,
      "t": 436140.50500000594,
      "d": 639.8803125000559,
      "v": 104
    },
    {
      "midi": 58,
      "hit": false,
      "t": 436378.600000006,
      "d": 426.58687500003725,
      "v": 104
    },
    {
      "midi": 65,
      "hit": false,
      "t": 436854.79000000603,
      "d": 426.58687499997905,
      "v": 104
    },
    {
      "midi": 62,
      "hit": false,
      "t": 437330.98000000603,
      "d": 426.58687499997905,
      "v": 104
    },
    {
      "midi": 65,
      "hit": false,
      "t": 437807.17000000604,
      "d": 426.58687499997905,
      "v": 104
    },
    {
      "midi": 77,
      "hit": false,
      "t": 437807.17000000604,
      "d": 426.58687499997905,
      "v": 104
    },
    {
      "midi": 52,
      "hit": false,
      "t": 438283.36000000604,
      "d": 426.58687499997905,
      "v": 104
    },
    {
      "midi": 81,
      "hit": false,
      "t": 438283.36000000604,
      "d": 639.8803124999977,
      "v": 104
    },
    {
      "midi": 58,
      "hit": false,
      "t": 438759.55000000604,
      "d": 426.58687499997905,
      "v": 104
    },
    {
      "midi": 79,
      "hit": false,
      "t": 438997.645000006,
      "d": 213.29343750001863,
      "v": 104
    },
    {
      "midi": 78,
      "hit": false,
      "t": 439235.74000000604,
      "d": 213.29343750001863,
      "v": 104
    },
    {
      "midi": 55,
      "hit": false,
      "t": 439235.74000000604,
      "d": 426.58687500003725,
      "v": 104
    },
    {
      "midi": 79,
      "hit": false,
      "t": 439473.8350000061,
      "d": 426.58687500003725,
      "v": 104
    },
    {
      "midi": 58,
      "hit": false,
      "t": 439711.9300000061,
      "d": 426.58687500003725,
      "v": 104
    },
    {
      "midi": 76,
      "hit": false,
      "t": 439950.02500000614,
      "d": 639.8803125000559,
      "v": 104
    },
    {
      "midi": 45,
      "hit": false,
      "t": 440188.12000000617,
      "d": 426.58687500003725,
      "v": 104
    },
    {
      "midi": 52,
      "hit": false,
      "t": 440664.3100000062,
      "d": 426.58687499997905,
      "v": 104
    },
    {
      "midi": 79,
      "hit": false,
      "t": 441140.5000000062,
      "d": 282.7378124999814,
      "v": 104
    },
    {
      "midi": 49,
      "hit": false,
      "t": 441140.5000000062,
      "d": 426.58687499997905,
      "v": 104
    },
    {
      "midi": 77,
      "hit": false,
      "t": 441457.9600000062,
      "d": 282.7378125000396,
      "v": 104
    },
    {
      "midi": 52,
      "hit": false,
      "t": 441616.69000000623,
      "d": 426.58687499997905,
      "v": 104
    },
    {
      "midi": 76,
      "hit": false,
      "t": 441775.4200000062,
      "d": 282.7378124999814,
      "v": 104
    },
    {
      "midi": 50,
      "hit": false,
      "t": 442092.8800000062,
      "d": 426.58687499997905,
      "v": 104
    },
    {
      "midi": 77,
      "hit": false,
      "t": 442092.8800000062,
      "d": 853.1737500000163,
      "v": 104
    },
    {
      "midi": 53,
      "hit": false,
      "t": 442569.0700000062,
      "d": 426.58687500003725,
      "v": 104
    },
    {
      "midi": 52,
      "hit": false,
      "t": 443045.26000000624,
      "d": 426.58687499997905,
      "v": 104
    },
    {
      "midi": 79,
      "hit": false,
      "t": 443045.26000000624,
      "d": 853.1737500000163,
      "v": 104
    },
    {
      "midi": 55,
      "hit": false,
      "t": 443521.45000000624,
      "d": 426.58687500003725,
      "v": 104
    },
    {
      "midi": 53,
      "hit": false,
      "t": 443997.6400000063,
      "d": 426.58687499997905,
      "v": 104
    },
    {
      "midi": 81,
      "hit": false,
      "t": 443997.6400000063,
      "d": 853.1737500000163,
      "v": 104
    },
    {
      "midi": 57,
      "hit": false,
      "t": 444473.8300000063,
      "d": 213.29343750001863,
      "v": 104
    },
    {
      "midi": 54,
      "hit": false,
      "t": 444711.92500000633,
      "d": 639.8803124999977,
      "v": 104
    },
    {
      "midi": 81,
      "hit": false,
      "t": 445426.2100000063,
      "d": 213.29343750001863,
      "v": 104
    },
    {
      "midi": 54,
      "hit": false,
      "t": 445426.2100000063,
      "d": 426.58687500003725,
      "v": 104
    },
    {
      "midi": 81,
      "hit": false,
      "t": 445664.30500000634,
      "d": 213.29343750001863,
      "v": 104
    },
    {
      "midi": 55,
      "hit": false,
      "t": 445902.40000000637,
      "d": 426.58687499997905,
      "v": 104
    },
    {
      "midi": 84,
      "hit": false,
      "t": 445902.40000000637,
      "d": 639.8803124999977,
      "v": 104
    },
    {
      "midi": 62,
      "hit": false,
      "t": 446378.59000000637,
      "d": 426.58687499997905,
      "v": 104
    },
    {
      "midi": 82,
      "hit": false,
      "t": 446616.68500000634,
      "d": 213.29343750001863,
      "v": 104
    },
    {
      "midi": 81,
      "hit": false,
      "t": 446854.7800000064,
      "d": 213.29343750001863,
      "v": 104
    },
    {
      "midi": 58,
      "hit": false,
      "t": 446854.7800000064,
      "d": 426.58687500003725,
      "v": 104
    },
    {
      "midi": 82,
      "hit": false,
      "t": 447092.8750000064,
      "d": 426.58687500003725,
      "v": 104
    },
    {
      "midi": 62,
      "hit": false,
      "t": 447330.97000000643,
      "d": 426.58687500003725,
      "v": 104
    },
    {
      "midi": 79,
      "hit": false,
      "t": 447569.06500000646,
      "d": 639.8803125000559,
      "v": 104
    },
    {
      "midi": 48,
      "hit": false,
      "t": 447807.1600000065,
      "d": 426.58687500003725,
      "v": 104
    },
    {
      "midi": 55,
      "hit": false,
      "t": 448283.35000000655,
      "d": 426.58687499997905,
      "v": 104
    },
    {
      "midi": 52,
      "hit": false,
      "t": 448759.54000000656,
      "d": 426.58687499997905,
      "v": 104
    },
    {
      "midi": 72,
      "hit": false,
      "t": 449235.73000000656,
      "d": 213.29343750001863,
      "v": 104
    },
    {
      "midi": 55,
      "hit": false,
      "t": 449235.73000000656,
      "d": 426.58687500003725,
      "v": 104
    },
    {
      "midi": 72,
      "hit": false,
      "t": 449473.8250000066,
      "d": 213.29343750001863,
      "v": 104
    },
    {
      "midi": 53,
      "hit": false,
      "t": 449711.9200000066,
      "d": 426.58687499997905,
      "v": 104
    },
    {
      "midi": 82,
      "hit": false,
      "t": 449711.9200000066,
      "d": 639.8803124999977,
      "v": 104
    },
    {
      "midi": 60,
      "hit": false,
      "t": 450188.1100000066,
      "d": 426.58687499997905,
      "v": 104
    },
    {
      "midi": 81,
      "hit": false,
      "t": 450426.2050000066,
      "d": 213.29343750001863,
      "v": 104
    },
    {
      "midi": 79,
      "hit": false,
      "t": 450664.3000000066,
      "d": 213.29343750001863,
      "v": 104
    },
    {
      "midi": 57,
      "hit": false,
      "t": 450664.3000000066,
      "d": 426.58687500003725,
      "v": 104
    },
    {
      "midi": 81,
      "hit": false,
      "t": 450902.39500000665,
      "d": 426.58687500003725,
      "v": 104
    },
    {
      "midi": 60,
      "hit": false,
      "t": 451140.4900000067,
      "d": 426.58687500003725,
      "v": 104
    },
    {
      "midi": 77,
      "hit": false,
      "t": 451378.5850000067,
      "d": 639.8803125000559,
      "v": 104
    },
    {
      "midi": 58,
      "hit": false,
      "t": 451616.68000000675,
      "d": 426.58687500003725,
      "v": 104
    },
    {
      "midi": 77,
      "hit": false,
      "t": 452092.8700000068,
      "d": 213.29343750001863,
      "v": 104
    },
    {
      "midi": 65,
      "hit": false,
      "t": 452092.8700000068,
      "d": 426.58687500003725,
      "v": 104
    },
    {
      "midi": 79,
      "hit": false,
      "t": 452330.96500000684,
      "d": 213.29343750001863,
      "v": 104
    },
    {
      "midi": 81,
      "hit": false,
      "t": 452569.06000000687,
      "d": 282.7378124999814,
      "v": 104
    },
    {
      "midi": 62,
      "hit": false,
      "t": 452569.06000000687,
      "d": 426.58687499997905,
      "v": 104
    },
    {
      "midi": 79,
      "hit": false,
      "t": 452886.5200000068,
      "d": 282.7378125000396,
      "v": 104
    },
    {
      "midi": 65,
      "hit": false,
      "t": 453045.25000000687,
      "d": 426.58687499997905,
      "v": 104
    },
    {
      "midi": 77,
      "hit": false,
      "t": 453203.98000000685,
      "d": 282.7378124999814,
      "v": 104
    },
    {
      "midi": 52,
      "hit": false,
      "t": 453521.4400000068,
      "d": 426.58687499997905,
      "v": 104
    },
    {
      "midi": 79,
      "hit": false,
      "t": 453521.4400000068,
      "d": 2137.8946875000256,
      "v": 104
    },
    {
      "midi": 58,
      "hit": false,
      "t": 453997.6300000068,
      "d": 426.58687499997905,
      "v": 104
    },
    {
      "midi": 55,
      "hit": false,
      "t": 454473.8200000068,
      "d": 426.58687499997905,
      "v": 104
    },
    {
      "midi": 58,
      "hit": false,
      "t": 454950.0100000068,
      "d": 426.58687499997905,
      "v": 104
    },
    {
      "midi": 61,
      "hit": false,
      "t": 455426.2000000068,
      "d": 426.58687500003725,
      "v": 104
    },
    {
      "midi": 57,
      "hit": false,
      "t": 455426.2000000068,
      "d": 426.58687500003725,
      "v": 104
    },
    {
      "midi": 76,
      "hit": false,
      "t": 455902.3900000069,
      "d": 426.58687499997905,
      "v": 104
    },
    {
      "midi": 45,
      "hit": false,
      "t": 455902.3900000069,
      "d": 1284.7209375000093,
      "v": 104
    },
    {
      "midi": 79,
      "hit": false,
      "t": 456378.5800000069,
      "d": 426.58687499997905,
      "v": 104
    },
    {
      "midi": 77,
      "hit": false,
      "t": 456854.7700000069,
      "d": 426.58687499997905,
      "v": 104
    },
    {
      "midi": 50,
      "hit": false,
      "t": 457330.9600000069,
      "d": 426.58687499997905,
      "v": 104
    },
    {
      "midi": 76,
      "hit": false,
      "t": 457330.9600000069,
      "d": 639.8803124999977,
      "v": 104
    },
    {
      "midi": 57,
      "hit": false,
      "t": 457807.1500000069,
      "d": 426.58687499997905,
      "v": 104
    },
    {
      "midi": 74,
      "hit": false,
      "t": 458045.24500000686,
      "d": 2772.8146875000675,
      "v": 104
    },
    {
      "midi": 53,
      "hit": false,
      "t": 458283.3400000069,
      "d": 426.58687499997905,
      "v": 104
    },
    {
      "midi": 57,
      "hit": false,
      "t": 458759.5300000069,
      "d": 426.58687499997905,
      "v": 104
    },
    {
      "midi": 50,
      "hit": false,
      "t": 459235.7200000069,
      "d": 426.58687499997905,
      "v": 104
    },
    {
      "midi": 57,
      "hit": false,
      "t": 459711.9100000069,
      "d": 426.58687499997905,
      "v": 104
    },
    {
      "midi": 53,
      "hit": false,
      "t": 460188.1000000069,
      "d": 426.58687499997905,
      "v": 104
    },
    {
      "midi": 57,
      "hit": false,
      "t": 460664.2900000069,
      "d": 426.58687500003725,
      "v": 104
    },
    {
      "midi": 57,
      "hit": false,
      "t": 461140.48000000697,
      "d": 213.29343750001863,
      "v": 104
    },
    {
      "midi": 50,
      "hit": false,
      "t": 461140.48000000697,
      "d": 213.29343750001863,
      "v": 104
    },
    {
      "midi": 76,
      "hit": false,
      "t": 461140.48000000697,
      "d": 213.29343750001863,
      "v": 104
    },
    {
      "midi": 72,
      "hit": false,
      "t": 461140.48000000697,
      "d": 213.29343750001863,
      "v": 104
    },
    {
      "midi": 69,
      "hit": false,
      "t": 461140.48000000697,
      "d": 213.29343750001863,
      "v": 104
    },
    {
      "midi": 65,
      "hit": false,
      "t": 461140.48000000697,
      "d": 213.29343750001863,
      "v": 104
    },
    {
      "midi": 57,
      "hit": false,
      "t": 461854.765000007,
      "d": 1066.4671874999767,
      "v": 104
    },
    {
      "midi": 50,
      "hit": false,
      "t": 461854.765000007,
      "d": 1066.4671874999767,
      "v": 104
    },
    {
      "midi": 76,
      "hit": false,
      "t": 461854.765000007,
      "d": 1066.4671874999767,
      "v": 104
    },
    {
      "midi": 72,
      "hit": false,
      "t": 461854.765000007,
      "d": 1066.4671874999767,
      "v": 104
    },
    {
      "midi": 69,
      "hit": false,
      "t": 461854.765000007,
      "d": 1066.4671874999767,
      "v": 104
    },
    {
      "midi": 65,
      "hit": false,
      "t": 461854.765000007,
      "d": 1066.4671874999767,
      "v": 104
    },
    {
      "midi": 45,
      "hit": false,
      "t": 463045.240000007,
      "d": 639.8803124999977,
      "v": 104
    },
    {
      "midi": 61,
      "hit": false,
      "t": 463759.52500000695,
      "d": 319.94015625002794,
      "v": 104
    },
    {
      "midi": 52,
      "hit": false,
      "t": 463759.52500000695,
      "d": 639.8803124999977,
      "v": 104
    },
    {
      "midi": 64,
      "hit": false,
      "t": 464116.66750000697,
      "d": 319.94015624996973,
      "v": 104
    },
    {
      "midi": 49,
      "hit": false,
      "t": 464473.8100000069,
      "d": 639.8803124999977,
      "v": 104
    },
    {
      "midi": 69,
      "hit": false,
      "t": 464473.8100000069,
      "d": 639.8803124999977,
      "v": 104
    },
    {
      "midi": 52,
      "hit": false,
      "t": 465188.0950000069,
      "d": 639.8803124999977,
      "v": 104
    },
    {
      "midi": 73,
      "hit": false,
      "t": 465188.0950000069,
      "d": 639.8803124999977,
      "v": 104
    },
    {
      "midi": 50,
      "hit": false,
      "t": 465902.3800000069,
      "d": 639.8803124999977,
      "v": 104
    },
    {
      "midi": 76,
      "hit": false,
      "t": 465902.3800000069,
      "d": 959.8204687499674,
      "v": 104
    },
    {
      "midi": 57,
      "hit": false,
      "t": 466616.66500000685,
      "d": 639.8803124999977,
      "v": 104
    },
    {
      "midi": 74,
      "hit": false,
      "t": 466973.80750000686,
      "d": 319.94015624996973,
      "v": 104
    },
    {
      "midi": 54,
      "hit": false,
      "t": 467330.9500000068,
      "d": 639.8803124999977,
      "v": 104
    },
    {
      "midi": 74,
      "hit": false,
      "t": 467330.9500000068,
      "d": 959.8204687499674,
      "v": 104
    },
    {
      "midi": 57,
      "hit": false,
      "t": 468045.2350000068,
      "d": 639.8803124999977,
      "v": 104
    },
    {
      "midi": 73,
      "hit": false,
      "t": 468402.3775000068,
      "d": 319.94015624996973,
      "v": 104
    },
    {
      "midi": 47,
      "hit": false,
      "t": 468759.52000000677,
      "d": 639.8803124999977,
      "v": 104
    },
    {
      "midi": 71,
      "hit": false,
      "t": 468759.52000000677,
      "d": 1927.0814062499558,
      "v": 104
    },
    {
      "midi": 54,
      "hit": false,
      "t": 469473.80500000675,
      "d": 639.8803124999977,
      "v": 104
    },
    {
      "midi": 50,
      "hit": false,
      "t": 470188.0900000067,
      "d": 639.8803124999977,
      "v": 104
    },
    {
      "midi": 47,
      "hit": false,
      "t": 470902.3750000067,
      "d": 319.94015625002794,
      "v": 104
    },
    {
      "midi": 71,
      "hit": false,
      "t": 470902.3750000067,
      "d": 319.94015625002794,
      "v": 104
    },
    {
      "midi": 62,
      "hit": false,
      "t": 470902.3750000067,
      "d": 319.94015625002794,
      "v": 104
    },
    {
      "midi": 49,
      "hit": false,
      "t": 471259.5175000067,
      "d": 319.94015625002794,
      "v": 104
    },
    {
      "midi": 73,
      "hit": false,
      "t": 471259.5175000067,
      "d": 319.94015625002794,
      "v": 104
    },
    {
      "midi": 64,
      "hit": false,
      "t": 471259.5175000067,
      "d": 319.94015625002794,
      "v": 104
    },
    {
      "midi": 50,
      "hit": false,
      "t": 471616.6600000067,
      "d": 639.8803124999977,
      "v": 104
    },
    {
      "midi": 74,
      "hit": false,
      "t": 471616.6600000067,
      "d": 1279.7606249999953,
      "v": 104
    },
    {
      "midi": 66,
      "hit": false,
      "t": 471616.6600000067,
      "d": 1279.7606249999953,
      "v": 104
    },
    {
      "midi": 57,
      "hit": false,
      "t": 472330.9450000067,
      "d": 639.8803124999977,
      "v": 104
    },
    {
      "midi": 54,
      "hit": false,
      "t": 473045.2300000067,
      "d": 639.8803124999977,
      "v": 104
    },
    {
      "midi": 78,
      "hit": false,
      "t": 473045.2300000067,
      "d": 1279.7606249999953,
      "v": 104
    },
    {
      "midi": 69,
      "hit": false,
      "t": 473045.2300000067,
      "d": 1279.7606249999953,
      "v": 104
    },
    {
      "midi": 57,
      "hit": false,
      "t": 473759.51500000665,
      "d": 639.8803124999977,
      "v": 104
    },
    {
      "midi": 80,
      "hit": false,
      "t": 474473.8000000066,
      "d": 319.94015625002794,
      "v": 104
    },
    {
      "midi": 56,
      "hit": false,
      "t": 474473.8000000066,
      "d": 5710.710000000021,
      "v": 104
    },
    {
      "midi": 52,
      "hit": false,
      "t": 474473.8000000066,
      "d": 5710.710000000021,
      "v": 104
    },
    {
      "midi": 78,
      "hit": false,
      "t": 474830.94250000664,
      "d": 319.94015625002794,
      "v": 104
    },
    {
      "midi": 76,
      "hit": false,
      "t": 475188.08500000666,
      "d": 319.94015625002794,
      "v": 104
    },
    {
      "midi": 74,
      "hit": false,
      "t": 475545.2275000067,
      "d": 319.94015625002794,
      "v": 104
    },
    {
      "midi": 73,
      "hit": false,
      "t": 475902.3700000067,
      "d": 319.94015625002794,
      "v": 104
    },
    {
      "midi": 71,
      "hit": false,
      "t": 476259.5125000067,
      "d": 319.94015625002794,
      "v": 104
    },
    {
      "midi": 69,
      "hit": false,
      "t": 476616.6550000067,
      "d": 156.2498437499744,
      "v": 104
    },
    {
      "midi": 68,
      "hit": false,
      "t": 476795.2262500067,
      "d": 156.2498437499744,
      "v": 104
    },
    {
      "midi": 66,
      "hit": false,
      "t": 476973.7975000067,
      "d": 156.2498437499744,
      "v": 104
    },
    {
      "midi": 64,
      "hit": false,
      "t": 477152.36875000666,
      "d": 156.2498437499744,
      "v": 104
    },
    {
      "midi": 62,
      "hit": false,
      "t": 477330.94000000664,
      "d": 1279.7606249999953,
      "v": 104
    },
    {
      "midi": 59,
      "hit": false,
      "t": 477330.94000000664,
      "d": 1279.7606249999953,
      "v": 104
    },
    {
      "midi": 66,
      "hit": false,
      "t": 478759.51000000664,
      "d": 2150,
      "v": 104
    },
    {
      "midi": 62,
      "hit": false,
      "t": 478759.51000000664,
      "d": 2150,
      "v": 104
    },
    {
      "midi": 57,
      "hit": false,
      "t": 481159.51000000664,
      "d": 319.94015625002794,
      "v": 104
    },
    {
      "midi": 61,
      "hit": false,
      "t": 481516.65250000666,
      "d": 319.94015625002794,
      "v": 104
    },
    {
      "midi": 64,
      "hit": false,
      "t": 481873.7950000067,
      "d": 1927.0814062498976,
      "v": 104
    },
    {
      "midi": 73,
      "hit": false,
      "t": 482230.9375000067,
      "d": 156.2498437499744,
      "v": 104
    },
    {
      "midi": 73,
      "hit": false,
      "t": 482409.5087500067,
      "d": 156.2498437499744,
      "v": 104
    },
    {
      "midi": 73,
      "hit": false,
      "t": 482588.08000000665,
      "d": 156.2498437499744,
      "v": 104
    },
    {
      "midi": 76,
      "hit": false,
      "t": 482766.65125000663,
      "d": 796.1301562499721,
      "v": 104
    },
    {
      "midi": 69,
      "hit": false,
      "t": 483659.5075000066,
      "d": 319.94015624996973,
      "v": 104
    },
    {
      "midi": 69,
      "hit": false,
      "t": 484016.65000000654,
      "d": 208.33312500000466,
      "v": 104
    },
    {
      "midi": 57,
      "hit": false,
      "t": 484016.65000000654,
      "d": 319.94015625002794,
      "v": 104
    },
    {
      "midi": 71,
      "hit": false,
      "t": 484254.7450000066,
      "d": 208.33312500000466,
      "v": 104
    },
    {
      "midi": 59,
      "hit": false,
      "t": 484373.79250000656,
      "d": 319.94015625002794,
      "v": 104
    },
    {
      "midi": 71,
      "hit": false,
      "t": 484492.8400000066,
      "d": 848.2134374999441,
      "v": 104
    },
    {
      "midi": 62,
      "hit": false,
      "t": 484730.9350000066,
      "d": 1927.0814062499558,
      "v": 104
    },
    {
      "midi": 56,
      "hit": false,
      "t": 486873.79000000656,
      "d": 319.94015625002794,
      "v": 104
    },
    {
      "midi": 59,
      "hit": false,
      "t": 487230.9325000066,
      "d": 319.94015625002794,
      "v": 104
    },
    {
      "midi": 74,
      "hit": false,
      "t": 487588.0750000066,
      "d": 208.33312500000466,
      "v": 104
    },
    {
      "midi": 64,
      "hit": false,
      "t": 487588.0750000066,
      "d": 1927.081406250014,
      "v": 104
    },
    {
      "midi": 74,
      "hit": false,
      "t": 487826.1700000066,
      "d": 208.33312500000466,
      "v": 104
    },
    {
      "midi": 74,
      "hit": false,
      "t": 488064.26500000665,
      "d": 528.2732812499744,
      "v": 104
    },
    {
      "midi": 78,
      "hit": false,
      "t": 488659.50250000664,
      "d": 639.8803124999977,
      "v": 104
    },
    {
      "midi": 71,
      "hit": false,
      "t": 489373.7875000066,
      "d": 319.94015624996973,
      "v": 104
    },
    {
      "midi": 74,
      "hit": false,
      "t": 489730.93000000657,
      "d": 208.33312500000466,
      "v": 104
    },
    {
      "midi": 57,
      "hit": false,
      "t": 489730.93000000657,
      "d": 319.94015625002794,
      "v": 104
    },
    {
      "midi": 73,
      "hit": false,
      "t": 489969.0250000066,
      "d": 208.33312500000466,
      "v": 104
    },
    {
      "midi": 61,
      "hit": false,
      "t": 490088.0725000066,
      "d": 319.94015625002794,
      "v": 104
    },
    {
      "midi": 73,
      "hit": false,
      "t": 490207.12000000663,
      "d": 848.2134374999441,
      "v": 104
    },
    {
      "midi": 64,
      "hit": false,
      "t": 490445.2150000066,
      "d": 639.8803124999977,
      "v": 104
    },
    {
      "midi": 57,
      "hit": false,
      "t": 491159.5000000066,
      "d": 319.94015625002794,
      "v": 104
    },
    {
      "midi": 61,
      "hit": false,
      "t": 491516.6425000066,
      "d": 319.94015625002794,
      "v": 104
    },
    {
      "midi": 56,
      "hit": false,
      "t": 491873.7850000066,
      "d": 319.94015625002794,
      "v": 104
    },
    {
      "midi": 59,
      "hit": false,
      "t": 492230.9275000066,
      "d": 319.94015625002794,
      "v": 104
    },
    {
      "midi": 54,
      "hit": false,
      "t": 492588.07000000664,
      "d": 319.94015625002794,
      "v": 104
    },
    {
      "midi": 57,
      "hit": false,
      "t": 492945.21250000666,
      "d": 319.94015625002794,
      "v": 104
    },
    {
      "midi": 73,
      "hit": false,
      "t": 493302.3550000067,
      "d": 208.33312500000466,
      "v": 104
    },
    {
      "midi": 61,
      "hit": false,
      "t": 493302.3550000067,
      "d": 1927.0814062500722,
      "v": 104
    },
    {
      "midi": 73,
      "hit": false,
      "t": 493540.4500000067,
      "d": 208.33312500000466,
      "v": 104
    },
    {
      "midi": 73,
      "hit": false,
      "t": 493778.54500000674,
      "d": 528.2732812499744,
      "v": 104
    },
    {
      "midi": 78,
      "hit": false,
      "t": 494373.7825000067,
      "d": 319.94015625002794,
      "v": 104
    },
    {
      "midi": 81,
      "hit": false,
      "t": 494730.92500000674,
      "d": 639.8803124999977,
      "v": 104
    },
    {
      "midi": 80,
      "hit": false,
      "t": 495445.2100000067,
      "d": 208.33312500000466,
      "v": 104
    },
    {
      "midi": 52,
      "hit": false,
      "t": 495445.2100000067,
      "d": 319.94015625002794,
      "v": 104
    },
    {
      "midi": 78,
      "hit": false,
      "t": 495683.30500000675,
      "d": 208.33312500000466,
      "v": 104
    },
    {
      "midi": 56,
      "hit": false,
      "t": 495802.35250000673,
      "d": 319.94015625002794,
      "v": 104
    },
    {
      "midi": 76,
      "hit": false,
      "t": 495921.4000000068,
      "d": 1488.09375,
      "v": 104
    },
    {
      "midi": 61,
      "hit": false,
      "t": 496159.49500000675,
      "d": 1927.081406250014,
      "v": 104
    },
    {
      "midi": 76,
      "hit": false,
      "t": 497945.20750000677,
      "d": 319.94015624996973,
      "v": 104
    },
    {
      "midi": 50,
      "hit": false,
      "t": 498302.3500000067,
      "d": 319.94015625002794,
      "v": 104
    },
    {
      "midi": 78,
      "hit": false,
      "t": 498302.3500000067,
      "d": 319.94015625002794,
      "v": 104
    },
    {
      "midi": 76,
      "hit": false,
      "t": 498659.49250000675,
      "d": 156.2498437499744,
      "v": 104
    },
    {
      "midi": 54,
      "hit": false,
      "t": 498659.49250000675,
      "d": 319.94015624996973,
      "v": 104
    },
    {
      "midi": 74,
      "hit": false,
      "t": 498838.0637500067,
      "d": 796.1301562499721,
      "v": 104
    },
    {
      "midi": 57,
      "hit": false,
      "t": 499016.6350000067,
      "d": 639.8803124999977,
      "v": 104
    },
    {
      "midi": 47,
      "hit": false,
      "t": 499730.9200000067,
      "d": 319.94015625002794,
      "v": 104
    },
    {
      "midi": 50,
      "hit": false,
      "t": 500088.0625000067,
      "d": 319.94015625002794,
      "v": 104
    },
    {
      "midi": 76,
      "hit": false,
      "t": 500088.0625000067,
      "d": 319.94015625002794,
      "v": 104
    },
    {
      "midi": 78,
      "hit": false,
      "t": 500445.2050000067,
      "d": 319.94015625002794,
      "v": 104
    },
    {
      "midi": 54,
      "hit": false,
      "t": 500445.2050000067,
      "d": 639.8803124999977,
      "v": 104
    },
    {
      "midi": 81,
      "hit": false,
      "t": 500802.3475000067,
      "d": 319.94015624996973,
      "v": 104
    },
    {
      "midi": 80,
      "hit": false,
      "t": 501159.4900000067,
      "d": 208.33312500000466,
      "v": 104
    },
    {
      "midi": 52,
      "hit": false,
      "t": 501159.4900000067,
      "d": 319.94015625002794,
      "v": 104
    },
    {
      "midi": 78,
      "hit": false,
      "t": 501397.5850000067,
      "d": 208.33312500000466,
      "v": 104
    },
    {
      "midi": 56,
      "hit": false,
      "t": 501516.6325000067,
      "d": 319.94015625002794,
      "v": 104
    },
    {
      "midi": 76,
      "hit": false,
      "t": 501635.68000000675,
      "d": 1488.0937499999418,
      "v": 104
    },
    {
      "midi": 59,
      "hit": false,
      "t": 501873.7750000067,
      "d": 319.94015625002794,
      "v": 104
    },
    {
      "midi": 62,
      "hit": false,
      "t": 502230.91750000673,
      "d": 639.8803124999977,
      "v": 104
    },
    {
      "midi": 59,
      "hit": false,
      "t": 502945.2025000067,
      "d": 319.94015624996973,
      "v": 104
    },
    {
      "midi": 56,
      "hit": false,
      "t": 503302.34500000667,
      "d": 319.94015625002794,
      "v": 104
    },
    {
      "midi": 52,
      "hit": false,
      "t": 503659.4875000067,
      "d": 319.94015625002794,
      "v": 104
    },
    {
      "midi": 57,
      "hit": false,
      "t": 504016.6300000067,
      "d": 319.94015625002794,
      "v": 104
    },
    {
      "midi": 61,
      "hit": false,
      "t": 504373.7725000067,
      "d": 319.94015625002794,
      "v": 104
    },
    {
      "midi": 64,
      "hit": false,
      "t": 504730.91500000673,
      "d": 319.94015625002794,
      "v": 104
    },
    {
      "midi": 73,
      "hit": false,
      "t": 505088.05750000675,
      "d": 156.2498437499744,
      "v": 104
    },
    {
      "midi": 61,
      "hit": false,
      "t": 505088.05750000675,
      "d": 319.94015624996973,
      "v": 104
    },
    {
      "midi": 73,
      "hit": false,
      "t": 505266.6287500067,
      "d": 156.2498437499744,
      "v": 104
    },
    {
      "midi": 73,
      "hit": false,
      "t": 505445.2000000067,
      "d": 156.2498437499744,
      "v": 104
    },
    {
      "midi": 57,
      "hit": false,
      "t": 505445.2000000067,
      "d": 319.94015624996973,
      "v": 104
    },
    {
      "midi": 76,
      "hit": false,
      "t": 505623.7712500067,
      "d": 796.1301562499721,
      "v": 104
    },
    {
      "midi": 61,
      "hit": false,
      "t": 505802.34250000666,
      "d": 319.94015625002794,
      "v": 104
    },
    {
      "midi": 64,
      "hit": false,
      "t": 506159.4850000067,
      "d": 319.94015624996973,
      "v": 104
    },
    {
      "midi": 61,
      "hit": false,
      "t": 506516.62750000664,
      "d": 319.94015625002794,
      "v": 104
    },
    {
      "midi": 69,
      "hit": false,
      "t": 506516.62750000664,
      "d": 319.94015625002794,
      "v": 104
    },
    {
      "midi": 69,
      "hit": false,
      "t": 506873.77000000665,
      "d": 208.33312500000466,
      "v": 104
    },
    {
      "midi": 57,
      "hit": false,
      "t": 506873.77000000665,
      "d": 319.94015625002794,
      "v": 104
    },
    {
      "midi": 71,
      "hit": false,
      "t": 507111.8650000067,
      "d": 208.33312500000466,
      "v": 104
    },
    {
      "midi": 59,
      "hit": false,
      "t": 507230.91250000667,
      "d": 319.94015625002794,
      "v": 104
    },
    {
      "midi": 71,
      "hit": false,
      "t": 507349.9600000067,
      "d": 208.33312500000466,
      "v": 104
    },
    {
      "midi": 62,
      "hit": false,
      "t": 507588.05500000675,
      "d": 319.94015625002794,
      "v": 104
    },
    {
      "midi": 71,
      "hit": false,
      "t": 507588.05500000675,
      "d": 1927.0814062500722,
      "v": 104
    },
    {
      "midi": 59,
      "hit": false,
      "t": 507945.19750000676,
      "d": 319.94015625002794,
      "v": 104
    },
    {
      "midi": 57,
      "hit": false,
      "t": 508302.3400000068,
      "d": 319.94015625002794,
      "v": 104
    },
    {
      "midi": 59,
      "hit": false,
      "t": 508659.4825000068,
      "d": 319.94015625002794,
      "v": 104
    },
    {
      "midi": 62,
      "hit": false,
      "t": 509016.6250000068,
      "d": 319.94015625002794,
      "v": 104
    },
    {
      "midi": 59,
      "hit": false,
      "t": 509373.7675000068,
      "d": 319.94015624996973,
      "v": 104
    },
    {
      "midi": 56,
      "hit": false,
      "t": 509730.9100000068,
      "d": 319.94015625002794,
      "v": 104
    },
    {
      "midi": 59,
      "hit": false,
      "t": 510088.0525000068,
      "d": 319.94015625002794,
      "v": 104
    },
    {
      "midi": 74,
      "hit": false,
      "t": 510445.1950000068,
      "d": 208.33312500000466,
      "v": 104
    },
    {
      "midi": 64,
      "hit": false,
      "t": 510445.1950000068,
      "d": 319.94015625002794,
      "v": 104
    },
    {
      "midi": 74,
      "hit": false,
      "t": 510683.29000000685,
      "d": 208.33312500000466,
      "v": 104
    },
    {
      "midi": 59,
      "hit": false,
      "t": 510802.33750000683,
      "d": 319.94015625002794,
      "v": 104
    },
    {
      "midi": 74,
      "hit": false,
      "t": 510921.3850000069,
      "d": 528.2732812499744,
      "v": 104
    },
    {
      "midi": 56,
      "hit": false,
      "t": 511159.48000000685,
      "d": 319.94015625002794,
      "v": 104
    },
    {
      "midi": 59,
      "hit": false,
      "t": 511516.62250000687,
      "d": 319.94015625002794,
      "v": 104
    },
    {
      "midi": 78,
      "hit": false,
      "t": 511516.62250000687,
      "d": 639.8803124999977,
      "v": 104
    },
    {
      "midi": 64,
      "hit": false,
      "t": 511873.7650000069,
      "d": 319.94015624996973,
      "v": 104
    },
    {
      "midi": 59,
      "hit": false,
      "t": 512230.90750000684,
      "d": 319.94015625002794,
      "v": 104
    },
    {
      "midi": 71,
      "hit": false,
      "t": 512230.90750000684,
      "d": 319.94015625002794,
      "v": 104
    },
    {
      "midi": 74,
      "hit": false,
      "t": 512588.05000000686,
      "d": 208.33312500000466,
      "v": 104
    },
    {
      "midi": 57,
      "hit": false,
      "t": 512588.05000000686,
      "d": 319.94015625002794,
      "v": 104
    },
    {
      "midi": 73,
      "hit": false,
      "t": 512826.1450000069,
      "d": 208.33312500000466,
      "v": 104
    },
    {
      "midi": 61,
      "hit": false,
      "t": 512945.1925000069,
      "d": 319.94015625002794,
      "v": 104
    },
    {
      "midi": 73,
      "hit": false,
      "t": 513064.2400000069,
      "d": 1488.09375,
      "v": 104
    },
    {
      "midi": 64,
      "hit": false,
      "t": 513302.3350000069,
      "d": 319.94015625002794,
      "v": 104
    },
    {
      "midi": 61,
      "hit": false,
      "t": 513659.4775000069,
      "d": 319.94015625002794,
      "v": 104
    },
    {
      "midi": 57,
      "hit": false,
      "t": 514016.6200000069,
      "d": 319.94015625002794,
      "v": 104
    },
    {
      "midi": 61,
      "hit": false,
      "t": 514373.76250000694,
      "d": 319.94015624996973,
      "v": 104
    },
    {
      "midi": 56,
      "hit": false,
      "t": 514730.9050000069,
      "d": 319.94015625002794,
      "v": 104
    },
    {
      "midi": 59,
      "hit": false,
      "t": 515088.0475000069,
      "d": 319.94015625002794,
      "v": 104
    },
    {
      "midi": 54,
      "hit": false,
      "t": 515445.1900000069,
      "d": 319.94015625002794,
      "v": 104
    },
    {
      "midi": 57,
      "hit": false,
      "t": 515802.33250000695,
      "d": 319.94015625002794,
      "v": 104
    },
    {
      "midi": 61,
      "hit": false,
      "t": 516159.47500000696,
      "d": 319.94015625002794,
      "v": 104
    },
    {
      "midi": 73,
      "hit": false,
      "t": 516159.47500000696,
      "d": 319.94015625002794,
      "v": 104
    },
    {
      "midi": 57,
      "hit": false,
      "t": 516516.617500007,
      "d": 319.94015625002794,
      "v": 104
    },
    {
      "midi": 73,
      "hit": false,
      "t": 516516.617500007,
      "d": 319.94015625002794,
      "v": 104
    },
    {
      "midi": 54,
      "hit": false,
      "t": 516873.760000007,
      "d": 319.94015625002794,
      "v": 104
    },
    {
      "midi": 73,
      "hit": false,
      "t": 516873.760000007,
      "d": 319.94015625002794,
      "v": 104
    },
    {
      "midi": 57,
      "hit": false,
      "t": 517230.902500007,
      "d": 319.94015625002794,
      "v": 104
    },
    {
      "midi": 78,
      "hit": false,
      "t": 517230.902500007,
      "d": 639.8803124999977,
      "v": 104
    },
    {
      "midi": 61,
      "hit": false,
      "t": 517588.045000007,
      "d": 319.94015624996973,
      "v": 104
    },
    {
      "midi": 57,
      "hit": false,
      "t": 517945.187500007,
      "d": 319.94015625002794,
      "v": 104
    },
    {
      "midi": 81,
      "hit": false,
      "t": 517945.187500007,
      "d": 319.94015625002794,
      "v": 104
    },
    {
      "midi": 80,
      "hit": false,
      "t": 518302.330000007,
      "d": 208.33312500000466,
      "v": 104
    },
    {
      "midi": 52,
      "hit": false,
      "t": 518302.330000007,
      "d": 319.94015625002794,
      "v": 104
    },
    {
      "midi": 78,
      "hit": false,
      "t": 518540.42500000703,
      "d": 208.33312500000466,
      "v": 104
    },
    {
      "midi": 56,
      "hit": false,
      "t": 518659.472500007,
      "d": 319.94015625002794,
      "v": 104
    },
    {
      "midi": 76,
      "hit": false,
      "t": 518778.52000000706,
      "d": 1488.09375,
      "v": 104
    },
    {
      "midi": 61,
      "hit": false,
      "t": 519016.61500000703,
      "d": 319.94015625002794,
      "v": 104
    },
    {
      "midi": 56,
      "hit": false,
      "t": 519373.75750000705,
      "d": 319.94015625002794,
      "v": 104
    },
    {
      "midi": 52,
      "hit": false,
      "t": 519730.90000000707,
      "d": 319.94015625002794,
      "v": 104
    },
    {
      "midi": 56,
      "hit": false,
      "t": 520088.0425000071,
      "d": 319.94015624996973,
      "v": 104
    },
    {
      "midi": 61,
      "hit": false,
      "t": 520445.18500000704,
      "d": 319.94015625002794,
      "v": 104
    },
    {
      "midi": 56,
      "hit": false,
      "t": 520802.32750000706,
      "d": 319.94015625002794,
      "v": 104
    },
    {
      "midi": 76,
      "hit": false,
      "t": 520802.32750000706,
      "d": 319.94015625002794,
      "v": 104
    },
    {
      "midi": 50,
      "hit": false,
      "t": 521159.4700000071,
      "d": 319.94015625002794,
      "v": 104
    },
    {
      "midi": 78,
      "hit": false,
      "t": 521159.4700000071,
      "d": 319.94015625002794,
      "v": 104
    },
    {
      "midi": 76,
      "hit": false,
      "t": 521516.6125000071,
      "d": 156.2498437499744,
      "v": 104
    },
    {
      "midi": 54,
      "hit": false,
      "t": 521516.6125000071,
      "d": 319.94015624996973,
      "v": 104
    },
    {
      "midi": 74,
      "hit": false,
      "t": 521695.18375000707,
      "d": 796.1301562499721,
      "v": 104
    },
    {
      "midi": 57,
      "hit": false,
      "t": 521873.75500000705,
      "d": 319.94015625002794,
      "v": 104
    },
    {
      "midi": 54,
      "hit": false,
      "t": 522230.89750000706,
      "d": 319.94015624996973,
      "v": 104
    },
    {
      "midi": 47,
      "hit": false,
      "t": 522588.040000007,
      "d": 319.94015625002794,
      "v": 104
    },
    {
      "midi": 50,
      "hit": false,
      "t": 522945.18250000704,
      "d": 319.94015625002794,
      "v": 104
    },
    {
      "midi": 76,
      "hit": false,
      "t": 522945.18250000704,
      "d": 319.94015625002794,
      "v": 104
    },
    {
      "midi": 54,
      "hit": false,
      "t": 523302.32500000705,
      "d": 319.94015625002794,
      "v": 104
    },
    {
      "midi": 78,
      "hit": false,
      "t": 523302.32500000705,
      "d": 319.94015625002794,
      "v": 104
    },
    {
      "midi": 81,
      "hit": false,
      "t": 523659.4675000071,
      "d": 156.2498437499744,
      "v": 104
    },
    {
      "midi": 57,
      "hit": false,
      "t": 523659.4675000071,
      "d": 319.94015624996973,
      "v": 104
    },
    {
      "midi": 83,
      "hit": false,
      "t": 523838.03875000705,
      "d": 2083.3312500002794,
      "v": 104
    },
    {
      "midi": 52,
      "hit": false,
      "t": 524016.61000000703,
      "d": 319.94015624996973,
      "v": 104
    },
    {
      "midi": 56,
      "hit": false,
      "t": 524373.752500007,
      "d": 319.94015625002794,
      "v": 104
    },
    {
      "midi": 59,
      "hit": false,
      "t": 524730.8950000071,
      "d": 319.94015625002794,
      "v": 104
    },
    {
      "midi": 56,
      "hit": false,
      "t": 525088.0375000072,
      "d": 319.94015625002794,
      "v": 104
    },
    {
      "midi": 52,
      "hit": false,
      "t": 525445.1800000073,
      "d": 319.94015625002794,
      "v": 104
    },
    {
      "midi": 56,
      "hit": false,
      "t": 525802.3225000073,
      "d": 319.94015625002794,
      "v": 104
    },
    {
      "midi": 59,
      "hit": false,
      "t": 526159.4650000074,
      "d": 319.94015625002794,
      "v": 104
    },
    {
      "midi": 81,
      "hit": false,
      "t": 526159.4650000074,
      "d": 319.94015625002794,
      "v": 104
    },
    {
      "midi": 56,
      "hit": false,
      "t": 526516.6075000075,
      "d": 319.94015625002794,
      "v": 104
    },
    {
      "midi": 80,
      "hit": false,
      "t": 526516.6075000075,
      "d": 319.94015625002794,
      "v": 104
    },
    {
      "midi": 61,
      "hit": false,
      "t": 526873.7500000076,
      "d": 959.8204687499674,
      "v": 104
    },
    {
      "midi": 57,
      "hit": false,
      "t": 526873.7500000076,
      "d": 959.8204687499674,
      "v": 104
    },
    {
      "midi": 81,
      "hit": false,
      "t": 526873.7500000076,
      "d": 3206.8420312501257,
      "v": 104
    },
    {
      "midi": 59,
      "hit": false,
      "t": 527945.1775000076,
      "d": 319.94015625002794,
      "v": 104
    },
    {
      "midi": 56,
      "hit": false,
      "t": 527945.1775000076,
      "d": 319.94015625002794,
      "v": 104
    },
    {
      "midi": 57,
      "hit": false,
      "t": 528302.3200000076,
      "d": 959.8204687499674,
      "v": 104
    },
    {
      "midi": 54,
      "hit": false,
      "t": 528302.3200000076,
      "d": 959.8204687499674,
      "v": 104
    },
    {
      "midi": 56,
      "hit": false,
      "t": 529373.7475000076,
      "d": 319.94015625002794,
      "v": 104
    },
    {
      "midi": 52,
      "hit": false,
      "t": 529373.7475000076,
      "d": 319.94015625002794,
      "v": 104
    },
    {
      "midi": 54,
      "hit": false,
      "t": 529730.8900000077,
      "d": 1279.7606249999953,
      "v": 104
    },
    {
      "midi": 50,
      "hit": false,
      "t": 529730.8900000077,
      "d": 1279.7606249999953,
      "v": 104
    },
    {
      "midi": 56,
      "hit": false,
      "t": 531159.4600000076,
      "d": 639.8803125000559,
      "v": 104
    },
    {
      "midi": 52,
      "hit": false,
      "t": 531159.4600000076,
      "d": 639.8803125000559,
      "v": 104
    },
    {
      "midi": 56,
      "hit": false,
      "t": 531873.7450000077,
      "d": 3206.8420312500093,
      "v": 104
    },
    {
      "midi": 53,
      "hit": false,
      "t": 531873.7450000077,
      "d": 3206.8420312500093,
      "v": 104
    },
    {
      "midi": 49,
      "hit": false,
      "t": 531873.7450000077,
      "d": 3206.8420312500093,
      "v": 104
    },
    {
      "midi": 54,
      "hit": false,
      "t": 535445.1700000077,
      "d": 2566.9617187499534,
      "v": 104
    },
    {
      "midi": 56,
      "hit": false,
      "t": 535504.6937500078,
      "d": 2566.9617187499534,
      "v": 104
    },
    {
      "midi": 57,
      "hit": false,
      "t": 535564.2175000078,
      "d": 2566.9617187499534,
      "v": 104
    },
    {
      "midi": 61,
      "hit": false,
      "t": 535623.7412500079,
      "d": 2566.9617187499534,
      "v": 104
    },
    {
      "midi": 66,
      "hit": false,
      "t": 536159.4550000079,
      "d": 208.33312500000466,
      "v": 104
    },
    {
      "midi": 68,
      "hit": false,
      "t": 536397.5500000078,
      "d": 208.33312500000466,
      "v": 104
    },
    {
      "midi": 69,
      "hit": false,
      "t": 536635.6450000078,
      "d": 208.33312500000466,
      "v": 104
    },
    {
      "midi": 68,
      "hit": false,
      "t": 536873.7400000078,
      "d": 208.33312500000466,
      "v": 104
    },
    {
      "midi": 66,
      "hit": false,
      "t": 537111.8350000078,
      "d": 208.33312500000466,
      "v": 104
    },
    {
      "midi": 66,
      "hit": false,
      "t": 537349.9300000077,
      "d": 848.2134375000605,
      "v": 104
    },
    {
      "midi": 52,
      "hit": false,
      "t": 538302.3100000077,
      "d": 2566.9617187499534,
      "v": 104
    },
    {
      "midi": 54,
      "hit": false,
      "t": 538361.8337500078,
      "d": 2566.9617187499534,
      "v": 104
    },
    {
      "midi": 57,
      "hit": false,
      "t": 538421.3575000078,
      "d": 2566.9617187499534,
      "v": 104
    },
    {
      "midi": 61,
      "hit": false,
      "t": 538480.8812500079,
      "d": 2566.9617187499534,
      "v": 104
    },
    {
      "midi": 66,
      "hit": false,
      "t": 539016.5950000079,
      "d": 208.33312500000466,
      "v": 104
    },
    {
      "midi": 68,
      "hit": false,
      "t": 539254.6900000079,
      "d": 208.33312500000466,
      "v": 104
    },
    {
      "midi": 69,
      "hit": false,
      "t": 539492.7850000078,
      "d": 208.33312500000466,
      "v": 104
    },
    {
      "midi": 68,
      "hit": false,
      "t": 539730.8800000078,
      "d": 208.33312500000466,
      "v": 104
    },
    {
      "midi": 66,
      "hit": false,
      "t": 539968.9750000078,
      "d": 208.33312500000466,
      "v": 104
    },
    {
      "midi": 66,
      "hit": false,
      "t": 540207.0700000077,
      "d": 848.2134375000605,
      "v": 104
    },
    {
      "midi": 50,
      "hit": false,
      "t": 541159.4500000078,
      "d": 319.94015625002794,
      "v": 104
    },
    {
      "midi": 54,
      "hit": false,
      "t": 541516.5925000078,
      "d": 319.94015625002794,
      "v": 104
    },
    {
      "midi": 66,
      "hit": false,
      "t": 541873.7350000079,
      "d": 208.33312500000466,
      "v": 104
    },
    {
      "midi": 57,
      "hit": false,
      "t": 541873.7350000079,
      "d": 319.94015625002794,
      "v": 104
    },
    {
      "midi": 68,
      "hit": false,
      "t": 542111.8300000079,
      "d": 208.33312500012107,
      "v": 104
    },
    {
      "midi": 54,
      "hit": false,
      "t": 542230.877500008,
      "d": 319.94015625002794,
      "v": 104
    },
    {
      "midi": 69,
      "hit": false,
      "t": 542349.925000008,
      "d": 208.33312500000466,
      "v": 104
    },
    {
      "midi": 52,
      "hit": false,
      "t": 542588.0200000079,
      "d": 319.94015625002794,
      "v": 104
    },
    {
      "midi": 68,
      "hit": false,
      "t": 542588.0200000079,
      "d": 319.94015625002794,
      "v": 104
    },
    {
      "midi": 56,
      "hit": false,
      "t": 542945.162500008,
      "d": 319.94015625002794,
      "v": 104
    },
    {
      "midi": 66,
      "hit": false,
      "t": 542945.162500008,
      "d": 639.8803125000559,
      "v": 104
    },
    {
      "midi": 59,
      "hit": false,
      "t": 543302.3050000081,
      "d": 319.94015625002794,
      "v": 104
    },
    {
      "midi": 56,
      "hit": false,
      "t": 543659.4475000082,
      "d": 319.94015625002794,
      "v": 104
    },
    {
      "midi": 64,
      "hit": false,
      "t": 543659.4475000082,
      "d": 319.94015625002794,
      "v": 104
    },
    {
      "midi": 45,
      "hit": false,
      "t": 544016.5900000082,
      "d": 319.94015625002794,
      "v": 104
    },
    {
      "midi": 59,
      "hit": false,
      "t": 544016.5900000082,
      "d": 319.94015625002794,
      "v": 104
    },
    {
      "midi": 52,
      "hit": false,
      "t": 544373.7325000083,
      "d": 319.94015625002794,
      "v": 104
    },
    {
      "midi": 61,
      "hit": false,
      "t": 544373.7325000083,
      "d": 959.8204687502002,
      "v": 104
    },
    {
      "midi": 57,
      "hit": false,
      "t": 544730.8750000084,
      "d": 319.94015625002794,
      "v": 104
    },
    {
      "midi": 52,
      "hit": false,
      "t": 545088.0175000085,
      "d": 319.94015625002794,
      "v": 104
    },
    {
      "midi": 49,
      "hit": false,
      "t": 545445.1600000085,
      "d": 1279.7606250001118,
      "v": 104
    },
    {
      "midi": 53,
      "hit": false,
      "t": 545504.6837500086,
      "d": 1279.7606250001118,
      "v": 104
    },
    {
      "midi": 56,
      "hit": false,
      "t": 545564.2075000086,
      "d": 1279.7606250001118,
      "v": 104
    },
    {
      "midi": 59,
      "hit": false,
      "t": 545623.7312500087,
      "d": 1279.7606249999953,
      "v": 104
    },
    {
      "midi": 54,
      "hit": false,
      "t": 546873.7300000087,
      "d": 2559.5212499998743,
      "v": 104
    },
    {
      "midi": 56,
      "hit": false,
      "t": 546933.2537500086,
      "d": 2559.5212499999907,
      "v": 104
    },
    {
      "midi": 57,
      "hit": false,
      "t": 546992.7775000087,
      "d": 2559.5212499999907,
      "v": 104
    },
    {
      "midi": 61,
      "hit": false,
      "t": 547052.3012500087,
      "d": 2559.5212499999907,
      "v": 104
    },
    {
      "midi": 66,
      "hit": false,
      "t": 547588.0150000087,
      "d": 208.33312500000466,
      "v": 104
    },
    {
      "midi": 68,
      "hit": false,
      "t": 547826.1100000087,
      "d": 208.33312500000466,
      "v": 104
    },
    {
      "midi": 69,
      "hit": false,
      "t": 548064.2050000087,
      "d": 208.33312500000466,
      "v": 104
    },
    {
      "midi": 68,
      "hit": false,
      "t": 548302.3000000087,
      "d": 208.33312500000466,
      "v": 104
    },
    {
      "midi": 66,
      "hit": false,
      "t": 548540.3950000086,
      "d": 208.33312500000466,
      "v": 104
    },
    {
      "midi": 66,
      "hit": false,
      "t": 548778.4900000086,
      "d": 848.213437500177,
      "v": 104
    },
    {
      "midi": 52,
      "hit": false,
      "t": 549730.8700000087,
      "d": 2566.9617187499534,
      "v": 104
    },
    {
      "midi": 54,
      "hit": false,
      "t": 549790.3937500088,
      "d": 2566.9617187499534,
      "v": 104
    },
    {
      "midi": 57,
      "hit": false,
      "t": 549849.9175000088,
      "d": 2566.9617187499534,
      "v": 104
    },
    {
      "midi": 61,
      "hit": false,
      "t": 549909.4412500089,
      "d": 2566.9617187499534,
      "v": 104
    },
    {
      "midi": 66,
      "hit": false,
      "t": 550445.1550000089,
      "d": 208.33312500000466,
      "v": 104
    },
    {
      "midi": 68,
      "hit": false,
      "t": 550683.2500000088,
      "d": 208.33312500000466,
      "v": 104
    },
    {
      "midi": 69,
      "hit": false,
      "t": 550921.3450000088,
      "d": 208.33312500000466,
      "v": 104
    },
    {
      "midi": 68,
      "hit": false,
      "t": 551159.4400000088,
      "d": 208.33312500000466,
      "v": 104
    },
    {
      "midi": 66,
      "hit": false,
      "t": 551397.5350000088,
      "d": 208.33312500000466,
      "v": 104
    },
    {
      "midi": 66,
      "hit": false,
      "t": 551635.6300000087,
      "d": 848.2134375000605,
      "v": 104
    },
    {
      "midi": 50,
      "hit": false,
      "t": 552588.0100000087,
      "d": 319.94015625002794,
      "v": 104
    },
    {
      "midi": 54,
      "hit": false,
      "t": 552945.1525000088,
      "d": 319.94015625002794,
      "v": 104
    },
    {
      "midi": 57,
      "hit": false,
      "t": 553302.2950000089,
      "d": 319.94015625002794,
      "v": 104
    },
    {
      "midi": 66,
      "hit": false,
      "t": 553302.2950000089,
      "d": 319.94015625002794,
      "v": 104
    },
    {
      "midi": 54,
      "hit": false,
      "t": 553659.437500009,
      "d": 319.94015625002794,
      "v": 104
    },
    {
      "midi": 66,
      "hit": false,
      "t": 553659.437500009,
      "d": 319.94015625002794,
      "v": 104
    },
    {
      "midi": 47,
      "hit": false,
      "t": 554016.580000009,
      "d": 319.94015625002794,
      "v": 104
    },
    {
      "midi": 68,
      "hit": false,
      "t": 554016.580000009,
      "d": 639.8803125000559,
      "v": 104
    },
    {
      "midi": 51,
      "hit": false,
      "t": 554373.7225000091,
      "d": 319.94015625002794,
      "v": 104
    },
    {
      "midi": 54,
      "hit": false,
      "t": 554730.8650000092,
      "d": 319.94015625002794,
      "v": 104
    },
    {
      "midi": 69,
      "hit": false,
      "t": 554730.8650000092,
      "d": 639.8803125000559,
      "v": 104
    },
    {
      "midi": 57,
      "hit": false,
      "t": 555088.0075000093,
      "d": 319.94015625002794,
      "v": 104
    },
    {
      "midi": 52,
      "hit": false,
      "t": 555445.1500000093,
      "d": 319.94015625002794,
      "v": 104
    },
    {
      "midi": 71,
      "hit": false,
      "t": 555445.1500000093,
      "d": 3206.8420312505914,
      "v": 104
    },
    {
      "midi": 56,
      "hit": false,
      "t": 555802.2925000094,
      "d": 319.94015625002794,
      "v": 104
    },
    {
      "midi": 59,
      "hit": false,
      "t": 556159.4350000095,
      "d": 319.94015625002794,
      "v": 104
    },
    {
      "midi": 62,
      "hit": false,
      "t": 556516.5775000096,
      "d": 319.94015625002794,
      "v": 104
    },
    {
      "midi": 64,
      "hit": false,
      "t": 556873.7200000096,
      "d": 319.94015625002794,
      "v": 104
    },
    {
      "midi": 62,
      "hit": false,
      "t": 557230.8625000097,
      "d": 319.94015625002794,
      "v": 104
    },
    {
      "midi": 59,
      "hit": false,
      "t": 557588.0050000098,
      "d": 319.94015625002794,
      "v": 104
    },
    {
      "midi": 56,
      "hit": false,
      "t": 557945.1475000099,
      "d": 319.94015625002794,
      "v": 104
    },
    {
      "midi": 52,
      "hit": false,
      "t": 558302.2900000099,
      "d": 1279.7606249999953,
      "v": 104
    },
    {
      "midi": 59,
      "hit": false,
      "t": 559730.8600000099,
      "d": 1279.7606249999953,
      "v": 104
    },
    {
      "midi": 56,
      "hit": false,
      "t": 559730.8600000099,
      "d": 1279.7606249999953,
      "v": 104
    },
    {
      "midi": 52,
      "hit": false,
      "t": 559730.8600000099,
      "d": 1279.7606249999953,
      "v": 104
    },
    {
      "midi": 78,
      "hit": false,
      "t": 559730.8600000099,
      "d": 1279.7606249999953,
      "v": 104
    },
    {
      "midi": 74,
      "hit": false,
      "t": 559730.8600000099,
      "d": 1279.7606249999953,
      "v": 104
    },
    {
      "midi": 57,
      "hit": false,
      "t": 561159.4300000098,
      "d": 319.94015625002794,
      "v": 104
    },
    {
      "midi": 76,
      "hit": false,
      "t": 561159.4300000098,
      "d": 1279.7606250002282,
      "v": 104
    },
    {
      "midi": 73,
      "hit": false,
      "t": 561159.4300000098,
      "d": 1279.7606250002282,
      "v": 104
    },
    {
      "midi": 61,
      "hit": false,
      "t": 561516.5725000099,
      "d": 319.94015625002794,
      "v": 104
    },
    {
      "midi": 64,
      "hit": false,
      "t": 561873.71500001,
      "d": 319.94015625002794,
      "v": 104
    },
    {
      "midi": 61,
      "hit": false,
      "t": 562230.85750001,
      "d": 319.94015625002794,
      "v": 104
    },
    {
      "midi": 56,
      "hit": false,
      "t": 562588.0000000101,
      "d": 319.94015625002794,
      "v": 104
    },
    {
      "midi": 59,
      "hit": false,
      "t": 562945.1425000102,
      "d": 319.94015625002794,
      "v": 104
    },
    {
      "midi": 76,
      "hit": false,
      "t": 562945.1425000102,
      "d": 319.94015625002794,
      "v": 104
    },
    {
      "midi": 78,
      "hit": false,
      "t": 563302.2850000103,
      "d": 208.33312500000466,
      "v": 104
    },
    {
      "midi": 64,
      "hit": false,
      "t": 563302.2850000103,
      "d": 319.94015625002794,
      "v": 104
    },
    {
      "midi": 80,
      "hit": false,
      "t": 563540.3800000102,
      "d": 208.33312500012107,
      "v": 104
    },
    {
      "midi": 59,
      "hit": false,
      "t": 563659.4275000104,
      "d": 319.94015625002794,
      "v": 104
    },
    {
      "midi": 81,
      "hit": false,
      "t": 563778.4750000103,
      "d": 1488.0937500003492,
      "v": 104
    },
    {
      "midi": 54,
      "hit": false,
      "t": 564016.5700000104,
      "d": 319.94015625002794,
      "v": 104
    },
    {
      "midi": 57,
      "hit": false,
      "t": 564373.7125000105,
      "d": 319.94015625002794,
      "v": 104
    },
    {
      "midi": 61,
      "hit": false,
      "t": 564730.8550000106,
      "d": 319.94015625002794,
      "v": 104
    },
    {
      "midi": 57,
      "hit": false,
      "t": 565087.9975000106,
      "d": 319.94015625002794,
      "v": 104
    },
    {
      "midi": 52,
      "hit": false,
      "t": 565445.1400000107,
      "d": 319.94015625002794,
      "v": 104
    },
    {
      "midi": 57,
      "hit": false,
      "t": 565802.2825000108,
      "d": 319.94015625002794,
      "v": 104
    },
    {
      "midi": 81,
      "hit": false,
      "t": 565802.2825000108,
      "d": 319.94015625002794,
      "v": 104
    },
    {
      "midi": 61,
      "hit": false,
      "t": 566159.4250000109,
      "d": 319.94015625002794,
      "v": 104
    },
    {
      "midi": 78,
      "hit": false,
      "t": 566159.4250000109,
      "d": 319.94015625002794,
      "v": 104
    },
    {
      "midi": 57,
      "hit": false,
      "t": 566516.567500011,
      "d": 319.94015625002794,
      "v": 104
    },
    {
      "midi": 73,
      "hit": false,
      "t": 566516.567500011,
      "d": 319.94015625002794,
      "v": 104
    },
    {
      "midi": 50,
      "hit": false,
      "t": 566873.710000011,
      "d": 319.94015625002794,
      "v": 104
    },
    {
      "midi": 74,
      "hit": false,
      "t": 566873.710000011,
      "d": 1279.7606250002282,
      "v": 104
    },
    {
      "midi": 54,
      "hit": false,
      "t": 567230.8525000111,
      "d": 319.94015625002794,
      "v": 104
    },
    {
      "midi": 57,
      "hit": false,
      "t": 567587.9950000112,
      "d": 319.94015625002794,
      "v": 104
    },
    {
      "midi": 54,
      "hit": false,
      "t": 567945.1375000112,
      "d": 319.94015625002794,
      "v": 104
    },
    {
      "midi": 47,
      "hit": false,
      "t": 568302.2800000113,
      "d": 319.94015625002794,
      "v": 104
    },
    {
      "midi": 51,
      "hit": false,
      "t": 568659.4225000114,
      "d": 319.94015625002794,
      "v": 104
    },
    {
      "midi": 83,
      "hit": false,
      "t": 568659.4225000114,
      "d": 319.94015625002794,
      "v": 104
    },
    {
      "midi": 57,
      "hit": false,
      "t": 569016.5650000115,
      "d": 319.94015625002794,
      "v": 104
    },
    {
      "midi": 83,
      "hit": false,
      "t": 569016.5650000115,
      "d": 319.94015625002794,
      "v": 104
    },
    {
      "midi": 54,
      "hit": false,
      "t": 569373.7075000115,
      "d": 319.94015625002794,
      "v": 104
    },
    {
      "midi": 81,
      "hit": false,
      "t": 569373.7075000115,
      "d": 319.94015625002794,
      "v": 104
    },
    {
      "midi": 80,
      "hit": false,
      "t": 569730.8500000116,
      "d": 208.33312500000466,
      "v": 104
    },
    {
      "midi": 52,
      "hit": false,
      "t": 569730.8500000116,
      "d": 319.94015625002794,
      "v": 104
    },
    {
      "midi": 78,
      "hit": false,
      "t": 569968.9450000116,
      "d": 208.33312500012107,
      "v": 104
    },
    {
      "midi": 56,
      "hit": false,
      "t": 570087.9925000117,
      "d": 319.94015625002794,
      "v": 104
    },
    {
      "midi": 76,
      "hit": false,
      "t": 570207.0400000117,
      "d": 1488.0937500003492,
      "v": 104
    },
    {
      "midi": 59,
      "hit": false,
      "t": 570445.1350000118,
      "d": 319.94015625002794,
      "v": 104
    },
    {
      "midi": 56,
      "hit": false,
      "t": 570802.2775000118,
      "d": 319.94015625002794,
      "v": 104
    },
    {
      "midi": 52,
      "hit": false,
      "t": 571159.4200000119,
      "d": 319.94015625002794,
      "v": 104
    },
    {
      "midi": 56,
      "hit": false,
      "t": 571516.562500012,
      "d": 319.94015625002794,
      "v": 104
    },
    {
      "midi": 59,
      "hit": false,
      "t": 571873.7050000121,
      "d": 319.94015625002794,
      "v": 104
    },
    {
      "midi": 78,
      "hit": false,
      "t": 571873.7050000121,
      "d": 639.8803125000559,
      "v": 104
    },
    {
      "midi": 56,
      "hit": false,
      "t": 572230.8475000121,
      "d": 319.94015625002794,
      "v": 104
    },
    {
      "midi": 57,
      "hit": false,
      "t": 572587.9900000122,
      "d": 319.94015625002794,
      "v": 104
    },
    {
      "midi": 76,
      "hit": false,
      "t": 572587.9900000122,
      "d": 1279.7606250002282,
      "v": 104
    },
    {
      "midi": 61,
      "hit": false,
      "t": 572945.1325000123,
      "d": 319.94015625002794,
      "v": 104
    },
    {
      "midi": 64,
      "hit": false,
      "t": 573302.2750000124,
      "d": 319.94015625002794,
      "v": 104
    },
    {
      "midi": 61,
      "hit": false,
      "t": 573659.4175000124,
      "d": 319.94015625002794,
      "v": 104
    },
    {
      "midi": 56,
      "hit": false,
      "t": 574016.5600000125,
      "d": 319.94015625002794,
      "v": 104
    },
    {
      "midi": 59,
      "hit": false,
      "t": 574373.7025000126,
      "d": 319.94015625002794,
      "v": 104
    },
    {
      "midi": 76,
      "hit": false,
      "t": 574373.7025000126,
      "d": 319.94015625002794,
      "v": 104
    },
    {
      "midi": 78,
      "hit": false,
      "t": 574730.8450000127,
      "d": 208.33312500000466,
      "v": 104
    },
    {
      "midi": 64,
      "hit": false,
      "t": 574730.8450000127,
      "d": 319.94015625002794,
      "v": 104
    },
    {
      "midi": 80,
      "hit": false,
      "t": 574968.9400000126,
      "d": 208.33312500012107,
      "v": 104
    },
    {
      "midi": 59,
      "hit": false,
      "t": 575087.9875000127,
      "d": 319.94015625002794,
      "v": 104
    },
    {
      "midi": 81,
      "hit": false,
      "t": 575207.0350000127,
      "d": 1488.0937500003492,
      "v": 104
    },
    {
      "midi": 54,
      "hit": false,
      "t": 575445.1300000128,
      "d": 319.94015625002794,
      "v": 104
    },
    {
      "midi": 57,
      "hit": false,
      "t": 575802.2725000129,
      "d": 319.94015625002794,
      "v": 104
    },
    {
      "midi": 61,
      "hit": false,
      "t": 576159.415000013,
      "d": 319.94015625002794,
      "v": 104
    },
    {
      "midi": 57,
      "hit": false,
      "t": 576516.557500013,
      "d": 319.94015625002794,
      "v": 104
    },
    {
      "midi": 52,
      "hit": false,
      "t": 576873.7000000131,
      "d": 319.94015625002794,
      "v": 104
    },
    {
      "midi": 57,
      "hit": false,
      "t": 577230.8425000132,
      "d": 319.94015625002794,
      "v": 104
    },
    {
      "midi": 80,
      "hit": false,
      "t": 577230.8425000132,
      "d": 319.94015625002794,
      "v": 104
    },
    {
      "midi": 61,
      "hit": false,
      "t": 577587.9850000133,
      "d": 319.94015625002794,
      "v": 104
    },
    {
      "midi": 81,
      "hit": false,
      "t": 577587.9850000133,
      "d": 319.94015625002794,
      "v": 104
    },
    {
      "midi": 57,
      "hit": false,
      "t": 577945.1275000133,
      "d": 319.94015625002794,
      "v": 104
    },
    {
      "midi": 83,
      "hit": false,
      "t": 577945.1275000133,
      "d": 319.94015625002794,
      "v": 104
    },
    {
      "midi": 85,
      "hit": false,
      "t": 578302.2700000134,
      "d": 208.33312500000466,
      "v": 104
    },
    {
      "midi": 51,
      "hit": false,
      "t": 578302.2700000134,
      "d": 319.94015625002794,
      "v": 104
    },
    {
      "midi": 83,
      "hit": false,
      "t": 578540.3650000134,
      "d": 208.33312500012107,
      "v": 104
    },
    {
      "midi": 54,
      "hit": false,
      "t": 578659.4125000135,
      "d": 319.94015625002794,
      "v": 104
    },
    {
      "midi": 81,
      "hit": false,
      "t": 578778.4600000135,
      "d": 1488.0937500003492,
      "v": 104
    },
    {
      "midi": 57,
      "hit": false,
      "t": 579016.5550000136,
      "d": 319.94015625002794,
      "v": 104
    },
    {
      "midi": 54,
      "hit": false,
      "t": 579373.6975000136,
      "d": 319.94015625002794,
      "v": 104
    },
    {
      "midi": 50,
      "hit": false,
      "t": 579730.8400000137,
      "d": 319.94015625002794,
      "v": 104
    },
    {
      "midi": 54,
      "hit": false,
      "t": 580087.9825000138,
      "d": 319.94015625002794,
      "v": 104
    },
    {
      "midi": 57,
      "hit": false,
      "t": 580445.1250000139,
      "d": 319.94015625002794,
      "v": 104
    },
    {
      "midi": 81,
      "hit": false,
      "t": 580445.1250000139,
      "d": 319.94015625002794,
      "v": 104
    },
    {
      "midi": 54,
      "hit": false,
      "t": 580802.2675000139,
      "d": 319.94015625002794,
      "v": 104
    },
    {
      "midi": 83,
      "hit": false,
      "t": 580802.2675000139,
      "d": 319.94015625002794,
      "v": 104
    },
    {
      "midi": 85,
      "hit": false,
      "t": 581159.410000014,
      "d": 208.33312500000466,
      "v": 104
    },
    {
      "midi": 47,
      "hit": false,
      "t": 581159.410000014,
      "d": 319.94015625002794,
      "v": 104
    },
    {
      "midi": 83,
      "hit": false,
      "t": 581397.505000014,
      "d": 208.33312500012107,
      "v": 104
    },
    {
      "midi": 50,
      "hit": false,
      "t": 581516.5525000141,
      "d": 319.94015625002794,
      "v": 104
    },
    {
      "midi": 81,
      "hit": false,
      "t": 581635.6000000141,
      "d": 528.2732812500326,
      "v": 104
    },
    {
      "midi": 54,
      "hit": false,
      "t": 581873.6950000142,
      "d": 319.9401562499115,
      "v": 104
    },
    {
      "midi": 85,
      "hit": false,
      "t": 582230.8375000141,
      "d": 156.2498437500326,
      "v": 104
    },
    {
      "midi": 57,
      "hit": false,
      "t": 582230.8375000141,
      "d": 319.94015625002794,
      "v": 104
    },
    {
      "midi": 83,
      "hit": false,
      "t": 582409.4087500141,
      "d": 156.2498437500326,
      "v": 104
    },
    {
      "midi": 52,
      "hit": false,
      "t": 582587.9800000142,
      "d": 639.8803125000559,
      "v": 104
    },
    {
      "midi": 81,
      "hit": false,
      "t": 582587.9800000142,
      "d": 639.8803125000559,
      "v": 104
    },
    {
      "midi": 78,
      "hit": false,
      "t": 582587.9800000142,
      "d": 639.8803125000559,
      "v": 104
    },
    {
      "midi": 74,
      "hit": false,
      "t": 582587.9800000142,
      "d": 639.8803125000559,
      "v": 104
    },
    {
      "midi": 40,
      "hit": false,
      "t": 583302.2650000142,
      "d": 639.8803125000559,
      "v": 104
    },
    {
      "midi": 83,
      "hit": false,
      "t": 583302.2650000142,
      "d": 639.8803125000559,
      "v": 104
    },
    {
      "midi": 80,
      "hit": false,
      "t": 583302.2650000142,
      "d": 639.8803125000559,
      "v": 104
    },
    {
      "midi": 76,
      "hit": false,
      "t": 583302.2650000142,
      "d": 639.8803125000559,
      "v": 104
    },
    {
      "midi": 45,
      "hit": false,
      "t": 584016.5500000142,
      "d": 319.94015625002794,
      "v": 104
    },
    {
      "midi": 81,
      "hit": false,
      "t": 584016.5500000142,
      "d": 5133.9234375003725,
      "v": 104
    },
    {
      "midi": 73,
      "hit": false,
      "t": 584016.5500000142,
      "d": 5133.9234375003725,
      "v": 104
    },
    {
      "midi": 49,
      "hit": false,
      "t": 584373.6925000143,
      "d": 319.94015625002794,
      "v": 104
    },
    {
      "midi": 52,
      "hit": false,
      "t": 584730.8350000144,
      "d": 319.94015625002794,
      "v": 104
    },
    {
      "midi": 57,
      "hit": false,
      "t": 585087.9775000145,
      "d": 639.8803125000559,
      "v": 104
    },
    {
      "midi": 52,
      "hit": false,
      "t": 585802.2625000145,
      "d": 319.94015625002794,
      "v": 104
    },
    {
      "midi": 49,
      "hit": false,
      "t": 586159.4050000146,
      "d": 319.94015625002794,
      "v": 104
    },
    {
      "midi": 52,
      "hit": false,
      "t": 586516.5475000147,
      "d": 2886.9018749999814,
      "v": 104
    },
    {
      "midi": 45,
      "hit": false,
      "t": 586873.6900000146,
      "d": 2566.96171875007,
      "v": 104
    }
  ]
}