{
  "jsonPath": "Animes/Sailor Moon MIDI Collection/kaze-ni-naritai-tai.json",
  "path": "Animes\\Sailor Moon MIDI Collection\\Kaze Ni Naritai Tai.mid",
  "name": "Kaze Ni Naritai Tai",
  "difficulty": "Advanced",
  "bpm": 112.00005973336519,
  "notes": [
    {
      "midi": 43,
      "hit": false,
      "t": 6428.567999999999,
      "d": 696.4282000000003,
      "v": 122
    },
    {
      "midi": 67,
      "hit": false,
      "t": 6439.728708333333,
      "d": 145.08920833333377,
      "v": 110
    },
    {
      "midi": 71,
      "hit": false,
      "t": 6439.728708333333,
      "d": 149.55349166666747,
      "v": 122
    },
    {
      "midi": 62,
      "hit": false,
      "t": 6488.835825,
      "d": 1953.1239583333336,
      "v": 76
    },
    {
      "midi": 67,
      "hit": false,
      "t": 6495.53225,
      "d": 1912.945408333333,
      "v": 80
    },
    {
      "midi": 71,
      "hit": false,
      "t": 6499.996533333334,
      "d": 1908.4811249999993,
      "v": 86
    },
    {
      "midi": 74,
      "hit": false,
      "t": 6689.728575000001,
      "d": 178.5713333333333,
      "v": 110
    },
    {
      "midi": 71,
      "hit": false,
      "t": 6689.728575000001,
      "d": 185.2677583333334,
      "v": 106
    },
    {
      "midi": 47,
      "hit": false,
      "t": 7187.496166666666,
      "d": 194.1963249999999,
      "v": 122
    },
    {
      "midi": 67,
      "hit": false,
      "t": 7225.442575000001,
      "d": 122.76779166666711,
      "v": 100
    },
    {
      "midi": 71,
      "hit": false,
      "t": 7225.442575000001,
      "d": 133.92849999999999,
      "v": 110
    },
    {
      "midi": 50,
      "hit": false,
      "t": 7459.817449999999,
      "d": 279.01770833333285,
      "v": 122
    },
    {
      "midi": 74,
      "hit": false,
      "t": 7504.460283333334,
      "d": 167.41062500000044,
      "v": 122
    },
    {
      "midi": 71,
      "hit": false,
      "t": 7504.460283333334,
      "d": 189.7320416666671,
      "v": 116
    },
    {
      "midi": 67,
      "hit": false,
      "t": 7756.692291666666,
      "d": 116.07136666666702,
      "v": 126
    },
    {
      "midi": 55,
      "hit": false,
      "t": 7772.317283333333,
      "d": 118.30350833333341,
      "v": 126
    },
    {
      "midi": 79,
      "hit": false,
      "t": 8013.388583333333,
      "d": 149.55349166666656,
      "v": 110
    },
    {
      "midi": 38,
      "hit": false,
      "t": 8017.852866666664,
      "d": 290.1784166666657,
      "v": 126
    },
    {
      "midi": 67,
      "hit": false,
      "t": 8024.549291666666,
      "d": 138.39278333333368,
      "v": 116
    },
    {
      "midi": 71,
      "hit": false,
      "t": 8024.549291666667,
      "d": 212.05345833333286,
      "v": 122
    },
    {
      "midi": 67,
      "hit": false,
      "t": 8029.013575000001,
      "d": 189.7320416666662,
      "v": 106
    },
    {
      "midi": 79,
      "hit": false,
      "t": 8274.549158333333,
      "d": 118.30350833333432,
      "v": 126
    },
    {
      "midi": 91,
      "hit": false,
      "t": 8296.870575,
      "d": 118.30350833333432,
      "v": 110
    },
    {
      "midi": 72,
      "hit": false,
      "t": 8520.084741666667,
      "d": 1997.766791666667,
      "v": 80
    },
    {
      "midi": 69,
      "hit": false,
      "t": 8520.084741666667,
      "d": 2026.7846333333327,
      "v": 100
    },
    {
      "midi": 62,
      "hit": false,
      "t": 8526.781166666668,
      "d": 2002.2310749999997,
      "v": 90
    },
    {
      "midi": 45,
      "hit": false,
      "t": 8537.941874999997,
      "d": 747.7674583333337,
      "v": 110
    },
    {
      "midi": 69,
      "hit": false,
      "t": 8542.406158333333,
      "d": 151.78563333333295,
      "v": 122
    },
    {
      "midi": 72,
      "hit": false,
      "t": 8542.406158333333,
      "d": 156.24991666666574,
      "v": 122
    },
    {
      "midi": 74,
      "hit": false,
      "t": 8816.959583333331,
      "d": 149.55349166666747,
      "v": 110
    },
    {
      "midi": 71,
      "hit": false,
      "t": 8816.959583333331,
      "d": 160.71420000000035,
      "v": 116
    },
    {
      "midi": 48,
      "hit": false,
      "t": 9341.512874999997,
      "d": 171.87490833333322,
      "v": 122
    },
    {
      "midi": 69,
      "hit": false,
      "t": 9341.512874999999,
      "d": 116.07136666666702,
      "v": 106
    },
    {
      "midi": 72,
      "hit": false,
      "t": 9341.512874999999,
      "d": 122.76779166666711,
      "v": 122
    },
    {
      "midi": 50,
      "hit": false,
      "t": 9587.04845833333,
      "d": 216.51774166666655,
      "v": 122
    },
    {
      "midi": 74,
      "hit": false,
      "t": 9624.994866666666,
      "d": 162.94634166666583,
      "v": 106
    },
    {
      "midi": 71,
      "hit": false,
      "t": 9624.994866666666,
      "d": 167.41062499999862,
      "v": 106
    },
    {
      "midi": 62,
      "hit": false,
      "t": 9877.226875000002,
      "d": 100.44637499999953,
      "v": 126
    },
    {
      "midi": 50,
      "hit": false,
      "t": 9881.691158333335,
      "d": 111.60708333333423,
      "v": 126
    },
    {
      "midi": 69,
      "hit": false,
      "t": 10133.923166666664,
      "d": 160.71419999999853,
      "v": 100
    },
    {
      "midi": 72,
      "hit": false,
      "t": 10138.387449999997,
      "d": 151.78563333333295,
      "v": 110
    },
    {
      "midi": 74,
      "hit": false,
      "t": 10145.083875000002,
      "d": 145.08920833333286,
      "v": 110
    },
    {
      "midi": 62,
      "hit": false,
      "t": 10145.083875000002,
      "d": 167.41062499999862,
      "v": 110
    },
    {
      "midi": 38,
      "hit": false,
      "t": 10149.54815833333,
      "d": 256.6962916666671,
      "v": 126
    },
    {
      "midi": 74,
      "hit": false,
      "t": 10401.780166666667,
      "d": 138.39278333333277,
      "v": 126
    },
    {
      "midi": 86,
      "hit": false,
      "t": 10406.24445,
      "d": 167.41062500000044,
      "v": 110
    },
    {
      "midi": 62,
      "hit": false,
      "t": 10640.619325,
      "d": 1892.8561333333328,
      "v": 96
    },
    {
      "midi": 71,
      "hit": false,
      "t": 10640.619325,
      "d": 1904.0168416666656,
      "v": 92
    },
    {
      "midi": 67,
      "hit": false,
      "t": 10640.619325,
      "d": 1908.4811249999984,
      "v": 92
    },
    {
      "midi": 43,
      "hit": false,
      "t": 10669.637166666664,
      "d": 629.4639499999994,
      "v": 126
    },
    {
      "midi": 67,
      "hit": false,
      "t": 10703.119291666662,
      "d": 104.91065833333414,
      "v": 92
    },
    {
      "midi": 71,
      "hit": false,
      "t": 10703.119291666662,
      "d": 116.07136666666702,
      "v": 116
    },
    {
      "midi": 74,
      "hit": false,
      "t": 10959.81558333333,
      "d": 133.92849999999999,
      "v": 96
    },
    {
      "midi": 71,
      "hit": false,
      "t": 10964.279866666662,
      "d": 133.92849999999999,
      "v": 106
    },
    {
      "midi": 47,
      "hit": false,
      "t": 11484.368874999996,
      "d": 194.1963250000008,
      "v": 122
    },
    {
      "midi": 71,
      "hit": false,
      "t": 11511.154574999995,
      "d": 111.60708333333423,
      "v": 106
    },
    {
      "midi": 67,
      "hit": false,
      "t": 11511.154574999995,
      "d": 111.60708333333423,
      "v": 92
    },
    {
      "midi": 50,
      "hit": false,
      "t": 11763.386583333331,
      "d": 245.53558333333422,
      "v": 122
    },
    {
      "midi": 74,
      "hit": false,
      "t": 11774.547291666662,
      "d": 138.39278333333277,
      "v": 110
    },
    {
      "midi": 71,
      "hit": false,
      "t": 11774.547291666662,
      "d": 149.55349166666565,
      "v": 106
    },
    {
      "midi": 67,
      "hit": false,
      "t": 12046.868575,
      "d": 133.92849999999817,
      "v": 122
    },
    {
      "midi": 55,
      "hit": false,
      "t": 12058.029283333333,
      "d": 118.3035083333325,
      "v": 126
    },
    {
      "midi": 71,
      "hit": false,
      "t": 12287.939874999995,
      "d": 183.0356166666661,
      "v": 106
    },
    {
      "midi": 38,
      "hit": false,
      "t": 12287.939874999998,
      "d": 301.3391250000004,
      "v": 122
    },
    {
      "midi": 79,
      "hit": false,
      "t": 12287.939874999998,
      "d": 133.92849999999999,
      "v": 106
    },
    {
      "midi": 67,
      "hit": false,
      "t": 12292.404158333327,
      "d": 140.62492500000008,
      "v": 90
    },
    {
      "midi": 67,
      "hit": false,
      "t": 12314.725574999999,
      "d": 133.92849999999999,
      "v": 110
    },
    {
      "midi": 91,
      "hit": false,
      "t": 12571.421866666666,
      "d": 118.3035083333325,
      "v": 122
    },
    {
      "midi": 79,
      "hit": false,
      "t": 12582.582574999999,
      "d": 118.3035083333325,
      "v": 122
    },
    {
      "midi": 70,
      "hit": false,
      "t": 12790.171749999998,
      "d": 1718.749083333334,
      "v": 78
    },
    {
      "midi": 64,
      "hit": false,
      "t": 12794.63603333333,
      "d": 1691.9633833333337,
      "v": 92
    },
    {
      "midi": 67,
      "hit": false,
      "t": 12794.63603333333,
      "d": 1707.5883750000012,
      "v": 90
    },
    {
      "midi": 70,
      "hit": false,
      "t": 12834.814583333327,
      "d": 662.946074999998,
      "v": 116
    },
    {
      "midi": 67,
      "hit": false,
      "t": 12839.27886666666,
      "d": 647.3210833333324,
      "v": 90
    },
    {
      "midi": 36,
      "hit": false,
      "t": 12845.975291666666,
      "d": 874.9995333333318,
      "v": 126
    },
    {
      "midi": 67,
      "hit": false,
      "t": 13654.010574999993,
      "d": 580.3568333333333,
      "v": 86
    },
    {
      "midi": 72,
      "hit": false,
      "t": 13660.706999999993,
      "d": 580.3568333333333,
      "v": 106
    },
    {
      "midi": 40,
      "hit": false,
      "t": 13698.653408333332,
      "d": 754.463883333332,
      "v": 110
    },
    {
      "midi": 67,
      "hit": false,
      "t": 14441.956583333325,
      "d": 305.8034083333314,
      "v": 84
    },
    {
      "midi": 74,
      "hit": false,
      "t": 14446.420866666658,
      "d": 296.8748416666658,
      "v": 84
    },
    {
      "midi": 43,
      "hit": false,
      "t": 14453.117291666664,
      "d": 524.5532916666671,
      "v": 122
    },
    {
      "midi": 66,
      "hit": false,
      "t": 14926.331325,
      "d": 2154.0167083333326,
      "v": 68
    },
    {
      "midi": 74,
      "hit": false,
      "t": 14933.02775,
      "d": 2158.4809916666654,
      "v": 86
    },
    {
      "midi": 69,
      "hit": false,
      "t": 14937.492033333332,
      "d": 2149.552424999998,
      "v": 100
    },
    {
      "midi": 69,
      "hit": false,
      "t": 14959.81344999999,
      "d": 2104.9095916666665,
      "v": 90
    },
    {
      "midi": 74,
      "hit": false,
      "t": 14959.81344999999,
      "d": 2104.9095916666665,
      "v": 78
    },
    {
      "midi": 38,
      "hit": false,
      "t": 14970.97415833333,
      "d": 2160.7131333333346,
      "v": 126
    },
    {
      "midi": 62,
      "hit": false,
      "t": 14999.991999999998,
      "d": 127.2320749999999,
      "v": 122
    },
    {
      "midi": 74,
      "hit": false,
      "t": 15071.420533333332,
      "d": 118.3035083333325,
      "v": 122
    },
    {
      "midi": 61,
      "hit": false,
      "t": 15122.759791666665,
      "d": 100.44637499999772,
      "v": 110
    },
    {
      "midi": 73,
      "hit": false,
      "t": 15194.188324999997,
      "d": 107.1427999999978,
      "v": 106
    },
    {
      "midi": 62,
      "hit": false,
      "t": 15245.527583333329,
      "d": 104.91065833333414,
      "v": 92
    },
    {
      "midi": 74,
      "hit": false,
      "t": 15323.652541666663,
      "d": 138.39278333333277,
      "v": 90
    },
    {
      "midi": 64,
      "hit": false,
      "t": 15361.598949999996,
      "d": 111.60708333333241,
      "v": 110
    },
    {
      "midi": 76,
      "hit": false,
      "t": 15457.581041666663,
      "d": 127.23207499999808,
      "v": 116
    },
    {
      "midi": 66,
      "hit": false,
      "t": 15495.527449999994,
      "d": 111.60708333333423,
      "v": 116
    },
    {
      "midi": 78,
      "hit": false,
      "t": 15591.50954166666,
      "d": 104.91065833333414,
      "v": 126
    },
    {
      "midi": 64,
      "hit": false,
      "t": 15624.991666666661,
      "d": 111.60708333333241,
      "v": 122
    },
    {
      "midi": 76,
      "hit": false,
      "t": 15707.580908333328,
      "d": 129.46421666666538,
      "v": 122
    },
    {
      "midi": 66,
      "hit": false,
      "t": 15758.92016666666,
      "d": 122.76779166666711,
      "v": 116
    },
    {
      "midi": 78,
      "hit": false,
      "t": 15841.509408333326,
      "d": 151.78563333333295,
      "v": 116
    },
    {
      "midi": 67,
      "hit": false,
      "t": 15881.687958333327,
      "d": 127.2320749999999,
      "v": 116
    },
    {
      "midi": 79,
      "hit": false,
      "t": 15964.277199999993,
      "d": 122.76779166666529,
      "v": 106
    },
    {
      "midi": 69,
      "hit": false,
      "t": 16020.08074166666,
      "d": 100.44637499999953,
      "v": 106
    },
    {
      "midi": 81,
      "hit": false,
      "t": 16093.741416666659,
      "d": 122.76779166666711,
      "v": 110
    },
    {
      "midi": 67,
      "hit": false,
      "t": 16138.384249999992,
      "d": 156.24991666666756,
      "v": 116
    },
    {
      "midi": 79,
      "hit": false,
      "t": 16209.812783333326,
      "d": 162.94634166666765,
      "v": 110
    },
    {
      "midi": 69,
      "hit": false,
      "t": 16287.93774166666,
      "d": 140.62492499999826,
      "v": 116
    },
    {
      "midi": 81,
      "hit": false,
      "t": 16350.437708333326,
      "d": 156.24991666666574,
      "v": 96
    },
    {
      "midi": 71,
      "hit": false,
      "t": 16406.241249999992,
      "d": 122.76779166666529,
      "v": 90
    },
    {
      "midi": 83,
      "hit": false,
      "t": 16466.50907499999,
      "d": 129.4642166666672,
      "v": 78
    },
    {
      "midi": 72,
      "hit": false,
      "t": 16533.47332499999,
      "d": 129.4642166666672,
      "v": 76
    },
    {
      "midi": 84,
      "hit": false,
      "t": 16584.812583333325,
      "d": 127.2320749999999,
      "v": 100
    },
    {
      "midi": 71,
      "hit": false,
      "t": 16667.401824999994,
      "d": 162.94634166666583,
      "v": 92
    },
    {
      "midi": 83,
      "hit": false,
      "t": 16700.883949999992,
      "d": 162.94634166666583,
      "v": 92
    },
    {
      "midi": 72,
      "hit": false,
      "t": 16834.812449999994,
      "d": 174.1070499999987,
      "v": 110
    },
    {
      "midi": 84,
      "hit": false,
      "t": 16857.13386666666,
      "d": 140.62492500000008,
      "v": 110
    },
    {
      "midi": 73,
      "hit": false,
      "t": 16975.43737499999,
      "d": 82.58924166666839,
      "v": 86
    },
    {
      "midi": 85,
      "hit": false,
      "t": 16979.901658333325,
      "d": 66.9642500000009,
      "v": 116
    },
    {
      "midi": 74,
      "hit": false,
      "t": 17098.20516666666,
      "d": 127.2320749999999,
      "v": 116
    },
    {
      "midi": 86,
      "hit": false,
      "t": 17109.365874999992,
      "d": 1551.3384583333354,
      "v": 122
    },
    {
      "midi": 74,
      "hit": false,
      "t": 18180.793875,
      "d": 390.62479166666526,
      "v": 96
    },
    {
      "midi": 84,
      "hit": false,
      "t": 18676.329325,
      "d": 408.48192500000005,
      "v": 90
    },
    {
      "midi": 84,
      "hit": false,
      "t": 19241.061166666666,
      "d": 819.1959916666674,
      "v": 110
    },
    {
      "midi": 43,
      "hit": false,
      "t": 19274.543291666665,
      "d": 819.1959916666674,
      "v": 116
    },
    {
      "midi": 43,
      "hit": false,
      "t": 19285.703999999998,
      "d": 301.3391249999986,
      "v": 100
    },
    {
      "midi": 62,
      "hit": false,
      "t": 19569.185991666665,
      "d": 44.64283333333151,
      "v": 90
    },
    {
      "midi": 59,
      "hit": false,
      "t": 19575.882416666664,
      "d": 44.64283333333151,
      "v": 80
    },
    {
      "midi": 67,
      "hit": false,
      "t": 19575.882416666664,
      "d": 55.80354166666439,
      "v": 86
    },
    {
      "midi": 83,
      "hit": false,
      "t": 20033.471458333333,
      "d": 145.08920833333468,
      "v": 122
    },
    {
      "midi": 43,
      "hit": false,
      "t": 20055.792874999996,
      "d": 256.6962916666671,
      "v": 90
    },
    {
      "midi": 47,
      "hit": false,
      "t": 20078.114291666665,
      "d": 234.37487500000134,
      "v": 100
    },
    {
      "midi": 81,
      "hit": false,
      "t": 20160.703533333333,
      "d": 129.4642166666672,
      "v": 86
    },
    {
      "midi": 83,
      "hit": false,
      "t": 20294.632033333335,
      "d": 1111.6065500000004,
      "v": 96
    },
    {
      "midi": 59,
      "hit": false,
      "t": 20316.953449999997,
      "d": 256.6962916666671,
      "v": 86
    },
    {
      "midi": 62,
      "hit": false,
      "t": 20316.953449999997,
      "d": 267.85699999999997,
      "v": 100
    },
    {
      "midi": 67,
      "hit": false,
      "t": 20316.953449999997,
      "d": 296.87484166666763,
      "v": 92
    },
    {
      "midi": 50,
      "hit": false,
      "t": 20323.649875,
      "d": 167.41062500000044,
      "v": 110
    },
    {
      "midi": 84,
      "hit": false,
      "t": 20640.613991666665,
      "d": 78.12495833333378,
      "v": 110
    },
    {
      "midi": 36,
      "hit": false,
      "t": 20640.613991666665,
      "d": 100.44637499999953,
      "v": 78
    },
    {
      "midi": 85,
      "hit": false,
      "t": 20662.93540833333,
      "d": 100.44637499999953,
      "v": 110
    },
    {
      "midi": 37,
      "hit": false,
      "t": 20714.274666666664,
      "d": 55.803541666668025,
      "v": 56
    },
    {
      "midi": 86,
      "hit": false,
      "t": 20725.435374999997,
      "d": 183.03561666666792,
      "v": 90
    },
    {
      "midi": 38,
      "hit": false,
      "t": 20752.221074999998,
      "d": 598.2139666666662,
      "v": 110
    },
    {
      "midi": 57,
      "hit": false,
      "t": 20803.56033333333,
      "d": 104.91065833333414,
      "v": 76
    },
    {
      "midi": 62,
      "hit": false,
      "t": 20803.56033333333,
      "d": 116.07136666666702,
      "v": 90
    },
    {
      "midi": 66,
      "hit": false,
      "t": 20803.56033333333,
      "d": 149.55349166666565,
      "v": 76
    },
    {
      "midi": 38,
      "hit": false,
      "t": 20819.185325,
      "d": 308.0355500000005,
      "v": 106
    },
    {
      "midi": 42,
      "hit": false,
      "t": 21294.6315,
      "d": 78.12495833333378,
      "v": 126
    },
    {
      "midi": 91,
      "hit": false,
      "t": 21321.4172,
      "d": 140.62492500000008,
      "v": 122
    },
    {
      "midi": 62,
      "hit": false,
      "t": 21361.595749999997,
      "d": 484.3747416666665,
      "v": 90
    },
    {
      "midi": 59,
      "hit": false,
      "t": 21361.595749999997,
      "d": 484.3747416666665,
      "v": 80
    },
    {
      "midi": 31,
      "hit": false,
      "t": 21361.595749999997,
      "d": 484.3747416666665,
      "v": 126
    },
    {
      "midi": 67,
      "hit": false,
      "t": 21361.595749999997,
      "d": 495.5354499999994,
      "v": 106
    },
    {
      "midi": 43,
      "hit": false,
      "t": 21361.59575,
      "d": 133.92849999999817,
      "v": 126
    },
    {
      "midi": 93,
      "hit": false,
      "t": 22232.130999999998,
      "d": 66.9642500000009,
      "v": 116
    },
    {
      "midi": 81,
      "hit": false,
      "t": 22236.595283333332,
      "d": 100.44637499999953,
      "v": 106
    },
    {
      "midi": 94,
      "hit": false,
      "t": 22321.416666666664,
      "d": 111.60708333333241,
      "v": 80
    },
    {
      "midi": 82,
      "hit": false,
      "t": 22348.202366666665,
      "d": 178.5713333333333,
      "v": 76
    },
    {
      "midi": 95,
      "hit": false,
      "t": 22482.130866666663,
      "d": 412.94620833333465,
      "v": 106
    },
    {
      "midi": 83,
      "hit": false,
      "t": 22526.773699999998,
      "d": 341.51767499999914,
      "v": 122
    },
    {
      "midi": 81,
      "hit": false,
      "t": 22857.130666666664,
      "d": 249.99986666666518,
      "v": 92
    },
    {
      "midi": 93,
      "hit": false,
      "t": 22857.130666666664,
      "d": 323.66054166666436,
      "v": 122
    },
    {
      "midi": 91,
      "hit": false,
      "t": 23236.594749999997,
      "d": 149.55349166666565,
      "v": 122
    },
    {
      "midi": 79,
      "hit": false,
      "t": 23247.75545833333,
      "d": 194.1963250000008,
      "v": 86
    },
    {
      "midi": 45,
      "hit": false,
      "t": 23270.076875,
      "d": 178.5713333333333,
      "v": 110
    },
    {
      "midi": 33,
      "hit": false,
      "t": 23296.862574999996,
      "d": 185.26775833333159,
      "v": 90
    },
    {
      "midi": 34,
      "hit": false,
      "t": 23386.148241666662,
      "d": 189.73204166666255,
      "v": 72
    },
    {
      "midi": 46,
      "hit": false,
      "t": 23437.4875,
      "d": 104.91065833333414,
      "v": 122
    },
    {
      "midi": 78,
      "hit": false,
      "t": 23520.076741666664,
      "d": 1171.8743749999994,
      "v": 122
    },
    {
      "midi": 90,
      "hit": false,
      "t": 23531.237449999997,
      "d": 1138.3922500000008,
      "v": 116
    },
    {
      "midi": 47,
      "hit": false,
      "t": 23537.933875,
      "d": 529.0175750000017,
      "v": 80
    },
    {
      "midi": 45,
      "hit": false,
      "t": 23542.398158333333,
      "d": 44.64283333333515,
      "v": 78
    },
    {
      "midi": 35,
      "hit": false,
      "t": 23553.55886666666,
      "d": 1535.713466666668,
      "v": 122
    },
    {
      "midi": 63,
      "hit": false,
      "t": 23843.737283333325,
      "d": 55.803541666668025,
      "v": 122
    },
    {
      "midi": 59,
      "hit": false,
      "t": 23843.737283333325,
      "d": 62.499966666666296,
      "v": 92
    },
    {
      "midi": 66,
      "hit": false,
      "t": 23843.737283333325,
      "d": 66.9642500000009,
      "v": 122
    },
    {
      "midi": 49,
      "hit": false,
      "t": 24055.790741666668,
      "d": 390.62479166666526,
      "v": 116
    },
    {
      "midi": 47,
      "hit": false,
      "t": 24341.50487499999,
      "d": 484.3747416666665,
      "v": 92
    },
    {
      "midi": 51,
      "hit": false,
      "t": 24602.66545,
      "d": 491.07116666666843,
      "v": 116
    },
    {
      "midi": 67,
      "hit": false,
      "t": 24613.826158333326,
      "d": 151.78563333333295,
      "v": 110
    },
    {
      "midi": 59,
      "hit": false,
      "t": 24620.522583333324,
      "d": 82.58924166666839,
      "v": 68
    },
    {
      "midi": 63,
      "hit": false,
      "t": 24620.522583333324,
      "d": 133.9285000000018,
      "v": 90
    },
    {
      "midi": 66,
      "hit": false,
      "t": 24736.59394999999,
      "d": 133.9285000000018,
      "v": 62
    },
    {
      "midi": 59,
      "hit": false,
      "t": 24843.736749999993,
      "d": 551.3389916666674,
      "v": 64
    },
    {
      "midi": 63,
      "hit": false,
      "t": 24848.201033333327,
      "d": 520.0890083333325,
      "v": 64
    },
    {
      "midi": 67,
      "hit": false,
      "t": 24859.36174166666,
      "d": 546.8747083333328,
      "v": 74
    },
    {
      "midi": 79,
      "hit": false,
      "t": 24877.218874999995,
      "d": 484.3747416666665,
      "v": 122
    },
    {
      "midi": 91,
      "hit": false,
      "t": 24881.68315833333,
      "d": 486.6068833333302,
      "v": 116
    },
    {
      "midi": 47,
      "hit": false,
      "t": 25100.43304166666,
      "d": 479.9104583333319,
      "v": 106
    },
    {
      "midi": 47,
      "hit": false,
      "t": 25116.058033333335,
      "d": 513.3925833333342,
      "v": 122
    },
    {
      "midi": 78,
      "hit": false,
      "t": 25334.80791666666,
      "d": 194.19632499999716,
      "v": 110
    },
    {
      "midi": 90,
      "hit": false,
      "t": 25350.43290833333,
      "d": 200.89274999999543,
      "v": 116
    },
    {
      "midi": 66,
      "hit": false,
      "t": 25361.59361666666,
      "d": 66.96424999999726,
      "v": 100
    },
    {
      "midi": 40,
      "hit": false,
      "t": 25629.450616666658,
      "d": 948.6602083333346,
      "v": 110
    },
    {
      "midi": 88,
      "hit": false,
      "t": 25629.450616666658,
      "d": 676.338925,
      "v": 126
    },
    {
      "midi": 76,
      "hit": false,
      "t": 25636.147041666656,
      "d": 602.6782500000008,
      "v": 126
    },
    {
      "midi": 52,
      "hit": false,
      "t": 25647.307750000004,
      "d": 551.3389916666674,
      "v": 100
    },
    {
      "midi": 47,
      "hit": false,
      "t": 26194.182458333336,
      "d": 573.6604083333368,
      "v": 116
    },
    {
      "midi": 52,
      "hit": false,
      "t": 26205.34316666666,
      "d": 517.8568666666688,
      "v": 76
    },
    {
      "midi": 59,
      "hit": false,
      "t": 26216.50387499999,
      "d": 44.64283333333515,
      "v": 92
    },
    {
      "midi": 64,
      "hit": false,
      "t": 26216.50387499999,
      "d": 60.26782500000263,
      "v": 106
    },
    {
      "midi": 55,
      "hit": false,
      "t": 26220.968158333326,
      "d": 51.33925833333342,
      "v": 84
    },
    {
      "midi": 43,
      "hit": false,
      "t": 26752.217875000006,
      "d": 513.3925833333342,
      "v": 110
    },
    {
      "midi": 38,
      "hit": false,
      "t": 26763.378583333328,
      "d": 540.1782833333345,
      "v": 106
    },
    {
      "midi": 40,
      "hit": false,
      "t": 27292.39615833334,
      "d": 546.8747083333328,
      "v": 126
    },
    {
      "midi": 59,
      "hit": false,
      "t": 27299.092583333328,
      "d": 33.48212500000227,
      "v": 86
    },
    {
      "midi": 55,
      "hit": false,
      "t": 27303.556866666662,
      "d": 40.17855000000054,
      "v": 80
    },
    {
      "midi": 64,
      "hit": false,
      "t": 27303.556866666662,
      "d": 51.33925833333342,
      "v": 96
    },
    {
      "midi": 50,
      "hit": false,
      "t": 27314.717574999995,
      "d": 419.6426333333329,
      "v": 78
    },
    {
      "midi": 81,
      "hit": false,
      "t": 27582.574575,
      "d": 95.98209166666493,
      "v": 122
    },
    {
      "midi": 83,
      "hit": false,
      "t": 27700.87808333333,
      "d": 178.5713333333333,
      "v": 68
    },
    {
      "midi": 84,
      "hit": false,
      "t": 27839.270866666662,
      "d": 624.9996666666666,
      "v": 110
    },
    {
      "midi": 45,
      "hit": false,
      "t": 27839.270866666662,
      "d": 2104.909591666663,
      "v": 122
    },
    {
      "midi": 45,
      "hit": false,
      "t": 27845.96729166667,
      "d": 1689.7312416666682,
      "v": 106
    },
    {
      "midi": 64,
      "hit": false,
      "t": 28370.520583333328,
      "d": 37.94640833333324,
      "v": 84
    },
    {
      "midi": 60,
      "hit": false,
      "t": 28374.984866666662,
      "d": 40.1785499999969,
      "v": 72
    },
    {
      "midi": 69,
      "hit": false,
      "t": 28374.984866666662,
      "d": 44.64283333333151,
      "v": 84
    },
    {
      "midi": 76,
      "hit": false,
      "t": 28609.359741666663,
      "d": 133.92849999999817,
      "v": 92
    },
    {
      "midi": 76,
      "hit": false,
      "t": 28877.216741666663,
      "d": 1089.2851333333347,
      "v": 100
    },
    {
      "midi": 57,
      "hit": false,
      "t": 28921.859574999995,
      "d": 1022.3208833333301,
      "v": 70
    },
    {
      "midi": 69,
      "hit": false,
      "t": 28933.020283333328,
      "d": 44.64283333333515,
      "v": 90
    },
    {
      "midi": 64,
      "hit": false,
      "t": 28933.020283333328,
      "d": 51.33925833333342,
      "v": 78
    },
    {
      "midi": 72,
      "hit": false,
      "t": 28933.020283333328,
      "d": 66.9642500000009,
      "v": 90
    },
    {
      "midi": 64,
      "hit": false,
      "t": 29457.573574999995,
      "d": 542.4104249999946,
      "v": 92
    },
    {
      "midi": 69,
      "hit": false,
      "t": 29464.269999999993,
      "d": 517.8568666666652,
      "v": 100
    },
    {
      "midi": 45,
      "hit": false,
      "t": 29691.948450000007,
      "d": 212.05345833333195,
      "v": 122
    },
    {
      "midi": 43,
      "hit": false,
      "t": 29959.805450000007,
      "d": 1781.2490499999985,
      "v": 122
    },
    {
      "midi": 43,
      "hit": false,
      "t": 29988.823291666657,
      "d": 1529.0170416666588,
      "v": 116
    },
    {
      "midi": 55,
      "hit": false,
      "t": 30517.840866666655,
      "d": 1055.8030083333251,
      "v": 84
    },
    {
      "midi": 64,
      "hit": false,
      "t": 30524.537291666653,
      "d": 37.94640833333324,
      "v": 92
    },
    {
      "midi": 60,
      "hit": false,
      "t": 30524.537291666653,
      "d": 44.64283333333151,
      "v": 80
    },
    {
      "midi": 69,
      "hit": false,
      "t": 30529.001574999987,
      "d": 40.1785499999969,
      "v": 84
    },
    {
      "midi": 64,
      "hit": false,
      "t": 31042.394158333318,
      "d": 51.33925833332978,
      "v": 86
    },
    {
      "midi": 72,
      "hit": false,
      "t": 31042.394158333318,
      "d": 66.96424999999726,
      "v": 92
    },
    {
      "midi": 69,
      "hit": false,
      "t": 31049.090583333316,
      "d": 37.94640833333324,
      "v": 100
    },
    {
      "midi": 81,
      "hit": false,
      "t": 31064.715575,
      "d": 229.91059166666673,
      "v": 106
    },
    {
      "midi": 83,
      "hit": false,
      "t": 31455.340366666664,
      "d": 285.71413333333476,
      "v": 110
    },
    {
      "midi": 43,
      "hit": false,
      "t": 31566.94744999998,
      "d": 223.21416666666482,
      "v": 84
    },
    {
      "midi": 64,
      "hit": false,
      "t": 31573.64387499998,
      "d": 546.8747083333292,
      "v": 100
    },
    {
      "midi": 69,
      "hit": false,
      "t": 31573.64387499998,
      "d": 551.3389916666638,
      "v": 100
    },
    {
      "midi": 60,
      "hit": false,
      "t": 31578.108158333314,
      "d": 535.7139999999963,
      "v": 84
    },
    {
      "midi": 81,
      "hit": false,
      "t": 31852.66158333333,
      "d": 100.44637499999953,
      "v": 116
    },
    {
      "midi": 43,
      "hit": false,
      "t": 31863.82229166667,
      "d": 212.05345833333195,
      "v": 106
    },
    {
      "midi": 83,
      "hit": false,
      "t": 31975.429374999996,
      "d": 149.55349166666565,
      "v": 84
    },
    {
      "midi": 38,
      "hit": false,
      "t": 32102.661449999978,
      "d": 747.7674583333355,
      "v": 122
    },
    {
      "midi": 84,
      "hit": false,
      "t": 32109.357874999994,
      "d": 636.1603749999995,
      "v": 122
    },
    {
      "midi": 42,
      "hit": false,
      "t": 32142.840000000004,
      "d": 1718.7490833333359,
      "v": 116
    },
    {
      "midi": 40,
      "hit": false,
      "t": 32917.39315833331,
      "d": 178.5713333333333,
      "v": 78
    },
    {
      "midi": 78,
      "hit": false,
      "t": 32917.393158333325,
      "d": 140.62492499999644,
      "v": 100
    },
    {
      "midi": 67,
      "hit": false,
      "t": 32939.714574999976,
      "d": 100.44637499999953,
      "v": 86
    },
    {
      "midi": 41,
      "hit": false,
      "t": 33051.32165833331,
      "d": 167.4106249999968,
      "v": 78
    },
    {
      "midi": 41,
      "hit": false,
      "t": 33058.018083333336,
      "d": 60.26782500000263,
      "v": 62
    },
    {
      "midi": 68,
      "hit": false,
      "t": 33069.17879166664,
      "d": 127.2320749999999,
      "v": 84
    },
    {
      "midi": 42,
      "hit": false,
      "t": 33196.41086666664,
      "d": 122.76779166667257,
      "v": 100
    },
    {
      "midi": 78,
      "hit": false,
      "t": 33203.10729166665,
      "d": 1026.7851666666684,
      "v": 126
    },
    {
      "midi": 69,
      "hit": false,
      "t": 33229.892991666646,
      "d": 89.2856666666703,
      "v": 92
    },
    {
      "midi": 41,
      "hit": false,
      "t": 33497.74999166665,
      "d": 446.4283333333369,
      "v": 92
    },
    {
      "midi": 68,
      "hit": false,
      "t": 33515.60712499998,
      "d": 390.6247916666689,
      "v": 96
    },
    {
      "midi": 40,
      "hit": false,
      "t": 33999.981866666654,
      "d": 229.91059166666673,
      "v": 76
    },
    {
      "midi": 67,
      "hit": false,
      "t": 34006.678291666656,
      "d": 194.19632499999716,
      "v": 86
    },
    {
      "midi": 42,
      "hit": false,
      "t": 34006.67829166667,
      "d": 183.03561666666792,
      "v": 100
    },
    {
      "midi": 38,
      "hit": false,
      "t": 34263.37458333332,
      "d": 569.1961250000095,
      "v": 90
    },
    {
      "midi": 66,
      "hit": false,
      "t": 34267.83886666666,
      "d": 62.499966666669934,
      "v": 122
    },
    {
      "midi": 38,
      "hit": false,
      "t": 34296.85670833334,
      "d": 1633.9277000000002,
      "v": 122
    },
    {
      "midi": 60,
      "hit": false,
      "t": 34535.69586666666,
      "d": 51.33925833333342,
      "v": 122
    },
    {
      "midi": 61,
      "hit": false,
      "t": 34653.99937499999,
      "d": 60.26782500000263,
      "v": 116
    },
    {
      "midi": 62,
      "hit": false,
      "t": 34792.39215833333,
      "d": 100.44637499999953,
      "v": 106
    },
    {
      "midi": 42,
      "hit": false,
      "t": 34799.08858333333,
      "d": 457.58904166667344,
      "v": 80
    },
    {
      "midi": 74,
      "hit": false,
      "t": 35060.249158333325,
      "d": 122.76779166666529,
      "v": 110
    },
    {
      "midi": 45,
      "hit": false,
      "t": 35227.659783333336,
      "d": 133.92849999999453,
      "v": 72
    },
    {
      "midi": 66,
      "hit": false,
      "t": 35256.677625000004,
      "d": 580.3568333333242,
      "v": 50
    },
    {
      "midi": 86,
      "hit": false,
      "t": 35301.32045833332,
      "d": 133.9285000000018,
      "v": 100
    },
    {
      "midi": 69,
      "hit": false,
      "t": 35305.78474166667,
      "d": 569.1961249999949,
      "v": 92
    },
    {
      "midi": 50,
      "hit": false,
      "t": 35323.641875,
      "d": 167.4106249999968,
      "v": 62
    },
    {
      "midi": 52,
      "hit": false,
      "t": 35328.106158333336,
      "d": 62.49996666666266,
      "v": 60
    },
    {
      "midi": 74,
      "hit": false,
      "t": 35345.96329166667,
      "d": 529.017574999998,
      "v": 92
    },
    {
      "midi": 74,
      "hit": false,
      "t": 35580.338166666654,
      "d": 122.76779166666529,
      "v": 116
    },
    {
      "midi": 62,
      "hit": false,
      "t": 35830.33803333332,
      "d": 73.66067499999917,
      "v": 126
    },
    {
      "midi": 38,
      "hit": false,
      "t": 35863.82015833333,
      "d": 111.60708333333605,
      "v": 116
    },
    {
      "midi": 50,
      "hit": false,
      "t": 36104.89145833332,
      "d": 78.12495833333378,
      "v": 126
    },
    {
      "midi": 77,
      "hit": false,
      "t": 36131.67715833332,
      "d": 84.82138333333569,
      "v": 122
    },
    {
      "midi": 81,
      "hit": false,
      "t": 36138.37358333332,
      "d": 78.12495833333378,
      "v": 122
    },
    {
      "midi": 82,
      "hit": false,
      "t": 36249.980666666655,
      "d": 93.74994999999763,
      "v": 100
    },
    {
      "midi": 79,
      "hit": false,
      "t": 36261.141375,
      "d": 127.2320749999999,
      "v": 122
    },
    {
      "midi": 78,
      "hit": false,
      "t": 36265.60565833332,
      "d": 100.44637499999953,
      "v": 122
    },
    {
      "midi": 81,
      "hit": false,
      "t": 36354.891325,
      "d": 107.14280000000144,
      "v": 122
    },
    {
      "midi": 83,
      "hit": false,
      "t": 36399.53415833332,
      "d": 145.08920833333104,
      "v": 110
    },
    {
      "midi": 43,
      "hit": false,
      "t": 36399.53415833333,
      "d": 196.42846666666446,
      "v": 86
    },
    {
      "midi": 79,
      "hit": false,
      "t": 36417.39129166665,
      "d": 138.3927833333364,
      "v": 110
    },
    {
      "midi": 83,
      "hit": false,
      "t": 36433.01628333333,
      "d": 1825.8918833333373,
      "v": 126
    },
    {
      "midi": 43,
      "hit": false,
      "t": 36439.71270833334,
      "d": 714.2853333333333,
      "v": 126
    },
    {
      "midi": 86,
      "hit": false,
      "t": 36662.92687499999,
      "d": 122.76779166667257,
      "v": 122
    },
    {
      "midi": 83,
      "hit": false,
      "t": 36674.08758333333,
      "d": 100.44637499999953,
      "v": 126
    },
    {
      "midi": 67,
      "hit": false,
      "t": 36674.08758333333,
      "d": 37.946408333336876,
      "v": 86
    },
    {
      "midi": 62,
      "hit": false,
      "t": 36674.08758333333,
      "d": 49.10711666667339,
      "v": 76
    },
    {
      "midi": 71,
      "hit": false,
      "t": 36674.08758333333,
      "d": 55.8035416666753,
      "v": 100
    },
    {
      "midi": 83,
      "hit": false,
      "t": 37191.944449999995,
      "d": 78.12495833333378,
      "v": 122
    },
    {
      "midi": 47,
      "hit": false,
      "t": 37191.94445000001,
      "d": 162.94634166666947,
      "v": 122
    },
    {
      "midi": 79,
      "hit": false,
      "t": 37198.640875,
      "d": 111.60708333332877,
      "v": 116
    },
    {
      "midi": 55,
      "hit": false,
      "t": 37243.283708333336,
      "d": 328.12482499999896,
      "v": 72
    },
    {
      "midi": 50,
      "hit": false,
      "t": 37437.48003333335,
      "d": 296.874841666664,
      "v": 122
    },
    {
      "midi": 86,
      "hit": false,
      "t": 37448.64074166666,
      "d": 122.76779166666529,
      "v": 122
    },
    {
      "midi": 83,
      "hit": false,
      "t": 37470.96215833333,
      "d": 122.76779166666529,
      "v": 126
    },
    {
      "midi": 67,
      "hit": false,
      "t": 37488.81929166667,
      "d": 1031.2494500000175,
      "v": 92
    },
    {
      "midi": 71,
      "hit": false,
      "t": 37488.81929166667,
      "d": 1053.5708666666833,
      "v": 100
    },
    {
      "midi": 62,
      "hit": false,
      "t": 37493.283575,
      "d": 1026.785166666683,
      "v": 84
    },
    {
      "midi": 83,
      "hit": false,
      "t": 37968.72974999999,
      "d": 145.08920833333104,
      "v": 122
    },
    {
      "midi": 79,
      "hit": false,
      "t": 37984.354741666655,
      "d": 122.76779166666529,
      "v": 122
    },
    {
      "midi": 43,
      "hit": false,
      "t": 37991.05116666667,
      "d": 60.26782500000991,
      "v": 116
    },
    {
      "midi": 46,
      "hit": false,
      "t": 38002.21187500001,
      "d": 11.160708333336515,
      "v": 64
    },
    {
      "midi": 38,
      "hit": false,
      "t": 38006.67615833334,
      "d": 357.1426666666666,
      "v": 122
    },
    {
      "midi": 86,
      "hit": false,
      "t": 38229.890324999986,
      "d": 151.78563333333295,
      "v": 110
    },
    {
      "midi": 83,
      "hit": false,
      "t": 38241.05103333332,
      "d": 100.44637499999953,
      "v": 116
    },
    {
      "midi": 81,
      "hit": false,
      "t": 38258.90816666667,
      "d": 138.3927833333364,
      "v": 106
    },
    {
      "midi": 83,
      "hit": false,
      "t": 38370.515250000004,
      "d": 160.71420000000217,
      "v": 110
    },
    {
      "midi": 84,
      "hit": false,
      "t": 38504.443750000006,
      "d": 1388.3921166666696,
      "v": 116
    },
    {
      "midi": 84,
      "hit": false,
      "t": 38515.60445833332,
      "d": 178.5713333333406,
      "v": 122
    },
    {
      "midi": 81,
      "hit": false,
      "t": 38526.76516666666,
      "d": 104.91065833333414,
      "v": 100
    },
    {
      "midi": 42,
      "hit": false,
      "t": 38542.39015833334,
      "d": 669.6425000000017,
      "v": 116
    },
    {
      "midi": 38,
      "hit": false,
      "t": 38549.08658333335,
      "d": 696.4282000000094,
      "v": 116
    },
    {
      "midi": 86,
      "hit": false,
      "t": 38799.086449999995,
      "d": 118.30350833333796,
      "v": 126
    },
    {
      "midi": 83,
      "hit": false,
      "t": 38805.782875,
      "d": 111.60708333333605,
      "v": 122
    },
    {
      "midi": 66,
      "hit": false,
      "t": 39089.26486666669,
      "d": 33.48212500000227,
      "v": 106
    },
    {
      "midi": 62,
      "hit": false,
      "t": 39089.26486666669,
      "d": 44.642833333338785,
      "v": 92
    },
    {
      "midi": 69,
      "hit": false,
      "t": 39089.26486666669,
      "d": 51.339258333340695,
      "v": 122
    },
    {
      "midi": 50,
      "hit": false,
      "t": 39095.96129166669,
      "d": 479.9104583333392,
      "v": 86
    },
    {
      "midi": 45,
      "hit": false,
      "t": 39341.49687500001,
      "d": 156.24991666666756,
      "v": 122
    },
    {
      "midi": 84,
      "hit": false,
      "t": 39345.96115833333,
      "d": 118.30350833333068,
      "v": 122
    },
    {
      "midi": 81,
      "hit": false,
      "t": 39368.282575,
      "d": 107.14280000000144,
      "v": 122
    },
    {
      "midi": 45,
      "hit": false,
      "t": 39598.19316666669,
      "d": 591.517541666668,
      "v": 80
    },
    {
      "midi": 86,
      "hit": false,
      "t": 39602.65745,
      "d": 167.4106249999968,
      "v": 110
    },
    {
      "midi": 50,
      "hit": false,
      "t": 39602.65745000001,
      "d": 267.8570000000036,
      "v": 110
    },
    {
      "midi": 76,
      "hit": false,
      "t": 39609.35387500003,
      "d": 71.42853333333187,
      "v": 110
    },
    {
      "midi": 66,
      "hit": false,
      "t": 39613.818158333364,
      "d": 51.33925833333342,
      "v": 92
    },
    {
      "midi": 83,
      "hit": false,
      "t": 39620.51458333333,
      "d": 156.24991666666756,
      "v": 122
    },
    {
      "midi": 88,
      "hit": false,
      "t": 39892.835866666675,
      "d": 591.517541666668,
      "v": 96
    },
    {
      "midi": 84,
      "hit": false,
      "t": 40127.21074166666,
      "d": 107.14280000000144,
      "v": 126
    },
    {
      "midi": 81,
      "hit": false,
      "t": 40133.907166666664,
      "d": 100.44637499999953,
      "v": 126
    },
    {
      "midi": 38,
      "hit": false,
      "t": 40145.06787500003,
      "d": 111.60708333332877,
      "v": 110
    },
    {
      "midi": 38,
      "hit": false,
      "t": 40149.53215833335,
      "d": 290.17841666666936,
      "v": 122
    },
    {
      "midi": 86,
      "hit": false,
      "t": 40401.76416666666,
      "d": 66.96425000000454,
      "v": 100
    },
    {
      "midi": 66,
      "hit": false,
      "t": 40401.76416666669,
      "d": 60.26782500000263,
      "v": 84
    },
    {
      "midi": 83,
      "hit": false,
      "t": 40406.228449999995,
      "d": 95.9820916666722,
      "v": 122
    },
    {
      "midi": 74,
      "hit": false,
      "t": 40406.228450000024,
      "d": 89.2856666666703,
      "v": 110
    },
    {
      "midi": 86,
      "hit": false,
      "t": 40424.08558333334,
      "d": 133.92850000000908,
      "v": 122
    },
    {
      "midi": 84,
      "hit": false,
      "t": 40546.85337500001,
      "d": 127.2320749999999,
      "v": 90
    },
    {
      "midi": 83,
      "hit": false,
      "t": 40662.92474166667,
      "d": 89.2856666666703,
      "v": 110
    },
    {
      "midi": 79,
      "hit": false,
      "t": 40674.085450000006,
      "d": 107.14280000000144,
      "v": 122
    },
    {
      "midi": 83,
      "hit": false,
      "t": 40674.08545000001,
      "d": 2154.0167083333363,
      "v": 96
    },
    {
      "midi": 43,
      "hit": false,
      "t": 40696.40686666669,
      "d": 241.07130000000325,
      "v": 80
    },
    {
      "midi": 43,
      "hit": false,
      "t": 40703.10329166669,
      "d": 613.8389583333337,
      "v": 116
    },
    {
      "midi": 86,
      "hit": false,
      "t": 40926.31745833334,
      "d": 66.96425000000454,
      "v": 106
    },
    {
      "midi": 83,
      "hit": false,
      "t": 40937.478166666675,
      "d": 100.44637499999953,
      "v": 126
    },
    {
      "midi": 71,
      "hit": false,
      "t": 40953.10315833336,
      "d": 55.8035416666753,
      "v": 100
    },
    {
      "midi": 67,
      "hit": false,
      "t": 40959.79958333336,
      "d": 33.48212500000227,
      "v": 86
    },
    {
      "midi": 62,
      "hit": false,
      "t": 40964.2638666667,
      "d": 40.17855000000418,
      "v": 66
    },
    {
      "midi": 83,
      "hit": false,
      "t": 41455.335033333344,
      "d": 107.14279999999417,
      "v": 110
    },
    {
      "midi": 47,
      "hit": false,
      "t": 41462.03145833335,
      "d": 234.37487500000134,
      "v": 110
    },
    {
      "midi": 79,
      "hit": false,
      "t": 41495.51358333334,
      "d": 111.60708333332877,
      "v": 110
    },
    {
      "midi": 43,
      "hit": false,
      "t": 41495.51358333337,
      "d": 662.9460749999998,
      "v": 84
    },
    {
      "midi": 83,
      "hit": false,
      "t": 41741.04916666667,
      "d": 104.91065833333414,
      "v": 122
    },
    {
      "midi": 86,
      "hit": false,
      "t": 41752.20987500001,
      "d": 71.42853333333187,
      "v": 110
    },
    {
      "midi": 50,
      "hit": false,
      "t": 41752.20987500002,
      "d": 249.99986666666518,
      "v": 110
    },
    {
      "midi": 71,
      "hit": false,
      "t": 41778.99557500004,
      "d": 558.0354166666657,
      "v": 116
    },
    {
      "midi": 62,
      "hit": false,
      "t": 41785.69200000004,
      "d": 529.017574999998,
      "v": 92
    },
    {
      "midi": 67,
      "hit": false,
      "t": 41785.69200000004,
      "d": 535.7139999999999,
      "v": 96
    },
    {
      "midi": 79,
      "hit": false,
      "t": 42265.60245833334,
      "d": 116.07136666667066,
      "v": 122
    },
    {
      "midi": 83,
      "hit": false,
      "t": 42276.76316666668,
      "d": 89.2856666666703,
      "v": 106
    },
    {
      "midi": 38,
      "hit": false,
      "t": 42287.92387500002,
      "d": 312.4998333333351,
      "v": 116
    },
    {
      "midi": 43,
      "hit": false,
      "t": 42310.2452916667,
      "d": 44.64283333333151,
      "v": 76
    },
    {
      "midi": 83,
      "hit": false,
      "t": 42544.62016666668,
      "d": 78.12495833333378,
      "v": 126
    },
    {
      "midi": 86,
      "hit": false,
      "t": 42566.94158333335,
      "d": 71.42853333333187,
      "v": 110
    },
    {
      "midi": 84,
      "hit": false,
      "t": 42816.94145000001,
      "d": 754.4638833333374,
      "v": 122
    },
    {
      "midi": 36,
      "hit": false,
      "t": 42845.95929166669,
      "d": 524.5532916666707,
      "v": 126
    },
    {
      "midi": 36,
      "hit": false,
      "t": 42850.42357500004,
      "d": 776.7853000000032,
      "v": 92
    },
    {
      "midi": 67,
      "hit": false,
      "t": 42857.12000000004,
      "d": 569.1961250000022,
      "v": 110
    },
    {
      "midi": 70,
      "hit": false,
      "t": 42857.12000000004,
      "d": 569.1961250000022,
      "v": 110
    },
    {
      "midi": 64,
      "hit": false,
      "t": 42857.12000000004,
      "d": 573.6604083333368,
      "v": 92
    },
    {
      "midi": 38,
      "hit": false,
      "t": 42861.58428333337,
      "d": 84.82138333333569,
      "v": 86
    },
    {
      "midi": 74,
      "hit": false,
      "t": 42861.58428333337,
      "d": 569.1961250000022,
      "v": 92
    },
    {
      "midi": 40,
      "hit": false,
      "t": 43337.03045833336,
      "d": 535.7139999999999,
      "v": 126
    },
    {
      "midi": 86,
      "hit": false,
      "t": 43582.56604166669,
      "d": 870.5352500000008,
      "v": 110
    },
    {
      "midi": 70,
      "hit": false,
      "t": 43631.673158333375,
      "d": 162.94634166666947,
      "v": 106
    },
    {
      "midi": 64,
      "hit": false,
      "t": 43631.673158333375,
      "d": 167.41062500000407,
      "v": 96
    },
    {
      "midi": 67,
      "hit": false,
      "t": 43638.36958333338,
      "d": 149.55349166666565,
      "v": 110
    },
    {
      "midi": 40,
      "hit": false,
      "t": 43638.36958333338,
      "d": 171.87490833333868,
      "v": 106
    },
    {
      "midi": 43,
      "hit": false,
      "t": 43888.36945000002,
      "d": 419.64263333333656,
      "v": 122
    },
    {
      "midi": 43,
      "hit": false,
      "t": 44185.24429166671,
      "d": 506.69615833333955,
      "v": 116
    },
    {
      "midi": 84,
      "hit": false,
      "t": 44374.976333333354,
      "d": 591.517541666668,
      "v": 106
    },
    {
      "midi": 48,
      "hit": false,
      "t": 44430.77987500002,
      "d": 316.9641166666697,
      "v": 126
    },
    {
      "midi": 70,
      "hit": false,
      "t": 44441.94058333338,
      "d": 272.3212833333382,
      "v": 106
    },
    {
      "midi": 67,
      "hit": false,
      "t": 44453.10129166672,
      "d": 256.6962916666671,
      "v": 100
    },
    {
      "midi": 64,
      "hit": false,
      "t": 44453.10129166672,
      "d": 272.3212833333382,
      "v": 92
    },
    {
      "midi": 38,
      "hit": false,
      "t": 44948.63674166669,
      "d": 2120.5345833333267,
      "v": 126
    },
    {
      "midi": 86,
      "hit": false,
      "t": 44966.49387500002,
      "d": 1678.570533333339,
      "v": 116
    },
    {
      "midi": 66,
      "hit": false,
      "t": 44999.97600000005,
      "d": 283.48199166666745,
      "v": 122
    },
    {
      "midi": 62,
      "hit": false,
      "t": 44999.97600000005,
      "d": 294.64270000000397,
      "v": 106
    },
    {
      "midi": 38,
      "hit": false,
      "t": 44999.97600000005,
      "d": 305.8034083333405,
      "v": 106
    },
    {
      "midi": 78,
      "hit": false,
      "t": 45015.60099166665,
      "d": 100.44637499999953,
      "v": 126
    },
    {
      "midi": 62,
      "hit": false,
      "t": 45022.29741666668,
      "d": 145.08920833333832,
      "v": 116
    },
    {
      "midi": 77,
      "hit": false,
      "t": 45133.90449999998,
      "d": 122.76779166666529,
      "v": 100
    },
    {
      "midi": 61,
      "hit": false,
      "t": 45156.225916666684,
      "d": 111.60708333333605,
      "v": 100
    },
    {
      "midi": 78,
      "hit": false,
      "t": 45256.67229166665,
      "d": 133.9285000000018,
      "v": 110
    },
    {
      "midi": 62,
      "hit": false,
      "t": 45290.154416666686,
      "d": 122.76779166666529,
      "v": 90
    },
    {
      "midi": 79,
      "hit": false,
      "t": 45401.761499999986,
      "d": 116.07136666666338,
      "v": 78
    },
    {
      "midi": 64,
      "hit": false,
      "t": 45412.92220833335,
      "d": 78.12495833333378,
      "v": 110
    },
    {
      "midi": 81,
      "hit": false,
      "t": 45517.83286666665,
      "d": 122.76779166666529,
      "v": 122
    },
    {
      "midi": 66,
      "hit": false,
      "t": 45517.832866666686,
      "d": 133.9285000000018,
      "v": 116
    },
    {
      "midi": 79,
      "hit": false,
      "t": 45651.76136666665,
      "d": 133.9285000000018,
      "v": 90
    },
    {
      "midi": 64,
      "hit": false,
      "t": 45669.61850000002,
      "d": 93.74994999999763,
      "v": 122
    },
    {
      "midi": 81,
      "hit": false,
      "t": 45763.36844999999,
      "d": 100.44637499999953,
      "v": 110
    },
    {
      "midi": 67,
      "hit": false,
      "t": 45774.5291583334,
      "d": 720.9817583333352,
      "v": 126
    },
    {
      "midi": 40,
      "hit": false,
      "t": 45774.5291583334,
      "d": 736.6067500000063,
      "v": 126
    },
    {
      "midi": 62,
      "hit": false,
      "t": 45781.2255833334,
      "d": 618.3032416666683,
      "v": 106
    },
    {
      "midi": 64,
      "hit": false,
      "t": 45781.2255833334,
      "d": 718.7496166666679,
      "v": 126
    },
    {
      "midi": 66,
      "hit": false,
      "t": 45785.68986666668,
      "d": 133.9285000000018,
      "v": 110
    },
    {
      "midi": 83,
      "hit": false,
      "t": 45881.67195833332,
      "d": 167.41062500000407,
      "v": 106
    },
    {
      "midi": 67,
      "hit": false,
      "t": 45915.15408333335,
      "d": 127.2320749999999,
      "v": 78
    },
    {
      "midi": 84,
      "hit": false,
      "t": 46015.60045833332,
      "d": 127.2320749999999,
      "v": 122
    },
    {
      "midi": 69,
      "hit": false,
      "t": 46020.06474166668,
      "d": 129.4642166666672,
      "v": 92
    },
    {
      "midi": 83,
      "hit": false,
      "t": 46160.68966666665,
      "d": 149.55349166666565,
      "v": 122
    },
    {
      "midi": 67,
      "hit": false,
      "t": 46165.153950000014,
      "d": 145.08920833333104,
      "v": 100
    },
    {
      "midi": 84,
      "hit": false,
      "t": 46287.92174166665,
      "d": 122.76779166667257,
      "v": 110
    },
    {
      "midi": 69,
      "hit": false,
      "t": 46294.61816666668,
      "d": 205.3570333333264,
      "v": 96
    },
    {
      "midi": 86,
      "hit": false,
      "t": 46399.52882499999,
      "d": 118.30350833333796,
      "v": 92
    },
    {
      "midi": 71,
      "hit": false,
      "t": 46406.22525000001,
      "d": 234.37487499999406,
      "v": 74
    },
    {
      "midi": 72,
      "hit": false,
      "t": 46517.83233333334,
      "d": 149.55349166666565,
      "v": 92
    },
    {
      "midi": 88,
      "hit": false,
      "t": 46522.29661666666,
      "d": 129.4642166666672,
      "v": 110
    },
    {
      "midi": 42,
      "hit": false,
      "t": 46528.993041666734,
      "d": 178.5713333333333,
      "v": 100
    },
    {
      "midi": 66,
      "hit": false,
      "t": 46544.6180333334,
      "d": 151.78563333333295,
      "v": 122
    },
    {
      "midi": 62,
      "hit": false,
      "t": 46544.6180333334,
      "d": 162.94634166666947,
      "v": 96
    },
    {
      "midi": 69,
      "hit": false,
      "t": 46544.6180333334,
      "d": 174.10705000000598,
      "v": 116
    },
    {
      "midi": 86,
      "hit": false,
      "t": 46651.76083333333,
      "d": 127.2320749999999,
      "v": 106
    },
    {
      "midi": 71,
      "hit": false,
      "t": 46662.92154166667,
      "d": 145.08920833333832,
      "v": 110
    },
    {
      "midi": 88,
      "hit": false,
      "t": 46774.52862499999,
      "d": 127.2320749999999,
      "v": 106
    },
    {
      "midi": 72,
      "hit": false,
      "t": 46796.85004166667,
      "d": 149.55349166667293,
      "v": 90
    },
    {
      "midi": 89,
      "hit": false,
      "t": 46908.45712499999,
      "d": 66.96424999999726,
      "v": 74
    },
    {
      "midi": 73,
      "hit": false,
      "t": 46912.92140833334,
      "d": 84.82138333333569,
      "v": 84
    },
    {
      "midi": 74,
      "hit": false,
      "t": 47042.38562500001,
      "d": 618.3032416666683,
      "v": 76
    },
    {
      "midi": 90,
      "hit": false,
      "t": 47046.84990833332,
      "d": 145.08920833333104,
      "v": 122
    },
    {
      "midi": 74,
      "hit": false,
      "t": 47633.903166666736,
      "d": 569.1961250000022,
      "v": 116
    },
    {
      "midi": 69,
      "hit": false,
      "t": 47633.903166666736,
      "d": 569.1961250000022,
      "v": 126
    },
    {
      "midi": 66,
      "hit": false,
      "t": 47633.903166666736,
      "d": 573.6604083333368,
      "v": 106
    },
    {
      "midi": 38,
      "hit": false,
      "t": 47633.903166666736,
      "d": 573.6604083333368,
      "v": 122
    },
    {
      "midi": 40,
      "hit": false,
      "t": 48180.77787500007,
      "d": 546.8747083333365,
      "v": 116
    },
    {
      "midi": 42,
      "hit": false,
      "t": 48727.65258333341,
      "d": 100.44637499999953,
      "v": 110
    },
    {
      "midi": 66,
      "hit": false,
      "t": 48732.11686666674,
      "d": 55.803541666668025,
      "v": 84
    },
    {
      "midi": 69,
      "hit": false,
      "t": 48732.11686666674,
      "d": 62.499966666669934,
      "v": 116
    },
    {
      "midi": 74,
      "hit": false,
      "t": 48732.11686666674,
      "d": 78.12495833333378,
      "v": 122
    },
    {
      "midi": 71,
      "hit": false,
      "t": 49033.45599166668,
      "d": 100.44637499999953,
      "v": 36
    },
    {
      "midi": 72,
      "hit": false,
      "t": 49111.58095000001,
      "d": 107.14280000000144,
      "v": 116
    },
    {
      "midi": 74,
      "hit": false,
      "t": 49223.18803333335,
      "d": 1316.9635833333305,
      "v": 122
    },
    {
      "midi": 55,
      "hit": false,
      "t": 49285.68800000002,
      "d": 1845.981158333343,
      "v": 126
    },
    {
      "midi": 43,
      "hit": false,
      "t": 49285.688000000075,
      "d": 328.12482500000624,
      "v": 126
    },
    {
      "midi": 62,
      "hit": false,
      "t": 49564.70570833341,
      "d": 60.26782500000991,
      "v": 90
    },
    {
      "midi": 59,
      "hit": false,
      "t": 49569.16999166674,
      "d": 62.49996666667721,
      "v": 84
    },
    {
      "midi": 67,
      "hit": false,
      "t": 49575.866416666744,
      "d": 60.26782500000991,
      "v": 100
    },
    {
      "midi": 43,
      "hit": false,
      "t": 50060.24115833342,
      "d": 1328.124291666667,
      "v": 122
    },
    {
      "midi": 62,
      "hit": false,
      "t": 50345.95529166675,
      "d": 1087.0529916666637,
      "v": 96
    },
    {
      "midi": 59,
      "hit": false,
      "t": 50345.95529166675,
      "d": 1093.7494166666656,
      "v": 86
    },
    {
      "midi": 67,
      "hit": false,
      "t": 50345.95529166675,
      "d": 1109.3744083333368,
      "v": 96
    },
    {
      "midi": 71,
      "hit": false,
      "t": 50569.169458333345,
      "d": 551.3389916666638,
      "v": 106
    },
    {
      "midi": 74,
      "hit": false,
      "t": 51098.18703333334,
      "d": 51.33925833333342,
      "v": 92
    },
    {
      "midi": 57,
      "hit": false,
      "t": 51142.829866666696,
      "d": 145.08920833333104,
      "v": 110
    },
    {
      "midi": 79,
      "hit": false,
      "t": 51171.84770833334,
      "d": 127.2320749999999,
      "v": 106
    },
    {
      "midi": 55,
      "hit": false,
      "t": 51261.13337500003,
      "d": 111.60708333333605,
      "v": 126
    },
    {
      "midi": 81,
      "hit": false,
      "t": 51283.45479166668,
      "d": 395.0890749999962,
      "v": 96
    },
    {
      "midi": 54,
      "hit": false,
      "t": 51377.2047416667,
      "d": 1908.4811249999839,
      "v": 126
    },
    {
      "midi": 47,
      "hit": false,
      "t": 51444.16899166675,
      "d": 363.8390916666831,
      "v": 106
    },
    {
      "midi": 79,
      "hit": false,
      "t": 51662.91887500001,
      "d": 1127.2315416666606,
      "v": 110
    },
    {
      "midi": 62,
      "hit": false,
      "t": 51723.18670000009,
      "d": 62.499966666669934,
      "v": 96
    },
    {
      "midi": 66,
      "hit": false,
      "t": 51723.18670000009,
      "d": 73.66067500000645,
      "v": 92
    },
    {
      "midi": 59,
      "hit": false,
      "t": 51729.883125000095,
      "d": 60.26782500000263,
      "v": 78
    },
    {
      "midi": 47,
      "hit": false,
      "t": 52225.418575000105,
      "d": 1060.2672916666706,
      "v": 96
    },
    {
      "midi": 66,
      "hit": false,
      "t": 52488.811291666774,
      "d": 747.7674583333355,
      "v": 106
    },
    {
      "midi": 59,
      "hit": false,
      "t": 52493.27557500011,
      "d": 687.4996333333329,
      "v": 90
    },
    {
      "midi": 62,
      "hit": false,
      "t": 52493.27557500011,
      "d": 698.6603416666694,
      "v": 100
    },
    {
      "midi": 78,
      "hit": false,
      "t": 52772.29328333334,
      "d": 520.0890083333288,
      "v": 116
    },
    {
      "midi": 55,
      "hit": false,
      "t": 53314.70370833335,
      "d": 127.2320749999999,
      "v": 96
    },
    {
      "midi": 79,
      "hit": false,
      "t": 53337.025125,
      "d": 78.12495833333378,
      "v": 126
    },
    {
      "midi": 54,
      "hit": false,
      "t": 53408.45365833335,
      "d": 122.76779166667257,
      "v": 116
    },
    {
      "midi": 78,
      "hit": false,
      "t": 53437.4715,
      "d": 49.107116666666116,
      "v": 100
    },
    {
      "midi": 76,
      "hit": false,
      "t": 53497.739325,
      "d": 2127.231008333336,
      "v": 92
    },
    {
      "midi": 52,
      "hit": false,
      "t": 53520.06074166668,
      "d": 1595.9812916666488,
      "v": 122
    },
    {
      "midi": 36,
      "hit": false,
      "t": 53531.22145000011,
      "d": 591.5175416666607,
      "v": 122
    },
    {
      "midi": 67,
      "hit": false,
      "t": 54073.6318750001,
      "d": 49.107116666666116,
      "v": 96
    },
    {
      "midi": 64,
      "hit": false,
      "t": 54078.096158333436,
      "d": 51.33925833333342,
      "v": 92
    },
    {
      "midi": 72,
      "hit": false,
      "t": 54078.096158333436,
      "d": 55.803541666668025,
      "v": 110
    },
    {
      "midi": 40,
      "hit": false,
      "t": 54095.95329166677,
      "d": 517.8568666666761,
      "v": 110
    },
    {
      "midi": 67,
      "hit": false,
      "t": 54591.48874166677,
      "d": 51.339258333340695,
      "v": 96
    },
    {
      "midi": 64,
      "hit": false,
      "t": 54598.18516666677,
      "d": 37.946408333336876,
      "v": 90
    },
    {
      "midi": 72,
      "hit": false,
      "t": 54598.18516666677,
      "d": 49.10711666667339,
      "v": 106
    },
    {
      "midi": 43,
      "hit": false,
      "t": 54609.34587500011,
      "d": 529.0175750000126,
      "v": 106
    },
    {
      "midi": 72,
      "hit": false,
      "t": 55116.04203333345,
      "d": 66.96425000000454,
      "v": 116
    },
    {
      "midi": 67,
      "hit": false,
      "t": 55122.73845833345,
      "d": 44.642833333338785,
      "v": 110
    },
    {
      "midi": 64,
      "hit": false,
      "t": 55122.73845833345,
      "d": 44.642833333338785,
      "v": 110
    },
    {
      "midi": 36,
      "hit": false,
      "t": 55133.899166666786,
      "d": 450.89261666666425,
      "v": 106
    },
    {
      "midi": 48,
      "hit": false,
      "t": 55138.36345,
      "d": 535.7139999999999,
      "v": 122
    },
    {
      "midi": 37,
      "hit": false,
      "t": 55558.00608333345,
      "d": 116.07136666666338,
      "v": 76
    },
    {
      "midi": 50,
      "hit": false,
      "t": 55647.29175,
      "d": 2243.302374999992,
      "v": 122
    },
    {
      "midi": 38,
      "hit": false,
      "t": 55685.23815833345,
      "d": 301.3391250000059,
      "v": 126
    },
    {
      "midi": 66,
      "hit": false,
      "t": 55941.93445000012,
      "d": 55.8035416666753,
      "v": 92
    },
    {
      "midi": 62,
      "hit": false,
      "t": 55948.63087500012,
      "d": 55.8035416666753,
      "v": 86
    },
    {
      "midi": 69,
      "hit": false,
      "t": 55948.63087500012,
      "d": 66.96425000001182,
      "v": 116
    },
    {
      "midi": 42,
      "hit": false,
      "t": 56488.80915833346,
      "d": 888.3923833333392,
      "v": 126
    },
    {
      "midi": 74,
      "hit": false,
      "t": 56767.826866666794,
      "d": 580.3568333333387,
      "v": 92
    },
    {
      "midi": 62,
      "hit": false,
      "t": 56774.523291666796,
      "d": 569.1961250000022,
      "v": 92
    },
    {
      "midi": 69,
      "hit": false,
      "t": 56774.523291666796,
      "d": 569.1961250000022,
      "v": 106
    },
    {
      "midi": 66,
      "hit": false,
      "t": 56774.523291666796,
      "d": 573.6604083333368,
      "v": 90
    },
    {
      "midi": 59,
      "hit": false,
      "t": 57024.52315833334,
      "d": 520.0890083333361,
      "v": 126
    },
    {
      "midi": 60,
      "hit": false,
      "t": 57589.255000000005,
      "d": 71.42853333333187,
      "v": 122
    },
    {
      "midi": 62,
      "hit": false,
      "t": 57671.84424166667,
      "d": 1316.9635833333305,
      "v": 122
    },
    {
      "midi": 38,
      "hit": false,
      "t": 57689.701375000135,
      "d": 133.92849999999453,
      "v": 70
    },
    {
      "midi": 40,
      "hit": false,
      "t": 57705.3263666668,
      "d": 129.4642166666672,
      "v": 76
    },
    {
      "midi": 42,
      "hit": false,
      "t": 57749.96920000013,
      "d": 118.30350833333068,
      "v": 84
    },
    {
      "midi": 43,
      "hit": false,
      "t": 57850.41557500013,
      "d": 401.78549999999814,
      "v": 122
    },
    {
      "midi": 55,
      "hit": false,
      "t": 57879.43341666665,
      "d": 1863.838291666667,
      "v": 126
    },
    {
      "midi": 62,
      "hit": false,
      "t": 58158.45112500013,
      "d": 55.803541666668025,
      "v": 110
    },
    {
      "midi": 59,
      "hit": false,
      "t": 58162.915408333465,
      "d": 51.33925833333342,
      "v": 110
    },
    {
      "midi": 67,
      "hit": false,
      "t": 58162.915408333465,
      "d": 66.96424999999726,
      "v": 110
    },
    {
      "midi": 43,
      "hit": false,
      "t": 58683.004416666794,
      "d": 1261.1600416666697,
      "v": 92
    },
    {
      "midi": 67,
      "hit": false,
      "t": 58962.02212500013,
      "d": 1015.6244583333391,
      "v": 110
    },
    {
      "midi": 62,
      "hit": false,
      "t": 58962.02212500013,
      "d": 1020.0887416666737,
      "v": 116
    },
    {
      "midi": 59,
      "hit": false,
      "t": 58962.02212500013,
      "d": 1031.2494500000103,
      "v": 100
    },
    {
      "midi": 59,
      "hit": false,
      "t": 59145.05774166667,
      "d": 464.28546666666807,
      "v": 96
    },
    {
      "midi": 69,
      "hit": false,
      "t": 59691.93245000001,
      "d": 73.66067499999917,
      "v": 100
    },
    {
      "midi": 67,
      "hit": false,
      "t": 59691.93245000001,
      "d": 95.98209166666493,
      "v": 90
    },
    {
      "midi": 57,
      "hit": false,
      "t": 59754.432416666656,
      "d": 171.87490833333868,
      "v": 122
    },
    {
      "midi": 69,
      "hit": false,
      "t": 59799.07525000001,
      "d": 127.2320749999999,
      "v": 92
    },
    {
      "midi": 55,
      "hit": false,
      "t": 59892.82519999999,
      "d": 118.30350833333796,
      "v": 126
    },
    {
      "midi": 71,
      "hit": false,
      "t": 59933.00375000001,
      "d": 1406.2492500000008,
      "v": 110
    },
    {
      "midi": 47,
      "hit": false,
      "t": 59982.1108666668,
      "d": 475.4461750000046,
      "v": 122
    },
    {
      "midi": 54,
      "hit": false,
      "t": 60022.28941666667,
      "d": 1745.534783333329,
      "v": 126
    },
    {
      "midi": 62,
      "hit": false,
      "t": 60267.825000000135,
      "d": 49.107116666666116,
      "v": 92
    },
    {
      "midi": 59,
      "hit": false,
      "t": 60267.825000000135,
      "d": 66.96424999999726,
      "v": 78
    },
    {
      "midi": 66,
      "hit": false,
      "t": 60267.825000000135,
      "d": 78.12495833333378,
      "v": 106
    },
    {
      "midi": 47,
      "hit": false,
      "t": 60830.324700000136,
      "d": 1249.9993333333332,
      "v": 110
    },
    {
      "midi": 59,
      "hit": false,
      "t": 61093.717416666805,
      "d": 506.6961583333323,
      "v": 86
    },
    {
      "midi": 62,
      "hit": false,
      "t": 61093.717416666805,
      "d": 517.8568666666688,
      "v": 116
    },
    {
      "midi": 66,
      "hit": false,
      "t": 61093.717416666805,
      "d": 562.4997000000003,
      "v": 122
    },
    {
      "midi": 69,
      "hit": false,
      "t": 61332.55657500001,
      "d": 620.5353833333356,
      "v": 126
    },
    {
      "midi": 55,
      "hit": false,
      "t": 61874.967,
      "d": 78.12495833333378,
      "v": 122
    },
    {
      "midi": 67,
      "hit": false,
      "t": 61919.60983333334,
      "d": 535.7139999999999,
      "v": 126
    },
    {
      "midi": 54,
      "hit": false,
      "t": 61924.07411666666,
      "d": 95.98209166666493,
      "v": 116
    },
    {
      "midi": 52,
      "hit": false,
      "t": 62046.84190833333,
      "d": 1647.3205499999967,
      "v": 110
    },
    {
      "midi": 36,
      "hit": false,
      "t": 62124.9668666668,
      "d": 564.7318416666603,
      "v": 122
    },
    {
      "midi": 66,
      "hit": false,
      "t": 62477.64525000001,
      "d": 982.1423333333369,
      "v": 110
    },
    {
      "midi": 67,
      "hit": false,
      "t": 62649.52015833346,
      "d": 55.803541666668025,
      "v": 106
    },
    {
      "midi": 64,
      "hit": false,
      "t": 62649.52015833346,
      "d": 55.803541666668025,
      "v": 100
    },
    {
      "midi": 72,
      "hit": false,
      "t": 62649.52015833346,
      "d": 66.96425000000454,
      "v": 110
    },
    {
      "midi": 40,
      "hit": false,
      "t": 62660.68086666679,
      "d": 524.5532916666634,
      "v": 122
    },
    {
      "midi": 64,
      "hit": false,
      "t": 63169.60916666679,
      "d": 49.107116666666116,
      "v": 92
    },
    {
      "midi": 67,
      "hit": false,
      "t": 63169.60916666679,
      "d": 55.803541666668025,
      "v": 110
    },
    {
      "midi": 72,
      "hit": false,
      "t": 63169.60916666679,
      "d": 55.803541666668025,
      "v": 106
    },
    {
      "midi": 43,
      "hit": false,
      "t": 63185.23415833346,
      "d": 546.8747083333437,
      "v": 110
    },
    {
      "midi": 64,
      "hit": false,
      "t": 63475.41257500001,
      "d": 1915.1775500000003,
      "v": 110
    },
    {
      "midi": 67,
      "hit": false,
      "t": 63709.78745000013,
      "d": 51.339258333340695,
      "v": 116
    },
    {
      "midi": 64,
      "hit": false,
      "t": 63709.78745000013,
      "d": 55.8035416666753,
      "v": 110
    },
    {
      "midi": 72,
      "hit": false,
      "t": 63709.78745000013,
      "d": 66.96425000001182,
      "v": 110
    },
    {
      "midi": 48,
      "hit": false,
      "t": 63716.48387499999,
      "d": 591.517541666668,
      "v": 122
    },
    {
      "midi": 48,
      "hit": false,
      "t": 63720.948158333464,
      "d": 508.92830000000686,
      "v": 86
    },
    {
      "midi": 38,
      "hit": false,
      "t": 64256.66215833347,
      "d": 558.035416666673,
      "v": 110
    },
    {
      "midi": 50,
      "hit": false,
      "t": 64263.35858333333,
      "d": 1707.588375000043,
      "v": 126
    },
    {
      "midi": 69,
      "hit": false,
      "t": 64776.75116666681,
      "d": 66.96425000001182,
      "v": 122
    },
    {
      "midi": 66,
      "hit": false,
      "t": 64781.21545000014,
      "d": 44.642833333338785,
      "v": 110
    },
    {
      "midi": 62,
      "hit": false,
      "t": 64781.21545000014,
      "d": 55.8035416666753,
      "v": 106
    },
    {
      "midi": 42,
      "hit": false,
      "t": 64781.21545000014,
      "d": 542.4104250000091,
      "v": 116
    },
    {
      "midi": 45,
      "hit": false,
      "t": 65323.62587500015,
      "d": 580.3568333333315,
      "v": 92
    },
    {
      "midi": 66,
      "hit": false,
      "t": 65328.090158333485,
      "d": 73.66067499999917,
      "v": 116
    },
    {
      "midi": 62,
      "hit": false,
      "t": 65328.090158333485,
      "d": 73.66067499999917,
      "v": 110
    },
    {
      "midi": 69,
      "hit": false,
      "t": 65328.090158333485,
      "d": 89.28566666666302,
      "v": 126
    },
    {
      "midi": 76,
      "hit": false,
      "t": 66171.83970833334,
      "d": 82.58924166666111,
      "v": 106
    },
    {
      "midi": 72,
      "hit": false,
      "t": 66171.83970833334,
      "d": 122.76779166667257,
      "v": 126
    },
    {
      "midi": 78,
      "hit": false,
      "t": 66216.48254166667,
      "d": 104.91065833334869,
      "v": 110
    },
    {
      "midi": 74,
      "hit": false,
      "t": 66272.28608333334,
      "d": 138.3927833333437,
      "v": 122
    },
    {
      "midi": 79,
      "hit": false,
      "t": 66310.23249166668,
      "d": 145.08920833333104,
      "v": 122
    },
    {
      "midi": 48,
      "hit": false,
      "t": 66428.53600000015,
      "d": 357.1426666666666,
      "v": 126
    },
    {
      "midi": 76,
      "hit": false,
      "t": 66439.69670833334,
      "d": 111.60708333333605,
      "v": 126
    },
    {
      "midi": 60,
      "hit": false,
      "t": 66439.69670833349,
      "d": 551.3389916666638,
      "v": 122
    },
    {
      "midi": 64,
      "hit": false,
      "t": 66439.69670833349,
      "d": 562.4997000000003,
      "v": 126
    },
    {
      "midi": 48,
      "hit": false,
      "t": 66444.16099166671,
      "d": 1725.4455083333305,
      "v": 126
    },
    {
      "midi": 67,
      "hit": false,
      "t": 66450.85741666683,
      "d": 546.8747083333292,
      "v": 116
    },
    {
      "midi": 79,
      "hit": false,
      "t": 66707.55370833335,
      "d": 138.3927833333437,
      "v": 126
    },
    {
      "midi": 76,
      "hit": false,
      "t": 66718.71441666668,
      "d": 116.07136666667066,
      "v": 126
    },
    {
      "midi": 48,
      "hit": false,
      "t": 66953.08929166682,
      "d": 662.9460750000144,
      "v": 122
    },
    {
      "midi": 72,
      "hit": false,
      "t": 67220.9462916667,
      "d": 116.07136666667066,
      "v": 122
    },
    {
      "midi": 64,
      "hit": false,
      "t": 67225.41057500016,
      "d": 580.3568333333387,
      "v": 126
    },
    {
      "midi": 67,
      "hit": false,
      "t": 67232.10700000016,
      "d": 573.6604083333368,
      "v": 110
    },
    {
      "midi": 60,
      "hit": false,
      "t": 67236.5712833335,
      "d": 558.0354166666657,
      "v": 110
    },
    {
      "midi": 76,
      "hit": false,
      "t": 67243.26770833337,
      "d": 111.60708333333605,
      "v": 110
    },
    {
      "midi": 76,
      "hit": false,
      "t": 67482.10686666671,
      "d": 140.62492499999644,
      "v": 126
    },
    {
      "midi": 79,
      "hit": false,
      "t": 67488.80329166671,
      "d": 138.39278333332913,
      "v": 122
    },
    {
      "midi": 48,
      "hit": false,
      "t": 67761.12457500017,
      "d": 274.5534250000055,
      "v": 116
    },
    {
      "midi": 60,
      "hit": false,
      "t": 68013.3565833335,
      "d": 334.82125000000815,
      "v": 106
    },
    {
      "midi": 64,
      "hit": false,
      "t": 68013.3565833335,
      "d": 350.44624166667927,
      "v": 116
    },
    {
      "midi": 67,
      "hit": false,
      "t": 68013.3565833335,
      "d": 357.1426666666812,
      "v": 106
    },
    {
      "midi": 79,
      "hit": false,
      "t": 68028.98157500004,
      "d": 111.60708333333605,
      "v": 126
    },
    {
      "midi": 83,
      "hit": false,
      "t": 68040.14228333338,
      "d": 89.28566666666302,
      "v": 110
    },
    {
      "midi": 79,
      "hit": false,
      "t": 68292.37429166671,
      "d": 138.3927833333437,
      "v": 126
    },
    {
      "midi": 48,
      "hit": false,
      "t": 68292.37429166684,
      "d": 122.76779166667257,
      "v": 126
    },
    {
      "midi": 48,
      "hit": false,
      "t": 68296.83857500005,
      "d": 274.5534250000055,
      "v": 126
    },
    {
      "midi": 83,
      "hit": false,
      "t": 68303.53500000005,
      "d": 127.23207500000717,
      "v": 110
    },
    {
      "midi": 50,
      "hit": false,
      "t": 68549.07058333351,
      "d": 357.1426666666666,
      "v": 126
    },
    {
      "midi": 66,
      "hit": false,
      "t": 68549.07058333351,
      "d": 562.4997000000003,
      "v": 116
    },
    {
      "midi": 69,
      "hit": false,
      "t": 68549.07058333351,
      "d": 562.4997000000003,
      "v": 110
    },
    {
      "midi": 62,
      "hit": false,
      "t": 68553.53486666684,
      "d": 553.5711333333311,
      "v": 106
    },
    {
      "midi": 50,
      "hit": false,
      "t": 68560.23129166671,
      "d": 1533.4813250000007,
      "v": 126
    },
    {
      "midi": 78,
      "hit": false,
      "t": 68787.90974166672,
      "d": 118.30350833333796,
      "v": 126
    },
    {
      "midi": 81,
      "hit": false,
      "t": 68805.76687500006,
      "d": 127.23207499999262,
      "v": 122
    },
    {
      "midi": 50,
      "hit": false,
      "t": 69066.92745000018,
      "d": 602.6782499999972,
      "v": 122
    },
    {
      "midi": 62,
      "hit": false,
      "t": 69352.6415833335,
      "d": 546.8747083333437,
      "v": 122
    },
    {
      "midi": 69,
      "hit": false,
      "t": 69352.6415833335,
      "d": 546.8747083333437,
      "v": 122
    },
    {
      "midi": 66,
      "hit": false,
      "t": 69352.6415833335,
      "d": 558.0354166666802,
      "v": 126
    },
    {
      "midi": 50,
      "hit": false,
      "t": 69892.81986666685,
      "d": 252.2320083333325,
      "v": 126
    },
    {
      "midi": 62,
      "hit": false,
      "t": 70156.21258333352,
      "d": 473.21403333332273,
      "v": 116
    },
    {
      "midi": 69,
      "hit": false,
      "t": 70156.21258333352,
      "d": 473.21403333332273,
      "v": 122
    },
    {
      "midi": 66,
      "hit": false,
      "t": 70156.21258333352,
      "d": 479.91045833332464,
      "v": 116
    },
    {
      "midi": 50,
      "hit": false,
      "t": 70178.53400000004,
      "d": 502.2318750000122,
      "v": 110
    },
    {
      "midi": 50,
      "hit": false,
      "t": 70395.05174166684,
      "d": 156.24991666666756,
      "v": 122
    },
    {
      "midi": 78,
      "hit": false,
      "t": 70629.42661666672,
      "d": 84.82138333332841,
      "v": 126
    },
    {
      "midi": 74,
      "hit": false,
      "t": 70629.42661666672,
      "d": 107.14280000000144,
      "v": 126
    },
    {
      "midi": 47,
      "hit": false,
      "t": 70658.44445833351,
      "d": 316.9641166666697,
      "v": 126
    },
    {
      "midi": 47,
      "hit": false,
      "t": 70674.06945000005,
      "d": 1524.5527583333314,
      "v": 126
    },
    {
      "midi": 66,
      "hit": false,
      "t": 70729.87299166685,
      "d": 453.12475833333156,
      "v": 96
    },
    {
      "midi": 69,
      "hit": false,
      "t": 70736.56941666685,
      "d": 439.73190833332774,
      "v": 100
    },
    {
      "midi": 62,
      "hit": false,
      "t": 70736.56941666685,
      "d": 446.42833333332965,
      "v": 84
    },
    {
      "midi": 78,
      "hit": false,
      "t": 70903.98004166673,
      "d": 93.74994999999763,
      "v": 126
    },
    {
      "midi": 74,
      "hit": false,
      "t": 70908.44432500006,
      "d": 151.78563333333295,
      "v": 126
    },
    {
      "midi": 47,
      "hit": false,
      "t": 71176.30132500018,
      "d": 379.4640833333251,
      "v": 116
    },
    {
      "midi": 71,
      "hit": false,
      "t": 71421.8369083334,
      "d": 133.92849999999453,
      "v": 122
    },
    {
      "midi": 62,
      "hit": false,
      "t": 71466.47974166684,
      "d": 520.0890083333361,
      "v": 110
    },
    {
      "midi": 69,
      "hit": false,
      "t": 71466.47974166684,
      "d": 520.0890083333361,
      "v": 110
    },
    {
      "midi": 66,
      "hit": false,
      "t": 71466.47974166684,
      "d": 524.5532916666707,
      "v": 116
    },
    {
      "midi": 74,
      "hit": false,
      "t": 71506.65829166672,
      "d": 122.76779166667257,
      "v": 110
    },
    {
      "midi": 74,
      "hit": false,
      "t": 71729.8724583334,
      "d": 138.3927833333437,
      "v": 126
    },
    {
      "midi": 78,
      "hit": false,
      "t": 71752.19387500007,
      "d": 149.55349166666565,
      "v": 116
    },
    {
      "midi": 47,
      "hit": false,
      "t": 71997.72945833352,
      "d": 283.48199166667473,
      "v": 106
    },
    {
      "midi": 78,
      "hit": false,
      "t": 72258.8900333334,
      "d": 122.76779166667257,
      "v": 126
    },
    {
      "midi": 66,
      "hit": false,
      "t": 72270.05074166686,
      "d": 334.82125000000815,
      "v": 106
    },
    {
      "midi": 69,
      "hit": false,
      "t": 72270.05074166686,
      "d": 334.82125000000815,
      "v": 110
    },
    {
      "midi": 62,
      "hit": false,
      "t": 72276.74716666686,
      "d": 323.66054166667163,
      "v": 106
    },
    {
      "midi": 81,
      "hit": false,
      "t": 72281.21145000008,
      "d": 107.14280000000144,
      "v": 126
    },
    {
      "midi": 47,
      "hit": false,
      "t": 72321.39000000006,
      "d": 435.26762499999313,
      "v": 126
    },
    {
      "midi": 81,
      "hit": false,
      "t": 72533.44345833341,
      "d": 116.07136666667066,
      "v": 126
    },
    {
      "midi": 78,
      "hit": false,
      "t": 72533.44345833341,
      "d": 167.41062500000407,
      "v": 126
    },
    {
      "midi": 47,
      "hit": false,
      "t": 72537.90774166686,
      "d": 100.44637499999953,
      "v": 100
    },
    {
      "midi": 52,
      "hit": false,
      "t": 72761.12190833339,
      "d": 1417.40995833333,
      "v": 126
    },
    {
      "midi": 52,
      "hit": false,
      "t": 72801.30045833353,
      "d": 200.89274999999907,
      "v": 122
    },
    {
      "midi": 67,
      "hit": false,
      "t": 72801.30045833353,
      "d": 535.7140000000072,
      "v": 122
    },
    {
      "midi": 64,
      "hit": false,
      "t": 72805.76474166686,
      "d": 524.5532916666707,
      "v": 106
    },
    {
      "midi": 71,
      "hit": false,
      "t": 72805.76474166686,
      "d": 524.5532916666707,
      "v": 106
    },
    {
      "midi": 76,
      "hit": false,
      "t": 73024.51462500008,
      "d": 122.76779166667257,
      "v": 126
    },
    {
      "midi": 79,
      "hit": false,
      "t": 73095.94315833342,
      "d": 66.96425000000454,
      "v": 126
    },
    {
      "midi": 74,
      "hit": false,
      "t": 73162.90740833343,
      "d": 111.6070833333506,
      "v": 126
    },
    {
      "midi": 78,
      "hit": false,
      "t": 73185.2288250001,
      "d": 51.33925833333342,
      "v": 122
    },
    {
      "midi": 79,
      "hit": false,
      "t": 73252.1930750001,
      "d": 200.89275000001362,
      "v": 122
    },
    {
      "midi": 81,
      "hit": false,
      "t": 73281.21091666678,
      "d": 11.160708333336515,
      "v": 90
    },
    {
      "midi": 76,
      "hit": false,
      "t": 73303.53233333345,
      "d": 111.60708333333605,
      "v": 126
    },
    {
      "midi": 52,
      "hit": false,
      "t": 73363.80015833353,
      "d": 285.71413333334203,
      "v": 116
    },
    {
      "midi": 67,
      "hit": false,
      "t": 73620.4964500002,
      "d": 524.5532916666707,
      "v": 122
    },
    {
      "midi": 64,
      "hit": false,
      "t": 73627.1928750002,
      "d": 513.3925833333342,
      "v": 116
    },
    {
      "midi": 71,
      "hit": false,
      "t": 73627.1928750002,
      "d": 517.8568666666688,
      "v": 110
    },
    {
      "midi": 54,
      "hit": false,
      "t": 74151.74616666672,
      "d": 238.83915833332867,
      "v": 116
    },
    {
      "midi": 52,
      "hit": false,
      "t": 74185.22829166686,
      "d": 249.99986666666518,
      "v": 110
    },
    {
      "midi": 55,
      "hit": false,
      "t": 74419.60316666671,
      "d": 267.8570000000036,
      "v": 122
    },
    {
      "midi": 71,
      "hit": false,
      "t": 74435.22815833353,
      "d": 312.4998333333351,
      "v": 116
    },
    {
      "midi": 67,
      "hit": false,
      "t": 74435.22815833353,
      "d": 323.66054166667163,
      "v": 116
    },
    {
      "midi": 64,
      "hit": false,
      "t": 74441.92458333353,
      "d": 316.9641166666697,
      "v": 122
    },
    {
      "midi": 60,
      "hit": false,
      "t": 74669.60303333333,
      "d": 133.92849999999453,
      "v": 110
    },
    {
      "midi": 52,
      "hit": false,
      "t": 74676.29945833338,
      "d": 283.48199166667473,
      "v": 126
    },
    {
      "midi": 52,
      "hit": false,
      "t": 74687.46016666686,
      "d": 104.91065833333414,
      "v": 106
    },
    {
      "midi": 62,
      "hit": false,
      "t": 74776.74583333333,
      "d": 133.92849999999453,
      "v": 86
    },
    {
      "midi": 64,
      "hit": false,
      "t": 74877.19220833333,
      "d": 1466.517074999996,
      "v": 126
    },
    {
      "midi": 48,
      "hit": false,
      "t": 74948.62074166672,
      "d": 1473.213499999998,
      "v": 126
    },
    {
      "midi": 48,
      "hit": false,
      "t": 74959.7814500002,
      "d": 245.53558333333058,
      "v": 126
    },
    {
      "midi": 64,
      "hit": false,
      "t": 74959.7814500002,
      "d": 531.2497166666726,
      "v": 126
    },
    {
      "midi": 60,
      "hit": false,
      "t": 74966.4778750002,
      "d": 513.3925833333342,
      "v": 110
    },
    {
      "midi": 67,
      "hit": false,
      "t": 74966.4778750002,
      "d": 524.5532916666707,
      "v": 106
    },
    {
      "midi": 48,
      "hit": false,
      "t": 75491.03116666687,
      "d": 305.8034083333332,
      "v": 122
    },
    {
      "midi": 60,
      "hit": false,
      "t": 75763.35245000021,
      "d": 497.76759166666307,
      "v": 122
    },
    {
      "midi": 67,
      "hit": false,
      "t": 75763.35245000021,
      "d": 502.2318749999977,
      "v": 116
    },
    {
      "midi": 64,
      "hit": false,
      "t": 75763.35245000021,
      "d": 508.9282999999996,
      "v": 126
    },
    {
      "midi": 48,
      "hit": false,
      "t": 76294.60216666688,
      "d": 249.99986666666518,
      "v": 122
    },
    {
      "midi": 67,
      "hit": false,
      "t": 76328.08429166666,
      "d": 580.3568333333387,
      "v": 110
    },
    {
      "midi": 64,
      "hit": false,
      "t": 76555.76274166688,
      "d": 330.35696666667354,
      "v": 126
    },
    {
      "midi": 60,
      "hit": false,
      "t": 76562.45916666689,
      "d": 312.4998333333351,
      "v": 122
    },
    {
      "midi": 67,
      "hit": false,
      "t": 76562.45916666689,
      "d": 334.82125000000815,
      "v": 110
    },
    {
      "midi": 48,
      "hit": false,
      "t": 76566.92345000005,
      "d": 575.8925499999896,
      "v": 126
    },
    {
      "midi": 48,
      "hit": false,
      "t": 76857.10186666688,
      "d": 207.58917500001553,
      "v": 106
    },
    {
      "midi": 66,
      "hit": false,
      "t": 76886.11970833332,
      "d": 100.44637499999953,
      "v": 110
    },
    {
      "midi": 64,
      "hit": false,
      "t": 77008.8875,
      "d": 111.60708333333605,
      "v": 110
    },
    {
      "midi": 50,
      "hit": false,
      "t": 77109.33387500004,
      "d": 1511.1599083333276,
      "v": 126
    },
    {
      "midi": 66,
      "hit": false,
      "t": 77113.79815833356,
      "d": 542.4104249999946,
      "v": 122
    },
    {
      "midi": 62,
      "hit": false,
      "t": 77120.49458333357,
      "d": 535.7139999999927,
      "v": 106
    },
    {
      "midi": 69,
      "hit": false,
      "t": 77120.49458333357,
      "d": 535.7139999999927,
      "v": 122
    },
    {
      "midi": 66,
      "hit": false,
      "t": 77124.95886666667,
      "d": 1714.284799999994,
      "v": 110
    },
    {
      "midi": 50,
      "hit": false,
      "t": 77622.72645833356,
      "d": 305.8034083333332,
      "v": 126
    },
    {
      "midi": 66,
      "hit": false,
      "t": 77917.36915833356,
      "d": 513.3925833333342,
      "v": 116
    },
    {
      "midi": 62,
      "hit": false,
      "t": 77917.36915833356,
      "d": 520.0890083333361,
      "v": 122
    },
    {
      "midi": 69,
      "hit": false,
      "t": 77917.36915833356,
      "d": 520.0890083333361,
      "v": 122
    },
    {
      "midi": 50,
      "hit": false,
      "t": 78448.61887500023,
      "d": 249.99986666666518,
      "v": 126
    },
    {
      "midi": 66,
      "hit": false,
      "t": 78705.3151666669,
      "d": 334.82125000000815,
      "v": 116
    },
    {
      "midi": 62,
      "hit": false,
      "t": 78705.3151666669,
      "d": 339.28553333334276,
      "v": 106
    },
    {
      "midi": 50,
      "hit": false,
      "t": 78709.77945000003,
      "d": 564.7318416666676,
      "v": 126
    },
    {
      "midi": 69,
      "hit": false,
      "t": 78709.77945000023,
      "d": 334.82125000000815,
      "v": 110
    },
    {
      "midi": 66,
      "hit": false,
      "t": 78984.332875,
      "d": 145.08920833333104,
      "v": 126
    },
    {
      "midi": 50,
      "hit": false,
      "t": 78988.79715833357,
      "d": 89.28566666666302,
      "v": 122
    },
    {
      "midi": 64,
      "hit": false,
      "t": 79145.047075,
      "d": 189.73204166666255,
      "v": 122
    },
    {
      "midi": 38,
      "hit": false,
      "t": 79256.65415833336,
      "d": 2120.5345833333413,
      "v": 126
    },
    {
      "midi": 69,
      "hit": false,
      "t": 79267.8148666669,
      "d": 542.4104250000091,
      "v": 106
    },
    {
      "midi": 62,
      "hit": false,
      "t": 79267.8148666669,
      "d": 546.8747083333437,
      "v": 110
    },
    {
      "midi": 66,
      "hit": false,
      "t": 79267.8148666669,
      "d": 553.5711333333456,
      "v": 116
    },
    {
      "midi": 50,
      "hit": false,
      "t": 79278.97557500024,
      "d": 285.7141333333275,
      "v": 126
    },
    {
      "midi": 62,
      "hit": false,
      "t": 79363.79695833332,
      "d": 2024.5524916666618,
      "v": 110
    },
    {
      "midi": 50,
      "hit": false,
      "t": 79792.36815833357,
      "d": 591.5175416666752,
      "v": 122
    },
    {
      "midi": 66,
      "hit": false,
      "t": 80078.08229166691,
      "d": 558.0354166666657,
      "v": 122
    },
    {
      "midi": 62,
      "hit": false,
      "t": 80078.08229166691,
      "d": 558.0354166666657,
      "v": 106
    },
    {
      "midi": 69,
      "hit": false,
      "t": 80082.54657500025,
      "d": 546.8747083333292,
      "v": 110
    },
    {
      "midi": 50,
      "hit": false,
      "t": 80613.7962916669,
      "d": 256.69629166668165,
      "v": 126
    },
    {
      "midi": 66,
      "hit": false,
      "t": 80863.79615833359,
      "d": 330.35696666667354,
      "v": 116
    },
    {
      "midi": 69,
      "hit": false,
      "t": 80870.49258333359,
      "d": 312.4998333333351,
      "v": 110
    },
    {
      "midi": 62,
      "hit": false,
      "t": 80870.49258333359,
      "d": 328.12482500000624,
      "v": 106
    },
    {
      "midi": 50,
      "hit": false,
      "t": 81142.81386666693,
      "d": 100.44637499999953,
      "v": 122
    },
    {
      "midi": 62,
      "hit": false,
      "t": 81410.67086666693,
      "d": 2149.5524250000017,
      "v": 110
    },
    {
      "midi": 66,
      "hit": false,
      "t": 81410.67086666693,
      "d": 2149.5524250000017,
      "v": 122
    },
    {
      "midi": 69,
      "hit": false,
      "t": 81410.67086666693,
      "d": 2149.5524250000017,
      "v": 122
    },
    {
      "midi": 50,
      "hit": false,
      "t": 81410.67086666693,
      "d": 2160.713133333338,
      "v": 126
    },
    {
      "midi": 74,
      "hit": false,
      "t": 81428.52799999998,
      "d": 116.07136666667066,
      "v": 110
    },
    {
      "midi": 74,
      "hit": false,
      "t": 81428.52799999999,
      "d": 133.92850000000908,
      "v": 122
    },
    {
      "midi": 76,
      "hit": false,
      "t": 81528.97437499998,
      "d": 122.76779166667257,
      "v": 106
    },
    {
      "midi": 76,
      "hit": false,
      "t": 81540.13508333333,
      "d": 133.92850000000908,
      "v": 110
    },
    {
      "midi": 78,
      "hit": false,
      "t": 81662.90287499999,
      "d": 133.92849999999453,
      "v": 116
    },
    {
      "midi": 78,
      "hit": false,
      "t": 81685.22429166667,
      "d": 122.76779166667257,
      "v": 122
    },
    {
      "midi": 79,
      "hit": false,
      "t": 81807.99208333332,
      "d": 133.92850000000908,
      "v": 86
    },
    {
      "midi": 79,
      "hit": false,
      "t": 81830.31350000002,
      "d": 145.08920833333104,
      "v": 100
    },
    {
      "midi": 81,
      "hit": false,
      "t": 81919.59916666665,
      "d": 149.55349166666565,
      "v": 100
    },
    {
      "midi": 81,
      "hit": false,
      "t": 81946.38486666669,
      "d": 151.7856333333184,
      "v": 116
    },
    {
      "midi": 83,
      "hit": false,
      "t": 82035.67053333332,
      "d": 140.62492499999644,
      "v": 100
    },
    {
      "midi": 83,
      "hit": false,
      "t": 82064.68837500001,
      "d": 160.71420000000217,
      "v": 110
    },
    {
      "midi": 84,
      "hit": false,
      "t": 82142.81333333332,
      "d": 189.73204166666255,
      "v": 106
    },
    {
      "midi": 84,
      "hit": false,
      "t": 82203.08115833334,
      "d": 178.5713333333406,
      "v": 122
    },
    {
      "midi": 85,
      "hit": false,
      "t": 82310.22395833331,
      "d": 133.92850000000908,
      "v": 100
    },
    {
      "midi": 85,
      "hit": false,
      "t": 82359.33107500001,
      "d": 133.92850000000908,
      "v": 126
    },
    {
      "midi": 86,
      "hit": false,
      "t": 82444.15245833332,
      "d": 468.7497500000027,
      "v": 92
    },
    {
      "midi": 74,
      "hit": false,
      "t": 82459.77745,
      "d": 553.5711333333311,
      "v": 122
    },
    {
      "midi": 62,
      "hit": false,
      "t": 82493.25957500002,
      "d": 502.2318750000122,
      "v": 106
    },
    {
      "midi": 86,
      "hit": false,
      "t": 82493.25957500002,
      "d": 676.3389250000037,
      "v": 110
    },
    {
      "midi": 76,
      "hit": false,
      "t": 82504.42028333335,
      "d": 17.857133333338425,
      "v": 116
    },
    {
      "midi": 74,
      "hit": false,
      "t": 82504.42028333335,
      "d": 486.6068833333411,
      "v": 122
    },
    {
      "midi": 84,
      "hit": false,
      "t": 83017.81286666666,
      "d": 441.96404999999504,
      "v": 122
    },
    {
      "midi": 72,
      "hit": false,
      "t": 83035.67000000003,
      "d": 372.7676583333232,
      "v": 92
    },
    {
      "midi": 84,
      "hit": false,
      "t": 83035.67000000003,
      "d": 401.7854999999836,
      "v": 126
    },
    {
      "midi": 84,
      "hit": false,
      "t": 83520.04474166666,
      "d": 848.2138333333278,
      "v": 110
    },
    {
      "midi": 43,
      "hit": false,
      "t": 83531.20545000004,
      "d": 877.2316750000027,
      "v": 126
    },
    {
      "midi": 84,
      "hit": false,
      "t": 83549.06258333335,
      "d": 781.2495833333523,
      "v": 126
    },
    {
      "midi": 72,
      "hit": false,
      "t": 83549.06258333335,
      "d": 830.3567000000185,
      "v": 122
    },
    {
      "midi": 43,
      "hit": false,
      "t": 83593.70541666668,
      "d": 301.33912500001315,
      "v": 126
    },
    {
      "midi": 59,
      "hit": false,
      "t": 83872.72312500002,
      "d": 71.42853333333915,
      "v": 110
    },
    {
      "midi": 62,
      "hit": false,
      "t": 83872.72312500002,
      "d": 78.12495833334106,
      "v": 116
    },
    {
      "midi": 67,
      "hit": false,
      "t": 83872.72312500002,
      "d": 89.28566666667757,
      "v": 110
    },
    {
      "midi": 83,
      "hit": false,
      "t": 84357.09786666669,
      "d": 162.94634166666947,
      "v": 126
    },
    {
      "midi": 71,
      "hit": false,
      "t": 84368.25857500003,
      "d": 178.57133333332604,
      "v": 122
    },
    {
      "midi": 43,
      "hit": false,
      "t": 84379.41928333337,
      "d": 334.8212499999936,
      "v": 126
    },
    {
      "midi": 83,
      "hit": false,
      "t": 84386.11570833332,
      "d": 156.24991666666756,
      "v": 126
    },
    {
      "midi": 47,
      "hit": false,
      "t": 84408.43712500004,
      "d": 234.37487500000861,
      "v": 126
    },
    {
      "midi": 83,
      "hit": false,
      "t": 84602.63345,
      "d": 245.53558333334513,
      "v": 100
    },
    {
      "midi": 50,
      "hit": false,
      "t": 84624.95486666671,
      "d": 178.57133333335514,
      "v": 116
    },
    {
      "midi": 62,
      "hit": false,
      "t": 84642.81200000002,
      "d": 66.96425000000454,
      "v": 122
    },
    {
      "midi": 59,
      "hit": false,
      "t": 84642.81200000002,
      "d": 66.96425000000454,
      "v": 110
    },
    {
      "midi": 67,
      "hit": false,
      "t": 84642.81200000002,
      "d": 78.12495833334106,
      "v": 106
    },
    {
      "midi": 83,
      "hit": false,
      "t": 84642.81200000002,
      "d": 127.23207500000717,
      "v": 116
    },
    {
      "midi": 71,
      "hit": false,
      "t": 84642.81200000002,
      "d": 178.5713333333406,
      "v": 110
    },
    {
      "midi": 62,
      "hit": false,
      "t": 85145.04387500003,
      "d": 60.26782500000263,
      "v": 122
    },
    {
      "midi": 57,
      "hit": false,
      "t": 85145.04387500003,
      "d": 60.26782500000263,
      "v": 106
    },
    {
      "midi": 66,
      "hit": false,
      "t": 85145.04387500003,
      "d": 93.74994999999763,
      "v": 126
    },
    {
      "midi": 86,
      "hit": false,
      "t": 85145.04387500003,
      "d": 227.67844999999215,
      "v": 92
    },
    {
      "midi": 74,
      "hit": false,
      "t": 85149.50815833334,
      "d": 435.26762499999313,
      "v": 122
    },
    {
      "midi": 38,
      "hit": false,
      "t": 85149.50815833337,
      "d": 535.7139999999927,
      "v": 126
    },
    {
      "midi": 38,
      "hit": false,
      "t": 85149.5081583334,
      "d": 513.3925833333342,
      "v": 126
    },
    {
      "midi": 81,
      "hit": false,
      "t": 85156.20458333337,
      "d": 189.73204166666255,
      "v": 86
    },
    {
      "midi": 90,
      "hit": false,
      "t": 85156.20458333337,
      "d": 234.37487499999406,
      "v": 116
    },
    {
      "midi": 74,
      "hit": false,
      "t": 85156.20458333337,
      "d": 495.53544999999576,
      "v": 122
    },
    {
      "midi": 76,
      "hit": false,
      "t": 85591.47220833333,
      "d": 82.58924166667566,
      "v": 78
    },
    {
      "midi": 78,
      "hit": false,
      "t": 85640.579325,
      "d": 51.33925833334797,
      "v": 72
    },
    {
      "midi": 79,
      "hit": false,
      "t": 85658.43645833334,
      "d": 256.6962916666962,
      "v": 126
    },
    {
      "midi": 43,
      "hit": false,
      "t": 85669.59716666673,
      "d": 238.83915833334322,
      "v": 126
    },
    {
      "midi": 31,
      "hit": false,
      "t": 85680.75787500002,
      "d": 100.44637500002864,
      "v": 122
    },
    {
      "midi": 62,
      "hit": false,
      "t": 85685.22215833336,
      "d": 78.12495833335561,
      "v": 116
    },
    {
      "midi": 59,
      "hit": false,
      "t": 85691.91858333336,
      "d": 71.4285333333537,
      "v": 106
    },
    {
      "midi": 67,
      "hit": false,
      "t": 85696.3828666667,
      "d": 84.82138333335752,
      "v": 126
    },
    {
      "midi": 86,
      "hit": false,
      "t": 85696.3828666667,
      "d": 107.14280000003055,
      "v": 116
    },
    {
      "midi": 83,
      "hit": false,
      "t": 85703.0792916667,
      "d": 100.44637500002864,
      "v": 100
    },
    {
      "midi": 91,
      "hit": false,
      "t": 85703.0792916667,
      "d": 111.60708333336515,
      "v": 110
    }
  ]
}