{
  "jsonPath": "Animes/Sailor Moon MIDI Collection/luna-a.json",
  "path": "Animes\\Sailor Moon MIDI Collection\\Luna A.mid",
  "name": "Luna A",
  "difficulty": "Intermediate",
  "bpm": 104.00001386666851,
  "notes": [
    {
      "midi": 62,
      "hit": false,
      "t": 0,
      "d": 576.923,
      "v": 100
    },
    {
      "midi": 67,
      "hit": false,
      "t": 0,
      "d": 16730.767,
      "v": 69
    },
    {
      "midi": 67,
      "hit": false,
      "t": 432.69225,
      "d": 192.30766666666665,
      "v": 100
    },
    {
      "midi": 70,
      "hit": false,
      "t": 576.923,
      "d": 192.3076666666666,
      "v": 100
    },
    {
      "midi": 74,
      "hit": false,
      "t": 721.15375,
      "d": 192.3076666666666,
      "v": 100
    },
    {
      "midi": 73,
      "hit": false,
      "t": 865.3844999999999,
      "d": 576.923,
      "v": 100
    },
    {
      "midi": 77,
      "hit": false,
      "t": 1442.3075,
      "d": 192.3076666666666,
      "v": 100
    },
    {
      "midi": 85,
      "hit": false,
      "t": 2596.1535,
      "d": 576.9230000000002,
      "v": 100
    },
    {
      "midi": 81,
      "hit": false,
      "t": 2596.1535,
      "d": 576.9230000000002,
      "v": 100
    },
    {
      "midi": 85,
      "hit": false,
      "t": 2596.1535,
      "d": 576.9230000000002,
      "v": 100
    },
    {
      "midi": 89,
      "hit": false,
      "t": 3173.0765,
      "d": 192.3076666666666,
      "v": 100
    },
    {
      "midi": 85,
      "hit": false,
      "t": 3173.0765,
      "d": 192.3076666666666,
      "v": 100
    },
    {
      "midi": 89,
      "hit": false,
      "t": 3173.0765,
      "d": 192.3076666666666,
      "v": 100
    },
    {
      "midi": 62,
      "hit": false,
      "t": 4326.9225,
      "d": 576.9229999999998,
      "v": 100
    },
    {
      "midi": 67,
      "hit": false,
      "t": 4759.61475,
      "d": 192.3076666666666,
      "v": 100
    },
    {
      "midi": 70,
      "hit": false,
      "t": 4903.845499999999,
      "d": 192.3076666666675,
      "v": 100
    },
    {
      "midi": 74,
      "hit": false,
      "t": 5048.07625,
      "d": 192.3076666666675,
      "v": 100
    },
    {
      "midi": 73,
      "hit": false,
      "t": 5192.307000000001,
      "d": 576.9230000000007,
      "v": 100
    },
    {
      "midi": 69,
      "hit": false,
      "t": 5769.230000000001,
      "d": 192.3076666666666,
      "v": 100
    },
    {
      "midi": 81,
      "hit": false,
      "t": 6923.076,
      "d": 576.9229999999998,
      "v": 100
    },
    {
      "midi": 85,
      "hit": false,
      "t": 6923.076,
      "d": 576.9229999999998,
      "v": 100
    },
    {
      "midi": 85,
      "hit": false,
      "t": 6923.076000000001,
      "d": 576.9229999999998,
      "v": 100
    },
    {
      "midi": 77,
      "hit": false,
      "t": 7499.999,
      "d": 192.3076666666666,
      "v": 100
    },
    {
      "midi": 81,
      "hit": false,
      "t": 7499.999,
      "d": 192.3076666666666,
      "v": 100
    },
    {
      "midi": 81,
      "hit": false,
      "t": 7499.999000000001,
      "d": 192.3076666666666,
      "v": 100
    },
    {
      "midi": 62,
      "hit": false,
      "t": 8653.845000000001,
      "d": 576.9230000000007,
      "v": 100
    },
    {
      "midi": 67,
      "hit": false,
      "t": 9086.537250000001,
      "d": 192.3076666666675,
      "v": 100
    },
    {
      "midi": 70,
      "hit": false,
      "t": 9230.768000000002,
      "d": 192.3076666666675,
      "v": 100
    },
    {
      "midi": 74,
      "hit": false,
      "t": 9374.998750000002,
      "d": 192.3076666666675,
      "v": 100
    },
    {
      "midi": 73,
      "hit": false,
      "t": 9519.229500000003,
      "d": 576.9230000000007,
      "v": 100
    },
    {
      "midi": 77,
      "hit": false,
      "t": 10096.152500000004,
      "d": 192.3076666666675,
      "v": 100
    },
    {
      "midi": 81,
      "hit": false,
      "t": 11249.9985,
      "d": 576.9230000000007,
      "v": 100
    },
    {
      "midi": 85,
      "hit": false,
      "t": 11249.9985,
      "d": 576.9230000000007,
      "v": 100
    },
    {
      "midi": 85,
      "hit": false,
      "t": 11249.998500000005,
      "d": 576.9230000000007,
      "v": 100
    },
    {
      "midi": 85,
      "hit": false,
      "t": 11826.9215,
      "d": 192.3076666666675,
      "v": 100
    },
    {
      "midi": 89,
      "hit": false,
      "t": 11826.9215,
      "d": 192.3076666666675,
      "v": 100
    },
    {
      "midi": 89,
      "hit": false,
      "t": 11826.921500000006,
      "d": 192.3076666666675,
      "v": 100
    },
    {
      "midi": 62,
      "hit": false,
      "t": 12980.767500000007,
      "d": 576.9230000000007,
      "v": 100
    },
    {
      "midi": 67,
      "hit": false,
      "t": 13413.459750000007,
      "d": 192.3076666666675,
      "v": 100
    },
    {
      "midi": 70,
      "hit": false,
      "t": 13557.690500000008,
      "d": 192.3076666666675,
      "v": 100
    },
    {
      "midi": 74,
      "hit": false,
      "t": 13701.921250000009,
      "d": 192.3076666666675,
      "v": 100
    },
    {
      "midi": 73,
      "hit": false,
      "t": 13846.15200000001,
      "d": 576.9230000000007,
      "v": 100
    },
    {
      "midi": 69,
      "hit": false,
      "t": 14423.07500000001,
      "d": 192.3076666666675,
      "v": 100
    },
    {
      "midi": 81,
      "hit": false,
      "t": 15576.921000000002,
      "d": 576.9230000000007,
      "v": 100
    },
    {
      "midi": 85,
      "hit": false,
      "t": 15576.921000000002,
      "d": 576.9230000000007,
      "v": 100
    },
    {
      "midi": 85,
      "hit": false,
      "t": 15576.921000000011,
      "d": 576.9230000000007,
      "v": 100
    },
    {
      "midi": 77,
      "hit": false,
      "t": 16153.844000000003,
      "d": 192.3076666666675,
      "v": 100
    },
    {
      "midi": 81,
      "hit": false,
      "t": 16153.844000000003,
      "d": 192.3076666666675,
      "v": 100
    },
    {
      "midi": 81,
      "hit": false,
      "t": 16153.844000000012,
      "d": 192.3076666666675,
      "v": 100
    }
  ]
}